{
  "jsonPath": "Pop/Tribute/The Beatles Revival Band/hello-goodbye-live.json",
  "path": "Pop\\Tribute\\The Beatles Revival Band\\Hello Goodbye (Live).mid",
  "name": "Hello Goodbye (Live)",
  "difficulty": "Advanced",
  "bpm": 99.000099000099,
  "notes": [
    {
      "midi": 62,
      "hit": false,
      "t": 2400,
      "d": 190.625,
      "v": 97
    },
    {
      "midi": 65,
      "hit": false,
      "t": 2400,
      "d": 196.875,
      "v": 97
    },
    {
      "midi": 69,
      "hit": false,
      "t": 2400,
      "d": 212.5,
      "v": 97
    },
    {
      "midi": 74,
      "hit": false,
      "t": 2400,
      "d": 1562.5,
      "v": 97
    },
    {
      "midi": 62,
      "hit": false,
      "t": 2700,
      "d": 106.25,
      "v": 97
    },
    {
      "midi": 65,
      "hit": false,
      "t": 2700,
      "d": 112.5,
      "v": 97
    },
    {
      "midi": 69,
      "hit": false,
      "t": 2700,
      "d": 112.5,
      "v": 97
    },
    {
      "midi": 65,
      "hit": false,
      "t": 3000,
      "d": 143.75,
      "v": 97
    },
    {
      "midi": 69,
      "hit": false,
      "t": 3000,
      "d": 143.75,
      "v": 97
    },
    {
      "midi": 62,
      "hit": false,
      "t": 3000,
      "d": 162.5,
      "v": 97
    },
    {
      "midi": 65,
      "hit": false,
      "t": 3300,
      "d": 128.125,
      "v": 97
    },
    {
      "midi": 69,
      "hit": false,
      "t": 3300,
      "d": 137.5,
      "v": 97
    },
    {
      "midi": 62,
      "hit": false,
      "t": 3300,
      "d": 146.875,
      "v": 97
    },
    {
      "midi": 69,
      "hit": false,
      "t": 3600,
      "d": 137.5,
      "v": 97
    },
    {
      "midi": 65,
      "hit": false,
      "t": 3600,
      "d": 143.75,
      "v": 97
    },
    {
      "midi": 62,
      "hit": false,
      "t": 3600,
      "d": 159.375,
      "v": 97
    },
    {
      "midi": 65,
      "hit": false,
      "t": 3900,
      "d": 100,
      "v": 97
    },
    {
      "midi": 62,
      "hit": false,
      "t": 3900,
      "d": 112.5,
      "v": 97
    },
    {
      "midi": 69,
      "hit": false,
      "t": 3900,
      "d": 118.75,
      "v": 97
    },
    {
      "midi": 62,
      "hit": false,
      "t": 4200,
      "d": 112.5,
      "v": 97
    },
    {
      "midi": 65,
      "hit": false,
      "t": 4200,
      "d": 112.5,
      "v": 97
    },
    {
      "midi": 69,
      "hit": false,
      "t": 4200,
      "d": 134.375,
      "v": 97
    },
    {
      "midi": 62,
      "hit": false,
      "t": 4500,
      "d": 78.125,
      "v": 97
    },
    {
      "midi": 65,
      "hit": false,
      "t": 4500,
      "d": 90.625,
      "v": 97
    },
    {
      "midi": 69,
      "hit": false,
      "t": 4500,
      "d": 115.625,
      "v": 97
    },
    {
      "midi": 67,
      "hit": false,
      "t": 4800,
      "d": 156.25,
      "v": 97
    },
    {
      "midi": 64,
      "hit": false,
      "t": 4800,
      "d": 168.75,
      "v": 97
    },
    {
      "midi": 60,
      "hit": false,
      "t": 4800,
      "d": 184.375,
      "v": 97
    },
    {
      "midi": 72,
      "hit": false,
      "t": 4800,
      "d": 1615.625,
      "v": 97
    },
    {
      "midi": 67,
      "hit": false,
      "t": 5100,
      "d": 165.625,
      "v": 97
    },
    {
      "midi": 60,
      "hit": false,
      "t": 5100,
      "d": 187.5,
      "v": 97
    },
    {
      "midi": 64,
      "hit": false,
      "t": 5100,
      "d": 187.5,
      "v": 97
    },
    {
      "midi": 67,
      "hit": false,
      "t": 5400,
      "d": 178.125,
      "v": 97
    },
    {
      "midi": 60,
      "hit": false,
      "t": 5400,
      "d": 187.5,
      "v": 97
    },
    {
      "midi": 64,
      "hit": false,
      "t": 5400,
      "d": 200,
      "v": 97
    },
    {
      "midi": 64,
      "hit": false,
      "t": 5700,
      "d": 137.5,
      "v": 97
    },
    {
      "midi": 67,
      "hit": false,
      "t": 5700,
      "d": 137.5,
      "v": 97
    },
    {
      "midi": 60,
      "hit": false,
      "t": 5700,
      "d": 143.75,
      "v": 97
    },
    {
      "midi": 60,
      "hit": false,
      "t": 6000,
      "d": 112.5,
      "v": 97
    },
    {
      "midi": 64,
      "hit": false,
      "t": 6000,
      "d": 112.5,
      "v": 97
    },
    {
      "midi": 67,
      "hit": false,
      "t": 6000,
      "d": 112.5,
      "v": 97
    },
    {
      "midi": 60,
      "hit": false,
      "t": 6300,
      "d": 100,
      "v": 97
    },
    {
      "midi": 64,
      "hit": false,
      "t": 6300,
      "d": 100,
      "v": 97
    },
    {
      "midi": 67,
      "hit": false,
      "t": 6300,
      "d": 115.625,
      "v": 97
    },
    {
      "midi": 64,
      "hit": false,
      "t": 6600,
      "d": 106.25,
      "v": 97
    },
    {
      "midi": 67,
      "hit": false,
      "t": 6600,
      "d": 112.5,
      "v": 97
    },
    {
      "midi": 60,
      "hit": false,
      "t": 6600,
      "d": 115.625,
      "v": 97
    },
    {
      "midi": 60,
      "hit": false,
      "t": 6900,
      "d": 96.875,
      "v": 97
    },
    {
      "midi": 64,
      "hit": false,
      "t": 6900,
      "d": 96.875,
      "v": 97
    },
    {
      "midi": 67,
      "hit": false,
      "t": 6900,
      "d": 118.75,
      "v": 97
    },
    {
      "midi": 65,
      "hit": false,
      "t": 7200,
      "d": 112.5,
      "v": 97
    },
    {
      "midi": 71,
      "hit": false,
      "t": 7200,
      "d": 140.625,
      "v": 97
    },
    {
      "midi": 62,
      "hit": false,
      "t": 7200,
      "d": 159.375,
      "v": 97
    },
    {
      "midi": 62,
      "hit": false,
      "t": 7500,
      "d": 178.125,
      "v": 97
    },
    {
      "midi": 65,
      "hit": false,
      "t": 7500,
      "d": 190.625,
      "v": 97
    },
    {
      "midi": 71,
      "hit": false,
      "t": 7500,
      "d": 190.625,
      "v": 97
    },
    {
      "midi": 62,
      "hit": false,
      "t": 7800,
      "d": 146.875,
      "v": 97
    },
    {
      "midi": 71,
      "hit": false,
      "t": 7800,
      "d": 159.375,
      "v": 97
    },
    {
      "midi": 65,
      "hit": false,
      "t": 7800,
      "d": 162.5,
      "v": 97
    },
    {
      "midi": 62,
      "hit": false,
      "t": 8100,
      "d": 156.25,
      "v": 97
    },
    {
      "midi": 65,
      "hit": false,
      "t": 8100,
      "d": 156.25,
      "v": 97
    },
    {
      "midi": 71,
      "hit": false,
      "t": 8100,
      "d": 171.875,
      "v": 97
    },
    {
      "midi": 62,
      "hit": false,
      "t": 8400,
      "d": 175,
      "v": 97
    },
    {
      "midi": 65,
      "hit": false,
      "t": 8400,
      "d": 196.875,
      "v": 97
    },
    {
      "midi": 71,
      "hit": false,
      "t": 8400,
      "d": 196.875,
      "v": 97
    },
    {
      "midi": 62,
      "hit": false,
      "t": 8700,
      "d": 165.625,
      "v": 97
    },
    {
      "midi": 65,
      "hit": false,
      "t": 8700,
      "d": 165.625,
      "v": 97
    },
    {
      "midi": 71,
      "hit": false,
      "t": 8700,
      "d": 175,
      "v": 97
    },
    {
      "midi": 62,
      "hit": false,
      "t": 9000,
      "d": 159.375,
      "v": 97
    },
    {
      "midi": 65,
      "hit": false,
      "t": 9000,
      "d": 165.625,
      "v": 97
    },
    {
      "midi": 71,
      "hit": false,
      "t": 9000,
      "d": 187.5,
      "v": 97
    },
    {
      "midi": 65,
      "hit": false,
      "t": 9300,
      "d": 112.5,
      "v": 97
    },
    {
      "midi": 62,
      "hit": false,
      "t": 9300,
      "d": 128.125,
      "v": 97
    },
    {
      "midi": 71,
      "hit": false,
      "t": 9300,
      "d": 128.125,
      "v": 97
    },
    {
      "midi": 60,
      "hit": false,
      "t": 9600,
      "d": 153.125,
      "v": 97
    },
    {
      "midi": 64,
      "hit": false,
      "t": 9600,
      "d": 162.5,
      "v": 97
    },
    {
      "midi": 69,
      "hit": false,
      "t": 9600,
      "d": 162.5,
      "v": 97
    },
    {
      "midi": 60,
      "hit": false,
      "t": 9900,
      "d": 178.125,
      "v": 97
    },
    {
      "midi": 69,
      "hit": false,
      "t": 9900,
      "d": 178.125,
      "v": 97
    },
    {
      "midi": 64,
      "hit": false,
      "t": 9900,
      "d": 190.625,
      "v": 97
    },
    {
      "midi": 64,
      "hit": false,
      "t": 10200,
      "d": 159.375,
      "v": 97
    },
    {
      "midi": 60,
      "hit": false,
      "t": 10200,
      "d": 168.75,
      "v": 97
    },
    {
      "midi": 69,
      "hit": false,
      "t": 10200,
      "d": 168.75,
      "v": 97
    },
    {
      "midi": 64,
      "hit": false,
      "t": 10500,
      "d": 165.625,
      "v": 97
    },
    {
      "midi": 69,
      "hit": false,
      "t": 10500,
      "d": 165.625,
      "v": 97
    },
    {
      "midi": 60,
      "hit": false,
      "t": 10500,
      "d": 171.875,
      "v": 97
    },
    {
      "midi": 60,
      "hit": false,
      "t": 10800,
      "d": 175,
      "v": 97
    },
    {
      "midi": 64,
      "hit": false,
      "t": 10800,
      "d": 187.5,
      "v": 97
    },
    {
      "midi": 69,
      "hit": false,
      "t": 10800,
      "d": 187.5,
      "v": 97
    },
    {
      "midi": 60,
      "hit": false,
      "t": 11100,
      "d": 168.75,
      "v": 97
    },
    {
      "midi": 64,
      "hit": false,
      "t": 11100,
      "d": 168.75,
      "v": 97
    },
    {
      "midi": 69,
      "hit": false,
      "t": 11100,
      "d": 175,
      "v": 97
    },
    {
      "midi": 64,
      "hit": false,
      "t": 11400,
      "d": 137.5,
      "v": 97
    },
    {
      "midi": 60,
      "hit": false,
      "t": 11400,
      "d": 153.125,
      "v": 97
    },
    {
      "midi": 69,
      "hit": false,
      "t": 11400,
      "d": 153.125,
      "v": 97
    },
    {
      "midi": 64,
      "hit": false,
      "t": 11700,
      "d": 143.75,
      "v": 97
    },
    {
      "midi": 60,
      "hit": false,
      "t": 11700,
      "d": 150,
      "v": 97
    },
    {
      "midi": 69,
      "hit": false,
      "t": 11700,
      "d": 159.375,
      "v": 97
    },
    {
      "midi": 65,
      "hit": false,
      "t": 12000,
      "d": 150,
      "v": 97
    },
    {
      "midi": 62,
      "hit": false,
      "t": 12000,
      "d": 162.5,
      "v": 97
    },
    {
      "midi": 71,
      "hit": false,
      "t": 12000,
      "d": 175,
      "v": 97
    },
    {
      "midi": 71,
      "hit": false,
      "t": 12300,
      "d": 187.5,
      "v": 97
    },
    {
      "midi": 62,
      "hit": false,
      "t": 12300,
      "d": 196.875,
      "v": 97
    },
    {
      "midi": 65,
      "hit": false,
      "t": 12300,
      "d": 203.125,
      "v": 97
    },
    {
      "midi": 62,
      "hit": false,
      "t": 12600,
      "d": 184.375,
      "v": 97
    },
    {
      "midi": 71,
      "hit": false,
      "t": 12600,
      "d": 184.375,
      "v": 97
    },
    {
      "midi": 65,
      "hit": false,
      "t": 12600,
      "d": 203.125,
      "v": 97
    },
    {
      "midi": 62,
      "hit": false,
      "t": 12900,
      "d": 150,
      "v": 97
    },
    {
      "midi": 65,
      "hit": false,
      "t": 12900,
      "d": 150,
      "v": 97
    },
    {
      "midi": 71,
      "hit": false,
      "t": 12900,
      "d": 162.5,
      "v": 97
    },
    {
      "midi": 62,
      "hit": false,
      "t": 13200,
      "d": 168.75,
      "v": 97
    },
    {
      "midi": 65,
      "hit": false,
      "t": 13200,
      "d": 181.25,
      "v": 97
    },
    {
      "midi": 71,
      "hit": false,
      "t": 13200,
      "d": 187.5,
      "v": 97
    },
    {
      "midi": 65,
      "hit": false,
      "t": 13500,
      "d": 153.125,
      "v": 97
    },
    {
      "midi": 62,
      "hit": false,
      "t": 13500,
      "d": 162.5,
      "v": 97
    },
    {
      "midi": 71,
      "hit": false,
      "t": 13500,
      "d": 178.125,
      "v": 97
    },
    {
      "midi": 62,
      "hit": false,
      "t": 13800,
      "d": 153.125,
      "v": 97
    },
    {
      "midi": 65,
      "hit": false,
      "t": 13800,
      "d": 159.375,
      "v": 97
    },
    {
      "midi": 71,
      "hit": false,
      "t": 13800,
      "d": 175,
      "v": 97
    },
    {
      "midi": 65,
      "hit": false,
      "t": 14100,
      "d": 121.875,
      "v": 97
    },
    {
      "midi": 71,
      "hit": false,
      "t": 14100,
      "d": 140.625,
      "v": 97
    },
    {
      "midi": 62,
      "hit": false,
      "t": 14100,
      "d": 153.125,
      "v": 97
    },
    {
      "midi": 64,
      "hit": false,
      "t": 14400,
      "d": 153.125,
      "v": 97
    },
    {
      "midi": 72,
      "hit": false,
      "t": 14400,
      "d": 162.5,
      "v": 97
    },
    {
      "midi": 69,
      "hit": false,
      "t": 14400,
      "d": 175,
      "v": 97
    },
    {
      "midi": 64,
      "hit": false,
      "t": 14700,
      "d": 131.25,
      "v": 97
    },
    {
      "midi": 69,
      "hit": false,
      "t": 14700,
      "d": 143.75,
      "v": 97
    },
    {
      "midi": 72,
      "hit": false,
      "t": 14700,
      "d": 156.25,
      "v": 97
    },
    {
      "midi": 69,
      "hit": false,
      "t": 15000,
      "d": 109.375,
      "v": 97
    },
    {
      "midi": 64,
      "hit": false,
      "t": 15000,
      "d": 128.125,
      "v": 97
    },
    {
      "midi": 72,
      "hit": false,
      "t": 15000,
      "d": 146.875,
      "v": 97
    },
    {
      "midi": 69,
      "hit": false,
      "t": 15300,
      "d": 121.875,
      "v": 97
    },
    {
      "midi": 64,
      "hit": false,
      "t": 15300,
      "d": 137.5,
      "v": 97
    },
    {
      "midi": 72,
      "hit": false,
      "t": 15300,
      "d": 156.25,
      "v": 97
    },
    {
      "midi": 69,
      "hit": false,
      "t": 15600,
      "d": 112.5,
      "v": 97
    },
    {
      "midi": 64,
      "hit": false,
      "t": 15600,
      "d": 134.375,
      "v": 97
    },
    {
      "midi": 72,
      "hit": false,
      "t": 15600,
      "d": 150,
      "v": 97
    },
    {
      "midi": 69,
      "hit": false,
      "t": 15900,
      "d": 125,
      "v": 97
    },
    {
      "midi": 64,
      "hit": false,
      "t": 15900,
      "d": 140.625,
      "v": 97
    },
    {
      "midi": 72,
      "hit": false,
      "t": 15900,
      "d": 150,
      "v": 97
    },
    {
      "midi": 69,
      "hit": false,
      "t": 16200,
      "d": 106.25,
      "v": 97
    },
    {
      "midi": 64,
      "hit": false,
      "t": 16200,
      "d": 125,
      "v": 97
    },
    {
      "midi": 72,
      "hit": false,
      "t": 16200,
      "d": 143.75,
      "v": 97
    },
    {
      "midi": 69,
      "hit": false,
      "t": 16500,
      "d": 112.5,
      "v": 97
    },
    {
      "midi": 72,
      "hit": false,
      "t": 16500,
      "d": 125,
      "v": 97
    },
    {
      "midi": 64,
      "hit": false,
      "t": 16500,
      "d": 131.25,
      "v": 97
    },
    {
      "midi": 62,
      "hit": false,
      "t": 16800,
      "d": 137.5,
      "v": 97
    },
    {
      "midi": 65,
      "hit": false,
      "t": 16800,
      "d": 143.75,
      "v": 97
    },
    {
      "midi": 71,
      "hit": false,
      "t": 16800,
      "d": 162.5,
      "v": 97
    },
    {
      "midi": 62,
      "hit": false,
      "t": 17100,
      "d": 128.125,
      "v": 97
    },
    {
      "midi": 65,
      "hit": false,
      "t": 17100,
      "d": 134.375,
      "v": 97
    },
    {
      "midi": 71,
      "hit": false,
      "t": 17100,
      "d": 156.25,
      "v": 97
    },
    {
      "midi": 62,
      "hit": false,
      "t": 17400,
      "d": 137.5,
      "v": 97
    },
    {
      "midi": 71,
      "hit": false,
      "t": 17400,
      "d": 150,
      "v": 97
    },
    {
      "midi": 65,
      "hit": false,
      "t": 17400,
      "d": 153.125,
      "v": 97
    },
    {
      "midi": 62,
      "hit": false,
      "t": 17700,
      "d": 146.875,
      "v": 97
    },
    {
      "midi": 65,
      "hit": false,
      "t": 17700,
      "d": 146.875,
      "v": 97
    },
    {
      "midi": 71,
      "hit": false,
      "t": 17700,
      "d": 162.5,
      "v": 97
    },
    {
      "midi": 62,
      "hit": false,
      "t": 18000,
      "d": 125,
      "v": 97
    },
    {
      "midi": 65,
      "hit": false,
      "t": 18000,
      "d": 125,
      "v": 97
    },
    {
      "midi": 71,
      "hit": false,
      "t": 18000,
      "d": 143.75,
      "v": 97
    },
    {
      "midi": 62,
      "hit": false,
      "t": 18300,
      "d": 128.125,
      "v": 97
    },
    {
      "midi": 65,
      "hit": false,
      "t": 18300,
      "d": 137.5,
      "v": 97
    },
    {
      "midi": 71,
      "hit": false,
      "t": 18300,
      "d": 137.5,
      "v": 97
    },
    {
      "midi": 62,
      "hit": false,
      "t": 18600,
      "d": 121.875,
      "v": 97
    },
    {
      "midi": 65,
      "hit": false,
      "t": 18600,
      "d": 150,
      "v": 97
    },
    {
      "midi": 71,
      "hit": false,
      "t": 18600,
      "d": 150,
      "v": 97
    },
    {
      "midi": 62,
      "hit": false,
      "t": 18900,
      "d": 125,
      "v": 97
    },
    {
      "midi": 65,
      "hit": false,
      "t": 18900,
      "d": 128.125,
      "v": 97
    },
    {
      "midi": 71,
      "hit": false,
      "t": 18900,
      "d": 140.625,
      "v": 97
    },
    {
      "midi": 59,
      "hit": false,
      "t": 19200,
      "d": 584.375,
      "v": 97
    },
    {
      "midi": 62,
      "hit": false,
      "t": 19500,
      "d": 321.875,
      "v": 97
    },
    {
      "midi": 67,
      "hit": false,
      "t": 19800,
      "d": 428.125,
      "v": 97
    },
    {
      "midi": 62,
      "hit": false,
      "t": 20100,
      "d": 328.125,
      "v": 97
    },
    {
      "midi": 59,
      "hit": false,
      "t": 20400,
      "d": 312.5,
      "v": 97
    },
    {
      "midi": 55,
      "hit": false,
      "t": 20700,
      "d": 200,
      "v": 97
    },
    {
      "midi": 55,
      "hit": false,
      "t": 21000,
      "d": 165.625,
      "v": 97
    },
    {
      "midi": 55,
      "hit": false,
      "t": 21300,
      "d": 187.5,
      "v": 97
    },
    {
      "midi": 60,
      "hit": false,
      "t": 21600,
      "d": 1159.375,
      "v": 97
    },
    {
      "midi": 65,
      "hit": false,
      "t": 21600,
      "d": 1159.375,
      "v": 97
    },
    {
      "midi": 69,
      "hit": false,
      "t": 21600,
      "d": 1184.375,
      "v": 97
    },
    {
      "midi": 48,
      "hit": false,
      "t": 22800,
      "d": 228.125,
      "v": 97
    },
    {
      "midi": 67,
      "hit": false,
      "t": 22800,
      "d": 1050,
      "v": 97
    },
    {
      "midi": 64,
      "hit": false,
      "t": 22800,
      "d": 1062.5,
      "v": 97
    },
    {
      "midi": 60,
      "hit": false,
      "t": 22800,
      "d": 1068.75,
      "v": 97
    },
    {
      "midi": 48,
      "hit": false,
      "t": 23100,
      "d": 203.125,
      "v": 97
    },
    {
      "midi": 48,
      "hit": false,
      "t": 23400,
      "d": 168.75,
      "v": 97
    },
    {
      "midi": 48,
      "hit": false,
      "t": 23700,
      "d": 225,
      "v": 97
    },
    {
      "midi": 47,
      "hit": false,
      "t": 24000,
      "d": 187.5,
      "v": 97
    },
    {
      "midi": 59,
      "hit": false,
      "t": 24000,
      "d": 965.625,
      "v": 97
    },
    {
      "midi": 67,
      "hit": false,
      "t": 24000,
      "d": 987.5,
      "v": 97
    },
    {
      "midi": 64,
      "hit": false,
      "t": 24000,
      "d": 1000,
      "v": 97
    },
    {
      "midi": 47,
      "hit": false,
      "t": 24300,
      "d": 200,
      "v": 97
    },
    {
      "midi": 47,
      "hit": false,
      "t": 24600,
      "d": 196.875,
      "v": 97
    },
    {
      "midi": 47,
      "hit": false,
      "t": 24900,
      "d": 268.75,
      "v": 97
    },
    {
      "midi": 45,
      "hit": false,
      "t": 25200,
      "d": 196.875,
      "v": 97
    },
    {
      "midi": 57,
      "hit": false,
      "t": 25200,
      "d": 937.5,
      "v": 97
    },
    {
      "midi": 67,
      "hit": false,
      "t": 25200,
      "d": 987.5,
      "v": 97
    },
    {
      "midi": 60,
      "hit": false,
      "t": 25200,
      "d": 1003.125,
      "v": 97
    },
    {
      "midi": 64,
      "hit": false,
      "t": 25200,
      "d": 1025,
      "v": 97
    },
    {
      "midi": 45,
      "hit": false,
      "t": 25500,
      "d": 209.375,
      "v": 97
    },
    {
      "midi": 45,
      "hit": false,
      "t": 25800,
      "d": 234.375,
      "v": 97
    },
    {
      "midi": 45,
      "hit": false,
      "t": 26100,
      "d": 200,
      "v": 97
    },
    {
      "midi": 43,
      "hit": false,
      "t": 26400,
      "d": 228.125,
      "v": 97
    },
    {
      "midi": 64,
      "hit": false,
      "t": 26400,
      "d": 915.625,
      "v": 97
    },
    {
      "midi": 67,
      "hit": false,
      "t": 26400,
      "d": 915.625,
      "v": 97
    },
    {
      "midi": 55,
      "hit": false,
      "t": 26400,
      "d": 943.75,
      "v": 97
    },
    {
      "midi": 60,
      "hit": false,
      "t": 26400,
      "d": 943.75,
      "v": 97
    },
    {
      "midi": 43,
      "hit": false,
      "t": 26700,
      "d": 237.5,
      "v": 97
    },
    {
      "midi": 43,
      "hit": false,
      "t": 27000,
      "d": 171.875,
      "v": 97
    },
    {
      "midi": 43,
      "hit": false,
      "t": 27300,
      "d": 221.875,
      "v": 97
    },
    {
      "midi": 41,
      "hit": false,
      "t": 27600,
      "d": 225,
      "v": 97
    },
    {
      "midi": 57,
      "hit": false,
      "t": 27600,
      "d": 975,
      "v": 97
    },
    {
      "midi": 53,
      "hit": false,
      "t": 27600,
      "d": 984.375,
      "v": 97
    },
    {
      "midi": 60,
      "hit": false,
      "t": 27600,
      "d": 1000,
      "v": 97
    },
    {
      "midi": 41,
      "hit": false,
      "t": 27900,
      "d": 193.75,
      "v": 97
    },
    {
      "midi": 41,
      "hit": false,
      "t": 28200,
      "d": 203.125,
      "v": 97
    },
    {
      "midi": 41,
      "hit": false,
      "t": 28500,
      "d": 225,
      "v": 97
    },
    {
      "midi": 44,
      "hit": false,
      "t": 28800,
      "d": 206.25,
      "v": 97
    },
    {
      "midi": 56,
      "hit": false,
      "t": 28800,
      "d": 1059.375,
      "v": 97
    },
    {
      "midi": 60,
      "hit": false,
      "t": 28800,
      "d": 1075,
      "v": 97
    },
    {
      "midi": 65,
      "hit": false,
      "t": 28800,
      "d": 1128.125,
      "v": 97
    },
    {
      "midi": 44,
      "hit": false,
      "t": 29100,
      "d": 190.625,
      "v": 97
    },
    {
      "midi": 44,
      "hit": false,
      "t": 29400,
      "d": 200,
      "v": 97
    },
    {
      "midi": 44,
      "hit": false,
      "t": 29700,
      "d": 228.125,
      "v": 97
    },
    {
      "midi": 48,
      "hit": false,
      "t": 30000,
      "d": 225,
      "v": 97
    },
    {
      "midi": 60,
      "hit": false,
      "t": 30000,
      "d": 971.875,
      "v": 97
    },
    {
      "midi": 64,
      "hit": false,
      "t": 30000,
      "d": 971.875,
      "v": 97
    },
    {
      "midi": 67,
      "hit": false,
      "t": 30000,
      "d": 971.875,
      "v": 97
    },
    {
      "midi": 48,
      "hit": false,
      "t": 30300,
      "d": 178.125,
      "v": 97
    },
    {
      "midi": 48,
      "hit": false,
      "t": 30600,
      "d": 171.875,
      "v": 97
    },
    {
      "midi": 48,
      "hit": false,
      "t": 30900,
      "d": 221.875,
      "v": 97
    },
    {
      "midi": 47,
      "hit": false,
      "t": 31200,
      "d": 181.25,
      "v": 97
    },
    {
      "midi": 67,
      "hit": false,
      "t": 31200,
      "d": 900,
      "v": 97
    },
    {
      "midi": 59,
      "hit": false,
      "t": 31200,
      "d": 937.5,
      "v": 97
    },
    {
      "midi": 64,
      "hit": false,
      "t": 31200,
      "d": 971.875,
      "v": 97
    },
    {
      "midi": 47,
      "hit": false,
      "t": 31500,
      "d": 200,
      "v": 97
    },
    {
      "midi": 47,
      "hit": false,
      "t": 31800,
      "d": 184.375,
      "v": 97
    },
    {
      "midi": 47,
      "hit": false,
      "t": 32100,
      "d": 228.125,
      "v": 97
    },
    {
      "midi": 45,
      "hit": false,
      "t": 32400,
      "d": 184.375,
      "v": 97
    },
    {
      "midi": 57,
      "hit": false,
      "t": 32400,
      "d": 934.375,
      "v": 97
    },
    {
      "midi": 64,
      "hit": false,
      "t": 32400,
      "d": 946.875,
      "v": 97
    },
    {
      "midi": 67,
      "hit": false,
      "t": 32400,
      "d": 962.5,
      "v": 97
    },
    {
      "midi": 60,
      "hit": false,
      "t": 32400,
      "d": 968.75,
      "v": 97
    },
    {
      "midi": 45,
      "hit": false,
      "t": 32700,
      "d": 206.25,
      "v": 97
    },
    {
      "midi": 45,
      "hit": false,
      "t": 33000,
      "d": 171.875,
      "v": 97
    },
    {
      "midi": 45,
      "hit": false,
      "t": 33300,
      "d": 250,
      "v": 97
    },
    {
      "midi": 43,
      "hit": false,
      "t": 33600,
      "d": 253.125,
      "v": 97
    },
    {
      "midi": 67,
      "hit": false,
      "t": 33600,
      "d": 815.625,
      "v": 97
    },
    {
      "midi": 64,
      "hit": false,
      "t": 33600,
      "d": 837.5,
      "v": 97
    },
    {
      "midi": 55,
      "hit": false,
      "t": 33600,
      "d": 850,
      "v": 97
    },
    {
      "midi": 60,
      "hit": false,
      "t": 33600,
      "d": 881.25,
      "v": 97
    },
    {
      "midi": 43,
      "hit": false,
      "t": 33900,
      "d": 178.125,
      "v": 97
    },
    {
      "midi": 43,
      "hit": false,
      "t": 34200,
      "d": 178.125,
      "v": 97
    },
    {
      "midi": 43,
      "hit": false,
      "t": 34500,
      "d": 221.875,
      "v": 97
    },
    {
      "midi": 41,
      "hit": false,
      "t": 34800,
      "d": 200,
      "v": 97
    },
    {
      "midi": 57,
      "hit": false,
      "t": 34800,
      "d": 965.625,
      "v": 97
    },
    {
      "midi": 53,
      "hit": false,
      "t": 34800,
      "d": 975,
      "v": 97
    },
    {
      "midi": 60,
      "hit": false,
      "t": 34800,
      "d": 1000,
      "v": 97
    },
    {
      "midi": 41,
      "hit": false,
      "t": 35100,
      "d": 181.25,
      "v": 97
    },
    {
      "midi": 41,
      "hit": false,
      "t": 35400,
      "d": 171.875,
      "v": 97
    },
    {
      "midi": 41,
      "hit": false,
      "t": 35700,
      "d": 190.625,
      "v": 97
    },
    {
      "midi": 46,
      "hit": false,
      "t": 36000,
      "d": 193.75,
      "v": 97
    },
    {
      "midi": 53,
      "hit": false,
      "t": 36000,
      "d": 1068.75,
      "v": 97
    },
    {
      "midi": 56,
      "hit": false,
      "t": 36000,
      "d": 1081.25,
      "v": 97
    },
    {
      "midi": 62,
      "hit": false,
      "t": 36000,
      "d": 1100,
      "v": 97
    },
    {
      "midi": 46,
      "hit": false,
      "t": 36300,
      "d": 187.5,
      "v": 97
    },
    {
      "midi": 46,
      "hit": false,
      "t": 36600,
      "d": 165.625,
      "v": 97
    },
    {
      "midi": 46,
      "hit": false,
      "t": 36900,
      "d": 200,
      "v": 97
    },
    {
      "midi": 55,
      "hit": false,
      "t": 37200,
      "d": 2212.5,
      "v": 97
    },
    {
      "midi": 60,
      "hit": false,
      "t": 37200,
      "d": 2218.75,
      "v": 97
    },
    {
      "midi": 64,
      "hit": false,
      "t": 37200,
      "d": 2262.5,
      "v": 97
    },
    {
      "midi": 48,
      "hit": false,
      "t": 37200,
      "d": 2300,
      "v": 97
    },
    {
      "midi": 62,
      "hit": false,
      "t": 39600,
      "d": 190.625,
      "v": 97
    },
    {
      "midi": 65,
      "hit": false,
      "t": 39600,
      "d": 196.875,
      "v": 97
    },
    {
      "midi": 69,
      "hit": false,
      "t": 39600,
      "d": 212.5,
      "v": 97
    },
    {
      "midi": 74,
      "hit": false,
      "t": 39600,
      "d": 1562.5,
      "v": 97
    },
    {
      "midi": 62,
      "hit": false,
      "t": 39900,
      "d": 106.25,
      "v": 97
    },
    {
      "midi": 65,
      "hit": false,
      "t": 39900,
      "d": 112.5,
      "v": 97
    },
    {
      "midi": 69,
      "hit": false,
      "t": 39900,
      "d": 112.5,
      "v": 97
    },
    {
      "midi": 65,
      "hit": false,
      "t": 40200,
      "d": 143.75,
      "v": 97
    },
    {
      "midi": 69,
      "hit": false,
      "t": 40200,
      "d": 143.75,
      "v": 97
    },
    {
      "midi": 62,
      "hit": false,
      "t": 40200,
      "d": 162.5,
      "v": 97
    },
    {
      "midi": 65,
      "hit": false,
      "t": 40500,
      "d": 128.125,
      "v": 97
    },
    {
      "midi": 69,
      "hit": false,
      "t": 40500,
      "d": 137.5,
      "v": 97
    },
    {
      "midi": 62,
      "hit": false,
      "t": 40500,
      "d": 146.875,
      "v": 97
    },
    {
      "midi": 69,
      "hit": false,
      "t": 40800,
      "d": 137.5,
      "v": 97
    },
    {
      "midi": 65,
      "hit": false,
      "t": 40800,
      "d": 143.75,
      "v": 97
    },
    {
      "midi": 62,
      "hit": false,
      "t": 40800,
      "d": 159.375,
      "v": 97
    },
    {
      "midi": 65,
      "hit": false,
      "t": 41100,
      "d": 100,
      "v": 97
    },
    {
      "midi": 62,
      "hit": false,
      "t": 41100,
      "d": 112.5,
      "v": 97
    },
    {
      "midi": 69,
      "hit": false,
      "t": 41100,
      "d": 118.75,
      "v": 97
    },
    {
      "midi": 62,
      "hit": false,
      "t": 41400,
      "d": 112.5,
      "v": 97
    },
    {
      "midi": 65,
      "hit": false,
      "t": 41400,
      "d": 112.5,
      "v": 97
    },
    {
      "midi": 69,
      "hit": false,
      "t": 41400,
      "d": 134.375,
      "v": 97
    },
    {
      "midi": 62,
      "hit": false,
      "t": 41700,
      "d": 78.125,
      "v": 97
    },
    {
      "midi": 65,
      "hit": false,
      "t": 41700,
      "d": 90.625,
      "v": 97
    },
    {
      "midi": 69,
      "hit": false,
      "t": 41700,
      "d": 115.625,
      "v": 97
    },
    {
      "midi": 67,
      "hit": false,
      "t": 42000,
      "d": 156.25,
      "v": 97
    },
    {
      "midi": 64,
      "hit": false,
      "t": 42000,
      "d": 168.75,
      "v": 97
    },
    {
      "midi": 60,
      "hit": false,
      "t": 42000,
      "d": 184.375,
      "v": 97
    },
    {
      "midi": 72,
      "hit": false,
      "t": 42000,
      "d": 1615.625,
      "v": 97
    },
    {
      "midi": 67,
      "hit": false,
      "t": 42300,
      "d": 165.625,
      "v": 97
    },
    {
      "midi": 60,
      "hit": false,
      "t": 42300,
      "d": 187.5,
      "v": 97
    },
    {
      "midi": 64,
      "hit": false,
      "t": 42300,
      "d": 187.5,
      "v": 97
    },
    {
      "midi": 67,
      "hit": false,
      "t": 42600,
      "d": 178.125,
      "v": 97
    },
    {
      "midi": 60,
      "hit": false,
      "t": 42600,
      "d": 187.5,
      "v": 97
    },
    {
      "midi": 64,
      "hit": false,
      "t": 42600,
      "d": 200,
      "v": 97
    },
    {
      "midi": 64,
      "hit": false,
      "t": 42900,
      "d": 137.5,
      "v": 97
    },
    {
      "midi": 67,
      "hit": false,
      "t": 42900,
      "d": 137.5,
      "v": 97
    },
    {
      "midi": 60,
      "hit": false,
      "t": 42900,
      "d": 143.75,
      "v": 97
    },
    {
      "midi": 60,
      "hit": false,
      "t": 43200,
      "d": 112.5,
      "v": 97
    },
    {
      "midi": 64,
      "hit": false,
      "t": 43200,
      "d": 112.5,
      "v": 97
    },
    {
      "midi": 67,
      "hit": false,
      "t": 43200,
      "d": 112.5,
      "v": 97
    },
    {
      "midi": 60,
      "hit": false,
      "t": 43500,
      "d": 100,
      "v": 97
    },
    {
      "midi": 64,
      "hit": false,
      "t": 43500,
      "d": 100,
      "v": 97
    },
    {
      "midi": 67,
      "hit": false,
      "t": 43500,
      "d": 115.625,
      "v": 97
    },
    {
      "midi": 64,
      "hit": false,
      "t": 43800,
      "d": 106.25,
      "v": 97
    },
    {
      "midi": 67,
      "hit": false,
      "t": 43800,
      "d": 112.5,
      "v": 97
    },
    {
      "midi": 60,
      "hit": false,
      "t": 43800,
      "d": 115.625,
      "v": 97
    },
    {
      "midi": 60,
      "hit": false,
      "t": 44100,
      "d": 96.875,
      "v": 97
    },
    {
      "midi": 64,
      "hit": false,
      "t": 44100,
      "d": 96.875,
      "v": 97
    },
    {
      "midi": 67,
      "hit": false,
      "t": 44100,
      "d": 118.75,
      "v": 97
    },
    {
      "midi": 65,
      "hit": false,
      "t": 44400,
      "d": 112.5,
      "v": 97
    },
    {
      "midi": 71,
      "hit": false,
      "t": 44400,
      "d": 140.625,
      "v": 97
    },
    {
      "midi": 62,
      "hit": false,
      "t": 44400,
      "d": 159.375,
      "v": 97
    },
    {
      "midi": 62,
      "hit": false,
      "t": 44700,
      "d": 178.125,
      "v": 97
    },
    {
      "midi": 65,
      "hit": false,
      "t": 44700,
      "d": 190.625,
      "v": 97
    },
    {
      "midi": 71,
      "hit": false,
      "t": 44700,
      "d": 190.625,
      "v": 97
    },
    {
      "midi": 62,
      "hit": false,
      "t": 45000,
      "d": 146.875,
      "v": 97
    },
    {
      "midi": 71,
      "hit": false,
      "t": 45000,
      "d": 159.375,
      "v": 97
    },
    {
      "midi": 65,
      "hit": false,
      "t": 45000,
      "d": 162.5,
      "v": 97
    },
    {
      "midi": 62,
      "hit": false,
      "t": 45300,
      "d": 156.25,
      "v": 97
    },
    {
      "midi": 65,
      "hit": false,
      "t": 45300,
      "d": 156.25,
      "v": 97
    },
    {
      "midi": 71,
      "hit": false,
      "t": 45300,
      "d": 171.875,
      "v": 97
    },
    {
      "midi": 62,
      "hit": false,
      "t": 45600,
      "d": 175,
      "v": 97
    },
    {
      "midi": 65,
      "hit": false,
      "t": 45600,
      "d": 196.875,
      "v": 97
    },
    {
      "midi": 71,
      "hit": false,
      "t": 45600,
      "d": 196.875,
      "v": 97
    },
    {
      "midi": 62,
      "hit": false,
      "t": 45900,
      "d": 165.625,
      "v": 97
    },
    {
      "midi": 65,
      "hit": false,
      "t": 45900,
      "d": 165.625,
      "v": 97
    },
    {
      "midi": 71,
      "hit": false,
      "t": 45900,
      "d": 175,
      "v": 97
    },
    {
      "midi": 62,
      "hit": false,
      "t": 46200,
      "d": 159.375,
      "v": 97
    },
    {
      "midi": 65,
      "hit": false,
      "t": 46200,
      "d": 165.625,
      "v": 97
    },
    {
      "midi": 71,
      "hit": false,
      "t": 46200,
      "d": 187.5,
      "v": 97
    },
    {
      "midi": 65,
      "hit": false,
      "t": 46500,
      "d": 112.5,
      "v": 97
    },
    {
      "midi": 62,
      "hit": false,
      "t": 46500,
      "d": 128.125,
      "v": 97
    },
    {
      "midi": 71,
      "hit": false,
      "t": 46500,
      "d": 128.125,
      "v": 97
    },
    {
      "midi": 60,
      "hit": false,
      "t": 46800,
      "d": 153.125,
      "v": 97
    },
    {
      "midi": 64,
      "hit": false,
      "t": 46800,
      "d": 162.5,
      "v": 97
    },
    {
      "midi": 69,
      "hit": false,
      "t": 46800,
      "d": 162.5,
      "v": 97
    },
    {
      "midi": 60,
      "hit": false,
      "t": 47100,
      "d": 178.125,
      "v": 97
    },
    {
      "midi": 69,
      "hit": false,
      "t": 47100,
      "d": 178.125,
      "v": 97
    },
    {
      "midi": 64,
      "hit": false,
      "t": 47100,
      "d": 190.625,
      "v": 97
    },
    {
      "midi": 64,
      "hit": false,
      "t": 47400,
      "d": 159.375,
      "v": 97
    },
    {
      "midi": 60,
      "hit": false,
      "t": 47400,
      "d": 168.75,
      "v": 97
    },
    {
      "midi": 69,
      "hit": false,
      "t": 47400,
      "d": 168.75,
      "v": 97
    },
    {
      "midi": 64,
      "hit": false,
      "t": 47700,
      "d": 165.625,
      "v": 97
    },
    {
      "midi": 69,
      "hit": false,
      "t": 47700,
      "d": 165.625,
      "v": 97
    },
    {
      "midi": 60,
      "hit": false,
      "t": 47700,
      "d": 171.875,
      "v": 97
    },
    {
      "midi": 60,
      "hit": false,
      "t": 48000,
      "d": 175,
      "v": 97
    },
    {
      "midi": 64,
      "hit": false,
      "t": 48000,
      "d": 187.5,
      "v": 97
    },
    {
      "midi": 69,
      "hit": false,
      "t": 48000,
      "d": 187.5,
      "v": 97
    },
    {
      "midi": 60,
      "hit": false,
      "t": 48300,
      "d": 168.75,
      "v": 97
    },
    {
      "midi": 64,
      "hit": false,
      "t": 48300,
      "d": 168.75,
      "v": 97
    },
    {
      "midi": 69,
      "hit": false,
      "t": 48300,
      "d": 175,
      "v": 97
    },
    {
      "midi": 64,
      "hit": false,
      "t": 48600,
      "d": 137.5,
      "v": 97
    },
    {
      "midi": 60,
      "hit": false,
      "t": 48600,
      "d": 153.125,
      "v": 97
    },
    {
      "midi": 69,
      "hit": false,
      "t": 48600,
      "d": 153.125,
      "v": 97
    },
    {
      "midi": 64,
      "hit": false,
      "t": 48900,
      "d": 143.75,
      "v": 97
    },
    {
      "midi": 60,
      "hit": false,
      "t": 48900,
      "d": 150,
      "v": 97
    },
    {
      "midi": 69,
      "hit": false,
      "t": 48900,
      "d": 159.375,
      "v": 97
    },
    {
      "midi": 65,
      "hit": false,
      "t": 49200,
      "d": 150,
      "v": 97
    },
    {
      "midi": 62,
      "hit": false,
      "t": 49200,
      "d": 162.5,
      "v": 97
    },
    {
      "midi": 71,
      "hit": false,
      "t": 49200,
      "d": 175,
      "v": 97
    },
    {
      "midi": 71,
      "hit": false,
      "t": 49500,
      "d": 187.5,
      "v": 97
    },
    {
      "midi": 62,
      "hit": false,
      "t": 49500,
      "d": 196.875,
      "v": 97
    },
    {
      "midi": 65,
      "hit": false,
      "t": 49500,
      "d": 203.125,
      "v": 97
    },
    {
      "midi": 62,
      "hit": false,
      "t": 49800,
      "d": 184.375,
      "v": 97
    },
    {
      "midi": 71,
      "hit": false,
      "t": 49800,
      "d": 184.375,
      "v": 97
    },
    {
      "midi": 65,
      "hit": false,
      "t": 49800,
      "d": 203.125,
      "v": 97
    },
    {
      "midi": 62,
      "hit": false,
      "t": 50100,
      "d": 150,
      "v": 97
    },
    {
      "midi": 65,
      "hit": false,
      "t": 50100,
      "d": 150,
      "v": 97
    },
    {
      "midi": 71,
      "hit": false,
      "t": 50100,
      "d": 162.5,
      "v": 97
    },
    {
      "midi": 62,
      "hit": false,
      "t": 50400,
      "d": 168.75,
      "v": 97
    },
    {
      "midi": 65,
      "hit": false,
      "t": 50400,
      "d": 181.25,
      "v": 97
    },
    {
      "midi": 71,
      "hit": false,
      "t": 50400,
      "d": 187.5,
      "v": 97
    },
    {
      "midi": 65,
      "hit": false,
      "t": 50700,
      "d": 153.125,
      "v": 97
    },
    {
      "midi": 62,
      "hit": false,
      "t": 50700,
      "d": 162.5,
      "v": 97
    },
    {
      "midi": 71,
      "hit": false,
      "t": 50700,
      "d": 178.125,
      "v": 97
    },
    {
      "midi": 62,
      "hit": false,
      "t": 51000,
      "d": 153.125,
      "v": 97
    },
    {
      "midi": 65,
      "hit": false,
      "t": 51000,
      "d": 159.375,
      "v": 97
    },
    {
      "midi": 71,
      "hit": false,
      "t": 51000,
      "d": 175,
      "v": 97
    },
    {
      "midi": 65,
      "hit": false,
      "t": 51300,
      "d": 121.875,
      "v": 97
    },
    {
      "midi": 71,
      "hit": false,
      "t": 51300,
      "d": 140.625,
      "v": 97
    },
    {
      "midi": 62,
      "hit": false,
      "t": 51300,
      "d": 153.125,
      "v": 97
    },
    {
      "midi": 64,
      "hit": false,
      "t": 51600,
      "d": 153.125,
      "v": 97
    },
    {
      "midi": 72,
      "hit": false,
      "t": 51600,
      "d": 162.5,
      "v": 97
    },
    {
      "midi": 69,
      "hit": false,
      "t": 51600,
      "d": 175,
      "v": 97
    },
    {
      "midi": 64,
      "hit": false,
      "t": 51900,
      "d": 131.25,
      "v": 97
    },
    {
      "midi": 69,
      "hit": false,
      "t": 51900,
      "d": 143.75,
      "v": 97
    },
    {
      "midi": 72,
      "hit": false,
      "t": 51900,
      "d": 156.25,
      "v": 97
    },
    {
      "midi": 69,
      "hit": false,
      "t": 52200,
      "d": 109.375,
      "v": 97
    },
    {
      "midi": 64,
      "hit": false,
      "t": 52200,
      "d": 128.125,
      "v": 97
    },
    {
      "midi": 72,
      "hit": false,
      "t": 52200,
      "d": 146.875,
      "v": 97
    },
    {
      "midi": 69,
      "hit": false,
      "t": 52500,
      "d": 121.875,
      "v": 97
    },
    {
      "midi": 64,
      "hit": false,
      "t": 52500,
      "d": 137.5,
      "v": 97
    },
    {
      "midi": 72,
      "hit": false,
      "t": 52500,
      "d": 156.25,
      "v": 97
    },
    {
      "midi": 69,
      "hit": false,
      "t": 52800,
      "d": 112.5,
      "v": 97
    },
    {
      "midi": 64,
      "hit": false,
      "t": 52800,
      "d": 134.375,
      "v": 97
    },
    {
      "midi": 72,
      "hit": false,
      "t": 52800,
      "d": 150,
      "v": 97
    },
    {
      "midi": 69,
      "hit": false,
      "t": 53100,
      "d": 125,
      "v": 97
    },
    {
      "midi": 64,
      "hit": false,
      "t": 53100,
      "d": 140.625,
      "v": 97
    },
    {
      "midi": 72,
      "hit": false,
      "t": 53100,
      "d": 150,
      "v": 97
    },
    {
      "midi": 69,
      "hit": false,
      "t": 53400,
      "d": 106.25,
      "v": 97
    },
    {
      "midi": 64,
      "hit": false,
      "t": 53400,
      "d": 125,
      "v": 97
    },
    {
      "midi": 72,
      "hit": false,
      "t": 53400,
      "d": 143.75,
      "v": 97
    },
    {
      "midi": 69,
      "hit": false,
      "t": 53700,
      "d": 112.5,
      "v": 97
    },
    {
      "midi": 72,
      "hit": false,
      "t": 53700,
      "d": 125,
      "v": 97
    },
    {
      "midi": 64,
      "hit": false,
      "t": 53700,
      "d": 131.25,
      "v": 97
    },
    {
      "midi": 62,
      "hit": false,
      "t": 54000,
      "d": 137.5,
      "v": 97
    },
    {
      "midi": 65,
      "hit": false,
      "t": 54000,
      "d": 143.75,
      "v": 97
    },
    {
      "midi": 71,
      "hit": false,
      "t": 54000,
      "d": 162.5,
      "v": 97
    },
    {
      "midi": 62,
      "hit": false,
      "t": 54300,
      "d": 128.125,
      "v": 97
    },
    {
      "midi": 65,
      "hit": false,
      "t": 54300,
      "d": 134.375,
      "v": 97
    },
    {
      "midi": 71,
      "hit": false,
      "t": 54300,
      "d": 156.25,
      "v": 97
    },
    {
      "midi": 62,
      "hit": false,
      "t": 54600,
      "d": 137.5,
      "v": 97
    },
    {
      "midi": 71,
      "hit": false,
      "t": 54600,
      "d": 150,
      "v": 97
    },
    {
      "midi": 65,
      "hit": false,
      "t": 54600,
      "d": 153.125,
      "v": 97
    },
    {
      "midi": 62,
      "hit": false,
      "t": 54900,
      "d": 146.875,
      "v": 97
    },
    {
      "midi": 65,
      "hit": false,
      "t": 54900,
      "d": 146.875,
      "v": 97
    },
    {
      "midi": 71,
      "hit": false,
      "t": 54900,
      "d": 162.5,
      "v": 97
    },
    {
      "midi": 62,
      "hit": false,
      "t": 55200,
      "d": 125,
      "v": 97
    },
    {
      "midi": 65,
      "hit": false,
      "t": 55200,
      "d": 125,
      "v": 97
    },
    {
      "midi": 71,
      "hit": false,
      "t": 55200,
      "d": 143.75,
      "v": 97
    },
    {
      "midi": 62,
      "hit": false,
      "t": 55500,
      "d": 128.125,
      "v": 97
    },
    {
      "midi": 65,
      "hit": false,
      "t": 55500,
      "d": 137.5,
      "v": 97
    },
    {
      "midi": 71,
      "hit": false,
      "t": 55500,
      "d": 137.5,
      "v": 97
    },
    {
      "midi": 62,
      "hit": false,
      "t": 55800,
      "d": 121.875,
      "v": 97
    },
    {
      "midi": 65,
      "hit": false,
      "t": 55800,
      "d": 150,
      "v": 97
    },
    {
      "midi": 71,
      "hit": false,
      "t": 55800,
      "d": 150,
      "v": 97
    },
    {
      "midi": 62,
      "hit": false,
      "t": 56100,
      "d": 125,
      "v": 97
    },
    {
      "midi": 65,
      "hit": false,
      "t": 56100,
      "d": 128.125,
      "v": 97
    },
    {
      "midi": 71,
      "hit": false,
      "t": 56100,
      "d": 140.625,
      "v": 97
    },
    {
      "midi": 59,
      "hit": false,
      "t": 56400,
      "d": 584.375,
      "v": 97
    },
    {
      "midi": 62,
      "hit": false,
      "t": 56700,
      "d": 321.875,
      "v": 97
    },
    {
      "midi": 67,
      "hit": false,
      "t": 57000,
      "d": 428.125,
      "v": 97
    },
    {
      "midi": 62,
      "hit": false,
      "t": 57300,
      "d": 328.125,
      "v": 97
    },
    {
      "midi": 59,
      "hit": false,
      "t": 57600,
      "d": 312.5,
      "v": 97
    },
    {
      "midi": 55,
      "hit": false,
      "t": 57900,
      "d": 200,
      "v": 97
    },
    {
      "midi": 55,
      "hit": false,
      "t": 58200,
      "d": 165.625,
      "v": 97
    },
    {
      "midi": 55,
      "hit": false,
      "t": 58500,
      "d": 187.5,
      "v": 97
    },
    {
      "midi": 60,
      "hit": false,
      "t": 58800,
      "d": 1159.375,
      "v": 97
    },
    {
      "midi": 65,
      "hit": false,
      "t": 58800,
      "d": 1159.375,
      "v": 97
    },
    {
      "midi": 69,
      "hit": false,
      "t": 58800,
      "d": 1184.375,
      "v": 97
    },
    {
      "midi": 48,
      "hit": false,
      "t": 60000,
      "d": 228.125,
      "v": 97
    },
    {
      "midi": 67,
      "hit": false,
      "t": 60000,
      "d": 1050,
      "v": 97
    },
    {
      "midi": 64,
      "hit": false,
      "t": 60000,
      "d": 1062.5,
      "v": 97
    },
    {
      "midi": 60,
      "hit": false,
      "t": 60000,
      "d": 1068.75,
      "v": 97
    },
    {
      "midi": 48,
      "hit": false,
      "t": 60300,
      "d": 203.125,
      "v": 97
    },
    {
      "midi": 48,
      "hit": false,
      "t": 60600,
      "d": 168.75,
      "v": 97
    },
    {
      "midi": 48,
      "hit": false,
      "t": 60900,
      "d": 225,
      "v": 97
    },
    {
      "midi": 47,
      "hit": false,
      "t": 61200,
      "d": 187.5,
      "v": 97
    },
    {
      "midi": 59,
      "hit": false,
      "t": 61200,
      "d": 965.625,
      "v": 97
    },
    {
      "midi": 67,
      "hit": false,
      "t": 61200,
      "d": 987.5,
      "v": 97
    },
    {
      "midi": 64,
      "hit": false,
      "t": 61200,
      "d": 1000,
      "v": 97
    },
    {
      "midi": 47,
      "hit": false,
      "t": 61500,
      "d": 200,
      "v": 97
    },
    {
      "midi": 47,
      "hit": false,
      "t": 61800,
      "d": 196.875,
      "v": 97
    },
    {
      "midi": 47,
      "hit": false,
      "t": 62100,
      "d": 268.75,
      "v": 97
    },
    {
      "midi": 45,
      "hit": false,
      "t": 62400,
      "d": 196.875,
      "v": 97
    },
    {
      "midi": 57,
      "hit": false,
      "t": 62400,
      "d": 937.5,
      "v": 97
    },
    {
      "midi": 67,
      "hit": false,
      "t": 62400,
      "d": 987.5,
      "v": 97
    },
    {
      "midi": 60,
      "hit": false,
      "t": 62400,
      "d": 1003.125,
      "v": 97
    },
    {
      "midi": 64,
      "hit": false,
      "t": 62400,
      "d": 1025,
      "v": 97
    },
    {
      "midi": 45,
      "hit": false,
      "t": 62700,
      "d": 209.375,
      "v": 97
    },
    {
      "midi": 45,
      "hit": false,
      "t": 63000,
      "d": 234.375,
      "v": 97
    },
    {
      "midi": 45,
      "hit": false,
      "t": 63300,
      "d": 200,
      "v": 97
    },
    {
      "midi": 43,
      "hit": false,
      "t": 63600,
      "d": 228.125,
      "v": 97
    },
    {
      "midi": 64,
      "hit": false,
      "t": 63600,
      "d": 915.625,
      "v": 97
    },
    {
      "midi": 67,
      "hit": false,
      "t": 63600,
      "d": 915.625,
      "v": 97
    },
    {
      "midi": 55,
      "hit": false,
      "t": 63600,
      "d": 943.75,
      "v": 97
    },
    {
      "midi": 60,
      "hit": false,
      "t": 63600,
      "d": 943.75,
      "v": 97
    },
    {
      "midi": 43,
      "hit": false,
      "t": 63900,
      "d": 237.5,
      "v": 97
    },
    {
      "midi": 43,
      "hit": false,
      "t": 64200,
      "d": 171.875,
      "v": 97
    },
    {
      "midi": 43,
      "hit": false,
      "t": 64500,
      "d": 221.875,
      "v": 97
    },
    {
      "midi": 41,
      "hit": false,
      "t": 64800,
      "d": 225,
      "v": 97
    },
    {
      "midi": 57,
      "hit": false,
      "t": 64800,
      "d": 975,
      "v": 97
    },
    {
      "midi": 53,
      "hit": false,
      "t": 64800,
      "d": 984.375,
      "v": 97
    },
    {
      "midi": 60,
      "hit": false,
      "t": 64800,
      "d": 1000,
      "v": 97
    },
    {
      "midi": 41,
      "hit": false,
      "t": 65100,
      "d": 193.75,
      "v": 97
    },
    {
      "midi": 41,
      "hit": false,
      "t": 65400,
      "d": 203.125,
      "v": 97
    },
    {
      "midi": 41,
      "hit": false,
      "t": 65700,
      "d": 225,
      "v": 97
    },
    {
      "midi": 44,
      "hit": false,
      "t": 66000,
      "d": 206.25,
      "v": 97
    },
    {
      "midi": 56,
      "hit": false,
      "t": 66000,
      "d": 1059.375,
      "v": 97
    },
    {
      "midi": 60,
      "hit": false,
      "t": 66000,
      "d": 1075,
      "v": 97
    },
    {
      "midi": 65,
      "hit": false,
      "t": 66000,
      "d": 1128.125,
      "v": 97
    },
    {
      "midi": 44,
      "hit": false,
      "t": 66300,
      "d": 190.625,
      "v": 97
    },
    {
      "midi": 44,
      "hit": false,
      "t": 66600,
      "d": 200,
      "v": 97
    },
    {
      "midi": 44,
      "hit": false,
      "t": 66900,
      "d": 228.125,
      "v": 97
    },
    {
      "midi": 48,
      "hit": false,
      "t": 67200,
      "d": 225,
      "v": 97
    },
    {
      "midi": 60,
      "hit": false,
      "t": 67200,
      "d": 971.875,
      "v": 97
    },
    {
      "midi": 64,
      "hit": false,
      "t": 67200,
      "d": 971.875,
      "v": 97
    },
    {
      "midi": 67,
      "hit": false,
      "t": 67200,
      "d": 971.875,
      "v": 97
    },
    {
      "midi": 48,
      "hit": false,
      "t": 67500,
      "d": 178.125,
      "v": 97
    },
    {
      "midi": 48,
      "hit": false,
      "t": 67800,
      "d": 171.875,
      "v": 97
    },
    {
      "midi": 48,
      "hit": false,
      "t": 68100,
      "d": 221.875,
      "v": 97
    },
    {
      "midi": 47,
      "hit": false,
      "t": 68400,
      "d": 181.25,
      "v": 97
    },
    {
      "midi": 67,
      "hit": false,
      "t": 68400,
      "d": 900,
      "v": 97
    },
    {
      "midi": 59,
      "hit": false,
      "t": 68400,
      "d": 937.5,
      "v": 97
    },
    {
      "midi": 64,
      "hit": false,
      "t": 68400,
      "d": 971.875,
      "v": 97
    },
    {
      "midi": 47,
      "hit": false,
      "t": 68700,
      "d": 200,
      "v": 97
    },
    {
      "midi": 47,
      "hit": false,
      "t": 69000,
      "d": 184.375,
      "v": 97
    },
    {
      "midi": 47,
      "hit": false,
      "t": 69300,
      "d": 228.125,
      "v": 97
    },
    {
      "midi": 45,
      "hit": false,
      "t": 69600,
      "d": 184.375,
      "v": 97
    },
    {
      "midi": 57,
      "hit": false,
      "t": 69600,
      "d": 934.375,
      "v": 97
    },
    {
      "midi": 64,
      "hit": false,
      "t": 69600,
      "d": 946.875,
      "v": 97
    },
    {
      "midi": 67,
      "hit": false,
      "t": 69600,
      "d": 962.5,
      "v": 97
    },
    {
      "midi": 60,
      "hit": false,
      "t": 69600,
      "d": 968.75,
      "v": 97
    },
    {
      "midi": 45,
      "hit": false,
      "t": 69900,
      "d": 206.25,
      "v": 97
    },
    {
      "midi": 45,
      "hit": false,
      "t": 70200,
      "d": 171.875,
      "v": 97
    },
    {
      "midi": 45,
      "hit": false,
      "t": 70500,
      "d": 250,
      "v": 97
    },
    {
      "midi": 43,
      "hit": false,
      "t": 70800,
      "d": 253.125,
      "v": 97
    },
    {
      "midi": 67,
      "hit": false,
      "t": 70800,
      "d": 815.625,
      "v": 97
    },
    {
      "midi": 64,
      "hit": false,
      "t": 70800,
      "d": 837.5,
      "v": 97
    },
    {
      "midi": 55,
      "hit": false,
      "t": 70800,
      "d": 850,
      "v": 97
    },
    {
      "midi": 60,
      "hit": false,
      "t": 70800,
      "d": 881.25,
      "v": 97
    },
    {
      "midi": 43,
      "hit": false,
      "t": 71100,
      "d": 178.125,
      "v": 97
    },
    {
      "midi": 43,
      "hit": false,
      "t": 71400,
      "d": 178.125,
      "v": 97
    },
    {
      "midi": 43,
      "hit": false,
      "t": 71700,
      "d": 221.875,
      "v": 97
    },
    {
      "midi": 41,
      "hit": false,
      "t": 72000,
      "d": 200,
      "v": 97
    },
    {
      "midi": 57,
      "hit": false,
      "t": 72000,
      "d": 965.625,
      "v": 97
    },
    {
      "midi": 53,
      "hit": false,
      "t": 72000,
      "d": 975,
      "v": 97
    },
    {
      "midi": 60,
      "hit": false,
      "t": 72000,
      "d": 1000,
      "v": 97
    },
    {
      "midi": 41,
      "hit": false,
      "t": 72300,
      "d": 181.25,
      "v": 97
    },
    {
      "midi": 41,
      "hit": false,
      "t": 72600,
      "d": 171.875,
      "v": 97
    },
    {
      "midi": 41,
      "hit": false,
      "t": 72900,
      "d": 190.625,
      "v": 97
    },
    {
      "midi": 46,
      "hit": false,
      "t": 73200,
      "d": 193.75,
      "v": 97
    },
    {
      "midi": 53,
      "hit": false,
      "t": 73200,
      "d": 1068.75,
      "v": 97
    },
    {
      "midi": 56,
      "hit": false,
      "t": 73200,
      "d": 1081.25,
      "v": 97
    },
    {
      "midi": 62,
      "hit": false,
      "t": 73200,
      "d": 1100,
      "v": 97
    },
    {
      "midi": 46,
      "hit": false,
      "t": 73500,
      "d": 187.5,
      "v": 97
    },
    {
      "midi": 46,
      "hit": false,
      "t": 73800,
      "d": 165.625,
      "v": 97
    },
    {
      "midi": 46,
      "hit": false,
      "t": 74100,
      "d": 200,
      "v": 97
    },
    {
      "midi": 55,
      "hit": false,
      "t": 74400,
      "d": 2212.5,
      "v": 97
    },
    {
      "midi": 60,
      "hit": false,
      "t": 74400,
      "d": 2218.75,
      "v": 97
    },
    {
      "midi": 64,
      "hit": false,
      "t": 74400,
      "d": 2262.5,
      "v": 97
    },
    {
      "midi": 48,
      "hit": false,
      "t": 74400,
      "d": 2300,
      "v": 97
    },
    {
      "midi": 62,
      "hit": false,
      "t": 76800,
      "d": 190.625,
      "v": 97
    },
    {
      "midi": 65,
      "hit": false,
      "t": 76800,
      "d": 196.875,
      "v": 97
    },
    {
      "midi": 69,
      "hit": false,
      "t": 76800,
      "d": 212.5,
      "v": 97
    },
    {
      "midi": 74,
      "hit": false,
      "t": 76800,
      "d": 1562.5,
      "v": 97
    },
    {
      "midi": 62,
      "hit": false,
      "t": 77100,
      "d": 106.25,
      "v": 97
    },
    {
      "midi": 65,
      "hit": false,
      "t": 77100,
      "d": 112.5,
      "v": 97
    },
    {
      "midi": 69,
      "hit": false,
      "t": 77100,
      "d": 112.5,
      "v": 97
    },
    {
      "midi": 65,
      "hit": false,
      "t": 77400,
      "d": 143.75,
      "v": 97
    },
    {
      "midi": 69,
      "hit": false,
      "t": 77400,
      "d": 143.75,
      "v": 97
    },
    {
      "midi": 62,
      "hit": false,
      "t": 77400,
      "d": 162.5,
      "v": 97
    },
    {
      "midi": 65,
      "hit": false,
      "t": 77700,
      "d": 128.125,
      "v": 97
    },
    {
      "midi": 69,
      "hit": false,
      "t": 77700,
      "d": 137.5,
      "v": 97
    },
    {
      "midi": 62,
      "hit": false,
      "t": 77700,
      "d": 146.875,
      "v": 97
    },
    {
      "midi": 69,
      "hit": false,
      "t": 78000,
      "d": 137.5,
      "v": 97
    },
    {
      "midi": 65,
      "hit": false,
      "t": 78000,
      "d": 143.75,
      "v": 97
    },
    {
      "midi": 62,
      "hit": false,
      "t": 78000,
      "d": 159.375,
      "v": 97
    },
    {
      "midi": 65,
      "hit": false,
      "t": 78300,
      "d": 100,
      "v": 97
    },
    {
      "midi": 62,
      "hit": false,
      "t": 78300,
      "d": 112.5,
      "v": 97
    },
    {
      "midi": 69,
      "hit": false,
      "t": 78300,
      "d": 118.75,
      "v": 97
    },
    {
      "midi": 62,
      "hit": false,
      "t": 78600,
      "d": 112.5,
      "v": 97
    },
    {
      "midi": 65,
      "hit": false,
      "t": 78600,
      "d": 112.5,
      "v": 97
    },
    {
      "midi": 69,
      "hit": false,
      "t": 78600,
      "d": 134.375,
      "v": 97
    },
    {
      "midi": 62,
      "hit": false,
      "t": 78900,
      "d": 78.125,
      "v": 97
    },
    {
      "midi": 65,
      "hit": false,
      "t": 78900,
      "d": 90.625,
      "v": 97
    },
    {
      "midi": 69,
      "hit": false,
      "t": 78900,
      "d": 115.625,
      "v": 97
    },
    {
      "midi": 67,
      "hit": false,
      "t": 79200,
      "d": 156.25,
      "v": 97
    },
    {
      "midi": 64,
      "hit": false,
      "t": 79200,
      "d": 168.75,
      "v": 97
    },
    {
      "midi": 60,
      "hit": false,
      "t": 79200,
      "d": 184.375,
      "v": 97
    },
    {
      "midi": 72,
      "hit": false,
      "t": 79200,
      "d": 1615.625,
      "v": 97
    },
    {
      "midi": 67,
      "hit": false,
      "t": 79500,
      "d": 165.625,
      "v": 97
    },
    {
      "midi": 60,
      "hit": false,
      "t": 79500,
      "d": 187.5,
      "v": 97
    },
    {
      "midi": 64,
      "hit": false,
      "t": 79500,
      "d": 187.5,
      "v": 97
    },
    {
      "midi": 67,
      "hit": false,
      "t": 79800,
      "d": 178.125,
      "v": 97
    },
    {
      "midi": 60,
      "hit": false,
      "t": 79800,
      "d": 187.5,
      "v": 97
    },
    {
      "midi": 64,
      "hit": false,
      "t": 79800,
      "d": 200,
      "v": 97
    },
    {
      "midi": 64,
      "hit": false,
      "t": 80100,
      "d": 137.5,
      "v": 97
    },
    {
      "midi": 67,
      "hit": false,
      "t": 80100,
      "d": 137.5,
      "v": 97
    },
    {
      "midi": 60,
      "hit": false,
      "t": 80100,
      "d": 143.75,
      "v": 97
    },
    {
      "midi": 60,
      "hit": false,
      "t": 80400,
      "d": 112.5,
      "v": 97
    },
    {
      "midi": 64,
      "hit": false,
      "t": 80400,
      "d": 112.5,
      "v": 97
    },
    {
      "midi": 67,
      "hit": false,
      "t": 80400,
      "d": 112.5,
      "v": 97
    },
    {
      "midi": 60,
      "hit": false,
      "t": 80700,
      "d": 100,
      "v": 97
    },
    {
      "midi": 64,
      "hit": false,
      "t": 80700,
      "d": 100,
      "v": 97
    },
    {
      "midi": 67,
      "hit": false,
      "t": 80700,
      "d": 115.625,
      "v": 97
    },
    {
      "midi": 64,
      "hit": false,
      "t": 81000,
      "d": 106.25,
      "v": 97
    },
    {
      "midi": 67,
      "hit": false,
      "t": 81000,
      "d": 112.5,
      "v": 97
    },
    {
      "midi": 60,
      "hit": false,
      "t": 81000,
      "d": 115.625,
      "v": 97
    },
    {
      "midi": 60,
      "hit": false,
      "t": 81300,
      "d": 96.875,
      "v": 97
    },
    {
      "midi": 64,
      "hit": false,
      "t": 81300,
      "d": 96.875,
      "v": 97
    },
    {
      "midi": 67,
      "hit": false,
      "t": 81300,
      "d": 118.75,
      "v": 97
    },
    {
      "midi": 65,
      "hit": false,
      "t": 81600,
      "d": 112.5,
      "v": 97
    },
    {
      "midi": 71,
      "hit": false,
      "t": 81600,
      "d": 140.625,
      "v": 97
    },
    {
      "midi": 62,
      "hit": false,
      "t": 81600,
      "d": 159.375,
      "v": 97
    },
    {
      "midi": 62,
      "hit": false,
      "t": 81900,
      "d": 178.125,
      "v": 97
    },
    {
      "midi": 65,
      "hit": false,
      "t": 81900,
      "d": 190.625,
      "v": 97
    },
    {
      "midi": 71,
      "hit": false,
      "t": 81900,
      "d": 190.625,
      "v": 97
    },
    {
      "midi": 62,
      "hit": false,
      "t": 82200,
      "d": 146.875,
      "v": 97
    },
    {
      "midi": 71,
      "hit": false,
      "t": 82200,
      "d": 159.375,
      "v": 97
    },
    {
      "midi": 65,
      "hit": false,
      "t": 82200,
      "d": 162.5,
      "v": 97
    },
    {
      "midi": 62,
      "hit": false,
      "t": 82500,
      "d": 156.25,
      "v": 97
    },
    {
      "midi": 65,
      "hit": false,
      "t": 82500,
      "d": 156.25,
      "v": 97
    },
    {
      "midi": 71,
      "hit": false,
      "t": 82500,
      "d": 171.875,
      "v": 97
    },
    {
      "midi": 62,
      "hit": false,
      "t": 82800,
      "d": 175,
      "v": 97
    },
    {
      "midi": 65,
      "hit": false,
      "t": 82800,
      "d": 196.875,
      "v": 97
    },
    {
      "midi": 71,
      "hit": false,
      "t": 82800,
      "d": 196.875,
      "v": 97
    },
    {
      "midi": 62,
      "hit": false,
      "t": 83100,
      "d": 165.625,
      "v": 97
    },
    {
      "midi": 65,
      "hit": false,
      "t": 83100,
      "d": 165.625,
      "v": 97
    },
    {
      "midi": 71,
      "hit": false,
      "t": 83100,
      "d": 175,
      "v": 97
    },
    {
      "midi": 62,
      "hit": false,
      "t": 83400,
      "d": 159.375,
      "v": 97
    },
    {
      "midi": 65,
      "hit": false,
      "t": 83400,
      "d": 165.625,
      "v": 97
    },
    {
      "midi": 71,
      "hit": false,
      "t": 83400,
      "d": 187.5,
      "v": 97
    },
    {
      "midi": 65,
      "hit": false,
      "t": 83700,
      "d": 112.5,
      "v": 97
    },
    {
      "midi": 62,
      "hit": false,
      "t": 83700,
      "d": 128.125,
      "v": 97
    },
    {
      "midi": 71,
      "hit": false,
      "t": 83700,
      "d": 128.125,
      "v": 97
    },
    {
      "midi": 60,
      "hit": false,
      "t": 84000,
      "d": 153.125,
      "v": 97
    },
    {
      "midi": 64,
      "hit": false,
      "t": 84000,
      "d": 162.5,
      "v": 97
    },
    {
      "midi": 69,
      "hit": false,
      "t": 84000,
      "d": 162.5,
      "v": 97
    },
    {
      "midi": 60,
      "hit": false,
      "t": 84300,
      "d": 178.125,
      "v": 97
    },
    {
      "midi": 69,
      "hit": false,
      "t": 84300,
      "d": 178.125,
      "v": 97
    },
    {
      "midi": 64,
      "hit": false,
      "t": 84300,
      "d": 190.625,
      "v": 97
    },
    {
      "midi": 64,
      "hit": false,
      "t": 84600,
      "d": 159.375,
      "v": 97
    },
    {
      "midi": 60,
      "hit": false,
      "t": 84600,
      "d": 168.75,
      "v": 97
    },
    {
      "midi": 69,
      "hit": false,
      "t": 84600,
      "d": 168.75,
      "v": 97
    },
    {
      "midi": 64,
      "hit": false,
      "t": 84900,
      "d": 165.625,
      "v": 97
    },
    {
      "midi": 69,
      "hit": false,
      "t": 84900,
      "d": 165.625,
      "v": 97
    },
    {
      "midi": 60,
      "hit": false,
      "t": 84900,
      "d": 171.875,
      "v": 97
    },
    {
      "midi": 60,
      "hit": false,
      "t": 85200,
      "d": 175,
      "v": 97
    },
    {
      "midi": 64,
      "hit": false,
      "t": 85200,
      "d": 187.5,
      "v": 97
    },
    {
      "midi": 69,
      "hit": false,
      "t": 85200,
      "d": 187.5,
      "v": 97
    },
    {
      "midi": 60,
      "hit": false,
      "t": 85500,
      "d": 168.75,
      "v": 97
    },
    {
      "midi": 64,
      "hit": false,
      "t": 85500,
      "d": 168.75,
      "v": 97
    },
    {
      "midi": 69,
      "hit": false,
      "t": 85500,
      "d": 175,
      "v": 97
    },
    {
      "midi": 64,
      "hit": false,
      "t": 85800,
      "d": 137.5,
      "v": 97
    },
    {
      "midi": 60,
      "hit": false,
      "t": 85800,
      "d": 153.125,
      "v": 97
    },
    {
      "midi": 69,
      "hit": false,
      "t": 85800,
      "d": 153.125,
      "v": 97
    },
    {
      "midi": 64,
      "hit": false,
      "t": 86100,
      "d": 143.75,
      "v": 97
    },
    {
      "midi": 60,
      "hit": false,
      "t": 86100,
      "d": 150,
      "v": 97
    },
    {
      "midi": 69,
      "hit": false,
      "t": 86100,
      "d": 159.375,
      "v": 97
    },
    {
      "midi": 65,
      "hit": false,
      "t": 86400,
      "d": 150,
      "v": 97
    },
    {
      "midi": 62,
      "hit": false,
      "t": 86400,
      "d": 162.5,
      "v": 97
    },
    {
      "midi": 71,
      "hit": false,
      "t": 86400,
      "d": 175,
      "v": 97
    },
    {
      "midi": 71,
      "hit": false,
      "t": 86700,
      "d": 187.5,
      "v": 97
    },
    {
      "midi": 62,
      "hit": false,
      "t": 86700,
      "d": 196.875,
      "v": 97
    },
    {
      "midi": 65,
      "hit": false,
      "t": 86700,
      "d": 203.125,
      "v": 97
    },
    {
      "midi": 62,
      "hit": false,
      "t": 87000,
      "d": 184.375,
      "v": 97
    },
    {
      "midi": 71,
      "hit": false,
      "t": 87000,
      "d": 184.375,
      "v": 97
    },
    {
      "midi": 65,
      "hit": false,
      "t": 87000,
      "d": 203.125,
      "v": 97
    },
    {
      "midi": 62,
      "hit": false,
      "t": 87300,
      "d": 150,
      "v": 97
    },
    {
      "midi": 65,
      "hit": false,
      "t": 87300,
      "d": 150,
      "v": 97
    },
    {
      "midi": 71,
      "hit": false,
      "t": 87300,
      "d": 162.5,
      "v": 97
    },
    {
      "midi": 62,
      "hit": false,
      "t": 87600,
      "d": 168.75,
      "v": 97
    },
    {
      "midi": 65,
      "hit": false,
      "t": 87600,
      "d": 181.25,
      "v": 97
    },
    {
      "midi": 71,
      "hit": false,
      "t": 87600,
      "d": 187.5,
      "v": 97
    },
    {
      "midi": 65,
      "hit": false,
      "t": 87900,
      "d": 153.125,
      "v": 97
    },
    {
      "midi": 62,
      "hit": false,
      "t": 87900,
      "d": 162.5,
      "v": 97
    },
    {
      "midi": 71,
      "hit": false,
      "t": 87900,
      "d": 178.125,
      "v": 97
    },
    {
      "midi": 62,
      "hit": false,
      "t": 88200,
      "d": 153.125,
      "v": 97
    },
    {
      "midi": 65,
      "hit": false,
      "t": 88200,
      "d": 159.375,
      "v": 97
    },
    {
      "midi": 71,
      "hit": false,
      "t": 88200,
      "d": 175,
      "v": 97
    },
    {
      "midi": 65,
      "hit": false,
      "t": 88500,
      "d": 121.875,
      "v": 97
    },
    {
      "midi": 71,
      "hit": false,
      "t": 88500,
      "d": 140.625,
      "v": 97
    },
    {
      "midi": 62,
      "hit": false,
      "t": 88500,
      "d": 153.125,
      "v": 97
    },
    {
      "midi": 64,
      "hit": false,
      "t": 88800,
      "d": 153.125,
      "v": 97
    },
    {
      "midi": 72,
      "hit": false,
      "t": 88800,
      "d": 162.5,
      "v": 97
    },
    {
      "midi": 69,
      "hit": false,
      "t": 88800,
      "d": 175,
      "v": 97
    },
    {
      "midi": 64,
      "hit": false,
      "t": 89100,
      "d": 131.25,
      "v": 97
    },
    {
      "midi": 69,
      "hit": false,
      "t": 89100,
      "d": 143.75,
      "v": 97
    },
    {
      "midi": 72,
      "hit": false,
      "t": 89100,
      "d": 156.25,
      "v": 97
    },
    {
      "midi": 69,
      "hit": false,
      "t": 89400,
      "d": 109.375,
      "v": 97
    },
    {
      "midi": 64,
      "hit": false,
      "t": 89400,
      "d": 128.125,
      "v": 97
    },
    {
      "midi": 72,
      "hit": false,
      "t": 89400,
      "d": 146.875,
      "v": 97
    },
    {
      "midi": 69,
      "hit": false,
      "t": 89700,
      "d": 121.875,
      "v": 97
    },
    {
      "midi": 64,
      "hit": false,
      "t": 89700,
      "d": 137.5,
      "v": 97
    },
    {
      "midi": 72,
      "hit": false,
      "t": 89700,
      "d": 156.25,
      "v": 97
    },
    {
      "midi": 69,
      "hit": false,
      "t": 90000,
      "d": 112.5,
      "v": 97
    },
    {
      "midi": 64,
      "hit": false,
      "t": 90000,
      "d": 134.375,
      "v": 97
    },
    {
      "midi": 72,
      "hit": false,
      "t": 90000,
      "d": 150,
      "v": 97
    },
    {
      "midi": 69,
      "hit": false,
      "t": 90300,
      "d": 125,
      "v": 97
    },
    {
      "midi": 64,
      "hit": false,
      "t": 90300,
      "d": 140.625,
      "v": 97
    },
    {
      "midi": 72,
      "hit": false,
      "t": 90300,
      "d": 150,
      "v": 97
    },
    {
      "midi": 69,
      "hit": false,
      "t": 90600,
      "d": 106.25,
      "v": 97
    },
    {
      "midi": 64,
      "hit": false,
      "t": 90600,
      "d": 125,
      "v": 97
    },
    {
      "midi": 72,
      "hit": false,
      "t": 90600,
      "d": 143.75,
      "v": 97
    },
    {
      "midi": 69,
      "hit": false,
      "t": 90900,
      "d": 112.5,
      "v": 97
    },
    {
      "midi": 72,
      "hit": false,
      "t": 90900,
      "d": 125,
      "v": 97
    },
    {
      "midi": 64,
      "hit": false,
      "t": 90900,
      "d": 131.25,
      "v": 97
    },
    {
      "midi": 62,
      "hit": false,
      "t": 91200,
      "d": 137.5,
      "v": 97
    },
    {
      "midi": 65,
      "hit": false,
      "t": 91200,
      "d": 143.75,
      "v": 97
    },
    {
      "midi": 71,
      "hit": false,
      "t": 91200,
      "d": 162.5,
      "v": 97
    },
    {
      "midi": 62,
      "hit": false,
      "t": 91500,
      "d": 128.125,
      "v": 97
    },
    {
      "midi": 65,
      "hit": false,
      "t": 91500,
      "d": 134.375,
      "v": 97
    },
    {
      "midi": 71,
      "hit": false,
      "t": 91500,
      "d": 156.25,
      "v": 97
    },
    {
      "midi": 62,
      "hit": false,
      "t": 91800,
      "d": 137.5,
      "v": 97
    },
    {
      "midi": 71,
      "hit": false,
      "t": 91800,
      "d": 150,
      "v": 97
    },
    {
      "midi": 65,
      "hit": false,
      "t": 91800,
      "d": 153.125,
      "v": 97
    },
    {
      "midi": 62,
      "hit": false,
      "t": 92100,
      "d": 146.875,
      "v": 97
    },
    {
      "midi": 65,
      "hit": false,
      "t": 92100,
      "d": 146.875,
      "v": 97
    },
    {
      "midi": 71,
      "hit": false,
      "t": 92100,
      "d": 162.5,
      "v": 97
    },
    {
      "midi": 62,
      "hit": false,
      "t": 92400,
      "d": 125,
      "v": 97
    },
    {
      "midi": 65,
      "hit": false,
      "t": 92400,
      "d": 125,
      "v": 97
    },
    {
      "midi": 71,
      "hit": false,
      "t": 92400,
      "d": 143.75,
      "v": 97
    },
    {
      "midi": 62,
      "hit": false,
      "t": 92700,
      "d": 128.125,
      "v": 97
    },
    {
      "midi": 65,
      "hit": false,
      "t": 92700,
      "d": 137.5,
      "v": 97
    },
    {
      "midi": 71,
      "hit": false,
      "t": 92700,
      "d": 137.5,
      "v": 97
    },
    {
      "midi": 62,
      "hit": false,
      "t": 93000,
      "d": 121.875,
      "v": 97
    },
    {
      "midi": 65,
      "hit": false,
      "t": 93000,
      "d": 150,
      "v": 97
    },
    {
      "midi": 71,
      "hit": false,
      "t": 93000,
      "d": 150,
      "v": 97
    },
    {
      "midi": 62,
      "hit": false,
      "t": 93300,
      "d": 125,
      "v": 97
    },
    {
      "midi": 65,
      "hit": false,
      "t": 93300,
      "d": 128.125,
      "v": 97
    },
    {
      "midi": 71,
      "hit": false,
      "t": 93300,
      "d": 140.625,
      "v": 97
    },
    {
      "midi": 59,
      "hit": false,
      "t": 93600,
      "d": 584.375,
      "v": 97
    },
    {
      "midi": 62,
      "hit": false,
      "t": 93900,
      "d": 321.875,
      "v": 97
    },
    {
      "midi": 67,
      "hit": false,
      "t": 94200,
      "d": 428.125,
      "v": 97
    },
    {
      "midi": 62,
      "hit": false,
      "t": 94500,
      "d": 328.125,
      "v": 97
    },
    {
      "midi": 59,
      "hit": false,
      "t": 94800,
      "d": 312.5,
      "v": 97
    },
    {
      "midi": 55,
      "hit": false,
      "t": 95100,
      "d": 200,
      "v": 97
    },
    {
      "midi": 55,
      "hit": false,
      "t": 95400,
      "d": 165.625,
      "v": 97
    },
    {
      "midi": 55,
      "hit": false,
      "t": 95700,
      "d": 187.5,
      "v": 97
    },
    {
      "midi": 60,
      "hit": false,
      "t": 96000,
      "d": 1159.375,
      "v": 97
    },
    {
      "midi": 65,
      "hit": false,
      "t": 96000,
      "d": 1159.375,
      "v": 97
    },
    {
      "midi": 69,
      "hit": false,
      "t": 96000,
      "d": 1184.375,
      "v": 97
    },
    {
      "midi": 48,
      "hit": false,
      "t": 97200,
      "d": 228.125,
      "v": 97
    },
    {
      "midi": 67,
      "hit": false,
      "t": 97200,
      "d": 1050,
      "v": 97
    },
    {
      "midi": 64,
      "hit": false,
      "t": 97200,
      "d": 1062.5,
      "v": 97
    },
    {
      "midi": 60,
      "hit": false,
      "t": 97200,
      "d": 1068.75,
      "v": 97
    },
    {
      "midi": 48,
      "hit": false,
      "t": 97500,
      "d": 203.125,
      "v": 97
    },
    {
      "midi": 48,
      "hit": false,
      "t": 97800,
      "d": 168.75,
      "v": 97
    },
    {
      "midi": 48,
      "hit": false,
      "t": 98100,
      "d": 225,
      "v": 97
    },
    {
      "midi": 47,
      "hit": false,
      "t": 98400,
      "d": 187.5,
      "v": 97
    },
    {
      "midi": 59,
      "hit": false,
      "t": 98400,
      "d": 965.625,
      "v": 97
    },
    {
      "midi": 67,
      "hit": false,
      "t": 98400,
      "d": 987.5,
      "v": 97
    },
    {
      "midi": 64,
      "hit": false,
      "t": 98400,
      "d": 1000,
      "v": 97
    },
    {
      "midi": 47,
      "hit": false,
      "t": 98700,
      "d": 200,
      "v": 97
    },
    {
      "midi": 47,
      "hit": false,
      "t": 99000,
      "d": 196.875,
      "v": 97
    },
    {
      "midi": 47,
      "hit": false,
      "t": 99300,
      "d": 268.75,
      "v": 97
    },
    {
      "midi": 45,
      "hit": false,
      "t": 99600,
      "d": 196.875,
      "v": 97
    },
    {
      "midi": 57,
      "hit": false,
      "t": 99600,
      "d": 937.5,
      "v": 97
    },
    {
      "midi": 67,
      "hit": false,
      "t": 99600,
      "d": 987.5,
      "v": 97
    },
    {
      "midi": 60,
      "hit": false,
      "t": 99600,
      "d": 1003.125,
      "v": 97
    },
    {
      "midi": 64,
      "hit": false,
      "t": 99600,
      "d": 1025,
      "v": 97
    },
    {
      "midi": 45,
      "hit": false,
      "t": 99900,
      "d": 209.375,
      "v": 97
    },
    {
      "midi": 45,
      "hit": false,
      "t": 100200,
      "d": 234.375,
      "v": 97
    },
    {
      "midi": 45,
      "hit": false,
      "t": 100500,
      "d": 200,
      "v": 97
    },
    {
      "midi": 43,
      "hit": false,
      "t": 100800,
      "d": 228.125,
      "v": 97
    },
    {
      "midi": 64,
      "hit": false,
      "t": 100800,
      "d": 915.625,
      "v": 97
    },
    {
      "midi": 67,
      "hit": false,
      "t": 100800,
      "d": 915.625,
      "v": 97
    },
    {
      "midi": 55,
      "hit": false,
      "t": 100800,
      "d": 943.75,
      "v": 97
    },
    {
      "midi": 60,
      "hit": false,
      "t": 100800,
      "d": 943.75,
      "v": 97
    },
    {
      "midi": 43,
      "hit": false,
      "t": 101100,
      "d": 237.5,
      "v": 97
    },
    {
      "midi": 43,
      "hit": false,
      "t": 101400,
      "d": 171.875,
      "v": 97
    },
    {
      "midi": 43,
      "hit": false,
      "t": 101700,
      "d": 221.875,
      "v": 97
    },
    {
      "midi": 41,
      "hit": false,
      "t": 102000,
      "d": 225,
      "v": 97
    },
    {
      "midi": 57,
      "hit": false,
      "t": 102000,
      "d": 975,
      "v": 97
    },
    {
      "midi": 53,
      "hit": false,
      "t": 102000,
      "d": 984.375,
      "v": 97
    },
    {
      "midi": 60,
      "hit": false,
      "t": 102000,
      "d": 1000,
      "v": 97
    },
    {
      "midi": 41,
      "hit": false,
      "t": 102300,
      "d": 193.75,
      "v": 97
    },
    {
      "midi": 41,
      "hit": false,
      "t": 102600,
      "d": 203.125,
      "v": 97
    },
    {
      "midi": 41,
      "hit": false,
      "t": 102900,
      "d": 225,
      "v": 97
    },
    {
      "midi": 44,
      "hit": false,
      "t": 103200,
      "d": 206.25,
      "v": 97
    },
    {
      "midi": 56,
      "hit": false,
      "t": 103200,
      "d": 1059.375,
      "v": 97
    },
    {
      "midi": 60,
      "hit": false,
      "t": 103200,
      "d": 1075,
      "v": 97
    },
    {
      "midi": 65,
      "hit": false,
      "t": 103200,
      "d": 1128.125,
      "v": 97
    },
    {
      "midi": 44,
      "hit": false,
      "t": 103500,
      "d": 190.625,
      "v": 97
    },
    {
      "midi": 44,
      "hit": false,
      "t": 103800,
      "d": 200,
      "v": 97
    },
    {
      "midi": 44,
      "hit": false,
      "t": 104100,
      "d": 228.125,
      "v": 97
    },
    {
      "midi": 48,
      "hit": false,
      "t": 104400,
      "d": 225,
      "v": 97
    },
    {
      "midi": 60,
      "hit": false,
      "t": 104400,
      "d": 971.875,
      "v": 97
    },
    {
      "midi": 64,
      "hit": false,
      "t": 104400,
      "d": 971.875,
      "v": 97
    },
    {
      "midi": 67,
      "hit": false,
      "t": 104400,
      "d": 971.875,
      "v": 97
    },
    {
      "midi": 48,
      "hit": false,
      "t": 104700,
      "d": 178.125,
      "v": 97
    },
    {
      "midi": 48,
      "hit": false,
      "t": 105000,
      "d": 171.875,
      "v": 97
    },
    {
      "midi": 48,
      "hit": false,
      "t": 105300,
      "d": 221.875,
      "v": 97
    },
    {
      "midi": 47,
      "hit": false,
      "t": 105600,
      "d": 181.25,
      "v": 97
    },
    {
      "midi": 67,
      "hit": false,
      "t": 105600,
      "d": 900,
      "v": 97
    },
    {
      "midi": 59,
      "hit": false,
      "t": 105600,
      "d": 937.5,
      "v": 97
    },
    {
      "midi": 64,
      "hit": false,
      "t": 105600,
      "d": 971.875,
      "v": 97
    },
    {
      "midi": 47,
      "hit": false,
      "t": 105900,
      "d": 200,
      "v": 97
    },
    {
      "midi": 47,
      "hit": false,
      "t": 106200,
      "d": 184.375,
      "v": 97
    },
    {
      "midi": 47,
      "hit": false,
      "t": 106500,
      "d": 228.125,
      "v": 97
    },
    {
      "midi": 45,
      "hit": false,
      "t": 106800,
      "d": 184.375,
      "v": 97
    },
    {
      "midi": 57,
      "hit": false,
      "t": 106800,
      "d": 934.375,
      "v": 97
    },
    {
      "midi": 64,
      "hit": false,
      "t": 106800,
      "d": 946.875,
      "v": 97
    },
    {
      "midi": 67,
      "hit": false,
      "t": 106800,
      "d": 962.5,
      "v": 97
    },
    {
      "midi": 60,
      "hit": false,
      "t": 106800,
      "d": 968.75,
      "v": 97
    },
    {
      "midi": 45,
      "hit": false,
      "t": 107100,
      "d": 206.25,
      "v": 97
    },
    {
      "midi": 45,
      "hit": false,
      "t": 107400,
      "d": 171.875,
      "v": 97
    },
    {
      "midi": 45,
      "hit": false,
      "t": 107700,
      "d": 250,
      "v": 97
    },
    {
      "midi": 43,
      "hit": false,
      "t": 108000,
      "d": 253.125,
      "v": 97
    },
    {
      "midi": 67,
      "hit": false,
      "t": 108000,
      "d": 815.625,
      "v": 97
    },
    {
      "midi": 64,
      "hit": false,
      "t": 108000,
      "d": 837.5,
      "v": 97
    },
    {
      "midi": 55,
      "hit": false,
      "t": 108000,
      "d": 850,
      "v": 97
    },
    {
      "midi": 60,
      "hit": false,
      "t": 108000,
      "d": 881.25,
      "v": 97
    },
    {
      "midi": 43,
      "hit": false,
      "t": 108300,
      "d": 178.125,
      "v": 97
    },
    {
      "midi": 43,
      "hit": false,
      "t": 108600,
      "d": 178.125,
      "v": 97
    },
    {
      "midi": 43,
      "hit": false,
      "t": 108900,
      "d": 221.875,
      "v": 97
    },
    {
      "midi": 41,
      "hit": false,
      "t": 109200,
      "d": 200,
      "v": 97
    },
    {
      "midi": 57,
      "hit": false,
      "t": 109200,
      "d": 965.625,
      "v": 97
    },
    {
      "midi": 53,
      "hit": false,
      "t": 109200,
      "d": 975,
      "v": 97
    },
    {
      "midi": 60,
      "hit": false,
      "t": 109200,
      "d": 1000,
      "v": 97
    },
    {
      "midi": 41,
      "hit": false,
      "t": 109500,
      "d": 181.25,
      "v": 97
    },
    {
      "midi": 41,
      "hit": false,
      "t": 109800,
      "d": 171.875,
      "v": 97
    },
    {
      "midi": 41,
      "hit": false,
      "t": 110100,
      "d": 190.625,
      "v": 97
    },
    {
      "midi": 46,
      "hit": false,
      "t": 110400,
      "d": 193.75,
      "v": 97
    },
    {
      "midi": 53,
      "hit": false,
      "t": 110400,
      "d": 1068.75,
      "v": 97
    },
    {
      "midi": 56,
      "hit": false,
      "t": 110400,
      "d": 1081.25,
      "v": 97
    },
    {
      "midi": 62,
      "hit": false,
      "t": 110400,
      "d": 1100,
      "v": 97
    },
    {
      "midi": 46,
      "hit": false,
      "t": 110700,
      "d": 187.5,
      "v": 97
    },
    {
      "midi": 46,
      "hit": false,
      "t": 111000,
      "d": 165.625,
      "v": 97
    },
    {
      "midi": 46,
      "hit": false,
      "t": 111300,
      "d": 200,
      "v": 97
    },
    {
      "midi": 55,
      "hit": false,
      "t": 111600,
      "d": 2212.5,
      "v": 97
    },
    {
      "midi": 60,
      "hit": false,
      "t": 111600,
      "d": 2218.75,
      "v": 97
    },
    {
      "midi": 64,
      "hit": false,
      "t": 111600,
      "d": 2262.5,
      "v": 97
    },
    {
      "midi": 48,
      "hit": false,
      "t": 111600,
      "d": 2300,
      "v": 97
    },
    {
      "midi": 62,
      "hit": false,
      "t": 114000,
      "d": 190.625,
      "v": 97
    },
    {
      "midi": 65,
      "hit": false,
      "t": 114000,
      "d": 196.875,
      "v": 97
    },
    {
      "midi": 69,
      "hit": false,
      "t": 114000,
      "d": 212.5,
      "v": 97
    },
    {
      "midi": 74,
      "hit": false,
      "t": 114000,
      "d": 1562.5,
      "v": 97
    },
    {
      "midi": 62,
      "hit": false,
      "t": 114300,
      "d": 106.25,
      "v": 97
    },
    {
      "midi": 65,
      "hit": false,
      "t": 114300,
      "d": 112.5,
      "v": 97
    },
    {
      "midi": 69,
      "hit": false,
      "t": 114300,
      "d": 112.5,
      "v": 97
    },
    {
      "midi": 65,
      "hit": false,
      "t": 114600,
      "d": 143.75,
      "v": 97
    },
    {
      "midi": 69,
      "hit": false,
      "t": 114600,
      "d": 143.75,
      "v": 97
    },
    {
      "midi": 62,
      "hit": false,
      "t": 114600,
      "d": 162.5,
      "v": 97
    },
    {
      "midi": 65,
      "hit": false,
      "t": 114900,
      "d": 128.125,
      "v": 97
    },
    {
      "midi": 69,
      "hit": false,
      "t": 114900,
      "d": 137.5,
      "v": 97
    },
    {
      "midi": 62,
      "hit": false,
      "t": 114900,
      "d": 146.875,
      "v": 97
    },
    {
      "midi": 69,
      "hit": false,
      "t": 115200,
      "d": 137.5,
      "v": 97
    },
    {
      "midi": 65,
      "hit": false,
      "t": 115200,
      "d": 143.75,
      "v": 97
    },
    {
      "midi": 62,
      "hit": false,
      "t": 115200,
      "d": 159.375,
      "v": 97
    },
    {
      "midi": 65,
      "hit": false,
      "t": 115500,
      "d": 100,
      "v": 97
    },
    {
      "midi": 62,
      "hit": false,
      "t": 115500,
      "d": 112.5,
      "v": 97
    },
    {
      "midi": 69,
      "hit": false,
      "t": 115500,
      "d": 118.75,
      "v": 97
    },
    {
      "midi": 62,
      "hit": false,
      "t": 115800,
      "d": 112.5,
      "v": 97
    },
    {
      "midi": 65,
      "hit": false,
      "t": 115800,
      "d": 112.5,
      "v": 97
    },
    {
      "midi": 69,
      "hit": false,
      "t": 115800,
      "d": 134.375,
      "v": 97
    },
    {
      "midi": 62,
      "hit": false,
      "t": 116100,
      "d": 78.125,
      "v": 97
    },
    {
      "midi": 65,
      "hit": false,
      "t": 116100,
      "d": 90.625,
      "v": 97
    },
    {
      "midi": 69,
      "hit": false,
      "t": 116100,
      "d": 115.625,
      "v": 97
    },
    {
      "midi": 67,
      "hit": false,
      "t": 116400,
      "d": 156.25,
      "v": 97
    },
    {
      "midi": 64,
      "hit": false,
      "t": 116400,
      "d": 168.75,
      "v": 97
    },
    {
      "midi": 60,
      "hit": false,
      "t": 116400,
      "d": 184.375,
      "v": 97
    },
    {
      "midi": 72,
      "hit": false,
      "t": 116400,
      "d": 1615.625,
      "v": 97
    },
    {
      "midi": 67,
      "hit": false,
      "t": 116700,
      "d": 165.625,
      "v": 97
    },
    {
      "midi": 60,
      "hit": false,
      "t": 116700,
      "d": 187.5,
      "v": 97
    },
    {
      "midi": 64,
      "hit": false,
      "t": 116700,
      "d": 187.5,
      "v": 97
    },
    {
      "midi": 67,
      "hit": false,
      "t": 117000,
      "d": 178.125,
      "v": 97
    },
    {
      "midi": 60,
      "hit": false,
      "t": 117000,
      "d": 187.5,
      "v": 97
    },
    {
      "midi": 64,
      "hit": false,
      "t": 117000,
      "d": 200,
      "v": 97
    },
    {
      "midi": 64,
      "hit": false,
      "t": 117300,
      "d": 137.5,
      "v": 97
    },
    {
      "midi": 67,
      "hit": false,
      "t": 117300,
      "d": 137.5,
      "v": 97
    },
    {
      "midi": 60,
      "hit": false,
      "t": 117300,
      "d": 143.75,
      "v": 97
    },
    {
      "midi": 60,
      "hit": false,
      "t": 117600,
      "d": 112.5,
      "v": 97
    },
    {
      "midi": 64,
      "hit": false,
      "t": 117600,
      "d": 112.5,
      "v": 97
    },
    {
      "midi": 67,
      "hit": false,
      "t": 117600,
      "d": 112.5,
      "v": 97
    },
    {
      "midi": 60,
      "hit": false,
      "t": 117900,
      "d": 100,
      "v": 97
    },
    {
      "midi": 64,
      "hit": false,
      "t": 117900,
      "d": 100,
      "v": 97
    },
    {
      "midi": 67,
      "hit": false,
      "t": 117900,
      "d": 115.625,
      "v": 97
    },
    {
      "midi": 64,
      "hit": false,
      "t": 118200,
      "d": 106.25,
      "v": 97
    },
    {
      "midi": 67,
      "hit": false,
      "t": 118200,
      "d": 112.5,
      "v": 97
    },
    {
      "midi": 60,
      "hit": false,
      "t": 118200,
      "d": 115.625,
      "v": 97
    },
    {
      "midi": 60,
      "hit": false,
      "t": 118500,
      "d": 96.875,
      "v": 97
    },
    {
      "midi": 64,
      "hit": false,
      "t": 118500,
      "d": 96.875,
      "v": 97
    },
    {
      "midi": 67,
      "hit": false,
      "t": 118500,
      "d": 118.75,
      "v": 97
    },
    {
      "midi": 65,
      "hit": false,
      "t": 118800,
      "d": 112.5,
      "v": 97
    },
    {
      "midi": 71,
      "hit": false,
      "t": 118800,
      "d": 140.625,
      "v": 97
    },
    {
      "midi": 62,
      "hit": false,
      "t": 118800,
      "d": 159.375,
      "v": 97
    },
    {
      "midi": 62,
      "hit": false,
      "t": 119100,
      "d": 178.125,
      "v": 97
    },
    {
      "midi": 65,
      "hit": false,
      "t": 119100,
      "d": 190.625,
      "v": 97
    },
    {
      "midi": 71,
      "hit": false,
      "t": 119100,
      "d": 190.625,
      "v": 97
    },
    {
      "midi": 62,
      "hit": false,
      "t": 119400,
      "d": 146.875,
      "v": 97
    },
    {
      "midi": 71,
      "hit": false,
      "t": 119400,
      "d": 159.375,
      "v": 97
    },
    {
      "midi": 65,
      "hit": false,
      "t": 119400,
      "d": 162.5,
      "v": 97
    },
    {
      "midi": 62,
      "hit": false,
      "t": 119700,
      "d": 156.25,
      "v": 97
    },
    {
      "midi": 65,
      "hit": false,
      "t": 119700,
      "d": 156.25,
      "v": 97
    },
    {
      "midi": 71,
      "hit": false,
      "t": 119700,
      "d": 171.875,
      "v": 97
    },
    {
      "midi": 62,
      "hit": false,
      "t": 120000,
      "d": 175,
      "v": 97
    },
    {
      "midi": 65,
      "hit": false,
      "t": 120000,
      "d": 196.875,
      "v": 97
    },
    {
      "midi": 71,
      "hit": false,
      "t": 120000,
      "d": 196.875,
      "v": 97
    },
    {
      "midi": 62,
      "hit": false,
      "t": 120300,
      "d": 165.625,
      "v": 97
    },
    {
      "midi": 65,
      "hit": false,
      "t": 120300,
      "d": 165.625,
      "v": 97
    },
    {
      "midi": 71,
      "hit": false,
      "t": 120300,
      "d": 175,
      "v": 97
    },
    {
      "midi": 62,
      "hit": false,
      "t": 120600,
      "d": 159.375,
      "v": 97
    },
    {
      "midi": 65,
      "hit": false,
      "t": 120600,
      "d": 165.625,
      "v": 97
    },
    {
      "midi": 71,
      "hit": false,
      "t": 120600,
      "d": 187.5,
      "v": 97
    },
    {
      "midi": 65,
      "hit": false,
      "t": 120900,
      "d": 112.5,
      "v": 97
    },
    {
      "midi": 62,
      "hit": false,
      "t": 120900,
      "d": 128.125,
      "v": 97
    },
    {
      "midi": 71,
      "hit": false,
      "t": 120900,
      "d": 128.125,
      "v": 97
    },
    {
      "midi": 60,
      "hit": false,
      "t": 121200,
      "d": 153.125,
      "v": 97
    },
    {
      "midi": 64,
      "hit": false,
      "t": 121200,
      "d": 162.5,
      "v": 97
    },
    {
      "midi": 69,
      "hit": false,
      "t": 121200,
      "d": 162.5,
      "v": 97
    },
    {
      "midi": 60,
      "hit": false,
      "t": 121500,
      "d": 178.125,
      "v": 97
    },
    {
      "midi": 69,
      "hit": false,
      "t": 121500,
      "d": 178.125,
      "v": 97
    },
    {
      "midi": 64,
      "hit": false,
      "t": 121500,
      "d": 190.625,
      "v": 97
    },
    {
      "midi": 64,
      "hit": false,
      "t": 121800,
      "d": 159.375,
      "v": 97
    },
    {
      "midi": 60,
      "hit": false,
      "t": 121800,
      "d": 168.75,
      "v": 97
    },
    {
      "midi": 69,
      "hit": false,
      "t": 121800,
      "d": 168.75,
      "v": 97
    },
    {
      "midi": 64,
      "hit": false,
      "t": 122100,
      "d": 165.625,
      "v": 97
    },
    {
      "midi": 69,
      "hit": false,
      "t": 122100,
      "d": 165.625,
      "v": 97
    },
    {
      "midi": 60,
      "hit": false,
      "t": 122100,
      "d": 171.875,
      "v": 97
    },
    {
      "midi": 60,
      "hit": false,
      "t": 122400,
      "d": 175,
      "v": 97
    },
    {
      "midi": 64,
      "hit": false,
      "t": 122400,
      "d": 187.5,
      "v": 97
    },
    {
      "midi": 69,
      "hit": false,
      "t": 122400,
      "d": 187.5,
      "v": 97
    },
    {
      "midi": 60,
      "hit": false,
      "t": 122700,
      "d": 168.75,
      "v": 97
    },
    {
      "midi": 64,
      "hit": false,
      "t": 122700,
      "d": 168.75,
      "v": 97
    },
    {
      "midi": 69,
      "hit": false,
      "t": 122700,
      "d": 175,
      "v": 97
    },
    {
      "midi": 64,
      "hit": false,
      "t": 123000,
      "d": 137.5,
      "v": 97
    },
    {
      "midi": 60,
      "hit": false,
      "t": 123000,
      "d": 153.125,
      "v": 97
    },
    {
      "midi": 69,
      "hit": false,
      "t": 123000,
      "d": 153.125,
      "v": 97
    },
    {
      "midi": 64,
      "hit": false,
      "t": 123300,
      "d": 143.75,
      "v": 97
    },
    {
      "midi": 60,
      "hit": false,
      "t": 123300,
      "d": 150,
      "v": 97
    },
    {
      "midi": 69,
      "hit": false,
      "t": 123300,
      "d": 159.375,
      "v": 97
    },
    {
      "midi": 65,
      "hit": false,
      "t": 123600,
      "d": 150,
      "v": 97
    },
    {
      "midi": 62,
      "hit": false,
      "t": 123600,
      "d": 162.5,
      "v": 97
    },
    {
      "midi": 71,
      "hit": false,
      "t": 123600,
      "d": 175,
      "v": 97
    },
    {
      "midi": 71,
      "hit": false,
      "t": 123900,
      "d": 187.5,
      "v": 97
    },
    {
      "midi": 62,
      "hit": false,
      "t": 123900,
      "d": 196.875,
      "v": 97
    },
    {
      "midi": 65,
      "hit": false,
      "t": 123900,
      "d": 203.125,
      "v": 97
    },
    {
      "midi": 62,
      "hit": false,
      "t": 124200,
      "d": 184.375,
      "v": 97
    },
    {
      "midi": 71,
      "hit": false,
      "t": 124200,
      "d": 184.375,
      "v": 97
    },
    {
      "midi": 65,
      "hit": false,
      "t": 124200,
      "d": 203.125,
      "v": 97
    },
    {
      "midi": 62,
      "hit": false,
      "t": 124500,
      "d": 150,
      "v": 97
    },
    {
      "midi": 65,
      "hit": false,
      "t": 124500,
      "d": 150,
      "v": 97
    },
    {
      "midi": 71,
      "hit": false,
      "t": 124500,
      "d": 162.5,
      "v": 97
    },
    {
      "midi": 62,
      "hit": false,
      "t": 124800,
      "d": 168.75,
      "v": 97
    },
    {
      "midi": 65,
      "hit": false,
      "t": 124800,
      "d": 181.25,
      "v": 97
    },
    {
      "midi": 71,
      "hit": false,
      "t": 124800,
      "d": 187.5,
      "v": 97
    },
    {
      "midi": 65,
      "hit": false,
      "t": 125100,
      "d": 153.125,
      "v": 97
    },
    {
      "midi": 62,
      "hit": false,
      "t": 125100,
      "d": 162.5,
      "v": 97
    },
    {
      "midi": 71,
      "hit": false,
      "t": 125100,
      "d": 178.125,
      "v": 97
    },
    {
      "midi": 62,
      "hit": false,
      "t": 125400,
      "d": 153.125,
      "v": 97
    },
    {
      "midi": 65,
      "hit": false,
      "t": 125400,
      "d": 159.375,
      "v": 97
    },
    {
      "midi": 71,
      "hit": false,
      "t": 125400,
      "d": 175,
      "v": 97
    },
    {
      "midi": 65,
      "hit": false,
      "t": 125700,
      "d": 121.875,
      "v": 97
    },
    {
      "midi": 71,
      "hit": false,
      "t": 125700,
      "d": 140.625,
      "v": 97
    },
    {
      "midi": 62,
      "hit": false,
      "t": 125700,
      "d": 153.125,
      "v": 97
    },
    {
      "midi": 64,
      "hit": false,
      "t": 126000,
      "d": 153.125,
      "v": 97
    },
    {
      "midi": 72,
      "hit": false,
      "t": 126000,
      "d": 162.5,
      "v": 97
    },
    {
      "midi": 69,
      "hit": false,
      "t": 126000,
      "d": 175,
      "v": 97
    },
    {
      "midi": 64,
      "hit": false,
      "t": 126300,
      "d": 131.25,
      "v": 97
    },
    {
      "midi": 69,
      "hit": false,
      "t": 126300,
      "d": 143.75,
      "v": 97
    },
    {
      "midi": 72,
      "hit": false,
      "t": 126300,
      "d": 156.25,
      "v": 97
    },
    {
      "midi": 69,
      "hit": false,
      "t": 126600,
      "d": 109.375,
      "v": 97
    },
    {
      "midi": 64,
      "hit": false,
      "t": 126600,
      "d": 128.125,
      "v": 97
    },
    {
      "midi": 72,
      "hit": false,
      "t": 126600,
      "d": 146.875,
      "v": 97
    },
    {
      "midi": 69,
      "hit": false,
      "t": 126900,
      "d": 121.875,
      "v": 97
    },
    {
      "midi": 64,
      "hit": false,
      "t": 126900,
      "d": 137.5,
      "v": 97
    },
    {
      "midi": 72,
      "hit": false,
      "t": 126900,
      "d": 156.25,
      "v": 97
    },
    {
      "midi": 69,
      "hit": false,
      "t": 127200,
      "d": 112.5,
      "v": 97
    },
    {
      "midi": 64,
      "hit": false,
      "t": 127200,
      "d": 134.375,
      "v": 97
    },
    {
      "midi": 72,
      "hit": false,
      "t": 127200,
      "d": 150,
      "v": 97
    },
    {
      "midi": 69,
      "hit": false,
      "t": 127500,
      "d": 125,
      "v": 97
    },
    {
      "midi": 64,
      "hit": false,
      "t": 127500,
      "d": 140.625,
      "v": 97
    },
    {
      "midi": 72,
      "hit": false,
      "t": 127500,
      "d": 150,
      "v": 97
    },
    {
      "midi": 69,
      "hit": false,
      "t": 127800,
      "d": 106.25,
      "v": 97
    },
    {
      "midi": 64,
      "hit": false,
      "t": 127800,
      "d": 125,
      "v": 97
    },
    {
      "midi": 72,
      "hit": false,
      "t": 127800,
      "d": 143.75,
      "v": 97
    },
    {
      "midi": 69,
      "hit": false,
      "t": 128100,
      "d": 112.5,
      "v": 97
    },
    {
      "midi": 72,
      "hit": false,
      "t": 128100,
      "d": 125,
      "v": 97
    },
    {
      "midi": 64,
      "hit": false,
      "t": 128100,
      "d": 131.25,
      "v": 97
    },
    {
      "midi": 62,
      "hit": false,
      "t": 128400,
      "d": 137.5,
      "v": 97
    },
    {
      "midi": 65,
      "hit": false,
      "t": 128400,
      "d": 143.75,
      "v": 97
    },
    {
      "midi": 71,
      "hit": false,
      "t": 128400,
      "d": 162.5,
      "v": 97
    },
    {
      "midi": 62,
      "hit": false,
      "t": 128700,
      "d": 128.125,
      "v": 97
    },
    {
      "midi": 65,
      "hit": false,
      "t": 128700,
      "d": 134.375,
      "v": 97
    },
    {
      "midi": 71,
      "hit": false,
      "t": 128700,
      "d": 156.25,
      "v": 97
    },
    {
      "midi": 62,
      "hit": false,
      "t": 129000,
      "d": 137.5,
      "v": 97
    },
    {
      "midi": 71,
      "hit": false,
      "t": 129000,
      "d": 150,
      "v": 97
    },
    {
      "midi": 65,
      "hit": false,
      "t": 129000,
      "d": 153.125,
      "v": 97
    },
    {
      "midi": 62,
      "hit": false,
      "t": 129300,
      "d": 146.875,
      "v": 97
    },
    {
      "midi": 65,
      "hit": false,
      "t": 129300,
      "d": 146.875,
      "v": 97
    },
    {
      "midi": 71,
      "hit": false,
      "t": 129300,
      "d": 162.5,
      "v": 97
    },
    {
      "midi": 62,
      "hit": false,
      "t": 129600,
      "d": 125,
      "v": 97
    },
    {
      "midi": 65,
      "hit": false,
      "t": 129600,
      "d": 125,
      "v": 97
    },
    {
      "midi": 71,
      "hit": false,
      "t": 129600,
      "d": 143.75,
      "v": 97
    },
    {
      "midi": 62,
      "hit": false,
      "t": 129900,
      "d": 128.125,
      "v": 97
    },
    {
      "midi": 65,
      "hit": false,
      "t": 129900,
      "d": 137.5,
      "v": 97
    },
    {
      "midi": 71,
      "hit": false,
      "t": 129900,
      "d": 137.5,
      "v": 97
    },
    {
      "midi": 62,
      "hit": false,
      "t": 130200,
      "d": 121.875,
      "v": 97
    },
    {
      "midi": 65,
      "hit": false,
      "t": 130200,
      "d": 150,
      "v": 97
    },
    {
      "midi": 71,
      "hit": false,
      "t": 130200,
      "d": 150,
      "v": 97
    },
    {
      "midi": 62,
      "hit": false,
      "t": 130500,
      "d": 125,
      "v": 97
    },
    {
      "midi": 65,
      "hit": false,
      "t": 130500,
      "d": 128.125,
      "v": 97
    },
    {
      "midi": 71,
      "hit": false,
      "t": 130500,
      "d": 140.625,
      "v": 97
    },
    {
      "midi": 59,
      "hit": false,
      "t": 130800,
      "d": 584.375,
      "v": 97
    },
    {
      "midi": 62,
      "hit": false,
      "t": 131100,
      "d": 321.875,
      "v": 97
    },
    {
      "midi": 67,
      "hit": false,
      "t": 131400,
      "d": 428.125,
      "v": 97
    },
    {
      "midi": 62,
      "hit": false,
      "t": 131700,
      "d": 328.125,
      "v": 97
    },
    {
      "midi": 59,
      "hit": false,
      "t": 132000,
      "d": 312.5,
      "v": 97
    },
    {
      "midi": 55,
      "hit": false,
      "t": 132300,
      "d": 200,
      "v": 97
    },
    {
      "midi": 55,
      "hit": false,
      "t": 132600,
      "d": 165.625,
      "v": 97
    },
    {
      "midi": 55,
      "hit": false,
      "t": 132900,
      "d": 187.5,
      "v": 97
    },
    {
      "midi": 60,
      "hit": false,
      "t": 133200,
      "d": 1159.375,
      "v": 97
    },
    {
      "midi": 65,
      "hit": false,
      "t": 133200,
      "d": 1159.375,
      "v": 97
    },
    {
      "midi": 69,
      "hit": false,
      "t": 133200,
      "d": 1184.375,
      "v": 97
    },
    {
      "midi": 48,
      "hit": false,
      "t": 134400,
      "d": 228.125,
      "v": 97
    },
    {
      "midi": 67,
      "hit": false,
      "t": 134400,
      "d": 1050,
      "v": 97
    },
    {
      "midi": 64,
      "hit": false,
      "t": 134400,
      "d": 1062.5,
      "v": 97
    },
    {
      "midi": 60,
      "hit": false,
      "t": 134400,
      "d": 1068.75,
      "v": 97
    },
    {
      "midi": 48,
      "hit": false,
      "t": 134700,
      "d": 203.125,
      "v": 97
    },
    {
      "midi": 48,
      "hit": false,
      "t": 135000,
      "d": 168.75,
      "v": 97
    },
    {
      "midi": 48,
      "hit": false,
      "t": 135300,
      "d": 225,
      "v": 97
    },
    {
      "midi": 47,
      "hit": false,
      "t": 135600,
      "d": 187.5,
      "v": 97
    },
    {
      "midi": 59,
      "hit": false,
      "t": 135600,
      "d": 965.625,
      "v": 97
    },
    {
      "midi": 67,
      "hit": false,
      "t": 135600,
      "d": 987.5,
      "v": 97
    },
    {
      "midi": 64,
      "hit": false,
      "t": 135600,
      "d": 1000,
      "v": 97
    },
    {
      "midi": 47,
      "hit": false,
      "t": 135900,
      "d": 200,
      "v": 97
    },
    {
      "midi": 47,
      "hit": false,
      "t": 136200,
      "d": 196.875,
      "v": 97
    },
    {
      "midi": 47,
      "hit": false,
      "t": 136500,
      "d": 268.75,
      "v": 97
    },
    {
      "midi": 45,
      "hit": false,
      "t": 136800,
      "d": 196.875,
      "v": 97
    },
    {
      "midi": 57,
      "hit": false,
      "t": 136800,
      "d": 937.5,
      "v": 97
    },
    {
      "midi": 67,
      "hit": false,
      "t": 136800,
      "d": 987.5,
      "v": 97
    },
    {
      "midi": 60,
      "hit": false,
      "t": 136800,
      "d": 1003.125,
      "v": 97
    },
    {
      "midi": 64,
      "hit": false,
      "t": 136800,
      "d": 1025,
      "v": 97
    },
    {
      "midi": 45,
      "hit": false,
      "t": 137100,
      "d": 209.375,
      "v": 97
    },
    {
      "midi": 45,
      "hit": false,
      "t": 137400,
      "d": 234.375,
      "v": 97
    },
    {
      "midi": 45,
      "hit": false,
      "t": 137700,
      "d": 200,
      "v": 97
    },
    {
      "midi": 43,
      "hit": false,
      "t": 138000,
      "d": 228.125,
      "v": 97
    },
    {
      "midi": 64,
      "hit": false,
      "t": 138000,
      "d": 915.625,
      "v": 97
    },
    {
      "midi": 67,
      "hit": false,
      "t": 138000,
      "d": 915.625,
      "v": 97
    },
    {
      "midi": 55,
      "hit": false,
      "t": 138000,
      "d": 943.75,
      "v": 97
    },
    {
      "midi": 60,
      "hit": false,
      "t": 138000,
      "d": 943.75,
      "v": 97
    },
    {
      "midi": 43,
      "hit": false,
      "t": 138300,
      "d": 237.5,
      "v": 97
    },
    {
      "midi": 43,
      "hit": false,
      "t": 138600,
      "d": 171.875,
      "v": 97
    },
    {
      "midi": 43,
      "hit": false,
      "t": 138900,
      "d": 221.875,
      "v": 97
    },
    {
      "midi": 41,
      "hit": false,
      "t": 139200,
      "d": 225,
      "v": 97
    },
    {
      "midi": 57,
      "hit": false,
      "t": 139200,
      "d": 975,
      "v": 97
    },
    {
      "midi": 53,
      "hit": false,
      "t": 139200,
      "d": 984.375,
      "v": 97
    },
    {
      "midi": 60,
      "hit": false,
      "t": 139200,
      "d": 1000,
      "v": 97
    },
    {
      "midi": 41,
      "hit": false,
      "t": 139500,
      "d": 193.75,
      "v": 97
    },
    {
      "midi": 41,
      "hit": false,
      "t": 139800,
      "d": 203.125,
      "v": 97
    },
    {
      "midi": 41,
      "hit": false,
      "t": 140100,
      "d": 225,
      "v": 97
    },
    {
      "midi": 44,
      "hit": false,
      "t": 140400,
      "d": 206.25,
      "v": 97
    },
    {
      "midi": 56,
      "hit": false,
      "t": 140400,
      "d": 1059.375,
      "v": 97
    },
    {
      "midi": 60,
      "hit": false,
      "t": 140400,
      "d": 1075,
      "v": 97
    },
    {
      "midi": 65,
      "hit": false,
      "t": 140400,
      "d": 1128.125,
      "v": 97
    },
    {
      "midi": 44,
      "hit": false,
      "t": 140700,
      "d": 190.625,
      "v": 97
    },
    {
      "midi": 44,
      "hit": false,
      "t": 141000,
      "d": 200,
      "v": 97
    },
    {
      "midi": 44,
      "hit": false,
      "t": 141300,
      "d": 228.125,
      "v": 97
    },
    {
      "midi": 48,
      "hit": false,
      "t": 141600,
      "d": 225,
      "v": 97
    },
    {
      "midi": 60,
      "hit": false,
      "t": 141600,
      "d": 971.875,
      "v": 97
    },
    {
      "midi": 64,
      "hit": false,
      "t": 141600,
      "d": 971.875,
      "v": 97
    },
    {
      "midi": 67,
      "hit": false,
      "t": 141600,
      "d": 971.875,
      "v": 97
    },
    {
      "midi": 48,
      "hit": false,
      "t": 141900,
      "d": 178.125,
      "v": 97
    },
    {
      "midi": 48,
      "hit": false,
      "t": 142200,
      "d": 171.875,
      "v": 97
    },
    {
      "midi": 48,
      "hit": false,
      "t": 142500,
      "d": 221.875,
      "v": 97
    },
    {
      "midi": 47,
      "hit": false,
      "t": 142800,
      "d": 181.25,
      "v": 97
    },
    {
      "midi": 67,
      "hit": false,
      "t": 142800,
      "d": 900,
      "v": 97
    },
    {
      "midi": 59,
      "hit": false,
      "t": 142800,
      "d": 937.5,
      "v": 97
    },
    {
      "midi": 64,
      "hit": false,
      "t": 142800,
      "d": 971.875,
      "v": 97
    },
    {
      "midi": 47,
      "hit": false,
      "t": 143100,
      "d": 200,
      "v": 97
    },
    {
      "midi": 47,
      "hit": false,
      "t": 143400,
      "d": 184.375,
      "v": 97
    },
    {
      "midi": 47,
      "hit": false,
      "t": 143700,
      "d": 228.125,
      "v": 97
    },
    {
      "midi": 45,
      "hit": false,
      "t": 144000,
      "d": 184.375,
      "v": 97
    },
    {
      "midi": 57,
      "hit": false,
      "t": 144000,
      "d": 934.375,
      "v": 97
    },
    {
      "midi": 64,
      "hit": false,
      "t": 144000,
      "d": 946.875,
      "v": 97
    },
    {
      "midi": 67,
      "hit": false,
      "t": 144000,
      "d": 962.5,
      "v": 97
    },
    {
      "midi": 60,
      "hit": false,
      "t": 144000,
      "d": 968.75,
      "v": 97
    },
    {
      "midi": 45,
      "hit": false,
      "t": 144300,
      "d": 206.25,
      "v": 97
    },
    {
      "midi": 45,
      "hit": false,
      "t": 144600,
      "d": 171.875,
      "v": 97
    },
    {
      "midi": 45,
      "hit": false,
      "t": 144900,
      "d": 250,
      "v": 97
    },
    {
      "midi": 43,
      "hit": false,
      "t": 145200,
      "d": 253.125,
      "v": 97
    },
    {
      "midi": 67,
      "hit": false,
      "t": 145200,
      "d": 815.625,
      "v": 97
    },
    {
      "midi": 64,
      "hit": false,
      "t": 145200,
      "d": 837.5,
      "v": 97
    },
    {
      "midi": 55,
      "hit": false,
      "t": 145200,
      "d": 850,
      "v": 97
    },
    {
      "midi": 60,
      "hit": false,
      "t": 145200,
      "d": 881.25,
      "v": 97
    },
    {
      "midi": 43,
      "hit": false,
      "t": 145500,
      "d": 178.125,
      "v": 97
    },
    {
      "midi": 43,
      "hit": false,
      "t": 145800,
      "d": 178.125,
      "v": 97
    },
    {
      "midi": 43,
      "hit": false,
      "t": 146100,
      "d": 221.875,
      "v": 97
    },
    {
      "midi": 41,
      "hit": false,
      "t": 146400,
      "d": 200,
      "v": 97
    },
    {
      "midi": 57,
      "hit": false,
      "t": 146400,
      "d": 965.625,
      "v": 97
    },
    {
      "midi": 53,
      "hit": false,
      "t": 146400,
      "d": 975,
      "v": 97
    },
    {
      "midi": 60,
      "hit": false,
      "t": 146400,
      "d": 1000,
      "v": 97
    },
    {
      "midi": 41,
      "hit": false,
      "t": 146700,
      "d": 181.25,
      "v": 97
    },
    {
      "midi": 41,
      "hit": false,
      "t": 147000,
      "d": 171.875,
      "v": 97
    },
    {
      "midi": 41,
      "hit": false,
      "t": 147300,
      "d": 190.625,
      "v": 97
    },
    {
      "midi": 46,
      "hit": false,
      "t": 147600,
      "d": 193.75,
      "v": 97
    },
    {
      "midi": 53,
      "hit": false,
      "t": 147600,
      "d": 1068.75,
      "v": 97
    },
    {
      "midi": 56,
      "hit": false,
      "t": 147600,
      "d": 1081.25,
      "v": 97
    },
    {
      "midi": 62,
      "hit": false,
      "t": 147600,
      "d": 1100,
      "v": 97
    },
    {
      "midi": 46,
      "hit": false,
      "t": 147900,
      "d": 187.5,
      "v": 97
    },
    {
      "midi": 46,
      "hit": false,
      "t": 148200,
      "d": 165.625,
      "v": 97
    },
    {
      "midi": 46,
      "hit": false,
      "t": 148500,
      "d": 200,
      "v": 97
    },
    {
      "midi": 48,
      "hit": false,
      "t": 148800,
      "d": 228.125,
      "v": 97
    },
    {
      "midi": 67,
      "hit": false,
      "t": 148800,
      "d": 1050,
      "v": 97
    },
    {
      "midi": 64,
      "hit": false,
      "t": 148800,
      "d": 1062.5,
      "v": 97
    },
    {
      "midi": 60,
      "hit": false,
      "t": 148800,
      "d": 1068.75,
      "v": 97
    },
    {
      "midi": 48,
      "hit": false,
      "t": 149100,
      "d": 203.125,
      "v": 97
    },
    {
      "midi": 48,
      "hit": false,
      "t": 149400,
      "d": 168.75,
      "v": 97
    },
    {
      "midi": 48,
      "hit": false,
      "t": 149700,
      "d": 225,
      "v": 97
    },
    {
      "midi": 47,
      "hit": false,
      "t": 150000,
      "d": 187.5,
      "v": 97
    },
    {
      "midi": 59,
      "hit": false,
      "t": 150000,
      "d": 965.625,
      "v": 97
    },
    {
      "midi": 67,
      "hit": false,
      "t": 150000,
      "d": 987.5,
      "v": 97
    },
    {
      "midi": 64,
      "hit": false,
      "t": 150000,
      "d": 1000,
      "v": 97
    },
    {
      "midi": 47,
      "hit": false,
      "t": 150300,
      "d": 200,
      "v": 97
    },
    {
      "midi": 47,
      "hit": false,
      "t": 150600,
      "d": 196.875,
      "v": 97
    },
    {
      "midi": 47,
      "hit": false,
      "t": 150900,
      "d": 268.75,
      "v": 97
    },
    {
      "midi": 45,
      "hit": false,
      "t": 151200,
      "d": 196.875,
      "v": 97
    },
    {
      "midi": 57,
      "hit": false,
      "t": 151200,
      "d": 937.5,
      "v": 97
    },
    {
      "midi": 67,
      "hit": false,
      "t": 151200,
      "d": 987.5,
      "v": 97
    },
    {
      "midi": 60,
      "hit": false,
      "t": 151200,
      "d": 1003.125,
      "v": 97
    },
    {
      "midi": 64,
      "hit": false,
      "t": 151200,
      "d": 1025,
      "v": 97
    },
    {
      "midi": 45,
      "hit": false,
      "t": 151500,
      "d": 209.375,
      "v": 97
    },
    {
      "midi": 45,
      "hit": false,
      "t": 151800,
      "d": 234.375,
      "v": 97
    },
    {
      "midi": 45,
      "hit": false,
      "t": 152100,
      "d": 200,
      "v": 97
    },
    {
      "midi": 43,
      "hit": false,
      "t": 152400,
      "d": 228.125,
      "v": 97
    },
    {
      "midi": 64,
      "hit": false,
      "t": 152400,
      "d": 915.625,
      "v": 97
    },
    {
      "midi": 67,
      "hit": false,
      "t": 152400,
      "d": 915.625,
      "v": 97
    },
    {
      "midi": 55,
      "hit": false,
      "t": 152400,
      "d": 943.75,
      "v": 97
    },
    {
      "midi": 60,
      "hit": false,
      "t": 152400,
      "d": 943.75,
      "v": 97
    },
    {
      "midi": 43,
      "hit": false,
      "t": 152700,
      "d": 237.5,
      "v": 97
    },
    {
      "midi": 43,
      "hit": false,
      "t": 153000,
      "d": 171.875,
      "v": 97
    },
    {
      "midi": 43,
      "hit": false,
      "t": 153300,
      "d": 221.875,
      "v": 97
    },
    {
      "midi": 41,
      "hit": false,
      "t": 153600,
      "d": 225,
      "v": 97
    },
    {
      "midi": 57,
      "hit": false,
      "t": 153600,
      "d": 975,
      "v": 97
    },
    {
      "midi": 53,
      "hit": false,
      "t": 153600,
      "d": 984.375,
      "v": 97
    },
    {
      "midi": 60,
      "hit": false,
      "t": 153600,
      "d": 1000,
      "v": 97
    },
    {
      "midi": 41,
      "hit": false,
      "t": 153900,
      "d": 193.75,
      "v": 97
    },
    {
      "midi": 41,
      "hit": false,
      "t": 154200,
      "d": 203.125,
      "v": 97
    },
    {
      "midi": 41,
      "hit": false,
      "t": 154500,
      "d": 225,
      "v": 97
    },
    {
      "midi": 44,
      "hit": false,
      "t": 154800,
      "d": 206.25,
      "v": 97
    },
    {
      "midi": 56,
      "hit": false,
      "t": 154800,
      "d": 1059.375,
      "v": 97
    },
    {
      "midi": 60,
      "hit": false,
      "t": 154800,
      "d": 1075,
      "v": 97
    },
    {
      "midi": 65,
      "hit": false,
      "t": 154800,
      "d": 1128.125,
      "v": 97
    },
    {
      "midi": 44,
      "hit": false,
      "t": 155100,
      "d": 190.625,
      "v": 97
    },
    {
      "midi": 44,
      "hit": false,
      "t": 155400,
      "d": 200,
      "v": 97
    },
    {
      "midi": 44,
      "hit": false,
      "t": 155700,
      "d": 228.125,
      "v": 97
    },
    {
      "midi": 56,
      "hit": false,
      "t": 156000,
      "d": 1037.5,
      "v": 97
    },
    {
      "midi": 51,
      "hit": false,
      "t": 156000,
      "d": 1059.375,
      "v": 97
    },
    {
      "midi": 60,
      "hit": false,
      "t": 156000,
      "d": 1059.375,
      "v": 97
    },
    {
      "midi": 55,
      "hit": false,
      "t": 157200,
      "d": 1034.375,
      "v": 97
    },
    {
      "midi": 51,
      "hit": false,
      "t": 157200,
      "d": 1071.875,
      "v": 97
    },
    {
      "midi": 60,
      "hit": false,
      "t": 157200,
      "d": 1106.25,
      "v": 97
    },
    {
      "midi": 54,
      "hit": false,
      "t": 158400,
      "d": 1056.25,
      "v": 97
    },
    {
      "midi": 51,
      "hit": false,
      "t": 158400,
      "d": 1075,
      "v": 97
    },
    {
      "midi": 60,
      "hit": false,
      "t": 158400,
      "d": 1121.875,
      "v": 97
    },
    {
      "midi": 53,
      "hit": false,
      "t": 159600,
      "d": 650,
      "v": 97
    },
    {
      "midi": 51,
      "hit": false,
      "t": 159600,
      "d": 662.5,
      "v": 97
    },
    {
      "midi": 60,
      "hit": false,
      "t": 159600,
      "d": 662.5,
      "v": 97
    },
    {
      "midi": 48,
      "hit": false,
      "t": 160800,
      "d": 4512.5,
      "v": 97
    },
    {
      "midi": 55,
      "hit": false,
      "t": 160800,
      "d": 4528.125,
      "v": 97
    },
    {
      "midi": 36,
      "hit": false,
      "t": 160800,
      "d": 4534.375,
      "v": 97
    },
    {
      "midi": 52,
      "hit": false,
      "t": 160800,
      "d": 4534.375,
      "v": 97
    },
    {
      "midi": 72,
      "hit": false,
      "t": 165600,
      "d": 203.125,
      "v": 97
    },
    {
      "midi": 76,
      "hit": false,
      "t": 165600,
      "d": 203.125,
      "v": 97
    },
    {
      "midi": 79,
      "hit": false,
      "t": 165600,
      "d": 212.5,
      "v": 97
    },
    {
      "midi": 36,
      "hit": false,
      "t": 165600,
      "d": 381.25,
      "v": 97
    },
    {
      "midi": 72,
      "hit": false,
      "t": 165900,
      "d": 200,
      "v": 97
    },
    {
      "midi": 76,
      "hit": false,
      "t": 165900,
      "d": 215.625,
      "v": 97
    },
    {
      "midi": 79,
      "hit": false,
      "t": 165900,
      "d": 215.625,
      "v": 97
    },
    {
      "midi": 55,
      "hit": false,
      "t": 165900,
      "d": 425,
      "v": 97
    },
    {
      "midi": 64,
      "hit": false,
      "t": 165900,
      "d": 437.5,
      "v": 97
    },
    {
      "midi": 60,
      "hit": false,
      "t": 165900,
      "d": 456.25,
      "v": 97
    },
    {
      "midi": 72,
      "hit": false,
      "t": 166200,
      "d": 206.25,
      "v": 97
    },
    {
      "midi": 79,
      "hit": false,
      "t": 166200,
      "d": 206.25,
      "v": 97
    },
    {
      "midi": 76,
      "hit": false,
      "t": 166200,
      "d": 218.75,
      "v": 97
    },
    {
      "midi": 31,
      "hit": false,
      "t": 166200,
      "d": 378.125,
      "v": 97
    },
    {
      "midi": 72,
      "hit": false,
      "t": 166500,
      "d": 225,
      "v": 97
    },
    {
      "midi": 79,
      "hit": false,
      "t": 166500,
      "d": 225,
      "v": 97
    },
    {
      "midi": 76,
      "hit": false,
      "t": 166500,
      "d": 237.5,
      "v": 97
    },
    {
      "midi": 64,
      "hit": false,
      "t": 166500,
      "d": 462.5,
      "v": 97
    },
    {
      "midi": 55,
      "hit": false,
      "t": 166500,
      "d": 475,
      "v": 97
    },
    {
      "midi": 60,
      "hit": false,
      "t": 166500,
      "d": 481.25,
      "v": 97
    },
    {
      "midi": 72,
      "hit": false,
      "t": 166800,
      "d": 181.25,
      "v": 97
    },
    {
      "midi": 79,
      "hit": false,
      "t": 166800,
      "d": 190.625,
      "v": 97
    },
    {
      "midi": 76,
      "hit": false,
      "t": 166800,
      "d": 203.125,
      "v": 97
    },
    {
      "midi": 36,
      "hit": false,
      "t": 166800,
      "d": 428.125,
      "v": 97
    },
    {
      "midi": 72,
      "hit": false,
      "t": 167100,
      "d": 190.625,
      "v": 97
    },
    {
      "midi": 76,
      "hit": false,
      "t": 167100,
      "d": 209.375,
      "v": 97
    },
    {
      "midi": 79,
      "hit": false,
      "t": 167100,
      "d": 209.375,
      "v": 97
    },
    {
      "midi": 55,
      "hit": false,
      "t": 167100,
      "d": 440.625,
      "v": 97
    },
    {
      "midi": 64,
      "hit": false,
      "t": 167100,
      "d": 446.875,
      "v": 97
    },
    {
      "midi": 60,
      "hit": false,
      "t": 167100,
      "d": 468.75,
      "v": 97
    },
    {
      "midi": 72,
      "hit": false,
      "t": 167400,
      "d": 168.75,
      "v": 97
    },
    {
      "midi": 76,
      "hit": false,
      "t": 167400,
      "d": 184.375,
      "v": 97
    },
    {
      "midi": 79,
      "hit": false,
      "t": 167400,
      "d": 184.375,
      "v": 97
    },
    {
      "midi": 31,
      "hit": false,
      "t": 167400,
      "d": 365.625,
      "v": 97
    },
    {
      "midi": 72,
      "hit": false,
      "t": 167700,
      "d": 187.5,
      "v": 97
    },
    {
      "midi": 76,
      "hit": false,
      "t": 167700,
      "d": 196.875,
      "v": 97
    },
    {
      "midi": 79,
      "hit": false,
      "t": 167700,
      "d": 203.125,
      "v": 97
    },
    {
      "midi": 55,
      "hit": false,
      "t": 167700,
      "d": 418.75,
      "v": 97
    },
    {
      "midi": 64,
      "hit": false,
      "t": 167700,
      "d": 425,
      "v": 97
    },
    {
      "midi": 60,
      "hit": false,
      "t": 167700,
      "d": 437.5,
      "v": 97
    },
    {
      "midi": 72,
      "hit": false,
      "t": 168000,
      "d": 175,
      "v": 97
    },
    {
      "midi": 76,
      "hit": false,
      "t": 168000,
      "d": 175,
      "v": 97
    },
    {
      "midi": 79,
      "hit": false,
      "t": 168000,
      "d": 196.875,
      "v": 97
    },
    {
      "midi": 36,
      "hit": false,
      "t": 168000,
      "d": 321.875,
      "v": 97
    },
    {
      "midi": 72,
      "hit": false,
      "t": 168300,
      "d": 187.5,
      "v": 97
    },
    {
      "midi": 76,
      "hit": false,
      "t": 168300,
      "d": 187.5,
      "v": 97
    },
    {
      "midi": 79,
      "hit": false,
      "t": 168300,
      "d": 206.25,
      "v": 97
    },
    {
      "midi": 55,
      "hit": false,
      "t": 168300,
      "d": 462.5,
      "v": 97
    },
    {
      "midi": 60,
      "hit": false,
      "t": 168300,
      "d": 475,
      "v": 97
    },
    {
      "midi": 64,
      "hit": false,
      "t": 168300,
      "d": 475,
      "v": 97
    },
    {
      "midi": 72,
      "hit": false,
      "t": 168600,
      "d": 162.5,
      "v": 97
    },
    {
      "midi": 76,
      "hit": false,
      "t": 168600,
      "d": 181.25,
      "v": 97
    },
    {
      "midi": 79,
      "hit": false,
      "t": 168600,
      "d": 193.75,
      "v": 97
    },
    {
      "midi": 31,
      "hit": false,
      "t": 168600,
      "d": 350,
      "v": 97
    },
    {
      "midi": 72,
      "hit": false,
      "t": 168900,
      "d": 175,
      "v": 97
    },
    {
      "midi": 76,
      "hit": false,
      "t": 168900,
      "d": 187.5,
      "v": 97
    },
    {
      "midi": 79,
      "hit": false,
      "t": 168900,
      "d": 187.5,
      "v": 97
    },
    {
      "midi": 64,
      "hit": false,
      "t": 168900,
      "d": 403.125,
      "v": 97
    },
    {
      "midi": 55,
      "hit": false,
      "t": 168900,
      "d": 418.75,
      "v": 97
    },
    {
      "midi": 60,
      "hit": false,
      "t": 168900,
      "d": 434.375,
      "v": 97
    },
    {
      "midi": 72,
      "hit": false,
      "t": 169200,
      "d": 162.5,
      "v": 97
    },
    {
      "midi": 76,
      "hit": false,
      "t": 169200,
      "d": 168.75,
      "v": 97
    },
    {
      "midi": 79,
      "hit": false,
      "t": 169200,
      "d": 178.125,
      "v": 97
    },
    {
      "midi": 36,
      "hit": false,
      "t": 169200,
      "d": 359.375,
      "v": 97
    },
    {
      "midi": 72,
      "hit": false,
      "t": 169500,
      "d": 175,
      "v": 97
    },
    {
      "midi": 76,
      "hit": false,
      "t": 169500,
      "d": 187.5,
      "v": 97
    },
    {
      "midi": 79,
      "hit": false,
      "t": 169500,
      "d": 196.875,
      "v": 97
    },
    {
      "midi": 55,
      "hit": false,
      "t": 169500,
      "d": 456.25,
      "v": 97
    },
    {
      "midi": 64,
      "hit": false,
      "t": 169500,
      "d": 456.25,
      "v": 97
    },
    {
      "midi": 60,
      "hit": false,
      "t": 169500,
      "d": 471.875,
      "v": 97
    },
    {
      "midi": 72,
      "hit": false,
      "t": 169800,
      "d": 162.5,
      "v": 97
    },
    {
      "midi": 76,
      "hit": false,
      "t": 169800,
      "d": 171.875,
      "v": 97
    },
    {
      "midi": 79,
      "hit": false,
      "t": 169800,
      "d": 187.5,
      "v": 97
    },
    {
      "midi": 31,
      "hit": false,
      "t": 169800,
      "d": 375,
      "v": 97
    },
    {
      "midi": 72,
      "hit": false,
      "t": 170100,
      "d": 178.125,
      "v": 97
    },
    {
      "midi": 76,
      "hit": false,
      "t": 170100,
      "d": 178.125,
      "v": 97
    },
    {
      "midi": 79,
      "hit": false,
      "t": 170100,
      "d": 196.875,
      "v": 97
    },
    {
      "midi": 55,
      "hit": false,
      "t": 170100,
      "d": 421.875,
      "v": 97
    },
    {
      "midi": 64,
      "hit": false,
      "t": 170100,
      "d": 434.375,
      "v": 97
    },
    {
      "midi": 60,
      "hit": false,
      "t": 170100,
      "d": 443.75,
      "v": 97
    },
    {
      "midi": 72,
      "hit": false,
      "t": 170400,
      "d": 162.5,
      "v": 97
    },
    {
      "midi": 76,
      "hit": false,
      "t": 170400,
      "d": 181.25,
      "v": 97
    },
    {
      "midi": 79,
      "hit": false,
      "t": 170400,
      "d": 181.25,
      "v": 97
    },
    {
      "midi": 36,
      "hit": false,
      "t": 170400,
      "d": 350,
      "v": 97
    },
    {
      "midi": 72,
      "hit": false,
      "t": 170700,
      "d": 165.625,
      "v": 97
    },
    {
      "midi": 76,
      "hit": false,
      "t": 170700,
      "d": 184.375,
      "v": 97
    },
    {
      "midi": 79,
      "hit": false,
      "t": 170700,
      "d": 184.375,
      "v": 97
    },
    {
      "midi": 64,
      "hit": false,
      "t": 170700,
      "d": 475,
      "v": 97
    },
    {
      "midi": 60,
      "hit": false,
      "t": 170700,
      "d": 490.625,
      "v": 97
    },
    {
      "midi": 55,
      "hit": false,
      "t": 170700,
      "d": 500,
      "v": 97
    },
    {
      "midi": 72,
      "hit": false,
      "t": 171000,
      "d": 171.875,
      "v": 97
    },
    {
      "midi": 76,
      "hit": false,
      "t": 171000,
      "d": 181.25,
      "v": 97
    },
    {
      "midi": 79,
      "hit": false,
      "t": 171000,
      "d": 187.5,
      "v": 97
    },
    {
      "midi": 31,
      "hit": false,
      "t": 171000,
      "d": 356.25,
      "v": 97
    },
    {
      "midi": 72,
      "hit": false,
      "t": 171300,
      "d": 175,
      "v": 97
    },
    {
      "midi": 76,
      "hit": false,
      "t": 171300,
      "d": 181.25,
      "v": 97
    },
    {
      "midi": 79,
      "hit": false,
      "t": 171300,
      "d": 187.5,
      "v": 97
    },
    {
      "midi": 55,
      "hit": false,
      "t": 171300,
      "d": 412.5,
      "v": 97
    },
    {
      "midi": 60,
      "hit": false,
      "t": 171300,
      "d": 434.375,
      "v": 97
    },
    {
      "midi": 64,
      "hit": false,
      "t": 171300,
      "d": 434.375,
      "v": 97
    },
    {
      "midi": 72,
      "hit": false,
      "t": 171600,
      "d": 175,
      "v": 97
    },
    {
      "midi": 76,
      "hit": false,
      "t": 171600,
      "d": 187.5,
      "v": 97
    },
    {
      "midi": 79,
      "hit": false,
      "t": 171600,
      "d": 187.5,
      "v": 97
    },
    {
      "midi": 36,
      "hit": false,
      "t": 171600,
      "d": 350,
      "v": 97
    },
    {
      "midi": 72,
      "hit": false,
      "t": 171900,
      "d": 162.5,
      "v": 97
    },
    {
      "midi": 76,
      "hit": false,
      "t": 171900,
      "d": 175,
      "v": 97
    },
    {
      "midi": 79,
      "hit": false,
      "t": 171900,
      "d": 175,
      "v": 97
    },
    {
      "midi": 55,
      "hit": false,
      "t": 171900,
      "d": 481.25,
      "v": 97
    },
    {
      "midi": 60,
      "hit": false,
      "t": 171900,
      "d": 496.875,
      "v": 97
    },
    {
      "midi": 64,
      "hit": false,
      "t": 171900,
      "d": 496.875,
      "v": 97
    },
    {
      "midi": 72,
      "hit": false,
      "t": 172200,
      "d": 171.875,
      "v": 97
    },
    {
      "midi": 76,
      "hit": false,
      "t": 172200,
      "d": 175,
      "v": 97
    },
    {
      "midi": 79,
      "hit": false,
      "t": 172200,
      "d": 181.25,
      "v": 97
    },
    {
      "midi": 31,
      "hit": false,
      "t": 172200,
      "d": 381.25,
      "v": 97
    },
    {
      "midi": 72,
      "hit": false,
      "t": 172500,
      "d": 175,
      "v": 97
    },
    {
      "midi": 76,
      "hit": false,
      "t": 172500,
      "d": 178.125,
      "v": 97
    },
    {
      "midi": 79,
      "hit": false,
      "t": 172500,
      "d": 200,
      "v": 97
    },
    {
      "midi": 55,
      "hit": false,
      "t": 172500,
      "d": 362.5,
      "v": 97
    },
    {
      "midi": 64,
      "hit": false,
      "t": 172500,
      "d": 387.5,
      "v": 97
    },
    {
      "midi": 60,
      "hit": false,
      "t": 172500,
      "d": 400,
      "v": 97
    },
    {
      "midi": 72,
      "hit": false,
      "t": 172800,
      "d": 187.5,
      "v": 97
    },
    {
      "midi": 76,
      "hit": false,
      "t": 172800,
      "d": 187.5,
      "v": 97
    },
    {
      "midi": 79,
      "hit": false,
      "t": 172800,
      "d": 200,
      "v": 97
    },
    {
      "midi": 36,
      "hit": false,
      "t": 172800,
      "d": 328.125,
      "v": 97
    },
    {
      "midi": 72,
      "hit": false,
      "t": 173100,
      "d": 162.5,
      "v": 97
    },
    {
      "midi": 76,
      "hit": false,
      "t": 173100,
      "d": 168.75,
      "v": 97
    },
    {
      "midi": 79,
      "hit": false,
      "t": 173100,
      "d": 168.75,
      "v": 97
    },
    {
      "midi": 55,
      "hit": false,
      "t": 173100,
      "d": 406.25,
      "v": 97
    },
    {
      "midi": 60,
      "hit": false,
      "t": 173100,
      "d": 406.25,
      "v": 97
    },
    {
      "midi": 64,
      "hit": false,
      "t": 173100,
      "d": 415.625,
      "v": 97
    },
    {
      "midi": 72,
      "hit": false,
      "t": 173400,
      "d": 171.875,
      "v": 97
    },
    {
      "midi": 76,
      "hit": false,
      "t": 173400,
      "d": 175,
      "v": 97
    },
    {
      "midi": 79,
      "hit": false,
      "t": 173400,
      "d": 190.625,
      "v": 97
    },
    {
      "midi": 31,
      "hit": false,
      "t": 173400,
      "d": 381.25,
      "v": 97
    },
    {
      "midi": 72,
      "hit": false,
      "t": 173700,
      "d": 175,
      "v": 97
    },
    {
      "midi": 76,
      "hit": false,
      "t": 173700,
      "d": 175,
      "v": 97
    },
    {
      "midi": 79,
      "hit": false,
      "t": 173700,
      "d": 187.5,
      "v": 97
    },
    {
      "midi": 55,
      "hit": false,
      "t": 173700,
      "d": 356.25,
      "v": 97
    },
    {
      "midi": 60,
      "hit": false,
      "t": 173700,
      "d": 378.125,
      "v": 97
    },
    {
      "midi": 64,
      "hit": false,
      "t": 173700,
      "d": 387.5,
      "v": 97
    },
    {
      "midi": 72,
      "hit": false,
      "t": 174000,
      "d": 175,
      "v": 97
    },
    {
      "midi": 76,
      "hit": false,
      "t": 174000,
      "d": 175,
      "v": 97
    },
    {
      "midi": 79,
      "hit": false,
      "t": 174000,
      "d": 196.875,
      "v": 97
    },
    {
      "midi": 36,
      "hit": false,
      "t": 174000,
      "d": 340.625,
      "v": 97
    },
    {
      "midi": 72,
      "hit": false,
      "t": 174300,
      "d": 171.875,
      "v": 97
    },
    {
      "midi": 76,
      "hit": false,
      "t": 174300,
      "d": 171.875,
      "v": 97
    },
    {
      "midi": 79,
      "hit": false,
      "t": 174300,
      "d": 190.625,
      "v": 97
    },
    {
      "midi": 55,
      "hit": false,
      "t": 174300,
      "d": 362.5,
      "v": 97
    },
    {
      "midi": 60,
      "hit": false,
      "t": 174300,
      "d": 362.5,
      "v": 97
    },
    {
      "midi": 64,
      "hit": false,
      "t": 174300,
      "d": 378.125,
      "v": 97
    },
    {
      "midi": 72,
      "hit": false,
      "t": 174600,
      "d": 171.875,
      "v": 97
    },
    {
      "midi": 76,
      "hit": false,
      "t": 174600,
      "d": 178.125,
      "v": 97
    },
    {
      "midi": 79,
      "hit": false,
      "t": 174600,
      "d": 178.125,
      "v": 97
    },
    {
      "midi": 31,
      "hit": false,
      "t": 174600,
      "d": 321.875,
      "v": 97
    },
    {
      "midi": 72,
      "hit": false,
      "t": 174900,
      "d": 150,
      "v": 97
    },
    {
      "midi": 76,
      "hit": false,
      "t": 174900,
      "d": 159.375,
      "v": 97
    },
    {
      "midi": 79,
      "hit": false,
      "t": 174900,
      "d": 159.375,
      "v": 97
    },
    {
      "midi": 60,
      "hit": false,
      "t": 174900,
      "d": 256.25,
      "v": 97
    },
    {
      "midi": 55,
      "hit": false,
      "t": 174900,
      "d": 271.875,
      "v": 97
    },
    {
      "midi": 64,
      "hit": false,
      "t": 174900,
      "d": 281.25,
      "v": 97
    },
    {
      "midi": 72,
      "hit": false,
      "t": 175200,
      "d": 203.125,
      "v": 97
    },
    {
      "midi": 76,
      "hit": false,
      "t": 175200,
      "d": 203.125,
      "v": 97
    },
    {
      "midi": 79,
      "hit": false,
      "t": 175200,
      "d": 212.5,
      "v": 97
    },
    {
      "midi": 36,
      "hit": false,
      "t": 175200,
      "d": 381.25,
      "v": 97
    },
    {
      "midi": 72,
      "hit": false,
      "t": 175500,
      "d": 200,
      "v": 97
    },
    {
      "midi": 76,
      "hit": false,
      "t": 175500,
      "d": 215.625,
      "v": 97
    },
    {
      "midi": 79,
      "hit": false,
      "t": 175500,
      "d": 215.625,
      "v": 97
    },
    {
      "midi": 55,
      "hit": false,
      "t": 175500,
      "d": 425,
      "v": 97
    },
    {
      "midi": 64,
      "hit": false,
      "t": 175500,
      "d": 437.5,
      "v": 97
    },
    {
      "midi": 60,
      "hit": false,
      "t": 175500,
      "d": 456.25,
      "v": 97
    },
    {
      "midi": 72,
      "hit": false,
      "t": 175800,
      "d": 206.25,
      "v": 97
    },
    {
      "midi": 79,
      "hit": false,
      "t": 175800,
      "d": 206.25,
      "v": 97
    },
    {
      "midi": 76,
      "hit": false,
      "t": 175800,
      "d": 218.75,
      "v": 97
    },
    {
      "midi": 31,
      "hit": false,
      "t": 175800,
      "d": 378.125,
      "v": 97
    },
    {
      "midi": 72,
      "hit": false,
      "t": 176100,
      "d": 225,
      "v": 97
    },
    {
      "midi": 79,
      "hit": false,
      "t": 176100,
      "d": 225,
      "v": 97
    },
    {
      "midi": 76,
      "hit": false,
      "t": 176100,
      "d": 237.5,
      "v": 97
    },
    {
      "midi": 64,
      "hit": false,
      "t": 176100,
      "d": 462.5,
      "v": 97
    },
    {
      "midi": 55,
      "hit": false,
      "t": 176100,
      "d": 475,
      "v": 97
    },
    {
      "midi": 60,
      "hit": false,
      "t": 176100,
      "d": 481.25,
      "v": 97
    },
    {
      "midi": 72,
      "hit": false,
      "t": 176400,
      "d": 181.25,
      "v": 97
    },
    {
      "midi": 79,
      "hit": false,
      "t": 176400,
      "d": 190.625,
      "v": 97
    },
    {
      "midi": 76,
      "hit": false,
      "t": 176400,
      "d": 203.125,
      "v": 97
    },
    {
      "midi": 36,
      "hit": false,
      "t": 176400,
      "d": 428.125,
      "v": 97
    },
    {
      "midi": 72,
      "hit": false,
      "t": 176700,
      "d": 190.625,
      "v": 97
    },
    {
      "midi": 76,
      "hit": false,
      "t": 176700,
      "d": 209.375,
      "v": 97
    },
    {
      "midi": 79,
      "hit": false,
      "t": 176700,
      "d": 209.375,
      "v": 97
    },
    {
      "midi": 55,
      "hit": false,
      "t": 176700,
      "d": 440.625,
      "v": 97
    },
    {
      "midi": 64,
      "hit": false,
      "t": 176700,
      "d": 446.875,
      "v": 97
    },
    {
      "midi": 60,
      "hit": false,
      "t": 176700,
      "d": 468.75,
      "v": 97
    },
    {
      "midi": 72,
      "hit": false,
      "t": 177000,
      "d": 168.75,
      "v": 97
    },
    {
      "midi": 76,
      "hit": false,
      "t": 177000,
      "d": 184.375,
      "v": 97
    },
    {
      "midi": 79,
      "hit": false,
      "t": 177000,
      "d": 184.375,
      "v": 97
    },
    {
      "midi": 31,
      "hit": false,
      "t": 177000,
      "d": 365.625,
      "v": 97
    },
    {
      "midi": 72,
      "hit": false,
      "t": 177300,
      "d": 187.5,
      "v": 97
    },
    {
      "midi": 76,
      "hit": false,
      "t": 177300,
      "d": 196.875,
      "v": 97
    },
    {
      "midi": 79,
      "hit": false,
      "t": 177300,
      "d": 203.125,
      "v": 97
    },
    {
      "midi": 55,
      "hit": false,
      "t": 177300,
      "d": 418.75,
      "v": 97
    },
    {
      "midi": 64,
      "hit": false,
      "t": 177300,
      "d": 425,
      "v": 97
    },
    {
      "midi": 60,
      "hit": false,
      "t": 177300,
      "d": 437.5,
      "v": 97
    },
    {
      "midi": 72,
      "hit": false,
      "t": 177600,
      "d": 175,
      "v": 97
    },
    {
      "midi": 76,
      "hit": false,
      "t": 177600,
      "d": 175,
      "v": 97
    },
    {
      "midi": 79,
      "hit": false,
      "t": 177600,
      "d": 196.875,
      "v": 97
    },
    {
      "midi": 36,
      "hit": false,
      "t": 177600,
      "d": 321.875,
      "v": 97
    },
    {
      "midi": 72,
      "hit": false,
      "t": 177900,
      "d": 187.5,
      "v": 97
    },
    {
      "midi": 76,
      "hit": false,
      "t": 177900,
      "d": 187.5,
      "v": 97
    },
    {
      "midi": 79,
      "hit": false,
      "t": 177900,
      "d": 206.25,
      "v": 97
    },
    {
      "midi": 55,
      "hit": false,
      "t": 177900,
      "d": 462.5,
      "v": 97
    },
    {
      "midi": 60,
      "hit": false,
      "t": 177900,
      "d": 475,
      "v": 97
    },
    {
      "midi": 64,
      "hit": false,
      "t": 177900,
      "d": 475,
      "v": 97
    },
    {
      "midi": 72,
      "hit": false,
      "t": 178200,
      "d": 162.5,
      "v": 97
    },
    {
      "midi": 76,
      "hit": false,
      "t": 178200,
      "d": 181.25,
      "v": 97
    },
    {
      "midi": 79,
      "hit": false,
      "t": 178200,
      "d": 193.75,
      "v": 97
    },
    {
      "midi": 31,
      "hit": false,
      "t": 178200,
      "d": 350,
      "v": 97
    },
    {
      "midi": 72,
      "hit": false,
      "t": 178500,
      "d": 175,
      "v": 97
    },
    {
      "midi": 76,
      "hit": false,
      "t": 178500,
      "d": 187.5,
      "v": 97
    },
    {
      "midi": 79,
      "hit": false,
      "t": 178500,
      "d": 187.5,
      "v": 97
    },
    {
      "midi": 64,
      "hit": false,
      "t": 178500,
      "d": 403.125,
      "v": 97
    },
    {
      "midi": 55,
      "hit": false,
      "t": 178500,
      "d": 418.75,
      "v": 97
    },
    {
      "midi": 60,
      "hit": false,
      "t": 178500,
      "d": 434.375,
      "v": 97
    },
    {
      "midi": 72,
      "hit": false,
      "t": 178800,
      "d": 162.5,
      "v": 97
    },
    {
      "midi": 76,
      "hit": false,
      "t": 178800,
      "d": 168.75,
      "v": 97
    },
    {
      "midi": 79,
      "hit": false,
      "t": 178800,
      "d": 178.125,
      "v": 97
    },
    {
      "midi": 36,
      "hit": false,
      "t": 178800,
      "d": 359.375,
      "v": 97
    },
    {
      "midi": 72,
      "hit": false,
      "t": 179100,
      "d": 175,
      "v": 97
    },
    {
      "midi": 76,
      "hit": false,
      "t": 179100,
      "d": 187.5,
      "v": 97
    },
    {
      "midi": 79,
      "hit": false,
      "t": 179100,
      "d": 196.875,
      "v": 97
    },
    {
      "midi": 55,
      "hit": false,
      "t": 179100,
      "d": 456.25,
      "v": 97
    },
    {
      "midi": 64,
      "hit": false,
      "t": 179100,
      "d": 456.25,
      "v": 97
    },
    {
      "midi": 60,
      "hit": false,
      "t": 179100,
      "d": 471.875,
      "v": 97
    },
    {
      "midi": 72,
      "hit": false,
      "t": 179400,
      "d": 162.5,
      "v": 97
    },
    {
      "midi": 76,
      "hit": false,
      "t": 179400,
      "d": 171.875,
      "v": 97
    },
    {
      "midi": 79,
      "hit": false,
      "t": 179400,
      "d": 187.5,
      "v": 97
    },
    {
      "midi": 31,
      "hit": false,
      "t": 179400,
      "d": 375,
      "v": 97
    },
    {
      "midi": 72,
      "hit": false,
      "t": 179700,
      "d": 178.125,
      "v": 97
    },
    {
      "midi": 76,
      "hit": false,
      "t": 179700,
      "d": 178.125,
      "v": 97
    },
    {
      "midi": 79,
      "hit": false,
      "t": 179700,
      "d": 196.875,
      "v": 97
    },
    {
      "midi": 55,
      "hit": false,
      "t": 179700,
      "d": 421.875,
      "v": 97
    },
    {
      "midi": 64,
      "hit": false,
      "t": 179700,
      "d": 434.375,
      "v": 97
    },
    {
      "midi": 60,
      "hit": false,
      "t": 179700,
      "d": 443.75,
      "v": 97
    },
    {
      "midi": 72,
      "hit": false,
      "t": 180000,
      "d": 162.5,
      "v": 97
    },
    {
      "midi": 76,
      "hit": false,
      "t": 180000,
      "d": 181.25,
      "v": 97
    },
    {
      "midi": 79,
      "hit": false,
      "t": 180000,
      "d": 181.25,
      "v": 97
    },
    {
      "midi": 36,
      "hit": false,
      "t": 180000,
      "d": 350,
      "v": 97
    },
    {
      "midi": 72,
      "hit": false,
      "t": 180300,
      "d": 165.625,
      "v": 97
    },
    {
      "midi": 76,
      "hit": false,
      "t": 180300,
      "d": 184.375,
      "v": 97
    },
    {
      "midi": 79,
      "hit": false,
      "t": 180300,
      "d": 184.375,
      "v": 97
    },
    {
      "midi": 64,
      "hit": false,
      "t": 180300,
      "d": 475,
      "v": 97
    },
    {
      "midi": 60,
      "hit": false,
      "t": 180300,
      "d": 490.625,
      "v": 97
    },
    {
      "midi": 55,
      "hit": false,
      "t": 180300,
      "d": 500,
      "v": 97
    },
    {
      "midi": 72,
      "hit": false,
      "t": 180600,
      "d": 171.875,
      "v": 97
    },
    {
      "midi": 76,
      "hit": false,
      "t": 180600,
      "d": 181.25,
      "v": 97
    },
    {
      "midi": 79,
      "hit": false,
      "t": 180600,
      "d": 187.5,
      "v": 97
    },
    {
      "midi": 31,
      "hit": false,
      "t": 180600,
      "d": 356.25,
      "v": 97
    },
    {
      "midi": 72,
      "hit": false,
      "t": 180900,
      "d": 175,
      "v": 97
    },
    {
      "midi": 76,
      "hit": false,
      "t": 180900,
      "d": 181.25,
      "v": 97
    },
    {
      "midi": 79,
      "hit": false,
      "t": 180900,
      "d": 187.5,
      "v": 97
    },
    {
      "midi": 55,
      "hit": false,
      "t": 180900,
      "d": 412.5,
      "v": 97
    },
    {
      "midi": 60,
      "hit": false,
      "t": 180900,
      "d": 434.375,
      "v": 97
    },
    {
      "midi": 64,
      "hit": false,
      "t": 180900,
      "d": 434.375,
      "v": 97
    },
    {
      "midi": 72,
      "hit": false,
      "t": 181200,
      "d": 175,
      "v": 97
    },
    {
      "midi": 76,
      "hit": false,
      "t": 181200,
      "d": 187.5,
      "v": 97
    },
    {
      "midi": 79,
      "hit": false,
      "t": 181200,
      "d": 187.5,
      "v": 97
    },
    {
      "midi": 36,
      "hit": false,
      "t": 181200,
      "d": 350,
      "v": 97
    },
    {
      "midi": 72,
      "hit": false,
      "t": 181500,
      "d": 162.5,
      "v": 97
    },
    {
      "midi": 76,
      "hit": false,
      "t": 181500,
      "d": 175,
      "v": 97
    },
    {
      "midi": 79,
      "hit": false,
      "t": 181500,
      "d": 175,
      "v": 97
    },
    {
      "midi": 55,
      "hit": false,
      "t": 181500,
      "d": 481.25,
      "v": 97
    },
    {
      "midi": 60,
      "hit": false,
      "t": 181500,
      "d": 496.875,
      "v": 97
    },
    {
      "midi": 64,
      "hit": false,
      "t": 181500,
      "d": 496.875,
      "v": 97
    },
    {
      "midi": 72,
      "hit": false,
      "t": 181800,
      "d": 171.875,
      "v": 97
    },
    {
      "midi": 76,
      "hit": false,
      "t": 181800,
      "d": 175,
      "v": 97
    },
    {
      "midi": 79,
      "hit": false,
      "t": 181800,
      "d": 181.25,
      "v": 97
    },
    {
      "midi": 31,
      "hit": false,
      "t": 181800,
      "d": 381.25,
      "v": 97
    },
    {
      "midi": 72,
      "hit": false,
      "t": 182100,
      "d": 175,
      "v": 97
    },
    {
      "midi": 76,
      "hit": false,
      "t": 182100,
      "d": 178.125,
      "v": 97
    },
    {
      "midi": 79,
      "hit": false,
      "t": 182100,
      "d": 200,
      "v": 97
    },
    {
      "midi": 55,
      "hit": false,
      "t": 182100,
      "d": 362.5,
      "v": 97
    },
    {
      "midi": 64,
      "hit": false,
      "t": 182100,
      "d": 387.5,
      "v": 97
    },
    {
      "midi": 60,
      "hit": false,
      "t": 182100,
      "d": 400,
      "v": 97
    },
    {
      "midi": 72,
      "hit": false,
      "t": 182400,
      "d": 187.5,
      "v": 97
    },
    {
      "midi": 76,
      "hit": false,
      "t": 182400,
      "d": 187.5,
      "v": 97
    },
    {
      "midi": 79,
      "hit": false,
      "t": 182400,
      "d": 200,
      "v": 97
    },
    {
      "midi": 36,
      "hit": false,
      "t": 182400,
      "d": 328.125,
      "v": 97
    },
    {
      "midi": 72,
      "hit": false,
      "t": 182700,
      "d": 162.5,
      "v": 97
    },
    {
      "midi": 76,
      "hit": false,
      "t": 182700,
      "d": 168.75,
      "v": 97
    },
    {
      "midi": 79,
      "hit": false,
      "t": 182700,
      "d": 168.75,
      "v": 97
    },
    {
      "midi": 55,
      "hit": false,
      "t": 182700,
      "d": 406.25,
      "v": 97
    },
    {
      "midi": 60,
      "hit": false,
      "t": 182700,
      "d": 406.25,
      "v": 97
    },
    {
      "midi": 64,
      "hit": false,
      "t": 182700,
      "d": 415.625,
      "v": 97
    },
    {
      "midi": 72,
      "hit": false,
      "t": 183000,
      "d": 171.875,
      "v": 97
    },
    {
      "midi": 76,
      "hit": false,
      "t": 183000,
      "d": 175,
      "v": 97
    },
    {
      "midi": 79,
      "hit": false,
      "t": 183000,
      "d": 190.625,
      "v": 97
    },
    {
      "midi": 31,
      "hit": false,
      "t": 183000,
      "d": 381.25,
      "v": 97
    },
    {
      "midi": 72,
      "hit": false,
      "t": 183300,
      "d": 175,
      "v": 97
    },
    {
      "midi": 76,
      "hit": false,
      "t": 183300,
      "d": 175,
      "v": 97
    },
    {
      "midi": 79,
      "hit": false,
      "t": 183300,
      "d": 187.5,
      "v": 97
    },
    {
      "midi": 55,
      "hit": false,
      "t": 183300,
      "d": 356.25,
      "v": 97
    },
    {
      "midi": 60,
      "hit": false,
      "t": 183300,
      "d": 378.125,
      "v": 97
    },
    {
      "midi": 64,
      "hit": false,
      "t": 183300,
      "d": 387.5,
      "v": 97
    },
    {
      "midi": 72,
      "hit": false,
      "t": 183600,
      "d": 175,
      "v": 97
    },
    {
      "midi": 76,
      "hit": false,
      "t": 183600,
      "d": 175,
      "v": 97
    },
    {
      "midi": 79,
      "hit": false,
      "t": 183600,
      "d": 196.875,
      "v": 97
    },
    {
      "midi": 36,
      "hit": false,
      "t": 183600,
      "d": 340.625,
      "v": 97
    },
    {
      "midi": 72,
      "hit": false,
      "t": 183900,
      "d": 171.875,
      "v": 97
    },
    {
      "midi": 76,
      "hit": false,
      "t": 183900,
      "d": 171.875,
      "v": 97
    },
    {
      "midi": 79,
      "hit": false,
      "t": 183900,
      "d": 190.625,
      "v": 97
    },
    {
      "midi": 55,
      "hit": false,
      "t": 183900,
      "d": 362.5,
      "v": 97
    },
    {
      "midi": 60,
      "hit": false,
      "t": 183900,
      "d": 362.5,
      "v": 97
    },
    {
      "midi": 64,
      "hit": false,
      "t": 183900,
      "d": 378.125,
      "v": 97
    },
    {
      "midi": 72,
      "hit": false,
      "t": 184200,
      "d": 171.875,
      "v": 97
    },
    {
      "midi": 76,
      "hit": false,
      "t": 184200,
      "d": 178.125,
      "v": 97
    },
    {
      "midi": 79,
      "hit": false,
      "t": 184200,
      "d": 178.125,
      "v": 97
    },
    {
      "midi": 31,
      "hit": false,
      "t": 184200,
      "d": 321.875,
      "v": 97
    },
    {
      "midi": 72,
      "hit": false,
      "t": 184500,
      "d": 150,
      "v": 97
    },
    {
      "midi": 76,
      "hit": false,
      "t": 184500,
      "d": 159.375,
      "v": 97
    },
    {
      "midi": 79,
      "hit": false,
      "t": 184500,
      "d": 159.375,
      "v": 97
    },
    {
      "midi": 60,
      "hit": false,
      "t": 184500,
      "d": 256.25,
      "v": 97
    },
    {
      "midi": 55,
      "hit": false,
      "t": 184500,
      "d": 271.875,
      "v": 97
    },
    {
      "midi": 64,
      "hit": false,
      "t": 184500,
      "d": 281.25,
      "v": 97
    },
    {
      "midi": 72,
      "hit": false,
      "t": 184800,
      "d": 203.125,
      "v": 97
    },
    {
      "midi": 76,
      "hit": false,
      "t": 184800,
      "d": 203.125,
      "v": 97
    },
    {
      "midi": 79,
      "hit": false,
      "t": 184800,
      "d": 212.5,
      "v": 97
    },
    {
      "midi": 36,
      "hit": false,
      "t": 184800,
      "d": 381.25,
      "v": 97
    },
    {
      "midi": 72,
      "hit": false,
      "t": 185100,
      "d": 200,
      "v": 97
    },
    {
      "midi": 76,
      "hit": false,
      "t": 185100,
      "d": 215.625,
      "v": 97
    },
    {
      "midi": 79,
      "hit": false,
      "t": 185100,
      "d": 215.625,
      "v": 97
    },
    {
      "midi": 55,
      "hit": false,
      "t": 185100,
      "d": 425,
      "v": 97
    },
    {
      "midi": 64,
      "hit": false,
      "t": 185100,
      "d": 437.5,
      "v": 97
    },
    {
      "midi": 60,
      "hit": false,
      "t": 185100,
      "d": 456.25,
      "v": 97
    },
    {
      "midi": 72,
      "hit": false,
      "t": 185400,
      "d": 206.25,
      "v": 97
    },
    {
      "midi": 79,
      "hit": false,
      "t": 185400,
      "d": 206.25,
      "v": 97
    },
    {
      "midi": 76,
      "hit": false,
      "t": 185400,
      "d": 218.75,
      "v": 97
    },
    {
      "midi": 31,
      "hit": false,
      "t": 185400,
      "d": 378.125,
      "v": 97
    },
    {
      "midi": 72,
      "hit": false,
      "t": 185700,
      "d": 225,
      "v": 97
    },
    {
      "midi": 79,
      "hit": false,
      "t": 185700,
      "d": 225,
      "v": 97
    },
    {
      "midi": 76,
      "hit": false,
      "t": 185700,
      "d": 237.5,
      "v": 97
    },
    {
      "midi": 64,
      "hit": false,
      "t": 185700,
      "d": 462.5,
      "v": 97
    },
    {
      "midi": 55,
      "hit": false,
      "t": 185700,
      "d": 475,
      "v": 97
    },
    {
      "midi": 60,
      "hit": false,
      "t": 185700,
      "d": 481.25,
      "v": 97
    },
    {
      "midi": 72,
      "hit": false,
      "t": 186000,
      "d": 181.25,
      "v": 97
    },
    {
      "midi": 79,
      "hit": false,
      "t": 186000,
      "d": 190.625,
      "v": 97
    },
    {
      "midi": 76,
      "hit": false,
      "t": 186000,
      "d": 203.125,
      "v": 97
    },
    {
      "midi": 36,
      "hit": false,
      "t": 186000,
      "d": 428.125,
      "v": 97
    },
    {
      "midi": 72,
      "hit": false,
      "t": 186300,
      "d": 190.625,
      "v": 97
    },
    {
      "midi": 76,
      "hit": false,
      "t": 186300,
      "d": 209.375,
      "v": 97
    },
    {
      "midi": 79,
      "hit": false,
      "t": 186300,
      "d": 209.375,
      "v": 97
    },
    {
      "midi": 55,
      "hit": false,
      "t": 186300,
      "d": 440.625,
      "v": 97
    },
    {
      "midi": 64,
      "hit": false,
      "t": 186300,
      "d": 446.875,
      "v": 97
    },
    {
      "midi": 60,
      "hit": false,
      "t": 186300,
      "d": 468.75,
      "v": 97
    },
    {
      "midi": 72,
      "hit": false,
      "t": 186600,
      "d": 168.75,
      "v": 97
    },
    {
      "midi": 76,
      "hit": false,
      "t": 186600,
      "d": 184.375,
      "v": 97
    },
    {
      "midi": 79,
      "hit": false,
      "t": 186600,
      "d": 184.375,
      "v": 97
    },
    {
      "midi": 31,
      "hit": false,
      "t": 186600,
      "d": 365.625,
      "v": 97
    },
    {
      "midi": 72,
      "hit": false,
      "t": 186900,
      "d": 187.5,
      "v": 97
    },
    {
      "midi": 76,
      "hit": false,
      "t": 186900,
      "d": 196.875,
      "v": 97
    },
    {
      "midi": 79,
      "hit": false,
      "t": 186900,
      "d": 203.125,
      "v": 97
    },
    {
      "midi": 55,
      "hit": false,
      "t": 186900,
      "d": 418.75,
      "v": 97
    },
    {
      "midi": 64,
      "hit": false,
      "t": 186900,
      "d": 425,
      "v": 97
    },
    {
      "midi": 60,
      "hit": false,
      "t": 186900,
      "d": 437.5,
      "v": 97
    },
    {
      "midi": 72,
      "hit": false,
      "t": 187200,
      "d": 175,
      "v": 97
    },
    {
      "midi": 76,
      "hit": false,
      "t": 187200,
      "d": 175,
      "v": 97
    },
    {
      "midi": 79,
      "hit": false,
      "t": 187200,
      "d": 196.875,
      "v": 97
    },
    {
      "midi": 36,
      "hit": false,
      "t": 187200,
      "d": 321.875,
      "v": 97
    },
    {
      "midi": 72,
      "hit": false,
      "t": 187500,
      "d": 187.5,
      "v": 97
    },
    {
      "midi": 76,
      "hit": false,
      "t": 187500,
      "d": 187.5,
      "v": 97
    },
    {
      "midi": 79,
      "hit": false,
      "t": 187500,
      "d": 206.25,
      "v": 97
    },
    {
      "midi": 55,
      "hit": false,
      "t": 187500,
      "d": 462.5,
      "v": 97
    },
    {
      "midi": 60,
      "hit": false,
      "t": 187500,
      "d": 475,
      "v": 97
    },
    {
      "midi": 64,
      "hit": false,
      "t": 187500,
      "d": 475,
      "v": 97
    },
    {
      "midi": 72,
      "hit": false,
      "t": 187800,
      "d": 162.5,
      "v": 97
    },
    {
      "midi": 76,
      "hit": false,
      "t": 187800,
      "d": 181.25,
      "v": 97
    },
    {
      "midi": 79,
      "hit": false,
      "t": 187800,
      "d": 193.75,
      "v": 97
    },
    {
      "midi": 31,
      "hit": false,
      "t": 187800,
      "d": 350,
      "v": 97
    },
    {
      "midi": 72,
      "hit": false,
      "t": 188100,
      "d": 175,
      "v": 97
    },
    {
      "midi": 76,
      "hit": false,
      "t": 188100,
      "d": 187.5,
      "v": 97
    },
    {
      "midi": 79,
      "hit": false,
      "t": 188100,
      "d": 187.5,
      "v": 97
    },
    {
      "midi": 64,
      "hit": false,
      "t": 188100,
      "d": 403.125,
      "v": 97
    },
    {
      "midi": 55,
      "hit": false,
      "t": 188100,
      "d": 418.75,
      "v": 97
    },
    {
      "midi": 60,
      "hit": false,
      "t": 188100,
      "d": 434.375,
      "v": 97
    },
    {
      "midi": 72,
      "hit": false,
      "t": 188400,
      "d": 162.5,
      "v": 97
    },
    {
      "midi": 76,
      "hit": false,
      "t": 188400,
      "d": 168.75,
      "v": 97
    },
    {
      "midi": 79,
      "hit": false,
      "t": 188400,
      "d": 178.125,
      "v": 97
    },
    {
      "midi": 36,
      "hit": false,
      "t": 188400,
      "d": 359.375,
      "v": 97
    },
    {
      "midi": 72,
      "hit": false,
      "t": 188700,
      "d": 175,
      "v": 97
    },
    {
      "midi": 76,
      "hit": false,
      "t": 188700,
      "d": 187.5,
      "v": 97
    },
    {
      "midi": 79,
      "hit": false,
      "t": 188700,
      "d": 196.875,
      "v": 97
    },
    {
      "midi": 55,
      "hit": false,
      "t": 188700,
      "d": 456.25,
      "v": 97
    },
    {
      "midi": 64,
      "hit": false,
      "t": 188700,
      "d": 456.25,
      "v": 97
    },
    {
      "midi": 60,
      "hit": false,
      "t": 188700,
      "d": 471.875,
      "v": 97
    },
    {
      "midi": 72,
      "hit": false,
      "t": 189000,
      "d": 162.5,
      "v": 97
    },
    {
      "midi": 76,
      "hit": false,
      "t": 189000,
      "d": 171.875,
      "v": 97
    },
    {
      "midi": 79,
      "hit": false,
      "t": 189000,
      "d": 187.5,
      "v": 97
    },
    {
      "midi": 31,
      "hit": false,
      "t": 189000,
      "d": 375,
      "v": 97
    },
    {
      "midi": 72,
      "hit": false,
      "t": 189300,
      "d": 178.125,
      "v": 97
    },
    {
      "midi": 76,
      "hit": false,
      "t": 189300,
      "d": 178.125,
      "v": 97
    },
    {
      "midi": 79,
      "hit": false,
      "t": 189300,
      "d": 196.875,
      "v": 97
    },
    {
      "midi": 55,
      "hit": false,
      "t": 189300,
      "d": 421.875,
      "v": 97
    },
    {
      "midi": 64,
      "hit": false,
      "t": 189300,
      "d": 434.375,
      "v": 97
    },
    {
      "midi": 60,
      "hit": false,
      "t": 189300,
      "d": 443.75,
      "v": 97
    },
    {
      "midi": 72,
      "hit": false,
      "t": 189600,
      "d": 162.5,
      "v": 97
    },
    {
      "midi": 76,
      "hit": false,
      "t": 189600,
      "d": 181.25,
      "v": 97
    },
    {
      "midi": 79,
      "hit": false,
      "t": 189600,
      "d": 181.25,
      "v": 97
    },
    {
      "midi": 36,
      "hit": false,
      "t": 189600,
      "d": 350,
      "v": 97
    },
    {
      "midi": 72,
      "hit": false,
      "t": 189900,
      "d": 165.625,
      "v": 97
    },
    {
      "midi": 76,
      "hit": false,
      "t": 189900,
      "d": 184.375,
      "v": 97
    },
    {
      "midi": 79,
      "hit": false,
      "t": 189900,
      "d": 184.375,
      "v": 97
    },
    {
      "midi": 64,
      "hit": false,
      "t": 189900,
      "d": 475,
      "v": 97
    },
    {
      "midi": 60,
      "hit": false,
      "t": 189900,
      "d": 490.625,
      "v": 97
    },
    {
      "midi": 55,
      "hit": false,
      "t": 189900,
      "d": 500,
      "v": 97
    },
    {
      "midi": 72,
      "hit": false,
      "t": 190200,
      "d": 171.875,
      "v": 97
    },
    {
      "midi": 76,
      "hit": false,
      "t": 190200,
      "d": 181.25,
      "v": 97
    },
    {
      "midi": 79,
      "hit": false,
      "t": 190200,
      "d": 187.5,
      "v": 97
    },
    {
      "midi": 31,
      "hit": false,
      "t": 190200,
      "d": 356.25,
      "v": 97
    },
    {
      "midi": 72,
      "hit": false,
      "t": 190500,
      "d": 175,
      "v": 97
    },
    {
      "midi": 76,
      "hit": false,
      "t": 190500,
      "d": 181.25,
      "v": 97
    },
    {
      "midi": 79,
      "hit": false,
      "t": 190500,
      "d": 187.5,
      "v": 97
    },
    {
      "midi": 55,
      "hit": false,
      "t": 190500,
      "d": 412.5,
      "v": 97
    },
    {
      "midi": 60,
      "hit": false,
      "t": 190500,
      "d": 434.375,
      "v": 97
    },
    {
      "midi": 64,
      "hit": false,
      "t": 190500,
      "d": 434.375,
      "v": 97
    },
    {
      "midi": 72,
      "hit": false,
      "t": 190800,
      "d": 175,
      "v": 97
    },
    {
      "midi": 76,
      "hit": false,
      "t": 190800,
      "d": 187.5,
      "v": 97
    },
    {
      "midi": 79,
      "hit": false,
      "t": 190800,
      "d": 187.5,
      "v": 97
    },
    {
      "midi": 36,
      "hit": false,
      "t": 190800,
      "d": 350,
      "v": 97
    },
    {
      "midi": 72,
      "hit": false,
      "t": 191100,
      "d": 162.5,
      "v": 97
    },
    {
      "midi": 76,
      "hit": false,
      "t": 191100,
      "d": 175,
      "v": 97
    },
    {
      "midi": 79,
      "hit": false,
      "t": 191100,
      "d": 175,
      "v": 97
    },
    {
      "midi": 55,
      "hit": false,
      "t": 191100,
      "d": 481.25,
      "v": 97
    },
    {
      "midi": 60,
      "hit": false,
      "t": 191100,
      "d": 496.875,
      "v": 97
    },
    {
      "midi": 64,
      "hit": false,
      "t": 191100,
      "d": 496.875,
      "v": 97
    },
    {
      "midi": 72,
      "hit": false,
      "t": 191400,
      "d": 171.875,
      "v": 97
    },
    {
      "midi": 76,
      "hit": false,
      "t": 191400,
      "d": 175,
      "v": 97
    },
    {
      "midi": 79,
      "hit": false,
      "t": 191400,
      "d": 181.25,
      "v": 97
    },
    {
      "midi": 31,
      "hit": false,
      "t": 191400,
      "d": 381.25,
      "v": 97
    },
    {
      "midi": 72,
      "hit": false,
      "t": 191700,
      "d": 175,
      "v": 97
    },
    {
      "midi": 76,
      "hit": false,
      "t": 191700,
      "d": 178.125,
      "v": 97
    },
    {
      "midi": 79,
      "hit": false,
      "t": 191700,
      "d": 200,
      "v": 97
    },
    {
      "midi": 55,
      "hit": false,
      "t": 191700,
      "d": 362.5,
      "v": 97
    },
    {
      "midi": 64,
      "hit": false,
      "t": 191700,
      "d": 387.5,
      "v": 97
    },
    {
      "midi": 60,
      "hit": false,
      "t": 191700,
      "d": 400,
      "v": 97
    },
    {
      "midi": 72,
      "hit": false,
      "t": 192000,
      "d": 187.5,
      "v": 97
    },
    {
      "midi": 76,
      "hit": false,
      "t": 192000,
      "d": 187.5,
      "v": 97
    },
    {
      "midi": 79,
      "hit": false,
      "t": 192000,
      "d": 200,
      "v": 97
    },
    {
      "midi": 36,
      "hit": false,
      "t": 192000,
      "d": 328.125,
      "v": 97
    },
    {
      "midi": 72,
      "hit": false,
      "t": 192300,
      "d": 162.5,
      "v": 97
    },
    {
      "midi": 76,
      "hit": false,
      "t": 192300,
      "d": 168.75,
      "v": 97
    },
    {
      "midi": 79,
      "hit": false,
      "t": 192300,
      "d": 168.75,
      "v": 97
    },
    {
      "midi": 55,
      "hit": false,
      "t": 192300,
      "d": 406.25,
      "v": 97
    },
    {
      "midi": 60,
      "hit": false,
      "t": 192300,
      "d": 406.25,
      "v": 97
    },
    {
      "midi": 64,
      "hit": false,
      "t": 192300,
      "d": 415.625,
      "v": 97
    },
    {
      "midi": 72,
      "hit": false,
      "t": 192600,
      "d": 171.875,
      "v": 97
    },
    {
      "midi": 76,
      "hit": false,
      "t": 192600,
      "d": 175,
      "v": 97
    },
    {
      "midi": 79,
      "hit": false,
      "t": 192600,
      "d": 190.625,
      "v": 97
    },
    {
      "midi": 31,
      "hit": false,
      "t": 192600,
      "d": 381.25,
      "v": 97
    },
    {
      "midi": 72,
      "hit": false,
      "t": 192900,
      "d": 175,
      "v": 97
    },
    {
      "midi": 76,
      "hit": false,
      "t": 192900,
      "d": 175,
      "v": 97
    },
    {
      "midi": 79,
      "hit": false,
      "t": 192900,
      "d": 187.5,
      "v": 97
    },
    {
      "midi": 55,
      "hit": false,
      "t": 192900,
      "d": 356.25,
      "v": 97
    },
    {
      "midi": 60,
      "hit": false,
      "t": 192900,
      "d": 378.125,
      "v": 97
    },
    {
      "midi": 64,
      "hit": false,
      "t": 192900,
      "d": 387.5,
      "v": 97
    },
    {
      "midi": 72,
      "hit": false,
      "t": 193200,
      "d": 175,
      "v": 97
    },
    {
      "midi": 76,
      "hit": false,
      "t": 193200,
      "d": 175,
      "v": 97
    },
    {
      "midi": 79,
      "hit": false,
      "t": 193200,
      "d": 196.875,
      "v": 97
    },
    {
      "midi": 36,
      "hit": false,
      "t": 193200,
      "d": 340.625,
      "v": 97
    },
    {
      "midi": 72,
      "hit": false,
      "t": 193500,
      "d": 171.875,
      "v": 97
    },
    {
      "midi": 76,
      "hit": false,
      "t": 193500,
      "d": 171.875,
      "v": 97
    },
    {
      "midi": 79,
      "hit": false,
      "t": 193500,
      "d": 190.625,
      "v": 97
    },
    {
      "midi": 55,
      "hit": false,
      "t": 193500,
      "d": 362.5,
      "v": 97
    },
    {
      "midi": 60,
      "hit": false,
      "t": 193500,
      "d": 362.5,
      "v": 97
    },
    {
      "midi": 64,
      "hit": false,
      "t": 193500,
      "d": 378.125,
      "v": 97
    },
    {
      "midi": 72,
      "hit": false,
      "t": 193800,
      "d": 171.875,
      "v": 97
    },
    {
      "midi": 76,
      "hit": false,
      "t": 193800,
      "d": 178.125,
      "v": 97
    },
    {
      "midi": 79,
      "hit": false,
      "t": 193800,
      "d": 178.125,
      "v": 97
    },
    {
      "midi": 31,
      "hit": false,
      "t": 193800,
      "d": 321.875,
      "v": 97
    },
    {
      "midi": 72,
      "hit": false,
      "t": 194100,
      "d": 150,
      "v": 97
    },
    {
      "midi": 76,
      "hit": false,
      "t": 194100,
      "d": 159.375,
      "v": 97
    },
    {
      "midi": 79,
      "hit": false,
      "t": 194100,
      "d": 159.375,
      "v": 97
    },
    {
      "midi": 60,
      "hit": false,
      "t": 194100,
      "d": 256.25,
      "v": 97
    },
    {
      "midi": 55,
      "hit": false,
      "t": 194100,
      "d": 271.875,
      "v": 97
    },
    {
      "midi": 64,
      "hit": false,
      "t": 194100,
      "d": 281.25,
      "v": 97
    },
    {
      "midi": 36,
      "hit": false,
      "t": 194400,
      "d": 3750,
      "v": 97
    },
    {
      "midi": 55,
      "hit": false,
      "t": 194400,
      "d": 3750,
      "v": 97
    },
    {
      "midi": 60,
      "hit": false,
      "t": 194400,
      "d": 3750,
      "v": 97
    },
    {
      "midi": 64,
      "hit": false,
      "t": 194400,
      "d": 3750,
      "v": 97
    }
  ]
}