{
  "jsonPath": "Classical/Classical/Luigi Boccherini/minuet.json",
  "path": "Classical\\Classical\\Luigi Boccherini\\Minuet.mid",
  "name": "Minuet",
  "difficulty": "Advanced",
  "bpm": 75,
  "notes": [
    {
      "midi": 81,
      "hit": false,
      "t": 1400,
      "d": 200,
      "v": 100
    },
    {
      "midi": 79,
      "hit": false,
      "t": 1600,
      "d": 200,
      "v": 100
    },
    {
      "midi": 78,
      "hit": false,
      "t": 1800,
      "d": 200,
      "v": 100
    },
    {
      "midi": 79,
      "hit": false,
      "t": 2000,
      "d": 200,
      "v": 100
    },
    {
      "midi": 81,
      "hit": false,
      "t": 2200,
      "d": 200,
      "v": 100
    },
    {
      "midi": 79,
      "hit": false,
      "t": 2400,
      "d": 400,
      "v": 100
    },
    {
      "midi": 55,
      "hit": false,
      "t": 2400,
      "d": 200,
      "v": 60
    },
    {
      "midi": 62,
      "hit": false,
      "t": 2600,
      "d": 200,
      "v": 60
    },
    {
      "midi": 67,
      "hit": false,
      "t": 2800,
      "d": 400,
      "v": 100
    },
    {
      "midi": 59,
      "hit": false,
      "t": 2800,
      "d": 200,
      "v": 60
    },
    {
      "midi": 62,
      "hit": false,
      "t": 3000,
      "d": 200,
      "v": 60
    },
    {
      "midi": 55,
      "hit": false,
      "t": 3200,
      "d": 200,
      "v": 60
    },
    {
      "midi": 62,
      "hit": false,
      "t": 3400,
      "d": 200,
      "v": 60
    },
    {
      "midi": 71,
      "hit": false,
      "t": 3600,
      "d": 800,
      "v": 100
    },
    {
      "midi": 59,
      "hit": false,
      "t": 3600,
      "d": 200,
      "v": 60
    },
    {
      "midi": 62,
      "hit": false,
      "t": 3800,
      "d": 200,
      "v": 60
    },
    {
      "midi": 55,
      "hit": false,
      "t": 4000,
      "d": 200,
      "v": 60
    },
    {
      "midi": 62,
      "hit": false,
      "t": 4200,
      "d": 200,
      "v": 60
    },
    {
      "midi": 74,
      "hit": false,
      "t": 4400,
      "d": 400,
      "v": 100
    },
    {
      "midi": 59,
      "hit": false,
      "t": 4400,
      "d": 200,
      "v": 60
    },
    {
      "midi": 62,
      "hit": false,
      "t": 4600,
      "d": 200,
      "v": 60
    },
    {
      "midi": 74,
      "hit": false,
      "t": 4800,
      "d": 400,
      "v": 100
    },
    {
      "midi": 54,
      "hit": false,
      "t": 4800,
      "d": 200,
      "v": 60
    },
    {
      "midi": 62,
      "hit": false,
      "t": 5000,
      "d": 200,
      "v": 60
    },
    {
      "midi": 72,
      "hit": false,
      "t": 5200,
      "d": 400,
      "v": 100
    },
    {
      "midi": 60,
      "hit": false,
      "t": 5200,
      "d": 200,
      "v": 60
    },
    {
      "midi": 62,
      "hit": false,
      "t": 5400,
      "d": 200,
      "v": 60
    },
    {
      "midi": 72,
      "hit": false,
      "t": 5600,
      "d": 600,
      "v": 100
    },
    {
      "midi": 54,
      "hit": false,
      "t": 5600,
      "d": 200,
      "v": 60
    },
    {
      "midi": 62,
      "hit": false,
      "t": 5800,
      "d": 200,
      "v": 60
    },
    {
      "midi": 60,
      "hit": false,
      "t": 6000,
      "d": 200,
      "v": 60
    },
    {
      "midi": 74,
      "hit": false,
      "t": 6200,
      "d": 200,
      "v": 100
    },
    {
      "midi": 72,
      "hit": false,
      "t": 6400,
      "d": 200,
      "v": 100
    },
    {
      "midi": 71,
      "hit": false,
      "t": 6600,
      "d": 200,
      "v": 100
    },
    {
      "midi": 72,
      "hit": false,
      "t": 6800,
      "d": 200,
      "v": 100
    },
    {
      "midi": 74,
      "hit": false,
      "t": 7000,
      "d": 200,
      "v": 100
    },
    {
      "midi": 72,
      "hit": false,
      "t": 7200,
      "d": 400,
      "v": 100
    },
    {
      "midi": 50,
      "hit": false,
      "t": 7200,
      "d": 200,
      "v": 60
    },
    {
      "midi": 57,
      "hit": false,
      "t": 7400,
      "d": 200,
      "v": 60
    },
    {
      "midi": 62,
      "hit": false,
      "t": 7600,
      "d": 400,
      "v": 100
    },
    {
      "midi": 54,
      "hit": false,
      "t": 7600,
      "d": 200,
      "v": 60
    },
    {
      "midi": 57,
      "hit": false,
      "t": 7800,
      "d": 200,
      "v": 60
    },
    {
      "midi": 50,
      "hit": false,
      "t": 8000,
      "d": 200,
      "v": 60
    },
    {
      "midi": 57,
      "hit": false,
      "t": 8200,
      "d": 200,
      "v": 60
    },
    {
      "midi": 69,
      "hit": false,
      "t": 8400,
      "d": 800,
      "v": 100
    },
    {
      "midi": 54,
      "hit": false,
      "t": 8400,
      "d": 200,
      "v": 60
    },
    {
      "midi": 57,
      "hit": false,
      "t": 8600,
      "d": 200,
      "v": 60
    },
    {
      "midi": 50,
      "hit": false,
      "t": 8800,
      "d": 200,
      "v": 60
    },
    {
      "midi": 57,
      "hit": false,
      "t": 9000,
      "d": 200,
      "v": 60
    },
    {
      "midi": 72,
      "hit": false,
      "t": 9200,
      "d": 400,
      "v": 100
    },
    {
      "midi": 54,
      "hit": false,
      "t": 9200,
      "d": 200,
      "v": 60
    },
    {
      "midi": 57,
      "hit": false,
      "t": 9400,
      "d": 200,
      "v": 60
    },
    {
      "midi": 72,
      "hit": false,
      "t": 9600,
      "d": 400,
      "v": 100
    },
    {
      "midi": 55,
      "hit": false,
      "t": 9600,
      "d": 200,
      "v": 60
    },
    {
      "midi": 62,
      "hit": false,
      "t": 9800,
      "d": 200,
      "v": 60
    },
    {
      "midi": 71,
      "hit": false,
      "t": 10000,
      "d": 400,
      "v": 100
    },
    {
      "midi": 59,
      "hit": false,
      "t": 10000,
      "d": 200,
      "v": 60
    },
    {
      "midi": 62,
      "hit": false,
      "t": 10200,
      "d": 200,
      "v": 60
    },
    {
      "midi": 71,
      "hit": false,
      "t": 10400,
      "d": 800,
      "v": 100
    },
    {
      "midi": 55,
      "hit": false,
      "t": 10400,
      "d": 200,
      "v": 60
    },
    {
      "midi": 62,
      "hit": false,
      "t": 10600,
      "d": 200,
      "v": 60
    },
    {
      "midi": 59,
      "hit": false,
      "t": 10800,
      "d": 200,
      "v": 60
    },
    {
      "midi": 62,
      "hit": false,
      "t": 11000,
      "d": 200,
      "v": 60
    },
    {
      "midi": 79,
      "hit": false,
      "t": 11200,
      "d": 600,
      "v": 100
    },
    {
      "midi": 76,
      "hit": false,
      "t": 11800,
      "d": 200,
      "v": 100
    },
    {
      "midi": 74,
      "hit": false,
      "t": 12000,
      "d": 400,
      "v": 100
    },
    {
      "midi": 57,
      "hit": false,
      "t": 12000,
      "d": 200,
      "v": 60
    },
    {
      "midi": 64,
      "hit": false,
      "t": 12200,
      "d": 200,
      "v": 60
    },
    {
      "midi": 73,
      "hit": false,
      "t": 12400,
      "d": 400,
      "v": 100
    },
    {
      "midi": 61,
      "hit": false,
      "t": 12400,
      "d": 200,
      "v": 60
    },
    {
      "midi": 64,
      "hit": false,
      "t": 12600,
      "d": 200,
      "v": 60
    },
    {
      "midi": 73,
      "hit": false,
      "t": 12800,
      "d": 400,
      "v": 100
    },
    {
      "midi": 57,
      "hit": false,
      "t": 12800,
      "d": 200,
      "v": 60
    },
    {
      "midi": 64,
      "hit": false,
      "t": 13000,
      "d": 200,
      "v": 60
    },
    {
      "midi": 73,
      "hit": false,
      "t": 13200,
      "d": 400,
      "v": 100
    },
    {
      "midi": 61,
      "hit": false,
      "t": 13200,
      "d": 200,
      "v": 60
    },
    {
      "midi": 64,
      "hit": false,
      "t": 13400,
      "d": 200,
      "v": 60
    },
    {
      "midi": 79,
      "hit": false,
      "t": 13600,
      "d": 600,
      "v": 100
    },
    {
      "midi": 76,
      "hit": false,
      "t": 14200,
      "d": 200,
      "v": 100
    },
    {
      "midi": 74,
      "hit": false,
      "t": 14400,
      "d": 400,
      "v": 100
    },
    {
      "midi": 57,
      "hit": false,
      "t": 14400,
      "d": 200,
      "v": 60
    },
    {
      "midi": 64,
      "hit": false,
      "t": 14600,
      "d": 200,
      "v": 60
    },
    {
      "midi": 73,
      "hit": false,
      "t": 14800,
      "d": 400,
      "v": 100
    },
    {
      "midi": 61,
      "hit": false,
      "t": 14800,
      "d": 200,
      "v": 60
    },
    {
      "midi": 64,
      "hit": false,
      "t": 15000,
      "d": 200,
      "v": 60
    },
    {
      "midi": 73,
      "hit": false,
      "t": 15200,
      "d": 400,
      "v": 100
    },
    {
      "midi": 57,
      "hit": false,
      "t": 15200,
      "d": 200,
      "v": 60
    },
    {
      "midi": 64,
      "hit": false,
      "t": 15400,
      "d": 200,
      "v": 60
    },
    {
      "midi": 73,
      "hit": false,
      "t": 15600,
      "d": 400,
      "v": 100
    },
    {
      "midi": 61,
      "hit": false,
      "t": 15600,
      "d": 200,
      "v": 60
    },
    {
      "midi": 64,
      "hit": false,
      "t": 15800,
      "d": 200,
      "v": 60
    },
    {
      "midi": 79,
      "hit": false,
      "t": 16000,
      "d": 600,
      "v": 100
    },
    {
      "midi": 76,
      "hit": false,
      "t": 16600,
      "d": 200,
      "v": 100
    },
    {
      "midi": 78,
      "hit": false,
      "t": 16800,
      "d": 400,
      "v": 100
    },
    {
      "midi": 50,
      "hit": false,
      "t": 16800,
      "d": 800,
      "v": 60
    },
    {
      "midi": 57,
      "hit": false,
      "t": 16800,
      "d": 800,
      "v": 60
    },
    {
      "midi": 74,
      "hit": false,
      "t": 17200,
      "d": 400,
      "v": 100
    },
    {
      "midi": 71,
      "hit": false,
      "t": 17600,
      "d": 400,
      "v": 100
    },
    {
      "midi": 55,
      "hit": false,
      "t": 17600,
      "d": 800,
      "v": 60
    },
    {
      "midi": 62,
      "hit": false,
      "t": 17600,
      "d": 800,
      "v": 60
    },
    {
      "midi": 79,
      "hit": false,
      "t": 18000,
      "d": 400,
      "v": 100
    },
    {
      "midi": 78,
      "hit": false,
      "t": 18400,
      "d": 200,
      "v": 100
    },
    {
      "midi": 57,
      "hit": false,
      "t": 18400,
      "d": 800,
      "v": 60
    },
    {
      "midi": 64,
      "hit": false,
      "t": 18400,
      "d": 800,
      "v": 60
    },
    {
      "midi": 76,
      "hit": false,
      "t": 18600,
      "d": 200,
      "v": 100
    },
    {
      "midi": 74,
      "hit": false,
      "t": 18800,
      "d": 200,
      "v": 100
    },
    {
      "midi": 76,
      "hit": false,
      "t": 19000,
      "d": 200,
      "v": 100
    },
    {
      "midi": 74,
      "hit": false,
      "t": 19200,
      "d": 800,
      "v": 100
    },
    {
      "midi": 50,
      "hit": false,
      "t": 19200,
      "d": 800,
      "v": 60
    },
    {
      "midi": 54,
      "hit": false,
      "t": 19200,
      "d": 800,
      "v": 60
    },
    {
      "midi": 57,
      "hit": false,
      "t": 19200,
      "d": 800,
      "v": 60
    },
    {
      "midi": 81,
      "hit": false,
      "t": 20600,
      "d": 200,
      "v": 100
    },
    {
      "midi": 79,
      "hit": false,
      "t": 20800,
      "d": 200,
      "v": 100
    },
    {
      "midi": 78,
      "hit": false,
      "t": 21000,
      "d": 200,
      "v": 100
    },
    {
      "midi": 79,
      "hit": false,
      "t": 21200,
      "d": 200,
      "v": 100
    },
    {
      "midi": 81,
      "hit": false,
      "t": 21400,
      "d": 200,
      "v": 100
    },
    {
      "midi": 79,
      "hit": false,
      "t": 21600,
      "d": 400,
      "v": 100
    },
    {
      "midi": 55,
      "hit": false,
      "t": 21600,
      "d": 200,
      "v": 60
    },
    {
      "midi": 62,
      "hit": false,
      "t": 21800,
      "d": 200,
      "v": 60
    },
    {
      "midi": 67,
      "hit": false,
      "t": 22000,
      "d": 400,
      "v": 100
    },
    {
      "midi": 59,
      "hit": false,
      "t": 22000,
      "d": 200,
      "v": 60
    },
    {
      "midi": 62,
      "hit": false,
      "t": 22200,
      "d": 200,
      "v": 60
    },
    {
      "midi": 55,
      "hit": false,
      "t": 22400,
      "d": 200,
      "v": 60
    },
    {
      "midi": 62,
      "hit": false,
      "t": 22600,
      "d": 200,
      "v": 60
    },
    {
      "midi": 71,
      "hit": false,
      "t": 22800,
      "d": 800,
      "v": 100
    },
    {
      "midi": 59,
      "hit": false,
      "t": 22800,
      "d": 200,
      "v": 60
    },
    {
      "midi": 62,
      "hit": false,
      "t": 23000,
      "d": 200,
      "v": 60
    },
    {
      "midi": 55,
      "hit": false,
      "t": 23200,
      "d": 200,
      "v": 60
    },
    {
      "midi": 62,
      "hit": false,
      "t": 23400,
      "d": 200,
      "v": 60
    },
    {
      "midi": 74,
      "hit": false,
      "t": 23600,
      "d": 400,
      "v": 100
    },
    {
      "midi": 59,
      "hit": false,
      "t": 23600,
      "d": 200,
      "v": 60
    },
    {
      "midi": 62,
      "hit": false,
      "t": 23800,
      "d": 200,
      "v": 60
    },
    {
      "midi": 74,
      "hit": false,
      "t": 24000,
      "d": 400,
      "v": 100
    },
    {
      "midi": 54,
      "hit": false,
      "t": 24000,
      "d": 200,
      "v": 60
    },
    {
      "midi": 62,
      "hit": false,
      "t": 24200,
      "d": 200,
      "v": 60
    },
    {
      "midi": 72,
      "hit": false,
      "t": 24400,
      "d": 400,
      "v": 100
    },
    {
      "midi": 60,
      "hit": false,
      "t": 24400,
      "d": 200,
      "v": 60
    },
    {
      "midi": 62,
      "hit": false,
      "t": 24600,
      "d": 200,
      "v": 60
    },
    {
      "midi": 72,
      "hit": false,
      "t": 24800,
      "d": 600,
      "v": 100
    },
    {
      "midi": 54,
      "hit": false,
      "t": 24800,
      "d": 200,
      "v": 60
    },
    {
      "midi": 62,
      "hit": false,
      "t": 25000,
      "d": 200,
      "v": 60
    },
    {
      "midi": 60,
      "hit": false,
      "t": 25200,
      "d": 200,
      "v": 60
    },
    {
      "midi": 74,
      "hit": false,
      "t": 25400,
      "d": 200,
      "v": 100
    },
    {
      "midi": 72,
      "hit": false,
      "t": 25600,
      "d": 200,
      "v": 100
    },
    {
      "midi": 71,
      "hit": false,
      "t": 25800,
      "d": 200,
      "v": 100
    },
    {
      "midi": 72,
      "hit": false,
      "t": 26000,
      "d": 200,
      "v": 100
    },
    {
      "midi": 74,
      "hit": false,
      "t": 26200,
      "d": 200,
      "v": 100
    },
    {
      "midi": 72,
      "hit": false,
      "t": 26400,
      "d": 400,
      "v": 100
    },
    {
      "midi": 50,
      "hit": false,
      "t": 26400,
      "d": 200,
      "v": 60
    },
    {
      "midi": 57,
      "hit": false,
      "t": 26600,
      "d": 200,
      "v": 60
    },
    {
      "midi": 62,
      "hit": false,
      "t": 26800,
      "d": 400,
      "v": 100
    },
    {
      "midi": 54,
      "hit": false,
      "t": 26800,
      "d": 200,
      "v": 60
    },
    {
      "midi": 57,
      "hit": false,
      "t": 27000,
      "d": 200,
      "v": 60
    },
    {
      "midi": 50,
      "hit": false,
      "t": 27200,
      "d": 200,
      "v": 60
    },
    {
      "midi": 57,
      "hit": false,
      "t": 27400,
      "d": 200,
      "v": 60
    },
    {
      "midi": 69,
      "hit": false,
      "t": 27600,
      "d": 800,
      "v": 100
    },
    {
      "midi": 54,
      "hit": false,
      "t": 27600,
      "d": 200,
      "v": 60
    },
    {
      "midi": 57,
      "hit": false,
      "t": 27800,
      "d": 200,
      "v": 60
    },
    {
      "midi": 50,
      "hit": false,
      "t": 28000,
      "d": 200,
      "v": 60
    },
    {
      "midi": 57,
      "hit": false,
      "t": 28200,
      "d": 200,
      "v": 60
    },
    {
      "midi": 72,
      "hit": false,
      "t": 28400,
      "d": 400,
      "v": 100
    },
    {
      "midi": 54,
      "hit": false,
      "t": 28400,
      "d": 200,
      "v": 60
    },
    {
      "midi": 57,
      "hit": false,
      "t": 28600,
      "d": 200,
      "v": 60
    },
    {
      "midi": 72,
      "hit": false,
      "t": 28800,
      "d": 400,
      "v": 100
    },
    {
      "midi": 55,
      "hit": false,
      "t": 28800,
      "d": 200,
      "v": 60
    },
    {
      "midi": 62,
      "hit": false,
      "t": 29000,
      "d": 200,
      "v": 60
    },
    {
      "midi": 71,
      "hit": false,
      "t": 29200,
      "d": 400,
      "v": 100
    },
    {
      "midi": 59,
      "hit": false,
      "t": 29200,
      "d": 200,
      "v": 60
    },
    {
      "midi": 62,
      "hit": false,
      "t": 29400,
      "d": 200,
      "v": 60
    },
    {
      "midi": 71,
      "hit": false,
      "t": 29600,
      "d": 800,
      "v": 100
    },
    {
      "midi": 55,
      "hit": false,
      "t": 29600,
      "d": 200,
      "v": 60
    },
    {
      "midi": 62,
      "hit": false,
      "t": 29800,
      "d": 200,
      "v": 60
    },
    {
      "midi": 59,
      "hit": false,
      "t": 30000,
      "d": 200,
      "v": 60
    },
    {
      "midi": 62,
      "hit": false,
      "t": 30200,
      "d": 200,
      "v": 60
    },
    {
      "midi": 79,
      "hit": false,
      "t": 30400,
      "d": 600,
      "v": 100
    },
    {
      "midi": 76,
      "hit": false,
      "t": 31000,
      "d": 200,
      "v": 100
    },
    {
      "midi": 74,
      "hit": false,
      "t": 31200,
      "d": 400,
      "v": 100
    },
    {
      "midi": 57,
      "hit": false,
      "t": 31200,
      "d": 200,
      "v": 60
    },
    {
      "midi": 64,
      "hit": false,
      "t": 31400,
      "d": 200,
      "v": 60
    },
    {
      "midi": 73,
      "hit": false,
      "t": 31600,
      "d": 400,
      "v": 100
    },
    {
      "midi": 61,
      "hit": false,
      "t": 31600,
      "d": 200,
      "v": 60
    },
    {
      "midi": 64,
      "hit": false,
      "t": 31800,
      "d": 200,
      "v": 60
    },
    {
      "midi": 73,
      "hit": false,
      "t": 32000,
      "d": 400,
      "v": 100
    },
    {
      "midi": 57,
      "hit": false,
      "t": 32000,
      "d": 200,
      "v": 60
    },
    {
      "midi": 64,
      "hit": false,
      "t": 32200,
      "d": 200,
      "v": 60
    },
    {
      "midi": 73,
      "hit": false,
      "t": 32400,
      "d": 400,
      "v": 100
    },
    {
      "midi": 61,
      "hit": false,
      "t": 32400,
      "d": 200,
      "v": 60
    },
    {
      "midi": 64,
      "hit": false,
      "t": 32600,
      "d": 200,
      "v": 60
    },
    {
      "midi": 79,
      "hit": false,
      "t": 32800,
      "d": 600,
      "v": 100
    },
    {
      "midi": 76,
      "hit": false,
      "t": 33400,
      "d": 200,
      "v": 100
    },
    {
      "midi": 74,
      "hit": false,
      "t": 33600,
      "d": 400,
      "v": 100
    },
    {
      "midi": 57,
      "hit": false,
      "t": 33600,
      "d": 200,
      "v": 60
    },
    {
      "midi": 64,
      "hit": false,
      "t": 33800,
      "d": 200,
      "v": 60
    },
    {
      "midi": 73,
      "hit": false,
      "t": 34000,
      "d": 400,
      "v": 100
    },
    {
      "midi": 61,
      "hit": false,
      "t": 34000,
      "d": 200,
      "v": 60
    },
    {
      "midi": 64,
      "hit": false,
      "t": 34200,
      "d": 200,
      "v": 60
    },
    {
      "midi": 73,
      "hit": false,
      "t": 34400,
      "d": 400,
      "v": 100
    },
    {
      "midi": 57,
      "hit": false,
      "t": 34400,
      "d": 200,
      "v": 60
    },
    {
      "midi": 64,
      "hit": false,
      "t": 34600,
      "d": 200,
      "v": 60
    },
    {
      "midi": 73,
      "hit": false,
      "t": 34800,
      "d": 400,
      "v": 100
    },
    {
      "midi": 61,
      "hit": false,
      "t": 34800,
      "d": 200,
      "v": 60
    },
    {
      "midi": 64,
      "hit": false,
      "t": 35000,
      "d": 200,
      "v": 60
    },
    {
      "midi": 79,
      "hit": false,
      "t": 35200,
      "d": 600,
      "v": 100
    },
    {
      "midi": 76,
      "hit": false,
      "t": 35800,
      "d": 200,
      "v": 100
    },
    {
      "midi": 78,
      "hit": false,
      "t": 36000,
      "d": 400,
      "v": 100
    },
    {
      "midi": 50,
      "hit": false,
      "t": 36000,
      "d": 800,
      "v": 60
    },
    {
      "midi": 57,
      "hit": false,
      "t": 36000,
      "d": 800,
      "v": 60
    },
    {
      "midi": 74,
      "hit": false,
      "t": 36400,
      "d": 400,
      "v": 100
    },
    {
      "midi": 71,
      "hit": false,
      "t": 36800,
      "d": 400,
      "v": 100
    },
    {
      "midi": 55,
      "hit": false,
      "t": 36800,
      "d": 800,
      "v": 60
    },
    {
      "midi": 62,
      "hit": false,
      "t": 36800,
      "d": 800,
      "v": 60
    },
    {
      "midi": 79,
      "hit": false,
      "t": 37200,
      "d": 400,
      "v": 100
    },
    {
      "midi": 78,
      "hit": false,
      "t": 37600,
      "d": 200,
      "v": 100
    },
    {
      "midi": 57,
      "hit": false,
      "t": 37600,
      "d": 800,
      "v": 60
    },
    {
      "midi": 64,
      "hit": false,
      "t": 37600,
      "d": 800,
      "v": 60
    },
    {
      "midi": 76,
      "hit": false,
      "t": 37800,
      "d": 200,
      "v": 100
    },
    {
      "midi": 74,
      "hit": false,
      "t": 38000,
      "d": 200,
      "v": 100
    },
    {
      "midi": 76,
      "hit": false,
      "t": 38200,
      "d": 200,
      "v": 100
    },
    {
      "midi": 74,
      "hit": false,
      "t": 38400,
      "d": 800,
      "v": 100
    },
    {
      "midi": 50,
      "hit": false,
      "t": 38400,
      "d": 800,
      "v": 60
    },
    {
      "midi": 54,
      "hit": false,
      "t": 38400,
      "d": 800,
      "v": 60
    },
    {
      "midi": 57,
      "hit": false,
      "t": 38400,
      "d": 800,
      "v": 60
    },
    {
      "midi": 70,
      "hit": false,
      "t": 40000,
      "d": 600,
      "v": 100
    },
    {
      "midi": 62,
      "hit": false,
      "t": 40600,
      "d": 200,
      "v": 100
    },
    {
      "midi": 69,
      "hit": false,
      "t": 40800,
      "d": 400,
      "v": 100
    },
    {
      "midi": 50,
      "hit": false,
      "t": 40800,
      "d": 200,
      "v": 60
    },
    {
      "midi": 57,
      "hit": false,
      "t": 41000,
      "d": 200,
      "v": 60
    },
    {
      "midi": 62,
      "hit": false,
      "t": 41200,
      "d": 400,
      "v": 100
    },
    {
      "midi": 54,
      "hit": false,
      "t": 41200,
      "d": 200,
      "v": 60
    },
    {
      "midi": 57,
      "hit": false,
      "t": 41400,
      "d": 200,
      "v": 60
    },
    {
      "midi": 62,
      "hit": false,
      "t": 41600,
      "d": 400,
      "v": 100
    },
    {
      "midi": 50,
      "hit": false,
      "t": 41600,
      "d": 200,
      "v": 60
    },
    {
      "midi": 57,
      "hit": false,
      "t": 41800,
      "d": 200,
      "v": 60
    },
    {
      "midi": 62,
      "hit": false,
      "t": 42000,
      "d": 400,
      "v": 100
    },
    {
      "midi": 54,
      "hit": false,
      "t": 42000,
      "d": 200,
      "v": 60
    },
    {
      "midi": 57,
      "hit": false,
      "t": 42200,
      "d": 200,
      "v": 60
    },
    {
      "midi": 67,
      "hit": false,
      "t": 42400,
      "d": 600,
      "v": 100
    },
    {
      "midi": 62,
      "hit": false,
      "t": 43000,
      "d": 200,
      "v": 100
    },
    {
      "midi": 66,
      "hit": false,
      "t": 43200,
      "d": 400,
      "v": 100
    },
    {
      "midi": 50,
      "hit": false,
      "t": 43200,
      "d": 200,
      "v": 60
    },
    {
      "midi": 57,
      "hit": false,
      "t": 43400,
      "d": 200,
      "v": 60
    },
    {
      "midi": 62,
      "hit": false,
      "t": 43600,
      "d": 400,
      "v": 100
    },
    {
      "midi": 54,
      "hit": false,
      "t": 43600,
      "d": 200,
      "v": 60
    },
    {
      "midi": 57,
      "hit": false,
      "t": 43800,
      "d": 200,
      "v": 60
    },
    {
      "midi": 62,
      "hit": false,
      "t": 44000,
      "d": 400,
      "v": 100
    },
    {
      "midi": 50,
      "hit": false,
      "t": 44000,
      "d": 200,
      "v": 60
    },
    {
      "midi": 57,
      "hit": false,
      "t": 44200,
      "d": 200,
      "v": 60
    },
    {
      "midi": 62,
      "hit": false,
      "t": 44400,
      "d": 400,
      "v": 100
    },
    {
      "midi": 54,
      "hit": false,
      "t": 44400,
      "d": 200,
      "v": 60
    },
    {
      "midi": 57,
      "hit": false,
      "t": 44600,
      "d": 200,
      "v": 60
    },
    {
      "midi": 70,
      "hit": false,
      "t": 44800,
      "d": 600,
      "v": 100
    },
    {
      "midi": 62,
      "hit": false,
      "t": 45400,
      "d": 200,
      "v": 100
    },
    {
      "midi": 69,
      "hit": false,
      "t": 45600,
      "d": 400,
      "v": 100
    },
    {
      "midi": 50,
      "hit": false,
      "t": 45600,
      "d": 200,
      "v": 60
    },
    {
      "midi": 57,
      "hit": false,
      "t": 45800,
      "d": 200,
      "v": 60
    },
    {
      "midi": 62,
      "hit": false,
      "t": 46000,
      "d": 400,
      "v": 100
    },
    {
      "midi": 54,
      "hit": false,
      "t": 46000,
      "d": 200,
      "v": 60
    },
    {
      "midi": 57,
      "hit": false,
      "t": 46200,
      "d": 200,
      "v": 60
    },
    {
      "midi": 62,
      "hit": false,
      "t": 46400,
      "d": 400,
      "v": 100
    },
    {
      "midi": 50,
      "hit": false,
      "t": 46400,
      "d": 200,
      "v": 60
    },
    {
      "midi": 57,
      "hit": false,
      "t": 46600,
      "d": 200,
      "v": 60
    },
    {
      "midi": 62,
      "hit": false,
      "t": 46800,
      "d": 400,
      "v": 100
    },
    {
      "midi": 54,
      "hit": false,
      "t": 46800,
      "d": 200,
      "v": 60
    },
    {
      "midi": 57,
      "hit": false,
      "t": 47000,
      "d": 200,
      "v": 60
    },
    {
      "midi": 67,
      "hit": false,
      "t": 47200,
      "d": 600,
      "v": 100
    },
    {
      "midi": 62,
      "hit": false,
      "t": 47800,
      "d": 200,
      "v": 100
    },
    {
      "midi": 66,
      "hit": false,
      "t": 48000,
      "d": 400,
      "v": 100
    },
    {
      "midi": 50,
      "hit": false,
      "t": 48000,
      "d": 200,
      "v": 60
    },
    {
      "midi": 57,
      "hit": false,
      "t": 48200,
      "d": 200,
      "v": 60
    },
    {
      "midi": 62,
      "hit": false,
      "t": 48400,
      "d": 400,
      "v": 100
    },
    {
      "midi": 54,
      "hit": false,
      "t": 48400,
      "d": 200,
      "v": 60
    },
    {
      "midi": 57,
      "hit": false,
      "t": 48600,
      "d": 200,
      "v": 60
    },
    {
      "midi": 62,
      "hit": false,
      "t": 48800,
      "d": 400,
      "v": 100
    },
    {
      "midi": 50,
      "hit": false,
      "t": 48800,
      "d": 200,
      "v": 60
    },
    {
      "midi": 57,
      "hit": false,
      "t": 49000,
      "d": 200,
      "v": 60
    },
    {
      "midi": 54,
      "hit": false,
      "t": 49200,
      "d": 200,
      "v": 60
    },
    {
      "midi": 81,
      "hit": false,
      "t": 49400,
      "d": 200,
      "v": 100
    },
    {
      "midi": 79,
      "hit": false,
      "t": 49600,
      "d": 200,
      "v": 100
    },
    {
      "midi": 78,
      "hit": false,
      "t": 49800,
      "d": 200,
      "v": 100
    },
    {
      "midi": 79,
      "hit": false,
      "t": 50000,
      "d": 200,
      "v": 100
    },
    {
      "midi": 81,
      "hit": false,
      "t": 50200,
      "d": 200,
      "v": 100
    },
    {
      "midi": 79,
      "hit": false,
      "t": 50400,
      "d": 400,
      "v": 100
    },
    {
      "midi": 55,
      "hit": false,
      "t": 50400,
      "d": 200,
      "v": 60
    },
    {
      "midi": 62,
      "hit": false,
      "t": 50600,
      "d": 200,
      "v": 60
    },
    {
      "midi": 67,
      "hit": false,
      "t": 50800,
      "d": 400,
      "v": 100
    },
    {
      "midi": 59,
      "hit": false,
      "t": 50800,
      "d": 200,
      "v": 60
    },
    {
      "midi": 62,
      "hit": false,
      "t": 51000,
      "d": 200,
      "v": 60
    },
    {
      "midi": 55,
      "hit": false,
      "t": 51200,
      "d": 200,
      "v": 60
    },
    {
      "midi": 62,
      "hit": false,
      "t": 51400,
      "d": 200,
      "v": 60
    },
    {
      "midi": 71,
      "hit": false,
      "t": 51600,
      "d": 800,
      "v": 100
    },
    {
      "midi": 59,
      "hit": false,
      "t": 51600,
      "d": 200,
      "v": 60
    },
    {
      "midi": 62,
      "hit": false,
      "t": 51800,
      "d": 200,
      "v": 60
    },
    {
      "midi": 55,
      "hit": false,
      "t": 52000,
      "d": 200,
      "v": 60
    },
    {
      "midi": 62,
      "hit": false,
      "t": 52200,
      "d": 200,
      "v": 60
    },
    {
      "midi": 74,
      "hit": false,
      "t": 52400,
      "d": 400,
      "v": 100
    },
    {
      "midi": 59,
      "hit": false,
      "t": 52400,
      "d": 200,
      "v": 60
    },
    {
      "midi": 62,
      "hit": false,
      "t": 52600,
      "d": 200,
      "v": 60
    },
    {
      "midi": 74,
      "hit": false,
      "t": 52800,
      "d": 400,
      "v": 100
    },
    {
      "midi": 54,
      "hit": false,
      "t": 52800,
      "d": 200,
      "v": 60
    },
    {
      "midi": 62,
      "hit": false,
      "t": 53000,
      "d": 200,
      "v": 60
    },
    {
      "midi": 72,
      "hit": false,
      "t": 53200,
      "d": 400,
      "v": 100
    },
    {
      "midi": 60,
      "hit": false,
      "t": 53200,
      "d": 200,
      "v": 60
    },
    {
      "midi": 62,
      "hit": false,
      "t": 53400,
      "d": 200,
      "v": 60
    },
    {
      "midi": 72,
      "hit": false,
      "t": 53600,
      "d": 600,
      "v": 100
    },
    {
      "midi": 54,
      "hit": false,
      "t": 53600,
      "d": 200,
      "v": 60
    },
    {
      "midi": 62,
      "hit": false,
      "t": 53800,
      "d": 200,
      "v": 60
    },
    {
      "midi": 60,
      "hit": false,
      "t": 54000,
      "d": 200,
      "v": 60
    },
    {
      "midi": 74,
      "hit": false,
      "t": 54200,
      "d": 200,
      "v": 100
    },
    {
      "midi": 72,
      "hit": false,
      "t": 54400,
      "d": 200,
      "v": 100
    },
    {
      "midi": 71,
      "hit": false,
      "t": 54600,
      "d": 200,
      "v": 100
    },
    {
      "midi": 72,
      "hit": false,
      "t": 54800,
      "d": 200,
      "v": 100
    },
    {
      "midi": 74,
      "hit": false,
      "t": 55000,
      "d": 200,
      "v": 100
    },
    {
      "midi": 72,
      "hit": false,
      "t": 55200,
      "d": 400,
      "v": 100
    },
    {
      "midi": 50,
      "hit": false,
      "t": 55200,
      "d": 200,
      "v": 60
    },
    {
      "midi": 57,
      "hit": false,
      "t": 55400,
      "d": 200,
      "v": 60
    },
    {
      "midi": 62,
      "hit": false,
      "t": 55600,
      "d": 400,
      "v": 100
    },
    {
      "midi": 54,
      "hit": false,
      "t": 55600,
      "d": 200,
      "v": 60
    },
    {
      "midi": 57,
      "hit": false,
      "t": 55800,
      "d": 200,
      "v": 60
    },
    {
      "midi": 50,
      "hit": false,
      "t": 56000,
      "d": 200,
      "v": 60
    },
    {
      "midi": 57,
      "hit": false,
      "t": 56200,
      "d": 200,
      "v": 60
    },
    {
      "midi": 69,
      "hit": false,
      "t": 56400,
      "d": 800,
      "v": 100
    },
    {
      "midi": 54,
      "hit": false,
      "t": 56400,
      "d": 200,
      "v": 60
    },
    {
      "midi": 57,
      "hit": false,
      "t": 56600,
      "d": 200,
      "v": 60
    },
    {
      "midi": 50,
      "hit": false,
      "t": 56800,
      "d": 200,
      "v": 60
    },
    {
      "midi": 57,
      "hit": false,
      "t": 57000,
      "d": 200,
      "v": 60
    },
    {
      "midi": 72,
      "hit": false,
      "t": 57200,
      "d": 400,
      "v": 100
    },
    {
      "midi": 54,
      "hit": false,
      "t": 57200,
      "d": 200,
      "v": 60
    },
    {
      "midi": 57,
      "hit": false,
      "t": 57400,
      "d": 200,
      "v": 60
    },
    {
      "midi": 72,
      "hit": false,
      "t": 57600,
      "d": 400,
      "v": 100
    },
    {
      "midi": 55,
      "hit": false,
      "t": 57600,
      "d": 200,
      "v": 60
    },
    {
      "midi": 62,
      "hit": false,
      "t": 57800,
      "d": 200,
      "v": 60
    },
    {
      "midi": 71,
      "hit": false,
      "t": 58000,
      "d": 400,
      "v": 100
    },
    {
      "midi": 59,
      "hit": false,
      "t": 58000,
      "d": 200,
      "v": 60
    },
    {
      "midi": 62,
      "hit": false,
      "t": 58200,
      "d": 200,
      "v": 60
    },
    {
      "midi": 71,
      "hit": false,
      "t": 58400,
      "d": 800,
      "v": 100
    },
    {
      "midi": 55,
      "hit": false,
      "t": 58400,
      "d": 200,
      "v": 60
    },
    {
      "midi": 62,
      "hit": false,
      "t": 58600,
      "d": 200,
      "v": 60
    },
    {
      "midi": 59,
      "hit": false,
      "t": 58800,
      "d": 200,
      "v": 60
    },
    {
      "midi": 62,
      "hit": false,
      "t": 59000,
      "d": 200,
      "v": 60
    },
    {
      "midi": 72,
      "hit": false,
      "t": 59200,
      "d": 600,
      "v": 100
    },
    {
      "midi": 69,
      "hit": false,
      "t": 59800,
      "d": 200,
      "v": 100
    },
    {
      "midi": 67,
      "hit": false,
      "t": 60000,
      "d": 400,
      "v": 100
    },
    {
      "midi": 50,
      "hit": false,
      "t": 60000,
      "d": 200,
      "v": 60
    },
    {
      "midi": 57,
      "hit": false,
      "t": 60200,
      "d": 200,
      "v": 60
    },
    {
      "midi": 66,
      "hit": false,
      "t": 60400,
      "d": 400,
      "v": 100
    },
    {
      "midi": 54,
      "hit": false,
      "t": 60400,
      "d": 200,
      "v": 60
    },
    {
      "midi": 57,
      "hit": false,
      "t": 60600,
      "d": 200,
      "v": 60
    },
    {
      "midi": 66,
      "hit": false,
      "t": 60800,
      "d": 400,
      "v": 100
    },
    {
      "midi": 50,
      "hit": false,
      "t": 60800,
      "d": 200,
      "v": 60
    },
    {
      "midi": 57,
      "hit": false,
      "t": 61000,
      "d": 200,
      "v": 60
    },
    {
      "midi": 66,
      "hit": false,
      "t": 61200,
      "d": 400,
      "v": 100
    },
    {
      "midi": 54,
      "hit": false,
      "t": 61200,
      "d": 200,
      "v": 60
    },
    {
      "midi": 57,
      "hit": false,
      "t": 61400,
      "d": 200,
      "v": 60
    },
    {
      "midi": 72,
      "hit": false,
      "t": 61600,
      "d": 600,
      "v": 100
    },
    {
      "midi": 69,
      "hit": false,
      "t": 62200,
      "d": 200,
      "v": 100
    },
    {
      "midi": 67,
      "hit": false,
      "t": 62400,
      "d": 400,
      "v": 100
    },
    {
      "midi": 50,
      "hit": false,
      "t": 62400,
      "d": 200,
      "v": 60
    },
    {
      "midi": 57,
      "hit": false,
      "t": 62600,
      "d": 200,
      "v": 60
    },
    {
      "midi": 66,
      "hit": false,
      "t": 62800,
      "d": 400,
      "v": 100
    },
    {
      "midi": 54,
      "hit": false,
      "t": 62800,
      "d": 200,
      "v": 60
    },
    {
      "midi": 57,
      "hit": false,
      "t": 63000,
      "d": 200,
      "v": 60
    },
    {
      "midi": 66,
      "hit": false,
      "t": 63200,
      "d": 400,
      "v": 100
    },
    {
      "midi": 50,
      "hit": false,
      "t": 63200,
      "d": 200,
      "v": 60
    },
    {
      "midi": 57,
      "hit": false,
      "t": 63400,
      "d": 200,
      "v": 60
    },
    {
      "midi": 66,
      "hit": false,
      "t": 63600,
      "d": 400,
      "v": 100
    },
    {
      "midi": 54,
      "hit": false,
      "t": 63600,
      "d": 200,
      "v": 60
    },
    {
      "midi": 57,
      "hit": false,
      "t": 63800,
      "d": 200,
      "v": 60
    },
    {
      "midi": 72,
      "hit": false,
      "t": 64000,
      "d": 600,
      "v": 100
    },
    {
      "midi": 69,
      "hit": false,
      "t": 64600,
      "d": 200,
      "v": 100
    },
    {
      "midi": 71,
      "hit": false,
      "t": 64800,
      "d": 400,
      "v": 100
    },
    {
      "midi": 55,
      "hit": false,
      "t": 64800,
      "d": 800,
      "v": 60
    },
    {
      "midi": 62,
      "hit": false,
      "t": 64800,
      "d": 800,
      "v": 60
    },
    {
      "midi": 67,
      "hit": false,
      "t": 65200,
      "d": 400,
      "v": 100
    },
    {
      "midi": 64,
      "hit": false,
      "t": 65600,
      "d": 400,
      "v": 100
    },
    {
      "midi": 48,
      "hit": false,
      "t": 65600,
      "d": 800,
      "v": 60
    },
    {
      "midi": 55,
      "hit": false,
      "t": 65600,
      "d": 800,
      "v": 60
    },
    {
      "midi": 72,
      "hit": false,
      "t": 66000,
      "d": 400,
      "v": 100
    },
    {
      "midi": 71,
      "hit": false,
      "t": 66400,
      "d": 200,
      "v": 100
    },
    {
      "midi": 54,
      "hit": false,
      "t": 66400,
      "d": 800,
      "v": 60
    },
    {
      "midi": 60,
      "hit": false,
      "t": 66400,
      "d": 800,
      "v": 60
    },
    {
      "midi": 62,
      "hit": false,
      "t": 66400,
      "d": 800,
      "v": 60
    },
    {
      "midi": 69,
      "hit": false,
      "t": 66600,
      "d": 200,
      "v": 100
    },
    {
      "midi": 67,
      "hit": false,
      "t": 66800,
      "d": 200,
      "v": 100
    },
    {
      "midi": 69,
      "hit": false,
      "t": 67000,
      "d": 200,
      "v": 100
    },
    {
      "midi": 67,
      "hit": false,
      "t": 67200,
      "d": 800,
      "v": 100
    },
    {
      "midi": 55,
      "hit": false,
      "t": 67200,
      "d": 800,
      "v": 60
    },
    {
      "midi": 59,
      "hit": false,
      "t": 67200,
      "d": 800,
      "v": 60
    },
    {
      "midi": 62,
      "hit": false,
      "t": 67200,
      "d": 800,
      "v": 60
    }
  ]
}