{
  "jsonPath": "Jazz/Jazz Funk/The Emotions/best-of-my-love.json",
  "path": "Jazz\\Jazz Funk\\The Emotions\\Best Of My Love.mid",
  "name": "Best Of My Love",
  "difficulty": "Advanced",
  "bpm": 116.00008506672904,
  "notes": [
    {
      "midi": 67,
      "hit": false,
      "t": 2068.964,
      "d": 43.10341666666682,
      "v": 121
    },
    {
      "midi": 79,
      "hit": false,
      "t": 2068.964,
      "d": 47.41375833333359,
      "v": 121
    },
    {
      "midi": 67,
      "hit": false,
      "t": 2198.2742500000004,
      "d": 84.05166250000002,
      "v": 108
    },
    {
      "midi": 79,
      "hit": false,
      "t": 2198.2742500000004,
      "d": 107.75854166666659,
      "v": 98
    },
    {
      "midi": 43,
      "hit": false,
      "t": 2327.5845000000004,
      "d": 66.81029583333338,
      "v": 122
    },
    {
      "midi": 31,
      "hit": false,
      "t": 2327.5845000000004,
      "d": 79.74132083333325,
      "v": 118
    },
    {
      "midi": 31,
      "hit": false,
      "t": 2586.2050000000004,
      "d": 170.2584958333332,
      "v": 117
    },
    {
      "midi": 43,
      "hit": false,
      "t": 2586.2050000000004,
      "d": 176.72400833333313,
      "v": 121
    },
    {
      "midi": 79,
      "hit": false,
      "t": 2844.8255000000004,
      "d": 40.9482458333332,
      "v": 119
    },
    {
      "midi": 67,
      "hit": false,
      "t": 2844.8255000000004,
      "d": 43.10341666666636,
      "v": 121
    },
    {
      "midi": 67,
      "hit": false,
      "t": 2974.13575,
      "d": 68.96546666666654,
      "v": 119
    },
    {
      "midi": 79,
      "hit": false,
      "t": 2974.13575,
      "d": 90.51717499999995,
      "v": 117
    },
    {
      "midi": 43,
      "hit": false,
      "t": 3103.446,
      "d": 103.44819999999982,
      "v": 122
    },
    {
      "midi": 31,
      "hit": false,
      "t": 3103.446,
      "d": 114.22405416666652,
      "v": 118
    },
    {
      "midi": 43,
      "hit": false,
      "t": 3362.0665,
      "d": 178.87917916666675,
      "v": 121
    },
    {
      "midi": 31,
      "hit": false,
      "t": 3362.0665,
      "d": 185.34469166666668,
      "v": 119
    },
    {
      "midi": 67,
      "hit": false,
      "t": 3749.99725,
      "d": 34.48273333333327,
      "v": 118
    },
    {
      "midi": 79,
      "hit": false,
      "t": 3749.99725,
      "d": 34.48273333333327,
      "v": 114
    },
    {
      "midi": 31,
      "hit": false,
      "t": 4913.7895,
      "d": 43.10341666666682,
      "v": 96
    },
    {
      "midi": 67,
      "hit": false,
      "t": 4913.7895,
      "d": 45.25858750000043,
      "v": 116
    },
    {
      "midi": 79,
      "hit": false,
      "t": 4913.7895,
      "d": 45.25858750000043,
      "v": 112
    },
    {
      "midi": 43,
      "hit": false,
      "t": 4913.7895,
      "d": 49.56892916666675,
      "v": 118
    },
    {
      "midi": 31,
      "hit": false,
      "t": 5043.09975,
      "d": 45.25858750000043,
      "v": 83
    },
    {
      "midi": 43,
      "hit": false,
      "t": 5043.09975,
      "d": 47.413758333334044,
      "v": 112
    },
    {
      "midi": 67,
      "hit": false,
      "t": 5043.09975,
      "d": 47.413758333334044,
      "v": 118
    },
    {
      "midi": 79,
      "hit": false,
      "t": 5043.09975,
      "d": 51.72410000000036,
      "v": 108
    },
    {
      "midi": 31,
      "hit": false,
      "t": 5172.410000000001,
      "d": 23.706879166667022,
      "v": 71
    },
    {
      "midi": 67,
      "hit": false,
      "t": 5172.410000000001,
      "d": 40.94824583333411,
      "v": 112
    },
    {
      "midi": 79,
      "hit": false,
      "t": 5172.410000000001,
      "d": 51.72410000000036,
      "v": 106
    },
    {
      "midi": 43,
      "hit": false,
      "t": 5172.410000000001,
      "d": 58.189612500000294,
      "v": 100
    },
    {
      "midi": 67,
      "hit": false,
      "t": 5301.720250000001,
      "d": 79.7413208333337,
      "v": 117
    },
    {
      "midi": 79,
      "hit": false,
      "t": 5301.720250000001,
      "d": 109.91371250000066,
      "v": 108
    },
    {
      "midi": 43,
      "hit": false,
      "t": 5301.720250000001,
      "d": 114.22405416666697,
      "v": 119
    },
    {
      "midi": 31,
      "hit": false,
      "t": 5301.720250000001,
      "d": 118.53439583333329,
      "v": 104
    },
    {
      "midi": 56,
      "hit": false,
      "t": 5728.444075,
      "d": 142.24127500000031,
      "v": 113
    },
    {
      "midi": 57,
      "hit": false,
      "t": 5799.5647125000005,
      "d": 148.70678750000025,
      "v": 105
    },
    {
      "midi": 58,
      "hit": false,
      "t": 5926.719791666667,
      "d": 163.79298333333372,
      "v": 66
    },
    {
      "midi": 59,
      "hit": false,
      "t": 6028.012820833334,
      "d": 161.6378125000001,
      "v": 58
    },
    {
      "midi": 60,
      "hit": false,
      "t": 6148.702387500001,
      "d": 66.81029583333293,
      "v": 46
    },
    {
      "midi": 29,
      "hit": false,
      "t": 6206.892000000002,
      "d": 168.10332500000004,
      "v": 106
    },
    {
      "midi": 65,
      "hit": false,
      "t": 6206.892000000002,
      "d": 193.96537499999977,
      "v": 116
    },
    {
      "midi": 57,
      "hit": false,
      "t": 6206.892000000002,
      "d": 196.12054583333338,
      "v": 114
    },
    {
      "midi": 60,
      "hit": false,
      "t": 6206.892000000002,
      "d": 202.5860583333333,
      "v": 110
    },
    {
      "midi": 41,
      "hit": false,
      "t": 6206.892000000002,
      "d": 237.06879166666658,
      "v": 110
    },
    {
      "midi": 60,
      "hit": false,
      "t": 6228.443708333334,
      "d": 68.96546666666654,
      "v": 127
    },
    {
      "midi": 60,
      "hit": false,
      "t": 6487.064208333334,
      "d": 49.56892916666675,
      "v": 106
    },
    {
      "midi": 60,
      "hit": false,
      "t": 6745.684708333334,
      "d": 71.12063750000016,
      "v": 127
    },
    {
      "midi": 41,
      "hit": false,
      "t": 6982.753500000002,
      "d": 107.75854166666704,
      "v": 116
    },
    {
      "midi": 65,
      "hit": false,
      "t": 6982.753500000002,
      "d": 150.86195833333386,
      "v": 112
    },
    {
      "midi": 57,
      "hit": false,
      "t": 6982.753500000002,
      "d": 155.17230000000018,
      "v": 116
    },
    {
      "midi": 60,
      "hit": false,
      "t": 6982.753500000002,
      "d": 170.25849583333365,
      "v": 112
    },
    {
      "midi": 60,
      "hit": false,
      "t": 7004.305208333334,
      "d": 40.9482458333332,
      "v": 103
    },
    {
      "midi": 55,
      "hit": false,
      "t": 7241.374000000002,
      "d": 176.7240083333336,
      "v": 116
    },
    {
      "midi": 28,
      "hit": false,
      "t": 7241.374000000002,
      "d": 181.0343499999999,
      "v": 114
    },
    {
      "midi": 64,
      "hit": false,
      "t": 7241.374000000002,
      "d": 183.18952083333352,
      "v": 116
    },
    {
      "midi": 60,
      "hit": false,
      "t": 7241.374000000002,
      "d": 202.5860583333333,
      "v": 112
    },
    {
      "midi": 40,
      "hit": false,
      "t": 7241.374000000002,
      "d": 217.6722541666668,
      "v": 102
    },
    {
      "midi": 60,
      "hit": false,
      "t": 7262.925708333334,
      "d": 19.396537499999795,
      "v": 116
    },
    {
      "midi": 60,
      "hit": false,
      "t": 7521.546208333334,
      "d": 12.931024999999863,
      "v": 126
    },
    {
      "midi": 60,
      "hit": false,
      "t": 7780.166708333334,
      "d": 49.56892916666675,
      "v": 127
    },
    {
      "midi": 40,
      "hit": false,
      "t": 8017.235500000002,
      "d": 107.75854166666704,
      "v": 110
    },
    {
      "midi": 64,
      "hit": false,
      "t": 8017.235500000002,
      "d": 127.15507916666684,
      "v": 117
    },
    {
      "midi": 60,
      "hit": false,
      "t": 8017.235500000002,
      "d": 135.77576250000038,
      "v": 110
    },
    {
      "midi": 55,
      "hit": false,
      "t": 8017.235500000002,
      "d": 140.0861041666667,
      "v": 114
    },
    {
      "midi": 60,
      "hit": false,
      "t": 8038.787208333334,
      "d": 21.55170833333341,
      "v": 118
    },
    {
      "midi": 26,
      "hit": false,
      "t": 8275.856000000002,
      "d": 127.15507916666684,
      "v": 108
    },
    {
      "midi": 62,
      "hit": false,
      "t": 8275.856000000002,
      "d": 172.41366666666727,
      "v": 118
    },
    {
      "midi": 53,
      "hit": false,
      "t": 8275.856000000002,
      "d": 183.18952083333352,
      "v": 114
    },
    {
      "midi": 57,
      "hit": false,
      "t": 8275.856000000002,
      "d": 189.65503333333436,
      "v": 117
    },
    {
      "midi": 38,
      "hit": false,
      "t": 8275.856000000002,
      "d": 215.51708333333409,
      "v": 104
    },
    {
      "midi": 60,
      "hit": false,
      "t": 8297.407708333334,
      "d": 15.086195833333477,
      "v": 110
    },
    {
      "midi": 60,
      "hit": false,
      "t": 8556.028208333335,
      "d": 19.396537500000704,
      "v": 122
    },
    {
      "midi": 60,
      "hit": false,
      "t": 8814.648708333336,
      "d": 135.77576249999947,
      "v": 127
    },
    {
      "midi": 38,
      "hit": false,
      "t": 9051.717500000002,
      "d": 96.98268749999988,
      "v": 112
    },
    {
      "midi": 57,
      "hit": false,
      "t": 9051.717500000002,
      "d": 114.22405416666697,
      "v": 116
    },
    {
      "midi": 62,
      "hit": false,
      "t": 9051.717500000002,
      "d": 122.84473749999961,
      "v": 117
    },
    {
      "midi": 53,
      "hit": false,
      "t": 9051.717500000002,
      "d": 131.46542083333225,
      "v": 112
    },
    {
      "midi": 60,
      "hit": false,
      "t": 9073.269208333335,
      "d": 43.10341666666682,
      "v": 84
    },
    {
      "midi": 24,
      "hit": false,
      "t": 9310.338000000002,
      "d": 103.44820000000072,
      "v": 114
    },
    {
      "midi": 36,
      "hit": false,
      "t": 9310.338000000002,
      "d": 135.7757625000013,
      "v": 110
    },
    {
      "midi": 52,
      "hit": false,
      "t": 9310.338000000002,
      "d": 135.7757625000013,
      "v": 119
    },
    {
      "midi": 60,
      "hit": false,
      "t": 9310.338000000002,
      "d": 161.63781250000102,
      "v": 118
    },
    {
      "midi": 55,
      "hit": false,
      "t": 9310.338000000002,
      "d": 163.79298333333463,
      "v": 119
    },
    {
      "midi": 60,
      "hit": false,
      "t": 9331.889708333336,
      "d": 38.79307499999959,
      "v": 116
    },
    {
      "midi": 36,
      "hit": false,
      "t": 9568.958500000002,
      "d": 88.36200416666725,
      "v": 96
    },
    {
      "midi": 60,
      "hit": false,
      "t": 9568.958500000002,
      "d": 94.82751666666809,
      "v": 98
    },
    {
      "midi": 53,
      "hit": false,
      "t": 9568.958500000002,
      "d": 107.75854166666795,
      "v": 112
    },
    {
      "midi": 60,
      "hit": false,
      "t": 9590.510208333335,
      "d": 120.689566666666,
      "v": 127
    },
    {
      "midi": 40,
      "hit": false,
      "t": 9827.579000000003,
      "d": 301.7239166666659,
      "v": 119
    },
    {
      "midi": 55,
      "hit": false,
      "t": 9827.579000000003,
      "d": 321.1204541666666,
      "v": 122
    },
    {
      "midi": 60,
      "hit": false,
      "t": 9827.579000000003,
      "d": 338.3618208333337,
      "v": 120
    },
    {
      "midi": 60,
      "hit": false,
      "t": 9849.130708333334,
      "d": 49.56892916666584,
      "v": 89
    },
    {
      "midi": 38,
      "hit": false,
      "t": 10086.199500000002,
      "d": 25.862049999999726,
      "v": 96
    },
    {
      "midi": 60,
      "hit": false,
      "t": 10107.751208333333,
      "d": 30.172391666666954,
      "v": 122
    },
    {
      "midi": 41,
      "hit": false,
      "t": 10344.820000000003,
      "d": 193.96537499999977,
      "v": 118
    },
    {
      "midi": 60,
      "hit": false,
      "t": 10344.820000000003,
      "d": 206.89639999999963,
      "v": 119
    },
    {
      "midi": 57,
      "hit": false,
      "t": 10344.820000000003,
      "d": 211.20674166666686,
      "v": 120
    },
    {
      "midi": 65,
      "hit": false,
      "t": 10344.820000000003,
      "d": 215.51708333333409,
      "v": 119
    },
    {
      "midi": 60,
      "hit": false,
      "t": 10366.371708333334,
      "d": 43.10341666666682,
      "v": 127
    },
    {
      "midi": 29,
      "hit": false,
      "t": 10474.130250000004,
      "d": 28.01722083333334,
      "v": 65
    },
    {
      "midi": 60,
      "hit": false,
      "t": 10624.992208333335,
      "d": 25.862049999999726,
      "v": 82
    },
    {
      "midi": 60,
      "hit": false,
      "t": 10883.612708333334,
      "d": 64.65512499999932,
      "v": 127
    },
    {
      "midi": 57,
      "hit": false,
      "t": 11120.681500000004,
      "d": 183.18952083333352,
      "v": 114
    },
    {
      "midi": 65,
      "hit": false,
      "t": 11120.681500000004,
      "d": 185.34469166666713,
      "v": 116
    },
    {
      "midi": 29,
      "hit": false,
      "t": 11120.681500000004,
      "d": 191.81020416666797,
      "v": 106
    },
    {
      "midi": 41,
      "hit": false,
      "t": 11120.681500000004,
      "d": 200.4308875000006,
      "v": 116
    },
    {
      "midi": 60,
      "hit": false,
      "t": 11142.233208333333,
      "d": 47.413758333334044,
      "v": 120
    },
    {
      "midi": 60,
      "hit": false,
      "t": 11249.991750000005,
      "d": 2.1551708333336137,
      "v": 108
    },
    {
      "midi": 28,
      "hit": false,
      "t": 11379.302000000005,
      "d": 107.75854166666613,
      "v": 114
    },
    {
      "midi": 64,
      "hit": false,
      "t": 11379.302000000005,
      "d": 185.3446916666653,
      "v": 116
    },
    {
      "midi": 55,
      "hit": false,
      "t": 11379.302000000005,
      "d": 187.49986249999893,
      "v": 116
    },
    {
      "midi": 40,
      "hit": false,
      "t": 11379.302000000005,
      "d": 189.65503333333254,
      "v": 110
    },
    {
      "midi": 60,
      "hit": false,
      "t": 11379.302000000005,
      "d": 209.05157083333324,
      "v": 114
    },
    {
      "midi": 60,
      "hit": false,
      "t": 11400.853708333334,
      "d": 45.25858750000043,
      "v": 127
    },
    {
      "midi": 60,
      "hit": false,
      "t": 11659.474208333335,
      "d": 17.24136666666709,
      "v": 110
    },
    {
      "midi": 60,
      "hit": false,
      "t": 11918.094708333336,
      "d": 51.72409999999945,
      "v": 127
    },
    {
      "midi": 28,
      "hit": false,
      "t": 12155.163500000006,
      "d": 64.65512499999932,
      "v": 100
    },
    {
      "midi": 64,
      "hit": false,
      "t": 12155.163500000006,
      "d": 99.1378583333335,
      "v": 108
    },
    {
      "midi": 60,
      "hit": false,
      "t": 12155.163500000006,
      "d": 105.60337083333434,
      "v": 106
    },
    {
      "midi": 55,
      "hit": false,
      "t": 12155.163500000006,
      "d": 116.37922500000059,
      "v": 110
    },
    {
      "midi": 40,
      "hit": false,
      "t": 12155.163500000006,
      "d": 120.68956666666782,
      "v": 104
    },
    {
      "midi": 60,
      "hit": false,
      "t": 12176.715208333335,
      "d": 19.396537500000704,
      "v": 78
    },
    {
      "midi": 53,
      "hit": false,
      "t": 12413.784000000007,
      "d": 142.24127500000031,
      "v": 118
    },
    {
      "midi": 62,
      "hit": false,
      "t": 12413.784000000007,
      "d": 170.25849583333365,
      "v": 118
    },
    {
      "midi": 57,
      "hit": false,
      "t": 12413.784000000007,
      "d": 181.0343499999999,
      "v": 120
    },
    {
      "midi": 38,
      "hit": false,
      "t": 12413.784000000007,
      "d": 196.12054583333338,
      "v": 119
    },
    {
      "midi": 60,
      "hit": false,
      "t": 12435.335708333336,
      "d": 40.9482458333332,
      "v": 108
    },
    {
      "midi": 62,
      "hit": false,
      "t": 12672.404500000008,
      "d": 64.65512499999932,
      "v": 88
    },
    {
      "midi": 40,
      "hit": false,
      "t": 12672.404500000008,
      "d": 79.7413208333328,
      "v": 110
    },
    {
      "midi": 55,
      "hit": false,
      "t": 12672.404500000008,
      "d": 96.98268749999988,
      "v": 112
    },
    {
      "midi": 59,
      "hit": false,
      "t": 12672.404500000008,
      "d": 101.29302916666711,
      "v": 108
    },
    {
      "midi": 60,
      "hit": false,
      "t": 12693.956208333335,
      "d": 25.862049999999726,
      "v": 88
    },
    {
      "midi": 41,
      "hit": false,
      "t": 12931.025000000009,
      "d": 342.6721624999991,
      "v": 118
    },
    {
      "midi": 62,
      "hit": false,
      "t": 12931.025000000009,
      "d": 344.8273333333327,
      "v": 119
    },
    {
      "midi": 57,
      "hit": false,
      "t": 12931.025000000009,
      "d": 366.3790416666652,
      "v": 122
    },
    {
      "midi": 60,
      "hit": false,
      "t": 12952.576708333334,
      "d": 53.87927083333307,
      "v": 127
    },
    {
      "midi": 24,
      "hit": false,
      "t": 13448.266000000007,
      "d": 64.65512499999932,
      "v": 114
    },
    {
      "midi": 36,
      "hit": false,
      "t": 13448.266000000007,
      "d": 77.58614999999918,
      "v": 117
    },
    {
      "midi": 52,
      "hit": false,
      "t": 13448.266000000007,
      "d": 120.689566666666,
      "v": 119
    },
    {
      "midi": 55,
      "hit": false,
      "t": 13448.266000000007,
      "d": 124.99990833333322,
      "v": 119
    },
    {
      "midi": 60,
      "hit": false,
      "t": 13448.266000000007,
      "d": 127.15507916666684,
      "v": 119
    },
    {
      "midi": 60,
      "hit": false,
      "t": 13469.817708333334,
      "d": 32.32756250000057,
      "v": 98
    },
    {
      "midi": 26,
      "hit": false,
      "t": 13706.886500000008,
      "d": 60.34478333333391,
      "v": 104
    },
    {
      "midi": 38,
      "hit": false,
      "t": 13706.886500000008,
      "d": 75.43097916666738,
      "v": 112
    },
    {
      "midi": 53,
      "hit": false,
      "t": 13706.886500000008,
      "d": 96.98268749999988,
      "v": 108
    },
    {
      "midi": 57,
      "hit": false,
      "t": 13706.886500000008,
      "d": 101.29302916666711,
      "v": 110
    },
    {
      "midi": 62,
      "hit": false,
      "t": 13706.886500000008,
      "d": 103.44820000000072,
      "v": 108
    },
    {
      "midi": 60,
      "hit": false,
      "t": 13728.438208333335,
      "d": 176.72400833333268,
      "v": 127
    },
    {
      "midi": 62,
      "hit": false,
      "t": 13965.507000000009,
      "d": 170.25849583333365,
      "v": 110
    },
    {
      "midi": 28,
      "hit": false,
      "t": 13965.507000000009,
      "d": 282.327379166667,
      "v": 106
    },
    {
      "midi": 40,
      "hit": false,
      "t": 13965.507000000009,
      "d": 293.10323333333326,
      "v": 117
    },
    {
      "midi": 55,
      "hit": false,
      "t": 13965.507000000009,
      "d": 301.7239166666659,
      "v": 119
    },
    {
      "midi": 64,
      "hit": false,
      "t": 13965.507000000009,
      "d": 303.8790874999995,
      "v": 110
    },
    {
      "midi": 59,
      "hit": false,
      "t": 13965.507000000009,
      "d": 306.0342583333331,
      "v": 119
    },
    {
      "midi": 60,
      "hit": false,
      "t": 13987.058708333334,
      "d": 49.56892916666584,
      "v": 92
    },
    {
      "midi": 60,
      "hit": false,
      "t": 14245.679208333333,
      "d": 105.60337083333252,
      "v": 127
    },
    {
      "midi": 29,
      "hit": false,
      "t": 14482.748000000009,
      "d": 168.10332500000004,
      "v": 106
    },
    {
      "midi": 65,
      "hit": false,
      "t": 14482.748000000009,
      "d": 193.96537499999977,
      "v": 116
    },
    {
      "midi": 57,
      "hit": false,
      "t": 14482.748000000009,
      "d": 196.12054583333338,
      "v": 114
    },
    {
      "midi": 60,
      "hit": false,
      "t": 14482.748000000009,
      "d": 202.58605833333422,
      "v": 110
    },
    {
      "midi": 41,
      "hit": false,
      "t": 14482.748000000009,
      "d": 237.0687916666684,
      "v": 110
    },
    {
      "midi": 60,
      "hit": false,
      "t": 14504.299708333332,
      "d": 68.96546666666654,
      "v": 127
    },
    {
      "midi": 60,
      "hit": false,
      "t": 14762.920208333331,
      "d": 49.56892916666584,
      "v": 106
    },
    {
      "midi": 60,
      "hit": false,
      "t": 15021.54070833333,
      "d": 71.12063750000016,
      "v": 127
    },
    {
      "midi": 41,
      "hit": false,
      "t": 15258.60950000001,
      "d": 107.75854166666613,
      "v": 116
    },
    {
      "midi": 65,
      "hit": false,
      "t": 15258.60950000001,
      "d": 150.86195833333295,
      "v": 112
    },
    {
      "midi": 57,
      "hit": false,
      "t": 15258.60950000001,
      "d": 155.17230000000018,
      "v": 116
    },
    {
      "midi": 60,
      "hit": false,
      "t": 15258.60950000001,
      "d": 170.25849583333365,
      "v": 112
    },
    {
      "midi": 60,
      "hit": false,
      "t": 15280.161208333331,
      "d": 40.9482458333332,
      "v": 103
    },
    {
      "midi": 55,
      "hit": false,
      "t": 15517.23000000001,
      "d": 176.72400833333268,
      "v": 116
    },
    {
      "midi": 28,
      "hit": false,
      "t": 15517.23000000001,
      "d": 181.0343499999999,
      "v": 114
    },
    {
      "midi": 64,
      "hit": false,
      "t": 15517.23000000001,
      "d": 183.18952083333352,
      "v": 116
    },
    {
      "midi": 60,
      "hit": false,
      "t": 15517.23000000001,
      "d": 202.58605833333422,
      "v": 112
    },
    {
      "midi": 40,
      "hit": false,
      "t": 15517.23000000001,
      "d": 217.6722541666677,
      "v": 102
    },
    {
      "midi": 60,
      "hit": false,
      "t": 15538.78170833333,
      "d": 19.396537500000704,
      "v": 116
    },
    {
      "midi": 60,
      "hit": false,
      "t": 15797.402208333331,
      "d": 12.931024999999863,
      "v": 126
    },
    {
      "midi": 60,
      "hit": false,
      "t": 16056.02270833333,
      "d": 49.56892916666584,
      "v": 127
    },
    {
      "midi": 40,
      "hit": false,
      "t": 16293.091500000011,
      "d": 107.75854166666795,
      "v": 110
    },
    {
      "midi": 64,
      "hit": false,
      "t": 16293.091500000011,
      "d": 127.15507916666866,
      "v": 117
    },
    {
      "midi": 60,
      "hit": false,
      "t": 16293.091500000011,
      "d": 135.7757625000031,
      "v": 110
    },
    {
      "midi": 55,
      "hit": false,
      "t": 16293.091500000011,
      "d": 140.08610416667034,
      "v": 114
    },
    {
      "midi": 60,
      "hit": false,
      "t": 16314.64320833333,
      "d": 21.5517083333325,
      "v": 118
    },
    {
      "midi": 26,
      "hit": false,
      "t": 16551.712000000014,
      "d": 127.15507916666684,
      "v": 108
    },
    {
      "midi": 62,
      "hit": false,
      "t": 16551.712000000014,
      "d": 172.41366666666727,
      "v": 118
    },
    {
      "midi": 53,
      "hit": false,
      "t": 16551.712000000014,
      "d": 183.18952083333352,
      "v": 114
    },
    {
      "midi": 57,
      "hit": false,
      "t": 16551.712000000014,
      "d": 189.65503333333254,
      "v": 117
    },
    {
      "midi": 38,
      "hit": false,
      "t": 16551.712000000014,
      "d": 215.51708333333227,
      "v": 104
    },
    {
      "midi": 60,
      "hit": false,
      "t": 16573.26370833333,
      "d": 15.086195833333477,
      "v": 110
    },
    {
      "midi": 60,
      "hit": false,
      "t": 16831.88420833333,
      "d": 19.396537500000704,
      "v": 122
    },
    {
      "midi": 60,
      "hit": false,
      "t": 17090.50470833333,
      "d": 135.7757625000013,
      "v": 127
    },
    {
      "midi": 38,
      "hit": false,
      "t": 17327.573500000013,
      "d": 96.98268749999988,
      "v": 112
    },
    {
      "midi": 57,
      "hit": false,
      "t": 17327.573500000013,
      "d": 114.22405416666516,
      "v": 116
    },
    {
      "midi": 62,
      "hit": false,
      "t": 17327.573500000013,
      "d": 122.84473749999961,
      "v": 117
    },
    {
      "midi": 53,
      "hit": false,
      "t": 17327.573500000013,
      "d": 131.46542083333406,
      "v": 112
    },
    {
      "midi": 60,
      "hit": false,
      "t": 17349.12520833333,
      "d": 43.103416666665,
      "v": 84
    },
    {
      "midi": 24,
      "hit": false,
      "t": 17586.194000000014,
      "d": 103.4481999999989,
      "v": 114
    },
    {
      "midi": 36,
      "hit": false,
      "t": 17586.194000000014,
      "d": 135.77576249999765,
      "v": 110
    },
    {
      "midi": 52,
      "hit": false,
      "t": 17586.194000000014,
      "d": 135.77576249999765,
      "v": 119
    },
    {
      "midi": 60,
      "hit": false,
      "t": 17586.194000000014,
      "d": 161.63781249999738,
      "v": 118
    },
    {
      "midi": 55,
      "hit": false,
      "t": 17586.194000000014,
      "d": 163.79298333332918,
      "v": 119
    },
    {
      "midi": 60,
      "hit": false,
      "t": 17607.74570833333,
      "d": 38.79307500000141,
      "v": 116
    },
    {
      "midi": 36,
      "hit": false,
      "t": 17844.81450000001,
      "d": 88.36200416666543,
      "v": 96
    },
    {
      "midi": 60,
      "hit": false,
      "t": 17844.81450000001,
      "d": 94.82751666666445,
      "v": 98
    },
    {
      "midi": 53,
      "hit": false,
      "t": 17844.81450000001,
      "d": 107.75854166666613,
      "v": 112
    },
    {
      "midi": 60,
      "hit": false,
      "t": 17866.36620833333,
      "d": 120.68956666666782,
      "v": 127
    },
    {
      "midi": 40,
      "hit": false,
      "t": 18103.435000000012,
      "d": 301.7239166666659,
      "v": 119
    },
    {
      "midi": 55,
      "hit": false,
      "t": 18103.435000000012,
      "d": 321.1204541666666,
      "v": 122
    },
    {
      "midi": 60,
      "hit": false,
      "t": 18103.435000000012,
      "d": 338.3618208333319,
      "v": 120
    },
    {
      "midi": 60,
      "hit": false,
      "t": 18124.98670833333,
      "d": 49.56892916666766,
      "v": 89
    },
    {
      "midi": 38,
      "hit": false,
      "t": 18362.055500000013,
      "d": 25.862049999999726,
      "v": 96
    },
    {
      "midi": 60,
      "hit": false,
      "t": 18383.60720833333,
      "d": 30.172391666666954,
      "v": 122
    },
    {
      "midi": 41,
      "hit": false,
      "t": 18620.67600000001,
      "d": 193.96537499999613,
      "v": 118
    },
    {
      "midi": 60,
      "hit": false,
      "t": 18620.67600000001,
      "d": 206.8963999999978,
      "v": 119
    },
    {
      "midi": 57,
      "hit": false,
      "t": 18620.67600000001,
      "d": 211.20674166666504,
      "v": 120
    },
    {
      "midi": 65,
      "hit": false,
      "t": 18620.67600000001,
      "d": 215.51708333333227,
      "v": 119
    },
    {
      "midi": 60,
      "hit": false,
      "t": 18642.227708333332,
      "d": 43.103416666665,
      "v": 127
    },
    {
      "midi": 29,
      "hit": false,
      "t": 18749.98625000001,
      "d": 28.01722083333152,
      "v": 65
    },
    {
      "midi": 60,
      "hit": false,
      "t": 18900.84820833333,
      "d": 25.862049999999726,
      "v": 82
    },
    {
      "midi": 60,
      "hit": false,
      "t": 19159.46870833333,
      "d": 64.65512500000114,
      "v": 127
    },
    {
      "midi": 57,
      "hit": false,
      "t": 19396.53750000001,
      "d": 183.18952083332988,
      "v": 114
    },
    {
      "midi": 65,
      "hit": false,
      "t": 19396.53750000001,
      "d": 185.34469166666167,
      "v": 116
    },
    {
      "midi": 29,
      "hit": false,
      "t": 19396.53750000001,
      "d": 191.8102041666607,
      "v": 106
    },
    {
      "midi": 41,
      "hit": false,
      "t": 19396.53750000001,
      "d": 200.43088749999515,
      "v": 116
    },
    {
      "midi": 60,
      "hit": false,
      "t": 19418.08920833333,
      "d": 47.413758333332225,
      "v": 120
    },
    {
      "midi": 60,
      "hit": false,
      "t": 19525.847750000008,
      "d": 2.1551708333317947,
      "v": 108
    },
    {
      "midi": 28,
      "hit": false,
      "t": 19655.158000000003,
      "d": 107.75854166666613,
      "v": 114
    },
    {
      "midi": 64,
      "hit": false,
      "t": 19655.158000000003,
      "d": 185.3446916666653,
      "v": 116
    },
    {
      "midi": 55,
      "hit": false,
      "t": 19655.158000000003,
      "d": 187.4998624999971,
      "v": 116
    },
    {
      "midi": 40,
      "hit": false,
      "t": 19655.158000000003,
      "d": 189.6550333333289,
      "v": 110
    },
    {
      "midi": 60,
      "hit": false,
      "t": 19655.158000000003,
      "d": 209.0515708333296,
      "v": 114
    },
    {
      "midi": 60,
      "hit": false,
      "t": 19676.70970833333,
      "d": 45.25858750000043,
      "v": 127
    },
    {
      "midi": 60,
      "hit": false,
      "t": 19935.33020833333,
      "d": 17.24136666666527,
      "v": 110
    },
    {
      "midi": 60,
      "hit": false,
      "t": 20193.950708333326,
      "d": 51.72409999999945,
      "v": 127
    },
    {
      "midi": 28,
      "hit": false,
      "t": 20431.0195,
      "d": 64.65512500000114,
      "v": 100
    },
    {
      "midi": 64,
      "hit": false,
      "t": 20431.0195,
      "d": 99.13785833333532,
      "v": 108
    },
    {
      "midi": 60,
      "hit": false,
      "t": 20431.0195,
      "d": 105.60337083333434,
      "v": 106
    },
    {
      "midi": 55,
      "hit": false,
      "t": 20431.0195,
      "d": 116.37922500000059,
      "v": 110
    },
    {
      "midi": 40,
      "hit": false,
      "t": 20431.0195,
      "d": 120.68956666666782,
      "v": 104
    },
    {
      "midi": 60,
      "hit": false,
      "t": 20452.571208333327,
      "d": 19.396537500000704,
      "v": 78
    },
    {
      "midi": 53,
      "hit": false,
      "t": 20689.64,
      "d": 142.24127500000031,
      "v": 118
    },
    {
      "midi": 62,
      "hit": false,
      "t": 20689.64,
      "d": 170.25849583333184,
      "v": 118
    },
    {
      "midi": 57,
      "hit": false,
      "t": 20689.64,
      "d": 181.03434999999808,
      "v": 120
    },
    {
      "midi": 38,
      "hit": false,
      "t": 20689.64,
      "d": 196.12054583333156,
      "v": 119
    },
    {
      "midi": 60,
      "hit": false,
      "t": 20711.19170833333,
      "d": 40.9482458333332,
      "v": 108
    },
    {
      "midi": 62,
      "hit": false,
      "t": 20948.260499999997,
      "d": 64.65512500000114,
      "v": 88
    },
    {
      "midi": 40,
      "hit": false,
      "t": 20948.260499999997,
      "d": 79.74132083333461,
      "v": 110
    },
    {
      "midi": 55,
      "hit": false,
      "t": 20948.260499999997,
      "d": 96.98268749999988,
      "v": 112
    },
    {
      "midi": 59,
      "hit": false,
      "t": 20948.260499999997,
      "d": 101.29302916666711,
      "v": 108
    },
    {
      "midi": 60,
      "hit": false,
      "t": 20969.81220833333,
      "d": 25.862049999999726,
      "v": 88
    },
    {
      "midi": 41,
      "hit": false,
      "t": 21206.880999999998,
      "d": 342.6721624999991,
      "v": 118
    },
    {
      "midi": 62,
      "hit": false,
      "t": 21206.880999999998,
      "d": 344.8273333333309,
      "v": 119
    },
    {
      "midi": 57,
      "hit": false,
      "t": 21206.880999999998,
      "d": 366.3790416666634,
      "v": 122
    },
    {
      "midi": 60,
      "hit": false,
      "t": 21228.43270833333,
      "d": 53.879270833334886,
      "v": 127
    },
    {
      "midi": 24,
      "hit": false,
      "t": 21724.121999999996,
      "d": 64.65512500000114,
      "v": 114
    },
    {
      "midi": 36,
      "hit": false,
      "t": 21724.121999999996,
      "d": 77.58615000000282,
      "v": 117
    },
    {
      "midi": 52,
      "hit": false,
      "t": 21724.121999999996,
      "d": 120.68956666666782,
      "v": 119
    },
    {
      "midi": 55,
      "hit": false,
      "t": 21724.121999999996,
      "d": 124.99990833333504,
      "v": 119
    },
    {
      "midi": 60,
      "hit": false,
      "t": 21724.121999999996,
      "d": 127.15507916666684,
      "v": 119
    },
    {
      "midi": 60,
      "hit": false,
      "t": 21745.673708333332,
      "d": 32.32756249999875,
      "v": 98
    },
    {
      "midi": 26,
      "hit": false,
      "t": 21982.742499999997,
      "d": 60.34478333333391,
      "v": 104
    },
    {
      "midi": 38,
      "hit": false,
      "t": 21982.742499999997,
      "d": 75.43097916666738,
      "v": 112
    },
    {
      "midi": 53,
      "hit": false,
      "t": 21982.742499999997,
      "d": 96.98268749999988,
      "v": 108
    },
    {
      "midi": 57,
      "hit": false,
      "t": 21982.742499999997,
      "d": 101.29302916666711,
      "v": 110
    },
    {
      "midi": 62,
      "hit": false,
      "t": 21982.742499999997,
      "d": 103.4481999999989,
      "v": 108
    },
    {
      "midi": 60,
      "hit": false,
      "t": 22004.29420833333,
      "d": 176.7240083333345,
      "v": 127
    },
    {
      "midi": 62,
      "hit": false,
      "t": 22241.362999999994,
      "d": 170.25849583333184,
      "v": 110
    },
    {
      "midi": 28,
      "hit": false,
      "t": 22241.362999999994,
      "d": 282.3273791666652,
      "v": 106
    },
    {
      "midi": 40,
      "hit": false,
      "t": 22241.362999999994,
      "d": 293.10323333333145,
      "v": 117
    },
    {
      "midi": 55,
      "hit": false,
      "t": 22241.362999999994,
      "d": 301.7239166666659,
      "v": 119
    },
    {
      "midi": 64,
      "hit": false,
      "t": 22241.362999999994,
      "d": 303.8790874999977,
      "v": 110
    },
    {
      "midi": 59,
      "hit": false,
      "t": 22241.362999999994,
      "d": 306.0342583333295,
      "v": 119
    },
    {
      "midi": 60,
      "hit": false,
      "t": 22262.91470833333,
      "d": 49.56892916666766,
      "v": 92
    },
    {
      "midi": 60,
      "hit": false,
      "t": 22521.53520833333,
      "d": 105.60337083333434,
      "v": 127
    },
    {
      "midi": 29,
      "hit": false,
      "t": 22758.60399999999,
      "d": 168.10332500000004,
      "v": 106
    },
    {
      "midi": 65,
      "hit": false,
      "t": 22758.60399999999,
      "d": 193.96537499999977,
      "v": 116
    },
    {
      "midi": 57,
      "hit": false,
      "t": 22758.60399999999,
      "d": 196.12054583333156,
      "v": 114
    },
    {
      "midi": 60,
      "hit": false,
      "t": 22758.60399999999,
      "d": 202.58605833333058,
      "v": 110
    },
    {
      "midi": 41,
      "hit": false,
      "t": 22758.60399999999,
      "d": 237.06879166666477,
      "v": 110
    },
    {
      "midi": 60,
      "hit": false,
      "t": 22780.155708333332,
      "d": 68.96546666666836,
      "v": 127
    },
    {
      "midi": 60,
      "hit": false,
      "t": 23038.776208333333,
      "d": 49.56892916666766,
      "v": 106
    },
    {
      "midi": 60,
      "hit": false,
      "t": 23297.396708333334,
      "d": 71.12063750000016,
      "v": 127
    },
    {
      "midi": 41,
      "hit": false,
      "t": 23534.465499999988,
      "d": 107.75854166666613,
      "v": 116
    },
    {
      "midi": 65,
      "hit": false,
      "t": 23534.465499999988,
      "d": 150.86195833333113,
      "v": 112
    },
    {
      "midi": 57,
      "hit": false,
      "t": 23534.465499999988,
      "d": 155.17229999999836,
      "v": 116
    },
    {
      "midi": 60,
      "hit": false,
      "t": 23534.465499999988,
      "d": 170.25849583333184,
      "v": 112
    },
    {
      "midi": 60,
      "hit": false,
      "t": 23556.017208333335,
      "d": 40.9482458333332,
      "v": 103
    },
    {
      "midi": 55,
      "hit": false,
      "t": 23793.085999999985,
      "d": 176.7240083333345,
      "v": 116
    },
    {
      "midi": 28,
      "hit": false,
      "t": 23793.085999999985,
      "d": 181.03435000000172,
      "v": 114
    },
    {
      "midi": 64,
      "hit": false,
      "t": 23793.085999999985,
      "d": 183.18952083333352,
      "v": 116
    },
    {
      "midi": 60,
      "hit": false,
      "t": 23793.085999999985,
      "d": 202.58605833333422,
      "v": 112
    },
    {
      "midi": 40,
      "hit": false,
      "t": 23793.085999999985,
      "d": 217.6722541666677,
      "v": 102
    },
    {
      "midi": 60,
      "hit": false,
      "t": 23814.637708333335,
      "d": 19.396537500000704,
      "v": 116
    },
    {
      "midi": 60,
      "hit": false,
      "t": 24073.258208333336,
      "d": 12.931025000001682,
      "v": 126
    },
    {
      "midi": 60,
      "hit": false,
      "t": 24331.878708333337,
      "d": 49.56892916666766,
      "v": 127
    },
    {
      "midi": 40,
      "hit": false,
      "t": 24568.947499999987,
      "d": 107.75854166666613,
      "v": 110
    },
    {
      "midi": 64,
      "hit": false,
      "t": 24568.947499999987,
      "d": 127.15507916666684,
      "v": 117
    },
    {
      "midi": 60,
      "hit": false,
      "t": 24568.947499999987,
      "d": 135.7757625000013,
      "v": 110
    },
    {
      "midi": 55,
      "hit": false,
      "t": 24568.947499999987,
      "d": 140.08610416666852,
      "v": 114
    },
    {
      "midi": 60,
      "hit": false,
      "t": 24590.499208333338,
      "d": 21.5517083333325,
      "v": 118
    },
    {
      "midi": 26,
      "hit": false,
      "t": 24827.56799999999,
      "d": 127.15507916666684,
      "v": 108
    },
    {
      "midi": 62,
      "hit": false,
      "t": 24827.56799999999,
      "d": 172.41366666666727,
      "v": 118
    },
    {
      "midi": 53,
      "hit": false,
      "t": 24827.56799999999,
      "d": 183.18952083333352,
      "v": 114
    },
    {
      "midi": 57,
      "hit": false,
      "t": 24827.56799999999,
      "d": 189.65503333333254,
      "v": 117
    },
    {
      "midi": 38,
      "hit": false,
      "t": 24827.56799999999,
      "d": 215.51708333333227,
      "v": 104
    },
    {
      "midi": 60,
      "hit": false,
      "t": 24849.11970833334,
      "d": 15.086195833333477,
      "v": 110
    },
    {
      "midi": 60,
      "hit": false,
      "t": 25107.74020833334,
      "d": 19.396537500000704,
      "v": 122
    },
    {
      "midi": 60,
      "hit": false,
      "t": 25366.36070833334,
      "d": 135.7757625000013,
      "v": 127
    },
    {
      "midi": 38,
      "hit": false,
      "t": 25603.429499999987,
      "d": 96.98268749999988,
      "v": 112
    },
    {
      "midi": 57,
      "hit": false,
      "t": 25603.429499999987,
      "d": 114.22405416666516,
      "v": 116
    },
    {
      "midi": 62,
      "hit": false,
      "t": 25603.429499999987,
      "d": 122.84473749999961,
      "v": 117
    },
    {
      "midi": 53,
      "hit": false,
      "t": 25603.429499999987,
      "d": 131.46542083333406,
      "v": 112
    },
    {
      "midi": 60,
      "hit": false,
      "t": 25624.98120833334,
      "d": 43.103416666665,
      "v": 84
    },
    {
      "midi": 24,
      "hit": false,
      "t": 25862.04999999999,
      "d": 103.4481999999989,
      "v": 114
    },
    {
      "midi": 36,
      "hit": false,
      "t": 25862.04999999999,
      "d": 135.77576249999765,
      "v": 110
    },
    {
      "midi": 52,
      "hit": false,
      "t": 25862.04999999999,
      "d": 135.77576249999765,
      "v": 119
    },
    {
      "midi": 60,
      "hit": false,
      "t": 25862.04999999999,
      "d": 161.63781249999738,
      "v": 118
    },
    {
      "midi": 55,
      "hit": false,
      "t": 25862.04999999999,
      "d": 163.79298333332918,
      "v": 119
    },
    {
      "midi": 60,
      "hit": false,
      "t": 25883.60170833334,
      "d": 38.79307500000141,
      "v": 116
    },
    {
      "midi": 36,
      "hit": false,
      "t": 26120.670499999986,
      "d": 88.36200416666543,
      "v": 96
    },
    {
      "midi": 60,
      "hit": false,
      "t": 26120.670499999986,
      "d": 94.82751666666445,
      "v": 98
    },
    {
      "midi": 53,
      "hit": false,
      "t": 26120.670499999986,
      "d": 107.75854166666613,
      "v": 112
    },
    {
      "midi": 60,
      "hit": false,
      "t": 26142.22220833334,
      "d": 120.68956666666782,
      "v": 127
    },
    {
      "midi": 40,
      "hit": false,
      "t": 26379.290999999987,
      "d": 301.7239166666659,
      "v": 119
    },
    {
      "midi": 55,
      "hit": false,
      "t": 26379.290999999987,
      "d": 321.1204541666666,
      "v": 122
    },
    {
      "midi": 60,
      "hit": false,
      "t": 26379.290999999987,
      "d": 338.3618208333319,
      "v": 120
    },
    {
      "midi": 60,
      "hit": false,
      "t": 26400.84270833334,
      "d": 49.56892916666766,
      "v": 89
    },
    {
      "midi": 38,
      "hit": false,
      "t": 26637.911499999987,
      "d": 25.862049999999726,
      "v": 96
    },
    {
      "midi": 60,
      "hit": false,
      "t": 26659.46320833334,
      "d": 30.172391666666954,
      "v": 122
    },
    {
      "midi": 41,
      "hit": false,
      "t": 26896.531999999985,
      "d": 193.96537499999613,
      "v": 118
    },
    {
      "midi": 60,
      "hit": false,
      "t": 26896.531999999985,
      "d": 206.8963999999978,
      "v": 119
    },
    {
      "midi": 57,
      "hit": false,
      "t": 26896.531999999985,
      "d": 211.20674166666504,
      "v": 120
    },
    {
      "midi": 65,
      "hit": false,
      "t": 26896.531999999985,
      "d": 215.51708333333227,
      "v": 119
    },
    {
      "midi": 60,
      "hit": false,
      "t": 26918.083708333343,
      "d": 43.103416666665,
      "v": 127
    },
    {
      "midi": 29,
      "hit": false,
      "t": 27025.842249999983,
      "d": 28.01722083333152,
      "v": 65
    },
    {
      "midi": 60,
      "hit": false,
      "t": 27176.70420833334,
      "d": 25.862049999999726,
      "v": 82
    },
    {
      "midi": 60,
      "hit": false,
      "t": 27435.32470833334,
      "d": 64.65512500000114,
      "v": 127
    },
    {
      "midi": 57,
      "hit": false,
      "t": 27672.393499999984,
      "d": 183.18952083332988,
      "v": 114
    },
    {
      "midi": 65,
      "hit": false,
      "t": 27672.393499999984,
      "d": 185.34469166666167,
      "v": 116
    },
    {
      "midi": 29,
      "hit": false,
      "t": 27672.393499999984,
      "d": 191.8102041666607,
      "v": 106
    },
    {
      "midi": 41,
      "hit": false,
      "t": 27672.393499999984,
      "d": 200.43088749999515,
      "v": 116
    },
    {
      "midi": 60,
      "hit": false,
      "t": 27693.94520833334,
      "d": 47.413758333332225,
      "v": 120
    },
    {
      "midi": 60,
      "hit": false,
      "t": 27801.703749999982,
      "d": 2.1551708333317947,
      "v": 108
    },
    {
      "midi": 28,
      "hit": false,
      "t": 27931.013999999977,
      "d": 107.75854166666613,
      "v": 114
    },
    {
      "midi": 64,
      "hit": false,
      "t": 27931.013999999977,
      "d": 185.3446916666653,
      "v": 116
    },
    {
      "midi": 55,
      "hit": false,
      "t": 27931.013999999977,
      "d": 187.4998624999971,
      "v": 116
    },
    {
      "midi": 40,
      "hit": false,
      "t": 27931.013999999977,
      "d": 189.6550333333289,
      "v": 110
    },
    {
      "midi": 60,
      "hit": false,
      "t": 27931.013999999977,
      "d": 209.0515708333296,
      "v": 114
    },
    {
      "midi": 60,
      "hit": false,
      "t": 27952.56570833334,
      "d": 45.25858750000043,
      "v": 127
    },
    {
      "midi": 60,
      "hit": false,
      "t": 28211.18620833334,
      "d": 17.24136666666527,
      "v": 110
    },
    {
      "midi": 60,
      "hit": false,
      "t": 28469.806708333337,
      "d": 51.72409999999945,
      "v": 127
    },
    {
      "midi": 28,
      "hit": false,
      "t": 28706.875499999973,
      "d": 64.65512500000114,
      "v": 100
    },
    {
      "midi": 64,
      "hit": false,
      "t": 28706.875499999973,
      "d": 99.13785833333532,
      "v": 108
    },
    {
      "midi": 60,
      "hit": false,
      "t": 28706.875499999973,
      "d": 105.60337083333434,
      "v": 106
    },
    {
      "midi": 55,
      "hit": false,
      "t": 28706.875499999973,
      "d": 116.37922500000059,
      "v": 110
    },
    {
      "midi": 40,
      "hit": false,
      "t": 28706.875499999973,
      "d": 120.68956666666782,
      "v": 104
    },
    {
      "midi": 60,
      "hit": false,
      "t": 28728.427208333338,
      "d": 19.396537500000704,
      "v": 78
    },
    {
      "midi": 53,
      "hit": false,
      "t": 28965.495999999974,
      "d": 142.24127500000031,
      "v": 118
    },
    {
      "midi": 62,
      "hit": false,
      "t": 28965.495999999974,
      "d": 170.25849583333184,
      "v": 118
    },
    {
      "midi": 57,
      "hit": false,
      "t": 28965.495999999974,
      "d": 181.03434999999808,
      "v": 120
    },
    {
      "midi": 38,
      "hit": false,
      "t": 28965.495999999974,
      "d": 196.12054583333156,
      "v": 119
    },
    {
      "midi": 60,
      "hit": false,
      "t": 28987.04770833334,
      "d": 40.9482458333332,
      "v": 108
    },
    {
      "midi": 62,
      "hit": false,
      "t": 29224.11649999997,
      "d": 64.65512500000114,
      "v": 88
    },
    {
      "midi": 40,
      "hit": false,
      "t": 29224.11649999997,
      "d": 79.74132083333461,
      "v": 110
    },
    {
      "midi": 55,
      "hit": false,
      "t": 29224.11649999997,
      "d": 96.98268749999988,
      "v": 112
    },
    {
      "midi": 59,
      "hit": false,
      "t": 29224.11649999997,
      "d": 101.29302916666711,
      "v": 108
    },
    {
      "midi": 60,
      "hit": false,
      "t": 29245.66820833334,
      "d": 25.862049999999726,
      "v": 88
    },
    {
      "midi": 41,
      "hit": false,
      "t": 29482.736999999972,
      "d": 342.6721624999991,
      "v": 118
    },
    {
      "midi": 62,
      "hit": false,
      "t": 29482.736999999972,
      "d": 344.8273333333309,
      "v": 119
    },
    {
      "midi": 57,
      "hit": false,
      "t": 29482.736999999972,
      "d": 366.3790416666634,
      "v": 122
    },
    {
      "midi": 60,
      "hit": false,
      "t": 29504.28870833334,
      "d": 53.879270833334886,
      "v": 127
    },
    {
      "midi": 24,
      "hit": false,
      "t": 29999.97799999997,
      "d": 64.65512500000114,
      "v": 114
    },
    {
      "midi": 36,
      "hit": false,
      "t": 29999.97799999997,
      "d": 77.58615000000282,
      "v": 117
    },
    {
      "midi": 52,
      "hit": false,
      "t": 29999.97799999997,
      "d": 120.68956666666782,
      "v": 119
    },
    {
      "midi": 55,
      "hit": false,
      "t": 29999.97799999997,
      "d": 124.99990833333504,
      "v": 119
    },
    {
      "midi": 60,
      "hit": false,
      "t": 29999.97799999997,
      "d": 127.15507916666684,
      "v": 119
    },
    {
      "midi": 60,
      "hit": false,
      "t": 30021.529708333343,
      "d": 32.32756249999875,
      "v": 98
    },
    {
      "midi": 26,
      "hit": false,
      "t": 30258.59849999997,
      "d": 60.34478333333391,
      "v": 104
    },
    {
      "midi": 38,
      "hit": false,
      "t": 30258.59849999997,
      "d": 75.43097916666738,
      "v": 112
    },
    {
      "midi": 53,
      "hit": false,
      "t": 30258.59849999997,
      "d": 96.98268749999988,
      "v": 108
    },
    {
      "midi": 57,
      "hit": false,
      "t": 30258.59849999997,
      "d": 101.29302916666711,
      "v": 110
    },
    {
      "midi": 62,
      "hit": false,
      "t": 30258.59849999997,
      "d": 103.4481999999989,
      "v": 108
    },
    {
      "midi": 60,
      "hit": false,
      "t": 30280.15020833334,
      "d": 176.7240083333345,
      "v": 127
    },
    {
      "midi": 62,
      "hit": false,
      "t": 30517.21899999997,
      "d": 170.25849583333184,
      "v": 110
    },
    {
      "midi": 28,
      "hit": false,
      "t": 30517.21899999997,
      "d": 282.3273791666652,
      "v": 106
    },
    {
      "midi": 40,
      "hit": false,
      "t": 30517.21899999997,
      "d": 293.10323333333145,
      "v": 117
    },
    {
      "midi": 55,
      "hit": false,
      "t": 30517.21899999997,
      "d": 301.7239166666659,
      "v": 119
    },
    {
      "midi": 64,
      "hit": false,
      "t": 30517.21899999997,
      "d": 303.8790874999977,
      "v": 110
    },
    {
      "midi": 59,
      "hit": false,
      "t": 30517.21899999997,
      "d": 306.0342583333295,
      "v": 119
    },
    {
      "midi": 60,
      "hit": false,
      "t": 30538.77070833334,
      "d": 49.56892916666766,
      "v": 92
    },
    {
      "midi": 60,
      "hit": false,
      "t": 30797.39120833334,
      "d": 105.60337083333434,
      "v": 127
    },
    {
      "midi": 29,
      "hit": false,
      "t": 31034.459999999963,
      "d": 168.10332500000004,
      "v": 106
    },
    {
      "midi": 65,
      "hit": false,
      "t": 31034.459999999963,
      "d": 193.96537499999977,
      "v": 116
    },
    {
      "midi": 57,
      "hit": false,
      "t": 31034.459999999963,
      "d": 196.12054583333156,
      "v": 114
    },
    {
      "midi": 60,
      "hit": false,
      "t": 31034.459999999963,
      "d": 202.58605833333058,
      "v": 110
    },
    {
      "midi": 41,
      "hit": false,
      "t": 31034.459999999963,
      "d": 237.06879166666477,
      "v": 110
    },
    {
      "midi": 60,
      "hit": false,
      "t": 31056.011708333343,
      "d": 68.96546666666836,
      "v": 127
    },
    {
      "midi": 60,
      "hit": false,
      "t": 31314.632208333343,
      "d": 49.56892916666766,
      "v": 106
    },
    {
      "midi": 60,
      "hit": false,
      "t": 31573.252708333344,
      "d": 71.12063750000016,
      "v": 127
    },
    {
      "midi": 41,
      "hit": false,
      "t": 31810.32149999996,
      "d": 107.75854166666613,
      "v": 116
    },
    {
      "midi": 65,
      "hit": false,
      "t": 31810.32149999996,
      "d": 150.86195833333113,
      "v": 112
    },
    {
      "midi": 57,
      "hit": false,
      "t": 31810.32149999996,
      "d": 155.17229999999836,
      "v": 116
    },
    {
      "midi": 60,
      "hit": false,
      "t": 31810.32149999996,
      "d": 170.25849583333184,
      "v": 112
    },
    {
      "midi": 60,
      "hit": false,
      "t": 31831.873208333345,
      "d": 40.9482458333332,
      "v": 103
    },
    {
      "midi": 55,
      "hit": false,
      "t": 32068.94199999996,
      "d": 176.7240083333345,
      "v": 116
    },
    {
      "midi": 28,
      "hit": false,
      "t": 32068.94199999996,
      "d": 181.03435000000172,
      "v": 114
    },
    {
      "midi": 64,
      "hit": false,
      "t": 32068.94199999996,
      "d": 183.18952083333352,
      "v": 116
    },
    {
      "midi": 60,
      "hit": false,
      "t": 32068.94199999996,
      "d": 202.58605833333422,
      "v": 112
    },
    {
      "midi": 40,
      "hit": false,
      "t": 32068.94199999996,
      "d": 217.6722541666677,
      "v": 102
    },
    {
      "midi": 60,
      "hit": false,
      "t": 32090.493708333346,
      "d": 19.396537500000704,
      "v": 116
    },
    {
      "midi": 60,
      "hit": false,
      "t": 32349.114208333347,
      "d": 12.931025000001682,
      "v": 126
    },
    {
      "midi": 60,
      "hit": false,
      "t": 32607.734708333348,
      "d": 49.56892916666766,
      "v": 127
    },
    {
      "midi": 40,
      "hit": false,
      "t": 32844.80349999996,
      "d": 107.75854166666977,
      "v": 110
    },
    {
      "midi": 64,
      "hit": false,
      "t": 32844.80349999996,
      "d": 127.15507916666684,
      "v": 117
    },
    {
      "midi": 60,
      "hit": false,
      "t": 32844.80349999996,
      "d": 135.7757625000013,
      "v": 110
    },
    {
      "midi": 55,
      "hit": false,
      "t": 32844.80349999996,
      "d": 140.08610416666488,
      "v": 114
    },
    {
      "midi": 60,
      "hit": false,
      "t": 32866.35520833335,
      "d": 21.5517083333325,
      "v": 118
    },
    {
      "midi": 26,
      "hit": false,
      "t": 33103.423999999955,
      "d": 127.15507916666684,
      "v": 108
    },
    {
      "midi": 62,
      "hit": false,
      "t": 33103.423999999955,
      "d": 172.41366666666727,
      "v": 118
    },
    {
      "midi": 53,
      "hit": false,
      "t": 33103.423999999955,
      "d": 183.18952083333716,
      "v": 114
    },
    {
      "midi": 57,
      "hit": false,
      "t": 33103.423999999955,
      "d": 189.65503333333618,
      "v": 117
    },
    {
      "midi": 38,
      "hit": false,
      "t": 33103.423999999955,
      "d": 215.51708333333954,
      "v": 104
    },
    {
      "midi": 60,
      "hit": false,
      "t": 33124.975708333346,
      "d": 15.086195833333477,
      "v": 110
    },
    {
      "midi": 60,
      "hit": false,
      "t": 33383.59620833334,
      "d": 19.396537499997066,
      "v": 122
    },
    {
      "midi": 60,
      "hit": false,
      "t": 33642.21670833334,
      "d": 135.7757625000013,
      "v": 127
    },
    {
      "midi": 38,
      "hit": false,
      "t": 33879.28549999996,
      "d": 96.98268749999988,
      "v": 112
    },
    {
      "midi": 57,
      "hit": false,
      "t": 33879.28549999996,
      "d": 114.2240541666688,
      "v": 116
    },
    {
      "midi": 62,
      "hit": false,
      "t": 33879.28549999996,
      "d": 122.84473750000325,
      "v": 117
    },
    {
      "midi": 53,
      "hit": false,
      "t": 33879.28549999996,
      "d": 131.4654208333377,
      "v": 112
    },
    {
      "midi": 60,
      "hit": false,
      "t": 33900.837208333345,
      "d": 43.103416666665,
      "v": 84
    },
    {
      "midi": 24,
      "hit": false,
      "t": 34137.905999999966,
      "d": 103.4481999999989,
      "v": 114
    },
    {
      "midi": 36,
      "hit": false,
      "t": 34137.905999999966,
      "d": 135.7757625000013,
      "v": 110
    },
    {
      "midi": 52,
      "hit": false,
      "t": 34137.905999999966,
      "d": 135.7757625000013,
      "v": 119
    },
    {
      "midi": 60,
      "hit": false,
      "t": 34137.905999999966,
      "d": 161.63781250000466,
      "v": 118
    },
    {
      "midi": 55,
      "hit": false,
      "t": 34137.905999999966,
      "d": 163.7929833333401,
      "v": 119
    },
    {
      "midi": 60,
      "hit": false,
      "t": 34159.45770833334,
      "d": 38.79307500000141,
      "v": 116
    },
    {
      "midi": 36,
      "hit": false,
      "t": 34396.52649999997,
      "d": 88.36200416666543,
      "v": 96
    },
    {
      "midi": 60,
      "hit": false,
      "t": 34396.52649999997,
      "d": 94.82751666666445,
      "v": 98
    },
    {
      "midi": 53,
      "hit": false,
      "t": 34396.52649999997,
      "d": 107.7585416666625,
      "v": 112
    },
    {
      "midi": 60,
      "hit": false,
      "t": 34418.07820833335,
      "d": 120.68956666666782,
      "v": 127
    },
    {
      "midi": 40,
      "hit": false,
      "t": 34655.14699999997,
      "d": 301.72391666666954,
      "v": 119
    },
    {
      "midi": 55,
      "hit": false,
      "t": 34655.14699999997,
      "d": 321.1204541666666,
      "v": 122
    },
    {
      "midi": 60,
      "hit": false,
      "t": 34655.14699999997,
      "d": 338.3618208333355,
      "v": 120
    },
    {
      "midi": 60,
      "hit": false,
      "t": 34676.69870833335,
      "d": 49.56892916666402,
      "v": 89
    },
    {
      "midi": 38,
      "hit": false,
      "t": 34913.767499999965,
      "d": 25.862050000003364,
      "v": 96
    },
    {
      "midi": 60,
      "hit": false,
      "t": 34935.31920833335,
      "d": 30.172391666666954,
      "v": 122
    },
    {
      "midi": 41,
      "hit": false,
      "t": 35172.38799999997,
      "d": 193.96537499999977,
      "v": 118
    },
    {
      "midi": 60,
      "hit": false,
      "t": 35172.38799999997,
      "d": 206.8963999999978,
      "v": 119
    },
    {
      "midi": 57,
      "hit": false,
      "t": 35172.38799999997,
      "d": 211.2067416666614,
      "v": 120
    },
    {
      "midi": 65,
      "hit": false,
      "t": 35172.38799999997,
      "d": 215.517083333325,
      "v": 119
    },
    {
      "midi": 60,
      "hit": false,
      "t": 35193.939708333346,
      "d": 43.103416666665,
      "v": 127
    },
    {
      "midi": 29,
      "hit": false,
      "t": 35301.69824999997,
      "d": 28.01722083333152,
      "v": 65
    },
    {
      "midi": 60,
      "hit": false,
      "t": 35452.56020833334,
      "d": 25.862050000003364,
      "v": 82
    },
    {
      "midi": 60,
      "hit": false,
      "t": 35711.18070833335,
      "d": 64.6551249999975,
      "v": 127
    },
    {
      "midi": 57,
      "hit": false,
      "t": 35948.24949999996,
      "d": 183.18952083333716,
      "v": 114
    },
    {
      "midi": 65,
      "hit": false,
      "t": 35948.24949999996,
      "d": 185.3446916666726,
      "v": 116
    },
    {
      "midi": 29,
      "hit": false,
      "t": 35948.24949999996,
      "d": 191.8102041666716,
      "v": 106
    },
    {
      "midi": 41,
      "hit": false,
      "t": 35948.24949999996,
      "d": 200.43088750000607,
      "v": 116
    },
    {
      "midi": 60,
      "hit": false,
      "t": 35969.801208333345,
      "d": 47.41375833333586,
      "v": 120
    },
    {
      "midi": 60,
      "hit": false,
      "t": 36077.559749999964,
      "d": 2.1551708333354327,
      "v": 108
    },
    {
      "midi": 28,
      "hit": false,
      "t": 36206.869999999966,
      "d": 107.75854166666977,
      "v": 114
    },
    {
      "midi": 64,
      "hit": false,
      "t": 36206.869999999966,
      "d": 185.3446916666726,
      "v": 116
    },
    {
      "midi": 55,
      "hit": false,
      "t": 36206.869999999966,
      "d": 187.49986250000802,
      "v": 116
    },
    {
      "midi": 40,
      "hit": false,
      "t": 36206.869999999966,
      "d": 189.65503333334345,
      "v": 110
    },
    {
      "midi": 60,
      "hit": false,
      "t": 36206.869999999966,
      "d": 209.05157083334052,
      "v": 114
    },
    {
      "midi": 60,
      "hit": false,
      "t": 36228.42170833335,
      "d": 45.25858750000043,
      "v": 127
    },
    {
      "midi": 60,
      "hit": false,
      "t": 36487.04220833335,
      "d": 17.24136666666891,
      "v": 110
    },
    {
      "midi": 60,
      "hit": false,
      "t": 36745.66270833335,
      "d": 51.72409999999945,
      "v": 127
    },
    {
      "midi": 28,
      "hit": false,
      "t": 36982.73149999997,
      "d": 64.6551249999975,
      "v": 100
    },
    {
      "midi": 64,
      "hit": false,
      "t": 36982.73149999997,
      "d": 99.13785833332804,
      "v": 108
    },
    {
      "midi": 60,
      "hit": false,
      "t": 36982.73149999997,
      "d": 105.60337083332706,
      "v": 106
    },
    {
      "midi": 55,
      "hit": false,
      "t": 36982.73149999997,
      "d": 116.37922499999695,
      "v": 110
    },
    {
      "midi": 40,
      "hit": false,
      "t": 36982.73149999997,
      "d": 120.68956666666054,
      "v": 104
    },
    {
      "midi": 60,
      "hit": false,
      "t": 37004.28320833335,
      "d": 19.396537499997066,
      "v": 78
    },
    {
      "midi": 53,
      "hit": false,
      "t": 37241.35199999997,
      "d": 142.24127500000031,
      "v": 118
    },
    {
      "midi": 62,
      "hit": false,
      "t": 37241.35199999997,
      "d": 170.25849583333184,
      "v": 118
    },
    {
      "midi": 57,
      "hit": false,
      "t": 37241.35199999997,
      "d": 181.03435000000172,
      "v": 120
    },
    {
      "midi": 38,
      "hit": false,
      "t": 37241.35199999997,
      "d": 196.1205458333352,
      "v": 119
    },
    {
      "midi": 60,
      "hit": false,
      "t": 37262.903708333346,
      "d": 40.94824583333684,
      "v": 108
    },
    {
      "midi": 62,
      "hit": false,
      "t": 37499.972499999974,
      "d": 64.6551249999975,
      "v": 88
    },
    {
      "midi": 40,
      "hit": false,
      "t": 37499.972499999974,
      "d": 79.74132083333097,
      "v": 110
    },
    {
      "midi": 55,
      "hit": false,
      "t": 37499.972499999974,
      "d": 96.98268749999988,
      "v": 112
    },
    {
      "midi": 59,
      "hit": false,
      "t": 37499.972499999974,
      "d": 101.29302916666347,
      "v": 108
    },
    {
      "midi": 60,
      "hit": false,
      "t": 37521.52420833335,
      "d": 25.862050000003364,
      "v": 88
    },
    {
      "midi": 41,
      "hit": false,
      "t": 37758.59299999997,
      "d": 342.6721624999991,
      "v": 118
    },
    {
      "midi": 62,
      "hit": false,
      "t": 37758.59299999997,
      "d": 344.82733333333454,
      "v": 119
    },
    {
      "midi": 57,
      "hit": false,
      "t": 37758.59299999997,
      "d": 366.37904166666704,
      "v": 122
    },
    {
      "midi": 60,
      "hit": false,
      "t": 37780.144708333355,
      "d": 53.879270833334886,
      "v": 127
    },
    {
      "midi": 24,
      "hit": false,
      "t": 38275.83399999997,
      "d": 64.6551249999975,
      "v": 114
    },
    {
      "midi": 36,
      "hit": false,
      "t": 38275.83399999997,
      "d": 77.58614999999554,
      "v": 117
    },
    {
      "midi": 52,
      "hit": false,
      "t": 38275.83399999997,
      "d": 120.68956666666054,
      "v": 119
    },
    {
      "midi": 55,
      "hit": false,
      "t": 38275.83399999997,
      "d": 124.99990833332413,
      "v": 119
    },
    {
      "midi": 60,
      "hit": false,
      "t": 38275.83399999997,
      "d": 127.15507916665956,
      "v": 119
    },
    {
      "midi": 60,
      "hit": false,
      "t": 38297.38570833336,
      "d": 32.32756250000239,
      "v": 98
    },
    {
      "midi": 26,
      "hit": false,
      "t": 38534.45449999996,
      "d": 60.34478333333391,
      "v": 104
    },
    {
      "midi": 38,
      "hit": false,
      "t": 38534.45449999996,
      "d": 75.43097916666738,
      "v": 112
    },
    {
      "midi": 53,
      "hit": false,
      "t": 38534.45449999996,
      "d": 96.98268749999988,
      "v": 108
    },
    {
      "midi": 57,
      "hit": false,
      "t": 38534.45449999996,
      "d": 101.29302916666347,
      "v": 110
    },
    {
      "midi": 62,
      "hit": false,
      "t": 38534.45449999996,
      "d": 103.4481999999989,
      "v": 108
    },
    {
      "midi": 60,
      "hit": false,
      "t": 38556.00620833336,
      "d": 176.72400833333086,
      "v": 127
    },
    {
      "midi": 62,
      "hit": false,
      "t": 38793.07499999996,
      "d": 170.25849583333184,
      "v": 110
    },
    {
      "midi": 28,
      "hit": false,
      "t": 38793.07499999996,
      "d": 282.3273791666652,
      "v": 106
    },
    {
      "midi": 40,
      "hit": false,
      "t": 38793.07499999996,
      "d": 293.1032333333351,
      "v": 117
    },
    {
      "midi": 55,
      "hit": false,
      "t": 38793.07499999996,
      "d": 301.72391666666954,
      "v": 119
    },
    {
      "midi": 64,
      "hit": false,
      "t": 38793.07499999996,
      "d": 303.87908750000497,
      "v": 110
    },
    {
      "midi": 59,
      "hit": false,
      "t": 38793.07499999996,
      "d": 306.0342583333404,
      "v": 119
    },
    {
      "midi": 60,
      "hit": false,
      "t": 38814.62670833336,
      "d": 49.56892916666402,
      "v": 92
    },
    {
      "midi": 60,
      "hit": false,
      "t": 39073.247208333356,
      "d": 105.60337083333434,
      "v": 127
    },
    {
      "midi": 29,
      "hit": false,
      "t": 39310.31599999997,
      "d": 168.1033249999964,
      "v": 106
    },
    {
      "midi": 65,
      "hit": false,
      "t": 39310.31599999997,
      "d": 193.96537499999977,
      "v": 116
    },
    {
      "midi": 57,
      "hit": false,
      "t": 39310.31599999997,
      "d": 196.1205458333352,
      "v": 114
    },
    {
      "midi": 60,
      "hit": false,
      "t": 39310.31599999997,
      "d": 202.58605833333422,
      "v": 110
    },
    {
      "midi": 41,
      "hit": false,
      "t": 39310.31599999997,
      "d": 237.06879166666477,
      "v": 110
    },
    {
      "midi": 60,
      "hit": false,
      "t": 39331.86770833336,
      "d": 68.96546666666836,
      "v": 127
    },
    {
      "midi": 60,
      "hit": false,
      "t": 39590.488208333365,
      "d": 49.56892916666402,
      "v": 106
    },
    {
      "midi": 60,
      "hit": false,
      "t": 39849.10870833336,
      "d": 71.12063749999652,
      "v": 127
    },
    {
      "midi": 41,
      "hit": false,
      "t": 40086.17749999997,
      "d": 107.75854166666977,
      "v": 116
    },
    {
      "midi": 65,
      "hit": false,
      "t": 40086.17749999997,
      "d": 150.86195833333477,
      "v": 112
    },
    {
      "midi": 57,
      "hit": false,
      "t": 40086.17749999997,
      "d": 155.17229999999836,
      "v": 116
    },
    {
      "midi": 60,
      "hit": false,
      "t": 40086.17749999997,
      "d": 170.25849583333184,
      "v": 112
    },
    {
      "midi": 60,
      "hit": false,
      "t": 40107.72920833336,
      "d": 40.94824583333684,
      "v": 103
    },
    {
      "midi": 55,
      "hit": false,
      "t": 40344.797999999966,
      "d": 176.72400833333086,
      "v": 116
    },
    {
      "midi": 28,
      "hit": false,
      "t": 40344.797999999966,
      "d": 181.03434999999445,
      "v": 114
    },
    {
      "midi": 64,
      "hit": false,
      "t": 40344.797999999966,
      "d": 183.18952083332988,
      "v": 116
    },
    {
      "midi": 60,
      "hit": false,
      "t": 40344.797999999966,
      "d": 202.58605833332695,
      "v": 112
    },
    {
      "midi": 40,
      "hit": false,
      "t": 40344.797999999966,
      "d": 217.67225416666042,
      "v": 102
    },
    {
      "midi": 60,
      "hit": false,
      "t": 40366.349708333364,
      "d": 19.396537499997066,
      "v": 116
    },
    {
      "midi": 60,
      "hit": false,
      "t": 40624.97020833336,
      "d": 12.931024999998044,
      "v": 126
    },
    {
      "midi": 60,
      "hit": false,
      "t": 40883.59070833336,
      "d": 49.56892916666402,
      "v": 127
    },
    {
      "midi": 40,
      "hit": false,
      "t": 41120.65949999996,
      "d": 107.75854166666977,
      "v": 110
    },
    {
      "midi": 64,
      "hit": false,
      "t": 41120.65949999996,
      "d": 127.15507916666684,
      "v": 117
    },
    {
      "midi": 60,
      "hit": false,
      "t": 41120.65949999996,
      "d": 135.7757625000013,
      "v": 110
    },
    {
      "midi": 55,
      "hit": false,
      "t": 41120.65949999996,
      "d": 140.08610416666488,
      "v": 114
    },
    {
      "midi": 60,
      "hit": false,
      "t": 41142.211208333356,
      "d": 21.5517083333325,
      "v": 118
    },
    {
      "midi": 26,
      "hit": false,
      "t": 41379.279999999955,
      "d": 127.15507916666684,
      "v": 108
    },
    {
      "midi": 62,
      "hit": false,
      "t": 41379.279999999955,
      "d": 172.41366666666727,
      "v": 118
    },
    {
      "midi": 53,
      "hit": false,
      "t": 41379.279999999955,
      "d": 183.18952083333716,
      "v": 114
    },
    {
      "midi": 57,
      "hit": false,
      "t": 41379.279999999955,
      "d": 189.65503333333618,
      "v": 117
    },
    {
      "midi": 38,
      "hit": false,
      "t": 41379.279999999955,
      "d": 215.51708333333954,
      "v": 104
    },
    {
      "midi": 60,
      "hit": false,
      "t": 41400.83170833335,
      "d": 15.086195833333477,
      "v": 110
    },
    {
      "midi": 60,
      "hit": false,
      "t": 41659.45220833335,
      "d": 19.396537499997066,
      "v": 122
    },
    {
      "midi": 60,
      "hit": false,
      "t": 41918.07270833335,
      "d": 135.7757625000013,
      "v": 127
    },
    {
      "midi": 38,
      "hit": false,
      "t": 42155.14149999996,
      "d": 96.98268749999988,
      "v": 112
    },
    {
      "midi": 57,
      "hit": false,
      "t": 42155.14149999996,
      "d": 114.2240541666688,
      "v": 116
    },
    {
      "midi": 62,
      "hit": false,
      "t": 42155.14149999996,
      "d": 122.84473750000325,
      "v": 117
    },
    {
      "midi": 53,
      "hit": false,
      "t": 42155.14149999996,
      "d": 131.4654208333377,
      "v": 112
    },
    {
      "midi": 60,
      "hit": false,
      "t": 42176.69320833335,
      "d": 43.103416666665,
      "v": 84
    },
    {
      "midi": 24,
      "hit": false,
      "t": 42413.761999999966,
      "d": 103.4481999999989,
      "v": 114
    },
    {
      "midi": 36,
      "hit": false,
      "t": 42413.761999999966,
      "d": 135.7757625000013,
      "v": 110
    },
    {
      "midi": 52,
      "hit": false,
      "t": 42413.761999999966,
      "d": 135.7757625000013,
      "v": 119
    },
    {
      "midi": 60,
      "hit": false,
      "t": 42413.761999999966,
      "d": 161.63781250000466,
      "v": 118
    },
    {
      "midi": 55,
      "hit": false,
      "t": 42413.761999999966,
      "d": 163.7929833333401,
      "v": 119
    },
    {
      "midi": 60,
      "hit": false,
      "t": 42435.31370833335,
      "d": 38.79307500000141,
      "v": 116
    },
    {
      "midi": 36,
      "hit": false,
      "t": 42672.38249999997,
      "d": 88.36200416666543,
      "v": 96
    },
    {
      "midi": 60,
      "hit": false,
      "t": 42672.38249999997,
      "d": 94.82751666666445,
      "v": 98
    },
    {
      "midi": 53,
      "hit": false,
      "t": 42672.38249999997,
      "d": 107.7585416666625,
      "v": 112
    },
    {
      "midi": 60,
      "hit": false,
      "t": 42693.934208333354,
      "d": 120.68956666666782,
      "v": 127
    },
    {
      "midi": 40,
      "hit": false,
      "t": 42931.00299999997,
      "d": 301.72391666666954,
      "v": 119
    },
    {
      "midi": 55,
      "hit": false,
      "t": 42931.00299999997,
      "d": 321.1204541666666,
      "v": 122
    },
    {
      "midi": 60,
      "hit": false,
      "t": 42931.00299999997,
      "d": 338.3618208333355,
      "v": 120
    },
    {
      "midi": 60,
      "hit": false,
      "t": 42952.55470833336,
      "d": 49.56892916666402,
      "v": 89
    },
    {
      "midi": 38,
      "hit": false,
      "t": 43189.623499999965,
      "d": 25.862050000003364,
      "v": 96
    },
    {
      "midi": 60,
      "hit": false,
      "t": 43211.175208333356,
      "d": 30.172391666666954,
      "v": 122
    },
    {
      "midi": 41,
      "hit": false,
      "t": 43448.24399999997,
      "d": 193.96537499999977,
      "v": 118
    },
    {
      "midi": 60,
      "hit": false,
      "t": 43448.24399999997,
      "d": 206.8963999999978,
      "v": 119
    },
    {
      "midi": 57,
      "hit": false,
      "t": 43448.24399999997,
      "d": 211.2067416666614,
      "v": 120
    },
    {
      "midi": 65,
      "hit": false,
      "t": 43448.24399999997,
      "d": 215.517083333325,
      "v": 119
    },
    {
      "midi": 60,
      "hit": false,
      "t": 43469.79570833335,
      "d": 43.103416666665,
      "v": 127
    },
    {
      "midi": 29,
      "hit": false,
      "t": 43577.55424999997,
      "d": 28.01722083333152,
      "v": 65
    },
    {
      "midi": 60,
      "hit": false,
      "t": 43728.41620833335,
      "d": 25.862050000003364,
      "v": 82
    },
    {
      "midi": 60,
      "hit": false,
      "t": 43987.036708333355,
      "d": 64.6551249999975,
      "v": 127
    },
    {
      "midi": 57,
      "hit": false,
      "t": 44224.10549999996,
      "d": 183.18952083333716,
      "v": 114
    },
    {
      "midi": 65,
      "hit": false,
      "t": 44224.10549999996,
      "d": 185.3446916666726,
      "v": 116
    },
    {
      "midi": 29,
      "hit": false,
      "t": 44224.10549999996,
      "d": 191.8102041666716,
      "v": 106
    },
    {
      "midi": 41,
      "hit": false,
      "t": 44224.10549999996,
      "d": 200.43088750000607,
      "v": 116
    },
    {
      "midi": 60,
      "hit": false,
      "t": 44245.65720833335,
      "d": 47.41375833333586,
      "v": 120
    },
    {
      "midi": 60,
      "hit": false,
      "t": 44353.415749999964,
      "d": 2.1551708333354327,
      "v": 108
    },
    {
      "midi": 28,
      "hit": false,
      "t": 44482.725999999966,
      "d": 107.75854166666977,
      "v": 114
    },
    {
      "midi": 64,
      "hit": false,
      "t": 44482.725999999966,
      "d": 185.3446916666726,
      "v": 116
    },
    {
      "midi": 55,
      "hit": false,
      "t": 44482.725999999966,
      "d": 187.49986250000802,
      "v": 116
    },
    {
      "midi": 40,
      "hit": false,
      "t": 44482.725999999966,
      "d": 189.65503333334345,
      "v": 110
    },
    {
      "midi": 60,
      "hit": false,
      "t": 44482.725999999966,
      "d": 209.05157083334052,
      "v": 114
    },
    {
      "midi": 60,
      "hit": false,
      "t": 44504.27770833336,
      "d": 45.25858750000043,
      "v": 127
    },
    {
      "midi": 60,
      "hit": false,
      "t": 44762.898208333354,
      "d": 17.24136666666891,
      "v": 110
    },
    {
      "midi": 60,
      "hit": false,
      "t": 45021.51870833336,
      "d": 51.72409999999945,
      "v": 127
    },
    {
      "midi": 28,
      "hit": false,
      "t": 45258.58749999997,
      "d": 64.6551249999975,
      "v": 100
    },
    {
      "midi": 64,
      "hit": false,
      "t": 45258.58749999997,
      "d": 99.13785833332804,
      "v": 108
    },
    {
      "midi": 60,
      "hit": false,
      "t": 45258.58749999997,
      "d": 105.60337083332706,
      "v": 106
    },
    {
      "midi": 55,
      "hit": false,
      "t": 45258.58749999997,
      "d": 116.37922499999695,
      "v": 110
    },
    {
      "midi": 40,
      "hit": false,
      "t": 45258.58749999997,
      "d": 120.68956666666054,
      "v": 104
    },
    {
      "midi": 60,
      "hit": false,
      "t": 45280.139208333356,
      "d": 19.396537499997066,
      "v": 78
    },
    {
      "midi": 53,
      "hit": false,
      "t": 45517.20799999997,
      "d": 142.24127500000031,
      "v": 118
    },
    {
      "midi": 62,
      "hit": false,
      "t": 45517.20799999997,
      "d": 170.25849583333184,
      "v": 118
    },
    {
      "midi": 57,
      "hit": false,
      "t": 45517.20799999997,
      "d": 181.03435000000172,
      "v": 120
    },
    {
      "midi": 38,
      "hit": false,
      "t": 45517.20799999997,
      "d": 196.1205458333352,
      "v": 119
    },
    {
      "midi": 60,
      "hit": false,
      "t": 45538.75970833335,
      "d": 40.94824583333684,
      "v": 108
    },
    {
      "midi": 62,
      "hit": false,
      "t": 45775.828499999974,
      "d": 64.6551249999975,
      "v": 88
    },
    {
      "midi": 40,
      "hit": false,
      "t": 45775.828499999974,
      "d": 79.74132083333097,
      "v": 110
    },
    {
      "midi": 55,
      "hit": false,
      "t": 45775.828499999974,
      "d": 96.98268749999988,
      "v": 112
    },
    {
      "midi": 59,
      "hit": false,
      "t": 45775.828499999974,
      "d": 101.29302916666347,
      "v": 108
    },
    {
      "midi": 60,
      "hit": false,
      "t": 45797.38020833336,
      "d": 25.862050000003364,
      "v": 88
    },
    {
      "midi": 41,
      "hit": false,
      "t": 46034.44899999997,
      "d": 342.6721624999991,
      "v": 118
    },
    {
      "midi": 62,
      "hit": false,
      "t": 46034.44899999997,
      "d": 344.82733333333454,
      "v": 119
    },
    {
      "midi": 57,
      "hit": false,
      "t": 46034.44899999997,
      "d": 366.37904166666704,
      "v": 122
    },
    {
      "midi": 60,
      "hit": false,
      "t": 46056.00070833336,
      "d": 53.879270833334886,
      "v": 127
    },
    {
      "midi": 24,
      "hit": false,
      "t": 46551.68999999997,
      "d": 64.6551249999975,
      "v": 114
    },
    {
      "midi": 36,
      "hit": false,
      "t": 46551.68999999997,
      "d": 77.58614999999554,
      "v": 117
    },
    {
      "midi": 52,
      "hit": false,
      "t": 46551.68999999997,
      "d": 120.68956666666054,
      "v": 119
    },
    {
      "midi": 55,
      "hit": false,
      "t": 46551.68999999997,
      "d": 124.99990833332413,
      "v": 119
    },
    {
      "midi": 60,
      "hit": false,
      "t": 46551.68999999997,
      "d": 127.15507916665956,
      "v": 119
    },
    {
      "midi": 60,
      "hit": false,
      "t": 46573.241708333364,
      "d": 32.32756250000239,
      "v": 98
    },
    {
      "midi": 26,
      "hit": false,
      "t": 46810.31049999996,
      "d": 60.34478333333391,
      "v": 104
    },
    {
      "midi": 38,
      "hit": false,
      "t": 46810.31049999996,
      "d": 75.43097916666738,
      "v": 112
    },
    {
      "midi": 53,
      "hit": false,
      "t": 46810.31049999996,
      "d": 96.98268749999988,
      "v": 108
    },
    {
      "midi": 57,
      "hit": false,
      "t": 46810.31049999996,
      "d": 101.29302916666347,
      "v": 110
    },
    {
      "midi": 62,
      "hit": false,
      "t": 46810.31049999996,
      "d": 103.4481999999989,
      "v": 108
    },
    {
      "midi": 60,
      "hit": false,
      "t": 46831.86220833337,
      "d": 176.72400833333086,
      "v": 127
    },
    {
      "midi": 62,
      "hit": false,
      "t": 47068.93099999996,
      "d": 170.25849583333184,
      "v": 110
    },
    {
      "midi": 28,
      "hit": false,
      "t": 47068.93099999996,
      "d": 282.3273791666652,
      "v": 106
    },
    {
      "midi": 40,
      "hit": false,
      "t": 47068.93099999996,
      "d": 293.1032333333351,
      "v": 117
    },
    {
      "midi": 55,
      "hit": false,
      "t": 47068.93099999996,
      "d": 301.72391666666954,
      "v": 119
    },
    {
      "midi": 64,
      "hit": false,
      "t": 47068.93099999996,
      "d": 303.87908750000497,
      "v": 110
    },
    {
      "midi": 59,
      "hit": false,
      "t": 47068.93099999996,
      "d": 306.0342583333404,
      "v": 119
    },
    {
      "midi": 60,
      "hit": false,
      "t": 47090.482708333366,
      "d": 49.56892916666402,
      "v": 92
    },
    {
      "midi": 60,
      "hit": false,
      "t": 47349.10320833336,
      "d": 105.60337083333434,
      "v": 127
    },
    {
      "midi": 29,
      "hit": false,
      "t": 47586.17199999997,
      "d": 168.1033249999964,
      "v": 106
    },
    {
      "midi": 65,
      "hit": false,
      "t": 47586.17199999997,
      "d": 193.96537499999977,
      "v": 116
    },
    {
      "midi": 57,
      "hit": false,
      "t": 47586.17199999997,
      "d": 196.1205458333352,
      "v": 114
    },
    {
      "midi": 60,
      "hit": false,
      "t": 47586.17199999997,
      "d": 202.58605833333422,
      "v": 110
    },
    {
      "midi": 41,
      "hit": false,
      "t": 47586.17199999997,
      "d": 237.06879166666477,
      "v": 110
    },
    {
      "midi": 60,
      "hit": false,
      "t": 47607.72370833337,
      "d": 68.96546666666836,
      "v": 127
    },
    {
      "midi": 60,
      "hit": false,
      "t": 47866.34420833337,
      "d": 49.56892916666402,
      "v": 106
    },
    {
      "midi": 60,
      "hit": false,
      "t": 48124.96470833337,
      "d": 71.12063749999652,
      "v": 127
    },
    {
      "midi": 41,
      "hit": false,
      "t": 48362.03349999997,
      "d": 107.75854166666977,
      "v": 116
    },
    {
      "midi": 65,
      "hit": false,
      "t": 48362.03349999997,
      "d": 150.86195833333477,
      "v": 112
    },
    {
      "midi": 57,
      "hit": false,
      "t": 48362.03349999997,
      "d": 155.17229999999836,
      "v": 116
    },
    {
      "midi": 60,
      "hit": false,
      "t": 48362.03349999997,
      "d": 170.25849583333184,
      "v": 112
    },
    {
      "midi": 60,
      "hit": false,
      "t": 48383.58520833337,
      "d": 40.94824583333684,
      "v": 103
    },
    {
      "midi": 55,
      "hit": false,
      "t": 48620.653999999966,
      "d": 176.72400833333086,
      "v": 116
    },
    {
      "midi": 28,
      "hit": false,
      "t": 48620.653999999966,
      "d": 181.03434999999445,
      "v": 114
    },
    {
      "midi": 64,
      "hit": false,
      "t": 48620.653999999966,
      "d": 183.18952083332988,
      "v": 116
    },
    {
      "midi": 60,
      "hit": false,
      "t": 48620.653999999966,
      "d": 202.58605833332695,
      "v": 112
    },
    {
      "midi": 40,
      "hit": false,
      "t": 48620.653999999966,
      "d": 217.67225416666042,
      "v": 102
    },
    {
      "midi": 60,
      "hit": false,
      "t": 48642.20570833337,
      "d": 19.396537499997066,
      "v": 116
    },
    {
      "midi": 60,
      "hit": false,
      "t": 48900.82620833337,
      "d": 12.931024999998044,
      "v": 126
    },
    {
      "midi": 60,
      "hit": false,
      "t": 49159.446708333366,
      "d": 49.56892916666402,
      "v": 127
    },
    {
      "midi": 40,
      "hit": false,
      "t": 49396.51549999996,
      "d": 107.75854166666977,
      "v": 110
    },
    {
      "midi": 64,
      "hit": false,
      "t": 49396.51549999996,
      "d": 127.15507916666684,
      "v": 117
    },
    {
      "midi": 60,
      "hit": false,
      "t": 49396.51549999996,
      "d": 135.7757625000013,
      "v": 110
    },
    {
      "midi": 55,
      "hit": false,
      "t": 49396.51549999996,
      "d": 140.08610416666488,
      "v": 114
    },
    {
      "midi": 60,
      "hit": false,
      "t": 49418.06720833336,
      "d": 21.5517083333325,
      "v": 118
    },
    {
      "midi": 26,
      "hit": false,
      "t": 49655.135999999955,
      "d": 127.15507916666684,
      "v": 108
    },
    {
      "midi": 62,
      "hit": false,
      "t": 49655.135999999955,
      "d": 172.41366666666727,
      "v": 118
    },
    {
      "midi": 53,
      "hit": false,
      "t": 49655.135999999955,
      "d": 183.18952083333716,
      "v": 114
    },
    {
      "midi": 57,
      "hit": false,
      "t": 49655.135999999955,
      "d": 189.65503333333618,
      "v": 117
    },
    {
      "midi": 38,
      "hit": false,
      "t": 49655.135999999955,
      "d": 215.51708333333954,
      "v": 104
    },
    {
      "midi": 60,
      "hit": false,
      "t": 49676.68770833336,
      "d": 15.086195833333477,
      "v": 110
    },
    {
      "midi": 60,
      "hit": false,
      "t": 49935.30820833336,
      "d": 19.396537499997066,
      "v": 122
    },
    {
      "midi": 60,
      "hit": false,
      "t": 50193.928708333355,
      "d": 135.7757625000013,
      "v": 127
    },
    {
      "midi": 38,
      "hit": false,
      "t": 50430.99749999996,
      "d": 96.98268749999988,
      "v": 112
    },
    {
      "midi": 57,
      "hit": false,
      "t": 50430.99749999996,
      "d": 114.2240541666688,
      "v": 116
    },
    {
      "midi": 62,
      "hit": false,
      "t": 50430.99749999996,
      "d": 122.84473750000325,
      "v": 117
    },
    {
      "midi": 53,
      "hit": false,
      "t": 50430.99749999996,
      "d": 131.4654208333377,
      "v": 112
    },
    {
      "midi": 60,
      "hit": false,
      "t": 50452.54920833336,
      "d": 43.103416666665,
      "v": 84
    },
    {
      "midi": 24,
      "hit": false,
      "t": 50689.617999999966,
      "d": 103.4481999999989,
      "v": 114
    },
    {
      "midi": 36,
      "hit": false,
      "t": 50689.617999999966,
      "d": 135.7757625000013,
      "v": 110
    },
    {
      "midi": 52,
      "hit": false,
      "t": 50689.617999999966,
      "d": 135.7757625000013,
      "v": 119
    },
    {
      "midi": 60,
      "hit": false,
      "t": 50689.617999999966,
      "d": 161.63781250000466,
      "v": 118
    },
    {
      "midi": 55,
      "hit": false,
      "t": 50689.617999999966,
      "d": 163.7929833333401,
      "v": 119
    },
    {
      "midi": 60,
      "hit": false,
      "t": 50711.16970833336,
      "d": 38.79307500000141,
      "v": 116
    },
    {
      "midi": 36,
      "hit": false,
      "t": 50948.23849999997,
      "d": 88.36200416666543,
      "v": 96
    },
    {
      "midi": 60,
      "hit": false,
      "t": 50948.23849999997,
      "d": 94.82751666666445,
      "v": 98
    },
    {
      "midi": 53,
      "hit": false,
      "t": 50948.23849999997,
      "d": 107.7585416666625,
      "v": 112
    },
    {
      "midi": 60,
      "hit": false,
      "t": 50969.79020833336,
      "d": 120.68956666666782,
      "v": 127
    },
    {
      "midi": 40,
      "hit": false,
      "t": 51206.85899999997,
      "d": 301.72391666666954,
      "v": 119
    },
    {
      "midi": 55,
      "hit": false,
      "t": 51206.85899999997,
      "d": 321.1204541666666,
      "v": 122
    },
    {
      "midi": 60,
      "hit": false,
      "t": 51206.85899999997,
      "d": 338.3618208333355,
      "v": 120
    },
    {
      "midi": 60,
      "hit": false,
      "t": 51228.410708333366,
      "d": 49.56892916666402,
      "v": 89
    },
    {
      "midi": 38,
      "hit": false,
      "t": 51465.479499999965,
      "d": 25.862050000003364,
      "v": 96
    },
    {
      "midi": 60,
      "hit": false,
      "t": 51487.03120833336,
      "d": 30.172391666666954,
      "v": 122
    },
    {
      "midi": 41,
      "hit": false,
      "t": 51724.09999999997,
      "d": 193.96537499999977,
      "v": 118
    },
    {
      "midi": 60,
      "hit": false,
      "t": 51724.09999999997,
      "d": 206.8963999999978,
      "v": 119
    },
    {
      "midi": 57,
      "hit": false,
      "t": 51724.09999999997,
      "d": 211.2067416666614,
      "v": 120
    },
    {
      "midi": 65,
      "hit": false,
      "t": 51724.09999999997,
      "d": 215.517083333325,
      "v": 119
    },
    {
      "midi": 60,
      "hit": false,
      "t": 51745.65170833336,
      "d": 43.103416666665,
      "v": 127
    },
    {
      "midi": 29,
      "hit": false,
      "t": 51853.41024999997,
      "d": 28.01722083333152,
      "v": 65
    },
    {
      "midi": 60,
      "hit": false,
      "t": 52004.27220833336,
      "d": 25.862050000003364,
      "v": 82
    },
    {
      "midi": 60,
      "hit": false,
      "t": 52262.89270833336,
      "d": 64.6551249999975,
      "v": 127
    },
    {
      "midi": 57,
      "hit": false,
      "t": 52499.96149999996,
      "d": 183.18952083333716,
      "v": 114
    },
    {
      "midi": 65,
      "hit": false,
      "t": 52499.96149999996,
      "d": 185.3446916666726,
      "v": 116
    },
    {
      "midi": 29,
      "hit": false,
      "t": 52499.96149999996,
      "d": 191.8102041666716,
      "v": 106
    },
    {
      "midi": 41,
      "hit": false,
      "t": 52499.96149999996,
      "d": 200.43088750000607,
      "v": 116
    },
    {
      "midi": 60,
      "hit": false,
      "t": 52521.51320833336,
      "d": 47.41375833333586,
      "v": 120
    },
    {
      "midi": 60,
      "hit": false,
      "t": 52629.27174999996,
      "d": 2.1551708333354327,
      "v": 108
    },
    {
      "midi": 28,
      "hit": false,
      "t": 52758.581999999966,
      "d": 107.75854166666977,
      "v": 114
    },
    {
      "midi": 64,
      "hit": false,
      "t": 52758.581999999966,
      "d": 185.3446916666726,
      "v": 116
    },
    {
      "midi": 55,
      "hit": false,
      "t": 52758.581999999966,
      "d": 187.49986250000802,
      "v": 116
    },
    {
      "midi": 40,
      "hit": false,
      "t": 52758.581999999966,
      "d": 189.65503333334345,
      "v": 110
    },
    {
      "midi": 60,
      "hit": false,
      "t": 52758.581999999966,
      "d": 209.05157083334052,
      "v": 114
    },
    {
      "midi": 60,
      "hit": false,
      "t": 52780.133708333364,
      "d": 45.25858750000043,
      "v": 127
    },
    {
      "midi": 60,
      "hit": false,
      "t": 53038.75420833336,
      "d": 17.24136666666891,
      "v": 110
    },
    {
      "midi": 60,
      "hit": false,
      "t": 53297.374708333366,
      "d": 51.72409999999945,
      "v": 127
    },
    {
      "midi": 28,
      "hit": false,
      "t": 53534.44349999997,
      "d": 64.6551249999975,
      "v": 100
    },
    {
      "midi": 64,
      "hit": false,
      "t": 53534.44349999997,
      "d": 99.13785833332804,
      "v": 108
    },
    {
      "midi": 60,
      "hit": false,
      "t": 53534.44349999997,
      "d": 105.60337083332706,
      "v": 106
    },
    {
      "midi": 55,
      "hit": false,
      "t": 53534.44349999997,
      "d": 116.37922499999695,
      "v": 110
    },
    {
      "midi": 40,
      "hit": false,
      "t": 53534.44349999997,
      "d": 120.68956666666054,
      "v": 104
    },
    {
      "midi": 60,
      "hit": false,
      "t": 53555.99520833336,
      "d": 19.396537499997066,
      "v": 78
    },
    {
      "midi": 53,
      "hit": false,
      "t": 53793.06399999997,
      "d": 142.24127500000031,
      "v": 118
    },
    {
      "midi": 62,
      "hit": false,
      "t": 53793.06399999997,
      "d": 170.25849583333184,
      "v": 118
    },
    {
      "midi": 57,
      "hit": false,
      "t": 53793.06399999997,
      "d": 181.03435000000172,
      "v": 120
    },
    {
      "midi": 38,
      "hit": false,
      "t": 53793.06399999997,
      "d": 196.1205458333352,
      "v": 119
    },
    {
      "midi": 60,
      "hit": false,
      "t": 53814.61570833336,
      "d": 40.94824583333684,
      "v": 108
    },
    {
      "midi": 62,
      "hit": false,
      "t": 54051.684499999974,
      "d": 64.6551249999975,
      "v": 88
    },
    {
      "midi": 40,
      "hit": false,
      "t": 54051.684499999974,
      "d": 79.74132083333097,
      "v": 110
    },
    {
      "midi": 55,
      "hit": false,
      "t": 54051.684499999974,
      "d": 96.98268749999988,
      "v": 112
    },
    {
      "midi": 59,
      "hit": false,
      "t": 54051.684499999974,
      "d": 101.29302916666347,
      "v": 108
    },
    {
      "midi": 60,
      "hit": false,
      "t": 54073.236208333365,
      "d": 25.862050000003364,
      "v": 88
    },
    {
      "midi": 41,
      "hit": false,
      "t": 54310.30499999997,
      "d": 342.6721624999991,
      "v": 118
    },
    {
      "midi": 62,
      "hit": false,
      "t": 54310.30499999997,
      "d": 344.82733333333454,
      "v": 119
    },
    {
      "midi": 57,
      "hit": false,
      "t": 54310.30499999997,
      "d": 366.37904166666704,
      "v": 122
    },
    {
      "midi": 60,
      "hit": false,
      "t": 54331.85670833337,
      "d": 53.879270833334886,
      "v": 127
    },
    {
      "midi": 24,
      "hit": false,
      "t": 54827.54599999997,
      "d": 64.6551249999975,
      "v": 114
    },
    {
      "midi": 36,
      "hit": false,
      "t": 54827.54599999997,
      "d": 77.58614999999554,
      "v": 117
    },
    {
      "midi": 52,
      "hit": false,
      "t": 54827.54599999997,
      "d": 120.68956666666054,
      "v": 119
    },
    {
      "midi": 55,
      "hit": false,
      "t": 54827.54599999997,
      "d": 124.99990833332413,
      "v": 119
    },
    {
      "midi": 60,
      "hit": false,
      "t": 54827.54599999997,
      "d": 127.15507916665956,
      "v": 119
    },
    {
      "midi": 60,
      "hit": false,
      "t": 54849.09770833337,
      "d": 32.32756250000239,
      "v": 98
    },
    {
      "midi": 26,
      "hit": false,
      "t": 55086.16649999996,
      "d": 60.34478333333391,
      "v": 104
    },
    {
      "midi": 38,
      "hit": false,
      "t": 55086.16649999996,
      "d": 75.43097916666738,
      "v": 112
    },
    {
      "midi": 53,
      "hit": false,
      "t": 55086.16649999996,
      "d": 96.98268749999988,
      "v": 108
    },
    {
      "midi": 57,
      "hit": false,
      "t": 55086.16649999996,
      "d": 101.29302916666347,
      "v": 110
    },
    {
      "midi": 62,
      "hit": false,
      "t": 55086.16649999996,
      "d": 103.4481999999989,
      "v": 108
    },
    {
      "midi": 60,
      "hit": false,
      "t": 55107.718208333376,
      "d": 176.72400833333086,
      "v": 127
    },
    {
      "midi": 62,
      "hit": false,
      "t": 55344.78699999996,
      "d": 170.25849583333184,
      "v": 110
    },
    {
      "midi": 28,
      "hit": false,
      "t": 55344.78699999996,
      "d": 282.3273791666652,
      "v": 106
    },
    {
      "midi": 40,
      "hit": false,
      "t": 55344.78699999996,
      "d": 293.1032333333351,
      "v": 117
    },
    {
      "midi": 55,
      "hit": false,
      "t": 55344.78699999996,
      "d": 301.72391666666954,
      "v": 119
    },
    {
      "midi": 64,
      "hit": false,
      "t": 55344.78699999996,
      "d": 303.87908750000497,
      "v": 110
    },
    {
      "midi": 59,
      "hit": false,
      "t": 55344.78699999996,
      "d": 306.0342583333404,
      "v": 119
    },
    {
      "midi": 60,
      "hit": false,
      "t": 55366.33870833337,
      "d": 49.56892916666402,
      "v": 92
    },
    {
      "midi": 60,
      "hit": false,
      "t": 55624.95920833337,
      "d": 105.60337083333434,
      "v": 127
    },
    {
      "midi": 29,
      "hit": false,
      "t": 55862.02799999997,
      "d": 168.1033249999964,
      "v": 106
    },
    {
      "midi": 65,
      "hit": false,
      "t": 55862.02799999997,
      "d": 193.96537499999977,
      "v": 116
    },
    {
      "midi": 57,
      "hit": false,
      "t": 55862.02799999997,
      "d": 196.1205458333352,
      "v": 114
    },
    {
      "midi": 60,
      "hit": false,
      "t": 55862.02799999997,
      "d": 202.58605833333422,
      "v": 110
    },
    {
      "midi": 41,
      "hit": false,
      "t": 55862.02799999997,
      "d": 237.06879166666477,
      "v": 110
    },
    {
      "midi": 60,
      "hit": false,
      "t": 55883.579708333375,
      "d": 68.96546666666836,
      "v": 127
    },
    {
      "midi": 60,
      "hit": false,
      "t": 56142.20020833338,
      "d": 49.56892916666402,
      "v": 106
    },
    {
      "midi": 60,
      "hit": false,
      "t": 56400.82070833338,
      "d": 71.12063749999652,
      "v": 127
    },
    {
      "midi": 41,
      "hit": false,
      "t": 56637.88949999997,
      "d": 107.75854166666977,
      "v": 116
    },
    {
      "midi": 65,
      "hit": false,
      "t": 56637.88949999997,
      "d": 150.86195833333477,
      "v": 112
    },
    {
      "midi": 57,
      "hit": false,
      "t": 56637.88949999997,
      "d": 155.17229999999836,
      "v": 116
    },
    {
      "midi": 60,
      "hit": false,
      "t": 56637.88949999997,
      "d": 170.25849583333184,
      "v": 112
    },
    {
      "midi": 60,
      "hit": false,
      "t": 56659.441208333374,
      "d": 40.94824583333684,
      "v": 103
    },
    {
      "midi": 55,
      "hit": false,
      "t": 56896.509999999966,
      "d": 176.72400833333086,
      "v": 116
    },
    {
      "midi": 28,
      "hit": false,
      "t": 56896.509999999966,
      "d": 181.03434999999445,
      "v": 114
    },
    {
      "midi": 64,
      "hit": false,
      "t": 56896.509999999966,
      "d": 183.18952083332988,
      "v": 116
    },
    {
      "midi": 60,
      "hit": false,
      "t": 56896.509999999966,
      "d": 202.58605833332695,
      "v": 112
    },
    {
      "midi": 40,
      "hit": false,
      "t": 56896.509999999966,
      "d": 217.67225416666042,
      "v": 102
    },
    {
      "midi": 60,
      "hit": false,
      "t": 56918.06170833338,
      "d": 19.396537499997066,
      "v": 116
    },
    {
      "midi": 60,
      "hit": false,
      "t": 57176.682208333375,
      "d": 12.931024999998044,
      "v": 126
    },
    {
      "midi": 60,
      "hit": false,
      "t": 57435.30270833337,
      "d": 49.56892916666402,
      "v": 127
    },
    {
      "midi": 40,
      "hit": false,
      "t": 57672.37149999996,
      "d": 107.75854166666977,
      "v": 110
    },
    {
      "midi": 64,
      "hit": false,
      "t": 57672.37149999996,
      "d": 127.15507916666684,
      "v": 117
    },
    {
      "midi": 60,
      "hit": false,
      "t": 57672.37149999996,
      "d": 135.7757625000013,
      "v": 110
    },
    {
      "midi": 55,
      "hit": false,
      "t": 57672.37149999996,
      "d": 140.08610416666488,
      "v": 114
    },
    {
      "midi": 60,
      "hit": false,
      "t": 57693.92320833337,
      "d": 21.5517083333325,
      "v": 118
    },
    {
      "midi": 26,
      "hit": false,
      "t": 57930.991999999955,
      "d": 127.15507916666684,
      "v": 108
    },
    {
      "midi": 62,
      "hit": false,
      "t": 57930.991999999955,
      "d": 172.41366666666727,
      "v": 118
    },
    {
      "midi": 53,
      "hit": false,
      "t": 57930.991999999955,
      "d": 183.18952083333716,
      "v": 114
    },
    {
      "midi": 57,
      "hit": false,
      "t": 57930.991999999955,
      "d": 189.65503333333618,
      "v": 117
    },
    {
      "midi": 38,
      "hit": false,
      "t": 57930.991999999955,
      "d": 215.51708333333954,
      "v": 104
    },
    {
      "midi": 60,
      "hit": false,
      "t": 57952.54370833337,
      "d": 15.086195833333477,
      "v": 110
    },
    {
      "midi": 60,
      "hit": false,
      "t": 58211.164208333365,
      "d": 19.396537499997066,
      "v": 122
    },
    {
      "midi": 60,
      "hit": false,
      "t": 58469.78470833336,
      "d": 135.7757625000013,
      "v": 127
    },
    {
      "midi": 38,
      "hit": false,
      "t": 58706.85349999996,
      "d": 96.98268749999988,
      "v": 112
    },
    {
      "midi": 57,
      "hit": false,
      "t": 58706.85349999996,
      "d": 114.2240541666688,
      "v": 116
    },
    {
      "midi": 62,
      "hit": false,
      "t": 58706.85349999996,
      "d": 122.84473750000325,
      "v": 117
    },
    {
      "midi": 53,
      "hit": false,
      "t": 58706.85349999996,
      "d": 131.4654208333377,
      "v": 112
    },
    {
      "midi": 60,
      "hit": false,
      "t": 58728.405208333366,
      "d": 43.103416666665,
      "v": 84
    },
    {
      "midi": 24,
      "hit": false,
      "t": 58965.473999999966,
      "d": 103.4481999999989,
      "v": 114
    },
    {
      "midi": 36,
      "hit": false,
      "t": 58965.473999999966,
      "d": 135.7757625000013,
      "v": 110
    },
    {
      "midi": 52,
      "hit": false,
      "t": 58965.473999999966,
      "d": 135.7757625000013,
      "v": 119
    },
    {
      "midi": 60,
      "hit": false,
      "t": 58965.473999999966,
      "d": 161.63781250000466,
      "v": 118
    },
    {
      "midi": 55,
      "hit": false,
      "t": 58965.473999999966,
      "d": 163.7929833333401,
      "v": 119
    },
    {
      "midi": 60,
      "hit": false,
      "t": 58987.02570833336,
      "d": 38.79307500000141,
      "v": 116
    },
    {
      "midi": 36,
      "hit": false,
      "t": 59224.09449999997,
      "d": 88.36200416666543,
      "v": 96
    },
    {
      "midi": 60,
      "hit": false,
      "t": 59224.09449999997,
      "d": 94.82751666666445,
      "v": 98
    },
    {
      "midi": 53,
      "hit": false,
      "t": 59224.09449999997,
      "d": 107.7585416666625,
      "v": 112
    },
    {
      "midi": 60,
      "hit": false,
      "t": 59245.64620833337,
      "d": 120.68956666666782,
      "v": 127
    },
    {
      "midi": 40,
      "hit": false,
      "t": 59482.71499999997,
      "d": 301.72391666666954,
      "v": 119
    },
    {
      "midi": 55,
      "hit": false,
      "t": 59482.71499999997,
      "d": 321.1204541666666,
      "v": 122
    },
    {
      "midi": 60,
      "hit": false,
      "t": 59482.71499999997,
      "d": 338.3618208333355,
      "v": 120
    },
    {
      "midi": 60,
      "hit": false,
      "t": 59504.26670833337,
      "d": 49.56892916666402,
      "v": 89
    },
    {
      "midi": 38,
      "hit": false,
      "t": 59741.335499999965,
      "d": 25.862050000003364,
      "v": 96
    },
    {
      "midi": 60,
      "hit": false,
      "t": 59762.88720833337,
      "d": 30.172391666666954,
      "v": 122
    },
    {
      "midi": 41,
      "hit": false,
      "t": 59999.95599999997,
      "d": 193.96537499999977,
      "v": 118
    },
    {
      "midi": 60,
      "hit": false,
      "t": 59999.95599999997,
      "d": 206.8963999999978,
      "v": 119
    },
    {
      "midi": 57,
      "hit": false,
      "t": 59999.95599999997,
      "d": 211.2067416666614,
      "v": 120
    },
    {
      "midi": 65,
      "hit": false,
      "t": 59999.95599999997,
      "d": 215.517083333325,
      "v": 119
    },
    {
      "midi": 60,
      "hit": false,
      "t": 60021.50770833337,
      "d": 43.103416666665,
      "v": 127
    },
    {
      "midi": 29,
      "hit": false,
      "t": 60129.26624999997,
      "d": 28.01722083333152,
      "v": 65
    },
    {
      "midi": 60,
      "hit": false,
      "t": 60280.128208333364,
      "d": 25.862050000003364,
      "v": 82
    },
    {
      "midi": 60,
      "hit": false,
      "t": 60538.74870833337,
      "d": 64.6551249999975,
      "v": 127
    },
    {
      "midi": 57,
      "hit": false,
      "t": 60775.81749999996,
      "d": 183.18952083333716,
      "v": 114
    },
    {
      "midi": 65,
      "hit": false,
      "t": 60775.81749999996,
      "d": 185.3446916666726,
      "v": 116
    },
    {
      "midi": 29,
      "hit": false,
      "t": 60775.81749999996,
      "d": 191.8102041666716,
      "v": 106
    },
    {
      "midi": 41,
      "hit": false,
      "t": 60775.81749999996,
      "d": 200.43088750000607,
      "v": 116
    },
    {
      "midi": 60,
      "hit": false,
      "t": 60797.369208333366,
      "d": 47.41375833333586,
      "v": 120
    },
    {
      "midi": 60,
      "hit": false,
      "t": 60905.12774999996,
      "d": 2.1551708333354327,
      "v": 108
    },
    {
      "midi": 28,
      "hit": false,
      "t": 61034.437999999966,
      "d": 107.75854166666977,
      "v": 114
    },
    {
      "midi": 64,
      "hit": false,
      "t": 61034.437999999966,
      "d": 185.3446916666726,
      "v": 116
    },
    {
      "midi": 55,
      "hit": false,
      "t": 61034.437999999966,
      "d": 187.49986250000802,
      "v": 116
    },
    {
      "midi": 40,
      "hit": false,
      "t": 61034.437999999966,
      "d": 189.65503333334345,
      "v": 110
    },
    {
      "midi": 60,
      "hit": false,
      "t": 61034.437999999966,
      "d": 209.05157083334052,
      "v": 114
    },
    {
      "midi": 60,
      "hit": false,
      "t": 61055.98970833337,
      "d": 45.25858750000043,
      "v": 127
    },
    {
      "midi": 60,
      "hit": false,
      "t": 61314.61020833337,
      "d": 17.24136666666891,
      "v": 110
    },
    {
      "midi": 60,
      "hit": false,
      "t": 61573.23070833337,
      "d": 51.72409999999945,
      "v": 127
    },
    {
      "midi": 28,
      "hit": false,
      "t": 61810.29949999997,
      "d": 64.6551249999975,
      "v": 100
    },
    {
      "midi": 64,
      "hit": false,
      "t": 61810.29949999997,
      "d": 99.13785833332804,
      "v": 108
    },
    {
      "midi": 60,
      "hit": false,
      "t": 61810.29949999997,
      "d": 105.60337083332706,
      "v": 106
    },
    {
      "midi": 55,
      "hit": false,
      "t": 61810.29949999997,
      "d": 116.37922499999695,
      "v": 110
    },
    {
      "midi": 40,
      "hit": false,
      "t": 61810.29949999997,
      "d": 120.68956666666054,
      "v": 104
    },
    {
      "midi": 60,
      "hit": false,
      "t": 61831.85120833337,
      "d": 19.396537499997066,
      "v": 78
    },
    {
      "midi": 53,
      "hit": false,
      "t": 62068.91999999997,
      "d": 142.24127500000031,
      "v": 118
    },
    {
      "midi": 62,
      "hit": false,
      "t": 62068.91999999997,
      "d": 170.25849583333184,
      "v": 118
    },
    {
      "midi": 57,
      "hit": false,
      "t": 62068.91999999997,
      "d": 181.03435000000172,
      "v": 120
    },
    {
      "midi": 38,
      "hit": false,
      "t": 62068.91999999997,
      "d": 196.1205458333352,
      "v": 119
    },
    {
      "midi": 60,
      "hit": false,
      "t": 62090.47170833337,
      "d": 40.94824583333684,
      "v": 108
    },
    {
      "midi": 62,
      "hit": false,
      "t": 62327.540499999974,
      "d": 64.6551249999975,
      "v": 88
    },
    {
      "midi": 40,
      "hit": false,
      "t": 62327.540499999974,
      "d": 79.74132083333097,
      "v": 110
    },
    {
      "midi": 55,
      "hit": false,
      "t": 62327.540499999974,
      "d": 96.98268749999988,
      "v": 112
    },
    {
      "midi": 59,
      "hit": false,
      "t": 62327.540499999974,
      "d": 101.29302916666347,
      "v": 108
    },
    {
      "midi": 60,
      "hit": false,
      "t": 62349.09220833337,
      "d": 25.862050000003364,
      "v": 88
    },
    {
      "midi": 41,
      "hit": false,
      "t": 62586.16099999997,
      "d": 342.6721624999991,
      "v": 118
    },
    {
      "midi": 62,
      "hit": false,
      "t": 62586.16099999997,
      "d": 344.82733333333454,
      "v": 119
    },
    {
      "midi": 57,
      "hit": false,
      "t": 62586.16099999997,
      "d": 366.37904166666704,
      "v": 122
    },
    {
      "midi": 60,
      "hit": false,
      "t": 62607.712708333376,
      "d": 53.879270833334886,
      "v": 127
    },
    {
      "midi": 24,
      "hit": false,
      "t": 63103.40199999997,
      "d": 64.6551249999975,
      "v": 114
    },
    {
      "midi": 36,
      "hit": false,
      "t": 63103.40199999997,
      "d": 77.58614999999554,
      "v": 117
    },
    {
      "midi": 52,
      "hit": false,
      "t": 63103.40199999997,
      "d": 120.68956666666054,
      "v": 119
    },
    {
      "midi": 55,
      "hit": false,
      "t": 63103.40199999997,
      "d": 124.99990833332413,
      "v": 119
    },
    {
      "midi": 60,
      "hit": false,
      "t": 63103.40199999997,
      "d": 127.15507916665956,
      "v": 119
    },
    {
      "midi": 60,
      "hit": false,
      "t": 63124.95370833338,
      "d": 32.32756250000239,
      "v": 98
    },
    {
      "midi": 26,
      "hit": false,
      "t": 63362.02249999996,
      "d": 60.34478333333391,
      "v": 104
    },
    {
      "midi": 38,
      "hit": false,
      "t": 63362.02249999996,
      "d": 75.43097916666738,
      "v": 112
    },
    {
      "midi": 53,
      "hit": false,
      "t": 63362.02249999996,
      "d": 96.98268749999988,
      "v": 108
    },
    {
      "midi": 57,
      "hit": false,
      "t": 63362.02249999996,
      "d": 101.29302916666347,
      "v": 110
    },
    {
      "midi": 62,
      "hit": false,
      "t": 63362.02249999996,
      "d": 103.4481999999989,
      "v": 108
    },
    {
      "midi": 60,
      "hit": false,
      "t": 63383.57420833338,
      "d": 176.72400833333086,
      "v": 127
    },
    {
      "midi": 62,
      "hit": false,
      "t": 63620.64299999996,
      "d": 170.25849583333184,
      "v": 110
    },
    {
      "midi": 28,
      "hit": false,
      "t": 63620.64299999996,
      "d": 282.3273791666652,
      "v": 106
    },
    {
      "midi": 40,
      "hit": false,
      "t": 63620.64299999996,
      "d": 293.1032333333351,
      "v": 117
    },
    {
      "midi": 55,
      "hit": false,
      "t": 63620.64299999996,
      "d": 301.72391666666954,
      "v": 119
    },
    {
      "midi": 64,
      "hit": false,
      "t": 63620.64299999996,
      "d": 303.87908750000497,
      "v": 110
    },
    {
      "midi": 59,
      "hit": false,
      "t": 63620.64299999996,
      "d": 306.0342583333404,
      "v": 119
    },
    {
      "midi": 60,
      "hit": false,
      "t": 63642.19470833338,
      "d": 49.56892916666402,
      "v": 92
    },
    {
      "midi": 60,
      "hit": false,
      "t": 63900.81520833338,
      "d": 105.60337083333434,
      "v": 127
    },
    {
      "midi": 29,
      "hit": false,
      "t": 64137.88399999997,
      "d": 168.1033249999964,
      "v": 106
    },
    {
      "midi": 65,
      "hit": false,
      "t": 64137.88399999997,
      "d": 193.96537499999977,
      "v": 116
    },
    {
      "midi": 57,
      "hit": false,
      "t": 64137.88399999997,
      "d": 196.1205458333352,
      "v": 114
    },
    {
      "midi": 60,
      "hit": false,
      "t": 64137.88399999997,
      "d": 202.58605833333422,
      "v": 110
    },
    {
      "midi": 41,
      "hit": false,
      "t": 64137.88399999997,
      "d": 237.06879166666477,
      "v": 110
    },
    {
      "midi": 60,
      "hit": false,
      "t": 64159.43570833338,
      "d": 68.96546666666836,
      "v": 127
    },
    {
      "midi": 60,
      "hit": false,
      "t": 64418.056208333386,
      "d": 49.56892916666402,
      "v": 106
    },
    {
      "midi": 60,
      "hit": false,
      "t": 64676.67670833338,
      "d": 71.12063749999652,
      "v": 127
    },
    {
      "midi": 41,
      "hit": false,
      "t": 64913.74549999997,
      "d": 107.75854166666977,
      "v": 116
    },
    {
      "midi": 65,
      "hit": false,
      "t": 64913.74549999997,
      "d": 150.86195833333477,
      "v": 112
    },
    {
      "midi": 57,
      "hit": false,
      "t": 64913.74549999997,
      "d": 155.17229999999836,
      "v": 116
    },
    {
      "midi": 60,
      "hit": false,
      "t": 64913.74549999997,
      "d": 170.25849583333184,
      "v": 112
    },
    {
      "midi": 60,
      "hit": false,
      "t": 64935.29720833338,
      "d": 40.94824583333684,
      "v": 103
    },
    {
      "midi": 55,
      "hit": false,
      "t": 65172.365999999965,
      "d": 176.72400833333086,
      "v": 116
    },
    {
      "midi": 28,
      "hit": false,
      "t": 65172.365999999965,
      "d": 181.03434999999445,
      "v": 114
    },
    {
      "midi": 64,
      "hit": false,
      "t": 65172.365999999965,
      "d": 183.18952083332988,
      "v": 116
    },
    {
      "midi": 60,
      "hit": false,
      "t": 65172.365999999965,
      "d": 202.58605833332695,
      "v": 112
    },
    {
      "midi": 40,
      "hit": false,
      "t": 65172.365999999965,
      "d": 217.67225416666042,
      "v": 102
    },
    {
      "midi": 60,
      "hit": false,
      "t": 65193.917708333385,
      "d": 19.396537499997066,
      "v": 116
    },
    {
      "midi": 60,
      "hit": false,
      "t": 65452.53820833338,
      "d": 12.931024999998044,
      "v": 126
    },
    {
      "midi": 60,
      "hit": false,
      "t": 65711.15870833339,
      "d": 49.56892916666402,
      "v": 127
    },
    {
      "midi": 40,
      "hit": false,
      "t": 65948.22749999996,
      "d": 107.75854166666977,
      "v": 110
    },
    {
      "midi": 64,
      "hit": false,
      "t": 65948.22749999996,
      "d": 127.15507916666684,
      "v": 117
    },
    {
      "midi": 60,
      "hit": false,
      "t": 65948.22749999996,
      "d": 135.77576249999402,
      "v": 110
    },
    {
      "midi": 55,
      "hit": false,
      "t": 65948.22749999996,
      "d": 140.08610416666488,
      "v": 114
    },
    {
      "midi": 60,
      "hit": false,
      "t": 65969.77920833339,
      "d": 21.551708333339775,
      "v": 118
    },
    {
      "midi": 26,
      "hit": false,
      "t": 66206.84799999997,
      "d": 127.15507916666684,
      "v": 108
    },
    {
      "midi": 62,
      "hit": false,
      "t": 66206.84799999997,
      "d": 172.41366666666,
      "v": 118
    },
    {
      "midi": 53,
      "hit": false,
      "t": 66206.84799999997,
      "d": 183.18952083332988,
      "v": 114
    },
    {
      "midi": 57,
      "hit": false,
      "t": 66206.84799999997,
      "d": 189.6550333333289,
      "v": 117
    },
    {
      "midi": 38,
      "hit": false,
      "t": 66206.84799999997,
      "d": 215.517083333325,
      "v": 104
    },
    {
      "midi": 60,
      "hit": false,
      "t": 66228.3997083334,
      "d": 15.086195833326201,
      "v": 110
    },
    {
      "midi": 60,
      "hit": false,
      "t": 66487.02020833339,
      "d": 19.396537499997066,
      "v": 122
    },
    {
      "midi": 60,
      "hit": false,
      "t": 66745.64070833338,
      "d": 135.77576249999402,
      "v": 127
    },
    {
      "midi": 38,
      "hit": false,
      "t": 66982.70949999995,
      "d": 96.98268749999988,
      "v": 112
    },
    {
      "midi": 57,
      "hit": false,
      "t": 66982.70949999995,
      "d": 114.2240541666688,
      "v": 116
    },
    {
      "midi": 62,
      "hit": false,
      "t": 66982.70949999995,
      "d": 122.84473749999597,
      "v": 117
    },
    {
      "midi": 53,
      "hit": false,
      "t": 66982.70949999995,
      "d": 131.46542083332315,
      "v": 112
    },
    {
      "midi": 60,
      "hit": false,
      "t": 67004.26120833337,
      "d": 43.103416666665,
      "v": 84
    },
    {
      "midi": 24,
      "hit": false,
      "t": 67241.32999999994,
      "d": 103.4481999999989,
      "v": 114
    },
    {
      "midi": 36,
      "hit": false,
      "t": 67241.32999999994,
      "d": 135.77576249999402,
      "v": 110
    },
    {
      "midi": 52,
      "hit": false,
      "t": 67241.32999999994,
      "d": 135.77576249999402,
      "v": 119
    },
    {
      "midi": 60,
      "hit": false,
      "t": 67241.32999999994,
      "d": 161.6378124999901,
      "v": 118
    },
    {
      "midi": 55,
      "hit": false,
      "t": 67241.32999999994,
      "d": 163.79298333331826,
      "v": 119
    },
    {
      "midi": 60,
      "hit": false,
      "t": 67262.88170833337,
      "d": 38.79307499999413,
      "v": 116
    },
    {
      "midi": 36,
      "hit": false,
      "t": 67499.95049999993,
      "d": 88.3620041666727,
      "v": 96
    },
    {
      "midi": 60,
      "hit": false,
      "t": 67499.95049999993,
      "d": 94.82751666667173,
      "v": 98
    },
    {
      "midi": 53,
      "hit": false,
      "t": 67499.95049999993,
      "d": 107.75854166666977,
      "v": 112
    },
    {
      "midi": 60,
      "hit": false,
      "t": 67521.50220833336,
      "d": 120.68956666666782,
      "v": 127
    },
    {
      "midi": 40,
      "hit": false,
      "t": 67758.57099999994,
      "d": 301.72391666666954,
      "v": 119
    },
    {
      "midi": 55,
      "hit": false,
      "t": 67758.57099999994,
      "d": 321.1204541666666,
      "v": 122
    },
    {
      "midi": 60,
      "hit": false,
      "t": 67758.57099999994,
      "d": 338.3618208333355,
      "v": 120
    },
    {
      "midi": 60,
      "hit": false,
      "t": 67780.12270833337,
      "d": 49.56892916666402,
      "v": 89
    },
    {
      "midi": 38,
      "hit": false,
      "t": 68017.19149999994,
      "d": 25.86204999999609,
      "v": 96
    },
    {
      "midi": 60,
      "hit": false,
      "t": 68038.74320833337,
      "d": 30.172391666666954,
      "v": 122
    },
    {
      "midi": 41,
      "hit": false,
      "t": 68275.81199999995,
      "d": 193.96537499999977,
      "v": 118
    },
    {
      "midi": 60,
      "hit": false,
      "t": 68275.81199999995,
      "d": 206.8963999999978,
      "v": 119
    },
    {
      "midi": 57,
      "hit": false,
      "t": 68275.81199999995,
      "d": 211.20674166666868,
      "v": 120
    },
    {
      "midi": 65,
      "hit": false,
      "t": 68275.81199999995,
      "d": 215.51708333333954,
      "v": 119
    },
    {
      "midi": 60,
      "hit": false,
      "t": 68297.36370833337,
      "d": 43.103416666665,
      "v": 127
    },
    {
      "midi": 29,
      "hit": false,
      "t": 68405.12224999994,
      "d": 28.017220833338797,
      "v": 65
    },
    {
      "midi": 60,
      "hit": false,
      "t": 68555.98420833338,
      "d": 25.86204999999609,
      "v": 82
    },
    {
      "midi": 60,
      "hit": false,
      "t": 68814.60470833337,
      "d": 64.65512500000477,
      "v": 127
    },
    {
      "midi": 57,
      "hit": false,
      "t": 69051.67349999995,
      "d": 183.18952083332988,
      "v": 114
    },
    {
      "midi": 65,
      "hit": false,
      "t": 69051.67349999995,
      "d": 185.34469166665804,
      "v": 116
    },
    {
      "midi": 29,
      "hit": false,
      "t": 69051.67349999995,
      "d": 191.81020416665706,
      "v": 106
    },
    {
      "midi": 41,
      "hit": false,
      "t": 69051.67349999995,
      "d": 200.43088749998424,
      "v": 116
    },
    {
      "midi": 60,
      "hit": false,
      "t": 69073.22520833337,
      "d": 47.41375833333586,
      "v": 120
    },
    {
      "midi": 60,
      "hit": false,
      "t": 69180.98374999994,
      "d": 2.1551708333281567,
      "v": 108
    },
    {
      "midi": 28,
      "hit": false,
      "t": 69310.29399999994,
      "d": 107.75854166666977,
      "v": 114
    },
    {
      "midi": 64,
      "hit": false,
      "t": 69310.29399999994,
      "d": 185.3446916666726,
      "v": 116
    },
    {
      "midi": 55,
      "hit": false,
      "t": 69310.29399999994,
      "d": 187.49986250000075,
      "v": 116
    },
    {
      "midi": 40,
      "hit": false,
      "t": 69310.29399999994,
      "d": 189.6550333333289,
      "v": 110
    },
    {
      "midi": 60,
      "hit": false,
      "t": 69310.29399999994,
      "d": 209.05157083332597,
      "v": 114
    },
    {
      "midi": 60,
      "hit": false,
      "t": 69331.84570833338,
      "d": 45.258587499993155,
      "v": 127
    },
    {
      "midi": 60,
      "hit": false,
      "t": 69590.46620833337,
      "d": 17.24136666666891,
      "v": 110
    },
    {
      "midi": 60,
      "hit": false,
      "t": 69849.08670833337,
      "d": 51.72410000000673,
      "v": 127
    },
    {
      "midi": 28,
      "hit": false,
      "t": 70086.15549999994,
      "d": 64.65512500000477,
      "v": 100
    },
    {
      "midi": 64,
      "hit": false,
      "t": 70086.15549999994,
      "d": 99.13785833334259,
      "v": 108
    },
    {
      "midi": 60,
      "hit": false,
      "t": 70086.15549999994,
      "d": 105.60337083334161,
      "v": 106
    },
    {
      "midi": 55,
      "hit": false,
      "t": 70086.15549999994,
      "d": 116.3792250000115,
      "v": 110
    },
    {
      "midi": 40,
      "hit": false,
      "t": 70086.15549999994,
      "d": 120.68956666668237,
      "v": 104
    },
    {
      "midi": 60,
      "hit": false,
      "t": 70107.70720833338,
      "d": 19.396537499997066,
      "v": 78
    },
    {
      "midi": 53,
      "hit": false,
      "t": 70344.77599999995,
      "d": 142.24127499999304,
      "v": 118
    },
    {
      "midi": 62,
      "hit": false,
      "t": 70344.77599999995,
      "d": 170.25849583333184,
      "v": 118
    },
    {
      "midi": 57,
      "hit": false,
      "t": 70344.77599999995,
      "d": 181.03435000000172,
      "v": 120
    },
    {
      "midi": 38,
      "hit": false,
      "t": 70344.77599999995,
      "d": 196.12054583332792,
      "v": 119
    },
    {
      "midi": 60,
      "hit": false,
      "t": 70366.32770833337,
      "d": 40.94824583333684,
      "v": 108
    },
    {
      "midi": 62,
      "hit": false,
      "t": 70603.39649999994,
      "d": 64.65512500000477,
      "v": 88
    },
    {
      "midi": 40,
      "hit": false,
      "t": 70603.39649999994,
      "d": 79.74132083333097,
      "v": 110
    },
    {
      "midi": 55,
      "hit": false,
      "t": 70603.39649999994,
      "d": 96.98268749999988,
      "v": 112
    },
    {
      "midi": 59,
      "hit": false,
      "t": 70603.39649999994,
      "d": 101.29302916667075,
      "v": 108
    },
    {
      "midi": 60,
      "hit": false,
      "t": 70624.94820833337,
      "d": 25.86204999999609,
      "v": 88
    },
    {
      "midi": 41,
      "hit": false,
      "t": 70862.01699999995,
      "d": 342.6721625000064,
      "v": 118
    },
    {
      "midi": 62,
      "hit": false,
      "t": 70862.01699999995,
      "d": 344.82733333333454,
      "v": 119
    },
    {
      "midi": 57,
      "hit": false,
      "t": 70862.01699999995,
      "d": 366.3790416666743,
      "v": 122
    },
    {
      "midi": 60,
      "hit": false,
      "t": 70883.56870833336,
      "d": 53.879270833334886,
      "v": 127
    },
    {
      "midi": 24,
      "hit": false,
      "t": 71379.25799999996,
      "d": 64.65512500000477,
      "v": 114
    },
    {
      "midi": 36,
      "hit": false,
      "t": 71379.25799999996,
      "d": 77.58615000000282,
      "v": 117
    },
    {
      "midi": 52,
      "hit": false,
      "t": 71379.25799999996,
      "d": 120.68956666666782,
      "v": 119
    },
    {
      "midi": 55,
      "hit": false,
      "t": 71379.25799999996,
      "d": 124.99990833333868,
      "v": 119
    },
    {
      "midi": 60,
      "hit": false,
      "t": 71379.25799999996,
      "d": 127.15507916666684,
      "v": 119
    },
    {
      "midi": 60,
      "hit": false,
      "t": 71400.80970833336,
      "d": 32.32756249999511,
      "v": 98
    },
    {
      "midi": 26,
      "hit": false,
      "t": 71637.87849999996,
      "d": 60.34478333333391,
      "v": 104
    },
    {
      "midi": 38,
      "hit": false,
      "t": 71637.87849999996,
      "d": 75.43097916666011,
      "v": 112
    },
    {
      "midi": 53,
      "hit": false,
      "t": 71637.87849999996,
      "d": 96.98268749999988,
      "v": 108
    },
    {
      "midi": 57,
      "hit": false,
      "t": 71637.87849999996,
      "d": 101.29302916667075,
      "v": 110
    },
    {
      "midi": 62,
      "hit": false,
      "t": 71637.87849999996,
      "d": 103.4481999999989,
      "v": 108
    },
    {
      "midi": 60,
      "hit": false,
      "t": 71659.43020833335,
      "d": 176.72400833333086,
      "v": 127
    },
    {
      "midi": 62,
      "hit": false,
      "t": 71896.49899999997,
      "d": 170.25849583333184,
      "v": 110
    },
    {
      "midi": 28,
      "hit": false,
      "t": 71896.49899999997,
      "d": 282.3273791666579,
      "v": 106
    },
    {
      "midi": 40,
      "hit": false,
      "t": 71896.49899999997,
      "d": 293.1032333333278,
      "v": 117
    },
    {
      "midi": 55,
      "hit": false,
      "t": 71896.49899999997,
      "d": 301.723916666655,
      "v": 119
    },
    {
      "midi": 64,
      "hit": false,
      "t": 71896.49899999997,
      "d": 303.87908749998314,
      "v": 110
    },
    {
      "midi": 59,
      "hit": false,
      "t": 71896.49899999997,
      "d": 306.0342583333113,
      "v": 119
    },
    {
      "midi": 60,
      "hit": false,
      "t": 71918.05070833335,
      "d": 49.56892916666402,
      "v": 92
    },
    {
      "midi": 60,
      "hit": false,
      "t": 72176.67120833336,
      "d": 105.60337083332706,
      "v": 127
    },
    {
      "midi": 29,
      "hit": false,
      "t": 72413.73999999995,
      "d": 168.10332500000368,
      "v": 106
    },
    {
      "midi": 65,
      "hit": false,
      "t": 72413.73999999995,
      "d": 193.96537499999977,
      "v": 116
    },
    {
      "midi": 57,
      "hit": false,
      "t": 72413.73999999995,
      "d": 196.12054583332792,
      "v": 114
    },
    {
      "midi": 60,
      "hit": false,
      "t": 72413.73999999995,
      "d": 202.58605833332695,
      "v": 110
    },
    {
      "midi": 41,
      "hit": false,
      "t": 72413.73999999995,
      "d": 237.06879166666477,
      "v": 110
    },
    {
      "midi": 60,
      "hit": false,
      "t": 72435.29170833335,
      "d": 68.96546666666109,
      "v": 127
    },
    {
      "midi": 60,
      "hit": false,
      "t": 72693.91220833334,
      "d": 49.56892916666402,
      "v": 106
    },
    {
      "midi": 60,
      "hit": false,
      "t": 72952.53270833334,
      "d": 71.1206375000038,
      "v": 127
    },
    {
      "midi": 41,
      "hit": false,
      "t": 73189.60149999995,
      "d": 107.75854166666977,
      "v": 116
    },
    {
      "midi": 65,
      "hit": false,
      "t": 73189.60149999995,
      "d": 150.86195833333477,
      "v": 112
    },
    {
      "midi": 57,
      "hit": false,
      "t": 73189.60149999995,
      "d": 155.17230000000563,
      "v": 116
    },
    {
      "midi": 60,
      "hit": false,
      "t": 73189.60149999995,
      "d": 170.25849583333184,
      "v": 112
    },
    {
      "midi": 60,
      "hit": false,
      "t": 73211.15320833334,
      "d": 40.94824583333684,
      "v": 103
    },
    {
      "midi": 55,
      "hit": false,
      "t": 73448.22199999995,
      "d": 176.72400833333086,
      "v": 116
    },
    {
      "midi": 28,
      "hit": false,
      "t": 73448.22199999995,
      "d": 181.03435000000172,
      "v": 114
    },
    {
      "midi": 64,
      "hit": false,
      "t": 73448.22199999995,
      "d": 183.18952083332988,
      "v": 116
    },
    {
      "midi": 60,
      "hit": false,
      "t": 73448.22199999995,
      "d": 202.58605833332695,
      "v": 112
    },
    {
      "midi": 40,
      "hit": false,
      "t": 73448.22199999995,
      "d": 217.67225416665315,
      "v": 102
    },
    {
      "midi": 60,
      "hit": false,
      "t": 73469.77370833335,
      "d": 19.396537499997066,
      "v": 116
    },
    {
      "midi": 60,
      "hit": false,
      "t": 73728.39420833334,
      "d": 12.931024999998044,
      "v": 126
    },
    {
      "midi": 60,
      "hit": false,
      "t": 73987.01470833334,
      "d": 49.56892916666402,
      "v": 127
    },
    {
      "midi": 40,
      "hit": false,
      "t": 74224.08349999994,
      "d": 107.75854166666977,
      "v": 110
    },
    {
      "midi": 64,
      "hit": false,
      "t": 74224.08349999994,
      "d": 127.15507916666684,
      "v": 117
    },
    {
      "midi": 60,
      "hit": false,
      "t": 74224.08349999994,
      "d": 135.77576249999402,
      "v": 110
    },
    {
      "midi": 55,
      "hit": false,
      "t": 74224.08349999994,
      "d": 140.08610416666488,
      "v": 114
    },
    {
      "midi": 60,
      "hit": false,
      "t": 74245.63520833335,
      "d": 21.551708333339775,
      "v": 118
    },
    {
      "midi": 26,
      "hit": false,
      "t": 74482.70399999994,
      "d": 127.15507916666684,
      "v": 108
    },
    {
      "midi": 62,
      "hit": false,
      "t": 74482.70399999994,
      "d": 172.41366666666,
      "v": 118
    },
    {
      "midi": 53,
      "hit": false,
      "t": 74482.70399999994,
      "d": 183.18952083332988,
      "v": 114
    },
    {
      "midi": 57,
      "hit": false,
      "t": 74482.70399999994,
      "d": 189.6550333333289,
      "v": 117
    },
    {
      "midi": 38,
      "hit": false,
      "t": 74482.70399999994,
      "d": 215.517083333325,
      "v": 104
    },
    {
      "midi": 60,
      "hit": false,
      "t": 74504.25570833335,
      "d": 15.086195833326201,
      "v": 110
    },
    {
      "midi": 60,
      "hit": false,
      "t": 74762.87620833334,
      "d": 19.396537499997066,
      "v": 122
    },
    {
      "midi": 60,
      "hit": false,
      "t": 75021.49670833333,
      "d": 135.77576249999402,
      "v": 127
    },
    {
      "midi": 38,
      "hit": false,
      "t": 75258.56549999992,
      "d": 96.98268749999988,
      "v": 112
    },
    {
      "midi": 57,
      "hit": false,
      "t": 75258.56549999992,
      "d": 114.2240541666688,
      "v": 116
    },
    {
      "midi": 62,
      "hit": false,
      "t": 75258.56549999992,
      "d": 122.84473749999597,
      "v": 117
    },
    {
      "midi": 53,
      "hit": false,
      "t": 75258.56549999992,
      "d": 131.46542083332315,
      "v": 112
    },
    {
      "midi": 60,
      "hit": false,
      "t": 75280.11720833332,
      "d": 43.103416666665,
      "v": 84
    },
    {
      "midi": 24,
      "hit": false,
      "t": 75517.18599999991,
      "d": 103.4481999999989,
      "v": 114
    },
    {
      "midi": 36,
      "hit": false,
      "t": 75517.18599999991,
      "d": 135.77576249999402,
      "v": 110
    },
    {
      "midi": 52,
      "hit": false,
      "t": 75517.18599999991,
      "d": 135.77576249999402,
      "v": 119
    },
    {
      "midi": 60,
      "hit": false,
      "t": 75517.18599999991,
      "d": 161.6378124999901,
      "v": 118
    },
    {
      "midi": 55,
      "hit": false,
      "t": 75517.18599999991,
      "d": 163.79298333331826,
      "v": 119
    },
    {
      "midi": 60,
      "hit": false,
      "t": 75538.73770833333,
      "d": 38.79307499999413,
      "v": 116
    },
    {
      "midi": 36,
      "hit": false,
      "t": 75775.8064999999,
      "d": 88.3620041666727,
      "v": 96
    },
    {
      "midi": 60,
      "hit": false,
      "t": 75775.8064999999,
      "d": 94.82751666667173,
      "v": 98
    },
    {
      "midi": 53,
      "hit": false,
      "t": 75775.8064999999,
      "d": 107.75854166666977,
      "v": 112
    },
    {
      "midi": 60,
      "hit": false,
      "t": 75797.35820833332,
      "d": 120.68956666666782,
      "v": 127
    },
    {
      "midi": 40,
      "hit": false,
      "t": 76034.42699999991,
      "d": 301.72391666666954,
      "v": 119
    },
    {
      "midi": 55,
      "hit": false,
      "t": 76034.42699999991,
      "d": 321.1204541666666,
      "v": 122
    },
    {
      "midi": 60,
      "hit": false,
      "t": 76034.42699999991,
      "d": 338.3618208333355,
      "v": 120
    },
    {
      "midi": 60,
      "hit": false,
      "t": 76055.97870833332,
      "d": 49.56892916666402,
      "v": 89
    },
    {
      "midi": 38,
      "hit": false,
      "t": 76293.04749999991,
      "d": 25.86204999999609,
      "v": 96
    },
    {
      "midi": 60,
      "hit": false,
      "t": 76314.59920833333,
      "d": 30.172391666666954,
      "v": 122
    },
    {
      "midi": 41,
      "hit": false,
      "t": 76551.66799999992,
      "d": 193.96537499999977,
      "v": 118
    },
    {
      "midi": 60,
      "hit": false,
      "t": 76551.66799999992,
      "d": 206.8963999999978,
      "v": 119
    },
    {
      "midi": 57,
      "hit": false,
      "t": 76551.66799999992,
      "d": 211.20674166666868,
      "v": 120
    },
    {
      "midi": 65,
      "hit": false,
      "t": 76551.66799999992,
      "d": 215.51708333333954,
      "v": 119
    },
    {
      "midi": 60,
      "hit": false,
      "t": 76573.21970833333,
      "d": 43.103416666665,
      "v": 127
    },
    {
      "midi": 29,
      "hit": false,
      "t": 76680.97824999991,
      "d": 28.017220833338797,
      "v": 65
    },
    {
      "midi": 60,
      "hit": false,
      "t": 76831.84020833333,
      "d": 25.86204999999609,
      "v": 82
    },
    {
      "midi": 60,
      "hit": false,
      "t": 77090.46070833332,
      "d": 64.65512500000477,
      "v": 127
    },
    {
      "midi": 57,
      "hit": false,
      "t": 77327.52949999992,
      "d": 183.18952083332988,
      "v": 114
    },
    {
      "midi": 65,
      "hit": false,
      "t": 77327.52949999992,
      "d": 185.34469166665804,
      "v": 116
    },
    {
      "midi": 29,
      "hit": false,
      "t": 77327.52949999992,
      "d": 191.81020416665706,
      "v": 106
    },
    {
      "midi": 41,
      "hit": false,
      "t": 77327.52949999992,
      "d": 200.43088749998424,
      "v": 116
    },
    {
      "midi": 60,
      "hit": false,
      "t": 77349.08120833333,
      "d": 47.41375833333586,
      "v": 120
    },
    {
      "midi": 60,
      "hit": false,
      "t": 77456.83974999991,
      "d": 2.1551708333281567,
      "v": 108
    },
    {
      "midi": 28,
      "hit": false,
      "t": 77586.1499999999,
      "d": 107.75854166666977,
      "v": 114
    },
    {
      "midi": 64,
      "hit": false,
      "t": 77586.1499999999,
      "d": 185.3446916666726,
      "v": 116
    },
    {
      "midi": 55,
      "hit": false,
      "t": 77586.1499999999,
      "d": 187.49986250000075,
      "v": 116
    },
    {
      "midi": 40,
      "hit": false,
      "t": 77586.1499999999,
      "d": 189.6550333333289,
      "v": 110
    },
    {
      "midi": 60,
      "hit": false,
      "t": 77586.1499999999,
      "d": 209.05157083332597,
      "v": 114
    },
    {
      "midi": 60,
      "hit": false,
      "t": 77607.70170833333,
      "d": 45.258587499993155,
      "v": 127
    },
    {
      "midi": 60,
      "hit": false,
      "t": 77866.32220833332,
      "d": 17.24136666666891,
      "v": 110
    },
    {
      "midi": 60,
      "hit": false,
      "t": 78124.94270833333,
      "d": 51.72410000000673,
      "v": 127
    },
    {
      "midi": 28,
      "hit": false,
      "t": 78362.0114999999,
      "d": 64.65512500000477,
      "v": 100
    },
    {
      "midi": 64,
      "hit": false,
      "t": 78362.0114999999,
      "d": 99.13785833334259,
      "v": 108
    },
    {
      "midi": 60,
      "hit": false,
      "t": 78362.0114999999,
      "d": 105.60337083334161,
      "v": 106
    },
    {
      "midi": 55,
      "hit": false,
      "t": 78362.0114999999,
      "d": 116.3792250000115,
      "v": 110
    },
    {
      "midi": 40,
      "hit": false,
      "t": 78362.0114999999,
      "d": 120.68956666668237,
      "v": 104
    },
    {
      "midi": 60,
      "hit": false,
      "t": 78383.56320833333,
      "d": 19.396537499997066,
      "v": 78
    },
    {
      "midi": 53,
      "hit": false,
      "t": 78620.63199999993,
      "d": 142.24127499999304,
      "v": 118
    },
    {
      "midi": 62,
      "hit": false,
      "t": 78620.63199999993,
      "d": 170.25849583333184,
      "v": 118
    },
    {
      "midi": 57,
      "hit": false,
      "t": 78620.63199999993,
      "d": 181.03435000000172,
      "v": 120
    },
    {
      "midi": 38,
      "hit": false,
      "t": 78620.63199999993,
      "d": 196.12054583332792,
      "v": 119
    },
    {
      "midi": 60,
      "hit": false,
      "t": 78642.18370833332,
      "d": 40.94824583333684,
      "v": 108
    },
    {
      "midi": 62,
      "hit": false,
      "t": 78879.25249999992,
      "d": 64.65512500000477,
      "v": 88
    },
    {
      "midi": 40,
      "hit": false,
      "t": 78879.25249999992,
      "d": 79.74132083333097,
      "v": 110
    },
    {
      "midi": 55,
      "hit": false,
      "t": 78879.25249999992,
      "d": 96.98268749999988,
      "v": 112
    },
    {
      "midi": 59,
      "hit": false,
      "t": 78879.25249999992,
      "d": 101.29302916667075,
      "v": 108
    },
    {
      "midi": 60,
      "hit": false,
      "t": 78900.80420833333,
      "d": 25.86204999999609,
      "v": 88
    },
    {
      "midi": 41,
      "hit": false,
      "t": 79137.87299999992,
      "d": 342.6721625000064,
      "v": 118
    },
    {
      "midi": 62,
      "hit": false,
      "t": 79137.87299999992,
      "d": 344.82733333333454,
      "v": 119
    },
    {
      "midi": 57,
      "hit": false,
      "t": 79137.87299999992,
      "d": 366.3790416666743,
      "v": 122
    },
    {
      "midi": 60,
      "hit": false,
      "t": 79159.42470833332,
      "d": 53.879270833334886,
      "v": 127
    },
    {
      "midi": 24,
      "hit": false,
      "t": 79655.11399999993,
      "d": 64.65512500000477,
      "v": 114
    },
    {
      "midi": 36,
      "hit": false,
      "t": 79655.11399999993,
      "d": 77.58615000000282,
      "v": 117
    },
    {
      "midi": 52,
      "hit": false,
      "t": 79655.11399999993,
      "d": 120.68956666666782,
      "v": 119
    },
    {
      "midi": 55,
      "hit": false,
      "t": 79655.11399999993,
      "d": 124.99990833333868,
      "v": 119
    },
    {
      "midi": 60,
      "hit": false,
      "t": 79655.11399999993,
      "d": 127.15507916666684,
      "v": 119
    },
    {
      "midi": 60,
      "hit": false,
      "t": 79676.66570833331,
      "d": 32.32756249999511,
      "v": 98
    },
    {
      "midi": 26,
      "hit": false,
      "t": 79913.73449999993,
      "d": 60.34478333333391,
      "v": 104
    },
    {
      "midi": 38,
      "hit": false,
      "t": 79913.73449999993,
      "d": 75.43097916666011,
      "v": 112
    },
    {
      "midi": 53,
      "hit": false,
      "t": 79913.73449999993,
      "d": 96.98268749999988,
      "v": 108
    },
    {
      "midi": 57,
      "hit": false,
      "t": 79913.73449999993,
      "d": 101.29302916667075,
      "v": 110
    },
    {
      "midi": 62,
      "hit": false,
      "t": 79913.73449999993,
      "d": 103.4481999999989,
      "v": 108
    },
    {
      "midi": 60,
      "hit": false,
      "t": 79935.2862083333,
      "d": 176.72400833333086,
      "v": 127
    },
    {
      "midi": 62,
      "hit": false,
      "t": 80172.35499999994,
      "d": 170.25849583333184,
      "v": 110
    },
    {
      "midi": 28,
      "hit": false,
      "t": 80172.35499999994,
      "d": 282.3273791666579,
      "v": 106
    },
    {
      "midi": 40,
      "hit": false,
      "t": 80172.35499999994,
      "d": 293.1032333333278,
      "v": 117
    },
    {
      "midi": 55,
      "hit": false,
      "t": 80172.35499999994,
      "d": 301.723916666655,
      "v": 119
    },
    {
      "midi": 64,
      "hit": false,
      "t": 80172.35499999994,
      "d": 303.87908749998314,
      "v": 110
    },
    {
      "midi": 59,
      "hit": false,
      "t": 80172.35499999994,
      "d": 306.0342583333113,
      "v": 119
    },
    {
      "midi": 60,
      "hit": false,
      "t": 80193.9067083333,
      "d": 49.56892916666402,
      "v": 92
    },
    {
      "midi": 60,
      "hit": false,
      "t": 80452.52720833331,
      "d": 105.60337083332706,
      "v": 127
    },
    {
      "midi": 41,
      "hit": false,
      "t": 80689.59599999992,
      "d": 752.1546208333166,
      "v": 100
    },
    {
      "midi": 60,
      "hit": false,
      "t": 80948.21649999992,
      "d": 133.62059166666586,
      "v": 98
    },
    {
      "midi": 57,
      "hit": false,
      "t": 80948.21649999992,
      "d": 135.77576249999402,
      "v": 104
    },
    {
      "midi": 64,
      "hit": false,
      "t": 80948.21649999992,
      "d": 142.24127499999304,
      "v": 100
    },
    {
      "midi": 53,
      "hit": false,
      "t": 81206.83699999991,
      "d": 148.70678749999206,
      "v": 65
    },
    {
      "midi": 60,
      "hit": false,
      "t": 81336.1472499999,
      "d": 56.03444166666304,
      "v": 102
    },
    {
      "midi": 57,
      "hit": false,
      "t": 81336.1472499999,
      "d": 71.12063749998924,
      "v": 102
    },
    {
      "midi": 64,
      "hit": false,
      "t": 81336.1472499999,
      "d": 84.05166249998729,
      "v": 104
    },
    {
      "midi": 41,
      "hit": false,
      "t": 81594.7677499999,
      "d": 829.7407708333194,
      "v": 94
    },
    {
      "midi": 64,
      "hit": false,
      "t": 81724.07799999989,
      "d": 1064.6543916666706,
      "v": 114
    },
    {
      "midi": 60,
      "hit": false,
      "t": 81724.07799999989,
      "d": 1092.6716125000094,
      "v": 104
    },
    {
      "midi": 57,
      "hit": false,
      "t": 81724.07799999989,
      "d": 1105.6026375000074,
      "v": 112
    },
    {
      "midi": 53,
      "hit": false,
      "t": 82241.31899999989,
      "d": 237.06879166666477,
      "v": 90
    },
    {
      "midi": 48,
      "hit": false,
      "t": 82499.93949999989,
      "d": 206.8963999999978,
      "v": 84
    },
    {
      "midi": 40,
      "hit": false,
      "t": 82758.5599999999,
      "d": 674.5684708333429,
      "v": 104
    },
    {
      "midi": 55,
      "hit": false,
      "t": 83017.1804999999,
      "d": 94.82751666667173,
      "v": 112
    },
    {
      "midi": 62,
      "hit": false,
      "t": 83017.1804999999,
      "d": 114.2240541666688,
      "v": 110
    },
    {
      "midi": 59,
      "hit": false,
      "t": 83017.1804999999,
      "d": 120.68956666666782,
      "v": 112
    },
    {
      "midi": 52,
      "hit": false,
      "t": 83275.8009999999,
      "d": 96.98268749999988,
      "v": 83
    },
    {
      "midi": 59,
      "hit": false,
      "t": 83405.1112499999,
      "d": 47.41375833333586,
      "v": 112
    },
    {
      "midi": 55,
      "hit": false,
      "t": 83405.1112499999,
      "d": 56.03444166666304,
      "v": 116
    },
    {
      "midi": 62,
      "hit": false,
      "t": 83405.1112499999,
      "d": 68.96546666666109,
      "v": 106
    },
    {
      "midi": 47,
      "hit": false,
      "t": 83534.4214999999,
      "d": 36.637904166665976,
      "v": 35
    },
    {
      "midi": 40,
      "hit": false,
      "t": 83663.73174999989,
      "d": 827.5855999999912,
      "v": 96
    },
    {
      "midi": 55,
      "hit": false,
      "t": 83793.04199999988,
      "d": 1012.9302916666493,
      "v": 114
    },
    {
      "midi": 59,
      "hit": false,
      "t": 83793.04199999988,
      "d": 1034.481999999989,
      "v": 114
    },
    {
      "midi": 62,
      "hit": false,
      "t": 83793.04199999988,
      "d": 1040.947512499988,
      "v": 110
    },
    {
      "midi": 52,
      "hit": false,
      "t": 84310.28299999988,
      "d": 226.29293749999488,
      "v": 86
    },
    {
      "midi": 47,
      "hit": false,
      "t": 84568.90349999987,
      "d": 75.43097916666011,
      "v": 80
    },
    {
      "midi": 38,
      "hit": false,
      "t": 84827.52399999987,
      "d": 842.6717958333174,
      "v": 108
    },
    {
      "midi": 60,
      "hit": false,
      "t": 85086.14449999988,
      "d": 66.81029583333293,
      "v": 96
    },
    {
      "midi": 62,
      "hit": false,
      "t": 85086.14449999988,
      "d": 75.43097916666011,
      "v": 98
    },
    {
      "midi": 57,
      "hit": false,
      "t": 85086.14449999988,
      "d": 79.74132083333097,
      "v": 108
    },
    {
      "midi": 65,
      "hit": false,
      "t": 85086.14449999988,
      "d": 86.20683333333,
      "v": 100
    },
    {
      "midi": 50,
      "hit": false,
      "t": 85344.76499999987,
      "d": 96.98268749999988,
      "v": 82
    },
    {
      "midi": 60,
      "hit": false,
      "t": 85474.07524999986,
      "d": 58.18961250000575,
      "v": 96
    },
    {
      "midi": 62,
      "hit": false,
      "t": 85474.07524999986,
      "d": 66.81029583333293,
      "v": 100
    },
    {
      "midi": 57,
      "hit": false,
      "t": 85474.07524999986,
      "d": 68.96546666666109,
      "v": 104
    },
    {
      "midi": 65,
      "hit": false,
      "t": 85474.07524999986,
      "d": 96.98268749999988,
      "v": 104
    },
    {
      "midi": 50,
      "hit": false,
      "t": 85732.69574999985,
      "d": 25.86204999999609,
      "v": 52
    },
    {
      "midi": 38,
      "hit": false,
      "t": 85862.00599999985,
      "d": 644.3960791666614,
      "v": 88
    },
    {
      "midi": 60,
      "hit": false,
      "t": 85862.00599999985,
      "d": 1062.4992208333424,
      "v": 96
    },
    {
      "midi": 62,
      "hit": false,
      "t": 85862.00599999985,
      "d": 1094.8267833333375,
      "v": 106
    },
    {
      "midi": 65,
      "hit": false,
      "t": 85862.00599999985,
      "d": 1099.1371250000084,
      "v": 104
    },
    {
      "midi": 57,
      "hit": false,
      "t": 85862.00599999985,
      "d": 1107.7578083333356,
      "v": 104
    },
    {
      "midi": 50,
      "hit": false,
      "t": 86379.24699999984,
      "d": 174.5688375000027,
      "v": 102
    },
    {
      "midi": 45,
      "hit": false,
      "t": 86637.86749999985,
      "d": 47.41375833333586,
      "v": 98
    },
    {
      "midi": 36,
      "hit": false,
      "t": 86896.48799999985,
      "d": 859.9131625000155,
      "v": 104
    },
    {
      "midi": 55,
      "hit": false,
      "t": 87155.10849999986,
      "d": 32.32756249999511,
      "v": 76
    },
    {
      "midi": 53,
      "hit": false,
      "t": 87155.10849999986,
      "d": 49.56892916666402,
      "v": 61
    },
    {
      "midi": 60,
      "hit": false,
      "t": 87155.10849999986,
      "d": 79.74132083333097,
      "v": 106
    },
    {
      "midi": 64,
      "hit": false,
      "t": 87155.10849999986,
      "d": 109.91371249999793,
      "v": 108
    },
    {
      "midi": 48,
      "hit": false,
      "t": 87413.72899999986,
      "d": 101.29302916667075,
      "v": 88
    },
    {
      "midi": 60,
      "hit": false,
      "t": 87543.03924999987,
      "d": 135.77576249999402,
      "v": 102
    },
    {
      "midi": 64,
      "hit": false,
      "t": 87543.03924999987,
      "d": 142.24127499999304,
      "v": 116
    },
    {
      "midi": 55,
      "hit": false,
      "t": 87543.03924999987,
      "d": 178.87917916665901,
      "v": 112
    },
    {
      "midi": 48,
      "hit": false,
      "t": 87801.65974999986,
      "d": 75.43097916666011,
      "v": 59
    },
    {
      "midi": 52,
      "hit": false,
      "t": 87930.96999999986,
      "d": 144.39644583333575,
      "v": 119
    },
    {
      "midi": 60,
      "hit": false,
      "t": 87930.96999999986,
      "d": 183.18952083332988,
      "v": 119
    },
    {
      "midi": 36,
      "hit": false,
      "t": 87930.96999999986,
      "d": 202.58605833332695,
      "v": 108
    },
    {
      "midi": 60,
      "hit": false,
      "t": 88189.59049999985,
      "d": 140.08610416666488,
      "v": 102
    },
    {
      "midi": 53,
      "hit": false,
      "t": 88189.59049999985,
      "d": 161.63781250000466,
      "v": 110
    },
    {
      "midi": 38,
      "hit": false,
      "t": 88189.59049999985,
      "d": 226.29293750000943,
      "v": 108
    },
    {
      "midi": 40,
      "hit": false,
      "t": 88448.21099999985,
      "d": 381.4652375000005,
      "v": 110
    },
    {
      "midi": 55,
      "hit": false,
      "t": 88448.21099999985,
      "d": 491.37894999999844,
      "v": 120
    },
    {
      "midi": 60,
      "hit": false,
      "t": 88448.21099999985,
      "d": 510.7754874999955,
      "v": 106
    },
    {
      "midi": 41,
      "hit": false,
      "t": 88965.45199999984,
      "d": 846.9821375000029,
      "v": 110
    },
    {
      "midi": 57,
      "hit": false,
      "t": 89224.07249999985,
      "d": 84.05166250000184,
      "v": 114
    },
    {
      "midi": 60,
      "hit": false,
      "t": 89224.07249999985,
      "d": 84.05166250000184,
      "v": 108
    },
    {
      "midi": 64,
      "hit": false,
      "t": 89224.07249999985,
      "d": 103.4481999999989,
      "v": 114
    },
    {
      "midi": 53,
      "hit": false,
      "t": 89482.69299999985,
      "d": 96.98268749999988,
      "v": 79
    },
    {
      "midi": 60,
      "hit": false,
      "t": 89612.00324999985,
      "d": 56.03444166666304,
      "v": 108
    },
    {
      "midi": 57,
      "hit": false,
      "t": 89612.00324999985,
      "d": 77.58615000000282,
      "v": 114
    },
    {
      "midi": 64,
      "hit": false,
      "t": 89612.00324999985,
      "d": 86.20683333333,
      "v": 116
    },
    {
      "midi": 53,
      "hit": false,
      "t": 89870.62374999985,
      "d": 23.70687916666793,
      "v": 36
    },
    {
      "midi": 41,
      "hit": false,
      "t": 89999.93399999985,
      "d": 810.3442333333223,
      "v": 94
    },
    {
      "midi": 57,
      "hit": false,
      "t": 89999.93399999985,
      "d": 1075.430245833326,
      "v": 116
    },
    {
      "midi": 60,
      "hit": false,
      "t": 89999.93399999985,
      "d": 1077.585416666654,
      "v": 110
    },
    {
      "midi": 64,
      "hit": false,
      "t": 89999.93399999985,
      "d": 1084.050929166653,
      "v": 112
    },
    {
      "midi": 53,
      "hit": false,
      "t": 90517.17499999984,
      "d": 256.46532916666183,
      "v": 108
    },
    {
      "midi": 48,
      "hit": false,
      "t": 90775.79549999983,
      "d": 112.06888333334064,
      "v": 104
    },
    {
      "midi": 40,
      "hit": false,
      "t": 91034.41599999984,
      "d": 758.6201333333593,
      "v": 116
    },
    {
      "midi": 55,
      "hit": false,
      "t": 91293.03649999984,
      "d": 66.81029583333293,
      "v": 112
    },
    {
      "midi": 59,
      "hit": false,
      "t": 91293.03649999984,
      "d": 92.67234583332902,
      "v": 117
    },
    {
      "midi": 62,
      "hit": false,
      "t": 91293.03649999984,
      "d": 96.98268749999988,
      "v": 117
    },
    {
      "midi": 52,
      "hit": false,
      "t": 91551.65699999985,
      "d": 88.3620041666727,
      "v": 92
    },
    {
      "midi": 55,
      "hit": false,
      "t": 91680.96724999986,
      "d": 66.81029583333293,
      "v": 119
    },
    {
      "midi": 59,
      "hit": false,
      "t": 91680.96724999986,
      "d": 71.1206375000038,
      "v": 118
    },
    {
      "midi": 62,
      "hit": false,
      "t": 91680.96724999986,
      "d": 84.05166250000184,
      "v": 116
    },
    {
      "midi": 52,
      "hit": false,
      "t": 91939.58774999986,
      "d": 62.499954166662064,
      "v": 83
    },
    {
      "midi": 40,
      "hit": false,
      "t": 92068.89799999986,
      "d": 778.0166708333127,
      "v": 98
    },
    {
      "midi": 59,
      "hit": false,
      "t": 92068.89799999986,
      "d": 937.4993124999892,
      "v": 118
    },
    {
      "midi": 62,
      "hit": false,
      "t": 92068.89799999986,
      "d": 946.1199958333164,
      "v": 114
    },
    {
      "midi": 55,
      "hit": false,
      "t": 92068.89799999986,
      "d": 963.3613624999853,
      "v": 119
    },
    {
      "midi": 52,
      "hit": false,
      "t": 92586.13899999985,
      "d": 226.29293749999488,
      "v": 104
    },
    {
      "midi": 47,
      "hit": false,
      "t": 92844.75949999984,
      "d": 150.86195833333477,
      "v": 94
    },
    {
      "midi": 44,
      "hit": false,
      "t": 93103.37999999984,
      "d": 737.0684250000049,
      "v": 121
    },
    {
      "midi": 56,
      "hit": false,
      "t": 93362.00049999985,
      "d": 94.82751666667173,
      "v": 112
    },
    {
      "midi": 64,
      "hit": false,
      "t": 93362.00049999985,
      "d": 107.75854166666977,
      "v": 104
    },
    {
      "midi": 59,
      "hit": false,
      "t": 93362.00049999985,
      "d": 118.53439583333966,
      "v": 114
    },
    {
      "midi": 62,
      "hit": false,
      "t": 93362.00049999985,
      "d": 127.15507916666684,
      "v": 102
    },
    {
      "midi": 52,
      "hit": false,
      "t": 93620.62099999985,
      "d": 129.310249999995,
      "v": 100
    },
    {
      "midi": 56,
      "hit": false,
      "t": 93749.93124999985,
      "d": 77.58615000000282,
      "v": 116
    },
    {
      "midi": 59,
      "hit": false,
      "t": 93749.93124999985,
      "d": 77.58615000000282,
      "v": 112
    },
    {
      "midi": 62,
      "hit": false,
      "t": 93749.93124999985,
      "d": 94.82751666667173,
      "v": 98
    },
    {
      "midi": 64,
      "hit": false,
      "t": 93749.93124999985,
      "d": 109.91371249999793,
      "v": 108
    },
    {
      "midi": 52,
      "hit": false,
      "t": 93879.24149999984,
      "d": 77.58615000000282,
      "v": 86
    },
    {
      "midi": 56,
      "hit": false,
      "t": 94137.86199999985,
      "d": 431.03416666666453,
      "v": 117
    },
    {
      "midi": 59,
      "hit": false,
      "t": 94137.86199999985,
      "d": 443.9651916666626,
      "v": 117
    },
    {
      "midi": 64,
      "hit": false,
      "t": 94137.86199999985,
      "d": 443.9651916666626,
      "v": 117
    },
    {
      "midi": 44,
      "hit": false,
      "t": 94137.86199999985,
      "d": 758.6201333333302,
      "v": 116
    },
    {
      "midi": 52,
      "hit": false,
      "t": 94525.79274999985,
      "d": 428.8789958333364,
      "v": 76
    },
    {
      "midi": 59,
      "hit": false,
      "t": 94655.10299999984,
      "d": 446.12036250001984,
      "v": 112
    },
    {
      "midi": 56,
      "hit": false,
      "t": 94655.10299999984,
      "d": 450.4307041666907,
      "v": 98
    },
    {
      "midi": 65,
      "hit": false,
      "t": 94655.10299999984,
      "d": 489.22377916668484,
      "v": 116
    },
    {
      "midi": 44,
      "hit": false,
      "t": 94913.72349999985,
      "d": 122.84473750001052,
      "v": 110
    },
    {
      "midi": 45,
      "hit": false,
      "t": 95172.34399999987,
      "d": 504.3099749999965,
      "v": 119
    },
    {
      "midi": 57,
      "hit": false,
      "t": 95430.96449999987,
      "d": 68.96546666666109,
      "v": 118
    },
    {
      "midi": 60,
      "hit": false,
      "t": 95430.96449999987,
      "d": 77.58614999998827,
      "v": 110
    },
    {
      "midi": 64,
      "hit": false,
      "t": 95430.96449999987,
      "d": 90.51717499998631,
      "v": 117
    },
    {
      "midi": 52,
      "hit": false,
      "t": 95689.58499999986,
      "d": 75.43097916666011,
      "v": 92
    },
    {
      "midi": 60,
      "hit": false,
      "t": 95818.89524999986,
      "d": 66.81029583333293,
      "v": 110
    },
    {
      "midi": 64,
      "hit": false,
      "t": 95818.89524999986,
      "d": 75.43097916666011,
      "v": 116
    },
    {
      "midi": 57,
      "hit": false,
      "t": 95818.89524999986,
      "d": 77.58614999998827,
      "v": 116
    },
    {
      "midi": 45,
      "hit": false,
      "t": 95818.89524999986,
      "d": 81.89649166665913,
      "v": 100
    },
    {
      "midi": 45,
      "hit": false,
      "t": 96077.51574999985,
      "d": 851.2924791666592,
      "v": 106
    },
    {
      "midi": 60,
      "hit": false,
      "t": 96206.82599999984,
      "d": 769.3959875,
      "v": 117
    },
    {
      "midi": 64,
      "hit": false,
      "t": 96206.82599999984,
      "d": 775.8614999999991,
      "v": 119
    },
    {
      "midi": 57,
      "hit": false,
      "t": 96206.82599999984,
      "d": 780.1718416666699,
      "v": 119
    },
    {
      "midi": 52,
      "hit": false,
      "t": 96724.06699999984,
      "d": 174.5688375000027,
      "v": 114
    },
    {
      "midi": 52,
      "hit": false,
      "t": 96982.68749999984,
      "d": 81.89649166667368,
      "v": 65
    },
    {
      "midi": 38,
      "hit": false,
      "t": 97241.30799999984,
      "d": 532.3271958333207,
      "v": 108
    },
    {
      "midi": 53,
      "hit": false,
      "t": 97241.30799999984,
      "d": 1189.6542999999947,
      "v": 114
    },
    {
      "midi": 57,
      "hit": false,
      "t": 97241.30799999984,
      "d": 1484.9127041666652,
      "v": 117
    },
    {
      "midi": 64,
      "hit": false,
      "t": 97241.30799999984,
      "d": 1519.395437500003,
      "v": 117
    },
    {
      "midi": 60,
      "hit": false,
      "t": 97241.30799999984,
      "d": 1862.0675999999949,
      "v": 110
    },
    {
      "midi": 50,
      "hit": false,
      "t": 97758.54899999984,
      "d": 96.98268749999988,
      "v": 75
    },
    {
      "midi": 38,
      "hit": false,
      "t": 98017.16949999984,
      "d": 99.13785833332804,
      "v": 114
    },
    {
      "midi": 38,
      "hit": false,
      "t": 98275.78999999983,
      "d": 840.5166250000038,
      "v": 117
    },
    {
      "midi": 50,
      "hit": false,
      "t": 98534.41049999984,
      "d": 530.1720250000071,
      "v": 104
    },
    {
      "midi": 53,
      "hit": false,
      "t": 98793.03099999984,
      "d": 280.17220833332976,
      "v": 119
    },
    {
      "midi": 57,
      "hit": false,
      "t": 98793.03099999984,
      "d": 290.94806249999965,
      "v": 119
    },
    {
      "midi": 64,
      "hit": false,
      "t": 98793.03099999984,
      "d": 299.56874583332683,
      "v": 108
    },
    {
      "midi": 67,
      "hit": false,
      "t": 99310.27199999984,
      "d": 43.103416666665,
      "v": 121
    },
    {
      "midi": 79,
      "hit": false,
      "t": 99310.27199999984,
      "d": 47.41375833333586,
      "v": 121
    },
    {
      "midi": 67,
      "hit": false,
      "t": 99439.58224999985,
      "d": 84.05166250000184,
      "v": 108
    },
    {
      "midi": 79,
      "hit": false,
      "t": 99439.58224999985,
      "d": 107.75854166666977,
      "v": 98
    },
    {
      "midi": 43,
      "hit": false,
      "t": 99568.89249999986,
      "d": 66.81029583333293,
      "v": 122
    },
    {
      "midi": 31,
      "hit": false,
      "t": 99568.89249999986,
      "d": 79.74132083333097,
      "v": 118
    },
    {
      "midi": 31,
      "hit": false,
      "t": 99827.51299999986,
      "d": 170.25849583333184,
      "v": 117
    },
    {
      "midi": 43,
      "hit": false,
      "t": 99827.51299999986,
      "d": 176.72400833333086,
      "v": 121
    },
    {
      "midi": 79,
      "hit": false,
      "t": 100086.13349999987,
      "d": 40.94824583333684,
      "v": 119
    },
    {
      "midi": 67,
      "hit": false,
      "t": 100086.13349999987,
      "d": 43.103416666665,
      "v": 121
    },
    {
      "midi": 67,
      "hit": false,
      "t": 100215.44374999986,
      "d": 68.96546666666109,
      "v": 119
    },
    {
      "midi": 79,
      "hit": false,
      "t": 100215.44374999986,
      "d": 90.51717500000086,
      "v": 117
    },
    {
      "midi": 43,
      "hit": false,
      "t": 100344.75399999986,
      "d": 103.4481999999989,
      "v": 122
    },
    {
      "midi": 31,
      "hit": false,
      "t": 100344.75399999986,
      "d": 114.2240541666688,
      "v": 118
    },
    {
      "midi": 43,
      "hit": false,
      "t": 100603.37449999986,
      "d": 178.87917916667357,
      "v": 121
    },
    {
      "midi": 31,
      "hit": false,
      "t": 100603.37449999986,
      "d": 185.3446916666726,
      "v": 119
    },
    {
      "midi": 67,
      "hit": false,
      "t": 100991.30524999986,
      "d": 34.48273333333782,
      "v": 118
    },
    {
      "midi": 79,
      "hit": false,
      "t": 100991.30524999986,
      "d": 34.48273333333782,
      "v": 114
    },
    {
      "midi": 29,
      "hit": false,
      "t": 101379.23599999986,
      "d": 168.10332500000368,
      "v": 106
    },
    {
      "midi": 65,
      "hit": false,
      "t": 101379.23599999986,
      "d": 193.96537499999977,
      "v": 116
    },
    {
      "midi": 57,
      "hit": false,
      "t": 101379.23599999986,
      "d": 196.12054583332792,
      "v": 114
    },
    {
      "midi": 60,
      "hit": false,
      "t": 101379.23599999986,
      "d": 202.58605833332695,
      "v": 110
    },
    {
      "midi": 41,
      "hit": false,
      "t": 101379.23599999986,
      "d": 237.06879166666477,
      "v": 110
    },
    {
      "midi": 60,
      "hit": false,
      "t": 101400.78770833332,
      "d": 68.96546666666109,
      "v": 127
    },
    {
      "midi": 60,
      "hit": false,
      "t": 101659.4082083333,
      "d": 49.56892916666402,
      "v": 106
    },
    {
      "midi": 60,
      "hit": false,
      "t": 101918.02870833331,
      "d": 71.1206375000038,
      "v": 127
    },
    {
      "midi": 41,
      "hit": false,
      "t": 102155.09749999986,
      "d": 107.75854166666977,
      "v": 116
    },
    {
      "midi": 65,
      "hit": false,
      "t": 102155.09749999986,
      "d": 150.86195833333477,
      "v": 112
    },
    {
      "midi": 57,
      "hit": false,
      "t": 102155.09749999986,
      "d": 155.17230000000563,
      "v": 116
    },
    {
      "midi": 60,
      "hit": false,
      "t": 102155.09749999986,
      "d": 170.25849583333184,
      "v": 112
    },
    {
      "midi": 60,
      "hit": false,
      "t": 102176.64920833331,
      "d": 40.94824583333684,
      "v": 103
    },
    {
      "midi": 55,
      "hit": false,
      "t": 102413.71799999986,
      "d": 176.72400833333086,
      "v": 116
    },
    {
      "midi": 28,
      "hit": false,
      "t": 102413.71799999986,
      "d": 181.03435000000172,
      "v": 114
    },
    {
      "midi": 64,
      "hit": false,
      "t": 102413.71799999986,
      "d": 183.18952083332988,
      "v": 116
    },
    {
      "midi": 60,
      "hit": false,
      "t": 102413.71799999986,
      "d": 202.58605833332695,
      "v": 112
    },
    {
      "midi": 40,
      "hit": false,
      "t": 102413.71799999986,
      "d": 217.67225416665315,
      "v": 102
    },
    {
      "midi": 60,
      "hit": false,
      "t": 102435.26970833332,
      "d": 19.396537499997066,
      "v": 116
    },
    {
      "midi": 60,
      "hit": false,
      "t": 102693.89020833331,
      "d": 12.931024999998044,
      "v": 126
    },
    {
      "midi": 60,
      "hit": false,
      "t": 102952.51070833331,
      "d": 49.56892916666402,
      "v": 127
    },
    {
      "midi": 40,
      "hit": false,
      "t": 103189.57949999985,
      "d": 107.75854166666977,
      "v": 110
    },
    {
      "midi": 64,
      "hit": false,
      "t": 103189.57949999985,
      "d": 127.15507916666684,
      "v": 117
    },
    {
      "midi": 60,
      "hit": false,
      "t": 103189.57949999985,
      "d": 135.77576249999402,
      "v": 110
    },
    {
      "midi": 55,
      "hit": false,
      "t": 103189.57949999985,
      "d": 140.08610416666488,
      "v": 114
    },
    {
      "midi": 60,
      "hit": false,
      "t": 103211.13120833332,
      "d": 21.551708333339775,
      "v": 118
    },
    {
      "midi": 26,
      "hit": false,
      "t": 103448.19999999985,
      "d": 127.15507916666684,
      "v": 108
    },
    {
      "midi": 62,
      "hit": false,
      "t": 103448.19999999985,
      "d": 172.41366666666,
      "v": 118
    },
    {
      "midi": 53,
      "hit": false,
      "t": 103448.19999999985,
      "d": 183.18952083332988,
      "v": 114
    },
    {
      "midi": 57,
      "hit": false,
      "t": 103448.19999999985,
      "d": 189.6550333333289,
      "v": 117
    },
    {
      "midi": 38,
      "hit": false,
      "t": 103448.19999999985,
      "d": 215.517083333325,
      "v": 104
    },
    {
      "midi": 60,
      "hit": false,
      "t": 103469.75170833332,
      "d": 15.086195833326201,
      "v": 110
    },
    {
      "midi": 60,
      "hit": false,
      "t": 103728.37220833331,
      "d": 19.396537499997066,
      "v": 122
    },
    {
      "midi": 60,
      "hit": false,
      "t": 103986.9927083333,
      "d": 135.77576249999402,
      "v": 127
    },
    {
      "midi": 38,
      "hit": false,
      "t": 104224.06149999984,
      "d": 96.98268749999988,
      "v": 112
    },
    {
      "midi": 57,
      "hit": false,
      "t": 104224.06149999984,
      "d": 114.2240541666688,
      "v": 116
    },
    {
      "midi": 62,
      "hit": false,
      "t": 104224.06149999984,
      "d": 122.84473749999597,
      "v": 117
    },
    {
      "midi": 53,
      "hit": false,
      "t": 104224.06149999984,
      "d": 131.46542083332315,
      "v": 112
    },
    {
      "midi": 60,
      "hit": false,
      "t": 104245.61320833329,
      "d": 43.103416666665,
      "v": 84
    },
    {
      "midi": 24,
      "hit": false,
      "t": 104482.68199999983,
      "d": 103.4481999999989,
      "v": 114
    },
    {
      "midi": 36,
      "hit": false,
      "t": 104482.68199999983,
      "d": 135.77576249999402,
      "v": 110
    },
    {
      "midi": 52,
      "hit": false,
      "t": 104482.68199999983,
      "d": 135.77576249999402,
      "v": 119
    },
    {
      "midi": 60,
      "hit": false,
      "t": 104482.68199999983,
      "d": 161.6378124999901,
      "v": 118
    },
    {
      "midi": 55,
      "hit": false,
      "t": 104482.68199999983,
      "d": 163.79298333331826,
      "v": 119
    },
    {
      "midi": 60,
      "hit": false,
      "t": 104504.2337083333,
      "d": 38.79307499999413,
      "v": 116
    },
    {
      "midi": 36,
      "hit": false,
      "t": 104741.30249999982,
      "d": 88.3620041666727,
      "v": 96
    },
    {
      "midi": 60,
      "hit": false,
      "t": 104741.30249999982,
      "d": 94.82751666667173,
      "v": 98
    },
    {
      "midi": 53,
      "hit": false,
      "t": 104741.30249999982,
      "d": 107.75854166666977,
      "v": 112
    },
    {
      "midi": 60,
      "hit": false,
      "t": 104762.85420833329,
      "d": 120.68956666666782,
      "v": 127
    },
    {
      "midi": 40,
      "hit": false,
      "t": 104999.92299999982,
      "d": 301.72391666666954,
      "v": 119
    },
    {
      "midi": 55,
      "hit": false,
      "t": 104999.92299999982,
      "d": 321.1204541666666,
      "v": 122
    },
    {
      "midi": 60,
      "hit": false,
      "t": 104999.92299999982,
      "d": 338.3618208333355,
      "v": 120
    },
    {
      "midi": 60,
      "hit": false,
      "t": 105021.47470833329,
      "d": 49.56892916666402,
      "v": 89
    },
    {
      "midi": 38,
      "hit": false,
      "t": 105258.54349999983,
      "d": 25.86204999999609,
      "v": 96
    },
    {
      "midi": 60,
      "hit": false,
      "t": 105280.0952083333,
      "d": 30.172391666666954,
      "v": 122
    },
    {
      "midi": 41,
      "hit": false,
      "t": 105517.16399999983,
      "d": 193.96537499999977,
      "v": 118
    },
    {
      "midi": 60,
      "hit": false,
      "t": 105517.16399999983,
      "d": 206.8963999999978,
      "v": 119
    },
    {
      "midi": 57,
      "hit": false,
      "t": 105517.16399999983,
      "d": 211.20674166666868,
      "v": 120
    },
    {
      "midi": 65,
      "hit": false,
      "t": 105517.16399999983,
      "d": 215.51708333333954,
      "v": 119
    },
    {
      "midi": 60,
      "hit": false,
      "t": 105538.7157083333,
      "d": 43.103416666665,
      "v": 127
    },
    {
      "midi": 29,
      "hit": false,
      "t": 105646.47424999982,
      "d": 28.017220833338797,
      "v": 65
    },
    {
      "midi": 60,
      "hit": false,
      "t": 105797.3362083333,
      "d": 25.86204999999609,
      "v": 82
    },
    {
      "midi": 60,
      "hit": false,
      "t": 106055.9567083333,
      "d": 64.65512500000477,
      "v": 127
    },
    {
      "midi": 57,
      "hit": false,
      "t": 106293.02549999983,
      "d": 183.18952083332988,
      "v": 114
    },
    {
      "midi": 65,
      "hit": false,
      "t": 106293.02549999983,
      "d": 185.34469166665804,
      "v": 116
    },
    {
      "midi": 29,
      "hit": false,
      "t": 106293.02549999983,
      "d": 191.81020416665706,
      "v": 106
    },
    {
      "midi": 41,
      "hit": false,
      "t": 106293.02549999983,
      "d": 200.43088749998424,
      "v": 116
    },
    {
      "midi": 60,
      "hit": false,
      "t": 106314.5772083333,
      "d": 47.41375833333586,
      "v": 120
    },
    {
      "midi": 60,
      "hit": false,
      "t": 106422.33574999982,
      "d": 2.1551708333281567,
      "v": 108
    },
    {
      "midi": 28,
      "hit": false,
      "t": 106551.64599999982,
      "d": 107.75854166666977,
      "v": 114
    },
    {
      "midi": 64,
      "hit": false,
      "t": 106551.64599999982,
      "d": 185.3446916666726,
      "v": 116
    },
    {
      "midi": 55,
      "hit": false,
      "t": 106551.64599999982,
      "d": 187.49986250000075,
      "v": 116
    },
    {
      "midi": 40,
      "hit": false,
      "t": 106551.64599999982,
      "d": 189.6550333333289,
      "v": 110
    },
    {
      "midi": 60,
      "hit": false,
      "t": 106551.64599999982,
      "d": 209.05157083332597,
      "v": 114
    },
    {
      "midi": 60,
      "hit": false,
      "t": 106573.1977083333,
      "d": 45.258587499993155,
      "v": 127
    },
    {
      "midi": 60,
      "hit": false,
      "t": 106831.8182083333,
      "d": 17.24136666666891,
      "v": 110
    },
    {
      "midi": 60,
      "hit": false,
      "t": 107090.4387083333,
      "d": 51.72410000000673,
      "v": 127
    },
    {
      "midi": 28,
      "hit": false,
      "t": 107327.50749999982,
      "d": 64.65512500000477,
      "v": 100
    },
    {
      "midi": 64,
      "hit": false,
      "t": 107327.50749999982,
      "d": 99.13785833334259,
      "v": 108
    },
    {
      "midi": 60,
      "hit": false,
      "t": 107327.50749999982,
      "d": 105.60337083334161,
      "v": 106
    },
    {
      "midi": 55,
      "hit": false,
      "t": 107327.50749999982,
      "d": 116.3792250000115,
      "v": 110
    },
    {
      "midi": 40,
      "hit": false,
      "t": 107327.50749999982,
      "d": 120.68956666668237,
      "v": 104
    },
    {
      "midi": 60,
      "hit": false,
      "t": 107349.0592083333,
      "d": 19.396537499997066,
      "v": 78
    },
    {
      "midi": 53,
      "hit": false,
      "t": 107586.12799999984,
      "d": 142.24127499999304,
      "v": 118
    },
    {
      "midi": 62,
      "hit": false,
      "t": 107586.12799999984,
      "d": 170.25849583333184,
      "v": 118
    },
    {
      "midi": 57,
      "hit": false,
      "t": 107586.12799999984,
      "d": 181.03435000000172,
      "v": 120
    },
    {
      "midi": 38,
      "hit": false,
      "t": 107586.12799999984,
      "d": 196.12054583332792,
      "v": 119
    },
    {
      "midi": 60,
      "hit": false,
      "t": 107607.6797083333,
      "d": 40.94824583333684,
      "v": 108
    },
    {
      "midi": 62,
      "hit": false,
      "t": 107844.74849999983,
      "d": 64.65512500000477,
      "v": 88
    },
    {
      "midi": 40,
      "hit": false,
      "t": 107844.74849999983,
      "d": 79.74132083333097,
      "v": 110
    },
    {
      "midi": 55,
      "hit": false,
      "t": 107844.74849999983,
      "d": 96.98268749999988,
      "v": 112
    },
    {
      "midi": 59,
      "hit": false,
      "t": 107844.74849999983,
      "d": 101.29302916667075,
      "v": 108
    },
    {
      "midi": 60,
      "hit": false,
      "t": 107866.3002083333,
      "d": 25.86204999999609,
      "v": 88
    },
    {
      "midi": 41,
      "hit": false,
      "t": 108103.36899999983,
      "d": 342.6721625000064,
      "v": 118
    },
    {
      "midi": 62,
      "hit": false,
      "t": 108103.36899999983,
      "d": 344.82733333333454,
      "v": 119
    },
    {
      "midi": 57,
      "hit": false,
      "t": 108103.36899999983,
      "d": 366.3790416666743,
      "v": 122
    },
    {
      "midi": 60,
      "hit": false,
      "t": 108124.92070833329,
      "d": 53.879270833334886,
      "v": 127
    },
    {
      "midi": 24,
      "hit": false,
      "t": 108620.60999999984,
      "d": 64.65512500000477,
      "v": 114
    },
    {
      "midi": 36,
      "hit": false,
      "t": 108620.60999999984,
      "d": 77.58615000000282,
      "v": 117
    },
    {
      "midi": 52,
      "hit": false,
      "t": 108620.60999999984,
      "d": 120.68956666666782,
      "v": 119
    },
    {
      "midi": 55,
      "hit": false,
      "t": 108620.60999999984,
      "d": 124.99990833333868,
      "v": 119
    },
    {
      "midi": 60,
      "hit": false,
      "t": 108620.60999999984,
      "d": 127.15507916666684,
      "v": 119
    },
    {
      "midi": 60,
      "hit": false,
      "t": 108642.16170833328,
      "d": 32.32756249999511,
      "v": 98
    },
    {
      "midi": 26,
      "hit": false,
      "t": 108879.23049999985,
      "d": 60.34478333333391,
      "v": 104
    },
    {
      "midi": 38,
      "hit": false,
      "t": 108879.23049999985,
      "d": 75.43097916666011,
      "v": 112
    },
    {
      "midi": 53,
      "hit": false,
      "t": 108879.23049999985,
      "d": 96.98268749999988,
      "v": 108
    },
    {
      "midi": 57,
      "hit": false,
      "t": 108879.23049999985,
      "d": 101.29302916667075,
      "v": 110
    },
    {
      "midi": 62,
      "hit": false,
      "t": 108879.23049999985,
      "d": 103.4481999999989,
      "v": 108
    },
    {
      "midi": 60,
      "hit": false,
      "t": 108900.78220833327,
      "d": 176.72400833333086,
      "v": 127
    },
    {
      "midi": 62,
      "hit": false,
      "t": 109137.85099999985,
      "d": 170.25849583333184,
      "v": 110
    },
    {
      "midi": 28,
      "hit": false,
      "t": 109137.85099999985,
      "d": 282.3273791666579,
      "v": 106
    },
    {
      "midi": 40,
      "hit": false,
      "t": 109137.85099999985,
      "d": 293.1032333333278,
      "v": 117
    },
    {
      "midi": 55,
      "hit": false,
      "t": 109137.85099999985,
      "d": 301.723916666655,
      "v": 119
    },
    {
      "midi": 64,
      "hit": false,
      "t": 109137.85099999985,
      "d": 303.87908749998314,
      "v": 110
    },
    {
      "midi": 59,
      "hit": false,
      "t": 109137.85099999985,
      "d": 306.0342583333113,
      "v": 119
    },
    {
      "midi": 60,
      "hit": false,
      "t": 109159.40270833328,
      "d": 49.56892916666402,
      "v": 92
    },
    {
      "midi": 60,
      "hit": false,
      "t": 109418.02320833328,
      "d": 105.60337083332706,
      "v": 127
    },
    {
      "midi": 29,
      "hit": false,
      "t": 109655.09199999983,
      "d": 168.10332500000368,
      "v": 106
    },
    {
      "midi": 65,
      "hit": false,
      "t": 109655.09199999983,
      "d": 193.96537499999977,
      "v": 116
    },
    {
      "midi": 57,
      "hit": false,
      "t": 109655.09199999983,
      "d": 196.12054583332792,
      "v": 114
    },
    {
      "midi": 60,
      "hit": false,
      "t": 109655.09199999983,
      "d": 202.58605833332695,
      "v": 110
    },
    {
      "midi": 41,
      "hit": false,
      "t": 109655.09199999983,
      "d": 237.06879166666477,
      "v": 110
    },
    {
      "midi": 60,
      "hit": false,
      "t": 109676.64370833327,
      "d": 68.96546666666109,
      "v": 127
    },
    {
      "midi": 60,
      "hit": false,
      "t": 109935.26420833326,
      "d": 49.56892916666402,
      "v": 106
    },
    {
      "midi": 60,
      "hit": false,
      "t": 110193.88470833327,
      "d": 71.1206375000038,
      "v": 127
    },
    {
      "midi": 41,
      "hit": false,
      "t": 110430.95349999983,
      "d": 107.75854166666977,
      "v": 116
    },
    {
      "midi": 65,
      "hit": false,
      "t": 110430.95349999983,
      "d": 150.86195833333477,
      "v": 112
    },
    {
      "midi": 57,
      "hit": false,
      "t": 110430.95349999983,
      "d": 155.17230000000563,
      "v": 116
    },
    {
      "midi": 60,
      "hit": false,
      "t": 110430.95349999983,
      "d": 170.25849583333184,
      "v": 112
    },
    {
      "midi": 60,
      "hit": false,
      "t": 110452.50520833327,
      "d": 40.94824583333684,
      "v": 103
    },
    {
      "midi": 55,
      "hit": false,
      "t": 110689.57399999983,
      "d": 176.72400833333086,
      "v": 116
    },
    {
      "midi": 28,
      "hit": false,
      "t": 110689.57399999983,
      "d": 181.03435000000172,
      "v": 114
    },
    {
      "midi": 64,
      "hit": false,
      "t": 110689.57399999983,
      "d": 183.18952083332988,
      "v": 116
    },
    {
      "midi": 60,
      "hit": false,
      "t": 110689.57399999983,
      "d": 202.58605833332695,
      "v": 112
    },
    {
      "midi": 40,
      "hit": false,
      "t": 110689.57399999983,
      "d": 217.67225416665315,
      "v": 102
    },
    {
      "midi": 60,
      "hit": false,
      "t": 110711.12570833327,
      "d": 19.396537499997066,
      "v": 116
    },
    {
      "midi": 60,
      "hit": false,
      "t": 110969.74620833326,
      "d": 12.931024999998044,
      "v": 126
    },
    {
      "midi": 60,
      "hit": false,
      "t": 111228.36670833327,
      "d": 49.56892916666402,
      "v": 127
    },
    {
      "midi": 40,
      "hit": false,
      "t": 111465.43549999982,
      "d": 107.75854166666977,
      "v": 110
    },
    {
      "midi": 64,
      "hit": false,
      "t": 111465.43549999982,
      "d": 127.15507916666684,
      "v": 117
    },
    {
      "midi": 60,
      "hit": false,
      "t": 111465.43549999982,
      "d": 135.77576249999402,
      "v": 110
    },
    {
      "midi": 55,
      "hit": false,
      "t": 111465.43549999982,
      "d": 140.08610416666488,
      "v": 114
    },
    {
      "midi": 60,
      "hit": false,
      "t": 111486.98720833327,
      "d": 21.551708333339775,
      "v": 118
    },
    {
      "midi": 26,
      "hit": false,
      "t": 111724.05599999982,
      "d": 127.15507916666684,
      "v": 108
    },
    {
      "midi": 62,
      "hit": false,
      "t": 111724.05599999982,
      "d": 172.41366666666,
      "v": 118
    },
    {
      "midi": 53,
      "hit": false,
      "t": 111724.05599999982,
      "d": 183.18952083332988,
      "v": 114
    },
    {
      "midi": 57,
      "hit": false,
      "t": 111724.05599999982,
      "d": 189.6550333333289,
      "v": 117
    },
    {
      "midi": 38,
      "hit": false,
      "t": 111724.05599999982,
      "d": 215.517083333325,
      "v": 104
    },
    {
      "midi": 60,
      "hit": false,
      "t": 111745.60770833328,
      "d": 15.086195833326201,
      "v": 110
    },
    {
      "midi": 60,
      "hit": false,
      "t": 112004.22820833327,
      "d": 19.396537499997066,
      "v": 122
    },
    {
      "midi": 60,
      "hit": false,
      "t": 112262.84870833326,
      "d": 135.77576249999402,
      "v": 127
    },
    {
      "midi": 38,
      "hit": false,
      "t": 112499.9174999998,
      "d": 96.98268749999988,
      "v": 112
    },
    {
      "midi": 57,
      "hit": false,
      "t": 112499.9174999998,
      "d": 114.2240541666688,
      "v": 116
    },
    {
      "midi": 62,
      "hit": false,
      "t": 112499.9174999998,
      "d": 122.84473749999597,
      "v": 117
    },
    {
      "midi": 53,
      "hit": false,
      "t": 112499.9174999998,
      "d": 131.46542083332315,
      "v": 112
    },
    {
      "midi": 60,
      "hit": false,
      "t": 112521.46920833325,
      "d": 43.103416666665,
      "v": 84
    },
    {
      "midi": 24,
      "hit": false,
      "t": 112758.5379999998,
      "d": 103.4481999999989,
      "v": 114
    },
    {
      "midi": 36,
      "hit": false,
      "t": 112758.5379999998,
      "d": 135.77576249999402,
      "v": 110
    },
    {
      "midi": 52,
      "hit": false,
      "t": 112758.5379999998,
      "d": 135.77576249999402,
      "v": 119
    },
    {
      "midi": 60,
      "hit": false,
      "t": 112758.5379999998,
      "d": 161.6378124999901,
      "v": 118
    },
    {
      "midi": 55,
      "hit": false,
      "t": 112758.5379999998,
      "d": 163.79298333331826,
      "v": 119
    },
    {
      "midi": 60,
      "hit": false,
      "t": 112780.08970833325,
      "d": 38.79307499999413,
      "v": 116
    },
    {
      "midi": 36,
      "hit": false,
      "t": 113017.15849999979,
      "d": 88.3620041666727,
      "v": 96
    },
    {
      "midi": 60,
      "hit": false,
      "t": 113017.15849999979,
      "d": 94.82751666667173,
      "v": 98
    },
    {
      "midi": 53,
      "hit": false,
      "t": 113017.15849999979,
      "d": 107.75854166666977,
      "v": 112
    },
    {
      "midi": 60,
      "hit": false,
      "t": 113038.71020833324,
      "d": 120.68956666666782,
      "v": 127
    },
    {
      "midi": 40,
      "hit": false,
      "t": 113275.77899999979,
      "d": 301.72391666666954,
      "v": 119
    },
    {
      "midi": 55,
      "hit": false,
      "t": 113275.77899999979,
      "d": 321.1204541666666,
      "v": 122
    },
    {
      "midi": 60,
      "hit": false,
      "t": 113275.77899999979,
      "d": 338.3618208333355,
      "v": 120
    },
    {
      "midi": 60,
      "hit": false,
      "t": 113297.33070833325,
      "d": 49.56892916666402,
      "v": 89
    },
    {
      "midi": 38,
      "hit": false,
      "t": 113534.3994999998,
      "d": 25.86204999999609,
      "v": 96
    },
    {
      "midi": 60,
      "hit": false,
      "t": 113555.95120833325,
      "d": 30.172391666666954,
      "v": 122
    },
    {
      "midi": 41,
      "hit": false,
      "t": 113793.0199999998,
      "d": 193.96537499999977,
      "v": 118
    },
    {
      "midi": 60,
      "hit": false,
      "t": 113793.0199999998,
      "d": 206.8963999999978,
      "v": 119
    },
    {
      "midi": 57,
      "hit": false,
      "t": 113793.0199999998,
      "d": 211.20674166666868,
      "v": 120
    },
    {
      "midi": 65,
      "hit": false,
      "t": 113793.0199999998,
      "d": 215.51708333333954,
      "v": 119
    },
    {
      "midi": 60,
      "hit": false,
      "t": 113814.57170833326,
      "d": 43.103416666665,
      "v": 127
    },
    {
      "midi": 29,
      "hit": false,
      "t": 113922.3302499998,
      "d": 28.017220833338797,
      "v": 65
    },
    {
      "midi": 60,
      "hit": false,
      "t": 114073.19220833326,
      "d": 25.86204999999609,
      "v": 82
    },
    {
      "midi": 60,
      "hit": false,
      "t": 114331.81270833325,
      "d": 64.65512500000477,
      "v": 127
    },
    {
      "midi": 57,
      "hit": false,
      "t": 114568.8814999998,
      "d": 183.18952083332988,
      "v": 114
    },
    {
      "midi": 65,
      "hit": false,
      "t": 114568.8814999998,
      "d": 185.34469166665804,
      "v": 116
    },
    {
      "midi": 29,
      "hit": false,
      "t": 114568.8814999998,
      "d": 191.81020416665706,
      "v": 106
    },
    {
      "midi": 41,
      "hit": false,
      "t": 114568.8814999998,
      "d": 200.43088749998424,
      "v": 116
    },
    {
      "midi": 60,
      "hit": false,
      "t": 114590.43320833326,
      "d": 47.41375833333586,
      "v": 120
    },
    {
      "midi": 60,
      "hit": false,
      "t": 114698.1917499998,
      "d": 2.1551708333281567,
      "v": 108
    },
    {
      "midi": 28,
      "hit": false,
      "t": 114827.50199999979,
      "d": 107.75854166666977,
      "v": 114
    },
    {
      "midi": 64,
      "hit": false,
      "t": 114827.50199999979,
      "d": 185.3446916666726,
      "v": 116
    },
    {
      "midi": 55,
      "hit": false,
      "t": 114827.50199999979,
      "d": 187.49986250000075,
      "v": 116
    },
    {
      "midi": 40,
      "hit": false,
      "t": 114827.50199999979,
      "d": 189.6550333333289,
      "v": 110
    },
    {
      "midi": 60,
      "hit": false,
      "t": 114827.50199999979,
      "d": 209.05157083332597,
      "v": 114
    },
    {
      "midi": 60,
      "hit": false,
      "t": 114849.05370833326,
      "d": 45.258587499993155,
      "v": 127
    },
    {
      "midi": 60,
      "hit": false,
      "t": 115107.67420833325,
      "d": 17.24136666666891,
      "v": 110
    },
    {
      "midi": 60,
      "hit": false,
      "t": 115366.29470833325,
      "d": 51.72410000000673,
      "v": 127
    },
    {
      "midi": 28,
      "hit": false,
      "t": 115603.36349999979,
      "d": 64.65512500000477,
      "v": 100
    },
    {
      "midi": 64,
      "hit": false,
      "t": 115603.36349999979,
      "d": 99.13785833334259,
      "v": 108
    },
    {
      "midi": 60,
      "hit": false,
      "t": 115603.36349999979,
      "d": 105.60337083334161,
      "v": 106
    },
    {
      "midi": 55,
      "hit": false,
      "t": 115603.36349999979,
      "d": 116.3792250000115,
      "v": 110
    },
    {
      "midi": 40,
      "hit": false,
      "t": 115603.36349999979,
      "d": 120.68956666668237,
      "v": 104
    },
    {
      "midi": 60,
      "hit": false,
      "t": 115624.91520833326,
      "d": 19.396537499997066,
      "v": 78
    },
    {
      "midi": 53,
      "hit": false,
      "t": 115861.98399999981,
      "d": 142.24127499999304,
      "v": 118
    },
    {
      "midi": 62,
      "hit": false,
      "t": 115861.98399999981,
      "d": 170.25849583333184,
      "v": 118
    },
    {
      "midi": 57,
      "hit": false,
      "t": 115861.98399999981,
      "d": 181.03435000000172,
      "v": 120
    },
    {
      "midi": 38,
      "hit": false,
      "t": 115861.98399999981,
      "d": 196.12054583332792,
      "v": 119
    },
    {
      "midi": 60,
      "hit": false,
      "t": 115883.53570833325,
      "d": 40.94824583333684,
      "v": 108
    },
    {
      "midi": 62,
      "hit": false,
      "t": 116120.6044999998,
      "d": 64.65512500000477,
      "v": 88
    },
    {
      "midi": 40,
      "hit": false,
      "t": 116120.6044999998,
      "d": 79.74132083333097,
      "v": 110
    },
    {
      "midi": 55,
      "hit": false,
      "t": 116120.6044999998,
      "d": 96.98268749999988,
      "v": 112
    },
    {
      "midi": 59,
      "hit": false,
      "t": 116120.6044999998,
      "d": 101.29302916667075,
      "v": 108
    },
    {
      "midi": 60,
      "hit": false,
      "t": 116142.15620833325,
      "d": 25.86204999999609,
      "v": 88
    },
    {
      "midi": 41,
      "hit": false,
      "t": 116379.2249999998,
      "d": 342.6721625000064,
      "v": 118
    },
    {
      "midi": 62,
      "hit": false,
      "t": 116379.2249999998,
      "d": 344.82733333333454,
      "v": 119
    },
    {
      "midi": 57,
      "hit": false,
      "t": 116379.2249999998,
      "d": 366.3790416666743,
      "v": 122
    },
    {
      "midi": 60,
      "hit": false,
      "t": 116400.77670833324,
      "d": 53.879270833334886,
      "v": 127
    },
    {
      "midi": 24,
      "hit": false,
      "t": 116896.46599999981,
      "d": 64.65512500000477,
      "v": 114
    },
    {
      "midi": 36,
      "hit": false,
      "t": 116896.46599999981,
      "d": 77.58615000000282,
      "v": 117
    },
    {
      "midi": 52,
      "hit": false,
      "t": 116896.46599999981,
      "d": 120.68956666666782,
      "v": 119
    },
    {
      "midi": 55,
      "hit": false,
      "t": 116896.46599999981,
      "d": 124.99990833333868,
      "v": 119
    },
    {
      "midi": 60,
      "hit": false,
      "t": 116896.46599999981,
      "d": 127.15507916666684,
      "v": 119
    },
    {
      "midi": 60,
      "hit": false,
      "t": 116918.01770833324,
      "d": 32.32756249999511,
      "v": 98
    },
    {
      "midi": 26,
      "hit": false,
      "t": 117155.08649999982,
      "d": 60.34478333333391,
      "v": 104
    },
    {
      "midi": 38,
      "hit": false,
      "t": 117155.08649999982,
      "d": 75.43097916666011,
      "v": 112
    },
    {
      "midi": 53,
      "hit": false,
      "t": 117155.08649999982,
      "d": 96.98268749999988,
      "v": 108
    },
    {
      "midi": 57,
      "hit": false,
      "t": 117155.08649999982,
      "d": 101.29302916667075,
      "v": 110
    },
    {
      "midi": 62,
      "hit": false,
      "t": 117155.08649999982,
      "d": 103.4481999999989,
      "v": 108
    },
    {
      "midi": 60,
      "hit": false,
      "t": 117176.63820833323,
      "d": 176.72400833333086,
      "v": 127
    },
    {
      "midi": 62,
      "hit": false,
      "t": 117413.70699999982,
      "d": 170.25849583333184,
      "v": 110
    },
    {
      "midi": 28,
      "hit": false,
      "t": 117413.70699999982,
      "d": 282.3273791666579,
      "v": 106
    },
    {
      "midi": 40,
      "hit": false,
      "t": 117413.70699999982,
      "d": 293.1032333333278,
      "v": 117
    },
    {
      "midi": 55,
      "hit": false,
      "t": 117413.70699999982,
      "d": 301.723916666655,
      "v": 119
    },
    {
      "midi": 64,
      "hit": false,
      "t": 117413.70699999982,
      "d": 303.87908749998314,
      "v": 110
    },
    {
      "midi": 59,
      "hit": false,
      "t": 117413.70699999982,
      "d": 306.0342583333113,
      "v": 119
    },
    {
      "midi": 60,
      "hit": false,
      "t": 117435.25870833323,
      "d": 49.56892916666402,
      "v": 92
    },
    {
      "midi": 60,
      "hit": false,
      "t": 117693.87920833324,
      "d": 105.60337083332706,
      "v": 127
    },
    {
      "midi": 29,
      "hit": false,
      "t": 117930.9479999998,
      "d": 168.10332500000368,
      "v": 106
    },
    {
      "midi": 65,
      "hit": false,
      "t": 117930.9479999998,
      "d": 193.96537499999977,
      "v": 116
    },
    {
      "midi": 57,
      "hit": false,
      "t": 117930.9479999998,
      "d": 196.12054583332792,
      "v": 114
    },
    {
      "midi": 60,
      "hit": false,
      "t": 117930.9479999998,
      "d": 202.58605833332695,
      "v": 110
    },
    {
      "midi": 41,
      "hit": false,
      "t": 117930.9479999998,
      "d": 237.06879166666477,
      "v": 110
    },
    {
      "midi": 60,
      "hit": false,
      "t": 117952.49970833323,
      "d": 68.96546666666109,
      "v": 127
    },
    {
      "midi": 60,
      "hit": false,
      "t": 118211.12020833322,
      "d": 49.56892916666402,
      "v": 106
    },
    {
      "midi": 60,
      "hit": false,
      "t": 118469.74070833322,
      "d": 71.1206375000038,
      "v": 127
    },
    {
      "midi": 41,
      "hit": false,
      "t": 118706.8094999998,
      "d": 107.75854166666977,
      "v": 116
    },
    {
      "midi": 65,
      "hit": false,
      "t": 118706.8094999998,
      "d": 150.86195833333477,
      "v": 112
    },
    {
      "midi": 57,
      "hit": false,
      "t": 118706.8094999998,
      "d": 155.17230000000563,
      "v": 116
    },
    {
      "midi": 60,
      "hit": false,
      "t": 118706.8094999998,
      "d": 170.25849583333184,
      "v": 112
    },
    {
      "midi": 60,
      "hit": false,
      "t": 118728.36120833323,
      "d": 40.94824583333684,
      "v": 103
    },
    {
      "midi": 55,
      "hit": false,
      "t": 118965.4299999998,
      "d": 176.72400833333086,
      "v": 116
    },
    {
      "midi": 28,
      "hit": false,
      "t": 118965.4299999998,
      "d": 181.03435000000172,
      "v": 114
    },
    {
      "midi": 64,
      "hit": false,
      "t": 118965.4299999998,
      "d": 183.18952083332988,
      "v": 116
    },
    {
      "midi": 60,
      "hit": false,
      "t": 118965.4299999998,
      "d": 202.58605833332695,
      "v": 112
    },
    {
      "midi": 40,
      "hit": false,
      "t": 118965.4299999998,
      "d": 217.67225416665315,
      "v": 102
    },
    {
      "midi": 60,
      "hit": false,
      "t": 118986.98170833323,
      "d": 19.396537499997066,
      "v": 116
    },
    {
      "midi": 60,
      "hit": false,
      "t": 119245.60220833322,
      "d": 12.931024999998044,
      "v": 126
    },
    {
      "midi": 60,
      "hit": false,
      "t": 119504.22270833323,
      "d": 49.56892916666402,
      "v": 127
    },
    {
      "midi": 40,
      "hit": false,
      "t": 119741.29149999979,
      "d": 107.75854166666977,
      "v": 110
    },
    {
      "midi": 64,
      "hit": false,
      "t": 119741.29149999979,
      "d": 127.15507916666684,
      "v": 117
    },
    {
      "midi": 60,
      "hit": false,
      "t": 119741.29149999979,
      "d": 135.77576249999402,
      "v": 110
    },
    {
      "midi": 55,
      "hit": false,
      "t": 119741.29149999979,
      "d": 140.08610416666488,
      "v": 114
    },
    {
      "midi": 60,
      "hit": false,
      "t": 119762.84320833323,
      "d": 21.551708333339775,
      "v": 118
    },
    {
      "midi": 26,
      "hit": false,
      "t": 119999.9119999998,
      "d": 127.15507916666684,
      "v": 108
    },
    {
      "midi": 62,
      "hit": false,
      "t": 119999.9119999998,
      "d": 172.41366666666,
      "v": 118
    },
    {
      "midi": 53,
      "hit": false,
      "t": 119999.9119999998,
      "d": 183.18952083332988,
      "v": 114
    },
    {
      "midi": 57,
      "hit": false,
      "t": 119999.9119999998,
      "d": 189.6550333333289,
      "v": 117
    },
    {
      "midi": 38,
      "hit": false,
      "t": 119999.9119999998,
      "d": 215.517083333325,
      "v": 104
    },
    {
      "midi": 60,
      "hit": false,
      "t": 120021.46370833323,
      "d": 15.086195833326201,
      "v": 110
    },
    {
      "midi": 60,
      "hit": false,
      "t": 120280.08420833322,
      "d": 19.396537499997066,
      "v": 122
    },
    {
      "midi": 60,
      "hit": false,
      "t": 120538.70470833321,
      "d": 135.77576249999402,
      "v": 127
    },
    {
      "midi": 38,
      "hit": false,
      "t": 120775.77349999978,
      "d": 96.98268749999988,
      "v": 112
    },
    {
      "midi": 57,
      "hit": false,
      "t": 120775.77349999978,
      "d": 114.2240541666688,
      "v": 116
    },
    {
      "midi": 62,
      "hit": false,
      "t": 120775.77349999978,
      "d": 122.84473749999597,
      "v": 117
    },
    {
      "midi": 53,
      "hit": false,
      "t": 120775.77349999978,
      "d": 131.46542083332315,
      "v": 112
    },
    {
      "midi": 60,
      "hit": false,
      "t": 120797.3252083332,
      "d": 43.103416666665,
      "v": 84
    },
    {
      "midi": 24,
      "hit": false,
      "t": 121034.39399999977,
      "d": 103.4481999999989,
      "v": 114
    },
    {
      "midi": 36,
      "hit": false,
      "t": 121034.39399999977,
      "d": 135.77576249999402,
      "v": 110
    },
    {
      "midi": 52,
      "hit": false,
      "t": 121034.39399999977,
      "d": 135.77576249999402,
      "v": 119
    },
    {
      "midi": 60,
      "hit": false,
      "t": 121034.39399999977,
      "d": 161.6378124999901,
      "v": 118
    },
    {
      "midi": 55,
      "hit": false,
      "t": 121034.39399999977,
      "d": 163.79298333331826,
      "v": 119
    },
    {
      "midi": 60,
      "hit": false,
      "t": 121055.94570833321,
      "d": 38.79307499999413,
      "v": 116
    },
    {
      "midi": 36,
      "hit": false,
      "t": 121293.01449999976,
      "d": 88.3620041666727,
      "v": 96
    },
    {
      "midi": 60,
      "hit": false,
      "t": 121293.01449999976,
      "d": 94.82751666667173,
      "v": 98
    },
    {
      "midi": 53,
      "hit": false,
      "t": 121293.01449999976,
      "d": 107.75854166666977,
      "v": 112
    },
    {
      "midi": 60,
      "hit": false,
      "t": 121314.5662083332,
      "d": 120.68956666666782,
      "v": 127
    },
    {
      "midi": 40,
      "hit": false,
      "t": 121551.63499999976,
      "d": 301.72391666666954,
      "v": 119
    },
    {
      "midi": 55,
      "hit": false,
      "t": 121551.63499999976,
      "d": 321.1204541666666,
      "v": 122
    },
    {
      "midi": 60,
      "hit": false,
      "t": 121551.63499999976,
      "d": 338.3618208333355,
      "v": 120
    },
    {
      "midi": 60,
      "hit": false,
      "t": 121573.1867083332,
      "d": 49.56892916666402,
      "v": 89
    },
    {
      "midi": 38,
      "hit": false,
      "t": 121810.25549999977,
      "d": 25.86204999999609,
      "v": 96
    },
    {
      "midi": 60,
      "hit": false,
      "t": 121831.80720833321,
      "d": 30.172391666666954,
      "v": 122
    },
    {
      "midi": 41,
      "hit": false,
      "t": 122068.87599999977,
      "d": 193.96537499999977,
      "v": 118
    },
    {
      "midi": 60,
      "hit": false,
      "t": 122068.87599999977,
      "d": 206.8963999999978,
      "v": 119
    },
    {
      "midi": 57,
      "hit": false,
      "t": 122068.87599999977,
      "d": 211.20674166666868,
      "v": 120
    },
    {
      "midi": 65,
      "hit": false,
      "t": 122068.87599999977,
      "d": 215.51708333333954,
      "v": 119
    },
    {
      "midi": 60,
      "hit": false,
      "t": 122090.42770833321,
      "d": 43.103416666665,
      "v": 127
    },
    {
      "midi": 29,
      "hit": false,
      "t": 122198.18624999977,
      "d": 28.017220833338797,
      "v": 65
    },
    {
      "midi": 60,
      "hit": false,
      "t": 122349.04820833322,
      "d": 25.86204999999609,
      "v": 82
    },
    {
      "midi": 60,
      "hit": false,
      "t": 122607.6687083332,
      "d": 64.65512500000477,
      "v": 127
    },
    {
      "midi": 57,
      "hit": false,
      "t": 122844.73749999977,
      "d": 183.18952083332988,
      "v": 114
    },
    {
      "midi": 65,
      "hit": false,
      "t": 122844.73749999977,
      "d": 185.34469166665804,
      "v": 116
    },
    {
      "midi": 29,
      "hit": false,
      "t": 122844.73749999977,
      "d": 191.81020416665706,
      "v": 106
    },
    {
      "midi": 41,
      "hit": false,
      "t": 122844.73749999977,
      "d": 200.43088749998424,
      "v": 116
    },
    {
      "midi": 60,
      "hit": false,
      "t": 122866.28920833321,
      "d": 47.41375833333586,
      "v": 120
    },
    {
      "midi": 60,
      "hit": false,
      "t": 122974.04774999977,
      "d": 2.1551708333281567,
      "v": 108
    },
    {
      "midi": 28,
      "hit": false,
      "t": 123103.35799999976,
      "d": 107.75854166666977,
      "v": 114
    },
    {
      "midi": 64,
      "hit": false,
      "t": 123103.35799999976,
      "d": 185.3446916666726,
      "v": 116
    },
    {
      "midi": 55,
      "hit": false,
      "t": 123103.35799999976,
      "d": 187.49986250000075,
      "v": 116
    },
    {
      "midi": 40,
      "hit": false,
      "t": 123103.35799999976,
      "d": 189.6550333333289,
      "v": 110
    },
    {
      "midi": 60,
      "hit": false,
      "t": 123103.35799999976,
      "d": 209.05157083332597,
      "v": 114
    },
    {
      "midi": 60,
      "hit": false,
      "t": 123124.90970833322,
      "d": 45.258587499993155,
      "v": 127
    },
    {
      "midi": 60,
      "hit": false,
      "t": 123383.5302083332,
      "d": 17.24136666666891,
      "v": 110
    },
    {
      "midi": 60,
      "hit": false,
      "t": 123642.15070833321,
      "d": 51.72410000000673,
      "v": 127
    },
    {
      "midi": 28,
      "hit": false,
      "t": 123879.21949999976,
      "d": 64.65512500000477,
      "v": 100
    },
    {
      "midi": 64,
      "hit": false,
      "t": 123879.21949999976,
      "d": 99.13785833334259,
      "v": 108
    },
    {
      "midi": 60,
      "hit": false,
      "t": 123879.21949999976,
      "d": 105.60337083334161,
      "v": 106
    },
    {
      "midi": 55,
      "hit": false,
      "t": 123879.21949999976,
      "d": 116.3792250000115,
      "v": 110
    },
    {
      "midi": 40,
      "hit": false,
      "t": 123879.21949999976,
      "d": 120.68956666668237,
      "v": 104
    },
    {
      "midi": 60,
      "hit": false,
      "t": 123900.77120833322,
      "d": 19.396537499997066,
      "v": 78
    },
    {
      "midi": 53,
      "hit": false,
      "t": 124137.83999999978,
      "d": 142.24127499999304,
      "v": 118
    },
    {
      "midi": 62,
      "hit": false,
      "t": 124137.83999999978,
      "d": 170.25849583333184,
      "v": 118
    },
    {
      "midi": 57,
      "hit": false,
      "t": 124137.83999999978,
      "d": 181.03435000000172,
      "v": 120
    },
    {
      "midi": 38,
      "hit": false,
      "t": 124137.83999999978,
      "d": 196.12054583332792,
      "v": 119
    },
    {
      "midi": 60,
      "hit": false,
      "t": 124159.3917083332,
      "d": 40.94824583333684,
      "v": 108
    },
    {
      "midi": 62,
      "hit": false,
      "t": 124396.46049999977,
      "d": 64.65512500000477,
      "v": 88
    },
    {
      "midi": 40,
      "hit": false,
      "t": 124396.46049999977,
      "d": 79.74132083333097,
      "v": 110
    },
    {
      "midi": 55,
      "hit": false,
      "t": 124396.46049999977,
      "d": 96.98268749999988,
      "v": 112
    },
    {
      "midi": 59,
      "hit": false,
      "t": 124396.46049999977,
      "d": 101.29302916667075,
      "v": 108
    },
    {
      "midi": 60,
      "hit": false,
      "t": 124418.01220833321,
      "d": 25.86204999999609,
      "v": 88
    },
    {
      "midi": 41,
      "hit": false,
      "t": 124655.08099999977,
      "d": 342.6721625000064,
      "v": 118
    },
    {
      "midi": 62,
      "hit": false,
      "t": 124655.08099999977,
      "d": 344.82733333333454,
      "v": 119
    },
    {
      "midi": 57,
      "hit": false,
      "t": 124655.08099999977,
      "d": 366.3790416666743,
      "v": 122
    },
    {
      "midi": 60,
      "hit": false,
      "t": 124676.6327083332,
      "d": 53.879270833334886,
      "v": 127
    },
    {
      "midi": 24,
      "hit": false,
      "t": 125172.32199999978,
      "d": 64.65512500000477,
      "v": 114
    },
    {
      "midi": 36,
      "hit": false,
      "t": 125172.32199999978,
      "d": 77.58615000000282,
      "v": 117
    },
    {
      "midi": 52,
      "hit": false,
      "t": 125172.32199999978,
      "d": 120.68956666666782,
      "v": 119
    },
    {
      "midi": 55,
      "hit": false,
      "t": 125172.32199999978,
      "d": 124.99990833333868,
      "v": 119
    },
    {
      "midi": 60,
      "hit": false,
      "t": 125172.32199999978,
      "d": 127.15507916666684,
      "v": 119
    },
    {
      "midi": 60,
      "hit": false,
      "t": 125193.8737083332,
      "d": 32.32756249999511,
      "v": 98
    },
    {
      "midi": 26,
      "hit": false,
      "t": 125430.94249999979,
      "d": 60.34478333333391,
      "v": 104
    },
    {
      "midi": 38,
      "hit": false,
      "t": 125430.94249999979,
      "d": 75.43097916666011,
      "v": 112
    },
    {
      "midi": 53,
      "hit": false,
      "t": 125430.94249999979,
      "d": 96.98268749999988,
      "v": 108
    },
    {
      "midi": 57,
      "hit": false,
      "t": 125430.94249999979,
      "d": 101.29302916667075,
      "v": 110
    },
    {
      "midi": 62,
      "hit": false,
      "t": 125430.94249999979,
      "d": 103.4481999999989,
      "v": 108
    },
    {
      "midi": 60,
      "hit": false,
      "t": 125452.49420833318,
      "d": 176.72400833333086,
      "v": 127
    },
    {
      "midi": 62,
      "hit": false,
      "t": 125689.56299999979,
      "d": 170.25849583333184,
      "v": 110
    },
    {
      "midi": 28,
      "hit": false,
      "t": 125689.56299999979,
      "d": 282.3273791666579,
      "v": 106
    },
    {
      "midi": 40,
      "hit": false,
      "t": 125689.56299999979,
      "d": 293.1032333333278,
      "v": 117
    },
    {
      "midi": 55,
      "hit": false,
      "t": 125689.56299999979,
      "d": 301.723916666655,
      "v": 119
    },
    {
      "midi": 64,
      "hit": false,
      "t": 125689.56299999979,
      "d": 303.87908749998314,
      "v": 110
    },
    {
      "midi": 59,
      "hit": false,
      "t": 125689.56299999979,
      "d": 306.0342583333113,
      "v": 119
    },
    {
      "midi": 60,
      "hit": false,
      "t": 125711.11470833319,
      "d": 49.56892916666402,
      "v": 92
    },
    {
      "midi": 60,
      "hit": false,
      "t": 125969.7352083332,
      "d": 105.60337083332706,
      "v": 127
    },
    {
      "midi": 29,
      "hit": false,
      "t": 126206.80399999977,
      "d": 168.10332500000368,
      "v": 106
    },
    {
      "midi": 65,
      "hit": false,
      "t": 126206.80399999977,
      "d": 193.96537499999977,
      "v": 116
    },
    {
      "midi": 57,
      "hit": false,
      "t": 126206.80399999977,
      "d": 196.12054583332792,
      "v": 114
    },
    {
      "midi": 60,
      "hit": false,
      "t": 126206.80399999977,
      "d": 202.58605833332695,
      "v": 110
    },
    {
      "midi": 41,
      "hit": false,
      "t": 126206.80399999977,
      "d": 237.06879166666477,
      "v": 110
    },
    {
      "midi": 60,
      "hit": false,
      "t": 126228.35570833318,
      "d": 68.96546666666109,
      "v": 127
    },
    {
      "midi": 60,
      "hit": false,
      "t": 126486.97620833317,
      "d": 49.56892916666402,
      "v": 106
    },
    {
      "midi": 60,
      "hit": false,
      "t": 126745.59670833318,
      "d": 71.1206375000038,
      "v": 127
    },
    {
      "midi": 41,
      "hit": false,
      "t": 126982.66549999977,
      "d": 107.75854166666977,
      "v": 116
    },
    {
      "midi": 65,
      "hit": false,
      "t": 126982.66549999977,
      "d": 150.86195833333477,
      "v": 112
    },
    {
      "midi": 57,
      "hit": false,
      "t": 126982.66549999977,
      "d": 155.17230000000563,
      "v": 116
    },
    {
      "midi": 60,
      "hit": false,
      "t": 126982.66549999977,
      "d": 170.25849583333184,
      "v": 112
    },
    {
      "midi": 60,
      "hit": false,
      "t": 127004.21720833318,
      "d": 40.94824583333684,
      "v": 103
    },
    {
      "midi": 55,
      "hit": false,
      "t": 127241.28599999977,
      "d": 176.72400833333086,
      "v": 116
    },
    {
      "midi": 28,
      "hit": false,
      "t": 127241.28599999977,
      "d": 181.03435000000172,
      "v": 114
    },
    {
      "midi": 64,
      "hit": false,
      "t": 127241.28599999977,
      "d": 183.18952083332988,
      "v": 116
    },
    {
      "midi": 60,
      "hit": false,
      "t": 127241.28599999977,
      "d": 202.58605833332695,
      "v": 112
    },
    {
      "midi": 40,
      "hit": false,
      "t": 127241.28599999977,
      "d": 217.67225416665315,
      "v": 102
    },
    {
      "midi": 60,
      "hit": false,
      "t": 127262.83770833319,
      "d": 19.396537499997066,
      "v": 116
    },
    {
      "midi": 60,
      "hit": false,
      "t": 127521.45820833318,
      "d": 12.931024999998044,
      "v": 126
    },
    {
      "midi": 60,
      "hit": false,
      "t": 127780.07870833318,
      "d": 49.56892916666402,
      "v": 127
    },
    {
      "midi": 40,
      "hit": false,
      "t": 128017.14749999976,
      "d": 107.75854166666977,
      "v": 110
    },
    {
      "midi": 64,
      "hit": false,
      "t": 128017.14749999976,
      "d": 127.15507916666684,
      "v": 117
    },
    {
      "midi": 60,
      "hit": false,
      "t": 128017.14749999976,
      "d": 135.77576249999402,
      "v": 110
    },
    {
      "midi": 55,
      "hit": false,
      "t": 128017.14749999976,
      "d": 140.08610416666488,
      "v": 114
    },
    {
      "midi": 60,
      "hit": false,
      "t": 128038.69920833319,
      "d": 21.551708333339775,
      "v": 118
    },
    {
      "midi": 26,
      "hit": false,
      "t": 128275.76799999976,
      "d": 127.15507916666684,
      "v": 108
    },
    {
      "midi": 62,
      "hit": false,
      "t": 128275.76799999976,
      "d": 172.41366666666,
      "v": 118
    },
    {
      "midi": 53,
      "hit": false,
      "t": 128275.76799999976,
      "d": 183.18952083332988,
      "v": 114
    },
    {
      "midi": 57,
      "hit": false,
      "t": 128275.76799999976,
      "d": 189.6550333333289,
      "v": 117
    },
    {
      "midi": 38,
      "hit": false,
      "t": 128275.76799999976,
      "d": 215.517083333325,
      "v": 104
    },
    {
      "midi": 60,
      "hit": false,
      "t": 128297.31970833319,
      "d": 15.086195833326201,
      "v": 110
    },
    {
      "midi": 60,
      "hit": false,
      "t": 128555.94020833318,
      "d": 19.396537499997066,
      "v": 122
    },
    {
      "midi": 60,
      "hit": false,
      "t": 128814.56070833317,
      "d": 135.77576249999402,
      "v": 127
    },
    {
      "midi": 38,
      "hit": false,
      "t": 129051.62949999975,
      "d": 96.98268749999988,
      "v": 112
    },
    {
      "midi": 57,
      "hit": false,
      "t": 129051.62949999975,
      "d": 114.2240541666688,
      "v": 116
    },
    {
      "midi": 62,
      "hit": false,
      "t": 129051.62949999975,
      "d": 122.84473749999597,
      "v": 117
    },
    {
      "midi": 53,
      "hit": false,
      "t": 129051.62949999975,
      "d": 131.46542083332315,
      "v": 112
    },
    {
      "midi": 60,
      "hit": false,
      "t": 129073.18120833316,
      "d": 43.103416666665,
      "v": 84
    },
    {
      "midi": 24,
      "hit": false,
      "t": 129310.24999999974,
      "d": 103.4481999999989,
      "v": 114
    },
    {
      "midi": 36,
      "hit": false,
      "t": 129310.24999999974,
      "d": 135.77576249999402,
      "v": 110
    },
    {
      "midi": 52,
      "hit": false,
      "t": 129310.24999999974,
      "d": 135.77576249999402,
      "v": 119
    },
    {
      "midi": 60,
      "hit": false,
      "t": 129310.24999999974,
      "d": 161.6378124999901,
      "v": 118
    },
    {
      "midi": 55,
      "hit": false,
      "t": 129310.24999999974,
      "d": 163.79298333331826,
      "v": 119
    },
    {
      "midi": 60,
      "hit": false,
      "t": 129331.80170833317,
      "d": 38.79307499999413,
      "v": 116
    },
    {
      "midi": 36,
      "hit": false,
      "t": 129568.87049999973,
      "d": 88.3620041666727,
      "v": 96
    },
    {
      "midi": 60,
      "hit": false,
      "t": 129568.87049999973,
      "d": 94.82751666667173,
      "v": 98
    },
    {
      "midi": 53,
      "hit": false,
      "t": 129568.87049999973,
      "d": 107.75854166666977,
      "v": 112
    },
    {
      "midi": 60,
      "hit": false,
      "t": 129590.42220833316,
      "d": 120.68956666666782,
      "v": 127
    },
    {
      "midi": 40,
      "hit": false,
      "t": 129827.49099999973,
      "d": 301.72391666666954,
      "v": 119
    },
    {
      "midi": 55,
      "hit": false,
      "t": 129827.49099999973,
      "d": 321.1204541666666,
      "v": 122
    },
    {
      "midi": 60,
      "hit": false,
      "t": 129827.49099999973,
      "d": 338.3618208333355,
      "v": 120
    },
    {
      "midi": 60,
      "hit": false,
      "t": 129849.04270833316,
      "d": 49.56892916666402,
      "v": 89
    },
    {
      "midi": 38,
      "hit": false,
      "t": 130086.11149999974,
      "d": 25.86204999999609,
      "v": 96
    },
    {
      "midi": 60,
      "hit": false,
      "t": 130107.66320833316,
      "d": 30.172391666666954,
      "v": 122
    },
    {
      "midi": 41,
      "hit": false,
      "t": 130344.73199999974,
      "d": 193.96537499999977,
      "v": 118
    },
    {
      "midi": 60,
      "hit": false,
      "t": 130344.73199999974,
      "d": 206.8963999999978,
      "v": 119
    },
    {
      "midi": 57,
      "hit": false,
      "t": 130344.73199999974,
      "d": 211.20674166666868,
      "v": 120
    },
    {
      "midi": 65,
      "hit": false,
      "t": 130344.73199999974,
      "d": 215.51708333333954,
      "v": 119
    },
    {
      "midi": 60,
      "hit": false,
      "t": 130366.28370833317,
      "d": 43.103416666665,
      "v": 127
    },
    {
      "midi": 29,
      "hit": false,
      "t": 130474.04224999974,
      "d": 28.017220833338797,
      "v": 65
    },
    {
      "midi": 60,
      "hit": false,
      "t": 130624.90420833317,
      "d": 25.86204999999609,
      "v": 82
    },
    {
      "midi": 60,
      "hit": false,
      "t": 130883.52470833316,
      "d": 64.65512500000477,
      "v": 127
    },
    {
      "midi": 57,
      "hit": false,
      "t": 131120.59349999976,
      "d": 183.18952083334443,
      "v": 114
    },
    {
      "midi": 65,
      "hit": false,
      "t": 131120.59349999976,
      "d": 185.34469166668714,
      "v": 116
    },
    {
      "midi": 29,
      "hit": false,
      "t": 131120.59349999976,
      "d": 191.81020416668616,
      "v": 106
    },
    {
      "midi": 41,
      "hit": false,
      "t": 131120.59349999976,
      "d": 200.4308875000279,
      "v": 116
    },
    {
      "midi": 60,
      "hit": false,
      "t": 131142.14520833318,
      "d": 47.41375833333586,
      "v": 120
    },
    {
      "midi": 60,
      "hit": false,
      "t": 131249.90374999976,
      "d": 2.1551708333427086,
      "v": 108
    },
    {
      "midi": 28,
      "hit": false,
      "t": 131379.21399999977,
      "d": 107.75854166666977,
      "v": 114
    },
    {
      "midi": 64,
      "hit": false,
      "t": 131379.21399999977,
      "d": 185.34469166665804,
      "v": 116
    },
    {
      "midi": 55,
      "hit": false,
      "t": 131379.21399999977,
      "d": 187.49986250000075,
      "v": 116
    },
    {
      "midi": 40,
      "hit": false,
      "t": 131379.21399999977,
      "d": 189.65503333334345,
      "v": 110
    },
    {
      "midi": 60,
      "hit": false,
      "t": 131379.21399999977,
      "d": 209.05157083334052,
      "v": 114
    },
    {
      "midi": 60,
      "hit": false,
      "t": 131400.76570833317,
      "d": 45.258587499993155,
      "v": 127
    },
    {
      "midi": 60,
      "hit": false,
      "t": 131659.38620833316,
      "d": 17.241366666654358,
      "v": 110
    },
    {
      "midi": 60,
      "hit": false,
      "t": 131918.00670833315,
      "d": 51.72409999999218,
      "v": 127
    },
    {
      "midi": 28,
      "hit": false,
      "t": 132155.07549999977,
      "d": 64.65512499999022,
      "v": 100
    },
    {
      "midi": 64,
      "hit": false,
      "t": 132155.07549999977,
      "d": 99.13785833332804,
      "v": 108
    },
    {
      "midi": 60,
      "hit": false,
      "t": 132155.07549999977,
      "d": 105.60337083332706,
      "v": 106
    },
    {
      "midi": 55,
      "hit": false,
      "t": 132155.07549999977,
      "d": 116.3792249999824,
      "v": 110
    },
    {
      "midi": 40,
      "hit": false,
      "t": 132155.07549999977,
      "d": 120.68956666663871,
      "v": 104
    },
    {
      "midi": 60,
      "hit": false,
      "t": 132176.62720833314,
      "d": 19.396537499997066,
      "v": 78
    },
    {
      "midi": 53,
      "hit": false,
      "t": 132413.69599999973,
      "d": 142.2412750000076,
      "v": 118
    },
    {
      "midi": 62,
      "hit": false,
      "t": 132413.69599999973,
      "d": 170.2584958333464,
      "v": 118
    },
    {
      "midi": 57,
      "hit": false,
      "t": 132413.69599999973,
      "d": 181.03435000000172,
      "v": 120
    },
    {
      "midi": 38,
      "hit": false,
      "t": 132413.69599999973,
      "d": 196.12054583334248,
      "v": 119
    },
    {
      "midi": 60,
      "hit": false,
      "t": 132435.24770833313,
      "d": 40.94824583333684,
      "v": 108
    },
    {
      "midi": 62,
      "hit": false,
      "t": 132672.31649999975,
      "d": 64.65512499999022,
      "v": 88
    },
    {
      "midi": 40,
      "hit": false,
      "t": 132672.31649999975,
      "d": 79.74132083333097,
      "v": 110
    },
    {
      "midi": 55,
      "hit": false,
      "t": 132672.31649999975,
      "d": 96.98268749998533,
      "v": 112
    },
    {
      "midi": 59,
      "hit": false,
      "t": 132672.31649999975,
      "d": 101.29302916664165,
      "v": 108
    },
    {
      "midi": 60,
      "hit": false,
      "t": 132693.86820833312,
      "d": 25.86204999999609,
      "v": 88
    },
    {
      "midi": 41,
      "hit": false,
      "t": 132930.9369999997,
      "d": 342.6721625000064,
      "v": 118
    },
    {
      "midi": 62,
      "hit": false,
      "t": 132930.9369999997,
      "d": 344.8273333333491,
      "v": 119
    },
    {
      "midi": 57,
      "hit": false,
      "t": 132930.9369999997,
      "d": 366.37904166668886,
      "v": 122
    },
    {
      "midi": 60,
      "hit": false,
      "t": 132952.4887083331,
      "d": 53.879270833334886,
      "v": 127
    },
    {
      "midi": 24,
      "hit": false,
      "t": 133448.17799999972,
      "d": 64.65512499999022,
      "v": 114
    },
    {
      "midi": 36,
      "hit": false,
      "t": 133448.17799999972,
      "d": 77.58614999998827,
      "v": 117
    },
    {
      "midi": 52,
      "hit": false,
      "t": 133448.17799999972,
      "d": 120.68956666666782,
      "v": 119
    },
    {
      "midi": 55,
      "hit": false,
      "t": 133448.17799999972,
      "d": 124.99990833332413,
      "v": 119
    },
    {
      "midi": 60,
      "hit": false,
      "t": 133448.17799999972,
      "d": 127.15507916666684,
      "v": 119
    },
    {
      "midi": 60,
      "hit": false,
      "t": 133469.72970833312,
      "d": 32.32756249999511,
      "v": 98
    },
    {
      "midi": 26,
      "hit": false,
      "t": 133706.7984999997,
      "d": 60.34478333333391,
      "v": 104
    },
    {
      "midi": 38,
      "hit": false,
      "t": 133706.7984999997,
      "d": 75.43097916667466,
      "v": 112
    },
    {
      "midi": 53,
      "hit": false,
      "t": 133706.7984999997,
      "d": 96.98268750001444,
      "v": 108
    },
    {
      "midi": 57,
      "hit": false,
      "t": 133706.7984999997,
      "d": 101.29302916667075,
      "v": 110
    },
    {
      "midi": 62,
      "hit": false,
      "t": 133706.7984999997,
      "d": 103.44820000001346,
      "v": 108
    },
    {
      "midi": 60,
      "hit": false,
      "t": 133728.3502083331,
      "d": 176.7240083333454,
      "v": 127
    },
    {
      "midi": 62,
      "hit": false,
      "t": 133965.41899999973,
      "d": 170.2584958333464,
      "v": 110
    },
    {
      "midi": 28,
      "hit": false,
      "t": 133965.41899999973,
      "d": 282.3273791666725,
      "v": 106
    },
    {
      "midi": 40,
      "hit": false,
      "t": 133965.41899999973,
      "d": 293.1032333333278,
      "v": 117
    },
    {
      "midi": 55,
      "hit": false,
      "t": 133965.41899999973,
      "d": 301.72391666666954,
      "v": 119
    },
    {
      "midi": 64,
      "hit": false,
      "t": 133965.41899999973,
      "d": 303.87908750001225,
      "v": 110
    },
    {
      "midi": 59,
      "hit": false,
      "t": 133965.41899999973,
      "d": 306.03425833335496,
      "v": 119
    },
    {
      "midi": 60,
      "hit": false,
      "t": 133986.97070833313,
      "d": 49.56892916667857,
      "v": 92
    },
    {
      "midi": 60,
      "hit": false,
      "t": 134245.59120833315,
      "d": 105.60337083332706,
      "v": 127
    },
    {
      "midi": 41,
      "hit": false,
      "t": 134482.65999999974,
      "d": 752.1546208333748,
      "v": 100
    },
    {
      "midi": 60,
      "hit": false,
      "t": 134741.28049999973,
      "d": 133.62059166666586,
      "v": 98
    },
    {
      "midi": 57,
      "hit": false,
      "t": 134741.28049999973,
      "d": 135.77576250000857,
      "v": 104
    },
    {
      "midi": 64,
      "hit": false,
      "t": 134741.28049999973,
      "d": 142.2412750000076,
      "v": 100
    },
    {
      "midi": 53,
      "hit": false,
      "t": 134999.90099999975,
      "d": 148.7067875000066,
      "v": 65
    },
    {
      "midi": 60,
      "hit": false,
      "t": 135129.21124999976,
      "d": 56.034441666677594,
      "v": 102
    },
    {
      "midi": 57,
      "hit": false,
      "t": 135129.21124999976,
      "d": 71.12063750001835,
      "v": 102
    },
    {
      "midi": 64,
      "hit": false,
      "t": 135129.21124999976,
      "d": 84.05166250001639,
      "v": 104
    },
    {
      "midi": 41,
      "hit": false,
      "t": 135387.83174999978,
      "d": 829.7407708333631,
      "v": 94
    },
    {
      "midi": 64,
      "hit": false,
      "t": 135517.1419999998,
      "d": 1064.6543916666706,
      "v": 114
    },
    {
      "midi": 60,
      "hit": false,
      "t": 135517.1419999998,
      "d": 1092.6716125000094,
      "v": 104
    },
    {
      "midi": 57,
      "hit": false,
      "t": 135517.1419999998,
      "d": 1105.6026375000074,
      "v": 112
    },
    {
      "midi": 53,
      "hit": false,
      "t": 136034.3829999998,
      "d": 237.06879166667932,
      "v": 90
    },
    {
      "midi": 48,
      "hit": false,
      "t": 136293.00349999982,
      "d": 206.8963999999978,
      "v": 84
    },
    {
      "midi": 40,
      "hit": false,
      "t": 136551.6239999998,
      "d": 674.5684708333283,
      "v": 104
    },
    {
      "midi": 55,
      "hit": false,
      "t": 136810.2444999998,
      "d": 94.82751666667173,
      "v": 112
    },
    {
      "midi": 62,
      "hit": false,
      "t": 136810.2444999998,
      "d": 114.2240541666688,
      "v": 110
    },
    {
      "midi": 59,
      "hit": false,
      "t": 136810.2444999998,
      "d": 120.68956666666782,
      "v": 112
    },
    {
      "midi": 52,
      "hit": false,
      "t": 137068.8649999998,
      "d": 96.98268750001444,
      "v": 83
    },
    {
      "midi": 59,
      "hit": false,
      "t": 137198.1752499998,
      "d": 47.41375833333586,
      "v": 112
    },
    {
      "midi": 55,
      "hit": false,
      "t": 137198.1752499998,
      "d": 56.034441666677594,
      "v": 116
    },
    {
      "midi": 62,
      "hit": false,
      "t": 137198.1752499998,
      "d": 68.96546666667564,
      "v": 106
    },
    {
      "midi": 47,
      "hit": false,
      "t": 137327.4854999998,
      "d": 36.63790416668053,
      "v": 35
    },
    {
      "midi": 40,
      "hit": false,
      "t": 137456.79574999982,
      "d": 827.5856000000203,
      "v": 96
    },
    {
      "midi": 55,
      "hit": false,
      "t": 137586.10599999983,
      "d": 1012.9302916666784,
      "v": 114
    },
    {
      "midi": 59,
      "hit": false,
      "t": 137586.10599999983,
      "d": 1034.4820000000182,
      "v": 114
    },
    {
      "midi": 62,
      "hit": false,
      "t": 137586.10599999983,
      "d": 1040.9475125000172,
      "v": 110
    },
    {
      "midi": 52,
      "hit": false,
      "t": 138103.34699999983,
      "d": 226.29293749999488,
      "v": 86
    },
    {
      "midi": 47,
      "hit": false,
      "t": 138361.96749999982,
      "d": 75.43097916667466,
      "v": 80
    },
    {
      "midi": 38,
      "hit": false,
      "t": 138620.58799999984,
      "d": 842.671795833332,
      "v": 108
    },
    {
      "midi": 60,
      "hit": false,
      "t": 138879.20849999983,
      "d": 66.81029583333293,
      "v": 96
    },
    {
      "midi": 62,
      "hit": false,
      "t": 138879.20849999983,
      "d": 75.43097916667466,
      "v": 98
    },
    {
      "midi": 57,
      "hit": false,
      "t": 138879.20849999983,
      "d": 79.74132083333097,
      "v": 108
    },
    {
      "midi": 65,
      "hit": false,
      "t": 138879.20849999983,
      "d": 86.20683333333,
      "v": 100
    },
    {
      "midi": 50,
      "hit": false,
      "t": 139137.82899999982,
      "d": 96.98268750001444,
      "v": 82
    },
    {
      "midi": 60,
      "hit": false,
      "t": 139267.13924999983,
      "d": 58.1896124999912,
      "v": 96
    },
    {
      "midi": 62,
      "hit": false,
      "t": 139267.13924999983,
      "d": 66.81029583333293,
      "v": 100
    },
    {
      "midi": 57,
      "hit": false,
      "t": 139267.13924999983,
      "d": 68.96546666667564,
      "v": 104
    },
    {
      "midi": 65,
      "hit": false,
      "t": 139267.13924999983,
      "d": 96.98268750001444,
      "v": 104
    },
    {
      "midi": 50,
      "hit": false,
      "t": 139525.75974999985,
      "d": 25.86204999999609,
      "v": 52
    },
    {
      "midi": 38,
      "hit": false,
      "t": 139655.06999999986,
      "d": 644.3960791666759,
      "v": 88
    },
    {
      "midi": 60,
      "hit": false,
      "t": 139655.06999999986,
      "d": 1062.4992208333279,
      "v": 96
    },
    {
      "midi": 62,
      "hit": false,
      "t": 139655.06999999986,
      "d": 1094.826783333323,
      "v": 106
    },
    {
      "midi": 65,
      "hit": false,
      "t": 139655.06999999986,
      "d": 1099.1371249999793,
      "v": 104
    },
    {
      "midi": 57,
      "hit": false,
      "t": 139655.06999999986,
      "d": 1107.757808333321,
      "v": 104
    },
    {
      "midi": 50,
      "hit": false,
      "t": 140172.31099999987,
      "d": 174.5688375000027,
      "v": 102
    },
    {
      "midi": 45,
      "hit": false,
      "t": 140430.93149999986,
      "d": 47.41375833333586,
      "v": 98
    },
    {
      "midi": 36,
      "hit": false,
      "t": 140689.55199999985,
      "d": 859.9131624999864,
      "v": 104
    },
    {
      "midi": 55,
      "hit": false,
      "t": 140948.17249999984,
      "d": 32.32756249999511,
      "v": 76
    },
    {
      "midi": 53,
      "hit": false,
      "t": 140948.17249999984,
      "d": 49.56892916664947,
      "v": 61
    },
    {
      "midi": 60,
      "hit": false,
      "t": 140948.17249999984,
      "d": 79.74132083330187,
      "v": 106
    },
    {
      "midi": 64,
      "hit": false,
      "t": 140948.17249999984,
      "d": 109.91371249995427,
      "v": 108
    },
    {
      "midi": 48,
      "hit": false,
      "t": 141206.7929999998,
      "d": 101.29302916667075,
      "v": 88
    },
    {
      "midi": 60,
      "hit": false,
      "t": 141336.1032499998,
      "d": 135.77576250000857,
      "v": 102
    },
    {
      "midi": 64,
      "hit": false,
      "t": 141336.1032499998,
      "d": 142.2412750000076,
      "v": 116
    },
    {
      "midi": 55,
      "hit": false,
      "t": 141336.1032499998,
      "d": 178.87917916668812,
      "v": 112
    },
    {
      "midi": 48,
      "hit": false,
      "t": 141594.72374999983,
      "d": 75.43097916667466,
      "v": 59
    },
    {
      "midi": 52,
      "hit": false,
      "t": 141724.03399999984,
      "d": 144.3964458333212,
      "v": 119
    },
    {
      "midi": 60,
      "hit": false,
      "t": 141724.03399999984,
      "d": 183.18952083331533,
      "v": 119
    },
    {
      "midi": 36,
      "hit": false,
      "t": 141724.03399999984,
      "d": 202.5860583333124,
      "v": 108
    },
    {
      "midi": 60,
      "hit": false,
      "t": 141982.65449999983,
      "d": 140.08610416666488,
      "v": 102
    },
    {
      "midi": 53,
      "hit": false,
      "t": 141982.65449999983,
      "d": 161.63781250000466,
      "v": 110
    },
    {
      "midi": 38,
      "hit": false,
      "t": 141982.65449999983,
      "d": 226.29293749999488,
      "v": 108
    },
    {
      "midi": 40,
      "hit": false,
      "t": 142241.27499999982,
      "d": 381.4652375000005,
      "v": 110
    },
    {
      "midi": 55,
      "hit": false,
      "t": 142241.27499999982,
      "d": 491.378950000013,
      "v": 120
    },
    {
      "midi": 60,
      "hit": false,
      "t": 142241.27499999982,
      "d": 510.77548750001006,
      "v": 106
    },
    {
      "midi": 41,
      "hit": false,
      "t": 142758.51599999983,
      "d": 846.9821375000174,
      "v": 110
    },
    {
      "midi": 57,
      "hit": false,
      "t": 143017.13649999982,
      "d": 84.05166249998729,
      "v": 114
    },
    {
      "midi": 60,
      "hit": false,
      "t": 143017.13649999982,
      "d": 84.05166249998729,
      "v": 108
    },
    {
      "midi": 64,
      "hit": false,
      "t": 143017.13649999982,
      "d": 103.44819999998435,
      "v": 114
    },
    {
      "midi": 53,
      "hit": false,
      "t": 143275.7569999998,
      "d": 96.98268750001444,
      "v": 79
    },
    {
      "midi": 60,
      "hit": false,
      "t": 143405.06724999982,
      "d": 56.034441666677594,
      "v": 108
    },
    {
      "midi": 57,
      "hit": false,
      "t": 143405.06724999982,
      "d": 77.58615000001737,
      "v": 114
    },
    {
      "midi": 64,
      "hit": false,
      "t": 143405.06724999982,
      "d": 86.2068333333591,
      "v": 116
    },
    {
      "midi": 53,
      "hit": false,
      "t": 143663.68774999984,
      "d": 23.70687916665338,
      "v": 36
    },
    {
      "midi": 41,
      "hit": false,
      "t": 143792.99799999982,
      "d": 810.344233333366,
      "v": 94
    },
    {
      "midi": 57,
      "hit": false,
      "t": 143792.99799999982,
      "d": 1075.430245833355,
      "v": 116
    },
    {
      "midi": 60,
      "hit": false,
      "t": 143792.99799999982,
      "d": 1077.5854166666977,
      "v": 110
    },
    {
      "midi": 64,
      "hit": false,
      "t": 143792.99799999982,
      "d": 1084.0509291666967,
      "v": 112
    },
    {
      "midi": 53,
      "hit": false,
      "t": 144310.23899999983,
      "d": 256.4653291666764,
      "v": 108
    },
    {
      "midi": 48,
      "hit": false,
      "t": 144568.85949999985,
      "d": 112.06888333332608,
      "v": 104
    },
    {
      "midi": 40,
      "hit": false,
      "t": 144827.47999999984,
      "d": 758.6201333333447,
      "v": 116
    },
    {
      "midi": 55,
      "hit": false,
      "t": 145086.10049999985,
      "d": 66.81029583333293,
      "v": 112
    },
    {
      "midi": 59,
      "hit": false,
      "t": 145086.10049999985,
      "d": 92.67234583332902,
      "v": 117
    },
    {
      "midi": 62,
      "hit": false,
      "t": 145086.10049999985,
      "d": 96.98268749998533,
      "v": 117
    },
    {
      "midi": 52,
      "hit": false,
      "t": 145344.72099999984,
      "d": 88.3620041666727,
      "v": 92
    },
    {
      "midi": 55,
      "hit": false,
      "t": 145474.03124999985,
      "d": 66.81029583333293,
      "v": 119
    },
    {
      "midi": 59,
      "hit": false,
      "t": 145474.03124999985,
      "d": 71.12063749998924,
      "v": 118
    },
    {
      "midi": 62,
      "hit": false,
      "t": 145474.03124999985,
      "d": 84.05166249998729,
      "v": 116
    },
    {
      "midi": 52,
      "hit": false,
      "t": 145732.65174999984,
      "d": 62.499954166676616,
      "v": 83
    },
    {
      "midi": 40,
      "hit": false,
      "t": 145861.96199999985,
      "d": 778.0166708333418,
      "v": 98
    },
    {
      "midi": 59,
      "hit": false,
      "t": 145861.96199999985,
      "d": 937.4993125000037,
      "v": 118
    },
    {
      "midi": 62,
      "hit": false,
      "t": 145861.96199999985,
      "d": 946.1199958333455,
      "v": 114
    },
    {
      "midi": 55,
      "hit": false,
      "t": 145861.96199999985,
      "d": 963.3613624999998,
      "v": 119
    },
    {
      "midi": 52,
      "hit": false,
      "t": 146379.20299999986,
      "d": 226.29293749999488,
      "v": 104
    },
    {
      "midi": 47,
      "hit": false,
      "t": 146637.82349999985,
      "d": 150.86195833334932,
      "v": 94
    },
    {
      "midi": 44,
      "hit": false,
      "t": 146896.44399999984,
      "d": 737.0684249999758,
      "v": 121
    },
    {
      "midi": 56,
      "hit": false,
      "t": 147155.06449999983,
      "d": 94.82751666667173,
      "v": 112
    },
    {
      "midi": 64,
      "hit": false,
      "t": 147155.06449999983,
      "d": 107.75854166666977,
      "v": 104
    },
    {
      "midi": 59,
      "hit": false,
      "t": 147155.06449999983,
      "d": 118.5343958333251,
      "v": 114
    },
    {
      "midi": 62,
      "hit": false,
      "t": 147155.06449999983,
      "d": 127.15507916666684,
      "v": 102
    },
    {
      "midi": 52,
      "hit": false,
      "t": 147413.68499999982,
      "d": 129.31025000000955,
      "v": 100
    },
    {
      "midi": 56,
      "hit": false,
      "t": 147542.99524999983,
      "d": 77.58614999998827,
      "v": 116
    },
    {
      "midi": 59,
      "hit": false,
      "t": 147542.99524999983,
      "d": 77.58614999998827,
      "v": 112
    },
    {
      "midi": 62,
      "hit": false,
      "t": 147542.99524999983,
      "d": 94.82751666664262,
      "v": 98
    },
    {
      "midi": 64,
      "hit": false,
      "t": 147542.99524999983,
      "d": 109.91371249998338,
      "v": 108
    },
    {
      "midi": 52,
      "hit": false,
      "t": 147672.3054999998,
      "d": 77.58614999998827,
      "v": 86
    },
    {
      "midi": 56,
      "hit": false,
      "t": 147930.9259999998,
      "d": 431.0341666666791,
      "v": 117
    },
    {
      "midi": 59,
      "hit": false,
      "t": 147930.9259999998,
      "d": 443.96519166667713,
      "v": 117
    },
    {
      "midi": 64,
      "hit": false,
      "t": 147930.9259999998,
      "d": 443.96519166667713,
      "v": 117
    },
    {
      "midi": 44,
      "hit": false,
      "t": 147930.9259999998,
      "d": 758.6201333333447,
      "v": 116
    },
    {
      "midi": 52,
      "hit": false,
      "t": 148318.8567499998,
      "d": 428.8789958333364,
      "v": 76
    },
    {
      "midi": 59,
      "hit": false,
      "t": 148448.1669999998,
      "d": 446.12036249999073,
      "v": 112
    },
    {
      "midi": 56,
      "hit": false,
      "t": 148448.1669999998,
      "d": 450.43070416664705,
      "v": 98
    },
    {
      "midi": 65,
      "hit": false,
      "t": 148448.1669999998,
      "d": 489.2237791666412,
      "v": 116
    },
    {
      "midi": 44,
      "hit": false,
      "t": 148706.7874999998,
      "d": 122.84473750001052,
      "v": 110
    },
    {
      "midi": 45,
      "hit": false,
      "t": 148965.4079999998,
      "d": 504.30997500001104,
      "v": 119
    },
    {
      "midi": 57,
      "hit": false,
      "t": 149224.02849999978,
      "d": 68.96546666667564,
      "v": 118
    },
    {
      "midi": 60,
      "hit": false,
      "t": 149224.02849999978,
      "d": 77.58615000001737,
      "v": 110
    },
    {
      "midi": 64,
      "hit": false,
      "t": 149224.02849999978,
      "d": 90.51717500001541,
      "v": 117
    },
    {
      "midi": 52,
      "hit": false,
      "t": 149482.6489999998,
      "d": 75.43097916667466,
      "v": 92
    },
    {
      "midi": 60,
      "hit": false,
      "t": 149611.9592499998,
      "d": 66.81029583333293,
      "v": 110
    },
    {
      "midi": 64,
      "hit": false,
      "t": 149611.9592499998,
      "d": 75.43097916667466,
      "v": 116
    },
    {
      "midi": 57,
      "hit": false,
      "t": 149611.9592499998,
      "d": 77.58615000001737,
      "v": 116
    },
    {
      "midi": 45,
      "hit": false,
      "t": 149611.9592499998,
      "d": 81.89649166667368,
      "v": 100
    },
    {
      "midi": 45,
      "hit": false,
      "t": 149870.57974999983,
      "d": 851.2924791666737,
      "v": 106
    },
    {
      "midi": 60,
      "hit": false,
      "t": 149999.88999999984,
      "d": 769.3959875,
      "v": 117
    },
    {
      "midi": 64,
      "hit": false,
      "t": 149999.88999999984,
      "d": 775.8614999999991,
      "v": 119
    },
    {
      "midi": 57,
      "hit": false,
      "t": 149999.88999999984,
      "d": 780.1718416666554,
      "v": 119
    },
    {
      "midi": 52,
      "hit": false,
      "t": 150517.13099999985,
      "d": 174.5688375000027,
      "v": 114
    },
    {
      "midi": 52,
      "hit": false,
      "t": 150775.75149999984,
      "d": 81.89649166664458,
      "v": 65
    },
    {
      "midi": 38,
      "hit": false,
      "t": 151034.37199999983,
      "d": 532.3271958333498,
      "v": 108
    },
    {
      "midi": 53,
      "hit": false,
      "t": 151034.37199999983,
      "d": 1189.6543000000238,
      "v": 114
    },
    {
      "midi": 57,
      "hit": false,
      "t": 151034.37199999983,
      "d": 1484.9127041666943,
      "v": 117
    },
    {
      "midi": 64,
      "hit": false,
      "t": 151034.37199999983,
      "d": 1519.3954375000321,
      "v": 117
    },
    {
      "midi": 60,
      "hit": false,
      "t": 151034.37199999983,
      "d": 1862.0676000000094,
      "v": 110
    },
    {
      "midi": 50,
      "hit": false,
      "t": 151551.61299999984,
      "d": 96.98268750001444,
      "v": 75
    },
    {
      "midi": 38,
      "hit": false,
      "t": 151810.23349999986,
      "d": 99.13785833332804,
      "v": 114
    },
    {
      "midi": 38,
      "hit": false,
      "t": 152068.85399999985,
      "d": 840.5166249999893,
      "v": 117
    },
    {
      "midi": 50,
      "hit": false,
      "t": 152327.47449999987,
      "d": 530.172024999978,
      "v": 104
    },
    {
      "midi": 53,
      "hit": false,
      "t": 152586.09499999986,
      "d": 280.17220833332976,
      "v": 119
    },
    {
      "midi": 57,
      "hit": false,
      "t": 152586.09499999986,
      "d": 290.9480624999851,
      "v": 119
    },
    {
      "midi": 64,
      "hit": false,
      "t": 152586.09499999986,
      "d": 299.56874583332683,
      "v": 108
    },
    {
      "midi": 67,
      "hit": false,
      "t": 153103.33599999984,
      "d": 43.10341666667955,
      "v": 121
    },
    {
      "midi": 79,
      "hit": false,
      "t": 153103.33599999984,
      "d": 47.41375833333586,
      "v": 121
    },
    {
      "midi": 67,
      "hit": false,
      "t": 153232.64624999985,
      "d": 84.05166249998729,
      "v": 108
    },
    {
      "midi": 79,
      "hit": false,
      "t": 153232.64624999985,
      "d": 107.75854166664067,
      "v": 98
    },
    {
      "midi": 43,
      "hit": false,
      "t": 153361.95649999983,
      "d": 66.81029583333293,
      "v": 122
    },
    {
      "midi": 31,
      "hit": false,
      "t": 153361.95649999983,
      "d": 79.74132083333097,
      "v": 118
    },
    {
      "midi": 31,
      "hit": false,
      "t": 153620.57699999982,
      "d": 170.2584958333464,
      "v": 117
    },
    {
      "midi": 43,
      "hit": false,
      "t": 153620.57699999982,
      "d": 176.7240083333454,
      "v": 121
    },
    {
      "midi": 79,
      "hit": false,
      "t": 153879.19749999983,
      "d": 40.94824583333684,
      "v": 119
    },
    {
      "midi": 67,
      "hit": false,
      "t": 153879.19749999983,
      "d": 43.10341666667955,
      "v": 121
    },
    {
      "midi": 67,
      "hit": false,
      "t": 154008.50774999984,
      "d": 68.96546666667564,
      "v": 119
    },
    {
      "midi": 79,
      "hit": false,
      "t": 154008.50774999984,
      "d": 90.51717500001541,
      "v": 117
    },
    {
      "midi": 43,
      "hit": false,
      "t": 154137.81799999985,
      "d": 103.44820000001346,
      "v": 122
    },
    {
      "midi": 31,
      "hit": false,
      "t": 154137.81799999985,
      "d": 114.2240541666688,
      "v": 118
    },
    {
      "midi": 43,
      "hit": false,
      "t": 154396.43849999984,
      "d": 178.87917916665901,
      "v": 121
    },
    {
      "midi": 31,
      "hit": false,
      "t": 154396.43849999984,
      "d": 185.34469166665804,
      "v": 119
    },
    {
      "midi": 67,
      "hit": false,
      "t": 154784.36924999984,
      "d": 34.48273333333782,
      "v": 118
    },
    {
      "midi": 79,
      "hit": false,
      "t": 154784.36924999984,
      "d": 34.48273333333782,
      "v": 114
    },
    {
      "midi": 31,
      "hit": false,
      "t": 155948.16149999984,
      "d": 43.10341666667955,
      "v": 96
    },
    {
      "midi": 67,
      "hit": false,
      "t": 155948.16149999984,
      "d": 45.25858750002226,
      "v": 116
    },
    {
      "midi": 79,
      "hit": false,
      "t": 155948.16149999984,
      "d": 45.25858750002226,
      "v": 112
    },
    {
      "midi": 43,
      "hit": false,
      "t": 155948.16149999984,
      "d": 49.56892916667857,
      "v": 118
    },
    {
      "midi": 31,
      "hit": false,
      "t": 156077.47174999985,
      "d": 45.258587499993155,
      "v": 83
    },
    {
      "midi": 43,
      "hit": false,
      "t": 156077.47174999985,
      "d": 47.41375833333586,
      "v": 112
    },
    {
      "midi": 67,
      "hit": false,
      "t": 156077.47174999985,
      "d": 47.41375833333586,
      "v": 118
    },
    {
      "midi": 79,
      "hit": false,
      "t": 156077.47174999985,
      "d": 51.72409999999218,
      "v": 108
    },
    {
      "midi": 31,
      "hit": false,
      "t": 156206.78199999983,
      "d": 23.70687916665338,
      "v": 71
    },
    {
      "midi": 67,
      "hit": false,
      "t": 156206.78199999983,
      "d": 40.94824583330774,
      "v": 112
    },
    {
      "midi": 79,
      "hit": false,
      "t": 156206.78199999983,
      "d": 51.72409999996307,
      "v": 106
    },
    {
      "midi": 43,
      "hit": false,
      "t": 156206.78199999983,
      "d": 58.189612499962095,
      "v": 100
    },
    {
      "midi": 67,
      "hit": false,
      "t": 156336.09224999978,
      "d": 79.74132083333097,
      "v": 117
    },
    {
      "midi": 79,
      "hit": false,
      "t": 156336.09224999978,
      "d": 109.91371249998338,
      "v": 108
    },
    {
      "midi": 43,
      "hit": false,
      "t": 156336.09224999978,
      "d": 114.22405416663969,
      "v": 119
    },
    {
      "midi": 31,
      "hit": false,
      "t": 156336.09224999978,
      "d": 118.534395833296,
      "v": 104
    },
    {
      "midi": 56,
      "hit": false,
      "t": 156762.8160749998,
      "d": 142.2412749999785,
      "v": 113
    },
    {
      "midi": 57,
      "hit": false,
      "t": 156833.9367124998,
      "d": 148.7067875000066,
      "v": 105
    },
    {
      "midi": 58,
      "hit": false,
      "t": 156961.09179166646,
      "d": 163.79298333334737,
      "v": 66
    },
    {
      "midi": 59,
      "hit": false,
      "t": 157062.38482083313,
      "d": 161.63781250000466,
      "v": 58
    },
    {
      "midi": 60,
      "hit": false,
      "t": 157183.0743874998,
      "d": 66.81029583333293,
      "v": 46
    },
    {
      "midi": 29,
      "hit": false,
      "t": 157241.26399999973,
      "d": 168.10332500000368,
      "v": 106
    },
    {
      "midi": 65,
      "hit": false,
      "t": 157241.26399999973,
      "d": 193.96537499999977,
      "v": 116
    },
    {
      "midi": 57,
      "hit": false,
      "t": 157241.26399999973,
      "d": 196.12054583334248,
      "v": 114
    },
    {
      "midi": 60,
      "hit": false,
      "t": 157241.26399999973,
      "d": 202.5860583333415,
      "v": 110
    },
    {
      "midi": 41,
      "hit": false,
      "t": 157241.26399999973,
      "d": 237.06879166667932,
      "v": 110
    },
    {
      "midi": 60,
      "hit": false,
      "t": 157262.81570833313,
      "d": 68.96546666667564,
      "v": 127
    },
    {
      "midi": 60,
      "hit": false,
      "t": 157521.43620833315,
      "d": 49.56892916667857,
      "v": 106
    },
    {
      "midi": 60,
      "hit": false,
      "t": 157780.05670833317,
      "d": 71.12063749998924,
      "v": 127
    },
    {
      "midi": 41,
      "hit": false,
      "t": 158017.12549999973,
      "d": 107.75854166666977,
      "v": 116
    },
    {
      "midi": 65,
      "hit": false,
      "t": 158017.12549999973,
      "d": 150.86195833334932,
      "v": 112
    },
    {
      "midi": 57,
      "hit": false,
      "t": 158017.12549999973,
      "d": 155.17230000000563,
      "v": 116
    },
    {
      "midi": 60,
      "hit": false,
      "t": 158017.12549999973,
      "d": 170.2584958333464,
      "v": 112
    },
    {
      "midi": 60,
      "hit": false,
      "t": 158038.67720833316,
      "d": 40.94824583333684,
      "v": 103
    },
    {
      "midi": 55,
      "hit": false,
      "t": 158275.74599999975,
      "d": 176.7240083333454,
      "v": 116
    },
    {
      "midi": 28,
      "hit": false,
      "t": 158275.74599999975,
      "d": 181.03435000000172,
      "v": 114
    },
    {
      "midi": 64,
      "hit": false,
      "t": 158275.74599999975,
      "d": 183.18952083334443,
      "v": 116
    },
    {
      "midi": 60,
      "hit": false,
      "t": 158275.74599999975,
      "d": 202.5860583333415,
      "v": 112
    },
    {
      "midi": 40,
      "hit": false,
      "t": 158275.74599999975,
      "d": 217.67225416668225,
      "v": 102
    },
    {
      "midi": 60,
      "hit": false,
      "t": 158297.29770833315,
      "d": 19.396537499997066,
      "v": 116
    },
    {
      "midi": 60,
      "hit": false,
      "t": 158555.91820833314,
      "d": 12.931024999998044,
      "v": 126
    },
    {
      "midi": 60,
      "hit": false,
      "t": 158814.53870833313,
      "d": 49.56892916667857,
      "v": 127
    },
    {
      "midi": 40,
      "hit": false,
      "t": 159051.60749999978,
      "d": 107.75854166666977,
      "v": 110
    },
    {
      "midi": 64,
      "hit": false,
      "t": 159051.60749999978,
      "d": 127.15507916666684,
      "v": 117
    },
    {
      "midi": 60,
      "hit": false,
      "t": 159051.60749999978,
      "d": 135.77576250000857,
      "v": 110
    },
    {
      "midi": 55,
      "hit": false,
      "t": 159051.60749999978,
      "d": 140.08610416666488,
      "v": 114
    },
    {
      "midi": 60,
      "hit": false,
      "t": 159073.15920833315,
      "d": 21.551708333339775,
      "v": 118
    },
    {
      "midi": 26,
      "hit": false,
      "t": 159310.22799999977,
      "d": 127.15507916666684,
      "v": 108
    },
    {
      "midi": 62,
      "hit": false,
      "t": 159310.22799999977,
      "d": 172.41366666666,
      "v": 118
    },
    {
      "midi": 53,
      "hit": false,
      "t": 159310.22799999977,
      "d": 183.18952083331533,
      "v": 114
    },
    {
      "midi": 57,
      "hit": false,
      "t": 159310.22799999977,
      "d": 189.65503333331435,
      "v": 117
    },
    {
      "midi": 38,
      "hit": false,
      "t": 159310.22799999977,
      "d": 215.51708333331044,
      "v": 104
    },
    {
      "midi": 60,
      "hit": false,
      "t": 159331.77970833317,
      "d": 15.086195833340753,
      "v": 110
    },
    {
      "midi": 60,
      "hit": false,
      "t": 159590.4002083332,
      "d": 19.396537499997066,
      "v": 122
    },
    {
      "midi": 60,
      "hit": false,
      "t": 159849.02070833318,
      "d": 135.77576250000857,
      "v": 127
    },
    {
      "midi": 38,
      "hit": false,
      "t": 160086.08949999974,
      "d": 96.98268750001444,
      "v": 112
    },
    {
      "midi": 57,
      "hit": false,
      "t": 160086.08949999974,
      "d": 114.2240541666688,
      "v": 116
    },
    {
      "midi": 62,
      "hit": false,
      "t": 160086.08949999974,
      "d": 122.84473750001052,
      "v": 117
    },
    {
      "midi": 53,
      "hit": false,
      "t": 160086.08949999974,
      "d": 131.46542083335225,
      "v": 112
    },
    {
      "midi": 60,
      "hit": false,
      "t": 160107.6412083332,
      "d": 43.10341666667955,
      "v": 84
    },
    {
      "midi": 24,
      "hit": false,
      "t": 160344.70999999976,
      "d": 103.44820000001346,
      "v": 114
    },
    {
      "midi": 36,
      "hit": false,
      "t": 160344.70999999976,
      "d": 135.77576250000857,
      "v": 110
    },
    {
      "midi": 52,
      "hit": false,
      "t": 160344.70999999976,
      "d": 135.77576250000857,
      "v": 119
    },
    {
      "midi": 60,
      "hit": false,
      "t": 160344.70999999976,
      "d": 161.63781250000466,
      "v": 118
    },
    {
      "midi": 55,
      "hit": false,
      "t": 160344.70999999976,
      "d": 163.79298333334737,
      "v": 119
    },
    {
      "midi": 60,
      "hit": false,
      "t": 160366.26170833322,
      "d": 38.79307499999413,
      "v": 116
    },
    {
      "midi": 36,
      "hit": false,
      "t": 160603.33049999978,
      "d": 88.3620041666727,
      "v": 96
    },
    {
      "midi": 60,
      "hit": false,
      "t": 160603.33049999978,
      "d": 94.82751666667173,
      "v": 98
    },
    {
      "midi": 53,
      "hit": false,
      "t": 160603.33049999978,
      "d": 107.75854166666977,
      "v": 112
    },
    {
      "midi": 60,
      "hit": false,
      "t": 160624.8822083332,
      "d": 120.68956666666782,
      "v": 127
    },
    {
      "midi": 40,
      "hit": false,
      "t": 160861.95099999977,
      "d": 301.72391666664043,
      "v": 119
    },
    {
      "midi": 55,
      "hit": false,
      "t": 160861.95099999977,
      "d": 321.1204541666375,
      "v": 122
    },
    {
      "midi": 60,
      "hit": false,
      "t": 160861.95099999977,
      "d": 338.36182083329186,
      "v": 120
    },
    {
      "midi": 60,
      "hit": false,
      "t": 160883.5027083332,
      "d": 49.56892916667857,
      "v": 89
    },
    {
      "midi": 38,
      "hit": false,
      "t": 161120.57149999976,
      "d": 25.86204999999609,
      "v": 96
    },
    {
      "midi": 60,
      "hit": false,
      "t": 161142.1232083332,
      "d": 30.172391666652402,
      "v": 122
    },
    {
      "midi": 41,
      "hit": false,
      "t": 161379.19199999972,
      "d": 193.96537500002887,
      "v": 118
    },
    {
      "midi": 60,
      "hit": false,
      "t": 161379.19199999972,
      "d": 206.89640000002692,
      "v": 119
    },
    {
      "midi": 57,
      "hit": false,
      "t": 161379.19199999972,
      "d": 211.20674166668323,
      "v": 120
    },
    {
      "midi": 65,
      "hit": false,
      "t": 161379.19199999972,
      "d": 215.51708333333954,
      "v": 119
    },
    {
      "midi": 60,
      "hit": false,
      "t": 161400.7437083332,
      "d": 43.10341666667955,
      "v": 127
    },
    {
      "midi": 29,
      "hit": false,
      "t": 161508.50224999973,
      "d": 28.017220833338797,
      "v": 65
    },
    {
      "midi": 60,
      "hit": false,
      "t": 161659.36420833322,
      "d": 25.86204999999609,
      "v": 82
    },
    {
      "midi": 60,
      "hit": false,
      "t": 161917.9847083332,
      "d": 64.65512499999022,
      "v": 127
    },
    {
      "midi": 57,
      "hit": false,
      "t": 162155.05349999972,
      "d": 183.18952083334443,
      "v": 114
    },
    {
      "midi": 65,
      "hit": false,
      "t": 162155.05349999972,
      "d": 185.34469166668714,
      "v": 116
    },
    {
      "midi": 29,
      "hit": false,
      "t": 162155.05349999972,
      "d": 191.81020416668616,
      "v": 106
    },
    {
      "midi": 41,
      "hit": false,
      "t": 162155.05349999972,
      "d": 200.4308875000279,
      "v": 116
    },
    {
      "midi": 60,
      "hit": false,
      "t": 162176.6052083332,
      "d": 47.41375833333586,
      "v": 120
    },
    {
      "midi": 60,
      "hit": false,
      "t": 162284.36374999973,
      "d": 2.1551708333427086,
      "v": 108
    },
    {
      "midi": 28,
      "hit": false,
      "t": 162413.67399999974,
      "d": 107.75854166666977,
      "v": 114
    },
    {
      "midi": 64,
      "hit": false,
      "t": 162413.67399999974,
      "d": 185.34469166665804,
      "v": 116
    },
    {
      "midi": 55,
      "hit": false,
      "t": 162413.67399999974,
      "d": 187.49986250000075,
      "v": 116
    },
    {
      "midi": 40,
      "hit": false,
      "t": 162413.67399999974,
      "d": 189.65503333334345,
      "v": 110
    },
    {
      "midi": 60,
      "hit": false,
      "t": 162413.67399999974,
      "d": 209.05157083334052,
      "v": 114
    },
    {
      "midi": 60,
      "hit": false,
      "t": 162435.2257083332,
      "d": 45.258587499993155,
      "v": 127
    },
    {
      "midi": 60,
      "hit": false,
      "t": 162693.84620833318,
      "d": 17.241366666654358,
      "v": 110
    },
    {
      "midi": 60,
      "hit": false,
      "t": 162952.46670833317,
      "d": 51.72409999999218,
      "v": 127
    },
    {
      "midi": 28,
      "hit": false,
      "t": 163189.53549999974,
      "d": 64.65512499999022,
      "v": 100
    },
    {
      "midi": 64,
      "hit": false,
      "t": 163189.53549999974,
      "d": 99.13785833332804,
      "v": 108
    },
    {
      "midi": 60,
      "hit": false,
      "t": 163189.53549999974,
      "d": 105.60337083332706,
      "v": 106
    },
    {
      "midi": 55,
      "hit": false,
      "t": 163189.53549999974,
      "d": 116.3792249999824,
      "v": 110
    },
    {
      "midi": 40,
      "hit": false,
      "t": 163189.53549999974,
      "d": 120.68956666663871,
      "v": 104
    },
    {
      "midi": 60,
      "hit": false,
      "t": 163211.08720833316,
      "d": 19.396537499997066,
      "v": 78
    },
    {
      "midi": 53,
      "hit": false,
      "t": 163448.1559999997,
      "d": 142.2412750000076,
      "v": 118
    },
    {
      "midi": 62,
      "hit": false,
      "t": 163448.1559999997,
      "d": 170.2584958333464,
      "v": 118
    },
    {
      "midi": 57,
      "hit": false,
      "t": 163448.1559999997,
      "d": 181.03435000000172,
      "v": 120
    },
    {
      "midi": 38,
      "hit": false,
      "t": 163448.1559999997,
      "d": 196.12054583334248,
      "v": 119
    },
    {
      "midi": 60,
      "hit": false,
      "t": 163469.70770833315,
      "d": 40.94824583333684,
      "v": 108
    },
    {
      "midi": 62,
      "hit": false,
      "t": 163706.77649999972,
      "d": 64.65512499999022,
      "v": 88
    },
    {
      "midi": 40,
      "hit": false,
      "t": 163706.77649999972,
      "d": 79.74132083333097,
      "v": 110
    },
    {
      "midi": 55,
      "hit": false,
      "t": 163706.77649999972,
      "d": 96.98268749998533,
      "v": 112
    },
    {
      "midi": 59,
      "hit": false,
      "t": 163706.77649999972,
      "d": 101.29302916664165,
      "v": 108
    },
    {
      "midi": 60,
      "hit": false,
      "t": 163728.32820833314,
      "d": 25.86204999999609,
      "v": 88
    },
    {
      "midi": 41,
      "hit": false,
      "t": 163965.39699999968,
      "d": 342.6721625000064,
      "v": 118
    },
    {
      "midi": 62,
      "hit": false,
      "t": 163965.39699999968,
      "d": 344.8273333333491,
      "v": 119
    },
    {
      "midi": 57,
      "hit": false,
      "t": 163965.39699999968,
      "d": 366.37904166668886,
      "v": 122
    },
    {
      "midi": 60,
      "hit": false,
      "t": 163986.94870833313,
      "d": 53.879270833334886,
      "v": 127
    },
    {
      "midi": 24,
      "hit": false,
      "t": 164482.6379999997,
      "d": 64.65512499999022,
      "v": 114
    },
    {
      "midi": 36,
      "hit": false,
      "t": 164482.6379999997,
      "d": 77.58614999998827,
      "v": 117
    },
    {
      "midi": 52,
      "hit": false,
      "t": 164482.6379999997,
      "d": 120.68956666666782,
      "v": 119
    },
    {
      "midi": 55,
      "hit": false,
      "t": 164482.6379999997,
      "d": 124.99990833332413,
      "v": 119
    },
    {
      "midi": 60,
      "hit": false,
      "t": 164482.6379999997,
      "d": 127.15507916666684,
      "v": 119
    },
    {
      "midi": 60,
      "hit": false,
      "t": 164504.18970833314,
      "d": 32.32756249999511,
      "v": 98
    },
    {
      "midi": 26,
      "hit": false,
      "t": 164741.25849999968,
      "d": 60.34478333333391,
      "v": 104
    },
    {
      "midi": 38,
      "hit": false,
      "t": 164741.25849999968,
      "d": 75.43097916667466,
      "v": 112
    },
    {
      "midi": 53,
      "hit": false,
      "t": 164741.25849999968,
      "d": 96.98268750001444,
      "v": 108
    },
    {
      "midi": 57,
      "hit": false,
      "t": 164741.25849999968,
      "d": 101.29302916667075,
      "v": 110
    },
    {
      "midi": 62,
      "hit": false,
      "t": 164741.25849999968,
      "d": 103.44820000001346,
      "v": 108
    },
    {
      "midi": 60,
      "hit": false,
      "t": 164762.81020833313,
      "d": 176.7240083333454,
      "v": 127
    },
    {
      "midi": 62,
      "hit": false,
      "t": 164999.8789999997,
      "d": 170.2584958333464,
      "v": 110
    },
    {
      "midi": 28,
      "hit": false,
      "t": 164999.8789999997,
      "d": 282.3273791666725,
      "v": 106
    },
    {
      "midi": 40,
      "hit": false,
      "t": 164999.8789999997,
      "d": 293.1032333333278,
      "v": 117
    },
    {
      "midi": 55,
      "hit": false,
      "t": 164999.8789999997,
      "d": 301.72391666666954,
      "v": 119
    },
    {
      "midi": 64,
      "hit": false,
      "t": 164999.8789999997,
      "d": 303.87908750001225,
      "v": 110
    },
    {
      "midi": 59,
      "hit": false,
      "t": 164999.8789999997,
      "d": 306.03425833335496,
      "v": 119
    },
    {
      "midi": 60,
      "hit": false,
      "t": 165021.43070833315,
      "d": 49.56892916667857,
      "v": 92
    },
    {
      "midi": 60,
      "hit": false,
      "t": 165280.05120833317,
      "d": 105.60337083332706,
      "v": 127
    },
    {
      "midi": 29,
      "hit": false,
      "t": 165517.1199999997,
      "d": 168.10332500000368,
      "v": 106
    },
    {
      "midi": 65,
      "hit": false,
      "t": 165517.1199999997,
      "d": 193.96537499999977,
      "v": 116
    },
    {
      "midi": 57,
      "hit": false,
      "t": 165517.1199999997,
      "d": 196.12054583334248,
      "v": 114
    },
    {
      "midi": 60,
      "hit": false,
      "t": 165517.1199999997,
      "d": 202.5860583333415,
      "v": 110
    },
    {
      "midi": 41,
      "hit": false,
      "t": 165517.1199999997,
      "d": 237.06879166667932,
      "v": 110
    },
    {
      "midi": 60,
      "hit": false,
      "t": 165538.67170833316,
      "d": 68.96546666667564,
      "v": 127
    },
    {
      "midi": 60,
      "hit": false,
      "t": 165797.29220833318,
      "d": 49.56892916667857,
      "v": 106
    },
    {
      "midi": 60,
      "hit": false,
      "t": 166055.9127083332,
      "d": 71.12063749998924,
      "v": 127
    },
    {
      "midi": 41,
      "hit": false,
      "t": 166292.9814999997,
      "d": 107.75854166666977,
      "v": 116
    },
    {
      "midi": 65,
      "hit": false,
      "t": 166292.9814999997,
      "d": 150.86195833334932,
      "v": 112
    },
    {
      "midi": 57,
      "hit": false,
      "t": 166292.9814999997,
      "d": 155.17230000000563,
      "v": 116
    },
    {
      "midi": 60,
      "hit": false,
      "t": 166292.9814999997,
      "d": 170.2584958333464,
      "v": 112
    },
    {
      "midi": 60,
      "hit": false,
      "t": 166314.5332083332,
      "d": 40.94824583333684,
      "v": 103
    },
    {
      "midi": 55,
      "hit": false,
      "t": 166551.60199999972,
      "d": 176.7240083333454,
      "v": 116
    },
    {
      "midi": 28,
      "hit": false,
      "t": 166551.60199999972,
      "d": 181.03435000000172,
      "v": 114
    },
    {
      "midi": 64,
      "hit": false,
      "t": 166551.60199999972,
      "d": 183.18952083334443,
      "v": 116
    },
    {
      "midi": 60,
      "hit": false,
      "t": 166551.60199999972,
      "d": 202.5860583333415,
      "v": 112
    },
    {
      "midi": 40,
      "hit": false,
      "t": 166551.60199999972,
      "d": 217.67225416668225,
      "v": 102
    },
    {
      "midi": 60,
      "hit": false,
      "t": 166573.15370833318,
      "d": 19.396537499997066,
      "v": 116
    },
    {
      "midi": 60,
      "hit": false,
      "t": 166831.77420833317,
      "d": 12.931024999998044,
      "v": 126
    },
    {
      "midi": 60,
      "hit": false,
      "t": 167090.39470833316,
      "d": 49.56892916667857,
      "v": 127
    },
    {
      "midi": 40,
      "hit": false,
      "t": 167327.46349999975,
      "d": 107.75854166666977,
      "v": 110
    },
    {
      "midi": 64,
      "hit": false,
      "t": 167327.46349999975,
      "d": 127.15507916666684,
      "v": 117
    },
    {
      "midi": 60,
      "hit": false,
      "t": 167327.46349999975,
      "d": 135.77576250000857,
      "v": 110
    },
    {
      "midi": 55,
      "hit": false,
      "t": 167327.46349999975,
      "d": 140.08610416666488,
      "v": 114
    },
    {
      "midi": 60,
      "hit": false,
      "t": 167349.01520833318,
      "d": 21.551708333339775,
      "v": 118
    },
    {
      "midi": 26,
      "hit": false,
      "t": 167586.08399999974,
      "d": 127.15507916666684,
      "v": 108
    },
    {
      "midi": 62,
      "hit": false,
      "t": 167586.08399999974,
      "d": 172.41366666666,
      "v": 118
    },
    {
      "midi": 53,
      "hit": false,
      "t": 167586.08399999974,
      "d": 183.18952083331533,
      "v": 114
    },
    {
      "midi": 57,
      "hit": false,
      "t": 167586.08399999974,
      "d": 189.65503333331435,
      "v": 117
    },
    {
      "midi": 38,
      "hit": false,
      "t": 167586.08399999974,
      "d": 215.51708333331044,
      "v": 104
    },
    {
      "midi": 60,
      "hit": false,
      "t": 167607.6357083332,
      "d": 15.086195833340753,
      "v": 110
    },
    {
      "midi": 60,
      "hit": false,
      "t": 167866.25620833322,
      "d": 19.396537499997066,
      "v": 122
    },
    {
      "midi": 60,
      "hit": false,
      "t": 168124.8767083332,
      "d": 135.77576250000857,
      "v": 127
    },
    {
      "midi": 38,
      "hit": false,
      "t": 168361.9454999997,
      "d": 96.98268750001444,
      "v": 112
    },
    {
      "midi": 57,
      "hit": false,
      "t": 168361.9454999997,
      "d": 114.2240541666688,
      "v": 116
    },
    {
      "midi": 62,
      "hit": false,
      "t": 168361.9454999997,
      "d": 122.84473750001052,
      "v": 117
    },
    {
      "midi": 53,
      "hit": false,
      "t": 168361.9454999997,
      "d": 131.46542083335225,
      "v": 112
    },
    {
      "midi": 60,
      "hit": false,
      "t": 168383.49720833322,
      "d": 43.10341666667955,
      "v": 84
    },
    {
      "midi": 24,
      "hit": false,
      "t": 168620.56599999973,
      "d": 103.44820000001346,
      "v": 114
    },
    {
      "midi": 36,
      "hit": false,
      "t": 168620.56599999973,
      "d": 135.77576250000857,
      "v": 110
    },
    {
      "midi": 52,
      "hit": false,
      "t": 168620.56599999973,
      "d": 135.77576250000857,
      "v": 119
    },
    {
      "midi": 60,
      "hit": false,
      "t": 168620.56599999973,
      "d": 161.63781250000466,
      "v": 118
    },
    {
      "midi": 55,
      "hit": false,
      "t": 168620.56599999973,
      "d": 163.79298333334737,
      "v": 119
    },
    {
      "midi": 60,
      "hit": false,
      "t": 168642.11770833324,
      "d": 38.79307499999413,
      "v": 116
    },
    {
      "midi": 36,
      "hit": false,
      "t": 168879.18649999975,
      "d": 88.3620041666727,
      "v": 96
    },
    {
      "midi": 60,
      "hit": false,
      "t": 168879.18649999975,
      "d": 94.82751666667173,
      "v": 98
    },
    {
      "midi": 53,
      "hit": false,
      "t": 168879.18649999975,
      "d": 107.75854166666977,
      "v": 112
    },
    {
      "midi": 60,
      "hit": false,
      "t": 168900.73820833323,
      "d": 120.68956666666782,
      "v": 127
    },
    {
      "midi": 40,
      "hit": false,
      "t": 169137.80699999974,
      "d": 301.72391666664043,
      "v": 119
    },
    {
      "midi": 55,
      "hit": false,
      "t": 169137.80699999974,
      "d": 321.1204541666375,
      "v": 122
    },
    {
      "midi": 60,
      "hit": false,
      "t": 169137.80699999974,
      "d": 338.36182083329186,
      "v": 120
    },
    {
      "midi": 60,
      "hit": false,
      "t": 169159.35870833322,
      "d": 49.56892916667857,
      "v": 89
    },
    {
      "midi": 38,
      "hit": false,
      "t": 169396.42749999973,
      "d": 25.86204999999609,
      "v": 96
    },
    {
      "midi": 60,
      "hit": false,
      "t": 169417.97920833324,
      "d": 30.172391666652402,
      "v": 122
    },
    {
      "midi": 41,
      "hit": false,
      "t": 169655.0479999997,
      "d": 193.96537500002887,
      "v": 118
    },
    {
      "midi": 60,
      "hit": false,
      "t": 169655.0479999997,
      "d": 206.89640000002692,
      "v": 119
    },
    {
      "midi": 57,
      "hit": false,
      "t": 169655.0479999997,
      "d": 211.20674166668323,
      "v": 120
    },
    {
      "midi": 65,
      "hit": false,
      "t": 169655.0479999997,
      "d": 215.51708333333954,
      "v": 119
    },
    {
      "midi": 60,
      "hit": false,
      "t": 169676.59970833323,
      "d": 43.10341666667955,
      "v": 127
    },
    {
      "midi": 29,
      "hit": false,
      "t": 169784.3582499997,
      "d": 28.017220833338797,
      "v": 65
    },
    {
      "midi": 60,
      "hit": false,
      "t": 169935.22020833325,
      "d": 25.86204999999609,
      "v": 82
    },
    {
      "midi": 60,
      "hit": false,
      "t": 170193.84070833324,
      "d": 64.65512499999022,
      "v": 127
    },
    {
      "midi": 57,
      "hit": false,
      "t": 170430.9094999997,
      "d": 183.18952083334443,
      "v": 114
    },
    {
      "midi": 65,
      "hit": false,
      "t": 170430.9094999997,
      "d": 185.34469166668714,
      "v": 116
    },
    {
      "midi": 29,
      "hit": false,
      "t": 170430.9094999997,
      "d": 191.81020416668616,
      "v": 106
    },
    {
      "midi": 41,
      "hit": false,
      "t": 170430.9094999997,
      "d": 200.4308875000279,
      "v": 116
    },
    {
      "midi": 60,
      "hit": false,
      "t": 170452.46120833323,
      "d": 47.41375833333586,
      "v": 120
    },
    {
      "midi": 60,
      "hit": false,
      "t": 170560.2197499997,
      "d": 2.1551708333427086,
      "v": 108
    },
    {
      "midi": 28,
      "hit": false,
      "t": 170689.5299999997,
      "d": 107.75854166666977,
      "v": 114
    },
    {
      "midi": 64,
      "hit": false,
      "t": 170689.5299999997,
      "d": 185.34469166665804,
      "v": 116
    },
    {
      "midi": 55,
      "hit": false,
      "t": 170689.5299999997,
      "d": 187.49986250000075,
      "v": 116
    },
    {
      "midi": 40,
      "hit": false,
      "t": 170689.5299999997,
      "d": 189.65503333334345,
      "v": 110
    },
    {
      "midi": 60,
      "hit": false,
      "t": 170689.5299999997,
      "d": 209.05157083334052,
      "v": 114
    },
    {
      "midi": 60,
      "hit": false,
      "t": 170711.08170833322,
      "d": 45.258587499993155,
      "v": 127
    },
    {
      "midi": 60,
      "hit": false,
      "t": 170969.7022083332,
      "d": 17.241366666654358,
      "v": 110
    },
    {
      "midi": 60,
      "hit": false,
      "t": 171228.3227083332,
      "d": 51.72409999999218,
      "v": 127
    },
    {
      "midi": 28,
      "hit": false,
      "t": 171465.3914999997,
      "d": 64.65512499999022,
      "v": 100
    },
    {
      "midi": 64,
      "hit": false,
      "t": 171465.3914999997,
      "d": 99.13785833332804,
      "v": 108
    },
    {
      "midi": 60,
      "hit": false,
      "t": 171465.3914999997,
      "d": 105.60337083332706,
      "v": 106
    },
    {
      "midi": 55,
      "hit": false,
      "t": 171465.3914999997,
      "d": 116.3792249999824,
      "v": 110
    },
    {
      "midi": 40,
      "hit": false,
      "t": 171465.3914999997,
      "d": 120.68956666663871,
      "v": 104
    },
    {
      "midi": 60,
      "hit": false,
      "t": 171486.9432083332,
      "d": 19.396537499997066,
      "v": 78
    },
    {
      "midi": 53,
      "hit": false,
      "t": 171724.01199999967,
      "d": 142.2412750000076,
      "v": 118
    },
    {
      "midi": 62,
      "hit": false,
      "t": 171724.01199999967,
      "d": 170.2584958333464,
      "v": 118
    },
    {
      "midi": 57,
      "hit": false,
      "t": 171724.01199999967,
      "d": 181.03435000000172,
      "v": 120
    },
    {
      "midi": 38,
      "hit": false,
      "t": 171724.01199999967,
      "d": 196.12054583334248,
      "v": 119
    },
    {
      "midi": 60,
      "hit": false,
      "t": 171745.56370833318,
      "d": 40.94824583333684,
      "v": 108
    },
    {
      "midi": 62,
      "hit": false,
      "t": 171982.6324999997,
      "d": 64.65512499999022,
      "v": 88
    },
    {
      "midi": 40,
      "hit": false,
      "t": 171982.6324999997,
      "d": 79.74132083333097,
      "v": 110
    },
    {
      "midi": 55,
      "hit": false,
      "t": 171982.6324999997,
      "d": 96.98268749998533,
      "v": 112
    },
    {
      "midi": 59,
      "hit": false,
      "t": 171982.6324999997,
      "d": 101.29302916664165,
      "v": 108
    },
    {
      "midi": 60,
      "hit": false,
      "t": 172004.18420833317,
      "d": 25.86204999999609,
      "v": 88
    },
    {
      "midi": 41,
      "hit": false,
      "t": 172241.25299999965,
      "d": 342.6721625000064,
      "v": 118
    },
    {
      "midi": 62,
      "hit": false,
      "t": 172241.25299999965,
      "d": 344.8273333333491,
      "v": 119
    },
    {
      "midi": 57,
      "hit": false,
      "t": 172241.25299999965,
      "d": 366.37904166668886,
      "v": 122
    },
    {
      "midi": 60,
      "hit": false,
      "t": 172262.80470833316,
      "d": 53.879270833334886,
      "v": 127
    },
    {
      "midi": 24,
      "hit": false,
      "t": 172758.49399999966,
      "d": 64.65512499999022,
      "v": 114
    },
    {
      "midi": 36,
      "hit": false,
      "t": 172758.49399999966,
      "d": 77.58614999998827,
      "v": 117
    },
    {
      "midi": 52,
      "hit": false,
      "t": 172758.49399999966,
      "d": 120.68956666666782,
      "v": 119
    },
    {
      "midi": 55,
      "hit": false,
      "t": 172758.49399999966,
      "d": 124.99990833332413,
      "v": 119
    },
    {
      "midi": 60,
      "hit": false,
      "t": 172758.49399999966,
      "d": 127.15507916666684,
      "v": 119
    },
    {
      "midi": 60,
      "hit": false,
      "t": 172780.04570833317,
      "d": 32.32756249999511,
      "v": 98
    },
    {
      "midi": 26,
      "hit": false,
      "t": 173017.11449999965,
      "d": 60.34478333333391,
      "v": 104
    },
    {
      "midi": 38,
      "hit": false,
      "t": 173017.11449999965,
      "d": 75.43097916667466,
      "v": 112
    },
    {
      "midi": 53,
      "hit": false,
      "t": 173017.11449999965,
      "d": 96.98268750001444,
      "v": 108
    },
    {
      "midi": 57,
      "hit": false,
      "t": 173017.11449999965,
      "d": 101.29302916667075,
      "v": 110
    },
    {
      "midi": 62,
      "hit": false,
      "t": 173017.11449999965,
      "d": 103.44820000001346,
      "v": 108
    },
    {
      "midi": 60,
      "hit": false,
      "t": 173038.66620833316,
      "d": 176.7240083333454,
      "v": 127
    },
    {
      "midi": 62,
      "hit": false,
      "t": 173275.73499999967,
      "d": 170.2584958333464,
      "v": 110
    },
    {
      "midi": 28,
      "hit": false,
      "t": 173275.73499999967,
      "d": 282.3273791666725,
      "v": 106
    },
    {
      "midi": 40,
      "hit": false,
      "t": 173275.73499999967,
      "d": 293.1032333333278,
      "v": 117
    },
    {
      "midi": 55,
      "hit": false,
      "t": 173275.73499999967,
      "d": 301.72391666666954,
      "v": 119
    },
    {
      "midi": 64,
      "hit": false,
      "t": 173275.73499999967,
      "d": 303.87908750001225,
      "v": 110
    },
    {
      "midi": 59,
      "hit": false,
      "t": 173275.73499999967,
      "d": 306.03425833335496,
      "v": 119
    },
    {
      "midi": 60,
      "hit": false,
      "t": 173297.28670833318,
      "d": 49.56892916667857,
      "v": 92
    },
    {
      "midi": 60,
      "hit": false,
      "t": 173555.9072083332,
      "d": 105.60337083332706,
      "v": 127
    },
    {
      "midi": 29,
      "hit": false,
      "t": 173792.97599999967,
      "d": 168.10332500000368,
      "v": 106
    },
    {
      "midi": 65,
      "hit": false,
      "t": 173792.97599999967,
      "d": 193.96537499999977,
      "v": 116
    },
    {
      "midi": 57,
      "hit": false,
      "t": 173792.97599999967,
      "d": 196.12054583334248,
      "v": 114
    },
    {
      "midi": 60,
      "hit": false,
      "t": 173792.97599999967,
      "d": 202.5860583333415,
      "v": 110
    },
    {
      "midi": 41,
      "hit": false,
      "t": 173792.97599999967,
      "d": 237.06879166667932,
      "v": 110
    },
    {
      "midi": 60,
      "hit": false,
      "t": 173814.5277083332,
      "d": 68.96546666667564,
      "v": 127
    },
    {
      "midi": 60,
      "hit": false,
      "t": 174073.1482083332,
      "d": 49.56892916667857,
      "v": 106
    },
    {
      "midi": 60,
      "hit": false,
      "t": 174331.76870833323,
      "d": 71.12063749998924,
      "v": 127
    },
    {
      "midi": 41,
      "hit": false,
      "t": 174568.83749999967,
      "d": 107.75854166666977,
      "v": 116
    },
    {
      "midi": 65,
      "hit": false,
      "t": 174568.83749999967,
      "d": 150.86195833334932,
      "v": 112
    },
    {
      "midi": 57,
      "hit": false,
      "t": 174568.83749999967,
      "d": 155.17230000000563,
      "v": 116
    },
    {
      "midi": 60,
      "hit": false,
      "t": 174568.83749999967,
      "d": 170.2584958333464,
      "v": 112
    },
    {
      "midi": 60,
      "hit": false,
      "t": 174590.38920833322,
      "d": 40.94824583333684,
      "v": 103
    },
    {
      "midi": 55,
      "hit": false,
      "t": 174827.4579999997,
      "d": 176.7240083333454,
      "v": 116
    },
    {
      "midi": 28,
      "hit": false,
      "t": 174827.4579999997,
      "d": 181.03435000000172,
      "v": 114
    },
    {
      "midi": 64,
      "hit": false,
      "t": 174827.4579999997,
      "d": 183.18952083334443,
      "v": 116
    },
    {
      "midi": 60,
      "hit": false,
      "t": 174827.4579999997,
      "d": 202.5860583333415,
      "v": 112
    },
    {
      "midi": 40,
      "hit": false,
      "t": 174827.4579999997,
      "d": 217.67225416668225,
      "v": 102
    },
    {
      "midi": 60,
      "hit": false,
      "t": 174849.0097083332,
      "d": 19.396537499997066,
      "v": 116
    },
    {
      "midi": 60,
      "hit": false,
      "t": 175107.6302083332,
      "d": 12.931024999998044,
      "v": 126
    },
    {
      "midi": 60,
      "hit": false,
      "t": 175366.2507083332,
      "d": 49.56892916667857,
      "v": 127
    },
    {
      "midi": 40,
      "hit": false,
      "t": 175603.31949999972,
      "d": 107.75854166666977,
      "v": 110
    },
    {
      "midi": 64,
      "hit": false,
      "t": 175603.31949999972,
      "d": 127.15507916666684,
      "v": 117
    },
    {
      "midi": 60,
      "hit": false,
      "t": 175603.31949999972,
      "d": 135.77576250000857,
      "v": 110
    },
    {
      "midi": 55,
      "hit": false,
      "t": 175603.31949999972,
      "d": 140.08610416666488,
      "v": 114
    },
    {
      "midi": 60,
      "hit": false,
      "t": 175624.8712083332,
      "d": 21.551708333339775,
      "v": 118
    },
    {
      "midi": 26,
      "hit": false,
      "t": 175861.9399999997,
      "d": 127.15507916666684,
      "v": 108
    },
    {
      "midi": 62,
      "hit": false,
      "t": 175861.9399999997,
      "d": 172.41366666666,
      "v": 118
    },
    {
      "midi": 53,
      "hit": false,
      "t": 175861.9399999997,
      "d": 183.18952083331533,
      "v": 114
    },
    {
      "midi": 57,
      "hit": false,
      "t": 175861.9399999997,
      "d": 189.65503333331435,
      "v": 117
    },
    {
      "midi": 38,
      "hit": false,
      "t": 175861.9399999997,
      "d": 215.51708333331044,
      "v": 104
    },
    {
      "midi": 60,
      "hit": false,
      "t": 175883.49170833323,
      "d": 15.086195833340753,
      "v": 110
    },
    {
      "midi": 60,
      "hit": false,
      "t": 176142.11220833324,
      "d": 19.396537499997066,
      "v": 122
    },
    {
      "midi": 60,
      "hit": false,
      "t": 176400.73270833323,
      "d": 135.77576250000857,
      "v": 127
    },
    {
      "midi": 38,
      "hit": false,
      "t": 176637.80149999968,
      "d": 96.98268750001444,
      "v": 112
    },
    {
      "midi": 57,
      "hit": false,
      "t": 176637.80149999968,
      "d": 114.2240541666688,
      "v": 116
    },
    {
      "midi": 62,
      "hit": false,
      "t": 176637.80149999968,
      "d": 122.84473750001052,
      "v": 117
    },
    {
      "midi": 53,
      "hit": false,
      "t": 176637.80149999968,
      "d": 131.46542083335225,
      "v": 112
    },
    {
      "midi": 60,
      "hit": false,
      "t": 176659.35320833325,
      "d": 43.10341666667955,
      "v": 84
    },
    {
      "midi": 24,
      "hit": false,
      "t": 176896.4219999997,
      "d": 103.44820000001346,
      "v": 114
    },
    {
      "midi": 36,
      "hit": false,
      "t": 176896.4219999997,
      "d": 135.77576250000857,
      "v": 110
    },
    {
      "midi": 52,
      "hit": false,
      "t": 176896.4219999997,
      "d": 135.77576250000857,
      "v": 119
    },
    {
      "midi": 60,
      "hit": false,
      "t": 176896.4219999997,
      "d": 161.63781250000466,
      "v": 118
    },
    {
      "midi": 55,
      "hit": false,
      "t": 176896.4219999997,
      "d": 163.79298333334737,
      "v": 119
    },
    {
      "midi": 60,
      "hit": false,
      "t": 176917.97370833327,
      "d": 38.79307499999413,
      "v": 116
    },
    {
      "midi": 36,
      "hit": false,
      "t": 177155.04249999972,
      "d": 88.3620041666727,
      "v": 96
    },
    {
      "midi": 60,
      "hit": false,
      "t": 177155.04249999972,
      "d": 94.82751666667173,
      "v": 98
    },
    {
      "midi": 53,
      "hit": false,
      "t": 177155.04249999972,
      "d": 107.75854166666977,
      "v": 112
    },
    {
      "midi": 60,
      "hit": false,
      "t": 177176.59420833326,
      "d": 120.68956666666782,
      "v": 127
    },
    {
      "midi": 40,
      "hit": false,
      "t": 177413.6629999997,
      "d": 301.72391666664043,
      "v": 119
    },
    {
      "midi": 55,
      "hit": false,
      "t": 177413.6629999997,
      "d": 321.1204541666375,
      "v": 122
    },
    {
      "midi": 60,
      "hit": false,
      "t": 177413.6629999997,
      "d": 338.36182083329186,
      "v": 120
    },
    {
      "midi": 60,
      "hit": false,
      "t": 177435.21470833325,
      "d": 49.56892916667857,
      "v": 89
    },
    {
      "midi": 38,
      "hit": false,
      "t": 177672.2834999997,
      "d": 25.86204999999609,
      "v": 96
    },
    {
      "midi": 60,
      "hit": false,
      "t": 177693.83520833327,
      "d": 30.172391666652402,
      "v": 122
    },
    {
      "midi": 41,
      "hit": false,
      "t": 177930.90399999966,
      "d": 193.96537500002887,
      "v": 118
    },
    {
      "midi": 60,
      "hit": false,
      "t": 177930.90399999966,
      "d": 206.89640000002692,
      "v": 119
    },
    {
      "midi": 57,
      "hit": false,
      "t": 177930.90399999966,
      "d": 211.20674166668323,
      "v": 120
    },
    {
      "midi": 65,
      "hit": false,
      "t": 177930.90399999966,
      "d": 215.51708333333954,
      "v": 119
    },
    {
      "midi": 60,
      "hit": false,
      "t": 177952.45570833326,
      "d": 43.10341666667955,
      "v": 127
    },
    {
      "midi": 29,
      "hit": false,
      "t": 178060.21424999967,
      "d": 28.017220833338797,
      "v": 65
    },
    {
      "midi": 60,
      "hit": false,
      "t": 178211.07620833328,
      "d": 25.86204999999609,
      "v": 82
    },
    {
      "midi": 60,
      "hit": false,
      "t": 178469.69670833327,
      "d": 64.65512499999022,
      "v": 127
    },
    {
      "midi": 57,
      "hit": false,
      "t": 178706.76549999966,
      "d": 183.18952083334443,
      "v": 114
    },
    {
      "midi": 65,
      "hit": false,
      "t": 178706.76549999966,
      "d": 185.34469166668714,
      "v": 116
    },
    {
      "midi": 29,
      "hit": false,
      "t": 178706.76549999966,
      "d": 191.81020416668616,
      "v": 106
    },
    {
      "midi": 41,
      "hit": false,
      "t": 178706.76549999966,
      "d": 200.4308875000279,
      "v": 116
    },
    {
      "midi": 60,
      "hit": false,
      "t": 178728.31720833326,
      "d": 47.41375833333586,
      "v": 120
    },
    {
      "midi": 60,
      "hit": false,
      "t": 178836.07574999967,
      "d": 2.1551708333427086,
      "v": 108
    },
    {
      "midi": 28,
      "hit": false,
      "t": 178965.38599999968,
      "d": 107.75854166666977,
      "v": 114
    },
    {
      "midi": 64,
      "hit": false,
      "t": 178965.38599999968,
      "d": 185.34469166665804,
      "v": 116
    },
    {
      "midi": 55,
      "hit": false,
      "t": 178965.38599999968,
      "d": 187.49986250000075,
      "v": 116
    },
    {
      "midi": 40,
      "hit": false,
      "t": 178965.38599999968,
      "d": 189.65503333334345,
      "v": 110
    },
    {
      "midi": 60,
      "hit": false,
      "t": 178965.38599999968,
      "d": 209.05157083334052,
      "v": 114
    },
    {
      "midi": 60,
      "hit": false,
      "t": 178986.93770833325,
      "d": 45.258587499993155,
      "v": 127
    },
    {
      "midi": 60,
      "hit": false,
      "t": 179245.55820833324,
      "d": 17.241366666654358,
      "v": 110
    },
    {
      "midi": 60,
      "hit": false,
      "t": 179504.17870833323,
      "d": 51.72409999999218,
      "v": 127
    },
    {
      "midi": 28,
      "hit": false,
      "t": 179741.24749999968,
      "d": 64.65512499999022,
      "v": 100
    },
    {
      "midi": 64,
      "hit": false,
      "t": 179741.24749999968,
      "d": 99.13785833332804,
      "v": 108
    },
    {
      "midi": 60,
      "hit": false,
      "t": 179741.24749999968,
      "d": 105.60337083332706,
      "v": 106
    },
    {
      "midi": 55,
      "hit": false,
      "t": 179741.24749999968,
      "d": 116.3792249999824,
      "v": 110
    },
    {
      "midi": 40,
      "hit": false,
      "t": 179741.24749999968,
      "d": 120.68956666663871,
      "v": 104
    },
    {
      "midi": 60,
      "hit": false,
      "t": 179762.79920833322,
      "d": 19.396537499997066,
      "v": 78
    },
    {
      "midi": 53,
      "hit": false,
      "t": 179999.86799999964,
      "d": 142.2412750000076,
      "v": 118
    },
    {
      "midi": 62,
      "hit": false,
      "t": 179999.86799999964,
      "d": 170.2584958333464,
      "v": 118
    },
    {
      "midi": 57,
      "hit": false,
      "t": 179999.86799999964,
      "d": 181.03435000000172,
      "v": 120
    },
    {
      "midi": 38,
      "hit": false,
      "t": 179999.86799999964,
      "d": 196.12054583334248,
      "v": 119
    },
    {
      "midi": 60,
      "hit": false,
      "t": 180021.4197083332,
      "d": 40.94824583333684,
      "v": 108
    },
    {
      "midi": 62,
      "hit": false,
      "t": 180258.48849999966,
      "d": 64.65512499999022,
      "v": 88
    },
    {
      "midi": 40,
      "hit": false,
      "t": 180258.48849999966,
      "d": 79.74132083333097,
      "v": 110
    },
    {
      "midi": 55,
      "hit": false,
      "t": 180258.48849999966,
      "d": 96.98268749998533,
      "v": 112
    },
    {
      "midi": 59,
      "hit": false,
      "t": 180258.48849999966,
      "d": 101.29302916664165,
      "v": 108
    },
    {
      "midi": 60,
      "hit": false,
      "t": 180280.0402083332,
      "d": 25.86204999999609,
      "v": 88
    },
    {
      "midi": 41,
      "hit": false,
      "t": 180517.10899999962,
      "d": 342.6721625000064,
      "v": 118
    },
    {
      "midi": 62,
      "hit": false,
      "t": 180517.10899999962,
      "d": 344.8273333333491,
      "v": 119
    },
    {
      "midi": 57,
      "hit": false,
      "t": 180517.10899999962,
      "d": 366.37904166668886,
      "v": 122
    },
    {
      "midi": 60,
      "hit": false,
      "t": 180538.6607083332,
      "d": 53.879270833334886,
      "v": 127
    },
    {
      "midi": 24,
      "hit": false,
      "t": 181034.34999999963,
      "d": 64.65512499999022,
      "v": 114
    },
    {
      "midi": 36,
      "hit": false,
      "t": 181034.34999999963,
      "d": 77.58614999998827,
      "v": 117
    },
    {
      "midi": 52,
      "hit": false,
      "t": 181034.34999999963,
      "d": 120.68956666666782,
      "v": 119
    },
    {
      "midi": 55,
      "hit": false,
      "t": 181034.34999999963,
      "d": 124.99990833332413,
      "v": 119
    },
    {
      "midi": 60,
      "hit": false,
      "t": 181034.34999999963,
      "d": 127.15507916666684,
      "v": 119
    },
    {
      "midi": 60,
      "hit": false,
      "t": 181055.9017083332,
      "d": 32.32756249999511,
      "v": 98
    },
    {
      "midi": 26,
      "hit": false,
      "t": 181292.97049999962,
      "d": 60.34478333333391,
      "v": 104
    },
    {
      "midi": 38,
      "hit": false,
      "t": 181292.97049999962,
      "d": 75.43097916667466,
      "v": 112
    },
    {
      "midi": 53,
      "hit": false,
      "t": 181292.97049999962,
      "d": 96.98268750001444,
      "v": 108
    },
    {
      "midi": 57,
      "hit": false,
      "t": 181292.97049999962,
      "d": 101.29302916667075,
      "v": 110
    },
    {
      "midi": 62,
      "hit": false,
      "t": 181292.97049999962,
      "d": 103.44820000001346,
      "v": 108
    },
    {
      "midi": 60,
      "hit": false,
      "t": 181314.5222083332,
      "d": 176.7240083333454,
      "v": 127
    },
    {
      "midi": 62,
      "hit": false,
      "t": 181551.59099999964,
      "d": 170.2584958333464,
      "v": 110
    },
    {
      "midi": 28,
      "hit": false,
      "t": 181551.59099999964,
      "d": 282.3273791666725,
      "v": 106
    },
    {
      "midi": 40,
      "hit": false,
      "t": 181551.59099999964,
      "d": 293.1032333333278,
      "v": 117
    },
    {
      "midi": 55,
      "hit": false,
      "t": 181551.59099999964,
      "d": 301.72391666666954,
      "v": 119
    },
    {
      "midi": 64,
      "hit": false,
      "t": 181551.59099999964,
      "d": 303.87908750001225,
      "v": 110
    },
    {
      "midi": 59,
      "hit": false,
      "t": 181551.59099999964,
      "d": 306.03425833335496,
      "v": 119
    },
    {
      "midi": 60,
      "hit": false,
      "t": 181573.1427083332,
      "d": 49.56892916667857,
      "v": 92
    },
    {
      "midi": 60,
      "hit": false,
      "t": 181831.76320833323,
      "d": 105.60337083332706,
      "v": 127
    },
    {
      "midi": 29,
      "hit": false,
      "t": 182068.83199999965,
      "d": 168.10332500000368,
      "v": 106
    },
    {
      "midi": 65,
      "hit": false,
      "t": 182068.83199999965,
      "d": 193.96537499999977,
      "v": 116
    },
    {
      "midi": 57,
      "hit": false,
      "t": 182068.83199999965,
      "d": 196.12054583334248,
      "v": 114
    },
    {
      "midi": 60,
      "hit": false,
      "t": 182068.83199999965,
      "d": 202.5860583333415,
      "v": 110
    },
    {
      "midi": 41,
      "hit": false,
      "t": 182068.83199999965,
      "d": 237.06879166667932,
      "v": 110
    },
    {
      "midi": 60,
      "hit": false,
      "t": 182090.38370833322,
      "d": 68.96546666667564,
      "v": 127
    },
    {
      "midi": 60,
      "hit": false,
      "t": 182349.00420833324,
      "d": 49.56892916667857,
      "v": 106
    },
    {
      "midi": 60,
      "hit": false,
      "t": 182607.62470833326,
      "d": 71.12063749998924,
      "v": 127
    },
    {
      "midi": 41,
      "hit": false,
      "t": 182844.69349999964,
      "d": 107.75854166666977,
      "v": 116
    },
    {
      "midi": 65,
      "hit": false,
      "t": 182844.69349999964,
      "d": 150.86195833334932,
      "v": 112
    },
    {
      "midi": 57,
      "hit": false,
      "t": 182844.69349999964,
      "d": 155.17230000000563,
      "v": 116
    },
    {
      "midi": 60,
      "hit": false,
      "t": 182844.69349999964,
      "d": 170.2584958333464,
      "v": 112
    },
    {
      "midi": 60,
      "hit": false,
      "t": 182866.24520833325,
      "d": 40.94824583333684,
      "v": 103
    },
    {
      "midi": 55,
      "hit": false,
      "t": 183103.31399999966,
      "d": 176.7240083333454,
      "v": 116
    },
    {
      "midi": 28,
      "hit": false,
      "t": 183103.31399999966,
      "d": 181.03435000000172,
      "v": 114
    },
    {
      "midi": 64,
      "hit": false,
      "t": 183103.31399999966,
      "d": 183.18952083334443,
      "v": 116
    },
    {
      "midi": 60,
      "hit": false,
      "t": 183103.31399999966,
      "d": 202.5860583333415,
      "v": 112
    },
    {
      "midi": 40,
      "hit": false,
      "t": 183103.31399999966,
      "d": 217.67225416668225,
      "v": 102
    },
    {
      "midi": 60,
      "hit": false,
      "t": 183124.86570833324,
      "d": 19.396537499997066,
      "v": 116
    },
    {
      "midi": 60,
      "hit": false,
      "t": 183383.48620833323,
      "d": 12.931024999998044,
      "v": 126
    },
    {
      "midi": 60,
      "hit": false,
      "t": 183642.10670833322,
      "d": 49.56892916667857,
      "v": 127
    },
    {
      "midi": 40,
      "hit": false,
      "t": 183879.1754999997,
      "d": 107.75854166666977,
      "v": 110
    },
    {
      "midi": 64,
      "hit": false,
      "t": 183879.1754999997,
      "d": 127.15507916666684,
      "v": 117
    },
    {
      "midi": 60,
      "hit": false,
      "t": 183879.1754999997,
      "d": 135.77576250000857,
      "v": 110
    },
    {
      "midi": 55,
      "hit": false,
      "t": 183879.1754999997,
      "d": 140.08610416666488,
      "v": 114
    },
    {
      "midi": 60,
      "hit": false,
      "t": 183900.72720833324,
      "d": 21.551708333339775,
      "v": 118
    },
    {
      "midi": 26,
      "hit": false,
      "t": 184137.79599999968,
      "d": 127.15507916666684,
      "v": 108
    },
    {
      "midi": 62,
      "hit": false,
      "t": 184137.79599999968,
      "d": 172.41366666666,
      "v": 118
    },
    {
      "midi": 53,
      "hit": false,
      "t": 184137.79599999968,
      "d": 183.18952083331533,
      "v": 114
    },
    {
      "midi": 57,
      "hit": false,
      "t": 184137.79599999968,
      "d": 189.65503333331435,
      "v": 117
    },
    {
      "midi": 38,
      "hit": false,
      "t": 184137.79599999968,
      "d": 215.51708333331044,
      "v": 104
    },
    {
      "midi": 60,
      "hit": false,
      "t": 184159.34770833325,
      "d": 15.086195833340753,
      "v": 110
    },
    {
      "midi": 60,
      "hit": false,
      "t": 184417.96820833327,
      "d": 19.396537499997066,
      "v": 122
    },
    {
      "midi": 60,
      "hit": false,
      "t": 184676.58870833326,
      "d": 135.77576250000857,
      "v": 127
    },
    {
      "midi": 38,
      "hit": false,
      "t": 184913.65749999965,
      "d": 96.98268750001444,
      "v": 112
    },
    {
      "midi": 57,
      "hit": false,
      "t": 184913.65749999965,
      "d": 114.2240541666688,
      "v": 116
    },
    {
      "midi": 62,
      "hit": false,
      "t": 184913.65749999965,
      "d": 122.84473750001052,
      "v": 117
    },
    {
      "midi": 53,
      "hit": false,
      "t": 184913.65749999965,
      "d": 131.46542083335225,
      "v": 112
    },
    {
      "midi": 60,
      "hit": false,
      "t": 184935.20920833328,
      "d": 43.10341666667955,
      "v": 84
    },
    {
      "midi": 24,
      "hit": false,
      "t": 185172.27799999967,
      "d": 103.44820000001346,
      "v": 114
    },
    {
      "midi": 36,
      "hit": false,
      "t": 185172.27799999967,
      "d": 135.77576250000857,
      "v": 110
    },
    {
      "midi": 52,
      "hit": false,
      "t": 185172.27799999967,
      "d": 135.77576250000857,
      "v": 119
    },
    {
      "midi": 60,
      "hit": false,
      "t": 185172.27799999967,
      "d": 161.63781250000466,
      "v": 118
    },
    {
      "midi": 55,
      "hit": false,
      "t": 185172.27799999967,
      "d": 163.79298333334737,
      "v": 119
    },
    {
      "midi": 60,
      "hit": false,
      "t": 185193.8297083333,
      "d": 38.79307499999413,
      "v": 116
    },
    {
      "midi": 36,
      "hit": false,
      "t": 185430.8984999997,
      "d": 88.3620041666727,
      "v": 96
    },
    {
      "midi": 60,
      "hit": false,
      "t": 185430.8984999997,
      "d": 94.82751666667173,
      "v": 98
    },
    {
      "midi": 53,
      "hit": false,
      "t": 185430.8984999997,
      "d": 107.75854166666977,
      "v": 112
    },
    {
      "midi": 60,
      "hit": false,
      "t": 185452.4502083333,
      "d": 120.68956666666782,
      "v": 127
    },
    {
      "midi": 40,
      "hit": false,
      "t": 185689.51899999968,
      "d": 301.72391666664043,
      "v": 119
    },
    {
      "midi": 55,
      "hit": false,
      "t": 185689.51899999968,
      "d": 321.1204541666375,
      "v": 122
    },
    {
      "midi": 60,
      "hit": false,
      "t": 185689.51899999968,
      "d": 338.36182083329186,
      "v": 120
    },
    {
      "midi": 60,
      "hit": false,
      "t": 185711.07070833328,
      "d": 49.56892916667857,
      "v": 89
    },
    {
      "midi": 38,
      "hit": false,
      "t": 185948.13949999967,
      "d": 25.86204999999609,
      "v": 96
    },
    {
      "midi": 60,
      "hit": false,
      "t": 185969.6912083333,
      "d": 30.172391666652402,
      "v": 122
    },
    {
      "midi": 41,
      "hit": false,
      "t": 186206.75999999963,
      "d": 193.96537500002887,
      "v": 118
    },
    {
      "midi": 60,
      "hit": false,
      "t": 186206.75999999963,
      "d": 206.89640000002692,
      "v": 119
    },
    {
      "midi": 57,
      "hit": false,
      "t": 186206.75999999963,
      "d": 211.20674166668323,
      "v": 120
    },
    {
      "midi": 65,
      "hit": false,
      "t": 186206.75999999963,
      "d": 215.51708333333954,
      "v": 119
    },
    {
      "midi": 60,
      "hit": false,
      "t": 186228.3117083333,
      "d": 43.10341666667955,
      "v": 127
    },
    {
      "midi": 29,
      "hit": false,
      "t": 186336.07024999964,
      "d": 28.017220833338797,
      "v": 65
    },
    {
      "midi": 60,
      "hit": false,
      "t": 186486.9322083333,
      "d": 25.86204999999609,
      "v": 82
    },
    {
      "midi": 60,
      "hit": false,
      "t": 186745.5527083333,
      "d": 64.65512499999022,
      "v": 127
    },
    {
      "midi": 57,
      "hit": false,
      "t": 186982.62149999963,
      "d": 183.18952083334443,
      "v": 114
    },
    {
      "midi": 65,
      "hit": false,
      "t": 186982.62149999963,
      "d": 185.34469166668714,
      "v": 116
    },
    {
      "midi": 29,
      "hit": false,
      "t": 186982.62149999963,
      "d": 191.81020416668616,
      "v": 106
    },
    {
      "midi": 41,
      "hit": false,
      "t": 186982.62149999963,
      "d": 200.4308875000279,
      "v": 116
    },
    {
      "midi": 60,
      "hit": false,
      "t": 187004.1732083333,
      "d": 47.41375833333586,
      "v": 120
    },
    {
      "midi": 60,
      "hit": false,
      "t": 187111.93174999964,
      "d": 2.1551708333427086,
      "v": 108
    },
    {
      "midi": 28,
      "hit": false,
      "t": 187241.24199999965,
      "d": 107.75854166666977,
      "v": 114
    },
    {
      "midi": 64,
      "hit": false,
      "t": 187241.24199999965,
      "d": 185.34469166665804,
      "v": 116
    },
    {
      "midi": 55,
      "hit": false,
      "t": 187241.24199999965,
      "d": 187.49986250000075,
      "v": 116
    },
    {
      "midi": 40,
      "hit": false,
      "t": 187241.24199999965,
      "d": 189.65503333334345,
      "v": 110
    },
    {
      "midi": 60,
      "hit": false,
      "t": 187241.24199999965,
      "d": 209.05157083334052,
      "v": 114
    },
    {
      "midi": 60,
      "hit": false,
      "t": 187262.79370833328,
      "d": 45.258587499993155,
      "v": 127
    },
    {
      "midi": 60,
      "hit": false,
      "t": 187521.41420833327,
      "d": 17.241366666654358,
      "v": 110
    },
    {
      "midi": 60,
      "hit": false,
      "t": 187780.03470833326,
      "d": 51.72409999999218,
      "v": 127
    },
    {
      "midi": 28,
      "hit": false,
      "t": 188017.10349999965,
      "d": 64.65512499999022,
      "v": 100
    },
    {
      "midi": 64,
      "hit": false,
      "t": 188017.10349999965,
      "d": 99.13785833332804,
      "v": 108
    },
    {
      "midi": 60,
      "hit": false,
      "t": 188017.10349999965,
      "d": 105.60337083332706,
      "v": 106
    },
    {
      "midi": 55,
      "hit": false,
      "t": 188017.10349999965,
      "d": 116.3792249999824,
      "v": 110
    },
    {
      "midi": 40,
      "hit": false,
      "t": 188017.10349999965,
      "d": 120.68956666663871,
      "v": 104
    },
    {
      "midi": 60,
      "hit": false,
      "t": 188038.65520833325,
      "d": 19.396537499997066,
      "v": 78
    },
    {
      "midi": 53,
      "hit": false,
      "t": 188275.7239999996,
      "d": 142.2412750000076,
      "v": 118
    },
    {
      "midi": 62,
      "hit": false,
      "t": 188275.7239999996,
      "d": 170.2584958333464,
      "v": 118
    },
    {
      "midi": 57,
      "hit": false,
      "t": 188275.7239999996,
      "d": 181.03435000000172,
      "v": 120
    },
    {
      "midi": 38,
      "hit": false,
      "t": 188275.7239999996,
      "d": 196.12054583334248,
      "v": 119
    },
    {
      "midi": 60,
      "hit": false,
      "t": 188297.27570833324,
      "d": 40.94824583333684,
      "v": 108
    },
    {
      "midi": 62,
      "hit": false,
      "t": 188534.34449999963,
      "d": 64.65512499999022,
      "v": 88
    },
    {
      "midi": 40,
      "hit": false,
      "t": 188534.34449999963,
      "d": 79.74132083333097,
      "v": 110
    },
    {
      "midi": 55,
      "hit": false,
      "t": 188534.34449999963,
      "d": 96.98268749998533,
      "v": 112
    },
    {
      "midi": 59,
      "hit": false,
      "t": 188534.34449999963,
      "d": 101.29302916664165,
      "v": 108
    },
    {
      "midi": 60,
      "hit": false,
      "t": 188555.89620833323,
      "d": 25.86204999999609,
      "v": 88
    },
    {
      "midi": 41,
      "hit": false,
      "t": 188792.9649999996,
      "d": 342.6721625000064,
      "v": 118
    },
    {
      "midi": 62,
      "hit": false,
      "t": 188792.9649999996,
      "d": 344.8273333333491,
      "v": 119
    },
    {
      "midi": 57,
      "hit": false,
      "t": 188792.9649999996,
      "d": 366.37904166668886,
      "v": 122
    },
    {
      "midi": 60,
      "hit": false,
      "t": 188814.51670833322,
      "d": 53.879270833334886,
      "v": 127
    },
    {
      "midi": 24,
      "hit": false,
      "t": 189310.2059999996,
      "d": 64.65512499999022,
      "v": 114
    },
    {
      "midi": 36,
      "hit": false,
      "t": 189310.2059999996,
      "d": 77.58614999998827,
      "v": 117
    },
    {
      "midi": 52,
      "hit": false,
      "t": 189310.2059999996,
      "d": 120.68956666666782,
      "v": 119
    },
    {
      "midi": 55,
      "hit": false,
      "t": 189310.2059999996,
      "d": 124.99990833332413,
      "v": 119
    },
    {
      "midi": 60,
      "hit": false,
      "t": 189310.2059999996,
      "d": 127.15507916666684,
      "v": 119
    },
    {
      "midi": 60,
      "hit": false,
      "t": 189331.75770833323,
      "d": 32.32756249999511,
      "v": 98
    },
    {
      "midi": 26,
      "hit": false,
      "t": 189568.8264999996,
      "d": 60.34478333333391,
      "v": 104
    },
    {
      "midi": 38,
      "hit": false,
      "t": 189568.8264999996,
      "d": 75.43097916667466,
      "v": 112
    },
    {
      "midi": 53,
      "hit": false,
      "t": 189568.8264999996,
      "d": 96.98268750001444,
      "v": 108
    },
    {
      "midi": 57,
      "hit": false,
      "t": 189568.8264999996,
      "d": 101.29302916667075,
      "v": 110
    },
    {
      "midi": 62,
      "hit": false,
      "t": 189568.8264999996,
      "d": 103.44820000001346,
      "v": 108
    },
    {
      "midi": 60,
      "hit": false,
      "t": 189590.37820833322,
      "d": 176.7240083333454,
      "v": 127
    },
    {
      "midi": 62,
      "hit": false,
      "t": 189827.4469999996,
      "d": 170.2584958333464,
      "v": 110
    },
    {
      "midi": 28,
      "hit": false,
      "t": 189827.4469999996,
      "d": 282.3273791666725,
      "v": 106
    },
    {
      "midi": 40,
      "hit": false,
      "t": 189827.4469999996,
      "d": 293.1032333333278,
      "v": 117
    },
    {
      "midi": 55,
      "hit": false,
      "t": 189827.4469999996,
      "d": 301.72391666666954,
      "v": 119
    },
    {
      "midi": 64,
      "hit": false,
      "t": 189827.4469999996,
      "d": 303.87908750001225,
      "v": 110
    },
    {
      "midi": 59,
      "hit": false,
      "t": 189827.4469999996,
      "d": 306.03425833335496,
      "v": 119
    },
    {
      "midi": 60,
      "hit": false,
      "t": 189848.99870833324,
      "d": 49.56892916667857,
      "v": 92
    },
    {
      "midi": 60,
      "hit": false,
      "t": 190107.61920833326,
      "d": 105.60337083332706,
      "v": 127
    },
    {
      "midi": 29,
      "hit": false,
      "t": 190344.68799999962,
      "d": 168.10332500000368,
      "v": 106
    },
    {
      "midi": 65,
      "hit": false,
      "t": 190344.68799999962,
      "d": 193.96537499999977,
      "v": 116
    },
    {
      "midi": 57,
      "hit": false,
      "t": 190344.68799999962,
      "d": 196.12054583334248,
      "v": 114
    },
    {
      "midi": 60,
      "hit": false,
      "t": 190344.68799999962,
      "d": 202.5860583333415,
      "v": 110
    },
    {
      "midi": 41,
      "hit": false,
      "t": 190344.68799999962,
      "d": 237.06879166667932,
      "v": 110
    },
    {
      "midi": 60,
      "hit": false,
      "t": 190366.23970833325,
      "d": 68.96546666667564,
      "v": 127
    },
    {
      "midi": 60,
      "hit": false,
      "t": 190624.86020833327,
      "d": 49.56892916667857,
      "v": 106
    },
    {
      "midi": 60,
      "hit": false,
      "t": 190883.48070833329,
      "d": 71.12063749998924,
      "v": 127
    },
    {
      "midi": 41,
      "hit": false,
      "t": 191120.54949999962,
      "d": 107.75854166666977,
      "v": 116
    },
    {
      "midi": 65,
      "hit": false,
      "t": 191120.54949999962,
      "d": 150.86195833334932,
      "v": 112
    },
    {
      "midi": 57,
      "hit": false,
      "t": 191120.54949999962,
      "d": 155.17230000000563,
      "v": 116
    },
    {
      "midi": 60,
      "hit": false,
      "t": 191120.54949999962,
      "d": 170.2584958333464,
      "v": 112
    },
    {
      "midi": 60,
      "hit": false,
      "t": 191142.10120833328,
      "d": 40.94824583333684,
      "v": 103
    },
    {
      "midi": 55,
      "hit": false,
      "t": 191379.16999999963,
      "d": 176.7240083333454,
      "v": 116
    },
    {
      "midi": 28,
      "hit": false,
      "t": 191379.16999999963,
      "d": 181.03435000000172,
      "v": 114
    },
    {
      "midi": 64,
      "hit": false,
      "t": 191379.16999999963,
      "d": 183.18952083334443,
      "v": 116
    },
    {
      "midi": 60,
      "hit": false,
      "t": 191379.16999999963,
      "d": 202.5860583333415,
      "v": 112
    },
    {
      "midi": 40,
      "hit": false,
      "t": 191379.16999999963,
      "d": 217.67225416668225,
      "v": 102
    },
    {
      "midi": 60,
      "hit": false,
      "t": 191400.72170833327,
      "d": 19.396537499997066,
      "v": 116
    },
    {
      "midi": 60,
      "hit": false,
      "t": 191659.34220833326,
      "d": 12.931024999998044,
      "v": 126
    },
    {
      "midi": 60,
      "hit": false,
      "t": 191917.96270833325,
      "d": 49.56892916667857,
      "v": 127
    },
    {
      "midi": 40,
      "hit": false,
      "t": 192155.03149999966,
      "d": 107.75854166666977,
      "v": 110
    },
    {
      "midi": 64,
      "hit": false,
      "t": 192155.03149999966,
      "d": 127.15507916666684,
      "v": 117
    },
    {
      "midi": 60,
      "hit": false,
      "t": 192155.03149999966,
      "d": 135.77576250000857,
      "v": 110
    },
    {
      "midi": 55,
      "hit": false,
      "t": 192155.03149999966,
      "d": 140.08610416666488,
      "v": 114
    },
    {
      "midi": 60,
      "hit": false,
      "t": 192176.58320833326,
      "d": 21.551708333339775,
      "v": 118
    },
    {
      "midi": 26,
      "hit": false,
      "t": 192413.65199999965,
      "d": 127.15507916666684,
      "v": 108
    },
    {
      "midi": 62,
      "hit": false,
      "t": 192413.65199999965,
      "d": 172.41366666666,
      "v": 118
    },
    {
      "midi": 53,
      "hit": false,
      "t": 192413.65199999965,
      "d": 183.18952083331533,
      "v": 114
    },
    {
      "midi": 57,
      "hit": false,
      "t": 192413.65199999965,
      "d": 189.65503333331435,
      "v": 117
    },
    {
      "midi": 38,
      "hit": false,
      "t": 192413.65199999965,
      "d": 215.51708333331044,
      "v": 104
    },
    {
      "midi": 60,
      "hit": false,
      "t": 192435.20370833328,
      "d": 15.086195833340753,
      "v": 110
    },
    {
      "midi": 60,
      "hit": false,
      "t": 192693.8242083333,
      "d": 19.396537499997066,
      "v": 122
    },
    {
      "midi": 60,
      "hit": false,
      "t": 192952.4447083333,
      "d": 135.77576250000857,
      "v": 127
    },
    {
      "midi": 38,
      "hit": false,
      "t": 193189.51349999962,
      "d": 96.98268750001444,
      "v": 112
    },
    {
      "midi": 57,
      "hit": false,
      "t": 193189.51349999962,
      "d": 114.2240541666688,
      "v": 116
    },
    {
      "midi": 62,
      "hit": false,
      "t": 193189.51349999962,
      "d": 122.84473750001052,
      "v": 117
    },
    {
      "midi": 53,
      "hit": false,
      "t": 193189.51349999962,
      "d": 131.46542083335225,
      "v": 112
    },
    {
      "midi": 60,
      "hit": false,
      "t": 193211.0652083333,
      "d": 43.10341666667955,
      "v": 84
    },
    {
      "midi": 24,
      "hit": false,
      "t": 193448.13399999964,
      "d": 103.44820000001346,
      "v": 114
    },
    {
      "midi": 36,
      "hit": false,
      "t": 193448.13399999964,
      "d": 135.77576250000857,
      "v": 110
    },
    {
      "midi": 52,
      "hit": false,
      "t": 193448.13399999964,
      "d": 135.77576250000857,
      "v": 119
    },
    {
      "midi": 60,
      "hit": false,
      "t": 193448.13399999964,
      "d": 161.63781250000466,
      "v": 118
    },
    {
      "midi": 55,
      "hit": false,
      "t": 193448.13399999964,
      "d": 163.79298333334737,
      "v": 119
    },
    {
      "midi": 60,
      "hit": false,
      "t": 193469.68570833333,
      "d": 38.79307499999413,
      "v": 116
    },
    {
      "midi": 36,
      "hit": false,
      "t": 193706.75449999966,
      "d": 88.3620041666727,
      "v": 96
    },
    {
      "midi": 60,
      "hit": false,
      "t": 193706.75449999966,
      "d": 94.82751666667173,
      "v": 98
    },
    {
      "midi": 53,
      "hit": false,
      "t": 193706.75449999966,
      "d": 107.75854166666977,
      "v": 112
    },
    {
      "midi": 60,
      "hit": false,
      "t": 193728.30620833332,
      "d": 120.68956666666782,
      "v": 127
    },
    {
      "midi": 40,
      "hit": false,
      "t": 193965.37499999965,
      "d": 301.72391666664043,
      "v": 119
    },
    {
      "midi": 55,
      "hit": false,
      "t": 193965.37499999965,
      "d": 321.1204541666375,
      "v": 122
    },
    {
      "midi": 60,
      "hit": false,
      "t": 193965.37499999965,
      "d": 338.36182083329186,
      "v": 120
    },
    {
      "midi": 60,
      "hit": false,
      "t": 193986.9267083333,
      "d": 49.56892916667857,
      "v": 89
    },
    {
      "midi": 38,
      "hit": false,
      "t": 194223.99549999964,
      "d": 25.86204999999609,
      "v": 96
    },
    {
      "midi": 60,
      "hit": false,
      "t": 194245.54720833333,
      "d": 30.172391666652402,
      "v": 122
    },
    {
      "midi": 41,
      "hit": false,
      "t": 194482.6159999996,
      "d": 193.96537500002887,
      "v": 118
    },
    {
      "midi": 60,
      "hit": false,
      "t": 194482.6159999996,
      "d": 206.89640000002692,
      "v": 119
    },
    {
      "midi": 57,
      "hit": false,
      "t": 194482.6159999996,
      "d": 211.20674166668323,
      "v": 120
    },
    {
      "midi": 65,
      "hit": false,
      "t": 194482.6159999996,
      "d": 215.51708333333954,
      "v": 119
    },
    {
      "midi": 60,
      "hit": false,
      "t": 194504.16770833332,
      "d": 43.10341666667955,
      "v": 127
    },
    {
      "midi": 29,
      "hit": false,
      "t": 194611.9262499996,
      "d": 28.017220833338797,
      "v": 65
    },
    {
      "midi": 60,
      "hit": false,
      "t": 194762.78820833334,
      "d": 25.86204999999609,
      "v": 82
    },
    {
      "midi": 60,
      "hit": false,
      "t": 195021.40870833333,
      "d": 64.65512499999022,
      "v": 127
    },
    {
      "midi": 57,
      "hit": false,
      "t": 195258.4774999996,
      "d": 183.18952083334443,
      "v": 114
    },
    {
      "midi": 65,
      "hit": false,
      "t": 195258.4774999996,
      "d": 185.34469166668714,
      "v": 116
    },
    {
      "midi": 29,
      "hit": false,
      "t": 195258.4774999996,
      "d": 191.81020416668616,
      "v": 106
    },
    {
      "midi": 41,
      "hit": false,
      "t": 195258.4774999996,
      "d": 200.4308875000279,
      "v": 116
    },
    {
      "midi": 60,
      "hit": false,
      "t": 195280.02920833332,
      "d": 47.41375833333586,
      "v": 120
    },
    {
      "midi": 60,
      "hit": false,
      "t": 195387.7877499996,
      "d": 2.1551708333427086,
      "v": 108
    },
    {
      "midi": 28,
      "hit": false,
      "t": 195517.09799999962,
      "d": 107.75854166666977,
      "v": 114
    },
    {
      "midi": 64,
      "hit": false,
      "t": 195517.09799999962,
      "d": 185.34469166665804,
      "v": 116
    },
    {
      "midi": 55,
      "hit": false,
      "t": 195517.09799999962,
      "d": 187.49986250000075,
      "v": 116
    },
    {
      "midi": 40,
      "hit": false,
      "t": 195517.09799999962,
      "d": 189.65503333334345,
      "v": 110
    },
    {
      "midi": 60,
      "hit": false,
      "t": 195517.09799999962,
      "d": 209.05157083334052,
      "v": 114
    },
    {
      "midi": 60,
      "hit": false,
      "t": 195538.6497083333,
      "d": 45.258587499993155,
      "v": 127
    },
    {
      "midi": 60,
      "hit": false,
      "t": 195797.2702083333,
      "d": 17.241366666654358,
      "v": 110
    },
    {
      "midi": 60,
      "hit": false,
      "t": 196055.8907083333,
      "d": 51.72409999999218,
      "v": 127
    },
    {
      "midi": 28,
      "hit": false,
      "t": 196292.95949999962,
      "d": 64.65512499999022,
      "v": 100
    },
    {
      "midi": 64,
      "hit": false,
      "t": 196292.95949999962,
      "d": 99.13785833332804,
      "v": 108
    },
    {
      "midi": 60,
      "hit": false,
      "t": 196292.95949999962,
      "d": 105.60337083332706,
      "v": 106
    },
    {
      "midi": 55,
      "hit": false,
      "t": 196292.95949999962,
      "d": 116.3792249999824,
      "v": 110
    },
    {
      "midi": 40,
      "hit": false,
      "t": 196292.95949999962,
      "d": 120.68956666663871,
      "v": 104
    },
    {
      "midi": 60,
      "hit": false,
      "t": 196314.51120833328,
      "d": 19.396537499997066,
      "v": 78
    },
    {
      "midi": 53,
      "hit": false,
      "t": 196551.57999999958,
      "d": 142.2412750000076,
      "v": 118
    },
    {
      "midi": 62,
      "hit": false,
      "t": 196551.57999999958,
      "d": 170.2584958333464,
      "v": 118
    },
    {
      "midi": 57,
      "hit": false,
      "t": 196551.57999999958,
      "d": 181.03435000000172,
      "v": 120
    },
    {
      "midi": 38,
      "hit": false,
      "t": 196551.57999999958,
      "d": 196.12054583334248,
      "v": 119
    },
    {
      "midi": 60,
      "hit": false,
      "t": 196573.13170833327,
      "d": 40.94824583333684,
      "v": 108
    },
    {
      "midi": 62,
      "hit": false,
      "t": 196810.2004999996,
      "d": 64.65512499999022,
      "v": 88
    },
    {
      "midi": 40,
      "hit": false,
      "t": 196810.2004999996,
      "d": 79.74132083333097,
      "v": 110
    },
    {
      "midi": 55,
      "hit": false,
      "t": 196810.2004999996,
      "d": 96.98268749998533,
      "v": 112
    },
    {
      "midi": 59,
      "hit": false,
      "t": 196810.2004999996,
      "d": 101.29302916664165,
      "v": 108
    },
    {
      "midi": 60,
      "hit": false,
      "t": 196831.75220833326,
      "d": 25.86204999999609,
      "v": 88
    },
    {
      "midi": 41,
      "hit": false,
      "t": 197068.82099999956,
      "d": 342.6721625000064,
      "v": 118
    },
    {
      "midi": 62,
      "hit": false,
      "t": 197068.82099999956,
      "d": 344.8273333333491,
      "v": 119
    },
    {
      "midi": 57,
      "hit": false,
      "t": 197068.82099999956,
      "d": 366.37904166668886,
      "v": 122
    },
    {
      "midi": 60,
      "hit": false,
      "t": 197090.37270833325,
      "d": 53.879270833334886,
      "v": 127
    },
    {
      "midi": 24,
      "hit": false,
      "t": 197586.06199999957,
      "d": 64.65512499999022,
      "v": 114
    },
    {
      "midi": 36,
      "hit": false,
      "t": 197586.06199999957,
      "d": 77.58614999998827,
      "v": 117
    },
    {
      "midi": 52,
      "hit": false,
      "t": 197586.06199999957,
      "d": 120.68956666666782,
      "v": 119
    },
    {
      "midi": 55,
      "hit": false,
      "t": 197586.06199999957,
      "d": 124.99990833332413,
      "v": 119
    },
    {
      "midi": 60,
      "hit": false,
      "t": 197586.06199999957,
      "d": 127.15507916666684,
      "v": 119
    },
    {
      "midi": 60,
      "hit": false,
      "t": 197607.61370833326,
      "d": 32.32756249999511,
      "v": 98
    },
    {
      "midi": 26,
      "hit": false,
      "t": 197844.68249999956,
      "d": 60.34478333333391,
      "v": 104
    },
    {
      "midi": 38,
      "hit": false,
      "t": 197844.68249999956,
      "d": 75.43097916667466,
      "v": 112
    },
    {
      "midi": 53,
      "hit": false,
      "t": 197844.68249999956,
      "d": 96.98268750001444,
      "v": 108
    },
    {
      "midi": 57,
      "hit": false,
      "t": 197844.68249999956,
      "d": 101.29302916667075,
      "v": 110
    },
    {
      "midi": 62,
      "hit": false,
      "t": 197844.68249999956,
      "d": 103.44820000001346,
      "v": 108
    },
    {
      "midi": 60,
      "hit": false,
      "t": 197866.23420833325,
      "d": 176.7240083333454,
      "v": 127
    },
    {
      "midi": 62,
      "hit": false,
      "t": 198103.30299999958,
      "d": 170.2584958333464,
      "v": 110
    },
    {
      "midi": 28,
      "hit": false,
      "t": 198103.30299999958,
      "d": 282.3273791666725,
      "v": 106
    },
    {
      "midi": 40,
      "hit": false,
      "t": 198103.30299999958,
      "d": 293.1032333333278,
      "v": 117
    },
    {
      "midi": 55,
      "hit": false,
      "t": 198103.30299999958,
      "d": 301.72391666666954,
      "v": 119
    },
    {
      "midi": 64,
      "hit": false,
      "t": 198103.30299999958,
      "d": 303.87908750001225,
      "v": 110
    },
    {
      "midi": 59,
      "hit": false,
      "t": 198103.30299999958,
      "d": 306.03425833335496,
      "v": 119
    },
    {
      "midi": 60,
      "hit": false,
      "t": 198124.85470833327,
      "d": 49.56892916667857,
      "v": 92
    },
    {
      "midi": 60,
      "hit": false,
      "t": 198383.4752083333,
      "d": 105.60337083332706,
      "v": 127
    },
    {
      "midi": 29,
      "hit": false,
      "t": 198620.5439999996,
      "d": 168.10332500000368,
      "v": 106
    },
    {
      "midi": 65,
      "hit": false,
      "t": 198620.5439999996,
      "d": 193.96537499999977,
      "v": 116
    },
    {
      "midi": 57,
      "hit": false,
      "t": 198620.5439999996,
      "d": 196.12054583334248,
      "v": 114
    },
    {
      "midi": 60,
      "hit": false,
      "t": 198620.5439999996,
      "d": 202.5860583333415,
      "v": 110
    },
    {
      "midi": 41,
      "hit": false,
      "t": 198620.5439999996,
      "d": 237.06879166667932,
      "v": 110
    },
    {
      "midi": 60,
      "hit": false,
      "t": 198642.09570833328,
      "d": 68.96546666667564,
      "v": 127
    },
    {
      "midi": 60,
      "hit": false,
      "t": 198900.7162083333,
      "d": 49.56892916667857,
      "v": 106
    },
    {
      "midi": 60,
      "hit": false,
      "t": 199159.3367083333,
      "d": 71.12063749998924,
      "v": 127
    },
    {
      "midi": 41,
      "hit": false,
      "t": 199396.4054999996,
      "d": 107.75854166666977,
      "v": 116
    },
    {
      "midi": 65,
      "hit": false,
      "t": 199396.4054999996,
      "d": 150.86195833334932,
      "v": 112
    },
    {
      "midi": 57,
      "hit": false,
      "t": 199396.4054999996,
      "d": 155.17230000000563,
      "v": 116
    },
    {
      "midi": 60,
      "hit": false,
      "t": 199396.4054999996,
      "d": 170.2584958333464,
      "v": 112
    },
    {
      "midi": 60,
      "hit": false,
      "t": 199417.9572083333,
      "d": 40.94824583333684,
      "v": 103
    },
    {
      "midi": 55,
      "hit": false,
      "t": 199655.0259999996,
      "d": 176.7240083333454,
      "v": 116
    },
    {
      "midi": 28,
      "hit": false,
      "t": 199655.0259999996,
      "d": 181.03435000000172,
      "v": 114
    },
    {
      "midi": 64,
      "hit": false,
      "t": 199655.0259999996,
      "d": 183.18952083334443,
      "v": 116
    },
    {
      "midi": 60,
      "hit": false,
      "t": 199655.0259999996,
      "d": 202.5860583333415,
      "v": 112
    },
    {
      "midi": 40,
      "hit": false,
      "t": 199655.0259999996,
      "d": 217.67225416668225,
      "v": 102
    },
    {
      "midi": 60,
      "hit": false,
      "t": 199676.5777083333,
      "d": 19.396537499997066,
      "v": 116
    },
    {
      "midi": 60,
      "hit": false,
      "t": 199935.19820833328,
      "d": 12.931024999998044,
      "v": 126
    },
    {
      "midi": 60,
      "hit": false,
      "t": 200193.81870833327,
      "d": 49.56892916667857,
      "v": 127
    },
    {
      "midi": 40,
      "hit": false,
      "t": 200430.88749999963,
      "d": 107.75854166666977,
      "v": 110
    },
    {
      "midi": 64,
      "hit": false,
      "t": 200430.88749999963,
      "d": 127.15507916666684,
      "v": 117
    },
    {
      "midi": 60,
      "hit": false,
      "t": 200430.88749999963,
      "d": 135.77576250000857,
      "v": 110
    },
    {
      "midi": 55,
      "hit": false,
      "t": 200430.88749999963,
      "d": 140.08610416666488,
      "v": 114
    },
    {
      "midi": 60,
      "hit": false,
      "t": 200452.4392083333,
      "d": 21.551708333339775,
      "v": 118
    },
    {
      "midi": 26,
      "hit": false,
      "t": 200689.50799999962,
      "d": 127.15507916666684,
      "v": 108
    },
    {
      "midi": 62,
      "hit": false,
      "t": 200689.50799999962,
      "d": 172.41366666666,
      "v": 118
    },
    {
      "midi": 53,
      "hit": false,
      "t": 200689.50799999962,
      "d": 183.18952083331533,
      "v": 114
    },
    {
      "midi": 57,
      "hit": false,
      "t": 200689.50799999962,
      "d": 189.65503333331435,
      "v": 117
    },
    {
      "midi": 38,
      "hit": false,
      "t": 200689.50799999962,
      "d": 215.51708333331044,
      "v": 104
    },
    {
      "midi": 60,
      "hit": false,
      "t": 200711.0597083333,
      "d": 15.086195833340753,
      "v": 110
    },
    {
      "midi": 60,
      "hit": false,
      "t": 200969.68020833333,
      "d": 19.396537499997066,
      "v": 122
    },
    {
      "midi": 60,
      "hit": false,
      "t": 201228.30070833332,
      "d": 135.77576250000857,
      "v": 127
    },
    {
      "midi": 38,
      "hit": false,
      "t": 201465.3694999996,
      "d": 96.98268750001444,
      "v": 112
    },
    {
      "midi": 57,
      "hit": false,
      "t": 201465.3694999996,
      "d": 114.2240541666688,
      "v": 116
    },
    {
      "midi": 62,
      "hit": false,
      "t": 201465.3694999996,
      "d": 122.84473750001052,
      "v": 117
    },
    {
      "midi": 53,
      "hit": false,
      "t": 201465.3694999996,
      "d": 131.46542083335225,
      "v": 112
    },
    {
      "midi": 60,
      "hit": false,
      "t": 201486.92120833334,
      "d": 43.10341666667955,
      "v": 84
    },
    {
      "midi": 24,
      "hit": false,
      "t": 201723.9899999996,
      "d": 103.44820000001346,
      "v": 114
    },
    {
      "midi": 36,
      "hit": false,
      "t": 201723.9899999996,
      "d": 135.77576250000857,
      "v": 110
    },
    {
      "midi": 52,
      "hit": false,
      "t": 201723.9899999996,
      "d": 135.77576250000857,
      "v": 119
    },
    {
      "midi": 60,
      "hit": false,
      "t": 201723.9899999996,
      "d": 161.63781250000466,
      "v": 118
    },
    {
      "midi": 55,
      "hit": false,
      "t": 201723.9899999996,
      "d": 163.79298333334737,
      "v": 119
    },
    {
      "midi": 60,
      "hit": false,
      "t": 201745.54170833336,
      "d": 38.79307499999413,
      "v": 116
    },
    {
      "midi": 36,
      "hit": false,
      "t": 201982.61049999963,
      "d": 88.3620041666727,
      "v": 96
    },
    {
      "midi": 60,
      "hit": false,
      "t": 201982.61049999963,
      "d": 94.82751666667173,
      "v": 98
    },
    {
      "midi": 53,
      "hit": false,
      "t": 201982.61049999963,
      "d": 107.75854166666977,
      "v": 112
    },
    {
      "midi": 60,
      "hit": false,
      "t": 202004.16220833335,
      "d": 120.68956666666782,
      "v": 127
    },
    {
      "midi": 40,
      "hit": false,
      "t": 202241.23099999962,
      "d": 301.72391666664043,
      "v": 119
    },
    {
      "midi": 55,
      "hit": false,
      "t": 202241.23099999962,
      "d": 321.1204541666375,
      "v": 122
    },
    {
      "midi": 60,
      "hit": false,
      "t": 202241.23099999962,
      "d": 338.36182083329186,
      "v": 120
    },
    {
      "midi": 60,
      "hit": false,
      "t": 202262.78270833334,
      "d": 49.56892916667857,
      "v": 89
    },
    {
      "midi": 38,
      "hit": false,
      "t": 202499.8514999996,
      "d": 25.86204999999609,
      "v": 96
    },
    {
      "midi": 60,
      "hit": false,
      "t": 202521.40320833336,
      "d": 30.172391666652402,
      "v": 122
    },
    {
      "midi": 41,
      "hit": false,
      "t": 202758.47199999957,
      "d": 193.96537500002887,
      "v": 118
    },
    {
      "midi": 60,
      "hit": false,
      "t": 202758.47199999957,
      "d": 206.89640000002692,
      "v": 119
    },
    {
      "midi": 57,
      "hit": false,
      "t": 202758.47199999957,
      "d": 211.20674166668323,
      "v": 120
    },
    {
      "midi": 65,
      "hit": false,
      "t": 202758.47199999957,
      "d": 215.51708333333954,
      "v": 119
    },
    {
      "midi": 60,
      "hit": false,
      "t": 202780.02370833335,
      "d": 43.10341666667955,
      "v": 127
    },
    {
      "midi": 29,
      "hit": false,
      "t": 202887.78224999958,
      "d": 28.017220833338797,
      "v": 65
    },
    {
      "midi": 60,
      "hit": false,
      "t": 203038.64420833337,
      "d": 25.86204999999609,
      "v": 82
    },
    {
      "midi": 60,
      "hit": false,
      "t": 203297.26470833336,
      "d": 64.65512499999022,
      "v": 127
    },
    {
      "midi": 57,
      "hit": false,
      "t": 203534.33349999957,
      "d": 183.18952083334443,
      "v": 114
    },
    {
      "midi": 65,
      "hit": false,
      "t": 203534.33349999957,
      "d": 185.34469166668714,
      "v": 116
    },
    {
      "midi": 29,
      "hit": false,
      "t": 203534.33349999957,
      "d": 191.81020416668616,
      "v": 106
    },
    {
      "midi": 41,
      "hit": false,
      "t": 203534.33349999957,
      "d": 200.4308875000279,
      "v": 116
    },
    {
      "midi": 60,
      "hit": false,
      "t": 203555.88520833335,
      "d": 47.41375833333586,
      "v": 120
    },
    {
      "midi": 60,
      "hit": false,
      "t": 203663.64374999958,
      "d": 2.1551708333427086,
      "v": 108
    },
    {
      "midi": 28,
      "hit": false,
      "t": 203792.9539999996,
      "d": 107.75854166666977,
      "v": 114
    },
    {
      "midi": 64,
      "hit": false,
      "t": 203792.9539999996,
      "d": 185.34469166665804,
      "v": 116
    },
    {
      "midi": 55,
      "hit": false,
      "t": 203792.9539999996,
      "d": 187.49986250000075,
      "v": 116
    },
    {
      "midi": 40,
      "hit": false,
      "t": 203792.9539999996,
      "d": 189.65503333334345,
      "v": 110
    },
    {
      "midi": 60,
      "hit": false,
      "t": 203792.9539999996,
      "d": 209.05157083334052,
      "v": 114
    },
    {
      "midi": 60,
      "hit": false,
      "t": 203814.50570833334,
      "d": 45.258587499993155,
      "v": 127
    },
    {
      "midi": 60,
      "hit": false,
      "t": 204073.12620833333,
      "d": 17.241366666654358,
      "v": 110
    },
    {
      "midi": 60,
      "hit": false,
      "t": 204331.74670833332,
      "d": 51.72409999999218,
      "v": 127
    },
    {
      "midi": 28,
      "hit": false,
      "t": 204568.8154999996,
      "d": 64.65512499999022,
      "v": 100
    },
    {
      "midi": 64,
      "hit": false,
      "t": 204568.8154999996,
      "d": 99.13785833332804,
      "v": 108
    },
    {
      "midi": 60,
      "hit": false,
      "t": 204568.8154999996,
      "d": 105.60337083332706,
      "v": 106
    },
    {
      "midi": 55,
      "hit": false,
      "t": 204568.8154999996,
      "d": 116.3792249999824,
      "v": 110
    },
    {
      "midi": 40,
      "hit": false,
      "t": 204568.8154999996,
      "d": 120.68956666663871,
      "v": 104
    },
    {
      "midi": 60,
      "hit": false,
      "t": 204590.3672083333,
      "d": 19.396537499997066,
      "v": 78
    },
    {
      "midi": 53,
      "hit": false,
      "t": 204827.43599999955,
      "d": 142.2412750000076,
      "v": 118
    },
    {
      "midi": 62,
      "hit": false,
      "t": 204827.43599999955,
      "d": 170.2584958333464,
      "v": 118
    },
    {
      "midi": 57,
      "hit": false,
      "t": 204827.43599999955,
      "d": 181.03435000000172,
      "v": 120
    },
    {
      "midi": 38,
      "hit": false,
      "t": 204827.43599999955,
      "d": 196.12054583334248,
      "v": 119
    },
    {
      "midi": 60,
      "hit": false,
      "t": 204848.9877083333,
      "d": 40.94824583333684,
      "v": 108
    },
    {
      "midi": 62,
      "hit": false,
      "t": 205086.05649999957,
      "d": 64.65512499999022,
      "v": 88
    },
    {
      "midi": 40,
      "hit": false,
      "t": 205086.05649999957,
      "d": 79.74132083333097,
      "v": 110
    },
    {
      "midi": 55,
      "hit": false,
      "t": 205086.05649999957,
      "d": 96.98268749998533,
      "v": 112
    },
    {
      "midi": 59,
      "hit": false,
      "t": 205086.05649999957,
      "d": 101.29302916664165,
      "v": 108
    },
    {
      "midi": 60,
      "hit": false,
      "t": 205107.6082083333,
      "d": 25.86204999999609,
      "v": 88
    },
    {
      "midi": 41,
      "hit": false,
      "t": 205344.67699999953,
      "d": 342.6721625000064,
      "v": 118
    },
    {
      "midi": 62,
      "hit": false,
      "t": 205344.67699999953,
      "d": 344.8273333333491,
      "v": 119
    },
    {
      "midi": 57,
      "hit": false,
      "t": 205344.67699999953,
      "d": 366.37904166668886,
      "v": 122
    },
    {
      "midi": 60,
      "hit": false,
      "t": 205366.22870833328,
      "d": 53.879270833334886,
      "v": 127
    },
    {
      "midi": 24,
      "hit": false,
      "t": 205861.91799999954,
      "d": 64.65512499999022,
      "v": 114
    },
    {
      "midi": 36,
      "hit": false,
      "t": 205861.91799999954,
      "d": 77.58614999998827,
      "v": 117
    },
    {
      "midi": 52,
      "hit": false,
      "t": 205861.91799999954,
      "d": 120.68956666666782,
      "v": 119
    },
    {
      "midi": 55,
      "hit": false,
      "t": 205861.91799999954,
      "d": 124.99990833332413,
      "v": 119
    },
    {
      "midi": 60,
      "hit": false,
      "t": 205861.91799999954,
      "d": 127.15507916666684,
      "v": 119
    },
    {
      "midi": 60,
      "hit": false,
      "t": 205883.4697083333,
      "d": 32.32756249999511,
      "v": 98
    },
    {
      "midi": 26,
      "hit": false,
      "t": 206120.53849999953,
      "d": 60.34478333333391,
      "v": 104
    },
    {
      "midi": 38,
      "hit": false,
      "t": 206120.53849999953,
      "d": 75.43097916667466,
      "v": 112
    },
    {
      "midi": 53,
      "hit": false,
      "t": 206120.53849999953,
      "d": 96.98268750001444,
      "v": 108
    },
    {
      "midi": 57,
      "hit": false,
      "t": 206120.53849999953,
      "d": 101.29302916667075,
      "v": 110
    },
    {
      "midi": 62,
      "hit": false,
      "t": 206120.53849999953,
      "d": 103.44820000001346,
      "v": 108
    },
    {
      "midi": 60,
      "hit": false,
      "t": 206142.09020833328,
      "d": 176.7240083333454,
      "v": 127
    },
    {
      "midi": 62,
      "hit": false,
      "t": 206379.15899999955,
      "d": 170.2584958333464,
      "v": 110
    },
    {
      "midi": 28,
      "hit": false,
      "t": 206379.15899999955,
      "d": 282.3273791666725,
      "v": 106
    },
    {
      "midi": 40,
      "hit": false,
      "t": 206379.15899999955,
      "d": 293.1032333333278,
      "v": 117
    },
    {
      "midi": 55,
      "hit": false,
      "t": 206379.15899999955,
      "d": 301.72391666666954,
      "v": 119
    },
    {
      "midi": 64,
      "hit": false,
      "t": 206379.15899999955,
      "d": 303.87908750001225,
      "v": 110
    },
    {
      "midi": 59,
      "hit": false,
      "t": 206379.15899999955,
      "d": 306.03425833335496,
      "v": 119
    },
    {
      "midi": 60,
      "hit": false,
      "t": 206400.7107083333,
      "d": 49.56892916667857,
      "v": 92
    },
    {
      "midi": 60,
      "hit": false,
      "t": 206659.33120833331,
      "d": 105.60337083332706,
      "v": 127
    },
    {
      "midi": 29,
      "hit": false,
      "t": 206896.39999999956,
      "d": 168.10332500000368,
      "v": 106
    },
    {
      "midi": 65,
      "hit": false,
      "t": 206896.39999999956,
      "d": 193.96537499999977,
      "v": 116
    },
    {
      "midi": 57,
      "hit": false,
      "t": 206896.39999999956,
      "d": 196.12054583334248,
      "v": 114
    },
    {
      "midi": 60,
      "hit": false,
      "t": 206896.39999999956,
      "d": 202.5860583333415,
      "v": 110
    },
    {
      "midi": 41,
      "hit": false,
      "t": 206896.39999999956,
      "d": 237.06879166667932,
      "v": 110
    },
    {
      "midi": 60,
      "hit": false,
      "t": 206917.9517083333,
      "d": 68.96546666667564,
      "v": 127
    },
    {
      "midi": 60,
      "hit": false,
      "t": 207176.57220833332,
      "d": 49.56892916667857,
      "v": 106
    },
    {
      "midi": 60,
      "hit": false,
      "t": 207435.19270833334,
      "d": 71.12063749998924,
      "v": 127
    },
    {
      "midi": 41,
      "hit": false,
      "t": 207672.26149999956,
      "d": 107.75854166666977,
      "v": 116
    },
    {
      "midi": 65,
      "hit": false,
      "t": 207672.26149999956,
      "d": 150.86195833334932,
      "v": 112
    },
    {
      "midi": 57,
      "hit": false,
      "t": 207672.26149999956,
      "d": 155.17230000000563,
      "v": 116
    },
    {
      "midi": 60,
      "hit": false,
      "t": 207672.26149999956,
      "d": 170.2584958333464,
      "v": 112
    },
    {
      "midi": 60,
      "hit": false,
      "t": 207693.81320833333,
      "d": 40.94824583333684,
      "v": 103
    },
    {
      "midi": 55,
      "hit": false,
      "t": 207930.88199999958,
      "d": 176.7240083333454,
      "v": 116
    },
    {
      "midi": 28,
      "hit": false,
      "t": 207930.88199999958,
      "d": 181.03435000000172,
      "v": 114
    },
    {
      "midi": 64,
      "hit": false,
      "t": 207930.88199999958,
      "d": 183.18952083334443,
      "v": 116
    },
    {
      "midi": 60,
      "hit": false,
      "t": 207930.88199999958,
      "d": 202.5860583333415,
      "v": 112
    },
    {
      "midi": 40,
      "hit": false,
      "t": 207930.88199999958,
      "d": 217.67225416668225,
      "v": 102
    },
    {
      "midi": 60,
      "hit": false,
      "t": 207952.43370833332,
      "d": 19.396537499997066,
      "v": 116
    },
    {
      "midi": 60,
      "hit": false,
      "t": 208211.0542083333,
      "d": 12.931024999998044,
      "v": 126
    },
    {
      "midi": 60,
      "hit": false,
      "t": 208469.6747083333,
      "d": 49.56892916667857,
      "v": 127
    },
    {
      "midi": 40,
      "hit": false,
      "t": 208706.7434999996,
      "d": 107.75854166666977,
      "v": 110
    },
    {
      "midi": 64,
      "hit": false,
      "t": 208706.7434999996,
      "d": 127.15507916666684,
      "v": 117
    },
    {
      "midi": 60,
      "hit": false,
      "t": 208706.7434999996,
      "d": 135.77576250000857,
      "v": 110
    },
    {
      "midi": 55,
      "hit": false,
      "t": 208706.7434999996,
      "d": 140.08610416666488,
      "v": 114
    },
    {
      "midi": 60,
      "hit": false,
      "t": 208728.29520833332,
      "d": 21.551708333339775,
      "v": 118
    },
    {
      "midi": 26,
      "hit": false,
      "t": 208965.3639999996,
      "d": 127.15507916666684,
      "v": 108
    },
    {
      "midi": 62,
      "hit": false,
      "t": 208965.3639999996,
      "d": 172.41366666666,
      "v": 118
    },
    {
      "midi": 53,
      "hit": false,
      "t": 208965.3639999996,
      "d": 183.18952083331533,
      "v": 114
    },
    {
      "midi": 57,
      "hit": false,
      "t": 208965.3639999996,
      "d": 189.65503333331435,
      "v": 117
    },
    {
      "midi": 38,
      "hit": false,
      "t": 208965.3639999996,
      "d": 215.51708333331044,
      "v": 104
    },
    {
      "midi": 60,
      "hit": false,
      "t": 208986.91570833334,
      "d": 15.086195833340753,
      "v": 110
    },
    {
      "midi": 60,
      "hit": false,
      "t": 209245.53620833336,
      "d": 19.396537499997066,
      "v": 122
    },
    {
      "midi": 60,
      "hit": false,
      "t": 209504.15670833335,
      "d": 135.77576250000857,
      "v": 127
    },
    {
      "midi": 38,
      "hit": false,
      "t": 209741.22549999956,
      "d": 96.98268750001444,
      "v": 112
    },
    {
      "midi": 57,
      "hit": false,
      "t": 209741.22549999956,
      "d": 114.2240541666688,
      "v": 116
    },
    {
      "midi": 62,
      "hit": false,
      "t": 209741.22549999956,
      "d": 122.84473750001052,
      "v": 117
    },
    {
      "midi": 53,
      "hit": false,
      "t": 209741.22549999956,
      "d": 131.46542083335225,
      "v": 112
    },
    {
      "midi": 60,
      "hit": false,
      "t": 209762.77720833337,
      "d": 43.10341666667955,
      "v": 84
    },
    {
      "midi": 24,
      "hit": false,
      "t": 209999.84599999958,
      "d": 103.44820000001346,
      "v": 114
    },
    {
      "midi": 36,
      "hit": false,
      "t": 209999.84599999958,
      "d": 135.77576250000857,
      "v": 110
    },
    {
      "midi": 52,
      "hit": false,
      "t": 209999.84599999958,
      "d": 135.77576250000857,
      "v": 119
    },
    {
      "midi": 60,
      "hit": false,
      "t": 209999.84599999958,
      "d": 161.63781250000466,
      "v": 118
    },
    {
      "midi": 55,
      "hit": false,
      "t": 209999.84599999958,
      "d": 163.79298333334737,
      "v": 119
    },
    {
      "midi": 60,
      "hit": false,
      "t": 210021.3977083334,
      "d": 38.79307499999413,
      "v": 116
    },
    {
      "midi": 36,
      "hit": false,
      "t": 210258.4664999996,
      "d": 88.3620041666727,
      "v": 96
    },
    {
      "midi": 60,
      "hit": false,
      "t": 210258.4664999996,
      "d": 94.82751666667173,
      "v": 98
    },
    {
      "midi": 53,
      "hit": false,
      "t": 210258.4664999996,
      "d": 107.75854166666977,
      "v": 112
    },
    {
      "midi": 60,
      "hit": false,
      "t": 210280.01820833338,
      "d": 120.68956666666782,
      "v": 127
    },
    {
      "midi": 40,
      "hit": false,
      "t": 210517.0869999996,
      "d": 301.72391666664043,
      "v": 119
    },
    {
      "midi": 55,
      "hit": false,
      "t": 210517.0869999996,
      "d": 321.1204541666375,
      "v": 122
    },
    {
      "midi": 60,
      "hit": false,
      "t": 210517.0869999996,
      "d": 338.36182083329186,
      "v": 120
    },
    {
      "midi": 60,
      "hit": false,
      "t": 210538.63870833337,
      "d": 49.56892916667857,
      "v": 89
    },
    {
      "midi": 38,
      "hit": false,
      "t": 210775.70749999958,
      "d": 25.86204999999609,
      "v": 96
    },
    {
      "midi": 60,
      "hit": false,
      "t": 210797.2592083334,
      "d": 30.172391666652402,
      "v": 122
    },
    {
      "midi": 41,
      "hit": false,
      "t": 211034.32799999954,
      "d": 193.96537500002887,
      "v": 118
    },
    {
      "midi": 60,
      "hit": false,
      "t": 211034.32799999954,
      "d": 206.89640000002692,
      "v": 119
    },
    {
      "midi": 57,
      "hit": false,
      "t": 211034.32799999954,
      "d": 211.20674166668323,
      "v": 120
    },
    {
      "midi": 65,
      "hit": false,
      "t": 211034.32799999954,
      "d": 215.51708333333954,
      "v": 119
    },
    {
      "midi": 60,
      "hit": false,
      "t": 211055.87970833338,
      "d": 43.10341666667955,
      "v": 127
    },
    {
      "midi": 29,
      "hit": false,
      "t": 211163.63824999955,
      "d": 28.017220833338797,
      "v": 65
    },
    {
      "midi": 60,
      "hit": false,
      "t": 211314.5002083334,
      "d": 25.86204999999609,
      "v": 82
    },
    {
      "midi": 60,
      "hit": false,
      "t": 211573.1207083334,
      "d": 64.65512499999022,
      "v": 127
    },
    {
      "midi": 57,
      "hit": false,
      "t": 211810.18949999954,
      "d": 183.18952083334443,
      "v": 114
    },
    {
      "midi": 65,
      "hit": false,
      "t": 211810.18949999954,
      "d": 185.34469166668714,
      "v": 116
    },
    {
      "midi": 29,
      "hit": false,
      "t": 211810.18949999954,
      "d": 191.81020416668616,
      "v": 106
    },
    {
      "midi": 41,
      "hit": false,
      "t": 211810.18949999954,
      "d": 200.4308875000279,
      "v": 116
    },
    {
      "midi": 60,
      "hit": false,
      "t": 211831.74120833338,
      "d": 47.41375833333586,
      "v": 120
    },
    {
      "midi": 60,
      "hit": false,
      "t": 211939.49974999955,
      "d": 2.1551708333427086,
      "v": 108
    },
    {
      "midi": 28,
      "hit": false,
      "t": 212068.80999999956,
      "d": 107.75854166666977,
      "v": 114
    },
    {
      "midi": 64,
      "hit": false,
      "t": 212068.80999999956,
      "d": 185.34469166665804,
      "v": 116
    },
    {
      "midi": 55,
      "hit": false,
      "t": 212068.80999999956,
      "d": 187.49986250000075,
      "v": 116
    },
    {
      "midi": 40,
      "hit": false,
      "t": 212068.80999999956,
      "d": 189.65503333334345,
      "v": 110
    },
    {
      "midi": 60,
      "hit": false,
      "t": 212068.80999999956,
      "d": 209.05157083334052,
      "v": 114
    },
    {
      "midi": 60,
      "hit": false,
      "t": 212090.36170833337,
      "d": 45.258587499993155,
      "v": 127
    },
    {
      "midi": 60,
      "hit": false,
      "t": 212348.98220833336,
      "d": 17.241366666654358,
      "v": 110
    },
    {
      "midi": 60,
      "hit": false,
      "t": 212607.60270833335,
      "d": 51.72409999999218,
      "v": 127
    },
    {
      "midi": 28,
      "hit": false,
      "t": 212844.67149999956,
      "d": 64.65512499999022,
      "v": 100
    },
    {
      "midi": 64,
      "hit": false,
      "t": 212844.67149999956,
      "d": 99.13785833332804,
      "v": 108
    },
    {
      "midi": 60,
      "hit": false,
      "t": 212844.67149999956,
      "d": 105.60337083332706,
      "v": 106
    },
    {
      "midi": 55,
      "hit": false,
      "t": 212844.67149999956,
      "d": 116.3792249999824,
      "v": 110
    },
    {
      "midi": 40,
      "hit": false,
      "t": 212844.67149999956,
      "d": 120.68956666663871,
      "v": 104
    },
    {
      "midi": 60,
      "hit": false,
      "t": 212866.22320833334,
      "d": 19.396537499997066,
      "v": 78
    },
    {
      "midi": 53,
      "hit": false,
      "t": 213103.29199999952,
      "d": 142.2412750000076,
      "v": 118
    },
    {
      "midi": 62,
      "hit": false,
      "t": 213103.29199999952,
      "d": 170.2584958333464,
      "v": 118
    },
    {
      "midi": 57,
      "hit": false,
      "t": 213103.29199999952,
      "d": 181.03435000000172,
      "v": 120
    },
    {
      "midi": 38,
      "hit": false,
      "t": 213103.29199999952,
      "d": 196.12054583334248,
      "v": 119
    },
    {
      "midi": 60,
      "hit": false,
      "t": 213124.84370833333,
      "d": 40.94824583333684,
      "v": 108
    },
    {
      "midi": 62,
      "hit": false,
      "t": 213361.91249999954,
      "d": 64.65512499999022,
      "v": 88
    },
    {
      "midi": 40,
      "hit": false,
      "t": 213361.91249999954,
      "d": 79.74132083333097,
      "v": 110
    },
    {
      "midi": 55,
      "hit": false,
      "t": 213361.91249999954,
      "d": 96.98268749998533,
      "v": 112
    },
    {
      "midi": 59,
      "hit": false,
      "t": 213361.91249999954,
      "d": 101.29302916664165,
      "v": 108
    },
    {
      "midi": 60,
      "hit": false,
      "t": 213383.46420833332,
      "d": 25.86204999999609,
      "v": 88
    },
    {
      "midi": 41,
      "hit": false,
      "t": 213620.5329999995,
      "d": 342.6721625000064,
      "v": 118
    },
    {
      "midi": 62,
      "hit": false,
      "t": 213620.5329999995,
      "d": 344.8273333333491,
      "v": 119
    },
    {
      "midi": 57,
      "hit": false,
      "t": 213620.5329999995,
      "d": 366.37904166668886,
      "v": 122
    },
    {
      "midi": 60,
      "hit": false,
      "t": 213642.0847083333,
      "d": 53.879270833334886,
      "v": 127
    },
    {
      "midi": 24,
      "hit": false,
      "t": 214137.7739999995,
      "d": 64.65512499999022,
      "v": 114
    },
    {
      "midi": 36,
      "hit": false,
      "t": 214137.7739999995,
      "d": 77.58614999998827,
      "v": 117
    },
    {
      "midi": 52,
      "hit": false,
      "t": 214137.7739999995,
      "d": 120.68956666666782,
      "v": 119
    },
    {
      "midi": 55,
      "hit": false,
      "t": 214137.7739999995,
      "d": 124.99990833332413,
      "v": 119
    },
    {
      "midi": 60,
      "hit": false,
      "t": 214137.7739999995,
      "d": 127.15507916666684,
      "v": 119
    },
    {
      "midi": 60,
      "hit": false,
      "t": 214159.32570833332,
      "d": 32.32756249999511,
      "v": 98
    },
    {
      "midi": 26,
      "hit": false,
      "t": 214396.3944999995,
      "d": 60.34478333333391,
      "v": 104
    },
    {
      "midi": 38,
      "hit": false,
      "t": 214396.3944999995,
      "d": 75.43097916667466,
      "v": 112
    },
    {
      "midi": 53,
      "hit": false,
      "t": 214396.3944999995,
      "d": 96.98268750001444,
      "v": 108
    },
    {
      "midi": 57,
      "hit": false,
      "t": 214396.3944999995,
      "d": 101.29302916667075,
      "v": 110
    },
    {
      "midi": 62,
      "hit": false,
      "t": 214396.3944999995,
      "d": 103.44820000001346,
      "v": 108
    },
    {
      "midi": 60,
      "hit": false,
      "t": 214417.9462083333,
      "d": 176.7240083333454,
      "v": 127
    },
    {
      "midi": 62,
      "hit": false,
      "t": 214655.01499999952,
      "d": 170.2584958333464,
      "v": 110
    },
    {
      "midi": 28,
      "hit": false,
      "t": 214655.01499999952,
      "d": 282.3273791666725,
      "v": 106
    },
    {
      "midi": 40,
      "hit": false,
      "t": 214655.01499999952,
      "d": 293.1032333333278,
      "v": 117
    },
    {
      "midi": 55,
      "hit": false,
      "t": 214655.01499999952,
      "d": 301.72391666666954,
      "v": 119
    },
    {
      "midi": 64,
      "hit": false,
      "t": 214655.01499999952,
      "d": 303.87908750001225,
      "v": 110
    },
    {
      "midi": 59,
      "hit": false,
      "t": 214655.01499999952,
      "d": 306.03425833335496,
      "v": 119
    },
    {
      "midi": 60,
      "hit": false,
      "t": 214676.56670833332,
      "d": 49.56892916667857,
      "v": 92
    },
    {
      "midi": 60,
      "hit": false,
      "t": 214935.18720833334,
      "d": 105.60337083332706,
      "v": 127
    },
    {
      "midi": 29,
      "hit": false,
      "t": 215172.25599999953,
      "d": 168.10332500000368,
      "v": 106
    },
    {
      "midi": 65,
      "hit": false,
      "t": 215172.25599999953,
      "d": 193.96537499999977,
      "v": 116
    },
    {
      "midi": 57,
      "hit": false,
      "t": 215172.25599999953,
      "d": 196.12054583334248,
      "v": 114
    },
    {
      "midi": 60,
      "hit": false,
      "t": 215172.25599999953,
      "d": 202.5860583333415,
      "v": 110
    },
    {
      "midi": 41,
      "hit": false,
      "t": 215172.25599999953,
      "d": 237.06879166667932,
      "v": 110
    },
    {
      "midi": 60,
      "hit": false,
      "t": 215193.80770833333,
      "d": 68.96546666667564,
      "v": 127
    },
    {
      "midi": 60,
      "hit": false,
      "t": 215452.42820833335,
      "d": 49.56892916667857,
      "v": 106
    },
    {
      "midi": 60,
      "hit": false,
      "t": 215711.04870833337,
      "d": 71.12063749998924,
      "v": 127
    },
    {
      "midi": 41,
      "hit": false,
      "t": 215948.11749999953,
      "d": 107.75854166666977,
      "v": 116
    },
    {
      "midi": 65,
      "hit": false,
      "t": 215948.11749999953,
      "d": 150.86195833334932,
      "v": 112
    },
    {
      "midi": 57,
      "hit": false,
      "t": 215948.11749999953,
      "d": 155.17230000000563,
      "v": 116
    },
    {
      "midi": 60,
      "hit": false,
      "t": 215948.11749999953,
      "d": 170.2584958333464,
      "v": 112
    },
    {
      "midi": 60,
      "hit": false,
      "t": 215969.66920833336,
      "d": 40.94824583333684,
      "v": 103
    },
    {
      "midi": 55,
      "hit": false,
      "t": 216206.73799999955,
      "d": 176.7240083333454,
      "v": 116
    },
    {
      "midi": 28,
      "hit": false,
      "t": 216206.73799999955,
      "d": 181.03435000000172,
      "v": 114
    },
    {
      "midi": 64,
      "hit": false,
      "t": 216206.73799999955,
      "d": 183.18952083334443,
      "v": 116
    },
    {
      "midi": 60,
      "hit": false,
      "t": 216206.73799999955,
      "d": 202.5860583333415,
      "v": 112
    },
    {
      "midi": 40,
      "hit": false,
      "t": 216206.73799999955,
      "d": 217.67225416668225,
      "v": 102
    },
    {
      "midi": 60,
      "hit": false,
      "t": 216228.28970833335,
      "d": 19.396537499997066,
      "v": 116
    },
    {
      "midi": 60,
      "hit": false,
      "t": 216486.91020833334,
      "d": 12.931024999998044,
      "v": 126
    },
    {
      "midi": 60,
      "hit": false,
      "t": 216745.53070833333,
      "d": 49.56892916667857,
      "v": 127
    },
    {
      "midi": 40,
      "hit": false,
      "t": 216982.59949999957,
      "d": 107.75854166666977,
      "v": 110
    },
    {
      "midi": 64,
      "hit": false,
      "t": 216982.59949999957,
      "d": 127.15507916666684,
      "v": 117
    },
    {
      "midi": 60,
      "hit": false,
      "t": 216982.59949999957,
      "d": 135.77576250000857,
      "v": 110
    },
    {
      "midi": 55,
      "hit": false,
      "t": 216982.59949999957,
      "d": 140.08610416666488,
      "v": 114
    },
    {
      "midi": 60,
      "hit": false,
      "t": 217004.15120833335,
      "d": 21.551708333339775,
      "v": 118
    },
    {
      "midi": 26,
      "hit": false,
      "t": 217241.21999999956,
      "d": 127.15507916666684,
      "v": 108
    },
    {
      "midi": 62,
      "hit": false,
      "t": 217241.21999999956,
      "d": 172.41366666666,
      "v": 118
    },
    {
      "midi": 53,
      "hit": false,
      "t": 217241.21999999956,
      "d": 183.18952083331533,
      "v": 114
    },
    {
      "midi": 57,
      "hit": false,
      "t": 217241.21999999956,
      "d": 189.65503333331435,
      "v": 117
    },
    {
      "midi": 38,
      "hit": false,
      "t": 217241.21999999956,
      "d": 215.51708333331044,
      "v": 104
    },
    {
      "midi": 60,
      "hit": false,
      "t": 217262.77170833337,
      "d": 15.086195833340753,
      "v": 110
    },
    {
      "midi": 60,
      "hit": false,
      "t": 217521.3922083334,
      "d": 19.396537499997066,
      "v": 122
    },
    {
      "midi": 60,
      "hit": false,
      "t": 217780.01270833338,
      "d": 135.77576250000857,
      "v": 127
    },
    {
      "midi": 38,
      "hit": false,
      "t": 218017.08149999953,
      "d": 96.98268750001444,
      "v": 112
    },
    {
      "midi": 57,
      "hit": false,
      "t": 218017.08149999953,
      "d": 114.2240541666688,
      "v": 116
    },
    {
      "midi": 62,
      "hit": false,
      "t": 218017.08149999953,
      "d": 122.84473750001052,
      "v": 117
    },
    {
      "midi": 53,
      "hit": false,
      "t": 218017.08149999953,
      "d": 131.46542083335225,
      "v": 112
    },
    {
      "midi": 60,
      "hit": false,
      "t": 218038.6332083334,
      "d": 43.10341666667955,
      "v": 84
    },
    {
      "midi": 24,
      "hit": false,
      "t": 218275.70199999955,
      "d": 103.44820000001346,
      "v": 114
    },
    {
      "midi": 36,
      "hit": false,
      "t": 218275.70199999955,
      "d": 135.77576250000857,
      "v": 110
    },
    {
      "midi": 52,
      "hit": false,
      "t": 218275.70199999955,
      "d": 135.77576250000857,
      "v": 119
    },
    {
      "midi": 60,
      "hit": false,
      "t": 218275.70199999955,
      "d": 161.63781250000466,
      "v": 118
    },
    {
      "midi": 55,
      "hit": false,
      "t": 218275.70199999955,
      "d": 163.79298333334737,
      "v": 119
    },
    {
      "midi": 60,
      "hit": false,
      "t": 218297.25370833342,
      "d": 38.79307499999413,
      "v": 116
    },
    {
      "midi": 36,
      "hit": false,
      "t": 218534.32249999957,
      "d": 88.3620041666727,
      "v": 96
    },
    {
      "midi": 60,
      "hit": false,
      "t": 218534.32249999957,
      "d": 94.82751666667173,
      "v": 98
    },
    {
      "midi": 53,
      "hit": false,
      "t": 218534.32249999957,
      "d": 107.75854166666977,
      "v": 112
    },
    {
      "midi": 60,
      "hit": false,
      "t": 218555.8742083334,
      "d": 120.68956666666782,
      "v": 127
    },
    {
      "midi": 40,
      "hit": false,
      "t": 218792.94299999956,
      "d": 301.72391666664043,
      "v": 119
    },
    {
      "midi": 55,
      "hit": false,
      "t": 218792.94299999956,
      "d": 321.1204541666375,
      "v": 122
    },
    {
      "midi": 60,
      "hit": false,
      "t": 218792.94299999956,
      "d": 338.36182083329186,
      "v": 120
    },
    {
      "midi": 60,
      "hit": false,
      "t": 218814.4947083334,
      "d": 49.56892916667857,
      "v": 89
    },
    {
      "midi": 38,
      "hit": false,
      "t": 219051.56349999955,
      "d": 25.86204999999609,
      "v": 96
    },
    {
      "midi": 60,
      "hit": false,
      "t": 219073.11520833342,
      "d": 30.172391666652402,
      "v": 122
    },
    {
      "midi": 41,
      "hit": false,
      "t": 219310.1839999995,
      "d": 193.96537500002887,
      "v": 118
    },
    {
      "midi": 60,
      "hit": false,
      "t": 219310.1839999995,
      "d": 206.89640000002692,
      "v": 119
    },
    {
      "midi": 57,
      "hit": false,
      "t": 219310.1839999995,
      "d": 211.20674166668323,
      "v": 120
    },
    {
      "midi": 65,
      "hit": false,
      "t": 219310.1839999995,
      "d": 215.51708333333954,
      "v": 119
    },
    {
      "midi": 60,
      "hit": false,
      "t": 219331.7357083334,
      "d": 43.10341666667955,
      "v": 127
    },
    {
      "midi": 29,
      "hit": false,
      "t": 219439.49424999952,
      "d": 28.017220833338797,
      "v": 65
    },
    {
      "midi": 60,
      "hit": false,
      "t": 219590.35620833343,
      "d": 25.86204999999609,
      "v": 82
    },
    {
      "midi": 60,
      "hit": false,
      "t": 219848.97670833342,
      "d": 64.65512499999022,
      "v": 127
    },
    {
      "midi": 57,
      "hit": false,
      "t": 220086.0454999995,
      "d": 183.18952083334443,
      "v": 114
    },
    {
      "midi": 65,
      "hit": false,
      "t": 220086.0454999995,
      "d": 185.34469166668714,
      "v": 116
    },
    {
      "midi": 29,
      "hit": false,
      "t": 220086.0454999995,
      "d": 191.81020416668616,
      "v": 106
    },
    {
      "midi": 41,
      "hit": false,
      "t": 220086.0454999995,
      "d": 200.4308875000279,
      "v": 116
    },
    {
      "midi": 60,
      "hit": false,
      "t": 220107.5972083334,
      "d": 47.41375833333586,
      "v": 120
    },
    {
      "midi": 60,
      "hit": false,
      "t": 220215.35574999952,
      "d": 2.1551708333427086,
      "v": 108
    },
    {
      "midi": 28,
      "hit": false,
      "t": 220344.66599999953,
      "d": 107.75854166666977,
      "v": 114
    },
    {
      "midi": 64,
      "hit": false,
      "t": 220344.66599999953,
      "d": 185.34469166665804,
      "v": 116
    },
    {
      "midi": 55,
      "hit": false,
      "t": 220344.66599999953,
      "d": 187.49986250000075,
      "v": 116
    },
    {
      "midi": 40,
      "hit": false,
      "t": 220344.66599999953,
      "d": 189.65503333334345,
      "v": 110
    },
    {
      "midi": 60,
      "hit": false,
      "t": 220344.66599999953,
      "d": 209.05157083334052,
      "v": 114
    },
    {
      "midi": 60,
      "hit": false,
      "t": 220366.2177083334,
      "d": 45.258587499993155,
      "v": 127
    },
    {
      "midi": 60,
      "hit": false,
      "t": 220624.83820833339,
      "d": 17.241366666654358,
      "v": 110
    },
    {
      "midi": 60,
      "hit": false,
      "t": 220883.45870833338,
      "d": 51.72409999999218,
      "v": 127
    },
    {
      "midi": 28,
      "hit": false,
      "t": 221120.52749999953,
      "d": 64.65512499999022,
      "v": 100
    },
    {
      "midi": 64,
      "hit": false,
      "t": 221120.52749999953,
      "d": 99.13785833332804,
      "v": 108
    },
    {
      "midi": 60,
      "hit": false,
      "t": 221120.52749999953,
      "d": 105.60337083332706,
      "v": 106
    },
    {
      "midi": 55,
      "hit": false,
      "t": 221120.52749999953,
      "d": 116.3792249999824,
      "v": 110
    },
    {
      "midi": 40,
      "hit": false,
      "t": 221120.52749999953,
      "d": 120.68956666663871,
      "v": 104
    },
    {
      "midi": 60,
      "hit": false,
      "t": 221142.07920833337,
      "d": 19.396537499997066,
      "v": 78
    },
    {
      "midi": 26,
      "hit": false,
      "t": 221379.1479999995,
      "d": 49.56892916667857,
      "v": 94
    },
    {
      "midi": 38,
      "hit": false,
      "t": 221379.1479999995,
      "d": 153.01712916669203,
      "v": 116
    },
    {
      "midi": 53,
      "hit": false,
      "t": 221379.1479999995,
      "d": 153.01712916669203,
      "v": 110
    },
    {
      "midi": 62,
      "hit": false,
      "t": 221379.1479999995,
      "d": 178.87917916668812,
      "v": 116
    },
    {
      "midi": 57,
      "hit": false,
      "t": 221379.1479999995,
      "d": 181.03435000003083,
      "v": 114
    },
    {
      "midi": 60,
      "hit": false,
      "t": 221400.69970833336,
      "d": 40.94824583333684,
      "v": 108
    },
    {
      "midi": 62,
      "hit": false,
      "t": 221637.7684999995,
      "d": 88.3620041666727,
      "v": 92
    },
    {
      "midi": 40,
      "hit": false,
      "t": 221637.7684999995,
      "d": 101.29302916667075,
      "v": 108
    },
    {
      "midi": 55,
      "hit": false,
      "t": 221637.7684999995,
      "d": 105.60337083332706,
      "v": 106
    },
    {
      "midi": 60,
      "hit": false,
      "t": 221659.32020833335,
      "d": 25.86204999999609,
      "v": 88
    },
    {
      "midi": 41,
      "hit": false,
      "t": 221896.3889999995,
      "d": 241.37913333333563,
      "v": 117
    },
    {
      "midi": 62,
      "hit": false,
      "t": 221896.3889999995,
      "d": 310.34460000001127,
      "v": 119
    },
    {
      "midi": 57,
      "hit": false,
      "t": 221896.3889999995,
      "d": 342.6721625000064,
      "v": 122
    },
    {
      "midi": 60,
      "hit": false,
      "t": 221917.94070833334,
      "d": 53.879270833334886,
      "v": 127
    },
    {
      "midi": 24,
      "hit": false,
      "t": 222413.6299999995,
      "d": 53.879270833334886,
      "v": 102
    },
    {
      "midi": 36,
      "hit": false,
      "t": 222413.6299999995,
      "d": 84.05166249998729,
      "v": 110
    },
    {
      "midi": 52,
      "hit": false,
      "t": 222413.6299999995,
      "d": 124.99990833332413,
      "v": 116
    },
    {
      "midi": 60,
      "hit": false,
      "t": 222413.6299999995,
      "d": 140.08610416666488,
      "v": 117
    },
    {
      "midi": 55,
      "hit": false,
      "t": 222413.6299999995,
      "d": 146.5516166666639,
      "v": 116
    },
    {
      "midi": 60,
      "hit": false,
      "t": 222435.18170833334,
      "d": 32.32756249999511,
      "v": 98
    }
  ]
}