{
  "jsonPath": "Country/Classic Country Pop/Lynn Anderson/weve-only-just-begun-digitally-remastered.json",
  "path": "Country\\Classic Country Pop\\Lynn Anderson\\Weve Only Just Begun (Digitally Remastered).mid",
  "name": "Weve Only Just Begun (Digitally Remastered)",
  "difficulty": "Advanced",
  "bpm": 86.00017486702222,
  "notes": [
    {
      "midi": 73,
      "hit": false,
      "t": 3243.24,
      "d": 810.81,
      "v": 42
    },
    {
      "midi": 64,
      "hit": false,
      "t": 3260.1318749999996,
      "d": 793.9181250000001,
      "v": 42
    },
    {
      "midi": 69,
      "hit": false,
      "t": 3648.6449999999995,
      "d": 810.8100000000004,
      "v": 26
    },
    {
      "midi": 64,
      "hit": false,
      "t": 4054.0499999999997,
      "d": 810.81,
      "v": 42
    },
    {
      "midi": 73,
      "hit": false,
      "t": 4054.0499999999997,
      "d": 810.81,
      "v": 42
    },
    {
      "midi": 69,
      "hit": false,
      "t": 4459.455,
      "d": 810.8099999999995,
      "v": 38
    },
    {
      "midi": 73,
      "hit": false,
      "t": 4864.86,
      "d": 810.8099999999995,
      "v": 44
    },
    {
      "midi": 64,
      "hit": false,
      "t": 4898.643749999999,
      "d": 777.0262499999999,
      "v": 44
    },
    {
      "midi": 69,
      "hit": false,
      "t": 5270.264999999999,
      "d": 810.8100000000004,
      "v": 29
    },
    {
      "midi": 73,
      "hit": false,
      "t": 5675.669999999999,
      "d": 810.8100000000004,
      "v": 54
    },
    {
      "midi": 64,
      "hit": false,
      "t": 5692.561874999999,
      "d": 793.9181250000001,
      "v": 54
    },
    {
      "midi": 69,
      "hit": false,
      "t": 6081.075,
      "d": 810.8099999999995,
      "v": 40
    },
    {
      "midi": 57,
      "hit": false,
      "t": 6283.7775,
      "d": 270.27000000000044,
      "v": 50
    },
    {
      "midi": 73,
      "hit": false,
      "t": 6486.48,
      "d": 810.8099999999995,
      "v": 26
    },
    {
      "midi": 66,
      "hit": false,
      "t": 6486.48,
      "d": 827.7018749999997,
      "v": 26
    },
    {
      "midi": 50,
      "hit": false,
      "t": 6554.047500000001,
      "d": 3175.6725000000006,
      "v": 52
    },
    {
      "midi": 69,
      "hit": false,
      "t": 6891.884999999999,
      "d": 810.8100000000004,
      "v": 40
    },
    {
      "midi": 73,
      "hit": false,
      "t": 7297.289999999999,
      "d": 810.8100000000004,
      "v": 46
    },
    {
      "midi": 66,
      "hit": false,
      "t": 7314.181874999999,
      "d": 793.9181250000001,
      "v": 46
    },
    {
      "midi": 69,
      "hit": false,
      "t": 7702.695,
      "d": 810.8099999999995,
      "v": 18
    },
    {
      "midi": 73,
      "hit": false,
      "t": 8108.099999999999,
      "d": 810.8100000000004,
      "v": 44
    },
    {
      "midi": 66,
      "hit": false,
      "t": 8108.099999999999,
      "d": 827.7018749999997,
      "v": 44
    },
    {
      "midi": 69,
      "hit": false,
      "t": 8513.505,
      "d": 810.8099999999995,
      "v": 41
    },
    {
      "midi": 73,
      "hit": false,
      "t": 8918.91,
      "d": 810.8099999999995,
      "v": 48
    },
    {
      "midi": 66,
      "hit": false,
      "t": 8935.801875,
      "d": 793.9181250000001,
      "v": 48
    },
    {
      "midi": 69,
      "hit": false,
      "t": 9324.314999999999,
      "d": 810.8100000000013,
      "v": 30
    },
    {
      "midi": 73,
      "hit": false,
      "t": 9729.72,
      "d": 810.8100000000013,
      "v": 40
    },
    {
      "midi": 64,
      "hit": false,
      "t": 9729.72,
      "d": 827.7018750000007,
      "v": 40
    },
    {
      "midi": 57,
      "hit": false,
      "t": 9729.720000000001,
      "d": 3293.9156249999996,
      "v": 50
    },
    {
      "midi": 69,
      "hit": false,
      "t": 10135.125,
      "d": 810.8099999999995,
      "v": 22
    },
    {
      "midi": 73,
      "hit": false,
      "t": 10540.53,
      "d": 810.8099999999995,
      "v": 54
    },
    {
      "midi": 64,
      "hit": false,
      "t": 10557.421875,
      "d": 810.8099999999995,
      "v": 54
    },
    {
      "midi": 69,
      "hit": false,
      "t": 10945.935,
      "d": 810.8099999999995,
      "v": 38
    },
    {
      "midi": 73,
      "hit": false,
      "t": 11351.34,
      "d": 810.8099999999995,
      "v": 44
    },
    {
      "midi": 64,
      "hit": false,
      "t": 11368.231875,
      "d": 793.9181250000001,
      "v": 44
    },
    {
      "midi": 69,
      "hit": false,
      "t": 11756.744999999999,
      "d": 810.8100000000013,
      "v": 29
    },
    {
      "midi": 64,
      "hit": false,
      "t": 12162.15,
      "d": 810.8100000000013,
      "v": 60
    },
    {
      "midi": 73,
      "hit": false,
      "t": 12162.15,
      "d": 810.8100000000013,
      "v": 60
    },
    {
      "midi": 69,
      "hit": false,
      "t": 12567.555,
      "d": 810.8100000000013,
      "v": 40
    },
    {
      "midi": 66,
      "hit": false,
      "t": 12972.960000000001,
      "d": 810.8100000000013,
      "v": 44
    },
    {
      "midi": 73,
      "hit": false,
      "t": 12972.960000000001,
      "d": 810.8100000000013,
      "v": 44
    },
    {
      "midi": 50,
      "hit": false,
      "t": 13023.635625,
      "d": 3192.564375,
      "v": 62
    },
    {
      "midi": 69,
      "hit": false,
      "t": 13378.365000000002,
      "d": 810.8100000000013,
      "v": 28
    },
    {
      "midi": 66,
      "hit": false,
      "t": 13783.770000000002,
      "d": 810.8100000000013,
      "v": 46
    },
    {
      "midi": 73,
      "hit": false,
      "t": 13783.770000000002,
      "d": 810.8100000000013,
      "v": 46
    },
    {
      "midi": 69,
      "hit": false,
      "t": 14189.175000000003,
      "d": 810.8100000000013,
      "v": 34
    },
    {
      "midi": 66,
      "hit": false,
      "t": 14594.580000000004,
      "d": 810.8100000000013,
      "v": 44
    },
    {
      "midi": 73,
      "hit": false,
      "t": 14594.580000000004,
      "d": 810.8100000000013,
      "v": 44
    },
    {
      "midi": 69,
      "hit": false,
      "t": 14999.985000000004,
      "d": 810.8100000000013,
      "v": 41
    },
    {
      "midi": 66,
      "hit": false,
      "t": 15405.390000000005,
      "d": 810.8100000000013,
      "v": 48
    },
    {
      "midi": 73,
      "hit": false,
      "t": 15405.390000000005,
      "d": 810.8100000000013,
      "v": 48
    },
    {
      "midi": 69,
      "hit": false,
      "t": 15810.795000000006,
      "d": 810.8100000000013,
      "v": 40
    },
    {
      "midi": 57,
      "hit": false,
      "t": 16216.2,
      "d": 3310.807499999999,
      "v": 50
    },
    {
      "midi": 64,
      "hit": false,
      "t": 16216.200000000006,
      "d": 810.8099999999995,
      "v": 26
    },
    {
      "midi": 73,
      "hit": false,
      "t": 16216.200000000006,
      "d": 810.8099999999995,
      "v": 26
    },
    {
      "midi": 69,
      "hit": false,
      "t": 16621.605000000007,
      "d": 810.8099999999977,
      "v": 40
    },
    {
      "midi": 64,
      "hit": false,
      "t": 17027.010000000006,
      "d": 810.8099999999977,
      "v": 46
    },
    {
      "midi": 73,
      "hit": false,
      "t": 17027.010000000006,
      "d": 810.8099999999977,
      "v": 46
    },
    {
      "midi": 69,
      "hit": false,
      "t": 17432.415000000005,
      "d": 810.8099999999977,
      "v": 34
    },
    {
      "midi": 64,
      "hit": false,
      "t": 17837.820000000003,
      "d": 810.8099999999977,
      "v": 60
    },
    {
      "midi": 73,
      "hit": false,
      "t": 17837.820000000003,
      "d": 810.8099999999977,
      "v": 60
    },
    {
      "midi": 69,
      "hit": false,
      "t": 18243.225000000002,
      "d": 810.8099999999977,
      "v": 41
    },
    {
      "midi": 64,
      "hit": false,
      "t": 18648.63,
      "d": 810.8099999999977,
      "v": 62
    },
    {
      "midi": 73,
      "hit": false,
      "t": 18648.63,
      "d": 810.8099999999977,
      "v": 62
    },
    {
      "midi": 69,
      "hit": false,
      "t": 19054.035,
      "d": 810.8099999999977,
      "v": 40
    },
    {
      "midi": 66,
      "hit": false,
      "t": 19459.44,
      "d": 810.8099999999977,
      "v": 26
    },
    {
      "midi": 73,
      "hit": false,
      "t": 19459.44,
      "d": 810.8099999999977,
      "v": 26
    },
    {
      "midi": 50,
      "hit": false,
      "t": 19527.0075,
      "d": 1959.4575000000004,
      "v": 56
    },
    {
      "midi": 69,
      "hit": false,
      "t": 19864.844999999998,
      "d": 810.8099999999977,
      "v": 40
    },
    {
      "midi": 66,
      "hit": false,
      "t": 20270.249999999996,
      "d": 810.8099999999977,
      "v": 46
    },
    {
      "midi": 73,
      "hit": false,
      "t": 20270.249999999996,
      "d": 810.8099999999977,
      "v": 46
    },
    {
      "midi": 69,
      "hit": false,
      "t": 20675.654999999995,
      "d": 810.8099999999977,
      "v": 34
    },
    {
      "midi": 66,
      "hit": false,
      "t": 21081.059999999994,
      "d": 810.8099999999977,
      "v": 60
    },
    {
      "midi": 73,
      "hit": false,
      "t": 21081.059999999994,
      "d": 810.8099999999977,
      "v": 60
    },
    {
      "midi": 69,
      "hit": false,
      "t": 21486.464999999993,
      "d": 810.8099999999977,
      "v": 41
    },
    {
      "midi": 57,
      "hit": false,
      "t": 21486.465,
      "d": 405.40499999999884,
      "v": 66
    },
    {
      "midi": 66,
      "hit": false,
      "t": 21891.86999999999,
      "d": 810.8099999999977,
      "v": 62
    },
    {
      "midi": 73,
      "hit": false,
      "t": 21891.86999999999,
      "d": 810.8099999999977,
      "v": 62
    },
    {
      "midi": 62,
      "hit": false,
      "t": 21891.87,
      "d": 810.8100000000013,
      "v": 70
    },
    {
      "midi": 69,
      "hit": false,
      "t": 22297.27499999999,
      "d": 810.8099999999977,
      "v": 40
    },
    {
      "midi": 64,
      "hit": false,
      "t": 22702.67999999999,
      "d": 810.8099999999977,
      "v": 26
    },
    {
      "midi": 71,
      "hit": false,
      "t": 22702.67999999999,
      "d": 810.8099999999977,
      "v": 26
    },
    {
      "midi": 49,
      "hit": false,
      "t": 22702.68,
      "d": 2027.0250000000015,
      "v": 62
    },
    {
      "midi": 68,
      "hit": false,
      "t": 23108.08499999999,
      "d": 810.8099999999977,
      "v": 40
    },
    {
      "midi": 64,
      "hit": false,
      "t": 23513.489999999987,
      "d": 810.8099999999977,
      "v": 46
    },
    {
      "midi": 71,
      "hit": false,
      "t": 23513.489999999987,
      "d": 810.8099999999977,
      "v": 46
    },
    {
      "midi": 68,
      "hit": false,
      "t": 23918.894999999986,
      "d": 810.8099999999977,
      "v": 34
    },
    {
      "midi": 64,
      "hit": false,
      "t": 24324.299999999985,
      "d": 810.8099999999977,
      "v": 50
    },
    {
      "midi": 71,
      "hit": false,
      "t": 24324.299999999985,
      "d": 810.8099999999977,
      "v": 50
    },
    {
      "midi": 68,
      "hit": false,
      "t": 24729.704999999984,
      "d": 810.8099999999977,
      "v": 41
    },
    {
      "midi": 56,
      "hit": false,
      "t": 24729.705,
      "d": 405.40499999999884,
      "v": 62
    },
    {
      "midi": 64,
      "hit": false,
      "t": 25135.109999999982,
      "d": 810.8099999999977,
      "v": 62
    },
    {
      "midi": 71,
      "hit": false,
      "t": 25135.109999999982,
      "d": 810.8099999999977,
      "v": 62
    },
    {
      "midi": 61,
      "hit": false,
      "t": 25135.11,
      "d": 405.40499999999884,
      "v": 78
    },
    {
      "midi": 68,
      "hit": false,
      "t": 25540.51499999998,
      "d": 405.40499999999884,
      "v": 40
    },
    {
      "midi": 56,
      "hit": false,
      "t": 25540.515,
      "d": 405.40499999999884,
      "v": 51
    },
    {
      "midi": 68,
      "hit": false,
      "t": 25945.91999999998,
      "d": 810.8099999999977,
      "v": 40
    },
    {
      "midi": 69,
      "hit": false,
      "t": 25945.91999999998,
      "d": 810.8099999999977,
      "v": 40
    },
    {
      "midi": 73,
      "hit": false,
      "t": 25945.91999999998,
      "d": 810.8099999999977,
      "v": 40
    },
    {
      "midi": 54,
      "hit": false,
      "t": 25945.92,
      "d": 3293.9156250000015,
      "v": 50
    },
    {
      "midi": 66,
      "hit": false,
      "t": 26351.32499999998,
      "d": 810.8099999999977,
      "v": 22
    },
    {
      "midi": 68,
      "hit": false,
      "t": 26756.729999999978,
      "d": 810.8099999999977,
      "v": 48
    },
    {
      "midi": 69,
      "hit": false,
      "t": 26756.729999999978,
      "d": 810.8099999999977,
      "v": 48
    },
    {
      "midi": 73,
      "hit": false,
      "t": 26756.729999999978,
      "d": 810.8099999999977,
      "v": 48
    },
    {
      "midi": 66,
      "hit": false,
      "t": 27162.134999999977,
      "d": 810.8099999999977,
      "v": 34
    },
    {
      "midi": 68,
      "hit": false,
      "t": 27567.539999999975,
      "d": 810.8099999999977,
      "v": 40
    },
    {
      "midi": 69,
      "hit": false,
      "t": 27567.539999999975,
      "d": 810.8099999999977,
      "v": 40
    },
    {
      "midi": 73,
      "hit": false,
      "t": 27567.539999999975,
      "d": 810.8099999999977,
      "v": 40
    },
    {
      "midi": 66,
      "hit": false,
      "t": 27972.944999999974,
      "d": 810.8099999999977,
      "v": 22
    },
    {
      "midi": 68,
      "hit": false,
      "t": 28378.349999999973,
      "d": 810.8099999999977,
      "v": 54
    },
    {
      "midi": 69,
      "hit": false,
      "t": 28378.349999999973,
      "d": 810.8099999999977,
      "v": 54
    },
    {
      "midi": 73,
      "hit": false,
      "t": 28378.349999999973,
      "d": 810.8099999999977,
      "v": 54
    },
    {
      "midi": 66,
      "hit": false,
      "t": 28783.754999999972,
      "d": 405.40499999999884,
      "v": 40
    },
    {
      "midi": 62,
      "hit": false,
      "t": 29189.15999999997,
      "d": 810.8099999999977,
      "v": 40
    },
    {
      "midi": 66,
      "hit": false,
      "t": 29189.15999999997,
      "d": 810.8099999999977,
      "v": 40
    },
    {
      "midi": 69,
      "hit": false,
      "t": 29189.15999999997,
      "d": 810.8099999999977,
      "v": 40
    },
    {
      "midi": 47,
      "hit": false,
      "t": 29239.835625,
      "d": 3192.5643750000017,
      "v": 64
    },
    {
      "midi": 59,
      "hit": false,
      "t": 29594.56499999997,
      "d": 810.8099999999977,
      "v": 22
    },
    {
      "midi": 62,
      "hit": false,
      "t": 29999.96999999997,
      "d": 810.8099999999977,
      "v": 48
    },
    {
      "midi": 66,
      "hit": false,
      "t": 29999.96999999997,
      "d": 810.8099999999977,
      "v": 48
    },
    {
      "midi": 69,
      "hit": false,
      "t": 29999.96999999997,
      "d": 810.8099999999977,
      "v": 48
    },
    {
      "midi": 59,
      "hit": false,
      "t": 30405.374999999967,
      "d": 810.8099999999977,
      "v": 34
    },
    {
      "midi": 62,
      "hit": false,
      "t": 30810.779999999966,
      "d": 810.8099999999977,
      "v": 40
    },
    {
      "midi": 66,
      "hit": false,
      "t": 30810.779999999966,
      "d": 810.8099999999977,
      "v": 40
    },
    {
      "midi": 69,
      "hit": false,
      "t": 30810.779999999966,
      "d": 810.8099999999977,
      "v": 40
    },
    {
      "midi": 59,
      "hit": false,
      "t": 31216.184999999965,
      "d": 810.8099999999977,
      "v": 22
    },
    {
      "midi": 62,
      "hit": false,
      "t": 31621.589999999964,
      "d": 810.8099999999977,
      "v": 54
    },
    {
      "midi": 66,
      "hit": false,
      "t": 31621.589999999964,
      "d": 810.8099999999977,
      "v": 54
    },
    {
      "midi": 69,
      "hit": false,
      "t": 31621.589999999964,
      "d": 810.8099999999977,
      "v": 54
    },
    {
      "midi": 59,
      "hit": false,
      "t": 32026.994999999963,
      "d": 810.8100000000013,
      "v": 40
    },
    {
      "midi": 73,
      "hit": false,
      "t": 32432.39999999996,
      "d": 810.8100000000013,
      "v": 40
    },
    {
      "midi": 69,
      "hit": false,
      "t": 32432.39999999996,
      "d": 827.7018750000025,
      "v": 40
    },
    {
      "midi": 68,
      "hit": false,
      "t": 32432.39999999996,
      "d": 844.5937500000036,
      "v": 40
    },
    {
      "midi": 54,
      "hit": false,
      "t": 32432.4,
      "d": 2837.834999999999,
      "v": 54
    },
    {
      "midi": 66,
      "hit": false,
      "t": 32837.804999999964,
      "d": 810.8099999999977,
      "v": 22
    },
    {
      "midi": 73,
      "hit": false,
      "t": 33243.20999999996,
      "d": 810.8099999999977,
      "v": 59
    },
    {
      "midi": 69,
      "hit": false,
      "t": 33260.101874999964,
      "d": 793.9181249999965,
      "v": 59
    },
    {
      "midi": 68,
      "hit": false,
      "t": 33276.993749999965,
      "d": 777.0262499999953,
      "v": 59
    },
    {
      "midi": 66,
      "hit": false,
      "t": 33648.61499999996,
      "d": 810.8099999999977,
      "v": 34
    },
    {
      "midi": 69,
      "hit": false,
      "t": 34054.01999999996,
      "d": 810.8099999999977,
      "v": 40
    },
    {
      "midi": 73,
      "hit": false,
      "t": 34054.01999999996,
      "d": 810.8099999999977,
      "v": 40
    },
    {
      "midi": 68,
      "hit": false,
      "t": 34054.01999999996,
      "d": 827.7018749999988,
      "v": 40
    },
    {
      "midi": 66,
      "hit": false,
      "t": 34459.42499999996,
      "d": 810.8099999999977,
      "v": 22
    },
    {
      "midi": 61,
      "hit": false,
      "t": 34459.425,
      "d": 2027.0249999999942,
      "v": 78
    },
    {
      "midi": 69,
      "hit": false,
      "t": 34864.82999999996,
      "d": 810.8099999999977,
      "v": 50
    },
    {
      "midi": 73,
      "hit": false,
      "t": 34864.82999999996,
      "d": 810.8099999999977,
      "v": 50
    },
    {
      "midi": 64,
      "hit": false,
      "t": 34864.83,
      "d": 1621.6199999999953,
      "v": 62
    },
    {
      "midi": 68,
      "hit": false,
      "t": 34881.72187499996,
      "d": 793.9181249999965,
      "v": 50
    },
    {
      "midi": 66,
      "hit": false,
      "t": 35270.23499999996,
      "d": 405.40499999999884,
      "v": 40
    },
    {
      "midi": 68,
      "hit": false,
      "t": 35270.235,
      "d": 405.40499999999884,
      "v": 70
    },
    {
      "midi": 62,
      "hit": false,
      "t": 35675.639999999956,
      "d": 810.8099999999977,
      "v": 40
    },
    {
      "midi": 66,
      "hit": false,
      "t": 35675.639999999956,
      "d": 810.8099999999977,
      "v": 40
    },
    {
      "midi": 69,
      "hit": false,
      "t": 35675.639999999956,
      "d": 810.8099999999977,
      "v": 40
    },
    {
      "midi": 47,
      "hit": false,
      "t": 35675.64,
      "d": 2837.834999999999,
      "v": 64
    },
    {
      "midi": 59,
      "hit": false,
      "t": 36081.044999999955,
      "d": 810.8099999999977,
      "v": 22
    },
    {
      "midi": 62,
      "hit": false,
      "t": 36486.44999999995,
      "d": 810.8099999999977,
      "v": 48
    },
    {
      "midi": 66,
      "hit": false,
      "t": 36486.44999999995,
      "d": 810.8099999999977,
      "v": 48
    },
    {
      "midi": 69,
      "hit": false,
      "t": 36486.44999999995,
      "d": 810.8099999999977,
      "v": 48
    },
    {
      "midi": 59,
      "hit": false,
      "t": 36891.85499999995,
      "d": 810.8099999999977,
      "v": 34
    },
    {
      "midi": 69,
      "hit": false,
      "t": 37297.25999999995,
      "d": 810.8099999999977,
      "v": 40
    },
    {
      "midi": 62,
      "hit": false,
      "t": 37297.25999999995,
      "d": 827.7018749999988,
      "v": 40
    },
    {
      "midi": 66,
      "hit": false,
      "t": 37297.25999999995,
      "d": 844.59375,
      "v": 40
    },
    {
      "midi": 59,
      "hit": false,
      "t": 37702.66499999995,
      "d": 810.8099999999977,
      "v": 22
    },
    {
      "midi": 69,
      "hit": false,
      "t": 38108.06999999995,
      "d": 810.8099999999977,
      "v": 70
    },
    {
      "midi": 62,
      "hit": false,
      "t": 38124.96187499995,
      "d": 793.9181249999965,
      "v": 70
    },
    {
      "midi": 66,
      "hit": false,
      "t": 38141.85374999995,
      "d": 777.0262499999953,
      "v": 70
    },
    {
      "midi": 59,
      "hit": false,
      "t": 38513.47499999995,
      "d": 405.40499999999884,
      "v": 40
    },
    {
      "midi": 47,
      "hit": false,
      "t": 38513.475,
      "d": 405.40499999999884,
      "v": 68
    },
    {
      "midi": 62,
      "hit": false,
      "t": 38918.87999999995,
      "d": 810.8099999999977,
      "v": 70
    },
    {
      "midi": 66,
      "hit": false,
      "t": 38918.87999999995,
      "d": 810.8099999999977,
      "v": 70
    },
    {
      "midi": 69,
      "hit": false,
      "t": 38918.87999999995,
      "d": 810.8099999999977,
      "v": 70
    },
    {
      "midi": 40,
      "hit": false,
      "t": 38918.88,
      "d": 6486.480000000003,
      "v": 86
    },
    {
      "midi": 52,
      "hit": false,
      "t": 38918.88,
      "d": 6486.480000000003,
      "v": 86
    },
    {
      "midi": 59,
      "hit": false,
      "t": 39324.284999999945,
      "d": 810.8099999999977,
      "v": 56
    },
    {
      "midi": 62,
      "hit": false,
      "t": 39729.689999999944,
      "d": 810.8099999999977,
      "v": 62
    },
    {
      "midi": 66,
      "hit": false,
      "t": 39729.689999999944,
      "d": 810.8099999999977,
      "v": 62
    },
    {
      "midi": 69,
      "hit": false,
      "t": 39729.689999999944,
      "d": 810.8099999999977,
      "v": 62
    },
    {
      "midi": 59,
      "hit": false,
      "t": 40135.09499999994,
      "d": 405.40499999999884,
      "v": 48
    },
    {
      "midi": 76,
      "hit": false,
      "t": 40135.095,
      "d": 405.40499999999884,
      "v": 48
    },
    {
      "midi": 59,
      "hit": false,
      "t": 40540.49999999994,
      "d": 405.40499999999884,
      "v": 46
    },
    {
      "midi": 62,
      "hit": false,
      "t": 40540.49999999994,
      "d": 810.8099999999977,
      "v": 46
    },
    {
      "midi": 64,
      "hit": false,
      "t": 40540.49999999994,
      "d": 810.8099999999977,
      "v": 46
    },
    {
      "midi": 78,
      "hit": false,
      "t": 40540.5,
      "d": 608.1074999999983,
      "v": 54
    },
    {
      "midi": 59,
      "hit": false,
      "t": 40945.90499999994,
      "d": 405.40499999999884,
      "v": 40
    },
    {
      "midi": 81,
      "hit": false,
      "t": 41148.6075,
      "d": 608.1074999999983,
      "v": 58
    },
    {
      "midi": 59,
      "hit": false,
      "t": 41351.30999999994,
      "d": 810.8099999999977,
      "v": 46
    },
    {
      "midi": 62,
      "hit": false,
      "t": 41351.30999999994,
      "d": 810.8099999999977,
      "v": 46
    },
    {
      "midi": 64,
      "hit": false,
      "t": 41351.30999999994,
      "d": 810.8099999999977,
      "v": 46
    },
    {
      "midi": 78,
      "hit": false,
      "t": 41756.715,
      "d": 202.70249999999942,
      "v": 70
    },
    {
      "midi": 83,
      "hit": false,
      "t": 41959.417499999996,
      "d": 3243.239999999998,
      "v": 54
    },
    {
      "midi": 59,
      "hit": false,
      "t": 42162.11999999994,
      "d": 810.8099999999977,
      "v": 52
    },
    {
      "midi": 64,
      "hit": false,
      "t": 42162.11999999994,
      "d": 810.8099999999977,
      "v": 52
    },
    {
      "midi": 68,
      "hit": false,
      "t": 42162.11999999994,
      "d": 810.8099999999977,
      "v": 52
    },
    {
      "midi": 59,
      "hit": false,
      "t": 42972.929999999935,
      "d": 810.8099999999977,
      "v": 52
    },
    {
      "midi": 64,
      "hit": false,
      "t": 42972.929999999935,
      "d": 810.8099999999977,
      "v": 52
    },
    {
      "midi": 68,
      "hit": false,
      "t": 42972.929999999935,
      "d": 810.8099999999977,
      "v": 52
    },
    {
      "midi": 59,
      "hit": false,
      "t": 43783.73999999993,
      "d": 810.8099999999977,
      "v": 52
    },
    {
      "midi": 64,
      "hit": false,
      "t": 43783.73999999993,
      "d": 810.8099999999977,
      "v": 52
    },
    {
      "midi": 68,
      "hit": false,
      "t": 43783.73999999993,
      "d": 810.8099999999977,
      "v": 52
    },
    {
      "midi": 59,
      "hit": false,
      "t": 44594.54999999993,
      "d": 810.8099999999977,
      "v": 52
    },
    {
      "midi": 64,
      "hit": false,
      "t": 44594.54999999993,
      "d": 810.8099999999977,
      "v": 52
    },
    {
      "midi": 68,
      "hit": false,
      "t": 44594.54999999993,
      "d": 810.8099999999977,
      "v": 52
    },
    {
      "midi": 61,
      "hit": false,
      "t": 45405.35999999993,
      "d": 810.8099999999977,
      "v": 52
    },
    {
      "midi": 66,
      "hit": false,
      "t": 45405.35999999993,
      "d": 810.8099999999977,
      "v": 52
    },
    {
      "midi": 69,
      "hit": false,
      "t": 45405.35999999993,
      "d": 810.8099999999977,
      "v": 52
    },
    {
      "midi": 61,
      "hit": false,
      "t": 46216.169999999925,
      "d": 810.8099999999977,
      "v": 52
    },
    {
      "midi": 66,
      "hit": false,
      "t": 46216.169999999925,
      "d": 810.8099999999977,
      "v": 52
    },
    {
      "midi": 69,
      "hit": false,
      "t": 46216.169999999925,
      "d": 810.8099999999977,
      "v": 52
    },
    {
      "midi": 61,
      "hit": false,
      "t": 47026.97999999992,
      "d": 810.8099999999977,
      "v": 52
    },
    {
      "midi": 66,
      "hit": false,
      "t": 47026.97999999992,
      "d": 810.8099999999977,
      "v": 52
    },
    {
      "midi": 69,
      "hit": false,
      "t": 47026.97999999992,
      "d": 810.8099999999977,
      "v": 52
    },
    {
      "midi": 90,
      "hit": false,
      "t": 47837.78999999992,
      "d": 202.70249999999942,
      "v": 58
    },
    {
      "midi": 93,
      "hit": false,
      "t": 48040.49249999992,
      "d": 202.70249999999942,
      "v": 62
    },
    {
      "midi": 97,
      "hit": false,
      "t": 48243.19499999992,
      "d": 202.70249999999942,
      "v": 68
    },
    {
      "midi": 105,
      "hit": false,
      "t": 48445.89749999992,
      "d": 202.70249999999942,
      "v": 62
    },
    {
      "midi": 104,
      "hit": false,
      "t": 48648.59999999992,
      "d": 405.40499999999884,
      "v": 58
    },
    {
      "midi": 64,
      "hit": false,
      "t": 48648.59999999992,
      "d": 810.8099999999977,
      "v": 52
    },
    {
      "midi": 68,
      "hit": false,
      "t": 48648.59999999992,
      "d": 810.8099999999977,
      "v": 52
    },
    {
      "midi": 71,
      "hit": false,
      "t": 48648.59999999992,
      "d": 810.8099999999977,
      "v": 52
    },
    {
      "midi": 64,
      "hit": false,
      "t": 49459.409999999916,
      "d": 810.8099999999977,
      "v": 52
    },
    {
      "midi": 68,
      "hit": false,
      "t": 49459.409999999916,
      "d": 810.8099999999977,
      "v": 52
    },
    {
      "midi": 71,
      "hit": false,
      "t": 49459.409999999916,
      "d": 810.8099999999977,
      "v": 52
    },
    {
      "midi": 64,
      "hit": false,
      "t": 50270.219999999914,
      "d": 810.8099999999977,
      "v": 52
    },
    {
      "midi": 68,
      "hit": false,
      "t": 50270.219999999914,
      "d": 810.8099999999977,
      "v": 52
    },
    {
      "midi": 71,
      "hit": false,
      "t": 50270.219999999914,
      "d": 810.8099999999977,
      "v": 52
    },
    {
      "midi": 64,
      "hit": false,
      "t": 51081.02999999991,
      "d": 810.8099999999977,
      "v": 52
    },
    {
      "midi": 68,
      "hit": false,
      "t": 51081.02999999991,
      "d": 810.8099999999977,
      "v": 52
    },
    {
      "midi": 71,
      "hit": false,
      "t": 51081.02999999991,
      "d": 810.8099999999977,
      "v": 52
    },
    {
      "midi": 68,
      "hit": false,
      "t": 51891.83999999991,
      "d": 810.8099999999977,
      "v": 59
    },
    {
      "midi": 69,
      "hit": false,
      "t": 51891.83999999991,
      "d": 810.8099999999977,
      "v": 59
    },
    {
      "midi": 73,
      "hit": false,
      "t": 51891.83999999991,
      "d": 810.8099999999977,
      "v": 59
    },
    {
      "midi": 66,
      "hit": false,
      "t": 52297.24499999991,
      "d": 810.8099999999977,
      "v": 43
    },
    {
      "midi": 68,
      "hit": false,
      "t": 52702.64999999991,
      "d": 810.8099999999977,
      "v": 63
    },
    {
      "midi": 69,
      "hit": false,
      "t": 52702.64999999991,
      "d": 810.8099999999977,
      "v": 63
    },
    {
      "midi": 73,
      "hit": false,
      "t": 52702.64999999991,
      "d": 810.8099999999977,
      "v": 63
    },
    {
      "midi": 66,
      "hit": false,
      "t": 53108.054999999906,
      "d": 405.40499999999884,
      "v": 45
    },
    {
      "midi": 66,
      "hit": false,
      "t": 53513.459999999905,
      "d": 810.8099999999977,
      "v": 51
    },
    {
      "midi": 69,
      "hit": false,
      "t": 53513.459999999905,
      "d": 810.8099999999977,
      "v": 51
    },
    {
      "midi": 73,
      "hit": false,
      "t": 53513.459999999905,
      "d": 810.8099999999977,
      "v": 51
    },
    {
      "midi": 66,
      "hit": false,
      "t": 54324.2699999999,
      "d": 810.8099999999977,
      "v": 51
    },
    {
      "midi": 69,
      "hit": false,
      "t": 54324.2699999999,
      "d": 810.8099999999977,
      "v": 51
    },
    {
      "midi": 73,
      "hit": false,
      "t": 54324.2699999999,
      "d": 810.8099999999977,
      "v": 51
    },
    {
      "midi": 62,
      "hit": false,
      "t": 55135.0799999999,
      "d": 810.8099999999977,
      "v": 51
    },
    {
      "midi": 66,
      "hit": false,
      "t": 55135.0799999999,
      "d": 810.8099999999977,
      "v": 51
    },
    {
      "midi": 69,
      "hit": false,
      "t": 55135.0799999999,
      "d": 810.8099999999977,
      "v": 51
    },
    {
      "midi": 62,
      "hit": false,
      "t": 55945.8899999999,
      "d": 810.8099999999977,
      "v": 51
    },
    {
      "midi": 66,
      "hit": false,
      "t": 55945.8899999999,
      "d": 810.8099999999977,
      "v": 51
    },
    {
      "midi": 69,
      "hit": false,
      "t": 55945.8899999999,
      "d": 810.8099999999977,
      "v": 51
    },
    {
      "midi": 62,
      "hit": false,
      "t": 56756.699999999895,
      "d": 810.8099999999977,
      "v": 51
    },
    {
      "midi": 66,
      "hit": false,
      "t": 56756.699999999895,
      "d": 810.8099999999977,
      "v": 51
    },
    {
      "midi": 69,
      "hit": false,
      "t": 56756.699999999895,
      "d": 810.8099999999977,
      "v": 51
    },
    {
      "midi": 62,
      "hit": false,
      "t": 57567.50999999989,
      "d": 810.8099999999977,
      "v": 51
    },
    {
      "midi": 66,
      "hit": false,
      "t": 57567.50999999989,
      "d": 810.8099999999977,
      "v": 51
    },
    {
      "midi": 69,
      "hit": false,
      "t": 57567.50999999989,
      "d": 810.8099999999977,
      "v": 51
    },
    {
      "midi": 68,
      "hit": false,
      "t": 58378.31999999989,
      "d": 810.8099999999977,
      "v": 59
    },
    {
      "midi": 69,
      "hit": false,
      "t": 58378.31999999989,
      "d": 810.8099999999977,
      "v": 59
    },
    {
      "midi": 73,
      "hit": false,
      "t": 58378.31999999989,
      "d": 810.8099999999977,
      "v": 59
    },
    {
      "midi": 66,
      "hit": false,
      "t": 58783.72499999989,
      "d": 810.8099999999977,
      "v": 43
    },
    {
      "midi": 68,
      "hit": false,
      "t": 59189.12999999989,
      "d": 810.8099999999977,
      "v": 63
    },
    {
      "midi": 69,
      "hit": false,
      "t": 59189.12999999989,
      "d": 810.8099999999977,
      "v": 63
    },
    {
      "midi": 73,
      "hit": false,
      "t": 59189.12999999989,
      "d": 810.8099999999977,
      "v": 63
    },
    {
      "midi": 66,
      "hit": false,
      "t": 59594.53499999989,
      "d": 405.40499999999884,
      "v": 45
    },
    {
      "midi": 66,
      "hit": false,
      "t": 59999.939999999886,
      "d": 810.8099999999977,
      "v": 51
    },
    {
      "midi": 69,
      "hit": false,
      "t": 59999.939999999886,
      "d": 810.8099999999977,
      "v": 51
    },
    {
      "midi": 73,
      "hit": false,
      "t": 59999.939999999886,
      "d": 810.8099999999977,
      "v": 51
    },
    {
      "midi": 66,
      "hit": false,
      "t": 60810.74999999988,
      "d": 810.8099999999977,
      "v": 51
    },
    {
      "midi": 69,
      "hit": false,
      "t": 60810.74999999988,
      "d": 810.8099999999977,
      "v": 51
    },
    {
      "midi": 73,
      "hit": false,
      "t": 60810.74999999988,
      "d": 810.8099999999977,
      "v": 51
    },
    {
      "midi": 62,
      "hit": false,
      "t": 61621.55999999988,
      "d": 810.8099999999977,
      "v": 56
    },
    {
      "midi": 66,
      "hit": false,
      "t": 61621.55999999988,
      "d": 810.8099999999977,
      "v": 56
    },
    {
      "midi": 69,
      "hit": false,
      "t": 61621.55999999988,
      "d": 810.8099999999977,
      "v": 56
    },
    {
      "midi": 62,
      "hit": false,
      "t": 62432.36999999988,
      "d": 810.8099999999977,
      "v": 51
    },
    {
      "midi": 66,
      "hit": false,
      "t": 62432.36999999988,
      "d": 810.8099999999977,
      "v": 51
    },
    {
      "midi": 69,
      "hit": false,
      "t": 62432.36999999988,
      "d": 810.8099999999977,
      "v": 51
    },
    {
      "midi": 62,
      "hit": false,
      "t": 63243.17999999988,
      "d": 810.8099999999977,
      "v": 54
    },
    {
      "midi": 66,
      "hit": false,
      "t": 63243.17999999988,
      "d": 810.8099999999977,
      "v": 54
    },
    {
      "midi": 69,
      "hit": false,
      "t": 63243.17999999988,
      "d": 810.8099999999977,
      "v": 54
    },
    {
      "midi": 62,
      "hit": false,
      "t": 64053.989999999874,
      "d": 810.8099999999977,
      "v": 62
    },
    {
      "midi": 66,
      "hit": false,
      "t": 64053.989999999874,
      "d": 810.8099999999977,
      "v": 62
    },
    {
      "midi": 69,
      "hit": false,
      "t": 64053.989999999874,
      "d": 810.8099999999977,
      "v": 62
    },
    {
      "midi": 64,
      "hit": false,
      "t": 64864.79999999987,
      "d": 641.8912500000006,
      "v": 64
    },
    {
      "midi": 68,
      "hit": false,
      "t": 64864.79999999987,
      "d": 641.8912500000006,
      "v": 64
    },
    {
      "midi": 71,
      "hit": false,
      "t": 64864.79999999987,
      "d": 641.8912500000006,
      "v": 64
    },
    {
      "midi": 40,
      "hit": false,
      "t": 64864.8,
      "d": 641.8912500000006,
      "v": 58
    },
    {
      "midi": 52,
      "hit": false,
      "t": 64864.8,
      "d": 641.8912500000006,
      "v": 58
    },
    {
      "midi": 64,
      "hit": false,
      "t": 65675.60999999987,
      "d": 641.8912500000006,
      "v": 62
    },
    {
      "midi": 68,
      "hit": false,
      "t": 65675.60999999987,
      "d": 641.8912500000006,
      "v": 62
    },
    {
      "midi": 71,
      "hit": false,
      "t": 65675.60999999987,
      "d": 641.8912500000006,
      "v": 62
    },
    {
      "midi": 40,
      "hit": false,
      "t": 65675.61,
      "d": 641.8912500000006,
      "v": 58
    },
    {
      "midi": 52,
      "hit": false,
      "t": 65675.61,
      "d": 641.8912500000006,
      "v": 58
    },
    {
      "midi": 64,
      "hit": false,
      "t": 66486.41999999987,
      "d": 641.8912500000006,
      "v": 64
    },
    {
      "midi": 68,
      "hit": false,
      "t": 66486.41999999987,
      "d": 641.8912500000006,
      "v": 64
    },
    {
      "midi": 71,
      "hit": false,
      "t": 66486.41999999987,
      "d": 641.8912500000006,
      "v": 64
    },
    {
      "midi": 28,
      "hit": false,
      "t": 66486.42,
      "d": 641.8912500000006,
      "v": 70
    },
    {
      "midi": 40,
      "hit": false,
      "t": 66486.42,
      "d": 641.8912500000006,
      "v": 70
    },
    {
      "midi": 64,
      "hit": false,
      "t": 67297.22999999986,
      "d": 641.8912500000006,
      "v": 62
    },
    {
      "midi": 68,
      "hit": false,
      "t": 67297.22999999986,
      "d": 641.8912500000006,
      "v": 62
    },
    {
      "midi": 71,
      "hit": false,
      "t": 67297.22999999986,
      "d": 641.8912500000006,
      "v": 62
    },
    {
      "midi": 40,
      "hit": false,
      "t": 67297.23,
      "d": 641.8912500000006,
      "v": 58
    },
    {
      "midi": 52,
      "hit": false,
      "t": 67297.23,
      "d": 641.8912500000006,
      "v": 58
    },
    {
      "midi": 57,
      "hit": false,
      "t": 68108.03999999986,
      "d": 641.8912500000006,
      "v": 52
    },
    {
      "midi": 61,
      "hit": false,
      "t": 68108.03999999986,
      "d": 641.8912500000006,
      "v": 52
    },
    {
      "midi": 64,
      "hit": false,
      "t": 68108.03999999986,
      "d": 641.8912500000006,
      "v": 52
    },
    {
      "midi": 33,
      "hit": false,
      "t": 68108.04,
      "d": 641.8912500000006,
      "v": 70
    },
    {
      "midi": 45,
      "hit": false,
      "t": 68108.04,
      "d": 641.8912500000006,
      "v": 70
    },
    {
      "midi": 57,
      "hit": false,
      "t": 68918.84999999986,
      "d": 641.8912500000006,
      "v": 50
    },
    {
      "midi": 61,
      "hit": false,
      "t": 68918.84999999986,
      "d": 641.8912500000006,
      "v": 50
    },
    {
      "midi": 64,
      "hit": false,
      "t": 68918.84999999986,
      "d": 641.8912500000006,
      "v": 50
    },
    {
      "midi": 57,
      "hit": false,
      "t": 69729.65999999986,
      "d": 641.8912500000006,
      "v": 52
    },
    {
      "midi": 61,
      "hit": false,
      "t": 69729.65999999986,
      "d": 641.8912500000006,
      "v": 52
    },
    {
      "midi": 66,
      "hit": false,
      "t": 69729.65999999986,
      "d": 641.8912500000006,
      "v": 52
    },
    {
      "midi": 38,
      "hit": false,
      "t": 69729.65999999999,
      "d": 641.8912500000006,
      "v": 70
    },
    {
      "midi": 50,
      "hit": false,
      "t": 69729.65999999999,
      "d": 641.8912500000006,
      "v": 70
    },
    {
      "midi": 61,
      "hit": false,
      "t": 70540.46999999986,
      "d": 641.8912500000006,
      "v": 50
    },
    {
      "midi": 66,
      "hit": false,
      "t": 70540.46999999986,
      "d": 641.8912500000006,
      "v": 50
    },
    {
      "midi": 69,
      "hit": false,
      "t": 70540.46999999986,
      "d": 641.8912500000006,
      "v": 50
    },
    {
      "midi": 57,
      "hit": false,
      "t": 71351.27999999985,
      "d": 641.8912500000006,
      "v": 52
    },
    {
      "midi": 61,
      "hit": false,
      "t": 71351.27999999985,
      "d": 641.8912500000006,
      "v": 52
    },
    {
      "midi": 64,
      "hit": false,
      "t": 71351.27999999985,
      "d": 641.8912500000006,
      "v": 52
    },
    {
      "midi": 33,
      "hit": false,
      "t": 71351.27999999998,
      "d": 641.8912500000006,
      "v": 70
    },
    {
      "midi": 45,
      "hit": false,
      "t": 71351.27999999998,
      "d": 641.8912500000006,
      "v": 70
    },
    {
      "midi": 68,
      "hit": false,
      "t": 71756.685,
      "d": 202.70249999999942,
      "v": 56
    },
    {
      "midi": 71,
      "hit": false,
      "t": 71756.685,
      "d": 202.70249999999942,
      "v": 56
    },
    {
      "midi": 69,
      "hit": false,
      "t": 71959.3875,
      "d": 202.70249999999942,
      "v": 60
    },
    {
      "midi": 73,
      "hit": false,
      "t": 71959.3875,
      "d": 202.70249999999942,
      "v": 60
    },
    {
      "midi": 57,
      "hit": false,
      "t": 72162.08999999985,
      "d": 641.8912500000006,
      "v": 50
    },
    {
      "midi": 61,
      "hit": false,
      "t": 72162.08999999985,
      "d": 641.8912500000006,
      "v": 50
    },
    {
      "midi": 64,
      "hit": false,
      "t": 72162.08999999985,
      "d": 641.8912500000006,
      "v": 50
    },
    {
      "midi": 66,
      "hit": false,
      "t": 72162.09,
      "d": 810.8099999999977,
      "v": 52
    },
    {
      "midi": 69,
      "hit": false,
      "t": 72162.09,
      "d": 810.8099999999977,
      "v": 52
    },
    {
      "midi": 57,
      "hit": false,
      "t": 72972.89999999985,
      "d": 641.8912500000006,
      "v": 46
    },
    {
      "midi": 61,
      "hit": false,
      "t": 72972.89999999985,
      "d": 641.8912500000006,
      "v": 46
    },
    {
      "midi": 66,
      "hit": false,
      "t": 72972.89999999985,
      "d": 641.8912500000006,
      "v": 46
    },
    {
      "midi": 38,
      "hit": false,
      "t": 72972.89999999998,
      "d": 641.8912500000006,
      "v": 70
    },
    {
      "midi": 50,
      "hit": false,
      "t": 72972.89999999998,
      "d": 641.8912500000006,
      "v": 70
    },
    {
      "midi": 57,
      "hit": false,
      "t": 72972.9,
      "d": 810.8099999999977,
      "v": 52
    },
    {
      "midi": 61,
      "hit": false,
      "t": 72972.9,
      "d": 810.8099999999977,
      "v": 52
    },
    {
      "midi": 66,
      "hit": false,
      "t": 72972.9,
      "d": 810.8099999999977,
      "v": 52
    },
    {
      "midi": 59,
      "hit": false,
      "t": 73783.70999999985,
      "d": 641.8912500000006,
      "v": 44
    },
    {
      "midi": 62,
      "hit": false,
      "t": 73783.70999999985,
      "d": 641.8912500000006,
      "v": 44
    },
    {
      "midi": 68,
      "hit": false,
      "t": 73783.70999999985,
      "d": 641.8912500000006,
      "v": 44
    },
    {
      "midi": 40,
      "hit": false,
      "t": 73783.70999999998,
      "d": 641.8912500000006,
      "v": 70
    },
    {
      "midi": 52,
      "hit": false,
      "t": 73783.70999999998,
      "d": 641.8912500000006,
      "v": 70
    },
    {
      "midi": 59,
      "hit": false,
      "t": 73783.70999999999,
      "d": 810.8099999999977,
      "v": 56
    },
    {
      "midi": 62,
      "hit": false,
      "t": 73783.70999999999,
      "d": 810.8099999999977,
      "v": 56
    },
    {
      "midi": 68,
      "hit": false,
      "t": 73783.70999999999,
      "d": 810.8099999999977,
      "v": 56
    },
    {
      "midi": 54,
      "hit": false,
      "t": 74594.51999999984,
      "d": 641.8912500000006,
      "v": 52
    },
    {
      "midi": 58,
      "hit": false,
      "t": 74594.51999999984,
      "d": 641.8912500000006,
      "v": 52
    },
    {
      "midi": 61,
      "hit": false,
      "t": 74594.51999999984,
      "d": 641.8912500000006,
      "v": 52
    },
    {
      "midi": 42,
      "hit": false,
      "t": 74594.51999999997,
      "d": 641.8912500000006,
      "v": 43
    },
    {
      "midi": 54,
      "hit": false,
      "t": 74594.51999999997,
      "d": 641.8912500000006,
      "v": 43
    },
    {
      "midi": 54,
      "hit": false,
      "t": 75405.32999999984,
      "d": 641.8912500000006,
      "v": 52
    },
    {
      "midi": 58,
      "hit": false,
      "t": 75405.32999999984,
      "d": 641.8912500000006,
      "v": 52
    },
    {
      "midi": 61,
      "hit": false,
      "t": 75405.32999999984,
      "d": 641.8912500000006,
      "v": 52
    },
    {
      "midi": 42,
      "hit": false,
      "t": 75405.32999999997,
      "d": 641.8912500000006,
      "v": 43
    },
    {
      "midi": 54,
      "hit": false,
      "t": 75405.32999999997,
      "d": 641.8912500000006,
      "v": 43
    },
    {
      "midi": 54,
      "hit": false,
      "t": 76216.13999999984,
      "d": 304.0537500000064,
      "v": 52
    },
    {
      "midi": 59,
      "hit": false,
      "t": 76216.13999999984,
      "d": 304.0537500000064,
      "v": 52
    },
    {
      "midi": 63,
      "hit": false,
      "t": 76216.13999999984,
      "d": 304.0537500000064,
      "v": 52
    },
    {
      "midi": 35,
      "hit": false,
      "t": 76216.13999999997,
      "d": 641.8912500000006,
      "v": 43
    },
    {
      "midi": 47,
      "hit": false,
      "t": 76216.13999999997,
      "d": 641.8912500000006,
      "v": 43
    },
    {
      "midi": 59,
      "hit": false,
      "t": 76621.54499999985,
      "d": 101.35125000000698,
      "v": 62
    },
    {
      "midi": 54,
      "hit": false,
      "t": 76824.24749999987,
      "d": 101.35125000000698,
      "v": 52
    },
    {
      "midi": 59,
      "hit": false,
      "t": 76824.24749999987,
      "d": 101.35125000000698,
      "v": 52
    },
    {
      "midi": 63,
      "hit": false,
      "t": 76824.24749999987,
      "d": 101.35125000000698,
      "v": 52
    },
    {
      "midi": 54,
      "hit": false,
      "t": 77026.94999999988,
      "d": 304.0537500000064,
      "v": 52
    },
    {
      "midi": 59,
      "hit": false,
      "t": 77026.94999999988,
      "d": 304.0537500000064,
      "v": 52
    },
    {
      "midi": 63,
      "hit": false,
      "t": 77026.94999999988,
      "d": 304.0537500000064,
      "v": 52
    },
    {
      "midi": 47,
      "hit": false,
      "t": 77026.94999999997,
      "d": 641.8912500000006,
      "v": 43
    },
    {
      "midi": 59,
      "hit": false,
      "t": 77432.3549999999,
      "d": 101.35125000000698,
      "v": 62
    },
    {
      "midi": 54,
      "hit": false,
      "t": 77635.05749999991,
      "d": 101.35125000000698,
      "v": 52
    },
    {
      "midi": 59,
      "hit": false,
      "t": 77635.05749999991,
      "d": 101.35125000000698,
      "v": 52
    },
    {
      "midi": 63,
      "hit": false,
      "t": 77635.05749999991,
      "d": 101.35125000000698,
      "v": 52
    },
    {
      "midi": 54,
      "hit": false,
      "t": 77837.75999999992,
      "d": 641.8912500000006,
      "v": 52
    },
    {
      "midi": 58,
      "hit": false,
      "t": 77837.75999999992,
      "d": 641.8912500000006,
      "v": 52
    },
    {
      "midi": 61,
      "hit": false,
      "t": 77837.75999999992,
      "d": 641.8912500000006,
      "v": 52
    },
    {
      "midi": 42,
      "hit": false,
      "t": 77837.75999999997,
      "d": 641.8912500000006,
      "v": 43
    },
    {
      "midi": 54,
      "hit": false,
      "t": 77837.75999999997,
      "d": 641.8912500000006,
      "v": 43
    },
    {
      "midi": 54,
      "hit": false,
      "t": 78648.56999999992,
      "d": 641.8912500000006,
      "v": 52
    },
    {
      "midi": 58,
      "hit": false,
      "t": 78648.56999999992,
      "d": 641.8912500000006,
      "v": 52
    },
    {
      "midi": 61,
      "hit": false,
      "t": 78648.56999999992,
      "d": 641.8912500000006,
      "v": 52
    },
    {
      "midi": 42,
      "hit": false,
      "t": 78648.56999999996,
      "d": 641.8912500000006,
      "v": 43
    },
    {
      "midi": 54,
      "hit": false,
      "t": 78648.56999999996,
      "d": 641.8912500000006,
      "v": 43
    },
    {
      "midi": 54,
      "hit": false,
      "t": 79459.37999999992,
      "d": 304.0537500000064,
      "v": 58
    },
    {
      "midi": 58,
      "hit": false,
      "t": 79459.37999999992,
      "d": 304.0537500000064,
      "v": 58
    },
    {
      "midi": 63,
      "hit": false,
      "t": 79459.37999999992,
      "d": 304.0537500000064,
      "v": 58
    },
    {
      "midi": 35,
      "hit": false,
      "t": 79459.37999999996,
      "d": 641.8912500000006,
      "v": 43
    },
    {
      "midi": 47,
      "hit": false,
      "t": 79459.37999999996,
      "d": 641.8912500000006,
      "v": 43
    },
    {
      "midi": 47,
      "hit": false,
      "t": 79864.78499999993,
      "d": 101.35125000000698,
      "v": 68
    },
    {
      "midi": 58,
      "hit": false,
      "t": 80067.48749999994,
      "d": 101.35125000000698,
      "v": 58
    },
    {
      "midi": 63,
      "hit": false,
      "t": 80067.48749999994,
      "d": 101.35125000000698,
      "v": 58
    },
    {
      "midi": 35,
      "hit": false,
      "t": 80270.18999999996,
      "d": 641.8912500000006,
      "v": 43
    },
    {
      "midi": 47,
      "hit": false,
      "t": 80270.18999999996,
      "d": 641.8912500000006,
      "v": 43
    },
    {
      "midi": 54,
      "hit": false,
      "t": 80270.18999999996,
      "d": 304.0537500000064,
      "v": 58
    },
    {
      "midi": 58,
      "hit": false,
      "t": 80270.18999999996,
      "d": 304.0537500000064,
      "v": 58
    },
    {
      "midi": 63,
      "hit": false,
      "t": 80270.18999999996,
      "d": 304.0537500000064,
      "v": 58
    },
    {
      "midi": 59,
      "hit": false,
      "t": 80675.59499999997,
      "d": 101.35125000000698,
      "v": 68
    },
    {
      "midi": 54,
      "hit": false,
      "t": 80878.29749999999,
      "d": 101.35125000000698,
      "v": 58
    },
    {
      "midi": 59,
      "hit": false,
      "t": 80878.29749999999,
      "d": 101.35125000000698,
      "v": 58
    },
    {
      "midi": 30,
      "hit": false,
      "t": 81080.99999999996,
      "d": 641.8912500000006,
      "v": 59
    },
    {
      "midi": 42,
      "hit": false,
      "t": 81080.99999999996,
      "d": 641.8912500000006,
      "v": 59
    },
    {
      "midi": 42,
      "hit": false,
      "t": 81891.80999999995,
      "d": 641.8912500000006,
      "v": 43
    },
    {
      "midi": 54,
      "hit": false,
      "t": 81891.80999999995,
      "d": 641.8912500000006,
      "v": 43
    },
    {
      "midi": 54,
      "hit": false,
      "t": 81891.81,
      "d": 675.6750000000029,
      "v": 52
    },
    {
      "midi": 58,
      "hit": false,
      "t": 81891.81,
      "d": 675.6750000000029,
      "v": 52
    },
    {
      "midi": 61,
      "hit": false,
      "t": 81891.81,
      "d": 675.6750000000029,
      "v": 52
    },
    {
      "midi": 35,
      "hit": false,
      "t": 82702.61999999995,
      "d": 641.8912500000006,
      "v": 43
    },
    {
      "midi": 47,
      "hit": false,
      "t": 82702.61999999995,
      "d": 641.8912500000006,
      "v": 43
    },
    {
      "midi": 54,
      "hit": false,
      "t": 82702.62,
      "d": 405.40499999999884,
      "v": 52
    },
    {
      "midi": 59,
      "hit": false,
      "t": 82702.62,
      "d": 405.40499999999884,
      "v": 52
    },
    {
      "midi": 63,
      "hit": false,
      "t": 82702.62,
      "d": 405.40499999999884,
      "v": 52
    },
    {
      "midi": 59,
      "hit": false,
      "t": 83108.025,
      "d": 202.70249999999942,
      "v": 62
    },
    {
      "midi": 54,
      "hit": false,
      "t": 83310.7275,
      "d": 202.70249999999942,
      "v": 52
    },
    {
      "midi": 59,
      "hit": false,
      "t": 83310.7275,
      "d": 202.70249999999942,
      "v": 52
    },
    {
      "midi": 63,
      "hit": false,
      "t": 83310.7275,
      "d": 202.70249999999942,
      "v": 52
    },
    {
      "midi": 35,
      "hit": false,
      "t": 83513.42999999995,
      "d": 641.8912500000006,
      "v": 43
    },
    {
      "midi": 47,
      "hit": false,
      "t": 83513.42999999995,
      "d": 641.8912500000006,
      "v": 43
    },
    {
      "midi": 54,
      "hit": false,
      "t": 83513.43,
      "d": 405.40499999999884,
      "v": 52
    },
    {
      "midi": 59,
      "hit": false,
      "t": 83513.43,
      "d": 405.40499999999884,
      "v": 52
    },
    {
      "midi": 63,
      "hit": false,
      "t": 83513.43,
      "d": 405.40499999999884,
      "v": 52
    },
    {
      "midi": 59,
      "hit": false,
      "t": 83918.83499999999,
      "d": 202.70249999999942,
      "v": 62
    },
    {
      "midi": 54,
      "hit": false,
      "t": 84121.53749999999,
      "d": 202.70249999999942,
      "v": 52
    },
    {
      "midi": 59,
      "hit": false,
      "t": 84121.53749999999,
      "d": 202.70249999999942,
      "v": 52
    },
    {
      "midi": 63,
      "hit": false,
      "t": 84121.53749999999,
      "d": 202.70249999999942,
      "v": 52
    },
    {
      "midi": 42,
      "hit": false,
      "t": 84324.23999999995,
      "d": 641.8912500000006,
      "v": 43
    },
    {
      "midi": 54,
      "hit": false,
      "t": 84324.23999999995,
      "d": 641.8912500000006,
      "v": 43
    },
    {
      "midi": 54,
      "hit": false,
      "t": 84324.23999999999,
      "d": 675.6750000000029,
      "v": 46
    },
    {
      "midi": 58,
      "hit": false,
      "t": 84324.23999999999,
      "d": 675.6750000000029,
      "v": 46
    },
    {
      "midi": 61,
      "hit": false,
      "t": 84324.23999999999,
      "d": 675.6750000000029,
      "v": 46
    },
    {
      "midi": 68,
      "hit": false,
      "t": 84729.64499999999,
      "d": 202.70249999999942,
      "v": 62
    },
    {
      "midi": 71,
      "hit": false,
      "t": 84729.64499999999,
      "d": 202.70249999999942,
      "v": 62
    },
    {
      "midi": 70,
      "hit": false,
      "t": 84932.34749999999,
      "d": 202.70249999999942,
      "v": 66
    },
    {
      "midi": 73,
      "hit": false,
      "t": 84932.34749999999,
      "d": 202.70249999999942,
      "v": 66
    },
    {
      "midi": 42,
      "hit": false,
      "t": 85135.04999999994,
      "d": 641.8912500000006,
      "v": 43
    },
    {
      "midi": 54,
      "hit": false,
      "t": 85135.04999999994,
      "d": 641.8912500000006,
      "v": 43
    },
    {
      "midi": 54,
      "hit": false,
      "t": 85135.04999999999,
      "d": 675.6750000000029,
      "v": 46
    },
    {
      "midi": 58,
      "hit": false,
      "t": 85135.04999999999,
      "d": 675.6750000000029,
      "v": 46
    },
    {
      "midi": 61,
      "hit": false,
      "t": 85135.04999999999,
      "d": 675.6750000000029,
      "v": 46
    },
    {
      "midi": 66,
      "hit": false,
      "t": 85135.04999999999,
      "d": 810.8099999999977,
      "v": 58
    },
    {
      "midi": 70,
      "hit": false,
      "t": 85135.04999999999,
      "d": 810.8099999999977,
      "v": 58
    },
    {
      "midi": 35,
      "hit": false,
      "t": 85945.85999999994,
      "d": 641.8912500000006,
      "v": 43
    },
    {
      "midi": 47,
      "hit": false,
      "t": 85945.85999999994,
      "d": 641.8912500000006,
      "v": 43
    },
    {
      "midi": 54,
      "hit": false,
      "t": 85945.85999999999,
      "d": 810.8099999999977,
      "v": 56
    },
    {
      "midi": 59,
      "hit": false,
      "t": 85945.85999999999,
      "d": 810.8099999999977,
      "v": 56
    },
    {
      "midi": 63,
      "hit": false,
      "t": 85945.85999999999,
      "d": 810.8099999999977,
      "v": 56
    },
    {
      "midi": 59,
      "hit": false,
      "t": 85945.85999999999,
      "d": 810.8099999999977,
      "v": 48
    },
    {
      "midi": 63,
      "hit": false,
      "t": 85945.85999999999,
      "d": 810.8099999999977,
      "v": 48
    },
    {
      "midi": 66,
      "hit": false,
      "t": 85945.85999999999,
      "d": 810.8099999999977,
      "v": 48
    },
    {
      "midi": 35,
      "hit": false,
      "t": 86756.66999999994,
      "d": 641.8912500000006,
      "v": 43
    },
    {
      "midi": 47,
      "hit": false,
      "t": 86756.66999999994,
      "d": 641.8912500000006,
      "v": 43
    },
    {
      "midi": 54,
      "hit": false,
      "t": 86756.66999999998,
      "d": 810.8099999999977,
      "v": 46
    },
    {
      "midi": 59,
      "hit": false,
      "t": 86756.66999999998,
      "d": 810.8099999999977,
      "v": 46
    },
    {
      "midi": 63,
      "hit": false,
      "t": 86756.66999999998,
      "d": 810.8099999999977,
      "v": 46
    },
    {
      "midi": 53,
      "hit": false,
      "t": 87567.47999999998,
      "d": 405.40499999999884,
      "v": 47
    },
    {
      "midi": 57,
      "hit": false,
      "t": 87567.47999999998,
      "d": 405.40499999999884,
      "v": 47
    },
    {
      "midi": 60,
      "hit": false,
      "t": 87567.47999999998,
      "d": 405.40499999999884,
      "v": 47
    },
    {
      "midi": 53,
      "hit": false,
      "t": 88378.28999999998,
      "d": 405.40499999999884,
      "v": 47
    },
    {
      "midi": 57,
      "hit": false,
      "t": 88378.28999999998,
      "d": 405.40499999999884,
      "v": 47
    },
    {
      "midi": 60,
      "hit": false,
      "t": 88378.28999999998,
      "d": 405.40499999999884,
      "v": 47
    },
    {
      "midi": 58,
      "hit": false,
      "t": 89189.09999999998,
      "d": 405.40499999999884,
      "v": 47
    },
    {
      "midi": 62,
      "hit": false,
      "t": 89189.09999999998,
      "d": 405.40499999999884,
      "v": 47
    },
    {
      "midi": 67,
      "hit": false,
      "t": 89189.09999999998,
      "d": 405.40499999999884,
      "v": 47
    },
    {
      "midi": 58,
      "hit": false,
      "t": 89999.90999999997,
      "d": 405.40499999999884,
      "v": 47
    },
    {
      "midi": 62,
      "hit": false,
      "t": 89999.90999999997,
      "d": 405.40499999999884,
      "v": 47
    },
    {
      "midi": 67,
      "hit": false,
      "t": 89999.90999999997,
      "d": 405.40499999999884,
      "v": 47
    },
    {
      "midi": 53,
      "hit": false,
      "t": 90810.71999999997,
      "d": 405.40499999999884,
      "v": 47
    },
    {
      "midi": 57,
      "hit": false,
      "t": 90810.71999999997,
      "d": 405.40499999999884,
      "v": 47
    },
    {
      "midi": 60,
      "hit": false,
      "t": 90810.71999999997,
      "d": 405.40499999999884,
      "v": 47
    },
    {
      "midi": 53,
      "hit": false,
      "t": 91621.52999999997,
      "d": 405.40499999999884,
      "v": 47
    },
    {
      "midi": 57,
      "hit": false,
      "t": 91621.52999999997,
      "d": 405.40499999999884,
      "v": 47
    },
    {
      "midi": 60,
      "hit": false,
      "t": 91621.52999999997,
      "d": 405.40499999999884,
      "v": 47
    },
    {
      "midi": 58,
      "hit": false,
      "t": 92432.33999999997,
      "d": 405.40499999999884,
      "v": 47
    },
    {
      "midi": 62,
      "hit": false,
      "t": 92432.33999999997,
      "d": 405.40499999999884,
      "v": 47
    },
    {
      "midi": 67,
      "hit": false,
      "t": 92432.33999999997,
      "d": 405.40499999999884,
      "v": 47
    },
    {
      "midi": 58,
      "hit": false,
      "t": 93243.14999999997,
      "d": 405.40499999999884,
      "v": 47
    },
    {
      "midi": 62,
      "hit": false,
      "t": 93243.14999999997,
      "d": 405.40499999999884,
      "v": 47
    },
    {
      "midi": 67,
      "hit": false,
      "t": 93243.14999999997,
      "d": 405.40499999999884,
      "v": 47
    },
    {
      "midi": 53,
      "hit": false,
      "t": 94053.95999999996,
      "d": 405.40499999999884,
      "v": 47
    },
    {
      "midi": 57,
      "hit": false,
      "t": 94053.95999999996,
      "d": 405.40499999999884,
      "v": 47
    },
    {
      "midi": 60,
      "hit": false,
      "t": 94053.95999999996,
      "d": 405.40499999999884,
      "v": 47
    },
    {
      "midi": 53,
      "hit": false,
      "t": 94864.76999999996,
      "d": 405.40499999999884,
      "v": 47
    },
    {
      "midi": 57,
      "hit": false,
      "t": 94864.76999999996,
      "d": 405.40499999999884,
      "v": 47
    },
    {
      "midi": 60,
      "hit": false,
      "t": 94864.76999999996,
      "d": 405.40499999999884,
      "v": 47
    },
    {
      "midi": 58,
      "hit": false,
      "t": 95675.57999999996,
      "d": 405.40499999999884,
      "v": 47
    },
    {
      "midi": 62,
      "hit": false,
      "t": 95675.57999999996,
      "d": 405.40499999999884,
      "v": 47
    },
    {
      "midi": 67,
      "hit": false,
      "t": 95675.57999999996,
      "d": 405.40499999999884,
      "v": 47
    },
    {
      "midi": 39,
      "hit": false,
      "t": 96283.68749999994,
      "d": 202.70249999999942,
      "v": 60
    },
    {
      "midi": 58,
      "hit": false,
      "t": 96486.38999999996,
      "d": 405.40499999999884,
      "v": 47
    },
    {
      "midi": 67,
      "hit": false,
      "t": 96486.38999999996,
      "d": 405.40499999999884,
      "v": 47
    },
    {
      "midi": 39,
      "hit": false,
      "t": 97094.49749999994,
      "d": 202.70249999999942,
      "v": 60
    },
    {
      "midi": 59,
      "hit": false,
      "t": 97297.19999999995,
      "d": 810.8099999999977,
      "v": 58
    },
    {
      "midi": 59,
      "hit": false,
      "t": 98513.41499999995,
      "d": 608.1074999999983,
      "v": 58
    },
    {
      "midi": 62,
      "hit": false,
      "t": 98513.41499999995,
      "d": 608.1074999999983,
      "v": 58
    },
    {
      "midi": 66,
      "hit": false,
      "t": 98513.41499999995,
      "d": 608.1074999999983,
      "v": 58
    },
    {
      "midi": 69,
      "hit": false,
      "t": 98513.41499999995,
      "d": 608.1074999999983,
      "v": 58
    },
    {
      "midi": 59,
      "hit": false,
      "t": 99526.92749999995,
      "d": 608.1074999999983,
      "v": 42
    },
    {
      "midi": 62,
      "hit": false,
      "t": 99526.92749999995,
      "d": 608.1074999999983,
      "v": 42
    },
    {
      "midi": 66,
      "hit": false,
      "t": 99526.92749999995,
      "d": 608.1074999999983,
      "v": 42
    },
    {
      "midi": 69,
      "hit": false,
      "t": 99526.92749999995,
      "d": 608.1074999999983,
      "v": 42
    },
    {
      "midi": 62,
      "hit": false,
      "t": 100540.43999999994,
      "d": 810.8099999999977,
      "v": 58
    },
    {
      "midi": 68,
      "hit": false,
      "t": 100540.43999999994,
      "d": 810.8099999999977,
      "v": 58
    },
    {
      "midi": 71,
      "hit": false,
      "t": 100540.43999999994,
      "d": 810.8099999999977,
      "v": 58
    },
    {
      "midi": 57,
      "hit": false,
      "t": 104594.48999999995,
      "d": 810.8099999999977,
      "v": 52
    },
    {
      "midi": 61,
      "hit": false,
      "t": 104594.48999999995,
      "d": 810.8099999999977,
      "v": 52
    },
    {
      "midi": 64,
      "hit": false,
      "t": 104594.48999999995,
      "d": 810.8099999999977,
      "v": 52
    },
    {
      "midi": 57,
      "hit": false,
      "t": 106216.10999999994,
      "d": 810.8099999999977,
      "v": 54
    },
    {
      "midi": 61,
      "hit": false,
      "t": 106216.10999999994,
      "d": 810.8099999999977,
      "v": 54
    },
    {
      "midi": 64,
      "hit": false,
      "t": 106216.10999999994,
      "d": 810.8099999999977,
      "v": 54
    },
    {
      "midi": 57,
      "hit": false,
      "t": 107026.91999999994,
      "d": 810.8099999999977,
      "v": 56
    },
    {
      "midi": 61,
      "hit": false,
      "t": 107026.91999999994,
      "d": 1013.5124999999971,
      "v": 56
    },
    {
      "midi": 66,
      "hit": false,
      "t": 107026.91999999994,
      "d": 1216.2149999999965,
      "v": 56
    },
    {
      "midi": 57,
      "hit": false,
      "t": 107837.72999999994,
      "d": 608.1074999999983,
      "v": 86
    },
    {
      "midi": 61,
      "hit": false,
      "t": 108040.43249999994,
      "d": 608.1074999999983,
      "v": 58
    },
    {
      "midi": 66,
      "hit": false,
      "t": 108243.13499999994,
      "d": 608.1074999999983,
      "v": 62
    },
    {
      "midi": 69,
      "hit": false,
      "t": 108445.83749999994,
      "d": 608.1074999999983,
      "v": 66
    },
    {
      "midi": 73,
      "hit": false,
      "t": 108648.53999999994,
      "d": 608.1074999999983,
      "v": 62
    },
    {
      "midi": 78,
      "hit": false,
      "t": 108851.24249999993,
      "d": 608.1074999999983,
      "v": 66
    },
    {
      "midi": 81,
      "hit": false,
      "t": 109053.94499999993,
      "d": 608.1074999999983,
      "v": 70
    },
    {
      "midi": 85,
      "hit": false,
      "t": 109256.64749999993,
      "d": 608.1074999999983,
      "v": 66
    },
    {
      "midi": 90,
      "hit": false,
      "t": 109459.34999999993,
      "d": 810.8099999999977,
      "v": 72
    },
    {
      "midi": 93,
      "hit": false,
      "t": 109662.05249999993,
      "d": 405.40499999999884,
      "v": 76
    },
    {
      "midi": 97,
      "hit": false,
      "t": 109864.75499999993,
      "d": 405.40499999999884,
      "v": 82
    },
    {
      "midi": 105,
      "hit": false,
      "t": 110067.45749999993,
      "d": 202.70249999999942,
      "v": 76
    },
    {
      "midi": 104,
      "hit": false,
      "t": 110270.15999999993,
      "d": 405.40499999999884,
      "v": 64
    },
    {
      "midi": 64,
      "hit": false,
      "t": 112702.58999999992,
      "d": 810.8099999999977,
      "v": 52
    },
    {
      "midi": 68,
      "hit": false,
      "t": 112702.58999999992,
      "d": 810.8099999999977,
      "v": 52
    },
    {
      "midi": 71,
      "hit": false,
      "t": 112702.58999999992,
      "d": 810.8099999999977,
      "v": 52
    },
    {
      "midi": 68,
      "hit": false,
      "t": 113513.39999999992,
      "d": 810.8099999999977,
      "v": 59
    },
    {
      "midi": 69,
      "hit": false,
      "t": 113513.39999999992,
      "d": 810.8099999999977,
      "v": 59
    },
    {
      "midi": 73,
      "hit": false,
      "t": 113513.39999999992,
      "d": 810.8099999999977,
      "v": 59
    },
    {
      "midi": 66,
      "hit": false,
      "t": 113918.80499999992,
      "d": 810.8099999999977,
      "v": 43
    },
    {
      "midi": 68,
      "hit": false,
      "t": 114324.20999999992,
      "d": 810.8099999999977,
      "v": 63
    },
    {
      "midi": 69,
      "hit": false,
      "t": 114324.20999999992,
      "d": 810.8099999999977,
      "v": 63
    },
    {
      "midi": 73,
      "hit": false,
      "t": 114324.20999999992,
      "d": 810.8099999999977,
      "v": 63
    },
    {
      "midi": 66,
      "hit": false,
      "t": 114729.61499999992,
      "d": 405.40499999999884,
      "v": 45
    },
    {
      "midi": 66,
      "hit": false,
      "t": 115135.01999999992,
      "d": 810.8099999999977,
      "v": 51
    },
    {
      "midi": 69,
      "hit": false,
      "t": 115135.01999999992,
      "d": 810.8099999999977,
      "v": 51
    },
    {
      "midi": 73,
      "hit": false,
      "t": 115135.01999999992,
      "d": 810.8099999999977,
      "v": 51
    },
    {
      "midi": 69,
      "hit": false,
      "t": 115945.82999999991,
      "d": 810.8099999999977,
      "v": 51
    },
    {
      "midi": 73,
      "hit": false,
      "t": 115945.82999999991,
      "d": 810.8099999999977,
      "v": 51
    },
    {
      "midi": 66,
      "hit": false,
      "t": 116756.63999999991,
      "d": 810.8099999999977,
      "v": 51
    },
    {
      "midi": 69,
      "hit": false,
      "t": 116756.63999999991,
      "d": 810.8099999999977,
      "v": 51
    },
    {
      "midi": 62,
      "hit": false,
      "t": 117567.44999999991,
      "d": 810.8099999999977,
      "v": 51
    },
    {
      "midi": 66,
      "hit": false,
      "t": 117567.44999999991,
      "d": 810.8099999999977,
      "v": 51
    },
    {
      "midi": 69,
      "hit": false,
      "t": 117567.44999999991,
      "d": 810.8099999999977,
      "v": 51
    },
    {
      "midi": 62,
      "hit": false,
      "t": 118378.25999999991,
      "d": 810.8099999999977,
      "v": 51
    },
    {
      "midi": 66,
      "hit": false,
      "t": 118378.25999999991,
      "d": 810.8099999999977,
      "v": 51
    },
    {
      "midi": 69,
      "hit": false,
      "t": 118378.25999999991,
      "d": 810.8099999999977,
      "v": 51
    },
    {
      "midi": 62,
      "hit": false,
      "t": 119189.0699999999,
      "d": 810.8099999999977,
      "v": 51
    },
    {
      "midi": 66,
      "hit": false,
      "t": 119189.0699999999,
      "d": 810.8099999999977,
      "v": 51
    },
    {
      "midi": 69,
      "hit": false,
      "t": 119189.0699999999,
      "d": 810.8099999999977,
      "v": 51
    },
    {
      "midi": 68,
      "hit": false,
      "t": 119999.8799999999,
      "d": 810.8099999999977,
      "v": 59
    },
    {
      "midi": 69,
      "hit": false,
      "t": 119999.8799999999,
      "d": 810.8099999999977,
      "v": 59
    },
    {
      "midi": 73,
      "hit": false,
      "t": 119999.8799999999,
      "d": 810.8099999999977,
      "v": 59
    },
    {
      "midi": 66,
      "hit": false,
      "t": 120405.2849999999,
      "d": 810.8099999999977,
      "v": 43
    },
    {
      "midi": 68,
      "hit": false,
      "t": 120810.6899999999,
      "d": 810.8099999999977,
      "v": 63
    },
    {
      "midi": 69,
      "hit": false,
      "t": 120810.6899999999,
      "d": 810.8099999999977,
      "v": 63
    },
    {
      "midi": 73,
      "hit": false,
      "t": 120810.6899999999,
      "d": 810.8099999999977,
      "v": 63
    },
    {
      "midi": 66,
      "hit": false,
      "t": 121216.0949999999,
      "d": 405.40499999999884,
      "v": 45
    },
    {
      "midi": 66,
      "hit": false,
      "t": 121621.4999999999,
      "d": 810.8099999999977,
      "v": 51
    },
    {
      "midi": 69,
      "hit": false,
      "t": 121621.4999999999,
      "d": 810.8099999999977,
      "v": 51
    },
    {
      "midi": 73,
      "hit": false,
      "t": 121621.4999999999,
      "d": 810.8099999999977,
      "v": 51
    },
    {
      "midi": 69,
      "hit": false,
      "t": 122432.3099999999,
      "d": 810.8099999999977,
      "v": 51
    },
    {
      "midi": 73,
      "hit": false,
      "t": 122432.3099999999,
      "d": 810.8099999999977,
      "v": 51
    },
    {
      "midi": 66,
      "hit": false,
      "t": 123243.1199999999,
      "d": 810.8099999999977,
      "v": 56
    },
    {
      "midi": 69,
      "hit": false,
      "t": 123243.1199999999,
      "d": 810.8099999999977,
      "v": 56
    },
    {
      "midi": 62,
      "hit": false,
      "t": 124053.92999999989,
      "d": 810.8099999999977,
      "v": 51
    },
    {
      "midi": 66,
      "hit": false,
      "t": 124053.92999999989,
      "d": 810.8099999999977,
      "v": 51
    },
    {
      "midi": 69,
      "hit": false,
      "t": 124053.92999999989,
      "d": 810.8099999999977,
      "v": 51
    },
    {
      "midi": 62,
      "hit": false,
      "t": 124864.73999999989,
      "d": 810.8099999999977,
      "v": 54
    },
    {
      "midi": 66,
      "hit": false,
      "t": 124864.73999999989,
      "d": 810.8099999999977,
      "v": 54
    },
    {
      "midi": 69,
      "hit": false,
      "t": 124864.73999999989,
      "d": 810.8099999999977,
      "v": 54
    },
    {
      "midi": 62,
      "hit": false,
      "t": 125675.54999999989,
      "d": 810.8099999999977,
      "v": 62
    },
    {
      "midi": 66,
      "hit": false,
      "t": 125675.54999999989,
      "d": 810.8099999999977,
      "v": 62
    },
    {
      "midi": 69,
      "hit": false,
      "t": 125675.54999999989,
      "d": 810.8099999999977,
      "v": 62
    },
    {
      "midi": 40,
      "hit": false,
      "t": 126486.35999999994,
      "d": 810.8099999999977,
      "v": 60
    },
    {
      "midi": 47,
      "hit": false,
      "t": 126486.35999999994,
      "d": 810.8099999999977,
      "v": 60
    },
    {
      "midi": 52,
      "hit": false,
      "t": 126486.35999999994,
      "d": 810.8099999999977,
      "v": 60
    },
    {
      "midi": 52,
      "hit": false,
      "t": 127297.16999999994,
      "d": 810.8099999999977,
      "v": 64
    },
    {
      "midi": 59,
      "hit": false,
      "t": 127297.16999999994,
      "d": 810.8099999999977,
      "v": 64
    },
    {
      "midi": 64,
      "hit": false,
      "t": 127297.16999999994,
      "d": 810.8099999999977,
      "v": 64
    },
    {
      "midi": 40,
      "hit": false,
      "t": 128107.97999999994,
      "d": 371.6212499999965,
      "v": 66
    },
    {
      "midi": 52,
      "hit": false,
      "t": 128293.79062499994,
      "d": 371.6212499999965,
      "v": 58
    },
    {
      "midi": 64,
      "hit": false,
      "t": 128479.60124999993,
      "d": 371.6212499999965,
      "v": 66
    },
    {
      "midi": 52,
      "hit": false,
      "t": 128665.41187499993,
      "d": 371.6212499999965,
      "v": 58
    },
    {
      "midi": 40,
      "hit": false,
      "t": 128851.22249999993,
      "d": 371.6212499999965,
      "v": 66
    },
    {
      "midi": 52,
      "hit": false,
      "t": 129037.03312499993,
      "d": 608.1074999999983,
      "v": 64
    },
    {
      "midi": 64,
      "hit": false,
      "t": 129222.84374999993,
      "d": 422.296875,
      "v": 64
    },
    {
      "midi": 57,
      "hit": false,
      "t": 129729.59999999989,
      "d": 675.6750000000029,
      "v": 58
    },
    {
      "midi": 61,
      "hit": false,
      "t": 129729.59999999989,
      "d": 675.6750000000029,
      "v": 58
    },
    {
      "midi": 64,
      "hit": false,
      "t": 129729.59999999989,
      "d": 675.6750000000029,
      "v": 58
    },
    {
      "midi": 33,
      "hit": false,
      "t": 129729.59999999993,
      "d": 810.8099999999977,
      "v": 78
    },
    {
      "midi": 45,
      "hit": false,
      "t": 129729.59999999993,
      "d": 810.8099999999977,
      "v": 78
    },
    {
      "midi": 57,
      "hit": false,
      "t": 130540.40999999989,
      "d": 675.6749999999884,
      "v": 56
    },
    {
      "midi": 61,
      "hit": false,
      "t": 130540.40999999989,
      "d": 675.6749999999884,
      "v": 56
    },
    {
      "midi": 64,
      "hit": false,
      "t": 130540.40999999989,
      "d": 675.6749999999884,
      "v": 56
    },
    {
      "midi": 57,
      "hit": false,
      "t": 131351.21999999988,
      "d": 675.6749999999884,
      "v": 58
    },
    {
      "midi": 61,
      "hit": false,
      "t": 131351.21999999988,
      "d": 675.6749999999884,
      "v": 58
    },
    {
      "midi": 66,
      "hit": false,
      "t": 131351.21999999988,
      "d": 675.6749999999884,
      "v": 58
    },
    {
      "midi": 38,
      "hit": false,
      "t": 131351.21999999994,
      "d": 810.8099999999977,
      "v": 78
    },
    {
      "midi": 50,
      "hit": false,
      "t": 131351.21999999994,
      "d": 810.8099999999977,
      "v": 78
    },
    {
      "midi": 61,
      "hit": false,
      "t": 132162.02999999988,
      "d": 675.6749999999884,
      "v": 56
    },
    {
      "midi": 66,
      "hit": false,
      "t": 132162.02999999988,
      "d": 675.6749999999884,
      "v": 56
    },
    {
      "midi": 69,
      "hit": false,
      "t": 132162.02999999988,
      "d": 675.6749999999884,
      "v": 56
    },
    {
      "midi": 45,
      "hit": false,
      "t": 132972.83999999994,
      "d": 270.2699999999895,
      "v": 78
    },
    {
      "midi": 57,
      "hit": false,
      "t": 132972.83999999994,
      "d": 270.2699999999895,
      "v": 78
    },
    {
      "midi": 40,
      "hit": false,
      "t": 133378.24499999994,
      "d": 270.2699999999895,
      "v": 64
    },
    {
      "midi": 52,
      "hit": false,
      "t": 133378.24499999994,
      "d": 270.2699999999895,
      "v": 64
    },
    {
      "midi": 33,
      "hit": false,
      "t": 133783.64999999994,
      "d": 675.6749999999884,
      "v": 78
    },
    {
      "midi": 45,
      "hit": false,
      "t": 133783.64999999994,
      "d": 675.6749999999884,
      "v": 78
    },
    {
      "midi": 57,
      "hit": false,
      "t": 134594.45999999988,
      "d": 675.6749999999884,
      "v": 52
    },
    {
      "midi": 61,
      "hit": false,
      "t": 134594.45999999988,
      "d": 675.6749999999884,
      "v": 52
    },
    {
      "midi": 66,
      "hit": false,
      "t": 134594.45999999988,
      "d": 675.6749999999884,
      "v": 52
    },
    {
      "midi": 38,
      "hit": false,
      "t": 134594.45999999993,
      "d": 675.6749999999884,
      "v": 64
    },
    {
      "midi": 50,
      "hit": false,
      "t": 134594.45999999993,
      "d": 675.6749999999884,
      "v": 64
    },
    {
      "midi": 59,
      "hit": false,
      "t": 135405.26999999987,
      "d": 675.6749999999884,
      "v": 50
    },
    {
      "midi": 62,
      "hit": false,
      "t": 135405.26999999987,
      "d": 675.6749999999884,
      "v": 50
    },
    {
      "midi": 68,
      "hit": false,
      "t": 135405.26999999987,
      "d": 675.6749999999884,
      "v": 50
    },
    {
      "midi": 40,
      "hit": false,
      "t": 135405.26999999993,
      "d": 675.6749999999884,
      "v": 78
    },
    {
      "midi": 52,
      "hit": false,
      "t": 135405.26999999993,
      "d": 675.6749999999884,
      "v": 78
    },
    {
      "midi": 54,
      "hit": false,
      "t": 136216.07999999987,
      "d": 641.891249999986,
      "v": 52
    },
    {
      "midi": 58,
      "hit": false,
      "t": 136216.07999999987,
      "d": 641.891249999986,
      "v": 52
    },
    {
      "midi": 61,
      "hit": false,
      "t": 136216.07999999987,
      "d": 641.891249999986,
      "v": 52
    },
    {
      "midi": 42,
      "hit": false,
      "t": 136216.07999999993,
      "d": 641.891249999986,
      "v": 43
    },
    {
      "midi": 54,
      "hit": false,
      "t": 137026.88999999987,
      "d": 641.891249999986,
      "v": 52
    },
    {
      "midi": 58,
      "hit": false,
      "t": 137026.88999999987,
      "d": 641.891249999986,
      "v": 52
    },
    {
      "midi": 61,
      "hit": false,
      "t": 137026.88999999987,
      "d": 641.891249999986,
      "v": 52
    },
    {
      "midi": 42,
      "hit": false,
      "t": 137026.88999999993,
      "d": 641.891249999986,
      "v": 43
    },
    {
      "midi": 54,
      "hit": false,
      "t": 137837.69999999987,
      "d": 304.05374999999185,
      "v": 52
    },
    {
      "midi": 59,
      "hit": false,
      "t": 137837.69999999987,
      "d": 304.05374999999185,
      "v": 52
    },
    {
      "midi": 63,
      "hit": false,
      "t": 137837.69999999987,
      "d": 304.05374999999185,
      "v": 52
    },
    {
      "midi": 35,
      "hit": false,
      "t": 137837.69999999992,
      "d": 641.891249999986,
      "v": 43
    },
    {
      "midi": 47,
      "hit": false,
      "t": 137837.69999999992,
      "d": 641.891249999986,
      "v": 43
    },
    {
      "midi": 59,
      "hit": false,
      "t": 138243.10499999986,
      "d": 101.35125000000698,
      "v": 62
    },
    {
      "midi": 54,
      "hit": false,
      "t": 138445.80749999988,
      "d": 101.35125000000698,
      "v": 52
    },
    {
      "midi": 59,
      "hit": false,
      "t": 138445.80749999988,
      "d": 101.35125000000698,
      "v": 52
    },
    {
      "midi": 63,
      "hit": false,
      "t": 138445.80749999988,
      "d": 101.35125000000698,
      "v": 52
    },
    {
      "midi": 54,
      "hit": false,
      "t": 138648.5099999999,
      "d": 304.05374999999185,
      "v": 52
    },
    {
      "midi": 59,
      "hit": false,
      "t": 138648.5099999999,
      "d": 304.05374999999185,
      "v": 52
    },
    {
      "midi": 63,
      "hit": false,
      "t": 138648.5099999999,
      "d": 304.05374999999185,
      "v": 52
    },
    {
      "midi": 47,
      "hit": false,
      "t": 138648.50999999992,
      "d": 641.891249999986,
      "v": 43
    },
    {
      "midi": 59,
      "hit": false,
      "t": 139053.9149999999,
      "d": 101.35125000000698,
      "v": 62
    },
    {
      "midi": 54,
      "hit": false,
      "t": 139256.6174999999,
      "d": 101.35125000000698,
      "v": 52
    },
    {
      "midi": 59,
      "hit": false,
      "t": 139256.6174999999,
      "d": 101.35125000000698,
      "v": 52
    },
    {
      "midi": 63,
      "hit": false,
      "t": 139256.6174999999,
      "d": 101.35125000000698,
      "v": 52
    },
    {
      "midi": 42,
      "hit": false,
      "t": 139459.31999999992,
      "d": 641.891249999986,
      "v": 35
    },
    {
      "midi": 54,
      "hit": false,
      "t": 139459.31999999992,
      "d": 641.891249999986,
      "v": 35
    },
    {
      "midi": 54,
      "hit": false,
      "t": 139459.31999999992,
      "d": 641.891249999986,
      "v": 52
    },
    {
      "midi": 58,
      "hit": false,
      "t": 139459.31999999992,
      "d": 641.891249999986,
      "v": 52
    },
    {
      "midi": 61,
      "hit": false,
      "t": 139459.31999999992,
      "d": 641.891249999986,
      "v": 52
    },
    {
      "midi": 42,
      "hit": false,
      "t": 140270.12999999992,
      "d": 641.891249999986,
      "v": 35
    },
    {
      "midi": 54,
      "hit": false,
      "t": 140270.12999999992,
      "d": 641.891249999986,
      "v": 35
    },
    {
      "midi": 54,
      "hit": false,
      "t": 140270.12999999992,
      "d": 641.891249999986,
      "v": 52
    },
    {
      "midi": 58,
      "hit": false,
      "t": 140270.12999999992,
      "d": 641.891249999986,
      "v": 52
    },
    {
      "midi": 61,
      "hit": false,
      "t": 140270.12999999992,
      "d": 641.891249999986,
      "v": 52
    },
    {
      "midi": 35,
      "hit": false,
      "t": 141080.93999999992,
      "d": 641.891249999986,
      "v": 35
    },
    {
      "midi": 47,
      "hit": false,
      "t": 141080.93999999992,
      "d": 641.891249999986,
      "v": 35
    },
    {
      "midi": 54,
      "hit": false,
      "t": 141080.93999999992,
      "d": 304.05374999999185,
      "v": 58
    },
    {
      "midi": 58,
      "hit": false,
      "t": 141080.93999999992,
      "d": 304.05374999999185,
      "v": 58
    },
    {
      "midi": 63,
      "hit": false,
      "t": 141080.93999999992,
      "d": 304.05374999999185,
      "v": 58
    },
    {
      "midi": 47,
      "hit": false,
      "t": 141486.3449999999,
      "d": 101.35125000000698,
      "v": 68
    },
    {
      "midi": 58,
      "hit": false,
      "t": 141689.04749999993,
      "d": 101.35125000000698,
      "v": 58
    },
    {
      "midi": 63,
      "hit": false,
      "t": 141689.04749999993,
      "d": 101.35125000000698,
      "v": 58
    },
    {
      "midi": 35,
      "hit": false,
      "t": 141891.7499999999,
      "d": 641.891249999986,
      "v": 35
    },
    {
      "midi": 47,
      "hit": false,
      "t": 141891.7499999999,
      "d": 641.891249999986,
      "v": 35
    },
    {
      "midi": 54,
      "hit": false,
      "t": 141891.74999999994,
      "d": 304.05374999999185,
      "v": 58
    },
    {
      "midi": 58,
      "hit": false,
      "t": 141891.74999999994,
      "d": 304.05374999999185,
      "v": 58
    },
    {
      "midi": 63,
      "hit": false,
      "t": 141891.74999999994,
      "d": 304.05374999999185,
      "v": 58
    },
    {
      "midi": 59,
      "hit": false,
      "t": 142297.15499999994,
      "d": 101.35125000000698,
      "v": 68
    },
    {
      "midi": 54,
      "hit": false,
      "t": 142499.85749999995,
      "d": 101.35125000000698,
      "v": 58
    },
    {
      "midi": 59,
      "hit": false,
      "t": 142499.85749999995,
      "d": 101.35125000000698,
      "v": 58
    },
    {
      "midi": 30,
      "hit": false,
      "t": 142702.5599999999,
      "d": 641.891249999986,
      "v": 63
    },
    {
      "midi": 42,
      "hit": false,
      "t": 142702.5599999999,
      "d": 641.891249999986,
      "v": 63
    },
    {
      "midi": 42,
      "hit": false,
      "t": 143513.3699999999,
      "d": 641.891249999986,
      "v": 47
    },
    {
      "midi": 54,
      "hit": false,
      "t": 143513.3699999999,
      "d": 641.891249999986,
      "v": 47
    },
    {
      "midi": 54,
      "hit": false,
      "t": 143513.36999999997,
      "d": 675.6749999999884,
      "v": 52
    },
    {
      "midi": 58,
      "hit": false,
      "t": 143513.36999999997,
      "d": 675.6749999999884,
      "v": 52
    },
    {
      "midi": 61,
      "hit": false,
      "t": 143513.36999999997,
      "d": 675.6749999999884,
      "v": 52
    },
    {
      "midi": 35,
      "hit": false,
      "t": 144324.1799999999,
      "d": 641.891249999986,
      "v": 47
    },
    {
      "midi": 47,
      "hit": false,
      "t": 144324.1799999999,
      "d": 641.891249999986,
      "v": 47
    },
    {
      "midi": 54,
      "hit": false,
      "t": 144324.17999999996,
      "d": 405.40499999999884,
      "v": 52
    },
    {
      "midi": 59,
      "hit": false,
      "t": 144324.17999999996,
      "d": 405.40499999999884,
      "v": 52
    },
    {
      "midi": 63,
      "hit": false,
      "t": 144324.17999999996,
      "d": 405.40499999999884,
      "v": 52
    },
    {
      "midi": 59,
      "hit": false,
      "t": 144729.58499999996,
      "d": 202.70250000001397,
      "v": 62
    },
    {
      "midi": 54,
      "hit": false,
      "t": 144932.28749999998,
      "d": 202.70250000001397,
      "v": 52
    },
    {
      "midi": 59,
      "hit": false,
      "t": 144932.28749999998,
      "d": 202.70250000001397,
      "v": 52
    },
    {
      "midi": 63,
      "hit": false,
      "t": 144932.28749999998,
      "d": 202.70250000001397,
      "v": 52
    },
    {
      "midi": 35,
      "hit": false,
      "t": 145134.9899999999,
      "d": 641.891249999986,
      "v": 47
    },
    {
      "midi": 47,
      "hit": false,
      "t": 145134.9899999999,
      "d": 641.891249999986,
      "v": 47
    },
    {
      "midi": 54,
      "hit": false,
      "t": 145134.99,
      "d": 405.40499999999884,
      "v": 52
    },
    {
      "midi": 59,
      "hit": false,
      "t": 145134.99,
      "d": 405.40499999999884,
      "v": 52
    },
    {
      "midi": 63,
      "hit": false,
      "t": 145134.99,
      "d": 405.40499999999884,
      "v": 52
    },
    {
      "midi": 59,
      "hit": false,
      "t": 145540.395,
      "d": 202.70250000001397,
      "v": 62
    },
    {
      "midi": 54,
      "hit": false,
      "t": 145743.0975,
      "d": 202.70250000001397,
      "v": 52
    },
    {
      "midi": 59,
      "hit": false,
      "t": 145743.0975,
      "d": 202.70250000001397,
      "v": 52
    },
    {
      "midi": 63,
      "hit": false,
      "t": 145743.0975,
      "d": 202.70250000001397,
      "v": 52
    },
    {
      "midi": 42,
      "hit": false,
      "t": 145945.7999999999,
      "d": 641.891249999986,
      "v": 51
    },
    {
      "midi": 54,
      "hit": false,
      "t": 145945.80000000002,
      "d": 675.6749999999884,
      "v": 46
    },
    {
      "midi": 58,
      "hit": false,
      "t": 145945.80000000002,
      "d": 675.6749999999884,
      "v": 46
    },
    {
      "midi": 61,
      "hit": false,
      "t": 145945.80000000002,
      "d": 675.6749999999884,
      "v": 46
    },
    {
      "midi": 68,
      "hit": false,
      "t": 146351.205,
      "d": 202.70250000001397,
      "v": 62
    },
    {
      "midi": 71,
      "hit": false,
      "t": 146351.205,
      "d": 202.70250000001397,
      "v": 62
    },
    {
      "midi": 70,
      "hit": false,
      "t": 146553.9075,
      "d": 202.70250000001397,
      "v": 66
    },
    {
      "midi": 73,
      "hit": false,
      "t": 146553.9075,
      "d": 202.70250000001397,
      "v": 66
    },
    {
      "midi": 42,
      "hit": false,
      "t": 146756.6099999999,
      "d": 641.891249999986,
      "v": 51
    },
    {
      "midi": 54,
      "hit": false,
      "t": 146756.61000000002,
      "d": 675.6749999999884,
      "v": 46
    },
    {
      "midi": 58,
      "hit": false,
      "t": 146756.61000000002,
      "d": 675.6749999999884,
      "v": 46
    },
    {
      "midi": 61,
      "hit": false,
      "t": 146756.61000000002,
      "d": 675.6749999999884,
      "v": 46
    },
    {
      "midi": 66,
      "hit": false,
      "t": 146756.61000000002,
      "d": 810.8099999999977,
      "v": 58
    },
    {
      "midi": 70,
      "hit": false,
      "t": 146756.61000000002,
      "d": 810.8099999999977,
      "v": 58
    },
    {
      "midi": 35,
      "hit": false,
      "t": 147567.4199999999,
      "d": 641.891249999986,
      "v": 51
    },
    {
      "midi": 54,
      "hit": false,
      "t": 147567.42,
      "d": 810.8099999999977,
      "v": 56
    },
    {
      "midi": 59,
      "hit": false,
      "t": 147567.42,
      "d": 810.8099999999977,
      "v": 56
    },
    {
      "midi": 63,
      "hit": false,
      "t": 147567.42,
      "d": 810.8099999999977,
      "v": 56
    },
    {
      "midi": 59,
      "hit": false,
      "t": 147567.42,
      "d": 810.8099999999977,
      "v": 48
    },
    {
      "midi": 63,
      "hit": false,
      "t": 147567.42,
      "d": 810.8099999999977,
      "v": 48
    },
    {
      "midi": 66,
      "hit": false,
      "t": 147567.42,
      "d": 810.8099999999977,
      "v": 48
    },
    {
      "midi": 35,
      "hit": false,
      "t": 148378.2299999999,
      "d": 641.891249999986,
      "v": 51
    },
    {
      "midi": 54,
      "hit": false,
      "t": 148378.23,
      "d": 810.8099999999977,
      "v": 46
    },
    {
      "midi": 59,
      "hit": false,
      "t": 148378.23,
      "d": 810.8099999999977,
      "v": 46
    },
    {
      "midi": 63,
      "hit": false,
      "t": 148378.23,
      "d": 810.8099999999977,
      "v": 46
    },
    {
      "midi": 53,
      "hit": false,
      "t": 149189.04,
      "d": 405.40499999999884,
      "v": 47
    },
    {
      "midi": 57,
      "hit": false,
      "t": 149189.04,
      "d": 405.40499999999884,
      "v": 47
    },
    {
      "midi": 60,
      "hit": false,
      "t": 149189.04,
      "d": 405.40499999999884,
      "v": 47
    },
    {
      "midi": 53,
      "hit": false,
      "t": 149999.85,
      "d": 405.40499999999884,
      "v": 47
    },
    {
      "midi": 57,
      "hit": false,
      "t": 149999.85,
      "d": 405.40499999999884,
      "v": 47
    },
    {
      "midi": 60,
      "hit": false,
      "t": 149999.85,
      "d": 405.40499999999884,
      "v": 47
    },
    {
      "midi": 58,
      "hit": false,
      "t": 150810.66,
      "d": 405.40499999999884,
      "v": 47
    },
    {
      "midi": 62,
      "hit": false,
      "t": 150810.66,
      "d": 405.40499999999884,
      "v": 47
    },
    {
      "midi": 67,
      "hit": false,
      "t": 150810.66,
      "d": 405.40499999999884,
      "v": 47
    },
    {
      "midi": 58,
      "hit": false,
      "t": 151621.47,
      "d": 405.40499999999884,
      "v": 47
    },
    {
      "midi": 62,
      "hit": false,
      "t": 151621.47,
      "d": 405.40499999999884,
      "v": 47
    },
    {
      "midi": 67,
      "hit": false,
      "t": 151621.47,
      "d": 405.40499999999884,
      "v": 47
    },
    {
      "midi": 53,
      "hit": false,
      "t": 152432.28,
      "d": 405.40499999999884,
      "v": 47
    },
    {
      "midi": 57,
      "hit": false,
      "t": 152432.28,
      "d": 405.40499999999884,
      "v": 47
    },
    {
      "midi": 60,
      "hit": false,
      "t": 152432.28,
      "d": 405.40499999999884,
      "v": 47
    },
    {
      "midi": 53,
      "hit": false,
      "t": 153243.09,
      "d": 405.40499999999884,
      "v": 47
    },
    {
      "midi": 57,
      "hit": false,
      "t": 153243.09,
      "d": 405.40499999999884,
      "v": 47
    },
    {
      "midi": 60,
      "hit": false,
      "t": 153243.09,
      "d": 405.40499999999884,
      "v": 47
    },
    {
      "midi": 58,
      "hit": false,
      "t": 154053.9,
      "d": 405.40499999999884,
      "v": 47
    },
    {
      "midi": 62,
      "hit": false,
      "t": 154053.9,
      "d": 405.40499999999884,
      "v": 47
    },
    {
      "midi": 67,
      "hit": false,
      "t": 154053.9,
      "d": 405.40499999999884,
      "v": 47
    },
    {
      "midi": 58,
      "hit": false,
      "t": 154864.71,
      "d": 405.40499999999884,
      "v": 47
    },
    {
      "midi": 62,
      "hit": false,
      "t": 154864.71,
      "d": 405.40499999999884,
      "v": 47
    },
    {
      "midi": 67,
      "hit": false,
      "t": 154864.71,
      "d": 405.40499999999884,
      "v": 47
    },
    {
      "midi": 53,
      "hit": false,
      "t": 155675.52,
      "d": 405.40499999999884,
      "v": 47
    },
    {
      "midi": 57,
      "hit": false,
      "t": 155675.52,
      "d": 405.40499999999884,
      "v": 47
    },
    {
      "midi": 60,
      "hit": false,
      "t": 155675.52,
      "d": 405.40499999999884,
      "v": 47
    },
    {
      "midi": 53,
      "hit": false,
      "t": 156486.33,
      "d": 405.40499999999884,
      "v": 47
    },
    {
      "midi": 57,
      "hit": false,
      "t": 156486.33,
      "d": 405.40499999999884,
      "v": 47
    },
    {
      "midi": 60,
      "hit": false,
      "t": 156486.33,
      "d": 405.40499999999884,
      "v": 47
    },
    {
      "midi": 58,
      "hit": false,
      "t": 157297.13999999998,
      "d": 405.40499999999884,
      "v": 47
    },
    {
      "midi": 62,
      "hit": false,
      "t": 157297.13999999998,
      "d": 405.40499999999884,
      "v": 47
    },
    {
      "midi": 67,
      "hit": false,
      "t": 157297.13999999998,
      "d": 405.40499999999884,
      "v": 47
    },
    {
      "midi": 39,
      "hit": false,
      "t": 157905.24749999988,
      "d": 202.70250000001397,
      "v": 60
    },
    {
      "midi": 58,
      "hit": false,
      "t": 158107.94999999998,
      "d": 405.40499999999884,
      "v": 47
    },
    {
      "midi": 62,
      "hit": false,
      "t": 158107.94999999998,
      "d": 405.40499999999884,
      "v": 47
    },
    {
      "midi": 67,
      "hit": false,
      "t": 158107.94999999998,
      "d": 405.40499999999884,
      "v": 47
    },
    {
      "midi": 39,
      "hit": false,
      "t": 158716.0574999999,
      "d": 202.70250000001397,
      "v": 60
    },
    {
      "midi": 59,
      "hit": false,
      "t": 158918.75999999998,
      "d": 810.8099999999977,
      "v": 58
    },
    {
      "midi": 69,
      "hit": false,
      "t": 158918.75999999998,
      "d": 810.8099999999977,
      "v": 58
    },
    {
      "midi": 59,
      "hit": false,
      "t": 160134.97499999998,
      "d": 608.1075000000128,
      "v": 58
    },
    {
      "midi": 66,
      "hit": false,
      "t": 160134.97499999998,
      "d": 608.1075000000128,
      "v": 58
    },
    {
      "midi": 69,
      "hit": false,
      "t": 160134.97499999998,
      "d": 608.1075000000128,
      "v": 58
    },
    {
      "midi": 59,
      "hit": false,
      "t": 161148.4875,
      "d": 608.1075000000128,
      "v": 42
    },
    {
      "midi": 62,
      "hit": false,
      "t": 161148.4875,
      "d": 608.1075000000128,
      "v": 42
    },
    {
      "midi": 66,
      "hit": false,
      "t": 161148.4875,
      "d": 608.1075000000128,
      "v": 42
    },
    {
      "midi": 69,
      "hit": false,
      "t": 161148.4875,
      "d": 608.1075000000128,
      "v": 42
    },
    {
      "midi": 52,
      "hit": false,
      "t": 162161.9999999999,
      "d": 1621.6199999999953,
      "v": 50
    },
    {
      "midi": 59,
      "hit": false,
      "t": 162161.9999999999,
      "d": 1621.6199999999953,
      "v": 50
    },
    {
      "midi": 64,
      "hit": false,
      "t": 162161.9999999999,
      "d": 1621.6199999999953,
      "v": 50
    },
    {
      "midi": 62,
      "hit": false,
      "t": 162162,
      "d": 810.8099999999977,
      "v": 58
    },
    {
      "midi": 64,
      "hit": false,
      "t": 162162,
      "d": 810.8099999999977,
      "v": 58
    },
    {
      "midi": 68,
      "hit": false,
      "t": 162162,
      "d": 810.8099999999977,
      "v": 58
    },
    {
      "midi": 71,
      "hit": false,
      "t": 162162,
      "d": 810.8099999999977,
      "v": 58
    },
    {
      "midi": 71,
      "hit": false,
      "t": 168243.075,
      "d": 405.40499999999884,
      "v": 44
    },
    {
      "midi": 73,
      "hit": false,
      "t": 168648.48,
      "d": 810.8099999999977,
      "v": 40
    },
    {
      "midi": 57,
      "hit": false,
      "t": 169459.29,
      "d": 810.8099999999977,
      "v": 44
    },
    {
      "midi": 61,
      "hit": false,
      "t": 169459.29,
      "d": 810.8099999999977,
      "v": 44
    },
    {
      "midi": 64,
      "hit": false,
      "t": 169459.29,
      "d": 810.8099999999977,
      "v": 44
    },
    {
      "midi": 57,
      "hit": false,
      "t": 171080.91,
      "d": 810.8099999999977,
      "v": 46
    },
    {
      "midi": 61,
      "hit": false,
      "t": 171080.91,
      "d": 810.8099999999977,
      "v": 46
    },
    {
      "midi": 64,
      "hit": false,
      "t": 171080.91,
      "d": 810.8099999999977,
      "v": 46
    },
    {
      "midi": 57,
      "hit": false,
      "t": 171891.72,
      "d": 810.8099999999977,
      "v": 48
    },
    {
      "midi": 61,
      "hit": false,
      "t": 171891.72,
      "d": 1013.5125000000116,
      "v": 48
    },
    {
      "midi": 66,
      "hit": false,
      "t": 171891.72,
      "d": 1216.2150000000256,
      "v": 48
    },
    {
      "midi": 57,
      "hit": false,
      "t": 172702.53,
      "d": 608.1075000000419,
      "v": 62
    },
    {
      "midi": 61,
      "hit": false,
      "t": 172905.2325,
      "d": 608.1075000000419,
      "v": 40
    },
    {
      "midi": 66,
      "hit": false,
      "t": 173107.93500000003,
      "d": 608.1075000000419,
      "v": 44
    },
    {
      "midi": 69,
      "hit": false,
      "t": 173310.63750000004,
      "d": 608.1075000000419,
      "v": 48
    },
    {
      "midi": 73,
      "hit": false,
      "t": 173513.34000000005,
      "d": 608.1075000000419,
      "v": 44
    },
    {
      "midi": 78,
      "hit": false,
      "t": 173716.04250000007,
      "d": 608.1075000000419,
      "v": 48
    },
    {
      "midi": 81,
      "hit": false,
      "t": 173918.74500000008,
      "d": 608.1075000000419,
      "v": 52
    },
    {
      "midi": 85,
      "hit": false,
      "t": 174121.4475000001,
      "d": 608.1075000000419,
      "v": 58
    },
    {
      "midi": 90,
      "hit": false,
      "t": 174324.1500000001,
      "d": 810.8100000000559,
      "v": 64
    },
    {
      "midi": 93,
      "hit": false,
      "t": 174526.85250000012,
      "d": 405.40500000002794,
      "v": 68
    },
    {
      "midi": 97,
      "hit": false,
      "t": 174729.55500000014,
      "d": 405.40500000002794,
      "v": 74
    },
    {
      "midi": 105,
      "hit": false,
      "t": 174932.25750000015,
      "d": 202.70250000001397,
      "v": 68
    },
    {
      "midi": 104,
      "hit": false,
      "t": 175134.96000000017,
      "d": 405.40499999999884,
      "v": 56
    },
    {
      "midi": 64,
      "hit": false,
      "t": 177567.39000000016,
      "d": 810.8099999999977,
      "v": 52
    },
    {
      "midi": 68,
      "hit": false,
      "t": 177567.39000000016,
      "d": 810.8099999999977,
      "v": 52
    },
    {
      "midi": 71,
      "hit": false,
      "t": 177567.39000000016,
      "d": 810.8099999999977,
      "v": 52
    },
    {
      "midi": 68,
      "hit": false,
      "t": 178378.20000000016,
      "d": 810.8099999999977,
      "v": 59
    },
    {
      "midi": 69,
      "hit": false,
      "t": 178378.20000000016,
      "d": 810.8099999999977,
      "v": 59
    },
    {
      "midi": 73,
      "hit": false,
      "t": 178378.20000000016,
      "d": 810.8099999999977,
      "v": 59
    },
    {
      "midi": 66,
      "hit": false,
      "t": 178783.60500000016,
      "d": 810.8099999999977,
      "v": 43
    },
    {
      "midi": 68,
      "hit": false,
      "t": 179189.01000000015,
      "d": 810.8099999999977,
      "v": 63
    },
    {
      "midi": 69,
      "hit": false,
      "t": 179189.01000000015,
      "d": 810.8099999999977,
      "v": 63
    },
    {
      "midi": 73,
      "hit": false,
      "t": 179189.01000000015,
      "d": 810.8099999999977,
      "v": 63
    },
    {
      "midi": 66,
      "hit": false,
      "t": 179594.41500000015,
      "d": 405.40499999999884,
      "v": 45
    },
    {
      "midi": 66,
      "hit": false,
      "t": 179999.82000000015,
      "d": 810.8099999999977,
      "v": 51
    },
    {
      "midi": 69,
      "hit": false,
      "t": 179999.82000000015,
      "d": 810.8099999999977,
      "v": 51
    },
    {
      "midi": 73,
      "hit": false,
      "t": 179999.82000000015,
      "d": 810.8099999999977,
      "v": 51
    },
    {
      "midi": 62,
      "hit": false,
      "t": 181621.44000000015,
      "d": 810.8099999999977,
      "v": 51
    },
    {
      "midi": 66,
      "hit": false,
      "t": 181621.44000000015,
      "d": 810.8099999999977,
      "v": 51
    },
    {
      "midi": 69,
      "hit": false,
      "t": 181621.44000000015,
      "d": 810.8099999999977,
      "v": 51
    },
    {
      "midi": 62,
      "hit": false,
      "t": 182432.25000000015,
      "d": 810.8099999999977,
      "v": 51
    },
    {
      "midi": 66,
      "hit": false,
      "t": 182432.25000000015,
      "d": 810.8099999999977,
      "v": 51
    },
    {
      "midi": 69,
      "hit": false,
      "t": 182432.25000000015,
      "d": 810.8099999999977,
      "v": 51
    },
    {
      "midi": 62,
      "hit": false,
      "t": 183243.06000000014,
      "d": 810.8099999999977,
      "v": 51
    },
    {
      "midi": 66,
      "hit": false,
      "t": 183243.06000000014,
      "d": 810.8099999999977,
      "v": 51
    },
    {
      "midi": 69,
      "hit": false,
      "t": 183243.06000000014,
      "d": 810.8099999999977,
      "v": 51
    },
    {
      "midi": 62,
      "hit": false,
      "t": 184053.87000000014,
      "d": 810.8099999999977,
      "v": 51
    },
    {
      "midi": 66,
      "hit": false,
      "t": 184053.87000000014,
      "d": 810.8099999999977,
      "v": 51
    },
    {
      "midi": 69,
      "hit": false,
      "t": 184053.87000000014,
      "d": 810.8099999999977,
      "v": 51
    },
    {
      "midi": 68,
      "hit": false,
      "t": 184864.68000000014,
      "d": 810.8099999999977,
      "v": 59
    },
    {
      "midi": 69,
      "hit": false,
      "t": 184864.68000000014,
      "d": 810.8099999999977,
      "v": 59
    },
    {
      "midi": 73,
      "hit": false,
      "t": 184864.68000000014,
      "d": 810.8099999999977,
      "v": 59
    },
    {
      "midi": 66,
      "hit": false,
      "t": 185270.08500000014,
      "d": 810.8099999999977,
      "v": 43
    },
    {
      "midi": 68,
      "hit": false,
      "t": 185675.49000000014,
      "d": 810.8099999999977,
      "v": 63
    },
    {
      "midi": 69,
      "hit": false,
      "t": 185675.49000000014,
      "d": 810.8099999999977,
      "v": 63
    },
    {
      "midi": 73,
      "hit": false,
      "t": 185675.49000000014,
      "d": 810.8099999999977,
      "v": 63
    },
    {
      "midi": 66,
      "hit": false,
      "t": 186080.89500000014,
      "d": 405.40499999999884,
      "v": 45
    },
    {
      "midi": 66,
      "hit": false,
      "t": 186486.30000000013,
      "d": 810.8099999999977,
      "v": 51
    },
    {
      "midi": 69,
      "hit": false,
      "t": 186486.30000000013,
      "d": 810.8099999999977,
      "v": 51
    },
    {
      "midi": 73,
      "hit": false,
      "t": 186486.30000000013,
      "d": 810.8099999999977,
      "v": 51
    },
    {
      "midi": 66,
      "hit": false,
      "t": 187297.11000000013,
      "d": 810.8099999999977,
      "v": 51
    },
    {
      "midi": 73,
      "hit": false,
      "t": 187297.11000000013,
      "d": 810.8099999999977,
      "v": 51
    },
    {
      "midi": 62,
      "hit": false,
      "t": 188107.92000000013,
      "d": 810.8099999999977,
      "v": 56
    },
    {
      "midi": 69,
      "hit": false,
      "t": 188107.92000000013,
      "d": 810.8099999999977,
      "v": 56
    },
    {
      "midi": 62,
      "hit": false,
      "t": 188918.73000000013,
      "d": 810.8099999999977,
      "v": 51
    },
    {
      "midi": 66,
      "hit": false,
      "t": 188918.73000000013,
      "d": 810.8099999999977,
      "v": 51
    },
    {
      "midi": 69,
      "hit": false,
      "t": 188918.73000000013,
      "d": 810.8099999999977,
      "v": 51
    },
    {
      "midi": 62,
      "hit": false,
      "t": 189729.54000000012,
      "d": 810.8099999999977,
      "v": 54
    },
    {
      "midi": 66,
      "hit": false,
      "t": 189729.54000000012,
      "d": 810.8099999999977,
      "v": 54
    },
    {
      "midi": 69,
      "hit": false,
      "t": 189729.54000000012,
      "d": 810.8099999999977,
      "v": 54
    },
    {
      "midi": 62,
      "hit": false,
      "t": 190540.35000000012,
      "d": 810.8099999999977,
      "v": 62
    },
    {
      "midi": 66,
      "hit": false,
      "t": 190540.35000000012,
      "d": 810.8099999999977,
      "v": 62
    },
    {
      "midi": 69,
      "hit": false,
      "t": 190540.35000000012,
      "d": 810.8099999999977,
      "v": 62
    },
    {
      "midi": 57,
      "hit": false,
      "t": 194594.3999999999,
      "d": 3243.2399999999907,
      "v": 50
    },
    {
      "midi": 73,
      "hit": false,
      "t": 194594.4000000001,
      "d": 810.8099999999977,
      "v": 40
    },
    {
      "midi": 64,
      "hit": false,
      "t": 194594.4000000001,
      "d": 827.7018749999988,
      "v": 40
    },
    {
      "midi": 69,
      "hit": false,
      "t": 194999.8050000001,
      "d": 810.8099999999977,
      "v": 22
    },
    {
      "midi": 73,
      "hit": false,
      "t": 195405.2100000001,
      "d": 810.8099999999977,
      "v": 54
    },
    {
      "midi": 64,
      "hit": false,
      "t": 195422.1018750001,
      "d": 810.8099999999977,
      "v": 54
    },
    {
      "midi": 69,
      "hit": false,
      "t": 195810.6150000001,
      "d": 810.8099999999977,
      "v": 38
    },
    {
      "midi": 73,
      "hit": false,
      "t": 196216.0200000001,
      "d": 810.8099999999977,
      "v": 44
    },
    {
      "midi": 64,
      "hit": false,
      "t": 196232.9118750001,
      "d": 793.9181249999965,
      "v": 44
    },
    {
      "midi": 69,
      "hit": false,
      "t": 196621.4250000001,
      "d": 810.8099999999977,
      "v": 29
    },
    {
      "midi": 64,
      "hit": false,
      "t": 197026.8300000001,
      "d": 810.8099999999977,
      "v": 60
    },
    {
      "midi": 73,
      "hit": false,
      "t": 197026.8300000001,
      "d": 810.8099999999977,
      "v": 60
    },
    {
      "midi": 69,
      "hit": false,
      "t": 197432.2350000001,
      "d": 810.8099999999977,
      "v": 40
    },
    {
      "midi": 50,
      "hit": false,
      "t": 197837.6399999999,
      "d": 3243.2399999999907,
      "v": 62
    },
    {
      "midi": 66,
      "hit": false,
      "t": 197837.6400000001,
      "d": 810.8099999999977,
      "v": 44
    },
    {
      "midi": 73,
      "hit": false,
      "t": 197837.6400000001,
      "d": 810.8099999999977,
      "v": 44
    },
    {
      "midi": 69,
      "hit": false,
      "t": 198243.0450000001,
      "d": 810.8099999999977,
      "v": 28
    },
    {
      "midi": 66,
      "hit": false,
      "t": 198648.4500000001,
      "d": 810.8099999999977,
      "v": 46
    },
    {
      "midi": 73,
      "hit": false,
      "t": 198648.4500000001,
      "d": 810.8099999999977,
      "v": 46
    },
    {
      "midi": 69,
      "hit": false,
      "t": 199053.8550000001,
      "d": 810.8099999999977,
      "v": 34
    },
    {
      "midi": 66,
      "hit": false,
      "t": 199459.2600000001,
      "d": 810.8099999999977,
      "v": 44
    },
    {
      "midi": 73,
      "hit": false,
      "t": 199459.2600000001,
      "d": 810.8099999999977,
      "v": 44
    },
    {
      "midi": 69,
      "hit": false,
      "t": 199864.6650000001,
      "d": 810.8099999999977,
      "v": 41
    },
    {
      "midi": 66,
      "hit": false,
      "t": 200270.0700000001,
      "d": 810.8099999999977,
      "v": 48
    },
    {
      "midi": 73,
      "hit": false,
      "t": 200270.0700000001,
      "d": 810.8099999999977,
      "v": 48
    },
    {
      "midi": 69,
      "hit": false,
      "t": 200675.4750000001,
      "d": 405.40499999999884,
      "v": 40
    },
    {
      "midi": 57,
      "hit": false,
      "t": 201080.8799999999,
      "d": 3243.2399999999907,
      "v": 50
    },
    {
      "midi": 73,
      "hit": false,
      "t": 201080.8800000001,
      "d": 810.8099999999977,
      "v": 40
    },
    {
      "midi": 64,
      "hit": false,
      "t": 201080.8800000001,
      "d": 827.7018749999988,
      "v": 40
    },
    {
      "midi": 69,
      "hit": false,
      "t": 201486.2850000001,
      "d": 810.8099999999977,
      "v": 22
    },
    {
      "midi": 73,
      "hit": false,
      "t": 201891.6900000001,
      "d": 810.8099999999977,
      "v": 54
    },
    {
      "midi": 64,
      "hit": false,
      "t": 201908.5818750001,
      "d": 810.8099999999977,
      "v": 54
    },
    {
      "midi": 69,
      "hit": false,
      "t": 202297.0950000001,
      "d": 810.8099999999977,
      "v": 38
    },
    {
      "midi": 73,
      "hit": false,
      "t": 202702.5000000001,
      "d": 810.8099999999977,
      "v": 44
    },
    {
      "midi": 64,
      "hit": false,
      "t": 202719.3918750001,
      "d": 793.9181249999965,
      "v": 44
    },
    {
      "midi": 69,
      "hit": false,
      "t": 203107.9050000001,
      "d": 810.8099999999977,
      "v": 29
    },
    {
      "midi": 64,
      "hit": false,
      "t": 203513.31000000008,
      "d": 810.8099999999977,
      "v": 60
    },
    {
      "midi": 73,
      "hit": false,
      "t": 203513.31000000008,
      "d": 810.8099999999977,
      "v": 60
    },
    {
      "midi": 69,
      "hit": false,
      "t": 203918.71500000008,
      "d": 810.8099999999977,
      "v": 40
    },
    {
      "midi": 50,
      "hit": false,
      "t": 204324.11999999988,
      "d": 3243.2399999999907,
      "v": 62
    },
    {
      "midi": 66,
      "hit": false,
      "t": 204324.12000000008,
      "d": 810.8099999999977,
      "v": 44
    },
    {
      "midi": 73,
      "hit": false,
      "t": 204324.12000000008,
      "d": 810.8099999999977,
      "v": 44
    },
    {
      "midi": 69,
      "hit": false,
      "t": 204729.52500000008,
      "d": 810.8099999999977,
      "v": 28
    },
    {
      "midi": 66,
      "hit": false,
      "t": 205134.93000000008,
      "d": 810.8099999999977,
      "v": 46
    },
    {
      "midi": 73,
      "hit": false,
      "t": 205134.93000000008,
      "d": 810.8099999999977,
      "v": 46
    },
    {
      "midi": 69,
      "hit": false,
      "t": 205540.33500000008,
      "d": 810.8099999999977,
      "v": 34
    },
    {
      "midi": 66,
      "hit": false,
      "t": 205945.74000000008,
      "d": 810.8099999999977,
      "v": 44
    },
    {
      "midi": 73,
      "hit": false,
      "t": 205945.74000000008,
      "d": 810.8099999999977,
      "v": 44
    },
    {
      "midi": 69,
      "hit": false,
      "t": 206351.14500000008,
      "d": 810.8099999999977,
      "v": 41
    },
    {
      "midi": 66,
      "hit": false,
      "t": 206756.55000000008,
      "d": 810.8099999999977,
      "v": 48
    },
    {
      "midi": 69,
      "hit": false,
      "t": 207161.95500000007,
      "d": 405.40499999999884,
      "v": 40
    },
    {
      "midi": 49,
      "hit": false,
      "t": 207567.35999999987,
      "d": 9729.720000000001,
      "v": 56
    },
    {
      "midi": 65,
      "hit": false,
      "t": 207567.36000000007,
      "d": 810.8099999999977,
      "v": 44
    },
    {
      "midi": 68,
      "hit": false,
      "t": 207567.36000000007,
      "d": 810.8099999999977,
      "v": 44
    },
    {
      "midi": 73,
      "hit": false,
      "t": 207567.36000000007,
      "d": 810.8099999999977,
      "v": 44
    },
    {
      "midi": 53,
      "hit": false,
      "t": 208378.17000000007,
      "d": 608.1075000000419,
      "v": 55
    },
    {
      "midi": 56,
      "hit": false,
      "t": 208580.87250000008,
      "d": 641.8912500000151,
      "v": 39
    },
    {
      "midi": 61,
      "hit": false,
      "t": 208783.5750000001,
      "d": 709.4587499999907,
      "v": 44
    },
    {
      "midi": 65,
      "hit": false,
      "t": 208986.2775000001,
      "d": 810.8099999999686,
      "v": 46
    },
    {
      "midi": 68,
      "hit": false,
      "t": 209222.7637500001,
      "d": 912.1612499999756,
      "v": 44
    },
    {
      "midi": 73,
      "hit": false,
      "t": 209493.0337500001,
      "d": 1013.5124999999825,
      "v": 46
    },
    {
      "midi": 77,
      "hit": false,
      "t": 209797.08750000008,
      "d": 1114.8637499999895,
      "v": 51
    },
    {
      "midi": 80,
      "hit": false,
      "t": 210134.92500000008,
      "d": 1317.5662500000035,
      "v": 56
    },
    {
      "midi": 85,
      "hit": false,
      "t": 210506.54625000007,
      "d": 1013.5125000000116,
      "v": 62
    },
    {
      "midi": 92,
      "hit": false,
      "t": 210911.95125000007,
      "d": 439.18875000000116,
      "v": 64
    },
    {
      "midi": 92,
      "hit": false,
      "t": 211351.14000000007,
      "d": 4324.320000000007,
      "v": 72
    },
    {
      "midi": 97,
      "hit": false,
      "t": 211452.49125000008,
      "d": 4222.96875,
      "v": 60
    },
    {
      "midi": 101,
      "hit": false,
      "t": 211520.05875000008,
      "d": 4155.401249999995,
      "v": 58
    }
  ]
}