{
  "jsonPath": "Unknown/Unknown/Procul Harum/whiter-shade-of-pale.json",
  "path": "Unknown\\Unknown\\Procul Harum\\Whiter Shade of Pale.mid",
  "name": "Whiter Shade of Pale",
  "difficulty": "Advanced",
  "bpm": 80,
  "notes": [
    {
      "midi": 55,
      "hit": false,
      "t": 0,
      "d": 3000,
      "v": 82
    },
    {
      "midi": 60,
      "hit": false,
      "t": 0,
      "d": 3000,
      "v": 87
    },
    {
      "midi": 64,
      "hit": false,
      "t": 0,
      "d": 3000,
      "v": 80
    },
    {
      "midi": 48,
      "hit": false,
      "t": 0,
      "d": 1125,
      "v": 69
    },
    {
      "midi": 48,
      "hit": false,
      "t": 1125,
      "d": 375,
      "v": 84
    },
    {
      "midi": 47,
      "hit": false,
      "t": 1500,
      "d": 1125,
      "v": 82
    },
    {
      "midi": 47,
      "hit": false,
      "t": 2625,
      "d": 375,
      "v": 82
    },
    {
      "midi": 45,
      "hit": false,
      "t": 3000,
      "d": 1125,
      "v": 78
    },
    {
      "midi": 62,
      "hit": false,
      "t": 3375,
      "d": 375,
      "v": 84
    },
    {
      "midi": 60,
      "hit": false,
      "t": 3750,
      "d": 375,
      "v": 80
    },
    {
      "midi": 59,
      "hit": false,
      "t": 4125,
      "d": 375,
      "v": 66
    },
    {
      "midi": 45,
      "hit": false,
      "t": 4125,
      "d": 375,
      "v": 72
    },
    {
      "midi": 60,
      "hit": false,
      "t": 4500,
      "d": 375,
      "v": 67
    },
    {
      "midi": 43,
      "hit": false,
      "t": 4500,
      "d": 1125,
      "v": 76
    },
    {
      "midi": 62,
      "hit": false,
      "t": 4875,
      "d": 375,
      "v": 82
    },
    {
      "midi": 64,
      "hit": false,
      "t": 5250,
      "d": 375,
      "v": 84
    },
    {
      "midi": 60,
      "hit": false,
      "t": 5625,
      "d": 375,
      "v": 80
    },
    {
      "midi": 43,
      "hit": false,
      "t": 5625,
      "d": 375,
      "v": 97
    },
    {
      "midi": 60,
      "hit": false,
      "t": 6000,
      "d": 2250,
      "v": 84
    },
    {
      "midi": 65,
      "hit": false,
      "t": 6000,
      "d": 2250,
      "v": 82
    },
    {
      "midi": 69,
      "hit": false,
      "t": 6000,
      "d": 2250,
      "v": 57
    },
    {
      "midi": 41,
      "hit": false,
      "t": 6000,
      "d": 1125,
      "v": 72
    },
    {
      "midi": 41,
      "hit": false,
      "t": 7125,
      "d": 375,
      "v": 84
    },
    {
      "midi": 40,
      "hit": false,
      "t": 7500,
      "d": 1125,
      "v": 65
    },
    {
      "midi": 71,
      "hit": false,
      "t": 8250,
      "d": 375,
      "v": 80
    },
    {
      "midi": 72,
      "hit": false,
      "t": 8625,
      "d": 375,
      "v": 74
    },
    {
      "midi": 40,
      "hit": false,
      "t": 8625,
      "d": 375,
      "v": 65
    },
    {
      "midi": 57,
      "hit": false,
      "t": 9000,
      "d": 187.5,
      "v": 69
    },
    {
      "midi": 62,
      "hit": false,
      "t": 9000,
      "d": 187.5,
      "v": 78
    },
    {
      "midi": 65,
      "hit": false,
      "t": 9000,
      "d": 187.5,
      "v": 64
    },
    {
      "midi": 38,
      "hit": false,
      "t": 9000,
      "d": 1125,
      "v": 68
    },
    {
      "midi": 64,
      "hit": false,
      "t": 9187.5,
      "d": 187.5,
      "v": 69
    },
    {
      "midi": 65,
      "hit": false,
      "t": 9375,
      "d": 1125,
      "v": 78
    },
    {
      "midi": 38,
      "hit": false,
      "t": 10125,
      "d": 375,
      "v": 84
    },
    {
      "midi": 36,
      "hit": false,
      "t": 10500,
      "d": 1125,
      "v": 80
    },
    {
      "midi": 62,
      "hit": false,
      "t": 11250,
      "d": 750,
      "v": 92
    },
    {
      "midi": 36,
      "hit": false,
      "t": 11625,
      "d": 375,
      "v": 76
    },
    {
      "midi": 62,
      "hit": false,
      "t": 12000,
      "d": 2250,
      "v": 62
    },
    {
      "midi": 67,
      "hit": false,
      "t": 12000,
      "d": 2250,
      "v": 80
    },
    {
      "midi": 71,
      "hit": false,
      "t": 12000,
      "d": 2250,
      "v": 62
    },
    {
      "midi": 43,
      "hit": false,
      "t": 12000,
      "d": 1125,
      "v": 82
    },
    {
      "midi": 43,
      "hit": false,
      "t": 13125,
      "d": 375,
      "v": 62
    },
    {
      "midi": 41,
      "hit": false,
      "t": 13500,
      "d": 1125,
      "v": 68
    },
    {
      "midi": 72,
      "hit": false,
      "t": 14250,
      "d": 375,
      "v": 69
    },
    {
      "midi": 74,
      "hit": false,
      "t": 14625,
      "d": 375,
      "v": 64
    },
    {
      "midi": 41,
      "hit": false,
      "t": 14625,
      "d": 375,
      "v": 68
    },
    {
      "midi": 59,
      "hit": false,
      "t": 15000,
      "d": 187.5,
      "v": 64
    },
    {
      "midi": 64,
      "hit": false,
      "t": 15000,
      "d": 187.5,
      "v": 80
    },
    {
      "midi": 67,
      "hit": false,
      "t": 15000,
      "d": 187.5,
      "v": 61
    },
    {
      "midi": 40,
      "hit": false,
      "t": 15000,
      "d": 1125,
      "v": 66
    },
    {
      "midi": 65,
      "hit": false,
      "t": 15187.5,
      "d": 187.5,
      "v": 69
    },
    {
      "midi": 67,
      "hit": false,
      "t": 15375,
      "d": 1125,
      "v": 80
    },
    {
      "midi": 40,
      "hit": false,
      "t": 16125,
      "d": 375,
      "v": 87
    },
    {
      "midi": 38,
      "hit": false,
      "t": 16500,
      "d": 1125,
      "v": 74
    },
    {
      "midi": 65,
      "hit": false,
      "t": 16875,
      "d": 375,
      "v": 71
    },
    {
      "midi": 64,
      "hit": false,
      "t": 17250,
      "d": 375,
      "v": 80
    },
    {
      "midi": 65,
      "hit": false,
      "t": 17625,
      "d": 375,
      "v": 68
    },
    {
      "midi": 38,
      "hit": false,
      "t": 17625,
      "d": 375,
      "v": 61
    },
    {
      "midi": 55,
      "hit": false,
      "t": 18000,
      "d": 375,
      "v": 76
    },
    {
      "midi": 60,
      "hit": false,
      "t": 18000,
      "d": 375,
      "v": 74
    },
    {
      "midi": 65,
      "hit": false,
      "t": 18000,
      "d": 375,
      "v": 65
    },
    {
      "midi": 36,
      "hit": false,
      "t": 18000,
      "d": 750,
      "v": 72
    },
    {
      "midi": 64,
      "hit": false,
      "t": 18375,
      "d": 375,
      "v": 87
    },
    {
      "midi": 62,
      "hit": false,
      "t": 18750,
      "d": 375,
      "v": 87
    },
    {
      "midi": 40,
      "hit": false,
      "t": 18750,
      "d": 750,
      "v": 68
    },
    {
      "midi": 60,
      "hit": false,
      "t": 19125,
      "d": 375,
      "v": 89
    },
    {
      "midi": 60,
      "hit": false,
      "t": 19500,
      "d": 375,
      "v": 76
    },
    {
      "midi": 65,
      "hit": false,
      "t": 19500,
      "d": 375,
      "v": 72
    },
    {
      "midi": 69,
      "hit": false,
      "t": 19500,
      "d": 375,
      "v": 74
    },
    {
      "midi": 41,
      "hit": false,
      "t": 19500,
      "d": 1125,
      "v": 80
    },
    {
      "midi": 62,
      "hit": false,
      "t": 19875,
      "d": 375,
      "v": 89
    },
    {
      "midi": 64,
      "hit": false,
      "t": 20250,
      "d": 375,
      "v": 101
    },
    {
      "midi": 65,
      "hit": false,
      "t": 20625,
      "d": 375,
      "v": 74
    },
    {
      "midi": 41,
      "hit": false,
      "t": 20625,
      "d": 375,
      "v": 68
    },
    {
      "midi": 59,
      "hit": false,
      "t": 21000,
      "d": 375,
      "v": 68
    },
    {
      "midi": 67,
      "hit": false,
      "t": 21000,
      "d": 375,
      "v": 76
    },
    {
      "midi": 43,
      "hit": false,
      "t": 21000,
      "d": 1500,
      "v": 89
    },
    {
      "midi": 60,
      "hit": false,
      "t": 21375,
      "d": 375,
      "v": 78
    },
    {
      "midi": 62,
      "hit": false,
      "t": 21750,
      "d": 375,
      "v": 84
    },
    {
      "midi": 64,
      "hit": false,
      "t": 22125,
      "d": 375,
      "v": 97
    },
    {
      "midi": 60,
      "hit": false,
      "t": 22500,
      "d": 375,
      "v": 78
    },
    {
      "midi": 65,
      "hit": false,
      "t": 22500,
      "d": 375,
      "v": 82
    },
    {
      "midi": 45,
      "hit": false,
      "t": 22500,
      "d": 750,
      "v": 71
    },
    {
      "midi": 64,
      "hit": false,
      "t": 22875,
      "d": 375,
      "v": 71
    },
    {
      "midi": 55,
      "hit": false,
      "t": 23250,
      "d": 375,
      "v": 80
    },
    {
      "midi": 65,
      "hit": false,
      "t": 23250,
      "d": 375,
      "v": 72
    },
    {
      "midi": 47,
      "hit": false,
      "t": 23250,
      "d": 750,
      "v": 66
    },
    {
      "midi": 62,
      "hit": false,
      "t": 23625,
      "d": 375,
      "v": 84
    },
    {
      "midi": 55,
      "hit": false,
      "t": 24000,
      "d": 1125,
      "v": 69
    },
    {
      "midi": 60,
      "hit": false,
      "t": 24000,
      "d": 1125,
      "v": 80
    },
    {
      "midi": 64,
      "hit": false,
      "t": 24000,
      "d": 1125,
      "v": 53
    },
    {
      "midi": 48,
      "hit": false,
      "t": 24000,
      "d": 1125,
      "v": 78
    },
    {
      "midi": 67,
      "hit": false,
      "t": 25125,
      "d": 375,
      "v": 72
    },
    {
      "midi": 48,
      "hit": false,
      "t": 25125,
      "d": 375,
      "v": 80
    },
    {
      "midi": 67,
      "hit": false,
      "t": 25500,
      "d": 375,
      "v": 80
    },
    {
      "midi": 72,
      "hit": false,
      "t": 25500,
      "d": 375,
      "v": 89
    },
    {
      "midi": 76,
      "hit": false,
      "t": 25500,
      "d": 375,
      "v": 89
    },
    {
      "midi": 47,
      "hit": false,
      "t": 25500,
      "d": 1125,
      "v": 68
    },
    {
      "midi": 74,
      "hit": false,
      "t": 25875,
      "d": 375,
      "v": 82
    },
    {
      "midi": 76,
      "hit": false,
      "t": 26250,
      "d": 375,
      "v": 62
    },
    {
      "midi": 74,
      "hit": false,
      "t": 26625,
      "d": 375,
      "v": 89
    },
    {
      "midi": 47,
      "hit": false,
      "t": 26625,
      "d": 375,
      "v": 87
    },
    {
      "midi": 64,
      "hit": false,
      "t": 27000,
      "d": 375,
      "v": 67
    },
    {
      "midi": 69,
      "hit": false,
      "t": 27000,
      "d": 375,
      "v": 71
    },
    {
      "midi": 74,
      "hit": false,
      "t": 27000,
      "d": 375,
      "v": 82
    },
    {
      "midi": 45,
      "hit": false,
      "t": 27000,
      "d": 1125,
      "v": 67
    },
    {
      "midi": 72,
      "hit": false,
      "t": 27375,
      "d": 2250,
      "v": 76
    },
    {
      "midi": 45,
      "hit": false,
      "t": 28125,
      "d": 375,
      "v": 89
    },
    {
      "midi": 43,
      "hit": false,
      "t": 28500,
      "d": 1125,
      "v": 69
    },
    {
      "midi": 43,
      "hit": false,
      "t": 29625,
      "d": 375,
      "v": 72
    },
    {
      "midi": 60,
      "hit": false,
      "t": 30000,
      "d": 562.5,
      "v": 56
    },
    {
      "midi": 65,
      "hit": false,
      "t": 30000,
      "d": 562.5,
      "v": 78
    },
    {
      "midi": 69,
      "hit": false,
      "t": 30000,
      "d": 562.5,
      "v": 92
    },
    {
      "midi": 41,
      "hit": false,
      "t": 30000,
      "d": 1125,
      "v": 68
    },
    {
      "midi": 69,
      "hit": false,
      "t": 30937.5,
      "d": 187.5,
      "v": 69
    },
    {
      "midi": 72,
      "hit": false,
      "t": 31125,
      "d": 375,
      "v": 87
    },
    {
      "midi": 41,
      "hit": false,
      "t": 31125,
      "d": 375,
      "v": 92
    },
    {
      "midi": 65,
      "hit": false,
      "t": 31500,
      "d": 375,
      "v": 72
    },
    {
      "midi": 69,
      "hit": false,
      "t": 31500,
      "d": 375,
      "v": 82
    },
    {
      "midi": 74,
      "hit": false,
      "t": 31500,
      "d": 375,
      "v": 101
    },
    {
      "midi": 40,
      "hit": false,
      "t": 31500,
      "d": 1125,
      "v": 92
    },
    {
      "midi": 74,
      "hit": false,
      "t": 31875,
      "d": 750,
      "v": 104
    },
    {
      "midi": 72,
      "hit": false,
      "t": 32625,
      "d": 187.5,
      "v": 101
    },
    {
      "midi": 40,
      "hit": false,
      "t": 32625,
      "d": 375,
      "v": 89
    },
    {
      "midi": 69,
      "hit": false,
      "t": 32812.5,
      "d": 187.5,
      "v": 68
    },
    {
      "midi": 60,
      "hit": false,
      "t": 33000,
      "d": 375,
      "v": 64
    },
    {
      "midi": 69,
      "hit": false,
      "t": 33000,
      "d": 375,
      "v": 59
    },
    {
      "midi": 72,
      "hit": false,
      "t": 33000,
      "d": 375,
      "v": 87
    },
    {
      "midi": 38,
      "hit": false,
      "t": 33000,
      "d": 1125,
      "v": 80
    },
    {
      "midi": 65,
      "hit": false,
      "t": 33375,
      "d": 1125,
      "v": 64
    },
    {
      "midi": 69,
      "hit": false,
      "t": 33375,
      "d": 1125,
      "v": 95
    },
    {
      "midi": 38,
      "hit": false,
      "t": 34125,
      "d": 375,
      "v": 82
    },
    {
      "midi": 36,
      "hit": false,
      "t": 34500,
      "d": 375,
      "v": 67
    },
    {
      "midi": 38,
      "hit": false,
      "t": 34875,
      "d": 375,
      "v": 68
    },
    {
      "midi": 40,
      "hit": false,
      "t": 35250,
      "d": 375,
      "v": 69
    },
    {
      "midi": 41,
      "hit": false,
      "t": 35625,
      "d": 375,
      "v": 66
    },
    {
      "midi": 62,
      "hit": false,
      "t": 36000,
      "d": 1125,
      "v": 57
    },
    {
      "midi": 65,
      "hit": false,
      "t": 36000,
      "d": 1125,
      "v": 78
    },
    {
      "midi": 71,
      "hit": false,
      "t": 36000,
      "d": 1125,
      "v": 89
    },
    {
      "midi": 43,
      "hit": false,
      "t": 36000,
      "d": 1125,
      "v": 82
    },
    {
      "midi": 69,
      "hit": false,
      "t": 37125,
      "d": 187.5,
      "v": 82
    },
    {
      "midi": 43,
      "hit": false,
      "t": 37125,
      "d": 375,
      "v": 97
    },
    {
      "midi": 69,
      "hit": false,
      "t": 37312.5,
      "d": 187.5,
      "v": 92
    },
    {
      "midi": 62,
      "hit": false,
      "t": 37500,
      "d": 375,
      "v": 95
    },
    {
      "midi": 67,
      "hit": false,
      "t": 37500,
      "d": 375,
      "v": 84
    },
    {
      "midi": 71,
      "hit": false,
      "t": 37500,
      "d": 375,
      "v": 95
    },
    {
      "midi": 53,
      "hit": false,
      "t": 37500,
      "d": 1125,
      "v": 87
    },
    {
      "midi": 71,
      "hit": false,
      "t": 37875,
      "d": 375,
      "v": 104
    },
    {
      "midi": 69,
      "hit": false,
      "t": 38625,
      "d": 187.5,
      "v": 84
    },
    {
      "midi": 53,
      "hit": false,
      "t": 38625,
      "d": 375,
      "v": 80
    },
    {
      "midi": 69,
      "hit": false,
      "t": 38812.5,
      "d": 187.5,
      "v": 87
    },
    {
      "midi": 59,
      "hit": false,
      "t": 39000,
      "d": 375,
      "v": 80
    },
    {
      "midi": 64,
      "hit": false,
      "t": 39000,
      "d": 375,
      "v": 76
    },
    {
      "midi": 69,
      "hit": false,
      "t": 39000,
      "d": 375,
      "v": 92
    },
    {
      "midi": 52,
      "hit": false,
      "t": 39000,
      "d": 1125,
      "v": 82
    },
    {
      "midi": 67,
      "hit": false,
      "t": 39375,
      "d": 375,
      "v": 89
    },
    {
      "midi": 52,
      "hit": false,
      "t": 40125,
      "d": 375,
      "v": 80
    },
    {
      "midi": 65,
      "hit": false,
      "t": 40500,
      "d": 1500,
      "v": 84
    },
    {
      "midi": 50,
      "hit": false,
      "t": 40500,
      "d": 375,
      "v": 76
    },
    {
      "midi": 52,
      "hit": false,
      "t": 40875,
      "d": 375,
      "v": 80
    },
    {
      "midi": 41,
      "hit": false,
      "t": 41250,
      "d": 375,
      "v": 95
    },
    {
      "midi": 47,
      "hit": false,
      "t": 41625,
      "d": 375,
      "v": 89
    },
    {
      "midi": 60,
      "hit": false,
      "t": 42000,
      "d": 1125,
      "v": 76
    },
    {
      "midi": 64,
      "hit": false,
      "t": 42000,
      "d": 1125,
      "v": 87
    },
    {
      "midi": 67,
      "hit": false,
      "t": 42000,
      "d": 1125,
      "v": 95
    },
    {
      "midi": 48,
      "hit": false,
      "t": 42000,
      "d": 1125,
      "v": 71
    },
    {
      "midi": 67,
      "hit": false,
      "t": 43125,
      "d": 187.5,
      "v": 82
    },
    {
      "midi": 48,
      "hit": false,
      "t": 43125,
      "d": 375,
      "v": 71
    },
    {
      "midi": 67,
      "hit": false,
      "t": 43312.5,
      "d": 187.5,
      "v": 95
    },
    {
      "midi": 67,
      "hit": false,
      "t": 43500,
      "d": 375,
      "v": 67
    },
    {
      "midi": 72,
      "hit": false,
      "t": 43500,
      "d": 375,
      "v": 84
    },
    {
      "midi": 76,
      "hit": false,
      "t": 43500,
      "d": 375,
      "v": 92
    },
    {
      "midi": 47,
      "hit": false,
      "t": 43500,
      "d": 1125,
      "v": 74
    },
    {
      "midi": 74,
      "hit": false,
      "t": 43875,
      "d": 187.5,
      "v": 82
    },
    {
      "midi": 72,
      "hit": false,
      "t": 44062.5,
      "d": 187.5,
      "v": 78
    },
    {
      "midi": 72,
      "hit": false,
      "t": 44250,
      "d": 562.5,
      "v": 108
    },
    {
      "midi": 47,
      "hit": false,
      "t": 44625,
      "d": 375,
      "v": 97
    },
    {
      "midi": 69,
      "hit": false,
      "t": 44812.5,
      "d": 187.5,
      "v": 92
    },
    {
      "midi": 69,
      "hit": false,
      "t": 45000,
      "d": 1500,
      "v": 92
    },
    {
      "midi": 72,
      "hit": false,
      "t": 45000,
      "d": 1500,
      "v": 97
    },
    {
      "midi": 76,
      "hit": false,
      "t": 45000,
      "d": 1500,
      "v": 89
    },
    {
      "midi": 45,
      "hit": false,
      "t": 45000,
      "d": 1125,
      "v": 76
    },
    {
      "midi": 45,
      "hit": false,
      "t": 46125,
      "d": 375,
      "v": 63
    },
    {
      "midi": 64,
      "hit": false,
      "t": 46500,
      "d": 1500,
      "v": 68
    },
    {
      "midi": 71,
      "hit": false,
      "t": 46500,
      "d": 1500,
      "v": 71
    },
    {
      "midi": 43,
      "hit": false,
      "t": 46500,
      "d": 750,
      "v": 65
    },
    {
      "midi": 41,
      "hit": false,
      "t": 47250,
      "d": 375,
      "v": 69
    },
    {
      "midi": 40,
      "hit": false,
      "t": 47625,
      "d": 375,
      "v": 87
    },
    {
      "midi": 60,
      "hit": false,
      "t": 48000,
      "d": 1125,
      "v": 51
    },
    {
      "midi": 65,
      "hit": false,
      "t": 48000,
      "d": 1125,
      "v": 64
    },
    {
      "midi": 69,
      "hit": false,
      "t": 48000,
      "d": 1125,
      "v": 80
    },
    {
      "midi": 41,
      "hit": false,
      "t": 48000,
      "d": 1125,
      "v": 63
    },
    {
      "midi": 72,
      "hit": false,
      "t": 49125,
      "d": 375,
      "v": 89
    },
    {
      "midi": 53,
      "hit": false,
      "t": 49125,
      "d": 375,
      "v": 80
    },
    {
      "midi": 65,
      "hit": false,
      "t": 49500,
      "d": 562.5,
      "v": 72
    },
    {
      "midi": 69,
      "hit": false,
      "t": 49500,
      "d": 562.5,
      "v": 82
    },
    {
      "midi": 74,
      "hit": false,
      "t": 49500,
      "d": 562.5,
      "v": 87
    },
    {
      "midi": 52,
      "hit": false,
      "t": 49500,
      "d": 1125,
      "v": 80
    },
    {
      "midi": 72,
      "hit": false,
      "t": 50062.5,
      "d": 187.5,
      "v": 71
    },
    {
      "midi": 74,
      "hit": false,
      "t": 50250,
      "d": 562.5,
      "v": 104
    },
    {
      "midi": 52,
      "hit": false,
      "t": 50625,
      "d": 375,
      "v": 74
    },
    {
      "midi": 69,
      "hit": false,
      "t": 50812.5,
      "d": 187.5,
      "v": 92
    },
    {
      "midi": 65,
      "hit": false,
      "t": 51000,
      "d": 375,
      "v": 84
    },
    {
      "midi": 69,
      "hit": false,
      "t": 51000,
      "d": 375,
      "v": 101
    },
    {
      "midi": 72,
      "hit": false,
      "t": 51000,
      "d": 375,
      "v": 95
    },
    {
      "midi": 50,
      "hit": false,
      "t": 51000,
      "d": 1125,
      "v": 84
    },
    {
      "midi": 74,
      "hit": false,
      "t": 51375,
      "d": 1125,
      "v": 59
    },
    {
      "midi": 50,
      "hit": false,
      "t": 52125,
      "d": 375,
      "v": 68
    },
    {
      "midi": 48,
      "hit": false,
      "t": 52500,
      "d": 375,
      "v": 59
    },
    {
      "midi": 50,
      "hit": false,
      "t": 52875,
      "d": 375,
      "v": 67
    },
    {
      "midi": 52,
      "hit": false,
      "t": 53250,
      "d": 375,
      "v": 67
    },
    {
      "midi": 53,
      "hit": false,
      "t": 53625,
      "d": 375,
      "v": 72
    },
    {
      "midi": 59,
      "hit": false,
      "t": 54000,
      "d": 1125,
      "v": 69
    },
    {
      "midi": 62,
      "hit": false,
      "t": 54000,
      "d": 1125,
      "v": 66
    },
    {
      "midi": 67,
      "hit": false,
      "t": 54000,
      "d": 1125,
      "v": 74
    },
    {
      "midi": 43,
      "hit": false,
      "t": 54000,
      "d": 1125,
      "v": 74
    },
    {
      "midi": 69,
      "hit": false,
      "t": 55125,
      "d": 187.5,
      "v": 64
    },
    {
      "midi": 43,
      "hit": false,
      "t": 55125,
      "d": 375,
      "v": 113
    },
    {
      "midi": 69,
      "hit": false,
      "t": 55312.5,
      "d": 187.5,
      "v": 92
    },
    {
      "midi": 62,
      "hit": false,
      "t": 55500,
      "d": 375,
      "v": 108
    },
    {
      "midi": 67,
      "hit": false,
      "t": 55500,
      "d": 375,
      "v": 87
    },
    {
      "midi": 71,
      "hit": false,
      "t": 55500,
      "d": 375,
      "v": 89
    },
    {
      "midi": 53,
      "hit": false,
      "t": 55500,
      "d": 1125,
      "v": 80
    },
    {
      "midi": 71,
      "hit": false,
      "t": 55875,
      "d": 375,
      "v": 122
    },
    {
      "midi": 69,
      "hit": false,
      "t": 56625,
      "d": 187.5,
      "v": 89
    },
    {
      "midi": 53,
      "hit": false,
      "t": 56625,
      "d": 375,
      "v": 74
    },
    {
      "midi": 69,
      "hit": false,
      "t": 56812.5,
      "d": 187.5,
      "v": 84
    },
    {
      "midi": 59,
      "hit": false,
      "t": 57000,
      "d": 375,
      "v": 74
    },
    {
      "midi": 64,
      "hit": false,
      "t": 57000,
      "d": 375,
      "v": 84
    },
    {
      "midi": 69,
      "hit": false,
      "t": 57000,
      "d": 375,
      "v": 92
    },
    {
      "midi": 52,
      "hit": false,
      "t": 57000,
      "d": 1125,
      "v": 82
    },
    {
      "midi": 67,
      "hit": false,
      "t": 57375,
      "d": 375,
      "v": 74
    },
    {
      "midi": 52,
      "hit": false,
      "t": 58125,
      "d": 375,
      "v": 87
    },
    {
      "midi": 65,
      "hit": false,
      "t": 58500,
      "d": 375,
      "v": 84
    },
    {
      "midi": 50,
      "hit": false,
      "t": 58500,
      "d": 375,
      "v": 95
    },
    {
      "midi": 71,
      "hit": false,
      "t": 58875,
      "d": 375,
      "v": 122
    },
    {
      "midi": 43,
      "hit": false,
      "t": 58875,
      "d": 375,
      "v": 72
    },
    {
      "midi": 72,
      "hit": false,
      "t": 59250,
      "d": 375,
      "v": 78
    },
    {
      "midi": 45,
      "hit": false,
      "t": 59250,
      "d": 375,
      "v": 89
    },
    {
      "midi": 74,
      "hit": false,
      "t": 59625,
      "d": 375,
      "v": 80
    },
    {
      "midi": 47,
      "hit": false,
      "t": 59625,
      "d": 375,
      "v": 87
    },
    {
      "midi": 67,
      "hit": false,
      "t": 60000,
      "d": 375,
      "v": 80
    },
    {
      "midi": 72,
      "hit": false,
      "t": 60000,
      "d": 375,
      "v": 80
    },
    {
      "midi": 76,
      "hit": false,
      "t": 60000,
      "d": 375,
      "v": 92
    },
    {
      "midi": 48,
      "hit": false,
      "t": 60000,
      "d": 1125,
      "v": 74
    },
    {
      "midi": 74,
      "hit": false,
      "t": 60375,
      "d": 375,
      "v": 89
    },
    {
      "midi": 76,
      "hit": false,
      "t": 60750,
      "d": 375,
      "v": 76
    },
    {
      "midi": 74,
      "hit": false,
      "t": 61125,
      "d": 187.5,
      "v": 84
    },
    {
      "midi": 48,
      "hit": false,
      "t": 61125,
      "d": 375,
      "v": 66
    },
    {
      "midi": 76,
      "hit": false,
      "t": 61312.5,
      "d": 187.5,
      "v": 95
    },
    {
      "midi": 72,
      "hit": false,
      "t": 61500,
      "d": 375,
      "v": 97
    },
    {
      "midi": 76,
      "hit": false,
      "t": 61500,
      "d": 375,
      "v": 113
    },
    {
      "midi": 79,
      "hit": false,
      "t": 61500,
      "d": 375,
      "v": 104
    },
    {
      "midi": 47,
      "hit": false,
      "t": 61500,
      "d": 1125,
      "v": 63
    },
    {
      "midi": 79,
      "hit": false,
      "t": 61875,
      "d": 375,
      "v": 52
    },
    {
      "midi": 79,
      "hit": false,
      "t": 62625,
      "d": 187.5,
      "v": 74
    },
    {
      "midi": 47,
      "hit": false,
      "t": 62625,
      "d": 375,
      "v": 76
    },
    {
      "midi": 76,
      "hit": false,
      "t": 62812.5,
      "d": 187.5,
      "v": 84
    },
    {
      "midi": 72,
      "hit": false,
      "t": 63000,
      "d": 375,
      "v": 74
    },
    {
      "midi": 76,
      "hit": false,
      "t": 63000,
      "d": 375,
      "v": 108
    },
    {
      "midi": 81,
      "hit": false,
      "t": 63000,
      "d": 375,
      "v": 71
    },
    {
      "midi": 45,
      "hit": false,
      "t": 63000,
      "d": 1125,
      "v": 68
    },
    {
      "midi": 71,
      "hit": false,
      "t": 63375,
      "d": 375,
      "v": 78
    },
    {
      "midi": 72,
      "hit": false,
      "t": 63750,
      "d": 375,
      "v": 89
    },
    {
      "midi": 76,
      "hit": false,
      "t": 64125,
      "d": 375,
      "v": 97
    },
    {
      "midi": 45,
      "hit": false,
      "t": 64125,
      "d": 375,
      "v": 87
    },
    {
      "midi": 64,
      "hit": false,
      "t": 64500,
      "d": 375,
      "v": 95
    },
    {
      "midi": 71,
      "hit": false,
      "t": 64500,
      "d": 375,
      "v": 89
    },
    {
      "midi": 76,
      "hit": false,
      "t": 64500,
      "d": 375,
      "v": 89
    },
    {
      "midi": 43,
      "hit": false,
      "t": 64500,
      "d": 750,
      "v": 76
    },
    {
      "midi": 69,
      "hit": false,
      "t": 64875,
      "d": 375,
      "v": 67
    },
    {
      "midi": 71,
      "hit": false,
      "t": 65250,
      "d": 750,
      "v": 89
    },
    {
      "midi": 41,
      "hit": false,
      "t": 65250,
      "d": 375,
      "v": 78
    },
    {
      "midi": 40,
      "hit": false,
      "t": 65625,
      "d": 375,
      "v": 82
    },
    {
      "midi": 60,
      "hit": false,
      "t": 66000,
      "d": 1125,
      "v": 84
    },
    {
      "midi": 65,
      "hit": false,
      "t": 66000,
      "d": 1125,
      "v": 92
    },
    {
      "midi": 69,
      "hit": false,
      "t": 66000,
      "d": 1125,
      "v": 92
    },
    {
      "midi": 41,
      "hit": false,
      "t": 66000,
      "d": 1125,
      "v": 117
    },
    {
      "midi": 72,
      "hit": false,
      "t": 67125,
      "d": 375,
      "v": 101
    },
    {
      "midi": 53,
      "hit": false,
      "t": 67125,
      "d": 375,
      "v": 95
    },
    {
      "midi": 65,
      "hit": false,
      "t": 67500,
      "d": 562.5,
      "v": 65
    },
    {
      "midi": 69,
      "hit": false,
      "t": 67500,
      "d": 562.5,
      "v": 67
    },
    {
      "midi": 74,
      "hit": false,
      "t": 67500,
      "d": 562.5,
      "v": 76
    },
    {
      "midi": 52,
      "hit": false,
      "t": 67500,
      "d": 1125,
      "v": 84
    },
    {
      "midi": 72,
      "hit": false,
      "t": 68062.5,
      "d": 187.5,
      "v": 95
    },
    {
      "midi": 74,
      "hit": false,
      "t": 68250,
      "d": 562.5,
      "v": 87
    },
    {
      "midi": 52,
      "hit": false,
      "t": 68625,
      "d": 375,
      "v": 74
    },
    {
      "midi": 69,
      "hit": false,
      "t": 68812.5,
      "d": 187.5,
      "v": 82
    },
    {
      "midi": 60,
      "hit": false,
      "t": 69000,
      "d": 375,
      "v": 67
    },
    {
      "midi": 69,
      "hit": false,
      "t": 69000,
      "d": 375,
      "v": 63
    },
    {
      "midi": 72,
      "hit": false,
      "t": 69000,
      "d": 375,
      "v": 60
    },
    {
      "midi": 50,
      "hit": false,
      "t": 69000,
      "d": 1125,
      "v": 95
    },
    {
      "midi": 65,
      "hit": false,
      "t": 69375,
      "d": 1125,
      "v": 72
    },
    {
      "midi": 69,
      "hit": false,
      "t": 69375,
      "d": 1125,
      "v": 117
    },
    {
      "midi": 50,
      "hit": false,
      "t": 70125,
      "d": 375,
      "v": 82
    },
    {
      "midi": 67,
      "hit": false,
      "t": 70500,
      "d": 375,
      "v": 89
    },
    {
      "midi": 71,
      "hit": false,
      "t": 70500,
      "d": 375,
      "v": 82
    },
    {
      "midi": 76,
      "hit": false,
      "t": 70500,
      "d": 375,
      "v": 101
    },
    {
      "midi": 43,
      "hit": false,
      "t": 70500,
      "d": 375,
      "v": 80
    },
    {
      "midi": 67,
      "hit": false,
      "t": 70875,
      "d": 375,
      "v": 82
    },
    {
      "midi": 71,
      "hit": false,
      "t": 70875,
      "d": 375,
      "v": 68
    },
    {
      "midi": 76,
      "hit": false,
      "t": 70875,
      "d": 375,
      "v": 95
    },
    {
      "midi": 43,
      "hit": false,
      "t": 70875,
      "d": 750,
      "v": 82
    },
    {
      "midi": 67,
      "hit": false,
      "t": 71625,
      "d": 375,
      "v": 84
    },
    {
      "midi": 72,
      "hit": false,
      "t": 71625,
      "d": 375,
      "v": 84
    },
    {
      "midi": 76,
      "hit": false,
      "t": 71625,
      "d": 375,
      "v": 104
    },
    {
      "midi": 43,
      "hit": false,
      "t": 71625,
      "d": 375,
      "v": 87
    },
    {
      "midi": 72,
      "hit": false,
      "t": 72000,
      "d": 1125,
      "v": 87
    },
    {
      "midi": 76,
      "hit": false,
      "t": 72000,
      "d": 1125,
      "v": 104
    },
    {
      "midi": 81,
      "hit": false,
      "t": 72000,
      "d": 1125,
      "v": 76
    },
    {
      "midi": 48,
      "hit": false,
      "t": 72000,
      "d": 1125,
      "v": 80
    },
    {
      "midi": 72,
      "hit": false,
      "t": 73125,
      "d": 375,
      "v": 80
    },
    {
      "midi": 76,
      "hit": false,
      "t": 73125,
      "d": 375,
      "v": 101
    },
    {
      "midi": 79,
      "hit": false,
      "t": 73125,
      "d": 375,
      "v": 82
    },
    {
      "midi": 48,
      "hit": false,
      "t": 73125,
      "d": 375,
      "v": 74
    },
    {
      "midi": 47,
      "hit": false,
      "t": 73500,
      "d": 1125,
      "v": 64
    },
    {
      "midi": 76,
      "hit": false,
      "t": 74625,
      "d": 375,
      "v": 87
    },
    {
      "midi": 47,
      "hit": false,
      "t": 74625,
      "d": 375,
      "v": 64
    },
    {
      "midi": 64,
      "hit": false,
      "t": 75000,
      "d": 562.5,
      "v": 67
    },
    {
      "midi": 72,
      "hit": false,
      "t": 75000,
      "d": 562.5,
      "v": 92
    },
    {
      "midi": 76,
      "hit": false,
      "t": 75000,
      "d": 562.5,
      "v": 84
    },
    {
      "midi": 45,
      "hit": false,
      "t": 75000,
      "d": 1125,
      "v": 69
    },
    {
      "midi": 74,
      "hit": false,
      "t": 75562.5,
      "d": 187.5,
      "v": 89
    },
    {
      "midi": 69,
      "hit": false,
      "t": 75750,
      "d": 750,
      "v": 76
    },
    {
      "midi": 72,
      "hit": false,
      "t": 75750,
      "d": 750,
      "v": 92
    },
    {
      "midi": 45,
      "hit": false,
      "t": 76125,
      "d": 375,
      "v": 78
    },
    {
      "midi": 67,
      "hit": false,
      "t": 76500,
      "d": 1500,
      "v": 80
    },
    {
      "midi": 43,
      "hit": false,
      "t": 76500,
      "d": 750,
      "v": 76
    },
    {
      "midi": 41,
      "hit": false,
      "t": 77250,
      "d": 375,
      "v": 72
    },
    {
      "midi": 40,
      "hit": false,
      "t": 77625,
      "d": 375,
      "v": 78
    },
    {
      "midi": 60,
      "hit": false,
      "t": 78000,
      "d": 1125,
      "v": 61
    },
    {
      "midi": 65,
      "hit": false,
      "t": 78000,
      "d": 1125,
      "v": 63
    },
    {
      "midi": 69,
      "hit": false,
      "t": 78000,
      "d": 1125,
      "v": 63
    },
    {
      "midi": 41,
      "hit": false,
      "t": 78000,
      "d": 1125,
      "v": 71
    },
    {
      "midi": 72,
      "hit": false,
      "t": 79125,
      "d": 187.5,
      "v": 87
    },
    {
      "midi": 53,
      "hit": false,
      "t": 79125,
      "d": 375,
      "v": 80
    },
    {
      "midi": 72,
      "hit": false,
      "t": 79312.5,
      "d": 187.5,
      "v": 89
    },
    {
      "midi": 65,
      "hit": false,
      "t": 79500,
      "d": 375,
      "v": 69
    },
    {
      "midi": 69,
      "hit": false,
      "t": 79500,
      "d": 375,
      "v": 76
    },
    {
      "midi": 74,
      "hit": false,
      "t": 79500,
      "d": 375,
      "v": 82
    },
    {
      "midi": 52,
      "hit": false,
      "t": 79500,
      "d": 1125,
      "v": 82
    },
    {
      "midi": 72,
      "hit": false,
      "t": 79875,
      "d": 375,
      "v": 82
    },
    {
      "midi": 72,
      "hit": false,
      "t": 80250,
      "d": 375,
      "v": 97
    },
    {
      "midi": 69,
      "hit": false,
      "t": 80625,
      "d": 375,
      "v": 84
    },
    {
      "midi": 52,
      "hit": false,
      "t": 80625,
      "d": 375,
      "v": 76
    },
    {
      "midi": 60,
      "hit": false,
      "t": 81000,
      "d": 375,
      "v": 80
    },
    {
      "midi": 69,
      "hit": false,
      "t": 81000,
      "d": 375,
      "v": 80
    },
    {
      "midi": 72,
      "hit": false,
      "t": 81000,
      "d": 375,
      "v": 89
    },
    {
      "midi": 50,
      "hit": false,
      "t": 81000,
      "d": 1125,
      "v": 82
    },
    {
      "midi": 65,
      "hit": false,
      "t": 81375,
      "d": 1125,
      "v": 63
    },
    {
      "midi": 69,
      "hit": false,
      "t": 81375,
      "d": 1125,
      "v": 76
    },
    {
      "midi": 50,
      "hit": false,
      "t": 82125,
      "d": 375,
      "v": 65
    },
    {
      "midi": 48,
      "hit": false,
      "t": 82500,
      "d": 375,
      "v": 72
    },
    {
      "midi": 47,
      "hit": false,
      "t": 82875,
      "d": 375,
      "v": 65
    },
    {
      "midi": 45,
      "hit": false,
      "t": 83250,
      "d": 375,
      "v": 66
    },
    {
      "midi": 43,
      "hit": false,
      "t": 83625,
      "d": 375,
      "v": 72
    },
    {
      "midi": 59,
      "hit": false,
      "t": 84000,
      "d": 1125,
      "v": 38
    },
    {
      "midi": 62,
      "hit": false,
      "t": 84000,
      "d": 1125,
      "v": 59
    },
    {
      "midi": 67,
      "hit": false,
      "t": 84000,
      "d": 1125,
      "v": 78
    },
    {
      "midi": 43,
      "hit": false,
      "t": 84000,
      "d": 1125,
      "v": 69
    },
    {
      "midi": 71,
      "hit": false,
      "t": 85125,
      "d": 187.5,
      "v": 80
    },
    {
      "midi": 55,
      "hit": false,
      "t": 85125,
      "d": 375,
      "v": 68
    },
    {
      "midi": 69,
      "hit": false,
      "t": 85312.5,
      "d": 187.5,
      "v": 84
    },
    {
      "midi": 62,
      "hit": false,
      "t": 85500,
      "d": 375,
      "v": 87
    },
    {
      "midi": 67,
      "hit": false,
      "t": 85500,
      "d": 375,
      "v": 104
    },
    {
      "midi": 71,
      "hit": false,
      "t": 85500,
      "d": 375,
      "v": 87
    },
    {
      "midi": 53,
      "hit": false,
      "t": 85500,
      "d": 1125,
      "v": 69
    },
    {
      "midi": 69,
      "hit": false,
      "t": 85875,
      "d": 375,
      "v": 63
    },
    {
      "midi": 71,
      "hit": false,
      "t": 86250,
      "d": 375,
      "v": 67
    },
    {
      "midi": 69,
      "hit": false,
      "t": 86625,
      "d": 375,
      "v": 84
    },
    {
      "midi": 53,
      "hit": false,
      "t": 86625,
      "d": 375,
      "v": 74
    },
    {
      "midi": 59,
      "hit": false,
      "t": 87000,
      "d": 375,
      "v": 55
    },
    {
      "midi": 64,
      "hit": false,
      "t": 87000,
      "d": 375,
      "v": 78
    },
    {
      "midi": 69,
      "hit": false,
      "t": 87000,
      "d": 375,
      "v": 84
    },
    {
      "midi": 52,
      "hit": false,
      "t": 87000,
      "d": 1125,
      "v": 76
    },
    {
      "midi": 67,
      "hit": false,
      "t": 87375,
      "d": 1125,
      "v": 84
    },
    {
      "midi": 52,
      "hit": false,
      "t": 88125,
      "d": 375,
      "v": 80
    },
    {
      "midi": 65,
      "hit": false,
      "t": 88500,
      "d": 750,
      "v": 55
    },
    {
      "midi": 50,
      "hit": false,
      "t": 88500,
      "d": 1125,
      "v": 63
    },
    {
      "midi": 65,
      "hit": false,
      "t": 89250,
      "d": 375,
      "v": 84
    },
    {
      "midi": 69,
      "hit": false,
      "t": 89250,
      "d": 375,
      "v": 92
    },
    {
      "midi": 72,
      "hit": false,
      "t": 89625,
      "d": 375,
      "v": 92
    },
    {
      "midi": 50,
      "hit": false,
      "t": 89625,
      "d": 375,
      "v": 71
    },
    {
      "midi": 64,
      "hit": false,
      "t": 90000,
      "d": 750,
      "v": 71
    },
    {
      "midi": 67,
      "hit": false,
      "t": 90000,
      "d": 750,
      "v": 84
    },
    {
      "midi": 72,
      "hit": false,
      "t": 90000,
      "d": 750,
      "v": 76
    },
    {
      "midi": 48,
      "hit": false,
      "t": 90000,
      "d": 750,
      "v": 63
    },
    {
      "midi": 72,
      "hit": false,
      "t": 90750,
      "d": 187.5,
      "v": 95
    },
    {
      "midi": 50,
      "hit": false,
      "t": 90750,
      "d": 375,
      "v": 80
    },
    {
      "midi": 69,
      "hit": false,
      "t": 90937.5,
      "d": 187.5,
      "v": 66
    },
    {
      "midi": 67,
      "hit": false,
      "t": 91125,
      "d": 375,
      "v": 97
    },
    {
      "midi": 52,
      "hit": false,
      "t": 91125,
      "d": 375,
      "v": 80
    },
    {
      "midi": 60,
      "hit": false,
      "t": 91500,
      "d": 750,
      "v": 76
    },
    {
      "midi": 65,
      "hit": false,
      "t": 91500,
      "d": 750,
      "v": 72
    },
    {
      "midi": 69,
      "hit": false,
      "t": 91500,
      "d": 750,
      "v": 87
    },
    {
      "midi": 53,
      "hit": false,
      "t": 91500,
      "d": 750,
      "v": 63
    },
    {
      "midi": 65,
      "hit": false,
      "t": 92250,
      "d": 375,
      "v": 82
    },
    {
      "midi": 69,
      "hit": false,
      "t": 92250,
      "d": 375,
      "v": 95
    },
    {
      "midi": 43,
      "hit": false,
      "t": 92250,
      "d": 375,
      "v": 74
    },
    {
      "midi": 72,
      "hit": false,
      "t": 92625,
      "d": 375,
      "v": 92
    },
    {
      "midi": 45,
      "hit": false,
      "t": 92625,
      "d": 375,
      "v": 69
    },
    {
      "midi": 64,
      "hit": false,
      "t": 93000,
      "d": 562.5,
      "v": 84
    },
    {
      "midi": 67,
      "hit": false,
      "t": 93000,
      "d": 562.5,
      "v": 61
    },
    {
      "midi": 76,
      "hit": false,
      "t": 93000,
      "d": 562.5,
      "v": 84
    },
    {
      "midi": 48,
      "hit": false,
      "t": 93000,
      "d": 1500,
      "v": 61
    },
    {
      "midi": 74,
      "hit": false,
      "t": 93562.5,
      "d": 187.5,
      "v": 84
    },
    {
      "midi": 72,
      "hit": false,
      "t": 93750,
      "d": 4500,
      "v": 84
    },
    {
      "midi": 36,
      "hit": false,
      "t": 94500,
      "d": 4500,
      "v": 57
    }
  ]
}