{
  "jsonPath": "Religious/Christian Relaxative/Paul Cardall/sweet-escape.json",
  "path": "Religious\\Christian Relaxative\\Paul Cardall\\Sweet Escape.mid",
  "name": "Sweet Escape",
  "difficulty": "Advanced",
  "bpm": 70.00448028673836,
  "notes": [
    {
      "midi": 74,
      "hit": false,
      "t": 2571.264,
      "d": 276.76800000000003,
      "v": 95
    },
    {
      "midi": 71,
      "hit": false,
      "t": 2856.96,
      "d": 107.13599999999997,
      "v": 95
    },
    {
      "midi": 79,
      "hit": false,
      "t": 2856.96,
      "d": 151.77599999999984,
      "v": 83
    },
    {
      "midi": 72,
      "hit": false,
      "t": 3142.656,
      "d": 89.2800000000002,
      "v": 95
    },
    {
      "midi": 81,
      "hit": false,
      "t": 3142.656,
      "d": 142.8480000000004,
      "v": 95
    },
    {
      "midi": 55,
      "hit": false,
      "t": 3428.3520000000003,
      "d": 491.03999999999996,
      "v": 91
    },
    {
      "midi": 59,
      "hit": false,
      "t": 3428.3520000000003,
      "d": 526.752,
      "v": 95
    },
    {
      "midi": 62,
      "hit": false,
      "t": 3428.3520000000003,
      "d": 642.8159999999998,
      "v": 79
    },
    {
      "midi": 74,
      "hit": false,
      "t": 3428.3520000000003,
      "d": 2151.6479999999997,
      "v": 95
    },
    {
      "midi": 83,
      "hit": false,
      "t": 3428.3520000000003,
      "d": 2214.144,
      "v": 105
    },
    {
      "midi": 55,
      "hit": false,
      "t": 4285.4400000000005,
      "d": 2339.1359999999995,
      "v": 87
    },
    {
      "midi": 59,
      "hit": false,
      "t": 4571.136,
      "d": 2062.3679999999995,
      "v": 87
    },
    {
      "midi": 62,
      "hit": false,
      "t": 4856.832,
      "d": 1812.384,
      "v": 91
    },
    {
      "midi": 67,
      "hit": false,
      "t": 5142.528,
      "d": 1758.8160000000007,
      "v": 87
    },
    {
      "midi": 83,
      "hit": false,
      "t": 5713.92,
      "d": 80.35199999999986,
      "v": 95
    },
    {
      "midi": 82,
      "hit": false,
      "t": 5999.616,
      "d": 53.56800000000021,
      "v": 95
    },
    {
      "midi": 83,
      "hit": false,
      "t": 5999.616,
      "d": 303.5519999999997,
      "v": 127
    },
    {
      "midi": 81,
      "hit": false,
      "t": 6285.312,
      "d": 321.40800000000036,
      "v": 105
    },
    {
      "midi": 79,
      "hit": false,
      "t": 6571.008,
      "d": 285.6960000000008,
      "v": 115
    },
    {
      "midi": 81,
      "hit": false,
      "t": 6856.704000000001,
      "d": 142.84799999999996,
      "v": 87
    },
    {
      "midi": 83,
      "hit": false,
      "t": 6856.704000000001,
      "d": 276.76800000000003,
      "v": 91
    },
    {
      "midi": 59,
      "hit": false,
      "t": 6856.704000000001,
      "d": 633.8879999999999,
      "v": 91
    },
    {
      "midi": 62,
      "hit": false,
      "t": 6856.704000000001,
      "d": 767.808,
      "v": 91
    },
    {
      "midi": 66,
      "hit": false,
      "t": 6856.704000000001,
      "d": 946.3679999999995,
      "v": 105
    },
    {
      "midi": 86,
      "hit": false,
      "t": 7142.400000000001,
      "d": 294.6239999999998,
      "v": 105
    },
    {
      "midi": 83,
      "hit": false,
      "t": 7428.0960000000005,
      "d": 2035.5839999999998,
      "v": 115
    },
    {
      "midi": 59,
      "hit": false,
      "t": 7713.792,
      "d": 2473.0559999999978,
      "v": 99
    },
    {
      "midi": 62,
      "hit": false,
      "t": 7999.488,
      "d": 2178.431999999998,
      "v": 83
    },
    {
      "midi": 66,
      "hit": false,
      "t": 8285.184000000001,
      "d": 1821.311999999998,
      "v": 87
    },
    {
      "midi": 71,
      "hit": false,
      "t": 8570.880000000001,
      "d": 812.4480000000003,
      "v": 91
    },
    {
      "midi": 76,
      "hit": false,
      "t": 9427.968,
      "d": 312.47999999999956,
      "v": 99
    },
    {
      "midi": 72,
      "hit": false,
      "t": 9713.664,
      "d": 187.48799999999937,
      "v": 105
    },
    {
      "midi": 81,
      "hit": false,
      "t": 9713.664,
      "d": 223.1999999999989,
      "v": 99
    },
    {
      "midi": 74,
      "hit": false,
      "t": 9999.359999999999,
      "d": 124.99200000000019,
      "v": 83
    },
    {
      "midi": 83,
      "hit": false,
      "t": 9999.359999999999,
      "d": 169.6319999999996,
      "v": 115
    },
    {
      "midi": 67,
      "hit": false,
      "t": 10285.055999999999,
      "d": 374.97599999999875,
      "v": 95
    },
    {
      "midi": 64,
      "hit": false,
      "t": 10285.055999999999,
      "d": 419.61599999999817,
      "v": 99
    },
    {
      "midi": 60,
      "hit": false,
      "t": 10285.055999999999,
      "d": 437.47199999999793,
      "v": 91
    },
    {
      "midi": 76,
      "hit": false,
      "t": 10285.055999999999,
      "d": 2196.287999999997,
      "v": 87
    },
    {
      "midi": 84,
      "hit": false,
      "t": 10285.055999999999,
      "d": 2214.1439999999966,
      "v": 115
    },
    {
      "midi": 60,
      "hit": false,
      "t": 11142.143999999997,
      "d": 294.6239999999998,
      "v": 95
    },
    {
      "midi": 55,
      "hit": false,
      "t": 11427.839999999997,
      "d": 1812.3839999999982,
      "v": 95
    },
    {
      "midi": 60,
      "hit": false,
      "t": 11713.535999999996,
      "d": 1589.1839999999975,
      "v": 79
    },
    {
      "midi": 48,
      "hit": false,
      "t": 11999.231999999996,
      "d": 1187.423999999999,
      "v": 105
    },
    {
      "midi": 84,
      "hit": false,
      "t": 12570.623999999996,
      "d": 62.495999999999185,
      "v": 99
    },
    {
      "midi": 76,
      "hit": false,
      "t": 12570.623999999996,
      "d": 71.42399999999907,
      "v": 83
    },
    {
      "midi": 76,
      "hit": false,
      "t": 12856.319999999996,
      "d": 98.20800000000054,
      "v": 95
    },
    {
      "midi": 84,
      "hit": false,
      "t": 12856.319999999996,
      "d": 124.99200000000019,
      "v": 105
    },
    {
      "midi": 74,
      "hit": false,
      "t": 13142.015999999996,
      "d": 124.99199999999837,
      "v": 91
    },
    {
      "midi": 83,
      "hit": false,
      "t": 13142.015999999996,
      "d": 142.84799999999814,
      "v": 91
    },
    {
      "midi": 72,
      "hit": false,
      "t": 13427.711999999994,
      "d": 98.20800000000054,
      "v": 91
    },
    {
      "midi": 81,
      "hit": false,
      "t": 13427.711999999994,
      "d": 160.70399999999972,
      "v": 87
    },
    {
      "midi": 74,
      "hit": false,
      "t": 13713.407999999994,
      "d": 910.655999999999,
      "v": 91
    },
    {
      "midi": 83,
      "hit": false,
      "t": 13713.407999999994,
      "d": 946.3679999999986,
      "v": 105
    },
    {
      "midi": 57,
      "hit": false,
      "t": 13713.407999999994,
      "d": 1232.0639999999967,
      "v": 95
    },
    {
      "midi": 60,
      "hit": false,
      "t": 13999.103999999994,
      "d": 910.6559999999972,
      "v": 91
    },
    {
      "midi": 64,
      "hit": false,
      "t": 14284.799999999994,
      "d": 607.1039999999975,
      "v": 99
    },
    {
      "midi": 67,
      "hit": false,
      "t": 14570.495999999994,
      "d": 294.623999999998,
      "v": 99
    },
    {
      "midi": 76,
      "hit": false,
      "t": 14856.191999999992,
      "d": 107.1359999999986,
      "v": 95
    },
    {
      "midi": 84,
      "hit": false,
      "t": 14856.191999999992,
      "d": 116.06399999999849,
      "v": 95
    },
    {
      "midi": 74,
      "hit": false,
      "t": 15141.88799999999,
      "d": 124.99200000000019,
      "v": 91
    },
    {
      "midi": 83,
      "hit": false,
      "t": 15141.88799999999,
      "d": 133.92000000000007,
      "v": 95
    },
    {
      "midi": 72,
      "hit": false,
      "t": 15427.58399999999,
      "d": 1276.7039999999997,
      "v": 95
    },
    {
      "midi": 81,
      "hit": false,
      "t": 15427.58399999999,
      "d": 1312.4159999999993,
      "v": 95
    },
    {
      "midi": 50,
      "hit": false,
      "t": 15427.58399999999,
      "d": 1374.9119999999984,
      "v": 95
    },
    {
      "midi": 55,
      "hit": false,
      "t": 15713.27999999999,
      "d": 1098.1439999999984,
      "v": 95
    },
    {
      "midi": 57,
      "hit": false,
      "t": 15998.97599999999,
      "d": 785.6639999999989,
      "v": 95
    },
    {
      "midi": 62,
      "hit": false,
      "t": 16284.67199999999,
      "d": 464.2559999999994,
      "v": 99
    },
    {
      "midi": 59,
      "hit": false,
      "t": 17141.759999999987,
      "d": 1633.8240000000005,
      "v": 91
    },
    {
      "midi": 62,
      "hit": false,
      "t": 17141.759999999987,
      "d": 1660.6080000000002,
      "v": 95
    },
    {
      "midi": 67,
      "hit": false,
      "t": 17141.759999999987,
      "d": 1678.464,
      "v": 91
    },
    {
      "midi": 43,
      "hit": false,
      "t": 17141.759999999987,
      "d": 2803.392,
      "v": 79
    },
    {
      "midi": 50,
      "hit": false,
      "t": 17141.759999999987,
      "d": 2821.2479999999996,
      "v": 91
    },
    {
      "midi": 55,
      "hit": false,
      "t": 17141.759999999987,
      "d": 2874.815999999999,
      "v": 79
    },
    {
      "midi": 71,
      "hit": false,
      "t": 19713.023999999987,
      "d": 267.84000000000015,
      "v": 91
    },
    {
      "midi": 62,
      "hit": false,
      "t": 19713.023999999987,
      "d": 285.6959999999999,
      "v": 91
    },
    {
      "midi": 67,
      "hit": false,
      "t": 19713.023999999987,
      "d": 285.6959999999999,
      "v": 95
    },
    {
      "midi": 54,
      "hit": false,
      "t": 20570.111999999986,
      "d": 2107.007999999998,
      "v": 91
    },
    {
      "midi": 59,
      "hit": false,
      "t": 20570.111999999986,
      "d": 2517.6959999999963,
      "v": 87
    },
    {
      "midi": 62,
      "hit": false,
      "t": 20570.111999999986,
      "d": 2517.6959999999963,
      "v": 91
    },
    {
      "midi": 66,
      "hit": false,
      "t": 20570.111999999986,
      "d": 2526.623999999996,
      "v": 95
    },
    {
      "midi": 47,
      "hit": false,
      "t": 20570.111999999986,
      "d": 3017.6639999999934,
      "v": 95
    },
    {
      "midi": 54,
      "hit": false,
      "t": 23141.375999999982,
      "d": 419.61599999999817,
      "v": 87
    },
    {
      "midi": 62,
      "hit": false,
      "t": 23427.071999999982,
      "d": 348.19199999999546,
      "v": 95
    },
    {
      "midi": 66,
      "hit": false,
      "t": 23712.76799999998,
      "d": 330.33599999999933,
      "v": 123
    },
    {
      "midi": 55,
      "hit": false,
      "t": 23998.463999999978,
      "d": 1437.4079999999994,
      "v": 83
    },
    {
      "midi": 60,
      "hit": false,
      "t": 23998.463999999978,
      "d": 2258.7839999999997,
      "v": 91
    },
    {
      "midi": 64,
      "hit": false,
      "t": 23998.463999999978,
      "d": 2294.495999999999,
      "v": 95
    },
    {
      "midi": 48,
      "hit": false,
      "t": 23998.463999999978,
      "d": 2892.6719999999987,
      "v": 91
    },
    {
      "midi": 55,
      "hit": false,
      "t": 25712.639999999978,
      "d": 1232.0639999999985,
      "v": 95
    },
    {
      "midi": 60,
      "hit": false,
      "t": 26569.727999999977,
      "d": 267.84000000000015,
      "v": 99
    },
    {
      "midi": 67,
      "hit": false,
      "t": 26569.727999999977,
      "d": 285.6959999999999,
      "v": 87
    },
    {
      "midi": 52,
      "hit": false,
      "t": 27426.815999999977,
      "d": 803.5200000000004,
      "v": 95
    },
    {
      "midi": 60,
      "hit": false,
      "t": 27426.815999999977,
      "d": 1035.648000000001,
      "v": 95
    },
    {
      "midi": 64,
      "hit": false,
      "t": 27426.815999999977,
      "d": 1044.576000000001,
      "v": 95
    },
    {
      "midi": 45,
      "hit": false,
      "t": 27426.815999999977,
      "d": 1080.2880000000005,
      "v": 91
    },
    {
      "midi": 60,
      "hit": false,
      "t": 29140.991999999977,
      "d": 419.6160000000018,
      "v": 87
    },
    {
      "midi": 64,
      "hit": false,
      "t": 29140.991999999977,
      "d": 446.40000000000146,
      "v": 91
    },
    {
      "midi": 67,
      "hit": false,
      "t": 29140.991999999977,
      "d": 446.40000000000146,
      "v": 105
    },
    {
      "midi": 38,
      "hit": false,
      "t": 29140.991999999977,
      "d": 1196.351999999999,
      "v": 83
    },
    {
      "midi": 50,
      "hit": false,
      "t": 29140.991999999977,
      "d": 1294.5599999999977,
      "v": 83
    },
    {
      "midi": 60,
      "hit": false,
      "t": 29998.079999999976,
      "d": 374.97599999999875,
      "v": 91
    },
    {
      "midi": 69,
      "hit": false,
      "t": 29998.079999999976,
      "d": 401.7599999999984,
      "v": 95
    },
    {
      "midi": 64,
      "hit": false,
      "t": 29998.079999999976,
      "d": 455.3279999999977,
      "v": 99
    },
    {
      "midi": 62,
      "hit": false,
      "t": 30855.167999999972,
      "d": 1732.0320000000029,
      "v": 87
    },
    {
      "midi": 67,
      "hit": false,
      "t": 30855.167999999972,
      "d": 1732.0320000000029,
      "v": 99
    },
    {
      "midi": 71,
      "hit": false,
      "t": 30855.167999999972,
      "d": 1767.7440000000024,
      "v": 91
    },
    {
      "midi": 43,
      "hit": false,
      "t": 30855.167999999972,
      "d": 2731.967999999997,
      "v": 95
    },
    {
      "midi": 50,
      "hit": false,
      "t": 30855.167999999972,
      "d": 2767.6799999999967,
      "v": 87
    },
    {
      "midi": 55,
      "hit": false,
      "t": 30855.167999999972,
      "d": 2812.319999999996,
      "v": 91
    },
    {
      "midi": 67,
      "hit": false,
      "t": 33426.43199999997,
      "d": 232.12799999999697,
      "v": 99
    },
    {
      "midi": 74,
      "hit": false,
      "t": 33426.43199999997,
      "d": 232.12799999999697,
      "v": 95
    },
    {
      "midi": 54,
      "hit": false,
      "t": 34283.51999999997,
      "d": 2249.8559999999998,
      "v": 87
    },
    {
      "midi": 59,
      "hit": false,
      "t": 34283.51999999997,
      "d": 2562.336000000003,
      "v": 79
    },
    {
      "midi": 62,
      "hit": false,
      "t": 34283.51999999997,
      "d": 2580.1920000000027,
      "v": 95
    },
    {
      "midi": 66,
      "hit": false,
      "t": 34283.51999999997,
      "d": 2589.1200000000026,
      "v": 91
    },
    {
      "midi": 47,
      "hit": false,
      "t": 34283.51999999997,
      "d": 3124.7999999999956,
      "v": 87
    },
    {
      "midi": 54,
      "hit": false,
      "t": 36854.78399999997,
      "d": 455.32799999999406,
      "v": 77
    },
    {
      "midi": 66,
      "hit": false,
      "t": 37140.47999999997,
      "d": 330.3359999999957,
      "v": 115
    },
    {
      "midi": 62,
      "hit": false,
      "t": 37426.17599999996,
      "d": 321.4079999999958,
      "v": 115
    },
    {
      "midi": 60,
      "hit": false,
      "t": 37711.87199999996,
      "d": 1169.5679999999993,
      "v": 91
    },
    {
      "midi": 64,
      "hit": false,
      "t": 37711.87199999996,
      "d": 1178.4959999999992,
      "v": 95
    },
    {
      "midi": 55,
      "hit": false,
      "t": 37711.87199999996,
      "d": 1428.479999999996,
      "v": 79
    },
    {
      "midi": 48,
      "hit": false,
      "t": 37711.87199999996,
      "d": 1455.2639999999956,
      "v": 91
    },
    {
      "midi": 55,
      "hit": false,
      "t": 39426.04799999995,
      "d": 1071.3600000000006,
      "v": 83
    },
    {
      "midi": 48,
      "hit": false,
      "t": 39426.04799999995,
      "d": 1133.8559999999998,
      "v": 99
    },
    {
      "midi": 64,
      "hit": false,
      "t": 40283.135999999955,
      "d": 276.7679999999964,
      "v": 95
    },
    {
      "midi": 60,
      "hit": false,
      "t": 40283.135999999955,
      "d": 285.6959999999963,
      "v": 99
    },
    {
      "midi": 52,
      "hit": false,
      "t": 41140.22399999995,
      "d": 535.679999999993,
      "v": 95
    },
    {
      "midi": 57,
      "hit": false,
      "t": 41140.22399999995,
      "d": 812.4479999999894,
      "v": 91
    },
    {
      "midi": 60,
      "hit": false,
      "t": 41140.22399999995,
      "d": 821.3759999999893,
      "v": 95
    },
    {
      "midi": 45,
      "hit": false,
      "t": 41140.22399999995,
      "d": 1205.2799999999843,
      "v": 79
    },
    {
      "midi": 52,
      "hit": false,
      "t": 41997.31199999994,
      "d": 241.05599999999686,
      "v": 99
    },
    {
      "midi": 60,
      "hit": false,
      "t": 42283.007999999936,
      "d": 919.5839999999953,
      "v": 91
    },
    {
      "midi": 64,
      "hit": false,
      "t": 42568.70399999993,
      "d": 651.7439999999988,
      "v": 95
    },
    {
      "midi": 67,
      "hit": false,
      "t": 42854.399999999936,
      "d": 383.903999999995,
      "v": 105
    },
    {
      "midi": 38,
      "hit": false,
      "t": 42854.399999999936,
      "d": 1026.719999999994,
      "v": 105
    },
    {
      "midi": 60,
      "hit": false,
      "t": 43711.48799999993,
      "d": 241.05599999999686,
      "v": 105
    },
    {
      "midi": 69,
      "hit": false,
      "t": 43711.48799999993,
      "d": 294.62399999999616,
      "v": 123
    },
    {
      "midi": 62,
      "hit": false,
      "t": 44568.57599999993,
      "d": 1401.6959999999963,
      "v": 91
    },
    {
      "midi": 67,
      "hit": false,
      "t": 44568.57599999993,
      "d": 1446.3359999999957,
      "v": 99
    },
    {
      "midi": 71,
      "hit": false,
      "t": 44568.57599999993,
      "d": 1482.0479999999952,
      "v": 99
    },
    {
      "midi": 43,
      "hit": false,
      "t": 44568.57599999993,
      "d": 2678.399999999994,
      "v": 91
    },
    {
      "midi": 50,
      "hit": false,
      "t": 44568.57599999993,
      "d": 2767.679999999993,
      "v": 91
    },
    {
      "midi": 55,
      "hit": false,
      "t": 44568.57599999993,
      "d": 2928.383999999991,
      "v": 87
    },
    {
      "midi": 71,
      "hit": false,
      "t": 47139.839999999924,
      "d": 133.91999999999825,
      "v": 123
    },
    {
      "midi": 79,
      "hit": false,
      "t": 47139.839999999924,
      "d": 187.48799999999756,
      "v": 99
    },
    {
      "midi": 74,
      "hit": false,
      "t": 47996.92799999992,
      "d": 1687.3919999999998,
      "v": 95
    },
    {
      "midi": 71,
      "hit": false,
      "t": 47996.92799999992,
      "d": 1705.2479999999996,
      "v": 95
    },
    {
      "midi": 78,
      "hit": false,
      "t": 47996.92799999992,
      "d": 1714.1759999999995,
      "v": 91
    },
    {
      "midi": 55,
      "hit": false,
      "t": 47996.92799999992,
      "d": 2080.224000000002,
      "v": 83
    },
    {
      "midi": 43,
      "hit": false,
      "t": 47996.92799999992,
      "d": 2821.2479999999996,
      "v": 83
    },
    {
      "midi": 55,
      "hit": false,
      "t": 50568.19199999992,
      "d": 410.68799999999464,
      "v": 99
    },
    {
      "midi": 59,
      "hit": false,
      "t": 50853.88799999992,
      "d": 160.7039999999979,
      "v": 105
    },
    {
      "midi": 62,
      "hit": false,
      "t": 51139.583999999915,
      "d": 196.41599999999744,
      "v": 115
    },
    {
      "midi": 59,
      "hit": false,
      "t": 51425.27999999991,
      "d": 794.5920000000042,
      "v": 95
    },
    {
      "midi": 63,
      "hit": false,
      "t": 51425.27999999991,
      "d": 839.2320000000036,
      "v": 99
    },
    {
      "midi": 47,
      "hit": false,
      "t": 51425.27999999991,
      "d": 2928.383999999998,
      "v": 95
    },
    {
      "midi": 54,
      "hit": false,
      "t": 51425.27999999991,
      "d": 3008.735999999997,
      "v": 91
    },
    {
      "midi": 71,
      "hit": false,
      "t": 53139.45599999992,
      "d": 276.7679999999964,
      "v": 115
    },
    {
      "midi": 63,
      "hit": false,
      "t": 53139.45599999992,
      "d": 312.4799999999959,
      "v": 115
    },
    {
      "midi": 69,
      "hit": false,
      "t": 53996.543999999914,
      "d": 401.75999999999476,
      "v": 115
    },
    {
      "midi": 63,
      "hit": false,
      "t": 53996.543999999914,
      "d": 437.4719999999943,
      "v": 95
    },
    {
      "midi": 59,
      "hit": false,
      "t": 54853.63199999991,
      "d": 767.8079999999973,
      "v": 77
    },
    {
      "midi": 64,
      "hit": false,
      "t": 54853.63199999991,
      "d": 991.0079999999944,
      "v": 95
    },
    {
      "midi": 67,
      "hit": false,
      "t": 54853.63199999991,
      "d": 1035.6479999999938,
      "v": 99
    },
    {
      "midi": 52,
      "hit": false,
      "t": 54853.63199999991,
      "d": 1383.8399999999892,
      "v": 87
    },
    {
      "midi": 59,
      "hit": false,
      "t": 55996.4159999999,
      "d": 1321.34399999999,
      "v": 95
    },
    {
      "midi": 64,
      "hit": false,
      "t": 56282.1119999999,
      "d": 321.4079999999958,
      "v": 115
    },
    {
      "midi": 67,
      "hit": false,
      "t": 56282.1119999999,
      "d": 1392.7679999999964,
      "v": 99
    },
    {
      "midi": 62,
      "hit": false,
      "t": 56567.807999999895,
      "d": 1116,
      "v": 91
    },
    {
      "midi": 50,
      "hit": false,
      "t": 56567.807999999895,
      "d": 1624.8959999999934,
      "v": 91
    },
    {
      "midi": 59,
      "hit": false,
      "t": 57710.591999999895,
      "d": 607.1039999999921,
      "v": 95
    },
    {
      "midi": 62,
      "hit": false,
      "t": 57996.28799999989,
      "d": 330.3359999999957,
      "v": 115
    },
    {
      "midi": 67,
      "hit": false,
      "t": 57996.28799999989,
      "d": 348.19199999999546,
      "v": 105
    },
    {
      "midi": 55,
      "hit": false,
      "t": 58281.98399999989,
      "d": 1142.7839999999997,
      "v": 79
    },
    {
      "midi": 60,
      "hit": false,
      "t": 58281.98399999989,
      "d": 1705.2479999999996,
      "v": 99
    },
    {
      "midi": 64,
      "hit": false,
      "t": 58281.98399999989,
      "d": 1732.0319999999992,
      "v": 95
    },
    {
      "midi": 48,
      "hit": false,
      "t": 58281.98399999989,
      "d": 2901.600000000006,
      "v": 91
    },
    {
      "midi": 55,
      "hit": false,
      "t": 60853.24799999989,
      "d": 491.0400000000009,
      "v": 99
    },
    {
      "midi": 60,
      "hit": false,
      "t": 61138.943999999894,
      "d": 205.34399999999732,
      "v": 99
    },
    {
      "midi": 64,
      "hit": false,
      "t": 61424.63999999989,
      "d": 178.55999999999767,
      "v": 115
    },
    {
      "midi": 59,
      "hit": false,
      "t": 61710.33599999989,
      "d": 678.5279999999984,
      "v": 95
    },
    {
      "midi": 62,
      "hit": false,
      "t": 61710.33599999989,
      "d": 723.1679999999978,
      "v": 105
    },
    {
      "midi": 54,
      "hit": false,
      "t": 61710.33599999989,
      "d": 999.9359999999942,
      "v": 91
    },
    {
      "midi": 47,
      "hit": false,
      "t": 61710.33599999989,
      "d": 1124.9279999999926,
      "v": 87
    },
    {
      "midi": 59,
      "hit": false,
      "t": 62567.42399999988,
      "d": 258.9119999999966,
      "v": 105
    },
    {
      "midi": 66,
      "hit": false,
      "t": 62567.42399999988,
      "d": 267.8399999999965,
      "v": 115
    },
    {
      "midi": 55,
      "hit": false,
      "t": 63424.51199999988,
      "d": 830.3039999999964,
      "v": 91
    },
    {
      "midi": 59,
      "hit": false,
      "t": 63424.51199999988,
      "d": 848.1599999999962,
      "v": 99
    },
    {
      "midi": 40,
      "hit": false,
      "t": 63424.51199999988,
      "d": 1232.0639999999985,
      "v": 95
    },
    {
      "midi": 52,
      "hit": false,
      "t": 63424.51199999988,
      "d": 1374.9119999999966,
      "v": 95
    },
    {
      "midi": 47,
      "hit": false,
      "t": 64281.599999999875,
      "d": 455.32800000000134,
      "v": 83
    },
    {
      "midi": 62,
      "hit": false,
      "t": 64567.29599999988,
      "d": 205.34399999999732,
      "v": 123
    },
    {
      "midi": 55,
      "hit": false,
      "t": 64567.29599999988,
      "d": 249.98399999999674,
      "v": 95
    },
    {
      "midi": 57,
      "hit": false,
      "t": 65138.68799999988,
      "d": 553.5359999999928,
      "v": 99
    },
    {
      "midi": 60,
      "hit": false,
      "t": 65138.68799999988,
      "d": 598.1759999999922,
      "v": 99
    },
    {
      "midi": 52,
      "hit": false,
      "t": 65138.68799999988,
      "d": 937.4399999999878,
      "v": 91
    },
    {
      "midi": 45,
      "hit": false,
      "t": 65138.68799999988,
      "d": 1098.1439999999857,
      "v": 95
    },
    {
      "midi": 57,
      "hit": false,
      "t": 65995.77599999987,
      "d": 258.9119999999966,
      "v": 99
    },
    {
      "midi": 64,
      "hit": false,
      "t": 65995.77599999987,
      "d": 321.4079999999958,
      "v": 105
    },
    {
      "midi": 59,
      "hit": false,
      "t": 66852.86399999986,
      "d": 526.7519999999931,
      "v": 95
    },
    {
      "midi": 62,
      "hit": false,
      "t": 66852.86399999986,
      "d": 553.5359999999928,
      "v": 99
    },
    {
      "midi": 47,
      "hit": false,
      "t": 66852.86399999986,
      "d": 1232.063999999984,
      "v": 95
    },
    {
      "midi": 54,
      "hit": false,
      "t": 67424.25599999985,
      "d": 598.1759999999922,
      "v": 95
    },
    {
      "midi": 59,
      "hit": false,
      "t": 67709.95199999984,
      "d": 303.55199999999604,
      "v": 95
    },
    {
      "midi": 66,
      "hit": false,
      "t": 67709.95199999984,
      "d": 383.903999999995,
      "v": 115
    },
    {
      "midi": 60,
      "hit": false,
      "t": 68567.03999999983,
      "d": 383.903999999995,
      "v": 105
    },
    {
      "midi": 64,
      "hit": false,
      "t": 68567.03999999983,
      "d": 392.8319999999949,
      "v": 99
    },
    {
      "midi": 48,
      "hit": false,
      "t": 68567.03999999983,
      "d": 1107.0719999999856,
      "v": 105
    },
    {
      "midi": 55,
      "hit": false,
      "t": 69138.43199999983,
      "d": 660.6719999999914,
      "v": 91
    },
    {
      "midi": 60,
      "hit": false,
      "t": 69424.12799999982,
      "d": 187.48799999999756,
      "v": 99
    },
    {
      "midi": 67,
      "hit": false,
      "t": 69424.12799999982,
      "d": 285.6959999999963,
      "v": 123
    },
    {
      "midi": 62,
      "hit": false,
      "t": 70281.21599999981,
      "d": 321.4079999999958,
      "v": 91
    },
    {
      "midi": 69,
      "hit": false,
      "t": 70281.21599999981,
      "d": 669.5999999999913,
      "v": 115
    },
    {
      "midi": 50,
      "hit": false,
      "t": 70281.21599999981,
      "d": 1294.5599999999831,
      "v": 99
    },
    {
      "midi": 57,
      "hit": false,
      "t": 70566.91199999981,
      "d": 928.5119999999879,
      "v": 99
    },
    {
      "midi": 62,
      "hit": false,
      "t": 70852.6079999998,
      "d": 580.3199999999924,
      "v": 105
    },
    {
      "midi": 67,
      "hit": false,
      "t": 71138.3039999998,
      "d": 178.55999999999767,
      "v": 115
    },
    {
      "midi": 69,
      "hit": false,
      "t": 71423.9999999998,
      "d": 196.41599999999744,
      "v": 115
    },
    {
      "midi": 74,
      "hit": false,
      "t": 71709.69599999979,
      "d": 1607.0399999999936,
      "v": 115
    },
    {
      "midi": 67,
      "hit": false,
      "t": 71995.39199999979,
      "d": 1080.2880000000005,
      "v": 105
    },
    {
      "midi": 71,
      "hit": false,
      "t": 71995.39199999979,
      "d": 1276.703999999998,
      "v": 115
    },
    {
      "midi": 43,
      "hit": false,
      "t": 71995.39199999979,
      "d": 2731.9679999999935,
      "v": 91
    },
    {
      "midi": 55,
      "hit": false,
      "t": 71995.39199999979,
      "d": 2883.7439999999915,
      "v": 91
    },
    {
      "midi": 71,
      "hit": false,
      "t": 73709.56799999978,
      "d": 187.48799999999756,
      "v": 105
    },
    {
      "midi": 74,
      "hit": false,
      "t": 73709.56799999978,
      "d": 223.1999999999971,
      "v": 115
    },
    {
      "midi": 71,
      "hit": false,
      "t": 74566.65599999978,
      "d": 205.34399999999732,
      "v": 105
    },
    {
      "midi": 74,
      "hit": false,
      "t": 74566.65599999978,
      "d": 214.2719999999972,
      "v": 115
    },
    {
      "midi": 79,
      "hit": false,
      "t": 74566.65599999978,
      "d": 223.1999999999971,
      "v": 105
    },
    {
      "midi": 71,
      "hit": false,
      "t": 75423.74399999977,
      "d": 2115.9360000000015,
      "v": 91
    },
    {
      "midi": 74,
      "hit": false,
      "t": 75423.74399999977,
      "d": 2133.7920000000013,
      "v": 105
    },
    {
      "midi": 78,
      "hit": false,
      "t": 75423.74399999977,
      "d": 2133.7920000000013,
      "v": 99
    },
    {
      "midi": 54,
      "hit": false,
      "t": 75423.74399999977,
      "d": 2839.103999999992,
      "v": 95
    },
    {
      "midi": 47,
      "hit": false,
      "t": 75423.74399999977,
      "d": 2928.383999999991,
      "v": 99
    },
    {
      "midi": 78,
      "hit": false,
      "t": 77995.00799999977,
      "d": 223.1999999999971,
      "v": 115
    },
    {
      "midi": 71,
      "hit": false,
      "t": 77995.00799999977,
      "d": 241.05599999999686,
      "v": 115
    },
    {
      "midi": 72,
      "hit": false,
      "t": 78852.09599999976,
      "d": 839.2319999999891,
      "v": 99
    },
    {
      "midi": 69,
      "hit": false,
      "t": 78852.09599999976,
      "d": 848.1599999999889,
      "v": 79
    },
    {
      "midi": 76,
      "hit": false,
      "t": 78852.09599999976,
      "d": 866.0159999999887,
      "v": 105
    },
    {
      "midi": 52,
      "hit": false,
      "t": 78852.09599999976,
      "d": 982.0799999999872,
      "v": 95
    },
    {
      "midi": 45,
      "hit": false,
      "t": 78852.09599999976,
      "d": 2758.751999999993,
      "v": 91
    },
    {
      "midi": 57,
      "hit": false,
      "t": 80566.27199999975,
      "d": 901.7280000000028,
      "v": 77
    },
    {
      "midi": 60,
      "hit": false,
      "t": 80566.27199999975,
      "d": 973.1520000000019,
      "v": 83
    },
    {
      "midi": 64,
      "hit": false,
      "t": 80566.27199999975,
      "d": 999.9360000000015,
      "v": 83
    },
    {
      "midi": 52,
      "hit": false,
      "t": 80566.27199999975,
      "d": 1008.8640000000014,
      "v": 79
    },
    {
      "midi": 59,
      "hit": false,
      "t": 82280.44799999976,
      "d": 848.1599999999889,
      "v": 95
    },
    {
      "midi": 64,
      "hit": false,
      "t": 82280.44799999976,
      "d": 866.0159999999887,
      "v": 95
    },
    {
      "midi": 67,
      "hit": false,
      "t": 82280.44799999976,
      "d": 919.583999999988,
      "v": 91
    },
    {
      "midi": 36,
      "hit": false,
      "t": 82280.44799999976,
      "d": 955.2959999999875,
      "v": 95
    },
    {
      "midi": 48,
      "hit": false,
      "t": 82280.44799999976,
      "d": 1008.8639999999868,
      "v": 95
    },
    {
      "midi": 62,
      "hit": false,
      "t": 83994.62399999975,
      "d": 321.4079999999958,
      "v": 91
    },
    {
      "midi": 67,
      "hit": false,
      "t": 83994.62399999975,
      "d": 473.18399999999383,
      "v": 95
    },
    {
      "midi": 69,
      "hit": false,
      "t": 83994.62399999975,
      "d": 517.8239999999932,
      "v": 99
    },
    {
      "midi": 38,
      "hit": false,
      "t": 83994.62399999975,
      "d": 982.0799999999872,
      "v": 95
    },
    {
      "midi": 50,
      "hit": false,
      "t": 83994.62399999975,
      "d": 1080.287999999986,
      "v": 95
    },
    {
      "midi": 67,
      "hit": false,
      "t": 84851.71199999974,
      "d": 196.41599999999744,
      "v": 99
    },
    {
      "midi": 69,
      "hit": false,
      "t": 84851.71199999974,
      "d": 249.98399999999674,
      "v": 99
    },
    {
      "midi": 74,
      "hit": false,
      "t": 84851.71199999974,
      "d": 285.6959999999963,
      "v": 95
    },
    {
      "midi": 71,
      "hit": false,
      "t": 85708.79999999974,
      "d": 1151.7119999999995,
      "v": 99
    },
    {
      "midi": 74,
      "hit": false,
      "t": 85708.79999999974,
      "d": 1196.351999999999,
      "v": 115
    },
    {
      "midi": 43,
      "hit": false,
      "t": 85708.79999999974,
      "d": 2821.2479999999923,
      "v": 95
    },
    {
      "midi": 50,
      "hit": false,
      "t": 85708.79999999974,
      "d": 2848.031999999992,
      "v": 91
    },
    {
      "midi": 55,
      "hit": false,
      "t": 85708.79999999974,
      "d": 2937.311999999991,
      "v": 99
    },
    {
      "midi": 71,
      "hit": false,
      "t": 87422.97599999973,
      "d": 124.99199999999837,
      "v": 91
    },
    {
      "midi": 74,
      "hit": false,
      "t": 87422.97599999973,
      "d": 160.7039999999979,
      "v": 105
    },
    {
      "midi": 79,
      "hit": false,
      "t": 87422.97599999973,
      "d": 196.41599999999744,
      "v": 99
    },
    {
      "midi": 74,
      "hit": false,
      "t": 88280.06399999974,
      "d": 151.77599999999802,
      "v": 105
    },
    {
      "midi": 83,
      "hit": false,
      "t": 88280.06399999974,
      "d": 160.7039999999979,
      "v": 115
    },
    {
      "midi": 78,
      "hit": false,
      "t": 89137.15199999973,
      "d": 2187.3600000000006,
      "v": 91
    },
    {
      "midi": 71,
      "hit": false,
      "t": 89137.15199999973,
      "d": 2196.2880000000005,
      "v": 95
    },
    {
      "midi": 74,
      "hit": false,
      "t": 89137.15199999973,
      "d": 2196.2880000000005,
      "v": 105
    },
    {
      "midi": 54,
      "hit": false,
      "t": 89137.15199999973,
      "d": 2937.311999999991,
      "v": 99
    },
    {
      "midi": 47,
      "hit": false,
      "t": 89137.15199999973,
      "d": 2964.0959999999905,
      "v": 95
    },
    {
      "midi": 74,
      "hit": false,
      "t": 91708.41599999972,
      "d": 205.34399999999732,
      "v": 115
    },
    {
      "midi": 71,
      "hit": false,
      "t": 91708.41599999972,
      "d": 223.1999999999971,
      "v": 95
    },
    {
      "midi": 78,
      "hit": false,
      "t": 91708.41599999972,
      "d": 232.12799999999697,
      "v": 99
    },
    {
      "midi": 76,
      "hit": false,
      "t": 92565.50399999971,
      "d": 964.224000000002,
      "v": 91
    },
    {
      "midi": 72,
      "hit": false,
      "t": 92565.50399999971,
      "d": 1008.8640000000014,
      "v": 91
    },
    {
      "midi": 55,
      "hit": false,
      "t": 92565.50399999971,
      "d": 1026.7200000000012,
      "v": 83
    },
    {
      "midi": 67,
      "hit": false,
      "t": 92565.50399999971,
      "d": 1035.648000000001,
      "v": 79
    },
    {
      "midi": 48,
      "hit": false,
      "t": 92565.50399999971,
      "d": 1357.0559999999969,
      "v": 91
    },
    {
      "midi": 54,
      "hit": false,
      "t": 94279.6799999997,
      "d": 812.4479999999894,
      "v": 91
    },
    {
      "midi": 71,
      "hit": false,
      "t": 94279.6799999997,
      "d": 946.3679999999877,
      "v": 95
    },
    {
      "midi": 66,
      "hit": false,
      "t": 94279.6799999997,
      "d": 955.2959999999875,
      "v": 91
    },
    {
      "midi": 62,
      "hit": false,
      "t": 94279.6799999997,
      "d": 973.1519999999873,
      "v": 91
    },
    {
      "midi": 47,
      "hit": false,
      "t": 94279.6799999997,
      "d": 1428.4799999999814,
      "v": 87
    },
    {
      "midi": 54,
      "hit": false,
      "t": 95422.46399999969,
      "d": 330.3359999999957,
      "v": 99
    },
    {
      "midi": 62,
      "hit": false,
      "t": 95708.15999999968,
      "d": 196.41599999999744,
      "v": 115
    },
    {
      "midi": 66,
      "hit": false,
      "t": 95708.15999999968,
      "d": 321.4079999999958,
      "v": 105
    },
    {
      "midi": 55,
      "hit": false,
      "t": 95993.85599999968,
      "d": 482.1119999999937,
      "v": 95
    },
    {
      "midi": 64,
      "hit": false,
      "t": 95993.85599999968,
      "d": 848.1599999999889,
      "v": 95
    },
    {
      "midi": 60,
      "hit": false,
      "t": 95993.85599999968,
      "d": 883.8719999999885,
      "v": 105
    },
    {
      "midi": 48,
      "hit": false,
      "t": 95993.85599999968,
      "d": 1151.711999999985,
      "v": 91
    },
    {
      "midi": 55,
      "hit": false,
      "t": 96850.94399999967,
      "d": 241.05599999999686,
      "v": 115
    },
    {
      "midi": 60,
      "hit": false,
      "t": 97136.63999999966,
      "d": 142.84799999999814,
      "v": 105
    },
    {
      "midi": 64,
      "hit": false,
      "t": 97422.33599999966,
      "d": 196.41599999999744,
      "v": 115
    },
    {
      "midi": 60,
      "hit": false,
      "t": 97708.03199999966,
      "d": 339.2639999999956,
      "v": 99
    },
    {
      "midi": 62,
      "hit": false,
      "t": 97708.03199999966,
      "d": 357.11999999999534,
      "v": 115
    },
    {
      "midi": 67,
      "hit": false,
      "t": 97708.03199999966,
      "d": 392.8319999999949,
      "v": 115
    },
    {
      "midi": 38,
      "hit": false,
      "t": 97708.03199999966,
      "d": 1205.2799999999843,
      "v": 91
    },
    {
      "midi": 50,
      "hit": false,
      "t": 97708.03199999966,
      "d": 1276.7039999999834,
      "v": 91
    },
    {
      "midi": 74,
      "hit": false,
      "t": 98565.11999999965,
      "d": 276.7679999999964,
      "v": 115
    },
    {
      "midi": 45,
      "hit": false,
      "t": 98565.11999999965,
      "d": 357.11999999999534,
      "v": 115
    },
    {
      "midi": 71,
      "hit": false,
      "t": 98850.81599999964,
      "d": 116.06399999999849,
      "v": 105
    },
    {
      "midi": 79,
      "hit": false,
      "t": 98850.81599999964,
      "d": 178.55999999999767,
      "v": 99
    },
    {
      "midi": 72,
      "hit": false,
      "t": 99136.51199999964,
      "d": 116.06399999999849,
      "v": 99
    },
    {
      "midi": 81,
      "hit": false,
      "t": 99136.51199999964,
      "d": 169.6319999999978,
      "v": 105
    },
    {
      "midi": 55,
      "hit": false,
      "t": 99422.20799999963,
      "d": 446.3999999999942,
      "v": 95
    },
    {
      "midi": 59,
      "hit": false,
      "t": 99422.20799999963,
      "d": 473.18399999999383,
      "v": 95
    },
    {
      "midi": 62,
      "hit": false,
      "t": 99422.20799999963,
      "d": 517.8239999999932,
      "v": 95
    },
    {
      "midi": 83,
      "hit": false,
      "t": 99422.20799999963,
      "d": 2160.575999999972,
      "v": 115
    },
    {
      "midi": 74,
      "hit": false,
      "t": 99422.20799999963,
      "d": 2178.4319999999716,
      "v": 99
    },
    {
      "midi": 55,
      "hit": false,
      "t": 100279.29599999962,
      "d": 2285.56799999997,
      "v": 95
    },
    {
      "midi": 59,
      "hit": false,
      "t": 100564.99199999962,
      "d": 2026.6559999999736,
      "v": 95
    },
    {
      "midi": 62,
      "hit": false,
      "t": 100850.68799999962,
      "d": 1785.5999999999767,
      "v": 95
    },
    {
      "midi": 67,
      "hit": false,
      "t": 101136.38399999961,
      "d": 1732.0319999999774,
      "v": 91
    },
    {
      "midi": 83,
      "hit": false,
      "t": 101707.7759999996,
      "d": 98.20799999999872,
      "v": 95
    },
    {
      "midi": 82,
      "hit": false,
      "t": 101993.4719999996,
      "d": 89.27999999999884,
      "v": 123
    },
    {
      "midi": 83,
      "hit": false,
      "t": 101993.4719999996,
      "d": 294.62399999999616,
      "v": 123
    },
    {
      "midi": 81,
      "hit": false,
      "t": 102279.1679999996,
      "d": 339.2639999999956,
      "v": 105
    },
    {
      "midi": 79,
      "hit": false,
      "t": 102564.8639999996,
      "d": 294.62399999999616,
      "v": 115
    },
    {
      "midi": 82,
      "hit": false,
      "t": 102850.55999999959,
      "d": 44.63999999999942,
      "v": 105
    },
    {
      "midi": 81,
      "hit": false,
      "t": 102850.55999999959,
      "d": 89.27999999999884,
      "v": 65
    },
    {
      "midi": 83,
      "hit": false,
      "t": 102850.55999999959,
      "d": 276.7679999999964,
      "v": 105
    },
    {
      "midi": 59,
      "hit": false,
      "t": 102850.55999999959,
      "d": 687.455999999991,
      "v": 91
    },
    {
      "midi": 62,
      "hit": false,
      "t": 102850.55999999959,
      "d": 758.8799999999901,
      "v": 99
    },
    {
      "midi": 66,
      "hit": false,
      "t": 102850.55999999959,
      "d": 919.583999999988,
      "v": 105
    },
    {
      "midi": 86,
      "hit": false,
      "t": 103136.25599999959,
      "d": 330.3359999999957,
      "v": 105
    },
    {
      "midi": 83,
      "hit": false,
      "t": 103421.95199999958,
      "d": 1999.8719999999885,
      "v": 95
    },
    {
      "midi": 59,
      "hit": false,
      "t": 103707.64799999958,
      "d": 2303.4239999999845,
      "v": 95
    },
    {
      "midi": 62,
      "hit": false,
      "t": 103993.34399999958,
      "d": 1973.0879999999888,
      "v": 87
    },
    {
      "midi": 66,
      "hit": false,
      "t": 104279.03999999957,
      "d": 1633.8239999999932,
      "v": 95
    },
    {
      "midi": 71,
      "hit": false,
      "t": 104564.73599999957,
      "d": 821.3760000000038,
      "v": 95
    },
    {
      "midi": 76,
      "hit": false,
      "t": 105421.82399999957,
      "d": 249.98399999999674,
      "v": 105
    },
    {
      "midi": 72,
      "hit": false,
      "t": 105707.51999999957,
      "d": 89.27999999999884,
      "v": 105
    },
    {
      "midi": 81,
      "hit": false,
      "t": 105707.51999999957,
      "d": 160.7039999999979,
      "v": 95
    },
    {
      "midi": 74,
      "hit": false,
      "t": 105993.21599999956,
      "d": 116.06399999999849,
      "v": 95
    },
    {
      "midi": 83,
      "hit": false,
      "t": 105993.21599999956,
      "d": 160.7039999999979,
      "v": 115
    },
    {
      "midi": 67,
      "hit": false,
      "t": 106278.91199999956,
      "d": 392.8319999999949,
      "v": 87
    },
    {
      "midi": 64,
      "hit": false,
      "t": 106278.91199999956,
      "d": 428.5439999999944,
      "v": 95
    },
    {
      "midi": 60,
      "hit": false,
      "t": 106278.91199999956,
      "d": 464.25599999999395,
      "v": 91
    },
    {
      "midi": 76,
      "hit": false,
      "t": 106278.91199999956,
      "d": 2205.2159999999712,
      "v": 91
    },
    {
      "midi": 84,
      "hit": false,
      "t": 106278.91199999956,
      "d": 2231.999999999971,
      "v": 105
    },
    {
      "midi": 60,
      "hit": false,
      "t": 107135.99999999955,
      "d": 312.4799999999959,
      "v": 95
    },
    {
      "midi": 55,
      "hit": false,
      "t": 107421.69599999955,
      "d": 1839.167999999976,
      "v": 91
    },
    {
      "midi": 60,
      "hit": false,
      "t": 107707.39199999954,
      "d": 1624.8959999999788,
      "v": 95
    },
    {
      "midi": 48,
      "hit": false,
      "t": 107993.08799999954,
      "d": 1205.2799999999843,
      "v": 115
    },
    {
      "midi": 76,
      "hit": false,
      "t": 108564.47999999953,
      "d": 71.42399999999907,
      "v": 79
    },
    {
      "midi": 84,
      "hit": false,
      "t": 108564.47999999953,
      "d": 71.42399999999907,
      "v": 95
    },
    {
      "midi": 76,
      "hit": false,
      "t": 108850.17599999953,
      "d": 89.27999999999884,
      "v": 105
    },
    {
      "midi": 84,
      "hit": false,
      "t": 108850.17599999953,
      "d": 116.06399999999849,
      "v": 115
    },
    {
      "midi": 74,
      "hit": false,
      "t": 109135.87199999952,
      "d": 107.1359999999986,
      "v": 95
    },
    {
      "midi": 83,
      "hit": false,
      "t": 109135.87199999952,
      "d": 116.06399999999849,
      "v": 95
    },
    {
      "midi": 72,
      "hit": false,
      "t": 109421.56799999952,
      "d": 98.20799999999872,
      "v": 95
    },
    {
      "midi": 81,
      "hit": false,
      "t": 109421.56799999952,
      "d": 151.77599999999802,
      "v": 95
    },
    {
      "midi": 60,
      "hit": false,
      "t": 109707.26399999952,
      "d": 232.12799999999697,
      "v": 99
    },
    {
      "midi": 64,
      "hit": false,
      "t": 109707.26399999952,
      "d": 357.11999999999534,
      "v": 91
    },
    {
      "midi": 74,
      "hit": false,
      "t": 109707.26399999952,
      "d": 999.935999999987,
      "v": 95
    },
    {
      "midi": 83,
      "hit": false,
      "t": 109707.26399999952,
      "d": 1035.6479999999865,
      "v": 115
    },
    {
      "midi": 57,
      "hit": false,
      "t": 109707.26399999952,
      "d": 1303.487999999983,
      "v": 91
    },
    {
      "midi": 60,
      "hit": false,
      "t": 109992.95999999951,
      "d": 946.3679999999877,
      "v": 95
    },
    {
      "midi": 64,
      "hit": false,
      "t": 110278.65599999951,
      "d": 687.455999999991,
      "v": 105
    },
    {
      "midi": 67,
      "hit": false,
      "t": 110564.3519999995,
      "d": 357.11999999999534,
      "v": 95
    },
    {
      "midi": 76,
      "hit": false,
      "t": 110850.0479999995,
      "d": 98.20799999999872,
      "v": 95
    },
    {
      "midi": 84,
      "hit": false,
      "t": 110850.0479999995,
      "d": 124.99199999999837,
      "v": 99
    },
    {
      "midi": 74,
      "hit": false,
      "t": 111135.7439999995,
      "d": 116.06399999999849,
      "v": 105
    },
    {
      "midi": 83,
      "hit": false,
      "t": 111135.7439999995,
      "d": 133.91999999999825,
      "v": 95
    },
    {
      "midi": 72,
      "hit": false,
      "t": 111421.4399999995,
      "d": 1124.9279999999853,
      "v": 115
    },
    {
      "midi": 81,
      "hit": false,
      "t": 111421.4399999995,
      "d": 1142.783999999985,
      "v": 95
    },
    {
      "midi": 50,
      "hit": false,
      "t": 111421.4399999995,
      "d": 1196.3519999999844,
      "v": 115
    },
    {
      "midi": 55,
      "hit": false,
      "t": 111707.13599999949,
      "d": 919.583999999988,
      "v": 91
    },
    {
      "midi": 57,
      "hit": false,
      "t": 111992.83199999949,
      "d": 607.1039999999921,
      "v": 105
    },
    {
      "midi": 62,
      "hit": false,
      "t": 112278.52799999948,
      "d": 294.62399999999616,
      "v": 91
    },
    {
      "midi": 59,
      "hit": false,
      "t": 113135.61599999947,
      "d": 1714.1759999999922,
      "v": 79
    },
    {
      "midi": 62,
      "hit": false,
      "t": 113135.61599999947,
      "d": 1714.1759999999922,
      "v": 95
    },
    {
      "midi": 43,
      "hit": false,
      "t": 113135.61599999947,
      "d": 2776.607999999993,
      "v": 91
    },
    {
      "midi": 50,
      "hit": false,
      "t": 113135.61599999947,
      "d": 2848.031999999992,
      "v": 95
    },
    {
      "midi": 55,
      "hit": false,
      "t": 113135.61599999947,
      "d": 2892.6719999999914,
      "v": 91
    },
    {
      "midi": 62,
      "hit": false,
      "t": 115706.87999999947,
      "d": 241.05599999999686,
      "v": 91
    },
    {
      "midi": 67,
      "hit": false,
      "t": 115706.87999999947,
      "d": 241.05599999999686,
      "v": 105
    },
    {
      "midi": 59,
      "hit": false,
      "t": 116563.96799999946,
      "d": 1990.9440000000031,
      "v": 95
    },
    {
      "midi": 62,
      "hit": false,
      "t": 116563.96799999946,
      "d": 1990.9440000000031,
      "v": 95
    },
    {
      "midi": 66,
      "hit": false,
      "t": 116563.96799999946,
      "d": 2026.6560000000027,
      "v": 95
    },
    {
      "midi": 54,
      "hit": false,
      "t": 116563.96799999946,
      "d": 2044.5120000000024,
      "v": 95
    },
    {
      "midi": 47,
      "hit": false,
      "t": 116563.96799999946,
      "d": 3053.3759999999893,
      "v": 91
    },
    {
      "midi": 71,
      "hit": false,
      "t": 119135.23199999945,
      "d": 267.8399999999965,
      "v": 105
    },
    {
      "midi": 66,
      "hit": false,
      "t": 119420.92799999945,
      "d": 249.98399999999674,
      "v": 91
    },
    {
      "midi": 62,
      "hit": false,
      "t": 119706.62399999944,
      "d": 348.19199999999546,
      "v": 99
    },
    {
      "midi": 55,
      "hit": false,
      "t": 119992.31999999944,
      "d": 1080.2880000000005,
      "v": 79
    },
    {
      "midi": 48,
      "hit": false,
      "t": 119992.31999999944,
      "d": 1124.9279999999999,
      "v": 99
    },
    {
      "midi": 60,
      "hit": false,
      "t": 119992.31999999944,
      "d": 1178.4959999999992,
      "v": 95
    },
    {
      "midi": 64,
      "hit": false,
      "t": 119992.31999999944,
      "d": 1178.4959999999992,
      "v": 105
    },
    {
      "midi": 55,
      "hit": false,
      "t": 121706.49599999943,
      "d": 401.75999999999476,
      "v": 79
    },
    {
      "midi": 60,
      "hit": false,
      "t": 121706.49599999943,
      "d": 428.5439999999944,
      "v": 91
    },
    {
      "midi": 64,
      "hit": false,
      "t": 121706.49599999943,
      "d": 437.4719999999943,
      "v": 87
    },
    {
      "midi": 60,
      "hit": false,
      "t": 122563.58399999942,
      "d": 187.48799999999756,
      "v": 95
    },
    {
      "midi": 64,
      "hit": false,
      "t": 122563.58399999942,
      "d": 205.34399999999732,
      "v": 91
    },
    {
      "midi": 57,
      "hit": false,
      "t": 123420.67199999942,
      "d": 803.5199999999895,
      "v": 95
    },
    {
      "midi": 52,
      "hit": false,
      "t": 123420.67199999942,
      "d": 839.2319999999891,
      "v": 77
    },
    {
      "midi": 60,
      "hit": false,
      "t": 123420.67199999942,
      "d": 839.2319999999891,
      "v": 91
    },
    {
      "midi": 64,
      "hit": false,
      "t": 123420.67199999942,
      "d": 892.7999999999884,
      "v": 87
    },
    {
      "midi": 45,
      "hit": false,
      "t": 123420.67199999942,
      "d": 1321.3439999999828,
      "v": 91
    },
    {
      "midi": 52,
      "hit": false,
      "t": 124563.45599999941,
      "d": 232.12799999999697,
      "v": 79
    },
    {
      "midi": 60,
      "hit": false,
      "t": 124849.1519999994,
      "d": 696.3839999999909,
      "v": 95
    },
    {
      "midi": 67,
      "hit": false,
      "t": 125134.8479999994,
      "d": 428.5439999999944,
      "v": 115
    },
    {
      "midi": 38,
      "hit": false,
      "t": 125134.8479999994,
      "d": 1080.287999999986,
      "v": 95
    },
    {
      "midi": 50,
      "hit": false,
      "t": 125134.8479999994,
      "d": 1169.5679999999847,
      "v": 105
    },
    {
      "midi": 60,
      "hit": false,
      "t": 125991.93599999939,
      "d": 249.98399999999674,
      "v": 95
    },
    {
      "midi": 69,
      "hit": false,
      "t": 125991.93599999939,
      "d": 294.62399999999616,
      "v": 105
    },
    {
      "midi": 62,
      "hit": false,
      "t": 126849.02399999938,
      "d": 1633.8240000000078,
      "v": 87
    },
    {
      "midi": 67,
      "hit": false,
      "t": 126849.02399999938,
      "d": 1678.4640000000072,
      "v": 91
    },
    {
      "midi": 71,
      "hit": false,
      "t": 126849.02399999938,
      "d": 1705.2480000000069,
      "v": 91
    },
    {
      "midi": 43,
      "hit": false,
      "t": 126849.02399999938,
      "d": 2749.824000000008,
      "v": 87
    },
    {
      "midi": 55,
      "hit": false,
      "t": 126849.02399999938,
      "d": 2865.8880000000063,
      "v": 95
    },
    {
      "midi": 74,
      "hit": false,
      "t": 129420.28799999939,
      "d": 169.6319999999978,
      "v": 105
    },
    {
      "midi": 67,
      "hit": false,
      "t": 129420.28799999939,
      "d": 196.41599999999744,
      "v": 105
    },
    {
      "midi": 54,
      "hit": false,
      "t": 130277.37599999938,
      "d": 2205.216000000015,
      "v": 91
    },
    {
      "midi": 62,
      "hit": false,
      "t": 130277.37599999938,
      "d": 2598.048000000039,
      "v": 99
    },
    {
      "midi": 59,
      "hit": false,
      "t": 130277.37599999938,
      "d": 2615.9040000000386,
      "v": 91
    },
    {
      "midi": 66,
      "hit": false,
      "t": 130277.37599999938,
      "d": 2615.9040000000386,
      "v": 91
    },
    {
      "midi": 47,
      "hit": false,
      "t": 130277.37599999938,
      "d": 3106.944000000076,
      "v": 87
    },
    {
      "midi": 54,
      "hit": false,
      "t": 132848.6399999994,
      "d": 455.3280000000377,
      "v": 91
    },
    {
      "midi": 62,
      "hit": false,
      "t": 133134.33599999943,
      "d": 312.4800000000396,
      "v": 99
    },
    {
      "midi": 66,
      "hit": false,
      "t": 133420.03199999945,
      "d": 321.4080000000249,
      "v": 123
    },
    {
      "midi": 60,
      "hit": false,
      "t": 133705.72799999948,
      "d": 973.1520000000019,
      "v": 99
    },
    {
      "midi": 64,
      "hit": false,
      "t": 133705.72799999948,
      "d": 1035.6480000000156,
      "v": 99
    },
    {
      "midi": 48,
      "hit": false,
      "t": 133705.72799999948,
      "d": 2874.81600000005,
      "v": 95
    },
    {
      "midi": 55,
      "hit": false,
      "t": 133705.72799999948,
      "d": 2901.600000000064,
      "v": 79
    },
    {
      "midi": 67,
      "hit": false,
      "t": 135419.9039999995,
      "d": 285.6959999999963,
      "v": 99
    },
    {
      "midi": 72,
      "hit": false,
      "t": 135419.9039999995,
      "d": 303.55199999999604,
      "v": 91
    },
    {
      "midi": 64,
      "hit": false,
      "t": 135419.9039999995,
      "d": 312.4800000000105,
      "v": 91
    },
    {
      "midi": 64,
      "hit": false,
      "t": 136276.9919999995,
      "d": 214.2719999999972,
      "v": 95
    },
    {
      "midi": 60,
      "hit": false,
      "t": 136276.9919999995,
      "d": 241.0560000000114,
      "v": 91
    },
    {
      "midi": 57,
      "hit": false,
      "t": 137134.07999999955,
      "d": 598.1760000000359,
      "v": 99
    },
    {
      "midi": 60,
      "hit": false,
      "t": 137134.07999999955,
      "d": 642.8160000000498,
      "v": 95
    },
    {
      "midi": 45,
      "hit": false,
      "t": 137134.07999999955,
      "d": 1267.7760000000417,
      "v": 95
    },
    {
      "midi": 52,
      "hit": false,
      "t": 137705.47199999957,
      "d": 589.2480000000214,
      "v": 91
    },
    {
      "midi": 55,
      "hit": false,
      "t": 137991.1679999996,
      "d": 285.6959999999963,
      "v": 105
    },
    {
      "midi": 60,
      "hit": false,
      "t": 138276.8639999996,
      "d": 1026.7200000000303,
      "v": 95
    },
    {
      "midi": 64,
      "hit": false,
      "t": 138562.5599999996,
      "d": 794.5920000000624,
      "v": 99
    },
    {
      "midi": 67,
      "hit": false,
      "t": 138848.2559999996,
      "d": 499.9680000000517,
      "v": 105
    },
    {
      "midi": 38,
      "hit": false,
      "t": 138848.2559999996,
      "d": 1196.3520000001008,
      "v": 95
    },
    {
      "midi": 50,
      "hit": false,
      "t": 138848.2559999996,
      "d": 1276.7040000001143,
      "v": 95
    },
    {
      "midi": 60,
      "hit": false,
      "t": 139705.34399999966,
      "d": 374.9760000000242,
      "v": 87
    },
    {
      "midi": 64,
      "hit": false,
      "t": 139705.34399999966,
      "d": 392.832000000024,
      "v": 99
    },
    {
      "midi": 69,
      "hit": false,
      "t": 139705.34399999966,
      "d": 410.68800000002375,
      "v": 105
    },
    {
      "midi": 62,
      "hit": false,
      "t": 140562.4319999997,
      "d": 1535.6160000000382,
      "v": 95
    },
    {
      "midi": 67,
      "hit": false,
      "t": 140562.4319999997,
      "d": 1615.9680000000517,
      "v": 99
    },
    {
      "midi": 71,
      "hit": false,
      "t": 140562.4319999997,
      "d": 1660.6080000000657,
      "v": 87
    },
    {
      "midi": 43,
      "hit": false,
      "t": 140562.4319999997,
      "d": 2830.176000000065,
      "v": 91
    },
    {
      "midi": 50,
      "hit": false,
      "t": 140562.4319999997,
      "d": 2830.176000000065,
      "v": 87
    },
    {
      "midi": 55,
      "hit": false,
      "t": 140562.4319999997,
      "d": 2883.7440000000643,
      "v": 79
    },
    {
      "midi": 79,
      "hit": false,
      "t": 143133.69599999976,
      "d": 214.2719999999972,
      "v": 115
    },
    {
      "midi": 71,
      "hit": false,
      "t": 143133.69599999976,
      "d": 223.20000000001164,
      "v": 115
    },
    {
      "midi": 74,
      "hit": false,
      "t": 143990.78399999978,
      "d": 1714.1760000000068,
      "v": 95
    },
    {
      "midi": 71,
      "hit": false,
      "t": 143990.78399999978,
      "d": 1740.960000000021,
      "v": 95
    },
    {
      "midi": 78,
      "hit": false,
      "t": 143990.78399999978,
      "d": 1740.960000000021,
      "v": 91
    },
    {
      "midi": 43,
      "hit": false,
      "t": 143990.78399999978,
      "d": 1874.8800000000338,
      "v": 77
    },
    {
      "midi": 55,
      "hit": false,
      "t": 143990.78399999978,
      "d": 2053.4400000000314,
      "v": 83
    },
    {
      "midi": 43,
      "hit": false,
      "t": 146276.3519999998,
      "d": 589.2479999999923,
      "v": 91
    },
    {
      "midi": 55,
      "hit": false,
      "t": 146562.0479999998,
      "d": 455.3280000000086,
      "v": 105
    },
    {
      "midi": 59,
      "hit": false,
      "t": 146847.7439999998,
      "d": 1437.408000000054,
      "v": 115
    },
    {
      "midi": 62,
      "hit": false,
      "t": 147133.43999999983,
      "d": 312.4800000000105,
      "v": 115
    },
    {
      "midi": 63,
      "hit": false,
      "t": 147419.13599999982,
      "d": 919.5840000000317,
      "v": 105
    },
    {
      "midi": 47,
      "hit": false,
      "t": 147419.13599999982,
      "d": 2946.240000000078,
      "v": 95
    },
    {
      "midi": 54,
      "hit": false,
      "t": 147419.13599999982,
      "d": 3062.30400000012,
      "v": 105
    },
    {
      "midi": 71,
      "hit": false,
      "t": 149133.31199999986,
      "d": 267.8399999999965,
      "v": 115
    },
    {
      "midi": 63,
      "hit": false,
      "t": 149133.31199999986,
      "d": 312.4800000000105,
      "v": 115
    },
    {
      "midi": 69,
      "hit": false,
      "t": 149990.39999999988,
      "d": 401.7600000000384,
      "v": 105
    },
    {
      "midi": 63,
      "hit": false,
      "t": 149990.39999999988,
      "d": 446.4000000000524,
      "v": 99
    },
    {
      "midi": 59,
      "hit": false,
      "t": 150847.48799999995,
      "d": 776.7360000000335,
      "v": 95
    },
    {
      "midi": 64,
      "hit": false,
      "t": 150847.48799999995,
      "d": 1008.8640000000305,
      "v": 105
    },
    {
      "midi": 67,
      "hit": false,
      "t": 150847.48799999995,
      "d": 1053.5040000000445,
      "v": 115
    },
    {
      "midi": 52,
      "hit": false,
      "t": 150847.48799999995,
      "d": 1419.5520000000542,
      "v": 95
    },
    {
      "midi": 59,
      "hit": false,
      "t": 151990.272,
      "d": 1848.0960000000487,
      "v": 87
    },
    {
      "midi": 64,
      "hit": false,
      "t": 152275.96800000002,
      "d": 312.4800000000105,
      "v": 105
    },
    {
      "midi": 67,
      "hit": false,
      "t": 152275.96800000002,
      "d": 928.512000000017,
      "v": 95
    },
    {
      "midi": 62,
      "hit": false,
      "t": 152561.66400000002,
      "d": 660.6720000000205,
      "v": 99
    },
    {
      "midi": 50,
      "hit": false,
      "t": 152561.66400000002,
      "d": 1223.1360000000277,
      "v": 105
    },
    {
      "midi": 67,
      "hit": false,
      "t": 153418.75200000004,
      "d": 928.5120000000461,
      "v": 115
    },
    {
      "midi": 55,
      "hit": false,
      "t": 154275.84000000005,
      "d": 999.9360000000452,
      "v": 99
    },
    {
      "midi": 60,
      "hit": false,
      "t": 154275.84000000005,
      "d": 1669.536000000051,
      "v": 91
    },
    {
      "midi": 64,
      "hit": false,
      "t": 154275.84000000005,
      "d": 1714.176000000065,
      "v": 91
    },
    {
      "midi": 48,
      "hit": false,
      "t": 154275.84000000005,
      "d": 2981.9520000000775,
      "v": 91
    },
    {
      "midi": 55,
      "hit": false,
      "t": 156561.4080000001,
      "d": 321.4079999999958,
      "v": 75
    },
    {
      "midi": 64,
      "hit": false,
      "t": 156847.1040000001,
      "d": 107.1359999999986,
      "v": 99
    },
    {
      "midi": 72,
      "hit": false,
      "t": 156847.1040000001,
      "d": 169.63200000001234,
      "v": 115
    },
    {
      "midi": 55,
      "hit": false,
      "t": 157132.80000000013,
      "d": 312.4800000000105,
      "v": 77
    },
    {
      "midi": 60,
      "hit": false,
      "t": 157418.49600000013,
      "d": 98.20800000001327,
      "v": 87
    },
    {
      "midi": 64,
      "hit": false,
      "t": 157418.49600000013,
      "d": 116.06400000001304,
      "v": 83
    },
    {
      "midi": 54,
      "hit": false,
      "t": 157704.19200000016,
      "d": 794.5920000000042,
      "v": 99
    },
    {
      "midi": 62,
      "hit": false,
      "t": 157704.19200000016,
      "d": 901.7280000000028,
      "v": 105
    },
    {
      "midi": 59,
      "hit": false,
      "t": 157704.19200000016,
      "d": 910.6560000000172,
      "v": 99
    },
    {
      "midi": 47,
      "hit": false,
      "t": 157704.19200000016,
      "d": 1214.2080000000133,
      "v": 91
    },
    {
      "midi": 54,
      "hit": false,
      "t": 158846.97600000017,
      "d": 196.41599999999744,
      "v": 95
    },
    {
      "midi": 62,
      "hit": false,
      "t": 159132.67200000017,
      "d": 276.76800000001094,
      "v": 95
    },
    {
      "midi": 59,
      "hit": false,
      "t": 159132.67200000017,
      "d": 999.9360000000161,
      "v": 123
    },
    {
      "midi": 55,
      "hit": false,
      "t": 159418.3680000002,
      "d": 642.8159999999916,
      "v": 95
    },
    {
      "midi": 40,
      "hit": false,
      "t": 159418.3680000002,
      "d": 1133.8559999999998,
      "v": 99
    },
    {
      "midi": 47,
      "hit": false,
      "t": 159989.76000000018,
      "d": 633.8880000000354,
      "v": 91
    },
    {
      "midi": 52,
      "hit": false,
      "t": 160275.45600000018,
      "d": 749.9520000000775,
      "v": 115
    },
    {
      "midi": 59,
      "hit": false,
      "t": 160561.1520000002,
      "d": 330.33600000003935,
      "v": 105
    },
    {
      "midi": 62,
      "hit": false,
      "t": 160846.84800000023,
      "d": 330.33600000006845,
      "v": 115
    },
    {
      "midi": 57,
      "hit": false,
      "t": 161132.5440000003,
      "d": 428.5440000000235,
      "v": 99
    },
    {
      "midi": 60,
      "hit": false,
      "t": 161132.5440000003,
      "d": 455.3280000000377,
      "v": 95
    },
    {
      "midi": 45,
      "hit": false,
      "t": 161132.5440000003,
      "d": 1187.4240000000573,
      "v": 91
    },
    {
      "midi": 52,
      "hit": false,
      "t": 161132.5440000003,
      "d": 1267.7760000000708,
      "v": 69
    },
    {
      "midi": 60,
      "hit": false,
      "t": 161989.63200000033,
      "d": 232.12799999999697,
      "v": 105
    },
    {
      "midi": 64,
      "hit": false,
      "t": 161989.63200000033,
      "d": 330.33600000001024,
      "v": 115
    },
    {
      "midi": 59,
      "hit": false,
      "t": 162846.72000000038,
      "d": 482.1120000000228,
      "v": 95
    },
    {
      "midi": 62,
      "hit": false,
      "t": 162846.72000000038,
      "d": 491.04000000003725,
      "v": 105
    },
    {
      "midi": 54,
      "hit": false,
      "t": 162846.72000000038,
      "d": 1214.2080000000715,
      "v": 95
    },
    {
      "midi": 47,
      "hit": false,
      "t": 162846.72000000038,
      "d": 1303.4880000000994,
      "v": 95
    },
    {
      "midi": 59,
      "hit": false,
      "t": 163703.80800000043,
      "d": 258.9120000000112,
      "v": 99
    },
    {
      "midi": 66,
      "hit": false,
      "t": 163703.80800000043,
      "d": 366.0480000000389,
      "v": 115
    },
    {
      "midi": 60,
      "hit": false,
      "t": 164560.89600000047,
      "d": 330.33600000001024,
      "v": 105
    },
    {
      "midi": 64,
      "hit": false,
      "t": 164560.89600000047,
      "d": 383.90400000000955,
      "v": 99
    },
    {
      "midi": 48,
      "hit": false,
      "t": 164560.89600000047,
      "d": 1080.2880000000296,
      "v": 105
    },
    {
      "midi": 55,
      "hit": false,
      "t": 165132.2880000005,
      "d": 624.960000000021,
      "v": 91
    },
    {
      "midi": 64,
      "hit": false,
      "t": 165417.9840000005,
      "d": 214.2719999999972,
      "v": 115
    },
    {
      "midi": 67,
      "hit": false,
      "t": 165417.9840000005,
      "d": 267.8400000000256,
      "v": 123
    },
    {
      "midi": 62,
      "hit": false,
      "t": 166275.07200000054,
      "d": 294.6240000000107,
      "v": 83
    },
    {
      "midi": 67,
      "hit": false,
      "t": 166275.07200000054,
      "d": 678.5280000000203,
      "v": 99
    },
    {
      "midi": 69,
      "hit": false,
      "t": 166275.07200000054,
      "d": 714.2400000000198,
      "v": 105
    },
    {
      "midi": 50,
      "hit": false,
      "t": 166275.07200000054,
      "d": 1160.640000000043,
      "v": 105
    },
    {
      "midi": 57,
      "hit": false,
      "t": 166560.76800000053,
      "d": 785.6640000000189,
      "v": 87
    },
    {
      "midi": 62,
      "hit": false,
      "t": 166846.46400000056,
      "d": 428.5439999999944,
      "v": 105
    },
    {
      "midi": 74,
      "hit": false,
      "t": 167132.16000000056,
      "d": 258.9120000000112,
      "v": 123
    },
    {
      "midi": 67,
      "hit": false,
      "t": 167132.16000000056,
      "d": 276.76800000001094,
      "v": 123
    },
    {
      "midi": 69,
      "hit": false,
      "t": 167132.16000000056,
      "d": 303.55200000002515,
      "v": 123
    },
    {
      "midi": 62,
      "hit": false,
      "t": 167989.24800000057,
      "d": 883.8720000000321,
      "v": 91
    },
    {
      "midi": 67,
      "hit": false,
      "t": 167989.24800000057,
      "d": 1026.7200000000303,
      "v": 105
    },
    {
      "midi": 71,
      "hit": false,
      "t": 167989.24800000057,
      "d": 1089.216000000044,
      "v": 105
    },
    {
      "midi": 43,
      "hit": false,
      "t": 167989.24800000057,
      "d": 2731.9680000000517,
      "v": 91
    },
    {
      "midi": 50,
      "hit": false,
      "t": 167989.24800000057,
      "d": 2767.680000000051,
      "v": 95
    },
    {
      "midi": 55,
      "hit": false,
      "t": 167989.24800000057,
      "d": 2821.2480000000796,
      "v": 99
    },
    {
      "midi": 71,
      "hit": false,
      "t": 169703.4240000006,
      "d": 160.7039999999979,
      "v": 99
    },
    {
      "midi": 74,
      "hit": false,
      "t": 169703.4240000006,
      "d": 205.34400000001187,
      "v": 115
    },
    {
      "midi": 74,
      "hit": false,
      "t": 170560.51200000063,
      "d": 241.0560000000114,
      "v": 95
    },
    {
      "midi": 79,
      "hit": false,
      "t": 170560.51200000063,
      "d": 241.0560000000114,
      "v": 105
    },
    {
      "midi": 78,
      "hit": false,
      "t": 171417.60000000065,
      "d": 2107.0080000000016,
      "v": 99
    },
    {
      "midi": 74,
      "hit": false,
      "t": 171417.60000000065,
      "d": 2124.8640000000014,
      "v": 105
    },
    {
      "midi": 71,
      "hit": false,
      "t": 171417.60000000065,
      "d": 2142.720000000001,
      "v": 91
    },
    {
      "midi": 54,
      "hit": false,
      "t": 171417.60000000065,
      "d": 2821.2479999999923,
      "v": 91
    },
    {
      "midi": 47,
      "hit": false,
      "t": 171417.60000000065,
      "d": 2883.744000000006,
      "v": 91
    },
    {
      "midi": 74,
      "hit": false,
      "t": 173988.86400000064,
      "d": 232.12799999999697,
      "v": 115
    },
    {
      "midi": 78,
      "hit": false,
      "t": 173988.86400000064,
      "d": 232.12799999999697,
      "v": 105
    },
    {
      "midi": 71,
      "hit": false,
      "t": 173988.86400000064,
      "d": 258.9120000000112,
      "v": 105
    },
    {
      "midi": 72,
      "hit": false,
      "t": 174845.95200000066,
      "d": 839.2320000000473,
      "v": 99
    },
    {
      "midi": 69,
      "hit": false,
      "t": 174845.95200000066,
      "d": 857.088000000047,
      "v": 83
    },
    {
      "midi": 76,
      "hit": false,
      "t": 174845.95200000066,
      "d": 866.0160000000615,
      "v": 105
    },
    {
      "midi": 52,
      "hit": false,
      "t": 174845.95200000066,
      "d": 2508.7680000000983,
      "v": 91
    },
    {
      "midi": 45,
      "hit": false,
      "t": 174845.95200000066,
      "d": 2562.3360000000976,
      "v": 91
    },
    {
      "midi": 57,
      "hit": false,
      "t": 176560.12800000072,
      "d": 714.2399999999907,
      "v": 87
    },
    {
      "midi": 69,
      "hit": false,
      "t": 176560.12800000072,
      "d": 758.8800000000047,
      "v": 91
    },
    {
      "midi": 60,
      "hit": false,
      "t": 176560.12800000072,
      "d": 767.8080000000191,
      "v": 79
    },
    {
      "midi": 64,
      "hit": false,
      "t": 176560.12800000072,
      "d": 785.6640000000189,
      "v": 95
    },
    {
      "midi": 36,
      "hit": false,
      "t": 178274.30400000076,
      "d": 642.8160000000498,
      "v": 91
    },
    {
      "midi": 59,
      "hit": false,
      "t": 178274.30400000076,
      "d": 741.0240000000631,
      "v": 95
    },
    {
      "midi": 48,
      "hit": false,
      "t": 178274.30400000076,
      "d": 758.8800000000629,
      "v": 99
    },
    {
      "midi": 64,
      "hit": false,
      "t": 178274.30400000076,
      "d": 785.6640000000771,
      "v": 95
    },
    {
      "midi": 67,
      "hit": false,
      "t": 178274.30400000076,
      "d": 839.2320000000764,
      "v": 95
    },
    {
      "midi": 62,
      "hit": false,
      "t": 179988.48000000083,
      "d": 312.4800000000105,
      "v": 83
    },
    {
      "midi": 67,
      "hit": false,
      "t": 179988.48000000083,
      "d": 651.7440000000352,
      "v": 99
    },
    {
      "midi": 69,
      "hit": false,
      "t": 179988.48000000083,
      "d": 749.9520000000484,
      "v": 95
    },
    {
      "midi": 50,
      "hit": false,
      "t": 179988.48000000083,
      "d": 1151.7120000000577,
      "v": 99
    },
    {
      "midi": 57,
      "hit": false,
      "t": 180274.17600000082,
      "d": 803.5200000000477,
      "v": 83
    },
    {
      "midi": 62,
      "hit": false,
      "t": 180559.87200000085,
      "d": 464.25600000002305,
      "v": 95
    },
    {
      "midi": 74,
      "hit": false,
      "t": 180845.56800000087,
      "d": 276.76800000001094,
      "v": 99
    },
    {
      "midi": 67,
      "hit": false,
      "t": 180845.56800000087,
      "d": 294.6240000000107,
      "v": 115
    },
    {
      "midi": 69,
      "hit": false,
      "t": 180845.56800000087,
      "d": 321.4080000000249,
      "v": 115
    },
    {
      "midi": 62,
      "hit": false,
      "t": 181702.6560000009,
      "d": 732.0960000000196,
      "v": 87
    },
    {
      "midi": 67,
      "hit": false,
      "t": 181702.6560000009,
      "d": 785.6640000000189,
      "v": 99
    },
    {
      "midi": 71,
      "hit": false,
      "t": 181702.6560000009,
      "d": 830.3040000000328,
      "v": 105
    },
    {
      "midi": 43,
      "hit": false,
      "t": 181702.6560000009,
      "d": 2758.752000000095,
      "v": 87
    },
    {
      "midi": 50,
      "hit": false,
      "t": 181702.6560000009,
      "d": 2812.3200000000943,
      "v": 91
    },
    {
      "midi": 55,
      "hit": false,
      "t": 181702.6560000009,
      "d": 2874.816000000108,
      "v": 91
    },
    {
      "midi": 74,
      "hit": false,
      "t": 183416.83200000093,
      "d": 151.77600000001257,
      "v": 95
    },
    {
      "midi": 79,
      "hit": false,
      "t": 183416.83200000093,
      "d": 205.34400000001187,
      "v": 99
    },
    {
      "midi": 79,
      "hit": false,
      "t": 184273.92000000094,
      "d": 133.9200000000128,
      "v": 95
    },
    {
      "midi": 86,
      "hit": false,
      "t": 184273.92000000094,
      "d": 142.84800000002724,
      "v": 105
    },
    {
      "midi": 71,
      "hit": false,
      "t": 185131.008000001,
      "d": 1696.320000000007,
      "v": 87
    },
    {
      "midi": 74,
      "hit": false,
      "t": 185131.008000001,
      "d": 1714.1760000000068,
      "v": 95
    },
    {
      "midi": 78,
      "hit": false,
      "t": 185131.008000001,
      "d": 1740.960000000021,
      "v": 95
    },
    {
      "midi": 54,
      "hit": false,
      "t": 185131.008000001,
      "d": 2964.0960000000487,
      "v": 91
    },
    {
      "midi": 47,
      "hit": false,
      "t": 185131.008000001,
      "d": 3008.7360000000626,
      "v": 87
    },
    {
      "midi": 74,
      "hit": false,
      "t": 187702.27200000102,
      "d": 98.20800000001327,
      "v": 91
    },
    {
      "midi": 83,
      "hit": false,
      "t": 187702.27200000102,
      "d": 116.06400000001304,
      "v": 95
    },
    {
      "midi": 74,
      "hit": false,
      "t": 188273.66400000107,
      "d": 107.1359999999986,
      "v": 95
    },
    {
      "midi": 78,
      "hit": false,
      "t": 188273.66400000107,
      "d": 151.77600000001257,
      "v": 87
    },
    {
      "midi": 72,
      "hit": false,
      "t": 188559.3600000011,
      "d": 866.0160000000033,
      "v": 105
    },
    {
      "midi": 55,
      "hit": false,
      "t": 188559.3600000011,
      "d": 883.872000000003,
      "v": 87
    },
    {
      "midi": 76,
      "hit": false,
      "t": 188559.3600000011,
      "d": 901.7280000000028,
      "v": 115
    },
    {
      "midi": 48,
      "hit": false,
      "t": 188559.3600000011,
      "d": 1285.6320000000123,
      "v": 91
    },
    {
      "midi": 71,
      "hit": false,
      "t": 190273.53600000113,
      "d": 330.33600000001024,
      "v": 105
    },
    {
      "midi": 74,
      "hit": false,
      "t": 190273.53600000113,
      "d": 348.19200000001,
      "v": 115
    },
    {
      "midi": 54,
      "hit": false,
      "t": 190273.53600000113,
      "d": 1321.344000000041,
      "v": 95
    },
    {
      "midi": 47,
      "hit": false,
      "t": 190273.53600000113,
      "d": 1339.2000000000407,
      "v": 95
    },
    {
      "midi": 66,
      "hit": false,
      "t": 191130.62400000115,
      "d": 366.0480000000098,
      "v": 99
    },
    {
      "midi": 71,
      "hit": false,
      "t": 191130.62400000115,
      "d": 374.9760000000242,
      "v": 105
    },
    {
      "midi": 55,
      "hit": false,
      "t": 191987.71200000116,
      "d": 624.9599999999919,
      "v": 79
    },
    {
      "midi": 60,
      "hit": false,
      "t": 191987.71200000116,
      "d": 883.872000000003,
      "v": 87
    },
    {
      "midi": 64,
      "hit": false,
      "t": 191987.71200000116,
      "d": 883.872000000003,
      "v": 95
    },
    {
      "midi": 67,
      "hit": false,
      "t": 191987.71200000116,
      "d": 892.8000000000175,
      "v": 105
    },
    {
      "midi": 48,
      "hit": false,
      "t": 191987.71200000116,
      "d": 1196.3520000000135,
      "v": 91
    },
    {
      "midi": 55,
      "hit": false,
      "t": 192844.80000000115,
      "d": 285.6960000000254,
      "v": 105
    },
    {
      "midi": 64,
      "hit": false,
      "t": 193130.49600000118,
      "d": 303.55199999999604,
      "v": 115
    },
    {
      "midi": 67,
      "hit": false,
      "t": 193416.19200000117,
      "d": 660.6720000000205,
      "v": 95
    },
    {
      "midi": 62,
      "hit": false,
      "t": 193701.88800000117,
      "d": 526.7520000000368,
      "v": 115
    },
    {
      "midi": 69,
      "hit": false,
      "t": 193701.88800000117,
      "d": 821.3760000000475,
      "v": 105
    },
    {
      "midi": 38,
      "hit": false,
      "t": 193701.88800000117,
      "d": 1098.1440000000584,
      "v": 105
    },
    {
      "midi": 45,
      "hit": false,
      "t": 193987.5840000012,
      "d": 821.3760000000475,
      "v": 87
    },
    {
      "midi": 50,
      "hit": false,
      "t": 194273.28000000122,
      "d": 607.1040000000503,
      "v": 105
    },
    {
      "midi": 74,
      "hit": false,
      "t": 194558.97600000122,
      "d": 312.4800000000396,
      "v": 115
    },
    {
      "midi": 67,
      "hit": false,
      "t": 194558.97600000122,
      "d": 339.2640000000538,
      "v": 115
    },
    {
      "midi": 69,
      "hit": false,
      "t": 194558.97600000122,
      "d": 374.9760000000533,
      "v": 115
    },
    {
      "midi": 62,
      "hit": false,
      "t": 195416.06400000126,
      "d": 1571.3280000000086,
      "v": 105
    },
    {
      "midi": 67,
      "hit": false,
      "t": 195416.06400000126,
      "d": 1660.6080000000075,
      "v": 115
    },
    {
      "midi": 71,
      "hit": false,
      "t": 195416.06400000126,
      "d": 1705.2480000000214,
      "v": 115
    },
    {
      "midi": 55,
      "hit": false,
      "t": 195416.06400000126,
      "d": 1723.1040000000212,
      "v": 99
    },
    {
      "midi": 43,
      "hit": false,
      "t": 195416.06400000126,
      "d": 2803.3920000000508,
      "v": 95
    },
    {
      "midi": 50,
      "hit": false,
      "t": 195416.06400000126,
      "d": 2830.176000000065,
      "v": 95
    },
    {
      "midi": 55,
      "hit": false,
      "t": 197701.6320000013,
      "d": 723.1680000000342,
      "v": 65
    },
    {
      "midi": 71,
      "hit": false,
      "t": 197987.3280000013,
      "d": 205.34400000001187,
      "v": 123
    },
    {
      "midi": 79,
      "hit": false,
      "t": 197987.3280000013,
      "d": 205.34400000001187,
      "v": 115
    },
    {
      "midi": 74,
      "hit": false,
      "t": 198844.41600000137,
      "d": 1142.783999999985,
      "v": 95
    },
    {
      "midi": 71,
      "hit": false,
      "t": 198844.41600000137,
      "d": 1160.6399999999849,
      "v": 91
    },
    {
      "midi": 78,
      "hit": false,
      "t": 198844.41600000137,
      "d": 1160.6399999999849,
      "v": 91
    },
    {
      "midi": 54,
      "hit": false,
      "t": 198844.41600000137,
      "d": 3008.7360000000335,
      "v": 95
    },
    {
      "midi": 47,
      "hit": false,
      "t": 198844.41600000137,
      "d": 3035.5200000000477,
      "v": 95
    },
    {
      "midi": 59,
      "hit": false,
      "t": 200844.28800000134,
      "d": 767.8080000000482,
      "v": 95
    },
    {
      "midi": 62,
      "hit": false,
      "t": 201129.98400000134,
      "d": 205.34400000001187,
      "v": 95
    },
    {
      "midi": 66,
      "hit": false,
      "t": 201415.68000000136,
      "d": 169.63200000001234,
      "v": 123
    },
    {
      "midi": 71,
      "hit": false,
      "t": 201987.0720000014,
      "d": 321.4080000000249,
      "v": 123
    },
    {
      "midi": 55,
      "hit": false,
      "t": 202272.76800000144,
      "d": 1008.8640000000014,
      "v": 79
    },
    {
      "midi": 64,
      "hit": false,
      "t": 202272.76800000144,
      "d": 1205.2799999999988,
      "v": 91
    },
    {
      "midi": 67,
      "hit": false,
      "t": 202272.76800000144,
      "d": 1223.1359999999986,
      "v": 91
    },
    {
      "midi": 48,
      "hit": false,
      "t": 202272.76800000144,
      "d": 1303.488000000012,
      "v": 91
    },
    {
      "midi": 54,
      "hit": false,
      "t": 203986.94400000147,
      "d": 866.0160000000033,
      "v": 95
    },
    {
      "midi": 59,
      "hit": false,
      "t": 203986.94400000147,
      "d": 1080.2880000000005,
      "v": 95
    },
    {
      "midi": 62,
      "hit": false,
      "t": 203986.94400000147,
      "d": 1116,
      "v": 99
    },
    {
      "midi": 66,
      "hit": false,
      "t": 203986.94400000147,
      "d": 1151.7120000000286,
      "v": 95
    },
    {
      "midi": 47,
      "hit": false,
      "t": 203986.94400000147,
      "d": 1464.1920000000391,
      "v": 91
    },
    {
      "midi": 54,
      "hit": false,
      "t": 205129.7280000015,
      "d": 339.2640000000247,
      "v": 105
    },
    {
      "midi": 62,
      "hit": false,
      "t": 205415.4240000015,
      "d": 196.41599999999744,
      "v": 115
    },
    {
      "midi": 66,
      "hit": false,
      "t": 205415.4240000015,
      "d": 321.4080000000249,
      "v": 115
    },
    {
      "midi": 55,
      "hit": false,
      "t": 205701.1200000015,
      "d": 651.7440000000352,
      "v": 91
    },
    {
      "midi": 48,
      "hit": false,
      "t": 205701.1200000015,
      "d": 687.4560000000347,
      "v": 95
    },
    {
      "midi": 60,
      "hit": false,
      "t": 205701.1200000015,
      "d": 874.9440000000468,
      "v": 105
    },
    {
      "midi": 64,
      "hit": false,
      "t": 205701.1200000015,
      "d": 946.3680000000459,
      "v": 99
    },
    {
      "midi": 48,
      "hit": false,
      "t": 206558.20800000156,
      "d": 383.90400000000955,
      "v": 91
    },
    {
      "midi": 55,
      "hit": false,
      "t": 206843.90400000155,
      "d": 303.55200000002515,
      "v": 91
    },
    {
      "midi": 64,
      "hit": false,
      "t": 207129.60000000158,
      "d": 312.4800000000396,
      "v": 115
    },
    {
      "midi": 67,
      "hit": false,
      "t": 207415.2960000016,
      "d": 839.2320000000182,
      "v": 115
    },
    {
      "midi": 50,
      "hit": false,
      "t": 207415.2960000016,
      "d": 1348.1280000000552,
      "v": 105
    },
    {
      "midi": 57,
      "hit": false,
      "t": 207700.99200000163,
      "d": 982.0800000000163,
      "v": 95
    },
    {
      "midi": 62,
      "hit": false,
      "t": 207986.68800000162,
      "d": 642.8160000000207,
      "v": 91
    },
    {
      "midi": 69,
      "hit": false,
      "t": 208272.38400000162,
      "d": 312.4800000000105,
      "v": 123
    },
    {
      "midi": 74,
      "hit": false,
      "t": 208558.08000000162,
      "d": 2017.728000000061,
      "v": 115
    },
    {
      "midi": 67,
      "hit": false,
      "t": 209129.47200000167,
      "d": 1321.3439999999828,
      "v": 105
    },
    {
      "midi": 71,
      "hit": false,
      "t": 209129.47200000167,
      "d": 1383.8399999999965,
      "v": 105
    },
    {
      "midi": 55,
      "hit": false,
      "t": 209129.47200000167,
      "d": 1821.3120000000054,
      "v": 95
    },
    {
      "midi": 43,
      "hit": false,
      "t": 209129.47200000167,
      "d": 2731.9679999999935,
      "v": 91
    },
    {
      "midi": 50,
      "hit": false,
      "t": 209129.47200000167,
      "d": 2785.535999999993,
      "v": 87
    },
    {
      "midi": 55,
      "hit": false,
      "t": 211415.04000000167,
      "d": 633.8880000000063,
      "v": 60
    },
    {
      "midi": 86,
      "hit": false,
      "t": 211700.73600000166,
      "d": 214.2719999999972,
      "v": 105
    },
    {
      "midi": 79,
      "hit": false,
      "t": 211700.73600000166,
      "d": 232.12799999999697,
      "v": 95
    },
    {
      "midi": 83,
      "hit": false,
      "t": 212557.82400000168,
      "d": 937.4400000000314,
      "v": 91
    },
    {
      "midi": 74,
      "hit": false,
      "t": 212557.82400000168,
      "d": 946.3680000000459,
      "v": 87
    },
    {
      "midi": 78,
      "hit": false,
      "t": 212557.82400000168,
      "d": 964.2240000000456,
      "v": 91
    },
    {
      "midi": 54,
      "hit": false,
      "t": 212557.82400000168,
      "d": 3044.4480000001204,
      "v": 91
    },
    {
      "midi": 47,
      "hit": false,
      "t": 212557.82400000168,
      "d": 3071.2320000001346,
      "v": 91
    },
    {
      "midi": 59,
      "hit": false,
      "t": 213986.30400000172,
      "d": 276.76800000001094,
      "v": 42
    },
    {
      "midi": 78,
      "hit": false,
      "t": 214272.00000000175,
      "d": 151.77600000001257,
      "v": 91
    },
    {
      "midi": 71,
      "hit": false,
      "t": 214272.00000000175,
      "d": 160.704000000027,
      "v": 87
    },
    {
      "midi": 59,
      "hit": false,
      "t": 214557.69600000177,
      "d": 232.12799999999697,
      "v": 41
    },
    {
      "midi": 74,
      "hit": false,
      "t": 214843.39200000177,
      "d": 187.4880000000121,
      "v": 91
    },
    {
      "midi": 66,
      "hit": false,
      "t": 214843.39200000177,
      "d": 196.41600000002654,
      "v": 95
    },
    {
      "midi": 59,
      "hit": false,
      "t": 215129.0880000018,
      "d": 285.6959999999963,
      "v": 60
    },
    {
      "midi": 66,
      "hit": false,
      "t": 215414.7840000018,
      "d": 178.55999999999767,
      "v": 95
    },
    {
      "midi": 62,
      "hit": false,
      "t": 215414.7840000018,
      "d": 196.41600000002654,
      "v": 91
    },
    {
      "midi": 55,
      "hit": false,
      "t": 215986.1760000018,
      "d": 785.6640000000189,
      "v": 87
    },
    {
      "midi": 60,
      "hit": false,
      "t": 215986.1760000018,
      "d": 1089.216000000015,
      "v": 105
    },
    {
      "midi": 64,
      "hit": false,
      "t": 215986.1760000018,
      "d": 1098.1440000000293,
      "v": 99
    },
    {
      "midi": 48,
      "hit": false,
      "t": 215986.1760000018,
      "d": 1357.0560000000405,
      "v": 99
    },
    {
      "midi": 55,
      "hit": false,
      "t": 217128.96000000185,
      "d": 330.33600000001024,
      "v": 91
    },
    {
      "midi": 64,
      "hit": false,
      "t": 217414.65600000185,
      "d": 196.41600000002654,
      "v": 105
    },
    {
      "midi": 60,
      "hit": false,
      "t": 217414.65600000185,
      "d": 205.34400000004098,
      "v": 105
    },
    {
      "midi": 54,
      "hit": false,
      "t": 217700.3520000019,
      "d": 776.7360000000335,
      "v": 99
    },
    {
      "midi": 59,
      "hit": false,
      "t": 217700.3520000019,
      "d": 1107.0720000000438,
      "v": 105
    },
    {
      "midi": 62,
      "hit": false,
      "t": 217700.3520000019,
      "d": 1107.0720000000438,
      "v": 99
    },
    {
      "midi": 47,
      "hit": false,
      "t": 217700.3520000019,
      "d": 1428.4800000000396,
      "v": 95
    },
    {
      "midi": 54,
      "hit": false,
      "t": 218843.13600000195,
      "d": 321.4079999999958,
      "v": 99
    },
    {
      "midi": 59,
      "hit": false,
      "t": 219128.83200000194,
      "d": 160.7039999999979,
      "v": 95
    },
    {
      "midi": 62,
      "hit": false,
      "t": 219128.83200000194,
      "d": 223.20000000001164,
      "v": 115
    },
    {
      "midi": 60,
      "hit": false,
      "t": 219414.52800000197,
      "d": 428.5440000000235,
      "v": 95
    },
    {
      "midi": 55,
      "hit": false,
      "t": 219414.52800000197,
      "d": 446.4000000000233,
      "v": 91
    },
    {
      "midi": 64,
      "hit": false,
      "t": 219414.52800000197,
      "d": 669.6000000000349,
      "v": 95
    },
    {
      "midi": 48,
      "hit": false,
      "t": 219414.52800000197,
      "d": 1133.856000000058,
      "v": 95
    },
    {
      "midi": 60,
      "hit": false,
      "t": 219985.920000002,
      "d": 116.06400000001304,
      "v": 30
    },
    {
      "midi": 55,
      "hit": false,
      "t": 219985.920000002,
      "d": 598.1760000000359,
      "v": 79
    },
    {
      "midi": 60,
      "hit": false,
      "t": 220271.61600000202,
      "d": 178.55999999999767,
      "v": 99
    },
    {
      "midi": 67,
      "hit": false,
      "t": 220271.61600000202,
      "d": 223.20000000001164,
      "v": 115
    },
    {
      "midi": 62,
      "hit": false,
      "t": 221128.70400000204,
      "d": 357.12000000002445,
      "v": 95
    },
    {
      "midi": 69,
      "hit": false,
      "t": 221128.70400000204,
      "d": 660.6720000000205,
      "v": 115
    },
    {
      "midi": 50,
      "hit": false,
      "t": 221128.70400000204,
      "d": 1258.8480000000563,
      "v": 105
    },
    {
      "midi": 57,
      "hit": false,
      "t": 221414.40000000206,
      "d": 866.0160000000324,
      "v": 99
    },
    {
      "midi": 62,
      "hit": false,
      "t": 221700.09600000206,
      "d": 499.9680000000226,
      "v": 115
    },
    {
      "midi": 67,
      "hit": false,
      "t": 221985.79200000205,
      "d": 169.63200000001234,
      "v": 105
    },
    {
      "midi": 69,
      "hit": false,
      "t": 222271.48800000208,
      "d": 205.34400000001187,
      "v": 115
    },
    {
      "midi": 74,
      "hit": false,
      "t": 222557.1840000021,
      "d": 2124.8640000000305,
      "v": 115
    },
    {
      "midi": 55,
      "hit": false,
      "t": 222842.8800000021,
      "d": 1714.1760000000068,
      "v": 99
    },
    {
      "midi": 67,
      "hit": false,
      "t": 222842.8800000021,
      "d": 1740.960000000021,
      "v": 115
    },
    {
      "midi": 71,
      "hit": false,
      "t": 222842.8800000021,
      "d": 1794.5280000000203,
      "v": 105
    },
    {
      "midi": 43,
      "hit": false,
      "t": 222842.8800000021,
      "d": 2883.7440000000643,
      "v": 91
    },
    {
      "midi": 50,
      "hit": false,
      "t": 222842.8800000021,
      "d": 2937.3120000000636,
      "v": 91
    },
    {
      "midi": 55,
      "hit": false,
      "t": 225128.44800000213,
      "d": 312.4800000000105,
      "v": 79
    },
    {
      "midi": 71,
      "hit": false,
      "t": 225414.14400000212,
      "d": 89.28000000002794,
      "v": 99
    },
    {
      "midi": 79,
      "hit": false,
      "t": 225414.14400000212,
      "d": 124.99200000002747,
      "v": 105
    },
    {
      "midi": 55,
      "hit": false,
      "t": 225699.84000000215,
      "d": 232.12800000002608,
      "v": 63
    },
    {
      "midi": 83,
      "hit": false,
      "t": 225985.53600000218,
      "d": 339.2640000000247,
      "v": 95
    },
    {
      "midi": 74,
      "hit": false,
      "t": 225985.53600000218,
      "d": 2017.728000000061,
      "v": 87
    },
    {
      "midi": 78,
      "hit": false,
      "t": 226271.23200000217,
      "d": 1705.2480000000505,
      "v": 105
    },
    {
      "midi": 54,
      "hit": false,
      "t": 226271.23200000217,
      "d": 2624.832000000053,
      "v": 91
    },
    {
      "midi": 47,
      "hit": false,
      "t": 226271.23200000217,
      "d": 3035.520000000135,
      "v": 95
    },
    {
      "midi": 59,
      "hit": false,
      "t": 228556.80000000223,
      "d": 383.90400000000955,
      "v": 65
    },
    {
      "midi": 62,
      "hit": false,
      "t": 228842.49600000223,
      "d": 249.98400000002584,
      "v": 99
    },
    {
      "midi": 71,
      "hit": false,
      "t": 228842.49600000223,
      "d": 258.9120000000403,
      "v": 105
    },
    {
      "midi": 54,
      "hit": false,
      "t": 229128.19200000228,
      "d": 62.49600000001374,
      "v": 36
    },
    {
      "midi": 66,
      "hit": false,
      "t": 229413.8880000023,
      "d": 258.9120000000112,
      "v": 91
    },
    {
      "midi": 60,
      "hit": false,
      "t": 229699.58400000233,
      "d": 767.8080000000191,
      "v": 99
    },
    {
      "midi": 64,
      "hit": false,
      "t": 229699.58400000233,
      "d": 839.2320000000182,
      "v": 95
    },
    {
      "midi": 69,
      "hit": false,
      "t": 229699.58400000233,
      "d": 901.7280000000319,
      "v": 95
    },
    {
      "midi": 45,
      "hit": false,
      "t": 229699.58400000233,
      "d": 2606.9760000000533,
      "v": 91
    },
    {
      "midi": 52,
      "hit": false,
      "t": 229699.58400000233,
      "d": 2696.256000000052,
      "v": 95
    },
    {
      "midi": 57,
      "hit": false,
      "t": 231128.06400000237,
      "d": 1035.6479999999865,
      "v": 52
    },
    {
      "midi": 76,
      "hit": false,
      "t": 231413.76000000237,
      "d": 758.8800000000047,
      "v": 91
    },
    {
      "midi": 72,
      "hit": false,
      "t": 231413.76000000237,
      "d": 785.6640000000189,
      "v": 95
    },
    {
      "midi": 69,
      "hit": false,
      "t": 231413.76000000237,
      "d": 821.3760000000184,
      "v": 95
    },
    {
      "midi": 59,
      "hit": false,
      "t": 233127.9360000024,
      "d": 848.1600000000035,
      "v": 87
    },
    {
      "midi": 64,
      "hit": false,
      "t": 233127.9360000024,
      "d": 892.8000000000175,
      "v": 99
    },
    {
      "midi": 67,
      "hit": false,
      "t": 233127.9360000024,
      "d": 910.6560000000172,
      "v": 95
    },
    {
      "midi": 48,
      "hit": false,
      "t": 233127.9360000024,
      "d": 919.5840000000317,
      "v": 87
    },
    {
      "midi": 55,
      "hit": false,
      "t": 233127.9360000024,
      "d": 1017.7920000000449,
      "v": 91
    },
    {
      "midi": 62,
      "hit": false,
      "t": 234842.11200000247,
      "d": 330.33600000003935,
      "v": 91
    },
    {
      "midi": 67,
      "hit": false,
      "t": 234842.11200000247,
      "d": 660.6720000000496,
      "v": 105
    },
    {
      "midi": 69,
      "hit": false,
      "t": 234842.11200000247,
      "d": 749.9520000000484,
      "v": 99
    },
    {
      "midi": 50,
      "hit": false,
      "t": 234842.11200000247,
      "d": 1240.9920000000857,
      "v": 95
    },
    {
      "midi": 57,
      "hit": false,
      "t": 235127.8080000025,
      "d": 607.1040000000212,
      "v": 87
    },
    {
      "midi": 62,
      "hit": false,
      "t": 235413.50400000252,
      "d": 303.55199999999604,
      "v": 87
    },
    {
      "midi": 67,
      "hit": false,
      "t": 235699.20000000251,
      "d": 294.6240000000107,
      "v": 123
    },
    {
      "midi": 69,
      "hit": false,
      "t": 235699.20000000251,
      "d": 294.6240000000107,
      "v": 115
    },
    {
      "midi": 74,
      "hit": false,
      "t": 235699.20000000251,
      "d": 1982.0160000000615,
      "v": 105
    },
    {
      "midi": 57,
      "hit": false,
      "t": 235984.8960000025,
      "d": 89.28000000002794,
      "v": 71
    },
    {
      "midi": 67,
      "hit": false,
      "t": 236556.28800000256,
      "d": 1026.7200000000012,
      "v": 115
    },
    {
      "midi": 71,
      "hit": false,
      "t": 236556.28800000256,
      "d": 1080.2880000000005,
      "v": 115
    },
    {
      "midi": 43,
      "hit": false,
      "t": 236556.28800000256,
      "d": 2794.4640000000363,
      "v": 91
    },
    {
      "midi": 50,
      "hit": false,
      "t": 236556.28800000256,
      "d": 2839.1040000000503,
      "v": 87
    },
    {
      "midi": 55,
      "hit": false,
      "t": 236556.28800000256,
      "d": 2910.5280000000494,
      "v": 99
    },
    {
      "midi": 74,
      "hit": false,
      "t": 238270.46400000257,
      "d": 169.63200000001234,
      "v": 91
    },
    {
      "midi": 79,
      "hit": false,
      "t": 238270.46400000257,
      "d": 196.41600000002654,
      "v": 99
    },
    {
      "midi": 79,
      "hit": false,
      "t": 239127.5520000026,
      "d": 160.7039999999979,
      "v": 115
    },
    {
      "midi": 83,
      "hit": false,
      "t": 239127.5520000026,
      "d": 169.63200000001234,
      "v": 105
    },
    {
      "midi": 74,
      "hit": false,
      "t": 239984.6400000026,
      "d": 1776.6720000000205,
      "v": 89
    },
    {
      "midi": 78,
      "hit": false,
      "t": 239984.6400000026,
      "d": 1794.5280000000203,
      "v": 85
    },
    {
      "midi": 71,
      "hit": false,
      "t": 239984.6400000026,
      "d": 1803.4560000000347,
      "v": 81
    },
    {
      "midi": 54,
      "hit": false,
      "t": 239984.6400000026,
      "d": 2964.0960000000487,
      "v": 85
    },
    {
      "midi": 47,
      "hit": false,
      "t": 239984.6400000026,
      "d": 2981.9520000000484,
      "v": 81
    },
    {
      "midi": 66,
      "hit": false,
      "t": 242555.90400000263,
      "d": 223.20000000001164,
      "v": 95
    },
    {
      "midi": 71,
      "hit": false,
      "t": 242555.90400000263,
      "d": 241.0560000000114,
      "v": 105
    },
    {
      "midi": 74,
      "hit": false,
      "t": 242555.90400000263,
      "d": 249.98400000002584,
      "v": 81
    },
    {
      "midi": 76,
      "hit": false,
      "t": 243412.99200000268,
      "d": 955.2960000000021,
      "v": 73
    },
    {
      "midi": 67,
      "hit": false,
      "t": 243412.99200000268,
      "d": 982.0800000000163,
      "v": 65
    },
    {
      "midi": 72,
      "hit": false,
      "t": 243412.99200000268,
      "d": 991.0080000000307,
      "v": 73
    },
    {
      "midi": 48,
      "hit": false,
      "t": 243412.99200000268,
      "d": 1258.8480000000272,
      "v": 69
    },
    {
      "midi": 55,
      "hit": false,
      "t": 243412.99200000268,
      "d": 1312.4160000000265,
      "v": 55
    },
    {
      "midi": 74,
      "hit": false,
      "t": 245127.1680000027,
      "d": 919.5840000000026,
      "v": 73
    },
    {
      "midi": 62,
      "hit": false,
      "t": 245127.1680000027,
      "d": 937.4400000000023,
      "v": 69
    },
    {
      "midi": 66,
      "hit": false,
      "t": 245127.1680000027,
      "d": 964.2240000000165,
      "v": 73
    },
    {
      "midi": 71,
      "hit": false,
      "t": 245127.1680000027,
      "d": 973.152000000031,
      "v": 73
    },
    {
      "midi": 54,
      "hit": false,
      "t": 245127.1680000027,
      "d": 1294.5600000000268,
      "v": 73
    },
    {
      "midi": 47,
      "hit": false,
      "t": 245127.1680000027,
      "d": 1419.5520000000251,
      "v": 69
    },
    {
      "midi": 66,
      "hit": false,
      "t": 246555.64800000275,
      "d": 187.4880000000121,
      "v": 65
    },
    {
      "midi": 62,
      "hit": false,
      "t": 246555.64800000275,
      "d": 214.2720000000263,
      "v": 69
    },
    {
      "midi": 71,
      "hit": false,
      "t": 246555.64800000275,
      "d": 312.4800000000396,
      "v": 93
    },
    {
      "midi": 64,
      "hit": false,
      "t": 246841.34400000278,
      "d": 723.1680000000342,
      "v": 83
    },
    {
      "midi": 67,
      "hit": false,
      "t": 246841.34400000278,
      "d": 794.5920000000333,
      "v": 83
    },
    {
      "midi": 48,
      "hit": false,
      "t": 246841.34400000278,
      "d": 1116.0000000000582,
      "v": 69
    },
    {
      "midi": 55,
      "hit": false,
      "t": 246841.34400000278,
      "d": 1187.4240000000864,
      "v": 65
    },
    {
      "midi": 60,
      "hit": false,
      "t": 247698.43200000282,
      "d": 205.34400000001187,
      "v": 69
    },
    {
      "midi": 64,
      "hit": false,
      "t": 247698.43200000282,
      "d": 267.8400000000256,
      "v": 73
    },
    {
      "midi": 67,
      "hit": false,
      "t": 247698.43200000282,
      "d": 294.6240000000398,
      "v": 73
    },
    {
      "midi": 62,
      "hit": false,
      "t": 248555.5200000029,
      "d": 285.6959999999963,
      "v": 61
    },
    {
      "midi": 67,
      "hit": false,
      "t": 248555.5200000029,
      "d": 624.9599999999919,
      "v": 73
    },
    {
      "midi": 69,
      "hit": false,
      "t": 248555.5200000029,
      "d": 633.8880000000063,
      "v": 73
    },
    {
      "midi": 50,
      "hit": false,
      "t": 248555.5200000029,
      "d": 1232.0640000000421,
      "v": 83
    },
    {
      "midi": 57,
      "hit": false,
      "t": 248841.2160000029,
      "d": 812.4480000000331,
      "v": 73
    },
    {
      "midi": 62,
      "hit": false,
      "t": 249126.9120000029,
      "d": 464.25600000002305,
      "v": 83
    },
    {
      "midi": 67,
      "hit": false,
      "t": 249412.60800000292,
      "d": 142.84799999999814,
      "v": 83
    },
    {
      "midi": 69,
      "hit": false,
      "t": 249698.30400000294,
      "d": 205.34400000001187,
      "v": 93
    },
    {
      "midi": 74,
      "hit": false,
      "t": 249984.00000000297,
      "d": 1178.4960000000137,
      "v": 101
    },
    {
      "midi": 69,
      "hit": false,
      "t": 250269.69600000296,
      "d": 98.20800000001327,
      "v": 65
    },
    {
      "midi": 71,
      "hit": false,
      "t": 250269.69600000296,
      "d": 785.6640000000189,
      "v": 71
    },
    {
      "midi": 55,
      "hit": false,
      "t": 250269.69600000296,
      "d": 2374.8480000000563,
      "v": 61
    },
    {
      "midi": 43,
      "hit": false,
      "t": 250269.69600000296,
      "d": 2883.7440000000643,
      "v": 53
    },
    {
      "midi": 50,
      "hit": false,
      "t": 251698.17600000298,
      "d": 1526.688000000082,
      "v": 45
    },
    {
      "midi": 81,
      "hit": false,
      "t": 251983.87200000297,
      "d": 98.20800000001327,
      "v": 81
    },
    {
      "midi": 86,
      "hit": false,
      "t": 251983.87200000297,
      "d": 651.7440000000352,
      "v": 81
    },
    {
      "midi": 83,
      "hit": false,
      "t": 251983.87200000297,
      "d": 1071.3600000000442,
      "v": 65
    },
    {
      "midi": 79,
      "hit": false,
      "t": 252555.264000003,
      "d": 624.9600000000501,
      "v": 65
    },
    {
      "midi": 55,
      "hit": false,
      "t": 252840.96000000302,
      "d": 526.7520000000659,
      "v": 43
    },
    {
      "midi": 74,
      "hit": false,
      "t": 253126.65600000301,
      "d": 178.56000000005588,
      "v": 61
    },
    {
      "midi": 54,
      "hit": false,
      "t": 253698.0480000031,
      "d": 1455.2640000000247,
      "v": 27
    },
    {
      "midi": 71,
      "hit": false,
      "t": 253698.0480000031,
      "d": 1589.1840000000375,
      "v": 27
    },
    {
      "midi": 74,
      "hit": false,
      "t": 253698.0480000031,
      "d": 1651.6800000000512,
      "v": 35
    },
    {
      "midi": 78,
      "hit": false,
      "t": 253698.0480000031,
      "d": 1669.536000000051,
      "v": 35
    },
    {
      "midi": 47,
      "hit": false,
      "t": 253698.0480000031,
      "d": 2981.9520000000484,
      "v": 35
    },
    {
      "midi": 54,
      "hit": false,
      "t": 255412.22400000316,
      "d": 1124.9279999999853,
      "v": 11
    },
    {
      "midi": 74,
      "hit": false,
      "t": 255697.92000000316,
      "d": 142.84799999999814,
      "v": 1
    },
    {
      "midi": 86,
      "hit": false,
      "t": 255983.61600000315,
      "d": 285.6959999999963,
      "v": 51
    },
    {
      "midi": 83,
      "hit": false,
      "t": 256269.31200000315,
      "d": 321.4079999999958,
      "v": 31
    },
    {
      "midi": 78,
      "hit": false,
      "t": 256555.00800000314,
      "d": 258.9120000000112,
      "v": 27
    },
    {
      "midi": 74,
      "hit": false,
      "t": 256840.70400000317,
      "d": 339.2639999999956,
      "v": 27
    },
    {
      "midi": 72,
      "hit": false,
      "t": 257126.40000000317,
      "d": 1107.0720000000147,
      "v": 23
    },
    {
      "midi": 76,
      "hit": false,
      "t": 257126.40000000317,
      "d": 1107.0720000000147,
      "v": 19
    },
    {
      "midi": 45,
      "hit": false,
      "t": 257126.40000000317,
      "d": 2848.0320000000065,
      "v": 3
    },
    {
      "midi": 52,
      "hit": false,
      "t": 257126.40000000317,
      "d": 2937.3120000000054,
      "v": 19
    },
    {
      "midi": 57,
      "hit": false,
      "t": 258554.88000000318,
      "d": 1294.5599999999977,
      "v": 1
    },
    {
      "midi": 64,
      "hit": false,
      "t": 258840.57600000317,
      "d": 910.6559999999881,
      "v": 7
    },
    {
      "midi": 69,
      "hit": false,
      "t": 258840.57600000317,
      "d": 973.1520000000019,
      "v": 23
    }
  ]
}