{
  "jsonPath": "Unknown/Unknown/Dave Lambert  Housetrap feat Liam South/music-for-peace-ftw-extended.json",
  "path": "Unknown\\Unknown\\Dave Lambert  Housetrap feat Liam South\\Music For Peace (FTW Extended).mid",
  "name": "Music For Peace (FTW Extended)",
  "difficulty": "Advanced",
  "bpm": 130.00041166797027,
  "notes": [
    {
      "midi": 54,
      "hit": false,
      "t": 238153.092,
      "d": 311.5374749999901,
      "v": 88
    },
    {
      "midi": 58,
      "hit": false,
      "t": 238153.092,
      "d": 509.61377083332627,
      "v": 119
    },
    {
      "midi": 49,
      "hit": false,
      "t": 238153.092,
      "d": 1548.0720208333223,
      "v": 89
    },
    {
      "midi": 42,
      "hit": false,
      "t": 238153.092,
      "d": 2113.45484583333,
      "v": 82
    },
    {
      "midi": 61,
      "hit": false,
      "t": 239076.166,
      "d": 144.2303125000035,
      "v": 119
    },
    {
      "midi": 61,
      "hit": false,
      "t": 239306.9345,
      "d": 84.6151166666532,
      "v": 110
    },
    {
      "midi": 61,
      "hit": false,
      "t": 239537.70299999998,
      "d": 109.6150375000143,
      "v": 113
    },
    {
      "midi": 70,
      "hit": false,
      "t": 239768.47149999999,
      "d": 230.7685000000056,
      "v": 126
    },
    {
      "midi": 49,
      "hit": false,
      "t": 239999.24,
      "d": 1596.1487916666665,
      "v": 92
    },
    {
      "midi": 56,
      "hit": false,
      "t": 240230.0085,
      "d": 1317.3035208333167,
      "v": 98
    },
    {
      "midi": 68,
      "hit": false,
      "t": 240691.5455,
      "d": 182.6917291666614,
      "v": 126
    },
    {
      "midi": 70,
      "hit": false,
      "t": 240922.314,
      "d": 142.3072416666546,
      "v": 31
    },
    {
      "midi": 68,
      "hit": false,
      "t": 241153.0825,
      "d": 146.1533833333233,
      "v": 112
    },
    {
      "midi": 66,
      "hit": false,
      "t": 241383.85099999997,
      "d": 419.2294416667137,
      "v": 124
    },
    {
      "midi": 68,
      "hit": false,
      "t": 241614.6195,
      "d": 230.7685000000056,
      "v": 127
    },
    {
      "midi": 44,
      "hit": false,
      "t": 241845.388,
      "d": 809.6128208333394,
      "v": 98
    },
    {
      "midi": 51,
      "hit": false,
      "t": 242076.1565,
      "d": 611.5365250000032,
      "v": 75
    },
    {
      "midi": 63,
      "hit": false,
      "t": 242537.69350000002,
      "d": 559.6136124999903,
      "v": 121
    },
    {
      "midi": 51,
      "hit": false,
      "t": 242999.2305,
      "d": 376.9218833333289,
      "v": 71
    },
    {
      "midi": 70,
      "hit": false,
      "t": 243460.7675,
      "d": 294.2298374999955,
      "v": 108
    },
    {
      "midi": 63,
      "hit": false,
      "t": 243460.7675,
      "d": 321.1528291666764,
      "v": 101
    },
    {
      "midi": 47,
      "hit": false,
      "t": 243691.536,
      "d": 1507.6875333333155,
      "v": 87
    },
    {
      "midi": 54,
      "hit": false,
      "t": 243922.3045,
      "d": 892.3048666666436,
      "v": 90
    },
    {
      "midi": 63,
      "hit": false,
      "t": 244153.073,
      "d": 119.2303916666715,
      "v": 121
    },
    {
      "midi": 59,
      "hit": false,
      "t": 244153.073,
      "d": 144.2303125000035,
      "v": 90
    },
    {
      "midi": 59,
      "hit": false,
      "t": 244383.8415,
      "d": 138.4610999999859,
      "v": 74
    },
    {
      "midi": 61,
      "hit": false,
      "t": 244383.8415,
      "d": 319.2297583332984,
      "v": 113
    },
    {
      "midi": 66,
      "hit": false,
      "t": 244383.8415,
      "d": 507.69069999994827,
      "v": 85
    },
    {
      "midi": 59,
      "hit": false,
      "t": 244614.61,
      "d": 201.92243749997579,
      "v": 64
    },
    {
      "midi": 61,
      "hit": false,
      "t": 244845.37849999996,
      "d": 296.1529083333444,
      "v": 108
    },
    {
      "midi": 54,
      "hit": false,
      "t": 245076.14699999997,
      "d": 149.9995250000211,
      "v": 104
    },
    {
      "midi": 56,
      "hit": false,
      "t": 245306.9155,
      "d": 82.6920458333334,
      "v": 119
    },
    {
      "midi": 66,
      "hit": false,
      "t": 245537.684,
      "d": 19.2307083333435,
      "v": 121
    },
    {
      "midi": 61,
      "hit": false,
      "t": 245537.684,
      "d": 280.7683416666696,
      "v": 90
    },
    {
      "midi": 54,
      "hit": false,
      "t": 245537.684,
      "d": 1663.4562708333542,
      "v": 115
    },
    {
      "midi": 61,
      "hit": false,
      "t": 245999.22100000002,
      "d": 134.6149583333463,
      "v": 74
    },
    {
      "midi": 66,
      "hit": false,
      "t": 246229.98950000003,
      "d": 673.0747916666733,
      "v": 127
    },
    {
      "midi": 61,
      "hit": false,
      "t": 246922.29500000004,
      "d": 373.0757416666602,
      "v": 119
    },
    {
      "midi": 66,
      "hit": false,
      "t": 247383.83200000002,
      "d": 363.460387500003,
      "v": 127
    },
    {
      "midi": 49,
      "hit": false,
      "t": 247383.83200000002,
      "d": 1413.4570625000051,
      "v": 110
    },
    {
      "midi": 68,
      "hit": false,
      "t": 247845.36900000004,
      "d": 136.5380291666661,
      "v": 113
    },
    {
      "midi": 68,
      "hit": false,
      "t": 248999.21150000003,
      "d": 80.7689750000136,
      "v": 108
    },
    {
      "midi": 68,
      "hit": false,
      "t": 249229.98000000004,
      "d": 38.4614166666579,
      "v": 119
    },
    {
      "midi": 44,
      "hit": false,
      "t": 249229.98000000004,
      "d": 1255.7652541666466,
      "v": 91
    },
    {
      "midi": 68,
      "hit": false,
      "t": 249460.74850000002,
      "d": 63.461337499989895,
      "v": 94
    },
    {
      "midi": 68,
      "hit": false,
      "t": 249691.517,
      "d": 82.6920458333334,
      "v": 110
    },
    {
      "midi": 68,
      "hit": false,
      "t": 249922.2855,
      "d": 342.3066083333397,
      "v": 119
    },
    {
      "midi": 66,
      "hit": false,
      "t": 250383.8225,
      "d": 361.5373166666832,
      "v": 127
    },
    {
      "midi": 68,
      "hit": false,
      "t": 250845.35950000002,
      "d": 367.3065291666426,
      "v": 124
    },
    {
      "midi": 39,
      "hit": false,
      "t": 250845.35950000002,
      "d": 1480.7645416666346,
      "v": 83
    },
    {
      "midi": 46,
      "hit": false,
      "t": 251191.51225,
      "d": 430.7678666666616,
      "v": 43
    },
    {
      "midi": 70,
      "hit": false,
      "t": 251306.8965,
      "d": 1640.379420833313,
      "v": 115
    },
    {
      "midi": 68,
      "hit": false,
      "t": 251768.43349999998,
      "d": 413.460229166667,
      "v": 124
    },
    {
      "midi": 66,
      "hit": false,
      "t": 252229.9705,
      "d": 692.3054999999877,
      "v": 127
    },
    {
      "midi": 49,
      "hit": false,
      "t": 252922.27599999998,
      "d": 3274.9896291666664,
      "v": 94
    },
    {
      "midi": 58,
      "hit": false,
      "t": 252922.27599999998,
      "d": 3374.9893124999944,
      "v": 115
    },
    {
      "midi": 54,
      "hit": false,
      "t": 252922.27599999998,
      "d": 3380.758524999983,
      "v": 93
    },
    {
      "midi": 61,
      "hit": false,
      "t": 252922.27599999998,
      "d": 3386.5277374999714,
      "v": 110
    },
    {
      "midi": 42,
      "hit": false,
      "t": 252922.27599999998,
      "d": 3411.5276583333034,
      "v": 89
    }
  ]
}