{
  "jsonPath": "Jazz/Brazilian Jazz/Sergio Mendes/never-gonna-let-you-go.json",
  "path": "Jazz\\Brazilian Jazz\\Sergio Mendes\\Never Gonna Let You Go.mid",
  "name": "Never Gonna Let You Go",
  "difficulty": "Advanced",
  "bpm": 60.99997255001235,
  "notes": [
    {
      "midi": 61,
      "hit": false,
      "t": 4000,
      "d": 1197.916666666667,
      "v": 95
    },
    {
      "midi": 69,
      "hit": false,
      "t": 4000,
      "d": 1197.916666666667,
      "v": 88
    },
    {
      "midi": 42,
      "hit": false,
      "t": 4000,
      "d": 2000,
      "v": 103
    },
    {
      "midi": 61,
      "hit": false,
      "t": 4010.416666666667,
      "d": 1197.916666666667,
      "v": 89
    },
    {
      "midi": 69,
      "hit": false,
      "t": 4010.416666666667,
      "d": 1197.916666666667,
      "v": 84
    },
    {
      "midi": 42,
      "hit": false,
      "t": 4010.416666666667,
      "d": 2000,
      "v": 82
    },
    {
      "midi": 49,
      "hit": false,
      "t": 4250,
      "d": 197.91666666666697,
      "v": 101
    },
    {
      "midi": 49,
      "hit": false,
      "t": 4260.416666666667,
      "d": 197.91666666666697,
      "v": 93
    },
    {
      "midi": 56,
      "hit": false,
      "t": 4500,
      "d": 197.91666666666697,
      "v": 94
    },
    {
      "midi": 56,
      "hit": false,
      "t": 4510.416666666667,
      "d": 197.91666666666697,
      "v": 88
    },
    {
      "midi": 57,
      "hit": false,
      "t": 4750,
      "d": 197.91666666666697,
      "v": 87
    },
    {
      "midi": 57,
      "hit": false,
      "t": 4760.416666666667,
      "d": 197.91666666666697,
      "v": 83
    },
    {
      "midi": 54,
      "hit": false,
      "t": 5000,
      "d": 1000,
      "v": 98
    },
    {
      "midi": 54,
      "hit": false,
      "t": 5010.416666666667,
      "d": 1000,
      "v": 91
    },
    {
      "midi": 68,
      "hit": false,
      "t": 5250,
      "d": 197.91666666666697,
      "v": 106
    },
    {
      "midi": 76,
      "hit": false,
      "t": 5250,
      "d": 197.91666666666697,
      "v": 127
    },
    {
      "midi": 68,
      "hit": false,
      "t": 5260.416666666667,
      "d": 197.91666666666697,
      "v": 96
    },
    {
      "midi": 76,
      "hit": false,
      "t": 5260.416666666667,
      "d": 197.91666666666697,
      "v": 94
    },
    {
      "midi": 64,
      "hit": false,
      "t": 5500,
      "d": 197.91666666666697,
      "v": 77
    },
    {
      "midi": 73,
      "hit": false,
      "t": 5500,
      "d": 197.91666666666697,
      "v": 90
    },
    {
      "midi": 64,
      "hit": false,
      "t": 5510.416666666667,
      "d": 197.91666666666697,
      "v": 76
    },
    {
      "midi": 73,
      "hit": false,
      "t": 5510.416666666667,
      "d": 197.91666666666697,
      "v": 85
    },
    {
      "midi": 66,
      "hit": false,
      "t": 5750,
      "d": 697.916666666667,
      "v": 108
    },
    {
      "midi": 74,
      "hit": false,
      "t": 5750,
      "d": 697.916666666667,
      "v": 120
    },
    {
      "midi": 66,
      "hit": false,
      "t": 5760.416666666667,
      "d": 697.916666666667,
      "v": 98
    },
    {
      "midi": 74,
      "hit": false,
      "t": 5760.416666666667,
      "d": 697.916666666667,
      "v": 96
    },
    {
      "midi": 47,
      "hit": false,
      "t": 6000,
      "d": 2000,
      "v": 101
    },
    {
      "midi": 47,
      "hit": false,
      "t": 6010.416666666667,
      "d": 2000.000000000001,
      "v": 93
    },
    {
      "midi": 54,
      "hit": false,
      "t": 6250,
      "d": 197.91666666666697,
      "v": 106
    },
    {
      "midi": 54,
      "hit": false,
      "t": 6260.416666666667,
      "d": 197.91666666666697,
      "v": 96
    },
    {
      "midi": 58,
      "hit": false,
      "t": 6500,
      "d": 197.91666666666697,
      "v": 97
    },
    {
      "midi": 64,
      "hit": false,
      "t": 6500,
      "d": 197.91666666666697,
      "v": 70
    },
    {
      "midi": 58,
      "hit": false,
      "t": 6510.416666666667,
      "d": 197.91666666666697,
      "v": 90
    },
    {
      "midi": 64,
      "hit": false,
      "t": 6510.416666666667,
      "d": 197.91666666666697,
      "v": 71
    },
    {
      "midi": 66,
      "hit": false,
      "t": 6750,
      "d": 447.91666666666697,
      "v": 120
    },
    {
      "midi": 74,
      "hit": false,
      "t": 6750,
      "d": 447.91666666666697,
      "v": 120
    },
    {
      "midi": 59,
      "hit": false,
      "t": 6750,
      "d": 1000,
      "v": 104
    },
    {
      "midi": 66,
      "hit": false,
      "t": 6760.416666666667,
      "d": 447.91666666666697,
      "v": 98
    },
    {
      "midi": 74,
      "hit": false,
      "t": 6760.416666666667,
      "d": 447.91666666666697,
      "v": 96
    },
    {
      "midi": 59,
      "hit": false,
      "t": 6760.416666666667,
      "d": 1000.0000000000009,
      "v": 95
    },
    {
      "midi": 57,
      "hit": false,
      "t": 7250,
      "d": 447.91666666666697,
      "v": 91
    },
    {
      "midi": 66,
      "hit": false,
      "t": 7250,
      "d": 447.91666666666697,
      "v": 111
    },
    {
      "midi": 57,
      "hit": false,
      "t": 7260.416666666668,
      "d": 447.91666666666697,
      "v": 86
    },
    {
      "midi": 66,
      "hit": false,
      "t": 7260.416666666668,
      "d": 447.91666666666697,
      "v": 100
    },
    {
      "midi": 59,
      "hit": false,
      "t": 7750,
      "d": 947.9166666666679,
      "v": 98
    },
    {
      "midi": 68,
      "hit": false,
      "t": 7750,
      "d": 947.9166666666679,
      "v": 112
    },
    {
      "midi": 59,
      "hit": false,
      "t": 7760.416666666668,
      "d": 947.9166666666679,
      "v": 91
    },
    {
      "midi": 68,
      "hit": false,
      "t": 7760.416666666668,
      "d": 947.9166666666679,
      "v": 101
    },
    {
      "midi": 40,
      "hit": false,
      "t": 8000,
      "d": 197.91666666666788,
      "v": 102
    },
    {
      "midi": 40,
      "hit": false,
      "t": 8010.416666666668,
      "d": 197.91666666666788,
      "v": 94
    },
    {
      "midi": 47,
      "hit": false,
      "t": 8250.000000000002,
      "d": 197.91666666666606,
      "v": 100
    },
    {
      "midi": 47,
      "hit": false,
      "t": 8260.41666666667,
      "d": 197.91666666666606,
      "v": 92
    },
    {
      "midi": 52,
      "hit": false,
      "t": 8500.000000000002,
      "d": 197.91666666666606,
      "v": 99
    },
    {
      "midi": 52,
      "hit": false,
      "t": 8510.41666666667,
      "d": 197.91666666666606,
      "v": 91
    },
    {
      "midi": 54,
      "hit": false,
      "t": 8750.000000000002,
      "d": 197.91666666666606,
      "v": 101
    },
    {
      "midi": 69,
      "hit": false,
      "t": 8750.000000000002,
      "d": 197.91666666666606,
      "v": 108
    },
    {
      "midi": 54,
      "hit": false,
      "t": 8760.41666666667,
      "d": 197.91666666666606,
      "v": 93
    },
    {
      "midi": 69,
      "hit": false,
      "t": 8760.41666666667,
      "d": 197.91666666666606,
      "v": 98
    },
    {
      "midi": 44,
      "hit": false,
      "t": 9000.000000000002,
      "d": 197.91666666666606,
      "v": 105
    },
    {
      "midi": 71,
      "hit": false,
      "t": 9000.000000000002,
      "d": 447.91666666666606,
      "v": 105
    },
    {
      "midi": 44,
      "hit": false,
      "t": 9010.41666666667,
      "d": 197.91666666666606,
      "v": 96
    },
    {
      "midi": 71,
      "hit": false,
      "t": 9010.41666666667,
      "d": 447.91666666666606,
      "v": 96
    },
    {
      "midi": 52,
      "hit": false,
      "t": 9250.000000000002,
      "d": 197.91666666666606,
      "v": 101
    },
    {
      "midi": 52,
      "hit": false,
      "t": 9260.41666666667,
      "d": 197.91666666666606,
      "v": 93
    },
    {
      "midi": 54,
      "hit": false,
      "t": 9500.000000000002,
      "d": 197.91666666666606,
      "v": 105
    },
    {
      "midi": 64,
      "hit": false,
      "t": 9500.000000000002,
      "d": 197.91666666666606,
      "v": 94
    },
    {
      "midi": 54,
      "hit": false,
      "t": 9510.41666666667,
      "d": 197.91666666666606,
      "v": 96
    },
    {
      "midi": 64,
      "hit": false,
      "t": 9510.41666666667,
      "d": 197.91666666666606,
      "v": 88
    },
    {
      "midi": 45,
      "hit": false,
      "t": 9750,
      "d": 197.91666666666606,
      "v": 106
    },
    {
      "midi": 64,
      "hit": false,
      "t": 9750,
      "d": 947.9166666666661,
      "v": 120
    },
    {
      "midi": 73,
      "hit": false,
      "t": 9750,
      "d": 947.9166666666661,
      "v": 120
    },
    {
      "midi": 45,
      "hit": false,
      "t": 9760.416666666668,
      "d": 197.91666666666606,
      "v": 96
    },
    {
      "midi": 64,
      "hit": false,
      "t": 9760.416666666668,
      "d": 947.9166666666661,
      "v": 91
    },
    {
      "midi": 73,
      "hit": false,
      "t": 9760.416666666668,
      "d": 947.9166666666661,
      "v": 102
    },
    {
      "midi": 52,
      "hit": false,
      "t": 10000,
      "d": 999.9999999999964,
      "v": 96
    },
    {
      "midi": 52,
      "hit": false,
      "t": 10010.416666666668,
      "d": 999.9999999999964,
      "v": 89
    },
    {
      "midi": 57,
      "hit": false,
      "t": 10250,
      "d": 729.1666666666642,
      "v": 91
    },
    {
      "midi": 57,
      "hit": false,
      "t": 10260.416666666668,
      "d": 729.1666666666642,
      "v": 86
    },
    {
      "midi": 59,
      "hit": false,
      "t": 10500,
      "d": 468.7499999999982,
      "v": 96
    },
    {
      "midi": 59,
      "hit": false,
      "t": 10510.416666666668,
      "d": 468.7499999999982,
      "v": 89
    },
    {
      "midi": 73,
      "hit": false,
      "t": 10749.999999999998,
      "d": 52.08333333333394,
      "v": 109
    },
    {
      "midi": 61,
      "hit": false,
      "t": 10749.999999999998,
      "d": 239.58333333333212,
      "v": 103
    },
    {
      "midi": 73,
      "hit": false,
      "t": 10760.416666666666,
      "d": 52.08333333333394,
      "v": 85
    },
    {
      "midi": 61,
      "hit": false,
      "t": 10760.416666666666,
      "d": 239.58333333333212,
      "v": 78
    },
    {
      "midi": 49,
      "hit": false,
      "t": 10999.999999999996,
      "d": 947.9166666666661,
      "v": 112
    },
    {
      "midi": 49,
      "hit": false,
      "t": 11010.416666666664,
      "d": 947.9166666666661,
      "v": 101
    },
    {
      "midi": 69,
      "hit": false,
      "t": 11249.999999999996,
      "d": 197.91666666666606,
      "v": 105
    },
    {
      "midi": 69,
      "hit": false,
      "t": 11260.416666666664,
      "d": 197.91666666666606,
      "v": 96
    },
    {
      "midi": 68,
      "hit": false,
      "t": 11499.999999999996,
      "d": 197.91666666666606,
      "v": 107
    },
    {
      "midi": 68,
      "hit": false,
      "t": 11510.416666666664,
      "d": 197.91666666666606,
      "v": 97
    },
    {
      "midi": 66,
      "hit": false,
      "t": 11749.999999999996,
      "d": 1520.833333333334,
      "v": 112
    },
    {
      "midi": 66,
      "hit": false,
      "t": 11760.416666666664,
      "d": 1520.833333333334,
      "v": 101
    },
    {
      "midi": 38,
      "hit": false,
      "t": 11999.999999999996,
      "d": 197.91666666666606,
      "v": 100
    },
    {
      "midi": 38,
      "hit": false,
      "t": 12010.416666666664,
      "d": 197.91666666666606,
      "v": 92
    },
    {
      "midi": 45,
      "hit": false,
      "t": 12249.999999999996,
      "d": 197.91666666666606,
      "v": 96
    },
    {
      "midi": 45,
      "hit": false,
      "t": 12260.416666666664,
      "d": 197.91666666666606,
      "v": 89
    },
    {
      "midi": 52,
      "hit": false,
      "t": 12499.999999999996,
      "d": 197.91666666666606,
      "v": 102
    },
    {
      "midi": 52,
      "hit": false,
      "t": 12510.416666666664,
      "d": 197.91666666666606,
      "v": 94
    },
    {
      "midi": 54,
      "hit": false,
      "t": 12749.999999999996,
      "d": 1197.9166666666679,
      "v": 105
    },
    {
      "midi": 54,
      "hit": false,
      "t": 12760.416666666664,
      "d": 1197.9166666666679,
      "v": 96
    },
    {
      "midi": 64,
      "hit": false,
      "t": 13249.999999999996,
      "d": 197.91666666666788,
      "v": 103
    },
    {
      "midi": 64,
      "hit": false,
      "t": 13260.416666666664,
      "d": 197.91666666666788,
      "v": 94
    },
    {
      "midi": 66,
      "hit": false,
      "t": 13499.999999999998,
      "d": 197.91666666666606,
      "v": 105
    },
    {
      "midi": 66,
      "hit": false,
      "t": 13510.416666666666,
      "d": 197.91666666666606,
      "v": 96
    },
    {
      "midi": 68,
      "hit": false,
      "t": 13749.999999999998,
      "d": 1197.916666666666,
      "v": 111
    },
    {
      "midi": 68,
      "hit": false,
      "t": 13760.416666666666,
      "d": 1197.916666666666,
      "v": 100
    },
    {
      "midi": 40,
      "hit": false,
      "t": 13999.999999999998,
      "d": 197.91666666666606,
      "v": 105
    },
    {
      "midi": 40,
      "hit": false,
      "t": 14010.416666666666,
      "d": 197.91666666666606,
      "v": 96
    },
    {
      "midi": 47,
      "hit": false,
      "t": 14249.999999999998,
      "d": 197.91666666666606,
      "v": 107
    },
    {
      "midi": 47,
      "hit": false,
      "t": 14260.416666666666,
      "d": 197.91666666666606,
      "v": 97
    },
    {
      "midi": 54,
      "hit": false,
      "t": 14499.999999999998,
      "d": 197.91666666666606,
      "v": 100
    },
    {
      "midi": 54,
      "hit": false,
      "t": 14510.416666666666,
      "d": 197.91666666666606,
      "v": 92
    },
    {
      "midi": 56,
      "hit": false,
      "t": 14749.999999999998,
      "d": 1197.916666666666,
      "v": 97
    },
    {
      "midi": 56,
      "hit": false,
      "t": 14760.416666666666,
      "d": 1197.916666666666,
      "v": 90
    },
    {
      "midi": 76,
      "hit": false,
      "t": 14999.999999999998,
      "d": 447.91666666666606,
      "v": 110
    },
    {
      "midi": 76,
      "hit": false,
      "t": 15010.416666666666,
      "d": 447.91666666666606,
      "v": 99
    },
    {
      "midi": 74,
      "hit": false,
      "t": 15499.999999999998,
      "d": 197.91666666666606,
      "v": 109
    },
    {
      "midi": 74,
      "hit": false,
      "t": 15510.416666666666,
      "d": 197.91666666666606,
      "v": 98
    },
    {
      "midi": 73,
      "hit": false,
      "t": 15749.999999999998,
      "d": 1447.9166666666624,
      "v": 108
    },
    {
      "midi": 73,
      "hit": false,
      "t": 15760.416666666666,
      "d": 1447.9166666666624,
      "v": 98
    },
    {
      "midi": 42,
      "hit": false,
      "t": 15999.999999999996,
      "d": 197.91666666666606,
      "v": 105
    },
    {
      "midi": 68,
      "hit": false,
      "t": 15999.999999999996,
      "d": 239.58333333333212,
      "v": 93
    },
    {
      "midi": 42,
      "hit": false,
      "t": 16010.416666666664,
      "d": 197.91666666666606,
      "v": 96
    },
    {
      "midi": 68,
      "hit": false,
      "t": 16010.416666666664,
      "d": 239.58333333333212,
      "v": 87
    },
    {
      "midi": 70,
      "hit": false,
      "t": 16031.249999999996,
      "d": 1187.4999999999964,
      "v": 95
    },
    {
      "midi": 70,
      "hit": false,
      "t": 16041.666666666664,
      "d": 1187.4999999999964,
      "v": 89
    },
    {
      "midi": 49,
      "hit": false,
      "t": 16249.999999999995,
      "d": 197.91666666666606,
      "v": 100
    },
    {
      "midi": 49,
      "hit": false,
      "t": 16260.416666666662,
      "d": 197.91666666666606,
      "v": 92
    },
    {
      "midi": 56,
      "hit": false,
      "t": 16499.999999999993,
      "d": 197.91666666666788,
      "v": 99
    },
    {
      "midi": 56,
      "hit": false,
      "t": 16510.41666666666,
      "d": 197.91666666666788,
      "v": 91
    },
    {
      "midi": 58,
      "hit": false,
      "t": 16749.999999999993,
      "d": 2947.916666666668,
      "v": 99
    },
    {
      "midi": 58,
      "hit": false,
      "t": 16760.41666666666,
      "d": 2947.916666666668,
      "v": 91
    },
    {
      "midi": 80,
      "hit": false,
      "t": 17249.999999999993,
      "d": 697.9166666666679,
      "v": 93
    },
    {
      "midi": 82,
      "hit": false,
      "t": 17249.999999999993,
      "d": 697.9166666666679,
      "v": 92
    },
    {
      "midi": 85,
      "hit": false,
      "t": 17249.999999999993,
      "d": 697.9166666666679,
      "v": 90
    },
    {
      "midi": 80,
      "hit": false,
      "t": 17260.41666666666,
      "d": 697.9166666666679,
      "v": 75
    },
    {
      "midi": 82,
      "hit": false,
      "t": 17260.41666666666,
      "d": 697.9166666666679,
      "v": 75
    },
    {
      "midi": 85,
      "hit": false,
      "t": 17260.41666666666,
      "d": 697.9166666666679,
      "v": 75
    },
    {
      "midi": 92,
      "hit": false,
      "t": 17999.999999999993,
      "d": 1697.9166666666679,
      "v": 70
    },
    {
      "midi": 94,
      "hit": false,
      "t": 17999.999999999993,
      "d": 1697.9166666666679,
      "v": 70
    },
    {
      "midi": 97,
      "hit": false,
      "t": 17999.999999999993,
      "d": 1697.9166666666679,
      "v": 70
    },
    {
      "midi": 92,
      "hit": false,
      "t": 18010.41666666666,
      "d": 1697.9166666666679,
      "v": 71
    },
    {
      "midi": 94,
      "hit": false,
      "t": 18010.41666666666,
      "d": 1697.9166666666679,
      "v": 71
    },
    {
      "midi": 97,
      "hit": false,
      "t": 18010.41666666666,
      "d": 1697.9166666666679,
      "v": 71
    },
    {
      "midi": 70,
      "hit": false,
      "t": 19781.249999999996,
      "d": 93.75,
      "v": 87
    },
    {
      "midi": 69,
      "hit": false,
      "t": 19843.749999999996,
      "d": 104.16666666666788,
      "v": 82
    },
    {
      "midi": 67,
      "hit": false,
      "t": 19906.249999999996,
      "d": 135.41666666667152,
      "v": 88
    },
    {
      "midi": 62,
      "hit": false,
      "t": 19958.333333333332,
      "d": 1864.5833333333394,
      "v": 89
    },
    {
      "midi": 57,
      "hit": false,
      "t": 19958.333333333332,
      "d": 1875.0000000000073,
      "v": 76
    },
    {
      "midi": 65,
      "hit": false,
      "t": 19968.75,
      "d": 1302.0833333333358,
      "v": 90
    },
    {
      "midi": 58,
      "hit": false,
      "t": 19968.75,
      "d": 1854.1666666666715,
      "v": 92
    },
    {
      "midi": 65,
      "hit": false,
      "t": 21270.833333333336,
      "d": 541.6666666666679,
      "v": 96
    },
    {
      "midi": 63,
      "hit": false,
      "t": 21520.833333333336,
      "d": 1354.1666666666679,
      "v": 94
    },
    {
      "midi": 70,
      "hit": false,
      "t": 21781.250000000004,
      "d": 1062.5,
      "v": 96
    },
    {
      "midi": 48,
      "hit": false,
      "t": 22020.83333333334,
      "d": 1302.0833333333321,
      "v": 93
    },
    {
      "midi": 55,
      "hit": false,
      "t": 22270.83333333334,
      "d": 1041.6666666666642,
      "v": 80
    },
    {
      "midi": 58,
      "hit": false,
      "t": 22520.83333333334,
      "d": 114.58333333333212,
      "v": 87
    },
    {
      "midi": 60,
      "hit": false,
      "t": 22781.250000000004,
      "d": 62.5,
      "v": 97
    },
    {
      "midi": 63,
      "hit": false,
      "t": 23020.833333333336,
      "d": 312.50000000000364,
      "v": 104
    },
    {
      "midi": 60,
      "hit": false,
      "t": 23510.41666666667,
      "d": 270.83333333333576,
      "v": 90
    },
    {
      "midi": 69,
      "hit": false,
      "t": 23770.83333333334,
      "d": 1958.3333333333358,
      "v": 103
    },
    {
      "midi": 60,
      "hit": false,
      "t": 24010.416666666675,
      "d": 656.25,
      "v": 77
    },
    {
      "midi": 57,
      "hit": false,
      "t": 24010.416666666675,
      "d": 760.4166666666679,
      "v": 75
    },
    {
      "midi": 53,
      "hit": false,
      "t": 24010.416666666675,
      "d": 979.1666666666679,
      "v": 77
    },
    {
      "midi": 60,
      "hit": false,
      "t": 24760.416666666675,
      "d": 406.25,
      "v": 86
    },
    {
      "midi": 57,
      "hit": false,
      "t": 25260.416666666675,
      "d": 135.41666666666788,
      "v": 72
    },
    {
      "midi": 72,
      "hit": false,
      "t": 25770.833333333343,
      "d": 1177.0833333333321,
      "v": 98
    },
    {
      "midi": 53,
      "hit": false,
      "t": 26010.416666666675,
      "d": 958.3333333333321,
      "v": 85
    },
    {
      "midi": 58,
      "hit": false,
      "t": 26260.416666666675,
      "d": 312.5,
      "v": 78
    },
    {
      "midi": 62,
      "hit": false,
      "t": 26510.416666666675,
      "d": 208.33333333333212,
      "v": 73
    },
    {
      "midi": 58,
      "hit": false,
      "t": 26760.416666666675,
      "d": 229.16666666666424,
      "v": 83
    },
    {
      "midi": 70,
      "hit": false,
      "t": 27010.41666666667,
      "d": 458.3333333333321,
      "v": 96
    },
    {
      "midi": 65,
      "hit": false,
      "t": 27500.000000000004,
      "d": 166.66666666666788,
      "v": 84
    },
    {
      "midi": 65,
      "hit": false,
      "t": 27750.000000000004,
      "d": 250,
      "v": 83
    },
    {
      "midi": 67,
      "hit": false,
      "t": 27770.833333333336,
      "d": 1489.5833333333321,
      "v": 90
    },
    {
      "midi": 51,
      "hit": false,
      "t": 28010.41666666667,
      "d": 979.1666666666642,
      "v": 84
    },
    {
      "midi": 55,
      "hit": false,
      "t": 28260.41666666667,
      "d": 447.9166666666679,
      "v": 75
    },
    {
      "midi": 60,
      "hit": false,
      "t": 28510.41666666667,
      "d": 250,
      "v": 73
    },
    {
      "midi": 65,
      "hit": false,
      "t": 28760.41666666667,
      "d": 83.33333333333212,
      "v": 90
    },
    {
      "midi": 70,
      "hit": false,
      "t": 29270.833333333336,
      "d": 614.5833333333321,
      "v": 95
    },
    {
      "midi": 65,
      "hit": false,
      "t": 30000,
      "d": 1979.1666666666679,
      "v": 85
    },
    {
      "midi": 58,
      "hit": false,
      "t": 30020.833333333332,
      "d": 604.1666666666679,
      "v": 77
    },
    {
      "midi": 53,
      "hit": false,
      "t": 30020.833333333332,
      "d": 864.5833333333358,
      "v": 75
    },
    {
      "midi": 58,
      "hit": false,
      "t": 30760.416666666668,
      "d": 291.6666666666679,
      "v": 77
    },
    {
      "midi": 53,
      "hit": false,
      "t": 31010.416666666668,
      "d": 250,
      "v": 74
    },
    {
      "midi": 62,
      "hit": false,
      "t": 31260.416666666668,
      "d": 708.3333333333321,
      "v": 88
    },
    {
      "midi": 60,
      "hit": false,
      "t": 32010.416666666668,
      "d": 1197.9166666666679,
      "v": 86
    },
    {
      "midi": 67,
      "hit": false,
      "t": 32010.416666666668,
      "d": 1718.7500000000036,
      "v": 86
    },
    {
      "midi": 58,
      "hit": false,
      "t": 32010.416666666668,
      "d": 1906.2500000000036,
      "v": 87
    },
    {
      "midi": 60,
      "hit": false,
      "t": 33520.833333333336,
      "d": 291.6666666666715,
      "v": 79
    },
    {
      "midi": 67,
      "hit": false,
      "t": 33781.25000000001,
      "d": 145.83333333332848,
      "v": 78
    },
    {
      "midi": 63,
      "hit": false,
      "t": 33989.583333333336,
      "d": 41.66666666666424,
      "v": 60
    },
    {
      "midi": 58,
      "hit": false,
      "t": 34031.25,
      "d": 718.75,
      "v": 98
    },
    {
      "midi": 63,
      "hit": false,
      "t": 34031.25,
      "d": 770.8333333333358,
      "v": 91
    },
    {
      "midi": 67,
      "hit": false,
      "t": 34031.25,
      "d": 802.0833333333358,
      "v": 96
    },
    {
      "midi": 60,
      "hit": false,
      "t": 35010.41666666667,
      "d": 333.33333333333576,
      "v": 89
    },
    {
      "midi": 65,
      "hit": false,
      "t": 35010.41666666667,
      "d": 333.33333333333576,
      "v": 92
    },
    {
      "midi": 69,
      "hit": false,
      "t": 35010.41666666667,
      "d": 333.33333333333576,
      "v": 90
    },
    {
      "midi": 62,
      "hit": false,
      "t": 35343.75000000001,
      "d": 333.33333333333576,
      "v": 89
    },
    {
      "midi": 67,
      "hit": false,
      "t": 35343.75000000001,
      "d": 333.33333333333576,
      "v": 91
    },
    {
      "midi": 70,
      "hit": false,
      "t": 35343.75000000001,
      "d": 333.33333333333576,
      "v": 89
    },
    {
      "midi": 64,
      "hit": false,
      "t": 35677.08333333334,
      "d": 333.33333333333576,
      "v": 82
    },
    {
      "midi": 69,
      "hit": false,
      "t": 35677.08333333334,
      "d": 333.33333333333576,
      "v": 88
    },
    {
      "midi": 72,
      "hit": false,
      "t": 35677.08333333334,
      "d": 333.33333333333576,
      "v": 92
    },
    {
      "midi": 52,
      "hit": false,
      "t": 36010.41666666668,
      "d": 1906.25,
      "v": 85
    },
    {
      "midi": 71,
      "hit": false,
      "t": 36020.83333333334,
      "d": 1739.5833333333358,
      "v": 92
    },
    {
      "midi": 74,
      "hit": false,
      "t": 36020.83333333334,
      "d": 1739.5833333333358,
      "v": 94
    },
    {
      "midi": 67,
      "hit": false,
      "t": 36020.83333333334,
      "d": 1760.4166666666715,
      "v": 92
    },
    {
      "midi": 59,
      "hit": false,
      "t": 36260.41666666668,
      "d": 1666.6666666666642,
      "v": 75
    },
    {
      "midi": 64,
      "hit": false,
      "t": 36510.41666666668,
      "d": 1520.8333333333358,
      "v": 77
    },
    {
      "midi": 66,
      "hit": false,
      "t": 36760.41666666668,
      "d": 1218.75,
      "v": 79
    },
    {
      "midi": 74,
      "hit": false,
      "t": 37760.41666666668,
      "d": 1197.9166666666642,
      "v": 95
    },
    {
      "midi": 57,
      "hit": false,
      "t": 38000.000000000015,
      "d": 2010.4166666666642,
      "v": 78
    },
    {
      "midi": 60,
      "hit": false,
      "t": 38260.41666666668,
      "d": 270.8333333333285,
      "v": 72
    },
    {
      "midi": 64,
      "hit": false,
      "t": 38520.83333333334,
      "d": 260.41666666666424,
      "v": 73
    },
    {
      "midi": 60,
      "hit": false,
      "t": 38770.83333333334,
      "d": 1052.0833333333358,
      "v": 78
    },
    {
      "midi": 67,
      "hit": false,
      "t": 39010.41666666668,
      "d": 947.9166666666642,
      "v": 80
    },
    {
      "midi": 72,
      "hit": false,
      "t": 39010.41666666668,
      "d": 947.9166666666642,
      "v": 80
    },
    {
      "midi": 76,
      "hit": false,
      "t": 39010.41666666668,
      "d": 947.9166666666642,
      "v": 84
    },
    {
      "midi": 50,
      "hit": false,
      "t": 40010.41666666668,
      "d": 812.5,
      "v": 86
    },
    {
      "midi": 69,
      "hit": false,
      "t": 40010.41666666668,
      "d": 947.9166666666642,
      "v": 94
    },
    {
      "midi": 57,
      "hit": false,
      "t": 40260.41666666668,
      "d": 750,
      "v": 71
    },
    {
      "midi": 62,
      "hit": false,
      "t": 40510.41666666668,
      "d": 260.41666666666424,
      "v": 77
    },
    {
      "midi": 64,
      "hit": false,
      "t": 40770.83333333334,
      "d": 270.83333333333576,
      "v": 70
    },
    {
      "midi": 69,
      "hit": false,
      "t": 41010.41666666668,
      "d": 197.91666666666424,
      "v": 89
    },
    {
      "midi": 48,
      "hit": false,
      "t": 41010.41666666668,
      "d": 802.083333333343,
      "v": 92
    },
    {
      "midi": 71,
      "hit": false,
      "t": 41260.41666666668,
      "d": 197.91666666666424,
      "v": 93
    },
    {
      "midi": 72,
      "hit": false,
      "t": 41510.41666666668,
      "d": 197.91666666667152,
      "v": 92
    },
    {
      "midi": 57,
      "hit": false,
      "t": 41531.250000000015,
      "d": 250.00000000000728,
      "v": 42
    },
    {
      "midi": 62,
      "hit": false,
      "t": 41760.416666666686,
      "d": 250,
      "v": 73
    },
    {
      "midi": 74,
      "hit": false,
      "t": 41760.416666666686,
      "d": 1197.9166666666642,
      "v": 92
    },
    {
      "midi": 47,
      "hit": false,
      "t": 42010.416666666686,
      "d": 1864.5833333333285,
      "v": 89
    },
    {
      "midi": 55,
      "hit": false,
      "t": 42270.83333333335,
      "d": 260.41666666666424,
      "v": 75
    },
    {
      "midi": 62,
      "hit": false,
      "t": 42520.83333333335,
      "d": 281.25,
      "v": 92
    },
    {
      "midi": 59,
      "hit": false,
      "t": 42781.250000000015,
      "d": 947.9166666666642,
      "v": 69
    },
    {
      "midi": 74,
      "hit": false,
      "t": 43010.416666666686,
      "d": 270.8333333333285,
      "v": 89
    },
    {
      "midi": 79,
      "hit": false,
      "t": 43239.58333333335,
      "d": 406.25,
      "v": 92
    },
    {
      "midi": 74,
      "hit": false,
      "t": 43520.83333333335,
      "d": 135.41666666666424,
      "v": 81
    },
    {
      "midi": 62,
      "hit": false,
      "t": 43750.000000000015,
      "d": 354.16666666666424,
      "v": 79
    },
    {
      "midi": 74,
      "hit": false,
      "t": 43760.41666666668,
      "d": 145.83333333333576,
      "v": 92
    },
    {
      "midi": 79,
      "hit": false,
      "t": 43760.41666666668,
      "d": 2364.5833333333285,
      "v": 96
    },
    {
      "midi": 76,
      "hit": false,
      "t": 43854.16666666668,
      "d": 2260.4166666666642,
      "v": 81
    },
    {
      "midi": 48,
      "hit": false,
      "t": 44010.41666666668,
      "d": 1906.2499999999927,
      "v": 94
    },
    {
      "midi": 55,
      "hit": false,
      "t": 44260.41666666668,
      "d": 1729.166666666657,
      "v": 71
    },
    {
      "midi": 60,
      "hit": false,
      "t": 44510.41666666668,
      "d": 781.25,
      "v": 80
    },
    {
      "midi": 64,
      "hit": false,
      "t": 44770.83333333334,
      "d": 458.33333333333576,
      "v": 84
    },
    {
      "midi": 62,
      "hit": false,
      "t": 45260.41666666668,
      "d": 135.41666666666424,
      "v": 86
    },
    {
      "midi": 62,
      "hit": false,
      "t": 45500.00000000001,
      "d": 93.75,
      "v": 89
    },
    {
      "midi": 64,
      "hit": false,
      "t": 45520.83333333334,
      "d": 239.58333333332848,
      "v": 80
    },
    {
      "midi": 62,
      "hit": false,
      "t": 45760.41666666667,
      "d": 302.08333333333576,
      "v": 78
    },
    {
      "midi": 59,
      "hit": false,
      "t": 46010.41666666667,
      "d": 750.0000000000073,
      "v": 77
    },
    {
      "midi": 74,
      "hit": false,
      "t": 46010.41666666667,
      "d": 1666.6666666666715,
      "v": 84
    },
    {
      "midi": 47,
      "hit": false,
      "t": 46270.83333333334,
      "d": 1656.25,
      "v": 89
    },
    {
      "midi": 62,
      "hit": false,
      "t": 46760.41666666668,
      "d": 1114.5833333333285,
      "v": 86
    },
    {
      "midi": 55,
      "hit": false,
      "t": 48000.00000000001,
      "d": 781.25,
      "v": 88
    },
    {
      "midi": 60,
      "hit": false,
      "t": 48000.00000000001,
      "d": 791.6666666666642,
      "v": 90
    },
    {
      "midi": 64,
      "hit": false,
      "t": 48000.00000000001,
      "d": 843.75,
      "v": 87
    },
    {
      "midi": 50,
      "hit": false,
      "t": 48000.00000000001,
      "d": 1500,
      "v": 89
    },
    {
      "midi": 67,
      "hit": false,
      "t": 49031.25000000001,
      "d": 364.58333333333576,
      "v": 72
    },
    {
      "midi": 72,
      "hit": false,
      "t": 49031.25000000001,
      "d": 375,
      "v": 79
    },
    {
      "midi": 76,
      "hit": false,
      "t": 49031.25000000001,
      "d": 385.41666666666424,
      "v": 86
    },
    {
      "midi": 69,
      "hit": false,
      "t": 52010.41666666667,
      "d": 260.4166666666715,
      "v": 77
    },
    {
      "midi": 65,
      "hit": false,
      "t": 52010.41666666667,
      "d": 1906.2500000000073,
      "v": 71
    },
    {
      "midi": 74,
      "hit": false,
      "t": 52010.41666666667,
      "d": 1916.6666666666715,
      "v": 83
    },
    {
      "midi": 58,
      "hit": false,
      "t": 52010.41666666667,
      "d": 1989.5833333333358,
      "v": 78
    },
    {
      "midi": 70,
      "hit": false,
      "t": 52250.00000000001,
      "d": 1677.0833333333358,
      "v": 73
    },
    {
      "midi": 57,
      "hit": false,
      "t": 52260.416666666664,
      "d": 1958.3333333333358,
      "v": 122
    },
    {
      "midi": 58,
      "hit": false,
      "t": 52500,
      "d": 1718.75,
      "v": 122
    },
    {
      "midi": 65,
      "hit": false,
      "t": 52750,
      "d": 1510.4166666666642,
      "v": 120
    },
    {
      "midi": 69,
      "hit": false,
      "t": 53520.83333333334,
      "d": 395.83333333333576,
      "v": 68
    },
    {
      "midi": 69,
      "hit": false,
      "t": 54000.00000000001,
      "d": 1489.5833333333285,
      "v": 81
    },
    {
      "midi": 65,
      "hit": false,
      "t": 54000.00000000001,
      "d": 1520.8333333333285,
      "v": 78
    },
    {
      "midi": 72,
      "hit": false,
      "t": 54000.00000000001,
      "d": 1531.2499999999927,
      "v": 85
    },
    {
      "midi": 57,
      "hit": false,
      "t": 54000.00000000001,
      "d": 1895.8333333333285,
      "v": 79
    },
    {
      "midi": 55,
      "hit": false,
      "t": 54250,
      "d": 322.9166666666715,
      "v": 119
    },
    {
      "midi": 60,
      "hit": false,
      "t": 54500,
      "d": 1927.0833333333358,
      "v": 112
    },
    {
      "midi": 65,
      "hit": false,
      "t": 54520.833333333336,
      "d": 1937.5,
      "v": 119
    },
    {
      "midi": 77,
      "hit": false,
      "t": 55000.00000000001,
      "d": 479.16666666666424,
      "v": 89
    },
    {
      "midi": 70,
      "hit": false,
      "t": 56000,
      "d": 572.9166666666642,
      "v": 87
    },
    {
      "midi": 74,
      "hit": false,
      "t": 56000,
      "d": 593.75,
      "v": 89
    },
    {
      "midi": 67,
      "hit": false,
      "t": 56000,
      "d": 614.5833333333358,
      "v": 84
    },
    {
      "midi": 55,
      "hit": false,
      "t": 56010.416666666664,
      "d": 541.6666666666642,
      "v": 76
    },
    {
      "midi": 74,
      "hit": false,
      "t": 57000,
      "d": 802.0833333333285,
      "v": 91
    },
    {
      "midi": 67,
      "hit": false,
      "t": 57000,
      "d": 833.3333333333285,
      "v": 87
    },
    {
      "midi": 52,
      "hit": false,
      "t": 57010.416666666664,
      "d": 822.9166666666642,
      "v": 64
    },
    {
      "midi": 58,
      "hit": false,
      "t": 57010.416666666664,
      "d": 885.4166666666642,
      "v": 70
    },
    {
      "midi": 62,
      "hit": false,
      "t": 57010.416666666664,
      "d": 895.8333333333285,
      "v": 76
    },
    {
      "midi": 67,
      "hit": false,
      "t": 57989.58333333333,
      "d": 177.08333333333576,
      "v": 92
    },
    {
      "midi": 72,
      "hit": false,
      "t": 57989.58333333333,
      "d": 1937.5,
      "v": 90
    },
    {
      "midi": 53,
      "hit": false,
      "t": 58010.416666666664,
      "d": 2000,
      "v": 73
    },
    {
      "midi": 69,
      "hit": false,
      "t": 58031.25,
      "d": 927.0833333333285,
      "v": 71
    },
    {
      "midi": 67,
      "hit": false,
      "t": 59010.416666666664,
      "d": 947.9166666666642,
      "v": 89
    },
    {
      "midi": 64,
      "hit": false,
      "t": 60010.416666666664,
      "d": 1854.1666666666642,
      "v": 80
    },
    {
      "midi": 72,
      "hit": false,
      "t": 60010.416666666664,
      "d": 1875,
      "v": 88
    },
    {
      "midi": 60,
      "hit": false,
      "t": 60020.83333333333,
      "d": 1906.25,
      "v": 82
    },
    {
      "midi": 59,
      "hit": false,
      "t": 60250,
      "d": 1937.5,
      "v": 127
    },
    {
      "midi": 60,
      "hit": false,
      "t": 60500,
      "d": 1781.25,
      "v": 122
    },
    {
      "midi": 67,
      "hit": false,
      "t": 60750,
      "d": 1583.3333333333358,
      "v": 122
    },
    {
      "midi": 59,
      "hit": false,
      "t": 61989.58333333333,
      "d": 1718.7499999999927,
      "v": 76
    },
    {
      "midi": 67,
      "hit": false,
      "t": 61989.58333333333,
      "d": 1770.8333333333285,
      "v": 83
    },
    {
      "midi": 71,
      "hit": false,
      "t": 61999.99999999999,
      "d": 927.0833333333358,
      "v": 87
    },
    {
      "midi": 62,
      "hit": false,
      "t": 61999.99999999999,
      "d": 1697.9166666666642,
      "v": 84
    },
    {
      "midi": 57,
      "hit": false,
      "t": 62250,
      "d": 322.91666666666424,
      "v": 122
    },
    {
      "midi": 62,
      "hit": false,
      "t": 62500,
      "d": 1989.5833333333285,
      "v": 110
    },
    {
      "midi": 67,
      "hit": false,
      "t": 62510.416666666664,
      "d": 1979.1666666666642,
      "v": 122
    },
    {
      "midi": 74,
      "hit": false,
      "t": 62989.58333333333,
      "d": 718.7499999999927,
      "v": 90
    },
    {
      "midi": 71,
      "hit": false,
      "t": 63968.74999999999,
      "d": 1874.9999999999927,
      "v": 96
    },
    {
      "midi": 68,
      "hit": false,
      "t": 63979.16666666666,
      "d": 1864.5833333333285,
      "v": 81
    },
    {
      "midi": 64,
      "hit": false,
      "t": 63979.16666666666,
      "d": 1885.416666666657,
      "v": 87
    },
    {
      "midi": 54,
      "hit": false,
      "t": 63989.58333333332,
      "d": 1833.3333333333358,
      "v": 78
    },
    {
      "midi": 47,
      "hit": false,
      "t": 65999.99999999997,
      "d": 625.0000000000146,
      "v": 92
    },
    {
      "midi": 71,
      "hit": false,
      "t": 66010.41666666664,
      "d": 885.4166666666715,
      "v": 91
    },
    {
      "midi": 64,
      "hit": false,
      "t": 66010.41666666664,
      "d": 895.833333333343,
      "v": 80
    },
    {
      "midi": 66,
      "hit": false,
      "t": 68000,
      "d": 687.5,
      "v": 113
    },
    {
      "midi": 63,
      "hit": false,
      "t": 68000,
      "d": 697.9166666666715,
      "v": 107
    },
    {
      "midi": 59,
      "hit": false,
      "t": 68010.41666666666,
      "d": 656.25,
      "v": 89
    },
    {
      "midi": 66,
      "hit": false,
      "t": 68010.41666666666,
      "d": 656.25,
      "v": 97
    },
    {
      "midi": 40,
      "hit": false,
      "t": 68010.41666666666,
      "d": 791.666666666657,
      "v": 98
    },
    {
      "midi": 63,
      "hit": false,
      "t": 68020.83333333333,
      "d": 666.666666666657,
      "v": 94
    },
    {
      "midi": 64,
      "hit": false,
      "t": 68760.41666666667,
      "d": 854.1666666666715,
      "v": 107
    },
    {
      "midi": 68,
      "hit": false,
      "t": 68760.41666666667,
      "d": 875,
      "v": 116
    },
    {
      "midi": 59,
      "hit": false,
      "t": 68770.83333333331,
      "d": 885.4166666666715,
      "v": 94
    },
    {
      "midi": 64,
      "hit": false,
      "t": 68770.83333333331,
      "d": 895.833333333343,
      "v": 94
    },
    {
      "midi": 52,
      "hit": false,
      "t": 68770.83333333331,
      "d": 958.333333333343,
      "v": 95
    },
    {
      "midi": 68,
      "hit": false,
      "t": 68781.24999999999,
      "d": 875,
      "v": 94
    },
    {
      "midi": 63,
      "hit": false,
      "t": 69750,
      "d": 729.1666666666715,
      "v": 122
    },
    {
      "midi": 66,
      "hit": false,
      "t": 69750,
      "d": 729.1666666666715,
      "v": 113
    },
    {
      "midi": 40,
      "hit": false,
      "t": 69760.41666666666,
      "d": 385.41666666668607,
      "v": 96
    },
    {
      "midi": 59,
      "hit": false,
      "t": 69770.83333333333,
      "d": 322.9166666666715,
      "v": 89
    },
    {
      "midi": 66,
      "hit": false,
      "t": 69770.83333333333,
      "d": 333.33333333334303,
      "v": 98
    },
    {
      "midi": 63,
      "hit": false,
      "t": 69781.25,
      "d": 322.9166666666715,
      "v": 92
    },
    {
      "midi": 63,
      "hit": false,
      "t": 70260.41666666667,
      "d": 62.5,
      "v": 89
    },
    {
      "midi": 59,
      "hit": false,
      "t": 70260.41666666667,
      "d": 72.91666666667152,
      "v": 83
    },
    {
      "midi": 66,
      "hit": false,
      "t": 70260.41666666667,
      "d": 83.33333333334303,
      "v": 92
    },
    {
      "midi": 40,
      "hit": false,
      "t": 70260.41666666667,
      "d": 104.16666666667152,
      "v": 94
    },
    {
      "midi": 64,
      "hit": false,
      "t": 70489.58333333334,
      "d": 1531.25,
      "v": 104
    },
    {
      "midi": 68,
      "hit": false,
      "t": 70489.58333333334,
      "d": 1531.25,
      "v": 107
    },
    {
      "midi": 59,
      "hit": false,
      "t": 70510.41666666667,
      "d": 1375,
      "v": 94
    },
    {
      "midi": 64,
      "hit": false,
      "t": 70510.41666666667,
      "d": 1395.8333333333285,
      "v": 94
    },
    {
      "midi": 68,
      "hit": false,
      "t": 70510.41666666667,
      "d": 1406.25,
      "v": 97
    },
    {
      "midi": 52,
      "hit": false,
      "t": 70510.41666666667,
      "d": 1479.1666666666715,
      "v": 94
    },
    {
      "midi": 66,
      "hit": false,
      "t": 72010.41666666667,
      "d": 1750,
      "v": 96
    },
    {
      "midi": 57,
      "hit": false,
      "t": 72010.41666666667,
      "d": 1781.25,
      "v": 79
    },
    {
      "midi": 61,
      "hit": false,
      "t": 73031.25,
      "d": 739.583333333343,
      "v": 96
    },
    {
      "midi": 64,
      "hit": false,
      "t": 74000,
      "d": 947.9166666666715,
      "v": 94
    },
    {
      "midi": 60,
      "hit": false,
      "t": 74000,
      "d": 1885.4166666666715,
      "v": 94
    },
    {
      "midi": 54,
      "hit": false,
      "t": 74010.41666666667,
      "d": 1041.6666666666715,
      "v": 73
    },
    {
      "midi": 69,
      "hit": false,
      "t": 75010.41666666667,
      "d": 854.1666666666715,
      "v": 92
    },
    {
      "midi": 57,
      "hit": false,
      "t": 75010.41666666667,
      "d": 875,
      "v": 80
    },
    {
      "midi": 63,
      "hit": false,
      "t": 76010.41666666666,
      "d": 729.1666666666715,
      "v": 100
    },
    {
      "midi": 60,
      "hit": false,
      "t": 76010.41666666666,
      "d": 1656.2500000000146,
      "v": 105
    },
    {
      "midi": 68,
      "hit": false,
      "t": 76010.41666666666,
      "d": 1812.5000000000146,
      "v": 104
    },
    {
      "midi": 55,
      "hit": false,
      "t": 76510.41666666667,
      "d": 1520.833333333343,
      "v": 122
    },
    {
      "midi": 55,
      "hit": false,
      "t": 76541.66666666666,
      "d": 270.83333333334303,
      "v": 100
    },
    {
      "midi": 56,
      "hit": false,
      "t": 76770.83333333334,
      "d": 1260.4166666666715,
      "v": 99
    },
    {
      "midi": 56,
      "hit": false,
      "t": 76802.08333333333,
      "d": 416.6666666666715,
      "v": 103
    },
    {
      "midi": 63,
      "hit": false,
      "t": 77250.00000000001,
      "d": 750,
      "v": 113
    },
    {
      "midi": 63,
      "hit": false,
      "t": 77260.41666666667,
      "d": 729.1666666666715,
      "v": 105
    },
    {
      "midi": 61,
      "hit": false,
      "t": 77989.58333333334,
      "d": 2020.833333333343,
      "v": 113
    },
    {
      "midi": 73,
      "hit": false,
      "t": 78000.00000000001,
      "d": 697.9166666666715,
      "v": 108
    },
    {
      "midi": 61,
      "hit": false,
      "t": 78000.00000000001,
      "d": 718.75,
      "v": 101
    },
    {
      "midi": 65,
      "hit": false,
      "t": 78000.00000000001,
      "d": 729.1666666666715,
      "v": 100
    },
    {
      "midi": 61,
      "hit": false,
      "t": 78770.83333333336,
      "d": 364.5833333333285,
      "v": 98
    },
    {
      "midi": 70,
      "hit": false,
      "t": 78770.83333333336,
      "d": 364.5833333333285,
      "v": 105
    },
    {
      "midi": 65,
      "hit": false,
      "t": 78781.25000000003,
      "d": 302.0833333333285,
      "v": 70
    },
    {
      "midi": 60,
      "hit": false,
      "t": 79260.41666666669,
      "d": 312.5,
      "v": 98
    },
    {
      "midi": 68,
      "hit": false,
      "t": 79260.41666666669,
      "d": 385.4166666666715,
      "v": 102
    },
    {
      "midi": 63,
      "hit": false,
      "t": 79260.41666666669,
      "d": 395.83333333334303,
      "v": 101
    },
    {
      "midi": 67,
      "hit": false,
      "t": 79750.00000000003,
      "d": 1208.333333333343,
      "v": 100
    },
    {
      "midi": 58,
      "hit": false,
      "t": 79760.4166666667,
      "d": 1197.9166666666715,
      "v": 102
    },
    {
      "midi": 63,
      "hit": false,
      "t": 79760.4166666667,
      "d": 1197.9166666666715,
      "v": 92
    },
    {
      "midi": 58,
      "hit": false,
      "t": 81010.4166666667,
      "d": 802.083333333343,
      "v": 92
    },
    {
      "midi": 67,
      "hit": false,
      "t": 81010.4166666667,
      "d": 895.833333333343,
      "v": 87
    },
    {
      "midi": 61,
      "hit": false,
      "t": 81020.83333333337,
      "d": 812.5,
      "v": 97
    },
    {
      "midi": 60,
      "hit": false,
      "t": 82020.83333333337,
      "d": 885.4166666666715,
      "v": 93
    },
    {
      "midi": 70,
      "hit": false,
      "t": 82020.83333333337,
      "d": 906.25,
      "v": 104
    },
    {
      "midi": 63,
      "hit": false,
      "t": 82020.83333333337,
      "d": 916.6666666666715,
      "v": 105
    },
    {
      "midi": 63,
      "hit": false,
      "t": 83020.83333333337,
      "d": 854.1666666666715,
      "v": 98
    },
    {
      "midi": 68,
      "hit": false,
      "t": 83020.83333333337,
      "d": 864.583333333343,
      "v": 104
    },
    {
      "midi": 60,
      "hit": false,
      "t": 83020.83333333337,
      "d": 885.4166666666715,
      "v": 98
    },
    {
      "midi": 56,
      "hit": false,
      "t": 84010.41666666672,
      "d": 1593.75,
      "v": 94
    },
    {
      "midi": 65,
      "hit": false,
      "t": 84010.41666666672,
      "d": 1593.75,
      "v": 96
    },
    {
      "midi": 61,
      "hit": false,
      "t": 84010.41666666672,
      "d": 1635.4166666666715,
      "v": 95
    },
    {
      "midi": 56,
      "hit": false,
      "t": 85750.00000000006,
      "d": 239.58333333334303,
      "v": 105
    },
    {
      "midi": 65,
      "hit": false,
      "t": 85750.00000000006,
      "d": 2177.0833333333576,
      "v": 105
    },
    {
      "midi": 61,
      "hit": false,
      "t": 85760.41666666673,
      "d": 250,
      "v": 105
    },
    {
      "midi": 55,
      "hit": false,
      "t": 86020.8333333334,
      "d": 1656.25,
      "v": 105
    },
    {
      "midi": 59,
      "hit": false,
      "t": 86020.8333333334,
      "d": 1656.25,
      "v": 105
    },
    {
      "midi": 59,
      "hit": false,
      "t": 87750.00000000007,
      "d": 177.08333333334303,
      "v": 77
    },
    {
      "midi": 55,
      "hit": false,
      "t": 87760.41666666674,
      "d": 208.33333333334303,
      "v": 81
    },
    {
      "midi": 55,
      "hit": false,
      "t": 88010.41666666676,
      "d": 1864.583333333343,
      "v": 93
    },
    {
      "midi": 58,
      "hit": false,
      "t": 88020.83333333343,
      "d": 218.75,
      "v": 102
    },
    {
      "midi": 64,
      "hit": false,
      "t": 88020.83333333343,
      "d": 1875,
      "v": 104
    },
    {
      "midi": 60,
      "hit": false,
      "t": 88166.66666666676,
      "d": 1739.583333333343,
      "v": 82
    },
    {
      "midi": 53,
      "hit": false,
      "t": 90010.41666666677,
      "d": 781.25,
      "v": 98
    },
    {
      "midi": 58,
      "hit": false,
      "t": 90010.41666666677,
      "d": 854.1666666666715,
      "v": 99
    },
    {
      "midi": 62,
      "hit": false,
      "t": 90010.41666666677,
      "d": 875,
      "v": 96
    },
    {
      "midi": 55,
      "hit": false,
      "t": 91000.0000000001,
      "d": 1000,
      "v": 100
    },
    {
      "midi": 60,
      "hit": false,
      "t": 91000.0000000001,
      "d": 1000,
      "v": 104
    },
    {
      "midi": 64,
      "hit": false,
      "t": 91000.0000000001,
      "d": 1020.833333333343,
      "v": 103
    },
    {
      "midi": 57,
      "hit": false,
      "t": 92010.41666666677,
      "d": 729.1666666666715,
      "v": 92
    },
    {
      "midi": 61,
      "hit": false,
      "t": 92010.41666666677,
      "d": 885.4166666666715,
      "v": 96
    },
    {
      "midi": 42,
      "hit": false,
      "t": 92010.41666666677,
      "d": 1489.583333333343,
      "v": 94
    },
    {
      "midi": 69,
      "hit": false,
      "t": 92010.41666666677,
      "d": 1635.4166666666715,
      "v": 96
    },
    {
      "midi": 56,
      "hit": false,
      "t": 92500.00000000001,
      "d": 833.3333333333285,
      "v": 119
    },
    {
      "midi": 56,
      "hit": false,
      "t": 92531.25000000012,
      "d": 229.16666666665697,
      "v": 95
    },
    {
      "midi": 57,
      "hit": false,
      "t": 92750.00000000001,
      "d": 1104.166666666657,
      "v": 119
    },
    {
      "midi": 57,
      "hit": false,
      "t": 92770.83333333344,
      "d": 479.1666666666715,
      "v": 95
    },
    {
      "midi": 49,
      "hit": false,
      "t": 92968.75000000012,
      "d": 583.3333333333285,
      "v": 76
    },
    {
      "midi": 61,
      "hit": false,
      "t": 93000.00000000012,
      "d": 614.5833333333285,
      "v": 94
    },
    {
      "midi": 64,
      "hit": false,
      "t": 93250.00000000001,
      "d": 583.3333333333285,
      "v": 119
    },
    {
      "midi": 64,
      "hit": false,
      "t": 93250.00000000012,
      "d": 531.25,
      "v": 87
    },
    {
      "midi": 62,
      "hit": false,
      "t": 94000,
      "d": 2020.8333333333285,
      "v": 119
    },
    {
      "midi": 66,
      "hit": false,
      "t": 94000.00000000012,
      "d": 385.4166666666715,
      "v": 98
    },
    {
      "midi": 62,
      "hit": false,
      "t": 94000.00000000012,
      "d": 770.833333333343,
      "v": 111
    },
    {
      "midi": 57,
      "hit": false,
      "t": 94010.41666666679,
      "d": 1718.75,
      "v": 81
    },
    {
      "midi": 47,
      "hit": false,
      "t": 94010.41666666679,
      "d": 1875,
      "v": 90
    },
    {
      "midi": 66,
      "hit": false,
      "t": 94770.83333333346,
      "d": 406.25,
      "v": 102
    },
    {
      "midi": 74,
      "hit": false,
      "t": 94770.83333333346,
      "d": 416.6666666666715,
      "v": 100
    },
    {
      "midi": 62,
      "hit": false,
      "t": 94770.83333333346,
      "d": 479.1666666666715,
      "v": 99
    },
    {
      "midi": 69,
      "hit": false,
      "t": 95250.00000000013,
      "d": 312.5,
      "v": 96
    },
    {
      "midi": 66,
      "hit": false,
      "t": 95250.00000000013,
      "d": 333.3333333333285,
      "v": 86
    },
    {
      "midi": 62,
      "hit": false,
      "t": 95250.00000000013,
      "d": 520.8333333333285,
      "v": 92
    },
    {
      "midi": 62,
      "hit": false,
      "t": 95989.58333333346,
      "d": 177.08333333332848,
      "v": 96
    },
    {
      "midi": 59,
      "hit": false,
      "t": 96000.00000000013,
      "d": 895.8333333333285,
      "v": 87
    },
    {
      "midi": 68,
      "hit": false,
      "t": 96000.00000000013,
      "d": 906.25,
      "v": 96
    },
    {
      "midi": 52,
      "hit": false,
      "t": 96000.00000000013,
      "d": 947.9166666666715,
      "v": 89
    },
    {
      "midi": 64,
      "hit": false,
      "t": 96020.83333333346,
      "d": 885.4166666666715,
      "v": 77
    },
    {
      "midi": 62,
      "hit": false,
      "t": 97000.00000000013,
      "d": 739.5833333333285,
      "v": 99
    },
    {
      "midi": 59,
      "hit": false,
      "t": 97000.00000000013,
      "d": 937.5,
      "v": 95
    },
    {
      "midi": 68,
      "hit": false,
      "t": 97000.00000000013,
      "d": 937.5,
      "v": 96
    },
    {
      "midi": 50,
      "hit": false,
      "t": 97000.00000000013,
      "d": 979.1666666666715,
      "v": 89
    },
    {
      "midi": 59,
      "hit": false,
      "t": 98010.4166666668,
      "d": 1479.166666666657,
      "v": 90
    },
    {
      "midi": 69,
      "hit": false,
      "t": 98010.4166666668,
      "d": 1885.4166666666715,
      "v": 98
    },
    {
      "midi": 61,
      "hit": false,
      "t": 98020.83333333347,
      "d": 281.25,
      "v": 99
    },
    {
      "midi": 49,
      "hit": false,
      "t": 98020.83333333347,
      "d": 1927.0833333333285,
      "v": 96
    },
    {
      "midi": 64,
      "hit": false,
      "t": 98114.58333333347,
      "d": 1614.5833333333285,
      "v": 87
    },
    {
      "midi": 61,
      "hit": false,
      "t": 99010.4166666668,
      "d": 427.0833333333285,
      "v": 102
    },
    {
      "midi": 69,
      "hit": false,
      "t": 99989.58333333347,
      "d": 1572.9166666667006,
      "v": 95
    },
    {
      "midi": 64,
      "hit": false,
      "t": 100000.00000000015,
      "d": 208.33333333334303,
      "v": 98
    },
    {
      "midi": 50,
      "hit": false,
      "t": 100000.00000000015,
      "d": 1520.8333333333576,
      "v": 92
    },
    {
      "midi": 66,
      "hit": false,
      "t": 100072.91666666682,
      "d": 625,
      "v": 86
    },
    {
      "midi": 62,
      "hit": false,
      "t": 100739.58333333349,
      "d": 572.9166666666715,
      "v": 92
    },
    {
      "midi": 64,
      "hit": false,
      "t": 101250.00000000016,
      "d": 260.4166666666715,
      "v": 87
    },
    {
      "midi": 66,
      "hit": false,
      "t": 102000.00000000017,
      "d": 187.5,
      "v": 101
    },
    {
      "midi": 71,
      "hit": false,
      "t": 102000.00000000017,
      "d": 875,
      "v": 99
    },
    {
      "midi": 40,
      "hit": false,
      "t": 102010.41666666685,
      "d": 1468.75,
      "v": 96
    },
    {
      "midi": 68,
      "hit": false,
      "t": 102072.91666666685,
      "d": 697.916666666657,
      "v": 87
    },
    {
      "midi": 64,
      "hit": false,
      "t": 102781.25000000017,
      "d": 125,
      "v": 80
    },
    {
      "midi": 47,
      "hit": false,
      "t": 103020.8333333335,
      "d": 468.75000000001455,
      "v": 75
    },
    {
      "midi": 59,
      "hit": false,
      "t": 103260.41666666685,
      "d": 260.4166666666715,
      "v": 96
    },
    {
      "midi": 64,
      "hit": false,
      "t": 103260.41666666685,
      "d": 302.08333333334303,
      "v": 96
    },
    {
      "midi": 73,
      "hit": false,
      "t": 104000.00000000019,
      "d": 10.416666666671517,
      "v": 96
    },
    {
      "midi": 68,
      "hit": false,
      "t": 104000.00000000019,
      "d": 187.5,
      "v": 96
    },
    {
      "midi": 42,
      "hit": false,
      "t": 104000.00000000019,
      "d": 2708.333333333343,
      "v": 87
    },
    {
      "midi": 73,
      "hit": false,
      "t": 104010.41666666686,
      "d": 572.9166666666715,
      "v": 92
    },
    {
      "midi": 70,
      "hit": false,
      "t": 104187.50000000019,
      "d": 416.6666666666715,
      "v": 78
    },
    {
      "midi": 82,
      "hit": false,
      "t": 104510.41666666686,
      "d": 447.9166666666715,
      "v": 96
    },
    {
      "midi": 80,
      "hit": false,
      "t": 104760.41666666686,
      "d": 916.6666666666715,
      "v": 96
    },
    {
      "midi": 70,
      "hit": false,
      "t": 107750.00000000004,
      "d": 114.58333333332848,
      "v": 88
    },
    {
      "midi": 70,
      "hit": false,
      "t": 107760.41666666667,
      "d": 114.58333333332848,
      "v": 90
    },
    {
      "midi": 69,
      "hit": false,
      "t": 107833.33333333337,
      "d": 125,
      "v": 88
    },
    {
      "midi": 69,
      "hit": false,
      "t": 107843.75,
      "d": 2145.833333333343,
      "v": 90
    },
    {
      "midi": 67,
      "hit": false,
      "t": 107916.6666666667,
      "d": 114.58333333332848,
      "v": 88
    },
    {
      "midi": 65,
      "hit": false,
      "t": 107937.5,
      "d": 2062.5000000000146,
      "v": 90
    },
    {
      "midi": 62,
      "hit": false,
      "t": 108010.41666666667,
      "d": 2010.4166666666715,
      "v": 90
    },
    {
      "midi": 57,
      "hit": false,
      "t": 108010.4166666667,
      "d": 1812.5,
      "v": 77
    },
    {
      "midi": 58,
      "hit": false,
      "t": 108010.4166666667,
      "d": 1812.5,
      "v": 71
    },
    {
      "midi": 62,
      "hit": false,
      "t": 108010.4166666667,
      "d": 1812.5,
      "v": 80
    },
    {
      "midi": 65,
      "hit": false,
      "t": 109270.83333333336,
      "d": 239.58333333332848,
      "v": 86
    },
    {
      "midi": 63,
      "hit": false,
      "t": 109520.83333333336,
      "d": 1354.1666666666715,
      "v": 84
    },
    {
      "midi": 70,
      "hit": false,
      "t": 109781.25000000003,
      "d": 1062.5,
      "v": 86
    },
    {
      "midi": 48,
      "hit": false,
      "t": 110020.83333333337,
      "d": 1302.0833333333285,
      "v": 83
    },
    {
      "midi": 55,
      "hit": false,
      "t": 110270.83333333337,
      "d": 1041.666666666657,
      "v": 70
    },
    {
      "midi": 58,
      "hit": false,
      "t": 110520.83333333337,
      "d": 114.58333333332848,
      "v": 77
    },
    {
      "midi": 60,
      "hit": false,
      "t": 110781.25000000003,
      "d": 62.5,
      "v": 87
    },
    {
      "midi": 63,
      "hit": false,
      "t": 111020.83333333336,
      "d": 312.50000000001455,
      "v": 94
    },
    {
      "midi": 60,
      "hit": false,
      "t": 111510.4166666667,
      "d": 270.83333333334303,
      "v": 80
    },
    {
      "midi": 69,
      "hit": false,
      "t": 111770.83333333337,
      "d": 1958.333333333343,
      "v": 93
    },
    {
      "midi": 60,
      "hit": false,
      "t": 112010.41666666672,
      "d": 656.25,
      "v": 77
    },
    {
      "midi": 57,
      "hit": false,
      "t": 112010.41666666672,
      "d": 760.4166666666715,
      "v": 75
    },
    {
      "midi": 53,
      "hit": false,
      "t": 112010.41666666672,
      "d": 979.1666666666715,
      "v": 77
    },
    {
      "midi": 60,
      "hit": false,
      "t": 112760.41666666672,
      "d": 406.25,
      "v": 86
    },
    {
      "midi": 57,
      "hit": false,
      "t": 113260.41666666672,
      "d": 135.41666666667152,
      "v": 72
    },
    {
      "midi": 72,
      "hit": false,
      "t": 113770.83333333339,
      "d": 1177.0833333333285,
      "v": 98
    },
    {
      "midi": 53,
      "hit": false,
      "t": 114010.41666666672,
      "d": 958.3333333333285,
      "v": 85
    },
    {
      "midi": 58,
      "hit": false,
      "t": 114260.41666666672,
      "d": 312.5,
      "v": 78
    },
    {
      "midi": 62,
      "hit": false,
      "t": 114510.41666666672,
      "d": 208.33333333332848,
      "v": 73
    },
    {
      "midi": 58,
      "hit": false,
      "t": 114760.41666666672,
      "d": 229.16666666665697,
      "v": 83
    },
    {
      "midi": 70,
      "hit": false,
      "t": 115010.4166666667,
      "d": 458.3333333333285,
      "v": 96
    },
    {
      "midi": 65,
      "hit": false,
      "t": 115500.00000000003,
      "d": 166.66666666667152,
      "v": 84
    },
    {
      "midi": 65,
      "hit": false,
      "t": 115750.00000000003,
      "d": 250,
      "v": 83
    },
    {
      "midi": 67,
      "hit": false,
      "t": 115802.08333333336,
      "d": 1489.5833333333285,
      "v": 90
    },
    {
      "midi": 51,
      "hit": false,
      "t": 116010.4166666667,
      "d": 979.166666666657,
      "v": 84
    },
    {
      "midi": 55,
      "hit": false,
      "t": 116260.4166666667,
      "d": 447.9166666666715,
      "v": 75
    },
    {
      "midi": 60,
      "hit": false,
      "t": 116510.4166666667,
      "d": 250,
      "v": 73
    },
    {
      "midi": 65,
      "hit": false,
      "t": 116760.4166666667,
      "d": 83.33333333332848,
      "v": 90
    },
    {
      "midi": 70,
      "hit": false,
      "t": 117270.83333333336,
      "d": 614.5833333333285,
      "v": 95
    },
    {
      "midi": 65,
      "hit": false,
      "t": 118000.00000000001,
      "d": 1979.1666666666715,
      "v": 85
    },
    {
      "midi": 58,
      "hit": false,
      "t": 118020.83333333334,
      "d": 604.1666666666715,
      "v": 77
    },
    {
      "midi": 53,
      "hit": false,
      "t": 118020.83333333334,
      "d": 864.583333333343,
      "v": 75
    },
    {
      "midi": 58,
      "hit": false,
      "t": 118760.41666666669,
      "d": 291.6666666666715,
      "v": 77
    },
    {
      "midi": 53,
      "hit": false,
      "t": 119010.41666666669,
      "d": 250,
      "v": 74
    },
    {
      "midi": 62,
      "hit": false,
      "t": 119260.41666666669,
      "d": 708.3333333333285,
      "v": 88
    },
    {
      "midi": 60,
      "hit": false,
      "t": 120010.41666666669,
      "d": 1197.9166666666715,
      "v": 86
    },
    {
      "midi": 67,
      "hit": false,
      "t": 120010.41666666669,
      "d": 1718.75,
      "v": 86
    },
    {
      "midi": 58,
      "hit": false,
      "t": 120010.41666666669,
      "d": 1906.25,
      "v": 87
    },
    {
      "midi": 60,
      "hit": false,
      "t": 121520.83333333336,
      "d": 291.66666666665697,
      "v": 79
    },
    {
      "midi": 67,
      "hit": false,
      "t": 121781.25000000001,
      "d": 145.83333333334303,
      "v": 78
    },
    {
      "midi": 63,
      "hit": false,
      "t": 121989.58333333336,
      "d": 41.66666666667152,
      "v": 60
    },
    {
      "midi": 58,
      "hit": false,
      "t": 122031.25000000003,
      "d": 718.75,
      "v": 98
    },
    {
      "midi": 63,
      "hit": false,
      "t": 122031.25000000003,
      "d": 770.8333333333285,
      "v": 91
    },
    {
      "midi": 67,
      "hit": false,
      "t": 122031.25000000003,
      "d": 802.0833333333285,
      "v": 96
    },
    {
      "midi": 60,
      "hit": false,
      "t": 123010.41666666669,
      "d": 333.3333333333285,
      "v": 89
    },
    {
      "midi": 65,
      "hit": false,
      "t": 123010.41666666669,
      "d": 333.3333333333285,
      "v": 92
    },
    {
      "midi": 69,
      "hit": false,
      "t": 123010.41666666669,
      "d": 333.3333333333285,
      "v": 90
    },
    {
      "midi": 62,
      "hit": false,
      "t": 123343.75000000001,
      "d": 333.3333333333285,
      "v": 89
    },
    {
      "midi": 67,
      "hit": false,
      "t": 123343.75000000001,
      "d": 333.3333333333285,
      "v": 91
    },
    {
      "midi": 70,
      "hit": false,
      "t": 123343.75000000001,
      "d": 333.3333333333285,
      "v": 89
    },
    {
      "midi": 64,
      "hit": false,
      "t": 123677.08333333334,
      "d": 333.3333333333285,
      "v": 82
    },
    {
      "midi": 69,
      "hit": false,
      "t": 123677.08333333334,
      "d": 333.3333333333285,
      "v": 88
    },
    {
      "midi": 72,
      "hit": false,
      "t": 123677.08333333334,
      "d": 333.3333333333285,
      "v": 92
    },
    {
      "midi": 71,
      "hit": false,
      "t": 124020.83333333334,
      "d": 1739.5833333333285,
      "v": 92
    },
    {
      "midi": 74,
      "hit": false,
      "t": 124020.83333333334,
      "d": 1739.5833333333285,
      "v": 94
    },
    {
      "midi": 67,
      "hit": false,
      "t": 124020.83333333334,
      "d": 1760.416666666657,
      "v": 92
    },
    {
      "midi": 64,
      "hit": false,
      "t": 124510.41666666667,
      "d": 1520.8333333333285,
      "v": 77
    },
    {
      "midi": 66,
      "hit": false,
      "t": 124760.41666666667,
      "d": 1218.75,
      "v": 79
    },
    {
      "midi": 98,
      "hit": false,
      "t": 125750,
      "d": 2083.333333333343,
      "v": 99
    },
    {
      "midi": 74,
      "hit": false,
      "t": 125760.41666666667,
      "d": 1197.9166666666715,
      "v": 95
    },
    {
      "midi": 95,
      "hit": false,
      "t": 125802.08333333333,
      "d": 2031.2500000000146,
      "v": 99
    },
    {
      "midi": 91,
      "hit": false,
      "t": 125875,
      "d": 1958.333333333343,
      "v": 95
    },
    {
      "midi": 86,
      "hit": false,
      "t": 125979.16666666667,
      "d": 1854.1666666666715,
      "v": 90
    },
    {
      "midi": 57,
      "hit": false,
      "t": 126000,
      "d": 2010.4166666666715,
      "v": 85
    },
    {
      "midi": 60,
      "hit": false,
      "t": 126260.41666666667,
      "d": 270.83333333334303,
      "v": 72
    },
    {
      "midi": 64,
      "hit": false,
      "t": 126520.83333333334,
      "d": 260.4166666666715,
      "v": 73
    },
    {
      "midi": 67,
      "hit": false,
      "t": 127010.41666666667,
      "d": 947.9166666666715,
      "v": 80
    },
    {
      "midi": 72,
      "hit": false,
      "t": 127010.41666666667,
      "d": 947.9166666666715,
      "v": 80
    },
    {
      "midi": 76,
      "hit": false,
      "t": 127010.41666666667,
      "d": 947.9166666666715,
      "v": 84
    },
    {
      "midi": 50,
      "hit": false,
      "t": 128010.41666666667,
      "d": 812.5,
      "v": 86
    },
    {
      "midi": 69,
      "hit": false,
      "t": 128010.41666666667,
      "d": 947.9166666666715,
      "v": 94
    },
    {
      "midi": 57,
      "hit": false,
      "t": 128260.41666666667,
      "d": 750,
      "v": 71
    },
    {
      "midi": 62,
      "hit": false,
      "t": 128510.41666666667,
      "d": 260.4166666666715,
      "v": 77
    },
    {
      "midi": 64,
      "hit": false,
      "t": 128770.83333333334,
      "d": 270.8333333333285,
      "v": 70
    },
    {
      "midi": 69,
      "hit": false,
      "t": 129010.41666666667,
      "d": 197.91666666667152,
      "v": 89
    },
    {
      "midi": 48,
      "hit": false,
      "t": 129010.41666666667,
      "d": 802.0833333333139,
      "v": 92
    },
    {
      "midi": 71,
      "hit": false,
      "t": 129260.41666666667,
      "d": 197.91666666667152,
      "v": 93
    },
    {
      "midi": 72,
      "hit": false,
      "t": 129510.41666666667,
      "d": 197.91666666665697,
      "v": 92
    },
    {
      "midi": 57,
      "hit": false,
      "t": 129531.25,
      "d": 249.99999999998545,
      "v": 42
    },
    {
      "midi": 62,
      "hit": false,
      "t": 129760.41666666666,
      "d": 250,
      "v": 73
    },
    {
      "midi": 74,
      "hit": false,
      "t": 129760.41666666666,
      "d": 1197.9166666666715,
      "v": 92
    },
    {
      "midi": 47,
      "hit": false,
      "t": 130010.41666666666,
      "d": 1864.583333333343,
      "v": 89
    },
    {
      "midi": 55,
      "hit": false,
      "t": 130270.83333333333,
      "d": 260.4166666666715,
      "v": 75
    },
    {
      "midi": 62,
      "hit": false,
      "t": 130520.83333333333,
      "d": 281.25,
      "v": 92
    },
    {
      "midi": 59,
      "hit": false,
      "t": 130781.25,
      "d": 947.916666666657,
      "v": 69
    },
    {
      "midi": 74,
      "hit": false,
      "t": 131010.41666666666,
      "d": 270.83333333334303,
      "v": 89
    },
    {
      "midi": 79,
      "hit": false,
      "t": 131260.41666666666,
      "d": 406.25,
      "v": 92
    },
    {
      "midi": 74,
      "hit": false,
      "t": 131520.83333333334,
      "d": 135.41666666665697,
      "v": 81
    },
    {
      "midi": 62,
      "hit": false,
      "t": 131750,
      "d": 354.16666666665697,
      "v": 79
    },
    {
      "midi": 74,
      "hit": false,
      "t": 131760.41666666666,
      "d": 145.83333333334303,
      "v": 92
    },
    {
      "midi": 79,
      "hit": false,
      "t": 131760.41666666666,
      "d": 2364.583333333314,
      "v": 96
    },
    {
      "midi": 76,
      "hit": false,
      "t": 131854.16666666666,
      "d": 2260.416666666657,
      "v": 81
    },
    {
      "midi": 48,
      "hit": false,
      "t": 132010.41666666666,
      "d": 1906.249999999971,
      "v": 94
    },
    {
      "midi": 55,
      "hit": false,
      "t": 132260.41666666666,
      "d": 1729.1666666666279,
      "v": 71
    },
    {
      "midi": 60,
      "hit": false,
      "t": 132510.41666666666,
      "d": 781.25,
      "v": 80
    },
    {
      "midi": 64,
      "hit": false,
      "t": 132770.8333333333,
      "d": 458.33333333334303,
      "v": 84
    },
    {
      "midi": 62,
      "hit": false,
      "t": 133260.41666666666,
      "d": 135.41666666665697,
      "v": 86
    },
    {
      "midi": 62,
      "hit": false,
      "t": 133499.99999999997,
      "d": 93.75,
      "v": 89
    },
    {
      "midi": 64,
      "hit": false,
      "t": 133520.8333333333,
      "d": 239.58333333331393,
      "v": 80
    },
    {
      "midi": 62,
      "hit": false,
      "t": 133760.41666666663,
      "d": 302.08333333334303,
      "v": 78
    },
    {
      "midi": 59,
      "hit": false,
      "t": 134010.41666666663,
      "d": 750.0000000000291,
      "v": 77
    },
    {
      "midi": 74,
      "hit": false,
      "t": 134010.41666666663,
      "d": 1666.666666666686,
      "v": 84
    },
    {
      "midi": 47,
      "hit": false,
      "t": 134270.8333333333,
      "d": 1656.25,
      "v": 89
    },
    {
      "midi": 62,
      "hit": false,
      "t": 134760.41666666666,
      "d": 1114.583333333314,
      "v": 86
    },
    {
      "midi": 55,
      "hit": false,
      "t": 135999.99999999997,
      "d": 781.25,
      "v": 88
    },
    {
      "midi": 60,
      "hit": false,
      "t": 135999.99999999997,
      "d": 791.666666666657,
      "v": 90
    },
    {
      "midi": 64,
      "hit": false,
      "t": 135999.99999999997,
      "d": 843.75,
      "v": 87
    },
    {
      "midi": 50,
      "hit": false,
      "t": 135999.99999999997,
      "d": 1500,
      "v": 89
    },
    {
      "midi": 67,
      "hit": false,
      "t": 137031.24999999997,
      "d": 364.58333333334303,
      "v": 72
    },
    {
      "midi": 72,
      "hit": false,
      "t": 137031.24999999997,
      "d": 375,
      "v": 79
    },
    {
      "midi": 76,
      "hit": false,
      "t": 137031.24999999997,
      "d": 385.41666666665697,
      "v": 86
    },
    {
      "midi": 69,
      "hit": false,
      "t": 140010.41666666663,
      "d": 260.41666666668607,
      "v": 77
    },
    {
      "midi": 65,
      "hit": false,
      "t": 140010.41666666663,
      "d": 1906.250000000029,
      "v": 71
    },
    {
      "midi": 74,
      "hit": false,
      "t": 140010.41666666663,
      "d": 1916.666666666686,
      "v": 83
    },
    {
      "midi": 58,
      "hit": false,
      "t": 140010.41666666663,
      "d": 1989.583333333343,
      "v": 78
    },
    {
      "midi": 70,
      "hit": false,
      "t": 140249.99999999997,
      "d": 1677.083333333343,
      "v": 73
    },
    {
      "midi": 57,
      "hit": false,
      "t": 140260.4166666667,
      "d": 1958.333333333343,
      "v": 127
    },
    {
      "midi": 58,
      "hit": false,
      "t": 140500.00000000003,
      "d": 1718.75,
      "v": 127
    },
    {
      "midi": 65,
      "hit": false,
      "t": 140750.00000000003,
      "d": 1510.416666666657,
      "v": 127
    },
    {
      "midi": 69,
      "hit": false,
      "t": 141520.8333333333,
      "d": 395.83333333334303,
      "v": 68
    },
    {
      "midi": 69,
      "hit": false,
      "t": 141999.99999999997,
      "d": 1489.583333333314,
      "v": 81
    },
    {
      "midi": 65,
      "hit": false,
      "t": 141999.99999999997,
      "d": 1520.833333333314,
      "v": 78
    },
    {
      "midi": 72,
      "hit": false,
      "t": 141999.99999999997,
      "d": 1531.249999999971,
      "v": 85
    },
    {
      "midi": 57,
      "hit": false,
      "t": 141999.99999999997,
      "d": 1895.833333333314,
      "v": 79
    },
    {
      "midi": 55,
      "hit": false,
      "t": 142250.00000000003,
      "d": 322.91666666668607,
      "v": 127
    },
    {
      "midi": 60,
      "hit": false,
      "t": 142500.00000000003,
      "d": 1927.083333333343,
      "v": 127
    },
    {
      "midi": 65,
      "hit": false,
      "t": 142520.83333333337,
      "d": 1937.5,
      "v": 119
    },
    {
      "midi": 77,
      "hit": false,
      "t": 142999.99999999997,
      "d": 479.16666666665697,
      "v": 89
    },
    {
      "midi": 70,
      "hit": false,
      "t": 143999.99999999994,
      "d": 572.916666666657,
      "v": 87
    },
    {
      "midi": 74,
      "hit": false,
      "t": 143999.99999999994,
      "d": 593.75,
      "v": 89
    },
    {
      "midi": 67,
      "hit": false,
      "t": 143999.99999999994,
      "d": 614.583333333343,
      "v": 84
    },
    {
      "midi": 55,
      "hit": false,
      "t": 144010.4166666666,
      "d": 541.666666666657,
      "v": 76
    },
    {
      "midi": 74,
      "hit": false,
      "t": 144999.99999999994,
      "d": 802.0833333333139,
      "v": 91
    },
    {
      "midi": 67,
      "hit": false,
      "t": 144999.99999999994,
      "d": 833.3333333333139,
      "v": 87
    },
    {
      "midi": 52,
      "hit": false,
      "t": 145010.4166666666,
      "d": 822.916666666657,
      "v": 64
    },
    {
      "midi": 59,
      "hit": false,
      "t": 145010.4166666666,
      "d": 885.416666666657,
      "v": 70
    },
    {
      "midi": 62,
      "hit": false,
      "t": 145010.4166666666,
      "d": 895.8333333333139,
      "v": 76
    },
    {
      "midi": 67,
      "hit": false,
      "t": 145989.58333333326,
      "d": 177.08333333334303,
      "v": 92
    },
    {
      "midi": 72,
      "hit": false,
      "t": 145989.58333333326,
      "d": 1937.5,
      "v": 90
    },
    {
      "midi": 53,
      "hit": false,
      "t": 146010.4166666666,
      "d": 2000,
      "v": 73
    },
    {
      "midi": 69,
      "hit": false,
      "t": 146031.24999999994,
      "d": 927.0833333333139,
      "v": 71
    },
    {
      "midi": 67,
      "hit": false,
      "t": 147010.4166666666,
      "d": 947.916666666657,
      "v": 89
    },
    {
      "midi": 64,
      "hit": false,
      "t": 148010.4166666666,
      "d": 1854.166666666657,
      "v": 80
    },
    {
      "midi": 72,
      "hit": false,
      "t": 148010.4166666666,
      "d": 1875,
      "v": 88
    },
    {
      "midi": 67,
      "hit": false,
      "t": 148010.4166666666,
      "d": 1906.25,
      "v": 81
    },
    {
      "midi": 60,
      "hit": false,
      "t": 148020.83333333326,
      "d": 1906.25,
      "v": 82
    },
    {
      "midi": 59,
      "hit": false,
      "t": 148250.00000000003,
      "d": 1937.5,
      "v": 127
    },
    {
      "midi": 60,
      "hit": false,
      "t": 148500.00000000003,
      "d": 1781.25,
      "v": 122
    },
    {
      "midi": 67,
      "hit": false,
      "t": 148750.00000000003,
      "d": 1583.333333333343,
      "v": 122
    },
    {
      "midi": 59,
      "hit": false,
      "t": 149989.58333333326,
      "d": 1718.749999999971,
      "v": 76
    },
    {
      "midi": 67,
      "hit": false,
      "t": 149989.58333333326,
      "d": 1770.833333333314,
      "v": 83
    },
    {
      "midi": 71,
      "hit": false,
      "t": 149999.9999999999,
      "d": 927.083333333343,
      "v": 87
    },
    {
      "midi": 62,
      "hit": false,
      "t": 149999.9999999999,
      "d": 1697.916666666657,
      "v": 84
    },
    {
      "midi": 57,
      "hit": false,
      "t": 150250.00000000003,
      "d": 322.91666666665697,
      "v": 122
    },
    {
      "midi": 62,
      "hit": false,
      "t": 150500.00000000003,
      "d": 1989.583333333314,
      "v": 110
    },
    {
      "midi": 67,
      "hit": false,
      "t": 150510.4166666667,
      "d": 1979.166666666657,
      "v": 122
    },
    {
      "midi": 74,
      "hit": false,
      "t": 150989.58333333326,
      "d": 718.7499999999709,
      "v": 90
    },
    {
      "midi": 71,
      "hit": false,
      "t": 151968.7499999999,
      "d": 1875,
      "v": 96
    },
    {
      "midi": 68,
      "hit": false,
      "t": 151979.16666666657,
      "d": 1864.583333333343,
      "v": 81
    },
    {
      "midi": 64,
      "hit": false,
      "t": 151979.16666666657,
      "d": 1885.416666666686,
      "v": 87
    },
    {
      "midi": 54,
      "hit": false,
      "t": 151989.58333333323,
      "d": 1833.333333333343,
      "v": 78
    },
    {
      "midi": 47,
      "hit": false,
      "t": 153999.99999999994,
      "d": 624.9999999999709,
      "v": 92
    },
    {
      "midi": 71,
      "hit": false,
      "t": 154010.4166666666,
      "d": 885.416666666657,
      "v": 91
    },
    {
      "midi": 64,
      "hit": false,
      "t": 154010.4166666666,
      "d": 895.8333333333139,
      "v": 80
    },
    {
      "midi": 66,
      "hit": false,
      "t": 156000,
      "d": 687.5,
      "v": 113
    },
    {
      "midi": 63,
      "hit": false,
      "t": 156000,
      "d": 697.916666666657,
      "v": 107
    },
    {
      "midi": 59,
      "hit": false,
      "t": 156010.41666666657,
      "d": 656.25,
      "v": 89
    },
    {
      "midi": 66,
      "hit": false,
      "t": 156010.41666666657,
      "d": 656.25,
      "v": 97
    },
    {
      "midi": 63,
      "hit": false,
      "t": 156020.83333333323,
      "d": 666.6666666666861,
      "v": 94
    },
    {
      "midi": 64,
      "hit": false,
      "t": 156760.41666666666,
      "d": 854.166666666657,
      "v": 107
    },
    {
      "midi": 68,
      "hit": false,
      "t": 156760.41666666666,
      "d": 875,
      "v": 116
    },
    {
      "midi": 59,
      "hit": false,
      "t": 156770.83333333326,
      "d": 885.416666666657,
      "v": 94
    },
    {
      "midi": 64,
      "hit": false,
      "t": 156770.83333333326,
      "d": 895.8333333333139,
      "v": 94
    },
    {
      "midi": 52,
      "hit": false,
      "t": 156770.83333333326,
      "d": 958.3333333333139,
      "v": 95
    },
    {
      "midi": 68,
      "hit": false,
      "t": 156781.2499999999,
      "d": 875,
      "v": 94
    },
    {
      "midi": 63,
      "hit": false,
      "t": 157750,
      "d": 729.166666666657,
      "v": 122
    },
    {
      "midi": 66,
      "hit": false,
      "t": 157750,
      "d": 729.166666666657,
      "v": 113
    },
    {
      "midi": 59,
      "hit": false,
      "t": 157770.83333333323,
      "d": 322.91666666665697,
      "v": 89
    },
    {
      "midi": 66,
      "hit": false,
      "t": 157770.83333333323,
      "d": 333.33333333331393,
      "v": 98
    },
    {
      "midi": 63,
      "hit": false,
      "t": 157781.24999999988,
      "d": 322.91666666665697,
      "v": 92
    },
    {
      "midi": 63,
      "hit": false,
      "t": 158260.41666666654,
      "d": 62.5,
      "v": 89
    },
    {
      "midi": 59,
      "hit": false,
      "t": 158260.41666666654,
      "d": 72.91666666665697,
      "v": 83
    },
    {
      "midi": 66,
      "hit": false,
      "t": 158260.41666666654,
      "d": 83.33333333331393,
      "v": 92
    },
    {
      "midi": 64,
      "hit": false,
      "t": 158489.5833333333,
      "d": 1531.25,
      "v": 104
    },
    {
      "midi": 68,
      "hit": false,
      "t": 158489.5833333333,
      "d": 1531.25,
      "v": 107
    },
    {
      "midi": 59,
      "hit": false,
      "t": 158510.4166666665,
      "d": 1375,
      "v": 94
    },
    {
      "midi": 64,
      "hit": false,
      "t": 158510.4166666665,
      "d": 1395.833333333343,
      "v": 94
    },
    {
      "midi": 68,
      "hit": false,
      "t": 158510.4166666665,
      "d": 1406.25,
      "v": 97
    },
    {
      "midi": 52,
      "hit": false,
      "t": 158510.4166666665,
      "d": 1479.166666666657,
      "v": 94
    },
    {
      "midi": 54,
      "hit": false,
      "t": 160010.4166666665,
      "d": 1718.75,
      "v": 89
    },
    {
      "midi": 66,
      "hit": false,
      "t": 160010.4166666665,
      "d": 1750,
      "v": 96
    },
    {
      "midi": 57,
      "hit": false,
      "t": 160010.4166666665,
      "d": 1781.25,
      "v": 79
    },
    {
      "midi": 61,
      "hit": false,
      "t": 161031.24999999985,
      "d": 739.5833333333139,
      "v": 96
    },
    {
      "midi": 64,
      "hit": false,
      "t": 161999.99999999985,
      "d": 947.9166666666279,
      "v": 94
    },
    {
      "midi": 60,
      "hit": false,
      "t": 161999.99999999985,
      "d": 1812.4999999997963,
      "v": 94
    },
    {
      "midi": 54,
      "hit": false,
      "t": 162010.4166666665,
      "d": 1041.6666666666279,
      "v": 73
    },
    {
      "midi": 96,
      "hit": false,
      "t": 162749.99999999983,
      "d": 135.41666666665697,
      "v": 80
    },
    {
      "midi": 95,
      "hit": false,
      "t": 162822.91666666648,
      "d": 93.75,
      "v": 79
    },
    {
      "midi": 93,
      "hit": false,
      "t": 162906.24999999983,
      "d": 52.08333333331393,
      "v": 79
    },
    {
      "midi": 91,
      "hit": false,
      "t": 162937.49999999983,
      "d": 52.08333333331393,
      "v": 78
    },
    {
      "midi": 89,
      "hit": false,
      "t": 162979.16666666648,
      "d": 41.666666666656965,
      "v": 77
    },
    {
      "midi": 88,
      "hit": false,
      "t": 163010.41666666648,
      "d": 52.08333333331393,
      "v": 77
    },
    {
      "midi": 86,
      "hit": false,
      "t": 163052.08333333314,
      "d": 52.08333333331393,
      "v": 76
    },
    {
      "midi": 84,
      "hit": false,
      "t": 163093.7499999998,
      "d": 62.499999999970896,
      "v": 75
    },
    {
      "midi": 83,
      "hit": false,
      "t": 163145.8333333331,
      "d": 62.5,
      "v": 75
    },
    {
      "midi": 81,
      "hit": false,
      "t": 163187.49999999977,
      "d": 72.91666666665697,
      "v": 74
    },
    {
      "midi": 79,
      "hit": false,
      "t": 163249.99999999977,
      "d": 62.499999999970896,
      "v": 73
    },
    {
      "midi": 77,
      "hit": false,
      "t": 163302.08333333308,
      "d": 52.08333333331393,
      "v": 72
    },
    {
      "midi": 76,
      "hit": false,
      "t": 163354.1666666664,
      "d": 52.08333333331393,
      "v": 71
    },
    {
      "midi": 74,
      "hit": false,
      "t": 163395.83333333305,
      "d": 52.08333333331393,
      "v": 68
    },
    {
      "midi": 72,
      "hit": false,
      "t": 163447.91666666637,
      "d": 52.08333333331393,
      "v": 65
    },
    {
      "midi": 71,
      "hit": false,
      "t": 163489.58333333302,
      "d": 62.499999999970896,
      "v": 64
    },
    {
      "midi": 69,
      "hit": false,
      "t": 163541.66666666634,
      "d": 62.499999999970896,
      "v": 61
    },
    {
      "midi": 67,
      "hit": false,
      "t": 163593.74999999965,
      "d": 62.5,
      "v": 58
    },
    {
      "midi": 65,
      "hit": false,
      "t": 163656.24999999965,
      "d": 52.08333333331393,
      "v": 55
    },
    {
      "midi": 64,
      "hit": false,
      "t": 163697.9166666663,
      "d": 62.5,
      "v": 54
    },
    {
      "midi": 62,
      "hit": false,
      "t": 163760.4166666663,
      "d": 62.5,
      "v": 51
    },
    {
      "midi": 60,
      "hit": false,
      "t": 163812.49999999965,
      "d": 72.91666666665697,
      "v": 48
    },
    {
      "midi": 59,
      "hit": false,
      "t": 163864.58333333296,
      "d": 62.5,
      "v": 47
    },
    {
      "midi": 57,
      "hit": false,
      "t": 163916.6666666663,
      "d": 62.499999999970896,
      "v": 44
    },
    {
      "midi": 60,
      "hit": false,
      "t": 164010.41666666683,
      "d": 1656.25,
      "v": 95
    },
    {
      "midi": 63,
      "hit": false,
      "t": 164010.41666666683,
      "d": 1718.75,
      "v": 100
    },
    {
      "midi": 68,
      "hit": false,
      "t": 164010.41666666683,
      "d": 1812.5,
      "v": 104
    },
    {
      "midi": 55,
      "hit": false,
      "t": 164499.99999999997,
      "d": 625,
      "v": 118
    },
    {
      "midi": 56,
      "hit": false,
      "t": 164760.41666666663,
      "d": 2000.000000000029,
      "v": 107
    },
    {
      "midi": 63,
      "hit": false,
      "t": 165239.5833333333,
      "d": 739.583333333343,
      "v": 118
    },
    {
      "midi": 61,
      "hit": false,
      "t": 165989.5833333333,
      "d": 1531.25,
      "v": 116
    },
    {
      "midi": 73,
      "hit": false,
      "t": 166000.00000000017,
      "d": 697.916666666657,
      "v": 108
    },
    {
      "midi": 61,
      "hit": false,
      "t": 166000.00000000017,
      "d": 718.75,
      "v": 101
    },
    {
      "midi": 65,
      "hit": false,
      "t": 166000.00000000017,
      "d": 729.166666666657,
      "v": 100
    },
    {
      "midi": 61,
      "hit": false,
      "t": 166770.8333333335,
      "d": 364.58333333334303,
      "v": 98
    },
    {
      "midi": 70,
      "hit": false,
      "t": 166770.8333333335,
      "d": 364.58333333334303,
      "v": 105
    },
    {
      "midi": 65,
      "hit": false,
      "t": 166781.25000000015,
      "d": 302.08333333334303,
      "v": 99
    },
    {
      "midi": 60,
      "hit": false,
      "t": 167260.41666666683,
      "d": 312.5,
      "v": 98
    },
    {
      "midi": 68,
      "hit": false,
      "t": 167260.41666666683,
      "d": 385.41666666665697,
      "v": 102
    },
    {
      "midi": 63,
      "hit": false,
      "t": 167260.41666666683,
      "d": 395.83333333331393,
      "v": 101
    },
    {
      "midi": 67,
      "hit": false,
      "t": 167750.00000000015,
      "d": 1208.333333333314,
      "v": 100
    },
    {
      "midi": 58,
      "hit": false,
      "t": 167760.4166666668,
      "d": 1197.916666666657,
      "v": 102
    },
    {
      "midi": 63,
      "hit": false,
      "t": 167760.4166666668,
      "d": 1197.916666666657,
      "v": 92
    },
    {
      "midi": 58,
      "hit": false,
      "t": 169010.4166666668,
      "d": 802.0833333333139,
      "v": 92
    },
    {
      "midi": 67,
      "hit": false,
      "t": 169010.4166666668,
      "d": 895.8333333333139,
      "v": 87
    },
    {
      "midi": 61,
      "hit": false,
      "t": 169020.83333333346,
      "d": 812.5,
      "v": 97
    },
    {
      "midi": 60,
      "hit": false,
      "t": 170020.83333333346,
      "d": 885.416666666657,
      "v": 93
    },
    {
      "midi": 70,
      "hit": false,
      "t": 170020.83333333346,
      "d": 906.25,
      "v": 104
    },
    {
      "midi": 63,
      "hit": false,
      "t": 170020.83333333346,
      "d": 916.666666666657,
      "v": 105
    },
    {
      "midi": 63,
      "hit": false,
      "t": 171020.83333333346,
      "d": 854.166666666657,
      "v": 98
    },
    {
      "midi": 68,
      "hit": false,
      "t": 171020.83333333346,
      "d": 864.5833333333139,
      "v": 104
    },
    {
      "midi": 60,
      "hit": false,
      "t": 171020.83333333346,
      "d": 885.416666666657,
      "v": 98
    },
    {
      "midi": 56,
      "hit": false,
      "t": 172010.41666666677,
      "d": 1593.75,
      "v": 94
    },
    {
      "midi": 65,
      "hit": false,
      "t": 172010.41666666677,
      "d": 1593.75,
      "v": 96
    },
    {
      "midi": 61,
      "hit": false,
      "t": 172010.41666666677,
      "d": 1635.416666666657,
      "v": 95
    },
    {
      "midi": 56,
      "hit": false,
      "t": 173750.0000000001,
      "d": 239.58333333331393,
      "v": 97
    },
    {
      "midi": 65,
      "hit": false,
      "t": 173750.0000000001,
      "d": 2177.083333333314,
      "v": 96
    },
    {
      "midi": 61,
      "hit": false,
      "t": 173760.41666666674,
      "d": 250,
      "v": 93
    },
    {
      "midi": 55,
      "hit": false,
      "t": 174010.41666666674,
      "d": 1656.25,
      "v": 93
    },
    {
      "midi": 59,
      "hit": false,
      "t": 174010.41666666674,
      "d": 1656.25,
      "v": 93
    },
    {
      "midi": 59,
      "hit": false,
      "t": 175750.0000000001,
      "d": 177.08333333331393,
      "v": 77
    },
    {
      "midi": 55,
      "hit": false,
      "t": 175760.41666666674,
      "d": 208.33333333331393,
      "v": 81
    },
    {
      "midi": 55,
      "hit": false,
      "t": 176010.41666666672,
      "d": 1864.583333333314,
      "v": 93
    },
    {
      "midi": 58,
      "hit": false,
      "t": 176020.83333333337,
      "d": 218.75,
      "v": 102
    },
    {
      "midi": 64,
      "hit": false,
      "t": 176020.83333333337,
      "d": 1875,
      "v": 104
    },
    {
      "midi": 60,
      "hit": false,
      "t": 176239.58333333337,
      "d": 1739.583333333343,
      "v": 82
    },
    {
      "midi": 53,
      "hit": false,
      "t": 178010.41666666672,
      "d": 781.25,
      "v": 98
    },
    {
      "midi": 58,
      "hit": false,
      "t": 178010.41666666672,
      "d": 854.166666666657,
      "v": 99
    },
    {
      "midi": 62,
      "hit": false,
      "t": 178010.41666666672,
      "d": 875,
      "v": 96
    },
    {
      "midi": 55,
      "hit": false,
      "t": 179000.00000000006,
      "d": 1000,
      "v": 100
    },
    {
      "midi": 60,
      "hit": false,
      "t": 179000.00000000006,
      "d": 1000,
      "v": 104
    },
    {
      "midi": 64,
      "hit": false,
      "t": 179000.00000000006,
      "d": 1020.8333333333139,
      "v": 103
    },
    {
      "midi": 61,
      "hit": false,
      "t": 180010.41666666672,
      "d": 885.416666666657,
      "v": 96
    },
    {
      "midi": 42,
      "hit": false,
      "t": 180010.41666666672,
      "d": 1489.583333333314,
      "v": 94
    },
    {
      "midi": 57,
      "hit": false,
      "t": 180010.41666666672,
      "d": 1552.083333333314,
      "v": 92
    },
    {
      "midi": 69,
      "hit": false,
      "t": 180010.41666666672,
      "d": 1635.416666666657,
      "v": 96
    },
    {
      "midi": 49,
      "hit": false,
      "t": 180968.75000000003,
      "d": 583.333333333343,
      "v": 76
    },
    {
      "midi": 61,
      "hit": false,
      "t": 181000.00000000003,
      "d": 614.583333333343,
      "v": 94
    },
    {
      "midi": 62,
      "hit": false,
      "t": 182000.00000000003,
      "d": 364.58333333331393,
      "v": 98
    },
    {
      "midi": 66,
      "hit": false,
      "t": 182000.00000000003,
      "d": 385.41666666665697,
      "v": 98
    },
    {
      "midi": 57,
      "hit": false,
      "t": 182010.4166666667,
      "d": 1718.75,
      "v": 81
    },
    {
      "midi": 47,
      "hit": false,
      "t": 182010.4166666667,
      "d": 1875,
      "v": 90
    },
    {
      "midi": 62,
      "hit": false,
      "t": 182770.83333333334,
      "d": 395.83333333334303,
      "v": 99
    },
    {
      "midi": 66,
      "hit": false,
      "t": 182770.83333333334,
      "d": 406.25,
      "v": 102
    },
    {
      "midi": 74,
      "hit": false,
      "t": 182770.83333333334,
      "d": 416.66666666665697,
      "v": 100
    },
    {
      "midi": 62,
      "hit": false,
      "t": 183250,
      "d": 312.5,
      "v": 92
    },
    {
      "midi": 69,
      "hit": false,
      "t": 183250,
      "d": 312.5,
      "v": 96
    },
    {
      "midi": 66,
      "hit": false,
      "t": 183250,
      "d": 333.33333333334303,
      "v": 86
    },
    {
      "midi": 62,
      "hit": false,
      "t": 183989.58333333334,
      "d": 177.08333333334303,
      "v": 96
    },
    {
      "midi": 59,
      "hit": false,
      "t": 184000,
      "d": 895.833333333343,
      "v": 87
    },
    {
      "midi": 68,
      "hit": false,
      "t": 184000,
      "d": 906.25,
      "v": 96
    },
    {
      "midi": 52,
      "hit": false,
      "t": 184000,
      "d": 947.916666666657,
      "v": 89
    },
    {
      "midi": 64,
      "hit": false,
      "t": 184020.83333333334,
      "d": 885.416666666657,
      "v": 77
    },
    {
      "midi": 62,
      "hit": false,
      "t": 185000,
      "d": 739.583333333343,
      "v": 99
    },
    {
      "midi": 59,
      "hit": false,
      "t": 185000,
      "d": 937.5,
      "v": 95
    },
    {
      "midi": 68,
      "hit": false,
      "t": 185000,
      "d": 937.5,
      "v": 96
    },
    {
      "midi": 50,
      "hit": false,
      "t": 185000,
      "d": 979.166666666657,
      "v": 89
    },
    {
      "midi": 59,
      "hit": false,
      "t": 186010.41666666666,
      "d": 1479.166666666686,
      "v": 90
    },
    {
      "midi": 69,
      "hit": false,
      "t": 186010.41666666666,
      "d": 1885.416666666657,
      "v": 98
    },
    {
      "midi": 61,
      "hit": false,
      "t": 186020.8333333333,
      "d": 281.25,
      "v": 99
    },
    {
      "midi": 49,
      "hit": false,
      "t": 186020.8333333333,
      "d": 1927.083333333343,
      "v": 96
    },
    {
      "midi": 64,
      "hit": false,
      "t": 186114.5833333333,
      "d": 1614.583333333343,
      "v": 87
    },
    {
      "midi": 61,
      "hit": false,
      "t": 187010.41666666666,
      "d": 427.08333333334303,
      "v": 102
    },
    {
      "midi": 69,
      "hit": false,
      "t": 187989.5833333333,
      "d": 1572.916666666657,
      "v": 95
    },
    {
      "midi": 64,
      "hit": false,
      "t": 187999.99999999997,
      "d": 208.33333333331393,
      "v": 98
    },
    {
      "midi": 62,
      "hit": false,
      "t": 188010.41666666663,
      "d": 572.916666666657,
      "v": 92
    },
    {
      "midi": 66,
      "hit": false,
      "t": 188072.91666666663,
      "d": 625,
      "v": 86
    },
    {
      "midi": 64,
      "hit": false,
      "t": 189010.41666666663,
      "d": 260.41666666665697,
      "v": 87
    },
    {
      "midi": 66,
      "hit": false,
      "t": 189999.99999999997,
      "d": 187.5,
      "v": 101
    },
    {
      "midi": 71,
      "hit": false,
      "t": 189999.99999999997,
      "d": 875,
      "v": 99
    },
    {
      "midi": 68,
      "hit": false,
      "t": 190072.91666666663,
      "d": 697.9166666666861,
      "v": 87
    },
    {
      "midi": 64,
      "hit": false,
      "t": 190781.24999999997,
      "d": 125,
      "v": 80
    },
    {
      "midi": 47,
      "hit": false,
      "t": 191020.8333333333,
      "d": 468.7499999999709,
      "v": 75
    },
    {
      "midi": 59,
      "hit": false,
      "t": 191260.41666666663,
      "d": 260.41666666665697,
      "v": 96
    },
    {
      "midi": 64,
      "hit": false,
      "t": 191260.41666666663,
      "d": 302.08333333331393,
      "v": 96
    },
    {
      "midi": 42,
      "hit": false,
      "t": 192010.4166666666,
      "d": 1447.916666666657,
      "v": 87
    },
    {
      "midi": 66,
      "hit": false,
      "t": 192010.4166666666,
      "d": 1489.583333333314,
      "v": 92
    },
    {
      "midi": 61,
      "hit": false,
      "t": 192010.4166666666,
      "d": 1510.416666666657,
      "v": 92
    },
    {
      "midi": 70,
      "hit": false,
      "t": 192010.4166666666,
      "d": 1510.416666666657,
      "v": 93
    },
    {
      "midi": 61,
      "hit": false,
      "t": 194010.4166666666,
      "d": 468.75,
      "v": 98
    },
    {
      "midi": 65,
      "hit": false,
      "t": 194010.4166666666,
      "d": 468.75,
      "v": 94
    },
    {
      "midi": 68,
      "hit": false,
      "t": 194010.4166666666,
      "d": 468.75,
      "v": 98
    },
    {
      "midi": 53,
      "hit": false,
      "t": 194010.4166666666,
      "d": 1552.083333333343,
      "v": 98
    },
    {
      "midi": 68,
      "hit": false,
      "t": 194531.24999999994,
      "d": 177.08333333334303,
      "v": 101
    },
    {
      "midi": 56,
      "hit": false,
      "t": 194531.24999999994,
      "d": 208.33333333334303,
      "v": 100
    },
    {
      "midi": 70,
      "hit": false,
      "t": 194770.83333333328,
      "d": 208.33333333334303,
      "v": 92
    },
    {
      "midi": 58,
      "hit": false,
      "t": 194770.83333333328,
      "d": 229.16666666668607,
      "v": 84
    },
    {
      "midi": 61,
      "hit": false,
      "t": 194999.99999999997,
      "d": 10.416666666656965,
      "v": 98
    },
    {
      "midi": 65,
      "hit": false,
      "t": 194999.99999999997,
      "d": 614.5833333332848,
      "v": 96
    },
    {
      "midi": 73,
      "hit": false,
      "t": 195010.41666666663,
      "d": 468.75,
      "v": 97
    },
    {
      "midi": 61,
      "hit": false,
      "t": 195010.41666666663,
      "d": 593.7499999999709,
      "v": 93
    },
    {
      "midi": 75,
      "hit": false,
      "t": 195510.41666666663,
      "d": 510.41666666662786,
      "v": 109
    },
    {
      "midi": 63,
      "hit": false,
      "t": 195520.83333333328,
      "d": 489.58333333331393,
      "v": 104
    },
    {
      "midi": 63,
      "hit": false,
      "t": 196010.4166666666,
      "d": 895.8333333333139,
      "v": 102
    },
    {
      "midi": 70,
      "hit": false,
      "t": 196010.4166666666,
      "d": 895.8333333333139,
      "v": 102
    },
    {
      "midi": 51,
      "hit": false,
      "t": 196010.4166666666,
      "d": 906.2499999999709,
      "v": 97
    },
    {
      "midi": 66,
      "hit": false,
      "t": 196010.4166666666,
      "d": 927.0833333333139,
      "v": 92
    },
    {
      "midi": 63,
      "hit": false,
      "t": 197010.41666666657,
      "d": 760.416666666657,
      "v": 102
    },
    {
      "midi": 70,
      "hit": false,
      "t": 197010.41666666657,
      "d": 843.75,
      "v": 103
    },
    {
      "midi": 49,
      "hit": false,
      "t": 197010.41666666657,
      "d": 989.583333333343,
      "v": 101
    },
    {
      "midi": 66,
      "hit": false,
      "t": 197020.83333333323,
      "d": 895.833333333343,
      "v": 86
    },
    {
      "midi": 68,
      "hit": false,
      "t": 198010.41666666657,
      "d": 906.25,
      "v": 101
    },
    {
      "midi": 48,
      "hit": false,
      "t": 198010.41666666657,
      "d": 947.916666666657,
      "v": 98
    },
    {
      "midi": 60,
      "hit": false,
      "t": 198020.83333333323,
      "d": 739.583333333343,
      "v": 92
    },
    {
      "midi": 63,
      "hit": false,
      "t": 198020.83333333323,
      "d": 791.6666666666861,
      "v": 101
    },
    {
      "midi": 61,
      "hit": false,
      "t": 199010.41666666657,
      "d": 895.8333333333139,
      "v": 98
    },
    {
      "midi": 65,
      "hit": false,
      "t": 199010.41666666657,
      "d": 927.0833333333139,
      "v": 96
    },
    {
      "midi": 58,
      "hit": false,
      "t": 199020.83333333323,
      "d": 187.5,
      "v": 69
    },
    {
      "midi": 56,
      "hit": false,
      "t": 199020.83333333323,
      "d": 729.166666666657,
      "v": 92
    },
    {
      "midi": 47,
      "hit": false,
      "t": 199020.83333333323,
      "d": 927.0833333333139,
      "v": 94
    },
    {
      "midi": 65,
      "hit": false,
      "t": 200010.41666666654,
      "d": 1541.666666666657,
      "v": 86
    },
    {
      "midi": 58,
      "hit": false,
      "t": 200010.41666666654,
      "d": 1562.5,
      "v": 96
    },
    {
      "midi": 61,
      "hit": false,
      "t": 200010.41666666654,
      "d": 1562.5,
      "v": 92
    },
    {
      "midi": 46,
      "hit": false,
      "t": 200010.41666666654,
      "d": 1572.916666666657,
      "v": 97
    },
    {
      "midi": 70,
      "hit": false,
      "t": 201010.41666666654,
      "d": 510.41666666665697,
      "v": 99
    },
    {
      "midi": 45,
      "hit": false,
      "t": 202010.41666666654,
      "d": 1437.5,
      "v": 98
    },
    {
      "midi": 55,
      "hit": false,
      "t": 202010.41666666654,
      "d": 1447.916666666657,
      "v": 96
    },
    {
      "midi": 66,
      "hit": false,
      "t": 202010.41666666654,
      "d": 1489.583333333314,
      "v": 105
    },
    {
      "midi": 61,
      "hit": false,
      "t": 202010.41666666654,
      "d": 1520.833333333314,
      "v": 105
    },
    {
      "midi": 59,
      "hit": false,
      "t": 204010.4166666665,
      "d": 947.916666666657,
      "v": 94
    },
    {
      "midi": 54,
      "hit": false,
      "t": 204020.83333333317,
      "d": 895.833333333343,
      "v": 96
    },
    {
      "midi": 63,
      "hit": false,
      "t": 204020.83333333317,
      "d": 927.083333333343,
      "v": 98
    },
    {
      "midi": 44,
      "hit": false,
      "t": 204020.83333333317,
      "d": 1656.25,
      "v": 96
    },
    {
      "midi": 59,
      "hit": false,
      "t": 205010.4166666665,
      "d": 510.41666666665697,
      "v": 89
    },
    {
      "midi": 63,
      "hit": false,
      "t": 205010.4166666665,
      "d": 572.916666666657,
      "v": 94
    },
    {
      "midi": 54,
      "hit": false,
      "t": 205010.4166666665,
      "d": 614.5833333333139,
      "v": 89
    },
    {
      "midi": 58,
      "hit": false,
      "t": 205999.99999999983,
      "d": 614.583333333343,
      "v": 102
    },
    {
      "midi": 61,
      "hit": false,
      "t": 205999.99999999983,
      "d": 645.833333333343,
      "v": 100
    },
    {
      "midi": 46,
      "hit": false,
      "t": 205999.99999999983,
      "d": 968.75,
      "v": 100
    },
    {
      "midi": 70,
      "hit": false,
      "t": 207010.41666666648,
      "d": 489.58333333334303,
      "v": 105
    },
    {
      "midi": 46,
      "hit": false,
      "t": 207010.41666666648,
      "d": 520.833333333343,
      "v": 84
    },
    {
      "midi": 58,
      "hit": false,
      "t": 207010.41666666648,
      "d": 531.25,
      "v": 100
    },
    {
      "midi": 63,
      "hit": false,
      "t": 208010.41666666648,
      "d": 1104.166666666657,
      "v": 98
    },
    {
      "midi": 59,
      "hit": false,
      "t": 208020.83333333314,
      "d": 1062.5,
      "v": 96
    },
    {
      "midi": 66,
      "hit": false,
      "t": 208020.83333333314,
      "d": 1114.583333333343,
      "v": 98
    },
    {
      "midi": 54,
      "hit": false,
      "t": 208020.83333333314,
      "d": 1145.833333333343,
      "v": 96
    },
    {
      "midi": 56,
      "hit": false,
      "t": 209999.9999999998,
      "d": 458.33333333331393,
      "v": 85
    },
    {
      "midi": 59,
      "hit": false,
      "t": 209999.9999999998,
      "d": 468.7499999999709,
      "v": 89
    },
    {
      "midi": 53,
      "hit": false,
      "t": 209999.9999999998,
      "d": 479.16666666662786,
      "v": 88
    },
    {
      "midi": 68,
      "hit": false,
      "t": 209999.9999999998,
      "d": 583.3333333332848,
      "v": 98
    },
    {
      "midi": 80,
      "hit": false,
      "t": 209999.9999999998,
      "d": 624.9999999999418,
      "v": 99
    },
    {
      "midi": 75,
      "hit": false,
      "t": 210010.41666666645,
      "d": 572.9166666666279,
      "v": 94
    },
    {
      "midi": 62,
      "hit": false,
      "t": 211010.4166666664,
      "d": 447.91666666665697,
      "v": 98
    },
    {
      "midi": 80,
      "hit": false,
      "t": 211010.4166666664,
      "d": 447.91666666665697,
      "v": 103
    },
    {
      "midi": 74,
      "hit": false,
      "t": 211010.4166666664,
      "d": 458.33333333331393,
      "v": 96
    },
    {
      "midi": 68,
      "hit": false,
      "t": 211010.4166666664,
      "d": 479.16666666665697,
      "v": 101
    },
    {
      "midi": 56,
      "hit": false,
      "t": 211010.4166666664,
      "d": 500,
      "v": 96
    },
    {
      "midi": 51,
      "hit": false,
      "t": 212010.4166666664,
      "d": 687.5,
      "v": 98
    },
    {
      "midi": 70,
      "hit": false,
      "t": 212010.4166666664,
      "d": 687.5,
      "v": 98
    },
    {
      "midi": 39,
      "hit": false,
      "t": 212010.4166666664,
      "d": 697.916666666657,
      "v": 96
    },
    {
      "midi": 65,
      "hit": false,
      "t": 212010.4166666664,
      "d": 697.916666666657,
      "v": 94
    },
    {
      "midi": 62,
      "hit": false,
      "t": 212020.83333333305,
      "d": 645.833333333343,
      "v": 92
    },
    {
      "midi": 65,
      "hit": false,
      "t": 212749.9999999997,
      "d": 218.75,
      "v": 94
    },
    {
      "midi": 39,
      "hit": false,
      "t": 212760.41666666637,
      "d": 177.08333333334303,
      "v": 87
    },
    {
      "midi": 62,
      "hit": false,
      "t": 212760.41666666637,
      "d": 187.5,
      "v": 94
    },
    {
      "midi": 70,
      "hit": false,
      "t": 212760.41666666637,
      "d": 208.33333333334303,
      "v": 91
    },
    {
      "midi": 51,
      "hit": false,
      "t": 212760.41666666637,
      "d": 229.16666666668607,
      "v": 93
    },
    {
      "midi": 39,
      "hit": false,
      "t": 213499.9999999997,
      "d": 1833.333333333314,
      "v": 99
    },
    {
      "midi": 51,
      "hit": false,
      "t": 213499.9999999997,
      "d": 1874.999999999971,
      "v": 102
    },
    {
      "midi": 63,
      "hit": false,
      "t": 213499.9999999997,
      "d": 1927.083333333314,
      "v": 100
    },
    {
      "midi": 67,
      "hit": false,
      "t": 213499.9999999997,
      "d": 1958.333333333314,
      "v": 90
    },
    {
      "midi": 70,
      "hit": false,
      "t": 213499.9999999997,
      "d": 1968.749999999971,
      "v": 99
    },
    {
      "midi": 65,
      "hit": false,
      "t": 215999.99999999968,
      "d": 937.5,
      "v": 76
    },
    {
      "midi": 50,
      "hit": false,
      "t": 216010.41666666634,
      "d": 906.25,
      "v": 79
    },
    {
      "midi": 56,
      "hit": false,
      "t": 216010.41666666634,
      "d": 927.083333333343,
      "v": 81
    },
    {
      "midi": 60,
      "hit": false,
      "t": 216010.41666666634,
      "d": 958.333333333343,
      "v": 79
    },
    {
      "midi": 79,
      "hit": false,
      "t": 217760.41666666634,
      "d": 187.5,
      "v": 99
    },
    {
      "midi": 80,
      "hit": false,
      "t": 217864.583333333,
      "d": 156.25,
      "v": 95
    },
    {
      "midi": 79,
      "hit": false,
      "t": 218010.41666666634,
      "d": 927.0833333333139,
      "v": 90
    },
    {
      "midi": 63,
      "hit": false,
      "t": 218020.833333333,
      "d": 1489.583333333314,
      "v": 71
    },
    {
      "midi": 59,
      "hit": false,
      "t": 218020.833333333,
      "d": 1520.833333333314,
      "v": 75
    },
    {
      "midi": 53,
      "hit": false,
      "t": 218020.833333333,
      "d": 1541.666666666657,
      "v": 64
    },
    {
      "midi": 55,
      "hit": false,
      "t": 222010.4166666663,
      "d": 552.083333333343,
      "v": 94
    },
    {
      "midi": 62,
      "hit": false,
      "t": 222010.4166666663,
      "d": 1052.083333333314,
      "v": 98
    },
    {
      "midi": 40,
      "hit": false,
      "t": 222010.4166666663,
      "d": 1447.916666666657,
      "v": 92
    },
    {
      "midi": 47,
      "hit": false,
      "t": 222010.4166666663,
      "d": 1500,
      "v": 93
    },
    {
      "midi": 54,
      "hit": false,
      "t": 222489.5833333334,
      "d": 697.9166666666861,
      "v": 113
    },
    {
      "midi": 54,
      "hit": false,
      "t": 222510.4166666663,
      "d": 291.66666666665697,
      "v": 99
    },
    {
      "midi": 55,
      "hit": false,
      "t": 222760.4166666663,
      "d": 885.416666666657,
      "v": 94
    },
    {
      "midi": 55,
      "hit": false,
      "t": 222760.41666666674,
      "d": 500.0000000000291,
      "v": 119
    },
    {
      "midi": 62,
      "hit": false,
      "t": 223239.58333333343,
      "d": 729.1666666666861,
      "v": 119
    },
    {
      "midi": 62,
      "hit": false,
      "t": 223260.41666666628,
      "d": 385.41666666668607,
      "v": 102
    },
    {
      "midi": 55,
      "hit": false,
      "t": 223760.4166666663,
      "d": 500,
      "v": 89
    },
    {
      "midi": 60,
      "hit": false,
      "t": 224000.00000000012,
      "d": 2104.166666666657,
      "v": 96
    },
    {
      "midi": 60,
      "hit": false,
      "t": 224010.4166666663,
      "d": 593.75,
      "v": 98
    },
    {
      "midi": 45,
      "hit": false,
      "t": 224010.4166666663,
      "d": 1458.333333333343,
      "v": 91
    },
    {
      "midi": 55,
      "hit": false,
      "t": 224510.4166666663,
      "d": 1000,
      "v": 69
    },
    {
      "midi": 60,
      "hit": false,
      "t": 224760.4166666663,
      "d": 281.25,
      "v": 99
    },
    {
      "midi": 69,
      "hit": false,
      "t": 224760.4166666663,
      "d": 302.08333333334303,
      "v": 103
    },
    {
      "midi": 59,
      "hit": false,
      "t": 225260.4166666663,
      "d": 729.166666666657,
      "v": 100
    },
    {
      "midi": 67,
      "hit": false,
      "t": 225260.4166666663,
      "d": 729.166666666657,
      "v": 104
    },
    {
      "midi": 57,
      "hit": false,
      "t": 226010.4166666663,
      "d": 802.0833333333139,
      "v": 99
    },
    {
      "midi": 62,
      "hit": false,
      "t": 226010.4166666663,
      "d": 833.3333333333139,
      "v": 96
    },
    {
      "midi": 66,
      "hit": false,
      "t": 226010.4166666663,
      "d": 854.166666666657,
      "v": 99
    },
    {
      "midi": 50,
      "hit": false,
      "t": 226010.4166666663,
      "d": 916.666666666657,
      "v": 94
    },
    {
      "midi": 57,
      "hit": false,
      "t": 227010.41666666628,
      "d": 562.5,
      "v": 96
    },
    {
      "midi": 48,
      "hit": false,
      "t": 227010.41666666628,
      "d": 583.333333333343,
      "v": 96
    },
    {
      "midi": 66,
      "hit": false,
      "t": 227010.41666666628,
      "d": 593.75,
      "v": 102
    },
    {
      "midi": 60,
      "hit": false,
      "t": 227010.41666666628,
      "d": 625,
      "v": 99
    },
    {
      "midi": 67,
      "hit": false,
      "t": 228010.41666666628,
      "d": 666.6666666666861,
      "v": 94
    },
    {
      "midi": 62,
      "hit": false,
      "t": 228010.41666666628,
      "d": 697.9166666666861,
      "v": 96
    },
    {
      "midi": 59,
      "hit": false,
      "t": 228010.41666666628,
      "d": 2031.250000000029,
      "v": 96
    },
    {
      "midi": 47,
      "hit": false,
      "t": 228010.41666666628,
      "d": 2062.500000000029,
      "v": 99
    },
    {
      "midi": 67,
      "hit": false,
      "t": 229010.4166666663,
      "d": 1010.416666666657,
      "v": 103
    },
    {
      "midi": 64,
      "hit": false,
      "t": 230010.4166666663,
      "d": 1541.666666666686,
      "v": 94
    },
    {
      "midi": 60,
      "hit": false,
      "t": 230010.4166666663,
      "d": 1562.500000000029,
      "v": 98
    },
    {
      "midi": 48,
      "hit": false,
      "t": 230010.4166666663,
      "d": 1802.083333333343,
      "v": 98
    },
    {
      "midi": 55,
      "hit": false,
      "t": 230020.83333333296,
      "d": 1510.416666666686,
      "v": 94
    },
    {
      "midi": 55,
      "hit": false,
      "t": 231739.583333333,
      "d": 270.83333333331393,
      "v": 96
    },
    {
      "midi": 60,
      "hit": false,
      "t": 231739.583333333,
      "d": 281.2499999999709,
      "v": 96
    },
    {
      "midi": 64,
      "hit": false,
      "t": 231739.583333333,
      "d": 1270.833333333314,
      "v": 96
    },
    {
      "midi": 58,
      "hit": false,
      "t": 232010.4166666663,
      "d": 937.5,
      "v": 101
    },
    {
      "midi": 42,
      "hit": false,
      "t": 232010.4166666663,
      "d": 1937.5,
      "v": 102
    },
    {
      "midi": 58,
      "hit": false,
      "t": 233010.4166666663,
      "d": 895.833333333343,
      "v": 100
    },
    {
      "midi": 64,
      "hit": false,
      "t": 233010.4166666663,
      "d": 937.5,
      "v": 86
    },
    {
      "midi": 47,
      "hit": false,
      "t": 234010.4166666663,
      "d": 1281.25,
      "v": 100
    },
    {
      "midi": 66,
      "hit": false,
      "t": 234010.4166666663,
      "d": 1875,
      "v": 102
    },
    {
      "midi": 59,
      "hit": false,
      "t": 234020.83333333296,
      "d": 1843.75,
      "v": 94
    },
    {
      "midi": 63,
      "hit": false,
      "t": 234020.83333333296,
      "d": 1906.25,
      "v": 98
    },
    {
      "midi": 35,
      "hit": false,
      "t": 235260.4166666663,
      "d": 635.416666666657,
      "v": 100
    },
    {
      "midi": 57,
      "hit": false,
      "t": 236010.4166666663,
      "d": 781.25,
      "v": 96
    },
    {
      "midi": 47,
      "hit": false,
      "t": 236010.4166666663,
      "d": 885.4166666666861,
      "v": 96
    },
    {
      "midi": 64,
      "hit": false,
      "t": 236010.4166666663,
      "d": 906.2500000000291,
      "v": 102
    },
    {
      "midi": 61,
      "hit": false,
      "t": 236010.4166666663,
      "d": 937.5000000000291,
      "v": 105
    },
    {
      "midi": 35,
      "hit": false,
      "t": 236020.83333333296,
      "d": 822.9166666666861,
      "v": 102
    },
    {
      "midi": 59,
      "hit": false,
      "t": 237010.41666666634,
      "d": 864.5833333333139,
      "v": 96
    },
    {
      "midi": 66,
      "hit": false,
      "t": 237010.41666666634,
      "d": 885.416666666657,
      "v": 104
    },
    {
      "midi": 49,
      "hit": false,
      "t": 237010.41666666634,
      "d": 906.2499999999709,
      "v": 106
    },
    {
      "midi": 63,
      "hit": false,
      "t": 237010.41666666634,
      "d": 906.2499999999709,
      "v": 102
    },
    {
      "midi": 37,
      "hit": false,
      "t": 237020.833333333,
      "d": 885.416666666657,
      "v": 105
    },
    {
      "midi": 41,
      "hit": false,
      "t": 238010.4166666663,
      "d": 1552.083333333343,
      "v": 87
    },
    {
      "midi": 60,
      "hit": false,
      "t": 238010.4166666663,
      "d": 1614.583333333343,
      "v": 92
    },
    {
      "midi": 63,
      "hit": false,
      "t": 238010.4166666663,
      "d": 1614.583333333343,
      "v": 96
    },
    {
      "midi": 68,
      "hit": false,
      "t": 238010.4166666663,
      "d": 1614.583333333343,
      "v": 93
    },
    {
      "midi": 65,
      "hit": false,
      "t": 240010.4166666663,
      "d": 854.166666666657,
      "v": 98
    },
    {
      "midi": 61,
      "hit": false,
      "t": 240010.4166666663,
      "d": 864.5833333333139,
      "v": 98
    },
    {
      "midi": 46,
      "hit": false,
      "t": 240010.4166666663,
      "d": 1749.999999999971,
      "v": 96
    },
    {
      "midi": 56,
      "hit": false,
      "t": 240010.4166666663,
      "d": 1916.666666666657,
      "v": 91
    },
    {
      "midi": 65,
      "hit": false,
      "t": 241510.41666666628,
      "d": 281.25,
      "v": 96
    },
    {
      "midi": 61,
      "hit": false,
      "t": 241510.41666666628,
      "d": 364.58333333334303,
      "v": 100
    },
    {
      "midi": 70,
      "hit": false,
      "t": 241510.41666666628,
      "d": 385.41666666668607,
      "v": 105
    },
    {
      "midi": 53,
      "hit": false,
      "t": 241520.83333333294,
      "d": 385.41666666668607,
      "v": 84
    },
    {
      "midi": 70,
      "hit": false,
      "t": 241999.99999999962,
      "d": 864.5833333333139,
      "v": 96
    },
    {
      "midi": 51,
      "hit": false,
      "t": 241999.99999999962,
      "d": 927.0833333333139,
      "v": 100
    },
    {
      "midi": 63,
      "hit": false,
      "t": 242010.41666666628,
      "d": 916.666666666657,
      "v": 100
    },
    {
      "midi": 67,
      "hit": false,
      "t": 242010.41666666628,
      "d": 927.0833333333139,
      "v": 90
    },
    {
      "midi": 61,
      "hit": false,
      "t": 242999.9999999996,
      "d": 854.166666666657,
      "v": 104
    },
    {
      "midi": 70,
      "hit": false,
      "t": 242999.9999999996,
      "d": 875,
      "v": 103
    },
    {
      "midi": 67,
      "hit": false,
      "t": 242999.9999999996,
      "d": 927.083333333343,
      "v": 89
    },
    {
      "midi": 49,
      "hit": false,
      "t": 242999.9999999996,
      "d": 958.333333333343,
      "v": 97
    },
    {
      "midi": 60,
      "hit": false,
      "t": 244010.41666666628,
      "d": 1875,
      "v": 94
    },
    {
      "midi": 63,
      "hit": false,
      "t": 244010.41666666628,
      "d": 1916.666666666657,
      "v": 102
    },
    {
      "midi": 48,
      "hit": false,
      "t": 244010.41666666628,
      "d": 1979.166666666657,
      "v": 93
    },
    {
      "midi": 68,
      "hit": false,
      "t": 244010.41666666628,
      "d": 1979.166666666657,
      "v": 99
    },
    {
      "midi": 61,
      "hit": false,
      "t": 246020.83333333294,
      "d": 1677.083333333343,
      "v": 102
    },
    {
      "midi": 65,
      "hit": false,
      "t": 246020.83333333294,
      "d": 1708.333333333343,
      "v": 89
    },
    {
      "midi": 68,
      "hit": false,
      "t": 246020.83333333294,
      "d": 1781.25,
      "v": 94
    },
    {
      "midi": 49,
      "hit": false,
      "t": 246020.83333333294,
      "d": 1937.5,
      "v": 96
    },
    {
      "midi": 65,
      "hit": false,
      "t": 248010.41666666628,
      "d": 229.16666666665697,
      "v": 96
    },
    {
      "midi": 51,
      "hit": false,
      "t": 248010.41666666628,
      "d": 1750,
      "v": 96
    },
    {
      "midi": 70,
      "hit": false,
      "t": 248010.41666666628,
      "d": 1885.416666666686,
      "v": 98
    },
    {
      "midi": 67,
      "hit": false,
      "t": 248041.66666666628,
      "d": 1656.25,
      "v": 89
    },
    {
      "midi": 63,
      "hit": false,
      "t": 249260.41666666628,
      "d": 520.833333333343,
      "v": 102
    },
    {
      "midi": 72,
      "hit": false,
      "t": 249999.99999999962,
      "d": 1635.416666666657,
      "v": 100
    },
    {
      "midi": 67,
      "hit": false,
      "t": 250010.41666666628,
      "d": 177.08333333334303,
      "v": 96
    },
    {
      "midi": 41,
      "hit": false,
      "t": 250010.41666666628,
      "d": 729.1666666666861,
      "v": 96
    },
    {
      "midi": 69,
      "hit": false,
      "t": 250041.66666666628,
      "d": 1531.25,
      "v": 83
    },
    {
      "midi": 53,
      "hit": false,
      "t": 250749.99999999962,
      "d": 270.83333333331393,
      "v": 94
    },
    {
      "midi": 41,
      "hit": false,
      "t": 251010.41666666628,
      "d": 739.583333333343,
      "v": 103
    },
    {
      "midi": 58,
      "hit": false,
      "t": 251999.99999999962,
      "d": 708.333333333343,
      "v": 103
    },
    {
      "midi": 67,
      "hit": false,
      "t": 251999.99999999962,
      "d": 729.1666666666861,
      "v": 99
    },
    {
      "midi": 63,
      "hit": false,
      "t": 251999.99999999962,
      "d": 791.6666666666861,
      "v": 103
    },
    {
      "midi": 41,
      "hit": false,
      "t": 251999.99999999962,
      "d": 875.0000000000291,
      "v": 100
    },
    {
      "midi": 43,
      "hit": false,
      "t": 252999.99999999965,
      "d": 1010.416666666657,
      "v": 98
    },
    {
      "midi": 69,
      "hit": false,
      "t": 252999.99999999965,
      "d": 1010.416666666657,
      "v": 104
    },
    {
      "midi": 60,
      "hit": false,
      "t": 253010.4166666663,
      "d": 989.583333333343,
      "v": 100
    },
    {
      "midi": 65,
      "hit": false,
      "t": 253010.4166666663,
      "d": 1000,
      "v": 102
    },
    {
      "midi": 70,
      "hit": false,
      "t": 254010.4166666663,
      "d": 1145.833333333314,
      "v": 102
    },
    {
      "midi": 65,
      "hit": false,
      "t": 254010.4166666663,
      "d": 1208.333333333314,
      "v": 92
    },
    {
      "midi": 61,
      "hit": false,
      "t": 254020.83333333296,
      "d": 1145.833333333314,
      "v": 94
    },
    {
      "midi": 46,
      "hit": false,
      "t": 254020.83333333296,
      "d": 1697.916666666657,
      "v": 96
    },
    {
      "midi": 65,
      "hit": false,
      "t": 255260.41666666628,
      "d": 385.41666666665697,
      "v": 95
    },
    {
      "midi": 61,
      "hit": false,
      "t": 255260.41666666628,
      "d": 437.5,
      "v": 92
    },
    {
      "midi": 68,
      "hit": false,
      "t": 255260.41666666628,
      "d": 437.5,
      "v": 97
    },
    {
      "midi": 61,
      "hit": false,
      "t": 255999.99999999962,
      "d": 916.666666666657,
      "v": 97
    },
    {
      "midi": 63,
      "hit": false,
      "t": 255999.99999999962,
      "d": 937.5,
      "v": 99
    },
    {
      "midi": 66,
      "hit": false,
      "t": 255999.99999999962,
      "d": 937.5,
      "v": 98
    },
    {
      "midi": 51,
      "hit": false,
      "t": 255999.99999999962,
      "d": 1656.249999999971,
      "v": 96
    },
    {
      "midi": 63,
      "hit": false,
      "t": 257010.41666666628,
      "d": 625,
      "v": 94
    },
    {
      "midi": 66,
      "hit": false,
      "t": 257010.41666666628,
      "d": 625,
      "v": 88
    },
    {
      "midi": 70,
      "hit": false,
      "t": 257010.41666666628,
      "d": 625,
      "v": 100
    },
    {
      "midi": 61,
      "hit": false,
      "t": 257010.41666666628,
      "d": 635.416666666657,
      "v": 96
    },
    {
      "midi": 60,
      "hit": false,
      "t": 258010.41666666625,
      "d": 885.416666666657,
      "v": 92
    },
    {
      "midi": 68,
      "hit": false,
      "t": 258010.41666666625,
      "d": 916.666666666657,
      "v": 98
    },
    {
      "midi": 63,
      "hit": false,
      "t": 258010.41666666625,
      "d": 937.5,
      "v": 102
    },
    {
      "midi": 56,
      "hit": false,
      "t": 258010.41666666625,
      "d": 958.333333333343,
      "v": 94
    },
    {
      "midi": 66,
      "hit": false,
      "t": 259010.41666666625,
      "d": 739.583333333343,
      "v": 101
    },
    {
      "midi": 63,
      "hit": false,
      "t": 259010.41666666625,
      "d": 822.9166666666861,
      "v": 94
    },
    {
      "midi": 60,
      "hit": false,
      "t": 259010.41666666625,
      "d": 833.333333333343,
      "v": 88
    },
    {
      "midi": 54,
      "hit": false,
      "t": 259010.41666666625,
      "d": 937.5,
      "v": 98
    },
    {
      "midi": 65,
      "hit": false,
      "t": 259781.2499999996,
      "d": 72.91666666665697,
      "v": 56
    },
    {
      "midi": 65,
      "hit": false,
      "t": 259999.9999999996,
      "d": 1729.1666666666279,
      "v": 95
    },
    {
      "midi": 61,
      "hit": false,
      "t": 260010.41666666625,
      "d": 760.416666666657,
      "v": 104
    },
    {
      "midi": 53,
      "hit": false,
      "t": 260010.41666666625,
      "d": 1968.7499999999418,
      "v": 89
    },
    {
      "midi": 41,
      "hit": false,
      "t": 260999.99999999956,
      "d": 937.4999999999709,
      "v": 85
    },
    {
      "midi": 61,
      "hit": false,
      "t": 261260.41666666622,
      "d": 562.5,
      "v": 95
    },
    {
      "midi": 58,
      "hit": false,
      "t": 261260.41666666622,
      "d": 666.666666666657,
      "v": 105
    },
    {
      "midi": 58,
      "hit": false,
      "t": 262010.4166666662,
      "d": 1843.749999999971,
      "v": 96
    },
    {
      "midi": 61,
      "hit": false,
      "t": 262010.4166666662,
      "d": 1906.249999999971,
      "v": 99
    },
    {
      "midi": 42,
      "hit": false,
      "t": 262010.4166666662,
      "d": 1968.749999999971,
      "v": 97
    },
    {
      "midi": 64,
      "hit": false,
      "t": 263999.9999999995,
      "d": 927.0833333333721,
      "v": 91
    },
    {
      "midi": 48,
      "hit": false,
      "t": 263999.9999999995,
      "d": 1989.583333333314,
      "v": 96
    },
    {
      "midi": 57,
      "hit": false,
      "t": 264010.41666666616,
      "d": 93.75,
      "v": 87
    },
    {
      "midi": 55,
      "hit": false,
      "t": 264010.41666666616,
      "d": 906.25,
      "v": 87
    },
    {
      "midi": 58,
      "hit": false,
      "t": 264010.41666666616,
      "d": 937.5,
      "v": 94
    },
    {
      "midi": 58,
      "hit": false,
      "t": 264999.9999999995,
      "d": 812.5,
      "v": 102
    },
    {
      "midi": 55,
      "hit": false,
      "t": 264999.9999999995,
      "d": 906.25,
      "v": 86
    },
    {
      "midi": 64,
      "hit": false,
      "t": 265020.8333333328,
      "d": 72.91666666668607,
      "v": 65
    },
    {
      "midi": 55,
      "hit": false,
      "t": 265999.9999999995,
      "d": 177.08333333331393,
      "v": 98
    },
    {
      "midi": 60,
      "hit": false,
      "t": 265999.9999999995,
      "d": 1229.1666666666279,
      "v": 100
    },
    {
      "midi": 41,
      "hit": false,
      "t": 266010.41666666616,
      "d": 1885.4166666665114,
      "v": 91
    },
    {
      "midi": 57,
      "hit": false,
      "t": 266031.2499999995,
      "d": 666.6666666666279,
      "v": 82
    },
    {
      "midi": 55,
      "hit": false,
      "t": 266760.4166666661,
      "d": 489.58333333331393,
      "v": 96
    },
    {
      "midi": 55,
      "hit": false,
      "t": 267270.83333333273,
      "d": 291.66666666662786,
      "v": 90
    },
    {
      "midi": 57,
      "hit": false,
      "t": 267270.83333333273,
      "d": 302.08333333331393,
      "v": 96
    },
    {
      "midi": 60,
      "hit": false,
      "t": 267270.83333333273,
      "d": 322.91666666662786,
      "v": 98
    },
    {
      "midi": 58,
      "hit": false,
      "t": 268010.416666666,
      "d": 593.75,
      "v": 104
    },
    {
      "midi": 63,
      "hit": false,
      "t": 268010.416666666,
      "d": 625,
      "v": 102
    },
    {
      "midi": 67,
      "hit": false,
      "t": 268010.416666666,
      "d": 656.25,
      "v": 100
    },
    {
      "midi": 41,
      "hit": false,
      "t": 268010.416666666,
      "d": 895.8333333333139,
      "v": 94
    },
    {
      "midi": 43,
      "hit": false,
      "t": 269010.416666666,
      "d": 562.5,
      "v": 96
    },
    {
      "midi": 60,
      "hit": false,
      "t": 269010.416666666,
      "d": 593.75,
      "v": 98
    },
    {
      "midi": 69,
      "hit": false,
      "t": 269010.416666666,
      "d": 614.5833333333139,
      "v": 100
    },
    {
      "midi": 65,
      "hit": false,
      "t": 269010.416666666,
      "d": 625,
      "v": 99
    },
    {
      "midi": 70,
      "hit": false,
      "t": 269999.9999999993,
      "d": 895.8333333333139,
      "v": 106
    },
    {
      "midi": 46,
      "hit": false,
      "t": 269999.9999999993,
      "d": 1385.416666666686,
      "v": 96
    },
    {
      "midi": 61,
      "hit": false,
      "t": 270010.416666666,
      "d": 802.0833333333139,
      "v": 102
    },
    {
      "midi": 65,
      "hit": false,
      "t": 270010.416666666,
      "d": 989.5833333333139,
      "v": 96
    },
    {
      "midi": 61,
      "hit": false,
      "t": 271260.416666666,
      "d": 197.91666666668607,
      "v": 96
    },
    {
      "midi": 65,
      "hit": false,
      "t": 271260.416666666,
      "d": 208.33333333337214,
      "v": 88
    },
    {
      "midi": 66,
      "hit": false,
      "t": 272010.41666666605,
      "d": 750,
      "v": 96
    },
    {
      "midi": 63,
      "hit": false,
      "t": 272010.41666666605,
      "d": 1447.916666666686,
      "v": 99
    },
    {
      "midi": 58,
      "hit": false,
      "t": 272010.41666666605,
      "d": 1906.25,
      "v": 92
    },
    {
      "midi": 51,
      "hit": false,
      "t": 272010.41666666605,
      "d": 1916.666666666686,
      "v": 95
    },
    {
      "midi": 66,
      "hit": false,
      "t": 272760.41666666605,
      "d": 635.4166666666861,
      "v": 72
    },
    {
      "midi": 73,
      "hit": false,
      "t": 272770.83333333273,
      "d": 812.5,
      "v": 103
    },
    {
      "midi": 66,
      "hit": false,
      "t": 273510.41666666605,
      "d": 229.16666666668607,
      "v": 96
    },
    {
      "midi": 63,
      "hit": false,
      "t": 273520.83333333273,
      "d": 62.5,
      "v": 59
    },
    {
      "midi": 66,
      "hit": false,
      "t": 273791.66666666605,
      "d": 52.08333333331393,
      "v": 49
    },
    {
      "midi": 56,
      "hit": false,
      "t": 274010.41666666605,
      "d": 927.0833333333139,
      "v": 97
    },
    {
      "midi": 60,
      "hit": false,
      "t": 274010.41666666605,
      "d": 927.0833333333139,
      "v": 80
    },
    {
      "midi": 63,
      "hit": false,
      "t": 274010.41666666605,
      "d": 968.75,
      "v": 102
    },
    {
      "midi": 68,
      "hit": false,
      "t": 274010.41666666605,
      "d": 968.75,
      "v": 99
    },
    {
      "midi": 62,
      "hit": false,
      "t": 274020.83333333273,
      "d": 62.5,
      "v": 73
    },
    {
      "midi": 60,
      "hit": false,
      "t": 275010.41666666605,
      "d": 760.4166666666861,
      "v": 78
    },
    {
      "midi": 66,
      "hit": false,
      "t": 275010.41666666605,
      "d": 760.4166666666861,
      "v": 91
    },
    {
      "midi": 63,
      "hit": false,
      "t": 275010.41666666605,
      "d": 906.25,
      "v": 94
    },
    {
      "midi": 54,
      "hit": false,
      "t": 275010.41666666605,
      "d": 968.75,
      "v": 96
    },
    {
      "midi": 68,
      "hit": false,
      "t": 275020.83333333273,
      "d": 2906.25,
      "v": 81
    },
    {
      "midi": 61,
      "hit": false,
      "t": 276010.41666666605,
      "d": 1093.7500000000582,
      "v": 96
    },
    {
      "midi": 65,
      "hit": false,
      "t": 276010.41666666605,
      "d": 1833.3333333333721,
      "v": 86
    },
    {
      "midi": 53,
      "hit": false,
      "t": 276010.41666666605,
      "d": 2062.500000000058,
      "v": 91
    },
    {
      "midi": 61,
      "hit": false,
      "t": 277249.9999999995,
      "d": 520.8333333332557,
      "v": 90
    },
    {
      "midi": 56,
      "hit": false,
      "t": 278010.4166666661,
      "d": 177.08333333331393,
      "v": 86
    },
    {
      "midi": 61,
      "hit": false,
      "t": 278010.4166666661,
      "d": 1145.8333333331975,
      "v": 84
    },
    {
      "midi": 42,
      "hit": false,
      "t": 278010.4166666661,
      "d": 1968.7499999999418,
      "v": 83
    },
    {
      "midi": 58,
      "hit": false,
      "t": 278041.6666666661,
      "d": 572.9166666665697,
      "v": 70
    },
    {
      "midi": 56,
      "hit": false,
      "t": 278749.9999999993,
      "d": 406.25,
      "v": 77
    },
    {
      "midi": 58,
      "hit": false,
      "t": 279249.9999999993,
      "d": 395.83333333337214,
      "v": 81
    },
    {
      "midi": 61,
      "hit": false,
      "t": 279249.9999999993,
      "d": 416.66666666668607,
      "v": 72
    },
    {
      "midi": 56,
      "hit": false,
      "t": 279260.416666666,
      "d": 260.41666666668607,
      "v": 58
    },
    {
      "midi": 63,
      "hit": false,
      "t": 279781.2499999993,
      "d": 83.33333333337214,
      "v": 30
    },
    {
      "midi": 58,
      "hit": false,
      "t": 279791.666666666,
      "d": 41.66666666668607,
      "v": 21
    },
    {
      "midi": 58,
      "hit": false,
      "t": 279999.99999999936,
      "d": 197.91666666668607,
      "v": 77
    },
    {
      "midi": 63,
      "hit": false,
      "t": 279999.99999999936,
      "d": 1395.8333333334303,
      "v": 75
    },
    {
      "midi": 44,
      "hit": false,
      "t": 280010.41666666605,
      "d": 1302.0833333333721,
      "v": 76
    },
    {
      "midi": 60,
      "hit": false,
      "t": 280031.24999999936,
      "d": 1135.4166666667443,
      "v": 60
    },
    {
      "midi": 58,
      "hit": false,
      "t": 281260.4166666661,
      "d": 125,
      "v": 71
    },
    {
      "midi": 60,
      "hit": false,
      "t": 282010.41666666616,
      "d": 166.66666666668607,
      "v": 99
    },
    {
      "midi": 65,
      "hit": false,
      "t": 282010.41666666616,
      "d": 1197.916666666686,
      "v": 96
    },
    {
      "midi": 46,
      "hit": false,
      "t": 282010.41666666616,
      "d": 3864.5833333334303,
      "v": 96
    },
    {
      "midi": 62,
      "hit": false,
      "t": 282041.66666666616,
      "d": 1083.3333333333721,
      "v": 83
    },
    {
      "midi": 53,
      "hit": false,
      "t": 282781.24999999953,
      "d": 593.7499999999418,
      "v": 79
    },
    {
      "midi": 65,
      "hit": false,
      "t": 283260.41666666616,
      "d": 177.08333333331393,
      "v": 86
    },
    {
      "midi": 60,
      "hit": false,
      "t": 283260.41666666616,
      "d": 187.5,
      "v": 90
    },
    {
      "midi": 65,
      "hit": false,
      "t": 283749.9999999995,
      "d": 375,
      "v": 92
    },
    {
      "midi": 53,
      "hit": false,
      "t": 283760.41666666616,
      "d": 312.5,
      "v": 94
    },
    {
      "midi": 55,
      "hit": false,
      "t": 284260.41666666616,
      "d": 343.7500000000582,
      "v": 96
    },
    {
      "midi": 67,
      "hit": false,
      "t": 284260.41666666616,
      "d": 385.4166666667443,
      "v": 96
    },
    {
      "midi": 58,
      "hit": false,
      "t": 284749.9999999996,
      "d": 312.5,
      "v": 98
    },
    {
      "midi": 53,
      "hit": false,
      "t": 284749.9999999996,
      "d": 1135.416666666686,
      "v": 79
    },
    {
      "midi": 70,
      "hit": false,
      "t": 284760.4166666663,
      "d": 375,
      "v": 102
    },
    {
      "midi": 60,
      "hit": false,
      "t": 285249.9999999996,
      "d": 635.4166666666861,
      "v": 98
    },
    {
      "midi": 72,
      "hit": false,
      "t": 285249.9999999996,
      "d": 635.4166666666861,
      "v": 102
    }
  ]
}