{
  "jsonPath": "Soul/Funk/Tavares/heaven-must-be-missing-an-angel.json",
  "path": "Soul\\Funk\\Tavares\\Heaven Must Be Missing An Angel.mid",
  "name": "Heaven Must Be Missing An Angel",
  "difficulty": "Advanced",
  "bpm": 117.000117000117,
  "notes": [
    {
      "midi": 31,
      "hit": false,
      "t": 13333.320000000002,
      "d": 200.3203125,
      "v": 97
    },
    {
      "midi": 55,
      "hit": false,
      "t": 13333.320000000002,
      "d": 219.01687499999935,
      "v": 97
    },
    {
      "midi": 57,
      "hit": false,
      "t": 13589.730000000001,
      "d": 181.62374999999884,
      "v": 79
    },
    {
      "midi": 33,
      "hit": false,
      "t": 13592.4009375,
      "d": 184.29468749999978,
      "v": 88
    },
    {
      "midi": 36,
      "hit": false,
      "t": 13846.14,
      "d": 197.64937500000087,
      "v": 97
    },
    {
      "midi": 60,
      "hit": false,
      "t": 13846.14,
      "d": 200.3203125,
      "v": 106
    },
    {
      "midi": 33,
      "hit": false,
      "t": 14083.8534375,
      "d": 237.7134374999987,
      "v": 93
    },
    {
      "midi": 57,
      "hit": false,
      "t": 14099.8790625,
      "d": 213.67499999999927,
      "v": 93
    },
    {
      "midi": 38,
      "hit": false,
      "t": 14356.289062499998,
      "d": 243.05531250000058,
      "v": 106
    },
    {
      "midi": 53,
      "hit": false,
      "t": 14356.289062499998,
      "d": 245.7262499999997,
      "v": 88
    },
    {
      "midi": 57,
      "hit": false,
      "t": 14356.289062499998,
      "d": 251.06812499999978,
      "v": 97
    },
    {
      "midi": 62,
      "hit": false,
      "t": 14356.289062499998,
      "d": 251.06812499999978,
      "v": 97
    },
    {
      "midi": 55,
      "hit": false,
      "t": 17689.619062499998,
      "d": 69.44437499999913,
      "v": 88
    },
    {
      "midi": 31,
      "hit": false,
      "t": 17689.619062499998,
      "d": 74.78624999999738,
      "v": 97
    },
    {
      "midi": 55,
      "hit": false,
      "t": 17938.016249999997,
      "d": 232.37156250000044,
      "v": 106
    },
    {
      "midi": 31,
      "hit": false,
      "t": 17940.687187499996,
      "d": 251.0681250000016,
      "v": 97
    },
    {
      "midi": 57,
      "hit": false,
      "t": 18197.097187499996,
      "d": 173.61093750000146,
      "v": 87
    },
    {
      "midi": 33,
      "hit": false,
      "t": 18207.780937499996,
      "d": 189.63656249999985,
      "v": 88
    },
    {
      "midi": 38,
      "hit": false,
      "t": 18458.849062499998,
      "d": 243.05531250000058,
      "v": 106
    },
    {
      "midi": 53,
      "hit": false,
      "t": 18458.849062499998,
      "d": 245.7262499999997,
      "v": 88
    },
    {
      "midi": 57,
      "hit": false,
      "t": 18458.849062499998,
      "d": 251.06812499999796,
      "v": 97
    },
    {
      "midi": 62,
      "hit": false,
      "t": 18458.849062499998,
      "d": 251.06812499999796,
      "v": 97
    },
    {
      "midi": 31,
      "hit": false,
      "t": 21538.439999999995,
      "d": 200.3203125,
      "v": 97
    },
    {
      "midi": 55,
      "hit": false,
      "t": 21538.439999999995,
      "d": 219.01687500000116,
      "v": 97
    },
    {
      "midi": 57,
      "hit": false,
      "t": 21794.849999999995,
      "d": 181.62374999999884,
      "v": 79
    },
    {
      "midi": 33,
      "hit": false,
      "t": 21797.520937499994,
      "d": 184.29468749999796,
      "v": 88
    },
    {
      "midi": 36,
      "hit": false,
      "t": 22051.25999999999,
      "d": 197.64937500000087,
      "v": 97
    },
    {
      "midi": 60,
      "hit": false,
      "t": 22051.25999999999,
      "d": 200.3203125,
      "v": 106
    },
    {
      "midi": 33,
      "hit": false,
      "t": 22288.97343749999,
      "d": 237.7134374999987,
      "v": 93
    },
    {
      "midi": 57,
      "hit": false,
      "t": 22304.99906249999,
      "d": 213.67499999999927,
      "v": 93
    },
    {
      "midi": 38,
      "hit": false,
      "t": 22561.409062499988,
      "d": 243.05531250000058,
      "v": 106
    },
    {
      "midi": 53,
      "hit": false,
      "t": 22561.409062499988,
      "d": 245.7262499999997,
      "v": 88
    },
    {
      "midi": 57,
      "hit": false,
      "t": 22561.409062499988,
      "d": 251.06812499999796,
      "v": 97
    },
    {
      "midi": 62,
      "hit": false,
      "t": 22561.409062499988,
      "d": 251.06812499999796,
      "v": 97
    },
    {
      "midi": 55,
      "hit": false,
      "t": 25894.739062499986,
      "d": 69.44437499999913,
      "v": 88
    },
    {
      "midi": 31,
      "hit": false,
      "t": 25894.739062499986,
      "d": 74.78624999999738,
      "v": 97
    },
    {
      "midi": 55,
      "hit": false,
      "t": 26143.136249999985,
      "d": 232.37156250000044,
      "v": 106
    },
    {
      "midi": 31,
      "hit": false,
      "t": 26145.807187499984,
      "d": 251.0681250000016,
      "v": 97
    },
    {
      "midi": 57,
      "hit": false,
      "t": 26402.217187499984,
      "d": 173.61093750000146,
      "v": 87
    },
    {
      "midi": 33,
      "hit": false,
      "t": 26412.900937499984,
      "d": 189.63656249999985,
      "v": 88
    },
    {
      "midi": 38,
      "hit": false,
      "t": 26663.969062499986,
      "d": 243.05531250000058,
      "v": 106
    },
    {
      "midi": 53,
      "hit": false,
      "t": 26663.969062499986,
      "d": 245.7262499999997,
      "v": 88
    },
    {
      "midi": 57,
      "hit": false,
      "t": 26663.969062499986,
      "d": 251.06812499999796,
      "v": 97
    },
    {
      "midi": 62,
      "hit": false,
      "t": 26663.969062499986,
      "d": 251.06812499999796,
      "v": 97
    },
    {
      "midi": 96,
      "hit": false,
      "t": 28221.125624999982,
      "d": 48.076874999998836,
      "v": 82
    },
    {
      "midi": 95,
      "hit": false,
      "t": 28234.48031249998,
      "d": 48.076874999998836,
      "v": 82
    },
    {
      "midi": 93,
      "hit": false,
      "t": 28261.18968749998,
      "d": 42.734999999996944,
      "v": 78
    },
    {
      "midi": 91,
      "hit": false,
      "t": 28277.215312499982,
      "d": 56.08968749999258,
      "v": 80
    },
    {
      "midi": 89,
      "hit": false,
      "t": 28298.58281249998,
      "d": 58.76062499999534,
      "v": 53
    },
    {
      "midi": 88,
      "hit": false,
      "t": 28319.950312499976,
      "d": 56.089687499999854,
      "v": 71
    },
    {
      "midi": 86,
      "hit": false,
      "t": 28343.988749999975,
      "d": 58.76062499999898,
      "v": 71
    },
    {
      "midi": 84,
      "hit": false,
      "t": 28368.027187499974,
      "d": 58.76062499999898,
      "v": 71
    },
    {
      "midi": 83,
      "hit": false,
      "t": 28392.065624999974,
      "d": 56.089687499999854,
      "v": 62
    },
    {
      "midi": 81,
      "hit": false,
      "t": 28413.433124999974,
      "d": 53.41874999999709,
      "v": 71
    },
    {
      "midi": 79,
      "hit": false,
      "t": 28434.800624999974,
      "d": 61.43156249999447,
      "v": 71
    },
    {
      "midi": 77,
      "hit": false,
      "t": 28461.509999999973,
      "d": 58.76062499999534,
      "v": 62
    },
    {
      "midi": 76,
      "hit": false,
      "t": 28493.56124999997,
      "d": 50.74781249999796,
      "v": 71
    },
    {
      "midi": 74,
      "hit": false,
      "t": 28514.92874999997,
      "d": 53.41874999999709,
      "v": 71
    },
    {
      "midi": 72,
      "hit": false,
      "t": 28544.309062499968,
      "d": 58.76062499999898,
      "v": 53
    },
    {
      "midi": 71,
      "hit": false,
      "t": 28568.347499999967,
      "d": 58.76062499999898,
      "v": 62
    },
    {
      "midi": 69,
      "hit": false,
      "t": 28608.411562499965,
      "d": 50.7478125000016,
      "v": 62
    },
    {
      "midi": 67,
      "hit": false,
      "t": 28627.108124999966,
      "d": 61.431562500001746,
      "v": 62
    },
    {
      "midi": 65,
      "hit": false,
      "t": 28659.159374999967,
      "d": 58.76062499999898,
      "v": 53
    },
    {
      "midi": 64,
      "hit": false,
      "t": 28693.881562499966,
      "d": 32.0512499999968,
      "v": 53
    },
    {
      "midi": 43,
      "hit": false,
      "t": 28717.919999999966,
      "d": 72.11531249999825,
      "v": 64
    },
    {
      "midi": 55,
      "hit": false,
      "t": 28717.919999999966,
      "d": 82.7990624999984,
      "v": 73
    },
    {
      "midi": 31,
      "hit": false,
      "t": 28720.590937499965,
      "d": 114.85031249999884,
      "v": 64
    },
    {
      "midi": 43,
      "hit": false,
      "t": 28982.342812499963,
      "d": 96.15375000000131,
      "v": 82
    },
    {
      "midi": 31,
      "hit": false,
      "t": 28982.342812499963,
      "d": 106.83750000000146,
      "v": 73
    },
    {
      "midi": 55,
      "hit": false,
      "t": 28982.342812499963,
      "d": 114.85031250000247,
      "v": 73
    },
    {
      "midi": 55,
      "hit": false,
      "t": 29481.808124999967,
      "d": 104.16656250000233,
      "v": 73
    },
    {
      "midi": 31,
      "hit": false,
      "t": 29489.820937499968,
      "d": 66.7734375,
      "v": 55
    },
    {
      "midi": 43,
      "hit": false,
      "t": 29489.820937499968,
      "d": 74.78625000000102,
      "v": 82
    },
    {
      "midi": 31,
      "hit": false,
      "t": 29746.230937499968,
      "d": 101.49562499999956,
      "v": 73
    },
    {
      "midi": 55,
      "hit": false,
      "t": 29746.230937499968,
      "d": 122.86312499999985,
      "v": 82
    },
    {
      "midi": 43,
      "hit": false,
      "t": 29748.901874999967,
      "d": 90.81187499999942,
      "v": 82
    },
    {
      "midi": 55,
      "hit": false,
      "t": 30253.70906249997,
      "d": 176.28187500000058,
      "v": 82
    },
    {
      "midi": 43,
      "hit": false,
      "t": 30264.39281249997,
      "d": 152.24343750000116,
      "v": 91
    },
    {
      "midi": 31,
      "hit": false,
      "t": 30264.39281249997,
      "d": 160.25625000000218,
      "v": 82
    },
    {
      "midi": 67,
      "hit": false,
      "t": 31020.26812499997,
      "d": 283.11937499999476,
      "v": 71
    },
    {
      "midi": 64,
      "hit": false,
      "t": 31025.609999999968,
      "d": 240.38437499999782,
      "v": 63
    },
    {
      "midi": 74,
      "hit": false,
      "t": 31028.280937499967,
      "d": 245.7262499999997,
      "v": 73
    },
    {
      "midi": 62,
      "hit": false,
      "t": 31028.280937499967,
      "d": 269.7646874999991,
      "v": 91
    },
    {
      "midi": 67,
      "hit": false,
      "t": 31410.224999999966,
      "d": 293.80312499999854,
      "v": 74
    },
    {
      "midi": 64,
      "hit": false,
      "t": 31410.224999999966,
      "d": 299.1449999999968,
      "v": 63
    },
    {
      "midi": 60,
      "hit": false,
      "t": 31410.224999999966,
      "d": 312.49968749999607,
      "v": 82
    },
    {
      "midi": 72,
      "hit": false,
      "t": 31410.224999999966,
      "d": 328.52531249999447,
      "v": 79
    },
    {
      "midi": 59,
      "hit": false,
      "t": 31800.181874999962,
      "d": 336.5381249999991,
      "v": 82
    },
    {
      "midi": 64,
      "hit": false,
      "t": 31802.85281249996,
      "d": 304.4868749999987,
      "v": 54
    },
    {
      "midi": 67,
      "hit": false,
      "t": 31802.85281249996,
      "d": 339.20906249999825,
      "v": 74
    },
    {
      "midi": 71,
      "hit": false,
      "t": 31802.85281249996,
      "d": 339.20906249999825,
      "v": 73
    },
    {
      "midi": 64,
      "hit": false,
      "t": 32307.65999999996,
      "d": 357.9056249999994,
      "v": 63
    },
    {
      "midi": 60,
      "hit": false,
      "t": 32307.65999999996,
      "d": 395.2987499999981,
      "v": 82
    },
    {
      "midi": 67,
      "hit": false,
      "t": 32310.33093749996,
      "d": 381.94406249999884,
      "v": 74
    },
    {
      "midi": 72,
      "hit": false,
      "t": 32310.33093749996,
      "d": 397.96968749999724,
      "v": 73
    },
    {
      "midi": 65,
      "hit": false,
      "t": 33074.21906249996,
      "d": 285.79031250000116,
      "v": 73
    },
    {
      "midi": 72,
      "hit": false,
      "t": 33074.21906249996,
      "d": 307.15781250000146,
      "v": 82
    },
    {
      "midi": 64,
      "hit": false,
      "t": 33074.21906249996,
      "d": 320.51250000000437,
      "v": 82
    },
    {
      "midi": 76,
      "hit": false,
      "t": 33079.560937499955,
      "d": 264.4228125000009,
      "v": 76
    },
    {
      "midi": 69,
      "hit": false,
      "t": 33079.560937499955,
      "d": 283.11937500000204,
      "v": 73
    },
    {
      "midi": 69,
      "hit": false,
      "t": 33464.17593749996,
      "d": 323.1834374999962,
      "v": 73
    },
    {
      "midi": 74,
      "hit": false,
      "t": 33466.84687499996,
      "d": 328.52531249999447,
      "v": 91
    },
    {
      "midi": 65,
      "hit": false,
      "t": 33469.51781249996,
      "d": 299.1449999999968,
      "v": 64
    },
    {
      "midi": 62,
      "hit": false,
      "t": 33469.51781249996,
      "d": 312.4996874999997,
      "v": 82
    },
    {
      "midi": 60,
      "hit": false,
      "t": 33838.107187499954,
      "d": 77.45718749998923,
      "v": 82
    },
    {
      "midi": 69,
      "hit": false,
      "t": 33840.77812499995,
      "d": 69.44437499999185,
      "v": 73
    },
    {
      "midi": 65,
      "hit": false,
      "t": 33843.44906249995,
      "d": 77.45718749998923,
      "v": 64
    },
    {
      "midi": 72,
      "hit": false,
      "t": 33848.79093749995,
      "d": 50.74781249999796,
      "v": 64
    },
    {
      "midi": 60,
      "hit": false,
      "t": 34097.18812499994,
      "d": 64.10250000000087,
      "v": 81
    },
    {
      "midi": 72,
      "hit": false,
      "t": 34099.85906249994,
      "d": 58.76062500000262,
      "v": 73
    },
    {
      "midi": 65,
      "hit": false,
      "t": 34099.85906249994,
      "d": 61.431562500001746,
      "v": 73
    },
    {
      "midi": 69,
      "hit": false,
      "t": 34099.85906249994,
      "d": 64.10250000000087,
      "v": 91
    },
    {
      "midi": 60,
      "hit": false,
      "t": 34353.598124999946,
      "d": 66.7734375,
      "v": 86
    },
    {
      "midi": 69,
      "hit": false,
      "t": 34356.269062499945,
      "d": 64.10250000000087,
      "v": 82
    },
    {
      "midi": 72,
      "hit": false,
      "t": 34356.269062499945,
      "d": 64.10250000000087,
      "v": 73
    },
    {
      "midi": 65,
      "hit": false,
      "t": 34361.61093749994,
      "d": 66.7734375,
      "v": 73
    },
    {
      "midi": 65,
      "hit": false,
      "t": 34618.02093749995,
      "d": 138.88874999999825,
      "v": 56
    },
    {
      "midi": 69,
      "hit": false,
      "t": 34618.02093749995,
      "d": 149.57249999999476,
      "v": 78
    },
    {
      "midi": 74,
      "hit": false,
      "t": 34618.02093749995,
      "d": 160.25624999999127,
      "v": 82
    },
    {
      "midi": 62,
      "hit": false,
      "t": 34620.691874999946,
      "d": 128.20500000000175,
      "v": 86
    },
    {
      "midi": 74,
      "hit": false,
      "t": 35122.828124999935,
      "d": 288.4612500000003,
      "v": 78
    },
    {
      "midi": 67,
      "hit": false,
      "t": 35122.828124999935,
      "d": 301.8159374999959,
      "v": 64
    },
    {
      "midi": 62,
      "hit": false,
      "t": 35122.828124999935,
      "d": 333.8671874999927,
      "v": 91
    },
    {
      "midi": 64,
      "hit": false,
      "t": 35125.499062499934,
      "d": 288.4612500000003,
      "v": 63
    },
    {
      "midi": 67,
      "hit": false,
      "t": 35518.12687499993,
      "d": 301.8159374999959,
      "v": 73
    },
    {
      "midi": 72,
      "hit": false,
      "t": 35518.12687499993,
      "d": 317.8415624999907,
      "v": 82
    },
    {
      "midi": 64,
      "hit": false,
      "t": 35520.79781249993,
      "d": 293.80312499999854,
      "v": 54
    },
    {
      "midi": 60,
      "hit": false,
      "t": 35520.79781249993,
      "d": 307.1578124999942,
      "v": 91
    },
    {
      "midi": 67,
      "hit": false,
      "t": 35894.72906249992,
      "d": 344.5509374999965,
      "v": 73
    },
    {
      "midi": 64,
      "hit": false,
      "t": 35900.07093749992,
      "d": 339.20906249999825,
      "v": 63
    },
    {
      "midi": 71,
      "hit": false,
      "t": 35900.07093749992,
      "d": 339.20906249999825,
      "v": 73
    },
    {
      "midi": 59,
      "hit": false,
      "t": 35900.07093749992,
      "d": 349.89281249999476,
      "v": 82
    },
    {
      "midi": 60,
      "hit": false,
      "t": 36407.549062499915,
      "d": 480.76874999999563,
      "v": 91
    },
    {
      "midi": 64,
      "hit": false,
      "t": 36410.219999999914,
      "d": 459.4012500000026,
      "v": 63
    },
    {
      "midi": 72,
      "hit": false,
      "t": 36410.219999999914,
      "d": 470.0849999999991,
      "v": 82
    },
    {
      "midi": 67,
      "hit": false,
      "t": 36410.219999999914,
      "d": 478.0978124999965,
      "v": 73
    },
    {
      "midi": 69,
      "hit": false,
      "t": 37176.77906249991,
      "d": 280.44843749999563,
      "v": 73
    },
    {
      "midi": 64,
      "hit": false,
      "t": 37176.77906249991,
      "d": 293.80312499999127,
      "v": 82
    },
    {
      "midi": 65,
      "hit": false,
      "t": 37179.44999999991,
      "d": 285.7903124999939,
      "v": 73
    },
    {
      "midi": 76,
      "hit": false,
      "t": 37182.12093749991,
      "d": 245.7262499999997,
      "v": 67
    },
    {
      "midi": 72,
      "hit": false,
      "t": 37184.79187499991,
      "d": 315.17062499999156,
      "v": 73
    },
    {
      "midi": 65,
      "hit": false,
      "t": 37569.4068749999,
      "d": 331.1962500000009,
      "v": 64
    },
    {
      "midi": 69,
      "hit": false,
      "t": 37572.0778124999,
      "d": 323.1834375000035,
      "v": 91
    },
    {
      "midi": 62,
      "hit": false,
      "t": 37572.0778124999,
      "d": 331.1962500000009,
      "v": 91
    },
    {
      "midi": 74,
      "hit": false,
      "t": 37572.0778124999,
      "d": 347.2218750000029,
      "v": 82
    },
    {
      "midi": 60,
      "hit": false,
      "t": 37948.6799999999,
      "d": 64.1024999999936,
      "v": 82
    },
    {
      "midi": 72,
      "hit": false,
      "t": 37951.3509374999,
      "d": 53.41874999999709,
      "v": 73
    },
    {
      "midi": 69,
      "hit": false,
      "t": 37951.3509374999,
      "d": 64.1024999999936,
      "v": 64
    },
    {
      "midi": 65,
      "hit": false,
      "t": 37951.3509374999,
      "d": 66.77343749999272,
      "v": 64
    },
    {
      "midi": 60,
      "hit": false,
      "t": 38202.41906249989,
      "d": 61.43156249999447,
      "v": 82
    },
    {
      "midi": 65,
      "hit": false,
      "t": 38207.76093749989,
      "d": 58.76062499999534,
      "v": 64
    },
    {
      "midi": 69,
      "hit": false,
      "t": 38207.76093749989,
      "d": 66.77343749999272,
      "v": 91
    },
    {
      "midi": 72,
      "hit": false,
      "t": 38210.431874999886,
      "d": 58.76062499999534,
      "v": 73
    },
    {
      "midi": 60,
      "hit": false,
      "t": 38458.82906249988,
      "d": 85.46999999999389,
      "v": 82
    },
    {
      "midi": 65,
      "hit": false,
      "t": 38464.170937499875,
      "d": 61.431562500001746,
      "v": 73
    },
    {
      "midi": 69,
      "hit": false,
      "t": 38464.170937499875,
      "d": 72.11531249999825,
      "v": 82
    },
    {
      "midi": 72,
      "hit": false,
      "t": 38464.170937499875,
      "d": 72.11531249999825,
      "v": 73
    },
    {
      "midi": 62,
      "hit": false,
      "t": 38723.25187499987,
      "d": 128.20499999999447,
      "v": 82
    },
    {
      "midi": 69,
      "hit": false,
      "t": 38723.25187499987,
      "d": 138.88874999999098,
      "v": 82
    },
    {
      "midi": 65,
      "hit": false,
      "t": 38725.92281249987,
      "d": 117.52124999999796,
      "v": 73
    },
    {
      "midi": 74,
      "hit": false,
      "t": 38725.92281249987,
      "d": 122.86312499999622,
      "v": 91
    },
    {
      "midi": 74,
      "hit": false,
      "t": 39228.05906249986,
      "d": 277.7774999999965,
      "v": 82
    },
    {
      "midi": 67,
      "hit": false,
      "t": 39228.05906249986,
      "d": 285.7903124999939,
      "v": 71
    },
    {
      "midi": 62,
      "hit": false,
      "t": 39230.72999999986,
      "d": 309.8287499999933,
      "v": 91
    },
    {
      "midi": 64,
      "hit": false,
      "t": 39233.40093749986,
      "d": 261.75187500000175,
      "v": 63
    },
    {
      "midi": 60,
      "hit": false,
      "t": 39612.67406249985,
      "d": 331.1962500000009,
      "v": 91
    },
    {
      "midi": 67,
      "hit": false,
      "t": 39618.01593749985,
      "d": 309.8287500000006,
      "v": 77
    },
    {
      "midi": 72,
      "hit": false,
      "t": 39618.01593749985,
      "d": 328.52531250000175,
      "v": 82
    },
    {
      "midi": 64,
      "hit": false,
      "t": 39620.68687499985,
      "d": 304.4868750000023,
      "v": 63
    },
    {
      "midi": 64,
      "hit": false,
      "t": 40005.30187499985,
      "d": 347.2218750000029,
      "v": 62
    },
    {
      "midi": 67,
      "hit": false,
      "t": 40005.30187499985,
      "d": 355.2346875000003,
      "v": 71
    },
    {
      "midi": 71,
      "hit": false,
      "t": 40005.30187499985,
      "d": 363.2474999999977,
      "v": 73
    },
    {
      "midi": 59,
      "hit": false,
      "t": 40005.30187499985,
      "d": 365.9184374999968,
      "v": 91
    },
    {
      "midi": 64,
      "hit": false,
      "t": 40510.10906249985,
      "d": 400.640625,
      "v": 63
    },
    {
      "midi": 60,
      "hit": false,
      "t": 40510.10906249985,
      "d": 424.6790624999994,
      "v": 82
    },
    {
      "midi": 72,
      "hit": false,
      "t": 40510.10906249985,
      "d": 424.6790624999994,
      "v": 82
    },
    {
      "midi": 67,
      "hit": false,
      "t": 40510.10906249985,
      "d": 427.34999999999854,
      "v": 81
    },
    {
      "midi": 69,
      "hit": false,
      "t": 41273.997187499845,
      "d": 301.8159375000032,
      "v": 73
    },
    {
      "midi": 65,
      "hit": false,
      "t": 41276.668124999844,
      "d": 277.7775000000038,
      "v": 73
    },
    {
      "midi": 72,
      "hit": false,
      "t": 41276.668124999844,
      "d": 285.79031250000116,
      "v": 73
    },
    {
      "midi": 64,
      "hit": false,
      "t": 41276.668124999844,
      "d": 307.15781250000146,
      "v": 91
    },
    {
      "midi": 76,
      "hit": false,
      "t": 41279.33906249984,
      "d": 259.0809375000026,
      "v": 82
    },
    {
      "midi": 69,
      "hit": false,
      "t": 41663.95406249985,
      "d": 315.17062499999156,
      "v": 82
    },
    {
      "midi": 62,
      "hit": false,
      "t": 41669.295937499846,
      "d": 315.17062499999156,
      "v": 82
    },
    {
      "midi": 65,
      "hit": false,
      "t": 41671.966874999845,
      "d": 299.1449999999968,
      "v": 73
    },
    {
      "midi": 74,
      "hit": false,
      "t": 41671.966874999845,
      "d": 317.8415624999907,
      "v": 82
    },
    {
      "midi": 72,
      "hit": false,
      "t": 42045.89812499984,
      "d": 61.431562500001746,
      "v": 82
    },
    {
      "midi": 69,
      "hit": false,
      "t": 42045.89812499984,
      "d": 74.78624999999738,
      "v": 73
    },
    {
      "midi": 65,
      "hit": false,
      "t": 42045.89812499984,
      "d": 80.12812499999563,
      "v": 73
    },
    {
      "midi": 60,
      "hit": false,
      "t": 42048.56906249984,
      "d": 61.431562500001746,
      "v": 82
    },
    {
      "midi": 69,
      "hit": false,
      "t": 42307.649999999834,
      "d": 64.1024999999936,
      "v": 82
    },
    {
      "midi": 65,
      "hit": false,
      "t": 42310.32093749983,
      "d": 53.41874999999709,
      "v": 73
    },
    {
      "midi": 60,
      "hit": false,
      "t": 42310.32093749983,
      "d": 64.1024999999936,
      "v": 82
    },
    {
      "midi": 72,
      "hit": false,
      "t": 42312.99187499983,
      "d": 64.1024999999936,
      "v": 73
    },
    {
      "midi": 69,
      "hit": false,
      "t": 42561.389062499824,
      "d": 74.78624999999738,
      "v": 82
    },
    {
      "midi": 72,
      "hit": false,
      "t": 42566.73093749982,
      "d": 58.76062500000262,
      "v": 82
    },
    {
      "midi": 60,
      "hit": false,
      "t": 42566.73093749982,
      "d": 64.10250000000087,
      "v": 91
    },
    {
      "midi": 65,
      "hit": false,
      "t": 42569.40187499982,
      "d": 69.44437499999913,
      "v": 64
    },
    {
      "midi": 69,
      "hit": false,
      "t": 42817.79906249982,
      "d": 130.87593750000087,
      "v": 81
    },
    {
      "midi": 65,
      "hit": false,
      "t": 42823.14093749982,
      "d": 122.86312500000349,
      "v": 73
    },
    {
      "midi": 62,
      "hit": false,
      "t": 42825.81187499982,
      "d": 80.12812500000291,
      "v": 73
    },
    {
      "midi": 74,
      "hit": false,
      "t": 42825.81187499982,
      "d": 117.52125000000524,
      "v": 82
    },
    {
      "midi": 36,
      "hit": false,
      "t": 43074.20906249982,
      "d": 200.3203125,
      "v": 88
    },
    {
      "midi": 76,
      "hit": false,
      "t": 45996.21468749982,
      "d": 48.07687499999156,
      "v": 44
    },
    {
      "midi": 74,
      "hit": false,
      "t": 45998.88562499982,
      "d": 10.683749999996508,
      "v": 16
    },
    {
      "midi": 77,
      "hit": false,
      "t": 46017.582187499815,
      "d": 48.076874999998836,
      "v": 64
    },
    {
      "midi": 79,
      "hit": false,
      "t": 46038.949687499815,
      "d": 61.43156249999447,
      "v": 73
    },
    {
      "midi": 81,
      "hit": false,
      "t": 46062.988124999814,
      "d": 61.43156249999447,
      "v": 82
    },
    {
      "midi": 83,
      "hit": false,
      "t": 46095.03937499981,
      "d": 48.076874999998836,
      "v": 82
    },
    {
      "midi": 84,
      "hit": false,
      "t": 46121.74874999981,
      "d": 56.08968749999622,
      "v": 82
    },
    {
      "midi": 86,
      "hit": false,
      "t": 46143.11624999981,
      "d": 56.08968749999622,
      "v": 82
    },
    {
      "midi": 88,
      "hit": false,
      "t": 46169.82562499981,
      "d": 48.076874999998836,
      "v": 82
    },
    {
      "midi": 89,
      "hit": false,
      "t": 46193.86406249981,
      "d": 34.722187499995925,
      "v": 56
    },
    {
      "midi": 91,
      "hit": false,
      "t": 46217.90249999981,
      "d": 29.38031249999767,
      "v": 81
    },
    {
      "midi": 93,
      "hit": false,
      "t": 46244.611874999806,
      "d": 24.038437499999418,
      "v": 84
    },
    {
      "midi": 95,
      "hit": false,
      "t": 46273.9921874998,
      "d": 18.696562500001164,
      "v": 87
    },
    {
      "midi": 96,
      "hit": false,
      "t": 46682.64562499981,
      "d": 48.076874999998836,
      "v": 82
    },
    {
      "midi": 95,
      "hit": false,
      "t": 46696.00031249981,
      "d": 48.07687499999156,
      "v": 82
    },
    {
      "midi": 93,
      "hit": false,
      "t": 46722.70968749981,
      "d": 42.734999999993306,
      "v": 78
    },
    {
      "midi": 91,
      "hit": false,
      "t": 46738.735312499804,
      "d": 56.08968750000349,
      "v": 80
    },
    {
      "midi": 89,
      "hit": false,
      "t": 46760.102812499805,
      "d": 58.76062500000262,
      "v": 53
    },
    {
      "midi": 88,
      "hit": false,
      "t": 46781.470312499805,
      "d": 56.08968749999622,
      "v": 71
    },
    {
      "midi": 86,
      "hit": false,
      "t": 46805.508749999804,
      "d": 58.76062499999534,
      "v": 71
    },
    {
      "midi": 84,
      "hit": false,
      "t": 46829.547187499804,
      "d": 58.76062499999534,
      "v": 71
    },
    {
      "midi": 83,
      "hit": false,
      "t": 46853.5856249998,
      "d": 56.08968749999622,
      "v": 62
    },
    {
      "midi": 81,
      "hit": false,
      "t": 46874.953124999796,
      "d": 53.418750000004366,
      "v": 71
    },
    {
      "midi": 79,
      "hit": false,
      "t": 46896.3206249998,
      "d": 61.431562500001746,
      "v": 71
    },
    {
      "midi": 77,
      "hit": false,
      "t": 46923.0299999998,
      "d": 58.76062499999534,
      "v": 62
    },
    {
      "midi": 76,
      "hit": false,
      "t": 46955.0812499998,
      "d": 50.74781249999796,
      "v": 71
    },
    {
      "midi": 74,
      "hit": false,
      "t": 46976.4487499998,
      "d": 53.41874999999709,
      "v": 71
    },
    {
      "midi": 72,
      "hit": false,
      "t": 47005.8290624998,
      "d": 58.76062500000262,
      "v": 53
    },
    {
      "midi": 71,
      "hit": false,
      "t": 47029.8674999998,
      "d": 58.76062500000262,
      "v": 62
    },
    {
      "midi": 69,
      "hit": false,
      "t": 47069.9315624998,
      "d": 50.74781249999796,
      "v": 62
    },
    {
      "midi": 67,
      "hit": false,
      "t": 47088.6281249998,
      "d": 61.43156249999447,
      "v": 62
    },
    {
      "midi": 65,
      "hit": false,
      "t": 47120.679374999796,
      "d": 58.76062499999534,
      "v": 53
    },
    {
      "midi": 64,
      "hit": false,
      "t": 47155.40156249979,
      "d": 32.0512499999968,
      "v": 53
    },
    {
      "midi": 67,
      "hit": false,
      "t": 47430.50812499979,
      "d": 283.11937499999476,
      "v": 71
    },
    {
      "midi": 64,
      "hit": false,
      "t": 47435.84999999979,
      "d": 240.38437500000146,
      "v": 63
    },
    {
      "midi": 74,
      "hit": false,
      "t": 47438.52093749979,
      "d": 245.7262499999997,
      "v": 73
    },
    {
      "midi": 62,
      "hit": false,
      "t": 47438.52093749979,
      "d": 269.7646874999991,
      "v": 91
    },
    {
      "midi": 67,
      "hit": false,
      "t": 47820.464999999786,
      "d": 293.80312499999854,
      "v": 74
    },
    {
      "midi": 64,
      "hit": false,
      "t": 47820.464999999786,
      "d": 299.1449999999968,
      "v": 63
    },
    {
      "midi": 60,
      "hit": false,
      "t": 47820.464999999786,
      "d": 312.4996874999997,
      "v": 82
    },
    {
      "midi": 72,
      "hit": false,
      "t": 47820.464999999786,
      "d": 328.52531250000175,
      "v": 79
    },
    {
      "midi": 59,
      "hit": false,
      "t": 48210.42187499979,
      "d": 336.5381249999991,
      "v": 82
    },
    {
      "midi": 64,
      "hit": false,
      "t": 48213.09281249979,
      "d": 304.4868750000023,
      "v": 54
    },
    {
      "midi": 67,
      "hit": false,
      "t": 48213.09281249979,
      "d": 339.20906249999825,
      "v": 74
    },
    {
      "midi": 71,
      "hit": false,
      "t": 48213.09281249979,
      "d": 339.20906249999825,
      "v": 73
    },
    {
      "midi": 64,
      "hit": false,
      "t": 48717.89999999978,
      "d": 357.9056249999994,
      "v": 63
    },
    {
      "midi": 60,
      "hit": false,
      "t": 48717.89999999978,
      "d": 395.29874999999447,
      "v": 82
    },
    {
      "midi": 67,
      "hit": false,
      "t": 48720.57093749978,
      "d": 381.94406249999884,
      "v": 74
    },
    {
      "midi": 72,
      "hit": false,
      "t": 48720.57093749978,
      "d": 397.9696874999936,
      "v": 73
    },
    {
      "midi": 65,
      "hit": false,
      "t": 49484.45906249977,
      "d": 285.79031250000116,
      "v": 73
    },
    {
      "midi": 72,
      "hit": false,
      "t": 49484.45906249977,
      "d": 307.15781250000146,
      "v": 82
    },
    {
      "midi": 64,
      "hit": false,
      "t": 49484.45906249977,
      "d": 320.51250000000437,
      "v": 82
    },
    {
      "midi": 76,
      "hit": false,
      "t": 49489.80093749977,
      "d": 264.4228125000009,
      "v": 76
    },
    {
      "midi": 69,
      "hit": false,
      "t": 49489.80093749977,
      "d": 283.11937500000204,
      "v": 73
    },
    {
      "midi": 69,
      "hit": false,
      "t": 49874.415937499776,
      "d": 323.1834374999962,
      "v": 73
    },
    {
      "midi": 74,
      "hit": false,
      "t": 49877.086874999775,
      "d": 328.52531249999447,
      "v": 91
    },
    {
      "midi": 65,
      "hit": false,
      "t": 49879.757812499774,
      "d": 299.1449999999968,
      "v": 64
    },
    {
      "midi": 62,
      "hit": false,
      "t": 49879.757812499774,
      "d": 312.4996874999997,
      "v": 82
    },
    {
      "midi": 60,
      "hit": false,
      "t": 50248.34718749977,
      "d": 77.45718749998923,
      "v": 82
    },
    {
      "midi": 69,
      "hit": false,
      "t": 50251.01812499977,
      "d": 69.44437499999185,
      "v": 73
    },
    {
      "midi": 65,
      "hit": false,
      "t": 50253.68906249977,
      "d": 77.45718749998923,
      "v": 64
    },
    {
      "midi": 72,
      "hit": false,
      "t": 50259.03093749977,
      "d": 50.74781249999796,
      "v": 64
    },
    {
      "midi": 60,
      "hit": false,
      "t": 50507.42812499976,
      "d": 64.10250000000087,
      "v": 81
    },
    {
      "midi": 72,
      "hit": false,
      "t": 50510.09906249976,
      "d": 58.76062500000262,
      "v": 73
    },
    {
      "midi": 65,
      "hit": false,
      "t": 50510.09906249976,
      "d": 61.431562500001746,
      "v": 73
    },
    {
      "midi": 69,
      "hit": false,
      "t": 50510.09906249976,
      "d": 64.10250000000087,
      "v": 91
    },
    {
      "midi": 60,
      "hit": false,
      "t": 50763.83812499976,
      "d": 66.7734375,
      "v": 86
    },
    {
      "midi": 69,
      "hit": false,
      "t": 50766.50906249976,
      "d": 64.10250000000087,
      "v": 82
    },
    {
      "midi": 72,
      "hit": false,
      "t": 50766.50906249976,
      "d": 64.10250000000087,
      "v": 73
    },
    {
      "midi": 65,
      "hit": false,
      "t": 50771.85093749976,
      "d": 66.7734375,
      "v": 73
    },
    {
      "midi": 65,
      "hit": false,
      "t": 51028.26093749976,
      "d": 138.88874999999825,
      "v": 56
    },
    {
      "midi": 69,
      "hit": false,
      "t": 51028.26093749976,
      "d": 149.57249999999476,
      "v": 78
    },
    {
      "midi": 74,
      "hit": false,
      "t": 51028.26093749976,
      "d": 160.25624999999127,
      "v": 72
    },
    {
      "midi": 62,
      "hit": false,
      "t": 51030.93187499976,
      "d": 128.20500000000175,
      "v": 86
    },
    {
      "midi": 74,
      "hit": false,
      "t": 51533.06812499975,
      "d": 288.4612500000003,
      "v": 78
    },
    {
      "midi": 67,
      "hit": false,
      "t": 51533.06812499975,
      "d": 301.8159374999959,
      "v": 64
    },
    {
      "midi": 62,
      "hit": false,
      "t": 51533.06812499975,
      "d": 333.8671874999927,
      "v": 91
    },
    {
      "midi": 64,
      "hit": false,
      "t": 51535.73906249975,
      "d": 288.4612500000003,
      "v": 63
    },
    {
      "midi": 67,
      "hit": false,
      "t": 51928.366874999745,
      "d": 301.8159374999959,
      "v": 73
    },
    {
      "midi": 72,
      "hit": false,
      "t": 51928.366874999745,
      "d": 317.8415624999907,
      "v": 82
    },
    {
      "midi": 64,
      "hit": false,
      "t": 51931.037812499744,
      "d": 293.80312499999854,
      "v": 54
    },
    {
      "midi": 60,
      "hit": false,
      "t": 51931.037812499744,
      "d": 307.1578124999942,
      "v": 91
    },
    {
      "midi": 67,
      "hit": false,
      "t": 52304.96906249974,
      "d": 344.5509374999965,
      "v": 73
    },
    {
      "midi": 64,
      "hit": false,
      "t": 52310.31093749974,
      "d": 339.20906249999825,
      "v": 63
    },
    {
      "midi": 71,
      "hit": false,
      "t": 52310.31093749974,
      "d": 339.20906249999825,
      "v": 73
    },
    {
      "midi": 59,
      "hit": false,
      "t": 52310.31093749974,
      "d": 349.89281249999476,
      "v": 82
    },
    {
      "midi": 60,
      "hit": false,
      "t": 52817.78906249973,
      "d": 480.76874999999563,
      "v": 91
    },
    {
      "midi": 64,
      "hit": false,
      "t": 52820.45999999973,
      "d": 459.4012500000026,
      "v": 63
    },
    {
      "midi": 72,
      "hit": false,
      "t": 52820.45999999973,
      "d": 470.0849999999991,
      "v": 82
    },
    {
      "midi": 67,
      "hit": false,
      "t": 52820.45999999973,
      "d": 478.0978124999965,
      "v": 73
    },
    {
      "midi": 69,
      "hit": false,
      "t": 53587.01906249973,
      "d": 280.44843749999563,
      "v": 73
    },
    {
      "midi": 64,
      "hit": false,
      "t": 53587.01906249973,
      "d": 293.80312499999127,
      "v": 82
    },
    {
      "midi": 65,
      "hit": false,
      "t": 53589.689999999726,
      "d": 285.7903124999939,
      "v": 73
    },
    {
      "midi": 76,
      "hit": false,
      "t": 53592.360937499725,
      "d": 245.7262499999997,
      "v": 67
    },
    {
      "midi": 72,
      "hit": false,
      "t": 53595.031874999724,
      "d": 315.17062499999156,
      "v": 73
    },
    {
      "midi": 65,
      "hit": false,
      "t": 53979.646874999715,
      "d": 331.1962500000009,
      "v": 64
    },
    {
      "midi": 69,
      "hit": false,
      "t": 53982.317812499714,
      "d": 323.1834375000035,
      "v": 91
    },
    {
      "midi": 62,
      "hit": false,
      "t": 53982.317812499714,
      "d": 331.1962500000009,
      "v": 91
    },
    {
      "midi": 74,
      "hit": false,
      "t": 53982.317812499714,
      "d": 347.2218750000029,
      "v": 82
    },
    {
      "midi": 60,
      "hit": false,
      "t": 54358.919999999714,
      "d": 64.1024999999936,
      "v": 82
    },
    {
      "midi": 72,
      "hit": false,
      "t": 54361.59093749971,
      "d": 53.41874999999709,
      "v": 73
    },
    {
      "midi": 69,
      "hit": false,
      "t": 54361.59093749971,
      "d": 64.1024999999936,
      "v": 64
    },
    {
      "midi": 65,
      "hit": false,
      "t": 54361.59093749971,
      "d": 66.77343749999272,
      "v": 64
    },
    {
      "midi": 60,
      "hit": false,
      "t": 54612.659062499704,
      "d": 61.43156249999447,
      "v": 82
    },
    {
      "midi": 65,
      "hit": false,
      "t": 54618.0009374997,
      "d": 58.76062499999534,
      "v": 64
    },
    {
      "midi": 69,
      "hit": false,
      "t": 54618.0009374997,
      "d": 66.77343749999272,
      "v": 91
    },
    {
      "midi": 72,
      "hit": false,
      "t": 54620.6718749997,
      "d": 58.76062499999534,
      "v": 73
    },
    {
      "midi": 60,
      "hit": false,
      "t": 54869.06906249969,
      "d": 85.46999999999389,
      "v": 82
    },
    {
      "midi": 65,
      "hit": false,
      "t": 54874.41093749969,
      "d": 61.431562500001746,
      "v": 73
    },
    {
      "midi": 69,
      "hit": false,
      "t": 54874.41093749969,
      "d": 72.11531249999825,
      "v": 82
    },
    {
      "midi": 72,
      "hit": false,
      "t": 54874.41093749969,
      "d": 72.11531249999825,
      "v": 73
    },
    {
      "midi": 62,
      "hit": false,
      "t": 55133.49187499969,
      "d": 128.20499999999447,
      "v": 82
    },
    {
      "midi": 69,
      "hit": false,
      "t": 55133.49187499969,
      "d": 138.88874999999098,
      "v": 82
    },
    {
      "midi": 65,
      "hit": false,
      "t": 55136.162812499686,
      "d": 117.52124999999796,
      "v": 73
    },
    {
      "midi": 74,
      "hit": false,
      "t": 55136.162812499686,
      "d": 122.86312499999622,
      "v": 91
    },
    {
      "midi": 74,
      "hit": false,
      "t": 55638.299062499675,
      "d": 277.7774999999965,
      "v": 82
    },
    {
      "midi": 67,
      "hit": false,
      "t": 55638.299062499675,
      "d": 285.7903124999939,
      "v": 71
    },
    {
      "midi": 62,
      "hit": false,
      "t": 55640.969999999674,
      "d": 309.8287499999933,
      "v": 91
    },
    {
      "midi": 64,
      "hit": false,
      "t": 55643.64093749967,
      "d": 261.75187500000175,
      "v": 63
    },
    {
      "midi": 60,
      "hit": false,
      "t": 56022.914062499665,
      "d": 331.1962500000009,
      "v": 91
    },
    {
      "midi": 67,
      "hit": false,
      "t": 56028.25593749966,
      "d": 309.8287500000006,
      "v": 77
    },
    {
      "midi": 72,
      "hit": false,
      "t": 56028.25593749966,
      "d": 328.52531250000175,
      "v": 82
    },
    {
      "midi": 64,
      "hit": false,
      "t": 56030.92687499966,
      "d": 304.4868750000023,
      "v": 63
    },
    {
      "midi": 64,
      "hit": false,
      "t": 56415.54187499967,
      "d": 347.2218750000029,
      "v": 62
    },
    {
      "midi": 67,
      "hit": false,
      "t": 56415.54187499967,
      "d": 355.2346875000003,
      "v": 71
    },
    {
      "midi": 71,
      "hit": false,
      "t": 56415.54187499967,
      "d": 363.2474999999977,
      "v": 73
    },
    {
      "midi": 59,
      "hit": false,
      "t": 56415.54187499967,
      "d": 365.9184374999968,
      "v": 91
    },
    {
      "midi": 64,
      "hit": false,
      "t": 56920.34906249966,
      "d": 400.640625,
      "v": 63
    },
    {
      "midi": 60,
      "hit": false,
      "t": 56920.34906249966,
      "d": 424.6790624999994,
      "v": 82
    },
    {
      "midi": 72,
      "hit": false,
      "t": 56920.34906249966,
      "d": 424.6790624999994,
      "v": 82
    },
    {
      "midi": 67,
      "hit": false,
      "t": 56920.34906249966,
      "d": 427.34999999999854,
      "v": 81
    },
    {
      "midi": 69,
      "hit": false,
      "t": 57684.23718749966,
      "d": 301.8159375000032,
      "v": 73
    },
    {
      "midi": 65,
      "hit": false,
      "t": 57686.90812499966,
      "d": 277.7775000000038,
      "v": 73
    },
    {
      "midi": 72,
      "hit": false,
      "t": 57686.90812499966,
      "d": 285.79031250000116,
      "v": 73
    },
    {
      "midi": 64,
      "hit": false,
      "t": 57686.90812499966,
      "d": 307.15781250000146,
      "v": 91
    },
    {
      "midi": 76,
      "hit": false,
      "t": 57689.57906249966,
      "d": 259.0809375000026,
      "v": 82
    },
    {
      "midi": 69,
      "hit": false,
      "t": 58074.194062499664,
      "d": 315.17062499999156,
      "v": 82
    },
    {
      "midi": 62,
      "hit": false,
      "t": 58079.53593749966,
      "d": 315.17062499999156,
      "v": 82
    },
    {
      "midi": 65,
      "hit": false,
      "t": 58082.20687499966,
      "d": 299.1449999999968,
      "v": 73
    },
    {
      "midi": 74,
      "hit": false,
      "t": 58082.20687499966,
      "d": 317.8415624999907,
      "v": 82
    },
    {
      "midi": 72,
      "hit": false,
      "t": 58456.138124999656,
      "d": 61.431562500001746,
      "v": 82
    },
    {
      "midi": 69,
      "hit": false,
      "t": 58456.138124999656,
      "d": 74.78624999999738,
      "v": 73
    },
    {
      "midi": 65,
      "hit": false,
      "t": 58456.138124999656,
      "d": 80.12812499999563,
      "v": 73
    },
    {
      "midi": 60,
      "hit": false,
      "t": 58458.809062499655,
      "d": 61.431562500001746,
      "v": 82
    },
    {
      "midi": 69,
      "hit": false,
      "t": 58717.88999999965,
      "d": 64.1024999999936,
      "v": 82
    },
    {
      "midi": 65,
      "hit": false,
      "t": 58720.56093749965,
      "d": 53.41874999999709,
      "v": 73
    },
    {
      "midi": 60,
      "hit": false,
      "t": 58720.56093749965,
      "d": 64.1024999999936,
      "v": 82
    },
    {
      "midi": 72,
      "hit": false,
      "t": 58723.23187499965,
      "d": 64.1024999999936,
      "v": 73
    },
    {
      "midi": 69,
      "hit": false,
      "t": 58971.62906249964,
      "d": 74.78624999999738,
      "v": 82
    },
    {
      "midi": 72,
      "hit": false,
      "t": 58976.97093749964,
      "d": 58.76062500000262,
      "v": 82
    },
    {
      "midi": 60,
      "hit": false,
      "t": 58976.97093749964,
      "d": 64.10250000000087,
      "v": 91
    },
    {
      "midi": 65,
      "hit": false,
      "t": 58979.64187499964,
      "d": 69.44437499999913,
      "v": 64
    },
    {
      "midi": 69,
      "hit": false,
      "t": 59228.039062499636,
      "d": 130.87593750000087,
      "v": 81
    },
    {
      "midi": 65,
      "hit": false,
      "t": 59233.380937499634,
      "d": 122.86312500000349,
      "v": 73
    },
    {
      "midi": 62,
      "hit": false,
      "t": 59236.05187499963,
      "d": 80.12812500000291,
      "v": 73
    },
    {
      "midi": 74,
      "hit": false,
      "t": 59236.05187499963,
      "d": 117.52125000000524,
      "v": 82
    },
    {
      "midi": 67,
      "hit": false,
      "t": 59738.18812499964,
      "d": 283.11937499999476,
      "v": 71
    },
    {
      "midi": 64,
      "hit": false,
      "t": 59743.529999999635,
      "d": 240.38437500000146,
      "v": 63
    },
    {
      "midi": 74,
      "hit": false,
      "t": 59746.200937499634,
      "d": 245.7262499999997,
      "v": 73
    },
    {
      "midi": 62,
      "hit": false,
      "t": 59746.200937499634,
      "d": 269.7646874999991,
      "v": 91
    },
    {
      "midi": 67,
      "hit": false,
      "t": 60128.14499999963,
      "d": 293.80312499999854,
      "v": 74
    },
    {
      "midi": 64,
      "hit": false,
      "t": 60128.14499999963,
      "d": 299.1449999999968,
      "v": 63
    },
    {
      "midi": 60,
      "hit": false,
      "t": 60128.14499999963,
      "d": 312.4996874999997,
      "v": 82
    },
    {
      "midi": 72,
      "hit": false,
      "t": 60128.14499999963,
      "d": 328.52531250000175,
      "v": 79
    },
    {
      "midi": 59,
      "hit": false,
      "t": 60518.10187499964,
      "d": 336.5381249999991,
      "v": 82
    },
    {
      "midi": 64,
      "hit": false,
      "t": 60520.772812499636,
      "d": 304.4868750000023,
      "v": 54
    },
    {
      "midi": 67,
      "hit": false,
      "t": 60520.772812499636,
      "d": 339.20906249999825,
      "v": 74
    },
    {
      "midi": 71,
      "hit": false,
      "t": 60520.772812499636,
      "d": 339.20906249999825,
      "v": 73
    },
    {
      "midi": 64,
      "hit": false,
      "t": 61025.57999999963,
      "d": 357.9056249999994,
      "v": 63
    },
    {
      "midi": 60,
      "hit": false,
      "t": 61025.57999999963,
      "d": 395.29874999999447,
      "v": 82
    },
    {
      "midi": 67,
      "hit": false,
      "t": 61028.25093749963,
      "d": 381.94406249999884,
      "v": 74
    },
    {
      "midi": 72,
      "hit": false,
      "t": 61028.25093749963,
      "d": 397.9696874999936,
      "v": 73
    },
    {
      "midi": 65,
      "hit": false,
      "t": 61792.13906249962,
      "d": 285.79031250000116,
      "v": 73
    },
    {
      "midi": 72,
      "hit": false,
      "t": 61792.13906249962,
      "d": 307.15781250000146,
      "v": 82
    },
    {
      "midi": 64,
      "hit": false,
      "t": 61792.13906249962,
      "d": 320.51250000000437,
      "v": 82
    },
    {
      "midi": 76,
      "hit": false,
      "t": 61797.48093749962,
      "d": 264.4228125000009,
      "v": 76
    },
    {
      "midi": 69,
      "hit": false,
      "t": 61797.48093749962,
      "d": 283.11937500000204,
      "v": 73
    },
    {
      "midi": 69,
      "hit": false,
      "t": 62182.095937499624,
      "d": 323.1834374999962,
      "v": 73
    },
    {
      "midi": 74,
      "hit": false,
      "t": 62184.76687499962,
      "d": 328.52531249999447,
      "v": 91
    },
    {
      "midi": 65,
      "hit": false,
      "t": 62187.43781249962,
      "d": 299.1449999999968,
      "v": 64
    },
    {
      "midi": 62,
      "hit": false,
      "t": 62187.43781249962,
      "d": 312.4996874999997,
      "v": 82
    },
    {
      "midi": 60,
      "hit": false,
      "t": 62556.02718749962,
      "d": 77.45718749998923,
      "v": 82
    },
    {
      "midi": 69,
      "hit": false,
      "t": 62558.69812499962,
      "d": 69.44437499999185,
      "v": 73
    },
    {
      "midi": 65,
      "hit": false,
      "t": 62561.369062499616,
      "d": 77.45718749998923,
      "v": 64
    },
    {
      "midi": 72,
      "hit": false,
      "t": 62566.710937499614,
      "d": 50.74781249999796,
      "v": 64
    },
    {
      "midi": 60,
      "hit": false,
      "t": 62815.108124999606,
      "d": 64.10250000000087,
      "v": 81
    },
    {
      "midi": 72,
      "hit": false,
      "t": 62817.779062499605,
      "d": 58.76062500000262,
      "v": 73
    },
    {
      "midi": 65,
      "hit": false,
      "t": 62817.779062499605,
      "d": 61.431562500001746,
      "v": 73
    },
    {
      "midi": 69,
      "hit": false,
      "t": 62817.779062499605,
      "d": 64.10250000000087,
      "v": 91
    },
    {
      "midi": 60,
      "hit": false,
      "t": 63071.51812499961,
      "d": 66.7734375,
      "v": 86
    },
    {
      "midi": 69,
      "hit": false,
      "t": 63074.18906249961,
      "d": 64.10250000000087,
      "v": 82
    },
    {
      "midi": 72,
      "hit": false,
      "t": 63074.18906249961,
      "d": 64.10250000000087,
      "v": 73
    },
    {
      "midi": 65,
      "hit": false,
      "t": 63079.53093749961,
      "d": 66.7734375,
      "v": 73
    },
    {
      "midi": 65,
      "hit": false,
      "t": 63335.94093749961,
      "d": 138.88874999999825,
      "v": 56
    },
    {
      "midi": 69,
      "hit": false,
      "t": 63335.94093749961,
      "d": 149.57249999999476,
      "v": 78
    },
    {
      "midi": 74,
      "hit": false,
      "t": 63335.94093749961,
      "d": 160.25624999999127,
      "v": 72
    },
    {
      "midi": 62,
      "hit": false,
      "t": 63338.61187499961,
      "d": 128.20500000000175,
      "v": 86
    },
    {
      "midi": 74,
      "hit": false,
      "t": 63840.7481249996,
      "d": 288.4612500000003,
      "v": 78
    },
    {
      "midi": 67,
      "hit": false,
      "t": 63840.7481249996,
      "d": 301.8159374999959,
      "v": 64
    },
    {
      "midi": 62,
      "hit": false,
      "t": 63840.7481249996,
      "d": 333.8671874999927,
      "v": 91
    },
    {
      "midi": 64,
      "hit": false,
      "t": 63843.4190624996,
      "d": 288.4612500000003,
      "v": 63
    },
    {
      "midi": 67,
      "hit": false,
      "t": 64236.04687499959,
      "d": 301.8159374999959,
      "v": 73
    },
    {
      "midi": 72,
      "hit": false,
      "t": 64236.04687499959,
      "d": 317.8415624999907,
      "v": 82
    },
    {
      "midi": 64,
      "hit": false,
      "t": 64238.71781249959,
      "d": 293.80312499999854,
      "v": 54
    },
    {
      "midi": 60,
      "hit": false,
      "t": 64238.71781249959,
      "d": 307.1578124999942,
      "v": 91
    },
    {
      "midi": 67,
      "hit": false,
      "t": 64612.649062499586,
      "d": 344.5509374999965,
      "v": 73
    },
    {
      "midi": 64,
      "hit": false,
      "t": 64617.990937499584,
      "d": 339.20906249999825,
      "v": 63
    },
    {
      "midi": 71,
      "hit": false,
      "t": 64617.990937499584,
      "d": 339.20906249999825,
      "v": 73
    },
    {
      "midi": 59,
      "hit": false,
      "t": 64617.990937499584,
      "d": 349.89281249999476,
      "v": 82
    },
    {
      "midi": 60,
      "hit": false,
      "t": 65125.46906249958,
      "d": 480.76874999999563,
      "v": 91
    },
    {
      "midi": 64,
      "hit": false,
      "t": 65128.13999999958,
      "d": 459.40124999999534,
      "v": 63
    },
    {
      "midi": 72,
      "hit": false,
      "t": 65128.13999999958,
      "d": 470.08499999999185,
      "v": 82
    },
    {
      "midi": 67,
      "hit": false,
      "t": 65128.13999999958,
      "d": 478.0978124999965,
      "v": 73
    },
    {
      "midi": 69,
      "hit": false,
      "t": 65894.69906249957,
      "d": 280.44843750001746,
      "v": 73
    },
    {
      "midi": 64,
      "hit": false,
      "t": 65894.69906249957,
      "d": 293.8031250000204,
      "v": 82
    },
    {
      "midi": 65,
      "hit": false,
      "t": 65897.36999999957,
      "d": 285.7903125000157,
      "v": 73
    },
    {
      "midi": 76,
      "hit": false,
      "t": 65900.04093749958,
      "d": 245.72625000000698,
      "v": 67
    },
    {
      "midi": 72,
      "hit": false,
      "t": 65902.71187499959,
      "d": 315.17062499999884,
      "v": 73
    },
    {
      "midi": 65,
      "hit": false,
      "t": 66287.32687499959,
      "d": 331.19625000000815,
      "v": 64
    },
    {
      "midi": 69,
      "hit": false,
      "t": 66289.9978124996,
      "d": 323.1834375000035,
      "v": 91
    },
    {
      "midi": 62,
      "hit": false,
      "t": 66289.9978124996,
      "d": 331.19625000000815,
      "v": 91
    },
    {
      "midi": 74,
      "hit": false,
      "t": 66289.9978124996,
      "d": 347.2218750000029,
      "v": 82
    },
    {
      "midi": 60,
      "hit": false,
      "t": 66666.5999999996,
      "d": 64.10250000000815,
      "v": 82
    },
    {
      "midi": 72,
      "hit": false,
      "t": 66669.2709374996,
      "d": 53.41874999999709,
      "v": 73
    },
    {
      "midi": 69,
      "hit": false,
      "t": 66669.2709374996,
      "d": 64.10250000000815,
      "v": 64
    },
    {
      "midi": 65,
      "hit": false,
      "t": 66669.2709374996,
      "d": 66.77343750001455,
      "v": 64
    },
    {
      "midi": 60,
      "hit": false,
      "t": 66920.33906249962,
      "d": 61.431562500001746,
      "v": 82
    },
    {
      "midi": 65,
      "hit": false,
      "t": 66925.68093749962,
      "d": 58.760625000009895,
      "v": 64
    },
    {
      "midi": 69,
      "hit": false,
      "t": 66925.68093749962,
      "d": 66.77343750001455,
      "v": 91
    },
    {
      "midi": 72,
      "hit": false,
      "t": 66928.35187499963,
      "d": 58.760625000009895,
      "v": 73
    },
    {
      "midi": 60,
      "hit": false,
      "t": 67176.74906249964,
      "d": 85.47000000000116,
      "v": 82
    },
    {
      "midi": 65,
      "hit": false,
      "t": 67182.09093749964,
      "d": 61.431562500001746,
      "v": 73
    },
    {
      "midi": 69,
      "hit": false,
      "t": 67182.09093749964,
      "d": 72.11531249999825,
      "v": 82
    },
    {
      "midi": 72,
      "hit": false,
      "t": 67182.09093749964,
      "d": 72.11531249999825,
      "v": 73
    },
    {
      "midi": 62,
      "hit": false,
      "t": 67441.17187499965,
      "d": 128.2050000000163,
      "v": 82
    },
    {
      "midi": 69,
      "hit": false,
      "t": 67441.17187499965,
      "d": 138.8887500000128,
      "v": 82
    },
    {
      "midi": 65,
      "hit": false,
      "t": 67443.84281249966,
      "d": 117.52125000000524,
      "v": 73
    },
    {
      "midi": 74,
      "hit": false,
      "t": 67443.84281249966,
      "d": 122.86312500000349,
      "v": 91
    },
    {
      "midi": 74,
      "hit": false,
      "t": 67945.97906249967,
      "d": 277.77750000001106,
      "v": 82
    },
    {
      "midi": 67,
      "hit": false,
      "t": 67945.97906249967,
      "d": 285.7903125000157,
      "v": 71
    },
    {
      "midi": 62,
      "hit": false,
      "t": 67948.64999999967,
      "d": 309.82875000001513,
      "v": 91
    },
    {
      "midi": 64,
      "hit": false,
      "t": 67951.32093749968,
      "d": 261.75187500000175,
      "v": 63
    },
    {
      "midi": 60,
      "hit": false,
      "t": 68330.59406249969,
      "d": 331.19625000000815,
      "v": 91
    },
    {
      "midi": 67,
      "hit": false,
      "t": 68335.93593749969,
      "d": 309.82875000001513,
      "v": 77
    },
    {
      "midi": 72,
      "hit": false,
      "t": 68335.93593749969,
      "d": 328.5253125000163,
      "v": 82
    },
    {
      "midi": 64,
      "hit": false,
      "t": 68338.60687499969,
      "d": 304.4868750000023,
      "v": 63
    },
    {
      "midi": 64,
      "hit": false,
      "t": 68723.2218749997,
      "d": 347.2218750000029,
      "v": 62
    },
    {
      "midi": 67,
      "hit": false,
      "t": 68723.2218749997,
      "d": 355.23468750000757,
      "v": 71
    },
    {
      "midi": 71,
      "hit": false,
      "t": 68723.2218749997,
      "d": 363.2475000000122,
      "v": 73
    },
    {
      "midi": 59,
      "hit": false,
      "t": 68723.2218749997,
      "d": 365.9184375000186,
      "v": 91
    },
    {
      "midi": 64,
      "hit": false,
      "t": 69228.02906249971,
      "d": 400.640625,
      "v": 63
    },
    {
      "midi": 60,
      "hit": false,
      "t": 69228.02906249971,
      "d": 424.6790624999994,
      "v": 82
    },
    {
      "midi": 72,
      "hit": false,
      "t": 69228.02906249971,
      "d": 424.6790624999994,
      "v": 82
    },
    {
      "midi": 67,
      "hit": false,
      "t": 69228.02906249971,
      "d": 427.3500000000058,
      "v": 81
    },
    {
      "midi": 69,
      "hit": false,
      "t": 69991.91718749973,
      "d": 301.8159375000105,
      "v": 73
    },
    {
      "midi": 65,
      "hit": false,
      "t": 69994.58812499973,
      "d": 277.7774999999965,
      "v": 73
    },
    {
      "midi": 72,
      "hit": false,
      "t": 69994.58812499973,
      "d": 285.79031250000116,
      "v": 73
    },
    {
      "midi": 64,
      "hit": false,
      "t": 69994.58812499973,
      "d": 307.15781250000873,
      "v": 91
    },
    {
      "midi": 76,
      "hit": false,
      "t": 69997.25906249974,
      "d": 259.08093749999534,
      "v": 82
    },
    {
      "midi": 69,
      "hit": false,
      "t": 70381.87406249974,
      "d": 315.1706250000134,
      "v": 82
    },
    {
      "midi": 62,
      "hit": false,
      "t": 70387.21593749974,
      "d": 315.1706250000134,
      "v": 82
    },
    {
      "midi": 65,
      "hit": false,
      "t": 70389.88687499975,
      "d": 299.1450000000041,
      "v": 73
    },
    {
      "midi": 74,
      "hit": false,
      "t": 70389.88687499975,
      "d": 317.84156250000524,
      "v": 82
    },
    {
      "midi": 72,
      "hit": false,
      "t": 70763.81812499976,
      "d": 61.431562500001746,
      "v": 82
    },
    {
      "midi": 69,
      "hit": false,
      "t": 70763.81812499976,
      "d": 74.78625000000466,
      "v": 73
    },
    {
      "midi": 65,
      "hit": false,
      "t": 70763.81812499976,
      "d": 80.12812500000291,
      "v": 73
    },
    {
      "midi": 60,
      "hit": false,
      "t": 70766.48906249976,
      "d": 61.431562500001746,
      "v": 82
    },
    {
      "midi": 69,
      "hit": false,
      "t": 71025.56999999976,
      "d": 64.1025000000227,
      "v": 82
    },
    {
      "midi": 65,
      "hit": false,
      "t": 71028.24093749977,
      "d": 53.41875000001164,
      "v": 73
    },
    {
      "midi": 60,
      "hit": false,
      "t": 71028.24093749977,
      "d": 64.1025000000227,
      "v": 82
    },
    {
      "midi": 72,
      "hit": false,
      "t": 71030.91187499977,
      "d": 64.1025000000227,
      "v": 73
    },
    {
      "midi": 69,
      "hit": false,
      "t": 71279.3090624998,
      "d": 74.78625000000466,
      "v": 82
    },
    {
      "midi": 72,
      "hit": false,
      "t": 71284.6509374998,
      "d": 58.760625000009895,
      "v": 82
    },
    {
      "midi": 60,
      "hit": false,
      "t": 71284.6509374998,
      "d": 64.10250000000815,
      "v": 91
    },
    {
      "midi": 65,
      "hit": false,
      "t": 71287.3218749998,
      "d": 69.4443750000064,
      "v": 64
    },
    {
      "midi": 69,
      "hit": false,
      "t": 71535.71906249982,
      "d": 130.8759375000227,
      "v": 81
    },
    {
      "midi": 65,
      "hit": false,
      "t": 71541.06093749982,
      "d": 122.86312500001804,
      "v": 73
    },
    {
      "midi": 62,
      "hit": false,
      "t": 71543.73187499982,
      "d": 80.12812500000291,
      "v": 73
    },
    {
      "midi": 74,
      "hit": false,
      "t": 71543.73187499982,
      "d": 117.52125000000524,
      "v": 82
    },
    {
      "midi": 67,
      "hit": false,
      "t": 72045.86812499985,
      "d": 283.1193750000093,
      "v": 71
    },
    {
      "midi": 64,
      "hit": false,
      "t": 72051.20999999985,
      "d": 240.38437500000873,
      "v": 63
    },
    {
      "midi": 74,
      "hit": false,
      "t": 72053.88093749985,
      "d": 245.72625000000698,
      "v": 73
    },
    {
      "midi": 62,
      "hit": false,
      "t": 72053.88093749985,
      "d": 269.7646875000064,
      "v": 91
    },
    {
      "midi": 67,
      "hit": false,
      "t": 72435.82499999985,
      "d": 293.8031250000058,
      "v": 74
    },
    {
      "midi": 64,
      "hit": false,
      "t": 72435.82499999985,
      "d": 299.1450000000041,
      "v": 63
    },
    {
      "midi": 60,
      "hit": false,
      "t": 72435.82499999985,
      "d": 312.499687500007,
      "v": 82
    },
    {
      "midi": 72,
      "hit": false,
      "t": 72435.82499999985,
      "d": 328.52531250000175,
      "v": 79
    },
    {
      "midi": 59,
      "hit": false,
      "t": 72825.78187499986,
      "d": 336.5381250000064,
      "v": 82
    },
    {
      "midi": 64,
      "hit": false,
      "t": 72828.45281249986,
      "d": 304.4868750000023,
      "v": 54
    },
    {
      "midi": 67,
      "hit": false,
      "t": 72828.45281249986,
      "d": 339.20906249999825,
      "v": 74
    },
    {
      "midi": 71,
      "hit": false,
      "t": 72828.45281249986,
      "d": 339.20906249999825,
      "v": 73
    },
    {
      "midi": 64,
      "hit": false,
      "t": 73333.25999999986,
      "d": 357.9056249999994,
      "v": 63
    },
    {
      "midi": 60,
      "hit": false,
      "t": 73333.25999999986,
      "d": 395.29875000000175,
      "v": 82
    },
    {
      "midi": 67,
      "hit": false,
      "t": 73335.93093749987,
      "d": 381.94406249999884,
      "v": 74
    },
    {
      "midi": 72,
      "hit": false,
      "t": 73335.93093749987,
      "d": 397.9696874999936,
      "v": 73
    },
    {
      "midi": 65,
      "hit": false,
      "t": 74099.81906249987,
      "d": 285.7903124999866,
      "v": 73
    },
    {
      "midi": 72,
      "hit": false,
      "t": 74099.81906249987,
      "d": 307.1578124999942,
      "v": 82
    },
    {
      "midi": 64,
      "hit": false,
      "t": 74099.81906249987,
      "d": 320.5124999999971,
      "v": 82
    },
    {
      "midi": 76,
      "hit": false,
      "t": 74105.16093749987,
      "d": 264.4228124999936,
      "v": 76
    },
    {
      "midi": 69,
      "hit": false,
      "t": 74105.16093749987,
      "d": 283.11937499999476,
      "v": 73
    },
    {
      "midi": 69,
      "hit": false,
      "t": 74489.77593749987,
      "d": 323.18343750001804,
      "v": 73
    },
    {
      "midi": 74,
      "hit": false,
      "t": 74492.44687499988,
      "d": 328.5253125000163,
      "v": 91
    },
    {
      "midi": 65,
      "hit": false,
      "t": 74495.11781249988,
      "d": 299.1450000000041,
      "v": 64
    },
    {
      "midi": 62,
      "hit": false,
      "t": 74495.11781249988,
      "d": 312.499687500007,
      "v": 82
    },
    {
      "midi": 60,
      "hit": false,
      "t": 74863.7071874999,
      "d": 77.45718750001106,
      "v": 82
    },
    {
      "midi": 69,
      "hit": false,
      "t": 74866.3781249999,
      "d": 69.4443750000064,
      "v": 73
    },
    {
      "midi": 65,
      "hit": false,
      "t": 74869.04906249991,
      "d": 77.45718749999651,
      "v": 64
    },
    {
      "midi": 72,
      "hit": false,
      "t": 74874.3909374999,
      "d": 50.74781250000524,
      "v": 64
    },
    {
      "midi": 60,
      "hit": false,
      "t": 75122.7881249999,
      "d": 64.10250000000815,
      "v": 81
    },
    {
      "midi": 72,
      "hit": false,
      "t": 75125.45906249991,
      "d": 58.76062499999534,
      "v": 73
    },
    {
      "midi": 65,
      "hit": false,
      "t": 75125.45906249991,
      "d": 61.431562500001746,
      "v": 73
    },
    {
      "midi": 69,
      "hit": false,
      "t": 75125.45906249991,
      "d": 64.10250000000815,
      "v": 91
    },
    {
      "midi": 60,
      "hit": false,
      "t": 75379.19812499992,
      "d": 66.7734375,
      "v": 86
    },
    {
      "midi": 69,
      "hit": false,
      "t": 75381.86906249993,
      "d": 64.1024999999936,
      "v": 82
    },
    {
      "midi": 72,
      "hit": false,
      "t": 75381.86906249993,
      "d": 64.1024999999936,
      "v": 73
    },
    {
      "midi": 65,
      "hit": false,
      "t": 75387.21093749993,
      "d": 66.7734375,
      "v": 73
    },
    {
      "midi": 65,
      "hit": false,
      "t": 75643.62093749993,
      "d": 138.8887500000128,
      "v": 56
    },
    {
      "midi": 69,
      "hit": false,
      "t": 75643.62093749993,
      "d": 149.5725000000093,
      "v": 78
    },
    {
      "midi": 74,
      "hit": false,
      "t": 75643.62093749993,
      "d": 160.25625000000582,
      "v": 72
    },
    {
      "midi": 62,
      "hit": false,
      "t": 75646.29187499994,
      "d": 128.20500000000175,
      "v": 86
    },
    {
      "midi": 74,
      "hit": false,
      "t": 76148.42812499993,
      "d": 288.46125000000757,
      "v": 78
    },
    {
      "midi": 67,
      "hit": false,
      "t": 76148.42812499993,
      "d": 301.8159375000105,
      "v": 64
    },
    {
      "midi": 62,
      "hit": false,
      "t": 76148.42812499993,
      "d": 333.86718750001455,
      "v": 91
    },
    {
      "midi": 64,
      "hit": false,
      "t": 76151.09906249994,
      "d": 288.46125000000757,
      "v": 63
    },
    {
      "midi": 67,
      "hit": false,
      "t": 76543.72687499995,
      "d": 301.8159375000105,
      "v": 73
    },
    {
      "midi": 72,
      "hit": false,
      "t": 76543.72687499995,
      "d": 317.8415625000198,
      "v": 82
    },
    {
      "midi": 64,
      "hit": false,
      "t": 76546.39781249996,
      "d": 293.8031250000058,
      "v": 54
    },
    {
      "midi": 60,
      "hit": false,
      "t": 76546.39781249996,
      "d": 307.15781250000873,
      "v": 91
    },
    {
      "midi": 67,
      "hit": false,
      "t": 76920.32906249996,
      "d": 344.5509374999965,
      "v": 73
    },
    {
      "midi": 64,
      "hit": false,
      "t": 76925.67093749996,
      "d": 339.20906249999825,
      "v": 63
    },
    {
      "midi": 71,
      "hit": false,
      "t": 76925.67093749996,
      "d": 339.20906249999825,
      "v": 73
    },
    {
      "midi": 59,
      "hit": false,
      "t": 76925.67093749996,
      "d": 349.89281249999476,
      "v": 82
    },
    {
      "midi": 60,
      "hit": false,
      "t": 77433.14906249996,
      "d": 480.7687500000029,
      "v": 91
    },
    {
      "midi": 64,
      "hit": false,
      "t": 77435.81999999996,
      "d": 459.40124999999534,
      "v": 63
    },
    {
      "midi": 72,
      "hit": false,
      "t": 77435.81999999996,
      "d": 470.08499999999185,
      "v": 82
    },
    {
      "midi": 67,
      "hit": false,
      "t": 77435.81999999996,
      "d": 478.0978124999965,
      "v": 73
    },
    {
      "midi": 69,
      "hit": false,
      "t": 78202.37906249995,
      "d": 280.44843750001746,
      "v": 73
    },
    {
      "midi": 64,
      "hit": false,
      "t": 78202.37906249995,
      "d": 293.8031250000204,
      "v": 82
    },
    {
      "midi": 65,
      "hit": false,
      "t": 78205.04999999996,
      "d": 285.7903125000157,
      "v": 73
    },
    {
      "midi": 76,
      "hit": false,
      "t": 78207.72093749997,
      "d": 245.72625000000698,
      "v": 67
    },
    {
      "midi": 72,
      "hit": false,
      "t": 78210.39187499997,
      "d": 315.17062499999884,
      "v": 73
    },
    {
      "midi": 65,
      "hit": false,
      "t": 78595.00687499998,
      "d": 331.19625000000815,
      "v": 64
    },
    {
      "midi": 69,
      "hit": false,
      "t": 78597.67781249998,
      "d": 323.1834375000035,
      "v": 91
    },
    {
      "midi": 62,
      "hit": false,
      "t": 78597.67781249998,
      "d": 331.19625000000815,
      "v": 91
    },
    {
      "midi": 74,
      "hit": false,
      "t": 78597.67781249998,
      "d": 347.2218750000029,
      "v": 82
    },
    {
      "midi": 60,
      "hit": false,
      "t": 78974.27999999998,
      "d": 64.10250000000815,
      "v": 82
    },
    {
      "midi": 72,
      "hit": false,
      "t": 78976.95093749999,
      "d": 53.41874999999709,
      "v": 73
    },
    {
      "midi": 69,
      "hit": false,
      "t": 78976.95093749999,
      "d": 64.10250000000815,
      "v": 64
    },
    {
      "midi": 65,
      "hit": false,
      "t": 78976.95093749999,
      "d": 66.77343750001455,
      "v": 64
    },
    {
      "midi": 60,
      "hit": false,
      "t": 79228.01906250001,
      "d": 61.431562500001746,
      "v": 82
    },
    {
      "midi": 65,
      "hit": false,
      "t": 79233.36093750001,
      "d": 58.760625000009895,
      "v": 64
    },
    {
      "midi": 69,
      "hit": false,
      "t": 79233.36093750001,
      "d": 66.77343750001455,
      "v": 91
    },
    {
      "midi": 72,
      "hit": false,
      "t": 79236.03187500002,
      "d": 58.760625000009895,
      "v": 73
    },
    {
      "midi": 60,
      "hit": false,
      "t": 79484.42906250003,
      "d": 85.47000000000116,
      "v": 82
    },
    {
      "midi": 65,
      "hit": false,
      "t": 79489.77093750003,
      "d": 61.431562500001746,
      "v": 73
    },
    {
      "midi": 69,
      "hit": false,
      "t": 79489.77093750003,
      "d": 72.11531249999825,
      "v": 82
    },
    {
      "midi": 72,
      "hit": false,
      "t": 79489.77093750003,
      "d": 72.11531249999825,
      "v": 73
    },
    {
      "midi": 62,
      "hit": false,
      "t": 79748.85187500004,
      "d": 128.2050000000163,
      "v": 82
    },
    {
      "midi": 69,
      "hit": false,
      "t": 79748.85187500004,
      "d": 138.8887500000128,
      "v": 82
    },
    {
      "midi": 65,
      "hit": false,
      "t": 79751.52281250004,
      "d": 117.52125000000524,
      "v": 73
    },
    {
      "midi": 74,
      "hit": false,
      "t": 79751.52281250004,
      "d": 122.86312500000349,
      "v": 91
    },
    {
      "midi": 74,
      "hit": false,
      "t": 80253.65906250005,
      "d": 277.77750000001106,
      "v": 82
    },
    {
      "midi": 67,
      "hit": false,
      "t": 80253.65906250005,
      "d": 285.7903125000157,
      "v": 71
    },
    {
      "midi": 62,
      "hit": false,
      "t": 80256.33000000006,
      "d": 309.82875000001513,
      "v": 91
    },
    {
      "midi": 64,
      "hit": false,
      "t": 80259.00093750007,
      "d": 261.75187500000175,
      "v": 63
    },
    {
      "midi": 60,
      "hit": false,
      "t": 80638.27406250007,
      "d": 331.19625000000815,
      "v": 91
    },
    {
      "midi": 67,
      "hit": false,
      "t": 80643.61593750007,
      "d": 309.82875000001513,
      "v": 77
    },
    {
      "midi": 72,
      "hit": false,
      "t": 80643.61593750007,
      "d": 328.5253125000163,
      "v": 82
    },
    {
      "midi": 64,
      "hit": false,
      "t": 80646.28687500008,
      "d": 304.4868750000023,
      "v": 63
    },
    {
      "midi": 64,
      "hit": false,
      "t": 81030.90187500008,
      "d": 347.2218750000029,
      "v": 62
    },
    {
      "midi": 67,
      "hit": false,
      "t": 81030.90187500008,
      "d": 355.23468750000757,
      "v": 71
    },
    {
      "midi": 71,
      "hit": false,
      "t": 81030.90187500008,
      "d": 363.2475000000122,
      "v": 73
    },
    {
      "midi": 59,
      "hit": false,
      "t": 81030.90187500008,
      "d": 365.9184375000186,
      "v": 91
    },
    {
      "midi": 64,
      "hit": false,
      "t": 81535.7090625001,
      "d": 400.640625,
      "v": 63
    },
    {
      "midi": 60,
      "hit": false,
      "t": 81535.7090625001,
      "d": 424.6790624999994,
      "v": 82
    },
    {
      "midi": 72,
      "hit": false,
      "t": 81535.7090625001,
      "d": 424.6790624999994,
      "v": 82
    },
    {
      "midi": 67,
      "hit": false,
      "t": 81535.7090625001,
      "d": 427.3500000000058,
      "v": 81
    },
    {
      "midi": 69,
      "hit": false,
      "t": 82299.59718750011,
      "d": 301.8159375000105,
      "v": 73
    },
    {
      "midi": 65,
      "hit": false,
      "t": 82302.26812500012,
      "d": 277.7774999999965,
      "v": 73
    },
    {
      "midi": 72,
      "hit": false,
      "t": 82302.26812500012,
      "d": 285.79031250000116,
      "v": 73
    },
    {
      "midi": 64,
      "hit": false,
      "t": 82302.26812500012,
      "d": 307.15781250000873,
      "v": 91
    },
    {
      "midi": 76,
      "hit": false,
      "t": 82304.93906250013,
      "d": 259.08093749999534,
      "v": 82
    },
    {
      "midi": 69,
      "hit": false,
      "t": 82689.55406250013,
      "d": 315.1706250000134,
      "v": 82
    },
    {
      "midi": 62,
      "hit": false,
      "t": 82694.89593750013,
      "d": 315.1706250000134,
      "v": 82
    },
    {
      "midi": 65,
      "hit": false,
      "t": 82697.56687500014,
      "d": 299.1450000000041,
      "v": 73
    },
    {
      "midi": 74,
      "hit": false,
      "t": 82697.56687500014,
      "d": 317.84156250000524,
      "v": 82
    },
    {
      "midi": 72,
      "hit": false,
      "t": 83071.49812500014,
      "d": 61.431562500001746,
      "v": 82
    },
    {
      "midi": 69,
      "hit": false,
      "t": 83071.49812500014,
      "d": 74.78625000000466,
      "v": 73
    },
    {
      "midi": 65,
      "hit": false,
      "t": 83071.49812500014,
      "d": 80.12812500000291,
      "v": 73
    },
    {
      "midi": 60,
      "hit": false,
      "t": 83074.16906250015,
      "d": 61.431562500001746,
      "v": 82
    },
    {
      "midi": 69,
      "hit": false,
      "t": 83333.25000000015,
      "d": 64.1025000000227,
      "v": 82
    },
    {
      "midi": 65,
      "hit": false,
      "t": 83335.92093750015,
      "d": 53.41875000001164,
      "v": 73
    },
    {
      "midi": 60,
      "hit": false,
      "t": 83335.92093750015,
      "d": 64.1025000000227,
      "v": 82
    },
    {
      "midi": 72,
      "hit": false,
      "t": 83338.59187500016,
      "d": 64.1025000000227,
      "v": 73
    },
    {
      "midi": 69,
      "hit": false,
      "t": 83586.98906250019,
      "d": 74.78625000000466,
      "v": 82
    },
    {
      "midi": 72,
      "hit": false,
      "t": 83592.33093750018,
      "d": 58.760625000009895,
      "v": 82
    },
    {
      "midi": 60,
      "hit": false,
      "t": 83592.33093750018,
      "d": 64.10250000000815,
      "v": 91
    },
    {
      "midi": 65,
      "hit": false,
      "t": 83595.00187500019,
      "d": 69.4443750000064,
      "v": 64
    },
    {
      "midi": 69,
      "hit": false,
      "t": 83843.3990625002,
      "d": 130.8759375000227,
      "v": 81
    },
    {
      "midi": 65,
      "hit": false,
      "t": 83848.7409375002,
      "d": 122.86312500001804,
      "v": 73
    },
    {
      "midi": 62,
      "hit": false,
      "t": 83851.41187500021,
      "d": 80.12812500000291,
      "v": 73
    },
    {
      "midi": 74,
      "hit": false,
      "t": 83851.41187500021,
      "d": 117.52125000000524,
      "v": 82
    },
    {
      "midi": 67,
      "hit": false,
      "t": 84353.54812500023,
      "d": 283.1193750000093,
      "v": 71
    },
    {
      "midi": 64,
      "hit": false,
      "t": 84358.89000000023,
      "d": 240.38437500000873,
      "v": 63
    },
    {
      "midi": 74,
      "hit": false,
      "t": 84361.56093750024,
      "d": 245.72625000000698,
      "v": 73
    },
    {
      "midi": 62,
      "hit": false,
      "t": 84361.56093750024,
      "d": 269.7646875000064,
      "v": 91
    },
    {
      "midi": 67,
      "hit": false,
      "t": 84743.50500000024,
      "d": 293.8031250000058,
      "v": 74
    },
    {
      "midi": 64,
      "hit": false,
      "t": 84743.50500000024,
      "d": 299.1450000000041,
      "v": 63
    },
    {
      "midi": 60,
      "hit": false,
      "t": 84743.50500000024,
      "d": 312.499687500007,
      "v": 82
    },
    {
      "midi": 72,
      "hit": false,
      "t": 84743.50500000024,
      "d": 328.52531250000175,
      "v": 79
    },
    {
      "midi": 59,
      "hit": false,
      "t": 85133.46187500024,
      "d": 336.5381250000064,
      "v": 82
    },
    {
      "midi": 64,
      "hit": false,
      "t": 85136.13281250025,
      "d": 304.4868750000023,
      "v": 54
    },
    {
      "midi": 67,
      "hit": false,
      "t": 85136.13281250025,
      "d": 339.20906249999825,
      "v": 74
    },
    {
      "midi": 71,
      "hit": false,
      "t": 85136.13281250025,
      "d": 339.20906249999825,
      "v": 73
    },
    {
      "midi": 64,
      "hit": false,
      "t": 85640.94000000025,
      "d": 357.9056249999994,
      "v": 63
    },
    {
      "midi": 60,
      "hit": false,
      "t": 85640.94000000025,
      "d": 395.29875000000175,
      "v": 82
    },
    {
      "midi": 67,
      "hit": false,
      "t": 85643.61093750026,
      "d": 381.94406249999884,
      "v": 74
    },
    {
      "midi": 72,
      "hit": false,
      "t": 85643.61093750026,
      "d": 397.9696874999936,
      "v": 73
    },
    {
      "midi": 65,
      "hit": false,
      "t": 86407.49906250025,
      "d": 285.7903124999866,
      "v": 73
    },
    {
      "midi": 72,
      "hit": false,
      "t": 86407.49906250025,
      "d": 307.1578124999942,
      "v": 82
    },
    {
      "midi": 64,
      "hit": false,
      "t": 86407.49906250025,
      "d": 320.5124999999971,
      "v": 82
    },
    {
      "midi": 76,
      "hit": false,
      "t": 86412.84093750025,
      "d": 264.4228124999936,
      "v": 76
    },
    {
      "midi": 69,
      "hit": false,
      "t": 86412.84093750025,
      "d": 283.11937499999476,
      "v": 73
    },
    {
      "midi": 69,
      "hit": false,
      "t": 86797.45593750026,
      "d": 323.18343750001804,
      "v": 73
    },
    {
      "midi": 74,
      "hit": false,
      "t": 86800.12687500026,
      "d": 328.5253125000163,
      "v": 91
    },
    {
      "midi": 65,
      "hit": false,
      "t": 86802.79781250027,
      "d": 299.1450000000041,
      "v": 64
    },
    {
      "midi": 62,
      "hit": false,
      "t": 86802.79781250027,
      "d": 312.499687500007,
      "v": 82
    },
    {
      "midi": 60,
      "hit": false,
      "t": 87171.38718750028,
      "d": 77.45718750001106,
      "v": 82
    },
    {
      "midi": 69,
      "hit": false,
      "t": 87174.05812500029,
      "d": 69.4443750000064,
      "v": 73
    },
    {
      "midi": 65,
      "hit": false,
      "t": 87176.7290625003,
      "d": 77.45718749999651,
      "v": 64
    },
    {
      "midi": 72,
      "hit": false,
      "t": 87182.07093750029,
      "d": 50.74781250000524,
      "v": 64
    },
    {
      "midi": 60,
      "hit": false,
      "t": 87430.46812500029,
      "d": 64.10250000000815,
      "v": 81
    },
    {
      "midi": 72,
      "hit": false,
      "t": 87433.1390625003,
      "d": 58.76062499999534,
      "v": 73
    },
    {
      "midi": 65,
      "hit": false,
      "t": 87433.1390625003,
      "d": 61.431562500001746,
      "v": 73
    },
    {
      "midi": 69,
      "hit": false,
      "t": 87433.1390625003,
      "d": 64.10250000000815,
      "v": 91
    },
    {
      "midi": 60,
      "hit": false,
      "t": 87686.87812500031,
      "d": 66.7734375,
      "v": 86
    },
    {
      "midi": 69,
      "hit": false,
      "t": 87689.54906250031,
      "d": 64.1024999999936,
      "v": 82
    },
    {
      "midi": 72,
      "hit": false,
      "t": 87689.54906250031,
      "d": 64.1024999999936,
      "v": 73
    },
    {
      "midi": 65,
      "hit": false,
      "t": 87694.89093750031,
      "d": 66.7734375,
      "v": 73
    },
    {
      "midi": 65,
      "hit": false,
      "t": 87951.30093750032,
      "d": 138.8887500000128,
      "v": 56
    },
    {
      "midi": 69,
      "hit": false,
      "t": 87951.30093750032,
      "d": 149.5725000000093,
      "v": 78
    },
    {
      "midi": 74,
      "hit": false,
      "t": 87951.30093750032,
      "d": 160.25625000000582,
      "v": 72
    },
    {
      "midi": 62,
      "hit": false,
      "t": 87953.97187500032,
      "d": 128.20500000000175,
      "v": 86
    },
    {
      "midi": 74,
      "hit": false,
      "t": 88456.10812500032,
      "d": 288.46125000000757,
      "v": 78
    },
    {
      "midi": 67,
      "hit": false,
      "t": 88456.10812500032,
      "d": 301.8159375000105,
      "v": 64
    },
    {
      "midi": 62,
      "hit": false,
      "t": 88456.10812500032,
      "d": 333.86718750001455,
      "v": 91
    },
    {
      "midi": 64,
      "hit": false,
      "t": 88458.77906250033,
      "d": 288.46125000000757,
      "v": 63
    },
    {
      "midi": 67,
      "hit": false,
      "t": 88851.40687500034,
      "d": 301.8159375000105,
      "v": 73
    },
    {
      "midi": 72,
      "hit": false,
      "t": 88851.40687500034,
      "d": 317.8415625000198,
      "v": 82
    },
    {
      "midi": 64,
      "hit": false,
      "t": 88854.07781250034,
      "d": 293.8031250000058,
      "v": 54
    },
    {
      "midi": 60,
      "hit": false,
      "t": 88854.07781250034,
      "d": 307.15781250000873,
      "v": 91
    },
    {
      "midi": 67,
      "hit": false,
      "t": 89228.00906250035,
      "d": 344.5509374999965,
      "v": 73
    },
    {
      "midi": 64,
      "hit": false,
      "t": 89233.35093750035,
      "d": 339.20906249999825,
      "v": 63
    },
    {
      "midi": 71,
      "hit": false,
      "t": 89233.35093750035,
      "d": 339.20906249999825,
      "v": 73
    },
    {
      "midi": 59,
      "hit": false,
      "t": 89233.35093750035,
      "d": 349.89281249999476,
      "v": 82
    },
    {
      "midi": 60,
      "hit": false,
      "t": 89740.82906250034,
      "d": 480.7687500000029,
      "v": 91
    },
    {
      "midi": 64,
      "hit": false,
      "t": 89743.50000000035,
      "d": 459.40124999999534,
      "v": 63
    },
    {
      "midi": 72,
      "hit": false,
      "t": 89743.50000000035,
      "d": 470.08499999999185,
      "v": 82
    },
    {
      "midi": 67,
      "hit": false,
      "t": 89743.50000000035,
      "d": 478.0978124999965,
      "v": 73
    },
    {
      "midi": 69,
      "hit": false,
      "t": 90510.05906250034,
      "d": 280.44843750001746,
      "v": 73
    },
    {
      "midi": 64,
      "hit": false,
      "t": 90510.05906250034,
      "d": 293.8031250000204,
      "v": 82
    },
    {
      "midi": 65,
      "hit": false,
      "t": 90512.73000000035,
      "d": 285.7903125000157,
      "v": 73
    },
    {
      "midi": 76,
      "hit": false,
      "t": 90515.40093750035,
      "d": 245.72625000000698,
      "v": 67
    },
    {
      "midi": 72,
      "hit": false,
      "t": 90518.07187500036,
      "d": 315.17062499999884,
      "v": 73
    },
    {
      "midi": 65,
      "hit": false,
      "t": 90902.68687500036,
      "d": 331.19625000000815,
      "v": 64
    },
    {
      "midi": 69,
      "hit": false,
      "t": 90905.35781250037,
      "d": 323.1834375000035,
      "v": 91
    },
    {
      "midi": 62,
      "hit": false,
      "t": 90905.35781250037,
      "d": 331.19625000000815,
      "v": 91
    },
    {
      "midi": 74,
      "hit": false,
      "t": 90905.35781250037,
      "d": 347.2218750000029,
      "v": 82
    },
    {
      "midi": 60,
      "hit": false,
      "t": 91281.96000000037,
      "d": 64.10250000000815,
      "v": 82
    },
    {
      "midi": 72,
      "hit": false,
      "t": 91284.63093750038,
      "d": 53.41874999999709,
      "v": 73
    },
    {
      "midi": 69,
      "hit": false,
      "t": 91284.63093750038,
      "d": 64.10250000000815,
      "v": 64
    },
    {
      "midi": 65,
      "hit": false,
      "t": 91284.63093750038,
      "d": 66.77343750001455,
      "v": 64
    },
    {
      "midi": 60,
      "hit": false,
      "t": 91535.6990625004,
      "d": 61.431562500001746,
      "v": 82
    },
    {
      "midi": 65,
      "hit": false,
      "t": 91541.0409375004,
      "d": 58.760625000009895,
      "v": 64
    },
    {
      "midi": 69,
      "hit": false,
      "t": 91541.0409375004,
      "d": 66.77343750001455,
      "v": 91
    },
    {
      "midi": 72,
      "hit": false,
      "t": 91543.7118750004,
      "d": 58.760625000009895,
      "v": 73
    },
    {
      "midi": 60,
      "hit": false,
      "t": 91792.10906250041,
      "d": 85.47000000000116,
      "v": 82
    },
    {
      "midi": 65,
      "hit": false,
      "t": 91797.45093750041,
      "d": 61.431562500001746,
      "v": 73
    },
    {
      "midi": 69,
      "hit": false,
      "t": 91797.45093750041,
      "d": 72.11531249999825,
      "v": 82
    },
    {
      "midi": 72,
      "hit": false,
      "t": 91797.45093750041,
      "d": 72.11531249999825,
      "v": 73
    },
    {
      "midi": 62,
      "hit": false,
      "t": 92056.53187500042,
      "d": 128.2050000000163,
      "v": 82
    },
    {
      "midi": 69,
      "hit": false,
      "t": 92056.53187500042,
      "d": 138.8887500000128,
      "v": 82
    },
    {
      "midi": 65,
      "hit": false,
      "t": 92059.20281250043,
      "d": 117.52125000000524,
      "v": 73
    },
    {
      "midi": 74,
      "hit": false,
      "t": 92059.20281250043,
      "d": 122.86312500000349,
      "v": 91
    },
    {
      "midi": 74,
      "hit": false,
      "t": 92561.33906250044,
      "d": 277.77750000001106,
      "v": 82
    },
    {
      "midi": 67,
      "hit": false,
      "t": 92561.33906250044,
      "d": 285.7903125000157,
      "v": 71
    },
    {
      "midi": 62,
      "hit": false,
      "t": 92564.01000000045,
      "d": 309.82875000001513,
      "v": 91
    },
    {
      "midi": 64,
      "hit": false,
      "t": 92566.68093750045,
      "d": 261.75187500000175,
      "v": 63
    },
    {
      "midi": 60,
      "hit": false,
      "t": 92945.95406250046,
      "d": 331.19625000000815,
      "v": 91
    },
    {
      "midi": 67,
      "hit": false,
      "t": 92951.29593750046,
      "d": 309.82875000001513,
      "v": 77
    },
    {
      "midi": 72,
      "hit": false,
      "t": 92951.29593750046,
      "d": 328.5253125000163,
      "v": 82
    },
    {
      "midi": 64,
      "hit": false,
      "t": 92953.96687500046,
      "d": 304.4868750000023,
      "v": 63
    },
    {
      "midi": 64,
      "hit": false,
      "t": 93338.58187500047,
      "d": 347.2218750000029,
      "v": 62
    },
    {
      "midi": 67,
      "hit": false,
      "t": 93338.58187500047,
      "d": 355.23468750000757,
      "v": 71
    },
    {
      "midi": 71,
      "hit": false,
      "t": 93338.58187500047,
      "d": 363.2475000000122,
      "v": 73
    },
    {
      "midi": 59,
      "hit": false,
      "t": 93338.58187500047,
      "d": 365.9184375000186,
      "v": 91
    },
    {
      "midi": 64,
      "hit": false,
      "t": 93843.38906250049,
      "d": 400.640625,
      "v": 63
    },
    {
      "midi": 60,
      "hit": false,
      "t": 93843.38906250049,
      "d": 424.6790624999994,
      "v": 82
    },
    {
      "midi": 72,
      "hit": false,
      "t": 93843.38906250049,
      "d": 424.6790624999994,
      "v": 82
    },
    {
      "midi": 67,
      "hit": false,
      "t": 93843.38906250049,
      "d": 427.3500000000058,
      "v": 81
    },
    {
      "midi": 69,
      "hit": false,
      "t": 94607.2771875005,
      "d": 301.8159375000105,
      "v": 73
    },
    {
      "midi": 65,
      "hit": false,
      "t": 94609.9481250005,
      "d": 277.7774999999965,
      "v": 73
    },
    {
      "midi": 72,
      "hit": false,
      "t": 94609.9481250005,
      "d": 285.79031250000116,
      "v": 73
    },
    {
      "midi": 64,
      "hit": false,
      "t": 94609.9481250005,
      "d": 307.15781250000873,
      "v": 91
    },
    {
      "midi": 76,
      "hit": false,
      "t": 94612.61906250051,
      "d": 259.08093749999534,
      "v": 82
    },
    {
      "midi": 69,
      "hit": false,
      "t": 94997.23406250052,
      "d": 315.1706250000134,
      "v": 82
    },
    {
      "midi": 62,
      "hit": false,
      "t": 95002.57593750051,
      "d": 315.1706250000134,
      "v": 82
    },
    {
      "midi": 65,
      "hit": false,
      "t": 95005.24687500052,
      "d": 299.1450000000041,
      "v": 73
    },
    {
      "midi": 74,
      "hit": false,
      "t": 95005.24687500052,
      "d": 317.84156250000524,
      "v": 82
    },
    {
      "midi": 72,
      "hit": false,
      "t": 95379.17812500053,
      "d": 61.431562500001746,
      "v": 82
    },
    {
      "midi": 69,
      "hit": false,
      "t": 95379.17812500053,
      "d": 74.78625000000466,
      "v": 73
    },
    {
      "midi": 65,
      "hit": false,
      "t": 95379.17812500053,
      "d": 80.12812500000291,
      "v": 73
    },
    {
      "midi": 60,
      "hit": false,
      "t": 95381.84906250054,
      "d": 61.431562500001746,
      "v": 82
    },
    {
      "midi": 69,
      "hit": false,
      "t": 95640.93000000053,
      "d": 64.1025000000227,
      "v": 82
    },
    {
      "midi": 65,
      "hit": false,
      "t": 95643.60093750054,
      "d": 53.41875000001164,
      "v": 73
    },
    {
      "midi": 60,
      "hit": false,
      "t": 95643.60093750054,
      "d": 64.1025000000227,
      "v": 82
    },
    {
      "midi": 72,
      "hit": false,
      "t": 95646.27187500054,
      "d": 64.1025000000227,
      "v": 73
    },
    {
      "midi": 69,
      "hit": false,
      "t": 95894.66906250057,
      "d": 74.78625000000466,
      "v": 82
    },
    {
      "midi": 72,
      "hit": false,
      "t": 95900.01093750057,
      "d": 58.760625000009895,
      "v": 82
    },
    {
      "midi": 60,
      "hit": false,
      "t": 95900.01093750057,
      "d": 64.10250000000815,
      "v": 91
    },
    {
      "midi": 65,
      "hit": false,
      "t": 95902.68187500058,
      "d": 69.4443750000064,
      "v": 64
    },
    {
      "midi": 69,
      "hit": false,
      "t": 96151.07906250059,
      "d": 130.8759375000227,
      "v": 81
    },
    {
      "midi": 65,
      "hit": false,
      "t": 96156.42093750059,
      "d": 122.86312500001804,
      "v": 73
    },
    {
      "midi": 62,
      "hit": false,
      "t": 96159.0918750006,
      "d": 80.12812500000291,
      "v": 73
    },
    {
      "midi": 74,
      "hit": false,
      "t": 96159.0918750006,
      "d": 117.52125000000524,
      "v": 82
    },
    {
      "midi": 67,
      "hit": false,
      "t": 96661.22812500062,
      "d": 283.1193750000093,
      "v": 71
    },
    {
      "midi": 64,
      "hit": false,
      "t": 96666.57000000062,
      "d": 240.38437500000873,
      "v": 63
    },
    {
      "midi": 74,
      "hit": false,
      "t": 96669.24093750062,
      "d": 245.72625000000698,
      "v": 73
    },
    {
      "midi": 62,
      "hit": false,
      "t": 96669.24093750062,
      "d": 269.7646875000064,
      "v": 91
    },
    {
      "midi": 67,
      "hit": false,
      "t": 97051.18500000062,
      "d": 293.8031250000058,
      "v": 74
    },
    {
      "midi": 64,
      "hit": false,
      "t": 97051.18500000062,
      "d": 299.1450000000041,
      "v": 63
    },
    {
      "midi": 60,
      "hit": false,
      "t": 97051.18500000062,
      "d": 312.499687500007,
      "v": 82
    },
    {
      "midi": 72,
      "hit": false,
      "t": 97051.18500000062,
      "d": 328.52531250000175,
      "v": 79
    },
    {
      "midi": 59,
      "hit": false,
      "t": 97441.14187500063,
      "d": 336.5381250000064,
      "v": 82
    },
    {
      "midi": 64,
      "hit": false,
      "t": 97443.81281250063,
      "d": 304.4868750000023,
      "v": 54
    },
    {
      "midi": 67,
      "hit": false,
      "t": 97443.81281250063,
      "d": 339.20906249999825,
      "v": 74
    },
    {
      "midi": 71,
      "hit": false,
      "t": 97443.81281250063,
      "d": 339.20906249999825,
      "v": 73
    },
    {
      "midi": 64,
      "hit": false,
      "t": 97948.62000000064,
      "d": 357.9056249999994,
      "v": 63
    },
    {
      "midi": 60,
      "hit": false,
      "t": 97948.62000000064,
      "d": 395.29875000000175,
      "v": 82
    },
    {
      "midi": 67,
      "hit": false,
      "t": 97951.29093750064,
      "d": 381.94406249999884,
      "v": 74
    },
    {
      "midi": 72,
      "hit": false,
      "t": 97951.29093750064,
      "d": 397.9696874999936,
      "v": 73
    },
    {
      "midi": 65,
      "hit": false,
      "t": 98715.17906250064,
      "d": 285.7903124999866,
      "v": 73
    },
    {
      "midi": 72,
      "hit": false,
      "t": 98715.17906250064,
      "d": 307.1578124999942,
      "v": 82
    },
    {
      "midi": 64,
      "hit": false,
      "t": 98715.17906250064,
      "d": 320.5124999999971,
      "v": 82
    },
    {
      "midi": 76,
      "hit": false,
      "t": 98720.52093750064,
      "d": 264.4228124999936,
      "v": 76
    },
    {
      "midi": 69,
      "hit": false,
      "t": 98720.52093750064,
      "d": 283.11937499999476,
      "v": 73
    },
    {
      "midi": 69,
      "hit": false,
      "t": 99105.13593750064,
      "d": 323.18343750001804,
      "v": 73
    },
    {
      "midi": 74,
      "hit": false,
      "t": 99107.80687500065,
      "d": 328.5253125000163,
      "v": 91
    },
    {
      "midi": 65,
      "hit": false,
      "t": 99110.47781250066,
      "d": 299.1450000000041,
      "v": 64
    },
    {
      "midi": 62,
      "hit": false,
      "t": 99110.47781250066,
      "d": 312.499687500007,
      "v": 82
    },
    {
      "midi": 60,
      "hit": false,
      "t": 99479.06718750067,
      "d": 77.45718750001106,
      "v": 82
    },
    {
      "midi": 69,
      "hit": false,
      "t": 99481.73812500067,
      "d": 69.4443750000064,
      "v": 73
    },
    {
      "midi": 65,
      "hit": false,
      "t": 99484.40906250068,
      "d": 77.45718749999651,
      "v": 64
    },
    {
      "midi": 72,
      "hit": false,
      "t": 99489.75093750068,
      "d": 50.74781250000524,
      "v": 64
    },
    {
      "midi": 60,
      "hit": false,
      "t": 99738.14812500068,
      "d": 64.10250000000815,
      "v": 81
    },
    {
      "midi": 72,
      "hit": false,
      "t": 99740.81906250068,
      "d": 58.76062499999534,
      "v": 73
    },
    {
      "midi": 65,
      "hit": false,
      "t": 99740.81906250068,
      "d": 61.431562500001746,
      "v": 73
    },
    {
      "midi": 69,
      "hit": false,
      "t": 99740.81906250068,
      "d": 64.10250000000815,
      "v": 91
    },
    {
      "midi": 60,
      "hit": false,
      "t": 99994.5581250007,
      "d": 66.7734375,
      "v": 86
    },
    {
      "midi": 69,
      "hit": false,
      "t": 99997.2290625007,
      "d": 64.1024999999936,
      "v": 82
    },
    {
      "midi": 72,
      "hit": false,
      "t": 99997.2290625007,
      "d": 64.1024999999936,
      "v": 73
    },
    {
      "midi": 65,
      "hit": false,
      "t": 100002.5709375007,
      "d": 66.7734375,
      "v": 73
    },
    {
      "midi": 65,
      "hit": false,
      "t": 100258.9809375007,
      "d": 138.8887500000128,
      "v": 56
    },
    {
      "midi": 69,
      "hit": false,
      "t": 100258.9809375007,
      "d": 149.5725000000093,
      "v": 78
    },
    {
      "midi": 74,
      "hit": false,
      "t": 100258.9809375007,
      "d": 160.25625000000582,
      "v": 72
    },
    {
      "midi": 62,
      "hit": false,
      "t": 100261.65187500071,
      "d": 128.20500000000175,
      "v": 86
    },
    {
      "midi": 74,
      "hit": false,
      "t": 100763.7881250007,
      "d": 288.46125000000757,
      "v": 78
    },
    {
      "midi": 67,
      "hit": false,
      "t": 100763.7881250007,
      "d": 301.8159375000105,
      "v": 64
    },
    {
      "midi": 62,
      "hit": false,
      "t": 100763.7881250007,
      "d": 333.86718750001455,
      "v": 91
    },
    {
      "midi": 64,
      "hit": false,
      "t": 100766.45906250071,
      "d": 288.46125000000757,
      "v": 63
    },
    {
      "midi": 67,
      "hit": false,
      "t": 101159.08687500072,
      "d": 301.8159375000105,
      "v": 73
    },
    {
      "midi": 72,
      "hit": false,
      "t": 101159.08687500072,
      "d": 317.8415625000198,
      "v": 82
    },
    {
      "midi": 64,
      "hit": false,
      "t": 101161.75781250073,
      "d": 293.8031250000058,
      "v": 54
    },
    {
      "midi": 60,
      "hit": false,
      "t": 101161.75781250073,
      "d": 307.15781250000873,
      "v": 91
    },
    {
      "midi": 67,
      "hit": false,
      "t": 101535.68906250074,
      "d": 344.5509374999965,
      "v": 73
    },
    {
      "midi": 64,
      "hit": false,
      "t": 101541.03093750073,
      "d": 339.20906249999825,
      "v": 63
    },
    {
      "midi": 71,
      "hit": false,
      "t": 101541.03093750073,
      "d": 339.20906249999825,
      "v": 73
    },
    {
      "midi": 59,
      "hit": false,
      "t": 101541.03093750073,
      "d": 349.89281249999476,
      "v": 82
    },
    {
      "midi": 60,
      "hit": false,
      "t": 102048.50906250073,
      "d": 480.7687500000029,
      "v": 91
    },
    {
      "midi": 64,
      "hit": false,
      "t": 102051.18000000074,
      "d": 459.40124999999534,
      "v": 63
    },
    {
      "midi": 72,
      "hit": false,
      "t": 102051.18000000074,
      "d": 470.08499999999185,
      "v": 82
    },
    {
      "midi": 67,
      "hit": false,
      "t": 102051.18000000074,
      "d": 478.0978124999965,
      "v": 73
    },
    {
      "midi": 69,
      "hit": false,
      "t": 102817.73906250072,
      "d": 280.44843750001746,
      "v": 73
    },
    {
      "midi": 64,
      "hit": false,
      "t": 102817.73906250072,
      "d": 293.8031250000204,
      "v": 82
    },
    {
      "midi": 65,
      "hit": false,
      "t": 102820.41000000073,
      "d": 285.7903125000157,
      "v": 73
    },
    {
      "midi": 76,
      "hit": false,
      "t": 102823.08093750074,
      "d": 245.72625000000698,
      "v": 67
    },
    {
      "midi": 72,
      "hit": false,
      "t": 102825.75187500074,
      "d": 315.17062499999884,
      "v": 73
    },
    {
      "midi": 65,
      "hit": false,
      "t": 103210.36687500075,
      "d": 331.19625000000815,
      "v": 64
    },
    {
      "midi": 69,
      "hit": false,
      "t": 103213.03781250076,
      "d": 323.1834375000035,
      "v": 91
    },
    {
      "midi": 62,
      "hit": false,
      "t": 103213.03781250076,
      "d": 331.19625000000815,
      "v": 91
    },
    {
      "midi": 74,
      "hit": false,
      "t": 103213.03781250076,
      "d": 347.2218750000029,
      "v": 82
    },
    {
      "midi": 60,
      "hit": false,
      "t": 103589.64000000076,
      "d": 64.10250000000815,
      "v": 82
    },
    {
      "midi": 72,
      "hit": false,
      "t": 103592.31093750076,
      "d": 53.41874999999709,
      "v": 73
    },
    {
      "midi": 69,
      "hit": false,
      "t": 103592.31093750076,
      "d": 64.10250000000815,
      "v": 64
    },
    {
      "midi": 65,
      "hit": false,
      "t": 103592.31093750076,
      "d": 66.77343750001455,
      "v": 64
    },
    {
      "midi": 60,
      "hit": false,
      "t": 103843.37906250078,
      "d": 61.431562500001746,
      "v": 82
    },
    {
      "midi": 65,
      "hit": false,
      "t": 103848.72093750078,
      "d": 58.760625000009895,
      "v": 64
    },
    {
      "midi": 69,
      "hit": false,
      "t": 103848.72093750078,
      "d": 66.77343750001455,
      "v": 91
    },
    {
      "midi": 72,
      "hit": false,
      "t": 103851.39187500079,
      "d": 58.760625000009895,
      "v": 73
    },
    {
      "midi": 60,
      "hit": false,
      "t": 104099.7890625008,
      "d": 85.47000000000116,
      "v": 82
    },
    {
      "midi": 65,
      "hit": false,
      "t": 104105.1309375008,
      "d": 61.431562500001746,
      "v": 73
    },
    {
      "midi": 69,
      "hit": false,
      "t": 104105.1309375008,
      "d": 72.11531249999825,
      "v": 82
    },
    {
      "midi": 72,
      "hit": false,
      "t": 104105.1309375008,
      "d": 72.11531249999825,
      "v": 73
    },
    {
      "midi": 62,
      "hit": false,
      "t": 104364.21187500081,
      "d": 128.2050000000163,
      "v": 82
    },
    {
      "midi": 69,
      "hit": false,
      "t": 104364.21187500081,
      "d": 138.8887500000128,
      "v": 82
    },
    {
      "midi": 65,
      "hit": false,
      "t": 104366.88281250081,
      "d": 117.52125000000524,
      "v": 73
    },
    {
      "midi": 74,
      "hit": false,
      "t": 104366.88281250081,
      "d": 122.86312500000349,
      "v": 91
    },
    {
      "midi": 69,
      "hit": false,
      "t": 104869.01906250083,
      "d": 88.14093749999302,
      "v": 82
    },
    {
      "midi": 50,
      "hit": false,
      "t": 104874.36093750082,
      "d": 48.076874999998836,
      "v": 73
    },
    {
      "midi": 62,
      "hit": false,
      "t": 104874.36093750082,
      "d": 48.076874999998836,
      "v": 82
    },
    {
      "midi": 76,
      "hit": false,
      "t": 104874.36093750082,
      "d": 53.41874999999709,
      "v": 73
    },
    {
      "midi": 72,
      "hit": false,
      "t": 104874.36093750082,
      "d": 56.08968750000349,
      "v": 73
    },
    {
      "midi": 65,
      "hit": false,
      "t": 104874.36093750082,
      "d": 61.431562500001746,
      "v": 73
    },
    {
      "midi": 65,
      "hit": false,
      "t": 105258.97593750081,
      "d": 53.41874999999709,
      "v": 73
    },
    {
      "midi": 72,
      "hit": false,
      "t": 105258.97593750081,
      "d": 53.41874999999709,
      "v": 60
    },
    {
      "midi": 76,
      "hit": false,
      "t": 105258.97593750081,
      "d": 53.41874999999709,
      "v": 60
    },
    {
      "midi": 69,
      "hit": false,
      "t": 105258.97593750081,
      "d": 61.431562500001746,
      "v": 73
    },
    {
      "midi": 62,
      "hit": false,
      "t": 105258.97593750081,
      "d": 66.7734375,
      "v": 73
    },
    {
      "midi": 50,
      "hit": false,
      "t": 105258.97593750081,
      "d": 77.45718749999651,
      "v": 73
    },
    {
      "midi": 62,
      "hit": false,
      "t": 105638.2490625008,
      "d": 77.45718749999651,
      "v": 73
    },
    {
      "midi": 50,
      "hit": false,
      "t": 105638.2490625008,
      "d": 82.79906249999476,
      "v": 82
    },
    {
      "midi": 65,
      "hit": false,
      "t": 105643.5909375008,
      "d": 53.41874999999709,
      "v": 73
    },
    {
      "midi": 72,
      "hit": false,
      "t": 105643.5909375008,
      "d": 58.76062499999534,
      "v": 73
    },
    {
      "midi": 76,
      "hit": false,
      "t": 105643.5909375008,
      "d": 58.76062499999534,
      "v": 64
    },
    {
      "midi": 69,
      "hit": false,
      "t": 105643.5909375008,
      "d": 69.44437499999185,
      "v": 82
    },
    {
      "midi": 72,
      "hit": false,
      "t": 106022.8640625008,
      "d": 56.08968750000349,
      "v": 64
    },
    {
      "midi": 76,
      "hit": false,
      "t": 106022.8640625008,
      "d": 58.760625000009895,
      "v": 66
    },
    {
      "midi": 65,
      "hit": false,
      "t": 106022.8640625008,
      "d": 66.77343750001455,
      "v": 73
    },
    {
      "midi": 69,
      "hit": false,
      "t": 106022.8640625008,
      "d": 66.77343750001455,
      "v": 73
    },
    {
      "midi": 62,
      "hit": false,
      "t": 106022.8640625008,
      "d": 72.1153125000128,
      "v": 73
    },
    {
      "midi": 50,
      "hit": false,
      "t": 106022.8640625008,
      "d": 85.47000000001572,
      "v": 82
    },
    {
      "midi": 65,
      "hit": false,
      "t": 106407.47906250082,
      "d": 66.7734375,
      "v": 82
    },
    {
      "midi": 50,
      "hit": false,
      "t": 106407.47906250082,
      "d": 77.45718750001106,
      "v": 82
    },
    {
      "midi": 62,
      "hit": false,
      "t": 106407.47906250082,
      "d": 77.45718750001106,
      "v": 82
    },
    {
      "midi": 69,
      "hit": false,
      "t": 106407.47906250082,
      "d": 85.47000000001572,
      "v": 91
    },
    {
      "midi": 76,
      "hit": false,
      "t": 106412.82093750082,
      "d": 61.431562500001746,
      "v": 64
    },
    {
      "midi": 72,
      "hit": false,
      "t": 106412.82093750082,
      "d": 64.10250000000815,
      "v": 60
    },
    {
      "midi": 71,
      "hit": false,
      "t": 106920.29906250084,
      "d": 85.47000000000116,
      "v": 73
    },
    {
      "midi": 62,
      "hit": false,
      "t": 106925.64093750084,
      "d": 53.41874999999709,
      "v": 64
    },
    {
      "midi": 65,
      "hit": false,
      "t": 106925.64093750084,
      "d": 58.76062499999534,
      "v": 73
    },
    {
      "midi": 74,
      "hit": false,
      "t": 106925.64093750084,
      "d": 64.1024999999936,
      "v": 73
    },
    {
      "midi": 55,
      "hit": false,
      "t": 106925.64093750084,
      "d": 66.7734375,
      "v": 64
    },
    {
      "midi": 69,
      "hit": false,
      "t": 106925.64093750084,
      "d": 77.45718749999651,
      "v": 64
    },
    {
      "midi": 62,
      "hit": false,
      "t": 107310.25593750084,
      "d": 64.10250000000815,
      "v": 73
    },
    {
      "midi": 65,
      "hit": false,
      "t": 107310.25593750084,
      "d": 69.4443750000064,
      "v": 73
    },
    {
      "midi": 74,
      "hit": false,
      "t": 107312.92687500085,
      "d": 40.06406249999418,
      "v": 82
    },
    {
      "midi": 71,
      "hit": false,
      "t": 107312.92687500085,
      "d": 48.076874999998836,
      "v": 82
    },
    {
      "midi": 69,
      "hit": false,
      "t": 107312.92687500085,
      "d": 53.41874999999709,
      "v": 73
    },
    {
      "midi": 55,
      "hit": false,
      "t": 107312.92687500085,
      "d": 66.7734375,
      "v": 73
    },
    {
      "midi": 62,
      "hit": false,
      "t": 107692.20000000086,
      "d": 69.44437500002095,
      "v": 64
    },
    {
      "midi": 65,
      "hit": false,
      "t": 107692.20000000086,
      "d": 72.11531250002736,
      "v": 73
    },
    {
      "midi": 55,
      "hit": false,
      "t": 107694.87093750086,
      "d": 61.431562500001746,
      "v": 73
    },
    {
      "midi": 71,
      "hit": false,
      "t": 107694.87093750086,
      "d": 64.10250000000815,
      "v": 82
    },
    {
      "midi": 69,
      "hit": false,
      "t": 107694.87093750086,
      "d": 66.77343750001455,
      "v": 74
    },
    {
      "midi": 74,
      "hit": false,
      "t": 107694.87093750086,
      "d": 66.77343750001455,
      "v": 68
    },
    {
      "midi": 55,
      "hit": false,
      "t": 108079.48593750088,
      "d": 42.73500000000058,
      "v": 82
    },
    {
      "midi": 71,
      "hit": false,
      "t": 108079.48593750088,
      "d": 45.405937500006985,
      "v": 82
    },
    {
      "midi": 62,
      "hit": false,
      "t": 108079.48593750088,
      "d": 50.74781250000524,
      "v": 60
    },
    {
      "midi": 65,
      "hit": false,
      "t": 108079.48593750088,
      "d": 56.08968750000349,
      "v": 82
    },
    {
      "midi": 69,
      "hit": false,
      "t": 108079.48593750088,
      "d": 61.431562500001746,
      "v": 64
    },
    {
      "midi": 74,
      "hit": false,
      "t": 108079.48593750088,
      "d": 61.431562500001746,
      "v": 64
    },
    {
      "midi": 55,
      "hit": false,
      "t": 108461.43000000088,
      "d": 61.431562500001746,
      "v": 83
    },
    {
      "midi": 62,
      "hit": false,
      "t": 108461.43000000088,
      "d": 61.431562500001746,
      "v": 73
    },
    {
      "midi": 71,
      "hit": false,
      "t": 108464.10093750089,
      "d": 42.73500000000058,
      "v": 78
    },
    {
      "midi": 65,
      "hit": false,
      "t": 108464.10093750089,
      "d": 58.76062499999534,
      "v": 77
    },
    {
      "midi": 69,
      "hit": false,
      "t": 108464.10093750089,
      "d": 61.431562500001746,
      "v": 73
    },
    {
      "midi": 74,
      "hit": false,
      "t": 108464.10093750089,
      "d": 66.7734375,
      "v": 78
    },
    {
      "midi": 69,
      "hit": false,
      "t": 108971.57906250088,
      "d": 88.14093749999302,
      "v": 82
    },
    {
      "midi": 50,
      "hit": false,
      "t": 108976.92093750088,
      "d": 48.076874999998836,
      "v": 73
    },
    {
      "midi": 62,
      "hit": false,
      "t": 108976.92093750088,
      "d": 48.076874999998836,
      "v": 82
    },
    {
      "midi": 76,
      "hit": false,
      "t": 108976.92093750088,
      "d": 53.41874999999709,
      "v": 73
    },
    {
      "midi": 72,
      "hit": false,
      "t": 108976.92093750088,
      "d": 56.08968750000349,
      "v": 73
    },
    {
      "midi": 65,
      "hit": false,
      "t": 108976.92093750088,
      "d": 61.431562500001746,
      "v": 73
    },
    {
      "midi": 65,
      "hit": false,
      "t": 109361.53593750087,
      "d": 53.41874999999709,
      "v": 73
    },
    {
      "midi": 72,
      "hit": false,
      "t": 109361.53593750087,
      "d": 53.41874999999709,
      "v": 60
    },
    {
      "midi": 76,
      "hit": false,
      "t": 109361.53593750087,
      "d": 53.41874999999709,
      "v": 60
    },
    {
      "midi": 69,
      "hit": false,
      "t": 109361.53593750087,
      "d": 61.431562500001746,
      "v": 73
    },
    {
      "midi": 62,
      "hit": false,
      "t": 109361.53593750087,
      "d": 66.7734375,
      "v": 73
    },
    {
      "midi": 50,
      "hit": false,
      "t": 109361.53593750087,
      "d": 77.45718749999651,
      "v": 73
    },
    {
      "midi": 62,
      "hit": false,
      "t": 109740.80906250086,
      "d": 77.45718749999651,
      "v": 73
    },
    {
      "midi": 50,
      "hit": false,
      "t": 109740.80906250086,
      "d": 82.79906249999476,
      "v": 82
    },
    {
      "midi": 65,
      "hit": false,
      "t": 109746.15093750086,
      "d": 53.41874999999709,
      "v": 73
    },
    {
      "midi": 72,
      "hit": false,
      "t": 109746.15093750086,
      "d": 58.76062499999534,
      "v": 73
    },
    {
      "midi": 76,
      "hit": false,
      "t": 109746.15093750086,
      "d": 58.76062499999534,
      "v": 64
    },
    {
      "midi": 69,
      "hit": false,
      "t": 109746.15093750086,
      "d": 69.44437499999185,
      "v": 82
    },
    {
      "midi": 72,
      "hit": false,
      "t": 110125.42406250085,
      "d": 56.08968750000349,
      "v": 64
    },
    {
      "midi": 76,
      "hit": false,
      "t": 110125.42406250085,
      "d": 58.760625000009895,
      "v": 66
    },
    {
      "midi": 65,
      "hit": false,
      "t": 110125.42406250085,
      "d": 66.77343750001455,
      "v": 73
    },
    {
      "midi": 69,
      "hit": false,
      "t": 110125.42406250085,
      "d": 66.77343750001455,
      "v": 73
    },
    {
      "midi": 62,
      "hit": false,
      "t": 110125.42406250085,
      "d": 72.1153125000128,
      "v": 73
    },
    {
      "midi": 50,
      "hit": false,
      "t": 110125.42406250085,
      "d": 85.47000000001572,
      "v": 82
    },
    {
      "midi": 65,
      "hit": false,
      "t": 110510.03906250087,
      "d": 66.7734375,
      "v": 82
    },
    {
      "midi": 50,
      "hit": false,
      "t": 110510.03906250087,
      "d": 77.45718750001106,
      "v": 82
    },
    {
      "midi": 62,
      "hit": false,
      "t": 110510.03906250087,
      "d": 77.45718750001106,
      "v": 82
    },
    {
      "midi": 69,
      "hit": false,
      "t": 110510.03906250087,
      "d": 85.47000000001572,
      "v": 91
    },
    {
      "midi": 76,
      "hit": false,
      "t": 110515.38093750087,
      "d": 61.431562500001746,
      "v": 64
    },
    {
      "midi": 72,
      "hit": false,
      "t": 110515.38093750087,
      "d": 64.10250000000815,
      "v": 60
    },
    {
      "midi": 71,
      "hit": false,
      "t": 111022.8590625009,
      "d": 85.47000000000116,
      "v": 73
    },
    {
      "midi": 62,
      "hit": false,
      "t": 111028.2009375009,
      "d": 53.41874999999709,
      "v": 64
    },
    {
      "midi": 65,
      "hit": false,
      "t": 111028.2009375009,
      "d": 58.76062499999534,
      "v": 73
    },
    {
      "midi": 74,
      "hit": false,
      "t": 111028.2009375009,
      "d": 64.1024999999936,
      "v": 73
    },
    {
      "midi": 55,
      "hit": false,
      "t": 111028.2009375009,
      "d": 66.7734375,
      "v": 64
    },
    {
      "midi": 69,
      "hit": false,
      "t": 111028.2009375009,
      "d": 77.45718749999651,
      "v": 64
    },
    {
      "midi": 62,
      "hit": false,
      "t": 111412.8159375009,
      "d": 64.10250000000815,
      "v": 73
    },
    {
      "midi": 65,
      "hit": false,
      "t": 111412.8159375009,
      "d": 69.4443750000064,
      "v": 73
    },
    {
      "midi": 74,
      "hit": false,
      "t": 111415.4868750009,
      "d": 40.06406249999418,
      "v": 82
    },
    {
      "midi": 71,
      "hit": false,
      "t": 111415.4868750009,
      "d": 48.076874999998836,
      "v": 82
    },
    {
      "midi": 69,
      "hit": false,
      "t": 111415.4868750009,
      "d": 53.41874999999709,
      "v": 73
    },
    {
      "midi": 55,
      "hit": false,
      "t": 111415.4868750009,
      "d": 66.7734375,
      "v": 73
    },
    {
      "midi": 71,
      "hit": false,
      "t": 111797.4309375009,
      "d": 48.076874999998836,
      "v": 82
    },
    {
      "midi": 55,
      "hit": false,
      "t": 111797.4309375009,
      "d": 61.431562500001746,
      "v": 73
    },
    {
      "midi": 69,
      "hit": false,
      "t": 111797.4309375009,
      "d": 66.7734375,
      "v": 82
    },
    {
      "midi": 74,
      "hit": false,
      "t": 111797.4309375009,
      "d": 66.7734375,
      "v": 68
    },
    {
      "midi": 62,
      "hit": false,
      "t": 111797.4309375009,
      "d": 69.4443750000064,
      "v": 64
    },
    {
      "midi": 65,
      "hit": false,
      "t": 111797.4309375009,
      "d": 72.1153125000128,
      "v": 73
    },
    {
      "midi": 55,
      "hit": false,
      "t": 112053.84093750092,
      "d": 56.08968750000349,
      "v": 82
    },
    {
      "midi": 65,
      "hit": false,
      "t": 112053.84093750092,
      "d": 56.08968750000349,
      "v": 82
    },
    {
      "midi": 62,
      "hit": false,
      "t": 112053.84093750092,
      "d": 61.431562500001746,
      "v": 60
    },
    {
      "midi": 69,
      "hit": false,
      "t": 112053.84093750092,
      "d": 61.431562500001746,
      "v": 64
    },
    {
      "midi": 74,
      "hit": false,
      "t": 112053.84093750092,
      "d": 69.4443750000064,
      "v": 64
    },
    {
      "midi": 71,
      "hit": false,
      "t": 112053.84093750092,
      "d": 72.1153125000128,
      "v": 82
    },
    {
      "midi": 55,
      "hit": false,
      "t": 112563.99000000094,
      "d": 61.431562500001746,
      "v": 83
    },
    {
      "midi": 62,
      "hit": false,
      "t": 112563.99000000094,
      "d": 61.431562500001746,
      "v": 73
    },
    {
      "midi": 71,
      "hit": false,
      "t": 112566.66093750094,
      "d": 42.73500000000058,
      "v": 74
    },
    {
      "midi": 65,
      "hit": false,
      "t": 112566.66093750094,
      "d": 58.76062499999534,
      "v": 77
    },
    {
      "midi": 69,
      "hit": false,
      "t": 112566.66093750094,
      "d": 61.431562500001746,
      "v": 73
    },
    {
      "midi": 74,
      "hit": false,
      "t": 112566.66093750094,
      "d": 66.7734375,
      "v": 84
    },
    {
      "midi": 67,
      "hit": false,
      "t": 113074.13906250094,
      "d": 88.14093749999302,
      "v": 82
    },
    {
      "midi": 52,
      "hit": false,
      "t": 113079.48093750094,
      "d": 48.076874999998836,
      "v": 73
    },
    {
      "midi": 62,
      "hit": false,
      "t": 113079.48093750094,
      "d": 48.076874999998836,
      "v": 82
    },
    {
      "midi": 74,
      "hit": false,
      "t": 113079.48093750094,
      "d": 53.41874999999709,
      "v": 73
    },
    {
      "midi": 71,
      "hit": false,
      "t": 113079.48093750094,
      "d": 56.08968750000349,
      "v": 73
    },
    {
      "midi": 64,
      "hit": false,
      "t": 113079.48093750094,
      "d": 61.431562500001746,
      "v": 73
    },
    {
      "midi": 64,
      "hit": false,
      "t": 113464.09593750093,
      "d": 53.41874999999709,
      "v": 73
    },
    {
      "midi": 71,
      "hit": false,
      "t": 113464.09593750093,
      "d": 53.41874999999709,
      "v": 60
    },
    {
      "midi": 74,
      "hit": false,
      "t": 113464.09593750093,
      "d": 53.41874999999709,
      "v": 60
    },
    {
      "midi": 67,
      "hit": false,
      "t": 113464.09593750093,
      "d": 61.431562500001746,
      "v": 73
    },
    {
      "midi": 62,
      "hit": false,
      "t": 113464.09593750093,
      "d": 66.7734375,
      "v": 73
    },
    {
      "midi": 52,
      "hit": false,
      "t": 113464.09593750093,
      "d": 77.45718749999651,
      "v": 73
    },
    {
      "midi": 62,
      "hit": false,
      "t": 113843.36906250092,
      "d": 77.45718749999651,
      "v": 73
    },
    {
      "midi": 52,
      "hit": false,
      "t": 113843.36906250092,
      "d": 82.79906249999476,
      "v": 82
    },
    {
      "midi": 64,
      "hit": false,
      "t": 113848.71093750092,
      "d": 53.41874999999709,
      "v": 73
    },
    {
      "midi": 71,
      "hit": false,
      "t": 113848.71093750092,
      "d": 58.76062499999534,
      "v": 73
    },
    {
      "midi": 74,
      "hit": false,
      "t": 113848.71093750092,
      "d": 58.76062499999534,
      "v": 64
    },
    {
      "midi": 67,
      "hit": false,
      "t": 113848.71093750092,
      "d": 69.44437499999185,
      "v": 82
    },
    {
      "midi": 71,
      "hit": false,
      "t": 114227.98406250091,
      "d": 56.08968750000349,
      "v": 64
    },
    {
      "midi": 74,
      "hit": false,
      "t": 114227.98406250091,
      "d": 58.760625000009895,
      "v": 66
    },
    {
      "midi": 64,
      "hit": false,
      "t": 114227.98406250091,
      "d": 66.77343750001455,
      "v": 73
    },
    {
      "midi": 67,
      "hit": false,
      "t": 114227.98406250091,
      "d": 66.77343750001455,
      "v": 73
    },
    {
      "midi": 62,
      "hit": false,
      "t": 114227.98406250091,
      "d": 72.1153125000128,
      "v": 73
    },
    {
      "midi": 52,
      "hit": false,
      "t": 114227.98406250091,
      "d": 85.47000000001572,
      "v": 82
    },
    {
      "midi": 64,
      "hit": false,
      "t": 114612.59906250093,
      "d": 66.7734375,
      "v": 82
    },
    {
      "midi": 52,
      "hit": false,
      "t": 114612.59906250093,
      "d": 77.45718750001106,
      "v": 82
    },
    {
      "midi": 62,
      "hit": false,
      "t": 114612.59906250093,
      "d": 77.45718750001106,
      "v": 82
    },
    {
      "midi": 67,
      "hit": false,
      "t": 114612.59906250093,
      "d": 85.47000000001572,
      "v": 91
    },
    {
      "midi": 74,
      "hit": false,
      "t": 114617.94093750093,
      "d": 61.431562500001746,
      "v": 64
    },
    {
      "midi": 71,
      "hit": false,
      "t": 114617.94093750093,
      "d": 64.10250000000815,
      "v": 60
    },
    {
      "midi": 69,
      "hit": false,
      "t": 115125.41906250095,
      "d": 85.47000000000116,
      "v": 73
    },
    {
      "midi": 60,
      "hit": false,
      "t": 115130.76093750095,
      "d": 53.41874999999709,
      "v": 64
    },
    {
      "midi": 64,
      "hit": false,
      "t": 115130.76093750095,
      "d": 58.76062499999534,
      "v": 73
    },
    {
      "midi": 72,
      "hit": false,
      "t": 115130.76093750095,
      "d": 64.1024999999936,
      "v": 73
    },
    {
      "midi": 57,
      "hit": false,
      "t": 115130.76093750095,
      "d": 66.7734375,
      "v": 64
    },
    {
      "midi": 67,
      "hit": false,
      "t": 115130.76093750095,
      "d": 77.45718749999651,
      "v": 64
    },
    {
      "midi": 60,
      "hit": false,
      "t": 115515.37593750095,
      "d": 64.10250000000815,
      "v": 73
    },
    {
      "midi": 64,
      "hit": false,
      "t": 115515.37593750095,
      "d": 69.4443750000064,
      "v": 73
    },
    {
      "midi": 72,
      "hit": false,
      "t": 115518.04687500096,
      "d": 40.06406249999418,
      "v": 82
    },
    {
      "midi": 69,
      "hit": false,
      "t": 115518.04687500096,
      "d": 48.076874999998836,
      "v": 82
    },
    {
      "midi": 67,
      "hit": false,
      "t": 115518.04687500096,
      "d": 53.41874999999709,
      "v": 73
    },
    {
      "midi": 57,
      "hit": false,
      "t": 115518.04687500096,
      "d": 66.7734375,
      "v": 73
    },
    {
      "midi": 60,
      "hit": false,
      "t": 115897.32000000097,
      "d": 69.44437500002095,
      "v": 64
    },
    {
      "midi": 64,
      "hit": false,
      "t": 115897.32000000097,
      "d": 72.11531250002736,
      "v": 73
    },
    {
      "midi": 57,
      "hit": false,
      "t": 115899.99093750097,
      "d": 61.431562500001746,
      "v": 73
    },
    {
      "midi": 69,
      "hit": false,
      "t": 115899.99093750097,
      "d": 64.10250000000815,
      "v": 82
    },
    {
      "midi": 67,
      "hit": false,
      "t": 115899.99093750097,
      "d": 66.77343750001455,
      "v": 74
    },
    {
      "midi": 72,
      "hit": false,
      "t": 115899.99093750097,
      "d": 66.77343750001455,
      "v": 68
    },
    {
      "midi": 57,
      "hit": false,
      "t": 116284.605937501,
      "d": 42.73500000000058,
      "v": 82
    },
    {
      "midi": 69,
      "hit": false,
      "t": 116284.605937501,
      "d": 45.405937500006985,
      "v": 82
    },
    {
      "midi": 60,
      "hit": false,
      "t": 116284.605937501,
      "d": 50.74781250000524,
      "v": 60
    },
    {
      "midi": 64,
      "hit": false,
      "t": 116284.605937501,
      "d": 56.08968750000349,
      "v": 82
    },
    {
      "midi": 67,
      "hit": false,
      "t": 116284.605937501,
      "d": 61.431562500001746,
      "v": 64
    },
    {
      "midi": 72,
      "hit": false,
      "t": 116284.605937501,
      "d": 61.431562500001746,
      "v": 64
    },
    {
      "midi": 57,
      "hit": false,
      "t": 116666.55000000099,
      "d": 61.431562500001746,
      "v": 83
    },
    {
      "midi": 60,
      "hit": false,
      "t": 116666.55000000099,
      "d": 61.431562500001746,
      "v": 73
    },
    {
      "midi": 69,
      "hit": false,
      "t": 116669.220937501,
      "d": 42.73500000000058,
      "v": 78
    },
    {
      "midi": 64,
      "hit": false,
      "t": 116669.220937501,
      "d": 58.76062499999534,
      "v": 77
    },
    {
      "midi": 67,
      "hit": false,
      "t": 116669.220937501,
      "d": 61.431562500001746,
      "v": 73
    },
    {
      "midi": 72,
      "hit": false,
      "t": 116669.220937501,
      "d": 66.7734375,
      "v": 78
    },
    {
      "midi": 62,
      "hit": false,
      "t": 116922.960000001,
      "d": 58.760625000009895,
      "v": 82
    },
    {
      "midi": 60,
      "hit": false,
      "t": 116922.960000001,
      "d": 80.12812500001746,
      "v": 73
    },
    {
      "midi": 65,
      "hit": false,
      "t": 116925.630937501,
      "d": 58.760625000009895,
      "v": 56
    },
    {
      "midi": 69,
      "hit": false,
      "t": 116925.630937501,
      "d": 69.4443750000064,
      "v": 73
    },
    {
      "midi": 38,
      "hit": false,
      "t": 116930.972812501,
      "d": 66.77343750001455,
      "v": 82
    },
    {
      "midi": 38,
      "hit": false,
      "t": 117179.37000000101,
      "d": 48.07687500001339,
      "v": 73
    },
    {
      "midi": 60,
      "hit": false,
      "t": 117179.37000000101,
      "d": 74.78625000001921,
      "v": 82
    },
    {
      "midi": 69,
      "hit": false,
      "t": 117179.37000000101,
      "d": 85.47000000003027,
      "v": 82
    },
    {
      "midi": 62,
      "hit": false,
      "t": 117182.04093750102,
      "d": 58.760625000009895,
      "v": 91
    },
    {
      "midi": 65,
      "hit": false,
      "t": 117182.04093750102,
      "d": 74.78625000001921,
      "v": 73
    },
    {
      "midi": 62,
      "hit": false,
      "t": 117433.10906250104,
      "d": 104.16656250001688,
      "v": 82
    },
    {
      "midi": 38,
      "hit": false,
      "t": 117435.78000000105,
      "d": 77.45718750001106,
      "v": 91
    },
    {
      "midi": 69,
      "hit": false,
      "t": 117438.45093750105,
      "d": 56.08968750000349,
      "v": 73
    },
    {
      "midi": 65,
      "hit": false,
      "t": 117438.45093750105,
      "d": 64.10250000000815,
      "v": 73
    },
    {
      "midi": 60,
      "hit": false,
      "t": 117438.45093750105,
      "d": 77.45718750001106,
      "v": 82
    },
    {
      "midi": 65,
      "hit": false,
      "t": 118202.33906250105,
      "d": 53.41875000001164,
      "v": 73
    },
    {
      "midi": 60,
      "hit": false,
      "t": 118202.33906250105,
      "d": 64.10250000000815,
      "v": 82
    },
    {
      "midi": 62,
      "hit": false,
      "t": 118202.33906250105,
      "d": 64.10250000000815,
      "v": 91
    },
    {
      "midi": 69,
      "hit": false,
      "t": 118205.01000000106,
      "d": 61.431562500001746,
      "v": 73
    },
    {
      "midi": 38,
      "hit": false,
      "t": 118210.35187500106,
      "d": 45.405937500006985,
      "v": 91
    },
    {
      "midi": 60,
      "hit": false,
      "t": 118464.09093750105,
      "d": 72.1153125000128,
      "v": 91
    },
    {
      "midi": 65,
      "hit": false,
      "t": 118464.09093750105,
      "d": 72.1153125000128,
      "v": 73
    },
    {
      "midi": 62,
      "hit": false,
      "t": 118464.09093750105,
      "d": 80.12812500001746,
      "v": 82
    },
    {
      "midi": 69,
      "hit": false,
      "t": 118464.09093750105,
      "d": 82.79906250002387,
      "v": 82
    },
    {
      "midi": 38,
      "hit": false,
      "t": 118466.76187500106,
      "d": 77.45718750001106,
      "v": 91
    },
    {
      "midi": 43,
      "hit": false,
      "t": 118968.89812500107,
      "d": 459.40124999999534,
      "v": 73
    },
    {
      "midi": 55,
      "hit": false,
      "t": 118984.92375000106,
      "d": 408.65343750000466,
      "v": 64
    },
    {
      "midi": 67,
      "hit": false,
      "t": 118984.92375000106,
      "d": 413.9953125000029,
      "v": 64
    },
    {
      "midi": 57,
      "hit": false,
      "t": 119465.69250000107,
      "d": 448.71749999999884,
      "v": 73
    },
    {
      "midi": 69,
      "hit": false,
      "t": 119468.36343750107,
      "d": 448.71749999999884,
      "v": 73
    },
    {
      "midi": 41,
      "hit": false,
      "t": 119481.71812500108,
      "d": 422.008124999993,
      "v": 82
    },
    {
      "midi": 71,
      "hit": false,
      "t": 119981.18343750107,
      "d": 454.0593749999971,
      "v": 73
    },
    {
      "midi": 40,
      "hit": false,
      "t": 119981.18343750107,
      "d": 459.40124999999534,
      "v": 73
    },
    {
      "midi": 59,
      "hit": false,
      "t": 119981.18343750107,
      "d": 486.11062500000116,
      "v": 73
    },
    {
      "midi": 60,
      "hit": false,
      "t": 120502.01625000106,
      "d": 475.42687500000466,
      "v": 73
    },
    {
      "midi": 72,
      "hit": false,
      "t": 120502.01625000106,
      "d": 478.09781250001106,
      "v": 64
    },
    {
      "midi": 38,
      "hit": false,
      "t": 120507.35812500106,
      "d": 472.7559375000128,
      "v": 91
    },
    {
      "midi": 67,
      "hit": false,
      "t": 121276.58812500107,
      "d": 283.1193750000093,
      "v": 71
    },
    {
      "midi": 64,
      "hit": false,
      "t": 121281.93000000107,
      "d": 240.38437500000873,
      "v": 63
    },
    {
      "midi": 74,
      "hit": false,
      "t": 121284.60093750108,
      "d": 245.72625000000698,
      "v": 73
    },
    {
      "midi": 62,
      "hit": false,
      "t": 121284.60093750108,
      "d": 269.7646875000064,
      "v": 91
    },
    {
      "midi": 67,
      "hit": false,
      "t": 121666.54500000108,
      "d": 293.8031250000058,
      "v": 74
    },
    {
      "midi": 64,
      "hit": false,
      "t": 121666.54500000108,
      "d": 299.1450000000041,
      "v": 63
    },
    {
      "midi": 60,
      "hit": false,
      "t": 121666.54500000108,
      "d": 312.499687500007,
      "v": 82
    },
    {
      "midi": 72,
      "hit": false,
      "t": 121666.54500000108,
      "d": 328.52531250000175,
      "v": 79
    },
    {
      "midi": 59,
      "hit": false,
      "t": 122056.50187500108,
      "d": 336.5381250000064,
      "v": 82
    },
    {
      "midi": 64,
      "hit": false,
      "t": 122059.17281250108,
      "d": 304.4868750000023,
      "v": 54
    },
    {
      "midi": 67,
      "hit": false,
      "t": 122059.17281250108,
      "d": 339.20906249999825,
      "v": 74
    },
    {
      "midi": 71,
      "hit": false,
      "t": 122059.17281250108,
      "d": 339.20906249999825,
      "v": 73
    },
    {
      "midi": 64,
      "hit": false,
      "t": 122563.98000000109,
      "d": 357.9056249999994,
      "v": 63
    },
    {
      "midi": 60,
      "hit": false,
      "t": 122563.98000000109,
      "d": 395.29875000000175,
      "v": 82
    },
    {
      "midi": 67,
      "hit": false,
      "t": 122566.6509375011,
      "d": 381.94406249999884,
      "v": 74
    },
    {
      "midi": 72,
      "hit": false,
      "t": 122566.6509375011,
      "d": 397.9696874999936,
      "v": 73
    },
    {
      "midi": 65,
      "hit": false,
      "t": 123330.53906250109,
      "d": 285.7903124999866,
      "v": 73
    },
    {
      "midi": 72,
      "hit": false,
      "t": 123330.53906250109,
      "d": 307.1578124999942,
      "v": 82
    },
    {
      "midi": 64,
      "hit": false,
      "t": 123330.53906250109,
      "d": 320.5124999999971,
      "v": 82
    },
    {
      "midi": 76,
      "hit": false,
      "t": 123335.88093750109,
      "d": 264.4228124999936,
      "v": 76
    },
    {
      "midi": 69,
      "hit": false,
      "t": 123335.88093750109,
      "d": 283.11937499999476,
      "v": 73
    },
    {
      "midi": 69,
      "hit": false,
      "t": 123720.4959375011,
      "d": 323.18343750001804,
      "v": 73
    },
    {
      "midi": 74,
      "hit": false,
      "t": 123723.1668750011,
      "d": 328.5253125000163,
      "v": 91
    },
    {
      "midi": 65,
      "hit": false,
      "t": 123725.83781250111,
      "d": 299.1450000000041,
      "v": 64
    },
    {
      "midi": 62,
      "hit": false,
      "t": 123725.83781250111,
      "d": 312.499687500007,
      "v": 82
    },
    {
      "midi": 60,
      "hit": false,
      "t": 124094.42718750112,
      "d": 77.45718750001106,
      "v": 82
    },
    {
      "midi": 69,
      "hit": false,
      "t": 124097.09812500112,
      "d": 69.4443750000064,
      "v": 73
    },
    {
      "midi": 65,
      "hit": false,
      "t": 124099.76906250113,
      "d": 77.45718749999651,
      "v": 64
    },
    {
      "midi": 72,
      "hit": false,
      "t": 124105.11093750113,
      "d": 50.74781250000524,
      "v": 64
    },
    {
      "midi": 60,
      "hit": false,
      "t": 124353.50812500113,
      "d": 64.10250000000815,
      "v": 81
    },
    {
      "midi": 72,
      "hit": false,
      "t": 124356.17906250113,
      "d": 58.76062499999534,
      "v": 73
    },
    {
      "midi": 65,
      "hit": false,
      "t": 124356.17906250113,
      "d": 61.431562500001746,
      "v": 73
    },
    {
      "midi": 69,
      "hit": false,
      "t": 124356.17906250113,
      "d": 64.10250000000815,
      "v": 91
    },
    {
      "midi": 60,
      "hit": false,
      "t": 124609.91812500115,
      "d": 66.7734375,
      "v": 86
    },
    {
      "midi": 69,
      "hit": false,
      "t": 124612.58906250115,
      "d": 64.1024999999936,
      "v": 82
    },
    {
      "midi": 72,
      "hit": false,
      "t": 124612.58906250115,
      "d": 64.1024999999936,
      "v": 73
    },
    {
      "midi": 65,
      "hit": false,
      "t": 124617.93093750115,
      "d": 66.7734375,
      "v": 73
    },
    {
      "midi": 65,
      "hit": false,
      "t": 124874.34093750115,
      "d": 138.8887500000128,
      "v": 56
    },
    {
      "midi": 69,
      "hit": false,
      "t": 124874.34093750115,
      "d": 149.5725000000093,
      "v": 78
    },
    {
      "midi": 74,
      "hit": false,
      "t": 124874.34093750115,
      "d": 160.25625000000582,
      "v": 72
    },
    {
      "midi": 62,
      "hit": false,
      "t": 124877.01187500116,
      "d": 128.20500000000175,
      "v": 86
    },
    {
      "midi": 74,
      "hit": false,
      "t": 125379.14812500116,
      "d": 288.46125000000757,
      "v": 78
    },
    {
      "midi": 67,
      "hit": false,
      "t": 125379.14812500116,
      "d": 301.8159375000105,
      "v": 64
    },
    {
      "midi": 62,
      "hit": false,
      "t": 125379.14812500116,
      "d": 333.86718750001455,
      "v": 91
    },
    {
      "midi": 64,
      "hit": false,
      "t": 125381.81906250116,
      "d": 288.46125000000757,
      "v": 63
    },
    {
      "midi": 67,
      "hit": false,
      "t": 125774.44687500117,
      "d": 301.8159375000105,
      "v": 73
    },
    {
      "midi": 72,
      "hit": false,
      "t": 125774.44687500117,
      "d": 317.8415625000198,
      "v": 82
    },
    {
      "midi": 64,
      "hit": false,
      "t": 125777.11781250118,
      "d": 293.8031250000058,
      "v": 54
    },
    {
      "midi": 60,
      "hit": false,
      "t": 125777.11781250118,
      "d": 307.15781250000873,
      "v": 91
    },
    {
      "midi": 67,
      "hit": false,
      "t": 126151.04906250119,
      "d": 344.5509374999965,
      "v": 73
    },
    {
      "midi": 64,
      "hit": false,
      "t": 126156.39093750119,
      "d": 339.20906249999825,
      "v": 63
    },
    {
      "midi": 71,
      "hit": false,
      "t": 126156.39093750119,
      "d": 339.20906249999825,
      "v": 73
    },
    {
      "midi": 59,
      "hit": false,
      "t": 126156.39093750119,
      "d": 349.89281249999476,
      "v": 82
    },
    {
      "midi": 60,
      "hit": false,
      "t": 126663.86906250118,
      "d": 480.7687500000029,
      "v": 91
    },
    {
      "midi": 64,
      "hit": false,
      "t": 126666.54000000119,
      "d": 459.40124999999534,
      "v": 63
    },
    {
      "midi": 72,
      "hit": false,
      "t": 126666.54000000119,
      "d": 470.08499999999185,
      "v": 82
    },
    {
      "midi": 67,
      "hit": false,
      "t": 126666.54000000119,
      "d": 478.0978124999965,
      "v": 73
    },
    {
      "midi": 69,
      "hit": false,
      "t": 127433.09906250118,
      "d": 280.44843750001746,
      "v": 73
    },
    {
      "midi": 64,
      "hit": false,
      "t": 127433.09906250118,
      "d": 293.8031250000204,
      "v": 82
    },
    {
      "midi": 65,
      "hit": false,
      "t": 127435.77000000118,
      "d": 285.7903125000157,
      "v": 73
    },
    {
      "midi": 76,
      "hit": false,
      "t": 127438.44093750119,
      "d": 245.72625000000698,
      "v": 67
    },
    {
      "midi": 72,
      "hit": false,
      "t": 127441.1118750012,
      "d": 315.17062499999884,
      "v": 73
    },
    {
      "midi": 65,
      "hit": false,
      "t": 127825.7268750012,
      "d": 331.19625000000815,
      "v": 64
    },
    {
      "midi": 69,
      "hit": false,
      "t": 127828.3978125012,
      "d": 323.1834375000035,
      "v": 91
    },
    {
      "midi": 62,
      "hit": false,
      "t": 127828.3978125012,
      "d": 331.19625000000815,
      "v": 91
    },
    {
      "midi": 74,
      "hit": false,
      "t": 127828.3978125012,
      "d": 347.2218750000029,
      "v": 82
    },
    {
      "midi": 60,
      "hit": false,
      "t": 128205.00000000121,
      "d": 64.10250000000815,
      "v": 82
    },
    {
      "midi": 72,
      "hit": false,
      "t": 128207.67093750121,
      "d": 53.41874999999709,
      "v": 73
    },
    {
      "midi": 69,
      "hit": false,
      "t": 128207.67093750121,
      "d": 64.10250000000815,
      "v": 64
    },
    {
      "midi": 65,
      "hit": false,
      "t": 128207.67093750121,
      "d": 66.77343750001455,
      "v": 64
    },
    {
      "midi": 60,
      "hit": false,
      "t": 128458.73906250123,
      "d": 61.431562500001746,
      "v": 82
    },
    {
      "midi": 65,
      "hit": false,
      "t": 128464.08093750123,
      "d": 58.760625000009895,
      "v": 64
    },
    {
      "midi": 69,
      "hit": false,
      "t": 128464.08093750123,
      "d": 66.77343750001455,
      "v": 91
    },
    {
      "midi": 72,
      "hit": false,
      "t": 128466.75187500124,
      "d": 58.760625000009895,
      "v": 73
    },
    {
      "midi": 60,
      "hit": false,
      "t": 128715.14906250125,
      "d": 85.47000000000116,
      "v": 82
    },
    {
      "midi": 65,
      "hit": false,
      "t": 128720.49093750125,
      "d": 61.431562500001746,
      "v": 73
    },
    {
      "midi": 69,
      "hit": false,
      "t": 128720.49093750125,
      "d": 72.11531249999825,
      "v": 82
    },
    {
      "midi": 72,
      "hit": false,
      "t": 128720.49093750125,
      "d": 72.11531249999825,
      "v": 73
    },
    {
      "midi": 62,
      "hit": false,
      "t": 128979.57187500126,
      "d": 128.2050000000163,
      "v": 82
    },
    {
      "midi": 69,
      "hit": false,
      "t": 128979.57187500126,
      "d": 138.8887500000128,
      "v": 82
    },
    {
      "midi": 65,
      "hit": false,
      "t": 128982.24281250127,
      "d": 117.52125000000524,
      "v": 73
    },
    {
      "midi": 74,
      "hit": false,
      "t": 128982.24281250127,
      "d": 122.86312500000349,
      "v": 91
    },
    {
      "midi": 74,
      "hit": false,
      "t": 129484.37906250128,
      "d": 277.77750000001106,
      "v": 82
    },
    {
      "midi": 67,
      "hit": false,
      "t": 129484.37906250128,
      "d": 285.7903125000157,
      "v": 71
    },
    {
      "midi": 62,
      "hit": false,
      "t": 129487.05000000128,
      "d": 309.82875000001513,
      "v": 91
    },
    {
      "midi": 64,
      "hit": false,
      "t": 129489.72093750129,
      "d": 261.75187500000175,
      "v": 63
    },
    {
      "midi": 60,
      "hit": false,
      "t": 129868.9940625013,
      "d": 331.19625000000815,
      "v": 91
    },
    {
      "midi": 67,
      "hit": false,
      "t": 129874.3359375013,
      "d": 309.82875000001513,
      "v": 77
    },
    {
      "midi": 72,
      "hit": false,
      "t": 129874.3359375013,
      "d": 328.5253125000163,
      "v": 82
    },
    {
      "midi": 64,
      "hit": false,
      "t": 129877.0068750013,
      "d": 304.4868750000023,
      "v": 63
    },
    {
      "midi": 64,
      "hit": false,
      "t": 130261.6218750013,
      "d": 347.2218750000029,
      "v": 62
    },
    {
      "midi": 67,
      "hit": false,
      "t": 130261.6218750013,
      "d": 355.23468750000757,
      "v": 71
    },
    {
      "midi": 71,
      "hit": false,
      "t": 130261.6218750013,
      "d": 363.2475000000122,
      "v": 73
    },
    {
      "midi": 59,
      "hit": false,
      "t": 130261.6218750013,
      "d": 365.9184375000186,
      "v": 91
    },
    {
      "midi": 64,
      "hit": false,
      "t": 130766.42906250132,
      "d": 400.640625,
      "v": 63
    },
    {
      "midi": 60,
      "hit": false,
      "t": 130766.42906250132,
      "d": 424.67906250001397,
      "v": 82
    },
    {
      "midi": 72,
      "hit": false,
      "t": 130766.42906250132,
      "d": 424.67906250001397,
      "v": 82
    },
    {
      "midi": 67,
      "hit": false,
      "t": 130766.42906250132,
      "d": 427.3500000000058,
      "v": 81
    },
    {
      "midi": 69,
      "hit": false,
      "t": 131530.31718750132,
      "d": 301.8159374999814,
      "v": 73
    },
    {
      "midi": 65,
      "hit": false,
      "t": 131532.9881250013,
      "d": 277.7774999999965,
      "v": 73
    },
    {
      "midi": 72,
      "hit": false,
      "t": 131532.9881250013,
      "d": 285.79031250000116,
      "v": 73
    },
    {
      "midi": 64,
      "hit": false,
      "t": 131532.9881250013,
      "d": 307.1578124999942,
      "v": 91
    },
    {
      "midi": 76,
      "hit": false,
      "t": 131535.6590625013,
      "d": 259.08093749999534,
      "v": 82
    },
    {
      "midi": 69,
      "hit": false,
      "t": 131920.2740625013,
      "d": 315.17062499999884,
      "v": 82
    },
    {
      "midi": 62,
      "hit": false,
      "t": 131925.6159375013,
      "d": 315.17062499999884,
      "v": 82
    },
    {
      "midi": 65,
      "hit": false,
      "t": 131928.2868750013,
      "d": 299.1449999999895,
      "v": 73
    },
    {
      "midi": 74,
      "hit": false,
      "t": 131928.2868750013,
      "d": 317.8415625000198,
      "v": 82
    },
    {
      "midi": 72,
      "hit": false,
      "t": 132302.21812500132,
      "d": 61.431562499987194,
      "v": 82
    },
    {
      "midi": 69,
      "hit": false,
      "t": 132302.21812500132,
      "d": 74.78624999997555,
      "v": 73
    },
    {
      "midi": 65,
      "hit": false,
      "t": 132302.21812500132,
      "d": 80.12812499998836,
      "v": 73
    },
    {
      "midi": 60,
      "hit": false,
      "t": 132304.88906250132,
      "d": 61.431562499987194,
      "v": 82
    },
    {
      "midi": 69,
      "hit": false,
      "t": 132563.9700000013,
      "d": 64.10249999997905,
      "v": 82
    },
    {
      "midi": 65,
      "hit": false,
      "t": 132566.6409375013,
      "d": 53.41874999998254,
      "v": 73
    },
    {
      "midi": 60,
      "hit": false,
      "t": 132566.6409375013,
      "d": 64.10249999997905,
      "v": 82
    },
    {
      "midi": 72,
      "hit": false,
      "t": 132569.3118750013,
      "d": 64.10249999997905,
      "v": 73
    },
    {
      "midi": 69,
      "hit": false,
      "t": 132817.70906250126,
      "d": 74.78625000003376,
      "v": 82
    },
    {
      "midi": 72,
      "hit": false,
      "t": 132823.05093750128,
      "d": 58.76062499999534,
      "v": 82
    },
    {
      "midi": 60,
      "hit": false,
      "t": 132823.05093750128,
      "d": 64.10250000000815,
      "v": 91
    },
    {
      "midi": 65,
      "hit": false,
      "t": 132825.72187500127,
      "d": 69.44437500002095,
      "v": 64
    },
    {
      "midi": 69,
      "hit": false,
      "t": 133074.1190625013,
      "d": 130.87593749997905,
      "v": 81
    },
    {
      "midi": 65,
      "hit": false,
      "t": 133079.4609375013,
      "d": 122.86312499997439,
      "v": 73
    },
    {
      "midi": 62,
      "hit": false,
      "t": 133082.1318750013,
      "d": 80.12812499998836,
      "v": 73
    },
    {
      "midi": 74,
      "hit": false,
      "t": 133082.1318750013,
      "d": 117.52124999999069,
      "v": 82
    },
    {
      "midi": 67,
      "hit": false,
      "t": 133584.26812500128,
      "d": 283.1193750000384,
      "v": 71
    },
    {
      "midi": 64,
      "hit": false,
      "t": 133589.6100000013,
      "d": 240.38437499999418,
      "v": 63
    },
    {
      "midi": 74,
      "hit": false,
      "t": 133592.2809375013,
      "d": 245.72625000000698,
      "v": 73
    },
    {
      "midi": 62,
      "hit": false,
      "t": 133592.2809375013,
      "d": 269.76468750002095,
      "v": 91
    },
    {
      "midi": 67,
      "hit": false,
      "t": 133974.22500000132,
      "d": 293.8031250000058,
      "v": 74
    },
    {
      "midi": 64,
      "hit": false,
      "t": 133974.22500000132,
      "d": 299.1450000000186,
      "v": 63
    },
    {
      "midi": 60,
      "hit": false,
      "t": 133974.22500000132,
      "d": 312.499687500007,
      "v": 82
    },
    {
      "midi": 72,
      "hit": false,
      "t": 133974.22500000132,
      "d": 328.5253125000163,
      "v": 79
    },
    {
      "midi": 59,
      "hit": false,
      "t": 134364.18187500132,
      "d": 336.53812499999185,
      "v": 82
    },
    {
      "midi": 64,
      "hit": false,
      "t": 134366.8528125013,
      "d": 304.4868750000023,
      "v": 54
    },
    {
      "midi": 67,
      "hit": false,
      "t": 134366.8528125013,
      "d": 339.2090625000128,
      "v": 74
    },
    {
      "midi": 71,
      "hit": false,
      "t": 134366.8528125013,
      "d": 339.2090625000128,
      "v": 73
    },
    {
      "midi": 64,
      "hit": false,
      "t": 134871.6600000013,
      "d": 357.90562499998487,
      "v": 63
    },
    {
      "midi": 60,
      "hit": false,
      "t": 134871.6600000013,
      "d": 395.2987499999872,
      "v": 82
    },
    {
      "midi": 67,
      "hit": false,
      "t": 134874.3309375013,
      "d": 381.94406249999884,
      "v": 74
    },
    {
      "midi": 72,
      "hit": false,
      "t": 134874.3309375013,
      "d": 397.96968750000815,
      "v": 73
    },
    {
      "midi": 65,
      "hit": false,
      "t": 135638.2190625013,
      "d": 285.79031250003027,
      "v": 73
    },
    {
      "midi": 72,
      "hit": false,
      "t": 135638.2190625013,
      "d": 307.1578125000233,
      "v": 82
    },
    {
      "midi": 64,
      "hit": false,
      "t": 135638.2190625013,
      "d": 320.51250000001164,
      "v": 82
    },
    {
      "midi": 76,
      "hit": false,
      "t": 135643.56093750132,
      "d": 264.42281250000815,
      "v": 76
    },
    {
      "midi": 69,
      "hit": false,
      "t": 135643.56093750132,
      "d": 283.1193750000093,
      "v": 73
    },
    {
      "midi": 69,
      "hit": false,
      "t": 136028.1759375013,
      "d": 323.1834374999744,
      "v": 73
    },
    {
      "midi": 74,
      "hit": false,
      "t": 136030.8468750013,
      "d": 328.5253124999872,
      "v": 91
    },
    {
      "midi": 65,
      "hit": false,
      "t": 136033.5178125013,
      "d": 299.1449999999895,
      "v": 64
    },
    {
      "midi": 62,
      "hit": false,
      "t": 136033.5178125013,
      "d": 312.4996874999779,
      "v": 82
    },
    {
      "midi": 60,
      "hit": false,
      "t": 136402.10718750127,
      "d": 77.45718749999651,
      "v": 82
    },
    {
      "midi": 69,
      "hit": false,
      "t": 136404.77812500126,
      "d": 69.44437499999185,
      "v": 73
    },
    {
      "midi": 65,
      "hit": false,
      "t": 136407.44906250125,
      "d": 77.45718750002561,
      "v": 64
    },
    {
      "midi": 72,
      "hit": false,
      "t": 136412.79093750127,
      "d": 50.74781249999069,
      "v": 64
    },
    {
      "midi": 60,
      "hit": false,
      "t": 136661.18812500127,
      "d": 64.10249999997905,
      "v": 81
    },
    {
      "midi": 72,
      "hit": false,
      "t": 136663.85906250126,
      "d": 58.76062499999534,
      "v": 73
    },
    {
      "midi": 65,
      "hit": false,
      "t": 136663.85906250126,
      "d": 61.431562499987194,
      "v": 73
    },
    {
      "midi": 69,
      "hit": false,
      "t": 136663.85906250126,
      "d": 64.10249999997905,
      "v": 91
    },
    {
      "midi": 60,
      "hit": false,
      "t": 136917.59812500124,
      "d": 66.7734375,
      "v": 86
    },
    {
      "midi": 69,
      "hit": false,
      "t": 136920.26906250123,
      "d": 64.10250000000815,
      "v": 82
    },
    {
      "midi": 72,
      "hit": false,
      "t": 136920.26906250123,
      "d": 64.10250000000815,
      "v": 73
    },
    {
      "midi": 65,
      "hit": false,
      "t": 136925.61093750125,
      "d": 66.7734375,
      "v": 73
    },
    {
      "midi": 65,
      "hit": false,
      "t": 137182.02093750125,
      "d": 138.8887499999837,
      "v": 56
    },
    {
      "midi": 69,
      "hit": false,
      "t": 137182.02093750125,
      "d": 149.5724999999802,
      "v": 78
    },
    {
      "midi": 74,
      "hit": false,
      "t": 137182.02093750125,
      "d": 160.25624999997672,
      "v": 72
    },
    {
      "midi": 62,
      "hit": false,
      "t": 137184.69187500124,
      "d": 128.2049999999872,
      "v": 86
    },
    {
      "midi": 74,
      "hit": false,
      "t": 137686.82812500122,
      "d": 288.461249999993,
      "v": 78
    },
    {
      "midi": 67,
      "hit": false,
      "t": 137686.82812500122,
      "d": 301.8159374999814,
      "v": 64
    },
    {
      "midi": 62,
      "hit": false,
      "t": 137686.82812500122,
      "d": 333.8671874999709,
      "v": 91
    },
    {
      "midi": 64,
      "hit": false,
      "t": 137689.4990625012,
      "d": 288.461249999993,
      "v": 63
    },
    {
      "midi": 67,
      "hit": false,
      "t": 138082.12687500118,
      "d": 301.8159375000105,
      "v": 73
    },
    {
      "midi": 72,
      "hit": false,
      "t": 138082.12687500118,
      "d": 317.8415625000198,
      "v": 82
    },
    {
      "midi": 64,
      "hit": false,
      "t": 138084.79781250117,
      "d": 293.8031250000058,
      "v": 54
    },
    {
      "midi": 60,
      "hit": false,
      "t": 138084.79781250117,
      "d": 307.1578125000233,
      "v": 91
    },
    {
      "midi": 67,
      "hit": false,
      "t": 138458.7290625012,
      "d": 344.5509375000256,
      "v": 73
    },
    {
      "midi": 64,
      "hit": false,
      "t": 138464.0709375012,
      "d": 339.2090625000128,
      "v": 63
    },
    {
      "midi": 71,
      "hit": false,
      "t": 138464.0709375012,
      "d": 339.2090625000128,
      "v": 73
    },
    {
      "midi": 59,
      "hit": false,
      "t": 138464.0709375012,
      "d": 349.8928125000093,
      "v": 82
    },
    {
      "midi": 60,
      "hit": false,
      "t": 138971.54906250123,
      "d": 480.76874999998836,
      "v": 91
    },
    {
      "midi": 64,
      "hit": false,
      "t": 138974.22000000122,
      "d": 459.40124999999534,
      "v": 63
    },
    {
      "midi": 72,
      "hit": false,
      "t": 138974.22000000122,
      "d": 470.08499999999185,
      "v": 82
    },
    {
      "midi": 67,
      "hit": false,
      "t": 138974.22000000122,
      "d": 478.0978124999965,
      "v": 73
    },
    {
      "midi": 69,
      "hit": false,
      "t": 139740.7790625012,
      "d": 280.44843749995925,
      "v": 73
    },
    {
      "midi": 64,
      "hit": false,
      "t": 139740.7790625012,
      "d": 293.8031249999767,
      "v": 82
    },
    {
      "midi": 65,
      "hit": false,
      "t": 139743.4500000012,
      "d": 285.79031249997206,
      "v": 73
    },
    {
      "midi": 76,
      "hit": false,
      "t": 139746.1209375012,
      "d": 245.72624999997788,
      "v": 67
    },
    {
      "midi": 72,
      "hit": false,
      "t": 139748.7918750012,
      "d": 315.17062499999884,
      "v": 73
    },
    {
      "midi": 65,
      "hit": false,
      "t": 140133.40687500118,
      "d": 331.19625000000815,
      "v": 64
    },
    {
      "midi": 69,
      "hit": false,
      "t": 140136.07781250117,
      "d": 323.1834375000035,
      "v": 91
    },
    {
      "midi": 62,
      "hit": false,
      "t": 140136.07781250117,
      "d": 331.19625000000815,
      "v": 91
    },
    {
      "midi": 74,
      "hit": false,
      "t": 140136.07781250117,
      "d": 347.22187500001746,
      "v": 82
    },
    {
      "midi": 60,
      "hit": false,
      "t": 140512.6800000012,
      "d": 64.10250000000815,
      "v": 82
    },
    {
      "midi": 72,
      "hit": false,
      "t": 140515.35093750118,
      "d": 53.41875000001164,
      "v": 73
    },
    {
      "midi": 69,
      "hit": false,
      "t": 140515.35093750118,
      "d": 64.10250000000815,
      "v": 64
    },
    {
      "midi": 65,
      "hit": false,
      "t": 140515.35093750118,
      "d": 66.7734375,
      "v": 64
    },
    {
      "midi": 60,
      "hit": false,
      "t": 140766.41906250117,
      "d": 61.4315625000163,
      "v": 82
    },
    {
      "midi": 65,
      "hit": false,
      "t": 140771.76093750118,
      "d": 58.76062499999534,
      "v": 64
    },
    {
      "midi": 69,
      "hit": false,
      "t": 140771.76093750118,
      "d": 66.7734375,
      "v": 91
    },
    {
      "midi": 72,
      "hit": false,
      "t": 140774.43187500117,
      "d": 58.76062499999534,
      "v": 73
    },
    {
      "midi": 60,
      "hit": false,
      "t": 141022.82906250117,
      "d": 85.47000000000116,
      "v": 82
    },
    {
      "midi": 65,
      "hit": false,
      "t": 141028.17093750119,
      "d": 61.431562499987194,
      "v": 73
    },
    {
      "midi": 69,
      "hit": false,
      "t": 141028.17093750119,
      "d": 72.1153124999837,
      "v": 82
    },
    {
      "midi": 72,
      "hit": false,
      "t": 141028.17093750119,
      "d": 72.1153124999837,
      "v": 73
    },
    {
      "midi": 62,
      "hit": false,
      "t": 141287.25187500118,
      "d": 128.2049999999872,
      "v": 82
    },
    {
      "midi": 69,
      "hit": false,
      "t": 141287.25187500118,
      "d": 138.8887499999837,
      "v": 82
    },
    {
      "midi": 65,
      "hit": false,
      "t": 141289.92281250117,
      "d": 117.52124999999069,
      "v": 73
    },
    {
      "midi": 74,
      "hit": false,
      "t": 141289.92281250117,
      "d": 122.86312500000349,
      "v": 91
    },
    {
      "midi": 74,
      "hit": false,
      "t": 141792.05906250115,
      "d": 277.7774999999674,
      "v": 82
    },
    {
      "midi": 67,
      "hit": false,
      "t": 141792.05906250115,
      "d": 285.79031249997206,
      "v": 71
    },
    {
      "midi": 62,
      "hit": false,
      "t": 141794.73000000115,
      "d": 309.82874999998603,
      "v": 91
    },
    {
      "midi": 64,
      "hit": false,
      "t": 141797.40093750114,
      "d": 261.7518749999872,
      "v": 63
    },
    {
      "midi": 60,
      "hit": false,
      "t": 142176.67406250114,
      "d": 331.19625000000815,
      "v": 91
    },
    {
      "midi": 67,
      "hit": false,
      "t": 142182.01593750116,
      "d": 309.82874999998603,
      "v": 77
    },
    {
      "midi": 72,
      "hit": false,
      "t": 142182.01593750116,
      "d": 328.5253124999872,
      "v": 82
    },
    {
      "midi": 64,
      "hit": false,
      "t": 142184.68687500115,
      "d": 304.4868750000023,
      "v": 63
    },
    {
      "midi": 64,
      "hit": false,
      "t": 142569.30187500114,
      "d": 347.22187499998836,
      "v": 62
    },
    {
      "midi": 67,
      "hit": false,
      "t": 142569.30187500114,
      "d": 355.234687499993,
      "v": 71
    },
    {
      "midi": 71,
      "hit": false,
      "t": 142569.30187500114,
      "d": 363.2474999999977,
      "v": 73
    },
    {
      "midi": 59,
      "hit": false,
      "t": 142569.30187500114,
      "d": 365.9184374999895,
      "v": 91
    },
    {
      "midi": 64,
      "hit": false,
      "t": 143074.10906250114,
      "d": 400.640625,
      "v": 63
    },
    {
      "midi": 60,
      "hit": false,
      "t": 143074.10906250114,
      "d": 424.67906250001397,
      "v": 82
    },
    {
      "midi": 72,
      "hit": false,
      "t": 143074.10906250114,
      "d": 424.67906250001397,
      "v": 82
    },
    {
      "midi": 67,
      "hit": false,
      "t": 143074.10906250114,
      "d": 427.3500000000058,
      "v": 81
    },
    {
      "midi": 69,
      "hit": false,
      "t": 143837.99718750114,
      "d": 301.8159374999814,
      "v": 73
    },
    {
      "midi": 65,
      "hit": false,
      "t": 143840.66812500113,
      "d": 277.7774999999965,
      "v": 73
    },
    {
      "midi": 72,
      "hit": false,
      "t": 143840.66812500113,
      "d": 285.79031250000116,
      "v": 73
    },
    {
      "midi": 64,
      "hit": false,
      "t": 143840.66812500113,
      "d": 307.1578124999942,
      "v": 91
    },
    {
      "midi": 76,
      "hit": false,
      "t": 143843.33906250112,
      "d": 259.08093749999534,
      "v": 82
    },
    {
      "midi": 69,
      "hit": false,
      "t": 144227.9540625011,
      "d": 315.17062499999884,
      "v": 82
    },
    {
      "midi": 62,
      "hit": false,
      "t": 144233.29593750113,
      "d": 315.17062499999884,
      "v": 82
    },
    {
      "midi": 65,
      "hit": false,
      "t": 144235.96687500112,
      "d": 299.1449999999895,
      "v": 73
    },
    {
      "midi": 74,
      "hit": false,
      "t": 144235.96687500112,
      "d": 317.8415625000198,
      "v": 82
    },
    {
      "midi": 72,
      "hit": false,
      "t": 144609.89812500114,
      "d": 61.431562499987194,
      "v": 82
    },
    {
      "midi": 69,
      "hit": false,
      "t": 144609.89812500114,
      "d": 74.78624999997555,
      "v": 73
    },
    {
      "midi": 65,
      "hit": false,
      "t": 144609.89812500114,
      "d": 80.12812499998836,
      "v": 73
    },
    {
      "midi": 60,
      "hit": false,
      "t": 144612.56906250113,
      "d": 61.431562499987194,
      "v": 82
    },
    {
      "midi": 69,
      "hit": false,
      "t": 144871.65000000113,
      "d": 64.10249999997905,
      "v": 82
    },
    {
      "midi": 65,
      "hit": false,
      "t": 144874.32093750112,
      "d": 53.41874999998254,
      "v": 73
    },
    {
      "midi": 60,
      "hit": false,
      "t": 144874.32093750112,
      "d": 64.10249999997905,
      "v": 82
    },
    {
      "midi": 72,
      "hit": false,
      "t": 144876.9918750011,
      "d": 64.10249999997905,
      "v": 73
    },
    {
      "midi": 69,
      "hit": false,
      "t": 145125.38906250108,
      "d": 74.78625000003376,
      "v": 82
    },
    {
      "midi": 72,
      "hit": false,
      "t": 145130.7309375011,
      "d": 58.76062499999534,
      "v": 82
    },
    {
      "midi": 60,
      "hit": false,
      "t": 145130.7309375011,
      "d": 64.10250000000815,
      "v": 91
    },
    {
      "midi": 65,
      "hit": false,
      "t": 145133.4018750011,
      "d": 69.44437500002095,
      "v": 64
    },
    {
      "midi": 69,
      "hit": false,
      "t": 145381.79906250112,
      "d": 130.87593749997905,
      "v": 81
    },
    {
      "midi": 65,
      "hit": false,
      "t": 145387.14093750113,
      "d": 122.86312499997439,
      "v": 73
    },
    {
      "midi": 62,
      "hit": false,
      "t": 145389.81187500112,
      "d": 80.12812499998836,
      "v": 73
    },
    {
      "midi": 74,
      "hit": false,
      "t": 145389.81187500112,
      "d": 117.52124999999069,
      "v": 82
    },
    {
      "midi": 67,
      "hit": false,
      "t": 145891.9481250011,
      "d": 283.1193750000384,
      "v": 71
    },
    {
      "midi": 64,
      "hit": false,
      "t": 145897.2900000011,
      "d": 240.38437499999418,
      "v": 63
    },
    {
      "midi": 74,
      "hit": false,
      "t": 145899.9609375011,
      "d": 245.72625000000698,
      "v": 73
    },
    {
      "midi": 62,
      "hit": false,
      "t": 145899.9609375011,
      "d": 269.76468750002095,
      "v": 91
    },
    {
      "midi": 67,
      "hit": false,
      "t": 146281.90500000113,
      "d": 293.8031250000058,
      "v": 74
    },
    {
      "midi": 64,
      "hit": false,
      "t": 146281.90500000113,
      "d": 299.1450000000186,
      "v": 63
    },
    {
      "midi": 60,
      "hit": false,
      "t": 146281.90500000113,
      "d": 312.499687500007,
      "v": 82
    },
    {
      "midi": 72,
      "hit": false,
      "t": 146281.90500000113,
      "d": 328.5253125000163,
      "v": 79
    },
    {
      "midi": 59,
      "hit": false,
      "t": 146671.86187500114,
      "d": 336.53812499999185,
      "v": 82
    },
    {
      "midi": 64,
      "hit": false,
      "t": 146674.53281250113,
      "d": 304.4868750000023,
      "v": 54
    },
    {
      "midi": 67,
      "hit": false,
      "t": 146674.53281250113,
      "d": 339.2090625000128,
      "v": 74
    },
    {
      "midi": 71,
      "hit": false,
      "t": 146674.53281250113,
      "d": 339.2090625000128,
      "v": 73
    },
    {
      "midi": 64,
      "hit": false,
      "t": 147179.34000000113,
      "d": 357.90562499998487,
      "v": 63
    },
    {
      "midi": 60,
      "hit": false,
      "t": 147179.34000000113,
      "d": 395.2987499999872,
      "v": 82
    },
    {
      "midi": 67,
      "hit": false,
      "t": 147182.01093750112,
      "d": 381.94406249999884,
      "v": 74
    },
    {
      "midi": 72,
      "hit": false,
      "t": 147182.01093750112,
      "d": 397.96968750000815,
      "v": 73
    },
    {
      "midi": 65,
      "hit": false,
      "t": 147945.89906250112,
      "d": 285.79031250003027,
      "v": 73
    },
    {
      "midi": 72,
      "hit": false,
      "t": 147945.89906250112,
      "d": 307.1578125000233,
      "v": 82
    },
    {
      "midi": 64,
      "hit": false,
      "t": 147945.89906250112,
      "d": 320.51250000001164,
      "v": 82
    },
    {
      "midi": 76,
      "hit": false,
      "t": 147951.24093750113,
      "d": 264.42281250000815,
      "v": 76
    },
    {
      "midi": 69,
      "hit": false,
      "t": 147951.24093750113,
      "d": 283.1193750000093,
      "v": 73
    },
    {
      "midi": 69,
      "hit": false,
      "t": 148335.85593750112,
      "d": 323.1834374999744,
      "v": 73
    },
    {
      "midi": 74,
      "hit": false,
      "t": 148338.52687500112,
      "d": 328.5253124999872,
      "v": 91
    },
    {
      "midi": 65,
      "hit": false,
      "t": 148341.1978125011,
      "d": 299.1449999999895,
      "v": 64
    },
    {
      "midi": 62,
      "hit": false,
      "t": 148341.1978125011,
      "d": 312.4996874999779,
      "v": 82
    },
    {
      "midi": 60,
      "hit": false,
      "t": 148709.7871875011,
      "d": 77.45718749999651,
      "v": 82
    },
    {
      "midi": 69,
      "hit": false,
      "t": 148712.45812500108,
      "d": 69.44437499999185,
      "v": 73
    },
    {
      "midi": 65,
      "hit": false,
      "t": 148715.12906250107,
      "d": 77.45718750002561,
      "v": 64
    },
    {
      "midi": 72,
      "hit": false,
      "t": 148720.4709375011,
      "d": 50.74781249999069,
      "v": 64
    },
    {
      "midi": 60,
      "hit": false,
      "t": 148968.86812500108,
      "d": 64.10249999997905,
      "v": 81
    },
    {
      "midi": 72,
      "hit": false,
      "t": 148971.53906250108,
      "d": 58.76062499999534,
      "v": 73
    },
    {
      "midi": 65,
      "hit": false,
      "t": 148971.53906250108,
      "d": 61.431562499987194,
      "v": 73
    },
    {
      "midi": 69,
      "hit": false,
      "t": 148971.53906250108,
      "d": 64.10249999997905,
      "v": 91
    },
    {
      "midi": 60,
      "hit": false,
      "t": 149225.27812500106,
      "d": 66.7734375,
      "v": 86
    },
    {
      "midi": 69,
      "hit": false,
      "t": 149227.94906250105,
      "d": 64.10250000000815,
      "v": 82
    },
    {
      "midi": 72,
      "hit": false,
      "t": 149227.94906250105,
      "d": 64.10250000000815,
      "v": 73
    },
    {
      "midi": 65,
      "hit": false,
      "t": 149233.29093750106,
      "d": 66.7734375,
      "v": 73
    },
    {
      "midi": 65,
      "hit": false,
      "t": 149489.70093750107,
      "d": 138.8887499999837,
      "v": 56
    },
    {
      "midi": 69,
      "hit": false,
      "t": 149489.70093750107,
      "d": 149.5724999999802,
      "v": 78
    },
    {
      "midi": 74,
      "hit": false,
      "t": 149489.70093750107,
      "d": 160.25624999997672,
      "v": 72
    },
    {
      "midi": 62,
      "hit": false,
      "t": 149492.37187500106,
      "d": 128.2049999999872,
      "v": 86
    },
    {
      "midi": 74,
      "hit": false,
      "t": 149994.50812500104,
      "d": 288.461249999993,
      "v": 78
    },
    {
      "midi": 67,
      "hit": false,
      "t": 149994.50812500104,
      "d": 301.8159374999814,
      "v": 64
    },
    {
      "midi": 62,
      "hit": false,
      "t": 149994.50812500104,
      "d": 333.8671874999709,
      "v": 91
    },
    {
      "midi": 64,
      "hit": false,
      "t": 149997.17906250103,
      "d": 288.461249999993,
      "v": 63
    },
    {
      "midi": 67,
      "hit": false,
      "t": 150389.806875001,
      "d": 301.8159375000105,
      "v": 73
    },
    {
      "midi": 72,
      "hit": false,
      "t": 150389.806875001,
      "d": 317.8415625000198,
      "v": 82
    },
    {
      "midi": 64,
      "hit": false,
      "t": 150392.477812501,
      "d": 293.8031250000058,
      "v": 54
    },
    {
      "midi": 60,
      "hit": false,
      "t": 150392.477812501,
      "d": 307.1578125000233,
      "v": 91
    },
    {
      "midi": 67,
      "hit": false,
      "t": 150766.409062501,
      "d": 344.5509375000256,
      "v": 73
    },
    {
      "midi": 64,
      "hit": false,
      "t": 150771.75093750103,
      "d": 339.2090625000128,
      "v": 63
    },
    {
      "midi": 71,
      "hit": false,
      "t": 150771.75093750103,
      "d": 339.2090625000128,
      "v": 73
    },
    {
      "midi": 59,
      "hit": false,
      "t": 150771.75093750103,
      "d": 349.8928125000093,
      "v": 82
    },
    {
      "midi": 60,
      "hit": false,
      "t": 151279.22906250105,
      "d": 480.76874999998836,
      "v": 91
    },
    {
      "midi": 64,
      "hit": false,
      "t": 151281.90000000104,
      "d": 459.40124999999534,
      "v": 63
    },
    {
      "midi": 72,
      "hit": false,
      "t": 151281.90000000104,
      "d": 470.08499999999185,
      "v": 82
    },
    {
      "midi": 67,
      "hit": false,
      "t": 151281.90000000104,
      "d": 478.0978124999965,
      "v": 73
    },
    {
      "midi": 69,
      "hit": false,
      "t": 152048.45906250103,
      "d": 280.44843749995925,
      "v": 73
    },
    {
      "midi": 64,
      "hit": false,
      "t": 152048.45906250103,
      "d": 293.8031249999767,
      "v": 82
    },
    {
      "midi": 65,
      "hit": false,
      "t": 152051.13000000102,
      "d": 285.79031249997206,
      "v": 73
    },
    {
      "midi": 76,
      "hit": false,
      "t": 152053.80093750102,
      "d": 245.72624999997788,
      "v": 67
    },
    {
      "midi": 72,
      "hit": false,
      "t": 152056.471875001,
      "d": 315.17062499999884,
      "v": 73
    },
    {
      "midi": 65,
      "hit": false,
      "t": 152441.086875001,
      "d": 331.19625000000815,
      "v": 64
    },
    {
      "midi": 69,
      "hit": false,
      "t": 152443.757812501,
      "d": 323.1834375000035,
      "v": 91
    },
    {
      "midi": 62,
      "hit": false,
      "t": 152443.757812501,
      "d": 331.19625000000815,
      "v": 91
    },
    {
      "midi": 74,
      "hit": false,
      "t": 152443.757812501,
      "d": 347.22187500001746,
      "v": 82
    },
    {
      "midi": 60,
      "hit": false,
      "t": 152820.360000001,
      "d": 64.10250000000815,
      "v": 82
    },
    {
      "midi": 72,
      "hit": false,
      "t": 152823.030937501,
      "d": 53.41875000001164,
      "v": 73
    },
    {
      "midi": 69,
      "hit": false,
      "t": 152823.030937501,
      "d": 64.10250000000815,
      "v": 64
    },
    {
      "midi": 65,
      "hit": false,
      "t": 152823.030937501,
      "d": 66.7734375,
      "v": 64
    },
    {
      "midi": 60,
      "hit": false,
      "t": 153074.099062501,
      "d": 61.4315625000163,
      "v": 82
    },
    {
      "midi": 65,
      "hit": false,
      "t": 153079.440937501,
      "d": 58.76062499999534,
      "v": 64
    },
    {
      "midi": 69,
      "hit": false,
      "t": 153079.440937501,
      "d": 66.7734375,
      "v": 91
    },
    {
      "midi": 72,
      "hit": false,
      "t": 153082.111875001,
      "d": 58.76062499999534,
      "v": 73
    },
    {
      "midi": 60,
      "hit": false,
      "t": 153330.509062501,
      "d": 85.47000000000116,
      "v": 82
    },
    {
      "midi": 65,
      "hit": false,
      "t": 153335.850937501,
      "d": 61.431562499987194,
      "v": 73
    },
    {
      "midi": 69,
      "hit": false,
      "t": 153335.850937501,
      "d": 72.1153124999837,
      "v": 82
    },
    {
      "midi": 72,
      "hit": false,
      "t": 153335.850937501,
      "d": 72.1153124999837,
      "v": 73
    },
    {
      "midi": 62,
      "hit": false,
      "t": 153594.931875001,
      "d": 128.2049999999872,
      "v": 82
    },
    {
      "midi": 69,
      "hit": false,
      "t": 153594.931875001,
      "d": 138.8887499999837,
      "v": 82
    },
    {
      "midi": 65,
      "hit": false,
      "t": 153597.602812501,
      "d": 117.52124999999069,
      "v": 73
    },
    {
      "midi": 74,
      "hit": false,
      "t": 153597.602812501,
      "d": 122.86312500000349,
      "v": 91
    },
    {
      "midi": 74,
      "hit": false,
      "t": 154099.73906250097,
      "d": 277.7774999999674,
      "v": 82
    },
    {
      "midi": 67,
      "hit": false,
      "t": 154099.73906250097,
      "d": 285.79031249997206,
      "v": 71
    },
    {
      "midi": 62,
      "hit": false,
      "t": 154102.41000000096,
      "d": 309.82874999998603,
      "v": 91
    },
    {
      "midi": 64,
      "hit": false,
      "t": 154105.08093750096,
      "d": 261.7518749999872,
      "v": 63
    },
    {
      "midi": 60,
      "hit": false,
      "t": 154484.35406250096,
      "d": 331.19625000000815,
      "v": 91
    },
    {
      "midi": 67,
      "hit": false,
      "t": 154489.69593750098,
      "d": 309.82874999998603,
      "v": 77
    },
    {
      "midi": 72,
      "hit": false,
      "t": 154489.69593750098,
      "d": 328.5253124999872,
      "v": 82
    },
    {
      "midi": 64,
      "hit": false,
      "t": 154492.36687500097,
      "d": 304.4868750000023,
      "v": 63
    },
    {
      "midi": 64,
      "hit": false,
      "t": 154876.98187500096,
      "d": 347.22187499998836,
      "v": 62
    },
    {
      "midi": 67,
      "hit": false,
      "t": 154876.98187500096,
      "d": 355.234687499993,
      "v": 71
    },
    {
      "midi": 71,
      "hit": false,
      "t": 154876.98187500096,
      "d": 363.2474999999977,
      "v": 73
    },
    {
      "midi": 59,
      "hit": false,
      "t": 154876.98187500096,
      "d": 365.9184374999895,
      "v": 91
    },
    {
      "midi": 64,
      "hit": false,
      "t": 155381.78906250096,
      "d": 400.640625,
      "v": 63
    },
    {
      "midi": 60,
      "hit": false,
      "t": 155381.78906250096,
      "d": 424.67906250001397,
      "v": 82
    },
    {
      "midi": 72,
      "hit": false,
      "t": 155381.78906250096,
      "d": 424.67906250001397,
      "v": 82
    },
    {
      "midi": 67,
      "hit": false,
      "t": 155381.78906250096,
      "d": 427.3500000000058,
      "v": 81
    },
    {
      "midi": 69,
      "hit": false,
      "t": 156145.67718750096,
      "d": 301.8159374999814,
      "v": 73
    },
    {
      "midi": 65,
      "hit": false,
      "t": 156148.34812500095,
      "d": 277.7774999999965,
      "v": 73
    },
    {
      "midi": 72,
      "hit": false,
      "t": 156148.34812500095,
      "d": 285.79031250000116,
      "v": 73
    },
    {
      "midi": 64,
      "hit": false,
      "t": 156148.34812500095,
      "d": 307.1578124999942,
      "v": 91
    },
    {
      "midi": 76,
      "hit": false,
      "t": 156151.01906250094,
      "d": 259.08093749999534,
      "v": 82
    },
    {
      "midi": 69,
      "hit": false,
      "t": 156535.63406250093,
      "d": 315.17062499999884,
      "v": 82
    },
    {
      "midi": 62,
      "hit": false,
      "t": 156540.97593750095,
      "d": 315.17062499999884,
      "v": 82
    },
    {
      "midi": 65,
      "hit": false,
      "t": 156543.64687500094,
      "d": 299.1449999999895,
      "v": 73
    },
    {
      "midi": 74,
      "hit": false,
      "t": 156543.64687500094,
      "d": 317.8415625000198,
      "v": 82
    },
    {
      "midi": 72,
      "hit": false,
      "t": 156917.57812500096,
      "d": 61.431562499987194,
      "v": 82
    },
    {
      "midi": 69,
      "hit": false,
      "t": 156917.57812500096,
      "d": 74.78624999997555,
      "v": 73
    },
    {
      "midi": 65,
      "hit": false,
      "t": 156917.57812500096,
      "d": 80.12812499998836,
      "v": 73
    },
    {
      "midi": 60,
      "hit": false,
      "t": 156920.24906250095,
      "d": 61.431562499987194,
      "v": 82
    },
    {
      "midi": 69,
      "hit": false,
      "t": 157179.33000000095,
      "d": 64.10249999997905,
      "v": 82
    },
    {
      "midi": 65,
      "hit": false,
      "t": 157182.00093750094,
      "d": 53.41874999998254,
      "v": 73
    },
    {
      "midi": 60,
      "hit": false,
      "t": 157182.00093750094,
      "d": 64.10249999997905,
      "v": 82
    },
    {
      "midi": 72,
      "hit": false,
      "t": 157184.67187500093,
      "d": 64.10249999997905,
      "v": 73
    },
    {
      "midi": 69,
      "hit": false,
      "t": 157433.0690625009,
      "d": 74.78625000003376,
      "v": 82
    },
    {
      "midi": 72,
      "hit": false,
      "t": 157438.4109375009,
      "d": 58.76062499999534,
      "v": 82
    },
    {
      "midi": 60,
      "hit": false,
      "t": 157438.4109375009,
      "d": 64.10250000000815,
      "v": 91
    },
    {
      "midi": 65,
      "hit": false,
      "t": 157441.0818750009,
      "d": 69.44437500002095,
      "v": 64
    },
    {
      "midi": 69,
      "hit": false,
      "t": 157689.47906250093,
      "d": 130.87593749997905,
      "v": 81
    },
    {
      "midi": 65,
      "hit": false,
      "t": 157694.82093750095,
      "d": 122.86312499997439,
      "v": 73
    },
    {
      "midi": 62,
      "hit": false,
      "t": 157697.49187500094,
      "d": 80.12812499998836,
      "v": 73
    },
    {
      "midi": 74,
      "hit": false,
      "t": 157697.49187500094,
      "d": 117.52124999999069,
      "v": 82
    },
    {
      "midi": 67,
      "hit": false,
      "t": 158199.62812500092,
      "d": 283.1193750000384,
      "v": 71
    },
    {
      "midi": 64,
      "hit": false,
      "t": 158204.97000000093,
      "d": 240.38437499999418,
      "v": 63
    },
    {
      "midi": 74,
      "hit": false,
      "t": 158207.64093750092,
      "d": 245.72625000000698,
      "v": 73
    },
    {
      "midi": 62,
      "hit": false,
      "t": 158207.64093750092,
      "d": 269.76468750002095,
      "v": 91
    },
    {
      "midi": 67,
      "hit": false,
      "t": 158589.58500000095,
      "d": 293.8031250000058,
      "v": 74
    },
    {
      "midi": 64,
      "hit": false,
      "t": 158589.58500000095,
      "d": 299.1450000000186,
      "v": 63
    },
    {
      "midi": 60,
      "hit": false,
      "t": 158589.58500000095,
      "d": 312.499687500007,
      "v": 82
    },
    {
      "midi": 72,
      "hit": false,
      "t": 158589.58500000095,
      "d": 328.5253125000163,
      "v": 79
    },
    {
      "midi": 59,
      "hit": false,
      "t": 158979.54187500096,
      "d": 336.53812499999185,
      "v": 82
    },
    {
      "midi": 64,
      "hit": false,
      "t": 158982.21281250095,
      "d": 304.4868750000023,
      "v": 54
    },
    {
      "midi": 67,
      "hit": false,
      "t": 158982.21281250095,
      "d": 339.2090625000128,
      "v": 74
    },
    {
      "midi": 71,
      "hit": false,
      "t": 158982.21281250095,
      "d": 339.2090625000128,
      "v": 73
    },
    {
      "midi": 64,
      "hit": false,
      "t": 159487.02000000095,
      "d": 357.90562499998487,
      "v": 63
    },
    {
      "midi": 60,
      "hit": false,
      "t": 159487.02000000095,
      "d": 395.2987499999872,
      "v": 82
    },
    {
      "midi": 67,
      "hit": false,
      "t": 159489.69093750094,
      "d": 381.94406249999884,
      "v": 74
    },
    {
      "midi": 72,
      "hit": false,
      "t": 159489.69093750094,
      "d": 397.96968750000815,
      "v": 73
    },
    {
      "midi": 65,
      "hit": false,
      "t": 160253.57906250094,
      "d": 285.79031250003027,
      "v": 73
    },
    {
      "midi": 72,
      "hit": false,
      "t": 160253.57906250094,
      "d": 307.1578125000233,
      "v": 82
    },
    {
      "midi": 64,
      "hit": false,
      "t": 160253.57906250094,
      "d": 320.51250000001164,
      "v": 82
    },
    {
      "midi": 76,
      "hit": false,
      "t": 160258.92093750095,
      "d": 264.42281250000815,
      "v": 76
    },
    {
      "midi": 69,
      "hit": false,
      "t": 160258.92093750095,
      "d": 283.1193750000093,
      "v": 73
    },
    {
      "midi": 69,
      "hit": false,
      "t": 160643.53593750094,
      "d": 323.1834374999744,
      "v": 73
    },
    {
      "midi": 74,
      "hit": false,
      "t": 160646.20687500093,
      "d": 328.5253124999872,
      "v": 91
    },
    {
      "midi": 65,
      "hit": false,
      "t": 160648.87781250093,
      "d": 299.1449999999895,
      "v": 64
    },
    {
      "midi": 62,
      "hit": false,
      "t": 160648.87781250093,
      "d": 312.4996874999779,
      "v": 82
    },
    {
      "midi": 60,
      "hit": false,
      "t": 161017.4671875009,
      "d": 77.45718749999651,
      "v": 82
    },
    {
      "midi": 69,
      "hit": false,
      "t": 161020.1381250009,
      "d": 69.44437499999185,
      "v": 73
    },
    {
      "midi": 65,
      "hit": false,
      "t": 161022.8090625009,
      "d": 77.45718750002561,
      "v": 64
    },
    {
      "midi": 72,
      "hit": false,
      "t": 161028.1509375009,
      "d": 50.74781249999069,
      "v": 64
    },
    {
      "midi": 60,
      "hit": false,
      "t": 161276.5481250009,
      "d": 64.10249999997905,
      "v": 81
    },
    {
      "midi": 72,
      "hit": false,
      "t": 161279.2190625009,
      "d": 58.76062499999534,
      "v": 73
    },
    {
      "midi": 65,
      "hit": false,
      "t": 161279.2190625009,
      "d": 61.431562499987194,
      "v": 73
    },
    {
      "midi": 69,
      "hit": false,
      "t": 161279.2190625009,
      "d": 64.10249999997905,
      "v": 91
    },
    {
      "midi": 60,
      "hit": false,
      "t": 161532.95812500088,
      "d": 66.7734375,
      "v": 86
    },
    {
      "midi": 69,
      "hit": false,
      "t": 161535.62906250087,
      "d": 64.10250000000815,
      "v": 82
    },
    {
      "midi": 72,
      "hit": false,
      "t": 161535.62906250087,
      "d": 64.10250000000815,
      "v": 73
    },
    {
      "midi": 65,
      "hit": false,
      "t": 161540.97093750088,
      "d": 66.7734375,
      "v": 73
    },
    {
      "midi": 65,
      "hit": false,
      "t": 161797.3809375009,
      "d": 138.8887499999837,
      "v": 56
    },
    {
      "midi": 69,
      "hit": false,
      "t": 161797.3809375009,
      "d": 149.5724999999802,
      "v": 78
    },
    {
      "midi": 74,
      "hit": false,
      "t": 161797.3809375009,
      "d": 160.25624999997672,
      "v": 72
    },
    {
      "midi": 62,
      "hit": false,
      "t": 161800.05187500088,
      "d": 128.2049999999872,
      "v": 86
    },
    {
      "midi": 69,
      "hit": false,
      "t": 162304.85906250085,
      "d": 88.14093750002212,
      "v": 82
    },
    {
      "midi": 50,
      "hit": false,
      "t": 162310.20093750086,
      "d": 48.076874999998836,
      "v": 73
    },
    {
      "midi": 62,
      "hit": false,
      "t": 162310.20093750086,
      "d": 48.076874999998836,
      "v": 82
    },
    {
      "midi": 76,
      "hit": false,
      "t": 162310.20093750086,
      "d": 53.41875000001164,
      "v": 73
    },
    {
      "midi": 72,
      "hit": false,
      "t": 162310.20093750086,
      "d": 56.08968750000349,
      "v": 73
    },
    {
      "midi": 65,
      "hit": false,
      "t": 162310.20093750086,
      "d": 61.4315625000163,
      "v": 73
    },
    {
      "midi": 65,
      "hit": false,
      "t": 162694.81593750088,
      "d": 53.41875000001164,
      "v": 73
    },
    {
      "midi": 72,
      "hit": false,
      "t": 162694.81593750088,
      "d": 53.41875000001164,
      "v": 60
    },
    {
      "midi": 76,
      "hit": false,
      "t": 162694.81593750088,
      "d": 53.41875000001164,
      "v": 60
    },
    {
      "midi": 69,
      "hit": false,
      "t": 162694.81593750088,
      "d": 61.4315625000163,
      "v": 73
    },
    {
      "midi": 62,
      "hit": false,
      "t": 162694.81593750088,
      "d": 66.7734375000291,
      "v": 73
    },
    {
      "midi": 50,
      "hit": false,
      "t": 162694.81593750088,
      "d": 77.45718750002561,
      "v": 73
    },
    {
      "midi": 62,
      "hit": false,
      "t": 163074.08906250092,
      "d": 77.45718750002561,
      "v": 73
    },
    {
      "midi": 50,
      "hit": false,
      "t": 163074.08906250092,
      "d": 82.79906250003842,
      "v": 82
    },
    {
      "midi": 65,
      "hit": false,
      "t": 163079.43093750093,
      "d": 53.41875000001164,
      "v": 73
    },
    {
      "midi": 72,
      "hit": false,
      "t": 163079.43093750093,
      "d": 58.76062500002445,
      "v": 73
    },
    {
      "midi": 76,
      "hit": false,
      "t": 163079.43093750093,
      "d": 58.76062500002445,
      "v": 64
    },
    {
      "midi": 69,
      "hit": false,
      "t": 163079.43093750093,
      "d": 69.44437500002095,
      "v": 82
    },
    {
      "midi": 72,
      "hit": false,
      "t": 163458.70406250097,
      "d": 56.08968750000349,
      "v": 64
    },
    {
      "midi": 76,
      "hit": false,
      "t": 163458.70406250097,
      "d": 58.76062499999534,
      "v": 66
    },
    {
      "midi": 65,
      "hit": false,
      "t": 163458.70406250097,
      "d": 66.7734375,
      "v": 73
    },
    {
      "midi": 69,
      "hit": false,
      "t": 163458.70406250097,
      "d": 66.7734375,
      "v": 73
    },
    {
      "midi": 62,
      "hit": false,
      "t": 163458.70406250097,
      "d": 72.1153125000128,
      "v": 73
    },
    {
      "midi": 50,
      "hit": false,
      "t": 163458.70406250097,
      "d": 85.47000000000116,
      "v": 82
    },
    {
      "midi": 65,
      "hit": false,
      "t": 163843.31906250096,
      "d": 66.7734375,
      "v": 82
    },
    {
      "midi": 50,
      "hit": false,
      "t": 163843.31906250096,
      "d": 77.45718749999651,
      "v": 82
    },
    {
      "midi": 62,
      "hit": false,
      "t": 163843.31906250096,
      "d": 77.45718749999651,
      "v": 82
    },
    {
      "midi": 69,
      "hit": false,
      "t": 163843.31906250096,
      "d": 85.47000000000116,
      "v": 91
    },
    {
      "midi": 76,
      "hit": false,
      "t": 163848.66093750097,
      "d": 61.431562499987194,
      "v": 64
    },
    {
      "midi": 72,
      "hit": false,
      "t": 163848.66093750097,
      "d": 64.10249999997905,
      "v": 60
    },
    {
      "midi": 71,
      "hit": false,
      "t": 164356.13906250097,
      "d": 85.47000000003027,
      "v": 73
    },
    {
      "midi": 62,
      "hit": false,
      "t": 164361.48093750098,
      "d": 53.41875000001164,
      "v": 64
    },
    {
      "midi": 65,
      "hit": false,
      "t": 164361.48093750098,
      "d": 58.76062500002445,
      "v": 73
    },
    {
      "midi": 74,
      "hit": false,
      "t": 164361.48093750098,
      "d": 64.10250000003725,
      "v": 73
    },
    {
      "midi": 55,
      "hit": false,
      "t": 164361.48093750098,
      "d": 66.7734375000291,
      "v": 64
    },
    {
      "midi": 69,
      "hit": false,
      "t": 164361.48093750098,
      "d": 77.45718750002561,
      "v": 64
    },
    {
      "midi": 62,
      "hit": false,
      "t": 164746.095937501,
      "d": 64.10250000000815,
      "v": 73
    },
    {
      "midi": 65,
      "hit": false,
      "t": 164746.095937501,
      "d": 69.44437500002095,
      "v": 73
    },
    {
      "midi": 74,
      "hit": false,
      "t": 164748.766875001,
      "d": 40.06406249999418,
      "v": 82
    },
    {
      "midi": 71,
      "hit": false,
      "t": 164748.766875001,
      "d": 48.076874999998836,
      "v": 82
    },
    {
      "midi": 69,
      "hit": false,
      "t": 164748.766875001,
      "d": 53.41875000001164,
      "v": 73
    },
    {
      "midi": 55,
      "hit": false,
      "t": 164748.766875001,
      "d": 66.7734375000291,
      "v": 73
    },
    {
      "midi": 62,
      "hit": false,
      "t": 165128.04000000103,
      "d": 69.44437499996275,
      "v": 64
    },
    {
      "midi": 65,
      "hit": false,
      "t": 165128.04000000103,
      "d": 72.1153124999546,
      "v": 73
    },
    {
      "midi": 55,
      "hit": false,
      "t": 165130.71093750102,
      "d": 61.431562499987194,
      "v": 73
    },
    {
      "midi": 71,
      "hit": false,
      "t": 165130.71093750102,
      "d": 64.10249999997905,
      "v": 82
    },
    {
      "midi": 69,
      "hit": false,
      "t": 165130.71093750102,
      "d": 66.7734374999709,
      "v": 74
    },
    {
      "midi": 74,
      "hit": false,
      "t": 165130.71093750102,
      "d": 66.7734374999709,
      "v": 68
    },
    {
      "midi": 55,
      "hit": false,
      "t": 165515.32593750098,
      "d": 42.73499999998603,
      "v": 82
    },
    {
      "midi": 71,
      "hit": false,
      "t": 165515.32593750098,
      "d": 45.40593749997788,
      "v": 82
    },
    {
      "midi": 62,
      "hit": false,
      "t": 165515.32593750098,
      "d": 50.74781249999069,
      "v": 60
    },
    {
      "midi": 65,
      "hit": false,
      "t": 165515.32593750098,
      "d": 56.08968750000349,
      "v": 82
    },
    {
      "midi": 69,
      "hit": false,
      "t": 165515.32593750098,
      "d": 61.4315625000163,
      "v": 64
    },
    {
      "midi": 74,
      "hit": false,
      "t": 165515.32593750098,
      "d": 61.4315625000163,
      "v": 64
    },
    {
      "midi": 55,
      "hit": false,
      "t": 165897.270000001,
      "d": 61.431562499987194,
      "v": 83
    },
    {
      "midi": 62,
      "hit": false,
      "t": 165897.270000001,
      "d": 61.431562499987194,
      "v": 73
    },
    {
      "midi": 71,
      "hit": false,
      "t": 165899.940937501,
      "d": 42.73499999998603,
      "v": 78
    },
    {
      "midi": 65,
      "hit": false,
      "t": 165899.940937501,
      "d": 58.76062499999534,
      "v": 77
    },
    {
      "midi": 69,
      "hit": false,
      "t": 165899.940937501,
      "d": 61.431562499987194,
      "v": 73
    },
    {
      "midi": 74,
      "hit": false,
      "t": 165899.940937501,
      "d": 66.7734375,
      "v": 78
    },
    {
      "midi": 69,
      "hit": false,
      "t": 166407.419062501,
      "d": 88.14093750002212,
      "v": 82
    },
    {
      "midi": 50,
      "hit": false,
      "t": 166412.760937501,
      "d": 48.076874999998836,
      "v": 73
    },
    {
      "midi": 62,
      "hit": false,
      "t": 166412.760937501,
      "d": 48.076874999998836,
      "v": 82
    },
    {
      "midi": 76,
      "hit": false,
      "t": 166412.760937501,
      "d": 53.41875000001164,
      "v": 73
    },
    {
      "midi": 72,
      "hit": false,
      "t": 166412.760937501,
      "d": 56.08968750000349,
      "v": 73
    },
    {
      "midi": 65,
      "hit": false,
      "t": 166412.760937501,
      "d": 61.4315625000163,
      "v": 73
    },
    {
      "midi": 65,
      "hit": false,
      "t": 166797.37593750103,
      "d": 53.41875000001164,
      "v": 73
    },
    {
      "midi": 72,
      "hit": false,
      "t": 166797.37593750103,
      "d": 53.41875000001164,
      "v": 60
    },
    {
      "midi": 76,
      "hit": false,
      "t": 166797.37593750103,
      "d": 53.41875000001164,
      "v": 60
    },
    {
      "midi": 69,
      "hit": false,
      "t": 166797.37593750103,
      "d": 61.4315625000163,
      "v": 73
    },
    {
      "midi": 62,
      "hit": false,
      "t": 166797.37593750103,
      "d": 66.7734375000291,
      "v": 73
    },
    {
      "midi": 50,
      "hit": false,
      "t": 166797.37593750103,
      "d": 77.45718750002561,
      "v": 73
    },
    {
      "midi": 62,
      "hit": false,
      "t": 167176.64906250106,
      "d": 77.45718750002561,
      "v": 73
    },
    {
      "midi": 50,
      "hit": false,
      "t": 167176.64906250106,
      "d": 82.79906250003842,
      "v": 82
    },
    {
      "midi": 65,
      "hit": false,
      "t": 167181.99093750108,
      "d": 53.41875000001164,
      "v": 73
    },
    {
      "midi": 72,
      "hit": false,
      "t": 167181.99093750108,
      "d": 58.76062500002445,
      "v": 73
    },
    {
      "midi": 76,
      "hit": false,
      "t": 167181.99093750108,
      "d": 58.76062500002445,
      "v": 64
    },
    {
      "midi": 69,
      "hit": false,
      "t": 167181.99093750108,
      "d": 69.44437500002095,
      "v": 82
    },
    {
      "midi": 72,
      "hit": false,
      "t": 167561.2640625011,
      "d": 56.08968750000349,
      "v": 64
    },
    {
      "midi": 76,
      "hit": false,
      "t": 167561.2640625011,
      "d": 58.76062499999534,
      "v": 66
    },
    {
      "midi": 65,
      "hit": false,
      "t": 167561.2640625011,
      "d": 66.7734375,
      "v": 73
    },
    {
      "midi": 69,
      "hit": false,
      "t": 167561.2640625011,
      "d": 66.7734375,
      "v": 73
    },
    {
      "midi": 62,
      "hit": false,
      "t": 167561.2640625011,
      "d": 72.1153125000128,
      "v": 73
    },
    {
      "midi": 50,
      "hit": false,
      "t": 167561.2640625011,
      "d": 85.47000000000116,
      "v": 82
    },
    {
      "midi": 65,
      "hit": false,
      "t": 167945.8790625011,
      "d": 66.7734375,
      "v": 82
    },
    {
      "midi": 50,
      "hit": false,
      "t": 167945.8790625011,
      "d": 77.45718749999651,
      "v": 82
    },
    {
      "midi": 62,
      "hit": false,
      "t": 167945.8790625011,
      "d": 77.45718749999651,
      "v": 82
    },
    {
      "midi": 69,
      "hit": false,
      "t": 167945.8790625011,
      "d": 85.47000000000116,
      "v": 91
    },
    {
      "midi": 76,
      "hit": false,
      "t": 167951.22093750112,
      "d": 61.431562499987194,
      "v": 64
    },
    {
      "midi": 72,
      "hit": false,
      "t": 167951.22093750112,
      "d": 64.10249999997905,
      "v": 60
    },
    {
      "midi": 71,
      "hit": false,
      "t": 168458.6990625011,
      "d": 85.47000000003027,
      "v": 73
    },
    {
      "midi": 62,
      "hit": false,
      "t": 168464.04093750112,
      "d": 53.41875000001164,
      "v": 64
    },
    {
      "midi": 65,
      "hit": false,
      "t": 168464.04093750112,
      "d": 58.76062500002445,
      "v": 73
    },
    {
      "midi": 74,
      "hit": false,
      "t": 168464.04093750112,
      "d": 64.10250000003725,
      "v": 73
    },
    {
      "midi": 55,
      "hit": false,
      "t": 168464.04093750112,
      "d": 66.7734375000291,
      "v": 64
    },
    {
      "midi": 69,
      "hit": false,
      "t": 168464.04093750112,
      "d": 77.45718750002561,
      "v": 64
    },
    {
      "midi": 62,
      "hit": false,
      "t": 168848.65593750114,
      "d": 64.10250000000815,
      "v": 73
    },
    {
      "midi": 65,
      "hit": false,
      "t": 168848.65593750114,
      "d": 69.44437500002095,
      "v": 73
    },
    {
      "midi": 74,
      "hit": false,
      "t": 168851.32687500113,
      "d": 40.06406249999418,
      "v": 82
    },
    {
      "midi": 71,
      "hit": false,
      "t": 168851.32687500113,
      "d": 48.076874999998836,
      "v": 82
    },
    {
      "midi": 69,
      "hit": false,
      "t": 168851.32687500113,
      "d": 53.41875000001164,
      "v": 73
    },
    {
      "midi": 55,
      "hit": false,
      "t": 168851.32687500113,
      "d": 66.7734375000291,
      "v": 73
    },
    {
      "midi": 71,
      "hit": false,
      "t": 169233.27093750116,
      "d": 48.076874999998836,
      "v": 82
    },
    {
      "midi": 55,
      "hit": false,
      "t": 169233.27093750116,
      "d": 61.431562499987194,
      "v": 73
    },
    {
      "midi": 69,
      "hit": false,
      "t": 169233.27093750116,
      "d": 66.7734375,
      "v": 82
    },
    {
      "midi": 74,
      "hit": false,
      "t": 169233.27093750116,
      "d": 66.7734375,
      "v": 68
    },
    {
      "midi": 62,
      "hit": false,
      "t": 169233.27093750116,
      "d": 69.44437499999185,
      "v": 64
    },
    {
      "midi": 65,
      "hit": false,
      "t": 169233.27093750116,
      "d": 72.1153124999837,
      "v": 73
    },
    {
      "midi": 55,
      "hit": false,
      "t": 169489.68093750114,
      "d": 56.08968750000349,
      "v": 82
    },
    {
      "midi": 65,
      "hit": false,
      "t": 169489.68093750114,
      "d": 56.08968750000349,
      "v": 82
    },
    {
      "midi": 62,
      "hit": false,
      "t": 169489.68093750114,
      "d": 61.4315625000163,
      "v": 60
    },
    {
      "midi": 69,
      "hit": false,
      "t": 169489.68093750114,
      "d": 61.4315625000163,
      "v": 64
    },
    {
      "midi": 74,
      "hit": false,
      "t": 169489.68093750114,
      "d": 69.44437500002095,
      "v": 64
    },
    {
      "midi": 71,
      "hit": false,
      "t": 169489.68093750114,
      "d": 72.1153125000128,
      "v": 82
    },
    {
      "midi": 55,
      "hit": false,
      "t": 169999.83000000115,
      "d": 61.431562499987194,
      "v": 83
    },
    {
      "midi": 62,
      "hit": false,
      "t": 169999.83000000115,
      "d": 61.431562499987194,
      "v": 73
    },
    {
      "midi": 71,
      "hit": false,
      "t": 170002.50093750114,
      "d": 42.73499999998603,
      "v": 74
    },
    {
      "midi": 65,
      "hit": false,
      "t": 170002.50093750114,
      "d": 58.76062499999534,
      "v": 77
    },
    {
      "midi": 69,
      "hit": false,
      "t": 170002.50093750114,
      "d": 61.431562499987194,
      "v": 73
    },
    {
      "midi": 74,
      "hit": false,
      "t": 170002.50093750114,
      "d": 66.7734375,
      "v": 84
    },
    {
      "midi": 67,
      "hit": false,
      "t": 170509.97906250114,
      "d": 88.14093750002212,
      "v": 82
    },
    {
      "midi": 52,
      "hit": false,
      "t": 170515.32093750115,
      "d": 48.076874999998836,
      "v": 73
    },
    {
      "midi": 62,
      "hit": false,
      "t": 170515.32093750115,
      "d": 48.076874999998836,
      "v": 82
    },
    {
      "midi": 74,
      "hit": false,
      "t": 170515.32093750115,
      "d": 53.41875000001164,
      "v": 73
    },
    {
      "midi": 71,
      "hit": false,
      "t": 170515.32093750115,
      "d": 56.08968750000349,
      "v": 73
    },
    {
      "midi": 64,
      "hit": false,
      "t": 170515.32093750115,
      "d": 61.4315625000163,
      "v": 73
    },
    {
      "midi": 64,
      "hit": false,
      "t": 170899.93593750117,
      "d": 53.41875000001164,
      "v": 73
    },
    {
      "midi": 71,
      "hit": false,
      "t": 170899.93593750117,
      "d": 53.41875000001164,
      "v": 60
    },
    {
      "midi": 74,
      "hit": false,
      "t": 170899.93593750117,
      "d": 53.41875000001164,
      "v": 60
    },
    {
      "midi": 67,
      "hit": false,
      "t": 170899.93593750117,
      "d": 61.4315625000163,
      "v": 73
    },
    {
      "midi": 62,
      "hit": false,
      "t": 170899.93593750117,
      "d": 66.7734375000291,
      "v": 73
    },
    {
      "midi": 52,
      "hit": false,
      "t": 170899.93593750117,
      "d": 77.45718750002561,
      "v": 73
    },
    {
      "midi": 62,
      "hit": false,
      "t": 171279.2090625012,
      "d": 77.45718750002561,
      "v": 73
    },
    {
      "midi": 52,
      "hit": false,
      "t": 171279.2090625012,
      "d": 82.79906250003842,
      "v": 82
    },
    {
      "midi": 64,
      "hit": false,
      "t": 171284.55093750122,
      "d": 53.41875000001164,
      "v": 73
    },
    {
      "midi": 71,
      "hit": false,
      "t": 171284.55093750122,
      "d": 58.76062500002445,
      "v": 73
    },
    {
      "midi": 74,
      "hit": false,
      "t": 171284.55093750122,
      "d": 58.76062500002445,
      "v": 64
    },
    {
      "midi": 67,
      "hit": false,
      "t": 171284.55093750122,
      "d": 69.44437500002095,
      "v": 82
    },
    {
      "midi": 71,
      "hit": false,
      "t": 171663.82406250125,
      "d": 56.08968750000349,
      "v": 64
    },
    {
      "midi": 74,
      "hit": false,
      "t": 171663.82406250125,
      "d": 58.76062499999534,
      "v": 66
    },
    {
      "midi": 64,
      "hit": false,
      "t": 171663.82406250125,
      "d": 66.7734375,
      "v": 73
    },
    {
      "midi": 67,
      "hit": false,
      "t": 171663.82406250125,
      "d": 66.7734375,
      "v": 73
    },
    {
      "midi": 62,
      "hit": false,
      "t": 171663.82406250125,
      "d": 72.1153125000128,
      "v": 73
    },
    {
      "midi": 52,
      "hit": false,
      "t": 171663.82406250125,
      "d": 85.47000000000116,
      "v": 82
    },
    {
      "midi": 64,
      "hit": false,
      "t": 172048.43906250125,
      "d": 66.7734375,
      "v": 82
    },
    {
      "midi": 52,
      "hit": false,
      "t": 172048.43906250125,
      "d": 77.45718749999651,
      "v": 82
    },
    {
      "midi": 62,
      "hit": false,
      "t": 172048.43906250125,
      "d": 77.45718749999651,
      "v": 82
    },
    {
      "midi": 67,
      "hit": false,
      "t": 172048.43906250125,
      "d": 85.47000000000116,
      "v": 91
    },
    {
      "midi": 74,
      "hit": false,
      "t": 172053.78093750126,
      "d": 61.431562499987194,
      "v": 64
    },
    {
      "midi": 71,
      "hit": false,
      "t": 172053.78093750126,
      "d": 64.10249999997905,
      "v": 60
    },
    {
      "midi": 69,
      "hit": false,
      "t": 172561.25906250125,
      "d": 85.47000000003027,
      "v": 73
    },
    {
      "midi": 60,
      "hit": false,
      "t": 172566.60093750127,
      "d": 53.41875000001164,
      "v": 64
    },
    {
      "midi": 64,
      "hit": false,
      "t": 172566.60093750127,
      "d": 58.76062500002445,
      "v": 73
    },
    {
      "midi": 72,
      "hit": false,
      "t": 172566.60093750127,
      "d": 64.10250000003725,
      "v": 73
    },
    {
      "midi": 57,
      "hit": false,
      "t": 172566.60093750127,
      "d": 66.7734375000291,
      "v": 64
    },
    {
      "midi": 67,
      "hit": false,
      "t": 172566.60093750127,
      "d": 77.45718750002561,
      "v": 64
    },
    {
      "midi": 60,
      "hit": false,
      "t": 172951.21593750129,
      "d": 64.10250000000815,
      "v": 73
    },
    {
      "midi": 64,
      "hit": false,
      "t": 172951.21593750129,
      "d": 69.44437500002095,
      "v": 73
    },
    {
      "midi": 72,
      "hit": false,
      "t": 172953.88687500128,
      "d": 40.06406249999418,
      "v": 82
    },
    {
      "midi": 69,
      "hit": false,
      "t": 172953.88687500128,
      "d": 48.076874999998836,
      "v": 82
    },
    {
      "midi": 67,
      "hit": false,
      "t": 172953.88687500128,
      "d": 53.41875000001164,
      "v": 73
    },
    {
      "midi": 57,
      "hit": false,
      "t": 172953.88687500128,
      "d": 66.7734375000291,
      "v": 73
    },
    {
      "midi": 60,
      "hit": false,
      "t": 173333.1600000013,
      "d": 69.44437499996275,
      "v": 64
    },
    {
      "midi": 64,
      "hit": false,
      "t": 173333.1600000013,
      "d": 72.1153124999546,
      "v": 73
    },
    {
      "midi": 57,
      "hit": false,
      "t": 173335.8309375013,
      "d": 61.431562499987194,
      "v": 73
    },
    {
      "midi": 69,
      "hit": false,
      "t": 173335.8309375013,
      "d": 64.10249999997905,
      "v": 82
    },
    {
      "midi": 67,
      "hit": false,
      "t": 173335.8309375013,
      "d": 66.7734374999709,
      "v": 74
    },
    {
      "midi": 72,
      "hit": false,
      "t": 173335.8309375013,
      "d": 66.7734374999709,
      "v": 68
    },
    {
      "midi": 57,
      "hit": false,
      "t": 173720.44593750127,
      "d": 42.73499999998603,
      "v": 82
    },
    {
      "midi": 69,
      "hit": false,
      "t": 173720.44593750127,
      "d": 45.40593749997788,
      "v": 82
    },
    {
      "midi": 60,
      "hit": false,
      "t": 173720.44593750127,
      "d": 50.74781249999069,
      "v": 60
    },
    {
      "midi": 64,
      "hit": false,
      "t": 173720.44593750127,
      "d": 56.08968750000349,
      "v": 82
    },
    {
      "midi": 67,
      "hit": false,
      "t": 173720.44593750127,
      "d": 61.4315625000163,
      "v": 64
    },
    {
      "midi": 72,
      "hit": false,
      "t": 173720.44593750127,
      "d": 61.4315625000163,
      "v": 64
    },
    {
      "midi": 57,
      "hit": false,
      "t": 174102.3900000013,
      "d": 61.431562499987194,
      "v": 83
    },
    {
      "midi": 60,
      "hit": false,
      "t": 174102.3900000013,
      "d": 61.431562499987194,
      "v": 73
    },
    {
      "midi": 69,
      "hit": false,
      "t": 174105.0609375013,
      "d": 42.73499999998603,
      "v": 78
    },
    {
      "midi": 64,
      "hit": false,
      "t": 174105.0609375013,
      "d": 58.76062499999534,
      "v": 77
    },
    {
      "midi": 67,
      "hit": false,
      "t": 174105.0609375013,
      "d": 61.431562499987194,
      "v": 73
    },
    {
      "midi": 72,
      "hit": false,
      "t": 174105.0609375013,
      "d": 66.7734375,
      "v": 78
    },
    {
      "midi": 62,
      "hit": false,
      "t": 174358.8000000013,
      "d": 58.76062499999534,
      "v": 82
    },
    {
      "midi": 50,
      "hit": false,
      "t": 174358.8000000013,
      "d": 77.4571874999674,
      "v": 82
    },
    {
      "midi": 60,
      "hit": false,
      "t": 174358.8000000013,
      "d": 80.12812499995925,
      "v": 73
    },
    {
      "midi": 65,
      "hit": false,
      "t": 174361.4709375013,
      "d": 58.76062499999534,
      "v": 56
    },
    {
      "midi": 69,
      "hit": false,
      "t": 174361.4709375013,
      "d": 69.44437499999185,
      "v": 73
    },
    {
      "midi": 38,
      "hit": false,
      "t": 174366.8128125013,
      "d": 66.7734374999709,
      "v": 82
    },
    {
      "midi": 38,
      "hit": false,
      "t": 174615.21000000124,
      "d": 48.076874999998836,
      "v": 73
    },
    {
      "midi": 50,
      "hit": false,
      "t": 174615.21000000124,
      "d": 56.08968750000349,
      "v": 64
    },
    {
      "midi": 60,
      "hit": false,
      "t": 174615.21000000124,
      "d": 74.78625000000466,
      "v": 82
    },
    {
      "midi": 69,
      "hit": false,
      "t": 174615.21000000124,
      "d": 85.47000000000116,
      "v": 82
    },
    {
      "midi": 62,
      "hit": false,
      "t": 174617.88093750124,
      "d": 58.76062500002445,
      "v": 91
    },
    {
      "midi": 65,
      "hit": false,
      "t": 174617.88093750124,
      "d": 74.78625000000466,
      "v": 73
    },
    {
      "midi": 62,
      "hit": false,
      "t": 174868.94906250125,
      "d": 104.16656249997322,
      "v": 82
    },
    {
      "midi": 38,
      "hit": false,
      "t": 174871.62000000125,
      "d": 77.45718749999651,
      "v": 91
    },
    {
      "midi": 69,
      "hit": false,
      "t": 174874.29093750124,
      "d": 56.08968750000349,
      "v": 73
    },
    {
      "midi": 65,
      "hit": false,
      "t": 174874.29093750124,
      "d": 64.10250000000815,
      "v": 73
    },
    {
      "midi": 60,
      "hit": false,
      "t": 174874.29093750124,
      "d": 77.45718749999651,
      "v": 82
    },
    {
      "midi": 50,
      "hit": false,
      "t": 174874.29093750124,
      "d": 80.12812499998836,
      "v": 82
    },
    {
      "midi": 65,
      "hit": false,
      "t": 175638.17906250124,
      "d": 53.41874999998254,
      "v": 73
    },
    {
      "midi": 60,
      "hit": false,
      "t": 175638.17906250124,
      "d": 64.10249999997905,
      "v": 82
    },
    {
      "midi": 62,
      "hit": false,
      "t": 175638.17906250124,
      "d": 64.10249999997905,
      "v": 91
    },
    {
      "midi": 69,
      "hit": false,
      "t": 175640.85000000123,
      "d": 61.431562499987194,
      "v": 73
    },
    {
      "midi": 50,
      "hit": false,
      "t": 175643.52093750122,
      "d": 66.7734375,
      "v": 73
    },
    {
      "midi": 38,
      "hit": false,
      "t": 175646.1918750012,
      "d": 45.405937500006985,
      "v": 91
    },
    {
      "midi": 50,
      "hit": false,
      "t": 175899.93093750122,
      "d": 64.10249999997905,
      "v": 82
    },
    {
      "midi": 60,
      "hit": false,
      "t": 175899.93093750122,
      "d": 72.1153124999837,
      "v": 91
    },
    {
      "midi": 65,
      "hit": false,
      "t": 175899.93093750122,
      "d": 72.1153124999837,
      "v": 73
    },
    {
      "midi": 62,
      "hit": false,
      "t": 175899.93093750122,
      "d": 80.12812499998836,
      "v": 82
    },
    {
      "midi": 69,
      "hit": false,
      "t": 175899.93093750122,
      "d": 82.79906249998021,
      "v": 82
    },
    {
      "midi": 38,
      "hit": false,
      "t": 175902.60187500122,
      "d": 77.45718749999651,
      "v": 91
    },
    {
      "midi": 43,
      "hit": false,
      "t": 176404.7381250012,
      "d": 459.40125000002445,
      "v": 73
    },
    {
      "midi": 55,
      "hit": false,
      "t": 176420.7637500012,
      "d": 408.65343750000466,
      "v": 64
    },
    {
      "midi": 67,
      "hit": false,
      "t": 176420.7637500012,
      "d": 413.99531250001746,
      "v": 64
    },
    {
      "midi": 57,
      "hit": false,
      "t": 176901.53250000122,
      "d": 448.71749999996973,
      "v": 73
    },
    {
      "midi": 69,
      "hit": false,
      "t": 176904.20343750122,
      "d": 448.71749999996973,
      "v": 73
    },
    {
      "midi": 41,
      "hit": false,
      "t": 176917.5581250012,
      "d": 422.008124999993,
      "v": 82
    },
    {
      "midi": 71,
      "hit": false,
      "t": 177417.0234375012,
      "d": 454.05937500001164,
      "v": 73
    },
    {
      "midi": 40,
      "hit": false,
      "t": 177417.0234375012,
      "d": 459.40125000002445,
      "v": 73
    },
    {
      "midi": 59,
      "hit": false,
      "t": 177417.0234375012,
      "d": 486.11062500003027,
      "v": 73
    },
    {
      "midi": 60,
      "hit": false,
      "t": 177937.85625000123,
      "d": 475.42687500000466,
      "v": 73
    },
    {
      "midi": 72,
      "hit": false,
      "t": 177937.85625000123,
      "d": 478.0978124999965,
      "v": 64
    },
    {
      "midi": 38,
      "hit": false,
      "t": 177943.19812500125,
      "d": 472.7559374999837,
      "v": 91
    },
    {
      "midi": 67,
      "hit": false,
      "t": 178712.42812500123,
      "d": 283.1193750000384,
      "v": 71
    },
    {
      "midi": 64,
      "hit": false,
      "t": 178717.77000000124,
      "d": 240.38437499999418,
      "v": 63
    },
    {
      "midi": 74,
      "hit": false,
      "t": 178720.44093750123,
      "d": 245.72625000000698,
      "v": 73
    },
    {
      "midi": 62,
      "hit": false,
      "t": 178720.44093750123,
      "d": 269.76468750002095,
      "v": 91
    },
    {
      "midi": 67,
      "hit": false,
      "t": 179102.38500000126,
      "d": 293.8031250000058,
      "v": 74
    },
    {
      "midi": 64,
      "hit": false,
      "t": 179102.38500000126,
      "d": 299.1450000000186,
      "v": 63
    },
    {
      "midi": 60,
      "hit": false,
      "t": 179102.38500000126,
      "d": 312.499687500007,
      "v": 82
    },
    {
      "midi": 72,
      "hit": false,
      "t": 179102.38500000126,
      "d": 328.5253125000163,
      "v": 79
    },
    {
      "midi": 59,
      "hit": false,
      "t": 179492.34187500126,
      "d": 336.53812499999185,
      "v": 82
    },
    {
      "midi": 64,
      "hit": false,
      "t": 179495.01281250126,
      "d": 304.4868750000023,
      "v": 54
    },
    {
      "midi": 67,
      "hit": false,
      "t": 179495.01281250126,
      "d": 339.2090625000128,
      "v": 74
    },
    {
      "midi": 71,
      "hit": false,
      "t": 179495.01281250126,
      "d": 339.2090625000128,
      "v": 73
    },
    {
      "midi": 64,
      "hit": false,
      "t": 179999.82000000126,
      "d": 357.90562499998487,
      "v": 63
    },
    {
      "midi": 60,
      "hit": false,
      "t": 179999.82000000126,
      "d": 395.2987499999872,
      "v": 82
    },
    {
      "midi": 67,
      "hit": false,
      "t": 180002.49093750125,
      "d": 381.94406249999884,
      "v": 74
    },
    {
      "midi": 72,
      "hit": false,
      "t": 180002.49093750125,
      "d": 397.96968750000815,
      "v": 73
    },
    {
      "midi": 65,
      "hit": false,
      "t": 180766.37906250125,
      "d": 285.79031250003027,
      "v": 73
    },
    {
      "midi": 72,
      "hit": false,
      "t": 180766.37906250125,
      "d": 307.1578125000233,
      "v": 82
    },
    {
      "midi": 64,
      "hit": false,
      "t": 180766.37906250125,
      "d": 320.51250000001164,
      "v": 82
    },
    {
      "midi": 76,
      "hit": false,
      "t": 180771.72093750126,
      "d": 264.42281250000815,
      "v": 76
    },
    {
      "midi": 69,
      "hit": false,
      "t": 180771.72093750126,
      "d": 283.1193750000093,
      "v": 73
    },
    {
      "midi": 69,
      "hit": false,
      "t": 181156.33593750125,
      "d": 323.1834374999744,
      "v": 73
    },
    {
      "midi": 74,
      "hit": false,
      "t": 181159.00687500124,
      "d": 328.5253124999872,
      "v": 91
    },
    {
      "midi": 65,
      "hit": false,
      "t": 181161.67781250124,
      "d": 299.1449999999895,
      "v": 64
    },
    {
      "midi": 62,
      "hit": false,
      "t": 181161.67781250124,
      "d": 312.4996874999779,
      "v": 82
    },
    {
      "midi": 60,
      "hit": false,
      "t": 181530.26718750122,
      "d": 77.45718749999651,
      "v": 82
    },
    {
      "midi": 69,
      "hit": false,
      "t": 181532.9381250012,
      "d": 69.44437499999185,
      "v": 73
    },
    {
      "midi": 65,
      "hit": false,
      "t": 181535.6090625012,
      "d": 77.45718750002561,
      "v": 64
    },
    {
      "midi": 72,
      "hit": false,
      "t": 181540.9509375012,
      "d": 50.74781249999069,
      "v": 64
    },
    {
      "midi": 60,
      "hit": false,
      "t": 181789.3481250012,
      "d": 64.10249999997905,
      "v": 81
    },
    {
      "midi": 72,
      "hit": false,
      "t": 181792.0190625012,
      "d": 58.76062499999534,
      "v": 73
    },
    {
      "midi": 65,
      "hit": false,
      "t": 181792.0190625012,
      "d": 61.431562499987194,
      "v": 73
    },
    {
      "midi": 69,
      "hit": false,
      "t": 181792.0190625012,
      "d": 64.10249999997905,
      "v": 91
    },
    {
      "midi": 60,
      "hit": false,
      "t": 182045.7581250012,
      "d": 66.7734375,
      "v": 86
    },
    {
      "midi": 69,
      "hit": false,
      "t": 182048.42906250118,
      "d": 64.10250000000815,
      "v": 82
    },
    {
      "midi": 72,
      "hit": false,
      "t": 182048.42906250118,
      "d": 64.10250000000815,
      "v": 73
    },
    {
      "midi": 65,
      "hit": false,
      "t": 182053.7709375012,
      "d": 66.7734375,
      "v": 73
    },
    {
      "midi": 65,
      "hit": false,
      "t": 182310.1809375012,
      "d": 138.8887499999837,
      "v": 56
    },
    {
      "midi": 69,
      "hit": false,
      "t": 182310.1809375012,
      "d": 149.5724999999802,
      "v": 78
    },
    {
      "midi": 74,
      "hit": false,
      "t": 182310.1809375012,
      "d": 160.25624999997672,
      "v": 82
    },
    {
      "midi": 62,
      "hit": false,
      "t": 182312.8518750012,
      "d": 128.2049999999872,
      "v": 86
    },
    {
      "midi": 74,
      "hit": false,
      "t": 182814.98812500117,
      "d": 288.461249999993,
      "v": 78
    },
    {
      "midi": 67,
      "hit": false,
      "t": 182814.98812500117,
      "d": 301.8159374999814,
      "v": 64
    },
    {
      "midi": 62,
      "hit": false,
      "t": 182814.98812500117,
      "d": 333.8671874999709,
      "v": 91
    },
    {
      "midi": 64,
      "hit": false,
      "t": 182817.65906250116,
      "d": 288.461249999993,
      "v": 63
    },
    {
      "midi": 67,
      "hit": false,
      "t": 183210.28687500113,
      "d": 301.8159375000105,
      "v": 73
    },
    {
      "midi": 72,
      "hit": false,
      "t": 183210.28687500113,
      "d": 317.8415625000198,
      "v": 82
    },
    {
      "midi": 64,
      "hit": false,
      "t": 183212.95781250112,
      "d": 293.8031250000058,
      "v": 54
    },
    {
      "midi": 60,
      "hit": false,
      "t": 183212.95781250112,
      "d": 307.1578125000233,
      "v": 91
    },
    {
      "midi": 67,
      "hit": false,
      "t": 183586.88906250114,
      "d": 344.5509375000256,
      "v": 73
    },
    {
      "midi": 64,
      "hit": false,
      "t": 183592.23093750115,
      "d": 339.2090625000128,
      "v": 63
    },
    {
      "midi": 71,
      "hit": false,
      "t": 183592.23093750115,
      "d": 339.2090625000128,
      "v": 73
    },
    {
      "midi": 59,
      "hit": false,
      "t": 183592.23093750115,
      "d": 349.8928125000093,
      "v": 82
    },
    {
      "midi": 60,
      "hit": false,
      "t": 184099.70906250118,
      "d": 480.76874999998836,
      "v": 91
    },
    {
      "midi": 64,
      "hit": false,
      "t": 184102.38000000117,
      "d": 459.40124999999534,
      "v": 63
    },
    {
      "midi": 72,
      "hit": false,
      "t": 184102.38000000117,
      "d": 470.08499999999185,
      "v": 82
    },
    {
      "midi": 67,
      "hit": false,
      "t": 184102.38000000117,
      "d": 478.0978124999965,
      "v": 73
    },
    {
      "midi": 69,
      "hit": false,
      "t": 184868.93906250116,
      "d": 280.44843749995925,
      "v": 73
    },
    {
      "midi": 64,
      "hit": false,
      "t": 184868.93906250116,
      "d": 293.8031249999767,
      "v": 82
    },
    {
      "midi": 65,
      "hit": false,
      "t": 184871.61000000115,
      "d": 285.79031249997206,
      "v": 73
    },
    {
      "midi": 76,
      "hit": false,
      "t": 184874.28093750114,
      "d": 245.72624999997788,
      "v": 67
    },
    {
      "midi": 72,
      "hit": false,
      "t": 184876.95187500113,
      "d": 315.17062499999884,
      "v": 73
    },
    {
      "midi": 65,
      "hit": false,
      "t": 185261.56687500112,
      "d": 331.19625000000815,
      "v": 64
    },
    {
      "midi": 69,
      "hit": false,
      "t": 185264.23781250112,
      "d": 323.1834375000035,
      "v": 91
    },
    {
      "midi": 62,
      "hit": false,
      "t": 185264.23781250112,
      "d": 331.19625000000815,
      "v": 91
    },
    {
      "midi": 74,
      "hit": false,
      "t": 185264.23781250112,
      "d": 347.22187500001746,
      "v": 82
    },
    {
      "midi": 60,
      "hit": false,
      "t": 185640.84000000113,
      "d": 64.10250000000815,
      "v": 82
    },
    {
      "midi": 72,
      "hit": false,
      "t": 185643.51093750112,
      "d": 53.41875000001164,
      "v": 73
    },
    {
      "midi": 69,
      "hit": false,
      "t": 185643.51093750112,
      "d": 64.10250000000815,
      "v": 64
    },
    {
      "midi": 65,
      "hit": false,
      "t": 185643.51093750112,
      "d": 66.7734375,
      "v": 64
    },
    {
      "midi": 60,
      "hit": false,
      "t": 185894.5790625011,
      "d": 61.4315625000163,
      "v": 82
    },
    {
      "midi": 65,
      "hit": false,
      "t": 185899.92093750113,
      "d": 58.76062499999534,
      "v": 64
    },
    {
      "midi": 69,
      "hit": false,
      "t": 185899.92093750113,
      "d": 66.7734375,
      "v": 91
    },
    {
      "midi": 72,
      "hit": false,
      "t": 185902.59187500112,
      "d": 58.76062499999534,
      "v": 73
    },
    {
      "midi": 60,
      "hit": false,
      "t": 186150.98906250112,
      "d": 85.47000000000116,
      "v": 82
    },
    {
      "midi": 65,
      "hit": false,
      "t": 186156.33093750113,
      "d": 61.431562499987194,
      "v": 73
    },
    {
      "midi": 69,
      "hit": false,
      "t": 186156.33093750113,
      "d": 72.1153124999837,
      "v": 82
    },
    {
      "midi": 72,
      "hit": false,
      "t": 186156.33093750113,
      "d": 72.1153124999837,
      "v": 73
    },
    {
      "midi": 62,
      "hit": false,
      "t": 186415.41187500113,
      "d": 128.2049999999872,
      "v": 82
    },
    {
      "midi": 69,
      "hit": false,
      "t": 186415.41187500113,
      "d": 138.8887499999837,
      "v": 82
    },
    {
      "midi": 65,
      "hit": false,
      "t": 186418.08281250112,
      "d": 117.52124999999069,
      "v": 73
    },
    {
      "midi": 74,
      "hit": false,
      "t": 186418.08281250112,
      "d": 122.86312500000349,
      "v": 91
    },
    {
      "midi": 74,
      "hit": false,
      "t": 186920.2190625011,
      "d": 277.7774999999674,
      "v": 82
    },
    {
      "midi": 67,
      "hit": false,
      "t": 186920.2190625011,
      "d": 285.79031249997206,
      "v": 71
    },
    {
      "midi": 62,
      "hit": false,
      "t": 186922.8900000011,
      "d": 309.82874999998603,
      "v": 91
    },
    {
      "midi": 64,
      "hit": false,
      "t": 186925.56093750108,
      "d": 261.7518749999872,
      "v": 63
    },
    {
      "midi": 60,
      "hit": false,
      "t": 187304.8340625011,
      "d": 331.19625000000815,
      "v": 91
    },
    {
      "midi": 67,
      "hit": false,
      "t": 187310.1759375011,
      "d": 309.82874999998603,
      "v": 77
    },
    {
      "midi": 72,
      "hit": false,
      "t": 187310.1759375011,
      "d": 328.5253124999872,
      "v": 82
    },
    {
      "midi": 64,
      "hit": false,
      "t": 187312.8468750011,
      "d": 304.4868750000023,
      "v": 63
    },
    {
      "midi": 64,
      "hit": false,
      "t": 187697.46187500108,
      "d": 347.22187499998836,
      "v": 62
    },
    {
      "midi": 67,
      "hit": false,
      "t": 187697.46187500108,
      "d": 355.234687499993,
      "v": 71
    },
    {
      "midi": 71,
      "hit": false,
      "t": 187697.46187500108,
      "d": 363.2474999999977,
      "v": 73
    },
    {
      "midi": 59,
      "hit": false,
      "t": 187697.46187500108,
      "d": 365.9184374999895,
      "v": 91
    },
    {
      "midi": 64,
      "hit": false,
      "t": 188202.2690625011,
      "d": 400.640625,
      "v": 63
    },
    {
      "midi": 60,
      "hit": false,
      "t": 188202.2690625011,
      "d": 424.67906250001397,
      "v": 82
    },
    {
      "midi": 72,
      "hit": false,
      "t": 188202.2690625011,
      "d": 424.67906250001397,
      "v": 82
    },
    {
      "midi": 67,
      "hit": false,
      "t": 188202.2690625011,
      "d": 427.3500000000058,
      "v": 81
    },
    {
      "midi": 69,
      "hit": false,
      "t": 188966.15718750108,
      "d": 301.8159374999814,
      "v": 73
    },
    {
      "midi": 65,
      "hit": false,
      "t": 188968.82812500108,
      "d": 277.7774999999965,
      "v": 73
    },
    {
      "midi": 72,
      "hit": false,
      "t": 188968.82812500108,
      "d": 285.79031250000116,
      "v": 73
    },
    {
      "midi": 64,
      "hit": false,
      "t": 188968.82812500108,
      "d": 307.1578124999942,
      "v": 91
    },
    {
      "midi": 76,
      "hit": false,
      "t": 188971.49906250107,
      "d": 259.08093749999534,
      "v": 82
    },
    {
      "midi": 69,
      "hit": false,
      "t": 189356.11406250106,
      "d": 315.17062499999884,
      "v": 82
    },
    {
      "midi": 62,
      "hit": false,
      "t": 189361.45593750107,
      "d": 315.17062499999884,
      "v": 82
    },
    {
      "midi": 65,
      "hit": false,
      "t": 189364.12687500106,
      "d": 299.1449999999895,
      "v": 73
    },
    {
      "midi": 74,
      "hit": false,
      "t": 189364.12687500106,
      "d": 317.8415625000198,
      "v": 82
    },
    {
      "midi": 72,
      "hit": false,
      "t": 189738.0581250011,
      "d": 61.431562499987194,
      "v": 82
    },
    {
      "midi": 69,
      "hit": false,
      "t": 189738.0581250011,
      "d": 74.78624999997555,
      "v": 73
    },
    {
      "midi": 65,
      "hit": false,
      "t": 189738.0581250011,
      "d": 80.12812499998836,
      "v": 73
    },
    {
      "midi": 60,
      "hit": false,
      "t": 189740.72906250108,
      "d": 61.431562499987194,
      "v": 82
    },
    {
      "midi": 69,
      "hit": false,
      "t": 189999.81000000107,
      "d": 64.10249999997905,
      "v": 82
    },
    {
      "midi": 65,
      "hit": false,
      "t": 190002.48093750107,
      "d": 53.41874999998254,
      "v": 73
    },
    {
      "midi": 60,
      "hit": false,
      "t": 190002.48093750107,
      "d": 64.10249999997905,
      "v": 82
    },
    {
      "midi": 72,
      "hit": false,
      "t": 190005.15187500106,
      "d": 64.10249999997905,
      "v": 73
    },
    {
      "midi": 69,
      "hit": false,
      "t": 190253.54906250103,
      "d": 74.78625000003376,
      "v": 82
    },
    {
      "midi": 72,
      "hit": false,
      "t": 190258.89093750104,
      "d": 58.76062499999534,
      "v": 82
    },
    {
      "midi": 60,
      "hit": false,
      "t": 190258.89093750104,
      "d": 64.10250000000815,
      "v": 91
    },
    {
      "midi": 65,
      "hit": false,
      "t": 190261.56187500103,
      "d": 69.44437500002095,
      "v": 64
    },
    {
      "midi": 69,
      "hit": false,
      "t": 190509.95906250106,
      "d": 130.87593749997905,
      "v": 81
    },
    {
      "midi": 65,
      "hit": false,
      "t": 190515.30093750107,
      "d": 122.86312499997439,
      "v": 73
    },
    {
      "midi": 62,
      "hit": false,
      "t": 190517.97187500107,
      "d": 80.12812499998836,
      "v": 73
    },
    {
      "midi": 74,
      "hit": false,
      "t": 190517.97187500107,
      "d": 117.52124999999069,
      "v": 82
    },
    {
      "midi": 36,
      "hit": false,
      "t": 190766.36906250103,
      "d": 200.3203125,
      "v": 88
    },
    {
      "midi": 79,
      "hit": false,
      "t": 191020.10812500105,
      "d": 283.1193750000384,
      "v": 61
    },
    {
      "midi": 76,
      "hit": false,
      "t": 191025.45000000106,
      "d": 240.38437499999418,
      "v": 63
    },
    {
      "midi": 86,
      "hit": false,
      "t": 191028.12093750105,
      "d": 245.72625000000698,
      "v": 73
    },
    {
      "midi": 74,
      "hit": false,
      "t": 191028.12093750105,
      "d": 269.76468750002095,
      "v": 91
    },
    {
      "midi": 79,
      "hit": false,
      "t": 191410.06500000108,
      "d": 293.8031250000058,
      "v": 74
    },
    {
      "midi": 76,
      "hit": false,
      "t": 191410.06500000108,
      "d": 299.1450000000186,
      "v": 63
    },
    {
      "midi": 72,
      "hit": false,
      "t": 191410.06500000108,
      "d": 312.499687500007,
      "v": 82
    },
    {
      "midi": 84,
      "hit": false,
      "t": 191410.06500000108,
      "d": 328.5253125000163,
      "v": 79
    },
    {
      "midi": 71,
      "hit": false,
      "t": 191800.02187500108,
      "d": 336.53812499999185,
      "v": 82
    },
    {
      "midi": 76,
      "hit": false,
      "t": 191802.69281250107,
      "d": 304.4868750000023,
      "v": 54
    },
    {
      "midi": 79,
      "hit": false,
      "t": 191802.69281250107,
      "d": 339.2090625000128,
      "v": 74
    },
    {
      "midi": 83,
      "hit": false,
      "t": 191802.69281250107,
      "d": 339.2090625000128,
      "v": 73
    },
    {
      "midi": 76,
      "hit": false,
      "t": 192307.50000000108,
      "d": 357.90562499998487,
      "v": 63
    },
    {
      "midi": 72,
      "hit": false,
      "t": 192307.50000000108,
      "d": 395.2987499999872,
      "v": 82
    },
    {
      "midi": 79,
      "hit": false,
      "t": 192310.17093750107,
      "d": 381.94406249999884,
      "v": 74
    },
    {
      "midi": 84,
      "hit": false,
      "t": 192310.17093750107,
      "d": 397.96968750000815,
      "v": 73
    },
    {
      "midi": 77,
      "hit": false,
      "t": 193074.05906250107,
      "d": 285.79031250003027,
      "v": 63
    },
    {
      "midi": 84,
      "hit": false,
      "t": 193074.05906250107,
      "d": 307.1578125000233,
      "v": 68
    },
    {
      "midi": 76,
      "hit": false,
      "t": 193074.05906250107,
      "d": 320.51250000001164,
      "v": 82
    },
    {
      "midi": 88,
      "hit": false,
      "t": 193079.40093750108,
      "d": 264.42281250000815,
      "v": 76
    },
    {
      "midi": 81,
      "hit": false,
      "t": 193079.40093750108,
      "d": 283.1193750000093,
      "v": 73
    },
    {
      "midi": 81,
      "hit": false,
      "t": 193464.01593750107,
      "d": 323.1834374999744,
      "v": 73
    },
    {
      "midi": 86,
      "hit": false,
      "t": 193466.68687500106,
      "d": 328.5253124999872,
      "v": 91
    },
    {
      "midi": 77,
      "hit": false,
      "t": 193469.35781250105,
      "d": 299.1449999999895,
      "v": 64
    },
    {
      "midi": 74,
      "hit": false,
      "t": 193469.35781250105,
      "d": 312.4996874999779,
      "v": 82
    },
    {
      "midi": 72,
      "hit": false,
      "t": 193837.94718750103,
      "d": 77.45718749999651,
      "v": 82
    },
    {
      "midi": 81,
      "hit": false,
      "t": 193840.61812500103,
      "d": 69.44437499999185,
      "v": 73
    },
    {
      "midi": 77,
      "hit": false,
      "t": 193843.28906250102,
      "d": 77.45718750002561,
      "v": 64
    },
    {
      "midi": 84,
      "hit": false,
      "t": 193848.63093750103,
      "d": 50.74781249999069,
      "v": 64
    },
    {
      "midi": 72,
      "hit": false,
      "t": 194097.02812500103,
      "d": 64.10249999997905,
      "v": 81
    },
    {
      "midi": 84,
      "hit": false,
      "t": 194099.69906250102,
      "d": 58.76062499999534,
      "v": 73
    },
    {
      "midi": 77,
      "hit": false,
      "t": 194099.69906250102,
      "d": 61.431562499987194,
      "v": 73
    },
    {
      "midi": 81,
      "hit": false,
      "t": 194099.69906250102,
      "d": 64.10249999997905,
      "v": 91
    },
    {
      "midi": 72,
      "hit": false,
      "t": 194353.438125001,
      "d": 66.7734375,
      "v": 86
    },
    {
      "midi": 81,
      "hit": false,
      "t": 194356.109062501,
      "d": 64.10250000000815,
      "v": 82
    },
    {
      "midi": 84,
      "hit": false,
      "t": 194356.109062501,
      "d": 64.10250000000815,
      "v": 73
    },
    {
      "midi": 77,
      "hit": false,
      "t": 194361.450937501,
      "d": 66.7734375,
      "v": 73
    },
    {
      "midi": 77,
      "hit": false,
      "t": 194617.860937501,
      "d": 138.8887499999837,
      "v": 56
    },
    {
      "midi": 81,
      "hit": false,
      "t": 194617.860937501,
      "d": 149.5724999999802,
      "v": 78
    },
    {
      "midi": 86,
      "hit": false,
      "t": 194617.860937501,
      "d": 160.25624999997672,
      "v": 82
    },
    {
      "midi": 74,
      "hit": false,
      "t": 194620.531875001,
      "d": 128.2049999999872,
      "v": 86
    },
    {
      "midi": 86,
      "hit": false,
      "t": 195122.668125001,
      "d": 288.461249999993,
      "v": 78
    },
    {
      "midi": 79,
      "hit": false,
      "t": 195122.668125001,
      "d": 301.8159374999814,
      "v": 64
    },
    {
      "midi": 74,
      "hit": false,
      "t": 195122.668125001,
      "d": 333.8671874999709,
      "v": 91
    },
    {
      "midi": 76,
      "hit": false,
      "t": 195125.33906250098,
      "d": 288.461249999993,
      "v": 63
    },
    {
      "midi": 79,
      "hit": false,
      "t": 195517.96687500094,
      "d": 301.8159375000105,
      "v": 73
    },
    {
      "midi": 84,
      "hit": false,
      "t": 195517.96687500094,
      "d": 317.8415625000198,
      "v": 82
    },
    {
      "midi": 76,
      "hit": false,
      "t": 195520.63781250094,
      "d": 293.8031250000058,
      "v": 54
    },
    {
      "midi": 72,
      "hit": false,
      "t": 195520.63781250094,
      "d": 307.1578125000233,
      "v": 91
    },
    {
      "midi": 79,
      "hit": false,
      "t": 195894.56906250096,
      "d": 344.5509375000256,
      "v": 73
    },
    {
      "midi": 76,
      "hit": false,
      "t": 195899.91093750097,
      "d": 339.2090625000128,
      "v": 63
    },
    {
      "midi": 83,
      "hit": false,
      "t": 195899.91093750097,
      "d": 339.2090625000128,
      "v": 73
    },
    {
      "midi": 71,
      "hit": false,
      "t": 195899.91093750097,
      "d": 349.8928125000093,
      "v": 82
    },
    {
      "midi": 72,
      "hit": false,
      "t": 196407.389062501,
      "d": 480.76874999998836,
      "v": 91
    },
    {
      "midi": 76,
      "hit": false,
      "t": 196410.060000001,
      "d": 459.40124999999534,
      "v": 63
    },
    {
      "midi": 84,
      "hit": false,
      "t": 196410.060000001,
      "d": 470.08499999999185,
      "v": 82
    },
    {
      "midi": 79,
      "hit": false,
      "t": 196410.060000001,
      "d": 478.0978124999965,
      "v": 73
    },
    {
      "midi": 81,
      "hit": false,
      "t": 197176.61906250098,
      "d": 280.44843749995925,
      "v": 73
    },
    {
      "midi": 76,
      "hit": false,
      "t": 197176.61906250098,
      "d": 293.8031249999767,
      "v": 82
    },
    {
      "midi": 77,
      "hit": false,
      "t": 197179.29000000097,
      "d": 285.79031249997206,
      "v": 63
    },
    {
      "midi": 88,
      "hit": false,
      "t": 197181.96093750096,
      "d": 245.72624999997788,
      "v": 67
    },
    {
      "midi": 84,
      "hit": false,
      "t": 197184.63187500095,
      "d": 315.17062499999884,
      "v": 63
    },
    {
      "midi": 77,
      "hit": false,
      "t": 197569.24687500094,
      "d": 331.19625000000815,
      "v": 64
    },
    {
      "midi": 81,
      "hit": false,
      "t": 197571.91781250093,
      "d": 323.1834375000035,
      "v": 91
    },
    {
      "midi": 74,
      "hit": false,
      "t": 197571.91781250093,
      "d": 331.19625000000815,
      "v": 91
    },
    {
      "midi": 86,
      "hit": false,
      "t": 197571.91781250093,
      "d": 347.22187500001746,
      "v": 82
    },
    {
      "midi": 72,
      "hit": false,
      "t": 197948.52000000095,
      "d": 64.10250000000815,
      "v": 82
    },
    {
      "midi": 84,
      "hit": false,
      "t": 197951.19093750094,
      "d": 53.41875000001164,
      "v": 73
    },
    {
      "midi": 81,
      "hit": false,
      "t": 197951.19093750094,
      "d": 64.10250000000815,
      "v": 64
    },
    {
      "midi": 77,
      "hit": false,
      "t": 197951.19093750094,
      "d": 66.7734375,
      "v": 64
    },
    {
      "midi": 72,
      "hit": false,
      "t": 198202.25906250093,
      "d": 61.4315625000163,
      "v": 82
    },
    {
      "midi": 77,
      "hit": false,
      "t": 198207.60093750095,
      "d": 58.76062499999534,
      "v": 64
    },
    {
      "midi": 81,
      "hit": false,
      "t": 198207.60093750095,
      "d": 66.7734375,
      "v": 91
    },
    {
      "midi": 84,
      "hit": false,
      "t": 198210.27187500094,
      "d": 58.76062499999534,
      "v": 73
    },
    {
      "midi": 72,
      "hit": false,
      "t": 198458.66906250094,
      "d": 85.47000000000116,
      "v": 82
    },
    {
      "midi": 77,
      "hit": false,
      "t": 198464.01093750095,
      "d": 61.431562499987194,
      "v": 73
    },
    {
      "midi": 81,
      "hit": false,
      "t": 198464.01093750095,
      "d": 72.1153124999837,
      "v": 82
    },
    {
      "midi": 84,
      "hit": false,
      "t": 198464.01093750095,
      "d": 72.1153124999837,
      "v": 73
    },
    {
      "midi": 74,
      "hit": false,
      "t": 198723.09187500094,
      "d": 128.2049999999872,
      "v": 82
    },
    {
      "midi": 81,
      "hit": false,
      "t": 198723.09187500094,
      "d": 138.8887499999837,
      "v": 82
    },
    {
      "midi": 77,
      "hit": false,
      "t": 198725.76281250094,
      "d": 117.52124999999069,
      "v": 73
    },
    {
      "midi": 86,
      "hit": false,
      "t": 198725.76281250094,
      "d": 122.86312500000349,
      "v": 91
    },
    {
      "midi": 86,
      "hit": false,
      "t": 199227.89906250092,
      "d": 277.7774999999674,
      "v": 83
    },
    {
      "midi": 79,
      "hit": false,
      "t": 199227.89906250092,
      "d": 285.79031249997206,
      "v": 61
    },
    {
      "midi": 74,
      "hit": false,
      "t": 199230.5700000009,
      "d": 309.82874999998603,
      "v": 91
    },
    {
      "midi": 76,
      "hit": false,
      "t": 199233.2409375009,
      "d": 261.7518749999872,
      "v": 62
    },
    {
      "midi": 72,
      "hit": false,
      "t": 199612.5140625009,
      "d": 331.19625000000815,
      "v": 91
    },
    {
      "midi": 79,
      "hit": false,
      "t": 199617.85593750092,
      "d": 309.82874999998603,
      "v": 77
    },
    {
      "midi": 84,
      "hit": false,
      "t": 199617.85593750092,
      "d": 328.5253124999872,
      "v": 82
    },
    {
      "midi": 76,
      "hit": false,
      "t": 199620.5268750009,
      "d": 304.4868750000023,
      "v": 63
    },
    {
      "midi": 76,
      "hit": false,
      "t": 200005.1418750009,
      "d": 347.22187499998836,
      "v": 62
    },
    {
      "midi": 79,
      "hit": false,
      "t": 200005.1418750009,
      "d": 355.234687499993,
      "v": 71
    },
    {
      "midi": 83,
      "hit": false,
      "t": 200005.1418750009,
      "d": 363.2474999999977,
      "v": 73
    },
    {
      "midi": 71,
      "hit": false,
      "t": 200005.1418750009,
      "d": 365.9184374999895,
      "v": 91
    },
    {
      "midi": 76,
      "hit": false,
      "t": 200509.9490625009,
      "d": 400.640625,
      "v": 63
    },
    {
      "midi": 72,
      "hit": false,
      "t": 200509.9490625009,
      "d": 424.67906250001397,
      "v": 82
    },
    {
      "midi": 84,
      "hit": false,
      "t": 200509.9490625009,
      "d": 424.67906250001397,
      "v": 82
    },
    {
      "midi": 79,
      "hit": false,
      "t": 200509.9490625009,
      "d": 427.3500000000058,
      "v": 81
    },
    {
      "midi": 81,
      "hit": false,
      "t": 201273.8371875009,
      "d": 301.8159374999814,
      "v": 73
    },
    {
      "midi": 77,
      "hit": false,
      "t": 201276.5081250009,
      "d": 277.7774999999965,
      "v": 63
    },
    {
      "midi": 84,
      "hit": false,
      "t": 201276.5081250009,
      "d": 285.79031250000116,
      "v": 63
    },
    {
      "midi": 76,
      "hit": false,
      "t": 201276.5081250009,
      "d": 307.1578124999942,
      "v": 91
    },
    {
      "midi": 88,
      "hit": false,
      "t": 201279.1790625009,
      "d": 259.08093749999534,
      "v": 82
    },
    {
      "midi": 81,
      "hit": false,
      "t": 201663.79406250088,
      "d": 315.17062499999884,
      "v": 82
    },
    {
      "midi": 74,
      "hit": false,
      "t": 201669.1359375009,
      "d": 315.17062499999884,
      "v": 82
    },
    {
      "midi": 77,
      "hit": false,
      "t": 201671.80687500088,
      "d": 299.1449999999895,
      "v": 73
    },
    {
      "midi": 86,
      "hit": false,
      "t": 201671.80687500088,
      "d": 317.8415625000198,
      "v": 82
    },
    {
      "midi": 81,
      "hit": false,
      "t": 202048.4090625009,
      "d": 48.076874999998836,
      "v": 73
    },
    {
      "midi": 76,
      "hit": false,
      "t": 202048.4090625009,
      "d": 53.41875000001164,
      "v": 73
    },
    {
      "midi": 77,
      "hit": false,
      "t": 202048.4090625009,
      "d": 53.41875000001164,
      "v": 73
    },
    {
      "midi": 72,
      "hit": false,
      "t": 202048.4090625009,
      "d": 61.4315625000163,
      "v": 82
    },
    {
      "midi": 84,
      "hit": false,
      "t": 202048.4090625009,
      "d": 61.4315625000163,
      "v": 82
    },
    {
      "midi": 81,
      "hit": false,
      "t": 202307.49000000092,
      "d": 64.10249999997905,
      "v": 82
    },
    {
      "midi": 76,
      "hit": false,
      "t": 202310.1609375009,
      "d": 53.41874999998254,
      "v": 73
    },
    {
      "midi": 77,
      "hit": false,
      "t": 202310.1609375009,
      "d": 53.41874999998254,
      "v": 73
    },
    {
      "midi": 72,
      "hit": false,
      "t": 202310.1609375009,
      "d": 64.10249999997905,
      "v": 82
    },
    {
      "midi": 84,
      "hit": false,
      "t": 202312.8318750009,
      "d": 64.10249999997905,
      "v": 73
    },
    {
      "midi": 81,
      "hit": false,
      "t": 202561.22906250088,
      "d": 128.2050000000163,
      "v": 75
    },
    {
      "midi": 84,
      "hit": false,
      "t": 202566.5709375009,
      "d": 112.17937499997788,
      "v": 75
    },
    {
      "midi": 72,
      "hit": false,
      "t": 202566.5709375009,
      "d": 117.52124999999069,
      "v": 84
    },
    {
      "midi": 76,
      "hit": false,
      "t": 202569.24187500088,
      "d": 122.86312500000349,
      "v": 57
    },
    {
      "midi": 77,
      "hit": false,
      "t": 202569.24187500088,
      "d": 122.86312500000349,
      "v": 57
    },
    {
      "midi": 96,
      "hit": false,
      "t": 202841.6775000009,
      "d": 42.73499999998603,
      "v": 97
    },
    {
      "midi": 95,
      "hit": false,
      "t": 202852.3612500009,
      "d": 56.08968750000349,
      "v": 77
    },
    {
      "midi": 93,
      "hit": false,
      "t": 202881.7415625009,
      "d": 45.405937500006985,
      "v": 86
    },
    {
      "midi": 91,
      "hit": false,
      "t": 202913.7928125009,
      "d": 34.72218749998137,
      "v": 86
    },
    {
      "midi": 89,
      "hit": false,
      "t": 202927.1475000009,
      "d": 48.076874999998836,
      "v": 77
    },
    {
      "midi": 88,
      "hit": false,
      "t": 202948.5150000009,
      "d": 42.73499999998603,
      "v": 77
    },
    {
      "midi": 86,
      "hit": false,
      "t": 202969.88250000088,
      "d": 53.41875000001164,
      "v": 86
    },
    {
      "midi": 84,
      "hit": false,
      "t": 202988.57906250088,
      "d": 50.74781250001979,
      "v": 77
    },
    {
      "midi": 83,
      "hit": false,
      "t": 203015.2884375009,
      "d": 40.06406250002328,
      "v": 68
    },
    {
      "midi": 81,
      "hit": false,
      "t": 203033.9850000009,
      "d": 45.405937500006985,
      "v": 77
    },
    {
      "midi": 79,
      "hit": false,
      "t": 203058.0234375009,
      "d": 21.367499999993015,
      "v": 68
    },
    {
      "midi": 79,
      "hit": false,
      "t": 203327.7881250009,
      "d": 283.1193750000384,
      "v": 71
    },
    {
      "midi": 76,
      "hit": false,
      "t": 203333.1300000009,
      "d": 240.38437499999418,
      "v": 63
    },
    {
      "midi": 86,
      "hit": false,
      "t": 203335.8009375009,
      "d": 245.72625000000698,
      "v": 73
    },
    {
      "midi": 62,
      "hit": false,
      "t": 203335.8009375009,
      "d": 269.76468750002095,
      "v": 91
    },
    {
      "midi": 79,
      "hit": false,
      "t": 203717.74500000093,
      "d": 293.8031250000058,
      "v": 74
    },
    {
      "midi": 76,
      "hit": false,
      "t": 203717.74500000093,
      "d": 299.1450000000186,
      "v": 63
    },
    {
      "midi": 60,
      "hit": false,
      "t": 203717.74500000093,
      "d": 312.499687500007,
      "v": 82
    },
    {
      "midi": 84,
      "hit": false,
      "t": 203717.74500000093,
      "d": 328.5253125000163,
      "v": 79
    },
    {
      "midi": 59,
      "hit": false,
      "t": 204107.70187500093,
      "d": 336.53812499999185,
      "v": 82
    },
    {
      "midi": 76,
      "hit": false,
      "t": 204110.37281250092,
      "d": 304.4868750000023,
      "v": 54
    },
    {
      "midi": 79,
      "hit": false,
      "t": 204110.37281250092,
      "d": 339.2090625000128,
      "v": 74
    },
    {
      "midi": 83,
      "hit": false,
      "t": 204110.37281250092,
      "d": 339.2090625000128,
      "v": 73
    },
    {
      "midi": 76,
      "hit": false,
      "t": 204615.18000000092,
      "d": 357.90562499998487,
      "v": 63
    },
    {
      "midi": 60,
      "hit": false,
      "t": 204615.18000000092,
      "d": 395.2987499999872,
      "v": 82
    },
    {
      "midi": 79,
      "hit": false,
      "t": 204617.85093750092,
      "d": 381.94406249999884,
      "v": 74
    },
    {
      "midi": 84,
      "hit": false,
      "t": 204617.85093750092,
      "d": 397.96968750000815,
      "v": 73
    },
    {
      "midi": 77,
      "hit": false,
      "t": 205381.7390625009,
      "d": 285.79031250000116,
      "v": 53
    },
    {
      "midi": 84,
      "hit": false,
      "t": 205381.7390625009,
      "d": 307.1578124999942,
      "v": 52
    },
    {
      "midi": 64,
      "hit": false,
      "t": 205381.7390625009,
      "d": 320.51249999998254,
      "v": 82
    },
    {
      "midi": 81,
      "hit": false,
      "t": 205387.08093750093,
      "d": 213.67499999998836,
      "v": 65
    },
    {
      "midi": 88,
      "hit": false,
      "t": 205387.08093750093,
      "d": 264.42281249997905,
      "v": 76
    },
    {
      "midi": 81,
      "hit": false,
      "t": 205771.6959375009,
      "d": 323.1834374999744,
      "v": 73
    },
    {
      "midi": 86,
      "hit": false,
      "t": 205774.36687500088,
      "d": 328.5253124999872,
      "v": 91
    },
    {
      "midi": 77,
      "hit": false,
      "t": 205777.03781250087,
      "d": 299.1449999999895,
      "v": 64
    },
    {
      "midi": 62,
      "hit": false,
      "t": 205777.03781250087,
      "d": 312.4996874999779,
      "v": 82
    },
    {
      "midi": 60,
      "hit": false,
      "t": 206145.62718750085,
      "d": 77.45718749999651,
      "v": 82
    },
    {
      "midi": 81,
      "hit": false,
      "t": 206148.29812500085,
      "d": 69.44437499999185,
      "v": 73
    },
    {
      "midi": 76,
      "hit": false,
      "t": 206150.96906250084,
      "d": 77.45718750002561,
      "v": 64
    },
    {
      "midi": 77,
      "hit": false,
      "t": 206150.96906250084,
      "d": 77.45718750002561,
      "v": 64
    },
    {
      "midi": 84,
      "hit": false,
      "t": 206156.31093750085,
      "d": 50.74781249999069,
      "v": 64
    },
    {
      "midi": 60,
      "hit": false,
      "t": 206661.11812500085,
      "d": 66.7734375,
      "v": 86
    },
    {
      "midi": 81,
      "hit": false,
      "t": 206663.78906250084,
      "d": 64.10250000000815,
      "v": 82
    },
    {
      "midi": 84,
      "hit": false,
      "t": 206663.78906250084,
      "d": 64.10250000000815,
      "v": 73
    },
    {
      "midi": 76,
      "hit": false,
      "t": 206669.13093750086,
      "d": 66.7734375,
      "v": 73
    },
    {
      "midi": 77,
      "hit": false,
      "t": 206669.13093750086,
      "d": 66.7734375,
      "v": 73
    },
    {
      "midi": 74,
      "hit": false,
      "t": 207430.34812500086,
      "d": 288.461249999993,
      "v": 78
    },
    {
      "midi": 67,
      "hit": false,
      "t": 207430.34812500086,
      "d": 301.8159374999814,
      "v": 64
    },
    {
      "midi": 62,
      "hit": false,
      "t": 207430.34812500086,
      "d": 333.8671874999709,
      "v": 91
    },
    {
      "midi": 64,
      "hit": false,
      "t": 207433.01906250085,
      "d": 288.461249999993,
      "v": 63
    },
    {
      "midi": 67,
      "hit": false,
      "t": 207825.64687500082,
      "d": 301.8159375000105,
      "v": 73
    },
    {
      "midi": 72,
      "hit": false,
      "t": 207825.64687500082,
      "d": 317.8415625000198,
      "v": 82
    },
    {
      "midi": 64,
      "hit": false,
      "t": 207828.3178125008,
      "d": 293.8031250000058,
      "v": 54
    },
    {
      "midi": 60,
      "hit": false,
      "t": 207828.3178125008,
      "d": 307.1578125000233,
      "v": 91
    },
    {
      "midi": 67,
      "hit": false,
      "t": 208202.24906250084,
      "d": 344.5509375000256,
      "v": 73
    },
    {
      "midi": 64,
      "hit": false,
      "t": 208207.59093750085,
      "d": 339.2090625000128,
      "v": 63
    },
    {
      "midi": 71,
      "hit": false,
      "t": 208207.59093750085,
      "d": 339.2090625000128,
      "v": 73
    },
    {
      "midi": 59,
      "hit": false,
      "t": 208207.59093750085,
      "d": 349.8928125000093,
      "v": 82
    },
    {
      "midi": 60,
      "hit": false,
      "t": 208715.06906250087,
      "d": 480.76874999998836,
      "v": 91
    },
    {
      "midi": 64,
      "hit": false,
      "t": 208717.74000000086,
      "d": 459.40124999999534,
      "v": 63
    },
    {
      "midi": 72,
      "hit": false,
      "t": 208717.74000000086,
      "d": 470.08499999999185,
      "v": 82
    },
    {
      "midi": 67,
      "hit": false,
      "t": 208717.74000000086,
      "d": 478.0978124999965,
      "v": 73
    },
    {
      "midi": 69,
      "hit": false,
      "t": 209484.29906250085,
      "d": 280.44843749995925,
      "v": 73
    },
    {
      "midi": 64,
      "hit": false,
      "t": 209484.29906250085,
      "d": 293.8031249999767,
      "v": 82
    },
    {
      "midi": 65,
      "hit": false,
      "t": 209486.97000000085,
      "d": 285.79031249997206,
      "v": 73
    },
    {
      "midi": 76,
      "hit": false,
      "t": 209489.64093750084,
      "d": 245.72624999997788,
      "v": 67
    },
    {
      "midi": 72,
      "hit": false,
      "t": 209492.31187500083,
      "d": 315.17062499999884,
      "v": 73
    },
    {
      "midi": 65,
      "hit": false,
      "t": 209876.92687500082,
      "d": 331.19625000000815,
      "v": 64
    },
    {
      "midi": 69,
      "hit": false,
      "t": 209879.5978125008,
      "d": 323.1834375000035,
      "v": 91
    },
    {
      "midi": 62,
      "hit": false,
      "t": 209879.5978125008,
      "d": 331.19625000000815,
      "v": 91
    },
    {
      "midi": 74,
      "hit": false,
      "t": 209879.5978125008,
      "d": 347.22187500001746,
      "v": 82
    },
    {
      "midi": 60,
      "hit": false,
      "t": 210256.20000000083,
      "d": 64.10250000000815,
      "v": 82
    },
    {
      "midi": 72,
      "hit": false,
      "t": 210258.87093750082,
      "d": 53.41875000001164,
      "v": 73
    },
    {
      "midi": 69,
      "hit": false,
      "t": 210258.87093750082,
      "d": 64.10250000000815,
      "v": 64
    },
    {
      "midi": 65,
      "hit": false,
      "t": 210258.87093750082,
      "d": 66.7734375,
      "v": 64
    },
    {
      "midi": 60,
      "hit": false,
      "t": 210509.9390625008,
      "d": 61.4315625000163,
      "v": 82
    },
    {
      "midi": 65,
      "hit": false,
      "t": 210515.28093750082,
      "d": 58.76062499999534,
      "v": 64
    },
    {
      "midi": 69,
      "hit": false,
      "t": 210515.28093750082,
      "d": 66.7734375,
      "v": 91
    },
    {
      "midi": 72,
      "hit": false,
      "t": 210517.9518750008,
      "d": 58.76062499999534,
      "v": 73
    },
    {
      "midi": 60,
      "hit": false,
      "t": 210766.3490625008,
      "d": 85.47000000000116,
      "v": 82
    },
    {
      "midi": 65,
      "hit": false,
      "t": 210771.69093750083,
      "d": 61.431562499987194,
      "v": 73
    },
    {
      "midi": 69,
      "hit": false,
      "t": 210771.69093750083,
      "d": 72.1153124999837,
      "v": 82
    },
    {
      "midi": 72,
      "hit": false,
      "t": 210771.69093750083,
      "d": 72.1153124999837,
      "v": 73
    },
    {
      "midi": 62,
      "hit": false,
      "t": 211030.77187500082,
      "d": 128.2049999999872,
      "v": 82
    },
    {
      "midi": 69,
      "hit": false,
      "t": 211030.77187500082,
      "d": 138.8887499999837,
      "v": 82
    },
    {
      "midi": 65,
      "hit": false,
      "t": 211033.4428125008,
      "d": 117.52124999999069,
      "v": 73
    },
    {
      "midi": 74,
      "hit": false,
      "t": 211033.4428125008,
      "d": 122.86312500000349,
      "v": 91
    },
    {
      "midi": 74,
      "hit": false,
      "t": 211535.5790625008,
      "d": 277.7774999999674,
      "v": 82
    },
    {
      "midi": 67,
      "hit": false,
      "t": 211535.5790625008,
      "d": 285.79031249997206,
      "v": 71
    },
    {
      "midi": 62,
      "hit": false,
      "t": 211538.2500000008,
      "d": 309.82874999998603,
      "v": 91
    },
    {
      "midi": 64,
      "hit": false,
      "t": 211540.92093750078,
      "d": 261.7518749999872,
      "v": 63
    },
    {
      "midi": 60,
      "hit": false,
      "t": 211920.19406250078,
      "d": 331.19625000000815,
      "v": 91
    },
    {
      "midi": 67,
      "hit": false,
      "t": 211925.5359375008,
      "d": 309.82874999998603,
      "v": 77
    },
    {
      "midi": 72,
      "hit": false,
      "t": 211925.5359375008,
      "d": 328.5253124999872,
      "v": 82
    },
    {
      "midi": 64,
      "hit": false,
      "t": 211928.2068750008,
      "d": 304.4868750000023,
      "v": 63
    },
    {
      "midi": 64,
      "hit": false,
      "t": 212312.82187500078,
      "d": 347.22187499998836,
      "v": 62
    },
    {
      "midi": 67,
      "hit": false,
      "t": 212312.82187500078,
      "d": 355.234687499993,
      "v": 71
    },
    {
      "midi": 71,
      "hit": false,
      "t": 212312.82187500078,
      "d": 363.2474999999977,
      "v": 73
    },
    {
      "midi": 59,
      "hit": false,
      "t": 212312.82187500078,
      "d": 365.9184374999895,
      "v": 91
    },
    {
      "midi": 64,
      "hit": false,
      "t": 212817.62906250078,
      "d": 400.640625,
      "v": 63
    },
    {
      "midi": 60,
      "hit": false,
      "t": 212817.62906250078,
      "d": 424.67906250001397,
      "v": 82
    },
    {
      "midi": 72,
      "hit": false,
      "t": 212817.62906250078,
      "d": 424.67906250001397,
      "v": 82
    },
    {
      "midi": 67,
      "hit": false,
      "t": 212817.62906250078,
      "d": 427.3500000000058,
      "v": 81
    },
    {
      "midi": 69,
      "hit": false,
      "t": 213581.51718750078,
      "d": 301.8159374999814,
      "v": 73
    },
    {
      "midi": 65,
      "hit": false,
      "t": 213584.18812500077,
      "d": 277.7774999999965,
      "v": 73
    },
    {
      "midi": 72,
      "hit": false,
      "t": 213584.18812500077,
      "d": 285.79031250000116,
      "v": 73
    },
    {
      "midi": 64,
      "hit": false,
      "t": 213584.18812500077,
      "d": 307.1578124999942,
      "v": 91
    },
    {
      "midi": 76,
      "hit": false,
      "t": 213586.85906250076,
      "d": 259.08093749999534,
      "v": 82
    },
    {
      "midi": 69,
      "hit": false,
      "t": 213971.47406250075,
      "d": 315.17062499999884,
      "v": 82
    },
    {
      "midi": 62,
      "hit": false,
      "t": 213976.81593750077,
      "d": 315.17062499999884,
      "v": 82
    },
    {
      "midi": 65,
      "hit": false,
      "t": 213979.48687500076,
      "d": 299.1449999999895,
      "v": 73
    },
    {
      "midi": 74,
      "hit": false,
      "t": 213979.48687500076,
      "d": 317.8415625000198,
      "v": 82
    },
    {
      "midi": 72,
      "hit": false,
      "t": 214353.41812500078,
      "d": 61.431562499987194,
      "v": 82
    },
    {
      "midi": 69,
      "hit": false,
      "t": 214353.41812500078,
      "d": 74.78624999997555,
      "v": 73
    },
    {
      "midi": 65,
      "hit": false,
      "t": 214353.41812500078,
      "d": 80.12812499998836,
      "v": 73
    },
    {
      "midi": 60,
      "hit": false,
      "t": 214356.08906250077,
      "d": 61.431562499987194,
      "v": 82
    },
    {
      "midi": 69,
      "hit": false,
      "t": 214615.17000000077,
      "d": 64.10249999997905,
      "v": 82
    },
    {
      "midi": 65,
      "hit": false,
      "t": 214617.84093750076,
      "d": 53.41874999998254,
      "v": 73
    },
    {
      "midi": 60,
      "hit": false,
      "t": 214617.84093750076,
      "d": 64.10249999997905,
      "v": 82
    },
    {
      "midi": 72,
      "hit": false,
      "t": 214620.51187500075,
      "d": 64.10249999997905,
      "v": 73
    },
    {
      "midi": 69,
      "hit": false,
      "t": 214868.90906250072,
      "d": 74.78625000003376,
      "v": 82
    },
    {
      "midi": 72,
      "hit": false,
      "t": 214874.25093750074,
      "d": 58.76062499999534,
      "v": 82
    },
    {
      "midi": 60,
      "hit": false,
      "t": 214874.25093750074,
      "d": 64.10250000000815,
      "v": 91
    },
    {
      "midi": 65,
      "hit": false,
      "t": 214876.92187500073,
      "d": 69.44437500002095,
      "v": 64
    },
    {
      "midi": 69,
      "hit": false,
      "t": 215125.31906250076,
      "d": 130.87593749997905,
      "v": 81
    },
    {
      "midi": 65,
      "hit": false,
      "t": 215130.66093750077,
      "d": 122.86312499997439,
      "v": 73
    },
    {
      "midi": 62,
      "hit": false,
      "t": 215133.33187500076,
      "d": 80.12812499998836,
      "v": 73
    },
    {
      "midi": 74,
      "hit": false,
      "t": 215133.33187500076,
      "d": 117.52124999999069,
      "v": 82
    },
    {
      "midi": 67,
      "hit": false,
      "t": 215635.46812500074,
      "d": 283.1193750000384,
      "v": 71
    },
    {
      "midi": 64,
      "hit": false,
      "t": 215640.81000000075,
      "d": 240.38437499999418,
      "v": 63
    },
    {
      "midi": 74,
      "hit": false,
      "t": 215643.48093750075,
      "d": 245.72625000000698,
      "v": 73
    },
    {
      "midi": 62,
      "hit": false,
      "t": 215643.48093750075,
      "d": 269.76468750002095,
      "v": 91
    },
    {
      "midi": 67,
      "hit": false,
      "t": 216025.42500000077,
      "d": 293.8031250000058,
      "v": 74
    },
    {
      "midi": 64,
      "hit": false,
      "t": 216025.42500000077,
      "d": 299.1450000000186,
      "v": 63
    },
    {
      "midi": 60,
      "hit": false,
      "t": 216025.42500000077,
      "d": 312.499687500007,
      "v": 82
    },
    {
      "midi": 72,
      "hit": false,
      "t": 216025.42500000077,
      "d": 328.5253125000163,
      "v": 79
    },
    {
      "midi": 59,
      "hit": false,
      "t": 216415.38187500078,
      "d": 336.53812499999185,
      "v": 82
    },
    {
      "midi": 64,
      "hit": false,
      "t": 216418.05281250077,
      "d": 304.4868750000023,
      "v": 54
    },
    {
      "midi": 67,
      "hit": false,
      "t": 216418.05281250077,
      "d": 339.2090625000128,
      "v": 74
    },
    {
      "midi": 71,
      "hit": false,
      "t": 216418.05281250077,
      "d": 339.2090625000128,
      "v": 73
    },
    {
      "midi": 64,
      "hit": false,
      "t": 216922.86000000077,
      "d": 357.90562499998487,
      "v": 63
    },
    {
      "midi": 60,
      "hit": false,
      "t": 216922.86000000077,
      "d": 395.2987499999872,
      "v": 82
    },
    {
      "midi": 67,
      "hit": false,
      "t": 216925.53093750076,
      "d": 381.94406249999884,
      "v": 74
    },
    {
      "midi": 72,
      "hit": false,
      "t": 216925.53093750076,
      "d": 397.96968750000815,
      "v": 73
    },
    {
      "midi": 65,
      "hit": false,
      "t": 217689.41906250076,
      "d": 285.79031250003027,
      "v": 73
    },
    {
      "midi": 72,
      "hit": false,
      "t": 217689.41906250076,
      "d": 307.1578125000233,
      "v": 82
    },
    {
      "midi": 64,
      "hit": false,
      "t": 217689.41906250076,
      "d": 320.51250000001164,
      "v": 82
    },
    {
      "midi": 76,
      "hit": false,
      "t": 217694.76093750077,
      "d": 264.42281250000815,
      "v": 76
    },
    {
      "midi": 69,
      "hit": false,
      "t": 217694.76093750077,
      "d": 283.1193750000093,
      "v": 73
    },
    {
      "midi": 69,
      "hit": false,
      "t": 218079.37593750076,
      "d": 323.1834374999744,
      "v": 73
    },
    {
      "midi": 74,
      "hit": false,
      "t": 218082.04687500076,
      "d": 328.5253124999872,
      "v": 91
    },
    {
      "midi": 65,
      "hit": false,
      "t": 218084.71781250075,
      "d": 299.1449999999895,
      "v": 64
    },
    {
      "midi": 62,
      "hit": false,
      "t": 218084.71781250075,
      "d": 312.4996874999779,
      "v": 82
    },
    {
      "midi": 60,
      "hit": false,
      "t": 218453.30718750073,
      "d": 77.45718749999651,
      "v": 82
    },
    {
      "midi": 69,
      "hit": false,
      "t": 218455.97812500072,
      "d": 69.44437499999185,
      "v": 73
    },
    {
      "midi": 65,
      "hit": false,
      "t": 218458.6490625007,
      "d": 77.45718750002561,
      "v": 64
    },
    {
      "midi": 72,
      "hit": false,
      "t": 218463.99093750073,
      "d": 50.74781249999069,
      "v": 64
    },
    {
      "midi": 60,
      "hit": false,
      "t": 218712.38812500073,
      "d": 64.10249999997905,
      "v": 81
    },
    {
      "midi": 72,
      "hit": false,
      "t": 218715.05906250072,
      "d": 58.76062499999534,
      "v": 73
    },
    {
      "midi": 65,
      "hit": false,
      "t": 218715.05906250072,
      "d": 61.431562499987194,
      "v": 73
    },
    {
      "midi": 69,
      "hit": false,
      "t": 218715.05906250072,
      "d": 64.10249999997905,
      "v": 91
    },
    {
      "midi": 60,
      "hit": false,
      "t": 218968.7981250007,
      "d": 66.7734375,
      "v": 86
    },
    {
      "midi": 69,
      "hit": false,
      "t": 218971.4690625007,
      "d": 64.10250000000815,
      "v": 82
    },
    {
      "midi": 72,
      "hit": false,
      "t": 218971.4690625007,
      "d": 64.10250000000815,
      "v": 73
    },
    {
      "midi": 65,
      "hit": false,
      "t": 218976.8109375007,
      "d": 66.7734375,
      "v": 73
    },
    {
      "midi": 65,
      "hit": false,
      "t": 219233.2209375007,
      "d": 138.8887499999837,
      "v": 56
    },
    {
      "midi": 69,
      "hit": false,
      "t": 219233.2209375007,
      "d": 149.5724999999802,
      "v": 78
    },
    {
      "midi": 74,
      "hit": false,
      "t": 219233.2209375007,
      "d": 160.25624999997672,
      "v": 72
    },
    {
      "midi": 62,
      "hit": false,
      "t": 219235.8918750007,
      "d": 128.2049999999872,
      "v": 86
    },
    {
      "midi": 74,
      "hit": false,
      "t": 219738.02812500068,
      "d": 288.461249999993,
      "v": 78
    },
    {
      "midi": 67,
      "hit": false,
      "t": 219738.02812500068,
      "d": 301.8159374999814,
      "v": 64
    },
    {
      "midi": 62,
      "hit": false,
      "t": 219738.02812500068,
      "d": 333.8671874999709,
      "v": 91
    },
    {
      "midi": 64,
      "hit": false,
      "t": 219740.69906250067,
      "d": 288.461249999993,
      "v": 63
    },
    {
      "midi": 67,
      "hit": false,
      "t": 220133.32687500064,
      "d": 301.8159375000105,
      "v": 73
    },
    {
      "midi": 72,
      "hit": false,
      "t": 220133.32687500064,
      "d": 317.8415625000198,
      "v": 82
    },
    {
      "midi": 64,
      "hit": false,
      "t": 220135.99781250063,
      "d": 293.8031250000058,
      "v": 54
    },
    {
      "midi": 60,
      "hit": false,
      "t": 220135.99781250063,
      "d": 307.1578125000233,
      "v": 91
    },
    {
      "midi": 67,
      "hit": false,
      "t": 220509.92906250065,
      "d": 344.5509375000256,
      "v": 73
    },
    {
      "midi": 64,
      "hit": false,
      "t": 220515.27093750067,
      "d": 339.2090625000128,
      "v": 63
    },
    {
      "midi": 71,
      "hit": false,
      "t": 220515.27093750067,
      "d": 339.2090625000128,
      "v": 73
    },
    {
      "midi": 59,
      "hit": false,
      "t": 220515.27093750067,
      "d": 349.8928125000093,
      "v": 82
    },
    {
      "midi": 60,
      "hit": false,
      "t": 221022.7490625007,
      "d": 480.76874999998836,
      "v": 91
    },
    {
      "midi": 64,
      "hit": false,
      "t": 221025.42000000068,
      "d": 459.40124999999534,
      "v": 63
    },
    {
      "midi": 72,
      "hit": false,
      "t": 221025.42000000068,
      "d": 470.08499999999185,
      "v": 82
    },
    {
      "midi": 67,
      "hit": false,
      "t": 221025.42000000068,
      "d": 478.0978124999965,
      "v": 73
    },
    {
      "midi": 69,
      "hit": false,
      "t": 221791.97906250067,
      "d": 280.44843749995925,
      "v": 73
    },
    {
      "midi": 64,
      "hit": false,
      "t": 221791.97906250067,
      "d": 293.8031249999767,
      "v": 82
    },
    {
      "midi": 65,
      "hit": false,
      "t": 221794.65000000066,
      "d": 285.79031249997206,
      "v": 73
    },
    {
      "midi": 76,
      "hit": false,
      "t": 221797.32093750066,
      "d": 245.72624999997788,
      "v": 67
    },
    {
      "midi": 72,
      "hit": false,
      "t": 221799.99187500065,
      "d": 315.17062499999884,
      "v": 73
    },
    {
      "midi": 65,
      "hit": false,
      "t": 222184.60687500064,
      "d": 331.19625000000815,
      "v": 64
    },
    {
      "midi": 69,
      "hit": false,
      "t": 222187.27781250063,
      "d": 323.1834375000035,
      "v": 91
    },
    {
      "midi": 62,
      "hit": false,
      "t": 222187.27781250063,
      "d": 331.19625000000815,
      "v": 91
    },
    {
      "midi": 74,
      "hit": false,
      "t": 222187.27781250063,
      "d": 347.22187500001746,
      "v": 82
    },
    {
      "midi": 60,
      "hit": false,
      "t": 222563.88000000064,
      "d": 64.10250000000815,
      "v": 82
    },
    {
      "midi": 72,
      "hit": false,
      "t": 222566.55093750064,
      "d": 53.41875000001164,
      "v": 73
    },
    {
      "midi": 69,
      "hit": false,
      "t": 222566.55093750064,
      "d": 64.10250000000815,
      "v": 64
    },
    {
      "midi": 65,
      "hit": false,
      "t": 222566.55093750064,
      "d": 66.7734375,
      "v": 64
    },
    {
      "midi": 60,
      "hit": false,
      "t": 222817.61906250063,
      "d": 61.4315625000163,
      "v": 82
    },
    {
      "midi": 65,
      "hit": false,
      "t": 222822.96093750064,
      "d": 58.76062499999534,
      "v": 64
    },
    {
      "midi": 69,
      "hit": false,
      "t": 222822.96093750064,
      "d": 66.7734375,
      "v": 91
    },
    {
      "midi": 72,
      "hit": false,
      "t": 222825.63187500063,
      "d": 58.76062499999534,
      "v": 73
    },
    {
      "midi": 60,
      "hit": false,
      "t": 223074.02906250063,
      "d": 85.47000000000116,
      "v": 82
    },
    {
      "midi": 65,
      "hit": false,
      "t": 223079.37093750064,
      "d": 61.431562499987194,
      "v": 73
    },
    {
      "midi": 69,
      "hit": false,
      "t": 223079.37093750064,
      "d": 72.1153124999837,
      "v": 82
    },
    {
      "midi": 72,
      "hit": false,
      "t": 223079.37093750064,
      "d": 72.1153124999837,
      "v": 73
    },
    {
      "midi": 62,
      "hit": false,
      "t": 223338.45187500064,
      "d": 128.2049999999872,
      "v": 82
    },
    {
      "midi": 69,
      "hit": false,
      "t": 223338.45187500064,
      "d": 138.8887499999837,
      "v": 82
    },
    {
      "midi": 65,
      "hit": false,
      "t": 223341.12281250063,
      "d": 117.52124999999069,
      "v": 73
    },
    {
      "midi": 74,
      "hit": false,
      "t": 223341.12281250063,
      "d": 122.86312500000349,
      "v": 91
    },
    {
      "midi": 74,
      "hit": false,
      "t": 223843.2590625006,
      "d": 277.7774999999674,
      "v": 82
    },
    {
      "midi": 67,
      "hit": false,
      "t": 223843.2590625006,
      "d": 285.79031249997206,
      "v": 71
    },
    {
      "midi": 62,
      "hit": false,
      "t": 223845.9300000006,
      "d": 309.82874999998603,
      "v": 91
    },
    {
      "midi": 64,
      "hit": false,
      "t": 223848.6009375006,
      "d": 261.7518749999872,
      "v": 63
    },
    {
      "midi": 60,
      "hit": false,
      "t": 224227.8740625006,
      "d": 331.19625000000815,
      "v": 91
    },
    {
      "midi": 67,
      "hit": false,
      "t": 224233.21593750062,
      "d": 309.82874999998603,
      "v": 77
    },
    {
      "midi": 72,
      "hit": false,
      "t": 224233.21593750062,
      "d": 328.5253124999872,
      "v": 82
    },
    {
      "midi": 64,
      "hit": false,
      "t": 224235.8868750006,
      "d": 304.4868750000023,
      "v": 63
    },
    {
      "midi": 64,
      "hit": false,
      "t": 224620.5018750006,
      "d": 347.22187499998836,
      "v": 62
    },
    {
      "midi": 67,
      "hit": false,
      "t": 224620.5018750006,
      "d": 355.234687499993,
      "v": 71
    },
    {
      "midi": 71,
      "hit": false,
      "t": 224620.5018750006,
      "d": 363.2474999999977,
      "v": 73
    },
    {
      "midi": 59,
      "hit": false,
      "t": 224620.5018750006,
      "d": 365.9184374999895,
      "v": 91
    },
    {
      "midi": 64,
      "hit": false,
      "t": 225125.3090625006,
      "d": 400.640625,
      "v": 63
    },
    {
      "midi": 60,
      "hit": false,
      "t": 225125.3090625006,
      "d": 424.67906250001397,
      "v": 82
    },
    {
      "midi": 72,
      "hit": false,
      "t": 225125.3090625006,
      "d": 424.67906250001397,
      "v": 82
    },
    {
      "midi": 67,
      "hit": false,
      "t": 225125.3090625006,
      "d": 427.3500000000058,
      "v": 81
    },
    {
      "midi": 69,
      "hit": false,
      "t": 225889.1971875006,
      "d": 301.8159374999814,
      "v": 73
    },
    {
      "midi": 65,
      "hit": false,
      "t": 225891.8681250006,
      "d": 277.7774999999965,
      "v": 73
    },
    {
      "midi": 72,
      "hit": false,
      "t": 225891.8681250006,
      "d": 285.79031250000116,
      "v": 73
    },
    {
      "midi": 64,
      "hit": false,
      "t": 225891.8681250006,
      "d": 307.1578124999942,
      "v": 91
    },
    {
      "midi": 76,
      "hit": false,
      "t": 225894.53906250058,
      "d": 259.08093749999534,
      "v": 82
    },
    {
      "midi": 69,
      "hit": false,
      "t": 226279.15406250057,
      "d": 315.17062499999884,
      "v": 82
    },
    {
      "midi": 62,
      "hit": false,
      "t": 226284.4959375006,
      "d": 315.17062499999884,
      "v": 82
    },
    {
      "midi": 65,
      "hit": false,
      "t": 226287.16687500058,
      "d": 299.1449999999895,
      "v": 73
    },
    {
      "midi": 74,
      "hit": false,
      "t": 226287.16687500058,
      "d": 317.8415625000198,
      "v": 82
    },
    {
      "midi": 72,
      "hit": false,
      "t": 226661.0981250006,
      "d": 61.431562499987194,
      "v": 82
    },
    {
      "midi": 69,
      "hit": false,
      "t": 226661.0981250006,
      "d": 74.78624999997555,
      "v": 73
    },
    {
      "midi": 65,
      "hit": false,
      "t": 226661.0981250006,
      "d": 80.12812499998836,
      "v": 73
    },
    {
      "midi": 60,
      "hit": false,
      "t": 226663.7690625006,
      "d": 61.431562499987194,
      "v": 82
    },
    {
      "midi": 69,
      "hit": false,
      "t": 226922.8500000006,
      "d": 64.10249999997905,
      "v": 82
    },
    {
      "midi": 65,
      "hit": false,
      "t": 226925.52093750058,
      "d": 53.41874999998254,
      "v": 73
    },
    {
      "midi": 60,
      "hit": false,
      "t": 226925.52093750058,
      "d": 64.10249999997905,
      "v": 82
    },
    {
      "midi": 72,
      "hit": false,
      "t": 226928.19187500057,
      "d": 64.10249999997905,
      "v": 73
    },
    {
      "midi": 69,
      "hit": false,
      "t": 227176.58906250054,
      "d": 74.78625000003376,
      "v": 82
    },
    {
      "midi": 72,
      "hit": false,
      "t": 227181.93093750055,
      "d": 58.76062499999534,
      "v": 82
    },
    {
      "midi": 60,
      "hit": false,
      "t": 227181.93093750055,
      "d": 64.10250000000815,
      "v": 91
    },
    {
      "midi": 65,
      "hit": false,
      "t": 227184.60187500055,
      "d": 69.44437500002095,
      "v": 64
    },
    {
      "midi": 69,
      "hit": false,
      "t": 227432.99906250057,
      "d": 130.87593749997905,
      "v": 81
    },
    {
      "midi": 65,
      "hit": false,
      "t": 227438.3409375006,
      "d": 122.86312499997439,
      "v": 73
    },
    {
      "midi": 62,
      "hit": false,
      "t": 227441.01187500058,
      "d": 80.12812499998836,
      "v": 73
    },
    {
      "midi": 74,
      "hit": false,
      "t": 227441.01187500058,
      "d": 117.52124999999069,
      "v": 82
    },
    {
      "midi": 67,
      "hit": false,
      "t": 227943.14812500056,
      "d": 283.1193750000384,
      "v": 71
    },
    {
      "midi": 64,
      "hit": false,
      "t": 227948.49000000057,
      "d": 240.38437499999418,
      "v": 63
    },
    {
      "midi": 74,
      "hit": false,
      "t": 227951.16093750056,
      "d": 245.72625000000698,
      "v": 73
    },
    {
      "midi": 62,
      "hit": false,
      "t": 227951.16093750056,
      "d": 269.76468750002095,
      "v": 91
    },
    {
      "midi": 67,
      "hit": false,
      "t": 228333.1050000006,
      "d": 293.8031250000058,
      "v": 74
    },
    {
      "midi": 64,
      "hit": false,
      "t": 228333.1050000006,
      "d": 299.1450000000186,
      "v": 63
    },
    {
      "midi": 60,
      "hit": false,
      "t": 228333.1050000006,
      "d": 312.499687500007,
      "v": 82
    },
    {
      "midi": 72,
      "hit": false,
      "t": 228333.1050000006,
      "d": 328.5253125000163,
      "v": 79
    },
    {
      "midi": 59,
      "hit": false,
      "t": 228723.0618750006,
      "d": 336.53812499999185,
      "v": 82
    },
    {
      "midi": 64,
      "hit": false,
      "t": 228725.7328125006,
      "d": 304.4868750000023,
      "v": 54
    },
    {
      "midi": 67,
      "hit": false,
      "t": 228725.7328125006,
      "d": 339.2090625000128,
      "v": 74
    },
    {
      "midi": 71,
      "hit": false,
      "t": 228725.7328125006,
      "d": 339.2090625000128,
      "v": 73
    },
    {
      "midi": 64,
      "hit": false,
      "t": 229230.5400000006,
      "d": 357.90562499998487,
      "v": 63
    },
    {
      "midi": 60,
      "hit": false,
      "t": 229230.5400000006,
      "d": 395.2987499999872,
      "v": 82
    },
    {
      "midi": 67,
      "hit": false,
      "t": 229233.21093750058,
      "d": 381.94406249999884,
      "v": 74
    },
    {
      "midi": 72,
      "hit": false,
      "t": 229233.21093750058,
      "d": 397.96968750000815,
      "v": 73
    },
    {
      "midi": 65,
      "hit": false,
      "t": 229997.09906250058,
      "d": 285.79031250003027,
      "v": 73
    },
    {
      "midi": 72,
      "hit": false,
      "t": 229997.09906250058,
      "d": 307.1578125000233,
      "v": 82
    },
    {
      "midi": 64,
      "hit": false,
      "t": 229997.09906250058,
      "d": 320.51250000001164,
      "v": 82
    },
    {
      "midi": 76,
      "hit": false,
      "t": 230002.4409375006,
      "d": 264.42281250000815,
      "v": 76
    },
    {
      "midi": 69,
      "hit": false,
      "t": 230002.4409375006,
      "d": 283.1193750000093,
      "v": 73
    },
    {
      "midi": 69,
      "hit": false,
      "t": 230387.05593750058,
      "d": 323.1834374999744,
      "v": 73
    },
    {
      "midi": 74,
      "hit": false,
      "t": 230389.72687500058,
      "d": 328.5253124999872,
      "v": 91
    },
    {
      "midi": 65,
      "hit": false,
      "t": 230392.39781250057,
      "d": 299.1449999999895,
      "v": 64
    },
    {
      "midi": 62,
      "hit": false,
      "t": 230392.39781250057,
      "d": 312.4996874999779,
      "v": 82
    },
    {
      "midi": 60,
      "hit": false,
      "t": 230760.98718750055,
      "d": 77.45718749999651,
      "v": 82
    },
    {
      "midi": 69,
      "hit": false,
      "t": 230763.65812500054,
      "d": 69.44437499999185,
      "v": 73
    },
    {
      "midi": 65,
      "hit": false,
      "t": 230766.32906250053,
      "d": 77.45718750002561,
      "v": 64
    },
    {
      "midi": 72,
      "hit": false,
      "t": 230771.67093750054,
      "d": 50.74781249999069,
      "v": 64
    },
    {
      "midi": 60,
      "hit": false,
      "t": 231020.06812500054,
      "d": 64.10249999997905,
      "v": 81
    },
    {
      "midi": 72,
      "hit": false,
      "t": 231022.73906250054,
      "d": 58.76062499999534,
      "v": 73
    },
    {
      "midi": 65,
      "hit": false,
      "t": 231022.73906250054,
      "d": 61.431562499987194,
      "v": 73
    },
    {
      "midi": 69,
      "hit": false,
      "t": 231022.73906250054,
      "d": 64.10249999997905,
      "v": 91
    },
    {
      "midi": 60,
      "hit": false,
      "t": 231276.47812500052,
      "d": 66.7734375,
      "v": 86
    },
    {
      "midi": 69,
      "hit": false,
      "t": 231279.1490625005,
      "d": 64.10250000000815,
      "v": 82
    },
    {
      "midi": 72,
      "hit": false,
      "t": 231279.1490625005,
      "d": 64.10250000000815,
      "v": 73
    },
    {
      "midi": 65,
      "hit": false,
      "t": 231284.49093750052,
      "d": 66.7734375,
      "v": 73
    },
    {
      "midi": 65,
      "hit": false,
      "t": 231540.90093750053,
      "d": 138.8887499999837,
      "v": 56
    },
    {
      "midi": 69,
      "hit": false,
      "t": 231540.90093750053,
      "d": 149.5724999999802,
      "v": 78
    },
    {
      "midi": 74,
      "hit": false,
      "t": 231540.90093750053,
      "d": 160.25624999997672,
      "v": 72
    },
    {
      "midi": 62,
      "hit": false,
      "t": 231543.57187500052,
      "d": 128.2049999999872,
      "v": 86
    },
    {
      "midi": 74,
      "hit": false,
      "t": 232045.7081250005,
      "d": 288.461249999993,
      "v": 78
    },
    {
      "midi": 67,
      "hit": false,
      "t": 232045.7081250005,
      "d": 301.8159374999814,
      "v": 64
    },
    {
      "midi": 62,
      "hit": false,
      "t": 232045.7081250005,
      "d": 333.8671874999709,
      "v": 91
    },
    {
      "midi": 64,
      "hit": false,
      "t": 232048.3790625005,
      "d": 288.461249999993,
      "v": 63
    },
    {
      "midi": 67,
      "hit": false,
      "t": 232441.00687500046,
      "d": 301.8159375000105,
      "v": 73
    },
    {
      "midi": 72,
      "hit": false,
      "t": 232441.00687500046,
      "d": 317.8415625000198,
      "v": 82
    },
    {
      "midi": 64,
      "hit": false,
      "t": 232443.67781250045,
      "d": 293.8031250000058,
      "v": 54
    },
    {
      "midi": 60,
      "hit": false,
      "t": 232443.67781250045,
      "d": 307.1578125000233,
      "v": 91
    },
    {
      "midi": 67,
      "hit": false,
      "t": 232817.60906250047,
      "d": 344.5509375000256,
      "v": 73
    },
    {
      "midi": 64,
      "hit": false,
      "t": 232822.9509375005,
      "d": 339.2090625000128,
      "v": 63
    },
    {
      "midi": 71,
      "hit": false,
      "t": 232822.9509375005,
      "d": 339.2090625000128,
      "v": 73
    },
    {
      "midi": 59,
      "hit": false,
      "t": 232822.9509375005,
      "d": 349.8928125000093,
      "v": 82
    },
    {
      "midi": 60,
      "hit": false,
      "t": 233330.4290625005,
      "d": 480.76874999998836,
      "v": 91
    },
    {
      "midi": 64,
      "hit": false,
      "t": 233333.1000000005,
      "d": 459.40124999999534,
      "v": 63
    },
    {
      "midi": 72,
      "hit": false,
      "t": 233333.1000000005,
      "d": 470.08499999999185,
      "v": 82
    },
    {
      "midi": 67,
      "hit": false,
      "t": 233333.1000000005,
      "d": 478.0978124999965,
      "v": 73
    },
    {
      "midi": 69,
      "hit": false,
      "t": 234099.6590625005,
      "d": 280.44843749995925,
      "v": 73
    },
    {
      "midi": 64,
      "hit": false,
      "t": 234099.6590625005,
      "d": 293.8031249999767,
      "v": 82
    },
    {
      "midi": 65,
      "hit": false,
      "t": 234102.33000000048,
      "d": 285.79031249997206,
      "v": 73
    },
    {
      "midi": 76,
      "hit": false,
      "t": 234105.00093750047,
      "d": 245.72624999997788,
      "v": 67
    },
    {
      "midi": 72,
      "hit": false,
      "t": 234107.67187500047,
      "d": 315.17062499999884,
      "v": 73
    },
    {
      "midi": 65,
      "hit": false,
      "t": 234492.28687500046,
      "d": 331.19625000000815,
      "v": 64
    },
    {
      "midi": 69,
      "hit": false,
      "t": 234494.95781250045,
      "d": 323.1834375000035,
      "v": 91
    },
    {
      "midi": 62,
      "hit": false,
      "t": 234494.95781250045,
      "d": 331.19625000000815,
      "v": 91
    },
    {
      "midi": 74,
      "hit": false,
      "t": 234494.95781250045,
      "d": 347.22187500001746,
      "v": 82
    },
    {
      "midi": 60,
      "hit": false,
      "t": 234871.56000000046,
      "d": 64.10250000000815,
      "v": 82
    },
    {
      "midi": 72,
      "hit": false,
      "t": 234874.23093750046,
      "d": 53.41875000001164,
      "v": 73
    },
    {
      "midi": 69,
      "hit": false,
      "t": 234874.23093750046,
      "d": 64.10250000000815,
      "v": 64
    },
    {
      "midi": 65,
      "hit": false,
      "t": 234874.23093750046,
      "d": 66.7734375,
      "v": 64
    },
    {
      "midi": 60,
      "hit": false,
      "t": 235125.29906250045,
      "d": 61.4315625000163,
      "v": 82
    },
    {
      "midi": 65,
      "hit": false,
      "t": 235130.64093750046,
      "d": 58.76062499999534,
      "v": 64
    },
    {
      "midi": 69,
      "hit": false,
      "t": 235130.64093750046,
      "d": 66.7734375,
      "v": 91
    },
    {
      "midi": 72,
      "hit": false,
      "t": 235133.31187500045,
      "d": 58.76062499999534,
      "v": 73
    },
    {
      "midi": 60,
      "hit": false,
      "t": 235381.70906250045,
      "d": 85.47000000000116,
      "v": 82
    },
    {
      "midi": 65,
      "hit": false,
      "t": 235387.05093750046,
      "d": 61.431562499987194,
      "v": 73
    },
    {
      "midi": 69,
      "hit": false,
      "t": 235387.05093750046,
      "d": 72.1153124999837,
      "v": 82
    },
    {
      "midi": 72,
      "hit": false,
      "t": 235387.05093750046,
      "d": 72.1153124999837,
      "v": 73
    },
    {
      "midi": 62,
      "hit": false,
      "t": 235646.13187500046,
      "d": 128.2049999999872,
      "v": 82
    },
    {
      "midi": 69,
      "hit": false,
      "t": 235646.13187500046,
      "d": 138.8887499999837,
      "v": 82
    },
    {
      "midi": 65,
      "hit": false,
      "t": 235648.80281250045,
      "d": 117.52124999999069,
      "v": 73
    },
    {
      "midi": 74,
      "hit": false,
      "t": 235648.80281250045,
      "d": 122.86312500000349,
      "v": 91
    },
    {
      "midi": 74,
      "hit": false,
      "t": 236150.93906250043,
      "d": 277.7774999999674,
      "v": 82
    },
    {
      "midi": 67,
      "hit": false,
      "t": 236150.93906250043,
      "d": 285.79031249997206,
      "v": 71
    },
    {
      "midi": 62,
      "hit": false,
      "t": 236153.61000000042,
      "d": 309.82874999998603,
      "v": 91
    },
    {
      "midi": 64,
      "hit": false,
      "t": 236156.2809375004,
      "d": 261.7518749999872,
      "v": 63
    },
    {
      "midi": 60,
      "hit": false,
      "t": 236535.55406250042,
      "d": 331.19625000000815,
      "v": 91
    },
    {
      "midi": 67,
      "hit": false,
      "t": 236540.89593750043,
      "d": 309.82874999998603,
      "v": 77
    },
    {
      "midi": 72,
      "hit": false,
      "t": 236540.89593750043,
      "d": 328.5253124999872,
      "v": 82
    },
    {
      "midi": 64,
      "hit": false,
      "t": 236543.56687500043,
      "d": 304.4868750000023,
      "v": 63
    },
    {
      "midi": 64,
      "hit": false,
      "t": 236928.18187500042,
      "d": 347.22187499998836,
      "v": 62
    },
    {
      "midi": 67,
      "hit": false,
      "t": 236928.18187500042,
      "d": 355.234687499993,
      "v": 71
    },
    {
      "midi": 71,
      "hit": false,
      "t": 236928.18187500042,
      "d": 363.2474999999977,
      "v": 73
    },
    {
      "midi": 59,
      "hit": false,
      "t": 236928.18187500042,
      "d": 365.9184374999895,
      "v": 91
    },
    {
      "midi": 64,
      "hit": false,
      "t": 237432.98906250042,
      "d": 400.640625,
      "v": 63
    },
    {
      "midi": 60,
      "hit": false,
      "t": 237432.98906250042,
      "d": 424.67906250001397,
      "v": 82
    },
    {
      "midi": 72,
      "hit": false,
      "t": 237432.98906250042,
      "d": 424.67906250001397,
      "v": 82
    },
    {
      "midi": 67,
      "hit": false,
      "t": 237432.98906250042,
      "d": 427.3500000000058,
      "v": 81
    },
    {
      "midi": 69,
      "hit": false,
      "t": 238196.87718750042,
      "d": 301.8159374999814,
      "v": 73
    },
    {
      "midi": 65,
      "hit": false,
      "t": 238199.5481250004,
      "d": 277.7774999999965,
      "v": 73
    },
    {
      "midi": 72,
      "hit": false,
      "t": 238199.5481250004,
      "d": 285.79031250000116,
      "v": 73
    },
    {
      "midi": 64,
      "hit": false,
      "t": 238199.5481250004,
      "d": 307.1578124999942,
      "v": 91
    },
    {
      "midi": 76,
      "hit": false,
      "t": 238202.2190625004,
      "d": 259.08093749999534,
      "v": 82
    },
    {
      "midi": 69,
      "hit": false,
      "t": 238586.8340625004,
      "d": 315.17062499999884,
      "v": 82
    },
    {
      "midi": 62,
      "hit": false,
      "t": 238592.1759375004,
      "d": 315.17062499999884,
      "v": 82
    },
    {
      "midi": 65,
      "hit": false,
      "t": 238594.8468750004,
      "d": 299.1449999999895,
      "v": 73
    },
    {
      "midi": 74,
      "hit": false,
      "t": 238594.8468750004,
      "d": 317.8415625000198,
      "v": 82
    },
    {
      "midi": 72,
      "hit": false,
      "t": 238968.77812500042,
      "d": 61.431562499987194,
      "v": 82
    },
    {
      "midi": 69,
      "hit": false,
      "t": 238968.77812500042,
      "d": 74.78624999997555,
      "v": 73
    },
    {
      "midi": 65,
      "hit": false,
      "t": 238968.77812500042,
      "d": 80.12812499998836,
      "v": 73
    },
    {
      "midi": 60,
      "hit": false,
      "t": 238971.4490625004,
      "d": 61.431562499987194,
      "v": 82
    },
    {
      "midi": 69,
      "hit": false,
      "t": 239230.5300000004,
      "d": 64.10249999997905,
      "v": 82
    },
    {
      "midi": 65,
      "hit": false,
      "t": 239233.2009375004,
      "d": 53.41874999998254,
      "v": 73
    },
    {
      "midi": 60,
      "hit": false,
      "t": 239233.2009375004,
      "d": 64.10249999997905,
      "v": 82
    },
    {
      "midi": 72,
      "hit": false,
      "t": 239235.8718750004,
      "d": 64.10249999997905,
      "v": 73
    },
    {
      "midi": 69,
      "hit": false,
      "t": 239484.26906250036,
      "d": 74.78625000003376,
      "v": 82
    },
    {
      "midi": 72,
      "hit": false,
      "t": 239489.61093750037,
      "d": 58.76062499999534,
      "v": 82
    },
    {
      "midi": 60,
      "hit": false,
      "t": 239489.61093750037,
      "d": 64.10250000000815,
      "v": 91
    },
    {
      "midi": 65,
      "hit": false,
      "t": 239492.28187500036,
      "d": 69.44437500002095,
      "v": 64
    },
    {
      "midi": 69,
      "hit": false,
      "t": 239740.6790625004,
      "d": 130.87593749997905,
      "v": 81
    },
    {
      "midi": 65,
      "hit": false,
      "t": 239746.0209375004,
      "d": 122.86312499997439,
      "v": 73
    },
    {
      "midi": 62,
      "hit": false,
      "t": 239748.6918750004,
      "d": 80.12812499998836,
      "v": 73
    },
    {
      "midi": 74,
      "hit": false,
      "t": 239748.6918750004,
      "d": 117.52124999999069,
      "v": 82
    },
    {
      "midi": 67,
      "hit": false,
      "t": 240250.82812500038,
      "d": 283.1193750000384,
      "v": 71
    },
    {
      "midi": 64,
      "hit": false,
      "t": 240256.1700000004,
      "d": 240.38437499999418,
      "v": 63
    },
    {
      "midi": 74,
      "hit": false,
      "t": 240258.84093750038,
      "d": 245.72625000000698,
      "v": 73
    },
    {
      "midi": 62,
      "hit": false,
      "t": 240258.84093750038,
      "d": 269.76468750002095,
      "v": 91
    },
    {
      "midi": 67,
      "hit": false,
      "t": 240640.7850000004,
      "d": 293.8031250000058,
      "v": 74
    },
    {
      "midi": 64,
      "hit": false,
      "t": 240640.7850000004,
      "d": 299.1450000000186,
      "v": 63
    },
    {
      "midi": 60,
      "hit": false,
      "t": 240640.7850000004,
      "d": 312.499687500007,
      "v": 82
    },
    {
      "midi": 72,
      "hit": false,
      "t": 240640.7850000004,
      "d": 328.5253125000163,
      "v": 79
    },
    {
      "midi": 59,
      "hit": false,
      "t": 241030.7418750004,
      "d": 336.53812499999185,
      "v": 82
    },
    {
      "midi": 64,
      "hit": false,
      "t": 241033.4128125004,
      "d": 304.4868750000023,
      "v": 54
    },
    {
      "midi": 67,
      "hit": false,
      "t": 241033.4128125004,
      "d": 339.2090625000128,
      "v": 74
    },
    {
      "midi": 71,
      "hit": false,
      "t": 241033.4128125004,
      "d": 339.2090625000128,
      "v": 73
    },
    {
      "midi": 64,
      "hit": false,
      "t": 241538.2200000004,
      "d": 357.90562499998487,
      "v": 63
    },
    {
      "midi": 60,
      "hit": false,
      "t": 241538.2200000004,
      "d": 395.2987499999872,
      "v": 82
    },
    {
      "midi": 67,
      "hit": false,
      "t": 241540.8909375004,
      "d": 381.94406249999884,
      "v": 74
    },
    {
      "midi": 72,
      "hit": false,
      "t": 241540.8909375004,
      "d": 397.96968750000815,
      "v": 73
    },
    {
      "midi": 65,
      "hit": false,
      "t": 242304.7790625004,
      "d": 285.79031250003027,
      "v": 73
    },
    {
      "midi": 72,
      "hit": false,
      "t": 242304.7790625004,
      "d": 307.1578125000233,
      "v": 82
    },
    {
      "midi": 64,
      "hit": false,
      "t": 242304.7790625004,
      "d": 320.51250000001164,
      "v": 82
    },
    {
      "midi": 76,
      "hit": false,
      "t": 242310.1209375004,
      "d": 264.42281250000815,
      "v": 76
    },
    {
      "midi": 69,
      "hit": false,
      "t": 242310.1209375004,
      "d": 283.1193750000093,
      "v": 73
    },
    {
      "midi": 69,
      "hit": false,
      "t": 242694.7359375004,
      "d": 323.1834374999744,
      "v": 73
    },
    {
      "midi": 74,
      "hit": false,
      "t": 242697.4068750004,
      "d": 328.5253124999872,
      "v": 91
    },
    {
      "midi": 65,
      "hit": false,
      "t": 242700.07781250039,
      "d": 299.1449999999895,
      "v": 64
    },
    {
      "midi": 62,
      "hit": false,
      "t": 242700.07781250039,
      "d": 312.4996874999779,
      "v": 82
    },
    {
      "midi": 60,
      "hit": false,
      "t": 243068.66718750037,
      "d": 77.45718749999651,
      "v": 82
    },
    {
      "midi": 69,
      "hit": false,
      "t": 243071.33812500036,
      "d": 69.44437499999185,
      "v": 73
    },
    {
      "midi": 65,
      "hit": false,
      "t": 243074.00906250035,
      "d": 77.45718750002561,
      "v": 64
    },
    {
      "midi": 72,
      "hit": false,
      "t": 243079.35093750036,
      "d": 50.74781249999069,
      "v": 64
    },
    {
      "midi": 60,
      "hit": false,
      "t": 243327.74812500036,
      "d": 64.10249999997905,
      "v": 81
    },
    {
      "midi": 72,
      "hit": false,
      "t": 243330.41906250035,
      "d": 58.76062499999534,
      "v": 73
    },
    {
      "midi": 65,
      "hit": false,
      "t": 243330.41906250035,
      "d": 61.431562499987194,
      "v": 73
    },
    {
      "midi": 69,
      "hit": false,
      "t": 243330.41906250035,
      "d": 64.10249999997905,
      "v": 91
    },
    {
      "midi": 60,
      "hit": false,
      "t": 243584.15812500034,
      "d": 66.7734375,
      "v": 86
    },
    {
      "midi": 69,
      "hit": false,
      "t": 243586.82906250033,
      "d": 64.10250000000815,
      "v": 82
    },
    {
      "midi": 72,
      "hit": false,
      "t": 243586.82906250033,
      "d": 64.10250000000815,
      "v": 73
    },
    {
      "midi": 65,
      "hit": false,
      "t": 243592.17093750034,
      "d": 66.7734375,
      "v": 73
    },
    {
      "midi": 65,
      "hit": false,
      "t": 243848.58093750034,
      "d": 138.8887499999837,
      "v": 56
    },
    {
      "midi": 69,
      "hit": false,
      "t": 243848.58093750034,
      "d": 149.5724999999802,
      "v": 78
    },
    {
      "midi": 74,
      "hit": false,
      "t": 243848.58093750034,
      "d": 160.25624999997672,
      "v": 72
    },
    {
      "midi": 62,
      "hit": false,
      "t": 243851.25187500034,
      "d": 128.2049999999872,
      "v": 86
    },
    {
      "midi": 74,
      "hit": false,
      "t": 244353.38812500032,
      "d": 288.461249999993,
      "v": 78
    },
    {
      "midi": 67,
      "hit": false,
      "t": 244353.38812500032,
      "d": 301.8159374999814,
      "v": 64
    },
    {
      "midi": 62,
      "hit": false,
      "t": 244353.38812500032,
      "d": 333.8671874999709,
      "v": 91
    },
    {
      "midi": 64,
      "hit": false,
      "t": 244356.0590625003,
      "d": 288.461249999993,
      "v": 63
    },
    {
      "midi": 67,
      "hit": false,
      "t": 244748.68687500028,
      "d": 301.8159375000105,
      "v": 73
    },
    {
      "midi": 72,
      "hit": false,
      "t": 244748.68687500028,
      "d": 317.8415625000198,
      "v": 82
    },
    {
      "midi": 64,
      "hit": false,
      "t": 244751.35781250027,
      "d": 293.8031250000058,
      "v": 54
    },
    {
      "midi": 60,
      "hit": false,
      "t": 244751.35781250027,
      "d": 307.1578125000233,
      "v": 91
    },
    {
      "midi": 67,
      "hit": false,
      "t": 245125.2890625003,
      "d": 344.5509375000256,
      "v": 73
    },
    {
      "midi": 64,
      "hit": false,
      "t": 245130.6309375003,
      "d": 339.2090625000128,
      "v": 63
    },
    {
      "midi": 71,
      "hit": false,
      "t": 245130.6309375003,
      "d": 339.2090625000128,
      "v": 73
    },
    {
      "midi": 59,
      "hit": false,
      "t": 245130.6309375003,
      "d": 349.8928125000093,
      "v": 82
    },
    {
      "midi": 60,
      "hit": false,
      "t": 245638.10906250033,
      "d": 480.76874999998836,
      "v": 91
    },
    {
      "midi": 64,
      "hit": false,
      "t": 245640.78000000032,
      "d": 459.40124999999534,
      "v": 63
    },
    {
      "midi": 72,
      "hit": false,
      "t": 245640.78000000032,
      "d": 470.08499999999185,
      "v": 82
    },
    {
      "midi": 67,
      "hit": false,
      "t": 245640.78000000032,
      "d": 478.0978124999965,
      "v": 73
    },
    {
      "midi": 69,
      "hit": false,
      "t": 246407.3390625003,
      "d": 280.44843749995925,
      "v": 73
    },
    {
      "midi": 64,
      "hit": false,
      "t": 246407.3390625003,
      "d": 293.8031249999767,
      "v": 82
    },
    {
      "midi": 65,
      "hit": false,
      "t": 246410.0100000003,
      "d": 285.79031249997206,
      "v": 73
    },
    {
      "midi": 76,
      "hit": false,
      "t": 246412.6809375003,
      "d": 245.72624999997788,
      "v": 67
    },
    {
      "midi": 72,
      "hit": false,
      "t": 246415.35187500028,
      "d": 315.17062499999884,
      "v": 73
    },
    {
      "midi": 65,
      "hit": false,
      "t": 246799.96687500027,
      "d": 331.19625000000815,
      "v": 64
    },
    {
      "midi": 69,
      "hit": false,
      "t": 246802.63781250027,
      "d": 323.1834375000035,
      "v": 91
    },
    {
      "midi": 62,
      "hit": false,
      "t": 246802.63781250027,
      "d": 331.19625000000815,
      "v": 91
    },
    {
      "midi": 74,
      "hit": false,
      "t": 246802.63781250027,
      "d": 347.22187500001746,
      "v": 82
    },
    {
      "midi": 60,
      "hit": false,
      "t": 247179.24000000028,
      "d": 64.10250000000815,
      "v": 82
    },
    {
      "midi": 72,
      "hit": false,
      "t": 247181.91093750027,
      "d": 53.41875000001164,
      "v": 73
    },
    {
      "midi": 69,
      "hit": false,
      "t": 247181.91093750027,
      "d": 64.10250000000815,
      "v": 64
    },
    {
      "midi": 65,
      "hit": false,
      "t": 247181.91093750027,
      "d": 66.7734375,
      "v": 64
    },
    {
      "midi": 60,
      "hit": false,
      "t": 247432.97906250026,
      "d": 61.4315625000163,
      "v": 82
    },
    {
      "midi": 65,
      "hit": false,
      "t": 247438.32093750028,
      "d": 58.76062499999534,
      "v": 64
    },
    {
      "midi": 69,
      "hit": false,
      "t": 247438.32093750028,
      "d": 66.7734375,
      "v": 91
    },
    {
      "midi": 72,
      "hit": false,
      "t": 247440.99187500027,
      "d": 58.76062499999534,
      "v": 73
    },
    {
      "midi": 60,
      "hit": false,
      "t": 247689.38906250027,
      "d": 85.47000000000116,
      "v": 82
    },
    {
      "midi": 65,
      "hit": false,
      "t": 247694.73093750028,
      "d": 61.431562499987194,
      "v": 73
    },
    {
      "midi": 69,
      "hit": false,
      "t": 247694.73093750028,
      "d": 72.1153124999837,
      "v": 82
    },
    {
      "midi": 72,
      "hit": false,
      "t": 247694.73093750028,
      "d": 72.1153124999837,
      "v": 73
    },
    {
      "midi": 62,
      "hit": false,
      "t": 247953.81187500028,
      "d": 128.2049999999872,
      "v": 82
    },
    {
      "midi": 69,
      "hit": false,
      "t": 247953.81187500028,
      "d": 138.8887499999837,
      "v": 82
    },
    {
      "midi": 65,
      "hit": false,
      "t": 247956.48281250027,
      "d": 117.52124999999069,
      "v": 73
    },
    {
      "midi": 74,
      "hit": false,
      "t": 247956.48281250027,
      "d": 122.86312500000349,
      "v": 91
    },
    {
      "midi": 74,
      "hit": false,
      "t": 248458.61906250025,
      "d": 277.7774999999674,
      "v": 82
    },
    {
      "midi": 67,
      "hit": false,
      "t": 248458.61906250025,
      "d": 285.79031249997206,
      "v": 71
    },
    {
      "midi": 62,
      "hit": false,
      "t": 248461.29000000024,
      "d": 309.82874999998603,
      "v": 91
    },
    {
      "midi": 64,
      "hit": false,
      "t": 248463.96093750023,
      "d": 261.7518749999872,
      "v": 63
    },
    {
      "midi": 60,
      "hit": false,
      "t": 248843.23406250024,
      "d": 331.19625000000815,
      "v": 91
    },
    {
      "midi": 67,
      "hit": false,
      "t": 248848.57593750025,
      "d": 309.82874999998603,
      "v": 77
    },
    {
      "midi": 72,
      "hit": false,
      "t": 248848.57593750025,
      "d": 328.5253124999872,
      "v": 82
    },
    {
      "midi": 64,
      "hit": false,
      "t": 248851.24687500024,
      "d": 304.4868750000023,
      "v": 63
    },
    {
      "midi": 64,
      "hit": false,
      "t": 249235.86187500024,
      "d": 347.22187499998836,
      "v": 62
    },
    {
      "midi": 67,
      "hit": false,
      "t": 249235.86187500024,
      "d": 355.234687499993,
      "v": 71
    },
    {
      "midi": 71,
      "hit": false,
      "t": 249235.86187500024,
      "d": 363.2474999999977,
      "v": 73
    },
    {
      "midi": 59,
      "hit": false,
      "t": 249235.86187500024,
      "d": 365.9184374999895,
      "v": 91
    },
    {
      "midi": 64,
      "hit": false,
      "t": 249740.66906250024,
      "d": 400.640625,
      "v": 63
    },
    {
      "midi": 60,
      "hit": false,
      "t": 249740.66906250024,
      "d": 424.67906250001397,
      "v": 82
    },
    {
      "midi": 72,
      "hit": false,
      "t": 249740.66906250024,
      "d": 424.67906250001397,
      "v": 82
    },
    {
      "midi": 67,
      "hit": false,
      "t": 249740.66906250024,
      "d": 427.3500000000058,
      "v": 81
    },
    {
      "midi": 69,
      "hit": false,
      "t": 250504.55718750024,
      "d": 301.8159374999814,
      "v": 73
    },
    {
      "midi": 65,
      "hit": false,
      "t": 250507.22812500023,
      "d": 277.7774999999965,
      "v": 73
    },
    {
      "midi": 72,
      "hit": false,
      "t": 250507.22812500023,
      "d": 285.79031250000116,
      "v": 73
    },
    {
      "midi": 64,
      "hit": false,
      "t": 250507.22812500023,
      "d": 307.1578124999942,
      "v": 91
    },
    {
      "midi": 76,
      "hit": false,
      "t": 250509.89906250022,
      "d": 259.08093749999534,
      "v": 82
    },
    {
      "midi": 69,
      "hit": false,
      "t": 250894.5140625002,
      "d": 315.17062499999884,
      "v": 82
    },
    {
      "midi": 62,
      "hit": false,
      "t": 250899.85593750022,
      "d": 315.17062499999884,
      "v": 82
    },
    {
      "midi": 65,
      "hit": false,
      "t": 250902.5268750002,
      "d": 299.1449999999895,
      "v": 73
    },
    {
      "midi": 74,
      "hit": false,
      "t": 250902.5268750002,
      "d": 317.8415625000198,
      "v": 82
    },
    {
      "midi": 72,
      "hit": false,
      "t": 251276.45812500024,
      "d": 61.431562499987194,
      "v": 82
    },
    {
      "midi": 69,
      "hit": false,
      "t": 251276.45812500024,
      "d": 74.78624999997555,
      "v": 73
    },
    {
      "midi": 65,
      "hit": false,
      "t": 251276.45812500024,
      "d": 80.12812499998836,
      "v": 73
    },
    {
      "midi": 60,
      "hit": false,
      "t": 251279.12906250023,
      "d": 61.431562499987194,
      "v": 82
    },
    {
      "midi": 69,
      "hit": false,
      "t": 251538.21000000022,
      "d": 64.10249999997905,
      "v": 82
    },
    {
      "midi": 65,
      "hit": false,
      "t": 251540.88093750022,
      "d": 53.41874999998254,
      "v": 73
    },
    {
      "midi": 60,
      "hit": false,
      "t": 251540.88093750022,
      "d": 64.10249999997905,
      "v": 82
    },
    {
      "midi": 72,
      "hit": false,
      "t": 251543.5518750002,
      "d": 64.10249999997905,
      "v": 73
    },
    {
      "midi": 69,
      "hit": false,
      "t": 251791.94906250018,
      "d": 74.78625000003376,
      "v": 82
    },
    {
      "midi": 72,
      "hit": false,
      "t": 251797.2909375002,
      "d": 58.76062499999534,
      "v": 82
    },
    {
      "midi": 60,
      "hit": false,
      "t": 251797.2909375002,
      "d": 64.10250000000815,
      "v": 91
    },
    {
      "midi": 65,
      "hit": false,
      "t": 251799.96187500018,
      "d": 69.44437500002095,
      "v": 64
    },
    {
      "midi": 69,
      "hit": false,
      "t": 252048.3590625002,
      "d": 130.87593749997905,
      "v": 81
    },
    {
      "midi": 65,
      "hit": false,
      "t": 252053.70093750022,
      "d": 122.86312499997439,
      "v": 73
    },
    {
      "midi": 62,
      "hit": false,
      "t": 252056.37187500022,
      "d": 80.12812499998836,
      "v": 73
    },
    {
      "midi": 74,
      "hit": false,
      "t": 252056.37187500022,
      "d": 117.52124999999069,
      "v": 82
    },
    {
      "midi": 67,
      "hit": false,
      "t": 252558.5081250002,
      "d": 283.1193750000384,
      "v": 71
    },
    {
      "midi": 64,
      "hit": false,
      "t": 252563.8500000002,
      "d": 240.38437499999418,
      "v": 63
    },
    {
      "midi": 74,
      "hit": false,
      "t": 252566.5209375002,
      "d": 245.72625000000698,
      "v": 73
    },
    {
      "midi": 62,
      "hit": false,
      "t": 252566.5209375002,
      "d": 269.76468750002095,
      "v": 91
    },
    {
      "midi": 67,
      "hit": false,
      "t": 252948.46500000023,
      "d": 293.8031250000058,
      "v": 74
    },
    {
      "midi": 64,
      "hit": false,
      "t": 252948.46500000023,
      "d": 299.1450000000186,
      "v": 63
    },
    {
      "midi": 60,
      "hit": false,
      "t": 252948.46500000023,
      "d": 312.499687500007,
      "v": 82
    },
    {
      "midi": 72,
      "hit": false,
      "t": 252948.46500000023,
      "d": 328.5253125000163,
      "v": 79
    },
    {
      "midi": 59,
      "hit": false,
      "t": 253338.42187500023,
      "d": 336.53812499999185,
      "v": 82
    },
    {
      "midi": 64,
      "hit": false,
      "t": 253341.09281250022,
      "d": 304.4868750000023,
      "v": 54
    },
    {
      "midi": 67,
      "hit": false,
      "t": 253341.09281250022,
      "d": 339.2090625000128,
      "v": 74
    },
    {
      "midi": 71,
      "hit": false,
      "t": 253341.09281250022,
      "d": 339.2090625000128,
      "v": 73
    },
    {
      "midi": 64,
      "hit": false,
      "t": 253845.90000000023,
      "d": 357.90562499998487,
      "v": 63
    },
    {
      "midi": 60,
      "hit": false,
      "t": 253845.90000000023,
      "d": 395.2987499999872,
      "v": 82
    },
    {
      "midi": 67,
      "hit": false,
      "t": 253848.57093750022,
      "d": 381.94406249999884,
      "v": 74
    },
    {
      "midi": 72,
      "hit": false,
      "t": 253848.57093750022,
      "d": 397.96968750000815,
      "v": 73
    },
    {
      "midi": 65,
      "hit": false,
      "t": 254612.45906250022,
      "d": 285.79031250003027,
      "v": 73
    },
    {
      "midi": 72,
      "hit": false,
      "t": 254612.45906250022,
      "d": 307.1578125000233,
      "v": 82
    },
    {
      "midi": 64,
      "hit": false,
      "t": 254612.45906250022,
      "d": 320.51250000001164,
      "v": 82
    },
    {
      "midi": 76,
      "hit": false,
      "t": 254617.80093750023,
      "d": 264.42281250000815,
      "v": 76
    },
    {
      "midi": 69,
      "hit": false,
      "t": 254617.80093750023,
      "d": 283.1193750000093,
      "v": 73
    },
    {
      "midi": 69,
      "hit": false,
      "t": 255002.41593750022,
      "d": 323.1834374999744,
      "v": 73
    },
    {
      "midi": 74,
      "hit": false,
      "t": 255005.0868750002,
      "d": 328.5253124999872,
      "v": 91
    },
    {
      "midi": 65,
      "hit": false,
      "t": 255007.7578125002,
      "d": 299.1449999999895,
      "v": 64
    },
    {
      "midi": 62,
      "hit": false,
      "t": 255007.7578125002,
      "d": 312.4996874999779,
      "v": 82
    },
    {
      "midi": 60,
      "hit": false,
      "t": 255376.34718750019,
      "d": 77.45718749999651,
      "v": 82
    },
    {
      "midi": 69,
      "hit": false,
      "t": 255379.01812500018,
      "d": 69.44437499999185,
      "v": 73
    },
    {
      "midi": 65,
      "hit": false,
      "t": 255381.68906250017,
      "d": 77.45718750002561,
      "v": 64
    },
    {
      "midi": 72,
      "hit": false,
      "t": 255387.03093750018,
      "d": 50.74781249999069,
      "v": 64
    },
    {
      "midi": 60,
      "hit": false,
      "t": 255635.42812500018,
      "d": 64.10249999997905,
      "v": 81
    },
    {
      "midi": 72,
      "hit": false,
      "t": 255638.09906250017,
      "d": 58.76062499999534,
      "v": 73
    },
    {
      "midi": 65,
      "hit": false,
      "t": 255638.09906250017,
      "d": 61.431562499987194,
      "v": 73
    },
    {
      "midi": 69,
      "hit": false,
      "t": 255638.09906250017,
      "d": 64.10249999997905,
      "v": 91
    },
    {
      "midi": 60,
      "hit": false,
      "t": 255891.83812500015,
      "d": 66.7734375,
      "v": 86
    },
    {
      "midi": 69,
      "hit": false,
      "t": 255894.50906250015,
      "d": 64.10250000000815,
      "v": 82
    },
    {
      "midi": 72,
      "hit": false,
      "t": 255894.50906250015,
      "d": 64.10250000000815,
      "v": 73
    },
    {
      "midi": 65,
      "hit": false,
      "t": 255899.85093750016,
      "d": 66.7734375,
      "v": 73
    },
    {
      "midi": 65,
      "hit": false,
      "t": 256156.26093750016,
      "d": 138.8887499999837,
      "v": 56
    },
    {
      "midi": 69,
      "hit": false,
      "t": 256156.26093750016,
      "d": 149.5724999999802,
      "v": 78
    },
    {
      "midi": 74,
      "hit": false,
      "t": 256156.26093750016,
      "d": 160.25624999997672,
      "v": 72
    },
    {
      "midi": 62,
      "hit": false,
      "t": 256158.93187500015,
      "d": 128.2049999999872,
      "v": 86
    },
    {
      "midi": 74,
      "hit": false,
      "t": 256661.06812500014,
      "d": 288.461249999993,
      "v": 78
    },
    {
      "midi": 67,
      "hit": false,
      "t": 256661.06812500014,
      "d": 301.8159374999814,
      "v": 64
    },
    {
      "midi": 62,
      "hit": false,
      "t": 256661.06812500014,
      "d": 333.8671874999709,
      "v": 91
    },
    {
      "midi": 64,
      "hit": false,
      "t": 256663.73906250013,
      "d": 288.461249999993,
      "v": 63
    },
    {
      "midi": 67,
      "hit": false,
      "t": 257056.3668750001,
      "d": 301.8159375000105,
      "v": 73
    },
    {
      "midi": 72,
      "hit": false,
      "t": 257056.3668750001,
      "d": 317.8415625000198,
      "v": 82
    },
    {
      "midi": 64,
      "hit": false,
      "t": 257059.0378125001,
      "d": 293.8031250000058,
      "v": 54
    },
    {
      "midi": 60,
      "hit": false,
      "t": 257059.0378125001,
      "d": 307.1578125000233,
      "v": 91
    },
    {
      "midi": 67,
      "hit": false,
      "t": 257432.9690625001,
      "d": 344.5509375000256,
      "v": 73
    },
    {
      "midi": 64,
      "hit": false,
      "t": 257438.31093750012,
      "d": 339.2090625000128,
      "v": 63
    },
    {
      "midi": 71,
      "hit": false,
      "t": 257438.31093750012,
      "d": 339.2090625000128,
      "v": 73
    },
    {
      "midi": 59,
      "hit": false,
      "t": 257438.31093750012,
      "d": 349.8928125000093,
      "v": 82
    },
    {
      "midi": 60,
      "hit": false,
      "t": 257945.78906250015,
      "d": 480.76874999998836,
      "v": 91
    },
    {
      "midi": 64,
      "hit": false,
      "t": 257948.46000000014,
      "d": 459.40124999999534,
      "v": 63
    },
    {
      "midi": 72,
      "hit": false,
      "t": 257948.46000000014,
      "d": 470.08499999999185,
      "v": 82
    },
    {
      "midi": 67,
      "hit": false,
      "t": 257948.46000000014,
      "d": 478.0978124999965,
      "v": 73
    },
    {
      "midi": 69,
      "hit": false,
      "t": 258715.01906250013,
      "d": 280.44843749995925,
      "v": 73
    },
    {
      "midi": 64,
      "hit": false,
      "t": 258715.01906250013,
      "d": 293.8031249999767,
      "v": 82
    },
    {
      "midi": 65,
      "hit": false,
      "t": 258717.69000000012,
      "d": 285.79031249997206,
      "v": 73
    },
    {
      "midi": 76,
      "hit": false,
      "t": 258720.3609375001,
      "d": 245.72624999997788,
      "v": 67
    },
    {
      "midi": 72,
      "hit": false,
      "t": 258723.0318750001,
      "d": 315.17062499999884,
      "v": 73
    },
    {
      "midi": 65,
      "hit": false,
      "t": 259107.6468750001,
      "d": 331.19625000000815,
      "v": 64
    },
    {
      "midi": 69,
      "hit": false,
      "t": 259110.31781250008,
      "d": 323.1834375000035,
      "v": 91
    },
    {
      "midi": 62,
      "hit": false,
      "t": 259110.31781250008,
      "d": 331.19625000000815,
      "v": 91
    },
    {
      "midi": 74,
      "hit": false,
      "t": 259110.31781250008,
      "d": 347.22187500001746,
      "v": 82
    },
    {
      "midi": 60,
      "hit": false,
      "t": 259486.9200000001,
      "d": 64.10250000000815,
      "v": 82
    },
    {
      "midi": 72,
      "hit": false,
      "t": 259489.5909375001,
      "d": 53.41875000001164,
      "v": 73
    },
    {
      "midi": 69,
      "hit": false,
      "t": 259489.5909375001,
      "d": 64.10250000000815,
      "v": 64
    },
    {
      "midi": 65,
      "hit": false,
      "t": 259489.5909375001,
      "d": 66.7734375,
      "v": 64
    },
    {
      "midi": 60,
      "hit": false,
      "t": 259740.65906250008,
      "d": 61.4315625000163,
      "v": 82
    },
    {
      "midi": 65,
      "hit": false,
      "t": 259746.0009375001,
      "d": 58.76062499999534,
      "v": 64
    },
    {
      "midi": 69,
      "hit": false,
      "t": 259746.0009375001,
      "d": 66.7734375,
      "v": 91
    },
    {
      "midi": 72,
      "hit": false,
      "t": 259748.6718750001,
      "d": 58.76062499999534,
      "v": 73
    },
    {
      "midi": 60,
      "hit": false,
      "t": 259997.0690625001,
      "d": 85.47000000000116,
      "v": 82
    },
    {
      "midi": 65,
      "hit": false,
      "t": 260002.4109375001,
      "d": 61.431562499987194,
      "v": 73
    },
    {
      "midi": 69,
      "hit": false,
      "t": 260002.4109375001,
      "d": 72.1153124999837,
      "v": 82
    },
    {
      "midi": 72,
      "hit": false,
      "t": 260002.4109375001,
      "d": 72.1153124999837,
      "v": 73
    },
    {
      "midi": 62,
      "hit": false,
      "t": 260261.4918750001,
      "d": 128.2049999999872,
      "v": 82
    },
    {
      "midi": 69,
      "hit": false,
      "t": 260261.4918750001,
      "d": 138.8887499999837,
      "v": 82
    },
    {
      "midi": 65,
      "hit": false,
      "t": 260264.1628125001,
      "d": 117.52124999999069,
      "v": 73
    },
    {
      "midi": 74,
      "hit": false,
      "t": 260264.1628125001,
      "d": 122.86312500000349,
      "v": 91
    },
    {
      "midi": 74,
      "hit": false,
      "t": 260766.29906250007,
      "d": 277.7774999999674,
      "v": 82
    },
    {
      "midi": 67,
      "hit": false,
      "t": 260766.29906250007,
      "d": 285.79031249997206,
      "v": 71
    },
    {
      "midi": 62,
      "hit": false,
      "t": 260768.97000000006,
      "d": 309.82874999998603,
      "v": 91
    },
    {
      "midi": 64,
      "hit": false,
      "t": 260771.64093750005,
      "d": 261.7518749999872,
      "v": 63
    },
    {
      "midi": 60,
      "hit": false,
      "t": 261150.91406250006,
      "d": 331.19625000000815,
      "v": 91
    },
    {
      "midi": 67,
      "hit": false,
      "t": 261156.25593750007,
      "d": 309.82874999998603,
      "v": 77
    },
    {
      "midi": 72,
      "hit": false,
      "t": 261156.25593750007,
      "d": 328.5253124999872,
      "v": 82
    },
    {
      "midi": 64,
      "hit": false,
      "t": 261158.92687500006,
      "d": 304.4868750000023,
      "v": 63
    },
    {
      "midi": 64,
      "hit": false,
      "t": 261543.54187500005,
      "d": 347.22187499998836,
      "v": 62
    },
    {
      "midi": 67,
      "hit": false,
      "t": 261543.54187500005,
      "d": 355.234687499993,
      "v": 71
    },
    {
      "midi": 71,
      "hit": false,
      "t": 261543.54187500005,
      "d": 363.2474999999977,
      "v": 73
    },
    {
      "midi": 59,
      "hit": false,
      "t": 261543.54187500005,
      "d": 365.9184374999895,
      "v": 91
    },
    {
      "midi": 64,
      "hit": false,
      "t": 262048.34906250006,
      "d": 400.640625,
      "v": 63
    },
    {
      "midi": 60,
      "hit": false,
      "t": 262048.34906250006,
      "d": 424.67906250001397,
      "v": 82
    },
    {
      "midi": 72,
      "hit": false,
      "t": 262048.34906250006,
      "d": 424.67906250001397,
      "v": 82
    },
    {
      "midi": 67,
      "hit": false,
      "t": 262048.34906250006,
      "d": 427.3500000000349,
      "v": 81
    },
    {
      "midi": 69,
      "hit": false,
      "t": 262812.2371875001,
      "d": 301.8159375000396,
      "v": 73
    },
    {
      "midi": 65,
      "hit": false,
      "t": 262814.90812500013,
      "d": 277.7775000000256,
      "v": 73
    },
    {
      "midi": 72,
      "hit": false,
      "t": 262814.90812500013,
      "d": 285.79031250003027,
      "v": 73
    },
    {
      "midi": 64,
      "hit": false,
      "t": 262814.90812500013,
      "d": 307.1578125000233,
      "v": 91
    },
    {
      "midi": 76,
      "hit": false,
      "t": 262817.57906250015,
      "d": 259.08093749999534,
      "v": 82
    },
    {
      "midi": 69,
      "hit": false,
      "t": 263202.19406250014,
      "d": 315.17062500002794,
      "v": 82
    },
    {
      "midi": 62,
      "hit": false,
      "t": 263207.5359375001,
      "d": 315.17062500002794,
      "v": 82
    },
    {
      "midi": 65,
      "hit": false,
      "t": 263210.20687500015,
      "d": 299.1450000000186,
      "v": 73
    },
    {
      "midi": 74,
      "hit": false,
      "t": 263210.20687500015,
      "d": 317.8415624999907,
      "v": 82
    },
    {
      "midi": 72,
      "hit": false,
      "t": 263584.1381250001,
      "d": 61.4315625000163,
      "v": 82
    },
    {
      "midi": 69,
      "hit": false,
      "t": 263584.1381250001,
      "d": 74.78625000006286,
      "v": 73
    },
    {
      "midi": 65,
      "hit": false,
      "t": 263584.1381250001,
      "d": 80.12812500004657,
      "v": 73
    },
    {
      "midi": 60,
      "hit": false,
      "t": 263586.80906250014,
      "d": 61.4315625000163,
      "v": 82
    },
    {
      "midi": 69,
      "hit": false,
      "t": 263845.8900000002,
      "d": 64.10250000003725,
      "v": 82
    },
    {
      "midi": 65,
      "hit": false,
      "t": 263848.5609375002,
      "d": 53.41875000001164,
      "v": 73
    },
    {
      "midi": 60,
      "hit": false,
      "t": 263848.5609375002,
      "d": 64.10250000003725,
      "v": 82
    },
    {
      "midi": 72,
      "hit": false,
      "t": 263851.23187500023,
      "d": 64.10250000003725,
      "v": 73
    },
    {
      "midi": 69,
      "hit": false,
      "t": 264099.62906250026,
      "d": 74.78624999994645,
      "v": 82
    },
    {
      "midi": 72,
      "hit": false,
      "t": 264104.97093750024,
      "d": 58.76062499999534,
      "v": 82
    },
    {
      "midi": 60,
      "hit": false,
      "t": 264104.97093750024,
      "d": 64.10249999997905,
      "v": 91
    },
    {
      "midi": 65,
      "hit": false,
      "t": 264107.64187500026,
      "d": 69.44437499996275,
      "v": 64
    },
    {
      "midi": 69,
      "hit": false,
      "t": 264356.03906250023,
      "d": 130.87593750003725,
      "v": 81
    },
    {
      "midi": 65,
      "hit": false,
      "t": 264361.3809375002,
      "d": 122.8631250000326,
      "v": 73
    },
    {
      "midi": 62,
      "hit": false,
      "t": 264364.05187500024,
      "d": 80.12812499998836,
      "v": 73
    },
    {
      "midi": 74,
      "hit": false,
      "t": 264364.05187500024,
      "d": 117.52124999999069,
      "v": 82
    },
    {
      "midi": 67,
      "hit": false,
      "t": 264866.1881250003,
      "d": 283.1193750000093,
      "v": 71
    },
    {
      "midi": 64,
      "hit": false,
      "t": 264871.53000000026,
      "d": 240.38437500002328,
      "v": 63
    },
    {
      "midi": 74,
      "hit": false,
      "t": 264874.2009375003,
      "d": 245.72625000000698,
      "v": 73
    },
    {
      "midi": 62,
      "hit": false,
      "t": 264874.2009375003,
      "d": 269.76468750002095,
      "v": 91
    },
    {
      "midi": 67,
      "hit": false,
      "t": 265256.1450000003,
      "d": 293.8031249999767,
      "v": 74
    },
    {
      "midi": 64,
      "hit": false,
      "t": 265256.1450000003,
      "d": 299.1449999999604,
      "v": 63
    },
    {
      "midi": 60,
      "hit": false,
      "t": 265256.1450000003,
      "d": 312.4996874999488,
      "v": 82
    },
    {
      "midi": 72,
      "hit": false,
      "t": 265256.1450000003,
      "d": 328.5253124999581,
      "v": 79
    },
    {
      "midi": 59,
      "hit": false,
      "t": 265646.1018750003,
      "d": 336.53812500002095,
      "v": 82
    },
    {
      "midi": 64,
      "hit": false,
      "t": 265648.7728125003,
      "d": 304.4868750000023,
      "v": 54
    },
    {
      "midi": 67,
      "hit": false,
      "t": 265648.7728125003,
      "d": 339.2090624999837,
      "v": 74
    },
    {
      "midi": 71,
      "hit": false,
      "t": 265648.7728125003,
      "d": 339.2090624999837,
      "v": 73
    },
    {
      "midi": 64,
      "hit": false,
      "t": 266153.5800000003,
      "d": 357.90562500001397,
      "v": 63
    },
    {
      "midi": 60,
      "hit": false,
      "t": 266153.5800000003,
      "d": 395.2987500000163,
      "v": 82
    },
    {
      "midi": 67,
      "hit": false,
      "t": 266156.2509375003,
      "d": 381.94406249996973,
      "v": 74
    },
    {
      "midi": 72,
      "hit": false,
      "t": 266156.2509375003,
      "d": 397.96968749997905,
      "v": 73
    },
    {
      "midi": 65,
      "hit": false,
      "t": 266920.1390625003,
      "d": 285.79031249997206,
      "v": 73
    },
    {
      "midi": 72,
      "hit": false,
      "t": 266920.1390625003,
      "d": 307.1578124999651,
      "v": 82
    },
    {
      "midi": 64,
      "hit": false,
      "t": 266920.1390625003,
      "d": 320.51249999995343,
      "v": 82
    },
    {
      "midi": 76,
      "hit": false,
      "t": 266925.4809375003,
      "d": 264.42281249997905,
      "v": 76
    },
    {
      "midi": 69,
      "hit": false,
      "t": 266925.4809375003,
      "d": 283.1193750000093,
      "v": 73
    },
    {
      "midi": 69,
      "hit": false,
      "t": 267310.0959375003,
      "d": 323.1834375000326,
      "v": 73
    },
    {
      "midi": 74,
      "hit": false,
      "t": 267312.7668750003,
      "d": 328.5253125000163,
      "v": 91
    },
    {
      "midi": 65,
      "hit": false,
      "t": 267315.43781250034,
      "d": 299.1450000000186,
      "v": 64
    },
    {
      "midi": 62,
      "hit": false,
      "t": 267315.43781250034,
      "d": 312.499687500007,
      "v": 82
    },
    {
      "midi": 60,
      "hit": false,
      "t": 267684.0271875003,
      "d": 77.45718750002561,
      "v": 82
    },
    {
      "midi": 69,
      "hit": false,
      "t": 267686.69812500034,
      "d": 69.44437500002095,
      "v": 73
    },
    {
      "midi": 65,
      "hit": false,
      "t": 267689.36906250037,
      "d": 77.4571874999674,
      "v": 64
    },
    {
      "midi": 72,
      "hit": false,
      "t": 267694.71093750035,
      "d": 50.74781249999069,
      "v": 64
    },
    {
      "midi": 60,
      "hit": false,
      "t": 267943.1081250003,
      "d": 64.10250000003725,
      "v": 81
    },
    {
      "midi": 72,
      "hit": false,
      "t": 267945.77906250034,
      "d": 58.76062499999534,
      "v": 73
    },
    {
      "midi": 65,
      "hit": false,
      "t": 267945.77906250034,
      "d": 61.4315625000163,
      "v": 73
    },
    {
      "midi": 69,
      "hit": false,
      "t": 267945.77906250034,
      "d": 64.10250000003725,
      "v": 91
    },
    {
      "midi": 60,
      "hit": false,
      "t": 268199.51812500035,
      "d": 66.7734375,
      "v": 86
    },
    {
      "midi": 69,
      "hit": false,
      "t": 268202.1890625004,
      "d": 64.10249999997905,
      "v": 82
    },
    {
      "midi": 72,
      "hit": false,
      "t": 268202.1890625004,
      "d": 64.10249999997905,
      "v": 73
    },
    {
      "midi": 65,
      "hit": false,
      "t": 268207.53093750036,
      "d": 66.7734375,
      "v": 73
    },
    {
      "midi": 65,
      "hit": false,
      "t": 268463.94093750033,
      "d": 138.8887500000419,
      "v": 56
    },
    {
      "midi": 69,
      "hit": false,
      "t": 268463.94093750033,
      "d": 149.57250000006752,
      "v": 78
    },
    {
      "midi": 74,
      "hit": false,
      "t": 268463.94093750033,
      "d": 160.25625000009313,
      "v": 72
    },
    {
      "midi": 62,
      "hit": false,
      "t": 268466.61187500035,
      "d": 128.2050000000163,
      "v": 86
    },
    {
      "midi": 74,
      "hit": false,
      "t": 268968.74812500045,
      "d": 288.461249999993,
      "v": 78
    },
    {
      "midi": 67,
      "hit": false,
      "t": 268968.74812500045,
      "d": 301.8159375000396,
      "v": 64
    },
    {
      "midi": 62,
      "hit": false,
      "t": 268968.74812500045,
      "d": 333.8671875000582,
      "v": 91
    },
    {
      "midi": 64,
      "hit": false,
      "t": 268971.41906250047,
      "d": 288.461249999993,
      "v": 63
    },
    {
      "midi": 67,
      "hit": false,
      "t": 269364.0468750005,
      "d": 301.8159374999814,
      "v": 73
    },
    {
      "midi": 72,
      "hit": false,
      "t": 269364.0468750005,
      "d": 317.8415624999907,
      "v": 82
    },
    {
      "midi": 64,
      "hit": false,
      "t": 269366.71781250054,
      "d": 293.8031249999767,
      "v": 54
    },
    {
      "midi": 60,
      "hit": false,
      "t": 269366.71781250054,
      "d": 307.1578124999651,
      "v": 91
    },
    {
      "midi": 67,
      "hit": false,
      "t": 269740.6490625005,
      "d": 344.5509374999674,
      "v": 73
    },
    {
      "midi": 64,
      "hit": false,
      "t": 269745.9909375005,
      "d": 339.2090624999837,
      "v": 63
    },
    {
      "midi": 71,
      "hit": false,
      "t": 269745.9909375005,
      "d": 339.2090624999837,
      "v": 73
    },
    {
      "midi": 59,
      "hit": false,
      "t": 269745.9909375005,
      "d": 349.8928125000093,
      "v": 82
    },
    {
      "midi": 60,
      "hit": false,
      "t": 270253.4690625005,
      "d": 480.76875000004657,
      "v": 91
    },
    {
      "midi": 64,
      "hit": false,
      "t": 270256.14000000054,
      "d": 459.40124999999534,
      "v": 63
    },
    {
      "midi": 72,
      "hit": false,
      "t": 270256.14000000054,
      "d": 470.08500000002095,
      "v": 82
    },
    {
      "midi": 67,
      "hit": false,
      "t": 270256.14000000054,
      "d": 478.0978125000256,
      "v": 73
    },
    {
      "midi": 69,
      "hit": false,
      "t": 271022.69906250056,
      "d": 280.44843750004657,
      "v": 73
    },
    {
      "midi": 64,
      "hit": false,
      "t": 271022.69906250056,
      "d": 293.8031250000349,
      "v": 82
    },
    {
      "midi": 65,
      "hit": false,
      "t": 271025.3700000006,
      "d": 285.79031250003027,
      "v": 73
    },
    {
      "midi": 76,
      "hit": false,
      "t": 271028.0409375006,
      "d": 245.72625000000698,
      "v": 67
    },
    {
      "midi": 72,
      "hit": false,
      "t": 271030.7118750006,
      "d": 315.17062499996973,
      "v": 73
    },
    {
      "midi": 65,
      "hit": false,
      "t": 271415.3268750006,
      "d": 331.19624999997905,
      "v": 64
    },
    {
      "midi": 69,
      "hit": false,
      "t": 271417.99781250063,
      "d": 323.1834374999744,
      "v": 91
    },
    {
      "midi": 62,
      "hit": false,
      "t": 271417.99781250063,
      "d": 331.19624999997905,
      "v": 91
    },
    {
      "midi": 74,
      "hit": false,
      "t": 271417.99781250063,
      "d": 347.22187499998836,
      "v": 82
    },
    {
      "midi": 60,
      "hit": false,
      "t": 271794.6000000006,
      "d": 64.10250000003725,
      "v": 82
    },
    {
      "midi": 72,
      "hit": false,
      "t": 271797.27093750064,
      "d": 53.41875000001164,
      "v": 73
    },
    {
      "midi": 69,
      "hit": false,
      "t": 271797.27093750064,
      "d": 64.10250000003725,
      "v": 64
    },
    {
      "midi": 65,
      "hit": false,
      "t": 271797.27093750064,
      "d": 66.77343750005821,
      "v": 64
    },
    {
      "midi": 60,
      "hit": false,
      "t": 272048.3390625007,
      "d": 61.4315625000163,
      "v": 82
    },
    {
      "midi": 65,
      "hit": false,
      "t": 272053.68093750067,
      "d": 58.76062500005355,
      "v": 64
    },
    {
      "midi": 69,
      "hit": false,
      "t": 272053.68093750067,
      "d": 66.77343750005821,
      "v": 91
    },
    {
      "midi": 72,
      "hit": false,
      "t": 272056.3518750007,
      "d": 58.76062500005355,
      "v": 73
    },
    {
      "midi": 60,
      "hit": false,
      "t": 272304.7490625007,
      "d": 85.47000000003027,
      "v": 82
    },
    {
      "midi": 65,
      "hit": false,
      "t": 272310.0909375007,
      "d": 61.4315625000163,
      "v": 73
    },
    {
      "midi": 69,
      "hit": false,
      "t": 272310.0909375007,
      "d": 72.11531250004191,
      "v": 82
    },
    {
      "midi": 72,
      "hit": false,
      "t": 272310.0909375007,
      "d": 72.11531250004191,
      "v": 73
    },
    {
      "midi": 62,
      "hit": false,
      "t": 272569.17187500076,
      "d": 128.2050000000163,
      "v": 82
    },
    {
      "midi": 69,
      "hit": false,
      "t": 272569.17187500076,
      "d": 138.8887500000419,
      "v": 82
    },
    {
      "midi": 65,
      "hit": false,
      "t": 272571.8428125008,
      "d": 117.52124999999069,
      "v": 73
    },
    {
      "midi": 74,
      "hit": false,
      "t": 272571.8428125008,
      "d": 122.86312499997439,
      "v": 91
    },
    {
      "midi": 74,
      "hit": false,
      "t": 273073.9790625008,
      "d": 277.7775000000838,
      "v": 82
    },
    {
      "midi": 67,
      "hit": false,
      "t": 273073.9790625008,
      "d": 285.7903125000885,
      "v": 71
    },
    {
      "midi": 62,
      "hit": false,
      "t": 273076.65000000084,
      "d": 309.82875000004424,
      "v": 91
    },
    {
      "midi": 64,
      "hit": false,
      "t": 273079.32093750086,
      "d": 261.7518750000163,
      "v": 63
    },
    {
      "midi": 60,
      "hit": false,
      "t": 273458.59406250087,
      "d": 331.19625000003725,
      "v": 91
    },
    {
      "midi": 67,
      "hit": false,
      "t": 273463.93593750085,
      "d": 309.82875000004424,
      "v": 77
    },
    {
      "midi": 72,
      "hit": false,
      "t": 273463.93593750085,
      "d": 328.5253125000745,
      "v": 82
    },
    {
      "midi": 64,
      "hit": false,
      "t": 273466.60687500087,
      "d": 304.4868750000023,
      "v": 63
    },
    {
      "midi": 64,
      "hit": false,
      "t": 273851.2218750009,
      "d": 347.22187499998836,
      "v": 62
    },
    {
      "midi": 67,
      "hit": false,
      "t": 273851.2218750009,
      "d": 355.234687499993,
      "v": 71
    },
    {
      "midi": 71,
      "hit": false,
      "t": 273851.2218750009,
      "d": 363.2474999999977,
      "v": 73
    },
    {
      "midi": 59,
      "hit": false,
      "t": 273851.2218750009,
      "d": 365.9184375000186,
      "v": 91
    },
    {
      "midi": 64,
      "hit": false,
      "t": 274356.0290625009,
      "d": 400.640625,
      "v": 63
    },
    {
      "midi": 60,
      "hit": false,
      "t": 274356.0290625009,
      "d": 424.67906250001397,
      "v": 82
    },
    {
      "midi": 72,
      "hit": false,
      "t": 274356.0290625009,
      "d": 424.67906250001397,
      "v": 82
    },
    {
      "midi": 67,
      "hit": false,
      "t": 274356.0290625009,
      "d": 427.3500000000349,
      "v": 81
    },
    {
      "midi": 69,
      "hit": false,
      "t": 275119.917187501,
      "d": 301.8159375000396,
      "v": 73
    },
    {
      "midi": 65,
      "hit": false,
      "t": 275122.588125001,
      "d": 277.7775000000256,
      "v": 73
    },
    {
      "midi": 72,
      "hit": false,
      "t": 275122.588125001,
      "d": 285.79031250003027,
      "v": 73
    },
    {
      "midi": 64,
      "hit": false,
      "t": 275122.588125001,
      "d": 307.1578125000233,
      "v": 91
    },
    {
      "midi": 76,
      "hit": false,
      "t": 275125.259062501,
      "d": 259.08093749999534,
      "v": 82
    },
    {
      "midi": 69,
      "hit": false,
      "t": 275509.874062501,
      "d": 315.17062500002794,
      "v": 82
    },
    {
      "midi": 62,
      "hit": false,
      "t": 275515.215937501,
      "d": 315.17062500002794,
      "v": 82
    },
    {
      "midi": 65,
      "hit": false,
      "t": 275517.886875001,
      "d": 299.1450000000186,
      "v": 73
    },
    {
      "midi": 74,
      "hit": false,
      "t": 275517.886875001,
      "d": 317.8415624999907,
      "v": 82
    },
    {
      "midi": 72,
      "hit": false,
      "t": 275891.818125001,
      "d": 61.4315625000163,
      "v": 82
    },
    {
      "midi": 69,
      "hit": false,
      "t": 275891.818125001,
      "d": 74.78625000006286,
      "v": 73
    },
    {
      "midi": 65,
      "hit": false,
      "t": 275891.818125001,
      "d": 80.12812500004657,
      "v": 73
    },
    {
      "midi": 60,
      "hit": false,
      "t": 275894.489062501,
      "d": 61.4315625000163,
      "v": 82
    },
    {
      "midi": 69,
      "hit": false,
      "t": 276153.57000000105,
      "d": 64.10250000003725,
      "v": 82
    },
    {
      "midi": 65,
      "hit": false,
      "t": 276156.2409375011,
      "d": 53.41875000001164,
      "v": 73
    },
    {
      "midi": 60,
      "hit": false,
      "t": 276156.2409375011,
      "d": 64.10250000003725,
      "v": 82
    },
    {
      "midi": 72,
      "hit": false,
      "t": 276158.9118750011,
      "d": 64.10250000003725,
      "v": 73
    },
    {
      "midi": 69,
      "hit": false,
      "t": 276407.3090625011,
      "d": 74.78624999994645,
      "v": 82
    },
    {
      "midi": 72,
      "hit": false,
      "t": 276412.6509375011,
      "d": 58.76062499999534,
      "v": 82
    },
    {
      "midi": 60,
      "hit": false,
      "t": 276412.6509375011,
      "d": 64.10249999997905,
      "v": 91
    },
    {
      "midi": 65,
      "hit": false,
      "t": 276415.32187500113,
      "d": 69.44437499996275,
      "v": 64
    },
    {
      "midi": 69,
      "hit": false,
      "t": 276663.7190625011,
      "d": 130.87593750003725,
      "v": 81
    },
    {
      "midi": 65,
      "hit": false,
      "t": 276669.0609375011,
      "d": 122.8631250000326,
      "v": 73
    },
    {
      "midi": 62,
      "hit": false,
      "t": 276671.7318750011,
      "d": 80.12812499998836,
      "v": 73
    },
    {
      "midi": 74,
      "hit": false,
      "t": 276671.7318750011,
      "d": 117.52124999999069,
      "v": 82
    },
    {
      "midi": 67,
      "hit": false,
      "t": 277173.86812500114,
      "d": 283.1193750000093,
      "v": 71
    },
    {
      "midi": 64,
      "hit": false,
      "t": 277179.2100000011,
      "d": 240.38437500002328,
      "v": 63
    },
    {
      "midi": 74,
      "hit": false,
      "t": 277181.88093750115,
      "d": 245.72625000000698,
      "v": 73
    },
    {
      "midi": 62,
      "hit": false,
      "t": 277181.88093750115,
      "d": 269.76468750002095,
      "v": 91
    },
    {
      "midi": 67,
      "hit": false,
      "t": 277563.8250000012,
      "d": 293.8031249999767,
      "v": 74
    },
    {
      "midi": 64,
      "hit": false,
      "t": 277563.8250000012,
      "d": 299.1449999999604,
      "v": 63
    },
    {
      "midi": 60,
      "hit": false,
      "t": 277563.8250000012,
      "d": 312.4996874999488,
      "v": 82
    },
    {
      "midi": 72,
      "hit": false,
      "t": 277563.8250000012,
      "d": 328.5253124999581,
      "v": 79
    },
    {
      "midi": 59,
      "hit": false,
      "t": 277953.78187500115,
      "d": 336.53812500002095,
      "v": 82
    },
    {
      "midi": 64,
      "hit": false,
      "t": 277956.4528125012,
      "d": 304.4868750000023,
      "v": 54
    },
    {
      "midi": 67,
      "hit": false,
      "t": 277956.4528125012,
      "d": 339.2090624999837,
      "v": 74
    },
    {
      "midi": 71,
      "hit": false,
      "t": 277956.4528125012,
      "d": 339.2090624999837,
      "v": 73
    },
    {
      "midi": 64,
      "hit": false,
      "t": 278461.2600000012,
      "d": 357.90562500001397,
      "v": 63
    },
    {
      "midi": 60,
      "hit": false,
      "t": 278461.2600000012,
      "d": 395.2987500000163,
      "v": 82
    },
    {
      "midi": 67,
      "hit": false,
      "t": 278463.9309375012,
      "d": 381.94406249996973,
      "v": 74
    },
    {
      "midi": 72,
      "hit": false,
      "t": 278463.9309375012,
      "d": 397.96968749997905,
      "v": 73
    },
    {
      "midi": 65,
      "hit": false,
      "t": 279227.8190625012,
      "d": 285.79031249997206,
      "v": 73
    },
    {
      "midi": 72,
      "hit": false,
      "t": 279227.8190625012,
      "d": 307.1578124999651,
      "v": 82
    },
    {
      "midi": 64,
      "hit": false,
      "t": 279227.8190625012,
      "d": 320.51249999995343,
      "v": 82
    },
    {
      "midi": 76,
      "hit": false,
      "t": 279233.1609375012,
      "d": 264.42281249997905,
      "v": 76
    },
    {
      "midi": 69,
      "hit": false,
      "t": 279233.1609375012,
      "d": 283.1193750000093,
      "v": 73
    },
    {
      "midi": 69,
      "hit": false,
      "t": 279617.77593750117,
      "d": 323.1834375000326,
      "v": 73
    },
    {
      "midi": 74,
      "hit": false,
      "t": 279620.4468750012,
      "d": 328.5253125000163,
      "v": 91
    },
    {
      "midi": 65,
      "hit": false,
      "t": 279623.1178125012,
      "d": 299.1450000000186,
      "v": 64
    },
    {
      "midi": 62,
      "hit": false,
      "t": 279623.1178125012,
      "d": 312.499687500007,
      "v": 82
    },
    {
      "midi": 60,
      "hit": false,
      "t": 279991.7071875012,
      "d": 77.45718750002561,
      "v": 82
    },
    {
      "midi": 69,
      "hit": false,
      "t": 279994.3781250012,
      "d": 69.44437500002095,
      "v": 73
    },
    {
      "midi": 65,
      "hit": false,
      "t": 279997.04906250123,
      "d": 77.4571874999674,
      "v": 64
    },
    {
      "midi": 72,
      "hit": false,
      "t": 280002.3909375012,
      "d": 50.74781249999069,
      "v": 64
    },
    {
      "midi": 60,
      "hit": false,
      "t": 280250.7881250012,
      "d": 64.10250000003725,
      "v": 81
    },
    {
      "midi": 72,
      "hit": false,
      "t": 280253.4590625012,
      "d": 58.76062499999534,
      "v": 73
    },
    {
      "midi": 65,
      "hit": false,
      "t": 280253.4590625012,
      "d": 61.4315625000163,
      "v": 73
    },
    {
      "midi": 69,
      "hit": false,
      "t": 280253.4590625012,
      "d": 64.10250000003725,
      "v": 91
    },
    {
      "midi": 60,
      "hit": false,
      "t": 280507.1981250012,
      "d": 66.7734375,
      "v": 86
    },
    {
      "midi": 69,
      "hit": false,
      "t": 280509.86906250124,
      "d": 64.10249999997905,
      "v": 82
    },
    {
      "midi": 72,
      "hit": false,
      "t": 280509.86906250124,
      "d": 64.10249999997905,
      "v": 73
    },
    {
      "midi": 65,
      "hit": false,
      "t": 280515.2109375012,
      "d": 66.7734375,
      "v": 73
    },
    {
      "midi": 65,
      "hit": false,
      "t": 280771.6209375012,
      "d": 138.8887500000419,
      "v": 56
    },
    {
      "midi": 69,
      "hit": false,
      "t": 280771.6209375012,
      "d": 149.57250000006752,
      "v": 78
    },
    {
      "midi": 74,
      "hit": false,
      "t": 280771.6209375012,
      "d": 160.25625000009313,
      "v": 72
    },
    {
      "midi": 62,
      "hit": false,
      "t": 280774.2918750012,
      "d": 128.2050000000163,
      "v": 86
    },
    {
      "midi": 74,
      "hit": false,
      "t": 281276.4281250013,
      "d": 288.461249999993,
      "v": 78
    },
    {
      "midi": 67,
      "hit": false,
      "t": 281276.4281250013,
      "d": 301.8159375000396,
      "v": 64
    },
    {
      "midi": 62,
      "hit": false,
      "t": 281276.4281250013,
      "d": 333.8671875000582,
      "v": 91
    },
    {
      "midi": 64,
      "hit": false,
      "t": 281279.09906250134,
      "d": 288.461249999993,
      "v": 63
    },
    {
      "midi": 67,
      "hit": false,
      "t": 281671.7268750014,
      "d": 301.8159374999814,
      "v": 73
    },
    {
      "midi": 72,
      "hit": false,
      "t": 281671.7268750014,
      "d": 317.8415624999907,
      "v": 82
    },
    {
      "midi": 64,
      "hit": false,
      "t": 281674.3978125014,
      "d": 293.8031249999767,
      "v": 54
    },
    {
      "midi": 60,
      "hit": false,
      "t": 281674.3978125014,
      "d": 307.1578124999651,
      "v": 91
    },
    {
      "midi": 67,
      "hit": false,
      "t": 282048.3290625014,
      "d": 344.5509374999674,
      "v": 73
    },
    {
      "midi": 64,
      "hit": false,
      "t": 282053.67093750136,
      "d": 339.2090624999837,
      "v": 63
    },
    {
      "midi": 71,
      "hit": false,
      "t": 282053.67093750136,
      "d": 339.2090624999837,
      "v": 73
    },
    {
      "midi": 59,
      "hit": false,
      "t": 282053.67093750136,
      "d": 349.8928125000093,
      "v": 82
    },
    {
      "midi": 60,
      "hit": false,
      "t": 282561.1490625014,
      "d": 480.76875000004657,
      "v": 91
    },
    {
      "midi": 64,
      "hit": false,
      "t": 282563.8200000014,
      "d": 459.40124999999534,
      "v": 63
    },
    {
      "midi": 72,
      "hit": false,
      "t": 282563.8200000014,
      "d": 470.08500000002095,
      "v": 82
    },
    {
      "midi": 67,
      "hit": false,
      "t": 282563.8200000014,
      "d": 478.0978125000256,
      "v": 73
    },
    {
      "midi": 69,
      "hit": false,
      "t": 283330.3790625014,
      "d": 280.44843750004657,
      "v": 73
    },
    {
      "midi": 64,
      "hit": false,
      "t": 283330.3790625014,
      "d": 293.8031250000349,
      "v": 82
    },
    {
      "midi": 65,
      "hit": false,
      "t": 283333.05000000144,
      "d": 285.79031250003027,
      "v": 73
    },
    {
      "midi": 76,
      "hit": false,
      "t": 283335.72093750146,
      "d": 245.72625000000698,
      "v": 67
    },
    {
      "midi": 72,
      "hit": false,
      "t": 283338.3918750015,
      "d": 315.17062499996973,
      "v": 73
    },
    {
      "midi": 65,
      "hit": false,
      "t": 283723.0068750015,
      "d": 331.19624999997905,
      "v": 64
    },
    {
      "midi": 69,
      "hit": false,
      "t": 283725.6778125015,
      "d": 323.1834374999744,
      "v": 91
    },
    {
      "midi": 62,
      "hit": false,
      "t": 283725.6778125015,
      "d": 331.19624999997905,
      "v": 91
    },
    {
      "midi": 74,
      "hit": false,
      "t": 283725.6778125015,
      "d": 347.22187499998836,
      "v": 82
    },
    {
      "midi": 60,
      "hit": false,
      "t": 284102.2800000015,
      "d": 64.10250000003725,
      "v": 82
    },
    {
      "midi": 72,
      "hit": false,
      "t": 284104.9509375015,
      "d": 53.41875000001164,
      "v": 73
    },
    {
      "midi": 69,
      "hit": false,
      "t": 284104.9509375015,
      "d": 64.10250000003725,
      "v": 64
    },
    {
      "midi": 65,
      "hit": false,
      "t": 284104.9509375015,
      "d": 66.77343750005821,
      "v": 64
    },
    {
      "midi": 60,
      "hit": false,
      "t": 284356.01906250155,
      "d": 61.4315625000163,
      "v": 82
    },
    {
      "midi": 65,
      "hit": false,
      "t": 284361.36093750154,
      "d": 58.76062500005355,
      "v": 64
    },
    {
      "midi": 69,
      "hit": false,
      "t": 284361.36093750154,
      "d": 66.77343750005821,
      "v": 91
    },
    {
      "midi": 72,
      "hit": false,
      "t": 284364.03187500156,
      "d": 58.76062500005355,
      "v": 73
    },
    {
      "midi": 60,
      "hit": false,
      "t": 284612.4290625016,
      "d": 85.47000000003027,
      "v": 82
    },
    {
      "midi": 65,
      "hit": false,
      "t": 284617.77093750157,
      "d": 61.4315625000163,
      "v": 73
    },
    {
      "midi": 69,
      "hit": false,
      "t": 284617.77093750157,
      "d": 72.11531250004191,
      "v": 82
    },
    {
      "midi": 72,
      "hit": false,
      "t": 284617.77093750157,
      "d": 72.11531250004191,
      "v": 73
    },
    {
      "midi": 62,
      "hit": false,
      "t": 284876.8518750016,
      "d": 128.2050000000163,
      "v": 82
    },
    {
      "midi": 69,
      "hit": false,
      "t": 284876.8518750016,
      "d": 138.8887500000419,
      "v": 82
    },
    {
      "midi": 65,
      "hit": false,
      "t": 284879.52281250164,
      "d": 117.52124999999069,
      "v": 73
    },
    {
      "midi": 74,
      "hit": false,
      "t": 284879.52281250164,
      "d": 122.86312499997439,
      "v": 91
    },
    {
      "midi": 74,
      "hit": false,
      "t": 285381.6590625017,
      "d": 277.7775000000838,
      "v": 82
    },
    {
      "midi": 67,
      "hit": false,
      "t": 285381.6590625017,
      "d": 285.7903125000885,
      "v": 71
    },
    {
      "midi": 62,
      "hit": false,
      "t": 285384.3300000017,
      "d": 309.82875000004424,
      "v": 91
    },
    {
      "midi": 64,
      "hit": false,
      "t": 285387.0009375017,
      "d": 261.7518750000163,
      "v": 63
    },
    {
      "midi": 60,
      "hit": false,
      "t": 285766.27406250173,
      "d": 331.19625000003725,
      "v": 91
    },
    {
      "midi": 67,
      "hit": false,
      "t": 285771.6159375017,
      "d": 309.82875000004424,
      "v": 77
    },
    {
      "midi": 72,
      "hit": false,
      "t": 285771.6159375017,
      "d": 328.5253125000745,
      "v": 82
    },
    {
      "midi": 64,
      "hit": false,
      "t": 285774.28687500174,
      "d": 304.4868750000023,
      "v": 63
    },
    {
      "midi": 64,
      "hit": false,
      "t": 286158.9018750018,
      "d": 347.22187499998836,
      "v": 62
    },
    {
      "midi": 67,
      "hit": false,
      "t": 286158.9018750018,
      "d": 355.234687499993,
      "v": 71
    },
    {
      "midi": 71,
      "hit": false,
      "t": 286158.9018750018,
      "d": 363.2474999999977,
      "v": 73
    },
    {
      "midi": 59,
      "hit": false,
      "t": 286158.9018750018,
      "d": 365.9184375000186,
      "v": 91
    },
    {
      "midi": 64,
      "hit": false,
      "t": 286663.7090625018,
      "d": 400.640625,
      "v": 63
    },
    {
      "midi": 60,
      "hit": false,
      "t": 286663.7090625018,
      "d": 424.67906250001397,
      "v": 82
    },
    {
      "midi": 72,
      "hit": false,
      "t": 286663.7090625018,
      "d": 424.67906250001397,
      "v": 82
    },
    {
      "midi": 67,
      "hit": false,
      "t": 286663.7090625018,
      "d": 427.3500000000349,
      "v": 81
    },
    {
      "midi": 69,
      "hit": false,
      "t": 287427.59718750184,
      "d": 301.8159375000396,
      "v": 73
    },
    {
      "midi": 65,
      "hit": false,
      "t": 287430.26812500186,
      "d": 277.7775000000256,
      "v": 73
    },
    {
      "midi": 72,
      "hit": false,
      "t": 287430.26812500186,
      "d": 285.79031250003027,
      "v": 73
    },
    {
      "midi": 64,
      "hit": false,
      "t": 287430.26812500186,
      "d": 307.1578125000233,
      "v": 91
    },
    {
      "midi": 76,
      "hit": false,
      "t": 287432.9390625019,
      "d": 259.08093749999534,
      "v": 82
    },
    {
      "midi": 69,
      "hit": false,
      "t": 287817.5540625019,
      "d": 315.17062500002794,
      "v": 82
    },
    {
      "midi": 62,
      "hit": false,
      "t": 287822.89593750186,
      "d": 315.17062500002794,
      "v": 82
    },
    {
      "midi": 65,
      "hit": false,
      "t": 287825.5668750019,
      "d": 299.1450000000186,
      "v": 73
    },
    {
      "midi": 74,
      "hit": false,
      "t": 287825.5668750019,
      "d": 317.8415624999907,
      "v": 82
    },
    {
      "midi": 72,
      "hit": false,
      "t": 288199.49812500185,
      "d": 61.4315625000163,
      "v": 82
    },
    {
      "midi": 69,
      "hit": false,
      "t": 288199.49812500185,
      "d": 74.78625000006286,
      "v": 73
    },
    {
      "midi": 65,
      "hit": false,
      "t": 288199.49812500185,
      "d": 80.12812500004657,
      "v": 73
    },
    {
      "midi": 60,
      "hit": false,
      "t": 288202.16906250187,
      "d": 61.4315625000163,
      "v": 82
    },
    {
      "midi": 69,
      "hit": false,
      "t": 288461.2500000019,
      "d": 64.10250000003725,
      "v": 82
    },
    {
      "midi": 65,
      "hit": false,
      "t": 288463.92093750194,
      "d": 53.41875000001164,
      "v": 73
    },
    {
      "midi": 60,
      "hit": false,
      "t": 288463.92093750194,
      "d": 64.10250000003725,
      "v": 82
    },
    {
      "midi": 72,
      "hit": false,
      "t": 288466.59187500196,
      "d": 64.10250000003725,
      "v": 73
    },
    {
      "midi": 69,
      "hit": false,
      "t": 288714.989062502,
      "d": 74.78624999994645,
      "v": 82
    },
    {
      "midi": 72,
      "hit": false,
      "t": 288720.330937502,
      "d": 58.76062499999534,
      "v": 82
    },
    {
      "midi": 60,
      "hit": false,
      "t": 288720.330937502,
      "d": 64.10249999997905,
      "v": 91
    },
    {
      "midi": 65,
      "hit": false,
      "t": 288723.001875002,
      "d": 69.44437499996275,
      "v": 64
    },
    {
      "midi": 69,
      "hit": false,
      "t": 288971.39906250197,
      "d": 130.87593750003725,
      "v": 81
    },
    {
      "midi": 65,
      "hit": false,
      "t": 288976.74093750195,
      "d": 122.8631250000326,
      "v": 73
    },
    {
      "midi": 62,
      "hit": false,
      "t": 288979.41187500197,
      "d": 80.12812499998836,
      "v": 73
    },
    {
      "midi": 74,
      "hit": false,
      "t": 288979.41187500197,
      "d": 117.52124999999069,
      "v": 82
    },
    {
      "midi": 67,
      "hit": false,
      "t": 289481.548125002,
      "d": 283.1193750000093,
      "v": 71
    },
    {
      "midi": 64,
      "hit": false,
      "t": 289486.890000002,
      "d": 240.38437500002328,
      "v": 63
    },
    {
      "midi": 74,
      "hit": false,
      "t": 289489.560937502,
      "d": 245.72625000000698,
      "v": 73
    },
    {
      "midi": 62,
      "hit": false,
      "t": 289489.560937502,
      "d": 269.76468750002095,
      "v": 91
    },
    {
      "midi": 67,
      "hit": false,
      "t": 289871.50500000204,
      "d": 293.8031249999767,
      "v": 74
    },
    {
      "midi": 64,
      "hit": false,
      "t": 289871.50500000204,
      "d": 299.1449999999604,
      "v": 63
    },
    {
      "midi": 60,
      "hit": false,
      "t": 289871.50500000204,
      "d": 312.4996874999488,
      "v": 82
    },
    {
      "midi": 72,
      "hit": false,
      "t": 289871.50500000204,
      "d": 328.5253124999581,
      "v": 79
    },
    {
      "midi": 59,
      "hit": false,
      "t": 290261.461875002,
      "d": 336.53812500002095,
      "v": 82
    },
    {
      "midi": 64,
      "hit": false,
      "t": 290264.13281250204,
      "d": 304.4868750000023,
      "v": 54
    },
    {
      "midi": 67,
      "hit": false,
      "t": 290264.13281250204,
      "d": 339.2090624999837,
      "v": 74
    },
    {
      "midi": 71,
      "hit": false,
      "t": 290264.13281250204,
      "d": 339.2090624999837,
      "v": 73
    },
    {
      "midi": 64,
      "hit": false,
      "t": 290768.94000000204,
      "d": 357.90562500001397,
      "v": 63
    },
    {
      "midi": 60,
      "hit": false,
      "t": 290768.94000000204,
      "d": 395.2987500000163,
      "v": 82
    },
    {
      "midi": 67,
      "hit": false,
      "t": 290771.61093750206,
      "d": 381.94406249996973,
      "v": 74
    },
    {
      "midi": 72,
      "hit": false,
      "t": 290771.61093750206,
      "d": 397.96968749997905,
      "v": 73
    },
    {
      "midi": 65,
      "hit": false,
      "t": 291535.49906250206,
      "d": 285.79031249997206,
      "v": 73
    },
    {
      "midi": 72,
      "hit": false,
      "t": 291535.49906250206,
      "d": 307.1578124999651,
      "v": 82
    },
    {
      "midi": 64,
      "hit": false,
      "t": 291535.49906250206,
      "d": 320.51249999995343,
      "v": 82
    },
    {
      "midi": 76,
      "hit": false,
      "t": 291540.84093750204,
      "d": 264.42281249997905,
      "v": 76
    },
    {
      "midi": 69,
      "hit": false,
      "t": 291540.84093750204,
      "d": 283.1193750000093,
      "v": 73
    },
    {
      "midi": 69,
      "hit": false,
      "t": 291925.45593750203,
      "d": 323.1834375000326,
      "v": 73
    },
    {
      "midi": 74,
      "hit": false,
      "t": 291928.12687500205,
      "d": 328.5253125000163,
      "v": 91
    },
    {
      "midi": 65,
      "hit": false,
      "t": 291930.7978125021,
      "d": 299.1450000000186,
      "v": 64
    },
    {
      "midi": 62,
      "hit": false,
      "t": 291930.7978125021,
      "d": 312.499687500007,
      "v": 82
    },
    {
      "midi": 60,
      "hit": false,
      "t": 292299.38718750206,
      "d": 77.45718750002561,
      "v": 82
    },
    {
      "midi": 69,
      "hit": false,
      "t": 292302.0581250021,
      "d": 69.44437500002095,
      "v": 73
    },
    {
      "midi": 65,
      "hit": false,
      "t": 292304.7290625021,
      "d": 77.4571874999674,
      "v": 64
    },
    {
      "midi": 72,
      "hit": false,
      "t": 292310.0709375021,
      "d": 50.74781249999069,
      "v": 64
    },
    {
      "midi": 60,
      "hit": false,
      "t": 292558.46812500205,
      "d": 64.10250000003725,
      "v": 81
    },
    {
      "midi": 72,
      "hit": false,
      "t": 292561.1390625021,
      "d": 58.76062499999534,
      "v": 73
    },
    {
      "midi": 65,
      "hit": false,
      "t": 292561.1390625021,
      "d": 61.4315625000163,
      "v": 73
    },
    {
      "midi": 69,
      "hit": false,
      "t": 292561.1390625021,
      "d": 64.10250000003725,
      "v": 91
    },
    {
      "midi": 60,
      "hit": false,
      "t": 292814.8781250021,
      "d": 66.7734375,
      "v": 86
    },
    {
      "midi": 69,
      "hit": false,
      "t": 292817.5490625021,
      "d": 64.10249999997905,
      "v": 82
    },
    {
      "midi": 72,
      "hit": false,
      "t": 292817.5490625021,
      "d": 64.10249999997905,
      "v": 73
    },
    {
      "midi": 65,
      "hit": false,
      "t": 292822.8909375021,
      "d": 66.7734375,
      "v": 73
    },
    {
      "midi": 65,
      "hit": false,
      "t": 293079.30093750206,
      "d": 138.8887500000419,
      "v": 56
    },
    {
      "midi": 69,
      "hit": false,
      "t": 293079.30093750206,
      "d": 149.57250000006752,
      "v": 78
    },
    {
      "midi": 74,
      "hit": false,
      "t": 293079.30093750206,
      "d": 160.25625000009313,
      "v": 72
    },
    {
      "midi": 62,
      "hit": false,
      "t": 293081.9718750021,
      "d": 128.2050000000163,
      "v": 86
    },
    {
      "midi": 74,
      "hit": false,
      "t": 293584.1081250022,
      "d": 288.461249999993,
      "v": 78
    },
    {
      "midi": 67,
      "hit": false,
      "t": 293584.1081250022,
      "d": 301.8159375000396,
      "v": 64
    },
    {
      "midi": 62,
      "hit": false,
      "t": 293584.1081250022,
      "d": 333.8671875000582,
      "v": 91
    },
    {
      "midi": 64,
      "hit": false,
      "t": 293586.7790625022,
      "d": 288.461249999993,
      "v": 63
    },
    {
      "midi": 67,
      "hit": false,
      "t": 293979.40687500226,
      "d": 301.8159374999814,
      "v": 73
    },
    {
      "midi": 72,
      "hit": false,
      "t": 293979.40687500226,
      "d": 317.8415624999907,
      "v": 82
    },
    {
      "midi": 64,
      "hit": false,
      "t": 293982.0778125023,
      "d": 293.8031249999767,
      "v": 54
    },
    {
      "midi": 60,
      "hit": false,
      "t": 293982.0778125023,
      "d": 307.1578124999651,
      "v": 91
    },
    {
      "midi": 67,
      "hit": false,
      "t": 294356.00906250224,
      "d": 344.5509374999674,
      "v": 73
    },
    {
      "midi": 64,
      "hit": false,
      "t": 294361.3509375022,
      "d": 339.2090624999837,
      "v": 63
    },
    {
      "midi": 71,
      "hit": false,
      "t": 294361.3509375022,
      "d": 339.2090624999837,
      "v": 73
    },
    {
      "midi": 59,
      "hit": false,
      "t": 294361.3509375022,
      "d": 349.8928125000093,
      "v": 82
    },
    {
      "midi": 60,
      "hit": false,
      "t": 294868.82906250225,
      "d": 480.76875000004657,
      "v": 91
    },
    {
      "midi": 64,
      "hit": false,
      "t": 294871.50000000227,
      "d": 459.40124999999534,
      "v": 63
    },
    {
      "midi": 72,
      "hit": false,
      "t": 294871.50000000227,
      "d": 470.08500000002095,
      "v": 82
    },
    {
      "midi": 67,
      "hit": false,
      "t": 294871.50000000227,
      "d": 478.0978125000256,
      "v": 73
    },
    {
      "midi": 69,
      "hit": false,
      "t": 295638.0590625023,
      "d": 280.44843750004657,
      "v": 73
    },
    {
      "midi": 64,
      "hit": false,
      "t": 295638.0590625023,
      "d": 293.8031250000349,
      "v": 82
    },
    {
      "midi": 65,
      "hit": false,
      "t": 295640.7300000023,
      "d": 285.79031250003027,
      "v": 73
    },
    {
      "midi": 76,
      "hit": false,
      "t": 295643.40093750233,
      "d": 245.72625000000698,
      "v": 67
    },
    {
      "midi": 72,
      "hit": false,
      "t": 295646.07187500235,
      "d": 315.17062499996973,
      "v": 73
    },
    {
      "midi": 65,
      "hit": false,
      "t": 296030.68687500234,
      "d": 331.19624999997905,
      "v": 64
    },
    {
      "midi": 69,
      "hit": false,
      "t": 296033.35781250236,
      "d": 323.1834374999744,
      "v": 91
    },
    {
      "midi": 62,
      "hit": false,
      "t": 296033.35781250236,
      "d": 331.19624999997905,
      "v": 91
    },
    {
      "midi": 74,
      "hit": false,
      "t": 296033.35781250236,
      "d": 347.22187499998836,
      "v": 82
    },
    {
      "midi": 60,
      "hit": false,
      "t": 296409.96000000235,
      "d": 64.10250000003725,
      "v": 82
    },
    {
      "midi": 72,
      "hit": false,
      "t": 296412.63093750237,
      "d": 53.41875000001164,
      "v": 73
    },
    {
      "midi": 69,
      "hit": false,
      "t": 296412.63093750237,
      "d": 64.10250000003725,
      "v": 64
    },
    {
      "midi": 65,
      "hit": false,
      "t": 296412.63093750237,
      "d": 66.77343750005821,
      "v": 64
    },
    {
      "midi": 60,
      "hit": false,
      "t": 296663.6990625024,
      "d": 61.4315625000163,
      "v": 82
    },
    {
      "midi": 65,
      "hit": false,
      "t": 296669.0409375024,
      "d": 58.76062500005355,
      "v": 64
    },
    {
      "midi": 69,
      "hit": false,
      "t": 296669.0409375024,
      "d": 66.77343750005821,
      "v": 91
    },
    {
      "midi": 72,
      "hit": false,
      "t": 296671.7118750024,
      "d": 58.76062500005355,
      "v": 73
    },
    {
      "midi": 60,
      "hit": false,
      "t": 296920.10906250245,
      "d": 85.47000000003027,
      "v": 82
    },
    {
      "midi": 65,
      "hit": false,
      "t": 296925.45093750244,
      "d": 61.4315625000163,
      "v": 73
    },
    {
      "midi": 69,
      "hit": false,
      "t": 296925.45093750244,
      "d": 72.11531250004191,
      "v": 82
    },
    {
      "midi": 72,
      "hit": false,
      "t": 296925.45093750244,
      "d": 72.11531250004191,
      "v": 73
    },
    {
      "midi": 62,
      "hit": false,
      "t": 297184.5318750025,
      "d": 128.2050000000163,
      "v": 82
    },
    {
      "midi": 69,
      "hit": false,
      "t": 297184.5318750025,
      "d": 138.8887500000419,
      "v": 82
    },
    {
      "midi": 65,
      "hit": false,
      "t": 297187.2028125025,
      "d": 117.52124999999069,
      "v": 73
    },
    {
      "midi": 74,
      "hit": false,
      "t": 297187.2028125025,
      "d": 122.86312499997439,
      "v": 91
    },
    {
      "midi": 74,
      "hit": false,
      "t": 297689.33906250255,
      "d": 277.7775000000838,
      "v": 82
    },
    {
      "midi": 67,
      "hit": false,
      "t": 297689.33906250255,
      "d": 285.7903125000885,
      "v": 71
    },
    {
      "midi": 62,
      "hit": false,
      "t": 297692.01000000257,
      "d": 309.82875000004424,
      "v": 91
    },
    {
      "midi": 64,
      "hit": false,
      "t": 297694.6809375026,
      "d": 261.7518750000163,
      "v": 63
    },
    {
      "midi": 60,
      "hit": false,
      "t": 298073.9540625026,
      "d": 331.19625000003725,
      "v": 91
    },
    {
      "midi": 67,
      "hit": false,
      "t": 298079.2959375026,
      "d": 309.82875000004424,
      "v": 77
    },
    {
      "midi": 72,
      "hit": false,
      "t": 298079.2959375026,
      "d": 328.5253125000745,
      "v": 82
    },
    {
      "midi": 64,
      "hit": false,
      "t": 298081.9668750026,
      "d": 304.4868750000023,
      "v": 63
    },
    {
      "midi": 64,
      "hit": false,
      "t": 298466.58187500265,
      "d": 347.22187499998836,
      "v": 62
    },
    {
      "midi": 67,
      "hit": false,
      "t": 298466.58187500265,
      "d": 355.234687499993,
      "v": 71
    },
    {
      "midi": 71,
      "hit": false,
      "t": 298466.58187500265,
      "d": 363.2474999999977,
      "v": 73
    },
    {
      "midi": 59,
      "hit": false,
      "t": 298466.58187500265,
      "d": 365.9184375000186,
      "v": 91
    },
    {
      "midi": 64,
      "hit": false,
      "t": 298971.38906250265,
      "d": 400.640625,
      "v": 63
    },
    {
      "midi": 60,
      "hit": false,
      "t": 298971.38906250265,
      "d": 424.67906250001397,
      "v": 82
    },
    {
      "midi": 72,
      "hit": false,
      "t": 298971.38906250265,
      "d": 424.67906250001397,
      "v": 82
    },
    {
      "midi": 67,
      "hit": false,
      "t": 298971.38906250265,
      "d": 427.3500000000349,
      "v": 81
    },
    {
      "midi": 69,
      "hit": false,
      "t": 299735.2771875027,
      "d": 301.8159375000396,
      "v": 73
    },
    {
      "midi": 65,
      "hit": false,
      "t": 299737.94812500273,
      "d": 277.7775000000256,
      "v": 73
    },
    {
      "midi": 72,
      "hit": false,
      "t": 299737.94812500273,
      "d": 285.79031250003027,
      "v": 73
    },
    {
      "midi": 64,
      "hit": false,
      "t": 299737.94812500273,
      "d": 307.1578125000233,
      "v": 91
    },
    {
      "midi": 76,
      "hit": false,
      "t": 299740.61906250275,
      "d": 259.08093749999534,
      "v": 82
    },
    {
      "midi": 69,
      "hit": false,
      "t": 300125.23406250274,
      "d": 315.17062500002794,
      "v": 82
    },
    {
      "midi": 62,
      "hit": false,
      "t": 300130.5759375027,
      "d": 315.17062500002794,
      "v": 82
    },
    {
      "midi": 65,
      "hit": false,
      "t": 300133.24687500275,
      "d": 299.1450000000186,
      "v": 73
    },
    {
      "midi": 74,
      "hit": false,
      "t": 300133.24687500275,
      "d": 317.8415624999907,
      "v": 82
    },
    {
      "midi": 72,
      "hit": false,
      "t": 300507.1781250027,
      "d": 61.4315625000163,
      "v": 82
    },
    {
      "midi": 69,
      "hit": false,
      "t": 300507.1781250027,
      "d": 74.78625000006286,
      "v": 73
    },
    {
      "midi": 65,
      "hit": false,
      "t": 300507.1781250027,
      "d": 80.12812500004657,
      "v": 73
    },
    {
      "midi": 60,
      "hit": false,
      "t": 300509.84906250273,
      "d": 61.4315625000163,
      "v": 82
    },
    {
      "midi": 69,
      "hit": false,
      "t": 300768.9300000028,
      "d": 64.10250000003725,
      "v": 82
    },
    {
      "midi": 65,
      "hit": false,
      "t": 300771.6009375028,
      "d": 53.41875000001164,
      "v": 73
    },
    {
      "midi": 60,
      "hit": false,
      "t": 300771.6009375028,
      "d": 64.10250000003725,
      "v": 82
    },
    {
      "midi": 72,
      "hit": false,
      "t": 300774.2718750028,
      "d": 64.10250000003725,
      "v": 73
    },
    {
      "midi": 69,
      "hit": false,
      "t": 301022.66906250286,
      "d": 74.78624999994645,
      "v": 82
    },
    {
      "midi": 72,
      "hit": false,
      "t": 301028.01093750284,
      "d": 58.76062499999534,
      "v": 82
    },
    {
      "midi": 60,
      "hit": false,
      "t": 301028.01093750284,
      "d": 64.10249999997905,
      "v": 91
    },
    {
      "midi": 65,
      "hit": false,
      "t": 301030.68187500286,
      "d": 69.44437499996275,
      "v": 64
    },
    {
      "midi": 69,
      "hit": false,
      "t": 301279.07906250283,
      "d": 130.87593750003725,
      "v": 81
    },
    {
      "midi": 65,
      "hit": false,
      "t": 301284.4209375028,
      "d": 122.8631250000326,
      "v": 73
    },
    {
      "midi": 62,
      "hit": false,
      "t": 301287.09187500284,
      "d": 80.12812499998836,
      "v": 73
    },
    {
      "midi": 74,
      "hit": false,
      "t": 301287.09187500284,
      "d": 117.52124999999069,
      "v": 82
    },
    {
      "midi": 67,
      "hit": false,
      "t": 301789.2281250029,
      "d": 283.1193750000093,
      "v": 71
    },
    {
      "midi": 64,
      "hit": false,
      "t": 301794.57000000286,
      "d": 240.38437500002328,
      "v": 63
    },
    {
      "midi": 74,
      "hit": false,
      "t": 301797.2409375029,
      "d": 245.72625000000698,
      "v": 73
    },
    {
      "midi": 62,
      "hit": false,
      "t": 301797.2409375029,
      "d": 269.76468750002095,
      "v": 91
    },
    {
      "midi": 67,
      "hit": false,
      "t": 302179.1850000029,
      "d": 293.8031249999767,
      "v": 74
    },
    {
      "midi": 64,
      "hit": false,
      "t": 302179.1850000029,
      "d": 299.1449999999604,
      "v": 63
    },
    {
      "midi": 60,
      "hit": false,
      "t": 302179.1850000029,
      "d": 312.4996874999488,
      "v": 82
    },
    {
      "midi": 72,
      "hit": false,
      "t": 302179.1850000029,
      "d": 328.5253124999581,
      "v": 79
    },
    {
      "midi": 59,
      "hit": false,
      "t": 302569.1418750029,
      "d": 336.53812500002095,
      "v": 82
    },
    {
      "midi": 64,
      "hit": false,
      "t": 302571.8128125029,
      "d": 304.4868750000023,
      "v": 54
    },
    {
      "midi": 67,
      "hit": false,
      "t": 302571.8128125029,
      "d": 339.2090624999837,
      "v": 74
    },
    {
      "midi": 71,
      "hit": false,
      "t": 302571.8128125029,
      "d": 339.2090624999837,
      "v": 73
    },
    {
      "midi": 64,
      "hit": false,
      "t": 303076.6200000029,
      "d": 357.90562500001397,
      "v": 63
    },
    {
      "midi": 60,
      "hit": false,
      "t": 303076.6200000029,
      "d": 395.2987500000163,
      "v": 82
    },
    {
      "midi": 67,
      "hit": false,
      "t": 303079.2909375029,
      "d": 381.94406249996973,
      "v": 74
    },
    {
      "midi": 72,
      "hit": false,
      "t": 303079.2909375029,
      "d": 397.96968749997905,
      "v": 73
    },
    {
      "midi": 65,
      "hit": false,
      "t": 303843.1790625029,
      "d": 285.79031249997206,
      "v": 73
    },
    {
      "midi": 72,
      "hit": false,
      "t": 303843.1790625029,
      "d": 307.1578124999651,
      "v": 82
    },
    {
      "midi": 64,
      "hit": false,
      "t": 303843.1790625029,
      "d": 320.51249999995343,
      "v": 82
    },
    {
      "midi": 76,
      "hit": false,
      "t": 303848.5209375029,
      "d": 264.42281249997905,
      "v": 76
    },
    {
      "midi": 69,
      "hit": false,
      "t": 303848.5209375029,
      "d": 283.1193750000093,
      "v": 73
    },
    {
      "midi": 69,
      "hit": false,
      "t": 304233.1359375029,
      "d": 323.1834375000326,
      "v": 73
    },
    {
      "midi": 74,
      "hit": false,
      "t": 304235.8068750029,
      "d": 328.5253125000163,
      "v": 91
    },
    {
      "midi": 65,
      "hit": false,
      "t": 304238.47781250294,
      "d": 299.1450000000186,
      "v": 64
    },
    {
      "midi": 62,
      "hit": false,
      "t": 304238.47781250294,
      "d": 312.499687500007,
      "v": 82
    },
    {
      "midi": 60,
      "hit": false,
      "t": 304607.0671875029,
      "d": 77.45718750002561,
      "v": 82
    },
    {
      "midi": 69,
      "hit": false,
      "t": 304609.73812500294,
      "d": 69.44437500002095,
      "v": 73
    },
    {
      "midi": 65,
      "hit": false,
      "t": 304612.40906250296,
      "d": 77.4571874999674,
      "v": 64
    },
    {
      "midi": 72,
      "hit": false,
      "t": 304617.75093750295,
      "d": 50.74781249999069,
      "v": 64
    },
    {
      "midi": 60,
      "hit": false,
      "t": 304866.1481250029,
      "d": 64.10250000003725,
      "v": 81
    },
    {
      "midi": 72,
      "hit": false,
      "t": 304868.81906250294,
      "d": 58.76062499999534,
      "v": 73
    },
    {
      "midi": 65,
      "hit": false,
      "t": 304868.81906250294,
      "d": 61.4315625000163,
      "v": 73
    },
    {
      "midi": 69,
      "hit": false,
      "t": 304868.81906250294,
      "d": 64.10250000003725,
      "v": 91
    },
    {
      "midi": 60,
      "hit": false,
      "t": 305122.55812500295,
      "d": 66.7734375,
      "v": 86
    },
    {
      "midi": 69,
      "hit": false,
      "t": 305125.229062503,
      "d": 64.10249999997905,
      "v": 82
    },
    {
      "midi": 72,
      "hit": false,
      "t": 305125.229062503,
      "d": 64.10249999997905,
      "v": 73
    },
    {
      "midi": 65,
      "hit": false,
      "t": 305130.57093750295,
      "d": 66.7734375,
      "v": 73
    },
    {
      "midi": 65,
      "hit": false,
      "t": 305386.9809375029,
      "d": 138.8887500000419,
      "v": 56
    },
    {
      "midi": 69,
      "hit": false,
      "t": 305386.9809375029,
      "d": 149.57250000006752,
      "v": 78
    },
    {
      "midi": 74,
      "hit": false,
      "t": 305386.9809375029,
      "d": 160.25625000009313,
      "v": 72
    },
    {
      "midi": 62,
      "hit": false,
      "t": 305389.65187500295,
      "d": 128.2050000000163,
      "v": 86
    },
    {
      "midi": 74,
      "hit": false,
      "t": 305891.78812500305,
      "d": 288.461249999993,
      "v": 78
    },
    {
      "midi": 67,
      "hit": false,
      "t": 305891.78812500305,
      "d": 301.8159375000396,
      "v": 64
    },
    {
      "midi": 62,
      "hit": false,
      "t": 305891.78812500305,
      "d": 333.8671875000582,
      "v": 91
    },
    {
      "midi": 64,
      "hit": false,
      "t": 305894.45906250307,
      "d": 288.461249999993,
      "v": 63
    },
    {
      "midi": 67,
      "hit": false,
      "t": 306287.0868750031,
      "d": 301.8159374999814,
      "v": 73
    },
    {
      "midi": 72,
      "hit": false,
      "t": 306287.0868750031,
      "d": 317.8415624999907,
      "v": 82
    },
    {
      "midi": 64,
      "hit": false,
      "t": 306289.75781250314,
      "d": 293.8031249999767,
      "v": 54
    },
    {
      "midi": 60,
      "hit": false,
      "t": 306289.75781250314,
      "d": 307.1578124999651,
      "v": 91
    },
    {
      "midi": 67,
      "hit": false,
      "t": 306663.6890625031,
      "d": 344.5509374999674,
      "v": 73
    },
    {
      "midi": 64,
      "hit": false,
      "t": 306669.0309375031,
      "d": 339.2090624999837,
      "v": 63
    },
    {
      "midi": 71,
      "hit": false,
      "t": 306669.0309375031,
      "d": 339.2090624999837,
      "v": 73
    },
    {
      "midi": 59,
      "hit": false,
      "t": 306669.0309375031,
      "d": 349.8928125000093,
      "v": 82
    },
    {
      "midi": 60,
      "hit": false,
      "t": 307176.5090625031,
      "d": 480.76875000004657,
      "v": 91
    },
    {
      "midi": 64,
      "hit": false,
      "t": 307179.18000000314,
      "d": 459.40124999999534,
      "v": 63
    },
    {
      "midi": 72,
      "hit": false,
      "t": 307179.18000000314,
      "d": 470.08500000002095,
      "v": 82
    },
    {
      "midi": 67,
      "hit": false,
      "t": 307179.18000000314,
      "d": 478.0978125000256,
      "v": 73
    },
    {
      "midi": 69,
      "hit": false,
      "t": 307945.73906250315,
      "d": 280.44843750004657,
      "v": 73
    },
    {
      "midi": 64,
      "hit": false,
      "t": 307945.73906250315,
      "d": 293.8031250000349,
      "v": 82
    },
    {
      "midi": 65,
      "hit": false,
      "t": 307948.4100000032,
      "d": 285.79031250003027,
      "v": 73
    },
    {
      "midi": 76,
      "hit": false,
      "t": 307951.0809375032,
      "d": 245.72625000000698,
      "v": 67
    },
    {
      "midi": 72,
      "hit": false,
      "t": 307953.7518750032,
      "d": 315.17062499996973,
      "v": 73
    },
    {
      "midi": 65,
      "hit": false,
      "t": 308338.3668750032,
      "d": 331.19624999997905,
      "v": 64
    },
    {
      "midi": 69,
      "hit": false,
      "t": 308341.03781250323,
      "d": 323.1834374999744,
      "v": 91
    },
    {
      "midi": 62,
      "hit": false,
      "t": 308341.03781250323,
      "d": 331.19624999997905,
      "v": 91
    },
    {
      "midi": 74,
      "hit": false,
      "t": 308341.03781250323,
      "d": 347.22187499998836,
      "v": 82
    },
    {
      "midi": 60,
      "hit": false,
      "t": 308717.6400000032,
      "d": 64.10250000003725,
      "v": 82
    },
    {
      "midi": 72,
      "hit": false,
      "t": 308720.31093750324,
      "d": 53.41875000001164,
      "v": 73
    },
    {
      "midi": 69,
      "hit": false,
      "t": 308720.31093750324,
      "d": 64.10250000003725,
      "v": 64
    },
    {
      "midi": 65,
      "hit": false,
      "t": 308720.31093750324,
      "d": 66.77343750005821,
      "v": 64
    },
    {
      "midi": 60,
      "hit": false,
      "t": 308971.3790625033,
      "d": 61.4315625000163,
      "v": 82
    },
    {
      "midi": 65,
      "hit": false,
      "t": 308976.72093750327,
      "d": 58.76062500005355,
      "v": 64
    },
    {
      "midi": 69,
      "hit": false,
      "t": 308976.72093750327,
      "d": 66.77343750005821,
      "v": 91
    },
    {
      "midi": 72,
      "hit": false,
      "t": 308979.3918750033,
      "d": 58.76062500005355,
      "v": 73
    },
    {
      "midi": 60,
      "hit": false,
      "t": 309227.7890625033,
      "d": 85.47000000003027,
      "v": 82
    },
    {
      "midi": 65,
      "hit": false,
      "t": 309233.1309375033,
      "d": 61.4315625000163,
      "v": 73
    },
    {
      "midi": 69,
      "hit": false,
      "t": 309233.1309375033,
      "d": 72.11531250004191,
      "v": 82
    },
    {
      "midi": 72,
      "hit": false,
      "t": 309233.1309375033,
      "d": 72.11531250004191,
      "v": 73
    },
    {
      "midi": 62,
      "hit": false,
      "t": 309492.21187500336,
      "d": 128.2050000000163,
      "v": 82
    },
    {
      "midi": 69,
      "hit": false,
      "t": 309492.21187500336,
      "d": 138.8887500000419,
      "v": 82
    },
    {
      "midi": 65,
      "hit": false,
      "t": 309494.8828125034,
      "d": 117.52124999999069,
      "v": 73
    },
    {
      "midi": 74,
      "hit": false,
      "t": 309494.8828125034,
      "d": 122.86312499997439,
      "v": 91
    },
    {
      "midi": 74,
      "hit": false,
      "t": 309997.0190625034,
      "d": 277.7775000000838,
      "v": 82
    },
    {
      "midi": 67,
      "hit": false,
      "t": 309997.0190625034,
      "d": 285.7903125000885,
      "v": 71
    },
    {
      "midi": 62,
      "hit": false,
      "t": 309999.69000000344,
      "d": 309.82875000004424,
      "v": 91
    },
    {
      "midi": 64,
      "hit": false,
      "t": 310002.36093750346,
      "d": 261.7518750000163,
      "v": 63
    },
    {
      "midi": 60,
      "hit": false,
      "t": 310381.63406250346,
      "d": 331.19625000003725,
      "v": 91
    },
    {
      "midi": 67,
      "hit": false,
      "t": 310386.97593750345,
      "d": 309.82875000004424,
      "v": 77
    },
    {
      "midi": 72,
      "hit": false,
      "t": 310386.97593750345,
      "d": 328.5253125000745,
      "v": 82
    },
    {
      "midi": 64,
      "hit": false,
      "t": 310389.64687500347,
      "d": 304.4868750000023,
      "v": 63
    },
    {
      "midi": 64,
      "hit": false,
      "t": 310774.2618750035,
      "d": 347.22187499998836,
      "v": 62
    },
    {
      "midi": 67,
      "hit": false,
      "t": 310774.2618750035,
      "d": 355.234687499993,
      "v": 71
    },
    {
      "midi": 71,
      "hit": false,
      "t": 310774.2618750035,
      "d": 363.2474999999977,
      "v": 73
    },
    {
      "midi": 59,
      "hit": false,
      "t": 310774.2618750035,
      "d": 365.9184375000186,
      "v": 91
    },
    {
      "midi": 64,
      "hit": false,
      "t": 311279.0690625035,
      "d": 400.640625,
      "v": 63
    },
    {
      "midi": 60,
      "hit": false,
      "t": 311279.0690625035,
      "d": 424.67906250001397,
      "v": 82
    },
    {
      "midi": 72,
      "hit": false,
      "t": 311279.0690625035,
      "d": 424.67906250001397,
      "v": 82
    },
    {
      "midi": 67,
      "hit": false,
      "t": 311279.0690625035,
      "d": 427.3500000000349,
      "v": 81
    },
    {
      "midi": 69,
      "hit": false,
      "t": 312042.9571875036,
      "d": 301.8159375000396,
      "v": 73
    },
    {
      "midi": 65,
      "hit": false,
      "t": 312045.6281250036,
      "d": 277.7775000000256,
      "v": 73
    },
    {
      "midi": 72,
      "hit": false,
      "t": 312045.6281250036,
      "d": 285.79031250003027,
      "v": 73
    },
    {
      "midi": 64,
      "hit": false,
      "t": 312045.6281250036,
      "d": 307.1578125000233,
      "v": 91
    },
    {
      "midi": 76,
      "hit": false,
      "t": 312048.2990625036,
      "d": 259.08093749999534,
      "v": 82
    },
    {
      "midi": 69,
      "hit": false,
      "t": 312432.9140625036,
      "d": 315.17062500002794,
      "v": 82
    },
    {
      "midi": 62,
      "hit": false,
      "t": 312438.2559375036,
      "d": 315.17062500002794,
      "v": 82
    },
    {
      "midi": 65,
      "hit": false,
      "t": 312440.9268750036,
      "d": 299.1450000000186,
      "v": 73
    },
    {
      "midi": 74,
      "hit": false,
      "t": 312440.9268750036,
      "d": 317.8415624999907,
      "v": 82
    },
    {
      "midi": 72,
      "hit": false,
      "t": 312814.8581250036,
      "d": 61.4315625000163,
      "v": 82
    },
    {
      "midi": 69,
      "hit": false,
      "t": 312814.8581250036,
      "d": 74.78625000006286,
      "v": 73
    },
    {
      "midi": 65,
      "hit": false,
      "t": 312814.8581250036,
      "d": 80.12812500004657,
      "v": 73
    },
    {
      "midi": 60,
      "hit": false,
      "t": 312817.5290625036,
      "d": 61.4315625000163,
      "v": 82
    },
    {
      "midi": 69,
      "hit": false,
      "t": 313076.61000000365,
      "d": 64.10250000003725,
      "v": 82
    },
    {
      "midi": 65,
      "hit": false,
      "t": 313079.2809375037,
      "d": 53.41875000001164,
      "v": 73
    },
    {
      "midi": 60,
      "hit": false,
      "t": 313079.2809375037,
      "d": 64.10250000003725,
      "v": 82
    },
    {
      "midi": 72,
      "hit": false,
      "t": 313081.9518750037,
      "d": 64.10250000003725,
      "v": 73
    },
    {
      "midi": 69,
      "hit": false,
      "t": 313330.3490625037,
      "d": 74.78624999994645,
      "v": 82
    },
    {
      "midi": 72,
      "hit": false,
      "t": 313335.6909375037,
      "d": 58.76062499999534,
      "v": 82
    },
    {
      "midi": 60,
      "hit": false,
      "t": 313335.6909375037,
      "d": 64.10249999997905,
      "v": 91
    },
    {
      "midi": 65,
      "hit": false,
      "t": 313338.3618750037,
      "d": 69.44437499996275,
      "v": 64
    },
    {
      "midi": 69,
      "hit": false,
      "t": 313586.7590625037,
      "d": 130.87593750003725,
      "v": 81
    },
    {
      "midi": 65,
      "hit": false,
      "t": 313592.1009375037,
      "d": 122.8631250000326,
      "v": 73
    },
    {
      "midi": 62,
      "hit": false,
      "t": 313594.7718750037,
      "d": 80.12812499998836,
      "v": 73
    },
    {
      "midi": 74,
      "hit": false,
      "t": 313594.7718750037,
      "d": 117.52124999999069,
      "v": 82
    },
    {
      "midi": 67,
      "hit": false,
      "t": 314096.90812500374,
      "d": 283.1193750000093,
      "v": 71
    },
    {
      "midi": 64,
      "hit": false,
      "t": 314102.2500000037,
      "d": 240.38437500002328,
      "v": 63
    },
    {
      "midi": 74,
      "hit": false,
      "t": 314104.92093750375,
      "d": 245.72625000000698,
      "v": 73
    },
    {
      "midi": 62,
      "hit": false,
      "t": 314104.92093750375,
      "d": 269.76468750002095,
      "v": 91
    },
    {
      "midi": 67,
      "hit": false,
      "t": 314486.8650000038,
      "d": 293.8031249999767,
      "v": 74
    },
    {
      "midi": 64,
      "hit": false,
      "t": 314486.8650000038,
      "d": 299.1449999999604,
      "v": 63
    },
    {
      "midi": 60,
      "hit": false,
      "t": 314486.8650000038,
      "d": 312.4996874999488,
      "v": 82
    },
    {
      "midi": 72,
      "hit": false,
      "t": 314486.8650000038,
      "d": 328.5253124999581,
      "v": 79
    },
    {
      "midi": 59,
      "hit": false,
      "t": 314876.82187500375,
      "d": 336.53812500002095,
      "v": 82
    },
    {
      "midi": 64,
      "hit": false,
      "t": 314879.49281250377,
      "d": 304.4868750000023,
      "v": 54
    },
    {
      "midi": 67,
      "hit": false,
      "t": 314879.49281250377,
      "d": 339.2090624999837,
      "v": 74
    },
    {
      "midi": 71,
      "hit": false,
      "t": 314879.49281250377,
      "d": 339.2090624999837,
      "v": 73
    },
    {
      "midi": 64,
      "hit": false,
      "t": 315384.3000000038,
      "d": 357.90562500001397,
      "v": 63
    },
    {
      "midi": 60,
      "hit": false,
      "t": 315384.3000000038,
      "d": 395.2987500000163,
      "v": 82
    },
    {
      "midi": 67,
      "hit": false,
      "t": 315386.9709375038,
      "d": 381.94406249996973,
      "v": 74
    },
    {
      "midi": 72,
      "hit": false,
      "t": 315386.9709375038,
      "d": 397.96968749997905,
      "v": 73
    },
    {
      "midi": 65,
      "hit": false,
      "t": 316150.8590625038,
      "d": 285.79031249997206,
      "v": 73
    },
    {
      "midi": 72,
      "hit": false,
      "t": 316150.8590625038,
      "d": 307.1578124999651,
      "v": 82
    },
    {
      "midi": 64,
      "hit": false,
      "t": 316150.8590625038,
      "d": 320.51249999995343,
      "v": 82
    },
    {
      "midi": 76,
      "hit": false,
      "t": 316156.2009375038,
      "d": 264.42281249997905,
      "v": 76
    },
    {
      "midi": 69,
      "hit": false,
      "t": 316156.2009375038,
      "d": 283.1193750000093,
      "v": 73
    },
    {
      "midi": 69,
      "hit": false,
      "t": 316540.81593750376,
      "d": 323.1834375000326,
      "v": 73
    },
    {
      "midi": 74,
      "hit": false,
      "t": 316543.4868750038,
      "d": 328.5253125000163,
      "v": 91
    },
    {
      "midi": 65,
      "hit": false,
      "t": 316546.1578125038,
      "d": 299.1450000000186,
      "v": 64
    },
    {
      "midi": 62,
      "hit": false,
      "t": 316546.1578125038,
      "d": 312.499687500007,
      "v": 82
    },
    {
      "midi": 60,
      "hit": false,
      "t": 316914.7471875038,
      "d": 77.45718750002561,
      "v": 82
    },
    {
      "midi": 69,
      "hit": false,
      "t": 316917.4181250038,
      "d": 69.44437500002095,
      "v": 73
    },
    {
      "midi": 65,
      "hit": false,
      "t": 316920.08906250383,
      "d": 77.4571874999674,
      "v": 64
    },
    {
      "midi": 72,
      "hit": false,
      "t": 316925.4309375038,
      "d": 50.74781249999069,
      "v": 64
    },
    {
      "midi": 60,
      "hit": false,
      "t": 317173.8281250038,
      "d": 64.10250000003725,
      "v": 81
    },
    {
      "midi": 72,
      "hit": false,
      "t": 317176.4990625038,
      "d": 58.76062499999534,
      "v": 73
    },
    {
      "midi": 65,
      "hit": false,
      "t": 317176.4990625038,
      "d": 61.4315625000163,
      "v": 73
    },
    {
      "midi": 69,
      "hit": false,
      "t": 317176.4990625038,
      "d": 64.10250000003725,
      "v": 91
    },
    {
      "midi": 60,
      "hit": false,
      "t": 317430.2381250038,
      "d": 66.7734375,
      "v": 86
    },
    {
      "midi": 69,
      "hit": false,
      "t": 317432.90906250384,
      "d": 64.10249999997905,
      "v": 82
    },
    {
      "midi": 72,
      "hit": false,
      "t": 317432.90906250384,
      "d": 64.10249999997905,
      "v": 73
    },
    {
      "midi": 65,
      "hit": false,
      "t": 317438.2509375038,
      "d": 66.7734375,
      "v": 73
    },
    {
      "midi": 65,
      "hit": false,
      "t": 317694.6609375038,
      "d": 138.8887500000419,
      "v": 56
    },
    {
      "midi": 69,
      "hit": false,
      "t": 317694.6609375038,
      "d": 149.57250000006752,
      "v": 78
    },
    {
      "midi": 74,
      "hit": false,
      "t": 317694.6609375038,
      "d": 160.25625000009313,
      "v": 72
    },
    {
      "midi": 62,
      "hit": false,
      "t": 317697.3318750038,
      "d": 128.2050000000163,
      "v": 86
    },
    {
      "midi": 74,
      "hit": false,
      "t": 318199.4681250039,
      "d": 288.461249999993,
      "v": 78
    },
    {
      "midi": 67,
      "hit": false,
      "t": 318199.4681250039,
      "d": 301.8159375000396,
      "v": 64
    },
    {
      "midi": 62,
      "hit": false,
      "t": 318199.4681250039,
      "d": 333.8671875000582,
      "v": 91
    },
    {
      "midi": 64,
      "hit": false,
      "t": 318202.13906250393,
      "d": 288.461249999993,
      "v": 63
    },
    {
      "midi": 67,
      "hit": false,
      "t": 318594.766875004,
      "d": 301.8159374999814,
      "v": 73
    },
    {
      "midi": 72,
      "hit": false,
      "t": 318594.766875004,
      "d": 317.8415624999907,
      "v": 82
    },
    {
      "midi": 64,
      "hit": false,
      "t": 318597.437812504,
      "d": 293.8031249999767,
      "v": 54
    },
    {
      "midi": 60,
      "hit": false,
      "t": 318597.437812504,
      "d": 307.1578124999651,
      "v": 91
    },
    {
      "midi": 67,
      "hit": false,
      "t": 318971.369062504,
      "d": 344.5509374999674,
      "v": 73
    },
    {
      "midi": 64,
      "hit": false,
      "t": 318976.71093750396,
      "d": 339.2090624999837,
      "v": 63
    },
    {
      "midi": 71,
      "hit": false,
      "t": 318976.71093750396,
      "d": 339.2090624999837,
      "v": 73
    },
    {
      "midi": 59,
      "hit": false,
      "t": 318976.71093750396,
      "d": 349.8928125000093,
      "v": 82
    },
    {
      "midi": 60,
      "hit": false,
      "t": 319484.189062504,
      "d": 480.76875000004657,
      "v": 91
    },
    {
      "midi": 64,
      "hit": false,
      "t": 319486.860000004,
      "d": 459.40124999999534,
      "v": 63
    },
    {
      "midi": 72,
      "hit": false,
      "t": 319486.860000004,
      "d": 470.08500000002095,
      "v": 82
    },
    {
      "midi": 67,
      "hit": false,
      "t": 319486.860000004,
      "d": 478.0978125000256,
      "v": 73
    },
    {
      "midi": 69,
      "hit": false,
      "t": 320253.419062504,
      "d": 280.44843750004657,
      "v": 73
    },
    {
      "midi": 64,
      "hit": false,
      "t": 320253.419062504,
      "d": 293.8031250000349,
      "v": 82
    },
    {
      "midi": 65,
      "hit": false,
      "t": 320256.09000000404,
      "d": 285.79031250003027,
      "v": 73
    },
    {
      "midi": 76,
      "hit": false,
      "t": 320258.76093750406,
      "d": 245.72625000000698,
      "v": 67
    },
    {
      "midi": 72,
      "hit": false,
      "t": 320261.4318750041,
      "d": 315.17062499996973,
      "v": 73
    },
    {
      "midi": 65,
      "hit": false,
      "t": 320646.0468750041,
      "d": 331.19624999997905,
      "v": 64
    },
    {
      "midi": 69,
      "hit": false,
      "t": 320648.7178125041,
      "d": 323.1834374999744,
      "v": 91
    },
    {
      "midi": 62,
      "hit": false,
      "t": 320648.7178125041,
      "d": 331.19624999997905,
      "v": 91
    },
    {
      "midi": 74,
      "hit": false,
      "t": 320648.7178125041,
      "d": 347.22187499998836,
      "v": 82
    },
    {
      "midi": 60,
      "hit": false,
      "t": 321025.3200000041,
      "d": 64.10250000003725,
      "v": 82
    },
    {
      "midi": 72,
      "hit": false,
      "t": 321027.9909375041,
      "d": 53.41875000001164,
      "v": 73
    },
    {
      "midi": 69,
      "hit": false,
      "t": 321027.9909375041,
      "d": 64.10250000003725,
      "v": 64
    },
    {
      "midi": 65,
      "hit": false,
      "t": 321027.9909375041,
      "d": 66.77343750005821,
      "v": 64
    },
    {
      "midi": 60,
      "hit": false,
      "t": 321279.05906250415,
      "d": 61.4315625000163,
      "v": 82
    },
    {
      "midi": 65,
      "hit": false,
      "t": 321284.40093750414,
      "d": 58.76062500005355,
      "v": 64
    },
    {
      "midi": 69,
      "hit": false,
      "t": 321284.40093750414,
      "d": 66.77343750005821,
      "v": 91
    },
    {
      "midi": 72,
      "hit": false,
      "t": 321287.07187500416,
      "d": 58.76062500005355,
      "v": 73
    },
    {
      "midi": 60,
      "hit": false,
      "t": 321535.4690625042,
      "d": 85.47000000003027,
      "v": 82
    },
    {
      "midi": 65,
      "hit": false,
      "t": 321540.81093750417,
      "d": 61.4315625000163,
      "v": 73
    },
    {
      "midi": 69,
      "hit": false,
      "t": 321540.81093750417,
      "d": 72.11531250004191,
      "v": 82
    },
    {
      "midi": 72,
      "hit": false,
      "t": 321540.81093750417,
      "d": 72.11531250004191,
      "v": 73
    },
    {
      "midi": 62,
      "hit": false,
      "t": 321799.8918750042,
      "d": 128.2050000000163,
      "v": 82
    },
    {
      "midi": 69,
      "hit": false,
      "t": 321799.8918750042,
      "d": 138.8887500000419,
      "v": 82
    },
    {
      "midi": 65,
      "hit": false,
      "t": 321802.56281250424,
      "d": 117.52124999999069,
      "v": 73
    },
    {
      "midi": 74,
      "hit": false,
      "t": 321802.56281250424,
      "d": 122.86312499997439,
      "v": 91
    },
    {
      "midi": 74,
      "hit": false,
      "t": 322304.6990625043,
      "d": 277.7775000000838,
      "v": 82
    },
    {
      "midi": 67,
      "hit": false,
      "t": 322304.6990625043,
      "d": 285.7903125000885,
      "v": 71
    },
    {
      "midi": 62,
      "hit": false,
      "t": 322307.3700000043,
      "d": 309.82875000004424,
      "v": 91
    },
    {
      "midi": 64,
      "hit": false,
      "t": 322310.0409375043,
      "d": 261.7518750000163,
      "v": 63
    },
    {
      "midi": 60,
      "hit": false,
      "t": 322689.31406250433,
      "d": 331.19625000003725,
      "v": 91
    },
    {
      "midi": 67,
      "hit": false,
      "t": 322694.6559375043,
      "d": 309.82875000004424,
      "v": 77
    },
    {
      "midi": 72,
      "hit": false,
      "t": 322694.6559375043,
      "d": 328.5253125000745,
      "v": 82
    },
    {
      "midi": 64,
      "hit": false,
      "t": 322697.32687500434,
      "d": 304.4868750000023,
      "v": 63
    },
    {
      "midi": 64,
      "hit": false,
      "t": 323081.9418750044,
      "d": 347.22187499998836,
      "v": 62
    },
    {
      "midi": 67,
      "hit": false,
      "t": 323081.9418750044,
      "d": 355.234687499993,
      "v": 71
    },
    {
      "midi": 71,
      "hit": false,
      "t": 323081.9418750044,
      "d": 363.2474999999977,
      "v": 73
    },
    {
      "midi": 59,
      "hit": false,
      "t": 323081.9418750044,
      "d": 365.9184375000186,
      "v": 91
    },
    {
      "midi": 64,
      "hit": false,
      "t": 323586.7490625044,
      "d": 400.640625,
      "v": 63
    },
    {
      "midi": 60,
      "hit": false,
      "t": 323586.7490625044,
      "d": 424.67906250001397,
      "v": 82
    },
    {
      "midi": 72,
      "hit": false,
      "t": 323586.7490625044,
      "d": 424.67906250001397,
      "v": 82
    },
    {
      "midi": 67,
      "hit": false,
      "t": 323586.7490625044,
      "d": 427.3500000000349,
      "v": 81
    },
    {
      "midi": 69,
      "hit": false,
      "t": 324350.63718750444,
      "d": 301.8159375000396,
      "v": 73
    },
    {
      "midi": 65,
      "hit": false,
      "t": 324353.30812500446,
      "d": 277.7775000000256,
      "v": 73
    },
    {
      "midi": 72,
      "hit": false,
      "t": 324353.30812500446,
      "d": 285.79031250003027,
      "v": 73
    },
    {
      "midi": 64,
      "hit": false,
      "t": 324353.30812500446,
      "d": 307.1578125000233,
      "v": 91
    },
    {
      "midi": 76,
      "hit": false,
      "t": 324355.9790625045,
      "d": 259.08093749999534,
      "v": 82
    },
    {
      "midi": 69,
      "hit": false,
      "t": 324740.5940625045,
      "d": 315.17062500002794,
      "v": 82
    },
    {
      "midi": 62,
      "hit": false,
      "t": 324745.93593750446,
      "d": 315.17062500002794,
      "v": 82
    },
    {
      "midi": 65,
      "hit": false,
      "t": 324748.6068750045,
      "d": 299.1450000000186,
      "v": 73
    },
    {
      "midi": 74,
      "hit": false,
      "t": 324748.6068750045,
      "d": 317.8415624999907,
      "v": 82
    },
    {
      "midi": 72,
      "hit": false,
      "t": 325122.53812500444,
      "d": 61.4315625000163,
      "v": 82
    },
    {
      "midi": 69,
      "hit": false,
      "t": 325122.53812500444,
      "d": 74.78625000006286,
      "v": 73
    },
    {
      "midi": 65,
      "hit": false,
      "t": 325122.53812500444,
      "d": 80.12812500004657,
      "v": 73
    },
    {
      "midi": 60,
      "hit": false,
      "t": 325125.20906250447,
      "d": 61.4315625000163,
      "v": 82
    },
    {
      "midi": 69,
      "hit": false,
      "t": 325384.2900000045,
      "d": 64.10250000003725,
      "v": 82
    },
    {
      "midi": 65,
      "hit": false,
      "t": 325386.96093750454,
      "d": 53.41875000001164,
      "v": 73
    },
    {
      "midi": 60,
      "hit": false,
      "t": 325386.96093750454,
      "d": 64.10250000003725,
      "v": 82
    },
    {
      "midi": 72,
      "hit": false,
      "t": 325389.63187500456,
      "d": 64.10250000003725,
      "v": 73
    },
    {
      "midi": 95,
      "hit": false,
      "t": 325672.75125000457,
      "d": 42.73499999998603,
      "v": 12
    },
    {
      "midi": 96,
      "hit": false,
      "t": 325672.75125000457,
      "d": 64.10249999997905,
      "v": 46
    },
    {
      "midi": 98,
      "hit": false,
      "t": 325702.13156250457,
      "d": 56.08968749997439,
      "v": 42
    },
    {
      "midi": 100,
      "hit": false,
      "t": 325723.49906250456,
      "d": 53.41875000001164,
      "v": 64
    },
    {
      "midi": 101,
      "hit": false,
      "t": 325750.20843750454,
      "d": 48.07687500008615,
      "v": 69
    },
    {
      "midi": 103,
      "hit": false,
      "t": 325766.23406250455,
      "d": 42.735000000102445,
      "v": 72
    },
    {
      "midi": 105,
      "hit": false,
      "t": 325787.6015625046,
      "d": 37.393125000060536,
      "v": 75
    },
    {
      "midi": 107,
      "hit": false,
      "t": 325806.2981250046,
      "d": 29.38031250005588,
      "v": 81
    },
    {
      "midi": 108,
      "hit": false,
      "t": 325851.7040625047,
      "d": 26.709374999976717,
      "v": 17
    },
    {
      "midi": 107,
      "hit": false,
      "t": 325873.0715625047,
      "d": 40.064062499965075,
      "v": 79
    },
    {
      "midi": 105,
      "hit": false,
      "t": 325891.76812500466,
      "d": 40.06406250002328,
      "v": 88
    },
    {
      "midi": 103,
      "hit": false,
      "t": 325905.12281250465,
      "d": 40.06406250002328,
      "v": 81
    },
    {
      "midi": 101,
      "hit": false,
      "t": 325915.8065625047,
      "d": 42.73499999998603,
      "v": 84
    },
    {
      "midi": 100,
      "hit": false,
      "t": 325931.8321875047,
      "d": 34.72218749998137,
      "v": 84
    },
    {
      "midi": 98,
      "hit": false,
      "t": 325939.8450000047,
      "d": 32.05124999996042,
      "v": 84
    },
    {
      "midi": 96,
      "hit": false,
      "t": 325953.1996875047,
      "d": 26.709374999976717,
      "v": 83
    },
    {
      "midi": 95,
      "hit": false,
      "t": 325966.55437500466,
      "d": 40.064062499965075,
      "v": 82
    },
    {
      "midi": 93,
      "hit": false,
      "t": 325979.90906250465,
      "d": 48.07687499996973,
      "v": 81
    },
    {
      "midi": 91,
      "hit": false,
      "t": 325998.6056250046,
      "d": 53.41875000001164,
      "v": 78
    },
    {
      "midi": 89,
      "hit": false,
      "t": 326019.9731250046,
      "d": 56.089687500032596,
      "v": 75
    },
    {
      "midi": 88,
      "hit": false,
      "t": 326041.3406250046,
      "d": 53.41875000006985,
      "v": 73
    },
    {
      "midi": 86,
      "hit": false,
      "t": 326065.3790625046,
      "d": 45.40593750006519,
      "v": 72
    },
    {
      "midi": 84,
      "hit": false,
      "t": 326084.07562500465,
      "d": 53.41875000006985,
      "v": 69
    },
    {
      "midi": 83,
      "hit": false,
      "t": 326105.4431250047,
      "d": 56.089687500032596,
      "v": 69
    },
    {
      "midi": 81,
      "hit": false,
      "t": 326126.8106250047,
      "d": 56.089687500032596,
      "v": 69
    },
    {
      "midi": 67,
      "hit": false,
      "t": 326404.5881250047,
      "d": 283.1193750000093,
      "v": 71
    },
    {
      "midi": 64,
      "hit": false,
      "t": 326409.9300000047,
      "d": 240.38437500002328,
      "v": 63
    },
    {
      "midi": 74,
      "hit": false,
      "t": 326412.6009375047,
      "d": 245.72625000000698,
      "v": 73
    },
    {
      "midi": 62,
      "hit": false,
      "t": 326412.6009375047,
      "d": 269.76468750002095,
      "v": 91
    },
    {
      "midi": 67,
      "hit": false,
      "t": 326794.54500000476,
      "d": 293.8031249999767,
      "v": 74
    },
    {
      "midi": 64,
      "hit": false,
      "t": 326794.54500000476,
      "d": 299.1449999999604,
      "v": 63
    },
    {
      "midi": 60,
      "hit": false,
      "t": 326794.54500000476,
      "d": 312.4996874999488,
      "v": 82
    },
    {
      "midi": 72,
      "hit": false,
      "t": 326794.54500000476,
      "d": 328.5253124999581,
      "v": 79
    },
    {
      "midi": 59,
      "hit": false,
      "t": 327184.50187500473,
      "d": 336.53812500002095,
      "v": 82
    },
    {
      "midi": 64,
      "hit": false,
      "t": 327187.17281250475,
      "d": 304.4868750000023,
      "v": 54
    },
    {
      "midi": 67,
      "hit": false,
      "t": 327187.17281250475,
      "d": 339.2090624999837,
      "v": 74
    },
    {
      "midi": 71,
      "hit": false,
      "t": 327187.17281250475,
      "d": 339.2090624999837,
      "v": 73
    },
    {
      "midi": 64,
      "hit": false,
      "t": 327691.98000000475,
      "d": 357.90562500001397,
      "v": 63
    },
    {
      "midi": 60,
      "hit": false,
      "t": 327691.98000000475,
      "d": 395.2987500000163,
      "v": 82
    },
    {
      "midi": 67,
      "hit": false,
      "t": 327694.6509375048,
      "d": 381.94406249996973,
      "v": 74
    },
    {
      "midi": 72,
      "hit": false,
      "t": 327694.6509375048,
      "d": 397.96968749997905,
      "v": 73
    },
    {
      "midi": 65,
      "hit": false,
      "t": 328458.5390625048,
      "d": 285.79031249997206,
      "v": 73
    },
    {
      "midi": 72,
      "hit": false,
      "t": 328458.5390625048,
      "d": 307.1578124999651,
      "v": 82
    },
    {
      "midi": 64,
      "hit": false,
      "t": 328458.5390625048,
      "d": 320.51249999995343,
      "v": 82
    },
    {
      "midi": 76,
      "hit": false,
      "t": 328463.88093750476,
      "d": 264.42281249997905,
      "v": 76
    },
    {
      "midi": 69,
      "hit": false,
      "t": 328463.88093750476,
      "d": 283.1193750000093,
      "v": 73
    },
    {
      "midi": 69,
      "hit": false,
      "t": 328848.49593750475,
      "d": 323.1834375000326,
      "v": 73
    },
    {
      "midi": 74,
      "hit": false,
      "t": 328851.16687500477,
      "d": 328.5253125000163,
      "v": 91
    },
    {
      "midi": 65,
      "hit": false,
      "t": 328853.8378125048,
      "d": 299.1450000000186,
      "v": 64
    },
    {
      "midi": 62,
      "hit": false,
      "t": 328853.8378125048,
      "d": 312.499687500007,
      "v": 82
    },
    {
      "midi": 60,
      "hit": false,
      "t": 329222.42718750477,
      "d": 77.45718750002561,
      "v": 82
    },
    {
      "midi": 69,
      "hit": false,
      "t": 329225.0981250048,
      "d": 69.44437500002095,
      "v": 73
    },
    {
      "midi": 65,
      "hit": false,
      "t": 329227.7690625048,
      "d": 77.4571874999674,
      "v": 64
    },
    {
      "midi": 72,
      "hit": false,
      "t": 329233.1109375048,
      "d": 50.74781249999069,
      "v": 64
    },
    {
      "midi": 60,
      "hit": false,
      "t": 329481.50812500477,
      "d": 64.10250000003725,
      "v": 81
    },
    {
      "midi": 72,
      "hit": false,
      "t": 329484.1790625048,
      "d": 58.76062499999534,
      "v": 73
    },
    {
      "midi": 65,
      "hit": false,
      "t": 329484.1790625048,
      "d": 61.4315625000163,
      "v": 73
    },
    {
      "midi": 69,
      "hit": false,
      "t": 329484.1790625048,
      "d": 64.10250000003725,
      "v": 91
    },
    {
      "midi": 60,
      "hit": false,
      "t": 329737.9181250048,
      "d": 66.7734375,
      "v": 86
    },
    {
      "midi": 69,
      "hit": false,
      "t": 329740.5890625048,
      "d": 64.10249999997905,
      "v": 82
    },
    {
      "midi": 72,
      "hit": false,
      "t": 329740.5890625048,
      "d": 64.10249999997905,
      "v": 73
    },
    {
      "midi": 65,
      "hit": false,
      "t": 329745.9309375048,
      "d": 66.7734375,
      "v": 73
    },
    {
      "midi": 65,
      "hit": false,
      "t": 330002.3409375048,
      "d": 138.8887500000419,
      "v": 56
    },
    {
      "midi": 69,
      "hit": false,
      "t": 330002.3409375048,
      "d": 149.57250000006752,
      "v": 78
    },
    {
      "midi": 74,
      "hit": false,
      "t": 330002.3409375048,
      "d": 160.25625000009313,
      "v": 72
    },
    {
      "midi": 62,
      "hit": false,
      "t": 330005.0118750048,
      "d": 128.2050000000163,
      "v": 86
    },
    {
      "midi": 74,
      "hit": false,
      "t": 330507.1481250049,
      "d": 288.461249999993,
      "v": 78
    },
    {
      "midi": 67,
      "hit": false,
      "t": 330507.1481250049,
      "d": 301.8159375000396,
      "v": 64
    },
    {
      "midi": 62,
      "hit": false,
      "t": 330507.1481250049,
      "d": 333.8671875000582,
      "v": 91
    },
    {
      "midi": 64,
      "hit": false,
      "t": 330509.8190625049,
      "d": 288.461249999993,
      "v": 63
    },
    {
      "midi": 67,
      "hit": false,
      "t": 330902.446875005,
      "d": 301.8159374999814,
      "v": 73
    },
    {
      "midi": 72,
      "hit": false,
      "t": 330902.446875005,
      "d": 317.8415624999907,
      "v": 82
    },
    {
      "midi": 64,
      "hit": false,
      "t": 330905.117812505,
      "d": 293.8031249999767,
      "v": 54
    },
    {
      "midi": 60,
      "hit": false,
      "t": 330905.117812505,
      "d": 307.1578124999651,
      "v": 91
    },
    {
      "midi": 67,
      "hit": false,
      "t": 331279.04906250496,
      "d": 344.5509374999674,
      "v": 73
    },
    {
      "midi": 64,
      "hit": false,
      "t": 331284.39093750494,
      "d": 339.2090624999837,
      "v": 63
    },
    {
      "midi": 71,
      "hit": false,
      "t": 331284.39093750494,
      "d": 339.2090624999837,
      "v": 73
    },
    {
      "midi": 59,
      "hit": false,
      "t": 331284.39093750494,
      "d": 349.8928125000093,
      "v": 82
    },
    {
      "midi": 60,
      "hit": false,
      "t": 331791.86906250496,
      "d": 480.76875000004657,
      "v": 91
    },
    {
      "midi": 64,
      "hit": false,
      "t": 331794.540000005,
      "d": 459.40124999999534,
      "v": 63
    },
    {
      "midi": 72,
      "hit": false,
      "t": 331794.540000005,
      "d": 470.08500000002095,
      "v": 82
    },
    {
      "midi": 67,
      "hit": false,
      "t": 331794.540000005,
      "d": 478.0978125000256,
      "v": 73
    },
    {
      "midi": 69,
      "hit": false,
      "t": 332561.099062505,
      "d": 280.44843750004657,
      "v": 73
    },
    {
      "midi": 64,
      "hit": false,
      "t": 332561.099062505,
      "d": 293.8031250000349,
      "v": 82
    },
    {
      "midi": 65,
      "hit": false,
      "t": 332563.770000005,
      "d": 285.79031250003027,
      "v": 73
    },
    {
      "midi": 76,
      "hit": false,
      "t": 332566.44093750505,
      "d": 245.72625000000698,
      "v": 67
    },
    {
      "midi": 72,
      "hit": false,
      "t": 332569.11187500507,
      "d": 315.17062499996973,
      "v": 73
    },
    {
      "midi": 65,
      "hit": false,
      "t": 332953.72687500506,
      "d": 331.19624999997905,
      "v": 64
    },
    {
      "midi": 69,
      "hit": false,
      "t": 332956.3978125051,
      "d": 323.1834374999744,
      "v": 91
    },
    {
      "midi": 62,
      "hit": false,
      "t": 332956.3978125051,
      "d": 331.19624999997905,
      "v": 91
    },
    {
      "midi": 74,
      "hit": false,
      "t": 332956.3978125051,
      "d": 347.22187499998836,
      "v": 82
    },
    {
      "midi": 60,
      "hit": false,
      "t": 333333.00000000506,
      "d": 64.10250000003725,
      "v": 82
    },
    {
      "midi": 72,
      "hit": false,
      "t": 333335.6709375051,
      "d": 53.41875000001164,
      "v": 73
    },
    {
      "midi": 69,
      "hit": false,
      "t": 333335.6709375051,
      "d": 64.10250000003725,
      "v": 64
    },
    {
      "midi": 65,
      "hit": false,
      "t": 333335.6709375051,
      "d": 66.77343750005821,
      "v": 64
    },
    {
      "midi": 60,
      "hit": false,
      "t": 333586.73906250513,
      "d": 61.4315625000163,
      "v": 82
    },
    {
      "midi": 65,
      "hit": false,
      "t": 333592.0809375051,
      "d": 58.76062500005355,
      "v": 64
    },
    {
      "midi": 69,
      "hit": false,
      "t": 333592.0809375051,
      "d": 66.77343750005821,
      "v": 91
    },
    {
      "midi": 72,
      "hit": false,
      "t": 333594.75187500514,
      "d": 58.76062500005355,
      "v": 73
    },
    {
      "midi": 60,
      "hit": false,
      "t": 333843.14906250517,
      "d": 85.47000000003027,
      "v": 82
    },
    {
      "midi": 65,
      "hit": false,
      "t": 333848.49093750515,
      "d": 61.4315625000163,
      "v": 73
    },
    {
      "midi": 69,
      "hit": false,
      "t": 333848.49093750515,
      "d": 72.11531250004191,
      "v": 82
    },
    {
      "midi": 72,
      "hit": false,
      "t": 333848.49093750515,
      "d": 72.11531250004191,
      "v": 73
    },
    {
      "midi": 62,
      "hit": false,
      "t": 334107.5718750052,
      "d": 128.2050000000163,
      "v": 82
    },
    {
      "midi": 69,
      "hit": false,
      "t": 334107.5718750052,
      "d": 138.8887500000419,
      "v": 82
    },
    {
      "midi": 65,
      "hit": false,
      "t": 334110.2428125052,
      "d": 117.52124999999069,
      "v": 73
    },
    {
      "midi": 74,
      "hit": false,
      "t": 334110.2428125052,
      "d": 122.86312499997439,
      "v": 91
    },
    {
      "midi": 74,
      "hit": false,
      "t": 334612.37906250526,
      "d": 277.7775000000838,
      "v": 82
    },
    {
      "midi": 67,
      "hit": false,
      "t": 334612.37906250526,
      "d": 285.7903125000885,
      "v": 71
    },
    {
      "midi": 62,
      "hit": false,
      "t": 334615.0500000053,
      "d": 309.82875000004424,
      "v": 91
    },
    {
      "midi": 64,
      "hit": false,
      "t": 334617.7209375053,
      "d": 261.7518750000163,
      "v": 63
    },
    {
      "midi": 60,
      "hit": false,
      "t": 334996.9940625053,
      "d": 331.19625000003725,
      "v": 91
    },
    {
      "midi": 67,
      "hit": false,
      "t": 335002.3359375053,
      "d": 309.82875000004424,
      "v": 77
    },
    {
      "midi": 72,
      "hit": false,
      "t": 335002.3359375053,
      "d": 328.5253125000745,
      "v": 82
    },
    {
      "midi": 64,
      "hit": false,
      "t": 335005.0068750053,
      "d": 304.4868750000023,
      "v": 63
    },
    {
      "midi": 64,
      "hit": false,
      "t": 335389.62187500537,
      "d": 347.22187499998836,
      "v": 62
    },
    {
      "midi": 67,
      "hit": false,
      "t": 335389.62187500537,
      "d": 355.234687499993,
      "v": 71
    },
    {
      "midi": 71,
      "hit": false,
      "t": 335389.62187500537,
      "d": 363.2474999999977,
      "v": 73
    },
    {
      "midi": 59,
      "hit": false,
      "t": 335389.62187500537,
      "d": 365.9184375000186,
      "v": 91
    },
    {
      "midi": 64,
      "hit": false,
      "t": 335894.42906250537,
      "d": 400.640625,
      "v": 63
    },
    {
      "midi": 60,
      "hit": false,
      "t": 335894.42906250537,
      "d": 424.67906250001397,
      "v": 82
    },
    {
      "midi": 72,
      "hit": false,
      "t": 335894.42906250537,
      "d": 424.67906250001397,
      "v": 82
    },
    {
      "midi": 67,
      "hit": false,
      "t": 335894.42906250537,
      "d": 427.3500000000349,
      "v": 81
    },
    {
      "midi": 69,
      "hit": false,
      "t": 336658.3171875054,
      "d": 301.8159375000396,
      "v": 73
    },
    {
      "midi": 65,
      "hit": false,
      "t": 336660.98812500545,
      "d": 277.7775000000256,
      "v": 73
    },
    {
      "midi": 72,
      "hit": false,
      "t": 336660.98812500545,
      "d": 285.79031250003027,
      "v": 73
    },
    {
      "midi": 64,
      "hit": false,
      "t": 336660.98812500545,
      "d": 307.1578125000233,
      "v": 91
    },
    {
      "midi": 76,
      "hit": false,
      "t": 336663.65906250547,
      "d": 259.08093749999534,
      "v": 82
    },
    {
      "midi": 69,
      "hit": false,
      "t": 337048.27406250546,
      "d": 315.17062500002794,
      "v": 82
    },
    {
      "midi": 62,
      "hit": false,
      "t": 337053.61593750544,
      "d": 315.17062500002794,
      "v": 82
    },
    {
      "midi": 65,
      "hit": false,
      "t": 337056.28687500546,
      "d": 299.1450000000186,
      "v": 73
    },
    {
      "midi": 74,
      "hit": false,
      "t": 337056.28687500546,
      "d": 317.8415624999907,
      "v": 82
    },
    {
      "midi": 72,
      "hit": false,
      "t": 337430.2181250054,
      "d": 61.4315625000163,
      "v": 82
    },
    {
      "midi": 69,
      "hit": false,
      "t": 337430.2181250054,
      "d": 74.78625000006286,
      "v": 73
    },
    {
      "midi": 65,
      "hit": false,
      "t": 337430.2181250054,
      "d": 80.12812500004657,
      "v": 73
    },
    {
      "midi": 60,
      "hit": false,
      "t": 337432.88906250545,
      "d": 61.4315625000163,
      "v": 82
    },
    {
      "midi": 69,
      "hit": false,
      "t": 337691.9700000055,
      "d": 64.10250000003725,
      "v": 82
    },
    {
      "midi": 65,
      "hit": false,
      "t": 337694.6409375055,
      "d": 53.41875000001164,
      "v": 73
    },
    {
      "midi": 60,
      "hit": false,
      "t": 337694.6409375055,
      "d": 64.10250000003725,
      "v": 82
    },
    {
      "midi": 72,
      "hit": false,
      "t": 337697.31187500554,
      "d": 64.10250000003725,
      "v": 73
    },
    {
      "midi": 69,
      "hit": false,
      "t": 337945.7090625056,
      "d": 74.78624999994645,
      "v": 82
    },
    {
      "midi": 72,
      "hit": false,
      "t": 337951.05093750556,
      "d": 58.76062499999534,
      "v": 82
    },
    {
      "midi": 60,
      "hit": false,
      "t": 337951.05093750556,
      "d": 64.10249999997905,
      "v": 91
    },
    {
      "midi": 65,
      "hit": false,
      "t": 337953.7218750056,
      "d": 69.44437499996275,
      "v": 64
    },
    {
      "midi": 69,
      "hit": false,
      "t": 338202.11906250555,
      "d": 130.87593750003725,
      "v": 81
    },
    {
      "midi": 65,
      "hit": false,
      "t": 338207.46093750553,
      "d": 122.8631250000326,
      "v": 73
    },
    {
      "midi": 62,
      "hit": false,
      "t": 338210.13187500555,
      "d": 80.12812499998836,
      "v": 73
    },
    {
      "midi": 74,
      "hit": false,
      "t": 338210.13187500555,
      "d": 117.52124999999069,
      "v": 82
    },
    {
      "midi": 67,
      "hit": false,
      "t": 338712.2681250056,
      "d": 283.1193750000093,
      "v": 71
    },
    {
      "midi": 64,
      "hit": false,
      "t": 338717.6100000056,
      "d": 240.38437500002328,
      "v": 63
    },
    {
      "midi": 74,
      "hit": false,
      "t": 338720.2809375056,
      "d": 245.72625000000698,
      "v": 73
    },
    {
      "midi": 62,
      "hit": false,
      "t": 338720.2809375056,
      "d": 269.76468750002095,
      "v": 91
    },
    {
      "midi": 67,
      "hit": false,
      "t": 339102.2250000056,
      "d": 293.8031249999767,
      "v": 74
    },
    {
      "midi": 64,
      "hit": false,
      "t": 339102.2250000056,
      "d": 299.1449999999604,
      "v": 63
    },
    {
      "midi": 60,
      "hit": false,
      "t": 339102.2250000056,
      "d": 312.4996874999488,
      "v": 82
    },
    {
      "midi": 72,
      "hit": false,
      "t": 339102.2250000056,
      "d": 328.5253124999581,
      "v": 79
    },
    {
      "midi": 59,
      "hit": false,
      "t": 339492.1818750056,
      "d": 336.53812500002095,
      "v": 82
    },
    {
      "midi": 64,
      "hit": false,
      "t": 339494.8528125056,
      "d": 304.4868750000023,
      "v": 54
    },
    {
      "midi": 67,
      "hit": false,
      "t": 339494.8528125056,
      "d": 339.2090624999837,
      "v": 74
    },
    {
      "midi": 71,
      "hit": false,
      "t": 339494.8528125056,
      "d": 339.2090624999837,
      "v": 73
    },
    {
      "midi": 64,
      "hit": false,
      "t": 339999.6600000056,
      "d": 357.90562500001397,
      "v": 63
    },
    {
      "midi": 60,
      "hit": false,
      "t": 339999.6600000056,
      "d": 395.2987500000163,
      "v": 82
    },
    {
      "midi": 67,
      "hit": false,
      "t": 340002.33093750564,
      "d": 381.94406249996973,
      "v": 74
    },
    {
      "midi": 72,
      "hit": false,
      "t": 340002.33093750564,
      "d": 397.96968749997905,
      "v": 73
    },
    {
      "midi": 65,
      "hit": false,
      "t": 340766.21906250564,
      "d": 285.79031249997206,
      "v": 73
    },
    {
      "midi": 72,
      "hit": false,
      "t": 340766.21906250564,
      "d": 307.1578124999651,
      "v": 82
    },
    {
      "midi": 64,
      "hit": false,
      "t": 340766.21906250564,
      "d": 320.51249999995343,
      "v": 82
    },
    {
      "midi": 76,
      "hit": false,
      "t": 340771.5609375056,
      "d": 264.42281249997905,
      "v": 76
    },
    {
      "midi": 69,
      "hit": false,
      "t": 340771.5609375056,
      "d": 283.1193750000093,
      "v": 73
    },
    {
      "midi": 69,
      "hit": false,
      "t": 341156.1759375056,
      "d": 323.1834375000326,
      "v": 73
    },
    {
      "midi": 74,
      "hit": false,
      "t": 341158.84687500563,
      "d": 328.5253125000163,
      "v": 91
    },
    {
      "midi": 65,
      "hit": false,
      "t": 341161.51781250566,
      "d": 299.1450000000186,
      "v": 64
    },
    {
      "midi": 62,
      "hit": false,
      "t": 341161.51781250566,
      "d": 312.499687500007,
      "v": 82
    },
    {
      "midi": 60,
      "hit": false,
      "t": 341530.10718750564,
      "d": 77.45718750002561,
      "v": 82
    },
    {
      "midi": 69,
      "hit": false,
      "t": 341532.77812500566,
      "d": 69.44437500002095,
      "v": 73
    },
    {
      "midi": 65,
      "hit": false,
      "t": 341535.4490625057,
      "d": 77.4571874999674,
      "v": 64
    },
    {
      "midi": 72,
      "hit": false,
      "t": 341540.79093750566,
      "d": 50.74781249999069,
      "v": 64
    },
    {
      "midi": 60,
      "hit": false,
      "t": 341789.18812500563,
      "d": 64.10250000003725,
      "v": 81
    },
    {
      "midi": 72,
      "hit": false,
      "t": 341791.85906250565,
      "d": 58.76062499999534,
      "v": 73
    },
    {
      "midi": 65,
      "hit": false,
      "t": 341791.85906250565,
      "d": 61.4315625000163,
      "v": 73
    },
    {
      "midi": 69,
      "hit": false,
      "t": 341791.85906250565,
      "d": 64.10250000003725,
      "v": 91
    },
    {
      "midi": 60,
      "hit": false,
      "t": 342045.59812500566,
      "d": 66.7734375,
      "v": 86
    },
    {
      "midi": 69,
      "hit": false,
      "t": 342048.2690625057,
      "d": 64.10249999997905,
      "v": 82
    },
    {
      "midi": 72,
      "hit": false,
      "t": 342048.2690625057,
      "d": 64.10249999997905,
      "v": 73
    },
    {
      "midi": 65,
      "hit": false,
      "t": 342053.61093750567,
      "d": 66.7734375,
      "v": 73
    },
    {
      "midi": 65,
      "hit": false,
      "t": 342310.02093750564,
      "d": 138.8887500000419,
      "v": 56
    },
    {
      "midi": 69,
      "hit": false,
      "t": 342310.02093750564,
      "d": 149.57250000006752,
      "v": 78
    },
    {
      "midi": 74,
      "hit": false,
      "t": 342310.02093750564,
      "d": 160.25625000009313,
      "v": 72
    },
    {
      "midi": 62,
      "hit": false,
      "t": 342312.69187500566,
      "d": 128.2050000000163,
      "v": 86
    },
    {
      "midi": 74,
      "hit": false,
      "t": 342814.82812500576,
      "d": 288.461249999993,
      "v": 78
    },
    {
      "midi": 67,
      "hit": false,
      "t": 342814.82812500576,
      "d": 301.8159375000396,
      "v": 64
    },
    {
      "midi": 62,
      "hit": false,
      "t": 342814.82812500576,
      "d": 333.8671875000582,
      "v": 91
    },
    {
      "midi": 64,
      "hit": false,
      "t": 342817.4990625058,
      "d": 288.461249999993,
      "v": 63
    },
    {
      "midi": 67,
      "hit": false,
      "t": 343210.12687500584,
      "d": 301.8159374999814,
      "v": 73
    },
    {
      "midi": 72,
      "hit": false,
      "t": 343210.12687500584,
      "d": 317.8415624999907,
      "v": 82
    },
    {
      "midi": 64,
      "hit": false,
      "t": 343212.79781250586,
      "d": 293.8031249999767,
      "v": 54
    },
    {
      "midi": 60,
      "hit": false,
      "t": 343212.79781250586,
      "d": 307.1578124999651,
      "v": 91
    },
    {
      "midi": 67,
      "hit": false,
      "t": 343586.7290625058,
      "d": 344.5509374999674,
      "v": 73
    },
    {
      "midi": 64,
      "hit": false,
      "t": 343592.0709375058,
      "d": 339.2090624999837,
      "v": 63
    },
    {
      "midi": 71,
      "hit": false,
      "t": 343592.0709375058,
      "d": 339.2090624999837,
      "v": 73
    },
    {
      "midi": 59,
      "hit": false,
      "t": 343592.0709375058,
      "d": 349.8928125000093,
      "v": 82
    },
    {
      "midi": 60,
      "hit": false,
      "t": 344099.54906250583,
      "d": 480.76875000004657,
      "v": 91
    },
    {
      "midi": 64,
      "hit": false,
      "t": 344102.22000000585,
      "d": 459.40124999999534,
      "v": 63
    },
    {
      "midi": 72,
      "hit": false,
      "t": 344102.22000000585,
      "d": 470.08500000002095,
      "v": 82
    },
    {
      "midi": 67,
      "hit": false,
      "t": 344102.22000000585,
      "d": 478.0978125000256,
      "v": 73
    },
    {
      "midi": 69,
      "hit": false,
      "t": 344868.77906250587,
      "d": 280.44843750004657,
      "v": 73
    },
    {
      "midi": 64,
      "hit": false,
      "t": 344868.77906250587,
      "d": 293.8031250000349,
      "v": 82
    },
    {
      "midi": 65,
      "hit": false,
      "t": 344871.4500000059,
      "d": 285.79031250003027,
      "v": 73
    },
    {
      "midi": 76,
      "hit": false,
      "t": 344874.1209375059,
      "d": 245.72625000000698,
      "v": 67
    },
    {
      "midi": 72,
      "hit": false,
      "t": 344876.79187500593,
      "d": 315.17062499996973,
      "v": 73
    },
    {
      "midi": 65,
      "hit": false,
      "t": 345261.4068750059,
      "d": 331.19624999997905,
      "v": 64
    },
    {
      "midi": 69,
      "hit": false,
      "t": 345264.07781250594,
      "d": 323.1834374999744,
      "v": 91
    },
    {
      "midi": 62,
      "hit": false,
      "t": 345264.07781250594,
      "d": 331.19624999997905,
      "v": 91
    },
    {
      "midi": 74,
      "hit": false,
      "t": 345264.07781250594,
      "d": 347.22187499998836,
      "v": 82
    },
    {
      "midi": 60,
      "hit": false,
      "t": 345640.68000000593,
      "d": 64.10250000003725,
      "v": 82
    },
    {
      "midi": 72,
      "hit": false,
      "t": 345643.35093750595,
      "d": 53.41875000001164,
      "v": 73
    },
    {
      "midi": 69,
      "hit": false,
      "t": 345643.35093750595,
      "d": 64.10250000003725,
      "v": 64
    },
    {
      "midi": 65,
      "hit": false,
      "t": 345643.35093750595,
      "d": 66.77343750005821,
      "v": 64
    },
    {
      "midi": 60,
      "hit": false,
      "t": 345894.419062506,
      "d": 61.4315625000163,
      "v": 82
    },
    {
      "midi": 65,
      "hit": false,
      "t": 345899.760937506,
      "d": 58.76062500005355,
      "v": 64
    },
    {
      "midi": 69,
      "hit": false,
      "t": 345899.760937506,
      "d": 66.77343750005821,
      "v": 91
    },
    {
      "midi": 72,
      "hit": false,
      "t": 345902.431875006,
      "d": 58.76062500005355,
      "v": 73
    },
    {
      "midi": 60,
      "hit": false,
      "t": 346150.82906250603,
      "d": 85.47000000003027,
      "v": 82
    },
    {
      "midi": 65,
      "hit": false,
      "t": 346156.170937506,
      "d": 61.4315625000163,
      "v": 73
    },
    {
      "midi": 69,
      "hit": false,
      "t": 346156.170937506,
      "d": 72.11531250004191,
      "v": 82
    },
    {
      "midi": 72,
      "hit": false,
      "t": 346156.170937506,
      "d": 72.11531250004191,
      "v": 73
    },
    {
      "midi": 62,
      "hit": false,
      "t": 346415.25187500607,
      "d": 128.2050000000163,
      "v": 82
    },
    {
      "midi": 69,
      "hit": false,
      "t": 346415.25187500607,
      "d": 138.8887500000419,
      "v": 82
    },
    {
      "midi": 65,
      "hit": false,
      "t": 346417.9228125061,
      "d": 117.52124999999069,
      "v": 73
    },
    {
      "midi": 74,
      "hit": false,
      "t": 346417.9228125061,
      "d": 122.86312499997439,
      "v": 91
    },
    {
      "midi": 74,
      "hit": false,
      "t": 346920.05906250613,
      "d": 277.7775000000838,
      "v": 82
    },
    {
      "midi": 67,
      "hit": false,
      "t": 346920.05906250613,
      "d": 285.7903125000885,
      "v": 71
    },
    {
      "midi": 62,
      "hit": false,
      "t": 346922.73000000615,
      "d": 309.82875000004424,
      "v": 91
    },
    {
      "midi": 64,
      "hit": false,
      "t": 346925.4009375062,
      "d": 261.7518750000163,
      "v": 63
    },
    {
      "midi": 60,
      "hit": false,
      "t": 347304.6740625062,
      "d": 331.19625000003725,
      "v": 91
    },
    {
      "midi": 67,
      "hit": false,
      "t": 347310.01593750616,
      "d": 309.82875000004424,
      "v": 77
    },
    {
      "midi": 72,
      "hit": false,
      "t": 347310.01593750616,
      "d": 328.5253125000745,
      "v": 82
    },
    {
      "midi": 64,
      "hit": false,
      "t": 347312.6868750062,
      "d": 304.4868750000023,
      "v": 63
    },
    {
      "midi": 64,
      "hit": false,
      "t": 347697.30187500623,
      "d": 347.22187499998836,
      "v": 62
    },
    {
      "midi": 67,
      "hit": false,
      "t": 347697.30187500623,
      "d": 355.234687499993,
      "v": 71
    },
    {
      "midi": 71,
      "hit": false,
      "t": 347697.30187500623,
      "d": 363.2474999999977,
      "v": 73
    },
    {
      "midi": 59,
      "hit": false,
      "t": 347697.30187500623,
      "d": 365.9184375000186,
      "v": 91
    },
    {
      "midi": 64,
      "hit": false,
      "t": 348202.10906250624,
      "d": 400.640625,
      "v": 63
    },
    {
      "midi": 60,
      "hit": false,
      "t": 348202.10906250624,
      "d": 424.67906250001397,
      "v": 82
    },
    {
      "midi": 72,
      "hit": false,
      "t": 348202.10906250624,
      "d": 424.67906250001397,
      "v": 82
    },
    {
      "midi": 67,
      "hit": false,
      "t": 348202.10906250624,
      "d": 427.3500000000349,
      "v": 81
    },
    {
      "midi": 69,
      "hit": false,
      "t": 348965.9971875063,
      "d": 301.8159375000396,
      "v": 73
    },
    {
      "midi": 65,
      "hit": false,
      "t": 348968.6681250063,
      "d": 277.7775000000256,
      "v": 73
    },
    {
      "midi": 72,
      "hit": false,
      "t": 348968.6681250063,
      "d": 285.79031250003027,
      "v": 73
    },
    {
      "midi": 64,
      "hit": false,
      "t": 348968.6681250063,
      "d": 307.1578125000233,
      "v": 91
    },
    {
      "midi": 76,
      "hit": false,
      "t": 348971.33906250633,
      "d": 259.08093749999534,
      "v": 82
    },
    {
      "midi": 69,
      "hit": false,
      "t": 349355.9540625063,
      "d": 315.17062500002794,
      "v": 82
    },
    {
      "midi": 62,
      "hit": false,
      "t": 349361.2959375063,
      "d": 315.17062500002794,
      "v": 82
    },
    {
      "midi": 65,
      "hit": false,
      "t": 349363.9668750063,
      "d": 299.1450000000186,
      "v": 73
    },
    {
      "midi": 74,
      "hit": false,
      "t": 349363.9668750063,
      "d": 317.8415624999907,
      "v": 82
    },
    {
      "midi": 72,
      "hit": false,
      "t": 349737.8981250063,
      "d": 61.4315625000163,
      "v": 82
    },
    {
      "midi": 69,
      "hit": false,
      "t": 349737.8981250063,
      "d": 74.78625000006286,
      "v": 73
    },
    {
      "midi": 65,
      "hit": false,
      "t": 349737.8981250063,
      "d": 80.12812500004657,
      "v": 73
    },
    {
      "midi": 60,
      "hit": false,
      "t": 349740.5690625063,
      "d": 61.4315625000163,
      "v": 82
    },
    {
      "midi": 69,
      "hit": false,
      "t": 349999.65000000637,
      "d": 64.10250000003725,
      "v": 82
    },
    {
      "midi": 65,
      "hit": false,
      "t": 350002.3209375064,
      "d": 53.41875000001164,
      "v": 73
    },
    {
      "midi": 60,
      "hit": false,
      "t": 350002.3209375064,
      "d": 64.10250000003725,
      "v": 82
    },
    {
      "midi": 72,
      "hit": false,
      "t": 350004.9918750064,
      "d": 64.10250000003725,
      "v": 73
    },
    {
      "midi": 69,
      "hit": false,
      "t": 350253.38906250644,
      "d": 74.78624999994645,
      "v": 82
    },
    {
      "midi": 72,
      "hit": false,
      "t": 350258.7309375064,
      "d": 58.76062499999534,
      "v": 82
    },
    {
      "midi": 60,
      "hit": false,
      "t": 350258.7309375064,
      "d": 64.10249999997905,
      "v": 91
    },
    {
      "midi": 65,
      "hit": false,
      "t": 350261.40187500644,
      "d": 69.44437499996275,
      "v": 64
    },
    {
      "midi": 69,
      "hit": false,
      "t": 350509.7990625064,
      "d": 130.87593750003725,
      "v": 81
    },
    {
      "midi": 65,
      "hit": false,
      "t": 350515.1409375064,
      "d": 122.8631250000326,
      "v": 73
    },
    {
      "midi": 62,
      "hit": false,
      "t": 350517.8118750064,
      "d": 80.12812499998836,
      "v": 73
    },
    {
      "midi": 74,
      "hit": false,
      "t": 350517.8118750064,
      "d": 117.52124999999069,
      "v": 82
    },
    {
      "midi": 67,
      "hit": false,
      "t": 351019.94812500646,
      "d": 283.1193750000093,
      "v": 71
    },
    {
      "midi": 64,
      "hit": false,
      "t": 351025.29000000644,
      "d": 240.38437500002328,
      "v": 63
    },
    {
      "midi": 74,
      "hit": false,
      "t": 351027.96093750646,
      "d": 245.72625000000698,
      "v": 73
    },
    {
      "midi": 62,
      "hit": false,
      "t": 351027.96093750646,
      "d": 269.76468750002095,
      "v": 91
    },
    {
      "midi": 67,
      "hit": false,
      "t": 351409.9050000065,
      "d": 293.8031249999767,
      "v": 74
    },
    {
      "midi": 64,
      "hit": false,
      "t": 351409.9050000065,
      "d": 299.1449999999604,
      "v": 63
    },
    {
      "midi": 60,
      "hit": false,
      "t": 351409.9050000065,
      "d": 312.4996874999488,
      "v": 82
    },
    {
      "midi": 72,
      "hit": false,
      "t": 351409.9050000065,
      "d": 328.5253124999581,
      "v": 79
    },
    {
      "midi": 59,
      "hit": false,
      "t": 351799.86187500646,
      "d": 336.53812500002095,
      "v": 82
    },
    {
      "midi": 64,
      "hit": false,
      "t": 351802.5328125065,
      "d": 304.4868750000023,
      "v": 54
    },
    {
      "midi": 67,
      "hit": false,
      "t": 351802.5328125065,
      "d": 339.2090624999837,
      "v": 74
    },
    {
      "midi": 71,
      "hit": false,
      "t": 351802.5328125065,
      "d": 339.2090624999837,
      "v": 73
    },
    {
      "midi": 64,
      "hit": false,
      "t": 352307.3400000065,
      "d": 357.90562500001397,
      "v": 63
    },
    {
      "midi": 60,
      "hit": false,
      "t": 352307.3400000065,
      "d": 395.2987500000163,
      "v": 82
    },
    {
      "midi": 67,
      "hit": false,
      "t": 352310.0109375065,
      "d": 381.94406249996973,
      "v": 74
    },
    {
      "midi": 72,
      "hit": false,
      "t": 352310.0109375065,
      "d": 397.96968749997905,
      "v": 73
    },
    {
      "midi": 65,
      "hit": false,
      "t": 353073.8990625065,
      "d": 285.79031249997206,
      "v": 73
    },
    {
      "midi": 72,
      "hit": false,
      "t": 353073.8990625065,
      "d": 307.1578124999651,
      "v": 82
    },
    {
      "midi": 64,
      "hit": false,
      "t": 353073.8990625065,
      "d": 320.51249999995343,
      "v": 82
    },
    {
      "midi": 76,
      "hit": false,
      "t": 353079.2409375065,
      "d": 264.42281249997905,
      "v": 76
    },
    {
      "midi": 69,
      "hit": false,
      "t": 353079.2409375065,
      "d": 283.1193750000093,
      "v": 73
    },
    {
      "midi": 69,
      "hit": false,
      "t": 353463.8559375065,
      "d": 323.1834375000326,
      "v": 73
    },
    {
      "midi": 74,
      "hit": false,
      "t": 353466.5268750065,
      "d": 328.5253125000163,
      "v": 91
    },
    {
      "midi": 65,
      "hit": false,
      "t": 353469.1978125065,
      "d": 299.1450000000186,
      "v": 64
    },
    {
      "midi": 62,
      "hit": false,
      "t": 353469.1978125065,
      "d": 312.499687500007,
      "v": 82
    },
    {
      "midi": 60,
      "hit": false,
      "t": 353837.7871875065,
      "d": 77.45718750002561,
      "v": 82
    },
    {
      "midi": 69,
      "hit": false,
      "t": 353840.4581250065,
      "d": 69.44437500002095,
      "v": 73
    },
    {
      "midi": 65,
      "hit": false,
      "t": 353843.12906250654,
      "d": 77.4571874999674,
      "v": 64
    },
    {
      "midi": 72,
      "hit": false,
      "t": 353848.4709375065,
      "d": 50.74781249999069,
      "v": 64
    },
    {
      "midi": 60,
      "hit": false,
      "t": 354096.8681250065,
      "d": 64.10250000003725,
      "v": 81
    },
    {
      "midi": 72,
      "hit": false,
      "t": 354099.5390625065,
      "d": 58.76062499999534,
      "v": 73
    },
    {
      "midi": 65,
      "hit": false,
      "t": 354099.5390625065,
      "d": 61.4315625000163,
      "v": 73
    },
    {
      "midi": 69,
      "hit": false,
      "t": 354099.5390625065,
      "d": 64.10250000003725,
      "v": 91
    },
    {
      "midi": 60,
      "hit": false,
      "t": 354353.27812500653,
      "d": 66.7734375,
      "v": 86
    },
    {
      "midi": 69,
      "hit": false,
      "t": 354355.94906250655,
      "d": 64.10249999997905,
      "v": 82
    },
    {
      "midi": 72,
      "hit": false,
      "t": 354355.94906250655,
      "d": 64.10249999997905,
      "v": 73
    },
    {
      "midi": 65,
      "hit": false,
      "t": 354361.29093750654,
      "d": 66.7734375,
      "v": 73
    },
    {
      "midi": 65,
      "hit": false,
      "t": 354617.7009375065,
      "d": 138.8887500000419,
      "v": 56
    },
    {
      "midi": 69,
      "hit": false,
      "t": 354617.7009375065,
      "d": 149.57250000006752,
      "v": 78
    },
    {
      "midi": 74,
      "hit": false,
      "t": 354617.7009375065,
      "d": 160.25625000009313,
      "v": 72
    },
    {
      "midi": 62,
      "hit": false,
      "t": 354620.37187500653,
      "d": 128.2050000000163,
      "v": 86
    },
    {
      "midi": 74,
      "hit": false,
      "t": 355122.5081250066,
      "d": 288.461249999993,
      "v": 78
    },
    {
      "midi": 67,
      "hit": false,
      "t": 355122.5081250066,
      "d": 301.8159375000396,
      "v": 64
    },
    {
      "midi": 62,
      "hit": false,
      "t": 355122.5081250066,
      "d": 333.8671875000582,
      "v": 91
    },
    {
      "midi": 64,
      "hit": false,
      "t": 355125.17906250665,
      "d": 288.461249999993,
      "v": 63
    },
    {
      "midi": 67,
      "hit": false,
      "t": 355517.8068750067,
      "d": 301.8159374999814,
      "v": 73
    },
    {
      "midi": 72,
      "hit": false,
      "t": 355517.8068750067,
      "d": 317.8415624999907,
      "v": 82
    },
    {
      "midi": 64,
      "hit": false,
      "t": 355520.4778125067,
      "d": 293.8031249999767,
      "v": 54
    },
    {
      "midi": 60,
      "hit": false,
      "t": 355520.4778125067,
      "d": 307.1578124999651,
      "v": 91
    },
    {
      "midi": 67,
      "hit": false,
      "t": 355894.4090625067,
      "d": 344.5509374999674,
      "v": 73
    },
    {
      "midi": 64,
      "hit": false,
      "t": 355899.7509375067,
      "d": 339.2090624999837,
      "v": 63
    },
    {
      "midi": 71,
      "hit": false,
      "t": 355899.7509375067,
      "d": 339.2090624999837,
      "v": 73
    },
    {
      "midi": 59,
      "hit": false,
      "t": 355899.7509375067,
      "d": 349.8928125000093,
      "v": 82
    },
    {
      "midi": 60,
      "hit": false,
      "t": 356407.2290625067,
      "d": 480.76875000004657,
      "v": 91
    },
    {
      "midi": 64,
      "hit": false,
      "t": 356409.9000000067,
      "d": 459.40124999999534,
      "v": 63
    },
    {
      "midi": 72,
      "hit": false,
      "t": 356409.9000000067,
      "d": 470.08500000002095,
      "v": 82
    },
    {
      "midi": 67,
      "hit": false,
      "t": 356409.9000000067,
      "d": 478.0978125000256,
      "v": 73
    },
    {
      "midi": 69,
      "hit": false,
      "t": 357176.45906250674,
      "d": 280.44843750004657,
      "v": 73
    },
    {
      "midi": 64,
      "hit": false,
      "t": 357176.45906250674,
      "d": 293.8031250000349,
      "v": 82
    },
    {
      "midi": 65,
      "hit": false,
      "t": 357179.13000000676,
      "d": 285.79031250003027,
      "v": 73
    },
    {
      "midi": 76,
      "hit": false,
      "t": 357181.8009375068,
      "d": 245.72625000000698,
      "v": 67
    },
    {
      "midi": 72,
      "hit": false,
      "t": 357184.4718750068,
      "d": 315.17062499996973,
      "v": 73
    },
    {
      "midi": 65,
      "hit": false,
      "t": 357569.0868750068,
      "d": 331.19624999997905,
      "v": 64
    },
    {
      "midi": 69,
      "hit": false,
      "t": 357571.7578125068,
      "d": 323.1834374999744,
      "v": 91
    },
    {
      "midi": 62,
      "hit": false,
      "t": 357571.7578125068,
      "d": 331.19624999997905,
      "v": 91
    },
    {
      "midi": 74,
      "hit": false,
      "t": 357571.7578125068,
      "d": 347.22187499998836,
      "v": 82
    },
    {
      "midi": 60,
      "hit": false,
      "t": 357948.3600000068,
      "d": 64.10250000003725,
      "v": 82
    },
    {
      "midi": 72,
      "hit": false,
      "t": 357951.0309375068,
      "d": 53.41875000001164,
      "v": 73
    },
    {
      "midi": 69,
      "hit": false,
      "t": 357951.0309375068,
      "d": 64.10250000003725,
      "v": 64
    },
    {
      "midi": 65,
      "hit": false,
      "t": 357951.0309375068,
      "d": 66.77343750005821,
      "v": 64
    },
    {
      "midi": 60,
      "hit": false,
      "t": 358202.09906250687,
      "d": 61.4315625000163,
      "v": 82
    },
    {
      "midi": 65,
      "hit": false,
      "t": 358207.44093750685,
      "d": 58.76062500005355,
      "v": 64
    },
    {
      "midi": 69,
      "hit": false,
      "t": 358207.44093750685,
      "d": 66.77343750005821,
      "v": 91
    },
    {
      "midi": 72,
      "hit": false,
      "t": 358210.11187500687,
      "d": 58.76062500005355,
      "v": 73
    },
    {
      "midi": 60,
      "hit": false,
      "t": 358458.5090625069,
      "d": 85.47000000003027,
      "v": 82
    },
    {
      "midi": 65,
      "hit": false,
      "t": 358463.8509375069,
      "d": 61.4315625000163,
      "v": 73
    },
    {
      "midi": 69,
      "hit": false,
      "t": 358463.8509375069,
      "d": 72.11531250004191,
      "v": 82
    },
    {
      "midi": 72,
      "hit": false,
      "t": 358463.8509375069,
      "d": 72.11531250004191,
      "v": 73
    },
    {
      "midi": 62,
      "hit": false,
      "t": 358722.93187500694,
      "d": 128.2050000000163,
      "v": 82
    },
    {
      "midi": 69,
      "hit": false,
      "t": 358722.93187500694,
      "d": 138.8887500000419,
      "v": 82
    },
    {
      "midi": 65,
      "hit": false,
      "t": 358725.60281250696,
      "d": 117.52124999999069,
      "v": 73
    },
    {
      "midi": 74,
      "hit": false,
      "t": 358725.60281250696,
      "d": 122.86312499997439,
      "v": 91
    },
    {
      "midi": 74,
      "hit": false,
      "t": 359227.739062507,
      "d": 277.7775000000838,
      "v": 82
    },
    {
      "midi": 67,
      "hit": false,
      "t": 359227.739062507,
      "d": 285.7903125000885,
      "v": 71
    },
    {
      "midi": 62,
      "hit": false,
      "t": 359230.410000007,
      "d": 309.82875000004424,
      "v": 91
    },
    {
      "midi": 64,
      "hit": false,
      "t": 359233.08093750704,
      "d": 261.7518750000163,
      "v": 63
    },
    {
      "midi": 60,
      "hit": false,
      "t": 359612.35406250705,
      "d": 331.19625000003725,
      "v": 91
    },
    {
      "midi": 67,
      "hit": false,
      "t": 359617.69593750703,
      "d": 309.82875000004424,
      "v": 77
    },
    {
      "midi": 72,
      "hit": false,
      "t": 359617.69593750703,
      "d": 328.5253125000745,
      "v": 82
    },
    {
      "midi": 64,
      "hit": false,
      "t": 359620.36687500705,
      "d": 304.4868750000023,
      "v": 63
    },
    {
      "midi": 64,
      "hit": false,
      "t": 360004.9818750071,
      "d": 347.22187499998836,
      "v": 62
    },
    {
      "midi": 67,
      "hit": false,
      "t": 360004.9818750071,
      "d": 355.234687499993,
      "v": 71
    },
    {
      "midi": 71,
      "hit": false,
      "t": 360004.9818750071,
      "d": 363.2474999999977,
      "v": 73
    },
    {
      "midi": 59,
      "hit": false,
      "t": 360004.9818750071,
      "d": 365.9184375000186,
      "v": 91
    },
    {
      "midi": 64,
      "hit": false,
      "t": 360509.7890625071,
      "d": 400.640625,
      "v": 63
    },
    {
      "midi": 60,
      "hit": false,
      "t": 360509.7890625071,
      "d": 424.67906250001397,
      "v": 82
    },
    {
      "midi": 72,
      "hit": false,
      "t": 360509.7890625071,
      "d": 424.67906250001397,
      "v": 82
    },
    {
      "midi": 67,
      "hit": false,
      "t": 360509.7890625071,
      "d": 427.3500000000349,
      "v": 81
    },
    {
      "midi": 69,
      "hit": false,
      "t": 361273.67718750716,
      "d": 301.8159375000396,
      "v": 73
    },
    {
      "midi": 65,
      "hit": false,
      "t": 361276.3481250072,
      "d": 277.7775000000256,
      "v": 73
    },
    {
      "midi": 72,
      "hit": false,
      "t": 361276.3481250072,
      "d": 285.79031250003027,
      "v": 73
    },
    {
      "midi": 64,
      "hit": false,
      "t": 361276.3481250072,
      "d": 307.1578125000233,
      "v": 91
    },
    {
      "midi": 76,
      "hit": false,
      "t": 361279.0190625072,
      "d": 259.08093749999534,
      "v": 82
    },
    {
      "midi": 69,
      "hit": false,
      "t": 361663.6340625072,
      "d": 315.17062500002794,
      "v": 82
    },
    {
      "midi": 62,
      "hit": false,
      "t": 361668.9759375072,
      "d": 315.17062500002794,
      "v": 82
    },
    {
      "midi": 65,
      "hit": false,
      "t": 361671.6468750072,
      "d": 299.1450000000186,
      "v": 73
    },
    {
      "midi": 74,
      "hit": false,
      "t": 361671.6468750072,
      "d": 317.8415624999907,
      "v": 82
    },
    {
      "midi": 72,
      "hit": false,
      "t": 362045.57812500716,
      "d": 61.4315625000163,
      "v": 82
    },
    {
      "midi": 69,
      "hit": false,
      "t": 362045.57812500716,
      "d": 74.78625000006286,
      "v": 73
    },
    {
      "midi": 65,
      "hit": false,
      "t": 362045.57812500716,
      "d": 80.12812500004657,
      "v": 73
    },
    {
      "midi": 60,
      "hit": false,
      "t": 362048.2490625072,
      "d": 61.4315625000163,
      "v": 82
    },
    {
      "midi": 69,
      "hit": false,
      "t": 362307.33000000723,
      "d": 64.10250000003725,
      "v": 82
    },
    {
      "midi": 65,
      "hit": false,
      "t": 362310.00093750726,
      "d": 53.41875000001164,
      "v": 73
    },
    {
      "midi": 60,
      "hit": false,
      "t": 362310.00093750726,
      "d": 64.10250000003725,
      "v": 82
    },
    {
      "midi": 72,
      "hit": false,
      "t": 362312.6718750073,
      "d": 64.10250000003725,
      "v": 73
    },
    {
      "midi": 69,
      "hit": false,
      "t": 362561.0690625073,
      "d": 74.78624999994645,
      "v": 82
    },
    {
      "midi": 72,
      "hit": false,
      "t": 362566.4109375073,
      "d": 58.76062499999534,
      "v": 82
    },
    {
      "midi": 60,
      "hit": false,
      "t": 362566.4109375073,
      "d": 64.10249999997905,
      "v": 91
    },
    {
      "midi": 65,
      "hit": false,
      "t": 362569.0818750073,
      "d": 69.44437499996275,
      "v": 64
    },
    {
      "midi": 69,
      "hit": false,
      "t": 362817.4790625073,
      "d": 130.87593750003725,
      "v": 81
    },
    {
      "midi": 65,
      "hit": false,
      "t": 362822.82093750726,
      "d": 122.8631250000326,
      "v": 73
    },
    {
      "midi": 62,
      "hit": false,
      "t": 362825.4918750073,
      "d": 80.12812499998836,
      "v": 73
    },
    {
      "midi": 74,
      "hit": false,
      "t": 362825.4918750073,
      "d": 117.52124999999069,
      "v": 82
    },
    {
      "midi": 67,
      "hit": false,
      "t": 363327.6281250073,
      "d": 283.1193750000093,
      "v": 71
    },
    {
      "midi": 64,
      "hit": false,
      "t": 363332.9700000073,
      "d": 240.38437500002328,
      "v": 63
    },
    {
      "midi": 74,
      "hit": false,
      "t": 363335.6409375073,
      "d": 245.72625000000698,
      "v": 73
    },
    {
      "midi": 62,
      "hit": false,
      "t": 363335.6409375073,
      "d": 269.76468750002095,
      "v": 91
    },
    {
      "midi": 67,
      "hit": false,
      "t": 363717.58500000736,
      "d": 293.8031249999767,
      "v": 74
    },
    {
      "midi": 64,
      "hit": false,
      "t": 363717.58500000736,
      "d": 299.1449999999604,
      "v": 63
    },
    {
      "midi": 60,
      "hit": false,
      "t": 363717.58500000736,
      "d": 312.4996874999488,
      "v": 82
    },
    {
      "midi": 72,
      "hit": false,
      "t": 363717.58500000736,
      "d": 328.5253124999581,
      "v": 79
    },
    {
      "midi": 59,
      "hit": false,
      "t": 364107.54187500733,
      "d": 336.53812500002095,
      "v": 82
    },
    {
      "midi": 64,
      "hit": false,
      "t": 364110.21281250735,
      "d": 304.4868750000023,
      "v": 54
    },
    {
      "midi": 67,
      "hit": false,
      "t": 364110.21281250735,
      "d": 339.2090624999837,
      "v": 74
    },
    {
      "midi": 71,
      "hit": false,
      "t": 364110.21281250735,
      "d": 339.2090624999837,
      "v": 73
    },
    {
      "midi": 64,
      "hit": false,
      "t": 364615.02000000735,
      "d": 357.90562500001397,
      "v": 63
    },
    {
      "midi": 60,
      "hit": false,
      "t": 364615.02000000735,
      "d": 395.2987500000163,
      "v": 82
    },
    {
      "midi": 67,
      "hit": false,
      "t": 364617.6909375074,
      "d": 381.94406249996973,
      "v": 74
    },
    {
      "midi": 72,
      "hit": false,
      "t": 364617.6909375074,
      "d": 397.96968749997905,
      "v": 73
    },
    {
      "midi": 65,
      "hit": false,
      "t": 365381.5790625074,
      "d": 285.79031249997206,
      "v": 73
    },
    {
      "midi": 72,
      "hit": false,
      "t": 365381.5790625074,
      "d": 307.1578124999651,
      "v": 82
    },
    {
      "midi": 64,
      "hit": false,
      "t": 365381.5790625074,
      "d": 320.51249999995343,
      "v": 82
    },
    {
      "midi": 76,
      "hit": false,
      "t": 365386.92093750736,
      "d": 264.42281249997905,
      "v": 76
    },
    {
      "midi": 69,
      "hit": false,
      "t": 365386.92093750736,
      "d": 283.1193750000093,
      "v": 73
    },
    {
      "midi": 69,
      "hit": false,
      "t": 365771.53593750735,
      "d": 323.1834375000326,
      "v": 73
    },
    {
      "midi": 74,
      "hit": false,
      "t": 365774.20687500737,
      "d": 328.5253125000163,
      "v": 91
    },
    {
      "midi": 65,
      "hit": false,
      "t": 365776.8778125074,
      "d": 299.1450000000186,
      "v": 64
    },
    {
      "midi": 62,
      "hit": false,
      "t": 365776.8778125074,
      "d": 312.499687500007,
      "v": 82
    },
    {
      "midi": 60,
      "hit": false,
      "t": 366145.46718750737,
      "d": 77.45718750002561,
      "v": 82
    },
    {
      "midi": 69,
      "hit": false,
      "t": 366148.1381250074,
      "d": 69.44437500002095,
      "v": 73
    },
    {
      "midi": 65,
      "hit": false,
      "t": 366150.8090625074,
      "d": 77.4571874999674,
      "v": 64
    },
    {
      "midi": 72,
      "hit": false,
      "t": 366156.1509375074,
      "d": 50.74781249999069,
      "v": 64
    },
    {
      "midi": 60,
      "hit": false,
      "t": 366404.54812500736,
      "d": 64.10250000003725,
      "v": 81
    },
    {
      "midi": 72,
      "hit": false,
      "t": 366407.2190625074,
      "d": 58.76062499999534,
      "v": 73
    },
    {
      "midi": 65,
      "hit": false,
      "t": 366407.2190625074,
      "d": 61.4315625000163,
      "v": 73
    },
    {
      "midi": 69,
      "hit": false,
      "t": 366407.2190625074,
      "d": 64.10250000003725,
      "v": 91
    },
    {
      "midi": 60,
      "hit": false,
      "t": 366660.9581250074,
      "d": 66.7734375,
      "v": 86
    },
    {
      "midi": 69,
      "hit": false,
      "t": 366663.6290625074,
      "d": 64.10249999997905,
      "v": 82
    },
    {
      "midi": 72,
      "hit": false,
      "t": 366663.6290625074,
      "d": 64.10249999997905,
      "v": 73
    },
    {
      "midi": 65,
      "hit": false,
      "t": 366668.9709375074,
      "d": 66.7734375,
      "v": 73
    },
    {
      "midi": 65,
      "hit": false,
      "t": 366925.3809375074,
      "d": 138.8887500000419,
      "v": 56
    },
    {
      "midi": 69,
      "hit": false,
      "t": 366925.3809375074,
      "d": 149.57250000006752,
      "v": 78
    },
    {
      "midi": 74,
      "hit": false,
      "t": 366925.3809375074,
      "d": 160.25625000009313,
      "v": 72
    },
    {
      "midi": 62,
      "hit": false,
      "t": 366928.0518750074,
      "d": 128.2050000000163,
      "v": 86
    },
    {
      "midi": 74,
      "hit": false,
      "t": 367430.1881250075,
      "d": 288.461249999993,
      "v": 78
    },
    {
      "midi": 67,
      "hit": false,
      "t": 367430.1881250075,
      "d": 301.8159375000396,
      "v": 64
    },
    {
      "midi": 62,
      "hit": false,
      "t": 367430.1881250075,
      "d": 333.8671875000582,
      "v": 91
    },
    {
      "midi": 64,
      "hit": false,
      "t": 367432.8590625075,
      "d": 288.461249999993,
      "v": 63
    },
    {
      "midi": 67,
      "hit": false,
      "t": 367825.48687500757,
      "d": 301.8159374999814,
      "v": 73
    },
    {
      "midi": 72,
      "hit": false,
      "t": 367825.48687500757,
      "d": 317.8415624999907,
      "v": 82
    },
    {
      "midi": 64,
      "hit": false,
      "t": 367828.1578125076,
      "d": 293.8031249999767,
      "v": 54
    },
    {
      "midi": 60,
      "hit": false,
      "t": 367828.1578125076,
      "d": 307.1578124999651,
      "v": 91
    },
    {
      "midi": 67,
      "hit": false,
      "t": 368202.08906250756,
      "d": 344.5509374999674,
      "v": 73
    },
    {
      "midi": 64,
      "hit": false,
      "t": 368207.43093750754,
      "d": 339.2090624999837,
      "v": 63
    },
    {
      "midi": 71,
      "hit": false,
      "t": 368207.43093750754,
      "d": 339.2090624999837,
      "v": 73
    },
    {
      "midi": 59,
      "hit": false,
      "t": 368207.43093750754,
      "d": 349.8928125000093,
      "v": 82
    },
    {
      "midi": 60,
      "hit": false,
      "t": 368714.90906250756,
      "d": 480.76875000004657,
      "v": 91
    },
    {
      "midi": 64,
      "hit": false,
      "t": 368717.5800000076,
      "d": 459.40124999999534,
      "v": 63
    },
    {
      "midi": 72,
      "hit": false,
      "t": 368717.5800000076,
      "d": 470.08500000002095,
      "v": 82
    },
    {
      "midi": 67,
      "hit": false,
      "t": 368717.5800000076,
      "d": 478.0978125000256,
      "v": 73
    },
    {
      "midi": 69,
      "hit": false,
      "t": 369484.1390625076,
      "d": 280.44843750004657,
      "v": 73
    },
    {
      "midi": 64,
      "hit": false,
      "t": 369484.1390625076,
      "d": 293.8031250000349,
      "v": 82
    },
    {
      "midi": 65,
      "hit": false,
      "t": 369486.8100000076,
      "d": 285.79031250003027,
      "v": 73
    },
    {
      "midi": 76,
      "hit": false,
      "t": 369489.48093750764,
      "d": 245.72625000000698,
      "v": 67
    },
    {
      "midi": 72,
      "hit": false,
      "t": 369492.15187500766,
      "d": 315.17062499996973,
      "v": 73
    },
    {
      "midi": 65,
      "hit": false,
      "t": 369876.76687500766,
      "d": 331.19624999997905,
      "v": 64
    },
    {
      "midi": 69,
      "hit": false,
      "t": 369879.4378125077,
      "d": 323.1834374999744,
      "v": 91
    },
    {
      "midi": 62,
      "hit": false,
      "t": 369879.4378125077,
      "d": 331.19624999997905,
      "v": 91
    },
    {
      "midi": 74,
      "hit": false,
      "t": 369879.4378125077,
      "d": 347.22187499998836,
      "v": 82
    },
    {
      "midi": 60,
      "hit": false,
      "t": 370256.04000000766,
      "d": 64.10250000003725,
      "v": 82
    },
    {
      "midi": 72,
      "hit": false,
      "t": 370258.7109375077,
      "d": 53.41875000001164,
      "v": 73
    },
    {
      "midi": 69,
      "hit": false,
      "t": 370258.7109375077,
      "d": 64.10250000003725,
      "v": 64
    },
    {
      "midi": 65,
      "hit": false,
      "t": 370258.7109375077,
      "d": 66.77343750005821,
      "v": 64
    },
    {
      "midi": 60,
      "hit": false,
      "t": 370509.77906250773,
      "d": 61.4315625000163,
      "v": 82
    },
    {
      "midi": 65,
      "hit": false,
      "t": 370515.1209375077,
      "d": 58.76062500005355,
      "v": 64
    },
    {
      "midi": 69,
      "hit": false,
      "t": 370515.1209375077,
      "d": 66.77343750005821,
      "v": 91
    },
    {
      "midi": 72,
      "hit": false,
      "t": 370517.79187500774,
      "d": 58.76062500005355,
      "v": 73
    },
    {
      "midi": 60,
      "hit": false,
      "t": 370766.18906250776,
      "d": 85.47000000003027,
      "v": 82
    },
    {
      "midi": 65,
      "hit": false,
      "t": 370771.53093750775,
      "d": 61.4315625000163,
      "v": 73
    },
    {
      "midi": 69,
      "hit": false,
      "t": 370771.53093750775,
      "d": 72.11531250004191,
      "v": 82
    },
    {
      "midi": 72,
      "hit": false,
      "t": 370771.53093750775,
      "d": 72.11531250004191,
      "v": 73
    },
    {
      "midi": 62,
      "hit": false,
      "t": 371030.6118750078,
      "d": 128.2050000000163,
      "v": 82
    },
    {
      "midi": 69,
      "hit": false,
      "t": 371030.6118750078,
      "d": 138.8887500000419,
      "v": 82
    },
    {
      "midi": 65,
      "hit": false,
      "t": 371033.2828125078,
      "d": 117.52124999999069,
      "v": 73
    },
    {
      "midi": 74,
      "hit": false,
      "t": 371033.2828125078,
      "d": 122.86312499997439,
      "v": 91
    },
    {
      "midi": 74,
      "hit": false,
      "t": 371535.41906250786,
      "d": 277.7775000000838,
      "v": 82
    },
    {
      "midi": 67,
      "hit": false,
      "t": 371535.41906250786,
      "d": 285.7903125000885,
      "v": 71
    },
    {
      "midi": 62,
      "hit": false,
      "t": 371538.0900000079,
      "d": 309.82875000004424,
      "v": 91
    },
    {
      "midi": 64,
      "hit": false,
      "t": 371540.7609375079,
      "d": 261.7518750000163,
      "v": 63
    },
    {
      "midi": 60,
      "hit": false,
      "t": 371920.0340625079,
      "d": 331.19625000003725,
      "v": 91
    },
    {
      "midi": 67,
      "hit": false,
      "t": 371925.3759375079,
      "d": 309.82875000004424,
      "v": 77
    },
    {
      "midi": 72,
      "hit": false,
      "t": 371925.3759375079,
      "d": 328.5253125000745,
      "v": 82
    },
    {
      "midi": 64,
      "hit": false,
      "t": 371928.0468750079,
      "d": 304.4868750000023,
      "v": 63
    },
    {
      "midi": 64,
      "hit": false,
      "t": 372312.66187500797,
      "d": 347.22187499998836,
      "v": 62
    },
    {
      "midi": 67,
      "hit": false,
      "t": 372312.66187500797,
      "d": 355.234687499993,
      "v": 71
    },
    {
      "midi": 71,
      "hit": false,
      "t": 372312.66187500797,
      "d": 363.2474999999977,
      "v": 73
    },
    {
      "midi": 59,
      "hit": false,
      "t": 372312.66187500797,
      "d": 365.9184375000186,
      "v": 91
    },
    {
      "midi": 64,
      "hit": false,
      "t": 372817.46906250797,
      "d": 400.640625,
      "v": 63
    },
    {
      "midi": 60,
      "hit": false,
      "t": 372817.46906250797,
      "d": 424.67906250001397,
      "v": 82
    },
    {
      "midi": 72,
      "hit": false,
      "t": 372817.46906250797,
      "d": 424.67906250001397,
      "v": 82
    },
    {
      "midi": 67,
      "hit": false,
      "t": 372817.46906250797,
      "d": 427.3500000000349,
      "v": 81
    },
    {
      "midi": 69,
      "hit": false,
      "t": 373581.357187508,
      "d": 301.8159375000396,
      "v": 73
    },
    {
      "midi": 65,
      "hit": false,
      "t": 373584.02812500804,
      "d": 277.7775000000256,
      "v": 73
    },
    {
      "midi": 72,
      "hit": false,
      "t": 373584.02812500804,
      "d": 285.79031250003027,
      "v": 73
    },
    {
      "midi": 64,
      "hit": false,
      "t": 373584.02812500804,
      "d": 307.1578125000233,
      "v": 91
    },
    {
      "midi": 76,
      "hit": false,
      "t": 373586.69906250807,
      "d": 259.08093749999534,
      "v": 82
    },
    {
      "midi": 69,
      "hit": false,
      "t": 373971.31406250806,
      "d": 315.17062500002794,
      "v": 82
    },
    {
      "midi": 62,
      "hit": false,
      "t": 373976.65593750804,
      "d": 315.17062500002794,
      "v": 82
    },
    {
      "midi": 65,
      "hit": false,
      "t": 373979.32687500806,
      "d": 299.1450000000186,
      "v": 73
    },
    {
      "midi": 74,
      "hit": false,
      "t": 373979.32687500806,
      "d": 317.8415624999907,
      "v": 82
    },
    {
      "midi": 72,
      "hit": false,
      "t": 374353.258125008,
      "d": 61.4315625000163,
      "v": 82
    },
    {
      "midi": 69,
      "hit": false,
      "t": 374353.258125008,
      "d": 74.78625000006286,
      "v": 73
    },
    {
      "midi": 65,
      "hit": false,
      "t": 374353.258125008,
      "d": 80.12812500004657,
      "v": 73
    },
    {
      "midi": 60,
      "hit": false,
      "t": 374355.92906250805,
      "d": 61.4315625000163,
      "v": 82
    },
    {
      "midi": 69,
      "hit": false,
      "t": 374615.0100000081,
      "d": 64.10250000003725,
      "v": 82
    },
    {
      "midi": 65,
      "hit": false,
      "t": 374617.6809375081,
      "d": 53.41875000001164,
      "v": 73
    },
    {
      "midi": 60,
      "hit": false,
      "t": 374617.6809375081,
      "d": 64.10250000003725,
      "v": 82
    },
    {
      "midi": 72,
      "hit": false,
      "t": 374620.35187500814,
      "d": 64.10250000003725,
      "v": 73
    },
    {
      "midi": 69,
      "hit": false,
      "t": 374868.74906250817,
      "d": 74.78624999994645,
      "v": 82
    },
    {
      "midi": 72,
      "hit": false,
      "t": 374874.09093750815,
      "d": 58.76062499999534,
      "v": 82
    },
    {
      "midi": 60,
      "hit": false,
      "t": 374874.09093750815,
      "d": 64.10249999997905,
      "v": 91
    },
    {
      "midi": 65,
      "hit": false,
      "t": 374876.7618750082,
      "d": 69.44437499996275,
      "v": 64
    },
    {
      "midi": 69,
      "hit": false,
      "t": 375125.15906250814,
      "d": 130.87593750003725,
      "v": 81
    },
    {
      "midi": 65,
      "hit": false,
      "t": 375130.5009375081,
      "d": 122.8631250000326,
      "v": 73
    },
    {
      "midi": 62,
      "hit": false,
      "t": 375133.17187500815,
      "d": 80.12812499998836,
      "v": 73
    },
    {
      "midi": 74,
      "hit": false,
      "t": 375133.17187500815,
      "d": 117.52124999999069,
      "v": 82
    },
    {
      "midi": 67,
      "hit": false,
      "t": 375635.3081250082,
      "d": 283.1193750000093,
      "v": 71
    },
    {
      "midi": 64,
      "hit": false,
      "t": 375640.6500000082,
      "d": 240.38437500002328,
      "v": 63
    },
    {
      "midi": 74,
      "hit": false,
      "t": 375643.3209375082,
      "d": 245.72625000000698,
      "v": 73
    },
    {
      "midi": 62,
      "hit": false,
      "t": 375643.3209375082,
      "d": 269.76468750002095,
      "v": 91
    },
    {
      "midi": 67,
      "hit": false,
      "t": 376025.2650000082,
      "d": 293.8031249999767,
      "v": 74
    },
    {
      "midi": 64,
      "hit": false,
      "t": 376025.2650000082,
      "d": 299.1449999999604,
      "v": 63
    },
    {
      "midi": 60,
      "hit": false,
      "t": 376025.2650000082,
      "d": 312.4996874999488,
      "v": 82
    },
    {
      "midi": 72,
      "hit": false,
      "t": 376025.2650000082,
      "d": 328.5253124999581,
      "v": 79
    },
    {
      "midi": 59,
      "hit": false,
      "t": 376415.22187500814,
      "d": 336.53812500002095,
      "v": 82
    },
    {
      "midi": 64,
      "hit": false,
      "t": 376417.89281250816,
      "d": 304.4868750000023,
      "v": 54
    },
    {
      "midi": 67,
      "hit": false,
      "t": 376417.89281250816,
      "d": 339.2090624999837,
      "v": 74
    },
    {
      "midi": 71,
      "hit": false,
      "t": 376417.89281250816,
      "d": 339.2090624999837,
      "v": 73
    },
    {
      "midi": 64,
      "hit": false,
      "t": 376922.7000000081,
      "d": 357.9056250000722,
      "v": 63
    },
    {
      "midi": 60,
      "hit": false,
      "t": 376922.7000000081,
      "d": 395.2987500000745,
      "v": 82
    },
    {
      "midi": 67,
      "hit": false,
      "t": 376925.3709375081,
      "d": 381.94406250002794,
      "v": 74
    },
    {
      "midi": 72,
      "hit": false,
      "t": 376925.3709375081,
      "d": 397.96968750003725,
      "v": 73
    },
    {
      "midi": 65,
      "hit": false,
      "t": 377689.2590625081,
      "d": 285.79031250003027,
      "v": 73
    },
    {
      "midi": 72,
      "hit": false,
      "t": 377689.2590625081,
      "d": 307.1578125000233,
      "v": 82
    },
    {
      "midi": 64,
      "hit": false,
      "t": 377689.2590625081,
      "d": 320.51250000001164,
      "v": 82
    },
    {
      "midi": 76,
      "hit": false,
      "t": 377694.6009375081,
      "d": 264.42281250003725,
      "v": 76
    },
    {
      "midi": 69,
      "hit": false,
      "t": 377694.6009375081,
      "d": 283.1193750000675,
      "v": 73
    },
    {
      "midi": 69,
      "hit": false,
      "t": 378079.21593750815,
      "d": 323.1834374999744,
      "v": 73
    },
    {
      "midi": 74,
      "hit": false,
      "t": 378081.8868750082,
      "d": 328.5253124999581,
      "v": 91
    },
    {
      "midi": 65,
      "hit": false,
      "t": 378084.5578125082,
      "d": 299.1449999999604,
      "v": 64
    },
    {
      "midi": 62,
      "hit": false,
      "t": 378084.5578125082,
      "d": 312.4996874999488,
      "v": 82
    },
    {
      "midi": 60,
      "hit": false,
      "t": 378453.1471875081,
      "d": 77.45718750002561,
      "v": 82
    },
    {
      "midi": 69,
      "hit": false,
      "t": 378455.81812500814,
      "d": 69.44437500002095,
      "v": 73
    },
    {
      "midi": 65,
      "hit": false,
      "t": 378458.48906250816,
      "d": 77.4571874999674,
      "v": 64
    },
    {
      "midi": 72,
      "hit": false,
      "t": 378463.83093750814,
      "d": 50.74781249999069,
      "v": 64
    },
    {
      "midi": 60,
      "hit": false,
      "t": 378712.2281250081,
      "d": 64.10250000003725,
      "v": 81
    },
    {
      "midi": 72,
      "hit": false,
      "t": 378714.89906250814,
      "d": 58.76062499999534,
      "v": 73
    },
    {
      "midi": 65,
      "hit": false,
      "t": 378714.89906250814,
      "d": 61.4315625000163,
      "v": 73
    },
    {
      "midi": 69,
      "hit": false,
      "t": 378714.89906250814,
      "d": 64.10250000003725,
      "v": 91
    },
    {
      "midi": 60,
      "hit": false,
      "t": 378968.63812500815,
      "d": 66.7734375,
      "v": 86
    },
    {
      "midi": 69,
      "hit": false,
      "t": 378971.30906250817,
      "d": 64.10249999997905,
      "v": 82
    },
    {
      "midi": 72,
      "hit": false,
      "t": 378971.30906250817,
      "d": 64.10249999997905,
      "v": 73
    },
    {
      "midi": 65,
      "hit": false,
      "t": 378976.65093750815,
      "d": 66.7734375,
      "v": 73
    },
    {
      "midi": 65,
      "hit": false,
      "t": 379233.0609375081,
      "d": 138.8887500000419,
      "v": 56
    },
    {
      "midi": 69,
      "hit": false,
      "t": 379233.0609375081,
      "d": 149.57250000006752,
      "v": 78
    },
    {
      "midi": 74,
      "hit": false,
      "t": 379233.0609375081,
      "d": 160.25625000003492,
      "v": 72
    },
    {
      "midi": 62,
      "hit": false,
      "t": 379235.73187500815,
      "d": 128.2050000000163,
      "v": 86
    },
    {
      "midi": 74,
      "hit": false,
      "t": 379737.8681250082,
      "d": 288.461249999993,
      "v": 78
    },
    {
      "midi": 67,
      "hit": false,
      "t": 379737.8681250082,
      "d": 301.8159375000396,
      "v": 64
    },
    {
      "midi": 62,
      "hit": false,
      "t": 379737.8681250082,
      "d": 333.8671875,
      "v": 91
    },
    {
      "midi": 64,
      "hit": false,
      "t": 379740.5390625082,
      "d": 288.461249999993,
      "v": 63
    },
    {
      "midi": 67,
      "hit": false,
      "t": 380133.1668750082,
      "d": 301.8159374999814,
      "v": 73
    },
    {
      "midi": 72,
      "hit": false,
      "t": 380133.1668750082,
      "d": 317.8415624999907,
      "v": 82
    },
    {
      "midi": 64,
      "hit": false,
      "t": 380135.8378125082,
      "d": 293.8031249999767,
      "v": 54
    },
    {
      "midi": 60,
      "hit": false,
      "t": 380135.8378125082,
      "d": 307.1578124999651,
      "v": 91
    },
    {
      "midi": 67,
      "hit": false,
      "t": 380509.7690625082,
      "d": 344.5509374999674,
      "v": 73
    },
    {
      "midi": 64,
      "hit": false,
      "t": 380515.1109375082,
      "d": 339.2090624999837,
      "v": 63
    },
    {
      "midi": 71,
      "hit": false,
      "t": 380515.1109375082,
      "d": 339.2090624999837,
      "v": 73
    },
    {
      "midi": 59,
      "hit": false,
      "t": 380515.1109375082,
      "d": 349.8928125000093,
      "v": 82
    },
    {
      "midi": 60,
      "hit": false,
      "t": 381022.5890625082,
      "d": 480.76875000004657,
      "v": 91
    },
    {
      "midi": 64,
      "hit": false,
      "t": 381025.2600000082,
      "d": 459.40124999999534,
      "v": 63
    },
    {
      "midi": 72,
      "hit": false,
      "t": 381025.2600000082,
      "d": 470.08500000002095,
      "v": 82
    },
    {
      "midi": 67,
      "hit": false,
      "t": 381025.2600000082,
      "d": 478.0978125000256,
      "v": 73
    },
    {
      "midi": 69,
      "hit": false,
      "t": 381791.81906250824,
      "d": 280.4484375001048,
      "v": 73
    },
    {
      "midi": 64,
      "hit": false,
      "t": 381791.81906250824,
      "d": 293.80312500009313,
      "v": 82
    },
    {
      "midi": 65,
      "hit": false,
      "t": 381794.49000000826,
      "d": 285.7903125000885,
      "v": 73
    },
    {
      "midi": 76,
      "hit": false,
      "t": 381797.1609375083,
      "d": 245.7262500000652,
      "v": 67
    },
    {
      "midi": 72,
      "hit": false,
      "t": 381799.8318750083,
      "d": 315.17062500002794,
      "v": 73
    },
    {
      "midi": 65,
      "hit": false,
      "t": 382184.44687500835,
      "d": 331.19625000003725,
      "v": 64
    },
    {
      "midi": 69,
      "hit": false,
      "t": 382187.11781250837,
      "d": 323.1834375000326,
      "v": 91
    },
    {
      "midi": 62,
      "hit": false,
      "t": 382187.11781250837,
      "d": 331.19625000003725,
      "v": 91
    },
    {
      "midi": 74,
      "hit": false,
      "t": 382187.11781250837,
      "d": 347.22187500004657,
      "v": 82
    },
    {
      "midi": 60,
      "hit": false,
      "t": 382563.7200000084,
      "d": 64.10250000003725,
      "v": 82
    },
    {
      "midi": 72,
      "hit": false,
      "t": 382566.39093750843,
      "d": 53.41875000001164,
      "v": 73
    },
    {
      "midi": 69,
      "hit": false,
      "t": 382566.39093750843,
      "d": 64.10250000003725,
      "v": 64
    },
    {
      "midi": 65,
      "hit": false,
      "t": 382566.39093750843,
      "d": 66.77343750005821,
      "v": 64
    },
    {
      "midi": 60,
      "hit": false,
      "t": 382817.4590625085,
      "d": 61.4315625000163,
      "v": 82
    },
    {
      "midi": 65,
      "hit": false,
      "t": 382822.80093750847,
      "d": 58.76062500005355,
      "v": 64
    },
    {
      "midi": 69,
      "hit": false,
      "t": 382822.80093750847,
      "d": 66.77343750005821,
      "v": 91
    },
    {
      "midi": 72,
      "hit": false,
      "t": 382825.4718750085,
      "d": 58.76062500005355,
      "v": 73
    },
    {
      "midi": 60,
      "hit": false,
      "t": 383073.8690625085,
      "d": 85.47000000003027,
      "v": 82
    },
    {
      "midi": 65,
      "hit": false,
      "t": 383079.2109375085,
      "d": 61.4315625000163,
      "v": 73
    },
    {
      "midi": 69,
      "hit": false,
      "t": 383079.2109375085,
      "d": 72.11531250004191,
      "v": 82
    },
    {
      "midi": 72,
      "hit": false,
      "t": 383079.2109375085,
      "d": 72.11531250004191,
      "v": 73
    },
    {
      "midi": 62,
      "hit": false,
      "t": 383338.29187500855,
      "d": 128.2050000000163,
      "v": 82
    },
    {
      "midi": 69,
      "hit": false,
      "t": 383338.29187500855,
      "d": 138.8887500000419,
      "v": 82
    },
    {
      "midi": 65,
      "hit": false,
      "t": 383340.9628125086,
      "d": 117.52124999999069,
      "v": 73
    },
    {
      "midi": 74,
      "hit": false,
      "t": 383340.9628125086,
      "d": 122.86312499997439,
      "v": 91
    },
    {
      "midi": 74,
      "hit": false,
      "t": 383843.0990625086,
      "d": 277.7775000000838,
      "v": 82
    },
    {
      "midi": 67,
      "hit": false,
      "t": 383843.0990625086,
      "d": 285.7903125000885,
      "v": 71
    },
    {
      "midi": 62,
      "hit": false,
      "t": 383845.77000000863,
      "d": 309.82875000004424,
      "v": 91
    },
    {
      "midi": 64,
      "hit": false,
      "t": 383848.44093750865,
      "d": 261.7518750000163,
      "v": 63
    },
    {
      "midi": 60,
      "hit": false,
      "t": 384227.71406250866,
      "d": 331.19625000003725,
      "v": 91
    },
    {
      "midi": 67,
      "hit": false,
      "t": 384233.05593750865,
      "d": 309.82875000004424,
      "v": 77
    },
    {
      "midi": 72,
      "hit": false,
      "t": 384233.05593750865,
      "d": 328.5253125000745,
      "v": 82
    },
    {
      "midi": 64,
      "hit": false,
      "t": 384235.72687500867,
      "d": 304.4868750000023,
      "v": 63
    },
    {
      "midi": 64,
      "hit": false,
      "t": 384620.3418750087,
      "d": 347.22187500004657,
      "v": 62
    },
    {
      "midi": 67,
      "hit": false,
      "t": 384620.3418750087,
      "d": 355.2346875000512,
      "v": 71
    },
    {
      "midi": 71,
      "hit": false,
      "t": 384620.3418750087,
      "d": 363.2475000000559,
      "v": 73
    },
    {
      "midi": 59,
      "hit": false,
      "t": 384620.3418750087,
      "d": 365.91843750007683,
      "v": 91
    },
    {
      "midi": 64,
      "hit": false,
      "t": 385125.14906250883,
      "d": 400.640625,
      "v": 63
    },
    {
      "midi": 60,
      "hit": false,
      "t": 385125.14906250883,
      "d": 424.67906250001397,
      "v": 82
    },
    {
      "midi": 72,
      "hit": false,
      "t": 385125.14906250883,
      "d": 424.67906250001397,
      "v": 82
    },
    {
      "midi": 67,
      "hit": false,
      "t": 385125.14906250883,
      "d": 427.3500000000349,
      "v": 81
    },
    {
      "midi": 69,
      "hit": false,
      "t": 385889.0371875089,
      "d": 301.8159375000396,
      "v": 73
    },
    {
      "midi": 65,
      "hit": false,
      "t": 385891.7081250089,
      "d": 277.7775000000256,
      "v": 73
    },
    {
      "midi": 72,
      "hit": false,
      "t": 385891.7081250089,
      "d": 285.79031250003027,
      "v": 73
    },
    {
      "midi": 64,
      "hit": false,
      "t": 385891.7081250089,
      "d": 307.1578125000233,
      "v": 91
    },
    {
      "midi": 76,
      "hit": false,
      "t": 385894.37906250893,
      "d": 259.08093749999534,
      "v": 82
    },
    {
      "midi": 69,
      "hit": false,
      "t": 386278.9940625089,
      "d": 315.17062500002794,
      "v": 82
    },
    {
      "midi": 62,
      "hit": false,
      "t": 386284.3359375089,
      "d": 315.17062500002794,
      "v": 82
    },
    {
      "midi": 65,
      "hit": false,
      "t": 386287.0068750089,
      "d": 299.1450000000186,
      "v": 73
    },
    {
      "midi": 74,
      "hit": false,
      "t": 386287.0068750089,
      "d": 317.8415624999907,
      "v": 82
    },
    {
      "midi": 72,
      "hit": false,
      "t": 386660.9381250089,
      "d": 61.4315625000163,
      "v": 82
    },
    {
      "midi": 69,
      "hit": false,
      "t": 386660.9381250089,
      "d": 74.78625000006286,
      "v": 73
    },
    {
      "midi": 65,
      "hit": false,
      "t": 386660.9381250089,
      "d": 80.12812500004657,
      "v": 73
    },
    {
      "midi": 60,
      "hit": false,
      "t": 386663.6090625089,
      "d": 61.4315625000163,
      "v": 82
    },
    {
      "midi": 69,
      "hit": false,
      "t": 386922.6900000089,
      "d": 64.10250000003725,
      "v": 82
    },
    {
      "midi": 65,
      "hit": false,
      "t": 386925.3609375089,
      "d": 53.41875000001164,
      "v": 73
    },
    {
      "midi": 60,
      "hit": false,
      "t": 386925.3609375089,
      "d": 64.10250000003725,
      "v": 82
    },
    {
      "midi": 72,
      "hit": false,
      "t": 386928.03187500895,
      "d": 64.10250000003725,
      "v": 73
    },
    {
      "midi": 69,
      "hit": false,
      "t": 387176.42906250904,
      "d": 74.78624999994645,
      "v": 82
    },
    {
      "midi": 72,
      "hit": false,
      "t": 387181.770937509,
      "d": 58.76062499999534,
      "v": 82
    },
    {
      "midi": 60,
      "hit": false,
      "t": 387181.770937509,
      "d": 64.10249999997905,
      "v": 91
    },
    {
      "midi": 65,
      "hit": false,
      "t": 387184.44187500904,
      "d": 69.44437499996275,
      "v": 64
    },
    {
      "midi": 69,
      "hit": false,
      "t": 387432.839062509,
      "d": 130.87593750003725,
      "v": 81
    },
    {
      "midi": 65,
      "hit": false,
      "t": 387438.180937509,
      "d": 122.8631250000326,
      "v": 73
    },
    {
      "midi": 62,
      "hit": false,
      "t": 387440.851875009,
      "d": 80.12812499998836,
      "v": 73
    },
    {
      "midi": 74,
      "hit": false,
      "t": 387440.851875009,
      "d": 117.52124999999069,
      "v": 82
    },
    {
      "midi": 67,
      "hit": false,
      "t": 387942.988125009,
      "d": 283.1193750000093,
      "v": 71
    },
    {
      "midi": 64,
      "hit": false,
      "t": 387948.330000009,
      "d": 240.38437500002328,
      "v": 63
    },
    {
      "midi": 74,
      "hit": false,
      "t": 387951.000937509,
      "d": 245.72625000000698,
      "v": 73
    },
    {
      "midi": 62,
      "hit": false,
      "t": 387951.000937509,
      "d": 269.76468750002095,
      "v": 91
    },
    {
      "midi": 67,
      "hit": false,
      "t": 388332.945000009,
      "d": 293.8031249999767,
      "v": 74
    },
    {
      "midi": 64,
      "hit": false,
      "t": 388332.945000009,
      "d": 299.1449999999604,
      "v": 63
    },
    {
      "midi": 60,
      "hit": false,
      "t": 388332.945000009,
      "d": 312.4996874999488,
      "v": 82
    },
    {
      "midi": 72,
      "hit": false,
      "t": 388332.945000009,
      "d": 328.5253124999581,
      "v": 79
    },
    {
      "midi": 59,
      "hit": false,
      "t": 388722.90187500895,
      "d": 336.53812500002095,
      "v": 82
    },
    {
      "midi": 64,
      "hit": false,
      "t": 388725.57281250897,
      "d": 304.4868750000023,
      "v": 54
    },
    {
      "midi": 67,
      "hit": false,
      "t": 388725.57281250897,
      "d": 339.2090624999837,
      "v": 74
    },
    {
      "midi": 71,
      "hit": false,
      "t": 388725.57281250897,
      "d": 339.2090624999837,
      "v": 73
    },
    {
      "midi": 64,
      "hit": false,
      "t": 389230.3800000089,
      "d": 357.90562500001397,
      "v": 63
    },
    {
      "midi": 60,
      "hit": false,
      "t": 389230.3800000089,
      "d": 395.2987500000163,
      "v": 82
    },
    {
      "midi": 67,
      "hit": false,
      "t": 389233.05093750893,
      "d": 381.94406249996973,
      "v": 74
    },
    {
      "midi": 72,
      "hit": false,
      "t": 389233.05093750893,
      "d": 397.96968749997905,
      "v": 73
    },
    {
      "midi": 65,
      "hit": false,
      "t": 389996.9390625089,
      "d": 285.79031249997206,
      "v": 73
    },
    {
      "midi": 72,
      "hit": false,
      "t": 389996.9390625089,
      "d": 307.1578124999651,
      "v": 82
    },
    {
      "midi": 64,
      "hit": false,
      "t": 389996.9390625089,
      "d": 320.51249999995343,
      "v": 82
    },
    {
      "midi": 76,
      "hit": false,
      "t": 390002.2809375089,
      "d": 264.42281249997905,
      "v": 76
    },
    {
      "midi": 69,
      "hit": false,
      "t": 390002.2809375089,
      "d": 283.1193750000093,
      "v": 73
    },
    {
      "midi": 69,
      "hit": false,
      "t": 390386.8959375089,
      "d": 323.1834375000326,
      "v": 73
    },
    {
      "midi": 74,
      "hit": false,
      "t": 390389.5668750089,
      "d": 328.5253125000163,
      "v": 91
    },
    {
      "midi": 65,
      "hit": false,
      "t": 390392.23781250895,
      "d": 299.1450000000186,
      "v": 64
    },
    {
      "midi": 62,
      "hit": false,
      "t": 390392.23781250895,
      "d": 312.499687500007,
      "v": 82
    },
    {
      "midi": 60,
      "hit": false,
      "t": 390760.8271875089,
      "d": 77.45718750002561,
      "v": 82
    },
    {
      "midi": 69,
      "hit": false,
      "t": 390763.49812500895,
      "d": 69.44437500002095,
      "v": 73
    },
    {
      "midi": 65,
      "hit": false,
      "t": 390766.16906250897,
      "d": 77.4571874999674,
      "v": 64
    },
    {
      "midi": 72,
      "hit": false,
      "t": 390771.51093750895,
      "d": 50.74781249999069,
      "v": 64
    },
    {
      "midi": 60,
      "hit": false,
      "t": 391019.9081250089,
      "d": 64.10250000003725,
      "v": 81
    },
    {
      "midi": 72,
      "hit": false,
      "t": 391022.57906250894,
      "d": 58.76062499999534,
      "v": 73
    },
    {
      "midi": 65,
      "hit": false,
      "t": 391022.57906250894,
      "d": 61.4315625000163,
      "v": 73
    },
    {
      "midi": 69,
      "hit": false,
      "t": 391022.57906250894,
      "d": 64.10250000003725,
      "v": 91
    },
    {
      "midi": 60,
      "hit": false,
      "t": 391276.318125009,
      "d": 66.7734375,
      "v": 86
    },
    {
      "midi": 69,
      "hit": false,
      "t": 391278.98906250903,
      "d": 64.10249999997905,
      "v": 82
    },
    {
      "midi": 72,
      "hit": false,
      "t": 391278.98906250903,
      "d": 64.10249999997905,
      "v": 73
    },
    {
      "midi": 65,
      "hit": false,
      "t": 391284.330937509,
      "d": 66.7734375,
      "v": 73
    },
    {
      "midi": 65,
      "hit": false,
      "t": 391540.740937509,
      "d": 138.8887500000419,
      "v": 56
    },
    {
      "midi": 69,
      "hit": false,
      "t": 391540.740937509,
      "d": 149.57250000006752,
      "v": 78
    },
    {
      "midi": 74,
      "hit": false,
      "t": 391540.740937509,
      "d": 160.25625000009313,
      "v": 72
    },
    {
      "midi": 62,
      "hit": false,
      "t": 391543.411875009,
      "d": 128.2050000000163,
      "v": 86
    },
    {
      "midi": 74,
      "hit": false,
      "t": 392045.5481250091,
      "d": 288.4612500000512,
      "v": 78
    },
    {
      "midi": 67,
      "hit": false,
      "t": 392045.5481250091,
      "d": 301.8159375000978,
      "v": 64
    },
    {
      "midi": 62,
      "hit": false,
      "t": 392045.5481250091,
      "d": 333.8671875001164,
      "v": 91
    },
    {
      "midi": 64,
      "hit": false,
      "t": 392048.21906250913,
      "d": 288.4612500000512,
      "v": 63
    },
    {
      "midi": 67,
      "hit": false,
      "t": 392440.84687500924,
      "d": 301.8159374999814,
      "v": 73
    },
    {
      "midi": 72,
      "hit": false,
      "t": 392440.84687500924,
      "d": 317.8415624999907,
      "v": 82
    },
    {
      "midi": 64,
      "hit": false,
      "t": 392443.51781250926,
      "d": 293.8031249999767,
      "v": 54
    },
    {
      "midi": 60,
      "hit": false,
      "t": 392443.51781250926,
      "d": 307.1578124999651,
      "v": 91
    },
    {
      "midi": 67,
      "hit": false,
      "t": 392817.44906250923,
      "d": 344.5509375000256,
      "v": 73
    },
    {
      "midi": 64,
      "hit": false,
      "t": 392822.7909375093,
      "d": 339.2090624999837,
      "v": 63
    },
    {
      "midi": 71,
      "hit": false,
      "t": 392822.7909375093,
      "d": 339.2090624999837,
      "v": 73
    },
    {
      "midi": 59,
      "hit": false,
      "t": 392822.7909375093,
      "d": 349.8928125000093,
      "v": 82
    },
    {
      "midi": 60,
      "hit": false,
      "t": 393330.2690625093,
      "d": 480.7687500001048,
      "v": 91
    },
    {
      "midi": 64,
      "hit": false,
      "t": 393332.9400000093,
      "d": 459.40125000005355,
      "v": 63
    },
    {
      "midi": 72,
      "hit": false,
      "t": 393332.9400000093,
      "d": 470.08500000007916,
      "v": 82
    },
    {
      "midi": 67,
      "hit": false,
      "t": 393332.9400000093,
      "d": 478.0978125000838,
      "v": 73
    },
    {
      "midi": 69,
      "hit": false,
      "t": 394099.49906250933,
      "d": 280.44843750004657,
      "v": 73
    },
    {
      "midi": 64,
      "hit": false,
      "t": 394099.49906250933,
      "d": 293.8031250000349,
      "v": 82
    },
    {
      "midi": 65,
      "hit": false,
      "t": 394102.17000000936,
      "d": 285.79031250003027,
      "v": 73
    },
    {
      "midi": 76,
      "hit": false,
      "t": 394104.8409375094,
      "d": 245.72625000000698,
      "v": 67
    },
    {
      "midi": 72,
      "hit": false,
      "t": 394107.5118750094,
      "d": 315.17062499996973,
      "v": 73
    },
    {
      "midi": 65,
      "hit": false,
      "t": 394492.1268750094,
      "d": 331.19625000003725,
      "v": 64
    },
    {
      "midi": 69,
      "hit": false,
      "t": 394494.7978125094,
      "d": 323.1834375000326,
      "v": 91
    },
    {
      "midi": 62,
      "hit": false,
      "t": 394494.7978125094,
      "d": 331.19625000003725,
      "v": 91
    },
    {
      "midi": 74,
      "hit": false,
      "t": 394494.7978125094,
      "d": 347.22187500004657,
      "v": 82
    },
    {
      "midi": 60,
      "hit": false,
      "t": 394871.40000000945,
      "d": 64.10250000003725,
      "v": 82
    },
    {
      "midi": 72,
      "hit": false,
      "t": 394874.0709375095,
      "d": 53.41875000001164,
      "v": 73
    },
    {
      "midi": 69,
      "hit": false,
      "t": 394874.0709375095,
      "d": 64.10250000003725,
      "v": 64
    },
    {
      "midi": 65,
      "hit": false,
      "t": 394874.0709375095,
      "d": 66.77343750005821,
      "v": 64
    },
    {
      "midi": 60,
      "hit": false,
      "t": 395125.1390625095,
      "d": 61.4315625000163,
      "v": 82
    },
    {
      "midi": 65,
      "hit": false,
      "t": 395130.4809375095,
      "d": 58.76062500005355,
      "v": 64
    },
    {
      "midi": 69,
      "hit": false,
      "t": 395130.4809375095,
      "d": 66.77343750005821,
      "v": 91
    },
    {
      "midi": 72,
      "hit": false,
      "t": 395133.1518750095,
      "d": 58.76062500005355,
      "v": 73
    },
    {
      "midi": 60,
      "hit": false,
      "t": 395381.54906250956,
      "d": 85.47000000003027,
      "v": 82
    },
    {
      "midi": 65,
      "hit": false,
      "t": 395386.89093750954,
      "d": 61.4315625000163,
      "v": 73
    },
    {
      "midi": 69,
      "hit": false,
      "t": 395386.89093750954,
      "d": 72.11531250004191,
      "v": 82
    },
    {
      "midi": 72,
      "hit": false,
      "t": 395386.89093750954,
      "d": 72.11531250004191,
      "v": 73
    },
    {
      "midi": 65,
      "hit": false,
      "t": 395648.6428125096,
      "d": 117.52124999999069,
      "v": 73
    }
  ]
}