{
  "jsonPath": "Electronic/Disco/The Weather Girls/its-raining-men.json",
  "path": "Electronic\\Disco\\The Weather Girls\\Its Raining Men.mid",
  "name": "Its Raining Men",
  "difficulty": "Advanced",
  "bpm": 120,
  "notes": [
    {
      "midi": 60,
      "hit": false,
      "t": 3496.379958333333,
      "d": 889.4935541666664,
      "v": 84
    },
    {
      "midi": 53,
      "hit": false,
      "t": 3498.1915541666663,
      "d": 742.7542916666666,
      "v": 57
    },
    {
      "midi": 56,
      "hit": false,
      "t": 3498.1915541666663,
      "d": 851.4500416666665,
      "v": 67
    },
    {
      "midi": 65,
      "hit": false,
      "t": 3498.1915541666663,
      "d": 855.0732333333331,
      "v": 99
    },
    {
      "midi": 67,
      "hit": false,
      "t": 4369.569149999999,
      "d": 780.7978041666665,
      "v": 91
    },
    {
      "midi": 55,
      "hit": false,
      "t": 4371.380745833333,
      "d": 755.4354624999996,
      "v": 57
    },
    {
      "midi": 56,
      "hit": false,
      "t": 5237.323554166666,
      "d": 815.2181250000003,
      "v": 67
    },
    {
      "midi": 68,
      "hit": false,
      "t": 5237.323554166666,
      "d": 871.3775958333335,
      "v": 99
    },
    {
      "midi": 63,
      "hit": false,
      "t": 5237.323554166666,
      "d": 1626.813058333334,
      "v": 84
    },
    {
      "midi": 60,
      "hit": false,
      "t": 5239.13515,
      "d": 1626.813058333334,
      "v": 84
    },
    {
      "midi": 58,
      "hit": false,
      "t": 6110.512745833334,
      "d": 760.8702500000009,
      "v": 84
    },
    {
      "midi": 70,
      "hit": false,
      "t": 6110.512745833334,
      "d": 766.3050375000012,
      "v": 84
    },
    {
      "midi": 63,
      "hit": false,
      "t": 6976.455554166668,
      "d": 750.0006750000002,
      "v": 67
    },
    {
      "midi": 68,
      "hit": false,
      "t": 6976.455554166668,
      "d": 795.2905708333337,
      "v": 73
    },
    {
      "midi": 72,
      "hit": false,
      "t": 6976.455554166668,
      "d": 802.5369541666669,
      "v": 62
    },
    {
      "midi": 60,
      "hit": false,
      "t": 6976.455554166668,
      "d": 873.1891916666664,
      "v": 84
    },
    {
      "midi": 75,
      "hit": false,
      "t": 7842.398362500001,
      "d": 788.0441875000006,
      "v": 69
    },
    {
      "midi": 63,
      "hit": false,
      "t": 7842.398362500001,
      "d": 811.5949333333347,
      "v": 91
    },
    {
      "midi": 72,
      "hit": false,
      "t": 8711.964362500003,
      "d": 822.4645083333344,
      "v": 84
    },
    {
      "midi": 77,
      "hit": false,
      "t": 8711.964362500003,
      "d": 826.0877000000019,
      "v": 79
    },
    {
      "midi": 65,
      "hit": false,
      "t": 8711.964362500003,
      "d": 867.7544041666679,
      "v": 69
    },
    {
      "midi": 68,
      "hit": false,
      "t": 8715.58755416667,
      "d": 728.2615249999999,
      "v": 84
    },
    {
      "midi": 68,
      "hit": false,
      "t": 9579.71876666667,
      "d": 788.0441874999997,
      "v": 84
    },
    {
      "midi": 80,
      "hit": false,
      "t": 9579.71876666667,
      "d": 827.8992958333329,
      "v": 84
    },
    {
      "midi": 77,
      "hit": false,
      "t": 10451.0963625,
      "d": 63.40585416666727,
      "v": 67
    },
    {
      "midi": 89,
      "hit": false,
      "t": 10451.0963625,
      "d": 74.27542916666789,
      "v": 79
    },
    {
      "midi": 65,
      "hit": false,
      "t": 10451.096362500004,
      "d": 3268.1188833333326,
      "v": 91
    },
    {
      "midi": 68,
      "hit": false,
      "t": 10451.096362500004,
      "d": 3300.7276083333327,
      "v": 84
    },
    {
      "midi": 73,
      "hit": false,
      "t": 10451.096362500004,
      "d": 3375.0030374999988,
      "v": 79
    },
    {
      "midi": 77,
      "hit": false,
      "t": 10467.400725000003,
      "d": 3219.2057958333335,
      "v": 91
    },
    {
      "midi": 77,
      "hit": false,
      "t": 10672.111054166668,
      "d": 48.913087499999165,
      "v": 62
    },
    {
      "midi": 89,
      "hit": false,
      "t": 10672.111054166668,
      "d": 54.347874999999476,
      "v": 64
    },
    {
      "midi": 77,
      "hit": false,
      "t": 10780.806804166667,
      "d": 65.2174500000001,
      "v": 67
    },
    {
      "midi": 89,
      "hit": false,
      "t": 10780.806804166667,
      "d": 70.65223750000041,
      "v": 69
    },
    {
      "midi": 89,
      "hit": false,
      "t": 10998.198304166666,
      "d": 59.78266249999979,
      "v": 73
    },
    {
      "midi": 77,
      "hit": false,
      "t": 11000.0099,
      "d": 50.724683333333815,
      "v": 69
    },
    {
      "midi": 77,
      "hit": false,
      "t": 11105.082458333332,
      "d": 70.65223750000041,
      "v": 67
    },
    {
      "midi": 89,
      "hit": false,
      "t": 11106.894054166665,
      "d": 72.46383333333506,
      "v": 84
    },
    {
      "midi": 77,
      "hit": false,
      "t": 11320.662362500001,
      "d": 54.347874999999476,
      "v": 79
    },
    {
      "midi": 89,
      "hit": false,
      "t": 11320.662362500001,
      "d": 63.40585416666545,
      "v": 79
    },
    {
      "midi": 77,
      "hit": false,
      "t": 11429.3581125,
      "d": 65.2174500000001,
      "v": 79
    },
    {
      "midi": 89,
      "hit": false,
      "t": 11429.3581125,
      "d": 70.65223750000041,
      "v": 73
    },
    {
      "midi": 77,
      "hit": false,
      "t": 11644.938016666667,
      "d": 57.97106666666696,
      "v": 69
    },
    {
      "midi": 89,
      "hit": false,
      "t": 11644.938016666667,
      "d": 63.40585416666727,
      "v": 79
    },
    {
      "midi": 77,
      "hit": false,
      "t": 11753.633766666668,
      "d": 59.78266249999979,
      "v": 79
    },
    {
      "midi": 89,
      "hit": false,
      "t": 11753.633766666668,
      "d": 65.2174500000001,
      "v": 84
    },
    {
      "midi": 77,
      "hit": false,
      "t": 11972.8368625,
      "d": 47.101491666666334,
      "v": 73
    },
    {
      "midi": 89,
      "hit": false,
      "t": 11972.8368625,
      "d": 48.913087499999165,
      "v": 84
    },
    {
      "midi": 77,
      "hit": false,
      "t": 12190.2283625,
      "d": 48.913087499999165,
      "v": 79
    },
    {
      "midi": 89,
      "hit": false,
      "t": 12190.2283625,
      "d": 59.78266249999979,
      "v": 91
    },
    {
      "midi": 77,
      "hit": false,
      "t": 12407.6198625,
      "d": 45.2898958333335,
      "v": 64
    },
    {
      "midi": 89,
      "hit": false,
      "t": 12407.6198625,
      "d": 50.724683333333815,
      "v": 73
    },
    {
      "midi": 77,
      "hit": false,
      "t": 12516.3156125,
      "d": 61.59425833333262,
      "v": 64
    },
    {
      "midi": 89,
      "hit": false,
      "t": 12516.3156125,
      "d": 88.76819583333236,
      "v": 84
    },
    {
      "midi": 77,
      "hit": false,
      "t": 12733.7071125,
      "d": 52.536279166666645,
      "v": 73
    },
    {
      "midi": 89,
      "hit": false,
      "t": 12733.7071125,
      "d": 57.97106666666696,
      "v": 79
    },
    {
      "midi": 77,
      "hit": false,
      "t": 12842.402862500001,
      "d": 68.84064166666758,
      "v": 79
    },
    {
      "midi": 89,
      "hit": false,
      "t": 12842.402862500001,
      "d": 86.95660000000134,
      "v": 79
    },
    {
      "midi": 89,
      "hit": false,
      "t": 13059.794362500003,
      "d": 54.347874999999476,
      "v": 84
    },
    {
      "midi": 77,
      "hit": false,
      "t": 13059.794362500003,
      "d": 57.97106666666696,
      "v": 69
    },
    {
      "midi": 77,
      "hit": false,
      "t": 13168.490112500003,
      "d": 72.46383333333324,
      "v": 69
    },
    {
      "midi": 89,
      "hit": false,
      "t": 13168.490112500003,
      "d": 90.579791666667,
      "v": 73
    },
    {
      "midi": 77,
      "hit": false,
      "t": 13385.881612500003,
      "d": 48.913087499999165,
      "v": 73
    },
    {
      "midi": 89,
      "hit": false,
      "t": 13385.881612500003,
      "d": 56.15947083333231,
      "v": 79
    },
    {
      "midi": 77,
      "hit": false,
      "t": 13494.577362500002,
      "d": 63.40585416666727,
      "v": 69
    },
    {
      "midi": 89,
      "hit": false,
      "t": 13494.577362500002,
      "d": 68.84064166666758,
      "v": 67
    },
    {
      "midi": 77,
      "hit": false,
      "t": 13711.968862500004,
      "d": 56.159470833334126,
      "v": 73
    },
    {
      "midi": 89,
      "hit": false,
      "t": 13711.968862500004,
      "d": 63.40585416666727,
      "v": 73
    },
    {
      "midi": 70,
      "hit": false,
      "t": 13920.302383333335,
      "d": 1644.9290166666688,
      "v": 67
    },
    {
      "midi": 72,
      "hit": false,
      "t": 13920.302383333335,
      "d": 1668.4797625000028,
      "v": 79
    },
    {
      "midi": 77,
      "hit": false,
      "t": 13932.98355416667,
      "d": 57.97106666666696,
      "v": 79
    },
    {
      "midi": 89,
      "hit": false,
      "t": 13932.98355416667,
      "d": 65.2174500000001,
      "v": 84
    },
    {
      "midi": 65,
      "hit": false,
      "t": 13938.41834166667,
      "d": 1639.4942291666684,
      "v": 64
    },
    {
      "midi": 77,
      "hit": false,
      "t": 13942.041533333337,
      "d": 1623.1898666666675,
      "v": 91
    },
    {
      "midi": 77,
      "hit": false,
      "t": 14150.37505416667,
      "d": 54.347874999999476,
      "v": 69
    },
    {
      "midi": 89,
      "hit": false,
      "t": 14152.186650000003,
      "d": 50.724683333333815,
      "v": 73
    },
    {
      "midi": 77,
      "hit": false,
      "t": 14260.882400000004,
      "d": 50.724683333333815,
      "v": 79
    },
    {
      "midi": 89,
      "hit": false,
      "t": 14260.882400000004,
      "d": 57.97106666666696,
      "v": 79
    },
    {
      "midi": 77,
      "hit": false,
      "t": 14478.273900000004,
      "d": 48.913087499999165,
      "v": 69
    },
    {
      "midi": 89,
      "hit": false,
      "t": 14480.085495833337,
      "d": 34.42032083333288,
      "v": 55
    },
    {
      "midi": 77,
      "hit": false,
      "t": 14585.15805416667,
      "d": 59.78266249999979,
      "v": 64
    },
    {
      "midi": 89,
      "hit": false,
      "t": 14586.969650000003,
      "d": 68.84064166666758,
      "v": 79
    },
    {
      "midi": 77,
      "hit": false,
      "t": 14802.54955416667,
      "d": 56.159470833334126,
      "v": 79
    },
    {
      "midi": 89,
      "hit": false,
      "t": 14802.54955416667,
      "d": 70.65223750000041,
      "v": 84
    },
    {
      "midi": 77,
      "hit": false,
      "t": 14911.24530416667,
      "d": 56.15947083333231,
      "v": 79
    },
    {
      "midi": 89,
      "hit": false,
      "t": 14913.056900000003,
      "d": 70.65223749999859,
      "v": 67
    },
    {
      "midi": 77,
      "hit": false,
      "t": 15125.013612500003,
      "d": 48.913087500000984,
      "v": 62
    },
    {
      "midi": 89,
      "hit": false,
      "t": 15128.63680416667,
      "d": 23.550745833334076,
      "v": 42
    },
    {
      "midi": 77,
      "hit": false,
      "t": 15233.709362500003,
      "d": 47.101491666666334,
      "v": 69
    },
    {
      "midi": 89,
      "hit": false,
      "t": 15233.709362500003,
      "d": 65.2174500000001,
      "v": 67
    },
    {
      "midi": 89,
      "hit": false,
      "t": 15454.72405416667,
      "d": 56.159470833334126,
      "v": 73
    },
    {
      "midi": 77,
      "hit": false,
      "t": 15454.72405416667,
      "d": 57.97106666666696,
      "v": 73
    },
    {
      "midi": 70,
      "hit": false,
      "t": 15661.245979166672,
      "d": 1630.4362500000007,
      "v": 62
    },
    {
      "midi": 72,
      "hit": false,
      "t": 15663.057575000004,
      "d": 1635.8710375000028,
      "v": 79
    },
    {
      "midi": 64,
      "hit": false,
      "t": 15663.057575000004,
      "d": 1666.6681666666682,
      "v": 64
    },
    {
      "midi": 76,
      "hit": false,
      "t": 15666.680766666672,
      "d": 1646.7406125000016,
      "v": 69
    },
    {
      "midi": 76,
      "hit": false,
      "t": 15672.11555416667,
      "d": 54.347874999999476,
      "v": 79
    },
    {
      "midi": 88,
      "hit": false,
      "t": 15672.11555416667,
      "d": 59.78266249999979,
      "v": 84
    },
    {
      "midi": 76,
      "hit": false,
      "t": 15889.50705416667,
      "d": 41.66670416666602,
      "v": 64
    },
    {
      "midi": 88,
      "hit": false,
      "t": 15889.50705416667,
      "d": 47.101491666666334,
      "v": 79
    },
    {
      "midi": 88,
      "hit": false,
      "t": 15994.579612500003,
      "d": 70.65223750000041,
      "v": 79
    },
    {
      "midi": 76,
      "hit": false,
      "t": 15996.391208333336,
      "d": 56.159470833334126,
      "v": 84
    },
    {
      "midi": 76,
      "hit": false,
      "t": 16215.59430416667,
      "d": 47.101491666666334,
      "v": 67
    },
    {
      "midi": 88,
      "hit": false,
      "t": 16215.59430416667,
      "d": 52.536279166666645,
      "v": 79
    },
    {
      "midi": 76,
      "hit": false,
      "t": 16320.666862500004,
      "d": 61.59425833333262,
      "v": 73
    },
    {
      "midi": 88,
      "hit": false,
      "t": 16320.666862500004,
      "d": 86.95659999999953,
      "v": 73
    },
    {
      "midi": 76,
      "hit": false,
      "t": 16538.058362500004,
      "d": 50.724683333333815,
      "v": 64
    },
    {
      "midi": 88,
      "hit": false,
      "t": 16541.68155416667,
      "d": 50.724683333333815,
      "v": 79
    },
    {
      "midi": 76,
      "hit": false,
      "t": 16648.565708333335,
      "d": 61.59425833333444,
      "v": 69
    },
    {
      "midi": 88,
      "hit": false,
      "t": 16650.37730416667,
      "d": 70.65223750000223,
      "v": 79
    },
    {
      "midi": 76,
      "hit": false,
      "t": 16867.76880416667,
      "d": 45.289895833331684,
      "v": 64
    },
    {
      "midi": 88,
      "hit": false,
      "t": 16867.76880416667,
      "d": 50.72468333333018,
      "v": 67
    },
    {
      "midi": 76,
      "hit": false,
      "t": 16972.8413625,
      "d": 61.59425833333444,
      "v": 69
    },
    {
      "midi": 88,
      "hit": false,
      "t": 16972.8413625,
      "d": 81.52181250000285,
      "v": 73
    },
    {
      "midi": 76,
      "hit": false,
      "t": 17193.85605416667,
      "d": 63.40585416666727,
      "v": 79
    },
    {
      "midi": 88,
      "hit": false,
      "t": 17193.85605416667,
      "d": 72.46383333333506,
      "v": 79
    },
    {
      "midi": 65,
      "hit": false,
      "t": 17402.189575000008,
      "d": 1666.6681666666664,
      "v": 84
    },
    {
      "midi": 77,
      "hit": false,
      "t": 17411.24755416667,
      "d": 63.40585416666727,
      "v": 84
    },
    {
      "midi": 89,
      "hit": false,
      "t": 17411.24755416667,
      "d": 63.40585416666727,
      "v": 84
    },
    {
      "midi": 77,
      "hit": false,
      "t": 17427.551916666675,
      "d": 1724.6392333333315,
      "v": 91
    },
    {
      "midi": 89,
      "hit": false,
      "t": 17625.015862500004,
      "d": 68.84064166666576,
      "v": 67
    },
    {
      "midi": 77,
      "hit": false,
      "t": 17628.63905416667,
      "d": 52.536279166666645,
      "v": 60
    },
    {
      "midi": 89,
      "hit": false,
      "t": 17737.33480416667,
      "d": 63.40585416666363,
      "v": 73
    },
    {
      "midi": 77,
      "hit": false,
      "t": 17739.1464,
      "d": 57.97106666666514,
      "v": 79
    },
    {
      "midi": 77,
      "hit": false,
      "t": 17954.726304166667,
      "d": 41.66670416666602,
      "v": 79
    },
    {
      "midi": 89,
      "hit": false,
      "t": 17954.726304166667,
      "d": 48.913087500000984,
      "v": 67
    },
    {
      "midi": 77,
      "hit": false,
      "t": 18063.42205416667,
      "d": 59.78266250000161,
      "v": 69
    },
    {
      "midi": 89,
      "hit": false,
      "t": 18063.42205416667,
      "d": 63.40585416666727,
      "v": 73
    },
    {
      "midi": 77,
      "hit": false,
      "t": 18277.1903625,
      "d": 43.47829999999885,
      "v": 69
    },
    {
      "midi": 89,
      "hit": false,
      "t": 18277.1903625,
      "d": 65.2174500000001,
      "v": 69
    },
    {
      "midi": 89,
      "hit": false,
      "t": 18385.8861125,
      "d": 63.40585416666727,
      "v": 73
    },
    {
      "midi": 77,
      "hit": false,
      "t": 18389.509304166666,
      "d": 61.59425833333444,
      "v": 69
    },
    {
      "midi": 77,
      "hit": false,
      "t": 18606.900804166668,
      "d": 48.913087500000984,
      "v": 79
    },
    {
      "midi": 89,
      "hit": false,
      "t": 18606.900804166668,
      "d": 61.59425833333444,
      "v": 73
    },
    {
      "midi": 89,
      "hit": false,
      "t": 18711.9733625,
      "d": 63.40585416666727,
      "v": 67
    },
    {
      "midi": 77,
      "hit": false,
      "t": 18715.596554166666,
      "d": 61.59425833333444,
      "v": 69
    },
    {
      "midi": 77,
      "hit": false,
      "t": 18929.364862500002,
      "d": 48.913087500000984,
      "v": 79
    },
    {
      "midi": 89,
      "hit": false,
      "t": 18929.364862500002,
      "d": 63.40585416666727,
      "v": 64
    },
    {
      "midi": 89,
      "hit": false,
      "t": 19146.756362500004,
      "d": 63.40585416666727,
      "v": 84
    },
    {
      "midi": 77,
      "hit": false,
      "t": 19146.756362500004,
      "d": 70.65223750000223,
      "v": 84
    },
    {
      "midi": 75,
      "hit": false,
      "t": 19146.756362500008,
      "d": 1650.3638041666636,
      "v": 84
    },
    {
      "midi": 63,
      "hit": false,
      "t": 19146.756362500008,
      "d": 1653.9869958333293,
      "v": 84
    },
    {
      "midi": 89,
      "hit": false,
      "t": 19364.147862500005,
      "d": 50.72468333333018,
      "v": 64
    },
    {
      "midi": 77,
      "hit": false,
      "t": 19367.77105416667,
      "d": 41.66670416666602,
      "v": 67
    },
    {
      "midi": 77,
      "hit": false,
      "t": 19476.46680416667,
      "d": 59.78266250000161,
      "v": 79
    },
    {
      "midi": 89,
      "hit": false,
      "t": 19476.46680416667,
      "d": 63.40585416666727,
      "v": 84
    },
    {
      "midi": 77,
      "hit": false,
      "t": 19693.85830416667,
      "d": 39.85510833333319,
      "v": 64
    },
    {
      "midi": 89,
      "hit": false,
      "t": 19693.85830416667,
      "d": 54.347874999999476,
      "v": 79
    },
    {
      "midi": 89,
      "hit": false,
      "t": 19798.930862500005,
      "d": 63.40585416666727,
      "v": 69
    },
    {
      "midi": 77,
      "hit": false,
      "t": 19802.55405416667,
      "d": 52.536279166666645,
      "v": 79
    },
    {
      "midi": 77,
      "hit": false,
      "t": 20016.322362500006,
      "d": 54.347874999999476,
      "v": 84
    },
    {
      "midi": 89,
      "hit": false,
      "t": 20016.322362500006,
      "d": 63.40585416666727,
      "v": 91
    },
    {
      "midi": 89,
      "hit": false,
      "t": 20126.829708333342,
      "d": 63.40585416666727,
      "v": 67
    },
    {
      "midi": 77,
      "hit": false,
      "t": 20128.641304166675,
      "d": 68.8406416666694,
      "v": 67
    },
    {
      "midi": 89,
      "hit": false,
      "t": 20342.40961250001,
      "d": 56.15947083333231,
      "v": 73
    },
    {
      "midi": 77,
      "hit": false,
      "t": 20344.221208333343,
      "d": 52.536279166666645,
      "v": 69
    },
    {
      "midi": 89,
      "hit": false,
      "t": 20451.10536250001,
      "d": 63.40585416666727,
      "v": 73
    },
    {
      "midi": 77,
      "hit": false,
      "t": 20454.728554166675,
      "d": 67.02904583333657,
      "v": 79
    },
    {
      "midi": 89,
      "hit": false,
      "t": 20668.49686250001,
      "d": 63.40585416666727,
      "v": 84
    },
    {
      "midi": 77,
      "hit": false,
      "t": 20670.308458333344,
      "d": 61.59425833333444,
      "v": 79
    },
    {
      "midi": 62,
      "hit": false,
      "t": 20887.699958333338,
      "d": 1668.4797624999992,
      "v": 79
    },
    {
      "midi": 89,
      "hit": false,
      "t": 20887.699958333345,
      "d": 63.40585416666727,
      "v": 69
    },
    {
      "midi": 77,
      "hit": false,
      "t": 20889.51155416668,
      "d": 63.40585416666727,
      "v": 84
    },
    {
      "midi": 74,
      "hit": false,
      "t": 20891.323150000004,
      "d": 1641.3058249999995,
      "v": 91
    },
    {
      "midi": 77,
      "hit": false,
      "t": 21106.90305416668,
      "d": 41.66670416666602,
      "v": 67
    },
    {
      "midi": 89,
      "hit": false,
      "t": 21106.90305416668,
      "d": 48.913087500000984,
      "v": 64
    },
    {
      "midi": 77,
      "hit": false,
      "t": 21215.598804166682,
      "d": 63.40585416666727,
      "v": 73
    },
    {
      "midi": 89,
      "hit": false,
      "t": 21215.598804166682,
      "d": 63.40585416666727,
      "v": 79
    },
    {
      "midi": 77,
      "hit": false,
      "t": 21432.990304166684,
      "d": 54.347874999999476,
      "v": 79
    },
    {
      "midi": 89,
      "hit": false,
      "t": 21432.990304166684,
      "d": 56.15947083333231,
      "v": 73
    },
    {
      "midi": 77,
      "hit": false,
      "t": 21541.686054166683,
      "d": 63.40585416666727,
      "v": 73
    },
    {
      "midi": 89,
      "hit": false,
      "t": 21541.686054166683,
      "d": 63.40585416666727,
      "v": 73
    },
    {
      "midi": 77,
      "hit": false,
      "t": 21759.077554166684,
      "d": 47.10149166666815,
      "v": 73
    },
    {
      "midi": 89,
      "hit": false,
      "t": 21759.077554166684,
      "d": 56.159470833335945,
      "v": 73
    },
    {
      "midi": 77,
      "hit": false,
      "t": 21867.773304166687,
      "d": 63.40585416666727,
      "v": 84
    },
    {
      "midi": 89,
      "hit": false,
      "t": 21867.773304166687,
      "d": 63.40585416666727,
      "v": 73
    },
    {
      "midi": 77,
      "hit": false,
      "t": 22081.54161250002,
      "d": 45.289895833331684,
      "v": 67
    },
    {
      "midi": 89,
      "hit": false,
      "t": 22081.54161250002,
      "d": 61.5942583333308,
      "v": 69
    },
    {
      "midi": 89,
      "hit": false,
      "t": 22190.23736250002,
      "d": 63.40585416666727,
      "v": 73
    },
    {
      "midi": 77,
      "hit": false,
      "t": 22190.23736250002,
      "d": 68.84064166666576,
      "v": 67
    },
    {
      "midi": 77,
      "hit": false,
      "t": 22407.628862500016,
      "d": 59.78266249999797,
      "v": 84
    },
    {
      "midi": 89,
      "hit": false,
      "t": 22411.25205416668,
      "d": 63.40585416666727,
      "v": 84
    },
    {
      "midi": 61,
      "hit": false,
      "t": 22612.33919166667,
      "d": 1670.291358333332,
      "v": 69
    },
    {
      "midi": 73,
      "hit": false,
      "t": 22625.020362500003,
      "d": 1679.3493374999998,
      "v": 91
    },
    {
      "midi": 89,
      "hit": false,
      "t": 22625.020362500014,
      "d": 63.40585416666727,
      "v": 91
    },
    {
      "midi": 77,
      "hit": false,
      "t": 22628.64355416668,
      "d": 63.40585416666727,
      "v": 91
    },
    {
      "midi": 77,
      "hit": false,
      "t": 22846.03505416668,
      "d": 50.724683333333815,
      "v": 69
    },
    {
      "midi": 89,
      "hit": false,
      "t": 22846.03505416668,
      "d": 65.2174500000001,
      "v": 69
    },
    {
      "midi": 89,
      "hit": false,
      "t": 22954.73080416668,
      "d": 63.40585416666727,
      "v": 69
    },
    {
      "midi": 77,
      "hit": false,
      "t": 22956.542400000013,
      "d": 63.40585416666727,
      "v": 84
    },
    {
      "midi": 77,
      "hit": false,
      "t": 23172.12230416668,
      "d": 41.66670416666602,
      "v": 67
    },
    {
      "midi": 89,
      "hit": false,
      "t": 23172.12230416668,
      "d": 54.347874999999476,
      "v": 79
    },
    {
      "midi": 77,
      "hit": false,
      "t": 23280.81805416668,
      "d": 63.40585416666727,
      "v": 79
    },
    {
      "midi": 89,
      "hit": false,
      "t": 23280.81805416668,
      "d": 63.40585416666727,
      "v": 79
    },
    {
      "midi": 77,
      "hit": false,
      "t": 23498.209554166682,
      "d": 50.724683333333815,
      "v": 73
    },
    {
      "midi": 89,
      "hit": false,
      "t": 23498.209554166682,
      "d": 61.59425833333444,
      "v": 84
    },
    {
      "midi": 89,
      "hit": false,
      "t": 23603.282112500016,
      "d": 63.40585416666727,
      "v": 73
    },
    {
      "midi": 77,
      "hit": false,
      "t": 23605.09370833335,
      "d": 63.40585416666727,
      "v": 84
    },
    {
      "midi": 77,
      "hit": false,
      "t": 23820.673612500017,
      "d": 50.724683333333815,
      "v": 67
    },
    {
      "midi": 89,
      "hit": false,
      "t": 23820.673612500017,
      "d": 63.40585416666727,
      "v": 73
    },
    {
      "midi": 77,
      "hit": false,
      "t": 23929.369362500016,
      "d": 63.40585416666727,
      "v": 69
    },
    {
      "midi": 89,
      "hit": false,
      "t": 23929.369362500016,
      "d": 63.40585416666727,
      "v": 69
    },
    {
      "midi": 77,
      "hit": false,
      "t": 24146.760862500018,
      "d": 61.59425833333444,
      "v": 69
    },
    {
      "midi": 89,
      "hit": false,
      "t": 24146.760862500018,
      "d": 63.40585416666727,
      "v": 79
    },
    {
      "midi": 77,
      "hit": false,
      "t": 24364.15236250002,
      "d": 63.40585416666727,
      "v": 84
    },
    {
      "midi": 89,
      "hit": false,
      "t": 24364.15236250002,
      "d": 63.40585416666727,
      "v": 84
    },
    {
      "midi": 72,
      "hit": false,
      "t": 24365.963958333337,
      "d": 1692.0305083333333,
      "v": 79
    },
    {
      "midi": 60,
      "hit": false,
      "t": 24375.021937500005,
      "d": 1682.9725291666655,
      "v": 79
    },
    {
      "midi": 77,
      "hit": false,
      "t": 24581.54386250002,
      "d": 50.724683333333815,
      "v": 69
    },
    {
      "midi": 89,
      "hit": false,
      "t": 24581.54386250002,
      "d": 54.347874999999476,
      "v": 69
    },
    {
      "midi": 89,
      "hit": false,
      "t": 24690.23961250002,
      "d": 63.40585416666727,
      "v": 69
    },
    {
      "midi": 77,
      "hit": false,
      "t": 24692.051208333352,
      "d": 63.40585416666727,
      "v": 79
    },
    {
      "midi": 89,
      "hit": false,
      "t": 24913.06590000002,
      "d": 56.15947083333231,
      "v": 69
    },
    {
      "midi": 77,
      "hit": false,
      "t": 24913.06590000002,
      "d": 57.97106666666514,
      "v": 84
    },
    {
      "midi": 89,
      "hit": false,
      "t": 25019.950054166686,
      "d": 63.40585416666727,
      "v": 73
    },
    {
      "midi": 77,
      "hit": false,
      "t": 25021.76165000002,
      "d": 63.40585416666727,
      "v": 73
    },
    {
      "midi": 77,
      "hit": false,
      "t": 25239.15315000002,
      "d": 59.78266250000161,
      "v": 84
    },
    {
      "midi": 89,
      "hit": false,
      "t": 25239.15315000002,
      "d": 63.40585416666727,
      "v": 84
    },
    {
      "midi": 77,
      "hit": false,
      "t": 25347.84890000002,
      "d": 63.40585416666727,
      "v": 73
    },
    {
      "midi": 89,
      "hit": false,
      "t": 25347.84890000002,
      "d": 63.40585416666727,
      "v": 73
    },
    {
      "midi": 77,
      "hit": false,
      "t": 25563.428804166688,
      "d": 43.47829999999885,
      "v": 73
    },
    {
      "midi": 89,
      "hit": false,
      "t": 25565.24040000002,
      "d": 57.97106666666514,
      "v": 73
    },
    {
      "midi": 89,
      "hit": false,
      "t": 25673.93615000002,
      "d": 63.40585416666727,
      "v": 73
    },
    {
      "midi": 77,
      "hit": false,
      "t": 25673.93615000002,
      "d": 68.84064166666576,
      "v": 69
    },
    {
      "midi": 77,
      "hit": false,
      "t": 25889.516054166685,
      "d": 61.59425833333444,
      "v": 73
    },
    {
      "midi": 89,
      "hit": false,
      "t": 25889.516054166685,
      "d": 63.40585416666727,
      "v": 79
    },
    {
      "midi": 75,
      "hit": false,
      "t": 26106.90755416667,
      "d": 1646.7406125000016,
      "v": 73
    },
    {
      "midi": 63,
      "hit": false,
      "t": 26106.90755416667,
      "d": 1657.6101875000022,
      "v": 73
    },
    {
      "midi": 77,
      "hit": false,
      "t": 26106.907554166686,
      "d": 63.40585416666727,
      "v": 84
    },
    {
      "midi": 89,
      "hit": false,
      "t": 26106.907554166686,
      "d": 63.40585416666727,
      "v": 79
    },
    {
      "midi": 77,
      "hit": false,
      "t": 26324.299054166688,
      "d": 43.47829999999885,
      "v": 73
    },
    {
      "midi": 89,
      "hit": false,
      "t": 26324.299054166688,
      "d": 65.2174500000001,
      "v": 73
    },
    {
      "midi": 77,
      "hit": false,
      "t": 26432.994804166687,
      "d": 63.40585416666727,
      "v": 73
    },
    {
      "midi": 89,
      "hit": false,
      "t": 26432.994804166687,
      "d": 72.46383333333506,
      "v": 75
    },
    {
      "midi": 77,
      "hit": false,
      "t": 26650.38630416669,
      "d": 47.10149166666815,
      "v": 79
    },
    {
      "midi": 89,
      "hit": false,
      "t": 26650.38630416669,
      "d": 61.59425833333444,
      "v": 79
    },
    {
      "midi": 77,
      "hit": false,
      "t": 26759.08205416669,
      "d": 63.40585416666727,
      "v": 73
    },
    {
      "midi": 89,
      "hit": false,
      "t": 26759.08205416669,
      "d": 63.40585416666727,
      "v": 73
    },
    {
      "midi": 77,
      "hit": false,
      "t": 26978.285150000025,
      "d": 54.347874999999476,
      "v": 73
    },
    {
      "midi": 89,
      "hit": false,
      "t": 26978.285150000025,
      "d": 70.65223749999859,
      "v": 84
    },
    {
      "midi": 77,
      "hit": false,
      "t": 27086.980900000024,
      "d": 63.40585416666727,
      "v": 64
    },
    {
      "midi": 89,
      "hit": false,
      "t": 27086.980900000024,
      "d": 63.40585416666727,
      "v": 69
    },
    {
      "midi": 77,
      "hit": false,
      "t": 27302.560804166693,
      "d": 52.536279166666645,
      "v": 69
    },
    {
      "midi": 89,
      "hit": false,
      "t": 27302.560804166693,
      "d": 65.2174500000001,
      "v": 73
    },
    {
      "midi": 77,
      "hit": false,
      "t": 27411.25655416669,
      "d": 63.40585416666727,
      "v": 79
    },
    {
      "midi": 89,
      "hit": false,
      "t": 27411.25655416669,
      "d": 63.40585416666727,
      "v": 69
    },
    {
      "midi": 77,
      "hit": false,
      "t": 27628.648054166693,
      "d": 65.2174500000001,
      "v": 73
    },
    {
      "midi": 89,
      "hit": false,
      "t": 27630.459650000026,
      "d": 63.40585416666727,
      "v": 73
    },
    {
      "midi": 77,
      "hit": false,
      "t": 27842.416362500026,
      "d": 63.40585416666727,
      "v": 91
    },
    {
      "midi": 89,
      "hit": false,
      "t": 27842.416362500026,
      "d": 63.40585416666727,
      "v": 73
    },
    {
      "midi": 62,
      "hit": false,
      "t": 27855.09753333334,
      "d": 1650.3638041666673,
      "v": 79
    },
    {
      "midi": 74,
      "hit": false,
      "t": 27856.909129166674,
      "d": 1623.1898666666675,
      "v": 84
    },
    {
      "midi": 77,
      "hit": false,
      "t": 28059.807862500027,
      "d": 48.913087499997346,
      "v": 69
    },
    {
      "midi": 89,
      "hit": false,
      "t": 28063.431054166693,
      "d": 61.5942583333308,
      "v": 73
    },
    {
      "midi": 77,
      "hit": false,
      "t": 28170.315208333355,
      "d": 63.40585416666727,
      "v": 73
    },
    {
      "midi": 89,
      "hit": false,
      "t": 28172.126804166688,
      "d": 63.40585416666727,
      "v": 79
    },
    {
      "midi": 89,
      "hit": false,
      "t": 28389.51830416669,
      "d": 52.536279166666645,
      "v": 79
    },
    {
      "midi": 77,
      "hit": false,
      "t": 28391.329900000022,
      "d": 52.536279166666645,
      "v": 73
    },
    {
      "midi": 77,
      "hit": false,
      "t": 28498.21405416669,
      "d": 63.40585416666727,
      "v": 67
    },
    {
      "midi": 89,
      "hit": false,
      "t": 28498.21405416669,
      "d": 63.40585416666727,
      "v": 79
    },
    {
      "midi": 77,
      "hit": false,
      "t": 28715.60555416669,
      "d": 50.724683333333815,
      "v": 79
    },
    {
      "midi": 89,
      "hit": false,
      "t": 28715.60555416669,
      "d": 61.59425833333444,
      "v": 73
    },
    {
      "midi": 77,
      "hit": false,
      "t": 28824.301304166693,
      "d": 63.40585416666727,
      "v": 79
    },
    {
      "midi": 89,
      "hit": false,
      "t": 28824.301304166693,
      "d": 63.40585416666727,
      "v": 73
    },
    {
      "midi": 77,
      "hit": false,
      "t": 29041.692804166694,
      "d": 48.913087500000984,
      "v": 79
    },
    {
      "midi": 89,
      "hit": false,
      "t": 29041.692804166694,
      "d": 54.347874999999476,
      "v": 79
    },
    {
      "midi": 89,
      "hit": false,
      "t": 29146.765362500028,
      "d": 63.40585416666727,
      "v": 69
    },
    {
      "midi": 77,
      "hit": false,
      "t": 29150.388554166693,
      "d": 63.40585416666727,
      "v": 67
    },
    {
      "midi": 77,
      "hit": false,
      "t": 29367.780054166695,
      "d": 59.78266250000161,
      "v": 73
    },
    {
      "midi": 89,
      "hit": false,
      "t": 29367.780054166695,
      "d": 63.40585416666727,
      "v": 73
    },
    {
      "midi": 73,
      "hit": false,
      "t": 29581.54836250001,
      "d": 500.00044999999955,
      "v": 91
    },
    {
      "midi": 89,
      "hit": false,
      "t": 29581.548362500027,
      "d": 63.40585416666727,
      "v": 84
    },
    {
      "midi": 77,
      "hit": false,
      "t": 29583.35995833336,
      "d": 70.65223750000223,
      "v": 91
    },
    {
      "midi": 61,
      "hit": false,
      "t": 29590.606341666677,
      "d": 646.7397124999989,
      "v": 73
    },
    {
      "midi": 89,
      "hit": false,
      "t": 29800.75145833336,
      "d": 61.59425833333444,
      "v": 69
    },
    {
      "midi": 77,
      "hit": false,
      "t": 29802.563054166694,
      "d": 38.04351250000036,
      "v": 64
    },
    {
      "midi": 77,
      "hit": false,
      "t": 29907.635612500027,
      "d": 63.40585416666727,
      "v": 79
    },
    {
      "midi": 89,
      "hit": false,
      "t": 29909.44720833336,
      "d": 63.40585416666727,
      "v": 73
    },
    {
      "midi": 89,
      "hit": false,
      "t": 30130.461900000028,
      "d": 38.04351250000036,
      "v": 67
    },
    {
      "midi": 77,
      "hit": false,
      "t": 30130.461900000028,
      "d": 45.28989583333532,
      "v": 73
    },
    {
      "midi": 89,
      "hit": false,
      "t": 30235.534458333364,
      "d": 63.40585416666727,
      "v": 69
    },
    {
      "midi": 77,
      "hit": false,
      "t": 30237.346054166697,
      "d": 63.40585416666727,
      "v": 62
    },
    {
      "midi": 82,
      "hit": false,
      "t": 30456.54915000001,
      "d": 36.23191666666753,
      "v": 69
    },
    {
      "midi": 83,
      "hit": false,
      "t": 30563.433304166676,
      "d": 88.76819583333418,
      "v": 71
    },
    {
      "midi": 82,
      "hit": false,
      "t": 30672.12905416668,
      "d": 85.14500416666488,
      "v": 73
    },
    {
      "midi": 80,
      "hit": false,
      "t": 30780.824804166677,
      "d": 105.07255833333329,
      "v": 64
    },
    {
      "midi": 77,
      "hit": false,
      "t": 30889.520554166676,
      "d": 74.27542916666789,
      "v": 64
    },
    {
      "midi": 75,
      "hit": false,
      "t": 31000.027900000012,
      "d": 61.59425833333444,
      "v": 79
    },
    {
      "midi": 72,
      "hit": false,
      "t": 31106.912054166678,
      "d": 45.289895833331684,
      "v": 79
    },
    {
      "midi": 65,
      "hit": false,
      "t": 31215.607804166677,
      "d": 61.59425833333444,
      "v": 91
    },
    {
      "midi": 60,
      "hit": false,
      "t": 31326.115150000012,
      "d": 2103.2627625000023,
      "v": 84
    },
    {
      "midi": 53,
      "hit": false,
      "t": 31326.115150000012,
      "d": 2108.6975500000044,
      "v": 99
    },
    {
      "midi": 56,
      "hit": false,
      "t": 31326.115150000012,
      "d": 2130.4367000000057,
      "v": 79
    },
    {
      "midi": 53,
      "hit": false,
      "t": 33942.059533333355,
      "d": 188.4059666666726,
      "v": 84
    },
    {
      "midi": 56,
      "hit": false,
      "t": 33942.059533333355,
      "d": 224.63788333334378,
      "v": 84
    },
    {
      "midi": 61,
      "hit": false,
      "t": 33943.87112916669,
      "d": 217.39150000000518,
      "v": 79
    },
    {
      "midi": 58,
      "hit": false,
      "t": 34264.5235916667,
      "d": 63.405854166674544,
      "v": 84
    },
    {
      "midi": 55,
      "hit": false,
      "t": 34266.33518750004,
      "d": 65.21745000001101,
      "v": 84
    },
    {
      "midi": 51,
      "hit": false,
      "t": 34268.14678333337,
      "d": 61.594258333338075,
      "v": 64
    },
    {
      "midi": 60,
      "hit": false,
      "t": 34592.42243750005,
      "d": 2353.2629875000057,
      "v": 99
    },
    {
      "midi": 56,
      "hit": false,
      "t": 34592.42243750005,
      "d": 2371.3789458333413,
      "v": 84
    },
    {
      "midi": 53,
      "hit": false,
      "t": 34594.234033333385,
      "d": 2338.7702208333358,
      "v": 69
    },
    {
      "midi": 56,
      "hit": false,
      "t": 37407.64236250005,
      "d": 215.5799041666687,
      "v": 91
    },
    {
      "midi": 53,
      "hit": false,
      "t": 37411.26555416672,
      "d": 193.84075416666747,
      "v": 73
    },
    {
      "midi": 61,
      "hit": false,
      "t": 37411.26555416672,
      "d": 226.44947916667297,
      "v": 84
    },
    {
      "midi": 58,
      "hit": false,
      "t": 37740.97599583339,
      "d": 41.66670416666602,
      "v": 79
    },
    {
      "midi": 51,
      "hit": false,
      "t": 37742.787591666725,
      "d": 32.60872499999823,
      "v": 73
    },
    {
      "midi": 55,
      "hit": false,
      "t": 37742.787591666725,
      "d": 45.289895833331684,
      "v": 91
    },
    {
      "midi": 53,
      "hit": false,
      "t": 38063.44005416673,
      "d": 2356.886179166664,
      "v": 84
    },
    {
      "midi": 56,
      "hit": false,
      "t": 38063.44005416673,
      "d": 2371.378945833334,
      "v": 79
    },
    {
      "midi": 60,
      "hit": false,
      "t": 38063.44005416673,
      "d": 2378.6253291666653,
      "v": 99
    },
    {
      "midi": 56,
      "hit": false,
      "t": 40882.28317083339,
      "d": 237.31905416666996,
      "v": 79
    },
    {
      "midi": 53,
      "hit": false,
      "t": 40884.09476666673,
      "d": 230.07267083333136,
      "v": 64
    },
    {
      "midi": 61,
      "hit": false,
      "t": 40884.09476666673,
      "d": 257.24660833333473,
      "v": 91
    },
    {
      "midi": 55,
      "hit": false,
      "t": 41208.370420833395,
      "d": 83.33340833333932,
      "v": 79
    },
    {
      "midi": 58,
      "hit": false,
      "t": 41208.370420833395,
      "d": 88.76819583334145,
      "v": 73
    },
    {
      "midi": 51,
      "hit": false,
      "t": 41210.18201666673,
      "d": 88.76819583334145,
      "v": 79
    },
    {
      "midi": 55,
      "hit": false,
      "t": 41541.70405416674,
      "d": 1884.059666666668,
      "v": 64
    },
    {
      "midi": 58,
      "hit": false,
      "t": 41541.70405416674,
      "d": 1884.059666666668,
      "v": 73
    },
    {
      "midi": 60,
      "hit": false,
      "t": 41541.70405416674,
      "d": 1885.8712625000044,
      "v": 79
    },
    {
      "midi": 65,
      "hit": false,
      "t": 41541.70405416674,
      "d": 1885.8712625000044,
      "v": 84
    },
    {
      "midi": 55,
      "hit": false,
      "t": 43498.22755416674,
      "d": 500.00044999999955,
      "v": 79
    },
    {
      "midi": 60,
      "hit": false,
      "t": 43498.22755416674,
      "d": 510.87002499999653,
      "v": 79
    },
    {
      "midi": 64,
      "hit": false,
      "t": 43498.22755416674,
      "d": 527.1743874999956,
      "v": 84
    },
    {
      "midi": 58,
      "hit": false,
      "t": 43498.22755416674,
      "d": 532.6091749999978,
      "v": 79
    },
    {
      "midi": 61,
      "hit": false,
      "t": 44369.60515000007,
      "d": 199.2755416666696,
      "v": 79
    },
    {
      "midi": 53,
      "hit": false,
      "t": 44371.416745833405,
      "d": 202.89873333333526,
      "v": 73
    },
    {
      "midi": 56,
      "hit": false,
      "t": 44371.416745833405,
      "d": 231.88426666666783,
      "v": 64
    },
    {
      "midi": 55,
      "hit": false,
      "t": 44697.50399583341,
      "d": 65.21745000000374,
      "v": 73
    },
    {
      "midi": 58,
      "hit": false,
      "t": 44697.50399583341,
      "d": 70.65223750000587,
      "v": 84
    },
    {
      "midi": 51,
      "hit": false,
      "t": 44699.315591666746,
      "d": 72.46383333333506,
      "v": 69
    },
    {
      "midi": 54,
      "hit": false,
      "t": 44702.93878333341,
      "d": 1.8115958333364688,
      "v": 6
    },
    {
      "midi": 60,
      "hit": false,
      "t": 45014.533266666745,
      "d": 2465.5819291666703,
      "v": 84
    },
    {
      "midi": 53,
      "hit": false,
      "t": 45016.34486250008,
      "d": 2456.5239500000025,
      "v": 91
    },
    {
      "midi": 56,
      "hit": false,
      "t": 45016.34486250008,
      "d": 2456.5239500000025,
      "v": 84
    },
    {
      "midi": 61,
      "hit": false,
      "t": 47849.680745833415,
      "d": 201.0871374999988,
      "v": 84
    },
    {
      "midi": 53,
      "hit": false,
      "t": 47849.680745833415,
      "d": 204.71032916666445,
      "v": 84
    },
    {
      "midi": 56,
      "hit": false,
      "t": 47849.680745833415,
      "d": 233.69586249999702,
      "v": 79
    },
    {
      "midi": 58,
      "hit": false,
      "t": 48166.710016666744,
      "d": 99.63777083333844,
      "v": 73
    },
    {
      "midi": 51,
      "hit": false,
      "t": 48168.52161250008,
      "d": 70.65223749999859,
      "v": 84
    },
    {
      "midi": 55,
      "hit": false,
      "t": 48168.52161250008,
      "d": 76.08702500000072,
      "v": 73
    },
    {
      "midi": 58,
      "hit": false,
      "t": 48496.420458333414,
      "d": 2583.335658333337,
      "v": 84
    },
    {
      "midi": 61,
      "hit": false,
      "t": 48498.23205416675,
      "d": 2586.9588500000027,
      "v": 99
    },
    {
      "midi": 56,
      "hit": false,
      "t": 48500.04365000009,
      "d": 2583.33565833333,
      "v": 84
    },
    {
      "midi": 53,
      "hit": false,
      "t": 48500.04365000009,
      "d": 2588.770445833332,
      "v": 91
    },
    {
      "midi": 61,
      "hit": false,
      "t": 51320.69836250009,
      "d": 211.95671250000305,
      "v": 73
    },
    {
      "midi": 56,
      "hit": false,
      "t": 51322.50995833342,
      "d": 233.6958625000043,
      "v": 73
    },
    {
      "midi": 53,
      "hit": false,
      "t": 51324.32155416676,
      "d": 222.82628750000003,
      "v": 73
    },
    {
      "midi": 55,
      "hit": false,
      "t": 51650.408804166764,
      "d": 96.0145791666655,
      "v": 79
    },
    {
      "midi": 51,
      "hit": false,
      "t": 51650.408804166764,
      "d": 108.69574999999895,
      "v": 69
    },
    {
      "midi": 58,
      "hit": false,
      "t": 51652.2204000001,
      "d": 90.57979166666337,
      "v": 73
    },
    {
      "midi": 58,
      "hit": false,
      "t": 51978.3076500001,
      "d": 1630.436250000006,
      "v": 79
    },
    {
      "midi": 55,
      "hit": false,
      "t": 51980.11924583343,
      "d": 1628.6246541666696,
      "v": 84
    },
    {
      "midi": 60,
      "hit": false,
      "t": 51980.11924583343,
      "d": 1690.2189125000004,
      "v": 69
    },
    {
      "midi": 65,
      "hit": false,
      "t": 51981.93084166677,
      "d": 1699.276891666661,
      "v": 75
    },
    {
      "midi": 58,
      "hit": false,
      "t": 53697.51209583343,
      "d": 1675.7261458333378,
      "v": 67
    },
    {
      "midi": 60,
      "hit": false,
      "t": 53699.32369166677,
      "d": 1663.044974999997,
      "v": 73
    },
    {
      "midi": 55,
      "hit": false,
      "t": 53699.32369166677,
      "d": 1666.6681666666627,
      "v": 69
    },
    {
      "midi": 64,
      "hit": false,
      "t": 53699.32369166677,
      "d": 1672.1029541666649,
      "v": 79
    },
    {
      "midi": 60,
      "hit": false,
      "t": 55463.81803333343,
      "d": 1641.305825000003,
      "v": 84
    },
    {
      "midi": 58,
      "hit": false,
      "t": 55463.81803333343,
      "d": 1644.9290166666688,
      "v": 79
    },
    {
      "midi": 55,
      "hit": false,
      "t": 55467.4412250001,
      "d": 1653.9869958333366,
      "v": 91
    },
    {
      "midi": 65,
      "hit": false,
      "t": 55469.25282083343,
      "d": 1635.871037500001,
      "v": 84
    },
    {
      "midi": 64,
      "hit": false,
      "t": 57188.45726666677,
      "d": 1956.523500000003,
      "v": 79
    },
    {
      "midi": 58,
      "hit": false,
      "t": 57195.7036500001,
      "d": 1936.5959458333382,
      "v": 73
    },
    {
      "midi": 60,
      "hit": false,
      "t": 57197.515245833434,
      "d": 1929.3495624999996,
      "v": 79
    },
    {
      "midi": 55,
      "hit": false,
      "t": 57197.515245833434,
      "d": 1952.9003083333373,
      "v": 73
    },
    {
      "midi": 37,
      "hit": false,
      "t": 60880.4895750001,
      "d": 108.69574999999895,
      "v": 84
    },
    {
      "midi": 37,
      "hit": false,
      "t": 61110.56224583343,
      "d": 83.33340833333205,
      "v": 64
    },
    {
      "midi": 56,
      "hit": false,
      "t": 61309.837787500095,
      "d": 88.76819583333418,
      "v": 69
    },
    {
      "midi": 68,
      "hit": false,
      "t": 61309.837787500095,
      "d": 92.39138749999984,
      "v": 79
    },
    {
      "midi": 61,
      "hit": false,
      "t": 61309.837787500095,
      "d": 101.44936666666763,
      "v": 73
    },
    {
      "midi": 49,
      "hit": false,
      "t": 61324.330554166765,
      "d": 125.00011249999807,
      "v": 91
    },
    {
      "midi": 37,
      "hit": false,
      "t": 61766.3599375001,
      "d": 90.57979166666337,
      "v": 79
    },
    {
      "midi": 37,
      "hit": false,
      "t": 61976.505054166766,
      "d": 97.82617500000197,
      "v": 73
    },
    {
      "midi": 49,
      "hit": false,
      "t": 62188.46176666677,
      "d": 81.52181250000285,
      "v": 84
    },
    {
      "midi": 39,
      "hit": false,
      "t": 62405.853266666774,
      "d": 101.44936666666763,
      "v": 73
    },
    {
      "midi": 39,
      "hit": false,
      "t": 62837.01307500011,
      "d": 94.2029833333363,
      "v": 79
    },
    {
      "midi": 51,
      "hit": false,
      "t": 63056.216170833446,
      "d": 115.94213333333028,
      "v": 91
    },
    {
      "midi": 58,
      "hit": false,
      "t": 63059.83936250011,
      "d": 108.69574999999895,
      "v": 73
    },
    {
      "midi": 63,
      "hit": false,
      "t": 63059.83936250011,
      "d": 117.75372916666674,
      "v": 79
    },
    {
      "midi": 68,
      "hit": false,
      "t": 63059.83936250011,
      "d": 121.3769208333324,
      "v": 84
    },
    {
      "midi": 39,
      "hit": false,
      "t": 63498.24555416678,
      "d": 88.76819583333418,
      "v": 73
    },
    {
      "midi": 68,
      "hit": false,
      "t": 63498.24555416678,
      "d": 134.05809166666586,
      "v": 79
    },
    {
      "midi": 58,
      "hit": false,
      "t": 63500.05715000012,
      "d": 110.50734583332815,
      "v": 73
    },
    {
      "midi": 63,
      "hit": false,
      "t": 63500.05715000012,
      "d": 117.75372916665947,
      "v": 79
    },
    {
      "midi": 63,
      "hit": false,
      "t": 63708.39067083345,
      "d": 106.88415416666976,
      "v": 79
    },
    {
      "midi": 39,
      "hit": false,
      "t": 63710.20226666678,
      "d": 92.39138749999984,
      "v": 84
    },
    {
      "midi": 58,
      "hit": false,
      "t": 63710.20226666678,
      "d": 112.31894166666461,
      "v": 79
    },
    {
      "midi": 67,
      "hit": false,
      "t": 63712.01386250012,
      "d": 97.82617499999469,
      "v": 84
    },
    {
      "midi": 51,
      "hit": false,
      "t": 63927.59376666678,
      "d": 99.63777083333116,
      "v": 79
    },
    {
      "midi": 36,
      "hit": false,
      "t": 64150.42005416678,
      "d": 105.07255833333329,
      "v": 84
    },
    {
      "midi": 36,
      "hit": false,
      "t": 64572.52188333345,
      "d": 105.07255833333329,
      "v": 84
    },
    {
      "midi": 55,
      "hit": false,
      "t": 64789.91338333345,
      "d": 132.24649583333667,
      "v": 79
    },
    {
      "midi": 60,
      "hit": false,
      "t": 64789.91338333345,
      "d": 134.05809166667314,
      "v": 79
    },
    {
      "midi": 65,
      "hit": false,
      "t": 64789.91338333345,
      "d": 134.05809166667314,
      "v": 79
    },
    {
      "midi": 48,
      "hit": false,
      "t": 64795.34817083345,
      "d": 105.07255833333329,
      "v": 91
    },
    {
      "midi": 65,
      "hit": false,
      "t": 65228.319575000125,
      "d": 92.39138749999984,
      "v": 84
    },
    {
      "midi": 55,
      "hit": false,
      "t": 65228.319575000125,
      "d": 96.0145791666655,
      "v": 84
    },
    {
      "midi": 60,
      "hit": false,
      "t": 65230.13117083346,
      "d": 86.9565999999977,
      "v": 84
    },
    {
      "midi": 36,
      "hit": false,
      "t": 65239.18915000013,
      "d": 94.20298333332903,
      "v": 79
    },
    {
      "midi": 36,
      "hit": false,
      "t": 65452.95745833346,
      "d": 94.2029833333363,
      "v": 73
    },
    {
      "midi": 60,
      "hit": false,
      "t": 65471.0734166668,
      "d": 108.69574999999895,
      "v": 91
    },
    {
      "midi": 55,
      "hit": false,
      "t": 65472.88501250013,
      "d": 105.07255833332601,
      "v": 79
    },
    {
      "midi": 64,
      "hit": false,
      "t": 65472.88501250013,
      "d": 112.31894166665734,
      "v": 79
    },
    {
      "midi": 48,
      "hit": false,
      "t": 65666.72576666679,
      "d": 117.75372916666674,
      "v": 79
    },
    {
      "midi": 41,
      "hit": false,
      "t": 65889.5520541668,
      "d": 103.2609625000041,
      "v": 91
    },
    {
      "midi": 41,
      "hit": false,
      "t": 66326.14665000013,
      "d": 114.1305374999938,
      "v": 73
    },
    {
      "midi": 70,
      "hit": false,
      "t": 66536.29176666679,
      "d": 117.75372916666674,
      "v": 73
    },
    {
      "midi": 60,
      "hit": false,
      "t": 66536.29176666679,
      "d": 121.37692083333968,
      "v": 69
    },
    {
      "midi": 65,
      "hit": false,
      "t": 66538.10336250013,
      "d": 115.94213333333028,
      "v": 79
    },
    {
      "midi": 53,
      "hit": false,
      "t": 66539.91495833347,
      "d": 130.43489999999292,
      "v": 91
    },
    {
      "midi": 41,
      "hit": false,
      "t": 66980.13274583346,
      "d": 88.76819583334145,
      "v": 73
    },
    {
      "midi": 70,
      "hit": false,
      "t": 66981.9443416668,
      "d": 112.31894166667189,
      "v": 79
    },
    {
      "midi": 60,
      "hit": false,
      "t": 66981.9443416668,
      "d": 126.81170833333454,
      "v": 62
    },
    {
      "midi": 65,
      "hit": false,
      "t": 66981.9443416668,
      "d": 130.43490000000747,
      "v": 79
    },
    {
      "midi": 41,
      "hit": false,
      "t": 67192.08945833347,
      "d": 97.82617499999469,
      "v": 79
    },
    {
      "midi": 65,
      "hit": false,
      "t": 67215.6402041668,
      "d": 86.95659999999043,
      "v": 72
    },
    {
      "midi": 68,
      "hit": false,
      "t": 67221.0749916668,
      "d": 101.44936666666763,
      "v": 72
    },
    {
      "midi": 60,
      "hit": false,
      "t": 67222.88658750014,
      "d": 97.82617499999469,
      "v": 67
    },
    {
      "midi": 53,
      "hit": false,
      "t": 67407.66936250014,
      "d": 126.81170833333454,
      "v": 84
    },
    {
      "midi": 56,
      "hit": false,
      "t": 67838.82917083347,
      "d": 949.2762166666653,
      "v": 79
    },
    {
      "midi": 61,
      "hit": false,
      "t": 67840.64076666681,
      "d": 942.029833333334,
      "v": 73
    },
    {
      "midi": 53,
      "hit": false,
      "t": 67842.45236250015,
      "d": 927.5370666666713,
      "v": 69
    },
    {
      "midi": 60,
      "hit": false,
      "t": 68925.78667083348,
      "d": 527.1743874999956,
      "v": 67
    },
    {
      "midi": 53,
      "hit": false,
      "t": 68925.78667083348,
      "d": 532.6091749999905,
      "v": 84
    },
    {
      "midi": 56,
      "hit": false,
      "t": 68925.78667083348,
      "d": 539.8555583333218,
      "v": 79
    },
    {
      "midi": 61,
      "hit": false,
      "t": 69583.39595833347,
      "d": 1375.0012375000078,
      "v": 79
    },
    {
      "midi": 58,
      "hit": false,
      "t": 69583.39595833347,
      "d": 1387.682408333334,
      "v": 84
    },
    {
      "midi": 53,
      "hit": false,
      "t": 69585.2075541668,
      "d": 1362.3200666666671,
      "v": 73
    },
    {
      "midi": 58,
      "hit": false,
      "t": 71326.15115000014,
      "d": 253.62341666666907,
      "v": 69
    },
    {
      "midi": 65,
      "hit": false,
      "t": 71326.15115000014,
      "d": 255.43501250000554,
      "v": 73
    },
    {
      "midi": 60,
      "hit": false,
      "t": 71326.15115000014,
      "d": 268.1161833333317,
      "v": 79
    },
    {
      "midi": 55,
      "hit": false,
      "t": 71326.15115000014,
      "d": 271.73937500000466,
      "v": 84
    },
    {
      "midi": 65,
      "hit": false,
      "t": 71755.49936250014,
      "d": 61.594258333338075,
      "v": 62
    },
    {
      "midi": 60,
      "hit": false,
      "t": 71755.49936250014,
      "d": 68.84064166668395,
      "v": 67
    },
    {
      "midi": 55,
      "hit": false,
      "t": 71755.49936250014,
      "d": 72.46383333335689,
      "v": 73
    },
    {
      "midi": 58,
      "hit": false,
      "t": 71757.31095833347,
      "d": 63.405854166674544,
      "v": 62
    },
    {
      "midi": 65,
      "hit": false,
      "t": 71980.1372458335,
      "d": 170.29000833333703,
      "v": 73
    },
    {
      "midi": 58,
      "hit": false,
      "t": 71980.1372458335,
      "d": 177.53639166666835,
      "v": 84
    },
    {
      "midi": 55,
      "hit": false,
      "t": 71980.1372458335,
      "d": 195.65235000000393,
      "v": 69
    },
    {
      "midi": 60,
      "hit": false,
      "t": 71980.1372458335,
      "d": 199.27554166667687,
      "v": 84
    },
    {
      "midi": 65,
      "hit": false,
      "t": 72413.10865000017,
      "d": 231.8842666666751,
      "v": 73
    },
    {
      "midi": 55,
      "hit": false,
      "t": 72413.10865000017,
      "d": 246.37703333333775,
      "v": 84
    },
    {
      "midi": 60,
      "hit": false,
      "t": 72413.10865000017,
      "d": 257.246608333342,
      "v": 79
    },
    {
      "midi": 58,
      "hit": false,
      "t": 72414.9202458335,
      "d": 260.8698000000004,
      "v": 67
    },
    {
      "midi": 58,
      "hit": false,
      "t": 72840.64526666683,
      "d": 273.5509708333266,
      "v": 84
    },
    {
      "midi": 60,
      "hit": false,
      "t": 72840.64526666683,
      "d": 275.36256666666304,
      "v": 79
    },
    {
      "midi": 64,
      "hit": false,
      "t": 72840.64526666683,
      "d": 277.1741624999995,
      "v": 79
    },
    {
      "midi": 55,
      "hit": false,
      "t": 72840.64526666683,
      "d": 280.79735416667245,
      "v": 84
    },
    {
      "midi": 60,
      "hit": false,
      "t": 73280.86305416684,
      "d": 273.5509708333266,
      "v": 79
    },
    {
      "midi": 64,
      "hit": false,
      "t": 73280.86305416684,
      "d": 275.36256666666304,
      "v": 79
    },
    {
      "midi": 55,
      "hit": false,
      "t": 73280.86305416684,
      "d": 277.1741624999995,
      "v": 91
    },
    {
      "midi": 58,
      "hit": false,
      "t": 73280.86305416684,
      "d": 278.985758333336,
      "v": 84
    },
    {
      "midi": 60,
      "hit": false,
      "t": 73713.83445833351,
      "d": 327.8988458333479,
      "v": 79
    },
    {
      "midi": 64,
      "hit": false,
      "t": 73715.64605416685,
      "d": 278.985758333336,
      "v": 79
    },
    {
      "midi": 58,
      "hit": false,
      "t": 73715.64605416685,
      "d": 289.85533333334024,
      "v": 84
    },
    {
      "midi": 55,
      "hit": false,
      "t": 73715.64605416685,
      "d": 340.58001666667406,
      "v": 84
    },
    {
      "midi": 55,
      "hit": false,
      "t": 74150.42905416686,
      "d": 244.56543750000128,
      "v": 73
    },
    {
      "midi": 64,
      "hit": false,
      "t": 74150.42905416686,
      "d": 250.00022499999614,
      "v": 79
    },
    {
      "midi": 58,
      "hit": false,
      "t": 74150.42905416686,
      "d": 251.8118208333326,
      "v": 73
    },
    {
      "midi": 60,
      "hit": false,
      "t": 74150.42905416686,
      "d": 253.62341666666907,
      "v": 79
    },
    {
      "midi": 64,
      "hit": false,
      "t": 74577.96567083352,
      "d": 61.594258333338075,
      "v": 62
    },
    {
      "midi": 60,
      "hit": false,
      "t": 74577.96567083352,
      "d": 68.84064166668395,
      "v": 67
    },
    {
      "midi": 55,
      "hit": false,
      "t": 74577.96567083352,
      "d": 72.46383333335689,
      "v": 73
    },
    {
      "midi": 58,
      "hit": false,
      "t": 74579.77726666686,
      "d": 63.405854166674544,
      "v": 62
    },
    {
      "midi": 58,
      "hit": false,
      "t": 74798.98036250021,
      "d": 155.79724166665983,
      "v": 73
    },
    {
      "midi": 60,
      "hit": false,
      "t": 74798.98036250021,
      "d": 163.04362499999115,
      "v": 79
    },
    {
      "midi": 64,
      "hit": false,
      "t": 74798.98036250021,
      "d": 164.85522083332762,
      "v": 73
    },
    {
      "midi": 55,
      "hit": false,
      "t": 74798.98036250021,
      "d": 166.6668166666641,
      "v": 91
    },
    {
      "midi": 37,
      "hit": false,
      "t": 76532.67757500021,
      "d": 108.69574999999895,
      "v": 84
    },
    {
      "midi": 37,
      "hit": false,
      "t": 76762.75024583355,
      "d": 83.33340833333205,
      "v": 64
    },
    {
      "midi": 56,
      "hit": false,
      "t": 76962.02578750021,
      "d": 88.7681958333269,
      "v": 69
    },
    {
      "midi": 68,
      "hit": false,
      "t": 76962.02578750021,
      "d": 92.39138749999984,
      "v": 79
    },
    {
      "midi": 61,
      "hit": false,
      "t": 76962.02578750021,
      "d": 101.44936666666763,
      "v": 73
    },
    {
      "midi": 49,
      "hit": false,
      "t": 76976.51855416688,
      "d": 125.00011249999807,
      "v": 91
    },
    {
      "midi": 37,
      "hit": false,
      "t": 77418.5479375002,
      "d": 90.57979166666337,
      "v": 79
    },
    {
      "midi": 37,
      "hit": false,
      "t": 77628.69305416687,
      "d": 97.82617499999469,
      "v": 73
    },
    {
      "midi": 49,
      "hit": false,
      "t": 77840.64976666686,
      "d": 81.52181249999558,
      "v": 84
    },
    {
      "midi": 39,
      "hit": false,
      "t": 78058.04126666686,
      "d": 101.44936666666763,
      "v": 73
    },
    {
      "midi": 39,
      "hit": false,
      "t": 78489.2010750002,
      "d": 94.2029833333363,
      "v": 79
    },
    {
      "midi": 51,
      "hit": false,
      "t": 78708.40417083353,
      "d": 115.94213333334483,
      "v": 91
    },
    {
      "midi": 58,
      "hit": false,
      "t": 78712.0273625002,
      "d": 108.69574999999895,
      "v": 73
    },
    {
      "midi": 63,
      "hit": false,
      "t": 78712.0273625002,
      "d": 117.75372916666674,
      "v": 79
    },
    {
      "midi": 68,
      "hit": false,
      "t": 78712.0273625002,
      "d": 121.37692083333968,
      "v": 84
    },
    {
      "midi": 39,
      "hit": false,
      "t": 79150.43355416687,
      "d": 88.76819583334145,
      "v": 73
    },
    {
      "midi": 68,
      "hit": false,
      "t": 79150.43355416687,
      "d": 134.05809166666586,
      "v": 79
    },
    {
      "midi": 58,
      "hit": false,
      "t": 79152.2451500002,
      "d": 110.50734583333542,
      "v": 73
    },
    {
      "midi": 63,
      "hit": false,
      "t": 79152.2451500002,
      "d": 117.75372916666674,
      "v": 79
    },
    {
      "midi": 63,
      "hit": false,
      "t": 79360.57867083354,
      "d": 106.88415416666248,
      "v": 79
    },
    {
      "midi": 39,
      "hit": false,
      "t": 79362.39026666687,
      "d": 92.39138749999984,
      "v": 84
    },
    {
      "midi": 58,
      "hit": false,
      "t": 79362.39026666687,
      "d": 112.31894166665734,
      "v": 79
    },
    {
      "midi": 67,
      "hit": false,
      "t": 79364.20186250021,
      "d": 97.82617499999469,
      "v": 84
    },
    {
      "midi": 51,
      "hit": false,
      "t": 79579.78176666687,
      "d": 99.63777083333116,
      "v": 79
    },
    {
      "midi": 36,
      "hit": false,
      "t": 79802.60805416686,
      "d": 105.07255833334057,
      "v": 84
    },
    {
      "midi": 36,
      "hit": false,
      "t": 80224.70988333353,
      "d": 105.07255833334057,
      "v": 84
    },
    {
      "midi": 55,
      "hit": false,
      "t": 80442.10138333355,
      "d": 132.2464958333294,
      "v": 79
    },
    {
      "midi": 60,
      "hit": false,
      "t": 80442.10138333355,
      "d": 134.05809166666586,
      "v": 79
    },
    {
      "midi": 65,
      "hit": false,
      "t": 80442.10138333355,
      "d": 134.05809166666586,
      "v": 79
    },
    {
      "midi": 48,
      "hit": false,
      "t": 80447.53617083354,
      "d": 105.07255833334057,
      "v": 91
    },
    {
      "midi": 65,
      "hit": false,
      "t": 80880.50757500021,
      "d": 92.39138750001439,
      "v": 84
    },
    {
      "midi": 55,
      "hit": false,
      "t": 80880.50757500021,
      "d": 96.01457916668733,
      "v": 84
    },
    {
      "midi": 60,
      "hit": false,
      "t": 80882.31917083355,
      "d": 86.95660000000498,
      "v": 84
    },
    {
      "midi": 36,
      "hit": false,
      "t": 80891.37715000022,
      "d": 94.20298333335086,
      "v": 79
    },
    {
      "midi": 36,
      "hit": false,
      "t": 81105.14545833357,
      "d": 94.2029833333363,
      "v": 73
    },
    {
      "midi": 60,
      "hit": false,
      "t": 81123.26141666691,
      "d": 108.69574999999895,
      "v": 91
    },
    {
      "midi": 55,
      "hit": false,
      "t": 81125.07301250024,
      "d": 105.07255833332601,
      "v": 79
    },
    {
      "midi": 64,
      "hit": false,
      "t": 81125.07301250024,
      "d": 112.31894166665734,
      "v": 79
    },
    {
      "midi": 48,
      "hit": false,
      "t": 81318.9137666669,
      "d": 117.75372916666674,
      "v": 79
    },
    {
      "midi": 41,
      "hit": false,
      "t": 81541.7400541669,
      "d": 103.2609625000041,
      "v": 91
    },
    {
      "midi": 41,
      "hit": false,
      "t": 81978.33465000024,
      "d": 114.1305374999938,
      "v": 73
    },
    {
      "midi": 70,
      "hit": false,
      "t": 82188.4797666669,
      "d": 117.75372916666674,
      "v": 73
    },
    {
      "midi": 60,
      "hit": false,
      "t": 82188.4797666669,
      "d": 121.37692083333968,
      "v": 69
    },
    {
      "midi": 65,
      "hit": false,
      "t": 82190.29136250024,
      "d": 115.94213333333028,
      "v": 79
    },
    {
      "midi": 53,
      "hit": false,
      "t": 82192.10295833358,
      "d": 130.43489999999292,
      "v": 91
    },
    {
      "midi": 41,
      "hit": false,
      "t": 82632.32074583357,
      "d": 88.76819583334145,
      "v": 73
    },
    {
      "midi": 70,
      "hit": false,
      "t": 82634.1323416669,
      "d": 112.31894166667189,
      "v": 79
    },
    {
      "midi": 60,
      "hit": false,
      "t": 82634.1323416669,
      "d": 126.81170833333454,
      "v": 62
    },
    {
      "midi": 65,
      "hit": false,
      "t": 82634.1323416669,
      "d": 130.43490000000747,
      "v": 79
    },
    {
      "midi": 41,
      "hit": false,
      "t": 82844.27745833358,
      "d": 97.82617499999469,
      "v": 79
    },
    {
      "midi": 65,
      "hit": false,
      "t": 82867.82820416692,
      "d": 86.95659999999043,
      "v": 72
    },
    {
      "midi": 68,
      "hit": false,
      "t": 82873.26299166691,
      "d": 101.44936666666763,
      "v": 72
    },
    {
      "midi": 60,
      "hit": false,
      "t": 82875.07458750025,
      "d": 97.82617499999469,
      "v": 67
    },
    {
      "midi": 53,
      "hit": false,
      "t": 83059.85736250025,
      "d": 126.81170833333454,
      "v": 84
    },
    {
      "midi": 61,
      "hit": false,
      "t": 83480.14759583358,
      "d": 706.5223750000005,
      "v": 79
    },
    {
      "midi": 53,
      "hit": false,
      "t": 83485.58238333357,
      "d": 701.0875875000056,
      "v": 79
    },
    {
      "midi": 56,
      "hit": false,
      "t": 83487.39397916691,
      "d": 717.3919500000047,
      "v": 84
    },
    {
      "midi": 60,
      "hit": false,
      "t": 84333.40923333359,
      "d": 760.8702499999927,
      "v": 79
    },
    {
      "midi": 56,
      "hit": false,
      "t": 84335.22082916692,
      "d": 746.37748333333,
      "v": 84
    },
    {
      "midi": 53,
      "hit": false,
      "t": 84335.22082916692,
      "d": 759.0586541666562,
      "v": 84
    },
    {
      "midi": 53,
      "hit": false,
      "t": 85222.90278750025,
      "d": 1606.8855041666684,
      "v": 79
    },
    {
      "midi": 58,
      "hit": false,
      "t": 85222.90278750025,
      "d": 1617.7550791666727,
      "v": 84
    },
    {
      "midi": 61,
      "hit": false,
      "t": 85222.90278750025,
      "d": 1619.5666750000091,
      "v": 91
    },
    {
      "midi": 65,
      "hit": false,
      "t": 86971.09276666693,
      "d": 302.5365041666664,
      "v": 64
    },
    {
      "midi": 55,
      "hit": false,
      "t": 86971.09276666693,
      "d": 329.7104416666698,
      "v": 79
    },
    {
      "midi": 60,
      "hit": false,
      "t": 86971.09276666693,
      "d": 329.7104416666698,
      "v": 67
    },
    {
      "midi": 58,
      "hit": false,
      "t": 86971.09276666693,
      "d": 340.58001666667406,
      "v": 79
    },
    {
      "midi": 65,
      "hit": false,
      "t": 87411.31055416694,
      "d": 79.71021666667366,
      "v": 64
    },
    {
      "midi": 55,
      "hit": false,
      "t": 87411.31055416694,
      "d": 83.3334083333466,
      "v": 64
    },
    {
      "midi": 60,
      "hit": false,
      "t": 87411.31055416694,
      "d": 83.3334083333466,
      "v": 62
    },
    {
      "midi": 58,
      "hit": false,
      "t": 87411.31055416694,
      "d": 86.95660000001953,
      "v": 62
    },
    {
      "midi": 55,
      "hit": false,
      "t": 87630.51365000028,
      "d": 291.66692916666216,
      "v": 79
    },
    {
      "midi": 58,
      "hit": false,
      "t": 87630.51365000028,
      "d": 298.9133124999935,
      "v": 79
    },
    {
      "midi": 60,
      "hit": false,
      "t": 87630.51365000028,
      "d": 298.9133124999935,
      "v": 79
    },
    {
      "midi": 65,
      "hit": false,
      "t": 87630.51365000028,
      "d": 298.9133124999935,
      "v": 79
    },
    {
      "midi": 58,
      "hit": false,
      "t": 88059.86186250027,
      "d": 554.3483250000136,
      "v": 79
    },
    {
      "midi": 65,
      "hit": false,
      "t": 88063.48505416694,
      "d": 501.81204583332874,
      "v": 69
    },
    {
      "midi": 55,
      "hit": false,
      "t": 88063.48505416694,
      "d": 512.681620833333,
      "v": 64
    },
    {
      "midi": 60,
      "hit": false,
      "t": 88063.48505416694,
      "d": 532.609175000005,
      "v": 84
    },
    {
      "midi": 58,
      "hit": false,
      "t": 88708.41317083362,
      "d": 335.1452291666501,
      "v": 73
    },
    {
      "midi": 64,
      "hit": false,
      "t": 88710.22476666696,
      "d": 307.9712916666613,
      "v": 79
    },
    {
      "midi": 60,
      "hit": false,
      "t": 88710.22476666696,
      "d": 315.2176749999926,
      "v": 79
    },
    {
      "midi": 55,
      "hit": false,
      "t": 88710.22476666696,
      "d": 320.65246249998745,
      "v": 73
    },
    {
      "midi": 55,
      "hit": false,
      "t": 89145.00776666694,
      "d": 143.11607083333365,
      "v": 64
    },
    {
      "midi": 64,
      "hit": false,
      "t": 89145.00776666694,
      "d": 143.11607083333365,
      "v": 64
    },
    {
      "midi": 60,
      "hit": false,
      "t": 89146.81936250028,
      "d": 125.00011249999807,
      "v": 52
    },
    {
      "midi": 58,
      "hit": false,
      "t": 89146.81936250028,
      "d": 132.2464958333294,
      "v": 33
    },
    {
      "midi": 58,
      "hit": false,
      "t": 89364.21086250027,
      "d": 326.0872500000114,
      "v": 69
    },
    {
      "midi": 64,
      "hit": false,
      "t": 89367.83405416695,
      "d": 306.15969583333936,
      "v": 73
    },
    {
      "midi": 55,
      "hit": false,
      "t": 89367.83405416695,
      "d": 309.7828875000123,
      "v": 73
    },
    {
      "midi": 60,
      "hit": false,
      "t": 89367.83405416695,
      "d": 315.21767500000715,
      "v": 79
    },
    {
      "midi": 64,
      "hit": false,
      "t": 89797.18226666695,
      "d": 284.42054583333083,
      "v": 79
    },
    {
      "midi": 60,
      "hit": false,
      "t": 89797.18226666695,
      "d": 289.8553333333257,
      "v": 84
    },
    {
      "midi": 55,
      "hit": false,
      "t": 89797.18226666695,
      "d": 293.4785249999986,
      "v": 73
    },
    {
      "midi": 58,
      "hit": false,
      "t": 89797.18226666695,
      "d": 297.10171666667156,
      "v": 73
    },
    {
      "midi": 64,
      "hit": false,
      "t": 90231.96526666696,
      "d": 215.57990416666144,
      "v": 84
    },
    {
      "midi": 60,
      "hit": false,
      "t": 90231.96526666696,
      "d": 222.82628749999276,
      "v": 73
    },
    {
      "midi": 55,
      "hit": false,
      "t": 90237.40005416695,
      "d": 179.34798750000482,
      "v": 79
    },
    {
      "midi": 58,
      "hit": false,
      "t": 90237.40005416695,
      "d": 186.59437083333614,
      "v": 84
    },
    {
      "midi": 84,
      "hit": false,
      "t": 90458.41474583362,
      "d": 83.3334083333466,
      "v": 84
    },
    {
      "midi": 55,
      "hit": false,
      "t": 90462.0379375003,
      "d": 85.14500416666851,
      "v": 79
    },
    {
      "midi": 60,
      "hit": false,
      "t": 90463.84953333363,
      "d": 61.594258333338075,
      "v": 79
    },
    {
      "midi": 58,
      "hit": false,
      "t": 90463.84953333363,
      "d": 88.7681958333269,
      "v": 84
    },
    {
      "midi": 64,
      "hit": false,
      "t": 90463.84953333363,
      "d": 97.82617499999469,
      "v": 84
    },
    {
      "midi": 60,
      "hit": false,
      "t": 90672.18305416696,
      "d": 72.46383333332778,
      "v": 73
    },
    {
      "midi": 84,
      "hit": false,
      "t": 90672.18305416696,
      "d": 77.89862083332264,
      "v": 79
    },
    {
      "midi": 86,
      "hit": false,
      "t": 90889.57455416695,
      "d": 76.08702500000072,
      "v": 84
    },
    {
      "midi": 62,
      "hit": false,
      "t": 90891.38615000028,
      "d": 67.02904583333293,
      "v": 84
    },
    {
      "midi": 63,
      "hit": false,
      "t": 91106.96605416694,
      "d": 67.02904583333293,
      "v": 73
    },
    {
      "midi": 87,
      "hit": false,
      "t": 91106.96605416694,
      "d": 72.46383333332778,
      "v": 84
    },
    {
      "midi": 64,
      "hit": false,
      "t": 91324.35755416694,
      "d": 76.08702500000072,
      "v": 84
    },
    {
      "midi": 88,
      "hit": false,
      "t": 91324.35755416694,
      "d": 85.14500416666851,
      "v": 79
    },
    {
      "midi": 60,
      "hit": false,
      "t": 91538.12586250028,
      "d": 68.8406416666694,
      "v": 79
    },
    {
      "midi": 84,
      "hit": false,
      "t": 91538.12586250028,
      "d": 70.65223750000587,
      "v": 84
    },
    {
      "midi": 55,
      "hit": false,
      "t": 91753.70576666696,
      "d": 68.8406416666694,
      "v": 84
    },
    {
      "midi": 79,
      "hit": false,
      "t": 91755.5173625003,
      "d": 65.21744999999646,
      "v": 91
    },
    {
      "midi": 76,
      "hit": false,
      "t": 91972.90886250029,
      "d": 45.28989583333896,
      "v": 84
    },
    {
      "midi": 52,
      "hit": false,
      "t": 91972.90886250029,
      "d": 52.53627916667028,
      "v": 84
    },
    {
      "midi": 37,
      "hit": false,
      "t": 92190.30036250029,
      "d": 88.7681958333269,
      "v": 69
    },
    {
      "midi": 61,
      "hit": false,
      "t": 92398.63388333362,
      "d": 70.65223750000587,
      "v": 73
    },
    {
      "midi": 65,
      "hit": false,
      "t": 92400.44547916696,
      "d": 48.913087499997346,
      "v": 69
    },
    {
      "midi": 68,
      "hit": false,
      "t": 92400.44547916696,
      "d": 56.15947083332867,
      "v": 73
    },
    {
      "midi": 49,
      "hit": false,
      "t": 92407.69186250029,
      "d": 52.53627916667028,
      "v": 79
    },
    {
      "midi": 65,
      "hit": false,
      "t": 92612.40219166696,
      "d": 56.15947083332867,
      "v": 84
    },
    {
      "midi": 68,
      "hit": false,
      "t": 92612.40219166696,
      "d": 61.59425833332352,
      "v": 67
    },
    {
      "midi": 61,
      "hit": false,
      "t": 92612.40219166696,
      "d": 85.14500416665396,
      "v": 79
    },
    {
      "midi": 37,
      "hit": false,
      "t": 92625.08336250029,
      "d": 74.27542916666425,
      "v": 73
    },
    {
      "midi": 49,
      "hit": false,
      "t": 92842.47486250028,
      "d": 48.913087499997346,
      "v": 79
    },
    {
      "midi": 65,
      "hit": false,
      "t": 92842.47486250028,
      "d": 70.65223749999132,
      "v": 80
    },
    {
      "midi": 68,
      "hit": false,
      "t": 92842.47486250028,
      "d": 79.71021666665911,
      "v": 80
    },
    {
      "midi": 61,
      "hit": false,
      "t": 92842.47486250028,
      "d": 96.01457916665822,
      "v": 67
    },
    {
      "midi": 37,
      "hit": false,
      "t": 93059.86636250028,
      "d": 70.65223750000587,
      "v": 73
    },
    {
      "midi": 49,
      "hit": false,
      "t": 93277.2578625003,
      "d": 52.53627916665573,
      "v": 84
    },
    {
      "midi": 65,
      "hit": false,
      "t": 93277.2578625003,
      "d": 61.59425833332352,
      "v": 84
    },
    {
      "midi": 60,
      "hit": false,
      "t": 93277.2578625003,
      "d": 76.08702499998617,
      "v": 79
    },
    {
      "midi": 68,
      "hit": false,
      "t": 93282.69265000029,
      "d": 65.21744999999646,
      "v": 84
    },
    {
      "midi": 37,
      "hit": false,
      "t": 93494.64936250028,
      "d": 77.89862083333719,
      "v": 73
    },
    {
      "midi": 65,
      "hit": false,
      "t": 93494.64936250028,
      "d": 81.52181250001013,
      "v": 84
    },
    {
      "midi": 61,
      "hit": false,
      "t": 93494.64936250028,
      "d": 106.88415416667704,
      "v": 91
    },
    {
      "midi": 68,
      "hit": false,
      "t": 93498.27255416695,
      "d": 88.76819583334145,
      "v": 79
    },
    {
      "midi": 49,
      "hit": false,
      "t": 93712.04086250029,
      "d": 54.34787500000675,
      "v": 79
    },
    {
      "midi": 39,
      "hit": false,
      "t": 93929.4323625003,
      "d": 81.52181249999558,
      "v": 84
    },
    {
      "midi": 51,
      "hit": false,
      "t": 94150.44705416696,
      "d": 65.21745000001101,
      "v": 73
    },
    {
      "midi": 63,
      "hit": false,
      "t": 94170.37460833363,
      "d": 65.21744999999646,
      "v": 84
    },
    {
      "midi": 58,
      "hit": false,
      "t": 94175.80939583362,
      "d": 54.34787500000675,
      "v": 91
    },
    {
      "midi": 68,
      "hit": false,
      "t": 94179.4325875003,
      "d": 61.59425833332352,
      "v": 79
    },
    {
      "midi": 39,
      "hit": false,
      "t": 94367.83855416696,
      "d": 76.08702500000072,
      "v": 69
    },
    {
      "midi": 51,
      "hit": false,
      "t": 94585.23005416695,
      "d": 85.14500416666851,
      "v": 84
    },
    {
      "midi": 63,
      "hit": false,
      "t": 94606.96920416695,
      "d": 106.88415416666248,
      "v": 79
    },
    {
      "midi": 68,
      "hit": false,
      "t": 94606.96920416695,
      "d": 115.94213333333028,
      "v": 91
    },
    {
      "midi": 58,
      "hit": false,
      "t": 94610.59239583362,
      "d": 97.82617499999469,
      "v": 84
    },
    {
      "midi": 39,
      "hit": false,
      "t": 94804.43315000027,
      "d": 65.21744999999646,
      "v": 73
    },
    {
      "midi": 51,
      "hit": false,
      "t": 95021.82465000027,
      "d": 81.52181250001013,
      "v": 79
    },
    {
      "midi": 63,
      "hit": false,
      "t": 95029.0710333336,
      "d": 65.21745000001101,
      "v": 79
    },
    {
      "midi": 67,
      "hit": false,
      "t": 95030.88262916694,
      "d": 54.34787500000675,
      "v": 84
    },
    {
      "midi": 58,
      "hit": false,
      "t": 95030.88262916694,
      "d": 68.8406416666694,
      "v": 69
    },
    {
      "midi": 39,
      "hit": false,
      "t": 95237.40455416695,
      "d": 65.21745000001101,
      "v": 73
    },
    {
      "midi": 58,
      "hit": false,
      "t": 95251.89732083361,
      "d": 101.44936666666763,
      "v": 84
    },
    {
      "midi": 63,
      "hit": false,
      "t": 95255.52051250028,
      "d": 86.95660000000498,
      "v": 73
    },
    {
      "midi": 67,
      "hit": false,
      "t": 95257.33210833362,
      "d": 90.57979166666337,
      "v": 84
    },
    {
      "midi": 51,
      "hit": false,
      "t": 95454.79605416695,
      "d": 76.08702500000072,
      "v": 69
    },
    {
      "midi": 36,
      "hit": false,
      "t": 95673.99915000028,
      "d": 54.34787500000675,
      "v": 64
    },
    {
      "midi": 48,
      "hit": false,
      "t": 95889.57905416696,
      "d": 65.21745000001101,
      "v": 69
    },
    {
      "midi": 60,
      "hit": false,
      "t": 95898.63703333362,
      "d": 79.71021666667366,
      "v": 79
    },
    {
      "midi": 65,
      "hit": false,
      "t": 95898.63703333362,
      "d": 88.76819583334145,
      "v": 73
    },
    {
      "midi": 55,
      "hit": false,
      "t": 95900.44862916696,
      "d": 92.39138749999984,
      "v": 73
    },
    {
      "midi": 36,
      "hit": false,
      "t": 96103.3473625003,
      "d": 74.27542916666425,
      "v": 79
    },
    {
      "midi": 48,
      "hit": false,
      "t": 96322.55045833363,
      "d": 79.71021666667366,
      "v": 79
    },
    {
      "midi": 65,
      "hit": false,
      "t": 96340.66641666697,
      "d": 90.57979166667792,
      "v": 81
    },
    {
      "midi": 60,
      "hit": false,
      "t": 96342.4780125003,
      "d": 97.82617500000924,
      "v": 81
    },
    {
      "midi": 55,
      "hit": false,
      "t": 96342.4780125003,
      "d": 101.44936666668218,
      "v": 89
    },
    {
      "midi": 36,
      "hit": false,
      "t": 96541.75355416698,
      "d": 90.57979166666337,
      "v": 84
    },
    {
      "midi": 64,
      "hit": false,
      "t": 96751.89867083365,
      "d": 68.84064166668395,
      "v": 73
    },
    {
      "midi": 60,
      "hit": false,
      "t": 96753.71026666698,
      "d": 65.21745000001101,
      "v": 79
    },
    {
      "midi": 55,
      "hit": false,
      "t": 96757.33345833365,
      "d": 57.97106666666514,
      "v": 79
    },
    {
      "midi": 48,
      "hit": false,
      "t": 96759.14505416699,
      "d": 83.33340833333205,
      "v": 64
    },
    {
      "midi": 55,
      "hit": false,
      "t": 96971.101766667,
      "d": 97.82617500000924,
      "v": 79
    },
    {
      "midi": 64,
      "hit": false,
      "t": 96971.101766667,
      "d": 101.44936666668218,
      "v": 84
    },
    {
      "midi": 60,
      "hit": false,
      "t": 96972.91336250033,
      "d": 88.76819583334145,
      "v": 84
    },
    {
      "midi": 36,
      "hit": false,
      "t": 96976.536554167,
      "d": 86.95660000000498,
      "v": 60
    },
    {
      "midi": 48,
      "hit": false,
      "t": 97190.30486250034,
      "d": 86.95660000000498,
      "v": 67
    },
    {
      "midi": 41,
      "hit": false,
      "t": 97407.69636250034,
      "d": 85.14500416666851,
      "v": 80
    },
    {
      "midi": 60,
      "hit": false,
      "t": 97610.59509583368,
      "d": 146.7392625000066,
      "v": 67
    },
    {
      "midi": 70,
      "hit": false,
      "t": 97614.21828750035,
      "d": 117.75372916666674,
      "v": 69
    },
    {
      "midi": 65,
      "hit": false,
      "t": 97617.84147916702,
      "d": 148.5508583333285,
      "v": 67
    },
    {
      "midi": 53,
      "hit": false,
      "t": 97623.27626666702,
      "d": 76.08702500000072,
      "v": 67
    },
    {
      "midi": 68,
      "hit": false,
      "t": 97837.04457500036,
      "d": 99.63777083334571,
      "v": 64
    },
    {
      "midi": 65,
      "hit": false,
      "t": 97837.04457500036,
      "d": 106.88415416667704,
      "v": 73
    },
    {
      "midi": 41,
      "hit": false,
      "t": 97840.66776666703,
      "d": 76.08702500000072,
      "v": 75
    },
    {
      "midi": 60,
      "hit": false,
      "t": 97840.66776666703,
      "d": 108.69574999999895,
      "v": 64
    },
    {
      "midi": 53,
      "hit": false,
      "t": 98059.87086250036,
      "d": 72.46383333334234,
      "v": 69
    },
    {
      "midi": 70,
      "hit": false,
      "t": 98059.87086250036,
      "d": 139.49287916667527,
      "v": 84
    },
    {
      "midi": 65,
      "hit": false,
      "t": 98059.87086250036,
      "d": 157.6088374999963,
      "v": 79
    },
    {
      "midi": 60,
      "hit": false,
      "t": 98061.6824583337,
      "d": 150.36245416666497,
      "v": 64
    },
    {
      "midi": 41,
      "hit": false,
      "t": 98280.88555416702,
      "d": 79.71021666667366,
      "v": 84
    },
    {
      "midi": 53,
      "hit": false,
      "t": 98494.65386250036,
      "d": 81.52181250001013,
      "v": 73
    },
    {
      "midi": 65,
      "hit": false,
      "t": 98503.71184166703,
      "d": 96.01457916667277,
      "v": 69
    },
    {
      "midi": 60,
      "hit": false,
      "t": 98507.3350333337,
      "d": 94.2029833333363,
      "v": 55
    },
    {
      "midi": 68,
      "hit": false,
      "t": 98509.14662916704,
      "d": 90.57979166666337,
      "v": 79
    },
    {
      "midi": 41,
      "hit": false,
      "t": 98712.04536250037,
      "d": 83.33340833333205,
      "v": 84
    },
    {
      "midi": 65,
      "hit": false,
      "t": 98724.7265333337,
      "d": 121.37692083333968,
      "v": 69
    },
    {
      "midi": 68,
      "hit": false,
      "t": 98728.34972500037,
      "d": 135.86968750000233,
      "v": 67
    },
    {
      "midi": 60,
      "hit": false,
      "t": 98728.34972500037,
      "d": 137.6812833333388,
      "v": 73
    },
    {
      "midi": 53,
      "hit": false,
      "t": 98929.43686250037,
      "d": 76.08702500000072,
      "v": 69
    },
    {
      "midi": 37,
      "hit": false,
      "t": 99146.82836250037,
      "d": 70.65223750000587,
      "v": 84
    },
    {
      "midi": 61,
      "hit": false,
      "t": 99355.16188333371,
      "d": 70.65223750000587,
      "v": 73
    },
    {
      "midi": 65,
      "hit": false,
      "t": 99356.97347916705,
      "d": 48.913087499997346,
      "v": 69
    },
    {
      "midi": 68,
      "hit": false,
      "t": 99356.97347916705,
      "d": 56.15947083332867,
      "v": 73
    },
    {
      "midi": 49,
      "hit": false,
      "t": 99364.21986250038,
      "d": 59.78266250000161,
      "v": 82
    },
    {
      "midi": 65,
      "hit": false,
      "t": 99568.93019166705,
      "d": 56.15947083332867,
      "v": 84
    },
    {
      "midi": 68,
      "hit": false,
      "t": 99568.93019166705,
      "d": 61.59425833332352,
      "v": 67
    },
    {
      "midi": 61,
      "hit": false,
      "t": 99568.93019166705,
      "d": 85.14500416665396,
      "v": 79
    },
    {
      "midi": 37,
      "hit": false,
      "t": 99581.61136250038,
      "d": 76.08702500000072,
      "v": 73
    },
    {
      "midi": 65,
      "hit": false,
      "t": 99799.00286250038,
      "d": 70.65223750000587,
      "v": 89
    },
    {
      "midi": 68,
      "hit": false,
      "t": 99799.00286250038,
      "d": 79.71021666667366,
      "v": 89
    },
    {
      "midi": 61,
      "hit": false,
      "t": 99799.00286250038,
      "d": 96.01457916667277,
      "v": 75
    },
    {
      "midi": 49,
      "hit": false,
      "t": 99802.62605416705,
      "d": 48.913087499997346,
      "v": 80
    },
    {
      "midi": 37,
      "hit": false,
      "t": 100016.39436250039,
      "d": 81.52181249999558,
      "v": 73
    },
    {
      "midi": 65,
      "hit": false,
      "t": 100233.78586250039,
      "d": 61.594258333338075,
      "v": 84
    },
    {
      "midi": 60,
      "hit": false,
      "t": 100233.78586250039,
      "d": 76.08702500000072,
      "v": 79
    },
    {
      "midi": 49,
      "hit": false,
      "t": 100237.40905416706,
      "d": 65.21744999999646,
      "v": 78
    },
    {
      "midi": 68,
      "hit": false,
      "t": 100239.2206500004,
      "d": 65.21744999999646,
      "v": 84
    },
    {
      "midi": 65,
      "hit": false,
      "t": 100451.17736250038,
      "d": 81.52181250001013,
      "v": 84
    },
    {
      "midi": 61,
      "hit": false,
      "t": 100451.17736250038,
      "d": 106.88415416667704,
      "v": 91
    },
    {
      "midi": 37,
      "hit": false,
      "t": 100452.98895833372,
      "d": 90.57979166667792,
      "v": 73
    },
    {
      "midi": 68,
      "hit": false,
      "t": 100454.80055416706,
      "d": 88.76819583334145,
      "v": 79
    },
    {
      "midi": 49,
      "hit": false,
      "t": 100672.19205416706,
      "d": 61.594258333338075,
      "v": 84
    },
    {
      "midi": 39,
      "hit": false,
      "t": 100885.9603625004,
      "d": 96.01457916667277,
      "v": 79
    },
    {
      "midi": 51,
      "hit": false,
      "t": 101106.97505416707,
      "d": 72.46383333334234,
      "v": 73
    },
    {
      "midi": 63,
      "hit": false,
      "t": 101126.90260833374,
      "d": 65.21744999999646,
      "v": 84
    },
    {
      "midi": 58,
      "hit": false,
      "t": 101132.33739583373,
      "d": 54.34787500000675,
      "v": 91
    },
    {
      "midi": 68,
      "hit": false,
      "t": 101135.9605875004,
      "d": 61.59425833332352,
      "v": 79
    },
    {
      "midi": 39,
      "hit": false,
      "t": 101320.74336250039,
      "d": 86.95660000000498,
      "v": 73
    },
    {
      "midi": 51,
      "hit": false,
      "t": 101541.75805416706,
      "d": 72.46383333332778,
      "v": 78
    },
    {
      "midi": 63,
      "hit": false,
      "t": 101563.49720416706,
      "d": 106.88415416666248,
      "v": 79
    },
    {
      "midi": 68,
      "hit": false,
      "t": 101563.49720416706,
      "d": 115.94213333333028,
      "v": 91
    },
    {
      "midi": 58,
      "hit": false,
      "t": 101567.12039583373,
      "d": 97.82617499999469,
      "v": 84
    },
    {
      "midi": 39,
      "hit": false,
      "t": 101759.14955416706,
      "d": 79.71021666667366,
      "v": 79
    },
    {
      "midi": 51,
      "hit": false,
      "t": 101976.54105416707,
      "d": 67.02904583334748,
      "v": 84
    },
    {
      "midi": 63,
      "hit": false,
      "t": 101985.59903333374,
      "d": 65.21745000001101,
      "v": 79
    },
    {
      "midi": 67,
      "hit": false,
      "t": 101987.41062916708,
      "d": 54.34787500000675,
      "v": 84
    },
    {
      "midi": 58,
      "hit": false,
      "t": 101987.41062916708,
      "d": 68.8406416666694,
      "v": 69
    },
    {
      "midi": 39,
      "hit": false,
      "t": 102190.30936250041,
      "d": 74.2754291666788,
      "v": 69
    },
    {
      "midi": 58,
      "hit": false,
      "t": 102208.42532083375,
      "d": 101.44936666666763,
      "v": 84
    },
    {
      "midi": 63,
      "hit": false,
      "t": 102212.04851250042,
      "d": 86.95660000000498,
      "v": 73
    },
    {
      "midi": 67,
      "hit": false,
      "t": 102213.86010833376,
      "d": 90.57979166666337,
      "v": 84
    },
    {
      "midi": 51,
      "hit": false,
      "t": 102411.32405416708,
      "d": 65.21744999999646,
      "v": 84
    },
    {
      "midi": 36,
      "hit": false,
      "t": 102625.0923625004,
      "d": 76.08702500000072,
      "v": 91
    },
    {
      "midi": 48,
      "hit": false,
      "t": 102846.10705416708,
      "d": 76.08702500000072,
      "v": 73
    },
    {
      "midi": 60,
      "hit": false,
      "t": 102855.16503333375,
      "d": 79.71021666665911,
      "v": 79
    },
    {
      "midi": 65,
      "hit": false,
      "t": 102855.16503333375,
      "d": 88.7681958333269,
      "v": 73
    },
    {
      "midi": 55,
      "hit": false,
      "t": 102856.97662916708,
      "d": 92.39138749998529,
      "v": 73
    },
    {
      "midi": 36,
      "hit": false,
      "t": 103063.49855416706,
      "d": 76.08702500000072,
      "v": 79
    },
    {
      "midi": 48,
      "hit": false,
      "t": 103277.2668625004,
      "d": 76.08702500001527,
      "v": 79
    },
    {
      "midi": 65,
      "hit": false,
      "t": 103297.19441666707,
      "d": 90.57979166667792,
      "v": 81
    },
    {
      "midi": 60,
      "hit": false,
      "t": 103299.00601250041,
      "d": 97.82617500000924,
      "v": 81
    },
    {
      "midi": 55,
      "hit": false,
      "t": 103299.00601250041,
      "d": 101.44936666668218,
      "v": 89
    },
    {
      "midi": 36,
      "hit": false,
      "t": 103498.28155416709,
      "d": 83.33340833333205,
      "v": 84
    },
    {
      "midi": 64,
      "hit": false,
      "t": 103708.42667083375,
      "d": 68.84064166668395,
      "v": 73
    },
    {
      "midi": 60,
      "hit": false,
      "t": 103710.23826666709,
      "d": 65.21745000001101,
      "v": 79
    },
    {
      "midi": 55,
      "hit": false,
      "t": 103713.86145833376,
      "d": 57.97106666666514,
      "v": 79
    },
    {
      "midi": 48,
      "hit": false,
      "t": 103713.86145833376,
      "d": 76.08702500000072,
      "v": 79
    },
    {
      "midi": 55,
      "hit": false,
      "t": 103927.6297666671,
      "d": 97.82617500000924,
      "v": 79
    },
    {
      "midi": 64,
      "hit": false,
      "t": 103927.6297666671,
      "d": 101.44936666668218,
      "v": 84
    },
    {
      "midi": 60,
      "hit": false,
      "t": 103929.44136250044,
      "d": 88.76819583334145,
      "v": 84
    },
    {
      "midi": 36,
      "hit": false,
      "t": 103931.25295833377,
      "d": 110.50734583333542,
      "v": 84
    },
    {
      "midi": 48,
      "hit": false,
      "t": 104146.83286250045,
      "d": 117.75372916666674,
      "v": 73
    },
    {
      "midi": 41,
      "hit": false,
      "t": 104364.22436250045,
      "d": 88.7681958333269,
      "v": 67
    },
    {
      "midi": 60,
      "hit": false,
      "t": 104567.12309583377,
      "d": 146.7392625000066,
      "v": 67
    },
    {
      "midi": 70,
      "hit": false,
      "t": 104570.74628750044,
      "d": 117.75372916666674,
      "v": 69
    },
    {
      "midi": 65,
      "hit": false,
      "t": 104574.36947916712,
      "d": 148.5508583333285,
      "v": 67
    },
    {
      "midi": 53,
      "hit": false,
      "t": 104581.61586250045,
      "d": 76.08702500000072,
      "v": 79
    },
    {
      "midi": 68,
      "hit": false,
      "t": 104793.57257500045,
      "d": 99.63777083334571,
      "v": 64
    },
    {
      "midi": 65,
      "hit": false,
      "t": 104793.57257500045,
      "d": 106.88415416667704,
      "v": 73
    },
    {
      "midi": 60,
      "hit": false,
      "t": 104797.19576666712,
      "d": 108.69574999999895,
      "v": 64
    },
    {
      "midi": 41,
      "hit": false,
      "t": 104800.8189583338,
      "d": 85.14500416666851,
      "v": 91
    },
    {
      "midi": 53,
      "hit": false,
      "t": 105016.39886250046,
      "d": 79.71021666667366,
      "v": 76
    },
    {
      "midi": 70,
      "hit": false,
      "t": 105016.39886250046,
      "d": 139.49287916667527,
      "v": 84
    },
    {
      "midi": 65,
      "hit": false,
      "t": 105016.39886250046,
      "d": 157.6088374999963,
      "v": 79
    },
    {
      "midi": 60,
      "hit": false,
      "t": 105018.2104583338,
      "d": 150.36245416666497,
      "v": 64
    },
    {
      "midi": 41,
      "hit": false,
      "t": 105237.41355416711,
      "d": 103.2609625000041,
      "v": 79
    },
    {
      "midi": 53,
      "hit": false,
      "t": 105452.99345833379,
      "d": 77.89862083333719,
      "v": 69
    },
    {
      "midi": 65,
      "hit": false,
      "t": 105460.23984166712,
      "d": 96.01457916667277,
      "v": 69
    },
    {
      "midi": 60,
      "hit": false,
      "t": 105463.8630333338,
      "d": 94.2029833333363,
      "v": 55
    },
    {
      "midi": 68,
      "hit": false,
      "t": 105465.67462916713,
      "d": 90.57979166666337,
      "v": 79
    },
    {
      "midi": 41,
      "hit": false,
      "t": 105668.57336250047,
      "d": 90.57979166666337,
      "v": 79
    },
    {
      "midi": 65,
      "hit": false,
      "t": 105681.25453333379,
      "d": 121.37692083333968,
      "v": 69
    },
    {
      "midi": 68,
      "hit": false,
      "t": 105684.87772500046,
      "d": 135.86968750000233,
      "v": 67
    },
    {
      "midi": 60,
      "hit": false,
      "t": 105684.87772500046,
      "d": 137.6812833333388,
      "v": 73
    },
    {
      "midi": 53,
      "hit": false,
      "t": 105885.96486250046,
      "d": 72.46383333332778,
      "v": 79
    },
    {
      "midi": 37,
      "hit": false,
      "t": 106103.35636250046,
      "d": 88.7681958333269,
      "v": 69
    },
    {
      "midi": 61,
      "hit": false,
      "t": 106311.68988333379,
      "d": 70.65223750000587,
      "v": 73
    },
    {
      "midi": 65,
      "hit": false,
      "t": 106313.50147916713,
      "d": 48.913087499997346,
      "v": 69
    },
    {
      "midi": 68,
      "hit": false,
      "t": 106313.50147916713,
      "d": 56.15947083332867,
      "v": 73
    },
    {
      "midi": 49,
      "hit": false,
      "t": 106320.74786250046,
      "d": 52.53627916667028,
      "v": 79
    },
    {
      "midi": 65,
      "hit": false,
      "t": 106525.45819166713,
      "d": 56.15947083332867,
      "v": 84
    },
    {
      "midi": 68,
      "hit": false,
      "t": 106525.45819166713,
      "d": 61.59425833332352,
      "v": 67
    },
    {
      "midi": 61,
      "hit": false,
      "t": 106525.45819166713,
      "d": 85.14500416665396,
      "v": 79
    },
    {
      "midi": 37,
      "hit": false,
      "t": 106538.13936250046,
      "d": 74.27542916666425,
      "v": 73
    },
    {
      "midi": 49,
      "hit": false,
      "t": 106755.53086250045,
      "d": 48.913087499997346,
      "v": 79
    },
    {
      "midi": 65,
      "hit": false,
      "t": 106755.53086250045,
      "d": 70.65223749999132,
      "v": 89
    },
    {
      "midi": 68,
      "hit": false,
      "t": 106755.53086250045,
      "d": 79.71021666665911,
      "v": 89
    },
    {
      "midi": 61,
      "hit": false,
      "t": 106755.53086250045,
      "d": 96.01457916665822,
      "v": 75
    },
    {
      "midi": 37,
      "hit": false,
      "t": 106972.92236250045,
      "d": 70.65223750000587,
      "v": 73
    },
    {
      "midi": 49,
      "hit": false,
      "t": 107190.31386250046,
      "d": 52.53627916665573,
      "v": 84
    },
    {
      "midi": 65,
      "hit": false,
      "t": 107190.31386250046,
      "d": 61.59425833332352,
      "v": 84
    },
    {
      "midi": 60,
      "hit": false,
      "t": 107190.31386250046,
      "d": 76.08702499998617,
      "v": 79
    },
    {
      "midi": 68,
      "hit": false,
      "t": 107195.74865000046,
      "d": 65.21744999999646,
      "v": 84
    },
    {
      "midi": 37,
      "hit": false,
      "t": 107407.70536250045,
      "d": 77.89862083333719,
      "v": 73
    },
    {
      "midi": 65,
      "hit": false,
      "t": 107407.70536250045,
      "d": 81.52181250001013,
      "v": 84
    },
    {
      "midi": 61,
      "hit": false,
      "t": 107407.70536250045,
      "d": 106.88415416667704,
      "v": 91
    },
    {
      "midi": 68,
      "hit": false,
      "t": 107411.32855416712,
      "d": 88.76819583334145,
      "v": 79
    },
    {
      "midi": 49,
      "hit": false,
      "t": 107625.09686250046,
      "d": 54.34787500000675,
      "v": 79
    },
    {
      "midi": 39,
      "hit": false,
      "t": 107842.48836250047,
      "d": 81.52181249999558,
      "v": 84
    },
    {
      "midi": 51,
      "hit": false,
      "t": 108063.50305416713,
      "d": 65.21745000001101,
      "v": 73
    },
    {
      "midi": 63,
      "hit": false,
      "t": 108083.4306083338,
      "d": 65.21744999999646,
      "v": 84
    },
    {
      "midi": 58,
      "hit": false,
      "t": 108088.8653958338,
      "d": 54.34787500000675,
      "v": 91
    },
    {
      "midi": 68,
      "hit": false,
      "t": 108092.48858750047,
      "d": 61.59425833332352,
      "v": 79
    },
    {
      "midi": 39,
      "hit": false,
      "t": 108280.89455416713,
      "d": 76.08702500000072,
      "v": 69
    },
    {
      "midi": 51,
      "hit": false,
      "t": 108498.28605416713,
      "d": 85.14500416666851,
      "v": 84
    },
    {
      "midi": 63,
      "hit": false,
      "t": 108520.02520416712,
      "d": 106.88415416666248,
      "v": 79
    },
    {
      "midi": 68,
      "hit": false,
      "t": 108520.02520416712,
      "d": 115.94213333333028,
      "v": 91
    },
    {
      "midi": 58,
      "hit": false,
      "t": 108523.64839583379,
      "d": 97.82617499999469,
      "v": 84
    },
    {
      "midi": 39,
      "hit": false,
      "t": 108717.48915000045,
      "d": 65.21744999999646,
      "v": 73
    },
    {
      "midi": 51,
      "hit": false,
      "t": 108934.88065000044,
      "d": 81.52181250001013,
      "v": 79
    },
    {
      "midi": 63,
      "hit": false,
      "t": 108942.12703333377,
      "d": 65.21745000001101,
      "v": 79
    },
    {
      "midi": 67,
      "hit": false,
      "t": 108943.93862916711,
      "d": 54.34787500000675,
      "v": 84
    },
    {
      "midi": 58,
      "hit": false,
      "t": 108943.93862916711,
      "d": 68.8406416666694,
      "v": 69
    },
    {
      "midi": 39,
      "hit": false,
      "t": 109150.46055416712,
      "d": 65.21745000001101,
      "v": 73
    },
    {
      "midi": 58,
      "hit": false,
      "t": 109164.95332083378,
      "d": 101.44936666666763,
      "v": 84
    },
    {
      "midi": 63,
      "hit": false,
      "t": 109168.57651250045,
      "d": 86.95660000000498,
      "v": 73
    },
    {
      "midi": 67,
      "hit": false,
      "t": 109170.38810833379,
      "d": 90.57979166666337,
      "v": 84
    },
    {
      "midi": 51,
      "hit": false,
      "t": 109367.85205416712,
      "d": 76.08702500000072,
      "v": 69
    },
    {
      "midi": 36,
      "hit": false,
      "t": 109587.05515000045,
      "d": 54.34787500000675,
      "v": 64
    },
    {
      "midi": 48,
      "hit": false,
      "t": 109802.63505416713,
      "d": 65.21745000001101,
      "v": 69
    },
    {
      "midi": 60,
      "hit": false,
      "t": 109811.6930333338,
      "d": 79.71021666667366,
      "v": 79
    },
    {
      "midi": 65,
      "hit": false,
      "t": 109811.6930333338,
      "d": 88.76819583334145,
      "v": 73
    },
    {
      "midi": 55,
      "hit": false,
      "t": 109813.50462916713,
      "d": 92.39138749999984,
      "v": 73
    },
    {
      "midi": 36,
      "hit": false,
      "t": 110016.40336250047,
      "d": 74.27542916666425,
      "v": 79
    },
    {
      "midi": 48,
      "hit": false,
      "t": 110235.6064583338,
      "d": 79.71021666667366,
      "v": 79
    },
    {
      "midi": 65,
      "hit": false,
      "t": 110253.72241666714,
      "d": 90.57979166667792,
      "v": 81
    },
    {
      "midi": 60,
      "hit": false,
      "t": 110255.53401250047,
      "d": 97.82617500000924,
      "v": 81
    },
    {
      "midi": 55,
      "hit": false,
      "t": 110255.53401250047,
      "d": 101.44936666668218,
      "v": 89
    },
    {
      "midi": 36,
      "hit": false,
      "t": 110454.80955416715,
      "d": 90.57979166666337,
      "v": 84
    },
    {
      "midi": 64,
      "hit": false,
      "t": 110664.95467083382,
      "d": 68.84064166668395,
      "v": 73
    },
    {
      "midi": 60,
      "hit": false,
      "t": 110666.76626666715,
      "d": 65.21745000001101,
      "v": 79
    },
    {
      "midi": 55,
      "hit": false,
      "t": 110670.38945833383,
      "d": 57.97106666666514,
      "v": 79
    },
    {
      "midi": 48,
      "hit": false,
      "t": 110672.20105416716,
      "d": 83.33340833333205,
      "v": 64
    },
    {
      "midi": 55,
      "hit": false,
      "t": 110884.15776666717,
      "d": 97.82617500000924,
      "v": 79
    },
    {
      "midi": 64,
      "hit": false,
      "t": 110884.15776666717,
      "d": 101.44936666668218,
      "v": 84
    },
    {
      "midi": 60,
      "hit": false,
      "t": 110885.9693625005,
      "d": 88.76819583334145,
      "v": 84
    },
    {
      "midi": 36,
      "hit": false,
      "t": 110889.59255416717,
      "d": 86.95660000000498,
      "v": 60
    },
    {
      "midi": 48,
      "hit": false,
      "t": 111103.36086250051,
      "d": 86.95660000000498,
      "v": 67
    },
    {
      "midi": 41,
      "hit": false,
      "t": 111320.75236250051,
      "d": 85.14500416666851,
      "v": 80
    },
    {
      "midi": 60,
      "hit": false,
      "t": 111523.65109583385,
      "d": 146.7392625000066,
      "v": 67
    },
    {
      "midi": 70,
      "hit": false,
      "t": 111527.27428750052,
      "d": 117.75372916666674,
      "v": 69
    },
    {
      "midi": 65,
      "hit": false,
      "t": 111530.8974791672,
      "d": 148.5508583333285,
      "v": 67
    },
    {
      "midi": 53,
      "hit": false,
      "t": 111536.33226666719,
      "d": 76.08702500000072,
      "v": 67
    },
    {
      "midi": 68,
      "hit": false,
      "t": 111750.10057500053,
      "d": 99.63777083334571,
      "v": 64
    },
    {
      "midi": 65,
      "hit": false,
      "t": 111750.10057500053,
      "d": 106.88415416667704,
      "v": 73
    },
    {
      "midi": 41,
      "hit": false,
      "t": 111753.7237666672,
      "d": 76.08702500000072,
      "v": 75
    },
    {
      "midi": 60,
      "hit": false,
      "t": 111753.7237666672,
      "d": 108.69574999999895,
      "v": 64
    },
    {
      "midi": 53,
      "hit": false,
      "t": 111972.92686250054,
      "d": 72.46383333334234,
      "v": 69
    },
    {
      "midi": 70,
      "hit": false,
      "t": 111972.92686250054,
      "d": 139.49287916667527,
      "v": 84
    },
    {
      "midi": 65,
      "hit": false,
      "t": 111972.92686250054,
      "d": 157.6088374999963,
      "v": 79
    },
    {
      "midi": 60,
      "hit": false,
      "t": 111974.73845833387,
      "d": 150.36245416666497,
      "v": 64
    },
    {
      "midi": 41,
      "hit": false,
      "t": 112193.94155416719,
      "d": 79.71021666667366,
      "v": 84
    },
    {
      "midi": 53,
      "hit": false,
      "t": 112407.70986250053,
      "d": 81.52181250001013,
      "v": 73
    },
    {
      "midi": 65,
      "hit": false,
      "t": 112416.7678416672,
      "d": 96.01457916667277,
      "v": 69
    },
    {
      "midi": 60,
      "hit": false,
      "t": 112420.39103333387,
      "d": 94.2029833333363,
      "v": 55
    },
    {
      "midi": 68,
      "hit": false,
      "t": 112422.20262916721,
      "d": 90.57979166666337,
      "v": 79
    },
    {
      "midi": 58,
      "hit": false,
      "t": 112849.73924583387,
      "d": 782.6094000000012,
      "v": 64
    },
    {
      "midi": 61,
      "hit": false,
      "t": 112853.36243750055,
      "d": 713.7687583333318,
      "v": 64
    },
    {
      "midi": 68,
      "hit": false,
      "t": 112858.79722500054,
      "d": 789.8557833333325,
      "v": 64
    },
    {
      "midi": 65,
      "hit": false,
      "t": 112858.79722500054,
      "d": 835.1456791666715,
      "v": 67
    },
    {
      "midi": 48,
      "hit": false,
      "t": 113722.92843750055,
      "d": 759.0586541666707,
      "v": 91
    },
    {
      "midi": 60,
      "hit": false,
      "t": 113731.98641666722,
      "d": 648.5513083333353,
      "v": 73
    },
    {
      "midi": 65,
      "hit": false,
      "t": 113733.79801250056,
      "d": 730.0731208333309,
      "v": 60
    },
    {
      "midi": 68,
      "hit": false,
      "t": 113744.66758750056,
      "d": 721.0151416666631,
      "v": 55
    },
    {
      "midi": 49,
      "hit": false,
      "t": 114588.87124583389,
      "d": 793.4789750000054,
      "v": 91
    },
    {
      "midi": 61,
      "hit": false,
      "t": 114592.49443750056,
      "d": 804.3485499999952,
      "v": 64
    },
    {
      "midi": 68,
      "hit": false,
      "t": 114594.3060333339,
      "d": 722.8267374999996,
      "v": 67
    },
    {
      "midi": 65,
      "hit": false,
      "t": 114594.3060333339,
      "d": 807.9717416666535,
      "v": 73
    },
    {
      "midi": 50,
      "hit": false,
      "t": 115443.94447916721,
      "d": 807.9717416666681,
      "v": 84
    },
    {
      "midi": 65,
      "hit": false,
      "t": 115449.37926666721,
      "d": 793.4789750000054,
      "v": 60
    },
    {
      "midi": 58,
      "hit": false,
      "t": 115451.19086250055,
      "d": 762.6818458333437,
      "v": 79
    },
    {
      "midi": 68,
      "hit": false,
      "t": 115451.19086250055,
      "d": 769.928229166675,
      "v": 73
    },
    {
      "midi": 62,
      "hit": false,
      "t": 115453.00245833388,
      "d": 797.1021666666638,
      "v": 69
    },
    {
      "midi": 52,
      "hit": false,
      "t": 116538.14836250055,
      "d": 304.3481000000029,
      "v": 79
    },
    {
      "midi": 60,
      "hit": false,
      "t": 116538.14836250055,
      "d": 307.9712916666758,
      "v": 73
    },
    {
      "midi": 64,
      "hit": false,
      "t": 116538.14836250055,
      "d": 315.21767500000715,
      "v": 69
    },
    {
      "midi": 67,
      "hit": false,
      "t": 116538.14836250055,
      "d": 327.8988458333333,
      "v": 91
    },
    {
      "midi": 60,
      "hit": false,
      "t": 116976.55455416722,
      "d": 63.40585416665999,
      "v": 62
    },
    {
      "midi": 67,
      "hit": false,
      "t": 116976.55455416722,
      "d": 88.7681958333269,
      "v": 69
    },
    {
      "midi": 52,
      "hit": false,
      "t": 116976.55455416722,
      "d": 94.20298333332175,
      "v": 73
    },
    {
      "midi": 64,
      "hit": false,
      "t": 116976.55455416722,
      "d": 94.20298333332175,
      "v": 60
    },
    {
      "midi": 68,
      "hit": false,
      "t": 117193.9460541672,
      "d": 211.95671250000305,
      "v": 79
    },
    {
      "midi": 53,
      "hit": false,
      "t": 117193.9460541672,
      "d": 269.9277791666682,
      "v": 64
    },
    {
      "midi": 65,
      "hit": false,
      "t": 117193.9460541672,
      "d": 277.1741624999995,
      "v": 79
    },
    {
      "midi": 60,
      "hit": false,
      "t": 117193.9460541672,
      "d": 278.985758333336,
      "v": 79
    },
    {
      "midi": 53,
      "hit": false,
      "t": 117623.2942666672,
      "d": 307.9712916666613,
      "v": 91
    },
    {
      "midi": 65,
      "hit": false,
      "t": 117623.2942666672,
      "d": 329.71044166665524,
      "v": 79
    },
    {
      "midi": 60,
      "hit": false,
      "t": 117623.2942666672,
      "d": 344.2032083333179,
      "v": 79
    },
    {
      "midi": 68,
      "hit": false,
      "t": 117623.2942666672,
      "d": 349.63799583331274,
      "v": 91
    },
    {
      "midi": 55,
      "hit": false,
      "t": 118059.88886250052,
      "d": 797.1021666666638,
      "v": 73
    },
    {
      "midi": 64,
      "hit": false,
      "t": 118063.5120541672,
      "d": 755.4354624999978,
      "v": 84
    },
    {
      "midi": 60,
      "hit": false,
      "t": 118063.5120541672,
      "d": 769.9282291666605,
      "v": 79
    },
    {
      "midi": 67,
      "hit": false,
      "t": 118063.5120541672,
      "d": 797.1021666666638,
      "v": 91
    },
    {
      "midi": 65,
      "hit": false,
      "t": 118929.45486250053,
      "d": 623.1889666666684,
      "v": 79
    },
    {
      "midi": 56,
      "hit": false,
      "t": 118929.45486250053,
      "d": 625.0005625000049,
      "v": 84
    },
    {
      "midi": 60,
      "hit": false,
      "t": 118929.45486250053,
      "d": 634.0585416666727,
      "v": 84
    },
    {
      "midi": 68,
      "hit": false,
      "t": 118933.0780541672,
      "d": 577.8990708333295,
      "v": 91
    },
    {
      "midi": 60,
      "hit": false,
      "t": 119581.62936250053,
      "d": 324.2756541666604,
      "v": 67
    },
    {
      "midi": 56,
      "hit": false,
      "t": 119581.62936250053,
      "d": 338.76842083332303,
      "v": 73
    },
    {
      "midi": 65,
      "hit": false,
      "t": 119581.62936250053,
      "d": 347.8263999999908,
      "v": 79
    },
    {
      "midi": 68,
      "hit": false,
      "t": 119581.62936250053,
      "d": 380.43512499998906,
      "v": 84
    },
    {
      "midi": 65,
      "hit": false,
      "t": 120050.83268333385,
      "d": 769.928229166675,
      "v": 84
    },
    {
      "midi": 60,
      "hit": false,
      "t": 120050.83268333385,
      "d": 777.1746125000063,
      "v": 84
    },
    {
      "midi": 67,
      "hit": false,
      "t": 120052.64427916719,
      "d": 764.4934416666656,
      "v": 84
    },
    {
      "midi": 60,
      "hit": false,
      "t": 120880.54357500053,
      "d": 880.4355750000104,
      "v": 69
    },
    {
      "midi": 67,
      "hit": false,
      "t": 120882.35517083386,
      "d": 876.8123833333375,
      "v": 69
    },
    {
      "midi": 65,
      "hit": false,
      "t": 120884.1667666672,
      "d": 865.9428083333332,
      "v": 69
    },
    {
      "midi": 60,
      "hit": false,
      "t": 123500.11115000054,
      "d": 2103.2627625000023,
      "v": 84
    },
    {
      "midi": 53,
      "hit": false,
      "t": 123500.11115000054,
      "d": 2108.697549999997,
      "v": 99
    },
    {
      "midi": 56,
      "hit": false,
      "t": 123500.11115000054,
      "d": 2130.436699999991,
      "v": 79
    },
    {
      "midi": 53,
      "hit": false,
      "t": 126116.05553333386,
      "d": 188.4059666666726,
      "v": 84
    },
    {
      "midi": 56,
      "hit": false,
      "t": 126116.05553333386,
      "d": 224.63788333332923,
      "v": 84
    },
    {
      "midi": 61,
      "hit": false,
      "t": 126117.86712916719,
      "d": 217.3914999999979,
      "v": 79
    },
    {
      "midi": 58,
      "hit": false,
      "t": 126438.51959166718,
      "d": 63.405854166674544,
      "v": 84
    },
    {
      "midi": 55,
      "hit": false,
      "t": 126440.33118750052,
      "d": 65.21745000001101,
      "v": 84
    },
    {
      "midi": 51,
      "hit": false,
      "t": 126442.14278333385,
      "d": 61.594258333338075,
      "v": 64
    },
    {
      "midi": 60,
      "hit": false,
      "t": 126766.41843750053,
      "d": 2353.2629874999984,
      "v": 99
    },
    {
      "midi": 56,
      "hit": false,
      "t": 126766.41843750053,
      "d": 2371.378945833334,
      "v": 84
    },
    {
      "midi": 53,
      "hit": false,
      "t": 126768.23003333386,
      "d": 2338.7702208333358,
      "v": 69
    },
    {
      "midi": 56,
      "hit": false,
      "t": 129581.63836250053,
      "d": 215.579904166676,
      "v": 91
    },
    {
      "midi": 53,
      "hit": false,
      "t": 129585.2615541672,
      "d": 193.84075416666747,
      "v": 73
    },
    {
      "midi": 61,
      "hit": false,
      "t": 129585.2615541672,
      "d": 226.4494791666657,
      "v": 84
    },
    {
      "midi": 58,
      "hit": false,
      "t": 129914.97199583387,
      "d": 41.66670416666602,
      "v": 79
    },
    {
      "midi": 51,
      "hit": false,
      "t": 129916.7835916672,
      "d": 32.60872499999823,
      "v": 73
    },
    {
      "midi": 55,
      "hit": false,
      "t": 129916.7835916672,
      "d": 45.28989583332441,
      "v": 91
    },
    {
      "midi": 53,
      "hit": false,
      "t": 130237.43605416719,
      "d": 2356.8861791666714,
      "v": 84
    },
    {
      "midi": 56,
      "hit": false,
      "t": 130237.43605416719,
      "d": 2371.378945833334,
      "v": 79
    },
    {
      "midi": 60,
      "hit": false,
      "t": 130237.43605416719,
      "d": 2378.62532916668,
      "v": 99
    },
    {
      "midi": 56,
      "hit": false,
      "t": 133056.27917083388,
      "d": 237.31905416666996,
      "v": 79
    },
    {
      "midi": 53,
      "hit": false,
      "t": 133058.0907666672,
      "d": 230.07267083332408,
      "v": 64
    },
    {
      "midi": 61,
      "hit": false,
      "t": 133058.0907666672,
      "d": 257.246608333342,
      "v": 91
    },
    {
      "midi": 55,
      "hit": false,
      "t": 133382.3664208339,
      "d": 83.33340833333205,
      "v": 79
    },
    {
      "midi": 58,
      "hit": false,
      "t": 133382.3664208339,
      "d": 88.76819583334145,
      "v": 73
    },
    {
      "midi": 51,
      "hit": false,
      "t": 133384.17801666723,
      "d": 88.76819583334145,
      "v": 79
    },
    {
      "midi": 60,
      "hit": false,
      "t": 133722.94643750056,
      "d": 2353.2629874999984,
      "v": 99
    },
    {
      "midi": 56,
      "hit": false,
      "t": 133722.94643750056,
      "d": 2371.378945833334,
      "v": 84
    },
    {
      "midi": 53,
      "hit": false,
      "t": 133724.7580333339,
      "d": 2338.7702208333358,
      "v": 69
    },
    {
      "midi": 56,
      "hit": false,
      "t": 136538.16636250057,
      "d": 215.57990416666144,
      "v": 91
    },
    {
      "midi": 53,
      "hit": false,
      "t": 136541.78955416725,
      "d": 193.8407541666529,
      "v": 73
    },
    {
      "midi": 61,
      "hit": false,
      "t": 136541.78955416725,
      "d": 226.44947916665114,
      "v": 84
    },
    {
      "midi": 58,
      "hit": false,
      "t": 136871.4999958339,
      "d": 41.666704166680574,
      "v": 79
    },
    {
      "midi": 51,
      "hit": false,
      "t": 136873.31159166724,
      "d": 32.60872499999823,
      "v": 73
    },
    {
      "midi": 55,
      "hit": false,
      "t": 136873.31159166724,
      "d": 45.28989583335351,
      "v": 91
    },
    {
      "midi": 53,
      "hit": false,
      "t": 137193.96405416727,
      "d": 2356.8861791666714,
      "v": 84
    },
    {
      "midi": 56,
      "hit": false,
      "t": 137193.96405416727,
      "d": 2371.378945833334,
      "v": 79
    },
    {
      "midi": 60,
      "hit": false,
      "t": 137193.96405416727,
      "d": 2378.62532916668,
      "v": 99
    },
    {
      "midi": 56,
      "hit": false,
      "t": 140012.80717083396,
      "d": 237.31905416666996,
      "v": 79
    },
    {
      "midi": 53,
      "hit": false,
      "t": 140014.6187666673,
      "d": 230.07267083332408,
      "v": 64
    },
    {
      "midi": 61,
      "hit": false,
      "t": 140014.6187666673,
      "d": 257.246608333342,
      "v": 91
    },
    {
      "midi": 55,
      "hit": false,
      "t": 140338.89442083397,
      "d": 83.33340833333205,
      "v": 79
    },
    {
      "midi": 58,
      "hit": false,
      "t": 140338.89442083397,
      "d": 88.76819583334145,
      "v": 73
    },
    {
      "midi": 51,
      "hit": false,
      "t": 140340.7060166673,
      "d": 88.76819583334145,
      "v": 79
    },
    {
      "midi": 60,
      "hit": false,
      "t": 140679.47443750064,
      "d": 2353.2629874999984,
      "v": 99
    },
    {
      "midi": 56,
      "hit": false,
      "t": 140679.47443750064,
      "d": 2371.378945833334,
      "v": 84
    },
    {
      "midi": 53,
      "hit": false,
      "t": 140681.28603333398,
      "d": 2338.7702208333358,
      "v": 69
    },
    {
      "midi": 56,
      "hit": false,
      "t": 143494.69436250065,
      "d": 215.57990416666144,
      "v": 91
    },
    {
      "midi": 53,
      "hit": false,
      "t": 143498.31755416733,
      "d": 193.8407541666529,
      "v": 73
    },
    {
      "midi": 61,
      "hit": false,
      "t": 143498.31755416733,
      "d": 226.44947916665114,
      "v": 84
    },
    {
      "midi": 58,
      "hit": false,
      "t": 143828.02799583398,
      "d": 41.666704166680574,
      "v": 79
    },
    {
      "midi": 51,
      "hit": false,
      "t": 143829.83959166732,
      "d": 32.60872499999823,
      "v": 73
    },
    {
      "midi": 55,
      "hit": false,
      "t": 143829.83959166732,
      "d": 45.28989583335351,
      "v": 91
    },
    {
      "midi": 53,
      "hit": false,
      "t": 144150.49205416735,
      "d": 2356.8861791666714,
      "v": 84
    },
    {
      "midi": 56,
      "hit": false,
      "t": 144150.49205416735,
      "d": 2371.378945833334,
      "v": 79
    },
    {
      "midi": 60,
      "hit": false,
      "t": 144150.49205416735,
      "d": 2378.62532916668,
      "v": 99
    },
    {
      "midi": 56,
      "hit": false,
      "t": 146969.33517083403,
      "d": 237.31905416666996,
      "v": 79
    },
    {
      "midi": 53,
      "hit": false,
      "t": 146971.14676666737,
      "d": 230.07267083332408,
      "v": 64
    },
    {
      "midi": 61,
      "hit": false,
      "t": 146971.14676666737,
      "d": 257.246608333342,
      "v": 91
    },
    {
      "midi": 55,
      "hit": false,
      "t": 147295.42242083405,
      "d": 83.33340833333205,
      "v": 79
    },
    {
      "midi": 58,
      "hit": false,
      "t": 147295.42242083405,
      "d": 88.76819583334145,
      "v": 73
    },
    {
      "midi": 51,
      "hit": false,
      "t": 147297.23401666738,
      "d": 88.76819583334145,
      "v": 79
    },
    {
      "midi": 55,
      "hit": false,
      "t": 147628.7560541674,
      "d": 1884.059666666668,
      "v": 64
    },
    {
      "midi": 58,
      "hit": false,
      "t": 147628.7560541674,
      "d": 1884.059666666668,
      "v": 73
    },
    {
      "midi": 60,
      "hit": false,
      "t": 147628.7560541674,
      "d": 1885.8712625000044,
      "v": 79
    },
    {
      "midi": 65,
      "hit": false,
      "t": 147628.7560541674,
      "d": 1885.8712625000044,
      "v": 84
    },
    {
      "midi": 55,
      "hit": false,
      "t": 149585.2795541674,
      "d": 500.00044999999227,
      "v": 79
    },
    {
      "midi": 60,
      "hit": false,
      "t": 149585.2795541674,
      "d": 510.870024999982,
      "v": 79
    },
    {
      "midi": 64,
      "hit": false,
      "t": 149585.2795541674,
      "d": 527.1743874999811,
      "v": 84
    },
    {
      "midi": 58,
      "hit": false,
      "t": 149585.2795541674,
      "d": 532.6091749999905,
      "v": 79
    },
    {
      "midi": 61,
      "hit": false,
      "t": 150456.65715000074,
      "d": 199.27554166666232,
      "v": 79
    },
    {
      "midi": 53,
      "hit": false,
      "t": 150458.46874583408,
      "d": 202.89873333333526,
      "v": 73
    },
    {
      "midi": 56,
      "hit": false,
      "t": 150458.46874583408,
      "d": 231.88426666666055,
      "v": 64
    },
    {
      "midi": 55,
      "hit": false,
      "t": 150784.55599583406,
      "d": 65.21745000002556,
      "v": 73
    },
    {
      "midi": 58,
      "hit": false,
      "t": 150784.55599583406,
      "d": 70.65223750003497,
      "v": 84
    },
    {
      "midi": 51,
      "hit": false,
      "t": 150786.3675916674,
      "d": 72.46383333337144,
      "v": 69
    },
    {
      "midi": 54,
      "hit": false,
      "t": 150789.99078333407,
      "d": 1.8115958333364688,
      "v": 6
    },
    {
      "midi": 60,
      "hit": false,
      "t": 151101.58526666745,
      "d": 2465.581929166685,
      "v": 84
    },
    {
      "midi": 53,
      "hit": false,
      "t": 151103.39686250078,
      "d": 2456.5239500000025,
      "v": 91
    },
    {
      "midi": 56,
      "hit": false,
      "t": 151103.39686250078,
      "d": 2456.5239500000025,
      "v": 84
    },
    {
      "midi": 61,
      "hit": false,
      "t": 153936.73274583413,
      "d": 201.0871374999988,
      "v": 84
    },
    {
      "midi": 53,
      "hit": false,
      "t": 153936.73274583413,
      "d": 204.71032916667173,
      "v": 84
    },
    {
      "midi": 56,
      "hit": false,
      "t": 153936.73274583413,
      "d": 233.69586249999702,
      "v": 79
    },
    {
      "midi": 58,
      "hit": false,
      "t": 154253.76201666746,
      "d": 99.63777083336026,
      "v": 73
    },
    {
      "midi": 51,
      "hit": false,
      "t": 154255.5736125008,
      "d": 70.65223750000587,
      "v": 84
    },
    {
      "midi": 55,
      "hit": false,
      "t": 154255.5736125008,
      "d": 76.08702500001527,
      "v": 73
    },
    {
      "midi": 58,
      "hit": false,
      "t": 154583.47245833414,
      "d": 2583.3356583333516,
      "v": 84
    },
    {
      "midi": 61,
      "hit": false,
      "t": 154585.28405416748,
      "d": 2586.9588500000245,
      "v": 99
    },
    {
      "midi": 56,
      "hit": false,
      "t": 154587.09565000082,
      "d": 2583.3356583333516,
      "v": 84
    },
    {
      "midi": 53,
      "hit": false,
      "t": 154587.09565000082,
      "d": 2588.770445833361,
      "v": 91
    },
    {
      "midi": 61,
      "hit": false,
      "t": 157407.75036250084,
      "d": 211.9567125000176,
      "v": 73
    },
    {
      "midi": 56,
      "hit": false,
      "t": 157409.56195833418,
      "d": 233.69586249999702,
      "v": 73
    },
    {
      "midi": 53,
      "hit": false,
      "t": 157411.3735541675,
      "d": 222.8262875000073,
      "v": 73
    },
    {
      "midi": 55,
      "hit": false,
      "t": 157737.4608041675,
      "d": 96.01457916668733,
      "v": 79
    },
    {
      "midi": 51,
      "hit": false,
      "t": 157737.4608041675,
      "d": 108.6957500000135,
      "v": 69
    },
    {
      "midi": 58,
      "hit": false,
      "t": 157739.27240000083,
      "d": 90.57979166667792,
      "v": 73
    },
    {
      "midi": 58,
      "hit": false,
      "t": 158065.35965000084,
      "d": 1630.4362499999988,
      "v": 79
    },
    {
      "midi": 55,
      "hit": false,
      "t": 158067.17124583418,
      "d": 1628.6246541666624,
      "v": 84
    },
    {
      "midi": 60,
      "hit": false,
      "t": 158067.17124583418,
      "d": 1690.218912499986,
      "v": 69
    },
    {
      "midi": 65,
      "hit": false,
      "t": 158068.98284166752,
      "d": 1699.2768916666391,
      "v": 75
    },
    {
      "midi": 58,
      "hit": false,
      "t": 159784.56409583415,
      "d": 1675.7261458333523,
      "v": 67
    },
    {
      "midi": 60,
      "hit": false,
      "t": 159786.3756916675,
      "d": 1663.044974999997,
      "v": 73
    },
    {
      "midi": 55,
      "hit": false,
      "t": 159786.3756916675,
      "d": 1666.66816666667,
      "v": 69
    },
    {
      "midi": 64,
      "hit": false,
      "t": 159786.3756916675,
      "d": 1672.1029541666794,
      "v": 79
    },
    {
      "midi": 60,
      "hit": false,
      "t": 161550.87003333418,
      "d": 1641.3058250000176,
      "v": 84
    },
    {
      "midi": 58,
      "hit": false,
      "t": 161550.87003333418,
      "d": 1644.9290166666906,
      "v": 79
    },
    {
      "midi": 55,
      "hit": false,
      "t": 161554.49322500086,
      "d": 1653.9869958333438,
      "v": 91
    },
    {
      "midi": 65,
      "hit": false,
      "t": 161556.3048208342,
      "d": 1635.8710375000082,
      "v": 84
    },
    {
      "midi": 64,
      "hit": false,
      "t": 163275.50926666753,
      "d": 1742.7551916666853,
      "v": 79
    },
    {
      "midi": 58,
      "hit": false,
      "t": 163282.75565000088,
      "d": 1684.7841250000056,
      "v": 73
    },
    {
      "midi": 60,
      "hit": false,
      "t": 163284.56724583422,
      "d": 1672.1029541666794,
      "v": 79
    },
    {
      "midi": 55,
      "hit": false,
      "t": 163284.56724583422,
      "d": 1719.2044458333403,
      "v": 73
    },
    {
      "midi": 58,
      "hit": false,
      "t": 165029.1340333342,
      "d": 1884.059666666668,
      "v": 79
    },
    {
      "midi": 60,
      "hit": false,
      "t": 165029.1340333342,
      "d": 1945.6539249999914,
      "v": 84
    },
    {
      "midi": 55,
      "hit": false,
      "t": 165032.75722500088,
      "d": 1963.769883333327,
      "v": 91
    },
    {
      "midi": 65,
      "hit": false,
      "t": 165034.56882083422,
      "d": 1903.9872208333109,
      "v": 84
    },
    {
      "midi": 72,
      "hit": false,
      "t": 166987.46912916753,
      "d": 101.44936666669673,
      "v": 79
    },
    {
      "midi": 67,
      "hit": false,
      "t": 166992.90391666754,
      "d": 103.2609625000332,
      "v": 84
    },
    {
      "midi": 60,
      "hit": false,
      "t": 166992.90391666754,
      "d": 105.07255833336967,
      "v": 84
    },
    {
      "midi": 108,
      "hit": false,
      "t": 168146.8904625,
      "d": 19.927554166672053,
      "v": 53
    },
    {
      "midi": 107,
      "hit": false,
      "t": 168163.194825,
      "d": 19.927554166672053,
      "v": 63
    },
    {
      "midi": 105,
      "hit": false,
      "t": 168181.31078333335,
      "d": 18.115958333335584,
      "v": 73
    },
    {
      "midi": 103,
      "hit": false,
      "t": 168201.23833750002,
      "d": 14.492766666662646,
      "v": 63
    },
    {
      "midi": 101,
      "hit": false,
      "t": 168212.1079125,
      "d": 30.79712916666176,
      "v": 79
    },
    {
      "midi": 100,
      "hit": false,
      "t": 168228.412275,
      "d": 34.4203208333347,
      "v": 68
    },
    {
      "midi": 98,
      "hit": false,
      "t": 168257.39780833333,
      "d": 32.608725000027334,
      "v": 58
    },
    {
      "midi": 105,
      "hit": false,
      "t": 168259.20940416667,
      "d": 1.8115958333364688,
      "v": 5
    },
    {
      "midi": 96,
      "hit": false,
      "t": 168270.0789791667,
      "d": 57.97106666667969,
      "v": 60
    },
    {
      "midi": 95,
      "hit": false,
      "t": 168291.8181291667,
      "d": 56.15947083334322,
      "v": 58
    },
    {
      "midi": 93,
      "hit": false,
      "t": 168349.78919583338,
      "d": 30.797129166690866,
      "v": 60
    },
    {
      "midi": 96,
      "hit": false,
      "t": 168367.9051541667,
      "d": 10.869575000018813,
      "v": 5
    },
    {
      "midi": 91,
      "hit": false,
      "t": 168375.15153750006,
      "d": 34.4203208333347,
      "v": 7
    },
    {
      "midi": 89,
      "hit": false,
      "t": 168393.2674958334,
      "d": 43.47829999998794,
      "v": 56
    },
    {
      "midi": 88,
      "hit": false,
      "t": 168420.44143333338,
      "d": 57.97106666667969,
      "v": 60
    },
    {
      "midi": 86,
      "hit": false,
      "t": 168460.29654166673,
      "d": 50.724683333333815,
      "v": 58
    },
    {
      "midi": 84,
      "hit": false,
      "t": 168496.5284583334,
      "d": 50.724683333333815,
      "v": 52
    },
    {
      "midi": 83,
      "hit": false,
      "t": 168523.7023958334,
      "d": 57.97106666667969,
      "v": 60
    },
    {
      "midi": 81,
      "hit": false,
      "t": 168561.7459083334,
      "d": 48.913087499997346,
      "v": 58
    },
    {
      "midi": 79,
      "hit": false,
      "t": 168599.7894208334,
      "d": 48.913087499997346,
      "v": 58
    },
    {
      "midi": 77,
      "hit": false,
      "t": 168634.20974166674,
      "d": 45.28989583332441,
      "v": 59
    },
    {
      "midi": 76,
      "hit": false,
      "t": 168665.0068708334,
      "d": 56.15947083334322,
      "v": 59
    },
    {
      "midi": 74,
      "hit": false,
      "t": 168701.23878750007,
      "d": 57.97106666667969,
      "v": 59
    },
    {
      "midi": 37,
      "hit": false,
      "t": 168706.6735750009,
      "d": 108.6957500000135,
      "v": 84
    },
    {
      "midi": 72,
      "hit": false,
      "t": 168741.09389583342,
      "d": 63.40585416665999,
      "v": 56
    },
    {
      "midi": 71,
      "hit": false,
      "t": 168786.38379166674,
      "d": 50.724683333333815,
      "v": 46
    },
    {
      "midi": 37,
      "hit": false,
      "t": 168936.74624583425,
      "d": 83.33340833333205,
      "v": 64
    },
    {
      "midi": 56,
      "hit": false,
      "t": 169136.0217875009,
      "d": 88.76819583334145,
      "v": 69
    },
    {
      "midi": 68,
      "hit": false,
      "t": 169136.0217875009,
      "d": 92.39138750001439,
      "v": 79
    },
    {
      "midi": 61,
      "hit": false,
      "t": 169136.0217875009,
      "d": 101.44936666666763,
      "v": 73
    },
    {
      "midi": 49,
      "hit": false,
      "t": 169150.51455416757,
      "d": 125.00011250001262,
      "v": 91
    },
    {
      "midi": 37,
      "hit": false,
      "t": 169592.54393750092,
      "d": 90.57979166667792,
      "v": 79
    },
    {
      "midi": 37,
      "hit": false,
      "t": 169802.6890541676,
      "d": 97.82617499999469,
      "v": 73
    },
    {
      "midi": 49,
      "hit": false,
      "t": 170014.64576666759,
      "d": 81.52181249999558,
      "v": 84
    },
    {
      "midi": 39,
      "hit": false,
      "t": 170232.03726666758,
      "d": 101.44936666666763,
      "v": 73
    },
    {
      "midi": 39,
      "hit": false,
      "t": 170663.1970750009,
      "d": 94.20298333332175,
      "v": 79
    },
    {
      "midi": 51,
      "hit": false,
      "t": 170882.40017083424,
      "d": 115.94213333335938,
      "v": 91
    },
    {
      "midi": 58,
      "hit": false,
      "t": 170886.0233625009,
      "d": 108.6957500000135,
      "v": 73
    },
    {
      "midi": 63,
      "hit": false,
      "t": 170886.0233625009,
      "d": 117.75372916669585,
      "v": 79
    },
    {
      "midi": 68,
      "hit": false,
      "t": 170886.0233625009,
      "d": 121.37692083336879,
      "v": 84
    },
    {
      "midi": 39,
      "hit": false,
      "t": 171324.4295541676,
      "d": 88.76819583334145,
      "v": 73
    },
    {
      "midi": 68,
      "hit": false,
      "t": 171324.4295541676,
      "d": 134.05809166669496,
      "v": 79
    },
    {
      "midi": 58,
      "hit": false,
      "t": 171326.24115000095,
      "d": 110.50734583334997,
      "v": 73
    },
    {
      "midi": 63,
      "hit": false,
      "t": 171326.24115000095,
      "d": 117.75372916669585,
      "v": 79
    },
    {
      "midi": 63,
      "hit": false,
      "t": 171534.5746708343,
      "d": 106.88415416670614,
      "v": 79
    },
    {
      "midi": 39,
      "hit": false,
      "t": 171536.38626666763,
      "d": 92.39138750001439,
      "v": 84
    },
    {
      "midi": 58,
      "hit": false,
      "t": 171536.38626666763,
      "d": 112.31894166671555,
      "v": 79
    },
    {
      "midi": 67,
      "hit": false,
      "t": 171538.19786250097,
      "d": 97.8261750000238,
      "v": 84
    },
    {
      "midi": 51,
      "hit": false,
      "t": 171753.77776666768,
      "d": 99.63777083333116,
      "v": 79
    },
    {
      "midi": 36,
      "hit": false,
      "t": 171976.6040541677,
      "d": 105.07255833334057,
      "v": 84
    },
    {
      "midi": 36,
      "hit": false,
      "t": 172398.70588333436,
      "d": 105.07255833334057,
      "v": 84
    },
    {
      "midi": 55,
      "hit": false,
      "t": 172616.09738333436,
      "d": 132.2464958333585,
      "v": 79
    },
    {
      "midi": 60,
      "hit": false,
      "t": 172616.09738333436,
      "d": 134.05809166669496,
      "v": 79
    },
    {
      "midi": 65,
      "hit": false,
      "t": 172616.09738333436,
      "d": 134.05809166669496,
      "v": 79
    },
    {
      "midi": 48,
      "hit": false,
      "t": 172621.53217083437,
      "d": 105.07255833334057,
      "v": 91
    },
    {
      "midi": 65,
      "hit": false,
      "t": 173054.50357500106,
      "d": 92.39138749998529,
      "v": 84
    },
    {
      "midi": 55,
      "hit": false,
      "t": 173054.50357500106,
      "d": 96.01457916665822,
      "v": 84
    },
    {
      "midi": 60,
      "hit": false,
      "t": 173056.3151708344,
      "d": 86.95659999997588,
      "v": 84
    },
    {
      "midi": 36,
      "hit": false,
      "t": 173065.37315000105,
      "d": 94.20298333332175,
      "v": 79
    },
    {
      "midi": 36,
      "hit": false,
      "t": 173279.14145833437,
      "d": 94.20298333335086,
      "v": 73
    },
    {
      "midi": 60,
      "hit": false,
      "t": 173297.2574166677,
      "d": 108.6957500000135,
      "v": 91
    },
    {
      "midi": 55,
      "hit": false,
      "t": 173299.06901250104,
      "d": 105.07255833334057,
      "v": 79
    },
    {
      "midi": 64,
      "hit": false,
      "t": 173299.06901250104,
      "d": 112.31894166668644,
      "v": 79
    },
    {
      "midi": 48,
      "hit": false,
      "t": 173492.90976666773,
      "d": 117.75372916666674,
      "v": 79
    },
    {
      "midi": 41,
      "hit": false,
      "t": 173715.73605416773,
      "d": 103.2609625000041,
      "v": 91
    },
    {
      "midi": 41,
      "hit": false,
      "t": 174152.33065000107,
      "d": 114.1305374999938,
      "v": 73
    },
    {
      "midi": 70,
      "hit": false,
      "t": 174362.47576666772,
      "d": 117.75372916666674,
      "v": 73
    },
    {
      "midi": 60,
      "hit": false,
      "t": 174362.47576666772,
      "d": 121.37692083333968,
      "v": 69
    },
    {
      "midi": 65,
      "hit": false,
      "t": 174364.28736250105,
      "d": 115.94213333333028,
      "v": 79
    },
    {
      "midi": 53,
      "hit": false,
      "t": 174366.0989583344,
      "d": 130.43489999999292,
      "v": 91
    },
    {
      "midi": 41,
      "hit": false,
      "t": 174806.3167458344,
      "d": 88.76819583334145,
      "v": 73
    },
    {
      "midi": 70,
      "hit": false,
      "t": 174808.12834166773,
      "d": 112.31894166665734,
      "v": 79
    },
    {
      "midi": 60,
      "hit": false,
      "t": 174808.12834166773,
      "d": 126.81170833331998,
      "v": 62
    },
    {
      "midi": 65,
      "hit": false,
      "t": 174808.12834166773,
      "d": 130.43489999999292,
      "v": 79
    },
    {
      "midi": 41,
      "hit": false,
      "t": 175018.27345833438,
      "d": 97.8261750000238,
      "v": 79
    },
    {
      "midi": 65,
      "hit": false,
      "t": 175041.82420416773,
      "d": 86.95660000000498,
      "v": 72
    },
    {
      "midi": 68,
      "hit": false,
      "t": 175047.25899166774,
      "d": 101.44936666666763,
      "v": 72
    },
    {
      "midi": 60,
      "hit": false,
      "t": 175049.07058750108,
      "d": 97.82617499999469,
      "v": 67
    },
    {
      "midi": 53,
      "hit": false,
      "t": 175233.85336250108,
      "d": 126.81170833331998,
      "v": 84
    },
    {
      "midi": 37,
      "hit": false,
      "t": 175663.20157500106,
      "d": 108.6957500000135,
      "v": 84
    },
    {
      "midi": 37,
      "hit": false,
      "t": 175893.27424583441,
      "d": 83.33340833333205,
      "v": 64
    },
    {
      "midi": 56,
      "hit": false,
      "t": 176092.54978750108,
      "d": 88.76819583334145,
      "v": 69
    },
    {
      "midi": 68,
      "hit": false,
      "t": 176092.54978750108,
      "d": 92.39138750001439,
      "v": 79
    },
    {
      "midi": 61,
      "hit": false,
      "t": 176092.54978750108,
      "d": 101.44936666666763,
      "v": 73
    },
    {
      "midi": 49,
      "hit": false,
      "t": 176107.04255416774,
      "d": 125.00011250001262,
      "v": 91
    },
    {
      "midi": 37,
      "hit": false,
      "t": 176549.07193750108,
      "d": 90.57979166667792,
      "v": 79
    },
    {
      "midi": 37,
      "hit": false,
      "t": 176759.21705416776,
      "d": 97.82617499999469,
      "v": 73
    },
    {
      "midi": 49,
      "hit": false,
      "t": 176971.17376666775,
      "d": 81.52181249999558,
      "v": 84
    },
    {
      "midi": 39,
      "hit": false,
      "t": 177188.56526666775,
      "d": 101.44936666666763,
      "v": 73
    },
    {
      "midi": 39,
      "hit": false,
      "t": 177619.72507500107,
      "d": 94.20298333332175,
      "v": 79
    },
    {
      "midi": 51,
      "hit": false,
      "t": 177838.9281708344,
      "d": 115.94213333335938,
      "v": 91
    },
    {
      "midi": 58,
      "hit": false,
      "t": 177842.55136250108,
      "d": 108.6957500000135,
      "v": 73
    },
    {
      "midi": 63,
      "hit": false,
      "t": 177842.55136250108,
      "d": 117.75372916669585,
      "v": 79
    },
    {
      "midi": 68,
      "hit": false,
      "t": 177842.55136250108,
      "d": 121.37692083336879,
      "v": 84
    },
    {
      "midi": 39,
      "hit": false,
      "t": 178280.95755416778,
      "d": 88.76819583334145,
      "v": 73
    },
    {
      "midi": 68,
      "hit": false,
      "t": 178280.95755416778,
      "d": 134.05809166669496,
      "v": 79
    },
    {
      "midi": 58,
      "hit": false,
      "t": 178282.7691500011,
      "d": 110.50734583334997,
      "v": 73
    },
    {
      "midi": 63,
      "hit": false,
      "t": 178282.7691500011,
      "d": 117.75372916669585,
      "v": 79
    },
    {
      "midi": 63,
      "hit": false,
      "t": 178491.10267083446,
      "d": 106.88415416670614,
      "v": 79
    },
    {
      "midi": 39,
      "hit": false,
      "t": 178492.9142666678,
      "d": 92.39138750001439,
      "v": 84
    },
    {
      "midi": 58,
      "hit": false,
      "t": 178492.9142666678,
      "d": 112.31894166671555,
      "v": 79
    },
    {
      "midi": 67,
      "hit": false,
      "t": 178494.72586250113,
      "d": 97.8261750000238,
      "v": 84
    },
    {
      "midi": 51,
      "hit": false,
      "t": 178710.30576666785,
      "d": 99.63777083333116,
      "v": 79
    },
    {
      "midi": 36,
      "hit": false,
      "t": 178933.13205416786,
      "d": 105.07255833334057,
      "v": 84
    },
    {
      "midi": 36,
      "hit": false,
      "t": 179355.23388333453,
      "d": 105.07255833334057,
      "v": 84
    },
    {
      "midi": 55,
      "hit": false,
      "t": 179572.62538333453,
      "d": 132.2464958333585,
      "v": 79
    },
    {
      "midi": 60,
      "hit": false,
      "t": 179572.62538333453,
      "d": 134.05809166669496,
      "v": 79
    },
    {
      "midi": 65,
      "hit": false,
      "t": 179572.62538333453,
      "d": 134.05809166669496,
      "v": 79
    },
    {
      "midi": 48,
      "hit": false,
      "t": 179578.06017083453,
      "d": 105.07255833334057,
      "v": 91
    },
    {
      "midi": 65,
      "hit": false,
      "t": 180011.03157500122,
      "d": 92.39138749998529,
      "v": 84
    },
    {
      "midi": 55,
      "hit": false,
      "t": 180011.03157500122,
      "d": 96.01457916665822,
      "v": 84
    },
    {
      "midi": 60,
      "hit": false,
      "t": 180012.84317083456,
      "d": 86.95659999997588,
      "v": 84
    },
    {
      "midi": 36,
      "hit": false,
      "t": 180021.9011500012,
      "d": 94.20298333332175,
      "v": 79
    },
    {
      "midi": 36,
      "hit": false,
      "t": 180235.66945833454,
      "d": 94.20298333335086,
      "v": 73
    },
    {
      "midi": 60,
      "hit": false,
      "t": 180253.78541666787,
      "d": 108.6957500000135,
      "v": 91
    },
    {
      "midi": 55,
      "hit": false,
      "t": 180255.5970125012,
      "d": 105.07255833334057,
      "v": 79
    },
    {
      "midi": 64,
      "hit": false,
      "t": 180255.5970125012,
      "d": 112.31894166668644,
      "v": 79
    },
    {
      "midi": 48,
      "hit": false,
      "t": 180449.4377666679,
      "d": 117.75372916666674,
      "v": 79
    },
    {
      "midi": 41,
      "hit": false,
      "t": 180672.2640541679,
      "d": 103.2609625000041,
      "v": 91
    },
    {
      "midi": 41,
      "hit": false,
      "t": 181108.85865000123,
      "d": 114.1305374999938,
      "v": 73
    },
    {
      "midi": 70,
      "hit": false,
      "t": 181319.00376666788,
      "d": 117.75372916666674,
      "v": 73
    },
    {
      "midi": 60,
      "hit": false,
      "t": 181319.00376666788,
      "d": 121.37692083333968,
      "v": 69
    },
    {
      "midi": 65,
      "hit": false,
      "t": 181320.81536250122,
      "d": 115.94213333333028,
      "v": 79
    },
    {
      "midi": 53,
      "hit": false,
      "t": 181322.62695833456,
      "d": 130.43489999999292,
      "v": 91
    },
    {
      "midi": 41,
      "hit": false,
      "t": 181762.84474583456,
      "d": 88.76819583334145,
      "v": 73
    },
    {
      "midi": 70,
      "hit": false,
      "t": 181764.6563416679,
      "d": 112.31894166665734,
      "v": 79
    },
    {
      "midi": 60,
      "hit": false,
      "t": 181764.6563416679,
      "d": 126.81170833331998,
      "v": 62
    },
    {
      "midi": 65,
      "hit": false,
      "t": 181764.6563416679,
      "d": 130.43489999999292,
      "v": 79
    },
    {
      "midi": 41,
      "hit": false,
      "t": 181974.80145833455,
      "d": 97.8261750000238,
      "v": 79
    },
    {
      "midi": 65,
      "hit": false,
      "t": 181998.3522041679,
      "d": 86.95660000000498,
      "v": 72
    },
    {
      "midi": 68,
      "hit": false,
      "t": 182003.7869916679,
      "d": 101.44936666666763,
      "v": 72
    },
    {
      "midi": 60,
      "hit": false,
      "t": 182005.59858750124,
      "d": 97.82617499999469,
      "v": 67
    },
    {
      "midi": 53,
      "hit": false,
      "t": 182190.38136250124,
      "d": 126.81170833331998,
      "v": 84
    },
    {
      "midi": 37,
      "hit": false,
      "t": 182619.72957500123,
      "d": 108.6957500000135,
      "v": 81
    },
    {
      "midi": 37,
      "hit": false,
      "t": 182849.80224583458,
      "d": 83.33340833333205,
      "v": 60
    },
    {
      "midi": 56,
      "hit": false,
      "t": 183049.07778750124,
      "d": 88.76819583334145,
      "v": 64
    },
    {
      "midi": 68,
      "hit": false,
      "t": 183049.07778750124,
      "d": 92.39138750001439,
      "v": 74
    },
    {
      "midi": 61,
      "hit": false,
      "t": 183049.07778750124,
      "d": 101.44936666666763,
      "v": 68
    },
    {
      "midi": 49,
      "hit": false,
      "t": 183063.5705541679,
      "d": 125.00011250001262,
      "v": 85
    },
    {
      "midi": 37,
      "hit": false,
      "t": 183505.59993750125,
      "d": 90.57979166667792,
      "v": 71
    },
    {
      "midi": 37,
      "hit": false,
      "t": 183715.74505416793,
      "d": 97.82617499999469,
      "v": 64
    },
    {
      "midi": 49,
      "hit": false,
      "t": 183927.70176666792,
      "d": 81.52181249999558,
      "v": 73
    },
    {
      "midi": 39,
      "hit": false,
      "t": 184145.09326666791,
      "d": 101.44936666666763,
      "v": 62
    },
    {
      "midi": 39,
      "hit": false,
      "t": 184576.25307500124,
      "d": 94.20298333332175,
      "v": 65
    },
    {
      "midi": 51,
      "hit": false,
      "t": 184795.45617083457,
      "d": 115.94213333335938,
      "v": 73
    },
    {
      "midi": 58,
      "hit": false,
      "t": 184799.07936250124,
      "d": 108.6957500000135,
      "v": 59
    },
    {
      "midi": 63,
      "hit": false,
      "t": 184799.07936250124,
      "d": 117.75372916669585,
      "v": 63
    },
    {
      "midi": 68,
      "hit": false,
      "t": 184799.07936250124,
      "d": 121.37692083336879,
      "v": 68
    },
    {
      "midi": 39,
      "hit": false,
      "t": 185237.48555416794,
      "d": 88.76819583334145,
      "v": 56
    },
    {
      "midi": 68,
      "hit": false,
      "t": 185237.48555416794,
      "d": 134.05809166669496,
      "v": 61
    },
    {
      "midi": 58,
      "hit": false,
      "t": 185239.29715000128,
      "d": 110.50734583334997,
      "v": 56
    },
    {
      "midi": 63,
      "hit": false,
      "t": 185239.29715000128,
      "d": 117.75372916669585,
      "v": 61
    },
    {
      "midi": 63,
      "hit": false,
      "t": 185447.63067083462,
      "d": 106.88415416670614,
      "v": 60
    },
    {
      "midi": 39,
      "hit": false,
      "t": 185449.44226666796,
      "d": 92.39138750001439,
      "v": 64
    },
    {
      "midi": 58,
      "hit": false,
      "t": 185449.44226666796,
      "d": 112.31894166671555,
      "v": 60
    },
    {
      "midi": 67,
      "hit": false,
      "t": 185451.2538625013,
      "d": 97.8261750000238,
      "v": 64
    },
    {
      "midi": 51,
      "hit": false,
      "t": 185666.83376666802,
      "d": 99.63777083333116,
      "v": 59
    },
    {
      "midi": 36,
      "hit": false,
      "t": 185889.66005416802,
      "d": 105.07255833334057,
      "v": 62
    },
    {
      "midi": 36,
      "hit": false,
      "t": 186311.7618833347,
      "d": 105.07255833334057,
      "v": 59
    },
    {
      "midi": 55,
      "hit": false,
      "t": 186529.1533833347,
      "d": 132.2464958333585,
      "v": 54
    },
    {
      "midi": 60,
      "hit": false,
      "t": 186529.1533833347,
      "d": 134.05809166669496,
      "v": 54
    },
    {
      "midi": 65,
      "hit": false,
      "t": 186529.1533833347,
      "d": 134.05809166669496,
      "v": 54
    },
    {
      "midi": 48,
      "hit": false,
      "t": 186534.5881708347,
      "d": 105.07255833334057,
      "v": 62
    },
    {
      "midi": 65,
      "hit": false,
      "t": 186967.5595750014,
      "d": 92.39138749998529,
      "v": 55
    },
    {
      "midi": 55,
      "hit": false,
      "t": 186967.5595750014,
      "d": 96.01457916665822,
      "v": 55
    },
    {
      "midi": 60,
      "hit": false,
      "t": 186969.37117083473,
      "d": 86.95659999997588,
      "v": 55
    },
    {
      "midi": 36,
      "hit": false,
      "t": 186978.42915000138,
      "d": 94.20298333332175,
      "v": 52
    },
    {
      "midi": 36,
      "hit": false,
      "t": 187192.1974583347,
      "d": 94.20298333335086,
      "v": 47
    },
    {
      "midi": 60,
      "hit": false,
      "t": 187210.31341666804,
      "d": 108.6957500000135,
      "v": 59
    },
    {
      "midi": 55,
      "hit": false,
      "t": 187212.12501250138,
      "d": 105.07255833334057,
      "v": 51
    },
    {
      "midi": 64,
      "hit": false,
      "t": 187212.12501250138,
      "d": 112.31894166668644,
      "v": 51
    },
    {
      "midi": 48,
      "hit": false,
      "t": 187405.96576666806,
      "d": 117.75372916666674,
      "v": 49
    },
    {
      "midi": 41,
      "hit": false,
      "t": 187628.79205416807,
      "d": 103.2609625000041,
      "v": 56
    },
    {
      "midi": 41,
      "hit": false,
      "t": 188065.3866500014,
      "d": 114.1305374999938,
      "v": 43
    },
    {
      "midi": 70,
      "hit": false,
      "t": 188275.53176666805,
      "d": 117.75372916666674,
      "v": 41
    },
    {
      "midi": 60,
      "hit": false,
      "t": 188275.53176666805,
      "d": 121.37692083333968,
      "v": 39
    },
    {
      "midi": 65,
      "hit": false,
      "t": 188277.3433625014,
      "d": 115.94213333333028,
      "v": 45
    },
    {
      "midi": 53,
      "hit": false,
      "t": 188279.15495833472,
      "d": 130.43489999999292,
      "v": 51
    },
    {
      "midi": 41,
      "hit": false,
      "t": 188719.37274583473,
      "d": 88.76819583334145,
      "v": 39
    },
    {
      "midi": 70,
      "hit": false,
      "t": 188721.18434166806,
      "d": 112.31894166665734,
      "v": 42
    },
    {
      "midi": 60,
      "hit": false,
      "t": 188721.18434166806,
      "d": 126.81170833331998,
      "v": 33
    },
    {
      "midi": 65,
      "hit": false,
      "t": 188721.18434166806,
      "d": 130.43489999999292,
      "v": 42
    },
    {
      "midi": 41,
      "hit": false,
      "t": 188931.32945833472,
      "d": 97.8261750000238,
      "v": 41
    },
    {
      "midi": 65,
      "hit": false,
      "t": 188954.88020416806,
      "d": 86.95660000000498,
      "v": 37
    },
    {
      "midi": 68,
      "hit": false,
      "t": 188960.31499166807,
      "d": 101.44936666666763,
      "v": 37
    },
    {
      "midi": 60,
      "hit": false,
      "t": 188962.1265875014,
      "d": 97.82617499999469,
      "v": 34
    },
    {
      "midi": 53,
      "hit": false,
      "t": 189146.9093625014,
      "d": 126.81170833331998,
      "v": 42
    },
    {
      "midi": 37,
      "hit": false,
      "t": 189576.2575750014,
      "d": 108.6957500000135,
      "v": 40
    },
    {
      "midi": 37,
      "hit": false,
      "t": 189806.33024583475,
      "d": 83.33340833333205,
      "v": 30
    },
    {
      "midi": 56,
      "hit": false,
      "t": 190005.6057875014,
      "d": 88.76819583334145,
      "v": 31
    },
    {
      "midi": 68,
      "hit": false,
      "t": 190005.6057875014,
      "d": 92.39138750001439,
      "v": 35
    },
    {
      "midi": 61,
      "hit": false,
      "t": 190005.6057875014,
      "d": 101.44936666666763,
      "v": 32
    },
    {
      "midi": 49,
      "hit": false,
      "t": 190020.09855416807,
      "d": 125.00011250001262,
      "v": 40
    },
    {
      "midi": 37,
      "hit": false,
      "t": 190462.1279375014,
      "d": 90.57979166667792,
      "v": 33
    },
    {
      "midi": 37,
      "hit": false,
      "t": 190672.2730541681,
      "d": 97.82617499999469,
      "v": 29
    },
    {
      "midi": 49,
      "hit": false,
      "t": 190884.22976666808,
      "d": 81.52181249999558,
      "v": 32
    },
    {
      "midi": 39,
      "hit": false,
      "t": 191101.62126666808,
      "d": 101.44936666666763,
      "v": 27
    },
    {
      "midi": 39,
      "hit": false,
      "t": 191532.7810750014,
      "d": 94.20298333332175,
      "v": 27
    },
    {
      "midi": 51,
      "hit": false,
      "t": 191751.98417083474,
      "d": 115.94213333335938,
      "v": 30
    },
    {
      "midi": 58,
      "hit": false,
      "t": 191755.6073625014,
      "d": 108.6957500000135,
      "v": 24
    },
    {
      "midi": 63,
      "hit": false,
      "t": 191755.6073625014,
      "d": 117.75372916669585,
      "v": 26
    },
    {
      "midi": 68,
      "hit": false,
      "t": 191755.6073625014,
      "d": 121.37692083336879,
      "v": 27
    },
    {
      "midi": 39,
      "hit": false,
      "t": 192194.0135541681,
      "d": 88.76819583334145,
      "v": 21
    },
    {
      "midi": 68,
      "hit": false,
      "t": 192194.0135541681,
      "d": 134.05809166669496,
      "v": 23
    },
    {
      "midi": 58,
      "hit": false,
      "t": 192195.82515000144,
      "d": 110.50734583334997,
      "v": 21
    },
    {
      "midi": 63,
      "hit": false,
      "t": 192195.82515000144,
      "d": 117.75372916669585,
      "v": 23
    },
    {
      "midi": 63,
      "hit": false,
      "t": 192404.1586708348,
      "d": 106.88415416670614,
      "v": 22
    },
    {
      "midi": 39,
      "hit": false,
      "t": 192405.97026666813,
      "d": 92.39138750001439,
      "v": 23
    },
    {
      "midi": 58,
      "hit": false,
      "t": 192405.97026666813,
      "d": 112.31894166671555,
      "v": 22
    },
    {
      "midi": 67,
      "hit": false,
      "t": 192407.78186250146,
      "d": 97.8261750000238,
      "v": 23
    },
    {
      "midi": 51,
      "hit": false,
      "t": 192623.36176666818,
      "d": 99.63777083333116,
      "v": 21
    },
    {
      "midi": 36,
      "hit": false,
      "t": 192846.1880541682,
      "d": 105.07255833334057,
      "v": 21
    },
    {
      "midi": 36,
      "hit": false,
      "t": 193268.28988333486,
      "d": 105.07255833334057,
      "v": 18
    },
    {
      "midi": 55,
      "hit": false,
      "t": 193485.68138333486,
      "d": 132.2464958333585,
      "v": 16
    },
    {
      "midi": 60,
      "hit": false,
      "t": 193485.68138333486,
      "d": 134.05809166669496,
      "v": 16
    },
    {
      "midi": 65,
      "hit": false,
      "t": 193485.68138333486,
      "d": 134.05809166669496,
      "v": 16
    },
    {
      "midi": 48,
      "hit": false,
      "t": 193491.11617083487,
      "d": 105.07255833334057,
      "v": 19
    },
    {
      "midi": 65,
      "hit": false,
      "t": 193924.08757500155,
      "d": 92.39138749998529,
      "v": 15
    },
    {
      "midi": 55,
      "hit": false,
      "t": 193924.08757500155,
      "d": 96.01457916665822,
      "v": 15
    },
    {
      "midi": 60,
      "hit": false,
      "t": 193925.8991708349,
      "d": 86.95659999997588,
      "v": 15
    },
    {
      "midi": 36,
      "hit": false,
      "t": 193934.95715000154,
      "d": 94.20298333332175,
      "v": 14
    },
    {
      "midi": 36,
      "hit": false,
      "t": 194148.72545833487,
      "d": 94.20298333335086,
      "v": 11
    },
    {
      "midi": 60,
      "hit": false,
      "t": 194166.8414166682,
      "d": 108.6957500000135,
      "v": 14
    },
    {
      "midi": 55,
      "hit": false,
      "t": 194168.65301250154,
      "d": 105.07255833334057,
      "v": 12
    },
    {
      "midi": 64,
      "hit": false,
      "t": 194168.65301250154,
      "d": 112.31894166668644,
      "v": 12
    },
    {
      "midi": 48,
      "hit": false,
      "t": 194362.49376666822,
      "d": 117.75372916666674,
      "v": 11
    },
    {
      "midi": 41,
      "hit": false,
      "t": 194585.32005416823,
      "d": 103.2609625000041,
      "v": 11
    },
    {
      "midi": 41,
      "hit": false,
      "t": 195021.91465000156,
      "d": 114.1305374999938,
      "v": 7
    },
    {
      "midi": 70,
      "hit": false,
      "t": 195232.05976666822,
      "d": 117.75372916666674,
      "v": 6
    },
    {
      "midi": 60,
      "hit": false,
      "t": 195232.05976666822,
      "d": 121.37692083333968,
      "v": 6
    },
    {
      "midi": 65,
      "hit": false,
      "t": 195233.87136250155,
      "d": 115.94213333333028,
      "v": 7
    },
    {
      "midi": 53,
      "hit": false,
      "t": 195235.6829583349,
      "d": 130.43489999999292,
      "v": 8
    },
    {
      "midi": 41,
      "hit": false,
      "t": 195675.9007458349,
      "d": 88.76819583334145,
      "v": 4
    },
    {
      "midi": 70,
      "hit": false,
      "t": 195677.71234166823,
      "d": 112.31894166665734,
      "v": 4
    },
    {
      "midi": 60,
      "hit": false,
      "t": 195677.71234166823,
      "d": 126.81170833331998,
      "v": 3
    },
    {
      "midi": 65,
      "hit": false,
      "t": 195677.71234166823,
      "d": 130.43489999999292,
      "v": 4
    },
    {
      "midi": 41,
      "hit": false,
      "t": 195887.85745833488,
      "d": 97.8261750000238,
      "v": 3
    },
    {
      "midi": 65,
      "hit": false,
      "t": 195911.40820416823,
      "d": 86.95660000000498,
      "v": 2
    },
    {
      "midi": 68,
      "hit": false,
      "t": 195916.84299166824,
      "d": 101.44936666666763,
      "v": 2
    },
    {
      "midi": 60,
      "hit": false,
      "t": 195918.65458750157,
      "d": 97.82617499999469,
      "v": 2
    },
    {
      "midi": 53,
      "hit": false,
      "t": 196103.43736250157,
      "d": 126.81170833331998,
      "v": 2
    }
  ]
}