{
  "jsonPath": "Rock/Indie Dream Pop/Rally/mina-njurar.json",
  "path": "Rock\\Indie Dream Pop\\Rally\\Mina Njurar.mid",
  "name": "Mina Njurar",
  "difficulty": "Advanced",
  "bpm": 128,
  "notes": [
    {
      "midi": 52,
      "hit": false,
      "t": 3754.8828125,
      "d": 217.28515625,
      "v": 65
    },
    {
      "midi": 68,
      "hit": false,
      "t": 3754.8828125,
      "d": 217.28515625,
      "v": 65
    },
    {
      "midi": 52,
      "hit": false,
      "t": 3986.81640625,
      "d": 219.7265625,
      "v": 65
    },
    {
      "midi": 68,
      "hit": false,
      "t": 3986.81640625,
      "d": 219.7265625,
      "v": 65
    },
    {
      "midi": 49,
      "hit": false,
      "t": 4226.07421875,
      "d": 207.51953125,
      "v": 65
    },
    {
      "midi": 66,
      "hit": false,
      "t": 4226.07421875,
      "d": 207.51953125,
      "v": 65
    },
    {
      "midi": 49,
      "hit": false,
      "t": 4455.56640625,
      "d": 212.40234375,
      "v": 65
    },
    {
      "midi": 66,
      "hit": false,
      "t": 4455.56640625,
      "d": 212.40234375,
      "v": 65
    },
    {
      "midi": 47,
      "hit": false,
      "t": 4692.3828125,
      "d": 209.9609375,
      "v": 65
    },
    {
      "midi": 64,
      "hit": false,
      "t": 4692.3828125,
      "d": 209.9609375,
      "v": 65
    },
    {
      "midi": 47,
      "hit": false,
      "t": 4921.875,
      "d": 219.7265625,
      "v": 65
    },
    {
      "midi": 64,
      "hit": false,
      "t": 4921.875,
      "d": 219.7265625,
      "v": 65
    },
    {
      "midi": 61,
      "hit": false,
      "t": 5161.1328125,
      "d": 209.9609375,
      "v": 65
    },
    {
      "midi": 45,
      "hit": false,
      "t": 5390.625,
      "d": 219.7265625,
      "v": 65
    },
    {
      "midi": 64,
      "hit": false,
      "t": 5390.625,
      "d": 219.7265625,
      "v": 65
    },
    {
      "midi": 45,
      "hit": false,
      "t": 5859.375,
      "d": 214.84375,
      "v": 65
    },
    {
      "midi": 64,
      "hit": false,
      "t": 5859.375,
      "d": 214.84375,
      "v": 65
    },
    {
      "midi": 45,
      "hit": false,
      "t": 6333.0078125,
      "d": 209.9609375,
      "v": 65
    },
    {
      "midi": 64,
      "hit": false,
      "t": 6333.0078125,
      "d": 209.9609375,
      "v": 65
    },
    {
      "midi": 42,
      "hit": false,
      "t": 6567.3828125,
      "d": 207.51953125,
      "v": 65
    },
    {
      "midi": 66,
      "hit": false,
      "t": 6567.3828125,
      "d": 207.51953125,
      "v": 65
    },
    {
      "midi": 42,
      "hit": false,
      "t": 7036.1328125,
      "d": 214.84375,
      "v": 65
    },
    {
      "midi": 66,
      "hit": false,
      "t": 7036.1328125,
      "d": 214.84375,
      "v": 65
    },
    {
      "midi": 52,
      "hit": false,
      "t": 7504.8828125,
      "d": 207.51953125,
      "v": 65
    },
    {
      "midi": 68,
      "hit": false,
      "t": 7504.8828125,
      "d": 207.51953125,
      "v": 65
    },
    {
      "midi": 52,
      "hit": false,
      "t": 7731.93359375,
      "d": 214.84375,
      "v": 65
    },
    {
      "midi": 68,
      "hit": false,
      "t": 7731.93359375,
      "d": 214.84375,
      "v": 65
    },
    {
      "midi": 49,
      "hit": false,
      "t": 7971.19140625,
      "d": 209.9609375,
      "v": 65
    },
    {
      "midi": 66,
      "hit": false,
      "t": 7971.19140625,
      "d": 209.9609375,
      "v": 65
    },
    {
      "midi": 49,
      "hit": false,
      "t": 8203.125,
      "d": 212.40234375,
      "v": 65
    },
    {
      "midi": 66,
      "hit": false,
      "t": 8203.125,
      "d": 212.40234375,
      "v": 65
    },
    {
      "midi": 47,
      "hit": false,
      "t": 8439.94140625,
      "d": 214.84375,
      "v": 65
    },
    {
      "midi": 64,
      "hit": false,
      "t": 8439.94140625,
      "d": 214.84375,
      "v": 65
    },
    {
      "midi": 47,
      "hit": false,
      "t": 8666.9921875,
      "d": 222.16796875,
      "v": 65
    },
    {
      "midi": 64,
      "hit": false,
      "t": 8666.9921875,
      "d": 222.16796875,
      "v": 65
    },
    {
      "midi": 61,
      "hit": false,
      "t": 8908.69140625,
      "d": 209.9609375,
      "v": 65
    },
    {
      "midi": 45,
      "hit": false,
      "t": 9143.06640625,
      "d": 209.9609375,
      "v": 65
    },
    {
      "midi": 64,
      "hit": false,
      "t": 9143.06640625,
      "d": 209.9609375,
      "v": 65
    },
    {
      "midi": 45,
      "hit": false,
      "t": 9606.93359375,
      "d": 214.84375,
      "v": 65
    },
    {
      "midi": 64,
      "hit": false,
      "t": 9606.93359375,
      "d": 214.84375,
      "v": 65
    },
    {
      "midi": 45,
      "hit": false,
      "t": 10078.125,
      "d": 209.9609375,
      "v": 65
    },
    {
      "midi": 64,
      "hit": false,
      "t": 10078.125,
      "d": 209.9609375,
      "v": 65
    },
    {
      "midi": 42,
      "hit": false,
      "t": 10314.94140625,
      "d": 205.078125,
      "v": 65
    },
    {
      "midi": 66,
      "hit": false,
      "t": 10314.94140625,
      "d": 205.078125,
      "v": 65
    },
    {
      "midi": 42,
      "hit": false,
      "t": 10781.25,
      "d": 209.9609375,
      "v": 65
    },
    {
      "midi": 66,
      "hit": false,
      "t": 10781.25,
      "d": 209.9609375,
      "v": 65
    },
    {
      "midi": 59,
      "hit": false,
      "t": 11247.55859375,
      "d": 1137.6953125,
      "v": 65
    },
    {
      "midi": 56,
      "hit": false,
      "t": 11252.44140625,
      "d": 1132.8125,
      "v": 65
    },
    {
      "midi": 64,
      "hit": false,
      "t": 11252.44140625,
      "d": 1132.8125,
      "v": 65
    },
    {
      "midi": 56,
      "hit": false,
      "t": 12653.80859375,
      "d": 209.9609375,
      "v": 65
    },
    {
      "midi": 59,
      "hit": false,
      "t": 12653.80859375,
      "d": 209.9609375,
      "v": 65
    },
    {
      "midi": 64,
      "hit": false,
      "t": 12653.80859375,
      "d": 209.9609375,
      "v": 65
    },
    {
      "midi": 57,
      "hit": false,
      "t": 12883.30078125,
      "d": 908.203125,
      "v": 65
    },
    {
      "midi": 61,
      "hit": false,
      "t": 12883.30078125,
      "d": 908.203125,
      "v": 65
    },
    {
      "midi": 64,
      "hit": false,
      "t": 12883.30078125,
      "d": 908.203125,
      "v": 65
    },
    {
      "midi": 57,
      "hit": false,
      "t": 14060.05859375,
      "d": 209.9609375,
      "v": 65
    },
    {
      "midi": 61,
      "hit": false,
      "t": 14060.05859375,
      "d": 209.9609375,
      "v": 65
    },
    {
      "midi": 66,
      "hit": false,
      "t": 14060.05859375,
      "d": 209.9609375,
      "v": 65
    },
    {
      "midi": 57,
      "hit": false,
      "t": 14528.80859375,
      "d": 214.84375,
      "v": 65
    },
    {
      "midi": 61,
      "hit": false,
      "t": 14528.80859375,
      "d": 214.84375,
      "v": 65
    },
    {
      "midi": 66,
      "hit": false,
      "t": 14528.80859375,
      "d": 214.84375,
      "v": 65
    },
    {
      "midi": 59,
      "hit": false,
      "t": 14997.55859375,
      "d": 1364.74609375,
      "v": 65
    },
    {
      "midi": 64,
      "hit": false,
      "t": 14997.55859375,
      "d": 1364.74609375,
      "v": 65
    },
    {
      "midi": 56,
      "hit": false,
      "t": 15002.44140625,
      "d": 1359.86328125,
      "v": 65
    },
    {
      "midi": 57,
      "hit": false,
      "t": 16623.53515625,
      "d": 893.5546875,
      "v": 65
    },
    {
      "midi": 61,
      "hit": false,
      "t": 16623.53515625,
      "d": 893.5546875,
      "v": 65
    },
    {
      "midi": 64,
      "hit": false,
      "t": 16623.53515625,
      "d": 893.5546875,
      "v": 65
    },
    {
      "midi": 57,
      "hit": false,
      "t": 17778.3203125,
      "d": 202.63671875,
      "v": 65
    },
    {
      "midi": 61,
      "hit": false,
      "t": 17778.3203125,
      "d": 202.63671875,
      "v": 65
    },
    {
      "midi": 66,
      "hit": false,
      "t": 17778.3203125,
      "d": 202.63671875,
      "v": 65
    },
    {
      "midi": 57,
      "hit": false,
      "t": 18234.86328125,
      "d": 200.1953125,
      "v": 65
    },
    {
      "midi": 61,
      "hit": false,
      "t": 18234.86328125,
      "d": 200.1953125,
      "v": 65
    },
    {
      "midi": 66,
      "hit": false,
      "t": 18234.86328125,
      "d": 200.1953125,
      "v": 65
    },
    {
      "midi": 56,
      "hit": false,
      "t": 18688.96484375,
      "d": 1135.25390625,
      "v": 65
    },
    {
      "midi": 59,
      "hit": false,
      "t": 18688.96484375,
      "d": 1135.25390625,
      "v": 65
    },
    {
      "midi": 64,
      "hit": false,
      "t": 18688.96484375,
      "d": 1135.25390625,
      "v": 65
    },
    {
      "midi": 56,
      "hit": false,
      "t": 20087.890625,
      "d": 214.84375,
      "v": 65
    },
    {
      "midi": 59,
      "hit": false,
      "t": 20087.890625,
      "d": 214.84375,
      "v": 65
    },
    {
      "midi": 64,
      "hit": false,
      "t": 20087.890625,
      "d": 214.84375,
      "v": 65
    },
    {
      "midi": 57,
      "hit": false,
      "t": 20322.265625,
      "d": 903.3203125,
      "v": 65
    },
    {
      "midi": 61,
      "hit": false,
      "t": 20322.265625,
      "d": 903.3203125,
      "v": 65
    },
    {
      "midi": 64,
      "hit": false,
      "t": 20322.265625,
      "d": 903.3203125,
      "v": 65
    },
    {
      "midi": 57,
      "hit": false,
      "t": 21494.140625,
      "d": 209.9609375,
      "v": 65
    },
    {
      "midi": 61,
      "hit": false,
      "t": 21494.140625,
      "d": 209.9609375,
      "v": 65
    },
    {
      "midi": 66,
      "hit": false,
      "t": 21494.140625,
      "d": 209.9609375,
      "v": 65
    },
    {
      "midi": 57,
      "hit": false,
      "t": 21960.44921875,
      "d": 209.9609375,
      "v": 65
    },
    {
      "midi": 61,
      "hit": false,
      "t": 21960.44921875,
      "d": 209.9609375,
      "v": 65
    },
    {
      "midi": 66,
      "hit": false,
      "t": 21960.44921875,
      "d": 209.9609375,
      "v": 65
    },
    {
      "midi": 59,
      "hit": false,
      "t": 22429.19921875,
      "d": 1369.62890625,
      "v": 65
    },
    {
      "midi": 64,
      "hit": false,
      "t": 22429.19921875,
      "d": 1369.62890625,
      "v": 65
    },
    {
      "midi": 56,
      "hit": false,
      "t": 22434.08203125,
      "d": 1364.74609375,
      "v": 65
    },
    {
      "midi": 57,
      "hit": false,
      "t": 24062.5,
      "d": 913.0859375,
      "v": 65
    },
    {
      "midi": 61,
      "hit": false,
      "t": 24062.5,
      "d": 913.0859375,
      "v": 65
    },
    {
      "midi": 64,
      "hit": false,
      "t": 24062.5,
      "d": 913.0859375,
      "v": 65
    },
    {
      "midi": 57,
      "hit": false,
      "t": 25239.2578125,
      "d": 214.84375,
      "v": 65
    },
    {
      "midi": 61,
      "hit": false,
      "t": 25239.2578125,
      "d": 214.84375,
      "v": 65
    },
    {
      "midi": 66,
      "hit": false,
      "t": 25239.2578125,
      "d": 214.84375,
      "v": 65
    },
    {
      "midi": 57,
      "hit": false,
      "t": 25708.0078125,
      "d": 209.9609375,
      "v": 65
    },
    {
      "midi": 61,
      "hit": false,
      "t": 25708.0078125,
      "d": 209.9609375,
      "v": 65
    },
    {
      "midi": 66,
      "hit": false,
      "t": 25708.0078125,
      "d": 209.9609375,
      "v": 65
    },
    {
      "midi": 59,
      "hit": false,
      "t": 39296.875,
      "d": 209.9609375,
      "v": 65
    },
    {
      "midi": 64,
      "hit": false,
      "t": 39296.875,
      "d": 209.9609375,
      "v": 65
    },
    {
      "midi": 68,
      "hit": false,
      "t": 39296.875,
      "d": 209.9609375,
      "v": 65
    },
    {
      "midi": 59,
      "hit": false,
      "t": 39768.06640625,
      "d": 209.9609375,
      "v": 65
    },
    {
      "midi": 64,
      "hit": false,
      "t": 39768.06640625,
      "d": 209.9609375,
      "v": 65
    },
    {
      "midi": 68,
      "hit": false,
      "t": 39768.06640625,
      "d": 209.9609375,
      "v": 65
    },
    {
      "midi": 61,
      "hit": false,
      "t": 40236.81640625,
      "d": 214.84375,
      "v": 65
    },
    {
      "midi": 64,
      "hit": false,
      "t": 40236.81640625,
      "d": 214.84375,
      "v": 65
    },
    {
      "midi": 69,
      "hit": false,
      "t": 40236.81640625,
      "d": 214.84375,
      "v": 65
    },
    {
      "midi": 61,
      "hit": false,
      "t": 40705.56640625,
      "d": 207.51953125,
      "v": 65
    },
    {
      "midi": 64,
      "hit": false,
      "t": 40705.56640625,
      "d": 207.51953125,
      "v": 65
    },
    {
      "midi": 69,
      "hit": false,
      "t": 40705.56640625,
      "d": 207.51953125,
      "v": 65
    },
    {
      "midi": 63,
      "hit": false,
      "t": 41176.7578125,
      "d": 205.078125,
      "v": 65
    },
    {
      "midi": 66,
      "hit": false,
      "t": 41176.7578125,
      "d": 205.078125,
      "v": 65
    },
    {
      "midi": 71,
      "hit": false,
      "t": 41176.7578125,
      "d": 205.078125,
      "v": 65
    },
    {
      "midi": 63,
      "hit": false,
      "t": 41643.06640625,
      "d": 214.84375,
      "v": 65
    },
    {
      "midi": 66,
      "hit": false,
      "t": 41643.06640625,
      "d": 214.84375,
      "v": 65
    },
    {
      "midi": 71,
      "hit": false,
      "t": 41643.06640625,
      "d": 214.84375,
      "v": 65
    },
    {
      "midi": 59,
      "hit": false,
      "t": 42111.81640625,
      "d": 209.9609375,
      "v": 65
    },
    {
      "midi": 64,
      "hit": false,
      "t": 42111.81640625,
      "d": 209.9609375,
      "v": 65
    },
    {
      "midi": 68,
      "hit": false,
      "t": 42111.81640625,
      "d": 209.9609375,
      "v": 65
    },
    {
      "midi": 59,
      "hit": false,
      "t": 42580.56640625,
      "d": 207.51953125,
      "v": 65
    },
    {
      "midi": 64,
      "hit": false,
      "t": 42580.56640625,
      "d": 207.51953125,
      "v": 65
    },
    {
      "midi": 68,
      "hit": false,
      "t": 42580.56640625,
      "d": 207.51953125,
      "v": 65
    },
    {
      "midi": 59,
      "hit": false,
      "t": 43046.875,
      "d": 212.40234375,
      "v": 65
    },
    {
      "midi": 64,
      "hit": false,
      "t": 43046.875,
      "d": 212.40234375,
      "v": 65
    },
    {
      "midi": 68,
      "hit": false,
      "t": 43046.875,
      "d": 212.40234375,
      "v": 65
    },
    {
      "midi": 59,
      "hit": false,
      "t": 43518.06640625,
      "d": 207.51953125,
      "v": 65
    },
    {
      "midi": 64,
      "hit": false,
      "t": 43518.06640625,
      "d": 207.51953125,
      "v": 65
    },
    {
      "midi": 68,
      "hit": false,
      "t": 43518.06640625,
      "d": 207.51953125,
      "v": 65
    },
    {
      "midi": 61,
      "hit": false,
      "t": 43986.81640625,
      "d": 207.51953125,
      "v": 65
    },
    {
      "midi": 64,
      "hit": false,
      "t": 43986.81640625,
      "d": 207.51953125,
      "v": 65
    },
    {
      "midi": 69,
      "hit": false,
      "t": 43986.81640625,
      "d": 207.51953125,
      "v": 65
    },
    {
      "midi": 61,
      "hit": false,
      "t": 44455.56640625,
      "d": 209.9609375,
      "v": 65
    },
    {
      "midi": 64,
      "hit": false,
      "t": 44455.56640625,
      "d": 209.9609375,
      "v": 65
    },
    {
      "midi": 69,
      "hit": false,
      "t": 44455.56640625,
      "d": 209.9609375,
      "v": 65
    },
    {
      "midi": 57,
      "hit": false,
      "t": 44926.7578125,
      "d": 209.9609375,
      "v": 65
    },
    {
      "midi": 62,
      "hit": false,
      "t": 44926.7578125,
      "d": 209.9609375,
      "v": 65
    },
    {
      "midi": 66,
      "hit": false,
      "t": 44926.7578125,
      "d": 209.9609375,
      "v": 65
    },
    {
      "midi": 57,
      "hit": false,
      "t": 45153.80859375,
      "d": 214.84375,
      "v": 65
    },
    {
      "midi": 62,
      "hit": false,
      "t": 45153.80859375,
      "d": 214.84375,
      "v": 65
    },
    {
      "midi": 66,
      "hit": false,
      "t": 45153.80859375,
      "d": 214.84375,
      "v": 65
    },
    {
      "midi": 59,
      "hit": false,
      "t": 45627.44140625,
      "d": 903.3203125,
      "v": 65
    },
    {
      "midi": 64,
      "hit": false,
      "t": 45627.44140625,
      "d": 903.3203125,
      "v": 65
    },
    {
      "midi": 68,
      "hit": false,
      "t": 45627.44140625,
      "d": 903.3203125,
      "v": 65
    },
    {
      "midi": 59,
      "hit": false,
      "t": 46799.31640625,
      "d": 209.9609375,
      "v": 65
    },
    {
      "midi": 64,
      "hit": false,
      "t": 46799.31640625,
      "d": 209.9609375,
      "v": 65
    },
    {
      "midi": 68,
      "hit": false,
      "t": 46799.31640625,
      "d": 209.9609375,
      "v": 65
    },
    {
      "midi": 59,
      "hit": false,
      "t": 47268.06640625,
      "d": 209.9609375,
      "v": 65
    },
    {
      "midi": 64,
      "hit": false,
      "t": 47268.06640625,
      "d": 209.9609375,
      "v": 65
    },
    {
      "midi": 68,
      "hit": false,
      "t": 47268.06640625,
      "d": 209.9609375,
      "v": 65
    },
    {
      "midi": 61,
      "hit": false,
      "t": 47736.81640625,
      "d": 214.84375,
      "v": 65
    },
    {
      "midi": 64,
      "hit": false,
      "t": 47736.81640625,
      "d": 214.84375,
      "v": 65
    },
    {
      "midi": 69,
      "hit": false,
      "t": 47736.81640625,
      "d": 214.84375,
      "v": 65
    },
    {
      "midi": 61,
      "hit": false,
      "t": 48200.68359375,
      "d": 214.84375,
      "v": 65
    },
    {
      "midi": 64,
      "hit": false,
      "t": 48200.68359375,
      "d": 214.84375,
      "v": 65
    },
    {
      "midi": 69,
      "hit": false,
      "t": 48200.68359375,
      "d": 214.84375,
      "v": 65
    },
    {
      "midi": 63,
      "hit": false,
      "t": 48674.31640625,
      "d": 209.9609375,
      "v": 65
    },
    {
      "midi": 66,
      "hit": false,
      "t": 48674.31640625,
      "d": 209.9609375,
      "v": 65
    },
    {
      "midi": 71,
      "hit": false,
      "t": 48674.31640625,
      "d": 209.9609375,
      "v": 65
    },
    {
      "midi": 63,
      "hit": false,
      "t": 49143.06640625,
      "d": 209.9609375,
      "v": 65
    },
    {
      "midi": 66,
      "hit": false,
      "t": 49143.06640625,
      "d": 209.9609375,
      "v": 65
    },
    {
      "midi": 71,
      "hit": false,
      "t": 49143.06640625,
      "d": 209.9609375,
      "v": 65
    },
    {
      "midi": 59,
      "hit": false,
      "t": 49611.81640625,
      "d": 209.9609375,
      "v": 65
    },
    {
      "midi": 64,
      "hit": false,
      "t": 49611.81640625,
      "d": 209.9609375,
      "v": 65
    },
    {
      "midi": 68,
      "hit": false,
      "t": 49611.81640625,
      "d": 209.9609375,
      "v": 65
    },
    {
      "midi": 59,
      "hit": false,
      "t": 50080.56640625,
      "d": 209.9609375,
      "v": 65
    },
    {
      "midi": 64,
      "hit": false,
      "t": 50080.56640625,
      "d": 209.9609375,
      "v": 65
    },
    {
      "midi": 68,
      "hit": false,
      "t": 50080.56640625,
      "d": 209.9609375,
      "v": 65
    },
    {
      "midi": 59,
      "hit": false,
      "t": 50544.43359375,
      "d": 217.28515625,
      "v": 65
    },
    {
      "midi": 64,
      "hit": false,
      "t": 50544.43359375,
      "d": 217.28515625,
      "v": 65
    },
    {
      "midi": 68,
      "hit": false,
      "t": 50544.43359375,
      "d": 217.28515625,
      "v": 65
    },
    {
      "midi": 59,
      "hit": false,
      "t": 51018.06640625,
      "d": 209.9609375,
      "v": 65
    },
    {
      "midi": 64,
      "hit": false,
      "t": 51018.06640625,
      "d": 209.9609375,
      "v": 65
    },
    {
      "midi": 68,
      "hit": false,
      "t": 51018.06640625,
      "d": 209.9609375,
      "v": 65
    },
    {
      "midi": 61,
      "hit": false,
      "t": 51486.81640625,
      "d": 209.9609375,
      "v": 65
    },
    {
      "midi": 64,
      "hit": false,
      "t": 51486.81640625,
      "d": 209.9609375,
      "v": 65
    },
    {
      "midi": 69,
      "hit": false,
      "t": 51486.81640625,
      "d": 209.9609375,
      "v": 65
    },
    {
      "midi": 61,
      "hit": false,
      "t": 51955.56640625,
      "d": 209.9609375,
      "v": 65
    },
    {
      "midi": 64,
      "hit": false,
      "t": 51955.56640625,
      "d": 209.9609375,
      "v": 65
    },
    {
      "midi": 69,
      "hit": false,
      "t": 51955.56640625,
      "d": 209.9609375,
      "v": 65
    },
    {
      "midi": 57,
      "hit": false,
      "t": 52419.43359375,
      "d": 219.7265625,
      "v": 65
    },
    {
      "midi": 62,
      "hit": false,
      "t": 52419.43359375,
      "d": 219.7265625,
      "v": 65
    },
    {
      "midi": 66,
      "hit": false,
      "t": 52419.43359375,
      "d": 219.7265625,
      "v": 65
    },
    {
      "midi": 57,
      "hit": false,
      "t": 52653.80859375,
      "d": 214.84375,
      "v": 65
    },
    {
      "midi": 62,
      "hit": false,
      "t": 52653.80859375,
      "d": 214.84375,
      "v": 65
    },
    {
      "midi": 66,
      "hit": false,
      "t": 52653.80859375,
      "d": 214.84375,
      "v": 65
    },
    {
      "midi": 59,
      "hit": false,
      "t": 53127.44140625,
      "d": 1135.25390625,
      "v": 65
    },
    {
      "midi": 64,
      "hit": false,
      "t": 53127.44140625,
      "d": 1135.25390625,
      "v": 65
    },
    {
      "midi": 68,
      "hit": false,
      "t": 53127.44140625,
      "d": 1135.25390625,
      "v": 65
    },
    {
      "midi": 52,
      "hit": false,
      "t": 54296.875,
      "d": 209.9609375,
      "v": 65
    },
    {
      "midi": 68,
      "hit": false,
      "t": 54296.875,
      "d": 209.9609375,
      "v": 65
    },
    {
      "midi": 52,
      "hit": false,
      "t": 54533.69140625,
      "d": 209.9609375,
      "v": 65
    },
    {
      "midi": 68,
      "hit": false,
      "t": 54533.69140625,
      "d": 209.9609375,
      "v": 65
    },
    {
      "midi": 49,
      "hit": false,
      "t": 54768.06640625,
      "d": 209.9609375,
      "v": 65
    },
    {
      "midi": 66,
      "hit": false,
      "t": 54768.06640625,
      "d": 209.9609375,
      "v": 65
    },
    {
      "midi": 49,
      "hit": false,
      "t": 54997.55859375,
      "d": 214.84375,
      "v": 65
    },
    {
      "midi": 66,
      "hit": false,
      "t": 54997.55859375,
      "d": 214.84375,
      "v": 65
    },
    {
      "midi": 47,
      "hit": false,
      "t": 55236.81640625,
      "d": 214.84375,
      "v": 65
    },
    {
      "midi": 64,
      "hit": false,
      "t": 55236.81640625,
      "d": 214.84375,
      "v": 65
    },
    {
      "midi": 47,
      "hit": false,
      "t": 55471.19140625,
      "d": 214.84375,
      "v": 65
    },
    {
      "midi": 64,
      "hit": false,
      "t": 55471.19140625,
      "d": 214.84375,
      "v": 65
    },
    {
      "midi": 61,
      "hit": false,
      "t": 55705.56640625,
      "d": 209.9609375,
      "v": 65
    },
    {
      "midi": 64,
      "hit": false,
      "t": 55939.94140625,
      "d": 102.5390625,
      "v": 65
    },
    {
      "midi": 45,
      "hit": false,
      "t": 55939.94140625,
      "d": 209.9609375,
      "v": 65
    },
    {
      "midi": 64,
      "hit": false,
      "t": 56403.80859375,
      "d": 107.421875,
      "v": 65
    },
    {
      "midi": 45,
      "hit": false,
      "t": 56403.80859375,
      "d": 219.7265625,
      "v": 65
    },
    {
      "midi": 64,
      "hit": false,
      "t": 56877.44140625,
      "d": 107.421875,
      "v": 65
    },
    {
      "midi": 45,
      "hit": false,
      "t": 56877.44140625,
      "d": 214.84375,
      "v": 65
    },
    {
      "midi": 66,
      "hit": false,
      "t": 57111.81640625,
      "d": 107.421875,
      "v": 65
    },
    {
      "midi": 42,
      "hit": false,
      "t": 57111.81640625,
      "d": 214.84375,
      "v": 65
    },
    {
      "midi": 66,
      "hit": false,
      "t": 57585.44921875,
      "d": 97.65625,
      "v": 65
    },
    {
      "midi": 42,
      "hit": false,
      "t": 57585.44921875,
      "d": 205.078125,
      "v": 65
    },
    {
      "midi": 52,
      "hit": false,
      "t": 58046.875,
      "d": 212.40234375,
      "v": 65
    },
    {
      "midi": 68,
      "hit": false,
      "t": 58046.875,
      "d": 212.40234375,
      "v": 65
    },
    {
      "midi": 52,
      "hit": false,
      "t": 58278.80859375,
      "d": 219.7265625,
      "v": 65
    },
    {
      "midi": 68,
      "hit": false,
      "t": 58278.80859375,
      "d": 219.7265625,
      "v": 65
    },
    {
      "midi": 49,
      "hit": false,
      "t": 58518.06640625,
      "d": 214.84375,
      "v": 65
    },
    {
      "midi": 66,
      "hit": false,
      "t": 58518.06640625,
      "d": 214.84375,
      "v": 65
    },
    {
      "midi": 49,
      "hit": false,
      "t": 58752.44140625,
      "d": 209.9609375,
      "v": 65
    },
    {
      "midi": 66,
      "hit": false,
      "t": 58752.44140625,
      "d": 209.9609375,
      "v": 65
    },
    {
      "midi": 47,
      "hit": false,
      "t": 58986.81640625,
      "d": 209.9609375,
      "v": 65
    },
    {
      "midi": 64,
      "hit": false,
      "t": 58986.81640625,
      "d": 209.9609375,
      "v": 65
    },
    {
      "midi": 47,
      "hit": false,
      "t": 59226.07421875,
      "d": 205.078125,
      "v": 65
    },
    {
      "midi": 64,
      "hit": false,
      "t": 59226.07421875,
      "d": 205.078125,
      "v": 65
    },
    {
      "midi": 61,
      "hit": false,
      "t": 59453.125,
      "d": 212.40234375,
      "v": 65
    },
    {
      "midi": 45,
      "hit": false,
      "t": 59685.05859375,
      "d": 219.7265625,
      "v": 65
    },
    {
      "midi": 64,
      "hit": false,
      "t": 59685.05859375,
      "d": 219.7265625,
      "v": 65
    },
    {
      "midi": 45,
      "hit": false,
      "t": 60153.80859375,
      "d": 219.7265625,
      "v": 65
    },
    {
      "midi": 64,
      "hit": false,
      "t": 60153.80859375,
      "d": 219.7265625,
      "v": 65
    },
    {
      "midi": 45,
      "hit": false,
      "t": 60627.44140625,
      "d": 209.9609375,
      "v": 65
    },
    {
      "midi": 64,
      "hit": false,
      "t": 60627.44140625,
      "d": 209.9609375,
      "v": 65
    },
    {
      "midi": 42,
      "hit": false,
      "t": 60861.81640625,
      "d": 209.9609375,
      "v": 65
    },
    {
      "midi": 66,
      "hit": false,
      "t": 60861.81640625,
      "d": 209.9609375,
      "v": 65
    },
    {
      "midi": 42,
      "hit": false,
      "t": 61330.56640625,
      "d": 214.84375,
      "v": 65
    },
    {
      "midi": 66,
      "hit": false,
      "t": 61330.56640625,
      "d": 214.84375,
      "v": 65
    },
    {
      "midi": 81,
      "hit": false,
      "t": 61796.875,
      "d": 104.98046875,
      "v": 40
    },
    {
      "midi": 85,
      "hit": false,
      "t": 61796.875,
      "d": 104.98046875,
      "v": 40
    },
    {
      "midi": 76,
      "hit": false,
      "t": 61804.19921875,
      "d": 97.65625,
      "v": 40
    },
    {
      "midi": 76,
      "hit": false,
      "t": 62268.06640625,
      "d": 102.5390625,
      "v": 40
    },
    {
      "midi": 81,
      "hit": false,
      "t": 62268.06640625,
      "d": 102.5390625,
      "v": 40
    },
    {
      "midi": 85,
      "hit": false,
      "t": 62268.06640625,
      "d": 102.5390625,
      "v": 40
    },
    {
      "midi": 76,
      "hit": false,
      "t": 62736.81640625,
      "d": 102.5390625,
      "v": 40
    },
    {
      "midi": 81,
      "hit": false,
      "t": 62736.81640625,
      "d": 102.5390625,
      "v": 40
    },
    {
      "midi": 85,
      "hit": false,
      "t": 62736.81640625,
      "d": 102.5390625,
      "v": 40
    },
    {
      "midi": 76,
      "hit": false,
      "t": 62966.30859375,
      "d": 112.3046875,
      "v": 40
    },
    {
      "midi": 81,
      "hit": false,
      "t": 62966.30859375,
      "d": 112.3046875,
      "v": 40
    },
    {
      "midi": 85,
      "hit": false,
      "t": 62966.30859375,
      "d": 112.3046875,
      "v": 40
    },
    {
      "midi": 76,
      "hit": false,
      "t": 63205.56640625,
      "d": 107.421875,
      "v": 40
    },
    {
      "midi": 81,
      "hit": false,
      "t": 63205.56640625,
      "d": 107.421875,
      "v": 40
    },
    {
      "midi": 85,
      "hit": false,
      "t": 63205.56640625,
      "d": 107.421875,
      "v": 40
    },
    {
      "midi": 76,
      "hit": false,
      "t": 63435.05859375,
      "d": 107.421875,
      "v": 40
    },
    {
      "midi": 81,
      "hit": false,
      "t": 63435.05859375,
      "d": 107.421875,
      "v": 40
    },
    {
      "midi": 85,
      "hit": false,
      "t": 63435.05859375,
      "d": 107.421875,
      "v": 40
    },
    {
      "midi": 77,
      "hit": false,
      "t": 63671.875,
      "d": 107.421875,
      "v": 40
    },
    {
      "midi": 81,
      "hit": false,
      "t": 63671.875,
      "d": 107.421875,
      "v": 40
    },
    {
      "midi": 85,
      "hit": false,
      "t": 63671.875,
      "d": 107.421875,
      "v": 40
    },
    {
      "midi": 77,
      "hit": false,
      "t": 64143.06640625,
      "d": 102.5390625,
      "v": 40
    },
    {
      "midi": 81,
      "hit": false,
      "t": 64143.06640625,
      "d": 102.5390625,
      "v": 40
    },
    {
      "midi": 85,
      "hit": false,
      "t": 64143.06640625,
      "d": 102.5390625,
      "v": 40
    },
    {
      "midi": 77,
      "hit": false,
      "t": 64611.81640625,
      "d": 102.5390625,
      "v": 40
    },
    {
      "midi": 81,
      "hit": false,
      "t": 64611.81640625,
      "d": 102.5390625,
      "v": 40
    },
    {
      "midi": 85,
      "hit": false,
      "t": 64611.81640625,
      "d": 102.5390625,
      "v": 40
    },
    {
      "midi": 77,
      "hit": false,
      "t": 64843.75,
      "d": 104.98046875,
      "v": 40
    },
    {
      "midi": 81,
      "hit": false,
      "t": 64843.75,
      "d": 104.98046875,
      "v": 40
    },
    {
      "midi": 85,
      "hit": false,
      "t": 64843.75,
      "d": 104.98046875,
      "v": 40
    },
    {
      "midi": 77,
      "hit": false,
      "t": 65085.44921875,
      "d": 97.65625,
      "v": 40
    },
    {
      "midi": 81,
      "hit": false,
      "t": 65085.44921875,
      "d": 97.65625,
      "v": 40
    },
    {
      "midi": 85,
      "hit": false,
      "t": 65085.44921875,
      "d": 97.65625,
      "v": 40
    },
    {
      "midi": 77,
      "hit": false,
      "t": 65314.94140625,
      "d": 107.421875,
      "v": 40
    },
    {
      "midi": 81,
      "hit": false,
      "t": 65314.94140625,
      "d": 107.421875,
      "v": 40
    },
    {
      "midi": 85,
      "hit": false,
      "t": 65314.94140625,
      "d": 107.421875,
      "v": 40
    },
    {
      "midi": 78,
      "hit": false,
      "t": 65544.43359375,
      "d": 107.421875,
      "v": 40
    },
    {
      "midi": 81,
      "hit": false,
      "t": 65544.43359375,
      "d": 107.421875,
      "v": 40
    },
    {
      "midi": 86,
      "hit": false,
      "t": 65544.43359375,
      "d": 107.421875,
      "v": 40
    },
    {
      "midi": 78,
      "hit": false,
      "t": 66013.18359375,
      "d": 112.3046875,
      "v": 40
    },
    {
      "midi": 81,
      "hit": false,
      "t": 66013.18359375,
      "d": 112.3046875,
      "v": 40
    },
    {
      "midi": 86,
      "hit": false,
      "t": 66013.18359375,
      "d": 112.3046875,
      "v": 40
    },
    {
      "midi": 78,
      "hit": false,
      "t": 66486.81640625,
      "d": 92.7734375,
      "v": 40
    },
    {
      "midi": 81,
      "hit": false,
      "t": 66486.81640625,
      "d": 92.7734375,
      "v": 40
    },
    {
      "midi": 86,
      "hit": false,
      "t": 66486.81640625,
      "d": 92.7734375,
      "v": 40
    },
    {
      "midi": 78,
      "hit": false,
      "t": 66718.75,
      "d": 104.98046875,
      "v": 40
    },
    {
      "midi": 81,
      "hit": false,
      "t": 66718.75,
      "d": 104.98046875,
      "v": 40
    },
    {
      "midi": 86,
      "hit": false,
      "t": 66718.75,
      "d": 104.98046875,
      "v": 40
    },
    {
      "midi": 78,
      "hit": false,
      "t": 66955.56640625,
      "d": 102.5390625,
      "v": 40
    },
    {
      "midi": 81,
      "hit": false,
      "t": 66955.56640625,
      "d": 102.5390625,
      "v": 40
    },
    {
      "midi": 86,
      "hit": false,
      "t": 66955.56640625,
      "d": 102.5390625,
      "v": 40
    },
    {
      "midi": 78,
      "hit": false,
      "t": 67185.05859375,
      "d": 107.421875,
      "v": 40
    },
    {
      "midi": 81,
      "hit": false,
      "t": 67185.05859375,
      "d": 107.421875,
      "v": 40
    },
    {
      "midi": 86,
      "hit": false,
      "t": 67185.05859375,
      "d": 107.421875,
      "v": 40
    },
    {
      "midi": 77,
      "hit": false,
      "t": 67424.31640625,
      "d": 107.421875,
      "v": 40
    },
    {
      "midi": 81,
      "hit": false,
      "t": 67424.31640625,
      "d": 107.421875,
      "v": 40
    },
    {
      "midi": 86,
      "hit": false,
      "t": 67424.31640625,
      "d": 107.421875,
      "v": 40
    },
    {
      "midi": 77,
      "hit": false,
      "t": 67893.06640625,
      "d": 102.5390625,
      "v": 40
    },
    {
      "midi": 81,
      "hit": false,
      "t": 67893.06640625,
      "d": 102.5390625,
      "v": 40
    },
    {
      "midi": 86,
      "hit": false,
      "t": 67893.06640625,
      "d": 102.5390625,
      "v": 40
    },
    {
      "midi": 77,
      "hit": false,
      "t": 68361.81640625,
      "d": 92.7734375,
      "v": 40
    },
    {
      "midi": 81,
      "hit": false,
      "t": 68361.81640625,
      "d": 92.7734375,
      "v": 40
    },
    {
      "midi": 86,
      "hit": false,
      "t": 68361.81640625,
      "d": 92.7734375,
      "v": 40
    },
    {
      "midi": 77,
      "hit": false,
      "t": 68588.8671875,
      "d": 109.86328125,
      "v": 40
    },
    {
      "midi": 81,
      "hit": false,
      "t": 68588.8671875,
      "d": 109.86328125,
      "v": 40
    },
    {
      "midi": 86,
      "hit": false,
      "t": 68588.8671875,
      "d": 109.86328125,
      "v": 40
    },
    {
      "midi": 77,
      "hit": false,
      "t": 68830.56640625,
      "d": 107.421875,
      "v": 40
    },
    {
      "midi": 81,
      "hit": false,
      "t": 68830.56640625,
      "d": 107.421875,
      "v": 40
    },
    {
      "midi": 86,
      "hit": false,
      "t": 68830.56640625,
      "d": 107.421875,
      "v": 40
    },
    {
      "midi": 77,
      "hit": false,
      "t": 69060.05859375,
      "d": 112.3046875,
      "v": 40
    },
    {
      "midi": 81,
      "hit": false,
      "t": 69060.05859375,
      "d": 112.3046875,
      "v": 40
    },
    {
      "midi": 86,
      "hit": false,
      "t": 69060.05859375,
      "d": 112.3046875,
      "v": 40
    },
    {
      "midi": 76,
      "hit": false,
      "t": 69294.43359375,
      "d": 107.421875,
      "v": 40
    },
    {
      "midi": 81,
      "hit": false,
      "t": 69294.43359375,
      "d": 107.421875,
      "v": 40
    },
    {
      "midi": 85,
      "hit": false,
      "t": 69294.43359375,
      "d": 107.421875,
      "v": 40
    },
    {
      "midi": 76,
      "hit": false,
      "t": 69768.06640625,
      "d": 102.5390625,
      "v": 40
    },
    {
      "midi": 81,
      "hit": false,
      "t": 69768.06640625,
      "d": 102.5390625,
      "v": 40
    },
    {
      "midi": 85,
      "hit": false,
      "t": 69768.06640625,
      "d": 102.5390625,
      "v": 40
    },
    {
      "midi": 78,
      "hit": false,
      "t": 70236.81640625,
      "d": 102.5390625,
      "v": 40
    },
    {
      "midi": 81,
      "hit": false,
      "t": 70236.81640625,
      "d": 102.5390625,
      "v": 40
    },
    {
      "midi": 85,
      "hit": false,
      "t": 70236.81640625,
      "d": 102.5390625,
      "v": 40
    },
    {
      "midi": 78,
      "hit": false,
      "t": 70463.8671875,
      "d": 109.86328125,
      "v": 40
    },
    {
      "midi": 81,
      "hit": false,
      "t": 70463.8671875,
      "d": 109.86328125,
      "v": 40
    },
    {
      "midi": 85,
      "hit": false,
      "t": 70463.8671875,
      "d": 109.86328125,
      "v": 40
    },
    {
      "midi": 78,
      "hit": false,
      "t": 70939.94140625,
      "d": 102.5390625,
      "v": 40
    },
    {
      "midi": 81,
      "hit": false,
      "t": 70939.94140625,
      "d": 102.5390625,
      "v": 40
    },
    {
      "midi": 85,
      "hit": false,
      "t": 70939.94140625,
      "d": 102.5390625,
      "v": 40
    },
    {
      "midi": 74,
      "hit": false,
      "t": 71174.31640625,
      "d": 102.5390625,
      "v": 40
    },
    {
      "midi": 78,
      "hit": false,
      "t": 71174.31640625,
      "d": 102.5390625,
      "v": 40
    },
    {
      "midi": 83,
      "hit": false,
      "t": 71174.31640625,
      "d": 102.5390625,
      "v": 40
    },
    {
      "midi": 74,
      "hit": false,
      "t": 71401.3671875,
      "d": 109.86328125,
      "v": 40
    },
    {
      "midi": 78,
      "hit": false,
      "t": 71401.3671875,
      "d": 109.86328125,
      "v": 40
    },
    {
      "midi": 83,
      "hit": false,
      "t": 71401.3671875,
      "d": 109.86328125,
      "v": 40
    },
    {
      "midi": 74,
      "hit": false,
      "t": 71872.55859375,
      "d": 107.421875,
      "v": 40
    },
    {
      "midi": 78,
      "hit": false,
      "t": 71872.55859375,
      "d": 107.421875,
      "v": 40
    },
    {
      "midi": 83,
      "hit": false,
      "t": 71872.55859375,
      "d": 107.421875,
      "v": 40
    },
    {
      "midi": 76,
      "hit": false,
      "t": 72111.81640625,
      "d": 107.421875,
      "v": 40
    },
    {
      "midi": 80,
      "hit": false,
      "t": 72111.81640625,
      "d": 107.421875,
      "v": 40
    },
    {
      "midi": 83,
      "hit": false,
      "t": 72111.81640625,
      "d": 107.421875,
      "v": 40
    },
    {
      "midi": 76,
      "hit": false,
      "t": 72341.30859375,
      "d": 107.421875,
      "v": 40
    },
    {
      "midi": 80,
      "hit": false,
      "t": 72341.30859375,
      "d": 107.421875,
      "v": 40
    },
    {
      "midi": 83,
      "hit": false,
      "t": 72341.30859375,
      "d": 107.421875,
      "v": 40
    },
    {
      "midi": 76,
      "hit": false,
      "t": 72580.56640625,
      "d": 102.5390625,
      "v": 40
    },
    {
      "midi": 80,
      "hit": false,
      "t": 72580.56640625,
      "d": 102.5390625,
      "v": 40
    },
    {
      "midi": 83,
      "hit": false,
      "t": 72580.56640625,
      "d": 102.5390625,
      "v": 40
    },
    {
      "midi": 76,
      "hit": false,
      "t": 73046.875,
      "d": 104.98046875,
      "v": 40
    },
    {
      "midi": 81,
      "hit": false,
      "t": 73046.875,
      "d": 104.98046875,
      "v": 40
    },
    {
      "midi": 85,
      "hit": false,
      "t": 73046.875,
      "d": 104.98046875,
      "v": 40
    },
    {
      "midi": 76,
      "hit": false,
      "t": 73518.06640625,
      "d": 107.421875,
      "v": 40
    },
    {
      "midi": 81,
      "hit": false,
      "t": 73518.06640625,
      "d": 107.421875,
      "v": 40
    },
    {
      "midi": 85,
      "hit": false,
      "t": 73518.06640625,
      "d": 107.421875,
      "v": 40
    },
    {
      "midi": 76,
      "hit": false,
      "t": 73747.55859375,
      "d": 112.3046875,
      "v": 40
    },
    {
      "midi": 81,
      "hit": false,
      "t": 73747.55859375,
      "d": 112.3046875,
      "v": 40
    },
    {
      "midi": 85,
      "hit": false,
      "t": 73747.55859375,
      "d": 112.3046875,
      "v": 40
    },
    {
      "midi": 78,
      "hit": false,
      "t": 73981.93359375,
      "d": 107.421875,
      "v": 40
    },
    {
      "midi": 81,
      "hit": false,
      "t": 73981.93359375,
      "d": 107.421875,
      "v": 40
    },
    {
      "midi": 86,
      "hit": false,
      "t": 73981.93359375,
      "d": 107.421875,
      "v": 40
    },
    {
      "midi": 78,
      "hit": false,
      "t": 74221.19140625,
      "d": 102.5390625,
      "v": 40
    },
    {
      "midi": 81,
      "hit": false,
      "t": 74221.19140625,
      "d": 102.5390625,
      "v": 40
    },
    {
      "midi": 86,
      "hit": false,
      "t": 74221.19140625,
      "d": 102.5390625,
      "v": 40
    },
    {
      "midi": 76,
      "hit": false,
      "t": 74685.05859375,
      "d": 107.421875,
      "v": 40
    },
    {
      "midi": 81,
      "hit": false,
      "t": 74685.05859375,
      "d": 107.421875,
      "v": 40
    },
    {
      "midi": 85,
      "hit": false,
      "t": 74685.05859375,
      "d": 107.421875,
      "v": 40
    },
    {
      "midi": 80,
      "hit": false,
      "t": 75153.80859375,
      "d": 107.421875,
      "v": 40
    },
    {
      "midi": 83,
      "hit": false,
      "t": 75153.80859375,
      "d": 107.421875,
      "v": 40
    },
    {
      "midi": 88,
      "hit": false,
      "t": 75153.80859375,
      "d": 107.421875,
      "v": 40
    },
    {
      "midi": 80,
      "hit": false,
      "t": 75393.06640625,
      "d": 102.5390625,
      "v": 40
    },
    {
      "midi": 83,
      "hit": false,
      "t": 75393.06640625,
      "d": 102.5390625,
      "v": 40
    },
    {
      "midi": 88,
      "hit": false,
      "t": 75393.06640625,
      "d": 102.5390625,
      "v": 40
    },
    {
      "midi": 80,
      "hit": false,
      "t": 75627.44140625,
      "d": 102.5390625,
      "v": 40
    },
    {
      "midi": 83,
      "hit": false,
      "t": 75627.44140625,
      "d": 102.5390625,
      "v": 40
    },
    {
      "midi": 88,
      "hit": false,
      "t": 75627.44140625,
      "d": 102.5390625,
      "v": 40
    },
    {
      "midi": 80,
      "hit": false,
      "t": 75861.81640625,
      "d": 102.5390625,
      "v": 40
    },
    {
      "midi": 83,
      "hit": false,
      "t": 75861.81640625,
      "d": 102.5390625,
      "v": 40
    },
    {
      "midi": 88,
      "hit": false,
      "t": 75861.81640625,
      "d": 102.5390625,
      "v": 40
    },
    {
      "midi": 80,
      "hit": false,
      "t": 76088.8671875,
      "d": 109.86328125,
      "v": 40
    },
    {
      "midi": 83,
      "hit": false,
      "t": 76088.8671875,
      "d": 109.86328125,
      "v": 40
    },
    {
      "midi": 88,
      "hit": false,
      "t": 76088.8671875,
      "d": 109.86328125,
      "v": 40
    },
    {
      "midi": 80,
      "hit": false,
      "t": 76328.125,
      "d": 102.5390625,
      "v": 40
    },
    {
      "midi": 83,
      "hit": false,
      "t": 76328.125,
      "d": 102.5390625,
      "v": 40
    },
    {
      "midi": 88,
      "hit": false,
      "t": 76328.125,
      "d": 102.5390625,
      "v": 40
    },
    {
      "midi": 80,
      "hit": false,
      "t": 76560.05859375,
      "d": 112.3046875,
      "v": 40
    },
    {
      "midi": 83,
      "hit": false,
      "t": 76560.05859375,
      "d": 112.3046875,
      "v": 40
    },
    {
      "midi": 88,
      "hit": false,
      "t": 76560.05859375,
      "d": 112.3046875,
      "v": 40
    },
    {
      "midi": 69,
      "hit": false,
      "t": 77268.06640625,
      "d": 209.9609375,
      "v": 40
    },
    {
      "midi": 73,
      "hit": false,
      "t": 77268.06640625,
      "d": 209.9609375,
      "v": 40
    },
    {
      "midi": 76,
      "hit": false,
      "t": 77268.06640625,
      "d": 209.9609375,
      "v": 40
    },
    {
      "midi": 69,
      "hit": false,
      "t": 77731.93359375,
      "d": 104.98046875,
      "v": 40
    },
    {
      "midi": 73,
      "hit": false,
      "t": 77731.93359375,
      "d": 104.98046875,
      "v": 40
    },
    {
      "midi": 76,
      "hit": false,
      "t": 77731.93359375,
      "d": 104.98046875,
      "v": 40
    },
    {
      "midi": 69,
      "hit": false,
      "t": 77963.8671875,
      "d": 556.640625,
      "v": 40
    },
    {
      "midi": 73,
      "hit": false,
      "t": 77963.8671875,
      "d": 556.640625,
      "v": 40
    },
    {
      "midi": 76,
      "hit": false,
      "t": 77963.8671875,
      "d": 556.640625,
      "v": 40
    },
    {
      "midi": 67,
      "hit": false,
      "t": 78671.875,
      "d": 441.89453125,
      "v": 40
    },
    {
      "midi": 72,
      "hit": false,
      "t": 78671.875,
      "d": 441.89453125,
      "v": 40
    },
    {
      "midi": 76,
      "hit": false,
      "t": 78671.875,
      "d": 441.89453125,
      "v": 40
    },
    {
      "midi": 67,
      "hit": false,
      "t": 79372.55859375,
      "d": 559.08203125,
      "v": 40
    },
    {
      "midi": 72,
      "hit": false,
      "t": 79372.55859375,
      "d": 559.08203125,
      "v": 40
    },
    {
      "midi": 76,
      "hit": false,
      "t": 79372.55859375,
      "d": 559.08203125,
      "v": 40
    },
    {
      "midi": 67,
      "hit": false,
      "t": 80080.56640625,
      "d": 314.94140625,
      "v": 40
    },
    {
      "midi": 72,
      "hit": false,
      "t": 80080.56640625,
      "d": 314.94140625,
      "v": 40
    },
    {
      "midi": 76,
      "hit": false,
      "t": 80080.56640625,
      "d": 314.94140625,
      "v": 40
    },
    {
      "midi": 69,
      "hit": false,
      "t": 81018.06640625,
      "d": 212.40234375,
      "v": 40
    },
    {
      "midi": 73,
      "hit": false,
      "t": 81018.06640625,
      "d": 212.40234375,
      "v": 40
    },
    {
      "midi": 76,
      "hit": false,
      "t": 81018.06640625,
      "d": 212.40234375,
      "v": 40
    },
    {
      "midi": 69,
      "hit": false,
      "t": 81486.81640625,
      "d": 102.5390625,
      "v": 40
    },
    {
      "midi": 73,
      "hit": false,
      "t": 81486.81640625,
      "d": 102.5390625,
      "v": 40
    },
    {
      "midi": 76,
      "hit": false,
      "t": 81486.81640625,
      "d": 102.5390625,
      "v": 40
    },
    {
      "midi": 69,
      "hit": false,
      "t": 81718.75,
      "d": 556.640625,
      "v": 40
    },
    {
      "midi": 73,
      "hit": false,
      "t": 81718.75,
      "d": 556.640625,
      "v": 40
    },
    {
      "midi": 76,
      "hit": false,
      "t": 81718.75,
      "d": 556.640625,
      "v": 40
    },
    {
      "midi": 69,
      "hit": false,
      "t": 82421.875,
      "d": 551.7578125,
      "v": 40
    },
    {
      "midi": 74,
      "hit": false,
      "t": 82421.875,
      "d": 551.7578125,
      "v": 40
    },
    {
      "midi": 78,
      "hit": false,
      "t": 82421.875,
      "d": 551.7578125,
      "v": 40
    },
    {
      "midi": 69,
      "hit": false,
      "t": 83125,
      "d": 322.265625,
      "v": 40
    },
    {
      "midi": 74,
      "hit": false,
      "t": 83125,
      "d": 322.265625,
      "v": 40
    },
    {
      "midi": 78,
      "hit": false,
      "t": 83125,
      "d": 322.265625,
      "v": 40
    },
    {
      "midi": 69,
      "hit": false,
      "t": 83588.8671875,
      "d": 107.421875,
      "v": 40
    },
    {
      "midi": 74,
      "hit": false,
      "t": 83588.8671875,
      "d": 107.421875,
      "v": 40
    },
    {
      "midi": 78,
      "hit": false,
      "t": 83588.8671875,
      "d": 107.421875,
      "v": 40
    },
    {
      "midi": 69,
      "hit": false,
      "t": 83830.56640625,
      "d": 212.40234375,
      "v": 40
    },
    {
      "midi": 74,
      "hit": false,
      "t": 83830.56640625,
      "d": 212.40234375,
      "v": 40
    },
    {
      "midi": 78,
      "hit": false,
      "t": 83830.56640625,
      "d": 212.40234375,
      "v": 40
    },
    {
      "midi": 69,
      "hit": false,
      "t": 84768.06640625,
      "d": 207.51953125,
      "v": 40
    },
    {
      "midi": 72,
      "hit": false,
      "t": 84768.06640625,
      "d": 207.51953125,
      "v": 40
    },
    {
      "midi": 77,
      "hit": false,
      "t": 84768.06640625,
      "d": 207.51953125,
      "v": 40
    },
    {
      "midi": 69,
      "hit": false,
      "t": 85236.81640625,
      "d": 102.5390625,
      "v": 40
    },
    {
      "midi": 72,
      "hit": false,
      "t": 85236.81640625,
      "d": 102.5390625,
      "v": 40
    },
    {
      "midi": 77,
      "hit": false,
      "t": 85236.81640625,
      "d": 102.5390625,
      "v": 40
    },
    {
      "midi": 69,
      "hit": false,
      "t": 85463.8671875,
      "d": 439.453125,
      "v": 40
    },
    {
      "midi": 72,
      "hit": false,
      "t": 85463.8671875,
      "d": 439.453125,
      "v": 40
    },
    {
      "midi": 77,
      "hit": false,
      "t": 85463.8671875,
      "d": 439.453125,
      "v": 40
    },
    {
      "midi": 69,
      "hit": false,
      "t": 86171.875,
      "d": 104.98046875,
      "v": 40
    },
    {
      "midi": 73,
      "hit": false,
      "t": 86171.875,
      "d": 104.98046875,
      "v": 40
    },
    {
      "midi": 76,
      "hit": false,
      "t": 86171.875,
      "d": 104.98046875,
      "v": 40
    },
    {
      "midi": 69,
      "hit": false,
      "t": 86403.80859375,
      "d": 327.1484375,
      "v": 40
    },
    {
      "midi": 73,
      "hit": false,
      "t": 86403.80859375,
      "d": 327.1484375,
      "v": 40
    },
    {
      "midi": 76,
      "hit": false,
      "t": 86403.80859375,
      "d": 327.1484375,
      "v": 40
    },
    {
      "midi": 69,
      "hit": false,
      "t": 86877.44140625,
      "d": 102.5390625,
      "v": 40
    },
    {
      "midi": 73,
      "hit": false,
      "t": 86877.44140625,
      "d": 102.5390625,
      "v": 40
    },
    {
      "midi": 76,
      "hit": false,
      "t": 86877.44140625,
      "d": 102.5390625,
      "v": 40
    },
    {
      "midi": 69,
      "hit": false,
      "t": 87111.81640625,
      "d": 107.421875,
      "v": 40
    },
    {
      "midi": 73,
      "hit": false,
      "t": 87111.81640625,
      "d": 107.421875,
      "v": 40
    },
    {
      "midi": 76,
      "hit": false,
      "t": 87111.81640625,
      "d": 107.421875,
      "v": 40
    },
    {
      "midi": 69,
      "hit": false,
      "t": 87343.75,
      "d": 102.5390625,
      "v": 40
    },
    {
      "midi": 73,
      "hit": false,
      "t": 87343.75,
      "d": 102.5390625,
      "v": 40
    },
    {
      "midi": 76,
      "hit": false,
      "t": 87343.75,
      "d": 102.5390625,
      "v": 40
    },
    {
      "midi": 69,
      "hit": false,
      "t": 87580.56640625,
      "d": 100.09765625,
      "v": 40
    },
    {
      "midi": 73,
      "hit": false,
      "t": 87580.56640625,
      "d": 100.09765625,
      "v": 40
    },
    {
      "midi": 76,
      "hit": false,
      "t": 87580.56640625,
      "d": 100.09765625,
      "v": 40
    },
    {
      "midi": 69,
      "hit": false,
      "t": 87814.94140625,
      "d": 102.5390625,
      "v": 40
    },
    {
      "midi": 73,
      "hit": false,
      "t": 87814.94140625,
      "d": 102.5390625,
      "v": 40
    },
    {
      "midi": 76,
      "hit": false,
      "t": 87814.94140625,
      "d": 102.5390625,
      "v": 40
    },
    {
      "midi": 71,
      "hit": false,
      "t": 88046.875,
      "d": 102.5390625,
      "v": 40
    },
    {
      "midi": 75,
      "hit": false,
      "t": 88046.875,
      "d": 102.5390625,
      "v": 40
    },
    {
      "midi": 78,
      "hit": false,
      "t": 88054.19921875,
      "d": 95.21484375,
      "v": 40
    },
    {
      "midi": 71,
      "hit": false,
      "t": 88276.3671875,
      "d": 112.3046875,
      "v": 40
    },
    {
      "midi": 75,
      "hit": false,
      "t": 88276.3671875,
      "d": 112.3046875,
      "v": 40
    },
    {
      "midi": 78,
      "hit": false,
      "t": 88276.3671875,
      "d": 112.3046875,
      "v": 40
    },
    {
      "midi": 71,
      "hit": false,
      "t": 88745.1171875,
      "d": 114.74609375,
      "v": 40
    },
    {
      "midi": 75,
      "hit": false,
      "t": 88745.1171875,
      "d": 114.74609375,
      "v": 40
    },
    {
      "midi": 78,
      "hit": false,
      "t": 88745.1171875,
      "d": 114.74609375,
      "v": 40
    },
    {
      "midi": 71,
      "hit": false,
      "t": 88984.375,
      "d": 104.98046875,
      "v": 40
    },
    {
      "midi": 75,
      "hit": false,
      "t": 88984.375,
      "d": 104.98046875,
      "v": 40
    },
    {
      "midi": 78,
      "hit": false,
      "t": 88984.375,
      "d": 104.98046875,
      "v": 40
    },
    {
      "midi": 71,
      "hit": false,
      "t": 89218.75,
      "d": 104.98046875,
      "v": 40
    },
    {
      "midi": 75,
      "hit": false,
      "t": 89218.75,
      "d": 104.98046875,
      "v": 40
    },
    {
      "midi": 78,
      "hit": false,
      "t": 89218.75,
      "d": 104.98046875,
      "v": 40
    },
    {
      "midi": 71,
      "hit": false,
      "t": 89682.6171875,
      "d": 109.86328125,
      "v": 40
    },
    {
      "midi": 75,
      "hit": false,
      "t": 89682.6171875,
      "d": 109.86328125,
      "v": 40
    },
    {
      "midi": 78,
      "hit": false,
      "t": 89682.6171875,
      "d": 109.86328125,
      "v": 40
    },
    {
      "midi": 68,
      "hit": false,
      "t": 89921.875,
      "d": 109.86328125,
      "v": 40
    },
    {
      "midi": 71,
      "hit": false,
      "t": 89921.875,
      "d": 109.86328125,
      "v": 40
    },
    {
      "midi": 76,
      "hit": false,
      "t": 89921.875,
      "d": 109.86328125,
      "v": 40
    },
    {
      "midi": 68,
      "hit": false,
      "t": 90151.3671875,
      "d": 112.3046875,
      "v": 40
    },
    {
      "midi": 71,
      "hit": false,
      "t": 90151.3671875,
      "d": 112.3046875,
      "v": 40
    },
    {
      "midi": 76,
      "hit": false,
      "t": 90151.3671875,
      "d": 112.3046875,
      "v": 40
    },
    {
      "midi": 68,
      "hit": false,
      "t": 90390.625,
      "d": 102.5390625,
      "v": 40
    },
    {
      "midi": 71,
      "hit": false,
      "t": 90390.625,
      "d": 102.5390625,
      "v": 40
    },
    {
      "midi": 76,
      "hit": false,
      "t": 90390.625,
      "d": 102.5390625,
      "v": 40
    },
    {
      "midi": 68,
      "hit": false,
      "t": 90622.55859375,
      "d": 107.421875,
      "v": 40
    },
    {
      "midi": 71,
      "hit": false,
      "t": 90622.55859375,
      "d": 107.421875,
      "v": 40
    },
    {
      "midi": 76,
      "hit": false,
      "t": 90622.55859375,
      "d": 107.421875,
      "v": 40
    },
    {
      "midi": 68,
      "hit": false,
      "t": 90859.375,
      "d": 104.98046875,
      "v": 40
    },
    {
      "midi": 71,
      "hit": false,
      "t": 90859.375,
      "d": 104.98046875,
      "v": 40
    },
    {
      "midi": 76,
      "hit": false,
      "t": 90859.375,
      "d": 104.98046875,
      "v": 40
    },
    {
      "midi": 68,
      "hit": false,
      "t": 91088.8671875,
      "d": 107.421875,
      "v": 40
    },
    {
      "midi": 71,
      "hit": false,
      "t": 91088.8671875,
      "d": 107.421875,
      "v": 40
    },
    {
      "midi": 76,
      "hit": false,
      "t": 91088.8671875,
      "d": 107.421875,
      "v": 40
    },
    {
      "midi": 68,
      "hit": false,
      "t": 91328.125,
      "d": 102.5390625,
      "v": 40
    },
    {
      "midi": 71,
      "hit": false,
      "t": 91328.125,
      "d": 102.5390625,
      "v": 40
    },
    {
      "midi": 76,
      "hit": false,
      "t": 91328.125,
      "d": 102.5390625,
      "v": 40
    },
    {
      "midi": 68,
      "hit": false,
      "t": 91557.6171875,
      "d": 112.3046875,
      "v": 40
    },
    {
      "midi": 71,
      "hit": false,
      "t": 91557.6171875,
      "d": 112.3046875,
      "v": 40
    },
    {
      "midi": 76,
      "hit": false,
      "t": 91557.6171875,
      "d": 112.3046875,
      "v": 40
    },
    {
      "midi": 81,
      "hit": false,
      "t": 91794.43359375,
      "d": 104.98046875,
      "v": 40
    },
    {
      "midi": 85,
      "hit": false,
      "t": 91794.43359375,
      "d": 104.98046875,
      "v": 40
    },
    {
      "midi": 76,
      "hit": false,
      "t": 91801.7578125,
      "d": 97.65625,
      "v": 40
    },
    {
      "midi": 76,
      "hit": false,
      "t": 92265.625,
      "d": 102.5390625,
      "v": 40
    },
    {
      "midi": 81,
      "hit": false,
      "t": 92265.625,
      "d": 102.5390625,
      "v": 40
    },
    {
      "midi": 85,
      "hit": false,
      "t": 92265.625,
      "d": 102.5390625,
      "v": 40
    },
    {
      "midi": 76,
      "hit": false,
      "t": 92734.375,
      "d": 102.5390625,
      "v": 40
    },
    {
      "midi": 81,
      "hit": false,
      "t": 92734.375,
      "d": 102.5390625,
      "v": 40
    },
    {
      "midi": 85,
      "hit": false,
      "t": 92734.375,
      "d": 102.5390625,
      "v": 40
    },
    {
      "midi": 76,
      "hit": false,
      "t": 92963.8671875,
      "d": 107.421875,
      "v": 40
    },
    {
      "midi": 81,
      "hit": false,
      "t": 92963.8671875,
      "d": 107.421875,
      "v": 40
    },
    {
      "midi": 85,
      "hit": false,
      "t": 92963.8671875,
      "d": 107.421875,
      "v": 40
    },
    {
      "midi": 76,
      "hit": false,
      "t": 93203.125,
      "d": 107.421875,
      "v": 40
    },
    {
      "midi": 81,
      "hit": false,
      "t": 93203.125,
      "d": 107.421875,
      "v": 40
    },
    {
      "midi": 85,
      "hit": false,
      "t": 93203.125,
      "d": 107.421875,
      "v": 40
    },
    {
      "midi": 76,
      "hit": false,
      "t": 93432.6171875,
      "d": 107.421875,
      "v": 40
    },
    {
      "midi": 81,
      "hit": false,
      "t": 93432.6171875,
      "d": 107.421875,
      "v": 40
    },
    {
      "midi": 85,
      "hit": false,
      "t": 93432.6171875,
      "d": 107.421875,
      "v": 40
    },
    {
      "midi": 77,
      "hit": false,
      "t": 93666.9921875,
      "d": 107.421875,
      "v": 40
    },
    {
      "midi": 81,
      "hit": false,
      "t": 93666.9921875,
      "d": 107.421875,
      "v": 40
    },
    {
      "midi": 85,
      "hit": false,
      "t": 93666.9921875,
      "d": 107.421875,
      "v": 40
    },
    {
      "midi": 77,
      "hit": false,
      "t": 94140.625,
      "d": 100.09765625,
      "v": 40
    },
    {
      "midi": 81,
      "hit": false,
      "t": 94140.625,
      "d": 100.09765625,
      "v": 40
    },
    {
      "midi": 85,
      "hit": false,
      "t": 94140.625,
      "d": 100.09765625,
      "v": 40
    },
    {
      "midi": 77,
      "hit": false,
      "t": 94602.05078125,
      "d": 112.3046875,
      "v": 40
    },
    {
      "midi": 81,
      "hit": false,
      "t": 94602.05078125,
      "d": 112.3046875,
      "v": 40
    },
    {
      "midi": 85,
      "hit": false,
      "t": 94602.05078125,
      "d": 112.3046875,
      "v": 40
    },
    {
      "midi": 77,
      "hit": false,
      "t": 94833.984375,
      "d": 109.86328125,
      "v": 40
    },
    {
      "midi": 81,
      "hit": false,
      "t": 94833.984375,
      "d": 109.86328125,
      "v": 40
    },
    {
      "midi": 85,
      "hit": false,
      "t": 94833.984375,
      "d": 109.86328125,
      "v": 40
    },
    {
      "midi": 77,
      "hit": false,
      "t": 95075.68359375,
      "d": 100.09765625,
      "v": 40
    },
    {
      "midi": 81,
      "hit": false,
      "t": 95075.68359375,
      "d": 100.09765625,
      "v": 40
    },
    {
      "midi": 85,
      "hit": false,
      "t": 95075.68359375,
      "d": 100.09765625,
      "v": 40
    },
    {
      "midi": 77,
      "hit": false,
      "t": 95307.6171875,
      "d": 102.5390625,
      "v": 40
    },
    {
      "midi": 81,
      "hit": false,
      "t": 95307.6171875,
      "d": 102.5390625,
      "v": 40
    },
    {
      "midi": 85,
      "hit": false,
      "t": 95307.6171875,
      "d": 102.5390625,
      "v": 40
    },
    {
      "midi": 78,
      "hit": false,
      "t": 95541.9921875,
      "d": 102.5390625,
      "v": 40
    },
    {
      "midi": 81,
      "hit": false,
      "t": 95541.9921875,
      "d": 102.5390625,
      "v": 40
    },
    {
      "midi": 86,
      "hit": false,
      "t": 95541.9921875,
      "d": 102.5390625,
      "v": 40
    },
    {
      "midi": 78,
      "hit": false,
      "t": 96010.7421875,
      "d": 107.421875,
      "v": 40
    },
    {
      "midi": 81,
      "hit": false,
      "t": 96010.7421875,
      "d": 107.421875,
      "v": 40
    },
    {
      "midi": 86,
      "hit": false,
      "t": 96010.7421875,
      "d": 107.421875,
      "v": 40
    },
    {
      "midi": 78,
      "hit": false,
      "t": 96479.4921875,
      "d": 92.7734375,
      "v": 40
    },
    {
      "midi": 81,
      "hit": false,
      "t": 96479.4921875,
      "d": 92.7734375,
      "v": 40
    },
    {
      "midi": 86,
      "hit": false,
      "t": 96479.4921875,
      "d": 92.7734375,
      "v": 40
    },
    {
      "midi": 78,
      "hit": false,
      "t": 96711.42578125,
      "d": 104.98046875,
      "v": 40
    },
    {
      "midi": 81,
      "hit": false,
      "t": 96711.42578125,
      "d": 104.98046875,
      "v": 40
    },
    {
      "midi": 86,
      "hit": false,
      "t": 96711.42578125,
      "d": 104.98046875,
      "v": 40
    },
    {
      "midi": 78,
      "hit": false,
      "t": 96948.2421875,
      "d": 100.09765625,
      "v": 40
    },
    {
      "midi": 81,
      "hit": false,
      "t": 96948.2421875,
      "d": 100.09765625,
      "v": 40
    },
    {
      "midi": 86,
      "hit": false,
      "t": 96948.2421875,
      "d": 100.09765625,
      "v": 40
    },
    {
      "midi": 78,
      "hit": false,
      "t": 97175.29296875,
      "d": 109.86328125,
      "v": 40
    },
    {
      "midi": 81,
      "hit": false,
      "t": 97175.29296875,
      "d": 109.86328125,
      "v": 40
    },
    {
      "midi": 86,
      "hit": false,
      "t": 97175.29296875,
      "d": 109.86328125,
      "v": 40
    },
    {
      "midi": 77,
      "hit": false,
      "t": 97414.55078125,
      "d": 97.65625,
      "v": 40
    },
    {
      "midi": 81,
      "hit": false,
      "t": 97414.55078125,
      "d": 97.65625,
      "v": 40
    },
    {
      "midi": 86,
      "hit": false,
      "t": 97414.55078125,
      "d": 97.65625,
      "v": 40
    },
    {
      "midi": 77,
      "hit": false,
      "t": 97883.30078125,
      "d": 102.5390625,
      "v": 40
    },
    {
      "midi": 81,
      "hit": false,
      "t": 97883.30078125,
      "d": 102.5390625,
      "v": 40
    },
    {
      "midi": 86,
      "hit": false,
      "t": 97883.30078125,
      "d": 102.5390625,
      "v": 40
    },
    {
      "midi": 77,
      "hit": false,
      "t": 98344.7265625,
      "d": 97.65625,
      "v": 40
    },
    {
      "midi": 81,
      "hit": false,
      "t": 98344.7265625,
      "d": 97.65625,
      "v": 40
    },
    {
      "midi": 86,
      "hit": false,
      "t": 98344.7265625,
      "d": 97.65625,
      "v": 40
    },
    {
      "midi": 77,
      "hit": false,
      "t": 98579.1015625,
      "d": 107.421875,
      "v": 40
    },
    {
      "midi": 81,
      "hit": false,
      "t": 98579.1015625,
      "d": 107.421875,
      "v": 40
    },
    {
      "midi": 86,
      "hit": false,
      "t": 98579.1015625,
      "d": 107.421875,
      "v": 40
    },
    {
      "midi": 77,
      "hit": false,
      "t": 98818.359375,
      "d": 95.21484375,
      "v": 40
    },
    {
      "midi": 81,
      "hit": false,
      "t": 98818.359375,
      "d": 95.21484375,
      "v": 40
    },
    {
      "midi": 86,
      "hit": false,
      "t": 98818.359375,
      "d": 95.21484375,
      "v": 40
    },
    {
      "midi": 77,
      "hit": false,
      "t": 99045.41015625,
      "d": 112.3046875,
      "v": 40
    },
    {
      "midi": 81,
      "hit": false,
      "t": 99045.41015625,
      "d": 112.3046875,
      "v": 40
    },
    {
      "midi": 86,
      "hit": false,
      "t": 99045.41015625,
      "d": 112.3046875,
      "v": 40
    },
    {
      "midi": 76,
      "hit": false,
      "t": 99279.78515625,
      "d": 107.421875,
      "v": 40
    },
    {
      "midi": 81,
      "hit": false,
      "t": 99279.78515625,
      "d": 107.421875,
      "v": 40
    },
    {
      "midi": 85,
      "hit": false,
      "t": 99279.78515625,
      "d": 107.421875,
      "v": 40
    },
    {
      "midi": 76,
      "hit": false,
      "t": 99750.9765625,
      "d": 104.98046875,
      "v": 40
    },
    {
      "midi": 81,
      "hit": false,
      "t": 99750.9765625,
      "d": 104.98046875,
      "v": 40
    },
    {
      "midi": 85,
      "hit": false,
      "t": 99750.9765625,
      "d": 104.98046875,
      "v": 40
    },
    {
      "midi": 78,
      "hit": false,
      "t": 100222.16796875,
      "d": 102.5390625,
      "v": 40
    },
    {
      "midi": 81,
      "hit": false,
      "t": 100222.16796875,
      "d": 102.5390625,
      "v": 40
    },
    {
      "midi": 85,
      "hit": false,
      "t": 100222.16796875,
      "d": 102.5390625,
      "v": 40
    },
    {
      "midi": 78,
      "hit": false,
      "t": 100451.66015625,
      "d": 112.3046875,
      "v": 40
    },
    {
      "midi": 81,
      "hit": false,
      "t": 100451.66015625,
      "d": 112.3046875,
      "v": 40
    },
    {
      "midi": 85,
      "hit": false,
      "t": 100451.66015625,
      "d": 112.3046875,
      "v": 40
    },
    {
      "midi": 78,
      "hit": false,
      "t": 100920.41015625,
      "d": 107.421875,
      "v": 40
    },
    {
      "midi": 81,
      "hit": false,
      "t": 100920.41015625,
      "d": 107.421875,
      "v": 40
    },
    {
      "midi": 85,
      "hit": false,
      "t": 100920.41015625,
      "d": 107.421875,
      "v": 40
    },
    {
      "midi": 74,
      "hit": false,
      "t": 101154.78515625,
      "d": 107.421875,
      "v": 40
    },
    {
      "midi": 78,
      "hit": false,
      "t": 101154.78515625,
      "d": 107.421875,
      "v": 40
    },
    {
      "midi": 83,
      "hit": false,
      "t": 101154.78515625,
      "d": 107.421875,
      "v": 40
    },
    {
      "midi": 74,
      "hit": false,
      "t": 101386.71875,
      "d": 107.421875,
      "v": 40
    },
    {
      "midi": 78,
      "hit": false,
      "t": 101386.71875,
      "d": 107.421875,
      "v": 40
    },
    {
      "midi": 83,
      "hit": false,
      "t": 101386.71875,
      "d": 107.421875,
      "v": 40
    },
    {
      "midi": 74,
      "hit": false,
      "t": 101857.91015625,
      "d": 109.86328125,
      "v": 40
    },
    {
      "midi": 78,
      "hit": false,
      "t": 101857.91015625,
      "d": 109.86328125,
      "v": 40
    },
    {
      "midi": 83,
      "hit": false,
      "t": 101857.91015625,
      "d": 109.86328125,
      "v": 40
    },
    {
      "midi": 76,
      "hit": false,
      "t": 102097.16796875,
      "d": 107.421875,
      "v": 40
    },
    {
      "midi": 80,
      "hit": false,
      "t": 102097.16796875,
      "d": 107.421875,
      "v": 40
    },
    {
      "midi": 83,
      "hit": false,
      "t": 102097.16796875,
      "d": 107.421875,
      "v": 40
    },
    {
      "midi": 76,
      "hit": false,
      "t": 102324.21875,
      "d": 109.86328125,
      "v": 40
    },
    {
      "midi": 80,
      "hit": false,
      "t": 102324.21875,
      "d": 109.86328125,
      "v": 40
    },
    {
      "midi": 83,
      "hit": false,
      "t": 102324.21875,
      "d": 109.86328125,
      "v": 40
    },
    {
      "midi": 76,
      "hit": false,
      "t": 102565.91796875,
      "d": 100.09765625,
      "v": 40
    },
    {
      "midi": 80,
      "hit": false,
      "t": 102565.91796875,
      "d": 100.09765625,
      "v": 40
    },
    {
      "midi": 83,
      "hit": false,
      "t": 102565.91796875,
      "d": 100.09765625,
      "v": 40
    },
    {
      "midi": 76,
      "hit": false,
      "t": 103034.66796875,
      "d": 102.5390625,
      "v": 40
    },
    {
      "midi": 81,
      "hit": false,
      "t": 103034.66796875,
      "d": 102.5390625,
      "v": 40
    },
    {
      "midi": 85,
      "hit": false,
      "t": 103034.66796875,
      "d": 102.5390625,
      "v": 40
    },
    {
      "midi": 76,
      "hit": false,
      "t": 103503.41796875,
      "d": 107.421875,
      "v": 40
    },
    {
      "midi": 81,
      "hit": false,
      "t": 103503.41796875,
      "d": 107.421875,
      "v": 40
    },
    {
      "midi": 85,
      "hit": false,
      "t": 103503.41796875,
      "d": 107.421875,
      "v": 40
    },
    {
      "midi": 76,
      "hit": false,
      "t": 103728.02734375,
      "d": 104.98046875,
      "v": 40
    },
    {
      "midi": 81,
      "hit": false,
      "t": 103728.02734375,
      "d": 104.98046875,
      "v": 40
    },
    {
      "midi": 85,
      "hit": false,
      "t": 103728.02734375,
      "d": 104.98046875,
      "v": 40
    },
    {
      "midi": 78,
      "hit": false,
      "t": 103962.40234375,
      "d": 107.421875,
      "v": 40
    },
    {
      "midi": 81,
      "hit": false,
      "t": 103962.40234375,
      "d": 107.421875,
      "v": 40
    },
    {
      "midi": 86,
      "hit": false,
      "t": 103962.40234375,
      "d": 107.421875,
      "v": 40
    },
    {
      "midi": 78,
      "hit": false,
      "t": 104199.21875,
      "d": 104.98046875,
      "v": 40
    },
    {
      "midi": 81,
      "hit": false,
      "t": 104199.21875,
      "d": 104.98046875,
      "v": 40
    },
    {
      "midi": 86,
      "hit": false,
      "t": 104199.21875,
      "d": 104.98046875,
      "v": 40
    },
    {
      "midi": 76,
      "hit": false,
      "t": 104665.52734375,
      "d": 104.98046875,
      "v": 40
    },
    {
      "midi": 81,
      "hit": false,
      "t": 104665.52734375,
      "d": 104.98046875,
      "v": 40
    },
    {
      "midi": 85,
      "hit": false,
      "t": 104665.52734375,
      "d": 104.98046875,
      "v": 40
    },
    {
      "midi": 80,
      "hit": false,
      "t": 105131.8359375,
      "d": 107.421875,
      "v": 40
    },
    {
      "midi": 83,
      "hit": false,
      "t": 105131.8359375,
      "d": 107.421875,
      "v": 40
    },
    {
      "midi": 88,
      "hit": false,
      "t": 105131.8359375,
      "d": 107.421875,
      "v": 40
    },
    {
      "midi": 80,
      "hit": false,
      "t": 105371.09375,
      "d": 104.98046875,
      "v": 40
    },
    {
      "midi": 83,
      "hit": false,
      "t": 105371.09375,
      "d": 104.98046875,
      "v": 40
    },
    {
      "midi": 88,
      "hit": false,
      "t": 105371.09375,
      "d": 104.98046875,
      "v": 40
    },
    {
      "midi": 80,
      "hit": false,
      "t": 105603.02734375,
      "d": 104.98046875,
      "v": 40
    },
    {
      "midi": 83,
      "hit": false,
      "t": 105603.02734375,
      "d": 104.98046875,
      "v": 40
    },
    {
      "midi": 88,
      "hit": false,
      "t": 105603.02734375,
      "d": 104.98046875,
      "v": 40
    },
    {
      "midi": 80,
      "hit": false,
      "t": 105839.84375,
      "d": 104.98046875,
      "v": 40
    },
    {
      "midi": 83,
      "hit": false,
      "t": 105839.84375,
      "d": 104.98046875,
      "v": 40
    },
    {
      "midi": 88,
      "hit": false,
      "t": 105839.84375,
      "d": 104.98046875,
      "v": 40
    },
    {
      "midi": 80,
      "hit": false,
      "t": 106069.3359375,
      "d": 107.421875,
      "v": 40
    },
    {
      "midi": 83,
      "hit": false,
      "t": 106069.3359375,
      "d": 107.421875,
      "v": 40
    },
    {
      "midi": 88,
      "hit": false,
      "t": 106069.3359375,
      "d": 107.421875,
      "v": 40
    },
    {
      "midi": 80,
      "hit": false,
      "t": 106308.59375,
      "d": 109.86328125,
      "v": 40
    },
    {
      "midi": 83,
      "hit": false,
      "t": 106308.59375,
      "d": 109.86328125,
      "v": 40
    },
    {
      "midi": 88,
      "hit": false,
      "t": 106308.59375,
      "d": 109.86328125,
      "v": 40
    },
    {
      "midi": 80,
      "hit": false,
      "t": 106538.0859375,
      "d": 114.74609375,
      "v": 40
    },
    {
      "midi": 83,
      "hit": false,
      "t": 106538.0859375,
      "d": 114.74609375,
      "v": 40
    },
    {
      "midi": 88,
      "hit": false,
      "t": 106538.0859375,
      "d": 114.74609375,
      "v": 40
    },
    {
      "midi": 69,
      "hit": false,
      "t": 107246.09375,
      "d": 209.9609375,
      "v": 40
    },
    {
      "midi": 73,
      "hit": false,
      "t": 107246.09375,
      "d": 209.9609375,
      "v": 40
    },
    {
      "midi": 76,
      "hit": false,
      "t": 107246.09375,
      "d": 209.9609375,
      "v": 40
    },
    {
      "midi": 69,
      "hit": false,
      "t": 107714.84375,
      "d": 102.5390625,
      "v": 40
    },
    {
      "midi": 73,
      "hit": false,
      "t": 107714.84375,
      "d": 102.5390625,
      "v": 40
    },
    {
      "midi": 76,
      "hit": false,
      "t": 107714.84375,
      "d": 102.5390625,
      "v": 40
    },
    {
      "midi": 69,
      "hit": false,
      "t": 107944.3359375,
      "d": 556.640625,
      "v": 40
    },
    {
      "midi": 73,
      "hit": false,
      "t": 107944.3359375,
      "d": 556.640625,
      "v": 40
    },
    {
      "midi": 76,
      "hit": false,
      "t": 107944.3359375,
      "d": 556.640625,
      "v": 40
    },
    {
      "midi": 67,
      "hit": false,
      "t": 108652.34375,
      "d": 439.453125,
      "v": 40
    },
    {
      "midi": 72,
      "hit": false,
      "t": 108652.34375,
      "d": 439.453125,
      "v": 40
    },
    {
      "midi": 76,
      "hit": false,
      "t": 108659.66796875,
      "d": 432.12890625,
      "v": 40
    },
    {
      "midi": 67,
      "hit": false,
      "t": 109350.5859375,
      "d": 554.19921875,
      "v": 40
    },
    {
      "midi": 72,
      "hit": false,
      "t": 109350.5859375,
      "d": 554.19921875,
      "v": 40
    },
    {
      "midi": 76,
      "hit": false,
      "t": 109350.5859375,
      "d": 554.19921875,
      "v": 40
    },
    {
      "midi": 67,
      "hit": false,
      "t": 110058.59375,
      "d": 322.265625,
      "v": 40
    },
    {
      "midi": 72,
      "hit": false,
      "t": 110058.59375,
      "d": 322.265625,
      "v": 40
    },
    {
      "midi": 76,
      "hit": false,
      "t": 110058.59375,
      "d": 322.265625,
      "v": 40
    },
    {
      "midi": 69,
      "hit": false,
      "t": 110996.09375,
      "d": 207.51953125,
      "v": 40
    },
    {
      "midi": 73,
      "hit": false,
      "t": 110996.09375,
      "d": 207.51953125,
      "v": 40
    },
    {
      "midi": 76,
      "hit": false,
      "t": 110996.09375,
      "d": 207.51953125,
      "v": 40
    },
    {
      "midi": 69,
      "hit": false,
      "t": 111459.9609375,
      "d": 107.421875,
      "v": 40
    },
    {
      "midi": 73,
      "hit": false,
      "t": 111459.9609375,
      "d": 107.421875,
      "v": 40
    },
    {
      "midi": 76,
      "hit": false,
      "t": 111459.9609375,
      "d": 107.421875,
      "v": 40
    },
    {
      "midi": 69,
      "hit": false,
      "t": 111696.77734375,
      "d": 559.08203125,
      "v": 40
    },
    {
      "midi": 73,
      "hit": false,
      "t": 111696.77734375,
      "d": 559.08203125,
      "v": 40
    },
    {
      "midi": 76,
      "hit": false,
      "t": 111696.77734375,
      "d": 559.08203125,
      "v": 40
    },
    {
      "midi": 69,
      "hit": false,
      "t": 112399.90234375,
      "d": 551.7578125,
      "v": 40
    },
    {
      "midi": 74,
      "hit": false,
      "t": 112399.90234375,
      "d": 551.7578125,
      "v": 40
    },
    {
      "midi": 78,
      "hit": false,
      "t": 112399.90234375,
      "d": 551.7578125,
      "v": 40
    },
    {
      "midi": 69,
      "hit": false,
      "t": 113103.02734375,
      "d": 319.82421875,
      "v": 40
    },
    {
      "midi": 74,
      "hit": false,
      "t": 113103.02734375,
      "d": 319.82421875,
      "v": 40
    },
    {
      "midi": 78,
      "hit": false,
      "t": 113103.02734375,
      "d": 319.82421875,
      "v": 40
    },
    {
      "midi": 69,
      "hit": false,
      "t": 113566.89453125,
      "d": 109.86328125,
      "v": 40
    },
    {
      "midi": 74,
      "hit": false,
      "t": 113566.89453125,
      "d": 109.86328125,
      "v": 40
    },
    {
      "midi": 78,
      "hit": false,
      "t": 113566.89453125,
      "d": 109.86328125,
      "v": 40
    },
    {
      "midi": 69,
      "hit": false,
      "t": 113808.59375,
      "d": 214.84375,
      "v": 40
    },
    {
      "midi": 74,
      "hit": false,
      "t": 113808.59375,
      "d": 214.84375,
      "v": 40
    },
    {
      "midi": 78,
      "hit": false,
      "t": 113808.59375,
      "d": 214.84375,
      "v": 40
    },
    {
      "midi": 69,
      "hit": false,
      "t": 114746.09375,
      "d": 209.9609375,
      "v": 40
    },
    {
      "midi": 72,
      "hit": false,
      "t": 114746.09375,
      "d": 209.9609375,
      "v": 40
    },
    {
      "midi": 77,
      "hit": false,
      "t": 114746.09375,
      "d": 209.9609375,
      "v": 40
    },
    {
      "midi": 69,
      "hit": false,
      "t": 115214.84375,
      "d": 102.5390625,
      "v": 40
    },
    {
      "midi": 72,
      "hit": false,
      "t": 115214.84375,
      "d": 102.5390625,
      "v": 40
    },
    {
      "midi": 77,
      "hit": false,
      "t": 115214.84375,
      "d": 102.5390625,
      "v": 40
    },
    {
      "midi": 69,
      "hit": false,
      "t": 115441.89453125,
      "d": 441.89453125,
      "v": 40
    },
    {
      "midi": 72,
      "hit": false,
      "t": 115441.89453125,
      "d": 441.89453125,
      "v": 40
    },
    {
      "midi": 77,
      "hit": false,
      "t": 115441.89453125,
      "d": 441.89453125,
      "v": 40
    },
    {
      "midi": 73,
      "hit": false,
      "t": 116149.90234375,
      "d": 104.98046875,
      "v": 40
    },
    {
      "midi": 76,
      "hit": false,
      "t": 116149.90234375,
      "d": 104.98046875,
      "v": 40
    },
    {
      "midi": 69,
      "hit": false,
      "t": 116154.78515625,
      "d": 100.09765625,
      "v": 40
    },
    {
      "midi": 69,
      "hit": false,
      "t": 116381.8359375,
      "d": 327.1484375,
      "v": 40
    },
    {
      "midi": 73,
      "hit": false,
      "t": 116381.8359375,
      "d": 327.1484375,
      "v": 40
    },
    {
      "midi": 76,
      "hit": false,
      "t": 116381.8359375,
      "d": 327.1484375,
      "v": 40
    },
    {
      "midi": 69,
      "hit": false,
      "t": 116850.5859375,
      "d": 109.86328125,
      "v": 40
    },
    {
      "midi": 73,
      "hit": false,
      "t": 116850.5859375,
      "d": 109.86328125,
      "v": 40
    },
    {
      "midi": 76,
      "hit": false,
      "t": 116850.5859375,
      "d": 109.86328125,
      "v": 40
    },
    {
      "midi": 69,
      "hit": false,
      "t": 117087.40234375,
      "d": 107.421875,
      "v": 40
    },
    {
      "midi": 73,
      "hit": false,
      "t": 117087.40234375,
      "d": 107.421875,
      "v": 40
    },
    {
      "midi": 76,
      "hit": false,
      "t": 117087.40234375,
      "d": 107.421875,
      "v": 40
    },
    {
      "midi": 69,
      "hit": false,
      "t": 117321.77734375,
      "d": 102.5390625,
      "v": 40
    },
    {
      "midi": 73,
      "hit": false,
      "t": 117321.77734375,
      "d": 102.5390625,
      "v": 40
    },
    {
      "midi": 76,
      "hit": false,
      "t": 117321.77734375,
      "d": 102.5390625,
      "v": 40
    },
    {
      "midi": 69,
      "hit": false,
      "t": 117556.15234375,
      "d": 102.5390625,
      "v": 40
    },
    {
      "midi": 73,
      "hit": false,
      "t": 117556.15234375,
      "d": 102.5390625,
      "v": 40
    },
    {
      "midi": 76,
      "hit": false,
      "t": 117556.15234375,
      "d": 102.5390625,
      "v": 40
    },
    {
      "midi": 69,
      "hit": false,
      "t": 117785.64453125,
      "d": 109.86328125,
      "v": 40
    },
    {
      "midi": 73,
      "hit": false,
      "t": 117785.64453125,
      "d": 109.86328125,
      "v": 40
    },
    {
      "midi": 76,
      "hit": false,
      "t": 117785.64453125,
      "d": 109.86328125,
      "v": 40
    },
    {
      "midi": 71,
      "hit": false,
      "t": 118024.90234375,
      "d": 102.5390625,
      "v": 40
    },
    {
      "midi": 75,
      "hit": false,
      "t": 118024.90234375,
      "d": 102.5390625,
      "v": 40
    },
    {
      "midi": 78,
      "hit": false,
      "t": 118029.78515625,
      "d": 97.65625,
      "v": 40
    },
    {
      "midi": 71,
      "hit": false,
      "t": 118254.39453125,
      "d": 112.3046875,
      "v": 40
    },
    {
      "midi": 75,
      "hit": false,
      "t": 118254.39453125,
      "d": 112.3046875,
      "v": 40
    },
    {
      "midi": 78,
      "hit": false,
      "t": 118254.39453125,
      "d": 112.3046875,
      "v": 40
    },
    {
      "midi": 71,
      "hit": false,
      "t": 118723.14453125,
      "d": 107.421875,
      "v": 40
    },
    {
      "midi": 75,
      "hit": false,
      "t": 118723.14453125,
      "d": 107.421875,
      "v": 40
    },
    {
      "midi": 78,
      "hit": false,
      "t": 118723.14453125,
      "d": 107.421875,
      "v": 40
    },
    {
      "midi": 71,
      "hit": false,
      "t": 118962.40234375,
      "d": 102.5390625,
      "v": 40
    },
    {
      "midi": 75,
      "hit": false,
      "t": 118962.40234375,
      "d": 102.5390625,
      "v": 40
    },
    {
      "midi": 78,
      "hit": false,
      "t": 118962.40234375,
      "d": 102.5390625,
      "v": 40
    },
    {
      "midi": 71,
      "hit": false,
      "t": 119191.89453125,
      "d": 107.421875,
      "v": 40
    },
    {
      "midi": 75,
      "hit": false,
      "t": 119191.89453125,
      "d": 107.421875,
      "v": 40
    },
    {
      "midi": 78,
      "hit": false,
      "t": 119191.89453125,
      "d": 107.421875,
      "v": 40
    },
    {
      "midi": 71,
      "hit": false,
      "t": 119660.64453125,
      "d": 112.3046875,
      "v": 40
    },
    {
      "midi": 75,
      "hit": false,
      "t": 119660.64453125,
      "d": 112.3046875,
      "v": 40
    },
    {
      "midi": 78,
      "hit": false,
      "t": 119660.64453125,
      "d": 112.3046875,
      "v": 40
    },
    {
      "midi": 68,
      "hit": false,
      "t": 119899.90234375,
      "d": 100.09765625,
      "v": 40
    },
    {
      "midi": 71,
      "hit": false,
      "t": 119899.90234375,
      "d": 100.09765625,
      "v": 40
    },
    {
      "midi": 76,
      "hit": false,
      "t": 119907.2265625,
      "d": 92.7734375,
      "v": 40
    },
    {
      "midi": 68,
      "hit": false,
      "t": 120122.0703125,
      "d": 107.421875,
      "v": 40
    },
    {
      "midi": 71,
      "hit": false,
      "t": 120122.0703125,
      "d": 107.421875,
      "v": 40
    },
    {
      "midi": 76,
      "hit": false,
      "t": 120122.0703125,
      "d": 107.421875,
      "v": 40
    },
    {
      "midi": 68,
      "hit": false,
      "t": 120361.328125,
      "d": 102.5390625,
      "v": 40
    },
    {
      "midi": 71,
      "hit": false,
      "t": 120361.328125,
      "d": 102.5390625,
      "v": 40
    },
    {
      "midi": 76,
      "hit": false,
      "t": 120361.328125,
      "d": 102.5390625,
      "v": 40
    },
    {
      "midi": 68,
      "hit": false,
      "t": 120595.703125,
      "d": 102.5390625,
      "v": 40
    },
    {
      "midi": 71,
      "hit": false,
      "t": 120595.703125,
      "d": 102.5390625,
      "v": 40
    },
    {
      "midi": 76,
      "hit": false,
      "t": 120595.703125,
      "d": 102.5390625,
      "v": 40
    },
    {
      "midi": 68,
      "hit": false,
      "t": 120830.078125,
      "d": 102.5390625,
      "v": 40
    },
    {
      "midi": 71,
      "hit": false,
      "t": 120830.078125,
      "d": 102.5390625,
      "v": 40
    },
    {
      "midi": 76,
      "hit": false,
      "t": 120830.078125,
      "d": 102.5390625,
      "v": 40
    },
    {
      "midi": 68,
      "hit": false,
      "t": 121059.5703125,
      "d": 112.3046875,
      "v": 40
    },
    {
      "midi": 71,
      "hit": false,
      "t": 121059.5703125,
      "d": 112.3046875,
      "v": 40
    },
    {
      "midi": 76,
      "hit": false,
      "t": 121059.5703125,
      "d": 112.3046875,
      "v": 40
    },
    {
      "midi": 68,
      "hit": false,
      "t": 121293.9453125,
      "d": 112.3046875,
      "v": 40
    },
    {
      "midi": 71,
      "hit": false,
      "t": 121293.9453125,
      "d": 112.3046875,
      "v": 40
    },
    {
      "midi": 76,
      "hit": false,
      "t": 121293.9453125,
      "d": 112.3046875,
      "v": 40
    },
    {
      "midi": 68,
      "hit": false,
      "t": 121533.203125,
      "d": 107.421875,
      "v": 40
    },
    {
      "midi": 71,
      "hit": false,
      "t": 121533.203125,
      "d": 107.421875,
      "v": 40
    },
    {
      "midi": 76,
      "hit": false,
      "t": 121533.203125,
      "d": 107.421875,
      "v": 40
    },
    {
      "midi": 76,
      "hit": false,
      "t": 121765.13671875,
      "d": 104.98046875,
      "v": 40
    },
    {
      "midi": 81,
      "hit": false,
      "t": 121765.13671875,
      "d": 104.98046875,
      "v": 40
    },
    {
      "midi": 85,
      "hit": false,
      "t": 121765.13671875,
      "d": 104.98046875,
      "v": 40
    },
    {
      "midi": 76,
      "hit": false,
      "t": 122236.328125,
      "d": 102.5390625,
      "v": 40
    },
    {
      "midi": 81,
      "hit": false,
      "t": 122236.328125,
      "d": 102.5390625,
      "v": 40
    },
    {
      "midi": 85,
      "hit": false,
      "t": 122236.328125,
      "d": 102.5390625,
      "v": 40
    },
    {
      "midi": 76,
      "hit": false,
      "t": 122707.51953125,
      "d": 100.09765625,
      "v": 40
    },
    {
      "midi": 81,
      "hit": false,
      "t": 122707.51953125,
      "d": 100.09765625,
      "v": 40
    },
    {
      "midi": 85,
      "hit": false,
      "t": 122707.51953125,
      "d": 100.09765625,
      "v": 40
    },
    {
      "midi": 76,
      "hit": false,
      "t": 122929.6875,
      "d": 104.98046875,
      "v": 40
    },
    {
      "midi": 81,
      "hit": false,
      "t": 122929.6875,
      "d": 104.98046875,
      "v": 40
    },
    {
      "midi": 85,
      "hit": false,
      "t": 122929.6875,
      "d": 104.98046875,
      "v": 40
    },
    {
      "midi": 76,
      "hit": false,
      "t": 123161.62109375,
      "d": 102.5390625,
      "v": 40
    },
    {
      "midi": 81,
      "hit": false,
      "t": 123161.62109375,
      "d": 102.5390625,
      "v": 40
    },
    {
      "midi": 85,
      "hit": false,
      "t": 123161.62109375,
      "d": 102.5390625,
      "v": 40
    },
    {
      "midi": 76,
      "hit": false,
      "t": 123391.11328125,
      "d": 100.09765625,
      "v": 40
    },
    {
      "midi": 81,
      "hit": false,
      "t": 123391.11328125,
      "d": 100.09765625,
      "v": 40
    },
    {
      "midi": 85,
      "hit": false,
      "t": 123391.11328125,
      "d": 100.09765625,
      "v": 40
    },
    {
      "midi": 77,
      "hit": false,
      "t": 123623.046875,
      "d": 92.7734375,
      "v": 40
    },
    {
      "midi": 81,
      "hit": false,
      "t": 123623.046875,
      "d": 92.7734375,
      "v": 40
    },
    {
      "midi": 85,
      "hit": false,
      "t": 123630.37109375,
      "d": 85.44921875,
      "v": 40
    },
    {
      "midi": 77,
      "hit": false,
      "t": 124072.265625,
      "d": 97.65625,
      "v": 40
    },
    {
      "midi": 81,
      "hit": false,
      "t": 124072.265625,
      "d": 97.65625,
      "v": 40
    },
    {
      "midi": 85,
      "hit": false,
      "t": 124072.265625,
      "d": 97.65625,
      "v": 40
    },
    {
      "midi": 77,
      "hit": false,
      "t": 124523.92578125,
      "d": 92.7734375,
      "v": 40
    },
    {
      "midi": 81,
      "hit": false,
      "t": 124523.92578125,
      "d": 92.7734375,
      "v": 40
    },
    {
      "midi": 85,
      "hit": false,
      "t": 124523.92578125,
      "d": 92.7734375,
      "v": 40
    },
    {
      "midi": 77,
      "hit": false,
      "t": 124746.09375,
      "d": 92.7734375,
      "v": 40
    },
    {
      "midi": 81,
      "hit": false,
      "t": 124746.09375,
      "d": 92.7734375,
      "v": 40
    },
    {
      "midi": 85,
      "hit": false,
      "t": 124746.09375,
      "d": 92.7734375,
      "v": 40
    },
    {
      "midi": 77,
      "hit": false,
      "t": 124963.37890625,
      "d": 92.7734375,
      "v": 40
    },
    {
      "midi": 81,
      "hit": false,
      "t": 124963.37890625,
      "d": 92.7734375,
      "v": 40
    },
    {
      "midi": 85,
      "hit": false,
      "t": 124963.37890625,
      "d": 92.7734375,
      "v": 40
    },
    {
      "midi": 77,
      "hit": false,
      "t": 125185.546875,
      "d": 100.09765625,
      "v": 40
    },
    {
      "midi": 81,
      "hit": false,
      "t": 125185.546875,
      "d": 100.09765625,
      "v": 40
    },
    {
      "midi": 85,
      "hit": false,
      "t": 125185.546875,
      "d": 100.09765625,
      "v": 40
    },
    {
      "midi": 78,
      "hit": false,
      "t": 125412.59765625,
      "d": 85.44921875,
      "v": 40
    },
    {
      "midi": 81,
      "hit": false,
      "t": 125412.59765625,
      "d": 85.44921875,
      "v": 40
    },
    {
      "midi": 86,
      "hit": false,
      "t": 125412.59765625,
      "d": 85.44921875,
      "v": 40
    },
    {
      "midi": 78,
      "hit": false,
      "t": 125869.140625,
      "d": 100.09765625,
      "v": 40
    },
    {
      "midi": 81,
      "hit": false,
      "t": 125869.140625,
      "d": 100.09765625,
      "v": 40
    },
    {
      "midi": 86,
      "hit": false,
      "t": 125869.140625,
      "d": 100.09765625,
      "v": 40
    },
    {
      "midi": 78,
      "hit": false,
      "t": 126320.80078125,
      "d": 95.21484375,
      "v": 40
    },
    {
      "midi": 81,
      "hit": false,
      "t": 126320.80078125,
      "d": 95.21484375,
      "v": 40
    },
    {
      "midi": 86,
      "hit": false,
      "t": 126320.80078125,
      "d": 95.21484375,
      "v": 40
    },
    {
      "midi": 78,
      "hit": false,
      "t": 126542.96875,
      "d": 107.421875,
      "v": 40
    },
    {
      "midi": 81,
      "hit": false,
      "t": 126542.96875,
      "d": 107.421875,
      "v": 40
    },
    {
      "midi": 86,
      "hit": false,
      "t": 126542.96875,
      "d": 107.421875,
      "v": 40
    },
    {
      "midi": 78,
      "hit": false,
      "t": 126782.2265625,
      "d": 102.5390625,
      "v": 40
    },
    {
      "midi": 81,
      "hit": false,
      "t": 126782.2265625,
      "d": 102.5390625,
      "v": 40
    },
    {
      "midi": 86,
      "hit": false,
      "t": 126782.2265625,
      "d": 102.5390625,
      "v": 40
    },
    {
      "midi": 78,
      "hit": false,
      "t": 127009.27734375,
      "d": 112.3046875,
      "v": 40
    },
    {
      "midi": 81,
      "hit": false,
      "t": 127009.27734375,
      "d": 112.3046875,
      "v": 40
    },
    {
      "midi": 86,
      "hit": false,
      "t": 127009.27734375,
      "d": 112.3046875,
      "v": 40
    },
    {
      "midi": 77,
      "hit": false,
      "t": 127243.65234375,
      "d": 102.5390625,
      "v": 40
    },
    {
      "midi": 81,
      "hit": false,
      "t": 127243.65234375,
      "d": 102.5390625,
      "v": 40
    },
    {
      "midi": 86,
      "hit": false,
      "t": 127243.65234375,
      "d": 102.5390625,
      "v": 40
    },
    {
      "midi": 77,
      "hit": false,
      "t": 127712.40234375,
      "d": 97.65625,
      "v": 40
    },
    {
      "midi": 81,
      "hit": false,
      "t": 127712.40234375,
      "d": 97.65625,
      "v": 40
    },
    {
      "midi": 86,
      "hit": false,
      "t": 127712.40234375,
      "d": 97.65625,
      "v": 40
    },
    {
      "midi": 77,
      "hit": false,
      "t": 128171.38671875,
      "d": 109.86328125,
      "v": 40
    },
    {
      "midi": 81,
      "hit": false,
      "t": 128171.38671875,
      "d": 109.86328125,
      "v": 40
    },
    {
      "midi": 86,
      "hit": false,
      "t": 128171.38671875,
      "d": 109.86328125,
      "v": 40
    },
    {
      "midi": 77,
      "hit": false,
      "t": 128405.76171875,
      "d": 112.3046875,
      "v": 40
    },
    {
      "midi": 81,
      "hit": false,
      "t": 128405.76171875,
      "d": 112.3046875,
      "v": 40
    },
    {
      "midi": 86,
      "hit": false,
      "t": 128405.76171875,
      "d": 112.3046875,
      "v": 40
    },
    {
      "midi": 77,
      "hit": false,
      "t": 128647.4609375,
      "d": 104.98046875,
      "v": 40
    },
    {
      "midi": 81,
      "hit": false,
      "t": 128647.4609375,
      "d": 104.98046875,
      "v": 40
    },
    {
      "midi": 86,
      "hit": false,
      "t": 128647.4609375,
      "d": 104.98046875,
      "v": 40
    },
    {
      "midi": 77,
      "hit": false,
      "t": 128874.51171875,
      "d": 107.421875,
      "v": 40
    },
    {
      "midi": 81,
      "hit": false,
      "t": 128874.51171875,
      "d": 107.421875,
      "v": 40
    },
    {
      "midi": 86,
      "hit": false,
      "t": 128874.51171875,
      "d": 107.421875,
      "v": 40
    },
    {
      "midi": 76,
      "hit": false,
      "t": 129113.76953125,
      "d": 102.5390625,
      "v": 40
    },
    {
      "midi": 81,
      "hit": false,
      "t": 129113.76953125,
      "d": 102.5390625,
      "v": 40
    },
    {
      "midi": 85,
      "hit": false,
      "t": 129113.76953125,
      "d": 102.5390625,
      "v": 40
    },
    {
      "midi": 76,
      "hit": false,
      "t": 129584.9609375,
      "d": 100.09765625,
      "v": 40
    },
    {
      "midi": 81,
      "hit": false,
      "t": 129584.9609375,
      "d": 100.09765625,
      "v": 40
    },
    {
      "midi": 85,
      "hit": false,
      "t": 129584.9609375,
      "d": 100.09765625,
      "v": 40
    },
    {
      "midi": 78,
      "hit": false,
      "t": 130053.7109375,
      "d": 104.98046875,
      "v": 40
    },
    {
      "midi": 81,
      "hit": false,
      "t": 130053.7109375,
      "d": 104.98046875,
      "v": 40
    },
    {
      "midi": 85,
      "hit": false,
      "t": 130053.7109375,
      "d": 104.98046875,
      "v": 40
    },
    {
      "midi": 78,
      "hit": false,
      "t": 130280.76171875,
      "d": 107.421875,
      "v": 40
    },
    {
      "midi": 81,
      "hit": false,
      "t": 130280.76171875,
      "d": 107.421875,
      "v": 40
    },
    {
      "midi": 85,
      "hit": false,
      "t": 130280.76171875,
      "d": 107.421875,
      "v": 40
    },
    {
      "midi": 78,
      "hit": false,
      "t": 130751.953125,
      "d": 100.09765625,
      "v": 40
    },
    {
      "midi": 81,
      "hit": false,
      "t": 130751.953125,
      "d": 100.09765625,
      "v": 40
    },
    {
      "midi": 85,
      "hit": false,
      "t": 130751.953125,
      "d": 100.09765625,
      "v": 40
    },
    {
      "midi": 74,
      "hit": false,
      "t": 130983.88671875,
      "d": 102.5390625,
      "v": 40
    },
    {
      "midi": 78,
      "hit": false,
      "t": 130983.88671875,
      "d": 102.5390625,
      "v": 40
    },
    {
      "midi": 83,
      "hit": false,
      "t": 130983.88671875,
      "d": 102.5390625,
      "v": 40
    },
    {
      "midi": 74,
      "hit": false,
      "t": 131215.8203125,
      "d": 109.86328125,
      "v": 40
    },
    {
      "midi": 78,
      "hit": false,
      "t": 131215.8203125,
      "d": 109.86328125,
      "v": 40
    },
    {
      "midi": 83,
      "hit": false,
      "t": 131215.8203125,
      "d": 109.86328125,
      "v": 40
    },
    {
      "midi": 74,
      "hit": false,
      "t": 131684.5703125,
      "d": 104.98046875,
      "v": 40
    },
    {
      "midi": 78,
      "hit": false,
      "t": 131684.5703125,
      "d": 104.98046875,
      "v": 40
    },
    {
      "midi": 83,
      "hit": false,
      "t": 131684.5703125,
      "d": 104.98046875,
      "v": 40
    },
    {
      "midi": 76,
      "hit": false,
      "t": 131918.9453125,
      "d": 104.98046875,
      "v": 40
    },
    {
      "midi": 80,
      "hit": false,
      "t": 131918.9453125,
      "d": 104.98046875,
      "v": 40
    },
    {
      "midi": 83,
      "hit": false,
      "t": 131918.9453125,
      "d": 104.98046875,
      "v": 40
    },
    {
      "midi": 76,
      "hit": false,
      "t": 132155.76171875,
      "d": 102.5390625,
      "v": 40
    },
    {
      "midi": 80,
      "hit": false,
      "t": 132155.76171875,
      "d": 102.5390625,
      "v": 40
    },
    {
      "midi": 83,
      "hit": false,
      "t": 132155.76171875,
      "d": 102.5390625,
      "v": 40
    },
    {
      "midi": 76,
      "hit": false,
      "t": 132392.578125,
      "d": 100.09765625,
      "v": 40
    },
    {
      "midi": 80,
      "hit": false,
      "t": 132392.578125,
      "d": 100.09765625,
      "v": 40
    },
    {
      "midi": 83,
      "hit": false,
      "t": 132392.578125,
      "d": 100.09765625,
      "v": 40
    },
    {
      "midi": 76,
      "hit": false,
      "t": 132858.88671875,
      "d": 107.421875,
      "v": 40
    },
    {
      "midi": 81,
      "hit": false,
      "t": 132858.88671875,
      "d": 107.421875,
      "v": 40
    },
    {
      "midi": 85,
      "hit": false,
      "t": 132858.88671875,
      "d": 107.421875,
      "v": 40
    },
    {
      "midi": 76,
      "hit": false,
      "t": 133330.078125,
      "d": 104.98046875,
      "v": 40
    },
    {
      "midi": 81,
      "hit": false,
      "t": 133330.078125,
      "d": 104.98046875,
      "v": 40
    },
    {
      "midi": 85,
      "hit": false,
      "t": 133330.078125,
      "d": 104.98046875,
      "v": 40
    },
    {
      "midi": 76,
      "hit": false,
      "t": 133564.453125,
      "d": 100.09765625,
      "v": 40
    },
    {
      "midi": 81,
      "hit": false,
      "t": 133564.453125,
      "d": 100.09765625,
      "v": 40
    },
    {
      "midi": 85,
      "hit": false,
      "t": 133564.453125,
      "d": 100.09765625,
      "v": 40
    },
    {
      "midi": 78,
      "hit": false,
      "t": 133798.828125,
      "d": 102.5390625,
      "v": 40
    },
    {
      "midi": 81,
      "hit": false,
      "t": 133798.828125,
      "d": 102.5390625,
      "v": 40
    },
    {
      "midi": 86,
      "hit": false,
      "t": 133798.828125,
      "d": 102.5390625,
      "v": 40
    },
    {
      "midi": 78,
      "hit": false,
      "t": 134025.87890625,
      "d": 114.74609375,
      "v": 40
    },
    {
      "midi": 81,
      "hit": false,
      "t": 134025.87890625,
      "d": 114.74609375,
      "v": 40
    },
    {
      "midi": 86,
      "hit": false,
      "t": 134025.87890625,
      "d": 114.74609375,
      "v": 40
    },
    {
      "midi": 76,
      "hit": false,
      "t": 134497.0703125,
      "d": 112.3046875,
      "v": 40
    },
    {
      "midi": 81,
      "hit": false,
      "t": 134497.0703125,
      "d": 112.3046875,
      "v": 40
    },
    {
      "midi": 85,
      "hit": false,
      "t": 134497.0703125,
      "d": 112.3046875,
      "v": 40
    },
    {
      "midi": 79,
      "hit": false,
      "t": 185356.4453125,
      "d": 104.98046875,
      "v": 39
    },
    {
      "midi": 83,
      "hit": false,
      "t": 185356.4453125,
      "d": 104.98046875,
      "v": 39
    },
    {
      "midi": 86,
      "hit": false,
      "t": 185356.4453125,
      "d": 104.98046875,
      "v": 39
    },
    {
      "midi": 79,
      "hit": false,
      "t": 185585.9375,
      "d": 109.86328125,
      "v": 39
    },
    {
      "midi": 83,
      "hit": false,
      "t": 185585.9375,
      "d": 109.86328125,
      "v": 39
    },
    {
      "midi": 86,
      "hit": false,
      "t": 185585.9375,
      "d": 109.86328125,
      "v": 39
    },
    {
      "midi": 79,
      "hit": false,
      "t": 185827.63671875,
      "d": 100.09765625,
      "v": 39
    },
    {
      "midi": 83,
      "hit": false,
      "t": 185827.63671875,
      "d": 100.09765625,
      "v": 39
    },
    {
      "midi": 86,
      "hit": false,
      "t": 185827.63671875,
      "d": 100.09765625,
      "v": 39
    },
    {
      "midi": 79,
      "hit": false,
      "t": 186062.01171875,
      "d": 107.421875,
      "v": 39
    },
    {
      "midi": 83,
      "hit": false,
      "t": 186062.01171875,
      "d": 107.421875,
      "v": 39
    },
    {
      "midi": 86,
      "hit": false,
      "t": 186062.01171875,
      "d": 107.421875,
      "v": 39
    },
    {
      "midi": 79,
      "hit": false,
      "t": 186296.38671875,
      "d": 107.421875,
      "v": 39
    },
    {
      "midi": 83,
      "hit": false,
      "t": 186296.38671875,
      "d": 107.421875,
      "v": 39
    },
    {
      "midi": 86,
      "hit": false,
      "t": 186296.38671875,
      "d": 107.421875,
      "v": 39
    },
    {
      "midi": 79,
      "hit": false,
      "t": 186528.3203125,
      "d": 104.98046875,
      "v": 39
    },
    {
      "midi": 83,
      "hit": false,
      "t": 186528.3203125,
      "d": 104.98046875,
      "v": 39
    },
    {
      "midi": 86,
      "hit": false,
      "t": 186528.3203125,
      "d": 104.98046875,
      "v": 39
    },
    {
      "midi": 79,
      "hit": false,
      "t": 186765.13671875,
      "d": 100.09765625,
      "v": 39
    },
    {
      "midi": 83,
      "hit": false,
      "t": 186765.13671875,
      "d": 100.09765625,
      "v": 39
    },
    {
      "midi": 86,
      "hit": false,
      "t": 186765.13671875,
      "d": 100.09765625,
      "v": 39
    },
    {
      "midi": 79,
      "hit": false,
      "t": 186997.0703125,
      "d": 102.5390625,
      "v": 39
    },
    {
      "midi": 83,
      "hit": false,
      "t": 186997.0703125,
      "d": 102.5390625,
      "v": 39
    },
    {
      "midi": 86,
      "hit": false,
      "t": 186997.0703125,
      "d": 102.5390625,
      "v": 39
    },
    {
      "midi": 79,
      "hit": false,
      "t": 187231.4453125,
      "d": 104.98046875,
      "v": 39
    },
    {
      "midi": 83,
      "hit": false,
      "t": 187231.4453125,
      "d": 104.98046875,
      "v": 39
    },
    {
      "midi": 86,
      "hit": false,
      "t": 187231.4453125,
      "d": 104.98046875,
      "v": 39
    },
    {
      "midi": 79,
      "hit": false,
      "t": 187463.37890625,
      "d": 112.3046875,
      "v": 39
    },
    {
      "midi": 83,
      "hit": false,
      "t": 187463.37890625,
      "d": 112.3046875,
      "v": 39
    },
    {
      "midi": 86,
      "hit": false,
      "t": 187463.37890625,
      "d": 112.3046875,
      "v": 39
    },
    {
      "midi": 79,
      "hit": false,
      "t": 187702.63671875,
      "d": 107.421875,
      "v": 39
    },
    {
      "midi": 83,
      "hit": false,
      "t": 187702.63671875,
      "d": 107.421875,
      "v": 39
    },
    {
      "midi": 86,
      "hit": false,
      "t": 187702.63671875,
      "d": 107.421875,
      "v": 39
    },
    {
      "midi": 79,
      "hit": false,
      "t": 187932.12890625,
      "d": 107.421875,
      "v": 39
    },
    {
      "midi": 83,
      "hit": false,
      "t": 187932.12890625,
      "d": 107.421875,
      "v": 39
    },
    {
      "midi": 86,
      "hit": false,
      "t": 187932.12890625,
      "d": 107.421875,
      "v": 39
    },
    {
      "midi": 79,
      "hit": false,
      "t": 188171.38671875,
      "d": 102.5390625,
      "v": 39
    },
    {
      "midi": 83,
      "hit": false,
      "t": 188171.38671875,
      "d": 102.5390625,
      "v": 39
    },
    {
      "midi": 86,
      "hit": false,
      "t": 188171.38671875,
      "d": 102.5390625,
      "v": 39
    },
    {
      "midi": 79,
      "hit": false,
      "t": 188403.3203125,
      "d": 104.98046875,
      "v": 39
    },
    {
      "midi": 83,
      "hit": false,
      "t": 188403.3203125,
      "d": 104.98046875,
      "v": 39
    },
    {
      "midi": 86,
      "hit": false,
      "t": 188403.3203125,
      "d": 104.98046875,
      "v": 39
    },
    {
      "midi": 79,
      "hit": false,
      "t": 188640.13671875,
      "d": 100.09765625,
      "v": 39
    },
    {
      "midi": 83,
      "hit": false,
      "t": 188640.13671875,
      "d": 100.09765625,
      "v": 39
    },
    {
      "midi": 86,
      "hit": false,
      "t": 188640.13671875,
      "d": 100.09765625,
      "v": 39
    },
    {
      "midi": 79,
      "hit": false,
      "t": 188867.1875,
      "d": 114.74609375,
      "v": 39
    },
    {
      "midi": 83,
      "hit": false,
      "t": 188867.1875,
      "d": 114.74609375,
      "v": 39
    },
    {
      "midi": 86,
      "hit": false,
      "t": 188867.1875,
      "d": 114.74609375,
      "v": 39
    },
    {
      "midi": 79,
      "hit": false,
      "t": 189106.4453125,
      "d": 109.86328125,
      "v": 39
    },
    {
      "midi": 83,
      "hit": false,
      "t": 189106.4453125,
      "d": 109.86328125,
      "v": 39
    },
    {
      "midi": 86,
      "hit": false,
      "t": 189106.4453125,
      "d": 109.86328125,
      "v": 39
    },
    {
      "midi": 79,
      "hit": false,
      "t": 189338.37890625,
      "d": 104.98046875,
      "v": 39
    },
    {
      "midi": 83,
      "hit": false,
      "t": 189338.37890625,
      "d": 104.98046875,
      "v": 39
    },
    {
      "midi": 86,
      "hit": false,
      "t": 189338.37890625,
      "d": 104.98046875,
      "v": 39
    },
    {
      "midi": 79,
      "hit": false,
      "t": 189575.1953125,
      "d": 102.5390625,
      "v": 39
    },
    {
      "midi": 83,
      "hit": false,
      "t": 189575.1953125,
      "d": 102.5390625,
      "v": 39
    },
    {
      "midi": 86,
      "hit": false,
      "t": 189575.1953125,
      "d": 102.5390625,
      "v": 39
    },
    {
      "midi": 79,
      "hit": false,
      "t": 189812.01171875,
      "d": 102.5390625,
      "v": 39
    },
    {
      "midi": 83,
      "hit": false,
      "t": 189812.01171875,
      "d": 102.5390625,
      "v": 39
    },
    {
      "midi": 86,
      "hit": false,
      "t": 189812.01171875,
      "d": 102.5390625,
      "v": 39
    },
    {
      "midi": 79,
      "hit": false,
      "t": 190046.38671875,
      "d": 100.09765625,
      "v": 39
    },
    {
      "midi": 83,
      "hit": false,
      "t": 190046.38671875,
      "d": 100.09765625,
      "v": 39
    },
    {
      "midi": 86,
      "hit": false,
      "t": 190046.38671875,
      "d": 100.09765625,
      "v": 39
    },
    {
      "midi": 79,
      "hit": false,
      "t": 190273.4375,
      "d": 114.74609375,
      "v": 39
    },
    {
      "midi": 83,
      "hit": false,
      "t": 190273.4375,
      "d": 114.74609375,
      "v": 39
    },
    {
      "midi": 86,
      "hit": false,
      "t": 190273.4375,
      "d": 114.74609375,
      "v": 39
    },
    {
      "midi": 79,
      "hit": false,
      "t": 190515.13671875,
      "d": 107.421875,
      "v": 39
    },
    {
      "midi": 83,
      "hit": false,
      "t": 190515.13671875,
      "d": 107.421875,
      "v": 39
    },
    {
      "midi": 86,
      "hit": false,
      "t": 190515.13671875,
      "d": 107.421875,
      "v": 39
    },
    {
      "midi": 79,
      "hit": false,
      "t": 190744.62890625,
      "d": 104.98046875,
      "v": 39
    },
    {
      "midi": 83,
      "hit": false,
      "t": 190744.62890625,
      "d": 104.98046875,
      "v": 39
    },
    {
      "midi": 86,
      "hit": false,
      "t": 190744.62890625,
      "d": 104.98046875,
      "v": 39
    },
    {
      "midi": 79,
      "hit": false,
      "t": 190981.4453125,
      "d": 104.98046875,
      "v": 39
    },
    {
      "midi": 83,
      "hit": false,
      "t": 190981.4453125,
      "d": 104.98046875,
      "v": 39
    },
    {
      "midi": 86,
      "hit": false,
      "t": 190981.4453125,
      "d": 104.98046875,
      "v": 39
    },
    {
      "midi": 79,
      "hit": false,
      "t": 191218.26171875,
      "d": 100.09765625,
      "v": 39
    },
    {
      "midi": 83,
      "hit": false,
      "t": 191218.26171875,
      "d": 100.09765625,
      "v": 39
    },
    {
      "midi": 86,
      "hit": false,
      "t": 191218.26171875,
      "d": 100.09765625,
      "v": 39
    },
    {
      "midi": 79,
      "hit": false,
      "t": 191450.1953125,
      "d": 104.98046875,
      "v": 39
    },
    {
      "midi": 83,
      "hit": false,
      "t": 191450.1953125,
      "d": 104.98046875,
      "v": 39
    },
    {
      "midi": 86,
      "hit": false,
      "t": 191450.1953125,
      "d": 104.98046875,
      "v": 39
    },
    {
      "midi": 79,
      "hit": false,
      "t": 191679.6875,
      "d": 109.86328125,
      "v": 39
    },
    {
      "midi": 83,
      "hit": false,
      "t": 191679.6875,
      "d": 109.86328125,
      "v": 39
    },
    {
      "midi": 86,
      "hit": false,
      "t": 191679.6875,
      "d": 109.86328125,
      "v": 39
    },
    {
      "midi": 79,
      "hit": false,
      "t": 191921.38671875,
      "d": 107.421875,
      "v": 39
    },
    {
      "midi": 83,
      "hit": false,
      "t": 191921.38671875,
      "d": 107.421875,
      "v": 39
    },
    {
      "midi": 86,
      "hit": false,
      "t": 191921.38671875,
      "d": 107.421875,
      "v": 39
    },
    {
      "midi": 79,
      "hit": false,
      "t": 192150.87890625,
      "d": 112.3046875,
      "v": 39
    },
    {
      "midi": 83,
      "hit": false,
      "t": 192150.87890625,
      "d": 112.3046875,
      "v": 39
    },
    {
      "midi": 86,
      "hit": false,
      "t": 192150.87890625,
      "d": 112.3046875,
      "v": 39
    },
    {
      "midi": 83,
      "hit": false,
      "t": 192392.578125,
      "d": 100.09765625,
      "v": 39
    },
    {
      "midi": 79,
      "hit": false,
      "t": 192399.90234375,
      "d": 92.7734375,
      "v": 39
    },
    {
      "midi": 86,
      "hit": false,
      "t": 192399.90234375,
      "d": 92.7734375,
      "v": 39
    },
    {
      "midi": 79,
      "hit": false,
      "t": 192619.62890625,
      "d": 107.421875,
      "v": 39
    },
    {
      "midi": 83,
      "hit": false,
      "t": 192619.62890625,
      "d": 107.421875,
      "v": 39
    },
    {
      "midi": 86,
      "hit": false,
      "t": 192619.62890625,
      "d": 107.421875,
      "v": 39
    },
    {
      "midi": 76,
      "hit": false,
      "t": 192856.4453125,
      "d": 104.98046875,
      "v": 39
    },
    {
      "midi": 81,
      "hit": false,
      "t": 192856.4453125,
      "d": 104.98046875,
      "v": 39
    },
    {
      "midi": 85,
      "hit": false,
      "t": 192856.4453125,
      "d": 104.98046875,
      "v": 39
    },
    {
      "midi": 76,
      "hit": false,
      "t": 193085.9375,
      "d": 109.86328125,
      "v": 39
    },
    {
      "midi": 81,
      "hit": false,
      "t": 193085.9375,
      "d": 109.86328125,
      "v": 39
    },
    {
      "midi": 85,
      "hit": false,
      "t": 193085.9375,
      "d": 109.86328125,
      "v": 39
    },
    {
      "midi": 76,
      "hit": false,
      "t": 193327.63671875,
      "d": 107.421875,
      "v": 39
    },
    {
      "midi": 81,
      "hit": false,
      "t": 193327.63671875,
      "d": 107.421875,
      "v": 39
    },
    {
      "midi": 85,
      "hit": false,
      "t": 193327.63671875,
      "d": 107.421875,
      "v": 39
    },
    {
      "midi": 76,
      "hit": false,
      "t": 193557.12890625,
      "d": 112.3046875,
      "v": 39
    },
    {
      "midi": 81,
      "hit": false,
      "t": 193557.12890625,
      "d": 112.3046875,
      "v": 39
    },
    {
      "midi": 85,
      "hit": false,
      "t": 193557.12890625,
      "d": 112.3046875,
      "v": 39
    },
    {
      "midi": 76,
      "hit": false,
      "t": 193796.38671875,
      "d": 102.5390625,
      "v": 39
    },
    {
      "midi": 81,
      "hit": false,
      "t": 193796.38671875,
      "d": 102.5390625,
      "v": 39
    },
    {
      "midi": 85,
      "hit": false,
      "t": 193796.38671875,
      "d": 102.5390625,
      "v": 39
    },
    {
      "midi": 76,
      "hit": false,
      "t": 194028.3203125,
      "d": 104.98046875,
      "v": 39
    },
    {
      "midi": 81,
      "hit": false,
      "t": 194028.3203125,
      "d": 104.98046875,
      "v": 39
    },
    {
      "midi": 85,
      "hit": false,
      "t": 194028.3203125,
      "d": 104.98046875,
      "v": 39
    },
    {
      "midi": 76,
      "hit": false,
      "t": 194265.13671875,
      "d": 102.5390625,
      "v": 39
    },
    {
      "midi": 81,
      "hit": false,
      "t": 194265.13671875,
      "d": 102.5390625,
      "v": 39
    },
    {
      "midi": 85,
      "hit": false,
      "t": 194265.13671875,
      "d": 102.5390625,
      "v": 39
    },
    {
      "midi": 76,
      "hit": false,
      "t": 194494.62890625,
      "d": 107.421875,
      "v": 39
    },
    {
      "midi": 81,
      "hit": false,
      "t": 194494.62890625,
      "d": 107.421875,
      "v": 39
    },
    {
      "midi": 85,
      "hit": false,
      "t": 194494.62890625,
      "d": 107.421875,
      "v": 39
    },
    {
      "midi": 76,
      "hit": false,
      "t": 194731.4453125,
      "d": 109.86328125,
      "v": 39
    },
    {
      "midi": 81,
      "hit": false,
      "t": 194731.4453125,
      "d": 109.86328125,
      "v": 39
    },
    {
      "midi": 85,
      "hit": false,
      "t": 194731.4453125,
      "d": 109.86328125,
      "v": 39
    },
    {
      "midi": 76,
      "hit": false,
      "t": 194963.37890625,
      "d": 112.3046875,
      "v": 39
    },
    {
      "midi": 81,
      "hit": false,
      "t": 194963.37890625,
      "d": 112.3046875,
      "v": 39
    },
    {
      "midi": 85,
      "hit": false,
      "t": 194963.37890625,
      "d": 112.3046875,
      "v": 39
    },
    {
      "midi": 76,
      "hit": false,
      "t": 195202.63671875,
      "d": 102.5390625,
      "v": 39
    },
    {
      "midi": 81,
      "hit": false,
      "t": 195202.63671875,
      "d": 102.5390625,
      "v": 39
    },
    {
      "midi": 85,
      "hit": false,
      "t": 195202.63671875,
      "d": 102.5390625,
      "v": 39
    },
    {
      "midi": 76,
      "hit": false,
      "t": 195432.12890625,
      "d": 107.421875,
      "v": 39
    },
    {
      "midi": 81,
      "hit": false,
      "t": 195432.12890625,
      "d": 107.421875,
      "v": 39
    },
    {
      "midi": 85,
      "hit": false,
      "t": 195432.12890625,
      "d": 107.421875,
      "v": 39
    },
    {
      "midi": 76,
      "hit": false,
      "t": 195671.38671875,
      "d": 102.5390625,
      "v": 39
    },
    {
      "midi": 81,
      "hit": false,
      "t": 195671.38671875,
      "d": 102.5390625,
      "v": 39
    },
    {
      "midi": 85,
      "hit": false,
      "t": 195671.38671875,
      "d": 102.5390625,
      "v": 39
    },
    {
      "midi": 76,
      "hit": false,
      "t": 195898.4375,
      "d": 109.86328125,
      "v": 39
    },
    {
      "midi": 81,
      "hit": false,
      "t": 195898.4375,
      "d": 109.86328125,
      "v": 39
    },
    {
      "midi": 85,
      "hit": false,
      "t": 195898.4375,
      "d": 109.86328125,
      "v": 39
    },
    {
      "midi": 76,
      "hit": false,
      "t": 196140.13671875,
      "d": 102.5390625,
      "v": 39
    },
    {
      "midi": 81,
      "hit": false,
      "t": 196140.13671875,
      "d": 102.5390625,
      "v": 39
    },
    {
      "midi": 85,
      "hit": false,
      "t": 196140.13671875,
      "d": 102.5390625,
      "v": 39
    },
    {
      "midi": 76,
      "hit": false,
      "t": 196369.62890625,
      "d": 112.3046875,
      "v": 39
    },
    {
      "midi": 81,
      "hit": false,
      "t": 196369.62890625,
      "d": 112.3046875,
      "v": 39
    },
    {
      "midi": 85,
      "hit": false,
      "t": 196369.62890625,
      "d": 112.3046875,
      "v": 39
    },
    {
      "midi": 76,
      "hit": false,
      "t": 196608.88671875,
      "d": 102.5390625,
      "v": 39
    },
    {
      "midi": 81,
      "hit": false,
      "t": 196608.88671875,
      "d": 102.5390625,
      "v": 39
    },
    {
      "midi": 85,
      "hit": false,
      "t": 196608.88671875,
      "d": 102.5390625,
      "v": 39
    },
    {
      "midi": 76,
      "hit": false,
      "t": 196843.26171875,
      "d": 102.5390625,
      "v": 39
    },
    {
      "midi": 81,
      "hit": false,
      "t": 196843.26171875,
      "d": 102.5390625,
      "v": 39
    },
    {
      "midi": 85,
      "hit": false,
      "t": 196843.26171875,
      "d": 102.5390625,
      "v": 39
    },
    {
      "midi": 76,
      "hit": false,
      "t": 197075.1953125,
      "d": 104.98046875,
      "v": 39
    },
    {
      "midi": 81,
      "hit": false,
      "t": 197075.1953125,
      "d": 104.98046875,
      "v": 39
    },
    {
      "midi": 85,
      "hit": false,
      "t": 197075.1953125,
      "d": 104.98046875,
      "v": 39
    },
    {
      "midi": 76,
      "hit": false,
      "t": 197304.6875,
      "d": 109.86328125,
      "v": 39
    },
    {
      "midi": 81,
      "hit": false,
      "t": 197304.6875,
      "d": 109.86328125,
      "v": 39
    },
    {
      "midi": 85,
      "hit": false,
      "t": 197304.6875,
      "d": 109.86328125,
      "v": 39
    },
    {
      "midi": 76,
      "hit": false,
      "t": 197543.9453125,
      "d": 104.98046875,
      "v": 39
    },
    {
      "midi": 81,
      "hit": false,
      "t": 197543.9453125,
      "d": 104.98046875,
      "v": 39
    },
    {
      "midi": 85,
      "hit": false,
      "t": 197543.9453125,
      "d": 104.98046875,
      "v": 39
    },
    {
      "midi": 76,
      "hit": false,
      "t": 197778.3203125,
      "d": 109.86328125,
      "v": 39
    },
    {
      "midi": 81,
      "hit": false,
      "t": 197778.3203125,
      "d": 109.86328125,
      "v": 39
    },
    {
      "midi": 85,
      "hit": false,
      "t": 197778.3203125,
      "d": 109.86328125,
      "v": 39
    },
    {
      "midi": 76,
      "hit": false,
      "t": 198007.8125,
      "d": 107.421875,
      "v": 39
    },
    {
      "midi": 81,
      "hit": false,
      "t": 198007.8125,
      "d": 107.421875,
      "v": 39
    },
    {
      "midi": 85,
      "hit": false,
      "t": 198007.8125,
      "d": 107.421875,
      "v": 39
    },
    {
      "midi": 76,
      "hit": false,
      "t": 198247.0703125,
      "d": 102.5390625,
      "v": 39
    },
    {
      "midi": 81,
      "hit": false,
      "t": 198247.0703125,
      "d": 102.5390625,
      "v": 39
    },
    {
      "midi": 85,
      "hit": false,
      "t": 198247.0703125,
      "d": 102.5390625,
      "v": 39
    },
    {
      "midi": 76,
      "hit": false,
      "t": 198481.4453125,
      "d": 102.5390625,
      "v": 39
    },
    {
      "midi": 81,
      "hit": false,
      "t": 198481.4453125,
      "d": 102.5390625,
      "v": 39
    },
    {
      "midi": 85,
      "hit": false,
      "t": 198481.4453125,
      "d": 102.5390625,
      "v": 39
    },
    {
      "midi": 76,
      "hit": false,
      "t": 198710.9375,
      "d": 104.98046875,
      "v": 39
    },
    {
      "midi": 81,
      "hit": false,
      "t": 198710.9375,
      "d": 104.98046875,
      "v": 39
    },
    {
      "midi": 85,
      "hit": false,
      "t": 198710.9375,
      "d": 104.98046875,
      "v": 39
    },
    {
      "midi": 76,
      "hit": false,
      "t": 198950.1953125,
      "d": 102.5390625,
      "v": 39
    },
    {
      "midi": 81,
      "hit": false,
      "t": 198950.1953125,
      "d": 102.5390625,
      "v": 39
    },
    {
      "midi": 85,
      "hit": false,
      "t": 198950.1953125,
      "d": 102.5390625,
      "v": 39
    },
    {
      "midi": 76,
      "hit": false,
      "t": 199179.6875,
      "d": 104.98046875,
      "v": 39
    },
    {
      "midi": 81,
      "hit": false,
      "t": 199179.6875,
      "d": 104.98046875,
      "v": 39
    },
    {
      "midi": 85,
      "hit": false,
      "t": 199179.6875,
      "d": 104.98046875,
      "v": 39
    },
    {
      "midi": 76,
      "hit": false,
      "t": 199418.9453125,
      "d": 107.421875,
      "v": 39
    },
    {
      "midi": 81,
      "hit": false,
      "t": 199418.9453125,
      "d": 107.421875,
      "v": 39
    },
    {
      "midi": 85,
      "hit": false,
      "t": 199418.9453125,
      "d": 107.421875,
      "v": 39
    },
    {
      "midi": 76,
      "hit": false,
      "t": 199645.99609375,
      "d": 109.86328125,
      "v": 39
    },
    {
      "midi": 81,
      "hit": false,
      "t": 199645.99609375,
      "d": 109.86328125,
      "v": 39
    },
    {
      "midi": 85,
      "hit": false,
      "t": 199645.99609375,
      "d": 109.86328125,
      "v": 39
    },
    {
      "midi": 76,
      "hit": false,
      "t": 199887.6953125,
      "d": 100.09765625,
      "v": 39
    },
    {
      "midi": 81,
      "hit": false,
      "t": 199887.6953125,
      "d": 100.09765625,
      "v": 39
    },
    {
      "midi": 85,
      "hit": false,
      "t": 199887.6953125,
      "d": 100.09765625,
      "v": 39
    },
    {
      "midi": 76,
      "hit": false,
      "t": 200122.0703125,
      "d": 102.5390625,
      "v": 39
    },
    {
      "midi": 81,
      "hit": false,
      "t": 200122.0703125,
      "d": 102.5390625,
      "v": 39
    },
    {
      "midi": 85,
      "hit": false,
      "t": 200122.0703125,
      "d": 102.5390625,
      "v": 39
    },
    {
      "midi": 78,
      "hit": false,
      "t": 200356.4453125,
      "d": 102.5390625,
      "v": 39
    },
    {
      "midi": 81,
      "hit": false,
      "t": 200356.4453125,
      "d": 102.5390625,
      "v": 39
    },
    {
      "midi": 86,
      "hit": false,
      "t": 200356.4453125,
      "d": 102.5390625,
      "v": 39
    },
    {
      "midi": 78,
      "hit": false,
      "t": 200585.9375,
      "d": 104.98046875,
      "v": 39
    },
    {
      "midi": 81,
      "hit": false,
      "t": 200585.9375,
      "d": 104.98046875,
      "v": 39
    },
    {
      "midi": 86,
      "hit": false,
      "t": 200585.9375,
      "d": 104.98046875,
      "v": 39
    },
    {
      "midi": 78,
      "hit": false,
      "t": 200825.1953125,
      "d": 104.98046875,
      "v": 39
    },
    {
      "midi": 81,
      "hit": false,
      "t": 200825.1953125,
      "d": 104.98046875,
      "v": 39
    },
    {
      "midi": 86,
      "hit": false,
      "t": 200825.1953125,
      "d": 104.98046875,
      "v": 39
    },
    {
      "midi": 78,
      "hit": false,
      "t": 201052.24609375,
      "d": 107.421875,
      "v": 39
    },
    {
      "midi": 81,
      "hit": false,
      "t": 201052.24609375,
      "d": 107.421875,
      "v": 39
    },
    {
      "midi": 86,
      "hit": false,
      "t": 201052.24609375,
      "d": 107.421875,
      "v": 39
    },
    {
      "midi": 78,
      "hit": false,
      "t": 201291.50390625,
      "d": 102.5390625,
      "v": 39
    },
    {
      "midi": 81,
      "hit": false,
      "t": 201291.50390625,
      "d": 102.5390625,
      "v": 39
    },
    {
      "midi": 86,
      "hit": false,
      "t": 201291.50390625,
      "d": 102.5390625,
      "v": 39
    },
    {
      "midi": 78,
      "hit": false,
      "t": 201520.99609375,
      "d": 107.421875,
      "v": 39
    },
    {
      "midi": 81,
      "hit": false,
      "t": 201520.99609375,
      "d": 107.421875,
      "v": 39
    },
    {
      "midi": 86,
      "hit": false,
      "t": 201520.99609375,
      "d": 107.421875,
      "v": 39
    },
    {
      "midi": 78,
      "hit": false,
      "t": 201762.6953125,
      "d": 100.09765625,
      "v": 39
    },
    {
      "midi": 81,
      "hit": false,
      "t": 201762.6953125,
      "d": 100.09765625,
      "v": 39
    },
    {
      "midi": 86,
      "hit": false,
      "t": 201762.6953125,
      "d": 100.09765625,
      "v": 39
    },
    {
      "midi": 78,
      "hit": false,
      "t": 201989.74609375,
      "d": 107.421875,
      "v": 39
    },
    {
      "midi": 81,
      "hit": false,
      "t": 201989.74609375,
      "d": 107.421875,
      "v": 39
    },
    {
      "midi": 86,
      "hit": false,
      "t": 201989.74609375,
      "d": 107.421875,
      "v": 39
    },
    {
      "midi": 78,
      "hit": false,
      "t": 202229.00390625,
      "d": 107.421875,
      "v": 39
    },
    {
      "midi": 81,
      "hit": false,
      "t": 202229.00390625,
      "d": 107.421875,
      "v": 39
    },
    {
      "midi": 86,
      "hit": false,
      "t": 202229.00390625,
      "d": 107.421875,
      "v": 39
    },
    {
      "midi": 78,
      "hit": false,
      "t": 202458.49609375,
      "d": 112.3046875,
      "v": 39
    },
    {
      "midi": 81,
      "hit": false,
      "t": 202458.49609375,
      "d": 112.3046875,
      "v": 39
    },
    {
      "midi": 86,
      "hit": false,
      "t": 202458.49609375,
      "d": 112.3046875,
      "v": 39
    },
    {
      "midi": 78,
      "hit": false,
      "t": 202692.87109375,
      "d": 107.421875,
      "v": 39
    },
    {
      "midi": 81,
      "hit": false,
      "t": 202692.87109375,
      "d": 107.421875,
      "v": 39
    },
    {
      "midi": 86,
      "hit": false,
      "t": 202692.87109375,
      "d": 107.421875,
      "v": 39
    },
    {
      "midi": 78,
      "hit": false,
      "t": 202927.24609375,
      "d": 104.98046875,
      "v": 39
    },
    {
      "midi": 81,
      "hit": false,
      "t": 202927.24609375,
      "d": 104.98046875,
      "v": 39
    },
    {
      "midi": 86,
      "hit": false,
      "t": 202927.24609375,
      "d": 104.98046875,
      "v": 39
    },
    {
      "midi": 78,
      "hit": false,
      "t": 203166.50390625,
      "d": 102.5390625,
      "v": 39
    },
    {
      "midi": 81,
      "hit": false,
      "t": 203166.50390625,
      "d": 102.5390625,
      "v": 39
    },
    {
      "midi": 86,
      "hit": false,
      "t": 203166.50390625,
      "d": 102.5390625,
      "v": 39
    },
    {
      "midi": 78,
      "hit": false,
      "t": 203395.99609375,
      "d": 107.421875,
      "v": 39
    },
    {
      "midi": 81,
      "hit": false,
      "t": 203395.99609375,
      "d": 107.421875,
      "v": 39
    },
    {
      "midi": 86,
      "hit": false,
      "t": 203395.99609375,
      "d": 107.421875,
      "v": 39
    },
    {
      "midi": 78,
      "hit": false,
      "t": 203635.25390625,
      "d": 104.98046875,
      "v": 39
    },
    {
      "midi": 81,
      "hit": false,
      "t": 203635.25390625,
      "d": 104.98046875,
      "v": 39
    },
    {
      "midi": 86,
      "hit": false,
      "t": 203635.25390625,
      "d": 104.98046875,
      "v": 39
    },
    {
      "midi": 78,
      "hit": false,
      "t": 203864.74609375,
      "d": 107.421875,
      "v": 39
    },
    {
      "midi": 81,
      "hit": false,
      "t": 203864.74609375,
      "d": 107.421875,
      "v": 39
    },
    {
      "midi": 86,
      "hit": false,
      "t": 203864.74609375,
      "d": 107.421875,
      "v": 39
    },
    {
      "midi": 78,
      "hit": false,
      "t": 204104.00390625,
      "d": 102.5390625,
      "v": 39
    },
    {
      "midi": 81,
      "hit": false,
      "t": 204104.00390625,
      "d": 102.5390625,
      "v": 39
    },
    {
      "midi": 86,
      "hit": false,
      "t": 204104.00390625,
      "d": 102.5390625,
      "v": 39
    },
    {
      "midi": 78,
      "hit": false,
      "t": 204333.49609375,
      "d": 104.98046875,
      "v": 39
    },
    {
      "midi": 81,
      "hit": false,
      "t": 204333.49609375,
      "d": 104.98046875,
      "v": 39
    },
    {
      "midi": 86,
      "hit": false,
      "t": 204333.49609375,
      "d": 104.98046875,
      "v": 39
    },
    {
      "midi": 78,
      "hit": false,
      "t": 204572.75390625,
      "d": 104.98046875,
      "v": 39
    },
    {
      "midi": 81,
      "hit": false,
      "t": 204572.75390625,
      "d": 104.98046875,
      "v": 39
    },
    {
      "midi": 86,
      "hit": false,
      "t": 204572.75390625,
      "d": 104.98046875,
      "v": 39
    },
    {
      "midi": 78,
      "hit": false,
      "t": 204802.24609375,
      "d": 104.98046875,
      "v": 39
    },
    {
      "midi": 81,
      "hit": false,
      "t": 204802.24609375,
      "d": 104.98046875,
      "v": 39
    },
    {
      "midi": 86,
      "hit": false,
      "t": 204802.24609375,
      "d": 104.98046875,
      "v": 39
    },
    {
      "midi": 78,
      "hit": false,
      "t": 205039.0625,
      "d": 107.421875,
      "v": 39
    },
    {
      "midi": 81,
      "hit": false,
      "t": 205039.0625,
      "d": 107.421875,
      "v": 39
    },
    {
      "midi": 86,
      "hit": false,
      "t": 205039.0625,
      "d": 107.421875,
      "v": 39
    },
    {
      "midi": 78,
      "hit": false,
      "t": 205273.4375,
      "d": 107.421875,
      "v": 39
    },
    {
      "midi": 81,
      "hit": false,
      "t": 205273.4375,
      "d": 107.421875,
      "v": 39
    },
    {
      "midi": 86,
      "hit": false,
      "t": 205273.4375,
      "d": 107.421875,
      "v": 39
    },
    {
      "midi": 78,
      "hit": false,
      "t": 205507.8125,
      "d": 100.09765625,
      "v": 39
    },
    {
      "midi": 81,
      "hit": false,
      "t": 205507.8125,
      "d": 100.09765625,
      "v": 39
    },
    {
      "midi": 86,
      "hit": false,
      "t": 205507.8125,
      "d": 100.09765625,
      "v": 39
    },
    {
      "midi": 78,
      "hit": false,
      "t": 205737.3046875,
      "d": 107.421875,
      "v": 39
    },
    {
      "midi": 81,
      "hit": false,
      "t": 205737.3046875,
      "d": 107.421875,
      "v": 39
    },
    {
      "midi": 86,
      "hit": false,
      "t": 205737.3046875,
      "d": 107.421875,
      "v": 39
    },
    {
      "midi": 78,
      "hit": false,
      "t": 205971.6796875,
      "d": 107.421875,
      "v": 39
    },
    {
      "midi": 81,
      "hit": false,
      "t": 205971.6796875,
      "d": 107.421875,
      "v": 39
    },
    {
      "midi": 86,
      "hit": false,
      "t": 205971.6796875,
      "d": 107.421875,
      "v": 39
    },
    {
      "midi": 78,
      "hit": false,
      "t": 206206.0546875,
      "d": 104.98046875,
      "v": 39
    },
    {
      "midi": 81,
      "hit": false,
      "t": 206206.0546875,
      "d": 104.98046875,
      "v": 39
    },
    {
      "midi": 86,
      "hit": false,
      "t": 206206.0546875,
      "d": 104.98046875,
      "v": 39
    },
    {
      "midi": 78,
      "hit": false,
      "t": 206445.3125,
      "d": 107.421875,
      "v": 39
    },
    {
      "midi": 81,
      "hit": false,
      "t": 206445.3125,
      "d": 107.421875,
      "v": 39
    },
    {
      "midi": 86,
      "hit": false,
      "t": 206445.3125,
      "d": 107.421875,
      "v": 39
    },
    {
      "midi": 78,
      "hit": false,
      "t": 206674.8046875,
      "d": 109.86328125,
      "v": 39
    },
    {
      "midi": 81,
      "hit": false,
      "t": 206674.8046875,
      "d": 109.86328125,
      "v": 39
    },
    {
      "midi": 86,
      "hit": false,
      "t": 206674.8046875,
      "d": 109.86328125,
      "v": 39
    },
    {
      "midi": 78,
      "hit": false,
      "t": 206914.0625,
      "d": 102.5390625,
      "v": 39
    },
    {
      "midi": 81,
      "hit": false,
      "t": 206914.0625,
      "d": 102.5390625,
      "v": 39
    },
    {
      "midi": 86,
      "hit": false,
      "t": 206914.0625,
      "d": 102.5390625,
      "v": 39
    },
    {
      "midi": 78,
      "hit": false,
      "t": 207148.4375,
      "d": 102.5390625,
      "v": 39
    },
    {
      "midi": 81,
      "hit": false,
      "t": 207148.4375,
      "d": 102.5390625,
      "v": 39
    },
    {
      "midi": 86,
      "hit": false,
      "t": 207148.4375,
      "d": 102.5390625,
      "v": 39
    },
    {
      "midi": 78,
      "hit": false,
      "t": 207382.8125,
      "d": 100.09765625,
      "v": 39
    },
    {
      "midi": 81,
      "hit": false,
      "t": 207382.8125,
      "d": 100.09765625,
      "v": 39
    },
    {
      "midi": 86,
      "hit": false,
      "t": 207382.8125,
      "d": 100.09765625,
      "v": 39
    }
  ]
}