{
  "jsonPath": "Unknown/Unknown/Louis Kohler/in-the-garden.json",
  "path": "Unknown\\Unknown\\Louis Kohler\\In the Garden.mid",
  "name": "In the Garden",
  "difficulty": "Advanced",
  "bpm": 100,
  "notes": [
    {
      "midi": 76,
      "hit": false,
      "t": 900,
      "d": 300,
      "v": 69
    },
    {
      "midi": 79,
      "hit": false,
      "t": 1200,
      "d": 600,
      "v": 127
    },
    {
      "midi": 60,
      "hit": false,
      "t": 1200,
      "d": 600,
      "v": 66
    },
    {
      "midi": 64,
      "hit": false,
      "t": 1200,
      "d": 600,
      "v": 66
    },
    {
      "midi": 76,
      "hit": false,
      "t": 1800,
      "d": 300,
      "v": 72
    },
    {
      "midi": 76,
      "hit": false,
      "t": 2100,
      "d": 300,
      "v": 73
    },
    {
      "midi": 79,
      "hit": false,
      "t": 2400,
      "d": 600,
      "v": 127
    },
    {
      "midi": 60,
      "hit": false,
      "t": 2400,
      "d": 600,
      "v": 62
    },
    {
      "midi": 64,
      "hit": false,
      "t": 2400,
      "d": 600,
      "v": 62
    },
    {
      "midi": 76,
      "hit": false,
      "t": 3000,
      "d": 300,
      "v": 72
    },
    {
      "midi": 76,
      "hit": false,
      "t": 3300,
      "d": 300,
      "v": 74
    },
    {
      "midi": 72,
      "hit": false,
      "t": 3600,
      "d": 300,
      "v": 69
    },
    {
      "midi": 55,
      "hit": false,
      "t": 3600,
      "d": 600,
      "v": 68
    },
    {
      "midi": 64,
      "hit": false,
      "t": 3600,
      "d": 600,
      "v": 68
    },
    {
      "midi": 76,
      "hit": false,
      "t": 3900,
      "d": 300,
      "v": 86
    },
    {
      "midi": 74,
      "hit": false,
      "t": 4200,
      "d": 300,
      "v": 73
    },
    {
      "midi": 55,
      "hit": false,
      "t": 4200,
      "d": 600,
      "v": 77
    },
    {
      "midi": 65,
      "hit": false,
      "t": 4200,
      "d": 600,
      "v": 77
    },
    {
      "midi": 76,
      "hit": false,
      "t": 4500,
      "d": 300,
      "v": 81
    },
    {
      "midi": 72,
      "hit": false,
      "t": 4800,
      "d": 600,
      "v": 66
    },
    {
      "midi": 60,
      "hit": false,
      "t": 4800,
      "d": 600,
      "v": 74
    },
    {
      "midi": 64,
      "hit": false,
      "t": 4800,
      "d": 600,
      "v": 74
    },
    {
      "midi": 76,
      "hit": false,
      "t": 5700,
      "d": 300,
      "v": 65
    },
    {
      "midi": 79,
      "hit": false,
      "t": 6000,
      "d": 600,
      "v": 86
    },
    {
      "midi": 60,
      "hit": false,
      "t": 6000,
      "d": 600,
      "v": 67
    },
    {
      "midi": 64,
      "hit": false,
      "t": 6000,
      "d": 600,
      "v": 67
    },
    {
      "midi": 76,
      "hit": false,
      "t": 6600,
      "d": 300,
      "v": 72
    },
    {
      "midi": 67,
      "hit": false,
      "t": 6600,
      "d": 300,
      "v": 87
    },
    {
      "midi": 76,
      "hit": false,
      "t": 6900,
      "d": 300,
      "v": 71
    },
    {
      "midi": 79,
      "hit": false,
      "t": 7200,
      "d": 600,
      "v": 87
    },
    {
      "midi": 60,
      "hit": false,
      "t": 7200,
      "d": 600,
      "v": 72
    },
    {
      "midi": 64,
      "hit": false,
      "t": 7200,
      "d": 600,
      "v": 72
    },
    {
      "midi": 76,
      "hit": false,
      "t": 7800,
      "d": 300,
      "v": 78
    },
    {
      "midi": 67,
      "hit": false,
      "t": 7800,
      "d": 300,
      "v": 79
    },
    {
      "midi": 76,
      "hit": false,
      "t": 8100,
      "d": 300,
      "v": 76
    },
    {
      "midi": 72,
      "hit": false,
      "t": 8400,
      "d": 300,
      "v": 70
    },
    {
      "midi": 55,
      "hit": false,
      "t": 8400,
      "d": 600,
      "v": 69
    },
    {
      "midi": 64,
      "hit": false,
      "t": 8400,
      "d": 600,
      "v": 69
    },
    {
      "midi": 76,
      "hit": false,
      "t": 8700,
      "d": 300,
      "v": 86
    },
    {
      "midi": 74,
      "hit": false,
      "t": 9000,
      "d": 300,
      "v": 75
    },
    {
      "midi": 55,
      "hit": false,
      "t": 9000,
      "d": 600,
      "v": 75
    },
    {
      "midi": 65,
      "hit": false,
      "t": 9000,
      "d": 600,
      "v": 75
    },
    {
      "midi": 76,
      "hit": false,
      "t": 9300,
      "d": 300,
      "v": 79
    },
    {
      "midi": 72,
      "hit": false,
      "t": 9600,
      "d": 600,
      "v": 69
    },
    {
      "midi": 60,
      "hit": false,
      "t": 9600,
      "d": 600,
      "v": 70
    },
    {
      "midi": 64,
      "hit": false,
      "t": 9600,
      "d": 600,
      "v": 70
    },
    {
      "midi": 76,
      "hit": false,
      "t": 10500,
      "d": 300,
      "v": 67
    },
    {
      "midi": 74,
      "hit": false,
      "t": 10800,
      "d": 300,
      "v": 70
    },
    {
      "midi": 59,
      "hit": false,
      "t": 10800,
      "d": 600,
      "v": 66
    },
    {
      "midi": 67,
      "hit": false,
      "t": 10800,
      "d": 600,
      "v": 66
    },
    {
      "midi": 76,
      "hit": false,
      "t": 11100,
      "d": 300,
      "v": 81
    },
    {
      "midi": 74,
      "hit": false,
      "t": 11400,
      "d": 300,
      "v": 71
    },
    {
      "midi": 59,
      "hit": false,
      "t": 11400,
      "d": 600,
      "v": 80
    },
    {
      "midi": 67,
      "hit": false,
      "t": 11400,
      "d": 600,
      "v": 80
    },
    {
      "midi": 79,
      "hit": false,
      "t": 11700,
      "d": 300,
      "v": 85
    },
    {
      "midi": 76,
      "hit": false,
      "t": 12000,
      "d": 300,
      "v": 66
    },
    {
      "midi": 60,
      "hit": false,
      "t": 12000,
      "d": 600,
      "v": 79
    },
    {
      "midi": 67,
      "hit": false,
      "t": 12000,
      "d": 600,
      "v": 79
    },
    {
      "midi": 79,
      "hit": false,
      "t": 12300,
      "d": 300,
      "v": 83
    },
    {
      "midi": 72,
      "hit": false,
      "t": 12600,
      "d": 300,
      "v": 58
    },
    {
      "midi": 76,
      "hit": false,
      "t": 12900,
      "d": 300,
      "v": 83
    },
    {
      "midi": 74,
      "hit": false,
      "t": 13200,
      "d": 300,
      "v": 70
    },
    {
      "midi": 59,
      "hit": false,
      "t": 13200,
      "d": 600,
      "v": 72
    },
    {
      "midi": 67,
      "hit": false,
      "t": 13200,
      "d": 600,
      "v": 72
    },
    {
      "midi": 76,
      "hit": false,
      "t": 13500,
      "d": 300,
      "v": 82
    },
    {
      "midi": 74,
      "hit": false,
      "t": 13800,
      "d": 300,
      "v": 70
    },
    {
      "midi": 59,
      "hit": false,
      "t": 13800,
      "d": 600,
      "v": 79
    },
    {
      "midi": 67,
      "hit": false,
      "t": 13800,
      "d": 600,
      "v": 79
    },
    {
      "midi": 79,
      "hit": false,
      "t": 14100,
      "d": 300,
      "v": 85
    },
    {
      "midi": 76,
      "hit": false,
      "t": 14400,
      "d": 300,
      "v": 70
    },
    {
      "midi": 60,
      "hit": false,
      "t": 14400,
      "d": 600,
      "v": 73
    },
    {
      "midi": 67,
      "hit": false,
      "t": 14400,
      "d": 600,
      "v": 73
    },
    {
      "midi": 79,
      "hit": false,
      "t": 14700,
      "d": 300,
      "v": 84
    },
    {
      "midi": 72,
      "hit": false,
      "t": 15000,
      "d": 300,
      "v": 60
    },
    {
      "midi": 76,
      "hit": false,
      "t": 15300,
      "d": 300,
      "v": 81
    },
    {
      "midi": 79,
      "hit": false,
      "t": 15600,
      "d": 600,
      "v": 127
    },
    {
      "midi": 60,
      "hit": false,
      "t": 15600,
      "d": 600,
      "v": 70
    },
    {
      "midi": 64,
      "hit": false,
      "t": 15600,
      "d": 600,
      "v": 70
    },
    {
      "midi": 76,
      "hit": false,
      "t": 16200,
      "d": 300,
      "v": 68
    },
    {
      "midi": 67,
      "hit": false,
      "t": 16200,
      "d": 300,
      "v": 81
    },
    {
      "midi": 76,
      "hit": false,
      "t": 16500,
      "d": 300,
      "v": 78
    },
    {
      "midi": 79,
      "hit": false,
      "t": 16800,
      "d": 600,
      "v": 127
    },
    {
      "midi": 60,
      "hit": false,
      "t": 16800,
      "d": 600,
      "v": 67
    },
    {
      "midi": 64,
      "hit": false,
      "t": 16800,
      "d": 600,
      "v": 67
    },
    {
      "midi": 76,
      "hit": false,
      "t": 17400,
      "d": 300,
      "v": 67
    },
    {
      "midi": 67,
      "hit": false,
      "t": 17400,
      "d": 300,
      "v": 84
    },
    {
      "midi": 76,
      "hit": false,
      "t": 17700,
      "d": 300,
      "v": 75
    },
    {
      "midi": 72,
      "hit": false,
      "t": 18000,
      "d": 300,
      "v": 67
    },
    {
      "midi": 55,
      "hit": false,
      "t": 18000,
      "d": 600,
      "v": 64
    },
    {
      "midi": 64,
      "hit": false,
      "t": 18000,
      "d": 600,
      "v": 64
    },
    {
      "midi": 76,
      "hit": false,
      "t": 18300,
      "d": 300,
      "v": 84
    },
    {
      "midi": 74,
      "hit": false,
      "t": 18600,
      "d": 300,
      "v": 72
    },
    {
      "midi": 55,
      "hit": false,
      "t": 18600,
      "d": 600,
      "v": 77
    },
    {
      "midi": 59,
      "hit": false,
      "t": 18600,
      "d": 600,
      "v": 77
    },
    {
      "midi": 65,
      "hit": false,
      "t": 18600,
      "d": 600,
      "v": 77
    },
    {
      "midi": 76,
      "hit": false,
      "t": 18900,
      "d": 300,
      "v": 79
    },
    {
      "midi": 72,
      "hit": false,
      "t": 19200,
      "d": 600,
      "v": 68
    },
    {
      "midi": 60,
      "hit": false,
      "t": 19200,
      "d": 600,
      "v": 68
    },
    {
      "midi": 64,
      "hit": false,
      "t": 19200,
      "d": 600,
      "v": 68
    },
    {
      "midi": 76,
      "hit": false,
      "t": 20100,
      "d": 300,
      "v": 70
    },
    {
      "midi": 74,
      "hit": false,
      "t": 20400,
      "d": 300,
      "v": 69
    },
    {
      "midi": 59,
      "hit": false,
      "t": 20400,
      "d": 300,
      "v": 70
    },
    {
      "midi": 67,
      "hit": false,
      "t": 20400,
      "d": 300,
      "v": 70
    },
    {
      "midi": 76,
      "hit": false,
      "t": 20700,
      "d": 300,
      "v": 79
    },
    {
      "midi": 74,
      "hit": false,
      "t": 21000,
      "d": 300,
      "v": 73
    },
    {
      "midi": 59,
      "hit": false,
      "t": 21000,
      "d": 300,
      "v": 65
    },
    {
      "midi": 67,
      "hit": false,
      "t": 21000,
      "d": 300,
      "v": 65
    },
    {
      "midi": 79,
      "hit": false,
      "t": 21300,
      "d": 300,
      "v": 86
    },
    {
      "midi": 76,
      "hit": false,
      "t": 21600,
      "d": 300,
      "v": 68
    },
    {
      "midi": 60,
      "hit": false,
      "t": 21600,
      "d": 300,
      "v": 69
    },
    {
      "midi": 67,
      "hit": false,
      "t": 21600,
      "d": 300,
      "v": 69
    },
    {
      "midi": 79,
      "hit": false,
      "t": 21900,
      "d": 300,
      "v": 80
    },
    {
      "midi": 72,
      "hit": false,
      "t": 22200,
      "d": 300,
      "v": 62
    },
    {
      "midi": 76,
      "hit": false,
      "t": 22500,
      "d": 300,
      "v": 87
    },
    {
      "midi": 74,
      "hit": false,
      "t": 22800,
      "d": 300,
      "v": 72
    },
    {
      "midi": 59,
      "hit": false,
      "t": 22800,
      "d": 300,
      "v": 73
    },
    {
      "midi": 67,
      "hit": false,
      "t": 22800,
      "d": 300,
      "v": 73
    },
    {
      "midi": 76,
      "hit": false,
      "t": 23100,
      "d": 300,
      "v": 84
    },
    {
      "midi": 74,
      "hit": false,
      "t": 23400,
      "d": 300,
      "v": 71
    },
    {
      "midi": 59,
      "hit": false,
      "t": 23400,
      "d": 300,
      "v": 68
    },
    {
      "midi": 67,
      "hit": false,
      "t": 23400,
      "d": 300,
      "v": 68
    },
    {
      "midi": 79,
      "hit": false,
      "t": 23700,
      "d": 300,
      "v": 87
    },
    {
      "midi": 76,
      "hit": false,
      "t": 24000,
      "d": 300,
      "v": 74
    },
    {
      "midi": 60,
      "hit": false,
      "t": 24000,
      "d": 300,
      "v": 70
    },
    {
      "midi": 67,
      "hit": false,
      "t": 24000,
      "d": 300,
      "v": 70
    },
    {
      "midi": 79,
      "hit": false,
      "t": 24300,
      "d": 300,
      "v": 81
    },
    {
      "midi": 72,
      "hit": false,
      "t": 24600,
      "d": 300,
      "v": 63
    },
    {
      "midi": 76,
      "hit": false,
      "t": 24900,
      "d": 300,
      "v": 81
    },
    {
      "midi": 72,
      "hit": false,
      "t": 25200,
      "d": 600,
      "v": 127
    },
    {
      "midi": 79,
      "hit": false,
      "t": 25200,
      "d": 600,
      "v": 127
    },
    {
      "midi": 60,
      "hit": false,
      "t": 25200,
      "d": 600,
      "v": 68
    },
    {
      "midi": 64,
      "hit": false,
      "t": 25200,
      "d": 600,
      "v": 68
    },
    {
      "midi": 76,
      "hit": false,
      "t": 25800,
      "d": 300,
      "v": 68
    },
    {
      "midi": 67,
      "hit": false,
      "t": 25800,
      "d": 300,
      "v": 79
    },
    {
      "midi": 76,
      "hit": false,
      "t": 26100,
      "d": 300,
      "v": 78
    },
    {
      "midi": 72,
      "hit": false,
      "t": 26400,
      "d": 600,
      "v": 127
    },
    {
      "midi": 79,
      "hit": false,
      "t": 26400,
      "d": 600,
      "v": 127
    },
    {
      "midi": 60,
      "hit": false,
      "t": 26400,
      "d": 600,
      "v": 68
    },
    {
      "midi": 64,
      "hit": false,
      "t": 26400,
      "d": 600,
      "v": 68
    },
    {
      "midi": 76,
      "hit": false,
      "t": 27000,
      "d": 300,
      "v": 74
    },
    {
      "midi": 67,
      "hit": false,
      "t": 27000,
      "d": 300,
      "v": 83
    },
    {
      "midi": 76,
      "hit": false,
      "t": 27300,
      "d": 300,
      "v": 78
    },
    {
      "midi": 72,
      "hit": false,
      "t": 27600,
      "d": 300,
      "v": 68
    },
    {
      "midi": 55,
      "hit": false,
      "t": 27600,
      "d": 600,
      "v": 68
    },
    {
      "midi": 64,
      "hit": false,
      "t": 27600,
      "d": 600,
      "v": 68
    },
    {
      "midi": 76,
      "hit": false,
      "t": 27900,
      "d": 300,
      "v": 84
    },
    {
      "midi": 74,
      "hit": false,
      "t": 28200,
      "d": 300,
      "v": 73
    },
    {
      "midi": 55,
      "hit": false,
      "t": 28200,
      "d": 600,
      "v": 74
    },
    {
      "midi": 59,
      "hit": false,
      "t": 28200,
      "d": 600,
      "v": 74
    },
    {
      "midi": 65,
      "hit": false,
      "t": 28200,
      "d": 600,
      "v": 74
    },
    {
      "midi": 79,
      "hit": false,
      "t": 28500,
      "d": 300,
      "v": 82
    },
    {
      "midi": 72,
      "hit": false,
      "t": 28800,
      "d": 600,
      "v": 66
    },
    {
      "midi": 60,
      "hit": false,
      "t": 28800,
      "d": 600,
      "v": 71
    },
    {
      "midi": 64,
      "hit": false,
      "t": 28800,
      "d": 600,
      "v": 71
    }
  ]
}