{
  "jsonPath": "Unknown/Unknown/Louis Kohler/polka-mazurka.json",
  "path": "Unknown\\Unknown\\Louis Kohler\\Polka Mazurka.mid",
  "name": "Polka Mazurka",
  "difficulty": "Advanced",
  "bpm": 100,
  "notes": [
    {
      "midi": 71,
      "hit": false,
      "t": 0,
      "d": 450,
      "v": 74
    },
    {
      "midi": 74,
      "hit": false,
      "t": 0,
      "d": 450,
      "v": 74
    },
    {
      "midi": 55,
      "hit": false,
      "t": 0,
      "d": 600,
      "v": 70
    },
    {
      "midi": 72,
      "hit": false,
      "t": 450,
      "d": 150,
      "v": 79
    },
    {
      "midi": 76,
      "hit": false,
      "t": 450,
      "d": 150,
      "v": 79
    },
    {
      "midi": 71,
      "hit": false,
      "t": 600,
      "d": 600,
      "v": 69
    },
    {
      "midi": 74,
      "hit": false,
      "t": 600,
      "d": 600,
      "v": 69
    },
    {
      "midi": 59,
      "hit": false,
      "t": 600,
      "d": 600,
      "v": 70
    },
    {
      "midi": 62,
      "hit": false,
      "t": 600,
      "d": 600,
      "v": 70
    },
    {
      "midi": 83,
      "hit": false,
      "t": 1200,
      "d": 600,
      "v": 69
    },
    {
      "midi": 86,
      "hit": false,
      "t": 1200,
      "d": 600,
      "v": 69
    },
    {
      "midi": 59,
      "hit": false,
      "t": 1200,
      "d": 600,
      "v": 69
    },
    {
      "midi": 62,
      "hit": false,
      "t": 1200,
      "d": 600,
      "v": 69
    },
    {
      "midi": 71,
      "hit": false,
      "t": 1800,
      "d": 450,
      "v": 69
    },
    {
      "midi": 74,
      "hit": false,
      "t": 1800,
      "d": 450,
      "v": 69
    },
    {
      "midi": 55,
      "hit": false,
      "t": 1800,
      "d": 600,
      "v": 68
    },
    {
      "midi": 72,
      "hit": false,
      "t": 2250,
      "d": 150,
      "v": 76
    },
    {
      "midi": 76,
      "hit": false,
      "t": 2250,
      "d": 150,
      "v": 76
    },
    {
      "midi": 71,
      "hit": false,
      "t": 2400,
      "d": 600,
      "v": 70
    },
    {
      "midi": 74,
      "hit": false,
      "t": 2400,
      "d": 600,
      "v": 70
    },
    {
      "midi": 59,
      "hit": false,
      "t": 2400,
      "d": 600,
      "v": 66
    },
    {
      "midi": 62,
      "hit": false,
      "t": 2400,
      "d": 600,
      "v": 66
    },
    {
      "midi": 79,
      "hit": false,
      "t": 3000,
      "d": 600,
      "v": 70
    },
    {
      "midi": 83,
      "hit": false,
      "t": 3000,
      "d": 600,
      "v": 70
    },
    {
      "midi": 59,
      "hit": false,
      "t": 3000,
      "d": 600,
      "v": 67
    },
    {
      "midi": 62,
      "hit": false,
      "t": 3000,
      "d": 600,
      "v": 67
    },
    {
      "midi": 71,
      "hit": false,
      "t": 3600,
      "d": 450,
      "v": 70
    },
    {
      "midi": 74,
      "hit": false,
      "t": 3600,
      "d": 450,
      "v": 70
    },
    {
      "midi": 55,
      "hit": false,
      "t": 3600,
      "d": 600,
      "v": 63
    },
    {
      "midi": 72,
      "hit": false,
      "t": 4050,
      "d": 150,
      "v": 78
    },
    {
      "midi": 76,
      "hit": false,
      "t": 4050,
      "d": 150,
      "v": 78
    },
    {
      "midi": 71,
      "hit": false,
      "t": 4200,
      "d": 600,
      "v": 72
    },
    {
      "midi": 74,
      "hit": false,
      "t": 4200,
      "d": 600,
      "v": 72
    },
    {
      "midi": 59,
      "hit": false,
      "t": 4200,
      "d": 600,
      "v": 69
    },
    {
      "midi": 62,
      "hit": false,
      "t": 4200,
      "d": 600,
      "v": 69
    },
    {
      "midi": 71,
      "hit": false,
      "t": 4800,
      "d": 600,
      "v": 72
    },
    {
      "midi": 74,
      "hit": false,
      "t": 4800,
      "d": 600,
      "v": 72
    },
    {
      "midi": 79,
      "hit": false,
      "t": 4800,
      "d": 600,
      "v": 72
    },
    {
      "midi": 59,
      "hit": false,
      "t": 4800,
      "d": 600,
      "v": 71
    },
    {
      "midi": 62,
      "hit": false,
      "t": 4800,
      "d": 600,
      "v": 71
    },
    {
      "midi": 72,
      "hit": false,
      "t": 5400,
      "d": 1200,
      "v": 127
    },
    {
      "midi": 74,
      "hit": false,
      "t": 5400,
      "d": 1200,
      "v": 127
    },
    {
      "midi": 79,
      "hit": false,
      "t": 5400,
      "d": 1200,
      "v": 127
    },
    {
      "midi": 57,
      "hit": false,
      "t": 5400,
      "d": 600,
      "v": 66
    },
    {
      "midi": 60,
      "hit": false,
      "t": 6000,
      "d": 600,
      "v": 66
    },
    {
      "midi": 62,
      "hit": false,
      "t": 6000,
      "d": 600,
      "v": 66
    },
    {
      "midi": 78,
      "hit": false,
      "t": 6600,
      "d": 600,
      "v": 71
    },
    {
      "midi": 60,
      "hit": false,
      "t": 6600,
      "d": 600,
      "v": 69
    },
    {
      "midi": 62,
      "hit": false,
      "t": 6600,
      "d": 600,
      "v": 69
    },
    {
      "midi": 69,
      "hit": false,
      "t": 7200,
      "d": 450,
      "v": 70
    },
    {
      "midi": 72,
      "hit": false,
      "t": 7200,
      "d": 450,
      "v": 70
    },
    {
      "midi": 74,
      "hit": false,
      "t": 7200,
      "d": 450,
      "v": 70
    },
    {
      "midi": 54,
      "hit": false,
      "t": 7200,
      "d": 600,
      "v": 72
    },
    {
      "midi": 76,
      "hit": false,
      "t": 7650,
      "d": 150,
      "v": 81
    },
    {
      "midi": 69,
      "hit": false,
      "t": 7800,
      "d": 600,
      "v": 74
    },
    {
      "midi": 72,
      "hit": false,
      "t": 7800,
      "d": 600,
      "v": 74
    },
    {
      "midi": 74,
      "hit": false,
      "t": 7800,
      "d": 600,
      "v": 74
    },
    {
      "midi": 57,
      "hit": false,
      "t": 7800,
      "d": 600,
      "v": 66
    },
    {
      "midi": 60,
      "hit": false,
      "t": 7800,
      "d": 600,
      "v": 66
    },
    {
      "midi": 62,
      "hit": false,
      "t": 7800,
      "d": 600,
      "v": 66
    },
    {
      "midi": 84,
      "hit": false,
      "t": 8400,
      "d": 600,
      "v": 72
    },
    {
      "midi": 88,
      "hit": false,
      "t": 8400,
      "d": 600,
      "v": 72
    },
    {
      "midi": 57,
      "hit": false,
      "t": 8400,
      "d": 600,
      "v": 72
    },
    {
      "midi": 60,
      "hit": false,
      "t": 8400,
      "d": 600,
      "v": 72
    },
    {
      "midi": 62,
      "hit": false,
      "t": 8400,
      "d": 600,
      "v": 72
    },
    {
      "midi": 69,
      "hit": false,
      "t": 9000,
      "d": 450,
      "v": 71
    },
    {
      "midi": 72,
      "hit": false,
      "t": 9000,
      "d": 450,
      "v": 71
    },
    {
      "midi": 74,
      "hit": false,
      "t": 9000,
      "d": 450,
      "v": 71
    },
    {
      "midi": 54,
      "hit": false,
      "t": 9000,
      "d": 600,
      "v": 68
    },
    {
      "midi": 76,
      "hit": false,
      "t": 9450,
      "d": 150,
      "v": 81
    },
    {
      "midi": 69,
      "hit": false,
      "t": 9600,
      "d": 600,
      "v": 71
    },
    {
      "midi": 72,
      "hit": false,
      "t": 9600,
      "d": 600,
      "v": 71
    },
    {
      "midi": 74,
      "hit": false,
      "t": 9600,
      "d": 600,
      "v": 71
    },
    {
      "midi": 57,
      "hit": false,
      "t": 9600,
      "d": 600,
      "v": 71
    },
    {
      "midi": 60,
      "hit": false,
      "t": 9600,
      "d": 600,
      "v": 71
    },
    {
      "midi": 62,
      "hit": false,
      "t": 9600,
      "d": 600,
      "v": 71
    },
    {
      "midi": 81,
      "hit": false,
      "t": 10200,
      "d": 600,
      "v": 70
    },
    {
      "midi": 84,
      "hit": false,
      "t": 10200,
      "d": 600,
      "v": 70
    },
    {
      "midi": 57,
      "hit": false,
      "t": 10200,
      "d": 600,
      "v": 67
    },
    {
      "midi": 60,
      "hit": false,
      "t": 10200,
      "d": 600,
      "v": 67
    },
    {
      "midi": 62,
      "hit": false,
      "t": 10200,
      "d": 600,
      "v": 67
    },
    {
      "midi": 69,
      "hit": false,
      "t": 10800,
      "d": 450,
      "v": 67
    },
    {
      "midi": 72,
      "hit": false,
      "t": 10800,
      "d": 450,
      "v": 67
    },
    {
      "midi": 74,
      "hit": false,
      "t": 10800,
      "d": 450,
      "v": 67
    },
    {
      "midi": 54,
      "hit": false,
      "t": 10800,
      "d": 600,
      "v": 71
    },
    {
      "midi": 76,
      "hit": false,
      "t": 11250,
      "d": 150,
      "v": 81
    },
    {
      "midi": 69,
      "hit": false,
      "t": 11400,
      "d": 600,
      "v": 73
    },
    {
      "midi": 72,
      "hit": false,
      "t": 11400,
      "d": 600,
      "v": 73
    },
    {
      "midi": 74,
      "hit": false,
      "t": 11400,
      "d": 600,
      "v": 73
    },
    {
      "midi": 57,
      "hit": false,
      "t": 11400,
      "d": 600,
      "v": 66
    },
    {
      "midi": 60,
      "hit": false,
      "t": 11400,
      "d": 600,
      "v": 66
    },
    {
      "midi": 62,
      "hit": false,
      "t": 11400,
      "d": 600,
      "v": 66
    },
    {
      "midi": 72,
      "hit": false,
      "t": 12000,
      "d": 600,
      "v": 69
    },
    {
      "midi": 74,
      "hit": false,
      "t": 12000,
      "d": 600,
      "v": 69
    },
    {
      "midi": 81,
      "hit": false,
      "t": 12000,
      "d": 600,
      "v": 69
    },
    {
      "midi": 57,
      "hit": false,
      "t": 12000,
      "d": 600,
      "v": 61
    },
    {
      "midi": 60,
      "hit": false,
      "t": 12000,
      "d": 600,
      "v": 61
    },
    {
      "midi": 62,
      "hit": false,
      "t": 12000,
      "d": 600,
      "v": 61
    },
    {
      "midi": 71,
      "hit": false,
      "t": 12600,
      "d": 1200,
      "v": 127
    },
    {
      "midi": 74,
      "hit": false,
      "t": 12600,
      "d": 1200,
      "v": 127
    },
    {
      "midi": 81,
      "hit": false,
      "t": 12600,
      "d": 1200,
      "v": 127
    },
    {
      "midi": 55,
      "hit": false,
      "t": 12600,
      "d": 600,
      "v": 66
    },
    {
      "midi": 59,
      "hit": false,
      "t": 13200,
      "d": 600,
      "v": 72
    },
    {
      "midi": 62,
      "hit": false,
      "t": 13200,
      "d": 600,
      "v": 72
    },
    {
      "midi": 79,
      "hit": false,
      "t": 13800,
      "d": 600,
      "v": 70
    },
    {
      "midi": 59,
      "hit": false,
      "t": 13800,
      "d": 600,
      "v": 73
    },
    {
      "midi": 62,
      "hit": false,
      "t": 13800,
      "d": 600,
      "v": 73
    },
    {
      "midi": 72,
      "hit": false,
      "t": 14400,
      "d": 450,
      "v": 81
    },
    {
      "midi": 75,
      "hit": false,
      "t": 14400,
      "d": 450,
      "v": 81
    },
    {
      "midi": 81,
      "hit": false,
      "t": 14400,
      "d": 450,
      "v": 81
    },
    {
      "midi": 48,
      "hit": false,
      "t": 14400,
      "d": 600,
      "v": 67
    },
    {
      "midi": 79,
      "hit": false,
      "t": 14850,
      "d": 150,
      "v": 73
    },
    {
      "midi": 75,
      "hit": false,
      "t": 15000,
      "d": 600,
      "v": 66
    },
    {
      "midi": 60,
      "hit": false,
      "t": 15000,
      "d": 600,
      "v": 69
    },
    {
      "midi": 64,
      "hit": false,
      "t": 15000,
      "d": 600,
      "v": 69
    },
    {
      "midi": 72,
      "hit": false,
      "t": 15600,
      "d": 600,
      "v": 70
    },
    {
      "midi": 60,
      "hit": false,
      "t": 15600,
      "d": 600,
      "v": 73
    },
    {
      "midi": 64,
      "hit": false,
      "t": 15600,
      "d": 600,
      "v": 73
    },
    {
      "midi": 67,
      "hit": false,
      "t": 16200,
      "d": 450,
      "v": 75
    },
    {
      "midi": 71,
      "hit": false,
      "t": 16200,
      "d": 450,
      "v": 75
    },
    {
      "midi": 55,
      "hit": false,
      "t": 16200,
      "d": 600,
      "v": 71
    },
    {
      "midi": 76,
      "hit": false,
      "t": 16650,
      "d": 150,
      "v": 78
    },
    {
      "midi": 74,
      "hit": false,
      "t": 16800,
      "d": 600,
      "v": 72
    },
    {
      "midi": 59,
      "hit": false,
      "t": 16800,
      "d": 600,
      "v": 63
    },
    {
      "midi": 62,
      "hit": false,
      "t": 16800,
      "d": 600,
      "v": 63
    },
    {
      "midi": 74,
      "hit": false,
      "t": 17400,
      "d": 600,
      "v": 69
    },
    {
      "midi": 59,
      "hit": false,
      "t": 17400,
      "d": 600,
      "v": 70
    },
    {
      "midi": 62,
      "hit": false,
      "t": 17400,
      "d": 600,
      "v": 70
    },
    {
      "midi": 72,
      "hit": false,
      "t": 18000,
      "d": 450,
      "v": 71
    },
    {
      "midi": 76,
      "hit": false,
      "t": 18000,
      "d": 450,
      "v": 71
    },
    {
      "midi": 81,
      "hit": false,
      "t": 18000,
      "d": 450,
      "v": 71
    },
    {
      "midi": 48,
      "hit": false,
      "t": 18000,
      "d": 600,
      "v": 68
    },
    {
      "midi": 79,
      "hit": false,
      "t": 18450,
      "d": 150,
      "v": 71
    },
    {
      "midi": 76,
      "hit": false,
      "t": 18600,
      "d": 600,
      "v": 69
    },
    {
      "midi": 60,
      "hit": false,
      "t": 18600,
      "d": 600,
      "v": 67
    },
    {
      "midi": 64,
      "hit": false,
      "t": 18600,
      "d": 600,
      "v": 67
    },
    {
      "midi": 72,
      "hit": false,
      "t": 19200,
      "d": 600,
      "v": 66
    },
    {
      "midi": 60,
      "hit": false,
      "t": 19200,
      "d": 600,
      "v": 73
    },
    {
      "midi": 64,
      "hit": false,
      "t": 19200,
      "d": 600,
      "v": 73
    },
    {
      "midi": 71,
      "hit": false,
      "t": 19800,
      "d": 1200,
      "v": 67
    },
    {
      "midi": 74,
      "hit": false,
      "t": 19800,
      "d": 1200,
      "v": 67
    },
    {
      "midi": 55,
      "hit": false,
      "t": 19800,
      "d": 600,
      "v": 67
    },
    {
      "midi": 59,
      "hit": false,
      "t": 20400,
      "d": 600,
      "v": 68
    },
    {
      "midi": 62,
      "hit": false,
      "t": 20400,
      "d": 600,
      "v": 68
    },
    {
      "midi": 67,
      "hit": false,
      "t": 21000,
      "d": 600,
      "v": 65
    },
    {
      "midi": 59,
      "hit": false,
      "t": 21000,
      "d": 600,
      "v": 72
    },
    {
      "midi": 62,
      "hit": false,
      "t": 21000,
      "d": 600,
      "v": 72
    },
    {
      "midi": 74,
      "hit": false,
      "t": 21600,
      "d": 450,
      "v": 69
    },
    {
      "midi": 54,
      "hit": false,
      "t": 21600,
      "d": 600,
      "v": 74
    },
    {
      "midi": 76,
      "hit": false,
      "t": 22050,
      "d": 150,
      "v": 79
    },
    {
      "midi": 78,
      "hit": false,
      "t": 22200,
      "d": 450,
      "v": 82
    },
    {
      "midi": 57,
      "hit": false,
      "t": 22200,
      "d": 600,
      "v": 63
    },
    {
      "midi": 60,
      "hit": false,
      "t": 22200,
      "d": 600,
      "v": 63
    },
    {
      "midi": 62,
      "hit": false,
      "t": 22200,
      "d": 600,
      "v": 63
    },
    {
      "midi": 79,
      "hit": false,
      "t": 22650,
      "d": 150,
      "v": 86
    },
    {
      "midi": 81,
      "hit": false,
      "t": 22800,
      "d": 450,
      "v": 84
    },
    {
      "midi": 57,
      "hit": false,
      "t": 22800,
      "d": 600,
      "v": 71
    },
    {
      "midi": 60,
      "hit": false,
      "t": 22800,
      "d": 600,
      "v": 71
    },
    {
      "midi": 62,
      "hit": false,
      "t": 22800,
      "d": 600,
      "v": 71
    },
    {
      "midi": 84,
      "hit": false,
      "t": 23250,
      "d": 150,
      "v": 85
    },
    {
      "midi": 88,
      "hit": false,
      "t": 23400,
      "d": 600,
      "v": 85
    },
    {
      "midi": 55,
      "hit": false,
      "t": 23400,
      "d": 600,
      "v": 65
    },
    {
      "midi": 74,
      "hit": false,
      "t": 24000,
      "d": 450,
      "v": 72
    },
    {
      "midi": 59,
      "hit": false,
      "t": 24000,
      "d": 600,
      "v": 73
    },
    {
      "midi": 62,
      "hit": false,
      "t": 24000,
      "d": 600,
      "v": 73
    },
    {
      "midi": 73,
      "hit": false,
      "t": 24450,
      "d": 150,
      "v": 75
    },
    {
      "midi": 74,
      "hit": false,
      "t": 24600,
      "d": 600,
      "v": 81
    },
    {
      "midi": 59,
      "hit": false,
      "t": 24600,
      "d": 600,
      "v": 69
    },
    {
      "midi": 62,
      "hit": false,
      "t": 24600,
      "d": 600,
      "v": 69
    },
    {
      "midi": 81,
      "hit": false,
      "t": 25200,
      "d": 600,
      "v": 95
    },
    {
      "midi": 84,
      "hit": false,
      "t": 25200,
      "d": 600,
      "v": 95
    },
    {
      "midi": 54,
      "hit": false,
      "t": 25200,
      "d": 600,
      "v": 71
    },
    {
      "midi": 74,
      "hit": false,
      "t": 25800,
      "d": 450,
      "v": 66
    },
    {
      "midi": 57,
      "hit": false,
      "t": 25800,
      "d": 600,
      "v": 68
    },
    {
      "midi": 60,
      "hit": false,
      "t": 25800,
      "d": 600,
      "v": 68
    },
    {
      "midi": 62,
      "hit": false,
      "t": 25800,
      "d": 600,
      "v": 68
    },
    {
      "midi": 73,
      "hit": false,
      "t": 26250,
      "d": 150,
      "v": 69
    },
    {
      "midi": 74,
      "hit": false,
      "t": 26400,
      "d": 600,
      "v": 80
    },
    {
      "midi": 57,
      "hit": false,
      "t": 26400,
      "d": 600,
      "v": 68
    },
    {
      "midi": 60,
      "hit": false,
      "t": 26400,
      "d": 600,
      "v": 68
    },
    {
      "midi": 62,
      "hit": false,
      "t": 26400,
      "d": 600,
      "v": 68
    },
    {
      "midi": 79,
      "hit": false,
      "t": 27000,
      "d": 600,
      "v": 98
    },
    {
      "midi": 83,
      "hit": false,
      "t": 27000,
      "d": 600,
      "v": 98
    },
    {
      "midi": 55,
      "hit": false,
      "t": 27000,
      "d": 600,
      "v": 69
    },
    {
      "midi": 74,
      "hit": false,
      "t": 27600,
      "d": 450,
      "v": 75
    },
    {
      "midi": 59,
      "hit": false,
      "t": 27600,
      "d": 600,
      "v": 67
    },
    {
      "midi": 62,
      "hit": false,
      "t": 27600,
      "d": 600,
      "v": 67
    },
    {
      "midi": 73,
      "hit": false,
      "t": 28050,
      "d": 150,
      "v": 69
    },
    {
      "midi": 74,
      "hit": false,
      "t": 28200,
      "d": 600,
      "v": 77
    },
    {
      "midi": 59,
      "hit": false,
      "t": 28200,
      "d": 600,
      "v": 68
    },
    {
      "midi": 62,
      "hit": false,
      "t": 28200,
      "d": 600,
      "v": 68
    },
    {
      "midi": 74,
      "hit": false,
      "t": 28800,
      "d": 450,
      "v": 77
    },
    {
      "midi": 54,
      "hit": false,
      "t": 28800,
      "d": 600,
      "v": 68
    },
    {
      "midi": 76,
      "hit": false,
      "t": 29250,
      "d": 150,
      "v": 82
    },
    {
      "midi": 78,
      "hit": false,
      "t": 29400,
      "d": 450,
      "v": 84
    },
    {
      "midi": 57,
      "hit": false,
      "t": 29400,
      "d": 600,
      "v": 68
    },
    {
      "midi": 60,
      "hit": false,
      "t": 29400,
      "d": 600,
      "v": 68
    },
    {
      "midi": 62,
      "hit": false,
      "t": 29400,
      "d": 600,
      "v": 68
    },
    {
      "midi": 79,
      "hit": false,
      "t": 29850,
      "d": 150,
      "v": 82
    },
    {
      "midi": 81,
      "hit": false,
      "t": 30000,
      "d": 450,
      "v": 78
    },
    {
      "midi": 57,
      "hit": false,
      "t": 30000,
      "d": 600,
      "v": 70
    },
    {
      "midi": 60,
      "hit": false,
      "t": 30000,
      "d": 600,
      "v": 70
    },
    {
      "midi": 62,
      "hit": false,
      "t": 30000,
      "d": 600,
      "v": 70
    },
    {
      "midi": 84,
      "hit": false,
      "t": 30450,
      "d": 150,
      "v": 79
    },
    {
      "midi": 88,
      "hit": false,
      "t": 30600,
      "d": 600,
      "v": 87
    },
    {
      "midi": 55,
      "hit": false,
      "t": 30600,
      "d": 600,
      "v": 70
    },
    {
      "midi": 74,
      "hit": false,
      "t": 31200,
      "d": 450,
      "v": 67
    },
    {
      "midi": 59,
      "hit": false,
      "t": 31200,
      "d": 600,
      "v": 68
    },
    {
      "midi": 62,
      "hit": false,
      "t": 31200,
      "d": 600,
      "v": 68
    },
    {
      "midi": 73,
      "hit": false,
      "t": 31650,
      "d": 150,
      "v": 65
    },
    {
      "midi": 74,
      "hit": false,
      "t": 31800,
      "d": 600,
      "v": 81
    },
    {
      "midi": 59,
      "hit": false,
      "t": 31800,
      "d": 600,
      "v": 63
    },
    {
      "midi": 62,
      "hit": false,
      "t": 31800,
      "d": 600,
      "v": 63
    },
    {
      "midi": 78,
      "hit": false,
      "t": 32400,
      "d": 450,
      "v": 81
    },
    {
      "midi": 50,
      "hit": false,
      "t": 32400,
      "d": 600,
      "v": 66
    },
    {
      "midi": 76,
      "hit": false,
      "t": 32850,
      "d": 150,
      "v": 71
    },
    {
      "midi": 74,
      "hit": false,
      "t": 33000,
      "d": 450,
      "v": 70
    },
    {
      "midi": 54,
      "hit": false,
      "t": 33000,
      "d": 600,
      "v": 70
    },
    {
      "midi": 60,
      "hit": false,
      "t": 33000,
      "d": 600,
      "v": 70
    },
    {
      "midi": 72,
      "hit": false,
      "t": 33450,
      "d": 150,
      "v": 73
    },
    {
      "midi": 71,
      "hit": false,
      "t": 33600,
      "d": 450,
      "v": 77
    },
    {
      "midi": 50,
      "hit": false,
      "t": 33600,
      "d": 600,
      "v": 67
    },
    {
      "midi": 54,
      "hit": false,
      "t": 33600,
      "d": 600,
      "v": 67
    },
    {
      "midi": 60,
      "hit": false,
      "t": 33600,
      "d": 600,
      "v": 67
    },
    {
      "midi": 69,
      "hit": false,
      "t": 34050,
      "d": 150,
      "v": 69
    },
    {
      "midi": 67,
      "hit": false,
      "t": 34200,
      "d": 600,
      "v": 69
    },
    {
      "midi": 55,
      "hit": false,
      "t": 34200,
      "d": 600,
      "v": 73
    },
    {
      "midi": 59,
      "hit": false,
      "t": 34200,
      "d": 600,
      "v": 73
    },
    {
      "midi": 71,
      "hit": false,
      "t": 34800,
      "d": 600,
      "v": 69
    },
    {
      "midi": 79,
      "hit": false,
      "t": 34800,
      "d": 600,
      "v": 69
    },
    {
      "midi": 55,
      "hit": false,
      "t": 34800,
      "d": 1200,
      "v": 69
    },
    {
      "midi": 62,
      "hit": false,
      "t": 34800,
      "d": 1200,
      "v": 69
    },
    {
      "midi": 67,
      "hit": false,
      "t": 35400,
      "d": 600,
      "v": 70
    },
    {
      "midi": 72,
      "hit": false,
      "t": 36000,
      "d": 450,
      "v": 66
    },
    {
      "midi": 76,
      "hit": false,
      "t": 36000,
      "d": 450,
      "v": 66
    },
    {
      "midi": 81,
      "hit": false,
      "t": 36000,
      "d": 450,
      "v": 66
    },
    {
      "midi": 48,
      "hit": false,
      "t": 36000,
      "d": 600,
      "v": 64
    },
    {
      "midi": 79,
      "hit": false,
      "t": 36450,
      "d": 150,
      "v": 69
    },
    {
      "midi": 76,
      "hit": false,
      "t": 36600,
      "d": 600,
      "v": 74
    },
    {
      "midi": 60,
      "hit": false,
      "t": 36600,
      "d": 600,
      "v": 69
    },
    {
      "midi": 64,
      "hit": false,
      "t": 36600,
      "d": 600,
      "v": 69
    },
    {
      "midi": 72,
      "hit": false,
      "t": 37200,
      "d": 600,
      "v": 72
    },
    {
      "midi": 60,
      "hit": false,
      "t": 37200,
      "d": 600,
      "v": 70
    },
    {
      "midi": 64,
      "hit": false,
      "t": 37200,
      "d": 600,
      "v": 70
    },
    {
      "midi": 67,
      "hit": false,
      "t": 37800,
      "d": 450,
      "v": 69
    },
    {
      "midi": 71,
      "hit": false,
      "t": 37800,
      "d": 450,
      "v": 69
    },
    {
      "midi": 55,
      "hit": false,
      "t": 37800,
      "d": 600,
      "v": 71
    },
    {
      "midi": 76,
      "hit": false,
      "t": 38250,
      "d": 150,
      "v": 78
    },
    {
      "midi": 74,
      "hit": false,
      "t": 38400,
      "d": 600,
      "v": 70
    },
    {
      "midi": 58,
      "hit": false,
      "t": 38400,
      "d": 600,
      "v": 67
    },
    {
      "midi": 62,
      "hit": false,
      "t": 38400,
      "d": 600,
      "v": 67
    },
    {
      "midi": 74,
      "hit": false,
      "t": 39000,
      "d": 600,
      "v": 70
    },
    {
      "midi": 58,
      "hit": false,
      "t": 39000,
      "d": 600,
      "v": 68
    },
    {
      "midi": 62,
      "hit": false,
      "t": 39000,
      "d": 600,
      "v": 68
    },
    {
      "midi": 72,
      "hit": false,
      "t": 39600,
      "d": 450,
      "v": 127
    },
    {
      "midi": 76,
      "hit": false,
      "t": 39600,
      "d": 450,
      "v": 127
    },
    {
      "midi": 81,
      "hit": false,
      "t": 39600,
      "d": 450,
      "v": 127
    },
    {
      "midi": 48,
      "hit": false,
      "t": 39600,
      "d": 600,
      "v": 67
    },
    {
      "midi": 79,
      "hit": false,
      "t": 40050,
      "d": 150,
      "v": 65
    },
    {
      "midi": 76,
      "hit": false,
      "t": 40200,
      "d": 600,
      "v": 69
    },
    {
      "midi": 60,
      "hit": false,
      "t": 40200,
      "d": 600,
      "v": 69
    },
    {
      "midi": 64,
      "hit": false,
      "t": 40200,
      "d": 600,
      "v": 69
    },
    {
      "midi": 72,
      "hit": false,
      "t": 40800,
      "d": 600,
      "v": 67
    },
    {
      "midi": 60,
      "hit": false,
      "t": 40800,
      "d": 600,
      "v": 69
    },
    {
      "midi": 64,
      "hit": false,
      "t": 40800,
      "d": 600,
      "v": 69
    },
    {
      "midi": 71,
      "hit": false,
      "t": 41400,
      "d": 1200,
      "v": 65
    },
    {
      "midi": 74,
      "hit": false,
      "t": 41400,
      "d": 1200,
      "v": 65
    },
    {
      "midi": 55,
      "hit": false,
      "t": 41400,
      "d": 600,
      "v": 76
    },
    {
      "midi": 59,
      "hit": false,
      "t": 42000,
      "d": 600,
      "v": 70
    },
    {
      "midi": 62,
      "hit": false,
      "t": 42000,
      "d": 600,
      "v": 70
    },
    {
      "midi": 67,
      "hit": false,
      "t": 42600,
      "d": 600,
      "v": 60
    },
    {
      "midi": 59,
      "hit": false,
      "t": 42600,
      "d": 600,
      "v": 70
    },
    {
      "midi": 62,
      "hit": false,
      "t": 42600,
      "d": 600,
      "v": 70
    },
    {
      "midi": 74,
      "hit": false,
      "t": 43200,
      "d": 450,
      "v": 68
    },
    {
      "midi": 54,
      "hit": false,
      "t": 43200,
      "d": 600,
      "v": 68
    },
    {
      "midi": 76,
      "hit": false,
      "t": 43650,
      "d": 150,
      "v": 84
    },
    {
      "midi": 78,
      "hit": false,
      "t": 43800,
      "d": 450,
      "v": 83
    },
    {
      "midi": 57,
      "hit": false,
      "t": 43800,
      "d": 600,
      "v": 70
    },
    {
      "midi": 60,
      "hit": false,
      "t": 43800,
      "d": 600,
      "v": 70
    },
    {
      "midi": 62,
      "hit": false,
      "t": 43800,
      "d": 600,
      "v": 70
    },
    {
      "midi": 79,
      "hit": false,
      "t": 44250,
      "d": 150,
      "v": 86
    },
    {
      "midi": 81,
      "hit": false,
      "t": 44400,
      "d": 450,
      "v": 81
    },
    {
      "midi": 57,
      "hit": false,
      "t": 44400,
      "d": 600,
      "v": 70
    },
    {
      "midi": 60,
      "hit": false,
      "t": 44400,
      "d": 600,
      "v": 70
    },
    {
      "midi": 62,
      "hit": false,
      "t": 44400,
      "d": 600,
      "v": 70
    },
    {
      "midi": 84,
      "hit": false,
      "t": 44850,
      "d": 150,
      "v": 84
    },
    {
      "midi": 88,
      "hit": false,
      "t": 45000,
      "d": 600,
      "v": 86
    },
    {
      "midi": 55,
      "hit": false,
      "t": 45000,
      "d": 600,
      "v": 69
    },
    {
      "midi": 74,
      "hit": false,
      "t": 45600,
      "d": 450,
      "v": 66
    },
    {
      "midi": 59,
      "hit": false,
      "t": 45600,
      "d": 600,
      "v": 70
    },
    {
      "midi": 62,
      "hit": false,
      "t": 45600,
      "d": 600,
      "v": 70
    },
    {
      "midi": 73,
      "hit": false,
      "t": 46050,
      "d": 150,
      "v": 69
    },
    {
      "midi": 74,
      "hit": false,
      "t": 46200,
      "d": 600,
      "v": 80
    },
    {
      "midi": 59,
      "hit": false,
      "t": 46200,
      "d": 600,
      "v": 70
    },
    {
      "midi": 62,
      "hit": false,
      "t": 46200,
      "d": 600,
      "v": 70
    },
    {
      "midi": 81,
      "hit": false,
      "t": 46800,
      "d": 600,
      "v": 93
    },
    {
      "midi": 84,
      "hit": false,
      "t": 46800,
      "d": 600,
      "v": 93
    },
    {
      "midi": 54,
      "hit": false,
      "t": 46800,
      "d": 600,
      "v": 69
    },
    {
      "midi": 74,
      "hit": false,
      "t": 47400,
      "d": 450,
      "v": 70
    },
    {
      "midi": 57,
      "hit": false,
      "t": 47400,
      "d": 600,
      "v": 67
    },
    {
      "midi": 60,
      "hit": false,
      "t": 47400,
      "d": 600,
      "v": 67
    },
    {
      "midi": 62,
      "hit": false,
      "t": 47400,
      "d": 600,
      "v": 67
    },
    {
      "midi": 73,
      "hit": false,
      "t": 47850,
      "d": 150,
      "v": 76
    },
    {
      "midi": 74,
      "hit": false,
      "t": 48000,
      "d": 600,
      "v": 81
    },
    {
      "midi": 57,
      "hit": false,
      "t": 48000,
      "d": 600,
      "v": 74
    },
    {
      "midi": 60,
      "hit": false,
      "t": 48000,
      "d": 600,
      "v": 74
    },
    {
      "midi": 62,
      "hit": false,
      "t": 48000,
      "d": 600,
      "v": 74
    },
    {
      "midi": 79,
      "hit": false,
      "t": 48600,
      "d": 600,
      "v": 92
    },
    {
      "midi": 83,
      "hit": false,
      "t": 48600,
      "d": 600,
      "v": 92
    },
    {
      "midi": 55,
      "hit": false,
      "t": 48600,
      "d": 600,
      "v": 71
    },
    {
      "midi": 74,
      "hit": false,
      "t": 49200,
      "d": 450,
      "v": 71
    },
    {
      "midi": 59,
      "hit": false,
      "t": 49200,
      "d": 600,
      "v": 69
    },
    {
      "midi": 62,
      "hit": false,
      "t": 49200,
      "d": 600,
      "v": 69
    },
    {
      "midi": 73,
      "hit": false,
      "t": 49650,
      "d": 150,
      "v": 71
    },
    {
      "midi": 74,
      "hit": false,
      "t": 49800,
      "d": 600,
      "v": 78
    },
    {
      "midi": 59,
      "hit": false,
      "t": 49800,
      "d": 600,
      "v": 77
    },
    {
      "midi": 62,
      "hit": false,
      "t": 49800,
      "d": 600,
      "v": 77
    },
    {
      "midi": 74,
      "hit": false,
      "t": 50400,
      "d": 450,
      "v": 79
    },
    {
      "midi": 54,
      "hit": false,
      "t": 50400,
      "d": 600,
      "v": 67
    },
    {
      "midi": 76,
      "hit": false,
      "t": 50850,
      "d": 150,
      "v": 77
    },
    {
      "midi": 78,
      "hit": false,
      "t": 51000,
      "d": 450,
      "v": 86
    },
    {
      "midi": 57,
      "hit": false,
      "t": 51000,
      "d": 600,
      "v": 68
    },
    {
      "midi": 60,
      "hit": false,
      "t": 51000,
      "d": 600,
      "v": 68
    },
    {
      "midi": 62,
      "hit": false,
      "t": 51000,
      "d": 600,
      "v": 68
    },
    {
      "midi": 79,
      "hit": false,
      "t": 51450,
      "d": 150,
      "v": 78
    },
    {
      "midi": 81,
      "hit": false,
      "t": 51600,
      "d": 450,
      "v": 82
    },
    {
      "midi": 57,
      "hit": false,
      "t": 51600,
      "d": 600,
      "v": 69
    },
    {
      "midi": 60,
      "hit": false,
      "t": 51600,
      "d": 600,
      "v": 69
    },
    {
      "midi": 62,
      "hit": false,
      "t": 51600,
      "d": 600,
      "v": 69
    },
    {
      "midi": 84,
      "hit": false,
      "t": 52050,
      "d": 150,
      "v": 86
    },
    {
      "midi": 88,
      "hit": false,
      "t": 52200,
      "d": 600,
      "v": 82
    },
    {
      "midi": 55,
      "hit": false,
      "t": 52200,
      "d": 600,
      "v": 63
    },
    {
      "midi": 74,
      "hit": false,
      "t": 52800,
      "d": 450,
      "v": 66
    },
    {
      "midi": 59,
      "hit": false,
      "t": 52800,
      "d": 600,
      "v": 67
    },
    {
      "midi": 62,
      "hit": false,
      "t": 52800,
      "d": 600,
      "v": 67
    },
    {
      "midi": 73,
      "hit": false,
      "t": 53250,
      "d": 150,
      "v": 75
    },
    {
      "midi": 74,
      "hit": false,
      "t": 53400,
      "d": 600,
      "v": 74
    },
    {
      "midi": 59,
      "hit": false,
      "t": 53400,
      "d": 600,
      "v": 66
    },
    {
      "midi": 62,
      "hit": false,
      "t": 53400,
      "d": 600,
      "v": 66
    },
    {
      "midi": 78,
      "hit": false,
      "t": 54000,
      "d": 450,
      "v": 86
    },
    {
      "midi": 50,
      "hit": false,
      "t": 54000,
      "d": 600,
      "v": 69
    },
    {
      "midi": 76,
      "hit": false,
      "t": 54450,
      "d": 150,
      "v": 70
    },
    {
      "midi": 74,
      "hit": false,
      "t": 54600,
      "d": 450,
      "v": 69
    },
    {
      "midi": 54,
      "hit": false,
      "t": 54600,
      "d": 600,
      "v": 70
    },
    {
      "midi": 60,
      "hit": false,
      "t": 54600,
      "d": 600,
      "v": 70
    },
    {
      "midi": 72,
      "hit": false,
      "t": 55050,
      "d": 150,
      "v": 77
    },
    {
      "midi": 71,
      "hit": false,
      "t": 55200,
      "d": 450,
      "v": 74
    },
    {
      "midi": 50,
      "hit": false,
      "t": 55200,
      "d": 600,
      "v": 67
    },
    {
      "midi": 54,
      "hit": false,
      "t": 55200,
      "d": 600,
      "v": 67
    },
    {
      "midi": 60,
      "hit": false,
      "t": 55200,
      "d": 600,
      "v": 67
    },
    {
      "midi": 69,
      "hit": false,
      "t": 55650,
      "d": 150,
      "v": 71
    },
    {
      "midi": 67,
      "hit": false,
      "t": 55800,
      "d": 600,
      "v": 71
    },
    {
      "midi": 55,
      "hit": false,
      "t": 55800,
      "d": 600,
      "v": 68
    },
    {
      "midi": 59,
      "hit": false,
      "t": 55800,
      "d": 600,
      "v": 68
    },
    {
      "midi": 71,
      "hit": false,
      "t": 56400,
      "d": 1200,
      "v": 70
    },
    {
      "midi": 79,
      "hit": false,
      "t": 56400,
      "d": 1200,
      "v": 70
    },
    {
      "midi": 55,
      "hit": false,
      "t": 56400,
      "d": 1200,
      "v": 69
    },
    {
      "midi": 62,
      "hit": false,
      "t": 56400,
      "d": 1200,
      "v": 69
    }
  ]
}