{
  "jsonPath": "Rock/Soft Rock/Phil Collins/i-wish-it-would-rain-down.json",
  "path": "Rock\\Soft Rock\\Phil Collins\\I Wish It Would Rain Down.mid",
  "name": "I Wish It Would Rain Down",
  "difficulty": "Advanced",
  "bpm": 123.00223864074326,
  "notes": [
    {
      "midi": 72,
      "hit": false,
      "t": 3902.3679999999995,
      "d": 1942.0378250000003,
      "v": 115
    },
    {
      "midi": 75,
      "hit": false,
      "t": 3902.3679999999995,
      "d": 1942.0378250000003,
      "v": 110
    },
    {
      "midi": 75,
      "hit": false,
      "t": 7804.736,
      "d": 1926.7941999999994,
      "v": 112
    },
    {
      "midi": 70,
      "hit": false,
      "t": 7804.736,
      "d": 1942.0378249999985,
      "v": 110
    },
    {
      "midi": 70,
      "hit": false,
      "t": 11707.103999999998,
      "d": 1942.0378249999994,
      "v": 113
    },
    {
      "midi": 75,
      "hit": false,
      "t": 11707.103999999998,
      "d": 1942.0378249999994,
      "v": 112
    },
    {
      "midi": 70,
      "hit": false,
      "t": 18536.247999999996,
      "d": 966.4458249999989,
      "v": 110
    },
    {
      "midi": 75,
      "hit": false,
      "t": 18536.247999999996,
      "d": 966.4458249999989,
      "v": 114
    },
    {
      "midi": 72,
      "hit": false,
      "t": 19511.839999999997,
      "d": 1942.0378249999994,
      "v": 115
    },
    {
      "midi": 75,
      "hit": false,
      "t": 19511.839999999997,
      "d": 1942.0378249999994,
      "v": 117
    },
    {
      "midi": 75,
      "hit": false,
      "t": 23414.207999999995,
      "d": 1926.7942000000003,
      "v": 115
    },
    {
      "midi": 70,
      "hit": false,
      "t": 23414.207999999995,
      "d": 1942.0378249999994,
      "v": 113
    },
    {
      "midi": 70,
      "hit": false,
      "t": 27316.575999999994,
      "d": 1942.0378249999994,
      "v": 113
    },
    {
      "midi": 75,
      "hit": false,
      "t": 27316.575999999994,
      "d": 1942.0378249999994,
      "v": 116
    },
    {
      "midi": 70,
      "hit": false,
      "t": 34145.719999999994,
      "d": 966.4458250000025,
      "v": 116
    },
    {
      "midi": 75,
      "hit": false,
      "t": 34145.719999999994,
      "d": 966.4458250000025,
      "v": 115
    },
    {
      "midi": 72,
      "hit": false,
      "t": 35121.312,
      "d": 2836.3304916666675,
      "v": 111
    },
    {
      "midi": 75,
      "hit": false,
      "t": 35121.312,
      "d": 2841.411700000004,
      "v": 115
    },
    {
      "midi": 75,
      "hit": false,
      "t": 39023.68,
      "d": 2384.1029500000004,
      "v": 116
    },
    {
      "midi": 70,
      "hit": false,
      "t": 39023.68,
      "d": 2389.184158333337,
      "v": 108
    },
    {
      "midi": 77,
      "hit": false,
      "t": 42926.048,
      "d": 2368.8593249999976,
      "v": 123
    },
    {
      "midi": 75,
      "hit": false,
      "t": 42926.048,
      "d": 2373.9405333333343,
      "v": 104
    },
    {
      "midi": 80,
      "hit": false,
      "t": 42926.048,
      "d": 2373.9405333333343,
      "v": 115
    },
    {
      "midi": 70,
      "hit": false,
      "t": 49755.192,
      "d": 966.4458250000025,
      "v": 111
    },
    {
      "midi": 79,
      "hit": false,
      "t": 49755.192,
      "d": 966.4458250000025,
      "v": 112
    },
    {
      "midi": 68,
      "hit": false,
      "t": 50730.78400000001,
      "d": 1809.9264083333328,
      "v": 111
    },
    {
      "midi": 72,
      "hit": false,
      "t": 50730.78400000001,
      "d": 1809.9264083333328,
      "v": 112
    },
    {
      "midi": 80,
      "hit": false,
      "t": 50730.78400000001,
      "d": 1809.9264083333328,
      "v": 109
    },
    {
      "midi": 77,
      "hit": false,
      "t": 58535.520000000004,
      "d": 2368.8593249999976,
      "v": 121
    },
    {
      "midi": 75,
      "hit": false,
      "t": 58535.520000000004,
      "d": 2373.9405333333343,
      "v": 106
    },
    {
      "midi": 80,
      "hit": false,
      "t": 58535.520000000004,
      "d": 2373.9405333333343,
      "v": 113
    },
    {
      "midi": 68,
      "hit": false,
      "t": 66340.25600000001,
      "d": 1581.2720333333273,
      "v": 102
    },
    {
      "midi": 61,
      "hit": false,
      "t": 66340.25600000001,
      "d": 1591.4344500000007,
      "v": 101
    },
    {
      "midi": 70,
      "hit": false,
      "t": 70242.62400000001,
      "d": 1515.2163250000012,
      "v": 113
    },
    {
      "midi": 63,
      "hit": false,
      "t": 70242.62400000001,
      "d": 1530.459950000004,
      "v": 100
    },
    {
      "midi": 80,
      "hit": false,
      "t": 79998.54400000001,
      "d": 600.5988249999937,
      "v": 72
    },
    {
      "midi": 82,
      "hit": false,
      "t": 80730.238,
      "d": 422.7565333333332,
      "v": 78
    },
    {
      "midi": 80,
      "hit": false,
      "t": 81218.034,
      "d": 600.5988249999937,
      "v": 75
    },
    {
      "midi": 72,
      "hit": false,
      "t": 97559.2,
      "d": 2836.3304916666675,
      "v": 110
    },
    {
      "midi": 75,
      "hit": false,
      "t": 97559.2,
      "d": 2841.411699999997,
      "v": 115
    },
    {
      "midi": 75,
      "hit": false,
      "t": 101461.568,
      "d": 2384.1029500000004,
      "v": 111
    },
    {
      "midi": 70,
      "hit": false,
      "t": 101461.568,
      "d": 2389.18415833333,
      "v": 107
    },
    {
      "midi": 77,
      "hit": false,
      "t": 105363.936,
      "d": 2368.8593249999976,
      "v": 117
    },
    {
      "midi": 75,
      "hit": false,
      "t": 105363.936,
      "d": 2373.940533333327,
      "v": 108
    },
    {
      "midi": 80,
      "hit": false,
      "t": 105363.936,
      "d": 2373.940533333327,
      "v": 112
    },
    {
      "midi": 70,
      "hit": false,
      "t": 112193.08,
      "d": 966.4458250000025,
      "v": 116
    },
    {
      "midi": 79,
      "hit": false,
      "t": 112193.08,
      "d": 966.4458250000025,
      "v": 106
    },
    {
      "midi": 68,
      "hit": false,
      "t": 113168.672,
      "d": 1809.92640833334,
      "v": 111
    },
    {
      "midi": 72,
      "hit": false,
      "t": 113168.672,
      "d": 1809.92640833334,
      "v": 117
    },
    {
      "midi": 80,
      "hit": false,
      "t": 113168.672,
      "d": 1809.92640833334,
      "v": 109
    },
    {
      "midi": 77,
      "hit": false,
      "t": 120973.40800000001,
      "d": 2368.8593249999976,
      "v": 117
    },
    {
      "midi": 75,
      "hit": false,
      "t": 120973.40800000001,
      "d": 2373.940533333327,
      "v": 109
    },
    {
      "midi": 80,
      "hit": false,
      "t": 120973.40800000001,
      "d": 2373.940533333327,
      "v": 114
    },
    {
      "midi": 68,
      "hit": false,
      "t": 128778.144,
      "d": 1581.2720333333273,
      "v": 101
    },
    {
      "midi": 61,
      "hit": false,
      "t": 128778.144,
      "d": 1591.4344500000007,
      "v": 99
    },
    {
      "midi": 61,
      "hit": false,
      "t": 128778.144,
      "d": 3410.507033333328,
      "v": 1
    },
    {
      "midi": 65,
      "hit": false,
      "t": 128778.144,
      "d": 3410.507033333328,
      "v": 1
    },
    {
      "midi": 68,
      "hit": false,
      "t": 128778.144,
      "d": 3410.507033333328,
      "v": 1
    },
    {
      "midi": 63,
      "hit": false,
      "t": 132192.716,
      "d": 239.83303333332879,
      "v": 1
    },
    {
      "midi": 68,
      "hit": false,
      "t": 132192.716,
      "d": 239.83303333332879,
      "v": 1
    },
    {
      "midi": 67,
      "hit": false,
      "t": 132436.61399999997,
      "d": 727.6290333333309,
      "v": 1
    },
    {
      "midi": 70,
      "hit": false,
      "t": 132436.61399999997,
      "d": 4142.201033333316,
      "v": 1
    },
    {
      "midi": 70,
      "hit": false,
      "t": 132680.512,
      "d": 1515.2163249999867,
      "v": 115
    },
    {
      "midi": 63,
      "hit": false,
      "t": 132680.512,
      "d": 1530.4599499999895,
      "v": 101
    },
    {
      "midi": 63,
      "hit": false,
      "t": 133168.30799999996,
      "d": 3410.507033333328,
      "v": 1
    },
    {
      "midi": 65,
      "hit": false,
      "t": 136582.87999999995,
      "d": 3501.9687833333155,
      "v": 1
    },
    {
      "midi": 61,
      "hit": false,
      "t": 136582.87999999995,
      "d": 3522.2936166666623,
      "v": 1
    },
    {
      "midi": 68,
      "hit": false,
      "t": 139997.45199999993,
      "d": 72.15315833332716,
      "v": 1
    },
    {
      "midi": 63,
      "hit": false,
      "t": 139997.45199999993,
      "d": 4375.936616666673,
      "v": 1
    },
    {
      "midi": 67,
      "hit": false,
      "t": 140241.34999999995,
      "d": 4142.201033333316,
      "v": 1
    },
    {
      "midi": 70,
      "hit": false,
      "t": 140241.34999999995,
      "d": 4142.201033333316,
      "v": 1
    },
    {
      "midi": 80,
      "hit": false,
      "t": 142436.43199999997,
      "d": 600.5988249999937,
      "v": 73
    },
    {
      "midi": 82,
      "hit": false,
      "t": 143168.12599999996,
      "d": 422.7565333333332,
      "v": 73
    },
    {
      "midi": 80,
      "hit": false,
      "t": 143655.92199999996,
      "d": 600.5988249999937,
      "v": 75
    },
    {
      "midi": 61,
      "hit": false,
      "t": 144387.61599999992,
      "d": 3410.507033333328,
      "v": 1
    },
    {
      "midi": 65,
      "hit": false,
      "t": 144387.61599999992,
      "d": 3410.507033333328,
      "v": 1
    },
    {
      "midi": 68,
      "hit": false,
      "t": 144387.61599999992,
      "d": 3410.507033333328,
      "v": 1
    },
    {
      "midi": 63,
      "hit": false,
      "t": 147802.1879999999,
      "d": 239.83303333332879,
      "v": 1
    },
    {
      "midi": 68,
      "hit": false,
      "t": 147802.1879999999,
      "d": 239.83303333332879,
      "v": 1
    },
    {
      "midi": 67,
      "hit": false,
      "t": 148046.0859999999,
      "d": 727.6290333333309,
      "v": 1
    },
    {
      "midi": 70,
      "hit": false,
      "t": 148046.0859999999,
      "d": 4142.201033333316,
      "v": 1
    },
    {
      "midi": 63,
      "hit": false,
      "t": 148777.77999999988,
      "d": 3410.507033333328,
      "v": 1
    },
    {
      "midi": 65,
      "hit": false,
      "t": 152192.35199999987,
      "d": 3501.9687833333446,
      "v": 1
    },
    {
      "midi": 61,
      "hit": false,
      "t": 152192.35199999987,
      "d": 3522.2936166666914,
      "v": 1
    },
    {
      "midi": 68,
      "hit": false,
      "t": 155606.92399999988,
      "d": 72.15315833332716,
      "v": 1
    },
    {
      "midi": 63,
      "hit": false,
      "t": 155606.92399999988,
      "d": 4375.936616666673,
      "v": 1
    },
    {
      "midi": 67,
      "hit": false,
      "t": 155850.8219999999,
      "d": 4142.201033333316,
      "v": 1
    },
    {
      "midi": 70,
      "hit": false,
      "t": 155850.8219999999,
      "d": 4142.201033333316,
      "v": 1
    },
    {
      "midi": 60,
      "hit": false,
      "t": 159997.08799999987,
      "d": 3898.30303333333,
      "v": 1
    },
    {
      "midi": 63,
      "hit": false,
      "t": 159997.08799999987,
      "d": 3898.30303333333,
      "v": 1
    },
    {
      "midi": 68,
      "hit": false,
      "t": 159997.088,
      "d": 1586.3532416666567,
      "v": 91
    },
    {
      "midi": 72,
      "hit": false,
      "t": 159997.088,
      "d": 1596.5156583333155,
      "v": 111
    },
    {
      "midi": 75,
      "hit": false,
      "t": 159997.088,
      "d": 1596.5156583333155,
      "v": 98
    },
    {
      "midi": 68,
      "hit": false,
      "t": 161948.27199999997,
      "d": 956.2834083333146,
      "v": 105
    },
    {
      "midi": 75,
      "hit": false,
      "t": 162192.16999999995,
      "d": 702.2229916666693,
      "v": 110
    },
    {
      "midi": 62,
      "hit": false,
      "t": 163899.45599999986,
      "d": 3898.30303333333,
      "v": 1
    },
    {
      "midi": 65,
      "hit": false,
      "t": 163899.45599999986,
      "d": 3898.30303333333,
      "v": 1
    },
    {
      "midi": 77,
      "hit": false,
      "t": 163899.45599999995,
      "d": 1611.7592833333474,
      "v": 105
    },
    {
      "midi": 74,
      "hit": false,
      "t": 163899.45599999995,
      "d": 1616.8404916666914,
      "v": 110
    },
    {
      "midi": 70,
      "hit": false,
      "t": 163899.45599999995,
      "d": 1708.302241666679,
      "v": 95
    },
    {
      "midi": 70,
      "hit": false,
      "t": 165850.63999999996,
      "d": 1281.480741666659,
      "v": 106
    },
    {
      "midi": 77,
      "hit": false,
      "t": 166094.53799999994,
      "d": 1012.1767000000109,
      "v": 108
    },
    {
      "midi": 61,
      "hit": false,
      "t": 167801.82399999985,
      "d": 3898.30303333333,
      "v": 1
    },
    {
      "midi": 65,
      "hit": false,
      "t": 167801.82399999985,
      "d": 3898.30303333333,
      "v": 1
    },
    {
      "midi": 68,
      "hit": false,
      "t": 167801.82399999994,
      "d": 712.3854083333281,
      "v": 103
    },
    {
      "midi": 73,
      "hit": false,
      "t": 167801.82399999994,
      "d": 737.7914499999897,
      "v": 100
    },
    {
      "midi": 77,
      "hit": false,
      "t": 167801.82399999994,
      "d": 742.8726583333337,
      "v": 104
    },
    {
      "midi": 73,
      "hit": false,
      "t": 169753.00799999994,
      "d": 539.6243249999825,
      "v": 110
    },
    {
      "midi": 80,
      "hit": false,
      "t": 169996.90599999993,
      "d": 260.15786666667555,
      "v": 99
    },
    {
      "midi": 77,
      "hit": false,
      "t": 170728.59999999992,
      "d": 432.91894999999204,
      "v": 116
    },
    {
      "midi": 68,
      "hit": false,
      "t": 170728.59999999992,
      "d": 443.08136666665087,
      "v": 106
    },
    {
      "midi": 73,
      "hit": false,
      "t": 170728.59999999992,
      "d": 448.16257499999483,
      "v": 111
    },
    {
      "midi": 60,
      "hit": false,
      "t": 171704.19199999984,
      "d": 7800.671033333347,
      "v": 1
    },
    {
      "midi": 63,
      "hit": false,
      "t": 171704.19199999984,
      "d": 7800.671033333347,
      "v": 1
    },
    {
      "midi": 68,
      "hit": false,
      "t": 171704.19199999992,
      "d": 3847.4909499999776,
      "v": 95
    },
    {
      "midi": 72,
      "hit": false,
      "t": 171704.19199999992,
      "d": 3847.4909499999776,
      "v": 112
    },
    {
      "midi": 75,
      "hit": false,
      "t": 171704.19199999992,
      "d": 3847.4909499999776,
      "v": 107
    },
    {
      "midi": 68,
      "hit": false,
      "t": 175606.5599999999,
      "d": 1586.3532416666567,
      "v": 96
    },
    {
      "midi": 72,
      "hit": false,
      "t": 175606.5599999999,
      "d": 1596.5156583333155,
      "v": 108
    },
    {
      "midi": 75,
      "hit": false,
      "t": 175606.5599999999,
      "d": 1596.5156583333155,
      "v": 97
    },
    {
      "midi": 68,
      "hit": false,
      "t": 177557.7439999999,
      "d": 956.2834083333146,
      "v": 101
    },
    {
      "midi": 75,
      "hit": false,
      "t": 177801.64199999988,
      "d": 702.2229916666693,
      "v": 107
    },
    {
      "midi": 62,
      "hit": false,
      "t": 179508.92799999984,
      "d": 3898.30303333333,
      "v": 1
    },
    {
      "midi": 65,
      "hit": false,
      "t": 179508.92799999984,
      "d": 3898.30303333333,
      "v": 1
    },
    {
      "midi": 77,
      "hit": false,
      "t": 179508.92799999987,
      "d": 1611.7592833333474,
      "v": 100
    },
    {
      "midi": 74,
      "hit": false,
      "t": 179508.92799999987,
      "d": 1616.8404916666914,
      "v": 117
    },
    {
      "midi": 70,
      "hit": false,
      "t": 179508.92799999987,
      "d": 1708.302241666679,
      "v": 101
    },
    {
      "midi": 70,
      "hit": false,
      "t": 181460.11199999988,
      "d": 1281.480741666659,
      "v": 106
    },
    {
      "midi": 77,
      "hit": false,
      "t": 181704.00999999986,
      "d": 1012.1767000000109,
      "v": 111
    },
    {
      "midi": 61,
      "hit": false,
      "t": 183411.29599999983,
      "d": 3898.30303333333,
      "v": 1
    },
    {
      "midi": 65,
      "hit": false,
      "t": 183411.29599999983,
      "d": 3898.30303333333,
      "v": 1
    },
    {
      "midi": 68,
      "hit": false,
      "t": 183411.29599999986,
      "d": 712.3854083333281,
      "v": 100
    },
    {
      "midi": 73,
      "hit": false,
      "t": 183411.29599999986,
      "d": 737.7914499999897,
      "v": 100
    },
    {
      "midi": 77,
      "hit": false,
      "t": 183411.29599999986,
      "d": 742.8726583333337,
      "v": 98
    },
    {
      "midi": 73,
      "hit": false,
      "t": 185362.47999999986,
      "d": 539.6243249999825,
      "v": 113
    },
    {
      "midi": 80,
      "hit": false,
      "t": 185606.37799999985,
      "d": 260.15786666667555,
      "v": 103
    },
    {
      "midi": 77,
      "hit": false,
      "t": 186338.07199999984,
      "d": 432.91894999999204,
      "v": 110
    },
    {
      "midi": 68,
      "hit": false,
      "t": 186338.07199999984,
      "d": 443.08136666665087,
      "v": 106
    },
    {
      "midi": 73,
      "hit": false,
      "t": 186338.07199999984,
      "d": 448.16257499999483,
      "v": 112
    },
    {
      "midi": 60,
      "hit": false,
      "t": 187313.66399999982,
      "d": 3898.30303333333,
      "v": 1
    },
    {
      "midi": 63,
      "hit": false,
      "t": 187313.66399999982,
      "d": 3898.30303333333,
      "v": 1
    },
    {
      "midi": 68,
      "hit": false,
      "t": 187313.66399999984,
      "d": 3847.4909499999776,
      "v": 99
    },
    {
      "midi": 72,
      "hit": false,
      "t": 187313.66399999984,
      "d": 3847.4909499999776,
      "v": 111
    },
    {
      "midi": 75,
      "hit": false,
      "t": 187313.66399999984,
      "d": 3847.4909499999776,
      "v": 108
    },
    {
      "midi": 68,
      "hit": false,
      "t": 191216.0319999998,
      "d": 3898.30303333333,
      "v": 1
    },
    {
      "midi": 72,
      "hit": false,
      "t": 191216.0319999998,
      "d": 3898.30303333333,
      "v": 1
    },
    {
      "midi": 75,
      "hit": false,
      "t": 191216.0319999998,
      "d": 3898.30303333333,
      "v": 1
    },
    {
      "midi": 80,
      "hit": false,
      "t": 191216.0319999998,
      "d": 3898.30303333333,
      "v": 1
    },
    {
      "midi": 67,
      "hit": false,
      "t": 195118.3999999998,
      "d": 3898.30303333333,
      "v": 1
    },
    {
      "midi": 70,
      "hit": false,
      "t": 195118.3999999998,
      "d": 3898.30303333333,
      "v": 1
    },
    {
      "midi": 75,
      "hit": false,
      "t": 195118.3999999998,
      "d": 3898.30303333333,
      "v": 1
    },
    {
      "midi": 79,
      "hit": false,
      "t": 195118.3999999998,
      "d": 3898.30303333333,
      "v": 1
    },
    {
      "midi": 63,
      "hit": false,
      "t": 199020.76799999978,
      "d": 7800.671033333347,
      "v": 1
    },
    {
      "midi": 65,
      "hit": false,
      "t": 199020.76799999978,
      "d": 7800.671033333347,
      "v": 1
    },
    {
      "midi": 68,
      "hit": false,
      "t": 199020.76799999978,
      "d": 7800.671033333347,
      "v": 1
    },
    {
      "midi": 72,
      "hit": false,
      "t": 199020.76799999978,
      "d": 7800.671033333347,
      "v": 1
    },
    {
      "midi": 75,
      "hit": false,
      "t": 199020.76799999978,
      "d": 7800.671033333347,
      "v": 1
    },
    {
      "midi": 77,
      "hit": false,
      "t": 199020.76799999978,
      "d": 7800.671033333347,
      "v": 1
    },
    {
      "midi": 68,
      "hit": false,
      "t": 206825.50399999978,
      "d": 3898.30303333333,
      "v": 1
    },
    {
      "midi": 72,
      "hit": false,
      "t": 206825.50399999978,
      "d": 3898.30303333333,
      "v": 1
    },
    {
      "midi": 75,
      "hit": false,
      "t": 206825.50399999978,
      "d": 3898.30303333333,
      "v": 1
    },
    {
      "midi": 80,
      "hit": false,
      "t": 206825.50399999978,
      "d": 3898.30303333333,
      "v": 1
    },
    {
      "midi": 67,
      "hit": false,
      "t": 210727.87199999977,
      "d": 3898.30303333333,
      "v": 1
    },
    {
      "midi": 70,
      "hit": false,
      "t": 210727.87199999977,
      "d": 3898.30303333333,
      "v": 1
    },
    {
      "midi": 75,
      "hit": false,
      "t": 210727.87199999977,
      "d": 3898.30303333333,
      "v": 1
    },
    {
      "midi": 79,
      "hit": false,
      "t": 210727.87199999977,
      "d": 3898.30303333333,
      "v": 1
    },
    {
      "midi": 70,
      "hit": false,
      "t": 214630.23999999976,
      "d": 1906.4693666666572,
      "v": 1
    },
    {
      "midi": 58,
      "hit": false,
      "t": 214630.23999999976,
      "d": 1972.5250749999832,
      "v": 1
    },
    {
      "midi": 72,
      "hit": false,
      "t": 214630.23999999976,
      "d": 7729.534116666648,
      "v": 1
    },
    {
      "midi": 77,
      "hit": false,
      "t": 214630.23999999976,
      "d": 7729.534116666648,
      "v": 1
    },
    {
      "midi": 75,
      "hit": false,
      "t": 214630.23999999976,
      "d": 7739.696533333306,
      "v": 1
    },
    {
      "midi": 65,
      "hit": false,
      "t": 214630.23999999976,
      "d": 7749.858949999965,
      "v": 1
    },
    {
      "midi": 56,
      "hit": false,
      "t": 216581.42399999974,
      "d": 5849.487033333309,
      "v": 1
    },
    {
      "midi": 68,
      "hit": false,
      "t": 216581.42399999974,
      "d": 5849.487033333309,
      "v": 1
    },
    {
      "midi": 75,
      "hit": false,
      "t": 218801.91204166648,
      "d": 92.47799166667392,
      "v": 46
    },
    {
      "midi": 70,
      "hit": false,
      "t": 218817.15566666648,
      "d": 72.15315833332716,
      "v": 53
    },
    {
      "midi": 68,
      "hit": false,
      "t": 218827.31808333314,
      "d": 61.99074166666833,
      "v": 44
    },
    {
      "midi": 70,
      "hit": false,
      "t": 219025.48520833315,
      "d": 77.23436666667112,
      "v": 46
    },
    {
      "midi": 75,
      "hit": false,
      "t": 219030.5664166665,
      "d": 92.47799166667392,
      "v": 57
    },
    {
      "midi": 68,
      "hit": false,
      "t": 219040.72883333315,
      "d": 67.0719500000123,
      "v": 46
    },
    {
      "midi": 68,
      "hit": false,
      "t": 219264.30199999982,
      "d": 67.0719500000123,
      "v": 62
    },
    {
      "midi": 70,
      "hit": false,
      "t": 219264.30199999982,
      "d": 82.31557500001509,
      "v": 77
    },
    {
      "midi": 75,
      "hit": false,
      "t": 219264.30199999982,
      "d": 87.39678333335905,
      "v": 72
    },
    {
      "midi": 75,
      "hit": false,
      "t": 219508.19999999984,
      "d": 128.04644999999437,
      "v": 92
    },
    {
      "midi": 70,
      "hit": false,
      "t": 219508.19999999984,
      "d": 148.37128333334113,
      "v": 91
    },
    {
      "midi": 68,
      "hit": false,
      "t": 219513.28120833318,
      "d": 112.80282499999157,
      "v": 91
    },
    {
      "midi": 70,
      "hit": false,
      "t": 219752.09799999985,
      "d": 128.04644999999437,
      "v": 94
    },
    {
      "midi": 68,
      "hit": false,
      "t": 219762.2604166665,
      "d": 87.39678333332995,
      "v": 70
    },
    {
      "midi": 75,
      "hit": false,
      "t": 219762.2604166665,
      "d": 112.80282499999157,
      "v": 78
    },
    {
      "midi": 75,
      "hit": false,
      "t": 219990.91479166652,
      "d": 117.88403333336464,
      "v": 82
    },
    {
      "midi": 70,
      "hit": false,
      "t": 219995.99599999987,
      "d": 128.04645000002347,
      "v": 95
    },
    {
      "midi": 68,
      "hit": false,
      "t": 220001.0772083332,
      "d": 87.39678333332995,
      "v": 72
    },
    {
      "midi": 75,
      "hit": false,
      "t": 220229.73158333322,
      "d": 122.9652416666504,
      "v": 90
    },
    {
      "midi": 70,
      "hit": false,
      "t": 220229.73158333322,
      "d": 128.04644999999437,
      "v": 93
    },
    {
      "midi": 68,
      "hit": false,
      "t": 220239.89399999988,
      "d": 87.39678333332995,
      "v": 70
    },
    {
      "midi": 75,
      "hit": false,
      "t": 220483.7919999999,
      "d": 128.04645000002347,
      "v": 93
    },
    {
      "midi": 70,
      "hit": false,
      "t": 220483.7919999999,
      "d": 148.37128333337023,
      "v": 96
    },
    {
      "midi": 68,
      "hit": false,
      "t": 220488.87320833324,
      "d": 107.72161666667671,
      "v": 72
    },
    {
      "midi": 75,
      "hit": false,
      "t": 220722.6087916666,
      "d": 122.9652416666795,
      "v": 86
    },
    {
      "midi": 70,
      "hit": false,
      "t": 220727.68999999994,
      "d": 122.9652416666795,
      "v": 96
    },
    {
      "midi": 68,
      "hit": false,
      "t": 220737.8524166666,
      "d": 92.47799166667392,
      "v": 72
    },
    {
      "midi": 70,
      "hit": false,
      "t": 220961.4255833333,
      "d": 128.04645000002347,
      "v": 110
    },
    {
      "midi": 68,
      "hit": false,
      "t": 220966.50679166664,
      "d": 92.47799166667392,
      "v": 83
    },
    {
      "midi": 75,
      "hit": false,
      "t": 220966.50679166664,
      "d": 112.80282500002068,
      "v": 99
    },
    {
      "midi": 75,
      "hit": false,
      "t": 221210.40479166666,
      "d": 122.9652416666795,
      "v": 104
    },
    {
      "midi": 70,
      "hit": false,
      "t": 221210.40479166666,
      "d": 128.04645000002347,
      "v": 110
    },
    {
      "midi": 68,
      "hit": false,
      "t": 221215.486,
      "d": 97.55919999998878,
      "v": 87
    },
    {
      "midi": 70,
      "hit": false,
      "t": 221454.30279166668,
      "d": 128.04644999999437,
      "v": 117
    },
    {
      "midi": 75,
      "hit": false,
      "t": 221454.30279166668,
      "d": 133.12765833333833,
      "v": 90
    },
    {
      "midi": 68,
      "hit": false,
      "t": 221459.38400000002,
      "d": 87.39678333332995,
      "v": 89
    },
    {
      "midi": 75,
      "hit": false,
      "t": 221703.282,
      "d": 117.88403333336464,
      "v": 91
    },
    {
      "midi": 70,
      "hit": false,
      "t": 221703.282,
      "d": 133.12765833336744,
      "v": 105
    },
    {
      "midi": 68,
      "hit": false,
      "t": 221708.36320833335,
      "d": 107.72161666667671,
      "v": 88
    },
    {
      "midi": 70,
      "hit": false,
      "t": 221957.3424166667,
      "d": 117.88403333330643,
      "v": 104
    },
    {
      "midi": 75,
      "hit": false,
      "t": 221957.3424166667,
      "d": 117.88403333330643,
      "v": 99
    },
    {
      "midi": 68,
      "hit": false,
      "t": 221967.50483333337,
      "d": 72.15315833332716,
      "v": 90
    },
    {
      "midi": 70,
      "hit": false,
      "t": 222196.15920833335,
      "d": 107.72161666667671,
      "v": 104
    },
    {
      "midi": 68,
      "hit": false,
      "t": 222201.2404166667,
      "d": 97.55919999998878,
      "v": 101
    },
    {
      "midi": 75,
      "hit": false,
      "t": 222201.2404166667,
      "d": 97.55919999998878,
      "v": 88
    },
    {
      "midi": 61,
      "hit": false,
      "t": 222434.9759999997,
      "d": 3410.507033333328,
      "v": 1
    },
    {
      "midi": 65,
      "hit": false,
      "t": 222434.9759999997,
      "d": 3410.507033333328,
      "v": 1
    },
    {
      "midi": 68,
      "hit": false,
      "t": 222434.9759999997,
      "d": 3410.507033333328,
      "v": 1
    },
    {
      "midi": 68,
      "hit": false,
      "t": 222434.97599999997,
      "d": 1581.2720333333418,
      "v": 101
    },
    {
      "midi": 61,
      "hit": false,
      "t": 222434.97599999997,
      "d": 1591.4344500000007,
      "v": 97
    },
    {
      "midi": 63,
      "hit": false,
      "t": 225849.5479999997,
      "d": 239.83303333332879,
      "v": 1
    },
    {
      "midi": 68,
      "hit": false,
      "t": 225849.5479999997,
      "d": 239.83303333332879,
      "v": 1
    },
    {
      "midi": 67,
      "hit": false,
      "t": 226093.44599999968,
      "d": 727.6290333333309,
      "v": 1
    },
    {
      "midi": 70,
      "hit": false,
      "t": 226093.44599999968,
      "d": 4142.201033333316,
      "v": 1
    },
    {
      "midi": 70,
      "hit": false,
      "t": 226337.34399999995,
      "d": 1515.2163249999867,
      "v": 113
    },
    {
      "midi": 63,
      "hit": false,
      "t": 226337.34399999995,
      "d": 1530.4599499999895,
      "v": 103
    },
    {
      "midi": 63,
      "hit": false,
      "t": 226825.13999999966,
      "d": 3410.507033333328,
      "v": 1
    },
    {
      "midi": 65,
      "hit": false,
      "t": 230239.71199999965,
      "d": 3501.9687833333155,
      "v": 1
    },
    {
      "midi": 61,
      "hit": false,
      "t": 230239.71199999965,
      "d": 3522.2936166666623,
      "v": 1
    },
    {
      "midi": 68,
      "hit": false,
      "t": 233654.28399999964,
      "d": 72.15315833332716,
      "v": 1
    },
    {
      "midi": 63,
      "hit": false,
      "t": 233654.28399999964,
      "d": 4375.936616666673,
      "v": 1
    },
    {
      "midi": 67,
      "hit": false,
      "t": 233898.18199999965,
      "d": 4142.201033333316,
      "v": 1
    },
    {
      "midi": 70,
      "hit": false,
      "t": 233898.18199999965,
      "d": 4142.201033333316,
      "v": 1
    },
    {
      "midi": 80,
      "hit": false,
      "t": 236093.26399999994,
      "d": 600.5988249999937,
      "v": 68
    },
    {
      "midi": 82,
      "hit": false,
      "t": 236824.95799999993,
      "d": 422.7565333333332,
      "v": 72
    },
    {
      "midi": 80,
      "hit": false,
      "t": 237312.75399999993,
      "d": 600.5988249999937,
      "v": 71
    },
    {
      "midi": 61,
      "hit": false,
      "t": 238044.44799999963,
      "d": 3410.507033333328,
      "v": 1
    },
    {
      "midi": 65,
      "hit": false,
      "t": 238044.44799999963,
      "d": 3410.507033333328,
      "v": 1
    },
    {
      "midi": 68,
      "hit": false,
      "t": 238044.44799999963,
      "d": 3410.507033333328,
      "v": 1
    },
    {
      "midi": 63,
      "hit": false,
      "t": 241459.0199999996,
      "d": 239.83303333332879,
      "v": 1
    },
    {
      "midi": 68,
      "hit": false,
      "t": 241459.0199999996,
      "d": 239.83303333332879,
      "v": 1
    },
    {
      "midi": 67,
      "hit": false,
      "t": 241702.9179999996,
      "d": 727.6290333333309,
      "v": 1
    },
    {
      "midi": 70,
      "hit": false,
      "t": 241702.9179999996,
      "d": 4142.201033333316,
      "v": 1
    },
    {
      "midi": 63,
      "hit": false,
      "t": 242434.6119999996,
      "d": 3410.507033333328,
      "v": 1
    },
    {
      "midi": 65,
      "hit": false,
      "t": 245849.18399999957,
      "d": 3501.9687833333446,
      "v": 1
    },
    {
      "midi": 61,
      "hit": false,
      "t": 245849.18399999957,
      "d": 3522.2936166666914,
      "v": 1
    },
    {
      "midi": 68,
      "hit": false,
      "t": 249263.7559999996,
      "d": 72.15315833332716,
      "v": 1
    },
    {
      "midi": 63,
      "hit": false,
      "t": 249263.7559999996,
      "d": 4375.936616666673,
      "v": 1
    },
    {
      "midi": 67,
      "hit": false,
      "t": 249507.6539999996,
      "d": 4142.201033333316,
      "v": 1
    },
    {
      "midi": 70,
      "hit": false,
      "t": 249507.6539999996,
      "d": 4142.201033333316,
      "v": 1
    },
    {
      "midi": 68,
      "hit": false,
      "t": 253653.91999999958,
      "d": 3898.30303333333,
      "v": 1
    },
    {
      "midi": 72,
      "hit": false,
      "t": 253653.91999999958,
      "d": 3898.30303333333,
      "v": 1
    },
    {
      "midi": 75,
      "hit": false,
      "t": 253653.91999999958,
      "d": 3898.30303333333,
      "v": 1
    },
    {
      "midi": 80,
      "hit": false,
      "t": 253653.91999999958,
      "d": 3898.30303333333,
      "v": 1
    },
    {
      "midi": 67,
      "hit": false,
      "t": 257556.28799999956,
      "d": 3898.30303333333,
      "v": 1
    },
    {
      "midi": 70,
      "hit": false,
      "t": 257556.28799999956,
      "d": 3898.30303333333,
      "v": 1
    },
    {
      "midi": 75,
      "hit": false,
      "t": 257556.28799999956,
      "d": 3898.30303333333,
      "v": 1
    },
    {
      "midi": 79,
      "hit": false,
      "t": 257556.28799999956,
      "d": 3898.30303333333,
      "v": 1
    },
    {
      "midi": 63,
      "hit": false,
      "t": 261458.65599999955,
      "d": 7800.671033333347,
      "v": 1
    },
    {
      "midi": 65,
      "hit": false,
      "t": 261458.65599999955,
      "d": 7800.671033333347,
      "v": 1
    },
    {
      "midi": 68,
      "hit": false,
      "t": 261458.65599999955,
      "d": 7800.671033333347,
      "v": 1
    },
    {
      "midi": 72,
      "hit": false,
      "t": 261458.65599999955,
      "d": 7800.671033333347,
      "v": 1
    },
    {
      "midi": 75,
      "hit": false,
      "t": 261458.65599999955,
      "d": 7800.671033333347,
      "v": 1
    },
    {
      "midi": 77,
      "hit": false,
      "t": 261458.65599999955,
      "d": 7800.671033333347,
      "v": 1
    },
    {
      "midi": 79,
      "hit": false,
      "t": 268287.79999999993,
      "d": 880.0652833333588,
      "v": 77
    },
    {
      "midi": 82,
      "hit": false,
      "t": 268287.79999999993,
      "d": 880.0652833333588,
      "v": 97
    },
    {
      "midi": 68,
      "hit": false,
      "t": 269263.3919999996,
      "d": 3898.30303333333,
      "v": 1
    },
    {
      "midi": 72,
      "hit": false,
      "t": 269263.3919999996,
      "d": 3898.30303333333,
      "v": 1
    },
    {
      "midi": 75,
      "hit": false,
      "t": 269263.3919999996,
      "d": 3898.30303333333,
      "v": 1
    },
    {
      "midi": 80,
      "hit": false,
      "t": 269263.3919999996,
      "d": 3898.30303333333,
      "v": 1
    },
    {
      "midi": 67,
      "hit": false,
      "t": 273165.7599999996,
      "d": 3898.30303333333,
      "v": 1
    },
    {
      "midi": 70,
      "hit": false,
      "t": 273165.7599999996,
      "d": 3898.30303333333,
      "v": 1
    },
    {
      "midi": 75,
      "hit": false,
      "t": 273165.7599999996,
      "d": 3898.30303333333,
      "v": 1
    },
    {
      "midi": 79,
      "hit": false,
      "t": 273165.7599999996,
      "d": 3898.30303333333,
      "v": 1
    },
    {
      "midi": 63,
      "hit": false,
      "t": 277068.1279999996,
      "d": 7800.671033333347,
      "v": 1
    },
    {
      "midi": 65,
      "hit": false,
      "t": 277068.1279999996,
      "d": 7800.671033333347,
      "v": 1
    },
    {
      "midi": 68,
      "hit": false,
      "t": 277068.1279999996,
      "d": 7800.671033333347,
      "v": 1
    },
    {
      "midi": 72,
      "hit": false,
      "t": 277068.1279999996,
      "d": 7800.671033333347,
      "v": 1
    },
    {
      "midi": 75,
      "hit": false,
      "t": 277068.1279999996,
      "d": 7800.671033333347,
      "v": 1
    },
    {
      "midi": 77,
      "hit": false,
      "t": 277068.1279999996,
      "d": 7800.671033333347,
      "v": 1
    },
    {
      "midi": 68,
      "hit": false,
      "t": 284872.86399999965,
      "d": 3898.30303333333,
      "v": 1
    },
    {
      "midi": 72,
      "hit": false,
      "t": 284872.86399999965,
      "d": 3898.30303333333,
      "v": 1
    },
    {
      "midi": 75,
      "hit": false,
      "t": 284872.86399999965,
      "d": 3898.30303333333,
      "v": 1
    },
    {
      "midi": 80,
      "hit": false,
      "t": 284872.86399999965,
      "d": 3898.30303333333,
      "v": 1
    },
    {
      "midi": 67,
      "hit": false,
      "t": 288775.23199999967,
      "d": 3898.30303333333,
      "v": 1
    },
    {
      "midi": 70,
      "hit": false,
      "t": 288775.23199999967,
      "d": 3898.30303333333,
      "v": 1
    },
    {
      "midi": 75,
      "hit": false,
      "t": 288775.23199999967,
      "d": 3898.30303333333,
      "v": 1
    },
    {
      "midi": 79,
      "hit": false,
      "t": 288775.23199999967,
      "d": 3898.30303333333,
      "v": 1
    },
    {
      "midi": 63,
      "hit": false,
      "t": 292677.5999999997,
      "d": 7800.671033333347,
      "v": 1
    },
    {
      "midi": 65,
      "hit": false,
      "t": 292677.5999999997,
      "d": 7800.671033333347,
      "v": 1
    },
    {
      "midi": 68,
      "hit": false,
      "t": 292677.5999999997,
      "d": 7800.671033333347,
      "v": 1
    },
    {
      "midi": 70,
      "hit": false,
      "t": 292677.5999999997,
      "d": 7800.671033333347,
      "v": 1
    },
    {
      "midi": 72,
      "hit": false,
      "t": 292677.5999999997,
      "d": 7800.671033333347,
      "v": 1
    },
    {
      "midi": 75,
      "hit": false,
      "t": 292677.5999999997,
      "d": 7800.671033333347,
      "v": 1
    },
    {
      "midi": 77,
      "hit": false,
      "t": 292677.5999999997,
      "d": 7800.671033333347,
      "v": 1
    },
    {
      "midi": 68,
      "hit": false,
      "t": 300482.3359999997,
      "d": 3898.30303333333,
      "v": 1
    },
    {
      "midi": 72,
      "hit": false,
      "t": 300482.3359999997,
      "d": 3898.30303333333,
      "v": 1
    },
    {
      "midi": 75,
      "hit": false,
      "t": 300482.3359999997,
      "d": 3898.30303333333,
      "v": 1
    },
    {
      "midi": 80,
      "hit": false,
      "t": 300482.3359999997,
      "d": 3898.30303333333,
      "v": 1
    },
    {
      "midi": 67,
      "hit": false,
      "t": 304384.70399999974,
      "d": 3898.30303333333,
      "v": 1
    },
    {
      "midi": 70,
      "hit": false,
      "t": 304384.70399999974,
      "d": 3898.30303333333,
      "v": 1
    },
    {
      "midi": 75,
      "hit": false,
      "t": 304384.70399999974,
      "d": 3898.30303333333,
      "v": 1
    },
    {
      "midi": 79,
      "hit": false,
      "t": 304384.70399999974,
      "d": 3898.30303333333,
      "v": 1
    },
    {
      "midi": 63,
      "hit": false,
      "t": 308287.07199999975,
      "d": 7800.671033333347,
      "v": 1
    },
    {
      "midi": 65,
      "hit": false,
      "t": 308287.07199999975,
      "d": 7800.671033333347,
      "v": 1
    },
    {
      "midi": 68,
      "hit": false,
      "t": 308287.07199999975,
      "d": 7800.671033333347,
      "v": 1
    },
    {
      "midi": 70,
      "hit": false,
      "t": 308287.07199999975,
      "d": 7800.671033333347,
      "v": 1
    },
    {
      "midi": 72,
      "hit": false,
      "t": 308287.07199999975,
      "d": 7800.671033333347,
      "v": 1
    },
    {
      "midi": 75,
      "hit": false,
      "t": 308287.07199999975,
      "d": 7800.671033333347,
      "v": 1
    },
    {
      "midi": 77,
      "hit": false,
      "t": 308287.07199999975,
      "d": 7800.671033333347,
      "v": 1
    },
    {
      "midi": 68,
      "hit": false,
      "t": 316091.8079999998,
      "d": 7800.671033333347,
      "v": 1
    },
    {
      "midi": 72,
      "hit": false,
      "t": 316091.8079999998,
      "d": 7800.671033333347,
      "v": 1
    },
    {
      "midi": 75,
      "hit": false,
      "t": 316091.8079999998,
      "d": 7800.671033333347,
      "v": 1
    }
  ]
}