{
  "jsonPath": "Rock/Glam Rock/Queen/breakthru.json",
  "path": "Rock\\Glam Rock\\Queen\\Breakthru.mid",
  "name": "Breakthru",
  "difficulty": "Advanced",
  "bpm": 76.00006586672374,
  "notes": [
    {
      "midi": 41,
      "hit": false,
      "t": 2666.6639999999998,
      "d": 1312.4986874999995,
      "v": 112
    },
    {
      "midi": 53,
      "hit": false,
      "t": 2666.6639999999998,
      "d": 1312.4986874999995,
      "v": 112
    },
    {
      "midi": 60,
      "hit": false,
      "t": 2833.3304999999996,
      "d": 1145.8321874999997,
      "v": 112
    },
    {
      "midi": 62,
      "hit": false,
      "t": 2854.1638124999995,
      "d": 1124.9988749999998,
      "v": 112
    },
    {
      "midi": 65,
      "hit": false,
      "t": 2874.9971249999994,
      "d": 1104.1655624999999,
      "v": 112
    },
    {
      "midi": 68,
      "hit": false,
      "t": 2895.8304374999993,
      "d": 1083.33225,
      "v": 112
    },
    {
      "midi": 72,
      "hit": false,
      "t": 2916.6637499999993,
      "d": 1062.4989375,
      "v": 112
    },
    {
      "midi": 30,
      "hit": false,
      "t": 6666.66,
      "d": 1312.4986874999968,
      "v": 112
    },
    {
      "midi": 42,
      "hit": false,
      "t": 6666.66,
      "d": 1312.4986874999968,
      "v": 112
    },
    {
      "midi": 66,
      "hit": false,
      "t": 6999.9929999999995,
      "d": 164.93039062499975,
      "v": 112
    },
    {
      "midi": 61,
      "hit": false,
      "t": 7166.659499999999,
      "d": 164.93039062499975,
      "v": 112
    },
    {
      "midi": 58,
      "hit": false,
      "t": 7333.325999999998,
      "d": 164.93039062499975,
      "v": 112
    },
    {
      "midi": 54,
      "hit": false,
      "t": 7499.992499999998,
      "d": 164.93039062499975,
      "v": 112
    },
    {
      "midi": 58,
      "hit": false,
      "t": 7666.658999999997,
      "d": 164.93039062499975,
      "v": 112
    },
    {
      "midi": 63,
      "hit": false,
      "t": 7833.325499999996,
      "d": 519.0967031250011,
      "v": 112
    },
    {
      "midi": 31,
      "hit": false,
      "t": 7999.991999999997,
      "d": 1354.1653125000012,
      "v": 112
    },
    {
      "midi": 58,
      "hit": false,
      "t": 8333.324999999997,
      "d": 164.93039062500065,
      "v": 112
    },
    {
      "midi": 55,
      "hit": false,
      "t": 8499.991499999998,
      "d": 76.3888124999994,
      "v": 112
    },
    {
      "midi": 63,
      "hit": false,
      "t": 8583.324749999998,
      "d": 76.3888124999994,
      "v": 112
    },
    {
      "midi": 63,
      "hit": false,
      "t": 8666.657999999998,
      "d": 248.26364062499852,
      "v": 112
    },
    {
      "midi": 43,
      "hit": false,
      "t": 8833.324499999997,
      "d": 519.0967031250002,
      "v": 112
    },
    {
      "midi": 58,
      "hit": false,
      "t": 8916.657749999997,
      "d": 76.3888124999994,
      "v": 112
    },
    {
      "midi": 58,
      "hit": false,
      "t": 8999.990999999996,
      "d": 248.26364062500033,
      "v": 112
    },
    {
      "midi": 63,
      "hit": false,
      "t": 9249.990749999997,
      "d": 76.3888124999994,
      "v": 112
    },
    {
      "midi": 32,
      "hit": false,
      "t": 9333.323999999997,
      "d": 159.7220625000009,
      "v": 112
    },
    {
      "midi": 63,
      "hit": false,
      "t": 9333.323999999997,
      "d": 248.26364062500033,
      "v": 112
    },
    {
      "midi": 44,
      "hit": false,
      "t": 9499.990499999998,
      "d": 159.72206249999908,
      "v": 112
    },
    {
      "midi": 58,
      "hit": false,
      "t": 9583.323749999998,
      "d": 76.3888124999994,
      "v": 112
    },
    {
      "midi": 32,
      "hit": false,
      "t": 9666.656999999997,
      "d": 159.72206249999908,
      "v": 112
    },
    {
      "midi": 58,
      "hit": false,
      "t": 9666.656999999997,
      "d": 248.26364062499852,
      "v": 112
    },
    {
      "midi": 44,
      "hit": false,
      "t": 9833.323499999997,
      "d": 159.72206249999908,
      "v": 112
    },
    {
      "midi": 56,
      "hit": false,
      "t": 9916.656749999996,
      "d": 76.3888124999994,
      "v": 112
    },
    {
      "midi": 32,
      "hit": false,
      "t": 9999.989999999996,
      "d": 159.72206249999908,
      "v": 112
    },
    {
      "midi": 56,
      "hit": false,
      "t": 9999.989999999996,
      "d": 246.5275312499998,
      "v": 112
    },
    {
      "midi": 44,
      "hit": false,
      "t": 10166.656499999996,
      "d": 159.72206249999908,
      "v": 112
    },
    {
      "midi": 60,
      "hit": false,
      "t": 10249.989749999995,
      "d": 76.3888124999994,
      "v": 112
    },
    {
      "midi": 32,
      "hit": false,
      "t": 10333.322999999995,
      "d": 159.72206249999908,
      "v": 112
    },
    {
      "midi": 60,
      "hit": false,
      "t": 10333.322999999995,
      "d": 354.16631249999955,
      "v": 112
    },
    {
      "midi": 44,
      "hit": false,
      "t": 10499.989499999994,
      "d": 76.3888124999994,
      "v": 112
    },
    {
      "midi": 43,
      "hit": false,
      "t": 10583.322749999994,
      "d": 76.3888124999994,
      "v": 112
    },
    {
      "midi": 64,
      "hit": false,
      "t": 10666.655999999994,
      "d": 159.7220625000009,
      "v": 112
    },
    {
      "midi": 67,
      "hit": false,
      "t": 10666.655999999994,
      "d": 159.7220625000009,
      "v": 112
    },
    {
      "midi": 72,
      "hit": false,
      "t": 10666.655999999994,
      "d": 159.7220625000009,
      "v": 112
    },
    {
      "midi": 36,
      "hit": false,
      "t": 10666.655999999994,
      "d": 1164.9293906249986,
      "v": 112
    },
    {
      "midi": 48,
      "hit": false,
      "t": 10666.655999999994,
      "d": 1164.9293906249986,
      "v": 112
    },
    {
      "midi": 60,
      "hit": false,
      "t": 10833.322499999995,
      "d": 159.7220625000009,
      "v": 112
    },
    {
      "midi": 64,
      "hit": false,
      "t": 10999.988999999996,
      "d": 159.72206249999908,
      "v": 112
    },
    {
      "midi": 67,
      "hit": false,
      "t": 11166.655499999995,
      "d": 159.72206249999908,
      "v": 112
    },
    {
      "midi": 72,
      "hit": false,
      "t": 11333.321999999995,
      "d": 159.72206249999908,
      "v": 112
    },
    {
      "midi": 70,
      "hit": false,
      "t": 11499.988499999994,
      "d": 159.72206249999908,
      "v": 112
    },
    {
      "midi": 67,
      "hit": false,
      "t": 11666.654999999993,
      "d": 159.72206249999908,
      "v": 112
    },
    {
      "midi": 64,
      "hit": false,
      "t": 11833.321499999993,
      "d": 159.72206249999908,
      "v": 112
    },
    {
      "midi": 31,
      "hit": false,
      "t": 11833.321499999993,
      "d": 1498.2623906249992,
      "v": 112
    },
    {
      "midi": 43,
      "hit": false,
      "t": 11999.987999999992,
      "d": 1312.4986874999995,
      "v": 112
    },
    {
      "midi": 58,
      "hit": false,
      "t": 11999.987999999992,
      "d": 1354.1653124999993,
      "v": 112
    },
    {
      "midi": 62,
      "hit": false,
      "t": 11999.987999999992,
      "d": 1354.1653124999993,
      "v": 112
    },
    {
      "midi": 65,
      "hit": false,
      "t": 11999.987999999992,
      "d": 1354.1653124999993,
      "v": 112
    }
  ]
}