{
  "jsonPath": "Rock/Glam Rock/Queen/good-old-fashioned-lover-boy-2008-digital-remaster.json",
  "path": "Rock\\Glam Rock\\Queen\\Good Old Fashioned Lover Boy (2008 Digital Remaster).mid",
  "name": "Good Old Fashioned Lover Boy (2008 Digital Remaster)",
  "difficulty": "Advanced",
  "bpm": 96,
  "notes": [
    {
      "midi": 67,
      "hit": false,
      "t": 3.2552083333333335,
      "d": 312.5,
      "v": 80
    },
    {
      "midi": 70,
      "hit": false,
      "t": 3.2552083333333335,
      "d": 312.5,
      "v": 80
    },
    {
      "midi": 39,
      "hit": false,
      "t": 3.2552083333333335,
      "d": 2500,
      "v": 80
    },
    {
      "midi": 51,
      "hit": false,
      "t": 3.2552083333333335,
      "d": 2500,
      "v": 80
    },
    {
      "midi": 63,
      "hit": false,
      "t": 312.5,
      "d": 312.5,
      "v": 80
    },
    {
      "midi": 67,
      "hit": false,
      "t": 625,
      "d": 312.5,
      "v": 80
    },
    {
      "midi": 70,
      "hit": false,
      "t": 625,
      "d": 312.5,
      "v": 80
    },
    {
      "midi": 75,
      "hit": false,
      "t": 625,
      "d": 312.5,
      "v": 80
    },
    {
      "midi": 63,
      "hit": false,
      "t": 937.5,
      "d": 312.5,
      "v": 80
    },
    {
      "midi": 67,
      "hit": false,
      "t": 1250,
      "d": 312.5,
      "v": 80
    },
    {
      "midi": 70,
      "hit": false,
      "t": 1250,
      "d": 312.5,
      "v": 80
    },
    {
      "midi": 63,
      "hit": false,
      "t": 1562.5,
      "d": 312.5,
      "v": 80
    },
    {
      "midi": 67,
      "hit": false,
      "t": 1875,
      "d": 312.5,
      "v": 80
    },
    {
      "midi": 70,
      "hit": false,
      "t": 1875,
      "d": 312.5,
      "v": 80
    },
    {
      "midi": 63,
      "hit": false,
      "t": 2187.5,
      "d": 312.5,
      "v": 80
    },
    {
      "midi": 60,
      "hit": false,
      "t": 2500,
      "d": 312.5,
      "v": 80
    },
    {
      "midi": 32,
      "hit": false,
      "t": 2500,
      "d": 1250,
      "v": 80
    },
    {
      "midi": 44,
      "hit": false,
      "t": 2500,
      "d": 1250,
      "v": 80
    },
    {
      "midi": 56,
      "hit": false,
      "t": 2812.5,
      "d": 312.5,
      "v": 80
    },
    {
      "midi": 60,
      "hit": false,
      "t": 3125,
      "d": 312.5,
      "v": 80
    },
    {
      "midi": 63,
      "hit": false,
      "t": 3125,
      "d": 312.5,
      "v": 80
    },
    {
      "midi": 68,
      "hit": false,
      "t": 3125,
      "d": 312.5,
      "v": 80
    },
    {
      "midi": 56,
      "hit": false,
      "t": 3437.5,
      "d": 312.5,
      "v": 80
    },
    {
      "midi": 58,
      "hit": false,
      "t": 3750,
      "d": 312.5,
      "v": 80
    },
    {
      "midi": 62,
      "hit": false,
      "t": 3750,
      "d": 312.5,
      "v": 80
    },
    {
      "midi": 31,
      "hit": false,
      "t": 3750,
      "d": 625,
      "v": 80
    },
    {
      "midi": 43,
      "hit": false,
      "t": 3750,
      "d": 625,
      "v": 80
    },
    {
      "midi": 55,
      "hit": false,
      "t": 4062.5,
      "d": 312.5,
      "v": 80
    },
    {
      "midi": 60,
      "hit": false,
      "t": 4375,
      "d": 312.5,
      "v": 80
    },
    {
      "midi": 63,
      "hit": false,
      "t": 4375,
      "d": 312.5,
      "v": 80
    },
    {
      "midi": 36,
      "hit": false,
      "t": 4375,
      "d": 625,
      "v": 80
    },
    {
      "midi": 48,
      "hit": false,
      "t": 4375,
      "d": 625,
      "v": 80
    },
    {
      "midi": 55,
      "hit": false,
      "t": 4687.5,
      "d": 312.5,
      "v": 80
    },
    {
      "midi": 56,
      "hit": false,
      "t": 5000,
      "d": 312.5,
      "v": 80
    },
    {
      "midi": 60,
      "hit": false,
      "t": 5000,
      "d": 312.5,
      "v": 80
    },
    {
      "midi": 41,
      "hit": false,
      "t": 5000,
      "d": 1875,
      "v": 80
    },
    {
      "midi": 53,
      "hit": false,
      "t": 5312.5,
      "d": 312.5,
      "v": 80
    },
    {
      "midi": 56,
      "hit": false,
      "t": 5625,
      "d": 312.5,
      "v": 80
    },
    {
      "midi": 60,
      "hit": false,
      "t": 5937.5,
      "d": 312.5,
      "v": 80
    },
    {
      "midi": 63,
      "hit": false,
      "t": 6250,
      "d": 312.5,
      "v": 80
    },
    {
      "midi": 60,
      "hit": false,
      "t": 6562.5,
      "d": 312.5,
      "v": 80
    },
    {
      "midi": 46,
      "hit": false,
      "t": 6875,
      "d": 598.9583333333339,
      "v": 80
    },
    {
      "midi": 34,
      "hit": false,
      "t": 6875,
      "d": 625.0000000000009,
      "v": 80
    },
    {
      "midi": 56,
      "hit": false,
      "t": 6927.083333333333,
      "d": 260.4166666666679,
      "v": 80
    },
    {
      "midi": 58,
      "hit": false,
      "t": 6953.125,
      "d": 208.33333333333394,
      "v": 80
    },
    {
      "midi": 62,
      "hit": false,
      "t": 6979.166666666667,
      "d": 182.29166666666697,
      "v": 80
    },
    {
      "midi": 65,
      "hit": false,
      "t": 7005.208333333334,
      "d": 156.25,
      "v": 80
    },
    {
      "midi": 56,
      "hit": false,
      "t": 7187.500000000001,
      "d": 312.5,
      "v": 80
    },
    {
      "midi": 67,
      "hit": false,
      "t": 7500.000000000001,
      "d": 312.5,
      "v": 80
    },
    {
      "midi": 39,
      "hit": false,
      "t": 7500.000000000001,
      "d": 1874.999999999999,
      "v": 80
    },
    {
      "midi": 51,
      "hit": false,
      "t": 7500.000000000001,
      "d": 1874.999999999999,
      "v": 80
    },
    {
      "midi": 63,
      "hit": false,
      "t": 7812.500000000001,
      "d": 312.5,
      "v": 80
    },
    {
      "midi": 67,
      "hit": false,
      "t": 8125.000000000001,
      "d": 312.4999999999991,
      "v": 80
    },
    {
      "midi": 75,
      "hit": false,
      "t": 8125.000000000001,
      "d": 312.4999999999991,
      "v": 80
    },
    {
      "midi": 70,
      "hit": false,
      "t": 8437.5,
      "d": 312.5,
      "v": 80
    },
    {
      "midi": 67,
      "hit": false,
      "t": 8750,
      "d": 312.5,
      "v": 80
    },
    {
      "midi": 63,
      "hit": false,
      "t": 9062.5,
      "d": 312.5,
      "v": 80
    },
    {
      "midi": 46,
      "hit": false,
      "t": 9375,
      "d": 598.9583333333303,
      "v": 80
    },
    {
      "midi": 34,
      "hit": false,
      "t": 9375,
      "d": 624.9999999999964,
      "v": 80
    },
    {
      "midi": 56,
      "hit": false,
      "t": 9401.041666666666,
      "d": 598.9583333333303,
      "v": 80
    },
    {
      "midi": 58,
      "hit": false,
      "t": 9427.083333333332,
      "d": 572.9166666666642,
      "v": 80
    },
    {
      "midi": 62,
      "hit": false,
      "t": 9453.124999999998,
      "d": 546.8749999999982,
      "v": 80
    },
    {
      "midi": 65,
      "hit": false,
      "t": 9479.166666666664,
      "d": 494.79166666666606,
      "v": 80
    },
    {
      "midi": 67,
      "hit": false,
      "t": 9999.999999999996,
      "d": 312.5,
      "v": 80
    },
    {
      "midi": 70,
      "hit": false,
      "t": 9999.999999999996,
      "d": 312.5,
      "v": 80
    },
    {
      "midi": 39,
      "hit": false,
      "t": 9999.999999999996,
      "d": 2500,
      "v": 80
    },
    {
      "midi": 51,
      "hit": false,
      "t": 9999.999999999996,
      "d": 2500,
      "v": 80
    },
    {
      "midi": 63,
      "hit": false,
      "t": 10312.499999999996,
      "d": 312.5,
      "v": 80
    },
    {
      "midi": 67,
      "hit": false,
      "t": 10624.999999999996,
      "d": 312.5,
      "v": 80
    },
    {
      "midi": 70,
      "hit": false,
      "t": 10624.999999999996,
      "d": 312.5,
      "v": 80
    },
    {
      "midi": 75,
      "hit": false,
      "t": 10624.999999999996,
      "d": 312.5,
      "v": 80
    },
    {
      "midi": 63,
      "hit": false,
      "t": 10937.499999999996,
      "d": 312.5,
      "v": 80
    },
    {
      "midi": 67,
      "hit": false,
      "t": 11249.999999999996,
      "d": 312.5,
      "v": 80
    },
    {
      "midi": 70,
      "hit": false,
      "t": 11249.999999999996,
      "d": 312.5,
      "v": 80
    },
    {
      "midi": 63,
      "hit": false,
      "t": 11562.499999999996,
      "d": 312.5,
      "v": 80
    },
    {
      "midi": 67,
      "hit": false,
      "t": 11874.999999999996,
      "d": 312.5,
      "v": 80
    },
    {
      "midi": 70,
      "hit": false,
      "t": 11874.999999999996,
      "d": 312.5,
      "v": 80
    },
    {
      "midi": 63,
      "hit": false,
      "t": 12187.499999999996,
      "d": 312.5,
      "v": 80
    },
    {
      "midi": 60,
      "hit": false,
      "t": 12499.999999999996,
      "d": 312.5,
      "v": 80
    },
    {
      "midi": 32,
      "hit": false,
      "t": 12499.999999999996,
      "d": 1250,
      "v": 80
    },
    {
      "midi": 44,
      "hit": false,
      "t": 12499.999999999996,
      "d": 1250,
      "v": 80
    },
    {
      "midi": 56,
      "hit": false,
      "t": 12812.499999999996,
      "d": 312.5,
      "v": 80
    },
    {
      "midi": 60,
      "hit": false,
      "t": 13124.999999999996,
      "d": 312.5,
      "v": 80
    },
    {
      "midi": 63,
      "hit": false,
      "t": 13124.999999999996,
      "d": 312.5,
      "v": 80
    },
    {
      "midi": 68,
      "hit": false,
      "t": 13124.999999999996,
      "d": 312.5,
      "v": 80
    },
    {
      "midi": 56,
      "hit": false,
      "t": 13437.499999999996,
      "d": 312.5,
      "v": 80
    },
    {
      "midi": 58,
      "hit": false,
      "t": 13749.999999999996,
      "d": 312.5,
      "v": 80
    },
    {
      "midi": 62,
      "hit": false,
      "t": 13749.999999999996,
      "d": 312.5,
      "v": 80
    },
    {
      "midi": 31,
      "hit": false,
      "t": 13749.999999999996,
      "d": 625,
      "v": 80
    },
    {
      "midi": 43,
      "hit": false,
      "t": 13749.999999999996,
      "d": 625,
      "v": 80
    },
    {
      "midi": 55,
      "hit": false,
      "t": 14062.499999999996,
      "d": 312.5,
      "v": 80
    },
    {
      "midi": 60,
      "hit": false,
      "t": 14374.999999999996,
      "d": 312.5,
      "v": 80
    },
    {
      "midi": 63,
      "hit": false,
      "t": 14374.999999999996,
      "d": 312.5,
      "v": 80
    },
    {
      "midi": 36,
      "hit": false,
      "t": 14374.999999999996,
      "d": 625,
      "v": 80
    },
    {
      "midi": 48,
      "hit": false,
      "t": 14374.999999999996,
      "d": 625,
      "v": 80
    },
    {
      "midi": 55,
      "hit": false,
      "t": 14687.499999999996,
      "d": 312.5,
      "v": 80
    },
    {
      "midi": 56,
      "hit": false,
      "t": 14999.999999999996,
      "d": 312.5,
      "v": 80
    },
    {
      "midi": 60,
      "hit": false,
      "t": 14999.999999999996,
      "d": 312.5,
      "v": 80
    },
    {
      "midi": 41,
      "hit": false,
      "t": 14999.999999999996,
      "d": 1250,
      "v": 80
    },
    {
      "midi": 53,
      "hit": false,
      "t": 15312.499999999996,
      "d": 156.25,
      "v": 80
    },
    {
      "midi": 56,
      "hit": false,
      "t": 15468.749999999996,
      "d": 312.5,
      "v": 80
    },
    {
      "midi": 60,
      "hit": false,
      "t": 15781.249999999996,
      "d": 156.25,
      "v": 80
    },
    {
      "midi": 63,
      "hit": false,
      "t": 15937.499999999996,
      "d": 312.5,
      "v": 80
    },
    {
      "midi": 59,
      "hit": false,
      "t": 16249.999999999996,
      "d": 312.5,
      "v": 80
    },
    {
      "midi": 63,
      "hit": false,
      "t": 16249.999999999996,
      "d": 312.5,
      "v": 80
    },
    {
      "midi": 32,
      "hit": false,
      "t": 16249.999999999996,
      "d": 625,
      "v": 80
    },
    {
      "midi": 44,
      "hit": false,
      "t": 16249.999999999996,
      "d": 625,
      "v": 80
    },
    {
      "midi": 56,
      "hit": false,
      "t": 16562.499999999996,
      "d": 312.5,
      "v": 80
    },
    {
      "midi": 58,
      "hit": false,
      "t": 16874.999999999996,
      "d": 312.5,
      "v": 80
    },
    {
      "midi": 62,
      "hit": false,
      "t": 16874.999999999996,
      "d": 312.5,
      "v": 80
    },
    {
      "midi": 65,
      "hit": false,
      "t": 16874.999999999996,
      "d": 312.5,
      "v": 80
    },
    {
      "midi": 46,
      "hit": false,
      "t": 16874.999999999996,
      "d": 598.9583333333321,
      "v": 80
    },
    {
      "midi": 34,
      "hit": false,
      "t": 16874.999999999996,
      "d": 625,
      "v": 80
    },
    {
      "midi": 56,
      "hit": false,
      "t": 17187.499999999996,
      "d": 312.5,
      "v": 80
    },
    {
      "midi": 58,
      "hit": false,
      "t": 17499.999999999996,
      "d": 312.5,
      "v": 80
    },
    {
      "midi": 63,
      "hit": false,
      "t": 17499.999999999996,
      "d": 312.5,
      "v": 80
    },
    {
      "midi": 67,
      "hit": false,
      "t": 17499.999999999996,
      "d": 312.5,
      "v": 80
    },
    {
      "midi": 39,
      "hit": false,
      "t": 17499.999999999996,
      "d": 1250,
      "v": 80
    },
    {
      "midi": 51,
      "hit": false,
      "t": 17499.999999999996,
      "d": 1250,
      "v": 80
    },
    {
      "midi": 63,
      "hit": false,
      "t": 17812.499999999996,
      "d": 156.25,
      "v": 80
    },
    {
      "midi": 75,
      "hit": false,
      "t": 17968.749999999996,
      "d": 312.5,
      "v": 80
    },
    {
      "midi": 72,
      "hit": false,
      "t": 18281.249999999996,
      "d": 156.25,
      "v": 80
    },
    {
      "midi": 70,
      "hit": false,
      "t": 18437.499999999996,
      "d": 312.5,
      "v": 80
    },
    {
      "midi": 67,
      "hit": false,
      "t": 18749.999999999996,
      "d": 625,
      "v": 80
    },
    {
      "midi": 48,
      "hit": false,
      "t": 19062.499999999996,
      "d": 312.5,
      "v": 80
    },
    {
      "midi": 60,
      "hit": false,
      "t": 19062.499999999996,
      "d": 312.5,
      "v": 80
    },
    {
      "midi": 46,
      "hit": false,
      "t": 19374.999999999996,
      "d": 625,
      "v": 80
    },
    {
      "midi": 58,
      "hit": false,
      "t": 19374.999999999996,
      "d": 625,
      "v": 80
    },
    {
      "midi": 62,
      "hit": false,
      "t": 19374.999999999996,
      "d": 625,
      "v": 80
    },
    {
      "midi": 65,
      "hit": false,
      "t": 19374.999999999996,
      "d": 625,
      "v": 80
    },
    {
      "midi": 68,
      "hit": false,
      "t": 19374.999999999996,
      "d": 625,
      "v": 80
    },
    {
      "midi": 70,
      "hit": false,
      "t": 19374.999999999996,
      "d": 625,
      "v": 80
    },
    {
      "midi": 51,
      "hit": false,
      "t": 19999.999999999996,
      "d": 312.5,
      "v": 80
    },
    {
      "midi": 63,
      "hit": false,
      "t": 19999.999999999996,
      "d": 312.5,
      "v": 80
    },
    {
      "midi": 67,
      "hit": false,
      "t": 19999.999999999996,
      "d": 312.5,
      "v": 80
    },
    {
      "midi": 70,
      "hit": false,
      "t": 19999.999999999996,
      "d": 312.5,
      "v": 80
    },
    {
      "midi": 63,
      "hit": false,
      "t": 20312.499999999996,
      "d": 312.5,
      "v": 80
    },
    {
      "midi": 67,
      "hit": false,
      "t": 20312.499999999996,
      "d": 312.5,
      "v": 80
    },
    {
      "midi": 70,
      "hit": false,
      "t": 20312.499999999996,
      "d": 312.5,
      "v": 80
    },
    {
      "midi": 51,
      "hit": false,
      "t": 20624.999999999996,
      "d": 312.5,
      "v": 80
    },
    {
      "midi": 63,
      "hit": false,
      "t": 20624.999999999996,
      "d": 312.5,
      "v": 80
    },
    {
      "midi": 67,
      "hit": false,
      "t": 20624.999999999996,
      "d": 312.5,
      "v": 80
    },
    {
      "midi": 70,
      "hit": false,
      "t": 20624.999999999996,
      "d": 312.5,
      "v": 80
    },
    {
      "midi": 63,
      "hit": false,
      "t": 20937.499999999996,
      "d": 312.5,
      "v": 80
    },
    {
      "midi": 67,
      "hit": false,
      "t": 20937.499999999996,
      "d": 312.5,
      "v": 80
    },
    {
      "midi": 70,
      "hit": false,
      "t": 20937.499999999996,
      "d": 312.5,
      "v": 80
    },
    {
      "midi": 50,
      "hit": false,
      "t": 21249.999999999996,
      "d": 312.5,
      "v": 80
    },
    {
      "midi": 62,
      "hit": false,
      "t": 21249.999999999996,
      "d": 312.5,
      "v": 80
    },
    {
      "midi": 65,
      "hit": false,
      "t": 21249.999999999996,
      "d": 312.5,
      "v": 80
    },
    {
      "midi": 68,
      "hit": false,
      "t": 21249.999999999996,
      "d": 312.5,
      "v": 80
    },
    {
      "midi": 70,
      "hit": false,
      "t": 21249.999999999996,
      "d": 312.5,
      "v": 80
    },
    {
      "midi": 62,
      "hit": false,
      "t": 21562.499999999996,
      "d": 156.25,
      "v": 80
    },
    {
      "midi": 65,
      "hit": false,
      "t": 21562.499999999996,
      "d": 156.25,
      "v": 80
    },
    {
      "midi": 68,
      "hit": false,
      "t": 21562.499999999996,
      "d": 156.25,
      "v": 80
    },
    {
      "midi": 70,
      "hit": false,
      "t": 21562.499999999996,
      "d": 156.25,
      "v": 80
    },
    {
      "midi": 65,
      "hit": false,
      "t": 21718.749999999996,
      "d": 312.5,
      "v": 80
    },
    {
      "midi": 68,
      "hit": false,
      "t": 21718.749999999996,
      "d": 312.5,
      "v": 80
    },
    {
      "midi": 70,
      "hit": false,
      "t": 21718.749999999996,
      "d": 312.5,
      "v": 80
    },
    {
      "midi": 74,
      "hit": false,
      "t": 21718.749999999996,
      "d": 312.5,
      "v": 80
    },
    {
      "midi": 50,
      "hit": false,
      "t": 21874.999999999996,
      "d": 312.5,
      "v": 80
    },
    {
      "midi": 62,
      "hit": false,
      "t": 22031.249999999996,
      "d": 156.25,
      "v": 80
    },
    {
      "midi": 65,
      "hit": false,
      "t": 22031.249999999996,
      "d": 468.75,
      "v": 80
    },
    {
      "midi": 68,
      "hit": false,
      "t": 22031.249999999996,
      "d": 468.75,
      "v": 80
    },
    {
      "midi": 70,
      "hit": false,
      "t": 22031.249999999996,
      "d": 468.75,
      "v": 80
    },
    {
      "midi": 50,
      "hit": false,
      "t": 22187.499999999996,
      "d": 312.5,
      "v": 80
    },
    {
      "midi": 62,
      "hit": false,
      "t": 22187.499999999996,
      "d": 312.5,
      "v": 80
    },
    {
      "midi": 48,
      "hit": false,
      "t": 22499.999999999996,
      "d": 312.5,
      "v": 80
    },
    {
      "midi": 60,
      "hit": false,
      "t": 22499.999999999996,
      "d": 312.5,
      "v": 80
    },
    {
      "midi": 63,
      "hit": false,
      "t": 22499.999999999996,
      "d": 312.5,
      "v": 80
    },
    {
      "midi": 67,
      "hit": false,
      "t": 22499.999999999996,
      "d": 312.5,
      "v": 80
    },
    {
      "midi": 72,
      "hit": false,
      "t": 22499.999999999996,
      "d": 312.5,
      "v": 80
    },
    {
      "midi": 63,
      "hit": false,
      "t": 22812.499999999996,
      "d": 312.5,
      "v": 80
    },
    {
      "midi": 67,
      "hit": false,
      "t": 22812.499999999996,
      "d": 312.5,
      "v": 80
    },
    {
      "midi": 72,
      "hit": false,
      "t": 22812.499999999996,
      "d": 312.5,
      "v": 80
    },
    {
      "midi": 60,
      "hit": false,
      "t": 23124.999999999996,
      "d": 156.25,
      "v": 80
    },
    {
      "midi": 63,
      "hit": false,
      "t": 23124.999999999996,
      "d": 156.25,
      "v": 80
    },
    {
      "midi": 67,
      "hit": false,
      "t": 23124.999999999996,
      "d": 156.25,
      "v": 80
    },
    {
      "midi": 48,
      "hit": false,
      "t": 23124.999999999996,
      "d": 312.5,
      "v": 80
    },
    {
      "midi": 60,
      "hit": false,
      "t": 23281.249999999996,
      "d": 156.25,
      "v": 80
    },
    {
      "midi": 63,
      "hit": false,
      "t": 23281.249999999996,
      "d": 468.75,
      "v": 80
    },
    {
      "midi": 67,
      "hit": false,
      "t": 23281.249999999996,
      "d": 468.75,
      "v": 80
    },
    {
      "midi": 43,
      "hit": false,
      "t": 23749.999999999996,
      "d": 625,
      "v": 80
    },
    {
      "midi": 55,
      "hit": false,
      "t": 23749.999999999996,
      "d": 625,
      "v": 80
    },
    {
      "midi": 62,
      "hit": false,
      "t": 23749.999999999996,
      "d": 625,
      "v": 80
    },
    {
      "midi": 67,
      "hit": false,
      "t": 23749.999999999996,
      "d": 625,
      "v": 80
    },
    {
      "midi": 70,
      "hit": false,
      "t": 23749.999999999996,
      "d": 625,
      "v": 80
    },
    {
      "midi": 44,
      "hit": false,
      "t": 24374.999999999996,
      "d": 625,
      "v": 80
    },
    {
      "midi": 56,
      "hit": false,
      "t": 24374.999999999996,
      "d": 625,
      "v": 80
    },
    {
      "midi": 60,
      "hit": false,
      "t": 24374.999999999996,
      "d": 625,
      "v": 80
    },
    {
      "midi": 63,
      "hit": false,
      "t": 24374.999999999996,
      "d": 625,
      "v": 80
    },
    {
      "midi": 68,
      "hit": false,
      "t": 24374.999999999996,
      "d": 625,
      "v": 80
    },
    {
      "midi": 51,
      "hit": false,
      "t": 24999.999999999996,
      "d": 312.5,
      "v": 80
    },
    {
      "midi": 63,
      "hit": false,
      "t": 24999.999999999996,
      "d": 312.5,
      "v": 80
    },
    {
      "midi": 67,
      "hit": false,
      "t": 24999.999999999996,
      "d": 312.5,
      "v": 80
    },
    {
      "midi": 70,
      "hit": false,
      "t": 24999.999999999996,
      "d": 312.5,
      "v": 80
    },
    {
      "midi": 63,
      "hit": false,
      "t": 25312.499999999996,
      "d": 312.5,
      "v": 80
    },
    {
      "midi": 67,
      "hit": false,
      "t": 25312.499999999996,
      "d": 312.5,
      "v": 80
    },
    {
      "midi": 70,
      "hit": false,
      "t": 25312.499999999996,
      "d": 312.5,
      "v": 80
    },
    {
      "midi": 51,
      "hit": false,
      "t": 25624.999999999996,
      "d": 312.5,
      "v": 80
    },
    {
      "midi": 63,
      "hit": false,
      "t": 25624.999999999996,
      "d": 312.5,
      "v": 80
    },
    {
      "midi": 67,
      "hit": false,
      "t": 25624.999999999996,
      "d": 312.5,
      "v": 80
    },
    {
      "midi": 70,
      "hit": false,
      "t": 25624.999999999996,
      "d": 312.5,
      "v": 80
    },
    {
      "midi": 63,
      "hit": false,
      "t": 25937.499999999996,
      "d": 312.5,
      "v": 80
    },
    {
      "midi": 67,
      "hit": false,
      "t": 25937.499999999996,
      "d": 312.5,
      "v": 80
    },
    {
      "midi": 70,
      "hit": false,
      "t": 25937.499999999996,
      "d": 312.5,
      "v": 80
    },
    {
      "midi": 50,
      "hit": false,
      "t": 26249.999999999996,
      "d": 312.5,
      "v": 80
    },
    {
      "midi": 62,
      "hit": false,
      "t": 26249.999999999996,
      "d": 312.5,
      "v": 80
    },
    {
      "midi": 65,
      "hit": false,
      "t": 26249.999999999996,
      "d": 312.5,
      "v": 80
    },
    {
      "midi": 68,
      "hit": false,
      "t": 26249.999999999996,
      "d": 312.5,
      "v": 80
    },
    {
      "midi": 70,
      "hit": false,
      "t": 26249.999999999996,
      "d": 312.5,
      "v": 80
    },
    {
      "midi": 62,
      "hit": false,
      "t": 26562.499999999996,
      "d": 156.25,
      "v": 80
    },
    {
      "midi": 65,
      "hit": false,
      "t": 26562.499999999996,
      "d": 156.25,
      "v": 80
    },
    {
      "midi": 68,
      "hit": false,
      "t": 26562.499999999996,
      "d": 156.25,
      "v": 80
    },
    {
      "midi": 70,
      "hit": false,
      "t": 26562.499999999996,
      "d": 156.25,
      "v": 80
    },
    {
      "midi": 65,
      "hit": false,
      "t": 26718.749999999996,
      "d": 312.5,
      "v": 80
    },
    {
      "midi": 68,
      "hit": false,
      "t": 26718.749999999996,
      "d": 312.5,
      "v": 80
    },
    {
      "midi": 70,
      "hit": false,
      "t": 26718.749999999996,
      "d": 312.5,
      "v": 80
    },
    {
      "midi": 74,
      "hit": false,
      "t": 26718.749999999996,
      "d": 312.5,
      "v": 80
    },
    {
      "midi": 50,
      "hit": false,
      "t": 26874.999999999996,
      "d": 312.5,
      "v": 80
    },
    {
      "midi": 62,
      "hit": false,
      "t": 27031.249999999996,
      "d": 156.25,
      "v": 80
    },
    {
      "midi": 65,
      "hit": false,
      "t": 27031.249999999996,
      "d": 468.75,
      "v": 80
    },
    {
      "midi": 68,
      "hit": false,
      "t": 27031.249999999996,
      "d": 468.75,
      "v": 80
    },
    {
      "midi": 70,
      "hit": false,
      "t": 27031.249999999996,
      "d": 468.75,
      "v": 80
    },
    {
      "midi": 50,
      "hit": false,
      "t": 27187.499999999996,
      "d": 312.5,
      "v": 80
    },
    {
      "midi": 62,
      "hit": false,
      "t": 27187.499999999996,
      "d": 312.5,
      "v": 80
    },
    {
      "midi": 48,
      "hit": false,
      "t": 27499.999999999996,
      "d": 312.5,
      "v": 80
    },
    {
      "midi": 60,
      "hit": false,
      "t": 27499.999999999996,
      "d": 312.5,
      "v": 80
    },
    {
      "midi": 63,
      "hit": false,
      "t": 27499.999999999996,
      "d": 312.5,
      "v": 80
    },
    {
      "midi": 67,
      "hit": false,
      "t": 27499.999999999996,
      "d": 312.5,
      "v": 80
    },
    {
      "midi": 72,
      "hit": false,
      "t": 27499.999999999996,
      "d": 312.5,
      "v": 80
    },
    {
      "midi": 63,
      "hit": false,
      "t": 27812.499999999996,
      "d": 312.5,
      "v": 80
    },
    {
      "midi": 67,
      "hit": false,
      "t": 27812.499999999996,
      "d": 312.5,
      "v": 80
    },
    {
      "midi": 72,
      "hit": false,
      "t": 27812.499999999996,
      "d": 312.5,
      "v": 80
    },
    {
      "midi": 48,
      "hit": false,
      "t": 28124.999999999996,
      "d": 312.5,
      "v": 80
    },
    {
      "midi": 60,
      "hit": false,
      "t": 28124.999999999996,
      "d": 312.5,
      "v": 80
    },
    {
      "midi": 63,
      "hit": false,
      "t": 28124.999999999996,
      "d": 312.5,
      "v": 80
    },
    {
      "midi": 67,
      "hit": false,
      "t": 28124.999999999996,
      "d": 312.5,
      "v": 80
    },
    {
      "midi": 60,
      "hit": false,
      "t": 28437.499999999996,
      "d": 312.5,
      "v": 80
    },
    {
      "midi": 63,
      "hit": false,
      "t": 28437.499999999996,
      "d": 312.5,
      "v": 80
    },
    {
      "midi": 67,
      "hit": false,
      "t": 28437.499999999996,
      "d": 312.5,
      "v": 80
    },
    {
      "midi": 47,
      "hit": false,
      "t": 28749.999999999996,
      "d": 312.5,
      "v": 80
    },
    {
      "midi": 59,
      "hit": false,
      "t": 28749.999999999996,
      "d": 312.5,
      "v": 80
    },
    {
      "midi": 62,
      "hit": false,
      "t": 28749.999999999996,
      "d": 312.5,
      "v": 80
    },
    {
      "midi": 65,
      "hit": false,
      "t": 28749.999999999996,
      "d": 312.5,
      "v": 80
    },
    {
      "midi": 67,
      "hit": false,
      "t": 28749.999999999996,
      "d": 312.5,
      "v": 80
    },
    {
      "midi": 59,
      "hit": false,
      "t": 29062.499999999996,
      "d": 156.25,
      "v": 80
    },
    {
      "midi": 62,
      "hit": false,
      "t": 29062.499999999996,
      "d": 156.25,
      "v": 80
    },
    {
      "midi": 65,
      "hit": false,
      "t": 29062.499999999996,
      "d": 156.25,
      "v": 80
    },
    {
      "midi": 67,
      "hit": false,
      "t": 29062.499999999996,
      "d": 156.25,
      "v": 80
    },
    {
      "midi": 62,
      "hit": false,
      "t": 29218.749999999996,
      "d": 312.5,
      "v": 80
    },
    {
      "midi": 65,
      "hit": false,
      "t": 29218.749999999996,
      "d": 312.5,
      "v": 80
    },
    {
      "midi": 67,
      "hit": false,
      "t": 29218.749999999996,
      "d": 312.5,
      "v": 80
    },
    {
      "midi": 59,
      "hit": false,
      "t": 29374.999999999996,
      "d": 156.25,
      "v": 80
    },
    {
      "midi": 47,
      "hit": false,
      "t": 29374.999999999996,
      "d": 312.5,
      "v": 80
    },
    {
      "midi": 59,
      "hit": false,
      "t": 29531.249999999996,
      "d": 156.25,
      "v": 80
    },
    {
      "midi": 62,
      "hit": false,
      "t": 29531.249999999996,
      "d": 468.75,
      "v": 80
    },
    {
      "midi": 65,
      "hit": false,
      "t": 29531.249999999996,
      "d": 468.75,
      "v": 80
    },
    {
      "midi": 67,
      "hit": false,
      "t": 29531.249999999996,
      "d": 468.75,
      "v": 80
    },
    {
      "midi": 47,
      "hit": false,
      "t": 29687.499999999996,
      "d": 312.5,
      "v": 80
    },
    {
      "midi": 59,
      "hit": false,
      "t": 29687.499999999996,
      "d": 312.5,
      "v": 80
    },
    {
      "midi": 48,
      "hit": false,
      "t": 29999.999999999996,
      "d": 312.5,
      "v": 80
    },
    {
      "midi": 60,
      "hit": false,
      "t": 29999.999999999996,
      "d": 312.5,
      "v": 80
    },
    {
      "midi": 63,
      "hit": false,
      "t": 29999.999999999996,
      "d": 312.5,
      "v": 80
    },
    {
      "midi": 67,
      "hit": false,
      "t": 29999.999999999996,
      "d": 312.5,
      "v": 80
    },
    {
      "midi": 60,
      "hit": false,
      "t": 30312.499999999996,
      "d": 312.5,
      "v": 80
    },
    {
      "midi": 63,
      "hit": false,
      "t": 30312.499999999996,
      "d": 312.5,
      "v": 80
    },
    {
      "midi": 67,
      "hit": false,
      "t": 30312.499999999996,
      "d": 312.5,
      "v": 80
    },
    {
      "midi": 43,
      "hit": false,
      "t": 30624.999999999996,
      "d": 312.5,
      "v": 80
    },
    {
      "midi": 55,
      "hit": false,
      "t": 30624.999999999996,
      "d": 312.5,
      "v": 80
    },
    {
      "midi": 58,
      "hit": false,
      "t": 30624.999999999996,
      "d": 312.5,
      "v": 80
    },
    {
      "midi": 62,
      "hit": false,
      "t": 30624.999999999996,
      "d": 312.5,
      "v": 80
    },
    {
      "midi": 55,
      "hit": false,
      "t": 30937.499999999996,
      "d": 312.5,
      "v": 80
    },
    {
      "midi": 58,
      "hit": false,
      "t": 30937.499999999996,
      "d": 312.5,
      "v": 80
    },
    {
      "midi": 62,
      "hit": false,
      "t": 30937.499999999996,
      "d": 312.5,
      "v": 80
    },
    {
      "midi": 48,
      "hit": false,
      "t": 31249.999999999996,
      "d": 312.5,
      "v": 80
    },
    {
      "midi": 60,
      "hit": false,
      "t": 31249.999999999996,
      "d": 312.5,
      "v": 80
    },
    {
      "midi": 63,
      "hit": false,
      "t": 31249.999999999996,
      "d": 312.5,
      "v": 80
    },
    {
      "midi": 67,
      "hit": false,
      "t": 31249.999999999996,
      "d": 312.5,
      "v": 80
    },
    {
      "midi": 60,
      "hit": false,
      "t": 31562.499999999996,
      "d": 156.25,
      "v": 80
    },
    {
      "midi": 63,
      "hit": false,
      "t": 31562.499999999996,
      "d": 156.25,
      "v": 80
    },
    {
      "midi": 67,
      "hit": false,
      "t": 31562.499999999996,
      "d": 156.25,
      "v": 80
    },
    {
      "midi": 58,
      "hit": false,
      "t": 31718.749999999996,
      "d": 312.5,
      "v": 80
    },
    {
      "midi": 62,
      "hit": false,
      "t": 31718.749999999996,
      "d": 312.5,
      "v": 80
    },
    {
      "midi": 55,
      "hit": false,
      "t": 31874.999999999996,
      "d": 156.25,
      "v": 80
    },
    {
      "midi": 43,
      "hit": false,
      "t": 31874.999999999996,
      "d": 312.5,
      "v": 80
    },
    {
      "midi": 55,
      "hit": false,
      "t": 32031.249999999996,
      "d": 156.25,
      "v": 80
    },
    {
      "midi": 58,
      "hit": false,
      "t": 32031.249999999996,
      "d": 468.75,
      "v": 80
    },
    {
      "midi": 62,
      "hit": false,
      "t": 32031.249999999996,
      "d": 468.75,
      "v": 80
    },
    {
      "midi": 43,
      "hit": false,
      "t": 32187.499999999996,
      "d": 312.5,
      "v": 80
    },
    {
      "midi": 55,
      "hit": false,
      "t": 32187.499999999996,
      "d": 312.5,
      "v": 80
    },
    {
      "midi": 68,
      "hit": false,
      "t": 32499.999999999996,
      "d": 312.50000000000364,
      "v": 80
    },
    {
      "midi": 63,
      "hit": false,
      "t": 32499.999999999996,
      "d": 937.5000000000036,
      "v": 80
    },
    {
      "midi": 53,
      "hit": false,
      "t": 32499.999999999996,
      "d": 1250.0000000000036,
      "v": 80
    },
    {
      "midi": 60,
      "hit": false,
      "t": 32499.999999999996,
      "d": 1250.0000000000036,
      "v": 80
    },
    {
      "midi": 65,
      "hit": false,
      "t": 32499.999999999996,
      "d": 1250.0000000000036,
      "v": 80
    },
    {
      "midi": 68,
      "hit": false,
      "t": 32812.5,
      "d": 208.33333333333576,
      "v": 80
    },
    {
      "midi": 68,
      "hit": false,
      "t": 33020.833333333336,
      "d": 104.16666666666424,
      "v": 80
    },
    {
      "midi": 68,
      "hit": false,
      "t": 33125,
      "d": 312.5,
      "v": 80
    },
    {
      "midi": 63,
      "hit": false,
      "t": 33437.5,
      "d": 312.5,
      "v": 80
    },
    {
      "midi": 59,
      "hit": false,
      "t": 33750,
      "d": 312.5,
      "v": 80
    },
    {
      "midi": 63,
      "hit": false,
      "t": 33750,
      "d": 312.5,
      "v": 80
    },
    {
      "midi": 44,
      "hit": false,
      "t": 33750,
      "d": 625,
      "v": 80
    },
    {
      "midi": 56,
      "hit": false,
      "t": 34062.5,
      "d": 312.5,
      "v": 80
    },
    {
      "midi": 58,
      "hit": false,
      "t": 34375,
      "d": 312.5,
      "v": 80
    },
    {
      "midi": 62,
      "hit": false,
      "t": 34375,
      "d": 312.5,
      "v": 80
    },
    {
      "midi": 65,
      "hit": false,
      "t": 34375,
      "d": 312.5,
      "v": 80
    },
    {
      "midi": 46,
      "hit": false,
      "t": 34375,
      "d": 625,
      "v": 80
    },
    {
      "midi": 56,
      "hit": false,
      "t": 34687.5,
      "d": 312.5,
      "v": 80
    },
    {
      "midi": 63,
      "hit": false,
      "t": 35000,
      "d": 312.5,
      "v": 80
    },
    {
      "midi": 67,
      "hit": false,
      "t": 35000,
      "d": 312.5,
      "v": 80
    },
    {
      "midi": 51,
      "hit": false,
      "t": 35000,
      "d": 1562.5,
      "v": 80
    },
    {
      "midi": 63,
      "hit": false,
      "t": 35312.5,
      "d": 156.25,
      "v": 80
    },
    {
      "midi": 75,
      "hit": false,
      "t": 35468.75,
      "d": 312.5,
      "v": 80
    },
    {
      "midi": 72,
      "hit": false,
      "t": 35781.25,
      "d": 156.25,
      "v": 80
    },
    {
      "midi": 70,
      "hit": false,
      "t": 35937.5,
      "d": 312.5,
      "v": 80
    },
    {
      "midi": 63,
      "hit": false,
      "t": 36250,
      "d": 312.5,
      "v": 80
    },
    {
      "midi": 67,
      "hit": false,
      "t": 36250,
      "d": 1250,
      "v": 80
    },
    {
      "midi": 50,
      "hit": false,
      "t": 36562.5,
      "d": 312.5,
      "v": 80
    },
    {
      "midi": 62,
      "hit": false,
      "t": 36562.5,
      "d": 312.5,
      "v": 80
    },
    {
      "midi": 48,
      "hit": false,
      "t": 36875,
      "d": 312.5,
      "v": 80
    },
    {
      "midi": 60,
      "hit": false,
      "t": 36875,
      "d": 312.5,
      "v": 80
    },
    {
      "midi": 46,
      "hit": false,
      "t": 37187.5,
      "d": 312.5,
      "v": 80
    },
    {
      "midi": 58,
      "hit": false,
      "t": 37187.5,
      "d": 312.5,
      "v": 80
    },
    {
      "midi": 44,
      "hit": false,
      "t": 37500,
      "d": 312.5,
      "v": 80
    },
    {
      "midi": 56,
      "hit": false,
      "t": 37500,
      "d": 312.5,
      "v": 80
    },
    {
      "midi": 59,
      "hit": false,
      "t": 37500,
      "d": 312.5,
      "v": 80
    },
    {
      "midi": 63,
      "hit": false,
      "t": 37500,
      "d": 312.5,
      "v": 80
    },
    {
      "midi": 56,
      "hit": false,
      "t": 37812.5,
      "d": 312.5,
      "v": 80
    },
    {
      "midi": 59,
      "hit": false,
      "t": 37812.5,
      "d": 312.5,
      "v": 80
    },
    {
      "midi": 63,
      "hit": false,
      "t": 37812.5,
      "d": 312.5,
      "v": 80
    },
    {
      "midi": 44,
      "hit": false,
      "t": 38125,
      "d": 312.5,
      "v": 80
    },
    {
      "midi": 56,
      "hit": false,
      "t": 38125,
      "d": 312.5,
      "v": 80
    },
    {
      "midi": 59,
      "hit": false,
      "t": 38125,
      "d": 312.5,
      "v": 80
    },
    {
      "midi": 63,
      "hit": false,
      "t": 38125,
      "d": 312.5,
      "v": 80
    },
    {
      "midi": 56,
      "hit": false,
      "t": 38437.5,
      "d": 312.5,
      "v": 80
    },
    {
      "midi": 59,
      "hit": false,
      "t": 38437.5,
      "d": 312.5,
      "v": 80
    },
    {
      "midi": 63,
      "hit": false,
      "t": 38437.5,
      "d": 312.5,
      "v": 80
    },
    {
      "midi": 44,
      "hit": false,
      "t": 38750,
      "d": 312.5,
      "v": 80
    },
    {
      "midi": 56,
      "hit": false,
      "t": 38750,
      "d": 312.5,
      "v": 80
    },
    {
      "midi": 59,
      "hit": false,
      "t": 38750,
      "d": 312.5,
      "v": 80
    },
    {
      "midi": 63,
      "hit": false,
      "t": 38750,
      "d": 312.5,
      "v": 80
    },
    {
      "midi": 56,
      "hit": false,
      "t": 39062.5,
      "d": 312.5,
      "v": 80
    },
    {
      "midi": 59,
      "hit": false,
      "t": 39062.5,
      "d": 312.5,
      "v": 80
    },
    {
      "midi": 63,
      "hit": false,
      "t": 39062.5,
      "d": 312.5,
      "v": 80
    },
    {
      "midi": 44,
      "hit": false,
      "t": 39375,
      "d": 312.5,
      "v": 80
    },
    {
      "midi": 56,
      "hit": false,
      "t": 39375,
      "d": 312.5,
      "v": 80
    },
    {
      "midi": 59,
      "hit": false,
      "t": 39375,
      "d": 312.5,
      "v": 80
    },
    {
      "midi": 63,
      "hit": false,
      "t": 39375,
      "d": 312.5,
      "v": 80
    },
    {
      "midi": 56,
      "hit": false,
      "t": 39687.5,
      "d": 312.5,
      "v": 80
    },
    {
      "midi": 59,
      "hit": false,
      "t": 39687.5,
      "d": 312.5,
      "v": 80
    },
    {
      "midi": 63,
      "hit": false,
      "t": 39687.5,
      "d": 312.5,
      "v": 80
    },
    {
      "midi": 43,
      "hit": false,
      "t": 40000,
      "d": 312.5,
      "v": 80
    },
    {
      "midi": 55,
      "hit": false,
      "t": 40000,
      "d": 312.5,
      "v": 80
    },
    {
      "midi": 58,
      "hit": false,
      "t": 40000,
      "d": 312.5,
      "v": 80
    },
    {
      "midi": 63,
      "hit": false,
      "t": 40000,
      "d": 312.5,
      "v": 80
    },
    {
      "midi": 55,
      "hit": false,
      "t": 40312.5,
      "d": 312.5,
      "v": 80
    },
    {
      "midi": 58,
      "hit": false,
      "t": 40312.5,
      "d": 312.5,
      "v": 80
    },
    {
      "midi": 63,
      "hit": false,
      "t": 40312.5,
      "d": 312.5,
      "v": 80
    },
    {
      "midi": 43,
      "hit": false,
      "t": 40625,
      "d": 312.5,
      "v": 80
    },
    {
      "midi": 55,
      "hit": false,
      "t": 40625,
      "d": 312.5,
      "v": 80
    },
    {
      "midi": 58,
      "hit": false,
      "t": 40625,
      "d": 312.5,
      "v": 80
    },
    {
      "midi": 63,
      "hit": false,
      "t": 40625,
      "d": 312.5,
      "v": 80
    },
    {
      "midi": 55,
      "hit": false,
      "t": 40937.5,
      "d": 312.5,
      "v": 80
    },
    {
      "midi": 58,
      "hit": false,
      "t": 40937.5,
      "d": 312.5,
      "v": 80
    },
    {
      "midi": 63,
      "hit": false,
      "t": 40937.5,
      "d": 312.5,
      "v": 80
    },
    {
      "midi": 43,
      "hit": false,
      "t": 41250,
      "d": 312.5,
      "v": 80
    },
    {
      "midi": 55,
      "hit": false,
      "t": 41250,
      "d": 312.5,
      "v": 80
    },
    {
      "midi": 58,
      "hit": false,
      "t": 41250,
      "d": 312.5,
      "v": 80
    },
    {
      "midi": 61,
      "hit": false,
      "t": 41250,
      "d": 312.5,
      "v": 80
    },
    {
      "midi": 64,
      "hit": false,
      "t": 41250,
      "d": 312.5,
      "v": 80
    },
    {
      "midi": 55,
      "hit": false,
      "t": 41562.5,
      "d": 312.5,
      "v": 80
    },
    {
      "midi": 58,
      "hit": false,
      "t": 41562.5,
      "d": 312.5,
      "v": 80
    },
    {
      "midi": 63,
      "hit": false,
      "t": 41562.5,
      "d": 312.5,
      "v": 80
    },
    {
      "midi": 43,
      "hit": false,
      "t": 41875,
      "d": 312.5,
      "v": 80
    },
    {
      "midi": 55,
      "hit": false,
      "t": 41875,
      "d": 312.5,
      "v": 80
    },
    {
      "midi": 58,
      "hit": false,
      "t": 41875,
      "d": 312.5,
      "v": 80
    },
    {
      "midi": 61,
      "hit": false,
      "t": 41875,
      "d": 312.5,
      "v": 80
    },
    {
      "midi": 64,
      "hit": false,
      "t": 41875,
      "d": 312.5,
      "v": 80
    },
    {
      "midi": 55,
      "hit": false,
      "t": 42187.5,
      "d": 312.5,
      "v": 80
    },
    {
      "midi": 58,
      "hit": false,
      "t": 42187.5,
      "d": 312.5,
      "v": 80
    },
    {
      "midi": 63,
      "hit": false,
      "t": 42187.5,
      "d": 312.5,
      "v": 80
    },
    {
      "midi": 44,
      "hit": false,
      "t": 42500,
      "d": 312.5,
      "v": 80
    },
    {
      "midi": 56,
      "hit": false,
      "t": 42500,
      "d": 312.5,
      "v": 80
    },
    {
      "midi": 59,
      "hit": false,
      "t": 42500,
      "d": 312.5,
      "v": 80
    },
    {
      "midi": 63,
      "hit": false,
      "t": 42500,
      "d": 312.5,
      "v": 80
    },
    {
      "midi": 56,
      "hit": false,
      "t": 42812.5,
      "d": 312.5,
      "v": 80
    },
    {
      "midi": 59,
      "hit": false,
      "t": 42812.5,
      "d": 312.5,
      "v": 80
    },
    {
      "midi": 63,
      "hit": false,
      "t": 42812.5,
      "d": 312.5,
      "v": 80
    },
    {
      "midi": 44,
      "hit": false,
      "t": 43125,
      "d": 312.5,
      "v": 80
    },
    {
      "midi": 56,
      "hit": false,
      "t": 43125,
      "d": 312.5,
      "v": 80
    },
    {
      "midi": 59,
      "hit": false,
      "t": 43125,
      "d": 312.5,
      "v": 80
    },
    {
      "midi": 63,
      "hit": false,
      "t": 43125,
      "d": 312.5,
      "v": 80
    },
    {
      "midi": 56,
      "hit": false,
      "t": 43437.5,
      "d": 312.5,
      "v": 80
    },
    {
      "midi": 59,
      "hit": false,
      "t": 43437.5,
      "d": 312.5,
      "v": 80
    },
    {
      "midi": 63,
      "hit": false,
      "t": 43437.5,
      "d": 312.5,
      "v": 80
    },
    {
      "midi": 42,
      "hit": false,
      "t": 43750,
      "d": 312.5,
      "v": 80
    },
    {
      "midi": 54,
      "hit": false,
      "t": 43750,
      "d": 312.5,
      "v": 80
    },
    {
      "midi": 58,
      "hit": false,
      "t": 43750,
      "d": 312.5,
      "v": 80
    },
    {
      "midi": 61,
      "hit": false,
      "t": 43750,
      "d": 312.5,
      "v": 80
    },
    {
      "midi": 64,
      "hit": false,
      "t": 43750,
      "d": 312.5,
      "v": 80
    },
    {
      "midi": 54,
      "hit": false,
      "t": 44062.5,
      "d": 156.25,
      "v": 80
    },
    {
      "midi": 58,
      "hit": false,
      "t": 44218.75,
      "d": 312.5,
      "v": 80
    },
    {
      "midi": 61,
      "hit": false,
      "t": 44218.75,
      "d": 312.5,
      "v": 80
    },
    {
      "midi": 64,
      "hit": false,
      "t": 44218.75,
      "d": 312.5,
      "v": 80
    },
    {
      "midi": 54,
      "hit": false,
      "t": 44375,
      "d": 156.25,
      "v": 80
    },
    {
      "midi": 42,
      "hit": false,
      "t": 44375,
      "d": 312.5,
      "v": 80
    },
    {
      "midi": 54,
      "hit": false,
      "t": 44531.25,
      "d": 156.25,
      "v": 80
    },
    {
      "midi": 42,
      "hit": false,
      "t": 44687.5,
      "d": 312.5,
      "v": 80
    },
    {
      "midi": 54,
      "hit": false,
      "t": 44687.5,
      "d": 312.5,
      "v": 80
    },
    {
      "midi": 58,
      "hit": false,
      "t": 44687.5,
      "d": 312.5,
      "v": 80
    },
    {
      "midi": 61,
      "hit": false,
      "t": 44687.5,
      "d": 312.5,
      "v": 80
    },
    {
      "midi": 64,
      "hit": false,
      "t": 44687.5,
      "d": 312.5,
      "v": 80
    },
    {
      "midi": 47,
      "hit": false,
      "t": 45000,
      "d": 312.5,
      "v": 80
    },
    {
      "midi": 59,
      "hit": false,
      "t": 45000,
      "d": 312.5,
      "v": 80
    },
    {
      "midi": 63,
      "hit": false,
      "t": 45000,
      "d": 312.5,
      "v": 80
    },
    {
      "midi": 66,
      "hit": false,
      "t": 45000,
      "d": 312.5,
      "v": 80
    },
    {
      "midi": 59,
      "hit": false,
      "t": 45312.5,
      "d": 312.5,
      "v": 80
    },
    {
      "midi": 63,
      "hit": false,
      "t": 45312.5,
      "d": 312.5,
      "v": 80
    },
    {
      "midi": 66,
      "hit": false,
      "t": 45312.5,
      "d": 312.5,
      "v": 80
    },
    {
      "midi": 47,
      "hit": false,
      "t": 45625,
      "d": 312.5,
      "v": 80
    },
    {
      "midi": 59,
      "hit": false,
      "t": 45625,
      "d": 312.5,
      "v": 80
    },
    {
      "midi": 63,
      "hit": false,
      "t": 45625,
      "d": 312.5,
      "v": 80
    },
    {
      "midi": 66,
      "hit": false,
      "t": 45625,
      "d": 312.5,
      "v": 80
    },
    {
      "midi": 59,
      "hit": false,
      "t": 45937.5,
      "d": 312.5,
      "v": 80
    },
    {
      "midi": 63,
      "hit": false,
      "t": 45937.5,
      "d": 312.5,
      "v": 80
    },
    {
      "midi": 66,
      "hit": false,
      "t": 45937.5,
      "d": 312.5,
      "v": 80
    },
    {
      "midi": 42,
      "hit": false,
      "t": 46250,
      "d": 312.5,
      "v": 80
    },
    {
      "midi": 54,
      "hit": false,
      "t": 46250,
      "d": 312.5,
      "v": 80
    },
    {
      "midi": 58,
      "hit": false,
      "t": 46250,
      "d": 312.5,
      "v": 80
    },
    {
      "midi": 61,
      "hit": false,
      "t": 46250,
      "d": 312.5,
      "v": 80
    },
    {
      "midi": 64,
      "hit": false,
      "t": 46250,
      "d": 312.5,
      "v": 80
    },
    {
      "midi": 54,
      "hit": false,
      "t": 46562.5,
      "d": 156.25,
      "v": 80
    },
    {
      "midi": 58,
      "hit": false,
      "t": 46718.75,
      "d": 312.5,
      "v": 80
    },
    {
      "midi": 61,
      "hit": false,
      "t": 46718.75,
      "d": 312.5,
      "v": 80
    },
    {
      "midi": 64,
      "hit": false,
      "t": 46718.75,
      "d": 312.5,
      "v": 80
    },
    {
      "midi": 54,
      "hit": false,
      "t": 46875,
      "d": 156.25,
      "v": 80
    },
    {
      "midi": 42,
      "hit": false,
      "t": 46875,
      "d": 312.5,
      "v": 80
    },
    {
      "midi": 54,
      "hit": false,
      "t": 47031.25,
      "d": 156.25,
      "v": 80
    },
    {
      "midi": 42,
      "hit": false,
      "t": 47187.5,
      "d": 312.5,
      "v": 80
    },
    {
      "midi": 54,
      "hit": false,
      "t": 47187.5,
      "d": 312.5,
      "v": 80
    },
    {
      "midi": 58,
      "hit": false,
      "t": 47187.5,
      "d": 312.5,
      "v": 80
    },
    {
      "midi": 61,
      "hit": false,
      "t": 47187.5,
      "d": 312.5,
      "v": 80
    },
    {
      "midi": 64,
      "hit": false,
      "t": 47187.5,
      "d": 312.5,
      "v": 80
    },
    {
      "midi": 47,
      "hit": false,
      "t": 47500,
      "d": 312.5,
      "v": 80
    },
    {
      "midi": 59,
      "hit": false,
      "t": 47500,
      "d": 312.5,
      "v": 80
    },
    {
      "midi": 63,
      "hit": false,
      "t": 47500,
      "d": 312.5,
      "v": 80
    },
    {
      "midi": 66,
      "hit": false,
      "t": 47500,
      "d": 312.5,
      "v": 80
    },
    {
      "midi": 59,
      "hit": false,
      "t": 47812.5,
      "d": 312.5,
      "v": 80
    },
    {
      "midi": 63,
      "hit": false,
      "t": 47812.5,
      "d": 312.5,
      "v": 80
    },
    {
      "midi": 66,
      "hit": false,
      "t": 47812.5,
      "d": 312.5,
      "v": 80
    },
    {
      "midi": 47,
      "hit": false,
      "t": 48125,
      "d": 312.5,
      "v": 80
    },
    {
      "midi": 59,
      "hit": false,
      "t": 48125,
      "d": 312.5,
      "v": 80
    },
    {
      "midi": 63,
      "hit": false,
      "t": 48125,
      "d": 312.5,
      "v": 80
    },
    {
      "midi": 66,
      "hit": false,
      "t": 48125,
      "d": 312.5,
      "v": 80
    },
    {
      "midi": 59,
      "hit": false,
      "t": 48437.5,
      "d": 312.5,
      "v": 80
    },
    {
      "midi": 63,
      "hit": false,
      "t": 48437.5,
      "d": 312.5,
      "v": 80
    },
    {
      "midi": 66,
      "hit": false,
      "t": 48437.5,
      "d": 312.5,
      "v": 80
    },
    {
      "midi": 42,
      "hit": false,
      "t": 48750,
      "d": 312.5,
      "v": 80
    },
    {
      "midi": 54,
      "hit": false,
      "t": 48750,
      "d": 312.5,
      "v": 80
    },
    {
      "midi": 58,
      "hit": false,
      "t": 48750,
      "d": 312.5,
      "v": 80
    },
    {
      "midi": 61,
      "hit": false,
      "t": 48750,
      "d": 312.5,
      "v": 80
    },
    {
      "midi": 64,
      "hit": false,
      "t": 48750,
      "d": 312.5,
      "v": 80
    },
    {
      "midi": 54,
      "hit": false,
      "t": 49062.5,
      "d": 156.25,
      "v": 80
    },
    {
      "midi": 58,
      "hit": false,
      "t": 49218.75,
      "d": 312.5,
      "v": 80
    },
    {
      "midi": 61,
      "hit": false,
      "t": 49218.75,
      "d": 312.5,
      "v": 80
    },
    {
      "midi": 64,
      "hit": false,
      "t": 49218.75,
      "d": 312.5,
      "v": 80
    },
    {
      "midi": 54,
      "hit": false,
      "t": 49375,
      "d": 156.25,
      "v": 80
    },
    {
      "midi": 42,
      "hit": false,
      "t": 49375,
      "d": 312.5,
      "v": 80
    },
    {
      "midi": 54,
      "hit": false,
      "t": 49531.25,
      "d": 156.25,
      "v": 80
    },
    {
      "midi": 42,
      "hit": false,
      "t": 49687.5,
      "d": 312.5,
      "v": 80
    },
    {
      "midi": 54,
      "hit": false,
      "t": 49687.5,
      "d": 312.5,
      "v": 80
    },
    {
      "midi": 58,
      "hit": false,
      "t": 49687.5,
      "d": 312.5,
      "v": 80
    },
    {
      "midi": 61,
      "hit": false,
      "t": 49687.5,
      "d": 312.5,
      "v": 80
    },
    {
      "midi": 64,
      "hit": false,
      "t": 49687.5,
      "d": 312.5,
      "v": 80
    },
    {
      "midi": 47,
      "hit": false,
      "t": 50000,
      "d": 312.5,
      "v": 80
    },
    {
      "midi": 59,
      "hit": false,
      "t": 50000,
      "d": 312.5,
      "v": 80
    },
    {
      "midi": 63,
      "hit": false,
      "t": 50000,
      "d": 312.5,
      "v": 80
    },
    {
      "midi": 66,
      "hit": false,
      "t": 50000,
      "d": 312.5,
      "v": 80
    },
    {
      "midi": 59,
      "hit": false,
      "t": 50312.5,
      "d": 312.5,
      "v": 80
    },
    {
      "midi": 63,
      "hit": false,
      "t": 50312.5,
      "d": 312.5,
      "v": 80
    },
    {
      "midi": 66,
      "hit": false,
      "t": 50312.5,
      "d": 312.5,
      "v": 80
    },
    {
      "midi": 47,
      "hit": false,
      "t": 50625,
      "d": 312.5,
      "v": 80
    },
    {
      "midi": 59,
      "hit": false,
      "t": 50625,
      "d": 312.5,
      "v": 80
    },
    {
      "midi": 63,
      "hit": false,
      "t": 50625,
      "d": 312.5,
      "v": 80
    },
    {
      "midi": 66,
      "hit": false,
      "t": 50625,
      "d": 312.5,
      "v": 80
    },
    {
      "midi": 59,
      "hit": false,
      "t": 50937.5,
      "d": 312.5,
      "v": 80
    },
    {
      "midi": 63,
      "hit": false,
      "t": 50937.5,
      "d": 312.5,
      "v": 80
    },
    {
      "midi": 66,
      "hit": false,
      "t": 50937.5,
      "d": 312.5,
      "v": 80
    },
    {
      "midi": 46,
      "hit": false,
      "t": 51250,
      "d": 312.5,
      "v": 80
    },
    {
      "midi": 56,
      "hit": false,
      "t": 51250,
      "d": 312.5,
      "v": 80
    },
    {
      "midi": 58,
      "hit": false,
      "t": 51250,
      "d": 312.5,
      "v": 80
    },
    {
      "midi": 62,
      "hit": false,
      "t": 51250,
      "d": 312.5,
      "v": 80
    },
    {
      "midi": 65,
      "hit": false,
      "t": 51250,
      "d": 312.5,
      "v": 80
    },
    {
      "midi": 46,
      "hit": false,
      "t": 51562.5,
      "d": 937.5,
      "v": 80
    },
    {
      "midi": 56,
      "hit": false,
      "t": 51562.5,
      "d": 937.5,
      "v": 80
    },
    {
      "midi": 58,
      "hit": false,
      "t": 51562.5,
      "d": 937.5,
      "v": 80
    },
    {
      "midi": 62,
      "hit": false,
      "t": 51562.5,
      "d": 937.5,
      "v": 80
    },
    {
      "midi": 65,
      "hit": false,
      "t": 51562.5,
      "d": 937.5,
      "v": 80
    },
    {
      "midi": 51,
      "hit": false,
      "t": 52500,
      "d": 312.5,
      "v": 80
    },
    {
      "midi": 63,
      "hit": false,
      "t": 52500,
      "d": 312.5,
      "v": 80
    },
    {
      "midi": 67,
      "hit": false,
      "t": 52500,
      "d": 312.5,
      "v": 80
    },
    {
      "midi": 70,
      "hit": false,
      "t": 52500,
      "d": 312.5,
      "v": 80
    },
    {
      "midi": 63,
      "hit": false,
      "t": 52812.5,
      "d": 312.5,
      "v": 80
    },
    {
      "midi": 67,
      "hit": false,
      "t": 52812.5,
      "d": 312.5,
      "v": 80
    },
    {
      "midi": 70,
      "hit": false,
      "t": 52812.5,
      "d": 312.5,
      "v": 80
    },
    {
      "midi": 51,
      "hit": false,
      "t": 53125,
      "d": 312.5,
      "v": 80
    },
    {
      "midi": 63,
      "hit": false,
      "t": 53125,
      "d": 312.5,
      "v": 80
    },
    {
      "midi": 67,
      "hit": false,
      "t": 53125,
      "d": 312.5,
      "v": 80
    },
    {
      "midi": 70,
      "hit": false,
      "t": 53125,
      "d": 312.5,
      "v": 80
    },
    {
      "midi": 75,
      "hit": false,
      "t": 53125,
      "d": 312.5,
      "v": 80
    },
    {
      "midi": 63,
      "hit": false,
      "t": 53437.5,
      "d": 312.5,
      "v": 80
    },
    {
      "midi": 67,
      "hit": false,
      "t": 53437.5,
      "d": 312.5,
      "v": 80
    },
    {
      "midi": 70,
      "hit": false,
      "t": 53437.5,
      "d": 312.5,
      "v": 80
    },
    {
      "midi": 51,
      "hit": false,
      "t": 53750,
      "d": 312.5,
      "v": 80
    },
    {
      "midi": 63,
      "hit": false,
      "t": 53750,
      "d": 312.5,
      "v": 80
    },
    {
      "midi": 67,
      "hit": false,
      "t": 53750,
      "d": 312.5,
      "v": 80
    },
    {
      "midi": 70,
      "hit": false,
      "t": 53750,
      "d": 312.5,
      "v": 80
    },
    {
      "midi": 75,
      "hit": false,
      "t": 53750,
      "d": 312.5,
      "v": 80
    },
    {
      "midi": 63,
      "hit": false,
      "t": 54062.5,
      "d": 312.5,
      "v": 80
    },
    {
      "midi": 67,
      "hit": false,
      "t": 54062.5,
      "d": 312.5,
      "v": 80
    },
    {
      "midi": 70,
      "hit": false,
      "t": 54062.5,
      "d": 312.5,
      "v": 80
    },
    {
      "midi": 51,
      "hit": false,
      "t": 54375,
      "d": 312.5,
      "v": 80
    },
    {
      "midi": 63,
      "hit": false,
      "t": 54375,
      "d": 312.5,
      "v": 80
    },
    {
      "midi": 67,
      "hit": false,
      "t": 54375,
      "d": 312.5,
      "v": 80
    },
    {
      "midi": 70,
      "hit": false,
      "t": 54375,
      "d": 312.5,
      "v": 80
    },
    {
      "midi": 75,
      "hit": false,
      "t": 54375,
      "d": 312.5,
      "v": 80
    },
    {
      "midi": 63,
      "hit": false,
      "t": 54687.5,
      "d": 312.5,
      "v": 80
    },
    {
      "midi": 67,
      "hit": false,
      "t": 54687.5,
      "d": 312.5,
      "v": 80
    },
    {
      "midi": 70,
      "hit": false,
      "t": 54687.5,
      "d": 312.5,
      "v": 80
    },
    {
      "midi": 56,
      "hit": false,
      "t": 55000,
      "d": 312.5,
      "v": 80
    },
    {
      "midi": 60,
      "hit": false,
      "t": 55000,
      "d": 312.5,
      "v": 80
    },
    {
      "midi": 63,
      "hit": false,
      "t": 55000,
      "d": 312.5,
      "v": 80
    },
    {
      "midi": 32,
      "hit": false,
      "t": 55000,
      "d": 1250,
      "v": 80
    },
    {
      "midi": 44,
      "hit": false,
      "t": 55000,
      "d": 1250,
      "v": 80
    },
    {
      "midi": 56,
      "hit": false,
      "t": 55312.5,
      "d": 312.5,
      "v": 80
    },
    {
      "midi": 60,
      "hit": false,
      "t": 55312.5,
      "d": 312.5,
      "v": 80
    },
    {
      "midi": 63,
      "hit": false,
      "t": 55312.5,
      "d": 312.5,
      "v": 80
    },
    {
      "midi": 56,
      "hit": false,
      "t": 55625,
      "d": 312.5,
      "v": 80
    },
    {
      "midi": 60,
      "hit": false,
      "t": 55625,
      "d": 312.5,
      "v": 80
    },
    {
      "midi": 63,
      "hit": false,
      "t": 55625,
      "d": 312.5,
      "v": 80
    },
    {
      "midi": 56,
      "hit": false,
      "t": 55937.5,
      "d": 312.5,
      "v": 80
    },
    {
      "midi": 60,
      "hit": false,
      "t": 55937.5,
      "d": 312.5,
      "v": 80
    },
    {
      "midi": 63,
      "hit": false,
      "t": 55937.5,
      "d": 312.5,
      "v": 80
    },
    {
      "midi": 58,
      "hit": false,
      "t": 56250,
      "d": 312.5,
      "v": 80
    },
    {
      "midi": 62,
      "hit": false,
      "t": 56250,
      "d": 312.5,
      "v": 80
    },
    {
      "midi": 31,
      "hit": false,
      "t": 56250,
      "d": 625,
      "v": 80
    },
    {
      "midi": 43,
      "hit": false,
      "t": 56250,
      "d": 625,
      "v": 80
    },
    {
      "midi": 55,
      "hit": false,
      "t": 56562.5,
      "d": 312.5,
      "v": 80
    },
    {
      "midi": 60,
      "hit": false,
      "t": 56875,
      "d": 312.5,
      "v": 80
    },
    {
      "midi": 63,
      "hit": false,
      "t": 56875,
      "d": 312.5,
      "v": 80
    },
    {
      "midi": 36,
      "hit": false,
      "t": 56875,
      "d": 625,
      "v": 80
    },
    {
      "midi": 48,
      "hit": false,
      "t": 56875,
      "d": 625,
      "v": 80
    },
    {
      "midi": 55,
      "hit": false,
      "t": 57187.5,
      "d": 312.5,
      "v": 80
    },
    {
      "midi": 56,
      "hit": false,
      "t": 57500,
      "d": 312.5,
      "v": 80
    },
    {
      "midi": 60,
      "hit": false,
      "t": 57500,
      "d": 312.5,
      "v": 80
    },
    {
      "midi": 63,
      "hit": false,
      "t": 57500,
      "d": 312.5,
      "v": 80
    },
    {
      "midi": 41,
      "hit": false,
      "t": 57500,
      "d": 625,
      "v": 80
    },
    {
      "midi": 53,
      "hit": false,
      "t": 57812.5,
      "d": 156.25,
      "v": 80
    },
    {
      "midi": 56,
      "hit": false,
      "t": 57968.75,
      "d": 312.5,
      "v": 80
    },
    {
      "midi": 41,
      "hit": false,
      "t": 58125,
      "d": 625,
      "v": 80
    },
    {
      "midi": 53,
      "hit": false,
      "t": 58125,
      "d": 625,
      "v": 80
    },
    {
      "midi": 60,
      "hit": false,
      "t": 58281.25,
      "d": 156.25,
      "v": 80
    },
    {
      "midi": 63,
      "hit": false,
      "t": 58437.5,
      "d": 312.5,
      "v": 80
    },
    {
      "midi": 59,
      "hit": false,
      "t": 58750,
      "d": 312.5,
      "v": 80
    },
    {
      "midi": 63,
      "hit": false,
      "t": 58750,
      "d": 312.5,
      "v": 80
    },
    {
      "midi": 44,
      "hit": false,
      "t": 58750,
      "d": 625,
      "v": 80
    },
    {
      "midi": 56,
      "hit": false,
      "t": 59062.5,
      "d": 312.5,
      "v": 80
    },
    {
      "midi": 58,
      "hit": false,
      "t": 59375,
      "d": 598.9583333333358,
      "v": 80
    },
    {
      "midi": 46,
      "hit": false,
      "t": 59375,
      "d": 625,
      "v": 80
    },
    {
      "midi": 62,
      "hit": false,
      "t": 59375,
      "d": 625,
      "v": 80
    },
    {
      "midi": 65,
      "hit": false,
      "t": 59375,
      "d": 625,
      "v": 80
    },
    {
      "midi": 56,
      "hit": false,
      "t": 59687.5,
      "d": 312.5,
      "v": 80
    },
    {
      "midi": 63,
      "hit": false,
      "t": 60000,
      "d": 312.5,
      "v": 80
    },
    {
      "midi": 67,
      "hit": false,
      "t": 60000,
      "d": 312.5,
      "v": 80
    },
    {
      "midi": 51,
      "hit": false,
      "t": 60000,
      "d": 1250,
      "v": 80
    },
    {
      "midi": 63,
      "hit": false,
      "t": 60312.5,
      "d": 156.25,
      "v": 80
    },
    {
      "midi": 75,
      "hit": false,
      "t": 60468.75,
      "d": 312.5,
      "v": 80
    },
    {
      "midi": 72,
      "hit": false,
      "t": 60781.25,
      "d": 156.25,
      "v": 80
    },
    {
      "midi": 70,
      "hit": false,
      "t": 60937.5,
      "d": 312.5,
      "v": 80
    },
    {
      "midi": 63,
      "hit": false,
      "t": 61250,
      "d": 312.5,
      "v": 80
    },
    {
      "midi": 67,
      "hit": false,
      "t": 61250,
      "d": 312.5,
      "v": 80
    },
    {
      "midi": 48,
      "hit": false,
      "t": 61562.5,
      "d": 312.5,
      "v": 80
    },
    {
      "midi": 60,
      "hit": false,
      "t": 61562.5,
      "d": 312.5,
      "v": 80
    },
    {
      "midi": 46,
      "hit": false,
      "t": 61875,
      "d": 625,
      "v": 80
    },
    {
      "midi": 56,
      "hit": false,
      "t": 61875,
      "d": 625,
      "v": 80
    },
    {
      "midi": 58,
      "hit": false,
      "t": 61875,
      "d": 625,
      "v": 80
    },
    {
      "midi": 62,
      "hit": false,
      "t": 61875,
      "d": 625,
      "v": 80
    },
    {
      "midi": 65,
      "hit": false,
      "t": 61875,
      "d": 625,
      "v": 80
    },
    {
      "midi": 51,
      "hit": false,
      "t": 62500,
      "d": 312.5,
      "v": 80
    },
    {
      "midi": 63,
      "hit": false,
      "t": 62500,
      "d": 312.5,
      "v": 80
    },
    {
      "midi": 67,
      "hit": false,
      "t": 62500,
      "d": 312.5,
      "v": 80
    },
    {
      "midi": 70,
      "hit": false,
      "t": 62500,
      "d": 312.5,
      "v": 80
    },
    {
      "midi": 63,
      "hit": false,
      "t": 62812.5,
      "d": 312.5,
      "v": 80
    },
    {
      "midi": 67,
      "hit": false,
      "t": 62812.5,
      "d": 312.5,
      "v": 80
    },
    {
      "midi": 70,
      "hit": false,
      "t": 62812.5,
      "d": 312.5,
      "v": 80
    },
    {
      "midi": 51,
      "hit": false,
      "t": 63125,
      "d": 312.5,
      "v": 80
    },
    {
      "midi": 63,
      "hit": false,
      "t": 63125,
      "d": 312.5,
      "v": 80
    },
    {
      "midi": 67,
      "hit": false,
      "t": 63125,
      "d": 312.5,
      "v": 80
    },
    {
      "midi": 70,
      "hit": false,
      "t": 63125,
      "d": 312.5,
      "v": 80
    },
    {
      "midi": 63,
      "hit": false,
      "t": 63437.5,
      "d": 312.5,
      "v": 80
    },
    {
      "midi": 67,
      "hit": false,
      "t": 63437.5,
      "d": 312.5,
      "v": 80
    },
    {
      "midi": 70,
      "hit": false,
      "t": 63437.5,
      "d": 312.5,
      "v": 80
    },
    {
      "midi": 50,
      "hit": false,
      "t": 63750,
      "d": 312.5,
      "v": 80
    },
    {
      "midi": 62,
      "hit": false,
      "t": 63750,
      "d": 312.5,
      "v": 80
    },
    {
      "midi": 65,
      "hit": false,
      "t": 63750,
      "d": 312.5,
      "v": 80
    },
    {
      "midi": 68,
      "hit": false,
      "t": 63750,
      "d": 312.5,
      "v": 80
    },
    {
      "midi": 70,
      "hit": false,
      "t": 63750,
      "d": 312.5,
      "v": 80
    },
    {
      "midi": 62,
      "hit": false,
      "t": 64062.5,
      "d": 156.25,
      "v": 80
    },
    {
      "midi": 65,
      "hit": false,
      "t": 64062.5,
      "d": 156.25,
      "v": 80
    },
    {
      "midi": 68,
      "hit": false,
      "t": 64062.5,
      "d": 156.25,
      "v": 80
    },
    {
      "midi": 70,
      "hit": false,
      "t": 64062.5,
      "d": 156.25,
      "v": 80
    },
    {
      "midi": 65,
      "hit": false,
      "t": 64218.75,
      "d": 312.5,
      "v": 80
    },
    {
      "midi": 68,
      "hit": false,
      "t": 64218.75,
      "d": 312.5,
      "v": 80
    },
    {
      "midi": 70,
      "hit": false,
      "t": 64218.75,
      "d": 312.5,
      "v": 80
    },
    {
      "midi": 74,
      "hit": false,
      "t": 64218.75,
      "d": 312.5,
      "v": 80
    },
    {
      "midi": 50,
      "hit": false,
      "t": 64375,
      "d": 312.5,
      "v": 80
    },
    {
      "midi": 62,
      "hit": false,
      "t": 64531.25,
      "d": 156.25,
      "v": 80
    },
    {
      "midi": 65,
      "hit": false,
      "t": 64531.25,
      "d": 468.75,
      "v": 80
    },
    {
      "midi": 68,
      "hit": false,
      "t": 64531.25,
      "d": 468.75,
      "v": 80
    },
    {
      "midi": 70,
      "hit": false,
      "t": 64531.25,
      "d": 468.75,
      "v": 80
    },
    {
      "midi": 50,
      "hit": false,
      "t": 64687.5,
      "d": 312.5,
      "v": 80
    },
    {
      "midi": 62,
      "hit": false,
      "t": 64687.5,
      "d": 312.5,
      "v": 80
    },
    {
      "midi": 48,
      "hit": false,
      "t": 65000,
      "d": 312.5,
      "v": 80
    },
    {
      "midi": 60,
      "hit": false,
      "t": 65000,
      "d": 312.5,
      "v": 80
    },
    {
      "midi": 63,
      "hit": false,
      "t": 65000,
      "d": 312.5,
      "v": 80
    },
    {
      "midi": 67,
      "hit": false,
      "t": 65000,
      "d": 312.5,
      "v": 80
    },
    {
      "midi": 72,
      "hit": false,
      "t": 65000,
      "d": 312.5,
      "v": 80
    },
    {
      "midi": 63,
      "hit": false,
      "t": 65312.5,
      "d": 312.5,
      "v": 80
    },
    {
      "midi": 67,
      "hit": false,
      "t": 65312.5,
      "d": 312.5,
      "v": 80
    },
    {
      "midi": 72,
      "hit": false,
      "t": 65312.5,
      "d": 312.5,
      "v": 80
    },
    {
      "midi": 60,
      "hit": false,
      "t": 65625,
      "d": 156.25,
      "v": 80
    },
    {
      "midi": 63,
      "hit": false,
      "t": 65625,
      "d": 156.25,
      "v": 80
    },
    {
      "midi": 67,
      "hit": false,
      "t": 65625,
      "d": 156.25,
      "v": 80
    },
    {
      "midi": 48,
      "hit": false,
      "t": 65625,
      "d": 312.5,
      "v": 80
    },
    {
      "midi": 60,
      "hit": false,
      "t": 65781.25,
      "d": 156.25,
      "v": 80
    },
    {
      "midi": 63,
      "hit": false,
      "t": 65781.25,
      "d": 468.75,
      "v": 80
    },
    {
      "midi": 67,
      "hit": false,
      "t": 65781.25,
      "d": 468.75,
      "v": 80
    },
    {
      "midi": 43,
      "hit": false,
      "t": 66250,
      "d": 625,
      "v": 80
    },
    {
      "midi": 55,
      "hit": false,
      "t": 66250,
      "d": 625,
      "v": 80
    },
    {
      "midi": 62,
      "hit": false,
      "t": 66250,
      "d": 625,
      "v": 80
    },
    {
      "midi": 67,
      "hit": false,
      "t": 66250,
      "d": 625,
      "v": 80
    },
    {
      "midi": 70,
      "hit": false,
      "t": 66250,
      "d": 625,
      "v": 80
    },
    {
      "midi": 44,
      "hit": false,
      "t": 66875,
      "d": 625,
      "v": 80
    },
    {
      "midi": 56,
      "hit": false,
      "t": 66875,
      "d": 625,
      "v": 80
    },
    {
      "midi": 60,
      "hit": false,
      "t": 66875,
      "d": 625,
      "v": 80
    },
    {
      "midi": 63,
      "hit": false,
      "t": 66875,
      "d": 625,
      "v": 80
    },
    {
      "midi": 68,
      "hit": false,
      "t": 66875,
      "d": 625,
      "v": 80
    },
    {
      "midi": 51,
      "hit": false,
      "t": 67500,
      "d": 312.5,
      "v": 80
    },
    {
      "midi": 63,
      "hit": false,
      "t": 67500,
      "d": 312.5,
      "v": 80
    },
    {
      "midi": 67,
      "hit": false,
      "t": 67500,
      "d": 312.5,
      "v": 80
    },
    {
      "midi": 70,
      "hit": false,
      "t": 67500,
      "d": 312.5,
      "v": 80
    },
    {
      "midi": 63,
      "hit": false,
      "t": 67812.5,
      "d": 312.5,
      "v": 80
    },
    {
      "midi": 67,
      "hit": false,
      "t": 67812.5,
      "d": 312.5,
      "v": 80
    },
    {
      "midi": 70,
      "hit": false,
      "t": 67812.5,
      "d": 312.5,
      "v": 80
    },
    {
      "midi": 51,
      "hit": false,
      "t": 68125,
      "d": 312.5,
      "v": 80
    },
    {
      "midi": 63,
      "hit": false,
      "t": 68125,
      "d": 312.5,
      "v": 80
    },
    {
      "midi": 67,
      "hit": false,
      "t": 68125,
      "d": 312.5,
      "v": 80
    },
    {
      "midi": 70,
      "hit": false,
      "t": 68125,
      "d": 312.5,
      "v": 80
    },
    {
      "midi": 63,
      "hit": false,
      "t": 68437.5,
      "d": 312.5,
      "v": 80
    },
    {
      "midi": 67,
      "hit": false,
      "t": 68437.5,
      "d": 312.5,
      "v": 80
    },
    {
      "midi": 70,
      "hit": false,
      "t": 68437.5,
      "d": 312.5,
      "v": 80
    },
    {
      "midi": 50,
      "hit": false,
      "t": 68750,
      "d": 312.5,
      "v": 80
    },
    {
      "midi": 62,
      "hit": false,
      "t": 68750,
      "d": 312.5,
      "v": 80
    },
    {
      "midi": 65,
      "hit": false,
      "t": 68750,
      "d": 312.5,
      "v": 80
    },
    {
      "midi": 68,
      "hit": false,
      "t": 68750,
      "d": 312.5,
      "v": 80
    },
    {
      "midi": 70,
      "hit": false,
      "t": 68750,
      "d": 312.5,
      "v": 80
    },
    {
      "midi": 62,
      "hit": false,
      "t": 69062.5,
      "d": 156.25,
      "v": 80
    },
    {
      "midi": 65,
      "hit": false,
      "t": 69062.5,
      "d": 156.25,
      "v": 80
    },
    {
      "midi": 68,
      "hit": false,
      "t": 69062.5,
      "d": 156.25,
      "v": 80
    },
    {
      "midi": 70,
      "hit": false,
      "t": 69062.5,
      "d": 156.25,
      "v": 80
    },
    {
      "midi": 65,
      "hit": false,
      "t": 69218.75,
      "d": 312.5,
      "v": 80
    },
    {
      "midi": 68,
      "hit": false,
      "t": 69218.75,
      "d": 312.5,
      "v": 80
    },
    {
      "midi": 70,
      "hit": false,
      "t": 69218.75,
      "d": 312.5,
      "v": 80
    },
    {
      "midi": 62,
      "hit": false,
      "t": 69375,
      "d": 156.25,
      "v": 80
    },
    {
      "midi": 50,
      "hit": false,
      "t": 69375,
      "d": 312.5,
      "v": 80
    },
    {
      "midi": 65,
      "hit": false,
      "t": 69531.25,
      "d": 468.75,
      "v": 80
    },
    {
      "midi": 68,
      "hit": false,
      "t": 69531.25,
      "d": 468.75,
      "v": 80
    },
    {
      "midi": 70,
      "hit": false,
      "t": 69531.25,
      "d": 468.75,
      "v": 80
    },
    {
      "midi": 74,
      "hit": false,
      "t": 69531.25,
      "d": 468.75,
      "v": 80
    },
    {
      "midi": 50,
      "hit": false,
      "t": 69687.5,
      "d": 312.5,
      "v": 80
    },
    {
      "midi": 62,
      "hit": false,
      "t": 69687.5,
      "d": 312.5,
      "v": 80
    },
    {
      "midi": 48,
      "hit": false,
      "t": 70000,
      "d": 312.5,
      "v": 80
    },
    {
      "midi": 60,
      "hit": false,
      "t": 70000,
      "d": 312.5,
      "v": 80
    },
    {
      "midi": 63,
      "hit": false,
      "t": 70000,
      "d": 312.5,
      "v": 80
    },
    {
      "midi": 67,
      "hit": false,
      "t": 70000,
      "d": 312.5,
      "v": 80
    },
    {
      "midi": 72,
      "hit": false,
      "t": 70000,
      "d": 312.5,
      "v": 80
    },
    {
      "midi": 63,
      "hit": false,
      "t": 70312.5,
      "d": 312.5,
      "v": 80
    },
    {
      "midi": 67,
      "hit": false,
      "t": 70312.5,
      "d": 312.5,
      "v": 80
    },
    {
      "midi": 72,
      "hit": false,
      "t": 70312.5,
      "d": 312.5,
      "v": 80
    },
    {
      "midi": 48,
      "hit": false,
      "t": 70625,
      "d": 312.5,
      "v": 80
    },
    {
      "midi": 60,
      "hit": false,
      "t": 70625,
      "d": 312.5,
      "v": 80
    },
    {
      "midi": 63,
      "hit": false,
      "t": 70625,
      "d": 312.5,
      "v": 80
    },
    {
      "midi": 67,
      "hit": false,
      "t": 70625,
      "d": 312.5,
      "v": 80
    },
    {
      "midi": 60,
      "hit": false,
      "t": 70937.5,
      "d": 312.5,
      "v": 80
    },
    {
      "midi": 63,
      "hit": false,
      "t": 70937.5,
      "d": 312.5,
      "v": 80
    },
    {
      "midi": 67,
      "hit": false,
      "t": 70937.5,
      "d": 312.5,
      "v": 80
    },
    {
      "midi": 47,
      "hit": false,
      "t": 71250,
      "d": 312.5,
      "v": 80
    },
    {
      "midi": 59,
      "hit": false,
      "t": 71250,
      "d": 312.5,
      "v": 80
    },
    {
      "midi": 62,
      "hit": false,
      "t": 71250,
      "d": 312.5,
      "v": 80
    },
    {
      "midi": 65,
      "hit": false,
      "t": 71250,
      "d": 312.5,
      "v": 80
    },
    {
      "midi": 67,
      "hit": false,
      "t": 71250,
      "d": 312.5,
      "v": 80
    },
    {
      "midi": 59,
      "hit": false,
      "t": 71562.5,
      "d": 156.25,
      "v": 80
    },
    {
      "midi": 62,
      "hit": false,
      "t": 71562.5,
      "d": 156.25,
      "v": 80
    },
    {
      "midi": 65,
      "hit": false,
      "t": 71562.5,
      "d": 156.25,
      "v": 80
    },
    {
      "midi": 67,
      "hit": false,
      "t": 71562.5,
      "d": 156.25,
      "v": 80
    },
    {
      "midi": 62,
      "hit": false,
      "t": 71718.75,
      "d": 312.5,
      "v": 80
    },
    {
      "midi": 65,
      "hit": false,
      "t": 71718.75,
      "d": 312.5,
      "v": 80
    },
    {
      "midi": 67,
      "hit": false,
      "t": 71718.75,
      "d": 312.5,
      "v": 80
    },
    {
      "midi": 59,
      "hit": false,
      "t": 71875,
      "d": 156.25,
      "v": 80
    },
    {
      "midi": 47,
      "hit": false,
      "t": 71875,
      "d": 312.5,
      "v": 80
    },
    {
      "midi": 59,
      "hit": false,
      "t": 72031.25,
      "d": 156.25,
      "v": 80
    },
    {
      "midi": 62,
      "hit": false,
      "t": 72031.25,
      "d": 468.75,
      "v": 80
    },
    {
      "midi": 65,
      "hit": false,
      "t": 72031.25,
      "d": 468.75,
      "v": 80
    },
    {
      "midi": 67,
      "hit": false,
      "t": 72031.25,
      "d": 468.75,
      "v": 80
    },
    {
      "midi": 47,
      "hit": false,
      "t": 72187.5,
      "d": 312.5,
      "v": 80
    },
    {
      "midi": 59,
      "hit": false,
      "t": 72187.5,
      "d": 312.5,
      "v": 80
    },
    {
      "midi": 48,
      "hit": false,
      "t": 72500,
      "d": 312.5,
      "v": 80
    },
    {
      "midi": 60,
      "hit": false,
      "t": 72500,
      "d": 312.5,
      "v": 80
    },
    {
      "midi": 63,
      "hit": false,
      "t": 72500,
      "d": 312.5,
      "v": 80
    },
    {
      "midi": 67,
      "hit": false,
      "t": 72500,
      "d": 312.5,
      "v": 80
    },
    {
      "midi": 60,
      "hit": false,
      "t": 72812.5,
      "d": 312.5,
      "v": 80
    },
    {
      "midi": 63,
      "hit": false,
      "t": 72812.5,
      "d": 312.5,
      "v": 80
    },
    {
      "midi": 67,
      "hit": false,
      "t": 72812.5,
      "d": 312.5,
      "v": 80
    },
    {
      "midi": 43,
      "hit": false,
      "t": 73125,
      "d": 312.5,
      "v": 80
    },
    {
      "midi": 55,
      "hit": false,
      "t": 73125,
      "d": 312.5,
      "v": 80
    },
    {
      "midi": 58,
      "hit": false,
      "t": 73125,
      "d": 312.5,
      "v": 80
    },
    {
      "midi": 62,
      "hit": false,
      "t": 73125,
      "d": 312.5,
      "v": 80
    },
    {
      "midi": 55,
      "hit": false,
      "t": 73437.5,
      "d": 312.5,
      "v": 80
    },
    {
      "midi": 58,
      "hit": false,
      "t": 73437.5,
      "d": 312.5,
      "v": 80
    },
    {
      "midi": 62,
      "hit": false,
      "t": 73437.5,
      "d": 312.5,
      "v": 80
    },
    {
      "midi": 48,
      "hit": false,
      "t": 73750,
      "d": 312.5,
      "v": 80
    },
    {
      "midi": 60,
      "hit": false,
      "t": 73750,
      "d": 312.5,
      "v": 80
    },
    {
      "midi": 63,
      "hit": false,
      "t": 73750,
      "d": 312.5,
      "v": 80
    },
    {
      "midi": 67,
      "hit": false,
      "t": 73750,
      "d": 312.5,
      "v": 80
    },
    {
      "midi": 60,
      "hit": false,
      "t": 74062.5,
      "d": 156.25,
      "v": 80
    },
    {
      "midi": 63,
      "hit": false,
      "t": 74062.5,
      "d": 156.25,
      "v": 80
    },
    {
      "midi": 67,
      "hit": false,
      "t": 74062.5,
      "d": 156.25,
      "v": 80
    },
    {
      "midi": 58,
      "hit": false,
      "t": 74218.75,
      "d": 312.5,
      "v": 80
    },
    {
      "midi": 62,
      "hit": false,
      "t": 74218.75,
      "d": 312.5,
      "v": 80
    },
    {
      "midi": 55,
      "hit": false,
      "t": 74375,
      "d": 156.25,
      "v": 80
    },
    {
      "midi": 43,
      "hit": false,
      "t": 74375,
      "d": 312.5,
      "v": 80
    },
    {
      "midi": 55,
      "hit": false,
      "t": 74531.25,
      "d": 156.25,
      "v": 80
    },
    {
      "midi": 58,
      "hit": false,
      "t": 74531.25,
      "d": 468.75,
      "v": 80
    },
    {
      "midi": 62,
      "hit": false,
      "t": 74531.25,
      "d": 468.75,
      "v": 80
    },
    {
      "midi": 43,
      "hit": false,
      "t": 74687.5,
      "d": 312.5,
      "v": 80
    },
    {
      "midi": 55,
      "hit": false,
      "t": 74687.5,
      "d": 312.5,
      "v": 80
    },
    {
      "midi": 56,
      "hit": false,
      "t": 75000,
      "d": 312.5,
      "v": 80
    },
    {
      "midi": 60,
      "hit": false,
      "t": 75000,
      "d": 312.5,
      "v": 80
    },
    {
      "midi": 63,
      "hit": false,
      "t": 75000,
      "d": 312.5,
      "v": 80
    },
    {
      "midi": 65,
      "hit": false,
      "t": 75000,
      "d": 1250,
      "v": 80
    },
    {
      "midi": 53,
      "hit": false,
      "t": 75312.5,
      "d": 156.25,
      "v": 80
    },
    {
      "midi": 56,
      "hit": false,
      "t": 75468.75,
      "d": 312.5,
      "v": 80
    },
    {
      "midi": 60,
      "hit": false,
      "t": 75781.25,
      "d": 156.25,
      "v": 80
    },
    {
      "midi": 63,
      "hit": false,
      "t": 75937.5,
      "d": 312.5,
      "v": 80
    },
    {
      "midi": 59,
      "hit": false,
      "t": 76250,
      "d": 312.5,
      "v": 80
    },
    {
      "midi": 63,
      "hit": false,
      "t": 76250,
      "d": 312.5,
      "v": 80
    },
    {
      "midi": 44,
      "hit": false,
      "t": 76250,
      "d": 625,
      "v": 80
    },
    {
      "midi": 56,
      "hit": false,
      "t": 76562.5,
      "d": 312.5,
      "v": 80
    },
    {
      "midi": 58,
      "hit": false,
      "t": 76875,
      "d": 312.5,
      "v": 80
    },
    {
      "midi": 62,
      "hit": false,
      "t": 76875,
      "d": 312.5,
      "v": 80
    },
    {
      "midi": 65,
      "hit": false,
      "t": 76875,
      "d": 312.5,
      "v": 80
    },
    {
      "midi": 46,
      "hit": false,
      "t": 76875,
      "d": 625,
      "v": 80
    },
    {
      "midi": 56,
      "hit": false,
      "t": 77187.5,
      "d": 312.5,
      "v": 80
    },
    {
      "midi": 58,
      "hit": false,
      "t": 77500,
      "d": 625,
      "v": 80
    },
    {
      "midi": 63,
      "hit": false,
      "t": 77500,
      "d": 625,
      "v": 80
    },
    {
      "midi": 67,
      "hit": false,
      "t": 77500,
      "d": 625,
      "v": 80
    },
    {
      "midi": 39,
      "hit": false,
      "t": 77500,
      "d": 2500,
      "v": 80
    },
    {
      "midi": 51,
      "hit": false,
      "t": 77500,
      "d": 2500,
      "v": 80
    },
    {
      "midi": 75,
      "hit": false,
      "t": 78125,
      "d": 312.5,
      "v": 80
    },
    {
      "midi": 63,
      "hit": false,
      "t": 78125,
      "d": 625,
      "v": 80
    },
    {
      "midi": 72,
      "hit": false,
      "t": 78437.5,
      "d": 625,
      "v": 80
    },
    {
      "midi": 63,
      "hit": false,
      "t": 78750,
      "d": 937.5,
      "v": 80
    },
    {
      "midi": 70,
      "hit": false,
      "t": 79062.5,
      "d": 312.5,
      "v": 80
    },
    {
      "midi": 67,
      "hit": false,
      "t": 79375,
      "d": 312.5,
      "v": 80
    },
    {
      "midi": 63,
      "hit": false,
      "t": 79687.5,
      "d": 312.5,
      "v": 80
    },
    {
      "midi": 67,
      "hit": false,
      "t": 80000,
      "d": 312.5,
      "v": 80
    },
    {
      "midi": 58,
      "hit": false,
      "t": 80000,
      "d": 625,
      "v": 80
    },
    {
      "midi": 39,
      "hit": false,
      "t": 80000,
      "d": 2500,
      "v": 80
    },
    {
      "midi": 51,
      "hit": false,
      "t": 80000,
      "d": 2500,
      "v": 80
    },
    {
      "midi": 63,
      "hit": false,
      "t": 80312.5,
      "d": 312.5,
      "v": 80
    },
    {
      "midi": 75,
      "hit": false,
      "t": 80625,
      "d": 312.5,
      "v": 80
    },
    {
      "midi": 63,
      "hit": false,
      "t": 80625,
      "d": 625,
      "v": 80
    },
    {
      "midi": 72,
      "hit": false,
      "t": 80937.5,
      "d": 625,
      "v": 80
    },
    {
      "midi": 63,
      "hit": false,
      "t": 81250,
      "d": 312.5,
      "v": 80
    },
    {
      "midi": 63,
      "hit": false,
      "t": 81562.5,
      "d": 312.5,
      "v": 80
    },
    {
      "midi": 70,
      "hit": false,
      "t": 81562.5,
      "d": 312.5,
      "v": 80
    },
    {
      "midi": 67,
      "hit": false,
      "t": 81875,
      "d": 156.25,
      "v": 80
    },
    {
      "midi": 63,
      "hit": false,
      "t": 81875,
      "d": 312.5,
      "v": 80
    },
    {
      "midi": 68,
      "hit": false,
      "t": 82031.25,
      "d": 156.25,
      "v": 80
    },
    {
      "midi": 63,
      "hit": false,
      "t": 82187.5,
      "d": 312.5,
      "v": 80
    },
    {
      "midi": 70,
      "hit": false,
      "t": 82187.5,
      "d": 312.5,
      "v": 80
    },
    {
      "midi": 67,
      "hit": false,
      "t": 82500,
      "d": 312.5,
      "v": 80
    },
    {
      "midi": 58,
      "hit": false,
      "t": 82500,
      "d": 625,
      "v": 80
    },
    {
      "midi": 39,
      "hit": false,
      "t": 82500,
      "d": 7500,
      "v": 80
    },
    {
      "midi": 51,
      "hit": false,
      "t": 82500,
      "d": 7500,
      "v": 80
    },
    {
      "midi": 63,
      "hit": false,
      "t": 82812.5,
      "d": 312.5,
      "v": 80
    },
    {
      "midi": 75,
      "hit": false,
      "t": 83125,
      "d": 312.5,
      "v": 80
    },
    {
      "midi": 63,
      "hit": false,
      "t": 83125,
      "d": 625,
      "v": 80
    },
    {
      "midi": 72,
      "hit": false,
      "t": 83437.5,
      "d": 625,
      "v": 80
    },
    {
      "midi": 63,
      "hit": false,
      "t": 83750,
      "d": 625,
      "v": 80
    },
    {
      "midi": 70,
      "hit": false,
      "t": 84062.5,
      "d": 312.5,
      "v": 80
    },
    {
      "midi": 63,
      "hit": false,
      "t": 84375,
      "d": 312.5,
      "v": 80
    },
    {
      "midi": 67,
      "hit": false,
      "t": 84375,
      "d": 312.5,
      "v": 80
    },
    {
      "midi": 63,
      "hit": false,
      "t": 84687.5,
      "d": 312.5,
      "v": 80
    },
    {
      "midi": 67,
      "hit": false,
      "t": 85000,
      "d": 312.5,
      "v": 80
    },
    {
      "midi": 58,
      "hit": false,
      "t": 85000,
      "d": 625,
      "v": 80
    },
    {
      "midi": 63,
      "hit": false,
      "t": 85312.5,
      "d": 312.5,
      "v": 80
    },
    {
      "midi": 75,
      "hit": false,
      "t": 85625,
      "d": 312.5,
      "v": 80
    },
    {
      "midi": 63,
      "hit": false,
      "t": 85625,
      "d": 625,
      "v": 80
    },
    {
      "midi": 72,
      "hit": false,
      "t": 85937.5,
      "d": 625,
      "v": 80
    },
    {
      "midi": 63,
      "hit": false,
      "t": 86250,
      "d": 625,
      "v": 80
    },
    {
      "midi": 70,
      "hit": false,
      "t": 86562.5,
      "d": 312.5,
      "v": 80
    },
    {
      "midi": 63,
      "hit": false,
      "t": 86875,
      "d": 312.5,
      "v": 80
    },
    {
      "midi": 67,
      "hit": false,
      "t": 86875,
      "d": 312.5,
      "v": 80
    },
    {
      "midi": 63,
      "hit": false,
      "t": 87187.5,
      "d": 312.5,
      "v": 80
    },
    {
      "midi": 58,
      "hit": false,
      "t": 87500,
      "d": 937.5,
      "v": 80
    },
    {
      "midi": 65,
      "hit": false,
      "t": 87500,
      "d": 1250,
      "v": 80
    },
    {
      "midi": 63,
      "hit": false,
      "t": 87500,
      "d": 2500,
      "v": 80
    },
    {
      "midi": 68,
      "hit": false,
      "t": 87500,
      "d": 2500,
      "v": 80
    },
    {
      "midi": 58,
      "hit": false,
      "t": 88437.5,
      "d": 1562.5,
      "v": 80
    },
    {
      "midi": 65,
      "hit": false,
      "t": 88750,
      "d": 1250,
      "v": 80
    },
    {
      "midi": 56,
      "hit": false,
      "t": 90625,
      "d": 312.5,
      "v": 80
    },
    {
      "midi": 62,
      "hit": false,
      "t": 90625,
      "d": 312.5,
      "v": 80
    },
    {
      "midi": 65,
      "hit": false,
      "t": 90625,
      "d": 312.5,
      "v": 80
    },
    {
      "midi": 68,
      "hit": false,
      "t": 90625,
      "d": 312.5,
      "v": 80
    },
    {
      "midi": 72,
      "hit": false,
      "t": 90625,
      "d": 312.5,
      "v": 80
    },
    {
      "midi": 55,
      "hit": false,
      "t": 90937.5,
      "d": 625,
      "v": 80
    },
    {
      "midi": 62,
      "hit": false,
      "t": 90937.5,
      "d": 625,
      "v": 80
    },
    {
      "midi": 65,
      "hit": false,
      "t": 90937.5,
      "d": 625,
      "v": 80
    },
    {
      "midi": 68,
      "hit": false,
      "t": 90937.5,
      "d": 625,
      "v": 80
    },
    {
      "midi": 70,
      "hit": false,
      "t": 90937.5,
      "d": 625,
      "v": 80
    },
    {
      "midi": 53,
      "hit": false,
      "t": 91562.5,
      "d": 937.5,
      "v": 80
    },
    {
      "midi": 62,
      "hit": false,
      "t": 91562.5,
      "d": 937.5,
      "v": 80
    },
    {
      "midi": 65,
      "hit": false,
      "t": 91562.5,
      "d": 937.5,
      "v": 80
    },
    {
      "midi": 68,
      "hit": false,
      "t": 91562.5,
      "d": 937.5,
      "v": 80
    },
    {
      "midi": 70,
      "hit": false,
      "t": 91562.5,
      "d": 937.5,
      "v": 80
    },
    {
      "midi": 67,
      "hit": false,
      "t": 92500,
      "d": 312.5,
      "v": 80
    },
    {
      "midi": 39,
      "hit": false,
      "t": 92500,
      "d": 2500,
      "v": 80
    },
    {
      "midi": 51,
      "hit": false,
      "t": 92500,
      "d": 2500,
      "v": 80
    },
    {
      "midi": 63,
      "hit": false,
      "t": 92812.5,
      "d": 312.5,
      "v": 80
    },
    {
      "midi": 75,
      "hit": false,
      "t": 93125,
      "d": 312.5,
      "v": 80
    },
    {
      "midi": 63,
      "hit": false,
      "t": 93125,
      "d": 625,
      "v": 80
    },
    {
      "midi": 72,
      "hit": false,
      "t": 93437.5,
      "d": 625,
      "v": 80
    },
    {
      "midi": 63,
      "hit": false,
      "t": 93750,
      "d": 625,
      "v": 80
    },
    {
      "midi": 70,
      "hit": false,
      "t": 94062.5,
      "d": 312.5,
      "v": 80
    },
    {
      "midi": 63,
      "hit": false,
      "t": 94375,
      "d": 625,
      "v": 80
    },
    {
      "midi": 67,
      "hit": false,
      "t": 94375,
      "d": 625,
      "v": 80
    },
    {
      "midi": 58,
      "hit": false,
      "t": 95000,
      "d": 312.5,
      "v": 80
    },
    {
      "midi": 61,
      "hit": false,
      "t": 95000,
      "d": 312.5,
      "v": 80
    },
    {
      "midi": 65,
      "hit": false,
      "t": 95000,
      "d": 312.5,
      "v": 80
    },
    {
      "midi": 68,
      "hit": false,
      "t": 95000,
      "d": 312.5,
      "v": 80
    },
    {
      "midi": 34,
      "hit": false,
      "t": 95000,
      "d": 2500,
      "v": 80
    },
    {
      "midi": 46,
      "hit": false,
      "t": 95000,
      "d": 2500,
      "v": 80
    },
    {
      "midi": 58,
      "hit": false,
      "t": 95312.5,
      "d": 312.5,
      "v": 80
    },
    {
      "midi": 61,
      "hit": false,
      "t": 95312.5,
      "d": 312.5,
      "v": 80
    },
    {
      "midi": 65,
      "hit": false,
      "t": 95312.5,
      "d": 312.5,
      "v": 80
    },
    {
      "midi": 68,
      "hit": false,
      "t": 95312.5,
      "d": 312.5,
      "v": 80
    },
    {
      "midi": 58,
      "hit": false,
      "t": 95625,
      "d": 312.5,
      "v": 80
    },
    {
      "midi": 61,
      "hit": false,
      "t": 95625,
      "d": 312.5,
      "v": 80
    },
    {
      "midi": 65,
      "hit": false,
      "t": 95625,
      "d": 312.5,
      "v": 80
    },
    {
      "midi": 68,
      "hit": false,
      "t": 95625,
      "d": 312.5,
      "v": 80
    },
    {
      "midi": 58,
      "hit": false,
      "t": 95937.5,
      "d": 625,
      "v": 80
    },
    {
      "midi": 61,
      "hit": false,
      "t": 95937.5,
      "d": 625,
      "v": 80
    },
    {
      "midi": 65,
      "hit": false,
      "t": 95937.5,
      "d": 625,
      "v": 80
    },
    {
      "midi": 68,
      "hit": false,
      "t": 95937.5,
      "d": 625,
      "v": 80
    },
    {
      "midi": 58,
      "hit": false,
      "t": 96562.5,
      "d": 937.5,
      "v": 80
    },
    {
      "midi": 61,
      "hit": false,
      "t": 96562.5,
      "d": 937.5,
      "v": 80
    },
    {
      "midi": 65,
      "hit": false,
      "t": 96562.5,
      "d": 937.5,
      "v": 80
    },
    {
      "midi": 68,
      "hit": false,
      "t": 96562.5,
      "d": 937.5,
      "v": 80
    },
    {
      "midi": 29,
      "hit": false,
      "t": 97500,
      "d": 937.5,
      "v": 80
    },
    {
      "midi": 41,
      "hit": false,
      "t": 97500,
      "d": 937.5,
      "v": 80
    },
    {
      "midi": 60,
      "hit": false,
      "t": 97500,
      "d": 937.5,
      "v": 80
    },
    {
      "midi": 63,
      "hit": false,
      "t": 97500,
      "d": 937.5,
      "v": 80
    },
    {
      "midi": 65,
      "hit": false,
      "t": 97500,
      "d": 937.5,
      "v": 80
    },
    {
      "midi": 69,
      "hit": false,
      "t": 97500,
      "d": 937.5,
      "v": 80
    },
    {
      "midi": 29,
      "hit": false,
      "t": 98437.5,
      "d": 1562.5,
      "v": 80
    },
    {
      "midi": 41,
      "hit": false,
      "t": 98437.5,
      "d": 1562.5,
      "v": 80
    },
    {
      "midi": 60,
      "hit": false,
      "t": 98437.5,
      "d": 1562.5,
      "v": 80
    },
    {
      "midi": 63,
      "hit": false,
      "t": 98437.5,
      "d": 1562.5,
      "v": 80
    },
    {
      "midi": 65,
      "hit": false,
      "t": 98437.5,
      "d": 1562.5,
      "v": 80
    },
    {
      "midi": 69,
      "hit": false,
      "t": 98437.5,
      "d": 1562.5,
      "v": 80
    },
    {
      "midi": 62,
      "hit": false,
      "t": 100000,
      "d": 937.5,
      "v": 80
    },
    {
      "midi": 65,
      "hit": false,
      "t": 100000,
      "d": 937.5,
      "v": 80
    },
    {
      "midi": 68,
      "hit": false,
      "t": 100000,
      "d": 937.5,
      "v": 80
    },
    {
      "midi": 70,
      "hit": false,
      "t": 100000,
      "d": 937.5,
      "v": 80
    },
    {
      "midi": 60,
      "hit": false,
      "t": 100937.5,
      "d": 1562.5,
      "v": 80
    },
    {
      "midi": 64,
      "hit": false,
      "t": 100937.5,
      "d": 1562.5,
      "v": 80
    },
    {
      "midi": 67,
      "hit": false,
      "t": 100937.5,
      "d": 1562.5,
      "v": 80
    },
    {
      "midi": 70,
      "hit": false,
      "t": 100937.5,
      "d": 1562.5,
      "v": 80
    },
    {
      "midi": 29,
      "hit": false,
      "t": 102500,
      "d": 312.5,
      "v": 80
    },
    {
      "midi": 41,
      "hit": false,
      "t": 102500,
      "d": 312.5,
      "v": 80
    },
    {
      "midi": 56,
      "hit": false,
      "t": 102500,
      "d": 312.5,
      "v": 80
    },
    {
      "midi": 60,
      "hit": false,
      "t": 102500,
      "d": 312.5,
      "v": 80
    },
    {
      "midi": 63,
      "hit": false,
      "t": 102500,
      "d": 312.5,
      "v": 80
    },
    {
      "midi": 56,
      "hit": false,
      "t": 102812.5,
      "d": 312.5,
      "v": 80
    },
    {
      "midi": 60,
      "hit": false,
      "t": 102812.5,
      "d": 312.5,
      "v": 80
    },
    {
      "midi": 63,
      "hit": false,
      "t": 102812.5,
      "d": 312.5,
      "v": 80
    },
    {
      "midi": 31,
      "hit": false,
      "t": 103125,
      "d": 312.5,
      "v": 80
    },
    {
      "midi": 43,
      "hit": false,
      "t": 103125,
      "d": 312.5,
      "v": 80
    },
    {
      "midi": 56,
      "hit": false,
      "t": 103125,
      "d": 312.5,
      "v": 80
    },
    {
      "midi": 60,
      "hit": false,
      "t": 103125,
      "d": 312.5,
      "v": 80
    },
    {
      "midi": 63,
      "hit": false,
      "t": 103125,
      "d": 312.5,
      "v": 80
    },
    {
      "midi": 56,
      "hit": false,
      "t": 103437.5,
      "d": 312.5,
      "v": 80
    },
    {
      "midi": 60,
      "hit": false,
      "t": 103437.5,
      "d": 312.5,
      "v": 80
    },
    {
      "midi": 63,
      "hit": false,
      "t": 103437.5,
      "d": 312.5,
      "v": 80
    },
    {
      "midi": 36,
      "hit": false,
      "t": 103750,
      "d": 312.5,
      "v": 80
    },
    {
      "midi": 48,
      "hit": false,
      "t": 103750,
      "d": 312.5,
      "v": 80
    },
    {
      "midi": 56,
      "hit": false,
      "t": 103750,
      "d": 312.5,
      "v": 80
    },
    {
      "midi": 60,
      "hit": false,
      "t": 103750,
      "d": 312.5,
      "v": 80
    },
    {
      "midi": 63,
      "hit": false,
      "t": 103750,
      "d": 312.5,
      "v": 80
    },
    {
      "midi": 56,
      "hit": false,
      "t": 104062.5,
      "d": 312.5,
      "v": 80
    },
    {
      "midi": 60,
      "hit": false,
      "t": 104062.5,
      "d": 312.5,
      "v": 80
    },
    {
      "midi": 63,
      "hit": false,
      "t": 104062.5,
      "d": 312.5,
      "v": 80
    },
    {
      "midi": 41,
      "hit": false,
      "t": 104375,
      "d": 312.5,
      "v": 80
    },
    {
      "midi": 53,
      "hit": false,
      "t": 104375,
      "d": 312.5,
      "v": 80
    },
    {
      "midi": 56,
      "hit": false,
      "t": 104375,
      "d": 312.5,
      "v": 80
    },
    {
      "midi": 60,
      "hit": false,
      "t": 104375,
      "d": 312.5,
      "v": 80
    },
    {
      "midi": 63,
      "hit": false,
      "t": 104375,
      "d": 312.5,
      "v": 80
    },
    {
      "midi": 56,
      "hit": false,
      "t": 104687.5,
      "d": 312.5,
      "v": 80
    },
    {
      "midi": 60,
      "hit": false,
      "t": 104687.5,
      "d": 312.5,
      "v": 80
    },
    {
      "midi": 63,
      "hit": false,
      "t": 104687.5,
      "d": 312.5,
      "v": 80
    },
    {
      "midi": 29,
      "hit": false,
      "t": 105000,
      "d": 312.5,
      "v": 80
    },
    {
      "midi": 41,
      "hit": false,
      "t": 105000,
      "d": 312.5,
      "v": 80
    },
    {
      "midi": 56,
      "hit": false,
      "t": 105000,
      "d": 312.5,
      "v": 80
    },
    {
      "midi": 60,
      "hit": false,
      "t": 105000,
      "d": 312.5,
      "v": 80
    },
    {
      "midi": 63,
      "hit": false,
      "t": 105000,
      "d": 312.5,
      "v": 80
    },
    {
      "midi": 56,
      "hit": false,
      "t": 105312.5,
      "d": 312.5,
      "v": 80
    },
    {
      "midi": 60,
      "hit": false,
      "t": 105312.5,
      "d": 312.5,
      "v": 80
    },
    {
      "midi": 63,
      "hit": false,
      "t": 105312.5,
      "d": 312.5,
      "v": 80
    },
    {
      "midi": 31,
      "hit": false,
      "t": 105625,
      "d": 312.5,
      "v": 80
    },
    {
      "midi": 43,
      "hit": false,
      "t": 105625,
      "d": 312.5,
      "v": 80
    },
    {
      "midi": 56,
      "hit": false,
      "t": 105625,
      "d": 312.5,
      "v": 80
    },
    {
      "midi": 60,
      "hit": false,
      "t": 105625,
      "d": 312.5,
      "v": 80
    },
    {
      "midi": 63,
      "hit": false,
      "t": 105625,
      "d": 312.5,
      "v": 80
    },
    {
      "midi": 56,
      "hit": false,
      "t": 105937.5,
      "d": 312.5,
      "v": 80
    },
    {
      "midi": 60,
      "hit": false,
      "t": 105937.5,
      "d": 312.5,
      "v": 80
    },
    {
      "midi": 63,
      "hit": false,
      "t": 105937.5,
      "d": 312.5,
      "v": 80
    },
    {
      "midi": 36,
      "hit": false,
      "t": 106250,
      "d": 312.5,
      "v": 80
    },
    {
      "midi": 48,
      "hit": false,
      "t": 106250,
      "d": 312.5,
      "v": 80
    },
    {
      "midi": 56,
      "hit": false,
      "t": 106250,
      "d": 312.5,
      "v": 80
    },
    {
      "midi": 60,
      "hit": false,
      "t": 106250,
      "d": 312.5,
      "v": 80
    },
    {
      "midi": 63,
      "hit": false,
      "t": 106250,
      "d": 312.5,
      "v": 80
    },
    {
      "midi": 56,
      "hit": false,
      "t": 106562.5,
      "d": 312.5,
      "v": 80
    },
    {
      "midi": 60,
      "hit": false,
      "t": 106562.5,
      "d": 312.5,
      "v": 80
    },
    {
      "midi": 63,
      "hit": false,
      "t": 106562.5,
      "d": 312.5,
      "v": 80
    },
    {
      "midi": 41,
      "hit": false,
      "t": 106875,
      "d": 312.5,
      "v": 80
    },
    {
      "midi": 53,
      "hit": false,
      "t": 106875,
      "d": 312.5,
      "v": 80
    },
    {
      "midi": 56,
      "hit": false,
      "t": 106875,
      "d": 312.5,
      "v": 80
    },
    {
      "midi": 60,
      "hit": false,
      "t": 106875,
      "d": 312.5,
      "v": 80
    },
    {
      "midi": 63,
      "hit": false,
      "t": 106875,
      "d": 312.5,
      "v": 80
    },
    {
      "midi": 56,
      "hit": false,
      "t": 107187.5,
      "d": 312.5,
      "v": 80
    },
    {
      "midi": 60,
      "hit": false,
      "t": 107187.5,
      "d": 312.5,
      "v": 80
    },
    {
      "midi": 63,
      "hit": false,
      "t": 107187.5,
      "d": 312.5,
      "v": 80
    },
    {
      "midi": 56,
      "hit": false,
      "t": 107500,
      "d": 312.5,
      "v": 80
    },
    {
      "midi": 60,
      "hit": false,
      "t": 107500,
      "d": 312.5,
      "v": 80
    },
    {
      "midi": 63,
      "hit": false,
      "t": 107500,
      "d": 312.5,
      "v": 80
    },
    {
      "midi": 29,
      "hit": false,
      "t": 107500,
      "d": 1250,
      "v": 80
    },
    {
      "midi": 41,
      "hit": false,
      "t": 107500,
      "d": 1250,
      "v": 80
    },
    {
      "midi": 63,
      "hit": false,
      "t": 107812.5,
      "d": 156.25,
      "v": 80
    },
    {
      "midi": 68,
      "hit": false,
      "t": 107968.75,
      "d": 312.5,
      "v": 80
    },
    {
      "midi": 60,
      "hit": false,
      "t": 108281.25,
      "d": 156.25,
      "v": 80
    },
    {
      "midi": 63,
      "hit": false,
      "t": 108437.5,
      "d": 312.5,
      "v": 80
    },
    {
      "midi": 56,
      "hit": false,
      "t": 108750,
      "d": 312.5,
      "v": 80
    },
    {
      "midi": 59,
      "hit": false,
      "t": 108750,
      "d": 312.5,
      "v": 80
    },
    {
      "midi": 63,
      "hit": false,
      "t": 108750,
      "d": 312.5,
      "v": 80
    },
    {
      "midi": 32,
      "hit": false,
      "t": 108750,
      "d": 1250,
      "v": 80
    },
    {
      "midi": 44,
      "hit": false,
      "t": 108750,
      "d": 1250,
      "v": 80
    },
    {
      "midi": 56,
      "hit": false,
      "t": 109062.5,
      "d": 156.25,
      "v": 80
    },
    {
      "midi": 63,
      "hit": false,
      "t": 109218.75,
      "d": 312.5,
      "v": 80
    },
    {
      "midi": 63,
      "hit": false,
      "t": 109531.25,
      "d": 468.75,
      "v": 80
    },
    {
      "midi": 34,
      "hit": false,
      "t": 110000,
      "d": 312.5,
      "v": 80
    },
    {
      "midi": 46,
      "hit": false,
      "t": 110000,
      "d": 312.5,
      "v": 80
    },
    {
      "midi": 56,
      "hit": false,
      "t": 110000,
      "d": 312.5,
      "v": 80
    },
    {
      "midi": 58,
      "hit": false,
      "t": 110000,
      "d": 312.5,
      "v": 80
    },
    {
      "midi": 62,
      "hit": false,
      "t": 110000,
      "d": 312.5,
      "v": 80
    },
    {
      "midi": 65,
      "hit": false,
      "t": 110000,
      "d": 312.5,
      "v": 80
    },
    {
      "midi": 34,
      "hit": false,
      "t": 110312.5,
      "d": 937.5,
      "v": 80
    },
    {
      "midi": 46,
      "hit": false,
      "t": 110312.5,
      "d": 937.5,
      "v": 80
    },
    {
      "midi": 56,
      "hit": false,
      "t": 110312.5,
      "d": 937.5,
      "v": 80
    },
    {
      "midi": 58,
      "hit": false,
      "t": 110312.5,
      "d": 937.5,
      "v": 80
    },
    {
      "midi": 62,
      "hit": false,
      "t": 110312.5,
      "d": 937.5,
      "v": 80
    },
    {
      "midi": 65,
      "hit": false,
      "t": 110312.5,
      "d": 937.5,
      "v": 80
    },
    {
      "midi": 39,
      "hit": false,
      "t": 111250,
      "d": 312.5,
      "v": 80
    },
    {
      "midi": 51,
      "hit": false,
      "t": 111250,
      "d": 312.5,
      "v": 80
    },
    {
      "midi": 63,
      "hit": false,
      "t": 111250,
      "d": 312.5,
      "v": 80
    },
    {
      "midi": 67,
      "hit": false,
      "t": 111250,
      "d": 312.5,
      "v": 80
    },
    {
      "midi": 70,
      "hit": false,
      "t": 111250,
      "d": 312.5,
      "v": 80
    },
    {
      "midi": 63,
      "hit": false,
      "t": 111562.5,
      "d": 312.5,
      "v": 80
    },
    {
      "midi": 67,
      "hit": false,
      "t": 111562.5,
      "d": 312.5,
      "v": 80
    },
    {
      "midi": 70,
      "hit": false,
      "t": 111562.5,
      "d": 312.5,
      "v": 80
    },
    {
      "midi": 39,
      "hit": false,
      "t": 111875,
      "d": 312.5,
      "v": 80
    },
    {
      "midi": 51,
      "hit": false,
      "t": 111875,
      "d": 312.5,
      "v": 80
    },
    {
      "midi": 63,
      "hit": false,
      "t": 111875,
      "d": 312.5,
      "v": 80
    },
    {
      "midi": 67,
      "hit": false,
      "t": 111875,
      "d": 312.5,
      "v": 80
    },
    {
      "midi": 70,
      "hit": false,
      "t": 111875,
      "d": 312.5,
      "v": 80
    },
    {
      "midi": 63,
      "hit": false,
      "t": 112187.5,
      "d": 312.5,
      "v": 80
    },
    {
      "midi": 67,
      "hit": false,
      "t": 112187.5,
      "d": 312.5,
      "v": 80
    },
    {
      "midi": 70,
      "hit": false,
      "t": 112187.5,
      "d": 312.5,
      "v": 80
    },
    {
      "midi": 38,
      "hit": false,
      "t": 112500,
      "d": 312.5,
      "v": 80
    },
    {
      "midi": 50,
      "hit": false,
      "t": 112500,
      "d": 312.5,
      "v": 80
    },
    {
      "midi": 62,
      "hit": false,
      "t": 112500,
      "d": 312.5,
      "v": 80
    },
    {
      "midi": 65,
      "hit": false,
      "t": 112500,
      "d": 312.5,
      "v": 80
    },
    {
      "midi": 68,
      "hit": false,
      "t": 112500,
      "d": 312.5,
      "v": 80
    },
    {
      "midi": 70,
      "hit": false,
      "t": 112500,
      "d": 312.5,
      "v": 80
    },
    {
      "midi": 62,
      "hit": false,
      "t": 112812.5,
      "d": 156.25,
      "v": 80
    },
    {
      "midi": 65,
      "hit": false,
      "t": 112812.5,
      "d": 156.25,
      "v": 80
    },
    {
      "midi": 68,
      "hit": false,
      "t": 112812.5,
      "d": 156.25,
      "v": 80
    },
    {
      "midi": 70,
      "hit": false,
      "t": 112812.5,
      "d": 156.25,
      "v": 80
    },
    {
      "midi": 65,
      "hit": false,
      "t": 112968.75,
      "d": 312.5,
      "v": 80
    },
    {
      "midi": 68,
      "hit": false,
      "t": 112968.75,
      "d": 312.5,
      "v": 80
    },
    {
      "midi": 70,
      "hit": false,
      "t": 112968.75,
      "d": 312.5,
      "v": 80
    },
    {
      "midi": 74,
      "hit": false,
      "t": 112968.75,
      "d": 312.5,
      "v": 80
    },
    {
      "midi": 38,
      "hit": false,
      "t": 113125,
      "d": 312.5,
      "v": 80
    },
    {
      "midi": 50,
      "hit": false,
      "t": 113125,
      "d": 312.5,
      "v": 80
    },
    {
      "midi": 62,
      "hit": false,
      "t": 113281.25,
      "d": 468.75,
      "v": 80
    },
    {
      "midi": 65,
      "hit": false,
      "t": 113281.25,
      "d": 468.75,
      "v": 80
    },
    {
      "midi": 68,
      "hit": false,
      "t": 113281.25,
      "d": 468.75,
      "v": 80
    },
    {
      "midi": 70,
      "hit": false,
      "t": 113281.25,
      "d": 468.75,
      "v": 80
    },
    {
      "midi": 38,
      "hit": false,
      "t": 113437.5,
      "d": 312.5,
      "v": 80
    },
    {
      "midi": 50,
      "hit": false,
      "t": 113437.5,
      "d": 312.5,
      "v": 80
    },
    {
      "midi": 36,
      "hit": false,
      "t": 113750,
      "d": 312.5,
      "v": 80
    },
    {
      "midi": 48,
      "hit": false,
      "t": 113750,
      "d": 312.5,
      "v": 80
    },
    {
      "midi": 63,
      "hit": false,
      "t": 113750,
      "d": 312.5,
      "v": 80
    },
    {
      "midi": 67,
      "hit": false,
      "t": 113750,
      "d": 312.5,
      "v": 80
    },
    {
      "midi": 72,
      "hit": false,
      "t": 113750,
      "d": 312.5,
      "v": 80
    },
    {
      "midi": 63,
      "hit": false,
      "t": 114062.5,
      "d": 312.5,
      "v": 80
    },
    {
      "midi": 67,
      "hit": false,
      "t": 114062.5,
      "d": 312.5,
      "v": 80
    },
    {
      "midi": 72,
      "hit": false,
      "t": 114062.5,
      "d": 312.5,
      "v": 80
    },
    {
      "midi": 60,
      "hit": false,
      "t": 114375,
      "d": 156.25,
      "v": 80
    },
    {
      "midi": 63,
      "hit": false,
      "t": 114375,
      "d": 156.25,
      "v": 80
    },
    {
      "midi": 67,
      "hit": false,
      "t": 114375,
      "d": 156.25,
      "v": 80
    },
    {
      "midi": 36,
      "hit": false,
      "t": 114375,
      "d": 312.5,
      "v": 80
    },
    {
      "midi": 48,
      "hit": false,
      "t": 114375,
      "d": 312.5,
      "v": 80
    },
    {
      "midi": 60,
      "hit": false,
      "t": 114531.25,
      "d": 468.75,
      "v": 80
    },
    {
      "midi": 63,
      "hit": false,
      "t": 114531.25,
      "d": 468.75,
      "v": 80
    },
    {
      "midi": 67,
      "hit": false,
      "t": 114531.25,
      "d": 468.75,
      "v": 80
    },
    {
      "midi": 31,
      "hit": false,
      "t": 115000,
      "d": 625,
      "v": 80
    },
    {
      "midi": 43,
      "hit": false,
      "t": 115000,
      "d": 625,
      "v": 80
    },
    {
      "midi": 62,
      "hit": false,
      "t": 115000,
      "d": 625,
      "v": 80
    },
    {
      "midi": 67,
      "hit": false,
      "t": 115000,
      "d": 625,
      "v": 80
    },
    {
      "midi": 70,
      "hit": false,
      "t": 115000,
      "d": 625,
      "v": 80
    },
    {
      "midi": 32,
      "hit": false,
      "t": 115625,
      "d": 625,
      "v": 80
    },
    {
      "midi": 44,
      "hit": false,
      "t": 115625,
      "d": 625,
      "v": 80
    },
    {
      "midi": 60,
      "hit": false,
      "t": 115625,
      "d": 625,
      "v": 80
    },
    {
      "midi": 63,
      "hit": false,
      "t": 115625,
      "d": 625,
      "v": 80
    },
    {
      "midi": 68,
      "hit": false,
      "t": 115625,
      "d": 625,
      "v": 80
    },
    {
      "midi": 39,
      "hit": false,
      "t": 116250,
      "d": 312.5,
      "v": 80
    },
    {
      "midi": 51,
      "hit": false,
      "t": 116250,
      "d": 312.5,
      "v": 80
    },
    {
      "midi": 63,
      "hit": false,
      "t": 116250,
      "d": 312.5,
      "v": 80
    },
    {
      "midi": 67,
      "hit": false,
      "t": 116250,
      "d": 312.5,
      "v": 80
    },
    {
      "midi": 70,
      "hit": false,
      "t": 116250,
      "d": 312.5,
      "v": 80
    },
    {
      "midi": 63,
      "hit": false,
      "t": 116562.5,
      "d": 312.5,
      "v": 80
    },
    {
      "midi": 67,
      "hit": false,
      "t": 116562.5,
      "d": 312.5,
      "v": 80
    },
    {
      "midi": 70,
      "hit": false,
      "t": 116562.5,
      "d": 312.5,
      "v": 80
    },
    {
      "midi": 39,
      "hit": false,
      "t": 116875,
      "d": 312.5,
      "v": 80
    },
    {
      "midi": 51,
      "hit": false,
      "t": 116875,
      "d": 312.5,
      "v": 80
    },
    {
      "midi": 63,
      "hit": false,
      "t": 116875,
      "d": 312.5,
      "v": 80
    },
    {
      "midi": 67,
      "hit": false,
      "t": 116875,
      "d": 312.5,
      "v": 80
    },
    {
      "midi": 70,
      "hit": false,
      "t": 116875,
      "d": 312.5,
      "v": 80
    },
    {
      "midi": 63,
      "hit": false,
      "t": 117187.5,
      "d": 312.5,
      "v": 80
    },
    {
      "midi": 67,
      "hit": false,
      "t": 117187.5,
      "d": 312.5,
      "v": 80
    },
    {
      "midi": 70,
      "hit": false,
      "t": 117187.5,
      "d": 312.5,
      "v": 80
    },
    {
      "midi": 38,
      "hit": false,
      "t": 117500,
      "d": 312.5,
      "v": 80
    },
    {
      "midi": 50,
      "hit": false,
      "t": 117500,
      "d": 312.5,
      "v": 80
    },
    {
      "midi": 62,
      "hit": false,
      "t": 117500,
      "d": 312.5,
      "v": 80
    },
    {
      "midi": 65,
      "hit": false,
      "t": 117500,
      "d": 312.5,
      "v": 80
    },
    {
      "midi": 68,
      "hit": false,
      "t": 117500,
      "d": 312.5,
      "v": 80
    },
    {
      "midi": 70,
      "hit": false,
      "t": 117500,
      "d": 312.5,
      "v": 80
    },
    {
      "midi": 62,
      "hit": false,
      "t": 117812.5,
      "d": 156.25,
      "v": 80
    },
    {
      "midi": 65,
      "hit": false,
      "t": 117812.5,
      "d": 156.25,
      "v": 80
    },
    {
      "midi": 68,
      "hit": false,
      "t": 117812.5,
      "d": 156.25,
      "v": 80
    },
    {
      "midi": 70,
      "hit": false,
      "t": 117812.5,
      "d": 156.25,
      "v": 80
    },
    {
      "midi": 65,
      "hit": false,
      "t": 117968.75,
      "d": 312.5,
      "v": 80
    },
    {
      "midi": 68,
      "hit": false,
      "t": 117968.75,
      "d": 312.5,
      "v": 80
    },
    {
      "midi": 70,
      "hit": false,
      "t": 117968.75,
      "d": 312.5,
      "v": 80
    },
    {
      "midi": 74,
      "hit": false,
      "t": 117968.75,
      "d": 312.5,
      "v": 80
    },
    {
      "midi": 38,
      "hit": false,
      "t": 118125,
      "d": 312.5,
      "v": 80
    },
    {
      "midi": 50,
      "hit": false,
      "t": 118125,
      "d": 312.5,
      "v": 80
    },
    {
      "midi": 62,
      "hit": false,
      "t": 118281.25,
      "d": 468.75,
      "v": 80
    },
    {
      "midi": 65,
      "hit": false,
      "t": 118281.25,
      "d": 468.75,
      "v": 80
    },
    {
      "midi": 68,
      "hit": false,
      "t": 118281.25,
      "d": 468.75,
      "v": 80
    },
    {
      "midi": 70,
      "hit": false,
      "t": 118281.25,
      "d": 468.75,
      "v": 80
    },
    {
      "midi": 38,
      "hit": false,
      "t": 118437.5,
      "d": 312.5,
      "v": 80
    },
    {
      "midi": 50,
      "hit": false,
      "t": 118437.5,
      "d": 312.5,
      "v": 80
    },
    {
      "midi": 36,
      "hit": false,
      "t": 118750,
      "d": 312.5,
      "v": 80
    },
    {
      "midi": 48,
      "hit": false,
      "t": 118750,
      "d": 312.5,
      "v": 80
    },
    {
      "midi": 63,
      "hit": false,
      "t": 118750,
      "d": 312.5,
      "v": 80
    },
    {
      "midi": 67,
      "hit": false,
      "t": 118750,
      "d": 312.5,
      "v": 80
    },
    {
      "midi": 72,
      "hit": false,
      "t": 118750,
      "d": 312.5,
      "v": 80
    },
    {
      "midi": 63,
      "hit": false,
      "t": 119062.5,
      "d": 312.5,
      "v": 80
    },
    {
      "midi": 67,
      "hit": false,
      "t": 119062.5,
      "d": 312.5,
      "v": 80
    },
    {
      "midi": 72,
      "hit": false,
      "t": 119062.5,
      "d": 312.5,
      "v": 80
    },
    {
      "midi": 36,
      "hit": false,
      "t": 119375,
      "d": 312.5,
      "v": 80
    },
    {
      "midi": 48,
      "hit": false,
      "t": 119375,
      "d": 312.5,
      "v": 80
    },
    {
      "midi": 60,
      "hit": false,
      "t": 119375,
      "d": 312.5,
      "v": 80
    },
    {
      "midi": 63,
      "hit": false,
      "t": 119375,
      "d": 312.5,
      "v": 80
    },
    {
      "midi": 67,
      "hit": false,
      "t": 119375,
      "d": 312.5,
      "v": 80
    },
    {
      "midi": 60,
      "hit": false,
      "t": 119687.5,
      "d": 312.5,
      "v": 80
    },
    {
      "midi": 63,
      "hit": false,
      "t": 119687.5,
      "d": 312.5,
      "v": 80
    },
    {
      "midi": 67,
      "hit": false,
      "t": 119687.5,
      "d": 312.5,
      "v": 80
    },
    {
      "midi": 35,
      "hit": false,
      "t": 120000,
      "d": 312.5,
      "v": 80
    },
    {
      "midi": 47,
      "hit": false,
      "t": 120000,
      "d": 312.5,
      "v": 80
    },
    {
      "midi": 59,
      "hit": false,
      "t": 120000,
      "d": 312.5,
      "v": 80
    },
    {
      "midi": 62,
      "hit": false,
      "t": 120000,
      "d": 312.5,
      "v": 80
    },
    {
      "midi": 65,
      "hit": false,
      "t": 120000,
      "d": 312.5,
      "v": 80
    },
    {
      "midi": 67,
      "hit": false,
      "t": 120000,
      "d": 312.5,
      "v": 80
    },
    {
      "midi": 59,
      "hit": false,
      "t": 120312.5,
      "d": 156.25,
      "v": 80
    },
    {
      "midi": 62,
      "hit": false,
      "t": 120312.5,
      "d": 156.25,
      "v": 80
    },
    {
      "midi": 65,
      "hit": false,
      "t": 120312.5,
      "d": 156.25,
      "v": 80
    },
    {
      "midi": 67,
      "hit": false,
      "t": 120312.5,
      "d": 156.25,
      "v": 80
    },
    {
      "midi": 59,
      "hit": false,
      "t": 120468.75,
      "d": 312.5,
      "v": 80
    },
    {
      "midi": 62,
      "hit": false,
      "t": 120468.75,
      "d": 312.5,
      "v": 80
    },
    {
      "midi": 65,
      "hit": false,
      "t": 120468.75,
      "d": 312.5,
      "v": 80
    },
    {
      "midi": 67,
      "hit": false,
      "t": 120468.75,
      "d": 312.5,
      "v": 80
    },
    {
      "midi": 35,
      "hit": false,
      "t": 120625,
      "d": 312.5,
      "v": 80
    },
    {
      "midi": 47,
      "hit": false,
      "t": 120625,
      "d": 312.5,
      "v": 80
    },
    {
      "midi": 59,
      "hit": false,
      "t": 120781.25,
      "d": 468.75,
      "v": 80
    },
    {
      "midi": 62,
      "hit": false,
      "t": 120781.25,
      "d": 468.75,
      "v": 80
    },
    {
      "midi": 65,
      "hit": false,
      "t": 120781.25,
      "d": 468.75,
      "v": 80
    },
    {
      "midi": 67,
      "hit": false,
      "t": 120781.25,
      "d": 468.75,
      "v": 80
    },
    {
      "midi": 35,
      "hit": false,
      "t": 120937.5,
      "d": 312.5,
      "v": 80
    },
    {
      "midi": 47,
      "hit": false,
      "t": 120937.5,
      "d": 312.5,
      "v": 80
    },
    {
      "midi": 36,
      "hit": false,
      "t": 121250,
      "d": 312.5,
      "v": 80
    },
    {
      "midi": 48,
      "hit": false,
      "t": 121250,
      "d": 312.5,
      "v": 80
    },
    {
      "midi": 60,
      "hit": false,
      "t": 121250,
      "d": 312.5,
      "v": 80
    },
    {
      "midi": 63,
      "hit": false,
      "t": 121250,
      "d": 312.5,
      "v": 80
    },
    {
      "midi": 67,
      "hit": false,
      "t": 121250,
      "d": 312.5,
      "v": 80
    },
    {
      "midi": 60,
      "hit": false,
      "t": 121562.5,
      "d": 312.5,
      "v": 80
    },
    {
      "midi": 63,
      "hit": false,
      "t": 121562.5,
      "d": 312.5,
      "v": 80
    },
    {
      "midi": 67,
      "hit": false,
      "t": 121562.5,
      "d": 312.5,
      "v": 80
    },
    {
      "midi": 31,
      "hit": false,
      "t": 121875,
      "d": 312.5,
      "v": 80
    },
    {
      "midi": 43,
      "hit": false,
      "t": 121875,
      "d": 312.5,
      "v": 80
    },
    {
      "midi": 55,
      "hit": false,
      "t": 121875,
      "d": 312.5,
      "v": 80
    },
    {
      "midi": 58,
      "hit": false,
      "t": 121875,
      "d": 312.5,
      "v": 80
    },
    {
      "midi": 62,
      "hit": false,
      "t": 121875,
      "d": 312.5,
      "v": 80
    },
    {
      "midi": 55,
      "hit": false,
      "t": 122187.5,
      "d": 312.5,
      "v": 80
    },
    {
      "midi": 58,
      "hit": false,
      "t": 122187.5,
      "d": 312.5,
      "v": 80
    },
    {
      "midi": 62,
      "hit": false,
      "t": 122187.5,
      "d": 312.5,
      "v": 80
    },
    {
      "midi": 36,
      "hit": false,
      "t": 122500,
      "d": 312.5,
      "v": 80
    },
    {
      "midi": 48,
      "hit": false,
      "t": 122500,
      "d": 312.5,
      "v": 80
    },
    {
      "midi": 60,
      "hit": false,
      "t": 122500,
      "d": 312.5,
      "v": 80
    },
    {
      "midi": 63,
      "hit": false,
      "t": 122500,
      "d": 312.5,
      "v": 80
    },
    {
      "midi": 67,
      "hit": false,
      "t": 122500,
      "d": 312.5,
      "v": 80
    },
    {
      "midi": 60,
      "hit": false,
      "t": 122812.5,
      "d": 156.25,
      "v": 80
    },
    {
      "midi": 63,
      "hit": false,
      "t": 122812.5,
      "d": 156.25,
      "v": 80
    },
    {
      "midi": 67,
      "hit": false,
      "t": 122812.5,
      "d": 156.25,
      "v": 80
    },
    {
      "midi": 55,
      "hit": false,
      "t": 122968.75,
      "d": 312.5,
      "v": 80
    },
    {
      "midi": 58,
      "hit": false,
      "t": 122968.75,
      "d": 312.5,
      "v": 80
    },
    {
      "midi": 62,
      "hit": false,
      "t": 122968.75,
      "d": 312.5,
      "v": 80
    },
    {
      "midi": 31,
      "hit": false,
      "t": 123125,
      "d": 312.5,
      "v": 80
    },
    {
      "midi": 43,
      "hit": false,
      "t": 123125,
      "d": 312.5,
      "v": 80
    },
    {
      "midi": 55,
      "hit": false,
      "t": 123281.25,
      "d": 468.75,
      "v": 80
    },
    {
      "midi": 58,
      "hit": false,
      "t": 123281.25,
      "d": 468.75,
      "v": 80
    },
    {
      "midi": 62,
      "hit": false,
      "t": 123281.25,
      "d": 468.75,
      "v": 80
    },
    {
      "midi": 31,
      "hit": false,
      "t": 123437.5,
      "d": 312.5,
      "v": 80
    },
    {
      "midi": 43,
      "hit": false,
      "t": 123437.5,
      "d": 312.5,
      "v": 80
    },
    {
      "midi": 56,
      "hit": false,
      "t": 123750,
      "d": 312.5,
      "v": 80
    },
    {
      "midi": 60,
      "hit": false,
      "t": 123750,
      "d": 625,
      "v": 80
    },
    {
      "midi": 65,
      "hit": false,
      "t": 123750,
      "d": 625,
      "v": 80
    },
    {
      "midi": 29,
      "hit": false,
      "t": 123750,
      "d": 1250,
      "v": 80
    },
    {
      "midi": 41,
      "hit": false,
      "t": 123750,
      "d": 1250,
      "v": 80
    },
    {
      "midi": 56,
      "hit": false,
      "t": 124062.5,
      "d": 312.5,
      "v": 80
    },
    {
      "midi": 56,
      "hit": false,
      "t": 124375,
      "d": 312.5,
      "v": 80
    },
    {
      "midi": 60,
      "hit": false,
      "t": 124375,
      "d": 625,
      "v": 80
    },
    {
      "midi": 65,
      "hit": false,
      "t": 124375,
      "d": 625,
      "v": 80
    },
    {
      "midi": 56,
      "hit": false,
      "t": 124687.5,
      "d": 312.5,
      "v": 80
    },
    {
      "midi": 56,
      "hit": false,
      "t": 125000,
      "d": 312.5,
      "v": 80
    },
    {
      "midi": 60,
      "hit": false,
      "t": 125000,
      "d": 625,
      "v": 80
    },
    {
      "midi": 63,
      "hit": false,
      "t": 125000,
      "d": 625,
      "v": 80
    },
    {
      "midi": 32,
      "hit": false,
      "t": 125000,
      "d": 1250,
      "v": 80
    },
    {
      "midi": 44,
      "hit": false,
      "t": 125000,
      "d": 1250,
      "v": 80
    },
    {
      "midi": 56,
      "hit": false,
      "t": 125312.5,
      "d": 312.5,
      "v": 80
    },
    {
      "midi": 56,
      "hit": false,
      "t": 125625,
      "d": 312.5,
      "v": 80
    },
    {
      "midi": 60,
      "hit": false,
      "t": 125625,
      "d": 625,
      "v": 80
    },
    {
      "midi": 63,
      "hit": false,
      "t": 125625,
      "d": 625,
      "v": 80
    },
    {
      "midi": 68,
      "hit": false,
      "t": 125625,
      "d": 625,
      "v": 80
    },
    {
      "midi": 56,
      "hit": false,
      "t": 125937.5,
      "d": 312.5,
      "v": 80
    },
    {
      "midi": 58,
      "hit": false,
      "t": 126250,
      "d": 312.5,
      "v": 80
    },
    {
      "midi": 62,
      "hit": false,
      "t": 126250,
      "d": 625,
      "v": 80
    },
    {
      "midi": 67,
      "hit": false,
      "t": 126250,
      "d": 625,
      "v": 80
    },
    {
      "midi": 31,
      "hit": false,
      "t": 126250,
      "d": 1250,
      "v": 80
    },
    {
      "midi": 43,
      "hit": false,
      "t": 126250,
      "d": 1250,
      "v": 80
    },
    {
      "midi": 58,
      "hit": false,
      "t": 126562.5,
      "d": 312.5,
      "v": 80
    },
    {
      "midi": 58,
      "hit": false,
      "t": 126875,
      "d": 312.5,
      "v": 80
    },
    {
      "midi": 62,
      "hit": false,
      "t": 126875,
      "d": 625,
      "v": 80
    },
    {
      "midi": 67,
      "hit": false,
      "t": 126875,
      "d": 625,
      "v": 80
    },
    {
      "midi": 58,
      "hit": false,
      "t": 127187.5,
      "d": 312.5,
      "v": 80
    },
    {
      "midi": 56,
      "hit": false,
      "t": 127500,
      "d": 312.5,
      "v": 80
    },
    {
      "midi": 59,
      "hit": false,
      "t": 127500,
      "d": 625,
      "v": 80
    },
    {
      "midi": 63,
      "hit": false,
      "t": 127500,
      "d": 625,
      "v": 80
    },
    {
      "midi": 32,
      "hit": false,
      "t": 127500,
      "d": 1250,
      "v": 80
    },
    {
      "midi": 44,
      "hit": false,
      "t": 127500,
      "d": 1250,
      "v": 80
    },
    {
      "midi": 56,
      "hit": false,
      "t": 127812.5,
      "d": 312.5,
      "v": 80
    },
    {
      "midi": 56,
      "hit": false,
      "t": 128125,
      "d": 312.5,
      "v": 80
    },
    {
      "midi": 63,
      "hit": false,
      "t": 128125,
      "d": 312.5,
      "v": 80
    },
    {
      "midi": 59,
      "hit": false,
      "t": 128125,
      "d": 625,
      "v": 80
    },
    {
      "midi": 66,
      "hit": false,
      "t": 128125,
      "d": 625,
      "v": 80
    },
    {
      "midi": 63,
      "hit": false,
      "t": 128437.5,
      "d": 312.5,
      "v": 80
    },
    {
      "midi": 39,
      "hit": false,
      "t": 128750,
      "d": 625,
      "v": 80
    },
    {
      "midi": 51,
      "hit": false,
      "t": 128750,
      "d": 625,
      "v": 80
    },
    {
      "midi": 58,
      "hit": false,
      "t": 128750,
      "d": 625,
      "v": 80
    },
    {
      "midi": 63,
      "hit": false,
      "t": 128750,
      "d": 625,
      "v": 80
    },
    {
      "midi": 67,
      "hit": false,
      "t": 128750,
      "d": 625,
      "v": 80
    },
    {
      "midi": 38,
      "hit": false,
      "t": 129375,
      "d": 625,
      "v": 80
    },
    {
      "midi": 50,
      "hit": false,
      "t": 129375,
      "d": 625,
      "v": 80
    },
    {
      "midi": 58,
      "hit": false,
      "t": 129375,
      "d": 625,
      "v": 80
    },
    {
      "midi": 62,
      "hit": false,
      "t": 129375,
      "d": 625,
      "v": 80
    },
    {
      "midi": 65,
      "hit": false,
      "t": 129375,
      "d": 625,
      "v": 80
    },
    {
      "midi": 36,
      "hit": false,
      "t": 130000,
      "d": 625,
      "v": 80
    },
    {
      "midi": 48,
      "hit": false,
      "t": 130000,
      "d": 625,
      "v": 80
    },
    {
      "midi": 60,
      "hit": false,
      "t": 130000,
      "d": 625,
      "v": 80
    },
    {
      "midi": 63,
      "hit": false,
      "t": 130000,
      "d": 625,
      "v": 80
    },
    {
      "midi": 67,
      "hit": false,
      "t": 130000,
      "d": 625,
      "v": 80
    },
    {
      "midi": 31,
      "hit": false,
      "t": 130625,
      "d": 625,
      "v": 80
    },
    {
      "midi": 43,
      "hit": false,
      "t": 130625,
      "d": 625,
      "v": 80
    },
    {
      "midi": 58,
      "hit": false,
      "t": 130625,
      "d": 625,
      "v": 80
    },
    {
      "midi": 62,
      "hit": false,
      "t": 130625,
      "d": 625,
      "v": 80
    },
    {
      "midi": 67,
      "hit": false,
      "t": 130625,
      "d": 625,
      "v": 80
    },
    {
      "midi": 56,
      "hit": false,
      "t": 131250,
      "d": 625,
      "v": 80
    },
    {
      "midi": 60,
      "hit": false,
      "t": 131250,
      "d": 625,
      "v": 80
    },
    {
      "midi": 63,
      "hit": false,
      "t": 131250,
      "d": 625,
      "v": 80
    },
    {
      "midi": 65,
      "hit": false,
      "t": 131250,
      "d": 625,
      "v": 80
    },
    {
      "midi": 29,
      "hit": false,
      "t": 131250,
      "d": 1250,
      "v": 80
    },
    {
      "midi": 41,
      "hit": false,
      "t": 131250,
      "d": 1250,
      "v": 80
    },
    {
      "midi": 56,
      "hit": false,
      "t": 131875,
      "d": 625,
      "v": 80
    },
    {
      "midi": 60,
      "hit": false,
      "t": 131875,
      "d": 625,
      "v": 80
    },
    {
      "midi": 63,
      "hit": false,
      "t": 131875,
      "d": 625,
      "v": 80
    },
    {
      "midi": 65,
      "hit": false,
      "t": 131875,
      "d": 625,
      "v": 80
    },
    {
      "midi": 32,
      "hit": false,
      "t": 132500,
      "d": 625,
      "v": 80
    },
    {
      "midi": 44,
      "hit": false,
      "t": 132500,
      "d": 625,
      "v": 80
    },
    {
      "midi": 56,
      "hit": false,
      "t": 132500,
      "d": 625,
      "v": 80
    },
    {
      "midi": 60,
      "hit": false,
      "t": 132500,
      "d": 625,
      "v": 80
    },
    {
      "midi": 63,
      "hit": false,
      "t": 132500,
      "d": 625,
      "v": 80
    },
    {
      "midi": 34,
      "hit": false,
      "t": 133125,
      "d": 625,
      "v": 80
    },
    {
      "midi": 46,
      "hit": false,
      "t": 133125,
      "d": 625,
      "v": 80
    },
    {
      "midi": 56,
      "hit": false,
      "t": 133125,
      "d": 625,
      "v": 80
    },
    {
      "midi": 62,
      "hit": false,
      "t": 133125,
      "d": 625,
      "v": 80
    },
    {
      "midi": 65,
      "hit": false,
      "t": 133125,
      "d": 625,
      "v": 80
    },
    {
      "midi": 39,
      "hit": false,
      "t": 133750,
      "d": 312.5,
      "v": 80
    },
    {
      "midi": 51,
      "hit": false,
      "t": 133750,
      "d": 312.5,
      "v": 80
    },
    {
      "midi": 63,
      "hit": false,
      "t": 133750,
      "d": 312.5,
      "v": 80
    },
    {
      "midi": 67,
      "hit": false,
      "t": 133750,
      "d": 312.5,
      "v": 80
    },
    {
      "midi": 70,
      "hit": false,
      "t": 133750,
      "d": 312.5,
      "v": 80
    },
    {
      "midi": 63,
      "hit": false,
      "t": 134062.5,
      "d": 312.5,
      "v": 80
    },
    {
      "midi": 67,
      "hit": false,
      "t": 134062.5,
      "d": 312.5,
      "v": 80
    },
    {
      "midi": 70,
      "hit": false,
      "t": 134062.5,
      "d": 312.5,
      "v": 80
    },
    {
      "midi": 39,
      "hit": false,
      "t": 134375,
      "d": 312.5,
      "v": 80
    },
    {
      "midi": 51,
      "hit": false,
      "t": 134375,
      "d": 312.5,
      "v": 80
    },
    {
      "midi": 63,
      "hit": false,
      "t": 134375,
      "d": 312.5,
      "v": 80
    },
    {
      "midi": 67,
      "hit": false,
      "t": 134375,
      "d": 312.5,
      "v": 80
    },
    {
      "midi": 75,
      "hit": false,
      "t": 134375,
      "d": 312.5,
      "v": 80
    },
    {
      "midi": 63,
      "hit": false,
      "t": 134687.5,
      "d": 312.5,
      "v": 80
    },
    {
      "midi": 67,
      "hit": false,
      "t": 134687.5,
      "d": 312.5,
      "v": 80
    },
    {
      "midi": 70,
      "hit": false,
      "t": 134687.5,
      "d": 312.5,
      "v": 80
    },
    {
      "midi": 39,
      "hit": false,
      "t": 135000,
      "d": 312.5,
      "v": 80
    },
    {
      "midi": 51,
      "hit": false,
      "t": 135000,
      "d": 312.5,
      "v": 80
    },
    {
      "midi": 63,
      "hit": false,
      "t": 135000,
      "d": 312.5,
      "v": 80
    },
    {
      "midi": 67,
      "hit": false,
      "t": 135000,
      "d": 312.5,
      "v": 80
    },
    {
      "midi": 75,
      "hit": false,
      "t": 135000,
      "d": 312.5,
      "v": 80
    },
    {
      "midi": 63,
      "hit": false,
      "t": 135312.5,
      "d": 312.5,
      "v": 80
    },
    {
      "midi": 67,
      "hit": false,
      "t": 135312.5,
      "d": 312.5,
      "v": 80
    },
    {
      "midi": 70,
      "hit": false,
      "t": 135312.5,
      "d": 312.5,
      "v": 80
    },
    {
      "midi": 39,
      "hit": false,
      "t": 135625,
      "d": 312.5,
      "v": 80
    },
    {
      "midi": 51,
      "hit": false,
      "t": 135625,
      "d": 312.5,
      "v": 80
    },
    {
      "midi": 63,
      "hit": false,
      "t": 135625,
      "d": 312.5,
      "v": 80
    },
    {
      "midi": 67,
      "hit": false,
      "t": 135625,
      "d": 312.5,
      "v": 80
    },
    {
      "midi": 75,
      "hit": false,
      "t": 135625,
      "d": 312.5,
      "v": 80
    },
    {
      "midi": 63,
      "hit": false,
      "t": 135937.5,
      "d": 312.5,
      "v": 80
    },
    {
      "midi": 67,
      "hit": false,
      "t": 135937.5,
      "d": 312.5,
      "v": 80
    },
    {
      "midi": 70,
      "hit": false,
      "t": 135937.5,
      "d": 312.5,
      "v": 80
    },
    {
      "midi": 27,
      "hit": false,
      "t": 136093.75,
      "d": 156.25,
      "v": 80
    },
    {
      "midi": 32,
      "hit": false,
      "t": 136250,
      "d": 625,
      "v": 80
    },
    {
      "midi": 44,
      "hit": false,
      "t": 136250,
      "d": 625,
      "v": 80
    },
    {
      "midi": 56,
      "hit": false,
      "t": 136562.5,
      "d": 312.5,
      "v": 80
    },
    {
      "midi": 60,
      "hit": false,
      "t": 136875,
      "d": 312.5,
      "v": 80
    },
    {
      "midi": 63,
      "hit": false,
      "t": 136875,
      "d": 312.5,
      "v": 80
    },
    {
      "midi": 68,
      "hit": false,
      "t": 136875,
      "d": 312.5,
      "v": 80
    },
    {
      "midi": 32,
      "hit": false,
      "t": 136875,
      "d": 625,
      "v": 80
    },
    {
      "midi": 44,
      "hit": false,
      "t": 136875,
      "d": 625,
      "v": 80
    },
    {
      "midi": 56,
      "hit": false,
      "t": 137187.5,
      "d": 312.5,
      "v": 80
    },
    {
      "midi": 58,
      "hit": false,
      "t": 137500,
      "d": 312.5,
      "v": 80
    },
    {
      "midi": 62,
      "hit": false,
      "t": 137500,
      "d": 312.5,
      "v": 80
    },
    {
      "midi": 31,
      "hit": false,
      "t": 137500,
      "d": 625,
      "v": 80
    },
    {
      "midi": 43,
      "hit": false,
      "t": 137500,
      "d": 625,
      "v": 80
    },
    {
      "midi": 55,
      "hit": false,
      "t": 137812.5,
      "d": 312.5,
      "v": 80
    },
    {
      "midi": 60,
      "hit": false,
      "t": 138125,
      "d": 312.5,
      "v": 80
    },
    {
      "midi": 63,
      "hit": false,
      "t": 138125,
      "d": 312.5,
      "v": 80
    },
    {
      "midi": 36,
      "hit": false,
      "t": 138125,
      "d": 625,
      "v": 80
    },
    {
      "midi": 48,
      "hit": false,
      "t": 138125,
      "d": 625,
      "v": 80
    },
    {
      "midi": 55,
      "hit": false,
      "t": 138437.5,
      "d": 312.5,
      "v": 80
    },
    {
      "midi": 56,
      "hit": false,
      "t": 138750,
      "d": 312.5,
      "v": 80
    },
    {
      "midi": 60,
      "hit": false,
      "t": 138750,
      "d": 312.5,
      "v": 80
    },
    {
      "midi": 63,
      "hit": false,
      "t": 138750,
      "d": 312.5,
      "v": 80
    },
    {
      "midi": 29,
      "hit": false,
      "t": 138750,
      "d": 1250,
      "v": 80
    },
    {
      "midi": 41,
      "hit": false,
      "t": 138750,
      "d": 1250,
      "v": 80
    },
    {
      "midi": 56,
      "hit": false,
      "t": 139062.5,
      "d": 312.5,
      "v": 80
    },
    {
      "midi": 60,
      "hit": false,
      "t": 139062.5,
      "d": 312.5,
      "v": 80
    },
    {
      "midi": 63,
      "hit": false,
      "t": 139062.5,
      "d": 312.5,
      "v": 80
    },
    {
      "midi": 56,
      "hit": false,
      "t": 139375,
      "d": 312.5,
      "v": 80
    },
    {
      "midi": 60,
      "hit": false,
      "t": 139375,
      "d": 312.5,
      "v": 80
    },
    {
      "midi": 63,
      "hit": false,
      "t": 139375,
      "d": 312.5,
      "v": 80
    },
    {
      "midi": 56,
      "hit": false,
      "t": 139687.5,
      "d": 312.5,
      "v": 80
    },
    {
      "midi": 60,
      "hit": false,
      "t": 139687.5,
      "d": 312.5,
      "v": 80
    },
    {
      "midi": 63,
      "hit": false,
      "t": 139687.5,
      "d": 312.5,
      "v": 80
    },
    {
      "midi": 29,
      "hit": false,
      "t": 140000,
      "d": 625,
      "v": 80
    },
    {
      "midi": 41,
      "hit": false,
      "t": 140000,
      "d": 625,
      "v": 80
    },
    {
      "midi": 56,
      "hit": false,
      "t": 140000,
      "d": 625,
      "v": 80
    },
    {
      "midi": 60,
      "hit": false,
      "t": 140000,
      "d": 625,
      "v": 80
    },
    {
      "midi": 63,
      "hit": false,
      "t": 140000,
      "d": 625,
      "v": 80
    },
    {
      "midi": 34,
      "hit": false,
      "t": 140625,
      "d": 625,
      "v": 80
    },
    {
      "midi": 46,
      "hit": false,
      "t": 140625,
      "d": 625,
      "v": 80
    },
    {
      "midi": 56,
      "hit": false,
      "t": 140625,
      "d": 625,
      "v": 80
    },
    {
      "midi": 62,
      "hit": false,
      "t": 140625,
      "d": 625,
      "v": 80
    },
    {
      "midi": 65,
      "hit": false,
      "t": 140625,
      "d": 625,
      "v": 80
    },
    {
      "midi": 63,
      "hit": false,
      "t": 141250,
      "d": 312.5,
      "v": 80
    },
    {
      "midi": 67,
      "hit": false,
      "t": 141250,
      "d": 312.5,
      "v": 80
    },
    {
      "midi": 70,
      "hit": false,
      "t": 141250,
      "d": 312.5,
      "v": 80
    },
    {
      "midi": 39,
      "hit": false,
      "t": 141250,
      "d": 625,
      "v": 80
    },
    {
      "midi": 51,
      "hit": false,
      "t": 141250,
      "d": 625,
      "v": 80
    },
    {
      "midi": 63,
      "hit": false,
      "t": 141562.5,
      "d": 156.25,
      "v": 80
    },
    {
      "midi": 75,
      "hit": false,
      "t": 141718.75,
      "d": 312.5,
      "v": 80
    },
    {
      "midi": 39,
      "hit": false,
      "t": 141875,
      "d": 625,
      "v": 80
    },
    {
      "midi": 51,
      "hit": false,
      "t": 141875,
      "d": 625,
      "v": 80
    },
    {
      "midi": 72,
      "hit": false,
      "t": 142031.25,
      "d": 156.25,
      "v": 80
    },
    {
      "midi": 70,
      "hit": false,
      "t": 142187.5,
      "d": 156.25,
      "v": 80
    },
    {
      "midi": 67,
      "hit": false,
      "t": 142343.75,
      "d": 156.25,
      "v": 80
    },
    {
      "midi": 63,
      "hit": false,
      "t": 142500,
      "d": 312.5,
      "v": 80
    },
    {
      "midi": 39,
      "hit": false,
      "t": 142500,
      "d": 625,
      "v": 80
    },
    {
      "midi": 51,
      "hit": false,
      "t": 142500,
      "d": 625,
      "v": 80
    },
    {
      "midi": 67,
      "hit": false,
      "t": 142812.5,
      "d": 312.5,
      "v": 80
    },
    {
      "midi": 34,
      "hit": false,
      "t": 143125,
      "d": 312.5,
      "v": 80
    },
    {
      "midi": 65,
      "hit": false,
      "t": 143125,
      "d": 312.5,
      "v": 80
    },
    {
      "midi": 22,
      "hit": false,
      "t": 143125,
      "d": 625,
      "v": 80
    },
    {
      "midi": 34,
      "hit": false,
      "t": 143437.5,
      "d": 312.5,
      "v": 80
    },
    {
      "midi": 56,
      "hit": false,
      "t": 143437.5,
      "d": 312.5,
      "v": 80
    },
    {
      "midi": 62,
      "hit": false,
      "t": 143437.5,
      "d": 312.5,
      "v": 80
    },
    {
      "midi": 65,
      "hit": false,
      "t": 143437.5,
      "d": 312.5,
      "v": 80
    },
    {
      "midi": 39,
      "hit": false,
      "t": 143750,
      "d": 312.5,
      "v": 80
    },
    {
      "midi": 51,
      "hit": false,
      "t": 143750,
      "d": 312.5,
      "v": 80
    },
    {
      "midi": 63,
      "hit": false,
      "t": 143750,
      "d": 312.5,
      "v": 80
    },
    {
      "midi": 67,
      "hit": false,
      "t": 143750,
      "d": 312.5,
      "v": 80
    },
    {
      "midi": 70,
      "hit": false,
      "t": 143750,
      "d": 312.5,
      "v": 80
    },
    {
      "midi": 63,
      "hit": false,
      "t": 144062.5,
      "d": 312.5,
      "v": 80
    },
    {
      "midi": 67,
      "hit": false,
      "t": 144062.5,
      "d": 312.5,
      "v": 80
    },
    {
      "midi": 75,
      "hit": false,
      "t": 144062.5,
      "d": 312.5,
      "v": 80
    },
    {
      "midi": 39,
      "hit": false,
      "t": 144375,
      "d": 312.5,
      "v": 80
    },
    {
      "midi": 51,
      "hit": false,
      "t": 144375,
      "d": 312.5,
      "v": 80
    },
    {
      "midi": 63,
      "hit": false,
      "t": 144375,
      "d": 312.5,
      "v": 80
    },
    {
      "midi": 67,
      "hit": false,
      "t": 144375,
      "d": 312.5,
      "v": 80
    },
    {
      "midi": 75,
      "hit": false,
      "t": 144375,
      "d": 312.5,
      "v": 80
    },
    {
      "midi": 63,
      "hit": false,
      "t": 144687.5,
      "d": 312.5,
      "v": 80
    },
    {
      "midi": 67,
      "hit": false,
      "t": 144687.5,
      "d": 312.5,
      "v": 80
    },
    {
      "midi": 70,
      "hit": false,
      "t": 144687.5,
      "d": 312.5,
      "v": 80
    },
    {
      "midi": 39,
      "hit": false,
      "t": 145000,
      "d": 312.5,
      "v": 80
    },
    {
      "midi": 51,
      "hit": false,
      "t": 145000,
      "d": 312.5,
      "v": 80
    },
    {
      "midi": 63,
      "hit": false,
      "t": 145000,
      "d": 312.5,
      "v": 80
    },
    {
      "midi": 67,
      "hit": false,
      "t": 145000,
      "d": 312.5,
      "v": 80
    },
    {
      "midi": 75,
      "hit": false,
      "t": 145000,
      "d": 312.5,
      "v": 80
    },
    {
      "midi": 63,
      "hit": false,
      "t": 145312.5,
      "d": 312.5,
      "v": 80
    },
    {
      "midi": 67,
      "hit": false,
      "t": 145312.5,
      "d": 312.5,
      "v": 80
    },
    {
      "midi": 70,
      "hit": false,
      "t": 145312.5,
      "d": 312.5,
      "v": 80
    },
    {
      "midi": 39,
      "hit": false,
      "t": 145625,
      "d": 312.5,
      "v": 80
    },
    {
      "midi": 51,
      "hit": false,
      "t": 145625,
      "d": 312.5,
      "v": 80
    },
    {
      "midi": 63,
      "hit": false,
      "t": 145625,
      "d": 312.5,
      "v": 80
    },
    {
      "midi": 67,
      "hit": false,
      "t": 145625,
      "d": 312.5,
      "v": 80
    },
    {
      "midi": 75,
      "hit": false,
      "t": 145625,
      "d": 312.5,
      "v": 80
    },
    {
      "midi": 63,
      "hit": false,
      "t": 145937.5,
      "d": 312.5,
      "v": 80
    },
    {
      "midi": 67,
      "hit": false,
      "t": 145937.5,
      "d": 312.5,
      "v": 80
    },
    {
      "midi": 70,
      "hit": false,
      "t": 145937.5,
      "d": 312.5,
      "v": 80
    },
    {
      "midi": 63,
      "hit": false,
      "t": 146250,
      "d": 312.5,
      "v": 80
    },
    {
      "midi": 32,
      "hit": false,
      "t": 146250,
      "d": 625,
      "v": 80
    },
    {
      "midi": 44,
      "hit": false,
      "t": 146250,
      "d": 625,
      "v": 80
    },
    {
      "midi": 68,
      "hit": false,
      "t": 146562.5,
      "d": 312.5,
      "v": 80
    },
    {
      "midi": 32,
      "hit": false,
      "t": 146875,
      "d": 625,
      "v": 80
    },
    {
      "midi": 44,
      "hit": false,
      "t": 146875,
      "d": 625,
      "v": 80
    },
    {
      "midi": 60,
      "hit": false,
      "t": 146875,
      "d": 625,
      "v": 80
    },
    {
      "midi": 63,
      "hit": false,
      "t": 146875,
      "d": 625,
      "v": 80
    },
    {
      "midi": 68,
      "hit": false,
      "t": 146875,
      "d": 625,
      "v": 80
    },
    {
      "midi": 31,
      "hit": false,
      "t": 147500,
      "d": 625,
      "v": 80
    },
    {
      "midi": 43,
      "hit": false,
      "t": 147500,
      "d": 625,
      "v": 80
    },
    {
      "midi": 62,
      "hit": false,
      "t": 147500,
      "d": 625,
      "v": 80
    },
    {
      "midi": 67,
      "hit": false,
      "t": 147500,
      "d": 625,
      "v": 80
    },
    {
      "midi": 70,
      "hit": false,
      "t": 147500,
      "d": 625,
      "v": 80
    },
    {
      "midi": 36,
      "hit": false,
      "t": 148125,
      "d": 625,
      "v": 80
    },
    {
      "midi": 48,
      "hit": false,
      "t": 148125,
      "d": 625,
      "v": 80
    },
    {
      "midi": 60,
      "hit": false,
      "t": 148125,
      "d": 625,
      "v": 80
    },
    {
      "midi": 63,
      "hit": false,
      "t": 148125,
      "d": 625,
      "v": 80
    },
    {
      "midi": 67,
      "hit": false,
      "t": 148125,
      "d": 625,
      "v": 80
    },
    {
      "midi": 56,
      "hit": false,
      "t": 148750,
      "d": 312.5,
      "v": 80
    },
    {
      "midi": 60,
      "hit": false,
      "t": 148750,
      "d": 312.5,
      "v": 80
    },
    {
      "midi": 63,
      "hit": false,
      "t": 148750,
      "d": 312.5,
      "v": 80
    },
    {
      "midi": 29,
      "hit": false,
      "t": 148750,
      "d": 1250,
      "v": 80
    },
    {
      "midi": 41,
      "hit": false,
      "t": 148750,
      "d": 1250,
      "v": 80
    },
    {
      "midi": 53,
      "hit": false,
      "t": 149062.5,
      "d": 156.25,
      "v": 80
    },
    {
      "midi": 56,
      "hit": false,
      "t": 149218.75,
      "d": 312.5,
      "v": 80
    },
    {
      "midi": 60,
      "hit": false,
      "t": 149531.25,
      "d": 156.25,
      "v": 80
    },
    {
      "midi": 63,
      "hit": false,
      "t": 149687.5,
      "d": 312.5,
      "v": 80
    },
    {
      "midi": 59,
      "hit": false,
      "t": 150000,
      "d": 312.5,
      "v": 80
    },
    {
      "midi": 63,
      "hit": false,
      "t": 150000,
      "d": 312.5,
      "v": 80
    },
    {
      "midi": 32,
      "hit": false,
      "t": 150000,
      "d": 625,
      "v": 80
    },
    {
      "midi": 44,
      "hit": false,
      "t": 150000,
      "d": 625,
      "v": 80
    },
    {
      "midi": 56,
      "hit": false,
      "t": 150312.5,
      "d": 312.5,
      "v": 80
    },
    {
      "midi": 58,
      "hit": false,
      "t": 150625,
      "d": 312.5,
      "v": 80
    },
    {
      "midi": 62,
      "hit": false,
      "t": 150625,
      "d": 312.5,
      "v": 80
    },
    {
      "midi": 65,
      "hit": false,
      "t": 150625,
      "d": 312.5,
      "v": 80
    },
    {
      "midi": 34,
      "hit": false,
      "t": 150625,
      "d": 625,
      "v": 80
    },
    {
      "midi": 46,
      "hit": false,
      "t": 150625,
      "d": 625,
      "v": 80
    },
    {
      "midi": 56,
      "hit": false,
      "t": 150937.5,
      "d": 312.5,
      "v": 80
    },
    {
      "midi": 55,
      "hit": false,
      "t": 151250,
      "d": 312.5,
      "v": 80
    },
    {
      "midi": 58,
      "hit": false,
      "t": 151250,
      "d": 312.5,
      "v": 80
    },
    {
      "midi": 63,
      "hit": false,
      "t": 151250,
      "d": 312.5,
      "v": 80
    },
    {
      "midi": 27,
      "hit": false,
      "t": 151250,
      "d": 1875,
      "v": 80
    },
    {
      "midi": 39,
      "hit": false,
      "t": 151250,
      "d": 1875,
      "v": 80
    },
    {
      "midi": 63,
      "hit": false,
      "t": 151562.5,
      "d": 156.25,
      "v": 80
    },
    {
      "midi": 75,
      "hit": false,
      "t": 151718.75,
      "d": 312.5,
      "v": 80
    },
    {
      "midi": 72,
      "hit": false,
      "t": 152031.25,
      "d": 156.25,
      "v": 80
    },
    {
      "midi": 70,
      "hit": false,
      "t": 152187.5,
      "d": 312.5,
      "v": 80
    },
    {
      "midi": 63,
      "hit": false,
      "t": 152500,
      "d": 312.5,
      "v": 80
    },
    {
      "midi": 67,
      "hit": false,
      "t": 152500,
      "d": 312.5,
      "v": 80
    },
    {
      "midi": 63,
      "hit": false,
      "t": 152812.5,
      "d": 312.5,
      "v": 80
    },
    {
      "midi": 22,
      "hit": false,
      "t": 153125,
      "d": 625,
      "v": 80
    },
    {
      "midi": 34,
      "hit": false,
      "t": 153125,
      "d": 625,
      "v": 80
    },
    {
      "midi": 56,
      "hit": false,
      "t": 153125,
      "d": 625,
      "v": 80
    },
    {
      "midi": 62,
      "hit": false,
      "t": 153125,
      "d": 625,
      "v": 80
    },
    {
      "midi": 65,
      "hit": false,
      "t": 153125,
      "d": 625,
      "v": 80
    },
    {
      "midi": 39,
      "hit": false,
      "t": 153750,
      "d": 312.5,
      "v": 80
    },
    {
      "midi": 51,
      "hit": false,
      "t": 153750,
      "d": 312.5,
      "v": 80
    },
    {
      "midi": 63,
      "hit": false,
      "t": 153750,
      "d": 312.5,
      "v": 80
    },
    {
      "midi": 67,
      "hit": false,
      "t": 153750,
      "d": 312.5,
      "v": 80
    },
    {
      "midi": 70,
      "hit": false,
      "t": 153750,
      "d": 312.5,
      "v": 80
    },
    {
      "midi": 63,
      "hit": false,
      "t": 154062.5,
      "d": 312.5,
      "v": 80
    },
    {
      "midi": 67,
      "hit": false,
      "t": 154062.5,
      "d": 312.5,
      "v": 80
    },
    {
      "midi": 70,
      "hit": false,
      "t": 154062.5,
      "d": 312.5,
      "v": 80
    },
    {
      "midi": 39,
      "hit": false,
      "t": 154375,
      "d": 312.5,
      "v": 80
    },
    {
      "midi": 51,
      "hit": false,
      "t": 154375,
      "d": 312.5,
      "v": 80
    },
    {
      "midi": 63,
      "hit": false,
      "t": 154375,
      "d": 312.5,
      "v": 80
    },
    {
      "midi": 67,
      "hit": false,
      "t": 154375,
      "d": 312.5,
      "v": 80
    },
    {
      "midi": 70,
      "hit": false,
      "t": 154375,
      "d": 312.5,
      "v": 80
    },
    {
      "midi": 63,
      "hit": false,
      "t": 154687.5,
      "d": 312.5,
      "v": 80
    },
    {
      "midi": 67,
      "hit": false,
      "t": 154687.5,
      "d": 312.5,
      "v": 80
    },
    {
      "midi": 70,
      "hit": false,
      "t": 154687.5,
      "d": 312.5,
      "v": 80
    },
    {
      "midi": 38,
      "hit": false,
      "t": 155000,
      "d": 312.5,
      "v": 80
    },
    {
      "midi": 50,
      "hit": false,
      "t": 155000,
      "d": 312.5,
      "v": 80
    },
    {
      "midi": 62,
      "hit": false,
      "t": 155000,
      "d": 312.5,
      "v": 80
    },
    {
      "midi": 65,
      "hit": false,
      "t": 155000,
      "d": 312.5,
      "v": 80
    },
    {
      "midi": 68,
      "hit": false,
      "t": 155000,
      "d": 312.5,
      "v": 80
    },
    {
      "midi": 70,
      "hit": false,
      "t": 155000,
      "d": 312.5,
      "v": 80
    },
    {
      "midi": 62,
      "hit": false,
      "t": 155312.5,
      "d": 156.25,
      "v": 80
    },
    {
      "midi": 65,
      "hit": false,
      "t": 155312.5,
      "d": 156.25,
      "v": 80
    },
    {
      "midi": 68,
      "hit": false,
      "t": 155312.5,
      "d": 156.25,
      "v": 80
    },
    {
      "midi": 70,
      "hit": false,
      "t": 155312.5,
      "d": 156.25,
      "v": 80
    },
    {
      "midi": 65,
      "hit": false,
      "t": 155468.75,
      "d": 312.5,
      "v": 80
    },
    {
      "midi": 68,
      "hit": false,
      "t": 155468.75,
      "d": 312.5,
      "v": 80
    },
    {
      "midi": 70,
      "hit": false,
      "t": 155468.75,
      "d": 312.5,
      "v": 80
    },
    {
      "midi": 74,
      "hit": false,
      "t": 155468.75,
      "d": 312.5,
      "v": 80
    },
    {
      "midi": 38,
      "hit": false,
      "t": 155625,
      "d": 312.5,
      "v": 80
    },
    {
      "midi": 50,
      "hit": false,
      "t": 155625,
      "d": 312.5,
      "v": 80
    },
    {
      "midi": 62,
      "hit": false,
      "t": 155781.25,
      "d": 468.75,
      "v": 80
    },
    {
      "midi": 65,
      "hit": false,
      "t": 155781.25,
      "d": 468.75,
      "v": 80
    },
    {
      "midi": 68,
      "hit": false,
      "t": 155781.25,
      "d": 468.75,
      "v": 80
    },
    {
      "midi": 70,
      "hit": false,
      "t": 155781.25,
      "d": 468.75,
      "v": 80
    },
    {
      "midi": 38,
      "hit": false,
      "t": 155937.5,
      "d": 312.5,
      "v": 80
    },
    {
      "midi": 50,
      "hit": false,
      "t": 155937.5,
      "d": 312.5,
      "v": 80
    },
    {
      "midi": 36,
      "hit": false,
      "t": 156250,
      "d": 312.5,
      "v": 80
    },
    {
      "midi": 48,
      "hit": false,
      "t": 156250,
      "d": 312.5,
      "v": 80
    },
    {
      "midi": 63,
      "hit": false,
      "t": 156250,
      "d": 312.5,
      "v": 80
    },
    {
      "midi": 67,
      "hit": false,
      "t": 156250,
      "d": 312.5,
      "v": 80
    },
    {
      "midi": 72,
      "hit": false,
      "t": 156250,
      "d": 312.5,
      "v": 80
    },
    {
      "midi": 63,
      "hit": false,
      "t": 156562.5,
      "d": 312.5,
      "v": 80
    },
    {
      "midi": 67,
      "hit": false,
      "t": 156562.5,
      "d": 312.5,
      "v": 80
    },
    {
      "midi": 72,
      "hit": false,
      "t": 156562.5,
      "d": 312.5,
      "v": 80
    },
    {
      "midi": 60,
      "hit": false,
      "t": 156875,
      "d": 156.25,
      "v": 80
    },
    {
      "midi": 63,
      "hit": false,
      "t": 156875,
      "d": 156.25,
      "v": 80
    },
    {
      "midi": 67,
      "hit": false,
      "t": 156875,
      "d": 156.25,
      "v": 80
    },
    {
      "midi": 36,
      "hit": false,
      "t": 156875,
      "d": 312.5,
      "v": 80
    },
    {
      "midi": 48,
      "hit": false,
      "t": 156875,
      "d": 312.5,
      "v": 80
    },
    {
      "midi": 60,
      "hit": false,
      "t": 157031.25,
      "d": 468.75,
      "v": 80
    },
    {
      "midi": 63,
      "hit": false,
      "t": 157031.25,
      "d": 468.75,
      "v": 80
    },
    {
      "midi": 67,
      "hit": false,
      "t": 157031.25,
      "d": 468.75,
      "v": 80
    },
    {
      "midi": 31,
      "hit": false,
      "t": 157500,
      "d": 625,
      "v": 80
    },
    {
      "midi": 43,
      "hit": false,
      "t": 157500,
      "d": 625,
      "v": 80
    },
    {
      "midi": 62,
      "hit": false,
      "t": 157500,
      "d": 625,
      "v": 80
    },
    {
      "midi": 67,
      "hit": false,
      "t": 157500,
      "d": 625,
      "v": 80
    },
    {
      "midi": 70,
      "hit": false,
      "t": 157500,
      "d": 625,
      "v": 80
    },
    {
      "midi": 32,
      "hit": false,
      "t": 158125,
      "d": 625,
      "v": 80
    },
    {
      "midi": 44,
      "hit": false,
      "t": 158125,
      "d": 625,
      "v": 80
    },
    {
      "midi": 60,
      "hit": false,
      "t": 158125,
      "d": 625,
      "v": 80
    },
    {
      "midi": 63,
      "hit": false,
      "t": 158125,
      "d": 625,
      "v": 80
    },
    {
      "midi": 68,
      "hit": false,
      "t": 158125,
      "d": 625,
      "v": 80
    },
    {
      "midi": 39,
      "hit": false,
      "t": 158750,
      "d": 312.5,
      "v": 80
    },
    {
      "midi": 51,
      "hit": false,
      "t": 158750,
      "d": 312.5,
      "v": 80
    },
    {
      "midi": 63,
      "hit": false,
      "t": 158750,
      "d": 312.5,
      "v": 80
    },
    {
      "midi": 67,
      "hit": false,
      "t": 158750,
      "d": 312.5,
      "v": 80
    },
    {
      "midi": 70,
      "hit": false,
      "t": 158750,
      "d": 312.5,
      "v": 80
    },
    {
      "midi": 63,
      "hit": false,
      "t": 159062.5,
      "d": 312.5,
      "v": 80
    },
    {
      "midi": 67,
      "hit": false,
      "t": 159062.5,
      "d": 312.5,
      "v": 80
    },
    {
      "midi": 70,
      "hit": false,
      "t": 159062.5,
      "d": 312.5,
      "v": 80
    },
    {
      "midi": 39,
      "hit": false,
      "t": 159375,
      "d": 312.5,
      "v": 80
    },
    {
      "midi": 51,
      "hit": false,
      "t": 159375,
      "d": 312.5,
      "v": 80
    },
    {
      "midi": 63,
      "hit": false,
      "t": 159375,
      "d": 312.5,
      "v": 80
    },
    {
      "midi": 67,
      "hit": false,
      "t": 159375,
      "d": 312.5,
      "v": 80
    },
    {
      "midi": 70,
      "hit": false,
      "t": 159375,
      "d": 312.5,
      "v": 80
    },
    {
      "midi": 63,
      "hit": false,
      "t": 159687.5,
      "d": 312.5,
      "v": 80
    },
    {
      "midi": 67,
      "hit": false,
      "t": 159687.5,
      "d": 312.5,
      "v": 80
    },
    {
      "midi": 70,
      "hit": false,
      "t": 159687.5,
      "d": 312.5,
      "v": 80
    },
    {
      "midi": 38,
      "hit": false,
      "t": 160000,
      "d": 312.5,
      "v": 80
    },
    {
      "midi": 50,
      "hit": false,
      "t": 160000,
      "d": 312.5,
      "v": 80
    },
    {
      "midi": 62,
      "hit": false,
      "t": 160000,
      "d": 312.5,
      "v": 80
    },
    {
      "midi": 65,
      "hit": false,
      "t": 160000,
      "d": 312.5,
      "v": 80
    },
    {
      "midi": 68,
      "hit": false,
      "t": 160000,
      "d": 312.5,
      "v": 80
    },
    {
      "midi": 70,
      "hit": false,
      "t": 160000,
      "d": 312.5,
      "v": 80
    },
    {
      "midi": 62,
      "hit": false,
      "t": 160312.5,
      "d": 156.25,
      "v": 80
    },
    {
      "midi": 65,
      "hit": false,
      "t": 160312.5,
      "d": 156.25,
      "v": 80
    },
    {
      "midi": 68,
      "hit": false,
      "t": 160312.5,
      "d": 156.25,
      "v": 80
    },
    {
      "midi": 70,
      "hit": false,
      "t": 160312.5,
      "d": 156.25,
      "v": 80
    },
    {
      "midi": 65,
      "hit": false,
      "t": 160468.75,
      "d": 312.5,
      "v": 80
    },
    {
      "midi": 68,
      "hit": false,
      "t": 160468.75,
      "d": 312.5,
      "v": 80
    },
    {
      "midi": 70,
      "hit": false,
      "t": 160468.75,
      "d": 312.5,
      "v": 80
    },
    {
      "midi": 74,
      "hit": false,
      "t": 160468.75,
      "d": 312.5,
      "v": 80
    },
    {
      "midi": 38,
      "hit": false,
      "t": 160625,
      "d": 312.5,
      "v": 80
    },
    {
      "midi": 50,
      "hit": false,
      "t": 160625,
      "d": 312.5,
      "v": 80
    },
    {
      "midi": 62,
      "hit": false,
      "t": 160781.25,
      "d": 468.75,
      "v": 80
    },
    {
      "midi": 65,
      "hit": false,
      "t": 160781.25,
      "d": 468.75,
      "v": 80
    },
    {
      "midi": 68,
      "hit": false,
      "t": 160781.25,
      "d": 468.75,
      "v": 80
    },
    {
      "midi": 70,
      "hit": false,
      "t": 160781.25,
      "d": 468.75,
      "v": 80
    },
    {
      "midi": 38,
      "hit": false,
      "t": 160937.5,
      "d": 312.5,
      "v": 80
    },
    {
      "midi": 50,
      "hit": false,
      "t": 160937.5,
      "d": 312.5,
      "v": 80
    },
    {
      "midi": 36,
      "hit": false,
      "t": 161250,
      "d": 312.5,
      "v": 80
    },
    {
      "midi": 48,
      "hit": false,
      "t": 161250,
      "d": 312.5,
      "v": 80
    },
    {
      "midi": 63,
      "hit": false,
      "t": 161250,
      "d": 312.5,
      "v": 80
    },
    {
      "midi": 67,
      "hit": false,
      "t": 161250,
      "d": 312.5,
      "v": 80
    },
    {
      "midi": 72,
      "hit": false,
      "t": 161250,
      "d": 312.5,
      "v": 80
    },
    {
      "midi": 63,
      "hit": false,
      "t": 161562.5,
      "d": 312.5,
      "v": 80
    },
    {
      "midi": 67,
      "hit": false,
      "t": 161562.5,
      "d": 312.5,
      "v": 80
    },
    {
      "midi": 72,
      "hit": false,
      "t": 161562.5,
      "d": 312.5,
      "v": 80
    },
    {
      "midi": 36,
      "hit": false,
      "t": 161875,
      "d": 312.5,
      "v": 80
    },
    {
      "midi": 48,
      "hit": false,
      "t": 161875,
      "d": 312.5,
      "v": 80
    },
    {
      "midi": 60,
      "hit": false,
      "t": 161875,
      "d": 312.5,
      "v": 80
    },
    {
      "midi": 63,
      "hit": false,
      "t": 161875,
      "d": 312.5,
      "v": 80
    },
    {
      "midi": 67,
      "hit": false,
      "t": 161875,
      "d": 312.5,
      "v": 80
    },
    {
      "midi": 60,
      "hit": false,
      "t": 162187.5,
      "d": 312.5,
      "v": 80
    },
    {
      "midi": 63,
      "hit": false,
      "t": 162187.5,
      "d": 312.5,
      "v": 80
    },
    {
      "midi": 67,
      "hit": false,
      "t": 162187.5,
      "d": 312.5,
      "v": 80
    },
    {
      "midi": 35,
      "hit": false,
      "t": 162500,
      "d": 312.5,
      "v": 80
    },
    {
      "midi": 47,
      "hit": false,
      "t": 162500,
      "d": 312.5,
      "v": 80
    },
    {
      "midi": 59,
      "hit": false,
      "t": 162500,
      "d": 312.5,
      "v": 80
    },
    {
      "midi": 62,
      "hit": false,
      "t": 162500,
      "d": 312.5,
      "v": 80
    },
    {
      "midi": 65,
      "hit": false,
      "t": 162500,
      "d": 312.5,
      "v": 80
    },
    {
      "midi": 67,
      "hit": false,
      "t": 162500,
      "d": 312.5,
      "v": 80
    },
    {
      "midi": 59,
      "hit": false,
      "t": 162812.5,
      "d": 156.25,
      "v": 80
    },
    {
      "midi": 62,
      "hit": false,
      "t": 162812.5,
      "d": 156.25,
      "v": 80
    },
    {
      "midi": 65,
      "hit": false,
      "t": 162812.5,
      "d": 156.25,
      "v": 80
    },
    {
      "midi": 67,
      "hit": false,
      "t": 162812.5,
      "d": 156.25,
      "v": 80
    },
    {
      "midi": 59,
      "hit": false,
      "t": 162968.75,
      "d": 312.5,
      "v": 80
    },
    {
      "midi": 62,
      "hit": false,
      "t": 162968.75,
      "d": 312.5,
      "v": 80
    },
    {
      "midi": 65,
      "hit": false,
      "t": 162968.75,
      "d": 312.5,
      "v": 80
    },
    {
      "midi": 67,
      "hit": false,
      "t": 162968.75,
      "d": 312.5,
      "v": 80
    },
    {
      "midi": 35,
      "hit": false,
      "t": 163125,
      "d": 312.5,
      "v": 80
    },
    {
      "midi": 47,
      "hit": false,
      "t": 163125,
      "d": 312.5,
      "v": 80
    },
    {
      "midi": 59,
      "hit": false,
      "t": 163281.25,
      "d": 468.75,
      "v": 80
    },
    {
      "midi": 62,
      "hit": false,
      "t": 163281.25,
      "d": 468.75,
      "v": 80
    },
    {
      "midi": 65,
      "hit": false,
      "t": 163281.25,
      "d": 468.75,
      "v": 80
    },
    {
      "midi": 67,
      "hit": false,
      "t": 163281.25,
      "d": 468.75,
      "v": 80
    },
    {
      "midi": 35,
      "hit": false,
      "t": 163437.5,
      "d": 312.5,
      "v": 80
    },
    {
      "midi": 47,
      "hit": false,
      "t": 163437.5,
      "d": 312.5,
      "v": 80
    },
    {
      "midi": 36,
      "hit": false,
      "t": 163750,
      "d": 312.5,
      "v": 80
    },
    {
      "midi": 48,
      "hit": false,
      "t": 163750,
      "d": 312.5,
      "v": 80
    },
    {
      "midi": 60,
      "hit": false,
      "t": 163750,
      "d": 312.5,
      "v": 80
    },
    {
      "midi": 63,
      "hit": false,
      "t": 163750,
      "d": 312.5,
      "v": 80
    },
    {
      "midi": 67,
      "hit": false,
      "t": 163750,
      "d": 312.5,
      "v": 80
    },
    {
      "midi": 60,
      "hit": false,
      "t": 164062.5,
      "d": 312.5,
      "v": 80
    },
    {
      "midi": 63,
      "hit": false,
      "t": 164062.5,
      "d": 312.5,
      "v": 80
    },
    {
      "midi": 67,
      "hit": false,
      "t": 164062.5,
      "d": 312.5,
      "v": 80
    },
    {
      "midi": 31,
      "hit": false,
      "t": 164375,
      "d": 312.5,
      "v": 80
    },
    {
      "midi": 43,
      "hit": false,
      "t": 164375,
      "d": 312.5,
      "v": 80
    },
    {
      "midi": 55,
      "hit": false,
      "t": 164375,
      "d": 312.5,
      "v": 80
    },
    {
      "midi": 58,
      "hit": false,
      "t": 164375,
      "d": 312.5,
      "v": 80
    },
    {
      "midi": 62,
      "hit": false,
      "t": 164375,
      "d": 312.5,
      "v": 80
    },
    {
      "midi": 55,
      "hit": false,
      "t": 164687.5,
      "d": 312.5,
      "v": 80
    },
    {
      "midi": 58,
      "hit": false,
      "t": 164687.5,
      "d": 312.5,
      "v": 80
    },
    {
      "midi": 62,
      "hit": false,
      "t": 164687.5,
      "d": 312.5,
      "v": 80
    },
    {
      "midi": 36,
      "hit": false,
      "t": 165000,
      "d": 312.5,
      "v": 80
    },
    {
      "midi": 48,
      "hit": false,
      "t": 165000,
      "d": 312.5,
      "v": 80
    },
    {
      "midi": 60,
      "hit": false,
      "t": 165000,
      "d": 312.5,
      "v": 80
    },
    {
      "midi": 63,
      "hit": false,
      "t": 165000,
      "d": 312.5,
      "v": 80
    },
    {
      "midi": 67,
      "hit": false,
      "t": 165000,
      "d": 312.5,
      "v": 80
    },
    {
      "midi": 60,
      "hit": false,
      "t": 165312.5,
      "d": 156.25,
      "v": 80
    },
    {
      "midi": 63,
      "hit": false,
      "t": 165312.5,
      "d": 156.25,
      "v": 80
    },
    {
      "midi": 67,
      "hit": false,
      "t": 165312.5,
      "d": 156.25,
      "v": 80
    },
    {
      "midi": 55,
      "hit": false,
      "t": 165468.75,
      "d": 312.5,
      "v": 80
    },
    {
      "midi": 58,
      "hit": false,
      "t": 165468.75,
      "d": 312.5,
      "v": 80
    },
    {
      "midi": 62,
      "hit": false,
      "t": 165468.75,
      "d": 312.5,
      "v": 80
    },
    {
      "midi": 31,
      "hit": false,
      "t": 165625,
      "d": 312.5,
      "v": 80
    },
    {
      "midi": 43,
      "hit": false,
      "t": 165625,
      "d": 312.5,
      "v": 80
    },
    {
      "midi": 55,
      "hit": false,
      "t": 165781.25,
      "d": 468.75,
      "v": 80
    },
    {
      "midi": 58,
      "hit": false,
      "t": 165781.25,
      "d": 468.75,
      "v": 80
    },
    {
      "midi": 62,
      "hit": false,
      "t": 165781.25,
      "d": 468.75,
      "v": 80
    },
    {
      "midi": 31,
      "hit": false,
      "t": 165937.5,
      "d": 312.5,
      "v": 80
    },
    {
      "midi": 43,
      "hit": false,
      "t": 165937.5,
      "d": 312.5,
      "v": 80
    },
    {
      "midi": 53,
      "hit": false,
      "t": 166250,
      "d": 312.5,
      "v": 80
    },
    {
      "midi": 56,
      "hit": false,
      "t": 166250,
      "d": 312.5,
      "v": 80
    },
    {
      "midi": 60,
      "hit": false,
      "t": 166250,
      "d": 312.5,
      "v": 80
    },
    {
      "midi": 63,
      "hit": false,
      "t": 166250,
      "d": 312.5,
      "v": 80
    },
    {
      "midi": 29,
      "hit": false,
      "t": 166250,
      "d": 1250,
      "v": 80
    },
    {
      "midi": 41,
      "hit": false,
      "t": 166250,
      "d": 1250,
      "v": 80
    },
    {
      "midi": 53,
      "hit": false,
      "t": 166562.5,
      "d": 156.25,
      "v": 80
    },
    {
      "midi": 56,
      "hit": false,
      "t": 166718.75,
      "d": 312.5,
      "v": 80
    },
    {
      "midi": 53,
      "hit": false,
      "t": 166875,
      "d": 625,
      "v": 80
    },
    {
      "midi": 60,
      "hit": false,
      "t": 167031.25,
      "d": 156.25,
      "v": 80
    },
    {
      "midi": 63,
      "hit": false,
      "t": 167187.5,
      "d": 312.5,
      "v": 80
    },
    {
      "midi": 32,
      "hit": false,
      "t": 167500,
      "d": 1250,
      "v": 80
    },
    {
      "midi": 44,
      "hit": false,
      "t": 167500,
      "d": 1250,
      "v": 80
    },
    {
      "midi": 53,
      "hit": false,
      "t": 167812.5,
      "d": 312.5,
      "v": 80
    },
    {
      "midi": 59,
      "hit": false,
      "t": 168125,
      "d": 312.5,
      "v": 80
    },
    {
      "midi": 63,
      "hit": false,
      "t": 168125,
      "d": 312.5,
      "v": 80
    },
    {
      "midi": 68,
      "hit": false,
      "t": 168125,
      "d": 312.5,
      "v": 80
    },
    {
      "midi": 53,
      "hit": false,
      "t": 168437.5,
      "d": 312.5,
      "v": 80
    },
    {
      "midi": 34,
      "hit": false,
      "t": 168750,
      "d": 312.5,
      "v": 80
    },
    {
      "midi": 46,
      "hit": false,
      "t": 168750,
      "d": 312.5,
      "v": 80
    },
    {
      "midi": 56,
      "hit": false,
      "t": 168750,
      "d": 312.5,
      "v": 80
    },
    {
      "midi": 58,
      "hit": false,
      "t": 168750,
      "d": 312.5,
      "v": 80
    },
    {
      "midi": 62,
      "hit": false,
      "t": 168750,
      "d": 312.5,
      "v": 80
    },
    {
      "midi": 65,
      "hit": false,
      "t": 168750,
      "d": 312.5,
      "v": 80
    },
    {
      "midi": 34,
      "hit": false,
      "t": 169062.5,
      "d": 937.5,
      "v": 80
    },
    {
      "midi": 46,
      "hit": false,
      "t": 169062.5,
      "d": 937.5,
      "v": 80
    },
    {
      "midi": 56,
      "hit": false,
      "t": 169062.5,
      "d": 937.5,
      "v": 80
    },
    {
      "midi": 58,
      "hit": false,
      "t": 169062.5,
      "d": 937.5,
      "v": 80
    },
    {
      "midi": 62,
      "hit": false,
      "t": 169062.5,
      "d": 937.5,
      "v": 80
    },
    {
      "midi": 65,
      "hit": false,
      "t": 169062.5,
      "d": 937.5,
      "v": 80
    },
    {
      "midi": 58,
      "hit": false,
      "t": 170000,
      "d": 312.5,
      "v": 80
    },
    {
      "midi": 63,
      "hit": false,
      "t": 170000,
      "d": 312.5,
      "v": 80
    },
    {
      "midi": 67,
      "hit": false,
      "t": 170000,
      "d": 312.5,
      "v": 80
    },
    {
      "midi": 39,
      "hit": false,
      "t": 170000,
      "d": 1250,
      "v": 80
    },
    {
      "midi": 51,
      "hit": false,
      "t": 170000,
      "d": 1250,
      "v": 80
    },
    {
      "midi": 63,
      "hit": false,
      "t": 170312.5,
      "d": 156.25,
      "v": 80
    },
    {
      "midi": 75,
      "hit": false,
      "t": 170468.75,
      "d": 312.5,
      "v": 80
    },
    {
      "midi": 72,
      "hit": false,
      "t": 170781.25,
      "d": 156.25,
      "v": 80
    },
    {
      "midi": 70,
      "hit": false,
      "t": 170937.5,
      "d": 156.25,
      "v": 80
    },
    {
      "midi": 67,
      "hit": false,
      "t": 171093.75,
      "d": 156.25,
      "v": 80
    },
    {
      "midi": 39,
      "hit": false,
      "t": 171250,
      "d": 312.5,
      "v": 80
    },
    {
      "midi": 51,
      "hit": false,
      "t": 171250,
      "d": 312.5,
      "v": 80
    },
    {
      "midi": 63,
      "hit": false,
      "t": 171250,
      "d": 625,
      "v": 80
    },
    {
      "midi": 34,
      "hit": false,
      "t": 171562.5,
      "d": 312.5,
      "v": 80
    },
    {
      "midi": 46,
      "hit": false,
      "t": 171562.5,
      "d": 312.5,
      "v": 80
    },
    {
      "midi": 39,
      "hit": false,
      "t": 171875,
      "d": 312.5,
      "v": 80
    },
    {
      "midi": 51,
      "hit": false,
      "t": 171875,
      "d": 312.5,
      "v": 80
    },
    {
      "midi": 63,
      "hit": false,
      "t": 171875,
      "d": 312.5,
      "v": 80
    },
    {
      "midi": 67,
      "hit": false,
      "t": 171875,
      "d": 312.5,
      "v": 80
    }
  ]
}