{
  "jsonPath": "World/Kirtan/Alexia/dont-you-know-dimmi-come.json",
  "path": "World\\Kirtan\\Alexia\\Dont You Know (Dimmi Come).mid",
  "name": "Dont You Know (Dimmi Come)",
  "difficulty": "Advanced",
  "bpm": 120,
  "notes": [
    {
      "midi": 50,
      "hit": false,
      "t": 31760,
      "d": 190,
      "v": 108
    },
    {
      "midi": 55,
      "hit": false,
      "t": 31760,
      "d": 200,
      "v": 125
    },
    {
      "midi": 69,
      "hit": false,
      "t": 31760,
      "d": 6352.5,
      "v": 1
    },
    {
      "midi": 72,
      "hit": false,
      "t": 31760,
      "d": 6352.5,
      "v": 1
    },
    {
      "midi": 76,
      "hit": false,
      "t": 31760,
      "d": 6352.5,
      "v": 1
    },
    {
      "midi": 52,
      "hit": false,
      "t": 32000,
      "d": 190,
      "v": 89
    },
    {
      "midi": 57,
      "hit": false,
      "t": 32000,
      "d": 195,
      "v": 94
    },
    {
      "midi": 57,
      "hit": false,
      "t": 32240,
      "d": 120,
      "v": 103
    },
    {
      "midi": 52,
      "hit": false,
      "t": 32240,
      "d": 130,
      "v": 115
    },
    {
      "midi": 50,
      "hit": false,
      "t": 32960,
      "d": 180,
      "v": 96
    },
    {
      "midi": 55,
      "hit": false,
      "t": 32960,
      "d": 195,
      "v": 116
    },
    {
      "midi": 52,
      "hit": false,
      "t": 33200,
      "d": 160,
      "v": 96
    },
    {
      "midi": 57,
      "hit": false,
      "t": 33200,
      "d": 160,
      "v": 102
    },
    {
      "midi": 52,
      "hit": false,
      "t": 33440,
      "d": 120,
      "v": 116
    },
    {
      "midi": 57,
      "hit": false,
      "t": 33440,
      "d": 120,
      "v": 118
    },
    {
      "midi": 57,
      "hit": false,
      "t": 34400,
      "d": 190,
      "v": 112
    },
    {
      "midi": 52,
      "hit": false,
      "t": 34400,
      "d": 200,
      "v": 110
    },
    {
      "midi": 50,
      "hit": false,
      "t": 34640,
      "d": 405,
      "v": 102
    },
    {
      "midi": 55,
      "hit": false,
      "t": 34640,
      "d": 420,
      "v": 113
    },
    {
      "midi": 52,
      "hit": false,
      "t": 35120,
      "d": 135,
      "v": 108
    },
    {
      "midi": 57,
      "hit": false,
      "t": 35120,
      "d": 140,
      "v": 118
    },
    {
      "midi": 50,
      "hit": false,
      "t": 35600,
      "d": 190,
      "v": 116
    },
    {
      "midi": 55,
      "hit": false,
      "t": 35600,
      "d": 200,
      "v": 121
    },
    {
      "midi": 52,
      "hit": false,
      "t": 35840,
      "d": 190,
      "v": 92
    },
    {
      "midi": 57,
      "hit": false,
      "t": 35840,
      "d": 195,
      "v": 91
    },
    {
      "midi": 57,
      "hit": false,
      "t": 36080,
      "d": 120,
      "v": 102
    },
    {
      "midi": 52,
      "hit": false,
      "t": 36080,
      "d": 130,
      "v": 116
    },
    {
      "midi": 50,
      "hit": false,
      "t": 36800,
      "d": 180,
      "v": 99
    },
    {
      "midi": 55,
      "hit": false,
      "t": 36800,
      "d": 195,
      "v": 109
    },
    {
      "midi": 52,
      "hit": false,
      "t": 37040,
      "d": 160,
      "v": 102
    },
    {
      "midi": 57,
      "hit": false,
      "t": 37040,
      "d": 160,
      "v": 103
    },
    {
      "midi": 52,
      "hit": false,
      "t": 37280,
      "d": 120,
      "v": 113
    },
    {
      "midi": 57,
      "hit": false,
      "t": 37280,
      "d": 120,
      "v": 116
    },
    {
      "midi": 57,
      "hit": false,
      "t": 38240,
      "d": 190,
      "v": 112
    },
    {
      "midi": 52,
      "hit": false,
      "t": 38240,
      "d": 200,
      "v": 109
    },
    {
      "midi": 50,
      "hit": false,
      "t": 38480,
      "d": 405,
      "v": 96
    },
    {
      "midi": 55,
      "hit": false,
      "t": 38480,
      "d": 420,
      "v": 111
    },
    {
      "midi": 52,
      "hit": false,
      "t": 38960,
      "d": 135,
      "v": 106
    },
    {
      "midi": 57,
      "hit": false,
      "t": 38960,
      "d": 140,
      "v": 121
    },
    {
      "midi": 45,
      "hit": false,
      "t": 39440,
      "d": 50,
      "v": 118
    },
    {
      "midi": 55,
      "hit": false,
      "t": 39440,
      "d": 185,
      "v": 115
    },
    {
      "midi": 57,
      "hit": false,
      "t": 39680,
      "d": 395,
      "v": 114
    },
    {
      "midi": 61,
      "hit": false,
      "t": 39920,
      "d": 240,
      "v": 123
    },
    {
      "midi": 45,
      "hit": false,
      "t": 39920,
      "d": 275,
      "v": 113
    },
    {
      "midi": 64,
      "hit": false,
      "t": 39920,
      "d": 280,
      "v": 111
    },
    {
      "midi": 73,
      "hit": false,
      "t": 39920,
      "d": 717.5,
      "v": 1
    },
    {
      "midi": 76,
      "hit": false,
      "t": 39920,
      "d": 717.5,
      "v": 1
    },
    {
      "midi": 61,
      "hit": false,
      "t": 40280,
      "d": 75,
      "v": 88
    },
    {
      "midi": 64,
      "hit": false,
      "t": 40280,
      "d": 85,
      "v": 85
    },
    {
      "midi": 45,
      "hit": false,
      "t": 40400,
      "d": 120,
      "v": 91
    },
    {
      "midi": 61,
      "hit": false,
      "t": 40640,
      "d": 320,
      "v": 107
    },
    {
      "midi": 64,
      "hit": false,
      "t": 40640,
      "d": 980,
      "v": 118
    },
    {
      "midi": 69,
      "hit": false,
      "t": 40640,
      "d": 477.5,
      "v": 1
    },
    {
      "midi": 73,
      "hit": false,
      "t": 40640,
      "d": 477.5,
      "v": 1
    },
    {
      "midi": 55,
      "hit": false,
      "t": 40640,
      "d": 215,
      "v": 111
    },
    {
      "midi": 45,
      "hit": false,
      "t": 40880,
      "d": 260,
      "v": 105
    },
    {
      "midi": 57,
      "hit": false,
      "t": 40880,
      "d": 175,
      "v": 100
    },
    {
      "midi": 61,
      "hit": false,
      "t": 41120,
      "d": 355,
      "v": 85
    },
    {
      "midi": 67,
      "hit": false,
      "t": 41120,
      "d": 237.5,
      "v": 1
    },
    {
      "midi": 71,
      "hit": false,
      "t": 41120,
      "d": 237.5,
      "v": 1
    },
    {
      "midi": 57,
      "hit": false,
      "t": 41120,
      "d": 290,
      "v": 117
    },
    {
      "midi": 45,
      "hit": false,
      "t": 41360,
      "d": 210,
      "v": 121
    },
    {
      "midi": 69,
      "hit": false,
      "t": 41360,
      "d": 237.5,
      "v": 1
    },
    {
      "midi": 73,
      "hit": false,
      "t": 41360,
      "d": 237.5,
      "v": 1
    },
    {
      "midi": 67,
      "hit": false,
      "t": 41600,
      "d": 237.5,
      "v": 1
    },
    {
      "midi": 71,
      "hit": false,
      "t": 41600,
      "d": 237.5,
      "v": 1
    },
    {
      "midi": 61,
      "hit": false,
      "t": 41840,
      "d": 245,
      "v": 114
    },
    {
      "midi": 64,
      "hit": false,
      "t": 41840,
      "d": 265,
      "v": 114
    },
    {
      "midi": 45,
      "hit": false,
      "t": 41840,
      "d": 420,
      "v": 108
    },
    {
      "midi": 69,
      "hit": false,
      "t": 41840,
      "d": 237.5,
      "v": 1
    },
    {
      "midi": 73,
      "hit": false,
      "t": 41840,
      "d": 237.5,
      "v": 1
    },
    {
      "midi": 67,
      "hit": false,
      "t": 42080,
      "d": 237.5,
      "v": 1
    },
    {
      "midi": 71,
      "hit": false,
      "t": 42080,
      "d": 237.5,
      "v": 1
    },
    {
      "midi": 61,
      "hit": false,
      "t": 42200,
      "d": 140,
      "v": 96
    },
    {
      "midi": 64,
      "hit": false,
      "t": 42200,
      "d": 180,
      "v": 98
    },
    {
      "midi": 57,
      "hit": false,
      "t": 42200,
      "d": 60,
      "v": 94
    },
    {
      "midi": 45,
      "hit": false,
      "t": 42320,
      "d": 20,
      "v": 96
    },
    {
      "midi": 69,
      "hit": false,
      "t": 42320,
      "d": 237.5,
      "v": 1
    },
    {
      "midi": 73,
      "hit": false,
      "t": 42320,
      "d": 237.5,
      "v": 1
    },
    {
      "midi": 55,
      "hit": false,
      "t": 42320,
      "d": 205,
      "v": 117
    },
    {
      "midi": 45,
      "hit": false,
      "t": 42440,
      "d": 10,
      "v": 71
    },
    {
      "midi": 61,
      "hit": false,
      "t": 42560,
      "d": 380,
      "v": 119
    },
    {
      "midi": 64,
      "hit": false,
      "t": 42560,
      "d": 815,
      "v": 121
    },
    {
      "midi": 67,
      "hit": false,
      "t": 42560,
      "d": 237.5,
      "v": 1
    },
    {
      "midi": 71,
      "hit": false,
      "t": 42560,
      "d": 237.5,
      "v": 1
    },
    {
      "midi": 57,
      "hit": false,
      "t": 42560,
      "d": 175,
      "v": 108
    },
    {
      "midi": 45,
      "hit": false,
      "t": 42800,
      "d": 250,
      "v": 108
    },
    {
      "midi": 69,
      "hit": false,
      "t": 42800,
      "d": 237.5,
      "v": 1
    },
    {
      "midi": 73,
      "hit": false,
      "t": 42800,
      "d": 237.5,
      "v": 1
    },
    {
      "midi": 57,
      "hit": false,
      "t": 42800,
      "d": 315,
      "v": 118
    },
    {
      "midi": 61,
      "hit": false,
      "t": 43040,
      "d": 310,
      "v": 100
    },
    {
      "midi": 71,
      "hit": false,
      "t": 43040,
      "d": 477.5,
      "v": 1
    },
    {
      "midi": 74,
      "hit": false,
      "t": 43040,
      "d": 477.5,
      "v": 1
    },
    {
      "midi": 43,
      "hit": false,
      "t": 43280,
      "d": 830,
      "v": 117
    },
    {
      "midi": 55,
      "hit": false,
      "t": 43280,
      "d": 195,
      "v": 115
    },
    {
      "midi": 67,
      "hit": false,
      "t": 43520,
      "d": 237.5,
      "v": 1
    },
    {
      "midi": 71,
      "hit": false,
      "t": 43520,
      "d": 237.5,
      "v": 1
    },
    {
      "midi": 59,
      "hit": false,
      "t": 43760,
      "d": 245,
      "v": 117
    },
    {
      "midi": 62,
      "hit": false,
      "t": 43760,
      "d": 270,
      "v": 114
    },
    {
      "midi": 64,
      "hit": false,
      "t": 43760,
      "d": 952.5,
      "v": 1
    },
    {
      "midi": 67,
      "hit": false,
      "t": 43760,
      "d": 952.5,
      "v": 1
    },
    {
      "midi": 55,
      "hit": false,
      "t": 43760,
      "d": 470,
      "v": 112
    },
    {
      "midi": 62,
      "hit": false,
      "t": 44120,
      "d": 65,
      "v": 68
    },
    {
      "midi": 59,
      "hit": false,
      "t": 44120,
      "d": 75,
      "v": 72
    },
    {
      "midi": 43,
      "hit": false,
      "t": 44240,
      "d": 255,
      "v": 105
    },
    {
      "midi": 52,
      "hit": false,
      "t": 44240,
      "d": 180,
      "v": 103
    },
    {
      "midi": 62,
      "hit": false,
      "t": 44480,
      "d": 90,
      "v": 97
    },
    {
      "midi": 59,
      "hit": false,
      "t": 44480,
      "d": 320,
      "v": 124
    },
    {
      "midi": 55,
      "hit": false,
      "t": 44480,
      "d": 420,
      "v": 112
    },
    {
      "midi": 43,
      "hit": false,
      "t": 44720,
      "d": 215,
      "v": 106
    },
    {
      "midi": 59,
      "hit": false,
      "t": 44960,
      "d": 260,
      "v": 85
    },
    {
      "midi": 52,
      "hit": false,
      "t": 44960,
      "d": 440,
      "v": 114
    },
    {
      "midi": 40,
      "hit": false,
      "t": 45200,
      "d": 205,
      "v": 127
    },
    {
      "midi": 40,
      "hit": false,
      "t": 45680,
      "d": 235,
      "v": 127
    },
    {
      "midi": 59,
      "hit": false,
      "t": 45680,
      "d": 340,
      "v": 104
    },
    {
      "midi": 52,
      "hit": false,
      "t": 45680,
      "d": 315,
      "v": 127
    },
    {
      "midi": 40,
      "hit": false,
      "t": 46040,
      "d": 50,
      "v": 118
    },
    {
      "midi": 50,
      "hit": false,
      "t": 46160,
      "d": 180,
      "v": 119
    },
    {
      "midi": 50,
      "hit": false,
      "t": 46160,
      "d": 210,
      "v": 119
    },
    {
      "midi": 51,
      "hit": false,
      "t": 46400,
      "d": 215,
      "v": 121
    },
    {
      "midi": 51,
      "hit": false,
      "t": 46400,
      "d": 220,
      "v": 115
    },
    {
      "midi": 52,
      "hit": false,
      "t": 46640,
      "d": 220,
      "v": 127
    },
    {
      "midi": 52,
      "hit": false,
      "t": 46640,
      "d": 250,
      "v": 115
    },
    {
      "midi": 45,
      "hit": false,
      "t": 47120,
      "d": 50,
      "v": 120
    },
    {
      "midi": 55,
      "hit": false,
      "t": 47120,
      "d": 185,
      "v": 120
    },
    {
      "midi": 57,
      "hit": false,
      "t": 47360,
      "d": 395,
      "v": 113
    },
    {
      "midi": 61,
      "hit": false,
      "t": 47600,
      "d": 240,
      "v": 117
    },
    {
      "midi": 45,
      "hit": false,
      "t": 47600,
      "d": 275,
      "v": 114
    },
    {
      "midi": 64,
      "hit": false,
      "t": 47600,
      "d": 280,
      "v": 112
    },
    {
      "midi": 73,
      "hit": false,
      "t": 47600,
      "d": 717.5,
      "v": 1
    },
    {
      "midi": 76,
      "hit": false,
      "t": 47600,
      "d": 717.5,
      "v": 1
    },
    {
      "midi": 61,
      "hit": false,
      "t": 47960,
      "d": 75,
      "v": 86
    },
    {
      "midi": 64,
      "hit": false,
      "t": 47960,
      "d": 85,
      "v": 83
    },
    {
      "midi": 45,
      "hit": false,
      "t": 48080,
      "d": 120,
      "v": 98
    },
    {
      "midi": 61,
      "hit": false,
      "t": 48320,
      "d": 320,
      "v": 113
    },
    {
      "midi": 64,
      "hit": false,
      "t": 48320,
      "d": 980,
      "v": 123
    },
    {
      "midi": 69,
      "hit": false,
      "t": 48320,
      "d": 477.5,
      "v": 1
    },
    {
      "midi": 73,
      "hit": false,
      "t": 48320,
      "d": 477.5,
      "v": 1
    },
    {
      "midi": 55,
      "hit": false,
      "t": 48320,
      "d": 215,
      "v": 118
    },
    {
      "midi": 45,
      "hit": false,
      "t": 48560,
      "d": 260,
      "v": 103
    },
    {
      "midi": 57,
      "hit": false,
      "t": 48560,
      "d": 175,
      "v": 99
    },
    {
      "midi": 61,
      "hit": false,
      "t": 48800,
      "d": 355,
      "v": 89
    },
    {
      "midi": 67,
      "hit": false,
      "t": 48800,
      "d": 237.5,
      "v": 1
    },
    {
      "midi": 71,
      "hit": false,
      "t": 48800,
      "d": 237.5,
      "v": 1
    },
    {
      "midi": 57,
      "hit": false,
      "t": 48800,
      "d": 290,
      "v": 116
    },
    {
      "midi": 45,
      "hit": false,
      "t": 49040,
      "d": 210,
      "v": 118
    },
    {
      "midi": 69,
      "hit": false,
      "t": 49040,
      "d": 237.5,
      "v": 1
    },
    {
      "midi": 73,
      "hit": false,
      "t": 49040,
      "d": 237.5,
      "v": 1
    },
    {
      "midi": 67,
      "hit": false,
      "t": 49280,
      "d": 237.5,
      "v": 1
    },
    {
      "midi": 71,
      "hit": false,
      "t": 49280,
      "d": 237.5,
      "v": 1
    },
    {
      "midi": 61,
      "hit": false,
      "t": 49520,
      "d": 245,
      "v": 114
    },
    {
      "midi": 64,
      "hit": false,
      "t": 49520,
      "d": 265,
      "v": 110
    },
    {
      "midi": 45,
      "hit": false,
      "t": 49520,
      "d": 420,
      "v": 108
    },
    {
      "midi": 69,
      "hit": false,
      "t": 49520,
      "d": 237.5,
      "v": 1
    },
    {
      "midi": 73,
      "hit": false,
      "t": 49520,
      "d": 237.5,
      "v": 1
    },
    {
      "midi": 67,
      "hit": false,
      "t": 49760,
      "d": 237.5,
      "v": 1
    },
    {
      "midi": 71,
      "hit": false,
      "t": 49760,
      "d": 237.5,
      "v": 1
    },
    {
      "midi": 61,
      "hit": false,
      "t": 49880,
      "d": 140,
      "v": 92
    },
    {
      "midi": 64,
      "hit": false,
      "t": 49880,
      "d": 180,
      "v": 93
    },
    {
      "midi": 57,
      "hit": false,
      "t": 49880,
      "d": 60,
      "v": 94
    },
    {
      "midi": 45,
      "hit": false,
      "t": 50000,
      "d": 20,
      "v": 99
    },
    {
      "midi": 69,
      "hit": false,
      "t": 50000,
      "d": 237.5,
      "v": 1
    },
    {
      "midi": 73,
      "hit": false,
      "t": 50000,
      "d": 237.5,
      "v": 1
    },
    {
      "midi": 55,
      "hit": false,
      "t": 50000,
      "d": 205,
      "v": 116
    },
    {
      "midi": 45,
      "hit": false,
      "t": 50120,
      "d": 10,
      "v": 72
    },
    {
      "midi": 61,
      "hit": false,
      "t": 50240,
      "d": 380,
      "v": 120
    },
    {
      "midi": 64,
      "hit": false,
      "t": 50240,
      "d": 815,
      "v": 120
    },
    {
      "midi": 67,
      "hit": false,
      "t": 50240,
      "d": 237.5,
      "v": 1
    },
    {
      "midi": 71,
      "hit": false,
      "t": 50240,
      "d": 237.5,
      "v": 1
    },
    {
      "midi": 57,
      "hit": false,
      "t": 50240,
      "d": 175,
      "v": 113
    },
    {
      "midi": 45,
      "hit": false,
      "t": 50480,
      "d": 250,
      "v": 106
    },
    {
      "midi": 69,
      "hit": false,
      "t": 50480,
      "d": 237.5,
      "v": 1
    },
    {
      "midi": 73,
      "hit": false,
      "t": 50480,
      "d": 237.5,
      "v": 1
    },
    {
      "midi": 57,
      "hit": false,
      "t": 50480,
      "d": 315,
      "v": 115
    },
    {
      "midi": 61,
      "hit": false,
      "t": 50720,
      "d": 310,
      "v": 101
    },
    {
      "midi": 71,
      "hit": false,
      "t": 50720,
      "d": 477.5,
      "v": 1
    },
    {
      "midi": 74,
      "hit": false,
      "t": 50720,
      "d": 477.5,
      "v": 1
    },
    {
      "midi": 43,
      "hit": false,
      "t": 50960,
      "d": 830,
      "v": 121
    },
    {
      "midi": 55,
      "hit": false,
      "t": 50960,
      "d": 195,
      "v": 109
    },
    {
      "midi": 67,
      "hit": false,
      "t": 51200,
      "d": 237.5,
      "v": 1
    },
    {
      "midi": 71,
      "hit": false,
      "t": 51200,
      "d": 237.5,
      "v": 1
    },
    {
      "midi": 59,
      "hit": false,
      "t": 51440,
      "d": 245,
      "v": 120
    },
    {
      "midi": 62,
      "hit": false,
      "t": 51440,
      "d": 270,
      "v": 119
    },
    {
      "midi": 64,
      "hit": false,
      "t": 51440,
      "d": 952.5,
      "v": 1
    },
    {
      "midi": 67,
      "hit": false,
      "t": 51440,
      "d": 952.5,
      "v": 1
    },
    {
      "midi": 55,
      "hit": false,
      "t": 51440,
      "d": 470,
      "v": 111
    },
    {
      "midi": 62,
      "hit": false,
      "t": 51800,
      "d": 65,
      "v": 71
    },
    {
      "midi": 59,
      "hit": false,
      "t": 51800,
      "d": 75,
      "v": 69
    },
    {
      "midi": 43,
      "hit": false,
      "t": 51920,
      "d": 255,
      "v": 111
    },
    {
      "midi": 52,
      "hit": false,
      "t": 51920,
      "d": 180,
      "v": 108
    },
    {
      "midi": 62,
      "hit": false,
      "t": 52160,
      "d": 90,
      "v": 103
    },
    {
      "midi": 59,
      "hit": false,
      "t": 52160,
      "d": 320,
      "v": 127
    },
    {
      "midi": 55,
      "hit": false,
      "t": 52160,
      "d": 420,
      "v": 111
    },
    {
      "midi": 43,
      "hit": false,
      "t": 52400,
      "d": 215,
      "v": 114
    },
    {
      "midi": 59,
      "hit": false,
      "t": 52640,
      "d": 260,
      "v": 84
    },
    {
      "midi": 52,
      "hit": false,
      "t": 52640,
      "d": 440,
      "v": 115
    },
    {
      "midi": 40,
      "hit": false,
      "t": 52880,
      "d": 205,
      "v": 121
    },
    {
      "midi": 40,
      "hit": false,
      "t": 53360,
      "d": 235,
      "v": 127
    },
    {
      "midi": 59,
      "hit": false,
      "t": 53360,
      "d": 340,
      "v": 106
    },
    {
      "midi": 40,
      "hit": false,
      "t": 53360,
      "d": 510,
      "v": 108
    },
    {
      "midi": 52,
      "hit": false,
      "t": 53600,
      "d": 175,
      "v": 121
    },
    {
      "midi": 40,
      "hit": false,
      "t": 53720,
      "d": 50,
      "v": 118
    },
    {
      "midi": 50,
      "hit": false,
      "t": 53840,
      "d": 180,
      "v": 116
    },
    {
      "midi": 50,
      "hit": false,
      "t": 53840,
      "d": 260,
      "v": 115
    },
    {
      "midi": 51,
      "hit": false,
      "t": 54080,
      "d": 215,
      "v": 118
    },
    {
      "midi": 52,
      "hit": false,
      "t": 54320,
      "d": 220,
      "v": 127
    },
    {
      "midi": 52,
      "hit": false,
      "t": 54320,
      "d": 235,
      "v": 121
    },
    {
      "midi": 67,
      "hit": false,
      "t": 62720,
      "d": 235,
      "v": 106
    },
    {
      "midi": 73,
      "hit": false,
      "t": 62720,
      "d": 245,
      "v": 119
    },
    {
      "midi": 67,
      "hit": false,
      "t": 63200,
      "d": 285,
      "v": 72
    },
    {
      "midi": 73,
      "hit": false,
      "t": 63200,
      "d": 285,
      "v": 99
    },
    {
      "midi": 67,
      "hit": false,
      "t": 63680,
      "d": 330,
      "v": 60
    },
    {
      "midi": 73,
      "hit": false,
      "t": 63680,
      "d": 330,
      "v": 76
    },
    {
      "midi": 73,
      "hit": false,
      "t": 64160,
      "d": 115,
      "v": 52
    },
    {
      "midi": 67,
      "hit": false,
      "t": 64160,
      "d": 140,
      "v": 47
    },
    {
      "midi": 45,
      "hit": false,
      "t": 77840,
      "d": 50,
      "v": 111
    },
    {
      "midi": 55,
      "hit": false,
      "t": 77840,
      "d": 185,
      "v": 119
    },
    {
      "midi": 57,
      "hit": false,
      "t": 78080,
      "d": 395,
      "v": 113
    },
    {
      "midi": 61,
      "hit": false,
      "t": 78320,
      "d": 240,
      "v": 116
    },
    {
      "midi": 45,
      "hit": false,
      "t": 78320,
      "d": 275,
      "v": 116
    },
    {
      "midi": 64,
      "hit": false,
      "t": 78320,
      "d": 280,
      "v": 120
    },
    {
      "midi": 73,
      "hit": false,
      "t": 78320,
      "d": 717.5,
      "v": 1
    },
    {
      "midi": 76,
      "hit": false,
      "t": 78320,
      "d": 717.5,
      "v": 1
    },
    {
      "midi": 61,
      "hit": false,
      "t": 78680,
      "d": 75,
      "v": 88
    },
    {
      "midi": 64,
      "hit": false,
      "t": 78680,
      "d": 85,
      "v": 81
    },
    {
      "midi": 45,
      "hit": false,
      "t": 78800,
      "d": 120,
      "v": 93
    },
    {
      "midi": 61,
      "hit": false,
      "t": 79040,
      "d": 320,
      "v": 114
    },
    {
      "midi": 64,
      "hit": false,
      "t": 79040,
      "d": 980,
      "v": 125
    },
    {
      "midi": 69,
      "hit": false,
      "t": 79040,
      "d": 477.5,
      "v": 1
    },
    {
      "midi": 73,
      "hit": false,
      "t": 79040,
      "d": 477.5,
      "v": 1
    },
    {
      "midi": 55,
      "hit": false,
      "t": 79040,
      "d": 215,
      "v": 119
    },
    {
      "midi": 45,
      "hit": false,
      "t": 79280,
      "d": 260,
      "v": 100
    },
    {
      "midi": 57,
      "hit": false,
      "t": 79280,
      "d": 175,
      "v": 103
    },
    {
      "midi": 61,
      "hit": false,
      "t": 79520,
      "d": 355,
      "v": 85
    },
    {
      "midi": 67,
      "hit": false,
      "t": 79520,
      "d": 237.5,
      "v": 1
    },
    {
      "midi": 71,
      "hit": false,
      "t": 79520,
      "d": 237.5,
      "v": 1
    },
    {
      "midi": 57,
      "hit": false,
      "t": 79520,
      "d": 290,
      "v": 114
    },
    {
      "midi": 45,
      "hit": false,
      "t": 79760,
      "d": 210,
      "v": 120
    },
    {
      "midi": 69,
      "hit": false,
      "t": 79760,
      "d": 237.5,
      "v": 1
    },
    {
      "midi": 73,
      "hit": false,
      "t": 79760,
      "d": 237.5,
      "v": 1
    },
    {
      "midi": 67,
      "hit": false,
      "t": 80000,
      "d": 237.5,
      "v": 1
    },
    {
      "midi": 71,
      "hit": false,
      "t": 80000,
      "d": 237.5,
      "v": 1
    },
    {
      "midi": 61,
      "hit": false,
      "t": 80240,
      "d": 245,
      "v": 120
    },
    {
      "midi": 64,
      "hit": false,
      "t": 80240,
      "d": 265,
      "v": 111
    },
    {
      "midi": 45,
      "hit": false,
      "t": 80240,
      "d": 420,
      "v": 109
    },
    {
      "midi": 69,
      "hit": false,
      "t": 80240,
      "d": 237.5,
      "v": 1
    },
    {
      "midi": 73,
      "hit": false,
      "t": 80240,
      "d": 237.5,
      "v": 1
    },
    {
      "midi": 67,
      "hit": false,
      "t": 80480,
      "d": 237.5,
      "v": 1
    },
    {
      "midi": 71,
      "hit": false,
      "t": 80480,
      "d": 237.5,
      "v": 1
    },
    {
      "midi": 61,
      "hit": false,
      "t": 80600,
      "d": 140,
      "v": 91
    },
    {
      "midi": 64,
      "hit": false,
      "t": 80600,
      "d": 180,
      "v": 93
    },
    {
      "midi": 57,
      "hit": false,
      "t": 80600,
      "d": 60,
      "v": 98
    },
    {
      "midi": 45,
      "hit": false,
      "t": 80720,
      "d": 20,
      "v": 97
    },
    {
      "midi": 69,
      "hit": false,
      "t": 80720,
      "d": 237.5,
      "v": 1
    },
    {
      "midi": 73,
      "hit": false,
      "t": 80720,
      "d": 237.5,
      "v": 1
    },
    {
      "midi": 55,
      "hit": false,
      "t": 80720,
      "d": 205,
      "v": 116
    },
    {
      "midi": 45,
      "hit": false,
      "t": 80840,
      "d": 10,
      "v": 74
    },
    {
      "midi": 61,
      "hit": false,
      "t": 80960,
      "d": 380,
      "v": 113
    },
    {
      "midi": 64,
      "hit": false,
      "t": 80960,
      "d": 815,
      "v": 127
    },
    {
      "midi": 67,
      "hit": false,
      "t": 80960,
      "d": 237.5,
      "v": 1
    },
    {
      "midi": 71,
      "hit": false,
      "t": 80960,
      "d": 237.5,
      "v": 1
    },
    {
      "midi": 57,
      "hit": false,
      "t": 80960,
      "d": 175,
      "v": 117
    },
    {
      "midi": 45,
      "hit": false,
      "t": 81200,
      "d": 250,
      "v": 108
    },
    {
      "midi": 69,
      "hit": false,
      "t": 81200,
      "d": 237.5,
      "v": 1
    },
    {
      "midi": 73,
      "hit": false,
      "t": 81200,
      "d": 237.5,
      "v": 1
    },
    {
      "midi": 57,
      "hit": false,
      "t": 81200,
      "d": 315,
      "v": 116
    },
    {
      "midi": 61,
      "hit": false,
      "t": 81440,
      "d": 310,
      "v": 97
    },
    {
      "midi": 71,
      "hit": false,
      "t": 81440,
      "d": 477.5,
      "v": 1
    },
    {
      "midi": 74,
      "hit": false,
      "t": 81440,
      "d": 477.5,
      "v": 1
    },
    {
      "midi": 43,
      "hit": false,
      "t": 81680,
      "d": 830,
      "v": 115
    },
    {
      "midi": 55,
      "hit": false,
      "t": 81680,
      "d": 195,
      "v": 115
    },
    {
      "midi": 67,
      "hit": false,
      "t": 81920,
      "d": 237.5,
      "v": 1
    },
    {
      "midi": 71,
      "hit": false,
      "t": 81920,
      "d": 237.5,
      "v": 1
    },
    {
      "midi": 59,
      "hit": false,
      "t": 82160,
      "d": 245,
      "v": 116
    },
    {
      "midi": 62,
      "hit": false,
      "t": 82160,
      "d": 270,
      "v": 117
    },
    {
      "midi": 64,
      "hit": false,
      "t": 82160,
      "d": 952.5,
      "v": 1
    },
    {
      "midi": 67,
      "hit": false,
      "t": 82160,
      "d": 952.5,
      "v": 1
    },
    {
      "midi": 55,
      "hit": false,
      "t": 82160,
      "d": 470,
      "v": 113
    },
    {
      "midi": 62,
      "hit": false,
      "t": 82520,
      "d": 65,
      "v": 73
    },
    {
      "midi": 59,
      "hit": false,
      "t": 82520,
      "d": 75,
      "v": 72
    },
    {
      "midi": 43,
      "hit": false,
      "t": 82640,
      "d": 255,
      "v": 104
    },
    {
      "midi": 52,
      "hit": false,
      "t": 82640,
      "d": 180,
      "v": 104
    },
    {
      "midi": 62,
      "hit": false,
      "t": 82880,
      "d": 90,
      "v": 100
    },
    {
      "midi": 59,
      "hit": false,
      "t": 82880,
      "d": 320,
      "v": 123
    },
    {
      "midi": 55,
      "hit": false,
      "t": 82880,
      "d": 420,
      "v": 113
    },
    {
      "midi": 43,
      "hit": false,
      "t": 83120,
      "d": 215,
      "v": 111
    },
    {
      "midi": 59,
      "hit": false,
      "t": 83360,
      "d": 260,
      "v": 93
    },
    {
      "midi": 52,
      "hit": false,
      "t": 83360,
      "d": 440,
      "v": 116
    },
    {
      "midi": 40,
      "hit": false,
      "t": 83600,
      "d": 205,
      "v": 127
    },
    {
      "midi": 40,
      "hit": false,
      "t": 84080,
      "d": 235,
      "v": 121
    },
    {
      "midi": 59,
      "hit": false,
      "t": 84080,
      "d": 340,
      "v": 104
    },
    {
      "midi": 52,
      "hit": false,
      "t": 84080,
      "d": 315,
      "v": 126
    },
    {
      "midi": 40,
      "hit": false,
      "t": 84440,
      "d": 50,
      "v": 122
    },
    {
      "midi": 50,
      "hit": false,
      "t": 84560,
      "d": 180,
      "v": 123
    },
    {
      "midi": 50,
      "hit": false,
      "t": 84560,
      "d": 210,
      "v": 120
    },
    {
      "midi": 51,
      "hit": false,
      "t": 84800,
      "d": 215,
      "v": 123
    },
    {
      "midi": 51,
      "hit": false,
      "t": 84800,
      "d": 220,
      "v": 118
    },
    {
      "midi": 52,
      "hit": false,
      "t": 85040,
      "d": 220,
      "v": 125
    },
    {
      "midi": 52,
      "hit": false,
      "t": 85040,
      "d": 250,
      "v": 112
    },
    {
      "midi": 45,
      "hit": false,
      "t": 85520,
      "d": 50,
      "v": 111
    },
    {
      "midi": 55,
      "hit": false,
      "t": 85520,
      "d": 185,
      "v": 115
    },
    {
      "midi": 57,
      "hit": false,
      "t": 85760,
      "d": 395,
      "v": 108
    },
    {
      "midi": 61,
      "hit": false,
      "t": 86000,
      "d": 240,
      "v": 117
    },
    {
      "midi": 45,
      "hit": false,
      "t": 86000,
      "d": 275,
      "v": 115
    },
    {
      "midi": 64,
      "hit": false,
      "t": 86000,
      "d": 280,
      "v": 112
    },
    {
      "midi": 73,
      "hit": false,
      "t": 86000,
      "d": 717.5,
      "v": 1
    },
    {
      "midi": 76,
      "hit": false,
      "t": 86000,
      "d": 717.5,
      "v": 1
    },
    {
      "midi": 61,
      "hit": false,
      "t": 86360,
      "d": 75,
      "v": 92
    },
    {
      "midi": 64,
      "hit": false,
      "t": 86360,
      "d": 85,
      "v": 86
    },
    {
      "midi": 45,
      "hit": false,
      "t": 86480,
      "d": 120,
      "v": 95
    },
    {
      "midi": 61,
      "hit": false,
      "t": 86720,
      "d": 320,
      "v": 109
    },
    {
      "midi": 64,
      "hit": false,
      "t": 86720,
      "d": 980,
      "v": 122
    },
    {
      "midi": 69,
      "hit": false,
      "t": 86720,
      "d": 477.5,
      "v": 1
    },
    {
      "midi": 73,
      "hit": false,
      "t": 86720,
      "d": 477.5,
      "v": 1
    },
    {
      "midi": 55,
      "hit": false,
      "t": 86720,
      "d": 215,
      "v": 115
    },
    {
      "midi": 45,
      "hit": false,
      "t": 86960,
      "d": 260,
      "v": 102
    },
    {
      "midi": 57,
      "hit": false,
      "t": 86960,
      "d": 175,
      "v": 106
    },
    {
      "midi": 61,
      "hit": false,
      "t": 87200,
      "d": 355,
      "v": 92
    },
    {
      "midi": 67,
      "hit": false,
      "t": 87200,
      "d": 237.5,
      "v": 1
    },
    {
      "midi": 71,
      "hit": false,
      "t": 87200,
      "d": 237.5,
      "v": 1
    },
    {
      "midi": 57,
      "hit": false,
      "t": 87200,
      "d": 290,
      "v": 113
    },
    {
      "midi": 45,
      "hit": false,
      "t": 87440,
      "d": 210,
      "v": 114
    },
    {
      "midi": 69,
      "hit": false,
      "t": 87440,
      "d": 237.5,
      "v": 1
    },
    {
      "midi": 73,
      "hit": false,
      "t": 87440,
      "d": 237.5,
      "v": 1
    },
    {
      "midi": 67,
      "hit": false,
      "t": 87680,
      "d": 237.5,
      "v": 1
    },
    {
      "midi": 71,
      "hit": false,
      "t": 87680,
      "d": 237.5,
      "v": 1
    },
    {
      "midi": 61,
      "hit": false,
      "t": 87920,
      "d": 245,
      "v": 111
    },
    {
      "midi": 64,
      "hit": false,
      "t": 87920,
      "d": 265,
      "v": 116
    },
    {
      "midi": 45,
      "hit": false,
      "t": 87920,
      "d": 420,
      "v": 110
    },
    {
      "midi": 69,
      "hit": false,
      "t": 87920,
      "d": 237.5,
      "v": 1
    },
    {
      "midi": 73,
      "hit": false,
      "t": 87920,
      "d": 237.5,
      "v": 1
    },
    {
      "midi": 67,
      "hit": false,
      "t": 88160,
      "d": 237.5,
      "v": 1
    },
    {
      "midi": 71,
      "hit": false,
      "t": 88160,
      "d": 237.5,
      "v": 1
    },
    {
      "midi": 61,
      "hit": false,
      "t": 88280,
      "d": 140,
      "v": 91
    },
    {
      "midi": 64,
      "hit": false,
      "t": 88280,
      "d": 180,
      "v": 96
    },
    {
      "midi": 57,
      "hit": false,
      "t": 88280,
      "d": 60,
      "v": 102
    },
    {
      "midi": 45,
      "hit": false,
      "t": 88400,
      "d": 20,
      "v": 99
    },
    {
      "midi": 69,
      "hit": false,
      "t": 88400,
      "d": 237.5,
      "v": 1
    },
    {
      "midi": 73,
      "hit": false,
      "t": 88400,
      "d": 237.5,
      "v": 1
    },
    {
      "midi": 55,
      "hit": false,
      "t": 88400,
      "d": 205,
      "v": 115
    },
    {
      "midi": 45,
      "hit": false,
      "t": 88520,
      "d": 10,
      "v": 72
    },
    {
      "midi": 61,
      "hit": false,
      "t": 88640,
      "d": 380,
      "v": 116
    },
    {
      "midi": 64,
      "hit": false,
      "t": 88640,
      "d": 815,
      "v": 123
    },
    {
      "midi": 67,
      "hit": false,
      "t": 88640,
      "d": 237.5,
      "v": 1
    },
    {
      "midi": 71,
      "hit": false,
      "t": 88640,
      "d": 237.5,
      "v": 1
    },
    {
      "midi": 57,
      "hit": false,
      "t": 88640,
      "d": 175,
      "v": 113
    },
    {
      "midi": 45,
      "hit": false,
      "t": 88880,
      "d": 250,
      "v": 112
    },
    {
      "midi": 69,
      "hit": false,
      "t": 88880,
      "d": 237.5,
      "v": 1
    },
    {
      "midi": 73,
      "hit": false,
      "t": 88880,
      "d": 237.5,
      "v": 1
    },
    {
      "midi": 57,
      "hit": false,
      "t": 88880,
      "d": 315,
      "v": 115
    },
    {
      "midi": 61,
      "hit": false,
      "t": 89120,
      "d": 310,
      "v": 103
    },
    {
      "midi": 71,
      "hit": false,
      "t": 89120,
      "d": 477.5,
      "v": 1
    },
    {
      "midi": 74,
      "hit": false,
      "t": 89120,
      "d": 477.5,
      "v": 1
    },
    {
      "midi": 43,
      "hit": false,
      "t": 89360,
      "d": 830,
      "v": 118
    },
    {
      "midi": 55,
      "hit": false,
      "t": 89360,
      "d": 195,
      "v": 115
    },
    {
      "midi": 67,
      "hit": false,
      "t": 89600,
      "d": 237.5,
      "v": 1
    },
    {
      "midi": 71,
      "hit": false,
      "t": 89600,
      "d": 237.5,
      "v": 1
    },
    {
      "midi": 59,
      "hit": false,
      "t": 89840,
      "d": 245,
      "v": 112
    },
    {
      "midi": 62,
      "hit": false,
      "t": 89840,
      "d": 270,
      "v": 115
    },
    {
      "midi": 64,
      "hit": false,
      "t": 89840,
      "d": 952.5,
      "v": 1
    },
    {
      "midi": 67,
      "hit": false,
      "t": 89840,
      "d": 952.5,
      "v": 1
    },
    {
      "midi": 55,
      "hit": false,
      "t": 89840,
      "d": 470,
      "v": 116
    },
    {
      "midi": 62,
      "hit": false,
      "t": 90200,
      "d": 65,
      "v": 73
    },
    {
      "midi": 59,
      "hit": false,
      "t": 90200,
      "d": 75,
      "v": 71
    },
    {
      "midi": 43,
      "hit": false,
      "t": 90320,
      "d": 255,
      "v": 110
    },
    {
      "midi": 52,
      "hit": false,
      "t": 90320,
      "d": 180,
      "v": 107
    },
    {
      "midi": 62,
      "hit": false,
      "t": 90560,
      "d": 90,
      "v": 104
    },
    {
      "midi": 59,
      "hit": false,
      "t": 90560,
      "d": 320,
      "v": 127
    },
    {
      "midi": 55,
      "hit": false,
      "t": 90560,
      "d": 420,
      "v": 119
    },
    {
      "midi": 43,
      "hit": false,
      "t": 90800,
      "d": 215,
      "v": 105
    },
    {
      "midi": 59,
      "hit": false,
      "t": 91040,
      "d": 260,
      "v": 89
    },
    {
      "midi": 52,
      "hit": false,
      "t": 91040,
      "d": 440,
      "v": 118
    },
    {
      "midi": 40,
      "hit": false,
      "t": 91280,
      "d": 205,
      "v": 120
    },
    {
      "midi": 40,
      "hit": false,
      "t": 91760,
      "d": 235,
      "v": 127
    },
    {
      "midi": 59,
      "hit": false,
      "t": 91760,
      "d": 340,
      "v": 108
    },
    {
      "midi": 40,
      "hit": false,
      "t": 91760,
      "d": 510,
      "v": 104
    },
    {
      "midi": 52,
      "hit": false,
      "t": 92000,
      "d": 175,
      "v": 120
    },
    {
      "midi": 40,
      "hit": false,
      "t": 92120,
      "d": 50,
      "v": 118
    },
    {
      "midi": 50,
      "hit": false,
      "t": 92240,
      "d": 180,
      "v": 116
    },
    {
      "midi": 50,
      "hit": false,
      "t": 92240,
      "d": 260,
      "v": 112
    },
    {
      "midi": 51,
      "hit": false,
      "t": 92480,
      "d": 215,
      "v": 114
    },
    {
      "midi": 52,
      "hit": false,
      "t": 92720,
      "d": 220,
      "v": 126
    },
    {
      "midi": 52,
      "hit": false,
      "t": 92720,
      "d": 235,
      "v": 124
    },
    {
      "midi": 67,
      "hit": false,
      "t": 101120,
      "d": 235,
      "v": 108
    },
    {
      "midi": 73,
      "hit": false,
      "t": 101120,
      "d": 245,
      "v": 115
    },
    {
      "midi": 67,
      "hit": false,
      "t": 101600,
      "d": 285,
      "v": 72
    },
    {
      "midi": 73,
      "hit": false,
      "t": 101600,
      "d": 285,
      "v": 92
    },
    {
      "midi": 67,
      "hit": false,
      "t": 102080,
      "d": 330,
      "v": 66
    },
    {
      "midi": 73,
      "hit": false,
      "t": 102080,
      "d": 330,
      "v": 70
    },
    {
      "midi": 73,
      "hit": false,
      "t": 102560,
      "d": 115,
      "v": 58
    },
    {
      "midi": 67,
      "hit": false,
      "t": 102560,
      "d": 140,
      "v": 52
    },
    {
      "midi": 69,
      "hit": false,
      "t": 102920,
      "d": 1317.5,
      "v": 1
    },
    {
      "midi": 73,
      "hit": false,
      "t": 102920,
      "d": 1317.5,
      "v": 1
    },
    {
      "midi": 67,
      "hit": false,
      "t": 104240,
      "d": 717.5,
      "v": 1
    },
    {
      "midi": 71,
      "hit": false,
      "t": 104240,
      "d": 717.5,
      "v": 1
    },
    {
      "midi": 69,
      "hit": false,
      "t": 104960,
      "d": 477.5,
      "v": 1
    },
    {
      "midi": 73,
      "hit": false,
      "t": 104960,
      "d": 477.5,
      "v": 1
    },
    {
      "midi": 67,
      "hit": false,
      "t": 105440,
      "d": 237.5,
      "v": 1
    },
    {
      "midi": 71,
      "hit": false,
      "t": 105440,
      "d": 237.5,
      "v": 1
    },
    {
      "midi": 69,
      "hit": false,
      "t": 105680,
      "d": 237.5,
      "v": 1
    },
    {
      "midi": 73,
      "hit": false,
      "t": 105680,
      "d": 237.5,
      "v": 1
    },
    {
      "midi": 67,
      "hit": false,
      "t": 105920,
      "d": 237.5,
      "v": 1
    },
    {
      "midi": 71,
      "hit": false,
      "t": 105920,
      "d": 237.5,
      "v": 1
    },
    {
      "midi": 69,
      "hit": false,
      "t": 106160,
      "d": 237.5,
      "v": 1
    },
    {
      "midi": 73,
      "hit": false,
      "t": 106160,
      "d": 237.5,
      "v": 1
    },
    {
      "midi": 67,
      "hit": false,
      "t": 106400,
      "d": 237.5,
      "v": 1
    },
    {
      "midi": 71,
      "hit": false,
      "t": 106400,
      "d": 237.5,
      "v": 1
    },
    {
      "midi": 73,
      "hit": false,
      "t": 106640,
      "d": 957.5,
      "v": 1
    },
    {
      "midi": 76,
      "hit": false,
      "t": 106640,
      "d": 957.5,
      "v": 1
    },
    {
      "midi": 69,
      "hit": false,
      "t": 107600,
      "d": 477.5,
      "v": 1
    },
    {
      "midi": 73,
      "hit": false,
      "t": 107600,
      "d": 477.5,
      "v": 1
    },
    {
      "midi": 67,
      "hit": false,
      "t": 108080,
      "d": 472.5,
      "v": 1
    },
    {
      "midi": 71,
      "hit": false,
      "t": 108080,
      "d": 472.5,
      "v": 1
    },
    {
      "midi": 45,
      "hit": false,
      "t": 116240,
      "d": 50,
      "v": 115
    },
    {
      "midi": 55,
      "hit": false,
      "t": 116240,
      "d": 185,
      "v": 120
    },
    {
      "midi": 57,
      "hit": false,
      "t": 116480,
      "d": 395,
      "v": 112
    },
    {
      "midi": 61,
      "hit": false,
      "t": 116720,
      "d": 240,
      "v": 118
    },
    {
      "midi": 45,
      "hit": false,
      "t": 116720,
      "d": 275,
      "v": 111
    },
    {
      "midi": 64,
      "hit": false,
      "t": 116720,
      "d": 280,
      "v": 118
    },
    {
      "midi": 73,
      "hit": false,
      "t": 116720,
      "d": 717.5,
      "v": 1
    },
    {
      "midi": 76,
      "hit": false,
      "t": 116720,
      "d": 717.5,
      "v": 1
    },
    {
      "midi": 61,
      "hit": false,
      "t": 117080,
      "d": 75,
      "v": 95
    },
    {
      "midi": 64,
      "hit": false,
      "t": 117080,
      "d": 85,
      "v": 86
    },
    {
      "midi": 45,
      "hit": false,
      "t": 117200,
      "d": 120,
      "v": 99
    },
    {
      "midi": 61,
      "hit": false,
      "t": 117440,
      "d": 320,
      "v": 105
    },
    {
      "midi": 64,
      "hit": false,
      "t": 117440,
      "d": 980,
      "v": 123
    },
    {
      "midi": 69,
      "hit": false,
      "t": 117440,
      "d": 477.5,
      "v": 1
    },
    {
      "midi": 73,
      "hit": false,
      "t": 117440,
      "d": 477.5,
      "v": 1
    },
    {
      "midi": 55,
      "hit": false,
      "t": 117440,
      "d": 215,
      "v": 113
    },
    {
      "midi": 45,
      "hit": false,
      "t": 117680,
      "d": 260,
      "v": 97
    },
    {
      "midi": 57,
      "hit": false,
      "t": 117680,
      "d": 175,
      "v": 102
    },
    {
      "midi": 61,
      "hit": false,
      "t": 117920,
      "d": 355,
      "v": 84
    },
    {
      "midi": 67,
      "hit": false,
      "t": 117920,
      "d": 237.5,
      "v": 1
    },
    {
      "midi": 71,
      "hit": false,
      "t": 117920,
      "d": 237.5,
      "v": 1
    },
    {
      "midi": 57,
      "hit": false,
      "t": 117920,
      "d": 290,
      "v": 120
    },
    {
      "midi": 45,
      "hit": false,
      "t": 118160,
      "d": 210,
      "v": 118
    },
    {
      "midi": 69,
      "hit": false,
      "t": 118160,
      "d": 237.5,
      "v": 1
    },
    {
      "midi": 73,
      "hit": false,
      "t": 118160,
      "d": 237.5,
      "v": 1
    },
    {
      "midi": 67,
      "hit": false,
      "t": 118400,
      "d": 237.5,
      "v": 1
    },
    {
      "midi": 71,
      "hit": false,
      "t": 118400,
      "d": 237.5,
      "v": 1
    },
    {
      "midi": 61,
      "hit": false,
      "t": 118640,
      "d": 245,
      "v": 113
    },
    {
      "midi": 64,
      "hit": false,
      "t": 118640,
      "d": 265,
      "v": 112
    },
    {
      "midi": 45,
      "hit": false,
      "t": 118640,
      "d": 420,
      "v": 117
    },
    {
      "midi": 69,
      "hit": false,
      "t": 118640,
      "d": 237.5,
      "v": 1
    },
    {
      "midi": 73,
      "hit": false,
      "t": 118640,
      "d": 237.5,
      "v": 1
    },
    {
      "midi": 67,
      "hit": false,
      "t": 118880,
      "d": 237.5,
      "v": 1
    },
    {
      "midi": 71,
      "hit": false,
      "t": 118880,
      "d": 237.5,
      "v": 1
    },
    {
      "midi": 61,
      "hit": false,
      "t": 119000,
      "d": 140,
      "v": 90
    },
    {
      "midi": 64,
      "hit": false,
      "t": 119000,
      "d": 180,
      "v": 100
    },
    {
      "midi": 57,
      "hit": false,
      "t": 119000,
      "d": 60,
      "v": 94
    },
    {
      "midi": 45,
      "hit": false,
      "t": 119120,
      "d": 20,
      "v": 91
    },
    {
      "midi": 69,
      "hit": false,
      "t": 119120,
      "d": 237.5,
      "v": 1
    },
    {
      "midi": 73,
      "hit": false,
      "t": 119120,
      "d": 237.5,
      "v": 1
    },
    {
      "midi": 55,
      "hit": false,
      "t": 119120,
      "d": 205,
      "v": 120
    },
    {
      "midi": 45,
      "hit": false,
      "t": 119240,
      "d": 10,
      "v": 65
    },
    {
      "midi": 61,
      "hit": false,
      "t": 119360,
      "d": 380,
      "v": 117
    },
    {
      "midi": 64,
      "hit": false,
      "t": 119360,
      "d": 815,
      "v": 122
    },
    {
      "midi": 67,
      "hit": false,
      "t": 119360,
      "d": 237.5,
      "v": 1
    },
    {
      "midi": 71,
      "hit": false,
      "t": 119360,
      "d": 237.5,
      "v": 1
    },
    {
      "midi": 57,
      "hit": false,
      "t": 119360,
      "d": 175,
      "v": 113
    },
    {
      "midi": 45,
      "hit": false,
      "t": 119600,
      "d": 250,
      "v": 105
    },
    {
      "midi": 69,
      "hit": false,
      "t": 119600,
      "d": 237.5,
      "v": 1
    },
    {
      "midi": 73,
      "hit": false,
      "t": 119600,
      "d": 237.5,
      "v": 1
    },
    {
      "midi": 57,
      "hit": false,
      "t": 119600,
      "d": 315,
      "v": 118
    },
    {
      "midi": 61,
      "hit": false,
      "t": 119840,
      "d": 310,
      "v": 97
    },
    {
      "midi": 71,
      "hit": false,
      "t": 119840,
      "d": 477.5,
      "v": 1
    },
    {
      "midi": 74,
      "hit": false,
      "t": 119840,
      "d": 477.5,
      "v": 1
    },
    {
      "midi": 43,
      "hit": false,
      "t": 120080,
      "d": 830,
      "v": 117
    },
    {
      "midi": 55,
      "hit": false,
      "t": 120080,
      "d": 195,
      "v": 114
    },
    {
      "midi": 67,
      "hit": false,
      "t": 120320,
      "d": 237.5,
      "v": 1
    },
    {
      "midi": 71,
      "hit": false,
      "t": 120320,
      "d": 237.5,
      "v": 1
    },
    {
      "midi": 59,
      "hit": false,
      "t": 120560,
      "d": 245,
      "v": 115
    },
    {
      "midi": 62,
      "hit": false,
      "t": 120560,
      "d": 270,
      "v": 112
    },
    {
      "midi": 64,
      "hit": false,
      "t": 120560,
      "d": 952.5,
      "v": 1
    },
    {
      "midi": 67,
      "hit": false,
      "t": 120560,
      "d": 952.5,
      "v": 1
    },
    {
      "midi": 55,
      "hit": false,
      "t": 120560,
      "d": 470,
      "v": 112
    },
    {
      "midi": 62,
      "hit": false,
      "t": 120920,
      "d": 65,
      "v": 77
    },
    {
      "midi": 59,
      "hit": false,
      "t": 120920,
      "d": 75,
      "v": 71
    },
    {
      "midi": 43,
      "hit": false,
      "t": 121040,
      "d": 255,
      "v": 109
    },
    {
      "midi": 52,
      "hit": false,
      "t": 121040,
      "d": 180,
      "v": 106
    },
    {
      "midi": 62,
      "hit": false,
      "t": 121280,
      "d": 90,
      "v": 105
    },
    {
      "midi": 59,
      "hit": false,
      "t": 121280,
      "d": 320,
      "v": 127
    },
    {
      "midi": 55,
      "hit": false,
      "t": 121280,
      "d": 420,
      "v": 120
    },
    {
      "midi": 43,
      "hit": false,
      "t": 121520,
      "d": 215,
      "v": 112
    },
    {
      "midi": 59,
      "hit": false,
      "t": 121760,
      "d": 260,
      "v": 91
    },
    {
      "midi": 52,
      "hit": false,
      "t": 121760,
      "d": 440,
      "v": 121
    },
    {
      "midi": 40,
      "hit": false,
      "t": 122000,
      "d": 205,
      "v": 127
    },
    {
      "midi": 40,
      "hit": false,
      "t": 122480,
      "d": 235,
      "v": 122
    },
    {
      "midi": 59,
      "hit": false,
      "t": 122480,
      "d": 340,
      "v": 104
    },
    {
      "midi": 52,
      "hit": false,
      "t": 122480,
      "d": 315,
      "v": 120
    },
    {
      "midi": 40,
      "hit": false,
      "t": 122840,
      "d": 50,
      "v": 123
    },
    {
      "midi": 50,
      "hit": false,
      "t": 122960,
      "d": 180,
      "v": 114
    },
    {
      "midi": 50,
      "hit": false,
      "t": 122960,
      "d": 210,
      "v": 121
    },
    {
      "midi": 51,
      "hit": false,
      "t": 123200,
      "d": 215,
      "v": 118
    },
    {
      "midi": 51,
      "hit": false,
      "t": 123200,
      "d": 220,
      "v": 122
    },
    {
      "midi": 52,
      "hit": false,
      "t": 123440,
      "d": 220,
      "v": 127
    },
    {
      "midi": 52,
      "hit": false,
      "t": 123440,
      "d": 250,
      "v": 117
    },
    {
      "midi": 45,
      "hit": false,
      "t": 123920,
      "d": 50,
      "v": 113
    },
    {
      "midi": 55,
      "hit": false,
      "t": 123920,
      "d": 185,
      "v": 120
    },
    {
      "midi": 57,
      "hit": false,
      "t": 124160,
      "d": 395,
      "v": 109
    },
    {
      "midi": 61,
      "hit": false,
      "t": 124400,
      "d": 240,
      "v": 116
    },
    {
      "midi": 45,
      "hit": false,
      "t": 124400,
      "d": 275,
      "v": 109
    },
    {
      "midi": 64,
      "hit": false,
      "t": 124400,
      "d": 280,
      "v": 113
    },
    {
      "midi": 73,
      "hit": false,
      "t": 124400,
      "d": 717.5,
      "v": 1
    },
    {
      "midi": 76,
      "hit": false,
      "t": 124400,
      "d": 717.5,
      "v": 1
    },
    {
      "midi": 61,
      "hit": false,
      "t": 124760,
      "d": 75,
      "v": 94
    },
    {
      "midi": 64,
      "hit": false,
      "t": 124760,
      "d": 85,
      "v": 87
    },
    {
      "midi": 45,
      "hit": false,
      "t": 124880,
      "d": 120,
      "v": 95
    },
    {
      "midi": 61,
      "hit": false,
      "t": 125120,
      "d": 320,
      "v": 110
    },
    {
      "midi": 64,
      "hit": false,
      "t": 125120,
      "d": 980,
      "v": 123
    },
    {
      "midi": 69,
      "hit": false,
      "t": 125120,
      "d": 477.5,
      "v": 1
    },
    {
      "midi": 73,
      "hit": false,
      "t": 125120,
      "d": 477.5,
      "v": 1
    },
    {
      "midi": 55,
      "hit": false,
      "t": 125120,
      "d": 215,
      "v": 115
    },
    {
      "midi": 45,
      "hit": false,
      "t": 125360,
      "d": 260,
      "v": 102
    },
    {
      "midi": 57,
      "hit": false,
      "t": 125360,
      "d": 175,
      "v": 104
    },
    {
      "midi": 61,
      "hit": false,
      "t": 125600,
      "d": 355,
      "v": 82
    },
    {
      "midi": 67,
      "hit": false,
      "t": 125600,
      "d": 237.5,
      "v": 1
    },
    {
      "midi": 71,
      "hit": false,
      "t": 125600,
      "d": 237.5,
      "v": 1
    },
    {
      "midi": 57,
      "hit": false,
      "t": 125600,
      "d": 290,
      "v": 119
    },
    {
      "midi": 45,
      "hit": false,
      "t": 125840,
      "d": 210,
      "v": 120
    },
    {
      "midi": 69,
      "hit": false,
      "t": 125840,
      "d": 237.5,
      "v": 1
    },
    {
      "midi": 73,
      "hit": false,
      "t": 125840,
      "d": 237.5,
      "v": 1
    },
    {
      "midi": 67,
      "hit": false,
      "t": 126080,
      "d": 237.5,
      "v": 1
    },
    {
      "midi": 71,
      "hit": false,
      "t": 126080,
      "d": 237.5,
      "v": 1
    },
    {
      "midi": 61,
      "hit": false,
      "t": 126320,
      "d": 245,
      "v": 115
    },
    {
      "midi": 64,
      "hit": false,
      "t": 126320,
      "d": 265,
      "v": 116
    },
    {
      "midi": 45,
      "hit": false,
      "t": 126320,
      "d": 420,
      "v": 108
    },
    {
      "midi": 69,
      "hit": false,
      "t": 126320,
      "d": 237.5,
      "v": 1
    },
    {
      "midi": 73,
      "hit": false,
      "t": 126320,
      "d": 237.5,
      "v": 1
    },
    {
      "midi": 67,
      "hit": false,
      "t": 126560,
      "d": 237.5,
      "v": 1
    },
    {
      "midi": 71,
      "hit": false,
      "t": 126560,
      "d": 237.5,
      "v": 1
    },
    {
      "midi": 61,
      "hit": false,
      "t": 126680,
      "d": 140,
      "v": 95
    },
    {
      "midi": 64,
      "hit": false,
      "t": 126680,
      "d": 180,
      "v": 100
    },
    {
      "midi": 57,
      "hit": false,
      "t": 126680,
      "d": 60,
      "v": 96
    },
    {
      "midi": 45,
      "hit": false,
      "t": 126800,
      "d": 20,
      "v": 91
    },
    {
      "midi": 69,
      "hit": false,
      "t": 126800,
      "d": 237.5,
      "v": 1
    },
    {
      "midi": 73,
      "hit": false,
      "t": 126800,
      "d": 237.5,
      "v": 1
    },
    {
      "midi": 55,
      "hit": false,
      "t": 126800,
      "d": 205,
      "v": 122
    },
    {
      "midi": 45,
      "hit": false,
      "t": 126920,
      "d": 10,
      "v": 70
    },
    {
      "midi": 61,
      "hit": false,
      "t": 127040,
      "d": 380,
      "v": 112
    },
    {
      "midi": 64,
      "hit": false,
      "t": 127040,
      "d": 815,
      "v": 122
    },
    {
      "midi": 67,
      "hit": false,
      "t": 127040,
      "d": 237.5,
      "v": 1
    },
    {
      "midi": 71,
      "hit": false,
      "t": 127040,
      "d": 237.5,
      "v": 1
    },
    {
      "midi": 57,
      "hit": false,
      "t": 127040,
      "d": 175,
      "v": 110
    },
    {
      "midi": 45,
      "hit": false,
      "t": 127280,
      "d": 250,
      "v": 106
    },
    {
      "midi": 69,
      "hit": false,
      "t": 127280,
      "d": 237.5,
      "v": 1
    },
    {
      "midi": 73,
      "hit": false,
      "t": 127280,
      "d": 237.5,
      "v": 1
    },
    {
      "midi": 57,
      "hit": false,
      "t": 127280,
      "d": 315,
      "v": 117
    },
    {
      "midi": 61,
      "hit": false,
      "t": 127520,
      "d": 310,
      "v": 98
    },
    {
      "midi": 71,
      "hit": false,
      "t": 127520,
      "d": 477.5,
      "v": 1
    },
    {
      "midi": 74,
      "hit": false,
      "t": 127520,
      "d": 477.5,
      "v": 1
    },
    {
      "midi": 43,
      "hit": false,
      "t": 127760,
      "d": 830,
      "v": 120
    },
    {
      "midi": 55,
      "hit": false,
      "t": 127760,
      "d": 195,
      "v": 111
    },
    {
      "midi": 67,
      "hit": false,
      "t": 128000,
      "d": 237.5,
      "v": 1
    },
    {
      "midi": 71,
      "hit": false,
      "t": 128000,
      "d": 237.5,
      "v": 1
    },
    {
      "midi": 59,
      "hit": false,
      "t": 128240,
      "d": 245,
      "v": 114
    },
    {
      "midi": 62,
      "hit": false,
      "t": 128240,
      "d": 270,
      "v": 114
    },
    {
      "midi": 64,
      "hit": false,
      "t": 128240,
      "d": 952.5,
      "v": 1
    },
    {
      "midi": 67,
      "hit": false,
      "t": 128240,
      "d": 952.5,
      "v": 1
    },
    {
      "midi": 55,
      "hit": false,
      "t": 128240,
      "d": 470,
      "v": 109
    },
    {
      "midi": 62,
      "hit": false,
      "t": 128600,
      "d": 65,
      "v": 74
    },
    {
      "midi": 59,
      "hit": false,
      "t": 128600,
      "d": 75,
      "v": 71
    },
    {
      "midi": 43,
      "hit": false,
      "t": 128720,
      "d": 255,
      "v": 106
    },
    {
      "midi": 52,
      "hit": false,
      "t": 128720,
      "d": 180,
      "v": 105
    },
    {
      "midi": 62,
      "hit": false,
      "t": 128960,
      "d": 90,
      "v": 99
    },
    {
      "midi": 59,
      "hit": false,
      "t": 128960,
      "d": 320,
      "v": 126
    },
    {
      "midi": 55,
      "hit": false,
      "t": 128960,
      "d": 420,
      "v": 118
    },
    {
      "midi": 43,
      "hit": false,
      "t": 129200,
      "d": 215,
      "v": 110
    },
    {
      "midi": 59,
      "hit": false,
      "t": 129440,
      "d": 260,
      "v": 86
    },
    {
      "midi": 52,
      "hit": false,
      "t": 129440,
      "d": 440,
      "v": 120
    },
    {
      "midi": 40,
      "hit": false,
      "t": 129680,
      "d": 205,
      "v": 120
    },
    {
      "midi": 40,
      "hit": false,
      "t": 130160,
      "d": 235,
      "v": 125
    },
    {
      "midi": 59,
      "hit": false,
      "t": 130160,
      "d": 340,
      "v": 110
    },
    {
      "midi": 40,
      "hit": false,
      "t": 130160,
      "d": 510,
      "v": 106
    },
    {
      "midi": 52,
      "hit": false,
      "t": 130400,
      "d": 175,
      "v": 116
    },
    {
      "midi": 40,
      "hit": false,
      "t": 130520,
      "d": 50,
      "v": 115
    },
    {
      "midi": 50,
      "hit": false,
      "t": 130640,
      "d": 180,
      "v": 124
    },
    {
      "midi": 50,
      "hit": false,
      "t": 130640,
      "d": 260,
      "v": 112
    },
    {
      "midi": 51,
      "hit": false,
      "t": 130880,
      "d": 215,
      "v": 114
    },
    {
      "midi": 52,
      "hit": false,
      "t": 131120,
      "d": 220,
      "v": 127
    },
    {
      "midi": 52,
      "hit": false,
      "t": 131120,
      "d": 235,
      "v": 121
    },
    {
      "midi": 45,
      "hit": false,
      "t": 131600,
      "d": 50,
      "v": 120
    },
    {
      "midi": 55,
      "hit": false,
      "t": 131600,
      "d": 185,
      "v": 121
    },
    {
      "midi": 57,
      "hit": false,
      "t": 131840,
      "d": 395,
      "v": 108
    },
    {
      "midi": 61,
      "hit": false,
      "t": 132080,
      "d": 240,
      "v": 118
    },
    {
      "midi": 45,
      "hit": false,
      "t": 132080,
      "d": 275,
      "v": 108
    },
    {
      "midi": 64,
      "hit": false,
      "t": 132080,
      "d": 280,
      "v": 115
    },
    {
      "midi": 73,
      "hit": false,
      "t": 132080,
      "d": 717.5,
      "v": 1
    },
    {
      "midi": 76,
      "hit": false,
      "t": 132080,
      "d": 717.5,
      "v": 1
    },
    {
      "midi": 61,
      "hit": false,
      "t": 132440,
      "d": 75,
      "v": 87
    },
    {
      "midi": 64,
      "hit": false,
      "t": 132440,
      "d": 85,
      "v": 87
    },
    {
      "midi": 45,
      "hit": false,
      "t": 132560,
      "d": 120,
      "v": 99
    },
    {
      "midi": 61,
      "hit": false,
      "t": 132800,
      "d": 320,
      "v": 111
    },
    {
      "midi": 64,
      "hit": false,
      "t": 132800,
      "d": 980,
      "v": 121
    },
    {
      "midi": 69,
      "hit": false,
      "t": 132800,
      "d": 477.5,
      "v": 1
    },
    {
      "midi": 73,
      "hit": false,
      "t": 132800,
      "d": 477.5,
      "v": 1
    },
    {
      "midi": 55,
      "hit": false,
      "t": 132800,
      "d": 215,
      "v": 116
    },
    {
      "midi": 45,
      "hit": false,
      "t": 133040,
      "d": 260,
      "v": 96
    },
    {
      "midi": 57,
      "hit": false,
      "t": 133040,
      "d": 175,
      "v": 108
    },
    {
      "midi": 61,
      "hit": false,
      "t": 133280,
      "d": 355,
      "v": 82
    },
    {
      "midi": 67,
      "hit": false,
      "t": 133280,
      "d": 237.5,
      "v": 1
    },
    {
      "midi": 71,
      "hit": false,
      "t": 133280,
      "d": 237.5,
      "v": 1
    },
    {
      "midi": 57,
      "hit": false,
      "t": 133280,
      "d": 290,
      "v": 114
    },
    {
      "midi": 45,
      "hit": false,
      "t": 133520,
      "d": 210,
      "v": 116
    },
    {
      "midi": 69,
      "hit": false,
      "t": 133520,
      "d": 237.5,
      "v": 1
    },
    {
      "midi": 73,
      "hit": false,
      "t": 133520,
      "d": 237.5,
      "v": 1
    },
    {
      "midi": 67,
      "hit": false,
      "t": 133760,
      "d": 237.5,
      "v": 1
    },
    {
      "midi": 71,
      "hit": false,
      "t": 133760,
      "d": 237.5,
      "v": 1
    },
    {
      "midi": 61,
      "hit": false,
      "t": 134000,
      "d": 245,
      "v": 114
    },
    {
      "midi": 64,
      "hit": false,
      "t": 134000,
      "d": 265,
      "v": 116
    },
    {
      "midi": 45,
      "hit": false,
      "t": 134000,
      "d": 420,
      "v": 110
    },
    {
      "midi": 69,
      "hit": false,
      "t": 134000,
      "d": 237.5,
      "v": 1
    },
    {
      "midi": 73,
      "hit": false,
      "t": 134000,
      "d": 237.5,
      "v": 1
    },
    {
      "midi": 67,
      "hit": false,
      "t": 134240,
      "d": 237.5,
      "v": 1
    },
    {
      "midi": 71,
      "hit": false,
      "t": 134240,
      "d": 237.5,
      "v": 1
    },
    {
      "midi": 61,
      "hit": false,
      "t": 134360,
      "d": 140,
      "v": 94
    },
    {
      "midi": 64,
      "hit": false,
      "t": 134360,
      "d": 180,
      "v": 97
    },
    {
      "midi": 57,
      "hit": false,
      "t": 134360,
      "d": 60,
      "v": 97
    },
    {
      "midi": 45,
      "hit": false,
      "t": 134480,
      "d": 20,
      "v": 97
    },
    {
      "midi": 69,
      "hit": false,
      "t": 134480,
      "d": 237.5,
      "v": 1
    },
    {
      "midi": 73,
      "hit": false,
      "t": 134480,
      "d": 237.5,
      "v": 1
    },
    {
      "midi": 55,
      "hit": false,
      "t": 134480,
      "d": 205,
      "v": 123
    },
    {
      "midi": 45,
      "hit": false,
      "t": 134600,
      "d": 10,
      "v": 65
    },
    {
      "midi": 61,
      "hit": false,
      "t": 134720,
      "d": 380,
      "v": 120
    },
    {
      "midi": 64,
      "hit": false,
      "t": 134720,
      "d": 815,
      "v": 122
    },
    {
      "midi": 67,
      "hit": false,
      "t": 134720,
      "d": 237.5,
      "v": 1
    },
    {
      "midi": 71,
      "hit": false,
      "t": 134720,
      "d": 237.5,
      "v": 1
    },
    {
      "midi": 57,
      "hit": false,
      "t": 134720,
      "d": 175,
      "v": 110
    },
    {
      "midi": 45,
      "hit": false,
      "t": 134960,
      "d": 250,
      "v": 110
    },
    {
      "midi": 69,
      "hit": false,
      "t": 134960,
      "d": 237.5,
      "v": 1
    },
    {
      "midi": 73,
      "hit": false,
      "t": 134960,
      "d": 237.5,
      "v": 1
    },
    {
      "midi": 57,
      "hit": false,
      "t": 134960,
      "d": 315,
      "v": 112
    },
    {
      "midi": 61,
      "hit": false,
      "t": 135200,
      "d": 310,
      "v": 102
    },
    {
      "midi": 71,
      "hit": false,
      "t": 135200,
      "d": 477.5,
      "v": 1
    },
    {
      "midi": 74,
      "hit": false,
      "t": 135200,
      "d": 477.5,
      "v": 1
    },
    {
      "midi": 43,
      "hit": false,
      "t": 135440,
      "d": 830,
      "v": 114
    },
    {
      "midi": 55,
      "hit": false,
      "t": 135440,
      "d": 195,
      "v": 111
    },
    {
      "midi": 67,
      "hit": false,
      "t": 135680,
      "d": 237.5,
      "v": 1
    },
    {
      "midi": 71,
      "hit": false,
      "t": 135680,
      "d": 237.5,
      "v": 1
    },
    {
      "midi": 59,
      "hit": false,
      "t": 135920,
      "d": 245,
      "v": 116
    },
    {
      "midi": 62,
      "hit": false,
      "t": 135920,
      "d": 270,
      "v": 119
    },
    {
      "midi": 64,
      "hit": false,
      "t": 135920,
      "d": 952.5,
      "v": 1
    },
    {
      "midi": 67,
      "hit": false,
      "t": 135920,
      "d": 952.5,
      "v": 1
    },
    {
      "midi": 55,
      "hit": false,
      "t": 135920,
      "d": 470,
      "v": 108
    },
    {
      "midi": 62,
      "hit": false,
      "t": 136280,
      "d": 65,
      "v": 71
    },
    {
      "midi": 59,
      "hit": false,
      "t": 136280,
      "d": 75,
      "v": 68
    },
    {
      "midi": 43,
      "hit": false,
      "t": 136400,
      "d": 255,
      "v": 109
    },
    {
      "midi": 52,
      "hit": false,
      "t": 136400,
      "d": 180,
      "v": 99
    },
    {
      "midi": 62,
      "hit": false,
      "t": 136640,
      "d": 90,
      "v": 104
    },
    {
      "midi": 59,
      "hit": false,
      "t": 136640,
      "d": 320,
      "v": 124
    },
    {
      "midi": 55,
      "hit": false,
      "t": 136640,
      "d": 420,
      "v": 114
    },
    {
      "midi": 43,
      "hit": false,
      "t": 136880,
      "d": 215,
      "v": 106
    },
    {
      "midi": 59,
      "hit": false,
      "t": 137120,
      "d": 260,
      "v": 90
    },
    {
      "midi": 52,
      "hit": false,
      "t": 137120,
      "d": 440,
      "v": 114
    },
    {
      "midi": 40,
      "hit": false,
      "t": 137360,
      "d": 205,
      "v": 123
    },
    {
      "midi": 40,
      "hit": false,
      "t": 137840,
      "d": 235,
      "v": 122
    },
    {
      "midi": 59,
      "hit": false,
      "t": 137840,
      "d": 340,
      "v": 103
    },
    {
      "midi": 52,
      "hit": false,
      "t": 137840,
      "d": 315,
      "v": 127
    },
    {
      "midi": 40,
      "hit": false,
      "t": 138200,
      "d": 50,
      "v": 120
    },
    {
      "midi": 50,
      "hit": false,
      "t": 138320,
      "d": 180,
      "v": 122
    },
    {
      "midi": 50,
      "hit": false,
      "t": 138320,
      "d": 210,
      "v": 121
    },
    {
      "midi": 51,
      "hit": false,
      "t": 138560,
      "d": 215,
      "v": 117
    },
    {
      "midi": 51,
      "hit": false,
      "t": 138560,
      "d": 220,
      "v": 123
    },
    {
      "midi": 52,
      "hit": false,
      "t": 138800,
      "d": 220,
      "v": 126
    },
    {
      "midi": 52,
      "hit": false,
      "t": 138800,
      "d": 250,
      "v": 115
    },
    {
      "midi": 45,
      "hit": false,
      "t": 139280,
      "d": 50,
      "v": 116
    },
    {
      "midi": 55,
      "hit": false,
      "t": 139280,
      "d": 185,
      "v": 123
    },
    {
      "midi": 57,
      "hit": false,
      "t": 139520,
      "d": 395,
      "v": 109
    },
    {
      "midi": 61,
      "hit": false,
      "t": 139760,
      "d": 240,
      "v": 123
    },
    {
      "midi": 45,
      "hit": false,
      "t": 139760,
      "d": 275,
      "v": 115
    },
    {
      "midi": 64,
      "hit": false,
      "t": 139760,
      "d": 280,
      "v": 112
    },
    {
      "midi": 73,
      "hit": false,
      "t": 139760,
      "d": 717.5,
      "v": 1
    },
    {
      "midi": 76,
      "hit": false,
      "t": 139760,
      "d": 717.5,
      "v": 1
    },
    {
      "midi": 61,
      "hit": false,
      "t": 140120,
      "d": 75,
      "v": 92
    },
    {
      "midi": 64,
      "hit": false,
      "t": 140120,
      "d": 85,
      "v": 84
    },
    {
      "midi": 45,
      "hit": false,
      "t": 140240,
      "d": 120,
      "v": 99
    },
    {
      "midi": 61,
      "hit": false,
      "t": 140480,
      "d": 320,
      "v": 106
    },
    {
      "midi": 64,
      "hit": false,
      "t": 140480,
      "d": 980,
      "v": 125
    },
    {
      "midi": 69,
      "hit": false,
      "t": 140480,
      "d": 477.5,
      "v": 1
    },
    {
      "midi": 73,
      "hit": false,
      "t": 140480,
      "d": 477.5,
      "v": 1
    },
    {
      "midi": 55,
      "hit": false,
      "t": 140480,
      "d": 215,
      "v": 112
    },
    {
      "midi": 45,
      "hit": false,
      "t": 140720,
      "d": 260,
      "v": 105
    },
    {
      "midi": 57,
      "hit": false,
      "t": 140720,
      "d": 175,
      "v": 108
    },
    {
      "midi": 61,
      "hit": false,
      "t": 140960,
      "d": 355,
      "v": 91
    },
    {
      "midi": 67,
      "hit": false,
      "t": 140960,
      "d": 237.5,
      "v": 1
    },
    {
      "midi": 71,
      "hit": false,
      "t": 140960,
      "d": 237.5,
      "v": 1
    },
    {
      "midi": 57,
      "hit": false,
      "t": 140960,
      "d": 290,
      "v": 115
    },
    {
      "midi": 45,
      "hit": false,
      "t": 141200,
      "d": 210,
      "v": 115
    },
    {
      "midi": 69,
      "hit": false,
      "t": 141200,
      "d": 237.5,
      "v": 1
    },
    {
      "midi": 73,
      "hit": false,
      "t": 141200,
      "d": 237.5,
      "v": 1
    },
    {
      "midi": 67,
      "hit": false,
      "t": 141440,
      "d": 237.5,
      "v": 1
    },
    {
      "midi": 71,
      "hit": false,
      "t": 141440,
      "d": 237.5,
      "v": 1
    },
    {
      "midi": 61,
      "hit": false,
      "t": 141680,
      "d": 245,
      "v": 117
    },
    {
      "midi": 64,
      "hit": false,
      "t": 141680,
      "d": 265,
      "v": 110
    },
    {
      "midi": 45,
      "hit": false,
      "t": 141680,
      "d": 420,
      "v": 112
    },
    {
      "midi": 69,
      "hit": false,
      "t": 141680,
      "d": 237.5,
      "v": 1
    },
    {
      "midi": 73,
      "hit": false,
      "t": 141680,
      "d": 237.5,
      "v": 1
    },
    {
      "midi": 67,
      "hit": false,
      "t": 141920,
      "d": 237.5,
      "v": 1
    },
    {
      "midi": 71,
      "hit": false,
      "t": 141920,
      "d": 237.5,
      "v": 1
    },
    {
      "midi": 61,
      "hit": false,
      "t": 142040,
      "d": 140,
      "v": 94
    },
    {
      "midi": 64,
      "hit": false,
      "t": 142040,
      "d": 180,
      "v": 96
    },
    {
      "midi": 57,
      "hit": false,
      "t": 142040,
      "d": 60,
      "v": 97
    },
    {
      "midi": 45,
      "hit": false,
      "t": 142160,
      "d": 20,
      "v": 95
    },
    {
      "midi": 69,
      "hit": false,
      "t": 142160,
      "d": 237.5,
      "v": 1
    },
    {
      "midi": 73,
      "hit": false,
      "t": 142160,
      "d": 237.5,
      "v": 1
    },
    {
      "midi": 55,
      "hit": false,
      "t": 142160,
      "d": 205,
      "v": 123
    },
    {
      "midi": 45,
      "hit": false,
      "t": 142280,
      "d": 10,
      "v": 67
    },
    {
      "midi": 61,
      "hit": false,
      "t": 142400,
      "d": 380,
      "v": 118
    },
    {
      "midi": 64,
      "hit": false,
      "t": 142400,
      "d": 815,
      "v": 127
    },
    {
      "midi": 67,
      "hit": false,
      "t": 142400,
      "d": 237.5,
      "v": 1
    },
    {
      "midi": 71,
      "hit": false,
      "t": 142400,
      "d": 237.5,
      "v": 1
    },
    {
      "midi": 57,
      "hit": false,
      "t": 142400,
      "d": 175,
      "v": 118
    },
    {
      "midi": 45,
      "hit": false,
      "t": 142640,
      "d": 250,
      "v": 106
    },
    {
      "midi": 69,
      "hit": false,
      "t": 142640,
      "d": 237.5,
      "v": 1
    },
    {
      "midi": 73,
      "hit": false,
      "t": 142640,
      "d": 237.5,
      "v": 1
    },
    {
      "midi": 57,
      "hit": false,
      "t": 142640,
      "d": 315,
      "v": 120
    },
    {
      "midi": 61,
      "hit": false,
      "t": 142880,
      "d": 310,
      "v": 96
    },
    {
      "midi": 71,
      "hit": false,
      "t": 142880,
      "d": 477.5,
      "v": 1
    },
    {
      "midi": 74,
      "hit": false,
      "t": 142880,
      "d": 477.5,
      "v": 1
    },
    {
      "midi": 43,
      "hit": false,
      "t": 143120,
      "d": 830,
      "v": 116
    },
    {
      "midi": 55,
      "hit": false,
      "t": 143120,
      "d": 195,
      "v": 117
    },
    {
      "midi": 67,
      "hit": false,
      "t": 143360,
      "d": 237.5,
      "v": 1
    },
    {
      "midi": 71,
      "hit": false,
      "t": 143360,
      "d": 237.5,
      "v": 1
    },
    {
      "midi": 59,
      "hit": false,
      "t": 143600,
      "d": 245,
      "v": 118
    },
    {
      "midi": 62,
      "hit": false,
      "t": 143600,
      "d": 270,
      "v": 115
    },
    {
      "midi": 64,
      "hit": false,
      "t": 143600,
      "d": 952.5,
      "v": 1
    },
    {
      "midi": 67,
      "hit": false,
      "t": 143600,
      "d": 952.5,
      "v": 1
    },
    {
      "midi": 55,
      "hit": false,
      "t": 143600,
      "d": 470,
      "v": 114
    },
    {
      "midi": 62,
      "hit": false,
      "t": 143960,
      "d": 65,
      "v": 76
    },
    {
      "midi": 59,
      "hit": false,
      "t": 143960,
      "d": 75,
      "v": 70
    },
    {
      "midi": 43,
      "hit": false,
      "t": 144080,
      "d": 255,
      "v": 107
    },
    {
      "midi": 52,
      "hit": false,
      "t": 144080,
      "d": 180,
      "v": 108
    },
    {
      "midi": 62,
      "hit": false,
      "t": 144320,
      "d": 90,
      "v": 97
    },
    {
      "midi": 59,
      "hit": false,
      "t": 144320,
      "d": 320,
      "v": 127
    },
    {
      "midi": 55,
      "hit": false,
      "t": 144320,
      "d": 420,
      "v": 116
    },
    {
      "midi": 43,
      "hit": false,
      "t": 144560,
      "d": 215,
      "v": 109
    },
    {
      "midi": 59,
      "hit": false,
      "t": 144800,
      "d": 260,
      "v": 93
    },
    {
      "midi": 52,
      "hit": false,
      "t": 144800,
      "d": 440,
      "v": 120
    },
    {
      "midi": 40,
      "hit": false,
      "t": 145040,
      "d": 205,
      "v": 123
    },
    {
      "midi": 40,
      "hit": false,
      "t": 145520,
      "d": 235,
      "v": 121
    },
    {
      "midi": 59,
      "hit": false,
      "t": 145520,
      "d": 340,
      "v": 102
    },
    {
      "midi": 40,
      "hit": false,
      "t": 145520,
      "d": 510,
      "v": 111
    },
    {
      "midi": 52,
      "hit": false,
      "t": 145760,
      "d": 175,
      "v": 122
    },
    {
      "midi": 40,
      "hit": false,
      "t": 145880,
      "d": 50,
      "v": 117
    },
    {
      "midi": 50,
      "hit": false,
      "t": 146000,
      "d": 180,
      "v": 118
    },
    {
      "midi": 50,
      "hit": false,
      "t": 146000,
      "d": 260,
      "v": 119
    },
    {
      "midi": 51,
      "hit": false,
      "t": 146240,
      "d": 215,
      "v": 117
    },
    {
      "midi": 52,
      "hit": false,
      "t": 146480,
      "d": 220,
      "v": 126
    },
    {
      "midi": 52,
      "hit": false,
      "t": 146480,
      "d": 235,
      "v": 121
    },
    {
      "midi": 45,
      "hit": false,
      "t": 146960,
      "d": 400,
      "v": 118
    },
    {
      "midi": 72,
      "hit": false,
      "t": 147200,
      "d": 50,
      "v": 102
    },
    {
      "midi": 60,
      "hit": false,
      "t": 147200,
      "d": 95,
      "v": 70
    },
    {
      "midi": 76,
      "hit": false,
      "t": 147320,
      "d": 65,
      "v": 66
    },
    {
      "midi": 64,
      "hit": false,
      "t": 147320,
      "d": 70,
      "v": 98
    },
    {
      "midi": 81,
      "hit": false,
      "t": 147440,
      "d": 105,
      "v": 82
    },
    {
      "midi": 69,
      "hit": false,
      "t": 147440,
      "d": 120,
      "v": 68
    },
    {
      "midi": 45,
      "hit": false,
      "t": 147440,
      "d": 185,
      "v": 101
    },
    {
      "midi": 84,
      "hit": false,
      "t": 147560,
      "d": 75,
      "v": 92
    },
    {
      "midi": 72,
      "hit": false,
      "t": 147560,
      "d": 105,
      "v": 96
    },
    {
      "midi": 47,
      "hit": false,
      "t": 147680,
      "d": 75,
      "v": 82
    },
    {
      "midi": 84,
      "hit": false,
      "t": 147800,
      "d": 70,
      "v": 98
    },
    {
      "midi": 72,
      "hit": false,
      "t": 147800,
      "d": 100,
      "v": 112
    },
    {
      "midi": 48,
      "hit": false,
      "t": 147800,
      "d": 270,
      "v": 115
    },
    {
      "midi": 76,
      "hit": false,
      "t": 148040,
      "d": 90,
      "v": 85
    },
    {
      "midi": 64,
      "hit": false,
      "t": 148040,
      "d": 130,
      "v": 97
    },
    {
      "midi": 48,
      "hit": false,
      "t": 148160,
      "d": 180,
      "v": 81
    },
    {
      "midi": 69,
      "hit": false,
      "t": 148280,
      "d": 70,
      "v": 59
    },
    {
      "midi": 81,
      "hit": false,
      "t": 148280,
      "d": 75,
      "v": 95
    },
    {
      "midi": 84,
      "hit": false,
      "t": 148400,
      "d": 85,
      "v": 97
    },
    {
      "midi": 72,
      "hit": false,
      "t": 148400,
      "d": 105,
      "v": 94
    },
    {
      "midi": 48,
      "hit": false,
      "t": 148400,
      "d": 200,
      "v": 72
    },
    {
      "midi": 88,
      "hit": false,
      "t": 148520,
      "d": 90,
      "v": 108
    },
    {
      "midi": 76,
      "hit": false,
      "t": 148520,
      "d": 110,
      "v": 118
    },
    {
      "midi": 49,
      "hit": false,
      "t": 148640,
      "d": 245,
      "v": 99
    },
    {
      "midi": 74,
      "hit": false,
      "t": 148760,
      "d": 375,
      "v": 109
    },
    {
      "midi": 86,
      "hit": false,
      "t": 148760,
      "d": 415,
      "v": 123
    },
    {
      "midi": 50,
      "hit": false,
      "t": 148880,
      "d": 250,
      "v": 116
    },
    {
      "midi": 75,
      "hit": false,
      "t": 149240,
      "d": 75,
      "v": 100
    },
    {
      "midi": 50,
      "hit": false,
      "t": 149240,
      "d": 90,
      "v": 84
    },
    {
      "midi": 63,
      "hit": false,
      "t": 149240,
      "d": 95,
      "v": 97
    },
    {
      "midi": 74,
      "hit": false,
      "t": 149360,
      "d": 75,
      "v": 89
    },
    {
      "midi": 62,
      "hit": false,
      "t": 149360,
      "d": 85,
      "v": 86
    },
    {
      "midi": 50,
      "hit": false,
      "t": 149360,
      "d": 175,
      "v": 100
    },
    {
      "midi": 75,
      "hit": false,
      "t": 149480,
      "d": 75,
      "v": 93
    },
    {
      "midi": 63,
      "hit": false,
      "t": 149480,
      "d": 90,
      "v": 101
    },
    {
      "midi": 51,
      "hit": false,
      "t": 149600,
      "d": 90,
      "v": 99
    },
    {
      "midi": 69,
      "hit": false,
      "t": 149720,
      "d": 85,
      "v": 120
    },
    {
      "midi": 76,
      "hit": false,
      "t": 149720,
      "d": 85,
      "v": 115
    },
    {
      "midi": 64,
      "hit": false,
      "t": 149720,
      "d": 110,
      "v": 124
    },
    {
      "midi": 52,
      "hit": false,
      "t": 149720,
      "d": 200,
      "v": 106
    },
    {
      "midi": 64,
      "hit": false,
      "t": 149960,
      "d": 55,
      "v": 113
    },
    {
      "midi": 69,
      "hit": false,
      "t": 149960,
      "d": 65,
      "v": 105
    },
    {
      "midi": 52,
      "hit": false,
      "t": 149960,
      "d": 250,
      "v": 108
    },
    {
      "midi": 57,
      "hit": false,
      "t": 150200,
      "d": 50,
      "v": 103
    },
    {
      "midi": 64,
      "hit": false,
      "t": 150320,
      "d": 195,
      "v": 127
    },
    {
      "midi": 69,
      "hit": false,
      "t": 150320,
      "d": 195,
      "v": 116
    },
    {
      "midi": 52,
      "hit": false,
      "t": 150320,
      "d": 265,
      "v": 85
    },
    {
      "midi": 57,
      "hit": false,
      "t": 150560,
      "d": 150,
      "v": 127
    },
    {
      "midi": 45,
      "hit": false,
      "t": 150800,
      "d": 490,
      "v": 119
    },
    {
      "midi": 76,
      "hit": false,
      "t": 151040,
      "d": 60,
      "v": 106
    },
    {
      "midi": 64,
      "hit": false,
      "t": 151040,
      "d": 75,
      "v": 110
    },
    {
      "midi": 69,
      "hit": false,
      "t": 151160,
      "d": 100,
      "v": 86
    },
    {
      "midi": 81,
      "hit": false,
      "t": 151160,
      "d": 105,
      "v": 74
    },
    {
      "midi": 84,
      "hit": false,
      "t": 151280,
      "d": 120,
      "v": 90
    },
    {
      "midi": 72,
      "hit": false,
      "t": 151280,
      "d": 130,
      "v": 81
    },
    {
      "midi": 47,
      "hit": false,
      "t": 151280,
      "d": 315,
      "v": 120
    },
    {
      "midi": 76,
      "hit": false,
      "t": 151400,
      "d": 75,
      "v": 104
    },
    {
      "midi": 88,
      "hit": false,
      "t": 151400,
      "d": 80,
      "v": 96
    },
    {
      "midi": 88,
      "hit": false,
      "t": 151640,
      "d": 100,
      "v": 115
    },
    {
      "midi": 76,
      "hit": false,
      "t": 151640,
      "d": 110,
      "v": 118
    },
    {
      "midi": 48,
      "hit": false,
      "t": 151640,
      "d": 465,
      "v": 116
    },
    {
      "midi": 64,
      "hit": false,
      "t": 151880,
      "d": 60,
      "v": 113
    },
    {
      "midi": 76,
      "hit": false,
      "t": 151880,
      "d": 70,
      "v": 97
    },
    {
      "midi": 81,
      "hit": false,
      "t": 152120,
      "d": 90,
      "v": 82
    },
    {
      "midi": 69,
      "hit": false,
      "t": 152120,
      "d": 110,
      "v": 107
    },
    {
      "midi": 72,
      "hit": false,
      "t": 152240,
      "d": 105,
      "v": 84
    },
    {
      "midi": 84,
      "hit": false,
      "t": 152240,
      "d": 120,
      "v": 92
    },
    {
      "midi": 48,
      "hit": false,
      "t": 152240,
      "d": 240,
      "v": 91
    },
    {
      "midi": 88,
      "hit": false,
      "t": 152360,
      "d": 95,
      "v": 114
    },
    {
      "midi": 76,
      "hit": false,
      "t": 152360,
      "d": 100,
      "v": 108
    },
    {
      "midi": 49,
      "hit": false,
      "t": 152480,
      "d": 240,
      "v": 96
    },
    {
      "midi": 74,
      "hit": false,
      "t": 152600,
      "d": 385,
      "v": 120
    },
    {
      "midi": 86,
      "hit": false,
      "t": 152600,
      "d": 400,
      "v": 117
    },
    {
      "midi": 50,
      "hit": false,
      "t": 152720,
      "d": 420,
      "v": 123
    },
    {
      "midi": 74,
      "hit": false,
      "t": 153200,
      "d": 100,
      "v": 97
    },
    {
      "midi": 86,
      "hit": false,
      "t": 153200,
      "d": 100,
      "v": 82
    },
    {
      "midi": 50,
      "hit": false,
      "t": 153200,
      "d": 250,
      "v": 87
    },
    {
      "midi": 87,
      "hit": false,
      "t": 153320,
      "d": 95,
      "v": 99
    },
    {
      "midi": 75,
      "hit": false,
      "t": 153320,
      "d": 125,
      "v": 108
    },
    {
      "midi": 88,
      "hit": false,
      "t": 153560,
      "d": 95,
      "v": 121
    },
    {
      "midi": 76,
      "hit": false,
      "t": 153560,
      "d": 130,
      "v": 114
    },
    {
      "midi": 50,
      "hit": false,
      "t": 153560,
      "d": 195,
      "v": 121
    },
    {
      "midi": 50,
      "hit": false,
      "t": 153800,
      "d": 175,
      "v": 107
    },
    {
      "midi": 50,
      "hit": false,
      "t": 154040,
      "d": 415,
      "v": 117
    },
    {
      "midi": 81,
      "hit": false,
      "t": 154640,
      "d": 105,
      "v": 115
    },
    {
      "midi": 69,
      "hit": false,
      "t": 154640,
      "d": 155,
      "v": 105
    },
    {
      "midi": 45,
      "hit": false,
      "t": 154640,
      "d": 465,
      "v": 126
    },
    {
      "midi": 84,
      "hit": false,
      "t": 154880,
      "d": 60,
      "v": 93
    },
    {
      "midi": 72,
      "hit": false,
      "t": 154880,
      "d": 125,
      "v": 79
    },
    {
      "midi": 88,
      "hit": false,
      "t": 155000,
      "d": 90,
      "v": 106
    },
    {
      "midi": 76,
      "hit": false,
      "t": 155000,
      "d": 100,
      "v": 113
    },
    {
      "midi": 47,
      "hit": false,
      "t": 155120,
      "d": 335,
      "v": 121
    },
    {
      "midi": 81,
      "hit": false,
      "t": 155240,
      "d": 95,
      "v": 110
    },
    {
      "midi": 69,
      "hit": false,
      "t": 155240,
      "d": 120,
      "v": 104
    },
    {
      "midi": 84,
      "hit": false,
      "t": 155480,
      "d": 100,
      "v": 113
    },
    {
      "midi": 72,
      "hit": false,
      "t": 155480,
      "d": 125,
      "v": 114
    },
    {
      "midi": 48,
      "hit": false,
      "t": 155600,
      "d": 540,
      "v": 125
    },
    {
      "midi": 76,
      "hit": false,
      "t": 155720,
      "d": 105,
      "v": 121
    },
    {
      "midi": 88,
      "hit": false,
      "t": 155720,
      "d": 105,
      "v": 102
    },
    {
      "midi": 81,
      "hit": false,
      "t": 155960,
      "d": 80,
      "v": 100
    },
    {
      "midi": 69,
      "hit": false,
      "t": 155960,
      "d": 105,
      "v": 100
    },
    {
      "midi": 72,
      "hit": false,
      "t": 156080,
      "d": 105,
      "v": 109
    },
    {
      "midi": 84,
      "hit": false,
      "t": 156080,
      "d": 115,
      "v": 109
    },
    {
      "midi": 49,
      "hit": false,
      "t": 156080,
      "d": 415,
      "v": 121
    },
    {
      "midi": 85,
      "hit": false,
      "t": 156320,
      "d": 90,
      "v": 117
    },
    {
      "midi": 73,
      "hit": false,
      "t": 156320,
      "d": 140,
      "v": 99
    },
    {
      "midi": 86,
      "hit": false,
      "t": 156560,
      "d": 80,
      "v": 113
    },
    {
      "midi": 74,
      "hit": false,
      "t": 156560,
      "d": 85,
      "v": 117
    },
    {
      "midi": 50,
      "hit": false,
      "t": 156560,
      "d": 550,
      "v": 120
    },
    {
      "midi": 74,
      "hit": false,
      "t": 156800,
      "d": 60,
      "v": 111
    },
    {
      "midi": 86,
      "hit": false,
      "t": 156800,
      "d": 65,
      "v": 108
    },
    {
      "midi": 74,
      "hit": false,
      "t": 156920,
      "d": 85,
      "v": 100
    },
    {
      "midi": 86,
      "hit": false,
      "t": 156920,
      "d": 90,
      "v": 98
    },
    {
      "midi": 75,
      "hit": false,
      "t": 157160,
      "d": 75,
      "v": 110
    },
    {
      "midi": 87,
      "hit": false,
      "t": 157160,
      "d": 90,
      "v": 106
    },
    {
      "midi": 51,
      "hit": false,
      "t": 157160,
      "d": 255,
      "v": 111
    },
    {
      "midi": 88,
      "hit": false,
      "t": 157400,
      "d": 80,
      "v": 110
    },
    {
      "midi": 76,
      "hit": false,
      "t": 157400,
      "d": 85,
      "v": 116
    },
    {
      "midi": 52,
      "hit": false,
      "t": 157400,
      "d": 570,
      "v": 120
    },
    {
      "midi": 76,
      "hit": false,
      "t": 157640,
      "d": 85,
      "v": 117
    },
    {
      "midi": 88,
      "hit": false,
      "t": 157640,
      "d": 85,
      "v": 103
    },
    {
      "midi": 76,
      "hit": false,
      "t": 157880,
      "d": 60,
      "v": 105
    },
    {
      "midi": 88,
      "hit": false,
      "t": 157880,
      "d": 70,
      "v": 106
    },
    {
      "midi": 74,
      "hit": false,
      "t": 158000,
      "d": 75,
      "v": 111
    },
    {
      "midi": 86,
      "hit": false,
      "t": 158000,
      "d": 90,
      "v": 110
    },
    {
      "midi": 76,
      "hit": false,
      "t": 158240,
      "d": 70,
      "v": 115
    },
    {
      "midi": 88,
      "hit": false,
      "t": 158240,
      "d": 80,
      "v": 117
    },
    {
      "midi": 81,
      "hit": false,
      "t": 158480,
      "d": 200,
      "v": 115
    },
    {
      "midi": 69,
      "hit": false,
      "t": 158480,
      "d": 220,
      "v": 127
    },
    {
      "midi": 45,
      "hit": false,
      "t": 158480,
      "d": 230,
      "v": 127
    },
    {
      "midi": 76,
      "hit": false,
      "t": 158720,
      "d": 85,
      "v": 75
    },
    {
      "midi": 57,
      "hit": false,
      "t": 158720,
      "d": 135,
      "v": 108
    },
    {
      "midi": 64,
      "hit": false,
      "t": 158720,
      "d": 165,
      "v": 117
    },
    {
      "midi": 80,
      "hit": false,
      "t": 158840,
      "d": 195,
      "v": 106
    },
    {
      "midi": 68,
      "hit": false,
      "t": 158840,
      "d": 265,
      "v": 114
    },
    {
      "midi": 47,
      "hit": false,
      "t": 158840,
      "d": 295,
      "v": 123
    },
    {
      "midi": 76,
      "hit": false,
      "t": 159080,
      "d": 160,
      "v": 98
    },
    {
      "midi": 59,
      "hit": false,
      "t": 159080,
      "d": 275,
      "v": 119
    },
    {
      "midi": 64,
      "hit": false,
      "t": 159080,
      "d": 285,
      "v": 110
    },
    {
      "midi": 79,
      "hit": false,
      "t": 159320,
      "d": 215,
      "v": 115
    },
    {
      "midi": 67,
      "hit": false,
      "t": 159320,
      "d": 295,
      "v": 126
    },
    {
      "midi": 48,
      "hit": false,
      "t": 159320,
      "d": 320,
      "v": 117
    },
    {
      "midi": 76,
      "hit": false,
      "t": 159560,
      "d": 185,
      "v": 87
    },
    {
      "midi": 64,
      "hit": false,
      "t": 159560,
      "d": 250,
      "v": 112
    },
    {
      "midi": 60,
      "hit": false,
      "t": 159560,
      "d": 255,
      "v": 99
    },
    {
      "midi": 78,
      "hit": false,
      "t": 159800,
      "d": 65,
      "v": 86
    },
    {
      "midi": 66,
      "hit": false,
      "t": 159800,
      "d": 80,
      "v": 112
    },
    {
      "midi": 48,
      "hit": false,
      "t": 159800,
      "d": 485,
      "v": 110
    },
    {
      "midi": 60,
      "hit": false,
      "t": 159920,
      "d": 105,
      "v": 92
    },
    {
      "midi": 66,
      "hit": false,
      "t": 159920,
      "d": 130,
      "v": 109
    },
    {
      "midi": 78,
      "hit": false,
      "t": 159920,
      "d": 140,
      "v": 110
    },
    {
      "midi": 66,
      "hit": false,
      "t": 160160,
      "d": 105,
      "v": 120
    },
    {
      "midi": 60,
      "hit": false,
      "t": 160160,
      "d": 110,
      "v": 102
    },
    {
      "midi": 78,
      "hit": false,
      "t": 160160,
      "d": 125,
      "v": 113
    },
    {
      "midi": 81,
      "hit": false,
      "t": 160400,
      "d": 35,
      "v": 108
    },
    {
      "midi": 84,
      "hit": false,
      "t": 160400,
      "d": 40,
      "v": 112
    },
    {
      "midi": 89,
      "hit": false,
      "t": 160400,
      "d": 40,
      "v": 101
    },
    {
      "midi": 77,
      "hit": false,
      "t": 160400,
      "d": 55,
      "v": 106
    },
    {
      "midi": 50,
      "hit": false,
      "t": 160400,
      "d": 120,
      "v": 127
    },
    {
      "midi": 81,
      "hit": false,
      "t": 160640,
      "d": 45,
      "v": 105
    },
    {
      "midi": 84,
      "hit": false,
      "t": 160640,
      "d": 50,
      "v": 114
    },
    {
      "midi": 89,
      "hit": false,
      "t": 160640,
      "d": 50,
      "v": 103
    },
    {
      "midi": 77,
      "hit": false,
      "t": 160640,
      "d": 60,
      "v": 100
    },
    {
      "midi": 50,
      "hit": false,
      "t": 160640,
      "d": 75,
      "v": 117
    },
    {
      "midi": 81,
      "hit": false,
      "t": 160760,
      "d": 70,
      "v": 107
    },
    {
      "midi": 84,
      "hit": false,
      "t": 160760,
      "d": 80,
      "v": 109
    },
    {
      "midi": 89,
      "hit": false,
      "t": 160760,
      "d": 80,
      "v": 101
    },
    {
      "midi": 77,
      "hit": false,
      "t": 160760,
      "d": 85,
      "v": 106
    },
    {
      "midi": 50,
      "hit": false,
      "t": 160760,
      "d": 115,
      "v": 113
    },
    {
      "midi": 89,
      "hit": false,
      "t": 161000,
      "d": 55,
      "v": 101
    },
    {
      "midi": 81,
      "hit": false,
      "t": 161000,
      "d": 60,
      "v": 111
    },
    {
      "midi": 84,
      "hit": false,
      "t": 161000,
      "d": 65,
      "v": 113
    },
    {
      "midi": 77,
      "hit": false,
      "t": 161000,
      "d": 80,
      "v": 104
    },
    {
      "midi": 50,
      "hit": false,
      "t": 161000,
      "d": 115,
      "v": 123
    },
    {
      "midi": 88,
      "hit": false,
      "t": 161240,
      "d": 50,
      "v": 104
    },
    {
      "midi": 80,
      "hit": false,
      "t": 161240,
      "d": 55,
      "v": 112
    },
    {
      "midi": 83,
      "hit": false,
      "t": 161240,
      "d": 60,
      "v": 114
    },
    {
      "midi": 76,
      "hit": false,
      "t": 161240,
      "d": 80,
      "v": 96
    },
    {
      "midi": 52,
      "hit": false,
      "t": 161240,
      "d": 110,
      "v": 124
    },
    {
      "midi": 80,
      "hit": false,
      "t": 161480,
      "d": 45,
      "v": 105
    },
    {
      "midi": 88,
      "hit": false,
      "t": 161480,
      "d": 45,
      "v": 111
    },
    {
      "midi": 83,
      "hit": false,
      "t": 161480,
      "d": 50,
      "v": 119
    },
    {
      "midi": 76,
      "hit": false,
      "t": 161480,
      "d": 70,
      "v": 110
    },
    {
      "midi": 52,
      "hit": false,
      "t": 161480,
      "d": 95,
      "v": 124
    },
    {
      "midi": 76,
      "hit": false,
      "t": 161720,
      "d": 25,
      "v": 83
    },
    {
      "midi": 83,
      "hit": false,
      "t": 161720,
      "d": 25,
      "v": 94
    },
    {
      "midi": 52,
      "hit": false,
      "t": 161720,
      "d": 65,
      "v": 122
    },
    {
      "midi": 80,
      "hit": false,
      "t": 161840,
      "d": 85,
      "v": 121
    },
    {
      "midi": 83,
      "hit": false,
      "t": 161840,
      "d": 95,
      "v": 127
    },
    {
      "midi": 88,
      "hit": false,
      "t": 161840,
      "d": 125,
      "v": 123
    },
    {
      "midi": 76,
      "hit": false,
      "t": 161840,
      "d": 170,
      "v": 126
    },
    {
      "midi": 52,
      "hit": false,
      "t": 161840,
      "d": 175,
      "v": 123
    },
    {
      "midi": 87,
      "hit": false,
      "t": 161960,
      "d": 15,
      "v": 74
    },
    {
      "midi": 96,
      "hit": false,
      "t": 161970,
      "d": 60,
      "v": 76
    },
    {
      "midi": 95,
      "hit": false,
      "t": 162015,
      "d": 55,
      "v": 69
    },
    {
      "midi": 93,
      "hit": false,
      "t": 162060,
      "d": 40,
      "v": 91
    },
    {
      "midi": 52,
      "hit": false,
      "t": 162080,
      "d": 130,
      "v": 117
    },
    {
      "midi": 91,
      "hit": false,
      "t": 162090,
      "d": 40,
      "v": 98
    },
    {
      "midi": 89,
      "hit": false,
      "t": 162120,
      "d": 40,
      "v": 95
    },
    {
      "midi": 88,
      "hit": false,
      "t": 162150,
      "d": 30,
      "v": 91
    },
    {
      "midi": 86,
      "hit": false,
      "t": 162180,
      "d": 30,
      "v": 88
    },
    {
      "midi": 84,
      "hit": false,
      "t": 162210,
      "d": 20,
      "v": 89
    },
    {
      "midi": 73,
      "hit": false,
      "t": 162800,
      "d": 717.5,
      "v": 1
    },
    {
      "midi": 76,
      "hit": false,
      "t": 162800,
      "d": 717.5,
      "v": 1
    },
    {
      "midi": 69,
      "hit": false,
      "t": 163520,
      "d": 477.5,
      "v": 1
    },
    {
      "midi": 73,
      "hit": false,
      "t": 163520,
      "d": 477.5,
      "v": 1
    },
    {
      "midi": 67,
      "hit": false,
      "t": 164000,
      "d": 237.5,
      "v": 1
    },
    {
      "midi": 71,
      "hit": false,
      "t": 164000,
      "d": 237.5,
      "v": 1
    },
    {
      "midi": 69,
      "hit": false,
      "t": 164240,
      "d": 237.5,
      "v": 1
    },
    {
      "midi": 73,
      "hit": false,
      "t": 164240,
      "d": 237.5,
      "v": 1
    },
    {
      "midi": 67,
      "hit": false,
      "t": 164480,
      "d": 237.5,
      "v": 1
    },
    {
      "midi": 71,
      "hit": false,
      "t": 164480,
      "d": 237.5,
      "v": 1
    },
    {
      "midi": 69,
      "hit": false,
      "t": 164720,
      "d": 237.5,
      "v": 1
    },
    {
      "midi": 73,
      "hit": false,
      "t": 164720,
      "d": 237.5,
      "v": 1
    },
    {
      "midi": 67,
      "hit": false,
      "t": 164960,
      "d": 237.5,
      "v": 1
    },
    {
      "midi": 71,
      "hit": false,
      "t": 164960,
      "d": 237.5,
      "v": 1
    },
    {
      "midi": 69,
      "hit": false,
      "t": 165200,
      "d": 237.5,
      "v": 1
    },
    {
      "midi": 73,
      "hit": false,
      "t": 165200,
      "d": 237.5,
      "v": 1
    },
    {
      "midi": 67,
      "hit": false,
      "t": 165440,
      "d": 237.5,
      "v": 1
    },
    {
      "midi": 71,
      "hit": false,
      "t": 165440,
      "d": 237.5,
      "v": 1
    },
    {
      "midi": 69,
      "hit": false,
      "t": 165680,
      "d": 237.5,
      "v": 1
    },
    {
      "midi": 73,
      "hit": false,
      "t": 165680,
      "d": 237.5,
      "v": 1
    },
    {
      "midi": 71,
      "hit": false,
      "t": 165920,
      "d": 477.5,
      "v": 1
    },
    {
      "midi": 74,
      "hit": false,
      "t": 165920,
      "d": 477.5,
      "v": 1
    },
    {
      "midi": 67,
      "hit": false,
      "t": 166400,
      "d": 237.5,
      "v": 1
    },
    {
      "midi": 71,
      "hit": false,
      "t": 166400,
      "d": 237.5,
      "v": 1
    },
    {
      "midi": 64,
      "hit": false,
      "t": 166640,
      "d": 952.5,
      "v": 1
    },
    {
      "midi": 67,
      "hit": false,
      "t": 166640,
      "d": 952.5,
      "v": 1
    },
    {
      "midi": 45,
      "hit": false,
      "t": 170000,
      "d": 50,
      "v": 116
    },
    {
      "midi": 55,
      "hit": false,
      "t": 170000,
      "d": 185,
      "v": 117
    },
    {
      "midi": 57,
      "hit": false,
      "t": 170240,
      "d": 395,
      "v": 108
    },
    {
      "midi": 61,
      "hit": false,
      "t": 170480,
      "d": 240,
      "v": 117
    },
    {
      "midi": 45,
      "hit": false,
      "t": 170480,
      "d": 275,
      "v": 118
    },
    {
      "midi": 64,
      "hit": false,
      "t": 170480,
      "d": 280,
      "v": 112
    },
    {
      "midi": 73,
      "hit": false,
      "t": 170480,
      "d": 717.5,
      "v": 1
    },
    {
      "midi": 76,
      "hit": false,
      "t": 170480,
      "d": 717.5,
      "v": 1
    },
    {
      "midi": 61,
      "hit": false,
      "t": 170840,
      "d": 75,
      "v": 95
    },
    {
      "midi": 64,
      "hit": false,
      "t": 170840,
      "d": 85,
      "v": 85
    },
    {
      "midi": 45,
      "hit": false,
      "t": 170960,
      "d": 120,
      "v": 92
    },
    {
      "midi": 61,
      "hit": false,
      "t": 171200,
      "d": 320,
      "v": 112
    },
    {
      "midi": 64,
      "hit": false,
      "t": 171200,
      "d": 980,
      "v": 121
    },
    {
      "midi": 69,
      "hit": false,
      "t": 171200,
      "d": 477.5,
      "v": 1
    },
    {
      "midi": 73,
      "hit": false,
      "t": 171200,
      "d": 477.5,
      "v": 1
    },
    {
      "midi": 55,
      "hit": false,
      "t": 171200,
      "d": 215,
      "v": 120
    },
    {
      "midi": 45,
      "hit": false,
      "t": 171440,
      "d": 260,
      "v": 97
    },
    {
      "midi": 57,
      "hit": false,
      "t": 171440,
      "d": 175,
      "v": 106
    },
    {
      "midi": 61,
      "hit": false,
      "t": 171680,
      "d": 355,
      "v": 88
    },
    {
      "midi": 67,
      "hit": false,
      "t": 171680,
      "d": 237.5,
      "v": 1
    },
    {
      "midi": 71,
      "hit": false,
      "t": 171680,
      "d": 237.5,
      "v": 1
    },
    {
      "midi": 57,
      "hit": false,
      "t": 171680,
      "d": 290,
      "v": 117
    },
    {
      "midi": 45,
      "hit": false,
      "t": 171920,
      "d": 210,
      "v": 114
    },
    {
      "midi": 69,
      "hit": false,
      "t": 171920,
      "d": 237.5,
      "v": 1
    },
    {
      "midi": 73,
      "hit": false,
      "t": 171920,
      "d": 237.5,
      "v": 1
    },
    {
      "midi": 67,
      "hit": false,
      "t": 172160,
      "d": 237.5,
      "v": 1
    },
    {
      "midi": 71,
      "hit": false,
      "t": 172160,
      "d": 237.5,
      "v": 1
    },
    {
      "midi": 61,
      "hit": false,
      "t": 172400,
      "d": 245,
      "v": 112
    },
    {
      "midi": 64,
      "hit": false,
      "t": 172400,
      "d": 265,
      "v": 114
    },
    {
      "midi": 45,
      "hit": false,
      "t": 172400,
      "d": 420,
      "v": 110
    },
    {
      "midi": 69,
      "hit": false,
      "t": 172400,
      "d": 237.5,
      "v": 1
    },
    {
      "midi": 73,
      "hit": false,
      "t": 172400,
      "d": 237.5,
      "v": 1
    },
    {
      "midi": 67,
      "hit": false,
      "t": 172640,
      "d": 237.5,
      "v": 1
    },
    {
      "midi": 71,
      "hit": false,
      "t": 172640,
      "d": 237.5,
      "v": 1
    },
    {
      "midi": 61,
      "hit": false,
      "t": 172760,
      "d": 140,
      "v": 92
    },
    {
      "midi": 64,
      "hit": false,
      "t": 172760,
      "d": 180,
      "v": 95
    },
    {
      "midi": 57,
      "hit": false,
      "t": 172760,
      "d": 60,
      "v": 99
    },
    {
      "midi": 45,
      "hit": false,
      "t": 172880,
      "d": 20,
      "v": 94
    },
    {
      "midi": 69,
      "hit": false,
      "t": 172880,
      "d": 237.5,
      "v": 1
    },
    {
      "midi": 73,
      "hit": false,
      "t": 172880,
      "d": 237.5,
      "v": 1
    },
    {
      "midi": 55,
      "hit": false,
      "t": 172880,
      "d": 205,
      "v": 117
    },
    {
      "midi": 45,
      "hit": false,
      "t": 173000,
      "d": 10,
      "v": 73
    },
    {
      "midi": 61,
      "hit": false,
      "t": 173120,
      "d": 380,
      "v": 113
    },
    {
      "midi": 64,
      "hit": false,
      "t": 173120,
      "d": 815,
      "v": 127
    },
    {
      "midi": 67,
      "hit": false,
      "t": 173120,
      "d": 237.5,
      "v": 1
    },
    {
      "midi": 71,
      "hit": false,
      "t": 173120,
      "d": 237.5,
      "v": 1
    },
    {
      "midi": 57,
      "hit": false,
      "t": 173120,
      "d": 175,
      "v": 113
    },
    {
      "midi": 45,
      "hit": false,
      "t": 173360,
      "d": 250,
      "v": 112
    },
    {
      "midi": 69,
      "hit": false,
      "t": 173360,
      "d": 237.5,
      "v": 1
    },
    {
      "midi": 73,
      "hit": false,
      "t": 173360,
      "d": 237.5,
      "v": 1
    },
    {
      "midi": 57,
      "hit": false,
      "t": 173360,
      "d": 315,
      "v": 113
    },
    {
      "midi": 61,
      "hit": false,
      "t": 173600,
      "d": 310,
      "v": 99
    },
    {
      "midi": 71,
      "hit": false,
      "t": 173600,
      "d": 477.5,
      "v": 1
    },
    {
      "midi": 74,
      "hit": false,
      "t": 173600,
      "d": 477.5,
      "v": 1
    },
    {
      "midi": 43,
      "hit": false,
      "t": 173840,
      "d": 830,
      "v": 115
    },
    {
      "midi": 55,
      "hit": false,
      "t": 173840,
      "d": 195,
      "v": 117
    },
    {
      "midi": 67,
      "hit": false,
      "t": 174080,
      "d": 237.5,
      "v": 1
    },
    {
      "midi": 71,
      "hit": false,
      "t": 174080,
      "d": 237.5,
      "v": 1
    },
    {
      "midi": 59,
      "hit": false,
      "t": 174320,
      "d": 245,
      "v": 118
    },
    {
      "midi": 62,
      "hit": false,
      "t": 174320,
      "d": 270,
      "v": 119
    },
    {
      "midi": 64,
      "hit": false,
      "t": 174320,
      "d": 952.5,
      "v": 1
    },
    {
      "midi": 67,
      "hit": false,
      "t": 174320,
      "d": 952.5,
      "v": 1
    },
    {
      "midi": 55,
      "hit": false,
      "t": 174320,
      "d": 470,
      "v": 111
    },
    {
      "midi": 62,
      "hit": false,
      "t": 174680,
      "d": 65,
      "v": 75
    },
    {
      "midi": 59,
      "hit": false,
      "t": 174680,
      "d": 75,
      "v": 74
    },
    {
      "midi": 43,
      "hit": false,
      "t": 174800,
      "d": 255,
      "v": 106
    },
    {
      "midi": 52,
      "hit": false,
      "t": 174800,
      "d": 180,
      "v": 105
    },
    {
      "midi": 62,
      "hit": false,
      "t": 175040,
      "d": 90,
      "v": 96
    },
    {
      "midi": 59,
      "hit": false,
      "t": 175040,
      "d": 320,
      "v": 125
    },
    {
      "midi": 55,
      "hit": false,
      "t": 175040,
      "d": 420,
      "v": 119
    },
    {
      "midi": 43,
      "hit": false,
      "t": 175280,
      "d": 215,
      "v": 106
    },
    {
      "midi": 59,
      "hit": false,
      "t": 175520,
      "d": 260,
      "v": 91
    },
    {
      "midi": 52,
      "hit": false,
      "t": 175520,
      "d": 440,
      "v": 112
    },
    {
      "midi": 40,
      "hit": false,
      "t": 175760,
      "d": 205,
      "v": 127
    },
    {
      "midi": 40,
      "hit": false,
      "t": 176240,
      "d": 235,
      "v": 120
    },
    {
      "midi": 59,
      "hit": false,
      "t": 176240,
      "d": 340,
      "v": 103
    },
    {
      "midi": 52,
      "hit": false,
      "t": 176240,
      "d": 315,
      "v": 123
    },
    {
      "midi": 40,
      "hit": false,
      "t": 176600,
      "d": 50,
      "v": 123
    },
    {
      "midi": 50,
      "hit": false,
      "t": 176720,
      "d": 180,
      "v": 117
    },
    {
      "midi": 50,
      "hit": false,
      "t": 176720,
      "d": 210,
      "v": 125
    },
    {
      "midi": 51,
      "hit": false,
      "t": 176960,
      "d": 215,
      "v": 119
    },
    {
      "midi": 51,
      "hit": false,
      "t": 176960,
      "d": 220,
      "v": 122
    },
    {
      "midi": 52,
      "hit": false,
      "t": 177200,
      "d": 220,
      "v": 127
    },
    {
      "midi": 52,
      "hit": false,
      "t": 177200,
      "d": 250,
      "v": 116
    },
    {
      "midi": 45,
      "hit": false,
      "t": 177680,
      "d": 50,
      "v": 120
    },
    {
      "midi": 55,
      "hit": false,
      "t": 177680,
      "d": 185,
      "v": 119
    },
    {
      "midi": 57,
      "hit": false,
      "t": 177920,
      "d": 395,
      "v": 111
    },
    {
      "midi": 61,
      "hit": false,
      "t": 178160,
      "d": 240,
      "v": 118
    },
    {
      "midi": 45,
      "hit": false,
      "t": 178160,
      "d": 275,
      "v": 113
    },
    {
      "midi": 64,
      "hit": false,
      "t": 178160,
      "d": 280,
      "v": 112
    },
    {
      "midi": 73,
      "hit": false,
      "t": 178160,
      "d": 717.5,
      "v": 1
    },
    {
      "midi": 76,
      "hit": false,
      "t": 178160,
      "d": 717.5,
      "v": 1
    },
    {
      "midi": 61,
      "hit": false,
      "t": 178520,
      "d": 75,
      "v": 86
    },
    {
      "midi": 64,
      "hit": false,
      "t": 178520,
      "d": 85,
      "v": 88
    },
    {
      "midi": 45,
      "hit": false,
      "t": 178640,
      "d": 120,
      "v": 96
    },
    {
      "midi": 61,
      "hit": false,
      "t": 178880,
      "d": 320,
      "v": 106
    },
    {
      "midi": 64,
      "hit": false,
      "t": 178880,
      "d": 980,
      "v": 117
    },
    {
      "midi": 69,
      "hit": false,
      "t": 178880,
      "d": 477.5,
      "v": 1
    },
    {
      "midi": 73,
      "hit": false,
      "t": 178880,
      "d": 477.5,
      "v": 1
    },
    {
      "midi": 55,
      "hit": false,
      "t": 178880,
      "d": 215,
      "v": 113
    },
    {
      "midi": 45,
      "hit": false,
      "t": 179120,
      "d": 260,
      "v": 99
    },
    {
      "midi": 57,
      "hit": false,
      "t": 179120,
      "d": 175,
      "v": 100
    },
    {
      "midi": 61,
      "hit": false,
      "t": 179360,
      "d": 355,
      "v": 89
    },
    {
      "midi": 67,
      "hit": false,
      "t": 179360,
      "d": 237.5,
      "v": 1
    },
    {
      "midi": 71,
      "hit": false,
      "t": 179360,
      "d": 237.5,
      "v": 1
    },
    {
      "midi": 57,
      "hit": false,
      "t": 179360,
      "d": 290,
      "v": 115
    },
    {
      "midi": 45,
      "hit": false,
      "t": 179600,
      "d": 210,
      "v": 120
    },
    {
      "midi": 69,
      "hit": false,
      "t": 179600,
      "d": 237.5,
      "v": 1
    },
    {
      "midi": 73,
      "hit": false,
      "t": 179600,
      "d": 237.5,
      "v": 1
    },
    {
      "midi": 67,
      "hit": false,
      "t": 179840,
      "d": 237.5,
      "v": 1
    },
    {
      "midi": 71,
      "hit": false,
      "t": 179840,
      "d": 237.5,
      "v": 1
    },
    {
      "midi": 61,
      "hit": false,
      "t": 180080,
      "d": 245,
      "v": 116
    },
    {
      "midi": 64,
      "hit": false,
      "t": 180080,
      "d": 265,
      "v": 117
    },
    {
      "midi": 45,
      "hit": false,
      "t": 180080,
      "d": 420,
      "v": 112
    },
    {
      "midi": 69,
      "hit": false,
      "t": 180080,
      "d": 237.5,
      "v": 1
    },
    {
      "midi": 73,
      "hit": false,
      "t": 180080,
      "d": 237.5,
      "v": 1
    },
    {
      "midi": 67,
      "hit": false,
      "t": 180320,
      "d": 237.5,
      "v": 1
    },
    {
      "midi": 71,
      "hit": false,
      "t": 180320,
      "d": 237.5,
      "v": 1
    },
    {
      "midi": 61,
      "hit": false,
      "t": 180440,
      "d": 140,
      "v": 97
    },
    {
      "midi": 64,
      "hit": false,
      "t": 180440,
      "d": 180,
      "v": 102
    },
    {
      "midi": 57,
      "hit": false,
      "t": 180440,
      "d": 60,
      "v": 101
    },
    {
      "midi": 45,
      "hit": false,
      "t": 180560,
      "d": 20,
      "v": 92
    },
    {
      "midi": 69,
      "hit": false,
      "t": 180560,
      "d": 237.5,
      "v": 1
    },
    {
      "midi": 73,
      "hit": false,
      "t": 180560,
      "d": 237.5,
      "v": 1
    },
    {
      "midi": 55,
      "hit": false,
      "t": 180560,
      "d": 205,
      "v": 115
    },
    {
      "midi": 45,
      "hit": false,
      "t": 180680,
      "d": 10,
      "v": 72
    },
    {
      "midi": 61,
      "hit": false,
      "t": 180800,
      "d": 380,
      "v": 114
    },
    {
      "midi": 64,
      "hit": false,
      "t": 180800,
      "d": 815,
      "v": 127
    },
    {
      "midi": 67,
      "hit": false,
      "t": 180800,
      "d": 237.5,
      "v": 1
    },
    {
      "midi": 71,
      "hit": false,
      "t": 180800,
      "d": 237.5,
      "v": 1
    },
    {
      "midi": 57,
      "hit": false,
      "t": 180800,
      "d": 175,
      "v": 112
    },
    {
      "midi": 45,
      "hit": false,
      "t": 181040,
      "d": 250,
      "v": 115
    },
    {
      "midi": 69,
      "hit": false,
      "t": 181040,
      "d": 237.5,
      "v": 1
    },
    {
      "midi": 73,
      "hit": false,
      "t": 181040,
      "d": 237.5,
      "v": 1
    },
    {
      "midi": 57,
      "hit": false,
      "t": 181040,
      "d": 315,
      "v": 113
    },
    {
      "midi": 61,
      "hit": false,
      "t": 181280,
      "d": 310,
      "v": 98
    },
    {
      "midi": 71,
      "hit": false,
      "t": 181280,
      "d": 477.5,
      "v": 1
    },
    {
      "midi": 74,
      "hit": false,
      "t": 181280,
      "d": 477.5,
      "v": 1
    },
    {
      "midi": 43,
      "hit": false,
      "t": 181520,
      "d": 830,
      "v": 118
    },
    {
      "midi": 55,
      "hit": false,
      "t": 181520,
      "d": 195,
      "v": 113
    },
    {
      "midi": 67,
      "hit": false,
      "t": 181760,
      "d": 237.5,
      "v": 1
    },
    {
      "midi": 71,
      "hit": false,
      "t": 181760,
      "d": 237.5,
      "v": 1
    },
    {
      "midi": 59,
      "hit": false,
      "t": 182000,
      "d": 245,
      "v": 113
    },
    {
      "midi": 62,
      "hit": false,
      "t": 182000,
      "d": 270,
      "v": 118
    },
    {
      "midi": 64,
      "hit": false,
      "t": 182000,
      "d": 952.5,
      "v": 1
    },
    {
      "midi": 67,
      "hit": false,
      "t": 182000,
      "d": 952.5,
      "v": 1
    },
    {
      "midi": 55,
      "hit": false,
      "t": 182000,
      "d": 470,
      "v": 113
    },
    {
      "midi": 62,
      "hit": false,
      "t": 182360,
      "d": 65,
      "v": 77
    },
    {
      "midi": 59,
      "hit": false,
      "t": 182360,
      "d": 75,
      "v": 67
    },
    {
      "midi": 43,
      "hit": false,
      "t": 182480,
      "d": 255,
      "v": 104
    },
    {
      "midi": 52,
      "hit": false,
      "t": 182480,
      "d": 180,
      "v": 103
    },
    {
      "midi": 62,
      "hit": false,
      "t": 182720,
      "d": 90,
      "v": 99
    },
    {
      "midi": 59,
      "hit": false,
      "t": 182720,
      "d": 320,
      "v": 123
    },
    {
      "midi": 55,
      "hit": false,
      "t": 182720,
      "d": 420,
      "v": 115
    },
    {
      "midi": 43,
      "hit": false,
      "t": 182960,
      "d": 215,
      "v": 114
    },
    {
      "midi": 59,
      "hit": false,
      "t": 183200,
      "d": 260,
      "v": 91
    },
    {
      "midi": 52,
      "hit": false,
      "t": 183200,
      "d": 440,
      "v": 113
    },
    {
      "midi": 40,
      "hit": false,
      "t": 183440,
      "d": 205,
      "v": 127
    },
    {
      "midi": 40,
      "hit": false,
      "t": 183920,
      "d": 235,
      "v": 125
    },
    {
      "midi": 59,
      "hit": false,
      "t": 183920,
      "d": 340,
      "v": 103
    },
    {
      "midi": 40,
      "hit": false,
      "t": 183920,
      "d": 510,
      "v": 109
    },
    {
      "midi": 52,
      "hit": false,
      "t": 184160,
      "d": 175,
      "v": 119
    },
    {
      "midi": 40,
      "hit": false,
      "t": 184280,
      "d": 50,
      "v": 115
    },
    {
      "midi": 50,
      "hit": false,
      "t": 184400,
      "d": 180,
      "v": 119
    },
    {
      "midi": 50,
      "hit": false,
      "t": 184400,
      "d": 260,
      "v": 113
    },
    {
      "midi": 51,
      "hit": false,
      "t": 184640,
      "d": 215,
      "v": 123
    },
    {
      "midi": 52,
      "hit": false,
      "t": 184880,
      "d": 220,
      "v": 127
    },
    {
      "midi": 52,
      "hit": false,
      "t": 184880,
      "d": 235,
      "v": 121
    },
    {
      "midi": 45,
      "hit": false,
      "t": 185360,
      "d": 50,
      "v": 113
    },
    {
      "midi": 55,
      "hit": false,
      "t": 185360,
      "d": 185,
      "v": 119
    },
    {
      "midi": 57,
      "hit": false,
      "t": 185600,
      "d": 395,
      "v": 115
    },
    {
      "midi": 61,
      "hit": false,
      "t": 185840,
      "d": 240,
      "v": 114
    },
    {
      "midi": 45,
      "hit": false,
      "t": 185840,
      "d": 275,
      "v": 109
    },
    {
      "midi": 64,
      "hit": false,
      "t": 185840,
      "d": 280,
      "v": 119
    },
    {
      "midi": 73,
      "hit": false,
      "t": 185840,
      "d": 717.5,
      "v": 1
    },
    {
      "midi": 76,
      "hit": false,
      "t": 185840,
      "d": 717.5,
      "v": 1
    },
    {
      "midi": 61,
      "hit": false,
      "t": 186200,
      "d": 75,
      "v": 90
    },
    {
      "midi": 64,
      "hit": false,
      "t": 186200,
      "d": 85,
      "v": 81
    },
    {
      "midi": 45,
      "hit": false,
      "t": 186320,
      "d": 120,
      "v": 98
    },
    {
      "midi": 61,
      "hit": false,
      "t": 186560,
      "d": 320,
      "v": 107
    },
    {
      "midi": 64,
      "hit": false,
      "t": 186560,
      "d": 980,
      "v": 121
    },
    {
      "midi": 69,
      "hit": false,
      "t": 186560,
      "d": 477.5,
      "v": 1
    },
    {
      "midi": 73,
      "hit": false,
      "t": 186560,
      "d": 477.5,
      "v": 1
    },
    {
      "midi": 55,
      "hit": false,
      "t": 186560,
      "d": 215,
      "v": 112
    },
    {
      "midi": 45,
      "hit": false,
      "t": 186800,
      "d": 260,
      "v": 100
    },
    {
      "midi": 57,
      "hit": false,
      "t": 186800,
      "d": 175,
      "v": 107
    },
    {
      "midi": 61,
      "hit": false,
      "t": 187040,
      "d": 355,
      "v": 82
    },
    {
      "midi": 67,
      "hit": false,
      "t": 187040,
      "d": 237.5,
      "v": 1
    },
    {
      "midi": 71,
      "hit": false,
      "t": 187040,
      "d": 237.5,
      "v": 1
    },
    {
      "midi": 57,
      "hit": false,
      "t": 187040,
      "d": 290,
      "v": 115
    },
    {
      "midi": 45,
      "hit": false,
      "t": 187280,
      "d": 210,
      "v": 121
    },
    {
      "midi": 69,
      "hit": false,
      "t": 187280,
      "d": 237.5,
      "v": 1
    },
    {
      "midi": 73,
      "hit": false,
      "t": 187280,
      "d": 237.5,
      "v": 1
    },
    {
      "midi": 67,
      "hit": false,
      "t": 187520,
      "d": 237.5,
      "v": 1
    },
    {
      "midi": 71,
      "hit": false,
      "t": 187520,
      "d": 237.5,
      "v": 1
    },
    {
      "midi": 61,
      "hit": false,
      "t": 187760,
      "d": 245,
      "v": 116
    },
    {
      "midi": 64,
      "hit": false,
      "t": 187760,
      "d": 265,
      "v": 115
    },
    {
      "midi": 45,
      "hit": false,
      "t": 187760,
      "d": 420,
      "v": 115
    },
    {
      "midi": 69,
      "hit": false,
      "t": 187760,
      "d": 237.5,
      "v": 1
    },
    {
      "midi": 73,
      "hit": false,
      "t": 187760,
      "d": 237.5,
      "v": 1
    },
    {
      "midi": 67,
      "hit": false,
      "t": 188000,
      "d": 237.5,
      "v": 1
    },
    {
      "midi": 71,
      "hit": false,
      "t": 188000,
      "d": 237.5,
      "v": 1
    },
    {
      "midi": 61,
      "hit": false,
      "t": 188120,
      "d": 140,
      "v": 96
    },
    {
      "midi": 64,
      "hit": false,
      "t": 188120,
      "d": 180,
      "v": 94
    },
    {
      "midi": 57,
      "hit": false,
      "t": 188120,
      "d": 60,
      "v": 97
    },
    {
      "midi": 45,
      "hit": false,
      "t": 188240,
      "d": 20,
      "v": 95
    },
    {
      "midi": 69,
      "hit": false,
      "t": 188240,
      "d": 237.5,
      "v": 1
    },
    {
      "midi": 73,
      "hit": false,
      "t": 188240,
      "d": 237.5,
      "v": 1
    },
    {
      "midi": 55,
      "hit": false,
      "t": 188240,
      "d": 205,
      "v": 116
    },
    {
      "midi": 45,
      "hit": false,
      "t": 188360,
      "d": 10,
      "v": 70
    },
    {
      "midi": 61,
      "hit": false,
      "t": 188480,
      "d": 380,
      "v": 116
    },
    {
      "midi": 64,
      "hit": false,
      "t": 188480,
      "d": 815,
      "v": 127
    },
    {
      "midi": 67,
      "hit": false,
      "t": 188480,
      "d": 237.5,
      "v": 1
    },
    {
      "midi": 71,
      "hit": false,
      "t": 188480,
      "d": 237.5,
      "v": 1
    },
    {
      "midi": 57,
      "hit": false,
      "t": 188480,
      "d": 175,
      "v": 115
    },
    {
      "midi": 45,
      "hit": false,
      "t": 188720,
      "d": 250,
      "v": 111
    },
    {
      "midi": 69,
      "hit": false,
      "t": 188720,
      "d": 237.5,
      "v": 1
    },
    {
      "midi": 73,
      "hit": false,
      "t": 188720,
      "d": 237.5,
      "v": 1
    },
    {
      "midi": 57,
      "hit": false,
      "t": 188720,
      "d": 315,
      "v": 112
    },
    {
      "midi": 61,
      "hit": false,
      "t": 188960,
      "d": 310,
      "v": 100
    },
    {
      "midi": 71,
      "hit": false,
      "t": 188960,
      "d": 477.5,
      "v": 1
    },
    {
      "midi": 74,
      "hit": false,
      "t": 188960,
      "d": 477.5,
      "v": 1
    },
    {
      "midi": 43,
      "hit": false,
      "t": 189200,
      "d": 830,
      "v": 122
    },
    {
      "midi": 55,
      "hit": false,
      "t": 189200,
      "d": 195,
      "v": 115
    },
    {
      "midi": 67,
      "hit": false,
      "t": 189440,
      "d": 237.5,
      "v": 1
    },
    {
      "midi": 71,
      "hit": false,
      "t": 189440,
      "d": 237.5,
      "v": 1
    },
    {
      "midi": 59,
      "hit": false,
      "t": 189680,
      "d": 245,
      "v": 111
    },
    {
      "midi": 62,
      "hit": false,
      "t": 189680,
      "d": 270,
      "v": 111
    },
    {
      "midi": 64,
      "hit": false,
      "t": 189680,
      "d": 952.5,
      "v": 1
    },
    {
      "midi": 67,
      "hit": false,
      "t": 189680,
      "d": 952.5,
      "v": 1
    },
    {
      "midi": 55,
      "hit": false,
      "t": 189680,
      "d": 470,
      "v": 109
    },
    {
      "midi": 62,
      "hit": false,
      "t": 190040,
      "d": 65,
      "v": 68
    },
    {
      "midi": 59,
      "hit": false,
      "t": 190040,
      "d": 75,
      "v": 68
    },
    {
      "midi": 43,
      "hit": false,
      "t": 190160,
      "d": 255,
      "v": 109
    },
    {
      "midi": 52,
      "hit": false,
      "t": 190160,
      "d": 180,
      "v": 102
    },
    {
      "midi": 62,
      "hit": false,
      "t": 190400,
      "d": 90,
      "v": 102
    },
    {
      "midi": 59,
      "hit": false,
      "t": 190400,
      "d": 320,
      "v": 123
    },
    {
      "midi": 55,
      "hit": false,
      "t": 190400,
      "d": 420,
      "v": 120
    },
    {
      "midi": 43,
      "hit": false,
      "t": 190640,
      "d": 215,
      "v": 110
    },
    {
      "midi": 59,
      "hit": false,
      "t": 190880,
      "d": 260,
      "v": 92
    },
    {
      "midi": 52,
      "hit": false,
      "t": 190880,
      "d": 440,
      "v": 121
    },
    {
      "midi": 40,
      "hit": false,
      "t": 191120,
      "d": 205,
      "v": 127
    },
    {
      "midi": 40,
      "hit": false,
      "t": 191600,
      "d": 235,
      "v": 126
    },
    {
      "midi": 59,
      "hit": false,
      "t": 191600,
      "d": 340,
      "v": 111
    },
    {
      "midi": 52,
      "hit": false,
      "t": 191600,
      "d": 315,
      "v": 120
    },
    {
      "midi": 40,
      "hit": false,
      "t": 191960,
      "d": 50,
      "v": 122
    },
    {
      "midi": 50,
      "hit": false,
      "t": 192080,
      "d": 180,
      "v": 120
    },
    {
      "midi": 50,
      "hit": false,
      "t": 192080,
      "d": 210,
      "v": 118
    },
    {
      "midi": 51,
      "hit": false,
      "t": 192320,
      "d": 215,
      "v": 115
    },
    {
      "midi": 51,
      "hit": false,
      "t": 192320,
      "d": 220,
      "v": 122
    },
    {
      "midi": 52,
      "hit": false,
      "t": 192560,
      "d": 220,
      "v": 125
    },
    {
      "midi": 52,
      "hit": false,
      "t": 192560,
      "d": 250,
      "v": 113
    },
    {
      "midi": 45,
      "hit": false,
      "t": 193040,
      "d": 50,
      "v": 114
    },
    {
      "midi": 55,
      "hit": false,
      "t": 193040,
      "d": 185,
      "v": 117
    },
    {
      "midi": 57,
      "hit": false,
      "t": 193280,
      "d": 395,
      "v": 113
    },
    {
      "midi": 61,
      "hit": false,
      "t": 193520,
      "d": 240,
      "v": 121
    },
    {
      "midi": 45,
      "hit": false,
      "t": 193520,
      "d": 275,
      "v": 113
    },
    {
      "midi": 64,
      "hit": false,
      "t": 193520,
      "d": 280,
      "v": 111
    },
    {
      "midi": 73,
      "hit": false,
      "t": 193520,
      "d": 717.5,
      "v": 1
    },
    {
      "midi": 76,
      "hit": false,
      "t": 193520,
      "d": 717.5,
      "v": 1
    },
    {
      "midi": 61,
      "hit": false,
      "t": 193880,
      "d": 75,
      "v": 95
    },
    {
      "midi": 64,
      "hit": false,
      "t": 193880,
      "d": 85,
      "v": 80
    },
    {
      "midi": 45,
      "hit": false,
      "t": 194000,
      "d": 120,
      "v": 96
    },
    {
      "midi": 61,
      "hit": false,
      "t": 194240,
      "d": 320,
      "v": 111
    },
    {
      "midi": 64,
      "hit": false,
      "t": 194240,
      "d": 980,
      "v": 121
    },
    {
      "midi": 69,
      "hit": false,
      "t": 194240,
      "d": 477.5,
      "v": 1
    },
    {
      "midi": 73,
      "hit": false,
      "t": 194240,
      "d": 477.5,
      "v": 1
    },
    {
      "midi": 55,
      "hit": false,
      "t": 194240,
      "d": 215,
      "v": 111
    },
    {
      "midi": 45,
      "hit": false,
      "t": 194480,
      "d": 260,
      "v": 96
    },
    {
      "midi": 57,
      "hit": false,
      "t": 194480,
      "d": 175,
      "v": 108
    },
    {
      "midi": 61,
      "hit": false,
      "t": 194720,
      "d": 355,
      "v": 85
    },
    {
      "midi": 67,
      "hit": false,
      "t": 194720,
      "d": 237.5,
      "v": 1
    },
    {
      "midi": 71,
      "hit": false,
      "t": 194720,
      "d": 237.5,
      "v": 1
    },
    {
      "midi": 57,
      "hit": false,
      "t": 194720,
      "d": 290,
      "v": 114
    },
    {
      "midi": 45,
      "hit": false,
      "t": 194960,
      "d": 210,
      "v": 115
    },
    {
      "midi": 69,
      "hit": false,
      "t": 194960,
      "d": 237.5,
      "v": 1
    },
    {
      "midi": 73,
      "hit": false,
      "t": 194960,
      "d": 237.5,
      "v": 1
    },
    {
      "midi": 67,
      "hit": false,
      "t": 195200,
      "d": 237.5,
      "v": 1
    },
    {
      "midi": 71,
      "hit": false,
      "t": 195200,
      "d": 237.5,
      "v": 1
    },
    {
      "midi": 61,
      "hit": false,
      "t": 195440,
      "d": 245,
      "v": 112
    },
    {
      "midi": 64,
      "hit": false,
      "t": 195440,
      "d": 265,
      "v": 117
    },
    {
      "midi": 45,
      "hit": false,
      "t": 195440,
      "d": 420,
      "v": 108
    },
    {
      "midi": 69,
      "hit": false,
      "t": 195440,
      "d": 237.5,
      "v": 1
    },
    {
      "midi": 73,
      "hit": false,
      "t": 195440,
      "d": 237.5,
      "v": 1
    },
    {
      "midi": 67,
      "hit": false,
      "t": 195680,
      "d": 237.5,
      "v": 1
    },
    {
      "midi": 71,
      "hit": false,
      "t": 195680,
      "d": 237.5,
      "v": 1
    },
    {
      "midi": 61,
      "hit": false,
      "t": 195800,
      "d": 140,
      "v": 95
    },
    {
      "midi": 64,
      "hit": false,
      "t": 195800,
      "d": 180,
      "v": 99
    },
    {
      "midi": 57,
      "hit": false,
      "t": 195800,
      "d": 60,
      "v": 93
    },
    {
      "midi": 45,
      "hit": false,
      "t": 195920,
      "d": 20,
      "v": 90
    },
    {
      "midi": 69,
      "hit": false,
      "t": 195920,
      "d": 237.5,
      "v": 1
    },
    {
      "midi": 73,
      "hit": false,
      "t": 195920,
      "d": 237.5,
      "v": 1
    },
    {
      "midi": 55,
      "hit": false,
      "t": 195920,
      "d": 205,
      "v": 119
    },
    {
      "midi": 45,
      "hit": false,
      "t": 196040,
      "d": 10,
      "v": 65
    },
    {
      "midi": 61,
      "hit": false,
      "t": 196160,
      "d": 380,
      "v": 119
    },
    {
      "midi": 64,
      "hit": false,
      "t": 196160,
      "d": 815,
      "v": 126
    },
    {
      "midi": 67,
      "hit": false,
      "t": 196160,
      "d": 237.5,
      "v": 1
    },
    {
      "midi": 71,
      "hit": false,
      "t": 196160,
      "d": 237.5,
      "v": 1
    },
    {
      "midi": 57,
      "hit": false,
      "t": 196160,
      "d": 175,
      "v": 117
    },
    {
      "midi": 45,
      "hit": false,
      "t": 196400,
      "d": 250,
      "v": 110
    },
    {
      "midi": 69,
      "hit": false,
      "t": 196400,
      "d": 237.5,
      "v": 1
    },
    {
      "midi": 73,
      "hit": false,
      "t": 196400,
      "d": 237.5,
      "v": 1
    },
    {
      "midi": 57,
      "hit": false,
      "t": 196400,
      "d": 315,
      "v": 115
    },
    {
      "midi": 61,
      "hit": false,
      "t": 196640,
      "d": 310,
      "v": 103
    },
    {
      "midi": 71,
      "hit": false,
      "t": 196640,
      "d": 477.5,
      "v": 1
    },
    {
      "midi": 74,
      "hit": false,
      "t": 196640,
      "d": 477.5,
      "v": 1
    },
    {
      "midi": 43,
      "hit": false,
      "t": 196880,
      "d": 830,
      "v": 114
    },
    {
      "midi": 55,
      "hit": false,
      "t": 196880,
      "d": 195,
      "v": 110
    },
    {
      "midi": 67,
      "hit": false,
      "t": 197120,
      "d": 237.5,
      "v": 1
    },
    {
      "midi": 71,
      "hit": false,
      "t": 197120,
      "d": 237.5,
      "v": 1
    },
    {
      "midi": 59,
      "hit": false,
      "t": 197360,
      "d": 245,
      "v": 119
    },
    {
      "midi": 62,
      "hit": false,
      "t": 197360,
      "d": 270,
      "v": 114
    },
    {
      "midi": 64,
      "hit": false,
      "t": 197360,
      "d": 952.5,
      "v": 1
    },
    {
      "midi": 67,
      "hit": false,
      "t": 197360,
      "d": 952.5,
      "v": 1
    },
    {
      "midi": 55,
      "hit": false,
      "t": 197360,
      "d": 470,
      "v": 113
    },
    {
      "midi": 62,
      "hit": false,
      "t": 197720,
      "d": 65,
      "v": 77
    },
    {
      "midi": 59,
      "hit": false,
      "t": 197720,
      "d": 75,
      "v": 73
    },
    {
      "midi": 43,
      "hit": false,
      "t": 197840,
      "d": 255,
      "v": 107
    },
    {
      "midi": 52,
      "hit": false,
      "t": 197840,
      "d": 180,
      "v": 108
    },
    {
      "midi": 62,
      "hit": false,
      "t": 198080,
      "d": 90,
      "v": 104
    },
    {
      "midi": 59,
      "hit": false,
      "t": 198080,
      "d": 320,
      "v": 123
    },
    {
      "midi": 55,
      "hit": false,
      "t": 198080,
      "d": 420,
      "v": 120
    },
    {
      "midi": 43,
      "hit": false,
      "t": 198320,
      "d": 215,
      "v": 113
    },
    {
      "midi": 59,
      "hit": false,
      "t": 198560,
      "d": 260,
      "v": 90
    },
    {
      "midi": 52,
      "hit": false,
      "t": 198560,
      "d": 440,
      "v": 114
    },
    {
      "midi": 40,
      "hit": false,
      "t": 198800,
      "d": 205,
      "v": 125
    },
    {
      "midi": 40,
      "hit": false,
      "t": 199280,
      "d": 235,
      "v": 127
    },
    {
      "midi": 59,
      "hit": false,
      "t": 199280,
      "d": 340,
      "v": 104
    },
    {
      "midi": 40,
      "hit": false,
      "t": 199280,
      "d": 510,
      "v": 110
    },
    {
      "midi": 52,
      "hit": false,
      "t": 199520,
      "d": 175,
      "v": 121
    },
    {
      "midi": 40,
      "hit": false,
      "t": 199640,
      "d": 50,
      "v": 119
    },
    {
      "midi": 50,
      "hit": false,
      "t": 199760,
      "d": 180,
      "v": 118
    },
    {
      "midi": 50,
      "hit": false,
      "t": 199760,
      "d": 260,
      "v": 113
    },
    {
      "midi": 51,
      "hit": false,
      "t": 200000,
      "d": 215,
      "v": 123
    },
    {
      "midi": 52,
      "hit": false,
      "t": 200240,
      "d": 220,
      "v": 126
    },
    {
      "midi": 52,
      "hit": false,
      "t": 200240,
      "d": 235,
      "v": 120
    },
    {
      "midi": 73,
      "hit": false,
      "t": 201200,
      "d": 717.5,
      "v": 1
    },
    {
      "midi": 76,
      "hit": false,
      "t": 201200,
      "d": 717.5,
      "v": 1
    },
    {
      "midi": 73,
      "hit": false,
      "t": 201920,
      "d": 477.5,
      "v": 1
    },
    {
      "midi": 71,
      "hit": false,
      "t": 202400,
      "d": 237.5,
      "v": 1
    },
    {
      "midi": 69,
      "hit": false,
      "t": 202640,
      "d": 237.5,
      "v": 1
    },
    {
      "midi": 73,
      "hit": false,
      "t": 202640,
      "d": 237.5,
      "v": 1
    },
    {
      "midi": 67,
      "hit": false,
      "t": 202880,
      "d": 237.5,
      "v": 1
    },
    {
      "midi": 71,
      "hit": false,
      "t": 202880,
      "d": 237.5,
      "v": 1
    },
    {
      "midi": 69,
      "hit": false,
      "t": 203120,
      "d": 237.5,
      "v": 1
    },
    {
      "midi": 73,
      "hit": false,
      "t": 203120,
      "d": 237.5,
      "v": 1
    },
    {
      "midi": 67,
      "hit": false,
      "t": 203360,
      "d": 237.5,
      "v": 1
    },
    {
      "midi": 71,
      "hit": false,
      "t": 203360,
      "d": 237.5,
      "v": 1
    },
    {
      "midi": 69,
      "hit": false,
      "t": 203600,
      "d": 237.5,
      "v": 1
    },
    {
      "midi": 73,
      "hit": false,
      "t": 203600,
      "d": 237.5,
      "v": 1
    },
    {
      "midi": 67,
      "hit": false,
      "t": 203840,
      "d": 237.5,
      "v": 1
    },
    {
      "midi": 71,
      "hit": false,
      "t": 203840,
      "d": 237.5,
      "v": 1
    },
    {
      "midi": 69,
      "hit": false,
      "t": 204080,
      "d": 237.5,
      "v": 1
    },
    {
      "midi": 73,
      "hit": false,
      "t": 204080,
      "d": 237.5,
      "v": 1
    },
    {
      "midi": 71,
      "hit": false,
      "t": 204320,
      "d": 477.5,
      "v": 1
    },
    {
      "midi": 74,
      "hit": false,
      "t": 204320,
      "d": 477.5,
      "v": 1
    },
    {
      "midi": 67,
      "hit": false,
      "t": 204800,
      "d": 477.5,
      "v": 1
    },
    {
      "midi": 71,
      "hit": false,
      "t": 204800,
      "d": 477.5,
      "v": 1
    },
    {
      "midi": 69,
      "hit": false,
      "t": 205280,
      "d": 957.5,
      "v": 1
    },
    {
      "midi": 73,
      "hit": false,
      "t": 205280,
      "d": 957.5,
      "v": 1
    }
  ]
}