{
  "jsonPath": "World/Kirtan/Alexia/uh-la-la-la.json",
  "path": "World\\Kirtan\\Alexia\\Uh La La La.mid",
  "name": "Uh La La La",
  "difficulty": "Advanced",
  "bpm": 94.00012846684224,
  "notes": [
    {
      "midi": 65,
      "hit": false,
      "t": 61932.09578645833,
      "d": 1547.378335937501,
      "v": 102
    },
    {
      "midi": 58,
      "hit": false,
      "t": 61933.77589322917,
      "d": 1490.2547057291667,
      "v": 98
    },
    {
      "midi": 62,
      "hit": false,
      "t": 61933.77589322917,
      "d": 1520.4966276041669,
      "v": 107
    },
    {
      "midi": 58,
      "hit": false,
      "t": 61935.456,
      "d": 2575.603679687498,
      "v": 1
    },
    {
      "midi": 62,
      "hit": false,
      "t": 61935.456,
      "d": 2575.603679687498,
      "v": 1
    },
    {
      "midi": 65,
      "hit": false,
      "t": 61935.456,
      "d": 2575.603679687498,
      "v": 1
    },
    {
      "midi": 46,
      "hit": false,
      "t": 61937.136106770835,
      "d": 1752.3513619791702,
      "v": 85
    },
    {
      "midi": 65,
      "hit": false,
      "t": 63538.277859375,
      "d": 440.18797395833826,
      "v": 93
    },
    {
      "midi": 62,
      "hit": false,
      "t": 63539.957966145834,
      "d": 414.9863723958333,
      "v": 107
    },
    {
      "midi": 58,
      "hit": false,
      "t": 63541.63807291667,
      "d": 389.78477083332837,
      "v": 102
    },
    {
      "midi": 46,
      "hit": false,
      "t": 63857.498145833335,
      "d": 601.4782239583365,
      "v": 76
    },
    {
      "midi": 65,
      "hit": false,
      "t": 64025.50882291667,
      "d": 399.86541145833326,
      "v": 76
    },
    {
      "midi": 58,
      "hit": false,
      "t": 64027.18892968751,
      "d": 352.8224218749965,
      "v": 85
    },
    {
      "midi": 62,
      "hit": false,
      "t": 64027.18892968751,
      "d": 396.5051979166601,
      "v": 102
    },
    {
      "midi": 48,
      "hit": false,
      "t": 64507.69946614584,
      "d": 1710.3486927083359,
      "v": 89
    },
    {
      "midi": 67,
      "hit": false,
      "t": 64511.0596796875,
      "d": 441.86808072916756,
      "v": 93
    },
    {
      "midi": 64,
      "hit": false,
      "t": 64511.0596796875,
      "d": 917.3382968750011,
      "v": 102
    },
    {
      "midi": 60,
      "hit": false,
      "t": 64512.73978645834,
      "d": 433.46754687499924,
      "v": 89
    },
    {
      "midi": 60,
      "hit": false,
      "t": 64516.1,
      "d": 2567.2031458333295,
      "v": 1
    },
    {
      "midi": 67,
      "hit": false,
      "t": 64516.1,
      "d": 2573.923572916661,
      "v": 1
    },
    {
      "midi": 64,
      "hit": false,
      "t": 64516.1,
      "d": 2578.9638932291637,
      "v": 1
    },
    {
      "midi": 60,
      "hit": false,
      "t": 64991.57021614584,
      "d": 423.38690625000163,
      "v": 47
    },
    {
      "midi": 67,
      "hit": false,
      "t": 64993.250322916676,
      "d": 436.8277604166651,
      "v": 72
    },
    {
      "midi": 64,
      "hit": false,
      "t": 65477.12107291668,
      "d": 596.4379036458267,
      "v": 72
    },
    {
      "midi": 67,
      "hit": false,
      "t": 65478.801179687514,
      "d": 594.7577968749902,
      "v": 93
    },
    {
      "midi": 60,
      "hit": false,
      "t": 65480.48128645835,
      "d": 566.1959817708266,
      "v": 64
    },
    {
      "midi": 64,
      "hit": false,
      "t": 66125.64228645834,
      "d": 367.9433828124893,
      "v": 107
    },
    {
      "midi": 60,
      "hit": false,
      "t": 66127.32239322917,
      "d": 341.0616744791623,
      "v": 98
    },
    {
      "midi": 67,
      "hit": false,
      "t": 66127.32239322917,
      "d": 366.26327604166,
      "v": 102
    },
    {
      "midi": 48,
      "hit": false,
      "t": 66441.50235937501,
      "d": 618.2792916666367,
      "v": 98
    },
    {
      "midi": 64,
      "hit": false,
      "t": 66597.7522890625,
      "d": 325.940713541655,
      "v": 93
    },
    {
      "midi": 67,
      "hit": false,
      "t": 66599.43239583333,
      "d": 440.1879739583237,
      "v": 98
    },
    {
      "midi": 60,
      "hit": false,
      "t": 66601.11250260416,
      "d": 409.9460520833236,
      "v": 98
    },
    {
      "midi": 62,
      "hit": false,
      "t": 67095.06389322915,
      "d": 414.9863723958406,
      "v": 102
    },
    {
      "midi": 65,
      "hit": false,
      "t": 67095.06389322915,
      "d": 1562.4992968750157,
      "v": 102
    },
    {
      "midi": 62,
      "hit": false,
      "t": 67096.74399999999,
      "d": 2575.603679687498,
      "v": 1
    },
    {
      "midi": 65,
      "hit": false,
      "t": 67096.74399999999,
      "d": 2575.603679687498,
      "v": 1
    },
    {
      "midi": 70,
      "hit": false,
      "t": 67096.74399999999,
      "d": 2575.603679687498,
      "v": 1
    },
    {
      "midi": 58,
      "hit": false,
      "t": 67098.42410677082,
      "d": 414.9863723958406,
      "v": 76
    },
    {
      "midi": 46,
      "hit": false,
      "t": 67098.42410677082,
      "d": 1656.5852760416747,
      "v": 98
    },
    {
      "midi": 58,
      "hit": false,
      "t": 67575.57442968749,
      "d": 1036.625877604165,
      "v": 44
    },
    {
      "midi": 62,
      "hit": false,
      "t": 67575.57442968749,
      "d": 1070.2280130208383,
      "v": 76
    },
    {
      "midi": 58,
      "hit": false,
      "t": 68706.28628645833,
      "d": 341.0616744791623,
      "v": 93
    },
    {
      "midi": 65,
      "hit": false,
      "t": 68706.28628645833,
      "d": 388.1046640624845,
      "v": 93
    },
    {
      "midi": 62,
      "hit": false,
      "t": 68707.96639322916,
      "d": 366.26327604166,
      "v": 107
    },
    {
      "midi": 46,
      "hit": false,
      "t": 69017.10603906249,
      "d": 559.4755546874658,
      "v": 76
    },
    {
      "midi": 58,
      "hit": false,
      "t": 69181.75650260414,
      "d": 378.0240234374942,
      "v": 93
    },
    {
      "midi": 65,
      "hit": false,
      "t": 69181.75650260414,
      "d": 393.14498437498696,
      "v": 89
    },
    {
      "midi": 62,
      "hit": false,
      "t": 69183.43660937497,
      "d": 374.6638098958356,
      "v": 98
    },
    {
      "midi": 64,
      "hit": false,
      "t": 69677.38799999999,
      "d": 317.54017968749395,
      "v": 1
    },
    {
      "midi": 67,
      "hit": false,
      "t": 69677.38799999999,
      "d": 317.54017968749395,
      "v": 1
    },
    {
      "midi": 72,
      "hit": false,
      "t": 69677.38799999999,
      "d": 317.54017968749395,
      "v": 1
    },
    {
      "midi": 72,
      "hit": false,
      "t": 72258.03199999999,
      "d": 571.2363020833291,
      "v": 1
    },
    {
      "midi": 70,
      "hit": false,
      "t": 72834.30862239582,
      "d": 198.25259895833733,
      "v": 1
    },
    {
      "midi": 72,
      "hit": false,
      "t": 73037.60154166666,
      "d": 315.86007291666465,
      "v": 1
    },
    {
      "midi": 74,
      "hit": false,
      "t": 73358.50193489583,
      "d": 668.6824947916612,
      "v": 1
    },
    {
      "midi": 72,
      "hit": false,
      "t": 77698.21772395833,
      "d": 337.7014609375037,
      "v": 1
    },
    {
      "midi": 70,
      "hit": false,
      "t": 78040.95950520833,
      "d": 166.33057031249336,
      "v": 1
    },
    {
      "midi": 72,
      "hit": false,
      "t": 78212.33039583333,
      "d": 324.26060677084024,
      "v": 1
    },
    {
      "midi": 74,
      "hit": false,
      "t": 78541.63132291667,
      "d": 330.981033854172,
      "v": 1
    },
    {
      "midi": 70,
      "hit": false,
      "t": 78877.65267708334,
      "d": 794.6905026041641,
      "v": 1
    },
    {
      "midi": 72,
      "hit": false,
      "t": 82580.60800000001,
      "d": 571.2363020833291,
      "v": 1
    },
    {
      "midi": 70,
      "hit": false,
      "t": 83156.88462239584,
      "d": 198.25259895833733,
      "v": 1
    },
    {
      "midi": 72,
      "hit": false,
      "t": 83360.17754166668,
      "d": 315.86007291666465,
      "v": 1
    },
    {
      "midi": 74,
      "hit": false,
      "t": 83681.07793489585,
      "d": 991.2629947916721,
      "v": 1
    },
    {
      "midi": 72,
      "hit": false,
      "t": 88020.79372395836,
      "d": 337.7014609375037,
      "v": 1
    },
    {
      "midi": 70,
      "hit": false,
      "t": 88363.53550520836,
      "d": 166.33057031249336,
      "v": 1
    },
    {
      "midi": 72,
      "hit": false,
      "t": 88534.90639583336,
      "d": 324.26060677084024,
      "v": 1
    },
    {
      "midi": 74,
      "hit": false,
      "t": 88864.2073229167,
      "d": 330.981033854172,
      "v": 1
    },
    {
      "midi": 70,
      "hit": false,
      "t": 89200.22867708337,
      "d": 794.6905026041641,
      "v": 1
    },
    {
      "midi": 65,
      "hit": false,
      "t": 116125.6197864583,
      "d": 1547.3783359374938,
      "v": 102
    },
    {
      "midi": 58,
      "hit": false,
      "t": 116127.29989322912,
      "d": 1490.2547057291667,
      "v": 98
    },
    {
      "midi": 62,
      "hit": false,
      "t": 116127.29989322912,
      "d": 1520.4966276041669,
      "v": 107
    },
    {
      "midi": 58,
      "hit": false,
      "t": 116128.98000000004,
      "d": 2575.603679687498,
      "v": 1
    },
    {
      "midi": 62,
      "hit": false,
      "t": 116128.98000000004,
      "d": 2575.603679687498,
      "v": 1
    },
    {
      "midi": 65,
      "hit": false,
      "t": 116128.98000000004,
      "d": 2575.603679687498,
      "v": 1
    },
    {
      "midi": 46,
      "hit": false,
      "t": 116130.6601067708,
      "d": 1752.3513619791484,
      "v": 85
    },
    {
      "midi": 65,
      "hit": false,
      "t": 117731.80185937496,
      "d": 440.1879739583237,
      "v": 93
    },
    {
      "midi": 62,
      "hit": false,
      "t": 117733.48196614579,
      "d": 414.98637239582604,
      "v": 107
    },
    {
      "midi": 58,
      "hit": false,
      "t": 117735.16207291662,
      "d": 389.78477083332837,
      "v": 102
    },
    {
      "midi": 46,
      "hit": false,
      "t": 118051.02214583328,
      "d": 601.4782239583292,
      "v": 76
    },
    {
      "midi": 65,
      "hit": false,
      "t": 118219.03282291662,
      "d": 399.8654114583187,
      "v": 76
    },
    {
      "midi": 58,
      "hit": false,
      "t": 118220.71292968745,
      "d": 352.8224218749965,
      "v": 85
    },
    {
      "midi": 62,
      "hit": false,
      "t": 118220.71292968745,
      "d": 396.5051979166601,
      "v": 102
    },
    {
      "midi": 48,
      "hit": false,
      "t": 118701.22346614578,
      "d": 1710.348692708314,
      "v": 89
    },
    {
      "midi": 67,
      "hit": false,
      "t": 118704.58367968745,
      "d": 441.86808072916756,
      "v": 93
    },
    {
      "midi": 64,
      "hit": false,
      "t": 118704.58367968745,
      "d": 917.3382968749938,
      "v": 102
    },
    {
      "midi": 60,
      "hit": false,
      "t": 118706.26378645828,
      "d": 433.4675468750065,
      "v": 89
    },
    {
      "midi": 60,
      "hit": false,
      "t": 118709.62400000004,
      "d": 2567.2031458333367,
      "v": 1
    },
    {
      "midi": 67,
      "hit": false,
      "t": 118709.62400000004,
      "d": 2573.9235729166685,
      "v": 1
    },
    {
      "midi": 64,
      "hit": false,
      "t": 118709.62400000004,
      "d": 2578.963893229171,
      "v": 1
    },
    {
      "midi": 60,
      "hit": false,
      "t": 119185.09421614578,
      "d": 423.38690625000163,
      "v": 47
    },
    {
      "midi": 67,
      "hit": false,
      "t": 119186.77432291661,
      "d": 436.8277604166651,
      "v": 72
    },
    {
      "midi": 64,
      "hit": false,
      "t": 119670.64507291661,
      "d": 596.4379036458122,
      "v": 72
    },
    {
      "midi": 67,
      "hit": false,
      "t": 119672.32517968744,
      "d": 594.7577968749829,
      "v": 93
    },
    {
      "midi": 60,
      "hit": false,
      "t": 119674.00528645827,
      "d": 566.1959817708266,
      "v": 64
    },
    {
      "midi": 64,
      "hit": false,
      "t": 120319.16628645826,
      "d": 367.9433828124893,
      "v": 107
    },
    {
      "midi": 60,
      "hit": false,
      "t": 120320.84639322909,
      "d": 341.0616744791623,
      "v": 98
    },
    {
      "midi": 67,
      "hit": false,
      "t": 120320.84639322909,
      "d": 366.26327604166,
      "v": 102
    },
    {
      "midi": 48,
      "hit": false,
      "t": 120635.02635937493,
      "d": 618.2792916666367,
      "v": 98
    },
    {
      "midi": 64,
      "hit": false,
      "t": 120791.27628906241,
      "d": 325.940713541655,
      "v": 93
    },
    {
      "midi": 67,
      "hit": false,
      "t": 120792.95639583324,
      "d": 440.1879739583237,
      "v": 98
    },
    {
      "midi": 60,
      "hit": false,
      "t": 120794.63650260407,
      "d": 409.9460520833236,
      "v": 98
    },
    {
      "midi": 62,
      "hit": false,
      "t": 121288.58789322907,
      "d": 414.9863723958406,
      "v": 102
    },
    {
      "midi": 65,
      "hit": false,
      "t": 121288.58789322907,
      "d": 1562.4992968750157,
      "v": 102
    },
    {
      "midi": 62,
      "hit": false,
      "t": 121290.26800000004,
      "d": 2575.603679687498,
      "v": 1
    },
    {
      "midi": 65,
      "hit": false,
      "t": 121290.26800000004,
      "d": 2575.603679687498,
      "v": 1
    },
    {
      "midi": 70,
      "hit": false,
      "t": 121290.26800000004,
      "d": 2575.603679687498,
      "v": 1
    },
    {
      "midi": 58,
      "hit": false,
      "t": 121291.94810677074,
      "d": 414.9863723958406,
      "v": 76
    },
    {
      "midi": 46,
      "hit": false,
      "t": 121291.94810677074,
      "d": 1656.5852760416747,
      "v": 98
    },
    {
      "midi": 58,
      "hit": false,
      "t": 121769.09842968741,
      "d": 1036.625877604165,
      "v": 44
    },
    {
      "midi": 62,
      "hit": false,
      "t": 121769.09842968741,
      "d": 1070.2280130208383,
      "v": 76
    },
    {
      "midi": 58,
      "hit": false,
      "t": 122899.81028645825,
      "d": 341.0616744791623,
      "v": 93
    },
    {
      "midi": 65,
      "hit": false,
      "t": 122899.81028645825,
      "d": 388.1046640624845,
      "v": 93
    },
    {
      "midi": 62,
      "hit": false,
      "t": 122901.49039322908,
      "d": 366.26327604166,
      "v": 107
    },
    {
      "midi": 46,
      "hit": false,
      "t": 123210.63003906241,
      "d": 559.4755546874658,
      "v": 76
    },
    {
      "midi": 58,
      "hit": false,
      "t": 123375.28050260406,
      "d": 378.0240234374942,
      "v": 93
    },
    {
      "midi": 65,
      "hit": false,
      "t": 123375.28050260406,
      "d": 393.14498437498696,
      "v": 89
    },
    {
      "midi": 62,
      "hit": false,
      "t": 123376.96060937489,
      "d": 374.6638098958356,
      "v": 98
    },
    {
      "midi": 64,
      "hit": false,
      "t": 123870.91200000004,
      "d": 317.54017968749395,
      "v": 1
    },
    {
      "midi": 67,
      "hit": false,
      "t": 123870.91200000004,
      "d": 317.54017968749395,
      "v": 1
    },
    {
      "midi": 72,
      "hit": false,
      "t": 123870.91200000004,
      "d": 317.54017968749395,
      "v": 1
    },
    {
      "midi": 72,
      "hit": false,
      "t": 126451.55600000004,
      "d": 571.2363020833291,
      "v": 1
    },
    {
      "midi": 70,
      "hit": false,
      "t": 127027.83262239587,
      "d": 198.25259895833733,
      "v": 1
    },
    {
      "midi": 72,
      "hit": false,
      "t": 127231.12554166671,
      "d": 315.86007291666465,
      "v": 1
    },
    {
      "midi": 74,
      "hit": false,
      "t": 127552.02593489588,
      "d": 668.6824947916612,
      "v": 1
    },
    {
      "midi": 72,
      "hit": false,
      "t": 131891.74172395837,
      "d": 337.7014609375037,
      "v": 1
    },
    {
      "midi": 70,
      "hit": false,
      "t": 132234.48350520837,
      "d": 166.33057031250792,
      "v": 1
    },
    {
      "midi": 72,
      "hit": false,
      "t": 132405.85439583336,
      "d": 324.26060677084024,
      "v": 1
    },
    {
      "midi": 74,
      "hit": false,
      "t": 132735.1553229167,
      "d": 330.98103385415743,
      "v": 1
    },
    {
      "midi": 70,
      "hit": false,
      "t": 133071.17667708333,
      "d": 794.6905026041786,
      "v": 1
    },
    {
      "midi": 72,
      "hit": false,
      "t": 136774.132,
      "d": 571.2363020833291,
      "v": 1
    },
    {
      "midi": 70,
      "hit": false,
      "t": 137350.40862239583,
      "d": 198.25259895832278,
      "v": 1
    },
    {
      "midi": 72,
      "hit": false,
      "t": 137553.70154166664,
      "d": 315.86007291666465,
      "v": 1
    },
    {
      "midi": 74,
      "hit": false,
      "t": 137874.6019348958,
      "d": 991.2629947916721,
      "v": 1
    },
    {
      "midi": 72,
      "hit": false,
      "t": 142214.3177239583,
      "d": 337.7014609375037,
      "v": 1
    },
    {
      "midi": 70,
      "hit": false,
      "t": 142557.05950520828,
      "d": 166.33057031250792,
      "v": 1
    },
    {
      "midi": 72,
      "hit": false,
      "t": 142728.43039583327,
      "d": 324.26060677084024,
      "v": 1
    },
    {
      "midi": 74,
      "hit": false,
      "t": 143057.7313229166,
      "d": 330.98103385415743,
      "v": 1
    },
    {
      "midi": 70,
      "hit": false,
      "t": 143393.75267708325,
      "d": 794.6905026041786,
      "v": 1
    },
    {
      "midi": 65,
      "hit": false,
      "t": 167738.4997864582,
      "d": 1547.3783359374793,
      "v": 102
    },
    {
      "midi": 58,
      "hit": false,
      "t": 167740.17989322904,
      "d": 1490.2547057291667,
      "v": 98
    },
    {
      "midi": 62,
      "hit": false,
      "t": 167740.17989322904,
      "d": 1520.4966276041523,
      "v": 107
    },
    {
      "midi": 58,
      "hit": false,
      "t": 167741.85999999993,
      "d": 2575.6036796875123,
      "v": 1
    },
    {
      "midi": 62,
      "hit": false,
      "t": 167741.85999999993,
      "d": 2575.6036796875123,
      "v": 1
    },
    {
      "midi": 65,
      "hit": false,
      "t": 167741.85999999993,
      "d": 2575.6036796875123,
      "v": 1
    },
    {
      "midi": 46,
      "hit": false,
      "t": 167743.5401067707,
      "d": 1752.3513619791484,
      "v": 85
    },
    {
      "midi": 65,
      "hit": false,
      "t": 169344.68185937486,
      "d": 440.1879739583237,
      "v": 93
    },
    {
      "midi": 62,
      "hit": false,
      "t": 169346.3619661457,
      "d": 414.98637239582604,
      "v": 107
    },
    {
      "midi": 58,
      "hit": false,
      "t": 169348.04207291652,
      "d": 389.78477083332837,
      "v": 102
    },
    {
      "midi": 46,
      "hit": false,
      "t": 169663.90214583318,
      "d": 601.4782239583437,
      "v": 76
    },
    {
      "midi": 65,
      "hit": false,
      "t": 169831.91282291652,
      "d": 399.86541145833326,
      "v": 76
    },
    {
      "midi": 58,
      "hit": false,
      "t": 169833.59292968735,
      "d": 352.8224218749965,
      "v": 85
    },
    {
      "midi": 62,
      "hit": false,
      "t": 169833.59292968735,
      "d": 396.50519791667466,
      "v": 102
    },
    {
      "midi": 48,
      "hit": false,
      "t": 170314.1034661457,
      "d": 1710.3486927082995,
      "v": 89
    },
    {
      "midi": 67,
      "hit": false,
      "t": 170317.46367968735,
      "d": 441.8680807291821,
      "v": 93
    },
    {
      "midi": 64,
      "hit": false,
      "t": 170317.46367968735,
      "d": 917.3382968750084,
      "v": 102
    },
    {
      "midi": 60,
      "hit": false,
      "t": 170319.14378645818,
      "d": 433.4675468750065,
      "v": 89
    },
    {
      "midi": 60,
      "hit": false,
      "t": 170322.50399999993,
      "d": 2567.2031458333367,
      "v": 1
    },
    {
      "midi": 67,
      "hit": false,
      "t": 170322.50399999993,
      "d": 2573.923572916683,
      "v": 1
    },
    {
      "midi": 64,
      "hit": false,
      "t": 170322.50399999993,
      "d": 2578.963893229171,
      "v": 1
    },
    {
      "midi": 60,
      "hit": false,
      "t": 170797.9742161457,
      "d": 423.38690625000163,
      "v": 47
    },
    {
      "midi": 67,
      "hit": false,
      "t": 170799.65432291653,
      "d": 436.8277604166651,
      "v": 72
    },
    {
      "midi": 64,
      "hit": false,
      "t": 171283.52507291653,
      "d": 596.4379036458267,
      "v": 72
    },
    {
      "midi": 67,
      "hit": false,
      "t": 171285.20517968736,
      "d": 594.7577968749974,
      "v": 93
    },
    {
      "midi": 60,
      "hit": false,
      "t": 171286.8852864582,
      "d": 566.1959817708412,
      "v": 64
    },
    {
      "midi": 64,
      "hit": false,
      "t": 171932.04628645818,
      "d": 367.9433828124602,
      "v": 107
    },
    {
      "midi": 60,
      "hit": false,
      "t": 171933.726393229,
      "d": 341.0616744791332,
      "v": 98
    },
    {
      "midi": 67,
      "hit": false,
      "t": 171933.726393229,
      "d": 366.2632760416309,
      "v": 102
    },
    {
      "midi": 48,
      "hit": false,
      "t": 172247.9063593748,
      "d": 618.2792916666658,
      "v": 98
    },
    {
      "midi": 64,
      "hit": false,
      "t": 172404.15628906232,
      "d": 325.94071354166954,
      "v": 93
    },
    {
      "midi": 67,
      "hit": false,
      "t": 172405.83639583315,
      "d": 440.1879739583237,
      "v": 98
    },
    {
      "midi": 60,
      "hit": false,
      "t": 172407.51650260398,
      "d": 409.94605208333815,
      "v": 98
    },
    {
      "midi": 62,
      "hit": false,
      "t": 172901.46789322898,
      "d": 414.98637239582604,
      "v": 102
    },
    {
      "midi": 65,
      "hit": false,
      "t": 172901.46789322898,
      "d": 1562.4992968750012,
      "v": 102
    },
    {
      "midi": 62,
      "hit": false,
      "t": 172903.14799999993,
      "d": 2575.6036796875123,
      "v": 1
    },
    {
      "midi": 65,
      "hit": false,
      "t": 172903.14799999993,
      "d": 2575.6036796875123,
      "v": 1
    },
    {
      "midi": 70,
      "hit": false,
      "t": 172903.14799999993,
      "d": 2575.6036796875123,
      "v": 1
    },
    {
      "midi": 58,
      "hit": false,
      "t": 172904.82810677064,
      "d": 414.98637239582604,
      "v": 76
    },
    {
      "midi": 46,
      "hit": false,
      "t": 172904.82810677064,
      "d": 1656.5852760416747,
      "v": 98
    },
    {
      "midi": 58,
      "hit": false,
      "t": 173381.9784296873,
      "d": 1036.6258776041795,
      "v": 44
    },
    {
      "midi": 62,
      "hit": false,
      "t": 173381.9784296873,
      "d": 1070.2280130208528,
      "v": 76
    },
    {
      "midi": 58,
      "hit": false,
      "t": 174512.69028645815,
      "d": 341.0616744791623,
      "v": 93
    },
    {
      "midi": 65,
      "hit": false,
      "t": 174512.69028645815,
      "d": 388.10466406249907,
      "v": 93
    },
    {
      "midi": 62,
      "hit": false,
      "t": 174514.37039322898,
      "d": 366.26327604166,
      "v": 107
    },
    {
      "midi": 46,
      "hit": false,
      "t": 174823.51003906233,
      "d": 559.4755546874658,
      "v": 76
    },
    {
      "midi": 58,
      "hit": false,
      "t": 174988.16050260398,
      "d": 378.0240234374942,
      "v": 93
    },
    {
      "midi": 65,
      "hit": false,
      "t": 174988.16050260398,
      "d": 393.14498437498696,
      "v": 89
    },
    {
      "midi": 62,
      "hit": false,
      "t": 174989.8406093748,
      "d": 374.6638098958356,
      "v": 98
    },
    {
      "midi": 64,
      "hit": false,
      "t": 175483.79199999993,
      "d": 317.54017968749395,
      "v": 1
    },
    {
      "midi": 67,
      "hit": false,
      "t": 175483.79199999993,
      "d": 317.54017968749395,
      "v": 1
    },
    {
      "midi": 72,
      "hit": false,
      "t": 175483.79199999993,
      "d": 317.54017968749395,
      "v": 1
    },
    {
      "midi": 72,
      "hit": false,
      "t": 178064.43599999993,
      "d": 571.2363020833291,
      "v": 1
    },
    {
      "midi": 70,
      "hit": false,
      "t": 178640.71262239575,
      "d": 198.25259895832278,
      "v": 1
    },
    {
      "midi": 72,
      "hit": false,
      "t": 178844.00554166656,
      "d": 315.86007291666465,
      "v": 1
    },
    {
      "midi": 74,
      "hit": false,
      "t": 179164.9059348957,
      "d": 668.6824947916612,
      "v": 1
    },
    {
      "midi": 72,
      "hit": false,
      "t": 183504.6217239582,
      "d": 337.7014609375037,
      "v": 1
    },
    {
      "midi": 70,
      "hit": false,
      "t": 183847.3635052082,
      "d": 166.33057031250792,
      "v": 1
    },
    {
      "midi": 72,
      "hit": false,
      "t": 184018.7343958332,
      "d": 324.26060677084024,
      "v": 1
    },
    {
      "midi": 74,
      "hit": false,
      "t": 184348.03532291652,
      "d": 330.98103385415743,
      "v": 1
    },
    {
      "midi": 70,
      "hit": false,
      "t": 184684.05667708316,
      "d": 794.6905026041786,
      "v": 1
    },
    {
      "midi": 72,
      "hit": false,
      "t": 188387.01199999984,
      "d": 571.2363020833291,
      "v": 1
    },
    {
      "midi": 70,
      "hit": false,
      "t": 188963.28862239566,
      "d": 198.25259895832278,
      "v": 1
    },
    {
      "midi": 72,
      "hit": false,
      "t": 189166.58154166647,
      "d": 315.86007291666465,
      "v": 1
    },
    {
      "midi": 74,
      "hit": false,
      "t": 189487.48193489562,
      "d": 991.2629947916721,
      "v": 1
    },
    {
      "midi": 72,
      "hit": false,
      "t": 193827.19772395812,
      "d": 337.7014609375037,
      "v": 1
    },
    {
      "midi": 70,
      "hit": false,
      "t": 194169.9395052081,
      "d": 166.33057031250792,
      "v": 1
    },
    {
      "midi": 72,
      "hit": false,
      "t": 194341.3103958331,
      "d": 324.26060677084024,
      "v": 1
    },
    {
      "midi": 74,
      "hit": false,
      "t": 194670.61132291643,
      "d": 330.98103385415743,
      "v": 1
    },
    {
      "midi": 70,
      "hit": false,
      "t": 195006.63267708308,
      "d": 794.6905026041786,
      "v": 1
    },
    {
      "midi": 57,
      "hit": false,
      "t": 198709.58799999976,
      "d": 640.1206796875049,
      "v": 1
    },
    {
      "midi": 60,
      "hit": false,
      "t": 198709.58799999976,
      "d": 640.1206796875049,
      "v": 1
    },
    {
      "midi": 69,
      "hit": false,
      "t": 198709.58799999976,
      "d": 640.1206796875049,
      "v": 1
    },
    {
      "midi": 72,
      "hit": false,
      "t": 198709.58799999976,
      "d": 640.1206796875049,
      "v": 1
    },
    {
      "midi": 55,
      "hit": false,
      "t": 199354.74899999975,
      "d": 156.24992968750303,
      "v": 1
    },
    {
      "midi": 58,
      "hit": false,
      "t": 199354.74899999975,
      "d": 156.24992968750303,
      "v": 1
    },
    {
      "midi": 67,
      "hit": false,
      "t": 199354.74899999975,
      "d": 156.24992968750303,
      "v": 1
    },
    {
      "midi": 70,
      "hit": false,
      "t": 199354.74899999975,
      "d": 156.24992968750303,
      "v": 1
    },
    {
      "midi": 57,
      "hit": false,
      "t": 199516.03924999974,
      "d": 317.54017968749395,
      "v": 1
    },
    {
      "midi": 60,
      "hit": false,
      "t": 199516.03924999974,
      "d": 317.54017968749395,
      "v": 1
    },
    {
      "midi": 69,
      "hit": false,
      "t": 199516.03924999974,
      "d": 317.54017968749395,
      "v": 1
    },
    {
      "midi": 72,
      "hit": false,
      "t": 199516.03924999974,
      "d": 317.54017968749395,
      "v": 1
    },
    {
      "midi": 58,
      "hit": false,
      "t": 199838.61974999972,
      "d": 962.7011796874867,
      "v": 1
    },
    {
      "midi": 62,
      "hit": false,
      "t": 199838.61974999972,
      "d": 962.7011796874867,
      "v": 1
    },
    {
      "midi": 70,
      "hit": false,
      "t": 199838.61974999972,
      "d": 962.7011796874867,
      "v": 1
    },
    {
      "midi": 74,
      "hit": false,
      "t": 199838.61974999972,
      "d": 962.7011796874867,
      "v": 1
    },
    {
      "midi": 57,
      "hit": false,
      "t": 204193.4564999997,
      "d": 317.54017968749395,
      "v": 1
    },
    {
      "midi": 60,
      "hit": false,
      "t": 204193.4564999997,
      "d": 317.54017968749395,
      "v": 1
    },
    {
      "midi": 69,
      "hit": false,
      "t": 204193.4564999997,
      "d": 317.54017968749395,
      "v": 1
    },
    {
      "midi": 72,
      "hit": false,
      "t": 204193.4564999997,
      "d": 317.54017968749395,
      "v": 1
    },
    {
      "midi": 55,
      "hit": false,
      "t": 204516.0369999997,
      "d": 156.24992968750303,
      "v": 1
    },
    {
      "midi": 58,
      "hit": false,
      "t": 204516.0369999997,
      "d": 156.24992968750303,
      "v": 1
    },
    {
      "midi": 67,
      "hit": false,
      "t": 204516.0369999997,
      "d": 156.24992968750303,
      "v": 1
    },
    {
      "midi": 70,
      "hit": false,
      "t": 204516.0369999997,
      "d": 156.24992968750303,
      "v": 1
    },
    {
      "midi": 57,
      "hit": false,
      "t": 204677.32724999968,
      "d": 317.54017968749395,
      "v": 1
    },
    {
      "midi": 60,
      "hit": false,
      "t": 204677.32724999968,
      "d": 317.54017968749395,
      "v": 1
    },
    {
      "midi": 69,
      "hit": false,
      "t": 204677.32724999968,
      "d": 317.54017968749395,
      "v": 1
    },
    {
      "midi": 72,
      "hit": false,
      "t": 204677.32724999968,
      "d": 317.54017968749395,
      "v": 1
    },
    {
      "midi": 58,
      "hit": false,
      "t": 204999.90774999966,
      "d": 317.54017968749395,
      "v": 1
    },
    {
      "midi": 62,
      "hit": false,
      "t": 204999.90774999966,
      "d": 317.54017968749395,
      "v": 1
    },
    {
      "midi": 70,
      "hit": false,
      "t": 204999.90774999966,
      "d": 317.54017968749395,
      "v": 1
    },
    {
      "midi": 74,
      "hit": false,
      "t": 204999.90774999966,
      "d": 317.54017968749395,
      "v": 1
    },
    {
      "midi": 53,
      "hit": false,
      "t": 205322.48824999965,
      "d": 1123.9914296875068,
      "v": 1
    },
    {
      "midi": 58,
      "hit": false,
      "t": 205322.48824999965,
      "d": 1123.9914296875068,
      "v": 1
    },
    {
      "midi": 70,
      "hit": false,
      "t": 205322.48824999965,
      "d": 1123.9914296875068,
      "v": 1
    },
    {
      "midi": 57,
      "hit": false,
      "t": 209032.16399999964,
      "d": 640.1206796875049,
      "v": 1
    },
    {
      "midi": 60,
      "hit": false,
      "t": 209032.16399999964,
      "d": 640.1206796875049,
      "v": 1
    },
    {
      "midi": 69,
      "hit": false,
      "t": 209032.16399999964,
      "d": 640.1206796875049,
      "v": 1
    },
    {
      "midi": 72,
      "hit": false,
      "t": 209032.16399999964,
      "d": 640.1206796875049,
      "v": 1
    },
    {
      "midi": 55,
      "hit": false,
      "t": 209677.32499999963,
      "d": 156.24992968750303,
      "v": 1
    },
    {
      "midi": 58,
      "hit": false,
      "t": 209677.32499999963,
      "d": 156.24992968750303,
      "v": 1
    },
    {
      "midi": 67,
      "hit": false,
      "t": 209677.32499999963,
      "d": 156.24992968750303,
      "v": 1
    },
    {
      "midi": 70,
      "hit": false,
      "t": 209677.32499999963,
      "d": 156.24992968750303,
      "v": 1
    },
    {
      "midi": 57,
      "hit": false,
      "t": 209838.61524999962,
      "d": 317.54017968749395,
      "v": 1
    },
    {
      "midi": 60,
      "hit": false,
      "t": 209838.61524999962,
      "d": 317.54017968749395,
      "v": 1
    },
    {
      "midi": 69,
      "hit": false,
      "t": 209838.61524999962,
      "d": 317.54017968749395,
      "v": 1
    },
    {
      "midi": 72,
      "hit": false,
      "t": 209838.61524999962,
      "d": 317.54017968749395,
      "v": 1
    },
    {
      "midi": 58,
      "hit": false,
      "t": 210161.1957499996,
      "d": 962.7011796874867,
      "v": 1
    },
    {
      "midi": 62,
      "hit": false,
      "t": 210161.1957499996,
      "d": 962.7011796874867,
      "v": 1
    },
    {
      "midi": 70,
      "hit": false,
      "t": 210161.1957499996,
      "d": 962.7011796874867,
      "v": 1
    },
    {
      "midi": 74,
      "hit": false,
      "t": 210161.1957499996,
      "d": 962.7011796874867,
      "v": 1
    },
    {
      "midi": 57,
      "hit": false,
      "t": 214516.0324999996,
      "d": 317.54017968749395,
      "v": 1
    },
    {
      "midi": 60,
      "hit": false,
      "t": 214516.0324999996,
      "d": 317.54017968749395,
      "v": 1
    },
    {
      "midi": 69,
      "hit": false,
      "t": 214516.0324999996,
      "d": 317.54017968749395,
      "v": 1
    },
    {
      "midi": 72,
      "hit": false,
      "t": 214516.0324999996,
      "d": 317.54017968749395,
      "v": 1
    },
    {
      "midi": 55,
      "hit": false,
      "t": 214838.61299999958,
      "d": 156.24992968750303,
      "v": 1
    },
    {
      "midi": 58,
      "hit": false,
      "t": 214838.61299999958,
      "d": 156.24992968750303,
      "v": 1
    },
    {
      "midi": 67,
      "hit": false,
      "t": 214838.61299999958,
      "d": 156.24992968750303,
      "v": 1
    },
    {
      "midi": 70,
      "hit": false,
      "t": 214838.61299999958,
      "d": 156.24992968750303,
      "v": 1
    },
    {
      "midi": 57,
      "hit": false,
      "t": 214999.90324999957,
      "d": 317.54017968749395,
      "v": 1
    },
    {
      "midi": 60,
      "hit": false,
      "t": 214999.90324999957,
      "d": 317.54017968749395,
      "v": 1
    },
    {
      "midi": 69,
      "hit": false,
      "t": 214999.90324999957,
      "d": 317.54017968749395,
      "v": 1
    },
    {
      "midi": 72,
      "hit": false,
      "t": 214999.90324999957,
      "d": 317.54017968749395,
      "v": 1
    },
    {
      "midi": 58,
      "hit": false,
      "t": 215322.48374999955,
      "d": 317.54017968749395,
      "v": 1
    },
    {
      "midi": 62,
      "hit": false,
      "t": 215322.48374999955,
      "d": 317.54017968749395,
      "v": 1
    },
    {
      "midi": 70,
      "hit": false,
      "t": 215322.48374999955,
      "d": 317.54017968749395,
      "v": 1
    },
    {
      "midi": 74,
      "hit": false,
      "t": 215322.48374999955,
      "d": 317.54017968749395,
      "v": 1
    },
    {
      "midi": 53,
      "hit": false,
      "t": 215645.06424999953,
      "d": 1123.9914296875068,
      "v": 1
    },
    {
      "midi": 58,
      "hit": false,
      "t": 215645.06424999953,
      "d": 1123.9914296875068,
      "v": 1
    },
    {
      "midi": 70,
      "hit": false,
      "t": 215645.06424999953,
      "d": 1123.9914296875068,
      "v": 1
    }
  ]
}