{
  "jsonPath": "Rock/Progressive House/Mike Foyle/firefly.json",
  "path": "Rock\\Progressive House\\Mike Foyle\\Firefly.mid",
  "name": "Firefly",
  "difficulty": "Advanced",
  "bpm": 137.99987580011177,
  "notes": [
    {
      "midi": 53,
      "hit": false,
      "t": 0,
      "d": 212.8625104166667,
      "v": 99
    },
    {
      "midi": 41,
      "hit": false,
      "t": 0,
      "d": 865.0370104166668,
      "v": 99
    },
    {
      "midi": 60,
      "hit": false,
      "t": 217.39150000000004,
      "d": 212.8625104166667,
      "v": 99
    },
    {
      "midi": 65,
      "hit": false,
      "t": 434.7830000000001,
      "d": 212.86251041666668,
      "v": 99
    },
    {
      "midi": 60,
      "hit": false,
      "t": 652.1745000000001,
      "d": 212.86251041666674,
      "v": 99
    },
    {
      "midi": 56,
      "hit": false,
      "t": 869.5660000000001,
      "d": 212.86251041666662,
      "v": 99
    },
    {
      "midi": 44,
      "hit": false,
      "t": 869.5660000000001,
      "d": 865.0370104166669,
      "v": 99
    },
    {
      "midi": 60,
      "hit": false,
      "t": 1086.9575000000002,
      "d": 212.86251041666674,
      "v": 99
    },
    {
      "midi": 68,
      "hit": false,
      "t": 1304.3490000000002,
      "d": 212.86251041666674,
      "v": 99
    },
    {
      "midi": 60,
      "hit": false,
      "t": 1521.7405000000003,
      "d": 212.86251041666674,
      "v": 99
    },
    {
      "midi": 48,
      "hit": false,
      "t": 1739.1320000000003,
      "d": 212.86251041666674,
      "v": 99
    },
    {
      "midi": 36,
      "hit": false,
      "t": 1739.1320000000005,
      "d": 1734.6030104166666,
      "v": 99
    },
    {
      "midi": 60,
      "hit": false,
      "t": 1956.5235000000005,
      "d": 212.8625104166665,
      "v": 99
    },
    {
      "midi": 64,
      "hit": false,
      "t": 2173.9150000000004,
      "d": 212.86251041666674,
      "v": 99
    },
    {
      "midi": 60,
      "hit": false,
      "t": 2391.3065,
      "d": 212.86251041666674,
      "v": 99
    },
    {
      "midi": 67,
      "hit": false,
      "t": 2608.6980000000003,
      "d": 212.86251041666674,
      "v": 99
    },
    {
      "midi": 60,
      "hit": false,
      "t": 2826.0895,
      "d": 212.86251041666674,
      "v": 99
    },
    {
      "midi": 64,
      "hit": false,
      "t": 3043.481,
      "d": 212.86251041666674,
      "v": 99
    },
    {
      "midi": 60,
      "hit": false,
      "t": 3260.8725,
      "d": 212.86251041666674,
      "v": 99
    },
    {
      "midi": 53,
      "hit": false,
      "t": 3478.264,
      "d": 212.86251041666674,
      "v": 101
    },
    {
      "midi": 68,
      "hit": false,
      "t": 3478.264,
      "d": 212.86251041666674,
      "v": 99
    },
    {
      "midi": 41,
      "hit": false,
      "t": 3478.2640000000006,
      "d": 865.0370104166673,
      "v": 99
    },
    {
      "midi": 60,
      "hit": false,
      "t": 3695.6555000000003,
      "d": 212.86251041666674,
      "v": 100
    },
    {
      "midi": 65,
      "hit": false,
      "t": 3913.047,
      "d": 212.86251041666628,
      "v": 99
    },
    {
      "midi": 60,
      "hit": false,
      "t": 4130.4385,
      "d": 212.86251041666674,
      "v": 99
    },
    {
      "midi": 56,
      "hit": false,
      "t": 4347.83,
      "d": 212.86251041666674,
      "v": 99
    },
    {
      "midi": 44,
      "hit": false,
      "t": 4347.830000000001,
      "d": 865.0370104166668,
      "v": 99
    },
    {
      "midi": 60,
      "hit": false,
      "t": 4565.221500000001,
      "d": 212.86251041666674,
      "v": 99
    },
    {
      "midi": 65,
      "hit": false,
      "t": 4782.613,
      "d": 212.86251041666674,
      "v": 99
    },
    {
      "midi": 60,
      "hit": false,
      "t": 5000.004500000001,
      "d": 212.86251041666674,
      "v": 99
    },
    {
      "midi": 48,
      "hit": false,
      "t": 5217.396000000001,
      "d": 212.86251041666674,
      "v": 100
    },
    {
      "midi": 70,
      "hit": false,
      "t": 5217.396000000001,
      "d": 212.86251041666674,
      "v": 99
    },
    {
      "midi": 36,
      "hit": false,
      "t": 5217.396000000001,
      "d": 1734.6030104166666,
      "v": 99
    },
    {
      "midi": 60,
      "hit": false,
      "t": 5434.7875,
      "d": 212.86251041666674,
      "v": 100
    },
    {
      "midi": 64,
      "hit": false,
      "t": 5652.179000000001,
      "d": 212.86251041666674,
      "v": 99
    },
    {
      "midi": 60,
      "hit": false,
      "t": 5869.570500000001,
      "d": 212.86251041666674,
      "v": 99
    },
    {
      "midi": 70,
      "hit": false,
      "t": 6086.962000000001,
      "d": 212.86251041666674,
      "v": 99
    },
    {
      "midi": 60,
      "hit": false,
      "t": 6304.353500000001,
      "d": 212.86251041666674,
      "v": 99
    },
    {
      "midi": 64,
      "hit": false,
      "t": 6521.745000000002,
      "d": 212.86251041666674,
      "v": 99
    },
    {
      "midi": 60,
      "hit": false,
      "t": 6739.136500000001,
      "d": 212.86251041666674,
      "v": 99
    },
    {
      "midi": 41,
      "hit": false,
      "t": 6956.528,
      "d": 865.0370104166668,
      "v": 99
    },
    {
      "midi": 53,
      "hit": false,
      "t": 6956.528000000001,
      "d": 321.5582604166666,
      "v": 99
    },
    {
      "midi": 68,
      "hit": false,
      "t": 6956.528000000002,
      "d": 212.86251041666674,
      "v": 99
    },
    {
      "midi": 60,
      "hit": false,
      "t": 7173.919500000001,
      "d": 212.86251041666674,
      "v": 99
    },
    {
      "midi": 65,
      "hit": false,
      "t": 7391.311000000002,
      "d": 212.86251041666674,
      "v": 99
    },
    {
      "midi": 60,
      "hit": false,
      "t": 7608.702500000001,
      "d": 212.86251041666674,
      "v": 99
    },
    {
      "midi": 44,
      "hit": false,
      "t": 7826.094,
      "d": 865.0370104166659,
      "v": 99
    },
    {
      "midi": 44,
      "hit": false,
      "t": 7826.094000000001,
      "d": 321.5582604166666,
      "v": 99
    },
    {
      "midi": 72,
      "hit": false,
      "t": 7826.094000000003,
      "d": 212.86251041666674,
      "v": 99
    },
    {
      "midi": 60,
      "hit": false,
      "t": 8043.485500000001,
      "d": 212.86251041666765,
      "v": 99
    },
    {
      "midi": 65,
      "hit": false,
      "t": 8260.877000000002,
      "d": 212.86251041666583,
      "v": 99
    },
    {
      "midi": 60,
      "hit": false,
      "t": 8478.268500000002,
      "d": 212.86251041666583,
      "v": 99
    },
    {
      "midi": 36,
      "hit": false,
      "t": 8695.66,
      "d": 1734.6030104166675,
      "v": 99
    },
    {
      "midi": 36,
      "hit": false,
      "t": 8695.660000000002,
      "d": 321.5582604166666,
      "v": 99
    },
    {
      "midi": 67,
      "hit": false,
      "t": 8695.660000000002,
      "d": 212.86251041666583,
      "v": 99
    },
    {
      "midi": 60,
      "hit": false,
      "t": 8913.051500000001,
      "d": 212.86251041666765,
      "v": 99
    },
    {
      "midi": 65,
      "hit": false,
      "t": 9130.443000000001,
      "d": 212.86251041666583,
      "v": 99
    },
    {
      "midi": 60,
      "hit": false,
      "t": 9347.834500000003,
      "d": 212.86251041666583,
      "v": 99
    },
    {
      "midi": 64,
      "hit": false,
      "t": 9565.226,
      "d": 212.86251041666583,
      "v": 99
    },
    {
      "midi": 60,
      "hit": false,
      "t": 9782.617500000002,
      "d": 212.86251041666583,
      "v": 99
    },
    {
      "midi": 65,
      "hit": false,
      "t": 10000.009,
      "d": 212.86251041666583,
      "v": 99
    },
    {
      "midi": 60,
      "hit": false,
      "t": 10217.400500000002,
      "d": 212.86251041666583,
      "v": 99
    },
    {
      "midi": 68,
      "hit": false,
      "t": 10434.792,
      "d": 212.86251041666583,
      "v": 99
    },
    {
      "midi": 41,
      "hit": false,
      "t": 10434.792000000001,
      "d": 321.5582604166666,
      "v": 99
    },
    {
      "midi": 41,
      "hit": false,
      "t": 10434.792000000001,
      "d": 865.0370104166668,
      "v": 99
    },
    {
      "midi": 60,
      "hit": false,
      "t": 10652.183500000001,
      "d": 212.86251041666765,
      "v": 99
    },
    {
      "midi": 65,
      "hit": false,
      "t": 10869.574999999999,
      "d": 212.86251041666583,
      "v": 99
    },
    {
      "midi": 60,
      "hit": false,
      "t": 11086.966500000002,
      "d": 212.86251041666583,
      "v": 99
    },
    {
      "midi": 72,
      "hit": false,
      "t": 11304.357999999998,
      "d": 212.86251041666583,
      "v": 99
    },
    {
      "midi": 44,
      "hit": false,
      "t": 11304.358000000002,
      "d": 321.5582604166666,
      "v": 99
    },
    {
      "midi": 44,
      "hit": false,
      "t": 11304.358000000002,
      "d": 865.0370104166668,
      "v": 99
    },
    {
      "midi": 60,
      "hit": false,
      "t": 11521.749500000002,
      "d": 212.86251041666765,
      "v": 99
    },
    {
      "midi": 65,
      "hit": false,
      "t": 11739.140999999998,
      "d": 212.86251041666583,
      "v": 99
    },
    {
      "midi": 60,
      "hit": false,
      "t": 11956.532500000003,
      "d": 212.86251041666583,
      "v": 99
    },
    {
      "midi": 67,
      "hit": false,
      "t": 12173.923999999997,
      "d": 212.86251041666583,
      "v": 99
    },
    {
      "midi": 36,
      "hit": false,
      "t": 12173.924000000003,
      "d": 321.5582604166666,
      "v": 99
    },
    {
      "midi": 36,
      "hit": false,
      "t": 12173.924000000003,
      "d": 1734.6030104166675,
      "v": 99
    },
    {
      "midi": 60,
      "hit": false,
      "t": 12391.315500000002,
      "d": 212.86251041666765,
      "v": 99
    },
    {
      "midi": 64,
      "hit": false,
      "t": 12608.706999999997,
      "d": 212.86251041666583,
      "v": 99
    },
    {
      "midi": 60,
      "hit": false,
      "t": 12826.098500000004,
      "d": 212.86251041666583,
      "v": 99
    },
    {
      "midi": 70,
      "hit": false,
      "t": 13043.489999999996,
      "d": 212.86251041666583,
      "v": 99
    },
    {
      "midi": 60,
      "hit": false,
      "t": 13260.881500000003,
      "d": 212.86251041666583,
      "v": 99
    },
    {
      "midi": 64,
      "hit": false,
      "t": 13478.272999999996,
      "d": 212.86251041666583,
      "v": 99
    },
    {
      "midi": 60,
      "hit": false,
      "t": 13695.664500000003,
      "d": 212.86251041666583,
      "v": 99
    },
    {
      "midi": 68,
      "hit": false,
      "t": 13913.055999999995,
      "d": 212.86251041666583,
      "v": 99
    },
    {
      "midi": 41,
      "hit": false,
      "t": 13913.056000000002,
      "d": 321.5582604166666,
      "v": 99
    },
    {
      "midi": 41,
      "hit": false,
      "t": 13913.056000000004,
      "d": 865.0370104166668,
      "v": 99
    },
    {
      "midi": 60,
      "hit": false,
      "t": 14130.447500000002,
      "d": 212.86251041666765,
      "v": 99
    },
    {
      "midi": 65,
      "hit": false,
      "t": 14347.838999999994,
      "d": 212.86251041666583,
      "v": 99
    },
    {
      "midi": 60,
      "hit": false,
      "t": 14565.230500000003,
      "d": 212.86251041666583,
      "v": 99
    },
    {
      "midi": 72,
      "hit": false,
      "t": 14782.621999999994,
      "d": 212.86251041666583,
      "v": 99
    },
    {
      "midi": 32,
      "hit": false,
      "t": 14782.622000000003,
      "d": 321.5582604166666,
      "v": 99
    },
    {
      "midi": 44,
      "hit": false,
      "t": 14782.622000000005,
      "d": 865.0370104166668,
      "v": 99
    },
    {
      "midi": 60,
      "hit": false,
      "t": 15000.013500000003,
      "d": 212.86251041666765,
      "v": 99
    },
    {
      "midi": 65,
      "hit": false,
      "t": 15217.404999999993,
      "d": 212.86251041666583,
      "v": 99
    },
    {
      "midi": 60,
      "hit": false,
      "t": 15434.796500000004,
      "d": 212.86251041666583,
      "v": 99
    },
    {
      "midi": 67,
      "hit": false,
      "t": 15652.187999999993,
      "d": 212.86251041666583,
      "v": 99
    },
    {
      "midi": 24,
      "hit": false,
      "t": 15652.188000000004,
      "d": 321.5582604166666,
      "v": 99
    },
    {
      "midi": 36,
      "hit": false,
      "t": 15652.188000000006,
      "d": 1734.6030104166675,
      "v": 99
    },
    {
      "midi": 60,
      "hit": false,
      "t": 15869.579500000003,
      "d": 212.86251041666765,
      "v": 99
    },
    {
      "midi": 64,
      "hit": false,
      "t": 16086.970999999992,
      "d": 212.86251041666583,
      "v": 99
    },
    {
      "midi": 60,
      "hit": false,
      "t": 16304.362500000005,
      "d": 212.86251041666583,
      "v": 99
    },
    {
      "midi": 55,
      "hit": false,
      "t": 16521.75399999999,
      "d": 212.86251041666765,
      "v": 99
    },
    {
      "midi": 60,
      "hit": false,
      "t": 16739.145500000002,
      "d": 212.86251041666765,
      "v": 99
    },
    {
      "midi": 64,
      "hit": false,
      "t": 16956.53699999999,
      "d": 212.86251041666765,
      "v": 99
    },
    {
      "midi": 60,
      "hit": false,
      "t": 17173.9285,
      "d": 212.86251041666765,
      "v": 99
    },
    {
      "midi": 68,
      "hit": false,
      "t": 17391.31999999999,
      "d": 212.86251041666765,
      "v": 99
    },
    {
      "midi": 53,
      "hit": false,
      "t": 17391.320000000003,
      "d": 212.86251041666765,
      "v": 99
    },
    {
      "midi": 41,
      "hit": false,
      "t": 17391.320000000007,
      "d": 865.037010416665,
      "v": 99
    },
    {
      "midi": 60,
      "hit": false,
      "t": 17608.711500000005,
      "d": 212.86251041666765,
      "v": 99
    },
    {
      "midi": 65,
      "hit": false,
      "t": 17826.10299999999,
      "d": 212.86251041666765,
      "v": 99
    },
    {
      "midi": 60,
      "hit": false,
      "t": 18043.494500000004,
      "d": 212.86251041666765,
      "v": 99
    },
    {
      "midi": 68,
      "hit": false,
      "t": 18260.885999999988,
      "d": 212.86251041666765,
      "v": 99
    },
    {
      "midi": 56,
      "hit": false,
      "t": 18260.886000000006,
      "d": 212.86251041666765,
      "v": 99
    },
    {
      "midi": 77,
      "hit": false,
      "t": 18260.886000000006,
      "d": 212.86251041666765,
      "v": 99
    },
    {
      "midi": 44,
      "hit": false,
      "t": 18260.886000000006,
      "d": 865.037010416665,
      "v": 99
    },
    {
      "midi": 60,
      "hit": false,
      "t": 18478.277500000007,
      "d": 212.86251041666765,
      "v": 99
    },
    {
      "midi": 65,
      "hit": false,
      "t": 18695.668999999987,
      "d": 212.86251041666765,
      "v": 99
    },
    {
      "midi": 60,
      "hit": false,
      "t": 18913.060500000007,
      "d": 212.86251041666765,
      "v": 99
    },
    {
      "midi": 70,
      "hit": false,
      "t": 19130.451999999987,
      "d": 212.86251041666765,
      "v": 99
    },
    {
      "midi": 36,
      "hit": false,
      "t": 19130.452000000005,
      "d": 1734.6030104166675,
      "v": 99
    },
    {
      "midi": 48,
      "hit": false,
      "t": 19130.45200000001,
      "d": 212.86251041666765,
      "v": 99
    },
    {
      "midi": 79,
      "hit": false,
      "t": 19130.45200000001,
      "d": 212.86251041666765,
      "v": 99
    },
    {
      "midi": 60,
      "hit": false,
      "t": 19347.84350000001,
      "d": 212.86251041666765,
      "v": 99
    },
    {
      "midi": 64,
      "hit": false,
      "t": 19565.234999999986,
      "d": 212.86251041666765,
      "v": 99
    },
    {
      "midi": 60,
      "hit": false,
      "t": 19782.62650000001,
      "d": 212.86251041666765,
      "v": 99
    },
    {
      "midi": 68,
      "hit": false,
      "t": 20000.017999999985,
      "d": 212.86251041666765,
      "v": 99
    },
    {
      "midi": 60,
      "hit": false,
      "t": 20217.40950000001,
      "d": 212.86251041666765,
      "v": 99
    },
    {
      "midi": 64,
      "hit": false,
      "t": 20434.800999999985,
      "d": 212.86251041666765,
      "v": 99
    },
    {
      "midi": 60,
      "hit": false,
      "t": 20652.19250000001,
      "d": 212.86251041666765,
      "v": 99
    },
    {
      "midi": 41,
      "hit": false,
      "t": 20869.584000000006,
      "d": 865.0370104166686,
      "v": 99
    },
    {
      "midi": 53,
      "hit": false,
      "t": 20869.58400000001,
      "d": 212.86251041666765,
      "v": 99
    },
    {
      "midi": 77,
      "hit": false,
      "t": 20869.58400000001,
      "d": 212.86251041666765,
      "v": 99
    },
    {
      "midi": 60,
      "hit": false,
      "t": 21086.97550000001,
      "d": 212.86251041666765,
      "v": 99
    },
    {
      "midi": 65,
      "hit": false,
      "t": 21304.367000000013,
      "d": 212.86251041666765,
      "v": 99
    },
    {
      "midi": 60,
      "hit": false,
      "t": 21521.758500000014,
      "d": 212.86251041666765,
      "v": 99
    },
    {
      "midi": 44,
      "hit": false,
      "t": 21739.15000000001,
      "d": 865.037010416665,
      "v": 99
    },
    {
      "midi": 56,
      "hit": false,
      "t": 21739.150000000016,
      "d": 212.86251041666765,
      "v": 99
    },
    {
      "midi": 80,
      "hit": false,
      "t": 21739.150000000016,
      "d": 212.86251041666765,
      "v": 99
    },
    {
      "midi": 60,
      "hit": false,
      "t": 21956.541500000018,
      "d": 212.86251041666765,
      "v": 99
    },
    {
      "midi": 68,
      "hit": false,
      "t": 22173.93300000002,
      "d": 212.86251041666765,
      "v": 99
    },
    {
      "midi": 60,
      "hit": false,
      "t": 22391.32450000002,
      "d": 212.86251041666765,
      "v": 99
    },
    {
      "midi": 48,
      "hit": false,
      "t": 22608.716000000008,
      "d": 3473.735010416669,
      "v": 38
    },
    {
      "midi": 72,
      "hit": false,
      "t": 22608.716000000022,
      "d": 212.86251041666765,
      "v": 99
    },
    {
      "midi": 84,
      "hit": false,
      "t": 22608.716000000022,
      "d": 212.86251041666765,
      "v": 99
    },
    {
      "midi": 48,
      "hit": false,
      "t": 22608.716000000022,
      "d": 430.2540104166692,
      "v": 99
    },
    {
      "midi": 76,
      "hit": false,
      "t": 22826.107500000024,
      "d": 212.86251041666765,
      "v": 77
    },
    {
      "midi": 64,
      "hit": false,
      "t": 23043.499000000025,
      "d": 212.86251041666765,
      "v": 99
    },
    {
      "midi": 79,
      "hit": false,
      "t": 23043.499000000025,
      "d": 212.86251041666765,
      "v": 99
    },
    {
      "midi": 76,
      "hit": false,
      "t": 23260.890500000027,
      "d": 212.86251041666765,
      "v": 77
    },
    {
      "midi": 67,
      "hit": false,
      "t": 23478.28200000003,
      "d": 212.86251041666765,
      "v": 99
    },
    {
      "midi": 84,
      "hit": false,
      "t": 23478.28200000003,
      "d": 212.86251041666765,
      "v": 99
    },
    {
      "midi": 76,
      "hit": false,
      "t": 23695.67350000003,
      "d": 212.86251041666765,
      "v": 77
    },
    {
      "midi": 64,
      "hit": false,
      "t": 23913.06500000003,
      "d": 212.86251041666765,
      "v": 99
    },
    {
      "midi": 79,
      "hit": false,
      "t": 23913.06500000003,
      "d": 212.86251041666765,
      "v": 99
    },
    {
      "midi": 76,
      "hit": false,
      "t": 24130.456500000033,
      "d": 212.86251041666765,
      "v": 76
    },
    {
      "midi": 67,
      "hit": false,
      "t": 24347.848000000035,
      "d": 212.86251041666765,
      "v": 99
    },
    {
      "midi": 84,
      "hit": false,
      "t": 24347.848000000035,
      "d": 212.86251041666765,
      "v": 99
    },
    {
      "midi": 76,
      "hit": false,
      "t": 24565.239500000036,
      "d": 212.86251041666765,
      "v": 74
    },
    {
      "midi": 64,
      "hit": false,
      "t": 24782.631000000038,
      "d": 212.86251041666765,
      "v": 99
    },
    {
      "midi": 79,
      "hit": false,
      "t": 24782.631000000038,
      "d": 212.86251041666765,
      "v": 99
    },
    {
      "midi": 76,
      "hit": false,
      "t": 25000.02250000004,
      "d": 212.86251041666765,
      "v": 75
    },
    {
      "midi": 67,
      "hit": false,
      "t": 25217.41400000004,
      "d": 212.86251041666765,
      "v": 99
    },
    {
      "midi": 84,
      "hit": false,
      "t": 25217.41400000004,
      "d": 212.86251041666765,
      "v": 99
    },
    {
      "midi": 76,
      "hit": false,
      "t": 25434.805500000042,
      "d": 212.86251041666765,
      "v": 74
    },
    {
      "midi": 64,
      "hit": false,
      "t": 25652.197000000044,
      "d": 212.86251041666765,
      "v": 99
    },
    {
      "midi": 79,
      "hit": false,
      "t": 25652.197000000044,
      "d": 212.86251041666765,
      "v": 99
    },
    {
      "midi": 76,
      "hit": false,
      "t": 25869.588500000045,
      "d": 212.86251041666765,
      "v": 75
    },
    {
      "midi": 68,
      "hit": false,
      "t": 26086.980000000047,
      "d": 212.86251041666765,
      "v": 99
    },
    {
      "midi": 85,
      "hit": false,
      "t": 26086.980000000047,
      "d": 212.86251041666765,
      "v": 99
    },
    {
      "midi": 77,
      "hit": false,
      "t": 26304.37150000005,
      "d": 212.86251041666765,
      "v": 74
    },
    {
      "midi": 65,
      "hit": false,
      "t": 26521.76300000005,
      "d": 212.86251041666765,
      "v": 99
    },
    {
      "midi": 80,
      "hit": false,
      "t": 26521.76300000005,
      "d": 212.86251041666765,
      "v": 99
    },
    {
      "midi": 77,
      "hit": false,
      "t": 26739.15450000005,
      "d": 212.86251041666765,
      "v": 75
    },
    {
      "midi": 68,
      "hit": false,
      "t": 26956.546000000053,
      "d": 212.86251041666765,
      "v": 99
    },
    {
      "midi": 85,
      "hit": false,
      "t": 26956.546000000053,
      "d": 212.86251041666765,
      "v": 99
    },
    {
      "midi": 77,
      "hit": false,
      "t": 27173.937500000055,
      "d": 212.86251041666765,
      "v": 74
    },
    {
      "midi": 65,
      "hit": false,
      "t": 27391.329000000056,
      "d": 212.86251041666765,
      "v": 99
    },
    {
      "midi": 83,
      "hit": false,
      "t": 27391.329000000056,
      "d": 212.86251041666765,
      "v": 99
    },
    {
      "midi": 77,
      "hit": false,
      "t": 27608.720500000058,
      "d": 212.86251041666765,
      "v": 75
    },
    {
      "midi": 67,
      "hit": false,
      "t": 27826.11200000006,
      "d": 212.86251041666765,
      "v": 99
    },
    {
      "midi": 84,
      "hit": false,
      "t": 27826.11200000006,
      "d": 212.86251041666765,
      "v": 99
    },
    {
      "midi": 76,
      "hit": false,
      "t": 28043.50350000006,
      "d": 212.86251041666765,
      "v": 74
    },
    {
      "midi": 64,
      "hit": false,
      "t": 28260.895000000062,
      "d": 212.86251041666765,
      "v": 99
    },
    {
      "midi": 79,
      "hit": false,
      "t": 28260.895000000062,
      "d": 212.86251041666765,
      "v": 99
    },
    {
      "midi": 76,
      "hit": false,
      "t": 28478.286500000064,
      "d": 212.86251041666765,
      "v": 75
    },
    {
      "midi": 67,
      "hit": false,
      "t": 28695.678000000065,
      "d": 212.86251041666765,
      "v": 99
    },
    {
      "midi": 84,
      "hit": false,
      "t": 28695.678000000065,
      "d": 212.86251041666765,
      "v": 99
    },
    {
      "midi": 76,
      "hit": false,
      "t": 28913.069500000067,
      "d": 212.86251041666765,
      "v": 74
    },
    {
      "midi": 64,
      "hit": false,
      "t": 29130.46100000007,
      "d": 212.86251041666765,
      "v": 99
    },
    {
      "midi": 79,
      "hit": false,
      "t": 29130.46100000007,
      "d": 212.86251041666765,
      "v": 99
    },
    {
      "midi": 76,
      "hit": false,
      "t": 29347.85250000007,
      "d": 212.86251041666765,
      "v": 75
    },
    {
      "midi": 68,
      "hit": false,
      "t": 29565.24400000007,
      "d": 212.86251041666765,
      "v": 99
    },
    {
      "midi": 85,
      "hit": false,
      "t": 29565.24400000007,
      "d": 212.86251041666765,
      "v": 99
    },
    {
      "midi": 77,
      "hit": false,
      "t": 29782.635500000073,
      "d": 212.86251041666765,
      "v": 74
    },
    {
      "midi": 65,
      "hit": false,
      "t": 30000.027000000075,
      "d": 212.86251041666765,
      "v": 99
    },
    {
      "midi": 80,
      "hit": false,
      "t": 30000.027000000075,
      "d": 212.86251041666765,
      "v": 99
    },
    {
      "midi": 77,
      "hit": false,
      "t": 30217.418500000076,
      "d": 212.86251041666765,
      "v": 75
    },
    {
      "midi": 68,
      "hit": false,
      "t": 30434.810000000078,
      "d": 212.86251041666765,
      "v": 99
    },
    {
      "midi": 85,
      "hit": false,
      "t": 30434.810000000078,
      "d": 212.86251041666765,
      "v": 99
    },
    {
      "midi": 77,
      "hit": false,
      "t": 30652.20150000008,
      "d": 212.86251041666765,
      "v": 74
    },
    {
      "midi": 65,
      "hit": false,
      "t": 30869.59300000008,
      "d": 212.86251041666765,
      "v": 99
    },
    {
      "midi": 83,
      "hit": false,
      "t": 30869.59300000008,
      "d": 212.86251041666765,
      "v": 99
    },
    {
      "midi": 77,
      "hit": false,
      "t": 31086.984500000082,
      "d": 212.86251041666765,
      "v": 75
    },
    {
      "midi": 67,
      "hit": false,
      "t": 31304.376000000084,
      "d": 212.86251041666765,
      "v": 99
    },
    {
      "midi": 84,
      "hit": false,
      "t": 31304.376000000084,
      "d": 212.86251041666765,
      "v": 99
    },
    {
      "midi": 76,
      "hit": false,
      "t": 31521.767500000085,
      "d": 212.86251041666765,
      "v": 74
    },
    {
      "midi": 64,
      "hit": false,
      "t": 31739.159000000087,
      "d": 212.86251041666765,
      "v": 99
    },
    {
      "midi": 79,
      "hit": false,
      "t": 31739.159000000087,
      "d": 212.86251041666765,
      "v": 99
    },
    {
      "midi": 76,
      "hit": false,
      "t": 31956.55050000009,
      "d": 212.86251041666765,
      "v": 75
    },
    {
      "midi": 67,
      "hit": false,
      "t": 32173.94200000009,
      "d": 212.86251041666765,
      "v": 99
    },
    {
      "midi": 84,
      "hit": false,
      "t": 32173.94200000009,
      "d": 212.86251041666765,
      "v": 99
    },
    {
      "midi": 76,
      "hit": false,
      "t": 32391.33350000009,
      "d": 212.86251041666765,
      "v": 74
    },
    {
      "midi": 64,
      "hit": false,
      "t": 32608.725000000093,
      "d": 212.862510416664,
      "v": 99
    },
    {
      "midi": 79,
      "hit": false,
      "t": 32608.725000000093,
      "d": 212.862510416664,
      "v": 99
    },
    {
      "midi": 76,
      "hit": false,
      "t": 32826.11650000009,
      "d": 212.862510416664,
      "v": 75
    },
    {
      "midi": 67,
      "hit": false,
      "t": 33043.50800000009,
      "d": 212.862510416664,
      "v": 99
    },
    {
      "midi": 84,
      "hit": false,
      "t": 33043.50800000009,
      "d": 212.862510416664,
      "v": 99
    },
    {
      "midi": 76,
      "hit": false,
      "t": 33260.89950000009,
      "d": 212.862510416664,
      "v": 74
    },
    {
      "midi": 64,
      "hit": false,
      "t": 33478.291000000085,
      "d": 212.862510416664,
      "v": 99
    },
    {
      "midi": 79,
      "hit": false,
      "t": 33478.291000000085,
      "d": 212.862510416664,
      "v": 99
    },
    {
      "midi": 76,
      "hit": false,
      "t": 33695.68250000008,
      "d": 212.862510416664,
      "v": 75
    },
    {
      "midi": 72,
      "hit": false,
      "t": 33913.07400000008,
      "d": 212.862510416664,
      "v": 99
    },
    {
      "midi": 84,
      "hit": false,
      "t": 33913.07400000008,
      "d": 212.862510416664,
      "v": 99
    },
    {
      "midi": 70,
      "hit": false,
      "t": 34130.46550000008,
      "d": 212.862510416664,
      "v": 99
    },
    {
      "midi": 82,
      "hit": false,
      "t": 34130.46550000008,
      "d": 212.862510416664,
      "v": 99
    },
    {
      "midi": 67,
      "hit": false,
      "t": 34347.85700000008,
      "d": 212.862510416664,
      "v": 99
    },
    {
      "midi": 79,
      "hit": false,
      "t": 34347.85700000008,
      "d": 212.862510416664,
      "v": 99
    },
    {
      "midi": 64,
      "hit": false,
      "t": 34565.248500000074,
      "d": 212.862510416664,
      "v": 99
    },
    {
      "midi": 76,
      "hit": false,
      "t": 34565.248500000074,
      "d": 212.862510416664,
      "v": 99
    },
    {
      "midi": 60,
      "hit": false,
      "t": 34782.64000000007,
      "d": 430.2540104166692,
      "v": 99
    },
    {
      "midi": 72,
      "hit": false,
      "t": 34782.64000000007,
      "d": 430.2540104166692,
      "v": 99
    }
  ]
}