{
  "jsonPath": "Rock/Album Rock/Bryan Adams/please-forgive-me.json",
  "path": "Rock\\Album Rock\\Bryan Adams\\Please Forgive Me.mid",
  "name": "Please Forgive Me",
  "difficulty": "Advanced",
  "bpm": 68.0000725334107,
  "notes": [
    {
      "midi": 57,
      "hit": false,
      "t": 7058.815999999999,
      "d": 289.5217499999999,
      "v": 12
    },
    {
      "midi": 64,
      "hit": false,
      "t": 7058.815999999999,
      "d": 413.60249999999996,
      "v": 12
    },
    {
      "midi": 62,
      "hit": false,
      "t": 7058.815999999999,
      "d": 418.19808333333367,
      "v": 12
    },
    {
      "midi": 57,
      "hit": false,
      "t": 7499.991999999999,
      "d": 206.80125000000044,
      "v": 14
    },
    {
      "midi": 64,
      "hit": false,
      "t": 7941.168,
      "d": 418.19808333333276,
      "v": 33
    },
    {
      "midi": 62,
      "hit": false,
      "t": 7941.168,
      "d": 445.7715833333332,
      "v": 31
    },
    {
      "midi": 57,
      "hit": false,
      "t": 8382.344,
      "d": 234.37475000000086,
      "v": 18
    },
    {
      "midi": 57,
      "hit": false,
      "t": 8823.52,
      "d": 248.16150000000016,
      "v": 19
    },
    {
      "midi": 64,
      "hit": false,
      "t": 8823.52,
      "d": 473.3450833333336,
      "v": 33
    },
    {
      "midi": 62,
      "hit": false,
      "t": 8823.52,
      "d": 487.1318333333329,
      "v": 31
    },
    {
      "midi": 57,
      "hit": false,
      "t": 9264.696,
      "d": 197.61008333333302,
      "v": 14
    },
    {
      "midi": 57,
      "hit": false,
      "t": 9705.872,
      "d": 225.18358333333344,
      "v": 6
    },
    {
      "midi": 61,
      "hit": false,
      "t": 9705.872,
      "d": 413.6025000000009,
      "v": 30
    },
    {
      "midi": 64,
      "hit": false,
      "t": 9705.872,
      "d": 436.5804166666676,
      "v": 32
    },
    {
      "midi": 57,
      "hit": false,
      "t": 10147.048,
      "d": 170.0365833333326,
      "v": 27
    },
    {
      "midi": 57,
      "hit": false,
      "t": 10588.224,
      "d": 234.37475000000086,
      "v": 18
    },
    {
      "midi": 59,
      "hit": false,
      "t": 10588.224,
      "d": 445.7715833333332,
      "v": 28
    },
    {
      "midi": 64,
      "hit": false,
      "t": 10588.224,
      "d": 445.7715833333332,
      "v": 28
    },
    {
      "midi": 57,
      "hit": false,
      "t": 11029.4,
      "d": 165.4410000000007,
      "v": 36
    },
    {
      "midi": 64,
      "hit": false,
      "t": 11470.576000000001,
      "d": 418.19808333333276,
      "v": 28
    },
    {
      "midi": 59,
      "hit": false,
      "t": 11470.576000000001,
      "d": 427.3892500000002,
      "v": 27
    },
    {
      "midi": 57,
      "hit": false,
      "t": 11911.752,
      "d": 193.01449999999932,
      "v": 25
    },
    {
      "midi": 57,
      "hit": false,
      "t": 12352.928,
      "d": 321.6908333333322,
      "v": 21
    },
    {
      "midi": 64,
      "hit": false,
      "t": 12352.928,
      "d": 459.5583333333325,
      "v": 34
    },
    {
      "midi": 61,
      "hit": false,
      "t": 12352.928,
      "d": 500.9185833333322,
      "v": 36
    },
    {
      "midi": 57,
      "hit": false,
      "t": 12794.104,
      "d": 202.20566666666673,
      "v": 21
    },
    {
      "midi": 64,
      "hit": false,
      "t": 13235.279999999999,
      "d": 413.6025000000009,
      "v": 41
    },
    {
      "midi": 61,
      "hit": false,
      "t": 13235.279999999999,
      "d": 441.1760000000013,
      "v": 27
    },
    {
      "midi": 57,
      "hit": false,
      "t": 13676.456,
      "d": 114.88958333333358,
      "v": 13
    },
    {
      "midi": 57,
      "hit": false,
      "t": 14117.632000000001,
      "d": 312.4996666666666,
      "v": 50
    },
    {
      "midi": 64,
      "hit": false,
      "t": 14117.632000000001,
      "d": 436.58041666666577,
      "v": 37
    },
    {
      "midi": 62,
      "hit": false,
      "t": 14117.632000000001,
      "d": 445.7715833333332,
      "v": 50
    },
    {
      "midi": 57,
      "hit": false,
      "t": 14558.808,
      "d": 151.6542499999996,
      "v": 19
    },
    {
      "midi": 64,
      "hit": false,
      "t": 14999.984,
      "d": 441.1759999999995,
      "v": 32
    },
    {
      "midi": 62,
      "hit": false,
      "t": 14999.984,
      "d": 459.5583333333325,
      "v": 50
    },
    {
      "midi": 57,
      "hit": false,
      "t": 15441.16,
      "d": 358.45550000000003,
      "v": 19
    },
    {
      "midi": 69,
      "hit": false,
      "t": 16323.512,
      "d": 64.33816666666644,
      "v": 82
    },
    {
      "midi": 81,
      "hit": false,
      "t": 16323.512,
      "d": 64.33816666666644,
      "v": 91
    },
    {
      "midi": 80,
      "hit": false,
      "t": 16764.688000000002,
      "d": 59.74258333333273,
      "v": 87
    },
    {
      "midi": 68,
      "hit": false,
      "t": 16764.688000000002,
      "d": 64.33816666666462,
      "v": 87
    },
    {
      "midi": 69,
      "hit": false,
      "t": 17205.864,
      "d": 55.147000000000844,
      "v": 79
    },
    {
      "midi": 81,
      "hit": false,
      "t": 17205.864,
      "d": 59.74258333333273,
      "v": 76
    },
    {
      "midi": 64,
      "hit": false,
      "t": 17426.452,
      "d": 955.8813333333383,
      "v": 87
    },
    {
      "midi": 76,
      "hit": false,
      "t": 17426.452,
      "d": 969.6680833333376,
      "v": 91
    },
    {
      "midi": 57,
      "hit": false,
      "t": 17647.040000000005,
      "d": 317.0952499999985,
      "v": 67
    },
    {
      "midi": 61,
      "hit": false,
      "t": 17647.040000000005,
      "d": 363.0510833333319,
      "v": 79
    },
    {
      "midi": 62,
      "hit": false,
      "t": 17867.628000000004,
      "d": 188.4189166666656,
      "v": 5
    },
    {
      "midi": 57,
      "hit": false,
      "t": 18088.216000000004,
      "d": 64.33816666666826,
      "v": 42
    },
    {
      "midi": 57,
      "hit": false,
      "t": 18529.392000000007,
      "d": 234.37474999999904,
      "v": 79
    },
    {
      "midi": 61,
      "hit": false,
      "t": 18529.392000000007,
      "d": 464.1539166666662,
      "v": 91
    },
    {
      "midi": 57,
      "hit": false,
      "t": 18970.568000000007,
      "d": 73.52933333333203,
      "v": 53
    },
    {
      "midi": 57,
      "hit": false,
      "t": 19411.744000000006,
      "d": 330.8820000000014,
      "v": 95
    },
    {
      "midi": 62,
      "hit": false,
      "t": 19411.744000000006,
      "d": 464.15391666666983,
      "v": 87
    },
    {
      "midi": 57,
      "hit": false,
      "t": 19852.92000000001,
      "d": 105.69841666666616,
      "v": 62
    },
    {
      "midi": 57,
      "hit": false,
      "t": 20294.09600000001,
      "d": 280.33058333333247,
      "v": 82
    },
    {
      "midi": 64,
      "hit": false,
      "t": 20294.09600000001,
      "d": 500.9185833333322,
      "v": 95
    },
    {
      "midi": 57,
      "hit": false,
      "t": 20735.272000000008,
      "d": 133.27191666666477,
      "v": 62
    },
    {
      "midi": 56,
      "hit": false,
      "t": 21176.448000000008,
      "d": 312.4996666666666,
      "v": 87
    },
    {
      "midi": 64,
      "hit": false,
      "t": 21176.448000000008,
      "d": 358.45550000000003,
      "v": 82
    },
    {
      "midi": 56,
      "hit": false,
      "t": 21617.624000000007,
      "d": 45.95583333333343,
      "v": 27
    },
    {
      "midi": 56,
      "hit": false,
      "t": 22058.800000000007,
      "d": 261.9482500000013,
      "v": 87
    },
    {
      "midi": 64,
      "hit": false,
      "t": 22058.800000000007,
      "d": 363.05108333333555,
      "v": 87
    },
    {
      "midi": 56,
      "hit": false,
      "t": 22499.97600000001,
      "d": 64.33816666666826,
      "v": 55
    },
    {
      "midi": 57,
      "hit": false,
      "t": 22941.15200000001,
      "d": 376.8378333333312,
      "v": 91
    },
    {
      "midi": 64,
      "hit": false,
      "t": 22941.15200000001,
      "d": 491.7274166666648,
      "v": 87
    },
    {
      "midi": 57,
      "hit": false,
      "t": 23382.32800000001,
      "d": 82.72049999999945,
      "v": 36
    },
    {
      "midi": 59,
      "hit": false,
      "t": 23823.504000000008,
      "d": 496.3230000000003,
      "v": 87
    },
    {
      "midi": 64,
      "hit": false,
      "t": 23823.504000000008,
      "d": 514.7053333333351,
      "v": 84
    },
    {
      "midi": 57,
      "hit": false,
      "t": 24705.856000000007,
      "d": 317.0952499999985,
      "v": 79
    },
    {
      "midi": 61,
      "hit": false,
      "t": 24705.856000000007,
      "d": 431.98483333333206,
      "v": 87
    },
    {
      "midi": 57,
      "hit": false,
      "t": 25147.032000000007,
      "d": 59.74258333333273,
      "v": 46
    },
    {
      "midi": 57,
      "hit": false,
      "t": 25588.208000000006,
      "d": 252.75708333333387,
      "v": 84
    },
    {
      "midi": 61,
      "hit": false,
      "t": 25588.208000000006,
      "d": 482.536250000001,
      "v": 87
    },
    {
      "midi": 57,
      "hit": false,
      "t": 26029.384000000005,
      "d": 68.93375000000015,
      "v": 57
    },
    {
      "midi": 57,
      "hit": false,
      "t": 26470.560000000005,
      "d": 298.7129166666673,
      "v": 87
    },
    {
      "midi": 62,
      "hit": false,
      "t": 26470.560000000005,
      "d": 477.9406666666655,
      "v": 99
    },
    {
      "midi": 57,
      "hit": false,
      "t": 26911.736000000004,
      "d": 87.31608333333133,
      "v": 55
    },
    {
      "midi": 64,
      "hit": false,
      "t": 27352.912000000004,
      "d": 523.8965000000026,
      "v": 103
    },
    {
      "midi": 57,
      "hit": false,
      "t": 27352.912000000004,
      "d": 551.4700000000012,
      "v": 87
    },
    {
      "midi": 56,
      "hit": false,
      "t": 28235.264000000006,
      "d": 914.5210833333331,
      "v": 76
    },
    {
      "midi": 61,
      "hit": false,
      "t": 28235.264000000006,
      "d": 983.4548333333332,
      "v": 73
    },
    {
      "midi": 64,
      "hit": false,
      "t": 28235.264000000006,
      "d": 983.4548333333332,
      "v": 82
    },
    {
      "midi": 62,
      "hit": false,
      "t": 29558.792000000005,
      "d": 1842.8289166666655,
      "v": 86
    },
    {
      "midi": 57,
      "hit": false,
      "t": 29558.792000000005,
      "d": 1870.402416666664,
      "v": 79
    },
    {
      "midi": 64,
      "hit": false,
      "t": 29558.792000000005,
      "d": 1874.997999999996,
      "v": 78
    },
    {
      "midi": 69,
      "hit": false,
      "t": 31571.657499999998,
      "d": 3667.2754999999925,
      "v": 73
    },
    {
      "midi": 64,
      "hit": false,
      "t": 31622.208916666663,
      "d": 3630.5108333333264,
      "v": 74
    },
    {
      "midi": 62,
      "hit": false,
      "t": 31695.738249999995,
      "d": 3534.0035833333313,
      "v": 63
    },
    {
      "midi": 40,
      "hit": false,
      "t": 31695.738250000002,
      "d": 3391.5404999999955,
      "v": 70
    },
    {
      "midi": 57,
      "hit": false,
      "t": 31746.289666666667,
      "d": 3428.305166666669,
      "v": 83
    },
    {
      "midi": 52,
      "hit": false,
      "t": 31750.88525,
      "d": 3373.158166666668,
      "v": 73
    },
    {
      "midi": 52,
      "hit": false,
      "t": 35294.07999999999,
      "d": 367.64666666666744,
      "v": 76
    },
    {
      "midi": 57,
      "hit": false,
      "t": 35294.07999999999,
      "d": 551.4700000000012,
      "v": 84
    },
    {
      "midi": 61,
      "hit": false,
      "t": 35294.07999999999,
      "d": 551.4700000000012,
      "v": 82
    },
    {
      "midi": 52,
      "hit": false,
      "t": 35735.25599999999,
      "d": 202.20566666666855,
      "v": 35
    },
    {
      "midi": 61,
      "hit": false,
      "t": 36176.431999999986,
      "d": 418.1980833333364,
      "v": 73
    },
    {
      "midi": 57,
      "hit": false,
      "t": 36176.431999999986,
      "d": 445.771583333335,
      "v": 73
    },
    {
      "midi": 52,
      "hit": false,
      "t": 36617.607999999986,
      "d": 188.41891666666925,
      "v": 64
    },
    {
      "midi": 62,
      "hit": false,
      "t": 37058.783999999985,
      "d": 445.7715833333423,
      "v": 82
    },
    {
      "midi": 57,
      "hit": false,
      "t": 37058.783999999985,
      "d": 510.10975000001054,
      "v": 87
    },
    {
      "midi": 52,
      "hit": false,
      "t": 37499.95999999999,
      "d": 174.63216666666995,
      "v": 64
    },
    {
      "midi": 57,
      "hit": false,
      "t": 37720.547999999995,
      "d": 45.95583333333343,
      "v": 25
    },
    {
      "midi": 57,
      "hit": false,
      "t": 37941.136,
      "d": 386.02900000000227,
      "v": 82
    },
    {
      "midi": 64,
      "hit": false,
      "t": 37941.136,
      "d": 386.02900000000227,
      "v": 87
    },
    {
      "midi": 52,
      "hit": false,
      "t": 38382.312,
      "d": 87.31608333333133,
      "v": 53
    },
    {
      "midi": 52,
      "hit": false,
      "t": 38823.488,
      "d": 363.0510833333392,
      "v": 73
    },
    {
      "midi": 56,
      "hit": false,
      "t": 38823.488,
      "d": 459.5583333333416,
      "v": 79
    },
    {
      "midi": 59,
      "hit": false,
      "t": 38823.488,
      "d": 482.53625000000466,
      "v": 84
    },
    {
      "midi": 52,
      "hit": false,
      "t": 39264.664000000004,
      "d": 151.6542499999996,
      "v": 35
    },
    {
      "midi": 59,
      "hit": false,
      "t": 39705.840000000004,
      "d": 431.9848333333357,
      "v": 68
    },
    {
      "midi": 56,
      "hit": false,
      "t": 39705.840000000004,
      "d": 454.9627499999988,
      "v": 62
    },
    {
      "midi": 52,
      "hit": false,
      "t": 40147.016,
      "d": 73.52933333333203,
      "v": 45
    },
    {
      "midi": 52,
      "hit": false,
      "t": 40588.192,
      "d": 307.90408333332743,
      "v": 91
    },
    {
      "midi": 57,
      "hit": false,
      "t": 40588.192,
      "d": 468.7494999999908,
      "v": 95
    },
    {
      "midi": 52,
      "hit": false,
      "t": 41029.367999999995,
      "d": 105.69841666666616,
      "v": 56
    },
    {
      "midi": 52,
      "hit": false,
      "t": 41470.543999999994,
      "d": 220.58800000000338,
      "v": 71
    },
    {
      "midi": 59,
      "hit": false,
      "t": 41470.543999999994,
      "d": 298.71291666667094,
      "v": 87
    },
    {
      "midi": 54,
      "hit": false,
      "t": 42352.896,
      "d": 317.09525000000576,
      "v": 67
    },
    {
      "midi": 57,
      "hit": false,
      "t": 42352.896,
      "d": 445.7715833333423,
      "v": 71
    },
    {
      "midi": 61,
      "hit": false,
      "t": 42352.896,
      "d": 454.96275000000605,
      "v": 87
    },
    {
      "midi": 54,
      "hit": false,
      "t": 42794.07200000001,
      "d": 160.84541666666337,
      "v": 29
    },
    {
      "midi": 61,
      "hit": false,
      "t": 43235.24800000001,
      "d": 431.9848333333357,
      "v": 69
    },
    {
      "midi": 57,
      "hit": false,
      "t": 43235.24800000001,
      "d": 450.36716666666325,
      "v": 69
    },
    {
      "midi": 54,
      "hit": false,
      "t": 43676.424000000006,
      "d": 151.6542499999996,
      "v": 55
    },
    {
      "midi": 54,
      "hit": false,
      "t": 44117.600000000006,
      "d": 298.71291666667094,
      "v": 82
    },
    {
      "midi": 62,
      "hit": false,
      "t": 44117.600000000006,
      "d": 427.38925000000745,
      "v": 84
    },
    {
      "midi": 57,
      "hit": false,
      "t": 44117.600000000006,
      "d": 464.15391666666983,
      "v": 99
    },
    {
      "midi": 54,
      "hit": false,
      "t": 44558.77600000001,
      "d": 165.4409999999989,
      "v": 53
    },
    {
      "midi": 54,
      "hit": false,
      "t": 44999.95200000001,
      "d": 307.9040833333347,
      "v": 73
    },
    {
      "midi": 57,
      "hit": false,
      "t": 44999.95200000001,
      "d": 436.5804166666712,
      "v": 79
    },
    {
      "midi": 64,
      "hit": false,
      "t": 44999.95200000001,
      "d": 445.7715833333423,
      "v": 91
    },
    {
      "midi": 54,
      "hit": false,
      "t": 45441.12800000002,
      "d": 68.93375000000378,
      "v": 43
    },
    {
      "midi": 52,
      "hit": false,
      "t": 45882.304000000026,
      "d": 298.71291666666366,
      "v": 69
    },
    {
      "midi": 56,
      "hit": false,
      "t": 45882.304000000026,
      "d": 395.22016666665877,
      "v": 73
    },
    {
      "midi": 61,
      "hit": false,
      "t": 45882.304000000026,
      "d": 409.00691666665807,
      "v": 79
    },
    {
      "midi": 52,
      "hit": false,
      "t": 46323.48000000002,
      "d": 128.67633333333652,
      "v": 48
    },
    {
      "midi": 56,
      "hit": false,
      "t": 46764.656000000025,
      "d": 353.85991666666814,
      "v": 79
    },
    {
      "midi": 61,
      "hit": false,
      "t": 46764.656000000025,
      "d": 418.1980833333364,
      "v": 79
    },
    {
      "midi": 54,
      "hit": false,
      "t": 47647.00800000003,
      "d": 294.1173333333354,
      "v": 63
    },
    {
      "midi": 57,
      "hit": false,
      "t": 47647.00800000003,
      "d": 454.96275000000605,
      "v": 71
    },
    {
      "midi": 62,
      "hit": false,
      "t": 47647.00800000003,
      "d": 454.96275000000605,
      "v": 68
    },
    {
      "midi": 54,
      "hit": false,
      "t": 48088.18400000004,
      "d": 147.05866666666407,
      "v": 38
    },
    {
      "midi": 57,
      "hit": false,
      "t": 48529.36000000004,
      "d": 431.9848333333357,
      "v": 66
    },
    {
      "midi": 62,
      "hit": false,
      "t": 48529.36000000004,
      "d": 454.9627499999988,
      "v": 66
    },
    {
      "midi": 62,
      "hit": false,
      "t": 49191.12400000003,
      "d": 82.72050000000309,
      "v": 73
    },
    {
      "midi": 52,
      "hit": false,
      "t": 49411.712000000036,
      "d": 330.8819999999978,
      "v": 67
    },
    {
      "midi": 61,
      "hit": false,
      "t": 49411.712000000036,
      "d": 477.94066666666913,
      "v": 76
    },
    {
      "midi": 57,
      "hit": false,
      "t": 49411.712000000036,
      "d": 487.1318333333329,
      "v": 68
    },
    {
      "midi": 52,
      "hit": false,
      "t": 49852.888000000035,
      "d": 170.03658333333442,
      "v": 45
    },
    {
      "midi": 57,
      "hit": false,
      "t": 50294.064000000035,
      "d": 413.6025000000009,
      "v": 76
    },
    {
      "midi": 61,
      "hit": false,
      "t": 50294.064000000035,
      "d": 413.6025000000009,
      "v": 82
    },
    {
      "midi": 52,
      "hit": false,
      "t": 50735.240000000034,
      "d": 151.6542499999996,
      "v": 43
    },
    {
      "midi": 57,
      "hit": false,
      "t": 51176.416000000034,
      "d": 344.6687499999971,
      "v": 68
    },
    {
      "midi": 61,
      "hit": false,
      "t": 51176.416000000034,
      "d": 413.6024999999936,
      "v": 82
    },
    {
      "midi": 52,
      "hit": false,
      "t": 51617.592000000026,
      "d": 229.77916666666715,
      "v": 55
    },
    {
      "midi": 57,
      "hit": false,
      "t": 52058.768000000025,
      "d": 409.00691666666535,
      "v": 76
    },
    {
      "midi": 64,
      "hit": false,
      "t": 52058.768000000025,
      "d": 427.3892500000002,
      "v": 82
    },
    {
      "midi": 52,
      "hit": false,
      "t": 52499.944000000025,
      "d": 96.50725000000239,
      "v": 55
    },
    {
      "midi": 52,
      "hit": false,
      "t": 52941.120000000024,
      "d": 340.07316666666884,
      "v": 79
    },
    {
      "midi": 56,
      "hit": false,
      "t": 52941.120000000024,
      "d": 441.17600000000675,
      "v": 82
    },
    {
      "midi": 59,
      "hit": false,
      "t": 52941.120000000024,
      "d": 459.5583333333416,
      "v": 84
    },
    {
      "midi": 52,
      "hit": false,
      "t": 53382.29600000003,
      "d": 165.4409999999989,
      "v": 43
    },
    {
      "midi": 56,
      "hit": false,
      "t": 53823.47200000003,
      "d": 386.02900000000227,
      "v": 68
    },
    {
      "midi": 59,
      "hit": false,
      "t": 53823.47200000003,
      "d": 399.8157500000016,
      "v": 67
    },
    {
      "midi": 52,
      "hit": false,
      "t": 54264.64800000003,
      "d": 183.82333333333372,
      "v": 20
    },
    {
      "midi": 56,
      "hit": false,
      "t": 54705.82400000003,
      "d": 340.07316666666884,
      "v": 63
    },
    {
      "midi": 59,
      "hit": false,
      "t": 54705.82400000003,
      "d": 372.24225000000297,
      "v": 66
    },
    {
      "midi": 52,
      "hit": false,
      "t": 55147.00000000003,
      "d": 137.8675000000003,
      "v": 22
    },
    {
      "midi": 56,
      "hit": false,
      "t": 55588.17600000003,
      "d": 381.43341666666674,
      "v": 68
    },
    {
      "midi": 59,
      "hit": false,
      "t": 55588.17600000003,
      "d": 418.1980833333364,
      "v": 82
    },
    {
      "midi": 52,
      "hit": false,
      "t": 56029.35200000003,
      "d": 87.31608333333133,
      "v": 62
    },
    {
      "midi": 52,
      "hit": false,
      "t": 56470.52800000002,
      "d": 340.07316666666884,
      "v": 69
    },
    {
      "midi": 57,
      "hit": false,
      "t": 56470.52800000002,
      "d": 431.9848333333357,
      "v": 69
    },
    {
      "midi": 61,
      "hit": false,
      "t": 56470.52800000002,
      "d": 464.15391666666255,
      "v": 69
    },
    {
      "midi": 52,
      "hit": false,
      "t": 56911.70400000002,
      "d": 188.41891666666197,
      "v": 47
    },
    {
      "midi": 52,
      "hit": false,
      "t": 57352.88000000001,
      "d": 298.71291666666366,
      "v": 53
    },
    {
      "midi": 57,
      "hit": false,
      "t": 57352.88000000001,
      "d": 381.43341666666674,
      "v": 63
    },
    {
      "midi": 61,
      "hit": false,
      "t": 57352.88000000001,
      "d": 431.9848333333357,
      "v": 62
    },
    {
      "midi": 52,
      "hit": false,
      "t": 57794.05600000001,
      "d": 220.58800000000338,
      "v": 45
    },
    {
      "midi": 52,
      "hit": false,
      "t": 58235.23200000002,
      "d": 252.75708333333023,
      "v": 62
    },
    {
      "midi": 57,
      "hit": false,
      "t": 58235.23200000002,
      "d": 326.28641666666226,
      "v": 63
    },
    {
      "midi": 62,
      "hit": false,
      "t": 58235.23200000002,
      "d": 386.028999999995,
      "v": 67
    },
    {
      "midi": 52,
      "hit": false,
      "t": 58676.40800000001,
      "d": 170.03658333333442,
      "v": 46
    },
    {
      "midi": 52,
      "hit": false,
      "t": 59117.58400000001,
      "d": 211.39683333333232,
      "v": 64
    },
    {
      "midi": 57,
      "hit": false,
      "t": 59117.58400000001,
      "d": 229.77916666666715,
      "v": 69
    },
    {
      "midi": 64,
      "hit": false,
      "t": 59117.58400000001,
      "d": 303.3084999999992,
      "v": 76
    },
    {
      "midi": 56,
      "hit": false,
      "t": 59999.93600000001,
      "d": 372.2422499999957,
      "v": 61
    },
    {
      "midi": 61,
      "hit": false,
      "t": 59999.93600000001,
      "d": 473.34508333332633,
      "v": 62
    },
    {
      "midi": 65,
      "hit": false,
      "t": 59999.93600000001,
      "d": 510.109749999996,
      "v": 66
    },
    {
      "midi": 56,
      "hit": false,
      "t": 60441.112,
      "d": 234.37475000000268,
      "v": 34
    },
    {
      "midi": 56,
      "hit": false,
      "t": 60882.288,
      "d": 252.75708333333023,
      "v": 61
    },
    {
      "midi": 61,
      "hit": false,
      "t": 60882.288,
      "d": 418.1980833333291,
      "v": 63
    },
    {
      "midi": 65,
      "hit": false,
      "t": 60882.288,
      "d": 418.1980833333291,
      "v": 68
    },
    {
      "midi": 56,
      "hit": false,
      "t": 61323.46399999999,
      "d": 174.63216666666995,
      "v": 47
    },
    {
      "midi": 56,
      "hit": false,
      "t": 61764.64,
      "d": 248.16150000000198,
      "v": 63
    },
    {
      "midi": 61,
      "hit": false,
      "t": 61764.64,
      "d": 340.07316666666884,
      "v": 71
    },
    {
      "midi": 66,
      "hit": false,
      "t": 61764.64,
      "d": 381.43341666666674,
      "v": 66
    },
    {
      "midi": 56,
      "hit": false,
      "t": 62205.816,
      "d": 124.08075000000099,
      "v": 55
    },
    {
      "midi": 56,
      "hit": false,
      "t": 62646.992,
      "d": 261.9482500000013,
      "v": 63
    },
    {
      "midi": 61,
      "hit": false,
      "t": 62646.992,
      "d": 363.0510833333319,
      "v": 69
    },
    {
      "midi": 68,
      "hit": false,
      "t": 62646.992,
      "d": 418.1980833333291,
      "v": 68
    },
    {
      "midi": 56,
      "hit": false,
      "t": 63088.16799999999,
      "d": 59.74258333333273,
      "v": 64
    },
    {
      "midi": 57,
      "hit": false,
      "t": 63529.34399999999,
      "d": 294.1173333333354,
      "v": 68
    },
    {
      "midi": 61,
      "hit": false,
      "t": 63529.34399999999,
      "d": 376.8378333333385,
      "v": 71
    },
    {
      "midi": 66,
      "hit": false,
      "t": 63529.34399999999,
      "d": 413.60250000000815,
      "v": 64
    },
    {
      "midi": 57,
      "hit": false,
      "t": 63970.52,
      "d": 151.6542499999996,
      "v": 55
    },
    {
      "midi": 61,
      "hit": false,
      "t": 64411.695999999996,
      "d": 395.22016666666605,
      "v": 87
    },
    {
      "midi": 66,
      "hit": false,
      "t": 64411.695999999996,
      "d": 409.00691666666535,
      "v": 79
    },
    {
      "midi": 57,
      "hit": false,
      "t": 64852.871999999996,
      "d": 193.0144999999975,
      "v": 37
    },
    {
      "midi": 61,
      "hit": false,
      "t": 65294.047999999995,
      "d": 372.2422499999957,
      "v": 66
    },
    {
      "midi": 66,
      "hit": false,
      "t": 65294.047999999995,
      "d": 395.22016666666605,
      "v": 67
    },
    {
      "midi": 57,
      "hit": false,
      "t": 65735.22399999999,
      "d": 238.97033333333093,
      "v": 33
    },
    {
      "midi": 61,
      "hit": false,
      "t": 66176.39999999998,
      "d": 307.90408333332743,
      "v": 79
    },
    {
      "midi": 66,
      "hit": false,
      "t": 66176.39999999998,
      "d": 372.2422499999957,
      "v": 76
    },
    {
      "midi": 57,
      "hit": false,
      "t": 66617.57599999997,
      "d": 151.65425000000687,
      "v": 53
    },
    {
      "midi": 57,
      "hit": false,
      "t": 67058.75199999998,
      "d": 298.71291666667094,
      "v": 69
    },
    {
      "midi": 59,
      "hit": false,
      "t": 67058.75199999998,
      "d": 399.81575000000885,
      "v": 76
    },
    {
      "midi": 65,
      "hit": false,
      "t": 67058.75199999998,
      "d": 431.9848333333357,
      "v": 71
    },
    {
      "midi": 61,
      "hit": false,
      "t": 67058.75199999998,
      "d": 441.17600000000675,
      "v": 71
    },
    {
      "midi": 57,
      "hit": false,
      "t": 67499.92799999999,
      "d": 151.65425000000687,
      "v": 45
    },
    {
      "midi": 59,
      "hit": false,
      "t": 67941.10399999999,
      "d": 326.28641666666954,
      "v": 64
    },
    {
      "midi": 57,
      "hit": false,
      "t": 67941.10399999999,
      "d": 335.4775833333406,
      "v": 63
    },
    {
      "midi": 61,
      "hit": false,
      "t": 67941.10399999999,
      "d": 675.5507500000094,
      "v": 64
    },
    {
      "midi": 65,
      "hit": false,
      "t": 67941.10399999999,
      "d": 698.5286666666798,
      "v": 66
    },
    {
      "midi": 56,
      "hit": false,
      "t": 68823.456,
      "d": 303.3084999999992,
      "v": 56
    },
    {
      "midi": 59,
      "hit": false,
      "t": 68823.456,
      "d": 445.77158333332045,
      "v": 57
    },
    {
      "midi": 61,
      "hit": false,
      "t": 68823.456,
      "d": 473.34508333331905,
      "v": 60
    },
    {
      "midi": 65,
      "hit": false,
      "t": 68823.456,
      "d": 473.34508333331905,
      "v": 63
    },
    {
      "midi": 56,
      "hit": false,
      "t": 69264.632,
      "d": 179.22774999999092,
      "v": 46
    },
    {
      "midi": 56,
      "hit": false,
      "t": 69705.80799999999,
      "d": 261.9482500000013,
      "v": 53
    },
    {
      "midi": 59,
      "hit": false,
      "t": 69705.80799999999,
      "d": 445.771583333335,
      "v": 58
    },
    {
      "midi": 61,
      "hit": false,
      "t": 69705.80799999999,
      "d": 551.4700000000012,
      "v": 55
    },
    {
      "midi": 65,
      "hit": false,
      "t": 69705.80799999999,
      "d": 588.2346666666563,
      "v": 60
    },
    {
      "midi": 56,
      "hit": false,
      "t": 70146.984,
      "d": 142.46308333332126,
      "v": 41
    },
    {
      "midi": 57,
      "hit": false,
      "t": 70588.15999999997,
      "d": 289.5217499999999,
      "v": 68
    },
    {
      "midi": 64,
      "hit": false,
      "t": 70588.15999999997,
      "d": 413.6024999999936,
      "v": 68
    },
    {
      "midi": 61,
      "hit": false,
      "t": 70588.15999999997,
      "d": 422.79366666666465,
      "v": 73
    },
    {
      "midi": 57,
      "hit": false,
      "t": 71029.33599999997,
      "d": 128.67633333333652,
      "v": 43
    },
    {
      "midi": 57,
      "hit": false,
      "t": 71470.51199999997,
      "d": 215.99241666666057,
      "v": 67
    },
    {
      "midi": 64,
      "hit": false,
      "t": 71470.51199999997,
      "d": 372.2422499999957,
      "v": 71
    },
    {
      "midi": 61,
      "hit": false,
      "t": 71470.51199999997,
      "d": 395.22016666666605,
      "v": 76
    },
    {
      "midi": 57,
      "hit": false,
      "t": 71911.68799999997,
      "d": 257.35266666667303,
      "v": 55
    },
    {
      "midi": 57,
      "hit": false,
      "t": 72352.86399999997,
      "d": 326.286416666655,
      "v": 79
    },
    {
      "midi": 64,
      "hit": false,
      "t": 72352.86399999997,
      "d": 505.51416666666046,
      "v": 82
    },
    {
      "midi": 61,
      "hit": false,
      "t": 72352.86399999997,
      "d": 519.3009166666598,
      "v": 91
    },
    {
      "midi": 57,
      "hit": false,
      "t": 72794.03999999996,
      "d": 151.65425000000687,
      "v": 35
    },
    {
      "midi": 61,
      "hit": false,
      "t": 73235.21599999997,
      "d": 431.9848333333357,
      "v": 82
    },
    {
      "midi": 64,
      "hit": false,
      "t": 73235.21599999997,
      "d": 464.1539166666771,
      "v": 68
    },
    {
      "midi": 57,
      "hit": false,
      "t": 73676.39199999998,
      "d": 96.50725000000966,
      "v": 57
    },
    {
      "midi": 56,
      "hit": false,
      "t": 74117.56799999998,
      "d": 317.0952499999985,
      "v": 76
    },
    {
      "midi": 64,
      "hit": false,
      "t": 74117.56799999998,
      "d": 441.1759999999922,
      "v": 71
    },
    {
      "midi": 59,
      "hit": false,
      "t": 74117.56799999998,
      "d": 454.9627499999915,
      "v": 82
    },
    {
      "midi": 56,
      "hit": false,
      "t": 74558.74399999998,
      "d": 119.48516666666546,
      "v": 43
    },
    {
      "midi": 56,
      "hit": false,
      "t": 74999.91999999997,
      "d": 271.13941666667233,
      "v": 62
    },
    {
      "midi": 64,
      "hit": false,
      "t": 74999.91999999997,
      "d": 404.4113333333371,
      "v": 69
    },
    {
      "midi": 59,
      "hit": false,
      "t": 74999.91999999997,
      "d": 427.38925000000745,
      "v": 67
    },
    {
      "midi": 56,
      "hit": false,
      "t": 75441.09599999998,
      "d": 179.22775000000547,
      "v": 53
    },
    {
      "midi": 56,
      "hit": false,
      "t": 75882.27199999998,
      "d": 183.82333333333372,
      "v": 64
    },
    {
      "midi": 59,
      "hit": false,
      "t": 75882.27199999998,
      "d": 266.54383333332953,
      "v": 73
    },
    {
      "midi": 64,
      "hit": false,
      "t": 75882.27199999998,
      "d": 298.7129166666564,
      "v": 69
    },
    {
      "midi": 52,
      "hit": false,
      "t": 76764.62399999997,
      "d": 340.0731666666543,
      "v": 84
    },
    {
      "midi": 59,
      "hit": false,
      "t": 76764.62399999997,
      "d": 363.05108333332464,
      "v": 95
    },
    {
      "midi": 61,
      "hit": false,
      "t": 76764.62399999997,
      "d": 363.05108333332464,
      "v": 91
    },
    {
      "midi": 45,
      "hit": false,
      "t": 76764.62399999997,
      "d": 367.6466666666529,
      "v": 76
    },
    {
      "midi": 64,
      "hit": false,
      "t": 76764.62399999997,
      "d": 395.2201666666515,
      "v": 84
    },
    {
      "midi": 57,
      "hit": false,
      "t": 76764.62399999997,
      "d": 776.6535833333182,
      "v": 91
    },
    {
      "midi": 57,
      "hit": false,
      "t": 77646.97600000004,
      "d": 349.26433333332534,
      "v": 79
    },
    {
      "midi": 54,
      "hit": false,
      "t": 77646.97600000004,
      "d": 353.8599166666536,
      "v": 84
    },
    {
      "midi": 49,
      "hit": false,
      "t": 77646.97600000004,
      "d": 367.6466666666529,
      "v": 73
    },
    {
      "midi": 42,
      "hit": false,
      "t": 77646.97600000004,
      "d": 372.24224999998114,
      "v": 69
    },
    {
      "midi": 61,
      "hit": false,
      "t": 77646.97600000004,
      "d": 381.4334166666522,
      "v": 68
    },
    {
      "midi": 57,
      "hit": false,
      "t": 78529.32800000002,
      "d": 174.63216666666267,
      "v": 91
    },
    {
      "midi": 61,
      "hit": false,
      "t": 78529.32800000002,
      "d": 206.80124999998952,
      "v": 91
    },
    {
      "midi": 52,
      "hit": false,
      "t": 78529.32800000002,
      "d": 220.58799999998882,
      "v": 82
    },
    {
      "midi": 45,
      "hit": false,
      "t": 78529.32800000002,
      "d": 225.18358333331707,
      "v": 82
    },
    {
      "midi": 64,
      "hit": false,
      "t": 78529.32800000002,
      "d": 234.37474999998813,
      "v": 76
    },
    {
      "midi": 62,
      "hit": false,
      "t": 79411.68000000001,
      "d": 64.33816666666826,
      "v": 73
    },
    {
      "midi": 66,
      "hit": false,
      "t": 79411.68000000001,
      "d": 87.31608333333861,
      "v": 79
    },
    {
      "midi": 69,
      "hit": false,
      "t": 79411.68000000001,
      "d": 110.29400000000896,
      "v": 66
    },
    {
      "midi": 57,
      "hit": false,
      "t": 79411.68000000001,
      "d": 2261.027000000002,
      "v": 71
    },
    {
      "midi": 50,
      "hit": false,
      "t": 79411.68000000001,
      "d": 2950.364499999996,
      "v": 76
    },
    {
      "midi": 69,
      "hit": false,
      "t": 79852.85600000001,
      "d": 59.74258333334001,
      "v": 82
    },
    {
      "midi": 81,
      "hit": false,
      "t": 79852.85600000001,
      "d": 68.93375000001106,
      "v": 87
    },
    {
      "midi": 80,
      "hit": false,
      "t": 80294.03200000002,
      "d": 68.93374999999651,
      "v": 84
    },
    {
      "midi": 68,
      "hit": false,
      "t": 80294.03200000002,
      "d": 73.52933333332476,
      "v": 79
    },
    {
      "midi": 69,
      "hit": false,
      "t": 80735.20800000001,
      "d": 68.93374999999651,
      "v": 79
    },
    {
      "midi": 81,
      "hit": false,
      "t": 80735.20800000001,
      "d": 73.52933333332476,
      "v": 76
    },
    {
      "midi": 66,
      "hit": false,
      "t": 80955.796,
      "d": 59.74258333334001,
      "v": 68
    },
    {
      "midi": 78,
      "hit": false,
      "t": 80955.796,
      "d": 68.93375000001106,
      "v": 66
    },
    {
      "midi": 69,
      "hit": false,
      "t": 81617.56000000001,
      "d": 73.52933333332476,
      "v": 84
    },
    {
      "midi": 81,
      "hit": false,
      "t": 81617.56000000001,
      "d": 82.72049999999581,
      "v": 84
    },
    {
      "midi": 80,
      "hit": false,
      "t": 82058.736,
      "d": 68.93374999999651,
      "v": 79
    },
    {
      "midi": 68,
      "hit": false,
      "t": 82058.736,
      "d": 73.52933333332476,
      "v": 76
    },
    {
      "midi": 57,
      "hit": false,
      "t": 82058.736,
      "d": 151.65424999999232,
      "v": 9
    },
    {
      "midi": 69,
      "hit": false,
      "t": 82499.912,
      "d": 68.93374999999651,
      "v": 67
    },
    {
      "midi": 81,
      "hit": false,
      "t": 82499.912,
      "d": 68.93374999999651,
      "v": 68
    },
    {
      "midi": 76,
      "hit": false,
      "t": 82720.5,
      "d": 1135.1090833333437,
      "v": 87
    },
    {
      "midi": 64,
      "hit": false,
      "t": 82720.5,
      "d": 1148.895833333343,
      "v": 87
    },
    {
      "midi": 59,
      "hit": false,
      "t": 82941.088,
      "d": 574.4479166666715,
      "v": 67
    },
    {
      "midi": 52,
      "hit": false,
      "t": 82941.088,
      "d": 638.7860833333398,
      "v": 69
    },
    {
      "midi": 59,
      "hit": false,
      "t": 83823.44000000002,
      "d": 358.4554999999964,
      "v": 67
    },
    {
      "midi": 59,
      "hit": false,
      "t": 84264.61600000001,
      "d": 179.22775000000547,
      "v": 67
    },
    {
      "midi": 52,
      "hit": false,
      "t": 84264.61600000001,
      "d": 202.20566666667582,
      "v": 79
    },
    {
      "midi": 59,
      "hit": false,
      "t": 84705.79200000002,
      "d": 137.86749999999302,
      "v": 84
    },
    {
      "midi": 52,
      "hit": false,
      "t": 84705.79200000002,
      "d": 165.44099999999162,
      "v": 71
    },
    {
      "midi": 52,
      "hit": false,
      "t": 86470.49600000001,
      "d": 36.764666666669655,
      "v": 53
    },
    {
      "midi": 57,
      "hit": false,
      "t": 86470.49600000001,
      "d": 482.53625000000466,
      "v": 84
    },
    {
      "midi": 61,
      "hit": false,
      "t": 86470.49600000001,
      "d": 482.53625000000466,
      "v": 87
    },
    {
      "midi": 64,
      "hit": false,
      "t": 86470.49600000001,
      "d": 491.7274166666757,
      "v": 79
    },
    {
      "midi": 45,
      "hit": false,
      "t": 86470.49600000001,
      "d": 942.0945833333535,
      "v": 82
    },
    {
      "midi": 52,
      "hit": false,
      "t": 86911.67200000002,
      "d": 514.7053333333461,
      "v": 58
    },
    {
      "midi": 57,
      "hit": false,
      "t": 87132.26000000002,
      "d": 91.91166666666686,
      "v": 56
    },
    {
      "midi": 64,
      "hit": false,
      "t": 87352.84800000003,
      "d": 496.32300000000396,
      "v": 76
    },
    {
      "midi": 61,
      "hit": false,
      "t": 87352.84800000003,
      "d": 514.7053333333315,
      "v": 91
    },
    {
      "midi": 57,
      "hit": false,
      "t": 87352.84800000003,
      "d": 523.8965000000026,
      "v": 79
    },
    {
      "midi": 52,
      "hit": false,
      "t": 87794.02400000003,
      "d": 151.65424999999232,
      "v": 79
    },
    {
      "midi": 45,
      "hit": false,
      "t": 88014.61200000002,
      "d": 537.6832500000019,
      "v": 64
    },
    {
      "midi": 57,
      "hit": false,
      "t": 88235.20000000003,
      "d": 514.7053333333315,
      "v": 91
    },
    {
      "midi": 62,
      "hit": false,
      "t": 88235.20000000003,
      "d": 519.3009166666598,
      "v": 82
    },
    {
      "midi": 64,
      "hit": false,
      "t": 88235.20000000003,
      "d": 542.2788333333301,
      "v": 76
    },
    {
      "midi": 52,
      "hit": false,
      "t": 88676.37600000002,
      "d": 119.48516666666546,
      "v": 64
    },
    {
      "midi": 45,
      "hit": false,
      "t": 88896.96400000002,
      "d": 344.6687499999971,
      "v": 58
    },
    {
      "midi": 61,
      "hit": false,
      "t": 89117.55200000003,
      "d": 363.05108333332464,
      "v": 87
    },
    {
      "midi": 57,
      "hit": false,
      "t": 89117.55200000003,
      "d": 404.41133333332255,
      "v": 84
    },
    {
      "midi": 64,
      "hit": false,
      "t": 89117.55200000003,
      "d": 404.41133333332255,
      "v": 73
    },
    {
      "midi": 42,
      "hit": false,
      "t": 89779.31600000002,
      "d": 36.764666666669655,
      "v": 11
    },
    {
      "midi": 42,
      "hit": false,
      "t": 89999.90400000002,
      "d": 344.6687499999971,
      "v": 95
    },
    {
      "midi": 57,
      "hit": false,
      "t": 89999.90400000002,
      "d": 376.83783333332394,
      "v": 82
    },
    {
      "midi": 54,
      "hit": false,
      "t": 89999.90400000002,
      "d": 386.028999999995,
      "v": 84
    },
    {
      "midi": 61,
      "hit": false,
      "t": 89999.90400000002,
      "d": 418.19808333332185,
      "v": 79
    },
    {
      "midi": 52,
      "hit": false,
      "t": 90882.25600000001,
      "d": 298.7129166666564,
      "v": 82
    },
    {
      "midi": 57,
      "hit": false,
      "t": 90882.25600000001,
      "d": 312.4996666666557,
      "v": 87
    },
    {
      "midi": 45,
      "hit": false,
      "t": 90882.25600000001,
      "d": 340.0731666666543,
      "v": 76
    },
    {
      "midi": 61,
      "hit": false,
      "t": 90882.25600000001,
      "d": 340.0731666666543,
      "v": 91
    },
    {
      "midi": 64,
      "hit": false,
      "t": 90882.25600000001,
      "d": 340.0731666666543,
      "v": 73
    },
    {
      "midi": 57,
      "hit": false,
      "t": 91764.608,
      "d": 156.24983333333512,
      "v": 79
    },
    {
      "midi": 64,
      "hit": false,
      "t": 91764.608,
      "d": 183.82333333333372,
      "v": 71
    },
    {
      "midi": 66,
      "hit": false,
      "t": 91764.608,
      "d": 220.58800000000338,
      "v": 66
    },
    {
      "midi": 50,
      "hit": false,
      "t": 91764.608,
      "d": 955.8813333333383,
      "v": 76
    },
    {
      "midi": 38,
      "hit": false,
      "t": 91764.608,
      "d": 1700.3658333333442,
      "v": 84
    },
    {
      "midi": 69,
      "hit": false,
      "t": 92205.784,
      "d": 64.33816666666826,
      "v": 76
    },
    {
      "midi": 81,
      "hit": false,
      "t": 92205.784,
      "d": 73.52933333333931,
      "v": 79
    },
    {
      "midi": 80,
      "hit": false,
      "t": 92646.96,
      "d": 68.93374999999651,
      "v": 84
    },
    {
      "midi": 68,
      "hit": false,
      "t": 92646.96,
      "d": 78.12491666665301,
      "v": 79
    },
    {
      "midi": 69,
      "hit": false,
      "t": 93088.136,
      "d": 64.33816666666826,
      "v": 73
    },
    {
      "midi": 81,
      "hit": false,
      "t": 93088.136,
      "d": 64.33816666666826,
      "v": 73
    },
    {
      "midi": 78,
      "hit": false,
      "t": 93308.724,
      "d": 59.74258333334001,
      "v": 62
    },
    {
      "midi": 66,
      "hit": false,
      "t": 93308.724,
      "d": 64.33816666666826,
      "v": 66
    },
    {
      "midi": 50,
      "hit": false,
      "t": 93529.312,
      "d": 225.18358333333163,
      "v": 67
    },
    {
      "midi": 38,
      "hit": false,
      "t": 93749.90000000001,
      "d": 1125.9179166666581,
      "v": 71
    },
    {
      "midi": 69,
      "hit": false,
      "t": 93970.488,
      "d": 73.52933333333931,
      "v": 82
    },
    {
      "midi": 81,
      "hit": false,
      "t": 93970.488,
      "d": 78.12491666666756,
      "v": 79
    },
    {
      "midi": 50,
      "hit": false,
      "t": 94411.664,
      "d": 73.52933333333931,
      "v": 9
    },
    {
      "midi": 68,
      "hit": false,
      "t": 94411.664,
      "d": 82.72050000001036,
      "v": 76
    },
    {
      "midi": 80,
      "hit": false,
      "t": 94411.664,
      "d": 101.10283333333791,
      "v": 76
    },
    {
      "midi": 50,
      "hit": false,
      "t": 94632.25200000001,
      "d": 225.18358333333163,
      "v": 6
    },
    {
      "midi": 69,
      "hit": false,
      "t": 94852.84000000001,
      "d": 59.742583333325456,
      "v": 66
    },
    {
      "midi": 81,
      "hit": false,
      "t": 94852.84000000001,
      "d": 59.742583333325456,
      "v": 62
    },
    {
      "midi": 76,
      "hit": false,
      "t": 95073.428,
      "d": 280.3305833333434,
      "v": 82
    },
    {
      "midi": 64,
      "hit": false,
      "t": 95073.428,
      "d": 307.904083333342,
      "v": 82
    },
    {
      "midi": 52,
      "hit": false,
      "t": 95294.016,
      "d": 528.4920833333454,
      "v": 79
    },
    {
      "midi": 40,
      "hit": false,
      "t": 95294.016,
      "d": 2173.7109166666924,
      "v": 73
    },
    {
      "midi": 59,
      "hit": false,
      "t": 95735.19200000001,
      "d": 91.91166666666686,
      "v": 61
    },
    {
      "midi": 59,
      "hit": false,
      "t": 95955.78000000001,
      "d": 73.52933333333931,
      "v": 33
    },
    {
      "midi": 52,
      "hit": false,
      "t": 95955.78000000001,
      "d": 312.49966666667024,
      "v": 61
    },
    {
      "midi": 59,
      "hit": false,
      "t": 96176.36800000002,
      "d": 477.9406666666764,
      "v": 79
    },
    {
      "midi": 64,
      "hit": false,
      "t": 96176.36800000002,
      "d": 482.53625000000466,
      "v": 79
    },
    {
      "midi": 68,
      "hit": false,
      "t": 96176.36800000002,
      "d": 496.32300000000396,
      "v": 68
    },
    {
      "midi": 52,
      "hit": false,
      "t": 96617.54400000002,
      "d": 670.9551666666666,
      "v": 67
    },
    {
      "midi": 59,
      "hit": false,
      "t": 96838.13200000003,
      "d": 87.31608333333861,
      "v": 63
    },
    {
      "midi": 64,
      "hit": false,
      "t": 97058.72000000003,
      "d": 96.50724999999511,
      "v": 45
    },
    {
      "midi": 59,
      "hit": false,
      "t": 97279.30800000002,
      "d": 266.54383333332953,
      "v": 76
    },
    {
      "midi": 64,
      "hit": false,
      "t": 97279.30800000002,
      "d": 280.33058333332883,
      "v": 73
    },
    {
      "midi": 68,
      "hit": false,
      "t": 97279.30800000002,
      "d": 298.7129166666564,
      "v": 63
    },
    {
      "midi": 52,
      "hit": false,
      "t": 97499.89600000002,
      "d": 206.80124999998952,
      "v": 64
    },
    {
      "midi": 59,
      "hit": false,
      "t": 97720.48400000001,
      "d": 110.29399999999441,
      "v": 64
    },
    {
      "midi": 52,
      "hit": false,
      "t": 97720.48400000001,
      "d": 303.30849999998463,
      "v": 16
    },
    {
      "midi": 68,
      "hit": false,
      "t": 97941.072,
      "d": 179.22774999999092,
      "v": 68
    },
    {
      "midi": 59,
      "hit": false,
      "t": 97941.072,
      "d": 335.47758333332604,
      "v": 82
    },
    {
      "midi": 40,
      "hit": false,
      "t": 97941.072,
      "d": 390.62458333332324,
      "v": 42
    },
    {
      "midi": 66,
      "hit": false,
      "t": 98161.65999999999,
      "d": 147.05866666666407,
      "v": 46
    },
    {
      "midi": 59,
      "hit": false,
      "t": 98382.24799999999,
      "d": 82.72049999999581,
      "v": 52
    },
    {
      "midi": 42,
      "hit": false,
      "t": 98823.42399999998,
      "d": 298.7129166666564,
      "v": 82
    },
    {
      "midi": 57,
      "hit": false,
      "t": 98823.42399999998,
      "d": 505.51416666666046,
      "v": 82
    },
    {
      "midi": 54,
      "hit": false,
      "t": 98823.42399999998,
      "d": 519.3009166666598,
      "v": 87
    },
    {
      "midi": 61,
      "hit": false,
      "t": 98823.42399999998,
      "d": 528.4920833333308,
      "v": 67
    },
    {
      "midi": 42,
      "hit": false,
      "t": 99264.59999999998,
      "d": 335.4775833333406,
      "v": 61
    },
    {
      "midi": 54,
      "hit": false,
      "t": 99485.18799999998,
      "d": 105.69841666666616,
      "v": 28
    },
    {
      "midi": 42,
      "hit": false,
      "t": 99705.77599999998,
      "d": 147.05866666666407,
      "v": 38
    },
    {
      "midi": 57,
      "hit": false,
      "t": 100146.95199999998,
      "d": 3749.995999999999,
      "v": 87
    },
    {
      "midi": 38,
      "hit": false,
      "t": 100146.95199999998,
      "d": 3970.5840000000026,
      "v": 95
    },
    {
      "midi": 50,
      "hit": false,
      "t": 100146.95199999998,
      "d": 3970.5840000000026,
      "v": 84
    },
    {
      "midi": 64,
      "hit": false,
      "t": 100146.95199999998,
      "d": 3970.5840000000026,
      "v": 79
    },
    {
      "midi": 66,
      "hit": false,
      "t": 100146.95199999998,
      "d": 3970.5840000000026,
      "v": 73
    },
    {
      "midi": 45,
      "hit": false,
      "t": 104117.53599999998,
      "d": 588.2346666666708,
      "v": 61
    },
    {
      "midi": 57,
      "hit": false,
      "t": 104117.53599999998,
      "d": 877.7564166666707,
      "v": 76
    },
    {
      "midi": 61,
      "hit": false,
      "t": 104117.53599999998,
      "d": 891.54316666667,
      "v": 76
    },
    {
      "midi": 64,
      "hit": false,
      "t": 104117.53599999998,
      "d": 905.3299166666693,
      "v": 67
    },
    {
      "midi": 33,
      "hit": false,
      "t": 104117.53599999998,
      "d": 1557.9027499999793,
      "v": 69
    },
    {
      "midi": 45,
      "hit": false,
      "t": 104999.88799999998,
      "d": 615.8081666666549,
      "v": 62
    },
    {
      "midi": 57,
      "hit": false,
      "t": 105220.47599999998,
      "d": 114.88958333333721,
      "v": 61
    },
    {
      "midi": 57,
      "hit": false,
      "t": 105441.06399999998,
      "d": 32.16908333332685,
      "v": 9
    },
    {
      "midi": 61,
      "hit": false,
      "t": 105441.06399999998,
      "d": 142.46308333332126,
      "v": 66
    },
    {
      "midi": 64,
      "hit": false,
      "t": 105661.65199999996,
      "d": 147.05866666666407,
      "v": 34
    },
    {
      "midi": 45,
      "hit": false,
      "t": 105661.65199999996,
      "d": 418.1980833333364,
      "v": 30
    },
    {
      "midi": 33,
      "hit": false,
      "t": 105882.23999999996,
      "d": 882.3519999999844,
      "v": 55
    },
    {
      "midi": 56,
      "hit": false,
      "t": 105882.23999999996,
      "d": 1263.7854166666511,
      "v": 63
    },
    {
      "midi": 59,
      "hit": false,
      "t": 105882.23999999996,
      "d": 1277.5721666666504,
      "v": 67
    },
    {
      "midi": 64,
      "hit": false,
      "t": 105882.23999999996,
      "d": 1300.5500833333208,
      "v": 64
    },
    {
      "midi": 45,
      "hit": false,
      "t": 106323.41599999995,
      "d": 147.05866666666407,
      "v": 46
    },
    {
      "midi": 45,
      "hit": false,
      "t": 106764.59199999995,
      "d": 358.4554999999964,
      "v": 66
    },
    {
      "midi": 33,
      "hit": false,
      "t": 107205.76799999995,
      "d": 464.1539166666771,
      "v": 30
    },
    {
      "midi": 45,
      "hit": false,
      "t": 107646.94399999996,
      "d": 523.8965000000026,
      "v": 56
    },
    {
      "midi": 64,
      "hit": false,
      "t": 107646.94399999996,
      "d": 565.2567500000005,
      "v": 66
    },
    {
      "midi": 57,
      "hit": false,
      "t": 107646.94399999996,
      "d": 620.4037499999977,
      "v": 63
    },
    {
      "midi": 61,
      "hit": false,
      "t": 107646.94399999996,
      "d": 716.9109999999928,
      "v": 58
    },
    {
      "midi": 33,
      "hit": false,
      "t": 108088.11999999997,
      "d": 670.9551666666521,
      "v": 58
    },
    {
      "midi": 45,
      "hit": false,
      "t": 108308.70799999996,
      "d": 96.50724999999511,
      "v": 29
    },
    {
      "midi": 57,
      "hit": false,
      "t": 108529.29599999994,
      "d": 220.58800000000338,
      "v": 53
    },
    {
      "midi": 64,
      "hit": false,
      "t": 108529.29599999994,
      "d": 261.9482500000013,
      "v": 55
    },
    {
      "midi": 61,
      "hit": false,
      "t": 108529.29599999994,
      "d": 294.11733333332813,
      "v": 56
    },
    {
      "midi": 45,
      "hit": false,
      "t": 108749.88399999995,
      "d": 335.47758333332604,
      "v": 66
    },
    {
      "midi": 57,
      "hit": false,
      "t": 108970.47199999994,
      "d": 119.48516666666546,
      "v": 64
    },
    {
      "midi": 42,
      "hit": false,
      "t": 109411.64799999994,
      "d": 284.92616666667163,
      "v": 64
    },
    {
      "midi": 57,
      "hit": false,
      "t": 109411.64799999994,
      "d": 431.9848333333357,
      "v": 62
    },
    {
      "midi": 61,
      "hit": false,
      "t": 109411.64799999994,
      "d": 450.3671666666778,
      "v": 64
    },
    {
      "midi": 54,
      "hit": false,
      "t": 109411.64799999994,
      "d": 468.74950000000536,
      "v": 63
    },
    {
      "midi": 42,
      "hit": false,
      "t": 109852.82399999995,
      "d": 546.8744166666729,
      "v": 61
    },
    {
      "midi": 54,
      "hit": false,
      "t": 110073.41199999995,
      "d": 101.10283333333791,
      "v": 28
    },
    {
      "midi": 57,
      "hit": false,
      "t": 110293.99999999996,
      "d": 399.8157499999943,
      "v": 52
    },
    {
      "midi": 54,
      "hit": false,
      "t": 110293.99999999996,
      "d": 422.79366666666465,
      "v": 32
    },
    {
      "midi": 61,
      "hit": false,
      "t": 110293.99999999996,
      "d": 422.79366666666465,
      "v": 55
    },
    {
      "midi": 42,
      "hit": false,
      "t": 110735.17599999995,
      "d": 96.50724999999511,
      "v": 55
    },
    {
      "midi": 42,
      "hit": false,
      "t": 110955.76399999994,
      "d": 64.33816666666826,
      "v": 31
    },
    {
      "midi": 42,
      "hit": false,
      "t": 111176.35199999994,
      "d": 225.18358333333163,
      "v": 62
    },
    {
      "midi": 59,
      "hit": false,
      "t": 111176.35199999994,
      "d": 454.9627499999915,
      "v": 66
    },
    {
      "midi": 64,
      "hit": false,
      "t": 111176.35199999994,
      "d": 468.7494999999908,
      "v": 67
    },
    {
      "midi": 56,
      "hit": false,
      "t": 111176.35199999994,
      "d": 482.5362499999901,
      "v": 63
    },
    {
      "midi": 42,
      "hit": false,
      "t": 111617.52799999993,
      "d": 528.4920833333454,
      "v": 52
    },
    {
      "midi": 56,
      "hit": false,
      "t": 111838.11599999994,
      "d": 119.48516666666546,
      "v": 40
    },
    {
      "midi": 56,
      "hit": false,
      "t": 112058.70399999994,
      "d": 220.58800000000338,
      "v": 35
    },
    {
      "midi": 64,
      "hit": false,
      "t": 112058.70399999994,
      "d": 418.1980833333364,
      "v": 66
    },
    {
      "midi": 59,
      "hit": false,
      "t": 112058.70399999994,
      "d": 422.79366666666465,
      "v": 58
    },
    {
      "midi": 42,
      "hit": false,
      "t": 112499.87999999993,
      "d": 82.72049999999581,
      "v": 35
    },
    {
      "midi": 56,
      "hit": false,
      "t": 112499.87999999993,
      "d": 82.72049999999581,
      "v": 43
    },
    {
      "midi": 42,
      "hit": false,
      "t": 112720.46799999992,
      "d": 45.955833333326154,
      "v": 20
    },
    {
      "midi": 42,
      "hit": false,
      "t": 112941.05599999991,
      "d": 137.86749999999302,
      "v": 63
    },
    {
      "midi": 54,
      "hit": false,
      "t": 112941.05599999991,
      "d": 294.11733333332813,
      "v": 43
    },
    {
      "midi": 61,
      "hit": false,
      "t": 112941.05599999991,
      "d": 294.11733333332813,
      "v": 55
    },
    {
      "midi": 57,
      "hit": false,
      "t": 112941.05599999991,
      "d": 312.4996666666557,
      "v": 60
    },
    {
      "midi": 42,
      "hit": false,
      "t": 113161.6439999999,
      "d": 693.9330833333224,
      "v": 57
    },
    {
      "midi": 54,
      "hit": false,
      "t": 113382.2319999999,
      "d": 110.29399999999441,
      "v": 51
    },
    {
      "midi": 57,
      "hit": false,
      "t": 113602.81999999989,
      "d": 128.67633333333652,
      "v": 42
    },
    {
      "midi": 54,
      "hit": false,
      "t": 113823.4079999999,
      "d": 225.18358333331707,
      "v": 76
    },
    {
      "midi": 61,
      "hit": false,
      "t": 113823.4079999999,
      "d": 271.1394166666432,
      "v": 62
    },
    {
      "midi": 42,
      "hit": false,
      "t": 114043.99599999988,
      "d": 326.286416666655,
      "v": 71
    },
    {
      "midi": 54,
      "hit": false,
      "t": 114264.58399999987,
      "d": 105.69841666666616,
      "v": 52
    },
    {
      "midi": 50,
      "hit": false,
      "t": 114705.75999999988,
      "d": 252.75708333333023,
      "v": 53
    },
    {
      "midi": 62,
      "hit": false,
      "t": 114705.75999999988,
      "d": 390.62458333332324,
      "v": 67
    },
    {
      "midi": 66,
      "hit": false,
      "t": 114705.75999999988,
      "d": 413.6024999999936,
      "v": 58
    },
    {
      "midi": 57,
      "hit": false,
      "t": 114705.75999999988,
      "d": 473.34508333331905,
      "v": 71
    },
    {
      "midi": 38,
      "hit": false,
      "t": 114705.75999999988,
      "d": 1066.1753333333181,
      "v": 68
    },
    {
      "midi": 50,
      "hit": false,
      "t": 115146.93599999987,
      "d": 533.0876666666591,
      "v": 53
    },
    {
      "midi": 57,
      "hit": false,
      "t": 115367.52399999986,
      "d": 105.69841666666616,
      "v": 20
    },
    {
      "midi": 57,
      "hit": false,
      "t": 115588.11199999986,
      "d": 427.38925000000745,
      "v": 67
    },
    {
      "midi": 62,
      "hit": false,
      "t": 115588.11199999986,
      "d": 441.17600000000675,
      "v": 63
    },
    {
      "midi": 66,
      "hit": false,
      "t": 115588.11199999986,
      "d": 445.771583333335,
      "v": 51
    },
    {
      "midi": 50,
      "hit": false,
      "t": 116029.28799999987,
      "d": 335.47758333332604,
      "v": 52
    },
    {
      "midi": 38,
      "hit": false,
      "t": 116249.87599999986,
      "d": 1557.9027500000084,
      "v": 45
    },
    {
      "midi": 50,
      "hit": false,
      "t": 116470.46399999986,
      "d": 206.80124999998952,
      "v": 50
    },
    {
      "midi": 64,
      "hit": false,
      "t": 116470.46399999986,
      "d": 436.58041666666395,
      "v": 64
    },
    {
      "midi": 68,
      "hit": false,
      "t": 116470.46399999986,
      "d": 514.7053333333315,
      "v": 63
    },
    {
      "midi": 57,
      "hit": false,
      "t": 116911.63999999985,
      "d": 137.86750000000757,
      "v": 33
    },
    {
      "midi": 50,
      "hit": false,
      "t": 116911.63999999985,
      "d": 519.3009166666743,
      "v": 55
    },
    {
      "midi": 68,
      "hit": false,
      "t": 117352.81599999986,
      "d": 404.4113333333371,
      "v": 56
    },
    {
      "midi": 64,
      "hit": false,
      "t": 117352.81599999986,
      "d": 413.60250000000815,
      "v": 64
    },
    {
      "midi": 57,
      "hit": false,
      "t": 117352.81599999986,
      "d": 422.7936666666792,
      "v": 66
    },
    {
      "midi": 50,
      "hit": false,
      "t": 117793.99199999987,
      "d": 307.904083333342,
      "v": 58
    },
    {
      "midi": 57,
      "hit": false,
      "t": 118014.57999999987,
      "d": 105.69841666666616,
      "v": 21
    },
    {
      "midi": 57,
      "hit": false,
      "t": 118235.16799999987,
      "d": 399.8157499999943,
      "v": 64
    },
    {
      "midi": 62,
      "hit": false,
      "t": 118235.16799999987,
      "d": 473.34508333331905,
      "v": 62
    },
    {
      "midi": 66,
      "hit": false,
      "t": 118235.16799999987,
      "d": 519.3009166666452,
      "v": 53
    },
    {
      "midi": 38,
      "hit": false,
      "t": 118235.16799999987,
      "d": 1148.895833333314,
      "v": 64
    },
    {
      "midi": 50,
      "hit": false,
      "t": 118676.34399999987,
      "d": 519.3009166666598,
      "v": 53
    },
    {
      "midi": 57,
      "hit": false,
      "t": 118896.93199999986,
      "d": 114.88958333333721,
      "v": 55
    },
    {
      "midi": 62,
      "hit": false,
      "t": 119117.51999999986,
      "d": 238.97033333333093,
      "v": 67
    },
    {
      "midi": 66,
      "hit": false,
      "t": 119117.51999999986,
      "d": 275.7350000000006,
      "v": 71
    },
    {
      "midi": 50,
      "hit": false,
      "t": 119338.10799999986,
      "d": 307.904083333342,
      "v": 69
    },
    {
      "midi": 57,
      "hit": false,
      "t": 119558.69599999987,
      "d": 110.29400000000896,
      "v": 68
    },
    {
      "midi": 57,
      "hit": false,
      "t": 119779.28399999987,
      "d": 119.48516666666546,
      "v": 28
    },
    {
      "midi": 45,
      "hit": false,
      "t": 119999.87199999986,
      "d": 284.92616666667163,
      "v": 67
    },
    {
      "midi": 64,
      "hit": false,
      "t": 119999.87199999986,
      "d": 409.00691666666535,
      "v": 64
    },
    {
      "midi": 57,
      "hit": false,
      "t": 119999.87199999986,
      "d": 427.3892499999929,
      "v": 66
    },
    {
      "midi": 61,
      "hit": false,
      "t": 119999.87199999986,
      "d": 427.3892499999929,
      "v": 63
    },
    {
      "midi": 45,
      "hit": false,
      "t": 120441.04799999985,
      "d": 523.8965000000026,
      "v": 55
    },
    {
      "midi": 57,
      "hit": false,
      "t": 120661.63599999985,
      "d": 78.12491666666756,
      "v": 28
    },
    {
      "midi": 57,
      "hit": false,
      "t": 120882.22399999986,
      "d": 473.34508333331905,
      "v": 58
    },
    {
      "midi": 64,
      "hit": false,
      "t": 120882.22399999986,
      "d": 482.5362499999901,
      "v": 63
    },
    {
      "midi": 61,
      "hit": false,
      "t": 120882.22399999986,
      "d": 496.3229999999894,
      "v": 58
    },
    {
      "midi": 45,
      "hit": false,
      "t": 121323.39999999985,
      "d": 114.88958333333721,
      "v": 57
    },
    {
      "midi": 45,
      "hit": false,
      "t": 121543.98799999985,
      "d": 96.50724999999511,
      "v": 36
    },
    {
      "midi": 45,
      "hit": false,
      "t": 121764.57599999986,
      "d": 183.82333333333372,
      "v": 57
    },
    {
      "midi": 59,
      "hit": false,
      "t": 121764.57599999986,
      "d": 468.74950000000536,
      "v": 64
    },
    {
      "midi": 56,
      "hit": false,
      "t": 121764.57599999986,
      "d": 491.7274166666757,
      "v": 53
    },
    {
      "midi": 64,
      "hit": false,
      "t": 121764.57599999986,
      "d": 491.7274166666757,
      "v": 64
    },
    {
      "midi": 45,
      "hit": false,
      "t": 122205.75199999986,
      "d": 523.8965000000026,
      "v": 57
    },
    {
      "midi": 59,
      "hit": false,
      "t": 122646.92799999987,
      "d": 363.05108333332464,
      "v": 62
    },
    {
      "midi": 56,
      "hit": false,
      "t": 122646.92799999987,
      "d": 372.2422499999957,
      "v": 51
    },
    {
      "midi": 64,
      "hit": false,
      "t": 122646.92799999987,
      "d": 376.83783333332394,
      "v": 62
    },
    {
      "midi": 45,
      "hit": false,
      "t": 123088.10399999986,
      "d": 114.88958333333721,
      "v": 50
    },
    {
      "midi": 45,
      "hit": false,
      "t": 123529.27999999987,
      "d": 229.77916666667443,
      "v": 68
    },
    {
      "midi": 57,
      "hit": false,
      "t": 123529.27999999987,
      "d": 487.1318333333329,
      "v": 69
    },
    {
      "midi": 64,
      "hit": false,
      "t": 123529.27999999987,
      "d": 491.72741666666116,
      "v": 68
    },
    {
      "midi": 61,
      "hit": false,
      "t": 123529.27999999987,
      "d": 505.51416666666046,
      "v": 69
    },
    {
      "midi": 45,
      "hit": false,
      "t": 123970.45599999987,
      "d": 133.2719166666502,
      "v": 47
    },
    {
      "midi": 45,
      "hit": false,
      "t": 124191.04399999986,
      "d": 96.50724999999511,
      "v": 22
    },
    {
      "midi": 57,
      "hit": false,
      "t": 124191.04399999986,
      "d": 101.10283333332336,
      "v": 46
    },
    {
      "midi": 57,
      "hit": false,
      "t": 124411.63199999985,
      "d": 243.56591666667373,
      "v": 79
    },
    {
      "midi": 61,
      "hit": false,
      "t": 124411.63199999985,
      "d": 284.92616666667163,
      "v": 87
    },
    {
      "midi": 64,
      "hit": false,
      "t": 124411.63199999985,
      "d": 284.92616666667163,
      "v": 71
    },
    {
      "midi": 45,
      "hit": false,
      "t": 124632.21999999986,
      "d": 137.86750000000757,
      "v": 62
    },
    {
      "midi": 45,
      "hit": false,
      "t": 124852.80799999986,
      "d": 96.50724999999511,
      "v": 69
    },
    {
      "midi": 52,
      "hit": false,
      "t": 125293.98399999985,
      "d": 303.30849999998463,
      "v": 91
    },
    {
      "midi": 59,
      "hit": false,
      "t": 125293.98399999985,
      "d": 487.1318333333038,
      "v": 99
    },
    {
      "midi": 64,
      "hit": false,
      "t": 125293.98399999985,
      "d": 496.32299999997485,
      "v": 84
    },
    {
      "midi": 68,
      "hit": false,
      "t": 125293.98399999985,
      "d": 546.8744166666438,
      "v": 76
    },
    {
      "midi": 40,
      "hit": false,
      "t": 125293.98399999985,
      "d": 1286.7633333333215,
      "v": 87
    },
    {
      "midi": 52,
      "hit": false,
      "t": 125735.15999999983,
      "d": 519.3009166666743,
      "v": 63
    },
    {
      "midi": 59,
      "hit": false,
      "t": 125955.74799999983,
      "d": 114.88958333333721,
      "v": 48
    },
    {
      "midi": 64,
      "hit": false,
      "t": 126176.33599999984,
      "d": 427.38925000000745,
      "v": 79
    },
    {
      "midi": 59,
      "hit": false,
      "t": 126176.33599999984,
      "d": 441.17600000000675,
      "v": 76
    },
    {
      "midi": 68,
      "hit": false,
      "t": 126176.33599999984,
      "d": 445.771583333335,
      "v": 71
    },
    {
      "midi": 52,
      "hit": false,
      "t": 126617.51199999984,
      "d": 202.20566666666127,
      "v": 71
    },
    {
      "midi": 59,
      "hit": false,
      "t": 126838.09999999983,
      "d": 110.29399999999441,
      "v": 52
    },
    {
      "midi": 40,
      "hit": false,
      "t": 126838.09999999983,
      "d": 2559.7399166666146,
      "v": 61
    },
    {
      "midi": 52,
      "hit": false,
      "t": 127058.68799999982,
      "d": 119.48516666666546,
      "v": 64
    },
    {
      "midi": 59,
      "hit": false,
      "t": 127058.68799999982,
      "d": 468.7494999999908,
      "v": 82
    },
    {
      "midi": 66,
      "hit": false,
      "t": 127058.68799999982,
      "d": 473.34508333331905,
      "v": 82
    },
    {
      "midi": 69,
      "hit": false,
      "t": 127058.68799999982,
      "d": 500.91858333331766,
      "v": 73
    },
    {
      "midi": 52,
      "hit": false,
      "t": 127499.86399999981,
      "d": 537.6832499999873,
      "v": 66
    },
    {
      "midi": 59,
      "hit": false,
      "t": 127720.4519999998,
      "d": 91.91166666666686,
      "v": 57
    },
    {
      "midi": 59,
      "hit": false,
      "t": 127941.0399999998,
      "d": 390.62458333332324,
      "v": 84
    },
    {
      "midi": 69,
      "hit": false,
      "t": 127941.0399999998,
      "d": 395.2201666666515,
      "v": 67
    },
    {
      "midi": 66,
      "hit": false,
      "t": 127941.0399999998,
      "d": 413.60249999997905,
      "v": 79
    },
    {
      "midi": 52,
      "hit": false,
      "t": 128382.21599999978,
      "d": 537.6832500000019,
      "v": 57
    },
    {
      "midi": 59,
      "hit": false,
      "t": 128602.80399999979,
      "d": 87.31608333333861,
      "v": 35
    },
    {
      "midi": 64,
      "hit": false,
      "t": 128823.39199999979,
      "d": 376.83783333332394,
      "v": 71
    },
    {
      "midi": 68,
      "hit": false,
      "t": 128823.39199999979,
      "d": 399.8157499999943,
      "v": 67
    },
    {
      "midi": 59,
      "hit": false,
      "t": 128823.39199999979,
      "d": 409.00691666666535,
      "v": 76
    },
    {
      "midi": 52,
      "hit": false,
      "t": 129264.56799999978,
      "d": 110.29399999999441,
      "v": 56
    },
    {
      "midi": 57,
      "hit": false,
      "t": 129705.74399999977,
      "d": 381.43341666666674,
      "v": 87
    },
    {
      "midi": 62,
      "hit": false,
      "t": 129705.74399999977,
      "d": 441.17600000000675,
      "v": 76
    },
    {
      "midi": 66,
      "hit": false,
      "t": 129705.74399999977,
      "d": 477.9406666666764,
      "v": 67
    },
    {
      "midi": 50,
      "hit": false,
      "t": 129705.74399999977,
      "d": 487.13183333334746,
      "v": 76
    },
    {
      "midi": 38,
      "hit": false,
      "t": 129705.74399999977,
      "d": 634.1905000000115,
      "v": 79
    },
    {
      "midi": 45,
      "hit": false,
      "t": 130588.09599999979,
      "d": 284.92616666667163,
      "v": 73
    },
    {
      "midi": 57,
      "hit": false,
      "t": 130588.09599999979,
      "d": 468.74950000000536,
      "v": 67
    },
    {
      "midi": 64,
      "hit": false,
      "t": 130588.09599999979,
      "d": 473.3450833333336,
      "v": 66
    },
    {
      "midi": 61,
      "hit": false,
      "t": 130588.09599999979,
      "d": 482.53625000000466,
      "v": 73
    },
    {
      "midi": 45,
      "hit": false,
      "t": 131029.2719999998,
      "d": 464.15391666666255,
      "v": 46
    },
    {
      "midi": 57,
      "hit": false,
      "t": 131249.85999999978,
      "d": 73.52933333333931,
      "v": 36
    },
    {
      "midi": 57,
      "hit": false,
      "t": 131470.4479999998,
      "d": 491.72741666663205,
      "v": 52
    },
    {
      "midi": 64,
      "hit": false,
      "t": 131470.4479999998,
      "d": 505.51416666663135,
      "v": 61
    },
    {
      "midi": 61,
      "hit": false,
      "t": 131470.4479999998,
      "d": 514.7053333332879,
      "v": 50
    },
    {
      "midi": 45,
      "hit": false,
      "t": 131911.62399999978,
      "d": 142.4630833333067,
      "v": 48
    },
    {
      "midi": 52,
      "hit": false,
      "t": 132352.79999999976,
      "d": 3377.7537500000035,
      "v": 66
    },
    {
      "midi": 59,
      "hit": false,
      "t": 132352.79999999976,
      "d": 3400.7316666666593,
      "v": 73
    },
    {
      "midi": 64,
      "hit": false,
      "t": 132352.79999999976,
      "d": 3409.922833333316,
      "v": 71
    },
    {
      "midi": 56,
      "hit": false,
      "t": 132352.79999999976,
      "d": 3419.1139999999723,
      "v": 71
    },
    {
      "midi": 40,
      "hit": false,
      "t": 132352.79999999976,
      "d": 3423.709583333315,
      "v": 67
    },
    {
      "midi": 57,
      "hit": false,
      "t": 135882.20799999975,
      "d": 317.09524999998393,
      "v": 67
    },
    {
      "midi": 61,
      "hit": false,
      "t": 135882.20799999975,
      "d": 363.05108333332464,
      "v": 79
    },
    {
      "midi": 62,
      "hit": false,
      "t": 136102.79599999974,
      "d": 188.41891666667652,
      "v": 5
    },
    {
      "midi": 57,
      "hit": false,
      "t": 136323.38399999976,
      "d": 64.3381666666537,
      "v": 42
    },
    {
      "midi": 57,
      "hit": false,
      "t": 136764.55999999974,
      "d": 234.37474999998813,
      "v": 79
    },
    {
      "midi": 61,
      "hit": false,
      "t": 136764.55999999974,
      "d": 464.15391666663345,
      "v": 91
    },
    {
      "midi": 57,
      "hit": false,
      "t": 137205.7359999997,
      "d": 73.5293333333102,
      "v": 53
    },
    {
      "midi": 57,
      "hit": false,
      "t": 137646.9119999997,
      "d": 330.88200000001234,
      "v": 95
    },
    {
      "midi": 62,
      "hit": false,
      "t": 137646.9119999997,
      "d": 464.15391666666255,
      "v": 87
    },
    {
      "midi": 57,
      "hit": false,
      "t": 138088.0879999997,
      "d": 105.69841666665161,
      "v": 62
    },
    {
      "midi": 57,
      "hit": false,
      "t": 138529.26399999968,
      "d": 280.33058333332883,
      "v": 82
    },
    {
      "midi": 64,
      "hit": false,
      "t": 138529.26399999968,
      "d": 500.91858333334676,
      "v": 95
    },
    {
      "midi": 57,
      "hit": false,
      "t": 138970.43999999968,
      "d": 133.27191666667932,
      "v": 62
    },
    {
      "midi": 56,
      "hit": false,
      "t": 139411.6159999997,
      "d": 312.49966666667024,
      "v": 87
    },
    {
      "midi": 64,
      "hit": false,
      "t": 139411.6159999997,
      "d": 358.45550000001094,
      "v": 82
    },
    {
      "midi": 56,
      "hit": false,
      "t": 139852.7919999997,
      "d": 45.955833333340706,
      "v": 27
    },
    {
      "midi": 56,
      "hit": false,
      "t": 140293.9679999997,
      "d": 261.94824999998673,
      "v": 87
    },
    {
      "midi": 64,
      "hit": false,
      "t": 140293.9679999997,
      "d": 363.05108333332464,
      "v": 87
    },
    {
      "midi": 56,
      "hit": false,
      "t": 140735.14399999968,
      "d": 64.3381666666537,
      "v": 55
    },
    {
      "midi": 57,
      "hit": false,
      "t": 141176.31999999966,
      "d": 376.83783333332394,
      "v": 91
    },
    {
      "midi": 64,
      "hit": false,
      "t": 141176.31999999966,
      "d": 491.72741666663205,
      "v": 87
    },
    {
      "midi": 57,
      "hit": false,
      "t": 141617.49599999964,
      "d": 82.72049999999581,
      "v": 36
    },
    {
      "midi": 59,
      "hit": false,
      "t": 142058.67199999964,
      "d": 496.32300000000396,
      "v": 87
    },
    {
      "midi": 64,
      "hit": false,
      "t": 142058.67199999964,
      "d": 514.7053333333461,
      "v": 84
    },
    {
      "midi": 57,
      "hit": false,
      "t": 142941.02399999966,
      "d": 317.09525000001304,
      "v": 79
    },
    {
      "midi": 61,
      "hit": false,
      "t": 142941.02399999966,
      "d": 431.98483333335025,
      "v": 87
    },
    {
      "midi": 57,
      "hit": false,
      "t": 143382.19999999966,
      "d": 59.74258333334001,
      "v": 46
    },
    {
      "midi": 57,
      "hit": false,
      "t": 143823.37599999967,
      "d": 252.75708333333023,
      "v": 84
    },
    {
      "midi": 61,
      "hit": false,
      "t": 143823.37599999967,
      "d": 482.53625000000466,
      "v": 87
    },
    {
      "midi": 57,
      "hit": false,
      "t": 144264.55199999968,
      "d": 68.93374999999651,
      "v": 57
    },
    {
      "midi": 57,
      "hit": false,
      "t": 144705.72799999968,
      "d": 298.71291666667094,
      "v": 87
    },
    {
      "midi": 62,
      "hit": false,
      "t": 144705.72799999968,
      "d": 477.94066666666185,
      "v": 99
    },
    {
      "midi": 57,
      "hit": false,
      "t": 145146.9039999997,
      "d": 87.3160833333095,
      "v": 55
    },
    {
      "midi": 69,
      "hit": false,
      "t": 146286.60866666632,
      "d": 5404.405999999988,
      "v": 73
    },
    {
      "midi": 64,
      "hit": false,
      "t": 146337.16008333297,
      "d": 5340.067833333334,
      "v": 74
    },
    {
      "midi": 40,
      "hit": false,
      "t": 146410.6894166663,
      "d": 5229.773833333311,
      "v": 70
    },
    {
      "midi": 62,
      "hit": false,
      "t": 146410.6894166663,
      "d": 5238.9649999999965,
      "v": 63
    },
    {
      "midi": 57,
      "hit": false,
      "t": 146461.24083333297,
      "d": 5183.817999999999,
      "v": 83
    },
    {
      "midi": 52,
      "hit": false,
      "t": 146465.8364166663,
      "d": 5165.435666666657,
      "v": 73
    },
    {
      "midi": 52,
      "hit": false,
      "t": 151764.54399999965,
      "d": 367.64666666666744,
      "v": 76
    },
    {
      "midi": 57,
      "hit": false,
      "t": 151764.54399999965,
      "d": 551.4700000000012,
      "v": 84
    },
    {
      "midi": 61,
      "hit": false,
      "t": 151764.54399999965,
      "d": 551.4700000000012,
      "v": 82
    },
    {
      "midi": 52,
      "hit": false,
      "t": 152205.71999999965,
      "d": 202.20566666664672,
      "v": 35
    },
    {
      "midi": 61,
      "hit": false,
      "t": 152646.89599999963,
      "d": 418.19808333332185,
      "v": 73
    },
    {
      "midi": 57,
      "hit": false,
      "t": 152646.89599999963,
      "d": 445.77158333332045,
      "v": 73
    },
    {
      "midi": 52,
      "hit": false,
      "t": 153088.0719999996,
      "d": 188.41891666667652,
      "v": 64
    },
    {
      "midi": 62,
      "hit": false,
      "t": 153529.2479999996,
      "d": 445.77158333332045,
      "v": 82
    },
    {
      "midi": 57,
      "hit": false,
      "t": 153529.2479999996,
      "d": 510.10974999997416,
      "v": 87
    },
    {
      "midi": 52,
      "hit": false,
      "t": 153970.4239999996,
      "d": 174.63216666667722,
      "v": 64
    },
    {
      "midi": 57,
      "hit": false,
      "t": 154191.0119999996,
      "d": 45.955833333340706,
      "v": 25
    },
    {
      "midi": 57,
      "hit": false,
      "t": 154411.59999999963,
      "d": 386.02900000000955,
      "v": 82
    },
    {
      "midi": 64,
      "hit": false,
      "t": 154411.59999999963,
      "d": 386.02900000000955,
      "v": 87
    },
    {
      "midi": 52,
      "hit": false,
      "t": 154852.77599999963,
      "d": 87.31608333333861,
      "v": 53
    },
    {
      "midi": 52,
      "hit": false,
      "t": 155293.95199999964,
      "d": 363.05108333332464,
      "v": 73
    },
    {
      "midi": 56,
      "hit": false,
      "t": 155293.95199999964,
      "d": 459.55833333331975,
      "v": 79
    },
    {
      "midi": 59,
      "hit": false,
      "t": 155293.95199999964,
      "d": 482.53624999997555,
      "v": 84
    },
    {
      "midi": 52,
      "hit": false,
      "t": 155735.12799999962,
      "d": 151.65424999999232,
      "v": 35
    },
    {
      "midi": 59,
      "hit": false,
      "t": 156176.30399999963,
      "d": 431.98483333332115,
      "v": 68
    },
    {
      "midi": 56,
      "hit": false,
      "t": 156176.30399999963,
      "d": 454.96274999997695,
      "v": 62
    },
    {
      "midi": 52,
      "hit": false,
      "t": 156617.4799999996,
      "d": 73.52933333333931,
      "v": 45
    },
    {
      "midi": 52,
      "hit": false,
      "t": 157058.6559999996,
      "d": 307.90408333332743,
      "v": 91
    },
    {
      "midi": 57,
      "hit": false,
      "t": 157058.6559999996,
      "d": 468.74950000000536,
      "v": 95
    },
    {
      "midi": 52,
      "hit": false,
      "t": 157499.83199999962,
      "d": 105.69841666665161,
      "v": 56
    },
    {
      "midi": 52,
      "hit": false,
      "t": 157941.0079999996,
      "d": 220.58799999998882,
      "v": 71
    },
    {
      "midi": 59,
      "hit": false,
      "t": 157941.0079999996,
      "d": 298.71291666664183,
      "v": 87
    },
    {
      "midi": 54,
      "hit": false,
      "t": 158823.35999999958,
      "d": 317.09524999998393,
      "v": 67
    },
    {
      "midi": 57,
      "hit": false,
      "t": 158823.35999999958,
      "d": 445.77158333332045,
      "v": 71
    },
    {
      "midi": 61,
      "hit": false,
      "t": 158823.35999999958,
      "d": 454.96274999997695,
      "v": 87
    },
    {
      "midi": 54,
      "hit": false,
      "t": 159264.53599999956,
      "d": 160.84541666667792,
      "v": 29
    },
    {
      "midi": 61,
      "hit": false,
      "t": 159705.71199999956,
      "d": 431.98483333332115,
      "v": 69
    },
    {
      "midi": 57,
      "hit": false,
      "t": 159705.71199999956,
      "d": 450.36716666663415,
      "v": 69
    },
    {
      "midi": 54,
      "hit": false,
      "t": 160146.88799999954,
      "d": 151.65424999999232,
      "v": 55
    },
    {
      "midi": 54,
      "hit": false,
      "t": 160588.06399999955,
      "d": 298.71291666667094,
      "v": 82
    },
    {
      "midi": 62,
      "hit": false,
      "t": 160588.06399999955,
      "d": 427.38924999997835,
      "v": 84
    },
    {
      "midi": 57,
      "hit": false,
      "t": 160588.06399999955,
      "d": 464.15391666663345,
      "v": 99
    },
    {
      "midi": 54,
      "hit": false,
      "t": 161029.23999999953,
      "d": 165.44099999999162,
      "v": 53
    },
    {
      "midi": 54,
      "hit": false,
      "t": 161470.4159999995,
      "d": 307.90408333332743,
      "v": 73
    },
    {
      "midi": 57,
      "hit": false,
      "t": 161470.4159999995,
      "d": 436.58041666666395,
      "v": 79
    },
    {
      "midi": 64,
      "hit": false,
      "t": 161470.4159999995,
      "d": 445.77158333334955,
      "v": 91
    },
    {
      "midi": 54,
      "hit": false,
      "t": 161911.5919999995,
      "d": 68.93374999999651,
      "v": 43
    },
    {
      "midi": 52,
      "hit": false,
      "t": 162352.76799999952,
      "d": 298.71291666667094,
      "v": 69
    },
    {
      "midi": 56,
      "hit": false,
      "t": 162352.76799999952,
      "d": 395.22016666666605,
      "v": 73
    },
    {
      "midi": 61,
      "hit": false,
      "t": 162352.76799999952,
      "d": 409.00691666666535,
      "v": 79
    },
    {
      "midi": 52,
      "hit": false,
      "t": 162793.94399999952,
      "d": 128.67633333333652,
      "v": 48
    },
    {
      "midi": 56,
      "hit": false,
      "t": 163235.11999999953,
      "d": 353.85991666666814,
      "v": 79
    },
    {
      "midi": 61,
      "hit": false,
      "t": 163235.11999999953,
      "d": 418.19808333332185,
      "v": 79
    },
    {
      "midi": 54,
      "hit": false,
      "t": 164117.4719999995,
      "d": 294.11733333335724,
      "v": 63
    },
    {
      "midi": 57,
      "hit": false,
      "t": 164117.4719999995,
      "d": 454.96275000000605,
      "v": 71
    },
    {
      "midi": 62,
      "hit": false,
      "t": 164117.4719999995,
      "d": 454.96275000000605,
      "v": 68
    },
    {
      "midi": 54,
      "hit": false,
      "t": 164558.64799999952,
      "d": 147.05866666667862,
      "v": 38
    },
    {
      "midi": 57,
      "hit": false,
      "t": 164999.82399999953,
      "d": 431.98483333332115,
      "v": 66
    },
    {
      "midi": 62,
      "hit": false,
      "t": 164999.82399999953,
      "d": 454.96274999997695,
      "v": 66
    },
    {
      "midi": 62,
      "hit": false,
      "t": 165661.5879999995,
      "d": 82.72049999999581,
      "v": 73
    },
    {
      "midi": 52,
      "hit": false,
      "t": 165882.17599999948,
      "d": 330.88200000001234,
      "v": 67
    },
    {
      "midi": 61,
      "hit": false,
      "t": 165882.17599999948,
      "d": 477.94066666666185,
      "v": 76
    },
    {
      "midi": 57,
      "hit": false,
      "t": 165882.17599999948,
      "d": 487.13183333331835,
      "v": 68
    },
    {
      "midi": 52,
      "hit": false,
      "t": 166323.3519999995,
      "d": 170.03658333330532,
      "v": 45
    },
    {
      "midi": 57,
      "hit": false,
      "t": 166764.52799999947,
      "d": 413.60250000000815,
      "v": 76
    },
    {
      "midi": 61,
      "hit": false,
      "t": 166764.52799999947,
      "d": 413.60250000000815,
      "v": 82
    },
    {
      "midi": 52,
      "hit": false,
      "t": 167205.70399999947,
      "d": 151.65424999999232,
      "v": 43
    },
    {
      "midi": 57,
      "hit": false,
      "t": 167646.87999999948,
      "d": 344.66875000001164,
      "v": 68
    },
    {
      "midi": 61,
      "hit": false,
      "t": 167646.87999999948,
      "d": 413.60250000000815,
      "v": 82
    },
    {
      "midi": 52,
      "hit": false,
      "t": 168088.0559999995,
      "d": 229.77916666667443,
      "v": 55
    },
    {
      "midi": 57,
      "hit": false,
      "t": 168529.2319999995,
      "d": 409.00691666666535,
      "v": 76
    },
    {
      "midi": 64,
      "hit": false,
      "t": 168529.2319999995,
      "d": 427.38925000000745,
      "v": 82
    },
    {
      "midi": 52,
      "hit": false,
      "t": 168970.4079999995,
      "d": 96.50724999999511,
      "v": 55
    },
    {
      "midi": 52,
      "hit": false,
      "t": 169411.5839999995,
      "d": 340.07316666663974,
      "v": 79
    },
    {
      "midi": 56,
      "hit": false,
      "t": 169411.5839999995,
      "d": 441.17599999997765,
      "v": 82
    },
    {
      "midi": 59,
      "hit": false,
      "t": 169411.5839999995,
      "d": 459.55833333331975,
      "v": 84
    },
    {
      "midi": 52,
      "hit": false,
      "t": 169852.75999999949,
      "d": 165.44100000002072,
      "v": 43
    },
    {
      "midi": 56,
      "hit": false,
      "t": 170293.9359999995,
      "d": 386.02900000000955,
      "v": 68
    },
    {
      "midi": 59,
      "hit": false,
      "t": 170293.9359999995,
      "d": 399.81575000000885,
      "v": 67
    },
    {
      "midi": 52,
      "hit": false,
      "t": 170735.1119999995,
      "d": 183.82333333333372,
      "v": 20
    },
    {
      "midi": 56,
      "hit": false,
      "t": 171176.2879999995,
      "d": 340.07316666666884,
      "v": 63
    },
    {
      "midi": 59,
      "hit": false,
      "t": 171176.2879999995,
      "d": 372.24225000001024,
      "v": 66
    },
    {
      "midi": 52,
      "hit": false,
      "t": 171617.4639999995,
      "d": 137.86749999999302,
      "v": 22
    },
    {
      "midi": 56,
      "hit": false,
      "t": 172058.63999999952,
      "d": 381.43341666666674,
      "v": 68
    },
    {
      "midi": 59,
      "hit": false,
      "t": 172058.63999999952,
      "d": 418.19808333332185,
      "v": 82
    },
    {
      "midi": 52,
      "hit": false,
      "t": 172499.8159999995,
      "d": 87.31608333333861,
      "v": 62
    },
    {
      "midi": 52,
      "hit": false,
      "t": 172940.9919999995,
      "d": 340.07316666666884,
      "v": 69
    },
    {
      "midi": 57,
      "hit": false,
      "t": 172940.9919999995,
      "d": 431.98483333332115,
      "v": 69
    },
    {
      "midi": 61,
      "hit": false,
      "t": 172940.9919999995,
      "d": 464.15391666663345,
      "v": 69
    },
    {
      "midi": 52,
      "hit": false,
      "t": 173382.16799999948,
      "d": 188.41891666664742,
      "v": 47
    },
    {
      "midi": 52,
      "hit": false,
      "t": 173823.34399999946,
      "d": 298.71291666667094,
      "v": 53
    },
    {
      "midi": 57,
      "hit": false,
      "t": 173823.34399999946,
      "d": 381.43341666666674,
      "v": 63
    },
    {
      "midi": 61,
      "hit": false,
      "t": 173823.34399999946,
      "d": 431.98483333332115,
      "v": 62
    },
    {
      "midi": 52,
      "hit": false,
      "t": 174264.51999999944,
      "d": 220.58799999998882,
      "v": 45
    },
    {
      "midi": 52,
      "hit": false,
      "t": 174705.6959999994,
      "d": 252.75708333333023,
      "v": 62
    },
    {
      "midi": 57,
      "hit": false,
      "t": 174705.6959999994,
      "d": 326.28641666666954,
      "v": 63
    },
    {
      "midi": 62,
      "hit": false,
      "t": 174705.6959999994,
      "d": 386.02900000000955,
      "v": 67
    },
    {
      "midi": 52,
      "hit": false,
      "t": 175146.87199999942,
      "d": 170.03658333333442,
      "v": 46
    },
    {
      "midi": 52,
      "hit": false,
      "t": 175588.04799999943,
      "d": 211.39683333333232,
      "v": 64
    },
    {
      "midi": 57,
      "hit": false,
      "t": 175588.04799999943,
      "d": 229.77916666667443,
      "v": 69
    },
    {
      "midi": 64,
      "hit": false,
      "t": 175588.04799999943,
      "d": 303.30850000001374,
      "v": 76
    },
    {
      "midi": 56,
      "hit": false,
      "t": 176470.39999999944,
      "d": 372.24225000001024,
      "v": 61
    },
    {
      "midi": 61,
      "hit": false,
      "t": 176470.39999999944,
      "d": 473.34508333334816,
      "v": 62
    },
    {
      "midi": 65,
      "hit": false,
      "t": 176470.39999999944,
      "d": 510.10975000000326,
      "v": 66
    },
    {
      "midi": 56,
      "hit": false,
      "t": 176911.57599999945,
      "d": 234.37474999998813,
      "v": 34
    },
    {
      "midi": 56,
      "hit": false,
      "t": 177352.75199999943,
      "d": 252.75708333333023,
      "v": 61
    },
    {
      "midi": 61,
      "hit": false,
      "t": 177352.75199999943,
      "d": 418.19808333332185,
      "v": 63
    },
    {
      "midi": 65,
      "hit": false,
      "t": 177352.75199999943,
      "d": 418.19808333332185,
      "v": 68
    },
    {
      "midi": 56,
      "hit": false,
      "t": 177793.9279999994,
      "d": 174.63216666667722,
      "v": 47
    },
    {
      "midi": 56,
      "hit": false,
      "t": 178235.1039999994,
      "d": 248.16149999998743,
      "v": 63
    },
    {
      "midi": 61,
      "hit": false,
      "t": 178235.1039999994,
      "d": 340.07316666663974,
      "v": 71
    },
    {
      "midi": 66,
      "hit": false,
      "t": 178235.1039999994,
      "d": 381.43341666663764,
      "v": 66
    },
    {
      "midi": 56,
      "hit": false,
      "t": 178676.2799999994,
      "d": 124.08074999999371,
      "v": 55
    },
    {
      "midi": 56,
      "hit": false,
      "t": 179117.4559999994,
      "d": 261.94824999998673,
      "v": 63
    },
    {
      "midi": 61,
      "hit": false,
      "t": 179117.4559999994,
      "d": 363.05108333332464,
      "v": 69
    },
    {
      "midi": 68,
      "hit": false,
      "t": 179117.4559999994,
      "d": 418.19808333332185,
      "v": 68
    },
    {
      "midi": 56,
      "hit": false,
      "t": 179558.63199999937,
      "d": 59.74258333334001,
      "v": 64
    },
    {
      "midi": 57,
      "hit": false,
      "t": 179999.80799999938,
      "d": 294.11733333332813,
      "v": 68
    },
    {
      "midi": 61,
      "hit": false,
      "t": 179999.80799999938,
      "d": 376.83783333332394,
      "v": 71
    },
    {
      "midi": 66,
      "hit": false,
      "t": 179999.80799999938,
      "d": 413.60249999997905,
      "v": 64
    },
    {
      "midi": 57,
      "hit": false,
      "t": 180440.98399999936,
      "d": 151.65424999999232,
      "v": 55
    },
    {
      "midi": 61,
      "hit": false,
      "t": 180882.15999999936,
      "d": 395.22016666666605,
      "v": 87
    },
    {
      "midi": 66,
      "hit": false,
      "t": 180882.15999999936,
      "d": 409.00691666666535,
      "v": 79
    },
    {
      "midi": 57,
      "hit": false,
      "t": 181323.33599999937,
      "d": 193.01449999999022,
      "v": 37
    },
    {
      "midi": 61,
      "hit": false,
      "t": 181764.51199999935,
      "d": 372.24225000001024,
      "v": 66
    },
    {
      "midi": 66,
      "hit": false,
      "t": 181764.51199999935,
      "d": 395.22016666666605,
      "v": 67
    },
    {
      "midi": 57,
      "hit": false,
      "t": 182205.68799999935,
      "d": 238.97033333333093,
      "v": 33
    },
    {
      "midi": 61,
      "hit": false,
      "t": 182646.86399999936,
      "d": 307.90408333332743,
      "v": 79
    },
    {
      "midi": 66,
      "hit": false,
      "t": 182646.86399999936,
      "d": 372.24224999998114,
      "v": 76
    },
    {
      "midi": 57,
      "hit": false,
      "t": 183088.03999999934,
      "d": 151.65424999999232,
      "v": 53
    },
    {
      "midi": 57,
      "hit": false,
      "t": 183529.21599999935,
      "d": 298.71291666667094,
      "v": 69
    },
    {
      "midi": 59,
      "hit": false,
      "t": 183529.21599999935,
      "d": 399.81575000000885,
      "v": 76
    },
    {
      "midi": 65,
      "hit": false,
      "t": 183529.21599999935,
      "d": 431.98483333335025,
      "v": 71
    },
    {
      "midi": 61,
      "hit": false,
      "t": 183529.21599999935,
      "d": 441.17600000000675,
      "v": 71
    },
    {
      "midi": 57,
      "hit": false,
      "t": 183970.39199999935,
      "d": 151.65424999999232,
      "v": 45
    },
    {
      "midi": 59,
      "hit": false,
      "t": 184411.56799999936,
      "d": 326.28641666666954,
      "v": 64
    },
    {
      "midi": 57,
      "hit": false,
      "t": 184411.56799999936,
      "d": 335.47758333332604,
      "v": 63
    },
    {
      "midi": 61,
      "hit": false,
      "t": 184411.56799999936,
      "d": 675.5507499999949,
      "v": 64
    },
    {
      "midi": 65,
      "hit": false,
      "t": 184411.56799999936,
      "d": 698.5286666666507,
      "v": 66
    },
    {
      "midi": 56,
      "hit": false,
      "t": 185293.91999999934,
      "d": 303.30850000001374,
      "v": 56
    },
    {
      "midi": 59,
      "hit": false,
      "t": 185293.91999999934,
      "d": 445.77158333334955,
      "v": 57
    },
    {
      "midi": 61,
      "hit": false,
      "t": 185293.91999999934,
      "d": 473.34508333334816,
      "v": 60
    },
    {
      "midi": 65,
      "hit": false,
      "t": 185293.91999999934,
      "d": 473.34508333334816,
      "v": 63
    },
    {
      "midi": 56,
      "hit": false,
      "t": 185735.09599999935,
      "d": 179.22775000002002,
      "v": 46
    },
    {
      "midi": 56,
      "hit": false,
      "t": 186176.27199999936,
      "d": 261.94824999998673,
      "v": 53
    },
    {
      "midi": 59,
      "hit": false,
      "t": 186176.27199999936,
      "d": 445.77158333332045,
      "v": 58
    },
    {
      "midi": 61,
      "hit": false,
      "t": 186176.27199999936,
      "d": 551.4700000000012,
      "v": 55
    },
    {
      "midi": 65,
      "hit": false,
      "t": 186176.27199999936,
      "d": 588.2346666666854,
      "v": 60
    },
    {
      "midi": 56,
      "hit": false,
      "t": 186617.44799999933,
      "d": 142.46308333336492,
      "v": 41
    },
    {
      "midi": 57,
      "hit": false,
      "t": 187058.62399999937,
      "d": 289.52175000001444,
      "v": 68
    },
    {
      "midi": 64,
      "hit": false,
      "t": 187058.62399999937,
      "d": 413.60250000000815,
      "v": 68
    },
    {
      "midi": 61,
      "hit": false,
      "t": 187058.62399999937,
      "d": 422.79366666666465,
      "v": 73
    },
    {
      "midi": 57,
      "hit": false,
      "t": 187499.79999999938,
      "d": 128.67633333333652,
      "v": 43
    },
    {
      "midi": 57,
      "hit": false,
      "t": 187940.97599999938,
      "d": 215.99241666667513,
      "v": 67
    },
    {
      "midi": 64,
      "hit": false,
      "t": 187940.97599999938,
      "d": 372.24225000001024,
      "v": 71
    },
    {
      "midi": 61,
      "hit": false,
      "t": 187940.97599999938,
      "d": 395.22016666666605,
      "v": 76
    },
    {
      "midi": 57,
      "hit": false,
      "t": 188382.1519999994,
      "d": 257.35266666667303,
      "v": 55
    },
    {
      "midi": 57,
      "hit": false,
      "t": 188823.3279999994,
      "d": 326.28641666666954,
      "v": 79
    },
    {
      "midi": 64,
      "hit": false,
      "t": 188823.3279999994,
      "d": 505.51416666666046,
      "v": 82
    },
    {
      "midi": 61,
      "hit": false,
      "t": 188823.3279999994,
      "d": 519.3009166666598,
      "v": 91
    },
    {
      "midi": 57,
      "hit": false,
      "t": 189264.5039999994,
      "d": 151.65424999999232,
      "v": 35
    },
    {
      "midi": 61,
      "hit": false,
      "t": 189705.6799999994,
      "d": 431.98483333332115,
      "v": 82
    },
    {
      "midi": 64,
      "hit": false,
      "t": 189705.6799999994,
      "d": 464.15391666663345,
      "v": 68
    },
    {
      "midi": 57,
      "hit": false,
      "t": 190146.8559999994,
      "d": 96.50724999999511,
      "v": 57
    },
    {
      "midi": 56,
      "hit": false,
      "t": 190588.0319999994,
      "d": 317.09525000001304,
      "v": 76
    },
    {
      "midi": 64,
      "hit": false,
      "t": 190588.0319999994,
      "d": 441.17600000000675,
      "v": 71
    },
    {
      "midi": 59,
      "hit": false,
      "t": 190588.0319999994,
      "d": 454.96275000000605,
      "v": 82
    },
    {
      "midi": 56,
      "hit": false,
      "t": 191029.2079999994,
      "d": 119.48516666668002,
      "v": 43
    },
    {
      "midi": 56,
      "hit": false,
      "t": 191470.3839999994,
      "d": 271.13941666667233,
      "v": 62
    },
    {
      "midi": 64,
      "hit": false,
      "t": 191470.3839999994,
      "d": 404.41133333335165,
      "v": 69
    },
    {
      "midi": 59,
      "hit": false,
      "t": 191470.3839999994,
      "d": 427.38925000000745,
      "v": 67
    },
    {
      "midi": 56,
      "hit": false,
      "t": 191911.55999999942,
      "d": 179.22774999999092,
      "v": 53
    },
    {
      "midi": 56,
      "hit": false,
      "t": 192352.7359999994,
      "d": 183.82333333333372,
      "v": 64
    },
    {
      "midi": 59,
      "hit": false,
      "t": 192352.7359999994,
      "d": 266.54383333332953,
      "v": 73
    },
    {
      "midi": 64,
      "hit": false,
      "t": 192352.7359999994,
      "d": 298.71291666667094,
      "v": 69
    },
    {
      "midi": 52,
      "hit": false,
      "t": 193235.0879999994,
      "d": 340.07316666666884,
      "v": 84
    },
    {
      "midi": 59,
      "hit": false,
      "t": 193235.0879999994,
      "d": 363.05108333332464,
      "v": 95
    },
    {
      "midi": 61,
      "hit": false,
      "t": 193235.0879999994,
      "d": 363.05108333332464,
      "v": 91
    },
    {
      "midi": 45,
      "hit": false,
      "t": 193235.0879999994,
      "d": 367.64666666666744,
      "v": 76
    },
    {
      "midi": 64,
      "hit": false,
      "t": 193235.0879999994,
      "d": 395.22016666666605,
      "v": 84
    },
    {
      "midi": 57,
      "hit": false,
      "t": 193235.0879999994,
      "d": 776.6535833333328,
      "v": 91
    },
    {
      "midi": 57,
      "hit": false,
      "t": 194117.43999999942,
      "d": 349.26433333332534,
      "v": 79
    },
    {
      "midi": 54,
      "hit": false,
      "t": 194117.43999999942,
      "d": 353.85991666666814,
      "v": 84
    },
    {
      "midi": 49,
      "hit": false,
      "t": 194117.43999999942,
      "d": 367.64666666666744,
      "v": 73
    },
    {
      "midi": 42,
      "hit": false,
      "t": 194117.43999999942,
      "d": 372.24225000001024,
      "v": 69
    },
    {
      "midi": 61,
      "hit": false,
      "t": 194117.43999999942,
      "d": 381.43341666666674,
      "v": 68
    },
    {
      "midi": 57,
      "hit": false,
      "t": 194999.7919999994,
      "d": 174.63216666664812,
      "v": 91
    },
    {
      "midi": 61,
      "hit": false,
      "t": 194999.7919999994,
      "d": 206.80124999998952,
      "v": 91
    },
    {
      "midi": 52,
      "hit": false,
      "t": 194999.7919999994,
      "d": 220.58799999998882,
      "v": 82
    },
    {
      "midi": 45,
      "hit": false,
      "t": 194999.7919999994,
      "d": 225.18358333333163,
      "v": 82
    },
    {
      "midi": 64,
      "hit": false,
      "t": 194999.7919999994,
      "d": 234.37474999998813,
      "v": 76
    },
    {
      "midi": 62,
      "hit": false,
      "t": 195882.1439999994,
      "d": 64.3381666666537,
      "v": 73
    },
    {
      "midi": 66,
      "hit": false,
      "t": 195882.1439999994,
      "d": 87.3160833333095,
      "v": 79
    },
    {
      "midi": 69,
      "hit": false,
      "t": 195882.1439999994,
      "d": 110.29399999996531,
      "v": 66
    },
    {
      "midi": 57,
      "hit": false,
      "t": 195882.1439999994,
      "d": 2261.027000000002,
      "v": 71
    },
    {
      "midi": 50,
      "hit": false,
      "t": 195882.1439999994,
      "d": 2950.364499999996,
      "v": 76
    },
    {
      "midi": 69,
      "hit": false,
      "t": 196323.31999999937,
      "d": 59.74258333334001,
      "v": 82
    },
    {
      "midi": 81,
      "hit": false,
      "t": 196323.31999999937,
      "d": 68.93374999999651,
      "v": 87
    },
    {
      "midi": 80,
      "hit": false,
      "t": 196764.49599999937,
      "d": 68.93374999999651,
      "v": 84
    },
    {
      "midi": 68,
      "hit": false,
      "t": 196764.49599999937,
      "d": 73.52933333333931,
      "v": 79
    },
    {
      "midi": 69,
      "hit": false,
      "t": 197205.67199999938,
      "d": 68.93374999999651,
      "v": 79
    },
    {
      "midi": 81,
      "hit": false,
      "t": 197205.67199999938,
      "d": 73.52933333333931,
      "v": 76
    },
    {
      "midi": 66,
      "hit": false,
      "t": 197426.2599999994,
      "d": 59.74258333334001,
      "v": 68
    },
    {
      "midi": 78,
      "hit": false,
      "t": 197426.2599999994,
      "d": 68.93374999999651,
      "v": 66
    },
    {
      "midi": 69,
      "hit": false,
      "t": 198088.0239999994,
      "d": 73.52933333333931,
      "v": 84
    },
    {
      "midi": 81,
      "hit": false,
      "t": 198088.0239999994,
      "d": 82.72049999999581,
      "v": 84
    },
    {
      "midi": 80,
      "hit": false,
      "t": 198529.1999999994,
      "d": 68.93374999999651,
      "v": 79
    },
    {
      "midi": 68,
      "hit": false,
      "t": 198529.1999999994,
      "d": 73.52933333333931,
      "v": 76
    },
    {
      "midi": 57,
      "hit": false,
      "t": 198529.1999999994,
      "d": 151.65424999999232,
      "v": 9
    },
    {
      "midi": 69,
      "hit": false,
      "t": 198970.37599999938,
      "d": 68.93374999999651,
      "v": 67
    },
    {
      "midi": 81,
      "hit": false,
      "t": 198970.37599999938,
      "d": 68.93374999999651,
      "v": 68
    },
    {
      "midi": 76,
      "hit": false,
      "t": 199190.96399999937,
      "d": 1135.1090833333146,
      "v": 87
    },
    {
      "midi": 64,
      "hit": false,
      "t": 199190.96399999937,
      "d": 1148.895833333314,
      "v": 87
    },
    {
      "midi": 59,
      "hit": false,
      "t": 199411.55199999936,
      "d": 574.447916666657,
      "v": 67
    },
    {
      "midi": 52,
      "hit": false,
      "t": 199411.55199999936,
      "d": 638.7860833333107,
      "v": 69
    },
    {
      "midi": 59,
      "hit": false,
      "t": 200293.90399999934,
      "d": 358.45550000001094,
      "v": 67
    },
    {
      "midi": 59,
      "hit": false,
      "t": 200735.07999999935,
      "d": 179.22774999999092,
      "v": 67
    },
    {
      "midi": 52,
      "hit": false,
      "t": 200735.07999999935,
      "d": 202.20566666664672,
      "v": 79
    },
    {
      "midi": 59,
      "hit": false,
      "t": 201176.25599999932,
      "d": 137.86749999999302,
      "v": 84
    },
    {
      "midi": 52,
      "hit": false,
      "t": 201176.25599999932,
      "d": 165.44099999999162,
      "v": 71
    },
    {
      "midi": 52,
      "hit": false,
      "t": 202940.9599999993,
      "d": 36.7646666666551,
      "v": 53
    },
    {
      "midi": 57,
      "hit": false,
      "t": 202940.9599999993,
      "d": 482.53625000000466,
      "v": 84
    },
    {
      "midi": 61,
      "hit": false,
      "t": 202940.9599999993,
      "d": 482.53625000000466,
      "v": 87
    },
    {
      "midi": 64,
      "hit": false,
      "t": 202940.9599999993,
      "d": 491.72741666666116,
      "v": 79
    },
    {
      "midi": 45,
      "hit": false,
      "t": 202940.9599999993,
      "d": 942.0945833333244,
      "v": 82
    },
    {
      "midi": 52,
      "hit": false,
      "t": 203382.1359999993,
      "d": 514.705333333317,
      "v": 58
    },
    {
      "midi": 57,
      "hit": false,
      "t": 203602.7239999993,
      "d": 91.91166666665231,
      "v": 56
    },
    {
      "midi": 64,
      "hit": false,
      "t": 203823.31199999928,
      "d": 496.32300000000396,
      "v": 76
    },
    {
      "midi": 61,
      "hit": false,
      "t": 203823.31199999928,
      "d": 514.7053333333461,
      "v": 91
    },
    {
      "midi": 57,
      "hit": false,
      "t": 203823.31199999928,
      "d": 523.8965000000026,
      "v": 79
    },
    {
      "midi": 52,
      "hit": false,
      "t": 204264.48799999928,
      "d": 151.65424999999232,
      "v": 79
    },
    {
      "midi": 45,
      "hit": false,
      "t": 204485.07599999927,
      "d": 537.6832500000019,
      "v": 64
    },
    {
      "midi": 57,
      "hit": false,
      "t": 204705.66399999926,
      "d": 514.7053333333461,
      "v": 91
    },
    {
      "midi": 62,
      "hit": false,
      "t": 204705.66399999926,
      "d": 519.3009166666889,
      "v": 82
    },
    {
      "midi": 64,
      "hit": false,
      "t": 204705.66399999926,
      "d": 542.2788333333447,
      "v": 76
    },
    {
      "midi": 52,
      "hit": false,
      "t": 205146.83999999927,
      "d": 119.48516666668002,
      "v": 64
    },
    {
      "midi": 45,
      "hit": false,
      "t": 205367.4279999993,
      "d": 344.66874999998254,
      "v": 58
    },
    {
      "midi": 61,
      "hit": false,
      "t": 205588.01599999928,
      "d": 363.05108333332464,
      "v": 87
    },
    {
      "midi": 57,
      "hit": false,
      "t": 205588.01599999928,
      "d": 404.41133333332255,
      "v": 84
    },
    {
      "midi": 64,
      "hit": false,
      "t": 205588.01599999928,
      "d": 404.41133333332255,
      "v": 73
    },
    {
      "midi": 42,
      "hit": false,
      "t": 206249.77999999927,
      "d": 36.7646666666551,
      "v": 11
    },
    {
      "midi": 42,
      "hit": false,
      "t": 206470.36799999926,
      "d": 344.66875000001164,
      "v": 95
    },
    {
      "midi": 57,
      "hit": false,
      "t": 206470.36799999926,
      "d": 376.83783333335305,
      "v": 82
    },
    {
      "midi": 54,
      "hit": false,
      "t": 206470.36799999926,
      "d": 386.02900000000955,
      "v": 84
    },
    {
      "midi": 61,
      "hit": false,
      "t": 206470.36799999926,
      "d": 418.19808333335095,
      "v": 79
    },
    {
      "midi": 52,
      "hit": false,
      "t": 207352.71999999927,
      "d": 298.71291666667094,
      "v": 82
    },
    {
      "midi": 57,
      "hit": false,
      "t": 207352.71999999927,
      "d": 312.49966666667024,
      "v": 87
    },
    {
      "midi": 45,
      "hit": false,
      "t": 207352.71999999927,
      "d": 340.07316666666884,
      "v": 76
    },
    {
      "midi": 61,
      "hit": false,
      "t": 207352.71999999927,
      "d": 340.07316666666884,
      "v": 91
    },
    {
      "midi": 64,
      "hit": false,
      "t": 207352.71999999927,
      "d": 340.07316666666884,
      "v": 73
    },
    {
      "midi": 57,
      "hit": false,
      "t": 208235.07199999926,
      "d": 156.24983333333512,
      "v": 79
    },
    {
      "midi": 64,
      "hit": false,
      "t": 208235.07199999926,
      "d": 183.82333333333372,
      "v": 71
    },
    {
      "midi": 66,
      "hit": false,
      "t": 208235.07199999926,
      "d": 220.58799999998882,
      "v": 66
    },
    {
      "midi": 50,
      "hit": false,
      "t": 208235.07199999926,
      "d": 955.8813333332946,
      "v": 76
    },
    {
      "midi": 38,
      "hit": false,
      "t": 208235.07199999926,
      "d": 1700.365833333286,
      "v": 84
    },
    {
      "midi": 69,
      "hit": false,
      "t": 208676.24799999924,
      "d": 64.3381666666537,
      "v": 76
    },
    {
      "midi": 81,
      "hit": false,
      "t": 208676.24799999924,
      "d": 73.5293333333102,
      "v": 79
    },
    {
      "midi": 80,
      "hit": false,
      "t": 209117.4239999992,
      "d": 68.93374999999651,
      "v": 84
    },
    {
      "midi": 68,
      "hit": false,
      "t": 209117.4239999992,
      "d": 78.12491666668211,
      "v": 79
    },
    {
      "midi": 69,
      "hit": false,
      "t": 209558.59999999922,
      "d": 64.3381666666537,
      "v": 73
    },
    {
      "midi": 81,
      "hit": false,
      "t": 209558.59999999922,
      "d": 64.3381666666537,
      "v": 73
    },
    {
      "midi": 78,
      "hit": false,
      "t": 209779.1879999992,
      "d": 59.74258333334001,
      "v": 62
    },
    {
      "midi": 66,
      "hit": false,
      "t": 209779.1879999992,
      "d": 64.33816666668281,
      "v": 66
    },
    {
      "midi": 50,
      "hit": false,
      "t": 209999.7759999992,
      "d": 225.18358333333163,
      "v": 67
    },
    {
      "midi": 38,
      "hit": false,
      "t": 210220.3639999992,
      "d": 1125.9179166667163,
      "v": 71
    },
    {
      "midi": 69,
      "hit": false,
      "t": 210440.9519999992,
      "d": 73.52933333333931,
      "v": 82
    },
    {
      "midi": 81,
      "hit": false,
      "t": 210440.9519999992,
      "d": 78.12491666668211,
      "v": 79
    },
    {
      "midi": 50,
      "hit": false,
      "t": 210882.1279999992,
      "d": 73.52933333333931,
      "v": 9
    },
    {
      "midi": 68,
      "hit": false,
      "t": 210882.1279999992,
      "d": 82.72049999999581,
      "v": 76
    },
    {
      "midi": 80,
      "hit": false,
      "t": 210882.1279999992,
      "d": 101.10283333333791,
      "v": 76
    },
    {
      "midi": 50,
      "hit": false,
      "t": 211102.71599999923,
      "d": 225.18358333333163,
      "v": 6
    },
    {
      "midi": 69,
      "hit": false,
      "t": 211323.30399999922,
      "d": 59.74258333334001,
      "v": 66
    },
    {
      "midi": 81,
      "hit": false,
      "t": 211323.30399999922,
      "d": 59.74258333334001,
      "v": 62
    },
    {
      "midi": 76,
      "hit": false,
      "t": 211543.89199999924,
      "d": 280.33058333332883,
      "v": 82
    },
    {
      "midi": 64,
      "hit": false,
      "t": 211543.89199999924,
      "d": 307.90408333332743,
      "v": 82
    },
    {
      "midi": 52,
      "hit": false,
      "t": 211764.47999999922,
      "d": 528.4920833333454,
      "v": 79
    },
    {
      "midi": 40,
      "hit": false,
      "t": 211764.47999999922,
      "d": 2173.7109166666633,
      "v": 73
    },
    {
      "midi": 59,
      "hit": false,
      "t": 212205.65599999923,
      "d": 91.91166666668141,
      "v": 61
    },
    {
      "midi": 59,
      "hit": false,
      "t": 212426.24399999925,
      "d": 73.52933333333931,
      "v": 33
    },
    {
      "midi": 52,
      "hit": false,
      "t": 212426.24399999925,
      "d": 312.49966666667024,
      "v": 61
    },
    {
      "midi": 59,
      "hit": false,
      "t": 212646.83199999927,
      "d": 477.94066666663275,
      "v": 79
    },
    {
      "midi": 64,
      "hit": false,
      "t": 212646.83199999927,
      "d": 482.53624999997555,
      "v": 79
    },
    {
      "midi": 68,
      "hit": false,
      "t": 212646.83199999927,
      "d": 496.32299999997485,
      "v": 68
    },
    {
      "midi": 52,
      "hit": false,
      "t": 213088.00799999924,
      "d": 670.9551666666521,
      "v": 67
    },
    {
      "midi": 59,
      "hit": false,
      "t": 213308.59599999923,
      "d": 87.31608333333861,
      "v": 63
    },
    {
      "midi": 64,
      "hit": false,
      "t": 213529.18399999925,
      "d": 96.50724999999511,
      "v": 45
    },
    {
      "midi": 59,
      "hit": false,
      "t": 213749.77199999924,
      "d": 266.54383333332953,
      "v": 76
    },
    {
      "midi": 64,
      "hit": false,
      "t": 213749.77199999924,
      "d": 280.33058333332883,
      "v": 73
    },
    {
      "midi": 68,
      "hit": false,
      "t": 213749.77199999924,
      "d": 298.71291666667094,
      "v": 63
    },
    {
      "midi": 52,
      "hit": false,
      "t": 213970.35999999923,
      "d": 206.80125000001863,
      "v": 64
    },
    {
      "midi": 59,
      "hit": false,
      "t": 214190.94799999925,
      "d": 110.29399999999441,
      "v": 64
    },
    {
      "midi": 52,
      "hit": false,
      "t": 214190.94799999925,
      "d": 303.30849999998463,
      "v": 16
    },
    {
      "midi": 68,
      "hit": false,
      "t": 214411.53599999924,
      "d": 179.22774999999092,
      "v": 68
    },
    {
      "midi": 59,
      "hit": false,
      "t": 214411.53599999924,
      "d": 335.47758333332604,
      "v": 82
    },
    {
      "midi": 40,
      "hit": false,
      "t": 214411.53599999924,
      "d": 390.62458333332324,
      "v": 42
    },
    {
      "midi": 66,
      "hit": false,
      "t": 214632.12399999922,
      "d": 147.05866666667862,
      "v": 46
    },
    {
      "midi": 59,
      "hit": false,
      "t": 214852.7119999992,
      "d": 82.72049999999581,
      "v": 52
    },
    {
      "midi": 42,
      "hit": false,
      "t": 215293.88799999922,
      "d": 298.71291666667094,
      "v": 82
    },
    {
      "midi": 57,
      "hit": false,
      "t": 215293.88799999922,
      "d": 505.51416666666046,
      "v": 82
    },
    {
      "midi": 54,
      "hit": false,
      "t": 215293.88799999922,
      "d": 519.3009166666598,
      "v": 87
    },
    {
      "midi": 61,
      "hit": false,
      "t": 215293.88799999922,
      "d": 528.4920833333163,
      "v": 67
    },
    {
      "midi": 42,
      "hit": false,
      "t": 215735.06399999923,
      "d": 335.47758333332604,
      "v": 61
    },
    {
      "midi": 54,
      "hit": false,
      "t": 215955.65199999922,
      "d": 105.69841666668071,
      "v": 28
    },
    {
      "midi": 42,
      "hit": false,
      "t": 216176.23999999923,
      "d": 147.05866666667862,
      "v": 38
    },
    {
      "midi": 57,
      "hit": false,
      "t": 216617.41599999924,
      "d": 3749.9959999999846,
      "v": 87
    },
    {
      "midi": 64,
      "hit": false,
      "t": 216617.41599999924,
      "d": 3805.142999999982,
      "v": 79
    },
    {
      "midi": 50,
      "hit": false,
      "t": 216617.41599999924,
      "d": 5261.942916666652,
      "v": 84
    },
    {
      "midi": 38,
      "hit": false,
      "t": 216617.41599999924,
      "d": 5565.251416666666,
      "v": 95
    },
    {
      "midi": 66,
      "hit": false,
      "t": 216617.41599999924,
      "d": 5680.141000000003,
      "v": 73
    },
    {
      "midi": 45,
      "hit": false,
      "t": 220587.9999999992,
      "d": 588.2346666666563,
      "v": 61
    },
    {
      "midi": 57,
      "hit": false,
      "t": 220587.9999999992,
      "d": 877.7564166666707,
      "v": 76
    },
    {
      "midi": 61,
      "hit": false,
      "t": 220587.9999999992,
      "d": 891.54316666667,
      "v": 76
    },
    {
      "midi": 64,
      "hit": false,
      "t": 220587.9999999992,
      "d": 905.3299166666693,
      "v": 67
    },
    {
      "midi": 33,
      "hit": false,
      "t": 220587.9999999992,
      "d": 1557.9027500000375,
      "v": 69
    },
    {
      "midi": 45,
      "hit": false,
      "t": 221470.35199999923,
      "d": 615.808166666684,
      "v": 62
    },
    {
      "midi": 57,
      "hit": false,
      "t": 221690.93999999922,
      "d": 114.88958333333721,
      "v": 61
    },
    {
      "midi": 57,
      "hit": false,
      "t": 221911.52799999923,
      "d": 32.169083333341405,
      "v": 9
    },
    {
      "midi": 61,
      "hit": false,
      "t": 221911.52799999923,
      "d": 142.46308333333582,
      "v": 66
    },
    {
      "midi": 64,
      "hit": false,
      "t": 222132.11599999925,
      "d": 147.05866666664951,
      "v": 34
    },
    {
      "midi": 45,
      "hit": false,
      "t": 222132.11599999925,
      "d": 418.19808333332185,
      "v": 30
    },
    {
      "midi": 33,
      "hit": false,
      "t": 222352.70399999924,
      "d": 882.3520000000135,
      "v": 55
    },
    {
      "midi": 56,
      "hit": false,
      "t": 222352.70399999924,
      "d": 1263.7854166666802,
      "v": 63
    },
    {
      "midi": 59,
      "hit": false,
      "t": 222352.70399999924,
      "d": 1277.5721666666795,
      "v": 67
    },
    {
      "midi": 64,
      "hit": false,
      "t": 222352.70399999924,
      "d": 1300.5500833333354,
      "v": 64
    },
    {
      "midi": 45,
      "hit": false,
      "t": 222793.87999999925,
      "d": 147.05866666667862,
      "v": 46
    },
    {
      "midi": 45,
      "hit": false,
      "t": 223235.05599999925,
      "d": 358.45550000001094,
      "v": 66
    },
    {
      "midi": 33,
      "hit": false,
      "t": 223676.23199999923,
      "d": 464.15391666666255,
      "v": 30
    },
    {
      "midi": 45,
      "hit": false,
      "t": 224117.40799999924,
      "d": 523.8965000000026,
      "v": 56
    },
    {
      "midi": 64,
      "hit": false,
      "t": 224117.40799999924,
      "d": 565.2567500000005,
      "v": 66
    },
    {
      "midi": 57,
      "hit": false,
      "t": 224117.40799999924,
      "d": 620.4037499999977,
      "v": 63
    },
    {
      "midi": 61,
      "hit": false,
      "t": 224117.40799999924,
      "d": 716.9109999999928,
      "v": 58
    },
    {
      "midi": 33,
      "hit": false,
      "t": 224558.58399999925,
      "d": 670.955166666623,
      "v": 58
    },
    {
      "midi": 45,
      "hit": false,
      "t": 224779.17199999923,
      "d": 96.50724999999511,
      "v": 29
    },
    {
      "midi": 57,
      "hit": false,
      "t": 224999.75999999922,
      "d": 220.58799999998882,
      "v": 53
    },
    {
      "midi": 64,
      "hit": false,
      "t": 224999.75999999922,
      "d": 261.94824999998673,
      "v": 55
    },
    {
      "midi": 61,
      "hit": false,
      "t": 224999.75999999922,
      "d": 294.11733333332813,
      "v": 56
    },
    {
      "midi": 45,
      "hit": false,
      "t": 225220.3479999992,
      "d": 335.47758333335514,
      "v": 66
    },
    {
      "midi": 57,
      "hit": false,
      "t": 225440.93599999923,
      "d": 119.48516666668002,
      "v": 64
    },
    {
      "midi": 42,
      "hit": false,
      "t": 225882.11199999924,
      "d": 284.92616666667163,
      "v": 64
    },
    {
      "midi": 57,
      "hit": false,
      "t": 225882.11199999924,
      "d": 431.98483333332115,
      "v": 62
    },
    {
      "midi": 61,
      "hit": false,
      "t": 225882.11199999924,
      "d": 450.36716666663415,
      "v": 64
    },
    {
      "midi": 54,
      "hit": false,
      "t": 225882.11199999924,
      "d": 468.74949999997625,
      "v": 63
    },
    {
      "midi": 42,
      "hit": false,
      "t": 226323.28799999921,
      "d": 546.8744166666875,
      "v": 61
    },
    {
      "midi": 54,
      "hit": false,
      "t": 226543.8759999992,
      "d": 101.10283333333791,
      "v": 28
    },
    {
      "midi": 57,
      "hit": false,
      "t": 226764.46399999922,
      "d": 399.81575000000885,
      "v": 52
    },
    {
      "midi": 54,
      "hit": false,
      "t": 226764.46399999922,
      "d": 422.79366666666465,
      "v": 32
    },
    {
      "midi": 61,
      "hit": false,
      "t": 226764.46399999922,
      "d": 422.79366666666465,
      "v": 55
    },
    {
      "midi": 42,
      "hit": false,
      "t": 227205.63999999923,
      "d": 96.50724999999511,
      "v": 55
    },
    {
      "midi": 42,
      "hit": false,
      "t": 227426.22799999922,
      "d": 64.3381666666537,
      "v": 31
    },
    {
      "midi": 42,
      "hit": false,
      "t": 227646.8159999992,
      "d": 225.18358333333163,
      "v": 62
    },
    {
      "midi": 59,
      "hit": false,
      "t": 227646.8159999992,
      "d": 454.96275000000605,
      "v": 66
    },
    {
      "midi": 64,
      "hit": false,
      "t": 227646.8159999992,
      "d": 468.74950000000536,
      "v": 67
    },
    {
      "midi": 56,
      "hit": false,
      "t": 227646.8159999992,
      "d": 482.53625000000466,
      "v": 63
    },
    {
      "midi": 42,
      "hit": false,
      "t": 228087.9919999992,
      "d": 528.4920833333454,
      "v": 52
    },
    {
      "midi": 56,
      "hit": false,
      "t": 228308.5799999992,
      "d": 119.48516666668002,
      "v": 40
    },
    {
      "midi": 56,
      "hit": false,
      "t": 228529.16799999922,
      "d": 220.58800000001793,
      "v": 35
    },
    {
      "midi": 64,
      "hit": false,
      "t": 228529.16799999922,
      "d": 418.19808333335095,
      "v": 66
    },
    {
      "midi": 59,
      "hit": false,
      "t": 228529.16799999922,
      "d": 422.79366666669375,
      "v": 58
    },
    {
      "midi": 42,
      "hit": false,
      "t": 228970.34399999926,
      "d": 82.72049999999581,
      "v": 35
    },
    {
      "midi": 56,
      "hit": false,
      "t": 228970.34399999926,
      "d": 82.72049999999581,
      "v": 43
    },
    {
      "midi": 42,
      "hit": false,
      "t": 229190.93199999924,
      "d": 45.955833333340706,
      "v": 20
    },
    {
      "midi": 42,
      "hit": false,
      "t": 229411.51999999923,
      "d": 137.86749999999302,
      "v": 63
    },
    {
      "midi": 54,
      "hit": false,
      "t": 229411.51999999923,
      "d": 294.11733333332813,
      "v": 43
    },
    {
      "midi": 61,
      "hit": false,
      "t": 229411.51999999923,
      "d": 294.11733333332813,
      "v": 55
    },
    {
      "midi": 57,
      "hit": false,
      "t": 229411.51999999923,
      "d": 312.49966666667024,
      "v": 60
    },
    {
      "midi": 42,
      "hit": false,
      "t": 229632.10799999922,
      "d": 693.933083333337,
      "v": 57
    },
    {
      "midi": 54,
      "hit": false,
      "t": 229852.69599999924,
      "d": 110.29399999999441,
      "v": 51
    },
    {
      "midi": 57,
      "hit": false,
      "t": 230073.28399999923,
      "d": 128.67633333333652,
      "v": 42
    },
    {
      "midi": 54,
      "hit": false,
      "t": 230293.87199999922,
      "d": 225.18358333336073,
      "v": 76
    },
    {
      "midi": 61,
      "hit": false,
      "t": 230293.87199999922,
      "d": 271.13941666670144,
      "v": 62
    },
    {
      "midi": 42,
      "hit": false,
      "t": 230514.45999999924,
      "d": 326.28641666669864,
      "v": 71
    },
    {
      "midi": 54,
      "hit": false,
      "t": 230735.04799999925,
      "d": 105.69841666668071,
      "v": 52
    },
    {
      "midi": 50,
      "hit": false,
      "t": 231176.22399999926,
      "d": 252.75708333333023,
      "v": 53
    },
    {
      "midi": 62,
      "hit": false,
      "t": 231176.22399999926,
      "d": 390.62458333332324,
      "v": 67
    },
    {
      "midi": 66,
      "hit": false,
      "t": 231176.22399999926,
      "d": 413.60249999997905,
      "v": 58
    },
    {
      "midi": 57,
      "hit": false,
      "t": 231176.22399999926,
      "d": 473.34508333331905,
      "v": 71
    },
    {
      "midi": 38,
      "hit": false,
      "t": 231176.22399999926,
      "d": 1066.1753333333181,
      "v": 68
    },
    {
      "midi": 50,
      "hit": false,
      "t": 231617.39999999924,
      "d": 533.0876666666882,
      "v": 53
    },
    {
      "midi": 57,
      "hit": false,
      "t": 231837.98799999926,
      "d": 105.69841666668071,
      "v": 20
    },
    {
      "midi": 57,
      "hit": false,
      "t": 232058.57599999927,
      "d": 427.38924999997835,
      "v": 67
    },
    {
      "midi": 62,
      "hit": false,
      "t": 232058.57599999927,
      "d": 441.17599999997765,
      "v": 63
    },
    {
      "midi": 66,
      "hit": false,
      "t": 232058.57599999927,
      "d": 445.77158333332045,
      "v": 51
    },
    {
      "midi": 50,
      "hit": false,
      "t": 232499.75199999925,
      "d": 335.47758333335514,
      "v": 52
    },
    {
      "midi": 38,
      "hit": false,
      "t": 232720.33999999927,
      "d": 1557.9027500000084,
      "v": 45
    },
    {
      "midi": 50,
      "hit": false,
      "t": 232940.9279999993,
      "d": 206.80125000001863,
      "v": 50
    },
    {
      "midi": 64,
      "hit": false,
      "t": 232940.9279999993,
      "d": 436.58041666666395,
      "v": 64
    },
    {
      "midi": 68,
      "hit": false,
      "t": 232940.9279999993,
      "d": 514.7053333333461,
      "v": 63
    },
    {
      "midi": 57,
      "hit": false,
      "t": 233382.1039999993,
      "d": 137.86749999999302,
      "v": 33
    },
    {
      "midi": 50,
      "hit": false,
      "t": 233382.1039999993,
      "d": 519.3009166666598,
      "v": 55
    },
    {
      "midi": 68,
      "hit": false,
      "t": 233823.2799999993,
      "d": 404.41133333332255,
      "v": 56
    },
    {
      "midi": 64,
      "hit": false,
      "t": 233823.2799999993,
      "d": 413.60249999997905,
      "v": 64
    },
    {
      "midi": 57,
      "hit": false,
      "t": 233823.2799999993,
      "d": 422.79366666663554,
      "v": 66
    },
    {
      "midi": 50,
      "hit": false,
      "t": 234264.45599999928,
      "d": 307.90408333332743,
      "v": 58
    },
    {
      "midi": 57,
      "hit": false,
      "t": 234485.04399999927,
      "d": 105.69841666668071,
      "v": 21
    },
    {
      "midi": 57,
      "hit": false,
      "t": 234705.63199999928,
      "d": 399.81575000000885,
      "v": 64
    },
    {
      "midi": 62,
      "hit": false,
      "t": 234705.63199999928,
      "d": 473.34508333334816,
      "v": 62
    },
    {
      "midi": 66,
      "hit": false,
      "t": 234705.63199999928,
      "d": 519.3009166666889,
      "v": 53
    },
    {
      "midi": 38,
      "hit": false,
      "t": 234705.63199999928,
      "d": 1148.8958333333721,
      "v": 64
    },
    {
      "midi": 50,
      "hit": false,
      "t": 235146.8079999993,
      "d": 519.3009166666889,
      "v": 53
    },
    {
      "midi": 57,
      "hit": false,
      "t": 235367.3959999993,
      "d": 114.88958333333721,
      "v": 55
    },
    {
      "midi": 62,
      "hit": false,
      "t": 235587.98399999933,
      "d": 238.97033333333093,
      "v": 67
    },
    {
      "midi": 66,
      "hit": false,
      "t": 235587.98399999933,
      "d": 275.73499999998603,
      "v": 71
    },
    {
      "midi": 50,
      "hit": false,
      "t": 235808.57199999932,
      "d": 307.90408333332743,
      "v": 69
    },
    {
      "midi": 57,
      "hit": false,
      "t": 236029.1599999993,
      "d": 110.29399999999441,
      "v": 68
    },
    {
      "midi": 57,
      "hit": false,
      "t": 236249.7479999993,
      "d": 119.48516666668002,
      "v": 28
    },
    {
      "midi": 45,
      "hit": false,
      "t": 236470.3359999993,
      "d": 284.92616666667163,
      "v": 67
    },
    {
      "midi": 64,
      "hit": false,
      "t": 236470.3359999993,
      "d": 409.00691666666535,
      "v": 64
    },
    {
      "midi": 57,
      "hit": false,
      "t": 236470.3359999993,
      "d": 427.38925000000745,
      "v": 66
    },
    {
      "midi": 61,
      "hit": false,
      "t": 236470.3359999993,
      "d": 427.38925000000745,
      "v": 63
    },
    {
      "midi": 45,
      "hit": false,
      "t": 236911.51199999932,
      "d": 523.8964999999735,
      "v": 55
    },
    {
      "midi": 57,
      "hit": false,
      "t": 237132.0999999993,
      "d": 78.12491666665301,
      "v": 28
    },
    {
      "midi": 57,
      "hit": false,
      "t": 237352.6879999993,
      "d": 473.34508333334816,
      "v": 58
    },
    {
      "midi": 64,
      "hit": false,
      "t": 237352.6879999993,
      "d": 482.53625000000466,
      "v": 63
    },
    {
      "midi": 61,
      "hit": false,
      "t": 237352.6879999993,
      "d": 496.32300000000396,
      "v": 58
    },
    {
      "midi": 45,
      "hit": false,
      "t": 237793.8639999993,
      "d": 114.88958333333721,
      "v": 57
    },
    {
      "midi": 45,
      "hit": false,
      "t": 238014.45199999932,
      "d": 96.50724999999511,
      "v": 36
    },
    {
      "midi": 45,
      "hit": false,
      "t": 238235.0399999993,
      "d": 183.82333333333372,
      "v": 57
    },
    {
      "midi": 59,
      "hit": false,
      "t": 238235.0399999993,
      "d": 468.74950000000536,
      "v": 64
    },
    {
      "midi": 56,
      "hit": false,
      "t": 238235.0399999993,
      "d": 491.72741666666116,
      "v": 53
    },
    {
      "midi": 64,
      "hit": false,
      "t": 238235.0399999993,
      "d": 491.72741666666116,
      "v": 64
    },
    {
      "midi": 45,
      "hit": false,
      "t": 238676.21599999932,
      "d": 523.8964999999735,
      "v": 57
    },
    {
      "midi": 59,
      "hit": false,
      "t": 239117.3919999993,
      "d": 363.05108333332464,
      "v": 62
    },
    {
      "midi": 56,
      "hit": false,
      "t": 239117.3919999993,
      "d": 372.24224999998114,
      "v": 51
    },
    {
      "midi": 64,
      "hit": false,
      "t": 239117.3919999993,
      "d": 376.83783333332394,
      "v": 62
    },
    {
      "midi": 45,
      "hit": false,
      "t": 239558.56799999927,
      "d": 114.88958333333721,
      "v": 50
    },
    {
      "midi": 45,
      "hit": false,
      "t": 239999.74399999928,
      "d": 229.77916666664532,
      "v": 68
    },
    {
      "midi": 57,
      "hit": false,
      "t": 239999.74399999928,
      "d": 487.13183333331835,
      "v": 69
    },
    {
      "midi": 64,
      "hit": false,
      "t": 239999.74399999928,
      "d": 491.72741666666116,
      "v": 68
    },
    {
      "midi": 61,
      "hit": false,
      "t": 239999.74399999928,
      "d": 505.51416666666046,
      "v": 69
    },
    {
      "midi": 45,
      "hit": false,
      "t": 240440.91999999926,
      "d": 133.27191666667932,
      "v": 47
    },
    {
      "midi": 45,
      "hit": false,
      "t": 240661.50799999927,
      "d": 96.50724999999511,
      "v": 22
    },
    {
      "midi": 57,
      "hit": false,
      "t": 240661.50799999927,
      "d": 101.10283333333791,
      "v": 46
    },
    {
      "midi": 57,
      "hit": false,
      "t": 240882.0959999993,
      "d": 243.56591666664463,
      "v": 79
    },
    {
      "midi": 61,
      "hit": false,
      "t": 240882.0959999993,
      "d": 284.92616666664253,
      "v": 87
    },
    {
      "midi": 64,
      "hit": false,
      "t": 240882.0959999993,
      "d": 284.92616666664253,
      "v": 71
    },
    {
      "midi": 45,
      "hit": false,
      "t": 241102.68399999928,
      "d": 137.86749999999302,
      "v": 62
    },
    {
      "midi": 45,
      "hit": false,
      "t": 241323.27199999927,
      "d": 96.50724999999511,
      "v": 69
    },
    {
      "midi": 52,
      "hit": false,
      "t": 241764.44799999928,
      "d": 303.30850000001374,
      "v": 91
    },
    {
      "midi": 59,
      "hit": false,
      "t": 241764.44799999928,
      "d": 487.13183333334746,
      "v": 99
    },
    {
      "midi": 64,
      "hit": false,
      "t": 241764.44799999928,
      "d": 496.32300000000396,
      "v": 84
    },
    {
      "midi": 68,
      "hit": false,
      "t": 241764.44799999928,
      "d": 546.8744166666584,
      "v": 76
    },
    {
      "midi": 40,
      "hit": false,
      "t": 241764.44799999928,
      "d": 1286.763333333336,
      "v": 87
    },
    {
      "midi": 52,
      "hit": false,
      "t": 242205.62399999928,
      "d": 519.3009166666598,
      "v": 63
    },
    {
      "midi": 59,
      "hit": false,
      "t": 242426.21199999927,
      "d": 114.88958333333721,
      "v": 48
    },
    {
      "midi": 64,
      "hit": false,
      "t": 242646.7999999993,
      "d": 427.38924999997835,
      "v": 79
    },
    {
      "midi": 59,
      "hit": false,
      "t": 242646.7999999993,
      "d": 441.17599999997765,
      "v": 76
    },
    {
      "midi": 68,
      "hit": false,
      "t": 242646.7999999993,
      "d": 445.77158333332045,
      "v": 71
    },
    {
      "midi": 52,
      "hit": false,
      "t": 243087.97599999927,
      "d": 202.20566666667582,
      "v": 71
    },
    {
      "midi": 59,
      "hit": false,
      "t": 243308.56399999929,
      "d": 110.29399999999441,
      "v": 52
    },
    {
      "midi": 40,
      "hit": false,
      "t": 243308.56399999929,
      "d": 2559.7399166666437,
      "v": 61
    },
    {
      "midi": 52,
      "hit": false,
      "t": 243529.15199999927,
      "d": 119.48516666668002,
      "v": 64
    },
    {
      "midi": 59,
      "hit": false,
      "t": 243529.15199999927,
      "d": 468.74950000000536,
      "v": 82
    },
    {
      "midi": 66,
      "hit": false,
      "t": 243529.15199999927,
      "d": 473.34508333334816,
      "v": 82
    },
    {
      "midi": 69,
      "hit": false,
      "t": 243529.15199999927,
      "d": 500.91858333334676,
      "v": 73
    },
    {
      "midi": 52,
      "hit": false,
      "t": 243970.32799999928,
      "d": 537.6832500000019,
      "v": 66
    },
    {
      "midi": 59,
      "hit": false,
      "t": 244190.9159999993,
      "d": 91.91166666665231,
      "v": 57
    },
    {
      "midi": 59,
      "hit": false,
      "t": 244411.5039999993,
      "d": 390.62458333332324,
      "v": 84
    },
    {
      "midi": 69,
      "hit": false,
      "t": 244411.5039999993,
      "d": 395.22016666666605,
      "v": 67
    },
    {
      "midi": 66,
      "hit": false,
      "t": 244411.5039999993,
      "d": 413.60250000000815,
      "v": 79
    },
    {
      "midi": 52,
      "hit": false,
      "t": 244852.6799999993,
      "d": 537.6832500000019,
      "v": 57
    },
    {
      "midi": 59,
      "hit": false,
      "t": 245073.26799999928,
      "d": 87.31608333333861,
      "v": 35
    },
    {
      "midi": 64,
      "hit": false,
      "t": 245293.8559999993,
      "d": 376.83783333332394,
      "v": 71
    },
    {
      "midi": 68,
      "hit": false,
      "t": 245293.8559999993,
      "d": 399.81574999997974,
      "v": 67
    },
    {
      "midi": 59,
      "hit": false,
      "t": 245293.8559999993,
      "d": 409.00691666663624,
      "v": 76
    },
    {
      "midi": 52,
      "hit": false,
      "t": 245735.03199999928,
      "d": 110.29399999999441,
      "v": 56
    },
    {
      "midi": 57,
      "hit": false,
      "t": 246176.20799999926,
      "d": 381.43341666666674,
      "v": 87
    },
    {
      "midi": 62,
      "hit": false,
      "t": 246176.20799999926,
      "d": 441.17600000000675,
      "v": 76
    },
    {
      "midi": 66,
      "hit": false,
      "t": 246176.20799999926,
      "d": 477.94066666666185,
      "v": 67
    },
    {
      "midi": 50,
      "hit": false,
      "t": 246176.20799999926,
      "d": 487.13183333331835,
      "v": 76
    },
    {
      "midi": 38,
      "hit": false,
      "t": 246176.20799999926,
      "d": 634.190499999997,
      "v": 79
    },
    {
      "midi": 45,
      "hit": false,
      "t": 247058.55999999924,
      "d": 284.92616666667163,
      "v": 73
    },
    {
      "midi": 57,
      "hit": false,
      "t": 247058.55999999924,
      "d": 468.74950000000536,
      "v": 67
    },
    {
      "midi": 64,
      "hit": false,
      "t": 247058.55999999924,
      "d": 473.34508333334816,
      "v": 66
    },
    {
      "midi": 61,
      "hit": false,
      "t": 247058.55999999924,
      "d": 482.53625000000466,
      "v": 73
    },
    {
      "midi": 45,
      "hit": false,
      "t": 247499.73599999925,
      "d": 464.15391666666255,
      "v": 46
    },
    {
      "midi": 57,
      "hit": false,
      "t": 247720.32399999924,
      "d": 73.52933333333931,
      "v": 36
    },
    {
      "midi": 57,
      "hit": false,
      "t": 247940.91199999925,
      "d": 491.72741666663205,
      "v": 52
    },
    {
      "midi": 64,
      "hit": false,
      "t": 247940.91199999925,
      "d": 505.51416666663135,
      "v": 61
    },
    {
      "midi": 61,
      "hit": false,
      "t": 247940.91199999925,
      "d": 514.7053333332879,
      "v": 50
    },
    {
      "midi": 45,
      "hit": false,
      "t": 248382.08799999923,
      "d": 142.4630833333067,
      "v": 48
    },
    {
      "midi": 52,
      "hit": false,
      "t": 248823.2639999992,
      "d": 3377.7537500000035,
      "v": 66
    },
    {
      "midi": 59,
      "hit": false,
      "t": 248823.2639999992,
      "d": 3400.7316666666593,
      "v": 73
    },
    {
      "midi": 64,
      "hit": false,
      "t": 248823.2639999992,
      "d": 3409.922833333316,
      "v": 71
    },
    {
      "midi": 56,
      "hit": false,
      "t": 248823.2639999992,
      "d": 3419.1139999999723,
      "v": 71
    },
    {
      "midi": 40,
      "hit": false,
      "t": 248823.2639999992,
      "d": 3423.709583333315,
      "v": 67
    },
    {
      "midi": 47,
      "hit": false,
      "t": 294705.5679999992,
      "d": 588.2346666666563,
      "v": 61
    },
    {
      "midi": 59,
      "hit": false,
      "t": 294705.5679999992,
      "d": 877.7564166666707,
      "v": 76
    },
    {
      "midi": 63,
      "hit": false,
      "t": 294705.5679999992,
      "d": 891.5431666666991,
      "v": 76
    },
    {
      "midi": 66,
      "hit": false,
      "t": 294705.5679999992,
      "d": 905.3299166667275,
      "v": 67
    },
    {
      "midi": 35,
      "hit": false,
      "t": 294705.5679999992,
      "d": 1557.9027500000666,
      "v": 69
    },
    {
      "midi": 47,
      "hit": false,
      "t": 295587.9199999992,
      "d": 615.8081666667131,
      "v": 62
    },
    {
      "midi": 59,
      "hit": false,
      "t": 295808.5079999993,
      "d": 114.88958333333721,
      "v": 61
    },
    {
      "midi": 59,
      "hit": false,
      "t": 296029.09599999926,
      "d": 32.169083333341405,
      "v": 9
    },
    {
      "midi": 63,
      "hit": false,
      "t": 296029.09599999926,
      "d": 142.46308333333582,
      "v": 66
    },
    {
      "midi": 66,
      "hit": false,
      "t": 296249.68399999925,
      "d": 147.05866666667862,
      "v": 34
    },
    {
      "midi": 47,
      "hit": false,
      "t": 296249.68399999925,
      "d": 418.19808333332185,
      "v": 30
    },
    {
      "midi": 35,
      "hit": false,
      "t": 296470.27199999924,
      "d": 882.3520000000717,
      "v": 55
    },
    {
      "midi": 58,
      "hit": false,
      "t": 296470.27199999924,
      "d": 1263.7854166667094,
      "v": 63
    },
    {
      "midi": 61,
      "hit": false,
      "t": 296470.27199999924,
      "d": 1277.5721666667378,
      "v": 67
    },
    {
      "midi": 66,
      "hit": false,
      "t": 296470.27199999924,
      "d": 1300.5500833333936,
      "v": 64
    },
    {
      "midi": 47,
      "hit": false,
      "t": 296911.4479999993,
      "d": 147.05866666667862,
      "v": 46
    },
    {
      "midi": 47,
      "hit": false,
      "t": 297352.6239999993,
      "d": 358.45549999998184,
      "v": 66
    },
    {
      "midi": 35,
      "hit": false,
      "t": 297793.7999999993,
      "d": 464.15391666663345,
      "v": 30
    },
    {
      "midi": 47,
      "hit": false,
      "t": 298234.97599999927,
      "d": 523.8964999999735,
      "v": 56
    },
    {
      "midi": 66,
      "hit": false,
      "t": 298234.97599999927,
      "d": 565.2567500000005,
      "v": 66
    },
    {
      "midi": 59,
      "hit": false,
      "t": 298234.97599999927,
      "d": 620.4037499999977,
      "v": 63
    },
    {
      "midi": 63,
      "hit": false,
      "t": 298234.97599999927,
      "d": 716.9110000000219,
      "v": 58
    },
    {
      "midi": 35,
      "hit": false,
      "t": 298676.15199999925,
      "d": 670.9551666667685,
      "v": 58
    },
    {
      "midi": 47,
      "hit": false,
      "t": 298896.7399999993,
      "d": 96.50725000002421,
      "v": 29
    },
    {
      "midi": 59,
      "hit": false,
      "t": 299117.32799999934,
      "d": 220.58799999998882,
      "v": 53
    },
    {
      "midi": 66,
      "hit": false,
      "t": 299117.32799999934,
      "d": 261.94825000001583,
      "v": 55
    },
    {
      "midi": 63,
      "hit": false,
      "t": 299117.32799999934,
      "d": 294.11733333335724,
      "v": 56
    },
    {
      "midi": 47,
      "hit": false,
      "t": 299337.9159999993,
      "d": 335.47758333338425,
      "v": 66
    },
    {
      "midi": 59,
      "hit": false,
      "t": 299558.5039999994,
      "d": 119.48516666668002,
      "v": 64
    },
    {
      "midi": 44,
      "hit": false,
      "t": 299999.67999999935,
      "d": 284.92616666667163,
      "v": 64
    },
    {
      "midi": 59,
      "hit": false,
      "t": 299999.67999999935,
      "d": 431.98483333335025,
      "v": 62
    },
    {
      "midi": 63,
      "hit": false,
      "t": 299999.67999999935,
      "d": 450.36716666672146,
      "v": 64
    },
    {
      "midi": 56,
      "hit": false,
      "t": 299999.67999999935,
      "d": 468.74950000003446,
      "v": 63
    },
    {
      "midi": 44,
      "hit": false,
      "t": 300440.8559999994,
      "d": 546.8744166666293,
      "v": 61
    },
    {
      "midi": 56,
      "hit": false,
      "t": 300661.4439999994,
      "d": 101.10283333330881,
      "v": 28
    },
    {
      "midi": 59,
      "hit": false,
      "t": 300882.03199999937,
      "d": 399.81575000000885,
      "v": 52
    },
    {
      "midi": 56,
      "hit": false,
      "t": 300882.03199999937,
      "d": 422.79366666666465,
      "v": 32
    },
    {
      "midi": 63,
      "hit": false,
      "t": 300882.03199999937,
      "d": 422.79366666666465,
      "v": 55
    },
    {
      "midi": 44,
      "hit": false,
      "t": 301323.20799999934,
      "d": 96.50725000002421,
      "v": 55
    },
    {
      "midi": 44,
      "hit": false,
      "t": 301543.7959999994,
      "d": 64.33816666668281,
      "v": 31
    },
    {
      "midi": 44,
      "hit": false,
      "t": 301764.3839999994,
      "d": 225.18358333338983,
      "v": 62
    },
    {
      "midi": 61,
      "hit": false,
      "t": 301764.3839999994,
      "d": 454.96275000006426,
      "v": 66
    },
    {
      "midi": 66,
      "hit": false,
      "t": 301764.3839999994,
      "d": 468.74950000009267,
      "v": 67
    },
    {
      "midi": 58,
      "hit": false,
      "t": 301764.3839999994,
      "d": 482.5362500001211,
      "v": 63
    },
    {
      "midi": 44,
      "hit": false,
      "t": 302205.5599999994,
      "d": 528.4920833334327,
      "v": 52
    },
    {
      "midi": 58,
      "hit": false,
      "t": 302426.1479999995,
      "d": 119.48516666668002,
      "v": 40
    },
    {
      "midi": 58,
      "hit": false,
      "t": 302646.7359999995,
      "d": 220.58799999998882,
      "v": 35
    },
    {
      "midi": 66,
      "hit": false,
      "t": 302646.7359999995,
      "d": 418.19808333332185,
      "v": 66
    },
    {
      "midi": 61,
      "hit": false,
      "t": 302646.7359999995,
      "d": 422.79366666666465,
      "v": 58
    },
    {
      "midi": 44,
      "hit": false,
      "t": 303087.9119999995,
      "d": 82.72049999999581,
      "v": 35
    },
    {
      "midi": 58,
      "hit": false,
      "t": 303087.9119999995,
      "d": 82.72049999999581,
      "v": 43
    },
    {
      "midi": 44,
      "hit": false,
      "t": 303308.4999999995,
      "d": 45.9558333333116,
      "v": 20
    },
    {
      "midi": 44,
      "hit": false,
      "t": 303529.08799999946,
      "d": 137.86749999999302,
      "v": 63
    },
    {
      "midi": 56,
      "hit": false,
      "t": 303529.08799999946,
      "d": 294.11733333335724,
      "v": 43
    },
    {
      "midi": 63,
      "hit": false,
      "t": 303529.08799999946,
      "d": 294.11733333335724,
      "v": 55
    },
    {
      "midi": 59,
      "hit": false,
      "t": 303529.08799999946,
      "d": 312.49966666667024,
      "v": 60
    },
    {
      "midi": 44,
      "hit": false,
      "t": 303749.6759999995,
      "d": 693.9330833332497,
      "v": 57
    },
    {
      "midi": 56,
      "hit": false,
      "t": 303970.26399999944,
      "d": 110.29399999999441,
      "v": 51
    },
    {
      "midi": 59,
      "hit": false,
      "t": 304190.85199999943,
      "d": 128.6763333333074,
      "v": 42
    },
    {
      "midi": 56,
      "hit": false,
      "t": 304411.4399999994,
      "d": 225.18358333333163,
      "v": 76
    },
    {
      "midi": 63,
      "hit": false,
      "t": 304411.4399999994,
      "d": 271.1394166666432,
      "v": 62
    },
    {
      "midi": 44,
      "hit": false,
      "t": 304632.0279999994,
      "d": 326.28641666664043,
      "v": 71
    },
    {
      "midi": 56,
      "hit": false,
      "t": 304852.6159999994,
      "d": 105.69841666665161,
      "v": 52
    },
    {
      "midi": 52,
      "hit": false,
      "t": 305293.7919999994,
      "d": 252.75708333333023,
      "v": 53
    },
    {
      "midi": 64,
      "hit": false,
      "t": 305293.7919999994,
      "d": 390.62458333332324,
      "v": 67
    },
    {
      "midi": 68,
      "hit": false,
      "t": 305293.7919999994,
      "d": 413.60249999997905,
      "v": 58
    },
    {
      "midi": 59,
      "hit": false,
      "t": 305293.7919999994,
      "d": 473.34508333331905,
      "v": 71
    },
    {
      "midi": 40,
      "hit": false,
      "t": 305293.7919999994,
      "d": 1066.1753333333181,
      "v": 68
    },
    {
      "midi": 52,
      "hit": false,
      "t": 305734.96799999935,
      "d": 533.0876666666591,
      "v": 53
    },
    {
      "midi": 59,
      "hit": false,
      "t": 305955.55599999934,
      "d": 105.69841666665161,
      "v": 20
    },
    {
      "midi": 59,
      "hit": false,
      "t": 306176.14399999933,
      "d": 427.38925000000745,
      "v": 67
    },
    {
      "midi": 64,
      "hit": false,
      "t": 306176.14399999933,
      "d": 441.17600000003586,
      "v": 63
    },
    {
      "midi": 68,
      "hit": false,
      "t": 306176.14399999933,
      "d": 445.77158333337866,
      "v": 51
    },
    {
      "midi": 52,
      "hit": false,
      "t": 306617.31999999937,
      "d": 335.47758333332604,
      "v": 52
    },
    {
      "midi": 40,
      "hit": false,
      "t": 306837.90799999936,
      "d": 1557.9027500000084,
      "v": 45
    },
    {
      "midi": 52,
      "hit": false,
      "t": 307058.49599999934,
      "d": 206.80125000001863,
      "v": 50
    },
    {
      "midi": 66,
      "hit": false,
      "t": 307058.49599999934,
      "d": 436.58041666669305,
      "v": 64
    },
    {
      "midi": 70,
      "hit": false,
      "t": 307058.49599999934,
      "d": 514.7053333333461,
      "v": 63
    },
    {
      "midi": 59,
      "hit": false,
      "t": 307499.6719999994,
      "d": 137.86749999999302,
      "v": 33
    },
    {
      "midi": 52,
      "hit": false,
      "t": 307499.6719999994,
      "d": 519.3009166666307,
      "v": 55
    },
    {
      "midi": 70,
      "hit": false,
      "t": 307940.84799999936,
      "d": 404.41133333329344,
      "v": 56
    },
    {
      "midi": 66,
      "hit": false,
      "t": 307940.84799999936,
      "d": 413.60249999997905,
      "v": 64
    },
    {
      "midi": 59,
      "hit": false,
      "t": 307940.84799999936,
      "d": 422.79366666666465,
      "v": 66
    },
    {
      "midi": 52,
      "hit": false,
      "t": 308382.02399999934,
      "d": 307.90408333338564,
      "v": 58
    },
    {
      "midi": 59,
      "hit": false,
      "t": 308602.6119999994,
      "d": 105.69841666665161,
      "v": 21
    },
    {
      "midi": 59,
      "hit": false,
      "t": 308823.1999999994,
      "d": 399.81575000000885,
      "v": 64
    },
    {
      "midi": 64,
      "hit": false,
      "t": 308823.1999999994,
      "d": 473.34508333337726,
      "v": 62
    },
    {
      "midi": 68,
      "hit": false,
      "t": 308823.1999999994,
      "d": 519.3009166666889,
      "v": 53
    },
    {
      "midi": 40,
      "hit": false,
      "t": 308823.1999999994,
      "d": 1148.895833333314,
      "v": 64
    },
    {
      "midi": 52,
      "hit": false,
      "t": 309264.3759999994,
      "d": 519.3009166666307,
      "v": 53
    },
    {
      "midi": 59,
      "hit": false,
      "t": 309484.9639999994,
      "d": 114.88958333333721,
      "v": 55
    },
    {
      "midi": 64,
      "hit": false,
      "t": 309705.5519999994,
      "d": 238.97033333330182,
      "v": 67
    },
    {
      "midi": 68,
      "hit": false,
      "t": 309705.5519999994,
      "d": 275.73499999998603,
      "v": 71
    },
    {
      "midi": 52,
      "hit": false,
      "t": 309926.1399999994,
      "d": 307.90408333332743,
      "v": 69
    },
    {
      "midi": 59,
      "hit": false,
      "t": 310146.72799999936,
      "d": 110.29399999999441,
      "v": 68
    },
    {
      "midi": 59,
      "hit": false,
      "t": 310367.31599999935,
      "d": 119.48516666668002,
      "v": 28
    },
    {
      "midi": 47,
      "hit": false,
      "t": 310587.9039999994,
      "d": 284.92616666667163,
      "v": 67
    },
    {
      "midi": 66,
      "hit": false,
      "t": 310587.9039999994,
      "d": 409.00691666669445,
      "v": 64
    },
    {
      "midi": 59,
      "hit": false,
      "t": 310587.9039999994,
      "d": 427.38925000000745,
      "v": 66
    },
    {
      "midi": 63,
      "hit": false,
      "t": 310587.9039999994,
      "d": 427.38925000000745,
      "v": 63
    },
    {
      "midi": 47,
      "hit": false,
      "t": 311029.07999999943,
      "d": 523.8964999999735,
      "v": 55
    },
    {
      "midi": 59,
      "hit": false,
      "t": 311249.6679999994,
      "d": 78.12491666665301,
      "v": 28
    },
    {
      "midi": 59,
      "hit": false,
      "t": 311470.2559999994,
      "d": 473.34508333331905,
      "v": 58
    },
    {
      "midi": 66,
      "hit": false,
      "t": 311470.2559999994,
      "d": 482.53625000000466,
      "v": 63
    },
    {
      "midi": 63,
      "hit": false,
      "t": 311470.2559999994,
      "d": 496.32300000003306,
      "v": 58
    },
    {
      "midi": 47,
      "hit": false,
      "t": 311911.4319999994,
      "d": 114.88958333339542,
      "v": 57
    },
    {
      "midi": 47,
      "hit": false,
      "t": 312132.01999999944,
      "d": 96.50725000002421,
      "v": 36
    },
    {
      "midi": 47,
      "hit": false,
      "t": 312352.6079999995,
      "d": 183.82333333336283,
      "v": 57
    },
    {
      "midi": 61,
      "hit": false,
      "t": 312352.6079999995,
      "d": 468.74950000003446,
      "v": 64
    },
    {
      "midi": 58,
      "hit": false,
      "t": 312352.6079999995,
      "d": 491.72741666669026,
      "v": 53
    },
    {
      "midi": 66,
      "hit": false,
      "t": 312352.6079999995,
      "d": 491.72741666669026,
      "v": 64
    },
    {
      "midi": 47,
      "hit": false,
      "t": 312793.7839999995,
      "d": 523.8964999999735,
      "v": 57
    },
    {
      "midi": 61,
      "hit": false,
      "t": 313234.9599999995,
      "d": 363.05108333332464,
      "v": 62
    },
    {
      "midi": 58,
      "hit": false,
      "t": 313234.9599999995,
      "d": 372.24225000001024,
      "v": 51
    },
    {
      "midi": 66,
      "hit": false,
      "t": 313234.9599999995,
      "d": 376.83783333335305,
      "v": 62
    },
    {
      "midi": 47,
      "hit": false,
      "t": 313676.13599999953,
      "d": 114.88958333333721,
      "v": 50
    },
    {
      "midi": 47,
      "hit": false,
      "t": 314117.3119999995,
      "d": 229.77916666673264,
      "v": 68
    },
    {
      "midi": 59,
      "hit": false,
      "t": 314117.3119999995,
      "d": 487.13183333340567,
      "v": 69
    },
    {
      "midi": 66,
      "hit": false,
      "t": 314117.3119999995,
      "d": 491.72741666674847,
      "v": 68
    },
    {
      "midi": 63,
      "hit": false,
      "t": 314117.3119999995,
      "d": 505.5141666667769,
      "v": 69
    },
    {
      "midi": 47,
      "hit": false,
      "t": 314558.4879999996,
      "d": 133.27191666670842,
      "v": 47
    },
    {
      "midi": 47,
      "hit": false,
      "t": 314779.07599999965,
      "d": 96.50725000002421,
      "v": 22
    },
    {
      "midi": 59,
      "hit": false,
      "t": 314779.07599999965,
      "d": 101.10283333336702,
      "v": 46
    },
    {
      "midi": 59,
      "hit": false,
      "t": 314999.6639999997,
      "d": 243.56591666664463,
      "v": 79
    },
    {
      "midi": 63,
      "hit": false,
      "t": 314999.6639999997,
      "d": 284.92616666667163,
      "v": 87
    },
    {
      "midi": 66,
      "hit": false,
      "t": 314999.6639999997,
      "d": 284.92616666667163,
      "v": 71
    },
    {
      "midi": 47,
      "hit": false,
      "t": 315220.2519999997,
      "d": 137.86749999999302,
      "v": 62
    },
    {
      "midi": 47,
      "hit": false,
      "t": 315440.8399999997,
      "d": 96.50725000002421,
      "v": 69
    },
    {
      "midi": 54,
      "hit": false,
      "t": 326470.2399999997,
      "d": 303.30850000004284,
      "v": 91
    },
    {
      "midi": 61,
      "hit": false,
      "t": 326470.2399999997,
      "d": 487.13183333334746,
      "v": 99
    },
    {
      "midi": 66,
      "hit": false,
      "t": 326470.2399999997,
      "d": 496.32300000003306,
      "v": 84
    },
    {
      "midi": 70,
      "hit": false,
      "t": 326470.2399999997,
      "d": 546.8744166666875,
      "v": 76
    },
    {
      "midi": 42,
      "hit": false,
      "t": 326470.2399999997,
      "d": 1286.763333333307,
      "v": 87
    },
    {
      "midi": 54,
      "hit": false,
      "t": 326911.41599999974,
      "d": 519.3009166666307,
      "v": 63
    },
    {
      "midi": 61,
      "hit": false,
      "t": 327132.0039999997,
      "d": 114.88958333333721,
      "v": 48
    },
    {
      "midi": 66,
      "hit": false,
      "t": 327352.5919999997,
      "d": 427.38924999994924,
      "v": 79
    },
    {
      "midi": 61,
      "hit": false,
      "t": 327352.5919999997,
      "d": 441.17599999997765,
      "v": 76
    },
    {
      "midi": 70,
      "hit": false,
      "t": 327352.5919999997,
      "d": 445.77158333332045,
      "v": 71
    },
    {
      "midi": 54,
      "hit": false,
      "t": 327793.7679999997,
      "d": 202.20566666667582,
      "v": 71
    },
    {
      "midi": 61,
      "hit": false,
      "t": 328014.3559999997,
      "d": 110.29399999999441,
      "v": 52
    },
    {
      "midi": 42,
      "hit": false,
      "t": 328014.3559999997,
      "d": 2559.739916666702,
      "v": 61
    },
    {
      "midi": 54,
      "hit": false,
      "t": 328234.94399999967,
      "d": 119.48516666668002,
      "v": 64
    },
    {
      "midi": 61,
      "hit": false,
      "t": 328234.94399999967,
      "d": 468.74950000003446,
      "v": 82
    },
    {
      "midi": 68,
      "hit": false,
      "t": 328234.94399999967,
      "d": 473.34508333337726,
      "v": 82
    },
    {
      "midi": 71,
      "hit": false,
      "t": 328234.94399999967,
      "d": 500.91858333337586,
      "v": 73
    },
    {
      "midi": 54,
      "hit": false,
      "t": 328676.1199999997,
      "d": 537.6832500000019,
      "v": 66
    },
    {
      "midi": 61,
      "hit": false,
      "t": 328896.7079999997,
      "d": 91.91166666668141,
      "v": 57
    },
    {
      "midi": 61,
      "hit": false,
      "t": 329117.2959999997,
      "d": 390.62458333338145,
      "v": 84
    },
    {
      "midi": 71,
      "hit": false,
      "t": 329117.2959999997,
      "d": 395.22016666672425,
      "v": 67
    },
    {
      "midi": 68,
      "hit": false,
      "t": 329117.2959999997,
      "d": 413.60250000003725,
      "v": 79
    },
    {
      "midi": 54,
      "hit": false,
      "t": 329558.4719999997,
      "d": 537.6832500000019,
      "v": 57
    },
    {
      "midi": 61,
      "hit": false,
      "t": 329779.0599999997,
      "d": 87.31608333333861,
      "v": 35
    },
    {
      "midi": 66,
      "hit": false,
      "t": 329999.6479999997,
      "d": 376.83783333335305,
      "v": 71
    },
    {
      "midi": 70,
      "hit": false,
      "t": 329999.6479999997,
      "d": 399.81575000000885,
      "v": 67
    },
    {
      "midi": 61,
      "hit": false,
      "t": 329999.6479999997,
      "d": 409.00691666669445,
      "v": 76
    },
    {
      "midi": 54,
      "hit": false,
      "t": 330440.82399999973,
      "d": 110.29399999999441,
      "v": 56
    },
    {
      "midi": 59,
      "hit": false,
      "t": 330881.9999999997,
      "d": 381.43341666669585,
      "v": 87
    },
    {
      "midi": 64,
      "hit": false,
      "t": 330881.9999999997,
      "d": 441.17600000003586,
      "v": 76
    },
    {
      "midi": 68,
      "hit": false,
      "t": 330881.9999999997,
      "d": 477.94066666672006,
      "v": 67
    },
    {
      "midi": 52,
      "hit": false,
      "t": 330881.9999999997,
      "d": 487.13183333340567,
      "v": 76
    },
    {
      "midi": 40,
      "hit": false,
      "t": 330881.9999999997,
      "d": 634.1905000000843,
      "v": 79
    },
    {
      "midi": 47,
      "hit": false,
      "t": 331764.3519999998,
      "d": 284.92616666667163,
      "v": 73
    },
    {
      "midi": 59,
      "hit": false,
      "t": 331764.3519999998,
      "d": 468.74949999997625,
      "v": 67
    },
    {
      "midi": 66,
      "hit": false,
      "t": 331764.3519999998,
      "d": 473.34508333331905,
      "v": 66
    },
    {
      "midi": 63,
      "hit": false,
      "t": 331764.3519999998,
      "d": 482.53625000000466,
      "v": 73
    },
    {
      "midi": 47,
      "hit": false,
      "t": 332205.52799999976,
      "d": 464.15391666669166,
      "v": 46
    },
    {
      "midi": 59,
      "hit": false,
      "t": 332426.1159999998,
      "d": 73.5293333333102,
      "v": 36
    },
    {
      "midi": 59,
      "hit": false,
      "t": 332646.7039999998,
      "d": 491.72741666663205,
      "v": 52
    },
    {
      "midi": 66,
      "hit": false,
      "t": 332646.7039999998,
      "d": 505.51416666666046,
      "v": 61
    },
    {
      "midi": 63,
      "hit": false,
      "t": 332646.7039999998,
      "d": 514.7053333333461,
      "v": 50
    },
    {
      "midi": 47,
      "hit": false,
      "t": 333087.8799999998,
      "d": 142.46308333339402,
      "v": 48
    },
    {
      "midi": 42,
      "hit": false,
      "t": 333529.0559999998,
      "d": 1654.4100000000326,
      "v": 67
    },
    {
      "midi": 61,
      "hit": false,
      "t": 333529.0559999998,
      "d": 1654.4100000000326,
      "v": 73
    },
    {
      "midi": 58,
      "hit": false,
      "t": 333529.0559999998,
      "d": 1691.1746666667168,
      "v": 71
    },
    {
      "midi": 66,
      "hit": false,
      "t": 333529.0559999998,
      "d": 1691.1746666667168,
      "v": 71
    },
    {
      "midi": 54,
      "hit": false,
      "t": 333529.0559999998,
      "d": 1727.939333333401,
      "v": 66
    },
    {
      "midi": 71,
      "hit": false,
      "t": 335514.3479999999,
      "d": 243.56591666664463,
      "v": 64
    },
    {
      "midi": 83,
      "hit": false,
      "t": 335734.93599999987,
      "d": 441.17599999997765,
      "v": 58
    },
    {
      "midi": 71,
      "hit": false,
      "t": 335955.52399999986,
      "d": 243.56591666664463,
      "v": 51
    },
    {
      "midi": 82,
      "hit": false,
      "t": 336176.11199999985,
      "d": 661.7639999999665,
      "v": 61
    },
    {
      "midi": 71,
      "hit": false,
      "t": 336396.69999999984,
      "d": 597.4258333332837,
      "v": 37
    },
    {
      "midi": 83,
      "hit": false,
      "t": 336617.2879999998,
      "d": 441.17599999997765,
      "v": 49
    },
    {
      "midi": 78,
      "hit": false,
      "t": 336837.8759999998,
      "d": 882.3520000000135,
      "v": 49
    },
    {
      "midi": 68,
      "hit": false,
      "t": 337049.2728333331,
      "d": 1645.218833333347,
      "v": 26
    },
    {
      "midi": 71,
      "hit": false,
      "t": 337279.0519999998,
      "d": 229.77916666667443,
      "v": 51
    },
    {
      "midi": 83,
      "hit": false,
      "t": 337499.6399999998,
      "d": 441.17600000003586,
      "v": 52
    },
    {
      "midi": 71,
      "hit": false,
      "t": 337720.2279999998,
      "d": 238.97033333330182,
      "v": 51
    },
    {
      "midi": 82,
      "hit": false,
      "t": 337940.8159999998,
      "d": 661.7639999999665,
      "v": 53
    },
    {
      "midi": 71,
      "hit": false,
      "t": 338161.4039999998,
      "d": 749.0800833333051,
      "v": 48
    },
    {
      "midi": 83,
      "hit": false,
      "t": 338381.9919999998,
      "d": 441.17599999997765,
      "v": 49
    },
    {
      "midi": 78,
      "hit": false,
      "t": 338602.5799999998,
      "d": 1102.9399999999441,
      "v": 49
    },
    {
      "midi": 68,
      "hit": false,
      "t": 338804.78566666646,
      "d": 1737.1304999999702,
      "v": 40
    },
    {
      "midi": 71,
      "hit": false,
      "t": 339043.75599999976,
      "d": 248.16149999998743,
      "v": 46
    },
    {
      "midi": 83,
      "hit": false,
      "t": 339264.34399999975,
      "d": 441.17599999997765,
      "v": 51
    },
    {
      "midi": 71,
      "hit": false,
      "t": 339484.93199999974,
      "d": 261.94825000001583,
      "v": 51
    },
    {
      "midi": 82,
      "hit": false,
      "t": 339705.5199999997,
      "d": 661.7640000000247,
      "v": 51
    },
    {
      "midi": 71,
      "hit": false,
      "t": 339926.1079999998,
      "d": 758.2712499999907,
      "v": 45
    },
    {
      "midi": 83,
      "hit": false,
      "t": 340146.69599999976,
      "d": 441.17599999997765,
      "v": 49
    },
    {
      "midi": 78,
      "hit": false,
      "t": 340367.28399999975,
      "d": 1102.9400000000023,
      "v": 42
    },
    {
      "midi": 68,
      "hit": false,
      "t": 340615.44549999974,
      "d": 1640.6232500000624,
      "v": 36
    },
    {
      "midi": 71,
      "hit": false,
      "t": 340808.4599999998,
      "d": 266.5438333333004,
      "v": 43
    },
    {
      "midi": 83,
      "hit": false,
      "t": 341029.0479999998,
      "d": 661.7640000000247,
      "v": 45
    },
    {
      "midi": 71,
      "hit": false,
      "t": 341249.63599999977,
      "d": 234.37475000001723,
      "v": 33
    },
    {
      "midi": 82,
      "hit": false,
      "t": 341470.22399999975,
      "d": 661.7640000000247,
      "v": 49
    },
    {
      "midi": 71,
      "hit": false,
      "t": 341690.8119999998,
      "d": 795.0359166666749,
      "v": 40
    },
    {
      "midi": 83,
      "hit": false,
      "t": 341911.3999999998,
      "d": 441.17600000003586,
      "v": 45
    },
    {
      "midi": 78,
      "hit": false,
      "t": 342131.9879999998,
      "d": 1323.5280000000494,
      "v": 42
    },
    {
      "midi": 68,
      "hit": false,
      "t": 342338.7892499998,
      "d": 1700.3658333333442,
      "v": 30
    },
    {
      "midi": 71,
      "hit": false,
      "t": 342573.1639999998,
      "d": 261.94825000001583,
      "v": 47
    },
    {
      "midi": 83,
      "hit": false,
      "t": 342793.7519999998,
      "d": 441.17600000003586,
      "v": 46
    },
    {
      "midi": 71,
      "hit": false,
      "t": 343014.33999999985,
      "d": 252.75708333333023,
      "v": 42
    },
    {
      "midi": 82,
      "hit": false,
      "t": 343234.92799999984,
      "d": 661.7639999999665,
      "v": 45
    },
    {
      "midi": 71,
      "hit": false,
      "t": 343455.5159999998,
      "d": 749.0800833333051,
      "v": 35
    },
    {
      "midi": 83,
      "hit": false,
      "t": 343676.1039999998,
      "d": 441.17599999997765,
      "v": 42
    },
    {
      "midi": 78,
      "hit": false,
      "t": 343896.6919999998,
      "d": 1323.527999999933,
      "v": 37
    },
    {
      "midi": 68,
      "hit": false,
      "t": 344117.2799999998,
      "d": 1709.5569999999134,
      "v": 37
    },
    {
      "midi": 71,
      "hit": false,
      "t": 344337.8679999998,
      "d": 271.1394166666432,
      "v": 49
    },
    {
      "midi": 83,
      "hit": false,
      "t": 344558.4559999998,
      "d": 441.17599999997765,
      "v": 46
    },
    {
      "midi": 71,
      "hit": false,
      "t": 344779.04399999976,
      "d": 248.16149999998743,
      "v": 38
    },
    {
      "midi": 82,
      "hit": false,
      "t": 344999.63199999975,
      "d": 441.17599999997765,
      "v": 43
    },
    {
      "midi": 71,
      "hit": false,
      "t": 345220.21999999974,
      "d": 767.4624166666181,
      "v": 33
    },
    {
      "midi": 83,
      "hit": false,
      "t": 345440.8079999997,
      "d": 441.17599999997765,
      "v": 43
    },
    {
      "midi": 78,
      "hit": false,
      "t": 345661.3959999997,
      "d": 882.3519999999553,
      "v": 41
    },
    {
      "midi": 68,
      "hit": false,
      "t": 345854.4104999997,
      "d": 1562.4983333333512,
      "v": 31
    },
    {
      "midi": 71,
      "hit": false,
      "t": 346070.40291666635,
      "d": 275.73499999998603,
      "v": 27
    },
    {
      "midi": 83,
      "hit": false,
      "t": 346300.182083333,
      "d": 266.5438333333004,
      "v": 48
    },
    {
      "midi": 71,
      "hit": false,
      "t": 346511.57891666633,
      "d": 261.94825000001583,
      "v": 37
    },
    {
      "midi": 82,
      "hit": false,
      "t": 346718.38016666635,
      "d": 289.52175000001444,
      "v": 36
    },
    {
      "midi": 71,
      "hit": false,
      "t": 346943.5637499997,
      "d": 762.8668333333335,
      "v": 32
    },
    {
      "midi": 83,
      "hit": false,
      "t": 347150.3649999997,
      "d": 202.20566666667582,
      "v": 37
    },
    {
      "midi": 78,
      "hit": false,
      "t": 347384.7397499997,
      "d": 1176.4693333332543,
      "v": 38
    },
    {
      "midi": 68,
      "hit": false,
      "t": 347577.7542499997,
      "d": 1737.1304999999702,
      "v": 1
    },
    {
      "midi": 71,
      "hit": false,
      "t": 347862.6804166663,
      "d": 317.09524999995483,
      "v": 40
    },
    {
      "midi": 83,
      "hit": false,
      "t": 348133.81983333296,
      "d": 330.88199999998324,
      "v": 48
    },
    {
      "midi": 71,
      "hit": false,
      "t": 348377.3857499996,
      "d": 353.85991666669725,
      "v": 41
    },
    {
      "midi": 82,
      "hit": false,
      "t": 348657.716333333,
      "d": 514.7053333333461,
      "v": 33
    },
    {
      "midi": 71,
      "hit": false,
      "t": 348961.024833333,
      "d": 730.6977500000503,
      "v": 33
    },
    {
      "midi": 83,
      "hit": false,
      "t": 349305.693583333,
      "d": 680.1463333333959,
      "v": 46
    },
    {
      "midi": 71,
      "hit": false,
      "t": 349861.75916666636,
      "d": 1102.9400000000023,
      "v": 10
    },
    {
      "midi": 71,
      "hit": false,
      "t": 351240.43416666635,
      "d": 2858.4528333333437,
      "v": 20
    }
  ]
}