{
  "jsonPath": "Classical/Late Romantic Era/Pablo de Sarasate/siciliano.json",
  "path": "Classical\\Late Romantic Era\\Pablo de Sarasate\\Siciliano.mid",
  "name": "Siciliano",
  "difficulty": "Advanced",
  "bpm": 120,
  "notes": [
    {
      "midi": 41,
      "hit": false,
      "t": 0,
      "d": 500,
      "v": 107
    },
    {
      "midi": 65,
      "hit": false,
      "t": 500,
      "d": 250,
      "v": 108
    },
    {
      "midi": 69,
      "hit": false,
      "t": 500,
      "d": 250,
      "v": 99
    },
    {
      "midi": 65,
      "hit": false,
      "t": 750,
      "d": 500,
      "v": 114
    },
    {
      "midi": 69,
      "hit": false,
      "t": 750,
      "d": 500,
      "v": 107
    },
    {
      "midi": 72,
      "hit": false,
      "t": 1250,
      "d": 250,
      "v": 107
    },
    {
      "midi": 65,
      "hit": false,
      "t": 1250,
      "d": 250,
      "v": 112
    },
    {
      "midi": 69,
      "hit": false,
      "t": 1250,
      "d": 250,
      "v": 102
    },
    {
      "midi": 74,
      "hit": false,
      "t": 1500,
      "d": 375,
      "v": 117
    },
    {
      "midi": 65,
      "hit": false,
      "t": 1500,
      "d": 500,
      "v": 114
    },
    {
      "midi": 70,
      "hit": false,
      "t": 1500,
      "d": 500,
      "v": 95
    },
    {
      "midi": 72,
      "hit": false,
      "t": 1875,
      "d": 125,
      "v": 99
    },
    {
      "midi": 74,
      "hit": false,
      "t": 2000,
      "d": 250,
      "v": 108
    },
    {
      "midi": 65,
      "hit": false,
      "t": 2000,
      "d": 250,
      "v": 108
    },
    {
      "midi": 70,
      "hit": false,
      "t": 2000,
      "d": 250,
      "v": 89
    },
    {
      "midi": 76,
      "hit": false,
      "t": 2250,
      "d": 375,
      "v": 110
    },
    {
      "midi": 65,
      "hit": false,
      "t": 2250,
      "d": 500,
      "v": 112
    },
    {
      "midi": 67,
      "hit": false,
      "t": 2250,
      "d": 500,
      "v": 112
    },
    {
      "midi": 74,
      "hit": false,
      "t": 2625,
      "d": 125,
      "v": 99
    },
    {
      "midi": 76,
      "hit": false,
      "t": 2750,
      "d": 250,
      "v": 112
    },
    {
      "midi": 65,
      "hit": false,
      "t": 2750,
      "d": 250,
      "v": 103
    },
    {
      "midi": 67,
      "hit": false,
      "t": 2750,
      "d": 250,
      "v": 97
    },
    {
      "midi": 77,
      "hit": false,
      "t": 3000,
      "d": 500,
      "v": 103
    },
    {
      "midi": 65,
      "hit": false,
      "t": 3000,
      "d": 500,
      "v": 112
    },
    {
      "midi": 69,
      "hit": false,
      "t": 3000,
      "d": 500,
      "v": 108
    },
    {
      "midi": 72,
      "hit": false,
      "t": 3500,
      "d": 250,
      "v": 101
    },
    {
      "midi": 65,
      "hit": false,
      "t": 3500,
      "d": 250,
      "v": 108
    },
    {
      "midi": 69,
      "hit": false,
      "t": 3500,
      "d": 250,
      "v": 99
    },
    {
      "midi": 77,
      "hit": false,
      "t": 3750,
      "d": 500,
      "v": 107
    },
    {
      "midi": 65,
      "hit": false,
      "t": 3750,
      "d": 500,
      "v": 108
    },
    {
      "midi": 69,
      "hit": false,
      "t": 3750,
      "d": 500,
      "v": 106
    },
    {
      "midi": 76,
      "hit": false,
      "t": 4250,
      "d": 250,
      "v": 112
    },
    {
      "midi": 65,
      "hit": false,
      "t": 4250,
      "d": 250,
      "v": 108
    },
    {
      "midi": 69,
      "hit": false,
      "t": 4250,
      "d": 250,
      "v": 102
    },
    {
      "midi": 74,
      "hit": false,
      "t": 4500,
      "d": 375,
      "v": 112
    },
    {
      "midi": 65,
      "hit": false,
      "t": 4500,
      "d": 500,
      "v": 110
    },
    {
      "midi": 70,
      "hit": false,
      "t": 4500,
      "d": 500,
      "v": 89
    },
    {
      "midi": 72,
      "hit": false,
      "t": 4875,
      "d": 125,
      "v": 91
    },
    {
      "midi": 74,
      "hit": false,
      "t": 5000,
      "d": 250,
      "v": 106
    },
    {
      "midi": 65,
      "hit": false,
      "t": 5000,
      "d": 250,
      "v": 102
    },
    {
      "midi": 70,
      "hit": false,
      "t": 5000,
      "d": 250,
      "v": 85
    },
    {
      "midi": 76,
      "hit": false,
      "t": 5250,
      "d": 375,
      "v": 112
    },
    {
      "midi": 65,
      "hit": false,
      "t": 5250,
      "d": 500,
      "v": 104
    },
    {
      "midi": 67,
      "hit": false,
      "t": 5250,
      "d": 500,
      "v": 107
    },
    {
      "midi": 74,
      "hit": false,
      "t": 5625,
      "d": 125,
      "v": 95
    },
    {
      "midi": 76,
      "hit": false,
      "t": 5750,
      "d": 250,
      "v": 108
    },
    {
      "midi": 65,
      "hit": false,
      "t": 5750,
      "d": 250,
      "v": 104
    },
    {
      "midi": 67,
      "hit": false,
      "t": 5750,
      "d": 250,
      "v": 104
    },
    {
      "midi": 77,
      "hit": false,
      "t": 6000,
      "d": 500,
      "v": 102
    },
    {
      "midi": 65,
      "hit": false,
      "t": 6000,
      "d": 500,
      "v": 108
    },
    {
      "midi": 69,
      "hit": false,
      "t": 6000,
      "d": 500,
      "v": 91
    },
    {
      "midi": 72,
      "hit": false,
      "t": 6500,
      "d": 250,
      "v": 87
    },
    {
      "midi": 65,
      "hit": false,
      "t": 6500,
      "d": 250,
      "v": 107
    },
    {
      "midi": 69,
      "hit": false,
      "t": 6500,
      "d": 250,
      "v": 93
    },
    {
      "midi": 77,
      "hit": false,
      "t": 6750,
      "d": 500,
      "v": 108
    },
    {
      "midi": 65,
      "hit": false,
      "t": 6750,
      "d": 500,
      "v": 102
    },
    {
      "midi": 69,
      "hit": false,
      "t": 6750,
      "d": 500,
      "v": 101
    },
    {
      "midi": 72,
      "hit": false,
      "t": 7250,
      "d": 250,
      "v": 82
    },
    {
      "midi": 79,
      "hit": false,
      "t": 7250,
      "d": 250,
      "v": 106
    },
    {
      "midi": 64,
      "hit": false,
      "t": 7250,
      "d": 250,
      "v": 99
    },
    {
      "midi": 72,
      "hit": false,
      "t": 7500,
      "d": 375,
      "v": 107
    },
    {
      "midi": 81,
      "hit": false,
      "t": 7500,
      "d": 375,
      "v": 107
    },
    {
      "midi": 65,
      "hit": false,
      "t": 7500,
      "d": 375,
      "v": 115
    },
    {
      "midi": 79,
      "hit": false,
      "t": 7875,
      "d": 125,
      "v": 103
    },
    {
      "midi": 64,
      "hit": false,
      "t": 7875,
      "d": 125,
      "v": 97
    },
    {
      "midi": 77,
      "hit": false,
      "t": 8000,
      "d": 250,
      "v": 112
    },
    {
      "midi": 65,
      "hit": false,
      "t": 8000,
      "d": 250,
      "v": 120
    },
    {
      "midi": 76,
      "hit": false,
      "t": 8250,
      "d": 500,
      "v": 108
    },
    {
      "midi": 67,
      "hit": false,
      "t": 8250,
      "d": 375,
      "v": 115
    },
    {
      "midi": 70,
      "hit": false,
      "t": 8250,
      "d": 375,
      "v": 104
    },
    {
      "midi": 65,
      "hit": false,
      "t": 8625,
      "d": 125,
      "v": 102
    },
    {
      "midi": 74,
      "hit": false,
      "t": 8750,
      "d": 250,
      "v": 83
    },
    {
      "midi": 67,
      "hit": false,
      "t": 8750,
      "d": 250,
      "v": 114
    },
    {
      "midi": 73,
      "hit": false,
      "t": 9000,
      "d": 500,
      "v": 103
    },
    {
      "midi": 69,
      "hit": false,
      "t": 9000,
      "d": 500,
      "v": 110
    },
    {
      "midi": 76,
      "hit": false,
      "t": 9500,
      "d": 250,
      "v": 106
    },
    {
      "midi": 69,
      "hit": false,
      "t": 9500,
      "d": 250,
      "v": 112
    },
    {
      "midi": 73,
      "hit": false,
      "t": 9500,
      "d": 250,
      "v": 89
    },
    {
      "midi": 76,
      "hit": false,
      "t": 9750,
      "d": 375,
      "v": 110
    },
    {
      "midi": 69,
      "hit": false,
      "t": 9750,
      "d": 500,
      "v": 110
    },
    {
      "midi": 73,
      "hit": false,
      "t": 9750,
      "d": 500,
      "v": 93
    },
    {
      "midi": 74,
      "hit": false,
      "t": 10125,
      "d": 125,
      "v": 79
    },
    {
      "midi": 76,
      "hit": false,
      "t": 10250,
      "d": 250,
      "v": 101
    },
    {
      "midi": 69,
      "hit": false,
      "t": 10250,
      "d": 250,
      "v": 112
    },
    {
      "midi": 73,
      "hit": false,
      "t": 10250,
      "d": 250,
      "v": 95
    },
    {
      "midi": 77,
      "hit": false,
      "t": 10500,
      "d": 375,
      "v": 106
    },
    {
      "midi": 69,
      "hit": false,
      "t": 10500,
      "d": 500,
      "v": 115
    },
    {
      "midi": 74,
      "hit": false,
      "t": 10500,
      "d": 500,
      "v": 110
    },
    {
      "midi": 76,
      "hit": false,
      "t": 10875,
      "d": 125,
      "v": 93
    },
    {
      "midi": 77,
      "hit": false,
      "t": 11000,
      "d": 250,
      "v": 103
    },
    {
      "midi": 69,
      "hit": false,
      "t": 11000,
      "d": 250,
      "v": 107
    },
    {
      "midi": 74,
      "hit": false,
      "t": 11000,
      "d": 250,
      "v": 103
    },
    {
      "midi": 79,
      "hit": false,
      "t": 11250,
      "d": 375,
      "v": 107
    },
    {
      "midi": 70,
      "hit": false,
      "t": 11250,
      "d": 500,
      "v": 113
    },
    {
      "midi": 74,
      "hit": false,
      "t": 11250,
      "d": 500,
      "v": 110
    },
    {
      "midi": 77,
      "hit": false,
      "t": 11625,
      "d": 125,
      "v": 95
    },
    {
      "midi": 79,
      "hit": false,
      "t": 11750,
      "d": 250,
      "v": 106
    },
    {
      "midi": 70,
      "hit": false,
      "t": 11750,
      "d": 250,
      "v": 89
    },
    {
      "midi": 74,
      "hit": false,
      "t": 11750,
      "d": 250,
      "v": 95
    },
    {
      "midi": 81,
      "hit": false,
      "t": 12000,
      "d": 500,
      "v": 103
    },
    {
      "midi": 69,
      "hit": false,
      "t": 12000,
      "d": 500,
      "v": 108
    },
    {
      "midi": 73,
      "hit": false,
      "t": 12000,
      "d": 500,
      "v": 87
    },
    {
      "midi": 76,
      "hit": false,
      "t": 12500,
      "d": 250,
      "v": 97
    },
    {
      "midi": 69,
      "hit": false,
      "t": 12500,
      "d": 250,
      "v": 104
    },
    {
      "midi": 73,
      "hit": false,
      "t": 12500,
      "d": 250,
      "v": 81
    },
    {
      "midi": 76,
      "hit": false,
      "t": 12750,
      "d": 375,
      "v": 114
    },
    {
      "midi": 69,
      "hit": false,
      "t": 12750,
      "d": 500,
      "v": 107
    },
    {
      "midi": 73,
      "hit": false,
      "t": 12750,
      "d": 500,
      "v": 83
    },
    {
      "midi": 74,
      "hit": false,
      "t": 13125,
      "d": 125,
      "v": 103
    },
    {
      "midi": 76,
      "hit": false,
      "t": 13250,
      "d": 250,
      "v": 89
    },
    {
      "midi": 69,
      "hit": false,
      "t": 13250,
      "d": 250,
      "v": 104
    },
    {
      "midi": 73,
      "hit": false,
      "t": 13250,
      "d": 250,
      "v": 77
    },
    {
      "midi": 77,
      "hit": false,
      "t": 13500,
      "d": 375,
      "v": 108
    },
    {
      "midi": 69,
      "hit": false,
      "t": 13500,
      "d": 500,
      "v": 114
    },
    {
      "midi": 74,
      "hit": false,
      "t": 13500,
      "d": 500,
      "v": 108
    },
    {
      "midi": 76,
      "hit": false,
      "t": 13875,
      "d": 125,
      "v": 95
    },
    {
      "midi": 77,
      "hit": false,
      "t": 14000,
      "d": 250,
      "v": 102
    },
    {
      "midi": 69,
      "hit": false,
      "t": 14000,
      "d": 250,
      "v": 106
    },
    {
      "midi": 74,
      "hit": false,
      "t": 14000,
      "d": 250,
      "v": 102
    },
    {
      "midi": 79,
      "hit": false,
      "t": 14250,
      "d": 375,
      "v": 108
    },
    {
      "midi": 70,
      "hit": false,
      "t": 14250,
      "d": 500,
      "v": 103
    },
    {
      "midi": 74,
      "hit": false,
      "t": 14250,
      "d": 500,
      "v": 104
    },
    {
      "midi": 77,
      "hit": false,
      "t": 14625,
      "d": 125,
      "v": 95
    },
    {
      "midi": 79,
      "hit": false,
      "t": 14750,
      "d": 250,
      "v": 110
    },
    {
      "midi": 70,
      "hit": false,
      "t": 14750,
      "d": 250,
      "v": 101
    },
    {
      "midi": 74,
      "hit": false,
      "t": 14750,
      "d": 250,
      "v": 95
    },
    {
      "midi": 81,
      "hit": false,
      "t": 15000,
      "d": 500,
      "v": 107
    },
    {
      "midi": 69,
      "hit": false,
      "t": 15000,
      "d": 500,
      "v": 112
    },
    {
      "midi": 73,
      "hit": false,
      "t": 15000,
      "d": 500,
      "v": 87
    },
    {
      "midi": 73,
      "hit": false,
      "t": 15500,
      "d": 250,
      "v": 89
    },
    {
      "midi": 81,
      "hit": false,
      "t": 15500,
      "d": 250,
      "v": 112
    },
    {
      "midi": 69,
      "hit": false,
      "t": 15500,
      "d": 250,
      "v": 107
    },
    {
      "midi": 73,
      "hit": false,
      "t": 15750,
      "d": 500,
      "v": 103
    },
    {
      "midi": 81,
      "hit": false,
      "t": 15750,
      "d": 500,
      "v": 117
    },
    {
      "midi": 69,
      "hit": false,
      "t": 15750,
      "d": 500,
      "v": 103
    },
    {
      "midi": 72,
      "hit": false,
      "t": 16250,
      "d": 250,
      "v": 97
    },
    {
      "midi": 81,
      "hit": false,
      "t": 16250,
      "d": 250,
      "v": 108
    },
    {
      "midi": 62,
      "hit": false,
      "t": 16250,
      "d": 250,
      "v": 103
    },
    {
      "midi": 67,
      "hit": false,
      "t": 16250,
      "d": 250,
      "v": 108
    },
    {
      "midi": 72,
      "hit": false,
      "t": 16500,
      "d": 375,
      "v": 117
    },
    {
      "midi": 81,
      "hit": false,
      "t": 16500,
      "d": 375,
      "v": 108
    },
    {
      "midi": 62,
      "hit": false,
      "t": 16500,
      "d": 500,
      "v": 108
    },
    {
      "midi": 66,
      "hit": false,
      "t": 16500,
      "d": 500,
      "v": 104
    },
    {
      "midi": 74,
      "hit": false,
      "t": 16875,
      "d": 125,
      "v": 103
    },
    {
      "midi": 75,
      "hit": false,
      "t": 17000,
      "d": 250,
      "v": 104
    },
    {
      "midi": 62,
      "hit": false,
      "t": 17000,
      "d": 250,
      "v": 106
    },
    {
      "midi": 66,
      "hit": false,
      "t": 17000,
      "d": 250,
      "v": 101
    },
    {
      "midi": 72,
      "hit": false,
      "t": 17250,
      "d": 500,
      "v": 99
    },
    {
      "midi": 81,
      "hit": false,
      "t": 17250,
      "d": 500,
      "v": 107
    },
    {
      "midi": 62,
      "hit": false,
      "t": 17250,
      "d": 500,
      "v": 114
    },
    {
      "midi": 66,
      "hit": false,
      "t": 17250,
      "d": 500,
      "v": 108
    },
    {
      "midi": 72,
      "hit": false,
      "t": 17750,
      "d": 250,
      "v": 104
    },
    {
      "midi": 79,
      "hit": false,
      "t": 17750,
      "d": 250,
      "v": 108
    },
    {
      "midi": 63,
      "hit": false,
      "t": 17750,
      "d": 250,
      "v": 79
    },
    {
      "midi": 67,
      "hit": false,
      "t": 17750,
      "d": 250,
      "v": 106
    },
    {
      "midi": 72,
      "hit": false,
      "t": 18000,
      "d": 375,
      "v": 108
    },
    {
      "midi": 78,
      "hit": false,
      "t": 18000,
      "d": 375,
      "v": 110
    },
    {
      "midi": 62,
      "hit": false,
      "t": 18000,
      "d": 500,
      "v": 107
    },
    {
      "midi": 69,
      "hit": false,
      "t": 18000,
      "d": 500,
      "v": 107
    },
    {
      "midi": 74,
      "hit": false,
      "t": 18375,
      "d": 125,
      "v": 91
    },
    {
      "midi": 75,
      "hit": false,
      "t": 18500,
      "d": 250,
      "v": 103
    },
    {
      "midi": 62,
      "hit": false,
      "t": 18500,
      "d": 250,
      "v": 107
    },
    {
      "midi": 69,
      "hit": false,
      "t": 18500,
      "d": 250,
      "v": 103
    },
    {
      "midi": 74,
      "hit": false,
      "t": 18750,
      "d": 500,
      "v": 107
    },
    {
      "midi": 78,
      "hit": false,
      "t": 18750,
      "d": 500,
      "v": 117
    },
    {
      "midi": 62,
      "hit": false,
      "t": 18750,
      "d": 500,
      "v": 115
    },
    {
      "midi": 69,
      "hit": false,
      "t": 18750,
      "d": 500,
      "v": 107
    },
    {
      "midi": 72,
      "hit": false,
      "t": 19250,
      "d": 250,
      "v": 106
    },
    {
      "midi": 78,
      "hit": false,
      "t": 19250,
      "d": 250,
      "v": 108
    },
    {
      "midi": 62,
      "hit": false,
      "t": 19250,
      "d": 250,
      "v": 102
    },
    {
      "midi": 69,
      "hit": false,
      "t": 19250,
      "d": 250,
      "v": 95
    },
    {
      "midi": 70,
      "hit": false,
      "t": 19500,
      "d": 375,
      "v": 103
    },
    {
      "midi": 79,
      "hit": false,
      "t": 19500,
      "d": 375,
      "v": 114
    },
    {
      "midi": 62,
      "hit": false,
      "t": 19500,
      "d": 500,
      "v": 110
    },
    {
      "midi": 67,
      "hit": false,
      "t": 19500,
      "d": 500,
      "v": 114
    },
    {
      "midi": 69,
      "hit": false,
      "t": 19875,
      "d": 125,
      "v": 114
    },
    {
      "midi": 70,
      "hit": false,
      "t": 20000,
      "d": 250,
      "v": 101
    },
    {
      "midi": 62,
      "hit": false,
      "t": 20000,
      "d": 250,
      "v": 106
    },
    {
      "midi": 67,
      "hit": false,
      "t": 20000,
      "d": 250,
      "v": 106
    },
    {
      "midi": 72,
      "hit": false,
      "t": 20250,
      "d": 375,
      "v": 114
    },
    {
      "midi": 79,
      "hit": false,
      "t": 20250,
      "d": 375,
      "v": 110
    },
    {
      "midi": 63,
      "hit": false,
      "t": 20250,
      "d": 500,
      "v": 104
    },
    {
      "midi": 67,
      "hit": false,
      "t": 20250,
      "d": 500,
      "v": 112
    },
    {
      "midi": 70,
      "hit": false,
      "t": 20625,
      "d": 125,
      "v": 103
    },
    {
      "midi": 72,
      "hit": false,
      "t": 20750,
      "d": 250,
      "v": 110
    },
    {
      "midi": 79,
      "hit": false,
      "t": 20750,
      "d": 250,
      "v": 114
    },
    {
      "midi": 63,
      "hit": false,
      "t": 20750,
      "d": 250,
      "v": 87
    },
    {
      "midi": 67,
      "hit": false,
      "t": 20750,
      "d": 250,
      "v": 104
    },
    {
      "midi": 74,
      "hit": false,
      "t": 21000,
      "d": 500,
      "v": 103
    },
    {
      "midi": 78,
      "hit": false,
      "t": 21000,
      "d": 500,
      "v": 70
    },
    {
      "midi": 62,
      "hit": false,
      "t": 21000,
      "d": 500,
      "v": 106
    },
    {
      "midi": 69,
      "hit": false,
      "t": 21000,
      "d": 500,
      "v": 103
    },
    {
      "midi": 74,
      "hit": false,
      "t": 21500,
      "d": 250,
      "v": 101
    },
    {
      "midi": 62,
      "hit": false,
      "t": 21500,
      "d": 250,
      "v": 95
    },
    {
      "midi": 66,
      "hit": false,
      "t": 21500,
      "d": 250,
      "v": 85
    },
    {
      "midi": 74,
      "hit": false,
      "t": 21750,
      "d": 500,
      "v": 127
    },
    {
      "midi": 62,
      "hit": false,
      "t": 21750,
      "d": 500,
      "v": 120
    },
    {
      "midi": 66,
      "hit": false,
      "t": 21750,
      "d": 500,
      "v": 110
    },
    {
      "midi": 72,
      "hit": false,
      "t": 22250,
      "d": 250,
      "v": 99
    },
    {
      "midi": 62,
      "hit": false,
      "t": 22250,
      "d": 250,
      "v": 79
    },
    {
      "midi": 66,
      "hit": false,
      "t": 22250,
      "d": 250,
      "v": 83
    },
    {
      "midi": 70,
      "hit": false,
      "t": 22500,
      "d": 375,
      "v": 104
    },
    {
      "midi": 62,
      "hit": false,
      "t": 22500,
      "d": 500,
      "v": 110
    },
    {
      "midi": 67,
      "hit": false,
      "t": 22500,
      "d": 500,
      "v": 114
    },
    {
      "midi": 69,
      "hit": false,
      "t": 22875,
      "d": 125,
      "v": 95
    },
    {
      "midi": 70,
      "hit": false,
      "t": 23000,
      "d": 250,
      "v": 103
    },
    {
      "midi": 62,
      "hit": false,
      "t": 23000,
      "d": 250,
      "v": 99
    },
    {
      "midi": 67,
      "hit": false,
      "t": 23000,
      "d": 250,
      "v": 103
    },
    {
      "midi": 72,
      "hit": false,
      "t": 23250,
      "d": 375,
      "v": 106
    },
    {
      "midi": 63,
      "hit": false,
      "t": 23250,
      "d": 500,
      "v": 103
    },
    {
      "midi": 67,
      "hit": false,
      "t": 23250,
      "d": 500,
      "v": 106
    },
    {
      "midi": 70,
      "hit": false,
      "t": 23625,
      "d": 125,
      "v": 68
    },
    {
      "midi": 72,
      "hit": false,
      "t": 23750,
      "d": 250,
      "v": 108
    },
    {
      "midi": 63,
      "hit": false,
      "t": 23750,
      "d": 250,
      "v": 81
    },
    {
      "midi": 67,
      "hit": false,
      "t": 23750,
      "d": 250,
      "v": 103
    },
    {
      "midi": 74,
      "hit": false,
      "t": 24000,
      "d": 500,
      "v": 95
    },
    {
      "midi": 65,
      "hit": false,
      "t": 24000,
      "d": 500,
      "v": 114
    },
    {
      "midi": 68,
      "hit": false,
      "t": 24000,
      "d": 500,
      "v": 87
    },
    {
      "midi": 74,
      "hit": false,
      "t": 24500,
      "d": 250,
      "v": 97
    },
    {
      "midi": 65,
      "hit": false,
      "t": 24500,
      "d": 250,
      "v": 110
    },
    {
      "midi": 68,
      "hit": false,
      "t": 24500,
      "d": 250,
      "v": 89
    },
    {
      "midi": 74,
      "hit": false,
      "t": 24750,
      "d": 375,
      "v": 110
    },
    {
      "midi": 65,
      "hit": false,
      "t": 24750,
      "d": 500,
      "v": 108
    },
    {
      "midi": 68,
      "hit": false,
      "t": 24750,
      "d": 500,
      "v": 93
    },
    {
      "midi": 75,
      "hit": false,
      "t": 25125,
      "d": 125,
      "v": 93
    },
    {
      "midi": 72,
      "hit": false,
      "t": 25250,
      "d": 250,
      "v": 85
    },
    {
      "midi": 63,
      "hit": false,
      "t": 25250,
      "d": 250,
      "v": 104
    },
    {
      "midi": 67,
      "hit": false,
      "t": 25250,
      "d": 250,
      "v": 108
    },
    {
      "midi": 74,
      "hit": false,
      "t": 25500,
      "d": 500,
      "v": 99
    },
    {
      "midi": 79,
      "hit": false,
      "t": 25500,
      "d": 500,
      "v": 107
    },
    {
      "midi": 59,
      "hit": false,
      "t": 25500,
      "d": 500,
      "v": 101
    },
    {
      "midi": 60,
      "hit": false,
      "t": 25500,
      "d": 500,
      "v": 74
    },
    {
      "midi": 65,
      "hit": false,
      "t": 25500,
      "d": 500,
      "v": 91
    },
    {
      "midi": 67,
      "hit": false,
      "t": 25500,
      "d": 500,
      "v": 101
    },
    {
      "midi": 74,
      "hit": false,
      "t": 26000,
      "d": 250,
      "v": 110
    },
    {
      "midi": 79,
      "hit": false,
      "t": 26000,
      "d": 250,
      "v": 114
    },
    {
      "midi": 59,
      "hit": false,
      "t": 26000,
      "d": 250,
      "v": 107
    },
    {
      "midi": 65,
      "hit": false,
      "t": 26000,
      "d": 250,
      "v": 110
    },
    {
      "midi": 67,
      "hit": false,
      "t": 26000,
      "d": 250,
      "v": 93
    },
    {
      "midi": 74,
      "hit": false,
      "t": 26250,
      "d": 375,
      "v": 104
    },
    {
      "midi": 79,
      "hit": false,
      "t": 26250,
      "d": 375,
      "v": 110
    },
    {
      "midi": 59,
      "hit": false,
      "t": 26250,
      "d": 500,
      "v": 107
    },
    {
      "midi": 65,
      "hit": false,
      "t": 26250,
      "d": 500,
      "v": 107
    },
    {
      "midi": 67,
      "hit": false,
      "t": 26250,
      "d": 500,
      "v": 101
    },
    {
      "midi": 75,
      "hit": false,
      "t": 26625,
      "d": 125,
      "v": 97
    },
    {
      "midi": 72,
      "hit": false,
      "t": 26750,
      "d": 250,
      "v": 108
    },
    {
      "midi": 60,
      "hit": false,
      "t": 26750,
      "d": 250,
      "v": 101
    },
    {
      "midi": 63,
      "hit": false,
      "t": 26750,
      "d": 250,
      "v": 104
    },
    {
      "midi": 67,
      "hit": false,
      "t": 26750,
      "d": 250,
      "v": 103
    },
    {
      "midi": 77,
      "hit": false,
      "t": 27000,
      "d": 500,
      "v": 95
    },
    {
      "midi": 86,
      "hit": false,
      "t": 27000,
      "d": 500,
      "v": 110
    },
    {
      "midi": 55,
      "hit": false,
      "t": 27000,
      "d": 500,
      "v": 102
    },
    {
      "midi": 59,
      "hit": false,
      "t": 27000,
      "d": 500,
      "v": 117
    },
    {
      "midi": 65,
      "hit": false,
      "t": 27000,
      "d": 500,
      "v": 101
    },
    {
      "midi": 75,
      "hit": false,
      "t": 27500,
      "d": 250,
      "v": 115
    },
    {
      "midi": 84,
      "hit": false,
      "t": 27500,
      "d": 250,
      "v": 106
    },
    {
      "midi": 55,
      "hit": false,
      "t": 27500,
      "d": 250,
      "v": 107
    },
    {
      "midi": 60,
      "hit": false,
      "t": 27500,
      "d": 250,
      "v": 114
    },
    {
      "midi": 65,
      "hit": false,
      "t": 27500,
      "d": 250,
      "v": 97
    },
    {
      "midi": 75,
      "hit": false,
      "t": 27750,
      "d": 500,
      "v": 106
    },
    {
      "midi": 84,
      "hit": false,
      "t": 27750,
      "d": 500,
      "v": 95
    },
    {
      "midi": 55,
      "hit": false,
      "t": 27750,
      "d": 500,
      "v": 108
    },
    {
      "midi": 60,
      "hit": false,
      "t": 27750,
      "d": 500,
      "v": 110
    },
    {
      "midi": 65,
      "hit": false,
      "t": 27750,
      "d": 500,
      "v": 107
    },
    {
      "midi": 74,
      "hit": false,
      "t": 28250,
      "d": 250,
      "v": 95
    },
    {
      "midi": 83,
      "hit": false,
      "t": 28250,
      "d": 250,
      "v": 97
    },
    {
      "midi": 55,
      "hit": false,
      "t": 28250,
      "d": 250,
      "v": 99
    },
    {
      "midi": 62,
      "hit": false,
      "t": 28250,
      "d": 250,
      "v": 108
    },
    {
      "midi": 65,
      "hit": false,
      "t": 28250,
      "d": 250,
      "v": 101
    },
    {
      "midi": 72,
      "hit": false,
      "t": 28500,
      "d": 500,
      "v": 110
    },
    {
      "midi": 84,
      "hit": false,
      "t": 28500,
      "d": 500,
      "v": 81
    },
    {
      "midi": 60,
      "hit": false,
      "t": 28500,
      "d": 500,
      "v": 112
    },
    {
      "midi": 63,
      "hit": false,
      "t": 28500,
      "d": 500,
      "v": 71
    },
    {
      "midi": 75,
      "hit": false,
      "t": 29000,
      "d": 250,
      "v": 60
    },
    {
      "midi": 79,
      "hit": false,
      "t": 29000,
      "d": 250,
      "v": 112
    },
    {
      "midi": 72,
      "hit": false,
      "t": 29000,
      "d": 250,
      "v": 99
    },
    {
      "midi": 75,
      "hit": false,
      "t": 29250,
      "d": 500,
      "v": 106
    },
    {
      "midi": 79,
      "hit": false,
      "t": 29250,
      "d": 500,
      "v": 117
    },
    {
      "midi": 72,
      "hit": false,
      "t": 29250,
      "d": 500,
      "v": 120
    },
    {
      "midi": 74,
      "hit": false,
      "t": 29750,
      "d": 250,
      "v": 107
    },
    {
      "midi": 77,
      "hit": false,
      "t": 29750,
      "d": 250,
      "v": 112
    },
    {
      "midi": 72,
      "hit": false,
      "t": 29750,
      "d": 250,
      "v": 97
    },
    {
      "midi": 75,
      "hit": false,
      "t": 30000,
      "d": 375,
      "v": 108
    },
    {
      "midi": 68,
      "hit": false,
      "t": 30000,
      "d": 500,
      "v": 104
    },
    {
      "midi": 72,
      "hit": false,
      "t": 30000,
      "d": 500,
      "v": 104
    },
    {
      "midi": 74,
      "hit": false,
      "t": 30375,
      "d": 125,
      "v": 81
    },
    {
      "midi": 75,
      "hit": false,
      "t": 30500,
      "d": 250,
      "v": 97
    },
    {
      "midi": 68,
      "hit": false,
      "t": 30500,
      "d": 250,
      "v": 87
    },
    {
      "midi": 72,
      "hit": false,
      "t": 30500,
      "d": 250,
      "v": 86
    },
    {
      "midi": 77,
      "hit": false,
      "t": 30750,
      "d": 375,
      "v": 117
    },
    {
      "midi": 68,
      "hit": false,
      "t": 30750,
      "d": 500,
      "v": 113
    },
    {
      "midi": 72,
      "hit": false,
      "t": 30750,
      "d": 500,
      "v": 108
    },
    {
      "midi": 75,
      "hit": false,
      "t": 31125,
      "d": 125,
      "v": 83
    },
    {
      "midi": 77,
      "hit": false,
      "t": 31250,
      "d": 250,
      "v": 108
    },
    {
      "midi": 68,
      "hit": false,
      "t": 31250,
      "d": 250,
      "v": 108
    },
    {
      "midi": 72,
      "hit": false,
      "t": 31250,
      "d": 250,
      "v": 108
    },
    {
      "midi": 79,
      "hit": false,
      "t": 31500,
      "d": 500,
      "v": 115
    },
    {
      "midi": 67,
      "hit": false,
      "t": 31500,
      "d": 500,
      "v": 108
    },
    {
      "midi": 71,
      "hit": false,
      "t": 31500,
      "d": 500,
      "v": 104
    },
    {
      "midi": 74,
      "hit": false,
      "t": 32000,
      "d": 250,
      "v": 108
    },
    {
      "midi": 67,
      "hit": false,
      "t": 32000,
      "d": 250,
      "v": 99
    },
    {
      "midi": 71,
      "hit": false,
      "t": 32000,
      "d": 250,
      "v": 95
    },
    {
      "midi": 79,
      "hit": false,
      "t": 32250,
      "d": 500,
      "v": 112
    },
    {
      "midi": 67,
      "hit": false,
      "t": 32250,
      "d": 500,
      "v": 120
    },
    {
      "midi": 71,
      "hit": false,
      "t": 32250,
      "d": 500,
      "v": 115
    },
    {
      "midi": 77,
      "hit": false,
      "t": 32750,
      "d": 250,
      "v": 106
    },
    {
      "midi": 67,
      "hit": false,
      "t": 32750,
      "d": 250,
      "v": 106
    },
    {
      "midi": 71,
      "hit": false,
      "t": 32750,
      "d": 250,
      "v": 104
    },
    {
      "midi": 75,
      "hit": false,
      "t": 33000,
      "d": 375,
      "v": 110
    },
    {
      "midi": 67,
      "hit": false,
      "t": 33000,
      "d": 500,
      "v": 112
    },
    {
      "midi": 68,
      "hit": false,
      "t": 33000,
      "d": 500,
      "v": 89
    },
    {
      "midi": 72,
      "hit": false,
      "t": 33000,
      "d": 500,
      "v": 106
    },
    {
      "midi": 74,
      "hit": false,
      "t": 33375,
      "d": 125,
      "v": 87
    },
    {
      "midi": 75,
      "hit": false,
      "t": 33500,
      "d": 250,
      "v": 93
    },
    {
      "midi": 67,
      "hit": false,
      "t": 33500,
      "d": 250,
      "v": 103
    },
    {
      "midi": 68,
      "hit": false,
      "t": 33500,
      "d": 250,
      "v": 103
    },
    {
      "midi": 72,
      "hit": false,
      "t": 33500,
      "d": 250,
      "v": 83
    },
    {
      "midi": 77,
      "hit": false,
      "t": 33750,
      "d": 375,
      "v": 115
    },
    {
      "midi": 67,
      "hit": false,
      "t": 33750,
      "d": 500,
      "v": 114
    },
    {
      "midi": 68,
      "hit": false,
      "t": 33750,
      "d": 500,
      "v": 106
    },
    {
      "midi": 72,
      "hit": false,
      "t": 33750,
      "d": 500,
      "v": 102
    },
    {
      "midi": 75,
      "hit": false,
      "t": 34125,
      "d": 125,
      "v": 85
    },
    {
      "midi": 77,
      "hit": false,
      "t": 34250,
      "d": 250,
      "v": 107
    },
    {
      "midi": 67,
      "hit": false,
      "t": 34250,
      "d": 250,
      "v": 107
    },
    {
      "midi": 68,
      "hit": false,
      "t": 34250,
      "d": 250,
      "v": 108
    },
    {
      "midi": 72,
      "hit": false,
      "t": 34250,
      "d": 250,
      "v": 103
    },
    {
      "midi": 79,
      "hit": false,
      "t": 34500,
      "d": 500,
      "v": 108
    },
    {
      "midi": 67,
      "hit": false,
      "t": 34500,
      "d": 500,
      "v": 106
    },
    {
      "midi": 71,
      "hit": false,
      "t": 34500,
      "d": 500,
      "v": 84
    },
    {
      "midi": 79,
      "hit": false,
      "t": 35000,
      "d": 250,
      "v": 107
    },
    {
      "midi": 67,
      "hit": false,
      "t": 35000,
      "d": 250,
      "v": 102
    },
    {
      "midi": 71,
      "hit": false,
      "t": 35000,
      "d": 250,
      "v": 103
    },
    {
      "midi": 84,
      "hit": false,
      "t": 35250,
      "d": 500,
      "v": 112
    },
    {
      "midi": 63,
      "hit": false,
      "t": 35250,
      "d": 500,
      "v": 106
    },
    {
      "midi": 67,
      "hit": false,
      "t": 35250,
      "d": 500,
      "v": 117
    },
    {
      "midi": 72,
      "hit": false,
      "t": 35250,
      "d": 500,
      "v": 108
    },
    {
      "midi": 82,
      "hit": false,
      "t": 35750,
      "d": 250,
      "v": 103
    },
    {
      "midi": 64,
      "hit": false,
      "t": 35750,
      "d": 250,
      "v": 103
    },
    {
      "midi": 67,
      "hit": false,
      "t": 35750,
      "d": 250,
      "v": 112
    },
    {
      "midi": 72,
      "hit": false,
      "t": 35750,
      "d": 250,
      "v": 93
    },
    {
      "midi": 80,
      "hit": false,
      "t": 36000,
      "d": 375,
      "v": 104
    },
    {
      "midi": 65,
      "hit": false,
      "t": 36000,
      "d": 500,
      "v": 106
    },
    {
      "midi": 68,
      "hit": false,
      "t": 36000,
      "d": 500,
      "v": 104
    },
    {
      "midi": 72,
      "hit": false,
      "t": 36000,
      "d": 500,
      "v": 101
    },
    {
      "midi": 79,
      "hit": false,
      "t": 36375,
      "d": 125,
      "v": 95
    },
    {
      "midi": 80,
      "hit": false,
      "t": 36500,
      "d": 250,
      "v": 97
    },
    {
      "midi": 63,
      "hit": false,
      "t": 36500,
      "d": 250,
      "v": 87
    },
    {
      "midi": 67,
      "hit": false,
      "t": 36500,
      "d": 250,
      "v": 108
    },
    {
      "midi": 72,
      "hit": false,
      "t": 36500,
      "d": 250,
      "v": 91
    },
    {
      "midi": 82,
      "hit": false,
      "t": 36750,
      "d": 375,
      "v": 113
    },
    {
      "midi": 61,
      "hit": false,
      "t": 36750,
      "d": 500,
      "v": 104
    },
    {
      "midi": 65,
      "hit": false,
      "t": 36750,
      "d": 500,
      "v": 112
    },
    {
      "midi": 70,
      "hit": false,
      "t": 36750,
      "d": 500,
      "v": 95
    },
    {
      "midi": 80,
      "hit": false,
      "t": 37125,
      "d": 125,
      "v": 89
    },
    {
      "midi": 82,
      "hit": false,
      "t": 37250,
      "d": 250,
      "v": 106
    },
    {
      "midi": 61,
      "hit": false,
      "t": 37250,
      "d": 250,
      "v": 97
    },
    {
      "midi": 65,
      "hit": false,
      "t": 37250,
      "d": 250,
      "v": 110
    },
    {
      "midi": 70,
      "hit": false,
      "t": 37250,
      "d": 250,
      "v": 87
    },
    {
      "midi": 84,
      "hit": false,
      "t": 37500,
      "d": 500,
      "v": 117
    },
    {
      "midi": 60,
      "hit": false,
      "t": 37500,
      "d": 500,
      "v": 104
    },
    {
      "midi": 64,
      "hit": false,
      "t": 37500,
      "d": 500,
      "v": 108
    },
    {
      "midi": 67,
      "hit": false,
      "t": 37500,
      "d": 500,
      "v": 102
    },
    {
      "midi": 79,
      "hit": false,
      "t": 38000,
      "d": 250,
      "v": 107
    },
    {
      "midi": 64,
      "hit": false,
      "t": 38000,
      "d": 250,
      "v": 110
    },
    {
      "midi": 67,
      "hit": false,
      "t": 38000,
      "d": 250,
      "v": 106
    },
    {
      "midi": 72,
      "hit": false,
      "t": 38000,
      "d": 250,
      "v": 76
    },
    {
      "midi": 84,
      "hit": false,
      "t": 38250,
      "d": 500,
      "v": 108
    },
    {
      "midi": 64,
      "hit": false,
      "t": 38250,
      "d": 500,
      "v": 115
    },
    {
      "midi": 67,
      "hit": false,
      "t": 38250,
      "d": 500,
      "v": 108
    },
    {
      "midi": 72,
      "hit": false,
      "t": 38250,
      "d": 500,
      "v": 93
    },
    {
      "midi": 82,
      "hit": false,
      "t": 38750,
      "d": 250,
      "v": 103
    },
    {
      "midi": 64,
      "hit": false,
      "t": 38750,
      "d": 250,
      "v": 107
    },
    {
      "midi": 67,
      "hit": false,
      "t": 38750,
      "d": 250,
      "v": 102
    },
    {
      "midi": 72,
      "hit": false,
      "t": 38750,
      "d": 250,
      "v": 79
    },
    {
      "midi": 80,
      "hit": false,
      "t": 39000,
      "d": 375,
      "v": 85
    },
    {
      "midi": 65,
      "hit": false,
      "t": 39000,
      "d": 500,
      "v": 106
    },
    {
      "midi": 68,
      "hit": false,
      "t": 39000,
      "d": 500,
      "v": 103
    },
    {
      "midi": 72,
      "hit": false,
      "t": 39000,
      "d": 500,
      "v": 89
    },
    {
      "midi": 79,
      "hit": false,
      "t": 39375,
      "d": 125,
      "v": 101
    },
    {
      "midi": 80,
      "hit": false,
      "t": 39500,
      "d": 250,
      "v": 101
    },
    {
      "midi": 63,
      "hit": false,
      "t": 39500,
      "d": 250,
      "v": 97
    },
    {
      "midi": 67,
      "hit": false,
      "t": 39500,
      "d": 250,
      "v": 101
    },
    {
      "midi": 72,
      "hit": false,
      "t": 39500,
      "d": 250,
      "v": 91
    },
    {
      "midi": 82,
      "hit": false,
      "t": 39750,
      "d": 375,
      "v": 115
    },
    {
      "midi": 61,
      "hit": false,
      "t": 39750,
      "d": 500,
      "v": 93
    },
    {
      "midi": 65,
      "hit": false,
      "t": 39750,
      "d": 500,
      "v": 108
    },
    {
      "midi": 70,
      "hit": false,
      "t": 39750,
      "d": 500,
      "v": 93
    },
    {
      "midi": 80,
      "hit": false,
      "t": 40125,
      "d": 125,
      "v": 95
    },
    {
      "midi": 82,
      "hit": false,
      "t": 40250,
      "d": 250,
      "v": 106
    },
    {
      "midi": 61,
      "hit": false,
      "t": 40250,
      "d": 250,
      "v": 93
    },
    {
      "midi": 65,
      "hit": false,
      "t": 40250,
      "d": 250,
      "v": 108
    },
    {
      "midi": 70,
      "hit": false,
      "t": 40250,
      "d": 250,
      "v": 77
    },
    {
      "midi": 84,
      "hit": false,
      "t": 40500,
      "d": 500,
      "v": 101
    },
    {
      "midi": 60,
      "hit": false,
      "t": 40500,
      "d": 500,
      "v": 106
    },
    {
      "midi": 64,
      "hit": false,
      "t": 40500,
      "d": 500,
      "v": 108
    },
    {
      "midi": 67,
      "hit": false,
      "t": 40500,
      "d": 500,
      "v": 104
    },
    {
      "midi": 72,
      "hit": false,
      "t": 41000,
      "d": 250,
      "v": 102
    },
    {
      "midi": 60,
      "hit": false,
      "t": 41000,
      "d": 250,
      "v": 102
    },
    {
      "midi": 84,
      "hit": false,
      "t": 41250,
      "d": 500,
      "v": 110
    },
    {
      "midi": 72,
      "hit": false,
      "t": 41250,
      "d": 500,
      "v": 95
    },
    {
      "midi": 82,
      "hit": false,
      "t": 41750,
      "d": 250,
      "v": 101
    },
    {
      "midi": 60,
      "hit": false,
      "t": 41750,
      "d": 250,
      "v": 99
    },
    {
      "midi": 64,
      "hit": false,
      "t": 41750,
      "d": 250,
      "v": 108
    },
    {
      "midi": 81,
      "hit": false,
      "t": 42000,
      "d": 375,
      "v": 112
    },
    {
      "midi": 53,
      "hit": false,
      "t": 42000,
      "d": 500,
      "v": 102
    },
    {
      "midi": 60,
      "hit": false,
      "t": 42000,
      "d": 500,
      "v": 110
    },
    {
      "midi": 65,
      "hit": false,
      "t": 42000,
      "d": 500,
      "v": 101
    },
    {
      "midi": 79,
      "hit": false,
      "t": 42375,
      "d": 125,
      "v": 95
    },
    {
      "midi": 77,
      "hit": false,
      "t": 42500,
      "d": 250,
      "v": 102
    },
    {
      "midi": 57,
      "hit": false,
      "t": 42500,
      "d": 250,
      "v": 112
    },
    {
      "midi": 60,
      "hit": false,
      "t": 42500,
      "d": 250,
      "v": 108
    },
    {
      "midi": 65,
      "hit": false,
      "t": 42500,
      "d": 250,
      "v": 103
    },
    {
      "midi": 84,
      "hit": false,
      "t": 42750,
      "d": 500,
      "v": 112
    },
    {
      "midi": 57,
      "hit": false,
      "t": 42750,
      "d": 500,
      "v": 104
    },
    {
      "midi": 60,
      "hit": false,
      "t": 42750,
      "d": 500,
      "v": 108
    },
    {
      "midi": 65,
      "hit": false,
      "t": 42750,
      "d": 500,
      "v": 93
    },
    {
      "midi": 75,
      "hit": false,
      "t": 43250,
      "d": 250,
      "v": 97
    },
    {
      "midi": 57,
      "hit": false,
      "t": 43250,
      "d": 250,
      "v": 95
    },
    {
      "midi": 60,
      "hit": false,
      "t": 43250,
      "d": 250,
      "v": 106
    },
    {
      "midi": 65,
      "hit": false,
      "t": 43250,
      "d": 250,
      "v": 87
    },
    {
      "midi": 74,
      "hit": false,
      "t": 43500,
      "d": 375,
      "v": 112
    },
    {
      "midi": 58,
      "hit": false,
      "t": 43500,
      "d": 500,
      "v": 103
    },
    {
      "midi": 62,
      "hit": false,
      "t": 43500,
      "d": 500,
      "v": 110
    },
    {
      "midi": 65,
      "hit": false,
      "t": 43500,
      "d": 500,
      "v": 97
    },
    {
      "midi": 72,
      "hit": false,
      "t": 43875,
      "d": 125,
      "v": 112
    },
    {
      "midi": 70,
      "hit": false,
      "t": 44000,
      "d": 250,
      "v": 108
    },
    {
      "midi": 58,
      "hit": false,
      "t": 44000,
      "d": 250,
      "v": 79
    },
    {
      "midi": 62,
      "hit": false,
      "t": 44000,
      "d": 250,
      "v": 104
    },
    {
      "midi": 65,
      "hit": false,
      "t": 44000,
      "d": 250,
      "v": 95
    },
    {
      "midi": 82,
      "hit": false,
      "t": 44250,
      "d": 500,
      "v": 101
    },
    {
      "midi": 62,
      "hit": false,
      "t": 44250,
      "d": 500,
      "v": 107
    },
    {
      "midi": 65,
      "hit": false,
      "t": 44250,
      "d": 500,
      "v": 85
    },
    {
      "midi": 80,
      "hit": false,
      "t": 44750,
      "d": 250,
      "v": 93
    },
    {
      "midi": 62,
      "hit": false,
      "t": 44750,
      "d": 250,
      "v": 99
    },
    {
      "midi": 65,
      "hit": false,
      "t": 44750,
      "d": 250,
      "v": 91
    },
    {
      "midi": 79,
      "hit": false,
      "t": 45000,
      "d": 375,
      "v": 120
    },
    {
      "midi": 63,
      "hit": false,
      "t": 45000,
      "d": 500,
      "v": 103
    },
    {
      "midi": 67,
      "hit": false,
      "t": 45000,
      "d": 500,
      "v": 97
    },
    {
      "midi": 77,
      "hit": false,
      "t": 45375,
      "d": 125,
      "v": 103
    },
    {
      "midi": 75,
      "hit": false,
      "t": 45500,
      "d": 250,
      "v": 113
    },
    {
      "midi": 63,
      "hit": false,
      "t": 45500,
      "d": 250,
      "v": 93
    },
    {
      "midi": 67,
      "hit": false,
      "t": 45500,
      "d": 250,
      "v": 101
    },
    {
      "midi": 74,
      "hit": false,
      "t": 45750,
      "d": 375,
      "v": 115
    },
    {
      "midi": 64,
      "hit": false,
      "t": 45750,
      "d": 500,
      "v": 108
    },
    {
      "midi": 67,
      "hit": false,
      "t": 45750,
      "d": 500,
      "v": 103
    },
    {
      "midi": 72,
      "hit": false,
      "t": 46125,
      "d": 125,
      "v": 102
    },
    {
      "midi": 70,
      "hit": false,
      "t": 46250,
      "d": 250,
      "v": 118
    },
    {
      "midi": 64,
      "hit": false,
      "t": 46250,
      "d": 250,
      "v": 99
    },
    {
      "midi": 67,
      "hit": false,
      "t": 46250,
      "d": 250,
      "v": 95
    },
    {
      "midi": 69,
      "hit": false,
      "t": 46500,
      "d": 500,
      "v": 112
    },
    {
      "midi": 65,
      "hit": false,
      "t": 46500,
      "d": 750,
      "v": 114
    },
    {
      "midi": 77,
      "hit": false,
      "t": 47000,
      "d": 250,
      "v": 102
    },
    {
      "midi": 65,
      "hit": false,
      "t": 47250,
      "d": 500,
      "v": 103
    },
    {
      "midi": 57,
      "hit": false,
      "t": 47250,
      "d": 750,
      "v": 89
    },
    {
      "midi": 60,
      "hit": false,
      "t": 47250,
      "d": 750,
      "v": 99
    },
    {
      "midi": 77,
      "hit": false,
      "t": 47750,
      "d": 250,
      "v": 99
    },
    {
      "midi": 65,
      "hit": false,
      "t": 48000,
      "d": 500,
      "v": 108
    },
    {
      "midi": 58,
      "hit": false,
      "t": 48000,
      "d": 750,
      "v": 87
    },
    {
      "midi": 62,
      "hit": false,
      "t": 48000,
      "d": 750,
      "v": 110
    },
    {
      "midi": 77,
      "hit": false,
      "t": 48500,
      "d": 250,
      "v": 101
    },
    {
      "midi": 65,
      "hit": false,
      "t": 48750,
      "d": 500,
      "v": 112
    },
    {
      "midi": 60,
      "hit": false,
      "t": 48750,
      "d": 750,
      "v": 117
    },
    {
      "midi": 64,
      "hit": false,
      "t": 48750,
      "d": 750,
      "v": 110
    },
    {
      "midi": 77,
      "hit": false,
      "t": 49250,
      "d": 250,
      "v": 106
    },
    {
      "midi": 65,
      "hit": false,
      "t": 49500,
      "d": 500,
      "v": 112
    },
    {
      "midi": 62,
      "hit": false,
      "t": 49500,
      "d": 750,
      "v": 114
    },
    {
      "midi": 65,
      "hit": false,
      "t": 49500,
      "d": 750,
      "v": 110
    },
    {
      "midi": 77,
      "hit": false,
      "t": 50000,
      "d": 250,
      "v": 103
    },
    {
      "midi": 77,
      "hit": false,
      "t": 50250,
      "d": 250,
      "v": 110
    },
    {
      "midi": 57,
      "hit": false,
      "t": 50250,
      "d": 750,
      "v": 108
    },
    {
      "midi": 60,
      "hit": false,
      "t": 50250,
      "d": 750,
      "v": 103
    },
    {
      "midi": 65,
      "hit": false,
      "t": 50500,
      "d": 250,
      "v": 97
    },
    {
      "midi": 77,
      "hit": false,
      "t": 50750,
      "d": 250,
      "v": 102
    },
    {
      "midi": 77,
      "hit": false,
      "t": 51000,
      "d": 250,
      "v": 112
    },
    {
      "midi": 58,
      "hit": false,
      "t": 51000,
      "d": 750,
      "v": 87
    },
    {
      "midi": 62,
      "hit": false,
      "t": 51000,
      "d": 750,
      "v": 110
    },
    {
      "midi": 65,
      "hit": false,
      "t": 51250,
      "d": 250,
      "v": 95
    },
    {
      "midi": 77,
      "hit": false,
      "t": 51500,
      "d": 250,
      "v": 104
    },
    {
      "midi": 77,
      "hit": false,
      "t": 51750,
      "d": 250,
      "v": 112
    },
    {
      "midi": 60,
      "hit": false,
      "t": 51750,
      "d": 750,
      "v": 103
    },
    {
      "midi": 64,
      "hit": false,
      "t": 51750,
      "d": 750,
      "v": 107
    },
    {
      "midi": 65,
      "hit": false,
      "t": 52000,
      "d": 250,
      "v": 97
    },
    {
      "midi": 77,
      "hit": false,
      "t": 52250,
      "d": 250,
      "v": 107
    },
    {
      "midi": 77,
      "hit": false,
      "t": 52500,
      "d": 250,
      "v": 108
    },
    {
      "midi": 62,
      "hit": false,
      "t": 52500,
      "d": 750,
      "v": 110
    },
    {
      "midi": 65,
      "hit": false,
      "t": 52500,
      "d": 750,
      "v": 106
    },
    {
      "midi": 65,
      "hit": false,
      "t": 52750,
      "d": 250,
      "v": 99
    },
    {
      "midi": 77,
      "hit": false,
      "t": 53000,
      "d": 250,
      "v": 101
    },
    {
      "midi": 77,
      "hit": false,
      "t": 53250,
      "d": 250,
      "v": 112
    },
    {
      "midi": 57,
      "hit": false,
      "t": 53250,
      "d": 750,
      "v": 106
    },
    {
      "midi": 60,
      "hit": false,
      "t": 53250,
      "d": 750,
      "v": 106
    },
    {
      "midi": 65,
      "hit": false,
      "t": 53500,
      "d": 250,
      "v": 89
    },
    {
      "midi": 72,
      "hit": false,
      "t": 53750,
      "d": 250,
      "v": 110
    },
    {
      "midi": 74,
      "hit": false,
      "t": 54000,
      "d": 375,
      "v": 120
    },
    {
      "midi": 58,
      "hit": false,
      "t": 54000,
      "d": 500,
      "v": 101
    },
    {
      "midi": 70,
      "hit": false,
      "t": 54375,
      "d": 125,
      "v": 93
    },
    {
      "midi": 67,
      "hit": false,
      "t": 54500,
      "d": 250,
      "v": 104
    },
    {
      "midi": 46,
      "hit": false,
      "t": 54500,
      "d": 250,
      "v": 79
    },
    {
      "midi": 65,
      "hit": false,
      "t": 54750,
      "d": 500,
      "v": 108
    },
    {
      "midi": 48,
      "hit": false,
      "t": 54750,
      "d": 500,
      "v": 112
    },
    {
      "midi": 57,
      "hit": false,
      "t": 54750,
      "d": 500,
      "v": 103
    },
    {
      "midi": 58,
      "hit": false,
      "t": 55250,
      "d": 250,
      "v": 106
    },
    {
      "midi": 64,
      "hit": false,
      "t": 55250,
      "d": 250,
      "v": 114
    },
    {
      "midi": 48,
      "hit": false,
      "t": 55250,
      "d": 250,
      "v": 106
    },
    {
      "midi": 55,
      "hit": false,
      "t": 55250,
      "d": 250,
      "v": 102
    },
    {
      "midi": 57,
      "hit": false,
      "t": 55500,
      "d": 500,
      "v": 104
    },
    {
      "midi": 65,
      "hit": false,
      "t": 55500,
      "d": 500,
      "v": 114
    },
    {
      "midi": 53,
      "hit": false,
      "t": 55500,
      "d": 750,
      "v": 114
    },
    {
      "midi": 77,
      "hit": false,
      "t": 56000,
      "d": 250,
      "v": 101
    },
    {
      "midi": 65,
      "hit": false,
      "t": 56250,
      "d": 500,
      "v": 107
    },
    {
      "midi": 57,
      "hit": false,
      "t": 56250,
      "d": 750,
      "v": 104
    },
    {
      "midi": 60,
      "hit": false,
      "t": 56250,
      "d": 750,
      "v": 110
    },
    {
      "midi": 77,
      "hit": false,
      "t": 56750,
      "d": 250,
      "v": 107
    },
    {
      "midi": 65,
      "hit": false,
      "t": 57000,
      "d": 500,
      "v": 106
    },
    {
      "midi": 58,
      "hit": false,
      "t": 57000,
      "d": 750,
      "v": 83
    },
    {
      "midi": 62,
      "hit": false,
      "t": 57000,
      "d": 750,
      "v": 110
    },
    {
      "midi": 77,
      "hit": false,
      "t": 57500,
      "d": 250,
      "v": 110
    },
    {
      "midi": 65,
      "hit": false,
      "t": 57750,
      "d": 500,
      "v": 114
    },
    {
      "midi": 60,
      "hit": false,
      "t": 57750,
      "d": 750,
      "v": 110
    },
    {
      "midi": 64,
      "hit": false,
      "t": 57750,
      "d": 750,
      "v": 107
    },
    {
      "midi": 77,
      "hit": false,
      "t": 58250,
      "d": 250,
      "v": 104
    },
    {
      "midi": 65,
      "hit": false,
      "t": 58500,
      "d": 500,
      "v": 86
    },
    {
      "midi": 62,
      "hit": false,
      "t": 58500,
      "d": 750,
      "v": 107
    },
    {
      "midi": 65,
      "hit": false,
      "t": 58500,
      "d": 750,
      "v": 104
    },
    {
      "midi": 77,
      "hit": false,
      "t": 59000,
      "d": 250,
      "v": 106
    },
    {
      "midi": 77,
      "hit": false,
      "t": 59250,
      "d": 250,
      "v": 112
    },
    {
      "midi": 57,
      "hit": false,
      "t": 59250,
      "d": 750,
      "v": 103
    },
    {
      "midi": 60,
      "hit": false,
      "t": 59250,
      "d": 750,
      "v": 102
    },
    {
      "midi": 65,
      "hit": false,
      "t": 59500,
      "d": 250,
      "v": 83
    },
    {
      "midi": 77,
      "hit": false,
      "t": 59750,
      "d": 250,
      "v": 101
    },
    {
      "midi": 77,
      "hit": false,
      "t": 60000,
      "d": 250,
      "v": 110
    },
    {
      "midi": 58,
      "hit": false,
      "t": 60000,
      "d": 750,
      "v": 60
    },
    {
      "midi": 62,
      "hit": false,
      "t": 60000,
      "d": 750,
      "v": 103
    },
    {
      "midi": 65,
      "hit": false,
      "t": 60250,
      "d": 250,
      "v": 97
    },
    {
      "midi": 77,
      "hit": false,
      "t": 60500,
      "d": 250,
      "v": 107
    },
    {
      "midi": 77,
      "hit": false,
      "t": 60750,
      "d": 250,
      "v": 108
    },
    {
      "midi": 60,
      "hit": false,
      "t": 60750,
      "d": 750,
      "v": 102
    },
    {
      "midi": 64,
      "hit": false,
      "t": 60750,
      "d": 750,
      "v": 104
    },
    {
      "midi": 65,
      "hit": false,
      "t": 61000,
      "d": 250,
      "v": 97
    },
    {
      "midi": 77,
      "hit": false,
      "t": 61250,
      "d": 250,
      "v": 112
    },
    {
      "midi": 77,
      "hit": false,
      "t": 61500,
      "d": 250,
      "v": 110
    },
    {
      "midi": 62,
      "hit": false,
      "t": 61500,
      "d": 750,
      "v": 108
    },
    {
      "midi": 65,
      "hit": false,
      "t": 61500,
      "d": 750,
      "v": 108
    },
    {
      "midi": 65,
      "hit": false,
      "t": 61750,
      "d": 250,
      "v": 93
    },
    {
      "midi": 77,
      "hit": false,
      "t": 62000,
      "d": 250,
      "v": 106
    },
    {
      "midi": 77,
      "hit": false,
      "t": 62250,
      "d": 250,
      "v": 108
    },
    {
      "midi": 57,
      "hit": false,
      "t": 62250,
      "d": 750,
      "v": 95
    },
    {
      "midi": 60,
      "hit": false,
      "t": 62250,
      "d": 750,
      "v": 106
    },
    {
      "midi": 65,
      "hit": false,
      "t": 62500,
      "d": 250,
      "v": 95
    },
    {
      "midi": 72,
      "hit": false,
      "t": 62750,
      "d": 250,
      "v": 110
    },
    {
      "midi": 74,
      "hit": false,
      "t": 63000,
      "d": 375,
      "v": 115
    },
    {
      "midi": 58,
      "hit": false,
      "t": 63000,
      "d": 500,
      "v": 87
    },
    {
      "midi": 70,
      "hit": false,
      "t": 63375,
      "d": 125,
      "v": 104
    },
    {
      "midi": 67,
      "hit": false,
      "t": 63500,
      "d": 250,
      "v": 110
    },
    {
      "midi": 46,
      "hit": false,
      "t": 63500,
      "d": 250,
      "v": 97
    },
    {
      "midi": 65,
      "hit": false,
      "t": 63750,
      "d": 500,
      "v": 107
    },
    {
      "midi": 48,
      "hit": false,
      "t": 63750,
      "d": 500,
      "v": 112
    },
    {
      "midi": 57,
      "hit": false,
      "t": 63750,
      "d": 500,
      "v": 106
    },
    {
      "midi": 58,
      "hit": false,
      "t": 64250,
      "d": 250,
      "v": 97
    },
    {
      "midi": 64,
      "hit": false,
      "t": 64250,
      "d": 250,
      "v": 115
    },
    {
      "midi": 48,
      "hit": false,
      "t": 64250,
      "d": 250,
      "v": 103
    },
    {
      "midi": 55,
      "hit": false,
      "t": 64250,
      "d": 250,
      "v": 93
    },
    {
      "midi": 57,
      "hit": false,
      "t": 64500,
      "d": 500,
      "v": 106
    },
    {
      "midi": 60,
      "hit": false,
      "t": 64500,
      "d": 500,
      "v": 108
    },
    {
      "midi": 65,
      "hit": false,
      "t": 64500,
      "d": 500,
      "v": 110
    },
    {
      "midi": 41,
      "hit": false,
      "t": 64500,
      "d": 1000,
      "v": 78
    },
    {
      "midi": 48,
      "hit": false,
      "t": 64500,
      "d": 1000,
      "v": 107
    },
    {
      "midi": 60,
      "hit": false,
      "t": 65000,
      "d": 250,
      "v": 120
    },
    {
      "midi": 72,
      "hit": false,
      "t": 65250,
      "d": 500,
      "v": 114
    },
    {
      "midi": 60,
      "hit": false,
      "t": 65750,
      "d": 250,
      "v": 114
    },
    {
      "midi": 64,
      "hit": false,
      "t": 65750,
      "d": 250,
      "v": 115
    },
    {
      "midi": 48,
      "hit": false,
      "t": 65750,
      "d": 250,
      "v": 112
    },
    {
      "midi": 58,
      "hit": false,
      "t": 65750,
      "d": 250,
      "v": 101
    },
    {
      "midi": 60,
      "hit": false,
      "t": 66000,
      "d": 500,
      "v": 110
    },
    {
      "midi": 65,
      "hit": false,
      "t": 66000,
      "d": 500,
      "v": 112
    },
    {
      "midi": 53,
      "hit": false,
      "t": 66000,
      "d": 1000,
      "v": 104
    },
    {
      "midi": 57,
      "hit": false,
      "t": 66000,
      "d": 1000,
      "v": 114
    },
    {
      "midi": 72,
      "hit": false,
      "t": 66500,
      "d": 250,
      "v": 99
    },
    {
      "midi": 84,
      "hit": false,
      "t": 66750,
      "d": 500,
      "v": 110
    },
    {
      "midi": 72,
      "hit": false,
      "t": 67250,
      "d": 250,
      "v": 95
    },
    {
      "midi": 76,
      "hit": false,
      "t": 67250,
      "d": 250,
      "v": 106
    },
    {
      "midi": 60,
      "hit": false,
      "t": 67250,
      "d": 250,
      "v": 114
    },
    {
      "midi": 70,
      "hit": false,
      "t": 67250,
      "d": 250,
      "v": 95
    },
    {
      "midi": 72,
      "hit": false,
      "t": 67500,
      "d": 750,
      "v": 95
    },
    {
      "midi": 77,
      "hit": false,
      "t": 67500,
      "d": 750,
      "v": 110
    },
    {
      "midi": 65,
      "hit": false,
      "t": 67500,
      "d": 750,
      "v": 115
    },
    {
      "midi": 69,
      "hit": false,
      "t": 67500,
      "d": 750,
      "v": 110
    },
    {
      "midi": 81,
      "hit": false,
      "t": 68250,
      "d": 750,
      "v": 99
    },
    {
      "midi": 89,
      "hit": false,
      "t": 68250,
      "d": 750,
      "v": 114
    },
    {
      "midi": 65,
      "hit": false,
      "t": 68250,
      "d": 750,
      "v": 115
    },
    {
      "midi": 72,
      "hit": false,
      "t": 68250,
      "d": 750,
      "v": 107
    },
    {
      "midi": 57,
      "hit": false,
      "t": 69000,
      "d": 1500,
      "v": 103
    },
    {
      "midi": 65,
      "hit": false,
      "t": 69000,
      "d": 1500,
      "v": 44
    },
    {
      "midi": 41,
      "hit": false,
      "t": 69000,
      "d": 1500,
      "v": 101
    },
    {
      "midi": 48,
      "hit": false,
      "t": 69000,
      "d": 1500,
      "v": 102
    }
  ]
}