{
  "jsonPath": "Pop/Britpop/The Ordinary Boys/my-girl.json",
  "path": "Pop\\Britpop\\The Ordinary Boys\\My Girl.mid",
  "name": "My Girl",
  "difficulty": "Advanced",
  "bpm": 89.00017206699933,
  "notes": [
    {
      "midi": 68,
      "hit": false,
      "t": 2717.691375,
      "d": 1685.3899999999999,
      "v": 91
    },
    {
      "midi": 73,
      "hit": false,
      "t": 2717.691375,
      "d": 1706.4573749999995,
      "v": 103
    },
    {
      "midi": 64,
      "hit": false,
      "t": 2717.691375,
      "d": 1727.5247499999991,
      "v": 115
    },
    {
      "midi": 49,
      "hit": false,
      "t": 2717.691375,
      "d": 1804.7717916666656,
      "v": 107
    },
    {
      "midi": 61,
      "hit": false,
      "t": 2717.691375,
      "d": 1825.8391666666653,
      "v": 99
    },
    {
      "midi": 37,
      "hit": false,
      "t": 2717.691375,
      "d": 2373.5909166666656,
      "v": 99
    },
    {
      "midi": 33,
      "hit": false,
      "t": 5393.247999999999,
      "d": 1032.301375,
      "v": 99
    },
    {
      "midi": 69,
      "hit": false,
      "t": 5400.270458333332,
      "d": 660.1110833333332,
      "v": 111
    },
    {
      "midi": 64,
      "hit": false,
      "t": 5400.270458333332,
      "d": 688.2009166666667,
      "v": 111
    },
    {
      "midi": 61,
      "hit": false,
      "t": 5400.270458333332,
      "d": 702.2458333333334,
      "v": 107
    },
    {
      "midi": 57,
      "hit": false,
      "t": 5400.270458333332,
      "d": 793.5377916666666,
      "v": 115
    },
    {
      "midi": 45,
      "hit": false,
      "t": 5400.270458333332,
      "d": 926.9645,
      "v": 119
    },
    {
      "midi": 54,
      "hit": false,
      "t": 6755.604916666665,
      "d": 779.4928749999981,
      "v": 87
    },
    {
      "midi": 57,
      "hit": false,
      "t": 6762.627374999998,
      "d": 596.9089583333325,
      "v": 91
    },
    {
      "midi": 30,
      "hit": false,
      "t": 6762.627374999998,
      "d": 849.7174583333317,
      "v": 99
    },
    {
      "midi": 42,
      "hit": false,
      "t": 6762.627374999998,
      "d": 997.1890833333318,
      "v": 103
    },
    {
      "midi": 61,
      "hit": false,
      "t": 6769.649833333331,
      "d": 632.0212499999998,
      "v": 83
    },
    {
      "midi": 66,
      "hit": false,
      "t": 6769.649833333331,
      "d": 653.0886249999994,
      "v": 99
    },
    {
      "midi": 32,
      "hit": false,
      "t": 8089.871999999997,
      "d": 365.16783333333206,
      "v": 95
    },
    {
      "midi": 44,
      "hit": false,
      "t": 8089.871999999997,
      "d": 400.2801249999984,
      "v": 95
    },
    {
      "midi": 59,
      "hit": false,
      "t": 8096.89445833333,
      "d": 259.830958333333,
      "v": 95
    },
    {
      "midi": 68,
      "hit": false,
      "t": 8096.89445833333,
      "d": 301.96570833333226,
      "v": 95
    },
    {
      "midi": 56,
      "hit": false,
      "t": 8096.89445833333,
      "d": 330.0555416666657,
      "v": 95
    },
    {
      "midi": 63,
      "hit": false,
      "t": 8103.9169166666625,
      "d": 266.8534166666659,
      "v": 79
    },
    {
      "midi": 59,
      "hit": false,
      "t": 8771.050458333328,
      "d": 301.96570833333317,
      "v": 107
    },
    {
      "midi": 63,
      "hit": false,
      "t": 8771.050458333328,
      "d": 330.0555416666666,
      "v": 99
    },
    {
      "midi": 71,
      "hit": false,
      "t": 8771.050458333328,
      "d": 330.0555416666666,
      "v": 107
    },
    {
      "midi": 35,
      "hit": false,
      "t": 8771.050458333328,
      "d": 358.14537499999824,
      "v": 103
    },
    {
      "midi": 47,
      "hit": false,
      "t": 8771.050458333328,
      "d": 407.3025833333322,
      "v": 87
    },
    {
      "midi": 66,
      "hit": false,
      "t": 8778.07291666666,
      "d": 337.0779999999995,
      "v": 91
    },
    {
      "midi": 49,
      "hit": false,
      "t": 9445.206458333327,
      "d": 2008.4230833333313,
      "v": 103
    },
    {
      "midi": 73,
      "hit": false,
      "t": 9445.206458333327,
      "d": 2085.670124999997,
      "v": 99
    },
    {
      "midi": 61,
      "hit": false,
      "t": 9445.206458333327,
      "d": 2233.141749999997,
      "v": 99
    },
    {
      "midi": 68,
      "hit": false,
      "t": 9452.22891666666,
      "d": 1903.0862083333323,
      "v": 75
    },
    {
      "midi": 64,
      "hit": false,
      "t": 9452.22891666666,
      "d": 2071.625208333331,
      "v": 107
    },
    {
      "midi": 37,
      "hit": false,
      "t": 9452.22891666666,
      "d": 2422.7481249999983,
      "v": 103
    },
    {
      "midi": 33,
      "hit": false,
      "t": 12141.830458333325,
      "d": 983.1441666666669,
      "v": 95
    },
    {
      "midi": 69,
      "hit": false,
      "t": 12148.852916666658,
      "d": 632.0212499999998,
      "v": 107
    },
    {
      "midi": 64,
      "hit": false,
      "t": 12148.852916666658,
      "d": 653.0886250000003,
      "v": 103
    },
    {
      "midi": 61,
      "hit": false,
      "t": 12148.852916666658,
      "d": 667.1335416666661,
      "v": 87
    },
    {
      "midi": 57,
      "hit": false,
      "t": 12148.852916666658,
      "d": 772.470416666667,
      "v": 107
    },
    {
      "midi": 45,
      "hit": false,
      "t": 12148.852916666658,
      "d": 898.8746666666666,
      "v": 103
    },
    {
      "midi": 57,
      "hit": false,
      "t": 13490.142458333326,
      "d": 667.1335416666661,
      "v": 95
    },
    {
      "midi": 54,
      "hit": false,
      "t": 13490.142458333326,
      "d": 849.7174583333326,
      "v": 95
    },
    {
      "midi": 30,
      "hit": false,
      "t": 13490.142458333326,
      "d": 856.7399166666655,
      "v": 99
    },
    {
      "midi": 42,
      "hit": false,
      "t": 13490.142458333326,
      "d": 1004.2115416666657,
      "v": 99
    },
    {
      "midi": 61,
      "hit": false,
      "t": 13497.16491666666,
      "d": 674.155999999999,
      "v": 75
    },
    {
      "midi": 66,
      "hit": false,
      "t": 13497.16491666666,
      "d": 730.3356666666659,
      "v": 95
    },
    {
      "midi": 59,
      "hit": false,
      "t": 14852.499374999992,
      "d": 259.8309583333339,
      "v": 95
    },
    {
      "midi": 68,
      "hit": false,
      "t": 14852.499374999992,
      "d": 301.965708333335,
      "v": 107
    },
    {
      "midi": 56,
      "hit": false,
      "t": 14852.499374999992,
      "d": 308.9881666666679,
      "v": 107
    },
    {
      "midi": 32,
      "hit": false,
      "t": 14852.499374999992,
      "d": 323.0330833333337,
      "v": 103
    },
    {
      "midi": 44,
      "hit": false,
      "t": 14852.499374999992,
      "d": 372.1902916666677,
      "v": 99
    },
    {
      "midi": 63,
      "hit": false,
      "t": 14859.521833333325,
      "d": 273.87587500000154,
      "v": 91
    },
    {
      "midi": 59,
      "hit": false,
      "t": 15526.655374999993,
      "d": 323.0330833333337,
      "v": 115
    },
    {
      "midi": 71,
      "hit": false,
      "t": 15526.655374999993,
      "d": 323.0330833333337,
      "v": 115
    },
    {
      "midi": 63,
      "hit": false,
      "t": 15526.655374999993,
      "d": 337.0779999999995,
      "v": 107
    },
    {
      "midi": 66,
      "hit": false,
      "t": 15526.655374999993,
      "d": 344.1004583333324,
      "v": 111
    },
    {
      "midi": 35,
      "hit": false,
      "t": 15526.655374999993,
      "d": 365.16783333333296,
      "v": 111
    },
    {
      "midi": 47,
      "hit": false,
      "t": 15526.655374999993,
      "d": 442.4148750000004,
      "v": 107
    },
    {
      "midi": 64,
      "hit": false,
      "t": 16200.811374999992,
      "d": 2057.580291666667,
      "v": 111
    },
    {
      "midi": 73,
      "hit": false,
      "t": 16200.811374999992,
      "d": 2078.647666666666,
      "v": 99
    },
    {
      "midi": 49,
      "hit": false,
      "t": 16200.811374999992,
      "d": 2092.6925833333316,
      "v": 107
    },
    {
      "midi": 61,
      "hit": false,
      "t": 16200.811374999992,
      "d": 2169.9396249999972,
      "v": 103
    },
    {
      "midi": 68,
      "hit": false,
      "t": 16207.833833333325,
      "d": 2008.4230833333331,
      "v": 87
    },
    {
      "midi": 37,
      "hit": false,
      "t": 16207.833833333325,
      "d": 2289.321416666664,
      "v": 103
    },
    {
      "midi": 69,
      "hit": false,
      "t": 18890.412916666653,
      "d": 730.3356666666659,
      "v": 99
    },
    {
      "midi": 64,
      "hit": false,
      "t": 18890.412916666653,
      "d": 758.4254999999976,
      "v": 111
    },
    {
      "midi": 61,
      "hit": false,
      "t": 18890.412916666653,
      "d": 765.4479583333305,
      "v": 103
    },
    {
      "midi": 57,
      "hit": false,
      "t": 18890.412916666653,
      "d": 835.6725416666632,
      "v": 115
    },
    {
      "midi": 45,
      "hit": false,
      "t": 18890.412916666653,
      "d": 912.9195833333288,
      "v": 111
    },
    {
      "midi": 33,
      "hit": false,
      "t": 18890.412916666653,
      "d": 976.1217083333286,
      "v": 95
    },
    {
      "midi": 54,
      "hit": false,
      "t": 20245.74737499998,
      "d": 772.470416666667,
      "v": 99
    },
    {
      "midi": 30,
      "hit": false,
      "t": 20245.74737499998,
      "d": 814.6051666666681,
      "v": 103
    },
    {
      "midi": 42,
      "hit": false,
      "t": 20245.74737499998,
      "d": 891.8522083333337,
      "v": 103
    },
    {
      "midi": 57,
      "hit": false,
      "t": 20252.769833333314,
      "d": 624.9987916666687,
      "v": 99
    },
    {
      "midi": 66,
      "hit": false,
      "t": 20252.769833333314,
      "d": 681.1784583333356,
      "v": 107
    },
    {
      "midi": 61,
      "hit": false,
      "t": 20252.769833333314,
      "d": 688.2009166666685,
      "v": 95
    },
    {
      "midi": 59,
      "hit": false,
      "t": 21587.03691666665,
      "d": 217.69620833333101,
      "v": 95
    },
    {
      "midi": 56,
      "hit": false,
      "t": 21587.03691666665,
      "d": 266.85341666666136,
      "v": 95
    },
    {
      "midi": 68,
      "hit": false,
      "t": 21587.03691666665,
      "d": 266.85341666666136,
      "v": 95
    },
    {
      "midi": 32,
      "hit": false,
      "t": 21587.03691666665,
      "d": 323.03308333332825,
      "v": 83
    },
    {
      "midi": 44,
      "hit": false,
      "t": 21587.03691666665,
      "d": 372.19029166666223,
      "v": 95
    },
    {
      "midi": 63,
      "hit": false,
      "t": 21594.059374999983,
      "d": 231.74112499999683,
      "v": 79
    },
    {
      "midi": 63,
      "hit": false,
      "t": 22254.170458333312,
      "d": 470.50470833333384,
      "v": 107
    },
    {
      "midi": 47,
      "hit": false,
      "t": 22254.170458333312,
      "d": 498.59454166666546,
      "v": 95
    },
    {
      "midi": 66,
      "hit": false,
      "t": 22261.192916666645,
      "d": 442.4148750000022,
      "v": 107
    },
    {
      "midi": 71,
      "hit": false,
      "t": 22261.192916666645,
      "d": 449.4373333333351,
      "v": 111
    },
    {
      "midi": 59,
      "hit": false,
      "t": 22261.192916666645,
      "d": 491.57208333333256,
      "v": 115
    },
    {
      "midi": 35,
      "hit": false,
      "t": 22261.192916666645,
      "d": 505.61699999999837,
      "v": 103
    },
    {
      "midi": 49,
      "hit": false,
      "t": 22942.371374999977,
      "d": 210.67375000000175,
      "v": 107
    },
    {
      "midi": 37,
      "hit": false,
      "t": 22942.371374999977,
      "d": 224.71866666666756,
      "v": 95
    },
    {
      "midi": 64,
      "hit": false,
      "t": 23279.44937499998,
      "d": 147.4716249999983,
      "v": 91
    },
    {
      "midi": 68,
      "hit": false,
      "t": 23279.44937499998,
      "d": 161.51654166666412,
      "v": 99
    },
    {
      "midi": 61,
      "hit": false,
      "t": 23279.44937499998,
      "d": 175.56145833332994,
      "v": 95
    },
    {
      "midi": 61,
      "hit": false,
      "t": 23953.605374999974,
      "d": 140.4491666666654,
      "v": 95
    },
    {
      "midi": 64,
      "hit": false,
      "t": 23953.605374999974,
      "d": 140.4491666666654,
      "v": 95
    },
    {
      "midi": 68,
      "hit": false,
      "t": 23953.605374999974,
      "d": 147.4716249999983,
      "v": 103
    },
    {
      "midi": 49,
      "hit": false,
      "t": 24290.68337499997,
      "d": 217.69620833333465,
      "v": 95
    },
    {
      "midi": 37,
      "hit": false,
      "t": 24290.68337499997,
      "d": 252.80850000000282,
      "v": 95
    },
    {
      "midi": 64,
      "hit": false,
      "t": 24627.761374999973,
      "d": 147.4716249999983,
      "v": 107
    },
    {
      "midi": 68,
      "hit": false,
      "t": 24627.761374999973,
      "d": 147.4716249999983,
      "v": 107
    },
    {
      "midi": 61,
      "hit": false,
      "t": 24627.761374999973,
      "d": 154.49408333333122,
      "v": 87
    },
    {
      "midi": 47,
      "hit": false,
      "t": 24964.83937499997,
      "d": 238.76358333333337,
      "v": 95
    },
    {
      "midi": 35,
      "hit": false,
      "t": 24964.83937499997,
      "d": 301.96570833333317,
      "v": 99
    },
    {
      "midi": 64,
      "hit": false,
      "t": 25301.91737499997,
      "d": 133.4267083333325,
      "v": 103
    },
    {
      "midi": 61,
      "hit": false,
      "t": 25301.91737499997,
      "d": 147.4716249999983,
      "v": 99
    },
    {
      "midi": 68,
      "hit": false,
      "t": 25301.91737499997,
      "d": 154.49408333333122,
      "v": 99
    },
    {
      "midi": 45,
      "hit": false,
      "t": 25638.99537499997,
      "d": 266.853416666665,
      "v": 111
    },
    {
      "midi": 33,
      "hit": false,
      "t": 25638.99537499997,
      "d": 301.96570833333317,
      "v": 111
    },
    {
      "midi": 61,
      "hit": false,
      "t": 25976.07337499997,
      "d": 140.4491666666654,
      "v": 99
    },
    {
      "midi": 64,
      "hit": false,
      "t": 25976.07337499997,
      "d": 140.4491666666654,
      "v": 103
    },
    {
      "midi": 69,
      "hit": false,
      "t": 25976.07337499997,
      "d": 154.49408333333122,
      "v": 99
    },
    {
      "midi": 64,
      "hit": false,
      "t": 26650.22937499997,
      "d": 105.33687500000087,
      "v": 99
    },
    {
      "midi": 61,
      "hit": false,
      "t": 26650.22937499997,
      "d": 112.35933333333378,
      "v": 95
    },
    {
      "midi": 69,
      "hit": false,
      "t": 26650.22937499997,
      "d": 140.4491666666654,
      "v": 95
    },
    {
      "midi": 33,
      "hit": false,
      "t": 26987.307374999968,
      "d": 175.56145833333358,
      "v": 91
    },
    {
      "midi": 45,
      "hit": false,
      "t": 26987.307374999968,
      "d": 287.92079166666736,
      "v": 103
    },
    {
      "midi": 61,
      "hit": false,
      "t": 27324.38537499997,
      "d": 91.29195833333506,
      "v": 99
    },
    {
      "midi": 64,
      "hit": false,
      "t": 27324.38537499997,
      "d": 91.29195833333506,
      "v": 107
    },
    {
      "midi": 69,
      "hit": false,
      "t": 27324.38537499997,
      "d": 147.47162500000195,
      "v": 107
    },
    {
      "midi": 42,
      "hit": false,
      "t": 27661.46337499997,
      "d": 287.92079166666736,
      "v": 103
    },
    {
      "midi": 78,
      "hit": false,
      "t": 27998.54137499997,
      "d": 168.53900000000067,
      "v": 103
    },
    {
      "midi": 85,
      "hit": false,
      "t": 27998.54137499997,
      "d": 168.53900000000067,
      "v": 99
    },
    {
      "midi": 81,
      "hit": false,
      "t": 27998.54137499997,
      "d": 175.56145833333358,
      "v": 95
    },
    {
      "midi": 49,
      "hit": false,
      "t": 28335.619374999973,
      "d": 273.87587500000154,
      "v": 99
    },
    {
      "midi": 37,
      "hit": false,
      "t": 28335.619374999973,
      "d": 280.89833333333445,
      "v": 95
    },
    {
      "midi": 64,
      "hit": false,
      "t": 28672.697374999974,
      "d": 105.33687500000087,
      "v": 83
    },
    {
      "midi": 61,
      "hit": false,
      "t": 28672.697374999974,
      "d": 126.40424999999959,
      "v": 87
    },
    {
      "midi": 68,
      "hit": false,
      "t": 28672.697374999974,
      "d": 126.40424999999959,
      "v": 91
    },
    {
      "midi": 64,
      "hit": false,
      "t": 29346.853374999973,
      "d": 77.24704166666561,
      "v": 87
    },
    {
      "midi": 61,
      "hit": false,
      "t": 29346.853374999973,
      "d": 84.26949999999852,
      "v": 83
    },
    {
      "midi": 68,
      "hit": false,
      "t": 29346.853374999973,
      "d": 91.29195833333142,
      "v": 95
    },
    {
      "midi": 37,
      "hit": false,
      "t": 29683.93137499997,
      "d": 316.010624999999,
      "v": 87
    },
    {
      "midi": 49,
      "hit": false,
      "t": 29683.93137499997,
      "d": 316.010624999999,
      "v": 95
    },
    {
      "midi": 64,
      "hit": false,
      "t": 30021.00937499997,
      "d": 77.24704166666561,
      "v": 95
    },
    {
      "midi": 61,
      "hit": false,
      "t": 30021.00937499997,
      "d": 91.29195833333142,
      "v": 95
    },
    {
      "midi": 68,
      "hit": false,
      "t": 30021.00937499997,
      "d": 105.33687499999724,
      "v": 99
    },
    {
      "midi": 71,
      "hit": false,
      "t": 30695.165374999968,
      "d": 189.6063749999994,
      "v": 111
    },
    {
      "midi": 75,
      "hit": false,
      "t": 30695.165374999968,
      "d": 203.6512916666652,
      "v": 107
    },
    {
      "midi": 68,
      "hit": false,
      "t": 30695.165374999968,
      "d": 252.80849999999919,
      "v": 107
    },
    {
      "midi": 54,
      "hit": false,
      "t": 31032.243374999965,
      "d": 316.010624999999,
      "v": 99
    },
    {
      "midi": 42,
      "hit": false,
      "t": 31032.243374999965,
      "d": 351.1229166666635,
      "v": 83
    },
    {
      "midi": 66,
      "hit": false,
      "t": 31369.321374999963,
      "d": 112.35933333333378,
      "v": 99
    },
    {
      "midi": 61,
      "hit": false,
      "t": 31369.321374999963,
      "d": 119.38179166666669,
      "v": 83
    },
    {
      "midi": 69,
      "hit": false,
      "t": 31369.321374999963,
      "d": 126.40424999999959,
      "v": 99
    },
    {
      "midi": 66,
      "hit": false,
      "t": 32043.477374999962,
      "d": 84.26949999999852,
      "v": 103
    },
    {
      "midi": 61,
      "hit": false,
      "t": 32043.477374999962,
      "d": 91.29195833333142,
      "v": 87
    },
    {
      "midi": 69,
      "hit": false,
      "t": 32043.477374999962,
      "d": 112.35933333333014,
      "v": 99
    },
    {
      "midi": 42,
      "hit": false,
      "t": 32380.55537499996,
      "d": 168.53900000000067,
      "v": 99
    },
    {
      "midi": 54,
      "hit": false,
      "t": 32380.55537499996,
      "d": 175.56145833333358,
      "v": 107
    },
    {
      "midi": 61,
      "hit": false,
      "t": 32717.63337499996,
      "d": 77.24704166666925,
      "v": 91
    },
    {
      "midi": 66,
      "hit": false,
      "t": 32717.63337499996,
      "d": 77.24704166666925,
      "v": 103
    },
    {
      "midi": 69,
      "hit": false,
      "t": 32717.63337499996,
      "d": 98.31441666666797,
      "v": 95
    },
    {
      "midi": 42,
      "hit": false,
      "t": 32717.63337499996,
      "d": 266.853416666665,
      "v": 87
    },
    {
      "midi": 54,
      "hit": false,
      "t": 32717.63337499996,
      "d": 273.8758749999979,
      "v": 103
    },
    {
      "midi": 50,
      "hit": false,
      "t": 33054.71137499996,
      "d": 316.0106250000026,
      "v": 95
    },
    {
      "midi": 57,
      "hit": false,
      "t": 33391.789374999964,
      "d": 203.65129166666884,
      "v": 91
    },
    {
      "midi": 78,
      "hit": false,
      "t": 33391.789374999964,
      "d": 203.65129166666884,
      "v": 111
    },
    {
      "midi": 81,
      "hit": false,
      "t": 33391.789374999964,
      "d": 224.71866666666756,
      "v": 111
    },
    {
      "midi": 74,
      "hit": false,
      "t": 33391.789374999964,
      "d": 231.74112500000047,
      "v": 115
    },
    {
      "midi": 49,
      "hit": false,
      "t": 33728.867374999965,
      "d": 245.78604166666628,
      "v": 95
    },
    {
      "midi": 37,
      "hit": false,
      "t": 33728.867374999965,
      "d": 252.80849999999919,
      "v": 91
    },
    {
      "midi": 68,
      "hit": false,
      "t": 34065.94537499997,
      "d": 133.4267083333325,
      "v": 95
    },
    {
      "midi": 64,
      "hit": false,
      "t": 34065.94537499997,
      "d": 140.4491666666654,
      "v": 75
    },
    {
      "midi": 61,
      "hit": false,
      "t": 34065.94537499997,
      "d": 154.49408333333122,
      "v": 91
    },
    {
      "midi": 64,
      "hit": false,
      "t": 34740.10137499996,
      "d": 70.22458333333634,
      "v": 63
    },
    {
      "midi": 68,
      "hit": false,
      "t": 34740.10137499996,
      "d": 98.31441666666797,
      "v": 87
    },
    {
      "midi": 61,
      "hit": false,
      "t": 34740.10137499996,
      "d": 105.33687500000087,
      "v": 83
    },
    {
      "midi": 49,
      "hit": false,
      "t": 35077.17937499996,
      "d": 323.0330833333355,
      "v": 91
    },
    {
      "midi": 37,
      "hit": false,
      "t": 35077.17937499996,
      "d": 330.05554166666843,
      "v": 83
    },
    {
      "midi": 64,
      "hit": false,
      "t": 35414.257374999965,
      "d": 301.9657083333368,
      "v": 91
    },
    {
      "midi": 68,
      "hit": false,
      "t": 35414.257374999965,
      "d": 308.9881666666697,
      "v": 95
    },
    {
      "midi": 61,
      "hit": false,
      "t": 35414.257374999965,
      "d": 323.0330833333355,
      "v": 95
    },
    {
      "midi": 47,
      "hit": false,
      "t": 35751.335374999966,
      "d": 428.3699583333364,
      "v": 107
    },
    {
      "midi": 35,
      "hit": false,
      "t": 35751.335374999966,
      "d": 533.7068333333373,
      "v": 99
    },
    {
      "midi": 59,
      "hit": false,
      "t": 36088.41337499997,
      "d": 266.8534166666723,
      "v": 103
    },
    {
      "midi": 68,
      "hit": false,
      "t": 36088.41337499997,
      "d": 273.8758750000052,
      "v": 99
    },
    {
      "midi": 64,
      "hit": false,
      "t": 36088.41337499997,
      "d": 301.9657083333368,
      "v": 99
    },
    {
      "midi": 33,
      "hit": false,
      "t": 36425.49137499997,
      "d": 393.2576666666646,
      "v": 103
    },
    {
      "midi": 45,
      "hit": false,
      "t": 36425.49137499997,
      "d": 393.2576666666646,
      "v": 103
    },
    {
      "midi": 64,
      "hit": false,
      "t": 36762.56937499997,
      "d": 133.4267083333325,
      "v": 99
    },
    {
      "midi": 61,
      "hit": false,
      "t": 36762.56937499997,
      "d": 147.4716249999983,
      "v": 103
    },
    {
      "midi": 69,
      "hit": false,
      "t": 36762.56937499997,
      "d": 168.53899999999703,
      "v": 103
    },
    {
      "midi": 64,
      "hit": false,
      "t": 37436.725374999965,
      "d": 91.29195833333506,
      "v": 95
    },
    {
      "midi": 61,
      "hit": false,
      "t": 37436.725374999965,
      "d": 98.31441666666797,
      "v": 95
    },
    {
      "midi": 69,
      "hit": false,
      "t": 37436.725374999965,
      "d": 133.4267083333325,
      "v": 95
    },
    {
      "midi": 45,
      "hit": false,
      "t": 37773.80337499997,
      "d": 231.74112500000047,
      "v": 111
    },
    {
      "midi": 33,
      "hit": false,
      "t": 37773.80337499997,
      "d": 323.0330833333355,
      "v": 95
    },
    {
      "midi": 61,
      "hit": false,
      "t": 38110.88137499997,
      "d": 168.53899999999703,
      "v": 107
    },
    {
      "midi": 64,
      "hit": false,
      "t": 38110.88137499997,
      "d": 168.53899999999703,
      "v": 107
    },
    {
      "midi": 69,
      "hit": false,
      "t": 38110.88137499997,
      "d": 168.53899999999703,
      "v": 99
    },
    {
      "midi": 42,
      "hit": false,
      "t": 38447.95937499996,
      "d": 294.9432499999966,
      "v": 103
    },
    {
      "midi": 30,
      "hit": false,
      "t": 38447.95937499996,
      "d": 308.98816666666244,
      "v": 107
    },
    {
      "midi": 78,
      "hit": false,
      "t": 38785.037374999956,
      "d": 337.07800000000134,
      "v": 99
    },
    {
      "midi": 81,
      "hit": false,
      "t": 38785.037374999956,
      "d": 337.07800000000134,
      "v": 87
    },
    {
      "midi": 85,
      "hit": false,
      "t": 38785.037374999956,
      "d": 337.07800000000134,
      "v": 103
    },
    {
      "midi": 37,
      "hit": false,
      "t": 39122.11537499996,
      "d": 337.07800000000134,
      "v": 103
    },
    {
      "midi": 49,
      "hit": false,
      "t": 39122.11537499996,
      "d": 337.07800000000134,
      "v": 103
    },
    {
      "midi": 64,
      "hit": false,
      "t": 39459.19337499996,
      "d": 77.24704166666925,
      "v": 67
    },
    {
      "midi": 61,
      "hit": false,
      "t": 39459.19337499996,
      "d": 126.40424999999959,
      "v": 91
    },
    {
      "midi": 68,
      "hit": false,
      "t": 39459.19337499996,
      "d": 126.40424999999959,
      "v": 87
    },
    {
      "midi": 64,
      "hit": false,
      "t": 40133.34937499996,
      "d": 70.22458333333634,
      "v": 79
    },
    {
      "midi": 61,
      "hit": false,
      "t": 40133.34937499996,
      "d": 91.29195833333506,
      "v": 95
    },
    {
      "midi": 68,
      "hit": false,
      "t": 40133.34937499996,
      "d": 98.31441666666797,
      "v": 95
    },
    {
      "midi": 37,
      "hit": false,
      "t": 40470.42737499996,
      "d": 168.53899999999703,
      "v": 103
    },
    {
      "midi": 49,
      "hit": false,
      "t": 40470.42737499996,
      "d": 182.58391666666284,
      "v": 99
    },
    {
      "midi": 61,
      "hit": false,
      "t": 40807.50537499996,
      "d": 77.24704166666925,
      "v": 87
    },
    {
      "midi": 64,
      "hit": false,
      "t": 40807.50537499996,
      "d": 77.24704166666925,
      "v": 83
    },
    {
      "midi": 68,
      "hit": false,
      "t": 40807.50537499996,
      "d": 119.38179166666669,
      "v": 91
    },
    {
      "midi": 37,
      "hit": false,
      "t": 40807.50537499996,
      "d": 287.9207916666637,
      "v": 99
    },
    {
      "midi": 49,
      "hit": false,
      "t": 40807.50537499996,
      "d": 323.03308333332825,
      "v": 103
    },
    {
      "midi": 44,
      "hit": false,
      "t": 41144.58337499995,
      "d": 575.8415833333347,
      "v": 95
    },
    {
      "midi": 71,
      "hit": false,
      "t": 41481.66137499995,
      "d": 189.60637500000303,
      "v": 111
    },
    {
      "midi": 75,
      "hit": false,
      "t": 41481.66137499995,
      "d": 203.65129166666884,
      "v": 111
    },
    {
      "midi": 68,
      "hit": false,
      "t": 41481.66137499995,
      "d": 231.74112500000047,
      "v": 103
    },
    {
      "midi": 54,
      "hit": false,
      "t": 41818.739374999954,
      "d": 421.3475000000035,
      "v": 103
    },
    {
      "midi": 42,
      "hit": false,
      "t": 41818.739374999954,
      "d": 519.6619166666642,
      "v": 107
    },
    {
      "midi": 66,
      "hit": false,
      "t": 42155.817374999955,
      "d": 119.38179166666669,
      "v": 99
    },
    {
      "midi": 69,
      "hit": false,
      "t": 42155.817374999955,
      "d": 126.40424999999959,
      "v": 95
    },
    {
      "midi": 61,
      "hit": false,
      "t": 42155.817374999955,
      "d": 133.4267083333325,
      "v": 91
    },
    {
      "midi": 61,
      "hit": false,
      "t": 42829.97337499995,
      "d": 91.29195833333506,
      "v": 99
    },
    {
      "midi": 66,
      "hit": false,
      "t": 42829.97337499995,
      "d": 98.31441666666797,
      "v": 103
    },
    {
      "midi": 69,
      "hit": false,
      "t": 42829.97337499995,
      "d": 119.38179166666669,
      "v": 95
    },
    {
      "midi": 54,
      "hit": false,
      "t": 43167.05137499995,
      "d": 688.2009166666612,
      "v": 115
    },
    {
      "midi": 66,
      "hit": false,
      "t": 43504.12937499995,
      "d": 147.4716249999983,
      "v": 103
    },
    {
      "midi": 69,
      "hit": false,
      "t": 43504.12937499995,
      "d": 154.49408333333122,
      "v": 99
    },
    {
      "midi": 61,
      "hit": false,
      "t": 43504.12937499995,
      "d": 161.51654166666412,
      "v": 107
    },
    {
      "midi": 50,
      "hit": false,
      "t": 43841.20737499995,
      "d": 554.774208333336,
      "v": 115
    },
    {
      "midi": 66,
      "hit": false,
      "t": 44178.28537499995,
      "d": 182.58391666667012,
      "v": 99
    },
    {
      "midi": 69,
      "hit": false,
      "t": 44178.28537499995,
      "d": 189.60637500000303,
      "v": 95
    },
    {
      "midi": 61,
      "hit": false,
      "t": 44178.28537499995,
      "d": 203.65129166666884,
      "v": 87
    },
    {
      "midi": 76,
      "hit": false,
      "t": 44494.296,
      "d": 1172.7505416666681,
      "v": 57
    },
    {
      "midi": 68,
      "hit": false,
      "t": 44515.36337499995,
      "d": 990.1666250000053,
      "v": 91
    },
    {
      "midi": 59,
      "hit": false,
      "t": 44515.36337499995,
      "d": 1018.2564583333369,
      "v": 87
    },
    {
      "midi": 40,
      "hit": false,
      "t": 44515.36337499995,
      "d": 1081.4585833333404,
      "v": 91
    },
    {
      "midi": 64,
      "hit": false,
      "t": 44515.36337499995,
      "d": 1285.1098750000092,
      "v": 79
    },
    {
      "midi": 80,
      "hit": false,
      "t": 44831.374,
      "d": 358.14537500000006,
      "v": 63
    },
    {
      "midi": 47,
      "hit": false,
      "t": 44852.44137499995,
      "d": 351.12291666666715,
      "v": 63
    },
    {
      "midi": 83,
      "hit": false,
      "t": 45168.452000000005,
      "d": 737.3581250000061,
      "v": 67
    },
    {
      "midi": 52,
      "hit": false,
      "t": 45189.51937499995,
      "d": 344.10045833333425,
      "v": 95
    },
    {
      "midi": 88,
      "hit": false,
      "t": 45505.530000000006,
      "d": 252.80849999999919,
      "v": 75
    },
    {
      "midi": 47,
      "hit": false,
      "t": 45526.597374999954,
      "d": 372.19029166667315,
      "v": 91
    },
    {
      "midi": 75,
      "hit": false,
      "t": 45842.60800000001,
      "d": 1235.9526666666643,
      "v": 65
    },
    {
      "midi": 59,
      "hit": false,
      "t": 45863.67537499996,
      "d": 758.4254999999976,
      "v": 87
    },
    {
      "midi": 63,
      "hit": false,
      "t": 45863.67537499996,
      "d": 870.7848333333313,
      "v": 75
    },
    {
      "midi": 66,
      "hit": false,
      "t": 45863.67537499996,
      "d": 870.7848333333313,
      "v": 99
    },
    {
      "midi": 39,
      "hit": false,
      "t": 45863.67537499996,
      "d": 1004.2115416666638,
      "v": 95
    },
    {
      "midi": 78,
      "hit": false,
      "t": 46179.68600000001,
      "d": 379.2127499999988,
      "v": 58
    },
    {
      "midi": 47,
      "hit": false,
      "t": 46200.753374999964,
      "d": 386.2352083333317,
      "v": 79
    },
    {
      "midi": 83,
      "hit": false,
      "t": 46516.76400000001,
      "d": 379.2127499999915,
      "v": 55
    },
    {
      "midi": 51,
      "hit": false,
      "t": 46537.831374999965,
      "d": 301.96570833332953,
      "v": 95
    },
    {
      "midi": 87,
      "hit": false,
      "t": 46853.842000000004,
      "d": 379.2127499999988,
      "v": 75
    },
    {
      "midi": 47,
      "hit": false,
      "t": 46874.90937499996,
      "d": 203.65129166666884,
      "v": 67
    },
    {
      "midi": 73,
      "hit": false,
      "t": 47190.920000000006,
      "d": 1706.4573749999909,
      "v": 65
    },
    {
      "midi": 64,
      "hit": false,
      "t": 47211.98737499996,
      "d": 358.14537500000006,
      "v": 75
    },
    {
      "midi": 37,
      "hit": false,
      "t": 47211.98737499996,
      "d": 1137.638249999989,
      "v": 79
    },
    {
      "midi": 76,
      "hit": false,
      "t": 47527.998,
      "d": 351.12291666666715,
      "v": 59
    },
    {
      "midi": 44,
      "hit": false,
      "t": 47549.06537499996,
      "d": 301.96570833332953,
      "v": 63
    },
    {
      "midi": 61,
      "hit": false,
      "t": 47549.06537499996,
      "d": 948.031874999986,
      "v": 75
    },
    {
      "midi": 80,
      "hit": false,
      "t": 47865.076,
      "d": 365.16783333333296,
      "v": 63
    },
    {
      "midi": 64,
      "hit": false,
      "t": 47886.143374999956,
      "d": 365.16783333333296,
      "v": 87
    },
    {
      "midi": 49,
      "hit": false,
      "t": 47886.143374999956,
      "d": 414.3250416666633,
      "v": 83
    },
    {
      "midi": 85,
      "hit": false,
      "t": 48202.154,
      "d": 386.2352083333317,
      "v": 71
    },
    {
      "midi": 44,
      "hit": false,
      "t": 48223.22137499996,
      "d": 365.1678333333257,
      "v": 87
    },
    {
      "midi": 68,
      "hit": false,
      "t": 48223.22137499996,
      "d": 997.1890833333309,
      "v": 95
    },
    {
      "midi": 80,
      "hit": false,
      "t": 48539.232,
      "d": 639.0437083333236,
      "v": 67
    },
    {
      "midi": 64,
      "hit": false,
      "t": 48560.29937499995,
      "d": 428.3699583333364,
      "v": 103
    },
    {
      "midi": 37,
      "hit": false,
      "t": 48560.29937499995,
      "d": 1011.234000000004,
      "v": 99
    },
    {
      "midi": 76,
      "hit": false,
      "t": 48876.31,
      "d": 456.45979166666075,
      "v": 58
    },
    {
      "midi": 44,
      "hit": false,
      "t": 48897.37737499995,
      "d": 470.50470833333384,
      "v": 87
    },
    {
      "midi": 61,
      "hit": false,
      "t": 48897.37737499995,
      "d": 814.6051666666681,
      "v": 95
    },
    {
      "midi": 73,
      "hit": false,
      "t": 49213.38799999999,
      "d": 351.12291666666715,
      "v": 59
    },
    {
      "midi": 49,
      "hit": false,
      "t": 49234.455374999954,
      "d": 365.16783333333296,
      "v": 95
    },
    {
      "midi": 64,
      "hit": false,
      "t": 49234.455374999954,
      "d": 365.16783333333296,
      "v": 99
    },
    {
      "midi": 76,
      "hit": false,
      "t": 49550.46599999999,
      "d": 351.12291666666715,
      "v": 55
    },
    {
      "midi": 44,
      "hit": false,
      "t": 49571.533374999955,
      "d": 112.35933333333378,
      "v": 91
    },
    {
      "midi": 68,
      "hit": false,
      "t": 49571.533374999955,
      "d": 337.07800000000134,
      "v": 99
    },
    {
      "midi": 78,
      "hit": false,
      "t": 49887.543999999994,
      "d": 1172.7505416666681,
      "v": 79
    },
    {
      "midi": 69,
      "hit": false,
      "t": 49908.61137499996,
      "d": 856.7399166666728,
      "v": 99
    },
    {
      "midi": 66,
      "hit": false,
      "t": 49908.61137499996,
      "d": 905.8971250000031,
      "v": 91
    },
    {
      "midi": 42,
      "hit": false,
      "t": 49908.61137499996,
      "d": 1053.3687500000015,
      "v": 95
    },
    {
      "midi": 61,
      "hit": false,
      "t": 49908.61137499996,
      "d": 1074.4361250000002,
      "v": 87
    },
    {
      "midi": 81,
      "hit": false,
      "t": 50224.621999999996,
      "d": 344.10045833333425,
      "v": 51
    },
    {
      "midi": 49,
      "hit": false,
      "t": 50245.68937499996,
      "d": 308.9881666666697,
      "v": 79
    },
    {
      "midi": 85,
      "hit": false,
      "t": 50561.7,
      "d": 393.2576666666646,
      "v": 67
    },
    {
      "midi": 54,
      "hit": false,
      "t": 50582.76737499996,
      "d": 294.9432500000039,
      "v": 103
    },
    {
      "midi": 90,
      "hit": false,
      "t": 50898.778,
      "d": 301.96570833332953,
      "v": 75
    },
    {
      "midi": 49,
      "hit": false,
      "t": 50919.84537499996,
      "d": 161.51654166666412,
      "v": 79
    },
    {
      "midi": 76,
      "hit": false,
      "t": 51235.85599999999,
      "d": 1109.548416666672,
      "v": 58
    },
    {
      "midi": 68,
      "hit": false,
      "t": 51256.923374999955,
      "d": 807.5827083333279,
      "v": 95
    },
    {
      "midi": 59,
      "hit": false,
      "t": 51256.923374999955,
      "d": 814.6051666666608,
      "v": 91
    },
    {
      "midi": 64,
      "hit": false,
      "t": 51256.923374999955,
      "d": 814.6051666666608,
      "v": 95
    },
    {
      "midi": 40,
      "hit": false,
      "t": 51256.923374999955,
      "d": 1018.2564583333224,
      "v": 99
    },
    {
      "midi": 81,
      "hit": false,
      "t": 51572.933999999994,
      "d": 407.3025833333377,
      "v": 64
    },
    {
      "midi": 47,
      "hit": false,
      "t": 51594.00137499995,
      "d": 330.05554166666843,
      "v": 83
    },
    {
      "midi": 85,
      "hit": false,
      "t": 51910.011999999995,
      "d": 695.2233750000014,
      "v": 67
    },
    {
      "midi": 52,
      "hit": false,
      "t": 51931.07937499995,
      "d": 316.01062499999534,
      "v": 79
    },
    {
      "midi": 88,
      "hit": false,
      "t": 52247.09,
      "d": 344.10045833333425,
      "v": 75
    },
    {
      "midi": 47,
      "hit": false,
      "t": 52268.157374999944,
      "d": 372.19029166666587,
      "v": 79
    },
    {
      "midi": 75,
      "hit": false,
      "t": 52584.168,
      "d": 1720.5022916666567,
      "v": 53
    },
    {
      "midi": 59,
      "hit": false,
      "t": 52605.235374999946,
      "d": 596.9089583333334,
      "v": 91
    },
    {
      "midi": 63,
      "hit": false,
      "t": 52605.235374999946,
      "d": 1081.458583333333,
      "v": 91
    },
    {
      "midi": 66,
      "hit": false,
      "t": 52605.235374999946,
      "d": 1404.4916666666613,
      "v": 103
    },
    {
      "midi": 39,
      "hit": false,
      "t": 52605.235374999946,
      "d": 2373.590916666646,
      "v": 83
    },
    {
      "midi": 78,
      "hit": false,
      "t": 52921.246,
      "d": 344.10045833333425,
      "v": 59
    },
    {
      "midi": 47,
      "hit": false,
      "t": 52942.31337499995,
      "d": 372.19029166666587,
      "v": 83
    },
    {
      "midi": 83,
      "hit": false,
      "t": 53258.324,
      "d": 379.2127499999988,
      "v": 67
    },
    {
      "midi": 51,
      "hit": false,
      "t": 53279.39137499995,
      "d": 372.19029166666587,
      "v": 99
    },
    {
      "midi": 87,
      "hit": false,
      "t": 53595.402,
      "d": 386.2352083333244,
      "v": 79
    },
    {
      "midi": 47,
      "hit": false,
      "t": 53616.46937499995,
      "d": 365.1678333333257,
      "v": 75
    },
    {
      "midi": 59,
      "hit": false,
      "t": 53616.46937499995,
      "d": 1516.8509999999733,
      "v": 87
    },
    {
      "midi": 83,
      "hit": false,
      "t": 53932.479999999996,
      "d": 1278.0874166666617,
      "v": 63
    },
    {
      "midi": 51,
      "hit": false,
      "t": 53953.547374999944,
      "d": 386.2352083333244,
      "v": 91
    },
    {
      "midi": 63,
      "hit": false,
      "t": 53953.547374999944,
      "d": 702.2458333333198,
      "v": 103
    },
    {
      "midi": 78,
      "hit": false,
      "t": 54269.55799999999,
      "d": 386.2352083333317,
      "v": 59
    },
    {
      "midi": 47,
      "hit": false,
      "t": 54290.62537499994,
      "d": 344.10045833332697,
      "v": 87
    },
    {
      "midi": 71,
      "hit": false,
      "t": 54290.62537499994,
      "d": 484.5496249999924,
      "v": 107
    },
    {
      "midi": 75,
      "hit": false,
      "t": 54606.63599999999,
      "d": 617.9763333333321,
      "v": 49
    },
    {
      "midi": 51,
      "hit": false,
      "t": 54627.70337499993,
      "d": 308.98816666666244,
      "v": 91
    },
    {
      "midi": 66,
      "hit": false,
      "t": 54627.70337499993,
      "d": 589.886499999986,
      "v": 107
    },
    {
      "midi": 78,
      "hit": false,
      "t": 54943.713999999985,
      "d": 196.62883333333593,
      "v": 51
    },
    {
      "midi": 63,
      "hit": false,
      "t": 54964.781374999926,
      "d": 217.69620833332738,
      "v": 79
    },
    {
      "midi": 47,
      "hit": false,
      "t": 54964.781374999926,
      "d": 421.3474999999962,
      "v": 71
    },
    {
      "midi": 76,
      "hit": false,
      "t": 55280.79199999999,
      "d": 1144.6607083333365,
      "v": 53
    },
    {
      "midi": 59,
      "hit": false,
      "t": 55301.85937499992,
      "d": 1025.2789166666698,
      "v": 83
    },
    {
      "midi": 64,
      "hit": false,
      "t": 55301.85937499992,
      "d": 1025.2789166666698,
      "v": 91
    },
    {
      "midi": 40,
      "hit": false,
      "t": 55301.85937499992,
      "d": 1088.481041666666,
      "v": 99
    },
    {
      "midi": 68,
      "hit": false,
      "t": 55301.85937499992,
      "d": 1285.109875000002,
      "v": 87
    },
    {
      "midi": 80,
      "hit": false,
      "t": 55617.86999999999,
      "d": 323.0330833333355,
      "v": 63
    },
    {
      "midi": 47,
      "hit": false,
      "t": 55638.93737499992,
      "d": 323.0330833333355,
      "v": 91
    },
    {
      "midi": 83,
      "hit": false,
      "t": 55954.94799999999,
      "d": 386.2352083333317,
      "v": 63
    },
    {
      "midi": 52,
      "hit": false,
      "t": 55976.01537499992,
      "d": 393.2576666666646,
      "v": 95
    },
    {
      "midi": 88,
      "hit": false,
      "t": 56292.02599999999,
      "d": 316.0106250000026,
      "v": 79
    },
    {
      "midi": 47,
      "hit": false,
      "t": 56313.093374999924,
      "d": 386.2352083333244,
      "v": 91
    },
    {
      "midi": 75,
      "hit": false,
      "t": 56629.10399999999,
      "d": 1214.8852916666656,
      "v": 49
    },
    {
      "midi": 59,
      "hit": false,
      "t": 56650.17137499992,
      "d": 758.4254999999903,
      "v": 87
    },
    {
      "midi": 63,
      "hit": false,
      "t": 56650.17137499992,
      "d": 856.7399166666582,
      "v": 87
    },
    {
      "midi": 39,
      "hit": false,
      "t": 56650.17137499992,
      "d": 1046.346291666654,
      "v": 95
    },
    {
      "midi": 66,
      "hit": false,
      "t": 56650.17137499992,
      "d": 1292.1323333333203,
      "v": 95
    },
    {
      "midi": 80,
      "hit": false,
      "t": 56966.18199999999,
      "d": 351.12291666666715,
      "v": 55
    },
    {
      "midi": 47,
      "hit": false,
      "t": 56987.24937499991,
      "d": 379.2127499999988,
      "v": 79
    },
    {
      "midi": 83,
      "hit": false,
      "t": 57303.259999999995,
      "d": 393.2576666666646,
      "v": 59
    },
    {
      "midi": 51,
      "hit": false,
      "t": 57324.32737499991,
      "d": 294.9432499999966,
      "v": 95
    },
    {
      "midi": 87,
      "hit": false,
      "t": 57640.337999999996,
      "d": 421.3474999999962,
      "v": 75
    },
    {
      "midi": 47,
      "hit": false,
      "t": 57661.40537499991,
      "d": 182.58391666666284,
      "v": 67
    },
    {
      "midi": 73,
      "hit": false,
      "t": 57977.41599999999,
      "d": 1144.6607083333365,
      "v": 61
    },
    {
      "midi": 61,
      "hit": false,
      "t": 57998.4833749999,
      "d": 863.7623749999984,
      "v": 83
    },
    {
      "midi": 64,
      "hit": false,
      "t": 57998.4833749999,
      "d": 990.166624999998,
      "v": 95
    },
    {
      "midi": 37,
      "hit": false,
      "t": 57998.4833749999,
      "d": 1088.481041666666,
      "v": 91
    },
    {
      "midi": 56,
      "hit": false,
      "t": 57998.4833749999,
      "d": 1214.8852916666656,
      "v": 83
    },
    {
      "midi": 80,
      "hit": false,
      "t": 58314.49399999999,
      "d": 323.0330833333355,
      "v": 47
    },
    {
      "midi": 44,
      "hit": false,
      "t": 58335.5613749999,
      "d": 294.9432499999966,
      "v": 63
    },
    {
      "midi": 85,
      "hit": false,
      "t": 58651.57199999999,
      "d": 519.6619166666642,
      "v": 83
    },
    {
      "midi": 49,
      "hit": false,
      "t": 58672.6393749999,
      "d": 294.9432500000039,
      "v": 95
    },
    {
      "midi": 80,
      "hit": false,
      "t": 58988.649999999994,
      "d": 477.52716666665947,
      "v": 59
    },
    {
      "midi": 44,
      "hit": false,
      "t": 59009.7173749999,
      "d": 351.12291666666715,
      "v": 75
    },
    {
      "midi": 71,
      "hit": false,
      "t": 59325.72799999999,
      "d": 1327.2446249999994,
      "v": 53
    },
    {
      "midi": 59,
      "hit": false,
      "t": 59346.7953749999,
      "d": 386.2352083333317,
      "v": 75
    },
    {
      "midi": 64,
      "hit": false,
      "t": 59346.7953749999,
      "d": 765.4479583333305,
      "v": 99
    },
    {
      "midi": 47,
      "hit": false,
      "t": 59346.7953749999,
      "d": 1257.0200416666557,
      "v": 103
    },
    {
      "midi": 80,
      "hit": false,
      "t": 59662.80599999999,
      "d": 400.2801250000048,
      "v": 59
    },
    {
      "midi": 56,
      "hit": false,
      "t": 59683.8733749999,
      "d": 400.2801249999975,
      "v": 99
    },
    {
      "midi": 83,
      "hit": false,
      "t": 59999.88399999999,
      "d": 435.3924166666693,
      "v": 71
    },
    {
      "midi": 59,
      "hit": false,
      "t": 60020.951374999895,
      "d": 358.14537500000006,
      "v": 83
    },
    {
      "midi": 80,
      "hit": false,
      "t": 60336.96199999999,
      "d": 259.8309583333321,
      "v": 55
    },
    {
      "midi": 64,
      "hit": false,
      "t": 60358.0293749999,
      "d": 70.22458333332906,
      "v": 95
    },
    {
      "midi": 81,
      "hit": false,
      "t": 60674.039999999986,
      "d": 1144.6607083333365,
      "v": 49
    },
    {
      "midi": 69,
      "hit": false,
      "t": 60695.10737499989,
      "d": 737.3581250000061,
      "v": 115
    },
    {
      "midi": 45,
      "hit": false,
      "t": 60695.10737499989,
      "d": 1046.3462916666685,
      "v": 107
    },
    {
      "midi": 85,
      "hit": false,
      "t": 61011.11799999999,
      "d": 323.0330833333355,
      "v": 55
    },
    {
      "midi": 52,
      "hit": false,
      "t": 61032.18537499989,
      "d": 308.9881666666697,
      "v": 95
    },
    {
      "midi": 61,
      "hit": false,
      "t": 61032.18537499989,
      "d": 688.2009166666685,
      "v": 95
    },
    {
      "midi": 90,
      "hit": false,
      "t": 61348.19599999999,
      "d": 330.05554166666843,
      "v": 75
    },
    {
      "midi": 57,
      "hit": false,
      "t": 61369.26337499989,
      "d": 351.12291666666715,
      "v": 99
    },
    {
      "midi": 64,
      "hit": false,
      "t": 61369.26337499989,
      "d": 674.1560000000027,
      "v": 103
    },
    {
      "midi": 93,
      "hit": false,
      "t": 61685.27399999999,
      "d": 351.12291666666715,
      "v": 79
    },
    {
      "midi": 69,
      "hit": false,
      "t": 61706.341374999894,
      "d": 351.12291666666715,
      "v": 99
    },
    {
      "midi": 52,
      "hit": false,
      "t": 61706.341374999894,
      "d": 386.2352083333317,
      "v": 95
    },
    {
      "midi": 80,
      "hit": false,
      "t": 62022.35199999999,
      "d": 1179.773000000001,
      "v": 61
    },
    {
      "midi": 68,
      "hit": false,
      "t": 62043.419374999896,
      "d": 744.3805833333317,
      "v": 99
    },
    {
      "midi": 44,
      "hit": false,
      "t": 62043.419374999896,
      "d": 1046.3462916666613,
      "v": 95
    },
    {
      "midi": 85,
      "hit": false,
      "t": 62359.42999999999,
      "d": 323.0330833333355,
      "v": 55
    },
    {
      "midi": 52,
      "hit": false,
      "t": 62380.49737499989,
      "d": 330.05554166666843,
      "v": 79
    },
    {
      "midi": 59,
      "hit": false,
      "t": 62380.49737499989,
      "d": 828.6500833333339,
      "v": 71
    },
    {
      "midi": 90,
      "hit": false,
      "t": 62696.507999999994,
      "d": 337.07800000000134,
      "v": 63
    },
    {
      "midi": 56,
      "hit": false,
      "t": 62717.57537499989,
      "d": 323.0330833333355,
      "v": 99
    },
    {
      "midi": 64,
      "hit": false,
      "t": 62717.57537499989,
      "d": 491.57208333333256,
      "v": 91
    },
    {
      "midi": 92,
      "hit": false,
      "t": 63033.585999999996,
      "d": 421.3474999999962,
      "v": 63
    },
    {
      "midi": 52,
      "hit": false,
      "t": 63054.65337499989,
      "d": 217.69620833333465,
      "v": 91
    },
    {
      "midi": 68,
      "hit": false,
      "t": 63054.65337499989,
      "d": 337.07800000000134,
      "v": 87
    },
    {
      "midi": 78,
      "hit": false,
      "t": 63370.66399999999,
      "d": 1172.7505416666754,
      "v": 61
    },
    {
      "midi": 66,
      "hit": false,
      "t": 63391.731374999894,
      "d": 737.3581249999988,
      "v": 107
    },
    {
      "midi": 42,
      "hit": false,
      "t": 63391.731374999894,
      "d": 1186.7954583333267,
      "v": 91
    },
    {
      "midi": 85,
      "hit": false,
      "t": 63707.74199999999,
      "d": 316.0106250000026,
      "v": 47
    },
    {
      "midi": 49,
      "hit": false,
      "t": 63728.809374999895,
      "d": 294.9432499999966,
      "v": 75
    },
    {
      "midi": 57,
      "hit": false,
      "t": 63728.809374999895,
      "d": 1053.3687499999796,
      "v": 83
    },
    {
      "midi": 90,
      "hit": false,
      "t": 64044.81999999999,
      "d": 421.3475000000035,
      "v": 83
    },
    {
      "midi": 54,
      "hit": false,
      "t": 64065.88737499989,
      "d": 358.14537500000006,
      "v": 91
    },
    {
      "midi": 61,
      "hit": false,
      "t": 64065.88737499989,
      "d": 653.0886249999894,
      "v": 95
    },
    {
      "midi": 85,
      "hit": false,
      "t": 64381.897999999994,
      "d": 421.3475000000035,
      "v": 59
    },
    {
      "midi": 49,
      "hit": false,
      "t": 64402.96537499989,
      "d": 217.69620833332738,
      "v": 83
    },
    {
      "midi": 66,
      "hit": false,
      "t": 64402.96537499989,
      "d": 273.87587499999063,
      "v": 87
    },
    {
      "midi": 76,
      "hit": false,
      "t": 64718.975999999995,
      "d": 1341.289541666658,
      "v": 49
    },
    {
      "midi": 64,
      "hit": false,
      "t": 64740.04337499988,
      "d": 772.4704166666634,
      "v": 103
    },
    {
      "midi": 40,
      "hit": false,
      "t": 64740.04337499988,
      "d": 1116.5708749999903,
      "v": 99
    },
    {
      "midi": 88,
      "hit": false,
      "t": 65056.054,
      "d": 379.2127499999988,
      "v": 87
    },
    {
      "midi": 47,
      "hit": false,
      "t": 65077.12137499987,
      "d": 308.9881666666697,
      "v": 79
    },
    {
      "midi": 57,
      "hit": false,
      "t": 65077.12137499987,
      "d": 744.3805833333317,
      "v": 71
    },
    {
      "midi": 85,
      "hit": false,
      "t": 65393.132,
      "d": 351.1229166666599,
      "v": 75
    },
    {
      "midi": 52,
      "hit": false,
      "t": 65414.19937499987,
      "d": 294.9432500000039,
      "v": 91
    },
    {
      "midi": 61,
      "hit": false,
      "t": 65414.19937499987,
      "d": 414.3250416666633,
      "v": 95
    },
    {
      "midi": 81,
      "hit": false,
      "t": 65730.20999999999,
      "d": 287.9207916666637,
      "v": 39
    },
    {
      "midi": 64,
      "hit": false,
      "t": 65751.27737499987,
      "d": 84.26949999999488,
      "v": 87
    },
    {
      "midi": 47,
      "hit": false,
      "t": 65751.27737499987,
      "d": 140.44916666665813,
      "v": 91
    },
    {
      "midi": 47,
      "hit": false,
      "t": 66067.28799999999,
      "d": 400.2801249999902,
      "v": 105
    },
    {
      "midi": 35,
      "hit": false,
      "t": 66088.35537499987,
      "d": 1207.8628333333181,
      "v": 95
    },
    {
      "midi": 63,
      "hit": false,
      "t": 66088.35537499987,
      "d": 5245.7763749999285,
      "v": 87
    },
    {
      "midi": 59,
      "hit": false,
      "t": 66088.35537499987,
      "d": 5259.821291666594,
      "v": 79
    },
    {
      "midi": 54,
      "hit": false,
      "t": 66088.35537499987,
      "d": 5287.911124999926,
      "v": 91
    },
    {
      "midi": 49,
      "hit": false,
      "t": 66404.36599999998,
      "d": 344.10045833332697,
      "v": 97
    },
    {
      "midi": 42,
      "hit": false,
      "t": 66425.43337499986,
      "d": 351.1229166666599,
      "v": 63
    },
    {
      "midi": 51,
      "hit": false,
      "t": 66741.44399999997,
      "d": 323.03308333332825,
      "v": 101
    },
    {
      "midi": 47,
      "hit": false,
      "t": 66762.51137499986,
      "d": 1039.3238333333284,
      "v": 75
    },
    {
      "midi": 52,
      "hit": false,
      "t": 67078.52199999997,
      "d": 393.2576666666573,
      "v": 93
    },
    {
      "midi": 42,
      "hit": false,
      "t": 67099.58937499985,
      "d": 435.3924166666693,
      "v": 87
    },
    {
      "midi": 54,
      "hit": false,
      "t": 67415.59999999996,
      "d": 372.1902916666586,
      "v": 105
    },
    {
      "midi": 35,
      "hit": false,
      "t": 67436.66737499986,
      "d": 1200.8403749999852,
      "v": 87
    },
    {
      "midi": 56,
      "hit": false,
      "t": 67752.67799999996,
      "d": 351.1229166666599,
      "v": 105
    },
    {
      "midi": 42,
      "hit": false,
      "t": 67773.74537499985,
      "d": 344.10045833332697,
      "v": 87
    },
    {
      "midi": 57,
      "hit": false,
      "t": 68089.75599999995,
      "d": 407.3025833333231,
      "v": 93
    },
    {
      "midi": 47,
      "hit": false,
      "t": 68110.82337499985,
      "d": 800.560249999995,
      "v": 87
    },
    {
      "midi": 59,
      "hit": false,
      "t": 68426.83399999994,
      "d": 386.2352083333244,
      "v": 97
    },
    {
      "midi": 42,
      "hit": false,
      "t": 68447.90137499984,
      "d": 456.459791666668,
      "v": 91
    },
    {
      "midi": 61,
      "hit": false,
      "t": 68763.91199999994,
      "d": 358.1453749999928,
      "v": 105
    },
    {
      "midi": 35,
      "hit": false,
      "t": 68784.97937499985,
      "d": 1123.5933333333087,
      "v": 87
    },
    {
      "midi": 63,
      "hit": false,
      "t": 69100.98999999993,
      "d": 337.07799999999406,
      "v": 105
    },
    {
      "midi": 42,
      "hit": false,
      "t": 69122.05737499984,
      "d": 379.2127499999915,
      "v": 95
    },
    {
      "midi": 64,
      "hit": false,
      "t": 69438.06799999993,
      "d": 400.2801249999902,
      "v": 113
    },
    {
      "midi": 47,
      "hit": false,
      "t": 69459.13537499984,
      "d": 681.178458333321,
      "v": 99
    },
    {
      "midi": 66,
      "hit": false,
      "t": 69775.14599999992,
      "d": 316.01062499999534,
      "v": 113
    },
    {
      "midi": 42,
      "hit": false,
      "t": 69796.21337499983,
      "d": 414.32504166665603,
      "v": 79
    },
    {
      "midi": 68,
      "hit": false,
      "t": 70112.22399999991,
      "d": 119.38179166665941,
      "v": 105
    },
    {
      "midi": 35,
      "hit": false,
      "t": 70133.29137499983,
      "d": 814.6051666666463,
      "v": 99
    },
    {
      "midi": 69,
      "hit": false,
      "t": 70280.7629999999,
      "d": 189.60637500000303,
      "v": 105
    },
    {
      "midi": 71,
      "hit": false,
      "t": 70449.30199999991,
      "d": 182.58391666667012,
      "v": 97
    },
    {
      "midi": 42,
      "hit": false,
      "t": 70470.36937499982,
      "d": 365.1678333333257,
      "v": 91
    },
    {
      "midi": 73,
      "hit": false,
      "t": 70617.84099999991,
      "d": 189.60637500000303,
      "v": 93
    },
    {
      "midi": 75,
      "hit": false,
      "t": 70786.37999999992,
      "d": 105.3368749999936,
      "v": 97
    },
    {
      "midi": 47,
      "hit": false,
      "t": 70807.44737499981,
      "d": 407.3025833333231,
      "v": 99
    },
    {
      "midi": 76,
      "hit": false,
      "t": 70954.9189999999,
      "d": 203.65129166666884,
      "v": 89
    },
    {
      "midi": 78,
      "hit": false,
      "t": 71123.45799999991,
      "d": 168.5390000000043,
      "v": 93
    },
    {
      "midi": 35,
      "hit": false,
      "t": 71144.52537499981,
      "d": 280.89833333331626,
      "v": 91
    },
    {
      "midi": 80,
      "hit": false,
      "t": 71291.99699999992,
      "d": 119.38179166665941,
      "v": 109
    },
    {
      "midi": 49,
      "hit": false,
      "t": 71481.60337499979,
      "d": 210.67375000000175,
      "v": 107
    },
    {
      "midi": 37,
      "hit": false,
      "t": 71481.60337499979,
      "d": 224.71866666666756,
      "v": 95
    },
    {
      "midi": 64,
      "hit": false,
      "t": 71818.68137499978,
      "d": 147.4716250000056,
      "v": 91
    },
    {
      "midi": 68,
      "hit": false,
      "t": 71818.68137499978,
      "d": 161.5165416666714,
      "v": 99
    },
    {
      "midi": 61,
      "hit": false,
      "t": 71818.68137499978,
      "d": 175.5614583333372,
      "v": 95
    },
    {
      "midi": 61,
      "hit": false,
      "t": 72492.83737499978,
      "d": 140.44916666667268,
      "v": 95
    },
    {
      "midi": 64,
      "hit": false,
      "t": 72492.83737499978,
      "d": 140.44916666667268,
      "v": 95
    },
    {
      "midi": 68,
      "hit": false,
      "t": 72492.83737499978,
      "d": 147.4716250000056,
      "v": 103
    },
    {
      "midi": 49,
      "hit": false,
      "t": 72829.9153749998,
      "d": 217.69620833333465,
      "v": 95
    },
    {
      "midi": 37,
      "hit": false,
      "t": 72829.9153749998,
      "d": 252.80849999999919,
      "v": 95
    },
    {
      "midi": 64,
      "hit": false,
      "t": 73166.99337499979,
      "d": 147.4716250000056,
      "v": 107
    },
    {
      "midi": 68,
      "hit": false,
      "t": 73166.99337499979,
      "d": 147.4716250000056,
      "v": 107
    },
    {
      "midi": 61,
      "hit": false,
      "t": 73166.99337499979,
      "d": 154.4940833333385,
      "v": 87
    },
    {
      "midi": 47,
      "hit": false,
      "t": 73504.0713749998,
      "d": 238.76358333333337,
      "v": 95
    },
    {
      "midi": 35,
      "hit": false,
      "t": 73504.0713749998,
      "d": 301.96570833332953,
      "v": 99
    },
    {
      "midi": 64,
      "hit": false,
      "t": 73841.14937499979,
      "d": 133.42670833333977,
      "v": 103
    },
    {
      "midi": 61,
      "hit": false,
      "t": 73841.14937499979,
      "d": 147.4716250000056,
      "v": 99
    },
    {
      "midi": 68,
      "hit": false,
      "t": 73841.14937499979,
      "d": 154.4940833333385,
      "v": 99
    },
    {
      "midi": 45,
      "hit": false,
      "t": 74178.2273749998,
      "d": 266.853416666665,
      "v": 111
    },
    {
      "midi": 33,
      "hit": false,
      "t": 74178.2273749998,
      "d": 301.96570833332953,
      "v": 111
    },
    {
      "midi": 61,
      "hit": false,
      "t": 74515.30537499979,
      "d": 140.44916666667268,
      "v": 99
    },
    {
      "midi": 64,
      "hit": false,
      "t": 74515.30537499979,
      "d": 140.44916666667268,
      "v": 103
    },
    {
      "midi": 69,
      "hit": false,
      "t": 74515.30537499979,
      "d": 154.4940833333385,
      "v": 99
    },
    {
      "midi": 64,
      "hit": false,
      "t": 75189.4613749998,
      "d": 105.3368749999936,
      "v": 99
    },
    {
      "midi": 61,
      "hit": false,
      "t": 75189.4613749998,
      "d": 112.3593333333265,
      "v": 95
    },
    {
      "midi": 69,
      "hit": false,
      "t": 75189.4613749998,
      "d": 140.44916666665813,
      "v": 95
    },
    {
      "midi": 33,
      "hit": false,
      "t": 75526.53937499979,
      "d": 175.5614583333372,
      "v": 91
    },
    {
      "midi": 45,
      "hit": false,
      "t": 75526.53937499979,
      "d": 287.9207916666637,
      "v": 103
    },
    {
      "midi": 61,
      "hit": false,
      "t": 75863.61737499978,
      "d": 91.29195833332778,
      "v": 99
    },
    {
      "midi": 64,
      "hit": false,
      "t": 75863.61737499978,
      "d": 91.29195833332778,
      "v": 107
    },
    {
      "midi": 69,
      "hit": false,
      "t": 75863.61737499978,
      "d": 147.47162499999104,
      "v": 107
    },
    {
      "midi": 42,
      "hit": false,
      "t": 76200.69537499978,
      "d": 287.9207916666637,
      "v": 103
    },
    {
      "midi": 78,
      "hit": false,
      "t": 76537.77337499977,
      "d": 168.5390000000043,
      "v": 103
    },
    {
      "midi": 85,
      "hit": false,
      "t": 76537.77337499977,
      "d": 168.5390000000043,
      "v": 99
    },
    {
      "midi": 81,
      "hit": false,
      "t": 76537.77337499977,
      "d": 175.5614583333372,
      "v": 95
    },
    {
      "midi": 49,
      "hit": false,
      "t": 76874.85137499978,
      "d": 273.8758749999979,
      "v": 99
    },
    {
      "midi": 37,
      "hit": false,
      "t": 76874.85137499978,
      "d": 280.8983333333308,
      "v": 95
    },
    {
      "midi": 64,
      "hit": false,
      "t": 77211.92937499977,
      "d": 105.3368749999936,
      "v": 83
    },
    {
      "midi": 61,
      "hit": false,
      "t": 77211.92937499977,
      "d": 126.40424999999232,
      "v": 87
    },
    {
      "midi": 68,
      "hit": false,
      "t": 77211.92937499977,
      "d": 126.40424999999232,
      "v": 91
    },
    {
      "midi": 64,
      "hit": false,
      "t": 77886.08537499976,
      "d": 77.24704166666197,
      "v": 87
    },
    {
      "midi": 61,
      "hit": false,
      "t": 77886.08537499976,
      "d": 84.26949999999488,
      "v": 83
    },
    {
      "midi": 68,
      "hit": false,
      "t": 77886.08537499976,
      "d": 91.29195833332778,
      "v": 95
    },
    {
      "midi": 37,
      "hit": false,
      "t": 78223.16337499976,
      "d": 316.01062499999534,
      "v": 87
    },
    {
      "midi": 49,
      "hit": false,
      "t": 78223.16337499976,
      "d": 316.01062499999534,
      "v": 95
    },
    {
      "midi": 64,
      "hit": false,
      "t": 78560.24137499975,
      "d": 77.24704166666197,
      "v": 95
    },
    {
      "midi": 61,
      "hit": false,
      "t": 78560.24137499975,
      "d": 91.29195833332778,
      "v": 95
    },
    {
      "midi": 68,
      "hit": false,
      "t": 78560.24137499975,
      "d": 105.3368749999936,
      "v": 99
    },
    {
      "midi": 71,
      "hit": false,
      "t": 79234.39737499974,
      "d": 189.60637500000303,
      "v": 111
    },
    {
      "midi": 75,
      "hit": false,
      "t": 79234.39737499974,
      "d": 203.65129166666884,
      "v": 107
    },
    {
      "midi": 68,
      "hit": false,
      "t": 79234.39737499974,
      "d": 252.80849999999919,
      "v": 107
    },
    {
      "midi": 55,
      "hit": false,
      "t": 79234.39737499974,
      "d": 266.853416666665,
      "v": 91
    },
    {
      "midi": 54,
      "hit": false,
      "t": 79571.47537499973,
      "d": 316.01062499999534,
      "v": 99
    },
    {
      "midi": 42,
      "hit": false,
      "t": 79571.47537499973,
      "d": 351.1229166666599,
      "v": 83
    },
    {
      "midi": 66,
      "hit": false,
      "t": 79908.55337499973,
      "d": 112.3593333333265,
      "v": 99
    },
    {
      "midi": 61,
      "hit": false,
      "t": 79908.55337499973,
      "d": 119.38179166665941,
      "v": 83
    },
    {
      "midi": 69,
      "hit": false,
      "t": 79908.55337499973,
      "d": 126.40424999999232,
      "v": 99
    },
    {
      "midi": 66,
      "hit": false,
      "t": 80582.70937499971,
      "d": 84.26949999999488,
      "v": 103
    },
    {
      "midi": 61,
      "hit": false,
      "t": 80582.70937499971,
      "d": 91.29195833332778,
      "v": 87
    },
    {
      "midi": 69,
      "hit": false,
      "t": 80582.70937499971,
      "d": 112.3593333333265,
      "v": 99
    },
    {
      "midi": 42,
      "hit": false,
      "t": 80919.78737499971,
      "d": 168.5390000000043,
      "v": 99
    },
    {
      "midi": 54,
      "hit": false,
      "t": 80919.78737499971,
      "d": 175.5614583333372,
      "v": 107
    },
    {
      "midi": 61,
      "hit": false,
      "t": 81256.86537499972,
      "d": 77.24704166666197,
      "v": 91
    },
    {
      "midi": 66,
      "hit": false,
      "t": 81256.86537499972,
      "d": 77.24704166666197,
      "v": 103
    },
    {
      "midi": 69,
      "hit": false,
      "t": 81256.86537499972,
      "d": 98.31441666666069,
      "v": 95
    },
    {
      "midi": 42,
      "hit": false,
      "t": 81256.86537499972,
      "d": 266.853416666665,
      "v": 87
    },
    {
      "midi": 54,
      "hit": false,
      "t": 81256.86537499972,
      "d": 273.8758749999979,
      "v": 103
    },
    {
      "midi": 50,
      "hit": false,
      "t": 81593.94337499971,
      "d": 316.01062499999534,
      "v": 95
    },
    {
      "midi": 74,
      "hit": false,
      "t": 81931.0213749997,
      "d": 168.5390000000043,
      "v": 115
    },
    {
      "midi": 78,
      "hit": false,
      "t": 81931.0213749997,
      "d": 168.5390000000043,
      "v": 111
    },
    {
      "midi": 81,
      "hit": false,
      "t": 81931.0213749997,
      "d": 168.5390000000043,
      "v": 111
    },
    {
      "midi": 57,
      "hit": false,
      "t": 81931.0213749997,
      "d": 203.65129166666884,
      "v": 91
    },
    {
      "midi": 74,
      "hit": false,
      "t": 82099.56037499971,
      "d": 168.5390000000043,
      "v": 104
    },
    {
      "midi": 78,
      "hit": false,
      "t": 82099.56037499971,
      "d": 168.5390000000043,
      "v": 104
    },
    {
      "midi": 81,
      "hit": false,
      "t": 82099.56037499971,
      "d": 168.5390000000043,
      "v": 104
    },
    {
      "midi": 49,
      "hit": false,
      "t": 82268.09937499971,
      "d": 407.3025833333231,
      "v": 111
    },
    {
      "midi": 37,
      "hit": false,
      "t": 82268.09937499971,
      "d": 414.32504166665603,
      "v": 103
    },
    {
      "midi": 64,
      "hit": false,
      "t": 82605.17737499971,
      "d": 105.3368749999936,
      "v": 95
    },
    {
      "midi": 68,
      "hit": false,
      "t": 82605.17737499971,
      "d": 112.3593333333265,
      "v": 91
    },
    {
      "midi": 61,
      "hit": false,
      "t": 82605.17737499971,
      "d": 126.40424999999232,
      "v": 95
    },
    {
      "midi": 64,
      "hit": false,
      "t": 83279.3333749997,
      "d": 91.29195833332778,
      "v": 91
    },
    {
      "midi": 61,
      "hit": false,
      "t": 83279.3333749997,
      "d": 98.31441666666069,
      "v": 95
    },
    {
      "midi": 68,
      "hit": false,
      "t": 83279.3333749997,
      "d": 98.31441666666069,
      "v": 95
    },
    {
      "midi": 37,
      "hit": false,
      "t": 83616.41137499969,
      "d": 421.34749999998894,
      "v": 83
    },
    {
      "midi": 49,
      "hit": false,
      "t": 83616.41137499969,
      "d": 561.7966666666471,
      "v": 103
    },
    {
      "midi": 64,
      "hit": false,
      "t": 83953.48937499968,
      "d": 63.20212499999616,
      "v": 83
    },
    {
      "midi": 68,
      "hit": false,
      "t": 83953.48937499968,
      "d": 91.29195833332778,
      "v": 91
    },
    {
      "midi": 61,
      "hit": false,
      "t": 83953.48937499968,
      "d": 133.42670833332522,
      "v": 99
    },
    {
      "midi": 47,
      "hit": false,
      "t": 84290.56737499966,
      "d": 554.7742083333287,
      "v": 87
    },
    {
      "midi": 64,
      "hit": false,
      "t": 84627.64537499966,
      "d": 372.1902916666586,
      "v": 103
    },
    {
      "midi": 59,
      "hit": false,
      "t": 84627.64537499966,
      "d": 393.2576666666573,
      "v": 103
    },
    {
      "midi": 68,
      "hit": false,
      "t": 84627.64537499966,
      "d": 407.3025833333231,
      "v": 99
    },
    {
      "midi": 45,
      "hit": false,
      "t": 84964.72337499965,
      "d": 393.2576666666573,
      "v": 111
    },
    {
      "midi": 33,
      "hit": false,
      "t": 84964.72337499965,
      "d": 407.3025833333231,
      "v": 115
    },
    {
      "midi": 64,
      "hit": false,
      "t": 85301.80137499965,
      "d": 77.24704166666197,
      "v": 91
    },
    {
      "midi": 69,
      "hit": false,
      "t": 85301.80137499965,
      "d": 98.31441666666069,
      "v": 91
    },
    {
      "midi": 61,
      "hit": false,
      "t": 85301.80137499965,
      "d": 119.38179166665941,
      "v": 91
    },
    {
      "midi": 64,
      "hit": false,
      "t": 85975.95737499963,
      "d": 63.20212499999616,
      "v": 83
    },
    {
      "midi": 61,
      "hit": false,
      "t": 85975.95737499963,
      "d": 98.31441666666069,
      "v": 87
    },
    {
      "midi": 69,
      "hit": false,
      "t": 85975.95737499963,
      "d": 105.3368749999936,
      "v": 83
    },
    {
      "midi": 33,
      "hit": false,
      "t": 86313.03537499963,
      "d": 407.3025833333231,
      "v": 99
    },
    {
      "midi": 45,
      "hit": false,
      "t": 86313.03537499963,
      "d": 568.81912499998,
      "v": 111
    },
    {
      "midi": 64,
      "hit": false,
      "t": 86650.11337499962,
      "d": 91.29195833332778,
      "v": 95
    },
    {
      "midi": 61,
      "hit": false,
      "t": 86650.11337499962,
      "d": 119.38179166665941,
      "v": 107
    },
    {
      "midi": 69,
      "hit": false,
      "t": 86650.11337499962,
      "d": 119.38179166665941,
      "v": 99
    },
    {
      "midi": 42,
      "hit": false,
      "t": 86987.1913749996,
      "d": 470.50470833333384,
      "v": 99
    },
    {
      "midi": 64,
      "hit": false,
      "t": 87324.2693749996,
      "d": 337.0780000000086,
      "v": 115
    },
    {
      "midi": 69,
      "hit": false,
      "t": 87324.2693749996,
      "d": 337.0780000000086,
      "v": 111
    },
    {
      "midi": 73,
      "hit": false,
      "t": 87324.2693749996,
      "d": 344.1004583333415,
      "v": 103
    },
    {
      "midi": 49,
      "hit": false,
      "t": 87661.3473749996,
      "d": 273.8758749999979,
      "v": 99
    },
    {
      "midi": 37,
      "hit": false,
      "t": 87661.3473749996,
      "d": 280.8983333333308,
      "v": 95
    },
    {
      "midi": 64,
      "hit": false,
      "t": 87998.4253749996,
      "d": 105.3368749999936,
      "v": 83
    },
    {
      "midi": 61,
      "hit": false,
      "t": 87998.4253749996,
      "d": 126.40424999999232,
      "v": 87
    },
    {
      "midi": 68,
      "hit": false,
      "t": 87998.4253749996,
      "d": 126.40424999999232,
      "v": 91
    },
    {
      "midi": 64,
      "hit": false,
      "t": 88672.58137499959,
      "d": 77.24704166666197,
      "v": 87
    },
    {
      "midi": 61,
      "hit": false,
      "t": 88672.58137499959,
      "d": 84.26949999999488,
      "v": 83
    },
    {
      "midi": 68,
      "hit": false,
      "t": 88672.58137499959,
      "d": 91.29195833332778,
      "v": 95
    },
    {
      "midi": 37,
      "hit": false,
      "t": 89009.65937499958,
      "d": 316.01062499999534,
      "v": 87
    },
    {
      "midi": 49,
      "hit": false,
      "t": 89009.65937499958,
      "d": 316.01062499999534,
      "v": 95
    },
    {
      "midi": 64,
      "hit": false,
      "t": 89346.73737499957,
      "d": 77.24704166666197,
      "v": 95
    },
    {
      "midi": 61,
      "hit": false,
      "t": 89346.73737499957,
      "d": 91.29195833332778,
      "v": 95
    },
    {
      "midi": 68,
      "hit": false,
      "t": 89346.73737499957,
      "d": 105.3368749999936,
      "v": 99
    },
    {
      "midi": 71,
      "hit": false,
      "t": 90020.89337499956,
      "d": 189.60637500000303,
      "v": 111
    },
    {
      "midi": 75,
      "hit": false,
      "t": 90020.89337499956,
      "d": 203.65129166666884,
      "v": 107
    },
    {
      "midi": 68,
      "hit": false,
      "t": 90020.89337499956,
      "d": 252.80849999999919,
      "v": 107
    },
    {
      "midi": 54,
      "hit": false,
      "t": 90357.97137499956,
      "d": 316.01062499999534,
      "v": 99
    },
    {
      "midi": 42,
      "hit": false,
      "t": 90357.97137499956,
      "d": 351.1229166666599,
      "v": 83
    },
    {
      "midi": 66,
      "hit": false,
      "t": 90695.04937499955,
      "d": 112.3593333333265,
      "v": 99
    },
    {
      "midi": 61,
      "hit": false,
      "t": 90695.04937499955,
      "d": 119.38179166665941,
      "v": 83
    },
    {
      "midi": 69,
      "hit": false,
      "t": 90695.04937499955,
      "d": 126.40424999999232,
      "v": 99
    },
    {
      "midi": 66,
      "hit": false,
      "t": 91369.20537499954,
      "d": 84.26949999999488,
      "v": 103
    },
    {
      "midi": 61,
      "hit": false,
      "t": 91369.20537499954,
      "d": 91.29195833332778,
      "v": 87
    },
    {
      "midi": 69,
      "hit": false,
      "t": 91369.20537499954,
      "d": 112.3593333333265,
      "v": 99
    },
    {
      "midi": 42,
      "hit": false,
      "t": 91706.28337499953,
      "d": 168.5390000000043,
      "v": 99
    },
    {
      "midi": 54,
      "hit": false,
      "t": 91706.28337499953,
      "d": 175.5614583333372,
      "v": 107
    },
    {
      "midi": 61,
      "hit": false,
      "t": 92043.36137499954,
      "d": 77.24704166666197,
      "v": 91
    },
    {
      "midi": 66,
      "hit": false,
      "t": 92043.36137499954,
      "d": 77.24704166666197,
      "v": 103
    },
    {
      "midi": 69,
      "hit": false,
      "t": 92043.36137499954,
      "d": 98.31441666666069,
      "v": 95
    },
    {
      "midi": 42,
      "hit": false,
      "t": 92043.36137499954,
      "d": 266.853416666665,
      "v": 87
    },
    {
      "midi": 54,
      "hit": false,
      "t": 92043.36137499954,
      "d": 273.8758749999979,
      "v": 103
    },
    {
      "midi": 50,
      "hit": false,
      "t": 92380.43937499954,
      "d": 316.01062499999534,
      "v": 95
    },
    {
      "midi": 57,
      "hit": false,
      "t": 92717.51737499953,
      "d": 203.65129166666884,
      "v": 91
    },
    {
      "midi": 78,
      "hit": false,
      "t": 92717.51737499953,
      "d": 203.65129166666884,
      "v": 111
    },
    {
      "midi": 81,
      "hit": false,
      "t": 92717.51737499953,
      "d": 224.71866666666756,
      "v": 111
    },
    {
      "midi": 74,
      "hit": false,
      "t": 92717.51737499953,
      "d": 231.74112500000047,
      "v": 115
    },
    {
      "midi": 76,
      "hit": false,
      "t": 93033.5279999999,
      "d": 1172.7505416666536,
      "v": 57
    },
    {
      "midi": 68,
      "hit": false,
      "t": 93054.59537499952,
      "d": 990.1666249999835,
      "v": 91
    },
    {
      "midi": 59,
      "hit": false,
      "t": 93054.59537499952,
      "d": 1018.2564583333151,
      "v": 87
    },
    {
      "midi": 40,
      "hit": false,
      "t": 93054.59537499952,
      "d": 1081.4585833333113,
      "v": 91
    },
    {
      "midi": 64,
      "hit": false,
      "t": 93054.59537499952,
      "d": 1285.10987499998,
      "v": 79
    },
    {
      "midi": 80,
      "hit": false,
      "t": 93370.6059999999,
      "d": 358.1453749999928,
      "v": 63
    },
    {
      "midi": 47,
      "hit": false,
      "t": 93391.67337499952,
      "d": 351.1229166666599,
      "v": 63
    },
    {
      "midi": 83,
      "hit": false,
      "t": 93707.68399999989,
      "d": 737.3581249999843,
      "v": 67
    },
    {
      "midi": 52,
      "hit": false,
      "t": 93728.75137499951,
      "d": 344.10045833332697,
      "v": 95
    },
    {
      "midi": 88,
      "hit": false,
      "t": 94044.76199999989,
      "d": 252.80849999999919,
      "v": 75
    },
    {
      "midi": 47,
      "hit": false,
      "t": 94065.8293749995,
      "d": 372.1902916666586,
      "v": 91
    },
    {
      "midi": 75,
      "hit": false,
      "t": 94381.83999999988,
      "d": 1235.9526666666497,
      "v": 65
    },
    {
      "midi": 59,
      "hit": false,
      "t": 94402.9073749995,
      "d": 758.425499999983,
      "v": 87
    },
    {
      "midi": 63,
      "hit": false,
      "t": 94402.9073749995,
      "d": 870.7848333333095,
      "v": 75
    },
    {
      "midi": 66,
      "hit": false,
      "t": 94402.9073749995,
      "d": 870.7848333333095,
      "v": 99
    },
    {
      "midi": 39,
      "hit": false,
      "t": 94402.9073749995,
      "d": 1004.2115416666347,
      "v": 95
    },
    {
      "midi": 78,
      "hit": false,
      "t": 94718.91799999987,
      "d": 379.2127499999915,
      "v": 58
    },
    {
      "midi": 47,
      "hit": false,
      "t": 94739.9853749995,
      "d": 386.2352083333244,
      "v": 79
    },
    {
      "midi": 83,
      "hit": false,
      "t": 95055.99599999987,
      "d": 379.2127499999915,
      "v": 55
    },
    {
      "midi": 51,
      "hit": false,
      "t": 95077.06337499949,
      "d": 301.965708333315,
      "v": 95
    },
    {
      "midi": 87,
      "hit": false,
      "t": 95393.07399999986,
      "d": 379.2127499999915,
      "v": 75
    },
    {
      "midi": 47,
      "hit": false,
      "t": 95414.14137499947,
      "d": 203.65129166666884,
      "v": 67
    },
    {
      "midi": 73,
      "hit": false,
      "t": 95730.15199999986,
      "d": 1706.457374999969,
      "v": 65
    },
    {
      "midi": 64,
      "hit": false,
      "t": 95751.21937499948,
      "d": 358.1453749999928,
      "v": 75
    },
    {
      "midi": 37,
      "hit": false,
      "t": 95751.21937499948,
      "d": 1137.6382499999745,
      "v": 79
    },
    {
      "midi": 76,
      "hit": false,
      "t": 96067.22999999985,
      "d": 351.1229166666599,
      "v": 59
    },
    {
      "midi": 44,
      "hit": false,
      "t": 96088.29737499947,
      "d": 301.96570833332953,
      "v": 63
    },
    {
      "midi": 61,
      "hit": false,
      "t": 96088.29737499947,
      "d": 948.031874999986,
      "v": 75
    },
    {
      "midi": 80,
      "hit": false,
      "t": 96404.30799999984,
      "d": 365.1678333333257,
      "v": 63
    },
    {
      "midi": 64,
      "hit": false,
      "t": 96425.37537499946,
      "d": 365.1678333333257,
      "v": 87
    },
    {
      "midi": 49,
      "hit": false,
      "t": 96425.37537499946,
      "d": 414.32504166665603,
      "v": 83
    },
    {
      "midi": 85,
      "hit": false,
      "t": 96741.38599999984,
      "d": 386.2352083333244,
      "v": 71
    },
    {
      "midi": 44,
      "hit": false,
      "t": 96762.45337499946,
      "d": 365.1678333333257,
      "v": 87
    },
    {
      "midi": 68,
      "hit": false,
      "t": 96762.45337499946,
      "d": 997.1890833333164,
      "v": 95
    },
    {
      "midi": 80,
      "hit": false,
      "t": 97078.46399999983,
      "d": 639.0437083333236,
      "v": 67
    },
    {
      "midi": 64,
      "hit": false,
      "t": 97099.53137499945,
      "d": 428.36995833332185,
      "v": 103
    },
    {
      "midi": 37,
      "hit": false,
      "t": 97099.53137499945,
      "d": 1011.2339999999967,
      "v": 99
    },
    {
      "midi": 76,
      "hit": false,
      "t": 97415.54199999983,
      "d": 456.4597916666535,
      "v": 58
    },
    {
      "midi": 44,
      "hit": false,
      "t": 97436.60937499945,
      "d": 470.50470833333384,
      "v": 87
    },
    {
      "midi": 61,
      "hit": false,
      "t": 97436.60937499945,
      "d": 814.6051666666608,
      "v": 95
    },
    {
      "midi": 73,
      "hit": false,
      "t": 97752.61999999982,
      "d": 351.1229166666599,
      "v": 59
    },
    {
      "midi": 49,
      "hit": false,
      "t": 97773.68737499944,
      "d": 365.16783333334024,
      "v": 95
    },
    {
      "midi": 64,
      "hit": false,
      "t": 97773.68737499944,
      "d": 365.16783333334024,
      "v": 99
    },
    {
      "midi": 76,
      "hit": false,
      "t": 98089.69799999981,
      "d": 351.1229166666599,
      "v": 55
    },
    {
      "midi": 44,
      "hit": false,
      "t": 98110.76537499945,
      "d": 112.3593333333265,
      "v": 91
    },
    {
      "midi": 68,
      "hit": false,
      "t": 98110.76537499945,
      "d": 337.07799999999406,
      "v": 99
    },
    {
      "midi": 78,
      "hit": false,
      "t": 98426.77599999981,
      "d": 1172.750541666639,
      "v": 79
    },
    {
      "midi": 69,
      "hit": false,
      "t": 98447.84337499944,
      "d": 856.7399166666582,
      "v": 99
    },
    {
      "midi": 66,
      "hit": false,
      "t": 98447.84337499944,
      "d": 905.8971249999886,
      "v": 91
    },
    {
      "midi": 42,
      "hit": false,
      "t": 98447.84337499944,
      "d": 1053.3687499999796,
      "v": 95
    },
    {
      "midi": 61,
      "hit": false,
      "t": 98447.84337499944,
      "d": 1074.4361249999783,
      "v": 87
    },
    {
      "midi": 81,
      "hit": false,
      "t": 98763.8539999998,
      "d": 344.10045833332697,
      "v": 51
    },
    {
      "midi": 49,
      "hit": false,
      "t": 98784.92137499944,
      "d": 308.98816666666244,
      "v": 79
    },
    {
      "midi": 85,
      "hit": false,
      "t": 99100.9319999998,
      "d": 393.2576666666573,
      "v": 67
    },
    {
      "midi": 54,
      "hit": false,
      "t": 99121.99937499943,
      "d": 294.9432499999966,
      "v": 103
    },
    {
      "midi": 90,
      "hit": false,
      "t": 99438.00999999979,
      "d": 301.96570833332953,
      "v": 75
    },
    {
      "midi": 49,
      "hit": false,
      "t": 99459.07737499943,
      "d": 161.51654166665685,
      "v": 79
    },
    {
      "midi": 76,
      "hit": false,
      "t": 99775.08799999979,
      "d": 1109.5484166666429,
      "v": 58
    },
    {
      "midi": 68,
      "hit": false,
      "t": 99796.15537499942,
      "d": 807.5827083333279,
      "v": 95
    },
    {
      "midi": 59,
      "hit": false,
      "t": 99796.15537499942,
      "d": 814.6051666666608,
      "v": 91
    },
    {
      "midi": 64,
      "hit": false,
      "t": 99796.15537499942,
      "d": 814.6051666666608,
      "v": 95
    },
    {
      "midi": 40,
      "hit": false,
      "t": 99796.15537499942,
      "d": 1018.2564583333296,
      "v": 99
    },
    {
      "midi": 81,
      "hit": false,
      "t": 100112.16599999978,
      "d": 407.3025833333231,
      "v": 64
    },
    {
      "midi": 47,
      "hit": false,
      "t": 100133.23337499941,
      "d": 330.05554166666116,
      "v": 83
    },
    {
      "midi": 85,
      "hit": false,
      "t": 100449.24399999977,
      "d": 695.2233749999868,
      "v": 67
    },
    {
      "midi": 52,
      "hit": false,
      "t": 100470.31137499941,
      "d": 316.0106250000099,
      "v": 79
    },
    {
      "midi": 88,
      "hit": false,
      "t": 100786.32199999977,
      "d": 344.10045833332697,
      "v": 75
    },
    {
      "midi": 47,
      "hit": false,
      "t": 100807.38937499942,
      "d": 372.1902916666586,
      "v": 79
    },
    {
      "midi": 75,
      "hit": false,
      "t": 101123.39999999976,
      "d": 1720.5022916666348,
      "v": 53
    },
    {
      "midi": 59,
      "hit": false,
      "t": 101144.46737499941,
      "d": 596.9089583333262,
      "v": 91
    },
    {
      "midi": 63,
      "hit": false,
      "t": 101144.46737499941,
      "d": 1081.4585833333113,
      "v": 91
    },
    {
      "midi": 66,
      "hit": false,
      "t": 101144.46737499941,
      "d": 1404.4916666666395,
      "v": 103
    },
    {
      "midi": 39,
      "hit": false,
      "t": 101144.46737499941,
      "d": 2373.5909166666243,
      "v": 83
    },
    {
      "midi": 78,
      "hit": false,
      "t": 101460.47799999976,
      "d": 344.10045833332697,
      "v": 59
    },
    {
      "midi": 47,
      "hit": false,
      "t": 101481.5453749994,
      "d": 372.1902916666586,
      "v": 83
    },
    {
      "midi": 83,
      "hit": false,
      "t": 101797.55599999975,
      "d": 379.2127499999915,
      "v": 67
    },
    {
      "midi": 51,
      "hit": false,
      "t": 101818.6233749994,
      "d": 372.1902916666586,
      "v": 99
    },
    {
      "midi": 87,
      "hit": false,
      "t": 102134.63399999974,
      "d": 386.2352083333244,
      "v": 79
    },
    {
      "midi": 47,
      "hit": false,
      "t": 102155.7013749994,
      "d": 365.1678333333257,
      "v": 75
    },
    {
      "midi": 59,
      "hit": false,
      "t": 102155.7013749994,
      "d": 1516.8509999999806,
      "v": 87
    },
    {
      "midi": 83,
      "hit": false,
      "t": 102471.71199999974,
      "d": 1278.0874166666472,
      "v": 63
    },
    {
      "midi": 51,
      "hit": false,
      "t": 102492.77937499939,
      "d": 386.2352083333244,
      "v": 91
    },
    {
      "midi": 63,
      "hit": false,
      "t": 102492.77937499939,
      "d": 702.2458333333198,
      "v": 103
    },
    {
      "midi": 78,
      "hit": false,
      "t": 102808.78999999973,
      "d": 386.2352083333244,
      "v": 59
    },
    {
      "midi": 47,
      "hit": false,
      "t": 102829.85737499938,
      "d": 344.10045833332697,
      "v": 87
    },
    {
      "midi": 71,
      "hit": false,
      "t": 102829.85737499938,
      "d": 484.5496249999851,
      "v": 107
    },
    {
      "midi": 75,
      "hit": false,
      "t": 103145.86799999973,
      "d": 617.9763333333249,
      "v": 49
    },
    {
      "midi": 51,
      "hit": false,
      "t": 103166.93537499938,
      "d": 308.98816666666244,
      "v": 91
    },
    {
      "midi": 66,
      "hit": false,
      "t": 103166.93537499938,
      "d": 589.8864999999932,
      "v": 107
    },
    {
      "midi": 78,
      "hit": false,
      "t": 103482.94599999972,
      "d": 196.62883333333593,
      "v": 51
    },
    {
      "midi": 63,
      "hit": false,
      "t": 103504.01337499937,
      "d": 217.69620833333465,
      "v": 79
    },
    {
      "midi": 47,
      "hit": false,
      "t": 103504.01337499937,
      "d": 421.34749999998894,
      "v": 71
    },
    {
      "midi": 76,
      "hit": false,
      "t": 103820.02399999971,
      "d": 1144.6607083333074,
      "v": 53
    },
    {
      "midi": 59,
      "hit": false,
      "t": 103841.09137499936,
      "d": 1025.278916666648,
      "v": 83
    },
    {
      "midi": 64,
      "hit": false,
      "t": 103841.09137499936,
      "d": 1025.278916666648,
      "v": 91
    },
    {
      "midi": 40,
      "hit": false,
      "t": 103841.09137499936,
      "d": 1088.4810416666442,
      "v": 99
    },
    {
      "midi": 68,
      "hit": false,
      "t": 103841.09137499936,
      "d": 1285.10987499998,
      "v": 87
    },
    {
      "midi": 80,
      "hit": false,
      "t": 104157.10199999971,
      "d": 323.03308333332825,
      "v": 63
    },
    {
      "midi": 47,
      "hit": false,
      "t": 104178.16937499936,
      "d": 323.03308333332825,
      "v": 91
    },
    {
      "midi": 83,
      "hit": false,
      "t": 104494.1799999997,
      "d": 386.2352083333244,
      "v": 63
    },
    {
      "midi": 52,
      "hit": false,
      "t": 104515.24737499935,
      "d": 393.2576666666573,
      "v": 95
    },
    {
      "midi": 88,
      "hit": false,
      "t": 104831.2579999997,
      "d": 316.01062499999534,
      "v": 79
    },
    {
      "midi": 47,
      "hit": false,
      "t": 104852.32537499935,
      "d": 386.2352083333244,
      "v": 91
    },
    {
      "midi": 75,
      "hit": false,
      "t": 105168.33599999969,
      "d": 1214.885291666651,
      "v": 49
    },
    {
      "midi": 59,
      "hit": false,
      "t": 105189.40337499934,
      "d": 758.425499999983,
      "v": 87
    },
    {
      "midi": 63,
      "hit": false,
      "t": 105189.40337499934,
      "d": 856.7399166666437,
      "v": 87
    },
    {
      "midi": 39,
      "hit": false,
      "t": 105189.40337499934,
      "d": 1046.3462916666322,
      "v": 95
    },
    {
      "midi": 66,
      "hit": false,
      "t": 105189.40337499934,
      "d": 1292.1323333332984,
      "v": 95
    },
    {
      "midi": 80,
      "hit": false,
      "t": 105505.41399999968,
      "d": 351.1229166666599,
      "v": 55
    },
    {
      "midi": 47,
      "hit": false,
      "t": 105526.48137499933,
      "d": 379.2127499999915,
      "v": 79
    },
    {
      "midi": 83,
      "hit": false,
      "t": 105842.49199999968,
      "d": 393.2576666666573,
      "v": 59
    },
    {
      "midi": 51,
      "hit": false,
      "t": 105863.55937499933,
      "d": 294.9432499999821,
      "v": 95
    },
    {
      "midi": 87,
      "hit": false,
      "t": 106179.56999999967,
      "d": 421.3475000000035,
      "v": 75
    },
    {
      "midi": 47,
      "hit": false,
      "t": 106200.6373749993,
      "d": 182.58391666667012,
      "v": 67
    },
    {
      "midi": 73,
      "hit": false,
      "t": 106516.64799999968,
      "d": 1144.660708333322,
      "v": 61
    },
    {
      "midi": 61,
      "hit": false,
      "t": 106537.7153749993,
      "d": 863.7623749999912,
      "v": 83
    },
    {
      "midi": 64,
      "hit": false,
      "t": 106537.7153749993,
      "d": 990.1666249999835,
      "v": 95
    },
    {
      "midi": 37,
      "hit": false,
      "t": 106537.7153749993,
      "d": 1088.4810416666442,
      "v": 91
    },
    {
      "midi": 56,
      "hit": false,
      "t": 106537.7153749993,
      "d": 1214.885291666651,
      "v": 83
    },
    {
      "midi": 80,
      "hit": false,
      "t": 106853.72599999967,
      "d": 323.03308333332825,
      "v": 47
    },
    {
      "midi": 44,
      "hit": false,
      "t": 106874.7933749993,
      "d": 294.9432499999966,
      "v": 63
    },
    {
      "midi": 85,
      "hit": false,
      "t": 107190.80399999967,
      "d": 519.6619166666642,
      "v": 83
    },
    {
      "midi": 49,
      "hit": false,
      "t": 107211.87137499929,
      "d": 294.9432499999966,
      "v": 95
    },
    {
      "midi": 80,
      "hit": false,
      "t": 107527.88199999966,
      "d": 477.5271666666813,
      "v": 59
    },
    {
      "midi": 44,
      "hit": false,
      "t": 107548.94937499928,
      "d": 351.1229166666744,
      "v": 75
    },
    {
      "midi": 71,
      "hit": false,
      "t": 107864.95999999967,
      "d": 1327.244624999992,
      "v": 53
    },
    {
      "midi": 59,
      "hit": false,
      "t": 107886.02737499929,
      "d": 386.2352083333244,
      "v": 75
    },
    {
      "midi": 64,
      "hit": false,
      "t": 107886.02737499929,
      "d": 765.4479583333159,
      "v": 99
    },
    {
      "midi": 47,
      "hit": false,
      "t": 107886.02737499929,
      "d": 1257.0200416666485,
      "v": 103
    },
    {
      "midi": 80,
      "hit": false,
      "t": 108202.03799999968,
      "d": 400.2801249999902,
      "v": 59
    },
    {
      "midi": 56,
      "hit": false,
      "t": 108223.10537499929,
      "d": 400.2801249999902,
      "v": 99
    },
    {
      "midi": 83,
      "hit": false,
      "t": 108539.11599999967,
      "d": 435.39241666665475,
      "v": 71
    },
    {
      "midi": 59,
      "hit": false,
      "t": 108560.18337499928,
      "d": 358.1453749999928,
      "v": 83
    },
    {
      "midi": 80,
      "hit": false,
      "t": 108876.19399999967,
      "d": 259.8309583333321,
      "v": 55
    },
    {
      "midi": 64,
      "hit": false,
      "t": 108897.26137499927,
      "d": 70.22458333332906,
      "v": 95
    },
    {
      "midi": 81,
      "hit": false,
      "t": 109213.27199999966,
      "d": 1144.660708333322,
      "v": 49
    },
    {
      "midi": 69,
      "hit": false,
      "t": 109234.33937499927,
      "d": 737.3581249999843,
      "v": 115
    },
    {
      "midi": 45,
      "hit": false,
      "t": 109234.33937499927,
      "d": 1046.3462916666467,
      "v": 107
    },
    {
      "midi": 85,
      "hit": false,
      "t": 109550.34999999966,
      "d": 323.03308333332825,
      "v": 55
    },
    {
      "midi": 52,
      "hit": false,
      "t": 109571.41737499926,
      "d": 308.98816666666244,
      "v": 95
    },
    {
      "midi": 61,
      "hit": false,
      "t": 109571.41737499926,
      "d": 688.2009166666539,
      "v": 95
    },
    {
      "midi": 90,
      "hit": false,
      "t": 109887.42799999965,
      "d": 330.05554166666116,
      "v": 75
    },
    {
      "midi": 57,
      "hit": false,
      "t": 109908.49537499926,
      "d": 351.1229166666599,
      "v": 99
    },
    {
      "midi": 64,
      "hit": false,
      "t": 109908.49537499926,
      "d": 674.1559999999881,
      "v": 103
    },
    {
      "midi": 93,
      "hit": false,
      "t": 110224.50599999964,
      "d": 351.1229166666744,
      "v": 79
    },
    {
      "midi": 69,
      "hit": false,
      "t": 110245.57337499925,
      "d": 351.1229166666599,
      "v": 99
    },
    {
      "midi": 52,
      "hit": false,
      "t": 110245.57337499925,
      "d": 386.2352083333244,
      "v": 95
    },
    {
      "midi": 80,
      "hit": false,
      "t": 110561.58399999965,
      "d": 1179.7729999999865,
      "v": 61
    },
    {
      "midi": 68,
      "hit": false,
      "t": 110582.65137499924,
      "d": 744.3805833333172,
      "v": 99
    },
    {
      "midi": 44,
      "hit": false,
      "t": 110582.65137499924,
      "d": 1046.3462916666467,
      "v": 95
    },
    {
      "midi": 85,
      "hit": false,
      "t": 110898.66199999965,
      "d": 323.03308333332825,
      "v": 55
    },
    {
      "midi": 52,
      "hit": false,
      "t": 110919.72937499924,
      "d": 330.05554166666116,
      "v": 79
    },
    {
      "midi": 59,
      "hit": false,
      "t": 110919.72937499924,
      "d": 828.6500833333121,
      "v": 71
    },
    {
      "midi": 90,
      "hit": false,
      "t": 111235.73999999964,
      "d": 337.07799999999406,
      "v": 63
    },
    {
      "midi": 56,
      "hit": false,
      "t": 111256.80737499923,
      "d": 323.03308333332825,
      "v": 99
    },
    {
      "midi": 64,
      "hit": false,
      "t": 111256.80737499923,
      "d": 491.572083333318,
      "v": 91
    },
    {
      "midi": 92,
      "hit": false,
      "t": 111572.81799999964,
      "d": 421.3475000000035,
      "v": 63
    },
    {
      "midi": 52,
      "hit": false,
      "t": 111593.88537499923,
      "d": 217.6962083333201,
      "v": 91
    },
    {
      "midi": 68,
      "hit": false,
      "t": 111593.88537499923,
      "d": 337.0779999999795,
      "v": 87
    },
    {
      "midi": 78,
      "hit": false,
      "t": 111909.89599999964,
      "d": 1172.750541666639,
      "v": 61
    },
    {
      "midi": 66,
      "hit": false,
      "t": 111930.9633749992,
      "d": 737.3581249999843,
      "v": 107
    },
    {
      "midi": 42,
      "hit": false,
      "t": 111930.9633749992,
      "d": 1186.7954583333194,
      "v": 91
    },
    {
      "midi": 85,
      "hit": false,
      "t": 112246.97399999964,
      "d": 316.01062499999534,
      "v": 47
    },
    {
      "midi": 49,
      "hit": false,
      "t": 112268.0413749992,
      "d": 294.9432499999966,
      "v": 75
    },
    {
      "midi": 57,
      "hit": false,
      "t": 112268.0413749992,
      "d": 1053.3687499999796,
      "v": 83
    },
    {
      "midi": 90,
      "hit": false,
      "t": 112584.05199999963,
      "d": 421.34749999998894,
      "v": 83
    },
    {
      "midi": 54,
      "hit": false,
      "t": 112605.1193749992,
      "d": 358.1453749999928,
      "v": 91
    },
    {
      "midi": 61,
      "hit": false,
      "t": 112605.1193749992,
      "d": 653.0886249999894,
      "v": 95
    },
    {
      "midi": 85,
      "hit": false,
      "t": 112921.12999999963,
      "d": 421.34749999998894,
      "v": 59
    },
    {
      "midi": 49,
      "hit": false,
      "t": 112942.19737499919,
      "d": 217.69620833333465,
      "v": 83
    },
    {
      "midi": 66,
      "hit": false,
      "t": 112942.19737499919,
      "d": 273.8758749999979,
      "v": 87
    },
    {
      "midi": 76,
      "hit": false,
      "t": 113258.20799999962,
      "d": 1341.2895416666433,
      "v": 49
    },
    {
      "midi": 64,
      "hit": false,
      "t": 113279.27537499918,
      "d": 772.4704166666488,
      "v": 103
    },
    {
      "midi": 40,
      "hit": false,
      "t": 113279.27537499918,
      "d": 1116.5708749999758,
      "v": 99
    },
    {
      "midi": 88,
      "hit": false,
      "t": 113595.28599999961,
      "d": 379.2127499999915,
      "v": 87
    },
    {
      "midi": 47,
      "hit": false,
      "t": 113616.35337499918,
      "d": 308.98816666666244,
      "v": 79
    },
    {
      "midi": 57,
      "hit": false,
      "t": 113616.35337499918,
      "d": 744.3805833333172,
      "v": 71
    },
    {
      "midi": 85,
      "hit": false,
      "t": 113932.36399999961,
      "d": 351.1229166666599,
      "v": 75
    },
    {
      "midi": 52,
      "hit": false,
      "t": 113953.43137499917,
      "d": 294.9432499999966,
      "v": 91
    },
    {
      "midi": 61,
      "hit": false,
      "t": 113953.43137499917,
      "d": 414.32504166665603,
      "v": 95
    },
    {
      "midi": 81,
      "hit": false,
      "t": 114269.4419999996,
      "d": 287.9207916666637,
      "v": 39
    },
    {
      "midi": 64,
      "hit": false,
      "t": 114290.50937499916,
      "d": 84.26949999999488,
      "v": 87
    },
    {
      "midi": 47,
      "hit": false,
      "t": 114290.50937499916,
      "d": 140.44916666665813,
      "v": 91
    },
    {
      "midi": 47,
      "hit": false,
      "t": 114606.5199999996,
      "d": 400.2801249999902,
      "v": 105
    },
    {
      "midi": 35,
      "hit": false,
      "t": 114627.58737499916,
      "d": 1207.8628333333181,
      "v": 95
    },
    {
      "midi": 63,
      "hit": false,
      "t": 114627.58737499916,
      "d": 5245.7763749999285,
      "v": 87
    },
    {
      "midi": 59,
      "hit": false,
      "t": 114627.58737499916,
      "d": 5259.821291666594,
      "v": 79
    },
    {
      "midi": 54,
      "hit": false,
      "t": 114627.58737499916,
      "d": 5287.911124999926,
      "v": 91
    },
    {
      "midi": 49,
      "hit": false,
      "t": 114943.59799999959,
      "d": 344.10045833332697,
      "v": 97
    },
    {
      "midi": 42,
      "hit": false,
      "t": 114964.66537499915,
      "d": 351.1229166666599,
      "v": 63
    },
    {
      "midi": 51,
      "hit": false,
      "t": 115280.67599999958,
      "d": 323.03308333332825,
      "v": 101
    },
    {
      "midi": 47,
      "hit": false,
      "t": 115301.74337499915,
      "d": 1039.3238333333284,
      "v": 75
    },
    {
      "midi": 52,
      "hit": false,
      "t": 115617.75399999958,
      "d": 393.2576666666573,
      "v": 93
    },
    {
      "midi": 42,
      "hit": false,
      "t": 115638.82137499914,
      "d": 435.3924166666693,
      "v": 87
    },
    {
      "midi": 54,
      "hit": false,
      "t": 115954.83199999957,
      "d": 372.1902916666586,
      "v": 105
    },
    {
      "midi": 35,
      "hit": false,
      "t": 115975.89937499915,
      "d": 1200.8403749999852,
      "v": 87
    },
    {
      "midi": 56,
      "hit": false,
      "t": 116291.90999999957,
      "d": 351.1229166666599,
      "v": 105
    },
    {
      "midi": 42,
      "hit": false,
      "t": 116312.97737499914,
      "d": 344.10045833332697,
      "v": 87
    },
    {
      "midi": 57,
      "hit": false,
      "t": 116628.98799999956,
      "d": 407.3025833333231,
      "v": 93
    },
    {
      "midi": 47,
      "hit": false,
      "t": 116650.05537499914,
      "d": 800.560249999995,
      "v": 87
    },
    {
      "midi": 59,
      "hit": false,
      "t": 116966.06599999956,
      "d": 386.2352083333244,
      "v": 97
    },
    {
      "midi": 42,
      "hit": false,
      "t": 116987.13337499913,
      "d": 456.459791666668,
      "v": 91
    },
    {
      "midi": 61,
      "hit": false,
      "t": 117303.14399999955,
      "d": 358.1453749999928,
      "v": 105
    },
    {
      "midi": 35,
      "hit": false,
      "t": 117324.21137499914,
      "d": 1123.5933333333087,
      "v": 87
    },
    {
      "midi": 63,
      "hit": false,
      "t": 117640.22199999954,
      "d": 337.07799999999406,
      "v": 105
    },
    {
      "midi": 42,
      "hit": false,
      "t": 117661.28937499913,
      "d": 379.2127499999915,
      "v": 95
    },
    {
      "midi": 64,
      "hit": false,
      "t": 117977.29999999954,
      "d": 400.2801249999902,
      "v": 113
    },
    {
      "midi": 47,
      "hit": false,
      "t": 117998.36737499913,
      "d": 681.178458333321,
      "v": 99
    },
    {
      "midi": 66,
      "hit": false,
      "t": 118314.37799999953,
      "d": 316.01062499999534,
      "v": 113
    },
    {
      "midi": 42,
      "hit": false,
      "t": 118335.44537499912,
      "d": 414.32504166665603,
      "v": 79
    },
    {
      "midi": 68,
      "hit": false,
      "t": 118651.45599999953,
      "d": 119.38179166665941,
      "v": 105
    },
    {
      "midi": 35,
      "hit": false,
      "t": 118672.52337499912,
      "d": 814.6051666666463,
      "v": 99
    },
    {
      "midi": 69,
      "hit": false,
      "t": 118819.99499999952,
      "d": 189.60637500000303,
      "v": 105
    },
    {
      "midi": 71,
      "hit": false,
      "t": 118988.53399999952,
      "d": 182.58391666667012,
      "v": 97
    },
    {
      "midi": 42,
      "hit": false,
      "t": 119009.60137499911,
      "d": 365.1678333333257,
      "v": 91
    },
    {
      "midi": 73,
      "hit": false,
      "t": 119157.07299999952,
      "d": 189.60637500000303,
      "v": 93
    },
    {
      "midi": 75,
      "hit": false,
      "t": 119325.61199999953,
      "d": 105.3368749999936,
      "v": 97
    },
    {
      "midi": 47,
      "hit": false,
      "t": 119346.6793749991,
      "d": 407.3025833333231,
      "v": 99
    },
    {
      "midi": 76,
      "hit": false,
      "t": 119494.15099999952,
      "d": 203.65129166666884,
      "v": 89
    },
    {
      "midi": 78,
      "hit": false,
      "t": 119662.68999999952,
      "d": 168.5390000000043,
      "v": 93
    },
    {
      "midi": 35,
      "hit": false,
      "t": 119683.7573749991,
      "d": 280.89833333331626,
      "v": 91
    },
    {
      "midi": 80,
      "hit": false,
      "t": 119831.22899999953,
      "d": 119.38179166665941,
      "v": 109
    },
    {
      "midi": 49,
      "hit": false,
      "t": 120020.83537499908,
      "d": 210.67375000000175,
      "v": 107
    },
    {
      "midi": 37,
      "hit": false,
      "t": 120020.83537499908,
      "d": 224.71866666666756,
      "v": 95
    },
    {
      "midi": 64,
      "hit": false,
      "t": 120357.91337499907,
      "d": 147.4716250000056,
      "v": 91
    },
    {
      "midi": 68,
      "hit": false,
      "t": 120357.91337499907,
      "d": 161.5165416666714,
      "v": 99
    },
    {
      "midi": 61,
      "hit": false,
      "t": 120357.91337499907,
      "d": 175.5614583333372,
      "v": 95
    },
    {
      "midi": 61,
      "hit": false,
      "t": 121032.06937499908,
      "d": 140.44916666667268,
      "v": 95
    },
    {
      "midi": 64,
      "hit": false,
      "t": 121032.06937499908,
      "d": 140.44916666667268,
      "v": 95
    },
    {
      "midi": 68,
      "hit": false,
      "t": 121032.06937499908,
      "d": 147.4716250000056,
      "v": 103
    },
    {
      "midi": 67,
      "hit": false,
      "t": 121348.07999999952,
      "d": 126.40425000000687,
      "v": 125
    },
    {
      "midi": 49,
      "hit": false,
      "t": 121369.14737499908,
      "d": 217.69620833333465,
      "v": 95
    },
    {
      "midi": 37,
      "hit": false,
      "t": 121369.14737499908,
      "d": 252.80849999999919,
      "v": 95
    },
    {
      "midi": 68,
      "hit": false,
      "t": 121516.61899999953,
      "d": 168.5390000000043,
      "v": 113
    },
    {
      "midi": 67,
      "hit": false,
      "t": 121685.15799999953,
      "d": 154.4940833333385,
      "v": 109
    },
    {
      "midi": 64,
      "hit": false,
      "t": 121706.22537499908,
      "d": 147.4716250000056,
      "v": 107
    },
    {
      "midi": 68,
      "hit": false,
      "t": 121706.22537499908,
      "d": 147.4716250000056,
      "v": 107
    },
    {
      "midi": 61,
      "hit": false,
      "t": 121706.22537499908,
      "d": 154.4940833333385,
      "v": 87
    },
    {
      "midi": 68,
      "hit": false,
      "t": 121853.69699999953,
      "d": 189.60637500000303,
      "v": 109
    },
    {
      "midi": 67,
      "hit": false,
      "t": 122022.23599999954,
      "d": 231.74112500000047,
      "v": 121
    },
    {
      "midi": 47,
      "hit": false,
      "t": 122043.30337499909,
      "d": 238.76358333333337,
      "v": 95
    },
    {
      "midi": 35,
      "hit": false,
      "t": 122043.30337499909,
      "d": 301.96570833332953,
      "v": 99
    },
    {
      "midi": 68,
      "hit": false,
      "t": 122359.31399999953,
      "d": 112.3593333333265,
      "v": 109
    },
    {
      "midi": 67,
      "hit": false,
      "t": 122359.31399999953,
      "d": 175.56145833332266,
      "v": 117
    },
    {
      "midi": 64,
      "hit": false,
      "t": 122380.38137499908,
      "d": 133.42670833333977,
      "v": 103
    },
    {
      "midi": 61,
      "hit": false,
      "t": 122380.38137499908,
      "d": 147.4716250000056,
      "v": 99
    },
    {
      "midi": 68,
      "hit": false,
      "t": 122380.38137499908,
      "d": 154.4940833333385,
      "v": 99
    },
    {
      "midi": 64,
      "hit": false,
      "t": 122696.39199999953,
      "d": 210.67375000000175,
      "v": 121
    },
    {
      "midi": 57,
      "hit": false,
      "t": 122696.39199999953,
      "d": 456.459791666668,
      "v": 109
    },
    {
      "midi": 45,
      "hit": false,
      "t": 122717.45937499909,
      "d": 266.853416666665,
      "v": 111
    },
    {
      "midi": 33,
      "hit": false,
      "t": 122717.45937499909,
      "d": 301.96570833332953,
      "v": 111
    },
    {
      "midi": 63,
      "hit": false,
      "t": 123033.46999999954,
      "d": 70.22458333332906,
      "v": 113
    },
    {
      "midi": 61,
      "hit": false,
      "t": 123054.53737499908,
      "d": 140.44916666667268,
      "v": 99
    },
    {
      "midi": 64,
      "hit": false,
      "t": 123054.53737499908,
      "d": 140.44916666667268,
      "v": 103
    },
    {
      "midi": 69,
      "hit": false,
      "t": 123054.53737499908,
      "d": 154.4940833333385,
      "v": 99
    },
    {
      "midi": 57,
      "hit": false,
      "t": 123370.54799999953,
      "d": 505.61699999999837,
      "v": 121
    },
    {
      "midi": 63,
      "hit": false,
      "t": 123370.54799999953,
      "d": 547.7517499999958,
      "v": 121
    },
    {
      "midi": 64,
      "hit": false,
      "t": 123728.69337499909,
      "d": 105.3368749999936,
      "v": 99
    },
    {
      "midi": 61,
      "hit": false,
      "t": 123728.69337499909,
      "d": 112.3593333333265,
      "v": 95
    },
    {
      "midi": 69,
      "hit": false,
      "t": 123728.69337499909,
      "d": 140.44916666665813,
      "v": 95
    },
    {
      "midi": 64,
      "hit": false,
      "t": 124044.70399999953,
      "d": 133.42670833333977,
      "v": 127
    },
    {
      "midi": 57,
      "hit": false,
      "t": 124044.70399999953,
      "d": 182.58391666667012,
      "v": 117
    },
    {
      "midi": 33,
      "hit": false,
      "t": 124065.77137499908,
      "d": 175.5614583333372,
      "v": 91
    },
    {
      "midi": 45,
      "hit": false,
      "t": 124065.77137499908,
      "d": 287.9207916666637,
      "v": 103
    },
    {
      "midi": 63,
      "hit": false,
      "t": 124213.24299999954,
      "d": 84.26949999999488,
      "v": 113
    },
    {
      "midi": 63,
      "hit": false,
      "t": 124381.78199999953,
      "d": 217.69620833333465,
      "v": 117
    },
    {
      "midi": 61,
      "hit": false,
      "t": 124402.84937499907,
      "d": 91.29195833332778,
      "v": 99
    },
    {
      "midi": 64,
      "hit": false,
      "t": 124402.84937499907,
      "d": 91.29195833332778,
      "v": 107
    },
    {
      "midi": 69,
      "hit": false,
      "t": 124402.84937499907,
      "d": 147.47162499999104,
      "v": 107
    },
    {
      "midi": 64,
      "hit": false,
      "t": 124718.85999999952,
      "d": 77.24704166666197,
      "v": 113
    },
    {
      "midi": 57,
      "hit": false,
      "t": 124718.85999999952,
      "d": 98.31441666666069,
      "v": 97
    },
    {
      "midi": 42,
      "hit": false,
      "t": 124739.92737499907,
      "d": 287.9207916666637,
      "v": 103
    },
    {
      "midi": 63,
      "hit": false,
      "t": 124887.39899999951,
      "d": 154.4940833333385,
      "v": 117
    },
    {
      "midi": 63,
      "hit": false,
      "t": 125055.93799999951,
      "d": 175.5614583333372,
      "v": 121
    },
    {
      "midi": 78,
      "hit": false,
      "t": 125077.00537499906,
      "d": 168.5390000000043,
      "v": 103
    },
    {
      "midi": 85,
      "hit": false,
      "t": 125077.00537499906,
      "d": 168.5390000000043,
      "v": 99
    },
    {
      "midi": 81,
      "hit": false,
      "t": 125077.00537499906,
      "d": 175.5614583333372,
      "v": 95
    },
    {
      "midi": 61,
      "hit": false,
      "t": 125393.01599999952,
      "d": 330.05554166666116,
      "v": 125
    },
    {
      "midi": 49,
      "hit": false,
      "t": 125414.08337499907,
      "d": 273.8758749999979,
      "v": 99
    },
    {
      "midi": 37,
      "hit": false,
      "t": 125414.08337499907,
      "d": 280.8983333333308,
      "v": 95
    },
    {
      "midi": 64,
      "hit": false,
      "t": 125751.16137499906,
      "d": 105.3368749999936,
      "v": 83
    },
    {
      "midi": 61,
      "hit": false,
      "t": 125751.16137499906,
      "d": 126.40424999999232,
      "v": 87
    },
    {
      "midi": 68,
      "hit": false,
      "t": 125751.16137499906,
      "d": 126.40424999999232,
      "v": 91
    },
    {
      "midi": 64,
      "hit": false,
      "t": 126425.31737499905,
      "d": 77.24704166666197,
      "v": 87
    },
    {
      "midi": 61,
      "hit": false,
      "t": 126425.31737499905,
      "d": 84.26949999999488,
      "v": 83
    },
    {
      "midi": 68,
      "hit": false,
      "t": 126425.31737499905,
      "d": 91.29195833332778,
      "v": 95
    },
    {
      "midi": 37,
      "hit": false,
      "t": 126762.39537499905,
      "d": 316.01062499999534,
      "v": 87
    },
    {
      "midi": 49,
      "hit": false,
      "t": 126762.39537499905,
      "d": 316.01062499999534,
      "v": 95
    },
    {
      "midi": 63,
      "hit": false,
      "t": 127078.40599999952,
      "d": 112.3593333333265,
      "v": 117
    },
    {
      "midi": 64,
      "hit": false,
      "t": 127078.40599999952,
      "d": 245.78604166666628,
      "v": 121
    },
    {
      "midi": 64,
      "hit": false,
      "t": 127099.47337499904,
      "d": 77.24704166666197,
      "v": 95
    },
    {
      "midi": 61,
      "hit": false,
      "t": 127099.47337499904,
      "d": 91.29195833332778,
      "v": 95
    },
    {
      "midi": 68,
      "hit": false,
      "t": 127099.47337499904,
      "d": 105.3368749999936,
      "v": 99
    },
    {
      "midi": 64,
      "hit": false,
      "t": 127415.48399999952,
      "d": 168.5390000000043,
      "v": 127
    },
    {
      "midi": 64,
      "hit": false,
      "t": 127752.56199999953,
      "d": 231.74112500000047,
      "v": 127
    },
    {
      "midi": 71,
      "hit": false,
      "t": 127773.62937499903,
      "d": 189.60637500000303,
      "v": 111
    },
    {
      "midi": 75,
      "hit": false,
      "t": 127773.62937499903,
      "d": 203.65129166666884,
      "v": 107
    },
    {
      "midi": 68,
      "hit": false,
      "t": 127773.62937499903,
      "d": 252.80849999999919,
      "v": 107
    },
    {
      "midi": 63,
      "hit": false,
      "t": 128089.63999999952,
      "d": 245.78604166666628,
      "v": 121
    },
    {
      "midi": 54,
      "hit": false,
      "t": 128110.70737499902,
      "d": 316.01062499999534,
      "v": 99
    },
    {
      "midi": 42,
      "hit": false,
      "t": 128110.70737499902,
      "d": 351.1229166666599,
      "v": 83
    },
    {
      "midi": 61,
      "hit": false,
      "t": 128426.71799999951,
      "d": 245.78604166666628,
      "v": 117
    },
    {
      "midi": 66,
      "hit": false,
      "t": 128447.78537499902,
      "d": 112.3593333333265,
      "v": 99
    },
    {
      "midi": 61,
      "hit": false,
      "t": 128447.78537499902,
      "d": 119.38179166665941,
      "v": 83
    },
    {
      "midi": 69,
      "hit": false,
      "t": 128447.78537499902,
      "d": 126.40424999999232,
      "v": 99
    },
    {
      "midi": 57,
      "hit": false,
      "t": 128763.79599999951,
      "d": 477.52716666666674,
      "v": 117
    },
    {
      "midi": 66,
      "hit": false,
      "t": 129121.941374999,
      "d": 84.26949999999488,
      "v": 103
    },
    {
      "midi": 61,
      "hit": false,
      "t": 129121.941374999,
      "d": 91.29195833332778,
      "v": 87
    },
    {
      "midi": 69,
      "hit": false,
      "t": 129121.941374999,
      "d": 112.3593333333265,
      "v": 99
    },
    {
      "midi": 57,
      "hit": false,
      "t": 129437.95199999951,
      "d": 161.5165416666714,
      "v": 121
    },
    {
      "midi": 42,
      "hit": false,
      "t": 129459.019374999,
      "d": 168.5390000000043,
      "v": 99
    },
    {
      "midi": 54,
      "hit": false,
      "t": 129459.019374999,
      "d": 175.5614583333372,
      "v": 107
    },
    {
      "midi": 59,
      "hit": false,
      "t": 129606.49099999951,
      "d": 407.3025833333231,
      "v": 127
    },
    {
      "midi": 61,
      "hit": false,
      "t": 129796.09737499901,
      "d": 77.24704166666197,
      "v": 91
    },
    {
      "midi": 66,
      "hit": false,
      "t": 129796.09737499901,
      "d": 77.24704166666197,
      "v": 103
    },
    {
      "midi": 69,
      "hit": false,
      "t": 129796.09737499901,
      "d": 98.31441666666069,
      "v": 95
    },
    {
      "midi": 42,
      "hit": false,
      "t": 129796.09737499901,
      "d": 266.853416666665,
      "v": 87
    },
    {
      "midi": 54,
      "hit": false,
      "t": 129796.09737499901,
      "d": 273.8758749999979,
      "v": 103
    },
    {
      "midi": 57,
      "hit": false,
      "t": 129943.56899999951,
      "d": 77.24704166666197,
      "v": 113
    },
    {
      "midi": 61,
      "hit": false,
      "t": 130112.1079999995,
      "d": 308.98816666666244,
      "v": 125
    },
    {
      "midi": 50,
      "hit": false,
      "t": 130133.175374999,
      "d": 316.01062499999534,
      "v": 95
    },
    {
      "midi": 64,
      "hit": false,
      "t": 130449.18599999949,
      "d": 203.65129166666884,
      "v": 125
    },
    {
      "midi": 57,
      "hit": false,
      "t": 130470.253374999,
      "d": 203.65129166666884,
      "v": 91
    },
    {
      "midi": 78,
      "hit": false,
      "t": 130470.253374999,
      "d": 203.65129166666884,
      "v": 111
    },
    {
      "midi": 81,
      "hit": false,
      "t": 130470.253374999,
      "d": 224.71866666666756,
      "v": 111
    },
    {
      "midi": 74,
      "hit": false,
      "t": 130470.253374999,
      "d": 231.74112500000047,
      "v": 115
    },
    {
      "midi": 61,
      "hit": false,
      "t": 130786.2639999995,
      "d": 308.988166666677,
      "v": 121
    },
    {
      "midi": 49,
      "hit": false,
      "t": 130807.33137499899,
      "d": 210.67375000000175,
      "v": 107
    },
    {
      "midi": 37,
      "hit": false,
      "t": 130807.33137499899,
      "d": 224.71866666666756,
      "v": 95
    },
    {
      "midi": 64,
      "hit": false,
      "t": 131144.409374999,
      "d": 147.4716250000056,
      "v": 91
    },
    {
      "midi": 68,
      "hit": false,
      "t": 131144.409374999,
      "d": 161.5165416666714,
      "v": 99
    },
    {
      "midi": 61,
      "hit": false,
      "t": 131144.409374999,
      "d": 175.5614583333372,
      "v": 95
    },
    {
      "midi": 61,
      "hit": false,
      "t": 131818.56537499902,
      "d": 140.44916666665813,
      "v": 95
    },
    {
      "midi": 64,
      "hit": false,
      "t": 131818.56537499902,
      "d": 140.44916666665813,
      "v": 95
    },
    {
      "midi": 68,
      "hit": false,
      "t": 131818.56537499902,
      "d": 147.4716250000056,
      "v": 103
    },
    {
      "midi": 68,
      "hit": false,
      "t": 132134.5759999995,
      "d": 84.26949999999488,
      "v": 121
    },
    {
      "midi": 61,
      "hit": false,
      "t": 132134.5759999995,
      "d": 98.31441666666069,
      "v": 117
    },
    {
      "midi": 64,
      "hit": false,
      "t": 132134.5759999995,
      "d": 105.33687500000815,
      "v": 121
    },
    {
      "midi": 49,
      "hit": false,
      "t": 132155.64337499902,
      "d": 217.69620833333465,
      "v": 95
    },
    {
      "midi": 37,
      "hit": false,
      "t": 132155.64337499902,
      "d": 252.80850000001374,
      "v": 95
    },
    {
      "midi": 68,
      "hit": false,
      "t": 132303.11499999953,
      "d": 168.53899999998976,
      "v": 121
    },
    {
      "midi": 61,
      "hit": false,
      "t": 132303.11499999953,
      "d": 175.5614583333372,
      "v": 113
    },
    {
      "midi": 64,
      "hit": false,
      "t": 132303.11499999953,
      "d": 210.6737500000163,
      "v": 117
    },
    {
      "midi": 64,
      "hit": false,
      "t": 132492.72137499903,
      "d": 147.4716250000056,
      "v": 107
    },
    {
      "midi": 68,
      "hit": false,
      "t": 132492.72137499903,
      "d": 147.4716250000056,
      "v": 107
    },
    {
      "midi": 61,
      "hit": false,
      "t": 132492.72137499903,
      "d": 154.49408333335305,
      "v": 87
    },
    {
      "midi": 64,
      "hit": false,
      "t": 132640.19299999953,
      "d": 49.1572083333449,
      "v": 69
    },
    {
      "midi": 68,
      "hit": false,
      "t": 132640.19299999953,
      "d": 77.24704166667652,
      "v": 109
    },
    {
      "midi": 61,
      "hit": false,
      "t": 132640.19299999953,
      "d": 84.26950000002398,
      "v": 109
    },
    {
      "midi": 67,
      "hit": false,
      "t": 132808.73199999955,
      "d": 301.96570833332953,
      "v": 121
    },
    {
      "midi": 47,
      "hit": false,
      "t": 132829.79937499904,
      "d": 238.76358333331882,
      "v": 95
    },
    {
      "midi": 35,
      "hit": false,
      "t": 132829.79937499904,
      "d": 301.96570833332953,
      "v": 99
    },
    {
      "midi": 68,
      "hit": false,
      "t": 133145.80999999956,
      "d": 217.69620833333465,
      "v": 117
    },
    {
      "midi": 61,
      "hit": false,
      "t": 133145.80999999956,
      "d": 231.74112500000047,
      "v": 117
    },
    {
      "midi": 64,
      "hit": false,
      "t": 133145.80999999956,
      "d": 231.74112500000047,
      "v": 121
    },
    {
      "midi": 64,
      "hit": false,
      "t": 133166.87737499905,
      "d": 133.42670833333977,
      "v": 103
    },
    {
      "midi": 61,
      "hit": false,
      "t": 133166.87737499905,
      "d": 147.4716250000056,
      "v": 99
    },
    {
      "midi": 68,
      "hit": false,
      "t": 133166.87737499905,
      "d": 154.49408333335305,
      "v": 99
    },
    {
      "midi": 45,
      "hit": false,
      "t": 133503.95537499906,
      "d": 266.85341666667955,
      "v": 111
    },
    {
      "midi": 33,
      "hit": false,
      "t": 133503.95537499906,
      "d": 301.96570833335863,
      "v": 111
    },
    {
      "midi": 61,
      "hit": false,
      "t": 133819.96599999955,
      "d": 189.60637500000303,
      "v": 121
    },
    {
      "midi": 69,
      "hit": false,
      "t": 133819.96599999955,
      "d": 189.60637500000303,
      "v": 125
    },
    {
      "midi": 64,
      "hit": false,
      "t": 133819.96599999955,
      "d": 203.65129166666884,
      "v": 127
    },
    {
      "midi": 61,
      "hit": false,
      "t": 133841.0333749991,
      "d": 140.44916666665813,
      "v": 99
    },
    {
      "midi": 64,
      "hit": false,
      "t": 133841.0333749991,
      "d": 140.44916666665813,
      "v": 103
    },
    {
      "midi": 69,
      "hit": false,
      "t": 133841.0333749991,
      "d": 154.49408333332394,
      "v": 99
    },
    {
      "midi": 64,
      "hit": false,
      "t": 134157.04399999956,
      "d": 224.718666666653,
      "v": 127
    },
    {
      "midi": 69,
      "hit": false,
      "t": 134157.04399999956,
      "d": 224.718666666653,
      "v": 109
    },
    {
      "midi": 61,
      "hit": false,
      "t": 134157.04399999956,
      "d": 287.9207916666637,
      "v": 117
    },
    {
      "midi": 64,
      "hit": false,
      "t": 134515.18937499908,
      "d": 105.33687500000815,
      "v": 99
    },
    {
      "midi": 61,
      "hit": false,
      "t": 134515.18937499908,
      "d": 112.35933333335561,
      "v": 95
    },
    {
      "midi": 69,
      "hit": false,
      "t": 134515.18937499908,
      "d": 140.44916666668723,
      "v": 95
    },
    {
      "midi": 73,
      "hit": false,
      "t": 134831.19999999955,
      "d": 273.8758749999979,
      "v": 121
    },
    {
      "midi": 64,
      "hit": false,
      "t": 134831.19999999955,
      "d": 365.16783333334024,
      "v": 125
    },
    {
      "midi": 61,
      "hit": false,
      "t": 134831.19999999955,
      "d": 407.3025833333377,
      "v": 117
    },
    {
      "midi": 33,
      "hit": false,
      "t": 134852.2673749991,
      "d": 175.5614583333372,
      "v": 91
    },
    {
      "midi": 45,
      "hit": false,
      "t": 134852.2673749991,
      "d": 287.9207916666637,
      "v": 103
    },
    {
      "midi": 69,
      "hit": false,
      "t": 135168.27799999955,
      "d": 217.69620833333465,
      "v": 117
    },
    {
      "midi": 61,
      "hit": false,
      "t": 135189.3453749991,
      "d": 91.29195833334234,
      "v": 99
    },
    {
      "midi": 64,
      "hit": false,
      "t": 135189.3453749991,
      "d": 91.29195833334234,
      "v": 107
    },
    {
      "midi": 69,
      "hit": false,
      "t": 135189.3453749991,
      "d": 147.4716250000056,
      "v": 107
    },
    {
      "midi": 61,
      "hit": false,
      "t": 135505.35599999956,
      "d": 231.74112500000047,
      "v": 113
    },
    {
      "midi": 68,
      "hit": false,
      "t": 135505.35599999956,
      "d": 245.78604166666628,
      "v": 120
    },
    {
      "midi": 42,
      "hit": false,
      "t": 135526.4233749991,
      "d": 287.9207916666637,
      "v": 103
    },
    {
      "midi": 66,
      "hit": false,
      "t": 135842.43399999957,
      "d": 210.6737499999872,
      "v": 127
    },
    {
      "midi": 78,
      "hit": false,
      "t": 135863.50137499912,
      "d": 168.53899999998976,
      "v": 103
    },
    {
      "midi": 85,
      "hit": false,
      "t": 135863.50137499912,
      "d": 168.53899999998976,
      "v": 99
    },
    {
      "midi": 81,
      "hit": false,
      "t": 135863.50137499912,
      "d": 175.5614583333372,
      "v": 95
    },
    {
      "midi": 68,
      "hit": false,
      "t": 136179.51199999955,
      "d": 252.80850000001374,
      "v": 117
    },
    {
      "midi": 49,
      "hit": false,
      "t": 136200.57937499913,
      "d": 273.8758749999979,
      "v": 99
    },
    {
      "midi": 37,
      "hit": false,
      "t": 136200.57937499913,
      "d": 280.89833333334536,
      "v": 95
    },
    {
      "midi": 64,
      "hit": false,
      "t": 136516.58999999956,
      "d": 203.65129166666884,
      "v": 117
    },
    {
      "midi": 64,
      "hit": false,
      "t": 136537.65737499914,
      "d": 105.33687500000815,
      "v": 83
    },
    {
      "midi": 61,
      "hit": false,
      "t": 136537.65737499914,
      "d": 126.40425000002142,
      "v": 87
    },
    {
      "midi": 68,
      "hit": false,
      "t": 136537.65737499914,
      "d": 126.40425000002142,
      "v": 91
    },
    {
      "midi": 64,
      "hit": false,
      "t": 136853.66799999957,
      "d": 294.9432500000112,
      "v": 125
    },
    {
      "midi": 64,
      "hit": false,
      "t": 137211.81337499915,
      "d": 77.24704166667652,
      "v": 87
    },
    {
      "midi": 61,
      "hit": false,
      "t": 137211.81337499915,
      "d": 84.26950000002398,
      "v": 83
    },
    {
      "midi": 68,
      "hit": false,
      "t": 137211.81337499915,
      "d": 91.29195833337144,
      "v": 95
    },
    {
      "midi": 68,
      "hit": false,
      "t": 137527.8239999996,
      "d": 210.6737499999872,
      "v": 117
    },
    {
      "midi": 37,
      "hit": false,
      "t": 137548.8913749992,
      "d": 316.01062499999534,
      "v": 87
    },
    {
      "midi": 49,
      "hit": false,
      "t": 137548.8913749992,
      "d": 316.01062499999534,
      "v": 95
    },
    {
      "midi": 66,
      "hit": false,
      "t": 137696.36299999958,
      "d": 168.53899999998976,
      "v": 117
    },
    {
      "midi": 64,
      "hit": false,
      "t": 137864.90199999957,
      "d": 210.6737499999872,
      "v": 109
    },
    {
      "midi": 64,
      "hit": false,
      "t": 137885.9693749992,
      "d": 77.24704166667652,
      "v": 95
    },
    {
      "midi": 61,
      "hit": false,
      "t": 137885.9693749992,
      "d": 91.29195833334234,
      "v": 95
    },
    {
      "midi": 68,
      "hit": false,
      "t": 137885.9693749992,
      "d": 105.33687500000815,
      "v": 99
    },
    {
      "midi": 63,
      "hit": false,
      "t": 138033.44099999956,
      "d": 98.31441666666069,
      "v": 113
    },
    {
      "midi": 64,
      "hit": false,
      "t": 138201.97999999954,
      "d": 259.8309583333321,
      "v": 127
    },
    {
      "midi": 61,
      "hit": false,
      "t": 138539.05799999955,
      "d": 154.49408333332394,
      "v": 117
    },
    {
      "midi": 71,
      "hit": false,
      "t": 138560.12537499922,
      "d": 189.60637500000303,
      "v": 111
    },
    {
      "midi": 75,
      "hit": false,
      "t": 138560.12537499922,
      "d": 203.65129166666884,
      "v": 107
    },
    {
      "midi": 68,
      "hit": false,
      "t": 138560.12537499922,
      "d": 252.80850000001374,
      "v": 107
    },
    {
      "midi": 57,
      "hit": false,
      "t": 138876.13599999953,
      "d": 259.8309583333321,
      "v": 121
    },
    {
      "midi": 54,
      "hit": false,
      "t": 138897.20337499923,
      "d": 316.01062499999534,
      "v": 99
    },
    {
      "midi": 42,
      "hit": false,
      "t": 138897.20337499923,
      "d": 351.1229166666744,
      "v": 83
    },
    {
      "midi": 61,
      "hit": false,
      "t": 139213.21399999954,
      "d": 238.76358333331882,
      "v": 117
    },
    {
      "midi": 66,
      "hit": false,
      "t": 139234.28137499923,
      "d": 112.3593333333265,
      "v": 99
    },
    {
      "midi": 61,
      "hit": false,
      "t": 139234.28137499923,
      "d": 119.38179166667396,
      "v": 83
    },
    {
      "midi": 69,
      "hit": false,
      "t": 139234.28137499923,
      "d": 126.40425000002142,
      "v": 99
    },
    {
      "midi": 57,
      "hit": false,
      "t": 139550.29199999952,
      "d": 259.8309583333321,
      "v": 117
    },
    {
      "midi": 64,
      "hit": false,
      "t": 139550.29199999952,
      "d": 259.8309583333321,
      "v": 117
    },
    {
      "midi": 66,
      "hit": false,
      "t": 139908.43737499925,
      "d": 84.26949999999488,
      "v": 103
    },
    {
      "midi": 61,
      "hit": false,
      "t": 139908.43737499925,
      "d": 91.29195833334234,
      "v": 87
    },
    {
      "midi": 69,
      "hit": false,
      "t": 139908.43737499925,
      "d": 112.35933333335561,
      "v": 99
    },
    {
      "midi": 57,
      "hit": false,
      "t": 140224.4479999995,
      "d": 266.85341666667955,
      "v": 127
    },
    {
      "midi": 61,
      "hit": false,
      "t": 140224.4479999995,
      "d": 273.875875000027,
      "v": 125
    },
    {
      "midi": 42,
      "hit": false,
      "t": 140245.51537499926,
      "d": 168.53899999998976,
      "v": 99
    },
    {
      "midi": 54,
      "hit": false,
      "t": 140245.51537499926,
      "d": 175.5614583333372,
      "v": 107
    },
    {
      "midi": 64,
      "hit": false,
      "t": 140561.52599999955,
      "d": 259.8309583333321,
      "v": 127
    },
    {
      "midi": 61,
      "hit": false,
      "t": 140582.59337499927,
      "d": 77.24704166667652,
      "v": 91
    },
    {
      "midi": 66,
      "hit": false,
      "t": 140582.59337499927,
      "d": 77.24704166667652,
      "v": 103
    },
    {
      "midi": 69,
      "hit": false,
      "t": 140582.59337499927,
      "d": 98.3144166666898,
      "v": 95
    },
    {
      "midi": 42,
      "hit": false,
      "t": 140582.59337499927,
      "d": 266.85341666667955,
      "v": 87
    },
    {
      "midi": 54,
      "hit": false,
      "t": 140582.59337499927,
      "d": 273.875875000027,
      "v": 103
    },
    {
      "midi": 66,
      "hit": false,
      "t": 140898.60399999956,
      "d": 238.76358333331882,
      "v": 125
    },
    {
      "midi": 57,
      "hit": false,
      "t": 140898.60399999956,
      "d": 259.8309583333321,
      "v": 117
    },
    {
      "midi": 50,
      "hit": false,
      "t": 140919.6713749993,
      "d": 316.01062499999534,
      "v": 95
    },
    {
      "midi": 68,
      "hit": false,
      "t": 141235.68199999956,
      "d": 259.8309583333321,
      "v": 127
    },
    {
      "midi": 57,
      "hit": false,
      "t": 141256.74937499932,
      "d": 203.65129166666884,
      "v": 91
    },
    {
      "midi": 78,
      "hit": false,
      "t": 141256.74937499932,
      "d": 203.65129166666884,
      "v": 111
    },
    {
      "midi": 81,
      "hit": false,
      "t": 141256.74937499932,
      "d": 224.7186666666821,
      "v": 111
    },
    {
      "midi": 74,
      "hit": false,
      "t": 141256.74937499932,
      "d": 231.74112500002957,
      "v": 115
    },
    {
      "midi": 64,
      "hit": false,
      "t": 141572.75999999957,
      "d": 266.85341666667955,
      "v": 100
    },
    {
      "midi": 49,
      "hit": false,
      "t": 141593.82737499935,
      "d": 210.6737499999872,
      "v": 107
    },
    {
      "midi": 37,
      "hit": false,
      "t": 141593.82737499935,
      "d": 224.718666666653,
      "v": 95
    },
    {
      "midi": 64,
      "hit": false,
      "t": 141930.90537499933,
      "d": 147.4716250000056,
      "v": 91
    },
    {
      "midi": 68,
      "hit": false,
      "t": 141930.90537499933,
      "d": 161.5165416666714,
      "v": 99
    },
    {
      "midi": 61,
      "hit": false,
      "t": 141930.90537499933,
      "d": 175.5614583333372,
      "v": 95
    },
    {
      "midi": 61,
      "hit": false,
      "t": 142605.06137499935,
      "d": 140.44916666665813,
      "v": 95
    },
    {
      "midi": 64,
      "hit": false,
      "t": 142605.06137499935,
      "d": 140.44916666665813,
      "v": 95
    },
    {
      "midi": 68,
      "hit": false,
      "t": 142605.06137499935,
      "d": 147.4716250000056,
      "v": 103
    },
    {
      "midi": 49,
      "hit": false,
      "t": 142942.13937499936,
      "d": 217.69620833333465,
      "v": 95
    },
    {
      "midi": 37,
      "hit": false,
      "t": 142942.13937499936,
      "d": 252.80850000001374,
      "v": 95
    },
    {
      "midi": 64,
      "hit": false,
      "t": 143279.21737499937,
      "d": 147.4716250000056,
      "v": 107
    },
    {
      "midi": 68,
      "hit": false,
      "t": 143279.21737499937,
      "d": 147.4716250000056,
      "v": 107
    },
    {
      "midi": 61,
      "hit": false,
      "t": 143279.21737499937,
      "d": 154.49408333335305,
      "v": 87
    },
    {
      "midi": 47,
      "hit": false,
      "t": 143616.29537499938,
      "d": 238.76358333331882,
      "v": 95
    },
    {
      "midi": 35,
      "hit": false,
      "t": 143616.29537499938,
      "d": 301.96570833332953,
      "v": 99
    },
    {
      "midi": 64,
      "hit": false,
      "t": 143953.37337499938,
      "d": 133.42670833333977,
      "v": 103
    },
    {
      "midi": 61,
      "hit": false,
      "t": 143953.37337499938,
      "d": 147.4716250000056,
      "v": 99
    },
    {
      "midi": 68,
      "hit": false,
      "t": 143953.37337499938,
      "d": 154.49408333335305,
      "v": 99
    },
    {
      "midi": 45,
      "hit": false,
      "t": 144290.4513749994,
      "d": 266.85341666667955,
      "v": 111
    },
    {
      "midi": 33,
      "hit": false,
      "t": 144290.4513749994,
      "d": 301.96570833335863,
      "v": 111
    },
    {
      "midi": 61,
      "hit": false,
      "t": 144627.52937499943,
      "d": 140.44916666665813,
      "v": 99
    },
    {
      "midi": 64,
      "hit": false,
      "t": 144627.52937499943,
      "d": 140.44916666665813,
      "v": 103
    },
    {
      "midi": 69,
      "hit": false,
      "t": 144627.52937499943,
      "d": 154.49408333332394,
      "v": 99
    },
    {
      "midi": 64,
      "hit": false,
      "t": 145301.68537499942,
      "d": 105.33687500000815,
      "v": 99
    },
    {
      "midi": 61,
      "hit": false,
      "t": 145301.68537499942,
      "d": 112.35933333335561,
      "v": 95
    },
    {
      "midi": 69,
      "hit": false,
      "t": 145301.68537499942,
      "d": 140.44916666668723,
      "v": 95
    },
    {
      "midi": 33,
      "hit": false,
      "t": 145638.76337499943,
      "d": 175.5614583333372,
      "v": 91
    },
    {
      "midi": 45,
      "hit": false,
      "t": 145638.76337499943,
      "d": 287.9207916666637,
      "v": 103
    },
    {
      "midi": 61,
      "hit": false,
      "t": 145975.84137499944,
      "d": 91.29195833334234,
      "v": 99
    },
    {
      "midi": 64,
      "hit": false,
      "t": 145975.84137499944,
      "d": 91.29195833334234,
      "v": 107
    },
    {
      "midi": 69,
      "hit": false,
      "t": 145975.84137499944,
      "d": 147.4716250000056,
      "v": 107
    },
    {
      "midi": 42,
      "hit": false,
      "t": 146312.91937499944,
      "d": 287.9207916666637,
      "v": 103
    },
    {
      "midi": 78,
      "hit": false,
      "t": 146649.99737499945,
      "d": 168.53899999998976,
      "v": 103
    },
    {
      "midi": 85,
      "hit": false,
      "t": 146649.99737499945,
      "d": 168.53899999998976,
      "v": 99
    },
    {
      "midi": 81,
      "hit": false,
      "t": 146649.99737499945,
      "d": 175.5614583333372,
      "v": 95
    },
    {
      "midi": 49,
      "hit": false,
      "t": 146987.07537499946,
      "d": 273.8758749999979,
      "v": 99
    },
    {
      "midi": 37,
      "hit": false,
      "t": 146987.07537499946,
      "d": 280.89833333334536,
      "v": 95
    },
    {
      "midi": 64,
      "hit": false,
      "t": 147324.15337499947,
      "d": 105.33687500000815,
      "v": 83
    },
    {
      "midi": 61,
      "hit": false,
      "t": 147324.15337499947,
      "d": 126.40425000002142,
      "v": 87
    },
    {
      "midi": 68,
      "hit": false,
      "t": 147324.15337499947,
      "d": 126.40425000002142,
      "v": 91
    },
    {
      "midi": 64,
      "hit": false,
      "t": 147998.3093749995,
      "d": 77.24704166667652,
      "v": 87
    },
    {
      "midi": 61,
      "hit": false,
      "t": 147998.3093749995,
      "d": 84.26950000002398,
      "v": 83
    },
    {
      "midi": 68,
      "hit": false,
      "t": 147998.3093749995,
      "d": 91.29195833337144,
      "v": 95
    },
    {
      "midi": 37,
      "hit": false,
      "t": 148335.38737499953,
      "d": 316.01062499999534,
      "v": 87
    },
    {
      "midi": 49,
      "hit": false,
      "t": 148335.38737499953,
      "d": 316.01062499999534,
      "v": 95
    },
    {
      "midi": 64,
      "hit": false,
      "t": 148672.46537499953,
      "d": 77.24704166667652,
      "v": 95
    },
    {
      "midi": 61,
      "hit": false,
      "t": 148672.46537499953,
      "d": 91.29195833334234,
      "v": 95
    },
    {
      "midi": 68,
      "hit": false,
      "t": 148672.46537499953,
      "d": 105.33687500000815,
      "v": 99
    },
    {
      "midi": 71,
      "hit": false,
      "t": 149346.62137499955,
      "d": 189.60637500000303,
      "v": 111
    },
    {
      "midi": 75,
      "hit": false,
      "t": 149346.62137499955,
      "d": 203.65129166666884,
      "v": 107
    },
    {
      "midi": 68,
      "hit": false,
      "t": 149346.62137499955,
      "d": 252.80850000001374,
      "v": 107
    },
    {
      "midi": 54,
      "hit": false,
      "t": 149683.69937499956,
      "d": 316.01062499999534,
      "v": 99
    },
    {
      "midi": 42,
      "hit": false,
      "t": 149683.69937499956,
      "d": 351.1229166666744,
      "v": 83
    },
    {
      "midi": 66,
      "hit": false,
      "t": 150020.77737499957,
      "d": 112.3593333333265,
      "v": 99
    },
    {
      "midi": 61,
      "hit": false,
      "t": 150020.77737499957,
      "d": 119.38179166667396,
      "v": 83
    },
    {
      "midi": 69,
      "hit": false,
      "t": 150020.77737499957,
      "d": 126.40425000002142,
      "v": 99
    },
    {
      "midi": 66,
      "hit": false,
      "t": 150694.9333749996,
      "d": 84.26949999999488,
      "v": 103
    },
    {
      "midi": 61,
      "hit": false,
      "t": 150694.9333749996,
      "d": 91.29195833334234,
      "v": 87
    },
    {
      "midi": 69,
      "hit": false,
      "t": 150694.9333749996,
      "d": 112.35933333335561,
      "v": 99
    },
    {
      "midi": 42,
      "hit": false,
      "t": 151032.0113749996,
      "d": 168.53899999998976,
      "v": 99
    },
    {
      "midi": 54,
      "hit": false,
      "t": 151032.0113749996,
      "d": 175.5614583333372,
      "v": 107
    },
    {
      "midi": 61,
      "hit": false,
      "t": 151369.0893749996,
      "d": 77.24704166667652,
      "v": 91
    },
    {
      "midi": 66,
      "hit": false,
      "t": 151369.0893749996,
      "d": 77.24704166667652,
      "v": 103
    },
    {
      "midi": 69,
      "hit": false,
      "t": 151369.0893749996,
      "d": 98.3144166666898,
      "v": 95
    },
    {
      "midi": 42,
      "hit": false,
      "t": 151369.0893749996,
      "d": 266.85341666667955,
      "v": 87
    },
    {
      "midi": 54,
      "hit": false,
      "t": 151369.0893749996,
      "d": 273.875875000027,
      "v": 103
    },
    {
      "midi": 50,
      "hit": false,
      "t": 151706.16737499964,
      "d": 316.01062499999534,
      "v": 95
    },
    {
      "midi": 57,
      "hit": false,
      "t": 152043.24537499965,
      "d": 203.65129166666884,
      "v": 91
    },
    {
      "midi": 78,
      "hit": false,
      "t": 152043.24537499965,
      "d": 203.65129166666884,
      "v": 111
    },
    {
      "midi": 81,
      "hit": false,
      "t": 152043.24537499965,
      "d": 224.7186666666821,
      "v": 111
    },
    {
      "midi": 74,
      "hit": false,
      "t": 152043.24537499965,
      "d": 231.74112500002957,
      "v": 115
    },
    {
      "midi": 49,
      "hit": false,
      "t": 152380.3233749997,
      "d": 245.78604166666628,
      "v": 95
    },
    {
      "midi": 37,
      "hit": false,
      "t": 152380.3233749997,
      "d": 252.80850000001374,
      "v": 91
    },
    {
      "midi": 68,
      "hit": false,
      "t": 152717.4013749997,
      "d": 133.42670833333977,
      "v": 95
    },
    {
      "midi": 64,
      "hit": false,
      "t": 152717.4013749997,
      "d": 140.44916666668723,
      "v": 75
    },
    {
      "midi": 61,
      "hit": false,
      "t": 152717.4013749997,
      "d": 154.49408333335305,
      "v": 91
    },
    {
      "midi": 64,
      "hit": false,
      "t": 153391.5573749997,
      "d": 70.22458333332906,
      "v": 63
    },
    {
      "midi": 68,
      "hit": false,
      "t": 153391.5573749997,
      "d": 98.31441666666069,
      "v": 87
    },
    {
      "midi": 61,
      "hit": false,
      "t": 153391.5573749997,
      "d": 105.33687500000815,
      "v": 83
    },
    {
      "midi": 49,
      "hit": false,
      "t": 153728.63537499972,
      "d": 323.0330833333428,
      "v": 91
    },
    {
      "midi": 37,
      "hit": false,
      "t": 153728.63537499972,
      "d": 330.05554166669026,
      "v": 83
    },
    {
      "midi": 64,
      "hit": false,
      "t": 154065.71337499976,
      "d": 301.96570833332953,
      "v": 91
    },
    {
      "midi": 68,
      "hit": false,
      "t": 154065.71337499976,
      "d": 308.988166666677,
      "v": 95
    },
    {
      "midi": 61,
      "hit": false,
      "t": 154065.71337499976,
      "d": 323.0330833333428,
      "v": 95
    },
    {
      "midi": 47,
      "hit": false,
      "t": 154402.79137499977,
      "d": 428.36995833335095,
      "v": 107
    },
    {
      "midi": 35,
      "hit": false,
      "t": 154402.79137499977,
      "d": 533.7068333333591,
      "v": 99
    },
    {
      "midi": 59,
      "hit": false,
      "t": 154739.86937499978,
      "d": 266.85341666667955,
      "v": 103
    },
    {
      "midi": 68,
      "hit": false,
      "t": 154739.86937499978,
      "d": 273.875875000027,
      "v": 99
    },
    {
      "midi": 64,
      "hit": false,
      "t": 154739.86937499978,
      "d": 301.96570833335863,
      "v": 99
    },
    {
      "midi": 33,
      "hit": false,
      "t": 155076.9473749998,
      "d": 393.25766666667187,
      "v": 103
    },
    {
      "midi": 45,
      "hit": false,
      "t": 155076.9473749998,
      "d": 393.25766666667187,
      "v": 103
    },
    {
      "midi": 64,
      "hit": false,
      "t": 155414.02537499982,
      "d": 133.42670833333977,
      "v": 99
    },
    {
      "midi": 61,
      "hit": false,
      "t": 155414.02537499982,
      "d": 147.4716250000056,
      "v": 103
    },
    {
      "midi": 69,
      "hit": false,
      "t": 155414.02537499982,
      "d": 168.53900000001886,
      "v": 103
    },
    {
      "midi": 64,
      "hit": false,
      "t": 156088.18137499984,
      "d": 91.29195833334234,
      "v": 95
    },
    {
      "midi": 61,
      "hit": false,
      "t": 156088.18137499984,
      "d": 98.3144166666898,
      "v": 95
    },
    {
      "midi": 69,
      "hit": false,
      "t": 156088.18137499984,
      "d": 133.42670833336888,
      "v": 95
    },
    {
      "midi": 45,
      "hit": false,
      "t": 156425.25937499988,
      "d": 231.74112500000047,
      "v": 111
    },
    {
      "midi": 33,
      "hit": false,
      "t": 156425.25937499988,
      "d": 323.0330833333428,
      "v": 95
    },
    {
      "midi": 61,
      "hit": false,
      "t": 156762.3373749999,
      "d": 168.53899999998976,
      "v": 107
    },
    {
      "midi": 64,
      "hit": false,
      "t": 156762.3373749999,
      "d": 168.53899999998976,
      "v": 107
    },
    {
      "midi": 69,
      "hit": false,
      "t": 156762.3373749999,
      "d": 168.53899999998976,
      "v": 99
    },
    {
      "midi": 42,
      "hit": false,
      "t": 157099.41537499987,
      "d": 294.9432500000112,
      "v": 103
    },
    {
      "midi": 30,
      "hit": false,
      "t": 157099.41537499987,
      "d": 308.988166666677,
      "v": 107
    },
    {
      "midi": 78,
      "hit": false,
      "t": 157436.49337499987,
      "d": 337.0780000000086,
      "v": 99
    },
    {
      "midi": 81,
      "hit": false,
      "t": 157436.49337499987,
      "d": 337.0780000000086,
      "v": 87
    },
    {
      "midi": 85,
      "hit": false,
      "t": 157436.49337499987,
      "d": 337.0780000000086,
      "v": 103
    },
    {
      "midi": 37,
      "hit": false,
      "t": 157773.57137499988,
      "d": 337.0780000000086,
      "v": 103
    },
    {
      "midi": 49,
      "hit": false,
      "t": 157773.57137499988,
      "d": 337.0780000000086,
      "v": 103
    },
    {
      "midi": 64,
      "hit": false,
      "t": 158110.6493749999,
      "d": 77.24704166667652,
      "v": 67
    },
    {
      "midi": 61,
      "hit": false,
      "t": 158110.6493749999,
      "d": 126.40425000002142,
      "v": 91
    },
    {
      "midi": 68,
      "hit": false,
      "t": 158110.6493749999,
      "d": 126.40425000002142,
      "v": 87
    },
    {
      "midi": 64,
      "hit": false,
      "t": 158784.8053749999,
      "d": 70.22458333332906,
      "v": 79
    },
    {
      "midi": 61,
      "hit": false,
      "t": 158784.8053749999,
      "d": 91.29195833334234,
      "v": 95
    },
    {
      "midi": 68,
      "hit": false,
      "t": 158784.8053749999,
      "d": 98.3144166666898,
      "v": 95
    },
    {
      "midi": 37,
      "hit": false,
      "t": 159121.88337499992,
      "d": 168.53899999998976,
      "v": 103
    },
    {
      "midi": 49,
      "hit": false,
      "t": 159121.88337499992,
      "d": 182.58391666665557,
      "v": 99
    },
    {
      "midi": 61,
      "hit": false,
      "t": 159458.9613749999,
      "d": 77.24704166667652,
      "v": 87
    },
    {
      "midi": 64,
      "hit": false,
      "t": 159458.9613749999,
      "d": 77.24704166667652,
      "v": 83
    },
    {
      "midi": 68,
      "hit": false,
      "t": 159458.9613749999,
      "d": 119.38179166667396,
      "v": 91
    },
    {
      "midi": 37,
      "hit": false,
      "t": 159458.9613749999,
      "d": 287.9207916666637,
      "v": 99
    },
    {
      "midi": 49,
      "hit": false,
      "t": 159458.9613749999,
      "d": 323.0330833333428,
      "v": 103
    },
    {
      "midi": 44,
      "hit": false,
      "t": 159796.0393749999,
      "d": 575.8415833333565,
      "v": 95
    },
    {
      "midi": 71,
      "hit": false,
      "t": 160133.1173749999,
      "d": 189.60637500000303,
      "v": 111
    },
    {
      "midi": 75,
      "hit": false,
      "t": 160133.1173749999,
      "d": 203.65129166666884,
      "v": 111
    },
    {
      "midi": 68,
      "hit": false,
      "t": 160133.1173749999,
      "d": 231.74112500000047,
      "v": 103
    },
    {
      "midi": 54,
      "hit": false,
      "t": 160470.19537499992,
      "d": 421.3475000000035,
      "v": 103
    },
    {
      "midi": 42,
      "hit": false,
      "t": 160470.19537499992,
      "d": 519.6619166667224,
      "v": 107
    },
    {
      "midi": 66,
      "hit": false,
      "t": 160807.27337499993,
      "d": 119.38179166667396,
      "v": 99
    },
    {
      "midi": 69,
      "hit": false,
      "t": 160807.27337499993,
      "d": 126.40425000002142,
      "v": 95
    },
    {
      "midi": 61,
      "hit": false,
      "t": 160807.27337499993,
      "d": 133.42670833336888,
      "v": 91
    },
    {
      "midi": 61,
      "hit": false,
      "t": 161481.42937499998,
      "d": 91.29195833334234,
      "v": 99
    },
    {
      "midi": 66,
      "hit": false,
      "t": 161481.42937499998,
      "d": 98.3144166666898,
      "v": 103
    },
    {
      "midi": 69,
      "hit": false,
      "t": 161481.42937499998,
      "d": 119.38179166670307,
      "v": 95
    },
    {
      "midi": 54,
      "hit": false,
      "t": 161818.50737500002,
      "d": 688.2009166667121,
      "v": 115
    },
    {
      "midi": 66,
      "hit": false,
      "t": 162155.58537500002,
      "d": 147.4716250000056,
      "v": 103
    },
    {
      "midi": 69,
      "hit": false,
      "t": 162155.58537500002,
      "d": 154.49408333335305,
      "v": 99
    },
    {
      "midi": 61,
      "hit": false,
      "t": 162155.58537500002,
      "d": 161.5165416667005,
      "v": 107
    },
    {
      "midi": 50,
      "hit": false,
      "t": 162492.66337500006,
      "d": 554.7742083333433,
      "v": 115
    },
    {
      "midi": 66,
      "hit": false,
      "t": 162829.74137500007,
      "d": 182.58391666665557,
      "v": 99
    },
    {
      "midi": 69,
      "hit": false,
      "t": 162829.74137500007,
      "d": 189.60637500000303,
      "v": 95
    },
    {
      "midi": 61,
      "hit": false,
      "t": 162829.74137500007,
      "d": 203.65129166666884,
      "v": 87
    },
    {
      "midi": 76,
      "hit": false,
      "t": 163145.75199999957,
      "d": 1172.7505416666972,
      "v": 57
    },
    {
      "midi": 68,
      "hit": false,
      "t": 163166.81937500008,
      "d": 990.1666250000126,
      "v": 91
    },
    {
      "midi": 59,
      "hit": false,
      "t": 163166.81937500008,
      "d": 1018.2564583333733,
      "v": 87
    },
    {
      "midi": 40,
      "hit": false,
      "t": 163166.81937500008,
      "d": 1081.458583333384,
      "v": 91
    },
    {
      "midi": 64,
      "hit": false,
      "t": 163166.81937500008,
      "d": 1285.1098750000529,
      "v": 79
    },
    {
      "midi": 80,
      "hit": false,
      "t": 163482.82999999958,
      "d": 358.1453750000219,
      "v": 63
    },
    {
      "midi": 47,
      "hit": false,
      "t": 163503.8973750001,
      "d": 351.1229166666744,
      "v": 63
    },
    {
      "midi": 83,
      "hit": false,
      "t": 163819.9079999996,
      "d": 737.3581250000279,
      "v": 67
    },
    {
      "midi": 52,
      "hit": false,
      "t": 163840.9753750001,
      "d": 344.1004583333561,
      "v": 95
    },
    {
      "midi": 88,
      "hit": false,
      "t": 164156.9859999996,
      "d": 252.80850000001374,
      "v": 75
    },
    {
      "midi": 47,
      "hit": false,
      "t": 164178.0533750001,
      "d": 372.1902916667168,
      "v": 91
    },
    {
      "midi": 75,
      "hit": false,
      "t": 164494.0639999996,
      "d": 1235.9526666666789,
      "v": 65
    },
    {
      "midi": 59,
      "hit": false,
      "t": 164515.13137500014,
      "d": 758.4255000000412,
      "v": 87
    },
    {
      "midi": 63,
      "hit": false,
      "t": 164515.13137500014,
      "d": 870.7848333333677,
      "v": 75
    },
    {
      "midi": 66,
      "hit": false,
      "t": 164515.13137500014,
      "d": 870.7848333333677,
      "v": 99
    },
    {
      "midi": 39,
      "hit": false,
      "t": 164515.13137500014,
      "d": 1004.2115416667075,
      "v": 95
    },
    {
      "midi": 78,
      "hit": false,
      "t": 164831.1419999996,
      "d": 379.21275000000605,
      "v": 58
    },
    {
      "midi": 47,
      "hit": false,
      "t": 164852.20937500015,
      "d": 386.2352083333535,
      "v": 79
    },
    {
      "midi": 83,
      "hit": false,
      "t": 165168.21999999962,
      "d": 379.21275000000605,
      "v": 55
    },
    {
      "midi": 51,
      "hit": false,
      "t": 165189.28737500016,
      "d": 301.96570833335863,
      "v": 95
    },
    {
      "midi": 87,
      "hit": false,
      "t": 165505.29799999963,
      "d": 379.21274999997695,
      "v": 75
    },
    {
      "midi": 47,
      "hit": false,
      "t": 165526.3653750002,
      "d": 203.65129166666884,
      "v": 67
    },
    {
      "midi": 73,
      "hit": false,
      "t": 165842.3759999996,
      "d": 1706.4573750000563,
      "v": 65
    },
    {
      "midi": 64,
      "hit": false,
      "t": 165863.4433750002,
      "d": 358.1453750000219,
      "v": 75
    },
    {
      "midi": 37,
      "hit": false,
      "t": 165863.4433750002,
      "d": 1137.6382500000764,
      "v": 79
    },
    {
      "midi": 76,
      "hit": false,
      "t": 166179.45399999962,
      "d": 351.1229166666744,
      "v": 59
    },
    {
      "midi": 44,
      "hit": false,
      "t": 166200.52137500021,
      "d": 301.96570833335863,
      "v": 63
    },
    {
      "midi": 61,
      "hit": false,
      "t": 166200.52137500021,
      "d": 948.0318750000733,
      "v": 75
    },
    {
      "midi": 80,
      "hit": false,
      "t": 166516.53199999963,
      "d": 365.16783333334024,
      "v": 63
    },
    {
      "midi": 64,
      "hit": false,
      "t": 166537.59937500025,
      "d": 365.16783333334024,
      "v": 87
    },
    {
      "midi": 49,
      "hit": false,
      "t": 166537.59937500025,
      "d": 414.32504166668514,
      "v": 83
    },
    {
      "midi": 85,
      "hit": false,
      "t": 166853.60999999964,
      "d": 386.2352083333535,
      "v": 71
    },
    {
      "midi": 44,
      "hit": false,
      "t": 166874.67737500026,
      "d": 365.16783333336934,
      "v": 87
    },
    {
      "midi": 68,
      "hit": false,
      "t": 166874.67737500026,
      "d": 997.1890833333891,
      "v": 95
    },
    {
      "midi": 80,
      "hit": false,
      "t": 167190.68799999965,
      "d": 639.0437083333672,
      "v": 67
    },
    {
      "midi": 64,
      "hit": false,
      "t": 167211.7553750003,
      "d": 428.36995833335095,
      "v": 103
    },
    {
      "midi": 37,
      "hit": false,
      "t": 167211.7553750003,
      "d": 1011.2340000000258,
      "v": 99
    },
    {
      "midi": 76,
      "hit": false,
      "t": 167527.76599999965,
      "d": 456.4597916667117,
      "v": 58
    },
    {
      "midi": 44,
      "hit": false,
      "t": 167548.8333750003,
      "d": 470.5047083333484,
      "v": 87
    },
    {
      "midi": 61,
      "hit": false,
      "t": 167548.8333750003,
      "d": 814.6051666666754,
      "v": 95
    },
    {
      "midi": 73,
      "hit": false,
      "t": 167864.8439999997,
      "d": 351.1229166666744,
      "v": 59
    },
    {
      "midi": 49,
      "hit": false,
      "t": 167885.91137500032,
      "d": 365.16783333334024,
      "v": 95
    },
    {
      "midi": 64,
      "hit": false,
      "t": 167885.91137500032,
      "d": 365.16783333334024,
      "v": 99
    },
    {
      "midi": 76,
      "hit": false,
      "t": 168201.9219999997,
      "d": 351.1229166666744,
      "v": 55
    },
    {
      "midi": 44,
      "hit": false,
      "t": 168222.98937500032,
      "d": 112.3593333333265,
      "v": 91
    },
    {
      "midi": 68,
      "hit": false,
      "t": 168222.98937500032,
      "d": 337.0779999999795,
      "v": 99
    },
    {
      "midi": 78,
      "hit": false,
      "t": 168538.9999999997,
      "d": 1172.7505416666972,
      "v": 79
    },
    {
      "midi": 69,
      "hit": false,
      "t": 168560.0673750003,
      "d": 856.7399166666728,
      "v": 99
    },
    {
      "midi": 66,
      "hit": false,
      "t": 168560.0673750003,
      "d": 905.8971250000177,
      "v": 91
    },
    {
      "midi": 42,
      "hit": false,
      "t": 168560.0673750003,
      "d": 1053.3687500000233,
      "v": 95
    },
    {
      "midi": 61,
      "hit": false,
      "t": 168560.0673750003,
      "d": 1074.4361250000366,
      "v": 87
    },
    {
      "midi": 81,
      "hit": false,
      "t": 168876.07799999972,
      "d": 344.1004583333561,
      "v": 51
    },
    {
      "midi": 49,
      "hit": false,
      "t": 168897.1453750003,
      "d": 308.988166666677,
      "v": 79
    },
    {
      "midi": 85,
      "hit": false,
      "t": 169213.15599999973,
      "d": 393.25766666667187,
      "v": 67
    },
    {
      "midi": 54,
      "hit": false,
      "t": 169234.22337500032,
      "d": 294.9432500000112,
      "v": 103
    },
    {
      "midi": 90,
      "hit": false,
      "t": 169550.23399999973,
      "d": 301.96570833332953,
      "v": 75
    },
    {
      "midi": 49,
      "hit": false,
      "t": 169571.30137500033,
      "d": 161.5165416666714,
      "v": 79
    },
    {
      "midi": 76,
      "hit": false,
      "t": 169887.31199999974,
      "d": 1109.5484166666865,
      "v": 58
    },
    {
      "midi": 68,
      "hit": false,
      "t": 169908.37937500034,
      "d": 807.582708333357,
      "v": 95
    },
    {
      "midi": 59,
      "hit": false,
      "t": 169908.37937500034,
      "d": 814.6051666667045,
      "v": 91
    },
    {
      "midi": 64,
      "hit": false,
      "t": 169908.37937500034,
      "d": 814.6051666667045,
      "v": 95
    },
    {
      "midi": 40,
      "hit": false,
      "t": 169908.37937500034,
      "d": 1018.2564583334024,
      "v": 99
    },
    {
      "midi": 81,
      "hit": false,
      "t": 170224.38999999975,
      "d": 407.3025833333377,
      "v": 64
    },
    {
      "midi": 47,
      "hit": false,
      "t": 170245.45737500035,
      "d": 330.05554166666116,
      "v": 83
    },
    {
      "midi": 85,
      "hit": false,
      "t": 170561.46799999976,
      "d": 695.2233750000014,
      "v": 67
    },
    {
      "midi": 52,
      "hit": false,
      "t": 170582.53537500036,
      "d": 316.01062500002445,
      "v": 79
    },
    {
      "midi": 88,
      "hit": false,
      "t": 170898.54599999977,
      "d": 344.10045833332697,
      "v": 75
    },
    {
      "midi": 47,
      "hit": false,
      "t": 170919.6133750004,
      "d": 372.1902916666877,
      "v": 79
    },
    {
      "midi": 75,
      "hit": false,
      "t": 171235.62399999975,
      "d": 1720.5022916667222,
      "v": 53
    },
    {
      "midi": 59,
      "hit": false,
      "t": 171256.6913750004,
      "d": 596.9089583333407,
      "v": 91
    },
    {
      "midi": 63,
      "hit": false,
      "t": 171256.6913750004,
      "d": 1081.458583333384,
      "v": 91
    },
    {
      "midi": 66,
      "hit": false,
      "t": 171256.6913750004,
      "d": 1404.4916666667268,
      "v": 103
    },
    {
      "midi": 39,
      "hit": false,
      "t": 171256.6913750004,
      "d": 2373.5909166667843,
      "v": 83
    },
    {
      "midi": 78,
      "hit": false,
      "t": 171572.70199999976,
      "d": 344.1004583333561,
      "v": 59
    },
    {
      "midi": 47,
      "hit": false,
      "t": 171593.7693750004,
      "d": 372.1902916666877,
      "v": 83
    },
    {
      "midi": 83,
      "hit": false,
      "t": 171909.77999999977,
      "d": 379.21275000000605,
      "v": 67
    },
    {
      "midi": 51,
      "hit": false,
      "t": 171930.84737500042,
      "d": 372.1902916666877,
      "v": 99
    },
    {
      "midi": 87,
      "hit": false,
      "t": 172246.85799999977,
      "d": 386.2352083333535,
      "v": 79
    },
    {
      "midi": 47,
      "hit": false,
      "t": 172267.92537500043,
      "d": 365.16783333336934,
      "v": 75
    },
    {
      "midi": 59,
      "hit": false,
      "t": 172267.92537500043,
      "d": 1516.8510000000824,
      "v": 87
    },
    {
      "midi": 83,
      "hit": false,
      "t": 172583.93599999978,
      "d": 1278.0874166666763,
      "v": 63
    },
    {
      "midi": 51,
      "hit": false,
      "t": 172605.00337500047,
      "d": 386.2352083333535,
      "v": 91
    },
    {
      "midi": 63,
      "hit": false,
      "t": 172605.00337500047,
      "d": 702.245833333378,
      "v": 103
    },
    {
      "midi": 78,
      "hit": false,
      "t": 172921.0139999998,
      "d": 386.2352083333535,
      "v": 59
    },
    {
      "midi": 47,
      "hit": false,
      "t": 172942.08137500047,
      "d": 344.1004583333561,
      "v": 87
    },
    {
      "midi": 71,
      "hit": false,
      "t": 172942.08137500047,
      "d": 484.5496250000433,
      "v": 107
    },
    {
      "midi": 75,
      "hit": false,
      "t": 173258.0919999998,
      "d": 617.9763333333249,
      "v": 49
    },
    {
      "midi": 51,
      "hit": false,
      "t": 173279.15937500048,
      "d": 308.9881666667061,
      "v": 91
    },
    {
      "midi": 66,
      "hit": false,
      "t": 173279.15937500048,
      "d": 589.8865000000515,
      "v": 107
    },
    {
      "midi": 78,
      "hit": false,
      "t": 173595.1699999998,
      "d": 196.62883333332138,
      "v": 51
    },
    {
      "midi": 63,
      "hit": false,
      "t": 173616.23737500052,
      "d": 217.69620833333465,
      "v": 79
    },
    {
      "midi": 47,
      "hit": false,
      "t": 173616.23737500052,
      "d": 421.3475000000035,
      "v": 71
    },
    {
      "midi": 76,
      "hit": false,
      "t": 173932.2479999998,
      "d": 1144.6607083333656,
      "v": 53
    },
    {
      "midi": 59,
      "hit": false,
      "t": 173953.31537500053,
      "d": 1025.2789166666917,
      "v": 83
    },
    {
      "midi": 64,
      "hit": false,
      "t": 173953.31537500053,
      "d": 1025.2789166666917,
      "v": 91
    },
    {
      "midi": 40,
      "hit": false,
      "t": 173953.31537500053,
      "d": 1088.4810416667024,
      "v": 99
    },
    {
      "midi": 68,
      "hit": false,
      "t": 173953.31537500053,
      "d": 1285.1098750000237,
      "v": 87
    },
    {
      "midi": 80,
      "hit": false,
      "t": 174269.3259999998,
      "d": 323.0330833333428,
      "v": 63
    },
    {
      "midi": 47,
      "hit": false,
      "t": 174290.39337500054,
      "d": 323.0330833333428,
      "v": 91
    },
    {
      "midi": 83,
      "hit": false,
      "t": 174606.4039999998,
      "d": 386.2352083333535,
      "v": 63
    },
    {
      "midi": 52,
      "hit": false,
      "t": 174627.47137500055,
      "d": 393.25766666667187,
      "v": 95
    },
    {
      "midi": 88,
      "hit": false,
      "t": 174943.4819999998,
      "d": 316.01062499999534,
      "v": 79
    },
    {
      "midi": 47,
      "hit": false,
      "t": 174964.54937500056,
      "d": 386.2352083333535,
      "v": 91
    },
    {
      "midi": 75,
      "hit": false,
      "t": 175280.55999999982,
      "d": 1214.8852916666947,
      "v": 49
    },
    {
      "midi": 59,
      "hit": false,
      "t": 175301.62737500056,
      "d": 758.4255000000121,
      "v": 87
    },
    {
      "midi": 63,
      "hit": false,
      "t": 175301.62737500056,
      "d": 856.7399166666728,
      "v": 87
    },
    {
      "midi": 39,
      "hit": false,
      "t": 175301.62737500056,
      "d": 1046.3462916666758,
      "v": 95
    },
    {
      "midi": 66,
      "hit": false,
      "t": 175301.62737500056,
      "d": 1292.132333333342,
      "v": 95
    },
    {
      "midi": 80,
      "hit": false,
      "t": 175617.63799999983,
      "d": 351.1229166666744,
      "v": 55
    },
    {
      "midi": 47,
      "hit": false,
      "t": 175638.70537500057,
      "d": 379.21275000000605,
      "v": 79
    },
    {
      "midi": 83,
      "hit": false,
      "t": 175954.71599999984,
      "d": 393.25766666667187,
      "v": 59
    },
    {
      "midi": 51,
      "hit": false,
      "t": 175975.78337500058,
      "d": 294.9432499999821,
      "v": 95
    },
    {
      "midi": 87,
      "hit": false,
      "t": 176291.79399999985,
      "d": 421.3475000000035,
      "v": 75
    },
    {
      "midi": 47,
      "hit": false,
      "t": 176312.86137500056,
      "d": 182.58391666668467,
      "v": 67
    },
    {
      "midi": 73,
      "hit": false,
      "t": 176628.87199999986,
      "d": 1144.6607083333656,
      "v": 61
    },
    {
      "midi": 61,
      "hit": false,
      "t": 176649.93937500057,
      "d": 863.7623750000203,
      "v": 83
    },
    {
      "midi": 64,
      "hit": false,
      "t": 176649.93937500057,
      "d": 990.1666250000417,
      "v": 95
    },
    {
      "midi": 37,
      "hit": false,
      "t": 176649.93937500057,
      "d": 1088.4810416667315,
      "v": 91
    },
    {
      "midi": 56,
      "hit": false,
      "t": 176649.93937500057,
      "d": 1214.8852916667238,
      "v": 83
    },
    {
      "midi": 80,
      "hit": false,
      "t": 176965.94999999987,
      "d": 323.0330833333428,
      "v": 47
    },
    {
      "midi": 44,
      "hit": false,
      "t": 176987.01737500058,
      "d": 294.9432500000112,
      "v": 63
    },
    {
      "midi": 85,
      "hit": false,
      "t": 177303.02799999987,
      "d": 519.6619166666933,
      "v": 83
    },
    {
      "midi": 49,
      "hit": false,
      "t": 177324.0953750006,
      "d": 294.9432500000112,
      "v": 95
    },
    {
      "midi": 80,
      "hit": false,
      "t": 177640.10599999988,
      "d": 477.52716666666674,
      "v": 59
    },
    {
      "midi": 44,
      "hit": false,
      "t": 177661.17337500062,
      "d": 351.1229166666744,
      "v": 75
    },
    {
      "midi": 71,
      "hit": false,
      "t": 177977.1839999999,
      "d": 1327.244624999992,
      "v": 53
    },
    {
      "midi": 59,
      "hit": false,
      "t": 177998.25137500063,
      "d": 386.2352083333535,
      "v": 75
    },
    {
      "midi": 64,
      "hit": false,
      "t": 177998.25137500063,
      "d": 765.4479583333596,
      "v": 99
    },
    {
      "midi": 47,
      "hit": false,
      "t": 177998.25137500063,
      "d": 1257.0200416667212,
      "v": 103
    },
    {
      "midi": 80,
      "hit": false,
      "t": 178314.26199999987,
      "d": 400.2801250000193,
      "v": 59
    },
    {
      "midi": 56,
      "hit": false,
      "t": 178335.32937500064,
      "d": 400.2801250000193,
      "v": 99
    },
    {
      "midi": 83,
      "hit": false,
      "t": 178651.33999999988,
      "d": 435.3924166666693,
      "v": 71
    },
    {
      "midi": 59,
      "hit": false,
      "t": 178672.40737500065,
      "d": 358.1453750000219,
      "v": 83
    },
    {
      "midi": 80,
      "hit": false,
      "t": 178988.4179999999,
      "d": 259.8309583333321,
      "v": 55
    },
    {
      "midi": 64,
      "hit": false,
      "t": 179009.48537500066,
      "d": 70.22458333335817,
      "v": 95
    },
    {
      "midi": 81,
      "hit": false,
      "t": 179325.4959999999,
      "d": 1144.6607083333656,
      "v": 49
    },
    {
      "midi": 69,
      "hit": false,
      "t": 179346.5633750007,
      "d": 737.3581250000279,
      "v": 115
    },
    {
      "midi": 45,
      "hit": false,
      "t": 179346.5633750007,
      "d": 1046.346291666705,
      "v": 107
    },
    {
      "midi": 85,
      "hit": false,
      "t": 179662.5739999999,
      "d": 323.0330833333428,
      "v": 55
    },
    {
      "midi": 52,
      "hit": false,
      "t": 179683.6413750007,
      "d": 308.988166666677,
      "v": 95
    },
    {
      "midi": 61,
      "hit": false,
      "t": 179683.6413750007,
      "d": 688.200916666683,
      "v": 95
    },
    {
      "midi": 90,
      "hit": false,
      "t": 179999.6519999999,
      "d": 330.05554166666116,
      "v": 75
    },
    {
      "midi": 57,
      "hit": false,
      "t": 180020.7193750007,
      "d": 351.1229166666744,
      "v": 99
    },
    {
      "midi": 64,
      "hit": false,
      "t": 180020.7193750007,
      "d": 674.1560000000172,
      "v": 103
    },
    {
      "midi": 93,
      "hit": false,
      "t": 180336.72999999992,
      "d": 351.1229166666744,
      "v": 79
    },
    {
      "midi": 69,
      "hit": false,
      "t": 180357.79737500072,
      "d": 351.1229166666744,
      "v": 99
    },
    {
      "midi": 52,
      "hit": false,
      "t": 180357.79737500072,
      "d": 386.2352083333535,
      "v": 95
    },
    {
      "midi": 80,
      "hit": false,
      "t": 180673.80799999993,
      "d": 1179.7730000000156,
      "v": 61
    },
    {
      "midi": 68,
      "hit": false,
      "t": 180694.87537500073,
      "d": 744.3805833333754,
      "v": 99
    },
    {
      "midi": 44,
      "hit": false,
      "t": 180694.87537500073,
      "d": 1046.346291666734,
      "v": 95
    },
    {
      "midi": 85,
      "hit": false,
      "t": 181010.88599999994,
      "d": 323.0330833333428,
      "v": 55
    },
    {
      "midi": 52,
      "hit": false,
      "t": 181031.95337500077,
      "d": 330.05554166666116,
      "v": 79
    },
    {
      "midi": 59,
      "hit": false,
      "t": 181031.95337500077,
      "d": 828.6500833333703,
      "v": 71
    },
    {
      "midi": 90,
      "hit": false,
      "t": 181347.96399999995,
      "d": 337.0780000000086,
      "v": 63
    },
    {
      "midi": 56,
      "hit": false,
      "t": 181369.03137500078,
      "d": 323.0330833333428,
      "v": 99
    },
    {
      "midi": 64,
      "hit": false,
      "t": 181369.03137500078,
      "d": 491.57208333336166,
      "v": 91
    },
    {
      "midi": 92,
      "hit": false,
      "t": 181685.04199999996,
      "d": 421.3474999999744,
      "v": 63
    },
    {
      "midi": 52,
      "hit": false,
      "t": 181706.1093750008,
      "d": 217.69620833336376,
      "v": 91
    },
    {
      "midi": 68,
      "hit": false,
      "t": 181706.1093750008,
      "d": 337.0780000000377,
      "v": 87
    },
    {
      "midi": 78,
      "hit": false,
      "t": 182022.11999999994,
      "d": 1172.7505416666972,
      "v": 61
    },
    {
      "midi": 66,
      "hit": false,
      "t": 182043.18737500082,
      "d": 737.3581250000279,
      "v": 107
    },
    {
      "midi": 42,
      "hit": false,
      "t": 182043.18737500082,
      "d": 1186.795458333363,
      "v": 91
    },
    {
      "midi": 85,
      "hit": false,
      "t": 182359.19799999995,
      "d": 316.01062499999534,
      "v": 47
    },
    {
      "midi": 49,
      "hit": false,
      "t": 182380.26537500083,
      "d": 294.9432500000112,
      "v": 75
    },
    {
      "midi": 57,
      "hit": false,
      "t": 182380.26537500083,
      "d": 1053.3687500000233,
      "v": 83
    },
    {
      "midi": 90,
      "hit": false,
      "t": 182696.27599999995,
      "d": 421.3475000000035,
      "v": 83
    },
    {
      "midi": 54,
      "hit": false,
      "t": 182717.34337500084,
      "d": 358.1453750000219,
      "v": 91
    },
    {
      "midi": 61,
      "hit": false,
      "t": 182717.34337500084,
      "d": 653.088625000004,
      "v": 95
    },
    {
      "midi": 85,
      "hit": false,
      "t": 183033.35399999996,
      "d": 421.3475000000035,
      "v": 59
    },
    {
      "midi": 49,
      "hit": false,
      "t": 183054.42137500085,
      "d": 217.69620833333465,
      "v": 83
    },
    {
      "midi": 66,
      "hit": false,
      "t": 183054.42137500085,
      "d": 273.8758749999979,
      "v": 87
    },
    {
      "midi": 76,
      "hit": false,
      "t": 183370.43199999997,
      "d": 1341.289541666687,
      "v": 49
    },
    {
      "midi": 64,
      "hit": false,
      "t": 183391.49937500086,
      "d": 772.4704166666779,
      "v": 103
    },
    {
      "midi": 40,
      "hit": false,
      "t": 183391.49937500086,
      "d": 1116.570875000034,
      "v": 99
    },
    {
      "midi": 88,
      "hit": false,
      "t": 183707.50999999998,
      "d": 379.21275000000605,
      "v": 87
    },
    {
      "midi": 47,
      "hit": false,
      "t": 183728.57737500087,
      "d": 308.988166666677,
      "v": 79
    },
    {
      "midi": 57,
      "hit": false,
      "t": 183728.57737500087,
      "d": 744.3805833333172,
      "v": 71
    },
    {
      "midi": 85,
      "hit": false,
      "t": 184044.588,
      "d": 351.1229166666744,
      "v": 75
    },
    {
      "midi": 52,
      "hit": false,
      "t": 184065.65537500088,
      "d": 294.9432499999821,
      "v": 91
    },
    {
      "midi": 61,
      "hit": false,
      "t": 184065.65537500088,
      "d": 414.32504166665603,
      "v": 95
    },
    {
      "midi": 81,
      "hit": false,
      "t": 184381.666,
      "d": 287.9207916666637,
      "v": 39
    },
    {
      "midi": 64,
      "hit": false,
      "t": 184402.73337500085,
      "d": 84.26950000002398,
      "v": 87
    },
    {
      "midi": 47,
      "hit": false,
      "t": 184402.73337500085,
      "d": 140.44916666671634,
      "v": 91
    },
    {
      "midi": 47,
      "hit": false,
      "t": 184718.744,
      "d": 400.2801250000193,
      "v": 105
    },
    {
      "midi": 35,
      "hit": false,
      "t": 184739.8113750009,
      "d": 1207.8628333333472,
      "v": 95
    },
    {
      "midi": 63,
      "hit": false,
      "t": 184739.8113750009,
      "d": 5245.776375000016,
      "v": 87
    },
    {
      "midi": 59,
      "hit": false,
      "t": 184739.8113750009,
      "d": 5259.821291666682,
      "v": 79
    },
    {
      "midi": 54,
      "hit": false,
      "t": 184739.8113750009,
      "d": 5287.911125000013,
      "v": 91
    },
    {
      "midi": 49,
      "hit": false,
      "t": 185055.82200000001,
      "d": 344.1004583333561,
      "v": 97
    },
    {
      "midi": 42,
      "hit": false,
      "t": 185076.8893750009,
      "d": 351.1229166666744,
      "v": 63
    },
    {
      "midi": 51,
      "hit": false,
      "t": 185392.90000000002,
      "d": 323.0330833333428,
      "v": 101
    },
    {
      "midi": 47,
      "hit": false,
      "t": 185413.9673750009,
      "d": 1039.3238333332993,
      "v": 75
    },
    {
      "midi": 52,
      "hit": false,
      "t": 185729.97800000003,
      "d": 393.25766666667187,
      "v": 93
    },
    {
      "midi": 42,
      "hit": false,
      "t": 185751.04537500092,
      "d": 435.3924166666402,
      "v": 87
    },
    {
      "midi": 54,
      "hit": false,
      "t": 186067.05600000004,
      "d": 372.1902916666877,
      "v": 105
    },
    {
      "midi": 35,
      "hit": false,
      "t": 186088.1233750009,
      "d": 1200.8403749999998,
      "v": 87
    },
    {
      "midi": 56,
      "hit": false,
      "t": 186404.13400000005,
      "d": 351.1229166666744,
      "v": 105
    },
    {
      "midi": 42,
      "hit": false,
      "t": 186425.20137500088,
      "d": 344.1004583333561,
      "v": 87
    },
    {
      "midi": 57,
      "hit": false,
      "t": 186741.21200000006,
      "d": 407.3025833333377,
      "v": 93
    },
    {
      "midi": 47,
      "hit": false,
      "t": 186762.2793750009,
      "d": 800.5602500000386,
      "v": 87
    },
    {
      "midi": 59,
      "hit": false,
      "t": 187078.29000000007,
      "d": 386.2352083333535,
      "v": 97
    },
    {
      "midi": 42,
      "hit": false,
      "t": 187099.3573750009,
      "d": 456.4597916666826,
      "v": 91
    },
    {
      "midi": 61,
      "hit": false,
      "t": 187415.36800000007,
      "d": 358.1453750000219,
      "v": 105
    },
    {
      "midi": 35,
      "hit": false,
      "t": 187436.4353750009,
      "d": 1123.5933333333523,
      "v": 87
    },
    {
      "midi": 63,
      "hit": false,
      "t": 187752.44600000008,
      "d": 337.0780000000086,
      "v": 105
    },
    {
      "midi": 42,
      "hit": false,
      "t": 187773.5133750009,
      "d": 379.21275000000605,
      "v": 95
    },
    {
      "midi": 64,
      "hit": false,
      "t": 188089.5240000001,
      "d": 400.2801250000193,
      "v": 113
    },
    {
      "midi": 47,
      "hit": false,
      "t": 188110.59137500092,
      "d": 681.1784583333356,
      "v": 99
    },
    {
      "midi": 66,
      "hit": false,
      "t": 188426.6020000001,
      "d": 316.01062500002445,
      "v": 113
    },
    {
      "midi": 42,
      "hit": false,
      "t": 188447.66937500093,
      "d": 414.32504166665603,
      "v": 79
    },
    {
      "midi": 68,
      "hit": false,
      "t": 188763.68000000014,
      "d": 119.38179166667396,
      "v": 105
    },
    {
      "midi": 35,
      "hit": false,
      "t": 188784.7473750009,
      "d": 814.6051666666754,
      "v": 99
    },
    {
      "midi": 69,
      "hit": false,
      "t": 188932.21900000016,
      "d": 189.60637500000303,
      "v": 105
    },
    {
      "midi": 71,
      "hit": false,
      "t": 189100.75800000015,
      "d": 182.58391666668467,
      "v": 97
    },
    {
      "midi": 42,
      "hit": false,
      "t": 189121.82537500092,
      "d": 365.16783333334024,
      "v": 91
    },
    {
      "midi": 73,
      "hit": false,
      "t": 189269.29700000017,
      "d": 189.60637500000303,
      "v": 93
    },
    {
      "midi": 75,
      "hit": false,
      "t": 189437.83600000016,
      "d": 105.33687500000815,
      "v": 97
    },
    {
      "midi": 47,
      "hit": false,
      "t": 189458.90337500093,
      "d": 407.3025833333086,
      "v": 99
    },
    {
      "midi": 76,
      "hit": false,
      "t": 189606.37500000017,
      "d": 203.65129166666884,
      "v": 89
    },
    {
      "midi": 78,
      "hit": false,
      "t": 189774.91400000016,
      "d": 168.53900000001886,
      "v": 93
    },
    {
      "midi": 35,
      "hit": false,
      "t": 189795.9813750009,
      "d": 280.89833333334536,
      "v": 91
    },
    {
      "midi": 80,
      "hit": false,
      "t": 189943.45300000018,
      "d": 119.38179166667396,
      "v": 109
    },
    {
      "midi": 68,
      "hit": false,
      "t": 190133.0593750009,
      "d": 1839.884083333338,
      "v": 99
    },
    {
      "midi": 73,
      "hit": false,
      "t": 190133.0593750009,
      "d": 1867.9739166666695,
      "v": 111
    },
    {
      "midi": 49,
      "hit": false,
      "t": 190133.0593750009,
      "d": 1882.0188333333354,
      "v": 115
    },
    {
      "midi": 64,
      "hit": false,
      "t": 190133.0593750009,
      "d": 1882.0188333333354,
      "v": 111
    },
    {
      "midi": 61,
      "hit": false,
      "t": 190133.0593750009,
      "d": 2064.602749999991,
      "v": 107
    },
    {
      "midi": 37,
      "hit": false,
      "t": 190133.0593750009,
      "d": 2338.478624999989,
      "v": 107
    },
    {
      "midi": 69,
      "hit": false,
      "t": 192850.7507500009,
      "d": 547.7517499999958,
      "v": 111
    },
    {
      "midi": 64,
      "hit": false,
      "t": 192850.7507500009,
      "d": 575.8415833333274,
      "v": 111
    },
    {
      "midi": 61,
      "hit": false,
      "t": 192850.7507500009,
      "d": 589.8864999999932,
      "v": 99
    },
    {
      "midi": 45,
      "hit": false,
      "t": 192850.7507500009,
      "d": 660.1110833333223,
      "v": 111
    },
    {
      "midi": 57,
      "hit": false,
      "t": 192850.7507500009,
      "d": 681.1784583333356,
      "v": 103
    },
    {
      "midi": 33,
      "hit": false,
      "t": 192850.7507500009,
      "d": 737.3581249999988,
      "v": 95
    },
    {
      "midi": 54,
      "hit": false,
      "t": 194163.95045833424,
      "d": 674.1560000000754,
      "v": 91
    },
    {
      "midi": 42,
      "hit": false,
      "t": 194163.95045833424,
      "d": 842.6950000000943,
      "v": 107
    },
    {
      "midi": 57,
      "hit": false,
      "t": 194170.97291666758,
      "d": 554.7742083333724,
      "v": 91
    },
    {
      "midi": 66,
      "hit": false,
      "t": 194170.97291666758,
      "d": 575.8415833333856,
      "v": 99
    },
    {
      "midi": 30,
      "hit": false,
      "t": 194170.97291666758,
      "d": 702.2458333334071,
      "v": 107
    },
    {
      "midi": 61,
      "hit": false,
      "t": 194177.99537500093,
      "d": 632.0212500000489,
      "v": 87
    },
    {
      "midi": 32,
      "hit": false,
      "t": 195505.240000001,
      "d": 393.25766666670097,
      "v": 95
    },
    {
      "midi": 44,
      "hit": false,
      "t": 195505.240000001,
      "d": 428.36995833338005,
      "v": 95
    },
    {
      "midi": 56,
      "hit": false,
      "t": 195512.26245833436,
      "d": 386.2352083333535,
      "v": 103
    },
    {
      "midi": 59,
      "hit": false,
      "t": 195519.2849166677,
      "d": 323.0330833333137,
      "v": 91
    },
    {
      "midi": 63,
      "hit": false,
      "t": 195519.2849166677,
      "d": 344.10045833332697,
      "v": 91
    },
    {
      "midi": 68,
      "hit": false,
      "t": 195519.2849166677,
      "d": 379.21275000000605,
      "v": 95
    },
    {
      "midi": 59,
      "hit": false,
      "t": 196221.53075000105,
      "d": 372.1902916666586,
      "v": 107
    },
    {
      "midi": 35,
      "hit": false,
      "t": 196221.53075000105,
      "d": 393.25766666667187,
      "v": 107
    },
    {
      "midi": 47,
      "hit": false,
      "t": 196221.53075000105,
      "d": 463.48225000005914,
      "v": 99
    },
    {
      "midi": 71,
      "hit": false,
      "t": 196228.5532083344,
      "d": 372.1902916666586,
      "v": 119
    },
    {
      "midi": 63,
      "hit": false,
      "t": 196228.5532083344,
      "d": 386.2352083333244,
      "v": 107
    },
    {
      "midi": 66,
      "hit": false,
      "t": 196228.5532083344,
      "d": 393.25766666667187,
      "v": 111
    },
    {
      "midi": 37,
      "hit": false,
      "t": 196649.90070833443,
      "d": 779.4928750000254,
      "v": 83
    },
    {
      "midi": 49,
      "hit": false,
      "t": 196727.1477500011,
      "d": 786.5153333333437,
      "v": 67
    },
    {
      "midi": 61,
      "hit": false,
      "t": 196797.37233333444,
      "d": 323.0330833333428,
      "v": 83
    },
    {
      "midi": 64,
      "hit": false,
      "t": 196888.66429166778,
      "d": 259.8309583333321,
      "v": 91
    },
    {
      "midi": 68,
      "hit": false,
      "t": 196958.8888750011,
      "d": 224.7186666666821,
      "v": 75
    },
    {
      "midi": 73,
      "hit": false,
      "t": 197036.1359166678,
      "d": 189.60637500000303,
      "v": 87
    },
    {
      "midi": 76,
      "hit": false,
      "t": 197380.2363750011,
      "d": 632.0212499999907,
      "v": 79
    },
    {
      "midi": 80,
      "hit": false,
      "t": 197618.99995833446,
      "d": 238.76358333331882,
      "v": 71
    },
    {
      "midi": 85,
      "hit": false,
      "t": 197829.67370833445,
      "d": 351.1229166666744,
      "v": 103
    },
    {
      "midi": 80,
      "hit": false,
      "t": 198061.41483333445,
      "d": 196.62883333335049,
      "v": 55
    },
    {
      "midi": 76,
      "hit": false,
      "t": 198272.08858333447,
      "d": 84.26949999999488,
      "v": 43
    },
    {
      "midi": 73,
      "hit": false,
      "t": 198560.00937500113,
      "d": 365.16783333334024,
      "v": 17
    },
    {
      "midi": 68,
      "hit": false,
      "t": 198826.8627916678,
      "d": 294.9432499999821,
      "v": 75
    },
    {
      "midi": 64,
      "hit": false,
      "t": 199107.76112500113,
      "d": 119.38179166667396,
      "v": 67
    },
    {
      "midi": 61,
      "hit": false,
      "t": 199458.8840416678,
      "d": 582.8640416666749,
      "v": 71
    },
    {
      "midi": 56,
      "hit": false,
      "t": 199788.93958333446,
      "d": 1804.7717916666588,
      "v": 71
    },
    {
      "midi": 52,
      "hit": false,
      "t": 200182.19725000113,
      "d": 1130.6157916666416,
      "v": 55
    },
    {
      "midi": 49,
      "hit": false,
      "t": 200617.5896666678,
      "d": 1130.6157916666416,
      "v": 23
    },
    {
      "midi": 44,
      "hit": false,
      "t": 201074.04945833446,
      "d": 1362.3569166666712,
      "v": 39
    },
    {
      "midi": 61,
      "hit": false,
      "t": 201621.80120833445,
      "d": 800.5602500000095,
      "v": 75
    },
    {
      "midi": 64,
      "hit": false,
      "t": 202246.80000000112,
      "d": 442.41487500001676,
      "v": 63
    },
    {
      "midi": 37,
      "hit": false,
      "t": 203061.4051666678,
      "d": 554.7742083333433,
      "v": 39
    },
    {
      "midi": 61,
      "hit": false,
      "t": 203131.62975000113,
      "d": 484.5496250000142,
      "v": 51
    },
    {
      "midi": 49,
      "hit": false,
      "t": 203159.71958333446,
      "d": 456.4597916666826,
      "v": 55
    },
    {
      "midi": 64,
      "hit": false,
      "t": 203222.92170833447,
      "d": 393.25766666667187,
      "v": 27
    },
    {
      "midi": 73,
      "hit": false,
      "t": 203356.3484166678,
      "d": 259.8309583333321,
      "v": 59
    }
  ]
}