{
  "jsonPath": "Animes/Love Hina MIDI Collection/kimi-sae-ireba.json",
  "path": "Animes\\Love Hina MIDI Collection\\Kimi Sae Ireba.mid",
  "name": "Kimi Sae Ireba",
  "difficulty": "Advanced",
  "bpm": 113.00009605008164,
  "notes": [
    {
      "midi": 81,
      "hit": false,
      "t": 2123.892,
      "d": 238.9378500000007,
      "v": 100
    },
    {
      "midi": 76,
      "hit": false,
      "t": 2123.892,
      "d": 238.9378500000007,
      "v": 100
    },
    {
      "midi": 52,
      "hit": false,
      "t": 2123.892,
      "d": 477.8757000000005,
      "v": 93
    },
    {
      "midi": 45,
      "hit": false,
      "t": 2123.892,
      "d": 1911.502800000002,
      "v": 110
    },
    {
      "midi": 57,
      "hit": false,
      "t": 2146.015875,
      "d": 477.87570000000005,
      "v": 93
    },
    {
      "midi": 60,
      "hit": false,
      "t": 2168.1397500000003,
      "d": 477.8756999999996,
      "v": 93
    },
    {
      "midi": 64,
      "hit": false,
      "t": 2190.2636250000005,
      "d": 424.7783999999997,
      "v": 93
    },
    {
      "midi": 69,
      "hit": false,
      "t": 2212.3875000000007,
      "d": 424.77839999999924,
      "v": 93
    },
    {
      "midi": 81,
      "hit": false,
      "t": 2654.865,
      "d": 238.9378500000007,
      "v": 100
    },
    {
      "midi": 76,
      "hit": false,
      "t": 2654.865,
      "d": 238.9378500000007,
      "v": 100
    },
    {
      "midi": 57,
      "hit": false,
      "t": 2665.9269375,
      "d": 53.09730000000036,
      "v": 61
    },
    {
      "midi": 60,
      "hit": false,
      "t": 2676.988875,
      "d": 53.09730000000036,
      "v": 61
    },
    {
      "midi": 64,
      "hit": false,
      "t": 2688.0508125,
      "d": 53.09730000000036,
      "v": 61
    },
    {
      "midi": 69,
      "hit": false,
      "t": 2699.1127500000002,
      "d": 53.09730000000036,
      "v": 61
    },
    {
      "midi": 52,
      "hit": false,
      "t": 2699.1127500000002,
      "d": 53.09730000000036,
      "v": 61
    },
    {
      "midi": 52,
      "hit": false,
      "t": 3008.8470000000007,
      "d": 159.29190000000017,
      "v": 77
    },
    {
      "midi": 60,
      "hit": false,
      "t": 3008.8470000000007,
      "d": 159.29190000000017,
      "v": 77
    },
    {
      "midi": 69,
      "hit": false,
      "t": 3008.8470000000007,
      "d": 159.29190000000017,
      "v": 77
    },
    {
      "midi": 64,
      "hit": false,
      "t": 3008.8470000000007,
      "d": 159.29190000000017,
      "v": 77
    },
    {
      "midi": 57,
      "hit": false,
      "t": 3008.8470000000007,
      "d": 159.29190000000017,
      "v": 77
    },
    {
      "midi": 52,
      "hit": false,
      "t": 3185.8380000000006,
      "d": 53.09730000000036,
      "v": 70
    },
    {
      "midi": 81,
      "hit": false,
      "t": 3185.8380000000006,
      "d": 238.9378500000007,
      "v": 100
    },
    {
      "midi": 76,
      "hit": false,
      "t": 3185.8380000000006,
      "d": 238.9378500000007,
      "v": 100
    },
    {
      "midi": 57,
      "hit": false,
      "t": 3196.8999375000008,
      "d": 53.09730000000036,
      "v": 70
    },
    {
      "midi": 60,
      "hit": false,
      "t": 3207.961875000001,
      "d": 53.09730000000036,
      "v": 70
    },
    {
      "midi": 64,
      "hit": false,
      "t": 3219.023812500001,
      "d": 53.09730000000036,
      "v": 70
    },
    {
      "midi": 69,
      "hit": false,
      "t": 3230.085750000001,
      "d": 53.09730000000036,
      "v": 70
    },
    {
      "midi": 57,
      "hit": false,
      "t": 3362.8290000000015,
      "d": 176.99099999999999,
      "v": 77
    },
    {
      "midi": 52,
      "hit": false,
      "t": 3539.8200000000015,
      "d": 159.29190000000017,
      "v": 78
    },
    {
      "midi": 60,
      "hit": false,
      "t": 3539.8200000000015,
      "d": 159.29190000000017,
      "v": 78
    },
    {
      "midi": 69,
      "hit": false,
      "t": 3539.8200000000015,
      "d": 159.29190000000017,
      "v": 78
    },
    {
      "midi": 64,
      "hit": false,
      "t": 3539.8200000000015,
      "d": 159.29190000000017,
      "v": 78
    },
    {
      "midi": 57,
      "hit": false,
      "t": 3539.8200000000015,
      "d": 159.29190000000017,
      "v": 78
    },
    {
      "midi": 52,
      "hit": false,
      "t": 3716.8110000000015,
      "d": 53.097299999999905,
      "v": 70
    },
    {
      "midi": 81,
      "hit": false,
      "t": 3716.8110000000015,
      "d": 238.93785000000025,
      "v": 100
    },
    {
      "midi": 76,
      "hit": false,
      "t": 3716.8110000000015,
      "d": 238.93785000000025,
      "v": 100
    },
    {
      "midi": 67,
      "hit": false,
      "t": 3716.8110000000015,
      "d": 2442.4757999999865,
      "v": 85
    },
    {
      "midi": 57,
      "hit": false,
      "t": 3727.8729375000016,
      "d": 53.097299999999905,
      "v": 70
    },
    {
      "midi": 60,
      "hit": false,
      "t": 3738.9348750000017,
      "d": 53.097299999999905,
      "v": 70
    },
    {
      "midi": 64,
      "hit": false,
      "t": 3749.996812500002,
      "d": 53.097299999999905,
      "v": 70
    },
    {
      "midi": 69,
      "hit": false,
      "t": 3761.0587500000015,
      "d": 53.09730000000036,
      "v": 70
    },
    {
      "midi": 52,
      "hit": false,
      "t": 4070.793000000002,
      "d": 159.2918999999997,
      "v": 77
    },
    {
      "midi": 60,
      "hit": false,
      "t": 4070.793000000002,
      "d": 159.2918999999997,
      "v": 77
    },
    {
      "midi": 69,
      "hit": false,
      "t": 4070.793000000002,
      "d": 159.2918999999997,
      "v": 77
    },
    {
      "midi": 64,
      "hit": false,
      "t": 4070.793000000002,
      "d": 159.2918999999997,
      "v": 77
    },
    {
      "midi": 57,
      "hit": false,
      "t": 4070.793000000002,
      "d": 159.2918999999997,
      "v": 77
    },
    {
      "midi": 81,
      "hit": false,
      "t": 4247.7840000000015,
      "d": 238.93784999999934,
      "v": 100
    },
    {
      "midi": 76,
      "hit": false,
      "t": 4247.7840000000015,
      "d": 238.93784999999934,
      "v": 100
    },
    {
      "midi": 52,
      "hit": false,
      "t": 4247.7840000000015,
      "d": 477.8756999999987,
      "v": 65
    },
    {
      "midi": 45,
      "hit": false,
      "t": 4247.7840000000015,
      "d": 557.5216499999988,
      "v": 119
    },
    {
      "midi": 83,
      "hit": false,
      "t": 4247.7840000000015,
      "d": 4035.3947999999764,
      "v": 114
    },
    {
      "midi": 57,
      "hit": false,
      "t": 4269.907875000002,
      "d": 477.8756999999987,
      "v": 65
    },
    {
      "midi": 60,
      "hit": false,
      "t": 4292.031750000001,
      "d": 477.8756999999996,
      "v": 65
    },
    {
      "midi": 64,
      "hit": false,
      "t": 4314.155625000001,
      "d": 424.77839999999924,
      "v": 65
    },
    {
      "midi": 69,
      "hit": false,
      "t": 4336.2795000000015,
      "d": 424.77839999999924,
      "v": 65
    },
    {
      "midi": 79,
      "hit": false,
      "t": 4601.7660000000005,
      "d": 3681.4127999999773,
      "v": 101
    },
    {
      "midi": 81,
      "hit": false,
      "t": 4778.7570000000005,
      "d": 238.93784999999752,
      "v": 100
    },
    {
      "midi": 76,
      "hit": false,
      "t": 4778.7570000000005,
      "d": 238.93784999999752,
      "v": 100
    },
    {
      "midi": 57,
      "hit": false,
      "t": 4789.8189375,
      "d": 53.09729999999945,
      "v": 61
    },
    {
      "midi": 60,
      "hit": false,
      "t": 4800.880875,
      "d": 53.09729999999945,
      "v": 61
    },
    {
      "midi": 64,
      "hit": false,
      "t": 4811.9428125,
      "d": 53.09729999999854,
      "v": 61
    },
    {
      "midi": 69,
      "hit": false,
      "t": 4823.00475,
      "d": 53.09729999999854,
      "v": 61
    },
    {
      "midi": 52,
      "hit": false,
      "t": 4823.00475,
      "d": 53.09729999999854,
      "v": 61
    },
    {
      "midi": 43,
      "hit": false,
      "t": 5132.738999999998,
      "d": 159.29189999999926,
      "v": 116
    },
    {
      "midi": 52,
      "hit": false,
      "t": 5132.738999999998,
      "d": 159.29189999999926,
      "v": 77
    },
    {
      "midi": 60,
      "hit": false,
      "t": 5132.738999999998,
      "d": 159.29189999999926,
      "v": 77
    },
    {
      "midi": 69,
      "hit": false,
      "t": 5132.738999999998,
      "d": 159.29189999999926,
      "v": 77
    },
    {
      "midi": 64,
      "hit": false,
      "t": 5132.738999999998,
      "d": 159.29189999999926,
      "v": 77
    },
    {
      "midi": 57,
      "hit": false,
      "t": 5132.738999999998,
      "d": 159.29189999999926,
      "v": 77
    },
    {
      "midi": 52,
      "hit": false,
      "t": 5309.729999999997,
      "d": 53.09729999999854,
      "v": 70
    },
    {
      "midi": 81,
      "hit": false,
      "t": 5309.729999999997,
      "d": 238.93784999999662,
      "v": 100
    },
    {
      "midi": 76,
      "hit": false,
      "t": 5309.729999999997,
      "d": 238.93784999999662,
      "v": 100
    },
    {
      "midi": 57,
      "hit": false,
      "t": 5320.7919374999965,
      "d": 53.09729999999854,
      "v": 70
    },
    {
      "midi": 60,
      "hit": false,
      "t": 5331.853874999996,
      "d": 53.09729999999854,
      "v": 70
    },
    {
      "midi": 64,
      "hit": false,
      "t": 5342.915812499996,
      "d": 53.09729999999854,
      "v": 70
    },
    {
      "midi": 69,
      "hit": false,
      "t": 5353.9777499999955,
      "d": 53.09729999999854,
      "v": 70
    },
    {
      "midi": 40,
      "hit": false,
      "t": 5663.711999999993,
      "d": 53.09729999999945,
      "v": 97
    },
    {
      "midi": 52,
      "hit": false,
      "t": 5663.711999999993,
      "d": 159.29189999999926,
      "v": 78
    },
    {
      "midi": 60,
      "hit": false,
      "t": 5663.711999999993,
      "d": 159.29189999999926,
      "v": 78
    },
    {
      "midi": 69,
      "hit": false,
      "t": 5663.711999999993,
      "d": 159.29189999999926,
      "v": 78
    },
    {
      "midi": 64,
      "hit": false,
      "t": 5663.711999999993,
      "d": 159.29189999999926,
      "v": 78
    },
    {
      "midi": 57,
      "hit": false,
      "t": 5663.711999999993,
      "d": 159.29189999999926,
      "v": 78
    },
    {
      "midi": 52,
      "hit": false,
      "t": 5840.702999999992,
      "d": 53.09729999999854,
      "v": 70
    },
    {
      "midi": 81,
      "hit": false,
      "t": 5840.702999999992,
      "d": 238.93784999999662,
      "v": 100
    },
    {
      "midi": 76,
      "hit": false,
      "t": 5840.702999999992,
      "d": 238.93784999999662,
      "v": 100
    },
    {
      "midi": 59,
      "hit": false,
      "t": 5840.702999999992,
      "d": 477.87569999999596,
      "v": 104
    },
    {
      "midi": 47,
      "hit": false,
      "t": 5840.702999999992,
      "d": 557.521649999996,
      "v": 119
    },
    {
      "midi": 57,
      "hit": false,
      "t": 5851.764937499992,
      "d": 53.09729999999854,
      "v": 70
    },
    {
      "midi": 60,
      "hit": false,
      "t": 5862.826874999992,
      "d": 53.09729999999854,
      "v": 70
    },
    {
      "midi": 64,
      "hit": false,
      "t": 5873.888812499991,
      "d": 53.09729999999854,
      "v": 70
    },
    {
      "midi": 69,
      "hit": false,
      "t": 5884.950749999991,
      "d": 53.09729999999854,
      "v": 70
    },
    {
      "midi": 52,
      "hit": false,
      "t": 6194.684999999989,
      "d": 159.29189999999926,
      "v": 77
    },
    {
      "midi": 60,
      "hit": false,
      "t": 6194.684999999989,
      "d": 159.29189999999926,
      "v": 77
    },
    {
      "midi": 69,
      "hit": false,
      "t": 6194.684999999989,
      "d": 159.29189999999926,
      "v": 77
    },
    {
      "midi": 64,
      "hit": false,
      "t": 6194.684999999989,
      "d": 159.29189999999926,
      "v": 77
    },
    {
      "midi": 57,
      "hit": false,
      "t": 6194.684999999989,
      "d": 159.29189999999926,
      "v": 77
    },
    {
      "midi": 81,
      "hit": false,
      "t": 6371.675999999988,
      "d": 238.93785000000116,
      "v": 100
    },
    {
      "midi": 76,
      "hit": false,
      "t": 6371.675999999988,
      "d": 238.93785000000116,
      "v": 100
    },
    {
      "midi": 55,
      "hit": false,
      "t": 6371.675999999988,
      "d": 318.58380000000125,
      "v": 95
    },
    {
      "midi": 57,
      "hit": false,
      "t": 6393.799874999988,
      "d": 477.8757000000005,
      "v": 65
    },
    {
      "midi": 60,
      "hit": false,
      "t": 6415.923749999988,
      "d": 477.8757000000005,
      "v": 65
    },
    {
      "midi": 64,
      "hit": false,
      "t": 6438.047624999988,
      "d": 424.77840000000015,
      "v": 65
    },
    {
      "midi": 69,
      "hit": false,
      "t": 6460.171499999989,
      "d": 424.77840000000015,
      "v": 65
    },
    {
      "midi": 52,
      "hit": false,
      "t": 6725.6579999999885,
      "d": 123.89369999999963,
      "v": 104
    },
    {
      "midi": 45,
      "hit": false,
      "t": 6725.6579999999885,
      "d": 159.29190000000017,
      "v": 118
    },
    {
      "midi": 81,
      "hit": false,
      "t": 6902.6489999999885,
      "d": 238.93784999999662,
      "v": 100
    },
    {
      "midi": 76,
      "hit": false,
      "t": 6902.6489999999885,
      "d": 238.93784999999662,
      "v": 100
    },
    {
      "midi": 57,
      "hit": false,
      "t": 6913.710937499988,
      "d": 53.09729999999854,
      "v": 61
    },
    {
      "midi": 60,
      "hit": false,
      "t": 6924.772874999988,
      "d": 53.09729999999854,
      "v": 61
    },
    {
      "midi": 64,
      "hit": false,
      "t": 6935.8348124999875,
      "d": 53.09729999999854,
      "v": 61
    },
    {
      "midi": 69,
      "hit": false,
      "t": 6946.896749999987,
      "d": 53.09729999999854,
      "v": 61
    },
    {
      "midi": 52,
      "hit": false,
      "t": 6946.896749999987,
      "d": 53.09729999999854,
      "v": 61
    },
    {
      "midi": 47,
      "hit": false,
      "t": 7256.630999999985,
      "d": 11.061937499999658,
      "v": 110
    },
    {
      "midi": 43,
      "hit": false,
      "t": 7256.630999999985,
      "d": 159.29189999999926,
      "v": 115
    },
    {
      "midi": 52,
      "hit": false,
      "t": 7256.630999999985,
      "d": 159.29189999999926,
      "v": 77
    },
    {
      "midi": 60,
      "hit": false,
      "t": 7256.630999999985,
      "d": 159.29189999999926,
      "v": 77
    },
    {
      "midi": 69,
      "hit": false,
      "t": 7256.630999999985,
      "d": 159.29189999999926,
      "v": 77
    },
    {
      "midi": 64,
      "hit": false,
      "t": 7256.630999999985,
      "d": 159.29189999999926,
      "v": 77
    },
    {
      "midi": 57,
      "hit": false,
      "t": 7256.630999999985,
      "d": 159.29189999999926,
      "v": 77
    },
    {
      "midi": 52,
      "hit": false,
      "t": 7433.621999999984,
      "d": 53.09729999999854,
      "v": 70
    },
    {
      "midi": 81,
      "hit": false,
      "t": 7433.621999999984,
      "d": 238.93784999999752,
      "v": 100
    },
    {
      "midi": 76,
      "hit": false,
      "t": 7433.621999999984,
      "d": 238.93784999999752,
      "v": 100
    },
    {
      "midi": 57,
      "hit": false,
      "t": 7444.683937499984,
      "d": 53.09729999999854,
      "v": 70
    },
    {
      "midi": 60,
      "hit": false,
      "t": 7455.745874999983,
      "d": 53.09729999999854,
      "v": 70
    },
    {
      "midi": 64,
      "hit": false,
      "t": 7466.807812499983,
      "d": 53.09729999999854,
      "v": 70
    },
    {
      "midi": 69,
      "hit": false,
      "t": 7477.869749999983,
      "d": 53.09729999999854,
      "v": 70
    },
    {
      "midi": 43,
      "hit": false,
      "t": 7787.603999999981,
      "d": 11.061937499999658,
      "v": 100
    },
    {
      "midi": 40,
      "hit": false,
      "t": 7787.603999999981,
      "d": 53.09729999999945,
      "v": 96
    },
    {
      "midi": 52,
      "hit": false,
      "t": 7787.603999999981,
      "d": 159.29189999999926,
      "v": 78
    },
    {
      "midi": 60,
      "hit": false,
      "t": 7787.603999999981,
      "d": 159.29189999999926,
      "v": 78
    },
    {
      "midi": 69,
      "hit": false,
      "t": 7787.603999999981,
      "d": 159.29189999999926,
      "v": 78
    },
    {
      "midi": 64,
      "hit": false,
      "t": 7787.603999999981,
      "d": 159.29189999999926,
      "v": 78
    },
    {
      "midi": 57,
      "hit": false,
      "t": 7787.603999999981,
      "d": 159.29189999999926,
      "v": 78
    },
    {
      "midi": 43,
      "hit": false,
      "t": 7964.59499999998,
      "d": 11.061937499999658,
      "v": 110
    },
    {
      "midi": 52,
      "hit": false,
      "t": 7964.59499999998,
      "d": 53.09729999999854,
      "v": 70
    },
    {
      "midi": 81,
      "hit": false,
      "t": 7964.59499999998,
      "d": 238.93784999999752,
      "v": 100
    },
    {
      "midi": 76,
      "hit": false,
      "t": 7964.59499999998,
      "d": 238.93784999999752,
      "v": 100
    },
    {
      "midi": 35,
      "hit": false,
      "t": 7964.59499999998,
      "d": 477.8756999999978,
      "v": 113
    },
    {
      "midi": 57,
      "hit": false,
      "t": 7975.65693749998,
      "d": 53.09729999999854,
      "v": 70
    },
    {
      "midi": 60,
      "hit": false,
      "t": 7986.71887499998,
      "d": 53.09729999999854,
      "v": 70
    },
    {
      "midi": 64,
      "hit": false,
      "t": 7997.780812499979,
      "d": 53.09729999999854,
      "v": 70
    },
    {
      "midi": 69,
      "hit": false,
      "t": 8008.842749999979,
      "d": 53.09729999999854,
      "v": 70
    },
    {
      "midi": 52,
      "hit": false,
      "t": 8318.576999999977,
      "d": 159.29190000000017,
      "v": 77
    },
    {
      "midi": 60,
      "hit": false,
      "t": 8318.576999999977,
      "d": 159.29190000000017,
      "v": 77
    },
    {
      "midi": 69,
      "hit": false,
      "t": 8318.576999999977,
      "d": 159.29190000000017,
      "v": 77
    },
    {
      "midi": 64,
      "hit": false,
      "t": 8318.576999999977,
      "d": 159.29190000000017,
      "v": 77
    },
    {
      "midi": 57,
      "hit": false,
      "t": 8318.576999999977,
      "d": 159.29190000000017,
      "v": 77
    },
    {
      "midi": 49,
      "hit": false,
      "t": 8495.567999999977,
      "d": 11.061937500000568,
      "v": 110
    },
    {
      "midi": 36,
      "hit": false,
      "t": 8495.567999999977,
      "d": 11.061937500000568,
      "v": 110
    },
    {
      "midi": 45,
      "hit": false,
      "t": 8495.567999999977,
      "d": 185.84054999999898,
      "v": 97
    },
    {
      "midi": 33,
      "hit": false,
      "t": 8495.567999999977,
      "d": 557.5216500000042,
      "v": 119
    },
    {
      "midi": 52,
      "hit": false,
      "t": 8506.629937499978,
      "d": 185.84054999999898,
      "v": 97
    },
    {
      "midi": 57,
      "hit": false,
      "t": 8517.691874999979,
      "d": 477.8757000000005,
      "v": 65
    },
    {
      "midi": 60,
      "hit": false,
      "t": 8539.815749999978,
      "d": 477.8757000000023,
      "v": 65
    },
    {
      "midi": 64,
      "hit": false,
      "t": 8561.939624999977,
      "d": 424.77840000000106,
      "v": 65
    },
    {
      "midi": 69,
      "hit": false,
      "t": 8584.063499999977,
      "d": 424.7784000000029,
      "v": 65
    },
    {
      "midi": 45,
      "hit": false,
      "t": 8849.549999999977,
      "d": 17.699099999999817,
      "v": 82
    },
    {
      "midi": 52,
      "hit": false,
      "t": 8849.549999999977,
      "d": 17.699099999999817,
      "v": 82
    },
    {
      "midi": 54,
      "hit": false,
      "t": 9026.540999999981,
      "d": 11.061937500000568,
      "v": 90
    },
    {
      "midi": 42,
      "hit": false,
      "t": 9026.540999999981,
      "d": 11.061937500000568,
      "v": 100
    },
    {
      "midi": 45,
      "hit": false,
      "t": 9026.540999999981,
      "d": 185.84055000000262,
      "v": 97
    },
    {
      "midi": 57,
      "hit": false,
      "t": 9037.602937499982,
      "d": 53.09729999999945,
      "v": 61
    },
    {
      "midi": 60,
      "hit": false,
      "t": 9048.664874999982,
      "d": 53.09729999999945,
      "v": 61
    },
    {
      "midi": 64,
      "hit": false,
      "t": 9059.726812499981,
      "d": 53.09730000000127,
      "v": 61
    },
    {
      "midi": 69,
      "hit": false,
      "t": 9070.788749999982,
      "d": 53.09730000000127,
      "v": 61
    },
    {
      "midi": 52,
      "hit": false,
      "t": 9070.788749999982,
      "d": 53.09730000000127,
      "v": 61
    },
    {
      "midi": 45,
      "hit": false,
      "t": 9380.522999999985,
      "d": 17.699099999999817,
      "v": 82
    },
    {
      "midi": 52,
      "hit": false,
      "t": 9380.522999999985,
      "d": 17.699099999999817,
      "v": 77
    },
    {
      "midi": 40,
      "hit": false,
      "t": 9380.522999999985,
      "d": 159.29190000000017,
      "v": 117
    },
    {
      "midi": 60,
      "hit": false,
      "t": 9380.522999999985,
      "d": 159.29190000000017,
      "v": 77
    },
    {
      "midi": 69,
      "hit": false,
      "t": 9380.522999999985,
      "d": 159.29190000000017,
      "v": 77
    },
    {
      "midi": 64,
      "hit": false,
      "t": 9380.522999999985,
      "d": 159.29190000000017,
      "v": 77
    },
    {
      "midi": 57,
      "hit": false,
      "t": 9380.522999999985,
      "d": 159.29190000000017,
      "v": 77
    },
    {
      "midi": 45,
      "hit": false,
      "t": 9557.513999999985,
      "d": 185.84055000000444,
      "v": 97
    },
    {
      "midi": 52,
      "hit": false,
      "t": 9568.575937499985,
      "d": 42.03536250000252,
      "v": 97
    },
    {
      "midi": 57,
      "hit": false,
      "t": 9568.575937499985,
      "d": 53.09730000000309,
      "v": 70
    },
    {
      "midi": 60,
      "hit": false,
      "t": 9579.637874999986,
      "d": 53.09730000000309,
      "v": 70
    },
    {
      "midi": 64,
      "hit": false,
      "t": 9590.699812499986,
      "d": 53.09730000000309,
      "v": 70
    },
    {
      "midi": 69,
      "hit": false,
      "t": 9601.761749999987,
      "d": 53.09730000000309,
      "v": 70
    },
    {
      "midi": 45,
      "hit": false,
      "t": 9911.49599999999,
      "d": 17.699099999999817,
      "v": 82
    },
    {
      "midi": 52,
      "hit": false,
      "t": 9911.49599999999,
      "d": 17.699099999999817,
      "v": 78
    },
    {
      "midi": 64,
      "hit": false,
      "t": 9911.49599999999,
      "d": 70.79639999999927,
      "v": 78
    },
    {
      "midi": 60,
      "hit": false,
      "t": 9911.49599999999,
      "d": 159.29189999999835,
      "v": 78
    },
    {
      "midi": 69,
      "hit": false,
      "t": 9911.49599999999,
      "d": 159.29189999999835,
      "v": 78
    },
    {
      "midi": 57,
      "hit": false,
      "t": 9911.49599999999,
      "d": 159.29189999999835,
      "v": 78
    },
    {
      "midi": 54,
      "hit": false,
      "t": 10088.486999999988,
      "d": 11.061937500000568,
      "v": 90
    },
    {
      "midi": 42,
      "hit": false,
      "t": 10088.486999999988,
      "d": 11.061937500000568,
      "v": 100
    },
    {
      "midi": 45,
      "hit": false,
      "t": 10088.486999999988,
      "d": 185.84055000000626,
      "v": 97
    },
    {
      "midi": 52,
      "hit": false,
      "t": 10099.548937499989,
      "d": 42.03536250000252,
      "v": 97
    },
    {
      "midi": 57,
      "hit": false,
      "t": 10099.548937499989,
      "d": 53.09730000000309,
      "v": 70
    },
    {
      "midi": 60,
      "hit": false,
      "t": 10110.61087499999,
      "d": 53.09730000000309,
      "v": 70
    },
    {
      "midi": 64,
      "hit": false,
      "t": 10121.67281249999,
      "d": 53.09730000000309,
      "v": 70
    },
    {
      "midi": 69,
      "hit": false,
      "t": 10132.73474999999,
      "d": 53.09730000000309,
      "v": 70
    },
    {
      "midi": 45,
      "hit": false,
      "t": 10442.468999999996,
      "d": 17.699099999999817,
      "v": 82
    },
    {
      "midi": 52,
      "hit": false,
      "t": 10442.468999999996,
      "d": 17.699099999999817,
      "v": 77
    },
    {
      "midi": 64,
      "hit": false,
      "t": 10442.468999999996,
      "d": 123.89370000000054,
      "v": 77
    },
    {
      "midi": 60,
      "hit": false,
      "t": 10442.468999999996,
      "d": 159.29190000000017,
      "v": 77
    },
    {
      "midi": 69,
      "hit": false,
      "t": 10442.468999999996,
      "d": 159.29190000000017,
      "v": 77
    },
    {
      "midi": 57,
      "hit": false,
      "t": 10442.468999999996,
      "d": 159.29190000000017,
      "v": 77
    },
    {
      "midi": 36,
      "hit": false,
      "t": 10619.459999999995,
      "d": 11.061937500000568,
      "v": 110
    },
    {
      "midi": 47,
      "hit": false,
      "t": 10619.459999999995,
      "d": 185.84054999999898,
      "v": 99
    },
    {
      "midi": 44,
      "hit": false,
      "t": 10619.459999999995,
      "d": 557.5216500000042,
      "v": 117
    },
    {
      "midi": 52,
      "hit": false,
      "t": 10630.521937499996,
      "d": 185.84054999999898,
      "v": 99
    },
    {
      "midi": 59,
      "hit": false,
      "t": 10641.583874999997,
      "d": 477.8757000000005,
      "v": 67
    },
    {
      "midi": 64,
      "hit": false,
      "t": 10663.707749999996,
      "d": 477.8757000000023,
      "v": 67
    },
    {
      "midi": 67,
      "hit": false,
      "t": 10685.831624999995,
      "d": 424.77840000000106,
      "v": 67
    },
    {
      "midi": 71,
      "hit": false,
      "t": 10707.955499999995,
      "d": 424.7784000000029,
      "v": 67
    },
    {
      "midi": 47,
      "hit": false,
      "t": 10973.441999999995,
      "d": 17.699099999999817,
      "v": 82
    },
    {
      "midi": 52,
      "hit": false,
      "t": 10973.441999999995,
      "d": 17.699099999999817,
      "v": 82
    },
    {
      "midi": 54,
      "hit": false,
      "t": 11150.432999999999,
      "d": 11.061937500000568,
      "v": 90
    },
    {
      "midi": 42,
      "hit": false,
      "t": 11150.432999999999,
      "d": 11.061937500000568,
      "v": 100
    },
    {
      "midi": 47,
      "hit": false,
      "t": 11150.432999999999,
      "d": 185.84055000000262,
      "v": 99
    },
    {
      "midi": 52,
      "hit": false,
      "t": 11161.4949375,
      "d": 42.0353625000007,
      "v": 99
    },
    {
      "midi": 59,
      "hit": false,
      "t": 11161.4949375,
      "d": 53.09730000000127,
      "v": 68
    },
    {
      "midi": 64,
      "hit": false,
      "t": 11172.556875,
      "d": 53.09730000000127,
      "v": 68
    },
    {
      "midi": 67,
      "hit": false,
      "t": 11183.618812499999,
      "d": 53.09730000000309,
      "v": 68
    },
    {
      "midi": 71,
      "hit": false,
      "t": 11194.68075,
      "d": 53.09730000000309,
      "v": 68
    },
    {
      "midi": 47,
      "hit": false,
      "t": 11504.415000000003,
      "d": 17.699099999999817,
      "v": 82
    },
    {
      "midi": 52,
      "hit": false,
      "t": 11504.415000000003,
      "d": 17.699099999999817,
      "v": 77
    },
    {
      "midi": 64,
      "hit": false,
      "t": 11504.415000000003,
      "d": 159.29190000000017,
      "v": 77
    },
    {
      "midi": 71,
      "hit": false,
      "t": 11504.415000000003,
      "d": 159.29190000000017,
      "v": 77
    },
    {
      "midi": 67,
      "hit": false,
      "t": 11504.415000000003,
      "d": 159.29190000000017,
      "v": 77
    },
    {
      "midi": 59,
      "hit": false,
      "t": 11504.415000000003,
      "d": 159.29190000000017,
      "v": 77
    },
    {
      "midi": 40,
      "hit": false,
      "t": 11504.415000000003,
      "d": 893.8045500000098,
      "v": 117
    },
    {
      "midi": 47,
      "hit": false,
      "t": 11681.406000000003,
      "d": 185.84055000000444,
      "v": 99
    },
    {
      "midi": 52,
      "hit": false,
      "t": 11692.467937500003,
      "d": 42.03536250000252,
      "v": 99
    },
    {
      "midi": 59,
      "hit": false,
      "t": 11692.467937500003,
      "d": 53.09730000000309,
      "v": 71
    },
    {
      "midi": 64,
      "hit": false,
      "t": 11703.529875000004,
      "d": 53.09730000000309,
      "v": 71
    },
    {
      "midi": 67,
      "hit": false,
      "t": 11714.591812500004,
      "d": 53.09730000000309,
      "v": 71
    },
    {
      "midi": 71,
      "hit": false,
      "t": 11725.653750000005,
      "d": 53.09730000000309,
      "v": 71
    },
    {
      "midi": 47,
      "hit": false,
      "t": 12035.388000000008,
      "d": 17.699099999999817,
      "v": 82
    },
    {
      "midi": 52,
      "hit": false,
      "t": 12035.388000000008,
      "d": 17.699099999999817,
      "v": 78
    },
    {
      "midi": 64,
      "hit": false,
      "t": 12035.388000000008,
      "d": 159.29190000000017,
      "v": 78
    },
    {
      "midi": 71,
      "hit": false,
      "t": 12035.388000000008,
      "d": 159.29190000000017,
      "v": 78
    },
    {
      "midi": 67,
      "hit": false,
      "t": 12035.388000000008,
      "d": 159.29190000000017,
      "v": 78
    },
    {
      "midi": 59,
      "hit": false,
      "t": 12035.388000000008,
      "d": 159.29190000000017,
      "v": 78
    },
    {
      "midi": 54,
      "hit": false,
      "t": 12212.379000000008,
      "d": 11.061937500000568,
      "v": 90
    },
    {
      "midi": 42,
      "hit": false,
      "t": 12212.379000000008,
      "d": 11.061937500000568,
      "v": 100
    },
    {
      "midi": 47,
      "hit": false,
      "t": 12212.379000000008,
      "d": 185.84055000000444,
      "v": 99
    },
    {
      "midi": 52,
      "hit": false,
      "t": 12223.440937500009,
      "d": 42.03536250000252,
      "v": 99
    },
    {
      "midi": 59,
      "hit": false,
      "t": 12223.440937500009,
      "d": 53.09730000000309,
      "v": 72
    },
    {
      "midi": 64,
      "hit": false,
      "t": 12234.50287500001,
      "d": 53.09730000000309,
      "v": 72
    },
    {
      "midi": 67,
      "hit": false,
      "t": 12245.56481250001,
      "d": 53.09730000000309,
      "v": 72
    },
    {
      "midi": 71,
      "hit": false,
      "t": 12256.62675000001,
      "d": 53.09730000000309,
      "v": 72
    },
    {
      "midi": 47,
      "hit": false,
      "t": 12566.361000000014,
      "d": 17.699099999999817,
      "v": 82
    },
    {
      "midi": 52,
      "hit": false,
      "t": 12566.361000000014,
      "d": 17.699099999999817,
      "v": 72
    },
    {
      "midi": 64,
      "hit": false,
      "t": 12566.361000000014,
      "d": 70.79639999999927,
      "v": 72
    },
    {
      "midi": 71,
      "hit": false,
      "t": 12566.361000000014,
      "d": 159.29189999999835,
      "v": 72
    },
    {
      "midi": 67,
      "hit": false,
      "t": 12566.361000000014,
      "d": 159.29189999999835,
      "v": 72
    },
    {
      "midi": 59,
      "hit": false,
      "t": 12566.361000000014,
      "d": 159.29189999999835,
      "v": 72
    },
    {
      "midi": 36,
      "hit": false,
      "t": 12743.352000000012,
      "d": 11.061937500000568,
      "v": 110
    },
    {
      "midi": 47,
      "hit": false,
      "t": 12743.352000000012,
      "d": 185.84054999999898,
      "v": 99
    },
    {
      "midi": 43,
      "hit": false,
      "t": 12743.352000000012,
      "d": 557.5216500000042,
      "v": 118
    },
    {
      "midi": 76,
      "hit": false,
      "t": 12743.352000000012,
      "d": 1911.5028000000202,
      "v": 110
    },
    {
      "midi": 52,
      "hit": false,
      "t": 12754.413937500012,
      "d": 185.84054999999898,
      "v": 99
    },
    {
      "midi": 59,
      "hit": false,
      "t": 12765.475875000013,
      "d": 477.8757000000005,
      "v": 67
    },
    {
      "midi": 64,
      "hit": false,
      "t": 12787.599750000012,
      "d": 477.8757000000023,
      "v": 67
    },
    {
      "midi": 67,
      "hit": false,
      "t": 12809.723625000011,
      "d": 424.77840000000106,
      "v": 67
    },
    {
      "midi": 71,
      "hit": false,
      "t": 12831.84750000001,
      "d": 424.7784000000029,
      "v": 67
    },
    {
      "midi": 47,
      "hit": false,
      "t": 13097.334000000012,
      "d": 17.699099999999817,
      "v": 82
    },
    {
      "midi": 52,
      "hit": false,
      "t": 13097.334000000012,
      "d": 17.699099999999817,
      "v": 82
    },
    {
      "midi": 54,
      "hit": false,
      "t": 13274.325000000015,
      "d": 11.061937500000568,
      "v": 90
    },
    {
      "midi": 42,
      "hit": false,
      "t": 13274.325000000015,
      "d": 11.061937500000568,
      "v": 100
    },
    {
      "midi": 47,
      "hit": false,
      "t": 13274.325000000015,
      "d": 185.84055000000444,
      "v": 99
    },
    {
      "midi": 52,
      "hit": false,
      "t": 13285.386937500016,
      "d": 42.0353625000007,
      "v": 99
    },
    {
      "midi": 59,
      "hit": false,
      "t": 13285.386937500016,
      "d": 53.09730000000127,
      "v": 68
    },
    {
      "midi": 64,
      "hit": false,
      "t": 13296.448875000016,
      "d": 53.09730000000127,
      "v": 68
    },
    {
      "midi": 67,
      "hit": false,
      "t": 13307.510812500015,
      "d": 53.09730000000309,
      "v": 68
    },
    {
      "midi": 71,
      "hit": false,
      "t": 13318.572750000016,
      "d": 53.09730000000309,
      "v": 68
    },
    {
      "midi": 47,
      "hit": false,
      "t": 13628.30700000002,
      "d": 17.699099999999817,
      "v": 82
    },
    {
      "midi": 52,
      "hit": false,
      "t": 13628.30700000002,
      "d": 17.699099999999817,
      "v": 77
    },
    {
      "midi": 64,
      "hit": false,
      "t": 13628.30700000002,
      "d": 123.89370000000054,
      "v": 77
    },
    {
      "midi": 71,
      "hit": false,
      "t": 13628.30700000002,
      "d": 123.89370000000054,
      "v": 77
    },
    {
      "midi": 38,
      "hit": false,
      "t": 13628.30700000002,
      "d": 159.29190000000017,
      "v": 107
    },
    {
      "midi": 67,
      "hit": false,
      "t": 13628.30700000002,
      "d": 159.29190000000017,
      "v": 77
    },
    {
      "midi": 59,
      "hit": false,
      "t": 13628.30700000002,
      "d": 159.29190000000017,
      "v": 77
    },
    {
      "midi": 47,
      "hit": false,
      "t": 13805.29800000002,
      "d": 185.84055000000444,
      "v": 99
    },
    {
      "midi": 52,
      "hit": false,
      "t": 13816.359937500021,
      "d": 42.03536250000252,
      "v": 99
    },
    {
      "midi": 59,
      "hit": false,
      "t": 13816.359937500021,
      "d": 53.09730000000309,
      "v": 71
    },
    {
      "midi": 64,
      "hit": false,
      "t": 13827.421875000022,
      "d": 53.09730000000309,
      "v": 71
    },
    {
      "midi": 67,
      "hit": false,
      "t": 13838.483812500022,
      "d": 53.09730000000309,
      "v": 71
    },
    {
      "midi": 71,
      "hit": false,
      "t": 13849.545750000023,
      "d": 53.09730000000309,
      "v": 71
    },
    {
      "midi": 47,
      "hit": false,
      "t": 14159.280000000026,
      "d": 17.699099999999817,
      "v": 82
    },
    {
      "midi": 52,
      "hit": false,
      "t": 14159.280000000026,
      "d": 17.699099999999817,
      "v": 78
    },
    {
      "midi": 31,
      "hit": false,
      "t": 14159.280000000026,
      "d": 53.09729999999945,
      "v": 107
    },
    {
      "midi": 64,
      "hit": false,
      "t": 14159.280000000026,
      "d": 123.89369999999872,
      "v": 78
    },
    {
      "midi": 67,
      "hit": false,
      "t": 14159.280000000026,
      "d": 123.89369999999872,
      "v": 78
    },
    {
      "midi": 71,
      "hit": false,
      "t": 14159.280000000026,
      "d": 159.29189999999835,
      "v": 78
    },
    {
      "midi": 59,
      "hit": false,
      "t": 14159.280000000026,
      "d": 159.29189999999835,
      "v": 78
    },
    {
      "midi": 54,
      "hit": false,
      "t": 14336.271000000024,
      "d": 11.061937500000568,
      "v": 90
    },
    {
      "midi": 42,
      "hit": false,
      "t": 14336.271000000024,
      "d": 11.061937500000568,
      "v": 100
    },
    {
      "midi": 47,
      "hit": false,
      "t": 14336.271000000024,
      "d": 185.84055000000626,
      "v": 99
    },
    {
      "midi": 69,
      "hit": false,
      "t": 14336.271000000024,
      "d": 477.8757000000078,
      "v": 114
    },
    {
      "midi": 31,
      "hit": false,
      "t": 14336.271000000024,
      "d": 477.8757000000078,
      "v": 121
    },
    {
      "midi": 52,
      "hit": false,
      "t": 14347.332937500025,
      "d": 42.03536250000252,
      "v": 99
    },
    {
      "midi": 59,
      "hit": false,
      "t": 14347.332937500025,
      "d": 53.09730000000309,
      "v": 72
    },
    {
      "midi": 64,
      "hit": false,
      "t": 14358.394875000025,
      "d": 53.09730000000309,
      "v": 72
    },
    {
      "midi": 67,
      "hit": false,
      "t": 14369.456812500026,
      "d": 53.09730000000309,
      "v": 72
    },
    {
      "midi": 71,
      "hit": false,
      "t": 14380.518750000027,
      "d": 53.09730000000309,
      "v": 72
    },
    {
      "midi": 36,
      "hit": false,
      "t": 14690.253000000032,
      "d": 11.061937500000568,
      "v": 100
    },
    {
      "midi": 47,
      "hit": false,
      "t": 14690.253000000032,
      "d": 17.699099999999817,
      "v": 82
    },
    {
      "midi": 52,
      "hit": false,
      "t": 14690.253000000032,
      "d": 17.699099999999817,
      "v": 72
    },
    {
      "midi": 64,
      "hit": false,
      "t": 14690.253000000032,
      "d": 123.89370000000054,
      "v": 72
    },
    {
      "midi": 71,
      "hit": false,
      "t": 14690.253000000032,
      "d": 159.29190000000017,
      "v": 72
    },
    {
      "midi": 67,
      "hit": false,
      "t": 14690.253000000032,
      "d": 159.29190000000017,
      "v": 72
    },
    {
      "midi": 59,
      "hit": false,
      "t": 14690.253000000032,
      "d": 159.29190000000017,
      "v": 72
    },
    {
      "midi": 36,
      "hit": false,
      "t": 14867.244000000032,
      "d": 11.061937500000568,
      "v": 110
    },
    {
      "midi": 50,
      "hit": false,
      "t": 14867.244000000032,
      "d": 185.84054999999898,
      "v": 97
    },
    {
      "midi": 57,
      "hit": false,
      "t": 14878.305937500032,
      "d": 185.84054999999898,
      "v": 97
    },
    {
      "midi": 62,
      "hit": false,
      "t": 14889.367875000033,
      "d": 477.8757000000005,
      "v": 65
    },
    {
      "midi": 65,
      "hit": false,
      "t": 14911.491750000032,
      "d": 477.8757000000023,
      "v": 65
    },
    {
      "midi": 69,
      "hit": false,
      "t": 14933.615625000031,
      "d": 424.77840000000106,
      "v": 65
    },
    {
      "midi": 74,
      "hit": false,
      "t": 14955.73950000003,
      "d": 424.7784000000029,
      "v": 65
    },
    {
      "midi": 50,
      "hit": false,
      "t": 15221.226000000031,
      "d": 17.699099999999817,
      "v": 82
    },
    {
      "midi": 57,
      "hit": false,
      "t": 15221.226000000031,
      "d": 17.699099999999817,
      "v": 82
    },
    {
      "midi": 54,
      "hit": false,
      "t": 15398.217000000035,
      "d": 11.061937500000568,
      "v": 90
    },
    {
      "midi": 42,
      "hit": false,
      "t": 15398.217000000035,
      "d": 11.061937500000568,
      "v": 100
    },
    {
      "midi": 50,
      "hit": false,
      "t": 15398.217000000035,
      "d": 185.84055000000262,
      "v": 97
    },
    {
      "midi": 62,
      "hit": false,
      "t": 15409.278937500036,
      "d": 53.09729999999945,
      "v": 61
    },
    {
      "midi": 65,
      "hit": false,
      "t": 15420.340875000036,
      "d": 53.09729999999945,
      "v": 61
    },
    {
      "midi": 69,
      "hit": false,
      "t": 15431.402812500035,
      "d": 53.09730000000127,
      "v": 61
    },
    {
      "midi": 74,
      "hit": false,
      "t": 15442.464750000036,
      "d": 53.09730000000127,
      "v": 61
    },
    {
      "midi": 57,
      "hit": false,
      "t": 15442.464750000036,
      "d": 53.09730000000127,
      "v": 61
    },
    {
      "midi": 50,
      "hit": false,
      "t": 15752.199000000039,
      "d": 17.699099999999817,
      "v": 82
    },
    {
      "midi": 57,
      "hit": false,
      "t": 15752.199000000039,
      "d": 17.699099999999817,
      "v": 77
    },
    {
      "midi": 69,
      "hit": false,
      "t": 15752.199000000039,
      "d": 123.89370000000054,
      "v": 77
    },
    {
      "midi": 65,
      "hit": false,
      "t": 15752.199000000039,
      "d": 159.29190000000017,
      "v": 77
    },
    {
      "midi": 74,
      "hit": false,
      "t": 15752.199000000039,
      "d": 159.29190000000017,
      "v": 77
    },
    {
      "midi": 62,
      "hit": false,
      "t": 15752.199000000039,
      "d": 159.29190000000017,
      "v": 77
    },
    {
      "midi": 38,
      "hit": false,
      "t": 15752.199000000039,
      "d": 893.8045499999953,
      "v": 113
    },
    {
      "midi": 50,
      "hit": false,
      "t": 15929.190000000039,
      "d": 185.84055000000444,
      "v": 97
    },
    {
      "midi": 66,
      "hit": false,
      "t": 15929.190000000039,
      "d": 477.87570000000414,
      "v": 94
    },
    {
      "midi": 57,
      "hit": false,
      "t": 15940.25193750004,
      "d": 42.03536250000252,
      "v": 97
    },
    {
      "midi": 62,
      "hit": false,
      "t": 15940.25193750004,
      "d": 53.09730000000309,
      "v": 70
    },
    {
      "midi": 65,
      "hit": false,
      "t": 15951.31387500004,
      "d": 53.09730000000309,
      "v": 70
    },
    {
      "midi": 69,
      "hit": false,
      "t": 15962.37581250004,
      "d": 53.09730000000309,
      "v": 70
    },
    {
      "midi": 74,
      "hit": false,
      "t": 15973.437750000041,
      "d": 53.09730000000309,
      "v": 70
    },
    {
      "midi": 50,
      "hit": false,
      "t": 16283.172000000044,
      "d": 17.699099999999817,
      "v": 82
    },
    {
      "midi": 57,
      "hit": false,
      "t": 16283.172000000044,
      "d": 17.699099999999817,
      "v": 78
    },
    {
      "midi": 65,
      "hit": false,
      "t": 16283.172000000044,
      "d": 159.29189999999835,
      "v": 78
    },
    {
      "midi": 74,
      "hit": false,
      "t": 16283.172000000044,
      "d": 159.29189999999835,
      "v": 78
    },
    {
      "midi": 69,
      "hit": false,
      "t": 16283.172000000044,
      "d": 159.29189999999835,
      "v": 78
    },
    {
      "midi": 62,
      "hit": false,
      "t": 16283.172000000044,
      "d": 159.29189999999835,
      "v": 78
    },
    {
      "midi": 54,
      "hit": false,
      "t": 16460.163000000044,
      "d": 11.061937499998749,
      "v": 90
    },
    {
      "midi": 42,
      "hit": false,
      "t": 16460.163000000044,
      "d": 11.061937499998749,
      "v": 100
    },
    {
      "midi": 50,
      "hit": false,
      "t": 16460.163000000044,
      "d": 185.8405499999899,
      "v": 97
    },
    {
      "midi": 57,
      "hit": false,
      "t": 16471.224937500043,
      "d": 42.035362499995244,
      "v": 97
    },
    {
      "midi": 62,
      "hit": false,
      "t": 16471.224937500043,
      "d": 53.09729999999399,
      "v": 70
    },
    {
      "midi": 65,
      "hit": false,
      "t": 16482.28687500004,
      "d": 53.09729999999399,
      "v": 70
    },
    {
      "midi": 69,
      "hit": false,
      "t": 16493.34881250004,
      "d": 53.09729999999399,
      "v": 70
    },
    {
      "midi": 74,
      "hit": false,
      "t": 16504.41075000004,
      "d": 53.09729999999399,
      "v": 70
    },
    {
      "midi": 36,
      "hit": false,
      "t": 16814.145000000033,
      "d": 11.061937499998749,
      "v": 100
    },
    {
      "midi": 50,
      "hit": false,
      "t": 16814.145000000033,
      "d": 17.699099999997998,
      "v": 82
    },
    {
      "midi": 57,
      "hit": false,
      "t": 16814.145000000033,
      "d": 17.699099999997998,
      "v": 77
    },
    {
      "midi": 38,
      "hit": false,
      "t": 16814.145000000033,
      "d": 53.09729999999763,
      "v": 107
    },
    {
      "midi": 62,
      "hit": false,
      "t": 16814.145000000033,
      "d": 70.79639999999927,
      "v": 77
    },
    {
      "midi": 69,
      "hit": false,
      "t": 16814.145000000033,
      "d": 123.89370000000054,
      "v": 77
    },
    {
      "midi": 65,
      "hit": false,
      "t": 16814.145000000033,
      "d": 159.29190000000017,
      "v": 77
    },
    {
      "midi": 74,
      "hit": false,
      "t": 16814.145000000033,
      "d": 159.29190000000017,
      "v": 77
    },
    {
      "midi": 36,
      "hit": false,
      "t": 16991.136000000035,
      "d": 11.061937499998749,
      "v": 110
    },
    {
      "midi": 55,
      "hit": false,
      "t": 16991.136000000035,
      "d": 185.8405500000008,
      "v": 65
    },
    {
      "midi": 43,
      "hit": false,
      "t": 16991.136000000035,
      "d": 557.5216499999915,
      "v": 121
    },
    {
      "midi": 59,
      "hit": false,
      "t": 17002.197937500034,
      "d": 185.8405500000008,
      "v": 97
    },
    {
      "midi": 62,
      "hit": false,
      "t": 17013.259875000032,
      "d": 477.8757000000005,
      "v": 65
    },
    {
      "midi": 67,
      "hit": false,
      "t": 17035.383750000034,
      "d": 477.87569999999687,
      "v": 65
    },
    {
      "midi": 71,
      "hit": false,
      "t": 17057.507625000035,
      "d": 424.77839999999924,
      "v": 65
    },
    {
      "midi": 74,
      "hit": false,
      "t": 17079.631500000036,
      "d": 424.7783999999956,
      "v": 65
    },
    {
      "midi": 55,
      "hit": false,
      "t": 17345.118000000035,
      "d": 17.699100000001636,
      "v": 82
    },
    {
      "midi": 59,
      "hit": false,
      "t": 17345.118000000035,
      "d": 17.699100000001636,
      "v": 82
    },
    {
      "midi": 54,
      "hit": false,
      "t": 17522.10900000003,
      "d": 11.061937499998749,
      "v": 90
    },
    {
      "midi": 42,
      "hit": false,
      "t": 17522.10900000003,
      "d": 11.061937499998749,
      "v": 100
    },
    {
      "midi": 62,
      "hit": false,
      "t": 17533.17093750003,
      "d": 53.09729999999763,
      "v": 61
    },
    {
      "midi": 59,
      "hit": false,
      "t": 17533.17093750003,
      "d": 185.84054999999353,
      "v": 97
    },
    {
      "midi": 67,
      "hit": false,
      "t": 17544.232875000027,
      "d": 53.09729999999763,
      "v": 61
    },
    {
      "midi": 71,
      "hit": false,
      "t": 17555.294812500026,
      "d": 53.09729999999763,
      "v": 61
    },
    {
      "midi": 74,
      "hit": false,
      "t": 17566.356750000024,
      "d": 53.09729999999763,
      "v": 61
    },
    {
      "midi": 55,
      "hit": false,
      "t": 17566.356750000024,
      "d": 53.09729999999763,
      "v": 61
    },
    {
      "midi": 55,
      "hit": false,
      "t": 17876.091000000022,
      "d": 17.699100000001636,
      "v": 77
    },
    {
      "midi": 59,
      "hit": false,
      "t": 17876.091000000022,
      "d": 17.699100000001636,
      "v": 82
    },
    {
      "midi": 43,
      "hit": false,
      "t": 17876.091000000022,
      "d": 53.09730000000127,
      "v": 106
    },
    {
      "midi": 71,
      "hit": false,
      "t": 17876.091000000022,
      "d": 123.89370000000054,
      "v": 77
    },
    {
      "midi": 62,
      "hit": false,
      "t": 17876.091000000022,
      "d": 159.29190000000017,
      "v": 77
    },
    {
      "midi": 67,
      "hit": false,
      "t": 17876.091000000022,
      "d": 159.29190000000017,
      "v": 77
    },
    {
      "midi": 74,
      "hit": false,
      "t": 17876.091000000022,
      "d": 159.29190000000017,
      "v": 77
    },
    {
      "midi": 55,
      "hit": false,
      "t": 18053.082000000024,
      "d": 53.09729999999399,
      "v": 70
    },
    {
      "midi": 64,
      "hit": false,
      "t": 18053.082000000024,
      "d": 247.78739999999016,
      "v": 122
    },
    {
      "midi": 41,
      "hit": false,
      "t": 18053.082000000024,
      "d": 318.5837999999894,
      "v": 121
    },
    {
      "midi": 62,
      "hit": false,
      "t": 18064.143937500023,
      "d": 53.09729999999399,
      "v": 70
    },
    {
      "midi": 59,
      "hit": false,
      "t": 18064.143937500023,
      "d": 185.8405499999899,
      "v": 97
    },
    {
      "midi": 67,
      "hit": false,
      "t": 18075.20587500002,
      "d": 53.09729999999399,
      "v": 70
    },
    {
      "midi": 71,
      "hit": false,
      "t": 18086.26781250002,
      "d": 53.09729999999399,
      "v": 70
    },
    {
      "midi": 74,
      "hit": false,
      "t": 18097.32975000002,
      "d": 53.09729999999399,
      "v": 70
    },
    {
      "midi": 55,
      "hit": false,
      "t": 18407.064000000013,
      "d": 17.699100000001636,
      "v": 78
    },
    {
      "midi": 59,
      "hit": false,
      "t": 18407.064000000013,
      "d": 17.699100000001636,
      "v": 82
    },
    {
      "midi": 67,
      "hit": false,
      "t": 18407.064000000013,
      "d": 123.89370000000054,
      "v": 78
    },
    {
      "midi": 62,
      "hit": false,
      "t": 18407.064000000013,
      "d": 159.29190000000017,
      "v": 78
    },
    {
      "midi": 41,
      "hit": false,
      "t": 18407.064000000013,
      "d": 159.29190000000017,
      "v": 118
    },
    {
      "midi": 74,
      "hit": false,
      "t": 18407.064000000013,
      "d": 159.29190000000017,
      "v": 78
    },
    {
      "midi": 71,
      "hit": false,
      "t": 18407.064000000013,
      "d": 159.29190000000017,
      "v": 78
    },
    {
      "midi": 54,
      "hit": false,
      "t": 18584.055000000015,
      "d": 11.061937499998749,
      "v": 90
    },
    {
      "midi": 42,
      "hit": false,
      "t": 18584.055000000015,
      "d": 11.061937499998749,
      "v": 100
    },
    {
      "midi": 55,
      "hit": false,
      "t": 18584.055000000015,
      "d": 53.09729999999399,
      "v": 70
    },
    {
      "midi": 61,
      "hit": false,
      "t": 18584.055000000015,
      "d": 318.5837999999894,
      "v": 120
    },
    {
      "midi": 62,
      "hit": false,
      "t": 18595.116937500014,
      "d": 53.09729999999399,
      "v": 70
    },
    {
      "midi": 59,
      "hit": false,
      "t": 18595.116937500014,
      "d": 185.8405499999899,
      "v": 97
    },
    {
      "midi": 67,
      "hit": false,
      "t": 18606.178875000012,
      "d": 53.09729999999399,
      "v": 70
    },
    {
      "midi": 71,
      "hit": false,
      "t": 18617.24081250001,
      "d": 53.09729999999399,
      "v": 70
    },
    {
      "midi": 74,
      "hit": false,
      "t": 18628.30275000001,
      "d": 53.09729999999399,
      "v": 70
    },
    {
      "midi": 36,
      "hit": false,
      "t": 18938.037000000004,
      "d": 11.061937499998749,
      "v": 100
    },
    {
      "midi": 59,
      "hit": false,
      "t": 18938.037000000004,
      "d": 17.699099999997998,
      "v": 82
    },
    {
      "midi": 55,
      "hit": false,
      "t": 18938.037000000004,
      "d": 17.699099999997998,
      "v": 77
    },
    {
      "midi": 41,
      "hit": false,
      "t": 18938.037000000004,
      "d": 53.09729999999763,
      "v": 110
    },
    {
      "midi": 71,
      "hit": false,
      "t": 18938.037000000004,
      "d": 123.8936999999969,
      "v": 77
    },
    {
      "midi": 62,
      "hit": false,
      "t": 18938.037000000004,
      "d": 159.29189999999653,
      "v": 77
    },
    {
      "midi": 67,
      "hit": false,
      "t": 18938.037000000004,
      "d": 159.29189999999653,
      "v": 77
    },
    {
      "midi": 74,
      "hit": false,
      "t": 18938.037000000004,
      "d": 159.29189999999653,
      "v": 77
    },
    {
      "midi": 36,
      "hit": false,
      "t": 19115.028000000002,
      "d": 11.061937499998749,
      "v": 110
    },
    {
      "midi": 55,
      "hit": false,
      "t": 19115.028000000002,
      "d": 185.8405500000008,
      "v": 65
    },
    {
      "midi": 40,
      "hit": false,
      "t": 19115.028000000002,
      "d": 557.5216499999915,
      "v": 121
    },
    {
      "midi": 76,
      "hit": false,
      "t": 19115.028000000002,
      "d": 1911.5027999999656,
      "v": 118
    },
    {
      "midi": 59,
      "hit": false,
      "t": 19126.0899375,
      "d": 185.8405500000008,
      "v": 97
    },
    {
      "midi": 62,
      "hit": false,
      "t": 19137.151875,
      "d": 477.8757000000005,
      "v": 65
    },
    {
      "midi": 67,
      "hit": false,
      "t": 19159.27575,
      "d": 433.6279500000019,
      "v": 65
    },
    {
      "midi": 71,
      "hit": false,
      "t": 19181.399625000002,
      "d": 424.77839999999924,
      "v": 65
    },
    {
      "midi": 74,
      "hit": false,
      "t": 19203.523500000003,
      "d": 424.7783999999956,
      "v": 65
    },
    {
      "midi": 55,
      "hit": false,
      "t": 19469.010000000002,
      "d": 17.699100000001636,
      "v": 82
    },
    {
      "midi": 59,
      "hit": false,
      "t": 19469.010000000002,
      "d": 17.699100000001636,
      "v": 82
    },
    {
      "midi": 54,
      "hit": false,
      "t": 19646.000999999997,
      "d": 11.061937499998749,
      "v": 90
    },
    {
      "midi": 42,
      "hit": false,
      "t": 19646.000999999997,
      "d": 11.061937499998749,
      "v": 100
    },
    {
      "midi": 62,
      "hit": false,
      "t": 19657.062937499995,
      "d": 53.09729999999763,
      "v": 61
    },
    {
      "midi": 59,
      "hit": false,
      "t": 19657.062937499995,
      "d": 185.84054999999353,
      "v": 97
    },
    {
      "midi": 67,
      "hit": false,
      "t": 19668.124874999994,
      "d": 53.09729999999763,
      "v": 61
    },
    {
      "midi": 71,
      "hit": false,
      "t": 19679.186812499993,
      "d": 53.09729999999763,
      "v": 61
    },
    {
      "midi": 74,
      "hit": false,
      "t": 19690.24874999999,
      "d": 53.09729999999763,
      "v": 61
    },
    {
      "midi": 55,
      "hit": false,
      "t": 19690.24874999999,
      "d": 53.09729999999763,
      "v": 61
    },
    {
      "midi": 55,
      "hit": false,
      "t": 19999.98299999999,
      "d": 17.699100000001636,
      "v": 77
    },
    {
      "midi": 59,
      "hit": false,
      "t": 19999.98299999999,
      "d": 17.699100000001636,
      "v": 82
    },
    {
      "midi": 67,
      "hit": false,
      "t": 19999.98299999999,
      "d": 123.89370000000054,
      "v": 77
    },
    {
      "midi": 74,
      "hit": false,
      "t": 19999.98299999999,
      "d": 159.29190000000017,
      "v": 77
    },
    {
      "midi": 71,
      "hit": false,
      "t": 19999.98299999999,
      "d": 159.29190000000017,
      "v": 77
    },
    {
      "midi": 62,
      "hit": false,
      "t": 19999.98299999999,
      "d": 159.29190000000017,
      "v": 77
    },
    {
      "midi": 40,
      "hit": false,
      "t": 19999.98299999999,
      "d": 318.5837999999894,
      "v": 118
    },
    {
      "midi": 55,
      "hit": false,
      "t": 20176.97399999999,
      "d": 53.09729999999399,
      "v": 70
    },
    {
      "midi": 52,
      "hit": false,
      "t": 20176.97399999999,
      "d": 185.84054999998625,
      "v": 97
    },
    {
      "midi": 65,
      "hit": false,
      "t": 20176.97399999999,
      "d": 247.78739999998652,
      "v": 122
    },
    {
      "midi": 69,
      "hit": false,
      "t": 20176.97399999999,
      "d": 477.87569999998595,
      "v": 103
    },
    {
      "midi": 62,
      "hit": false,
      "t": 20188.03593749999,
      "d": 53.09729999999399,
      "v": 70
    },
    {
      "midi": 57,
      "hit": false,
      "t": 20188.03593749999,
      "d": 185.84054999998625,
      "v": 97
    },
    {
      "midi": 67,
      "hit": false,
      "t": 20199.09787499999,
      "d": 53.09729999999399,
      "v": 70
    },
    {
      "midi": 71,
      "hit": false,
      "t": 20210.159812499987,
      "d": 53.09729999999399,
      "v": 70
    },
    {
      "midi": 74,
      "hit": false,
      "t": 20221.221749999986,
      "d": 53.09729999999399,
      "v": 70
    },
    {
      "midi": 52,
      "hit": false,
      "t": 20530.955999999976,
      "d": 17.699100000001636,
      "v": 82
    },
    {
      "midi": 57,
      "hit": false,
      "t": 20530.955999999976,
      "d": 17.699100000001636,
      "v": 82
    },
    {
      "midi": 40,
      "hit": false,
      "t": 20530.955999999976,
      "d": 53.09730000000127,
      "v": 112
    },
    {
      "midi": 64,
      "hit": false,
      "t": 20530.955999999976,
      "d": 159.29190000000017,
      "v": 106
    },
    {
      "midi": 55,
      "hit": false,
      "t": 20530.955999999976,
      "d": 159.29190000000017,
      "v": 78
    },
    {
      "midi": 67,
      "hit": false,
      "t": 20530.955999999976,
      "d": 159.29190000000017,
      "v": 78
    },
    {
      "midi": 74,
      "hit": false,
      "t": 20530.955999999976,
      "d": 159.29190000000017,
      "v": 78
    },
    {
      "midi": 71,
      "hit": false,
      "t": 20530.955999999976,
      "d": 159.29190000000017,
      "v": 78
    },
    {
      "midi": 62,
      "hit": false,
      "t": 20530.955999999976,
      "d": 159.29190000000017,
      "v": 78
    },
    {
      "midi": 54,
      "hit": false,
      "t": 20707.94699999998,
      "d": 11.061937499998749,
      "v": 90
    },
    {
      "midi": 42,
      "hit": false,
      "t": 20707.94699999998,
      "d": 11.061937499998749,
      "v": 100
    },
    {
      "midi": 55,
      "hit": false,
      "t": 20707.94699999998,
      "d": 53.09729999999399,
      "v": 70
    },
    {
      "midi": 52,
      "hit": false,
      "t": 20707.94699999998,
      "d": 185.8405499999899,
      "v": 97
    },
    {
      "midi": 38,
      "hit": false,
      "t": 20707.94699999998,
      "d": 318.5837999999894,
      "v": 119
    },
    {
      "midi": 62,
      "hit": false,
      "t": 20719.008937499977,
      "d": 53.09729999999399,
      "v": 70
    },
    {
      "midi": 57,
      "hit": false,
      "t": 20719.008937499977,
      "d": 185.8405499999899,
      "v": 97
    },
    {
      "midi": 67,
      "hit": false,
      "t": 20730.070874999976,
      "d": 53.09729999999399,
      "v": 70
    },
    {
      "midi": 71,
      "hit": false,
      "t": 20741.132812499975,
      "d": 53.09729999999399,
      "v": 70
    },
    {
      "midi": 74,
      "hit": false,
      "t": 20752.194749999973,
      "d": 53.09729999999399,
      "v": 70
    },
    {
      "midi": 36,
      "hit": false,
      "t": 21061.928999999967,
      "d": 11.061937499998749,
      "v": 100
    },
    {
      "midi": 57,
      "hit": false,
      "t": 21061.928999999967,
      "d": 17.699099999997998,
      "v": 82
    },
    {
      "midi": 52,
      "hit": false,
      "t": 21061.928999999967,
      "d": 17.699099999997998,
      "v": 82
    },
    {
      "midi": 67,
      "hit": false,
      "t": 21061.928999999967,
      "d": 123.8936999999969,
      "v": 77
    },
    {
      "midi": 60,
      "hit": false,
      "t": 21061.928999999967,
      "d": 159.29189999999653,
      "v": 112
    },
    {
      "midi": 55,
      "hit": false,
      "t": 21061.928999999967,
      "d": 159.29189999999653,
      "v": 77
    },
    {
      "midi": 74,
      "hit": false,
      "t": 21061.928999999967,
      "d": 159.29189999999653,
      "v": 77
    },
    {
      "midi": 71,
      "hit": false,
      "t": 21061.928999999967,
      "d": 159.29189999999653,
      "v": 77
    },
    {
      "midi": 62,
      "hit": false,
      "t": 21061.928999999967,
      "d": 159.29189999999653,
      "v": 77
    },
    {
      "midi": 36,
      "hit": false,
      "t": 21238.919999999966,
      "d": 11.061937499998749,
      "v": 110
    },
    {
      "midi": 47,
      "hit": false,
      "t": 21238.919999999966,
      "d": 185.8405500000008,
      "v": 99
    },
    {
      "midi": 40,
      "hit": false,
      "t": 21238.919999999966,
      "d": 557.5216499999915,
      "v": 123
    },
    {
      "midi": 60,
      "hit": false,
      "t": 21238.919999999966,
      "d": 955.7513999999828,
      "v": 126
    },
    {
      "midi": 76,
      "hit": false,
      "t": 21238.919999999966,
      "d": 1911.502799999962,
      "v": 119
    },
    {
      "midi": 52,
      "hit": false,
      "t": 21249.981937499964,
      "d": 185.8405500000008,
      "v": 99
    },
    {
      "midi": 59,
      "hit": false,
      "t": 21261.043874999963,
      "d": 477.8757000000005,
      "v": 67
    },
    {
      "midi": 64,
      "hit": false,
      "t": 21283.167749999964,
      "d": 477.87569999999687,
      "v": 67
    },
    {
      "midi": 67,
      "hit": false,
      "t": 21305.291624999965,
      "d": 424.77839999999924,
      "v": 67
    },
    {
      "midi": 71,
      "hit": false,
      "t": 21327.415499999966,
      "d": 424.7783999999956,
      "v": 67
    },
    {
      "midi": 47,
      "hit": false,
      "t": 21592.901999999965,
      "d": 17.699100000001636,
      "v": 82
    },
    {
      "midi": 52,
      "hit": false,
      "t": 21592.901999999965,
      "d": 17.699100000001636,
      "v": 82
    },
    {
      "midi": 54,
      "hit": false,
      "t": 21769.89299999996,
      "d": 11.061937499998749,
      "v": 90
    },
    {
      "midi": 42,
      "hit": false,
      "t": 21769.89299999996,
      "d": 11.061937499998749,
      "v": 100
    },
    {
      "midi": 47,
      "hit": false,
      "t": 21769.89299999996,
      "d": 185.8405499999899,
      "v": 99
    },
    {
      "midi": 68,
      "hit": false,
      "t": 21769.89299999996,
      "d": 477.8756999999896,
      "v": 88
    },
    {
      "midi": 52,
      "hit": false,
      "t": 21780.95493749996,
      "d": 42.035362499995244,
      "v": 99
    },
    {
      "midi": 59,
      "hit": false,
      "t": 21780.95493749996,
      "d": 53.09729999999399,
      "v": 68
    },
    {
      "midi": 64,
      "hit": false,
      "t": 21792.016874999958,
      "d": 53.09729999999399,
      "v": 68
    },
    {
      "midi": 67,
      "hit": false,
      "t": 21803.078812499956,
      "d": 53.09729999999399,
      "v": 68
    },
    {
      "midi": 71,
      "hit": false,
      "t": 21814.140749999955,
      "d": 53.09729999999399,
      "v": 68
    },
    {
      "midi": 47,
      "hit": false,
      "t": 22123.87499999995,
      "d": 17.699100000001636,
      "v": 82
    },
    {
      "midi": 52,
      "hit": false,
      "t": 22123.87499999995,
      "d": 17.699100000001636,
      "v": 77
    },
    {
      "midi": 64,
      "hit": false,
      "t": 22123.87499999995,
      "d": 159.29190000000017,
      "v": 77
    },
    {
      "midi": 71,
      "hit": false,
      "t": 22123.87499999995,
      "d": 159.29190000000017,
      "v": 77
    },
    {
      "midi": 67,
      "hit": false,
      "t": 22123.87499999995,
      "d": 159.29190000000017,
      "v": 77
    },
    {
      "midi": 59,
      "hit": false,
      "t": 22123.87499999995,
      "d": 159.29190000000017,
      "v": 77
    },
    {
      "midi": 40,
      "hit": false,
      "t": 22123.87499999995,
      "d": 353.9819999999927,
      "v": 125
    },
    {
      "midi": 47,
      "hit": false,
      "t": 22300.86599999995,
      "d": 185.8405499999899,
      "v": 99
    },
    {
      "midi": 52,
      "hit": false,
      "t": 22311.92793749995,
      "d": 42.035362499995244,
      "v": 99
    },
    {
      "midi": 59,
      "hit": false,
      "t": 22311.92793749995,
      "d": 53.09729999999399,
      "v": 71
    },
    {
      "midi": 64,
      "hit": false,
      "t": 22322.98987499995,
      "d": 53.09729999999399,
      "v": 71
    },
    {
      "midi": 67,
      "hit": false,
      "t": 22334.051812499947,
      "d": 53.09729999999399,
      "v": 71
    },
    {
      "midi": 71,
      "hit": false,
      "t": 22345.113749999946,
      "d": 53.09729999999399,
      "v": 71
    },
    {
      "midi": 42,
      "hit": false,
      "t": 22654.84799999994,
      "d": 11.061937499998749,
      "v": 100
    },
    {
      "midi": 47,
      "hit": false,
      "t": 22654.84799999994,
      "d": 17.699099999997998,
      "v": 82
    },
    {
      "midi": 52,
      "hit": false,
      "t": 22654.84799999994,
      "d": 17.699099999997998,
      "v": 78
    },
    {
      "midi": 71,
      "hit": false,
      "t": 22654.84799999994,
      "d": 123.8936999999969,
      "v": 78
    },
    {
      "midi": 64,
      "hit": false,
      "t": 22654.84799999994,
      "d": 159.29189999999653,
      "v": 78
    },
    {
      "midi": 67,
      "hit": false,
      "t": 22654.84799999994,
      "d": 159.29189999999653,
      "v": 78
    },
    {
      "midi": 59,
      "hit": false,
      "t": 22654.84799999994,
      "d": 159.29189999999653,
      "v": 78
    },
    {
      "midi": 54,
      "hit": false,
      "t": 22831.838999999938,
      "d": 11.061937499998749,
      "v": 90
    },
    {
      "midi": 46,
      "hit": false,
      "t": 22831.838999999938,
      "d": 11.061937499998749,
      "v": 100
    },
    {
      "midi": 47,
      "hit": false,
      "t": 22831.838999999938,
      "d": 185.8405499999899,
      "v": 99
    },
    {
      "midi": 68,
      "hit": false,
      "t": 22831.838999999938,
      "d": 477.8756999999896,
      "v": 86
    },
    {
      "midi": 52,
      "hit": false,
      "t": 22842.900937499937,
      "d": 42.035362499995244,
      "v": 99
    },
    {
      "midi": 59,
      "hit": false,
      "t": 22842.900937499937,
      "d": 53.09729999999399,
      "v": 72
    },
    {
      "midi": 64,
      "hit": false,
      "t": 22853.962874999936,
      "d": 53.09729999999399,
      "v": 72
    },
    {
      "midi": 67,
      "hit": false,
      "t": 22865.024812499934,
      "d": 53.09729999999399,
      "v": 72
    },
    {
      "midi": 71,
      "hit": false,
      "t": 22876.086749999933,
      "d": 53.09729999999399,
      "v": 72
    },
    {
      "midi": 36,
      "hit": false,
      "t": 23185.820999999927,
      "d": 11.061937499998749,
      "v": 100
    },
    {
      "midi": 47,
      "hit": false,
      "t": 23185.820999999927,
      "d": 17.699099999997998,
      "v": 82
    },
    {
      "midi": 52,
      "hit": false,
      "t": 23185.820999999927,
      "d": 17.699099999997998,
      "v": 72
    },
    {
      "midi": 40,
      "hit": false,
      "t": 23185.820999999927,
      "d": 53.09729999999763,
      "v": 109
    },
    {
      "midi": 59,
      "hit": false,
      "t": 23185.820999999927,
      "d": 70.79639999999927,
      "v": 72
    },
    {
      "midi": 64,
      "hit": false,
      "t": 23185.820999999927,
      "d": 159.29190000000017,
      "v": 72
    },
    {
      "midi": 71,
      "hit": false,
      "t": 23185.820999999927,
      "d": 159.29190000000017,
      "v": 72
    },
    {
      "midi": 67,
      "hit": false,
      "t": 23185.820999999927,
      "d": 159.29190000000017,
      "v": 72
    },
    {
      "midi": 42,
      "hit": false,
      "t": 23362.81199999993,
      "d": 11.061937499998749,
      "v": 100
    },
    {
      "midi": 36,
      "hit": false,
      "t": 23362.81199999993,
      "d": 11.061937499998749,
      "v": 110
    },
    {
      "midi": 45,
      "hit": false,
      "t": 23362.81199999993,
      "d": 477.8757000000005,
      "v": 124
    },
    {
      "midi": 52,
      "hit": false,
      "t": 23362.81199999993,
      "d": 477.8757000000005,
      "v": 93
    },
    {
      "midi": 57,
      "hit": false,
      "t": 23384.935874999926,
      "d": 455.751825000003,
      "v": 93
    },
    {
      "midi": 60,
      "hit": false,
      "t": 23407.059749999928,
      "d": 477.8757000000005,
      "v": 93
    },
    {
      "midi": 64,
      "hit": false,
      "t": 23429.18362499993,
      "d": 424.77839999999924,
      "v": 93
    },
    {
      "midi": 69,
      "hit": false,
      "t": 23451.30749999993,
      "d": 389.3801999999996,
      "v": 93
    },
    {
      "midi": 43,
      "hit": false,
      "t": 24247.76699999993,
      "d": 11.061937499998749,
      "v": 100
    },
    {
      "midi": 52,
      "hit": false,
      "t": 24247.76699999993,
      "d": 53.09729999999763,
      "v": 70
    },
    {
      "midi": 45,
      "hit": false,
      "t": 24247.76699999993,
      "d": 53.09729999999763,
      "v": 79
    },
    {
      "midi": 64,
      "hit": false,
      "t": 24247.76699999993,
      "d": 53.09729999999763,
      "v": 70
    },
    {
      "midi": 57,
      "hit": false,
      "t": 24247.76699999993,
      "d": 53.09729999999763,
      "v": 70
    },
    {
      "midi": 69,
      "hit": false,
      "t": 24247.76699999993,
      "d": 53.09729999999763,
      "v": 70
    },
    {
      "midi": 60,
      "hit": false,
      "t": 24247.76699999993,
      "d": 53.09729999999763,
      "v": 70
    },
    {
      "midi": 47,
      "hit": false,
      "t": 24258.82893749993,
      "d": 11.061937499998749,
      "v": 100
    },
    {
      "midi": 43,
      "hit": false,
      "t": 24424.75799999993,
      "d": 11.061937499998749,
      "v": 100
    },
    {
      "midi": 45,
      "hit": false,
      "t": 24424.75799999993,
      "d": 247.7873999999938,
      "v": 88
    },
    {
      "midi": 47,
      "hit": false,
      "t": 24435.819937499928,
      "d": 11.061937499998749,
      "v": 100
    },
    {
      "midi": 52,
      "hit": false,
      "t": 24435.819937499928,
      "d": 236.72546249999505,
      "v": 88
    },
    {
      "midi": 57,
      "hit": false,
      "t": 24435.819937499928,
      "d": 247.7873999999938,
      "v": 83
    },
    {
      "midi": 60,
      "hit": false,
      "t": 24446.881874999926,
      "d": 247.7873999999938,
      "v": 83
    },
    {
      "midi": 64,
      "hit": false,
      "t": 24457.943812499925,
      "d": 214.60158749999755,
      "v": 83
    },
    {
      "midi": 69,
      "hit": false,
      "t": 24469.005749999924,
      "d": 247.7873999999938,
      "v": 83
    },
    {
      "midi": 43,
      "hit": false,
      "t": 24778.739999999918,
      "d": 11.061937499998749,
      "v": 100
    },
    {
      "midi": 36,
      "hit": false,
      "t": 24778.739999999918,
      "d": 11.061937499998749,
      "v": 100
    },
    {
      "midi": 65,
      "hit": false,
      "t": 24778.739999999918,
      "d": 318.5837999999967,
      "v": 123
    },
    {
      "midi": 52,
      "hit": false,
      "t": 24778.739999999918,
      "d": 318.5837999999967,
      "v": 91
    },
    {
      "midi": 45,
      "hit": false,
      "t": 24789.801937499917,
      "d": 318.5837999999967,
      "v": 93
    },
    {
      "midi": 57,
      "hit": false,
      "t": 24789.801937499917,
      "d": 318.5837999999967,
      "v": 91
    },
    {
      "midi": 60,
      "hit": false,
      "t": 24800.863874999915,
      "d": 318.5837999999967,
      "v": 91
    },
    {
      "midi": 64,
      "hit": false,
      "t": 24811.925812499914,
      "d": 318.5837999999967,
      "v": 91
    },
    {
      "midi": 69,
      "hit": false,
      "t": 24822.987749999913,
      "d": 283.1856000000007,
      "v": 91
    },
    {
      "midi": 43,
      "hit": false,
      "t": 25132.72199999991,
      "d": 11.061937499998749,
      "v": 100
    },
    {
      "midi": 36,
      "hit": false,
      "t": 25132.72199999991,
      "d": 11.061937499998749,
      "v": 100
    },
    {
      "midi": 67,
      "hit": false,
      "t": 25132.72199999991,
      "d": 247.7873999999938,
      "v": 107
    },
    {
      "midi": 45,
      "hit": false,
      "t": 25132.72199999991,
      "d": 247.7873999999938,
      "v": 83
    },
    {
      "midi": 69,
      "hit": false,
      "t": 25132.72199999991,
      "d": 247.7873999999938,
      "v": 84
    },
    {
      "midi": 64,
      "hit": false,
      "t": 25143.78393749991,
      "d": 247.7873999999938,
      "v": 84
    },
    {
      "midi": 60,
      "hit": false,
      "t": 25154.845874999908,
      "d": 247.7873999999938,
      "v": 84
    },
    {
      "midi": 57,
      "hit": false,
      "t": 25165.907812499907,
      "d": 247.7873999999938,
      "v": 84
    },
    {
      "midi": 52,
      "hit": false,
      "t": 25176.969749999906,
      "d": 214.60158749999755,
      "v": 84
    },
    {
      "midi": 49,
      "hit": false,
      "t": 25486.7039999999,
      "d": 11.061937499998749,
      "v": 110
    },
    {
      "midi": 36,
      "hit": false,
      "t": 25486.7039999999,
      "d": 11.061937499998749,
      "v": 110
    },
    {
      "midi": 41,
      "hit": false,
      "t": 25486.7039999999,
      "d": 477.87569999999323,
      "v": 90
    },
    {
      "midi": 29,
      "hit": false,
      "t": 25486.7039999999,
      "d": 557.5216499999842,
      "v": 119
    },
    {
      "midi": 69,
      "hit": false,
      "t": 25486.7039999999,
      "d": 849.556799999973,
      "v": 123
    },
    {
      "midi": 48,
      "hit": false,
      "t": 25497.7659374999,
      "d": 174.77861249999478,
      "v": 90
    },
    {
      "midi": 53,
      "hit": false,
      "t": 25508.827874999897,
      "d": 174.77861249999478,
      "v": 90
    },
    {
      "midi": 57,
      "hit": false,
      "t": 25519.889812499896,
      "d": 477.87569999999323,
      "v": 90
    },
    {
      "midi": 60,
      "hit": false,
      "t": 25530.951749999895,
      "d": 477.87569999999323,
      "v": 90
    },
    {
      "midi": 65,
      "hit": false,
      "t": 25542.013687499893,
      "d": 424.77839999999924,
      "v": 90
    },
    {
      "midi": 48,
      "hit": false,
      "t": 25840.685999999892,
      "d": 17.699100000001636,
      "v": 82
    },
    {
      "midi": 53,
      "hit": false,
      "t": 25840.685999999892,
      "d": 17.699100000001636,
      "v": 82
    },
    {
      "midi": 54,
      "hit": false,
      "t": 26017.676999999887,
      "d": 11.061937499998749,
      "v": 90
    },
    {
      "midi": 42,
      "hit": false,
      "t": 26017.676999999887,
      "d": 11.061937499998749,
      "v": 100
    },
    {
      "midi": 38,
      "hit": false,
      "t": 26017.676999999887,
      "d": 11.061937499998749,
      "v": 110
    },
    {
      "midi": 41,
      "hit": false,
      "t": 26017.676999999887,
      "d": 53.09729999999399,
      "v": 82
    },
    {
      "midi": 48,
      "hit": false,
      "t": 26028.738937499886,
      "d": 53.09729999999399,
      "v": 82
    },
    {
      "midi": 53,
      "hit": false,
      "t": 26039.800874999884,
      "d": 53.09729999999399,
      "v": 82
    },
    {
      "midi": 57,
      "hit": false,
      "t": 26050.862812499883,
      "d": 53.09729999999399,
      "v": 82
    },
    {
      "midi": 60,
      "hit": false,
      "t": 26061.924749999882,
      "d": 53.09729999999399,
      "v": 82
    },
    {
      "midi": 65,
      "hit": false,
      "t": 26072.98668749988,
      "d": 53.09729999999399,
      "v": 82
    },
    {
      "midi": 44,
      "hit": false,
      "t": 26371.658999999872,
      "d": 11.061937499998749,
      "v": 100
    },
    {
      "midi": 36,
      "hit": false,
      "t": 26371.658999999872,
      "d": 11.061937499998749,
      "v": 100
    },
    {
      "midi": 48,
      "hit": false,
      "t": 26371.658999999872,
      "d": 17.699099999997998,
      "v": 90
    },
    {
      "midi": 53,
      "hit": false,
      "t": 26371.658999999872,
      "d": 17.699099999997998,
      "v": 90
    },
    {
      "midi": 41,
      "hit": false,
      "t": 26371.658999999872,
      "d": 159.29189999999653,
      "v": 90
    },
    {
      "midi": 60,
      "hit": false,
      "t": 26371.658999999872,
      "d": 159.29189999999653,
      "v": 90
    },
    {
      "midi": 57,
      "hit": false,
      "t": 26371.658999999872,
      "d": 159.29189999999653,
      "v": 90
    },
    {
      "midi": 65,
      "hit": false,
      "t": 26371.658999999872,
      "d": 159.29189999999653,
      "v": 90
    },
    {
      "midi": 69,
      "hit": false,
      "t": 26371.658999999872,
      "d": 1132.7423999999664,
      "v": 119
    },
    {
      "midi": 64,
      "hit": false,
      "t": 26371.658999999872,
      "d": 1132.7423999999664,
      "v": 107
    },
    {
      "midi": 42,
      "hit": false,
      "t": 26548.64999999987,
      "d": 11.061937499998749,
      "v": 100
    },
    {
      "midi": 41,
      "hit": false,
      "t": 26548.64999999987,
      "d": 53.09729999999399,
      "v": 82
    },
    {
      "midi": 48,
      "hit": false,
      "t": 26559.71193749987,
      "d": 53.09729999999399,
      "v": 82
    },
    {
      "midi": 53,
      "hit": false,
      "t": 26570.773874999868,
      "d": 53.09729999999399,
      "v": 82
    },
    {
      "midi": 57,
      "hit": false,
      "t": 26581.835812499867,
      "d": 53.09729999999399,
      "v": 82
    },
    {
      "midi": 60,
      "hit": false,
      "t": 26592.897749999865,
      "d": 53.09729999999399,
      "v": 82
    },
    {
      "midi": 65,
      "hit": false,
      "t": 26603.959687499864,
      "d": 53.09729999999399,
      "v": 82
    },
    {
      "midi": 44,
      "hit": false,
      "t": 26902.631999999856,
      "d": 11.061937499998749,
      "v": 100
    },
    {
      "midi": 36,
      "hit": false,
      "t": 26902.631999999856,
      "d": 11.061937499998749,
      "v": 100
    },
    {
      "midi": 48,
      "hit": false,
      "t": 26902.631999999856,
      "d": 17.699099999997998,
      "v": 90
    },
    {
      "midi": 53,
      "hit": false,
      "t": 26902.631999999856,
      "d": 17.699099999997998,
      "v": 90
    },
    {
      "midi": 60,
      "hit": false,
      "t": 26902.631999999856,
      "d": 159.29189999999653,
      "v": 90
    },
    {
      "midi": 41,
      "hit": false,
      "t": 26902.631999999856,
      "d": 159.29189999999653,
      "v": 90
    },
    {
      "midi": 57,
      "hit": false,
      "t": 26902.631999999856,
      "d": 159.29189999999653,
      "v": 90
    },
    {
      "midi": 65,
      "hit": false,
      "t": 26902.631999999856,
      "d": 159.29189999999653,
      "v": 90
    },
    {
      "midi": 38,
      "hit": false,
      "t": 27079.622999999854,
      "d": 11.061937499998749,
      "v": 110
    },
    {
      "midi": 54,
      "hit": false,
      "t": 27079.622999999854,
      "d": 11.061937499998749,
      "v": 90
    },
    {
      "midi": 42,
      "hit": false,
      "t": 27079.622999999854,
      "d": 11.061937499998749,
      "v": 100
    },
    {
      "midi": 41,
      "hit": false,
      "t": 27079.622999999854,
      "d": 53.09729999999399,
      "v": 82
    },
    {
      "midi": 48,
      "hit": false,
      "t": 27090.684937499853,
      "d": 53.09729999999399,
      "v": 82
    },
    {
      "midi": 53,
      "hit": false,
      "t": 27101.74687499985,
      "d": 53.09729999999399,
      "v": 82
    },
    {
      "midi": 57,
      "hit": false,
      "t": 27112.80881249985,
      "d": 53.09729999999399,
      "v": 82
    },
    {
      "midi": 60,
      "hit": false,
      "t": 27123.87074999985,
      "d": 53.09729999999399,
      "v": 82
    },
    {
      "midi": 65,
      "hit": false,
      "t": 27134.932687499848,
      "d": 53.09729999999399,
      "v": 82
    },
    {
      "midi": 44,
      "hit": false,
      "t": 27433.60499999984,
      "d": 11.061937499998749,
      "v": 100
    },
    {
      "midi": 36,
      "hit": false,
      "t": 27433.60499999984,
      "d": 11.061937499998749,
      "v": 70
    },
    {
      "midi": 48,
      "hit": false,
      "t": 27433.60499999984,
      "d": 17.699099999997998,
      "v": 90
    },
    {
      "midi": 53,
      "hit": false,
      "t": 27433.60499999984,
      "d": 17.699099999997998,
      "v": 90
    },
    {
      "midi": 33,
      "hit": false,
      "t": 27433.60499999984,
      "d": 53.09729999999763,
      "v": 105
    },
    {
      "midi": 60,
      "hit": false,
      "t": 27433.60499999984,
      "d": 159.29190000000017,
      "v": 90
    },
    {
      "midi": 41,
      "hit": false,
      "t": 27433.60499999984,
      "d": 159.29190000000017,
      "v": 90
    },
    {
      "midi": 57,
      "hit": false,
      "t": 27433.60499999984,
      "d": 159.29190000000017,
      "v": 90
    },
    {
      "midi": 65,
      "hit": false,
      "t": 27433.60499999984,
      "d": 159.29190000000017,
      "v": 90
    },
    {
      "midi": 36,
      "hit": false,
      "t": 27610.59599999984,
      "d": 11.061937499998749,
      "v": 110
    },
    {
      "midi": 42,
      "hit": false,
      "t": 27610.59599999984,
      "d": 11.061937499998749,
      "v": 100
    },
    {
      "midi": 29,
      "hit": false,
      "t": 27610.59599999984,
      "d": 371.6810999999907,
      "v": 120
    },
    {
      "midi": 41,
      "hit": false,
      "t": 27610.59599999984,
      "d": 477.8756999999896,
      "v": 90
    },
    {
      "midi": 72,
      "hit": false,
      "t": 27610.59599999984,
      "d": 955.7513999999683,
      "v": 118
    },
    {
      "midi": 64,
      "hit": false,
      "t": 27610.59599999984,
      "d": 955.7513999999683,
      "v": 118
    },
    {
      "midi": 48,
      "hit": false,
      "t": 27621.65793749984,
      "d": 174.77861249999478,
      "v": 90
    },
    {
      "midi": 53,
      "hit": false,
      "t": 27632.71987499984,
      "d": 174.77861249999478,
      "v": 90
    },
    {
      "midi": 57,
      "hit": false,
      "t": 27643.781812499838,
      "d": 477.8756999999896,
      "v": 90
    },
    {
      "midi": 60,
      "hit": false,
      "t": 27654.843749999836,
      "d": 477.8756999999896,
      "v": 90
    },
    {
      "midi": 65,
      "hit": false,
      "t": 27665.905687499835,
      "d": 424.7783999999956,
      "v": 90
    },
    {
      "midi": 44,
      "hit": false,
      "t": 27964.577999999834,
      "d": 11.061937499998749,
      "v": 100
    },
    {
      "midi": 48,
      "hit": false,
      "t": 27964.577999999834,
      "d": 17.699099999997998,
      "v": 82
    },
    {
      "midi": 53,
      "hit": false,
      "t": 27964.577999999834,
      "d": 17.699099999997998,
      "v": 82
    },
    {
      "midi": 38,
      "hit": false,
      "t": 28141.568999999825,
      "d": 11.061937499998749,
      "v": 110
    },
    {
      "midi": 54,
      "hit": false,
      "t": 28141.568999999825,
      "d": 11.061937499998749,
      "v": 90
    },
    {
      "midi": 42,
      "hit": false,
      "t": 28141.568999999825,
      "d": 11.061937499998749,
      "v": 100
    },
    {
      "midi": 41,
      "hit": false,
      "t": 28141.568999999825,
      "d": 53.09729999999399,
      "v": 82
    },
    {
      "midi": 29,
      "hit": false,
      "t": 28141.568999999825,
      "d": 278.76082499998665,
      "v": 120
    },
    {
      "midi": 48,
      "hit": false,
      "t": 28152.630937499824,
      "d": 53.09729999999399,
      "v": 82
    },
    {
      "midi": 53,
      "hit": false,
      "t": 28163.692874999822,
      "d": 53.09729999999399,
      "v": 82
    },
    {
      "midi": 57,
      "hit": false,
      "t": 28174.75481249982,
      "d": 53.09729999999399,
      "v": 82
    },
    {
      "midi": 60,
      "hit": false,
      "t": 28185.81674999982,
      "d": 53.09729999999399,
      "v": 82
    },
    {
      "midi": 65,
      "hit": false,
      "t": 28196.87868749982,
      "d": 53.09729999999399,
      "v": 82
    },
    {
      "midi": 44,
      "hit": false,
      "t": 28495.55099999981,
      "d": 11.061937499998749,
      "v": 100
    },
    {
      "midi": 36,
      "hit": false,
      "t": 28495.55099999981,
      "d": 11.061937499998749,
      "v": 100
    },
    {
      "midi": 48,
      "hit": false,
      "t": 28495.55099999981,
      "d": 17.699099999997998,
      "v": 90
    },
    {
      "midi": 53,
      "hit": false,
      "t": 28495.55099999981,
      "d": 17.699099999997998,
      "v": 90
    },
    {
      "midi": 69,
      "hit": false,
      "t": 28495.55099999981,
      "d": 159.29190000000017,
      "v": 104
    },
    {
      "midi": 33,
      "hit": false,
      "t": 28495.55099999981,
      "d": 159.29190000000017,
      "v": 106
    },
    {
      "midi": 60,
      "hit": false,
      "t": 28495.55099999981,
      "d": 159.29190000000017,
      "v": 90
    },
    {
      "midi": 41,
      "hit": false,
      "t": 28495.55099999981,
      "d": 159.29190000000017,
      "v": 90
    },
    {
      "midi": 57,
      "hit": false,
      "t": 28495.55099999981,
      "d": 159.29190000000017,
      "v": 90
    },
    {
      "midi": 65,
      "hit": false,
      "t": 28495.55099999981,
      "d": 159.29190000000017,
      "v": 90
    },
    {
      "midi": 42,
      "hit": false,
      "t": 28672.541999999812,
      "d": 11.061937499998749,
      "v": 100
    },
    {
      "midi": 41,
      "hit": false,
      "t": 28672.541999999812,
      "d": 53.09729999999399,
      "v": 82
    },
    {
      "midi": 69,
      "hit": false,
      "t": 28672.541999999812,
      "d": 318.5837999999858,
      "v": 123
    },
    {
      "midi": 35,
      "hit": false,
      "t": 28672.541999999812,
      "d": 371.6810999999834,
      "v": 119
    },
    {
      "midi": 63,
      "hit": false,
      "t": 28672.541999999812,
      "d": 955.7513999999683,
      "v": 110
    },
    {
      "midi": 48,
      "hit": false,
      "t": 28683.60393749981,
      "d": 53.09729999999399,
      "v": 82
    },
    {
      "midi": 53,
      "hit": false,
      "t": 28694.66587499981,
      "d": 53.09729999999399,
      "v": 82
    },
    {
      "midi": 57,
      "hit": false,
      "t": 28705.72781249981,
      "d": 53.09729999999399,
      "v": 82
    },
    {
      "midi": 60,
      "hit": false,
      "t": 28716.789749999807,
      "d": 53.09729999999399,
      "v": 82
    },
    {
      "midi": 65,
      "hit": false,
      "t": 28727.851687499806,
      "d": 53.09729999999399,
      "v": 82
    },
    {
      "midi": 44,
      "hit": false,
      "t": 29026.523999999798,
      "d": 11.061937499998749,
      "v": 100
    },
    {
      "midi": 36,
      "hit": false,
      "t": 29026.523999999798,
      "d": 11.061937499998749,
      "v": 100
    },
    {
      "midi": 48,
      "hit": false,
      "t": 29026.523999999798,
      "d": 17.699099999997998,
      "v": 90
    },
    {
      "midi": 53,
      "hit": false,
      "t": 29026.523999999798,
      "d": 17.699099999997998,
      "v": 90
    },
    {
      "midi": 71,
      "hit": false,
      "t": 29026.523999999798,
      "d": 159.29189999999653,
      "v": 117
    },
    {
      "midi": 60,
      "hit": false,
      "t": 29026.523999999798,
      "d": 159.29189999999653,
      "v": 90
    },
    {
      "midi": 41,
      "hit": false,
      "t": 29026.523999999798,
      "d": 159.29189999999653,
      "v": 90
    },
    {
      "midi": 57,
      "hit": false,
      "t": 29026.523999999798,
      "d": 159.29189999999653,
      "v": 90
    },
    {
      "midi": 65,
      "hit": false,
      "t": 29026.523999999798,
      "d": 159.29189999999653,
      "v": 90
    },
    {
      "midi": 38,
      "hit": false,
      "t": 29203.514999999796,
      "d": 11.061937499998749,
      "v": 110
    },
    {
      "midi": 54,
      "hit": false,
      "t": 29203.514999999796,
      "d": 11.061937499998749,
      "v": 90
    },
    {
      "midi": 42,
      "hit": false,
      "t": 29203.514999999796,
      "d": 11.061937499998749,
      "v": 100
    },
    {
      "midi": 41,
      "hit": false,
      "t": 29203.514999999796,
      "d": 53.09729999999399,
      "v": 82
    },
    {
      "midi": 72,
      "hit": false,
      "t": 29203.514999999796,
      "d": 318.5837999999858,
      "v": 123
    },
    {
      "midi": 35,
      "hit": false,
      "t": 29203.514999999796,
      "d": 371.6810999999834,
      "v": 119
    },
    {
      "midi": 48,
      "hit": false,
      "t": 29214.576937499794,
      "d": 53.09729999999399,
      "v": 82
    },
    {
      "midi": 53,
      "hit": false,
      "t": 29225.638874999793,
      "d": 53.09729999999399,
      "v": 82
    },
    {
      "midi": 57,
      "hit": false,
      "t": 29236.700812499792,
      "d": 53.09729999999399,
      "v": 82
    },
    {
      "midi": 60,
      "hit": false,
      "t": 29247.76274999979,
      "d": 53.09729999999399,
      "v": 82
    },
    {
      "midi": 65,
      "hit": false,
      "t": 29258.82468749979,
      "d": 53.09729999999399,
      "v": 82
    },
    {
      "midi": 44,
      "hit": false,
      "t": 29557.49699999978,
      "d": 11.061937499998749,
      "v": 100
    },
    {
      "midi": 36,
      "hit": false,
      "t": 29557.49699999978,
      "d": 11.061937499998749,
      "v": 70
    },
    {
      "midi": 48,
      "hit": false,
      "t": 29557.49699999978,
      "d": 17.699099999997998,
      "v": 90
    },
    {
      "midi": 53,
      "hit": false,
      "t": 29557.49699999978,
      "d": 17.699099999997998,
      "v": 90
    },
    {
      "midi": 71,
      "hit": false,
      "t": 29557.49699999978,
      "d": 70.79639999999927,
      "v": 108
    },
    {
      "midi": 60,
      "hit": false,
      "t": 29557.49699999978,
      "d": 159.29190000000017,
      "v": 90
    },
    {
      "midi": 41,
      "hit": false,
      "t": 29557.49699999978,
      "d": 159.29190000000017,
      "v": 90
    },
    {
      "midi": 57,
      "hit": false,
      "t": 29557.49699999978,
      "d": 159.29190000000017,
      "v": 90
    },
    {
      "midi": 65,
      "hit": false,
      "t": 29557.49699999978,
      "d": 159.29190000000017,
      "v": 90
    },
    {
      "midi": 36,
      "hit": false,
      "t": 29734.487999999783,
      "d": 11.061937499998749,
      "v": 110
    },
    {
      "midi": 42,
      "hit": false,
      "t": 29734.487999999783,
      "d": 11.061937499998749,
      "v": 100
    },
    {
      "midi": 40,
      "hit": false,
      "t": 29734.487999999783,
      "d": 477.8756999999896,
      "v": 90
    },
    {
      "midi": 67,
      "hit": false,
      "t": 29734.487999999783,
      "d": 743.3621999999668,
      "v": 121
    },
    {
      "midi": 74,
      "hit": false,
      "t": 29734.487999999783,
      "d": 849.5567999999657,
      "v": 121
    },
    {
      "midi": 47,
      "hit": false,
      "t": 29745.54993749978,
      "d": 174.77861249999478,
      "v": 90
    },
    {
      "midi": 52,
      "hit": false,
      "t": 29756.61187499978,
      "d": 174.77861249999478,
      "v": 90
    },
    {
      "midi": 55,
      "hit": false,
      "t": 29767.67381249978,
      "d": 477.8756999999896,
      "v": 90
    },
    {
      "midi": 59,
      "hit": false,
      "t": 29778.735749999778,
      "d": 477.8756999999896,
      "v": 90
    },
    {
      "midi": 64,
      "hit": false,
      "t": 29789.797687499777,
      "d": 424.7783999999956,
      "v": 90
    },
    {
      "midi": 44,
      "hit": false,
      "t": 30088.469999999776,
      "d": 11.061937499998749,
      "v": 100
    },
    {
      "midi": 47,
      "hit": false,
      "t": 30088.469999999776,
      "d": 17.699099999997998,
      "v": 82
    },
    {
      "midi": 52,
      "hit": false,
      "t": 30088.469999999776,
      "d": 17.699099999997998,
      "v": 82
    },
    {
      "midi": 38,
      "hit": false,
      "t": 30265.460999999766,
      "d": 11.061937499998749,
      "v": 110
    },
    {
      "midi": 54,
      "hit": false,
      "t": 30265.460999999766,
      "d": 11.061937499998749,
      "v": 90
    },
    {
      "midi": 42,
      "hit": false,
      "t": 30265.460999999766,
      "d": 11.061937499998749,
      "v": 100
    },
    {
      "midi": 40,
      "hit": false,
      "t": 30265.460999999766,
      "d": 26.548649999996996,
      "v": 82
    },
    {
      "midi": 47,
      "hit": false,
      "t": 30276.522937499765,
      "d": 53.09729999999399,
      "v": 82
    },
    {
      "midi": 52,
      "hit": false,
      "t": 30287.584874999764,
      "d": 53.09729999999399,
      "v": 82
    },
    {
      "midi": 55,
      "hit": false,
      "t": 30298.646812499763,
      "d": 53.09729999999399,
      "v": 82
    },
    {
      "midi": 59,
      "hit": false,
      "t": 30309.70874999976,
      "d": 53.09729999999399,
      "v": 82
    },
    {
      "midi": 64,
      "hit": false,
      "t": 30320.77068749976,
      "d": 53.09729999999399,
      "v": 82
    },
    {
      "midi": 44,
      "hit": false,
      "t": 30619.44299999975,
      "d": 11.061937499998749,
      "v": 100
    },
    {
      "midi": 36,
      "hit": false,
      "t": 30619.44299999975,
      "d": 11.061937499998749,
      "v": 100
    },
    {
      "midi": 47,
      "hit": false,
      "t": 30619.44299999975,
      "d": 17.699099999997998,
      "v": 90
    },
    {
      "midi": 52,
      "hit": false,
      "t": 30619.44299999975,
      "d": 17.699099999997998,
      "v": 90
    },
    {
      "midi": 38,
      "hit": false,
      "t": 30619.44299999975,
      "d": 159.29189999999653,
      "v": 109
    },
    {
      "midi": 59,
      "hit": false,
      "t": 30619.44299999975,
      "d": 159.29189999999653,
      "v": 90
    },
    {
      "midi": 40,
      "hit": false,
      "t": 30619.44299999975,
      "d": 159.29189999999653,
      "v": 90
    },
    {
      "midi": 55,
      "hit": false,
      "t": 30619.44299999975,
      "d": 159.29189999999653,
      "v": 90
    },
    {
      "midi": 64,
      "hit": false,
      "t": 30619.44299999975,
      "d": 159.29189999999653,
      "v": 90
    },
    {
      "midi": 67,
      "hit": false,
      "t": 30619.44299999975,
      "d": 1132.7423999999664,
      "v": 111
    },
    {
      "midi": 71,
      "hit": false,
      "t": 30619.44299999975,
      "d": 1132.7423999999664,
      "v": 118
    },
    {
      "midi": 42,
      "hit": false,
      "t": 30796.433999999746,
      "d": 11.061937499998749,
      "v": 100
    },
    {
      "midi": 40,
      "hit": false,
      "t": 30796.433999999746,
      "d": 53.09729999999399,
      "v": 82
    },
    {
      "midi": 47,
      "hit": false,
      "t": 30807.495937499745,
      "d": 53.09729999999399,
      "v": 82
    },
    {
      "midi": 52,
      "hit": false,
      "t": 30818.557874999744,
      "d": 53.09729999999399,
      "v": 82
    },
    {
      "midi": 55,
      "hit": false,
      "t": 30829.619812499743,
      "d": 53.09729999999399,
      "v": 82
    },
    {
      "midi": 59,
      "hit": false,
      "t": 30840.68174999974,
      "d": 53.09729999999399,
      "v": 82
    },
    {
      "midi": 64,
      "hit": false,
      "t": 30851.74368749974,
      "d": 53.09729999999399,
      "v": 82
    },
    {
      "midi": 44,
      "hit": false,
      "t": 31150.415999999732,
      "d": 11.061937499998749,
      "v": 100
    },
    {
      "midi": 36,
      "hit": false,
      "t": 31150.415999999732,
      "d": 11.061937499998749,
      "v": 100
    },
    {
      "midi": 47,
      "hit": false,
      "t": 31150.415999999732,
      "d": 17.699099999997998,
      "v": 90
    },
    {
      "midi": 52,
      "hit": false,
      "t": 31150.415999999732,
      "d": 17.699099999997998,
      "v": 90
    },
    {
      "midi": 40,
      "hit": false,
      "t": 31150.415999999732,
      "d": 159.29189999999653,
      "v": 90
    },
    {
      "midi": 59,
      "hit": false,
      "t": 31150.415999999732,
      "d": 159.29189999999653,
      "v": 90
    },
    {
      "midi": 55,
      "hit": false,
      "t": 31150.415999999732,
      "d": 159.29189999999653,
      "v": 90
    },
    {
      "midi": 64,
      "hit": false,
      "t": 31150.415999999732,
      "d": 159.29189999999653,
      "v": 90
    },
    {
      "midi": 38,
      "hit": false,
      "t": 31327.40699999973,
      "d": 11.061937499998749,
      "v": 110
    },
    {
      "midi": 54,
      "hit": false,
      "t": 31327.40699999973,
      "d": 11.061937499998749,
      "v": 90
    },
    {
      "midi": 42,
      "hit": false,
      "t": 31327.40699999973,
      "d": 11.061937499998749,
      "v": 100
    },
    {
      "midi": 40,
      "hit": false,
      "t": 31327.40699999973,
      "d": 53.09729999999399,
      "v": 82
    },
    {
      "midi": 47,
      "hit": false,
      "t": 31338.46893749973,
      "d": 53.09729999999399,
      "v": 82
    },
    {
      "midi": 52,
      "hit": false,
      "t": 31349.530874999728,
      "d": 53.09729999999399,
      "v": 82
    },
    {
      "midi": 55,
      "hit": false,
      "t": 31360.592812499726,
      "d": 53.09729999999399,
      "v": 82
    },
    {
      "midi": 59,
      "hit": false,
      "t": 31371.654749999725,
      "d": 53.09729999999399,
      "v": 82
    },
    {
      "midi": 64,
      "hit": false,
      "t": 31382.716687499724,
      "d": 53.09729999999399,
      "v": 82
    },
    {
      "midi": 36,
      "hit": false,
      "t": 31681.388999999715,
      "d": 11.061937499998749,
      "v": 70
    },
    {
      "midi": 44,
      "hit": false,
      "t": 31681.388999999715,
      "d": 11.061937499998749,
      "v": 100
    },
    {
      "midi": 47,
      "hit": false,
      "t": 31681.388999999715,
      "d": 17.699099999997998,
      "v": 90
    },
    {
      "midi": 52,
      "hit": false,
      "t": 31681.388999999715,
      "d": 17.699099999997998,
      "v": 90
    },
    {
      "midi": 35,
      "hit": false,
      "t": 31681.388999999715,
      "d": 53.09729999999763,
      "v": 112
    },
    {
      "midi": 64,
      "hit": false,
      "t": 31681.388999999715,
      "d": 70.79639999999927,
      "v": 90
    },
    {
      "midi": 59,
      "hit": false,
      "t": 31681.388999999715,
      "d": 159.29190000000017,
      "v": 90
    },
    {
      "midi": 40,
      "hit": false,
      "t": 31681.388999999715,
      "d": 159.29190000000017,
      "v": 90
    },
    {
      "midi": 55,
      "hit": false,
      "t": 31681.388999999715,
      "d": 159.29190000000017,
      "v": 90
    },
    {
      "midi": 36,
      "hit": false,
      "t": 31858.379999999717,
      "d": 11.061937499998749,
      "v": 110
    },
    {
      "midi": 42,
      "hit": false,
      "t": 31858.379999999717,
      "d": 11.061937499998749,
      "v": 100
    },
    {
      "midi": 47,
      "hit": false,
      "t": 31858.379999999717,
      "d": 185.84054999999353,
      "v": 99
    },
    {
      "midi": 45,
      "hit": false,
      "t": 31858.379999999717,
      "d": 477.8756999999896,
      "v": 90
    },
    {
      "midi": 33,
      "hit": false,
      "t": 31858.379999999717,
      "d": 557.5216499999806,
      "v": 122
    },
    {
      "midi": 52,
      "hit": false,
      "t": 31869.441937499716,
      "d": 185.84054999999353,
      "v": 90
    },
    {
      "midi": 57,
      "hit": false,
      "t": 31880.503874999715,
      "d": 477.8756999999896,
      "v": 90
    },
    {
      "midi": 60,
      "hit": false,
      "t": 31891.565812499714,
      "d": 477.8756999999896,
      "v": 90
    },
    {
      "midi": 64,
      "hit": false,
      "t": 31902.627749999712,
      "d": 477.8756999999896,
      "v": 90
    },
    {
      "midi": 69,
      "hit": false,
      "t": 31913.68968749971,
      "d": 424.7783999999956,
      "v": 90
    },
    {
      "midi": 44,
      "hit": false,
      "t": 32212.36199999971,
      "d": 11.061937499998749,
      "v": 100
    },
    {
      "midi": 47,
      "hit": false,
      "t": 32212.36199999971,
      "d": 17.699099999997998,
      "v": 82
    },
    {
      "midi": 52,
      "hit": false,
      "t": 32212.36199999971,
      "d": 17.699099999997998,
      "v": 82
    },
    {
      "midi": 38,
      "hit": false,
      "t": 32389.3529999997,
      "d": 11.061937499998749,
      "v": 110
    },
    {
      "midi": 54,
      "hit": false,
      "t": 32389.3529999997,
      "d": 11.061937499998749,
      "v": 90
    },
    {
      "midi": 42,
      "hit": false,
      "t": 32389.3529999997,
      "d": 11.061937499998749,
      "v": 100
    },
    {
      "midi": 45,
      "hit": false,
      "t": 32389.3529999997,
      "d": 53.09729999999399,
      "v": 82
    },
    {
      "midi": 47,
      "hit": false,
      "t": 32389.3529999997,
      "d": 185.84054999998625,
      "v": 99
    },
    {
      "midi": 52,
      "hit": false,
      "t": 32400.4149374997,
      "d": 53.09729999999399,
      "v": 82
    },
    {
      "midi": 57,
      "hit": false,
      "t": 32411.4768749997,
      "d": 53.09729999999399,
      "v": 82
    },
    {
      "midi": 60,
      "hit": false,
      "t": 32422.538812499697,
      "d": 53.09729999999399,
      "v": 82
    },
    {
      "midi": 64,
      "hit": false,
      "t": 32433.600749999696,
      "d": 53.09729999999399,
      "v": 82
    },
    {
      "midi": 69,
      "hit": false,
      "t": 32444.662687499695,
      "d": 53.09729999999399,
      "v": 82
    },
    {
      "midi": 44,
      "hit": false,
      "t": 32743.334999999686,
      "d": 11.061937499998749,
      "v": 100
    },
    {
      "midi": 36,
      "hit": false,
      "t": 32743.334999999686,
      "d": 11.061937499998749,
      "v": 100
    },
    {
      "midi": 47,
      "hit": false,
      "t": 32743.334999999686,
      "d": 17.699099999997998,
      "v": 82
    },
    {
      "midi": 52,
      "hit": false,
      "t": 32743.334999999686,
      "d": 17.699099999997998,
      "v": 90
    },
    {
      "midi": 33,
      "hit": false,
      "t": 32743.334999999686,
      "d": 159.29189999999653,
      "v": 112
    },
    {
      "midi": 64,
      "hit": false,
      "t": 32743.334999999686,
      "d": 159.29189999999653,
      "v": 90
    },
    {
      "midi": 45,
      "hit": false,
      "t": 32743.334999999686,
      "d": 159.29189999999653,
      "v": 90
    },
    {
      "midi": 60,
      "hit": false,
      "t": 32743.334999999686,
      "d": 159.29189999999653,
      "v": 90
    },
    {
      "midi": 69,
      "hit": false,
      "t": 32743.334999999686,
      "d": 159.29189999999653,
      "v": 90
    },
    {
      "midi": 57,
      "hit": false,
      "t": 32743.334999999686,
      "d": 159.29189999999653,
      "v": 90
    },
    {
      "midi": 42,
      "hit": false,
      "t": 32920.32599999968,
      "d": 11.061937500002387,
      "v": 100
    },
    {
      "midi": 45,
      "hit": false,
      "t": 32920.32599999968,
      "d": 53.097300000008545,
      "v": 82
    },
    {
      "midi": 47,
      "hit": false,
      "t": 32920.32599999968,
      "d": 185.84055000002263,
      "v": 99
    },
    {
      "midi": 52,
      "hit": false,
      "t": 32931.38793749968,
      "d": 53.097300000008545,
      "v": 82
    },
    {
      "midi": 57,
      "hit": false,
      "t": 32942.449874999686,
      "d": 53.097300000008545,
      "v": 82
    },
    {
      "midi": 60,
      "hit": false,
      "t": 32953.51181249969,
      "d": 53.097300000008545,
      "v": 82
    },
    {
      "midi": 64,
      "hit": false,
      "t": 32964.57374999969,
      "d": 53.097300000008545,
      "v": 82
    },
    {
      "midi": 69,
      "hit": false,
      "t": 32975.63568749969,
      "d": 53.097300000008545,
      "v": 82
    },
    {
      "midi": 44,
      "hit": false,
      "t": 33274.307999999706,
      "d": 11.061937500002387,
      "v": 100
    },
    {
      "midi": 36,
      "hit": false,
      "t": 33274.307999999706,
      "d": 11.061937500002387,
      "v": 100
    },
    {
      "midi": 47,
      "hit": false,
      "t": 33274.307999999706,
      "d": 17.699100000005274,
      "v": 82
    },
    {
      "midi": 52,
      "hit": false,
      "t": 33274.307999999706,
      "d": 17.699100000005274,
      "v": 90
    },
    {
      "midi": 62,
      "hit": false,
      "t": 33274.307999999706,
      "d": 159.2919000000038,
      "v": 111
    },
    {
      "midi": 64,
      "hit": false,
      "t": 33274.307999999706,
      "d": 159.2919000000038,
      "v": 90
    },
    {
      "midi": 45,
      "hit": false,
      "t": 33274.307999999706,
      "d": 159.2919000000038,
      "v": 90
    },
    {
      "midi": 60,
      "hit": false,
      "t": 33274.307999999706,
      "d": 159.2919000000038,
      "v": 90
    },
    {
      "midi": 69,
      "hit": false,
      "t": 33274.307999999706,
      "d": 159.2919000000038,
      "v": 90
    },
    {
      "midi": 57,
      "hit": false,
      "t": 33274.307999999706,
      "d": 159.2919000000038,
      "v": 90
    },
    {
      "midi": 33,
      "hit": false,
      "t": 33274.307999999706,
      "d": 318.58380000002217,
      "v": 121
    },
    {
      "midi": 38,
      "hit": false,
      "t": 33451.29899999971,
      "d": 11.061937500002387,
      "v": 110
    },
    {
      "midi": 54,
      "hit": false,
      "t": 33451.29899999971,
      "d": 11.061937500002387,
      "v": 90
    },
    {
      "midi": 42,
      "hit": false,
      "t": 33451.29899999971,
      "d": 11.061937500002387,
      "v": 100
    },
    {
      "midi": 45,
      "hit": false,
      "t": 33451.29899999971,
      "d": 53.097300000008545,
      "v": 82
    },
    {
      "midi": 47,
      "hit": false,
      "t": 33451.29899999971,
      "d": 185.84055000002263,
      "v": 99
    },
    {
      "midi": 52,
      "hit": false,
      "t": 33462.36093749971,
      "d": 53.097300000008545,
      "v": 82
    },
    {
      "midi": 57,
      "hit": false,
      "t": 33473.42287499971,
      "d": 53.097300000008545,
      "v": 82
    },
    {
      "midi": 60,
      "hit": false,
      "t": 33484.484812499715,
      "d": 53.097300000008545,
      "v": 82
    },
    {
      "midi": 64,
      "hit": false,
      "t": 33495.54674999972,
      "d": 53.097300000008545,
      "v": 82
    },
    {
      "midi": 69,
      "hit": false,
      "t": 33506.60868749972,
      "d": 53.097300000008545,
      "v": 82
    },
    {
      "midi": 44,
      "hit": false,
      "t": 33805.28099999973,
      "d": 11.061937500002387,
      "v": 100
    },
    {
      "midi": 36,
      "hit": false,
      "t": 33805.28099999973,
      "d": 11.061937500002387,
      "v": 70
    },
    {
      "midi": 47,
      "hit": false,
      "t": 33805.28099999973,
      "d": 17.699100000005274,
      "v": 82
    },
    {
      "midi": 52,
      "hit": false,
      "t": 33805.28099999973,
      "d": 17.699100000005274,
      "v": 90
    },
    {
      "midi": 28,
      "hit": false,
      "t": 33805.28099999973,
      "d": 53.097300000008545,
      "v": 108
    },
    {
      "midi": 65,
      "hit": false,
      "t": 33805.28099999973,
      "d": 159.29190000001108,
      "v": 111
    },
    {
      "midi": 64,
      "hit": false,
      "t": 33805.28099999973,
      "d": 159.29190000001108,
      "v": 90
    },
    {
      "midi": 45,
      "hit": false,
      "t": 33805.28099999973,
      "d": 159.29190000001108,
      "v": 90
    },
    {
      "midi": 60,
      "hit": false,
      "t": 33805.28099999973,
      "d": 159.29190000001108,
      "v": 90
    },
    {
      "midi": 69,
      "hit": false,
      "t": 33805.28099999973,
      "d": 159.29190000001108,
      "v": 90
    },
    {
      "midi": 57,
      "hit": false,
      "t": 33805.28099999973,
      "d": 159.29190000001108,
      "v": 90
    },
    {
      "midi": 36,
      "hit": false,
      "t": 33982.27199999974,
      "d": 11.061937500002387,
      "v": 110
    },
    {
      "midi": 42,
      "hit": false,
      "t": 33982.27199999974,
      "d": 11.061937500002387,
      "v": 100
    },
    {
      "midi": 48,
      "hit": false,
      "t": 33982.27199999974,
      "d": 185.84055000001536,
      "v": 99
    },
    {
      "midi": 45,
      "hit": false,
      "t": 33982.27199999974,
      "d": 477.875700000026,
      "v": 90
    },
    {
      "midi": 65,
      "hit": false,
      "t": 33982.27199999974,
      "d": 1911.5028000001112,
      "v": 105
    },
    {
      "midi": 53,
      "hit": false,
      "t": 33993.333937499745,
      "d": 185.84055000001536,
      "v": 99
    },
    {
      "midi": 52,
      "hit": false,
      "t": 33993.333937499745,
      "d": 477.875700000026,
      "v": 90
    },
    {
      "midi": 57,
      "hit": false,
      "t": 34004.39587499975,
      "d": 477.875700000026,
      "v": 90
    },
    {
      "midi": 60,
      "hit": false,
      "t": 34015.45781249975,
      "d": 477.875700000026,
      "v": 90
    },
    {
      "midi": 64,
      "hit": false,
      "t": 34026.51974999975,
      "d": 274.33605000000534,
      "v": 90
    },
    {
      "midi": 69,
      "hit": false,
      "t": 34037.581687499754,
      "d": 424.7784000000174,
      "v": 90
    },
    {
      "midi": 44,
      "hit": false,
      "t": 34336.25399999976,
      "d": 11.061937500002387,
      "v": 100
    },
    {
      "midi": 48,
      "hit": false,
      "t": 34336.25399999976,
      "d": 17.699100000005274,
      "v": 82
    },
    {
      "midi": 53,
      "hit": false,
      "t": 34336.25399999976,
      "d": 17.699100000005274,
      "v": 82
    },
    {
      "midi": 38,
      "hit": false,
      "t": 34513.24499999978,
      "d": 11.061937500002387,
      "v": 110
    },
    {
      "midi": 54,
      "hit": false,
      "t": 34513.24499999978,
      "d": 11.061937500002387,
      "v": 90
    },
    {
      "midi": 42,
      "hit": false,
      "t": 34513.24499999978,
      "d": 11.061937500002387,
      "v": 100
    },
    {
      "midi": 45,
      "hit": false,
      "t": 34513.24499999978,
      "d": 53.097300000008545,
      "v": 82
    },
    {
      "midi": 48,
      "hit": false,
      "t": 34513.24499999978,
      "d": 185.84055000002263,
      "v": 99
    },
    {
      "midi": 52,
      "hit": false,
      "t": 34524.30693749978,
      "d": 53.097300000008545,
      "v": 82
    },
    {
      "midi": 53,
      "hit": false,
      "t": 34524.30693749978,
      "d": 185.84055000002263,
      "v": 99
    },
    {
      "midi": 57,
      "hit": false,
      "t": 34535.36887499978,
      "d": 53.097300000008545,
      "v": 82
    },
    {
      "midi": 60,
      "hit": false,
      "t": 34546.430812499784,
      "d": 53.097300000008545,
      "v": 82
    },
    {
      "midi": 64,
      "hit": false,
      "t": 34557.49274999979,
      "d": 53.097300000008545,
      "v": 82
    },
    {
      "midi": 69,
      "hit": false,
      "t": 34568.55468749979,
      "d": 53.097300000008545,
      "v": 82
    },
    {
      "midi": 44,
      "hit": false,
      "t": 34867.2269999998,
      "d": 11.061937500002387,
      "v": 100
    },
    {
      "midi": 36,
      "hit": false,
      "t": 34867.2269999998,
      "d": 11.061937500002387,
      "v": 100
    },
    {
      "midi": 48,
      "hit": false,
      "t": 34867.2269999998,
      "d": 17.699100000005274,
      "v": 82
    },
    {
      "midi": 53,
      "hit": false,
      "t": 34867.2269999998,
      "d": 17.699100000005274,
      "v": 82
    },
    {
      "midi": 41,
      "hit": false,
      "t": 34867.2269999998,
      "d": 159.2919000000038,
      "v": 118
    },
    {
      "midi": 64,
      "hit": false,
      "t": 34867.2269999998,
      "d": 159.2919000000038,
      "v": 90
    },
    {
      "midi": 45,
      "hit": false,
      "t": 34867.2269999998,
      "d": 159.2919000000038,
      "v": 90
    },
    {
      "midi": 60,
      "hit": false,
      "t": 34867.2269999998,
      "d": 159.2919000000038,
      "v": 90
    },
    {
      "midi": 69,
      "hit": false,
      "t": 34867.2269999998,
      "d": 159.2919000000038,
      "v": 90
    },
    {
      "midi": 57,
      "hit": false,
      "t": 34867.2269999998,
      "d": 159.2919000000038,
      "v": 90
    },
    {
      "midi": 52,
      "hit": false,
      "t": 34867.2269999998,
      "d": 159.2919000000038,
      "v": 90
    },
    {
      "midi": 42,
      "hit": false,
      "t": 35044.217999999804,
      "d": 11.061937500002387,
      "v": 100
    },
    {
      "midi": 45,
      "hit": false,
      "t": 35044.217999999804,
      "d": 53.097300000008545,
      "v": 82
    },
    {
      "midi": 48,
      "hit": false,
      "t": 35044.217999999804,
      "d": 185.84055000002263,
      "v": 99
    },
    {
      "midi": 52,
      "hit": false,
      "t": 35055.27993749981,
      "d": 53.097300000008545,
      "v": 82
    },
    {
      "midi": 53,
      "hit": false,
      "t": 35055.27993749981,
      "d": 185.84055000002263,
      "v": 99
    },
    {
      "midi": 57,
      "hit": false,
      "t": 35066.34187499981,
      "d": 53.097300000008545,
      "v": 82
    },
    {
      "midi": 60,
      "hit": false,
      "t": 35077.40381249981,
      "d": 53.097300000008545,
      "v": 82
    },
    {
      "midi": 64,
      "hit": false,
      "t": 35088.465749999814,
      "d": 53.097300000008545,
      "v": 82
    },
    {
      "midi": 69,
      "hit": false,
      "t": 35099.527687499816,
      "d": 53.097300000008545,
      "v": 82
    },
    {
      "midi": 44,
      "hit": false,
      "t": 35398.19999999983,
      "d": 11.061937500002387,
      "v": 100
    },
    {
      "midi": 36,
      "hit": false,
      "t": 35398.19999999983,
      "d": 11.061937500002387,
      "v": 100
    },
    {
      "midi": 48,
      "hit": false,
      "t": 35398.19999999983,
      "d": 17.699100000005274,
      "v": 82
    },
    {
      "midi": 53,
      "hit": false,
      "t": 35398.19999999983,
      "d": 17.699100000005274,
      "v": 82
    },
    {
      "midi": 62,
      "hit": false,
      "t": 35398.19999999983,
      "d": 159.2919000000038,
      "v": 111
    },
    {
      "midi": 38,
      "hit": false,
      "t": 35398.19999999983,
      "d": 159.2919000000038,
      "v": 124
    },
    {
      "midi": 64,
      "hit": false,
      "t": 35398.19999999983,
      "d": 159.2919000000038,
      "v": 90
    },
    {
      "midi": 45,
      "hit": false,
      "t": 35398.19999999983,
      "d": 159.2919000000038,
      "v": 90
    },
    {
      "midi": 60,
      "hit": false,
      "t": 35398.19999999983,
      "d": 159.2919000000038,
      "v": 90
    },
    {
      "midi": 69,
      "hit": false,
      "t": 35398.19999999983,
      "d": 159.2919000000038,
      "v": 90
    },
    {
      "midi": 57,
      "hit": false,
      "t": 35398.19999999983,
      "d": 159.2919000000038,
      "v": 90
    },
    {
      "midi": 52,
      "hit": false,
      "t": 35398.19999999983,
      "d": 159.2919000000038,
      "v": 90
    },
    {
      "midi": 38,
      "hit": false,
      "t": 35575.19099999983,
      "d": 11.061937500002387,
      "v": 110
    },
    {
      "midi": 54,
      "hit": false,
      "t": 35575.19099999983,
      "d": 11.061937500002387,
      "v": 90
    },
    {
      "midi": 42,
      "hit": false,
      "t": 35575.19099999983,
      "d": 11.061937500002387,
      "v": 100
    },
    {
      "midi": 45,
      "hit": false,
      "t": 35575.19099999983,
      "d": 53.097300000008545,
      "v": 82
    },
    {
      "midi": 48,
      "hit": false,
      "t": 35575.19099999983,
      "d": 185.84055000002263,
      "v": 99
    },
    {
      "midi": 52,
      "hit": false,
      "t": 35586.252937499834,
      "d": 53.097300000008545,
      "v": 82
    },
    {
      "midi": 53,
      "hit": false,
      "t": 35586.252937499834,
      "d": 185.84055000002263,
      "v": 99
    },
    {
      "midi": 57,
      "hit": false,
      "t": 35597.314874999836,
      "d": 53.097300000008545,
      "v": 82
    },
    {
      "midi": 60,
      "hit": false,
      "t": 35608.37681249984,
      "d": 53.097300000008545,
      "v": 82
    },
    {
      "midi": 64,
      "hit": false,
      "t": 35619.43874999984,
      "d": 53.097300000008545,
      "v": 82
    },
    {
      "midi": 69,
      "hit": false,
      "t": 35630.50068749984,
      "d": 53.097300000008545,
      "v": 82
    },
    {
      "midi": 44,
      "hit": false,
      "t": 35929.17299999986,
      "d": 11.061937500002387,
      "v": 100
    },
    {
      "midi": 36,
      "hit": false,
      "t": 35929.17299999986,
      "d": 11.061937500002387,
      "v": 70
    },
    {
      "midi": 48,
      "hit": false,
      "t": 35929.17299999986,
      "d": 17.699100000005274,
      "v": 82
    },
    {
      "midi": 53,
      "hit": false,
      "t": 35929.17299999986,
      "d": 17.699100000005274,
      "v": 82
    },
    {
      "midi": 33,
      "hit": false,
      "t": 35929.17299999986,
      "d": 53.097300000008545,
      "v": 107
    },
    {
      "midi": 65,
      "hit": false,
      "t": 35929.17299999986,
      "d": 159.29190000001108,
      "v": 109
    },
    {
      "midi": 64,
      "hit": false,
      "t": 35929.17299999986,
      "d": 159.29190000001108,
      "v": 90
    },
    {
      "midi": 45,
      "hit": false,
      "t": 35929.17299999986,
      "d": 159.29190000001108,
      "v": 90
    },
    {
      "midi": 60,
      "hit": false,
      "t": 35929.17299999986,
      "d": 159.29190000001108,
      "v": 90
    },
    {
      "midi": 69,
      "hit": false,
      "t": 35929.17299999986,
      "d": 159.29190000001108,
      "v": 90
    },
    {
      "midi": 57,
      "hit": false,
      "t": 35929.17299999986,
      "d": 159.29190000001108,
      "v": 90
    },
    {
      "midi": 52,
      "hit": false,
      "t": 35929.17299999986,
      "d": 159.29190000001108,
      "v": 90
    },
    {
      "midi": 36,
      "hit": false,
      "t": 36106.163999999866,
      "d": 11.061937500002387,
      "v": 110
    },
    {
      "midi": 42,
      "hit": false,
      "t": 36106.163999999866,
      "d": 11.061937500002387,
      "v": 100
    },
    {
      "midi": 48,
      "hit": false,
      "t": 36106.163999999866,
      "d": 185.84055000001536,
      "v": 99
    },
    {
      "midi": 64,
      "hit": false,
      "t": 36106.163999999866,
      "d": 318.5838000000149,
      "v": 123
    },
    {
      "midi": 43,
      "hit": false,
      "t": 36106.163999999866,
      "d": 477.875700000026,
      "v": 90
    },
    {
      "midi": 31,
      "hit": false,
      "t": 36106.163999999866,
      "d": 716.8135500000571,
      "v": 122
    },
    {
      "midi": 65,
      "hit": false,
      "t": 36106.163999999866,
      "d": 1911.5028000001112,
      "v": 105
    },
    {
      "midi": 69,
      "hit": false,
      "t": 36106.163999999866,
      "d": 1911.5028000001112,
      "v": 105
    },
    {
      "midi": 53,
      "hit": false,
      "t": 36117.22593749987,
      "d": 185.84055000001536,
      "v": 99
    },
    {
      "midi": 47,
      "hit": false,
      "t": 36117.22593749987,
      "d": 477.875700000026,
      "v": 90
    },
    {
      "midi": 50,
      "hit": false,
      "t": 36128.28787499987,
      "d": 477.875700000026,
      "v": 90
    },
    {
      "midi": 55,
      "hit": false,
      "t": 36139.34981249987,
      "d": 477.875700000026,
      "v": 90
    },
    {
      "midi": 62,
      "hit": false,
      "t": 36150.411749999876,
      "d": 477.875700000026,
      "v": 90
    },
    {
      "midi": 67,
      "hit": false,
      "t": 36161.47368749988,
      "d": 424.7784000000174,
      "v": 90
    },
    {
      "midi": 44,
      "hit": false,
      "t": 36460.145999999884,
      "d": 11.061937500002387,
      "v": 100
    },
    {
      "midi": 48,
      "hit": false,
      "t": 36460.145999999884,
      "d": 17.699100000005274,
      "v": 82
    },
    {
      "midi": 53,
      "hit": false,
      "t": 36460.145999999884,
      "d": 17.699100000005274,
      "v": 82
    },
    {
      "midi": 38,
      "hit": false,
      "t": 36637.1369999999,
      "d": 11.061937500002387,
      "v": 110
    },
    {
      "midi": 54,
      "hit": false,
      "t": 36637.1369999999,
      "d": 11.061937500002387,
      "v": 90
    },
    {
      "midi": 42,
      "hit": false,
      "t": 36637.1369999999,
      "d": 11.061937500002387,
      "v": 100
    },
    {
      "midi": 43,
      "hit": false,
      "t": 36637.1369999999,
      "d": 53.097300000008545,
      "v": 82
    },
    {
      "midi": 48,
      "hit": false,
      "t": 36637.1369999999,
      "d": 185.84055000002263,
      "v": 99
    },
    {
      "midi": 47,
      "hit": false,
      "t": 36648.1989374999,
      "d": 53.097300000008545,
      "v": 82
    },
    {
      "midi": 53,
      "hit": false,
      "t": 36648.1989374999,
      "d": 185.84055000002263,
      "v": 99
    },
    {
      "midi": 50,
      "hit": false,
      "t": 36659.260874999905,
      "d": 53.097300000008545,
      "v": 82
    },
    {
      "midi": 55,
      "hit": false,
      "t": 36670.32281249991,
      "d": 53.097300000008545,
      "v": 82
    },
    {
      "midi": 62,
      "hit": false,
      "t": 36681.38474999991,
      "d": 53.097300000008545,
      "v": 82
    },
    {
      "midi": 67,
      "hit": false,
      "t": 36692.44668749991,
      "d": 53.097300000008545,
      "v": 82
    },
    {
      "midi": 44,
      "hit": false,
      "t": 36991.118999999926,
      "d": 11.061937500002387,
      "v": 100
    },
    {
      "midi": 36,
      "hit": false,
      "t": 36991.118999999926,
      "d": 11.061937500002387,
      "v": 100
    },
    {
      "midi": 48,
      "hit": false,
      "t": 36991.118999999926,
      "d": 17.699100000005274,
      "v": 82
    },
    {
      "midi": 53,
      "hit": false,
      "t": 36991.118999999926,
      "d": 17.699100000005274,
      "v": 82
    },
    {
      "midi": 59,
      "hit": false,
      "t": 36991.118999999926,
      "d": 159.2919000000038,
      "v": 104
    },
    {
      "midi": 29,
      "hit": false,
      "t": 36991.118999999926,
      "d": 159.2919000000038,
      "v": 117
    },
    {
      "midi": 62,
      "hit": false,
      "t": 36991.118999999926,
      "d": 159.2919000000038,
      "v": 90
    },
    {
      "midi": 43,
      "hit": false,
      "t": 36991.118999999926,
      "d": 159.2919000000038,
      "v": 90
    },
    {
      "midi": 55,
      "hit": false,
      "t": 36991.118999999926,
      "d": 159.2919000000038,
      "v": 90
    },
    {
      "midi": 67,
      "hit": false,
      "t": 36991.118999999926,
      "d": 159.2919000000038,
      "v": 90
    },
    {
      "midi": 50,
      "hit": false,
      "t": 36991.118999999926,
      "d": 159.2919000000038,
      "v": 90
    },
    {
      "midi": 47,
      "hit": false,
      "t": 36991.118999999926,
      "d": 159.2919000000038,
      "v": 90
    },
    {
      "midi": 42,
      "hit": false,
      "t": 37168.10999999993,
      "d": 11.061937500002387,
      "v": 100
    },
    {
      "midi": 43,
      "hit": false,
      "t": 37168.10999999993,
      "d": 53.097300000008545,
      "v": 82
    },
    {
      "midi": 48,
      "hit": false,
      "t": 37168.10999999993,
      "d": 185.84055000002263,
      "v": 99
    },
    {
      "midi": 60,
      "hit": false,
      "t": 37168.10999999993,
      "d": 247.7874000000229,
      "v": 124
    },
    {
      "midi": 74,
      "hit": false,
      "t": 37168.10999999993,
      "d": 318.58380000002217,
      "v": 118
    },
    {
      "midi": 47,
      "hit": false,
      "t": 37179.17193749993,
      "d": 53.097300000008545,
      "v": 82
    },
    {
      "midi": 53,
      "hit": false,
      "t": 37179.17193749993,
      "d": 185.84055000002263,
      "v": 99
    },
    {
      "midi": 50,
      "hit": false,
      "t": 37190.23387499993,
      "d": 53.097300000008545,
      "v": 82
    },
    {
      "midi": 55,
      "hit": false,
      "t": 37201.295812499935,
      "d": 53.097300000008545,
      "v": 82
    },
    {
      "midi": 62,
      "hit": false,
      "t": 37212.35774999994,
      "d": 53.097300000008545,
      "v": 82
    },
    {
      "midi": 67,
      "hit": false,
      "t": 37223.41968749994,
      "d": 53.097300000008545,
      "v": 82
    },
    {
      "midi": 44,
      "hit": false,
      "t": 37522.09199999995,
      "d": 11.061937500002387,
      "v": 100
    },
    {
      "midi": 36,
      "hit": false,
      "t": 37522.09199999995,
      "d": 11.061937500002387,
      "v": 100
    },
    {
      "midi": 48,
      "hit": false,
      "t": 37522.09199999995,
      "d": 17.699100000005274,
      "v": 82
    },
    {
      "midi": 53,
      "hit": false,
      "t": 37522.09199999995,
      "d": 17.699100000005274,
      "v": 82
    },
    {
      "midi": 62,
      "hit": false,
      "t": 37522.09199999995,
      "d": 159.2919000000038,
      "v": 90
    },
    {
      "midi": 26,
      "hit": false,
      "t": 37522.09199999995,
      "d": 159.2919000000038,
      "v": 122
    },
    {
      "midi": 43,
      "hit": false,
      "t": 37522.09199999995,
      "d": 159.2919000000038,
      "v": 90
    },
    {
      "midi": 55,
      "hit": false,
      "t": 37522.09199999995,
      "d": 159.2919000000038,
      "v": 90
    },
    {
      "midi": 67,
      "hit": false,
      "t": 37522.09199999995,
      "d": 159.2919000000038,
      "v": 90
    },
    {
      "midi": 50,
      "hit": false,
      "t": 37522.09199999995,
      "d": 159.2919000000038,
      "v": 90
    },
    {
      "midi": 47,
      "hit": false,
      "t": 37522.09199999995,
      "d": 159.2919000000038,
      "v": 90
    },
    {
      "midi": 71,
      "hit": false,
      "t": 37522.09199999995,
      "d": 513.273900000022,
      "v": 110
    },
    {
      "midi": 38,
      "hit": false,
      "t": 37699.082999999955,
      "d": 11.061937500002387,
      "v": 110
    },
    {
      "midi": 54,
      "hit": false,
      "t": 37699.082999999955,
      "d": 11.061937500002387,
      "v": 90
    },
    {
      "midi": 42,
      "hit": false,
      "t": 37699.082999999955,
      "d": 11.061937500002387,
      "v": 100
    },
    {
      "midi": 43,
      "hit": false,
      "t": 37699.082999999955,
      "d": 53.097300000008545,
      "v": 82
    },
    {
      "midi": 48,
      "hit": false,
      "t": 37699.082999999955,
      "d": 185.84055000002263,
      "v": 99
    },
    {
      "midi": 64,
      "hit": false,
      "t": 37699.082999999955,
      "d": 318.58380000002217,
      "v": 122
    },
    {
      "midi": 47,
      "hit": false,
      "t": 37710.14493749996,
      "d": 53.097300000008545,
      "v": 82
    },
    {
      "midi": 53,
      "hit": false,
      "t": 37710.14493749996,
      "d": 185.84055000002263,
      "v": 99
    },
    {
      "midi": 50,
      "hit": false,
      "t": 37721.20687499996,
      "d": 53.097300000008545,
      "v": 82
    },
    {
      "midi": 55,
      "hit": false,
      "t": 37732.26881249996,
      "d": 53.097300000008545,
      "v": 82
    },
    {
      "midi": 62,
      "hit": false,
      "t": 37743.330749999965,
      "d": 53.097300000008545,
      "v": 82
    },
    {
      "midi": 67,
      "hit": false,
      "t": 37754.39268749997,
      "d": 53.097300000008545,
      "v": 82
    },
    {
      "midi": 44,
      "hit": false,
      "t": 38053.06499999997,
      "d": 11.061937500002387,
      "v": 100
    },
    {
      "midi": 36,
      "hit": false,
      "t": 38053.06499999997,
      "d": 11.061937500002387,
      "v": 70
    },
    {
      "midi": 48,
      "hit": false,
      "t": 38053.06499999997,
      "d": 17.699100000005274,
      "v": 82
    },
    {
      "midi": 53,
      "hit": false,
      "t": 38053.06499999997,
      "d": 17.699100000005274,
      "v": 82
    },
    {
      "midi": 35,
      "hit": false,
      "t": 38053.06499999997,
      "d": 53.097300000008545,
      "v": 110
    },
    {
      "midi": 65,
      "hit": false,
      "t": 38053.06499999997,
      "d": 159.29190000001108,
      "v": 112
    },
    {
      "midi": 74,
      "hit": false,
      "t": 38053.06499999997,
      "d": 159.29190000001108,
      "v": 118
    },
    {
      "midi": 62,
      "hit": false,
      "t": 38053.06499999997,
      "d": 159.29190000001108,
      "v": 90
    },
    {
      "midi": 43,
      "hit": false,
      "t": 38053.06499999997,
      "d": 159.29190000001108,
      "v": 90
    },
    {
      "midi": 55,
      "hit": false,
      "t": 38053.06499999997,
      "d": 159.29190000001108,
      "v": 90
    },
    {
      "midi": 67,
      "hit": false,
      "t": 38053.06499999997,
      "d": 159.29190000001108,
      "v": 90
    },
    {
      "midi": 50,
      "hit": false,
      "t": 38053.06499999997,
      "d": 159.29190000001108,
      "v": 90
    },
    {
      "midi": 47,
      "hit": false,
      "t": 38053.06499999997,
      "d": 159.29190000001108,
      "v": 90
    },
    {
      "midi": 36,
      "hit": false,
      "t": 38230.05599999998,
      "d": 11.061937500002387,
      "v": 110
    },
    {
      "midi": 42,
      "hit": false,
      "t": 38230.05599999998,
      "d": 11.061937500002387,
      "v": 100
    },
    {
      "midi": 74,
      "hit": false,
      "t": 38230.05599999998,
      "d": 159.29190000001108,
      "v": 83
    },
    {
      "midi": 40,
      "hit": false,
      "t": 38230.05599999998,
      "d": 477.8757000000187,
      "v": 90
    },
    {
      "midi": 60,
      "hit": false,
      "t": 38230.05599999998,
      "d": 1911.502800000104,
      "v": 117
    },
    {
      "midi": 47,
      "hit": false,
      "t": 38241.117937499985,
      "d": 174.7786125000057,
      "v": 90
    },
    {
      "midi": 52,
      "hit": false,
      "t": 38252.17987499999,
      "d": 174.7786125000057,
      "v": 90
    },
    {
      "midi": 55,
      "hit": false,
      "t": 38263.24181249999,
      "d": 477.8757000000187,
      "v": 90
    },
    {
      "midi": 59,
      "hit": false,
      "t": 38274.30374999999,
      "d": 477.8757000000187,
      "v": 90
    },
    {
      "midi": 64,
      "hit": false,
      "t": 38285.365687499994,
      "d": 424.77840000001015,
      "v": 90
    },
    {
      "midi": 76,
      "hit": false,
      "t": 38407.04699999999,
      "d": 123.89370000000054,
      "v": 114
    },
    {
      "midi": 44,
      "hit": false,
      "t": 38584.03799999999,
      "d": 11.061937500002387,
      "v": 100
    },
    {
      "midi": 47,
      "hit": false,
      "t": 38584.03799999999,
      "d": 17.699100000005274,
      "v": 82
    },
    {
      "midi": 52,
      "hit": false,
      "t": 38584.03799999999,
      "d": 17.699100000005274,
      "v": 82
    },
    {
      "midi": 74,
      "hit": false,
      "t": 38584.03799999999,
      "d": 123.89370000000781,
      "v": 108
    },
    {
      "midi": 38,
      "hit": false,
      "t": 38761.02900000001,
      "d": 11.061937500002387,
      "v": 110
    },
    {
      "midi": 54,
      "hit": false,
      "t": 38761.02900000001,
      "d": 11.061937500002387,
      "v": 90
    },
    {
      "midi": 42,
      "hit": false,
      "t": 38761.02900000001,
      "d": 11.061937500002387,
      "v": 100
    },
    {
      "midi": 40,
      "hit": false,
      "t": 38761.02900000001,
      "d": 53.097300000008545,
      "v": 82
    },
    {
      "midi": 72,
      "hit": false,
      "t": 38761.02900000001,
      "d": 159.29190000001836,
      "v": 113
    },
    {
      "midi": 47,
      "hit": false,
      "t": 38772.09093750001,
      "d": 53.097300000008545,
      "v": 82
    },
    {
      "midi": 52,
      "hit": false,
      "t": 38783.152875000014,
      "d": 53.097300000008545,
      "v": 82
    },
    {
      "midi": 55,
      "hit": false,
      "t": 38794.21481250002,
      "d": 53.097300000008545,
      "v": 82
    },
    {
      "midi": 59,
      "hit": false,
      "t": 38805.27675000002,
      "d": 53.097300000008545,
      "v": 82
    },
    {
      "midi": 64,
      "hit": false,
      "t": 38816.33868750002,
      "d": 53.097300000008545,
      "v": 82
    },
    {
      "midi": 67,
      "hit": false,
      "t": 38938.020000000026,
      "d": 159.2919000000038,
      "v": 103
    },
    {
      "midi": 44,
      "hit": false,
      "t": 39115.01100000003,
      "d": 11.061937500002387,
      "v": 100
    },
    {
      "midi": 36,
      "hit": false,
      "t": 39115.01100000003,
      "d": 11.061937500002387,
      "v": 100
    },
    {
      "midi": 47,
      "hit": false,
      "t": 39115.01100000003,
      "d": 17.699100000005274,
      "v": 90
    },
    {
      "midi": 52,
      "hit": false,
      "t": 39115.01100000003,
      "d": 17.699100000005274,
      "v": 90
    },
    {
      "midi": 59,
      "hit": false,
      "t": 39115.01100000003,
      "d": 159.29190000001108,
      "v": 90
    },
    {
      "midi": 40,
      "hit": false,
      "t": 39115.01100000003,
      "d": 159.29190000001108,
      "v": 90
    },
    {
      "midi": 55,
      "hit": false,
      "t": 39115.01100000003,
      "d": 159.29190000001108,
      "v": 90
    },
    {
      "midi": 64,
      "hit": false,
      "t": 39115.01100000003,
      "d": 159.29190000001108,
      "v": 90
    },
    {
      "midi": 67,
      "hit": false,
      "t": 39115.01100000003,
      "d": 1132.7424000000683,
      "v": 84
    },
    {
      "midi": 42,
      "hit": false,
      "t": 39292.00200000004,
      "d": 11.061937500002387,
      "v": 100
    },
    {
      "midi": 40,
      "hit": false,
      "t": 39292.00200000004,
      "d": 53.097300000008545,
      "v": 82
    },
    {
      "midi": 47,
      "hit": false,
      "t": 39303.06393750004,
      "d": 53.097300000008545,
      "v": 82
    },
    {
      "midi": 52,
      "hit": false,
      "t": 39314.12587500004,
      "d": 53.097300000008545,
      "v": 82
    },
    {
      "midi": 55,
      "hit": false,
      "t": 39325.187812500044,
      "d": 53.097300000008545,
      "v": 82
    },
    {
      "midi": 59,
      "hit": false,
      "t": 39336.249750000046,
      "d": 53.097300000008545,
      "v": 82
    },
    {
      "midi": 64,
      "hit": false,
      "t": 39347.31168750005,
      "d": 53.097300000008545,
      "v": 82
    },
    {
      "midi": 44,
      "hit": false,
      "t": 39645.98400000006,
      "d": 11.061937500002387,
      "v": 100
    },
    {
      "midi": 36,
      "hit": false,
      "t": 39645.98400000006,
      "d": 11.061937500002387,
      "v": 100
    },
    {
      "midi": 47,
      "hit": false,
      "t": 39645.98400000006,
      "d": 17.699100000005274,
      "v": 90
    },
    {
      "midi": 52,
      "hit": false,
      "t": 39645.98400000006,
      "d": 17.699100000005274,
      "v": 90
    },
    {
      "midi": 45,
      "hit": false,
      "t": 39645.98400000006,
      "d": 159.2919000000038,
      "v": 112
    },
    {
      "midi": 59,
      "hit": false,
      "t": 39645.98400000006,
      "d": 159.2919000000038,
      "v": 90
    },
    {
      "midi": 40,
      "hit": false,
      "t": 39645.98400000006,
      "d": 159.2919000000038,
      "v": 90
    },
    {
      "midi": 55,
      "hit": false,
      "t": 39645.98400000006,
      "d": 159.2919000000038,
      "v": 90
    },
    {
      "midi": 64,
      "hit": false,
      "t": 39645.98400000006,
      "d": 159.2919000000038,
      "v": 90
    },
    {
      "midi": 38,
      "hit": false,
      "t": 39822.975000000064,
      "d": 11.061937500002387,
      "v": 110
    },
    {
      "midi": 54,
      "hit": false,
      "t": 39822.975000000064,
      "d": 11.061937500002387,
      "v": 90
    },
    {
      "midi": 42,
      "hit": false,
      "t": 39822.975000000064,
      "d": 11.061937500002387,
      "v": 100
    },
    {
      "midi": 40,
      "hit": false,
      "t": 39822.975000000064,
      "d": 53.097300000008545,
      "v": 82
    },
    {
      "midi": 43,
      "hit": false,
      "t": 39822.975000000064,
      "d": 318.58380000002217,
      "v": 119
    },
    {
      "midi": 47,
      "hit": false,
      "t": 39834.03693750007,
      "d": 53.097300000008545,
      "v": 82
    },
    {
      "midi": 52,
      "hit": false,
      "t": 39845.09887500007,
      "d": 53.097300000008545,
      "v": 82
    },
    {
      "midi": 55,
      "hit": false,
      "t": 39856.16081250007,
      "d": 53.097300000008545,
      "v": 82
    },
    {
      "midi": 59,
      "hit": false,
      "t": 39867.22275000007,
      "d": 53.097300000008545,
      "v": 82
    },
    {
      "midi": 64,
      "hit": false,
      "t": 39878.284687500076,
      "d": 53.097300000008545,
      "v": 82
    },
    {
      "midi": 44,
      "hit": false,
      "t": 40176.95700000009,
      "d": 11.061937500002387,
      "v": 100
    },
    {
      "midi": 36,
      "hit": false,
      "t": 40176.95700000009,
      "d": 11.061937500002387,
      "v": 70
    },
    {
      "midi": 47,
      "hit": false,
      "t": 40176.95700000009,
      "d": 17.699100000005274,
      "v": 90
    },
    {
      "midi": 52,
      "hit": false,
      "t": 40176.95700000009,
      "d": 17.699100000005274,
      "v": 90
    },
    {
      "midi": 41,
      "hit": false,
      "t": 40176.95700000009,
      "d": 53.097300000008545,
      "v": 109
    },
    {
      "midi": 59,
      "hit": false,
      "t": 40176.95700000009,
      "d": 159.2919000000038,
      "v": 90
    },
    {
      "midi": 40,
      "hit": false,
      "t": 40176.95700000009,
      "d": 159.2919000000038,
      "v": 90
    },
    {
      "midi": 55,
      "hit": false,
      "t": 40176.95700000009,
      "d": 159.2919000000038,
      "v": 90
    },
    {
      "midi": 64,
      "hit": false,
      "t": 40176.95700000009,
      "d": 159.2919000000038,
      "v": 90
    },
    {
      "midi": 36,
      "hit": false,
      "t": 40353.94800000009,
      "d": 11.061937500002387,
      "v": 110
    },
    {
      "midi": 42,
      "hit": false,
      "t": 40353.94800000009,
      "d": 11.061937500002387,
      "v": 100
    },
    {
      "midi": 68,
      "hit": false,
      "t": 40353.94800000009,
      "d": 318.5838000000076,
      "v": 118
    },
    {
      "midi": 40,
      "hit": false,
      "t": 40353.94800000009,
      "d": 477.8757000000187,
      "v": 90
    },
    {
      "midi": 47,
      "hit": false,
      "t": 40365.009937500094,
      "d": 174.7786125000057,
      "v": 90
    },
    {
      "midi": 52,
      "hit": false,
      "t": 40376.071875000096,
      "d": 174.7786125000057,
      "v": 90
    },
    {
      "midi": 55,
      "hit": false,
      "t": 40387.1338125001,
      "d": 477.8757000000187,
      "v": 90
    },
    {
      "midi": 59,
      "hit": false,
      "t": 40398.1957500001,
      "d": 115.04415000000154,
      "v": 90
    },
    {
      "midi": 64,
      "hit": false,
      "t": 40409.2576875001,
      "d": 263.2741124999957,
      "v": 90
    },
    {
      "midi": 44,
      "hit": false,
      "t": 40707.9300000001,
      "d": 11.061937500002387,
      "v": 100
    },
    {
      "midi": 47,
      "hit": false,
      "t": 40707.9300000001,
      "d": 17.699100000005274,
      "v": 82
    },
    {
      "midi": 52,
      "hit": false,
      "t": 40707.9300000001,
      "d": 17.699100000005274,
      "v": 82
    },
    {
      "midi": 71,
      "hit": false,
      "t": 40707.9300000001,
      "d": 159.29190000001836,
      "v": 113
    },
    {
      "midi": 38,
      "hit": false,
      "t": 40884.92100000012,
      "d": 11.061937500002387,
      "v": 110
    },
    {
      "midi": 54,
      "hit": false,
      "t": 40884.92100000012,
      "d": 11.061937500002387,
      "v": 90
    },
    {
      "midi": 42,
      "hit": false,
      "t": 40884.92100000012,
      "d": 11.061937500002387,
      "v": 100
    },
    {
      "midi": 40,
      "hit": false,
      "t": 40884.92100000012,
      "d": 53.097300000008545,
      "v": 82
    },
    {
      "midi": 60,
      "hit": false,
      "t": 40884.92100000012,
      "d": 159.29190000001836,
      "v": 105
    },
    {
      "midi": 69,
      "hit": false,
      "t": 40884.92100000012,
      "d": 477.875700000026,
      "v": 105
    },
    {
      "midi": 47,
      "hit": false,
      "t": 40895.98293750012,
      "d": 53.097300000008545,
      "v": 82
    },
    {
      "midi": 52,
      "hit": false,
      "t": 40907.04487500012,
      "d": 53.097300000008545,
      "v": 82
    },
    {
      "midi": 55,
      "hit": false,
      "t": 40918.106812500126,
      "d": 53.097300000008545,
      "v": 82
    },
    {
      "midi": 59,
      "hit": false,
      "t": 40929.16875000013,
      "d": 53.097300000008545,
      "v": 82
    },
    {
      "midi": 64,
      "hit": false,
      "t": 40940.23068750013,
      "d": 53.097300000008545,
      "v": 82
    },
    {
      "midi": 44,
      "hit": false,
      "t": 41238.90300000014,
      "d": 11.061937500002387,
      "v": 100
    },
    {
      "midi": 36,
      "hit": false,
      "t": 41238.90300000014,
      "d": 11.061937500002387,
      "v": 100
    },
    {
      "midi": 47,
      "hit": false,
      "t": 41238.90300000014,
      "d": 17.699100000005274,
      "v": 90
    },
    {
      "midi": 52,
      "hit": false,
      "t": 41238.90300000014,
      "d": 17.699100000005274,
      "v": 90
    },
    {
      "midi": 43,
      "hit": false,
      "t": 41238.90300000014,
      "d": 159.29190000001108,
      "v": 107
    },
    {
      "midi": 59,
      "hit": false,
      "t": 41238.90300000014,
      "d": 159.29190000001108,
      "v": 90
    },
    {
      "midi": 40,
      "hit": false,
      "t": 41238.90300000014,
      "d": 159.29190000001108,
      "v": 90
    },
    {
      "midi": 55,
      "hit": false,
      "t": 41238.90300000014,
      "d": 159.29190000001108,
      "v": 90
    },
    {
      "midi": 64,
      "hit": false,
      "t": 41238.90300000014,
      "d": 159.29190000001108,
      "v": 90
    },
    {
      "midi": 46,
      "hit": false,
      "t": 41415.894000000146,
      "d": 11.061937500002387,
      "v": 100
    },
    {
      "midi": 40,
      "hit": false,
      "t": 41415.894000000146,
      "d": 53.097300000008545,
      "v": 82
    },
    {
      "midi": 62,
      "hit": false,
      "t": 41415.894000000146,
      "d": 159.29190000001836,
      "v": 118
    },
    {
      "midi": 44,
      "hit": false,
      "t": 41415.894000000146,
      "d": 477.875700000026,
      "v": 123
    },
    {
      "midi": 71,
      "hit": false,
      "t": 41415.894000000146,
      "d": 477.875700000026,
      "v": 118
    },
    {
      "midi": 47,
      "hit": false,
      "t": 41426.95593750015,
      "d": 53.097300000008545,
      "v": 82
    },
    {
      "midi": 52,
      "hit": false,
      "t": 41438.01787500015,
      "d": 53.097300000008545,
      "v": 82
    },
    {
      "midi": 55,
      "hit": false,
      "t": 41449.07981250015,
      "d": 53.097300000008545,
      "v": 82
    },
    {
      "midi": 59,
      "hit": false,
      "t": 41460.141750000155,
      "d": 53.097300000008545,
      "v": 82
    },
    {
      "midi": 64,
      "hit": false,
      "t": 41471.20368750016,
      "d": 53.097300000008545,
      "v": 82
    },
    {
      "midi": 50,
      "hit": false,
      "t": 41769.876000000164,
      "d": 11.061937500002387,
      "v": 100
    },
    {
      "midi": 36,
      "hit": false,
      "t": 41769.876000000164,
      "d": 11.061937500002387,
      "v": 100
    },
    {
      "midi": 47,
      "hit": false,
      "t": 41769.876000000164,
      "d": 17.699100000005274,
      "v": 90
    },
    {
      "midi": 52,
      "hit": false,
      "t": 41769.876000000164,
      "d": 17.699100000005274,
      "v": 90
    },
    {
      "midi": 59,
      "hit": false,
      "t": 41769.876000000164,
      "d": 159.29190000001108,
      "v": 90
    },
    {
      "midi": 40,
      "hit": false,
      "t": 41769.876000000164,
      "d": 159.29190000001108,
      "v": 90
    },
    {
      "midi": 55,
      "hit": false,
      "t": 41769.876000000164,
      "d": 159.29190000001108,
      "v": 90
    },
    {
      "midi": 64,
      "hit": false,
      "t": 41769.876000000164,
      "d": 159.29190000001108,
      "v": 90
    },
    {
      "midi": 66,
      "hit": false,
      "t": 41769.876000000164,
      "d": 318.58380000002944,
      "v": 122
    },
    {
      "midi": 47,
      "hit": false,
      "t": 41946.86700000017,
      "d": 11.061937500002387,
      "v": 110
    },
    {
      "midi": 40,
      "hit": false,
      "t": 41946.86700000017,
      "d": 53.097300000008545,
      "v": 82
    },
    {
      "midi": 47,
      "hit": false,
      "t": 41957.928937500175,
      "d": 53.097300000008545,
      "v": 82
    },
    {
      "midi": 52,
      "hit": false,
      "t": 41968.99087500018,
      "d": 53.097300000008545,
      "v": 82
    },
    {
      "midi": 55,
      "hit": false,
      "t": 41980.05281250018,
      "d": 53.097300000008545,
      "v": 82
    },
    {
      "midi": 59,
      "hit": false,
      "t": 41991.11475000018,
      "d": 53.097300000008545,
      "v": 82
    },
    {
      "midi": 64,
      "hit": false,
      "t": 42002.176687500185,
      "d": 53.097300000008545,
      "v": 82
    },
    {
      "midi": 43,
      "hit": false,
      "t": 42123.8580000002,
      "d": 11.061937500002387,
      "v": 110
    },
    {
      "midi": 68,
      "hit": false,
      "t": 42123.8580000002,
      "d": 318.5838000000076,
      "v": 103
    },
    {
      "midi": 36,
      "hit": false,
      "t": 42300.8490000002,
      "d": 11.061937500002387,
      "v": 70
    },
    {
      "midi": 43,
      "hit": false,
      "t": 42300.8490000002,
      "d": 11.061937500002387,
      "v": 90
    },
    {
      "midi": 47,
      "hit": false,
      "t": 42300.8490000002,
      "d": 17.699100000005274,
      "v": 90
    },
    {
      "midi": 52,
      "hit": false,
      "t": 42300.8490000002,
      "d": 17.699100000005274,
      "v": 90
    },
    {
      "midi": 59,
      "hit": false,
      "t": 42300.8490000002,
      "d": 159.2919000000038,
      "v": 90
    },
    {
      "midi": 40,
      "hit": false,
      "t": 42300.8490000002,
      "d": 159.2919000000038,
      "v": 90
    },
    {
      "midi": 55,
      "hit": false,
      "t": 42300.8490000002,
      "d": 159.2919000000038,
      "v": 90
    },
    {
      "midi": 64,
      "hit": false,
      "t": 42300.8490000002,
      "d": 159.2919000000038,
      "v": 90
    },
    {
      "midi": 36,
      "hit": false,
      "t": 42477.8400000002,
      "d": 11.061937500002387,
      "v": 110
    },
    {
      "midi": 43,
      "hit": false,
      "t": 42477.8400000002,
      "d": 11.061937500002387,
      "v": 100
    },
    {
      "midi": 49,
      "hit": false,
      "t": 42477.8400000002,
      "d": 11.061937500002387,
      "v": 110
    },
    {
      "midi": 83,
      "hit": false,
      "t": 42477.8400000002,
      "d": 79.64595000001282,
      "v": 39
    },
    {
      "midi": 41,
      "hit": false,
      "t": 42477.8400000002,
      "d": 477.87570000000414,
      "v": 90
    },
    {
      "midi": 29,
      "hit": false,
      "t": 42477.8400000002,
      "d": 557.521650000017,
      "v": 120
    },
    {
      "midi": 69,
      "hit": false,
      "t": 42477.8400000002,
      "d": 743.3622000000323,
      "v": 121
    },
    {
      "midi": 48,
      "hit": false,
      "t": 42488.9019375002,
      "d": 174.7786125000057,
      "v": 90
    },
    {
      "midi": 53,
      "hit": false,
      "t": 42499.963875000205,
      "d": 174.7786125000057,
      "v": 90
    },
    {
      "midi": 57,
      "hit": false,
      "t": 42511.02581250021,
      "d": 477.87570000000414,
      "v": 90
    },
    {
      "midi": 60,
      "hit": false,
      "t": 42522.08775000021,
      "d": 477.87570000000414,
      "v": 90
    },
    {
      "midi": 65,
      "hit": false,
      "t": 42533.14968750021,
      "d": 424.7783999999956,
      "v": 90
    },
    {
      "midi": 83,
      "hit": false,
      "t": 42566.33550000021,
      "d": 79.64594999999827,
      "v": 31
    },
    {
      "midi": 81,
      "hit": false,
      "t": 42654.83100000021,
      "d": 79.64594999999827,
      "v": 40
    },
    {
      "midi": 81,
      "hit": false,
      "t": 42743.32650000021,
      "d": 79.64594999999827,
      "v": 31
    },
    {
      "midi": 48,
      "hit": false,
      "t": 42831.822000000204,
      "d": 17.699099999997998,
      "v": 82
    },
    {
      "midi": 53,
      "hit": false,
      "t": 42831.822000000204,
      "d": 17.699099999997998,
      "v": 82
    },
    {
      "midi": 79,
      "hit": false,
      "t": 42831.822000000204,
      "d": 79.64594999999827,
      "v": 38
    },
    {
      "midi": 79,
      "hit": false,
      "t": 42920.3175000002,
      "d": 79.64595000001282,
      "v": 28
    },
    {
      "midi": 38,
      "hit": false,
      "t": 43008.81300000021,
      "d": 11.061937500002387,
      "v": 110
    },
    {
      "midi": 54,
      "hit": false,
      "t": 43008.81300000021,
      "d": 11.061937500002387,
      "v": 90
    },
    {
      "midi": 42,
      "hit": false,
      "t": 43008.81300000021,
      "d": 11.061937500002387,
      "v": 100
    },
    {
      "midi": 41,
      "hit": false,
      "t": 43008.81300000021,
      "d": 53.097300000008545,
      "v": 82
    },
    {
      "midi": 83,
      "hit": false,
      "t": 43008.81300000021,
      "d": 79.64595000001282,
      "v": 44
    },
    {
      "midi": 48,
      "hit": false,
      "t": 43019.874937500215,
      "d": 53.097300000008545,
      "v": 82
    },
    {
      "midi": 53,
      "hit": false,
      "t": 43030.93687500022,
      "d": 53.097300000008545,
      "v": 82
    },
    {
      "midi": 57,
      "hit": false,
      "t": 43041.99881250022,
      "d": 53.097300000008545,
      "v": 82
    },
    {
      "midi": 60,
      "hit": false,
      "t": 43053.06075000022,
      "d": 53.097300000008545,
      "v": 82
    },
    {
      "midi": 65,
      "hit": false,
      "t": 43064.122687500225,
      "d": 53.097300000008545,
      "v": 82
    },
    {
      "midi": 83,
      "hit": false,
      "t": 43097.30850000023,
      "d": 79.64594999999827,
      "v": 37
    },
    {
      "midi": 81,
      "hit": false,
      "t": 43185.80400000023,
      "d": 79.64595000000554,
      "v": 55
    },
    {
      "midi": 81,
      "hit": false,
      "t": 43274.299500000234,
      "d": 79.64594999999827,
      "v": 45
    },
    {
      "midi": 44,
      "hit": false,
      "t": 43362.79500000023,
      "d": 11.061937500002387,
      "v": 100
    },
    {
      "midi": 36,
      "hit": false,
      "t": 43362.79500000023,
      "d": 11.061937500002387,
      "v": 100
    },
    {
      "midi": 48,
      "hit": false,
      "t": 43362.79500000023,
      "d": 17.699100000005274,
      "v": 90
    },
    {
      "midi": 53,
      "hit": false,
      "t": 43362.79500000023,
      "d": 17.699100000005274,
      "v": 90
    },
    {
      "midi": 79,
      "hit": false,
      "t": 43362.79500000023,
      "d": 79.64595000000554,
      "v": 62
    },
    {
      "midi": 60,
      "hit": false,
      "t": 43362.79500000023,
      "d": 159.2919000000038,
      "v": 90
    },
    {
      "midi": 41,
      "hit": false,
      "t": 43362.79500000023,
      "d": 159.2919000000038,
      "v": 90
    },
    {
      "midi": 57,
      "hit": false,
      "t": 43362.79500000023,
      "d": 159.2919000000038,
      "v": 90
    },
    {
      "midi": 65,
      "hit": false,
      "t": 43362.79500000023,
      "d": 159.2919000000038,
      "v": 90
    },
    {
      "midi": 69,
      "hit": false,
      "t": 43362.79500000023,
      "d": 1132.742400000032,
      "v": 118
    },
    {
      "midi": 64,
      "hit": false,
      "t": 43362.79500000023,
      "d": 1132.742400000032,
      "v": 113
    },
    {
      "midi": 79,
      "hit": false,
      "t": 43451.290500000236,
      "d": 79.64594999999827,
      "v": 64
    },
    {
      "midi": 42,
      "hit": false,
      "t": 43539.78600000023,
      "d": 11.061937500002387,
      "v": 100
    },
    {
      "midi": 41,
      "hit": false,
      "t": 43539.78600000023,
      "d": 53.097300000008545,
      "v": 82
    },
    {
      "midi": 83,
      "hit": false,
      "t": 43539.78600000023,
      "d": 79.64595000001282,
      "v": 55
    },
    {
      "midi": 48,
      "hit": false,
      "t": 43550.847937500235,
      "d": 53.097300000008545,
      "v": 82
    },
    {
      "midi": 53,
      "hit": false,
      "t": 43561.90987500024,
      "d": 53.097300000008545,
      "v": 82
    },
    {
      "midi": 57,
      "hit": false,
      "t": 43572.97181250024,
      "d": 53.097300000008545,
      "v": 82
    },
    {
      "midi": 60,
      "hit": false,
      "t": 43584.03375000024,
      "d": 53.097300000008545,
      "v": 82
    },
    {
      "midi": 65,
      "hit": false,
      "t": 43595.095687500245,
      "d": 53.097300000008545,
      "v": 82
    },
    {
      "midi": 83,
      "hit": false,
      "t": 43628.28150000025,
      "d": 79.64594999999827,
      "v": 59
    },
    {
      "midi": 81,
      "hit": false,
      "t": 43716.77700000025,
      "d": 79.64594999999827,
      "v": 80
    },
    {
      "midi": 81,
      "hit": false,
      "t": 43805.27250000025,
      "d": 79.64594999999827,
      "v": 70
    },
    {
      "midi": 44,
      "hit": false,
      "t": 43893.768000000244,
      "d": 11.061937500002387,
      "v": 100
    },
    {
      "midi": 36,
      "hit": false,
      "t": 43893.768000000244,
      "d": 11.061937500002387,
      "v": 100
    },
    {
      "midi": 48,
      "hit": false,
      "t": 43893.768000000244,
      "d": 17.699100000005274,
      "v": 90
    },
    {
      "midi": 53,
      "hit": false,
      "t": 43893.768000000244,
      "d": 17.699100000005274,
      "v": 90
    },
    {
      "midi": 79,
      "hit": false,
      "t": 43893.768000000244,
      "d": 79.64595000000554,
      "v": 82
    },
    {
      "midi": 60,
      "hit": false,
      "t": 43893.768000000244,
      "d": 159.2919000000038,
      "v": 90
    },
    {
      "midi": 41,
      "hit": false,
      "t": 43893.768000000244,
      "d": 159.2919000000038,
      "v": 90
    },
    {
      "midi": 57,
      "hit": false,
      "t": 43893.768000000244,
      "d": 159.2919000000038,
      "v": 90
    },
    {
      "midi": 65,
      "hit": false,
      "t": 43893.768000000244,
      "d": 159.2919000000038,
      "v": 90
    },
    {
      "midi": 79,
      "hit": false,
      "t": 43982.26350000025,
      "d": 79.64594999999827,
      "v": 67
    },
    {
      "midi": 38,
      "hit": false,
      "t": 44070.759000000246,
      "d": 11.061937500002387,
      "v": 110
    },
    {
      "midi": 54,
      "hit": false,
      "t": 44070.759000000246,
      "d": 11.061937500002387,
      "v": 90
    },
    {
      "midi": 42,
      "hit": false,
      "t": 44070.759000000246,
      "d": 11.061937500002387,
      "v": 100
    },
    {
      "midi": 41,
      "hit": false,
      "t": 44070.759000000246,
      "d": 53.097300000008545,
      "v": 82
    },
    {
      "midi": 83,
      "hit": false,
      "t": 44070.759000000246,
      "d": 79.64595000001282,
      "v": 59
    },
    {
      "midi": 48,
      "hit": false,
      "t": 44081.82093750025,
      "d": 53.097300000008545,
      "v": 82
    },
    {
      "midi": 53,
      "hit": false,
      "t": 44092.88287500025,
      "d": 53.097300000008545,
      "v": 82
    },
    {
      "midi": 57,
      "hit": false,
      "t": 44103.94481250025,
      "d": 53.097300000008545,
      "v": 82
    },
    {
      "midi": 60,
      "hit": false,
      "t": 44115.006750000255,
      "d": 53.097300000008545,
      "v": 82
    },
    {
      "midi": 65,
      "hit": false,
      "t": 44126.06868750026,
      "d": 53.097300000008545,
      "v": 82
    },
    {
      "midi": 83,
      "hit": false,
      "t": 44159.254500000265,
      "d": 79.64594999999827,
      "v": 60
    },
    {
      "midi": 81,
      "hit": false,
      "t": 44247.75000000026,
      "d": 79.64594999999827,
      "v": 75
    },
    {
      "midi": 81,
      "hit": false,
      "t": 44336.24550000026,
      "d": 79.64594999999827,
      "v": 71
    },
    {
      "midi": 44,
      "hit": false,
      "t": 44424.74100000026,
      "d": 11.061937500002387,
      "v": 100
    },
    {
      "midi": 36,
      "hit": false,
      "t": 44424.74100000026,
      "d": 11.061937500002387,
      "v": 70
    },
    {
      "midi": 48,
      "hit": false,
      "t": 44424.74100000026,
      "d": 17.699100000005274,
      "v": 90
    },
    {
      "midi": 53,
      "hit": false,
      "t": 44424.74100000026,
      "d": 17.699100000005274,
      "v": 90
    },
    {
      "midi": 33,
      "hit": false,
      "t": 44424.74100000026,
      "d": 53.097300000008545,
      "v": 112
    },
    {
      "midi": 79,
      "hit": false,
      "t": 44424.74100000026,
      "d": 79.64595000000554,
      "v": 84
    },
    {
      "midi": 60,
      "hit": false,
      "t": 44424.74100000026,
      "d": 159.2919000000038,
      "v": 90
    },
    {
      "midi": 41,
      "hit": false,
      "t": 44424.74100000026,
      "d": 159.2919000000038,
      "v": 90
    },
    {
      "midi": 57,
      "hit": false,
      "t": 44424.74100000026,
      "d": 159.2919000000038,
      "v": 90
    },
    {
      "midi": 65,
      "hit": false,
      "t": 44424.74100000026,
      "d": 159.2919000000038,
      "v": 90
    },
    {
      "midi": 79,
      "hit": false,
      "t": 44513.23650000026,
      "d": 79.64594999999827,
      "v": 75
    },
    {
      "midi": 36,
      "hit": false,
      "t": 44601.73200000026,
      "d": 11.061937500002387,
      "v": 110
    },
    {
      "midi": 42,
      "hit": false,
      "t": 44601.73200000026,
      "d": 11.061937500002387,
      "v": 100
    },
    {
      "midi": 83,
      "hit": false,
      "t": 44601.73200000026,
      "d": 79.64595000001282,
      "v": 61
    },
    {
      "midi": 29,
      "hit": false,
      "t": 44601.73200000026,
      "d": 318.5838000000076,
      "v": 122
    },
    {
      "midi": 41,
      "hit": false,
      "t": 44601.73200000026,
      "d": 477.8757000000114,
      "v": 90
    },
    {
      "midi": 72,
      "hit": false,
      "t": 44601.73200000026,
      "d": 955.7514000000374,
      "v": 122
    },
    {
      "midi": 64,
      "hit": false,
      "t": 44601.73200000026,
      "d": 955.7514000000374,
      "v": 122
    },
    {
      "midi": 48,
      "hit": false,
      "t": 44612.79393750026,
      "d": 174.7786125000057,
      "v": 90
    },
    {
      "midi": 53,
      "hit": false,
      "t": 44623.85587500026,
      "d": 174.7786125000057,
      "v": 90
    },
    {
      "midi": 57,
      "hit": false,
      "t": 44634.917812500265,
      "d": 477.8757000000114,
      "v": 90
    },
    {
      "midi": 60,
      "hit": false,
      "t": 44645.97975000027,
      "d": 477.8757000000114,
      "v": 90
    },
    {
      "midi": 65,
      "hit": false,
      "t": 44657.04168750027,
      "d": 424.7784000000029,
      "v": 90
    },
    {
      "midi": 83,
      "hit": false,
      "t": 44690.22750000027,
      "d": 79.64594999999827,
      "v": 68
    },
    {
      "midi": 81,
      "hit": false,
      "t": 44778.72300000027,
      "d": 79.64594999999827,
      "v": 81
    },
    {
      "midi": 81,
      "hit": false,
      "t": 44867.218500000265,
      "d": 79.64594999999827,
      "v": 80
    },
    {
      "midi": 44,
      "hit": false,
      "t": 44955.71400000026,
      "d": 11.061937500002387,
      "v": 100
    },
    {
      "midi": 48,
      "hit": false,
      "t": 44955.71400000026,
      "d": 17.699100000005274,
      "v": 82
    },
    {
      "midi": 53,
      "hit": false,
      "t": 44955.71400000026,
      "d": 17.699100000005274,
      "v": 82
    },
    {
      "midi": 79,
      "hit": false,
      "t": 44955.71400000026,
      "d": 79.64595000000554,
      "v": 78
    },
    {
      "midi": 33,
      "hit": false,
      "t": 44955.71400000026,
      "d": 159.29190000001836,
      "v": 108
    },
    {
      "midi": 79,
      "hit": false,
      "t": 45044.20950000027,
      "d": 79.64595000001282,
      "v": 68
    },
    {
      "midi": 38,
      "hit": false,
      "t": 45132.70500000028,
      "d": 11.061937500002387,
      "v": 110
    },
    {
      "midi": 54,
      "hit": false,
      "t": 45132.70500000028,
      "d": 11.061937500002387,
      "v": 90
    },
    {
      "midi": 42,
      "hit": false,
      "t": 45132.70500000028,
      "d": 11.061937500002387,
      "v": 100
    },
    {
      "midi": 41,
      "hit": false,
      "t": 45132.70500000028,
      "d": 53.097300000008545,
      "v": 82
    },
    {
      "midi": 83,
      "hit": false,
      "t": 45132.70500000028,
      "d": 79.64595000001282,
      "v": 58
    },
    {
      "midi": 48,
      "hit": false,
      "t": 45143.76693750028,
      "d": 53.097300000008545,
      "v": 82
    },
    {
      "midi": 53,
      "hit": false,
      "t": 45154.82887500028,
      "d": 53.097300000008545,
      "v": 82
    },
    {
      "midi": 57,
      "hit": false,
      "t": 45165.890812500285,
      "d": 53.097300000008545,
      "v": 82
    },
    {
      "midi": 60,
      "hit": false,
      "t": 45176.95275000029,
      "d": 53.097300000008545,
      "v": 82
    },
    {
      "midi": 65,
      "hit": false,
      "t": 45188.01468750029,
      "d": 53.097300000008545,
      "v": 82
    },
    {
      "midi": 83,
      "hit": false,
      "t": 45221.2005000003,
      "d": 79.64594999999827,
      "v": 64
    },
    {
      "midi": 81,
      "hit": false,
      "t": 45309.696000000295,
      "d": 79.64594999999827,
      "v": 83
    },
    {
      "midi": 81,
      "hit": false,
      "t": 45398.19150000029,
      "d": 79.64594999999827,
      "v": 66
    },
    {
      "midi": 44,
      "hit": false,
      "t": 45486.68700000029,
      "d": 11.061937500002387,
      "v": 100
    },
    {
      "midi": 36,
      "hit": false,
      "t": 45486.68700000029,
      "d": 11.061937500002387,
      "v": 100
    },
    {
      "midi": 48,
      "hit": false,
      "t": 45486.68700000029,
      "d": 17.699100000005274,
      "v": 90
    },
    {
      "midi": 53,
      "hit": false,
      "t": 45486.68700000029,
      "d": 17.699100000005274,
      "v": 90
    },
    {
      "midi": 79,
      "hit": false,
      "t": 45486.68700000029,
      "d": 79.64595000000554,
      "v": 75
    },
    {
      "midi": 69,
      "hit": false,
      "t": 45486.68700000029,
      "d": 159.29190000001108,
      "v": 104
    },
    {
      "midi": 60,
      "hit": false,
      "t": 45486.68700000029,
      "d": 159.29190000001108,
      "v": 90
    },
    {
      "midi": 41,
      "hit": false,
      "t": 45486.68700000029,
      "d": 159.29190000001108,
      "v": 90
    },
    {
      "midi": 57,
      "hit": false,
      "t": 45486.68700000029,
      "d": 159.29190000001108,
      "v": 90
    },
    {
      "midi": 65,
      "hit": false,
      "t": 45486.68700000029,
      "d": 159.29190000001108,
      "v": 90
    },
    {
      "midi": 79,
      "hit": false,
      "t": 45575.182500000294,
      "d": 79.64595000000554,
      "v": 60
    },
    {
      "midi": 42,
      "hit": false,
      "t": 45663.6780000003,
      "d": 11.061937500002387,
      "v": 100
    },
    {
      "midi": 41,
      "hit": false,
      "t": 45663.6780000003,
      "d": 53.097300000008545,
      "v": 82
    },
    {
      "midi": 83,
      "hit": false,
      "t": 45663.6780000003,
      "d": 79.64595000001282,
      "v": 82
    },
    {
      "midi": 69,
      "hit": false,
      "t": 45663.6780000003,
      "d": 318.5838000000149,
      "v": 125
    },
    {
      "midi": 35,
      "hit": false,
      "t": 45663.6780000003,
      "d": 371.68110000001616,
      "v": 121
    },
    {
      "midi": 63,
      "hit": false,
      "t": 45663.6780000003,
      "d": 955.7514000000301,
      "v": 116
    },
    {
      "midi": 48,
      "hit": false,
      "t": 45674.7399375003,
      "d": 53.097300000008545,
      "v": 82
    },
    {
      "midi": 53,
      "hit": false,
      "t": 45685.8018750003,
      "d": 53.097300000008545,
      "v": 82
    },
    {
      "midi": 57,
      "hit": false,
      "t": 45696.863812500305,
      "d": 53.097300000008545,
      "v": 82
    },
    {
      "midi": 60,
      "hit": false,
      "t": 45707.92575000031,
      "d": 53.097300000008545,
      "v": 82
    },
    {
      "midi": 65,
      "hit": false,
      "t": 45718.98768750031,
      "d": 53.097300000008545,
      "v": 82
    },
    {
      "midi": 83,
      "hit": false,
      "t": 45752.17350000032,
      "d": 79.64594999999827,
      "v": 78
    },
    {
      "midi": 81,
      "hit": false,
      "t": 45840.669000000315,
      "d": 79.64594999999827,
      "v": 73
    },
    {
      "midi": 81,
      "hit": false,
      "t": 45929.16450000031,
      "d": 79.64594999999827,
      "v": 65
    },
    {
      "midi": 44,
      "hit": false,
      "t": 46017.66000000031,
      "d": 11.061937500002387,
      "v": 100
    },
    {
      "midi": 36,
      "hit": false,
      "t": 46017.66000000031,
      "d": 11.061937500002387,
      "v": 100
    },
    {
      "midi": 48,
      "hit": false,
      "t": 46017.66000000031,
      "d": 17.699100000005274,
      "v": 90
    },
    {
      "midi": 53,
      "hit": false,
      "t": 46017.66000000031,
      "d": 17.699100000005274,
      "v": 90
    },
    {
      "midi": 79,
      "hit": false,
      "t": 46017.66000000031,
      "d": 79.64595000000554,
      "v": 76
    },
    {
      "midi": 71,
      "hit": false,
      "t": 46017.66000000031,
      "d": 159.2919000000038,
      "v": 114
    },
    {
      "midi": 60,
      "hit": false,
      "t": 46017.66000000031,
      "d": 159.2919000000038,
      "v": 90
    },
    {
      "midi": 41,
      "hit": false,
      "t": 46017.66000000031,
      "d": 159.2919000000038,
      "v": 90
    },
    {
      "midi": 57,
      "hit": false,
      "t": 46017.66000000031,
      "d": 159.2919000000038,
      "v": 90
    },
    {
      "midi": 65,
      "hit": false,
      "t": 46017.66000000031,
      "d": 159.2919000000038,
      "v": 90
    },
    {
      "midi": 79,
      "hit": false,
      "t": 46106.15550000031,
      "d": 79.64594999999827,
      "v": 70
    },
    {
      "midi": 38,
      "hit": false,
      "t": 46194.65100000031,
      "d": 11.061937500002387,
      "v": 110
    },
    {
      "midi": 54,
      "hit": false,
      "t": 46194.65100000031,
      "d": 11.061937500002387,
      "v": 90
    },
    {
      "midi": 42,
      "hit": false,
      "t": 46194.65100000031,
      "d": 11.061937500002387,
      "v": 100
    },
    {
      "midi": 41,
      "hit": false,
      "t": 46194.65100000031,
      "d": 53.097300000008545,
      "v": 82
    },
    {
      "midi": 83,
      "hit": false,
      "t": 46194.65100000031,
      "d": 79.64595000001282,
      "v": 59
    },
    {
      "midi": 72,
      "hit": false,
      "t": 46194.65100000031,
      "d": 318.5838000000149,
      "v": 123
    },
    {
      "midi": 35,
      "hit": false,
      "t": 46194.65100000031,
      "d": 371.68110000001616,
      "v": 118
    },
    {
      "midi": 48,
      "hit": false,
      "t": 46205.71293750031,
      "d": 53.097300000008545,
      "v": 82
    },
    {
      "midi": 53,
      "hit": false,
      "t": 46216.774875000316,
      "d": 53.097300000008545,
      "v": 82
    },
    {
      "midi": 57,
      "hit": false,
      "t": 46227.83681250032,
      "d": 53.097300000008545,
      "v": 82
    },
    {
      "midi": 60,
      "hit": false,
      "t": 46238.89875000032,
      "d": 53.097300000008545,
      "v": 82
    },
    {
      "midi": 65,
      "hit": false,
      "t": 46249.96068750032,
      "d": 53.097300000008545,
      "v": 82
    },
    {
      "midi": 83,
      "hit": false,
      "t": 46283.14650000033,
      "d": 79.64594999999827,
      "v": 89
    },
    {
      "midi": 81,
      "hit": false,
      "t": 46371.64200000033,
      "d": 79.64594999999827,
      "v": 77
    },
    {
      "midi": 81,
      "hit": false,
      "t": 46460.137500000325,
      "d": 79.64594999999827,
      "v": 70
    },
    {
      "midi": 44,
      "hit": false,
      "t": 46548.63300000032,
      "d": 11.061937500002387,
      "v": 100
    },
    {
      "midi": 36,
      "hit": false,
      "t": 46548.63300000032,
      "d": 11.061937500002387,
      "v": 70
    },
    {
      "midi": 48,
      "hit": false,
      "t": 46548.63300000032,
      "d": 17.699100000005274,
      "v": 90
    },
    {
      "midi": 53,
      "hit": false,
      "t": 46548.63300000032,
      "d": 17.699100000005274,
      "v": 90
    },
    {
      "midi": 33,
      "hit": false,
      "t": 46548.63300000032,
      "d": 53.097300000008545,
      "v": 108
    },
    {
      "midi": 71,
      "hit": false,
      "t": 46548.63300000032,
      "d": 70.79640000000654,
      "v": 111
    },
    {
      "midi": 79,
      "hit": false,
      "t": 46548.63300000032,
      "d": 79.64595000000554,
      "v": 63
    },
    {
      "midi": 60,
      "hit": false,
      "t": 46548.63300000032,
      "d": 159.2919000000038,
      "v": 90
    },
    {
      "midi": 41,
      "hit": false,
      "t": 46548.63300000032,
      "d": 159.2919000000038,
      "v": 90
    },
    {
      "midi": 57,
      "hit": false,
      "t": 46548.63300000032,
      "d": 159.2919000000038,
      "v": 90
    },
    {
      "midi": 65,
      "hit": false,
      "t": 46548.63300000032,
      "d": 159.2919000000038,
      "v": 90
    },
    {
      "midi": 79,
      "hit": false,
      "t": 46637.128500000326,
      "d": 79.64594999999827,
      "v": 83
    },
    {
      "midi": 36,
      "hit": false,
      "t": 46725.62400000032,
      "d": 11.061937500002387,
      "v": 110
    },
    {
      "midi": 42,
      "hit": false,
      "t": 46725.62400000032,
      "d": 11.061937500002387,
      "v": 100
    },
    {
      "midi": 83,
      "hit": false,
      "t": 46725.62400000032,
      "d": 79.64595000001282,
      "v": 76
    },
    {
      "midi": 40,
      "hit": false,
      "t": 46725.62400000032,
      "d": 477.8757000000114,
      "v": 90
    },
    {
      "midi": 74,
      "hit": false,
      "t": 46725.62400000032,
      "d": 955.7514000000374,
      "v": 120
    },
    {
      "midi": 67,
      "hit": false,
      "t": 46725.62400000032,
      "d": 1115.0433000000412,
      "v": 121
    },
    {
      "midi": 47,
      "hit": false,
      "t": 46736.685937500326,
      "d": 174.7786125000057,
      "v": 90
    },
    {
      "midi": 52,
      "hit": false,
      "t": 46747.74787500033,
      "d": 174.7786125000057,
      "v": 90
    },
    {
      "midi": 55,
      "hit": false,
      "t": 46758.80981250033,
      "d": 477.8757000000114,
      "v": 90
    },
    {
      "midi": 59,
      "hit": false,
      "t": 46769.87175000033,
      "d": 477.8757000000114,
      "v": 90
    },
    {
      "midi": 64,
      "hit": false,
      "t": 46780.933687500336,
      "d": 424.7784000000029,
      "v": 90
    },
    {
      "midi": 83,
      "hit": false,
      "t": 46814.119500000335,
      "d": 79.64594999999827,
      "v": 70
    },
    {
      "midi": 81,
      "hit": false,
      "t": 46902.61500000033,
      "d": 79.64594999999827,
      "v": 65
    },
    {
      "midi": 81,
      "hit": false,
      "t": 46991.11050000033,
      "d": 79.64594999999827,
      "v": 85
    },
    {
      "midi": 44,
      "hit": false,
      "t": 47079.60600000033,
      "d": 11.061937500002387,
      "v": 100
    },
    {
      "midi": 47,
      "hit": false,
      "t": 47079.60600000033,
      "d": 17.699100000005274,
      "v": 82
    },
    {
      "midi": 52,
      "hit": false,
      "t": 47079.60600000033,
      "d": 17.699100000005274,
      "v": 82
    },
    {
      "midi": 79,
      "hit": false,
      "t": 47079.60600000033,
      "d": 79.64595000000554,
      "v": 81
    },
    {
      "midi": 79,
      "hit": false,
      "t": 47168.10150000033,
      "d": 79.64595000001282,
      "v": 74
    },
    {
      "midi": 38,
      "hit": false,
      "t": 47256.59700000034,
      "d": 11.061937500002387,
      "v": 110
    },
    {
      "midi": 54,
      "hit": false,
      "t": 47256.59700000034,
      "d": 11.061937500002387,
      "v": 90
    },
    {
      "midi": 42,
      "hit": false,
      "t": 47256.59700000034,
      "d": 11.061937500002387,
      "v": 100
    },
    {
      "midi": 40,
      "hit": false,
      "t": 47256.59700000034,
      "d": 26.548650000004272,
      "v": 82
    },
    {
      "midi": 83,
      "hit": false,
      "t": 47256.59700000034,
      "d": 79.64595000001282,
      "v": 75
    },
    {
      "midi": 47,
      "hit": false,
      "t": 47267.658937500346,
      "d": 53.097300000008545,
      "v": 82
    },
    {
      "midi": 52,
      "hit": false,
      "t": 47278.72087500035,
      "d": 53.097300000008545,
      "v": 82
    },
    {
      "midi": 55,
      "hit": false,
      "t": 47289.78281250035,
      "d": 53.097300000008545,
      "v": 82
    },
    {
      "midi": 59,
      "hit": false,
      "t": 47300.84475000035,
      "d": 53.097300000008545,
      "v": 82
    },
    {
      "midi": 64,
      "hit": false,
      "t": 47311.906687500355,
      "d": 53.097300000008545,
      "v": 82
    },
    {
      "midi": 83,
      "hit": false,
      "t": 47345.09250000036,
      "d": 79.64594999999827,
      "v": 82
    },
    {
      "midi": 81,
      "hit": false,
      "t": 47433.58800000036,
      "d": 79.64594999999827,
      "v": 80
    },
    {
      "midi": 81,
      "hit": false,
      "t": 47522.08350000036,
      "d": 79.64594999999827,
      "v": 75
    },
    {
      "midi": 44,
      "hit": false,
      "t": 47610.579000000354,
      "d": 11.061937500002387,
      "v": 100
    },
    {
      "midi": 36,
      "hit": false,
      "t": 47610.579000000354,
      "d": 11.061937500002387,
      "v": 100
    },
    {
      "midi": 47,
      "hit": false,
      "t": 47610.579000000354,
      "d": 17.699100000005274,
      "v": 90
    },
    {
      "midi": 52,
      "hit": false,
      "t": 47610.579000000354,
      "d": 17.699100000005274,
      "v": 90
    },
    {
      "midi": 64,
      "hit": false,
      "t": 47610.579000000354,
      "d": 70.79640000000654,
      "v": 90
    },
    {
      "midi": 79,
      "hit": false,
      "t": 47610.579000000354,
      "d": 79.64595000000554,
      "v": 74
    },
    {
      "midi": 38,
      "hit": false,
      "t": 47610.579000000354,
      "d": 159.2919000000038,
      "v": 109
    },
    {
      "midi": 59,
      "hit": false,
      "t": 47610.579000000354,
      "d": 159.2919000000038,
      "v": 90
    },
    {
      "midi": 40,
      "hit": false,
      "t": 47610.579000000354,
      "d": 159.2919000000038,
      "v": 90
    },
    {
      "midi": 55,
      "hit": false,
      "t": 47610.579000000354,
      "d": 159.2919000000038,
      "v": 90
    },
    {
      "midi": 79,
      "hit": false,
      "t": 47699.07450000036,
      "d": 79.64594999999827,
      "v": 85
    },
    {
      "midi": 43,
      "hit": false,
      "t": 47787.570000000356,
      "d": 11.061937500002387,
      "v": 110
    },
    {
      "midi": 46,
      "hit": false,
      "t": 47787.570000000356,
      "d": 11.061937500002387,
      "v": 100
    },
    {
      "midi": 40,
      "hit": false,
      "t": 47787.570000000356,
      "d": 53.097300000008545,
      "v": 82
    },
    {
      "midi": 83,
      "hit": false,
      "t": 47787.570000000356,
      "d": 79.64595000001282,
      "v": 73
    },
    {
      "midi": 71,
      "hit": false,
      "t": 47787.570000000356,
      "d": 955.7514000000301,
      "v": 113
    },
    {
      "midi": 47,
      "hit": false,
      "t": 47798.63193750036,
      "d": 53.097300000008545,
      "v": 82
    },
    {
      "midi": 52,
      "hit": false,
      "t": 47809.69387500036,
      "d": 53.097300000008545,
      "v": 82
    },
    {
      "midi": 55,
      "hit": false,
      "t": 47820.75581250036,
      "d": 53.097300000008545,
      "v": 82
    },
    {
      "midi": 59,
      "hit": false,
      "t": 47831.817750000366,
      "d": 53.097300000008545,
      "v": 82
    },
    {
      "midi": 64,
      "hit": false,
      "t": 47842.87968750037,
      "d": 53.097300000008545,
      "v": 82
    },
    {
      "midi": 83,
      "hit": false,
      "t": 47876.065500000375,
      "d": 79.64594999999827,
      "v": 73
    },
    {
      "midi": 43,
      "hit": false,
      "t": 47964.56100000037,
      "d": 11.061937500002387,
      "v": 100
    },
    {
      "midi": 81,
      "hit": false,
      "t": 47964.56100000037,
      "d": 79.64594999999827,
      "v": 82
    },
    {
      "midi": 81,
      "hit": false,
      "t": 48053.05650000037,
      "d": 79.64594999999827,
      "v": 78
    },
    {
      "midi": 47,
      "hit": false,
      "t": 48141.55200000037,
      "d": 11.061937500002387,
      "v": 90
    },
    {
      "midi": 36,
      "hit": false,
      "t": 48141.55200000037,
      "d": 11.061937500002387,
      "v": 100
    },
    {
      "midi": 52,
      "hit": false,
      "t": 48141.55200000037,
      "d": 17.699100000005274,
      "v": 90
    },
    {
      "midi": 79,
      "hit": false,
      "t": 48141.55200000037,
      "d": 79.64595000000554,
      "v": 73
    },
    {
      "midi": 40,
      "hit": false,
      "t": 48141.55200000037,
      "d": 159.2919000000038,
      "v": 90
    },
    {
      "midi": 59,
      "hit": false,
      "t": 48141.55200000037,
      "d": 159.2919000000038,
      "v": 90
    },
    {
      "midi": 55,
      "hit": false,
      "t": 48141.55200000037,
      "d": 159.2919000000038,
      "v": 90
    },
    {
      "midi": 64,
      "hit": false,
      "t": 48141.55200000037,
      "d": 159.2919000000038,
      "v": 90
    },
    {
      "midi": 74,
      "hit": false,
      "t": 48141.55200000037,
      "d": 513.2739000000147,
      "v": 125
    },
    {
      "midi": 79,
      "hit": false,
      "t": 48230.04750000037,
      "d": 79.64594999999827,
      "v": 70
    },
    {
      "midi": 47,
      "hit": false,
      "t": 48318.54300000037,
      "d": 11.061937500002387,
      "v": 90
    },
    {
      "midi": 40,
      "hit": false,
      "t": 48318.54300000037,
      "d": 53.097300000008545,
      "v": 82
    },
    {
      "midi": 83,
      "hit": false,
      "t": 48318.54300000037,
      "d": 79.64595000001282,
      "v": 74
    },
    {
      "midi": 47,
      "hit": false,
      "t": 48329.60493750037,
      "d": 53.097300000008545,
      "v": 82
    },
    {
      "midi": 52,
      "hit": false,
      "t": 48340.666875000374,
      "d": 53.097300000008545,
      "v": 82
    },
    {
      "midi": 55,
      "hit": false,
      "t": 48351.728812500376,
      "d": 53.097300000008545,
      "v": 82
    },
    {
      "midi": 59,
      "hit": false,
      "t": 48362.79075000038,
      "d": 53.097300000008545,
      "v": 82
    },
    {
      "midi": 64,
      "hit": false,
      "t": 48373.85268750038,
      "d": 53.097300000008545,
      "v": 82
    },
    {
      "midi": 83,
      "hit": false,
      "t": 48407.03850000039,
      "d": 79.64594999999827,
      "v": 72
    },
    {
      "midi": 81,
      "hit": false,
      "t": 48495.534000000385,
      "d": 79.64594999999827,
      "v": 67
    },
    {
      "midi": 81,
      "hit": false,
      "t": 48584.02950000038,
      "d": 79.64594999999827,
      "v": 78
    },
    {
      "midi": 36,
      "hit": false,
      "t": 48672.52500000038,
      "d": 11.061937500002387,
      "v": 70
    },
    {
      "midi": 47,
      "hit": false,
      "t": 48672.52500000038,
      "d": 17.699100000005274,
      "v": 90
    },
    {
      "midi": 52,
      "hit": false,
      "t": 48672.52500000038,
      "d": 17.699100000005274,
      "v": 90
    },
    {
      "midi": 35,
      "hit": false,
      "t": 48672.52500000038,
      "d": 53.097300000008545,
      "v": 112
    },
    {
      "midi": 64,
      "hit": false,
      "t": 48672.52500000038,
      "d": 70.79640000000654,
      "v": 90
    },
    {
      "midi": 79,
      "hit": false,
      "t": 48672.52500000038,
      "d": 79.64595000000554,
      "v": 60
    },
    {
      "midi": 59,
      "hit": false,
      "t": 48672.52500000038,
      "d": 159.2919000000038,
      "v": 90
    },
    {
      "midi": 40,
      "hit": false,
      "t": 48672.52500000038,
      "d": 159.2919000000038,
      "v": 90
    },
    {
      "midi": 55,
      "hit": false,
      "t": 48672.52500000038,
      "d": 159.2919000000038,
      "v": 90
    },
    {
      "midi": 79,
      "hit": false,
      "t": 48761.020500000384,
      "d": 79.64594999999827,
      "v": 47
    },
    {
      "midi": 36,
      "hit": false,
      "t": 48849.51600000038,
      "d": 11.061937500002387,
      "v": 110
    },
    {
      "midi": 49,
      "hit": false,
      "t": 48849.51600000038,
      "d": 11.061937500002387,
      "v": 110
    },
    {
      "midi": 72,
      "hit": false,
      "t": 48849.51600000038,
      "d": 238.9378499999948,
      "v": 119
    },
    {
      "midi": 45,
      "hit": false,
      "t": 48849.51600000038,
      "d": 1911.5027999999947,
      "v": 107
    },
    {
      "midi": 33,
      "hit": false,
      "t": 48849.51600000038,
      "d": 2123.8919999999853,
      "v": 122
    },
    {
      "midi": 52,
      "hit": false,
      "t": 48871.63987500039,
      "d": 163.71667499998875,
      "v": 107
    },
    {
      "midi": 57,
      "hit": false,
      "t": 48893.763750000384,
      "d": 152.65473749999364,
      "v": 107
    },
    {
      "midi": 64,
      "hit": false,
      "t": 48938.01150000038,
      "d": 150.44234999999753,
      "v": 107
    },
    {
      "midi": 69,
      "hit": false,
      "t": 48960.13537500038,
      "d": 1911.5027999999947,
      "v": 107
    },
    {
      "midi": 42,
      "hit": false,
      "t": 49380.48900000037,
      "d": 11.061937500002387,
      "v": 78
    },
    {
      "midi": 57,
      "hit": false,
      "t": 49380.48900000037,
      "d": 477.87570000000414,
      "v": 114
    },
    {
      "midi": 42,
      "hit": false,
      "t": 49911.46200000038,
      "d": 11.061937500002387,
      "v": 90
    },
    {
      "midi": 60,
      "hit": false,
      "t": 49911.46200000038,
      "d": 318.58380000000034,
      "v": 122
    },
    {
      "midi": 62,
      "hit": false,
      "t": 50265.44400000038,
      "d": 159.29189999999653,
      "v": 114
    },
    {
      "midi": 42,
      "hit": false,
      "t": 50442.435000000376,
      "d": 11.061937500002387,
      "v": 72
    },
    {
      "midi": 64,
      "hit": false,
      "t": 50442.435000000376,
      "d": 247.78740000000107,
      "v": 123
    },
    {
      "midi": 26,
      "hit": false,
      "t": 50796.41700000037,
      "d": 11.061937500002387,
      "v": 110
    },
    {
      "midi": 65,
      "hit": false,
      "t": 50796.41700000037,
      "d": 159.29189999999653,
      "v": 116
    },
    {
      "midi": 59,
      "hit": false,
      "t": 50973.40800000037,
      "d": 11.061937500002387,
      "v": 106
    },
    {
      "midi": 64,
      "hit": false,
      "t": 50973.40800000037,
      "d": 477.87570000000414,
      "v": 122
    },
    {
      "midi": 38,
      "hit": false,
      "t": 50973.40800000037,
      "d": 2123.8920000000217,
      "v": 122
    },
    {
      "midi": 62,
      "hit": false,
      "t": 52035.35400000037,
      "d": 318.58380000000034,
      "v": 122
    },
    {
      "midi": 64,
      "hit": false,
      "t": 52389.336000000374,
      "d": 123.89370000000054,
      "v": 117
    },
    {
      "midi": 59,
      "hit": false,
      "t": 52566.327000000376,
      "d": 11.061937500002387,
      "v": 77
    },
    {
      "midi": 65,
      "hit": false,
      "t": 52566.327000000376,
      "d": 318.5838000000076,
      "v": 125
    },
    {
      "midi": 59,
      "hit": false,
      "t": 52743.31800000038,
      "d": 11.061937500002387,
      "v": 96
    },
    {
      "midi": 59,
      "hit": false,
      "t": 52920.30900000039,
      "d": 11.061937500002387,
      "v": 71
    },
    {
      "midi": 64,
      "hit": false,
      "t": 52920.30900000039,
      "d": 654.866700000006,
      "v": 114
    },
    {
      "midi": 59,
      "hit": false,
      "t": 53097.30000000039,
      "d": 11.061937500002387,
      "v": 112
    },
    {
      "midi": 43,
      "hit": false,
      "t": 53097.30000000039,
      "d": 2123.892000000007,
      "v": 118
    },
    {
      "midi": 74,
      "hit": false,
      "t": 54159.24600000039,
      "d": 59.73446249999688,
      "v": 51
    },
    {
      "midi": 62,
      "hit": false,
      "t": 54159.24600000039,
      "d": 318.58380000000034,
      "v": 124
    },
    {
      "midi": 72,
      "hit": false,
      "t": 54225.61762500039,
      "d": 59.73446249999688,
      "v": 49
    },
    {
      "midi": 72,
      "hit": false,
      "t": 54291.98925000039,
      "d": 59.73446249999688,
      "v": 48
    },
    {
      "midi": 72,
      "hit": false,
      "t": 54358.36087500039,
      "d": 59.73446249999688,
      "v": 48
    },
    {
      "midi": 74,
      "hit": false,
      "t": 54424.73250000039,
      "d": 59.734462500004156,
      "v": 48
    },
    {
      "midi": 74,
      "hit": false,
      "t": 54491.1041250004,
      "d": 59.73446249999688,
      "v": 48
    },
    {
      "midi": 60,
      "hit": false,
      "t": 54513.228000000396,
      "d": 442.4775000000009,
      "v": 117
    },
    {
      "midi": 76,
      "hit": false,
      "t": 54557.4757500004,
      "d": 59.73446249999688,
      "v": 48
    },
    {
      "midi": 76,
      "hit": false,
      "t": 54623.8473750004,
      "d": 544.2473249999966,
      "v": 52
    },
    {
      "midi": 59,
      "hit": false,
      "t": 55044.201000000394,
      "d": 11.061937500002387,
      "v": 83
    },
    {
      "midi": 59,
      "hit": false,
      "t": 55221.192000000396,
      "d": 11.061937500002387,
      "v": 116
    },
    {
      "midi": 72,
      "hit": false,
      "t": 55221.192000000396,
      "d": 59.734462500004156,
      "v": 60
    },
    {
      "midi": 36,
      "hit": false,
      "t": 55221.192000000396,
      "d": 2123.892,
      "v": 123
    },
    {
      "midi": 60,
      "hit": false,
      "t": 55221.192000000396,
      "d": 3079.6433999999936,
      "v": 121
    },
    {
      "midi": 76,
      "hit": false,
      "t": 55287.5636250004,
      "d": 59.73446249999688,
      "v": 71
    },
    {
      "midi": 84,
      "hit": false,
      "t": 55353.9352500004,
      "d": 59.73446249999688,
      "v": 96
    },
    {
      "midi": 83,
      "hit": false,
      "t": 55420.3068750004,
      "d": 59.73446249999688,
      "v": 82
    },
    {
      "midi": 79,
      "hit": false,
      "t": 55486.6785000004,
      "d": 59.73446249999688,
      "v": 71
    },
    {
      "midi": 79,
      "hit": false,
      "t": 55553.0501250004,
      "d": 59.73446249999688,
      "v": 66
    },
    {
      "midi": 76,
      "hit": false,
      "t": 55619.4217500004,
      "d": 59.73446249999688,
      "v": 61
    },
    {
      "midi": 76,
      "hit": false,
      "t": 55685.7933750004,
      "d": 59.73446249999688,
      "v": 58
    },
    {
      "midi": 72,
      "hit": false,
      "t": 55752.1650000004,
      "d": 59.73446249999688,
      "v": 61
    },
    {
      "midi": 76,
      "hit": false,
      "t": 55818.5366250004,
      "d": 59.73446249999688,
      "v": 77
    },
    {
      "midi": 84,
      "hit": false,
      "t": 55884.9082500004,
      "d": 59.73446249999688,
      "v": 88
    },
    {
      "midi": 83,
      "hit": false,
      "t": 55951.2798750004,
      "d": 59.73446249999688,
      "v": 78
    },
    {
      "midi": 79,
      "hit": false,
      "t": 56017.6515000004,
      "d": 59.73446249999688,
      "v": 68
    },
    {
      "midi": 79,
      "hit": false,
      "t": 56084.0231250004,
      "d": 59.73446249999688,
      "v": 60
    },
    {
      "midi": 76,
      "hit": false,
      "t": 56150.3947500004,
      "d": 59.73446249999688,
      "v": 56
    },
    {
      "midi": 76,
      "hit": false,
      "t": 56216.7663750004,
      "d": 59.73446249999688,
      "v": 53
    },
    {
      "midi": 72,
      "hit": false,
      "t": 56283.1380000004,
      "d": 59.73446249999688,
      "v": 49
    },
    {
      "midi": 76,
      "hit": false,
      "t": 56349.5096250004,
      "d": 59.73446249999688,
      "v": 58
    },
    {
      "midi": 84,
      "hit": false,
      "t": 56415.8812500004,
      "d": 59.73446249999688,
      "v": 69
    },
    {
      "midi": 83,
      "hit": false,
      "t": 56482.2528750004,
      "d": 59.73446249999688,
      "v": 62
    },
    {
      "midi": 79,
      "hit": false,
      "t": 56548.6245000004,
      "d": 59.73446249999688,
      "v": 47
    },
    {
      "midi": 79,
      "hit": false,
      "t": 56614.9961250004,
      "d": 59.73446249999688,
      "v": 39
    },
    {
      "midi": 76,
      "hit": false,
      "t": 56681.3677500004,
      "d": 59.73446249999688,
      "v": 33
    },
    {
      "midi": 76,
      "hit": false,
      "t": 56747.7393750004,
      "d": 59.73446249999688,
      "v": 29
    },
    {
      "midi": 72,
      "hit": false,
      "t": 56814.1110000004,
      "d": 59.73446249999688,
      "v": 26
    },
    {
      "midi": 76,
      "hit": false,
      "t": 56880.4826250004,
      "d": 59.73446249999688,
      "v": 34
    },
    {
      "midi": 84,
      "hit": false,
      "t": 56946.8542500004,
      "d": 59.73446249999688,
      "v": 45
    },
    {
      "midi": 83,
      "hit": false,
      "t": 57013.2258750004,
      "d": 59.73446249999688,
      "v": 39
    },
    {
      "midi": 79,
      "hit": false,
      "t": 57079.5975000004,
      "d": 59.73446249999688,
      "v": 33
    },
    {
      "midi": 79,
      "hit": false,
      "t": 57145.969125000396,
      "d": 59.73446249999688,
      "v": 29
    },
    {
      "midi": 76,
      "hit": false,
      "t": 57212.340750000396,
      "d": 59.73446249999688,
      "v": 25
    },
    {
      "midi": 76,
      "hit": false,
      "t": 57278.712375000396,
      "d": 59.73446249999688,
      "v": 22
    },
    {
      "midi": 72,
      "hit": false,
      "t": 57345.084000000395,
      "d": 59.73446249999688,
      "v": 22
    },
    {
      "midi": 76,
      "hit": false,
      "t": 57411.455625000395,
      "d": 59.73446249999688,
      "v": 26
    },
    {
      "midi": 84,
      "hit": false,
      "t": 57477.827250000395,
      "d": 59.73446249999688,
      "v": 34
    },
    {
      "midi": 83,
      "hit": false,
      "t": 57544.198875000395,
      "d": 59.73446249999688,
      "v": 35
    },
    {
      "midi": 79,
      "hit": false,
      "t": 57610.570500000395,
      "d": 59.73446249999688,
      "v": 27
    },
    {
      "midi": 79,
      "hit": false,
      "t": 57676.942125000394,
      "d": 59.73446249999688,
      "v": 18
    },
    {
      "midi": 76,
      "hit": false,
      "t": 57743.313750000394,
      "d": 59.73446249999688,
      "v": 14
    },
    {
      "midi": 76,
      "hit": false,
      "t": 57809.685375000394,
      "d": 59.73446249999688,
      "v": 11
    },
    {
      "midi": 72,
      "hit": false,
      "t": 57876.05700000039,
      "d": 59.73446249999688,
      "v": 13
    },
    {
      "midi": 76,
      "hit": false,
      "t": 57942.42862500039,
      "d": 59.73446249999688,
      "v": 25
    },
    {
      "midi": 84,
      "hit": false,
      "t": 58008.80025000039,
      "d": 59.73446249999688,
      "v": 23
    },
    {
      "midi": 83,
      "hit": false,
      "t": 58075.17187500039,
      "d": 59.73446249999688,
      "v": 19
    },
    {
      "midi": 79,
      "hit": false,
      "t": 58141.54350000039,
      "d": 59.73446249999688,
      "v": 17
    },
    {
      "midi": 79,
      "hit": false,
      "t": 58207.91512500039,
      "d": 59.73446249999688,
      "v": 15
    },
    {
      "midi": 76,
      "hit": false,
      "t": 58274.28675000039,
      "d": 59.73446249999688,
      "v": 13
    },
    {
      "midi": 76,
      "hit": false,
      "t": 58340.65837500039,
      "d": 59.73446249999688,
      "v": 10
    },
    {
      "midi": 72,
      "hit": false,
      "t": 58407.03000000039,
      "d": 59.73446249999688,
      "v": 8
    },
    {
      "midi": 76,
      "hit": false,
      "t": 58473.40162500039,
      "d": 59.73446249999688,
      "v": 12
    },
    {
      "midi": 84,
      "hit": false,
      "t": 58539.77325000039,
      "d": 59.73446249999688,
      "v": 16
    },
    {
      "midi": 83,
      "hit": false,
      "t": 58606.14487500039,
      "d": 59.73446249999688,
      "v": 10
    },
    {
      "midi": 79,
      "hit": false,
      "t": 58672.51650000039,
      "d": 59.73446249999688,
      "v": 8
    },
    {
      "midi": 79,
      "hit": false,
      "t": 58738.88812500039,
      "d": 59.73446249999688,
      "v": 7
    },
    {
      "midi": 76,
      "hit": false,
      "t": 58805.25975000039,
      "d": 59.73446249999688,
      "v": 7
    },
    {
      "midi": 76,
      "hit": false,
      "t": 58871.63137500039,
      "d": 59.73446249999688,
      "v": 7
    },
    {
      "midi": 72,
      "hit": false,
      "t": 58938.00300000039,
      "d": 59.73446249999688,
      "v": 7
    },
    {
      "midi": 76,
      "hit": false,
      "t": 59004.37462500039,
      "d": 59.73446249999688,
      "v": 7
    },
    {
      "midi": 84,
      "hit": false,
      "t": 59070.74625000039,
      "d": 59.73446249999688,
      "v": 15
    },
    {
      "midi": 83,
      "hit": false,
      "t": 59137.11787500039,
      "d": 59.73446249999688,
      "v": 8
    },
    {
      "midi": 79,
      "hit": false,
      "t": 59203.48950000039,
      "d": 59.73446249999688,
      "v": 6
    },
    {
      "midi": 79,
      "hit": false,
      "t": 59269.86112500039,
      "d": 59.73446249999688,
      "v": 3
    },
    {
      "midi": 76,
      "hit": false,
      "t": 59336.23275000039,
      "d": 59.73446249999688,
      "v": 3
    },
    {
      "midi": 76,
      "hit": false,
      "t": 59402.60437500039,
      "d": 59.73446249999688,
      "v": 3
    }
  ]
}