{
  "jsonPath": "Soundtracks/Video Game Music/3D Battles of Worldrunner/3d-battles-of-worldrunner-the-mainlevel.json",
  "path": "Soundtracks\\Video Game Music\\3D Battles of Worldrunner\\3D_Battles_Of_Worldrunner_The_MainLevel.mid",
  "name": "3D_Battles_Of_Worldrunner_The_MainLevel",
  "difficulty": "Advanced",
  "bpm": 120,
  "notes": [
    {
      "midi": 60,
      "hit": false,
      "t": 0,
      "d": 244.79166666666666,
      "v": 110
    },
    {
      "midi": 52,
      "hit": false,
      "t": 0,
      "d": 244.79166666666666,
      "v": 110
    },
    {
      "midi": 67,
      "hit": false,
      "t": 250,
      "d": 244.79166666666663,
      "v": 110
    },
    {
      "midi": 58,
      "hit": false,
      "t": 250,
      "d": 244.79166666666663,
      "v": 110
    },
    {
      "midi": 67,
      "hit": false,
      "t": 499.99999999999994,
      "d": 244.79166666666669,
      "v": 110
    },
    {
      "midi": 58,
      "hit": false,
      "t": 499.99999999999994,
      "d": 244.79166666666669,
      "v": 110
    },
    {
      "midi": 69,
      "hit": false,
      "t": 750,
      "d": 244.79166666666663,
      "v": 110
    },
    {
      "midi": 58,
      "hit": false,
      "t": 750,
      "d": 244.79166666666663,
      "v": 110
    },
    {
      "midi": 70,
      "hit": false,
      "t": 1000,
      "d": 416.66666666666674,
      "v": 110
    },
    {
      "midi": 52,
      "hit": false,
      "t": 1000,
      "d": 244.79166666666674,
      "v": 110
    },
    {
      "midi": 60,
      "hit": false,
      "t": 1250,
      "d": 244.79166666666674,
      "v": 110
    },
    {
      "midi": 69,
      "hit": false,
      "t": 1500,
      "d": 244.79166666666674,
      "v": 110
    },
    {
      "midi": 60,
      "hit": false,
      "t": 1500,
      "d": 244.79166666666674,
      "v": 110
    },
    {
      "midi": 67,
      "hit": false,
      "t": 1750,
      "d": 244.79166666666674,
      "v": 110
    },
    {
      "midi": 60,
      "hit": false,
      "t": 1750,
      "d": 244.79166666666674,
      "v": 110
    },
    {
      "midi": 65,
      "hit": false,
      "t": 2000,
      "d": 416.6666666666665,
      "v": 110
    },
    {
      "midi": 45,
      "hit": false,
      "t": 2000,
      "d": 244.79166666666652,
      "v": 110
    },
    {
      "midi": 53,
      "hit": false,
      "t": 2250,
      "d": 244.79166666666652,
      "v": 110
    },
    {
      "midi": 67,
      "hit": false,
      "t": 2500,
      "d": 244.79166666666652,
      "v": 110
    },
    {
      "midi": 53,
      "hit": false,
      "t": 2500,
      "d": 244.79166666666652,
      "v": 110
    },
    {
      "midi": 69,
      "hit": false,
      "t": 2750,
      "d": 244.79166666666652,
      "v": 110
    },
    {
      "midi": 53,
      "hit": false,
      "t": 2750,
      "d": 244.79166666666652,
      "v": 110
    },
    {
      "midi": 67,
      "hit": false,
      "t": 3000,
      "d": 244.79166666666652,
      "v": 110
    },
    {
      "midi": 46,
      "hit": false,
      "t": 3000,
      "d": 244.79166666666652,
      "v": 110
    },
    {
      "midi": 64,
      "hit": false,
      "t": 3250,
      "d": 244.79166666666652,
      "v": 110
    },
    {
      "midi": 55,
      "hit": false,
      "t": 3250,
      "d": 244.79166666666652,
      "v": 110
    },
    {
      "midi": 60,
      "hit": false,
      "t": 3500,
      "d": 416.6666666666665,
      "v": 110
    },
    {
      "midi": 55,
      "hit": false,
      "t": 3500,
      "d": 244.79166666666652,
      "v": 110
    },
    {
      "midi": 55,
      "hit": false,
      "t": 3750,
      "d": 244.79166666666652,
      "v": 110
    },
    {
      "midi": 62,
      "hit": false,
      "t": 4000,
      "d": 244.79166666666697,
      "v": 110
    },
    {
      "midi": 46,
      "hit": false,
      "t": 4000,
      "d": 244.79166666666697,
      "v": 110
    },
    {
      "midi": 65,
      "hit": false,
      "t": 4250,
      "d": 244.79166666666697,
      "v": 110
    },
    {
      "midi": 50,
      "hit": false,
      "t": 4250,
      "d": 244.79166666666697,
      "v": 110
    },
    {
      "midi": 60,
      "hit": false,
      "t": 4500,
      "d": 244.79166666666697,
      "v": 110
    },
    {
      "midi": 45,
      "hit": false,
      "t": 4500,
      "d": 244.79166666666697,
      "v": 110
    },
    {
      "midi": 65,
      "hit": false,
      "t": 4750,
      "d": 244.79166666666697,
      "v": 110
    },
    {
      "midi": 48,
      "hit": false,
      "t": 4750,
      "d": 244.79166666666697,
      "v": 110
    },
    {
      "midi": 62,
      "hit": false,
      "t": 5000,
      "d": 244.79166666666697,
      "v": 110
    },
    {
      "midi": 46,
      "hit": false,
      "t": 5000,
      "d": 244.79166666666697,
      "v": 110
    },
    {
      "midi": 65,
      "hit": false,
      "t": 5250,
      "d": 244.79166666666697,
      "v": 110
    },
    {
      "midi": 50,
      "hit": false,
      "t": 5250,
      "d": 244.79166666666697,
      "v": 110
    },
    {
      "midi": 60,
      "hit": false,
      "t": 5500,
      "d": 244.79166666666697,
      "v": 110
    },
    {
      "midi": 45,
      "hit": false,
      "t": 5500,
      "d": 244.79166666666697,
      "v": 110
    },
    {
      "midi": 65,
      "hit": false,
      "t": 5750,
      "d": 244.79166666666697,
      "v": 110
    },
    {
      "midi": 48,
      "hit": false,
      "t": 5750,
      "d": 244.79166666666697,
      "v": 110
    },
    {
      "midi": 62,
      "hit": false,
      "t": 6000,
      "d": 244.79166666666697,
      "v": 110
    },
    {
      "midi": 46,
      "hit": false,
      "t": 6000,
      "d": 244.79166666666697,
      "v": 110
    },
    {
      "midi": 64,
      "hit": false,
      "t": 6250,
      "d": 244.79166666666697,
      "v": 110
    },
    {
      "midi": 53,
      "hit": false,
      "t": 6250,
      "d": 244.79166666666697,
      "v": 110
    },
    {
      "midi": 65,
      "hit": false,
      "t": 6500,
      "d": 244.79166666666697,
      "v": 110
    },
    {
      "midi": 52,
      "hit": false,
      "t": 6500,
      "d": 244.79166666666697,
      "v": 110
    },
    {
      "midi": 69,
      "hit": false,
      "t": 6750,
      "d": 244.79166666666697,
      "v": 110
    },
    {
      "midi": 53,
      "hit": false,
      "t": 6750,
      "d": 244.79166666666697,
      "v": 110
    },
    {
      "midi": 67,
      "hit": false,
      "t": 7000,
      "d": 244.79166666666697,
      "v": 110
    },
    {
      "midi": 48,
      "hit": false,
      "t": 7000,
      "d": 244.79166666666697,
      "v": 110
    },
    {
      "midi": 64,
      "hit": false,
      "t": 7250,
      "d": 244.79166666666697,
      "v": 110
    },
    {
      "midi": 55,
      "hit": false,
      "t": 7250,
      "d": 244.79166666666697,
      "v": 110
    },
    {
      "midi": 60,
      "hit": false,
      "t": 7500,
      "d": 416.66666666666697,
      "v": 110
    },
    {
      "midi": 52,
      "hit": false,
      "t": 7500,
      "d": 416.66666666666697,
      "v": 110
    },
    {
      "midi": 60,
      "hit": false,
      "t": 8000,
      "d": 244.79166666666606,
      "v": 110
    },
    {
      "midi": 52,
      "hit": false,
      "t": 8000,
      "d": 244.79166666666606,
      "v": 110
    },
    {
      "midi": 67,
      "hit": false,
      "t": 8250,
      "d": 244.79166666666606,
      "v": 110
    },
    {
      "midi": 58,
      "hit": false,
      "t": 8250,
      "d": 244.79166666666606,
      "v": 110
    },
    {
      "midi": 67,
      "hit": false,
      "t": 8500,
      "d": 244.79166666666606,
      "v": 110
    },
    {
      "midi": 58,
      "hit": false,
      "t": 8500,
      "d": 244.79166666666606,
      "v": 110
    },
    {
      "midi": 69,
      "hit": false,
      "t": 8750,
      "d": 244.79166666666606,
      "v": 110
    },
    {
      "midi": 58,
      "hit": false,
      "t": 8750,
      "d": 244.79166666666606,
      "v": 110
    },
    {
      "midi": 70,
      "hit": false,
      "t": 9000,
      "d": 416.66666666666606,
      "v": 110
    },
    {
      "midi": 52,
      "hit": false,
      "t": 9000,
      "d": 244.79166666666606,
      "v": 110
    },
    {
      "midi": 60,
      "hit": false,
      "t": 9250,
      "d": 244.79166666666606,
      "v": 110
    },
    {
      "midi": 69,
      "hit": false,
      "t": 9500,
      "d": 244.79166666666606,
      "v": 110
    },
    {
      "midi": 60,
      "hit": false,
      "t": 9500,
      "d": 244.79166666666606,
      "v": 110
    },
    {
      "midi": 67,
      "hit": false,
      "t": 9750,
      "d": 244.79166666666606,
      "v": 110
    },
    {
      "midi": 60,
      "hit": false,
      "t": 9750,
      "d": 244.79166666666606,
      "v": 110
    },
    {
      "midi": 65,
      "hit": false,
      "t": 10000,
      "d": 416.66666666666606,
      "v": 110
    },
    {
      "midi": 45,
      "hit": false,
      "t": 10000,
      "d": 244.79166666666606,
      "v": 110
    },
    {
      "midi": 53,
      "hit": false,
      "t": 10250,
      "d": 244.79166666666606,
      "v": 110
    },
    {
      "midi": 67,
      "hit": false,
      "t": 10500,
      "d": 244.79166666666606,
      "v": 110
    },
    {
      "midi": 53,
      "hit": false,
      "t": 10500,
      "d": 244.79166666666606,
      "v": 110
    },
    {
      "midi": 69,
      "hit": false,
      "t": 10750,
      "d": 244.79166666666606,
      "v": 110
    },
    {
      "midi": 53,
      "hit": false,
      "t": 10750,
      "d": 244.79166666666606,
      "v": 110
    },
    {
      "midi": 67,
      "hit": false,
      "t": 11000,
      "d": 244.79166666666606,
      "v": 110
    },
    {
      "midi": 46,
      "hit": false,
      "t": 11000,
      "d": 244.79166666666606,
      "v": 110
    },
    {
      "midi": 64,
      "hit": false,
      "t": 11250,
      "d": 244.79166666666606,
      "v": 110
    },
    {
      "midi": 55,
      "hit": false,
      "t": 11250,
      "d": 244.79166666666606,
      "v": 110
    },
    {
      "midi": 60,
      "hit": false,
      "t": 11500,
      "d": 416.66666666666606,
      "v": 110
    },
    {
      "midi": 55,
      "hit": false,
      "t": 11500,
      "d": 244.79166666666606,
      "v": 110
    },
    {
      "midi": 55,
      "hit": false,
      "t": 11750,
      "d": 244.79166666666606,
      "v": 110
    },
    {
      "midi": 62,
      "hit": false,
      "t": 12000,
      "d": 244.79166666666606,
      "v": 110
    },
    {
      "midi": 46,
      "hit": false,
      "t": 12000,
      "d": 244.79166666666606,
      "v": 110
    },
    {
      "midi": 65,
      "hit": false,
      "t": 12250,
      "d": 244.79166666666606,
      "v": 110
    },
    {
      "midi": 50,
      "hit": false,
      "t": 12250,
      "d": 244.79166666666606,
      "v": 110
    },
    {
      "midi": 60,
      "hit": false,
      "t": 12500,
      "d": 244.79166666666606,
      "v": 110
    },
    {
      "midi": 45,
      "hit": false,
      "t": 12500,
      "d": 244.79166666666606,
      "v": 110
    },
    {
      "midi": 65,
      "hit": false,
      "t": 12750,
      "d": 244.79166666666606,
      "v": 110
    },
    {
      "midi": 48,
      "hit": false,
      "t": 12750,
      "d": 244.79166666666606,
      "v": 110
    },
    {
      "midi": 62,
      "hit": false,
      "t": 13000,
      "d": 244.79166666666606,
      "v": 110
    },
    {
      "midi": 46,
      "hit": false,
      "t": 13000,
      "d": 244.79166666666606,
      "v": 110
    },
    {
      "midi": 64,
      "hit": false,
      "t": 13250,
      "d": 244.79166666666606,
      "v": 110
    },
    {
      "midi": 50,
      "hit": false,
      "t": 13250,
      "d": 244.79166666666606,
      "v": 110
    },
    {
      "midi": 65,
      "hit": false,
      "t": 13500,
      "d": 244.79166666666606,
      "v": 110
    },
    {
      "midi": 57,
      "hit": false,
      "t": 13500,
      "d": 244.79166666666606,
      "v": 110
    },
    {
      "midi": 69,
      "hit": false,
      "t": 13750,
      "d": 244.79166666666606,
      "v": 110
    },
    {
      "midi": 60,
      "hit": false,
      "t": 13750,
      "d": 244.79166666666606,
      "v": 110
    },
    {
      "midi": 72,
      "hit": false,
      "t": 14000,
      "d": 244.79166666666606,
      "v": 110
    },
    {
      "midi": 53,
      "hit": false,
      "t": 14000,
      "d": 244.79166666666606,
      "v": 110
    },
    {
      "midi": 70,
      "hit": false,
      "t": 14250,
      "d": 244.79166666666606,
      "v": 110
    },
    {
      "midi": 55,
      "hit": false,
      "t": 14250,
      "d": 244.79166666666606,
      "v": 110
    },
    {
      "midi": 69,
      "hit": false,
      "t": 14500,
      "d": 244.79166666666606,
      "v": 110
    },
    {
      "midi": 57,
      "hit": false,
      "t": 14500,
      "d": 244.79166666666606,
      "v": 110
    },
    {
      "midi": 67,
      "hit": false,
      "t": 14750,
      "d": 244.79166666666606,
      "v": 110
    },
    {
      "midi": 58,
      "hit": false,
      "t": 14750,
      "d": 244.79166666666606,
      "v": 110
    },
    {
      "midi": 65,
      "hit": false,
      "t": 15000,
      "d": 416.66666666666606,
      "v": 110
    },
    {
      "midi": 60,
      "hit": false,
      "t": 15000,
      "d": 416.66666666666606,
      "v": 110
    },
    {
      "midi": 69,
      "hit": false,
      "t": 16000,
      "d": 666.6666666666679,
      "v": 110
    },
    {
      "midi": 48,
      "hit": false,
      "t": 16000,
      "d": 244.79166666666606,
      "v": 110
    },
    {
      "midi": 57,
      "hit": false,
      "t": 16250,
      "d": 244.79166666666788,
      "v": 110
    },
    {
      "midi": 53,
      "hit": false,
      "t": 16500,
      "d": 244.79166666666788,
      "v": 110
    },
    {
      "midi": 70,
      "hit": false,
      "t": 16750,
      "d": 244.79166666666788,
      "v": 110
    },
    {
      "midi": 57,
      "hit": false,
      "t": 16750,
      "d": 244.79166666666788,
      "v": 110
    },
    {
      "midi": 69,
      "hit": false,
      "t": 17000,
      "d": 666.6666666666679,
      "v": 110
    },
    {
      "midi": 48,
      "hit": false,
      "t": 17000,
      "d": 244.79166666666788,
      "v": 110
    },
    {
      "midi": 57,
      "hit": false,
      "t": 17250,
      "d": 244.79166666666788,
      "v": 110
    },
    {
      "midi": 53,
      "hit": false,
      "t": 17500,
      "d": 244.79166666666788,
      "v": 110
    },
    {
      "midi": 70,
      "hit": false,
      "t": 17750,
      "d": 244.79166666666788,
      "v": 110
    },
    {
      "midi": 57,
      "hit": false,
      "t": 17750,
      "d": 244.79166666666788,
      "v": 110
    },
    {
      "midi": 69,
      "hit": false,
      "t": 18000,
      "d": 416.6666666666679,
      "v": 110
    },
    {
      "midi": 48,
      "hit": false,
      "t": 18000,
      "d": 244.79166666666788,
      "v": 110
    },
    {
      "midi": 57,
      "hit": false,
      "t": 18250,
      "d": 244.79166666666788,
      "v": 110
    },
    {
      "midi": 67,
      "hit": false,
      "t": 18500,
      "d": 416.6666666666679,
      "v": 110
    },
    {
      "midi": 53,
      "hit": false,
      "t": 18500,
      "d": 244.79166666666788,
      "v": 110
    },
    {
      "midi": 57,
      "hit": false,
      "t": 18750,
      "d": 244.79166666666788,
      "v": 110
    },
    {
      "midi": 65,
      "hit": false,
      "t": 19000,
      "d": 244.79166666666788,
      "v": 110
    },
    {
      "midi": 48,
      "hit": false,
      "t": 19000,
      "d": 244.79166666666788,
      "v": 110
    },
    {
      "midi": 64,
      "hit": false,
      "t": 19250,
      "d": 244.79166666666788,
      "v": 110
    },
    {
      "midi": 55,
      "hit": false,
      "t": 19250,
      "d": 244.79166666666788,
      "v": 110
    },
    {
      "midi": 65,
      "hit": false,
      "t": 19500,
      "d": 244.79166666666788,
      "v": 110
    },
    {
      "midi": 57,
      "hit": false,
      "t": 19500,
      "d": 244.79166666666788,
      "v": 110
    },
    {
      "midi": 67,
      "hit": false,
      "t": 19750,
      "d": 244.79166666666788,
      "v": 110
    },
    {
      "midi": 58,
      "hit": false,
      "t": 19750,
      "d": 244.79166666666788,
      "v": 110
    },
    {
      "midi": 69,
      "hit": false,
      "t": 20000,
      "d": 666.6666666666679,
      "v": 110
    },
    {
      "midi": 60,
      "hit": false,
      "t": 20000,
      "d": 666.6666666666679,
      "v": 110
    },
    {
      "midi": 70,
      "hit": false,
      "t": 20750,
      "d": 244.79166666666788,
      "v": 110
    },
    {
      "midi": 67,
      "hit": false,
      "t": 21000,
      "d": 416.6666666666679,
      "v": 110
    },
    {
      "midi": 46,
      "hit": false,
      "t": 21000,
      "d": 244.79166666666788,
      "v": 110
    },
    {
      "midi": 53,
      "hit": false,
      "t": 21250,
      "d": 244.79166666666788,
      "v": 110
    },
    {
      "midi": 69,
      "hit": false,
      "t": 21500,
      "d": 244.79166666666788,
      "v": 110
    },
    {
      "midi": 60,
      "hit": false,
      "t": 21500,
      "d": 244.79166666666788,
      "v": 110
    },
    {
      "midi": 67,
      "hit": false,
      "t": 21750,
      "d": 244.79166666666788,
      "v": 110
    },
    {
      "midi": 58,
      "hit": false,
      "t": 21750,
      "d": 244.79166666666788,
      "v": 110
    },
    {
      "midi": 65,
      "hit": false,
      "t": 22000,
      "d": 416.6666666666679,
      "v": 110
    },
    {
      "midi": 57,
      "hit": false,
      "t": 22000,
      "d": 416.6666666666679,
      "v": 110
    },
    {
      "midi": 64,
      "hit": false,
      "t": 22500,
      "d": 416.6666666666679,
      "v": 110
    },
    {
      "midi": 55,
      "hit": false,
      "t": 22500,
      "d": 1375,
      "v": 110
    },
    {
      "midi": 62,
      "hit": false,
      "t": 23000,
      "d": 244.79166666666788,
      "v": 110
    },
    {
      "midi": 64,
      "hit": false,
      "t": 23250,
      "d": 244.79166666666788,
      "v": 110
    },
    {
      "midi": 65,
      "hit": false,
      "t": 23500,
      "d": 244.79166666666788,
      "v": 110
    },
    {
      "midi": 66,
      "hit": false,
      "t": 23750,
      "d": 244.79166666666788,
      "v": 110
    },
    {
      "midi": 67,
      "hit": false,
      "t": 24000,
      "d": 666.6666666666679,
      "v": 110
    },
    {
      "midi": 52,
      "hit": false,
      "t": 24000,
      "d": 244.79166666666788,
      "v": 110
    },
    {
      "midi": 60,
      "hit": false,
      "t": 24250,
      "d": 244.79166666666788,
      "v": 110
    },
    {
      "midi": 58,
      "hit": false,
      "t": 24500,
      "d": 244.79166666666788,
      "v": 110
    },
    {
      "midi": 69,
      "hit": false,
      "t": 24750,
      "d": 244.79166666666788,
      "v": 110
    },
    {
      "midi": 60,
      "hit": false,
      "t": 24750,
      "d": 244.79166666666788,
      "v": 110
    },
    {
      "midi": 67,
      "hit": false,
      "t": 25000,
      "d": 666.6666666666679,
      "v": 110
    },
    {
      "midi": 52,
      "hit": false,
      "t": 25000,
      "d": 244.79166666666788,
      "v": 110
    },
    {
      "midi": 60,
      "hit": false,
      "t": 25250,
      "d": 244.79166666666788,
      "v": 110
    },
    {
      "midi": 58,
      "hit": false,
      "t": 25500,
      "d": 244.79166666666788,
      "v": 110
    },
    {
      "midi": 69,
      "hit": false,
      "t": 25750,
      "d": 244.79166666666788,
      "v": 110
    },
    {
      "midi": 60,
      "hit": false,
      "t": 25750,
      "d": 244.79166666666788,
      "v": 110
    },
    {
      "midi": 67,
      "hit": false,
      "t": 26000,
      "d": 416.6666666666679,
      "v": 110
    },
    {
      "midi": 52,
      "hit": false,
      "t": 26000,
      "d": 244.79166666666788,
      "v": 110
    },
    {
      "midi": 60,
      "hit": false,
      "t": 26250,
      "d": 244.79166666666788,
      "v": 110
    },
    {
      "midi": 65,
      "hit": false,
      "t": 26500,
      "d": 416.6666666666679,
      "v": 110
    },
    {
      "midi": 58,
      "hit": false,
      "t": 26500,
      "d": 244.79166666666788,
      "v": 110
    },
    {
      "midi": 60,
      "hit": false,
      "t": 26750,
      "d": 244.79166666666788,
      "v": 110
    },
    {
      "midi": 64,
      "hit": false,
      "t": 27000,
      "d": 244.79166666666788,
      "v": 110
    },
    {
      "midi": 52,
      "hit": false,
      "t": 27000,
      "d": 244.79166666666788,
      "v": 110
    },
    {
      "midi": 62,
      "hit": false,
      "t": 27250,
      "d": 244.79166666666788,
      "v": 110
    },
    {
      "midi": 53,
      "hit": false,
      "t": 27250,
      "d": 244.79166666666788,
      "v": 110
    },
    {
      "midi": 64,
      "hit": false,
      "t": 27500,
      "d": 244.79166666666788,
      "v": 110
    },
    {
      "midi": 55,
      "hit": false,
      "t": 27500,
      "d": 244.79166666666788,
      "v": 110
    },
    {
      "midi": 65,
      "hit": false,
      "t": 27750,
      "d": 244.79166666666788,
      "v": 110
    },
    {
      "midi": 57,
      "hit": false,
      "t": 27750,
      "d": 244.79166666666788,
      "v": 110
    },
    {
      "midi": 67,
      "hit": false,
      "t": 28000,
      "d": 875,
      "v": 110
    },
    {
      "midi": 58,
      "hit": false,
      "t": 28000,
      "d": 875,
      "v": 110
    },
    {
      "midi": 69,
      "hit": false,
      "t": 29000,
      "d": 416.6666666666679,
      "v": 110
    },
    {
      "midi": 60,
      "hit": false,
      "t": 29000,
      "d": 416.6666666666679,
      "v": 110
    },
    {
      "midi": 71,
      "hit": false,
      "t": 29500,
      "d": 416.6666666666679,
      "v": 110
    },
    {
      "midi": 62,
      "hit": false,
      "t": 29500,
      "d": 416.6666666666679,
      "v": 110
    },
    {
      "midi": 72,
      "hit": false,
      "t": 30000,
      "d": 1375,
      "v": 110
    },
    {
      "midi": 65,
      "hit": false,
      "t": 30000,
      "d": 244.79166666666788,
      "v": 110
    },
    {
      "midi": 64,
      "hit": false,
      "t": 30250,
      "d": 244.79166666666788,
      "v": 110
    },
    {
      "midi": 62,
      "hit": false,
      "t": 30500,
      "d": 244.79166666666788,
      "v": 110
    },
    {
      "midi": 64,
      "hit": false,
      "t": 30750,
      "d": 244.79166666666788,
      "v": 110
    },
    {
      "midi": 60,
      "hit": false,
      "t": 31000,
      "d": 244.79166666666788,
      "v": 110
    }
  ]
}