{
  "jsonPath": "Unknown/Unknown/Sergio Daniel Tiempo/from-jeux-denfants-op-22-la-toupie-no-2.json",
  "path": "Unknown\\Unknown\\Sergio Daniel Tiempo\\From Jeux denfants_ Op 22 La Toupie No 2.mid",
  "name": "From Jeux denfants_ Op 22 La Toupie No 2",
  "difficulty": "Advanced",
  "bpm": 150,
  "notes": [
    {
      "midi": 76,
      "hit": false,
      "t": 0,
      "d": 187.5,
      "v": 101
    },
    {
      "midi": 88,
      "hit": false,
      "t": 0,
      "d": 187.5,
      "v": 108
    },
    {
      "midi": 40,
      "hit": false,
      "t": 0,
      "d": 187.5,
      "v": 98
    },
    {
      "midi": 52,
      "hit": false,
      "t": 0,
      "d": 187.5,
      "v": 100
    },
    {
      "midi": 64,
      "hit": false,
      "t": 0,
      "d": 187.5,
      "v": 100
    },
    {
      "midi": 64,
      "hit": false,
      "t": 375,
      "d": 187.5,
      "v": 72
    },
    {
      "midi": 52,
      "hit": false,
      "t": 375,
      "d": 187.5,
      "v": 81
    },
    {
      "midi": 65,
      "hit": false,
      "t": 562.5,
      "d": 187.5,
      "v": 99
    },
    {
      "midi": 53,
      "hit": false,
      "t": 562.5,
      "d": 187.5,
      "v": 97
    },
    {
      "midi": 64,
      "hit": false,
      "t": 750,
      "d": 187.5,
      "v": 93
    },
    {
      "midi": 52,
      "hit": false,
      "t": 750,
      "d": 187.5,
      "v": 92
    },
    {
      "midi": 65,
      "hit": false,
      "t": 937.5,
      "d": 187.5,
      "v": 102
    },
    {
      "midi": 53,
      "hit": false,
      "t": 937.5,
      "d": 187.5,
      "v": 96
    },
    {
      "midi": 64,
      "hit": false,
      "t": 1125,
      "d": 187.5,
      "v": 95
    },
    {
      "midi": 52,
      "hit": false,
      "t": 1125,
      "d": 187.5,
      "v": 91
    },
    {
      "midi": 65,
      "hit": false,
      "t": 1312.5,
      "d": 187.5,
      "v": 88
    },
    {
      "midi": 53,
      "hit": false,
      "t": 1312.5,
      "d": 187.5,
      "v": 101
    },
    {
      "midi": 64,
      "hit": false,
      "t": 1500,
      "d": 187.5,
      "v": 79
    },
    {
      "midi": 52,
      "hit": false,
      "t": 1500,
      "d": 187.5,
      "v": 81
    },
    {
      "midi": 65,
      "hit": false,
      "t": 1687.5,
      "d": 187.5,
      "v": 87
    },
    {
      "midi": 53,
      "hit": false,
      "t": 1687.5,
      "d": 187.5,
      "v": 83
    },
    {
      "midi": 64,
      "hit": false,
      "t": 1875,
      "d": 187.5,
      "v": 82
    },
    {
      "midi": 52,
      "hit": false,
      "t": 1875,
      "d": 187.5,
      "v": 82
    },
    {
      "midi": 65,
      "hit": false,
      "t": 2062.5,
      "d": 187.5,
      "v": 88
    },
    {
      "midi": 53,
      "hit": false,
      "t": 2062.5,
      "d": 187.5,
      "v": 90
    },
    {
      "midi": 64,
      "hit": false,
      "t": 2250,
      "d": 187.5,
      "v": 80
    },
    {
      "midi": 52,
      "hit": false,
      "t": 2250,
      "d": 187.5,
      "v": 84
    },
    {
      "midi": 65,
      "hit": false,
      "t": 2437.5,
      "d": 187.5,
      "v": 84
    },
    {
      "midi": 53,
      "hit": false,
      "t": 2437.5,
      "d": 187.5,
      "v": 86
    },
    {
      "midi": 64,
      "hit": false,
      "t": 2625,
      "d": 187.5,
      "v": 68
    },
    {
      "midi": 52,
      "hit": false,
      "t": 2625,
      "d": 187.5,
      "v": 82
    },
    {
      "midi": 65,
      "hit": false,
      "t": 2812.5,
      "d": 187.5,
      "v": 75
    },
    {
      "midi": 53,
      "hit": false,
      "t": 2812.5,
      "d": 187.5,
      "v": 84
    },
    {
      "midi": 64,
      "hit": false,
      "t": 3000,
      "d": 375,
      "v": 70
    },
    {
      "midi": 52,
      "hit": false,
      "t": 3000,
      "d": 187.5,
      "v": 83
    },
    {
      "midi": 53,
      "hit": false,
      "t": 3187.5,
      "d": 187.5,
      "v": 84
    },
    {
      "midi": 52,
      "hit": false,
      "t": 3375,
      "d": 187.5,
      "v": 81
    },
    {
      "midi": 53,
      "hit": false,
      "t": 3562.5,
      "d": 187.5,
      "v": 81
    },
    {
      "midi": 52,
      "hit": false,
      "t": 3750,
      "d": 187.5,
      "v": 77
    },
    {
      "midi": 53,
      "hit": false,
      "t": 3937.5,
      "d": 187.5,
      "v": 73
    },
    {
      "midi": 52,
      "hit": false,
      "t": 4125,
      "d": 187.5,
      "v": 69
    },
    {
      "midi": 53,
      "hit": false,
      "t": 4312.5,
      "d": 187.5,
      "v": 74
    },
    {
      "midi": 52,
      "hit": false,
      "t": 4500,
      "d": 187.5,
      "v": 68
    },
    {
      "midi": 53,
      "hit": false,
      "t": 4687.5,
      "d": 187.5,
      "v": 73
    },
    {
      "midi": 52,
      "hit": false,
      "t": 4875,
      "d": 187.5,
      "v": 73
    },
    {
      "midi": 53,
      "hit": false,
      "t": 5062.5,
      "d": 187.5,
      "v": 75
    },
    {
      "midi": 52,
      "hit": false,
      "t": 5250,
      "d": 187.5,
      "v": 69
    },
    {
      "midi": 53,
      "hit": false,
      "t": 5437.5,
      "d": 187.5,
      "v": 73
    },
    {
      "midi": 72,
      "hit": false,
      "t": 5625,
      "d": 187.5,
      "v": 52
    },
    {
      "midi": 76,
      "hit": false,
      "t": 5625,
      "d": 187.5,
      "v": 56
    },
    {
      "midi": 52,
      "hit": false,
      "t": 5625,
      "d": 187.5,
      "v": 68
    },
    {
      "midi": 53,
      "hit": false,
      "t": 5812.5,
      "d": 187.5,
      "v": 70
    },
    {
      "midi": 71,
      "hit": false,
      "t": 6000,
      "d": 187.5,
      "v": 57
    },
    {
      "midi": 74,
      "hit": false,
      "t": 6000,
      "d": 187.5,
      "v": 53
    },
    {
      "midi": 40,
      "hit": false,
      "t": 6000,
      "d": 187.5,
      "v": 56
    },
    {
      "midi": 52,
      "hit": false,
      "t": 6000,
      "d": 187.5,
      "v": 60
    },
    {
      "midi": 53,
      "hit": false,
      "t": 6187.5,
      "d": 187.5,
      "v": 60
    },
    {
      "midi": 74,
      "hit": false,
      "t": 6375,
      "d": 187.5,
      "v": 66
    },
    {
      "midi": 83,
      "hit": false,
      "t": 6375,
      "d": 187.5,
      "v": 77
    },
    {
      "midi": 52,
      "hit": false,
      "t": 6375,
      "d": 187.5,
      "v": 59
    },
    {
      "midi": 53,
      "hit": false,
      "t": 6562.5,
      "d": 187.5,
      "v": 64
    },
    {
      "midi": 44,
      "hit": false,
      "t": 6750,
      "d": 187.5,
      "v": 58
    },
    {
      "midi": 52,
      "hit": false,
      "t": 6750,
      "d": 187.5,
      "v": 65
    },
    {
      "midi": 53,
      "hit": false,
      "t": 6937.5,
      "d": 187.5,
      "v": 59
    },
    {
      "midi": 71,
      "hit": false,
      "t": 7125,
      "d": 187.5,
      "v": 58
    },
    {
      "midi": 74,
      "hit": false,
      "t": 7125,
      "d": 187.5,
      "v": 52
    },
    {
      "midi": 52,
      "hit": false,
      "t": 7125,
      "d": 187.5,
      "v": 62
    },
    {
      "midi": 53,
      "hit": false,
      "t": 7312.5,
      "d": 187.5,
      "v": 61
    },
    {
      "midi": 69,
      "hit": false,
      "t": 7500,
      "d": 187.5,
      "v": 58
    },
    {
      "midi": 72,
      "hit": false,
      "t": 7500,
      "d": 187.5,
      "v": 59
    },
    {
      "midi": 45,
      "hit": false,
      "t": 7500,
      "d": 187.5,
      "v": 55
    },
    {
      "midi": 52,
      "hit": false,
      "t": 7500,
      "d": 187.5,
      "v": 62
    },
    {
      "midi": 53,
      "hit": false,
      "t": 7687.5,
      "d": 187.5,
      "v": 65
    },
    {
      "midi": 72,
      "hit": false,
      "t": 7875,
      "d": 187.5,
      "v": 66
    },
    {
      "midi": 81,
      "hit": false,
      "t": 7875,
      "d": 187.5,
      "v": 70
    },
    {
      "midi": 52,
      "hit": false,
      "t": 7875,
      "d": 187.5,
      "v": 59
    },
    {
      "midi": 53,
      "hit": false,
      "t": 8062.5,
      "d": 187.5,
      "v": 64
    },
    {
      "midi": 48,
      "hit": false,
      "t": 8250,
      "d": 187.5,
      "v": 56
    },
    {
      "midi": 52,
      "hit": false,
      "t": 8250,
      "d": 187.5,
      "v": 58
    },
    {
      "midi": 53,
      "hit": false,
      "t": 8437.5,
      "d": 187.5,
      "v": 63
    },
    {
      "midi": 69,
      "hit": false,
      "t": 8625,
      "d": 187.5,
      "v": 53
    },
    {
      "midi": 72,
      "hit": false,
      "t": 8625,
      "d": 187.5,
      "v": 55
    },
    {
      "midi": 52,
      "hit": false,
      "t": 8625,
      "d": 187.5,
      "v": 60
    },
    {
      "midi": 53,
      "hit": false,
      "t": 8812.5,
      "d": 187.5,
      "v": 66
    },
    {
      "midi": 66,
      "hit": false,
      "t": 9000,
      "d": 187.5,
      "v": 52
    },
    {
      "midi": 69,
      "hit": false,
      "t": 9000,
      "d": 187.5,
      "v": 51
    },
    {
      "midi": 51,
      "hit": false,
      "t": 9000,
      "d": 187.5,
      "v": 58
    },
    {
      "midi": 52,
      "hit": false,
      "t": 9000,
      "d": 187.5,
      "v": 59
    },
    {
      "midi": 53,
      "hit": false,
      "t": 9187.5,
      "d": 187.5,
      "v": 62
    },
    {
      "midi": 69,
      "hit": false,
      "t": 9375,
      "d": 187.5,
      "v": 65
    },
    {
      "midi": 78,
      "hit": false,
      "t": 9375,
      "d": 187.5,
      "v": 69
    },
    {
      "midi": 52,
      "hit": false,
      "t": 9375,
      "d": 187.5,
      "v": 61
    },
    {
      "midi": 53,
      "hit": false,
      "t": 9562.5,
      "d": 187.5,
      "v": 63
    },
    {
      "midi": 48,
      "hit": false,
      "t": 9750,
      "d": 187.5,
      "v": 49
    },
    {
      "midi": 52,
      "hit": false,
      "t": 9750,
      "d": 187.5,
      "v": 57
    },
    {
      "midi": 53,
      "hit": false,
      "t": 9937.5,
      "d": 187.5,
      "v": 63
    },
    {
      "midi": 66,
      "hit": false,
      "t": 10125,
      "d": 187.5,
      "v": 51
    },
    {
      "midi": 69,
      "hit": false,
      "t": 10125,
      "d": 187.5,
      "v": 50
    },
    {
      "midi": 52,
      "hit": false,
      "t": 10125,
      "d": 187.5,
      "v": 62
    },
    {
      "midi": 53,
      "hit": false,
      "t": 10312.5,
      "d": 187.5,
      "v": 61
    },
    {
      "midi": 68,
      "hit": false,
      "t": 10500,
      "d": 187.5,
      "v": 64
    },
    {
      "midi": 71,
      "hit": false,
      "t": 10500,
      "d": 187.5,
      "v": 62
    },
    {
      "midi": 47,
      "hit": false,
      "t": 10500,
      "d": 187.5,
      "v": 55
    },
    {
      "midi": 52,
      "hit": false,
      "t": 10500,
      "d": 187.5,
      "v": 59
    },
    {
      "midi": 53,
      "hit": false,
      "t": 10687.5,
      "d": 187.5,
      "v": 60
    },
    {
      "midi": 71,
      "hit": false,
      "t": 10875,
      "d": 187.5,
      "v": 67
    },
    {
      "midi": 80,
      "hit": false,
      "t": 10875,
      "d": 187.5,
      "v": 73
    },
    {
      "midi": 52,
      "hit": false,
      "t": 10875,
      "d": 187.5,
      "v": 60
    },
    {
      "midi": 53,
      "hit": false,
      "t": 11062.5,
      "d": 187.5,
      "v": 62
    },
    {
      "midi": 44,
      "hit": false,
      "t": 11250,
      "d": 187.5,
      "v": 61
    },
    {
      "midi": 52,
      "hit": false,
      "t": 11250,
      "d": 187.5,
      "v": 56
    },
    {
      "midi": 53,
      "hit": false,
      "t": 11437.5,
      "d": 187.5,
      "v": 65
    },
    {
      "midi": 72,
      "hit": false,
      "t": 11625,
      "d": 187.5,
      "v": 56
    },
    {
      "midi": 76,
      "hit": false,
      "t": 11625,
      "d": 187.5,
      "v": 56
    },
    {
      "midi": 52,
      "hit": false,
      "t": 11625,
      "d": 187.5,
      "v": 61
    },
    {
      "midi": 53,
      "hit": false,
      "t": 11812.5,
      "d": 187.5,
      "v": 61
    },
    {
      "midi": 71,
      "hit": false,
      "t": 12000,
      "d": 187.5,
      "v": 60
    },
    {
      "midi": 74,
      "hit": false,
      "t": 12000,
      "d": 187.5,
      "v": 60
    },
    {
      "midi": 40,
      "hit": false,
      "t": 12000,
      "d": 187.5,
      "v": 54
    },
    {
      "midi": 52,
      "hit": false,
      "t": 12000,
      "d": 187.5,
      "v": 59
    },
    {
      "midi": 53,
      "hit": false,
      "t": 12187.5,
      "d": 187.5,
      "v": 62
    },
    {
      "midi": 74,
      "hit": false,
      "t": 12375,
      "d": 187.5,
      "v": 62
    },
    {
      "midi": 83,
      "hit": false,
      "t": 12375,
      "d": 187.5,
      "v": 74
    },
    {
      "midi": 52,
      "hit": false,
      "t": 12375,
      "d": 187.5,
      "v": 57
    },
    {
      "midi": 53,
      "hit": false,
      "t": 12562.5,
      "d": 187.5,
      "v": 61
    },
    {
      "midi": 71,
      "hit": false,
      "t": 12750,
      "d": 187.5,
      "v": 54
    },
    {
      "midi": 74,
      "hit": false,
      "t": 12750,
      "d": 187.5,
      "v": 48
    },
    {
      "midi": 44,
      "hit": false,
      "t": 12750,
      "d": 187.5,
      "v": 56
    },
    {
      "midi": 52,
      "hit": false,
      "t": 12750,
      "d": 187.5,
      "v": 56
    },
    {
      "midi": 53,
      "hit": false,
      "t": 12937.5,
      "d": 187.5,
      "v": 64
    },
    {
      "midi": 74,
      "hit": false,
      "t": 13125,
      "d": 187.5,
      "v": 65
    },
    {
      "midi": 83,
      "hit": false,
      "t": 13125,
      "d": 187.5,
      "v": 75
    },
    {
      "midi": 52,
      "hit": false,
      "t": 13125,
      "d": 187.5,
      "v": 57
    },
    {
      "midi": 53,
      "hit": false,
      "t": 13312.5,
      "d": 187.5,
      "v": 62
    },
    {
      "midi": 69,
      "hit": false,
      "t": 13500,
      "d": 187.5,
      "v": 54
    },
    {
      "midi": 72,
      "hit": false,
      "t": 13500,
      "d": 187.5,
      "v": 44
    },
    {
      "midi": 45,
      "hit": false,
      "t": 13500,
      "d": 187.5,
      "v": 53
    },
    {
      "midi": 52,
      "hit": false,
      "t": 13500,
      "d": 187.5,
      "v": 59
    },
    {
      "midi": 53,
      "hit": false,
      "t": 13687.5,
      "d": 187.5,
      "v": 60
    },
    {
      "midi": 72,
      "hit": false,
      "t": 13875,
      "d": 187.5,
      "v": 65
    },
    {
      "midi": 81,
      "hit": false,
      "t": 13875,
      "d": 187.5,
      "v": 72
    },
    {
      "midi": 52,
      "hit": false,
      "t": 13875,
      "d": 187.5,
      "v": 56
    },
    {
      "midi": 53,
      "hit": false,
      "t": 14062.5,
      "d": 187.5,
      "v": 64
    },
    {
      "midi": 69,
      "hit": false,
      "t": 14250,
      "d": 187.5,
      "v": 52
    },
    {
      "midi": 72,
      "hit": false,
      "t": 14250,
      "d": 187.5,
      "v": 51
    },
    {
      "midi": 48,
      "hit": false,
      "t": 14250,
      "d": 187.5,
      "v": 57
    },
    {
      "midi": 52,
      "hit": false,
      "t": 14250,
      "d": 187.5,
      "v": 63
    },
    {
      "midi": 53,
      "hit": false,
      "t": 14437.5,
      "d": 187.5,
      "v": 64
    },
    {
      "midi": 72,
      "hit": false,
      "t": 14625,
      "d": 187.5,
      "v": 70
    },
    {
      "midi": 81,
      "hit": false,
      "t": 14625,
      "d": 187.5,
      "v": 77
    },
    {
      "midi": 52,
      "hit": false,
      "t": 14625,
      "d": 187.5,
      "v": 60
    },
    {
      "midi": 53,
      "hit": false,
      "t": 14812.5,
      "d": 187.5,
      "v": 60
    },
    {
      "midi": 66,
      "hit": false,
      "t": 15000,
      "d": 187.5,
      "v": 51
    },
    {
      "midi": 69,
      "hit": false,
      "t": 15000,
      "d": 187.5,
      "v": 52
    },
    {
      "midi": 51,
      "hit": false,
      "t": 15000,
      "d": 187.5,
      "v": 53
    },
    {
      "midi": 52,
      "hit": false,
      "t": 15000,
      "d": 187.5,
      "v": 59
    },
    {
      "midi": 53,
      "hit": false,
      "t": 15187.5,
      "d": 187.5,
      "v": 61
    },
    {
      "midi": 69,
      "hit": false,
      "t": 15375,
      "d": 187.5,
      "v": 65
    },
    {
      "midi": 78,
      "hit": false,
      "t": 15375,
      "d": 187.5,
      "v": 75
    },
    {
      "midi": 52,
      "hit": false,
      "t": 15375,
      "d": 187.5,
      "v": 55
    },
    {
      "midi": 53,
      "hit": false,
      "t": 15562.5,
      "d": 187.5,
      "v": 67
    },
    {
      "midi": 66,
      "hit": false,
      "t": 15750,
      "d": 187.5,
      "v": 57
    },
    {
      "midi": 69,
      "hit": false,
      "t": 15750,
      "d": 187.5,
      "v": 50
    },
    {
      "midi": 48,
      "hit": false,
      "t": 15750,
      "d": 187.5,
      "v": 55
    },
    {
      "midi": 52,
      "hit": false,
      "t": 15750,
      "d": 187.5,
      "v": 57
    },
    {
      "midi": 53,
      "hit": false,
      "t": 15937.5,
      "d": 187.5,
      "v": 59
    },
    {
      "midi": 69,
      "hit": false,
      "t": 16125,
      "d": 187.5,
      "v": 64
    },
    {
      "midi": 78,
      "hit": false,
      "t": 16125,
      "d": 187.5,
      "v": 74
    },
    {
      "midi": 52,
      "hit": false,
      "t": 16125,
      "d": 187.5,
      "v": 60
    },
    {
      "midi": 53,
      "hit": false,
      "t": 16312.5,
      "d": 187.5,
      "v": 64
    },
    {
      "midi": 68,
      "hit": false,
      "t": 16500,
      "d": 187.5,
      "v": 53
    },
    {
      "midi": 71,
      "hit": false,
      "t": 16500,
      "d": 187.5,
      "v": 45
    },
    {
      "midi": 47,
      "hit": false,
      "t": 16500,
      "d": 187.5,
      "v": 58
    },
    {
      "midi": 52,
      "hit": false,
      "t": 16500,
      "d": 187.5,
      "v": 63
    },
    {
      "midi": 53,
      "hit": false,
      "t": 16687.5,
      "d": 187.5,
      "v": 58
    },
    {
      "midi": 71,
      "hit": false,
      "t": 16875,
      "d": 187.5,
      "v": 62
    },
    {
      "midi": 80,
      "hit": false,
      "t": 16875,
      "d": 187.5,
      "v": 73
    },
    {
      "midi": 52,
      "hit": false,
      "t": 16875,
      "d": 187.5,
      "v": 58
    },
    {
      "midi": 53,
      "hit": false,
      "t": 17062.5,
      "d": 187.5,
      "v": 60
    },
    {
      "midi": 40,
      "hit": false,
      "t": 17250,
      "d": 187.5,
      "v": 54
    },
    {
      "midi": 52,
      "hit": false,
      "t": 17250,
      "d": 187.5,
      "v": 58
    },
    {
      "midi": 53,
      "hit": false,
      "t": 17437.5,
      "d": 187.5,
      "v": 66
    },
    {
      "midi": 71,
      "hit": false,
      "t": 17625,
      "d": 187.5,
      "v": 53
    },
    {
      "midi": 80,
      "hit": false,
      "t": 17625,
      "d": 187.5,
      "v": 59
    },
    {
      "midi": 52,
      "hit": false,
      "t": 17625,
      "d": 187.5,
      "v": 63
    },
    {
      "midi": 53,
      "hit": false,
      "t": 17812.5,
      "d": 187.5,
      "v": 67
    },
    {
      "midi": 76,
      "hit": false,
      "t": 18000,
      "d": 187.5,
      "v": 74
    },
    {
      "midi": 79,
      "hit": false,
      "t": 18000,
      "d": 187.5,
      "v": 60
    },
    {
      "midi": 49,
      "hit": false,
      "t": 18000,
      "d": 187.5,
      "v": 55
    },
    {
      "midi": 52,
      "hit": false,
      "t": 18000,
      "d": 187.5,
      "v": 64
    },
    {
      "midi": 58,
      "hit": false,
      "t": 18187.5,
      "d": 187.5,
      "v": 70
    },
    {
      "midi": 79,
      "hit": false,
      "t": 18375,
      "d": 187.5,
      "v": 63
    },
    {
      "midi": 88,
      "hit": false,
      "t": 18375,
      "d": 187.5,
      "v": 73
    },
    {
      "midi": 57,
      "hit": false,
      "t": 18375,
      "d": 187.5,
      "v": 59
    },
    {
      "midi": 58,
      "hit": false,
      "t": 18562.5,
      "d": 187.5,
      "v": 62
    },
    {
      "midi": 45,
      "hit": false,
      "t": 18750,
      "d": 187.5,
      "v": 49
    },
    {
      "midi": 57,
      "hit": false,
      "t": 18750,
      "d": 187.5,
      "v": 60
    },
    {
      "midi": 58,
      "hit": false,
      "t": 18937.5,
      "d": 187.5,
      "v": 61
    },
    {
      "midi": 76,
      "hit": false,
      "t": 19125,
      "d": 187.5,
      "v": 58
    },
    {
      "midi": 79,
      "hit": false,
      "t": 19125,
      "d": 187.5,
      "v": 52
    },
    {
      "midi": 57,
      "hit": false,
      "t": 19125,
      "d": 187.5,
      "v": 58
    },
    {
      "midi": 58,
      "hit": false,
      "t": 19312.5,
      "d": 187.5,
      "v": 62
    },
    {
      "midi": 74,
      "hit": false,
      "t": 19500,
      "d": 187.5,
      "v": 56
    },
    {
      "midi": 78,
      "hit": false,
      "t": 19500,
      "d": 187.5,
      "v": 58
    },
    {
      "midi": 50,
      "hit": false,
      "t": 19500,
      "d": 187.5,
      "v": 54
    },
    {
      "midi": 57,
      "hit": false,
      "t": 19500,
      "d": 187.5,
      "v": 58
    },
    {
      "midi": 58,
      "hit": false,
      "t": 19687.5,
      "d": 187.5,
      "v": 60
    },
    {
      "midi": 66,
      "hit": false,
      "t": 19875,
      "d": 187.5,
      "v": 45
    },
    {
      "midi": 74,
      "hit": false,
      "t": 19875,
      "d": 187.5,
      "v": 53
    },
    {
      "midi": 57,
      "hit": false,
      "t": 19875,
      "d": 187.5,
      "v": 60
    },
    {
      "midi": 58,
      "hit": false,
      "t": 20062.5,
      "d": 187.5,
      "v": 63
    },
    {
      "midi": 48,
      "hit": false,
      "t": 20250,
      "d": 187.5,
      "v": 53
    },
    {
      "midi": 57,
      "hit": false,
      "t": 20250,
      "d": 187.5,
      "v": 61
    },
    {
      "midi": 58,
      "hit": false,
      "t": 20437.5,
      "d": 187.5,
      "v": 62
    },
    {
      "midi": 69,
      "hit": false,
      "t": 20625,
      "d": 187.5,
      "v": 61
    },
    {
      "midi": 78,
      "hit": false,
      "t": 20625,
      "d": 187.5,
      "v": 61
    },
    {
      "midi": 57,
      "hit": false,
      "t": 20625,
      "d": 187.5,
      "v": 63
    },
    {
      "midi": 58,
      "hit": false,
      "t": 20812.5,
      "d": 187.5,
      "v": 63
    },
    {
      "midi": 74,
      "hit": false,
      "t": 21000,
      "d": 187.5,
      "v": 74
    },
    {
      "midi": 77,
      "hit": false,
      "t": 21000,
      "d": 187.5,
      "v": 61
    },
    {
      "midi": 47,
      "hit": false,
      "t": 21000,
      "d": 187.5,
      "v": 55
    },
    {
      "midi": 56,
      "hit": false,
      "t": 21000,
      "d": 187.5,
      "v": 63
    },
    {
      "midi": 58,
      "hit": false,
      "t": 21187.5,
      "d": 187.5,
      "v": 68
    },
    {
      "midi": 77,
      "hit": false,
      "t": 21375,
      "d": 187.5,
      "v": 76
    },
    {
      "midi": 86,
      "hit": false,
      "t": 21375,
      "d": 187.5,
      "v": 82
    },
    {
      "midi": 56,
      "hit": false,
      "t": 21375,
      "d": 187.5,
      "v": 65
    },
    {
      "midi": 58,
      "hit": false,
      "t": 21562.5,
      "d": 187.5,
      "v": 78
    },
    {
      "midi": 43,
      "hit": false,
      "t": 21750,
      "d": 187.5,
      "v": 63
    },
    {
      "midi": 56,
      "hit": false,
      "t": 21750,
      "d": 187.5,
      "v": 72
    },
    {
      "midi": 58,
      "hit": false,
      "t": 21937.5,
      "d": 187.5,
      "v": 76
    },
    {
      "midi": 74,
      "hit": false,
      "t": 22125,
      "d": 187.5,
      "v": 64
    },
    {
      "midi": 77,
      "hit": false,
      "t": 22125,
      "d": 187.5,
      "v": 65
    },
    {
      "midi": 56,
      "hit": false,
      "t": 22125,
      "d": 187.5,
      "v": 73
    },
    {
      "midi": 58,
      "hit": false,
      "t": 22312.5,
      "d": 187.5,
      "v": 78
    },
    {
      "midi": 72,
      "hit": false,
      "t": 22500,
      "d": 187.5,
      "v": 65
    },
    {
      "midi": 76,
      "hit": false,
      "t": 22500,
      "d": 187.5,
      "v": 75
    },
    {
      "midi": 48,
      "hit": false,
      "t": 22500,
      "d": 187.5,
      "v": 70
    },
    {
      "midi": 55,
      "hit": false,
      "t": 22500,
      "d": 187.5,
      "v": 73
    },
    {
      "midi": 56,
      "hit": false,
      "t": 22687.5,
      "d": 187.5,
      "v": 73
    },
    {
      "midi": 64,
      "hit": false,
      "t": 22875,
      "d": 187.5,
      "v": 60
    },
    {
      "midi": 72,
      "hit": false,
      "t": 22875,
      "d": 187.5,
      "v": 63
    },
    {
      "midi": 55,
      "hit": false,
      "t": 22875,
      "d": 187.5,
      "v": 70
    },
    {
      "midi": 56,
      "hit": false,
      "t": 23062.5,
      "d": 187.5,
      "v": 72
    },
    {
      "midi": 52,
      "hit": false,
      "t": 23250,
      "d": 187.5,
      "v": 69
    },
    {
      "midi": 55,
      "hit": false,
      "t": 23250,
      "d": 187.5,
      "v": 75
    },
    {
      "midi": 56,
      "hit": false,
      "t": 23437.5,
      "d": 187.5,
      "v": 82
    },
    {
      "midi": 72,
      "hit": false,
      "t": 23625,
      "d": 187.5,
      "v": 73
    },
    {
      "midi": 76,
      "hit": false,
      "t": 23625,
      "d": 187.5,
      "v": 67
    },
    {
      "midi": 55,
      "hit": false,
      "t": 23625,
      "d": 187.5,
      "v": 74
    },
    {
      "midi": 56,
      "hit": false,
      "t": 23812.5,
      "d": 187.5,
      "v": 82
    },
    {
      "midi": 72,
      "hit": false,
      "t": 24000,
      "d": 187.5,
      "v": 81
    },
    {
      "midi": 75,
      "hit": false,
      "t": 24000,
      "d": 187.5,
      "v": 80
    },
    {
      "midi": 54,
      "hit": false,
      "t": 24000,
      "d": 187.5,
      "v": 72
    },
    {
      "midi": 57,
      "hit": false,
      "t": 24000,
      "d": 187.5,
      "v": 83
    },
    {
      "midi": 59,
      "hit": false,
      "t": 24187.5,
      "d": 187.5,
      "v": 82
    },
    {
      "midi": 72,
      "hit": false,
      "t": 24375,
      "d": 187.5,
      "v": 88
    },
    {
      "midi": 75,
      "hit": false,
      "t": 24375,
      "d": 187.5,
      "v": 88
    },
    {
      "midi": 81,
      "hit": false,
      "t": 24375,
      "d": 187.5,
      "v": 90
    },
    {
      "midi": 57,
      "hit": false,
      "t": 24375,
      "d": 187.5,
      "v": 81
    },
    {
      "midi": 59,
      "hit": false,
      "t": 24562.5,
      "d": 187.5,
      "v": 88
    },
    {
      "midi": 72,
      "hit": false,
      "t": 24750,
      "d": 187.5,
      "v": 82
    },
    {
      "midi": 75,
      "hit": false,
      "t": 24750,
      "d": 187.5,
      "v": 82
    },
    {
      "midi": 83,
      "hit": false,
      "t": 24750,
      "d": 187.5,
      "v": 93
    },
    {
      "midi": 42,
      "hit": false,
      "t": 24750,
      "d": 187.5,
      "v": 77
    },
    {
      "midi": 60,
      "hit": false,
      "t": 24750,
      "d": 187.5,
      "v": 87
    },
    {
      "midi": 62,
      "hit": false,
      "t": 24937.5,
      "d": 187.5,
      "v": 94
    },
    {
      "midi": 72,
      "hit": false,
      "t": 25125,
      "d": 187.5,
      "v": 84
    },
    {
      "midi": 75,
      "hit": false,
      "t": 25125,
      "d": 187.5,
      "v": 84
    },
    {
      "midi": 81,
      "hit": false,
      "t": 25125,
      "d": 187.5,
      "v": 80
    },
    {
      "midi": 60,
      "hit": false,
      "t": 25125,
      "d": 187.5,
      "v": 69
    },
    {
      "midi": 62,
      "hit": false,
      "t": 25312.5,
      "d": 187.5,
      "v": 73
    },
    {
      "midi": 72,
      "hit": false,
      "t": 25500,
      "d": 187.5,
      "v": 86
    },
    {
      "midi": 76,
      "hit": false,
      "t": 25500,
      "d": 187.5,
      "v": 86
    },
    {
      "midi": 79,
      "hit": false,
      "t": 25500,
      "d": 187.5,
      "v": 78
    },
    {
      "midi": 43,
      "hit": false,
      "t": 25500,
      "d": 187.5,
      "v": 66
    },
    {
      "midi": 55,
      "hit": false,
      "t": 25500,
      "d": 187.5,
      "v": 65
    },
    {
      "midi": 57,
      "hit": false,
      "t": 25687.5,
      "d": 187.5,
      "v": 72
    },
    {
      "midi": 67,
      "hit": false,
      "t": 25875,
      "d": 187.5,
      "v": 72
    },
    {
      "midi": 72,
      "hit": false,
      "t": 25875,
      "d": 187.5,
      "v": 72
    },
    {
      "midi": 78,
      "hit": false,
      "t": 25875,
      "d": 187.5,
      "v": 81
    },
    {
      "midi": 55,
      "hit": false,
      "t": 25875,
      "d": 187.5,
      "v": 67
    },
    {
      "midi": 57,
      "hit": false,
      "t": 26062.5,
      "d": 187.5,
      "v": 74
    },
    {
      "midi": 67,
      "hit": false,
      "t": 26250,
      "d": 187.5,
      "v": 76
    },
    {
      "midi": 72,
      "hit": false,
      "t": 26250,
      "d": 187.5,
      "v": 76
    },
    {
      "midi": 77,
      "hit": false,
      "t": 26250,
      "d": 187.5,
      "v": 66
    },
    {
      "midi": 59,
      "hit": false,
      "t": 26250,
      "d": 187.5,
      "v": 66
    },
    {
      "midi": 60,
      "hit": false,
      "t": 26437.5,
      "d": 187.5,
      "v": 65
    },
    {
      "midi": 67,
      "hit": false,
      "t": 26625,
      "d": 187.5,
      "v": 75
    },
    {
      "midi": 72,
      "hit": false,
      "t": 26625,
      "d": 187.5,
      "v": 75
    },
    {
      "midi": 76,
      "hit": false,
      "t": 26625,
      "d": 187.5,
      "v": 73
    },
    {
      "midi": 59,
      "hit": false,
      "t": 26625,
      "d": 187.5,
      "v": 60
    },
    {
      "midi": 60,
      "hit": false,
      "t": 26812.5,
      "d": 187.5,
      "v": 62
    },
    {
      "midi": 65,
      "hit": false,
      "t": 27000,
      "d": 187.5,
      "v": 56
    },
    {
      "midi": 67,
      "hit": false,
      "t": 27000,
      "d": 187.5,
      "v": 56
    },
    {
      "midi": 71,
      "hit": false,
      "t": 27000,
      "d": 187.5,
      "v": 65
    },
    {
      "midi": 73,
      "hit": false,
      "t": 27000,
      "d": 187.5,
      "v": 65
    },
    {
      "midi": 43,
      "hit": false,
      "t": 27000,
      "d": 187.5,
      "v": 50
    },
    {
      "midi": 53,
      "hit": false,
      "t": 27000,
      "d": 187.5,
      "v": 52
    },
    {
      "midi": 55,
      "hit": false,
      "t": 27187.5,
      "d": 187.5,
      "v": 61
    },
    {
      "midi": 65,
      "hit": false,
      "t": 27375,
      "d": 187.5,
      "v": 66
    },
    {
      "midi": 67,
      "hit": false,
      "t": 27375,
      "d": 187.5,
      "v": 66
    },
    {
      "midi": 71,
      "hit": false,
      "t": 27375,
      "d": 187.5,
      "v": 69
    },
    {
      "midi": 74,
      "hit": false,
      "t": 27375,
      "d": 187.5,
      "v": 69
    },
    {
      "midi": 53,
      "hit": false,
      "t": 27375,
      "d": 187.5,
      "v": 50
    },
    {
      "midi": 55,
      "hit": false,
      "t": 27562.5,
      "d": 187.5,
      "v": 57
    },
    {
      "midi": 65,
      "hit": false,
      "t": 27750,
      "d": 187.5,
      "v": 64
    },
    {
      "midi": 67,
      "hit": false,
      "t": 27750,
      "d": 187.5,
      "v": 64
    },
    {
      "midi": 71,
      "hit": false,
      "t": 27750,
      "d": 187.5,
      "v": 66
    },
    {
      "midi": 77,
      "hit": false,
      "t": 27750,
      "d": 187.5,
      "v": 66
    },
    {
      "midi": 57,
      "hit": false,
      "t": 27750,
      "d": 187.5,
      "v": 55
    },
    {
      "midi": 59,
      "hit": false,
      "t": 27937.5,
      "d": 187.5,
      "v": 54
    },
    {
      "midi": 65,
      "hit": false,
      "t": 28125,
      "d": 187.5,
      "v": 56
    },
    {
      "midi": 67,
      "hit": false,
      "t": 28125,
      "d": 187.5,
      "v": 56
    },
    {
      "midi": 71,
      "hit": false,
      "t": 28125,
      "d": 187.5,
      "v": 45
    },
    {
      "midi": 57,
      "hit": false,
      "t": 28125,
      "d": 187.5,
      "v": 45
    },
    {
      "midi": 59,
      "hit": false,
      "t": 28312.5,
      "d": 187.5,
      "v": 54
    },
    {
      "midi": 64,
      "hit": false,
      "t": 28500,
      "d": 187.5,
      "v": 59
    },
    {
      "midi": 67,
      "hit": false,
      "t": 28500,
      "d": 187.5,
      "v": 59
    },
    {
      "midi": 72,
      "hit": false,
      "t": 28500,
      "d": 187.5,
      "v": 65
    },
    {
      "midi": 36,
      "hit": false,
      "t": 28500,
      "d": 187.5,
      "v": 56
    },
    {
      "midi": 48,
      "hit": false,
      "t": 28500,
      "d": 187.5,
      "v": 56
    },
    {
      "midi": 52,
      "hit": false,
      "t": 28500,
      "d": 187.5,
      "v": 53
    },
    {
      "midi": 53,
      "hit": false,
      "t": 28687.5,
      "d": 187.5,
      "v": 60
    },
    {
      "midi": 64,
      "hit": false,
      "t": 28875,
      "d": 187.5,
      "v": 61
    },
    {
      "midi": 67,
      "hit": false,
      "t": 28875,
      "d": 187.5,
      "v": 61
    },
    {
      "midi": 76,
      "hit": false,
      "t": 28875,
      "d": 187.5,
      "v": 68
    },
    {
      "midi": 52,
      "hit": false,
      "t": 28875,
      "d": 187.5,
      "v": 61
    },
    {
      "midi": 53,
      "hit": false,
      "t": 29062.5,
      "d": 187.5,
      "v": 63
    },
    {
      "midi": 54,
      "hit": false,
      "t": 29250,
      "d": 187.5,
      "v": 65
    },
    {
      "midi": 55,
      "hit": false,
      "t": 29437.5,
      "d": 187.5,
      "v": 60
    },
    {
      "midi": 64,
      "hit": false,
      "t": 29625,
      "d": 187.5,
      "v": 55
    },
    {
      "midi": 67,
      "hit": false,
      "t": 29625,
      "d": 187.5,
      "v": 55
    },
    {
      "midi": 72,
      "hit": false,
      "t": 29625,
      "d": 187.5,
      "v": 55
    },
    {
      "midi": 54,
      "hit": false,
      "t": 29625,
      "d": 187.5,
      "v": 59
    },
    {
      "midi": 55,
      "hit": false,
      "t": 29812.5,
      "d": 187.5,
      "v": 66
    },
    {
      "midi": 65,
      "hit": false,
      "t": 30000,
      "d": 187.5,
      "v": 68
    },
    {
      "midi": 68,
      "hit": false,
      "t": 30000,
      "d": 187.5,
      "v": 68
    },
    {
      "midi": 73,
      "hit": false,
      "t": 30000,
      "d": 187.5,
      "v": 62
    },
    {
      "midi": 41,
      "hit": false,
      "t": 30000,
      "d": 187.5,
      "v": 61
    },
    {
      "midi": 56,
      "hit": false,
      "t": 30000,
      "d": 187.5,
      "v": 62
    },
    {
      "midi": 58,
      "hit": false,
      "t": 30187.5,
      "d": 187.5,
      "v": 65
    },
    {
      "midi": 65,
      "hit": false,
      "t": 30375,
      "d": 187.5,
      "v": 64
    },
    {
      "midi": 68,
      "hit": false,
      "t": 30375,
      "d": 187.5,
      "v": 64
    },
    {
      "midi": 77,
      "hit": false,
      "t": 30375,
      "d": 187.5,
      "v": 64
    },
    {
      "midi": 56,
      "hit": false,
      "t": 30375,
      "d": 187.5,
      "v": 61
    },
    {
      "midi": 58,
      "hit": false,
      "t": 30562.5,
      "d": 187.5,
      "v": 65
    },
    {
      "midi": 56,
      "hit": false,
      "t": 30750,
      "d": 375,
      "v": 60
    },
    {
      "midi": 65,
      "hit": false,
      "t": 31125,
      "d": 187.5,
      "v": 50
    },
    {
      "midi": 68,
      "hit": false,
      "t": 31125,
      "d": 187.5,
      "v": 50
    },
    {
      "midi": 71,
      "hit": false,
      "t": 31125,
      "d": 187.5,
      "v": 52
    },
    {
      "midi": 64,
      "hit": false,
      "t": 31500,
      "d": 187.5,
      "v": 48
    },
    {
      "midi": 67,
      "hit": false,
      "t": 31500,
      "d": 187.5,
      "v": 48
    },
    {
      "midi": 72,
      "hit": false,
      "t": 31500,
      "d": 187.5,
      "v": 62
    },
    {
      "midi": 36,
      "hit": false,
      "t": 31500,
      "d": 187.5,
      "v": 54
    },
    {
      "midi": 48,
      "hit": false,
      "t": 31500,
      "d": 187.5,
      "v": 54
    },
    {
      "midi": 52,
      "hit": false,
      "t": 31500,
      "d": 187.5,
      "v": 54
    },
    {
      "midi": 53,
      "hit": false,
      "t": 31687.5,
      "d": 187.5,
      "v": 56
    },
    {
      "midi": 64,
      "hit": false,
      "t": 31875,
      "d": 187.5,
      "v": 54
    },
    {
      "midi": 67,
      "hit": false,
      "t": 31875,
      "d": 187.5,
      "v": 54
    },
    {
      "midi": 76,
      "hit": false,
      "t": 31875,
      "d": 187.5,
      "v": 57
    },
    {
      "midi": 52,
      "hit": false,
      "t": 31875,
      "d": 187.5,
      "v": 59
    },
    {
      "midi": 53,
      "hit": false,
      "t": 32062.5,
      "d": 187.5,
      "v": 65
    },
    {
      "midi": 54,
      "hit": false,
      "t": 32250,
      "d": 187.5,
      "v": 64
    },
    {
      "midi": 55,
      "hit": false,
      "t": 32437.5,
      "d": 187.5,
      "v": 64
    },
    {
      "midi": 64,
      "hit": false,
      "t": 32625,
      "d": 187.5,
      "v": 48
    },
    {
      "midi": 67,
      "hit": false,
      "t": 32625,
      "d": 187.5,
      "v": 48
    },
    {
      "midi": 72,
      "hit": false,
      "t": 32625,
      "d": 187.5,
      "v": 54
    },
    {
      "midi": 54,
      "hit": false,
      "t": 32625,
      "d": 187.5,
      "v": 59
    },
    {
      "midi": 55,
      "hit": false,
      "t": 32812.5,
      "d": 187.5,
      "v": 60
    },
    {
      "midi": 65,
      "hit": false,
      "t": 33000,
      "d": 187.5,
      "v": 56
    },
    {
      "midi": 68,
      "hit": false,
      "t": 33000,
      "d": 187.5,
      "v": 56
    },
    {
      "midi": 73,
      "hit": false,
      "t": 33000,
      "d": 187.5,
      "v": 55
    },
    {
      "midi": 41,
      "hit": false,
      "t": 33000,
      "d": 187.5,
      "v": 49
    },
    {
      "midi": 56,
      "hit": false,
      "t": 33000,
      "d": 187.5,
      "v": 59
    },
    {
      "midi": 58,
      "hit": false,
      "t": 33187.5,
      "d": 187.5,
      "v": 68
    },
    {
      "midi": 65,
      "hit": false,
      "t": 33375,
      "d": 187.5,
      "v": 56
    },
    {
      "midi": 68,
      "hit": false,
      "t": 33375,
      "d": 187.5,
      "v": 56
    },
    {
      "midi": 77,
      "hit": false,
      "t": 33375,
      "d": 187.5,
      "v": 62
    },
    {
      "midi": 56,
      "hit": false,
      "t": 33375,
      "d": 187.5,
      "v": 58
    },
    {
      "midi": 58,
      "hit": false,
      "t": 33562.5,
      "d": 187.5,
      "v": 66
    },
    {
      "midi": 56,
      "hit": false,
      "t": 33750,
      "d": 375,
      "v": 58
    },
    {
      "midi": 65,
      "hit": false,
      "t": 34125,
      "d": 187.5,
      "v": 48
    },
    {
      "midi": 68,
      "hit": false,
      "t": 34125,
      "d": 187.5,
      "v": 48
    },
    {
      "midi": 71,
      "hit": false,
      "t": 34125,
      "d": 187.5,
      "v": 44
    },
    {
      "midi": 64,
      "hit": false,
      "t": 34500,
      "d": 187.5,
      "v": 52
    },
    {
      "midi": 67,
      "hit": false,
      "t": 34500,
      "d": 187.5,
      "v": 52
    },
    {
      "midi": 72,
      "hit": false,
      "t": 34500,
      "d": 187.5,
      "v": 57
    },
    {
      "midi": 36,
      "hit": false,
      "t": 34500,
      "d": 187.5,
      "v": 61
    },
    {
      "midi": 48,
      "hit": false,
      "t": 34500,
      "d": 187.5,
      "v": 61
    },
    {
      "midi": 55,
      "hit": false,
      "t": 34500,
      "d": 187.5,
      "v": 57
    },
    {
      "midi": 56,
      "hit": false,
      "t": 34687.5,
      "d": 187.5,
      "v": 67
    },
    {
      "midi": 64,
      "hit": false,
      "t": 34875,
      "d": 187.5,
      "v": 59
    },
    {
      "midi": 67,
      "hit": false,
      "t": 34875,
      "d": 187.5,
      "v": 59
    },
    {
      "midi": 76,
      "hit": false,
      "t": 34875,
      "d": 187.5,
      "v": 62
    },
    {
      "midi": 55,
      "hit": false,
      "t": 34875,
      "d": 187.5,
      "v": 58
    },
    {
      "midi": 65,
      "hit": false,
      "t": 35250,
      "d": 187.5,
      "v": 59
    },
    {
      "midi": 68,
      "hit": false,
      "t": 35250,
      "d": 187.5,
      "v": 59
    },
    {
      "midi": 74,
      "hit": false,
      "t": 35250,
      "d": 187.5,
      "v": 57
    },
    {
      "midi": 41,
      "hit": false,
      "t": 35250,
      "d": 187.5,
      "v": 60
    },
    {
      "midi": 56,
      "hit": false,
      "t": 35250,
      "d": 187.5,
      "v": 53
    },
    {
      "midi": 58,
      "hit": false,
      "t": 35437.5,
      "d": 187.5,
      "v": 60
    },
    {
      "midi": 65,
      "hit": false,
      "t": 35625,
      "d": 187.5,
      "v": 64
    },
    {
      "midi": 68,
      "hit": false,
      "t": 35625,
      "d": 187.5,
      "v": 64
    },
    {
      "midi": 71,
      "hit": false,
      "t": 35625,
      "d": 187.5,
      "v": 51
    },
    {
      "midi": 56,
      "hit": false,
      "t": 35625,
      "d": 187.5,
      "v": 60
    },
    {
      "midi": 64,
      "hit": false,
      "t": 36000,
      "d": 187.5,
      "v": 53
    },
    {
      "midi": 67,
      "hit": false,
      "t": 36000,
      "d": 187.5,
      "v": 53
    },
    {
      "midi": 72,
      "hit": false,
      "t": 36000,
      "d": 187.5,
      "v": 58
    },
    {
      "midi": 36,
      "hit": false,
      "t": 36000,
      "d": 187.5,
      "v": 55
    },
    {
      "midi": 48,
      "hit": false,
      "t": 36000,
      "d": 187.5,
      "v": 55
    },
    {
      "midi": 55,
      "hit": false,
      "t": 36000,
      "d": 187.5,
      "v": 50
    },
    {
      "midi": 56,
      "hit": false,
      "t": 36187.5,
      "d": 187.5,
      "v": 60
    },
    {
      "midi": 64,
      "hit": false,
      "t": 36375,
      "d": 187.5,
      "v": 58
    },
    {
      "midi": 67,
      "hit": false,
      "t": 36375,
      "d": 187.5,
      "v": 58
    },
    {
      "midi": 76,
      "hit": false,
      "t": 36375,
      "d": 187.5,
      "v": 64
    },
    {
      "midi": 55,
      "hit": false,
      "t": 36375,
      "d": 187.5,
      "v": 57
    },
    {
      "midi": 65,
      "hit": false,
      "t": 36750,
      "d": 187.5,
      "v": 56
    },
    {
      "midi": 68,
      "hit": false,
      "t": 36750,
      "d": 187.5,
      "v": 56
    },
    {
      "midi": 74,
      "hit": false,
      "t": 36750,
      "d": 187.5,
      "v": 49
    },
    {
      "midi": 41,
      "hit": false,
      "t": 36750,
      "d": 187.5,
      "v": 59
    },
    {
      "midi": 56,
      "hit": false,
      "t": 36750,
      "d": 187.5,
      "v": 57
    },
    {
      "midi": 58,
      "hit": false,
      "t": 36937.5,
      "d": 187.5,
      "v": 61
    },
    {
      "midi": 65,
      "hit": false,
      "t": 37125,
      "d": 187.5,
      "v": 62
    },
    {
      "midi": 68,
      "hit": false,
      "t": 37125,
      "d": 187.5,
      "v": 62
    },
    {
      "midi": 71,
      "hit": false,
      "t": 37125,
      "d": 187.5,
      "v": 51
    },
    {
      "midi": 56,
      "hit": false,
      "t": 37125,
      "d": 187.5,
      "v": 60
    },
    {
      "midi": 64,
      "hit": false,
      "t": 37500,
      "d": 187.5,
      "v": 52
    },
    {
      "midi": 67,
      "hit": false,
      "t": 37500,
      "d": 187.5,
      "v": 52
    },
    {
      "midi": 72,
      "hit": false,
      "t": 37500,
      "d": 187.5,
      "v": 53
    },
    {
      "midi": 36,
      "hit": false,
      "t": 37500,
      "d": 187.5,
      "v": 56
    },
    {
      "midi": 48,
      "hit": false,
      "t": 37500,
      "d": 187.5,
      "v": 56
    },
    {
      "midi": 55,
      "hit": false,
      "t": 37500,
      "d": 187.5,
      "v": 51
    },
    {
      "midi": 56,
      "hit": false,
      "t": 37687.5,
      "d": 187.5,
      "v": 58
    },
    {
      "midi": 64,
      "hit": false,
      "t": 37875,
      "d": 187.5,
      "v": 50
    },
    {
      "midi": 67,
      "hit": false,
      "t": 37875,
      "d": 187.5,
      "v": 50
    },
    {
      "midi": 76,
      "hit": false,
      "t": 37875,
      "d": 187.5,
      "v": 65
    },
    {
      "midi": 55,
      "hit": false,
      "t": 37875,
      "d": 187.5,
      "v": 60
    },
    {
      "midi": 64,
      "hit": false,
      "t": 38250,
      "d": 187.5,
      "v": 55
    },
    {
      "midi": 67,
      "hit": false,
      "t": 38250,
      "d": 187.5,
      "v": 55
    },
    {
      "midi": 72,
      "hit": false,
      "t": 38250,
      "d": 187.5,
      "v": 50
    },
    {
      "midi": 64,
      "hit": false,
      "t": 38625,
      "d": 187.5,
      "v": 54
    },
    {
      "midi": 67,
      "hit": false,
      "t": 38625,
      "d": 187.5,
      "v": 54
    },
    {
      "midi": 76,
      "hit": false,
      "t": 38625,
      "d": 187.5,
      "v": 65
    },
    {
      "midi": 64,
      "hit": false,
      "t": 39000,
      "d": 187.5,
      "v": 57
    },
    {
      "midi": 67,
      "hit": false,
      "t": 39000,
      "d": 187.5,
      "v": 57
    },
    {
      "midi": 72,
      "hit": false,
      "t": 39000,
      "d": 187.5,
      "v": 53
    },
    {
      "midi": 55,
      "hit": false,
      "t": 39000,
      "d": 187.5,
      "v": 57
    },
    {
      "midi": 56,
      "hit": false,
      "t": 39187.5,
      "d": 187.5,
      "v": 59
    },
    {
      "midi": 64,
      "hit": false,
      "t": 39375,
      "d": 187.5,
      "v": 53
    },
    {
      "midi": 67,
      "hit": false,
      "t": 39375,
      "d": 187.5,
      "v": 53
    },
    {
      "midi": 76,
      "hit": false,
      "t": 39375,
      "d": 187.5,
      "v": 58
    },
    {
      "midi": 55,
      "hit": false,
      "t": 39375,
      "d": 187.5,
      "v": 58
    },
    {
      "midi": 64,
      "hit": false,
      "t": 39750,
      "d": 187.5,
      "v": 55
    },
    {
      "midi": 67,
      "hit": false,
      "t": 39750,
      "d": 187.5,
      "v": 55
    },
    {
      "midi": 72,
      "hit": false,
      "t": 39750,
      "d": 187.5,
      "v": 48
    },
    {
      "midi": 64,
      "hit": false,
      "t": 40125,
      "d": 187.5,
      "v": 59
    },
    {
      "midi": 67,
      "hit": false,
      "t": 40125,
      "d": 187.5,
      "v": 59
    },
    {
      "midi": 76,
      "hit": false,
      "t": 40125,
      "d": 187.5,
      "v": 56
    },
    {
      "midi": 64,
      "hit": false,
      "t": 40500,
      "d": 3375,
      "v": 53
    },
    {
      "midi": 67,
      "hit": false,
      "t": 40500,
      "d": 3375,
      "v": 53
    },
    {
      "midi": 70,
      "hit": false,
      "t": 40500,
      "d": 3375,
      "v": 53
    },
    {
      "midi": 76,
      "hit": false,
      "t": 40500,
      "d": 3375,
      "v": 53
    },
    {
      "midi": 79,
      "hit": false,
      "t": 40500,
      "d": 3375,
      "v": 53
    },
    {
      "midi": 37,
      "hit": false,
      "t": 40500,
      "d": 3375,
      "v": 48
    },
    {
      "midi": 49,
      "hit": false,
      "t": 40500,
      "d": 3375,
      "v": 48
    },
    {
      "midi": 52,
      "hit": false,
      "t": 40500,
      "d": 3375,
      "v": 44
    },
    {
      "midi": 55,
      "hit": false,
      "t": 40500,
      "d": 3375,
      "v": 44
    },
    {
      "midi": 58,
      "hit": false,
      "t": 40500,
      "d": 3375,
      "v": 44
    },
    {
      "midi": 37,
      "hit": false,
      "t": 45375,
      "d": 380.859375,
      "v": 46
    },
    {
      "midi": 40,
      "hit": false,
      "t": 45750,
      "d": 251.953125,
      "v": 50
    },
    {
      "midi": 43,
      "hit": false,
      "t": 45999.0234375,
      "d": 251.953125,
      "v": 53
    },
    {
      "midi": 46,
      "hit": false,
      "t": 46248.046875,
      "d": 254.8828125,
      "v": 57
    },
    {
      "midi": 45,
      "hit": false,
      "t": 46500,
      "d": 251.953125,
      "v": 51
    },
    {
      "midi": 43,
      "hit": false,
      "t": 46749.0234375,
      "d": 251.953125,
      "v": 49
    },
    {
      "midi": 46,
      "hit": false,
      "t": 46998.046875,
      "d": 254.8828125,
      "v": 54
    },
    {
      "midi": 52,
      "hit": false,
      "t": 47250,
      "d": 251.953125,
      "v": 58
    },
    {
      "midi": 50,
      "hit": false,
      "t": 47499.0234375,
      "d": 251.953125,
      "v": 51
    },
    {
      "midi": 49,
      "hit": false,
      "t": 47748.046875,
      "d": 254.8828125,
      "v": 49
    },
    {
      "midi": 52,
      "hit": false,
      "t": 48000,
      "d": 251.953125,
      "v": 52
    },
    {
      "midi": 55,
      "hit": false,
      "t": 48249.0234375,
      "d": 251.953125,
      "v": 50
    },
    {
      "midi": 58,
      "hit": false,
      "t": 48498.046875,
      "d": 254.8828125,
      "v": 51
    },
    {
      "midi": 57,
      "hit": false,
      "t": 48750,
      "d": 251.953125,
      "v": 47
    },
    {
      "midi": 55,
      "hit": false,
      "t": 48999.0234375,
      "d": 251.953125,
      "v": 50
    },
    {
      "midi": 58,
      "hit": false,
      "t": 49248.046875,
      "d": 237.3046875,
      "v": 50
    },
    {
      "midi": 64,
      "hit": false,
      "t": 49500,
      "d": 251.953125,
      "v": 49
    },
    {
      "midi": 62,
      "hit": false,
      "t": 49749.0234375,
      "d": 251.953125,
      "v": 42
    },
    {
      "midi": 61,
      "hit": false,
      "t": 49998.046875,
      "d": 254.8828125,
      "v": 45
    },
    {
      "midi": 64,
      "hit": false,
      "t": 50250,
      "d": 251.953125,
      "v": 43
    },
    {
      "midi": 67,
      "hit": false,
      "t": 50499.0234375,
      "d": 251.953125,
      "v": 56
    },
    {
      "midi": 70,
      "hit": false,
      "t": 50748.046875,
      "d": 254.8828125,
      "v": 63
    },
    {
      "midi": 69,
      "hit": false,
      "t": 51000,
      "d": 251.953125,
      "v": 48
    },
    {
      "midi": 67,
      "hit": false,
      "t": 51249.0234375,
      "d": 251.953125,
      "v": 48
    },
    {
      "midi": 70,
      "hit": false,
      "t": 51498.046875,
      "d": 254.8828125,
      "v": 55
    },
    {
      "midi": 76,
      "hit": false,
      "t": 51750,
      "d": 251.953125,
      "v": 64
    },
    {
      "midi": 74,
      "hit": false,
      "t": 51999.0234375,
      "d": 251.953125,
      "v": 48
    },
    {
      "midi": 73,
      "hit": false,
      "t": 52248.046875,
      "d": 254.8828125,
      "v": 44
    },
    {
      "midi": 76,
      "hit": false,
      "t": 52500,
      "d": 251.953125,
      "v": 56
    },
    {
      "midi": 79,
      "hit": false,
      "t": 52749.0234375,
      "d": 251.953125,
      "v": 58
    },
    {
      "midi": 82,
      "hit": false,
      "t": 52998.046875,
      "d": 254.8828125,
      "v": 56
    },
    {
      "midi": 81,
      "hit": false,
      "t": 53250,
      "d": 251.953125,
      "v": 50
    },
    {
      "midi": 79,
      "hit": false,
      "t": 53499.0234375,
      "d": 251.953125,
      "v": 47
    },
    {
      "midi": 82,
      "hit": false,
      "t": 53748.046875,
      "d": 254.8828125,
      "v": 49
    },
    {
      "midi": 88,
      "hit": false,
      "t": 54000,
      "d": 175.78125,
      "v": 127
    },
    {
      "midi": 76,
      "hit": false,
      "t": 54000,
      "d": 187.5,
      "v": 103
    },
    {
      "midi": 40,
      "hit": false,
      "t": 54000,
      "d": 187.5,
      "v": 102
    },
    {
      "midi": 52,
      "hit": false,
      "t": 54000,
      "d": 187.5,
      "v": 127
    },
    {
      "midi": 64,
      "hit": false,
      "t": 54000,
      "d": 187.5,
      "v": 127
    },
    {
      "midi": 64,
      "hit": false,
      "t": 54375,
      "d": 187.5,
      "v": 68
    },
    {
      "midi": 52,
      "hit": false,
      "t": 54375,
      "d": 187.5,
      "v": 86
    },
    {
      "midi": 65,
      "hit": false,
      "t": 54562.5,
      "d": 187.5,
      "v": 100
    },
    {
      "midi": 53,
      "hit": false,
      "t": 54562.5,
      "d": 187.5,
      "v": 96
    },
    {
      "midi": 64,
      "hit": false,
      "t": 54750,
      "d": 187.5,
      "v": 95
    },
    {
      "midi": 52,
      "hit": false,
      "t": 54750,
      "d": 187.5,
      "v": 96
    },
    {
      "midi": 65,
      "hit": false,
      "t": 54937.5,
      "d": 187.5,
      "v": 104
    },
    {
      "midi": 53,
      "hit": false,
      "t": 54937.5,
      "d": 187.5,
      "v": 97
    },
    {
      "midi": 64,
      "hit": false,
      "t": 55125,
      "d": 187.5,
      "v": 94
    },
    {
      "midi": 52,
      "hit": false,
      "t": 55125,
      "d": 187.5,
      "v": 102
    },
    {
      "midi": 65,
      "hit": false,
      "t": 55312.5,
      "d": 187.5,
      "v": 89
    },
    {
      "midi": 53,
      "hit": false,
      "t": 55312.5,
      "d": 187.5,
      "v": 99
    },
    {
      "midi": 64,
      "hit": false,
      "t": 55500,
      "d": 187.5,
      "v": 82
    },
    {
      "midi": 52,
      "hit": false,
      "t": 55500,
      "d": 187.5,
      "v": 85
    },
    {
      "midi": 65,
      "hit": false,
      "t": 55687.5,
      "d": 187.5,
      "v": 86
    },
    {
      "midi": 53,
      "hit": false,
      "t": 55687.5,
      "d": 187.5,
      "v": 84
    },
    {
      "midi": 64,
      "hit": false,
      "t": 55875,
      "d": 187.5,
      "v": 74
    },
    {
      "midi": 51,
      "hit": false,
      "t": 55875,
      "d": 187.5,
      "v": 87
    },
    {
      "midi": 52,
      "hit": false,
      "t": 55875,
      "d": 187.5,
      "v": 82
    },
    {
      "midi": 65,
      "hit": false,
      "t": 56062.5,
      "d": 187.5,
      "v": 89
    },
    {
      "midi": 53,
      "hit": false,
      "t": 56062.5,
      "d": 187.5,
      "v": 86
    },
    {
      "midi": 64,
      "hit": false,
      "t": 56250,
      "d": 187.5,
      "v": 76
    },
    {
      "midi": 50,
      "hit": false,
      "t": 56250,
      "d": 187.5,
      "v": 92
    },
    {
      "midi": 52,
      "hit": false,
      "t": 56250,
      "d": 187.5,
      "v": 84
    },
    {
      "midi": 65,
      "hit": false,
      "t": 56437.5,
      "d": 187.5,
      "v": 86
    },
    {
      "midi": 53,
      "hit": false,
      "t": 56437.5,
      "d": 187.5,
      "v": 87
    },
    {
      "midi": 64,
      "hit": false,
      "t": 56625,
      "d": 187.5,
      "v": 68
    },
    {
      "midi": 49,
      "hit": false,
      "t": 56625,
      "d": 187.5,
      "v": 80
    },
    {
      "midi": 52,
      "hit": false,
      "t": 56625,
      "d": 187.5,
      "v": 82
    },
    {
      "midi": 65,
      "hit": false,
      "t": 56812.5,
      "d": 187.5,
      "v": 73
    },
    {
      "midi": 53,
      "hit": false,
      "t": 56812.5,
      "d": 187.5,
      "v": 83
    },
    {
      "midi": 64,
      "hit": false,
      "t": 57000,
      "d": 375,
      "v": 67
    },
    {
      "midi": 48,
      "hit": false,
      "t": 57000,
      "d": 187.5,
      "v": 83
    },
    {
      "midi": 52,
      "hit": false,
      "t": 57000,
      "d": 187.5,
      "v": 77
    },
    {
      "midi": 53,
      "hit": false,
      "t": 57187.5,
      "d": 187.5,
      "v": 88
    },
    {
      "midi": 47,
      "hit": false,
      "t": 57375,
      "d": 187.5,
      "v": 84
    },
    {
      "midi": 52,
      "hit": false,
      "t": 57375,
      "d": 187.5,
      "v": 81
    },
    {
      "midi": 53,
      "hit": false,
      "t": 57562.5,
      "d": 187.5,
      "v": 86
    },
    {
      "midi": 46,
      "hit": false,
      "t": 57750,
      "d": 187.5,
      "v": 65
    },
    {
      "midi": 52,
      "hit": false,
      "t": 57750,
      "d": 187.5,
      "v": 85
    },
    {
      "midi": 53,
      "hit": false,
      "t": 57937.5,
      "d": 187.5,
      "v": 67
    },
    {
      "midi": 45,
      "hit": false,
      "t": 58125,
      "d": 187.5,
      "v": 74
    },
    {
      "midi": 52,
      "hit": false,
      "t": 58125,
      "d": 187.5,
      "v": 69
    },
    {
      "midi": 53,
      "hit": false,
      "t": 58312.5,
      "d": 187.5,
      "v": 71
    },
    {
      "midi": 44,
      "hit": false,
      "t": 58500,
      "d": 187.5,
      "v": 67
    },
    {
      "midi": 52,
      "hit": false,
      "t": 58500,
      "d": 187.5,
      "v": 75
    },
    {
      "midi": 53,
      "hit": false,
      "t": 58687.5,
      "d": 187.5,
      "v": 75
    },
    {
      "midi": 43,
      "hit": false,
      "t": 58875,
      "d": 187.5,
      "v": 69
    },
    {
      "midi": 52,
      "hit": false,
      "t": 58875,
      "d": 187.5,
      "v": 66
    },
    {
      "midi": 53,
      "hit": false,
      "t": 59062.5,
      "d": 187.5,
      "v": 71
    },
    {
      "midi": 42,
      "hit": false,
      "t": 59250,
      "d": 187.5,
      "v": 59
    },
    {
      "midi": 52,
      "hit": false,
      "t": 59250,
      "d": 187.5,
      "v": 74
    },
    {
      "midi": 53,
      "hit": false,
      "t": 59437.5,
      "d": 187.5,
      "v": 70
    },
    {
      "midi": 72,
      "hit": false,
      "t": 59625,
      "d": 187.5,
      "v": 54
    },
    {
      "midi": 76,
      "hit": false,
      "t": 59625,
      "d": 187.5,
      "v": 55
    },
    {
      "midi": 41,
      "hit": false,
      "t": 59625,
      "d": 187.5,
      "v": 58
    },
    {
      "midi": 52,
      "hit": false,
      "t": 59625,
      "d": 187.5,
      "v": 68
    },
    {
      "midi": 53,
      "hit": false,
      "t": 59812.5,
      "d": 187.5,
      "v": 75
    },
    {
      "midi": 71,
      "hit": false,
      "t": 60000,
      "d": 187.5,
      "v": 59
    },
    {
      "midi": 74,
      "hit": false,
      "t": 60000,
      "d": 187.5,
      "v": 55
    },
    {
      "midi": 40,
      "hit": false,
      "t": 60000,
      "d": 187.5,
      "v": 56
    },
    {
      "midi": 52,
      "hit": false,
      "t": 60000,
      "d": 187.5,
      "v": 62
    },
    {
      "midi": 53,
      "hit": false,
      "t": 60187.5,
      "d": 187.5,
      "v": 60
    },
    {
      "midi": 74,
      "hit": false,
      "t": 60375,
      "d": 187.5,
      "v": 67
    },
    {
      "midi": 83,
      "hit": false,
      "t": 60375,
      "d": 187.5,
      "v": 72
    },
    {
      "midi": 52,
      "hit": false,
      "t": 60375,
      "d": 187.5,
      "v": 62
    },
    {
      "midi": 53,
      "hit": false,
      "t": 60562.5,
      "d": 187.5,
      "v": 62
    },
    {
      "midi": 44,
      "hit": false,
      "t": 60750,
      "d": 187.5,
      "v": 56
    },
    {
      "midi": 52,
      "hit": false,
      "t": 60750,
      "d": 187.5,
      "v": 56
    },
    {
      "midi": 53,
      "hit": false,
      "t": 60937.5,
      "d": 187.5,
      "v": 59
    },
    {
      "midi": 71,
      "hit": false,
      "t": 61125,
      "d": 187.5,
      "v": 57
    },
    {
      "midi": 74,
      "hit": false,
      "t": 61125,
      "d": 187.5,
      "v": 54
    },
    {
      "midi": 52,
      "hit": false,
      "t": 61125,
      "d": 187.5,
      "v": 59
    },
    {
      "midi": 53,
      "hit": false,
      "t": 61312.5,
      "d": 187.5,
      "v": 60
    },
    {
      "midi": 69,
      "hit": false,
      "t": 61500,
      "d": 187.5,
      "v": 52
    },
    {
      "midi": 72,
      "hit": false,
      "t": 61500,
      "d": 187.5,
      "v": 59
    },
    {
      "midi": 45,
      "hit": false,
      "t": 61500,
      "d": 187.5,
      "v": 60
    },
    {
      "midi": 52,
      "hit": false,
      "t": 61500,
      "d": 187.5,
      "v": 61
    },
    {
      "midi": 53,
      "hit": false,
      "t": 61687.5,
      "d": 187.5,
      "v": 61
    },
    {
      "midi": 72,
      "hit": false,
      "t": 61875,
      "d": 187.5,
      "v": 62
    },
    {
      "midi": 81,
      "hit": false,
      "t": 61875,
      "d": 187.5,
      "v": 76
    },
    {
      "midi": 52,
      "hit": false,
      "t": 61875,
      "d": 187.5,
      "v": 56
    },
    {
      "midi": 53,
      "hit": false,
      "t": 62062.5,
      "d": 187.5,
      "v": 64
    },
    {
      "midi": 48,
      "hit": false,
      "t": 62250,
      "d": 187.5,
      "v": 58
    },
    {
      "midi": 52,
      "hit": false,
      "t": 62250,
      "d": 187.5,
      "v": 61
    },
    {
      "midi": 53,
      "hit": false,
      "t": 62437.5,
      "d": 187.5,
      "v": 61
    },
    {
      "midi": 69,
      "hit": false,
      "t": 62625,
      "d": 187.5,
      "v": 51
    },
    {
      "midi": 72,
      "hit": false,
      "t": 62625,
      "d": 187.5,
      "v": 59
    },
    {
      "midi": 52,
      "hit": false,
      "t": 62625,
      "d": 187.5,
      "v": 61
    },
    {
      "midi": 53,
      "hit": false,
      "t": 62812.5,
      "d": 187.5,
      "v": 62
    },
    {
      "midi": 66,
      "hit": false,
      "t": 63000,
      "d": 187.5,
      "v": 56
    },
    {
      "midi": 69,
      "hit": false,
      "t": 63000,
      "d": 187.5,
      "v": 55
    },
    {
      "midi": 51,
      "hit": false,
      "t": 63000,
      "d": 187.5,
      "v": 51
    },
    {
      "midi": 52,
      "hit": false,
      "t": 63000,
      "d": 187.5,
      "v": 59
    },
    {
      "midi": 53,
      "hit": false,
      "t": 63187.5,
      "d": 187.5,
      "v": 62
    },
    {
      "midi": 69,
      "hit": false,
      "t": 63375,
      "d": 187.5,
      "v": 62
    },
    {
      "midi": 78,
      "hit": false,
      "t": 63375,
      "d": 187.5,
      "v": 73
    },
    {
      "midi": 52,
      "hit": false,
      "t": 63375,
      "d": 187.5,
      "v": 60
    },
    {
      "midi": 53,
      "hit": false,
      "t": 63562.5,
      "d": 187.5,
      "v": 63
    },
    {
      "midi": 48,
      "hit": false,
      "t": 63750,
      "d": 187.5,
      "v": 54
    },
    {
      "midi": 52,
      "hit": false,
      "t": 63750,
      "d": 187.5,
      "v": 60
    },
    {
      "midi": 53,
      "hit": false,
      "t": 63937.5,
      "d": 187.5,
      "v": 69
    },
    {
      "midi": 66,
      "hit": false,
      "t": 64125,
      "d": 187.5,
      "v": 60
    },
    {
      "midi": 69,
      "hit": false,
      "t": 64125,
      "d": 187.5,
      "v": 56
    },
    {
      "midi": 52,
      "hit": false,
      "t": 64125,
      "d": 187.5,
      "v": 56
    },
    {
      "midi": 53,
      "hit": false,
      "t": 64312.5,
      "d": 187.5,
      "v": 59
    },
    {
      "midi": 68,
      "hit": false,
      "t": 64500,
      "d": 187.5,
      "v": 63
    },
    {
      "midi": 71,
      "hit": false,
      "t": 64500,
      "d": 187.5,
      "v": 67
    },
    {
      "midi": 47,
      "hit": false,
      "t": 64500,
      "d": 187.5,
      "v": 56
    },
    {
      "midi": 52,
      "hit": false,
      "t": 64500,
      "d": 187.5,
      "v": 60
    },
    {
      "midi": 53,
      "hit": false,
      "t": 64687.5,
      "d": 187.5,
      "v": 65
    },
    {
      "midi": 71,
      "hit": false,
      "t": 64875,
      "d": 187.5,
      "v": 73
    },
    {
      "midi": 80,
      "hit": false,
      "t": 64875,
      "d": 187.5,
      "v": 71
    },
    {
      "midi": 52,
      "hit": false,
      "t": 64875,
      "d": 187.5,
      "v": 56
    },
    {
      "midi": 53,
      "hit": false,
      "t": 65062.5,
      "d": 187.5,
      "v": 63
    },
    {
      "midi": 44,
      "hit": false,
      "t": 65250,
      "d": 187.5,
      "v": 56
    },
    {
      "midi": 52,
      "hit": false,
      "t": 65250,
      "d": 187.5,
      "v": 58
    },
    {
      "midi": 53,
      "hit": false,
      "t": 65437.5,
      "d": 187.5,
      "v": 65
    },
    {
      "midi": 72,
      "hit": false,
      "t": 65625,
      "d": 187.5,
      "v": 56
    },
    {
      "midi": 76,
      "hit": false,
      "t": 65625,
      "d": 187.5,
      "v": 55
    },
    {
      "midi": 52,
      "hit": false,
      "t": 65625,
      "d": 187.5,
      "v": 57
    },
    {
      "midi": 53,
      "hit": false,
      "t": 65812.5,
      "d": 187.5,
      "v": 67
    },
    {
      "midi": 71,
      "hit": false,
      "t": 66000,
      "d": 187.5,
      "v": 57
    },
    {
      "midi": 74,
      "hit": false,
      "t": 66000,
      "d": 187.5,
      "v": 54
    },
    {
      "midi": 40,
      "hit": false,
      "t": 66000,
      "d": 187.5,
      "v": 58
    },
    {
      "midi": 52,
      "hit": false,
      "t": 66000,
      "d": 187.5,
      "v": 58
    },
    {
      "midi": 53,
      "hit": false,
      "t": 66187.5,
      "d": 187.5,
      "v": 65
    },
    {
      "midi": 74,
      "hit": false,
      "t": 66375,
      "d": 187.5,
      "v": 63
    },
    {
      "midi": 83,
      "hit": false,
      "t": 66375,
      "d": 187.5,
      "v": 76
    },
    {
      "midi": 52,
      "hit": false,
      "t": 66375,
      "d": 187.5,
      "v": 57
    },
    {
      "midi": 53,
      "hit": false,
      "t": 66562.5,
      "d": 187.5,
      "v": 58
    },
    {
      "midi": 71,
      "hit": false,
      "t": 66750,
      "d": 187.5,
      "v": 54
    },
    {
      "midi": 74,
      "hit": false,
      "t": 66750,
      "d": 187.5,
      "v": 46
    },
    {
      "midi": 44,
      "hit": false,
      "t": 66750,
      "d": 187.5,
      "v": 54
    },
    {
      "midi": 52,
      "hit": false,
      "t": 66750,
      "d": 187.5,
      "v": 59
    },
    {
      "midi": 53,
      "hit": false,
      "t": 66937.5,
      "d": 187.5,
      "v": 65
    },
    {
      "midi": 74,
      "hit": false,
      "t": 67125,
      "d": 187.5,
      "v": 68
    },
    {
      "midi": 83,
      "hit": false,
      "t": 67125,
      "d": 187.5,
      "v": 69
    },
    {
      "midi": 52,
      "hit": false,
      "t": 67125,
      "d": 187.5,
      "v": 58
    },
    {
      "midi": 53,
      "hit": false,
      "t": 67312.5,
      "d": 187.5,
      "v": 64
    },
    {
      "midi": 69,
      "hit": false,
      "t": 67500,
      "d": 187.5,
      "v": 50
    },
    {
      "midi": 72,
      "hit": false,
      "t": 67500,
      "d": 187.5,
      "v": 46
    },
    {
      "midi": 45,
      "hit": false,
      "t": 67500,
      "d": 187.5,
      "v": 54
    },
    {
      "midi": 52,
      "hit": false,
      "t": 67500,
      "d": 187.5,
      "v": 62
    },
    {
      "midi": 53,
      "hit": false,
      "t": 67687.5,
      "d": 187.5,
      "v": 60
    },
    {
      "midi": 72,
      "hit": false,
      "t": 67875,
      "d": 187.5,
      "v": 65
    },
    {
      "midi": 81,
      "hit": false,
      "t": 67875,
      "d": 187.5,
      "v": 72
    },
    {
      "midi": 52,
      "hit": false,
      "t": 67875,
      "d": 187.5,
      "v": 61
    },
    {
      "midi": 53,
      "hit": false,
      "t": 68062.5,
      "d": 187.5,
      "v": 61
    },
    {
      "midi": 69,
      "hit": false,
      "t": 68250,
      "d": 187.5,
      "v": 55
    },
    {
      "midi": 72,
      "hit": false,
      "t": 68250,
      "d": 187.5,
      "v": 52
    },
    {
      "midi": 48,
      "hit": false,
      "t": 68250,
      "d": 187.5,
      "v": 60
    },
    {
      "midi": 52,
      "hit": false,
      "t": 68250,
      "d": 187.5,
      "v": 59
    },
    {
      "midi": 53,
      "hit": false,
      "t": 68437.5,
      "d": 187.5,
      "v": 63
    },
    {
      "midi": 72,
      "hit": false,
      "t": 68625,
      "d": 187.5,
      "v": 64
    },
    {
      "midi": 81,
      "hit": false,
      "t": 68625,
      "d": 187.5,
      "v": 69
    },
    {
      "midi": 52,
      "hit": false,
      "t": 68625,
      "d": 187.5,
      "v": 60
    },
    {
      "midi": 53,
      "hit": false,
      "t": 68812.5,
      "d": 187.5,
      "v": 63
    },
    {
      "midi": 66,
      "hit": false,
      "t": 69000,
      "d": 187.5,
      "v": 52
    },
    {
      "midi": 69,
      "hit": false,
      "t": 69000,
      "d": 187.5,
      "v": 50
    },
    {
      "midi": 51,
      "hit": false,
      "t": 69000,
      "d": 187.5,
      "v": 53
    },
    {
      "midi": 52,
      "hit": false,
      "t": 69000,
      "d": 187.5,
      "v": 59
    },
    {
      "midi": 53,
      "hit": false,
      "t": 69187.5,
      "d": 187.5,
      "v": 61
    },
    {
      "midi": 69,
      "hit": false,
      "t": 69375,
      "d": 187.5,
      "v": 63
    },
    {
      "midi": 78,
      "hit": false,
      "t": 69375,
      "d": 187.5,
      "v": 73
    },
    {
      "midi": 52,
      "hit": false,
      "t": 69375,
      "d": 187.5,
      "v": 59
    },
    {
      "midi": 53,
      "hit": false,
      "t": 69562.5,
      "d": 187.5,
      "v": 63
    },
    {
      "midi": 66,
      "hit": false,
      "t": 69750,
      "d": 187.5,
      "v": 55
    },
    {
      "midi": 69,
      "hit": false,
      "t": 69750,
      "d": 187.5,
      "v": 52
    },
    {
      "midi": 48,
      "hit": false,
      "t": 69750,
      "d": 187.5,
      "v": 56
    },
    {
      "midi": 52,
      "hit": false,
      "t": 69750,
      "d": 187.5,
      "v": 62
    },
    {
      "midi": 53,
      "hit": false,
      "t": 69937.5,
      "d": 187.5,
      "v": 63
    },
    {
      "midi": 69,
      "hit": false,
      "t": 70125,
      "d": 187.5,
      "v": 65
    },
    {
      "midi": 78,
      "hit": false,
      "t": 70125,
      "d": 187.5,
      "v": 73
    },
    {
      "midi": 52,
      "hit": false,
      "t": 70125,
      "d": 187.5,
      "v": 63
    },
    {
      "midi": 53,
      "hit": false,
      "t": 70312.5,
      "d": 187.5,
      "v": 62
    },
    {
      "midi": 68,
      "hit": false,
      "t": 70500,
      "d": 187.5,
      "v": 57
    },
    {
      "midi": 71,
      "hit": false,
      "t": 70500,
      "d": 187.5,
      "v": 54
    },
    {
      "midi": 47,
      "hit": false,
      "t": 70500,
      "d": 187.5,
      "v": 55
    },
    {
      "midi": 52,
      "hit": false,
      "t": 70500,
      "d": 187.5,
      "v": 62
    },
    {
      "midi": 53,
      "hit": false,
      "t": 70687.5,
      "d": 187.5,
      "v": 64
    },
    {
      "midi": 71,
      "hit": false,
      "t": 70875,
      "d": 187.5,
      "v": 68
    },
    {
      "midi": 80,
      "hit": false,
      "t": 70875,
      "d": 187.5,
      "v": 77
    },
    {
      "midi": 52,
      "hit": false,
      "t": 70875,
      "d": 187.5,
      "v": 60
    },
    {
      "midi": 53,
      "hit": false,
      "t": 71062.5,
      "d": 187.5,
      "v": 66
    },
    {
      "midi": 40,
      "hit": false,
      "t": 71250,
      "d": 187.5,
      "v": 54
    },
    {
      "midi": 52,
      "hit": false,
      "t": 71250,
      "d": 187.5,
      "v": 59
    },
    {
      "midi": 53,
      "hit": false,
      "t": 71437.5,
      "d": 187.5,
      "v": 59
    },
    {
      "midi": 71,
      "hit": false,
      "t": 71625,
      "d": 187.5,
      "v": 60
    },
    {
      "midi": 80,
      "hit": false,
      "t": 71625,
      "d": 187.5,
      "v": 52
    },
    {
      "midi": 52,
      "hit": false,
      "t": 71625,
      "d": 187.5,
      "v": 57
    },
    {
      "midi": 53,
      "hit": false,
      "t": 71812.5,
      "d": 187.5,
      "v": 59
    },
    {
      "midi": 76,
      "hit": false,
      "t": 72000,
      "d": 187.5,
      "v": 68
    },
    {
      "midi": 79,
      "hit": false,
      "t": 72000,
      "d": 187.5,
      "v": 57
    },
    {
      "midi": 49,
      "hit": false,
      "t": 72000,
      "d": 187.5,
      "v": 55
    },
    {
      "midi": 52,
      "hit": false,
      "t": 72000,
      "d": 187.5,
      "v": 60
    },
    {
      "midi": 58,
      "hit": false,
      "t": 72187.5,
      "d": 187.5,
      "v": 61
    },
    {
      "midi": 79,
      "hit": false,
      "t": 72375,
      "d": 187.5,
      "v": 65
    },
    {
      "midi": 88,
      "hit": false,
      "t": 72375,
      "d": 187.5,
      "v": 74
    },
    {
      "midi": 57,
      "hit": false,
      "t": 72375,
      "d": 187.5,
      "v": 61
    },
    {
      "midi": 58,
      "hit": false,
      "t": 72562.5,
      "d": 187.5,
      "v": 59
    },
    {
      "midi": 45,
      "hit": false,
      "t": 72750,
      "d": 187.5,
      "v": 63
    },
    {
      "midi": 57,
      "hit": false,
      "t": 72750,
      "d": 187.5,
      "v": 63
    },
    {
      "midi": 58,
      "hit": false,
      "t": 72937.5,
      "d": 187.5,
      "v": 66
    },
    {
      "midi": 76,
      "hit": false,
      "t": 73125,
      "d": 187.5,
      "v": 55
    },
    {
      "midi": 79,
      "hit": false,
      "t": 73125,
      "d": 187.5,
      "v": 56
    },
    {
      "midi": 57,
      "hit": false,
      "t": 73125,
      "d": 187.5,
      "v": 63
    },
    {
      "midi": 58,
      "hit": false,
      "t": 73312.5,
      "d": 187.5,
      "v": 62
    },
    {
      "midi": 74,
      "hit": false,
      "t": 73500,
      "d": 187.5,
      "v": 54
    },
    {
      "midi": 78,
      "hit": false,
      "t": 73500,
      "d": 187.5,
      "v": 57
    },
    {
      "midi": 50,
      "hit": false,
      "t": 73500,
      "d": 187.5,
      "v": 52
    },
    {
      "midi": 57,
      "hit": false,
      "t": 73500,
      "d": 187.5,
      "v": 59
    },
    {
      "midi": 58,
      "hit": false,
      "t": 73687.5,
      "d": 187.5,
      "v": 60
    },
    {
      "midi": 66,
      "hit": false,
      "t": 73875,
      "d": 187.5,
      "v": 50
    },
    {
      "midi": 74,
      "hit": false,
      "t": 73875,
      "d": 187.5,
      "v": 52
    },
    {
      "midi": 57,
      "hit": false,
      "t": 73875,
      "d": 187.5,
      "v": 61
    },
    {
      "midi": 58,
      "hit": false,
      "t": 74062.5,
      "d": 187.5,
      "v": 66
    },
    {
      "midi": 48,
      "hit": false,
      "t": 74250,
      "d": 187.5,
      "v": 57
    },
    {
      "midi": 57,
      "hit": false,
      "t": 74250,
      "d": 187.5,
      "v": 65
    },
    {
      "midi": 58,
      "hit": false,
      "t": 74437.5,
      "d": 187.5,
      "v": 66
    },
    {
      "midi": 69,
      "hit": false,
      "t": 74625,
      "d": 187.5,
      "v": 55
    },
    {
      "midi": 78,
      "hit": false,
      "t": 74625,
      "d": 187.5,
      "v": 54
    },
    {
      "midi": 57,
      "hit": false,
      "t": 74625,
      "d": 187.5,
      "v": 63
    },
    {
      "midi": 58,
      "hit": false,
      "t": 74812.5,
      "d": 187.5,
      "v": 69
    },
    {
      "midi": 74,
      "hit": false,
      "t": 75000,
      "d": 187.5,
      "v": 75
    },
    {
      "midi": 77,
      "hit": false,
      "t": 75000,
      "d": 187.5,
      "v": 59
    },
    {
      "midi": 47,
      "hit": false,
      "t": 75000,
      "d": 187.5,
      "v": 61
    },
    {
      "midi": 56,
      "hit": false,
      "t": 75000,
      "d": 187.5,
      "v": 60
    },
    {
      "midi": 58,
      "hit": false,
      "t": 75187.5,
      "d": 187.5,
      "v": 71
    },
    {
      "midi": 77,
      "hit": false,
      "t": 75375,
      "d": 187.5,
      "v": 75
    },
    {
      "midi": 86,
      "hit": false,
      "t": 75375,
      "d": 187.5,
      "v": 84
    },
    {
      "midi": 56,
      "hit": false,
      "t": 75375,
      "d": 187.5,
      "v": 66
    },
    {
      "midi": 58,
      "hit": false,
      "t": 75562.5,
      "d": 187.5,
      "v": 67
    },
    {
      "midi": 43,
      "hit": false,
      "t": 75750,
      "d": 187.5,
      "v": 65
    },
    {
      "midi": 56,
      "hit": false,
      "t": 75750,
      "d": 187.5,
      "v": 64
    },
    {
      "midi": 58,
      "hit": false,
      "t": 75937.5,
      "d": 187.5,
      "v": 75
    },
    {
      "midi": 74,
      "hit": false,
      "t": 76125,
      "d": 187.5,
      "v": 67
    },
    {
      "midi": 77,
      "hit": false,
      "t": 76125,
      "d": 187.5,
      "v": 69
    },
    {
      "midi": 56,
      "hit": false,
      "t": 76125,
      "d": 187.5,
      "v": 67
    },
    {
      "midi": 58,
      "hit": false,
      "t": 76312.5,
      "d": 187.5,
      "v": 81
    },
    {
      "midi": 72,
      "hit": false,
      "t": 76500,
      "d": 187.5,
      "v": 67
    },
    {
      "midi": 76,
      "hit": false,
      "t": 76500,
      "d": 187.5,
      "v": 64
    },
    {
      "midi": 48,
      "hit": false,
      "t": 76500,
      "d": 187.5,
      "v": 67
    },
    {
      "midi": 55,
      "hit": false,
      "t": 76500,
      "d": 187.5,
      "v": 68
    },
    {
      "midi": 56,
      "hit": false,
      "t": 76687.5,
      "d": 187.5,
      "v": 74
    },
    {
      "midi": 64,
      "hit": false,
      "t": 76875,
      "d": 187.5,
      "v": 57
    },
    {
      "midi": 72,
      "hit": false,
      "t": 76875,
      "d": 187.5,
      "v": 65
    },
    {
      "midi": 55,
      "hit": false,
      "t": 76875,
      "d": 187.5,
      "v": 69
    },
    {
      "midi": 56,
      "hit": false,
      "t": 77062.5,
      "d": 187.5,
      "v": 81
    },
    {
      "midi": 52,
      "hit": false,
      "t": 77250,
      "d": 187.5,
      "v": 69
    },
    {
      "midi": 55,
      "hit": false,
      "t": 77250,
      "d": 187.5,
      "v": 73
    },
    {
      "midi": 56,
      "hit": false,
      "t": 77437.5,
      "d": 187.5,
      "v": 81
    },
    {
      "midi": 72,
      "hit": false,
      "t": 77625,
      "d": 187.5,
      "v": 71
    },
    {
      "midi": 76,
      "hit": false,
      "t": 77625,
      "d": 187.5,
      "v": 68
    },
    {
      "midi": 55,
      "hit": false,
      "t": 77625,
      "d": 187.5,
      "v": 76
    },
    {
      "midi": 56,
      "hit": false,
      "t": 77812.5,
      "d": 187.5,
      "v": 82
    },
    {
      "midi": 69,
      "hit": false,
      "t": 78000,
      "d": 187.5,
      "v": 84
    },
    {
      "midi": 72,
      "hit": false,
      "t": 78000,
      "d": 187.5,
      "v": 84
    },
    {
      "midi": 78,
      "hit": false,
      "t": 78000,
      "d": 187.5,
      "v": 84
    },
    {
      "midi": 51,
      "hit": false,
      "t": 78000,
      "d": 187.5,
      "v": 71
    },
    {
      "midi": 54,
      "hit": false,
      "t": 78000,
      "d": 187.5,
      "v": 78
    },
    {
      "midi": 55,
      "hit": false,
      "t": 78187.5,
      "d": 187.5,
      "v": 84
    },
    {
      "midi": 69,
      "hit": false,
      "t": 78375,
      "d": 187.5,
      "v": 87
    },
    {
      "midi": 72,
      "hit": false,
      "t": 78375,
      "d": 187.5,
      "v": 87
    },
    {
      "midi": 84,
      "hit": false,
      "t": 78375,
      "d": 187.5,
      "v": 92
    },
    {
      "midi": 54,
      "hit": false,
      "t": 78375,
      "d": 187.5,
      "v": 80
    },
    {
      "midi": 55,
      "hit": false,
      "t": 78562.5,
      "d": 187.5,
      "v": 90
    },
    {
      "midi": 69,
      "hit": false,
      "t": 78750,
      "d": 187.5,
      "v": 86
    },
    {
      "midi": 72,
      "hit": false,
      "t": 78750,
      "d": 187.5,
      "v": 86
    },
    {
      "midi": 83,
      "hit": false,
      "t": 78750,
      "d": 187.5,
      "v": 84
    },
    {
      "midi": 39,
      "hit": false,
      "t": 78750,
      "d": 187.5,
      "v": 79
    },
    {
      "midi": 54,
      "hit": false,
      "t": 78750,
      "d": 187.5,
      "v": 81
    },
    {
      "midi": 55,
      "hit": false,
      "t": 78937.5,
      "d": 187.5,
      "v": 83
    },
    {
      "midi": 69,
      "hit": false,
      "t": 79125,
      "d": 187.5,
      "v": 87
    },
    {
      "midi": 72,
      "hit": false,
      "t": 79125,
      "d": 187.5,
      "v": 87
    },
    {
      "midi": 82,
      "hit": false,
      "t": 79125,
      "d": 187.5,
      "v": 77
    },
    {
      "midi": 54,
      "hit": false,
      "t": 79125,
      "d": 187.5,
      "v": 81
    },
    {
      "midi": 53,
      "hit": false,
      "t": 79312.5,
      "d": 187.5,
      "v": 80
    },
    {
      "midi": 69,
      "hit": false,
      "t": 79500,
      "d": 187.5,
      "v": 84
    },
    {
      "midi": 72,
      "hit": false,
      "t": 79500,
      "d": 187.5,
      "v": 84
    },
    {
      "midi": 81,
      "hit": false,
      "t": 79500,
      "d": 187.5,
      "v": 82
    },
    {
      "midi": 40,
      "hit": false,
      "t": 79500,
      "d": 187.5,
      "v": 75
    },
    {
      "midi": 52,
      "hit": false,
      "t": 79500,
      "d": 187.5,
      "v": 83
    },
    {
      "midi": 53,
      "hit": false,
      "t": 79687.5,
      "d": 187.5,
      "v": 84
    },
    {
      "midi": 69,
      "hit": false,
      "t": 79875,
      "d": 187.5,
      "v": 82
    },
    {
      "midi": 72,
      "hit": false,
      "t": 79875,
      "d": 187.5,
      "v": 82
    },
    {
      "midi": 80,
      "hit": false,
      "t": 79875,
      "d": 187.5,
      "v": 79
    },
    {
      "midi": 52,
      "hit": false,
      "t": 79875,
      "d": 187.5,
      "v": 77
    },
    {
      "midi": 53,
      "hit": false,
      "t": 80062.5,
      "d": 187.5,
      "v": 80
    },
    {
      "midi": 69,
      "hit": false,
      "t": 80250,
      "d": 187.5,
      "v": 75
    },
    {
      "midi": 72,
      "hit": false,
      "t": 80250,
      "d": 187.5,
      "v": 75
    },
    {
      "midi": 79,
      "hit": false,
      "t": 80250,
      "d": 187.5,
      "v": 75
    },
    {
      "midi": 52,
      "hit": false,
      "t": 80250,
      "d": 187.5,
      "v": 73
    },
    {
      "midi": 53,
      "hit": false,
      "t": 80437.5,
      "d": 187.5,
      "v": 80
    },
    {
      "midi": 69,
      "hit": false,
      "t": 80625,
      "d": 187.5,
      "v": 79
    },
    {
      "midi": 72,
      "hit": false,
      "t": 80625,
      "d": 187.5,
      "v": 79
    },
    {
      "midi": 78,
      "hit": false,
      "t": 80625,
      "d": 187.5,
      "v": 70
    },
    {
      "midi": 52,
      "hit": false,
      "t": 80625,
      "d": 187.5,
      "v": 71
    },
    {
      "midi": 51,
      "hit": false,
      "t": 80812.5,
      "d": 187.5,
      "v": 70
    },
    {
      "midi": 69,
      "hit": false,
      "t": 81000,
      "d": 187.5,
      "v": 66
    },
    {
      "midi": 71,
      "hit": false,
      "t": 81000,
      "d": 187.5,
      "v": 66
    },
    {
      "midi": 77,
      "hit": false,
      "t": 81000,
      "d": 187.5,
      "v": 67
    },
    {
      "midi": 40,
      "hit": false,
      "t": 81000,
      "d": 187.5,
      "v": 65
    },
    {
      "midi": 50,
      "hit": false,
      "t": 81000,
      "d": 187.5,
      "v": 68
    },
    {
      "midi": 51,
      "hit": false,
      "t": 81187.5,
      "d": 187.5,
      "v": 70
    },
    {
      "midi": 65,
      "hit": false,
      "t": 81375,
      "d": 187.5,
      "v": 49
    },
    {
      "midi": 69,
      "hit": false,
      "t": 81375,
      "d": 187.5,
      "v": 58
    },
    {
      "midi": 71,
      "hit": false,
      "t": 81375,
      "d": 187.5,
      "v": 58
    },
    {
      "midi": 50,
      "hit": false,
      "t": 81375,
      "d": 187.5,
      "v": 68
    },
    {
      "midi": 51,
      "hit": false,
      "t": 81562.5,
      "d": 187.5,
      "v": 69
    },
    {
      "midi": 64,
      "hit": false,
      "t": 81750,
      "d": 187.5,
      "v": 61
    },
    {
      "midi": 68,
      "hit": false,
      "t": 81750,
      "d": 375,
      "v": 62
    },
    {
      "midi": 74,
      "hit": false,
      "t": 81750,
      "d": 375,
      "v": 62
    },
    {
      "midi": 50,
      "hit": false,
      "t": 81750,
      "d": 187.5,
      "v": 67
    },
    {
      "midi": 51,
      "hit": false,
      "t": 81937.5,
      "d": 187.5,
      "v": 61
    },
    {
      "midi": 59,
      "hit": false,
      "t": 82125,
      "d": 187.5,
      "v": 59
    },
    {
      "midi": 64,
      "hit": false,
      "t": 82125,
      "d": 187.5,
      "v": 59
    },
    {
      "midi": 68,
      "hit": false,
      "t": 82125,
      "d": 375,
      "v": 47
    },
    {
      "midi": 50,
      "hit": false,
      "t": 82125,
      "d": 187.5,
      "v": 58
    },
    {
      "midi": 49,
      "hit": false,
      "t": 82312.5,
      "d": 187.5,
      "v": 66
    },
    {
      "midi": 60,
      "hit": false,
      "t": 82500,
      "d": 187.5,
      "v": 61
    },
    {
      "midi": 64,
      "hit": false,
      "t": 82500,
      "d": 187.5,
      "v": 61
    },
    {
      "midi": 69,
      "hit": false,
      "t": 82500,
      "d": 187.5,
      "v": 64
    },
    {
      "midi": 33,
      "hit": false,
      "t": 82500,
      "d": 187.5,
      "v": 59
    },
    {
      "midi": 45,
      "hit": false,
      "t": 82500,
      "d": 187.5,
      "v": 59
    },
    {
      "midi": 48,
      "hit": false,
      "t": 82500,
      "d": 187.5,
      "v": 58
    },
    {
      "midi": 50,
      "hit": false,
      "t": 82687.5,
      "d": 187.5,
      "v": 59
    },
    {
      "midi": 60,
      "hit": false,
      "t": 82875,
      "d": 187.5,
      "v": 59
    },
    {
      "midi": 64,
      "hit": false,
      "t": 82875,
      "d": 187.5,
      "v": 59
    },
    {
      "midi": 72,
      "hit": false,
      "t": 82875,
      "d": 187.5,
      "v": 66
    },
    {
      "midi": 48,
      "hit": false,
      "t": 82875,
      "d": 187.5,
      "v": 59
    },
    {
      "midi": 50,
      "hit": false,
      "t": 83062.5,
      "d": 187.5,
      "v": 63
    },
    {
      "midi": 51,
      "hit": false,
      "t": 83250,
      "d": 187.5,
      "v": 60
    },
    {
      "midi": 52,
      "hit": false,
      "t": 83437.5,
      "d": 187.5,
      "v": 62
    },
    {
      "midi": 60,
      "hit": false,
      "t": 83625,
      "d": 187.5,
      "v": 58
    },
    {
      "midi": 64,
      "hit": false,
      "t": 83625,
      "d": 187.5,
      "v": 58
    },
    {
      "midi": 69,
      "hit": false,
      "t": 83625,
      "d": 187.5,
      "v": 53
    },
    {
      "midi": 51,
      "hit": false,
      "t": 83625,
      "d": 187.5,
      "v": 63
    },
    {
      "midi": 52,
      "hit": false,
      "t": 83812.5,
      "d": 187.5,
      "v": 60
    },
    {
      "midi": 62,
      "hit": false,
      "t": 84000,
      "d": 187.5,
      "v": 63
    },
    {
      "midi": 65,
      "hit": false,
      "t": 84000,
      "d": 187.5,
      "v": 63
    },
    {
      "midi": 70,
      "hit": false,
      "t": 84000,
      "d": 187.5,
      "v": 61
    },
    {
      "midi": 38,
      "hit": false,
      "t": 84000,
      "d": 187.5,
      "v": 52
    },
    {
      "midi": 53,
      "hit": false,
      "t": 84000,
      "d": 187.5,
      "v": 62
    },
    {
      "midi": 55,
      "hit": false,
      "t": 84187.5,
      "d": 187.5,
      "v": 62
    },
    {
      "midi": 62,
      "hit": false,
      "t": 84375,
      "d": 187.5,
      "v": 59
    },
    {
      "midi": 65,
      "hit": false,
      "t": 84375,
      "d": 187.5,
      "v": 59
    },
    {
      "midi": 74,
      "hit": false,
      "t": 84375,
      "d": 187.5,
      "v": 67
    },
    {
      "midi": 53,
      "hit": false,
      "t": 84375,
      "d": 187.5,
      "v": 57
    },
    {
      "midi": 55,
      "hit": false,
      "t": 84562.5,
      "d": 187.5,
      "v": 61
    },
    {
      "midi": 53,
      "hit": false,
      "t": 84750,
      "d": 375,
      "v": 59
    },
    {
      "midi": 62,
      "hit": false,
      "t": 85125,
      "d": 187.5,
      "v": 44
    },
    {
      "midi": 65,
      "hit": false,
      "t": 85125,
      "d": 187.5,
      "v": 44
    },
    {
      "midi": 68,
      "hit": false,
      "t": 85125,
      "d": 187.5,
      "v": 55
    },
    {
      "midi": 60,
      "hit": false,
      "t": 85500,
      "d": 187.5,
      "v": 52
    },
    {
      "midi": 64,
      "hit": false,
      "t": 85500,
      "d": 187.5,
      "v": 52
    },
    {
      "midi": 69,
      "hit": false,
      "t": 85500,
      "d": 187.5,
      "v": 56
    },
    {
      "midi": 33,
      "hit": false,
      "t": 85500,
      "d": 187.5,
      "v": 48
    },
    {
      "midi": 45,
      "hit": false,
      "t": 85500,
      "d": 187.5,
      "v": 48
    },
    {
      "midi": 48,
      "hit": false,
      "t": 85500,
      "d": 187.5,
      "v": 54
    },
    {
      "midi": 50,
      "hit": false,
      "t": 85687.5,
      "d": 187.5,
      "v": 59
    },
    {
      "midi": 60,
      "hit": false,
      "t": 85875,
      "d": 187.5,
      "v": 60
    },
    {
      "midi": 64,
      "hit": false,
      "t": 85875,
      "d": 187.5,
      "v": 60
    },
    {
      "midi": 72,
      "hit": false,
      "t": 85875,
      "d": 187.5,
      "v": 61
    },
    {
      "midi": 48,
      "hit": false,
      "t": 85875,
      "d": 187.5,
      "v": 55
    },
    {
      "midi": 50,
      "hit": false,
      "t": 86062.5,
      "d": 187.5,
      "v": 58
    },
    {
      "midi": 51,
      "hit": false,
      "t": 86250,
      "d": 187.5,
      "v": 59
    },
    {
      "midi": 52,
      "hit": false,
      "t": 86437.5,
      "d": 187.5,
      "v": 62
    },
    {
      "midi": 60,
      "hit": false,
      "t": 86625,
      "d": 187.5,
      "v": 50
    },
    {
      "midi": 64,
      "hit": false,
      "t": 86625,
      "d": 187.5,
      "v": 50
    },
    {
      "midi": 69,
      "hit": false,
      "t": 86625,
      "d": 187.5,
      "v": 50
    },
    {
      "midi": 51,
      "hit": false,
      "t": 86625,
      "d": 187.5,
      "v": 55
    },
    {
      "midi": 52,
      "hit": false,
      "t": 86812.5,
      "d": 187.5,
      "v": 57
    },
    {
      "midi": 62,
      "hit": false,
      "t": 87000,
      "d": 187.5,
      "v": 56
    },
    {
      "midi": 65,
      "hit": false,
      "t": 87000,
      "d": 187.5,
      "v": 56
    },
    {
      "midi": 70,
      "hit": false,
      "t": 87000,
      "d": 187.5,
      "v": 56
    },
    {
      "midi": 38,
      "hit": false,
      "t": 87000,
      "d": 187.5,
      "v": 54
    },
    {
      "midi": 53,
      "hit": false,
      "t": 87000,
      "d": 187.5,
      "v": 62
    },
    {
      "midi": 55,
      "hit": false,
      "t": 87187.5,
      "d": 187.5,
      "v": 60
    },
    {
      "midi": 62,
      "hit": false,
      "t": 87375,
      "d": 187.5,
      "v": 57
    },
    {
      "midi": 65,
      "hit": false,
      "t": 87375,
      "d": 187.5,
      "v": 57
    },
    {
      "midi": 74,
      "hit": false,
      "t": 87375,
      "d": 187.5,
      "v": 66
    },
    {
      "midi": 53,
      "hit": false,
      "t": 87375,
      "d": 187.5,
      "v": 49
    },
    {
      "midi": 55,
      "hit": false,
      "t": 87562.5,
      "d": 187.5,
      "v": 56
    },
    {
      "midi": 53,
      "hit": false,
      "t": 87750,
      "d": 375,
      "v": 57
    },
    {
      "midi": 62,
      "hit": false,
      "t": 88125,
      "d": 187.5,
      "v": 52
    },
    {
      "midi": 65,
      "hit": false,
      "t": 88125,
      "d": 187.5,
      "v": 52
    },
    {
      "midi": 67,
      "hit": false,
      "t": 88125,
      "d": 187.5,
      "v": 49
    },
    {
      "midi": 60,
      "hit": false,
      "t": 88500,
      "d": 187.5,
      "v": 54
    },
    {
      "midi": 64,
      "hit": false,
      "t": 88500,
      "d": 187.5,
      "v": 54
    },
    {
      "midi": 69,
      "hit": false,
      "t": 88500,
      "d": 187.5,
      "v": 61
    },
    {
      "midi": 33,
      "hit": false,
      "t": 88500,
      "d": 187.5,
      "v": 52
    },
    {
      "midi": 45,
      "hit": false,
      "t": 88500,
      "d": 187.5,
      "v": 52
    },
    {
      "midi": 52,
      "hit": false,
      "t": 88500,
      "d": 187.5,
      "v": 47
    },
    {
      "midi": 53,
      "hit": false,
      "t": 88687.5,
      "d": 187.5,
      "v": 56
    },
    {
      "midi": 60,
      "hit": false,
      "t": 88875,
      "d": 187.5,
      "v": 58
    },
    {
      "midi": 64,
      "hit": false,
      "t": 88875,
      "d": 187.5,
      "v": 58
    },
    {
      "midi": 72,
      "hit": false,
      "t": 88875,
      "d": 187.5,
      "v": 57
    },
    {
      "midi": 52,
      "hit": false,
      "t": 88875,
      "d": 187.5,
      "v": 54
    },
    {
      "midi": 62,
      "hit": false,
      "t": 89250,
      "d": 187.5,
      "v": 59
    },
    {
      "midi": 65,
      "hit": false,
      "t": 89250,
      "d": 187.5,
      "v": 59
    },
    {
      "midi": 71,
      "hit": false,
      "t": 89250,
      "d": 187.5,
      "v": 52
    },
    {
      "midi": 38,
      "hit": false,
      "t": 89250,
      "d": 187.5,
      "v": 49
    },
    {
      "midi": 53,
      "hit": false,
      "t": 89250,
      "d": 187.5,
      "v": 51
    },
    {
      "midi": 55,
      "hit": false,
      "t": 89437.5,
      "d": 187.5,
      "v": 57
    },
    {
      "midi": 62,
      "hit": false,
      "t": 89625,
      "d": 187.5,
      "v": 56
    },
    {
      "midi": 65,
      "hit": false,
      "t": 89625,
      "d": 187.5,
      "v": 56
    },
    {
      "midi": 68,
      "hit": false,
      "t": 89625,
      "d": 187.5,
      "v": 53
    },
    {
      "midi": 53,
      "hit": false,
      "t": 89625,
      "d": 187.5,
      "v": 52
    },
    {
      "midi": 60,
      "hit": false,
      "t": 90000,
      "d": 187.5,
      "v": 54
    },
    {
      "midi": 64,
      "hit": false,
      "t": 90000,
      "d": 187.5,
      "v": 54
    },
    {
      "midi": 69,
      "hit": false,
      "t": 90000,
      "d": 187.5,
      "v": 60
    },
    {
      "midi": 33,
      "hit": false,
      "t": 90000,
      "d": 187.5,
      "v": 52
    },
    {
      "midi": 45,
      "hit": false,
      "t": 90000,
      "d": 187.5,
      "v": 52
    },
    {
      "midi": 52,
      "hit": false,
      "t": 90000,
      "d": 187.5,
      "v": 48
    },
    {
      "midi": 53,
      "hit": false,
      "t": 90187.5,
      "d": 187.5,
      "v": 58
    },
    {
      "midi": 60,
      "hit": false,
      "t": 90375,
      "d": 187.5,
      "v": 55
    },
    {
      "midi": 64,
      "hit": false,
      "t": 90375,
      "d": 187.5,
      "v": 55
    },
    {
      "midi": 72,
      "hit": false,
      "t": 90375,
      "d": 187.5,
      "v": 57
    },
    {
      "midi": 52,
      "hit": false,
      "t": 90375,
      "d": 187.5,
      "v": 57
    },
    {
      "midi": 62,
      "hit": false,
      "t": 90750,
      "d": 187.5,
      "v": 56
    },
    {
      "midi": 65,
      "hit": false,
      "t": 90750,
      "d": 187.5,
      "v": 56
    },
    {
      "midi": 71,
      "hit": false,
      "t": 90750,
      "d": 187.5,
      "v": 57
    },
    {
      "midi": 38,
      "hit": false,
      "t": 90750,
      "d": 187.5,
      "v": 51
    },
    {
      "midi": 53,
      "hit": false,
      "t": 90750,
      "d": 187.5,
      "v": 51
    },
    {
      "midi": 55,
      "hit": false,
      "t": 90937.5,
      "d": 187.5,
      "v": 54
    },
    {
      "midi": 62,
      "hit": false,
      "t": 91125,
      "d": 187.5,
      "v": 53
    },
    {
      "midi": 65,
      "hit": false,
      "t": 91125,
      "d": 187.5,
      "v": 53
    },
    {
      "midi": 68,
      "hit": false,
      "t": 91125,
      "d": 187.5,
      "v": 51
    },
    {
      "midi": 53,
      "hit": false,
      "t": 91125,
      "d": 187.5,
      "v": 58
    },
    {
      "midi": 60,
      "hit": false,
      "t": 91500,
      "d": 187.5,
      "v": 54
    },
    {
      "midi": 64,
      "hit": false,
      "t": 91500,
      "d": 187.5,
      "v": 54
    },
    {
      "midi": 69,
      "hit": false,
      "t": 91500,
      "d": 187.5,
      "v": 52
    },
    {
      "midi": 33,
      "hit": false,
      "t": 91500,
      "d": 187.5,
      "v": 50
    },
    {
      "midi": 45,
      "hit": false,
      "t": 91500,
      "d": 187.5,
      "v": 50
    },
    {
      "midi": 52,
      "hit": false,
      "t": 91500,
      "d": 187.5,
      "v": 52
    },
    {
      "midi": 53,
      "hit": false,
      "t": 91687.5,
      "d": 187.5,
      "v": 50
    },
    {
      "midi": 60,
      "hit": false,
      "t": 91875,
      "d": 187.5,
      "v": 51
    },
    {
      "midi": 64,
      "hit": false,
      "t": 91875,
      "d": 187.5,
      "v": 51
    },
    {
      "midi": 72,
      "hit": false,
      "t": 91875,
      "d": 187.5,
      "v": 64
    },
    {
      "midi": 52,
      "hit": false,
      "t": 91875,
      "d": 187.5,
      "v": 52
    },
    {
      "midi": 60,
      "hit": false,
      "t": 92250,
      "d": 187.5,
      "v": 54
    },
    {
      "midi": 64,
      "hit": false,
      "t": 92250,
      "d": 187.5,
      "v": 54
    },
    {
      "midi": 69,
      "hit": false,
      "t": 92250,
      "d": 187.5,
      "v": 50
    },
    {
      "midi": 60,
      "hit": false,
      "t": 92625,
      "d": 187.5,
      "v": 59
    },
    {
      "midi": 64,
      "hit": false,
      "t": 92625,
      "d": 187.5,
      "v": 59
    },
    {
      "midi": 72,
      "hit": false,
      "t": 92625,
      "d": 187.5,
      "v": 58
    },
    {
      "midi": 60,
      "hit": false,
      "t": 93000,
      "d": 187.5,
      "v": 51
    },
    {
      "midi": 64,
      "hit": false,
      "t": 93000,
      "d": 187.5,
      "v": 51
    },
    {
      "midi": 69,
      "hit": false,
      "t": 93000,
      "d": 187.5,
      "v": 45
    },
    {
      "midi": 52,
      "hit": false,
      "t": 93000,
      "d": 187.5,
      "v": 46
    },
    {
      "midi": 53,
      "hit": false,
      "t": 93187.5,
      "d": 187.5,
      "v": 53
    },
    {
      "midi": 60,
      "hit": false,
      "t": 93375,
      "d": 187.5,
      "v": 52
    },
    {
      "midi": 64,
      "hit": false,
      "t": 93375,
      "d": 187.5,
      "v": 52
    },
    {
      "midi": 72,
      "hit": false,
      "t": 93375,
      "d": 187.5,
      "v": 56
    },
    {
      "midi": 52,
      "hit": false,
      "t": 93375,
      "d": 187.5,
      "v": 51
    },
    {
      "midi": 60,
      "hit": false,
      "t": 93750,
      "d": 187.5,
      "v": 52
    },
    {
      "midi": 64,
      "hit": false,
      "t": 93750,
      "d": 187.5,
      "v": 52
    },
    {
      "midi": 69,
      "hit": false,
      "t": 93750,
      "d": 187.5,
      "v": 47
    },
    {
      "midi": 60,
      "hit": false,
      "t": 94125,
      "d": 187.5,
      "v": 51
    },
    {
      "midi": 64,
      "hit": false,
      "t": 94125,
      "d": 187.5,
      "v": 51
    },
    {
      "midi": 72,
      "hit": false,
      "t": 94125,
      "d": 187.5,
      "v": 53
    },
    {
      "midi": 60,
      "hit": false,
      "t": 94500,
      "d": 3375,
      "v": 49
    },
    {
      "midi": 63,
      "hit": false,
      "t": 94500,
      "d": 3375,
      "v": 49
    },
    {
      "midi": 69,
      "hit": false,
      "t": 94500,
      "d": 3375,
      "v": 56
    },
    {
      "midi": 72,
      "hit": false,
      "t": 94500,
      "d": 3375,
      "v": 56
    },
    {
      "midi": 75,
      "hit": false,
      "t": 94500,
      "d": 3375,
      "v": 56
    },
    {
      "midi": 30,
      "hit": false,
      "t": 94500,
      "d": 3375,
      "v": 46
    },
    {
      "midi": 42,
      "hit": false,
      "t": 94500,
      "d": 3375,
      "v": 46
    },
    {
      "midi": 48,
      "hit": false,
      "t": 94500,
      "d": 3375,
      "v": 44
    },
    {
      "midi": 51,
      "hit": false,
      "t": 94500,
      "d": 3375,
      "v": 44
    },
    {
      "midi": 57,
      "hit": false,
      "t": 94500,
      "d": 3375,
      "v": 44
    },
    {
      "midi": 54,
      "hit": false,
      "t": 99375,
      "d": 380.859375,
      "v": 43
    },
    {
      "midi": 30,
      "hit": false,
      "t": 99375,
      "d": 380.859375,
      "v": 46
    },
    {
      "midi": 57,
      "hit": false,
      "t": 99750,
      "d": 251.953125,
      "v": 43
    },
    {
      "midi": 33,
      "hit": false,
      "t": 99750,
      "d": 251.953125,
      "v": 44
    },
    {
      "midi": 60,
      "hit": false,
      "t": 99999.0234375,
      "d": 251.953125,
      "v": 53
    },
    {
      "midi": 36,
      "hit": false,
      "t": 99999.0234375,
      "d": 251.953125,
      "v": 55
    },
    {
      "midi": 63,
      "hit": false,
      "t": 100248.046875,
      "d": 254.8828125,
      "v": 59
    },
    {
      "midi": 39,
      "hit": false,
      "t": 100248.046875,
      "d": 254.8828125,
      "v": 56
    },
    {
      "midi": 62,
      "hit": false,
      "t": 100500,
      "d": 251.953125,
      "v": 52
    },
    {
      "midi": 38,
      "hit": false,
      "t": 100500,
      "d": 251.953125,
      "v": 44
    },
    {
      "midi": 60,
      "hit": false,
      "t": 100749.0234375,
      "d": 251.953125,
      "v": 47
    },
    {
      "midi": 36,
      "hit": false,
      "t": 100749.0234375,
      "d": 251.953125,
      "v": 43
    },
    {
      "midi": 63,
      "hit": false,
      "t": 100998.046875,
      "d": 254.8828125,
      "v": 52
    },
    {
      "midi": 39,
      "hit": false,
      "t": 100998.046875,
      "d": 254.8828125,
      "v": 53
    },
    {
      "midi": 69,
      "hit": false,
      "t": 101250,
      "d": 251.953125,
      "v": 59
    },
    {
      "midi": 45,
      "hit": false,
      "t": 101250,
      "d": 251.953125,
      "v": 63
    },
    {
      "midi": 67,
      "hit": false,
      "t": 101499.0234375,
      "d": 251.953125,
      "v": 46
    },
    {
      "midi": 43,
      "hit": false,
      "t": 101499.0234375,
      "d": 251.953125,
      "v": 49
    },
    {
      "midi": 66,
      "hit": false,
      "t": 101748.046875,
      "d": 254.8828125,
      "v": 46
    },
    {
      "midi": 42,
      "hit": false,
      "t": 101748.046875,
      "d": 254.8828125,
      "v": 47
    },
    {
      "midi": 69,
      "hit": false,
      "t": 102000,
      "d": 251.953125,
      "v": 56
    },
    {
      "midi": 45,
      "hit": false,
      "t": 102000,
      "d": 251.953125,
      "v": 51
    },
    {
      "midi": 72,
      "hit": false,
      "t": 102249.0234375,
      "d": 251.953125,
      "v": 63
    },
    {
      "midi": 48,
      "hit": false,
      "t": 102249.0234375,
      "d": 251.953125,
      "v": 53
    },
    {
      "midi": 75,
      "hit": false,
      "t": 102498.046875,
      "d": 254.8828125,
      "v": 51
    },
    {
      "midi": 51,
      "hit": false,
      "t": 102498.046875,
      "d": 254.8828125,
      "v": 50
    },
    {
      "midi": 74,
      "hit": false,
      "t": 102750,
      "d": 251.953125,
      "v": 47
    },
    {
      "midi": 50,
      "hit": false,
      "t": 102750,
      "d": 251.953125,
      "v": 48
    },
    {
      "midi": 72,
      "hit": false,
      "t": 102999.0234375,
      "d": 251.953125,
      "v": 48
    },
    {
      "midi": 48,
      "hit": false,
      "t": 102999.0234375,
      "d": 251.953125,
      "v": 53
    },
    {
      "midi": 75,
      "hit": false,
      "t": 103248.046875,
      "d": 254.8828125,
      "v": 52
    },
    {
      "midi": 51,
      "hit": false,
      "t": 103248.046875,
      "d": 254.8828125,
      "v": 53
    },
    {
      "midi": 81,
      "hit": false,
      "t": 103500,
      "d": 251.953125,
      "v": 62
    },
    {
      "midi": 57,
      "hit": false,
      "t": 103500,
      "d": 251.953125,
      "v": 52
    },
    {
      "midi": 79,
      "hit": false,
      "t": 103749.0234375,
      "d": 251.953125,
      "v": 64
    },
    {
      "midi": 55,
      "hit": false,
      "t": 103749.0234375,
      "d": 251.953125,
      "v": 51
    },
    {
      "midi": 78,
      "hit": false,
      "t": 103998.046875,
      "d": 254.8828125,
      "v": 50
    },
    {
      "midi": 54,
      "hit": false,
      "t": 103998.046875,
      "d": 254.8828125,
      "v": 51
    },
    {
      "midi": 81,
      "hit": false,
      "t": 104250,
      "d": 251.953125,
      "v": 56
    },
    {
      "midi": 57,
      "hit": false,
      "t": 104250,
      "d": 251.953125,
      "v": 57
    },
    {
      "midi": 84,
      "hit": false,
      "t": 104499.0234375,
      "d": 251.953125,
      "v": 58
    },
    {
      "midi": 60,
      "hit": false,
      "t": 104499.0234375,
      "d": 251.953125,
      "v": 53
    },
    {
      "midi": 87,
      "hit": false,
      "t": 104748.046875,
      "d": 254.8828125,
      "v": 121
    },
    {
      "midi": 63,
      "hit": false,
      "t": 104748.046875,
      "d": 254.8828125,
      "v": 61
    },
    {
      "midi": 88,
      "hit": false,
      "t": 105000,
      "d": 175.78125,
      "v": 123
    },
    {
      "midi": 76,
      "hit": false,
      "t": 105000,
      "d": 187.5,
      "v": 105
    },
    {
      "midi": 64,
      "hit": false,
      "t": 105000,
      "d": 175.78125,
      "v": 118
    },
    {
      "midi": 40,
      "hit": false,
      "t": 105000,
      "d": 187.5,
      "v": 99
    },
    {
      "midi": 52,
      "hit": false,
      "t": 105000,
      "d": 187.5,
      "v": 99
    },
    {
      "midi": 64,
      "hit": false,
      "t": 105375,
      "d": 187.5,
      "v": 80
    },
    {
      "midi": 52,
      "hit": false,
      "t": 105375,
      "d": 187.5,
      "v": 96
    },
    {
      "midi": 65,
      "hit": false,
      "t": 105562.5,
      "d": 187.5,
      "v": 109
    },
    {
      "midi": 53,
      "hit": false,
      "t": 105562.5,
      "d": 187.5,
      "v": 114
    },
    {
      "midi": 64,
      "hit": false,
      "t": 105750,
      "d": 187.5,
      "v": 108
    },
    {
      "midi": 52,
      "hit": false,
      "t": 105750,
      "d": 187.5,
      "v": 115
    },
    {
      "midi": 65,
      "hit": false,
      "t": 105937.5,
      "d": 187.5,
      "v": 116
    },
    {
      "midi": 53,
      "hit": false,
      "t": 105937.5,
      "d": 187.5,
      "v": 116
    },
    {
      "midi": 64,
      "hit": false,
      "t": 106125,
      "d": 187.5,
      "v": 112
    },
    {
      "midi": 52,
      "hit": false,
      "t": 106125,
      "d": 187.5,
      "v": 108
    },
    {
      "midi": 65,
      "hit": false,
      "t": 106312.5,
      "d": 187.5,
      "v": 118
    },
    {
      "midi": 53,
      "hit": false,
      "t": 106312.5,
      "d": 187.5,
      "v": 115
    },
    {
      "midi": 64,
      "hit": false,
      "t": 106500,
      "d": 187.5,
      "v": 105
    },
    {
      "midi": 52,
      "hit": false,
      "t": 106500,
      "d": 187.5,
      "v": 110
    },
    {
      "midi": 65,
      "hit": false,
      "t": 106687.5,
      "d": 187.5,
      "v": 119
    },
    {
      "midi": 53,
      "hit": false,
      "t": 106687.5,
      "d": 187.5,
      "v": 121
    },
    {
      "midi": 64,
      "hit": false,
      "t": 106875,
      "d": 187.5,
      "v": 109
    },
    {
      "midi": 52,
      "hit": false,
      "t": 106875,
      "d": 187.5,
      "v": 111
    },
    {
      "midi": 65,
      "hit": false,
      "t": 107062.5,
      "d": 187.5,
      "v": 119
    },
    {
      "midi": 53,
      "hit": false,
      "t": 107062.5,
      "d": 187.5,
      "v": 118
    },
    {
      "midi": 64,
      "hit": false,
      "t": 107250,
      "d": 375,
      "v": 111
    },
    {
      "midi": 52,
      "hit": false,
      "t": 107250,
      "d": 375,
      "v": 110
    },
    {
      "midi": 64,
      "hit": false,
      "t": 107625,
      "d": 187.5,
      "v": 127
    },
    {
      "midi": 68,
      "hit": false,
      "t": 107625,
      "d": 187.5,
      "v": 127
    },
    {
      "midi": 71,
      "hit": false,
      "t": 107625,
      "d": 187.5,
      "v": 127
    },
    {
      "midi": 74,
      "hit": false,
      "t": 107625,
      "d": 187.5,
      "v": 97
    },
    {
      "midi": 76,
      "hit": false,
      "t": 107625,
      "d": 187.5,
      "v": 97
    },
    {
      "midi": 80,
      "hit": false,
      "t": 107625,
      "d": 187.5,
      "v": 97
    },
    {
      "midi": 40,
      "hit": false,
      "t": 107625,
      "d": 187.5,
      "v": 103
    },
    {
      "midi": 52,
      "hit": false,
      "t": 107625,
      "d": 187.5,
      "v": 127
    },
    {
      "midi": 56,
      "hit": false,
      "t": 107625,
      "d": 187.5,
      "v": 127
    },
    {
      "midi": 59,
      "hit": false,
      "t": 107625,
      "d": 187.5,
      "v": 127
    },
    {
      "midi": 62,
      "hit": false,
      "t": 107625,
      "d": 187.5,
      "v": 127
    },
    {
      "midi": 64,
      "hit": false,
      "t": 108000,
      "d": 187.5,
      "v": 107
    },
    {
      "midi": 69,
      "hit": false,
      "t": 108000,
      "d": 187.5,
      "v": 107
    },
    {
      "midi": 72,
      "hit": false,
      "t": 108000,
      "d": 187.5,
      "v": 116
    },
    {
      "midi": 76,
      "hit": false,
      "t": 108000,
      "d": 187.5,
      "v": 116
    },
    {
      "midi": 81,
      "hit": false,
      "t": 108000,
      "d": 187.5,
      "v": 116
    },
    {
      "midi": 33,
      "hit": false,
      "t": 108000,
      "d": 187.5,
      "v": 116
    },
    {
      "midi": 45,
      "hit": false,
      "t": 108000,
      "d": 187.5,
      "v": 116
    },
    {
      "midi": 52,
      "hit": false,
      "t": 108000,
      "d": 187.5,
      "v": 111
    },
    {
      "midi": 57,
      "hit": false,
      "t": 108000,
      "d": 187.5,
      "v": 111
    },
    {
      "midi": 60,
      "hit": false,
      "t": 108000,
      "d": 187.5,
      "v": 111
    }
  ]
}