{
  "jsonPath": "Unknown/Unknown/Stanley Myers/cavatina.json",
  "path": "Unknown\\Unknown\\Stanley Myers\\Cavatina.mid",
  "name": "Cavatina",
  "difficulty": "Advanced",
  "bpm": 85.00004250002125,
  "notes": [
    {
      "midi": 71,
      "hit": false,
      "t": 0,
      "d": 2117.6459999999997,
      "v": 82
    },
    {
      "midi": 40,
      "hit": false,
      "t": 0,
      "d": 352.941,
      "v": 64
    },
    {
      "midi": 56,
      "hit": false,
      "t": 352.941,
      "d": 352.941,
      "v": 64
    },
    {
      "midi": 59,
      "hit": false,
      "t": 705.882,
      "d": 352.9409999999999,
      "v": 64
    },
    {
      "midi": 64,
      "hit": false,
      "t": 1058.8229999999999,
      "d": 352.94100000000003,
      "v": 64
    },
    {
      "midi": 59,
      "hit": false,
      "t": 1411.764,
      "d": 352.94100000000003,
      "v": 64
    },
    {
      "midi": 56,
      "hit": false,
      "t": 1764.705,
      "d": 352.9409999999998,
      "v": 64
    },
    {
      "midi": 71,
      "hit": false,
      "t": 2117.6459999999997,
      "d": 2117.6459999999997,
      "v": 82
    },
    {
      "midi": 51,
      "hit": false,
      "t": 2117.6459999999997,
      "d": 352.9409999999998,
      "v": 64
    },
    {
      "midi": 59,
      "hit": false,
      "t": 2470.5869999999995,
      "d": 352.9409999999998,
      "v": 64
    },
    {
      "midi": 63,
      "hit": false,
      "t": 2823.5279999999993,
      "d": 352.9409999999998,
      "v": 64
    },
    {
      "midi": 68,
      "hit": false,
      "t": 3176.468999999999,
      "d": 352.9409999999998,
      "v": 64
    },
    {
      "midi": 63,
      "hit": false,
      "t": 3529.409999999999,
      "d": 352.9409999999998,
      "v": 64
    },
    {
      "midi": 59,
      "hit": false,
      "t": 3882.3509999999987,
      "d": 352.9409999999998,
      "v": 64
    },
    {
      "midi": 49,
      "hit": false,
      "t": 4235.291999999999,
      "d": 352.9409999999998,
      "v": 64
    },
    {
      "midi": 69,
      "hit": false,
      "t": 4235.2919999999995,
      "d": 176.47050000000036,
      "v": 82
    },
    {
      "midi": 71,
      "hit": false,
      "t": 4411.7625,
      "d": 176.47050000000036,
      "v": 82
    },
    {
      "midi": 61,
      "hit": false,
      "t": 4588.232999999998,
      "d": 352.9409999999998,
      "v": 64
    },
    {
      "midi": 73,
      "hit": false,
      "t": 4588.233,
      "d": 1764.705,
      "v": 82
    },
    {
      "midi": 64,
      "hit": false,
      "t": 4941.173999999998,
      "d": 352.9409999999998,
      "v": 64
    },
    {
      "midi": 69,
      "hit": false,
      "t": 5294.114999999998,
      "d": 352.9409999999998,
      "v": 64
    },
    {
      "midi": 64,
      "hit": false,
      "t": 5647.055999999998,
      "d": 352.9409999999998,
      "v": 64
    },
    {
      "midi": 61,
      "hit": false,
      "t": 5999.996999999998,
      "d": 352.9409999999998,
      "v": 64
    },
    {
      "midi": 54,
      "hit": false,
      "t": 6352.937999999997,
      "d": 352.9409999999998,
      "v": 64
    },
    {
      "midi": 61,
      "hit": false,
      "t": 6705.878999999997,
      "d": 352.9409999999998,
      "v": 64
    },
    {
      "midi": 64,
      "hit": false,
      "t": 7058.819999999997,
      "d": 352.9409999999998,
      "v": 64
    },
    {
      "midi": 69,
      "hit": false,
      "t": 7411.760999999997,
      "d": 352.9409999999998,
      "v": 64
    },
    {
      "midi": 64,
      "hit": false,
      "t": 7764.701999999997,
      "d": 352.9409999999998,
      "v": 64
    },
    {
      "midi": 61,
      "hit": false,
      "t": 8117.642999999996,
      "d": 352.9410000000007,
      "v": 64
    },
    {
      "midi": 47,
      "hit": false,
      "t": 8470.583999999997,
      "d": 352.9410000000007,
      "v": 64
    },
    {
      "midi": 69,
      "hit": false,
      "t": 8470.583999999999,
      "d": 176.47049999999945,
      "v": 82
    },
    {
      "midi": 71,
      "hit": false,
      "t": 8647.054499999998,
      "d": 176.47049999999945,
      "v": 82
    },
    {
      "midi": 73,
      "hit": false,
      "t": 8823.524999999998,
      "d": 1411.7639999999992,
      "v": 82
    },
    {
      "midi": 57,
      "hit": false,
      "t": 8823.524999999998,
      "d": 352.9410000000007,
      "v": 64
    },
    {
      "midi": 64,
      "hit": false,
      "t": 9176.465999999999,
      "d": 352.9410000000007,
      "v": 64
    },
    {
      "midi": 69,
      "hit": false,
      "t": 9529.407,
      "d": 352.9410000000007,
      "v": 64
    },
    {
      "midi": 64,
      "hit": false,
      "t": 9882.348,
      "d": 352.9410000000007,
      "v": 64
    },
    {
      "midi": 57,
      "hit": false,
      "t": 10235.289,
      "d": 352.9410000000007,
      "v": 64
    },
    {
      "midi": 47,
      "hit": false,
      "t": 10588.230000000001,
      "d": 352.9410000000007,
      "v": 64
    },
    {
      "midi": 54,
      "hit": false,
      "t": 10941.171000000002,
      "d": 352.9410000000007,
      "v": 64
    },
    {
      "midi": 57,
      "hit": false,
      "t": 11294.112000000003,
      "d": 352.9410000000007,
      "v": 64
    },
    {
      "midi": 63,
      "hit": false,
      "t": 11647.053000000004,
      "d": 352.9410000000007,
      "v": 64
    },
    {
      "midi": 57,
      "hit": false,
      "t": 11999.994000000004,
      "d": 705.8819999999996,
      "v": 64
    },
    {
      "midi": 71,
      "hit": false,
      "t": 12352.934999999998,
      "d": 176.47049999999945,
      "v": 82
    },
    {
      "midi": 69,
      "hit": false,
      "t": 12529.405499999997,
      "d": 176.47049999999945,
      "v": 82
    },
    {
      "midi": 71,
      "hit": false,
      "t": 12705.875999999997,
      "d": 2117.6460000000006,
      "v": 82
    },
    {
      "midi": 40,
      "hit": false,
      "t": 12705.876000000004,
      "d": 352.9410000000007,
      "v": 64
    },
    {
      "midi": 59,
      "hit": false,
      "t": 13058.817000000005,
      "d": 352.9410000000007,
      "v": 64
    },
    {
      "midi": 63,
      "hit": false,
      "t": 13411.758000000005,
      "d": 352.9410000000007,
      "v": 64
    },
    {
      "midi": 68,
      "hit": false,
      "t": 13764.699000000006,
      "d": 352.9410000000007,
      "v": 64
    },
    {
      "midi": 63,
      "hit": false,
      "t": 14117.640000000007,
      "d": 352.9410000000007,
      "v": 64
    },
    {
      "midi": 59,
      "hit": false,
      "t": 14470.581000000007,
      "d": 352.9410000000007,
      "v": 64
    },
    {
      "midi": 40,
      "hit": false,
      "t": 14823.522000000008,
      "d": 352.9410000000007,
      "v": 64
    },
    {
      "midi": 56,
      "hit": false,
      "t": 15176.463000000009,
      "d": 352.9410000000007,
      "v": 64
    },
    {
      "midi": 59,
      "hit": false,
      "t": 15529.40400000001,
      "d": 352.9410000000007,
      "v": 64
    },
    {
      "midi": 62,
      "hit": false,
      "t": 15882.34500000001,
      "d": 352.9410000000007,
      "v": 64
    },
    {
      "midi": 59,
      "hit": false,
      "t": 16235.286000000011,
      "d": 705.8820000000014,
      "v": 64
    },
    {
      "midi": 69,
      "hit": false,
      "t": 16588.227,
      "d": 176.47049999999945,
      "v": 82
    },
    {
      "midi": 68,
      "hit": false,
      "t": 16764.6975,
      "d": 176.47049999999945,
      "v": 82
    },
    {
      "midi": 68,
      "hit": false,
      "t": 16941.167999999998,
      "d": 2117.6460000000006,
      "v": 82
    },
    {
      "midi": 45,
      "hit": false,
      "t": 16941.168000000012,
      "d": 352.9409999999989,
      "v": 64
    },
    {
      "midi": 52,
      "hit": false,
      "t": 17294.10900000001,
      "d": 352.9409999999989,
      "v": 64
    },
    {
      "midi": 57,
      "hit": false,
      "t": 17647.05000000001,
      "d": 352.9409999999989,
      "v": 64
    },
    {
      "midi": 61,
      "hit": false,
      "t": 17999.99100000001,
      "d": 352.9409999999989,
      "v": 64
    },
    {
      "midi": 57,
      "hit": false,
      "t": 18352.932000000008,
      "d": 352.9409999999989,
      "v": 64
    },
    {
      "midi": 52,
      "hit": false,
      "t": 18705.873000000007,
      "d": 352.9409999999989,
      "v": 64
    },
    {
      "midi": 66,
      "hit": false,
      "t": 19058.814,
      "d": 1941.1755000000012,
      "v": 82
    },
    {
      "midi": 50,
      "hit": false,
      "t": 19058.814000000006,
      "d": 352.9409999999989,
      "v": 64
    },
    {
      "midi": 54,
      "hit": false,
      "t": 19411.755000000005,
      "d": 352.9409999999989,
      "v": 64
    },
    {
      "midi": 57,
      "hit": false,
      "t": 19764.696000000004,
      "d": 352.9409999999989,
      "v": 64
    },
    {
      "midi": 61,
      "hit": false,
      "t": 20117.637000000002,
      "d": 352.9409999999989,
      "v": 64
    },
    {
      "midi": 57,
      "hit": false,
      "t": 20470.578,
      "d": 352.9409999999989,
      "v": 64
    },
    {
      "midi": 54,
      "hit": false,
      "t": 20823.519,
      "d": 352.9409999999989,
      "v": 64
    },
    {
      "midi": 64,
      "hit": false,
      "t": 20999.9895,
      "d": 176.47049999999945,
      "v": 82
    },
    {
      "midi": 66,
      "hit": false,
      "t": 21176.46,
      "d": 2117.6460000000006,
      "v": 82
    },
    {
      "midi": 43,
      "hit": false,
      "t": 21176.46,
      "d": 352.9409999999989,
      "v": 64
    },
    {
      "midi": 50,
      "hit": false,
      "t": 21529.400999999998,
      "d": 352.9409999999989,
      "v": 64
    },
    {
      "midi": 55,
      "hit": false,
      "t": 21882.341999999997,
      "d": 352.9409999999989,
      "v": 64
    },
    {
      "midi": 59,
      "hit": false,
      "t": 22235.282999999996,
      "d": 352.9409999999989,
      "v": 64
    },
    {
      "midi": 55,
      "hit": false,
      "t": 22588.223999999995,
      "d": 352.9409999999989,
      "v": 64
    },
    {
      "midi": 50,
      "hit": false,
      "t": 22941.164999999994,
      "d": 352.9409999999989,
      "v": 64
    },
    {
      "midi": 48,
      "hit": false,
      "t": 23294.105999999992,
      "d": 352.9409999999989,
      "v": 64
    },
    {
      "midi": 64,
      "hit": false,
      "t": 23294.106,
      "d": 2117.6460000000006,
      "v": 82
    },
    {
      "midi": 52,
      "hit": false,
      "t": 23647.04699999999,
      "d": 352.9409999999989,
      "v": 64
    },
    {
      "midi": 55,
      "hit": false,
      "t": 23999.98799999999,
      "d": 352.9409999999989,
      "v": 64
    },
    {
      "midi": 59,
      "hit": false,
      "t": 24352.92899999999,
      "d": 352.9409999999989,
      "v": 64
    },
    {
      "midi": 55,
      "hit": false,
      "t": 24705.869999999988,
      "d": 352.9409999999989,
      "v": 64
    },
    {
      "midi": 52,
      "hit": false,
      "t": 25058.810999999987,
      "d": 352.9409999999989,
      "v": 64
    },
    {
      "midi": 47,
      "hit": false,
      "t": 25411.751999999986,
      "d": 352.9409999999989,
      "v": 64
    },
    {
      "midi": 64,
      "hit": false,
      "t": 25411.752,
      "d": 2117.6460000000006,
      "v": 82
    },
    {
      "midi": 54,
      "hit": false,
      "t": 25764.692999999985,
      "d": 352.9409999999989,
      "v": 64
    },
    {
      "midi": 57,
      "hit": false,
      "t": 26117.633999999984,
      "d": 352.9409999999989,
      "v": 64
    },
    {
      "midi": 59,
      "hit": false,
      "t": 26470.574999999983,
      "d": 352.9409999999989,
      "v": 64
    },
    {
      "midi": 57,
      "hit": false,
      "t": 26823.51599999998,
      "d": 352.9409999999989,
      "v": 64
    },
    {
      "midi": 54,
      "hit": false,
      "t": 27176.45699999998,
      "d": 352.9409999999989,
      "v": 64
    },
    {
      "midi": 47,
      "hit": false,
      "t": 27529.39799999998,
      "d": 352.9409999999989,
      "v": 64
    },
    {
      "midi": 54,
      "hit": false,
      "t": 27882.338999999978,
      "d": 705.8820000000014,
      "v": 64
    },
    {
      "midi": 66,
      "hit": false,
      "t": 28235.280000000002,
      "d": 529.4114999999983,
      "v": 82
    },
    {
      "midi": 57,
      "hit": false,
      "t": 28588.22099999998,
      "d": 705.8820000000014,
      "v": 64
    },
    {
      "midi": 63,
      "hit": false,
      "t": 28941.162,
      "d": 705.8820000000014,
      "v": 82
    },
    {
      "midi": 57,
      "hit": false,
      "t": 29294.10299999998,
      "d": 352.9409999999989,
      "v": 64
    },
    {
      "midi": 40,
      "hit": false,
      "t": 29647.04399999998,
      "d": 352.9409999999989,
      "v": 64
    },
    {
      "midi": 64,
      "hit": false,
      "t": 29647.044,
      "d": 2117.6460000000006,
      "v": 82
    },
    {
      "midi": 54,
      "hit": false,
      "t": 29999.98499999998,
      "d": 352.9409999999989,
      "v": 64
    },
    {
      "midi": 56,
      "hit": false,
      "t": 30352.925999999978,
      "d": 352.9409999999989,
      "v": 64
    },
    {
      "midi": 52,
      "hit": false,
      "t": 30705.866999999977,
      "d": 352.9409999999989,
      "v": 64
    },
    {
      "midi": 56,
      "hit": false,
      "t": 31058.807999999975,
      "d": 352.9409999999989,
      "v": 64
    },
    {
      "midi": 59,
      "hit": false,
      "t": 31411.748999999974,
      "d": 352.9409999999989,
      "v": 64
    },
    {
      "midi": 64,
      "hit": false,
      "t": 31764.689999999973,
      "d": 705.8820000000014,
      "v": 64
    },
    {
      "midi": 68,
      "hit": false,
      "t": 32117.631,
      "d": 352.9409999999989,
      "v": 82
    },
    {
      "midi": 71,
      "hit": false,
      "t": 32470.572,
      "d": 352.9409999999989,
      "v": 82
    },
    {
      "midi": 64,
      "hit": false,
      "t": 32823.513,
      "d": 352.9409999999989,
      "v": 82
    },
    {
      "midi": 68,
      "hit": false,
      "t": 33176.454,
      "d": 352.9409999999989,
      "v": 82
    },
    {
      "midi": 69,
      "hit": false,
      "t": 33529.395,
      "d": 352.9409999999989,
      "v": 82
    },
    {
      "midi": 40,
      "hit": false,
      "t": 33882.335999999974,
      "d": 352.9409999999989,
      "v": 64
    },
    {
      "midi": 71,
      "hit": false,
      "t": 33882.335999999996,
      "d": 2117.6460000000006,
      "v": 82
    },
    {
      "midi": 56,
      "hit": false,
      "t": 34235.27699999997,
      "d": 352.9409999999989,
      "v": 64
    },
    {
      "midi": 59,
      "hit": false,
      "t": 34588.21799999997,
      "d": 352.9409999999989,
      "v": 64
    },
    {
      "midi": 64,
      "hit": false,
      "t": 34941.15899999997,
      "d": 352.9409999999989,
      "v": 64
    },
    {
      "midi": 59,
      "hit": false,
      "t": 35294.09999999997,
      "d": 352.9409999999989,
      "v": 64
    },
    {
      "midi": 56,
      "hit": false,
      "t": 35647.04099999997,
      "d": 352.9409999999989,
      "v": 64
    },
    {
      "midi": 51,
      "hit": false,
      "t": 35999.98199999997,
      "d": 352.9409999999989,
      "v": 64
    },
    {
      "midi": 71,
      "hit": false,
      "t": 35999.981999999996,
      "d": 2117.6460000000006,
      "v": 82
    },
    {
      "midi": 59,
      "hit": false,
      "t": 36352.922999999966,
      "d": 352.9409999999989,
      "v": 64
    },
    {
      "midi": 63,
      "hit": false,
      "t": 36705.863999999965,
      "d": 352.9409999999989,
      "v": 64
    },
    {
      "midi": 68,
      "hit": false,
      "t": 37058.804999999964,
      "d": 352.9409999999989,
      "v": 64
    },
    {
      "midi": 63,
      "hit": false,
      "t": 37411.74599999996,
      "d": 352.9409999999989,
      "v": 64
    },
    {
      "midi": 59,
      "hit": false,
      "t": 37764.68699999996,
      "d": 352.9409999999989,
      "v": 64
    },
    {
      "midi": 49,
      "hit": false,
      "t": 38117.62799999996,
      "d": 352.9409999999989,
      "v": 64
    },
    {
      "midi": 69,
      "hit": false,
      "t": 38117.628,
      "d": 176.47050000000309,
      "v": 82
    },
    {
      "midi": 71,
      "hit": false,
      "t": 38294.0985,
      "d": 176.47050000000309,
      "v": 82
    },
    {
      "midi": 61,
      "hit": false,
      "t": 38470.56899999996,
      "d": 352.9409999999989,
      "v": 64
    },
    {
      "midi": 73,
      "hit": false,
      "t": 38470.569,
      "d": 1764.7050000000017,
      "v": 82
    },
    {
      "midi": 64,
      "hit": false,
      "t": 38823.50999999996,
      "d": 352.9409999999989,
      "v": 64
    },
    {
      "midi": 69,
      "hit": false,
      "t": 39176.45099999996,
      "d": 352.9409999999989,
      "v": 64
    },
    {
      "midi": 64,
      "hit": false,
      "t": 39529.391999999956,
      "d": 352.9409999999989,
      "v": 64
    },
    {
      "midi": 61,
      "hit": false,
      "t": 39882.332999999955,
      "d": 352.9409999999989,
      "v": 64
    },
    {
      "midi": 54,
      "hit": false,
      "t": 40235.273999999954,
      "d": 352.9409999999989,
      "v": 64
    },
    {
      "midi": 61,
      "hit": false,
      "t": 40588.21499999995,
      "d": 352.9409999999989,
      "v": 64
    },
    {
      "midi": 64,
      "hit": false,
      "t": 40941.15599999995,
      "d": 352.9409999999989,
      "v": 64
    },
    {
      "midi": 69,
      "hit": false,
      "t": 41294.09699999995,
      "d": 352.9409999999989,
      "v": 64
    },
    {
      "midi": 64,
      "hit": false,
      "t": 41647.03799999995,
      "d": 352.9409999999989,
      "v": 64
    },
    {
      "midi": 61,
      "hit": false,
      "t": 41999.97899999995,
      "d": 352.9409999999989,
      "v": 64
    },
    {
      "midi": 47,
      "hit": false,
      "t": 42352.91999999995,
      "d": 352.9409999999989,
      "v": 64
    },
    {
      "midi": 69,
      "hit": false,
      "t": 42352.920000000006,
      "d": 176.47050000000309,
      "v": 82
    },
    {
      "midi": 71,
      "hit": false,
      "t": 42529.39050000001,
      "d": 176.47050000000309,
      "v": 82
    },
    {
      "midi": 57,
      "hit": false,
      "t": 42705.860999999946,
      "d": 352.9409999999989,
      "v": 64
    },
    {
      "midi": 73,
      "hit": false,
      "t": 42705.86100000001,
      "d": 1411.7640000000029,
      "v": 82
    },
    {
      "midi": 64,
      "hit": false,
      "t": 43058.801999999945,
      "d": 352.9409999999989,
      "v": 64
    },
    {
      "midi": 69,
      "hit": false,
      "t": 43411.742999999944,
      "d": 352.9409999999989,
      "v": 64
    },
    {
      "midi": 64,
      "hit": false,
      "t": 43764.68399999994,
      "d": 352.9409999999989,
      "v": 64
    },
    {
      "midi": 57,
      "hit": false,
      "t": 44117.62499999994,
      "d": 352.9409999999989,
      "v": 64
    },
    {
      "midi": 47,
      "hit": false,
      "t": 44470.56599999994,
      "d": 352.9409999999989,
      "v": 64
    },
    {
      "midi": 54,
      "hit": false,
      "t": 44823.50699999994,
      "d": 352.9409999999989,
      "v": 64
    },
    {
      "midi": 57,
      "hit": false,
      "t": 45176.44799999994,
      "d": 352.9409999999989,
      "v": 64
    },
    {
      "midi": 63,
      "hit": false,
      "t": 45529.38899999994,
      "d": 352.9409999999989,
      "v": 64
    },
    {
      "midi": 57,
      "hit": false,
      "t": 45882.329999999936,
      "d": 705.8819999999978,
      "v": 64
    },
    {
      "midi": 71,
      "hit": false,
      "t": 46235.271000000015,
      "d": 176.47050000000309,
      "v": 82
    },
    {
      "midi": 69,
      "hit": false,
      "t": 46411.74150000002,
      "d": 176.47050000000309,
      "v": 82
    },
    {
      "midi": 40,
      "hit": false,
      "t": 46588.211999999934,
      "d": 352.9409999999989,
      "v": 64
    },
    {
      "midi": 71,
      "hit": false,
      "t": 46588.21200000002,
      "d": 2117.6460000000006,
      "v": 82
    },
    {
      "midi": 59,
      "hit": false,
      "t": 46941.15299999993,
      "d": 352.9409999999989,
      "v": 64
    },
    {
      "midi": 63,
      "hit": false,
      "t": 47294.09399999993,
      "d": 352.9409999999989,
      "v": 64
    },
    {
      "midi": 68,
      "hit": false,
      "t": 47647.03499999993,
      "d": 352.9409999999989,
      "v": 64
    },
    {
      "midi": 63,
      "hit": false,
      "t": 47999.97599999993,
      "d": 352.9409999999989,
      "v": 64
    },
    {
      "midi": 59,
      "hit": false,
      "t": 48352.91699999993,
      "d": 352.9409999999989,
      "v": 64
    },
    {
      "midi": 40,
      "hit": false,
      "t": 48705.85799999993,
      "d": 352.9409999999989,
      "v": 64
    },
    {
      "midi": 56,
      "hit": false,
      "t": 49058.798999999926,
      "d": 352.9409999999989,
      "v": 64
    },
    {
      "midi": 59,
      "hit": false,
      "t": 49411.739999999925,
      "d": 352.9409999999989,
      "v": 64
    },
    {
      "midi": 62,
      "hit": false,
      "t": 49764.680999999924,
      "d": 352.9409999999989,
      "v": 64
    },
    {
      "midi": 59,
      "hit": false,
      "t": 50117.62199999992,
      "d": 705.8819999999978,
      "v": 64
    },
    {
      "midi": 69,
      "hit": false,
      "t": 50470.563000000024,
      "d": 176.47050000000309,
      "v": 82
    },
    {
      "midi": 68,
      "hit": false,
      "t": 50647.03350000003,
      "d": 176.47050000000309,
      "v": 82
    },
    {
      "midi": 45,
      "hit": false,
      "t": 50823.50399999992,
      "d": 352.9409999999989,
      "v": 64
    },
    {
      "midi": 68,
      "hit": false,
      "t": 50823.50400000003,
      "d": 2117.6460000000006,
      "v": 82
    },
    {
      "midi": 52,
      "hit": false,
      "t": 51176.44499999992,
      "d": 352.9409999999989,
      "v": 64
    },
    {
      "midi": 57,
      "hit": false,
      "t": 51529.38599999992,
      "d": 352.9409999999989,
      "v": 64
    },
    {
      "midi": 61,
      "hit": false,
      "t": 51882.32699999992,
      "d": 352.9409999999989,
      "v": 64
    },
    {
      "midi": 57,
      "hit": false,
      "t": 52235.267999999916,
      "d": 352.9409999999989,
      "v": 64
    },
    {
      "midi": 52,
      "hit": false,
      "t": 52588.208999999915,
      "d": 352.9409999999989,
      "v": 64
    },
    {
      "midi": 50,
      "hit": false,
      "t": 52941.149999999914,
      "d": 352.9409999999989,
      "v": 64
    },
    {
      "midi": 66,
      "hit": false,
      "t": 52941.15000000003,
      "d": 1941.1754999999976,
      "v": 82
    },
    {
      "midi": 54,
      "hit": false,
      "t": 53294.09099999991,
      "d": 352.9409999999989,
      "v": 64
    },
    {
      "midi": 57,
      "hit": false,
      "t": 53647.03199999991,
      "d": 352.9409999999989,
      "v": 64
    },
    {
      "midi": 61,
      "hit": false,
      "t": 53999.97299999991,
      "d": 352.9409999999989,
      "v": 64
    },
    {
      "midi": 57,
      "hit": false,
      "t": 54352.91399999991,
      "d": 352.9409999999989,
      "v": 64
    },
    {
      "midi": 54,
      "hit": false,
      "t": 54705.85499999991,
      "d": 352.9409999999989,
      "v": 64
    },
    {
      "midi": 64,
      "hit": false,
      "t": 54882.32550000003,
      "d": 176.47050000000309,
      "v": 82
    },
    {
      "midi": 43,
      "hit": false,
      "t": 55058.79599999991,
      "d": 352.9409999999989,
      "v": 64
    },
    {
      "midi": 66,
      "hit": false,
      "t": 55058.79600000003,
      "d": 2117.6460000000006,
      "v": 82
    },
    {
      "midi": 50,
      "hit": false,
      "t": 55411.73699999991,
      "d": 352.9409999999989,
      "v": 64
    },
    {
      "midi": 55,
      "hit": false,
      "t": 55764.677999999905,
      "d": 352.9409999999989,
      "v": 64
    },
    {
      "midi": 59,
      "hit": false,
      "t": 56117.618999999904,
      "d": 352.9409999999989,
      "v": 64
    },
    {
      "midi": 55,
      "hit": false,
      "t": 56470.5599999999,
      "d": 352.9409999999989,
      "v": 64
    },
    {
      "midi": 50,
      "hit": false,
      "t": 56823.5009999999,
      "d": 352.9409999999989,
      "v": 64
    },
    {
      "midi": 48,
      "hit": false,
      "t": 57176.4419999999,
      "d": 352.9409999999989,
      "v": 64
    },
    {
      "midi": 64,
      "hit": false,
      "t": 57176.44200000003,
      "d": 2117.6460000000006,
      "v": 82
    },
    {
      "midi": 52,
      "hit": false,
      "t": 57529.3829999999,
      "d": 352.9409999999989,
      "v": 64
    },
    {
      "midi": 55,
      "hit": false,
      "t": 57882.3239999999,
      "d": 352.9409999999989,
      "v": 64
    },
    {
      "midi": 59,
      "hit": false,
      "t": 58235.2649999999,
      "d": 352.9409999999989,
      "v": 64
    },
    {
      "midi": 55,
      "hit": false,
      "t": 58588.2059999999,
      "d": 352.9409999999989,
      "v": 64
    },
    {
      "midi": 52,
      "hit": false,
      "t": 58941.146999999895,
      "d": 352.9409999999989,
      "v": 64
    },
    {
      "midi": 47,
      "hit": false,
      "t": 59294.087999999894,
      "d": 352.9409999999989,
      "v": 64
    },
    {
      "midi": 64,
      "hit": false,
      "t": 59294.08800000003,
      "d": 2117.6460000000006,
      "v": 82
    },
    {
      "midi": 54,
      "hit": false,
      "t": 59647.02899999989,
      "d": 352.9409999999989,
      "v": 64
    },
    {
      "midi": 57,
      "hit": false,
      "t": 59999.96999999989,
      "d": 352.9409999999989,
      "v": 64
    },
    {
      "midi": 59,
      "hit": false,
      "t": 60352.91099999989,
      "d": 352.9409999999989,
      "v": 64
    },
    {
      "midi": 57,
      "hit": false,
      "t": 60705.85199999989,
      "d": 352.9409999999989,
      "v": 64
    },
    {
      "midi": 54,
      "hit": false,
      "t": 61058.79299999989,
      "d": 352.9409999999989,
      "v": 64
    },
    {
      "midi": 47,
      "hit": false,
      "t": 61411.73399999989,
      "d": 352.9409999999989,
      "v": 64
    },
    {
      "midi": 54,
      "hit": false,
      "t": 61764.67499999989,
      "d": 705.8819999999978,
      "v": 64
    },
    {
      "midi": 66,
      "hit": false,
      "t": 62117.61600000003,
      "d": 705.8819999999978,
      "v": 82
    },
    {
      "midi": 57,
      "hit": false,
      "t": 62470.556999999884,
      "d": 705.8819999999978,
      "v": 64
    },
    {
      "midi": 63,
      "hit": false,
      "t": 62823.49800000003,
      "d": 705.8819999999978,
      "v": 82
    },
    {
      "midi": 57,
      "hit": false,
      "t": 63176.43899999988,
      "d": 352.9409999999989,
      "v": 64
    },
    {
      "midi": 40,
      "hit": false,
      "t": 63529.37999999988,
      "d": 352.9409999999989,
      "v": 64
    },
    {
      "midi": 64,
      "hit": false,
      "t": 63529.38000000003,
      "d": 2117.6460000000006,
      "v": 82
    },
    {
      "midi": 54,
      "hit": false,
      "t": 63882.32099999988,
      "d": 352.9409999999989,
      "v": 64
    },
    {
      "midi": 56,
      "hit": false,
      "t": 64235.26199999988,
      "d": 352.9409999999989,
      "v": 64
    },
    {
      "midi": 52,
      "hit": false,
      "t": 64588.20299999988,
      "d": 352.9409999999989,
      "v": 64
    },
    {
      "midi": 56,
      "hit": false,
      "t": 64941.14399999988,
      "d": 352.9409999999989,
      "v": 64
    },
    {
      "midi": 59,
      "hit": false,
      "t": 65294.084999999875,
      "d": 352.94100000000617,
      "v": 64
    },
    {
      "midi": 64,
      "hit": false,
      "t": 65647.02599999988,
      "d": 705.8819999999978,
      "v": 64
    },
    {
      "midi": 71,
      "hit": false,
      "t": 65999.96700000003,
      "d": 352.94100000000617,
      "v": 82
    },
    {
      "midi": 64,
      "hit": false,
      "t": 66352.90800000004,
      "d": 352.94100000000617,
      "v": 82
    },
    {
      "midi": 68,
      "hit": false,
      "t": 66705.84900000005,
      "d": 352.94100000000617,
      "v": 82
    },
    {
      "midi": 71,
      "hit": false,
      "t": 67058.79000000005,
      "d": 352.94100000000617,
      "v": 82
    },
    {
      "midi": 75,
      "hit": false,
      "t": 67411.73100000006,
      "d": 352.94100000000617,
      "v": 82
    },
    {
      "midi": 49,
      "hit": false,
      "t": 67764.67199999987,
      "d": 352.94100000000617,
      "v": 64
    },
    {
      "midi": 76,
      "hit": false,
      "t": 67764.67200000006,
      "d": 2117.6459999999934,
      "v": 82
    },
    {
      "midi": 59,
      "hit": false,
      "t": 68117.61299999988,
      "d": 352.94100000000617,
      "v": 64
    },
    {
      "midi": 64,
      "hit": false,
      "t": 68470.55399999989,
      "d": 352.94100000000617,
      "v": 64
    },
    {
      "midi": 68,
      "hit": false,
      "t": 68823.4949999999,
      "d": 352.94100000000617,
      "v": 64
    },
    {
      "midi": 64,
      "hit": false,
      "t": 69176.4359999999,
      "d": 352.94100000000617,
      "v": 64
    },
    {
      "midi": 59,
      "hit": false,
      "t": 69529.3769999999,
      "d": 352.94100000000617,
      "v": 64
    },
    {
      "midi": 54,
      "hit": false,
      "t": 69882.31799999991,
      "d": 352.94100000000617,
      "v": 64
    },
    {
      "midi": 76,
      "hit": false,
      "t": 69882.31800000006,
      "d": 1411.7639999999956,
      "v": 82
    },
    {
      "midi": 59,
      "hit": false,
      "t": 70235.25899999992,
      "d": 352.94100000000617,
      "v": 64
    },
    {
      "midi": 64,
      "hit": false,
      "t": 70588.19999999992,
      "d": 352.94100000000617,
      "v": 64
    },
    {
      "midi": 68,
      "hit": false,
      "t": 70941.14099999993,
      "d": 352.94100000000617,
      "v": 64
    },
    {
      "midi": 64,
      "hit": false,
      "t": 71294.08199999994,
      "d": 352.94100000000617,
      "v": 64
    },
    {
      "midi": 59,
      "hit": false,
      "t": 71647.02299999994,
      "d": 352.94100000000617,
      "v": 64
    },
    {
      "midi": 75,
      "hit": false,
      "t": 71647.02300000006,
      "d": 176.4704999999958,
      "v": 82
    },
    {
      "midi": 73,
      "hit": false,
      "t": 71823.49350000006,
      "d": 176.4704999999958,
      "v": 82
    },
    {
      "midi": 54,
      "hit": false,
      "t": 71999.96399999995,
      "d": 352.94100000000617,
      "v": 64
    },
    {
      "midi": 73,
      "hit": false,
      "t": 71999.96400000005,
      "d": 352.94100000000617,
      "v": 82
    },
    {
      "midi": 59,
      "hit": false,
      "t": 72352.90499999996,
      "d": 352.94100000000617,
      "v": 64
    },
    {
      "midi": 75,
      "hit": false,
      "t": 72352.90500000006,
      "d": 176.4704999999958,
      "v": 82
    },
    {
      "midi": 76,
      "hit": false,
      "t": 72529.37550000005,
      "d": 176.4704999999958,
      "v": 82
    },
    {
      "midi": 66,
      "hit": false,
      "t": 72705.84599999996,
      "d": 352.94100000000617,
      "v": 64
    },
    {
      "midi": 75,
      "hit": false,
      "t": 72705.84600000005,
      "d": 1411.7639999999956,
      "v": 82
    },
    {
      "midi": 70,
      "hit": false,
      "t": 73058.78699999997,
      "d": 352.94100000000617,
      "v": 64
    },
    {
      "midi": 66,
      "hit": false,
      "t": 73411.72799999997,
      "d": 352.94100000000617,
      "v": 64
    },
    {
      "midi": 59,
      "hit": false,
      "t": 73764.66899999998,
      "d": 352.94100000000617,
      "v": 64
    },
    {
      "midi": 47,
      "hit": false,
      "t": 74117.60999999999,
      "d": 352.94100000000617,
      "v": 64
    },
    {
      "midi": 59,
      "hit": false,
      "t": 74470.55099999999,
      "d": 352.94100000000617,
      "v": 64
    },
    {
      "midi": 63,
      "hit": false,
      "t": 74823.492,
      "d": 352.94100000000617,
      "v": 64
    },
    {
      "midi": 68,
      "hit": false,
      "t": 75176.433,
      "d": 352.94100000000617,
      "v": 64
    },
    {
      "midi": 59,
      "hit": false,
      "t": 75529.37400000001,
      "d": 705.8819999999978,
      "v": 64
    },
    {
      "midi": 73,
      "hit": false,
      "t": 75529.37400000004,
      "d": 352.94100000000617,
      "v": 82
    },
    {
      "midi": 71,
      "hit": false,
      "t": 75882.31500000005,
      "d": 352.94100000000617,
      "v": 82
    },
    {
      "midi": 42,
      "hit": false,
      "t": 76235.25600000001,
      "d": 352.94100000000617,
      "v": 64
    },
    {
      "midi": 69,
      "hit": false,
      "t": 76235.25600000005,
      "d": 2117.6459999999934,
      "v": 82
    },
    {
      "midi": 52,
      "hit": false,
      "t": 76588.19700000001,
      "d": 352.94100000000617,
      "v": 64
    },
    {
      "midi": 57,
      "hit": false,
      "t": 76941.13800000002,
      "d": 352.94100000000617,
      "v": 64
    },
    {
      "midi": 61,
      "hit": false,
      "t": 77294.07900000003,
      "d": 352.94100000000617,
      "v": 64
    },
    {
      "midi": 57,
      "hit": false,
      "t": 77647.02000000003,
      "d": 352.94100000000617,
      "v": 64
    },
    {
      "midi": 52,
      "hit": false,
      "t": 77999.96100000004,
      "d": 352.94100000000617,
      "v": 64
    },
    {
      "midi": 69,
      "hit": false,
      "t": 78352.90200000005,
      "d": 705.8819999999978,
      "v": 82
    },
    {
      "midi": 47,
      "hit": false,
      "t": 78352.90200000005,
      "d": 352.94100000000617,
      "v": 64
    },
    {
      "midi": 54,
      "hit": false,
      "t": 78705.84300000005,
      "d": 352.94100000000617,
      "v": 64
    },
    {
      "midi": 71,
      "hit": false,
      "t": 79058.78400000004,
      "d": 705.8819999999978,
      "v": 82
    },
    {
      "midi": 57,
      "hit": false,
      "t": 79058.78400000006,
      "d": 352.94100000000617,
      "v": 64
    },
    {
      "midi": 63,
      "hit": false,
      "t": 79411.72500000006,
      "d": 352.94100000000617,
      "v": 64
    },
    {
      "midi": 66,
      "hit": false,
      "t": 79764.66600000004,
      "d": 705.8819999999978,
      "v": 82
    },
    {
      "midi": 57,
      "hit": false,
      "t": 79764.66600000007,
      "d": 352.94100000000617,
      "v": 64
    },
    {
      "midi": 54,
      "hit": false,
      "t": 80117.60700000008,
      "d": 352.94100000000617,
      "v": 64
    },
    {
      "midi": 68,
      "hit": false,
      "t": 80470.54800000004,
      "d": 2117.6459999999934,
      "v": 82
    },
    {
      "midi": 40,
      "hit": false,
      "t": 80470.54800000008,
      "d": 352.94100000000617,
      "v": 64
    },
    {
      "midi": 52,
      "hit": false,
      "t": 80823.48900000009,
      "d": 352.94100000000617,
      "v": 64
    },
    {
      "midi": 59,
      "hit": false,
      "t": 81176.4300000001,
      "d": 352.94100000000617,
      "v": 64
    },
    {
      "midi": 63,
      "hit": false,
      "t": 81529.3710000001,
      "d": 352.94100000000617,
      "v": 64
    },
    {
      "midi": 59,
      "hit": false,
      "t": 81882.3120000001,
      "d": 352.94100000000617,
      "v": 64
    },
    {
      "midi": 52,
      "hit": false,
      "t": 82235.25300000011,
      "d": 352.94100000000617,
      "v": 64
    },
    {
      "midi": 40,
      "hit": false,
      "t": 82588.19400000012,
      "d": 352.94100000000617,
      "v": 64
    },
    {
      "midi": 52,
      "hit": false,
      "t": 82941.13500000013,
      "d": 352.94100000000617,
      "v": 64
    },
    {
      "midi": 59,
      "hit": false,
      "t": 83294.07600000013,
      "d": 352.94100000000617,
      "v": 64
    },
    {
      "midi": 62,
      "hit": false,
      "t": 83647.01700000014,
      "d": 1058.823000000004,
      "v": 64
    },
    {
      "midi": 64,
      "hit": false,
      "t": 83999.95800000003,
      "d": 352.94100000000617,
      "v": 82
    },
    {
      "midi": 66,
      "hit": false,
      "t": 84352.89900000003,
      "d": 352.94100000000617,
      "v": 82
    },
    {
      "midi": 68,
      "hit": false,
      "t": 84705.84000000004,
      "d": 2117.6459999999934,
      "v": 82
    },
    {
      "midi": 45,
      "hit": false,
      "t": 84705.84000000014,
      "d": 352.94100000000617,
      "v": 64
    },
    {
      "midi": 52,
      "hit": false,
      "t": 85058.78100000015,
      "d": 352.94100000000617,
      "v": 64
    },
    {
      "midi": 57,
      "hit": false,
      "t": 85411.72200000015,
      "d": 352.94100000000617,
      "v": 64
    },
    {
      "midi": 61,
      "hit": false,
      "t": 85764.66300000016,
      "d": 352.94100000000617,
      "v": 64
    },
    {
      "midi": 57,
      "hit": false,
      "t": 86117.60400000017,
      "d": 352.94100000000617,
      "v": 64
    },
    {
      "midi": 52,
      "hit": false,
      "t": 86470.54500000017,
      "d": 352.94100000000617,
      "v": 64
    },
    {
      "midi": 69,
      "hit": false,
      "t": 86823.48600000003,
      "d": 2117.6459999999934,
      "v": 82
    },
    {
      "midi": 50,
      "hit": false,
      "t": 86823.48600000018,
      "d": 352.94100000000617,
      "v": 64
    },
    {
      "midi": 57,
      "hit": false,
      "t": 87176.42700000019,
      "d": 352.94100000000617,
      "v": 64
    },
    {
      "midi": 61,
      "hit": false,
      "t": 87529.36800000019,
      "d": 352.94100000000617,
      "v": 64
    },
    {
      "midi": 66,
      "hit": false,
      "t": 87882.3090000002,
      "d": 352.94100000000617,
      "v": 64
    },
    {
      "midi": 61,
      "hit": false,
      "t": 88235.2500000002,
      "d": 352.94100000000617,
      "v": 64
    },
    {
      "midi": 57,
      "hit": false,
      "t": 88588.19100000021,
      "d": 352.94100000000617,
      "v": 64
    },
    {
      "midi": 70,
      "hit": false,
      "t": 88941.13200000003,
      "d": 2117.6459999999934,
      "v": 82
    },
    {
      "midi": 52,
      "hit": false,
      "t": 88941.13200000022,
      "d": 352.94100000000617,
      "v": 64
    },
    {
      "midi": 58,
      "hit": false,
      "t": 89294.07300000022,
      "d": 352.94100000000617,
      "v": 64
    },
    {
      "midi": 61,
      "hit": false,
      "t": 89647.01400000023,
      "d": 352.94100000000617,
      "v": 64
    },
    {
      "midi": 66,
      "hit": false,
      "t": 89999.95500000023,
      "d": 352.94100000000617,
      "v": 64
    },
    {
      "midi": 61,
      "hit": false,
      "t": 90352.89600000024,
      "d": 352.94100000000617,
      "v": 64
    },
    {
      "midi": 58,
      "hit": false,
      "t": 90705.83700000025,
      "d": 352.94100000000617,
      "v": 64
    },
    {
      "midi": 71,
      "hit": false,
      "t": 91058.77800000002,
      "d": 2117.6459999999934,
      "v": 82
    },
    {
      "midi": 51,
      "hit": false,
      "t": 91058.77800000025,
      "d": 352.94100000000617,
      "v": 64
    },
    {
      "midi": 59,
      "hit": false,
      "t": 91411.71900000026,
      "d": 352.94100000000617,
      "v": 64
    },
    {
      "midi": 63,
      "hit": false,
      "t": 91764.66000000027,
      "d": 352.94100000000617,
      "v": 64
    },
    {
      "midi": 66,
      "hit": false,
      "t": 92117.60100000027,
      "d": 352.94100000000617,
      "v": 64
    },
    {
      "midi": 63,
      "hit": false,
      "t": 92470.54200000028,
      "d": 352.94100000000617,
      "v": 64
    },
    {
      "midi": 59,
      "hit": false,
      "t": 92823.48300000028,
      "d": 352.94100000000617,
      "v": 64
    },
    {
      "midi": 71,
      "hit": false,
      "t": 93176.42400000001,
      "d": 2117.6459999999934,
      "v": 82
    },
    {
      "midi": 50,
      "hit": false,
      "t": 93176.42400000029,
      "d": 352.94100000000617,
      "v": 64
    },
    {
      "midi": 59,
      "hit": false,
      "t": 93529.3650000003,
      "d": 352.94100000000617,
      "v": 64
    },
    {
      "midi": 62,
      "hit": false,
      "t": 93882.3060000003,
      "d": 352.94100000000617,
      "v": 64
    },
    {
      "midi": 66,
      "hit": false,
      "t": 94235.24700000031,
      "d": 352.94100000000617,
      "v": 64
    },
    {
      "midi": 62,
      "hit": false,
      "t": 94588.18800000031,
      "d": 352.94100000000617,
      "v": 64
    },
    {
      "midi": 59,
      "hit": false,
      "t": 94941.12900000032,
      "d": 352.94100000000617,
      "v": 64
    },
    {
      "midi": 48,
      "hit": false,
      "t": 95294.07000000033,
      "d": 352.94100000000617,
      "v": 64
    },
    {
      "midi": 55,
      "hit": false,
      "t": 95647.01100000033,
      "d": 352.94100000000617,
      "v": 64
    },
    {
      "midi": 59,
      "hit": false,
      "t": 95999.95200000034,
      "d": 352.94100000000617,
      "v": 64
    },
    {
      "midi": 64,
      "hit": false,
      "t": 96352.89300000035,
      "d": 352.94100000000617,
      "v": 64
    },
    {
      "midi": 59,
      "hit": false,
      "t": 96705.83400000035,
      "d": 352.94100000000617,
      "v": 64
    },
    {
      "midi": 55,
      "hit": false,
      "t": 97058.77500000036,
      "d": 352.94100000000617,
      "v": 64
    },
    {
      "midi": 76,
      "hit": false,
      "t": 97411.716,
      "d": 176.4704999999958,
      "v": 82
    },
    {
      "midi": 47,
      "hit": false,
      "t": 97411.71600000036,
      "d": 2117.6459999999934,
      "v": 64
    },
    {
      "midi": 57,
      "hit": false,
      "t": 97411.71600000036,
      "d": 2117.6459999999934,
      "v": 64
    },
    {
      "midi": 60,
      "hit": false,
      "t": 97411.71600000036,
      "d": 2117.6459999999934,
      "v": 64
    },
    {
      "midi": 64,
      "hit": false,
      "t": 97411.71600000036,
      "d": 2117.6459999999934,
      "v": 64
    },
    {
      "midi": 76,
      "hit": false,
      "t": 97411.71600000036,
      "d": 2117.6459999999934,
      "v": 64
    },
    {
      "midi": 60,
      "hit": false,
      "t": 97764.65699999999,
      "d": 352.94100000000617,
      "v": 82
    },
    {
      "midi": 60,
      "hit": false,
      "t": 98117.598,
      "d": 352.94100000000617,
      "v": 82
    },
    {
      "midi": 62,
      "hit": false,
      "t": 98470.539,
      "d": 352.94100000000617,
      "v": 82
    },
    {
      "midi": 62,
      "hit": false,
      "t": 98823.48000000001,
      "d": 352.94100000000617,
      "v": 82
    },
    {
      "midi": 59,
      "hit": false,
      "t": 99176.42100000002,
      "d": 352.94100000000617,
      "v": 82
    },
    {
      "midi": 59,
      "hit": false,
      "t": 99529.36200000002,
      "d": 352.94100000000617,
      "v": 82
    },
    {
      "midi": 60,
      "hit": false,
      "t": 99882.30300000003,
      "d": 352.94100000000617,
      "v": 82
    },
    {
      "midi": 60,
      "hit": false,
      "t": 100235.24400000004,
      "d": 352.94100000000617,
      "v": 82
    },
    {
      "midi": 57,
      "hit": false,
      "t": 100588.18500000004,
      "d": 352.94100000000617,
      "v": 82
    },
    {
      "midi": 59,
      "hit": false,
      "t": 100941.12600000005,
      "d": 352.94100000000617,
      "v": 82
    },
    {
      "midi": 60,
      "hit": false,
      "t": 101294.06700000005,
      "d": 352.94100000000617,
      "v": 82
    },
    {
      "midi": 64,
      "hit": false,
      "t": 101647.00800000006,
      "d": 2117.6459999999934,
      "v": 82
    },
    {
      "midi": 64,
      "hit": false,
      "t": 101647.00800000035,
      "d": 352.94100000000617,
      "v": 64
    },
    {
      "midi": 60,
      "hit": false,
      "t": 101999.94900000036,
      "d": 352.94100000000617,
      "v": 64
    },
    {
      "midi": 60,
      "hit": false,
      "t": 102352.89000000036,
      "d": 352.94100000000617,
      "v": 64
    },
    {
      "midi": 62,
      "hit": false,
      "t": 102705.83100000037,
      "d": 352.94100000000617,
      "v": 64
    },
    {
      "midi": 62,
      "hit": false,
      "t": 103058.77200000038,
      "d": 352.94100000000617,
      "v": 64
    },
    {
      "midi": 59,
      "hit": false,
      "t": 103411.71300000038,
      "d": 352.94100000000617,
      "v": 64
    },
    {
      "midi": 59,
      "hit": false,
      "t": 103764.65400000039,
      "d": 352.94100000000617,
      "v": 64
    },
    {
      "midi": 60,
      "hit": false,
      "t": 104117.5950000004,
      "d": 352.94100000000617,
      "v": 64
    },
    {
      "midi": 57,
      "hit": false,
      "t": 104470.5360000004,
      "d": 352.94100000000617,
      "v": 64
    },
    {
      "midi": 54,
      "hit": false,
      "t": 104823.4770000004,
      "d": 352.94100000000617,
      "v": 64
    },
    {
      "midi": 52,
      "hit": false,
      "t": 105176.41800000041,
      "d": 352.94100000000617,
      "v": 64
    },
    {
      "midi": 48,
      "hit": false,
      "t": 105529.35900000042,
      "d": 352.94100000000617,
      "v": 64
    },
    {
      "midi": 47,
      "hit": false,
      "t": 105882.30000000042,
      "d": 352.94100000000617,
      "v": 64
    },
    {
      "midi": 45,
      "hit": false,
      "t": 106235.24100000043,
      "d": 352.94100000000617,
      "v": 64
    },
    {
      "midi": 43,
      "hit": false,
      "t": 106588.18200000044,
      "d": 352.94100000000617,
      "v": 64
    },
    {
      "midi": 42,
      "hit": false,
      "t": 106941.12300000044,
      "d": 352.94100000000617,
      "v": 64
    },
    {
      "midi": 43,
      "hit": false,
      "t": 107294.06400000045,
      "d": 352.94100000000617,
      "v": 64
    },
    {
      "midi": 45,
      "hit": false,
      "t": 107647.00500000046,
      "d": 352.94100000000617,
      "v": 64
    },
    {
      "midi": 46,
      "hit": false,
      "t": 107999.94600000046,
      "d": 352.94100000000617,
      "v": 82
    },
    {
      "midi": 52,
      "hit": false,
      "t": 108352.88700000047,
      "d": 352.94100000000617,
      "v": 64
    },
    {
      "midi": 61,
      "hit": false,
      "t": 108705.82800000047,
      "d": 352.94100000000617,
      "v": 64
    },
    {
      "midi": 66,
      "hit": false,
      "t": 109058.76900000048,
      "d": 352.94100000000617,
      "v": 64
    },
    {
      "midi": 61,
      "hit": false,
      "t": 109411.71000000049,
      "d": 352.94100000000617,
      "v": 64
    },
    {
      "midi": 52,
      "hit": false,
      "t": 109764.6510000005,
      "d": 352.94100000000617,
      "v": 64
    },
    {
      "midi": 47,
      "hit": false,
      "t": 110117.5920000005,
      "d": 352.94100000000617,
      "v": 82
    },
    {
      "midi": 54,
      "hit": false,
      "t": 110470.5330000005,
      "d": 352.94100000000617,
      "v": 64
    },
    {
      "midi": 62,
      "hit": false,
      "t": 110823.47400000005,
      "d": 705.8819999999978,
      "v": 82
    },
    {
      "midi": 62,
      "hit": false,
      "t": 110823.47400000051,
      "d": 352.94100000000617,
      "v": 64
    },
    {
      "midi": 54,
      "hit": false,
      "t": 111176.41500000052,
      "d": 352.94100000000617,
      "v": 82
    },
    {
      "midi": 59,
      "hit": false,
      "t": 111529.35600000004,
      "d": 352.94100000000617,
      "v": 82
    },
    {
      "midi": 61,
      "hit": false,
      "t": 111882.29700000005,
      "d": 352.94100000000617,
      "v": 82
    },
    {
      "midi": 62,
      "hit": false,
      "t": 112235.23800000006,
      "d": 2117.6459999999934,
      "v": 82
    },
    {
      "midi": 44,
      "hit": false,
      "t": 112235.23800000052,
      "d": 352.94100000000617,
      "v": 64
    },
    {
      "midi": 53,
      "hit": false,
      "t": 112588.17900000053,
      "d": 352.94100000000617,
      "v": 64
    },
    {
      "midi": 58,
      "hit": false,
      "t": 112941.12000000053,
      "d": 352.94100000000617,
      "v": 64
    },
    {
      "midi": 62,
      "hit": false,
      "t": 113294.06100000054,
      "d": 352.94100000000617,
      "v": 64
    },
    {
      "midi": 58,
      "hit": false,
      "t": 113647.00200000055,
      "d": 352.94100000000617,
      "v": 64
    },
    {
      "midi": 53,
      "hit": false,
      "t": 113999.94300000055,
      "d": 352.94100000000617,
      "v": 64
    },
    {
      "midi": 65,
      "hit": false,
      "t": 114352.88400000005,
      "d": 705.8819999999978,
      "v": 82
    },
    {
      "midi": 42,
      "hit": false,
      "t": 114352.88400000056,
      "d": 352.94100000000617,
      "v": 64
    },
    {
      "midi": 46,
      "hit": false,
      "t": 114705.82500000056,
      "d": 352.94100000000617,
      "v": 64
    },
    {
      "midi": 63,
      "hit": false,
      "t": 115058.76600000005,
      "d": 352.94100000000617,
      "v": 82
    },
    {
      "midi": 51,
      "hit": false,
      "t": 115058.76600000057,
      "d": 1411.7639999999956,
      "v": 64
    },
    {
      "midi": 58,
      "hit": false,
      "t": 115411.70700000005,
      "d": 352.94100000000617,
      "v": 82
    },
    {
      "midi": 63,
      "hit": false,
      "t": 115764.64800000006,
      "d": 352.94100000000617,
      "v": 82
    },
    {
      "midi": 65,
      "hit": false,
      "t": 116117.58900000007,
      "d": 352.94100000000617,
      "v": 82
    },
    {
      "midi": 67,
      "hit": false,
      "t": 116470.53000000007,
      "d": 2117.6459999999934,
      "v": 82
    },
    {
      "midi": 49,
      "hit": false,
      "t": 116470.53000000057,
      "d": 352.94100000000617,
      "v": 64
    },
    {
      "midi": 58,
      "hit": false,
      "t": 116823.47100000057,
      "d": 352.94100000000617,
      "v": 64
    },
    {
      "midi": 63,
      "hit": false,
      "t": 117176.41200000058,
      "d": 352.94100000000617,
      "v": 64
    },
    {
      "midi": 67,
      "hit": false,
      "t": 117529.35300000058,
      "d": 352.94100000000617,
      "v": 64
    },
    {
      "midi": 63,
      "hit": false,
      "t": 117882.29400000059,
      "d": 352.94100000000617,
      "v": 64
    },
    {
      "midi": 58,
      "hit": false,
      "t": 118235.2350000006,
      "d": 352.94100000000617,
      "v": 64
    },
    {
      "midi": 70,
      "hit": false,
      "t": 118588.17600000006,
      "d": 705.8819999999978,
      "v": 82
    },
    {
      "midi": 47,
      "hit": false,
      "t": 118588.1760000006,
      "d": 352.94100000000617,
      "v": 64
    },
    {
      "midi": 51,
      "hit": false,
      "t": 118941.11700000061,
      "d": 352.94100000000617,
      "v": 64
    },
    {
      "midi": 68,
      "hit": false,
      "t": 119294.05800000006,
      "d": 352.94100000000617,
      "v": 82
    },
    {
      "midi": 56,
      "hit": false,
      "t": 119294.05800000062,
      "d": 1411.7639999999956,
      "v": 64
    },
    {
      "midi": 63,
      "hit": false,
      "t": 119646.99900000007,
      "d": 352.94100000000617,
      "v": 82
    },
    {
      "midi": 68,
      "hit": false,
      "t": 119999.94000000008,
      "d": 352.94100000000617,
      "v": 82
    },
    {
      "midi": 70,
      "hit": false,
      "t": 120352.88100000008,
      "d": 352.94100000000617,
      "v": 82
    },
    {
      "midi": 71,
      "hit": false,
      "t": 120705.82200000009,
      "d": 2117.6459999999934,
      "v": 82
    },
    {
      "midi": 44,
      "hit": false,
      "t": 120705.82200000061,
      "d": 352.94100000000617,
      "v": 64
    },
    {
      "midi": 52,
      "hit": false,
      "t": 121058.76300000062,
      "d": 352.94100000000617,
      "v": 64
    },
    {
      "midi": 59,
      "hit": false,
      "t": 121411.70400000062,
      "d": 352.94100000000617,
      "v": 64
    },
    {
      "midi": 64,
      "hit": false,
      "t": 121764.64500000063,
      "d": 352.94100000000617,
      "v": 64
    },
    {
      "midi": 59,
      "hit": false,
      "t": 122117.58600000064,
      "d": 352.94100000000617,
      "v": 64
    },
    {
      "midi": 52,
      "hit": false,
      "t": 122470.52700000064,
      "d": 352.94100000000617,
      "v": 64
    },
    {
      "midi": 44,
      "hit": false,
      "t": 122823.46800000065,
      "d": 352.94100000000617,
      "v": 64
    },
    {
      "midi": 52,
      "hit": false,
      "t": 123176.40900000065,
      "d": 352.94100000000617,
      "v": 64
    },
    {
      "midi": 59,
      "hit": false,
      "t": 123529.35000000066,
      "d": 352.94100000000617,
      "v": 64
    },
    {
      "midi": 64,
      "hit": false,
      "t": 123882.29100000067,
      "d": 352.94100000000617,
      "v": 64
    },
    {
      "midi": 59,
      "hit": false,
      "t": 124235.23200000067,
      "d": 352.94100000000617,
      "v": 64
    },
    {
      "midi": 61,
      "hit": false,
      "t": 124588.17300000008,
      "d": 352.94100000000617,
      "v": 82
    },
    {
      "midi": 59,
      "hit": false,
      "t": 124941.11400000009,
      "d": 2117.6459999999934,
      "v": 82
    },
    {
      "midi": 42,
      "hit": false,
      "t": 124941.11400000069,
      "d": 352.94100000000617,
      "v": 64
    },
    {
      "midi": 47,
      "hit": false,
      "t": 125294.05500000069,
      "d": 352.94100000000617,
      "v": 64
    },
    {
      "midi": 51,
      "hit": false,
      "t": 125646.9960000007,
      "d": 352.94100000000617,
      "v": 64
    },
    {
      "midi": 57,
      "hit": false,
      "t": 125999.9370000007,
      "d": 352.94100000000617,
      "v": 64
    },
    {
      "midi": 51,
      "hit": false,
      "t": 126352.87800000071,
      "d": 352.94100000000617,
      "v": 64
    },
    {
      "midi": 47,
      "hit": false,
      "t": 126705.81900000072,
      "d": 352.94100000000617,
      "v": 64
    },
    {
      "midi": 42,
      "hit": false,
      "t": 127058.76000000072,
      "d": 352.94100000000617,
      "v": 64
    },
    {
      "midi": 47,
      "hit": false,
      "t": 127411.70100000073,
      "d": 352.94100000000617,
      "v": 64
    },
    {
      "midi": 51,
      "hit": false,
      "t": 127764.64200000073,
      "d": 352.94100000000617,
      "v": 64
    },
    {
      "midi": 57,
      "hit": false,
      "t": 128117.58300000074,
      "d": 352.94100000000617,
      "v": 64
    },
    {
      "midi": 51,
      "hit": false,
      "t": 128470.52400000075,
      "d": 705.8819999999978,
      "v": 64
    },
    {
      "midi": 61,
      "hit": false,
      "t": 128823.46500000008,
      "d": 352.94100000000617,
      "v": 82
    },
    {
      "midi": 59,
      "hit": false,
      "t": 129176.40600000009,
      "d": 2117.6459999999934,
      "v": 82
    },
    {
      "midi": 40,
      "hit": false,
      "t": 129176.40600000074,
      "d": 352.94100000000617,
      "v": 64
    },
    {
      "midi": 47,
      "hit": false,
      "t": 129529.34700000075,
      "d": 352.94100000000617,
      "v": 64
    },
    {
      "midi": 50,
      "hit": false,
      "t": 129882.28800000076,
      "d": 352.94100000000617,
      "v": 64
    },
    {
      "midi": 56,
      "hit": false,
      "t": 130235.22900000076,
      "d": 352.94100000000617,
      "v": 64
    },
    {
      "midi": 50,
      "hit": false,
      "t": 130588.17000000077,
      "d": 352.94100000000617,
      "v": 64
    },
    {
      "midi": 47,
      "hit": false,
      "t": 130941.11100000078,
      "d": 352.94100000000617,
      "v": 64
    },
    {
      "midi": 45,
      "hit": false,
      "t": 131294.05200000078,
      "d": 2117.646000000008,
      "v": 64
    },
    {
      "midi": 64,
      "hit": false,
      "t": 131646.99300000007,
      "d": 352.9409999999916,
      "v": 82
    },
    {
      "midi": 73,
      "hit": false,
      "t": 131646.99300000007,
      "d": 352.9409999999916,
      "v": 82
    },
    {
      "midi": 61,
      "hit": false,
      "t": 131999.93400000007,
      "d": 352.9409999999916,
      "v": 82
    },
    {
      "midi": 69,
      "hit": false,
      "t": 131999.93400000007,
      "d": 352.9409999999916,
      "v": 82
    },
    {
      "midi": 68,
      "hit": false,
      "t": 132352.87500000006,
      "d": 352.9409999999916,
      "v": 82
    },
    {
      "midi": 66,
      "hit": false,
      "t": 132705.81600000005,
      "d": 352.9409999999916,
      "v": 82
    },
    {
      "midi": 64,
      "hit": false,
      "t": 133058.75700000004,
      "d": 352.9409999999916,
      "v": 82
    },
    {
      "midi": 64,
      "hit": false,
      "t": 133411.69800000003,
      "d": 2117.646000000008,
      "v": 82
    },
    {
      "midi": 42,
      "hit": false,
      "t": 133411.6980000008,
      "d": 352.9409999999916,
      "v": 64
    },
    {
      "midi": 49,
      "hit": false,
      "t": 133764.63900000078,
      "d": 352.9409999999916,
      "v": 64
    },
    {
      "midi": 52,
      "hit": false,
      "t": 134117.58000000077,
      "d": 352.9409999999916,
      "v": 64
    },
    {
      "midi": 57,
      "hit": false,
      "t": 134470.52100000076,
      "d": 352.9409999999916,
      "v": 64
    },
    {
      "midi": 52,
      "hit": false,
      "t": 134823.46200000076,
      "d": 352.9409999999916,
      "v": 64
    },
    {
      "midi": 49,
      "hit": false,
      "t": 135176.40300000075,
      "d": 352.9409999999916,
      "v": 64
    },
    {
      "midi": 47,
      "hit": false,
      "t": 135529.34400000074,
      "d": 352.9409999999916,
      "v": 64
    },
    {
      "midi": 54,
      "hit": false,
      "t": 135882.28500000073,
      "d": 705.8820000000123,
      "v": 64
    },
    {
      "midi": 66,
      "hit": false,
      "t": 136235.22600000005,
      "d": 705.8820000000123,
      "v": 82
    },
    {
      "midi": 57,
      "hit": false,
      "t": 136588.16700000074,
      "d": 705.8820000000123,
      "v": 64
    },
    {
      "midi": 63,
      "hit": false,
      "t": 136941.10800000007,
      "d": 705.8820000000123,
      "v": 82
    },
    {
      "midi": 57,
      "hit": false,
      "t": 137294.04900000076,
      "d": 352.9409999999916,
      "v": 64
    },
    {
      "midi": 64,
      "hit": false,
      "t": 137646.99000000008,
      "d": 2117.646000000008,
      "v": 82
    },
    {
      "midi": 40,
      "hit": false,
      "t": 137646.99000000075,
      "d": 352.9409999999916,
      "v": 64
    },
    {
      "midi": 57,
      "hit": false,
      "t": 137646.99000000075,
      "d": 352.9409999999916,
      "v": 64
    },
    {
      "midi": 54,
      "hit": false,
      "t": 137999.93100000074,
      "d": 352.9409999999916,
      "v": 64
    },
    {
      "midi": 56,
      "hit": false,
      "t": 138352.87200000073,
      "d": 352.9409999999916,
      "v": 64
    },
    {
      "midi": 51,
      "hit": false,
      "t": 138705.81300000072,
      "d": 352.9409999999916,
      "v": 64
    },
    {
      "midi": 52,
      "hit": false,
      "t": 139058.7540000007,
      "d": 352.9409999999916,
      "v": 64
    },
    {
      "midi": 56,
      "hit": false,
      "t": 139411.6950000007,
      "d": 352.9409999999916,
      "v": 64
    },
    {
      "midi": 59,
      "hit": false,
      "t": 139764.6360000007,
      "d": 2117.646000000008,
      "v": 64
    },
    {
      "midi": 68,
      "hit": false,
      "t": 140117.57700000008,
      "d": 352.9409999999916,
      "v": 82
    },
    {
      "midi": 71,
      "hit": false,
      "t": 140470.51800000007,
      "d": 352.9409999999916,
      "v": 82
    },
    {
      "midi": 64,
      "hit": false,
      "t": 140823.45900000006,
      "d": 352.9409999999916,
      "v": 82
    },
    {
      "midi": 68,
      "hit": false,
      "t": 141176.40000000005,
      "d": 352.9409999999916,
      "v": 82
    },
    {
      "midi": 69,
      "hit": false,
      "t": 141529.34100000004,
      "d": 352.9409999999916,
      "v": 82
    },
    {
      "midi": 71,
      "hit": false,
      "t": 141882.28200000004,
      "d": 2117.646000000008,
      "v": 82
    },
    {
      "midi": 40,
      "hit": false,
      "t": 141882.2820000007,
      "d": 352.9409999999916,
      "v": 64
    },
    {
      "midi": 56,
      "hit": false,
      "t": 142235.2230000007,
      "d": 352.9409999999916,
      "v": 64
    },
    {
      "midi": 59,
      "hit": false,
      "t": 142588.1640000007,
      "d": 352.9409999999916,
      "v": 64
    },
    {
      "midi": 64,
      "hit": false,
      "t": 142941.10500000068,
      "d": 352.9409999999916,
      "v": 64
    },
    {
      "midi": 59,
      "hit": false,
      "t": 143294.04600000067,
      "d": 352.9409999999916,
      "v": 64
    },
    {
      "midi": 56,
      "hit": false,
      "t": 143646.98700000066,
      "d": 352.9409999999916,
      "v": 64
    },
    {
      "midi": 71,
      "hit": false,
      "t": 143999.92800000004,
      "d": 2117.646000000008,
      "v": 82
    },
    {
      "midi": 51,
      "hit": false,
      "t": 143999.92800000065,
      "d": 352.9409999999916,
      "v": 64
    },
    {
      "midi": 59,
      "hit": false,
      "t": 144352.86900000065,
      "d": 352.9409999999916,
      "v": 64
    },
    {
      "midi": 63,
      "hit": false,
      "t": 144705.81000000064,
      "d": 352.9409999999916,
      "v": 64
    },
    {
      "midi": 68,
      "hit": false,
      "t": 145058.75100000063,
      "d": 352.9409999999916,
      "v": 64
    },
    {
      "midi": 63,
      "hit": false,
      "t": 145411.69200000062,
      "d": 352.9409999999916,
      "v": 64
    },
    {
      "midi": 59,
      "hit": false,
      "t": 145764.6330000006,
      "d": 352.9409999999916,
      "v": 64
    },
    {
      "midi": 69,
      "hit": false,
      "t": 146117.57400000005,
      "d": 176.4704999999958,
      "v": 82
    },
    {
      "midi": 49,
      "hit": false,
      "t": 146117.5740000006,
      "d": 352.9409999999916,
      "v": 64
    },
    {
      "midi": 71,
      "hit": false,
      "t": 146294.04450000005,
      "d": 176.4704999999958,
      "v": 82
    },
    {
      "midi": 73,
      "hit": false,
      "t": 146470.51500000004,
      "d": 1764.7049999999872,
      "v": 82
    },
    {
      "midi": 61,
      "hit": false,
      "t": 146470.5150000006,
      "d": 352.9409999999916,
      "v": 64
    },
    {
      "midi": 64,
      "hit": false,
      "t": 146823.4560000006,
      "d": 352.9409999999916,
      "v": 64
    },
    {
      "midi": 69,
      "hit": false,
      "t": 147176.39700000058,
      "d": 352.9409999999916,
      "v": 64
    },
    {
      "midi": 64,
      "hit": false,
      "t": 147529.33800000057,
      "d": 352.9409999999916,
      "v": 64
    },
    {
      "midi": 61,
      "hit": false,
      "t": 147882.27900000056,
      "d": 352.9409999999916,
      "v": 64
    },
    {
      "midi": 54,
      "hit": false,
      "t": 148235.22000000055,
      "d": 352.9409999999916,
      "v": 64
    },
    {
      "midi": 61,
      "hit": false,
      "t": 148588.16100000055,
      "d": 352.9409999999916,
      "v": 64
    },
    {
      "midi": 64,
      "hit": false,
      "t": 148941.10200000054,
      "d": 352.9409999999916,
      "v": 64
    },
    {
      "midi": 69,
      "hit": false,
      "t": 149294.04300000053,
      "d": 352.9409999999916,
      "v": 64
    },
    {
      "midi": 64,
      "hit": false,
      "t": 149646.98400000052,
      "d": 352.9409999999916,
      "v": 64
    },
    {
      "midi": 61,
      "hit": false,
      "t": 149999.9250000005,
      "d": 352.9409999999916,
      "v": 64
    },
    {
      "midi": 69,
      "hit": false,
      "t": 150352.86600000004,
      "d": 176.4704999999958,
      "v": 82
    },
    {
      "midi": 47,
      "hit": false,
      "t": 150352.8660000005,
      "d": 352.9409999999916,
      "v": 64
    },
    {
      "midi": 71,
      "hit": false,
      "t": 150529.33650000003,
      "d": 176.4704999999958,
      "v": 82
    },
    {
      "midi": 73,
      "hit": false,
      "t": 150705.80700000003,
      "d": 1411.7639999999956,
      "v": 82
    },
    {
      "midi": 57,
      "hit": false,
      "t": 150705.8070000005,
      "d": 352.9409999999916,
      "v": 64
    },
    {
      "midi": 64,
      "hit": false,
      "t": 151058.7480000005,
      "d": 352.9409999999916,
      "v": 64
    },
    {
      "midi": 69,
      "hit": false,
      "t": 151411.68900000048,
      "d": 352.9409999999916,
      "v": 64
    },
    {
      "midi": 64,
      "hit": false,
      "t": 151764.63000000047,
      "d": 352.9409999999916,
      "v": 64
    },
    {
      "midi": 57,
      "hit": false,
      "t": 152117.57100000046,
      "d": 352.9409999999916,
      "v": 64
    },
    {
      "midi": 47,
      "hit": false,
      "t": 152470.51200000045,
      "d": 352.9409999999916,
      "v": 64
    },
    {
      "midi": 54,
      "hit": false,
      "t": 152823.45300000045,
      "d": 352.9409999999916,
      "v": 64
    },
    {
      "midi": 57,
      "hit": false,
      "t": 153176.39400000044,
      "d": 352.9409999999916,
      "v": 64
    },
    {
      "midi": 63,
      "hit": false,
      "t": 153529.33500000043,
      "d": 352.9409999999916,
      "v": 64
    },
    {
      "midi": 57,
      "hit": false,
      "t": 153882.27600000042,
      "d": 705.8820000000123,
      "v": 64
    },
    {
      "midi": 71,
      "hit": false,
      "t": 154235.21700000003,
      "d": 176.4704999999958,
      "v": 82
    },
    {
      "midi": 69,
      "hit": false,
      "t": 154411.68750000003,
      "d": 176.4704999999958,
      "v": 82
    },
    {
      "midi": 71,
      "hit": false,
      "t": 154588.15800000002,
      "d": 2117.646000000008,
      "v": 82
    },
    {
      "midi": 40,
      "hit": false,
      "t": 154588.15800000043,
      "d": 352.9409999999916,
      "v": 64
    },
    {
      "midi": 59,
      "hit": false,
      "t": 154941.09900000042,
      "d": 352.9409999999916,
      "v": 64
    },
    {
      "midi": 63,
      "hit": false,
      "t": 155294.04000000042,
      "d": 352.9409999999916,
      "v": 64
    },
    {
      "midi": 68,
      "hit": false,
      "t": 155646.9810000004,
      "d": 352.9409999999916,
      "v": 64
    },
    {
      "midi": 63,
      "hit": false,
      "t": 155999.9220000004,
      "d": 352.9409999999916,
      "v": 64
    },
    {
      "midi": 59,
      "hit": false,
      "t": 156352.8630000004,
      "d": 352.9409999999916,
      "v": 64
    },
    {
      "midi": 40,
      "hit": false,
      "t": 156705.80400000038,
      "d": 352.9409999999916,
      "v": 64
    },
    {
      "midi": 56,
      "hit": false,
      "t": 157058.74500000037,
      "d": 352.9409999999916,
      "v": 64
    },
    {
      "midi": 59,
      "hit": false,
      "t": 157411.68600000037,
      "d": 352.9409999999916,
      "v": 64
    },
    {
      "midi": 62,
      "hit": false,
      "t": 157764.62700000036,
      "d": 352.9409999999916,
      "v": 64
    },
    {
      "midi": 59,
      "hit": false,
      "t": 158117.56800000035,
      "d": 705.8820000000123,
      "v": 64
    },
    {
      "midi": 69,
      "hit": false,
      "t": 158470.50900000002,
      "d": 176.4704999999958,
      "v": 82
    },
    {
      "midi": 68,
      "hit": false,
      "t": 158646.97950000002,
      "d": 176.4704999999958,
      "v": 82
    },
    {
      "midi": 68,
      "hit": false,
      "t": 158823.45,
      "d": 2117.646000000008,
      "v": 82
    },
    {
      "midi": 45,
      "hit": false,
      "t": 158823.45000000036,
      "d": 352.9409999999916,
      "v": 64
    },
    {
      "midi": 52,
      "hit": false,
      "t": 159176.39100000035,
      "d": 352.9409999999916,
      "v": 64
    },
    {
      "midi": 57,
      "hit": false,
      "t": 159529.33200000034,
      "d": 352.9409999999916,
      "v": 64
    },
    {
      "midi": 61,
      "hit": false,
      "t": 159882.27300000034,
      "d": 352.9409999999916,
      "v": 64
    },
    {
      "midi": 57,
      "hit": false,
      "t": 160235.21400000033,
      "d": 352.9409999999916,
      "v": 64
    },
    {
      "midi": 52,
      "hit": false,
      "t": 160588.15500000032,
      "d": 352.9409999999916,
      "v": 64
    },
    {
      "midi": 66,
      "hit": false,
      "t": 160941.09600000002,
      "d": 1941.175500000012,
      "v": 82
    },
    {
      "midi": 50,
      "hit": false,
      "t": 160941.0960000003,
      "d": 352.9409999999916,
      "v": 64
    },
    {
      "midi": 54,
      "hit": false,
      "t": 161294.0370000003,
      "d": 352.9409999999916,
      "v": 64
    },
    {
      "midi": 57,
      "hit": false,
      "t": 161646.9780000003,
      "d": 352.9409999999916,
      "v": 64
    },
    {
      "midi": 61,
      "hit": false,
      "t": 161999.9190000003,
      "d": 352.9409999999916,
      "v": 64
    },
    {
      "midi": 57,
      "hit": false,
      "t": 162352.86000000028,
      "d": 352.9409999999916,
      "v": 64
    },
    {
      "midi": 54,
      "hit": false,
      "t": 162705.80100000027,
      "d": 352.9409999999916,
      "v": 64
    },
    {
      "midi": 64,
      "hit": false,
      "t": 162882.27150000003,
      "d": 176.4704999999958,
      "v": 82
    },
    {
      "midi": 66,
      "hit": false,
      "t": 163058.74200000003,
      "d": 2117.646000000008,
      "v": 82
    },
    {
      "midi": 43,
      "hit": false,
      "t": 163058.74200000026,
      "d": 352.9409999999916,
      "v": 64
    },
    {
      "midi": 50,
      "hit": false,
      "t": 163411.68300000025,
      "d": 352.9409999999916,
      "v": 64
    },
    {
      "midi": 55,
      "hit": false,
      "t": 163764.62400000024,
      "d": 352.9409999999916,
      "v": 64
    },
    {
      "midi": 59,
      "hit": false,
      "t": 164117.56500000024,
      "d": 352.9409999999916,
      "v": 64
    },
    {
      "midi": 55,
      "hit": false,
      "t": 164470.50600000023,
      "d": 352.9409999999916,
      "v": 64
    },
    {
      "midi": 50,
      "hit": false,
      "t": 164823.44700000022,
      "d": 352.9409999999916,
      "v": 64
    },
    {
      "midi": 64,
      "hit": false,
      "t": 165176.38800000004,
      "d": 2117.646000000008,
      "v": 82
    },
    {
      "midi": 48,
      "hit": false,
      "t": 165176.3880000002,
      "d": 352.9409999999916,
      "v": 64
    },
    {
      "midi": 52,
      "hit": false,
      "t": 165529.3290000002,
      "d": 352.9409999999916,
      "v": 64
    },
    {
      "midi": 55,
      "hit": false,
      "t": 165882.2700000002,
      "d": 352.9409999999916,
      "v": 64
    },
    {
      "midi": 59,
      "hit": false,
      "t": 166235.21100000018,
      "d": 352.9409999999916,
      "v": 64
    },
    {
      "midi": 55,
      "hit": false,
      "t": 166588.15200000018,
      "d": 352.9409999999916,
      "v": 64
    },
    {
      "midi": 52,
      "hit": false,
      "t": 166941.09300000017,
      "d": 352.9409999999916,
      "v": 64
    },
    {
      "midi": 64,
      "hit": false,
      "t": 167294.03400000004,
      "d": 2117.646000000008,
      "v": 82
    },
    {
      "midi": 47,
      "hit": false,
      "t": 167294.03400000016,
      "d": 352.9409999999916,
      "v": 64
    },
    {
      "midi": 54,
      "hit": false,
      "t": 167646.97500000015,
      "d": 352.9409999999916,
      "v": 64
    },
    {
      "midi": 57,
      "hit": false,
      "t": 167999.91600000014,
      "d": 352.9409999999916,
      "v": 64
    },
    {
      "midi": 59,
      "hit": false,
      "t": 168352.85700000013,
      "d": 352.9409999999916,
      "v": 64
    },
    {
      "midi": 57,
      "hit": false,
      "t": 168705.79800000013,
      "d": 352.9409999999916,
      "v": 64
    },
    {
      "midi": 54,
      "hit": false,
      "t": 169058.73900000012,
      "d": 352.9409999999916,
      "v": 64
    },
    {
      "midi": 47,
      "hit": false,
      "t": 169411.6800000001,
      "d": 352.9409999999916,
      "v": 64
    },
    {
      "midi": 54,
      "hit": false,
      "t": 169764.6210000001,
      "d": 705.8820000000123,
      "v": 64
    },
    {
      "midi": 66,
      "hit": false,
      "t": 170117.56200000006,
      "d": 705.8820000000123,
      "v": 82
    },
    {
      "midi": 57,
      "hit": false,
      "t": 170470.5030000001,
      "d": 705.8820000000123,
      "v": 64
    },
    {
      "midi": 63,
      "hit": false,
      "t": 170823.44400000008,
      "d": 705.8820000000123,
      "v": 82
    },
    {
      "midi": 57,
      "hit": false,
      "t": 171176.38500000013,
      "d": 352.9409999999916,
      "v": 64
    },
    {
      "midi": 64,
      "hit": false,
      "t": 171529.3260000001,
      "d": 2117.646000000008,
      "v": 82
    },
    {
      "midi": 40,
      "hit": false,
      "t": 171529.32600000012,
      "d": 352.9409999999916,
      "v": 64
    },
    {
      "midi": 54,
      "hit": false,
      "t": 171882.2670000001,
      "d": 352.9409999999916,
      "v": 64
    },
    {
      "midi": 56,
      "hit": false,
      "t": 172235.2080000001,
      "d": 352.9409999999916,
      "v": 64
    },
    {
      "midi": 52,
      "hit": false,
      "t": 172588.1490000001,
      "d": 352.9409999999916,
      "v": 64
    },
    {
      "midi": 56,
      "hit": false,
      "t": 172941.09000000008,
      "d": 352.9409999999916,
      "v": 64
    },
    {
      "midi": 59,
      "hit": false,
      "t": 173294.03100000008,
      "d": 352.9409999999916,
      "v": 64
    },
    {
      "midi": 64,
      "hit": false,
      "t": 173646.97200000007,
      "d": 705.8820000000123,
      "v": 64
    },
    {
      "midi": 71,
      "hit": false,
      "t": 173999.9130000001,
      "d": 352.9409999999916,
      "v": 82
    },
    {
      "midi": 64,
      "hit": false,
      "t": 174352.85400000008,
      "d": 352.9409999999916,
      "v": 82
    },
    {
      "midi": 68,
      "hit": false,
      "t": 174705.79500000007,
      "d": 352.9409999999916,
      "v": 82
    },
    {
      "midi": 71,
      "hit": false,
      "t": 175058.73600000006,
      "d": 352.9409999999916,
      "v": 82
    },
    {
      "midi": 75,
      "hit": false,
      "t": 175411.67700000005,
      "d": 352.9409999999916,
      "v": 82
    },
    {
      "midi": 76,
      "hit": false,
      "t": 175764.61800000005,
      "d": 2117.646000000008,
      "v": 82
    },
    {
      "midi": 49,
      "hit": false,
      "t": 175764.61800000007,
      "d": 352.9409999999916,
      "v": 64
    },
    {
      "midi": 59,
      "hit": false,
      "t": 176117.55900000007,
      "d": 352.9409999999916,
      "v": 64
    },
    {
      "midi": 64,
      "hit": false,
      "t": 176470.50000000006,
      "d": 352.9409999999916,
      "v": 64
    },
    {
      "midi": 68,
      "hit": false,
      "t": 176823.44100000005,
      "d": 352.9409999999916,
      "v": 64
    },
    {
      "midi": 64,
      "hit": false,
      "t": 177176.38200000004,
      "d": 352.9409999999916,
      "v": 64
    },
    {
      "midi": 59,
      "hit": false,
      "t": 177529.32300000003,
      "d": 352.9409999999916,
      "v": 64
    },
    {
      "midi": 54,
      "hit": false,
      "t": 177882.26400000002,
      "d": 352.9409999999916,
      "v": 64
    },
    {
      "midi": 76,
      "hit": false,
      "t": 177882.26400000005,
      "d": 1411.7639999999956,
      "v": 82
    },
    {
      "midi": 59,
      "hit": false,
      "t": 178235.20500000002,
      "d": 352.9409999999916,
      "v": 64
    },
    {
      "midi": 64,
      "hit": false,
      "t": 178588.146,
      "d": 352.9409999999916,
      "v": 64
    },
    {
      "midi": 68,
      "hit": false,
      "t": 178941.087,
      "d": 352.9409999999916,
      "v": 64
    },
    {
      "midi": 64,
      "hit": false,
      "t": 179294.028,
      "d": 352.9409999999916,
      "v": 64
    },
    {
      "midi": 59,
      "hit": false,
      "t": 179646.96899999998,
      "d": 352.9409999999916,
      "v": 64
    },
    {
      "midi": 75,
      "hit": false,
      "t": 179646.96900000004,
      "d": 176.4704999999958,
      "v": 82
    },
    {
      "midi": 73,
      "hit": false,
      "t": 179823.43950000004,
      "d": 176.4704999999958,
      "v": 82
    },
    {
      "midi": 54,
      "hit": false,
      "t": 179999.90999999997,
      "d": 352.9409999999916,
      "v": 64
    },
    {
      "midi": 73,
      "hit": false,
      "t": 179999.91000000003,
      "d": 352.9409999999916,
      "v": 82
    },
    {
      "midi": 59,
      "hit": false,
      "t": 180352.85099999997,
      "d": 352.9409999999916,
      "v": 64
    },
    {
      "midi": 75,
      "hit": false,
      "t": 180352.85100000002,
      "d": 176.4704999999958,
      "v": 82
    },
    {
      "midi": 76,
      "hit": false,
      "t": 180529.32150000002,
      "d": 176.4704999999958,
      "v": 82
    },
    {
      "midi": 66,
      "hit": false,
      "t": 180705.79199999996,
      "d": 352.9409999999916,
      "v": 64
    },
    {
      "midi": 75,
      "hit": false,
      "t": 180705.79200000002,
      "d": 1411.7639999999956,
      "v": 82
    },
    {
      "midi": 70,
      "hit": false,
      "t": 181058.73299999995,
      "d": 352.9409999999916,
      "v": 64
    },
    {
      "midi": 66,
      "hit": false,
      "t": 181411.67399999994,
      "d": 352.9409999999916,
      "v": 64
    },
    {
      "midi": 59,
      "hit": false,
      "t": 181764.61499999993,
      "d": 352.9409999999916,
      "v": 64
    },
    {
      "midi": 47,
      "hit": false,
      "t": 182117.55599999992,
      "d": 352.9409999999916,
      "v": 64
    },
    {
      "midi": 59,
      "hit": false,
      "t": 182470.49699999992,
      "d": 352.9409999999916,
      "v": 64
    },
    {
      "midi": 63,
      "hit": false,
      "t": 182823.4379999999,
      "d": 352.9409999999916,
      "v": 64
    },
    {
      "midi": 68,
      "hit": false,
      "t": 183176.3789999999,
      "d": 352.9409999999916,
      "v": 64
    },
    {
      "midi": 59,
      "hit": false,
      "t": 183529.3199999999,
      "d": 705.8820000000123,
      "v": 64
    },
    {
      "midi": 73,
      "hit": false,
      "t": 183529.32,
      "d": 352.9409999999916,
      "v": 82
    },
    {
      "midi": 71,
      "hit": false,
      "t": 183882.261,
      "d": 352.9409999999916,
      "v": 82
    },
    {
      "midi": 42,
      "hit": false,
      "t": 184235.2019999999,
      "d": 352.9409999999916,
      "v": 64
    },
    {
      "midi": 52,
      "hit": false,
      "t": 184588.1429999999,
      "d": 352.9409999999916,
      "v": 64
    },
    {
      "midi": 57,
      "hit": false,
      "t": 184941.0839999999,
      "d": 352.9409999999916,
      "v": 64
    },
    {
      "midi": 61,
      "hit": false,
      "t": 185294.02499999988,
      "d": 352.9409999999916,
      "v": 64
    },
    {
      "midi": 57,
      "hit": false,
      "t": 185646.96599999987,
      "d": 352.9409999999916,
      "v": 64
    },
    {
      "midi": 52,
      "hit": false,
      "t": 185999.90699999986,
      "d": 352.9409999999916,
      "v": 64
    },
    {
      "midi": 47,
      "hit": false,
      "t": 186352.84799999985,
      "d": 352.9409999999916,
      "v": 64
    },
    {
      "midi": 69,
      "hit": false,
      "t": 186352.848,
      "d": 176.4704999999958,
      "v": 82
    },
    {
      "midi": 54,
      "hit": false,
      "t": 186705.78899999984,
      "d": 352.9409999999916,
      "v": 64
    },
    {
      "midi": 57,
      "hit": false,
      "t": 187058.72999999984,
      "d": 352.9409999999916,
      "v": 64
    },
    {
      "midi": 71,
      "hit": false,
      "t": 187058.72999999998,
      "d": 705.8820000000123,
      "v": 82
    },
    {
      "midi": 63,
      "hit": false,
      "t": 187411.67099999983,
      "d": 352.9409999999916,
      "v": 64
    },
    {
      "midi": 57,
      "hit": false,
      "t": 187764.61199999982,
      "d": 352.9409999999916,
      "v": 64
    },
    {
      "midi": 66,
      "hit": false,
      "t": 187764.612,
      "d": 705.8820000000123,
      "v": 82
    },
    {
      "midi": 54,
      "hit": false,
      "t": 188117.5529999998,
      "d": 352.9409999999916,
      "v": 64
    },
    {
      "midi": 40,
      "hit": false,
      "t": 188470.4939999998,
      "d": 352.9409999999916,
      "v": 64
    },
    {
      "midi": 68,
      "hit": false,
      "t": 188470.494,
      "d": 2117.646000000008,
      "v": 82
    },
    {
      "midi": 52,
      "hit": false,
      "t": 188823.4349999998,
      "d": 352.9409999999916,
      "v": 64
    },
    {
      "midi": 59,
      "hit": false,
      "t": 189176.3759999998,
      "d": 352.9409999999916,
      "v": 64
    },
    {
      "midi": 63,
      "hit": false,
      "t": 189529.31699999978,
      "d": 352.9409999999916,
      "v": 64
    },
    {
      "midi": 59,
      "hit": false,
      "t": 189882.25799999977,
      "d": 352.9409999999916,
      "v": 64
    },
    {
      "midi": 52,
      "hit": false,
      "t": 190235.19899999976,
      "d": 352.9409999999916,
      "v": 64
    },
    {
      "midi": 40,
      "hit": false,
      "t": 190588.13999999975,
      "d": 352.9409999999916,
      "v": 64
    },
    {
      "midi": 52,
      "hit": false,
      "t": 190941.08099999974,
      "d": 352.9409999999916,
      "v": 64
    },
    {
      "midi": 59,
      "hit": false,
      "t": 191294.02199999974,
      "d": 352.9409999999916,
      "v": 64
    },
    {
      "midi": 62,
      "hit": false,
      "t": 191646.96299999973,
      "d": 1058.823000000004,
      "v": 64
    },
    {
      "midi": 64,
      "hit": false,
      "t": 191999.904,
      "d": 352.9409999999916,
      "v": 82
    },
    {
      "midi": 66,
      "hit": false,
      "t": 192352.845,
      "d": 352.9409999999916,
      "v": 82
    },
    {
      "midi": 45,
      "hit": false,
      "t": 192705.78599999973,
      "d": 352.9409999999916,
      "v": 64
    },
    {
      "midi": 68,
      "hit": false,
      "t": 192705.786,
      "d": 2117.646000000008,
      "v": 82
    },
    {
      "midi": 52,
      "hit": false,
      "t": 193058.72699999972,
      "d": 352.9409999999916,
      "v": 64
    },
    {
      "midi": 57,
      "hit": false,
      "t": 193411.6679999997,
      "d": 352.9409999999916,
      "v": 64
    },
    {
      "midi": 61,
      "hit": false,
      "t": 193764.6089999997,
      "d": 352.9409999999916,
      "v": 64
    },
    {
      "midi": 57,
      "hit": false,
      "t": 194117.5499999997,
      "d": 352.9409999999916,
      "v": 64
    },
    {
      "midi": 52,
      "hit": false,
      "t": 194470.4909999997,
      "d": 352.9409999999916,
      "v": 64
    },
    {
      "midi": 50,
      "hit": false,
      "t": 194823.43199999968,
      "d": 352.9409999999916,
      "v": 64
    },
    {
      "midi": 66,
      "hit": false,
      "t": 194823.432,
      "d": 1941.175500000012,
      "v": 82
    },
    {
      "midi": 54,
      "hit": false,
      "t": 195176.37299999967,
      "d": 352.9409999999916,
      "v": 64
    },
    {
      "midi": 57,
      "hit": false,
      "t": 195529.31399999966,
      "d": 352.9409999999916,
      "v": 64
    },
    {
      "midi": 61,
      "hit": false,
      "t": 195882.25499999966,
      "d": 352.9409999999916,
      "v": 64
    },
    {
      "midi": 57,
      "hit": false,
      "t": 196235.19599999965,
      "d": 352.9409999999916,
      "v": 64
    },
    {
      "midi": 54,
      "hit": false,
      "t": 196588.13699999964,
      "d": 352.9409999999916,
      "v": 64
    },
    {
      "midi": 64,
      "hit": false,
      "t": 196764.6075,
      "d": 176.4704999999958,
      "v": 82
    },
    {
      "midi": 43,
      "hit": false,
      "t": 196941.07799999963,
      "d": 352.9409999999916,
      "v": 64
    },
    {
      "midi": 66,
      "hit": false,
      "t": 196941.078,
      "d": 2117.646000000008,
      "v": 82
    },
    {
      "midi": 50,
      "hit": false,
      "t": 197294.01899999962,
      "d": 352.9409999999916,
      "v": 64
    },
    {
      "midi": 55,
      "hit": false,
      "t": 197646.9599999996,
      "d": 352.9409999999916,
      "v": 64
    },
    {
      "midi": 59,
      "hit": false,
      "t": 197999.9009999996,
      "d": 352.9409999999916,
      "v": 64
    },
    {
      "midi": 55,
      "hit": false,
      "t": 198352.8419999996,
      "d": 352.9409999999916,
      "v": 64
    },
    {
      "midi": 50,
      "hit": false,
      "t": 198705.7829999996,
      "d": 352.9409999999916,
      "v": 64
    },
    {
      "midi": 48,
      "hit": false,
      "t": 199058.72399999958,
      "d": 352.9409999999916,
      "v": 64
    },
    {
      "midi": 64,
      "hit": false,
      "t": 199058.72400000002,
      "d": 2117.646000000008,
      "v": 82
    },
    {
      "midi": 52,
      "hit": false,
      "t": 199411.66499999957,
      "d": 352.9409999999916,
      "v": 64
    },
    {
      "midi": 55,
      "hit": false,
      "t": 199764.60599999956,
      "d": 352.9409999999916,
      "v": 64
    },
    {
      "midi": 59,
      "hit": false,
      "t": 200117.54699999955,
      "d": 352.9409999999916,
      "v": 64
    },
    {
      "midi": 55,
      "hit": false,
      "t": 200470.48799999955,
      "d": 352.9409999999916,
      "v": 64
    },
    {
      "midi": 52,
      "hit": false,
      "t": 200823.42899999954,
      "d": 352.9409999999916,
      "v": 64
    },
    {
      "midi": 42,
      "hit": false,
      "t": 201176.36999999953,
      "d": 352.9409999999916,
      "v": 64
    },
    {
      "midi": 64,
      "hit": false,
      "t": 201176.37000000002,
      "d": 2117.646000000008,
      "v": 82
    },
    {
      "midi": 49,
      "hit": false,
      "t": 201529.31099999952,
      "d": 352.9409999999916,
      "v": 64
    },
    {
      "midi": 52,
      "hit": false,
      "t": 201882.2519999995,
      "d": 352.9409999999916,
      "v": 64
    },
    {
      "midi": 57,
      "hit": false,
      "t": 202235.1929999995,
      "d": 352.9409999999916,
      "v": 64
    },
    {
      "midi": 52,
      "hit": false,
      "t": 202588.1339999995,
      "d": 352.9409999999916,
      "v": 64
    },
    {
      "midi": 49,
      "hit": false,
      "t": 202941.0749999995,
      "d": 352.9409999999916,
      "v": 64
    },
    {
      "midi": 47,
      "hit": false,
      "t": 203294.01599999948,
      "d": 352.9409999999916,
      "v": 64
    },
    {
      "midi": 54,
      "hit": false,
      "t": 203646.95699999947,
      "d": 705.8820000000123,
      "v": 64
    },
    {
      "midi": 66,
      "hit": false,
      "t": 203999.89800000004,
      "d": 705.8820000000123,
      "v": 82
    },
    {
      "midi": 57,
      "hit": false,
      "t": 204352.83899999948,
      "d": 705.8820000000123,
      "v": 64
    },
    {
      "midi": 63,
      "hit": false,
      "t": 204705.78000000006,
      "d": 705.8820000000123,
      "v": 82
    },
    {
      "midi": 57,
      "hit": false,
      "t": 205058.7209999995,
      "d": 352.9409999999916,
      "v": 64
    },
    {
      "midi": 40,
      "hit": false,
      "t": 205411.6619999995,
      "d": 352.9409999999916,
      "v": 64
    },
    {
      "midi": 57,
      "hit": false,
      "t": 205411.6619999995,
      "d": 352.9409999999916,
      "v": 64
    },
    {
      "midi": 64,
      "hit": false,
      "t": 205411.66200000007,
      "d": 2117.646000000008,
      "v": 82
    },
    {
      "midi": 54,
      "hit": false,
      "t": 205764.60299999948,
      "d": 352.9409999999916,
      "v": 64
    },
    {
      "midi": 56,
      "hit": false,
      "t": 206117.54399999947,
      "d": 352.9409999999916,
      "v": 64
    },
    {
      "midi": 51,
      "hit": false,
      "t": 206470.48499999946,
      "d": 352.9409999999916,
      "v": 64
    },
    {
      "midi": 52,
      "hit": false,
      "t": 206823.42599999945,
      "d": 352.9409999999916,
      "v": 64
    },
    {
      "midi": 56,
      "hit": false,
      "t": 207176.36699999945,
      "d": 352.9409999999916,
      "v": 64
    },
    {
      "midi": 59,
      "hit": false,
      "t": 207529.30799999944,
      "d": 2117.646000000008,
      "v": 64
    },
    {
      "midi": 68,
      "hit": false,
      "t": 207882.24900000007,
      "d": 352.9409999999916,
      "v": 82
    },
    {
      "midi": 71,
      "hit": false,
      "t": 208235.19000000006,
      "d": 352.9409999999916,
      "v": 82
    },
    {
      "midi": 64,
      "hit": false,
      "t": 208588.13100000005,
      "d": 352.9409999999916,
      "v": 82
    },
    {
      "midi": 68,
      "hit": false,
      "t": 208941.07200000004,
      "d": 352.9409999999916,
      "v": 82
    },
    {
      "midi": 71,
      "hit": false,
      "t": 209294.01300000004,
      "d": 352.9409999999916,
      "v": 82
    },
    {
      "midi": 49,
      "hit": false,
      "t": 209646.95399999944,
      "d": 176.4704999999958,
      "v": 64
    },
    {
      "midi": 56,
      "hit": false,
      "t": 209646.95399999944,
      "d": 176.4704999999958,
      "v": 64
    },
    {
      "midi": 75,
      "hit": false,
      "t": 209646.95400000003,
      "d": 705.8820000000123,
      "v": 82
    },
    {
      "midi": 59,
      "hit": false,
      "t": 209823.42449999944,
      "d": 1941.175500000012,
      "v": 64
    },
    {
      "midi": 64,
      "hit": false,
      "t": 209823.42449999944,
      "d": 1941.175500000012,
      "v": 64
    },
    {
      "midi": 68,
      "hit": false,
      "t": 209823.42449999944,
      "d": 1941.175500000012,
      "v": 64
    },
    {
      "midi": 76,
      "hit": false,
      "t": 210352.83600000004,
      "d": 1411.7639999999956,
      "v": 82
    },
    {
      "midi": 42,
      "hit": false,
      "t": 211764.59999999945,
      "d": 176.4704999999958,
      "v": 64
    },
    {
      "midi": 49,
      "hit": false,
      "t": 211764.59999999945,
      "d": 176.4704999999958,
      "v": 64
    },
    {
      "midi": 63,
      "hit": false,
      "t": 211764.60000000003,
      "d": 705.8820000000123,
      "v": 82
    },
    {
      "midi": 52,
      "hit": false,
      "t": 211941.07049999945,
      "d": 1941.175500000012,
      "v": 64
    },
    {
      "midi": 57,
      "hit": false,
      "t": 211941.07049999945,
      "d": 1941.175500000012,
      "v": 64
    },
    {
      "midi": 64,
      "hit": false,
      "t": 212470.48200000005,
      "d": 1411.7639999999956,
      "v": 82
    },
    {
      "midi": 47,
      "hit": false,
      "t": 213882.24599999946,
      "d": 176.4704999999958,
      "v": 64
    },
    {
      "midi": 54,
      "hit": false,
      "t": 213882.24599999946,
      "d": 176.4704999999958,
      "v": 64
    },
    {
      "midi": 64,
      "hit": false,
      "t": 213882.24600000004,
      "d": 352.9409999999916,
      "v": 82
    },
    {
      "midi": 57,
      "hit": false,
      "t": 214058.71649999946,
      "d": 1941.175500000012,
      "v": 64
    },
    {
      "midi": 66,
      "hit": false,
      "t": 214235.18700000003,
      "d": 176.4704999999958,
      "v": 82
    },
    {
      "midi": 68,
      "hit": false,
      "t": 214411.65750000003,
      "d": 176.4704999999958,
      "v": 82
    },
    {
      "midi": 66,
      "hit": false,
      "t": 214588.12800000003,
      "d": 705.8820000000123,
      "v": 82
    },
    {
      "midi": 54,
      "hit": false,
      "t": 215999.89199999947,
      "d": 176.4704999999958,
      "v": 64
    },
    {
      "midi": 64,
      "hit": false,
      "t": 215999.89200000005,
      "d": 176.4704999999958,
      "v": 82
    },
    {
      "midi": 57,
      "hit": false,
      "t": 216176.36249999946,
      "d": 529.4114999999874,
      "v": 64
    },
    {
      "midi": 56,
      "hit": false,
      "t": 216705.77399999945,
      "d": 1411.7639999999956,
      "v": 64
    },
    {
      "midi": 59,
      "hit": false,
      "t": 216705.77399999945,
      "d": 1411.7639999999956,
      "v": 64
    }
  ]
}