{
  "jsonPath": "Rock/Album Rock/Joe Cocker/delta-lady.json",
  "path": "Rock\\Album Rock\\Joe Cocker\\Delta Lady.mid",
  "name": "Delta Lady",
  "difficulty": "Advanced",
  "bpm": 126.99998518333506,
  "notes": [
    {
      "midi": 36,
      "hit": false,
      "t": 3795.2760333333335,
      "d": 523.622108333333,
      "v": 124
    },
    {
      "midi": 64,
      "hit": false,
      "t": 4248.031991666667,
      "d": 145.669308333333,
      "v": 118
    },
    {
      "midi": 67,
      "hit": false,
      "t": 4248.031991666667,
      "d": 165.3543499999996,
      "v": 121
    },
    {
      "midi": 60,
      "hit": false,
      "t": 4248.031991666667,
      "d": 169.29135833333294,
      "v": 117
    },
    {
      "midi": 40,
      "hit": false,
      "t": 4492.126508333333,
      "d": 342.5197250000001,
      "v": 127
    },
    {
      "midi": 64,
      "hit": false,
      "t": 4720.4729916666665,
      "d": 78.74016666666648,
      "v": 112
    },
    {
      "midi": 60,
      "hit": false,
      "t": 4720.4729916666665,
      "d": 90.55119166666645,
      "v": 110
    },
    {
      "midi": 67,
      "hit": false,
      "t": 4720.4729916666665,
      "d": 90.55119166666645,
      "v": 111
    },
    {
      "midi": 41,
      "hit": false,
      "t": 4968.504516666666,
      "d": 216.53545833333374,
      "v": 126
    },
    {
      "midi": 60,
      "hit": false,
      "t": 5192.913991666666,
      "d": 188.97639999999956,
      "v": 116
    },
    {
      "midi": 64,
      "hit": false,
      "t": 5192.913991666666,
      "d": 208.66144166666618,
      "v": 115
    },
    {
      "midi": 67,
      "hit": false,
      "t": 5192.913991666666,
      "d": 208.66144166666618,
      "v": 121
    },
    {
      "midi": 42,
      "hit": false,
      "t": 5421.260474999999,
      "d": 157.48033333333296,
      "v": 127
    },
    {
      "midi": 43,
      "hit": false,
      "t": 5661.417983333332,
      "d": 145.669308333333,
      "v": 126
    },
    {
      "midi": 60,
      "hit": false,
      "t": 5661.417983333332,
      "d": 149.60631666666632,
      "v": 120
    },
    {
      "midi": 64,
      "hit": false,
      "t": 5661.417983333332,
      "d": 149.60631666666632,
      "v": 119
    },
    {
      "midi": 67,
      "hit": false,
      "t": 5661.417983333332,
      "d": 149.60631666666632,
      "v": 125
    },
    {
      "midi": 43,
      "hit": false,
      "t": 6129.921974999998,
      "d": 893.7008916666664,
      "v": 121
    },
    {
      "midi": 43,
      "hit": false,
      "t": 7082.677991666665,
      "d": 224.40947500000038,
      "v": 105
    },
    {
      "midi": 55,
      "hit": false,
      "t": 7086.614999999998,
      "d": 228.3464833333337,
      "v": 110
    },
    {
      "midi": 45,
      "hit": false,
      "t": 7311.024474999998,
      "d": 125.98426666666637,
      "v": 105
    },
    {
      "midi": 57,
      "hit": false,
      "t": 7314.961483333332,
      "d": 129.9212749999997,
      "v": 110
    },
    {
      "midi": 36,
      "hit": false,
      "t": 7574.804033333331,
      "d": 523.622108333333,
      "v": 124
    },
    {
      "midi": 64,
      "hit": false,
      "t": 8027.559991666664,
      "d": 145.669308333333,
      "v": 118
    },
    {
      "midi": 67,
      "hit": false,
      "t": 8027.559991666664,
      "d": 165.35435000000052,
      "v": 121
    },
    {
      "midi": 60,
      "hit": false,
      "t": 8027.559991666664,
      "d": 169.29135833333476,
      "v": 117
    },
    {
      "midi": 40,
      "hit": false,
      "t": 8271.654508333333,
      "d": 342.5197250000001,
      "v": 127
    },
    {
      "midi": 64,
      "hit": false,
      "t": 8500.000991666666,
      "d": 78.74016666666648,
      "v": 112
    },
    {
      "midi": 60,
      "hit": false,
      "t": 8500.000991666666,
      "d": 90.55119166666736,
      "v": 110
    },
    {
      "midi": 67,
      "hit": false,
      "t": 8500.000991666666,
      "d": 90.55119166666736,
      "v": 111
    },
    {
      "midi": 41,
      "hit": false,
      "t": 8748.032516666666,
      "d": 216.53545833333374,
      "v": 126
    },
    {
      "midi": 60,
      "hit": false,
      "t": 8972.441991666667,
      "d": 188.97639999999956,
      "v": 116
    },
    {
      "midi": 64,
      "hit": false,
      "t": 8972.441991666667,
      "d": 208.6614416666671,
      "v": 115
    },
    {
      "midi": 67,
      "hit": false,
      "t": 8972.441991666667,
      "d": 208.6614416666671,
      "v": 121
    },
    {
      "midi": 42,
      "hit": false,
      "t": 9200.788475000001,
      "d": 157.48033333333296,
      "v": 127
    },
    {
      "midi": 43,
      "hit": false,
      "t": 9440.945983333335,
      "d": 145.6693083333339,
      "v": 126
    },
    {
      "midi": 60,
      "hit": false,
      "t": 9440.945983333335,
      "d": 149.60631666666814,
      "v": 120
    },
    {
      "midi": 64,
      "hit": false,
      "t": 9440.945983333335,
      "d": 149.60631666666814,
      "v": 119
    },
    {
      "midi": 67,
      "hit": false,
      "t": 9440.945983333335,
      "d": 149.60631666666814,
      "v": 125
    },
    {
      "midi": 43,
      "hit": false,
      "t": 9909.449975000003,
      "d": 893.7008916666673,
      "v": 121
    },
    {
      "midi": 52,
      "hit": false,
      "t": 11334.64699166667,
      "d": 90.55119166666736,
      "v": 100
    },
    {
      "midi": 55,
      "hit": false,
      "t": 11334.64699166667,
      "d": 110.2362333333349,
      "v": 110
    },
    {
      "midi": 48,
      "hit": false,
      "t": 11334.64699166667,
      "d": 122.04725833333578,
      "v": 111
    },
    {
      "midi": 36,
      "hit": false,
      "t": 11334.64699166667,
      "d": 582.6772333333374,
      "v": 116
    },
    {
      "midi": 48,
      "hit": false,
      "t": 11807.087991666673,
      "d": 51.18110833333412,
      "v": 126
    },
    {
      "midi": 57,
      "hit": false,
      "t": 11807.087991666673,
      "d": 51.18110833333412,
      "v": 123
    },
    {
      "midi": 52,
      "hit": false,
      "t": 11807.087991666673,
      "d": 62.992133333335005,
      "v": 112
    },
    {
      "midi": 43,
      "hit": false,
      "t": 12039.371483333342,
      "d": 55.11811666666654,
      "v": 110
    },
    {
      "midi": 52,
      "hit": false,
      "t": 12279.528991666675,
      "d": 51.18110833333412,
      "v": 111
    },
    {
      "midi": 48,
      "hit": false,
      "t": 12279.528991666675,
      "d": 70.86615000000165,
      "v": 116
    },
    {
      "midi": 55,
      "hit": false,
      "t": 12279.528991666675,
      "d": 70.86615000000165,
      "v": 127
    },
    {
      "midi": 43,
      "hit": false,
      "t": 12496.06445000001,
      "d": 47.24409999999989,
      "v": 111
    },
    {
      "midi": 48,
      "hit": false,
      "t": 12763.781016666677,
      "d": 216.53545833333374,
      "v": 116
    },
    {
      "midi": 52,
      "hit": false,
      "t": 12763.781016666677,
      "d": 275.5905833333345,
      "v": 111
    },
    {
      "midi": 57,
      "hit": false,
      "t": 12763.781016666677,
      "d": 334.6457083333353,
      "v": 115
    },
    {
      "midi": 36,
      "hit": false,
      "t": 13220.473983333346,
      "d": 208.6614416666689,
      "v": 111
    },
    {
      "midi": 52,
      "hit": false,
      "t": 13224.41099166668,
      "d": 129.9212750000006,
      "v": 127
    },
    {
      "midi": 55,
      "hit": false,
      "t": 13224.41099166668,
      "d": 133.85828333333484,
      "v": 127
    },
    {
      "midi": 48,
      "hit": false,
      "t": 13224.41099166668,
      "d": 157.48033333333478,
      "v": 117
    },
    {
      "midi": 43,
      "hit": false,
      "t": 13460.631491666682,
      "d": 90.55119166666736,
      "v": 127
    },
    {
      "midi": 36,
      "hit": false,
      "t": 13460.631491666682,
      "d": 334.6457083333371,
      "v": 115
    },
    {
      "midi": 57,
      "hit": false,
      "t": 13688.977975000016,
      "d": 59.05512500000077,
      "v": 110
    },
    {
      "midi": 48,
      "hit": false,
      "t": 13688.977975000016,
      "d": 78.7401666666683,
      "v": 114
    },
    {
      "midi": 52,
      "hit": false,
      "t": 13688.977975000016,
      "d": 78.7401666666683,
      "v": 123
    },
    {
      "midi": 36,
      "hit": false,
      "t": 13933.072491666686,
      "d": 641.7323583333346,
      "v": 121
    },
    {
      "midi": 43,
      "hit": false,
      "t": 14169.292991666685,
      "d": 35.43307500000083,
      "v": 110
    },
    {
      "midi": 52,
      "hit": false,
      "t": 14169.292991666685,
      "d": 66.92914166666742,
      "v": 121
    },
    {
      "midi": 48,
      "hit": false,
      "t": 14169.292991666685,
      "d": 70.86615000000165,
      "v": 113
    },
    {
      "midi": 55,
      "hit": false,
      "t": 14169.292991666685,
      "d": 70.86615000000165,
      "v": 126
    },
    {
      "midi": 43,
      "hit": false,
      "t": 14409.45050000002,
      "d": 366.14177500000187,
      "v": 127
    },
    {
      "midi": 36,
      "hit": false,
      "t": 14641.733991666688,
      "d": 110.2362333333349,
      "v": 115
    },
    {
      "midi": 52,
      "hit": false,
      "t": 14645.671000000022,
      "d": 165.35435000000143,
      "v": 127
    },
    {
      "midi": 48,
      "hit": false,
      "t": 14645.671000000022,
      "d": 185.03939166666896,
      "v": 122
    },
    {
      "midi": 57,
      "hit": false,
      "t": 14645.671000000022,
      "d": 204.7244333333365,
      "v": 120
    },
    {
      "midi": 36,
      "hit": false,
      "t": 14877.954491666693,
      "d": 110.23623333333308,
      "v": 116
    },
    {
      "midi": 55,
      "hit": false,
      "t": 14877.954491666693,
      "d": 114.17324166666731,
      "v": 116
    },
    {
      "midi": 52,
      "hit": false,
      "t": 14885.82850833336,
      "d": 102.36221666666643,
      "v": 110
    },
    {
      "midi": 54,
      "hit": false,
      "t": 15114.174991666694,
      "d": 59.05512500000077,
      "v": 116
    },
    {
      "midi": 50,
      "hit": false,
      "t": 15114.174991666694,
      "d": 70.86615000000165,
      "v": 110
    },
    {
      "midi": 38,
      "hit": false,
      "t": 15114.174991666694,
      "d": 877.9528583333376,
      "v": 112
    },
    {
      "midi": 50,
      "hit": false,
      "t": 15354.33250000003,
      "d": 19.68504166666753,
      "v": 101
    },
    {
      "midi": 55,
      "hit": false,
      "t": 15586.615991666697,
      "d": 70.86614999999983,
      "v": 127
    },
    {
      "midi": 50,
      "hit": false,
      "t": 15586.615991666697,
      "d": 90.55119166666736,
      "v": 118
    },
    {
      "midi": 45,
      "hit": false,
      "t": 15822.836491666698,
      "d": 145.6693083333339,
      "v": 105
    },
    {
      "midi": 38,
      "hit": false,
      "t": 16047.245966666698,
      "d": 830.7087583333378,
      "v": 114
    },
    {
      "midi": 50,
      "hit": false,
      "t": 16059.0569916667,
      "d": 125.98426666666637,
      "v": 116
    },
    {
      "midi": 54,
      "hit": false,
      "t": 16059.0569916667,
      "d": 228.3464833333328,
      "v": 127
    },
    {
      "midi": 50,
      "hit": false,
      "t": 16299.214500000033,
      "d": 82.67717500000072,
      "v": 110
    },
    {
      "midi": 45,
      "hit": false,
      "t": 16523.623975000035,
      "d": 118.11025000000154,
      "v": 114
    },
    {
      "midi": 41,
      "hit": false,
      "t": 16984.253950000035,
      "d": 740.1575666666686,
      "v": 113
    },
    {
      "midi": 63,
      "hit": false,
      "t": 17003.938991666702,
      "d": 129.9212750000006,
      "v": 118
    },
    {
      "midi": 57,
      "hit": false,
      "t": 17003.938991666702,
      "d": 137.79529166666907,
      "v": 110
    },
    {
      "midi": 57,
      "hit": false,
      "t": 17224.411458333372,
      "d": 188.97639999999956,
      "v": 110
    },
    {
      "midi": 63,
      "hit": false,
      "t": 17232.28547500004,
      "d": 169.29135833333203,
      "v": 113
    },
    {
      "midi": 57,
      "hit": false,
      "t": 17476.379991666705,
      "d": 169.29135833333203,
      "v": 110
    },
    {
      "midi": 62,
      "hit": false,
      "t": 17476.379991666705,
      "d": 169.29135833333203,
      "v": 106
    },
    {
      "midi": 53,
      "hit": false,
      "t": 17704.726475000036,
      "d": 303.14964166666687,
      "v": 106
    },
    {
      "midi": 57,
      "hit": false,
      "t": 17948.820991666704,
      "d": 157.48033333333296,
      "v": 116
    },
    {
      "midi": 62,
      "hit": false,
      "t": 17948.820991666704,
      "d": 169.29135833333203,
      "v": 110
    },
    {
      "midi": 72,
      "hit": false,
      "t": 18177.167475000035,
      "d": 129.9212750000006,
      "v": 106
    },
    {
      "midi": 60,
      "hit": false,
      "t": 18177.167475000035,
      "d": 141.73229999999967,
      "v": 126
    },
    {
      "midi": 53,
      "hit": false,
      "t": 18413.387975000034,
      "d": 51.18110833333412,
      "v": 110
    },
    {
      "midi": 41,
      "hit": false,
      "t": 18440.947033333367,
      "d": 114.17324166666731,
      "v": 108
    },
    {
      "midi": 41,
      "hit": false,
      "t": 18677.167533333366,
      "d": 149.60631666666814,
      "v": 106
    },
    {
      "midi": 62,
      "hit": false,
      "t": 18893.7029916667,
      "d": 110.23623333333308,
      "v": 127
    },
    {
      "midi": 67,
      "hit": false,
      "t": 18893.7029916667,
      "d": 110.23623333333308,
      "v": 127
    },
    {
      "midi": 43,
      "hit": false,
      "t": 18897.640000000036,
      "d": 125.98426666666637,
      "v": 114
    },
    {
      "midi": 43,
      "hit": false,
      "t": 19122.049475000036,
      "d": 137.79529166666543,
      "v": 111
    },
    {
      "midi": 60,
      "hit": false,
      "t": 19366.1439916667,
      "d": 129.9212750000006,
      "v": 127
    },
    {
      "midi": 65,
      "hit": false,
      "t": 19366.1439916667,
      "d": 129.9212750000006,
      "v": 127
    },
    {
      "midi": 64,
      "hit": false,
      "t": 19838.5849916667,
      "d": 129.9212750000006,
      "v": 127
    },
    {
      "midi": 67,
      "hit": false,
      "t": 19838.5849916667,
      "d": 129.9212750000006,
      "v": 127
    },
    {
      "midi": 58,
      "hit": false,
      "t": 20311.0259916667,
      "d": 129.9212750000006,
      "v": 127
    },
    {
      "midi": 62,
      "hit": false,
      "t": 20311.0259916667,
      "d": 129.9212750000006,
      "v": 98
    },
    {
      "midi": 43,
      "hit": false,
      "t": 20539.372475000033,
      "d": 125.98426666666637,
      "v": 109
    },
    {
      "midi": 43,
      "hit": false,
      "t": 20767.718958333367,
      "d": 141.73229999999967,
      "v": 95
    },
    {
      "midi": 55,
      "hit": false,
      "t": 20783.4669916667,
      "d": 110.23623333333308,
      "v": 116
    },
    {
      "midi": 59,
      "hit": false,
      "t": 20783.4669916667,
      "d": 110.23623333333308,
      "v": 119
    },
    {
      "midi": 58,
      "hit": false,
      "t": 21255.9079916667,
      "d": 149.60631666666814,
      "v": 115
    },
    {
      "midi": 63,
      "hit": false,
      "t": 21255.9079916667,
      "d": 149.60631666666814,
      "v": 126
    },
    {
      "midi": 57,
      "hit": false,
      "t": 21728.348991666702,
      "d": 149.60631666666814,
      "v": 115
    },
    {
      "midi": 62,
      "hit": false,
      "t": 21728.348991666702,
      "d": 169.29135833333567,
      "v": 124
    },
    {
      "midi": 43,
      "hit": false,
      "t": 21988.191541666703,
      "d": 137.79529166666543,
      "v": 95
    },
    {
      "midi": 60,
      "hit": false,
      "t": 22200.7899916667,
      "d": 165.35435000000143,
      "v": 121
    },
    {
      "midi": 55,
      "hit": false,
      "t": 22200.7899916667,
      "d": 173.2283666666699,
      "v": 115
    },
    {
      "midi": 43,
      "hit": false,
      "t": 22200.7899916667,
      "d": 188.9764000000032,
      "v": 101
    },
    {
      "midi": 43,
      "hit": false,
      "t": 22429.13647500004,
      "d": 244.09451666666791,
      "v": 111
    },
    {
      "midi": 36,
      "hit": false,
      "t": 22673.230991666707,
      "d": 1566.9293166666685,
      "v": 127
    },
    {
      "midi": 55,
      "hit": false,
      "t": 23141.734983333376,
      "d": 409.4488666666657,
      "v": 125
    },
    {
      "midi": 60,
      "hit": false,
      "t": 23141.734983333376,
      "d": 409.4488666666657,
      "v": 126
    },
    {
      "midi": 55,
      "hit": false,
      "t": 23610.23897500004,
      "d": 102.36221666666825,
      "v": 104
    },
    {
      "midi": 60,
      "hit": false,
      "t": 23618.11299166671,
      "d": 78.74016666666648,
      "v": 108
    },
    {
      "midi": 55,
      "hit": false,
      "t": 23846.459475000043,
      "d": 106.29922499999884,
      "v": 104
    },
    {
      "midi": 57,
      "hit": false,
      "t": 24094.491000000042,
      "d": 86.61418333333495,
      "v": 126
    },
    {
      "midi": 60,
      "hit": false,
      "t": 24094.491000000042,
      "d": 102.36221666666825,
      "v": 122
    },
    {
      "midi": 36,
      "hit": false,
      "t": 24307.089450000043,
      "d": 188.97639999999956,
      "v": 126
    },
    {
      "midi": 58,
      "hit": false,
      "t": 24562.99499166671,
      "d": 188.97639999999956,
      "v": 126
    },
    {
      "midi": 60,
      "hit": false,
      "t": 24562.99499166671,
      "d": 208.6614416666671,
      "v": 125
    },
    {
      "midi": 36,
      "hit": false,
      "t": 24562.99499166671,
      "d": 661.4173999999985,
      "v": 127
    },
    {
      "midi": 57,
      "hit": false,
      "t": 25035.43599166671,
      "d": 110.23623333333308,
      "v": 122
    },
    {
      "midi": 60,
      "hit": false,
      "t": 25039.373000000043,
      "d": 106.29922499999884,
      "v": 116
    },
    {
      "midi": 36,
      "hit": false,
      "t": 25271.65649166671,
      "d": 956.6930250000005,
      "v": 127
    },
    {
      "midi": 55,
      "hit": false,
      "t": 25503.939983333374,
      "d": 74.80315833333589,
      "v": 120
    },
    {
      "midi": 60,
      "hit": false,
      "t": 25507.876991666708,
      "d": 70.86615000000165,
      "v": 114
    },
    {
      "midi": 57,
      "hit": false,
      "t": 25740.160483333377,
      "d": 232.2834916666652,
      "v": 114
    },
    {
      "midi": 60,
      "hit": false,
      "t": 25740.160483333377,
      "d": 251.96853333333274,
      "v": 112
    },
    {
      "midi": 48,
      "hit": false,
      "t": 25980.31799166671,
      "d": 307.08664999999746,
      "v": 122
    },
    {
      "midi": 67,
      "hit": false,
      "t": 26452.75899166671,
      "d": 196.85041666666802,
      "v": 113
    },
    {
      "midi": 64,
      "hit": false,
      "t": 26452.75899166671,
      "d": 204.7244333333365,
      "v": 99
    },
    {
      "midi": 70,
      "hit": false,
      "t": 26452.75899166671,
      "d": 208.66144166667073,
      "v": 107
    },
    {
      "midi": 67,
      "hit": false,
      "t": 26925.199991666712,
      "d": 149.60631666666814,
      "v": 107
    },
    {
      "midi": 70,
      "hit": false,
      "t": 26925.199991666712,
      "d": 161.4173416666672,
      "v": 103
    },
    {
      "midi": 64,
      "hit": false,
      "t": 26925.199991666712,
      "d": 165.35435000000143,
      "v": 99
    },
    {
      "midi": 67,
      "hit": false,
      "t": 27393.70398333338,
      "d": 145.6693083333339,
      "v": 107
    },
    {
      "midi": 70,
      "hit": false,
      "t": 27393.70398333338,
      "d": 157.48033333333296,
      "v": 103
    },
    {
      "midi": 64,
      "hit": false,
      "t": 27393.70398333338,
      "d": 161.4173416666672,
      "v": 96
    },
    {
      "midi": 64,
      "hit": false,
      "t": 27866.14498333338,
      "d": 185.03939166666896,
      "v": 95
    },
    {
      "midi": 67,
      "hit": false,
      "t": 27870.081991666713,
      "d": 157.48033333333296,
      "v": 105
    },
    {
      "midi": 70,
      "hit": false,
      "t": 27870.081991666713,
      "d": 165.35435000000143,
      "v": 98
    },
    {
      "midi": 71,
      "hit": false,
      "t": 28342.522991666716,
      "d": 173.22836666666626,
      "v": 103
    },
    {
      "midi": 67,
      "hit": false,
      "t": 28342.522991666716,
      "d": 177.1653750000005,
      "v": 104
    },
    {
      "midi": 64,
      "hit": false,
      "t": 28342.522991666716,
      "d": 200.78742500000226,
      "v": 100
    },
    {
      "midi": 67,
      "hit": false,
      "t": 28814.96399166672,
      "d": 157.48033333333296,
      "v": 100
    },
    {
      "midi": 71,
      "hit": false,
      "t": 28814.96399166672,
      "d": 157.48033333333296,
      "v": 100
    },
    {
      "midi": 64,
      "hit": false,
      "t": 28814.96399166672,
      "d": 169.29135833333203,
      "v": 100
    },
    {
      "midi": 71,
      "hit": false,
      "t": 29279.53097500005,
      "d": 137.79529166666543,
      "v": 100
    },
    {
      "midi": 67,
      "hit": false,
      "t": 29279.53097500005,
      "d": 141.73229999999967,
      "v": 100
    },
    {
      "midi": 64,
      "hit": false,
      "t": 29279.53097500005,
      "d": 153.54332499999873,
      "v": 100
    },
    {
      "midi": 71,
      "hit": false,
      "t": 29751.971975000048,
      "d": 125.98426666666637,
      "v": 100
    },
    {
      "midi": 67,
      "hit": false,
      "t": 29751.971975000048,
      "d": 129.9212750000006,
      "v": 100
    },
    {
      "midi": 64,
      "hit": false,
      "t": 29751.971975000048,
      "d": 137.79529166666907,
      "v": 100
    },
    {
      "midi": 58,
      "hit": false,
      "t": 30232.286991666715,
      "d": 204.72443333333285,
      "v": 103
    },
    {
      "midi": 62,
      "hit": false,
      "t": 30232.286991666715,
      "d": 204.72443333333285,
      "v": 108
    },
    {
      "midi": 67,
      "hit": false,
      "t": 30232.286991666715,
      "d": 236.22049999999945,
      "v": 95
    },
    {
      "midi": 62,
      "hit": false,
      "t": 30704.727991666714,
      "d": 169.29135833333203,
      "v": 108
    },
    {
      "midi": 67,
      "hit": false,
      "t": 30704.727991666714,
      "d": 177.1653750000005,
      "v": 95
    },
    {
      "midi": 58,
      "hit": false,
      "t": 30704.727991666714,
      "d": 185.03939166666896,
      "v": 103
    },
    {
      "midi": 58,
      "hit": false,
      "t": 31161.420958333383,
      "d": 200.78742500000226,
      "v": 98
    },
    {
      "midi": 62,
      "hit": false,
      "t": 31165.357966666717,
      "d": 177.1653750000005,
      "v": 103
    },
    {
      "midi": 67,
      "hit": false,
      "t": 31165.357966666717,
      "d": 216.53545833333555,
      "v": 95
    },
    {
      "midi": 58,
      "hit": false,
      "t": 31637.79896666672,
      "d": 169.29135833333567,
      "v": 98
    },
    {
      "midi": 67,
      "hit": false,
      "t": 31637.79896666672,
      "d": 188.9764000000032,
      "v": 95
    },
    {
      "midi": 62,
      "hit": false,
      "t": 31641.735975000054,
      "d": 149.60631666666814,
      "v": 99
    },
    {
      "midi": 57,
      "hit": false,
      "t": 32106.30295833339,
      "d": 354.330750000001,
      "v": 113
    },
    {
      "midi": 60,
      "hit": false,
      "t": 32106.30295833339,
      "d": 358.2677583333352,
      "v": 107
    },
    {
      "midi": 53,
      "hit": false,
      "t": 32106.30295833339,
      "d": 602.3622749999995,
      "v": 101
    },
    {
      "midi": 57,
      "hit": false,
      "t": 32586.617975000056,
      "d": 125.98426666666637,
      "v": 101
    },
    {
      "midi": 60,
      "hit": false,
      "t": 32586.617975000056,
      "d": 133.85828333333484,
      "v": 98
    },
    {
      "midi": 63,
      "hit": false,
      "t": 32830.71249166672,
      "d": 322.8346833333344,
      "v": 124
    },
    {
      "midi": 51,
      "hit": false,
      "t": 32830.71249166672,
      "d": 858.2678166666665,
      "v": 98
    },
    {
      "midi": 57,
      "hit": false,
      "t": 32830.71249166672,
      "d": 877.9528583333304,
      "v": 109
    },
    {
      "midi": 63,
      "hit": false,
      "t": 33303.15349166672,
      "d": 149.6063166666645,
      "v": 106
    },
    {
      "midi": 62,
      "hit": false,
      "t": 33551.18501666672,
      "d": 137.79529166666907,
      "v": 97
    },
    {
      "midi": 52,
      "hit": false,
      "t": 34011.81499166672,
      "d": 90.55119166666555,
      "v": 100
    },
    {
      "midi": 55,
      "hit": false,
      "t": 34011.81499166672,
      "d": 110.23623333332944,
      "v": 110
    },
    {
      "midi": 48,
      "hit": false,
      "t": 34011.81499166672,
      "d": 122.04725833333214,
      "v": 111
    },
    {
      "midi": 36,
      "hit": false,
      "t": 34011.81499166672,
      "d": 582.6772333333356,
      "v": 116
    },
    {
      "midi": 48,
      "hit": false,
      "t": 34484.255991666716,
      "d": 51.181108333330485,
      "v": 126
    },
    {
      "midi": 57,
      "hit": false,
      "t": 34484.255991666716,
      "d": 51.181108333330485,
      "v": 123
    },
    {
      "midi": 52,
      "hit": false,
      "t": 34484.255991666716,
      "d": 62.992133333333186,
      "v": 112
    },
    {
      "midi": 43,
      "hit": false,
      "t": 34716.539483333385,
      "d": 55.11811666666472,
      "v": 110
    },
    {
      "midi": 52,
      "hit": false,
      "t": 34956.696991666715,
      "d": 51.181108333330485,
      "v": 111
    },
    {
      "midi": 48,
      "hit": false,
      "t": 34956.696991666715,
      "d": 70.86614999999438,
      "v": 116
    },
    {
      "midi": 55,
      "hit": false,
      "t": 34956.696991666715,
      "d": 70.86614999999438,
      "v": 127
    },
    {
      "midi": 43,
      "hit": false,
      "t": 35173.23245000004,
      "d": 47.24410000000353,
      "v": 111
    },
    {
      "midi": 48,
      "hit": false,
      "t": 35440.94901666671,
      "d": 216.53545833333192,
      "v": 116
    },
    {
      "midi": 52,
      "hit": false,
      "t": 35440.94901666671,
      "d": 275.59058333333087,
      "v": 111
    },
    {
      "midi": 57,
      "hit": false,
      "t": 35440.94901666671,
      "d": 334.6457083333298,
      "v": 115
    },
    {
      "midi": 43,
      "hit": false,
      "t": 35897.64198333337,
      "d": 208.66144166667073,
      "v": 111
    },
    {
      "midi": 59,
      "hit": false,
      "t": 35901.578991666705,
      "d": 129.9212750000006,
      "v": 127
    },
    {
      "midi": 62,
      "hit": false,
      "t": 35901.578991666705,
      "d": 133.85828333333484,
      "v": 127
    },
    {
      "midi": 55,
      "hit": false,
      "t": 35901.578991666705,
      "d": 157.48033333333296,
      "v": 117
    },
    {
      "midi": 50,
      "hit": false,
      "t": 36137.79949166671,
      "d": 90.55119166666555,
      "v": 127
    },
    {
      "midi": 43,
      "hit": false,
      "t": 36137.79949166671,
      "d": 334.6457083333298,
      "v": 115
    },
    {
      "midi": 64,
      "hit": false,
      "t": 36366.14597500004,
      "d": 59.05512499999895,
      "v": 110
    },
    {
      "midi": 55,
      "hit": false,
      "t": 36366.14597500004,
      "d": 78.74016666666284,
      "v": 114
    },
    {
      "midi": 59,
      "hit": false,
      "t": 36366.14597500004,
      "d": 78.74016666666284,
      "v": 123
    },
    {
      "midi": 43,
      "hit": false,
      "t": 36610.24049166671,
      "d": 641.7323583333418,
      "v": 121
    },
    {
      "midi": 50,
      "hit": false,
      "t": 36846.46099166671,
      "d": 35.43307500000083,
      "v": 110
    },
    {
      "midi": 59,
      "hit": false,
      "t": 36846.46099166671,
      "d": 66.92914166666742,
      "v": 121
    },
    {
      "midi": 55,
      "hit": false,
      "t": 36846.46099166671,
      "d": 70.86615000000165,
      "v": 113
    },
    {
      "midi": 62,
      "hit": false,
      "t": 36846.46099166671,
      "d": 70.86615000000165,
      "v": 126
    },
    {
      "midi": 50,
      "hit": false,
      "t": 37086.61850000005,
      "d": 366.1417750000037,
      "v": 127
    },
    {
      "midi": 43,
      "hit": false,
      "t": 37318.90199166672,
      "d": 110.23623333333671,
      "v": 115
    },
    {
      "midi": 59,
      "hit": false,
      "t": 37322.83900000005,
      "d": 165.35435000000143,
      "v": 127
    },
    {
      "midi": 55,
      "hit": false,
      "t": 37322.83900000005,
      "d": 185.03939166666532,
      "v": 122
    },
    {
      "midi": 64,
      "hit": false,
      "t": 37322.83900000005,
      "d": 204.72443333332922,
      "v": 120
    },
    {
      "midi": 43,
      "hit": false,
      "t": 37555.12249166671,
      "d": 110.23623333333671,
      "v": 116
    },
    {
      "midi": 62,
      "hit": false,
      "t": 37555.12249166671,
      "d": 114.17324166667095,
      "v": 116
    },
    {
      "midi": 59,
      "hit": false,
      "t": 37562.99650833338,
      "d": 102.36221666666825,
      "v": 110
    },
    {
      "midi": 52,
      "hit": false,
      "t": 37791.342991666716,
      "d": 59.05512499999895,
      "v": 116
    },
    {
      "midi": 48,
      "hit": false,
      "t": 37791.342991666716,
      "d": 70.86615000000165,
      "v": 110
    },
    {
      "midi": 36,
      "hit": false,
      "t": 37791.342991666716,
      "d": 188.97639999999956,
      "v": 112
    },
    {
      "midi": 36,
      "hit": false,
      "t": 38027.56349166672,
      "d": 425.19690000000264,
      "v": 110
    },
    {
      "midi": 48,
      "hit": false,
      "t": 38031.50050000005,
      "d": 19.685041666663892,
      "v": 101
    },
    {
      "midi": 60,
      "hit": false,
      "t": 38255.90997500005,
      "d": 303.1496416666705,
      "v": 120
    },
    {
      "midi": 55,
      "hit": false,
      "t": 38259.84698333339,
      "d": 299.21263333333627,
      "v": 96
    },
    {
      "midi": 53,
      "hit": false,
      "t": 38263.78399166672,
      "d": 70.86615000000165,
      "v": 127
    },
    {
      "midi": 48,
      "hit": false,
      "t": 38263.78399166672,
      "d": 90.55119166666555,
      "v": 118
    },
    {
      "midi": 43,
      "hit": false,
      "t": 38500.004491666725,
      "d": 145.66930833333026,
      "v": 105
    },
    {
      "midi": 36,
      "hit": false,
      "t": 38500.004491666725,
      "d": 188.97639999999956,
      "v": 110
    },
    {
      "midi": 48,
      "hit": false,
      "t": 38736.22499166673,
      "d": 125.98426666666637,
      "v": 116
    },
    {
      "midi": 36,
      "hit": false,
      "t": 38736.22499166673,
      "d": 208.66144166666345,
      "v": 117
    },
    {
      "midi": 52,
      "hit": false,
      "t": 38736.22499166673,
      "d": 228.34648333332734,
      "v": 127
    },
    {
      "midi": 36,
      "hit": false,
      "t": 38972.445491666724,
      "d": 169.2913583333284,
      "v": 112
    },
    {
      "midi": 55,
      "hit": false,
      "t": 38972.445491666724,
      "d": 196.85041666666075,
      "v": 97
    },
    {
      "midi": 60,
      "hit": false,
      "t": 38972.445491666724,
      "d": 196.85041666666075,
      "v": 117
    },
    {
      "midi": 48,
      "hit": false,
      "t": 38976.38250000006,
      "d": 82.67717499999708,
      "v": 110
    },
    {
      "midi": 43,
      "hit": false,
      "t": 39200.79197500005,
      "d": 118.11025000000518,
      "v": 114
    },
    {
      "midi": 36,
      "hit": false,
      "t": 39204.728983333385,
      "d": 188.97640000000683,
      "v": 118
    },
    {
      "midi": 60,
      "hit": false,
      "t": 39208.66599166672,
      "d": 196.8504166666753,
      "v": 122
    },
    {
      "midi": 55,
      "hit": false,
      "t": 39208.66599166672,
      "d": 208.661441666678,
      "v": 91
    },
    {
      "midi": 36,
      "hit": false,
      "t": 39437.01247500006,
      "d": 228.34648333333462,
      "v": 111
    },
    {
      "midi": 46,
      "hit": false,
      "t": 39673.232975000064,
      "d": 653.5433833333445,
      "v": 109
    },
    {
      "midi": 67,
      "hit": false,
      "t": 39681.10699166667,
      "d": 1177.1654916666666,
      "v": 1
    },
    {
      "midi": 58,
      "hit": false,
      "t": 39681.10699166667,
      "d": 1885.8269916666686,
      "v": 1
    },
    {
      "midi": 62,
      "hit": false,
      "t": 39681.10699166667,
      "d": 1885.8269916666686,
      "v": 1
    },
    {
      "midi": 58,
      "hit": false,
      "t": 39681.10699166673,
      "d": 78.74016666667012,
      "v": 112
    },
    {
      "midi": 62,
      "hit": false,
      "t": 39681.10699166673,
      "d": 86.61418333333859,
      "v": 106
    },
    {
      "midi": 53,
      "hit": false,
      "t": 39929.13851666674,
      "d": 55.11811666666472,
      "v": 96
    },
    {
      "midi": 53,
      "hit": false,
      "t": 40145.67397500007,
      "d": 74.80315833333589,
      "v": 113
    },
    {
      "midi": 58,
      "hit": false,
      "t": 40149.610983333405,
      "d": 106.29922500000248,
      "v": 113
    },
    {
      "midi": 63,
      "hit": false,
      "t": 40149.610983333405,
      "d": 106.29922500000248,
      "v": 105
    },
    {
      "midi": 46,
      "hit": false,
      "t": 40622.05198333341,
      "d": 657.4803916666715,
      "v": 105
    },
    {
      "midi": 63,
      "hit": false,
      "t": 40625.988991666745,
      "d": 204.72443333332922,
      "v": 106
    },
    {
      "midi": 67,
      "hit": false,
      "t": 40629.92600000008,
      "d": 177.16537499999686,
      "v": 105
    },
    {
      "midi": 58,
      "hit": false,
      "t": 40629.92600000008,
      "d": 405.5118583333242,
      "v": 122
    },
    {
      "midi": 62,
      "hit": false,
      "t": 40858.27248333341,
      "d": 188.97639999999956,
      "v": 100
    },
    {
      "midi": 65,
      "hit": false,
      "t": 40862.20949166667,
      "d": 704.7244916666677,
      "v": 1
    },
    {
      "midi": 53,
      "hit": false,
      "t": 41086.61896666674,
      "d": 169.29135833334294,
      "v": 105
    },
    {
      "midi": 62,
      "hit": false,
      "t": 41098.429991666744,
      "d": 133.85828333333484,
      "v": 105
    },
    {
      "midi": 58,
      "hit": false,
      "t": 41098.429991666744,
      "d": 145.66930833333754,
      "v": 110
    },
    {
      "midi": 46,
      "hit": false,
      "t": 41334.65049166675,
      "d": 216.53545833333192,
      "v": 110
    },
    {
      "midi": 60,
      "hit": false,
      "t": 41566.933983333416,
      "d": 98.42520833333401,
      "v": 105
    },
    {
      "midi": 57,
      "hit": false,
      "t": 41566.933983333416,
      "d": 110.23623333333671,
      "v": 117
    },
    {
      "midi": 53,
      "hit": false,
      "t": 41566.933983333416,
      "d": 118.11025000000518,
      "v": 105
    },
    {
      "midi": 41,
      "hit": false,
      "t": 41566.933983333416,
      "d": 149.60631666667177,
      "v": 111
    },
    {
      "midi": 57,
      "hit": false,
      "t": 41570.87099166667,
      "d": 1059.0552416666687,
      "v": 1
    },
    {
      "midi": 60,
      "hit": false,
      "t": 41570.87099166667,
      "d": 1059.0552416666687,
      "v": 1
    },
    {
      "midi": 48,
      "hit": false,
      "t": 42039.37498333342,
      "d": 51.18110833333776,
      "v": 105
    },
    {
      "midi": 53,
      "hit": false,
      "t": 42039.37498333342,
      "d": 70.86615000000165,
      "v": 108
    },
    {
      "midi": 57,
      "hit": false,
      "t": 42039.37498333342,
      "d": 74.80315833333589,
      "v": 117
    },
    {
      "midi": 62,
      "hit": false,
      "t": 42043.31199166676,
      "d": 94.48819999999978,
      "v": 105
    },
    {
      "midi": 60,
      "hit": false,
      "t": 42059.06002500009,
      "d": 78.74016666666284,
      "v": 105
    },
    {
      "midi": 41,
      "hit": false,
      "t": 42275.595483333425,
      "d": 66.92914166666742,
      "v": 105
    },
    {
      "midi": 41,
      "hit": false,
      "t": 42527.56401666676,
      "d": 527.5591166666709,
      "v": 112
    },
    {
      "midi": 57,
      "hit": false,
      "t": 42535.43803333343,
      "d": 62.992133333333186,
      "v": 112
    },
    {
      "midi": 53,
      "hit": false,
      "t": 42535.43803333343,
      "d": 70.86615000000165,
      "v": 105
    },
    {
      "midi": 60,
      "hit": false,
      "t": 42535.43803333343,
      "d": 90.55119166666555,
      "v": 108
    },
    {
      "midi": 60,
      "hit": false,
      "t": 42783.469558333425,
      "d": 43.307091666669294,
      "v": 97
    },
    {
      "midi": 53,
      "hit": false,
      "t": 43003.94202500009,
      "d": 66.9291416666747,
      "v": 106
    },
    {
      "midi": 57,
      "hit": false,
      "t": 43007.879033333425,
      "d": 51.18110833333776,
      "v": 117
    },
    {
      "midi": 62,
      "hit": false,
      "t": 43011.81604166676,
      "d": 74.80315833334316,
      "v": 105
    },
    {
      "midi": 60,
      "hit": false,
      "t": 43023.62706666676,
      "d": 7.874016666668467,
      "v": 105
    },
    {
      "midi": 52,
      "hit": false,
      "t": 43224.41449166677,
      "d": 240.15750833333004,
      "v": 112
    },
    {
      "midi": 60,
      "hit": false,
      "t": 43224.41449166677,
      "d": 358.26775833332795,
      "v": 111
    },
    {
      "midi": 55,
      "hit": false,
      "t": 43224.41449166677,
      "d": 503.9370666666582,
      "v": 113
    },
    {
      "midi": 36,
      "hit": false,
      "t": 43464.5720000001,
      "d": 472.4409999999989,
      "v": 112
    },
    {
      "midi": 52,
      "hit": false,
      "t": 43933.07599166677,
      "d": 55.11811666666472,
      "v": 105
    },
    {
      "midi": 48,
      "hit": false,
      "t": 43933.07599166677,
      "d": 82.67717499999708,
      "v": 111
    },
    {
      "midi": 62,
      "hit": false,
      "t": 43933.07599166677,
      "d": 94.48819999999978,
      "v": 105
    },
    {
      "midi": 57,
      "hit": false,
      "t": 43933.07599166677,
      "d": 110.23623333333671,
      "v": 106
    },
    {
      "midi": 36,
      "hit": false,
      "t": 44161.4224750001,
      "d": 216.53545833333192,
      "v": 106
    },
    {
      "midi": 52,
      "hit": false,
      "t": 44405.516991666766,
      "d": 78.74016666667012,
      "v": 105
    },
    {
      "midi": 63,
      "hit": false,
      "t": 44405.516991666766,
      "d": 94.48820000000705,
      "v": 109
    },
    {
      "midi": 58,
      "hit": false,
      "t": 44405.516991666766,
      "d": 110.23623333334399,
      "v": 106
    },
    {
      "midi": 36,
      "hit": false,
      "t": 44409.4540000001,
      "d": 204.72443333334377,
      "v": 116
    },
    {
      "midi": 36,
      "hit": false,
      "t": 44641.737491666776,
      "d": 433.0709166666784,
      "v": 110
    },
    {
      "midi": 52,
      "hit": false,
      "t": 44877.95799166678,
      "d": 59.05512499999895,
      "v": 105
    },
    {
      "midi": 62,
      "hit": false,
      "t": 44877.95799166678,
      "d": 70.86615000000165,
      "v": 105
    },
    {
      "midi": 55,
      "hit": false,
      "t": 44877.95799166678,
      "d": 78.74016666667012,
      "v": 105
    },
    {
      "midi": 48,
      "hit": false,
      "t": 44877.95799166678,
      "d": 118.11025000000518,
      "v": 106
    },
    {
      "midi": 36,
      "hit": false,
      "t": 45114.17849166679,
      "d": 188.97639999999956,
      "v": 108
    },
    {
      "midi": 55,
      "hit": false,
      "t": 45350.39899166679,
      "d": 94.48819999999978,
      "v": 106
    },
    {
      "midi": 58,
      "hit": false,
      "t": 45350.39899166679,
      "d": 94.48819999999978,
      "v": 105
    },
    {
      "midi": 63,
      "hit": false,
      "t": 45350.39899166679,
      "d": 118.1102499999979,
      "v": 124
    },
    {
      "midi": 36,
      "hit": false,
      "t": 45350.39899166679,
      "d": 539.3701416666663,
      "v": 109
    },
    {
      "midi": 57,
      "hit": false,
      "t": 45578.74547500013,
      "d": 208.66144166666345,
      "v": 93
    },
    {
      "midi": 62,
      "hit": false,
      "t": 45814.96597500012,
      "d": 141.7323000000033,
      "v": 105
    },
    {
      "midi": 55,
      "hit": false,
      "t": 45814.96597500012,
      "d": 145.66930833333754,
      "v": 105
    },
    {
      "midi": 48,
      "hit": false,
      "t": 45818.90298333346,
      "d": 129.9212750000006,
      "v": 108
    },
    {
      "midi": 55,
      "hit": false,
      "t": 46051.186475000126,
      "d": 358.2677583333352,
      "v": 111
    },
    {
      "midi": 48,
      "hit": false,
      "t": 46051.186475000126,
      "d": 444.88194166666653,
      "v": 107
    },
    {
      "midi": 60,
      "hit": false,
      "t": 46051.186475000126,
      "d": 543.3071500000005,
      "v": 121
    },
    {
      "midi": 36,
      "hit": false,
      "t": 46314.96603333346,
      "d": 429.1339083333296,
      "v": 117
    },
    {
      "midi": 55,
      "hit": false,
      "t": 46531.50149166679,
      "d": 90.55119166666555,
      "v": 105
    },
    {
      "midi": 48,
      "hit": false,
      "t": 46767.72199166679,
      "d": 106.29922500000248,
      "v": 121
    },
    {
      "midi": 62,
      "hit": false,
      "t": 46767.72199166679,
      "d": 192.9134083333338,
      "v": 103
    },
    {
      "midi": 55,
      "hit": false,
      "t": 46767.72199166679,
      "d": 397.637841666663,
      "v": 98
    },
    {
      "midi": 60,
      "hit": false,
      "t": 46996.068475000124,
      "d": 196.85041666666075,
      "v": 107
    },
    {
      "midi": 36,
      "hit": false,
      "t": 47015.75351666679,
      "d": 216.53545833333192,
      "v": 103
    },
    {
      "midi": 67,
      "hit": false,
      "t": 47240.16299166667,
      "d": 1177.1654916666666,
      "v": 1
    },
    {
      "midi": 58,
      "hit": false,
      "t": 47240.16299166667,
      "d": 1885.8269916666686,
      "v": 1
    },
    {
      "midi": 62,
      "hit": false,
      "t": 47240.16299166667,
      "d": 1885.8269916666686,
      "v": 1
    },
    {
      "midi": 58,
      "hit": false,
      "t": 47240.16299166679,
      "d": 212.59845000000496,
      "v": 105
    },
    {
      "midi": 53,
      "hit": false,
      "t": 47240.16299166679,
      "d": 267.7165666666697,
      "v": 105
    },
    {
      "midi": 62,
      "hit": false,
      "t": 47240.16299166679,
      "d": 381.88980833333335,
      "v": 105
    },
    {
      "midi": 46,
      "hit": false,
      "t": 47251.97401666679,
      "d": 519.6851000000024,
      "v": 115
    },
    {
      "midi": 58,
      "hit": false,
      "t": 47724.41501666679,
      "d": 11.8110250000027,
      "v": 88
    },
    {
      "midi": 53,
      "hit": false,
      "t": 47728.352025000124,
      "d": 35.43307500000083,
      "v": 105
    },
    {
      "midi": 53,
      "hit": false,
      "t": 47960.63551666679,
      "d": 47.24410000000353,
      "v": 101
    },
    {
      "midi": 53,
      "hit": false,
      "t": 48177.17097500013,
      "d": 94.48819999999978,
      "v": 105
    },
    {
      "midi": 58,
      "hit": false,
      "t": 48177.17097500013,
      "d": 129.9212750000006,
      "v": 113
    },
    {
      "midi": 62,
      "hit": false,
      "t": 48177.17097500013,
      "d": 181.1023833333311,
      "v": 105
    },
    {
      "midi": 46,
      "hit": false,
      "t": 48185.0449916668,
      "d": 496.063049999997,
      "v": 115
    },
    {
      "midi": 53,
      "hit": false,
      "t": 48413.39147500013,
      "d": 78.74016666667012,
      "v": 105
    },
    {
      "midi": 65,
      "hit": false,
      "t": 48421.26549166667,
      "d": 704.7244916666677,
      "v": 1
    },
    {
      "midi": 53,
      "hit": false,
      "t": 48637.80095000013,
      "d": 248.0315250000058,
      "v": 106
    },
    {
      "midi": 58,
      "hit": false,
      "t": 48645.6749666668,
      "d": 157.48033333333296,
      "v": 124
    },
    {
      "midi": 62,
      "hit": false,
      "t": 48645.6749666668,
      "d": 181.10238333333837,
      "v": 105
    },
    {
      "midi": 2,
      "hit": false,
      "t": 48807.092308333464,
      "d": 5590.551833333382,
      "v": 82
    },
    {
      "midi": 1,
      "hit": false,
      "t": 48814.96632500013,
      "d": 5582.677816666714,
      "v": 73
    },
    {
      "midi": 53,
      "hit": false,
      "t": 48893.7064916668,
      "d": 165.35435000000143,
      "v": 105
    },
    {
      "midi": 60,
      "hit": false,
      "t": 48893.7064916668,
      "d": 220.47246666666615,
      "v": 109
    },
    {
      "midi": 57,
      "hit": false,
      "t": 48897.64350000014,
      "d": 157.48033333333296,
      "v": 123
    },
    {
      "midi": 41,
      "hit": false,
      "t": 49110.241950000134,
      "d": 102.36221666666825,
      "v": 117
    },
    {
      "midi": 57,
      "hit": false,
      "t": 49129.926991666674,
      "d": 1059.0552416666687,
      "v": 1
    },
    {
      "midi": 60,
      "hit": false,
      "t": 49129.926991666674,
      "d": 1059.0552416666687,
      "v": 1
    },
    {
      "midi": 41,
      "hit": false,
      "t": 49358.27347500013,
      "d": 165.35435000000143,
      "v": 105
    },
    {
      "midi": 48,
      "hit": false,
      "t": 49586.61995833347,
      "d": 192.91340833334107,
      "v": 126
    },
    {
      "midi": 53,
      "hit": false,
      "t": 49594.493975000136,
      "d": 141.7323000000033,
      "v": 106
    },
    {
      "midi": 57,
      "hit": false,
      "t": 49594.493975000136,
      "d": 177.16537500000413,
      "v": 118
    },
    {
      "midi": 60,
      "hit": false,
      "t": 49594.493975000136,
      "d": 185.0393916666726,
      "v": 108
    },
    {
      "midi": 41,
      "hit": false,
      "t": 50078.746000000145,
      "d": 503.93706666667276,
      "v": 116
    },
    {
      "midi": 53,
      "hit": false,
      "t": 50279.53342500015,
      "d": 70.86615000000165,
      "v": 105
    },
    {
      "midi": 48,
      "hit": false,
      "t": 50543.31298333348,
      "d": 66.92914166666742,
      "v": 105
    },
    {
      "midi": 53,
      "hit": false,
      "t": 50543.31298333348,
      "d": 78.74016666667012,
      "v": 106
    },
    {
      "midi": 60,
      "hit": false,
      "t": 50547.24999166682,
      "d": 78.74016666667012,
      "v": 109
    },
    {
      "midi": 57,
      "hit": false,
      "t": 50547.24999166682,
      "d": 110.23623333333671,
      "v": 118
    },
    {
      "midi": 55,
      "hit": false,
      "t": 50775.59647500015,
      "d": 177.16537500000413,
      "v": 116
    },
    {
      "midi": 60,
      "hit": false,
      "t": 50779.533483333485,
      "d": 161.4173416666672,
      "v": 105
    },
    {
      "midi": 52,
      "hit": false,
      "t": 50783.47049166682,
      "d": 161.4173416666672,
      "v": 105
    },
    {
      "midi": 36,
      "hit": false,
      "t": 51019.69099166682,
      "d": 374.0157916666649,
      "v": 121
    },
    {
      "midi": 57,
      "hit": false,
      "t": 51480.32096666682,
      "d": 129.9212750000006,
      "v": 119
    },
    {
      "midi": 48,
      "hit": false,
      "t": 51492.13199166682,
      "d": 82.67717499999708,
      "v": 115
    },
    {
      "midi": 62,
      "hit": false,
      "t": 51492.13199166682,
      "d": 86.61418333333131,
      "v": 105
    },
    {
      "midi": 36,
      "hit": false,
      "t": 51492.13199166682,
      "d": 279.5275916666651,
      "v": 119
    },
    {
      "midi": 57,
      "hit": false,
      "t": 51948.824958333484,
      "d": 185.0393916666726,
      "v": 111
    },
    {
      "midi": 48,
      "hit": false,
      "t": 51948.824958333484,
      "d": 334.6457083333444,
      "v": 93
    },
    {
      "midi": 36,
      "hit": false,
      "t": 51960.63598333349,
      "d": 338.5827166666786,
      "v": 122
    },
    {
      "midi": 60,
      "hit": false,
      "t": 51964.57299166682,
      "d": 70.86615000000165,
      "v": 105
    },
    {
      "midi": 55,
      "hit": false,
      "t": 52185.04545833349,
      "d": 110.23623333334399,
      "v": 124
    },
    {
      "midi": 60,
      "hit": false,
      "t": 52196.85648333349,
      "d": 78.74016666667012,
      "v": 105
    },
    {
      "midi": 55,
      "hit": false,
      "t": 52421.2659583335,
      "d": 236.22050000000309,
      "v": 90
    },
    {
      "midi": 60,
      "hit": false,
      "t": 52421.2659583335,
      "d": 236.22050000000309,
      "v": 90
    },
    {
      "midi": 36,
      "hit": false,
      "t": 52433.0769833335,
      "d": 326.77169166666863,
      "v": 124
    },
    {
      "midi": 36,
      "hit": false,
      "t": 52901.58097500017,
      "d": 236.22050000000309,
      "v": 121
    },
    {
      "midi": 55,
      "hit": false,
      "t": 52909.45499166684,
      "d": 66.92914166666742,
      "v": 118
    },
    {
      "midi": 60,
      "hit": false,
      "t": 52909.45499166684,
      "d": 66.92914166666742,
      "v": 127
    },
    {
      "midi": 48,
      "hit": false,
      "t": 52909.45499166684,
      "d": 74.80315833333589,
      "v": 105
    },
    {
      "midi": 55,
      "hit": false,
      "t": 53377.958983333505,
      "d": 464.5669833333304,
      "v": 113
    },
    {
      "midi": 62,
      "hit": false,
      "t": 53377.958983333505,
      "d": 464.5669833333304,
      "v": 105
    },
    {
      "midi": 43,
      "hit": false,
      "t": 53377.958983333505,
      "d": 901.5749083333358,
      "v": 115
    },
    {
      "midi": 55,
      "hit": false,
      "t": 53877.959041666836,
      "d": 196.85041666666802,
      "v": 111
    },
    {
      "midi": 57,
      "hit": false,
      "t": 54106.30552500017,
      "d": 110.23623333333671,
      "v": 97
    },
    {
      "midi": 55,
      "hit": false,
      "t": 54322.84098333351,
      "d": 188.97639999999956,
      "v": 106
    },
    {
      "midi": 60,
      "hit": false,
      "t": 54330.71500000018,
      "d": 157.48033333333296,
      "v": 94
    },
    {
      "midi": 57,
      "hit": false,
      "t": 54555.12447500018,
      "d": 90.55119166666555,
      "v": 94
    },
    {
      "midi": 52,
      "hit": false,
      "t": 54555.12447500018,
      "d": 98.42520833333401,
      "v": 90
    },
    {
      "midi": 52,
      "hit": false,
      "t": 54799.21899166684,
      "d": 90.55119166666555,
      "v": 100
    },
    {
      "midi": 55,
      "hit": false,
      "t": 54799.21899166684,
      "d": 110.23623333332944,
      "v": 110
    },
    {
      "midi": 48,
      "hit": false,
      "t": 54799.21899166684,
      "d": 122.04725833333214,
      "v": 111
    },
    {
      "midi": 60,
      "hit": false,
      "t": 54799.21899166684,
      "d": 196.85041666666802,
      "v": 98
    },
    {
      "midi": 36,
      "hit": false,
      "t": 54799.21899166684,
      "d": 582.6772333333356,
      "v": 116
    },
    {
      "midi": 48,
      "hit": false,
      "t": 55271.65999166684,
      "d": 51.181108333330485,
      "v": 126
    },
    {
      "midi": 57,
      "hit": false,
      "t": 55271.65999166684,
      "d": 51.181108333330485,
      "v": 123
    },
    {
      "midi": 52,
      "hit": false,
      "t": 55271.65999166684,
      "d": 62.992133333333186,
      "v": 112
    },
    {
      "midi": 43,
      "hit": false,
      "t": 55503.94348333351,
      "d": 55.11811666666472,
      "v": 110
    },
    {
      "midi": 52,
      "hit": false,
      "t": 55744.10099166684,
      "d": 51.181108333330485,
      "v": 111
    },
    {
      "midi": 48,
      "hit": false,
      "t": 55744.10099166684,
      "d": 70.86614999999438,
      "v": 116
    },
    {
      "midi": 55,
      "hit": false,
      "t": 55744.10099166684,
      "d": 70.86614999999438,
      "v": 127
    },
    {
      "midi": 43,
      "hit": false,
      "t": 55960.636450000165,
      "d": 47.24410000000353,
      "v": 111
    },
    {
      "midi": 48,
      "hit": false,
      "t": 56228.353016666835,
      "d": 216.53545833333192,
      "v": 116
    },
    {
      "midi": 52,
      "hit": false,
      "t": 56228.353016666835,
      "d": 275.59058333333087,
      "v": 111
    },
    {
      "midi": 57,
      "hit": false,
      "t": 56228.353016666835,
      "d": 334.6457083333298,
      "v": 115
    },
    {
      "midi": 36,
      "hit": false,
      "t": 56685.0459833335,
      "d": 208.66144166667073,
      "v": 111
    },
    {
      "midi": 52,
      "hit": false,
      "t": 56688.98299166683,
      "d": 129.9212750000006,
      "v": 127
    },
    {
      "midi": 55,
      "hit": false,
      "t": 56688.98299166683,
      "d": 133.85828333333484,
      "v": 127
    },
    {
      "midi": 48,
      "hit": false,
      "t": 56688.98299166683,
      "d": 157.48033333333296,
      "v": 117
    },
    {
      "midi": 43,
      "hit": false,
      "t": 56925.203491666834,
      "d": 90.55119166666555,
      "v": 127
    },
    {
      "midi": 36,
      "hit": false,
      "t": 56925.203491666834,
      "d": 334.6457083333298,
      "v": 115
    },
    {
      "midi": 57,
      "hit": false,
      "t": 57153.54997500017,
      "d": 59.05512499999895,
      "v": 110
    },
    {
      "midi": 48,
      "hit": false,
      "t": 57153.54997500017,
      "d": 78.74016666666284,
      "v": 114
    },
    {
      "midi": 52,
      "hit": false,
      "t": 57153.54997500017,
      "d": 78.74016666666284,
      "v": 123
    },
    {
      "midi": 36,
      "hit": false,
      "t": 57397.64449166683,
      "d": 641.7323583333418,
      "v": 121
    },
    {
      "midi": 43,
      "hit": false,
      "t": 57633.86499166684,
      "d": 35.43307500000083,
      "v": 110
    },
    {
      "midi": 52,
      "hit": false,
      "t": 57633.86499166684,
      "d": 66.92914166666742,
      "v": 121
    },
    {
      "midi": 48,
      "hit": false,
      "t": 57633.86499166684,
      "d": 70.86615000000165,
      "v": 113
    },
    {
      "midi": 55,
      "hit": false,
      "t": 57633.86499166684,
      "d": 70.86615000000165,
      "v": 126
    },
    {
      "midi": 43,
      "hit": false,
      "t": 57874.022500000174,
      "d": 366.1417750000037,
      "v": 127
    },
    {
      "midi": 36,
      "hit": false,
      "t": 58106.30599166684,
      "d": 110.23623333333671,
      "v": 115
    },
    {
      "midi": 52,
      "hit": false,
      "t": 58110.24300000018,
      "d": 165.35435000000143,
      "v": 127
    },
    {
      "midi": 48,
      "hit": false,
      "t": 58110.24300000018,
      "d": 185.03939166666532,
      "v": 122
    },
    {
      "midi": 57,
      "hit": false,
      "t": 58110.24300000018,
      "d": 204.72443333332922,
      "v": 120
    },
    {
      "midi": 36,
      "hit": false,
      "t": 58342.52649166684,
      "d": 110.23623333333671,
      "v": 116
    },
    {
      "midi": 55,
      "hit": false,
      "t": 58342.52649166684,
      "d": 114.17324166667095,
      "v": 116
    },
    {
      "midi": 52,
      "hit": false,
      "t": 58350.40050833351,
      "d": 102.36221666666825,
      "v": 110
    },
    {
      "midi": 54,
      "hit": false,
      "t": 58578.74699166684,
      "d": 59.05512499999895,
      "v": 116
    },
    {
      "midi": 50,
      "hit": false,
      "t": 58578.74699166684,
      "d": 70.86615000000165,
      "v": 110
    },
    {
      "midi": 38,
      "hit": false,
      "t": 58578.74699166684,
      "d": 877.9528583333231,
      "v": 112
    },
    {
      "midi": 50,
      "hit": false,
      "t": 58818.90450000018,
      "d": 19.685041666663892,
      "v": 101
    },
    {
      "midi": 55,
      "hit": false,
      "t": 59051.18799166684,
      "d": 70.86615000000165,
      "v": 127
    },
    {
      "midi": 50,
      "hit": false,
      "t": 59051.18799166684,
      "d": 90.55119166666555,
      "v": 118
    },
    {
      "midi": 45,
      "hit": false,
      "t": 59287.408491666836,
      "d": 145.66930833333026,
      "v": 105
    },
    {
      "midi": 38,
      "hit": false,
      "t": 59511.81796666683,
      "d": 830.7087583333414,
      "v": 114
    },
    {
      "midi": 50,
      "hit": false,
      "t": 59523.62899166683,
      "d": 125.98426666666637,
      "v": 116
    },
    {
      "midi": 54,
      "hit": false,
      "t": 59523.62899166683,
      "d": 228.34648333333462,
      "v": 127
    },
    {
      "midi": 50,
      "hit": false,
      "t": 59763.78650000017,
      "d": 82.67717499999708,
      "v": 110
    },
    {
      "midi": 45,
      "hit": false,
      "t": 59988.19597500017,
      "d": 118.1102499999979,
      "v": 114
    },
    {
      "midi": 41,
      "hit": false,
      "t": 60448.82595000017,
      "d": 740.1575666666686,
      "v": 113
    },
    {
      "midi": 63,
      "hit": false,
      "t": 60468.51099166684,
      "d": 129.9212750000006,
      "v": 118
    },
    {
      "midi": 57,
      "hit": false,
      "t": 60468.51099166684,
      "d": 137.79529166666907,
      "v": 110
    },
    {
      "midi": 57,
      "hit": false,
      "t": 60688.9834583335,
      "d": 188.97640000000683,
      "v": 110
    },
    {
      "midi": 63,
      "hit": false,
      "t": 60696.85747500017,
      "d": 169.29135833333567,
      "v": 113
    },
    {
      "midi": 57,
      "hit": false,
      "t": 60940.95199166684,
      "d": 169.29135833333567,
      "v": 110
    },
    {
      "midi": 62,
      "hit": false,
      "t": 60940.95199166684,
      "d": 169.29135833333567,
      "v": 106
    },
    {
      "midi": 53,
      "hit": false,
      "t": 61169.29847500018,
      "d": 303.14964166666323,
      "v": 106
    },
    {
      "midi": 57,
      "hit": false,
      "t": 61413.39299166684,
      "d": 157.48033333333296,
      "v": 116
    },
    {
      "midi": 62,
      "hit": false,
      "t": 61413.39299166684,
      "d": 169.29135833333567,
      "v": 110
    },
    {
      "midi": 72,
      "hit": false,
      "t": 61641.73947500018,
      "d": 129.9212750000006,
      "v": 106
    },
    {
      "midi": 60,
      "hit": false,
      "t": 61641.73947500018,
      "d": 141.7323000000033,
      "v": 126
    },
    {
      "midi": 53,
      "hit": false,
      "t": 61877.95997500018,
      "d": 51.181108333330485,
      "v": 110
    },
    {
      "midi": 41,
      "hit": false,
      "t": 61905.51903333351,
      "d": 114.17324166666367,
      "v": 108
    },
    {
      "midi": 41,
      "hit": false,
      "t": 62141.73953333351,
      "d": 149.6063166666645,
      "v": 106
    },
    {
      "midi": 62,
      "hit": false,
      "t": 62358.27499166684,
      "d": 110.23623333333671,
      "v": 127
    },
    {
      "midi": 67,
      "hit": false,
      "t": 62358.27499166684,
      "d": 110.23623333333671,
      "v": 127
    },
    {
      "midi": 43,
      "hit": false,
      "t": 62362.212000000174,
      "d": 125.98426666666637,
      "v": 114
    },
    {
      "midi": 43,
      "hit": false,
      "t": 62586.621475000175,
      "d": 137.79529166666907,
      "v": 111
    },
    {
      "midi": 60,
      "hit": false,
      "t": 62830.715991666846,
      "d": 129.9212750000006,
      "v": 127
    },
    {
      "midi": 65,
      "hit": false,
      "t": 62830.715991666846,
      "d": 129.9212750000006,
      "v": 127
    },
    {
      "midi": 64,
      "hit": false,
      "t": 63303.156991666845,
      "d": 129.9212750000006,
      "v": 127
    },
    {
      "midi": 67,
      "hit": false,
      "t": 63303.156991666845,
      "d": 129.9212750000006,
      "v": 127
    },
    {
      "midi": 58,
      "hit": false,
      "t": 63775.597991666844,
      "d": 129.9212750000006,
      "v": 127
    },
    {
      "midi": 62,
      "hit": false,
      "t": 63775.597991666844,
      "d": 129.9212750000006,
      "v": 98
    },
    {
      "midi": 43,
      "hit": false,
      "t": 64003.94447500018,
      "d": 125.98426666666637,
      "v": 109
    },
    {
      "midi": 43,
      "hit": false,
      "t": 64232.29095833351,
      "d": 141.73230000001058,
      "v": 95
    },
    {
      "midi": 55,
      "hit": false,
      "t": 64248.03899166685,
      "d": 110.23623333333671,
      "v": 116
    },
    {
      "midi": 59,
      "hit": false,
      "t": 64248.03899166685,
      "d": 110.23623333333671,
      "v": 119
    },
    {
      "midi": 58,
      "hit": false,
      "t": 64720.479991666856,
      "d": 149.6063166666645,
      "v": 115
    },
    {
      "midi": 63,
      "hit": false,
      "t": 64720.479991666856,
      "d": 149.6063166666645,
      "v": 126
    },
    {
      "midi": 57,
      "hit": false,
      "t": 65192.920991666855,
      "d": 149.6063166666645,
      "v": 115
    },
    {
      "midi": 62,
      "hit": false,
      "t": 65192.920991666855,
      "d": 169.2913583333284,
      "v": 124
    },
    {
      "midi": 43,
      "hit": false,
      "t": 65452.76354166685,
      "d": 137.79529166666907,
      "v": 95
    },
    {
      "midi": 60,
      "hit": false,
      "t": 65665.36199166685,
      "d": 165.35434999999416,
      "v": 121
    },
    {
      "midi": 55,
      "hit": false,
      "t": 65665.36199166685,
      "d": 173.22836666666262,
      "v": 115
    },
    {
      "midi": 43,
      "hit": false,
      "t": 65665.36199166685,
      "d": 188.97639999999956,
      "v": 101
    },
    {
      "midi": 43,
      "hit": false,
      "t": 65893.70847500018,
      "d": 244.09451666666428,
      "v": 111
    },
    {
      "midi": 36,
      "hit": false,
      "t": 66137.80299166685,
      "d": 1566.9293166666903,
      "v": 127
    },
    {
      "midi": 55,
      "hit": false,
      "t": 66606.30698333352,
      "d": 409.448866666673,
      "v": 125
    },
    {
      "midi": 60,
      "hit": false,
      "t": 66606.30698333352,
      "d": 409.448866666673,
      "v": 126
    },
    {
      "midi": 55,
      "hit": false,
      "t": 67074.81097500019,
      "d": 102.36221666667552,
      "v": 104
    },
    {
      "midi": 60,
      "hit": false,
      "t": 67082.68499166686,
      "d": 78.74016666667012,
      "v": 108
    },
    {
      "midi": 55,
      "hit": false,
      "t": 67311.0314750002,
      "d": 106.2992249999952,
      "v": 104
    },
    {
      "midi": 57,
      "hit": false,
      "t": 67559.0630000002,
      "d": 86.61418333333859,
      "v": 126
    },
    {
      "midi": 60,
      "hit": false,
      "t": 67559.0630000002,
      "d": 102.36221666667552,
      "v": 122
    },
    {
      "midi": 36,
      "hit": false,
      "t": 67771.6614500002,
      "d": 188.97639999999956,
      "v": 126
    },
    {
      "midi": 58,
      "hit": false,
      "t": 68027.56699166687,
      "d": 188.97639999999956,
      "v": 126
    },
    {
      "midi": 60,
      "hit": false,
      "t": 68027.56699166687,
      "d": 208.66144166667073,
      "v": 125
    },
    {
      "midi": 36,
      "hit": false,
      "t": 68027.56699166687,
      "d": 661.4174000000057,
      "v": 127
    },
    {
      "midi": 57,
      "hit": false,
      "t": 68500.00799166688,
      "d": 110.23623333332944,
      "v": 122
    },
    {
      "midi": 60,
      "hit": false,
      "t": 68503.94500000021,
      "d": 106.2992249999952,
      "v": 116
    },
    {
      "midi": 36,
      "hit": false,
      "t": 68736.22849166687,
      "d": 956.6930249999859,
      "v": 127
    },
    {
      "midi": 55,
      "hit": false,
      "t": 68968.51198333353,
      "d": 74.80315833333589,
      "v": 120
    },
    {
      "midi": 60,
      "hit": false,
      "t": 68972.44899166687,
      "d": 70.86615000000165,
      "v": 114
    },
    {
      "midi": 57,
      "hit": false,
      "t": 69204.73248333353,
      "d": 232.28349166666158,
      "v": 114
    },
    {
      "midi": 60,
      "hit": false,
      "t": 69204.73248333353,
      "d": 251.96853333333274,
      "v": 112
    },
    {
      "midi": 48,
      "hit": false,
      "t": 69444.88999166686,
      "d": 307.08664999999746,
      "v": 122
    },
    {
      "midi": 67,
      "hit": false,
      "t": 69917.33099166685,
      "d": 196.85041666666802,
      "v": 113
    },
    {
      "midi": 64,
      "hit": false,
      "t": 69917.33099166685,
      "d": 204.7244333333365,
      "v": 99
    },
    {
      "midi": 70,
      "hit": false,
      "t": 69917.33099166685,
      "d": 208.66144166667073,
      "v": 107
    },
    {
      "midi": 67,
      "hit": false,
      "t": 70389.77199166686,
      "d": 149.60631666667177,
      "v": 107
    },
    {
      "midi": 70,
      "hit": false,
      "t": 70389.77199166686,
      "d": 161.41734166667447,
      "v": 103
    },
    {
      "midi": 64,
      "hit": false,
      "t": 70389.77199166686,
      "d": 165.3543500000087,
      "v": 99
    },
    {
      "midi": 67,
      "hit": false,
      "t": 70858.27598333353,
      "d": 145.66930833333754,
      "v": 107
    },
    {
      "midi": 70,
      "hit": false,
      "t": 70858.27598333353,
      "d": 157.48033333334024,
      "v": 103
    },
    {
      "midi": 64,
      "hit": false,
      "t": 70858.27598333353,
      "d": 161.41734166667447,
      "v": 96
    },
    {
      "midi": 64,
      "hit": false,
      "t": 71330.71698333354,
      "d": 185.03939166667988,
      "v": 95
    },
    {
      "midi": 67,
      "hit": false,
      "t": 71334.65399166687,
      "d": 157.48033333334024,
      "v": 105
    },
    {
      "midi": 70,
      "hit": false,
      "t": 71334.65399166687,
      "d": 165.3543500000087,
      "v": 98
    },
    {
      "midi": 71,
      "hit": false,
      "t": 71807.09499166688,
      "d": 173.22836666666262,
      "v": 103
    },
    {
      "midi": 67,
      "hit": false,
      "t": 71807.09499166688,
      "d": 177.16537499999686,
      "v": 104
    },
    {
      "midi": 64,
      "hit": false,
      "t": 71807.09499166688,
      "d": 200.78742500000226,
      "v": 100
    },
    {
      "midi": 67,
      "hit": false,
      "t": 72279.53599166688,
      "d": 157.48033333334024,
      "v": 100
    },
    {
      "midi": 71,
      "hit": false,
      "t": 72279.53599166688,
      "d": 157.48033333334024,
      "v": 100
    },
    {
      "midi": 64,
      "hit": false,
      "t": 72279.53599166688,
      "d": 169.29135833334294,
      "v": 100
    },
    {
      "midi": 71,
      "hit": false,
      "t": 72744.10297500022,
      "d": 137.79529166666907,
      "v": 100
    },
    {
      "midi": 67,
      "hit": false,
      "t": 72744.10297500022,
      "d": 141.7323000000033,
      "v": 100
    },
    {
      "midi": 64,
      "hit": false,
      "t": 72744.10297500022,
      "d": 153.543325000006,
      "v": 100
    },
    {
      "midi": 71,
      "hit": false,
      "t": 73216.54397500023,
      "d": 125.98426666666637,
      "v": 100
    },
    {
      "midi": 67,
      "hit": false,
      "t": 73216.54397500023,
      "d": 129.9212750000006,
      "v": 100
    },
    {
      "midi": 64,
      "hit": false,
      "t": 73216.54397500023,
      "d": 137.79529166666907,
      "v": 100
    },
    {
      "midi": 58,
      "hit": false,
      "t": 73696.8589916669,
      "d": 204.7244333333365,
      "v": 103
    },
    {
      "midi": 62,
      "hit": false,
      "t": 73696.8589916669,
      "d": 204.7244333333365,
      "v": 108
    },
    {
      "midi": 67,
      "hit": false,
      "t": 73696.8589916669,
      "d": 236.22050000001036,
      "v": 95
    },
    {
      "midi": 62,
      "hit": false,
      "t": 74169.2999916669,
      "d": 169.2913583333284,
      "v": 108
    },
    {
      "midi": 67,
      "hit": false,
      "t": 74169.2999916669,
      "d": 177.16537499999686,
      "v": 95
    },
    {
      "midi": 58,
      "hit": false,
      "t": 74169.2999916669,
      "d": 185.03939166666532,
      "v": 103
    },
    {
      "midi": 58,
      "hit": false,
      "t": 74625.99295833358,
      "d": 200.78742500000226,
      "v": 98
    },
    {
      "midi": 62,
      "hit": false,
      "t": 74629.92996666691,
      "d": 177.16537499999686,
      "v": 103
    },
    {
      "midi": 67,
      "hit": false,
      "t": 74629.92996666691,
      "d": 216.5354583333392,
      "v": 95
    },
    {
      "midi": 58,
      "hit": false,
      "t": 75102.37096666692,
      "d": 169.29135833334294,
      "v": 98
    },
    {
      "midi": 67,
      "hit": false,
      "t": 75102.37096666692,
      "d": 188.9764000000141,
      "v": 95
    },
    {
      "midi": 62,
      "hit": false,
      "t": 75106.30797500025,
      "d": 149.60631666667177,
      "v": 99
    },
    {
      "midi": 57,
      "hit": false,
      "t": 75570.8749583336,
      "d": 354.3307499999937,
      "v": 113
    },
    {
      "midi": 60,
      "hit": false,
      "t": 75570.8749583336,
      "d": 358.26775833332795,
      "v": 107
    },
    {
      "midi": 53,
      "hit": false,
      "t": 75570.8749583336,
      "d": 602.3622749999922,
      "v": 101
    },
    {
      "midi": 57,
      "hit": false,
      "t": 76051.18997500026,
      "d": 125.98426666666637,
      "v": 101
    },
    {
      "midi": 60,
      "hit": false,
      "t": 76051.18997500026,
      "d": 133.85828333333484,
      "v": 98
    },
    {
      "midi": 63,
      "hit": false,
      "t": 76295.28449166693,
      "d": 322.8346833333344,
      "v": 124
    },
    {
      "midi": 51,
      "hit": false,
      "t": 76295.28449166693,
      "d": 858.2678166666738,
      "v": 98
    },
    {
      "midi": 57,
      "hit": false,
      "t": 76295.28449166693,
      "d": 877.9528583333449,
      "v": 109
    },
    {
      "midi": 63,
      "hit": false,
      "t": 76767.72549166693,
      "d": 149.60631666667177,
      "v": 106
    },
    {
      "midi": 62,
      "hit": false,
      "t": 77015.75701666693,
      "d": 137.79529166666907,
      "v": 97
    },
    {
      "midi": 52,
      "hit": false,
      "t": 77476.38699166694,
      "d": 90.55119166667282,
      "v": 100
    },
    {
      "midi": 55,
      "hit": false,
      "t": 77476.38699166694,
      "d": 110.23623333334399,
      "v": 110
    },
    {
      "midi": 48,
      "hit": false,
      "t": 77476.38699166694,
      "d": 122.04725833334669,
      "v": 111
    },
    {
      "midi": 36,
      "hit": false,
      "t": 77476.38699166694,
      "d": 582.6772333333356,
      "v": 116
    },
    {
      "midi": 48,
      "hit": false,
      "t": 77948.82799166694,
      "d": 51.181108333330485,
      "v": 126
    },
    {
      "midi": 57,
      "hit": false,
      "t": 77948.82799166694,
      "d": 51.181108333330485,
      "v": 123
    },
    {
      "midi": 52,
      "hit": false,
      "t": 77948.82799166694,
      "d": 62.992133333333186,
      "v": 112
    },
    {
      "midi": 43,
      "hit": false,
      "t": 78181.1114833336,
      "d": 55.11811666666472,
      "v": 110
    },
    {
      "midi": 52,
      "hit": false,
      "t": 78421.26899166693,
      "d": 51.181108333330485,
      "v": 111
    },
    {
      "midi": 48,
      "hit": false,
      "t": 78421.26899166693,
      "d": 70.86615000000165,
      "v": 116
    },
    {
      "midi": 55,
      "hit": false,
      "t": 78421.26899166693,
      "d": 70.86615000000165,
      "v": 127
    },
    {
      "midi": 43,
      "hit": false,
      "t": 78637.80445000027,
      "d": 47.24409999999625,
      "v": 111
    },
    {
      "midi": 48,
      "hit": false,
      "t": 78905.52101666694,
      "d": 216.5354583333392,
      "v": 116
    },
    {
      "midi": 52,
      "hit": false,
      "t": 78905.52101666694,
      "d": 275.59058333333815,
      "v": 111
    },
    {
      "midi": 57,
      "hit": false,
      "t": 78905.52101666694,
      "d": 334.6457083333371,
      "v": 115
    },
    {
      "midi": 43,
      "hit": false,
      "t": 79362.21398333361,
      "d": 208.66144166667073,
      "v": 111
    },
    {
      "midi": 59,
      "hit": false,
      "t": 79366.15099166695,
      "d": 129.9212750000006,
      "v": 127
    },
    {
      "midi": 62,
      "hit": false,
      "t": 79366.15099166695,
      "d": 133.85828333333484,
      "v": 127
    },
    {
      "midi": 55,
      "hit": false,
      "t": 79366.15099166695,
      "d": 157.48033333334024,
      "v": 117
    },
    {
      "midi": 50,
      "hit": false,
      "t": 79602.37149166696,
      "d": 90.55119166667282,
      "v": 127
    },
    {
      "midi": 43,
      "hit": false,
      "t": 79602.37149166696,
      "d": 334.64570833335165,
      "v": 115
    },
    {
      "midi": 64,
      "hit": false,
      "t": 79830.7179750003,
      "d": 59.05512499999895,
      "v": 110
    },
    {
      "midi": 55,
      "hit": false,
      "t": 79830.7179750003,
      "d": 78.74016666667012,
      "v": 114
    },
    {
      "midi": 59,
      "hit": false,
      "t": 79830.7179750003,
      "d": 78.74016666667012,
      "v": 123
    },
    {
      "midi": 43,
      "hit": false,
      "t": 80074.81249166698,
      "d": 641.73235833332,
      "v": 121
    },
    {
      "midi": 50,
      "hit": false,
      "t": 80311.03299166697,
      "d": 35.43307499999355,
      "v": 110
    },
    {
      "midi": 59,
      "hit": false,
      "t": 80311.03299166697,
      "d": 66.92914166666742,
      "v": 121
    },
    {
      "midi": 55,
      "hit": false,
      "t": 80311.03299166697,
      "d": 70.86615000000165,
      "v": 113
    },
    {
      "midi": 62,
      "hit": false,
      "t": 80311.03299166697,
      "d": 70.86615000000165,
      "v": 126
    },
    {
      "midi": 50,
      "hit": false,
      "t": 80551.1905000003,
      "d": 366.1417749999964,
      "v": 127
    },
    {
      "midi": 43,
      "hit": false,
      "t": 80783.47399166696,
      "d": 110.23623333332944,
      "v": 115
    },
    {
      "midi": 59,
      "hit": false,
      "t": 80787.4110000003,
      "d": 165.35434999999416,
      "v": 127
    },
    {
      "midi": 55,
      "hit": false,
      "t": 80787.4110000003,
      "d": 185.03939166666532,
      "v": 122
    },
    {
      "midi": 64,
      "hit": false,
      "t": 80787.4110000003,
      "d": 204.7244333333365,
      "v": 120
    },
    {
      "midi": 43,
      "hit": false,
      "t": 81019.69449166697,
      "d": 110.23623333332944,
      "v": 116
    },
    {
      "midi": 62,
      "hit": false,
      "t": 81019.69449166697,
      "d": 114.17324166666367,
      "v": 116
    },
    {
      "midi": 59,
      "hit": false,
      "t": 81027.56850833364,
      "d": 102.36221666666097,
      "v": 110
    },
    {
      "midi": 52,
      "hit": false,
      "t": 81255.91499166697,
      "d": 59.05512499999895,
      "v": 116
    },
    {
      "midi": 48,
      "hit": false,
      "t": 81255.91499166697,
      "d": 70.86615000000165,
      "v": 110
    },
    {
      "midi": 36,
      "hit": false,
      "t": 81255.91499166697,
      "d": 188.97639999999956,
      "v": 112
    },
    {
      "midi": 36,
      "hit": false,
      "t": 81492.13549166697,
      "d": 425.1969000000099,
      "v": 110
    },
    {
      "midi": 48,
      "hit": false,
      "t": 81496.0725000003,
      "d": 19.685041666671168,
      "v": 101
    },
    {
      "midi": 60,
      "hit": false,
      "t": 81720.48197500031,
      "d": 303.14964166666323,
      "v": 120
    },
    {
      "midi": 55,
      "hit": false,
      "t": 81724.41898333364,
      "d": 299.212633333329,
      "v": 96
    },
    {
      "midi": 53,
      "hit": false,
      "t": 81728.35599166698,
      "d": 70.86615000000165,
      "v": 127
    },
    {
      "midi": 48,
      "hit": false,
      "t": 81728.35599166698,
      "d": 90.55119166667282,
      "v": 118
    },
    {
      "midi": 43,
      "hit": false,
      "t": 81964.57649166697,
      "d": 145.66930833333754,
      "v": 105
    },
    {
      "midi": 36,
      "hit": false,
      "t": 81964.57649166697,
      "d": 188.97639999999956,
      "v": 110
    },
    {
      "midi": 48,
      "hit": false,
      "t": 82200.79699166697,
      "d": 125.98426666666637,
      "v": 116
    },
    {
      "midi": 36,
      "hit": false,
      "t": 82200.79699166697,
      "d": 208.66144166667073,
      "v": 117
    },
    {
      "midi": 52,
      "hit": false,
      "t": 82200.79699166697,
      "d": 228.3464833333419,
      "v": 127
    },
    {
      "midi": 36,
      "hit": false,
      "t": 82437.01749166698,
      "d": 169.29135833334294,
      "v": 112
    },
    {
      "midi": 55,
      "hit": false,
      "t": 82437.01749166698,
      "d": 196.85041666668258,
      "v": 97
    },
    {
      "midi": 60,
      "hit": false,
      "t": 82437.01749166698,
      "d": 196.85041666668258,
      "v": 117
    },
    {
      "midi": 48,
      "hit": false,
      "t": 82440.95450000031,
      "d": 82.67717500000435,
      "v": 110
    },
    {
      "midi": 43,
      "hit": false,
      "t": 82665.36397500033,
      "d": 118.1102499999979,
      "v": 114
    },
    {
      "midi": 36,
      "hit": false,
      "t": 82669.30098333367,
      "d": 188.97639999999956,
      "v": 118
    },
    {
      "midi": 60,
      "hit": false,
      "t": 82673.237991667,
      "d": 196.85041666666802,
      "v": 122
    },
    {
      "midi": 55,
      "hit": false,
      "t": 82673.237991667,
      "d": 208.66144166667073,
      "v": 91
    },
    {
      "midi": 36,
      "hit": false,
      "t": 82901.58447500035,
      "d": 228.34648333332734,
      "v": 111
    },
    {
      "midi": 46,
      "hit": false,
      "t": 83137.80497500034,
      "d": 653.5433833333227,
      "v": 109
    },
    {
      "midi": 67,
      "hit": false,
      "t": 83145.67899166667,
      "d": 1177.165491666674,
      "v": 1
    },
    {
      "midi": 58,
      "hit": false,
      "t": 83145.67899166667,
      "d": 1885.826991666676,
      "v": 1
    },
    {
      "midi": 62,
      "hit": false,
      "t": 83145.67899166667,
      "d": 1885.826991666676,
      "v": 1
    },
    {
      "midi": 58,
      "hit": false,
      "t": 83145.67899166701,
      "d": 78.74016666667012,
      "v": 112
    },
    {
      "midi": 62,
      "hit": false,
      "t": 83145.67899166701,
      "d": 86.61418333333859,
      "v": 106
    },
    {
      "midi": 53,
      "hit": false,
      "t": 83393.71051666701,
      "d": 55.11811666666472,
      "v": 96
    },
    {
      "midi": 53,
      "hit": false,
      "t": 83610.24597500033,
      "d": 74.80315833333589,
      "v": 113
    },
    {
      "midi": 58,
      "hit": false,
      "t": 83614.18298333367,
      "d": 106.2992249999952,
      "v": 113
    },
    {
      "midi": 63,
      "hit": false,
      "t": 83614.18298333367,
      "d": 106.2992249999952,
      "v": 105
    },
    {
      "midi": 46,
      "hit": false,
      "t": 84086.62398333366,
      "d": 657.480391666686,
      "v": 105
    },
    {
      "midi": 63,
      "hit": false,
      "t": 84090.560991667,
      "d": 204.7244333333365,
      "v": 106
    },
    {
      "midi": 67,
      "hit": false,
      "t": 84094.49800000033,
      "d": 177.16537499999686,
      "v": 105
    },
    {
      "midi": 58,
      "hit": false,
      "t": 84094.49800000033,
      "d": 405.51185833333875,
      "v": 122
    },
    {
      "midi": 62,
      "hit": false,
      "t": 84322.84448333367,
      "d": 188.97639999999956,
      "v": 100
    },
    {
      "midi": 65,
      "hit": false,
      "t": 84326.78149166668,
      "d": 704.7244916666677,
      "v": 1
    },
    {
      "midi": 53,
      "hit": false,
      "t": 84551.190966667,
      "d": 169.29135833334294,
      "v": 105
    },
    {
      "midi": 62,
      "hit": false,
      "t": 84563.001991667,
      "d": 133.85828333333484,
      "v": 105
    },
    {
      "midi": 58,
      "hit": false,
      "t": 84563.001991667,
      "d": 145.66930833333754,
      "v": 110
    },
    {
      "midi": 46,
      "hit": false,
      "t": 84799.22249166701,
      "d": 216.5354583333392,
      "v": 110
    },
    {
      "midi": 60,
      "hit": false,
      "t": 85031.50598333369,
      "d": 98.42520833332674,
      "v": 105
    },
    {
      "midi": 57,
      "hit": false,
      "t": 85031.50598333369,
      "d": 110.23623333332944,
      "v": 117
    },
    {
      "midi": 53,
      "hit": false,
      "t": 85031.50598333369,
      "d": 118.1102499999979,
      "v": 105
    },
    {
      "midi": 41,
      "hit": false,
      "t": 85031.50598333369,
      "d": 149.60631666667177,
      "v": 111
    },
    {
      "midi": 57,
      "hit": false,
      "t": 85035.44299166668,
      "d": 1059.0552416666615,
      "v": 1
    },
    {
      "midi": 60,
      "hit": false,
      "t": 85035.44299166668,
      "d": 1059.0552416666615,
      "v": 1
    },
    {
      "midi": 48,
      "hit": false,
      "t": 85503.94698333369,
      "d": 51.18110833334504,
      "v": 105
    },
    {
      "midi": 53,
      "hit": false,
      "t": 85503.94698333369,
      "d": 70.8661500000162,
      "v": 108
    },
    {
      "midi": 57,
      "hit": false,
      "t": 85503.94698333369,
      "d": 74.80315833335044,
      "v": 117
    },
    {
      "midi": 62,
      "hit": false,
      "t": 85507.88399166703,
      "d": 94.4882000000216,
      "v": 105
    },
    {
      "midi": 60,
      "hit": false,
      "t": 85523.63202500036,
      "d": 78.74016666668467,
      "v": 105
    },
    {
      "midi": 41,
      "hit": false,
      "t": 85740.16748333372,
      "d": 66.92914166666742,
      "v": 105
    },
    {
      "midi": 41,
      "hit": false,
      "t": 85992.13601666705,
      "d": 527.5591166666854,
      "v": 112
    },
    {
      "midi": 57,
      "hit": false,
      "t": 86000.01003333372,
      "d": 62.992133333333186,
      "v": 112
    },
    {
      "midi": 53,
      "hit": false,
      "t": 86000.01003333372,
      "d": 70.86615000000165,
      "v": 105
    },
    {
      "midi": 60,
      "hit": false,
      "t": 86000.01003333372,
      "d": 90.55119166667282,
      "v": 108
    },
    {
      "midi": 60,
      "hit": false,
      "t": 86248.04155833373,
      "d": 43.30709166666202,
      "v": 97
    },
    {
      "midi": 53,
      "hit": false,
      "t": 86468.51402500039,
      "d": 66.92914166668197,
      "v": 106
    },
    {
      "midi": 57,
      "hit": false,
      "t": 86472.45103333372,
      "d": 51.18110833334504,
      "v": 117
    },
    {
      "midi": 62,
      "hit": false,
      "t": 86476.38804166706,
      "d": 74.80315833335044,
      "v": 105
    },
    {
      "midi": 60,
      "hit": false,
      "t": 86488.19906666706,
      "d": 7.874016666668467,
      "v": 105
    },
    {
      "midi": 52,
      "hit": false,
      "t": 86688.98649166708,
      "d": 240.15750833333004,
      "v": 112
    },
    {
      "midi": 60,
      "hit": false,
      "t": 86688.98649166708,
      "d": 358.26775833332795,
      "v": 111
    },
    {
      "midi": 55,
      "hit": false,
      "t": 86688.98649166708,
      "d": 503.9370666666655,
      "v": 113
    },
    {
      "midi": 36,
      "hit": false,
      "t": 86929.14400000041,
      "d": 472.44100000000617,
      "v": 112
    },
    {
      "midi": 52,
      "hit": false,
      "t": 87397.64799166708,
      "d": 55.11811666666472,
      "v": 105
    },
    {
      "midi": 48,
      "hit": false,
      "t": 87397.64799166708,
      "d": 82.67717500000435,
      "v": 111
    },
    {
      "midi": 62,
      "hit": false,
      "t": 87397.64799166708,
      "d": 94.48820000000705,
      "v": 105
    },
    {
      "midi": 57,
      "hit": false,
      "t": 87397.64799166708,
      "d": 110.23623333334399,
      "v": 106
    },
    {
      "midi": 36,
      "hit": false,
      "t": 87625.99447500042,
      "d": 216.5354583333392,
      "v": 106
    },
    {
      "midi": 52,
      "hit": false,
      "t": 87870.0889916671,
      "d": 78.74016666667012,
      "v": 105
    },
    {
      "midi": 63,
      "hit": false,
      "t": 87870.0889916671,
      "d": 94.48820000000705,
      "v": 109
    },
    {
      "midi": 58,
      "hit": false,
      "t": 87870.0889916671,
      "d": 110.23623333334399,
      "v": 106
    },
    {
      "midi": 36,
      "hit": false,
      "t": 87874.02600000043,
      "d": 204.7244333333365,
      "v": 116
    },
    {
      "midi": 36,
      "hit": false,
      "t": 88106.30949166711,
      "d": 433.07091666666383,
      "v": 110
    },
    {
      "midi": 52,
      "hit": false,
      "t": 88342.5299916671,
      "d": 59.05512499999895,
      "v": 105
    },
    {
      "midi": 62,
      "hit": false,
      "t": 88342.5299916671,
      "d": 70.86615000000165,
      "v": 105
    },
    {
      "midi": 55,
      "hit": false,
      "t": 88342.5299916671,
      "d": 78.74016666667012,
      "v": 105
    },
    {
      "midi": 48,
      "hit": false,
      "t": 88342.5299916671,
      "d": 118.1102499999979,
      "v": 106
    },
    {
      "midi": 36,
      "hit": false,
      "t": 88578.7504916671,
      "d": 188.97639999999956,
      "v": 108
    },
    {
      "midi": 55,
      "hit": false,
      "t": 88814.9709916671,
      "d": 94.48820000000705,
      "v": 106
    },
    {
      "midi": 58,
      "hit": false,
      "t": 88814.9709916671,
      "d": 94.48820000000705,
      "v": 105
    },
    {
      "midi": 63,
      "hit": false,
      "t": 88814.9709916671,
      "d": 118.11025000001246,
      "v": 124
    },
    {
      "midi": 36,
      "hit": false,
      "t": 88814.9709916671,
      "d": 539.3701416666881,
      "v": 109
    },
    {
      "midi": 57,
      "hit": false,
      "t": 89043.31747500044,
      "d": 208.66144166667073,
      "v": 93
    },
    {
      "midi": 62,
      "hit": false,
      "t": 89279.53797500045,
      "d": 141.7323000000033,
      "v": 105
    },
    {
      "midi": 55,
      "hit": false,
      "t": 89279.53797500045,
      "d": 145.66930833333754,
      "v": 105
    },
    {
      "midi": 48,
      "hit": false,
      "t": 89283.47498333378,
      "d": 129.9212750000006,
      "v": 108
    },
    {
      "midi": 55,
      "hit": false,
      "t": 89515.75847500046,
      "d": 358.2677583333425,
      "v": 111
    },
    {
      "midi": 48,
      "hit": false,
      "t": 89515.75847500046,
      "d": 444.8819416666811,
      "v": 107
    },
    {
      "midi": 60,
      "hit": false,
      "t": 89515.75847500046,
      "d": 543.3071500000078,
      "v": 121
    },
    {
      "midi": 36,
      "hit": false,
      "t": 89779.5380333338,
      "d": 429.13390833334415,
      "v": 117
    },
    {
      "midi": 55,
      "hit": false,
      "t": 89996.07349166714,
      "d": 90.55119166667282,
      "v": 105
    },
    {
      "midi": 48,
      "hit": false,
      "t": 90232.29399166715,
      "d": 106.2992249999952,
      "v": 121
    },
    {
      "midi": 62,
      "hit": false,
      "t": 90232.29399166715,
      "d": 192.9134083333338,
      "v": 103
    },
    {
      "midi": 55,
      "hit": false,
      "t": 90232.29399166715,
      "d": 397.6378416666703,
      "v": 98
    },
    {
      "midi": 60,
      "hit": false,
      "t": 90460.64047500047,
      "d": 196.85041666668258,
      "v": 107
    },
    {
      "midi": 36,
      "hit": false,
      "t": 90480.32551666714,
      "d": 216.5354583333392,
      "v": 103
    },
    {
      "midi": 67,
      "hit": false,
      "t": 90704.73499166669,
      "d": 1177.165491666674,
      "v": 1
    },
    {
      "midi": 58,
      "hit": false,
      "t": 90704.73499166669,
      "d": 1885.826991666676,
      "v": 1
    },
    {
      "midi": 62,
      "hit": false,
      "t": 90704.73499166669,
      "d": 1885.826991666676,
      "v": 1
    },
    {
      "midi": 58,
      "hit": false,
      "t": 90704.73499166715,
      "d": 212.59845000000496,
      "v": 105
    },
    {
      "midi": 53,
      "hit": false,
      "t": 90704.73499166715,
      "d": 267.7165666666697,
      "v": 105
    },
    {
      "midi": 62,
      "hit": false,
      "t": 90704.73499166715,
      "d": 381.88980833333335,
      "v": 105
    },
    {
      "midi": 46,
      "hit": false,
      "t": 90716.54601666715,
      "d": 519.6851000000024,
      "v": 115
    },
    {
      "midi": 58,
      "hit": false,
      "t": 91188.98701666715,
      "d": 11.8110250000027,
      "v": 88
    },
    {
      "midi": 53,
      "hit": false,
      "t": 91192.92402500048,
      "d": 35.4330750000081,
      "v": 105
    },
    {
      "midi": 53,
      "hit": false,
      "t": 91425.20751666716,
      "d": 47.24409999999625,
      "v": 101
    },
    {
      "midi": 53,
      "hit": false,
      "t": 91641.74297500048,
      "d": 94.48820000000705,
      "v": 105
    },
    {
      "midi": 58,
      "hit": false,
      "t": 91641.74297500048,
      "d": 129.9212750000006,
      "v": 113
    },
    {
      "midi": 62,
      "hit": false,
      "t": 91641.74297500048,
      "d": 181.1023833333311,
      "v": 105
    },
    {
      "midi": 46,
      "hit": false,
      "t": 91649.61699166715,
      "d": 496.063049999997,
      "v": 115
    },
    {
      "midi": 53,
      "hit": false,
      "t": 91877.96347500048,
      "d": 78.74016666667012,
      "v": 105
    },
    {
      "midi": 65,
      "hit": false,
      "t": 91885.8374916667,
      "d": 704.7244916666677,
      "v": 1
    },
    {
      "midi": 53,
      "hit": false,
      "t": 92102.37295000048,
      "d": 248.0315249999985,
      "v": 106
    },
    {
      "midi": 58,
      "hit": false,
      "t": 92110.24696666715,
      "d": 157.4803333333257,
      "v": 124
    },
    {
      "midi": 62,
      "hit": false,
      "t": 92110.24696666715,
      "d": 181.1023833333311,
      "v": 105
    },
    {
      "midi": 2,
      "hit": false,
      "t": 92271.66430833381,
      "d": 5590.551833333375,
      "v": 82
    },
    {
      "midi": 1,
      "hit": false,
      "t": 92279.53832500048,
      "d": 5582.677816666706,
      "v": 73
    },
    {
      "midi": 53,
      "hit": false,
      "t": 92358.27849166715,
      "d": 165.3543500000087,
      "v": 105
    },
    {
      "midi": 60,
      "hit": false,
      "t": 92358.27849166715,
      "d": 220.47246666667343,
      "v": 109
    },
    {
      "midi": 57,
      "hit": false,
      "t": 92362.21550000049,
      "d": 157.48033333334024,
      "v": 123
    },
    {
      "midi": 41,
      "hit": false,
      "t": 92574.81395000049,
      "d": 102.36221666666097,
      "v": 117
    },
    {
      "midi": 57,
      "hit": false,
      "t": 92594.4989916667,
      "d": 1059.0552416666615,
      "v": 1
    },
    {
      "midi": 60,
      "hit": false,
      "t": 92594.4989916667,
      "d": 1059.0552416666615,
      "v": 1
    },
    {
      "midi": 41,
      "hit": false,
      "t": 92822.84547500049,
      "d": 165.35434999999416,
      "v": 105
    },
    {
      "midi": 48,
      "hit": false,
      "t": 93051.19195833382,
      "d": 192.9134083333338,
      "v": 126
    },
    {
      "midi": 53,
      "hit": false,
      "t": 93059.06597500049,
      "d": 141.7323000000033,
      "v": 106
    },
    {
      "midi": 57,
      "hit": false,
      "t": 93059.06597500049,
      "d": 177.16537499999686,
      "v": 118
    },
    {
      "midi": 60,
      "hit": false,
      "t": 93059.06597500049,
      "d": 185.03939166666532,
      "v": 108
    },
    {
      "midi": 41,
      "hit": false,
      "t": 93543.31800000048,
      "d": 503.9370666666655,
      "v": 116
    },
    {
      "midi": 53,
      "hit": false,
      "t": 93744.10542500048,
      "d": 70.86615000000165,
      "v": 105
    },
    {
      "midi": 48,
      "hit": false,
      "t": 94007.88498333382,
      "d": 66.92914166666742,
      "v": 105
    },
    {
      "midi": 53,
      "hit": false,
      "t": 94007.88498333382,
      "d": 78.74016666667012,
      "v": 106
    },
    {
      "midi": 60,
      "hit": false,
      "t": 94011.82199166715,
      "d": 78.74016666667012,
      "v": 109
    },
    {
      "midi": 57,
      "hit": false,
      "t": 94011.82199166715,
      "d": 110.23623333334399,
      "v": 118
    },
    {
      "midi": 55,
      "hit": false,
      "t": 94240.1684750005,
      "d": 177.1653750000114,
      "v": 116
    },
    {
      "midi": 60,
      "hit": false,
      "t": 94244.10548333383,
      "d": 161.41734166667447,
      "v": 105
    },
    {
      "midi": 52,
      "hit": false,
      "t": 94248.04249166716,
      "d": 161.41734166667447,
      "v": 105
    },
    {
      "midi": 36,
      "hit": false,
      "t": 94484.26299166717,
      "d": 374.0157916666649,
      "v": 121
    },
    {
      "midi": 57,
      "hit": false,
      "t": 94944.89296666718,
      "d": 129.92127500001516,
      "v": 119
    },
    {
      "midi": 48,
      "hit": false,
      "t": 94956.70399166718,
      "d": 82.67717500000435,
      "v": 115
    },
    {
      "midi": 62,
      "hit": false,
      "t": 94956.70399166718,
      "d": 86.61418333333859,
      "v": 105
    },
    {
      "midi": 36,
      "hit": false,
      "t": 94956.70399166718,
      "d": 279.5275916666724,
      "v": 119
    },
    {
      "midi": 57,
      "hit": false,
      "t": 95413.39695833385,
      "d": 185.03939166666532,
      "v": 111
    },
    {
      "midi": 48,
      "hit": false,
      "t": 95413.39695833385,
      "d": 334.6457083333371,
      "v": 93
    },
    {
      "midi": 36,
      "hit": false,
      "t": 95425.20798333385,
      "d": 338.58271666667133,
      "v": 122
    },
    {
      "midi": 60,
      "hit": false,
      "t": 95429.14499166718,
      "d": 70.86615000000165,
      "v": 105
    },
    {
      "midi": 55,
      "hit": false,
      "t": 95649.61745833384,
      "d": 110.23623333334399,
      "v": 124
    },
    {
      "midi": 60,
      "hit": false,
      "t": 95661.42848333385,
      "d": 78.74016666667012,
      "v": 105
    },
    {
      "midi": 55,
      "hit": false,
      "t": 95885.83795833385,
      "d": 236.2204999999958,
      "v": 90
    },
    {
      "midi": 60,
      "hit": false,
      "t": 95885.83795833385,
      "d": 236.2204999999958,
      "v": 90
    },
    {
      "midi": 36,
      "hit": false,
      "t": 95897.64898333386,
      "d": 326.7716916666541,
      "v": 124
    },
    {
      "midi": 36,
      "hit": false,
      "t": 96366.15297500051,
      "d": 236.22050000001036,
      "v": 121
    },
    {
      "midi": 55,
      "hit": false,
      "t": 96374.02699166718,
      "d": 66.92914166666742,
      "v": 118
    },
    {
      "midi": 60,
      "hit": false,
      "t": 96374.02699166718,
      "d": 66.92914166666742,
      "v": 127
    },
    {
      "midi": 48,
      "hit": false,
      "t": 96374.02699166718,
      "d": 74.80315833333589,
      "v": 105
    },
    {
      "midi": 55,
      "hit": false,
      "t": 96842.53098333385,
      "d": 464.5669833333377,
      "v": 113
    },
    {
      "midi": 62,
      "hit": false,
      "t": 96842.53098333385,
      "d": 464.5669833333377,
      "v": 105
    },
    {
      "midi": 43,
      "hit": false,
      "t": 96842.53098333385,
      "d": 901.5749083333358,
      "v": 115
    },
    {
      "midi": 55,
      "hit": false,
      "t": 97330.7200166672,
      "d": 177.16537499999686,
      "v": 110
    },
    {
      "midi": 55,
      "hit": false,
      "t": 97555.12949166719,
      "d": 70.86615000000165,
      "v": 110
    },
    {
      "midi": 62,
      "hit": false,
      "t": 97555.12949166719,
      "d": 70.86615000000165,
      "v": 110
    },
    {
      "midi": 67,
      "hit": false,
      "t": 97555.12949166719,
      "d": 78.74016666667012,
      "v": 110
    },
    {
      "midi": 74,
      "hit": false,
      "t": 98263.79099166719,
      "d": 196.85041666666802,
      "v": 118
    },
    {
      "midi": 69,
      "hit": false,
      "t": 98263.79099166719,
      "d": 204.7244333333365,
      "v": 104
    },
    {
      "midi": 77,
      "hit": false,
      "t": 98263.79099166719,
      "d": 208.66144166667073,
      "v": 112
    },
    {
      "midi": 62,
      "hit": false,
      "t": 98263.79099166719,
      "d": 444.88194166666653,
      "v": 116
    },
    {
      "midi": 74,
      "hit": false,
      "t": 98736.2319916672,
      "d": 149.60631666667177,
      "v": 112
    },
    {
      "midi": 77,
      "hit": false,
      "t": 98736.2319916672,
      "d": 161.41734166667447,
      "v": 108
    },
    {
      "midi": 69,
      "hit": false,
      "t": 98736.2319916672,
      "d": 165.3543500000087,
      "v": 104
    },
    {
      "midi": 74,
      "hit": false,
      "t": 99204.73598333387,
      "d": 145.66930833333754,
      "v": 112
    },
    {
      "midi": 77,
      "hit": false,
      "t": 99204.73598333387,
      "d": 157.48033333334024,
      "v": 108
    },
    {
      "midi": 69,
      "hit": false,
      "t": 99204.73598333387,
      "d": 161.41734166667447,
      "v": 101
    },
    {
      "midi": 69,
      "hit": false,
      "t": 99677.17698333388,
      "d": 185.03939166666532,
      "v": 100
    },
    {
      "midi": 74,
      "hit": false,
      "t": 99681.11399166721,
      "d": 188.97639999999956,
      "v": 110
    },
    {
      "midi": 77,
      "hit": false,
      "t": 99681.11399166721,
      "d": 188.97639999999956,
      "v": 103
    },
    {
      "midi": 59,
      "hit": false,
      "t": 100149.61798333388,
      "d": 444.88194166666653,
      "v": 103
    },
    {
      "midi": 79,
      "hit": false,
      "t": 100153.55499166722,
      "d": 173.22836666666262,
      "v": 108
    },
    {
      "midi": 74,
      "hit": false,
      "t": 100153.55499166722,
      "d": 177.16537499999686,
      "v": 109
    },
    {
      "midi": 71,
      "hit": false,
      "t": 100153.55499166722,
      "d": 200.78742500000226,
      "v": 105
    },
    {
      "midi": 74,
      "hit": false,
      "t": 100625.99599166722,
      "d": 157.48033333334024,
      "v": 105
    },
    {
      "midi": 79,
      "hit": false,
      "t": 100625.99599166722,
      "d": 157.48033333334024,
      "v": 105
    },
    {
      "midi": 71,
      "hit": false,
      "t": 100625.99599166722,
      "d": 169.29135833334294,
      "v": 105
    },
    {
      "midi": 79,
      "hit": false,
      "t": 101090.56297500056,
      "d": 137.79529166666907,
      "v": 105
    },
    {
      "midi": 74,
      "hit": false,
      "t": 101090.56297500056,
      "d": 141.7323000000033,
      "v": 105
    },
    {
      "midi": 71,
      "hit": false,
      "t": 101090.56297500056,
      "d": 153.543325000006,
      "v": 105
    },
    {
      "midi": 74,
      "hit": false,
      "t": 101563.00397500057,
      "d": 157.48033333334024,
      "v": 105
    },
    {
      "midi": 71,
      "hit": false,
      "t": 101563.00397500057,
      "d": 196.85041666666802,
      "v": 105
    },
    {
      "midi": 79,
      "hit": false,
      "t": 101563.00397500057,
      "d": 196.85041666666802,
      "v": 105
    },
    {
      "midi": 59,
      "hit": false,
      "t": 101838.5945583339,
      "d": 185.03939166666532,
      "v": 99
    },
    {
      "midi": 74,
      "hit": false,
      "t": 102043.31899166724,
      "d": 196.85041666666802,
      "v": 118
    },
    {
      "midi": 69,
      "hit": false,
      "t": 102043.31899166724,
      "d": 204.7244333333365,
      "v": 104
    },
    {
      "midi": 77,
      "hit": false,
      "t": 102043.31899166724,
      "d": 208.66144166667073,
      "v": 112
    },
    {
      "midi": 62,
      "hit": false,
      "t": 102043.31899166724,
      "d": 444.88194166666653,
      "v": 116
    },
    {
      "midi": 74,
      "hit": false,
      "t": 102515.75999166725,
      "d": 149.60631666667177,
      "v": 112
    },
    {
      "midi": 77,
      "hit": false,
      "t": 102515.75999166725,
      "d": 161.41734166667447,
      "v": 108
    },
    {
      "midi": 69,
      "hit": false,
      "t": 102515.75999166725,
      "d": 165.3543500000087,
      "v": 104
    },
    {
      "midi": 74,
      "hit": false,
      "t": 102984.26398333392,
      "d": 145.66930833333754,
      "v": 112
    },
    {
      "midi": 77,
      "hit": false,
      "t": 102984.26398333392,
      "d": 157.48033333334024,
      "v": 108
    },
    {
      "midi": 69,
      "hit": false,
      "t": 102984.26398333392,
      "d": 161.41734166667447,
      "v": 101
    },
    {
      "midi": 69,
      "hit": false,
      "t": 103456.70498333393,
      "d": 185.03939166666532,
      "v": 100
    },
    {
      "midi": 74,
      "hit": false,
      "t": 103460.64199166726,
      "d": 188.97639999999956,
      "v": 110
    },
    {
      "midi": 77,
      "hit": false,
      "t": 103460.64199166726,
      "d": 188.97639999999956,
      "v": 103
    },
    {
      "midi": 58,
      "hit": false,
      "t": 103925.2089750006,
      "d": 1374.0159083333565,
      "v": 125
    },
    {
      "midi": 74,
      "hit": false,
      "t": 103933.08299166727,
      "d": 173.22836666666262,
      "v": 108
    },
    {
      "midi": 70,
      "hit": false,
      "t": 103933.08299166727,
      "d": 177.16537499999686,
      "v": 109
    },
    {
      "midi": 65,
      "hit": false,
      "t": 103933.08299166727,
      "d": 200.78742500000226,
      "v": 105
    },
    {
      "midi": 70,
      "hit": false,
      "t": 104405.52399166727,
      "d": 157.48033333334024,
      "v": 105
    },
    {
      "midi": 74,
      "hit": false,
      "t": 104405.52399166727,
      "d": 157.48033333334024,
      "v": 105
    },
    {
      "midi": 65,
      "hit": false,
      "t": 104405.52399166727,
      "d": 169.29135833334294,
      "v": 105
    },
    {
      "midi": 74,
      "hit": false,
      "t": 104870.09097500061,
      "d": 137.79529166666907,
      "v": 105
    },
    {
      "midi": 70,
      "hit": false,
      "t": 104870.09097500061,
      "d": 141.7323000000033,
      "v": 105
    },
    {
      "midi": 65,
      "hit": false,
      "t": 104870.09097500061,
      "d": 153.543325000006,
      "v": 105
    },
    {
      "midi": 70,
      "hit": false,
      "t": 105342.53197500062,
      "d": 157.48033333334024,
      "v": 105
    },
    {
      "midi": 65,
      "hit": false,
      "t": 105342.53197500062,
      "d": 196.85041666666802,
      "v": 105
    },
    {
      "midi": 74,
      "hit": false,
      "t": 105342.53197500062,
      "d": 196.85041666666802,
      "v": 105
    },
    {
      "midi": 69,
      "hit": false,
      "t": 105822.84699166729,
      "d": 114.17324166666367,
      "v": 113
    },
    {
      "midi": 72,
      "hit": false,
      "t": 105822.84699166729,
      "d": 129.9212750000006,
      "v": 116
    },
    {
      "midi": 65,
      "hit": false,
      "t": 105822.84699166729,
      "d": 153.543325000006,
      "v": 108
    },
    {
      "midi": 41,
      "hit": false,
      "t": 105826.78400000063,
      "d": 129.9212750000006,
      "v": 111
    },
    {
      "midi": 41,
      "hit": false,
      "t": 106051.19347500063,
      "d": 145.66930833333754,
      "v": 95
    },
    {
      "midi": 65,
      "hit": false,
      "t": 106059.0674916673,
      "d": 110.23623333332944,
      "v": 79
    },
    {
      "midi": 69,
      "hit": false,
      "t": 106295.2879916673,
      "d": 122.04725833333214,
      "v": 115
    },
    {
      "midi": 74,
      "hit": false,
      "t": 106295.2879916673,
      "d": 122.04725833333214,
      "v": 121
    },
    {
      "midi": 41,
      "hit": false,
      "t": 106295.2879916673,
      "d": 129.9212750000006,
      "v": 107
    },
    {
      "midi": 65,
      "hit": false,
      "t": 106295.2879916673,
      "d": 137.79529166666907,
      "v": 105
    },
    {
      "midi": 41,
      "hit": false,
      "t": 106519.6974666673,
      "d": 129.9212750000006,
      "v": 101
    },
    {
      "midi": 65,
      "hit": false,
      "t": 106531.50849166731,
      "d": 110.23623333332944,
      "v": 79
    },
    {
      "midi": 41,
      "hit": false,
      "t": 106759.85497500064,
      "d": 129.92127500001516,
      "v": 111
    },
    {
      "midi": 69,
      "hit": false,
      "t": 106767.7289916673,
      "d": 90.55119166667282,
      "v": 121
    },
    {
      "midi": 65,
      "hit": false,
      "t": 106767.7289916673,
      "d": 98.42520833334129,
      "v": 108
    },
    {
      "midi": 72,
      "hit": false,
      "t": 106767.7289916673,
      "d": 102.36221666667552,
      "v": 127
    },
    {
      "midi": 75,
      "hit": false,
      "t": 106767.7289916673,
      "d": 125.98426666668092,
      "v": 127
    },
    {
      "midi": 41,
      "hit": false,
      "t": 106996.07547500065,
      "d": 137.79529166666907,
      "v": 95
    },
    {
      "midi": 65,
      "hit": false,
      "t": 107003.94949166731,
      "d": 110.23623333332944,
      "v": 75
    },
    {
      "midi": 41,
      "hit": false,
      "t": 107236.23298333398,
      "d": 129.9212750000006,
      "v": 116
    },
    {
      "midi": 69,
      "hit": false,
      "t": 107236.23298333398,
      "d": 157.48033333334024,
      "v": 108
    },
    {
      "midi": 74,
      "hit": false,
      "t": 107236.23298333398,
      "d": 157.48033333334024,
      "v": 112
    },
    {
      "midi": 65,
      "hit": false,
      "t": 107236.23298333398,
      "d": 169.29135833334294,
      "v": 105
    },
    {
      "midi": 41,
      "hit": false,
      "t": 107468.51647500065,
      "d": 125.98426666666637,
      "v": 99
    },
    {
      "midi": 65,
      "hit": false,
      "t": 107476.39049166732,
      "d": 110.23623333332944,
      "v": 77
    },
    {
      "midi": 41,
      "hit": false,
      "t": 107704.73697500065,
      "d": 129.9212750000006,
      "v": 116
    },
    {
      "midi": 69,
      "hit": false,
      "t": 107712.61099166732,
      "d": 125.98426666666637,
      "v": 105
    },
    {
      "midi": 65,
      "hit": false,
      "t": 107712.61099166732,
      "d": 129.9212750000006,
      "v": 105
    },
    {
      "midi": 72,
      "hit": false,
      "t": 107712.61099166732,
      "d": 129.9212750000006,
      "v": 121
    },
    {
      "midi": 41,
      "hit": false,
      "t": 107940.95747500064,
      "d": 129.9212750000006,
      "v": 95
    },
    {
      "midi": 41,
      "hit": false,
      "t": 108181.11498333397,
      "d": 133.85828333333484,
      "v": 116
    },
    {
      "midi": 69,
      "hit": false,
      "t": 108192.92600833398,
      "d": 149.60631666667177,
      "v": 117
    },
    {
      "midi": 72,
      "hit": false,
      "t": 108192.92600833398,
      "d": 157.48033333334024,
      "v": 120
    },
    {
      "midi": 65,
      "hit": false,
      "t": 108192.92600833398,
      "d": 161.41734166667447,
      "v": 106
    },
    {
      "midi": 41,
      "hit": false,
      "t": 108413.39847500065,
      "d": 118.1102499999979,
      "v": 101
    },
    {
      "midi": 41,
      "hit": false,
      "t": 108649.61897500065,
      "d": 122.04725833333214,
      "v": 107
    },
    {
      "midi": 69,
      "hit": false,
      "t": 108657.49299166731,
      "d": 118.1102499999979,
      "v": 115
    },
    {
      "midi": 65,
      "hit": false,
      "t": 108657.49299166731,
      "d": 125.98426666666637,
      "v": 105
    },
    {
      "midi": 72,
      "hit": false,
      "t": 108657.49299166731,
      "d": 129.9212750000006,
      "v": 113
    },
    {
      "midi": 41,
      "hit": false,
      "t": 108893.71349166731,
      "d": 125.98426666666637,
      "v": 99
    },
    {
      "midi": 41,
      "hit": false,
      "t": 109114.18595833398,
      "d": 133.85828333333484,
      "v": 106
    },
    {
      "midi": 69,
      "hit": false,
      "t": 109129.93399166732,
      "d": 106.2992249999952,
      "v": 123
    },
    {
      "midi": 65,
      "hit": false,
      "t": 109129.93399166732,
      "d": 114.17324166666367,
      "v": 108
    },
    {
      "midi": 72,
      "hit": false,
      "t": 109129.93399166732,
      "d": 118.1102499999979,
      "v": 112
    },
    {
      "midi": 41,
      "hit": false,
      "t": 109342.53244166732,
      "d": 118.1102499999979,
      "v": 101
    },
    {
      "midi": 36,
      "hit": false,
      "t": 109622.06003333398,
      "d": 523.6221083333367,
      "v": 124
    },
    {
      "midi": 64,
      "hit": false,
      "t": 110074.81599166732,
      "d": 145.66930833333754,
      "v": 118
    },
    {
      "midi": 67,
      "hit": false,
      "t": 110074.81599166732,
      "d": 165.3543500000087,
      "v": 121
    },
    {
      "midi": 60,
      "hit": false,
      "t": 110074.81599166732,
      "d": 169.29135833334294,
      "v": 117
    },
    {
      "midi": 40,
      "hit": false,
      "t": 110318.910508334,
      "d": 342.51972500000556,
      "v": 127
    },
    {
      "midi": 64,
      "hit": false,
      "t": 110547.25699166732,
      "d": 78.74016666667012,
      "v": 112
    },
    {
      "midi": 60,
      "hit": false,
      "t": 110547.25699166732,
      "d": 90.55119166667282,
      "v": 110
    },
    {
      "midi": 67,
      "hit": false,
      "t": 110547.25699166732,
      "d": 90.55119166667282,
      "v": 111
    },
    {
      "midi": 41,
      "hit": false,
      "t": 110795.28851666734,
      "d": 216.5354583333392,
      "v": 126
    },
    {
      "midi": 60,
      "hit": false,
      "t": 111019.69799166734,
      "d": 188.97639999999956,
      "v": 116
    },
    {
      "midi": 64,
      "hit": false,
      "t": 111019.69799166734,
      "d": 208.66144166667073,
      "v": 115
    },
    {
      "midi": 67,
      "hit": false,
      "t": 111019.69799166734,
      "d": 208.66144166667073,
      "v": 121
    },
    {
      "midi": 42,
      "hit": false,
      "t": 111248.04447500069,
      "d": 157.48033333334024,
      "v": 127
    },
    {
      "midi": 43,
      "hit": false,
      "t": 111488.20198333403,
      "d": 145.66930833333754,
      "v": 126
    },
    {
      "midi": 60,
      "hit": false,
      "t": 111488.20198333403,
      "d": 149.60631666667177,
      "v": 120
    },
    {
      "midi": 64,
      "hit": false,
      "t": 111488.20198333403,
      "d": 149.60631666667177,
      "v": 119
    },
    {
      "midi": 67,
      "hit": false,
      "t": 111488.20198333403,
      "d": 149.60631666667177,
      "v": 125
    },
    {
      "midi": 43,
      "hit": false,
      "t": 111956.7059750007,
      "d": 893.7008916666673,
      "v": 121
    },
    {
      "midi": 43,
      "hit": false,
      "t": 112909.46199166737,
      "d": 224.40947500000766,
      "v": 105
    },
    {
      "midi": 55,
      "hit": false,
      "t": 112913.3990000007,
      "d": 228.3464833333419,
      "v": 110
    },
    {
      "midi": 45,
      "hit": false,
      "t": 113137.80847500071,
      "d": 125.98426666666637,
      "v": 105
    },
    {
      "midi": 57,
      "hit": false,
      "t": 113141.74548333405,
      "d": 129.9212750000006,
      "v": 110
    },
    {
      "midi": 36,
      "hit": false,
      "t": 113401.58803333405,
      "d": 523.6221083333367,
      "v": 124
    },
    {
      "midi": 64,
      "hit": false,
      "t": 113854.34399166738,
      "d": 145.66930833333754,
      "v": 118
    },
    {
      "midi": 67,
      "hit": false,
      "t": 113854.34399166738,
      "d": 165.3543500000087,
      "v": 121
    },
    {
      "midi": 60,
      "hit": false,
      "t": 113854.34399166738,
      "d": 169.29135833334294,
      "v": 117
    },
    {
      "midi": 40,
      "hit": false,
      "t": 114098.43850833406,
      "d": 342.51972500000556,
      "v": 127
    },
    {
      "midi": 64,
      "hit": false,
      "t": 114326.78499166739,
      "d": 78.74016666667012,
      "v": 112
    },
    {
      "midi": 60,
      "hit": false,
      "t": 114326.78499166739,
      "d": 90.55119166667282,
      "v": 110
    },
    {
      "midi": 67,
      "hit": false,
      "t": 114326.78499166739,
      "d": 90.55119166667282,
      "v": 111
    },
    {
      "midi": 41,
      "hit": false,
      "t": 114574.8165166674,
      "d": 216.5354583333392,
      "v": 126
    },
    {
      "midi": 60,
      "hit": false,
      "t": 114799.22599166741,
      "d": 188.97639999999956,
      "v": 116
    },
    {
      "midi": 64,
      "hit": false,
      "t": 114799.22599166741,
      "d": 208.66144166667073,
      "v": 115
    },
    {
      "midi": 67,
      "hit": false,
      "t": 114799.22599166741,
      "d": 208.66144166667073,
      "v": 121
    },
    {
      "midi": 42,
      "hit": false,
      "t": 115027.57247500075,
      "d": 157.48033333334024,
      "v": 127
    },
    {
      "midi": 43,
      "hit": false,
      "t": 115267.7299833341,
      "d": 145.66930833333754,
      "v": 126
    },
    {
      "midi": 60,
      "hit": false,
      "t": 115267.7299833341,
      "d": 149.60631666667177,
      "v": 120
    },
    {
      "midi": 64,
      "hit": false,
      "t": 115267.7299833341,
      "d": 149.60631666667177,
      "v": 119
    },
    {
      "midi": 67,
      "hit": false,
      "t": 115267.7299833341,
      "d": 149.60631666667177,
      "v": 125
    },
    {
      "midi": 43,
      "hit": false,
      "t": 115736.23397500077,
      "d": 893.7008916666673,
      "v": 121
    },
    {
      "midi": 52,
      "hit": false,
      "t": 117161.43099166744,
      "d": 90.55119166667282,
      "v": 100
    },
    {
      "midi": 55,
      "hit": false,
      "t": 117161.43099166744,
      "d": 110.23623333334399,
      "v": 110
    },
    {
      "midi": 48,
      "hit": false,
      "t": 117161.43099166744,
      "d": 122.04725833334669,
      "v": 111
    },
    {
      "midi": 36,
      "hit": false,
      "t": 117161.43099166744,
      "d": 582.6772333333356,
      "v": 116
    },
    {
      "midi": 48,
      "hit": false,
      "t": 117633.87199166745,
      "d": 51.181108333330485,
      "v": 126
    },
    {
      "midi": 57,
      "hit": false,
      "t": 117633.87199166745,
      "d": 51.181108333330485,
      "v": 123
    },
    {
      "midi": 52,
      "hit": false,
      "t": 117633.87199166745,
      "d": 62.992133333333186,
      "v": 112
    },
    {
      "midi": 43,
      "hit": false,
      "t": 117866.1554833341,
      "d": 55.11811666666472,
      "v": 110
    },
    {
      "midi": 52,
      "hit": false,
      "t": 118106.31299166744,
      "d": 51.181108333330485,
      "v": 111
    },
    {
      "midi": 48,
      "hit": false,
      "t": 118106.31299166744,
      "d": 70.86615000000165,
      "v": 116
    },
    {
      "midi": 55,
      "hit": false,
      "t": 118106.31299166744,
      "d": 70.86615000000165,
      "v": 127
    },
    {
      "midi": 43,
      "hit": false,
      "t": 118322.84845000078,
      "d": 47.24409999999625,
      "v": 111
    },
    {
      "midi": 48,
      "hit": false,
      "t": 118590.56501666745,
      "d": 216.5354583333392,
      "v": 116
    },
    {
      "midi": 52,
      "hit": false,
      "t": 118590.56501666745,
      "d": 275.59058333333815,
      "v": 111
    },
    {
      "midi": 57,
      "hit": false,
      "t": 118590.56501666745,
      "d": 334.6457083333371,
      "v": 115
    },
    {
      "midi": 36,
      "hit": false,
      "t": 119047.25798333412,
      "d": 208.66144166667073,
      "v": 111
    },
    {
      "midi": 52,
      "hit": false,
      "t": 119051.19499166745,
      "d": 129.9212750000006,
      "v": 127
    },
    {
      "midi": 55,
      "hit": false,
      "t": 119051.19499166745,
      "d": 133.85828333333484,
      "v": 127
    },
    {
      "midi": 48,
      "hit": false,
      "t": 119051.19499166745,
      "d": 157.48033333334024,
      "v": 117
    },
    {
      "midi": 43,
      "hit": false,
      "t": 119287.41549166746,
      "d": 90.55119166667282,
      "v": 127
    },
    {
      "midi": 36,
      "hit": false,
      "t": 119287.41549166746,
      "d": 334.64570833335165,
      "v": 115
    },
    {
      "midi": 57,
      "hit": false,
      "t": 119515.7619750008,
      "d": 59.05512499999895,
      "v": 110
    },
    {
      "midi": 48,
      "hit": false,
      "t": 119515.7619750008,
      "d": 78.74016666667012,
      "v": 114
    },
    {
      "midi": 52,
      "hit": false,
      "t": 119515.7619750008,
      "d": 78.74016666667012,
      "v": 123
    },
    {
      "midi": 36,
      "hit": false,
      "t": 119759.85649166748,
      "d": 641.73235833332,
      "v": 121
    },
    {
      "midi": 43,
      "hit": false,
      "t": 119996.07699166748,
      "d": 35.43307499999355,
      "v": 110
    },
    {
      "midi": 52,
      "hit": false,
      "t": 119996.07699166748,
      "d": 66.92914166666742,
      "v": 121
    },
    {
      "midi": 48,
      "hit": false,
      "t": 119996.07699166748,
      "d": 70.86615000000165,
      "v": 113
    },
    {
      "midi": 55,
      "hit": false,
      "t": 119996.07699166748,
      "d": 70.86615000000165,
      "v": 126
    },
    {
      "midi": 43,
      "hit": false,
      "t": 120236.2345000008,
      "d": 366.1417749999964,
      "v": 127
    },
    {
      "midi": 36,
      "hit": false,
      "t": 120468.51799166747,
      "d": 110.23623333332944,
      "v": 115
    },
    {
      "midi": 52,
      "hit": false,
      "t": 120472.4550000008,
      "d": 165.35434999999416,
      "v": 127
    },
    {
      "midi": 48,
      "hit": false,
      "t": 120472.4550000008,
      "d": 185.03939166666532,
      "v": 122
    },
    {
      "midi": 57,
      "hit": false,
      "t": 120472.4550000008,
      "d": 204.7244333333365,
      "v": 120
    },
    {
      "midi": 36,
      "hit": false,
      "t": 120704.73849166748,
      "d": 110.23623333332944,
      "v": 116
    },
    {
      "midi": 55,
      "hit": false,
      "t": 120704.73849166748,
      "d": 114.17324166666367,
      "v": 116
    },
    {
      "midi": 52,
      "hit": false,
      "t": 120712.61250833415,
      "d": 102.36221666666097,
      "v": 110
    },
    {
      "midi": 54,
      "hit": false,
      "t": 120940.95899166747,
      "d": 59.05512499999895,
      "v": 116
    },
    {
      "midi": 50,
      "hit": false,
      "t": 120940.95899166747,
      "d": 70.86615000000165,
      "v": 110
    },
    {
      "midi": 38,
      "hit": false,
      "t": 120940.95899166747,
      "d": 877.9528583333595,
      "v": 112
    },
    {
      "midi": 50,
      "hit": false,
      "t": 121181.1165000008,
      "d": 19.685041666671168,
      "v": 101
    },
    {
      "midi": 55,
      "hit": false,
      "t": 121413.39999166748,
      "d": 70.86615000000165,
      "v": 127
    },
    {
      "midi": 50,
      "hit": false,
      "t": 121413.39999166748,
      "d": 90.55119166667282,
      "v": 118
    },
    {
      "midi": 45,
      "hit": false,
      "t": 121649.62049166749,
      "d": 145.66930833333754,
      "v": 105
    },
    {
      "midi": 38,
      "hit": false,
      "t": 121874.0299666675,
      "d": 830.7087583333341,
      "v": 114
    },
    {
      "midi": 50,
      "hit": false,
      "t": 121885.8409916675,
      "d": 125.98426666666637,
      "v": 116
    },
    {
      "midi": 54,
      "hit": false,
      "t": 121885.8409916675,
      "d": 228.34648333332734,
      "v": 127
    },
    {
      "midi": 50,
      "hit": false,
      "t": 122125.99850000083,
      "d": 82.67717500000435,
      "v": 110
    },
    {
      "midi": 45,
      "hit": false,
      "t": 122350.40797500084,
      "d": 118.1102499999979,
      "v": 114
    },
    {
      "midi": 41,
      "hit": false,
      "t": 122811.03795000083,
      "d": 740.1575666666758,
      "v": 113
    },
    {
      "midi": 63,
      "hit": false,
      "t": 122830.7229916675,
      "d": 129.9212750000006,
      "v": 118
    },
    {
      "midi": 57,
      "hit": false,
      "t": 122830.7229916675,
      "d": 137.79529166666907,
      "v": 110
    },
    {
      "midi": 57,
      "hit": false,
      "t": 123051.19545833417,
      "d": 188.97639999999956,
      "v": 110
    },
    {
      "midi": 63,
      "hit": false,
      "t": 123059.06947500084,
      "d": 169.2913583333284,
      "v": 113
    },
    {
      "midi": 57,
      "hit": false,
      "t": 123303.1639916675,
      "d": 169.2913583333284,
      "v": 110
    },
    {
      "midi": 62,
      "hit": false,
      "t": 123303.1639916675,
      "d": 169.2913583333284,
      "v": 106
    },
    {
      "midi": 53,
      "hit": false,
      "t": 123531.51047500083,
      "d": 303.14964166666323,
      "v": 106
    },
    {
      "midi": 57,
      "hit": false,
      "t": 123775.6049916675,
      "d": 157.4803333333257,
      "v": 116
    },
    {
      "midi": 62,
      "hit": false,
      "t": 123775.6049916675,
      "d": 169.2913583333284,
      "v": 110
    },
    {
      "midi": 72,
      "hit": false,
      "t": 124003.95147500082,
      "d": 129.9212750000006,
      "v": 106
    },
    {
      "midi": 60,
      "hit": false,
      "t": 124003.95147500082,
      "d": 141.7323000000033,
      "v": 126
    },
    {
      "midi": 53,
      "hit": false,
      "t": 124240.17197500083,
      "d": 51.18110833334504,
      "v": 110
    },
    {
      "midi": 41,
      "hit": false,
      "t": 124267.73103333417,
      "d": 114.17324166667822,
      "v": 108
    },
    {
      "midi": 41,
      "hit": false,
      "t": 124503.95153333418,
      "d": 149.60631666667177,
      "v": 106
    },
    {
      "midi": 62,
      "hit": false,
      "t": 124720.48699166752,
      "d": 110.23623333332944,
      "v": 127
    },
    {
      "midi": 67,
      "hit": false,
      "t": 124720.48699166752,
      "d": 110.23623333332944,
      "v": 127
    },
    {
      "midi": 43,
      "hit": false,
      "t": 124724.42400000086,
      "d": 125.98426666666637,
      "v": 114
    },
    {
      "midi": 43,
      "hit": false,
      "t": 124948.83347500085,
      "d": 137.79529166666907,
      "v": 111
    },
    {
      "midi": 60,
      "hit": false,
      "t": 125192.92799166752,
      "d": 129.9212750000006,
      "v": 127
    },
    {
      "midi": 65,
      "hit": false,
      "t": 125192.92799166752,
      "d": 129.9212750000006,
      "v": 127
    },
    {
      "midi": 64,
      "hit": false,
      "t": 125665.36899166752,
      "d": 129.9212750000006,
      "v": 127
    },
    {
      "midi": 67,
      "hit": false,
      "t": 125665.36899166752,
      "d": 129.9212750000006,
      "v": 127
    },
    {
      "midi": 58,
      "hit": false,
      "t": 126137.80999166753,
      "d": 129.9212750000006,
      "v": 127
    },
    {
      "midi": 62,
      "hit": false,
      "t": 126137.80999166753,
      "d": 129.9212750000006,
      "v": 98
    },
    {
      "midi": 43,
      "hit": false,
      "t": 126366.15647500085,
      "d": 125.98426666666637,
      "v": 109
    },
    {
      "midi": 43,
      "hit": false,
      "t": 126594.50295833418,
      "d": 141.7323000000033,
      "v": 95
    },
    {
      "midi": 55,
      "hit": false,
      "t": 126610.25099166752,
      "d": 110.23623333332944,
      "v": 116
    },
    {
      "midi": 59,
      "hit": false,
      "t": 126610.25099166752,
      "d": 110.23623333332944,
      "v": 119
    },
    {
      "midi": 58,
      "hit": false,
      "t": 127082.69199166753,
      "d": 149.60631666667177,
      "v": 115
    },
    {
      "midi": 63,
      "hit": false,
      "t": 127082.69199166753,
      "d": 149.60631666667177,
      "v": 126
    },
    {
      "midi": 57,
      "hit": false,
      "t": 127555.13299166753,
      "d": 149.60631666667177,
      "v": 115
    },
    {
      "midi": 62,
      "hit": false,
      "t": 127555.13299166753,
      "d": 169.29135833334294,
      "v": 124
    },
    {
      "midi": 43,
      "hit": false,
      "t": 127814.97554166755,
      "d": 137.79529166666907,
      "v": 95
    },
    {
      "midi": 60,
      "hit": false,
      "t": 128027.57399166755,
      "d": 165.35434999999416,
      "v": 121
    },
    {
      "midi": 55,
      "hit": false,
      "t": 128027.57399166755,
      "d": 173.22836666666262,
      "v": 115
    },
    {
      "midi": 43,
      "hit": false,
      "t": 128027.57399166755,
      "d": 188.97639999999956,
      "v": 101
    },
    {
      "midi": 43,
      "hit": false,
      "t": 128255.92047500088,
      "d": 244.09451666666428,
      "v": 111
    },
    {
      "midi": 36,
      "hit": false,
      "t": 128500.01499166754,
      "d": 1566.9293166666903,
      "v": 127
    },
    {
      "midi": 55,
      "hit": false,
      "t": 128968.51898333422,
      "d": 409.448866666673,
      "v": 125
    },
    {
      "midi": 60,
      "hit": false,
      "t": 128968.51898333422,
      "d": 409.448866666673,
      "v": 126
    },
    {
      "midi": 55,
      "hit": false,
      "t": 129437.02297500089,
      "d": 102.36221666667552,
      "v": 104
    },
    {
      "midi": 60,
      "hit": false,
      "t": 129444.89699166756,
      "d": 78.74016666667012,
      "v": 108
    },
    {
      "midi": 55,
      "hit": false,
      "t": 129673.2434750009,
      "d": 106.2992249999952,
      "v": 104
    },
    {
      "midi": 57,
      "hit": false,
      "t": 129921.2750000009,
      "d": 86.61418333333859,
      "v": 126
    },
    {
      "midi": 60,
      "hit": false,
      "t": 129921.2750000009,
      "d": 102.36221666667552,
      "v": 122
    },
    {
      "midi": 36,
      "hit": false,
      "t": 130133.8734500009,
      "d": 188.97639999999956,
      "v": 126
    },
    {
      "midi": 58,
      "hit": false,
      "t": 130389.77899166757,
      "d": 188.97639999999956,
      "v": 126
    },
    {
      "midi": 60,
      "hit": false,
      "t": 130389.77899166757,
      "d": 208.66144166667073,
      "v": 125
    },
    {
      "midi": 36,
      "hit": false,
      "t": 130389.77899166757,
      "d": 661.4174000000057,
      "v": 127
    },
    {
      "midi": 57,
      "hit": false,
      "t": 130862.21999166757,
      "d": 110.23623333332944,
      "v": 122
    },
    {
      "midi": 60,
      "hit": false,
      "t": 130866.15700000091,
      "d": 106.2992249999952,
      "v": 116
    },
    {
      "midi": 36,
      "hit": false,
      "t": 131098.44049166757,
      "d": 956.6930249999859,
      "v": 127
    },
    {
      "midi": 55,
      "hit": false,
      "t": 131330.72398333423,
      "d": 74.80315833332133,
      "v": 120
    },
    {
      "midi": 60,
      "hit": false,
      "t": 131334.66099166757,
      "d": 70.8661499999871,
      "v": 114
    },
    {
      "midi": 57,
      "hit": false,
      "t": 131566.94448333423,
      "d": 232.28349166666158,
      "v": 114
    },
    {
      "midi": 60,
      "hit": false,
      "t": 131566.94448333423,
      "d": 251.96853333333274,
      "v": 112
    },
    {
      "midi": 48,
      "hit": false,
      "t": 131807.10199166756,
      "d": 307.086650000012,
      "v": 122
    },
    {
      "midi": 67,
      "hit": false,
      "t": 132279.54299166758,
      "d": 196.85041666665347,
      "v": 113
    },
    {
      "midi": 64,
      "hit": false,
      "t": 132279.54299166758,
      "d": 204.72443333332194,
      "v": 99
    },
    {
      "midi": 70,
      "hit": false,
      "t": 132279.54299166758,
      "d": 208.66144166665617,
      "v": 107
    },
    {
      "midi": 67,
      "hit": false,
      "t": 132751.98399166757,
      "d": 149.60631666667177,
      "v": 107
    },
    {
      "midi": 70,
      "hit": false,
      "t": 132751.98399166757,
      "d": 161.41734166667447,
      "v": 103
    },
    {
      "midi": 64,
      "hit": false,
      "t": 132751.98399166757,
      "d": 165.3543500000087,
      "v": 99
    },
    {
      "midi": 67,
      "hit": false,
      "t": 133220.48798333426,
      "d": 145.66930833333754,
      "v": 107
    },
    {
      "midi": 70,
      "hit": false,
      "t": 133220.48798333426,
      "d": 157.48033333334024,
      "v": 103
    },
    {
      "midi": 64,
      "hit": false,
      "t": 133220.48798333426,
      "d": 161.41734166667447,
      "v": 96
    },
    {
      "midi": 64,
      "hit": false,
      "t": 133692.92898333428,
      "d": 185.03939166667988,
      "v": 95
    },
    {
      "midi": 67,
      "hit": false,
      "t": 133696.8659916676,
      "d": 157.48033333334024,
      "v": 105
    },
    {
      "midi": 70,
      "hit": false,
      "t": 133696.8659916676,
      "d": 165.3543500000087,
      "v": 98
    },
    {
      "midi": 71,
      "hit": false,
      "t": 134169.30699166763,
      "d": 173.22836666667718,
      "v": 103
    },
    {
      "midi": 67,
      "hit": false,
      "t": 134169.30699166763,
      "d": 177.1653750000114,
      "v": 104
    },
    {
      "midi": 64,
      "hit": false,
      "t": 134169.30699166763,
      "d": 200.7874250000168,
      "v": 100
    },
    {
      "midi": 67,
      "hit": false,
      "t": 134641.74799166765,
      "d": 157.48033333334024,
      "v": 100
    },
    {
      "midi": 71,
      "hit": false,
      "t": 134641.74799166765,
      "d": 157.48033333334024,
      "v": 100
    },
    {
      "midi": 64,
      "hit": false,
      "t": 134641.74799166765,
      "d": 169.29135833334294,
      "v": 100
    },
    {
      "midi": 71,
      "hit": false,
      "t": 135106.314975001,
      "d": 137.79529166666907,
      "v": 100
    },
    {
      "midi": 67,
      "hit": false,
      "t": 135106.314975001,
      "d": 141.7323000000033,
      "v": 100
    },
    {
      "midi": 64,
      "hit": false,
      "t": 135106.314975001,
      "d": 153.543325000006,
      "v": 100
    },
    {
      "midi": 71,
      "hit": false,
      "t": 135578.755975001,
      "d": 125.98426666666637,
      "v": 100
    },
    {
      "midi": 67,
      "hit": false,
      "t": 135578.755975001,
      "d": 129.9212750000006,
      "v": 100
    },
    {
      "midi": 64,
      "hit": false,
      "t": 135578.755975001,
      "d": 137.79529166666907,
      "v": 100
    },
    {
      "midi": 58,
      "hit": false,
      "t": 136059.07099166766,
      "d": 204.72443333332194,
      "v": 103
    },
    {
      "midi": 62,
      "hit": false,
      "t": 136059.07099166766,
      "d": 204.72443333332194,
      "v": 108
    },
    {
      "midi": 67,
      "hit": false,
      "t": 136059.07099166766,
      "d": 236.2204999999958,
      "v": 95
    },
    {
      "midi": 62,
      "hit": false,
      "t": 136531.51199166765,
      "d": 169.29135833334294,
      "v": 108
    },
    {
      "midi": 67,
      "hit": false,
      "t": 136531.51199166765,
      "d": 177.1653750000114,
      "v": 95
    },
    {
      "midi": 58,
      "hit": false,
      "t": 136531.51199166765,
      "d": 185.03939166667988,
      "v": 103
    },
    {
      "midi": 58,
      "hit": false,
      "t": 136988.20495833433,
      "d": 200.7874250000168,
      "v": 98
    },
    {
      "midi": 62,
      "hit": false,
      "t": 136992.14196666767,
      "d": 177.1653750000114,
      "v": 103
    },
    {
      "midi": 67,
      "hit": false,
      "t": 136992.14196666767,
      "d": 216.53545833335374,
      "v": 95
    },
    {
      "midi": 58,
      "hit": false,
      "t": 137464.5829666677,
      "d": 169.29135833334294,
      "v": 98
    },
    {
      "midi": 67,
      "hit": false,
      "t": 137464.5829666677,
      "d": 188.9764000000141,
      "v": 95
    },
    {
      "midi": 62,
      "hit": false,
      "t": 137468.51997500102,
      "d": 149.60631666667177,
      "v": 99
    },
    {
      "midi": 57,
      "hit": false,
      "t": 137933.08695833437,
      "d": 354.3307499999937,
      "v": 113
    },
    {
      "midi": 60,
      "hit": false,
      "t": 137933.08695833437,
      "d": 358.26775833332795,
      "v": 107
    },
    {
      "midi": 53,
      "hit": false,
      "t": 137933.08695833437,
      "d": 602.3622749999922,
      "v": 101
    },
    {
      "midi": 57,
      "hit": false,
      "t": 138413.40197500103,
      "d": 125.98426666666637,
      "v": 101
    },
    {
      "midi": 60,
      "hit": false,
      "t": 138413.40197500103,
      "d": 133.85828333333484,
      "v": 98
    },
    {
      "midi": 63,
      "hit": false,
      "t": 138657.4964916677,
      "d": 322.83468333331984,
      "v": 124
    },
    {
      "midi": 51,
      "hit": false,
      "t": 138657.4964916677,
      "d": 858.2678166666592,
      "v": 98
    },
    {
      "midi": 57,
      "hit": false,
      "t": 138657.4964916677,
      "d": 877.9528583333304,
      "v": 109
    },
    {
      "midi": 63,
      "hit": false,
      "t": 139129.9374916677,
      "d": 149.60631666667177,
      "v": 106
    },
    {
      "midi": 62,
      "hit": false,
      "t": 139377.9690166677,
      "d": 137.79529166666907,
      "v": 97
    },
    {
      "midi": 52,
      "hit": false,
      "t": 139838.5989916677,
      "d": 90.55119166665827,
      "v": 100
    },
    {
      "midi": 55,
      "hit": false,
      "t": 139838.5989916677,
      "d": 110.23623333332944,
      "v": 110
    },
    {
      "midi": 48,
      "hit": false,
      "t": 139838.5989916677,
      "d": 122.04725833333214,
      "v": 111
    },
    {
      "midi": 36,
      "hit": false,
      "t": 139838.5989916677,
      "d": 582.6772333333502,
      "v": 116
    },
    {
      "midi": 48,
      "hit": false,
      "t": 140311.0399916677,
      "d": 51.18110833334504,
      "v": 126
    },
    {
      "midi": 57,
      "hit": false,
      "t": 140311.0399916677,
      "d": 51.18110833334504,
      "v": 123
    },
    {
      "midi": 52,
      "hit": false,
      "t": 140311.0399916677,
      "d": 62.99213333334774,
      "v": 112
    },
    {
      "midi": 43,
      "hit": false,
      "t": 140543.3234833344,
      "d": 55.11811666667927,
      "v": 110
    },
    {
      "midi": 52,
      "hit": false,
      "t": 140783.48099166775,
      "d": 51.18110833334504,
      "v": 111
    },
    {
      "midi": 48,
      "hit": false,
      "t": 140783.48099166775,
      "d": 70.8661500000162,
      "v": 116
    },
    {
      "midi": 55,
      "hit": false,
      "t": 140783.48099166775,
      "d": 70.8661500000162,
      "v": 127
    },
    {
      "midi": 43,
      "hit": false,
      "t": 141000.0164500011,
      "d": 47.2441000000108,
      "v": 111
    },
    {
      "midi": 48,
      "hit": false,
      "t": 141267.73301666777,
      "d": 216.53545833332464,
      "v": 116
    },
    {
      "midi": 52,
      "hit": false,
      "t": 141267.73301666777,
      "d": 275.59058333333815,
      "v": 111
    },
    {
      "midi": 57,
      "hit": false,
      "t": 141267.73301666777,
      "d": 334.64570833335165,
      "v": 115
    },
    {
      "midi": 43,
      "hit": false,
      "t": 141724.42598333445,
      "d": 208.66144166668528,
      "v": 111
    },
    {
      "midi": 59,
      "hit": false,
      "t": 141728.3629916678,
      "d": 129.9212750000006,
      "v": 127
    },
    {
      "midi": 62,
      "hit": false,
      "t": 141728.3629916678,
      "d": 133.85828333333484,
      "v": 127
    },
    {
      "midi": 55,
      "hit": false,
      "t": 141728.3629916678,
      "d": 157.48033333334024,
      "v": 117
    },
    {
      "midi": 50,
      "hit": false,
      "t": 141964.5834916678,
      "d": 90.55119166665827,
      "v": 127
    },
    {
      "midi": 43,
      "hit": false,
      "t": 141964.5834916678,
      "d": 334.64570833335165,
      "v": 115
    },
    {
      "midi": 64,
      "hit": false,
      "t": 142192.92997500114,
      "d": 59.055125000013504,
      "v": 110
    },
    {
      "midi": 55,
      "hit": false,
      "t": 142192.92997500114,
      "d": 78.74016666668467,
      "v": 114
    },
    {
      "midi": 59,
      "hit": false,
      "t": 142192.92997500114,
      "d": 78.74016666668467,
      "v": 123
    },
    {
      "midi": 43,
      "hit": false,
      "t": 142437.02449166783,
      "d": 641.7323583333637,
      "v": 121
    },
    {
      "midi": 50,
      "hit": false,
      "t": 142673.24499166783,
      "d": 35.4330750000081,
      "v": 110
    },
    {
      "midi": 59,
      "hit": false,
      "t": 142673.24499166783,
      "d": 66.92914166668197,
      "v": 121
    },
    {
      "midi": 55,
      "hit": false,
      "t": 142673.24499166783,
      "d": 70.8661500000162,
      "v": 113
    },
    {
      "midi": 62,
      "hit": false,
      "t": 142673.24499166783,
      "d": 70.8661500000162,
      "v": 126
    },
    {
      "midi": 50,
      "hit": false,
      "t": 142913.4025000012,
      "d": 366.1417749999964,
      "v": 127
    },
    {
      "midi": 43,
      "hit": false,
      "t": 143145.68599166785,
      "d": 110.23623333332944,
      "v": 115
    },
    {
      "midi": 59,
      "hit": false,
      "t": 143149.6230000012,
      "d": 165.3543500000087,
      "v": 127
    },
    {
      "midi": 55,
      "hit": false,
      "t": 143149.6230000012,
      "d": 185.03939166667988,
      "v": 122
    },
    {
      "midi": 64,
      "hit": false,
      "t": 143149.6230000012,
      "d": 204.72443333335104,
      "v": 120
    },
    {
      "midi": 43,
      "hit": false,
      "t": 143381.90649166788,
      "d": 110.23623333332944,
      "v": 116
    },
    {
      "midi": 62,
      "hit": false,
      "t": 143381.90649166788,
      "d": 114.17324166666367,
      "v": 116
    },
    {
      "midi": 59,
      "hit": false,
      "t": 143389.78050833454,
      "d": 102.36221666666097,
      "v": 110
    },
    {
      "midi": 52,
      "hit": false,
      "t": 143618.12699166787,
      "d": 59.055125000013504,
      "v": 116
    },
    {
      "midi": 48,
      "hit": false,
      "t": 143618.12699166787,
      "d": 70.8661500000162,
      "v": 110
    },
    {
      "midi": 36,
      "hit": false,
      "t": 143618.12699166787,
      "d": 188.9764000000141,
      "v": 112
    },
    {
      "midi": 36,
      "hit": false,
      "t": 143854.3474916679,
      "d": 425.1968999999808,
      "v": 110
    },
    {
      "midi": 48,
      "hit": false,
      "t": 143858.28450000123,
      "d": 19.685041666671168,
      "v": 101
    },
    {
      "midi": 60,
      "hit": false,
      "t": 144082.69397500122,
      "d": 303.1496416666778,
      "v": 120
    },
    {
      "midi": 55,
      "hit": false,
      "t": 144086.63098333456,
      "d": 299.21263333334355,
      "v": 96
    },
    {
      "midi": 53,
      "hit": false,
      "t": 144090.5679916679,
      "d": 70.8661499999871,
      "v": 127
    },
    {
      "midi": 48,
      "hit": false,
      "t": 144090.5679916679,
      "d": 90.55119166665827,
      "v": 118
    },
    {
      "midi": 43,
      "hit": false,
      "t": 144326.7884916679,
      "d": 145.66930833333754,
      "v": 105
    },
    {
      "midi": 36,
      "hit": false,
      "t": 144326.7884916679,
      "d": 188.9764000000141,
      "v": 110
    },
    {
      "midi": 48,
      "hit": false,
      "t": 144563.0089916679,
      "d": 125.98426666666637,
      "v": 116
    },
    {
      "midi": 36,
      "hit": false,
      "t": 144563.0089916679,
      "d": 208.66144166665617,
      "v": 117
    },
    {
      "midi": 52,
      "hit": false,
      "t": 144563.0089916679,
      "d": 228.34648333332734,
      "v": 127
    },
    {
      "midi": 36,
      "hit": false,
      "t": 144799.2294916679,
      "d": 169.29135833331384,
      "v": 112
    },
    {
      "midi": 55,
      "hit": false,
      "t": 144799.2294916679,
      "d": 196.85041666665347,
      "v": 97
    },
    {
      "midi": 60,
      "hit": false,
      "t": 144799.2294916679,
      "d": 196.85041666665347,
      "v": 117
    },
    {
      "midi": 48,
      "hit": false,
      "t": 144803.16650000124,
      "d": 82.6771749999898,
      "v": 110
    },
    {
      "midi": 43,
      "hit": false,
      "t": 145027.57597500124,
      "d": 118.1102499999979,
      "v": 114
    },
    {
      "midi": 36,
      "hit": false,
      "t": 145031.51298333457,
      "d": 188.976399999985,
      "v": 118
    },
    {
      "midi": 60,
      "hit": false,
      "t": 145035.4499916679,
      "d": 196.85041666665347,
      "v": 122
    },
    {
      "midi": 55,
      "hit": false,
      "t": 145035.4499916679,
      "d": 208.66144166665617,
      "v": 91
    },
    {
      "midi": 36,
      "hit": false,
      "t": 145263.79647500123,
      "d": 228.34648333332734,
      "v": 111
    },
    {
      "midi": 46,
      "hit": false,
      "t": 145500.01697500123,
      "d": 653.5433833333373,
      "v": 109
    },
    {
      "midi": 67,
      "hit": false,
      "t": 145507.8909916667,
      "d": 1177.165491666674,
      "v": 1
    },
    {
      "midi": 58,
      "hit": false,
      "t": 145507.8909916667,
      "d": 1885.8269916666613,
      "v": 1
    },
    {
      "midi": 62,
      "hit": false,
      "t": 145507.8909916667,
      "d": 1885.8269916666613,
      "v": 1
    },
    {
      "midi": 58,
      "hit": false,
      "t": 145507.8909916679,
      "d": 78.74016666665557,
      "v": 112
    },
    {
      "midi": 62,
      "hit": false,
      "t": 145507.8909916679,
      "d": 86.61418333332404,
      "v": 106
    },
    {
      "midi": 53,
      "hit": false,
      "t": 145755.9225166679,
      "d": 55.11811666667927,
      "v": 96
    },
    {
      "midi": 53,
      "hit": false,
      "t": 145972.45797500125,
      "d": 74.80315833332133,
      "v": 113
    },
    {
      "midi": 58,
      "hit": false,
      "t": 145976.39498333458,
      "d": 106.2992249999952,
      "v": 113
    },
    {
      "midi": 63,
      "hit": false,
      "t": 145976.39498333458,
      "d": 106.2992249999952,
      "v": 105
    },
    {
      "midi": 46,
      "hit": false,
      "t": 146448.83598333457,
      "d": 657.4803916667297,
      "v": 105
    },
    {
      "midi": 63,
      "hit": false,
      "t": 146452.7729916679,
      "d": 204.72443333335104,
      "v": 106
    },
    {
      "midi": 67,
      "hit": false,
      "t": 146456.71000000124,
      "d": 177.1653750000114,
      "v": 105
    },
    {
      "midi": 58,
      "hit": false,
      "t": 146456.71000000124,
      "d": 405.51185833336785,
      "v": 122
    },
    {
      "midi": 62,
      "hit": false,
      "t": 146685.0564833346,
      "d": 188.9764000000141,
      "v": 100
    },
    {
      "midi": 65,
      "hit": false,
      "t": 146688.9934916667,
      "d": 704.7244916666532,
      "v": 1
    },
    {
      "midi": 53,
      "hit": false,
      "t": 146913.40296666796,
      "d": 169.29135833334294,
      "v": 105
    },
    {
      "midi": 62,
      "hit": false,
      "t": 146925.21399166796,
      "d": 133.85828333333484,
      "v": 105
    },
    {
      "midi": 58,
      "hit": false,
      "t": 146925.21399166796,
      "d": 145.66930833333754,
      "v": 110
    },
    {
      "midi": 46,
      "hit": false,
      "t": 147161.43449166798,
      "d": 216.53545833332464,
      "v": 110
    },
    {
      "midi": 60,
      "hit": false,
      "t": 147393.71798333465,
      "d": 98.42520833332674,
      "v": 105
    },
    {
      "midi": 57,
      "hit": false,
      "t": 147393.71798333465,
      "d": 110.23623333332944,
      "v": 117
    },
    {
      "midi": 53,
      "hit": false,
      "t": 147393.71798333465,
      "d": 118.1102499999979,
      "v": 105
    },
    {
      "midi": 41,
      "hit": false,
      "t": 147393.71798333465,
      "d": 149.60631666667177,
      "v": 111
    },
    {
      "midi": 57,
      "hit": false,
      "t": 147397.6549916667,
      "d": 1059.055241666676,
      "v": 1
    },
    {
      "midi": 60,
      "hit": false,
      "t": 147397.6549916667,
      "d": 1059.055241666676,
      "v": 1
    },
    {
      "midi": 48,
      "hit": false,
      "t": 147866.15898333464,
      "d": 51.18110833334504,
      "v": 105
    },
    {
      "midi": 53,
      "hit": false,
      "t": 147866.15898333464,
      "d": 70.8661500000162,
      "v": 108
    },
    {
      "midi": 57,
      "hit": false,
      "t": 147866.15898333464,
      "d": 74.80315833335044,
      "v": 117
    },
    {
      "midi": 62,
      "hit": false,
      "t": 147870.09599166797,
      "d": 94.4882000000216,
      "v": 105
    },
    {
      "midi": 60,
      "hit": false,
      "t": 147885.8440250013,
      "d": 78.74016666668467,
      "v": 105
    },
    {
      "midi": 41,
      "hit": false,
      "t": 148102.37948333466,
      "d": 66.92914166665287,
      "v": 105
    },
    {
      "midi": 41,
      "hit": false,
      "t": 148354.348016668,
      "d": 527.5591166667291,
      "v": 112
    },
    {
      "midi": 57,
      "hit": false,
      "t": 148362.22203333466,
      "d": 62.99213333334774,
      "v": 112
    },
    {
      "midi": 53,
      "hit": false,
      "t": 148362.22203333466,
      "d": 70.8661500000162,
      "v": 105
    },
    {
      "midi": 60,
      "hit": false,
      "t": 148362.22203333466,
      "d": 90.55119166668737,
      "v": 108
    },
    {
      "midi": 60,
      "hit": false,
      "t": 148610.2535583347,
      "d": 43.30709166667657,
      "v": 97
    },
    {
      "midi": 53,
      "hit": false,
      "t": 148830.72602500138,
      "d": 66.92914166668197,
      "v": 106
    },
    {
      "midi": 57,
      "hit": false,
      "t": 148834.6630333347,
      "d": 51.18110833334504,
      "v": 117
    },
    {
      "midi": 62,
      "hit": false,
      "t": 148838.60004166805,
      "d": 74.80315833335044,
      "v": 105
    },
    {
      "midi": 60,
      "hit": false,
      "t": 148850.41106666805,
      "d": 7.874016666668467,
      "v": 105
    },
    {
      "midi": 52,
      "hit": false,
      "t": 149051.19849166807,
      "d": 240.15750833333004,
      "v": 112
    },
    {
      "midi": 60,
      "hit": false,
      "t": 149051.19849166807,
      "d": 358.26775833332795,
      "v": 111
    },
    {
      "midi": 55,
      "hit": false,
      "t": 149051.19849166807,
      "d": 503.9370666666655,
      "v": 113
    },
    {
      "midi": 36,
      "hit": false,
      "t": 149291.3560000014,
      "d": 472.4409999999916,
      "v": 112
    },
    {
      "midi": 52,
      "hit": false,
      "t": 149759.85999166805,
      "d": 55.11811666667927,
      "v": 105
    },
    {
      "midi": 48,
      "hit": false,
      "t": 149759.85999166805,
      "d": 82.6771750000189,
      "v": 111
    },
    {
      "midi": 62,
      "hit": false,
      "t": 149759.85999166805,
      "d": 94.4882000000216,
      "v": 105
    },
    {
      "midi": 57,
      "hit": false,
      "t": 149759.85999166805,
      "d": 110.23623333335854,
      "v": 106
    },
    {
      "midi": 36,
      "hit": false,
      "t": 149988.2064750014,
      "d": 216.53545833332464,
      "v": 106
    },
    {
      "midi": 52,
      "hit": false,
      "t": 150232.30099166807,
      "d": 78.74016666665557,
      "v": 105
    },
    {
      "midi": 63,
      "hit": false,
      "t": 150232.30099166807,
      "d": 94.4881999999925,
      "v": 109
    },
    {
      "midi": 58,
      "hit": false,
      "t": 150232.30099166807,
      "d": 110.23623333332944,
      "v": 106
    },
    {
      "midi": 36,
      "hit": false,
      "t": 150236.2380000014,
      "d": 204.72443333332194,
      "v": 116
    },
    {
      "midi": 36,
      "hit": false,
      "t": 150468.52149166807,
      "d": 433.0709166666784,
      "v": 110
    },
    {
      "midi": 52,
      "hit": false,
      "t": 150704.74199166807,
      "d": 59.055125000013504,
      "v": 105
    },
    {
      "midi": 62,
      "hit": false,
      "t": 150704.74199166807,
      "d": 70.8661500000162,
      "v": 105
    },
    {
      "midi": 55,
      "hit": false,
      "t": 150704.74199166807,
      "d": 78.74016666668467,
      "v": 105
    },
    {
      "midi": 48,
      "hit": false,
      "t": 150704.74199166807,
      "d": 118.11025000002701,
      "v": 106
    },
    {
      "midi": 36,
      "hit": false,
      "t": 150940.9624916681,
      "d": 188.9764000000141,
      "v": 108
    },
    {
      "midi": 55,
      "hit": false,
      "t": 151177.18299166812,
      "d": 94.4881999999925,
      "v": 106
    },
    {
      "midi": 58,
      "hit": false,
      "t": 151177.18299166812,
      "d": 94.4881999999925,
      "v": 105
    },
    {
      "midi": 63,
      "hit": false,
      "t": 151177.18299166812,
      "d": 118.1102499999979,
      "v": 124
    },
    {
      "midi": 36,
      "hit": false,
      "t": 151177.18299166812,
      "d": 539.3701416666445,
      "v": 109
    },
    {
      "midi": 57,
      "hit": false,
      "t": 151405.52947500144,
      "d": 208.66144166665617,
      "v": 93
    },
    {
      "midi": 62,
      "hit": false,
      "t": 151641.74997500144,
      "d": 141.7323000000033,
      "v": 105
    },
    {
      "midi": 55,
      "hit": false,
      "t": 151641.74997500144,
      "d": 145.66930833333754,
      "v": 105
    },
    {
      "midi": 48,
      "hit": false,
      "t": 151645.68698333477,
      "d": 129.9212750000006,
      "v": 108
    },
    {
      "midi": 55,
      "hit": false,
      "t": 151877.97047500144,
      "d": 358.26775833332795,
      "v": 111
    },
    {
      "midi": 48,
      "hit": false,
      "t": 151877.97047500144,
      "d": 444.881941666652,
      "v": 107
    },
    {
      "midi": 60,
      "hit": false,
      "t": 151877.97047500144,
      "d": 543.3071500000078,
      "v": 121
    },
    {
      "midi": 36,
      "hit": false,
      "t": 152141.75003333477,
      "d": 429.13390833334415,
      "v": 117
    },
    {
      "midi": 55,
      "hit": false,
      "t": 152358.2854916681,
      "d": 90.55119166668737,
      "v": 105
    },
    {
      "midi": 48,
      "hit": false,
      "t": 152594.50599166812,
      "d": 106.2992249999952,
      "v": 121
    },
    {
      "midi": 62,
      "hit": false,
      "t": 152594.50599166812,
      "d": 192.91340833331924,
      "v": 103
    },
    {
      "midi": 55,
      "hit": false,
      "t": 152594.50599166812,
      "d": 397.6378416666703,
      "v": 98
    },
    {
      "midi": 60,
      "hit": false,
      "t": 152822.85247500145,
      "d": 196.85041666668258,
      "v": 107
    },
    {
      "midi": 36,
      "hit": false,
      "t": 152842.53751666812,
      "d": 216.53545833335374,
      "v": 103
    },
    {
      "midi": 67,
      "hit": false,
      "t": 153066.94699166671,
      "d": 1177.165491666674,
      "v": 1
    },
    {
      "midi": 58,
      "hit": false,
      "t": 153066.94699166671,
      "d": 1885.8269916666613,
      "v": 1
    },
    {
      "midi": 62,
      "hit": false,
      "t": 153066.94699166671,
      "d": 1885.8269916666613,
      "v": 1
    },
    {
      "midi": 58,
      "hit": false,
      "t": 153066.94699166814,
      "d": 212.5984499999904,
      "v": 105
    },
    {
      "midi": 53,
      "hit": false,
      "t": 153066.94699166814,
      "d": 267.7165666666697,
      "v": 105
    },
    {
      "midi": 62,
      "hit": false,
      "t": 153066.94699166814,
      "d": 381.88980833333335,
      "v": 105
    },
    {
      "midi": 46,
      "hit": false,
      "t": 153078.75801666814,
      "d": 519.6851000000024,
      "v": 115
    },
    {
      "midi": 58,
      "hit": false,
      "t": 153551.19901666814,
      "d": 11.8110250000027,
      "v": 88
    },
    {
      "midi": 53,
      "hit": false,
      "t": 153555.13602500147,
      "d": 35.4330750000081,
      "v": 105
    },
    {
      "midi": 53,
      "hit": false,
      "t": 153787.41951666816,
      "d": 47.2441000000108,
      "v": 101
    },
    {
      "midi": 53,
      "hit": false,
      "t": 154003.9549750015,
      "d": 94.4881999999925,
      "v": 105
    },
    {
      "midi": 58,
      "hit": false,
      "t": 154003.9549750015,
      "d": 129.9212750000006,
      "v": 113
    },
    {
      "midi": 62,
      "hit": false,
      "t": 154003.9549750015,
      "d": 181.10238333334564,
      "v": 105
    },
    {
      "midi": 46,
      "hit": false,
      "t": 154011.82899166818,
      "d": 496.0630500000261,
      "v": 115
    },
    {
      "midi": 53,
      "hit": false,
      "t": 154240.17547500154,
      "d": 78.74016666665557,
      "v": 105
    },
    {
      "midi": 65,
      "hit": false,
      "t": 154248.04949166672,
      "d": 704.7244916666532,
      "v": 1
    },
    {
      "midi": 53,
      "hit": false,
      "t": 154464.58495000153,
      "d": 248.0315250000276,
      "v": 106
    },
    {
      "midi": 58,
      "hit": false,
      "t": 154472.4589666682,
      "d": 157.48033333334024,
      "v": 124
    },
    {
      "midi": 62,
      "hit": false,
      "t": 154472.4589666682,
      "d": 181.10238333334564,
      "v": 105
    },
    {
      "midi": 2,
      "hit": false,
      "t": 154633.87630833487,
      "d": 5590.55183333336,
      "v": 82
    },
    {
      "midi": 1,
      "hit": false,
      "t": 154641.75032500154,
      "d": 5582.677816666692,
      "v": 73
    },
    {
      "midi": 53,
      "hit": false,
      "t": 154720.49049166823,
      "d": 165.3543500000087,
      "v": 105
    },
    {
      "midi": 60,
      "hit": false,
      "t": 154720.49049166823,
      "d": 220.47246666668798,
      "v": 109
    },
    {
      "midi": 57,
      "hit": false,
      "t": 154724.42750000156,
      "d": 157.48033333334024,
      "v": 123
    },
    {
      "midi": 41,
      "hit": false,
      "t": 154937.02595000158,
      "d": 102.36221666666097,
      "v": 117
    },
    {
      "midi": 57,
      "hit": false,
      "t": 154956.7109916667,
      "d": 1059.055241666676,
      "v": 1
    },
    {
      "midi": 60,
      "hit": false,
      "t": 154956.7109916667,
      "d": 1059.055241666676,
      "v": 1
    },
    {
      "midi": 41,
      "hit": false,
      "t": 155185.05747500158,
      "d": 165.3543500000087,
      "v": 105
    },
    {
      "midi": 48,
      "hit": false,
      "t": 155413.40395833494,
      "d": 192.91340833334834,
      "v": 126
    },
    {
      "midi": 53,
      "hit": false,
      "t": 155421.2779750016,
      "d": 141.7323000000033,
      "v": 106
    },
    {
      "midi": 57,
      "hit": false,
      "t": 155421.2779750016,
      "d": 177.1653750000114,
      "v": 118
    },
    {
      "midi": 60,
      "hit": false,
      "t": 155421.2779750016,
      "d": 185.03939166667988,
      "v": 108
    },
    {
      "midi": 41,
      "hit": false,
      "t": 155905.53000000163,
      "d": 503.9370666666364,
      "v": 116
    },
    {
      "midi": 53,
      "hit": false,
      "t": 156106.31742500162,
      "d": 70.8661499999871,
      "v": 105
    },
    {
      "midi": 48,
      "hit": false,
      "t": 156370.09698333492,
      "d": 66.92914166668197,
      "v": 105
    },
    {
      "midi": 53,
      "hit": false,
      "t": 156370.09698333492,
      "d": 78.74016666668467,
      "v": 106
    },
    {
      "midi": 60,
      "hit": false,
      "t": 156374.03399166826,
      "d": 78.74016666668467,
      "v": 109
    },
    {
      "midi": 57,
      "hit": false,
      "t": 156374.03399166826,
      "d": 110.23623333335854,
      "v": 118
    },
    {
      "midi": 55,
      "hit": false,
      "t": 156602.3804750016,
      "d": 177.1653750000114,
      "v": 116
    },
    {
      "midi": 60,
      "hit": false,
      "t": 156606.31748333495,
      "d": 161.41734166667447,
      "v": 105
    },
    {
      "midi": 52,
      "hit": false,
      "t": 156610.25449166828,
      "d": 161.41734166667447,
      "v": 105
    },
    {
      "midi": 36,
      "hit": false,
      "t": 156846.47499166828,
      "d": 661.4174000000057,
      "v": 121
    },
    {
      "midi": 79,
      "hit": false,
      "t": 157063.0104500016,
      "d": 59.055125000013504,
      "v": 82
    },
    {
      "midi": 70,
      "hit": false,
      "t": 157066.94745833494,
      "d": 51.18110833334504,
      "v": 68
    },
    {
      "midi": 63,
      "hit": false,
      "t": 157070.88446666827,
      "d": 59.055125000013504,
      "v": 82
    },
    {
      "midi": 70,
      "hit": false,
      "t": 157200.80574166827,
      "d": 59.055125000013504,
      "v": 72
    },
    {
      "midi": 79,
      "hit": false,
      "t": 157204.7427500016,
      "d": 47.2441000000108,
      "v": 86
    },
    {
      "midi": 63,
      "hit": false,
      "t": 157208.67975833494,
      "d": 47.2441000000108,
      "v": 86
    },
    {
      "midi": 70,
      "hit": false,
      "t": 157318.9159916683,
      "d": 70.8661499999871,
      "v": 94
    },
    {
      "midi": 79,
      "hit": false,
      "t": 157318.9159916683,
      "d": 86.61418333332404,
      "v": 108
    },
    {
      "midi": 63,
      "hit": false,
      "t": 157322.85300000163,
      "d": 86.61418333332404,
      "v": 108
    },
    {
      "midi": 36,
      "hit": false,
      "t": 157547.26247500163,
      "d": 216.53545833332464,
      "v": 106
    },
    {
      "midi": 70,
      "hit": false,
      "t": 157555.1364916683,
      "d": 90.55119166665827,
      "v": 80
    },
    {
      "midi": 79,
      "hit": false,
      "t": 157555.1364916683,
      "d": 90.55119166665827,
      "v": 98
    },
    {
      "midi": 63,
      "hit": false,
      "t": 157555.1364916683,
      "d": 94.4881999999925,
      "v": 98
    },
    {
      "midi": 70,
      "hit": false,
      "t": 157783.48297500162,
      "d": 110.23623333332944,
      "v": 96
    },
    {
      "midi": 79,
      "hit": false,
      "t": 157783.48297500162,
      "d": 125.98426666666637,
      "v": 112
    },
    {
      "midi": 63,
      "hit": false,
      "t": 157791.3569916683,
      "d": 125.98426666666637,
      "v": 112
    },
    {
      "midi": 36,
      "hit": false,
      "t": 157795.29400000162,
      "d": 204.72443333332194,
      "v": 116
    },
    {
      "midi": 79,
      "hit": false,
      "t": 158015.76646666828,
      "d": 118.1102499999979,
      "v": 101
    },
    {
      "midi": 70,
      "hit": false,
      "t": 158023.64048333495,
      "d": 86.61418333332404,
      "v": 92
    },
    {
      "midi": 63,
      "hit": false,
      "t": 158023.64048333495,
      "d": 114.17324166666367,
      "v": 101
    },
    {
      "midi": 36,
      "hit": false,
      "t": 158027.5774916683,
      "d": 433.0709166666493,
      "v": 110
    },
    {
      "midi": 79,
      "hit": false,
      "t": 158248.04995833494,
      "d": 118.1102499999979,
      "v": 118
    },
    {
      "midi": 70,
      "hit": false,
      "t": 158251.98696666828,
      "d": 98.42520833332674,
      "v": 104
    },
    {
      "midi": 63,
      "hit": false,
      "t": 158251.98696666828,
      "d": 118.1102499999979,
      "v": 118
    },
    {
      "midi": 70,
      "hit": false,
      "t": 158484.27045833494,
      "d": 110.23623333332944,
      "v": 96
    },
    {
      "midi": 79,
      "hit": false,
      "t": 158484.27045833494,
      "d": 114.17324166666367,
      "v": 106
    },
    {
      "midi": 63,
      "hit": false,
      "t": 158484.27045833494,
      "d": 118.1102499999979,
      "v": 106
    },
    {
      "midi": 36,
      "hit": false,
      "t": 158500.01849166828,
      "d": 188.976399999985,
      "v": 108
    },
    {
      "midi": 70,
      "hit": false,
      "t": 158732.30198333494,
      "d": 106.2992249999952,
      "v": 103
    },
    {
      "midi": 63,
      "hit": false,
      "t": 158732.30198333494,
      "d": 125.98426666666637,
      "v": 119
    },
    {
      "midi": 79,
      "hit": false,
      "t": 158732.30198333494,
      "d": 125.98426666666637,
      "v": 119
    },
    {
      "midi": 36,
      "hit": false,
      "t": 158736.23899166827,
      "d": 472.4409999999916,
      "v": 112
    },
    {
      "midi": 67,
      "hit": false,
      "t": 158964.5854750016,
      "d": 110.23623333332944,
      "v": 91
    },
    {
      "midi": 63,
      "hit": false,
      "t": 158964.5854750016,
      "d": 118.1102499999979,
      "v": 112
    },
    {
      "midi": 79,
      "hit": false,
      "t": 158964.5854750016,
      "d": 125.98426666666637,
      "v": 101
    },
    {
      "midi": 65,
      "hit": false,
      "t": 159200.8059750016,
      "d": 102.36221666666097,
      "v": 91
    },
    {
      "midi": 77,
      "hit": false,
      "t": 159200.8059750016,
      "d": 118.1102499999979,
      "v": 90
    },
    {
      "midi": 62,
      "hit": false,
      "t": 159200.8059750016,
      "d": 125.98426666666637,
      "v": 112
    },
    {
      "midi": 36,
      "hit": false,
      "t": 159429.15245833492,
      "d": 216.53545833332464,
      "v": 106
    },
    {
      "midi": 63,
      "hit": false,
      "t": 159437.0264750016,
      "d": 86.61418333332404,
      "v": 89
    },
    {
      "midi": 75,
      "hit": false,
      "t": 159437.0264750016,
      "d": 106.2992249999952,
      "v": 93
    },
    {
      "midi": 60,
      "hit": false,
      "t": 159437.0264750016,
      "d": 137.79529166666907,
      "v": 100
    },
    {
      "midi": 67,
      "hit": false,
      "t": 159673.2469750016,
      "d": 82.6771749999898,
      "v": 100
    },
    {
      "midi": 63,
      "hit": false,
      "t": 159673.2469750016,
      "d": 122.04725833333214,
      "v": 117
    },
    {
      "midi": 79,
      "hit": false,
      "t": 159673.2469750016,
      "d": 133.85828333333484,
      "v": 101
    },
    {
      "midi": 36,
      "hit": false,
      "t": 159681.12099166826,
      "d": 204.72443333332194,
      "v": 116
    },
    {
      "midi": 60,
      "hit": false,
      "t": 159909.46747500158,
      "d": 129.9212750000006,
      "v": 100
    },
    {
      "midi": 72,
      "hit": false,
      "t": 159909.46747500158,
      "d": 137.79529166666907,
      "v": 90
    },
    {
      "midi": 36,
      "hit": false,
      "t": 159909.46747500158,
      "d": 433.0709166666493,
      "v": 110
    },
    {
      "midi": 58,
      "hit": false,
      "t": 160145.68797500158,
      "d": 157.48033333331114,
      "v": 115
    },
    {
      "midi": 65,
      "hit": false,
      "t": 160145.68797500158,
      "d": 169.29135833331384,
      "v": 123
    },
    {
      "midi": 58,
      "hit": false,
      "t": 160381.90847500158,
      "d": 208.66144166668528,
      "v": 89
    },
    {
      "midi": 36,
      "hit": false,
      "t": 160385.8454833349,
      "d": 188.9764000000141,
      "v": 101
    },
    {
      "midi": 67,
      "hit": false,
      "t": 160626.00299166673,
      "d": 1177.165491666674,
      "v": 1
    },
    {
      "midi": 58,
      "hit": false,
      "t": 160626.00299166673,
      "d": 1885.8269916666613,
      "v": 1
    },
    {
      "midi": 62,
      "hit": false,
      "t": 160626.00299166673,
      "d": 1885.8269916666613,
      "v": 1
    },
    {
      "midi": 58,
      "hit": false,
      "t": 160626.00299166827,
      "d": 212.5984499999904,
      "v": 105
    },
    {
      "midi": 53,
      "hit": false,
      "t": 160626.00299166827,
      "d": 228.34648333332734,
      "v": 105
    },
    {
      "midi": 62,
      "hit": false,
      "t": 160626.00299166827,
      "d": 381.88980833333335,
      "v": 105
    },
    {
      "midi": 46,
      "hit": false,
      "t": 160626.00299166827,
      "d": 519.6851000000024,
      "v": 115
    },
    {
      "midi": 53,
      "hit": false,
      "t": 160874.03451666827,
      "d": 118.1102499999979,
      "v": 96
    },
    {
      "midi": 53,
      "hit": false,
      "t": 161090.5699750016,
      "d": 74.80315833335044,
      "v": 113
    },
    {
      "midi": 58,
      "hit": false,
      "t": 161094.50698333493,
      "d": 106.29922500002431,
      "v": 113
    },
    {
      "midi": 63,
      "hit": false,
      "t": 161094.50698333493,
      "d": 106.29922500002431,
      "v": 105
    },
    {
      "midi": 46,
      "hit": false,
      "t": 161566.94798333495,
      "d": 657.4803916667297,
      "v": 105
    },
    {
      "midi": 63,
      "hit": false,
      "t": 161570.88499166828,
      "d": 204.72443333335104,
      "v": 106
    },
    {
      "midi": 67,
      "hit": false,
      "t": 161574.82200000162,
      "d": 177.1653750000114,
      "v": 105
    },
    {
      "midi": 58,
      "hit": false,
      "t": 161574.82200000162,
      "d": 405.51185833336785,
      "v": 122
    },
    {
      "midi": 62,
      "hit": false,
      "t": 161803.16848333497,
      "d": 188.9764000000141,
      "v": 100
    },
    {
      "midi": 65,
      "hit": false,
      "t": 161807.10549166673,
      "d": 704.7244916666532,
      "v": 1
    },
    {
      "midi": 53,
      "hit": false,
      "t": 162031.51496666833,
      "d": 169.29135833334294,
      "v": 105
    },
    {
      "midi": 62,
      "hit": false,
      "t": 162043.32599166833,
      "d": 133.85828333333484,
      "v": 105
    },
    {
      "midi": 58,
      "hit": false,
      "t": 162043.32599166833,
      "d": 145.66930833333754,
      "v": 110
    },
    {
      "midi": 46,
      "hit": false,
      "t": 162279.54649166836,
      "d": 216.53545833332464,
      "v": 110
    },
    {
      "midi": 60,
      "hit": false,
      "t": 162511.82998333502,
      "d": 98.42520833332674,
      "v": 105
    },
    {
      "midi": 57,
      "hit": false,
      "t": 162511.82998333502,
      "d": 110.23623333332944,
      "v": 117
    },
    {
      "midi": 53,
      "hit": false,
      "t": 162511.82998333502,
      "d": 118.1102499999979,
      "v": 105
    },
    {
      "midi": 41,
      "hit": false,
      "t": 162511.82998333502,
      "d": 149.60631666667177,
      "v": 111
    },
    {
      "midi": 57,
      "hit": false,
      "t": 162515.76699166672,
      "d": 1059.055241666676,
      "v": 1
    },
    {
      "midi": 60,
      "hit": false,
      "t": 162515.76699166672,
      "d": 1059.055241666676,
      "v": 1
    },
    {
      "midi": 48,
      "hit": false,
      "t": 162984.270983335,
      "d": 51.18110833334504,
      "v": 105
    },
    {
      "midi": 53,
      "hit": false,
      "t": 162984.270983335,
      "d": 70.8661500000162,
      "v": 108
    },
    {
      "midi": 57,
      "hit": false,
      "t": 162984.270983335,
      "d": 74.80315833335044,
      "v": 117
    },
    {
      "midi": 62,
      "hit": false,
      "t": 162988.20799166834,
      "d": 94.4882000000216,
      "v": 105
    },
    {
      "midi": 60,
      "hit": false,
      "t": 163003.95602500168,
      "d": 78.74016666668467,
      "v": 105
    },
    {
      "midi": 41,
      "hit": false,
      "t": 163220.49148333503,
      "d": 66.92914166665287,
      "v": 105
    },
    {
      "midi": 41,
      "hit": false,
      "t": 163472.46001666837,
      "d": 527.5591166667291,
      "v": 112
    },
    {
      "midi": 57,
      "hit": false,
      "t": 163480.33403333504,
      "d": 62.99213333334774,
      "v": 112
    },
    {
      "midi": 53,
      "hit": false,
      "t": 163480.33403333504,
      "d": 70.8661500000162,
      "v": 105
    },
    {
      "midi": 60,
      "hit": false,
      "t": 163480.33403333504,
      "d": 90.55119166668737,
      "v": 108
    },
    {
      "midi": 60,
      "hit": false,
      "t": 163728.36555833506,
      "d": 43.30709166667657,
      "v": 97
    },
    {
      "midi": 53,
      "hit": false,
      "t": 163948.83802500175,
      "d": 66.92914166668197,
      "v": 106
    },
    {
      "midi": 57,
      "hit": false,
      "t": 163952.77503333509,
      "d": 51.18110833334504,
      "v": 117
    },
    {
      "midi": 62,
      "hit": false,
      "t": 163956.71204166842,
      "d": 74.80315833335044,
      "v": 105
    },
    {
      "midi": 60,
      "hit": false,
      "t": 163968.52306666842,
      "d": 7.874016666668467,
      "v": 105
    },
    {
      "midi": 52,
      "hit": false,
      "t": 164169.31049166844,
      "d": 240.15750833333004,
      "v": 112
    },
    {
      "midi": 60,
      "hit": false,
      "t": 164169.31049166844,
      "d": 358.26775833332795,
      "v": 111
    },
    {
      "midi": 55,
      "hit": false,
      "t": 164169.31049166844,
      "d": 503.9370666666655,
      "v": 113
    },
    {
      "midi": 36,
      "hit": false,
      "t": 164409.46800000177,
      "d": 472.4410000000207,
      "v": 112
    },
    {
      "midi": 79,
      "hit": false,
      "t": 164622.06645000176,
      "d": 59.055125000013504,
      "v": 82
    },
    {
      "midi": 70,
      "hit": false,
      "t": 164626.0034583351,
      "d": 51.18110833334504,
      "v": 68
    },
    {
      "midi": 63,
      "hit": false,
      "t": 164629.94046666843,
      "d": 59.055125000013504,
      "v": 82
    },
    {
      "midi": 70,
      "hit": false,
      "t": 164759.86174166843,
      "d": 59.055125000013504,
      "v": 72
    },
    {
      "midi": 79,
      "hit": false,
      "t": 164763.79875000176,
      "d": 47.2441000000108,
      "v": 86
    },
    {
      "midi": 63,
      "hit": false,
      "t": 164767.7357583351,
      "d": 47.2441000000108,
      "v": 86
    },
    {
      "midi": 70,
      "hit": false,
      "t": 164877.97199166846,
      "d": 70.8661499999871,
      "v": 94
    },
    {
      "midi": 79,
      "hit": false,
      "t": 164877.97199166846,
      "d": 86.61418333332404,
      "v": 108
    },
    {
      "midi": 63,
      "hit": false,
      "t": 164881.9090000018,
      "d": 86.61418333332404,
      "v": 108
    },
    {
      "midi": 36,
      "hit": false,
      "t": 165106.31847500178,
      "d": 216.53545833332464,
      "v": 106
    },
    {
      "midi": 70,
      "hit": false,
      "t": 165114.19249166845,
      "d": 90.55119166665827,
      "v": 80
    },
    {
      "midi": 79,
      "hit": false,
      "t": 165114.19249166845,
      "d": 90.55119166665827,
      "v": 98
    },
    {
      "midi": 63,
      "hit": false,
      "t": 165114.19249166845,
      "d": 94.4881999999925,
      "v": 98
    },
    {
      "midi": 70,
      "hit": false,
      "t": 165342.53897500178,
      "d": 110.23623333332944,
      "v": 96
    },
    {
      "midi": 79,
      "hit": false,
      "t": 165342.53897500178,
      "d": 125.98426666666637,
      "v": 112
    },
    {
      "midi": 63,
      "hit": false,
      "t": 165350.41299166845,
      "d": 125.98426666666637,
      "v": 112
    },
    {
      "midi": 36,
      "hit": false,
      "t": 165354.35000000178,
      "d": 204.72443333332194,
      "v": 116
    },
    {
      "midi": 79,
      "hit": false,
      "t": 165574.82246666844,
      "d": 118.1102499999979,
      "v": 101
    },
    {
      "midi": 70,
      "hit": false,
      "t": 165582.6964833351,
      "d": 86.61418333332404,
      "v": 92
    },
    {
      "midi": 63,
      "hit": false,
      "t": 165582.6964833351,
      "d": 114.17324166666367,
      "v": 101
    },
    {
      "midi": 36,
      "hit": false,
      "t": 165586.63349166844,
      "d": 433.0709166666493,
      "v": 110
    },
    {
      "midi": 79,
      "hit": false,
      "t": 165807.1059583351,
      "d": 118.1102499999979,
      "v": 118
    },
    {
      "midi": 70,
      "hit": false,
      "t": 165811.04296666844,
      "d": 98.42520833332674,
      "v": 104
    },
    {
      "midi": 63,
      "hit": false,
      "t": 165811.04296666844,
      "d": 118.1102499999979,
      "v": 118
    },
    {
      "midi": 70,
      "hit": false,
      "t": 166043.3264583351,
      "d": 110.23623333332944,
      "v": 96
    },
    {
      "midi": 79,
      "hit": false,
      "t": 166043.3264583351,
      "d": 114.17324166666367,
      "v": 106
    },
    {
      "midi": 63,
      "hit": false,
      "t": 166043.3264583351,
      "d": 118.1102499999979,
      "v": 106
    },
    {
      "midi": 36,
      "hit": false,
      "t": 166059.07449166843,
      "d": 188.976399999985,
      "v": 108
    },
    {
      "midi": 70,
      "hit": false,
      "t": 166291.3579833351,
      "d": 106.2992249999952,
      "v": 103
    },
    {
      "midi": 63,
      "hit": false,
      "t": 166291.3579833351,
      "d": 125.98426666666637,
      "v": 119
    },
    {
      "midi": 79,
      "hit": false,
      "t": 166291.3579833351,
      "d": 125.98426666666637,
      "v": 119
    },
    {
      "midi": 36,
      "hit": false,
      "t": 166295.29499166843,
      "d": 472.4409999999916,
      "v": 112
    },
    {
      "midi": 67,
      "hit": false,
      "t": 166523.64147500176,
      "d": 110.23623333332944,
      "v": 91
    },
    {
      "midi": 63,
      "hit": false,
      "t": 166523.64147500176,
      "d": 118.1102499999979,
      "v": 112
    },
    {
      "midi": 79,
      "hit": false,
      "t": 166523.64147500176,
      "d": 125.98426666666637,
      "v": 101
    },
    {
      "midi": 65,
      "hit": false,
      "t": 166759.86197500175,
      "d": 102.36221666666097,
      "v": 91
    },
    {
      "midi": 77,
      "hit": false,
      "t": 166759.86197500175,
      "d": 118.1102499999979,
      "v": 90
    },
    {
      "midi": 62,
      "hit": false,
      "t": 166759.86197500175,
      "d": 125.98426666666637,
      "v": 112
    },
    {
      "midi": 36,
      "hit": false,
      "t": 166988.20845833508,
      "d": 216.53545833332464,
      "v": 106
    },
    {
      "midi": 63,
      "hit": false,
      "t": 166996.08247500175,
      "d": 86.61418333332404,
      "v": 89
    },
    {
      "midi": 75,
      "hit": false,
      "t": 166996.08247500175,
      "d": 106.2992249999952,
      "v": 93
    },
    {
      "midi": 60,
      "hit": false,
      "t": 166996.08247500175,
      "d": 137.79529166666907,
      "v": 100
    },
    {
      "midi": 67,
      "hit": false,
      "t": 167232.30297500174,
      "d": 82.6771749999898,
      "v": 100
    },
    {
      "midi": 63,
      "hit": false,
      "t": 167232.30297500174,
      "d": 122.04725833333214,
      "v": 117
    },
    {
      "midi": 79,
      "hit": false,
      "t": 167232.30297500174,
      "d": 133.85828333333484,
      "v": 101
    },
    {
      "midi": 36,
      "hit": false,
      "t": 167240.1769916684,
      "d": 204.72443333332194,
      "v": 116
    },
    {
      "midi": 60,
      "hit": false,
      "t": 167468.52347500174,
      "d": 129.9212750000006,
      "v": 100
    },
    {
      "midi": 72,
      "hit": false,
      "t": 167468.52347500174,
      "d": 137.79529166666907,
      "v": 90
    },
    {
      "midi": 36,
      "hit": false,
      "t": 167468.52347500174,
      "d": 433.0709166666784,
      "v": 110
    },
    {
      "midi": 58,
      "hit": false,
      "t": 167704.74397500174,
      "d": 157.48033333334024,
      "v": 115
    },
    {
      "midi": 65,
      "hit": false,
      "t": 167704.74397500174,
      "d": 169.29135833334294,
      "v": 123
    },
    {
      "midi": 58,
      "hit": false,
      "t": 167940.96447500176,
      "d": 208.66144166668528,
      "v": 89
    },
    {
      "midi": 36,
      "hit": false,
      "t": 167944.9014833351,
      "d": 188.9764000000141,
      "v": 101
    },
    {
      "midi": 67,
      "hit": false,
      "t": 168185.05899166674,
      "d": 1177.165491666674,
      "v": 1
    },
    {
      "midi": 58,
      "hit": false,
      "t": 168185.05899166674,
      "d": 1885.8269916666613,
      "v": 1
    },
    {
      "midi": 62,
      "hit": false,
      "t": 168185.05899166674,
      "d": 1885.8269916666613,
      "v": 1
    },
    {
      "midi": 58,
      "hit": false,
      "t": 168185.05899166845,
      "d": 212.5984499999904,
      "v": 105
    },
    {
      "midi": 53,
      "hit": false,
      "t": 168185.05899166845,
      "d": 267.7165666666697,
      "v": 105
    },
    {
      "midi": 62,
      "hit": false,
      "t": 168185.05899166845,
      "d": 381.88980833333335,
      "v": 105
    },
    {
      "midi": 46,
      "hit": false,
      "t": 168185.05899166845,
      "d": 519.6851000000024,
      "v": 115
    },
    {
      "midi": 58,
      "hit": false,
      "t": 168669.31101666845,
      "d": 11.8110250000027,
      "v": 88
    },
    {
      "midi": 53,
      "hit": false,
      "t": 168673.24802500178,
      "d": 35.4330750000081,
      "v": 105
    },
    {
      "midi": 53,
      "hit": false,
      "t": 168905.53151666844,
      "d": 47.2441000000108,
      "v": 101
    },
    {
      "midi": 53,
      "hit": false,
      "t": 169122.0669750018,
      "d": 94.4881999999925,
      "v": 105
    },
    {
      "midi": 58,
      "hit": false,
      "t": 169122.0669750018,
      "d": 129.9212750000006,
      "v": 113
    },
    {
      "midi": 62,
      "hit": false,
      "t": 169122.0669750018,
      "d": 181.10238333334564,
      "v": 105
    },
    {
      "midi": 46,
      "hit": false,
      "t": 169129.94099166847,
      "d": 496.0630500000261,
      "v": 115
    },
    {
      "midi": 53,
      "hit": false,
      "t": 169358.28747500182,
      "d": 78.74016666665557,
      "v": 105
    },
    {
      "midi": 65,
      "hit": false,
      "t": 169366.16149166675,
      "d": 704.7244916666532,
      "v": 1
    },
    {
      "midi": 53,
      "hit": false,
      "t": 169582.69695000182,
      "d": 248.0315250000276,
      "v": 106
    },
    {
      "midi": 58,
      "hit": false,
      "t": 169590.57096666849,
      "d": 157.48033333334024,
      "v": 124
    },
    {
      "midi": 62,
      "hit": false,
      "t": 169590.57096666849,
      "d": 181.10238333334564,
      "v": 105
    },
    {
      "midi": 2,
      "hit": false,
      "t": 169751.98830833516,
      "d": 5590.551833333448,
      "v": 82
    },
    {
      "midi": 1,
      "hit": false,
      "t": 169759.86232500183,
      "d": 5582.677816666779,
      "v": 73
    },
    {
      "midi": 53,
      "hit": false,
      "t": 169838.6024916685,
      "d": 165.3543500000087,
      "v": 105
    },
    {
      "midi": 60,
      "hit": false,
      "t": 169838.6024916685,
      "d": 220.47246666668798,
      "v": 109
    },
    {
      "midi": 57,
      "hit": false,
      "t": 169842.53950000185,
      "d": 157.48033333334024,
      "v": 123
    },
    {
      "midi": 41,
      "hit": false,
      "t": 170055.13795000187,
      "d": 102.36221666666097,
      "v": 117
    },
    {
      "midi": 57,
      "hit": false,
      "t": 170074.82299166673,
      "d": 1059.055241666676,
      "v": 1
    },
    {
      "midi": 60,
      "hit": false,
      "t": 170074.82299166673,
      "d": 1059.055241666676,
      "v": 1
    },
    {
      "midi": 41,
      "hit": false,
      "t": 170303.16947500187,
      "d": 165.3543500000087,
      "v": 105
    },
    {
      "midi": 48,
      "hit": false,
      "t": 170531.51595833522,
      "d": 192.91340833334834,
      "v": 126
    },
    {
      "midi": 53,
      "hit": false,
      "t": 170539.3899750019,
      "d": 141.7323000000033,
      "v": 106
    },
    {
      "midi": 57,
      "hit": false,
      "t": 170539.3899750019,
      "d": 177.1653750000114,
      "v": 118
    },
    {
      "midi": 60,
      "hit": false,
      "t": 170539.3899750019,
      "d": 185.03939166667988,
      "v": 108
    },
    {
      "midi": 41,
      "hit": false,
      "t": 171023.6420000019,
      "d": 503.9370666666364,
      "v": 116
    },
    {
      "midi": 53,
      "hit": false,
      "t": 171224.4294250019,
      "d": 70.8661499999871,
      "v": 105
    },
    {
      "midi": 48,
      "hit": false,
      "t": 171488.2089833352,
      "d": 66.92914166668197,
      "v": 105
    },
    {
      "midi": 53,
      "hit": false,
      "t": 171488.2089833352,
      "d": 78.74016666668467,
      "v": 106
    },
    {
      "midi": 60,
      "hit": false,
      "t": 171492.14599166854,
      "d": 78.74016666668467,
      "v": 109
    },
    {
      "midi": 57,
      "hit": false,
      "t": 171492.14599166854,
      "d": 110.23623333335854,
      "v": 118
    },
    {
      "midi": 55,
      "hit": false,
      "t": 171720.4924750019,
      "d": 177.1653750000114,
      "v": 116
    },
    {
      "midi": 60,
      "hit": false,
      "t": 171724.42948333523,
      "d": 161.41734166667447,
      "v": 105
    },
    {
      "midi": 52,
      "hit": false,
      "t": 171728.36649166857,
      "d": 161.41734166667447,
      "v": 105
    },
    {
      "midi": 36,
      "hit": false,
      "t": 171964.58699166856,
      "d": 374.0157916666649,
      "v": 121
    },
    {
      "midi": 52,
      "hit": false,
      "t": 172437.02799166855,
      "d": 55.11811666667927,
      "v": 105
    },
    {
      "midi": 48,
      "hit": false,
      "t": 172437.02799166855,
      "d": 82.6771750000189,
      "v": 111
    },
    {
      "midi": 62,
      "hit": false,
      "t": 172437.02799166855,
      "d": 94.4882000000216,
      "v": 105
    },
    {
      "midi": 57,
      "hit": false,
      "t": 172437.02799166855,
      "d": 110.23623333335854,
      "v": 106
    },
    {
      "midi": 36,
      "hit": false,
      "t": 172665.3744750019,
      "d": 216.53545833332464,
      "v": 106
    },
    {
      "midi": 52,
      "hit": false,
      "t": 172909.46899166857,
      "d": 78.74016666665557,
      "v": 105
    },
    {
      "midi": 63,
      "hit": false,
      "t": 172909.46899166857,
      "d": 94.4881999999925,
      "v": 109
    },
    {
      "midi": 58,
      "hit": false,
      "t": 172909.46899166857,
      "d": 110.23623333332944,
      "v": 106
    },
    {
      "midi": 36,
      "hit": false,
      "t": 172913.4060000019,
      "d": 204.72443333332194,
      "v": 116
    },
    {
      "midi": 36,
      "hit": false,
      "t": 173145.68949166857,
      "d": 433.0709166666784,
      "v": 110
    },
    {
      "midi": 52,
      "hit": false,
      "t": 173381.90999166857,
      "d": 59.055125000013504,
      "v": 105
    },
    {
      "midi": 62,
      "hit": false,
      "t": 173381.90999166857,
      "d": 70.8661500000162,
      "v": 105
    },
    {
      "midi": 55,
      "hit": false,
      "t": 173381.90999166857,
      "d": 78.74016666668467,
      "v": 105
    },
    {
      "midi": 48,
      "hit": false,
      "t": 173381.90999166857,
      "d": 118.11025000002701,
      "v": 106
    },
    {
      "midi": 36,
      "hit": false,
      "t": 173618.1304916686,
      "d": 188.9764000000141,
      "v": 108
    },
    {
      "midi": 55,
      "hit": false,
      "t": 173854.35099166862,
      "d": 94.4881999999925,
      "v": 106
    },
    {
      "midi": 58,
      "hit": false,
      "t": 173854.35099166862,
      "d": 94.4881999999925,
      "v": 105
    },
    {
      "midi": 63,
      "hit": false,
      "t": 173854.35099166862,
      "d": 118.1102499999979,
      "v": 124
    },
    {
      "midi": 36,
      "hit": false,
      "t": 173854.35099166862,
      "d": 539.3701416666445,
      "v": 109
    },
    {
      "midi": 57,
      "hit": false,
      "t": 174082.69747500194,
      "d": 208.66144166665617,
      "v": 93
    },
    {
      "midi": 62,
      "hit": false,
      "t": 174318.91797500194,
      "d": 141.7323000000033,
      "v": 105
    },
    {
      "midi": 55,
      "hit": false,
      "t": 174318.91797500194,
      "d": 145.66930833333754,
      "v": 105
    },
    {
      "midi": 48,
      "hit": false,
      "t": 174322.85498333527,
      "d": 129.9212750000006,
      "v": 108
    },
    {
      "midi": 55,
      "hit": false,
      "t": 174555.13847500194,
      "d": 358.26775833332795,
      "v": 111
    },
    {
      "midi": 48,
      "hit": false,
      "t": 174555.13847500194,
      "d": 444.881941666652,
      "v": 107
    },
    {
      "midi": 60,
      "hit": false,
      "t": 174555.13847500194,
      "d": 543.3071500000078,
      "v": 121
    },
    {
      "midi": 36,
      "hit": false,
      "t": 174818.91803333527,
      "d": 429.13390833334415,
      "v": 117
    },
    {
      "midi": 55,
      "hit": false,
      "t": 175035.4534916686,
      "d": 90.55119166668737,
      "v": 105
    },
    {
      "midi": 48,
      "hit": false,
      "t": 175271.67399166862,
      "d": 106.2992249999952,
      "v": 121
    },
    {
      "midi": 62,
      "hit": false,
      "t": 175271.67399166862,
      "d": 192.91340833331924,
      "v": 103
    },
    {
      "midi": 55,
      "hit": false,
      "t": 175271.67399166862,
      "d": 397.6378416666703,
      "v": 98
    },
    {
      "midi": 60,
      "hit": false,
      "t": 175500.02047500195,
      "d": 196.85041666668258,
      "v": 107
    },
    {
      "midi": 36,
      "hit": false,
      "t": 175519.70551666862,
      "d": 196.85041666668258,
      "v": 103
    },
    {
      "midi": 67,
      "hit": false,
      "t": 175744.11499166675,
      "d": 1177.165491666674,
      "v": 1
    },
    {
      "midi": 58,
      "hit": false,
      "t": 175744.11499166675,
      "d": 1885.8269916666613,
      "v": 1
    },
    {
      "midi": 62,
      "hit": false,
      "t": 175744.11499166675,
      "d": 1885.8269916666613,
      "v": 1
    },
    {
      "midi": 70,
      "hit": false,
      "t": 175744.11499166864,
      "d": 236.2204999999958,
      "v": 110
    },
    {
      "midi": 34,
      "hit": false,
      "t": 175744.11499166864,
      "d": 374.0157916666649,
      "v": 121
    },
    {
      "midi": 72,
      "hit": false,
      "t": 175748.05200000198,
      "d": 232.28349166666158,
      "v": 112
    },
    {
      "midi": 74,
      "hit": false,
      "t": 175748.05200000198,
      "d": 236.2204999999958,
      "v": 106
    },
    {
      "midi": 77,
      "hit": false,
      "t": 175748.05200000198,
      "d": 236.2204999999958,
      "v": 111
    },
    {
      "midi": 70,
      "hit": false,
      "t": 176216.55599166863,
      "d": 216.53545833332464,
      "v": 106
    },
    {
      "midi": 72,
      "hit": false,
      "t": 176216.55599166863,
      "d": 228.34648333332734,
      "v": 108
    },
    {
      "midi": 74,
      "hit": false,
      "t": 176216.55599166863,
      "d": 232.28349166666158,
      "v": 105
    },
    {
      "midi": 77,
      "hit": false,
      "t": 176216.55599166863,
      "d": 232.28349166666158,
      "v": 111
    },
    {
      "midi": 34,
      "hit": false,
      "t": 176444.90247500196,
      "d": 216.53545833332464,
      "v": 106
    },
    {
      "midi": 70,
      "hit": false,
      "t": 176688.99699166862,
      "d": 196.85041666665347,
      "v": 102
    },
    {
      "midi": 72,
      "hit": false,
      "t": 176688.99699166862,
      "d": 204.72443333332194,
      "v": 104
    },
    {
      "midi": 74,
      "hit": false,
      "t": 176688.99699166862,
      "d": 208.66144166665617,
      "v": 105
    },
    {
      "midi": 77,
      "hit": false,
      "t": 176688.99699166862,
      "d": 208.66144166665617,
      "v": 109
    },
    {
      "midi": 34,
      "hit": false,
      "t": 176692.93400000196,
      "d": 204.72443333332194,
      "v": 116
    },
    {
      "midi": 65,
      "hit": false,
      "t": 176925.21749166676,
      "d": 704.7244916666532,
      "v": 1
    },
    {
      "midi": 34,
      "hit": false,
      "t": 176925.21749166862,
      "d": 433.0709166666784,
      "v": 110
    },
    {
      "midi": 70,
      "hit": false,
      "t": 177169.31200833528,
      "d": 216.53545833335374,
      "v": 102
    },
    {
      "midi": 77,
      "hit": false,
      "t": 177169.31200833528,
      "d": 228.34648333335645,
      "v": 106
    },
    {
      "midi": 74,
      "hit": false,
      "t": 177169.31200833528,
      "d": 248.0315250000276,
      "v": 105
    },
    {
      "midi": 72,
      "hit": false,
      "t": 177169.31200833528,
      "d": 255.90554166669608,
      "v": 104
    },
    {
      "midi": 36,
      "hit": false,
      "t": 177401.59550000197,
      "d": 188.9764000000141,
      "v": 108
    },
    {
      "midi": 41,
      "hit": false,
      "t": 177626.004975002,
      "d": 452.75595833332045,
      "v": 109
    },
    {
      "midi": 57,
      "hit": false,
      "t": 177633.87899166674,
      "d": 1059.055241666676,
      "v": 1
    },
    {
      "midi": 60,
      "hit": false,
      "t": 177633.87899166674,
      "d": 1059.055241666676,
      "v": 1
    },
    {
      "midi": 69,
      "hit": false,
      "t": 177633.87899166867,
      "d": 220.47246666665887,
      "v": 106
    },
    {
      "midi": 72,
      "hit": false,
      "t": 177633.87899166867,
      "d": 220.47246666665887,
      "v": 103
    },
    {
      "midi": 65,
      "hit": false,
      "t": 177633.87899166867,
      "d": 236.2204999999958,
      "v": 99
    },
    {
      "midi": 69,
      "hit": false,
      "t": 178106.31999166866,
      "d": 224.4094749999931,
      "v": 106
    },
    {
      "midi": 72,
      "hit": false,
      "t": 178106.31999166866,
      "d": 228.34648333332734,
      "v": 106
    },
    {
      "midi": 65,
      "hit": false,
      "t": 178110.257000002,
      "d": 240.15750833333004,
      "v": 100
    },
    {
      "midi": 41,
      "hit": false,
      "t": 178114.19400833533,
      "d": 433.0709166666493,
      "v": 103
    },
    {
      "midi": 65,
      "hit": false,
      "t": 178578.76099166865,
      "d": 169.29135833334294,
      "v": 82
    },
    {
      "midi": 69,
      "hit": false,
      "t": 178578.76099166865,
      "d": 196.85041666668258,
      "v": 89
    },
    {
      "midi": 72,
      "hit": false,
      "t": 178578.76099166865,
      "d": 204.72443333335104,
      "v": 91
    },
    {
      "midi": 41,
      "hit": false,
      "t": 178582.69800000198,
      "d": 503.9370666666655,
      "v": 116
    },
    {
      "midi": 53,
      "hit": false,
      "t": 178783.485425002,
      "d": 70.8661499999871,
      "v": 105
    },
    {
      "midi": 48,
      "hit": false,
      "t": 179047.2649833353,
      "d": 66.92914166668197,
      "v": 105
    },
    {
      "midi": 53,
      "hit": false,
      "t": 179047.2649833353,
      "d": 78.74016666668467,
      "v": 106
    },
    {
      "midi": 60,
      "hit": false,
      "t": 179051.20199166864,
      "d": 78.74016666668467,
      "v": 109
    },
    {
      "midi": 57,
      "hit": false,
      "t": 179051.20199166864,
      "d": 110.23623333335854,
      "v": 118
    },
    {
      "midi": 55,
      "hit": false,
      "t": 179279.548475002,
      "d": 177.1653750000114,
      "v": 116
    },
    {
      "midi": 60,
      "hit": false,
      "t": 179283.48548333533,
      "d": 161.41734166667447,
      "v": 105
    },
    {
      "midi": 52,
      "hit": false,
      "t": 179287.42249166867,
      "d": 161.41734166667447,
      "v": 105
    },
    {
      "midi": 36,
      "hit": false,
      "t": 179291.359500002,
      "d": 188.9764000000141,
      "v": 103
    },
    {
      "midi": 36,
      "hit": false,
      "t": 179523.6429916687,
      "d": 452.75595833332045,
      "v": 126
    },
    {
      "midi": 40,
      "hit": false,
      "t": 179996.08399166868,
      "d": 216.53545833332464,
      "v": 113
    },
    {
      "midi": 36,
      "hit": false,
      "t": 180358.28875833534,
      "d": 98.42520833332674,
      "v": 127
    },
    {
      "midi": 41,
      "hit": false,
      "t": 180472.462000002,
      "d": 204.72443333332194,
      "v": 123
    },
    {
      "midi": 36,
      "hit": false,
      "t": 180704.74549166867,
      "d": 433.0709166666784,
      "v": 117
    },
    {
      "midi": 36,
      "hit": false,
      "t": 181177.1864916687,
      "d": 188.9764000000141,
      "v": 115
    },
    {
      "midi": 36,
      "hit": false,
      "t": 181409.46998333538,
      "d": 157.48033333334024,
      "v": 116
    },
    {
      "midi": 39,
      "hit": false,
      "t": 181649.6274916687,
      "d": 153.543325000006,
      "v": 122
    },
    {
      "midi": 38,
      "hit": false,
      "t": 181885.8479916687,
      "d": 141.7323000000033,
      "v": 116
    },
    {
      "midi": 36,
      "hit": false,
      "t": 182122.0684916687,
      "d": 2590.5514833333436,
      "v": 123
    },
    {
      "midi": 64,
      "hit": false,
      "t": 182358.2889916687,
      "d": 2354.330983333348,
      "v": 108
    },
    {
      "midi": 67,
      "hit": false,
      "t": 182358.2889916687,
      "d": 2354.330983333348,
      "v": 96
    },
    {
      "midi": 58,
      "hit": false,
      "t": 182366.16300833537,
      "d": 2346.4569666666794,
      "v": 95
    }
  ]
}