{
  "jsonPath": "Rock/Album Rock/Joe Cocker/dont-you-love-me-anymore.json",
  "path": "Rock\\Album Rock\\Joe Cocker\\Dont You Love Me Anymore.mid",
  "name": "Dont You Love Me Anymore",
  "difficulty": "Advanced",
  "bpm": 82.00082000820008,
  "notes": [
    {
      "midi": 32,
      "hit": false,
      "t": 5853.6,
      "d": 320.11875000000055,
      "v": 107
    },
    {
      "midi": 56,
      "hit": false,
      "t": 5853.6,
      "d": 350.6062500000007,
      "v": 116
    },
    {
      "midi": 60,
      "hit": false,
      "t": 5853.6,
      "d": 354.4171875000011,
      "v": 116
    },
    {
      "midi": 63,
      "hit": false,
      "t": 5853.6,
      "d": 373.4718750000011,
      "v": 110
    },
    {
      "midi": 68,
      "hit": false,
      "t": 5853.6,
      "d": 407.7703125000007,
      "v": 109
    },
    {
      "midi": 44,
      "hit": false,
      "t": 5865.032812500001,
      "d": 346.7953125000013,
      "v": 116
    },
    {
      "midi": 63,
      "hit": false,
      "t": 6943.528125000001,
      "d": 121.94999999999982,
      "v": 110
    },
    {
      "midi": 51,
      "hit": false,
      "t": 6954.960937500001,
      "d": 125.76093749999927,
      "v": 109
    },
    {
      "midi": 60,
      "hit": false,
      "t": 7305.5671875,
      "d": 137.19375000000036,
      "v": 110
    },
    {
      "midi": 72,
      "hit": false,
      "t": 7305.5671875,
      "d": 182.92500000000018,
      "v": 115
    },
    {
      "midi": 58,
      "hit": false,
      "t": 7820.04375,
      "d": 156.24843750000036,
      "v": 116
    },
    {
      "midi": 70,
      "hit": false,
      "t": 7820.04375,
      "d": 160.05937500000073,
      "v": 122
    },
    {
      "midi": 68,
      "hit": false,
      "t": 8387.8734375,
      "d": 83.84062500000073,
      "v": 122
    },
    {
      "midi": 56,
      "hit": false,
      "t": 8395.495312500001,
      "d": 95.2734375,
      "v": 121
    },
    {
      "midi": 56,
      "hit": false,
      "t": 8738.479687500001,
      "d": 518.2875000000004,
      "v": 119
    },
    {
      "midi": 68,
      "hit": false,
      "t": 8738.479687500001,
      "d": 586.8843750000015,
      "v": 98
    },
    {
      "midi": 65,
      "hit": false,
      "t": 8742.290625000001,
      "d": 537.3421875000004,
      "v": 100
    },
    {
      "midi": 61,
      "hit": false,
      "t": 8742.290625000001,
      "d": 544.9640625000011,
      "v": 110
    },
    {
      "midi": 37,
      "hit": false,
      "t": 8753.7234375,
      "d": 503.0437500000007,
      "v": 109
    },
    {
      "midi": 49,
      "hit": false,
      "t": 8753.7234375,
      "d": 548.7750000000015,
      "v": 119
    },
    {
      "midi": 65,
      "hit": false,
      "t": 9866.517187500003,
      "d": 118.13906250000036,
      "v": 109
    },
    {
      "midi": 53,
      "hit": false,
      "t": 9866.517187500003,
      "d": 125.76093750000109,
      "v": 98
    },
    {
      "midi": 60,
      "hit": false,
      "t": 10232.367187500004,
      "d": 171.49218749999818,
      "v": 112
    },
    {
      "midi": 72,
      "hit": false,
      "t": 10243.800000000003,
      "d": 148.62656249999964,
      "v": 113
    },
    {
      "midi": 58,
      "hit": false,
      "t": 10758.276562500001,
      "d": 156.24843750000036,
      "v": 110
    },
    {
      "midi": 70,
      "hit": false,
      "t": 10758.276562500001,
      "d": 156.24843750000036,
      "v": 121
    },
    {
      "midi": 68,
      "hit": false,
      "t": 11272.753125000001,
      "d": 83.84062500000073,
      "v": 119
    },
    {
      "midi": 56,
      "hit": false,
      "t": 11291.807812500001,
      "d": 114.328125,
      "v": 110
    },
    {
      "midi": 32,
      "hit": false,
      "t": 11684.334375,
      "d": 525.9093749999993,
      "v": 109
    },
    {
      "midi": 56,
      "hit": false,
      "t": 11684.334375,
      "d": 525.9093749999993,
      "v": 121
    },
    {
      "midi": 60,
      "hit": false,
      "t": 11688.1453125,
      "d": 544.9640624999993,
      "v": 115
    },
    {
      "midi": 63,
      "hit": false,
      "t": 11688.1453125,
      "d": 579.2624999999989,
      "v": 115
    },
    {
      "midi": 68,
      "hit": false,
      "t": 11688.1453125,
      "d": 613.5609374999985,
      "v": 113
    },
    {
      "midi": 44,
      "hit": false,
      "t": 11703.3890625,
      "d": 541.1531249999989,
      "v": 119
    },
    {
      "midi": 63,
      "hit": false,
      "t": 12808.560937499999,
      "d": 91.46250000000146,
      "v": 113
    },
    {
      "midi": 51,
      "hit": false,
      "t": 12816.1828125,
      "d": 99.08437500000036,
      "v": 110
    },
    {
      "midi": 60,
      "hit": false,
      "t": 13170.6,
      "d": 160.05937500000073,
      "v": 113
    },
    {
      "midi": 72,
      "hit": false,
      "t": 13170.6,
      "d": 179.11406250000073,
      "v": 112
    },
    {
      "midi": 70,
      "hit": false,
      "t": 13688.8875,
      "d": 213.41250000000036,
      "v": 122
    },
    {
      "midi": 58,
      "hit": false,
      "t": 13692.698437500001,
      "d": 160.05937500000073,
      "v": 119
    },
    {
      "midi": 68,
      "hit": false,
      "t": 14199.553125,
      "d": 87.65156250000109,
      "v": 123
    },
    {
      "midi": 56,
      "hit": false,
      "t": 14203.3640625,
      "d": 114.328125,
      "v": 118
    },
    {
      "midi": 61,
      "hit": false,
      "t": 14618.756250000002,
      "d": 434.44687500000146,
      "v": 110
    },
    {
      "midi": 56,
      "hit": false,
      "t": 14622.567187500003,
      "d": 400.1484375000018,
      "v": 116
    },
    {
      "midi": 65,
      "hit": false,
      "t": 14622.567187500003,
      "d": 426.8250000000007,
      "v": 104
    },
    {
      "midi": 68,
      "hit": false,
      "t": 14622.567187500003,
      "d": 461.12343750000036,
      "v": 91
    },
    {
      "midi": 37,
      "hit": false,
      "t": 14626.378125000003,
      "d": 362.0390625000018,
      "v": 107
    },
    {
      "midi": 49,
      "hit": false,
      "t": 14630.189062500003,
      "d": 403.95937500000036,
      "v": 121
    },
    {
      "midi": 65,
      "hit": false,
      "t": 15697.251562500003,
      "d": 106.70625000000109,
      "v": 103
    },
    {
      "midi": 53,
      "hit": false,
      "t": 15704.873437500004,
      "d": 118.13906250000036,
      "v": 98
    },
    {
      "midi": 60,
      "hit": false,
      "t": 16070.723437500004,
      "d": 160.05937500000073,
      "v": 109
    },
    {
      "midi": 72,
      "hit": false,
      "t": 16074.534375000005,
      "d": 152.4375,
      "v": 112
    },
    {
      "midi": 58,
      "hit": false,
      "t": 16596.632812500004,
      "d": 160.05937500000073,
      "v": 113
    },
    {
      "midi": 70,
      "hit": false,
      "t": 16596.632812500004,
      "d": 167.68125000000146,
      "v": 112
    },
    {
      "midi": 75,
      "hit": false,
      "t": 16981.537500000006,
      "d": 83.84062500000073,
      "v": 119
    },
    {
      "midi": 63,
      "hit": false,
      "t": 16981.537500000006,
      "d": 91.46250000000146,
      "v": 124
    },
    {
      "midi": 68,
      "hit": false,
      "t": 17534.123437500006,
      "d": 849.8390624999993,
      "v": 113
    },
    {
      "midi": 63,
      "hit": false,
      "t": 17534.123437500006,
      "d": 880.3265624999985,
      "v": 115
    },
    {
      "midi": 60,
      "hit": false,
      "t": 17534.123437500006,
      "d": 887.9484374999993,
      "v": 113
    },
    {
      "midi": 56,
      "hit": false,
      "t": 17534.123437500006,
      "d": 945.1124999999993,
      "v": 118
    },
    {
      "midi": 44,
      "hit": false,
      "t": 17537.934375000004,
      "d": 2263.696874999998,
      "v": 113
    },
    {
      "midi": 51,
      "hit": false,
      "t": 19016.578125000004,
      "d": 941.3015624999971,
      "v": 90
    },
    {
      "midi": 56,
      "hit": false,
      "t": 19020.389062500002,
      "d": 914.625,
      "v": 98
    },
    {
      "midi": 60,
      "hit": false,
      "t": 19024.2,
      "d": 948.9234375000015,
      "v": 87
    },
    {
      "midi": 53,
      "hit": false,
      "t": 20491.410937500004,
      "d": 1341.4500000000007,
      "v": 93
    },
    {
      "midi": 56,
      "hit": false,
      "t": 20491.410937500004,
      "d": 1379.5593750000007,
      "v": 110
    },
    {
      "midi": 37,
      "hit": false,
      "t": 20491.410937500004,
      "d": 2477.1093750000036,
      "v": 100
    },
    {
      "midi": 49,
      "hit": false,
      "t": 20495.221875000003,
      "d": 1337.6390625000022,
      "v": 95
    },
    {
      "midi": 49,
      "hit": false,
      "t": 21924.323437500007,
      "d": 884.1375000000007,
      "v": 82
    },
    {
      "midi": 56,
      "hit": false,
      "t": 21931.945312500007,
      "d": 922.2468750000007,
      "v": 109
    },
    {
      "midi": 53,
      "hit": false,
      "t": 21931.945312500007,
      "d": 929.8687500000015,
      "v": 93
    },
    {
      "midi": 51,
      "hit": false,
      "t": 23387.723437500008,
      "d": 1021.3312499999993,
      "v": 109
    },
    {
      "midi": 56,
      "hit": false,
      "t": 23391.534375000007,
      "d": 1318.5843750000022,
      "v": 107
    },
    {
      "midi": 60,
      "hit": false,
      "t": 23391.534375000007,
      "d": 1318.5843750000022,
      "v": 101
    },
    {
      "midi": 44,
      "hit": false,
      "t": 23399.156250000007,
      "d": 2660.0343749999993,
      "v": 101
    },
    {
      "midi": 51,
      "hit": false,
      "t": 24504.328125000007,
      "d": 282.00937500000146,
      "v": 75
    },
    {
      "midi": 51,
      "hit": false,
      "t": 24877.80000000001,
      "d": 1067.0624999999964,
      "v": 112
    },
    {
      "midi": 56,
      "hit": false,
      "t": 24881.61093750001,
      "d": 1051.8187499999985,
      "v": 107
    },
    {
      "midi": 60,
      "hit": false,
      "t": 24881.61093750001,
      "d": 1120.4156249999978,
      "v": 101
    },
    {
      "midi": 49,
      "hit": false,
      "t": 26322.145312500004,
      "d": 1318.5843750000022,
      "v": 107
    },
    {
      "midi": 53,
      "hit": false,
      "t": 26322.145312500004,
      "d": 1928.3343750000022,
      "v": 100
    },
    {
      "midi": 56,
      "hit": false,
      "t": 26322.145312500004,
      "d": 2507.596875000003,
      "v": 113
    },
    {
      "midi": 37,
      "hit": false,
      "t": 26322.145312500004,
      "d": 2522.8406250000044,
      "v": 104
    },
    {
      "midi": 49,
      "hit": false,
      "t": 27793.167187500007,
      "d": 842.2171875000022,
      "v": 118
    },
    {
      "midi": 53,
      "hit": false,
      "t": 28532.489062500008,
      "d": 259.1437499999993,
      "v": 109
    },
    {
      "midi": 51,
      "hit": false,
      "t": 29271.81093750001,
      "d": 1215.6890624999978,
      "v": 118
    },
    {
      "midi": 60,
      "hit": false,
      "t": 29271.81093750001,
      "d": 1219.4999999999964,
      "v": 107
    },
    {
      "midi": 56,
      "hit": false,
      "t": 29275.621875000008,
      "d": 1189.0125000000007,
      "v": 112
    },
    {
      "midi": 44,
      "hit": false,
      "t": 29279.432812500007,
      "d": 872.7046875000015,
      "v": 113
    },
    {
      "midi": 44,
      "hit": false,
      "t": 30350.30625000001,
      "d": 1299.5296874999985,
      "v": 85
    },
    {
      "midi": 51,
      "hit": false,
      "t": 30719.967187500006,
      "d": 903.1921875000007,
      "v": 119
    },
    {
      "midi": 56,
      "hit": false,
      "t": 30719.967187500006,
      "d": 910.8140625000015,
      "v": 112
    },
    {
      "midi": 60,
      "hit": false,
      "t": 30719.967187500006,
      "d": 929.8687500000015,
      "v": 106
    },
    {
      "midi": 49,
      "hit": false,
      "t": 32168.123437500006,
      "d": 674.5359374999971,
      "v": 122
    },
    {
      "midi": 37,
      "hit": false,
      "t": 32168.123437500006,
      "d": 739.3218749999942,
      "v": 110
    },
    {
      "midi": 53,
      "hit": false,
      "t": 32168.123437500006,
      "d": 743.1328124999927,
      "v": 112
    },
    {
      "midi": 56,
      "hit": false,
      "t": 32168.123437500006,
      "d": 788.8640624999898,
      "v": 118
    },
    {
      "midi": 61,
      "hit": false,
      "t": 32168.123437500006,
      "d": 800.2968749999927,
      "v": 118
    },
    {
      "midi": 48,
      "hit": false,
      "t": 33642.956249999996,
      "d": 773.6203125000029,
      "v": 112
    },
    {
      "midi": 36,
      "hit": false,
      "t": 33642.956249999996,
      "d": 876.515625,
      "v": 107
    },
    {
      "midi": 60,
      "hit": false,
      "t": 33646.767187499994,
      "d": 796.4859375000015,
      "v": 115
    },
    {
      "midi": 56,
      "hit": false,
      "t": 33646.767187499994,
      "d": 811.7296875000029,
      "v": 122
    },
    {
      "midi": 63,
      "hit": false,
      "t": 33646.767187499994,
      "d": 849.8390625000029,
      "v": 116
    },
    {
      "midi": 61,
      "hit": false,
      "t": 35102.54531249999,
      "d": 533.53125,
      "v": 116
    },
    {
      "midi": 46,
      "hit": false,
      "t": 35102.54531249999,
      "d": 2416.134374999994,
      "v": 113
    },
    {
      "midi": 58,
      "hit": false,
      "t": 35106.35624999999,
      "d": 537.3421874999985,
      "v": 118
    },
    {
      "midi": 53,
      "hit": false,
      "t": 35106.35624999999,
      "d": 564.0187499999956,
      "v": 106
    },
    {
      "midi": 34,
      "hit": false,
      "t": 35106.35624999999,
      "d": 2347.5374999999985,
      "v": 112
    },
    {
      "midi": 49,
      "hit": false,
      "t": 36207.717187499984,
      "d": 259.1437500000029,
      "v": 93
    },
    {
      "midi": 53,
      "hit": false,
      "t": 36562.13437499999,
      "d": 564.0187500000029,
      "v": 110
    },
    {
      "midi": 49,
      "hit": false,
      "t": 36562.13437499999,
      "d": 975.5999999999985,
      "v": 119
    },
    {
      "midi": 58,
      "hit": false,
      "t": 36562.13437499999,
      "d": 990.8437499999927,
      "v": 115
    },
    {
      "midi": 53,
      "hit": false,
      "t": 37293.83437499999,
      "d": 251.52187499999127,
      "v": 104
    },
    {
      "midi": 55,
      "hit": false,
      "t": 38033.15624999998,
      "d": 1916.901562500003,
      "v": 115
    },
    {
      "midi": 51,
      "hit": false,
      "t": 38033.15624999998,
      "d": 1943.578125,
      "v": 118
    },
    {
      "midi": 60,
      "hit": false,
      "t": 38036.96718749998,
      "d": 1432.9124999999985,
      "v": 112
    },
    {
      "midi": 39,
      "hit": false,
      "t": 38036.96718749998,
      "d": 1768.2750000000015,
      "v": 118
    },
    {
      "midi": 58,
      "hit": false,
      "t": 39504.17812499998,
      "d": 495.421875,
      "v": 109
    },
    {
      "midi": 55,
      "hit": false,
      "t": 40235.87812499998,
      "d": 548.7749999999942,
      "v": 119
    },
    {
      "midi": 40,
      "hit": false,
      "t": 40239.68906249998,
      "d": 304.875,
      "v": 110
    },
    {
      "midi": 52,
      "hit": false,
      "t": 40239.68906249998,
      "d": 464.9343749999971,
      "v": 115
    },
    {
      "midi": 60,
      "hit": false,
      "t": 40239.68906249998,
      "d": 480.17812499999854,
      "v": 110
    },
    {
      "midi": 53,
      "hit": false,
      "t": 40963.76718749998,
      "d": 945.1124999999956,
      "v": 110
    },
    {
      "midi": 56,
      "hit": false,
      "t": 40963.76718749998,
      "d": 1116.6046874999956,
      "v": 123
    },
    {
      "midi": 60,
      "hit": false,
      "t": 40963.76718749998,
      "d": 1200.4453124999927,
      "v": 115
    },
    {
      "midi": 41,
      "hit": false,
      "t": 40967.57812499998,
      "d": 2309.4281249999985,
      "v": 115
    },
    {
      "midi": 29,
      "hit": false,
      "t": 40971.38906249998,
      "d": 2210.34375,
      "v": 113
    },
    {
      "midi": 53,
      "hit": false,
      "t": 42046.073437499974,
      "d": 339.17343750000146,
      "v": 85
    },
    {
      "midi": 53,
      "hit": false,
      "t": 42419.54531249998,
      "d": 1002.2765625000029,
      "v": 104
    },
    {
      "midi": 56,
      "hit": false,
      "t": 42419.54531249998,
      "d": 1017.5203125000044,
      "v": 118
    },
    {
      "midi": 60,
      "hit": false,
      "t": 42419.54531249998,
      "d": 1017.5203125000044,
      "v": 112
    },
    {
      "midi": 51,
      "hit": false,
      "t": 43867.701562499984,
      "d": 933.6796874999927,
      "v": 119
    },
    {
      "midi": 55,
      "hit": false,
      "t": 43867.701562499984,
      "d": 1402.4249999999956,
      "v": 115
    },
    {
      "midi": 58,
      "hit": false,
      "t": 43871.51249999998,
      "d": 1410.046875,
      "v": 109
    },
    {
      "midi": 39,
      "hit": false,
      "t": 43875.32343749998,
      "d": 2378.024999999994,
      "v": 121
    },
    {
      "midi": 51,
      "hit": false,
      "t": 44991.92812499998,
      "d": 1398.614062499997,
      "v": 97
    },
    {
      "midi": 55,
      "hit": false,
      "t": 45365.39999999998,
      "d": 880.3265624999985,
      "v": 112
    },
    {
      "midi": 58,
      "hit": false,
      "t": 45365.39999999998,
      "d": 910.8140624999942,
      "v": 112
    },
    {
      "midi": 49,
      "hit": false,
      "t": 46802.12343749998,
      "d": 907.0031249999956,
      "v": 121
    },
    {
      "midi": 53,
      "hit": false,
      "t": 46802.12343749998,
      "d": 1242.3656249999985,
      "v": 113
    },
    {
      "midi": 56,
      "hit": false,
      "t": 46802.12343749998,
      "d": 1341.449999999997,
      "v": 110
    },
    {
      "midi": 37,
      "hit": false,
      "t": 46805.934374999975,
      "d": 2355.1593749999956,
      "v": 124
    },
    {
      "midi": 49,
      "hit": false,
      "t": 47914.917187499974,
      "d": 1310.9624999999942,
      "v": 100
    },
    {
      "midi": 53,
      "hit": false,
      "t": 48292.199999999975,
      "d": 895.5703124999927,
      "v": 110
    },
    {
      "midi": 56,
      "hit": false,
      "t": 48296.010937499974,
      "d": 941.3015624999971,
      "v": 116
    },
    {
      "midi": 51,
      "hit": false,
      "t": 49736.54531249997,
      "d": 826.9734374999971,
      "v": 119
    },
    {
      "midi": 55,
      "hit": false,
      "t": 49736.54531249997,
      "d": 1131.848437499997,
      "v": 115
    },
    {
      "midi": 58,
      "hit": false,
      "t": 49736.54531249997,
      "d": 1196.6343749999942,
      "v": 107
    },
    {
      "midi": 39,
      "hit": false,
      "t": 49740.35624999997,
      "d": 1657.7578125,
      "v": 118
    },
    {
      "midi": 51,
      "hit": false,
      "t": 50830.28437499997,
      "d": 712.6453125000044,
      "v": 92
    },
    {
      "midi": 55,
      "hit": false,
      "t": 51196.134374999965,
      "d": 316.3078125000029,
      "v": 112
    },
    {
      "midi": 58,
      "hit": false,
      "t": 51196.134374999965,
      "d": 358.22812500000873,
      "v": 110
    },
    {
      "midi": 52,
      "hit": false,
      "t": 51916.401562499974,
      "d": 449.69062499999563,
      "v": 115
    },
    {
      "midi": 60,
      "hit": false,
      "t": 51916.401562499974,
      "d": 472.5562499999942,
      "v": 115
    },
    {
      "midi": 55,
      "hit": false,
      "t": 51916.401562499974,
      "d": 510.6656249999942,
      "v": 121
    },
    {
      "midi": 40,
      "hit": false,
      "t": 51920.21249999997,
      "d": 449.69062499999563,
      "v": 115
    },
    {
      "midi": 60,
      "hit": false,
      "t": 52644.290624999965,
      "d": 1086.1171875000073,
      "v": 112
    },
    {
      "midi": 53,
      "hit": false,
      "t": 52648.10156249996,
      "d": 880.3265625000058,
      "v": 115
    },
    {
      "midi": 56,
      "hit": false,
      "t": 52648.10156249996,
      "d": 1097.5500000000102,
      "v": 123
    },
    {
      "midi": 41,
      "hit": false,
      "t": 52648.10156249996,
      "d": 2389.4578125000116,
      "v": 116
    },
    {
      "midi": 53,
      "hit": false,
      "t": 53757.08437499998,
      "d": 1364.315625000003,
      "v": 91
    },
    {
      "midi": 60,
      "hit": false,
      "t": 54122.934374999975,
      "d": 987.0328125000015,
      "v": 113
    },
    {
      "midi": 56,
      "hit": false,
      "t": 54126.745312499974,
      "d": 1013.7093750000058,
      "v": 118
    },
    {
      "midi": 51,
      "hit": false,
      "t": 55586.33437499998,
      "d": 929.8687500000015,
      "v": 118
    },
    {
      "midi": 55,
      "hit": false,
      "t": 55586.33437499998,
      "d": 1112.7937500000044,
      "v": 113
    },
    {
      "midi": 58,
      "hit": false,
      "t": 55590.145312499975,
      "d": 1112.7937500000044,
      "v": 112
    },
    {
      "midi": 39,
      "hit": false,
      "t": 55590.145312499975,
      "d": 2317.050000000003,
      "v": 116
    },
    {
      "midi": 51,
      "hit": false,
      "t": 56699.12812499998,
      "d": 1337.6390624999985,
      "v": 92
    },
    {
      "midi": 55,
      "hit": false,
      "t": 57068.78906249998,
      "d": 853.6500000000015,
      "v": 110
    },
    {
      "midi": 58,
      "hit": false,
      "t": 57068.78906249998,
      "d": 922.2468750000044,
      "v": 109
    },
    {
      "midi": 49,
      "hit": false,
      "t": 58497.89062499998,
      "d": 842.2171874999985,
      "v": 119
    },
    {
      "midi": 53,
      "hit": false,
      "t": 58497.89062499998,
      "d": 1124.2265624999927,
      "v": 115
    },
    {
      "midi": 37,
      "hit": false,
      "t": 58497.89062499998,
      "d": 2202.7218749999884,
      "v": 122
    },
    {
      "midi": 56,
      "hit": false,
      "t": 58501.70156249998,
      "d": 1128.0374999999913,
      "v": 104
    },
    {
      "midi": 49,
      "hit": false,
      "t": 59614.495312499974,
      "d": 1166.1468749999913,
      "v": 94
    },
    {
      "midi": 53,
      "hit": false,
      "t": 59987.96718749997,
      "d": 769.8093749999971,
      "v": 107
    },
    {
      "midi": 56,
      "hit": false,
      "t": 59987.96718749997,
      "d": 819.3515624999927,
      "v": 110
    },
    {
      "midi": 51,
      "hit": false,
      "t": 61436.12343749996,
      "d": 682.1578124999942,
      "v": 119
    },
    {
      "midi": 55,
      "hit": false,
      "t": 61436.12343749996,
      "d": 682.1578124999942,
      "v": 115
    },
    {
      "midi": 60,
      "hit": false,
      "t": 61436.12343749996,
      "d": 724.0781249999927,
      "v": 110
    },
    {
      "midi": 39,
      "hit": false,
      "t": 61439.93437499996,
      "d": 2682.8999999999724,
      "v": 118
    },
    {
      "midi": 58,
      "hit": false,
      "t": 62034.44062499996,
      "d": 362.0390624999927,
      "v": 114
    },
    {
      "midi": 63,
      "hit": false,
      "t": 62899.52343749995,
      "d": 403.95937499999854,
      "v": 123
    },
    {
      "midi": 55,
      "hit": false,
      "t": 62903.33437499995,
      "d": 403.95937499999854,
      "v": 113
    },
    {
      "midi": 58,
      "hit": false,
      "t": 62903.33437499995,
      "d": 411.58124999999563,
      "v": 124
    },
    {
      "midi": 55,
      "hit": false,
      "t": 63455.92031249994,
      "d": 384.90468749999854,
      "v": 118
    },
    {
      "midi": 63,
      "hit": false,
      "t": 63455.92031249994,
      "d": 392.52656249999563,
      "v": 124
    },
    {
      "midi": 58,
      "hit": false,
      "t": 63455.92031249994,
      "d": 400.1484374999927,
      "v": 124
    },
    {
      "midi": 63,
      "hit": false,
      "t": 64012.31718749993,
      "d": 243.90000000000146,
      "v": 123
    },
    {
      "midi": 58,
      "hit": false,
      "t": 64012.31718749993,
      "d": 251.52187499999854,
      "v": 124
    },
    {
      "midi": 55,
      "hit": false,
      "t": 64012.31718749993,
      "d": 255.3328124999971,
      "v": 118
    },
    {
      "midi": 44,
      "hit": false,
      "t": 64385.78906249993,
      "d": 556.3968749999985,
      "v": 116
    },
    {
      "midi": 68,
      "hit": false,
      "t": 64385.78906249993,
      "d": 1288.096875000003,
      "v": 107
    },
    {
      "midi": 60,
      "hit": false,
      "t": 64385.78906249993,
      "d": 1295.71875,
      "v": 113
    },
    {
      "midi": 63,
      "hit": false,
      "t": 64385.78906249993,
      "d": 1303.340624999997,
      "v": 113
    },
    {
      "midi": 56,
      "hit": false,
      "t": 64385.78906249993,
      "d": 1318.5843749999913,
      "v": 118
    },
    {
      "midi": 32,
      "hit": false,
      "t": 64385.78906249993,
      "d": 2134.125,
      "v": 109
    },
    {
      "midi": 44,
      "hit": false,
      "t": 65460.473437499924,
      "d": 1120.4156250000087,
      "v": 82
    },
    {
      "midi": 60,
      "hit": false,
      "t": 65830.13437499992,
      "d": 807.9187500000116,
      "v": 115
    },
    {
      "midi": 56,
      "hit": false,
      "t": 65830.13437499992,
      "d": 834.5953125000087,
      "v": 113
    },
    {
      "midi": 68,
      "hit": false,
      "t": 65830.13437499992,
      "d": 834.5953125000087,
      "v": 113
    },
    {
      "midi": 63,
      "hit": false,
      "t": 65833.94531249993,
      "d": 838.40625,
      "v": 113
    },
    {
      "midi": 56,
      "hit": false,
      "t": 67293.53437499993,
      "d": 583.0734375000029,
      "v": 121
    },
    {
      "midi": 68,
      "hit": false,
      "t": 67293.53437499993,
      "d": 636.4265624999971,
      "v": 104
    },
    {
      "midi": 61,
      "hit": false,
      "t": 67297.34531249994,
      "d": 598.3171874999971,
      "v": 113
    },
    {
      "midi": 65,
      "hit": false,
      "t": 67297.34531249994,
      "d": 613.5609374999913,
      "v": 110
    },
    {
      "midi": 49,
      "hit": false,
      "t": 67297.34531249994,
      "d": 1006.0874999999942,
      "v": 118
    },
    {
      "midi": 37,
      "hit": false,
      "t": 67297.34531249994,
      "d": 1059.4406249999884,
      "v": 106
    },
    {
      "midi": 61,
      "hit": false,
      "t": 68749.31249999993,
      "d": 160.05937500001164,
      "v": 118
    },
    {
      "midi": 73,
      "hit": false,
      "t": 68749.31249999993,
      "d": 201.97968750001746,
      "v": 110
    },
    {
      "midi": 65,
      "hit": false,
      "t": 68753.12343749993,
      "d": 152.4375,
      "v": 113
    },
    {
      "midi": 68,
      "hit": false,
      "t": 68753.12343749993,
      "d": 167.68125000000873,
      "v": 110
    },
    {
      "midi": 49,
      "hit": false,
      "t": 68756.93437499994,
      "d": 224.84531250000873,
      "v": 119
    },
    {
      "midi": 37,
      "hit": false,
      "t": 68756.93437499994,
      "d": 312.49687500001164,
      "v": 107
    },
    {
      "midi": 48,
      "hit": false,
      "t": 69294.27656249994,
      "d": 289.6312500000058,
      "v": 106
    },
    {
      "midi": 68,
      "hit": false,
      "t": 69294.27656249994,
      "d": 327.7406250000058,
      "v": 115
    },
    {
      "midi": 77,
      "hit": false,
      "t": 69294.27656249994,
      "d": 346.7953125000058,
      "v": 106
    },
    {
      "midi": 36,
      "hit": false,
      "t": 69294.27656249994,
      "d": 365.8500000000058,
      "v": 104
    },
    {
      "midi": 65,
      "hit": false,
      "t": 69294.27656249994,
      "d": 369.66093750001164,
      "v": 96
    },
    {
      "midi": 73,
      "hit": false,
      "t": 69294.27656249994,
      "d": 369.66093750001164,
      "v": 115
    },
    {
      "midi": 65,
      "hit": false,
      "t": 69728.72343749995,
      "d": 251.52187500002037,
      "v": 106
    },
    {
      "midi": 77,
      "hit": false,
      "t": 69728.72343749995,
      "d": 274.3875000000262,
      "v": 107
    },
    {
      "midi": 70,
      "hit": false,
      "t": 69728.72343749995,
      "d": 297.25312500001746,
      "v": 119
    },
    {
      "midi": 73,
      "hit": false,
      "t": 69728.72343749995,
      "d": 312.49687500001164,
      "v": 116
    },
    {
      "midi": 46,
      "hit": false,
      "t": 69732.53437499996,
      "d": 285.82031250001455,
      "v": 122
    },
    {
      "midi": 34,
      "hit": false,
      "t": 69736.34531249997,
      "d": 327.7406250000058,
      "v": 112
    },
    {
      "midi": 68,
      "hit": false,
      "t": 70208.90156249997,
      "d": 1341.4500000000116,
      "v": 119
    },
    {
      "midi": 80,
      "hit": false,
      "t": 70212.71249999998,
      "d": 1330.0171875000087,
      "v": 118
    },
    {
      "midi": 72,
      "hit": false,
      "t": 70212.71249999998,
      "d": 1341.4500000000116,
      "v": 118
    },
    {
      "midi": 44,
      "hit": false,
      "t": 70212.71249999998,
      "d": 1345.2609375000175,
      "v": 116
    },
    {
      "midi": 75,
      "hit": false,
      "t": 70216.52343749999,
      "d": 1333.828125,
      "v": 113
    },
    {
      "midi": 32,
      "hit": false,
      "t": 70216.52343749999,
      "d": 2545.7062500000175,
      "v": 119
    },
    {
      "midi": 80,
      "hit": false,
      "t": 71698.978125,
      "d": 1032.7640625000058,
      "v": 112
    },
    {
      "midi": 68,
      "hit": false,
      "t": 71698.978125,
      "d": 1059.440625000003,
      "v": 119
    },
    {
      "midi": 72,
      "hit": false,
      "t": 71702.7890625,
      "d": 1021.3312499999884,
      "v": 113
    },
    {
      "midi": 75,
      "hit": false,
      "t": 71702.7890625,
      "d": 1025.1421874999942,
      "v": 110
    },
    {
      "midi": 44,
      "hit": false,
      "t": 71702.7890625,
      "d": 1082.3062500000087,
      "v": 115
    },
    {
      "midi": 68,
      "hit": false,
      "t": 73162.378125,
      "d": 453.50156250000873,
      "v": 113
    },
    {
      "midi": 77,
      "hit": false,
      "t": 73166.18906250001,
      "d": 388.7156249999971,
      "v": 106
    },
    {
      "midi": 65,
      "hit": false,
      "t": 73166.18906250001,
      "d": 411.5812500000029,
      "v": 104
    },
    {
      "midi": 73,
      "hit": false,
      "t": 73166.18906250001,
      "d": 411.5812500000029,
      "v": 109
    },
    {
      "midi": 49,
      "hit": false,
      "t": 73181.4328125,
      "d": 350.6062499999971,
      "v": 122
    },
    {
      "midi": 37,
      "hit": false,
      "t": 73181.4328125,
      "d": 426.82500000001164,
      "v": 113
    },
    {
      "midi": 75,
      "hit": false,
      "t": 73901.70000000001,
      "d": 411.58125000001746,
      "v": 107
    },
    {
      "midi": 68,
      "hit": false,
      "t": 73901.70000000001,
      "d": 426.82500000001164,
      "v": 112
    },
    {
      "midi": 63,
      "hit": false,
      "t": 73901.70000000001,
      "d": 510.66562500000873,
      "v": 121
    },
    {
      "midi": 72,
      "hit": false,
      "t": 73905.51093750002,
      "d": 407.77031250001164,
      "v": 106
    },
    {
      "midi": 48,
      "hit": false,
      "t": 73905.51093750002,
      "d": 415.39218750000873,
      "v": 115
    },
    {
      "midi": 36,
      "hit": false,
      "t": 73905.51093750002,
      "d": 472.55625000000873,
      "v": 104
    },
    {
      "midi": 73,
      "hit": false,
      "t": 74633.40000000002,
      "d": 342.98437500001455,
      "v": 110
    },
    {
      "midi": 65,
      "hit": false,
      "t": 74637.21093750003,
      "d": 301.06406250000873,
      "v": 112
    },
    {
      "midi": 61,
      "hit": false,
      "t": 74637.21093750003,
      "d": 308.6859375000058,
      "v": 118
    },
    {
      "midi": 70,
      "hit": false,
      "t": 74637.21093750003,
      "d": 342.98437500001455,
      "v": 101
    },
    {
      "midi": 46,
      "hit": false,
      "t": 74641.02187500003,
      "d": 339.17343750000873,
      "v": 113
    },
    {
      "midi": 34,
      "hit": false,
      "t": 74644.83281250004,
      "d": 278.1984375000029,
      "v": 115
    },
    {
      "midi": 75,
      "hit": false,
      "t": 75353.66718750005,
      "d": 464.93437500001164,
      "v": 112
    },
    {
      "midi": 63,
      "hit": false,
      "t": 75357.47812500005,
      "d": 453.50156250000873,
      "v": 119
    },
    {
      "midi": 51,
      "hit": false,
      "t": 75361.28906250006,
      "d": 369.6609374999971,
      "v": 119
    },
    {
      "midi": 67,
      "hit": false,
      "t": 75361.28906250006,
      "d": 396.3374999999942,
      "v": 112
    },
    {
      "midi": 39,
      "hit": false,
      "t": 75361.28906250006,
      "d": 415.3921874999942,
      "v": 112
    },
    {
      "midi": 70,
      "hit": false,
      "t": 75365.10000000006,
      "d": 415.3921874999942,
      "v": 110
    },
    {
      "midi": 72,
      "hit": false,
      "t": 76096.80000000006,
      "d": 1299.5296875000058,
      "v": 112
    },
    {
      "midi": 75,
      "hit": false,
      "t": 76096.80000000006,
      "d": 1299.5296875000058,
      "v": 106
    },
    {
      "midi": 68,
      "hit": false,
      "t": 76096.80000000006,
      "d": 1314.7734375,
      "v": 116
    },
    {
      "midi": 63,
      "hit": false,
      "t": 76096.80000000006,
      "d": 1360.504687499997,
      "v": 124
    },
    {
      "midi": 44,
      "hit": false,
      "t": 76100.61093750007,
      "d": 914.625,
      "v": 121
    },
    {
      "midi": 32,
      "hit": false,
      "t": 76100.61093750007,
      "d": 2229.3984375,
      "v": 121
    },
    {
      "midi": 44,
      "hit": false,
      "t": 77190.53906250007,
      "d": 899.3812499999913,
      "v": 89
    },
    {
      "midi": 75,
      "hit": false,
      "t": 77537.33437500006,
      "d": 857.4609375,
      "v": 101
    },
    {
      "midi": 63,
      "hit": false,
      "t": 77537.33437500006,
      "d": 926.0578125000029,
      "v": 108
    },
    {
      "midi": 72,
      "hit": false,
      "t": 77541.14531250007,
      "d": 865.0828124999971,
      "v": 107
    },
    {
      "midi": 68,
      "hit": false,
      "t": 77541.14531250007,
      "d": 880.3265624999913,
      "v": 112
    },
    {
      "midi": 44,
      "hit": false,
      "t": 78280.46718750006,
      "d": 297.2531250000029,
      "v": 69
    },
    {
      "midi": 42,
      "hit": false,
      "t": 79019.78906250007,
      "d": 895.5703125,
      "v": 113
    },
    {
      "midi": 73,
      "hit": false,
      "t": 79019.78906250007,
      "d": 1265.231249999997,
      "v": 110
    },
    {
      "midi": 54,
      "hit": false,
      "t": 79023.60000000008,
      "d": 750.7546874999971,
      "v": 119
    },
    {
      "midi": 66,
      "hit": false,
      "t": 79023.60000000008,
      "d": 1158.5249999999942,
      "v": 119
    },
    {
      "midi": 70,
      "hit": false,
      "t": 79023.60000000008,
      "d": 1249.9874999999884,
      "v": 113
    },
    {
      "midi": 61,
      "hit": false,
      "t": 79023.60000000008,
      "d": 1295.7187499999854,
      "v": 123
    },
    {
      "midi": 73,
      "hit": false,
      "t": 80479.37812500006,
      "d": 758.3765625000087,
      "v": 112
    },
    {
      "midi": 41,
      "hit": false,
      "t": 80479.37812500006,
      "d": 849.8390625000175,
      "v": 106
    },
    {
      "midi": 61,
      "hit": false,
      "t": 80479.37812500006,
      "d": 865.0828125000116,
      "v": 119
    },
    {
      "midi": 53,
      "hit": false,
      "t": 80483.18906250007,
      "d": 739.3218750000087,
      "v": 112
    },
    {
      "midi": 65,
      "hit": false,
      "t": 80483.18906250007,
      "d": 777.4312500000087,
      "v": 116
    },
    {
      "midi": 68,
      "hit": false,
      "t": 80483.18906250007,
      "d": 777.4312500000087,
      "v": 115
    },
    {
      "midi": 70,
      "hit": false,
      "t": 81927.53437500008,
      "d": 4150.110937500009,
      "v": 110
    },
    {
      "midi": 67,
      "hit": false,
      "t": 81931.34531250008,
      "d": 4150.110937500009,
      "v": 109
    },
    {
      "midi": 63,
      "hit": false,
      "t": 81931.34531250008,
      "d": 4153.921875000015,
      "v": 115
    },
    {
      "midi": 51,
      "hit": false,
      "t": 81931.34531250008,
      "d": 4157.73281250002,
      "v": 121
    },
    {
      "midi": 58,
      "hit": false,
      "t": 81931.34531250008,
      "d": 4157.73281250002,
      "v": 123
    },
    {
      "midi": 39,
      "hit": false,
      "t": 81931.34531250008,
      "d": 4180.598437500026,
      "v": 118
    },
    {
      "midi": 56,
      "hit": false,
      "t": 86336.7890625001,
      "d": 548.7750000000087,
      "v": 116
    },
    {
      "midi": 60,
      "hit": false,
      "t": 86336.7890625001,
      "d": 571.6406250000146,
      "v": 113
    },
    {
      "midi": 44,
      "hit": false,
      "t": 86336.7890625001,
      "d": 632.6156250000204,
      "v": 116
    },
    {
      "midi": 68,
      "hit": false,
      "t": 86336.7890625001,
      "d": 647.8593750000146,
      "v": 106
    },
    {
      "midi": 32,
      "hit": false,
      "t": 86340.60000000011,
      "d": 579.2625000000116,
      "v": 103
    },
    {
      "midi": 63,
      "hit": false,
      "t": 86340.60000000011,
      "d": 609.7500000000146,
      "v": 107
    },
    {
      "midi": 63,
      "hit": false,
      "t": 87426.71718750012,
      "d": 125.76093750000291,
      "v": 115
    },
    {
      "midi": 51,
      "hit": false,
      "t": 87434.33906250012,
      "d": 114.328125,
      "v": 112
    },
    {
      "midi": 60,
      "hit": false,
      "t": 87804.00000000013,
      "d": 125.76093750000291,
      "v": 110
    },
    {
      "midi": 72,
      "hit": false,
      "t": 87804.00000000013,
      "d": 152.4375,
      "v": 110
    },
    {
      "midi": 70,
      "hit": false,
      "t": 88326.09843750013,
      "d": 148.62656250000873,
      "v": 122
    },
    {
      "midi": 58,
      "hit": false,
      "t": 88329.90937500013,
      "d": 125.76093750000291,
      "v": 116
    },
    {
      "midi": 68,
      "hit": false,
      "t": 88737.67968750013,
      "d": 102.89531250001164,
      "v": 119
    },
    {
      "midi": 56,
      "hit": false,
      "t": 88741.49062500014,
      "d": 133.3828125,
      "v": 113
    },
    {
      "midi": 56,
      "hit": false,
      "t": 89248.34531250014,
      "d": 419.20312500001455,
      "v": 123
    },
    {
      "midi": 61,
      "hit": false,
      "t": 89248.34531250014,
      "d": 442.0687500000058,
      "v": 112
    },
    {
      "midi": 65,
      "hit": false,
      "t": 89248.34531250014,
      "d": 449.6906250000029,
      "v": 103
    },
    {
      "midi": 68,
      "hit": false,
      "t": 89248.34531250014,
      "d": 472.55625000000873,
      "v": 94
    },
    {
      "midi": 37,
      "hit": false,
      "t": 89252.15625000015,
      "d": 423.0140625000058,
      "v": 110
    },
    {
      "midi": 49,
      "hit": false,
      "t": 89255.96718750015,
      "d": 453.5015624999942,
      "v": 119
    },
    {
      "midi": 65,
      "hit": false,
      "t": 90357.32812500015,
      "d": 110.51718750000873,
      "v": 106
    },
    {
      "midi": 53,
      "hit": false,
      "t": 90361.13906250015,
      "d": 114.328125,
      "v": 101
    },
    {
      "midi": 60,
      "hit": false,
      "t": 90723.17812500015,
      "d": 129.57187500000873,
      "v": 109
    },
    {
      "midi": 72,
      "hit": false,
      "t": 90734.61093750015,
      "d": 114.328125,
      "v": 113
    },
    {
      "midi": 58,
      "hit": false,
      "t": 91264.33125000016,
      "d": 91.46250000000873,
      "v": 118
    },
    {
      "midi": 70,
      "hit": false,
      "t": 91268.14218750017,
      "d": 106.70625000000291,
      "v": 119
    },
    {
      "midi": 75,
      "hit": false,
      "t": 91664.47968750018,
      "d": 72.40781250000873,
      "v": 121
    },
    {
      "midi": 63,
      "hit": false,
      "t": 91672.10156250017,
      "d": 60.97500000000582,
      "v": 124
    },
    {
      "midi": 68,
      "hit": false,
      "t": 92167.52343750019,
      "d": 849.8390625000029,
      "v": 113
    },
    {
      "midi": 63,
      "hit": false,
      "t": 92167.52343750019,
      "d": 880.3265625000058,
      "v": 115
    },
    {
      "midi": 60,
      "hit": false,
      "t": 92167.52343750019,
      "d": 887.9484375000029,
      "v": 113
    },
    {
      "midi": 56,
      "hit": false,
      "t": 92167.52343750019,
      "d": 945.1125000000029,
      "v": 118
    },
    {
      "midi": 44,
      "hit": false,
      "t": 92171.3343750002,
      "d": 2263.6968750000087,
      "v": 113
    },
    {
      "midi": 51,
      "hit": false,
      "t": 93649.9781250002,
      "d": 941.3015625000116,
      "v": 90
    },
    {
      "midi": 56,
      "hit": false,
      "t": 93653.7890625002,
      "d": 914.625,
      "v": 98
    },
    {
      "midi": 60,
      "hit": false,
      "t": 93657.60000000021,
      "d": 948.9234374999942,
      "v": 87
    },
    {
      "midi": 53,
      "hit": false,
      "t": 95124.8109375002,
      "d": 1341.449999999997,
      "v": 93
    },
    {
      "midi": 56,
      "hit": false,
      "t": 95124.8109375002,
      "d": 1379.559374999997,
      "v": 110
    },
    {
      "midi": 37,
      "hit": false,
      "t": 95124.8109375002,
      "d": 2477.1093749999854,
      "v": 100
    },
    {
      "midi": 49,
      "hit": false,
      "t": 95128.6218750002,
      "d": 1337.6390624999913,
      "v": 95
    },
    {
      "midi": 49,
      "hit": false,
      "t": 96557.72343750019,
      "d": 884.1374999999971,
      "v": 82
    },
    {
      "midi": 56,
      "hit": false,
      "t": 96565.34531250018,
      "d": 922.2468749999971,
      "v": 109
    },
    {
      "midi": 53,
      "hit": false,
      "t": 96565.34531250018,
      "d": 929.8687499999942,
      "v": 93
    },
    {
      "midi": 51,
      "hit": false,
      "t": 98021.12343750018,
      "d": 1021.3312500000029,
      "v": 109
    },
    {
      "midi": 56,
      "hit": false,
      "t": 98024.93437500019,
      "d": 1318.5843749999913,
      "v": 107
    },
    {
      "midi": 60,
      "hit": false,
      "t": 98024.93437500019,
      "d": 1318.5843749999913,
      "v": 101
    },
    {
      "midi": 44,
      "hit": false,
      "t": 98032.55625000018,
      "d": 2660.034375000003,
      "v": 101
    },
    {
      "midi": 51,
      "hit": false,
      "t": 99137.72812500018,
      "d": 282.0093749999942,
      "v": 75
    },
    {
      "midi": 51,
      "hit": false,
      "t": 99511.20000000017,
      "d": 1067.0625000000146,
      "v": 112
    },
    {
      "midi": 56,
      "hit": false,
      "t": 99515.01093750018,
      "d": 1051.8187500000058,
      "v": 107
    },
    {
      "midi": 60,
      "hit": false,
      "t": 99515.01093750018,
      "d": 1120.4156250000087,
      "v": 101
    },
    {
      "midi": 49,
      "hit": false,
      "t": 100955.5453125002,
      "d": 1318.5843749999913,
      "v": 107
    },
    {
      "midi": 53,
      "hit": false,
      "t": 100955.5453125002,
      "d": 1928.3343749999913,
      "v": 100
    },
    {
      "midi": 56,
      "hit": false,
      "t": 100955.5453125002,
      "d": 2507.5968749999884,
      "v": 113
    },
    {
      "midi": 37,
      "hit": false,
      "t": 100955.5453125002,
      "d": 2522.8406249999825,
      "v": 104
    },
    {
      "midi": 49,
      "hit": false,
      "t": 102426.56718750019,
      "d": 842.2171874999913,
      "v": 118
    },
    {
      "midi": 53,
      "hit": false,
      "t": 103165.88906250018,
      "d": 259.1437500000029,
      "v": 109
    },
    {
      "midi": 51,
      "hit": false,
      "t": 103905.21093750017,
      "d": 1215.6890625000087,
      "v": 118
    },
    {
      "midi": 60,
      "hit": false,
      "t": 103905.21093750017,
      "d": 1219.5000000000146,
      "v": 107
    },
    {
      "midi": 56,
      "hit": false,
      "t": 103909.02187500018,
      "d": 1189.012499999997,
      "v": 112
    },
    {
      "midi": 44,
      "hit": false,
      "t": 103912.83281250019,
      "d": 872.7046874999942,
      "v": 113
    },
    {
      "midi": 44,
      "hit": false,
      "t": 104983.70625000018,
      "d": 1299.5296875000058,
      "v": 85
    },
    {
      "midi": 51,
      "hit": false,
      "t": 105353.36718750019,
      "d": 903.1921874999971,
      "v": 119
    },
    {
      "midi": 56,
      "hit": false,
      "t": 105353.36718750019,
      "d": 910.8140624999942,
      "v": 112
    },
    {
      "midi": 60,
      "hit": false,
      "t": 105353.36718750019,
      "d": 929.8687499999942,
      "v": 106
    },
    {
      "midi": 49,
      "hit": false,
      "t": 106801.52343750019,
      "d": 674.5359374999971,
      "v": 122
    },
    {
      "midi": 37,
      "hit": false,
      "t": 106801.52343750019,
      "d": 739.3218749999942,
      "v": 110
    },
    {
      "midi": 53,
      "hit": false,
      "t": 106801.52343750019,
      "d": 743.1328125,
      "v": 112
    },
    {
      "midi": 56,
      "hit": false,
      "t": 106801.52343750019,
      "d": 788.8640624999971,
      "v": 118
    },
    {
      "midi": 61,
      "hit": false,
      "t": 106801.52343750019,
      "d": 800.296875,
      "v": 118
    },
    {
      "midi": 48,
      "hit": false,
      "t": 108276.35625000019,
      "d": 773.6203125000029,
      "v": 112
    },
    {
      "midi": 36,
      "hit": false,
      "t": 108276.35625000019,
      "d": 876.515625,
      "v": 107
    },
    {
      "midi": 60,
      "hit": false,
      "t": 108280.16718750019,
      "d": 796.4859374999942,
      "v": 115
    },
    {
      "midi": 56,
      "hit": false,
      "t": 108280.16718750019,
      "d": 811.7296874999884,
      "v": 122
    },
    {
      "midi": 63,
      "hit": false,
      "t": 108280.16718750019,
      "d": 849.8390624999884,
      "v": 116
    },
    {
      "midi": 61,
      "hit": false,
      "t": 109735.94531250019,
      "d": 533.53125,
      "v": 116
    },
    {
      "midi": 46,
      "hit": false,
      "t": 109735.94531250019,
      "d": 2416.134374999994,
      "v": 113
    },
    {
      "midi": 58,
      "hit": false,
      "t": 109739.7562500002,
      "d": 537.3421874999913,
      "v": 118
    },
    {
      "midi": 53,
      "hit": false,
      "t": 109739.7562500002,
      "d": 564.0187499999884,
      "v": 106
    },
    {
      "midi": 34,
      "hit": false,
      "t": 109739.7562500002,
      "d": 2347.5374999999913,
      "v": 112
    },
    {
      "midi": 49,
      "hit": false,
      "t": 110841.11718750019,
      "d": 259.1437500000029,
      "v": 93
    },
    {
      "midi": 53,
      "hit": false,
      "t": 111195.53437500019,
      "d": 564.0187500000029,
      "v": 110
    },
    {
      "midi": 49,
      "hit": false,
      "t": 111195.53437500019,
      "d": 975.5999999999913,
      "v": 119
    },
    {
      "midi": 58,
      "hit": false,
      "t": 111195.53437500019,
      "d": 990.8437499999854,
      "v": 115
    },
    {
      "midi": 53,
      "hit": false,
      "t": 111927.23437500019,
      "d": 251.52187499999127,
      "v": 104
    },
    {
      "midi": 55,
      "hit": false,
      "t": 112666.55625000017,
      "d": 1916.9015624999884,
      "v": 115
    },
    {
      "midi": 51,
      "hit": false,
      "t": 112666.55625000017,
      "d": 1943.5781249999854,
      "v": 118
    },
    {
      "midi": 60,
      "hit": false,
      "t": 112670.36718750017,
      "d": 1432.9124999999913,
      "v": 112
    },
    {
      "midi": 39,
      "hit": false,
      "t": 112670.36718750017,
      "d": 1768.2749999999796,
      "v": 118
    },
    {
      "midi": 58,
      "hit": false,
      "t": 114137.57812500016,
      "d": 495.421875,
      "v": 109
    },
    {
      "midi": 55,
      "hit": false,
      "t": 114869.27812500016,
      "d": 548.7749999999942,
      "v": 119
    },
    {
      "midi": 40,
      "hit": false,
      "t": 114873.08906250016,
      "d": 304.875,
      "v": 110
    },
    {
      "midi": 52,
      "hit": false,
      "t": 114873.08906250016,
      "d": 464.9343749999971,
      "v": 115
    },
    {
      "midi": 60,
      "hit": false,
      "t": 114873.08906250016,
      "d": 480.17812499999127,
      "v": 110
    },
    {
      "midi": 53,
      "hit": false,
      "t": 115597.16718750015,
      "d": 945.1125000000175,
      "v": 110
    },
    {
      "midi": 56,
      "hit": false,
      "t": 115597.16718750015,
      "d": 1116.6046875000175,
      "v": 123
    },
    {
      "midi": 60,
      "hit": false,
      "t": 115597.16718750015,
      "d": 1200.4453125000146,
      "v": 115
    },
    {
      "midi": 41,
      "hit": false,
      "t": 115600.97812500015,
      "d": 2309.428125000006,
      "v": 115
    },
    {
      "midi": 29,
      "hit": false,
      "t": 115604.78906250016,
      "d": 2210.34375,
      "v": 113
    },
    {
      "midi": 53,
      "hit": false,
      "t": 116679.47343750017,
      "d": 339.1734374999942,
      "v": 85
    },
    {
      "midi": 53,
      "hit": false,
      "t": 117052.94531250016,
      "d": 1002.2765625000029,
      "v": 104
    },
    {
      "midi": 56,
      "hit": false,
      "t": 117052.94531250016,
      "d": 1017.5203124999971,
      "v": 118
    },
    {
      "midi": 60,
      "hit": false,
      "t": 117052.94531250016,
      "d": 1017.5203124999971,
      "v": 112
    },
    {
      "midi": 51,
      "hit": false,
      "t": 118501.10156250016,
      "d": 933.6796875000291,
      "v": 119
    },
    {
      "midi": 55,
      "hit": false,
      "t": 118501.10156250016,
      "d": 1402.425000000032,
      "v": 115
    },
    {
      "midi": 58,
      "hit": false,
      "t": 118504.91250000017,
      "d": 1410.046875000029,
      "v": 109
    },
    {
      "midi": 39,
      "hit": false,
      "t": 118508.72343750017,
      "d": 2378.0250000000233,
      "v": 121
    },
    {
      "midi": 51,
      "hit": false,
      "t": 119625.32812500019,
      "d": 1398.6140625000116,
      "v": 97
    },
    {
      "midi": 55,
      "hit": false,
      "t": 119998.80000000019,
      "d": 880.3265625000058,
      "v": 112
    },
    {
      "midi": 58,
      "hit": false,
      "t": 119998.80000000019,
      "d": 910.8140625000087,
      "v": 112
    },
    {
      "midi": 49,
      "hit": false,
      "t": 121435.5234375002,
      "d": 907.0031250000029,
      "v": 121
    },
    {
      "midi": 53,
      "hit": false,
      "t": 121435.5234375002,
      "d": 1242.3656249999913,
      "v": 113
    },
    {
      "midi": 56,
      "hit": false,
      "t": 121435.5234375002,
      "d": 1341.449999999997,
      "v": 110
    },
    {
      "midi": 37,
      "hit": false,
      "t": 121439.33437500021,
      "d": 2355.1593749999884,
      "v": 124
    },
    {
      "midi": 49,
      "hit": false,
      "t": 122548.3171875002,
      "d": 1310.9624999999942,
      "v": 100
    },
    {
      "midi": 53,
      "hit": false,
      "t": 122925.6000000002,
      "d": 895.5703125,
      "v": 110
    },
    {
      "midi": 56,
      "hit": false,
      "t": 122929.4109375002,
      "d": 941.3015624999971,
      "v": 116
    },
    {
      "midi": 51,
      "hit": false,
      "t": 124369.9453125002,
      "d": 826.9734375000116,
      "v": 119
    },
    {
      "midi": 55,
      "hit": false,
      "t": 124369.9453125002,
      "d": 1131.8484375000116,
      "v": 115
    },
    {
      "midi": 58,
      "hit": false,
      "t": 124369.9453125002,
      "d": 1196.6343750000087,
      "v": 107
    },
    {
      "midi": 39,
      "hit": false,
      "t": 124373.75625000021,
      "d": 1657.7578125,
      "v": 118
    },
    {
      "midi": 51,
      "hit": false,
      "t": 125463.68437500022,
      "d": 712.6453124999971,
      "v": 92
    },
    {
      "midi": 55,
      "hit": false,
      "t": 125829.5343750002,
      "d": 316.3078125000029,
      "v": 112
    },
    {
      "midi": 58,
      "hit": false,
      "t": 125829.5343750002,
      "d": 358.22812500000873,
      "v": 110
    },
    {
      "midi": 52,
      "hit": false,
      "t": 126549.80156250022,
      "d": 449.6906250000029,
      "v": 115
    },
    {
      "midi": 60,
      "hit": false,
      "t": 126549.80156250022,
      "d": 472.55625000000873,
      "v": 115
    },
    {
      "midi": 55,
      "hit": false,
      "t": 126549.80156250022,
      "d": 510.66562500000873,
      "v": 121
    },
    {
      "midi": 40,
      "hit": false,
      "t": 126553.61250000022,
      "d": 449.6906250000029,
      "v": 115
    },
    {
      "midi": 60,
      "hit": false,
      "t": 127277.69062500022,
      "d": 1086.1171875,
      "v": 112
    },
    {
      "midi": 53,
      "hit": false,
      "t": 127281.50156250023,
      "d": 880.3265624999913,
      "v": 115
    },
    {
      "midi": 56,
      "hit": false,
      "t": 127281.50156250023,
      "d": 1097.5499999999884,
      "v": 123
    },
    {
      "midi": 41,
      "hit": false,
      "t": 127281.50156250023,
      "d": 2389.457812499997,
      "v": 116
    },
    {
      "midi": 53,
      "hit": false,
      "t": 128390.48437500022,
      "d": 1364.315625000003,
      "v": 91
    },
    {
      "midi": 60,
      "hit": false,
      "t": 128756.33437500022,
      "d": 987.0328124999942,
      "v": 113
    },
    {
      "midi": 56,
      "hit": false,
      "t": 128760.14531250023,
      "d": 1013.7093749999913,
      "v": 118
    },
    {
      "midi": 51,
      "hit": false,
      "t": 130219.73437500022,
      "d": 929.8687500000087,
      "v": 118
    },
    {
      "midi": 55,
      "hit": false,
      "t": 130219.73437500022,
      "d": 1112.793749999997,
      "v": 113
    },
    {
      "midi": 58,
      "hit": false,
      "t": 130223.54531250022,
      "d": 1112.793749999997,
      "v": 112
    },
    {
      "midi": 39,
      "hit": false,
      "t": 130223.54531250022,
      "d": 2317.050000000003,
      "v": 116
    },
    {
      "midi": 51,
      "hit": false,
      "t": 131332.52812500022,
      "d": 1337.6390625000058,
      "v": 92
    },
    {
      "midi": 55,
      "hit": false,
      "t": 131702.18906250023,
      "d": 853.6499999999942,
      "v": 110
    },
    {
      "midi": 58,
      "hit": false,
      "t": 131702.18906250023,
      "d": 922.2468749999825,
      "v": 109
    },
    {
      "midi": 49,
      "hit": false,
      "t": 133131.29062500023,
      "d": 842.2171875000058,
      "v": 119
    },
    {
      "midi": 53,
      "hit": false,
      "t": 133131.29062500023,
      "d": 1124.226562500029,
      "v": 115
    },
    {
      "midi": 37,
      "hit": false,
      "t": 133131.29062500023,
      "d": 2202.7218750000466,
      "v": 122
    },
    {
      "midi": 56,
      "hit": false,
      "t": 133135.10156250023,
      "d": 1128.037500000035,
      "v": 104
    },
    {
      "midi": 49,
      "hit": false,
      "t": 134247.89531250024,
      "d": 1166.146875000035,
      "v": 94
    },
    {
      "midi": 53,
      "hit": false,
      "t": 134621.36718750026,
      "d": 769.8093750000116,
      "v": 107
    },
    {
      "midi": 56,
      "hit": false,
      "t": 134621.36718750026,
      "d": 819.3515625000291,
      "v": 110
    },
    {
      "midi": 51,
      "hit": false,
      "t": 136069.5234375003,
      "d": 682.1578125000233,
      "v": 119
    },
    {
      "midi": 55,
      "hit": false,
      "t": 136069.5234375003,
      "d": 682.1578125000233,
      "v": 115
    },
    {
      "midi": 60,
      "hit": false,
      "t": 136069.5234375003,
      "d": 724.0781250000291,
      "v": 110
    },
    {
      "midi": 39,
      "hit": false,
      "t": 136073.3343750003,
      "d": 2682.9000000001106,
      "v": 118
    },
    {
      "midi": 58,
      "hit": false,
      "t": 136667.8406250003,
      "d": 362.0390625000291,
      "v": 114
    },
    {
      "midi": 63,
      "hit": false,
      "t": 137532.92343750034,
      "d": 403.9593750000058,
      "v": 123
    },
    {
      "midi": 55,
      "hit": false,
      "t": 137536.73437500035,
      "d": 403.9593750000058,
      "v": 113
    },
    {
      "midi": 58,
      "hit": false,
      "t": 137536.73437500035,
      "d": 411.58125000001746,
      "v": 124
    },
    {
      "midi": 55,
      "hit": false,
      "t": 138089.32031250038,
      "d": 384.9046875000058,
      "v": 118
    },
    {
      "midi": 63,
      "hit": false,
      "t": 138089.32031250038,
      "d": 392.52656250001746,
      "v": 124
    },
    {
      "midi": 58,
      "hit": false,
      "t": 138089.32031250038,
      "d": 400.1484375000291,
      "v": 124
    },
    {
      "midi": 63,
      "hit": false,
      "t": 138645.7171875004,
      "d": 243.89999999999418,
      "v": 123
    },
    {
      "midi": 58,
      "hit": false,
      "t": 138645.7171875004,
      "d": 251.52187500000582,
      "v": 124
    },
    {
      "midi": 55,
      "hit": false,
      "t": 138645.7171875004,
      "d": 255.33281250001164,
      "v": 118
    },
    {
      "midi": 44,
      "hit": false,
      "t": 139019.18906250043,
      "d": 556.3968750000058,
      "v": 116
    },
    {
      "midi": 68,
      "hit": false,
      "t": 139019.18906250043,
      "d": 1288.0968750000175,
      "v": 107
    },
    {
      "midi": 60,
      "hit": false,
      "t": 139019.18906250043,
      "d": 1295.718750000029,
      "v": 113
    },
    {
      "midi": 63,
      "hit": false,
      "t": 139019.18906250043,
      "d": 1303.3406250000407,
      "v": 113
    },
    {
      "midi": 56,
      "hit": false,
      "t": 139019.18906250043,
      "d": 1318.584375000035,
      "v": 118
    },
    {
      "midi": 32,
      "hit": false,
      "t": 139019.18906250043,
      "d": 2134.125000000029,
      "v": 109
    },
    {
      "midi": 44,
      "hit": false,
      "t": 140093.87343750044,
      "d": 1120.4156250000233,
      "v": 82
    },
    {
      "midi": 60,
      "hit": false,
      "t": 140463.53437500045,
      "d": 807.9187500000116,
      "v": 115
    },
    {
      "midi": 56,
      "hit": false,
      "t": 140463.53437500045,
      "d": 834.5953125000233,
      "v": 113
    },
    {
      "midi": 68,
      "hit": false,
      "t": 140463.53437500045,
      "d": 834.5953125000233,
      "v": 113
    },
    {
      "midi": 63,
      "hit": false,
      "t": 140467.34531250046,
      "d": 838.4062500000291,
      "v": 113
    },
    {
      "midi": 56,
      "hit": false,
      "t": 141926.93437500048,
      "d": 583.0734375000175,
      "v": 121
    },
    {
      "midi": 68,
      "hit": false,
      "t": 141926.93437500048,
      "d": 636.4265625000116,
      "v": 104
    },
    {
      "midi": 61,
      "hit": false,
      "t": 141930.74531250048,
      "d": 598.3171875000116,
      "v": 113
    },
    {
      "midi": 65,
      "hit": false,
      "t": 141930.74531250048,
      "d": 613.5609375000058,
      "v": 110
    },
    {
      "midi": 49,
      "hit": false,
      "t": 141930.74531250048,
      "d": 1006.0874999999942,
      "v": 118
    },
    {
      "midi": 37,
      "hit": false,
      "t": 141930.74531250048,
      "d": 1059.4406249999884,
      "v": 106
    },
    {
      "midi": 61,
      "hit": false,
      "t": 143382.71250000046,
      "d": 160.05937500001164,
      "v": 118
    },
    {
      "midi": 73,
      "hit": false,
      "t": 143382.71250000046,
      "d": 201.97968749998836,
      "v": 110
    },
    {
      "midi": 65,
      "hit": false,
      "t": 143386.52343750047,
      "d": 152.4375,
      "v": 113
    },
    {
      "midi": 68,
      "hit": false,
      "t": 143386.52343750047,
      "d": 167.68124999999418,
      "v": 110
    },
    {
      "midi": 49,
      "hit": false,
      "t": 143390.33437500047,
      "d": 224.84531249996508,
      "v": 119
    },
    {
      "midi": 37,
      "hit": false,
      "t": 143390.33437500047,
      "d": 312.49687499995343,
      "v": 107
    },
    {
      "midi": 48,
      "hit": false,
      "t": 143927.67656250042,
      "d": 289.6312500000058,
      "v": 106
    },
    {
      "midi": 68,
      "hit": false,
      "t": 143927.67656250042,
      "d": 327.7406250000058,
      "v": 115
    },
    {
      "midi": 77,
      "hit": false,
      "t": 143927.67656250042,
      "d": 346.7953125000058,
      "v": 106
    },
    {
      "midi": 36,
      "hit": false,
      "t": 143927.67656250042,
      "d": 365.8500000000058,
      "v": 104
    },
    {
      "midi": 65,
      "hit": false,
      "t": 143927.67656250042,
      "d": 369.66093750001164,
      "v": 96
    },
    {
      "midi": 73,
      "hit": false,
      "t": 143927.67656250042,
      "d": 369.66093750001164,
      "v": 115
    },
    {
      "midi": 65,
      "hit": false,
      "t": 144449.77500000043,
      "d": 251.52187500000582,
      "v": 106
    },
    {
      "midi": 77,
      "hit": false,
      "t": 144449.77500000043,
      "d": 274.38750000001164,
      "v": 107
    },
    {
      "midi": 70,
      "hit": false,
      "t": 144449.77500000043,
      "d": 297.25312500001746,
      "v": 119
    },
    {
      "midi": 73,
      "hit": false,
      "t": 144449.77500000043,
      "d": 312.49687500001164,
      "v": 116
    },
    {
      "midi": 46,
      "hit": false,
      "t": 144453.58593750044,
      "d": 285.8203125,
      "v": 122
    },
    {
      "midi": 34,
      "hit": false,
      "t": 144453.58593750044,
      "d": 327.7406250000058,
      "v": 112
    },
    {
      "midi": 68,
      "hit": false,
      "t": 144842.30156250045,
      "d": 1341.4500000000407,
      "v": 119
    },
    {
      "midi": 80,
      "hit": false,
      "t": 144846.11250000045,
      "d": 1330.0171875000233,
      "v": 118
    },
    {
      "midi": 72,
      "hit": false,
      "t": 144846.11250000045,
      "d": 1341.4500000000407,
      "v": 118
    },
    {
      "midi": 44,
      "hit": false,
      "t": 144846.11250000045,
      "d": 1345.2609375000466,
      "v": 116
    },
    {
      "midi": 75,
      "hit": false,
      "t": 144849.92343750046,
      "d": 1333.828125000029,
      "v": 113
    },
    {
      "midi": 32,
      "hit": false,
      "t": 144849.92343750046,
      "d": 2545.7062500000466,
      "v": 119
    },
    {
      "midi": 80,
      "hit": false,
      "t": 146332.37812500048,
      "d": 1032.7640625000058,
      "v": 112
    },
    {
      "midi": 68,
      "hit": false,
      "t": 146332.37812500048,
      "d": 1059.4406250000175,
      "v": 119
    },
    {
      "midi": 72,
      "hit": false,
      "t": 146336.1890625005,
      "d": 1021.3312499999884,
      "v": 113
    },
    {
      "midi": 75,
      "hit": false,
      "t": 146336.1890625005,
      "d": 1025.1421874999942,
      "v": 110
    },
    {
      "midi": 44,
      "hit": false,
      "t": 146336.1890625005,
      "d": 1082.3062500000233,
      "v": 115
    },
    {
      "midi": 68,
      "hit": false,
      "t": 147795.7781250005,
      "d": 453.5015624999942,
      "v": 113
    },
    {
      "midi": 77,
      "hit": false,
      "t": 147799.5890625005,
      "d": 388.71562499998254,
      "v": 106
    },
    {
      "midi": 65,
      "hit": false,
      "t": 147799.5890625005,
      "d": 411.58124999998836,
      "v": 104
    },
    {
      "midi": 73,
      "hit": false,
      "t": 147799.5890625005,
      "d": 411.58124999998836,
      "v": 109
    },
    {
      "midi": 49,
      "hit": false,
      "t": 147814.8328125005,
      "d": 350.60624999998254,
      "v": 122
    },
    {
      "midi": 37,
      "hit": false,
      "t": 147814.8328125005,
      "d": 426.82499999998254,
      "v": 113
    },
    {
      "midi": 75,
      "hit": false,
      "t": 148535.1000000005,
      "d": 411.58125000001746,
      "v": 107
    },
    {
      "midi": 68,
      "hit": false,
      "t": 148535.1000000005,
      "d": 426.82500000004075,
      "v": 112
    },
    {
      "midi": 63,
      "hit": false,
      "t": 148535.1000000005,
      "d": 510.6656250000233,
      "v": 121
    },
    {
      "midi": 72,
      "hit": false,
      "t": 148538.9109375005,
      "d": 407.77031250001164,
      "v": 106
    },
    {
      "midi": 48,
      "hit": false,
      "t": 148538.9109375005,
      "d": 415.3921875000233,
      "v": 115
    },
    {
      "midi": 36,
      "hit": false,
      "t": 148538.9109375005,
      "d": 472.5562500000233,
      "v": 104
    },
    {
      "midi": 73,
      "hit": false,
      "t": 149266.80000000054,
      "d": 342.9843750000291,
      "v": 110
    },
    {
      "midi": 65,
      "hit": false,
      "t": 149270.61093750055,
      "d": 301.0640625000233,
      "v": 112
    },
    {
      "midi": 61,
      "hit": false,
      "t": 149270.61093750055,
      "d": 308.6859375000349,
      "v": 118
    },
    {
      "midi": 70,
      "hit": false,
      "t": 149270.61093750055,
      "d": 342.9843750000291,
      "v": 101
    },
    {
      "midi": 46,
      "hit": false,
      "t": 149274.42187500055,
      "d": 339.1734375000233,
      "v": 113
    },
    {
      "midi": 34,
      "hit": false,
      "t": 149278.23281250056,
      "d": 278.19843750001746,
      "v": 115
    },
    {
      "midi": 75,
      "hit": false,
      "t": 149987.06718750056,
      "d": 464.93437500004075,
      "v": 112
    },
    {
      "midi": 63,
      "hit": false,
      "t": 149990.87812500057,
      "d": 453.5015625000233,
      "v": 119
    },
    {
      "midi": 51,
      "hit": false,
      "t": 149994.68906250058,
      "d": 369.66093750001164,
      "v": 119
    },
    {
      "midi": 67,
      "hit": false,
      "t": 149994.68906250058,
      "d": 396.3375000000233,
      "v": 112
    },
    {
      "midi": 39,
      "hit": false,
      "t": 149994.68906250058,
      "d": 415.3921875000233,
      "v": 112
    },
    {
      "midi": 70,
      "hit": false,
      "t": 149998.50000000058,
      "d": 415.3921875000233,
      "v": 110
    },
    {
      "midi": 72,
      "hit": false,
      "t": 150730.20000000062,
      "d": 1299.5296875000058,
      "v": 112
    },
    {
      "midi": 75,
      "hit": false,
      "t": 150730.20000000062,
      "d": 1299.5296875000058,
      "v": 106
    },
    {
      "midi": 68,
      "hit": false,
      "t": 150730.20000000062,
      "d": 1314.7734375,
      "v": 116
    },
    {
      "midi": 63,
      "hit": false,
      "t": 150730.20000000062,
      "d": 1360.5046875000116,
      "v": 124
    },
    {
      "midi": 44,
      "hit": false,
      "t": 150734.01093750063,
      "d": 914.625,
      "v": 121
    },
    {
      "midi": 32,
      "hit": false,
      "t": 150734.01093750063,
      "d": 2229.3984375,
      "v": 121
    },
    {
      "midi": 44,
      "hit": false,
      "t": 151823.93906250063,
      "d": 899.3812500000058,
      "v": 89
    },
    {
      "midi": 75,
      "hit": false,
      "t": 152170.73437500064,
      "d": 857.4609375,
      "v": 101
    },
    {
      "midi": 63,
      "hit": false,
      "t": 152170.73437500064,
      "d": 926.0578124999884,
      "v": 108
    },
    {
      "midi": 72,
      "hit": false,
      "t": 152174.54531250065,
      "d": 865.0828124999825,
      "v": 107
    },
    {
      "midi": 68,
      "hit": false,
      "t": 152174.54531250065,
      "d": 880.3265624999767,
      "v": 112
    },
    {
      "midi": 44,
      "hit": false,
      "t": 152913.86718750064,
      "d": 423.0140624999767,
      "v": 69
    },
    {
      "midi": 42,
      "hit": false,
      "t": 153653.1890625006,
      "d": 895.5703125000291,
      "v": 113
    },
    {
      "midi": 73,
      "hit": false,
      "t": 153653.1890625006,
      "d": 1265.2312500000116,
      "v": 110
    },
    {
      "midi": 54,
      "hit": false,
      "t": 153657.0000000006,
      "d": 750.7546875000116,
      "v": 119
    },
    {
      "midi": 66,
      "hit": false,
      "t": 153657.0000000006,
      "d": 1158.5250000000233,
      "v": 119
    },
    {
      "midi": 70,
      "hit": false,
      "t": 153657.0000000006,
      "d": 1249.9875000000175,
      "v": 113
    },
    {
      "midi": 61,
      "hit": false,
      "t": 153657.0000000006,
      "d": 1295.71875,
      "v": 123
    },
    {
      "midi": 73,
      "hit": false,
      "t": 155112.7781250006,
      "d": 758.3765624999942,
      "v": 112
    },
    {
      "midi": 41,
      "hit": false,
      "t": 155112.7781250006,
      "d": 849.8390624999884,
      "v": 106
    },
    {
      "midi": 61,
      "hit": false,
      "t": 155112.7781250006,
      "d": 865.0828124999825,
      "v": 119
    },
    {
      "midi": 53,
      "hit": false,
      "t": 155116.5890625006,
      "d": 739.3218749999942,
      "v": 112
    },
    {
      "midi": 65,
      "hit": false,
      "t": 155116.5890625006,
      "d": 777.4312499999942,
      "v": 116
    },
    {
      "midi": 68,
      "hit": false,
      "t": 155116.5890625006,
      "d": 777.4312499999942,
      "v": 115
    },
    {
      "midi": 70,
      "hit": false,
      "t": 156560.93437500056,
      "d": 4150.110937499994,
      "v": 110
    },
    {
      "midi": 67,
      "hit": false,
      "t": 156564.74531250057,
      "d": 4150.110937499994,
      "v": 109
    },
    {
      "midi": 63,
      "hit": false,
      "t": 156564.74531250057,
      "d": 4153.921875,
      "v": 115
    },
    {
      "midi": 51,
      "hit": false,
      "t": 156564.74531250057,
      "d": 4157.732812500006,
      "v": 121
    },
    {
      "midi": 58,
      "hit": false,
      "t": 156564.74531250057,
      "d": 4157.732812500006,
      "v": 123
    },
    {
      "midi": 39,
      "hit": false,
      "t": 156564.74531250057,
      "d": 4180.598437500012,
      "v": 118
    },
    {
      "midi": 68,
      "hit": false,
      "t": 160974.00000000058,
      "d": 1040.3859374999884,
      "v": 98
    },
    {
      "midi": 56,
      "hit": false,
      "t": 160974.00000000058,
      "d": 1074.6843749999825,
      "v": 118
    },
    {
      "midi": 60,
      "hit": false,
      "t": 160977.8109375006,
      "d": 1040.3859374999884,
      "v": 116
    },
    {
      "midi": 44,
      "hit": false,
      "t": 160977.8109375006,
      "d": 2793.4171874999884,
      "v": 118
    },
    {
      "midi": 63,
      "hit": false,
      "t": 160981.6218750006,
      "d": 1048.007812499971,
      "v": 110
    },
    {
      "midi": 56,
      "hit": false,
      "t": 162422.15625000055,
      "d": 392.52656250001746,
      "v": 101
    },
    {
      "midi": 60,
      "hit": false,
      "t": 162422.15625000055,
      "d": 400.1484375000291,
      "v": 104
    },
    {
      "midi": 63,
      "hit": false,
      "t": 162425.96718750056,
      "d": 381.09375,
      "v": 103
    },
    {
      "midi": 61,
      "hit": false,
      "t": 163889.36718750055,
      "d": 918.4359375000349,
      "v": 110
    },
    {
      "midi": 56,
      "hit": false,
      "t": 163889.36718750055,
      "d": 979.4109375000407,
      "v": 112
    },
    {
      "midi": 68,
      "hit": false,
      "t": 163889.36718750055,
      "d": 1006.0875000000524,
      "v": 94
    },
    {
      "midi": 65,
      "hit": false,
      "t": 163896.98906250056,
      "d": 868.8937500000175,
      "v": 107
    },
    {
      "midi": 49,
      "hit": false,
      "t": 163900.80000000057,
      "d": 2141.74687500007,
      "v": 118
    },
    {
      "midi": 65,
      "hit": false,
      "t": 165341.33437500062,
      "d": 483.98906250001164,
      "v": 101
    },
    {
      "midi": 56,
      "hit": false,
      "t": 165341.33437500062,
      "d": 491.6109375000233,
      "v": 115
    },
    {
      "midi": 61,
      "hit": false,
      "t": 165341.33437500062,
      "d": 628.8046875000291,
      "v": 109
    },
    {
      "midi": 67,
      "hit": false,
      "t": 166076.84531250063,
      "d": 522.0984375000116,
      "v": 107
    },
    {
      "midi": 58,
      "hit": false,
      "t": 166076.84531250063,
      "d": 564.0187500000175,
      "v": 118
    },
    {
      "midi": 63,
      "hit": false,
      "t": 166080.65625000064,
      "d": 510.6656249999942,
      "v": 110
    },
    {
      "midi": 51,
      "hit": false,
      "t": 166084.46718750065,
      "d": 651.6703125000058,
      "v": 113
    },
    {
      "midi": 56,
      "hit": false,
      "t": 166812.35625000065,
      "d": 1272.8531250000233,
      "v": 116
    },
    {
      "midi": 63,
      "hit": false,
      "t": 166816.16718750066,
      "d": 1246.1765625000116,
      "v": 109
    },
    {
      "midi": 60,
      "hit": false,
      "t": 166816.16718750066,
      "d": 1249.9875000000175,
      "v": 112
    },
    {
      "midi": 44,
      "hit": false,
      "t": 166819.97812500066,
      "d": 2625.7359375000233,
      "v": 115
    },
    {
      "midi": 60,
      "hit": false,
      "t": 168291.00000000067,
      "d": 994.6546875000058,
      "v": 107
    },
    {
      "midi": 56,
      "hit": false,
      "t": 168291.00000000067,
      "d": 1131.8484375000116,
      "v": 110
    },
    {
      "midi": 68,
      "hit": false,
      "t": 168291.00000000067,
      "d": 1208.0671875000116,
      "v": 94
    },
    {
      "midi": 63,
      "hit": false,
      "t": 168294.81093750068,
      "d": 1067.0625,
      "v": 110
    },
    {
      "midi": 61,
      "hit": false,
      "t": 169742.96718750068,
      "d": 1009.8984375000291,
      "v": 109
    },
    {
      "midi": 56,
      "hit": false,
      "t": 169742.96718750068,
      "d": 1048.007812500029,
      "v": 113
    },
    {
      "midi": 49,
      "hit": false,
      "t": 169742.96718750068,
      "d": 2130.3140625000524,
      "v": 112
    },
    {
      "midi": 65,
      "hit": false,
      "t": 169746.77812500068,
      "d": 945.1125000000175,
      "v": 106
    },
    {
      "midi": 65,
      "hit": false,
      "t": 171198.74531250072,
      "d": 449.69062499998836,
      "v": 104
    },
    {
      "midi": 56,
      "hit": false,
      "t": 171198.74531250072,
      "d": 453.5015624999942,
      "v": 115
    },
    {
      "midi": 61,
      "hit": false,
      "t": 171198.74531250072,
      "d": 571.640625,
      "v": 110
    },
    {
      "midi": 63,
      "hit": false,
      "t": 171930.44531250073,
      "d": 487.79999999998836,
      "v": 112
    },
    {
      "midi": 67,
      "hit": false,
      "t": 171930.44531250073,
      "d": 491.6109374999942,
      "v": 103
    },
    {
      "midi": 58,
      "hit": false,
      "t": 171930.44531250073,
      "d": 556.3968750000058,
      "v": 113
    },
    {
      "midi": 51,
      "hit": false,
      "t": 171934.25625000073,
      "d": 613.5609375000058,
      "v": 113
    },
    {
      "midi": 63,
      "hit": false,
      "t": 172662.14531250074,
      "d": 1097.5499999999884,
      "v": 110
    },
    {
      "midi": 60,
      "hit": false,
      "t": 172662.14531250074,
      "d": 1158.5249999999942,
      "v": 110
    },
    {
      "midi": 56,
      "hit": false,
      "t": 172662.14531250074,
      "d": 1181.390625,
      "v": 119
    },
    {
      "midi": 68,
      "hit": false,
      "t": 172662.14531250074,
      "d": 1310.9624999999942,
      "v": 104
    },
    {
      "midi": 44,
      "hit": false,
      "t": 172662.14531250074,
      "d": 2324.671875,
      "v": 110
    },
    {
      "midi": 56,
      "hit": false,
      "t": 174136.97812500072,
      "d": 815.5406250000233,
      "v": 106
    },
    {
      "midi": 60,
      "hit": false,
      "t": 174140.78906250073,
      "d": 754.5656250000175,
      "v": 109
    },
    {
      "midi": 63,
      "hit": false,
      "t": 174144.60000000073,
      "d": 823.1625000000058,
      "v": 107
    },
    {
      "midi": 56,
      "hit": false,
      "t": 175608.00000000076,
      "d": 1196.6343749999942,
      "v": 115
    },
    {
      "midi": 65,
      "hit": false,
      "t": 175608.00000000076,
      "d": 1261.4203125000058,
      "v": 109
    },
    {
      "midi": 61,
      "hit": false,
      "t": 175611.81093750076,
      "d": 1135.6593749999884,
      "v": 112
    },
    {
      "midi": 49,
      "hit": false,
      "t": 175611.81093750076,
      "d": 1291.9078124999942,
      "v": 115
    },
    {
      "midi": 60,
      "hit": false,
      "t": 177059.96718750073,
      "d": 929.8687499999942,
      "v": 113
    },
    {
      "midi": 56,
      "hit": false,
      "t": 177059.96718750073,
      "d": 952.7343749999709,
      "v": 118
    },
    {
      "midi": 63,
      "hit": false,
      "t": 177063.77812500074,
      "d": 937.4906249999767,
      "v": 107
    },
    {
      "midi": 48,
      "hit": false,
      "t": 177067.58906250075,
      "d": 1356.6937499999476,
      "v": 115
    },
    {
      "midi": 58,
      "hit": false,
      "t": 178508.1234375007,
      "d": 1166.1468750000058,
      "v": 118
    },
    {
      "midi": 53,
      "hit": false,
      "t": 178508.1234375007,
      "d": 1169.9578125000116,
      "v": 107
    },
    {
      "midi": 61,
      "hit": false,
      "t": 178511.9343750007,
      "d": 1196.6343749999942,
      "v": 116
    },
    {
      "midi": 46,
      "hit": false,
      "t": 178515.74531250072,
      "d": 2629.546875,
      "v": 121
    },
    {
      "midi": 53,
      "hit": false,
      "t": 179994.3890625007,
      "d": 1112.7937500000116,
      "v": 107
    },
    {
      "midi": 58,
      "hit": false,
      "t": 179994.3890625007,
      "d": 1143.28125,
      "v": 115
    },
    {
      "midi": 61,
      "hit": false,
      "t": 179994.3890625007,
      "d": 1173.7687500000175,
      "v": 112
    },
    {
      "midi": 65,
      "hit": false,
      "t": 179994.3890625007,
      "d": 1227.1218750000116,
      "v": 107
    },
    {
      "midi": 63,
      "hit": false,
      "t": 181453.97812500072,
      "d": 1303.3406250000116,
      "v": 118
    },
    {
      "midi": 55,
      "hit": false,
      "t": 181457.78906250073,
      "d": 1204.2562500000058,
      "v": 110
    },
    {
      "midi": 58,
      "hit": false,
      "t": 181457.78906250073,
      "d": 1242.3656250000058,
      "v": 122
    },
    {
      "midi": 51,
      "hit": false,
      "t": 181469.22187500072,
      "d": 1112.7937500000116,
      "v": 121
    },
    {
      "midi": 39,
      "hit": false,
      "t": 181469.22187500072,
      "d": 1249.9875000000175,
      "v": 112
    },
    {
      "midi": 58,
      "hit": false,
      "t": 182917.37812500072,
      "d": 510.6656249999942,
      "v": 123
    },
    {
      "midi": 55,
      "hit": false,
      "t": 182917.37812500072,
      "d": 590.6953125,
      "v": 113
    },
    {
      "midi": 39,
      "hit": false,
      "t": 182921.18906250072,
      "d": 541.1531249999825,
      "v": 122
    },
    {
      "midi": 63,
      "hit": false,
      "t": 182921.18906250072,
      "d": 602.1281249999884,
      "v": 122
    },
    {
      "midi": 60,
      "hit": false,
      "t": 183641.45625000072,
      "d": 560.2078125000116,
      "v": 123
    },
    {
      "midi": 64,
      "hit": false,
      "t": 183641.45625000072,
      "d": 571.640625,
      "v": 121
    },
    {
      "midi": 40,
      "hit": false,
      "t": 183645.26718750072,
      "d": 567.8296874999942,
      "v": 121
    },
    {
      "midi": 55,
      "hit": false,
      "t": 183645.26718750072,
      "d": 575.4515625000058,
      "v": 119
    },
    {
      "midi": 53,
      "hit": false,
      "t": 184384.58906250072,
      "d": 1067.0625,
      "v": 113
    },
    {
      "midi": 60,
      "hit": false,
      "t": 184384.58906250072,
      "d": 1067.0625,
      "v": 113
    },
    {
      "midi": 56,
      "hit": false,
      "t": 184384.58906250072,
      "d": 1097.5499999999884,
      "v": 124
    },
    {
      "midi": 41,
      "hit": false,
      "t": 184384.58906250072,
      "d": 2591.437499999971,
      "v": 115
    },
    {
      "midi": 56,
      "hit": false,
      "t": 185828.9343750007,
      "d": 872.7046874999942,
      "v": 118
    },
    {
      "midi": 53,
      "hit": false,
      "t": 185828.9343750007,
      "d": 884.1374999999825,
      "v": 100
    },
    {
      "midi": 60,
      "hit": false,
      "t": 185828.9343750007,
      "d": 895.5703124999709,
      "v": 107
    },
    {
      "midi": 55,
      "hit": false,
      "t": 187296.14531250068,
      "d": 838.40625,
      "v": 118
    },
    {
      "midi": 51,
      "hit": false,
      "t": 187296.14531250068,
      "d": 884.1375000000116,
      "v": 121
    },
    {
      "midi": 58,
      "hit": false,
      "t": 187296.14531250068,
      "d": 891.7593750000233,
      "v": 116
    },
    {
      "midi": 39,
      "hit": false,
      "t": 187303.7671875007,
      "d": 2137.935937500035,
      "v": 123
    },
    {
      "midi": 55,
      "hit": false,
      "t": 188767.16718750072,
      "d": 636.4265625000116,
      "v": 115
    },
    {
      "midi": 51,
      "hit": false,
      "t": 188767.16718750072,
      "d": 693.5906250000116,
      "v": 118
    },
    {
      "midi": 58,
      "hit": false,
      "t": 188770.97812500072,
      "d": 697.4015625000175,
      "v": 113
    },
    {
      "midi": 53,
      "hit": false,
      "t": 190219.13437500075,
      "d": 941.3015625000116,
      "v": 118
    },
    {
      "midi": 49,
      "hit": false,
      "t": 190219.13437500075,
      "d": 948.9234375000233,
      "v": 121
    },
    {
      "midi": 37,
      "hit": false,
      "t": 190219.13437500075,
      "d": 2160.8015625000116,
      "v": 116
    },
    {
      "midi": 56,
      "hit": false,
      "t": 190222.94531250076,
      "d": 922.2468750000116,
      "v": 115
    },
    {
      "midi": 53,
      "hit": false,
      "t": 191693.96718750076,
      "d": 548.7749999999942,
      "v": 113
    },
    {
      "midi": 49,
      "hit": false,
      "t": 191693.96718750076,
      "d": 579.2624999999825,
      "v": 121
    },
    {
      "midi": 56,
      "hit": false,
      "t": 191697.77812500077,
      "d": 621.1828124999884,
      "v": 110
    },
    {
      "midi": 55,
      "hit": false,
      "t": 193134.50156250075,
      "d": 945.1125000000175,
      "v": 118
    },
    {
      "midi": 51,
      "hit": false,
      "t": 193138.31250000076,
      "d": 960.3562500000116,
      "v": 123
    },
    {
      "midi": 58,
      "hit": false,
      "t": 193138.31250000076,
      "d": 971.7890625,
      "v": 118
    },
    {
      "midi": 39,
      "hit": false,
      "t": 193138.31250000076,
      "d": 1779.7078124999825,
      "v": 118
    },
    {
      "midi": 55,
      "hit": false,
      "t": 194620.76718750075,
      "d": 312.49687499998254,
      "v": 116
    },
    {
      "midi": 58,
      "hit": false,
      "t": 194620.76718750075,
      "d": 316.30781249998836,
      "v": 115
    },
    {
      "midi": 51,
      "hit": false,
      "t": 194620.76718750075,
      "d": 327.7406249999767,
      "v": 122
    },
    {
      "midi": 52,
      "hit": false,
      "t": 195344.84531250072,
      "d": 457.3125000000291,
      "v": 118
    },
    {
      "midi": 55,
      "hit": false,
      "t": 195344.84531250072,
      "d": 510.6656250000524,
      "v": 123
    },
    {
      "midi": 60,
      "hit": false,
      "t": 195348.65625000073,
      "d": 499.2328125000349,
      "v": 115
    },
    {
      "midi": 40,
      "hit": false,
      "t": 195356.27812500074,
      "d": 529.7203125000233,
      "v": 119
    },
    {
      "midi": 60,
      "hit": false,
      "t": 196076.54531250076,
      "d": 1089.928125000035,
      "v": 116
    },
    {
      "midi": 53,
      "hit": false,
      "t": 196076.54531250076,
      "d": 1097.5500000000466,
      "v": 118
    },
    {
      "midi": 56,
      "hit": false,
      "t": 196084.16718750077,
      "d": 1089.928125000035,
      "v": 124
    },
    {
      "midi": 41,
      "hit": false,
      "t": 196084.16718750077,
      "d": 2248.453125000029,
      "v": 122
    },
    {
      "midi": 60,
      "hit": false,
      "t": 197551.3781250008,
      "d": 800.296875,
      "v": 115
    },
    {
      "midi": 53,
      "hit": false,
      "t": 197551.3781250008,
      "d": 804.1078125000058,
      "v": 116
    },
    {
      "midi": 56,
      "hit": false,
      "t": 197555.1890625008,
      "d": 777.4312499999942,
      "v": 123
    },
    {
      "midi": 55,
      "hit": false,
      "t": 199007.15625000081,
      "d": 910.8140625000233,
      "v": 119
    },
    {
      "midi": 51,
      "hit": false,
      "t": 199007.15625000081,
      "d": 914.6250000000291,
      "v": 123
    },
    {
      "midi": 58,
      "hit": false,
      "t": 199010.96718750082,
      "d": 941.3015625000116,
      "v": 119
    },
    {
      "midi": 39,
      "hit": false,
      "t": 199010.96718750082,
      "d": 2522.8406250000116,
      "v": 123
    },
    {
      "midi": 55,
      "hit": false,
      "t": 200459.12343750082,
      "d": 823.1625000000058,
      "v": 118
    },
    {
      "midi": 58,
      "hit": false,
      "t": 200459.12343750082,
      "d": 914.625,
      "v": 116
    },
    {
      "midi": 51,
      "hit": false,
      "t": 200459.12343750082,
      "d": 922.2468750000116,
      "v": 122
    },
    {
      "midi": 53,
      "hit": false,
      "t": 201922.52343750084,
      "d": 1166.1468750000058,
      "v": 116
    },
    {
      "midi": 49,
      "hit": false,
      "t": 201922.52343750084,
      "d": 1196.6343749999942,
      "v": 119
    },
    {
      "midi": 56,
      "hit": false,
      "t": 201926.33437500085,
      "d": 1200.4453125,
      "v": 113
    },
    {
      "midi": 37,
      "hit": false,
      "t": 201926.33437500085,
      "d": 2179.8562499999825,
      "v": 123
    },
    {
      "midi": 53,
      "hit": false,
      "t": 203404.97812500084,
      "d": 586.8843749999942,
      "v": 112
    },
    {
      "midi": 49,
      "hit": false,
      "t": 203404.97812500084,
      "d": 609.75,
      "v": 115
    },
    {
      "midi": 56,
      "hit": false,
      "t": 203416.41093750083,
      "d": 632.6156250000058,
      "v": 106
    },
    {
      "midi": 55,
      "hit": false,
      "t": 204876.00000000084,
      "d": 1150.9031249999825,
      "v": 118
    },
    {
      "midi": 51,
      "hit": false,
      "t": 204876.00000000084,
      "d": 1173.7687499999884,
      "v": 122
    },
    {
      "midi": 58,
      "hit": false,
      "t": 204876.00000000084,
      "d": 1181.390625,
      "v": 118
    },
    {
      "midi": 39,
      "hit": false,
      "t": 204876.00000000084,
      "d": 1284.2859375000116,
      "v": 123
    },
    {
      "midi": 44,
      "hit": false,
      "t": 207798.98906250086,
      "d": 556.3968750000058,
      "v": 116
    },
    {
      "midi": 68,
      "hit": false,
      "t": 207798.98906250086,
      "d": 1288.0968750000175,
      "v": 107
    },
    {
      "midi": 60,
      "hit": false,
      "t": 207798.98906250086,
      "d": 1295.718750000029,
      "v": 113
    },
    {
      "midi": 63,
      "hit": false,
      "t": 207798.98906250086,
      "d": 1303.3406250000407,
      "v": 113
    },
    {
      "midi": 56,
      "hit": false,
      "t": 207798.98906250086,
      "d": 1318.584375000035,
      "v": 118
    },
    {
      "midi": 32,
      "hit": false,
      "t": 207798.98906250086,
      "d": 2134.125000000029,
      "v": 109
    },
    {
      "midi": 44,
      "hit": false,
      "t": 208873.67343750087,
      "d": 1120.4156250000233,
      "v": 82
    },
    {
      "midi": 60,
      "hit": false,
      "t": 209243.33437500088,
      "d": 807.9187500000116,
      "v": 115
    },
    {
      "midi": 56,
      "hit": false,
      "t": 209243.33437500088,
      "d": 834.5953125000233,
      "v": 113
    },
    {
      "midi": 68,
      "hit": false,
      "t": 209243.33437500088,
      "d": 834.5953125000233,
      "v": 113
    },
    {
      "midi": 63,
      "hit": false,
      "t": 209247.14531250088,
      "d": 838.4062500000291,
      "v": 113
    },
    {
      "midi": 56,
      "hit": false,
      "t": 210706.7343750009,
      "d": 583.0734375000175,
      "v": 121
    },
    {
      "midi": 68,
      "hit": false,
      "t": 210706.7343750009,
      "d": 636.4265625000116,
      "v": 104
    },
    {
      "midi": 61,
      "hit": false,
      "t": 210710.5453125009,
      "d": 598.3171875000116,
      "v": 113
    },
    {
      "midi": 65,
      "hit": false,
      "t": 210710.5453125009,
      "d": 613.5609375000058,
      "v": 110
    },
    {
      "midi": 49,
      "hit": false,
      "t": 210710.5453125009,
      "d": 1006.0874999999942,
      "v": 118
    },
    {
      "midi": 37,
      "hit": false,
      "t": 210710.5453125009,
      "d": 1059.4406249999884,
      "v": 106
    },
    {
      "midi": 61,
      "hit": false,
      "t": 212162.51250000088,
      "d": 160.05937500001164,
      "v": 118
    },
    {
      "midi": 73,
      "hit": false,
      "t": 212162.51250000088,
      "d": 201.97968749998836,
      "v": 110
    },
    {
      "midi": 65,
      "hit": false,
      "t": 212166.3234375009,
      "d": 152.4375,
      "v": 113
    },
    {
      "midi": 68,
      "hit": false,
      "t": 212166.3234375009,
      "d": 167.68124999999418,
      "v": 110
    },
    {
      "midi": 49,
      "hit": false,
      "t": 212170.1343750009,
      "d": 224.84531249996508,
      "v": 119
    },
    {
      "midi": 37,
      "hit": false,
      "t": 212170.1343750009,
      "d": 312.49687499995343,
      "v": 107
    },
    {
      "midi": 48,
      "hit": false,
      "t": 212707.47656250084,
      "d": 289.6312500000058,
      "v": 106
    },
    {
      "midi": 68,
      "hit": false,
      "t": 212707.47656250084,
      "d": 327.7406250000058,
      "v": 115
    },
    {
      "midi": 77,
      "hit": false,
      "t": 212707.47656250084,
      "d": 346.7953125000058,
      "v": 106
    },
    {
      "midi": 36,
      "hit": false,
      "t": 212707.47656250084,
      "d": 365.8500000000058,
      "v": 104
    },
    {
      "midi": 65,
      "hit": false,
      "t": 212707.47656250084,
      "d": 369.66093750001164,
      "v": 96
    },
    {
      "midi": 73,
      "hit": false,
      "t": 212707.47656250084,
      "d": 369.66093750001164,
      "v": 115
    },
    {
      "midi": 65,
      "hit": false,
      "t": 213202.89843750084,
      "d": 251.52187500000582,
      "v": 106
    },
    {
      "midi": 70,
      "hit": false,
      "t": 213202.89843750084,
      "d": 297.25312500001746,
      "v": 119
    },
    {
      "midi": 73,
      "hit": false,
      "t": 213202.89843750084,
      "d": 312.49687500001164,
      "v": 116
    },
    {
      "midi": 77,
      "hit": false,
      "t": 213206.70937500085,
      "d": 274.38750000001164,
      "v": 107
    },
    {
      "midi": 46,
      "hit": false,
      "t": 213210.52031250086,
      "d": 285.8203125,
      "v": 122
    },
    {
      "midi": 34,
      "hit": false,
      "t": 213210.52031250086,
      "d": 327.7406250000058,
      "v": 112
    },
    {
      "midi": 68,
      "hit": false,
      "t": 213622.10156250087,
      "d": 1341.4500000000407,
      "v": 119
    },
    {
      "midi": 80,
      "hit": false,
      "t": 213625.91250000088,
      "d": 1330.0171875000233,
      "v": 118
    },
    {
      "midi": 72,
      "hit": false,
      "t": 213625.91250000088,
      "d": 1341.4500000000407,
      "v": 118
    },
    {
      "midi": 44,
      "hit": false,
      "t": 213625.91250000088,
      "d": 1345.2609375000466,
      "v": 116
    },
    {
      "midi": 75,
      "hit": false,
      "t": 213629.72343750088,
      "d": 1333.828125000029,
      "v": 113
    },
    {
      "midi": 32,
      "hit": false,
      "t": 213629.72343750088,
      "d": 2545.7062500000466,
      "v": 119
    },
    {
      "midi": 80,
      "hit": false,
      "t": 215112.1781250009,
      "d": 1032.7640625000058,
      "v": 112
    },
    {
      "midi": 68,
      "hit": false,
      "t": 215112.1781250009,
      "d": 1059.4406250000175,
      "v": 119
    },
    {
      "midi": 72,
      "hit": false,
      "t": 215115.9890625009,
      "d": 1021.3312499999884,
      "v": 113
    },
    {
      "midi": 75,
      "hit": false,
      "t": 215115.9890625009,
      "d": 1025.1421874999942,
      "v": 110
    },
    {
      "midi": 44,
      "hit": false,
      "t": 215115.9890625009,
      "d": 1082.3062500000233,
      "v": 115
    },
    {
      "midi": 68,
      "hit": false,
      "t": 216575.57812500093,
      "d": 453.5015624999942,
      "v": 113
    },
    {
      "midi": 77,
      "hit": false,
      "t": 216579.38906250094,
      "d": 388.71562499998254,
      "v": 106
    },
    {
      "midi": 65,
      "hit": false,
      "t": 216579.38906250094,
      "d": 411.58124999998836,
      "v": 104
    },
    {
      "midi": 73,
      "hit": false,
      "t": 216579.38906250094,
      "d": 411.58124999998836,
      "v": 109
    },
    {
      "midi": 49,
      "hit": false,
      "t": 216594.63281250093,
      "d": 350.60624999998254,
      "v": 122
    },
    {
      "midi": 37,
      "hit": false,
      "t": 216594.63281250093,
      "d": 426.82499999998254,
      "v": 113
    },
    {
      "midi": 75,
      "hit": false,
      "t": 217314.90000000093,
      "d": 411.58125000001746,
      "v": 107
    },
    {
      "midi": 68,
      "hit": false,
      "t": 217314.90000000093,
      "d": 426.82500000004075,
      "v": 112
    },
    {
      "midi": 63,
      "hit": false,
      "t": 217314.90000000093,
      "d": 510.6656250000233,
      "v": 121
    },
    {
      "midi": 72,
      "hit": false,
      "t": 217318.71093750093,
      "d": 407.77031250001164,
      "v": 106
    },
    {
      "midi": 48,
      "hit": false,
      "t": 217318.71093750093,
      "d": 415.3921875000233,
      "v": 115
    },
    {
      "midi": 36,
      "hit": false,
      "t": 217318.71093750093,
      "d": 472.5562500000233,
      "v": 104
    },
    {
      "midi": 73,
      "hit": false,
      "t": 218046.60000000097,
      "d": 342.9843750000291,
      "v": 110
    },
    {
      "midi": 65,
      "hit": false,
      "t": 218050.41093750097,
      "d": 301.0640625000233,
      "v": 112
    },
    {
      "midi": 61,
      "hit": false,
      "t": 218050.41093750097,
      "d": 308.6859375000349,
      "v": 118
    },
    {
      "midi": 70,
      "hit": false,
      "t": 218050.41093750097,
      "d": 342.9843750000291,
      "v": 101
    },
    {
      "midi": 46,
      "hit": false,
      "t": 218054.22187500098,
      "d": 339.1734375000233,
      "v": 113
    },
    {
      "midi": 34,
      "hit": false,
      "t": 218058.03281250098,
      "d": 278.19843750001746,
      "v": 115
    },
    {
      "midi": 75,
      "hit": false,
      "t": 218766.867187501,
      "d": 464.93437500004075,
      "v": 112
    },
    {
      "midi": 63,
      "hit": false,
      "t": 218770.678125001,
      "d": 453.5015625000233,
      "v": 119
    },
    {
      "midi": 51,
      "hit": false,
      "t": 218774.489062501,
      "d": 369.66093750001164,
      "v": 119
    },
    {
      "midi": 67,
      "hit": false,
      "t": 218774.489062501,
      "d": 396.3375000000233,
      "v": 112
    },
    {
      "midi": 39,
      "hit": false,
      "t": 218774.489062501,
      "d": 415.3921875000233,
      "v": 112
    },
    {
      "midi": 70,
      "hit": false,
      "t": 218778.300000001,
      "d": 415.3921875000233,
      "v": 110
    },
    {
      "midi": 72,
      "hit": false,
      "t": 219510.00000000105,
      "d": 1299.5296875000058,
      "v": 112
    },
    {
      "midi": 75,
      "hit": false,
      "t": 219510.00000000105,
      "d": 1299.5296875000058,
      "v": 106
    },
    {
      "midi": 68,
      "hit": false,
      "t": 219510.00000000105,
      "d": 1314.7734375,
      "v": 116
    },
    {
      "midi": 63,
      "hit": false,
      "t": 219510.00000000105,
      "d": 1360.5046875000116,
      "v": 124
    },
    {
      "midi": 44,
      "hit": false,
      "t": 219513.81093750105,
      "d": 914.625,
      "v": 121
    },
    {
      "midi": 32,
      "hit": false,
      "t": 219513.81093750105,
      "d": 2229.3984375,
      "v": 121
    },
    {
      "midi": 44,
      "hit": false,
      "t": 220603.73906250106,
      "d": 899.3812500000058,
      "v": 89
    },
    {
      "midi": 75,
      "hit": false,
      "t": 220950.53437500107,
      "d": 857.4609375,
      "v": 101
    },
    {
      "midi": 63,
      "hit": false,
      "t": 220950.53437500107,
      "d": 926.0578124999884,
      "v": 108
    },
    {
      "midi": 72,
      "hit": false,
      "t": 220954.34531250107,
      "d": 865.0828124999825,
      "v": 107
    },
    {
      "midi": 68,
      "hit": false,
      "t": 220954.34531250107,
      "d": 880.3265624999767,
      "v": 112
    },
    {
      "midi": 44,
      "hit": false,
      "t": 221693.66718750107,
      "d": 423.0140624999767,
      "v": 69
    },
    {
      "midi": 42,
      "hit": false,
      "t": 222432.98906250103,
      "d": 895.5703125000291,
      "v": 113
    },
    {
      "midi": 73,
      "hit": false,
      "t": 222432.98906250103,
      "d": 1265.2312500000116,
      "v": 110
    },
    {
      "midi": 54,
      "hit": false,
      "t": 222436.80000000104,
      "d": 750.7546875000116,
      "v": 119
    },
    {
      "midi": 66,
      "hit": false,
      "t": 222436.80000000104,
      "d": 1158.5250000000233,
      "v": 119
    },
    {
      "midi": 70,
      "hit": false,
      "t": 222436.80000000104,
      "d": 1249.9875000000175,
      "v": 113
    },
    {
      "midi": 61,
      "hit": false,
      "t": 222436.80000000104,
      "d": 1295.71875,
      "v": 123
    },
    {
      "midi": 73,
      "hit": false,
      "t": 223892.57812500102,
      "d": 758.3765624999942,
      "v": 112
    },
    {
      "midi": 41,
      "hit": false,
      "t": 223892.57812500102,
      "d": 849.8390624999884,
      "v": 106
    },
    {
      "midi": 61,
      "hit": false,
      "t": 223892.57812500102,
      "d": 865.0828124999825,
      "v": 119
    },
    {
      "midi": 53,
      "hit": false,
      "t": 223896.38906250102,
      "d": 739.3218749999942,
      "v": 112
    },
    {
      "midi": 65,
      "hit": false,
      "t": 223896.38906250102,
      "d": 777.4312499999942,
      "v": 116
    },
    {
      "midi": 68,
      "hit": false,
      "t": 223896.38906250102,
      "d": 777.4312499999942,
      "v": 115
    },
    {
      "midi": 70,
      "hit": false,
      "t": 225340.734375001,
      "d": 2686.7109375,
      "v": 110
    },
    {
      "midi": 39,
      "hit": false,
      "t": 225344.545312501,
      "d": 2686.7109375,
      "v": 118
    },
    {
      "midi": 51,
      "hit": false,
      "t": 225344.545312501,
      "d": 2686.7109375,
      "v": 121
    },
    {
      "midi": 58,
      "hit": false,
      "t": 225344.545312501,
      "d": 2686.7109375,
      "v": 123
    },
    {
      "midi": 67,
      "hit": false,
      "t": 225344.545312501,
      "d": 2686.7109375,
      "v": 109
    },
    {
      "midi": 63,
      "hit": false,
      "t": 225344.545312501,
      "d": 2690.521875000006,
      "v": 115
    },
    {
      "midi": 44,
      "hit": false,
      "t": 228286.589062501,
      "d": 556.3968750000058,
      "v": 116
    },
    {
      "midi": 68,
      "hit": false,
      "t": 228286.589062501,
      "d": 1288.0968750000175,
      "v": 107
    },
    {
      "midi": 60,
      "hit": false,
      "t": 228286.589062501,
      "d": 1295.718750000029,
      "v": 113
    },
    {
      "midi": 63,
      "hit": false,
      "t": 228286.589062501,
      "d": 1303.3406250000407,
      "v": 113
    },
    {
      "midi": 56,
      "hit": false,
      "t": 228286.589062501,
      "d": 1318.584375000035,
      "v": 118
    },
    {
      "midi": 32,
      "hit": false,
      "t": 228286.589062501,
      "d": 2134.125000000029,
      "v": 109
    },
    {
      "midi": 44,
      "hit": false,
      "t": 229361.27343750102,
      "d": 1120.4156250000233,
      "v": 82
    },
    {
      "midi": 60,
      "hit": false,
      "t": 229730.93437500103,
      "d": 807.9187500000116,
      "v": 115
    },
    {
      "midi": 56,
      "hit": false,
      "t": 229730.93437500103,
      "d": 834.5953125000233,
      "v": 113
    },
    {
      "midi": 68,
      "hit": false,
      "t": 229730.93437500103,
      "d": 834.5953125000233,
      "v": 113
    },
    {
      "midi": 63,
      "hit": false,
      "t": 229734.74531250104,
      "d": 838.4062500000291,
      "v": 113
    },
    {
      "midi": 56,
      "hit": false,
      "t": 231194.33437500105,
      "d": 583.0734375000175,
      "v": 121
    },
    {
      "midi": 68,
      "hit": false,
      "t": 231194.33437500105,
      "d": 636.4265625000116,
      "v": 104
    },
    {
      "midi": 61,
      "hit": false,
      "t": 231198.14531250106,
      "d": 598.3171875000116,
      "v": 113
    },
    {
      "midi": 65,
      "hit": false,
      "t": 231198.14531250106,
      "d": 613.5609375000058,
      "v": 110
    },
    {
      "midi": 49,
      "hit": false,
      "t": 231198.14531250106,
      "d": 1006.0874999999942,
      "v": 118
    },
    {
      "midi": 37,
      "hit": false,
      "t": 231198.14531250106,
      "d": 1059.4406249999884,
      "v": 106
    },
    {
      "midi": 61,
      "hit": false,
      "t": 232650.11250000104,
      "d": 160.05937500001164,
      "v": 118
    },
    {
      "midi": 73,
      "hit": false,
      "t": 232650.11250000104,
      "d": 201.97968749998836,
      "v": 110
    },
    {
      "midi": 65,
      "hit": false,
      "t": 232653.92343750104,
      "d": 152.4375,
      "v": 113
    },
    {
      "midi": 68,
      "hit": false,
      "t": 232653.92343750104,
      "d": 167.68124999999418,
      "v": 110
    },
    {
      "midi": 49,
      "hit": false,
      "t": 232657.73437500105,
      "d": 224.84531249996508,
      "v": 119
    },
    {
      "midi": 37,
      "hit": false,
      "t": 232657.73437500105,
      "d": 312.49687499995343,
      "v": 107
    },
    {
      "midi": 48,
      "hit": false,
      "t": 233195.076562501,
      "d": 289.6312500000058,
      "v": 106
    },
    {
      "midi": 68,
      "hit": false,
      "t": 233195.076562501,
      "d": 327.7406250000058,
      "v": 115
    },
    {
      "midi": 77,
      "hit": false,
      "t": 233195.076562501,
      "d": 346.7953125000058,
      "v": 106
    },
    {
      "midi": 36,
      "hit": false,
      "t": 233195.076562501,
      "d": 365.8500000000058,
      "v": 104
    },
    {
      "midi": 65,
      "hit": false,
      "t": 233195.076562501,
      "d": 369.66093750001164,
      "v": 96
    },
    {
      "midi": 73,
      "hit": false,
      "t": 233195.076562501,
      "d": 369.66093750001164,
      "v": 115
    },
    {
      "midi": 65,
      "hit": false,
      "t": 233732.418750001,
      "d": 251.52187500000582,
      "v": 106
    },
    {
      "midi": 70,
      "hit": false,
      "t": 233732.418750001,
      "d": 297.25312500001746,
      "v": 119
    },
    {
      "midi": 73,
      "hit": false,
      "t": 233732.418750001,
      "d": 312.49687500001164,
      "v": 116
    },
    {
      "midi": 77,
      "hit": false,
      "t": 233736.229687501,
      "d": 274.38750000001164,
      "v": 107
    },
    {
      "midi": 46,
      "hit": false,
      "t": 233736.229687501,
      "d": 285.8203125,
      "v": 122
    },
    {
      "midi": 34,
      "hit": false,
      "t": 233740.040625001,
      "d": 327.7406250000058,
      "v": 112
    },
    {
      "midi": 68,
      "hit": false,
      "t": 234109.70156250102,
      "d": 1341.4500000000407,
      "v": 119
    },
    {
      "midi": 80,
      "hit": false,
      "t": 234113.51250000103,
      "d": 1330.0171875000233,
      "v": 118
    },
    {
      "midi": 72,
      "hit": false,
      "t": 234113.51250000103,
      "d": 1341.4500000000407,
      "v": 118
    },
    {
      "midi": 44,
      "hit": false,
      "t": 234113.51250000103,
      "d": 1345.2609375000466,
      "v": 116
    },
    {
      "midi": 75,
      "hit": false,
      "t": 234117.32343750104,
      "d": 1333.828125000029,
      "v": 113
    },
    {
      "midi": 32,
      "hit": false,
      "t": 234117.32343750104,
      "d": 2545.7062500000466,
      "v": 119
    },
    {
      "midi": 80,
      "hit": false,
      "t": 235599.77812500106,
      "d": 1032.7640625000058,
      "v": 112
    },
    {
      "midi": 68,
      "hit": false,
      "t": 235599.77812500106,
      "d": 1059.4406250000175,
      "v": 119
    },
    {
      "midi": 72,
      "hit": false,
      "t": 235603.58906250107,
      "d": 1021.3312499999884,
      "v": 113
    },
    {
      "midi": 75,
      "hit": false,
      "t": 235603.58906250107,
      "d": 1025.1421874999942,
      "v": 110
    },
    {
      "midi": 44,
      "hit": false,
      "t": 235603.58906250107,
      "d": 1082.3062500000233,
      "v": 115
    },
    {
      "midi": 68,
      "hit": false,
      "t": 237063.17812500108,
      "d": 453.5015624999942,
      "v": 113
    },
    {
      "midi": 77,
      "hit": false,
      "t": 237066.9890625011,
      "d": 388.71562499998254,
      "v": 106
    },
    {
      "midi": 65,
      "hit": false,
      "t": 237066.9890625011,
      "d": 411.58124999998836,
      "v": 104
    },
    {
      "midi": 73,
      "hit": false,
      "t": 237066.9890625011,
      "d": 411.58124999998836,
      "v": 109
    },
    {
      "midi": 49,
      "hit": false,
      "t": 237082.23281250108,
      "d": 350.60624999998254,
      "v": 122
    },
    {
      "midi": 37,
      "hit": false,
      "t": 237082.23281250108,
      "d": 426.82499999998254,
      "v": 113
    },
    {
      "midi": 75,
      "hit": false,
      "t": 237802.50000000108,
      "d": 411.58125000001746,
      "v": 107
    },
    {
      "midi": 68,
      "hit": false,
      "t": 237802.50000000108,
      "d": 426.82500000004075,
      "v": 112
    },
    {
      "midi": 63,
      "hit": false,
      "t": 237802.50000000108,
      "d": 510.6656250000233,
      "v": 121
    },
    {
      "midi": 72,
      "hit": false,
      "t": 237806.31093750108,
      "d": 407.77031250001164,
      "v": 106
    },
    {
      "midi": 48,
      "hit": false,
      "t": 237806.31093750108,
      "d": 415.3921875000233,
      "v": 115
    },
    {
      "midi": 36,
      "hit": false,
      "t": 237806.31093750108,
      "d": 472.5562500000233,
      "v": 104
    },
    {
      "midi": 73,
      "hit": false,
      "t": 238534.20000000112,
      "d": 342.9843750000291,
      "v": 110
    },
    {
      "midi": 65,
      "hit": false,
      "t": 238538.01093750112,
      "d": 301.0640625000233,
      "v": 112
    },
    {
      "midi": 61,
      "hit": false,
      "t": 238538.01093750112,
      "d": 308.6859375000349,
      "v": 118
    },
    {
      "midi": 70,
      "hit": false,
      "t": 238538.01093750112,
      "d": 342.9843750000291,
      "v": 101
    },
    {
      "midi": 46,
      "hit": false,
      "t": 238541.82187500113,
      "d": 339.1734375000233,
      "v": 113
    },
    {
      "midi": 34,
      "hit": false,
      "t": 238545.63281250114,
      "d": 278.19843750001746,
      "v": 115
    },
    {
      "midi": 75,
      "hit": false,
      "t": 239254.46718750114,
      "d": 464.93437500004075,
      "v": 112
    },
    {
      "midi": 63,
      "hit": false,
      "t": 239258.27812500115,
      "d": 453.5015625000233,
      "v": 119
    },
    {
      "midi": 51,
      "hit": false,
      "t": 239262.08906250115,
      "d": 369.66093750001164,
      "v": 119
    },
    {
      "midi": 67,
      "hit": false,
      "t": 239262.08906250115,
      "d": 396.3375000000233,
      "v": 112
    },
    {
      "midi": 39,
      "hit": false,
      "t": 239262.08906250115,
      "d": 415.3921875000233,
      "v": 112
    },
    {
      "midi": 70,
      "hit": false,
      "t": 239265.90000000116,
      "d": 415.3921875000233,
      "v": 110
    },
    {
      "midi": 72,
      "hit": false,
      "t": 239997.6000000012,
      "d": 1299.5296875000058,
      "v": 112
    },
    {
      "midi": 75,
      "hit": false,
      "t": 239997.6000000012,
      "d": 1299.5296875000058,
      "v": 106
    },
    {
      "midi": 68,
      "hit": false,
      "t": 239997.6000000012,
      "d": 1314.7734375,
      "v": 116
    },
    {
      "midi": 63,
      "hit": false,
      "t": 239997.6000000012,
      "d": 1360.5046875000116,
      "v": 124
    },
    {
      "midi": 44,
      "hit": false,
      "t": 240001.4109375012,
      "d": 914.625,
      "v": 121
    },
    {
      "midi": 32,
      "hit": false,
      "t": 240001.4109375012,
      "d": 2229.3984375,
      "v": 121
    },
    {
      "midi": 44,
      "hit": false,
      "t": 241091.3390625012,
      "d": 899.3812500000058,
      "v": 89
    },
    {
      "midi": 75,
      "hit": false,
      "t": 241438.13437500122,
      "d": 857.4609375,
      "v": 101
    },
    {
      "midi": 63,
      "hit": false,
      "t": 241438.13437500122,
      "d": 926.0578124999884,
      "v": 108
    },
    {
      "midi": 72,
      "hit": false,
      "t": 241441.94531250122,
      "d": 865.0828124999825,
      "v": 107
    },
    {
      "midi": 68,
      "hit": false,
      "t": 241441.94531250122,
      "d": 880.3265624999767,
      "v": 112
    },
    {
      "midi": 44,
      "hit": false,
      "t": 242181.26718750122,
      "d": 423.0140624999767,
      "v": 69
    },
    {
      "midi": 42,
      "hit": false,
      "t": 242920.58906250118,
      "d": 895.5703125000291,
      "v": 113
    },
    {
      "midi": 73,
      "hit": false,
      "t": 242920.58906250118,
      "d": 1265.2312500000116,
      "v": 110
    },
    {
      "midi": 54,
      "hit": false,
      "t": 242924.4000000012,
      "d": 750.7546875000116,
      "v": 119
    },
    {
      "midi": 66,
      "hit": false,
      "t": 242924.4000000012,
      "d": 1158.5250000000233,
      "v": 119
    },
    {
      "midi": 70,
      "hit": false,
      "t": 242924.4000000012,
      "d": 1249.9875000000175,
      "v": 113
    },
    {
      "midi": 61,
      "hit": false,
      "t": 242924.4000000012,
      "d": 1295.71875,
      "v": 123
    },
    {
      "midi": 73,
      "hit": false,
      "t": 244380.17812500117,
      "d": 758.3765624999942,
      "v": 112
    },
    {
      "midi": 41,
      "hit": false,
      "t": 244380.17812500117,
      "d": 849.8390624999884,
      "v": 106
    },
    {
      "midi": 61,
      "hit": false,
      "t": 244380.17812500117,
      "d": 865.0828124999825,
      "v": 119
    },
    {
      "midi": 53,
      "hit": false,
      "t": 244383.98906250118,
      "d": 739.3218749999942,
      "v": 112
    },
    {
      "midi": 65,
      "hit": false,
      "t": 244383.98906250118,
      "d": 777.4312499999942,
      "v": 116
    },
    {
      "midi": 68,
      "hit": false,
      "t": 244383.98906250118,
      "d": 777.4312499999942,
      "v": 115
    },
    {
      "midi": 70,
      "hit": false,
      "t": 245828.33437500114,
      "d": 2938.232812500006,
      "v": 110
    },
    {
      "midi": 39,
      "hit": false,
      "t": 245832.14531250115,
      "d": 2934.421875,
      "v": 118
    },
    {
      "midi": 51,
      "hit": false,
      "t": 245832.14531250115,
      "d": 2934.421875,
      "v": 121
    },
    {
      "midi": 58,
      "hit": false,
      "t": 245832.14531250115,
      "d": 2934.421875,
      "v": 123
    },
    {
      "midi": 63,
      "hit": false,
      "t": 245832.14531250115,
      "d": 2934.421875,
      "v": 115
    },
    {
      "midi": 67,
      "hit": false,
      "t": 245832.14531250115,
      "d": 2934.421875,
      "v": 109
    },
    {
      "midi": 60,
      "hit": false,
      "t": 248770.37812500115,
      "d": 362.0390625,
      "v": 102
    },
    {
      "midi": 63,
      "hit": false,
      "t": 248770.37812500115,
      "d": 716.4562500000175,
      "v": 102
    },
    {
      "midi": 68,
      "hit": false,
      "t": 248770.37812500115,
      "d": 1067.062500000029,
      "v": 91
    },
    {
      "midi": 32,
      "hit": false,
      "t": 248770.37812500115,
      "d": 2854.3921875000233,
      "v": 105
    },
    {
      "midi": 44,
      "hit": false,
      "t": 248770.37812500115,
      "d": 2854.3921875000233,
      "v": 114
    },
    {
      "midi": 60,
      "hit": false,
      "t": 249140.03906250116,
      "d": 2164.6124999999884,
      "v": 87
    },
    {
      "midi": 63,
      "hit": false,
      "t": 249513.51093750118,
      "d": 1078.4953124999884,
      "v": 87
    },
    {
      "midi": 68,
      "hit": false,
      "t": 249867.92812500117,
      "d": 221.03437499998836,
      "v": 109
    },
    {
      "midi": 68,
      "hit": false,
      "t": 250092.77343750116,
      "d": 137.19375000000582,
      "v": 109
    },
    {
      "midi": 68,
      "hit": false,
      "t": 250237.58906250118,
      "d": 1432.9125000000058,
      "v": 120
    },
    {
      "midi": 63,
      "hit": false,
      "t": 250607.25000000116,
      "d": 354.41718749998836,
      "v": 109
    },
    {
      "midi": 63,
      "hit": false,
      "t": 250969.28906250116,
      "d": 708.8343750000349,
      "v": 109
    },
    {
      "midi": 60,
      "hit": false,
      "t": 251331.32812500116,
      "d": 354.41718750004657,
      "v": 80
    },
    {
      "midi": 58,
      "hit": false,
      "t": 251689.55625000122,
      "d": 160.05937500001164,
      "v": 96
    },
    {
      "midi": 68,
      "hit": false,
      "t": 251689.55625000122,
      "d": 2903.9343750000116,
      "v": 87
    },
    {
      "midi": 32,
      "hit": false,
      "t": 251693.36718750122,
      "d": 2907.7453125000175,
      "v": 93
    },
    {
      "midi": 44,
      "hit": false,
      "t": 251693.36718750122,
      "d": 2907.7453125000175,
      "v": 102
    },
    {
      "midi": 63,
      "hit": false,
      "t": 251693.36718750122,
      "d": 2926.8000000000175,
      "v": 102
    },
    {
      "midi": 60,
      "hit": false,
      "t": 251853.42656250123,
      "d": 2766.740625000006,
      "v": 87
    }
  ]
}