{
  "jsonPath": "Rock/Country Rock/Brooks  Dunn/honky-tonk-truth.json",
  "path": "Rock\\Country Rock\\Brooks  Dunn\\Honky Tonk Truth.mid",
  "name": "Honky Tonk Truth",
  "difficulty": "Advanced",
  "bpm": 154.000154000154,
  "notes": [
    {
      "midi": 47,
      "hit": false,
      "t": 4866.0665625,
      "d": 125.81156250000004,
      "v": 127
    },
    {
      "midi": 50,
      "hit": false,
      "t": 5048.69625,
      "d": 68.99343749999935,
      "v": 127
    },
    {
      "midi": 51,
      "hit": false,
      "t": 5060.8715624999995,
      "d": 170.45437499999935,
      "v": 127
    },
    {
      "midi": 54,
      "hit": false,
      "t": 5060.8715624999995,
      "d": 170.45437499999935,
      "v": 104
    },
    {
      "midi": 47,
      "hit": false,
      "t": 5243.501249999998,
      "d": 146.10375000000022,
      "v": 127
    },
    {
      "midi": 33,
      "hit": false,
      "t": 5434.247812499999,
      "d": 223.21406250000018,
      "v": 127
    },
    {
      "midi": 45,
      "hit": false,
      "t": 5629.052812499999,
      "d": 215.09718749999956,
      "v": 127
    },
    {
      "midi": 32,
      "hit": false,
      "t": 5836.033124999999,
      "d": 247.5646874999993,
      "v": 127
    },
    {
      "midi": 44,
      "hit": false,
      "t": 6030.838124999998,
      "d": 215.09718749999956,
      "v": 110
    },
    {
      "midi": 30,
      "hit": false,
      "t": 6229.701562499998,
      "d": 150.16218750000007,
      "v": 127
    },
    {
      "midi": 42,
      "hit": false,
      "t": 6404.214374999998,
      "d": 64.93499999999949,
      "v": 83
    },
    {
      "midi": 54,
      "hit": false,
      "t": 6420.448124999998,
      "d": 36.5259374999996,
      "v": 51
    },
    {
      "midi": 30,
      "hit": false,
      "t": 6420.448124999998,
      "d": 56.81812499999887,
      "v": 76
    },
    {
      "midi": 30,
      "hit": false,
      "t": 6599.019374999997,
      "d": 52.75968749999993,
      "v": 95
    },
    {
      "midi": 54,
      "hit": false,
      "t": 6607.136249999997,
      "d": 52.75968749999993,
      "v": 71
    },
    {
      "midi": 42,
      "hit": false,
      "t": 6611.194687499997,
      "d": 48.70125000000007,
      "v": 80
    },
    {
      "midi": 42,
      "hit": false,
      "t": 6801.941249999997,
      "d": 48.70125000000007,
      "v": 91
    },
    {
      "midi": 54,
      "hit": false,
      "t": 6805.999687499997,
      "d": 68.99343750000025,
      "v": 87
    },
    {
      "midi": 30,
      "hit": false,
      "t": 6810.058124999997,
      "d": 60.876562500000546,
      "v": 110
    },
    {
      "midi": 46,
      "hit": false,
      "t": 7000.804687499996,
      "d": 97.40250000000015,
      "v": 100
    },
    {
      "midi": 58,
      "hit": false,
      "t": 7004.863124999996,
      "d": 97.40250000000015,
      "v": 104
    },
    {
      "midi": 34,
      "hit": false,
      "t": 7004.863124999996,
      "d": 109.57781249999971,
      "v": 127
    },
    {
      "midi": 46,
      "hit": false,
      "t": 7187.492812499996,
      "d": 60.876562499999636,
      "v": 65
    },
    {
      "midi": 58,
      "hit": false,
      "t": 7187.492812499996,
      "d": 73.0518749999992,
      "v": 87
    },
    {
      "midi": 34,
      "hit": false,
      "t": 7195.609687499996,
      "d": 64.93499999999949,
      "v": 110
    },
    {
      "midi": 46,
      "hit": false,
      "t": 7394.473124999995,
      "d": 44.64281250000022,
      "v": 91
    },
    {
      "midi": 34,
      "hit": false,
      "t": 7394.473124999995,
      "d": 52.75968749999993,
      "v": 110
    },
    {
      "midi": 58,
      "hit": false,
      "t": 7394.473124999995,
      "d": 60.876562499999636,
      "v": 95
    },
    {
      "midi": 34,
      "hit": false,
      "t": 7577.102812499995,
      "d": 68.99343750000025,
      "v": 127
    },
    {
      "midi": 46,
      "hit": false,
      "t": 7585.2196874999945,
      "d": 44.64281250000022,
      "v": 95
    },
    {
      "midi": 58,
      "hit": false,
      "t": 7585.2196874999945,
      "d": 60.876562500000546,
      "v": 104
    },
    {
      "midi": 49,
      "hit": false,
      "t": 7775.966249999995,
      "d": 101.46093749999909,
      "v": 104
    },
    {
      "midi": 37,
      "hit": false,
      "t": 7775.966249999995,
      "d": 113.63624999999865,
      "v": 127
    },
    {
      "midi": 61,
      "hit": false,
      "t": 7780.024687499995,
      "d": 105.51937499999894,
      "v": 110
    },
    {
      "midi": 49,
      "hit": false,
      "t": 7966.712812499994,
      "d": 60.876562499999636,
      "v": 71
    },
    {
      "midi": 61,
      "hit": false,
      "t": 7970.771249999993,
      "d": 73.05187500000011,
      "v": 91
    },
    {
      "midi": 37,
      "hit": false,
      "t": 7974.829687499993,
      "d": 73.05187500000011,
      "v": 110
    },
    {
      "midi": 49,
      "hit": false,
      "t": 8165.576249999994,
      "d": 48.70124999999916,
      "v": 95
    },
    {
      "midi": 61,
      "hit": false,
      "t": 8169.634687499994,
      "d": 56.81812499999887,
      "v": 104
    },
    {
      "midi": 37,
      "hit": false,
      "t": 8173.693124999993,
      "d": 52.75968749999902,
      "v": 127
    },
    {
      "midi": 49,
      "hit": false,
      "t": 8352.264374999992,
      "d": 48.70125000000007,
      "v": 100
    },
    {
      "midi": 37,
      "hit": false,
      "t": 8356.322812499991,
      "d": 56.81812499999978,
      "v": 127
    },
    {
      "midi": 61,
      "hit": false,
      "t": 8356.322812499991,
      "d": 60.876562499999636,
      "v": 104
    },
    {
      "midi": 54,
      "hit": false,
      "t": 8551.127812499992,
      "d": 109.57781249999971,
      "v": 104
    },
    {
      "midi": 42,
      "hit": false,
      "t": 8551.127812499992,
      "d": 117.69468749999942,
      "v": 127
    },
    {
      "midi": 66,
      "hit": false,
      "t": 8555.186249999992,
      "d": 105.51937499999985,
      "v": 110
    },
    {
      "midi": 54,
      "hit": false,
      "t": 8741.87437499999,
      "d": 52.75968749999993,
      "v": 73
    },
    {
      "midi": 66,
      "hit": false,
      "t": 8741.87437499999,
      "d": 56.81812499999978,
      "v": 95
    },
    {
      "midi": 42,
      "hit": false,
      "t": 8749.99124999999,
      "d": 60.876562499999636,
      "v": 104
    },
    {
      "midi": 54,
      "hit": false,
      "t": 8944.79624999999,
      "d": 40.584375000000364,
      "v": 104
    },
    {
      "midi": 42,
      "hit": false,
      "t": 8944.79624999999,
      "d": 52.75968749999993,
      "v": 127
    },
    {
      "midi": 66,
      "hit": false,
      "t": 8948.85468749999,
      "d": 40.584375000000364,
      "v": 110
    },
    {
      "midi": 66,
      "hit": false,
      "t": 9139.60124999999,
      "d": 44.64281250000022,
      "v": 110
    },
    {
      "midi": 54,
      "hit": false,
      "t": 9143.65968749999,
      "d": 40.584375000000364,
      "v": 127
    },
    {
      "midi": 42,
      "hit": false,
      "t": 9143.65968749999,
      "d": 48.70125000000007,
      "v": 127
    },
    {
      "midi": 54,
      "hit": false,
      "t": 9330.347812499991,
      "d": 235.38937499999884,
      "v": 104
    },
    {
      "midi": 59,
      "hit": false,
      "t": 9334.40624999999,
      "d": 219.15562499999942,
      "v": 113
    },
    {
      "midi": 51,
      "hit": false,
      "t": 9338.46468749999,
      "d": 206.98031249999985,
      "v": 95
    },
    {
      "midi": 47,
      "hit": false,
      "t": 9338.46468749999,
      "d": 223.21406249999927,
      "v": 122
    },
    {
      "midi": 35,
      "hit": false,
      "t": 9342.52312499999,
      "d": 255.68156249999993,
      "v": 127
    },
    {
      "midi": 60,
      "hit": false,
      "t": 14691.54374999999,
      "d": 20.292187499999272,
      "v": 94
    },
    {
      "midi": 62,
      "hit": false,
      "t": 14703.71906249999,
      "d": 20.292187499999272,
      "v": 88
    },
    {
      "midi": 64,
      "hit": false,
      "t": 14719.952812499989,
      "d": 20.292187499999272,
      "v": 83
    },
    {
      "midi": 65,
      "hit": false,
      "t": 14732.128124999988,
      "d": 20.292187499999272,
      "v": 91
    },
    {
      "midi": 67,
      "hit": false,
      "t": 14740.244999999988,
      "d": 20.292187499999272,
      "v": 104
    },
    {
      "midi": 69,
      "hit": false,
      "t": 14752.420312499988,
      "d": 20.292187499999272,
      "v": 91
    },
    {
      "midi": 71,
      "hit": false,
      "t": 14764.595624999987,
      "d": 20.292187499999272,
      "v": 108
    },
    {
      "midi": 72,
      "hit": false,
      "t": 14776.770937499987,
      "d": 16.233749999999418,
      "v": 97
    },
    {
      "midi": 74,
      "hit": false,
      "t": 14784.887812499986,
      "d": 20.292187499999272,
      "v": 108
    },
    {
      "midi": 76,
      "hit": false,
      "t": 14797.063124999986,
      "d": 16.233749999999418,
      "v": 113
    },
    {
      "midi": 77,
      "hit": false,
      "t": 14805.179999999986,
      "d": 16.233749999999418,
      "v": 113
    },
    {
      "midi": 79,
      "hit": false,
      "t": 14817.355312499985,
      "d": 12.175312499999563,
      "v": 122
    },
    {
      "midi": 81,
      "hit": false,
      "t": 14825.472187499985,
      "d": 16.233749999999418,
      "v": 113
    },
    {
      "midi": 83,
      "hit": false,
      "t": 14837.647499999985,
      "d": 16.233749999999418,
      "v": 127
    },
    {
      "midi": 84,
      "hit": false,
      "t": 14845.764374999984,
      "d": 16.233749999999418,
      "v": 127
    },
    {
      "midi": 86,
      "hit": false,
      "t": 14857.939687499984,
      "d": 16.233749999999418,
      "v": 127
    },
    {
      "midi": 88,
      "hit": false,
      "t": 14866.056562499984,
      "d": 16.233749999999418,
      "v": 122
    },
    {
      "midi": 89,
      "hit": false,
      "t": 14874.173437499983,
      "d": 20.292187499999272,
      "v": 127
    },
    {
      "midi": 91,
      "hit": false,
      "t": 14886.348749999983,
      "d": 24.350624999999127,
      "v": 127
    },
    {
      "midi": 93,
      "hit": false,
      "t": 14902.582499999982,
      "d": 24.350624999999127,
      "v": 122
    },
    {
      "midi": 95,
      "hit": false,
      "t": 14918.816249999982,
      "d": 24.350624999999127,
      "v": 124
    },
    {
      "midi": 96,
      "hit": false,
      "t": 14935.049999999981,
      "d": 81.16874999999891,
      "v": 113
    },
    {
      "midi": 95,
      "hit": false,
      "t": 15048.68624999998,
      "d": 24.350624999999127,
      "v": 117
    },
    {
      "midi": 93,
      "hit": false,
      "t": 15056.80312499998,
      "d": 44.6428124999984,
      "v": 104
    },
    {
      "midi": 91,
      "hit": false,
      "t": 15089.27062499998,
      "d": 28.40906249999898,
      "v": 108
    },
    {
      "midi": 89,
      "hit": false,
      "t": 15109.562812499978,
      "d": 32.467499999998836,
      "v": 117
    },
    {
      "midi": 88,
      "hit": false,
      "t": 15129.854999999978,
      "d": 32.467499999998836,
      "v": 127
    },
    {
      "midi": 86,
      "hit": false,
      "t": 15150.147187499977,
      "d": 32.467499999998836,
      "v": 113
    },
    {
      "midi": 84,
      "hit": false,
      "t": 15170.439374999976,
      "d": 28.40906249999898,
      "v": 117
    },
    {
      "midi": 83,
      "hit": false,
      "t": 15190.731562499976,
      "d": 28.40906249999898,
      "v": 122
    },
    {
      "midi": 81,
      "hit": false,
      "t": 15206.965312499975,
      "d": 32.467499999998836,
      "v": 117
    },
    {
      "midi": 79,
      "hit": false,
      "t": 15231.315937499974,
      "d": 24.350624999999127,
      "v": 113
    },
    {
      "midi": 77,
      "hit": false,
      "t": 15247.549687499974,
      "d": 24.350624999999127,
      "v": 113
    },
    {
      "midi": 76,
      "hit": false,
      "t": 15263.783437499973,
      "d": 28.40906249999898,
      "v": 117
    },
    {
      "midi": 74,
      "hit": false,
      "t": 15280.017187499972,
      "d": 32.467499999998836,
      "v": 127
    },
    {
      "midi": 72,
      "hit": false,
      "t": 15300.309374999972,
      "d": 28.40906249999898,
      "v": 117
    },
    {
      "midi": 71,
      "hit": false,
      "t": 15320.60156249997,
      "d": 28.40906249999898,
      "v": 127
    },
    {
      "midi": 69,
      "hit": false,
      "t": 15340.89374999997,
      "d": 28.40906249999898,
      "v": 122
    },
    {
      "midi": 67,
      "hit": false,
      "t": 15361.18593749997,
      "d": 28.40906249999898,
      "v": 127
    },
    {
      "midi": 65,
      "hit": false,
      "t": 15381.478124999969,
      "d": 32.467499999998836,
      "v": 117
    },
    {
      "midi": 64,
      "hit": false,
      "t": 15401.770312499968,
      "d": 32.467499999998836,
      "v": 122
    },
    {
      "midi": 62,
      "hit": false,
      "t": 15426.120937499967,
      "d": 36.52593749999869,
      "v": 122
    },
    {
      "midi": 60,
      "hit": false,
      "t": 15454.529999999966,
      "d": 32.467499999998836,
      "v": 117
    },
    {
      "midi": 59,
      "hit": false,
      "t": 15478.880624999965,
      "d": 36.52593749999869,
      "v": 117
    },
    {
      "midi": 57,
      "hit": false,
      "t": 15507.289687499964,
      "d": 28.40906249999898,
      "v": 122
    },
    {
      "midi": 54,
      "hit": false,
      "t": 15576.283125,
      "d": 2719.153124999999,
      "v": 100
    },
    {
      "midi": 59,
      "hit": false,
      "t": 15576.283125,
      "d": 2743.503749999998,
      "v": 98
    },
    {
      "midi": 35,
      "hit": false,
      "t": 15576.283125,
      "d": 2844.964687499998,
      "v": 117
    },
    {
      "midi": 51,
      "hit": false,
      "t": 15576.283125,
      "d": 2857.1399999999976,
      "v": 90
    },
    {
      "midi": 47,
      "hit": false,
      "t": 15596.575312499963,
      "d": 446.42812500000036,
      "v": 68
    },
    {
      "midi": 54,
      "hit": false,
      "t": 15969.9515625,
      "d": 64.93499999999949,
      "v": 51
    },
    {
      "midi": 63,
      "hit": false,
      "t": 15974.01,
      "d": 81.16874999999891,
      "v": 40
    },
    {
      "midi": 59,
      "hit": false,
      "t": 15982.126875,
      "d": 56.81812499999978,
      "v": 73
    },
    {
      "midi": 54,
      "hit": false,
      "t": 16530.0159375,
      "d": 77.11031250000087,
      "v": 43
    },
    {
      "midi": 59,
      "hit": false,
      "t": 16542.19125,
      "d": 64.93500000000131,
      "v": 73
    },
    {
      "midi": 63,
      "hit": false,
      "t": 16542.19125,
      "d": 68.99343750000116,
      "v": 33
    },
    {
      "midi": 54,
      "hit": false,
      "t": 16745.113125,
      "d": 24.350624999999127,
      "v": 1
    },
    {
      "midi": 54,
      "hit": false,
      "t": 16927.7428125,
      "d": 73.05187500000102,
      "v": 55
    },
    {
      "midi": 59,
      "hit": false,
      "t": 16931.80125,
      "d": 68.99343750000116,
      "v": 77
    },
    {
      "midi": 63,
      "hit": false,
      "t": 16931.80125,
      "d": 117.69468749999942,
      "v": 43
    },
    {
      "midi": 63,
      "hit": false,
      "t": 17167.190625,
      "d": 77.11031250000087,
      "v": 1
    },
    {
      "midi": 63,
      "hit": false,
      "t": 17508.099375,
      "d": 129.86999999999898,
      "v": 47
    },
    {
      "midi": 54,
      "hit": false,
      "t": 17516.21625,
      "d": 77.11031250000087,
      "v": 51
    },
    {
      "midi": 59,
      "hit": false,
      "t": 17516.21625,
      "d": 109.57781249999971,
      "v": 82
    },
    {
      "midi": 63,
      "hit": false,
      "t": 18108.748125000002,
      "d": 73.05187500000102,
      "v": 25
    },
    {
      "midi": 54,
      "hit": false,
      "t": 18112.8065625,
      "d": 60.876562500001455,
      "v": 47
    },
    {
      "midi": 59,
      "hit": false,
      "t": 18116.865,
      "d": 60.876562500001455,
      "v": 68
    },
    {
      "midi": 54,
      "hit": false,
      "t": 18323.8453125,
      "d": 24.350624999999127,
      "v": 15
    },
    {
      "midi": 59,
      "hit": false,
      "t": 18331.9621875,
      "d": 40.584374999998545,
      "v": 48
    },
    {
      "midi": 63,
      "hit": false,
      "t": 18336.020625,
      "d": 36.52593749999869,
      "v": 9
    },
    {
      "midi": 63,
      "hit": false,
      "t": 18490.24125,
      "d": 117.69468749999942,
      "v": 47
    },
    {
      "midi": 59,
      "hit": false,
      "t": 18494.2996875,
      "d": 64.93500000000131,
      "v": 82
    },
    {
      "midi": 54,
      "hit": false,
      "t": 18498.358125,
      "d": 60.876562500001455,
      "v": 60
    },
    {
      "midi": 54,
      "hit": false,
      "t": 18693.163125,
      "d": 1956.166874999999,
      "v": 100
    },
    {
      "midi": 51,
      "hit": false,
      "t": 18693.163125,
      "d": 1960.2253124999988,
      "v": 94
    },
    {
      "midi": 59,
      "hit": false,
      "t": 18693.163125,
      "d": 1972.4006249999984,
      "v": 103
    },
    {
      "midi": 35,
      "hit": false,
      "t": 18693.163125,
      "d": 1980.517499999998,
      "v": 117
    },
    {
      "midi": 63,
      "hit": false,
      "t": 19070.5978125,
      "d": 129.87000000000262,
      "v": 55
    },
    {
      "midi": 54,
      "hit": false,
      "t": 19074.65625,
      "d": 68.99343750000116,
      "v": 60
    },
    {
      "midi": 59,
      "hit": false,
      "t": 19078.7146875,
      "d": 56.8181250000016,
      "v": 77
    },
    {
      "midi": 54,
      "hit": false,
      "t": 19671.246562500004,
      "d": 68.99343750000116,
      "v": 51
    },
    {
      "midi": 63,
      "hit": false,
      "t": 19675.305000000004,
      "d": 93.34406250000029,
      "v": 36
    },
    {
      "midi": 59,
      "hit": false,
      "t": 19683.421875000004,
      "d": 56.8181250000016,
      "v": 77
    },
    {
      "midi": 54,
      "hit": false,
      "t": 20040.564375000005,
      "d": 73.05187500000102,
      "v": 55
    },
    {
      "midi": 59,
      "hit": false,
      "t": 20048.681250000005,
      "d": 60.876562500001455,
      "v": 73
    },
    {
      "midi": 63,
      "hit": false,
      "t": 20048.681250000005,
      "d": 89.28562500000044,
      "v": 40
    },
    {
      "midi": 35,
      "hit": false,
      "t": 21814.101562499996,
      "d": 1051.1353125000023,
      "v": 117
    },
    {
      "midi": 54,
      "hit": false,
      "t": 21814.101562499996,
      "d": 1197.2390625000007,
      "v": 94
    },
    {
      "midi": 51,
      "hit": false,
      "t": 21814.101562499996,
      "d": 1209.4143750000003,
      "v": 85
    },
    {
      "midi": 59,
      "hit": false,
      "t": 21814.101562499996,
      "d": 1237.8234374999993,
      "v": 103
    },
    {
      "midi": 63,
      "hit": false,
      "t": 22215.886875000004,
      "d": 97.40249999999651,
      "v": 47
    },
    {
      "midi": 54,
      "hit": false,
      "t": 22224.003750000003,
      "d": 48.701249999998254,
      "v": 51
    },
    {
      "midi": 59,
      "hit": false,
      "t": 22224.003750000003,
      "d": 60.87656249999782,
      "v": 77
    },
    {
      "midi": 54,
      "hit": false,
      "t": 22792.185,
      "d": 64.93499999999767,
      "v": 40
    },
    {
      "midi": 63,
      "hit": false,
      "t": 22796.2434375,
      "d": 73.05187499999738,
      "v": 40
    },
    {
      "midi": 59,
      "hit": false,
      "t": 22804.3603125,
      "d": 44.6428124999984,
      "v": 68
    },
    {
      "midi": 54,
      "hit": false,
      "t": 23177.7365625,
      "d": 77.11031250000087,
      "v": 55
    },
    {
      "midi": 59,
      "hit": false,
      "t": 23181.795,
      "d": 68.99343750000116,
      "v": 82
    },
    {
      "midi": 63,
      "hit": false,
      "t": 23181.795,
      "d": 142.04531250000218,
      "v": 47
    },
    {
      "midi": 63,
      "hit": false,
      "t": 23741.859375,
      "d": 121.75312499999927,
      "v": 47
    },
    {
      "midi": 54,
      "hit": false,
      "t": 23745.9178125,
      "d": 73.05187500000102,
      "v": 51
    },
    {
      "midi": 59,
      "hit": false,
      "t": 23749.97625,
      "d": 77.11031250000087,
      "v": 73
    },
    {
      "midi": 63,
      "hit": false,
      "t": 24342.508125,
      "d": 89.28562500000044,
      "v": 43
    },
    {
      "midi": 54,
      "hit": false,
      "t": 24346.5665625,
      "d": 56.8181250000016,
      "v": 51
    },
    {
      "midi": 59,
      "hit": false,
      "t": 24346.5665625,
      "d": 60.876562500001455,
      "v": 73
    },
    {
      "midi": 63,
      "hit": false,
      "t": 24719.9428125,
      "d": 113.63624999999956,
      "v": 40
    },
    {
      "midi": 54,
      "hit": false,
      "t": 24724.00125,
      "d": 73.05187500000102,
      "v": 55
    },
    {
      "midi": 59,
      "hit": false,
      "t": 24724.00125,
      "d": 85.22718750000058,
      "v": 77
    },
    {
      "midi": 54,
      "hit": false,
      "t": 24926.923124999994,
      "d": 2706.9778124999975,
      "v": 90
    },
    {
      "midi": 58,
      "hit": false,
      "t": 24926.923124999994,
      "d": 2711.0362499999974,
      "v": 94
    },
    {
      "midi": 49,
      "hit": false,
      "t": 24926.923124999994,
      "d": 2767.854374999999,
      "v": 90
    },
    {
      "midi": 30,
      "hit": false,
      "t": 24926.923124999994,
      "d": 2780.0296874999985,
      "v": 100
    },
    {
      "midi": 61,
      "hit": false,
      "t": 25308.416250000002,
      "d": 77.11031250000087,
      "v": 64
    },
    {
      "midi": 54,
      "hit": false,
      "t": 25316.533125,
      "d": 73.05187500000102,
      "v": 55
    },
    {
      "midi": 66,
      "hit": false,
      "t": 25316.533125,
      "d": 81.16875000000073,
      "v": 43
    },
    {
      "midi": 61,
      "hit": false,
      "t": 25900.948125000003,
      "d": 56.81812499999796,
      "v": 64
    },
    {
      "midi": 54,
      "hit": false,
      "t": 25905.006562500002,
      "d": 64.93499999999767,
      "v": 51
    },
    {
      "midi": 66,
      "hit": false,
      "t": 25909.065000000002,
      "d": 73.05187499999738,
      "v": 43
    },
    {
      "midi": 54,
      "hit": false,
      "t": 26282.44125,
      "d": 73.05187500000102,
      "v": 51
    },
    {
      "midi": 61,
      "hit": false,
      "t": 26286.4996875,
      "d": 60.876562500001455,
      "v": 43
    },
    {
      "midi": 66,
      "hit": false,
      "t": 26286.4996875,
      "d": 101.4609375,
      "v": 43
    },
    {
      "midi": 61,
      "hit": false,
      "t": 26862.7978125,
      "d": 85.22718750000058,
      "v": 64
    },
    {
      "midi": 54,
      "hit": false,
      "t": 26870.9146875,
      "d": 68.99343750000116,
      "v": 55
    },
    {
      "midi": 66,
      "hit": false,
      "t": 26874.973125,
      "d": 77.11031250000087,
      "v": 43
    },
    {
      "midi": 54,
      "hit": false,
      "t": 27443.154375000002,
      "d": 73.05187499999738,
      "v": 43
    },
    {
      "midi": 66,
      "hit": false,
      "t": 27455.3296875,
      "d": 56.81812499999796,
      "v": 36
    },
    {
      "midi": 61,
      "hit": false,
      "t": 27459.388125,
      "d": 40.584374999998545,
      "v": 3
    },
    {
      "midi": 61,
      "hit": false,
      "t": 27646.07625,
      "d": 28.40906249999898,
      "v": 6
    },
    {
      "midi": 61,
      "hit": false,
      "t": 27812.472187499996,
      "d": 81.16875000000073,
      "v": 55
    },
    {
      "midi": 54,
      "hit": false,
      "t": 27816.530624999996,
      "d": 68.99343750000116,
      "v": 55
    },
    {
      "midi": 66,
      "hit": false,
      "t": 27824.647499999995,
      "d": 93.34406250000029,
      "v": 47
    },
    {
      "midi": 54,
      "hit": false,
      "t": 28043.80312499999,
      "d": 2455.3546874999993,
      "v": 100
    },
    {
      "midi": 49,
      "hit": false,
      "t": 28047.86156249999,
      "d": 2528.4065625000003,
      "v": 100
    },
    {
      "midi": 58,
      "hit": false,
      "t": 28047.86156249999,
      "d": 2536.5234375,
      "v": 100
    },
    {
      "midi": 30,
      "hit": false,
      "t": 28047.86156249999,
      "d": 2828.7309375000004,
      "v": 100
    },
    {
      "midi": 54,
      "hit": false,
      "t": 28425.296249999996,
      "d": 60.876562500001455,
      "v": 60
    },
    {
      "midi": 61,
      "hit": false,
      "t": 28429.354687499996,
      "d": 60.876562500001455,
      "v": 43
    },
    {
      "midi": 66,
      "hit": false,
      "t": 28429.354687499996,
      "d": 85.22718750000058,
      "v": 55
    },
    {
      "midi": 61,
      "hit": false,
      "t": 29005.652812499997,
      "d": 68.99343750000116,
      "v": 70
    },
    {
      "midi": 54,
      "hit": false,
      "t": 29009.711249999997,
      "d": 60.876562500001455,
      "v": 60
    },
    {
      "midi": 66,
      "hit": false,
      "t": 29013.769687499997,
      "d": 64.93500000000131,
      "v": 51
    },
    {
      "midi": 61,
      "hit": false,
      "t": 29200.457812499997,
      "d": 48.701249999998254,
      "v": 33
    },
    {
      "midi": 66,
      "hit": false,
      "t": 29216.691562499997,
      "d": 20.292187499999272,
      "v": 1
    },
    {
      "midi": 61,
      "hit": false,
      "t": 29395.262812499994,
      "d": 68.99343750000116,
      "v": 70
    },
    {
      "midi": 54,
      "hit": false,
      "t": 29399.321249999994,
      "d": 68.99343750000116,
      "v": 60
    },
    {
      "midi": 66,
      "hit": false,
      "t": 29403.379687499993,
      "d": 85.22718750000058,
      "v": 51
    },
    {
      "midi": 61,
      "hit": false,
      "t": 29987.794687499994,
      "d": 64.93500000000131,
      "v": 87
    },
    {
      "midi": 54,
      "hit": false,
      "t": 29991.853124999994,
      "d": 56.8181250000016,
      "v": 60
    },
    {
      "midi": 66,
      "hit": false,
      "t": 29995.911562499994,
      "d": 68.99343750000116,
      "v": 55
    },
    {
      "midi": 61,
      "hit": false,
      "t": 30584.384999999995,
      "d": 60.876562500001455,
      "v": 87
    },
    {
      "midi": 66,
      "hit": false,
      "t": 30588.443437499995,
      "d": 68.99343750000116,
      "v": 47
    },
    {
      "midi": 54,
      "hit": false,
      "t": 30592.501874999994,
      "d": 52.759687500001746,
      "v": 43
    },
    {
      "midi": 66,
      "hit": false,
      "t": 30779.189999999995,
      "d": 36.52593749999869,
      "v": 13
    },
    {
      "midi": 61,
      "hit": false,
      "t": 30953.702812499992,
      "d": 68.99343750000116,
      "v": 87
    },
    {
      "midi": 66,
      "hit": false,
      "t": 30957.761249999992,
      "d": 97.40250000000015,
      "v": 47
    },
    {
      "midi": 54,
      "hit": false,
      "t": 30961.819687499992,
      "d": 64.93500000000131,
      "v": 55
    },
    {
      "midi": 51,
      "hit": false,
      "t": 31160.683124999992,
      "d": 2804.3803125000013,
      "v": 90
    },
    {
      "midi": 54,
      "hit": false,
      "t": 31160.683124999992,
      "d": 2804.3803125000013,
      "v": 94
    },
    {
      "midi": 59,
      "hit": false,
      "t": 31160.683124999992,
      "d": 2816.5556250000045,
      "v": 103
    },
    {
      "midi": 35,
      "hit": false,
      "t": 31160.683124999992,
      "d": 2897.7243750000016,
      "v": 117
    },
    {
      "midi": 63,
      "hit": false,
      "t": 31542.176249999993,
      "d": 105.51937499999622,
      "v": 60
    },
    {
      "midi": 54,
      "hit": false,
      "t": 31550.293124999993,
      "d": 56.81812499999796,
      "v": 47
    },
    {
      "midi": 59,
      "hit": false,
      "t": 31558.409999999993,
      "d": 48.701249999998254,
      "v": 77
    },
    {
      "midi": 63,
      "hit": false,
      "t": 32138.76656249999,
      "d": 73.05187500000102,
      "v": 33
    },
    {
      "midi": 54,
      "hit": false,
      "t": 32142.82499999999,
      "d": 56.8181250000016,
      "v": 47
    },
    {
      "midi": 59,
      "hit": false,
      "t": 32146.88343749999,
      "d": 60.876562500001455,
      "v": 77
    },
    {
      "midi": 63,
      "hit": false,
      "t": 32512.14281249999,
      "d": 121.75312499999927,
      "v": 43
    },
    {
      "midi": 54,
      "hit": false,
      "t": 32516.20124999999,
      "d": 73.05187500000102,
      "v": 55
    },
    {
      "midi": 59,
      "hit": false,
      "t": 32520.25968749999,
      "d": 56.8181250000016,
      "v": 73
    },
    {
      "midi": 63,
      "hit": false,
      "t": 33096.55781249999,
      "d": 97.40250000000378,
      "v": 55
    },
    {
      "midi": 54,
      "hit": false,
      "t": 33100.61624999999,
      "d": 64.93499999999767,
      "v": 36
    },
    {
      "midi": 59,
      "hit": false,
      "t": 33108.73312499999,
      "d": 60.876562500001455,
      "v": 77
    },
    {
      "midi": 54,
      "hit": false,
      "t": 33693.14812499999,
      "d": 56.81812500000524,
      "v": 55
    },
    {
      "midi": 59,
      "hit": false,
      "t": 33693.14812499999,
      "d": 64.93500000000495,
      "v": 77
    },
    {
      "midi": 63,
      "hit": false,
      "t": 33697.206562499996,
      "d": 68.99343750000116,
      "v": 55
    },
    {
      "midi": 54,
      "hit": false,
      "t": 34078.6996875,
      "d": 68.99343750000116,
      "v": 55
    },
    {
      "midi": 63,
      "hit": false,
      "t": 34078.6996875,
      "d": 105.51937500000349,
      "v": 47
    },
    {
      "midi": 59,
      "hit": false,
      "t": 34082.758125,
      "d": 64.93499999999767,
      "v": 77
    },
    {
      "midi": 59,
      "hit": false,
      "t": 34281.6215625,
      "d": 2410.711875000008,
      "v": 103
    },
    {
      "midi": 54,
      "hit": false,
      "t": 34281.6215625,
      "d": 2431.004062500011,
      "v": 94
    },
    {
      "midi": 51,
      "hit": false,
      "t": 34281.6215625,
      "d": 2459.4131250000137,
      "v": 90
    },
    {
      "midi": 35,
      "hit": false,
      "t": 34281.6215625,
      "d": 3153.4059375000215,
      "v": 112
    },
    {
      "midi": 63,
      "hit": false,
      "t": 34671.2315625,
      "d": 101.46093750001455,
      "v": 55
    },
    {
      "midi": 54,
      "hit": false,
      "t": 34675.29,
      "d": 56.81812500000524,
      "v": 43
    },
    {
      "midi": 59,
      "hit": false,
      "t": 34679.348437500004,
      "d": 73.05187500000466,
      "v": 77
    },
    {
      "midi": 59,
      "hit": false,
      "t": 35117.65968750001,
      "d": 28.40906250000262,
      "v": 21
    },
    {
      "midi": 59,
      "hit": false,
      "t": 35263.76343750001,
      "d": 68.99343750000844,
      "v": 77
    },
    {
      "midi": 54,
      "hit": false,
      "t": 35267.821875000016,
      "d": 52.759687500001746,
      "v": 55
    },
    {
      "midi": 63,
      "hit": false,
      "t": 35267.821875000016,
      "d": 77.11031250000815,
      "v": 43
    },
    {
      "midi": 59,
      "hit": false,
      "t": 35466.68531250003,
      "d": 60.876562500001455,
      "v": 51
    },
    {
      "midi": 63,
      "hit": false,
      "t": 35637.13968750003,
      "d": 97.40250000001106,
      "v": 43
    },
    {
      "midi": 59,
      "hit": false,
      "t": 35641.19812500003,
      "d": 60.876562500001455,
      "v": 68
    },
    {
      "midi": 54,
      "hit": false,
      "t": 35641.19812500003,
      "d": 64.93500000000495,
      "v": 51
    },
    {
      "midi": 63,
      "hit": false,
      "t": 36213.43781250004,
      "d": 93.34406250000757,
      "v": 47
    },
    {
      "midi": 54,
      "hit": false,
      "t": 36217.49625000004,
      "d": 52.759687500001746,
      "v": 60
    },
    {
      "midi": 59,
      "hit": false,
      "t": 36221.554687500044,
      "d": 56.81812499999796,
      "v": 82
    },
    {
      "midi": 63,
      "hit": false,
      "t": 36814.086562500044,
      "d": 85.22718750000786,
      "v": 51
    },
    {
      "midi": 59,
      "hit": false,
      "t": 36818.14500000005,
      "d": 56.81812500000524,
      "v": 77
    },
    {
      "midi": 54,
      "hit": false,
      "t": 36822.20343750005,
      "d": 44.64281250000204,
      "v": 55
    },
    {
      "midi": 59,
      "hit": false,
      "t": 37199.63812500005,
      "d": 60.876562500001455,
      "v": 73
    },
    {
      "midi": 54,
      "hit": false,
      "t": 37199.63812500005,
      "d": 68.99343750000116,
      "v": 55
    },
    {
      "midi": 63,
      "hit": false,
      "t": 37203.69656250005,
      "d": 113.63624999999593,
      "v": 47
    },
    {
      "midi": 49,
      "hit": false,
      "t": 37394.44312500001,
      "d": 2775.9712500000096,
      "v": 90
    },
    {
      "midi": 54,
      "hit": false,
      "t": 37398.501562500016,
      "d": 2633.925937500004,
      "v": 90
    },
    {
      "midi": 58,
      "hit": false,
      "t": 37398.501562500016,
      "d": 2711.0362500000047,
      "v": 94
    },
    {
      "midi": 30,
      "hit": false,
      "t": 37398.501562500016,
      "d": 2824.672500000008,
      "v": 94
    },
    {
      "midi": 61,
      "hit": false,
      "t": 37792.17000000005,
      "d": 56.81812499999796,
      "v": 70
    },
    {
      "midi": 54,
      "hit": false,
      "t": 37792.17000000005,
      "d": 64.93500000000495,
      "v": 51
    },
    {
      "midi": 66,
      "hit": false,
      "t": 37800.28687500005,
      "d": 52.759687500001746,
      "v": 47
    },
    {
      "midi": 54,
      "hit": false,
      "t": 38364.409687500054,
      "d": 60.87656250000873,
      "v": 51
    },
    {
      "midi": 61,
      "hit": false,
      "t": 38368.46812500006,
      "d": 52.759687500001746,
      "v": 70
    },
    {
      "midi": 66,
      "hit": false,
      "t": 38368.46812500006,
      "d": 68.99343750000844,
      "v": 43
    },
    {
      "midi": 61,
      "hit": false,
      "t": 38737.78593750006,
      "d": 68.99343750000844,
      "v": 60
    },
    {
      "midi": 54,
      "hit": false,
      "t": 38741.844375000066,
      "d": 60.876562500001455,
      "v": 55
    },
    {
      "midi": 66,
      "hit": false,
      "t": 38741.844375000066,
      "d": 81.16875000000437,
      "v": 36
    },
    {
      "midi": 61,
      "hit": false,
      "t": 39330.31781250007,
      "d": 68.99343750000116,
      "v": 70
    },
    {
      "midi": 54,
      "hit": false,
      "t": 39334.376250000074,
      "d": 68.99343750000116,
      "v": 55
    },
    {
      "midi": 66,
      "hit": false,
      "t": 39334.376250000074,
      "d": 68.99343750000116,
      "v": 40
    },
    {
      "midi": 61,
      "hit": false,
      "t": 39898.49906250007,
      "d": 56.81812500000524,
      "v": 60
    },
    {
      "midi": 54,
      "hit": false,
      "t": 39902.557500000075,
      "d": 60.876562500001455,
      "v": 47
    },
    {
      "midi": 66,
      "hit": false,
      "t": 39906.61593750008,
      "d": 56.81812499999796,
      "v": 33
    },
    {
      "midi": 61,
      "hit": false,
      "t": 40296.22593750008,
      "d": 73.05187500000466,
      "v": 64
    },
    {
      "midi": 54,
      "hit": false,
      "t": 40304.34281250008,
      "d": 60.876562500001455,
      "v": 55
    },
    {
      "midi": 66,
      "hit": false,
      "t": 40304.34281250008,
      "d": 89.28562500000407,
      "v": 43
    },
    {
      "midi": 54,
      "hit": false,
      "t": 40511.323125000024,
      "d": 2293.0171875000015,
      "v": 94
    },
    {
      "midi": 58,
      "hit": false,
      "t": 40511.323125000024,
      "d": 2402.595000000001,
      "v": 94
    },
    {
      "midi": 49,
      "hit": false,
      "t": 40511.323125000024,
      "d": 2479.705312500002,
      "v": 90
    },
    {
      "midi": 30,
      "hit": false,
      "t": 40511.323125000024,
      "d": 2885.549062500002,
      "v": 100
    },
    {
      "midi": 61,
      "hit": false,
      "t": 40884.699375000084,
      "d": 68.99343750000844,
      "v": 70
    },
    {
      "midi": 66,
      "hit": false,
      "t": 40888.75781250009,
      "d": 77.11031250000815,
      "v": 47
    },
    {
      "midi": 54,
      "hit": false,
      "t": 40892.81625000009,
      "d": 64.93500000000495,
      "v": 55
    },
    {
      "midi": 61,
      "hit": false,
      "t": 41465.055937500096,
      "d": 64.93499999999767,
      "v": 64
    },
    {
      "midi": 54,
      "hit": false,
      "t": 41473.172812500095,
      "d": 60.876562500001455,
      "v": 43
    },
    {
      "midi": 66,
      "hit": false,
      "t": 41473.172812500095,
      "d": 64.93500000000495,
      "v": 43
    },
    {
      "midi": 54,
      "hit": false,
      "t": 41866.8412500001,
      "d": 73.05187500000466,
      "v": 51
    },
    {
      "midi": 61,
      "hit": false,
      "t": 41870.8996875001,
      "d": 60.876562500001455,
      "v": 55
    },
    {
      "midi": 66,
      "hit": false,
      "t": 41874.95812500011,
      "d": 93.34406250000029,
      "v": 40
    },
    {
      "midi": 61,
      "hit": false,
      "t": 42467.49000000011,
      "d": 64.93500000000495,
      "v": 70
    },
    {
      "midi": 54,
      "hit": false,
      "t": 42471.54843750011,
      "d": 60.876562500001455,
      "v": 55
    },
    {
      "midi": 66,
      "hit": false,
      "t": 42475.606875000114,
      "d": 64.93499999999767,
      "v": 43
    },
    {
      "midi": 54,
      "hit": false,
      "t": 43043.78812500011,
      "d": 68.99343750000116,
      "v": 43
    },
    {
      "midi": 61,
      "hit": false,
      "t": 43047.84656250011,
      "d": 48.701249999998254,
      "v": 60
    },
    {
      "midi": 66,
      "hit": false,
      "t": 43047.84656250011,
      "d": 85.22718750000058,
      "v": 36
    },
    {
      "midi": 61,
      "hit": false,
      "t": 43429.33968750011,
      "d": 85.22718750000786,
      "v": 60
    },
    {
      "midi": 54,
      "hit": false,
      "t": 43437.45656250011,
      "d": 73.05187500000466,
      "v": 51
    },
    {
      "midi": 66,
      "hit": false,
      "t": 43441.515000000116,
      "d": 44.64281250000204,
      "v": 21
    },
    {
      "midi": 54,
      "hit": false,
      "t": 43628.20312500003,
      "d": 1647.7256249999991,
      "v": 94
    },
    {
      "midi": 51,
      "hit": false,
      "t": 43628.20312500003,
      "d": 1651.7840625000026,
      "v": 90
    },
    {
      "midi": 35,
      "hit": false,
      "t": 43628.20312500003,
      "d": 1655.842500000006,
      "v": 117
    },
    {
      "midi": 59,
      "hit": false,
      "t": 43628.20312500003,
      "d": 1659.9009375000096,
      "v": 103
    },
    {
      "midi": 63,
      "hit": false,
      "t": 44009.69625000012,
      "d": 93.34406250000029,
      "v": 36
    },
    {
      "midi": 54,
      "hit": false,
      "t": 44017.81312500012,
      "d": 52.759687500001746,
      "v": 43
    },
    {
      "midi": 59,
      "hit": false,
      "t": 44021.87156250012,
      "d": 56.81812499999796,
      "v": 73
    },
    {
      "midi": 54,
      "hit": false,
      "t": 44598.169687500114,
      "d": 56.81812500000524,
      "v": 43
    },
    {
      "midi": 63,
      "hit": false,
      "t": 44602.22812500012,
      "d": 77.11031250000087,
      "v": 33
    },
    {
      "midi": 59,
      "hit": false,
      "t": 44606.28656250012,
      "d": 48.701249999998254,
      "v": 68
    },
    {
      "midi": 63,
      "hit": false,
      "t": 45178.52625000012,
      "d": 142.04531250000582,
      "v": 55
    },
    {
      "midi": 59,
      "hit": false,
      "t": 45186.64312500012,
      "d": 113.6362500000032,
      "v": 82
    },
    {
      "midi": 54,
      "hit": false,
      "t": 45186.64312500012,
      "d": 117.6946875000067,
      "v": 51
    },
    {
      "midi": 56,
      "hit": false,
      "t": 46745.08312500004,
      "d": 2711.0362499999974,
      "v": 117
    },
    {
      "midi": 60,
      "hit": false,
      "t": 46745.08312500004,
      "d": 2727.269999999997,
      "v": 107
    },
    {
      "midi": 51,
      "hit": false,
      "t": 46745.08312500004,
      "d": 2857.1399999999994,
      "v": 90
    },
    {
      "midi": 32,
      "hit": false,
      "t": 46745.08312500004,
      "d": 2885.549062500002,
      "v": 100
    },
    {
      "midi": 56,
      "hit": false,
      "t": 47118.45937500012,
      "d": 64.93500000000495,
      "v": 47
    },
    {
      "midi": 60,
      "hit": false,
      "t": 47130.634687500125,
      "d": 56.81812500000524,
      "v": 61
    },
    {
      "midi": 56,
      "hit": false,
      "t": 47719.10812500013,
      "d": 48.70125000000553,
      "v": 33
    },
    {
      "midi": 60,
      "hit": false,
      "t": 47723.16656250013,
      "d": 52.759687500001746,
      "v": 64
    },
    {
      "midi": 63,
      "hit": false,
      "t": 47735.34187500014,
      "d": 44.64281250000204,
      "v": 17
    },
    {
      "midi": 56,
      "hit": false,
      "t": 48092.48437500014,
      "d": 64.93500000000495,
      "v": 47
    },
    {
      "midi": 60,
      "hit": false,
      "t": 48096.54281250014,
      "d": 73.05187500000466,
      "v": 77
    },
    {
      "midi": 63,
      "hit": false,
      "t": 48100.601250000145,
      "d": 85.22718750000058,
      "v": 43
    },
    {
      "midi": 56,
      "hit": false,
      "t": 48311.640000000145,
      "d": 40.584374999998545,
      "v": 1
    },
    {
      "midi": 56,
      "hit": false,
      "t": 48689.07468750014,
      "d": 64.93500000000495,
      "v": 55
    },
    {
      "midi": 60,
      "hit": false,
      "t": 48697.19156250014,
      "d": 77.11031250000815,
      "v": 73
    },
    {
      "midi": 63,
      "hit": false,
      "t": 48705.30843750014,
      "d": 64.93500000000495,
      "v": 43
    },
    {
      "midi": 66,
      "hit": false,
      "t": 48713.42531250014,
      "d": 20.29218750000291,
      "v": 31
    },
    {
      "midi": 56,
      "hit": false,
      "t": 49281.60656250015,
      "d": 60.876562500001455,
      "v": 40
    },
    {
      "midi": 60,
      "hit": false,
      "t": 49293.78187500015,
      "d": 64.93499999999767,
      "v": 64
    },
    {
      "midi": 63,
      "hit": false,
      "t": 49293.78187500015,
      "d": 68.99343750000116,
      "v": 40
    },
    {
      "midi": 56,
      "hit": false,
      "t": 49675.275000000154,
      "d": 60.87656250000873,
      "v": 55
    },
    {
      "midi": 60,
      "hit": false,
      "t": 49679.33343750016,
      "d": 77.11031250000815,
      "v": 77
    },
    {
      "midi": 63,
      "hit": false,
      "t": 49683.39187500016,
      "d": 81.16875000000437,
      "v": 43
    },
    {
      "midi": 60,
      "hit": false,
      "t": 49861.963125000046,
      "d": 1919.6409375000076,
      "v": 103
    },
    {
      "midi": 56,
      "hit": false,
      "t": 49861.963125000046,
      "d": 1939.9331250000105,
      "v": 100
    },
    {
      "midi": 32,
      "hit": false,
      "t": 49866.02156250005,
      "d": 2077.9200000000055,
      "v": 100
    },
    {
      "midi": 51,
      "hit": false,
      "t": 49866.02156250005,
      "d": 2077.9200000000055,
      "v": 85
    },
    {
      "midi": 56,
      "hit": false,
      "t": 50243.45625000016,
      "d": 60.876562500001455,
      "v": 36
    },
    {
      "midi": 63,
      "hit": false,
      "t": 50251.57312500016,
      "d": 73.05187500000466,
      "v": 51
    },
    {
      "midi": 60,
      "hit": false,
      "t": 50255.631562500166,
      "d": 60.876562500001455,
      "v": 73
    },
    {
      "midi": 56,
      "hit": false,
      "t": 50823.81281250017,
      "d": 56.81812500000524,
      "v": 43
    },
    {
      "midi": 63,
      "hit": false,
      "t": 50827.87125000017,
      "d": 56.81812500000524,
      "v": 51
    },
    {
      "midi": 60,
      "hit": false,
      "t": 50831.929687500175,
      "d": 40.584374999998545,
      "v": 82
    },
    {
      "midi": 63,
      "hit": false,
      "t": 51026.734687500175,
      "d": 32.467499999998836,
      "v": 36
    },
    {
      "midi": 56,
      "hit": false,
      "t": 51213.422812500175,
      "d": 73.05187500001193,
      "v": 43
    },
    {
      "midi": 60,
      "hit": false,
      "t": 51217.48125000018,
      "d": 56.81812500000524,
      "v": 82
    },
    {
      "midi": 63,
      "hit": false,
      "t": 51221.53968750018,
      "d": 56.81812500000524,
      "v": 60
    },
    {
      "midi": 56,
      "hit": false,
      "t": 51785.66250000019,
      "d": 73.05187500000466,
      "v": 55
    },
    {
      "midi": 63,
      "hit": false,
      "t": 51789.72093750019,
      "d": 77.11031250000087,
      "v": 64
    },
    {
      "midi": 60,
      "hit": false,
      "t": 51793.779375000195,
      "d": 56.81812499999796,
      "v": 87
    },
    {
      "midi": 56,
      "hit": false,
      "t": 52163.09718750019,
      "d": 97.40250000001106,
      "v": 47
    },
    {
      "midi": 63,
      "hit": false,
      "t": 52167.155625000196,
      "d": 142.04531250000582,
      "v": 51
    },
    {
      "midi": 60,
      "hit": false,
      "t": 52171.2140625002,
      "d": 85.22718750000058,
      "v": 73
    },
    {
      "midi": 51,
      "hit": false,
      "t": 52199.62312500006,
      "d": 150.16218750000553,
      "v": 100
    },
    {
      "midi": 60,
      "hit": false,
      "t": 52199.62312500006,
      "d": 162.33750000000873,
      "v": 117
    },
    {
      "midi": 56,
      "hit": false,
      "t": 52199.62312500006,
      "d": 166.39593750001222,
      "v": 117
    },
    {
      "midi": 32,
      "hit": false,
      "t": 52203.68156250006,
      "d": 186.68812500000786,
      "v": 100
    },
    {
      "midi": 58,
      "hit": false,
      "t": 52593.29156250007,
      "d": 4.0584375000034925,
      "v": 85
    },
    {
      "midi": 55,
      "hit": false,
      "t": 52593.29156250007,
      "d": 142.04531250000582,
      "v": 117
    },
    {
      "midi": 50,
      "hit": false,
      "t": 52593.29156250007,
      "d": 146.1037500000093,
      "v": 117
    },
    {
      "midi": 59,
      "hit": false,
      "t": 52593.29156250007,
      "d": 150.1621875000128,
      "v": 112
    },
    {
      "midi": 31,
      "hit": false,
      "t": 52593.29156250007,
      "d": 178.57125000001543,
      "v": 117
    },
    {
      "midi": 55,
      "hit": false,
      "t": 52593.2915625002,
      "d": 121.75312500000291,
      "v": 68
    },
    {
      "midi": 62,
      "hit": false,
      "t": 52593.2915625002,
      "d": 146.1037500000093,
      "v": 57
    },
    {
      "midi": 59,
      "hit": false,
      "t": 52597.3500000002,
      "d": 129.87000000000262,
      "v": 64
    },
    {
      "midi": 54,
      "hit": false,
      "t": 52982.90156250008,
      "d": 2747.5621874999997,
      "v": 90
    },
    {
      "midi": 58,
      "hit": false,
      "t": 52982.90156250008,
      "d": 2784.088125000002,
      "v": 94
    },
    {
      "midi": 49,
      "hit": false,
      "t": 52982.90156250008,
      "d": 2788.1465625000055,
      "v": 94
    },
    {
      "midi": 30,
      "hit": false,
      "t": 52982.90156250008,
      "d": 3035.7112500000076,
      "v": 100
    },
    {
      "midi": 61,
      "hit": false,
      "t": 53388.74531250021,
      "d": 12.175312500010477,
      "v": 87
    },
    {
      "midi": 58,
      "hit": false,
      "t": 53392.80375000021,
      "d": 48.701250000012806,
      "v": 87
    },
    {
      "midi": 54,
      "hit": false,
      "t": 53396.86218750021,
      "d": 64.93500000001222,
      "v": 60
    },
    {
      "midi": 61,
      "hit": false,
      "t": 53413.09593750022,
      "d": 20.29218750000291,
      "v": 25
    },
    {
      "midi": 61,
      "hit": false,
      "t": 53952.86812500023,
      "d": 60.87656250000873,
      "v": 70
    },
    {
      "midi": 58,
      "hit": false,
      "t": 53956.92656250023,
      "d": 60.87656250000873,
      "v": 70
    },
    {
      "midi": 54,
      "hit": false,
      "t": 53960.98500000023,
      "d": 40.584374999998545,
      "v": 47
    },
    {
      "midi": 61,
      "hit": false,
      "t": 54334.36125000024,
      "d": 81.16875000000437,
      "v": 70
    },
    {
      "midi": 58,
      "hit": false,
      "t": 54338.419687500245,
      "d": 81.16875000000437,
      "v": 70
    },
    {
      "midi": 54,
      "hit": false,
      "t": 54342.47812500025,
      "d": 73.05187499999738,
      "v": 55
    },
    {
      "midi": 61,
      "hit": false,
      "t": 54894.42562500025,
      "d": 85.22718750000786,
      "v": 64
    },
    {
      "midi": 58,
      "hit": false,
      "t": 54898.484062500254,
      "d": 97.40250000000378,
      "v": 70
    },
    {
      "midi": 54,
      "hit": false,
      "t": 54902.54250000026,
      "d": 73.05187499999738,
      "v": 55
    },
    {
      "midi": 61,
      "hit": false,
      "t": 55511.30812500026,
      "d": 56.81812500000524,
      "v": 70
    },
    {
      "midi": 54,
      "hit": false,
      "t": 55515.36656250026,
      "d": 56.81812500000524,
      "v": 51
    },
    {
      "midi": 58,
      "hit": false,
      "t": 55515.36656250026,
      "d": 64.93500000000495,
      "v": 70
    },
    {
      "midi": 61,
      "hit": false,
      "t": 55909.035000000265,
      "d": 68.99343750000844,
      "v": 87
    },
    {
      "midi": 58,
      "hit": false,
      "t": 55913.09343750027,
      "d": 36.52593750000233,
      "v": 70
    },
    {
      "midi": 54,
      "hit": false,
      "t": 55917.15187500027,
      "d": 73.05187500000466,
      "v": 60
    },
    {
      "midi": 59,
      "hit": false,
      "t": 56095.72312500009,
      "d": 2451.2962499999994,
      "v": 112
    },
    {
      "midi": 54,
      "hit": false,
      "t": 56095.72312500009,
      "d": 2479.705312500002,
      "v": 100
    },
    {
      "midi": 51,
      "hit": false,
      "t": 56095.72312500009,
      "d": 2487.8221875000017,
      "v": 94
    },
    {
      "midi": 35,
      "hit": false,
      "t": 56095.72312500009,
      "d": 2905.841250000005,
      "v": 117
    },
    {
      "midi": 63,
      "hit": false,
      "t": 56469.099375000274,
      "d": 85.22718750000058,
      "v": 40
    },
    {
      "midi": 54,
      "hit": false,
      "t": 56473.15781250028,
      "d": 64.93499999999767,
      "v": 43
    },
    {
      "midi": 59,
      "hit": false,
      "t": 56481.27468750028,
      "d": 56.81812499999796,
      "v": 68
    },
    {
      "midi": 54,
      "hit": false,
      "t": 57057.57281250027,
      "d": 60.87656250000873,
      "v": 47
    },
    {
      "midi": 63,
      "hit": false,
      "t": 57061.631250000275,
      "d": 60.87656250000873,
      "v": 40
    },
    {
      "midi": 59,
      "hit": false,
      "t": 57065.68968750028,
      "d": 48.701249999998254,
      "v": 68
    },
    {
      "midi": 63,
      "hit": false,
      "t": 57459.35812500028,
      "d": 85.22718750001513,
      "v": 36
    },
    {
      "midi": 54,
      "hit": false,
      "t": 57463.416562500286,
      "d": 60.87656250000873,
      "v": 51
    },
    {
      "midi": 59,
      "hit": false,
      "t": 57467.47500000029,
      "d": 52.759687500001746,
      "v": 57
    },
    {
      "midi": 63,
      "hit": false,
      "t": 58035.6562500003,
      "d": 117.6946875000067,
      "v": 47
    },
    {
      "midi": 54,
      "hit": false,
      "t": 58039.7146875003,
      "d": 93.34406250000029,
      "v": 51
    },
    {
      "midi": 59,
      "hit": false,
      "t": 58043.773125000305,
      "d": 40.584374999998545,
      "v": 82
    },
    {
      "midi": 54,
      "hit": false,
      "t": 58628.188125000306,
      "d": 64.93499999999767,
      "v": 47
    },
    {
      "midi": 59,
      "hit": false,
      "t": 58636.305000000306,
      "d": 48.701249999998254,
      "v": 73
    },
    {
      "midi": 63,
      "hit": false,
      "t": 58636.305000000306,
      "d": 68.99343750000116,
      "v": 33
    },
    {
      "midi": 54,
      "hit": false,
      "t": 59021.85656250031,
      "d": 85.22718750000786,
      "v": 47
    },
    {
      "midi": 59,
      "hit": false,
      "t": 59025.915000000314,
      "d": 56.81812500000524,
      "v": 73
    },
    {
      "midi": 63,
      "hit": false,
      "t": 59029.97343750032,
      "d": 101.4609375,
      "v": 43
    },
    {
      "midi": 32,
      "hit": false,
      "t": 59212.603125000096,
      "d": 1128.245624999996,
      "v": 100
    },
    {
      "midi": 60,
      "hit": false,
      "t": 59212.603125000096,
      "d": 1379.8687499999942,
      "v": 98
    },
    {
      "midi": 56,
      "hit": false,
      "t": 59212.603125000096,
      "d": 1424.5115624999962,
      "v": 94
    },
    {
      "midi": 51,
      "hit": false,
      "t": 59212.603125000096,
      "d": 1444.8037499999991,
      "v": 90
    },
    {
      "midi": 56,
      "hit": false,
      "t": 59598.15468750032,
      "d": 133.9284375000061,
      "v": 51
    },
    {
      "midi": 63,
      "hit": false,
      "t": 59602.21312500032,
      "d": 146.10375000000204,
      "v": 51
    },
    {
      "midi": 60,
      "hit": false,
      "t": 59606.271562500326,
      "d": 32.467499999998836,
      "v": 87
    },
    {
      "midi": 56,
      "hit": false,
      "t": 60198.803437500326,
      "d": 68.99343750000844,
      "v": 40
    },
    {
      "midi": 63,
      "hit": false,
      "t": 60202.86187500033,
      "d": 68.99343750000844,
      "v": 47
    },
    {
      "midi": 60,
      "hit": false,
      "t": 60206.92031250033,
      "d": 36.52593750000233,
      "v": 73
    },
    {
      "midi": 56,
      "hit": false,
      "t": 60584.35500000034,
      "d": 85.22718750000786,
      "v": 36
    },
    {
      "midi": 63,
      "hit": false,
      "t": 60588.41343750034,
      "d": 97.40250000000378,
      "v": 47
    },
    {
      "midi": 60,
      "hit": false,
      "t": 60592.471875000345,
      "d": 36.52593750000233,
      "v": 68
    },
    {
      "midi": 56,
      "hit": false,
      "t": 61156.59468750034,
      "d": 113.63625000001048,
      "v": 51
    },
    {
      "midi": 63,
      "hit": false,
      "t": 61160.653125000346,
      "d": 146.1037500000093,
      "v": 55
    },
    {
      "midi": 60,
      "hit": false,
      "t": 61164.71156250035,
      "d": 36.52593750000233,
      "v": 87
    },
    {
      "midi": 63,
      "hit": false,
      "t": 61757.24343750036,
      "d": 81.16875000001164,
      "v": 43
    },
    {
      "midi": 60,
      "hit": false,
      "t": 61761.30187500036,
      "d": 36.52593750000233,
      "v": 82
    },
    {
      "midi": 56,
      "hit": false,
      "t": 61761.30187500036,
      "d": 56.81812500000524,
      "v": 40
    },
    {
      "midi": 56,
      "hit": false,
      "t": 62138.736562500366,
      "d": 89.28562500001135,
      "v": 43
    },
    {
      "midi": 63,
      "hit": false,
      "t": 62142.79500000037,
      "d": 109.57781250000698,
      "v": 47
    },
    {
      "midi": 60,
      "hit": false,
      "t": 62146.85343750037,
      "d": 60.876562500001455,
      "v": 82
    },
    {
      "midi": 61,
      "hit": false,
      "t": 62329.48312500009,
      "d": 2491.880624999998,
      "v": 94
    },
    {
      "midi": 53,
      "hit": false,
      "t": 62329.48312500009,
      "d": 2504.055937500001,
      "v": 98
    },
    {
      "midi": 56,
      "hit": false,
      "t": 62329.48312500009,
      "d": 2516.2312500000044,
      "v": 94
    },
    {
      "midi": 37,
      "hit": false,
      "t": 62329.48312500009,
      "d": 3137.1721875000076,
      "v": 100
    },
    {
      "midi": 61,
      "hit": false,
      "t": 62706.917812500375,
      "d": 81.16875000001164,
      "v": 70
    },
    {
      "midi": 56,
      "hit": false,
      "t": 62710.97625000038,
      "d": 77.11031250000815,
      "v": 55
    },
    {
      "midi": 65,
      "hit": false,
      "t": 62715.03468750038,
      "d": 68.99343750000116,
      "v": 61
    },
    {
      "midi": 61,
      "hit": false,
      "t": 63291.33281250038,
      "d": 60.876562500001455,
      "v": 51
    },
    {
      "midi": 56,
      "hit": false,
      "t": 63295.391250000386,
      "d": 64.93499999999767,
      "v": 40
    },
    {
      "midi": 65,
      "hit": false,
      "t": 63303.508125000386,
      "d": 60.876562500001455,
      "v": 39
    },
    {
      "midi": 61,
      "hit": false,
      "t": 63680.94281250039,
      "d": 81.16875000000437,
      "v": 60
    },
    {
      "midi": 56,
      "hit": false,
      "t": 63685.001250000394,
      "d": 85.22718750000058,
      "v": 51
    },
    {
      "midi": 65,
      "hit": false,
      "t": 63689.0596875004,
      "d": 89.2856249999968,
      "v": 57
    },
    {
      "midi": 56,
      "hit": false,
      "t": 64253.182500000396,
      "d": 162.33750000000146,
      "v": 60
    },
    {
      "midi": 61,
      "hit": false,
      "t": 64257.2409375004,
      "d": 68.99343750000116,
      "v": 70
    },
    {
      "midi": 65,
      "hit": false,
      "t": 64257.2409375004,
      "d": 117.69468749999942,
      "v": 73
    },
    {
      "midi": 56,
      "hit": false,
      "t": 64861.948125000396,
      "d": 89.28562500000407,
      "v": 51
    },
    {
      "midi": 61,
      "hit": false,
      "t": 64866.0065625004,
      "d": 64.93499999999767,
      "v": 60
    },
    {
      "midi": 65,
      "hit": false,
      "t": 64866.0065625004,
      "d": 89.28562500000407,
      "v": 51
    },
    {
      "midi": 56,
      "hit": false,
      "t": 65247.4996875004,
      "d": 85.22718750000786,
      "v": 51
    },
    {
      "midi": 65,
      "hit": false,
      "t": 65251.5581250004,
      "d": 113.6362500000032,
      "v": 61
    },
    {
      "midi": 61,
      "hit": false,
      "t": 65255.61656250041,
      "d": 52.759687500001746,
      "v": 64
    },
    {
      "midi": 58,
      "hit": false,
      "t": 65446.3631250001,
      "d": 1663.959375000013,
      "v": 117
    },
    {
      "midi": 61,
      "hit": false,
      "t": 65446.3631250001,
      "d": 1668.0178125000166,
      "v": 117
    },
    {
      "midi": 54,
      "hit": false,
      "t": 65446.3631250001,
      "d": 1672.07625000002,
      "v": 90
    },
    {
      "midi": 30,
      "hit": false,
      "t": 65446.3631250001,
      "d": 1676.1346875000236,
      "v": 100
    },
    {
      "midi": 58,
      "hit": false,
      "t": 65831.91468750041,
      "d": 97.40250000001106,
      "v": 60
    },
    {
      "midi": 66,
      "hit": false,
      "t": 65835.97312500041,
      "d": 89.28562500000407,
      "v": 51
    },
    {
      "midi": 61,
      "hit": false,
      "t": 65840.03156250042,
      "d": 36.52593750000233,
      "v": 87
    },
    {
      "midi": 58,
      "hit": false,
      "t": 66400.09593750042,
      "d": 113.63625000001048,
      "v": 47
    },
    {
      "midi": 66,
      "hit": false,
      "t": 66408.21281250042,
      "d": 109.57781250000698,
      "v": 31
    },
    {
      "midi": 61,
      "hit": false,
      "t": 66412.27125000043,
      "d": 16.233749999999418,
      "v": 64
    },
    {
      "midi": 58,
      "hit": false,
      "t": 66801.88125000043,
      "d": 129.86999999999534,
      "v": 55
    },
    {
      "midi": 66,
      "hit": false,
      "t": 66805.93968750043,
      "d": 113.63624999999593,
      "v": 47
    },
    {
      "midi": 61,
      "hit": false,
      "t": 66809.99812500043,
      "d": 48.701249999998254,
      "v": 70
    },
    {
      "midi": 54,
      "hit": false,
      "t": 68563.24312500012,
      "d": 3088.4709374999948,
      "v": 94
    },
    {
      "midi": 51,
      "hit": false,
      "t": 68563.24312500012,
      "d": 3108.7631249999977,
      "v": 90
    },
    {
      "midi": 59,
      "hit": false,
      "t": 68563.24312500012,
      "d": 3116.8800000000047,
      "v": 107
    },
    {
      "midi": 35,
      "hit": false,
      "t": 68563.24312500012,
      "d": 3129.0553125000006,
      "v": 117
    },
    {
      "midi": 63,
      "hit": false,
      "t": 68956.91156250042,
      "d": 52.759687500001746,
      "v": 70
    },
    {
      "midi": 59,
      "hit": false,
      "t": 68960.97000000042,
      "d": 56.81812500000524,
      "v": 73
    },
    {
      "midi": 66,
      "hit": false,
      "t": 68965.02843750043,
      "d": 52.759687500001746,
      "v": 55
    },
    {
      "midi": 66,
      "hit": false,
      "t": 69533.20968750044,
      "d": 73.05187500000466,
      "v": 60
    },
    {
      "midi": 63,
      "hit": false,
      "t": 69537.26812500044,
      "d": 52.759687500001746,
      "v": 70
    },
    {
      "midi": 59,
      "hit": false,
      "t": 69541.32656250044,
      "d": 60.87656249999418,
      "v": 57
    },
    {
      "midi": 66,
      "hit": false,
      "t": 69922.81968750044,
      "d": 81.16875000001164,
      "v": 64
    },
    {
      "midi": 63,
      "hit": false,
      "t": 69926.87812500044,
      "d": 60.87656250000873,
      "v": 70
    },
    {
      "midi": 59,
      "hit": false,
      "t": 69930.93656250044,
      "d": 68.99343750000116,
      "v": 57
    },
    {
      "midi": 63,
      "hit": false,
      "t": 70499.11781250045,
      "d": 60.87656250000873,
      "v": 87
    },
    {
      "midi": 66,
      "hit": false,
      "t": 70503.17625000046,
      "d": 64.93500000001222,
      "v": 70
    },
    {
      "midi": 59,
      "hit": false,
      "t": 70507.23468750046,
      "d": 64.93500000001222,
      "v": 68
    },
    {
      "midi": 63,
      "hit": false,
      "t": 71083.53281250047,
      "d": 60.87656250000873,
      "v": 70
    },
    {
      "midi": 66,
      "hit": false,
      "t": 71091.64968750048,
      "d": 44.64281249999476,
      "v": 60
    },
    {
      "midi": 59,
      "hit": false,
      "t": 71091.64968750048,
      "d": 56.81812500000524,
      "v": 57
    },
    {
      "midi": 63,
      "hit": false,
      "t": 71481.25968750048,
      "d": 60.87656250000873,
      "v": 70
    },
    {
      "midi": 66,
      "hit": false,
      "t": 71485.31812500049,
      "d": 64.93500000001222,
      "v": 64
    },
    {
      "midi": 59,
      "hit": false,
      "t": 71485.31812500049,
      "d": 68.99343750001572,
      "v": 64
    },
    {
      "midi": 56,
      "hit": false,
      "t": 71680.12312500013,
      "d": 2686.6856249999983,
      "v": 100
    },
    {
      "midi": 60,
      "hit": false,
      "t": 71680.12312500013,
      "d": 2711.0362500000047,
      "v": 112
    },
    {
      "midi": 51,
      "hit": false,
      "t": 71680.12312500013,
      "d": 2719.1531250000116,
      "v": 90
    },
    {
      "midi": 32,
      "hit": false,
      "t": 71680.12312500013,
      "d": 3149.3475000000035,
      "v": 117
    },
    {
      "midi": 63,
      "hit": false,
      "t": 72057.5578125005,
      "d": 44.64281250000931,
      "v": 60
    },
    {
      "midi": 60,
      "hit": false,
      "t": 72061.6162500005,
      "d": 32.467499999998836,
      "v": 87
    },
    {
      "midi": 56,
      "hit": false,
      "t": 72061.6162500005,
      "d": 44.64281250000931,
      "v": 47
    },
    {
      "midi": 56,
      "hit": false,
      "t": 72654.14812500052,
      "d": 52.7596875000163,
      "v": 47
    },
    {
      "midi": 63,
      "hit": false,
      "t": 72658.20656250052,
      "d": 48.701250000012806,
      "v": 60
    },
    {
      "midi": 60,
      "hit": false,
      "t": 72662.26500000052,
      "d": 24.350625000006403,
      "v": 87
    },
    {
      "midi": 63,
      "hit": false,
      "t": 72857.07000000053,
      "d": 20.29218750000291,
      "v": 7
    },
    {
      "midi": 56,
      "hit": false,
      "t": 73039.69968750053,
      "d": 73.05187500001921,
      "v": 47
    },
    {
      "midi": 63,
      "hit": false,
      "t": 73047.81656250053,
      "d": 56.81812500000524,
      "v": 64
    },
    {
      "midi": 60,
      "hit": false,
      "t": 73051.87500000054,
      "d": 28.409062499995343,
      "v": 87
    },
    {
      "midi": 63,
      "hit": false,
      "t": 73628.17312500055,
      "d": 97.40249999999651,
      "v": 64
    },
    {
      "midi": 56,
      "hit": false,
      "t": 73632.23156250056,
      "d": 64.93499999999767,
      "v": 55
    },
    {
      "midi": 60,
      "hit": false,
      "t": 73636.29000000056,
      "d": 32.467499999998836,
      "v": 87
    },
    {
      "midi": 56,
      "hit": false,
      "t": 74208.52968750054,
      "d": 64.93500000001222,
      "v": 51
    },
    {
      "midi": 63,
      "hit": false,
      "t": 74212.58812500055,
      "d": 56.81812500000524,
      "v": 60
    },
    {
      "midi": 60,
      "hit": false,
      "t": 74216.64656250055,
      "d": 36.52593750000233,
      "v": 87
    },
    {
      "midi": 56,
      "hit": false,
      "t": 74602.19812500056,
      "d": 85.22718750001513,
      "v": 47
    },
    {
      "midi": 63,
      "hit": false,
      "t": 74606.25656250057,
      "d": 93.34406250000757,
      "v": 55
    },
    {
      "midi": 60,
      "hit": false,
      "t": 74610.31500000057,
      "d": 36.52593750000233,
      "v": 87
    },
    {
      "midi": 61,
      "hit": false,
      "t": 74797.00312500013,
      "d": 2573.0493750000023,
      "v": 90
    },
    {
      "midi": 56,
      "hit": false,
      "t": 74797.00312500013,
      "d": 2593.3415625000052,
      "v": 100
    },
    {
      "midi": 53,
      "hit": false,
      "t": 74797.00312500013,
      "d": 2609.5753125000047,
      "v": 94
    },
    {
      "midi": 37,
      "hit": false,
      "t": 74801.06156250014,
      "d": 3161.5228124999994,
      "v": 94
    },
    {
      "midi": 61,
      "hit": false,
      "t": 75182.55468750057,
      "d": 60.87656250000873,
      "v": 70
    },
    {
      "midi": 56,
      "hit": false,
      "t": 75186.61312500057,
      "d": 68.99343750000116,
      "v": 55
    },
    {
      "midi": 65,
      "hit": false,
      "t": 75190.67156250057,
      "d": 68.99343750000116,
      "v": 57
    },
    {
      "midi": 61,
      "hit": false,
      "t": 75766.96968750058,
      "d": 56.81812500001979,
      "v": 64
    },
    {
      "midi": 56,
      "hit": false,
      "t": 75775.08656250058,
      "d": 44.64281250000931,
      "v": 43
    },
    {
      "midi": 65,
      "hit": false,
      "t": 75779.14500000059,
      "d": 56.81812500000524,
      "v": 39
    },
    {
      "midi": 61,
      "hit": false,
      "t": 76156.57968750059,
      "d": 60.87656250000873,
      "v": 64
    },
    {
      "midi": 56,
      "hit": false,
      "t": 76156.57968750059,
      "d": 64.93500000001222,
      "v": 47
    },
    {
      "midi": 65,
      "hit": false,
      "t": 76164.6965625006,
      "d": 68.99343750000116,
      "v": 51
    },
    {
      "midi": 61,
      "hit": false,
      "t": 76749.1115625006,
      "d": 64.93500000001222,
      "v": 87
    },
    {
      "midi": 56,
      "hit": false,
      "t": 76753.17000000061,
      "d": 64.93500000001222,
      "v": 55
    },
    {
      "midi": 65,
      "hit": false,
      "t": 76757.22843750061,
      "d": 77.11031250000815,
      "v": 61
    },
    {
      "midi": 61,
      "hit": false,
      "t": 77345.70187500062,
      "d": 56.81812500000524,
      "v": 60
    },
    {
      "midi": 56,
      "hit": false,
      "t": 77349.76031250063,
      "d": 52.759687500001746,
      "v": 47
    },
    {
      "midi": 65,
      "hit": false,
      "t": 77353.81875000063,
      "d": 64.93499999999767,
      "v": 43
    },
    {
      "midi": 56,
      "hit": false,
      "t": 77723.13656250063,
      "d": 77.1103124999936,
      "v": 51
    },
    {
      "midi": 61,
      "hit": false,
      "t": 77727.19500000063,
      "d": 60.87656249999418,
      "v": 64
    },
    {
      "midi": 65,
      "hit": false,
      "t": 77727.19500000063,
      "d": 77.1103124999936,
      "v": 57
    },
    {
      "midi": 58,
      "hit": false,
      "t": 77913.88312500014,
      "d": 2406.6534375000047,
      "v": 117
    },
    {
      "midi": 61,
      "hit": false,
      "t": 77913.88312500014,
      "d": 2459.4131250000064,
      "v": 100
    },
    {
      "midi": 54,
      "hit": false,
      "t": 77913.88312500014,
      "d": 2495.9390625000087,
      "v": 90
    },
    {
      "midi": 30,
      "hit": false,
      "t": 77913.88312500014,
      "d": 3104.7046875000087,
      "v": 94
    },
    {
      "midi": 58,
      "hit": false,
      "t": 78303.49312500062,
      "d": 81.16875000001164,
      "v": 51
    },
    {
      "midi": 61,
      "hit": false,
      "t": 78311.61000000063,
      "d": 40.58437500000582,
      "v": 70
    },
    {
      "midi": 66,
      "hit": false,
      "t": 78315.66843750063,
      "d": 77.11031250000815,
      "v": 43
    },
    {
      "midi": 58,
      "hit": false,
      "t": 78887.90812500064,
      "d": 68.99343750000116,
      "v": 43
    },
    {
      "midi": 61,
      "hit": false,
      "t": 78891.96656250065,
      "d": 64.93499999999767,
      "v": 51
    },
    {
      "midi": 66,
      "hit": false,
      "t": 78896.02500000065,
      "d": 64.93499999999767,
      "v": 28
    },
    {
      "midi": 58,
      "hit": false,
      "t": 79273.45968750065,
      "d": 77.11031250000815,
      "v": 51
    },
    {
      "midi": 61,
      "hit": false,
      "t": 79277.51812500066,
      "d": 64.93499999999767,
      "v": 64
    },
    {
      "midi": 66,
      "hit": false,
      "t": 79281.57656250066,
      "d": 109.57781250000698,
      "v": 43
    },
    {
      "midi": 58,
      "hit": false,
      "t": 79853.81625000067,
      "d": 125.8115625000064,
      "v": 55
    },
    {
      "midi": 61,
      "hit": false,
      "t": 79861.93312500068,
      "d": 52.759687500001746,
      "v": 70
    },
    {
      "midi": 66,
      "hit": false,
      "t": 79861.93312500068,
      "d": 113.63624999999593,
      "v": 47
    },
    {
      "midi": 58,
      "hit": false,
      "t": 80454.46500000068,
      "d": 60.87656250000873,
      "v": 51
    },
    {
      "midi": 61,
      "hit": false,
      "t": 80458.52343750068,
      "d": 60.87656250000873,
      "v": 60
    },
    {
      "midi": 66,
      "hit": false,
      "t": 80462.58187500069,
      "d": 68.99343750000116,
      "v": 33
    },
    {
      "midi": 61,
      "hit": false,
      "t": 80840.01656250069,
      "d": 81.16874999999709,
      "v": 64
    },
    {
      "midi": 58,
      "hit": false,
      "t": 80844.0750000007,
      "d": 64.93499999999767,
      "v": 47
    },
    {
      "midi": 66,
      "hit": false,
      "t": 80848.1334375007,
      "d": 105.51937499998894,
      "v": 36
    },
    {
      "midi": 59,
      "hit": false,
      "t": 81030.76312500014,
      "d": 3084.412500000006,
      "v": 117
    },
    {
      "midi": 63,
      "hit": false,
      "t": 81030.76312500014,
      "d": 3096.5878125000163,
      "v": 94
    },
    {
      "midi": 54,
      "hit": false,
      "t": 81034.82156250015,
      "d": 3088.4709375000093,
      "v": 94
    },
    {
      "midi": 35,
      "hit": false,
      "t": 81034.82156250015,
      "d": 3100.64625000002,
      "v": 117
    },
    {
      "midi": 63,
      "hit": false,
      "t": 81408.19781250069,
      "d": 73.05187500000466,
      "v": 70
    },
    {
      "midi": 66,
      "hit": false,
      "t": 81412.25625000069,
      "d": 77.11031250000815,
      "v": 60
    },
    {
      "midi": 59,
      "hit": false,
      "t": 81416.3146875007,
      "d": 77.11031250000815,
      "v": 57
    },
    {
      "midi": 63,
      "hit": false,
      "t": 82000.7296875007,
      "d": 73.05187500000466,
      "v": 51
    },
    {
      "midi": 59,
      "hit": false,
      "t": 82004.7881250007,
      "d": 60.87656249999418,
      "v": 48
    },
    {
      "midi": 66,
      "hit": false,
      "t": 82004.7881250007,
      "d": 68.99343750000116,
      "v": 47
    },
    {
      "midi": 66,
      "hit": false,
      "t": 82398.45656250071,
      "d": 73.05187500000466,
      "v": 55
    },
    {
      "midi": 63,
      "hit": false,
      "t": 82402.51500000071,
      "d": 64.93499999999767,
      "v": 60
    },
    {
      "midi": 59,
      "hit": false,
      "t": 82406.57343750072,
      "d": 68.99343750000116,
      "v": 57
    },
    {
      "midi": 63,
      "hit": false,
      "t": 82966.63781250072,
      "d": 85.22718750000058,
      "v": 70
    },
    {
      "midi": 59,
      "hit": false,
      "t": 82970.69625000072,
      "d": 85.22718750000058,
      "v": 64
    },
    {
      "midi": 66,
      "hit": false,
      "t": 82970.69625000072,
      "d": 85.22718750000058,
      "v": 60
    },
    {
      "midi": 66,
      "hit": false,
      "t": 83530.76062500072,
      "d": 64.93500000001222,
      "v": 43
    },
    {
      "midi": 63,
      "hit": false,
      "t": 83534.81906250073,
      "d": 52.759687500001746,
      "v": 51
    },
    {
      "midi": 59,
      "hit": false,
      "t": 83538.87750000073,
      "d": 52.759687500001746,
      "v": 54
    },
    {
      "midi": 63,
      "hit": false,
      "t": 83948.77968750073,
      "d": 68.99343750001572,
      "v": 70
    },
    {
      "midi": 66,
      "hit": false,
      "t": 83952.83812500074,
      "d": 60.87656250000873,
      "v": 60
    },
    {
      "midi": 59,
      "hit": false,
      "t": 83956.89656250074,
      "d": 64.93500000001222,
      "v": 57
    },
    {
      "midi": 35,
      "hit": false,
      "t": 84151.70156250017,
      "d": 1051.1353125000023,
      "v": 117
    },
    {
      "midi": 54,
      "hit": false,
      "t": 84151.70156250017,
      "d": 1197.239062499997,
      "v": 94
    },
    {
      "midi": 51,
      "hit": false,
      "t": 84151.70156250017,
      "d": 1209.414374999993,
      "v": 85
    },
    {
      "midi": 59,
      "hit": false,
      "t": 84151.70156250017,
      "d": 1237.8234374999884,
      "v": 103
    },
    {
      "midi": 66,
      "hit": false,
      "t": 84541.31156250075,
      "d": 77.1103125000227,
      "v": 64
    },
    {
      "midi": 63,
      "hit": false,
      "t": 84545.37000000075,
      "d": 60.87656250000873,
      "v": 70
    },
    {
      "midi": 59,
      "hit": false,
      "t": 84549.42843750076,
      "d": 64.93500000001222,
      "v": 64
    },
    {
      "midi": 63,
      "hit": false,
      "t": 85121.66812500077,
      "d": 60.87656250000873,
      "v": 60
    },
    {
      "midi": 66,
      "hit": false,
      "t": 85125.72656250077,
      "d": 56.81812500000524,
      "v": 51
    },
    {
      "midi": 59,
      "hit": false,
      "t": 85129.78500000077,
      "d": 60.87656250000873,
      "v": 51
    },
    {
      "midi": 66,
      "hit": false,
      "t": 85511.27812500078,
      "d": 73.05187500000466,
      "v": 60
    },
    {
      "midi": 63,
      "hit": false,
      "t": 85515.33656250079,
      "d": 68.99343750000116,
      "v": 64
    },
    {
      "midi": 59,
      "hit": false,
      "t": 85519.39500000079,
      "d": 64.93499999999767,
      "v": 57
    },
    {
      "midi": 63,
      "hit": false,
      "t": 86083.51781250078,
      "d": 73.05187500000466,
      "v": 64
    },
    {
      "midi": 66,
      "hit": false,
      "t": 86087.57625000078,
      "d": 68.99343750000116,
      "v": 60
    },
    {
      "midi": 59,
      "hit": false,
      "t": 86087.57625000078,
      "d": 73.05187500000466,
      "v": 64
    },
    {
      "midi": 66,
      "hit": false,
      "t": 86671.99125000079,
      "d": 68.99343750000116,
      "v": 51
    },
    {
      "midi": 63,
      "hit": false,
      "t": 86676.0496875008,
      "d": 60.87656249999418,
      "v": 55
    },
    {
      "midi": 59,
      "hit": false,
      "t": 86676.0496875008,
      "d": 68.99343750000116,
      "v": 54
    },
    {
      "midi": 81,
      "hit": false,
      "t": 87061.60124999996,
      "d": 202.921875,
      "v": 127
    },
    {
      "midi": 66,
      "hit": false,
      "t": 87061.6012500008,
      "d": 60.87656250000873,
      "v": 60
    },
    {
      "midi": 85,
      "hit": false,
      "t": 87065.65968749997,
      "d": 263.7984374999942,
      "v": 100
    },
    {
      "midi": 63,
      "hit": false,
      "t": 87065.6596875008,
      "d": 56.81812500000524,
      "v": 70
    },
    {
      "midi": 59,
      "hit": false,
      "t": 87065.6596875008,
      "d": 64.93500000001222,
      "v": 57
    },
    {
      "midi": 82,
      "hit": false,
      "t": 87260.46468749996,
      "d": 211.03875000000698,
      "v": 100
    },
    {
      "midi": 54,
      "hit": false,
      "t": 87264.52312500015,
      "d": 2706.977812500001,
      "v": 90
    },
    {
      "midi": 58,
      "hit": false,
      "t": 87264.52312500015,
      "d": 2711.0362500000047,
      "v": 94
    },
    {
      "midi": 49,
      "hit": false,
      "t": 87264.52312500015,
      "d": 2767.85437500001,
      "v": 90
    },
    {
      "midi": 30,
      "hit": false,
      "t": 87264.52312500015,
      "d": 2780.029687500006,
      "v": 100
    },
    {
      "midi": 78,
      "hit": false,
      "t": 87463.38656249996,
      "d": 182.62968750001164,
      "v": 100
    },
    {
      "midi": 58,
      "hit": false,
      "t": 87629.7825000008,
      "d": 93.34406250000757,
      "v": 55
    },
    {
      "midi": 61,
      "hit": false,
      "t": 87637.89937500081,
      "d": 12.175312499995925,
      "v": 70
    },
    {
      "midi": 66,
      "hit": false,
      "t": 87637.89937500081,
      "d": 64.93499999999767,
      "v": 40
    },
    {
      "midi": 76,
      "hit": false,
      "t": 87641.95781249997,
      "d": 243.50625000000582,
      "v": 83
    },
    {
      "midi": 73,
      "hit": false,
      "t": 87852.99656249997,
      "d": 52.759687500001746,
      "v": 100
    },
    {
      "midi": 76,
      "hit": false,
      "t": 88055.91843749997,
      "d": 101.4609375,
      "v": 104
    },
    {
      "midi": 75,
      "hit": false,
      "t": 88120.85343749997,
      "d": 166.39593749999767,
      "v": 83
    },
    {
      "midi": 58,
      "hit": false,
      "t": 88242.6065625008,
      "d": 60.87656250000873,
      "v": 51
    },
    {
      "midi": 61,
      "hit": false,
      "t": 88246.66500000081,
      "d": 36.52593750000233,
      "v": 87
    },
    {
      "midi": 66,
      "hit": false,
      "t": 88250.72343750081,
      "d": 48.701249999998254,
      "v": 28
    },
    {
      "midi": 73,
      "hit": false,
      "t": 88258.84031249997,
      "d": 73.0518749999901,
      "v": 104
    },
    {
      "midi": 78,
      "hit": false,
      "t": 88433.35312499997,
      "d": 133.92843749999884,
      "v": 95
    },
    {
      "midi": 73,
      "hit": false,
      "t": 88433.35312499997,
      "d": 137.98687500000233,
      "v": 110
    },
    {
      "midi": 73,
      "hit": false,
      "t": 88628.15812499997,
      "d": 129.86999999999534,
      "v": 76
    },
    {
      "midi": 58,
      "hit": false,
      "t": 88628.15812500082,
      "d": 77.11031250000815,
      "v": 51
    },
    {
      "midi": 61,
      "hit": false,
      "t": 88632.21656250082,
      "d": 60.87656250000873,
      "v": 64
    },
    {
      "midi": 66,
      "hit": false,
      "t": 88636.27500000082,
      "d": 89.28562500000407,
      "v": 36
    },
    {
      "midi": 76,
      "hit": false,
      "t": 88835.13843749996,
      "d": 113.63625000001048,
      "v": 122
    },
    {
      "midi": 75,
      "hit": false,
      "t": 88908.19031249997,
      "d": 137.98687500000233,
      "v": 68
    },
    {
      "midi": 73,
      "hit": false,
      "t": 89017.76812499997,
      "d": 93.34406249999302,
      "v": 95
    },
    {
      "midi": 58,
      "hit": false,
      "t": 89188.22250000083,
      "d": 89.28562500000407,
      "v": 60
    },
    {
      "midi": 66,
      "hit": false,
      "t": 89188.22250000083,
      "d": 113.63625000001048,
      "v": 51
    },
    {
      "midi": 61,
      "hit": false,
      "t": 89192.28093750084,
      "d": 40.58437500000582,
      "v": 70
    },
    {
      "midi": 78,
      "hit": false,
      "t": 89212.57312499997,
      "d": 93.34406250000757,
      "v": 100
    },
    {
      "midi": 73,
      "hit": false,
      "t": 89216.63156249997,
      "d": 64.93499999999767,
      "v": 127
    },
    {
      "midi": 70,
      "hit": false,
      "t": 89395.20281249998,
      "d": 616.882500000007,
      "v": 110
    },
    {
      "midi": 73,
      "hit": false,
      "t": 89399.26124999998,
      "d": 616.882500000007,
      "v": 127
    },
    {
      "midi": 66,
      "hit": false,
      "t": 89801.04656250084,
      "d": 85.22718750001513,
      "v": 43
    },
    {
      "midi": 58,
      "hit": false,
      "t": 89805.10500000084,
      "d": 73.05187500000466,
      "v": 55
    },
    {
      "midi": 61,
      "hit": false,
      "t": 89809.16343750084,
      "d": 36.52593750000233,
      "v": 70
    },
    {
      "midi": 58,
      "hit": false,
      "t": 90190.65656250085,
      "d": 85.22718750000058,
      "v": 51
    },
    {
      "midi": 66,
      "hit": false,
      "t": 90194.71500000086,
      "d": 81.16874999999709,
      "v": 33
    },
    {
      "midi": 61,
      "hit": false,
      "t": 90198.77343750086,
      "d": 48.701249999998254,
      "v": 70
    },
    {
      "midi": 54,
      "hit": false,
      "t": 90381.40312500016,
      "d": 2455.354687500003,
      "v": 100
    },
    {
      "midi": 49,
      "hit": false,
      "t": 90385.46156250016,
      "d": 2528.406562499993,
      "v": 100
    },
    {
      "midi": 58,
      "hit": false,
      "t": 90385.46156250016,
      "d": 2536.5234375,
      "v": 100
    },
    {
      "midi": 30,
      "hit": false,
      "t": 90385.46156250016,
      "d": 2828.730937500004,
      "v": 100
    },
    {
      "midi": 58,
      "hit": false,
      "t": 90742.60406250085,
      "d": 81.16875000001164,
      "v": 55
    },
    {
      "midi": 61,
      "hit": false,
      "t": 90746.66250000085,
      "d": 44.64281250000931,
      "v": 70
    },
    {
      "midi": 66,
      "hit": false,
      "t": 90750.72093750085,
      "d": 101.4609375,
      "v": 51
    },
    {
      "midi": 58,
      "hit": false,
      "t": 91367.60343750086,
      "d": 56.81812500000524,
      "v": 47
    },
    {
      "midi": 61,
      "hit": false,
      "t": 91371.66187500086,
      "d": 40.58437500000582,
      "v": 64
    },
    {
      "midi": 66,
      "hit": false,
      "t": 91371.66187500086,
      "d": 64.93499999999767,
      "v": 36
    },
    {
      "midi": 58,
      "hit": false,
      "t": 91753.15500000086,
      "d": 77.11031250000815,
      "v": 51
    },
    {
      "midi": 66,
      "hit": false,
      "t": 91757.21343750086,
      "d": 89.28562500000407,
      "v": 40
    },
    {
      "midi": 61,
      "hit": false,
      "t": 91761.27187500086,
      "d": 48.701249999998254,
      "v": 64
    },
    {
      "midi": 66,
      "hit": false,
      "t": 92313.21937500086,
      "d": 109.57781250002154,
      "v": 47
    },
    {
      "midi": 61,
      "hit": false,
      "t": 92317.27781250086,
      "d": 40.58437500000582,
      "v": 70
    },
    {
      "midi": 58,
      "hit": false,
      "t": 92317.27781250086,
      "d": 97.40250000001106,
      "v": 60
    },
    {
      "midi": 58,
      "hit": false,
      "t": 92909.80968750088,
      "d": 68.99343750001572,
      "v": 51
    },
    {
      "midi": 61,
      "hit": false,
      "t": 92913.86812500088,
      "d": 56.81812500000524,
      "v": 70
    },
    {
      "midi": 66,
      "hit": false,
      "t": 92917.92656250088,
      "d": 73.05187500000466,
      "v": 36
    },
    {
      "midi": 58,
      "hit": false,
      "t": 93299.4196875009,
      "d": 77.11031250000815,
      "v": 47
    },
    {
      "midi": 61,
      "hit": false,
      "t": 93303.4781250009,
      "d": 77.11031250000815,
      "v": 64
    },
    {
      "midi": 66,
      "hit": false,
      "t": 93307.5365625009,
      "d": 77.11031250000815,
      "v": 36
    },
    {
      "midi": 86,
      "hit": false,
      "t": 93498.28312499999,
      "d": 105.51937500000349,
      "v": 127
    },
    {
      "midi": 51,
      "hit": false,
      "t": 93498.28312500016,
      "d": 2804.3803124999977,
      "v": 90
    },
    {
      "midi": 54,
      "hit": false,
      "t": 93498.28312500016,
      "d": 2804.3803124999977,
      "v": 94
    },
    {
      "midi": 59,
      "hit": false,
      "t": 93498.28312500016,
      "d": 2816.5556249999936,
      "v": 103
    },
    {
      "midi": 35,
      "hit": false,
      "t": 93498.28312500016,
      "d": 2897.7243749999907,
      "v": 117
    },
    {
      "midi": 85,
      "hit": false,
      "t": 93607.8609375,
      "d": 93.34406249999302,
      "v": 100
    },
    {
      "midi": 83,
      "hit": false,
      "t": 93709.321875,
      "d": 56.81812500000524,
      "v": 94
    },
    {
      "midi": 63,
      "hit": false,
      "t": 93867.6009375009,
      "d": 73.05187500000466,
      "v": 70
    },
    {
      "midi": 66,
      "hit": false,
      "t": 93871.6593750009,
      "d": 68.99343750000116,
      "v": 60
    },
    {
      "midi": 59,
      "hit": false,
      "t": 93871.6593750009,
      "d": 73.05187500000466,
      "v": 61
    },
    {
      "midi": 86,
      "hit": false,
      "t": 93875.7178125,
      "d": 109.57781250000698,
      "v": 127
    },
    {
      "midi": 85,
      "hit": false,
      "t": 93981.23718750001,
      "d": 113.63625000001048,
      "v": 91
    },
    {
      "midi": 83,
      "hit": false,
      "t": 94090.81500000002,
      "d": 60.87656250000873,
      "v": 88
    },
    {
      "midi": 86,
      "hit": false,
      "t": 94269.38625000003,
      "d": 105.51937500000349,
      "v": 127
    },
    {
      "midi": 85,
      "hit": false,
      "t": 94374.90562500003,
      "d": 109.57781250000698,
      "v": 91
    },
    {
      "midi": 83,
      "hit": false,
      "t": 94476.36656250003,
      "d": 60.87656250000873,
      "v": 101
    },
    {
      "midi": 63,
      "hit": false,
      "t": 94476.36656250092,
      "d": 68.99343750000116,
      "v": 55
    },
    {
      "midi": 59,
      "hit": false,
      "t": 94484.48343750092,
      "d": 64.93499999999767,
      "v": 48
    },
    {
      "midi": 66,
      "hit": false,
      "t": 94484.48343750092,
      "d": 64.93499999999767,
      "v": 47
    },
    {
      "midi": 86,
      "hit": false,
      "t": 94654.93781250004,
      "d": 101.4609375,
      "v": 127
    },
    {
      "midi": 85,
      "hit": false,
      "t": 94760.45718750004,
      "d": 105.51937500000349,
      "v": 91
    },
    {
      "midi": 66,
      "hit": false,
      "t": 94874.09343750092,
      "d": 85.22718750001513,
      "v": 60
    },
    {
      "midi": 83,
      "hit": false,
      "t": 94878.15187500004,
      "d": 44.64281249999476,
      "v": 94
    },
    {
      "midi": 63,
      "hit": false,
      "t": 94878.15187500093,
      "d": 68.99343750000116,
      "v": 70
    },
    {
      "midi": 59,
      "hit": false,
      "t": 94882.21031250093,
      "d": 73.05187500000466,
      "v": 61
    },
    {
      "midi": 81,
      "hit": false,
      "t": 95060.78156250004,
      "d": 68.99343750000116,
      "v": 108
    },
    {
      "midi": 78,
      "hit": false,
      "t": 95064.84000000004,
      "d": 48.701249999998254,
      "v": 100
    },
    {
      "midi": 71,
      "hit": false,
      "t": 95068.89843750004,
      "d": 60.87656249999418,
      "v": 104
    },
    {
      "midi": 81,
      "hit": false,
      "t": 95239.35281250004,
      "d": 113.63625000001048,
      "v": 91
    },
    {
      "midi": 71,
      "hit": false,
      "t": 95243.41125000005,
      "d": 113.63625000001048,
      "v": 108
    },
    {
      "midi": 78,
      "hit": false,
      "t": 95247.46968750005,
      "d": 129.8700000000099,
      "v": 100
    },
    {
      "midi": 66,
      "hit": false,
      "t": 95430.09937500094,
      "d": 97.40250000001106,
      "v": 64
    },
    {
      "midi": 80,
      "hit": false,
      "t": 95434.15781250007,
      "d": 133.9284375000134,
      "v": 95
    },
    {
      "midi": 63,
      "hit": false,
      "t": 95434.15781250094,
      "d": 81.16874999999709,
      "v": 87
    },
    {
      "midi": 76,
      "hit": false,
      "t": 95438.21625000007,
      "d": 121.75312500000291,
      "v": 117
    },
    {
      "midi": 71,
      "hit": false,
      "t": 95438.21625000007,
      "d": 206.9803125000035,
      "v": 86
    },
    {
      "midi": 59,
      "hit": false,
      "t": 95438.21625000094,
      "d": 81.16874999999709,
      "v": 68
    },
    {
      "midi": 74,
      "hit": false,
      "t": 95633.02125000008,
      "d": 227.27249999999185,
      "v": 127
    },
    {
      "midi": 78,
      "hit": false,
      "t": 95633.02125000008,
      "d": 1392.04406249999,
      "v": 80
    },
    {
      "midi": 75,
      "hit": false,
      "t": 95827.82625000007,
      "d": 162.33749999999418,
      "v": 104
    },
    {
      "midi": 71,
      "hit": false,
      "t": 96014.51437500007,
      "d": 1018.6678125000035,
      "v": 108
    },
    {
      "midi": 66,
      "hit": false,
      "t": 96026.68968750094,
      "d": 68.99343750000116,
      "v": 55
    },
    {
      "midi": 63,
      "hit": false,
      "t": 96030.74812500094,
      "d": 64.93499999999767,
      "v": 64
    },
    {
      "midi": 59,
      "hit": false,
      "t": 96034.80656250095,
      "d": 68.99343750000116,
      "v": 51
    },
    {
      "midi": 66,
      "hit": false,
      "t": 96412.24125000095,
      "d": 97.40250000001106,
      "v": 60
    },
    {
      "midi": 63,
      "hit": false,
      "t": 96416.29968750096,
      "d": 68.99343750000116,
      "v": 64
    },
    {
      "midi": 59,
      "hit": false,
      "t": 96420.35812500096,
      "d": 73.05187500000466,
      "v": 51
    },
    {
      "midi": 59,
      "hit": false,
      "t": 96619.22156250016,
      "d": 2410.7118749999936,
      "v": 103
    },
    {
      "midi": 54,
      "hit": false,
      "t": 96619.22156250016,
      "d": 2431.0040624999965,
      "v": 94
    },
    {
      "midi": 51,
      "hit": false,
      "t": 96619.22156250016,
      "d": 2459.413124999992,
      "v": 90
    },
    {
      "midi": 35,
      "hit": false,
      "t": 96619.22156250016,
      "d": 3153.4059374999924,
      "v": 112
    },
    {
      "midi": 66,
      "hit": false,
      "t": 96984.48093750096,
      "d": 101.46093750001455,
      "v": 60
    },
    {
      "midi": 63,
      "hit": false,
      "t": 96988.53937500097,
      "d": 73.05187500000466,
      "v": 70
    },
    {
      "midi": 59,
      "hit": false,
      "t": 96992.59781250097,
      "d": 85.22718750000058,
      "v": 64
    },
    {
      "midi": 66,
      "hit": false,
      "t": 97585.12968750097,
      "d": 73.05187500000466,
      "v": 51
    },
    {
      "midi": 63,
      "hit": false,
      "t": 97589.18812500098,
      "d": 52.759687500001746,
      "v": 60
    },
    {
      "midi": 59,
      "hit": false,
      "t": 97589.18812500098,
      "d": 64.93499999999767,
      "v": 48
    },
    {
      "midi": 63,
      "hit": false,
      "t": 97970.68125000098,
      "d": 60.87656250000873,
      "v": 70
    },
    {
      "midi": 66,
      "hit": false,
      "t": 97974.73968750099,
      "d": 64.93500000001222,
      "v": 60
    },
    {
      "midi": 59,
      "hit": false,
      "t": 97978.79812500099,
      "d": 68.99343750001572,
      "v": 48
    },
    {
      "midi": 66,
      "hit": false,
      "t": 98534.804062501,
      "d": 101.46093750001455,
      "v": 64
    },
    {
      "midi": 63,
      "hit": false,
      "t": 98538.862500001,
      "d": 81.16875000001164,
      "v": 70
    },
    {
      "midi": 59,
      "hit": false,
      "t": 98542.92093750101,
      "d": 73.05187500000466,
      "v": 64
    },
    {
      "midi": 63,
      "hit": false,
      "t": 99135.45281250101,
      "d": 68.99343750001572,
      "v": 64
    },
    {
      "midi": 66,
      "hit": false,
      "t": 99139.51125000101,
      "d": 60.87656250000873,
      "v": 55
    },
    {
      "midi": 59,
      "hit": false,
      "t": 99143.56968750102,
      "d": 64.93500000001222,
      "v": 48
    },
    {
      "midi": 66,
      "hit": false,
      "t": 99533.17968750103,
      "d": 77.1103125000227,
      "v": 60
    },
    {
      "midi": 63,
      "hit": false,
      "t": 99537.23812500104,
      "d": 60.87656250000873,
      "v": 70
    },
    {
      "midi": 81,
      "hit": false,
      "t": 99541.29656250008,
      "d": 194.80500000000757,
      "v": 127
    },
    {
      "midi": 85,
      "hit": false,
      "t": 99545.35500000008,
      "d": 247.5646875000093,
      "v": 110
    },
    {
      "midi": 59,
      "hit": false,
      "t": 99545.35500000104,
      "d": 60.87656250000873,
      "v": 43
    },
    {
      "midi": 82,
      "hit": false,
      "t": 99732.04312500008,
      "d": 170.45437500001572,
      "v": 80
    },
    {
      "midi": 49,
      "hit": false,
      "t": 99732.04312500014,
      "d": 2775.9712500000023,
      "v": 90
    },
    {
      "midi": 54,
      "hit": false,
      "t": 99736.10156250015,
      "d": 2633.925937500011,
      "v": 90
    },
    {
      "midi": 58,
      "hit": false,
      "t": 99736.10156250015,
      "d": 2711.0362500000047,
      "v": 94
    },
    {
      "midi": 30,
      "hit": false,
      "t": 99736.10156250015,
      "d": 2824.6725000000006,
      "v": 94
    },
    {
      "midi": 83,
      "hit": false,
      "t": 99792.91968750009,
      "d": 105.51937500000349,
      "v": 55
    },
    {
      "midi": 76,
      "hit": false,
      "t": 99934.9650000001,
      "d": 81.16874999999709,
      "v": 86
    },
    {
      "midi": 81,
      "hit": false,
      "t": 100121.6531250001,
      "d": 211.03875000000698,
      "v": 122
    },
    {
      "midi": 58,
      "hit": false,
      "t": 100121.65312500106,
      "d": 77.11031250000815,
      "v": 51
    },
    {
      "midi": 85,
      "hit": false,
      "t": 100125.7115625001,
      "d": 198.8634374999965,
      "v": 110
    },
    {
      "midi": 61,
      "hit": false,
      "t": 100125.71156250106,
      "d": 36.52593750000233,
      "v": 70
    },
    {
      "midi": 66,
      "hit": false,
      "t": 100129.77000000107,
      "d": 68.99343750000116,
      "v": 43
    },
    {
      "midi": 82,
      "hit": false,
      "t": 100304.2828125001,
      "d": 194.80500000000757,
      "v": 87
    },
    {
      "midi": 78,
      "hit": false,
      "t": 100519.3800000001,
      "d": 101.4609375,
      "v": 95
    },
    {
      "midi": 81,
      "hit": false,
      "t": 100706.0681250001,
      "d": 202.92187500001455,
      "v": 117
    },
    {
      "midi": 85,
      "hit": false,
      "t": 100710.12656250011,
      "d": 247.5646875000093,
      "v": 127
    },
    {
      "midi": 58,
      "hit": false,
      "t": 100710.12656250107,
      "d": 64.93500000001222,
      "v": 47
    },
    {
      "midi": 61,
      "hit": false,
      "t": 100714.18500000107,
      "d": 44.64281250000931,
      "v": 64
    },
    {
      "midi": 82,
      "hit": false,
      "t": 100718.24343750012,
      "d": 24.350625000006403,
      "v": 73
    },
    {
      "midi": 66,
      "hit": false,
      "t": 100718.24343750108,
      "d": 77.11031250000815,
      "v": 36
    },
    {
      "midi": 82,
      "hit": false,
      "t": 100892.75625000012,
      "d": 190.74656250000407,
      "v": 91
    },
    {
      "midi": 76,
      "hit": false,
      "t": 101099.73656250013,
      "d": 73.05187500000466,
      "v": 101
    },
    {
      "midi": 58,
      "hit": false,
      "t": 101103.79500000109,
      "d": 89.28562500000407,
      "v": 51
    },
    {
      "midi": 61,
      "hit": false,
      "t": 101107.8534375011,
      "d": 52.759687500001746,
      "v": 70
    },
    {
      "midi": 66,
      "hit": false,
      "t": 101111.9118750011,
      "d": 81.16874999999709,
      "v": 43
    },
    {
      "midi": 81,
      "hit": false,
      "t": 101286.42468750013,
      "d": 211.03875000000698,
      "v": 127
    },
    {
      "midi": 85,
      "hit": false,
      "t": 101290.48312500013,
      "d": 166.39593749999767,
      "v": 110
    },
    {
      "midi": 82,
      "hit": false,
      "t": 101477.17125000013,
      "d": 198.8634374999965,
      "v": 100
    },
    {
      "midi": 58,
      "hit": false,
      "t": 101659.80093750109,
      "d": 93.34406250000757,
      "v": 60
    },
    {
      "midi": 66,
      "hit": false,
      "t": 101663.85937500109,
      "d": 81.16874999999709,
      "v": 55
    },
    {
      "midi": 61,
      "hit": false,
      "t": 101667.9178125011,
      "d": 32.467499999998836,
      "v": 70
    },
    {
      "midi": 78,
      "hit": false,
      "t": 101680.09312500013,
      "d": 56.81812500000524,
      "v": 95
    },
    {
      "midi": 82,
      "hit": false,
      "t": 101866.78125000013,
      "d": 89.28562500000407,
      "v": 127
    },
    {
      "midi": 76,
      "hit": false,
      "t": 101870.83968750013,
      "d": 162.33750000000873,
      "v": 113
    },
    {
      "midi": 85,
      "hit": false,
      "t": 101883.01500000013,
      "d": 16.233749999999418,
      "v": 91
    },
    {
      "midi": 82,
      "hit": false,
      "t": 102025.06031250014,
      "d": 64.93500000001222,
      "v": 57
    },
    {
      "midi": 76,
      "hit": false,
      "t": 102102.17062500014,
      "d": 60.87656249999418,
      "v": 75
    },
    {
      "midi": 82,
      "hit": false,
      "t": 102150.87187500014,
      "d": 56.81812499999069,
      "v": 83
    },
    {
      "midi": 76,
      "hit": false,
      "t": 102223.92375000013,
      "d": 109.57781249999243,
      "v": 79
    },
    {
      "midi": 82,
      "hit": false,
      "t": 102260.44968750014,
      "d": 60.87656249999418,
      "v": 71
    },
    {
      "midi": 58,
      "hit": false,
      "t": 102260.4496875011,
      "d": 85.22718750001513,
      "v": 43
    },
    {
      "midi": 66,
      "hit": false,
      "t": 102264.5081250011,
      "d": 77.11031250000815,
      "v": 31
    },
    {
      "midi": 61,
      "hit": false,
      "t": 102268.5665625011,
      "d": 16.233749999999418,
      "v": 64
    },
    {
      "midi": 58,
      "hit": false,
      "t": 102654.11812500111,
      "d": 81.16874999999709,
      "v": 51
    },
    {
      "midi": 61,
      "hit": false,
      "t": 102658.17656250112,
      "d": 48.701249999998254,
      "v": 70
    },
    {
      "midi": 66,
      "hit": false,
      "t": 102662.23500000112,
      "d": 85.22718749998603,
      "v": 43
    },
    {
      "midi": 54,
      "hit": false,
      "t": 102848.92312500015,
      "d": 2293.017187499994,
      "v": 94
    },
    {
      "midi": 58,
      "hit": false,
      "t": 102848.92312500015,
      "d": 2402.595000000001,
      "v": 94
    },
    {
      "midi": 49,
      "hit": false,
      "t": 102848.92312500015,
      "d": 2479.7053124999948,
      "v": 90
    },
    {
      "midi": 30,
      "hit": false,
      "t": 102848.92312500015,
      "d": 2885.5490624999948,
      "v": 100
    },
    {
      "midi": 58,
      "hit": false,
      "t": 103238.53312500111,
      "d": 89.28562500000407,
      "v": 60
    },
    {
      "midi": 61,
      "hit": false,
      "t": 103242.59156250111,
      "d": 40.58437500000582,
      "v": 70
    },
    {
      "midi": 66,
      "hit": false,
      "t": 103242.59156250111,
      "d": 93.34406250000757,
      "v": 51
    },
    {
      "midi": 58,
      "hit": false,
      "t": 103822.94812500112,
      "d": 64.93500000001222,
      "v": 47
    },
    {
      "midi": 66,
      "hit": false,
      "t": 103827.00656250112,
      "d": 77.11031250000815,
      "v": 33
    },
    {
      "midi": 61,
      "hit": false,
      "t": 103831.06500000112,
      "d": 36.52593750000233,
      "v": 64
    },
    {
      "midi": 78,
      "hit": false,
      "t": 104204.44125000012,
      "d": 271.9153125000157,
      "v": 100
    },
    {
      "midi": 58,
      "hit": false,
      "t": 104204.44125000112,
      "d": 93.34406250000757,
      "v": 51
    },
    {
      "midi": 66,
      "hit": false,
      "t": 104208.49968750113,
      "d": 101.4609375,
      "v": 36
    },
    {
      "midi": 66,
      "hit": false,
      "t": 104212.55812500013,
      "d": 154.22062500000175,
      "v": 110
    },
    {
      "midi": 61,
      "hit": false,
      "t": 104212.55812500113,
      "d": 44.64281249999476,
      "v": 70
    },
    {
      "midi": 72,
      "hit": false,
      "t": 104216.61656250013,
      "d": 113.63624999999593,
      "v": 127
    },
    {
      "midi": 73,
      "hit": false,
      "t": 104216.61656250013,
      "d": 154.22062500000175,
      "v": 110
    },
    {
      "midi": 73,
      "hit": false,
      "t": 104472.29812500013,
      "d": 85.22718750000058,
      "v": 83
    },
    {
      "midi": 78,
      "hit": false,
      "t": 104565.64218750014,
      "d": 137.98687500000233,
      "v": 76
    },
    {
      "midi": 66,
      "hit": false,
      "t": 104569.70062500014,
      "d": 109.57781249999243,
      "v": 47
    },
    {
      "midi": 73,
      "hit": false,
      "t": 104663.04468750014,
      "d": 93.34406250000757,
      "v": 80
    },
    {
      "midi": 58,
      "hit": false,
      "t": 104796.97312500112,
      "d": 36.52593750000233,
      "v": 70
    },
    {
      "midi": 54,
      "hit": false,
      "t": 104801.03156250113,
      "d": 77.11031250000815,
      "v": 51
    },
    {
      "midi": 73,
      "hit": false,
      "t": 104805.09000000014,
      "d": 137.98687500000233,
      "v": 104
    },
    {
      "midi": 78,
      "hit": false,
      "t": 104805.09000000014,
      "d": 150.16218749999825,
      "v": 95
    },
    {
      "midi": 66,
      "hit": false,
      "t": 104805.09000000014,
      "d": 182.6296874999971,
      "v": 100
    },
    {
      "midi": 61,
      "hit": false,
      "t": 104805.09000000113,
      "d": 64.93499999999767,
      "v": 64
    },
    {
      "midi": 54,
      "hit": false,
      "t": 105389.50500000114,
      "d": 60.87656250000873,
      "v": 43
    },
    {
      "midi": 61,
      "hit": false,
      "t": 105393.56343750114,
      "d": 44.64281250000931,
      "v": 60
    },
    {
      "midi": 58,
      "hit": false,
      "t": 105397.62187500115,
      "d": 20.29218750000291,
      "v": 70
    },
    {
      "midi": 61,
      "hit": false,
      "t": 105592.42687500115,
      "d": 24.350625000006403,
      "v": 19
    },
    {
      "midi": 54,
      "hit": false,
      "t": 105779.11500000115,
      "d": 68.99343750000116,
      "v": 43
    },
    {
      "midi": 58,
      "hit": false,
      "t": 105787.23187500116,
      "d": 32.467499999998836,
      "v": 64
    },
    {
      "midi": 61,
      "hit": false,
      "t": 105787.23187500116,
      "d": 73.0518749999901,
      "v": 64
    },
    {
      "midi": 54,
      "hit": false,
      "t": 105965.80312500014,
      "d": 1647.7256249999919,
      "v": 94
    },
    {
      "midi": 51,
      "hit": false,
      "t": 105965.80312500014,
      "d": 1651.7840624999953,
      "v": 90
    },
    {
      "midi": 35,
      "hit": false,
      "t": 105965.80312500014,
      "d": 1655.8424999999988,
      "v": 117
    },
    {
      "midi": 59,
      "hit": false,
      "t": 105965.80312500014,
      "d": 1659.9009375000023,
      "v": 103
    },
    {
      "midi": 74,
      "hit": false,
      "t": 106156.54968750014,
      "d": 105.51937500000349,
      "v": 127
    },
    {
      "midi": 86,
      "hit": false,
      "t": 106156.54968750014,
      "d": 105.51937500000349,
      "v": 127
    },
    {
      "midi": 63,
      "hit": false,
      "t": 106347.29625000115,
      "d": 81.16875000001164,
      "v": 36
    },
    {
      "midi": 86,
      "hit": false,
      "t": 106351.35468750015,
      "d": 121.75312500000291,
      "v": 127
    },
    {
      "midi": 54,
      "hit": false,
      "t": 106351.35468750115,
      "d": 52.759687500001746,
      "v": 43
    },
    {
      "midi": 74,
      "hit": false,
      "t": 106355.41312500015,
      "d": 117.69468749999942,
      "v": 113
    },
    {
      "midi": 59,
      "hit": false,
      "t": 106355.41312500116,
      "d": 44.64281249999476,
      "v": 73
    },
    {
      "midi": 86,
      "hit": false,
      "t": 106538.04281250015,
      "d": 129.86999999999534,
      "v": 127
    },
    {
      "midi": 74,
      "hit": false,
      "t": 106550.21812500014,
      "d": 113.63624999999593,
      "v": 122
    },
    {
      "midi": 86,
      "hit": false,
      "t": 106728.78937500014,
      "d": 109.57781250000698,
      "v": 127
    },
    {
      "midi": 74,
      "hit": false,
      "t": 106732.84781250014,
      "d": 101.4609375,
      "v": 122
    },
    {
      "midi": 83,
      "hit": false,
      "t": 106923.59437500015,
      "d": 142.04531250000582,
      "v": 127
    },
    {
      "midi": 54,
      "hit": false,
      "t": 106923.59437500116,
      "d": 56.81812500000524,
      "v": 47
    },
    {
      "midi": 71,
      "hit": false,
      "t": 106927.65281250015,
      "d": 89.28562500000407,
      "v": 127
    },
    {
      "midi": 63,
      "hit": false,
      "t": 106927.65281250117,
      "d": 64.93499999999767,
      "v": 36
    },
    {
      "midi": 59,
      "hit": false,
      "t": 106931.71125000117,
      "d": 48.701249999998254,
      "v": 73
    },
    {
      "midi": 81,
      "hit": false,
      "t": 107114.34093750015,
      "d": 142.04531249999127,
      "v": 127
    },
    {
      "midi": 69,
      "hit": false,
      "t": 107130.57468750015,
      "d": 113.63624999999593,
      "v": 127
    },
    {
      "midi": 78,
      "hit": false,
      "t": 107325.37968750014,
      "d": 133.92843749999884,
      "v": 104
    },
    {
      "midi": 66,
      "hit": false,
      "t": 107325.37968750014,
      "d": 166.39593749999767,
      "v": 110
    },
    {
      "midi": 54,
      "hit": false,
      "t": 107333.49656250117,
      "d": 56.81812500000524,
      "v": 43
    },
    {
      "midi": 63,
      "hit": false,
      "t": 107337.55500000117,
      "d": 77.11031250000815,
      "v": 43
    },
    {
      "midi": 59,
      "hit": false,
      "t": 107341.61343750118,
      "d": 44.64281249999476,
      "v": 68
    },
    {
      "midi": 83,
      "hit": false,
      "t": 107516.12625000015,
      "d": 174.51281250000466,
      "v": 127
    },
    {
      "midi": 71,
      "hit": false,
      "t": 107520.18468750015,
      "d": 166.39593749999767,
      "v": 127
    },
    {
      "midi": 82,
      "hit": false,
      "t": 107532.36000000015,
      "d": 12.175312499995925,
      "v": 83
    },
    {
      "midi": 56,
      "hit": false,
      "t": 109082.68312500014,
      "d": 2711.0362500000047,
      "v": 117
    },
    {
      "midi": 60,
      "hit": false,
      "t": 109082.68312500014,
      "d": 2727.2700000000186,
      "v": 107
    },
    {
      "midi": 51,
      "hit": false,
      "t": 109082.68312500014,
      "d": 2857.140000000014,
      "v": 90
    },
    {
      "midi": 32,
      "hit": false,
      "t": 109082.68312500014,
      "d": 2885.5490625000093,
      "v": 100
    },
    {
      "midi": 56,
      "hit": false,
      "t": 109456.05937500118,
      "d": 64.93499999999767,
      "v": 47
    },
    {
      "midi": 60,
      "hit": false,
      "t": 109468.23468750117,
      "d": 56.81812500000524,
      "v": 61
    },
    {
      "midi": 56,
      "hit": false,
      "t": 110056.70812500118,
      "d": 48.701249999998254,
      "v": 33
    },
    {
      "midi": 60,
      "hit": false,
      "t": 110060.76656250119,
      "d": 52.759687500001746,
      "v": 64
    },
    {
      "midi": 63,
      "hit": false,
      "t": 110072.94187500118,
      "d": 44.64281250000931,
      "v": 17
    },
    {
      "midi": 56,
      "hit": false,
      "t": 110430.0843750012,
      "d": 64.93500000001222,
      "v": 47
    },
    {
      "midi": 60,
      "hit": false,
      "t": 110434.1428125012,
      "d": 73.05187500000466,
      "v": 77
    },
    {
      "midi": 63,
      "hit": false,
      "t": 110438.2012500012,
      "d": 85.22718750000058,
      "v": 43
    },
    {
      "midi": 56,
      "hit": false,
      "t": 110649.24000000121,
      "d": 40.58437500000582,
      "v": 1
    },
    {
      "midi": 56,
      "hit": false,
      "t": 111026.67468750122,
      "d": 64.93500000002678,
      "v": 55
    },
    {
      "midi": 60,
      "hit": false,
      "t": 111034.79156250122,
      "d": 77.1103125000227,
      "v": 73
    },
    {
      "midi": 63,
      "hit": false,
      "t": 111042.90843750123,
      "d": 64.93500000001222,
      "v": 43
    },
    {
      "midi": 66,
      "hit": false,
      "t": 111051.02531250124,
      "d": 20.29218750000291,
      "v": 31
    },
    {
      "midi": 56,
      "hit": false,
      "t": 111619.20656250125,
      "d": 60.87656249999418,
      "v": 40
    },
    {
      "midi": 60,
      "hit": false,
      "t": 111631.38187500124,
      "d": 64.93499999999767,
      "v": 64
    },
    {
      "midi": 63,
      "hit": false,
      "t": 111631.38187500124,
      "d": 68.99343750000116,
      "v": 40
    },
    {
      "midi": 56,
      "hit": false,
      "t": 112012.87500000125,
      "d": 60.87656250000873,
      "v": 55
    },
    {
      "midi": 60,
      "hit": false,
      "t": 112016.93343750125,
      "d": 77.11031250000815,
      "v": 77
    },
    {
      "midi": 63,
      "hit": false,
      "t": 112020.99187500126,
      "d": 81.16875000001164,
      "v": 43
    },
    {
      "midi": 60,
      "hit": false,
      "t": 112199.56312500015,
      "d": 1919.640937499993,
      "v": 103
    },
    {
      "midi": 56,
      "hit": false,
      "t": 112199.56312500015,
      "d": 1939.933124999996,
      "v": 100
    },
    {
      "midi": 32,
      "hit": false,
      "t": 112203.62156250015,
      "d": 2077.9199999999983,
      "v": 100
    },
    {
      "midi": 51,
      "hit": false,
      "t": 112203.62156250015,
      "d": 2077.9199999999983,
      "v": 85
    },
    {
      "midi": 56,
      "hit": false,
      "t": 112581.05625000127,
      "d": 60.87656250000873,
      "v": 36
    },
    {
      "midi": 63,
      "hit": false,
      "t": 112589.17312500128,
      "d": 73.05187500000466,
      "v": 51
    },
    {
      "midi": 60,
      "hit": false,
      "t": 112593.23156250129,
      "d": 60.87656249999418,
      "v": 73
    },
    {
      "midi": 56,
      "hit": false,
      "t": 113161.41281250128,
      "d": 56.81812500001979,
      "v": 43
    },
    {
      "midi": 63,
      "hit": false,
      "t": 113165.47125000128,
      "d": 56.81812500001979,
      "v": 51
    },
    {
      "midi": 60,
      "hit": false,
      "t": 113169.52968750129,
      "d": 40.58437500000582,
      "v": 82
    },
    {
      "midi": 63,
      "hit": false,
      "t": 113364.33468750131,
      "d": 32.467499999998836,
      "v": 36
    },
    {
      "midi": 56,
      "hit": false,
      "t": 113551.02281250131,
      "d": 73.05187500001921,
      "v": 43
    },
    {
      "midi": 60,
      "hit": false,
      "t": 113555.08125000131,
      "d": 56.81812500000524,
      "v": 82
    },
    {
      "midi": 63,
      "hit": false,
      "t": 113559.13968750132,
      "d": 56.81812500000524,
      "v": 60
    },
    {
      "midi": 56,
      "hit": false,
      "t": 114123.26250000132,
      "d": 73.05187500001921,
      "v": 55
    },
    {
      "midi": 63,
      "hit": false,
      "t": 114127.32093750132,
      "d": 77.1103125000227,
      "v": 64
    },
    {
      "midi": 60,
      "hit": false,
      "t": 114131.37937500133,
      "d": 56.81812500000524,
      "v": 87
    },
    {
      "midi": 56,
      "hit": false,
      "t": 114500.69718750134,
      "d": 97.40250000001106,
      "v": 47
    },
    {
      "midi": 63,
      "hit": false,
      "t": 114504.75562500134,
      "d": 142.04531250000582,
      "v": 51
    },
    {
      "midi": 60,
      "hit": false,
      "t": 114508.81406250135,
      "d": 85.22718750000058,
      "v": 73
    },
    {
      "midi": 51,
      "hit": false,
      "t": 114537.22312500015,
      "d": 150.16218749999825,
      "v": 100
    },
    {
      "midi": 60,
      "hit": false,
      "t": 114537.22312500015,
      "d": 162.33749999999418,
      "v": 117
    },
    {
      "midi": 56,
      "hit": false,
      "t": 114537.22312500015,
      "d": 166.39593749999767,
      "v": 117
    },
    {
      "midi": 32,
      "hit": false,
      "t": 114541.28156250015,
      "d": 186.68812500000058,
      "v": 100
    },
    {
      "midi": 58,
      "hit": false,
      "t": 114930.89156250015,
      "d": 4.0584375000034925,
      "v": 85
    },
    {
      "midi": 55,
      "hit": false,
      "t": 114930.89156250015,
      "d": 142.04531250000582,
      "v": 117
    },
    {
      "midi": 50,
      "hit": false,
      "t": 114930.89156250015,
      "d": 146.1037500000093,
      "v": 117
    },
    {
      "midi": 59,
      "hit": false,
      "t": 114930.89156250015,
      "d": 150.1621875000128,
      "v": 112
    },
    {
      "midi": 31,
      "hit": false,
      "t": 114930.89156250015,
      "d": 178.57125000000815,
      "v": 117
    },
    {
      "midi": 55,
      "hit": false,
      "t": 114930.89156250135,
      "d": 121.75312500000291,
      "v": 68
    },
    {
      "midi": 62,
      "hit": false,
      "t": 114930.89156250135,
      "d": 146.10374999999476,
      "v": 57
    },
    {
      "midi": 59,
      "hit": false,
      "t": 114934.95000000135,
      "d": 129.86999999999534,
      "v": 64
    },
    {
      "midi": 54,
      "hit": false,
      "t": 115320.50156250017,
      "d": 2747.562187500007,
      "v": 90
    },
    {
      "midi": 58,
      "hit": false,
      "t": 115320.50156250017,
      "d": 2784.0881250000093,
      "v": 94
    },
    {
      "midi": 49,
      "hit": false,
      "t": 115320.50156250017,
      "d": 2788.146562500013,
      "v": 94
    },
    {
      "midi": 30,
      "hit": false,
      "t": 115320.50156250017,
      "d": 3035.7112500000076,
      "v": 100
    },
    {
      "midi": 61,
      "hit": false,
      "t": 115726.34531250135,
      "d": 12.175312500010477,
      "v": 87
    },
    {
      "midi": 58,
      "hit": false,
      "t": 115730.40375000135,
      "d": 48.701250000012806,
      "v": 87
    },
    {
      "midi": 54,
      "hit": false,
      "t": 115734.46218750135,
      "d": 64.93500000001222,
      "v": 60
    },
    {
      "midi": 61,
      "hit": false,
      "t": 115750.69593750135,
      "d": 20.29218750000291,
      "v": 25
    },
    {
      "midi": 61,
      "hit": false,
      "t": 116290.46812500137,
      "d": 60.87656250000873,
      "v": 70
    },
    {
      "midi": 58,
      "hit": false,
      "t": 116294.52656250137,
      "d": 60.87656250000873,
      "v": 70
    },
    {
      "midi": 54,
      "hit": false,
      "t": 116298.58500000137,
      "d": 40.58437500000582,
      "v": 47
    },
    {
      "midi": 61,
      "hit": false,
      "t": 116671.96125000138,
      "d": 81.16875000001164,
      "v": 70
    },
    {
      "midi": 58,
      "hit": false,
      "t": 116676.01968750138,
      "d": 81.16875000001164,
      "v": 70
    },
    {
      "midi": 54,
      "hit": false,
      "t": 116680.07812500138,
      "d": 73.05187500000466,
      "v": 55
    },
    {
      "midi": 61,
      "hit": false,
      "t": 117232.02562500139,
      "d": 85.22718750001513,
      "v": 64
    },
    {
      "midi": 58,
      "hit": false,
      "t": 117236.0840625014,
      "d": 97.40250000001106,
      "v": 70
    },
    {
      "midi": 54,
      "hit": false,
      "t": 117240.1425000014,
      "d": 73.05187500000466,
      "v": 55
    },
    {
      "midi": 61,
      "hit": false,
      "t": 117848.90812500141,
      "d": 56.81812500000524,
      "v": 70
    },
    {
      "midi": 54,
      "hit": false,
      "t": 117852.96656250142,
      "d": 56.81812500000524,
      "v": 51
    },
    {
      "midi": 58,
      "hit": false,
      "t": 117852.96656250142,
      "d": 64.93500000001222,
      "v": 70
    },
    {
      "midi": 61,
      "hit": false,
      "t": 118246.63500000144,
      "d": 68.99343750000116,
      "v": 87
    },
    {
      "midi": 58,
      "hit": false,
      "t": 118250.69343750144,
      "d": 36.52593750000233,
      "v": 70
    },
    {
      "midi": 54,
      "hit": false,
      "t": 118254.75187500144,
      "d": 73.0518749999901,
      "v": 60
    },
    {
      "midi": 59,
      "hit": false,
      "t": 118433.32312500017,
      "d": 2451.2962499999994,
      "v": 112
    },
    {
      "midi": 54,
      "hit": false,
      "t": 118433.32312500017,
      "d": 2479.7053124999948,
      "v": 100
    },
    {
      "midi": 51,
      "hit": false,
      "t": 118433.32312500017,
      "d": 2487.8221875000017,
      "v": 94
    },
    {
      "midi": 35,
      "hit": false,
      "t": 118433.32312500017,
      "d": 2905.8412499999977,
      "v": 117
    },
    {
      "midi": 63,
      "hit": false,
      "t": 118806.69937500144,
      "d": 85.22718750001513,
      "v": 40
    },
    {
      "midi": 54,
      "hit": false,
      "t": 118810.75781250144,
      "d": 64.93500000001222,
      "v": 43
    },
    {
      "midi": 59,
      "hit": false,
      "t": 118818.87468750145,
      "d": 56.81812500000524,
      "v": 68
    },
    {
      "midi": 54,
      "hit": false,
      "t": 119395.17281250145,
      "d": 60.87656250000873,
      "v": 47
    },
    {
      "midi": 63,
      "hit": false,
      "t": 119399.23125000145,
      "d": 60.87656250000873,
      "v": 40
    },
    {
      "midi": 59,
      "hit": false,
      "t": 119403.28968750146,
      "d": 48.701249999998254,
      "v": 68
    },
    {
      "midi": 63,
      "hit": false,
      "t": 119796.95812500146,
      "d": 85.22718750001513,
      "v": 36
    },
    {
      "midi": 54,
      "hit": false,
      "t": 119801.01656250146,
      "d": 60.87656250000873,
      "v": 51
    },
    {
      "midi": 59,
      "hit": false,
      "t": 119805.07500000147,
      "d": 52.759687500001746,
      "v": 57
    },
    {
      "midi": 63,
      "hit": false,
      "t": 120373.25625000148,
      "d": 117.69468750001397,
      "v": 47
    },
    {
      "midi": 54,
      "hit": false,
      "t": 120377.31468750148,
      "d": 93.34406250000757,
      "v": 51
    },
    {
      "midi": 59,
      "hit": false,
      "t": 120381.37312500148,
      "d": 40.58437500000582,
      "v": 82
    },
    {
      "midi": 54,
      "hit": false,
      "t": 120965.78812500149,
      "d": 64.93500000001222,
      "v": 47
    },
    {
      "midi": 59,
      "hit": false,
      "t": 120973.9050000015,
      "d": 48.701249999998254,
      "v": 73
    },
    {
      "midi": 63,
      "hit": false,
      "t": 120973.9050000015,
      "d": 68.99343750000116,
      "v": 33
    },
    {
      "midi": 54,
      "hit": false,
      "t": 121359.4565625015,
      "d": 85.22718750001513,
      "v": 47
    },
    {
      "midi": 59,
      "hit": false,
      "t": 121363.5150000015,
      "d": 56.81812500000524,
      "v": 73
    },
    {
      "midi": 63,
      "hit": false,
      "t": 121367.5734375015,
      "d": 101.46093750001455,
      "v": 43
    },
    {
      "midi": 32,
      "hit": false,
      "t": 121550.20312500017,
      "d": 1128.2456250000105,
      "v": 100
    },
    {
      "midi": 60,
      "hit": false,
      "t": 121550.20312500017,
      "d": 1379.8687500000087,
      "v": 98
    },
    {
      "midi": 56,
      "hit": false,
      "t": 121550.20312500017,
      "d": 1424.5115625000035,
      "v": 94
    },
    {
      "midi": 51,
      "hit": false,
      "t": 121550.20312500017,
      "d": 1444.8037500000064,
      "v": 90
    },
    {
      "midi": 56,
      "hit": false,
      "t": 121935.75468750151,
      "d": 133.92843749999884,
      "v": 51
    },
    {
      "midi": 63,
      "hit": false,
      "t": 121939.81312500151,
      "d": 146.10374999999476,
      "v": 51
    },
    {
      "midi": 60,
      "hit": false,
      "t": 121943.87156250152,
      "d": 32.467499999998836,
      "v": 87
    },
    {
      "midi": 56,
      "hit": false,
      "t": 122536.4034375015,
      "d": 68.99343750001572,
      "v": 40
    },
    {
      "midi": 63,
      "hit": false,
      "t": 122540.4618750015,
      "d": 68.99343750001572,
      "v": 47
    },
    {
      "midi": 60,
      "hit": false,
      "t": 122544.52031250151,
      "d": 36.52593750000233,
      "v": 73
    },
    {
      "midi": 56,
      "hit": false,
      "t": 122921.95500000153,
      "d": 85.22718750001513,
      "v": 36
    },
    {
      "midi": 63,
      "hit": false,
      "t": 122926.01343750153,
      "d": 97.40250000001106,
      "v": 47
    },
    {
      "midi": 60,
      "hit": false,
      "t": 122930.07187500154,
      "d": 36.52593750000233,
      "v": 68
    },
    {
      "midi": 56,
      "hit": false,
      "t": 123494.19468750154,
      "d": 113.63625000001048,
      "v": 51
    },
    {
      "midi": 63,
      "hit": false,
      "t": 123498.25312500155,
      "d": 146.1037500000093,
      "v": 55
    },
    {
      "midi": 60,
      "hit": false,
      "t": 123502.31156250155,
      "d": 36.52593750000233,
      "v": 87
    },
    {
      "midi": 63,
      "hit": false,
      "t": 124094.84343750155,
      "d": 81.16875000001164,
      "v": 43
    },
    {
      "midi": 60,
      "hit": false,
      "t": 124098.90187500155,
      "d": 36.52593750000233,
      "v": 82
    },
    {
      "midi": 56,
      "hit": false,
      "t": 124098.90187500155,
      "d": 56.81812500000524,
      "v": 40
    },
    {
      "midi": 56,
      "hit": false,
      "t": 124476.33656250156,
      "d": 89.28562500000407,
      "v": 43
    },
    {
      "midi": 63,
      "hit": false,
      "t": 124480.39500000156,
      "d": 109.57781250000698,
      "v": 47
    },
    {
      "midi": 60,
      "hit": false,
      "t": 124484.45343750156,
      "d": 60.87656249999418,
      "v": 82
    },
    {
      "midi": 61,
      "hit": false,
      "t": 124667.08312500018,
      "d": 2491.8806250000052,
      "v": 94
    },
    {
      "midi": 53,
      "hit": false,
      "t": 124667.08312500018,
      "d": 2504.055937500001,
      "v": 98
    },
    {
      "midi": 56,
      "hit": false,
      "t": 124667.08312500018,
      "d": 2516.231249999997,
      "v": 94
    },
    {
      "midi": 37,
      "hit": false,
      "t": 124667.08312500018,
      "d": 3137.172187499993,
      "v": 100
    },
    {
      "midi": 61,
      "hit": false,
      "t": 125044.51781250157,
      "d": 81.16875000001164,
      "v": 70
    },
    {
      "midi": 56,
      "hit": false,
      "t": 125048.57625000157,
      "d": 77.11031250000815,
      "v": 55
    },
    {
      "midi": 65,
      "hit": false,
      "t": 125052.63468750157,
      "d": 68.99343750000116,
      "v": 61
    },
    {
      "midi": 61,
      "hit": false,
      "t": 125628.93281250157,
      "d": 60.87656250000873,
      "v": 51
    },
    {
      "midi": 56,
      "hit": false,
      "t": 125632.99125000158,
      "d": 64.93500000001222,
      "v": 40
    },
    {
      "midi": 65,
      "hit": false,
      "t": 125641.10812500158,
      "d": 60.87656250000873,
      "v": 39
    },
    {
      "midi": 61,
      "hit": false,
      "t": 126018.54281250159,
      "d": 81.16875000001164,
      "v": 60
    },
    {
      "midi": 56,
      "hit": false,
      "t": 126022.6012500016,
      "d": 85.22718750001513,
      "v": 51
    },
    {
      "midi": 65,
      "hit": false,
      "t": 126026.6596875016,
      "d": 89.28562500001863,
      "v": 57
    },
    {
      "midi": 56,
      "hit": false,
      "t": 126590.78250000162,
      "d": 162.33750000000873,
      "v": 60
    },
    {
      "midi": 61,
      "hit": false,
      "t": 126594.84093750162,
      "d": 68.99343750000116,
      "v": 70
    },
    {
      "midi": 65,
      "hit": false,
      "t": 126594.84093750162,
      "d": 117.69468749999942,
      "v": 73
    },
    {
      "midi": 56,
      "hit": false,
      "t": 127199.54812500163,
      "d": 89.28562500000407,
      "v": 51
    },
    {
      "midi": 61,
      "hit": false,
      "t": 127203.60656250163,
      "d": 64.93499999999767,
      "v": 60
    },
    {
      "midi": 65,
      "hit": false,
      "t": 127203.60656250163,
      "d": 89.28562500000407,
      "v": 51
    },
    {
      "midi": 56,
      "hit": false,
      "t": 127585.09968750164,
      "d": 85.22718750001513,
      "v": 51
    },
    {
      "midi": 65,
      "hit": false,
      "t": 127589.15812500165,
      "d": 113.63625000001048,
      "v": 61
    },
    {
      "midi": 61,
      "hit": false,
      "t": 127593.21656250165,
      "d": 52.759687500001746,
      "v": 64
    },
    {
      "midi": 58,
      "hit": false,
      "t": 127783.96312500017,
      "d": 1663.9593750000058,
      "v": 117
    },
    {
      "midi": 61,
      "hit": false,
      "t": 127783.96312500017,
      "d": 1668.0178125000093,
      "v": 117
    },
    {
      "midi": 54,
      "hit": false,
      "t": 127783.96312500017,
      "d": 1672.0762500000128,
      "v": 90
    },
    {
      "midi": 30,
      "hit": false,
      "t": 127783.96312500017,
      "d": 1676.1346875000163,
      "v": 100
    },
    {
      "midi": 58,
      "hit": false,
      "t": 128169.51468750165,
      "d": 97.40250000001106,
      "v": 60
    },
    {
      "midi": 66,
      "hit": false,
      "t": 128173.57312500165,
      "d": 89.28562500000407,
      "v": 51
    },
    {
      "midi": 61,
      "hit": false,
      "t": 128177.63156250166,
      "d": 36.52593750000233,
      "v": 87
    },
    {
      "midi": 58,
      "hit": false,
      "t": 128737.69593750166,
      "d": 113.63625000001048,
      "v": 47
    },
    {
      "midi": 66,
      "hit": false,
      "t": 128745.81281250167,
      "d": 109.57781250000698,
      "v": 31
    },
    {
      "midi": 61,
      "hit": false,
      "t": 128749.87125000167,
      "d": 16.233749999999418,
      "v": 64
    },
    {
      "midi": 58,
      "hit": false,
      "t": 129139.48125000167,
      "d": 129.86999999999534,
      "v": 55
    },
    {
      "midi": 66,
      "hit": false,
      "t": 129143.53968750167,
      "d": 113.63624999999593,
      "v": 47
    },
    {
      "midi": 61,
      "hit": false,
      "t": 129147.59812500168,
      "d": 48.701249999998254,
      "v": 70
    },
    {
      "midi": 54,
      "hit": false,
      "t": 130900.84312500019,
      "d": 3088.4709375000093,
      "v": 94
    },
    {
      "midi": 51,
      "hit": false,
      "t": 130900.84312500019,
      "d": 3108.7631249999977,
      "v": 90
    },
    {
      "midi": 59,
      "hit": false,
      "t": 130900.84312500019,
      "d": 3116.8800000000047,
      "v": 107
    },
    {
      "midi": 35,
      "hit": false,
      "t": 130900.84312500019,
      "d": 3129.055312500015,
      "v": 117
    },
    {
      "midi": 63,
      "hit": false,
      "t": 131294.51156250166,
      "d": 52.7596875000163,
      "v": 70
    },
    {
      "midi": 59,
      "hit": false,
      "t": 131298.57000000167,
      "d": 56.81812500001979,
      "v": 73
    },
    {
      "midi": 66,
      "hit": false,
      "t": 131302.62843750167,
      "d": 52.7596875000163,
      "v": 55
    },
    {
      "midi": 66,
      "hit": false,
      "t": 131870.8096875017,
      "d": 73.05187500003376,
      "v": 60
    },
    {
      "midi": 63,
      "hit": false,
      "t": 131874.8681250017,
      "d": 52.7596875000163,
      "v": 70
    },
    {
      "midi": 59,
      "hit": false,
      "t": 131878.9265625017,
      "d": 60.87656250002328,
      "v": 57
    },
    {
      "midi": 66,
      "hit": false,
      "t": 132260.41968750174,
      "d": 81.16875000001164,
      "v": 64
    },
    {
      "midi": 63,
      "hit": false,
      "t": 132264.47812500174,
      "d": 60.87656249999418,
      "v": 70
    },
    {
      "midi": 59,
      "hit": false,
      "t": 132268.53656250174,
      "d": 68.99343750000116,
      "v": 57
    },
    {
      "midi": 63,
      "hit": false,
      "t": 132836.71781250174,
      "d": 60.87656249999418,
      "v": 87
    },
    {
      "midi": 66,
      "hit": false,
      "t": 132840.77625000174,
      "d": 64.93499999999767,
      "v": 70
    },
    {
      "midi": 59,
      "hit": false,
      "t": 132844.83468750175,
      "d": 64.93499999999767,
      "v": 68
    },
    {
      "midi": 63,
      "hit": false,
      "t": 133421.13281250175,
      "d": 60.87656250002328,
      "v": 70
    },
    {
      "midi": 66,
      "hit": false,
      "t": 133429.24968750175,
      "d": 44.64281250000931,
      "v": 60
    },
    {
      "midi": 59,
      "hit": false,
      "t": 133429.24968750175,
      "d": 56.81812500001979,
      "v": 57
    },
    {
      "midi": 63,
      "hit": false,
      "t": 133818.85968750177,
      "d": 60.87656249999418,
      "v": 70
    },
    {
      "midi": 66,
      "hit": false,
      "t": 133822.91812500177,
      "d": 64.93499999999767,
      "v": 64
    },
    {
      "midi": 59,
      "hit": false,
      "t": 133822.91812500177,
      "d": 68.99343750000116,
      "v": 64
    },
    {
      "midi": 56,
      "hit": false,
      "t": 134017.7231250002,
      "d": 2654.218125000014,
      "v": 100
    },
    {
      "midi": 60,
      "hit": false,
      "t": 134017.7231250002,
      "d": 2686.685625000013,
      "v": 112
    },
    {
      "midi": 51,
      "hit": false,
      "t": 134017.7231250002,
      "d": 2731.328437500022,
      "v": 85
    },
    {
      "midi": 32,
      "hit": false,
      "t": 134017.7231250002,
      "d": 2735.3868750000256,
      "v": 117
    },
    {
      "midi": 56,
      "hit": false,
      "t": 134391.09937500177,
      "d": 64.93499999999767,
      "v": 47
    },
    {
      "midi": 60,
      "hit": false,
      "t": 134403.27468750178,
      "d": 56.81812499999069,
      "v": 61
    },
    {
      "midi": 56,
      "hit": false,
      "t": 134991.74812500176,
      "d": 48.701250000012806,
      "v": 33
    },
    {
      "midi": 60,
      "hit": false,
      "t": 134995.80656250176,
      "d": 52.7596875000163,
      "v": 64
    },
    {
      "midi": 63,
      "hit": false,
      "t": 135007.98187500177,
      "d": 44.64281250000931,
      "v": 17
    },
    {
      "midi": 56,
      "hit": false,
      "t": 135365.1243750018,
      "d": 64.93499999999767,
      "v": 47
    },
    {
      "midi": 60,
      "hit": false,
      "t": 135369.1828125018,
      "d": 73.05187500000466,
      "v": 77
    },
    {
      "midi": 63,
      "hit": false,
      "t": 135373.2412500018,
      "d": 85.22718750001513,
      "v": 43
    },
    {
      "midi": 56,
      "hit": false,
      "t": 135584.2800000018,
      "d": 40.58437500000582,
      "v": 1
    },
    {
      "midi": 56,
      "hit": false,
      "t": 135961.7146875018,
      "d": 64.93499999999767,
      "v": 55
    },
    {
      "midi": 60,
      "hit": false,
      "t": 135969.83156250181,
      "d": 77.11031250000815,
      "v": 73
    },
    {
      "midi": 63,
      "hit": false,
      "t": 135977.94843750182,
      "d": 64.93499999999767,
      "v": 43
    },
    {
      "midi": 66,
      "hit": false,
      "t": 135986.06531250183,
      "d": 20.29218749998836,
      "v": 31
    },
    {
      "midi": 56,
      "hit": false,
      "t": 136554.24656250182,
      "d": 60.87656250002328,
      "v": 40
    },
    {
      "midi": 60,
      "hit": false,
      "t": 136566.42187500183,
      "d": 64.93500000002678,
      "v": 64
    },
    {
      "midi": 63,
      "hit": false,
      "t": 136566.42187500183,
      "d": 68.99343750003027,
      "v": 40
    },
    {
      "midi": 56,
      "hit": false,
      "t": 136947.91500000187,
      "d": 60.87656249999418,
      "v": 55
    },
    {
      "midi": 60,
      "hit": false,
      "t": 136951.97343750187,
      "d": 77.11031249997905,
      "v": 77
    },
    {
      "midi": 63,
      "hit": false,
      "t": 136956.03187500188,
      "d": 81.16874999998254,
      "v": 43
    },
    {
      "midi": 32,
      "hit": false,
      "t": 137134.60312500023,
      "d": 32.467499999998836,
      "v": 100
    },
    {
      "midi": 56,
      "hit": false,
      "t": 137134.60312500023,
      "d": 2118.5043749999895,
      "v": 117
    },
    {
      "midi": 60,
      "hit": false,
      "t": 137138.66156250023,
      "d": 2090.095312499994,
      "v": 107
    },
    {
      "midi": 51,
      "hit": false,
      "t": 137138.66156250023,
      "d": 2114.445937499986,
      "v": 90
    },
    {
      "midi": 56,
      "hit": false,
      "t": 137516.09625000186,
      "d": 60.87656250002328,
      "v": 36
    },
    {
      "midi": 63,
      "hit": false,
      "t": 137524.21312500187,
      "d": 73.05187500003376,
      "v": 51
    },
    {
      "midi": 60,
      "hit": false,
      "t": 137528.27156250188,
      "d": 60.87656250002328,
      "v": 73
    },
    {
      "midi": 56,
      "hit": false,
      "t": 138096.4528125019,
      "d": 56.81812500001979,
      "v": 43
    },
    {
      "midi": 63,
      "hit": false,
      "t": 138100.5112500019,
      "d": 56.81812500001979,
      "v": 51
    },
    {
      "midi": 60,
      "hit": false,
      "t": 138104.5696875019,
      "d": 40.58437500000582,
      "v": 82
    },
    {
      "midi": 63,
      "hit": false,
      "t": 138299.37468750193,
      "d": 32.467499999998836,
      "v": 36
    },
    {
      "midi": 56,
      "hit": false,
      "t": 138486.0628125019,
      "d": 73.05187500000466,
      "v": 43
    },
    {
      "midi": 60,
      "hit": false,
      "t": 138490.12125000192,
      "d": 56.81812499999069,
      "v": 82
    },
    {
      "midi": 63,
      "hit": false,
      "t": 138494.17968750192,
      "d": 56.81812499999069,
      "v": 60
    },
    {
      "midi": 56,
      "hit": false,
      "t": 139058.3025000019,
      "d": 73.05187500000466,
      "v": 55
    },
    {
      "midi": 63,
      "hit": false,
      "t": 139062.36093750192,
      "d": 77.11031250000815,
      "v": 64
    },
    {
      "midi": 60,
      "hit": false,
      "t": 139066.41937500192,
      "d": 56.81812499999069,
      "v": 87
    },
    {
      "midi": 56,
      "hit": false,
      "t": 139435.73718750192,
      "d": 97.40249999999651,
      "v": 47
    },
    {
      "midi": 63,
      "hit": false,
      "t": 139439.79562500192,
      "d": 142.04531250000582,
      "v": 51
    },
    {
      "midi": 60,
      "hit": false,
      "t": 139443.85406250192,
      "d": 85.22718749998603,
      "v": 73
    },
    {
      "midi": 60,
      "hit": false,
      "t": 139472.26312500023,
      "d": 142.04531250000582,
      "v": 112
    },
    {
      "midi": 51,
      "hit": false,
      "t": 139472.26312500023,
      "d": 146.1037500000093,
      "v": 94
    },
    {
      "midi": 56,
      "hit": false,
      "t": 139472.26312500023,
      "d": 162.33750000002328,
      "v": 117
    },
    {
      "midi": 32,
      "hit": false,
      "t": 139472.26312500023,
      "d": 178.57125000003725,
      "v": 117
    },
    {
      "midi": 52,
      "hit": false,
      "t": 139861.87312500027,
      "d": 48.701250000012806,
      "v": 81
    },
    {
      "midi": 55,
      "hit": false,
      "t": 139861.87312500027,
      "d": 142.04531250000582,
      "v": 117
    },
    {
      "midi": 50,
      "hit": false,
      "t": 139861.87312500027,
      "d": 158.2790625000198,
      "v": 98
    },
    {
      "midi": 59,
      "hit": false,
      "t": 139861.87312500027,
      "d": 158.2790625000198,
      "v": 107
    },
    {
      "midi": 31,
      "hit": false,
      "t": 139861.87312500027,
      "d": 190.74656250001863,
      "v": 117
    },
    {
      "midi": 55,
      "hit": false,
      "t": 139865.93156250194,
      "d": 121.75312500001746,
      "v": 68
    },
    {
      "midi": 62,
      "hit": false,
      "t": 139865.93156250194,
      "d": 146.10375000003842,
      "v": 57
    },
    {
      "midi": 59,
      "hit": false,
      "t": 139869.99000000194,
      "d": 129.87000000002445,
      "v": 64
    },
    {
      "midi": 58,
      "hit": false,
      "t": 140251.4831250003,
      "d": 2739.4453125,
      "v": 94
    },
    {
      "midi": 54,
      "hit": false,
      "t": 140255.5415625003,
      "d": 2621.750624999986,
      "v": 94
    },
    {
      "midi": 49,
      "hit": false,
      "t": 140255.5415625003,
      "d": 2739.4453125,
      "v": 94
    },
    {
      "midi": 30,
      "hit": false,
      "t": 140259.6000000003,
      "d": 2780.029687500006,
      "v": 117
    },
    {
      "midi": 61,
      "hit": false,
      "t": 140661.38531250198,
      "d": 12.175312500010477,
      "v": 87
    },
    {
      "midi": 58,
      "hit": false,
      "t": 140665.44375000198,
      "d": 48.701250000012806,
      "v": 87
    },
    {
      "midi": 54,
      "hit": false,
      "t": 140669.502187502,
      "d": 64.93499999999767,
      "v": 60
    },
    {
      "midi": 61,
      "hit": false,
      "t": 140685.735937502,
      "d": 20.29218749998836,
      "v": 25
    },
    {
      "midi": 61,
      "hit": false,
      "t": 141225.50812500197,
      "d": 60.87656250002328,
      "v": 70
    },
    {
      "midi": 58,
      "hit": false,
      "t": 141229.56656250198,
      "d": 60.87656250002328,
      "v": 70
    },
    {
      "midi": 54,
      "hit": false,
      "t": 141233.62500000198,
      "d": 40.58437500000582,
      "v": 47
    },
    {
      "midi": 61,
      "hit": false,
      "t": 141607.001250002,
      "d": 81.16875000001164,
      "v": 70
    },
    {
      "midi": 58,
      "hit": false,
      "t": 141611.059687502,
      "d": 81.16875000001164,
      "v": 70
    },
    {
      "midi": 54,
      "hit": false,
      "t": 141615.11812500202,
      "d": 73.05187500000466,
      "v": 55
    },
    {
      "midi": 61,
      "hit": false,
      "t": 142167.06562500203,
      "d": 85.22718750001513,
      "v": 64
    },
    {
      "midi": 58,
      "hit": false,
      "t": 142171.12406250203,
      "d": 97.40250000002561,
      "v": 70
    },
    {
      "midi": 54,
      "hit": false,
      "t": 142175.18250000203,
      "d": 73.05187500000466,
      "v": 55
    },
    {
      "midi": 61,
      "hit": false,
      "t": 142783.94812500206,
      "d": 56.81812499999069,
      "v": 70
    },
    {
      "midi": 54,
      "hit": false,
      "t": 142788.00656250207,
      "d": 56.81812499999069,
      "v": 51
    },
    {
      "midi": 58,
      "hit": false,
      "t": 142788.00656250207,
      "d": 64.93499999999767,
      "v": 70
    },
    {
      "midi": 61,
      "hit": false,
      "t": 143181.67500000205,
      "d": 68.99343750000116,
      "v": 87
    },
    {
      "midi": 58,
      "hit": false,
      "t": 143185.73343750206,
      "d": 36.52593750000233,
      "v": 70
    },
    {
      "midi": 54,
      "hit": false,
      "t": 143189.79187500206,
      "d": 73.05187500000466,
      "v": 60
    },
    {
      "midi": 59,
      "hit": false,
      "t": 143372.4215625003,
      "d": 2625.8090625000186,
      "v": 107
    },
    {
      "midi": 54,
      "hit": false,
      "t": 143376.4800000003,
      "d": 2662.335000000021,
      "v": 100
    },
    {
      "midi": 51,
      "hit": false,
      "t": 143380.5384375003,
      "d": 2682.6271875000093,
      "v": 90
    },
    {
      "midi": 35,
      "hit": false,
      "t": 143384.5968750003,
      "d": 2938.3087499999965,
      "v": 117
    },
    {
      "midi": 63,
      "hit": false,
      "t": 143741.73937500207,
      "d": 85.22718750001513,
      "v": 40
    },
    {
      "midi": 54,
      "hit": false,
      "t": 143745.79781250207,
      "d": 64.93499999999767,
      "v": 43
    },
    {
      "midi": 59,
      "hit": false,
      "t": 143753.91468750208,
      "d": 56.81812499999069,
      "v": 68
    },
    {
      "midi": 54,
      "hit": false,
      "t": 144330.21281250208,
      "d": 60.87656250002328,
      "v": 47
    },
    {
      "midi": 63,
      "hit": false,
      "t": 144334.2712500021,
      "d": 60.87656250002328,
      "v": 40
    },
    {
      "midi": 59,
      "hit": false,
      "t": 144338.3296875021,
      "d": 48.701250000012806,
      "v": 68
    },
    {
      "midi": 63,
      "hit": false,
      "t": 144731.9981250021,
      "d": 85.22718749998603,
      "v": 36
    },
    {
      "midi": 54,
      "hit": false,
      "t": 144736.0565625021,
      "d": 60.87656249999418,
      "v": 51
    },
    {
      "midi": 59,
      "hit": false,
      "t": 144740.11500000212,
      "d": 52.759687499987194,
      "v": 57
    },
    {
      "midi": 63,
      "hit": false,
      "t": 145308.29625000208,
      "d": 117.69468750001397,
      "v": 47
    },
    {
      "midi": 54,
      "hit": false,
      "t": 145312.35468750208,
      "d": 93.34406250002212,
      "v": 51
    },
    {
      "midi": 59,
      "hit": false,
      "t": 145316.4131250021,
      "d": 40.58437500000582,
      "v": 82
    },
    {
      "midi": 54,
      "hit": false,
      "t": 145900.8281250021,
      "d": 64.93500000002678,
      "v": 47
    },
    {
      "midi": 59,
      "hit": false,
      "t": 145908.9450000021,
      "d": 48.701250000012806,
      "v": 73
    },
    {
      "midi": 63,
      "hit": false,
      "t": 145908.9450000021,
      "d": 68.99343750003027,
      "v": 33
    },
    {
      "midi": 54,
      "hit": false,
      "t": 146294.49656250214,
      "d": 85.22718749998603,
      "v": 47
    },
    {
      "midi": 59,
      "hit": false,
      "t": 146298.55500000215,
      "d": 56.81812499999069,
      "v": 73
    },
    {
      "midi": 63,
      "hit": false,
      "t": 146302.61343750215,
      "d": 101.4609374999709,
      "v": 43
    },
    {
      "midi": 60,
      "hit": false,
      "t": 146481.1846875003,
      "d": 2739.4453125,
      "v": 107
    },
    {
      "midi": 51,
      "hit": false,
      "t": 146485.2431250003,
      "d": 2780.029687500006,
      "v": 94
    },
    {
      "midi": 56,
      "hit": false,
      "t": 146489.3015625003,
      "d": 2694.8024999999907,
      "v": 100
    },
    {
      "midi": 32,
      "hit": false,
      "t": 146493.3600000003,
      "d": 2836.8478124999965,
      "v": 100
    },
    {
      "midi": 56,
      "hit": false,
      "t": 146870.79468750212,
      "d": 133.92843749999884,
      "v": 51
    },
    {
      "midi": 63,
      "hit": false,
      "t": 146874.85312500212,
      "d": 146.1037500000093,
      "v": 51
    },
    {
      "midi": 60,
      "hit": false,
      "t": 146878.91156250212,
      "d": 32.467499999998836,
      "v": 87
    },
    {
      "midi": 56,
      "hit": false,
      "t": 147471.44343750214,
      "d": 68.99343750000116,
      "v": 40
    },
    {
      "midi": 63,
      "hit": false,
      "t": 147475.50187500214,
      "d": 68.99343750000116,
      "v": 47
    },
    {
      "midi": 60,
      "hit": false,
      "t": 147479.56031250214,
      "d": 36.52593750000233,
      "v": 73
    },
    {
      "midi": 56,
      "hit": false,
      "t": 147856.99500000215,
      "d": 85.22718750001513,
      "v": 36
    },
    {
      "midi": 63,
      "hit": false,
      "t": 147861.05343750215,
      "d": 97.40250000002561,
      "v": 47
    },
    {
      "midi": 60,
      "hit": false,
      "t": 147865.11187500216,
      "d": 36.52593750000233,
      "v": 68
    },
    {
      "midi": 56,
      "hit": false,
      "t": 148429.23468750218,
      "d": 113.63625000001048,
      "v": 51
    },
    {
      "midi": 63,
      "hit": false,
      "t": 148433.29312500218,
      "d": 146.1037500000093,
      "v": 55
    },
    {
      "midi": 60,
      "hit": false,
      "t": 148437.35156250218,
      "d": 36.52593750000233,
      "v": 87
    },
    {
      "midi": 63,
      "hit": false,
      "t": 149029.8834375022,
      "d": 81.16874999998254,
      "v": 43
    },
    {
      "midi": 60,
      "hit": false,
      "t": 149033.9418750022,
      "d": 36.52593750000233,
      "v": 82
    },
    {
      "midi": 56,
      "hit": false,
      "t": 149033.9418750022,
      "d": 56.81812499999069,
      "v": 40
    },
    {
      "midi": 56,
      "hit": false,
      "t": 149411.37656250218,
      "d": 89.28562499998952,
      "v": 43
    },
    {
      "midi": 63,
      "hit": false,
      "t": 149415.43500000218,
      "d": 109.57781249997788,
      "v": 47
    },
    {
      "midi": 60,
      "hit": false,
      "t": 149419.49343750218,
      "d": 60.87656249999418,
      "v": 82
    },
    {
      "midi": 56,
      "hit": false,
      "t": 149594.0062500003,
      "d": 2402.595000000001,
      "v": 100
    },
    {
      "midi": 61,
      "hit": false,
      "t": 149598.0646875003,
      "d": 2568.990937499999,
      "v": 94
    },
    {
      "midi": 53,
      "hit": false,
      "t": 149598.0646875003,
      "d": 2593.3415624999907,
      "v": 91
    },
    {
      "midi": 37,
      "hit": false,
      "t": 149602.1231250003,
      "d": 3133.1137499999895,
      "v": 100
    },
    {
      "midi": 61,
      "hit": false,
      "t": 149979.55781250217,
      "d": 81.16875000001164,
      "v": 70
    },
    {
      "midi": 56,
      "hit": false,
      "t": 149983.61625000217,
      "d": 77.11031250000815,
      "v": 55
    },
    {
      "midi": 65,
      "hit": false,
      "t": 149987.67468750218,
      "d": 68.99343750000116,
      "v": 61
    },
    {
      "midi": 61,
      "hit": false,
      "t": 150563.97281250218,
      "d": 60.87656250002328,
      "v": 51
    },
    {
      "midi": 56,
      "hit": false,
      "t": 150568.03125000218,
      "d": 64.93500000002678,
      "v": 40
    },
    {
      "midi": 65,
      "hit": false,
      "t": 150576.1481250022,
      "d": 60.87656250002328,
      "v": 39
    },
    {
      "midi": 61,
      "hit": false,
      "t": 150953.58281250222,
      "d": 81.16875000001164,
      "v": 60
    },
    {
      "midi": 56,
      "hit": false,
      "t": 150957.64125000223,
      "d": 85.22718750001513,
      "v": 51
    },
    {
      "midi": 65,
      "hit": false,
      "t": 150961.69968750223,
      "d": 89.28562500001863,
      "v": 57
    },
    {
      "midi": 56,
      "hit": false,
      "t": 151525.82250000225,
      "d": 162.33750000002328,
      "v": 60
    },
    {
      "midi": 61,
      "hit": false,
      "t": 151529.88093750225,
      "d": 68.99343750000116,
      "v": 70
    },
    {
      "midi": 65,
      "hit": false,
      "t": 151529.88093750225,
      "d": 117.69468750001397,
      "v": 73
    },
    {
      "midi": 56,
      "hit": false,
      "t": 152134.58812500228,
      "d": 89.28562499998952,
      "v": 51
    },
    {
      "midi": 61,
      "hit": false,
      "t": 152138.64656250228,
      "d": 64.93499999999767,
      "v": 60
    },
    {
      "midi": 65,
      "hit": false,
      "t": 152138.64656250228,
      "d": 89.28562499998952,
      "v": 51
    },
    {
      "midi": 56,
      "hit": false,
      "t": 152520.13968750226,
      "d": 85.22718749998603,
      "v": 51
    },
    {
      "midi": 65,
      "hit": false,
      "t": 152524.19812500227,
      "d": 113.63624999998137,
      "v": 61
    },
    {
      "midi": 61,
      "hit": false,
      "t": 152528.25656250227,
      "d": 52.759687499987194,
      "v": 64
    },
    {
      "midi": 30,
      "hit": false,
      "t": 152706.8278125003,
      "d": 1546.264687500021,
      "v": 100
    },
    {
      "midi": 54,
      "hit": false,
      "t": 152710.8862500003,
      "d": 1530.030937500007,
      "v": 90
    },
    {
      "midi": 58,
      "hit": false,
      "t": 152710.8862500003,
      "d": 1534.0893750000105,
      "v": 117
    },
    {
      "midi": 61,
      "hit": false,
      "t": 152714.9446875003,
      "d": 1521.9140625,
      "v": 117
    },
    {
      "midi": 81,
      "hit": false,
      "t": 152897.57437500037,
      "d": 142.04531250000582,
      "v": 81
    },
    {
      "midi": 82,
      "hit": false,
      "t": 152986.8600000004,
      "d": 117.69468749998487,
      "v": 83
    },
    {
      "midi": 90,
      "hit": false,
      "t": 153076.14562500038,
      "d": 125.81156249999185,
      "v": 76
    },
    {
      "midi": 58,
      "hit": false,
      "t": 153104.55468750224,
      "d": 97.40250000002561,
      "v": 60
    },
    {
      "midi": 66,
      "hit": false,
      "t": 153108.61312500224,
      "d": 89.28562500001863,
      "v": 51
    },
    {
      "midi": 61,
      "hit": false,
      "t": 153112.67156250225,
      "d": 36.52593750000233,
      "v": 87
    },
    {
      "midi": 81,
      "hit": false,
      "t": 153206.01562500038,
      "d": 142.04531250000582,
      "v": 94
    },
    {
      "midi": 82,
      "hit": false,
      "t": 153319.6518750004,
      "d": 101.4609375,
      "v": 65
    },
    {
      "midi": 90,
      "hit": false,
      "t": 153372.41156250038,
      "d": 113.63625000001048,
      "v": 73
    },
    {
      "midi": 81,
      "hit": false,
      "t": 153494.1646875004,
      "d": 150.1621875000128,
      "v": 83
    },
    {
      "midi": 82,
      "hit": false,
      "t": 153599.6840625004,
      "d": 121.75312500007567,
      "v": 83
    },
    {
      "midi": 90,
      "hit": false,
      "t": 153672.73593750043,
      "d": 166.39593750008498,
      "v": 73
    },
    {
      "midi": 58,
      "hit": false,
      "t": 153672.73593750226,
      "d": 113.63625000001048,
      "v": 47
    },
    {
      "midi": 66,
      "hit": false,
      "t": 153680.85281250227,
      "d": 109.57781250000698,
      "v": 31
    },
    {
      "midi": 61,
      "hit": false,
      "t": 153684.91125000227,
      "d": 16.23375000001397,
      "v": 64
    },
    {
      "midi": 81,
      "hit": false,
      "t": 153810.72281250052,
      "d": 113.63624999998137,
      "v": 68
    },
    {
      "midi": 82,
      "hit": false,
      "t": 153900.0084375005,
      "d": 117.69468750001397,
      "v": 83
    },
    {
      "midi": 90,
      "hit": false,
      "t": 154001.4693750005,
      "d": 154.2206250000163,
      "v": 61
    },
    {
      "midi": 58,
      "hit": false,
      "t": 154074.5212500023,
      "d": 129.87000000002445,
      "v": 55
    },
    {
      "midi": 66,
      "hit": false,
      "t": 154078.5796875023,
      "d": 113.63625000001048,
      "v": 47
    },
    {
      "midi": 61,
      "hit": false,
      "t": 154082.6381250023,
      "d": 48.701250000012806,
      "v": 70
    },
    {
      "midi": 81,
      "hit": false,
      "t": 154090.75500000053,
      "d": 162.33749999999418,
      "v": 77
    },
    {
      "midi": 82,
      "hit": false,
      "t": 154175.98218750051,
      "d": 113.63625000001048,
      "v": 100
    },
    {
      "midi": 90,
      "hit": false,
      "t": 154281.50156250052,
      "d": 101.4609375,
      "v": 91
    },
    {
      "midi": 54,
      "hit": false,
      "t": 154293.67687500032,
      "d": 1400.1609375000116,
      "v": 73
    },
    {
      "midi": 58,
      "hit": false,
      "t": 154297.73531250033,
      "d": 1245.9403124999953,
      "v": 100
    },
    {
      "midi": 30,
      "hit": false,
      "t": 154297.73531250033,
      "d": 1481.3296874999942,
      "v": 85
    },
    {
      "midi": 61,
      "hit": false,
      "t": 154301.79375000033,
      "d": 1278.4078124999942,
      "v": 100
    },
    {
      "midi": 82,
      "hit": false,
      "t": 154374.8456250005,
      "d": 85.22718750001513,
      "v": 87
    },
    {
      "midi": 90,
      "hit": false,
      "t": 154476.30656250054,
      "d": 198.8634375000256,
      "v": 87
    },
    {
      "midi": 82,
      "hit": false,
      "t": 154658.93625000055,
      "d": 77.11031250000815,
      "v": 46
    },
    {
      "midi": 90,
      "hit": false,
      "t": 154740.10500000056,
      "d": 206.9803125000035,
      "v": 61
    },
    {
      "midi": 82,
      "hit": false,
      "t": 154800.98156250056,
      "d": 77.11031250000815,
      "v": 47
    },
    {
      "midi": 82,
      "hit": false,
      "t": 154938.96843750056,
      "d": 68.99343750005937,
      "v": 49
    },
    {
      "midi": 90,
      "hit": false,
      "t": 155003.90343750062,
      "d": 336.85031249996973,
      "v": 53
    },
    {
      "midi": 82,
      "hit": false,
      "t": 155072.89687500062,
      "d": 73.05187500000466,
      "v": 53
    },
    {
      "midi": 82,
      "hit": false,
      "t": 155198.7084375006,
      "d": 85.22718749998603,
      "v": 71
    },
    {
      "midi": 63,
      "hit": false,
      "t": 155819.64937500033,
      "d": 2451.296250000043,
      "v": 100
    },
    {
      "midi": 59,
      "hit": false,
      "t": 155831.82468750034,
      "d": 2252.4328125000175,
      "v": 112
    },
    {
      "midi": 51,
      "hit": false,
      "t": 155835.88312500034,
      "d": 2288.95875000002,
      "v": 90
    },
    {
      "midi": 54,
      "hit": false,
      "t": 155839.94156250035,
      "d": 2280.841875000013,
      "v": 100
    },
    {
      "midi": 35,
      "hit": false,
      "t": 155844.00000000035,
      "d": 2471.5884375000314,
      "v": 117
    },
    {
      "midi": 86,
      "hit": false,
      "t": 156034.74656250057,
      "d": 117.69468750001397,
      "v": 73
    },
    {
      "midi": 90,
      "hit": false,
      "t": 156038.80500000058,
      "d": 101.4609375,
      "v": 100
    },
    {
      "midi": 87,
      "hit": false,
      "t": 156046.92187500058,
      "d": 32.467499999998836,
      "v": 76
    },
    {
      "midi": 63,
      "hit": false,
      "t": 156229.5515625023,
      "d": 52.7596875000163,
      "v": 70
    },
    {
      "midi": 59,
      "hit": false,
      "t": 156233.6100000023,
      "d": 56.81812500001979,
      "v": 73
    },
    {
      "midi": 66,
      "hit": false,
      "t": 156237.66843750232,
      "d": 52.7596875000163,
      "v": 55
    },
    {
      "midi": 86,
      "hit": false,
      "t": 156805.8496875006,
      "d": 85.22718749998603,
      "v": 75
    },
    {
      "midi": 66,
      "hit": false,
      "t": 156805.84968750234,
      "d": 73.05187500003376,
      "v": 60
    },
    {
      "midi": 63,
      "hit": false,
      "t": 156809.90812500234,
      "d": 52.7596875000163,
      "v": 70
    },
    {
      "midi": 90,
      "hit": false,
      "t": 156813.9665625006,
      "d": 56.81812499999069,
      "v": 50
    },
    {
      "midi": 59,
      "hit": false,
      "t": 156813.96656250235,
      "d": 60.87656250002328,
      "v": 57
    },
    {
      "midi": 87,
      "hit": false,
      "t": 157020.94687500058,
      "d": 52.759687499987194,
      "v": 59
    },
    {
      "midi": 90,
      "hit": false,
      "t": 157025.00531250058,
      "d": 28.409062499995343,
      "v": 44
    },
    {
      "midi": 66,
      "hit": false,
      "t": 157195.45968750239,
      "d": 81.16875000001164,
      "v": 64
    },
    {
      "midi": 86,
      "hit": false,
      "t": 157199.51812500056,
      "d": 97.40249999999651,
      "v": 86
    },
    {
      "midi": 63,
      "hit": false,
      "t": 157199.5181250024,
      "d": 60.87656249999418,
      "v": 70
    },
    {
      "midi": 59,
      "hit": false,
      "t": 157203.5765625024,
      "d": 68.99343750000116,
      "v": 57
    },
    {
      "midi": 90,
      "hit": false,
      "t": 157207.63500000056,
      "d": 113.63624999998137,
      "v": 91
    },
    {
      "midi": 87,
      "hit": false,
      "t": 157211.69343750057,
      "d": 186.68812499998603,
      "v": 80
    },
    {
      "midi": 90,
      "hit": false,
      "t": 157410.55687500056,
      "d": 109.57781249997788,
      "v": 55
    },
    {
      "midi": 87,
      "hit": false,
      "t": 157499.84250000055,
      "d": 68.99343750000116,
      "v": 46
    },
    {
      "midi": 90,
      "hit": false,
      "t": 157601.30343750055,
      "d": 121.75312500001746,
      "v": 45
    },
    {
      "midi": 87,
      "hit": false,
      "t": 157678.41375000056,
      "d": 64.93499999999767,
      "v": 46
    },
    {
      "midi": 63,
      "hit": false,
      "t": 157771.7578125024,
      "d": 60.87656249999418,
      "v": 87
    },
    {
      "midi": 66,
      "hit": false,
      "t": 157775.8162500024,
      "d": 64.93499999999767,
      "v": 70
    },
    {
      "midi": 59,
      "hit": false,
      "t": 157779.8746875024,
      "d": 64.93499999999767,
      "v": 68
    },
    {
      "midi": 63,
      "hit": false,
      "t": 158356.1728125024,
      "d": 60.87656250002328,
      "v": 70
    },
    {
      "midi": 90,
      "hit": false,
      "t": 158360.23125000056,
      "d": 77.11031250000815,
      "v": 91
    },
    {
      "midi": 87,
      "hit": false,
      "t": 158364.28968750057,
      "d": 73.05187500000466,
      "v": 91
    },
    {
      "midi": 66,
      "hit": false,
      "t": 158364.2896875024,
      "d": 44.64281250000931,
      "v": 60
    },
    {
      "midi": 59,
      "hit": false,
      "t": 158364.2896875024,
      "d": 56.81812500001979,
      "v": 57
    },
    {
      "midi": 60,
      "hit": false,
      "t": 158729.54906250036,
      "d": 2739.445312500029,
      "v": 117
    },
    {
      "midi": 56,
      "hit": false,
      "t": 158737.66593750037,
      "d": 2759.7375000000175,
      "v": 117
    },
    {
      "midi": 51,
      "hit": false,
      "t": 158737.66593750037,
      "d": 2767.8543750000244,
      "v": 94
    },
    {
      "midi": 32,
      "hit": false,
      "t": 158741.72437500037,
      "d": 3323.8603125000373,
      "v": 117
    },
    {
      "midi": 63,
      "hit": false,
      "t": 158753.89968750242,
      "d": 60.87656249999418,
      "v": 70
    },
    {
      "midi": 84,
      "hit": false,
      "t": 158757.9581250006,
      "d": 1197.2390625000116,
      "v": 73
    },
    {
      "midi": 66,
      "hit": false,
      "t": 158757.95812500242,
      "d": 64.93499999999767,
      "v": 64
    },
    {
      "midi": 59,
      "hit": false,
      "t": 158757.95812500242,
      "d": 68.99343750000116,
      "v": 64
    },
    {
      "midi": 87,
      "hit": false,
      "t": 158762.0165625006,
      "d": 1148.5378124999988,
      "v": 91
    },
    {
      "midi": 63,
      "hit": false,
      "t": 159330.19781250242,
      "d": 44.64281250000931,
      "v": 60
    },
    {
      "midi": 60,
      "hit": false,
      "t": 159334.25625000242,
      "d": 32.467499999998836,
      "v": 87
    },
    {
      "midi": 56,
      "hit": false,
      "t": 159334.25625000242,
      "d": 44.64281250000931,
      "v": 47
    },
    {
      "midi": 56,
      "hit": false,
      "t": 159926.78812500244,
      "d": 52.759687499987194,
      "v": 47
    },
    {
      "midi": 63,
      "hit": false,
      "t": 159930.84656250244,
      "d": 48.7012499999837,
      "v": 60
    },
    {
      "midi": 60,
      "hit": false,
      "t": 159934.90500000244,
      "d": 24.35062499999185,
      "v": 87
    },
    {
      "midi": 63,
      "hit": false,
      "t": 160129.71000000244,
      "d": 20.29218749998836,
      "v": 7
    },
    {
      "midi": 92,
      "hit": false,
      "t": 160304.2228125006,
      "d": 255.6815625000163,
      "v": 100
    },
    {
      "midi": 84,
      "hit": false,
      "t": 160308.2812500006,
      "d": 174.51281250000466,
      "v": 86
    },
    {
      "midi": 56,
      "hit": false,
      "t": 160312.33968750242,
      "d": 73.05187500000466,
      "v": 47
    },
    {
      "midi": 63,
      "hit": false,
      "t": 160320.45656250243,
      "d": 56.81812499999069,
      "v": 64
    },
    {
      "midi": 60,
      "hit": false,
      "t": 160324.51500000243,
      "d": 28.409062499995343,
      "v": 87
    },
    {
      "midi": 84,
      "hit": false,
      "t": 160568.02125000063,
      "d": 81.16875000001164,
      "v": 59
    },
    {
      "midi": 92,
      "hit": false,
      "t": 160612.66406250064,
      "d": 182.62968749998254,
      "v": 42
    },
    {
      "midi": 84,
      "hit": false,
      "t": 160734.41718750063,
      "d": 89.28562499998952,
      "v": 52
    },
    {
      "midi": 63,
      "hit": false,
      "t": 160900.81312500243,
      "d": 97.40249999999651,
      "v": 64
    },
    {
      "midi": 56,
      "hit": false,
      "t": 160904.87156250243,
      "d": 64.93499999999767,
      "v": 55
    },
    {
      "midi": 60,
      "hit": false,
      "t": 160908.93000000244,
      "d": 32.467499999998836,
      "v": 87
    },
    {
      "midi": 92,
      "hit": false,
      "t": 160912.9884375006,
      "d": 93.34406249999302,
      "v": 63
    },
    {
      "midi": 84,
      "hit": false,
      "t": 160933.2806250006,
      "d": 68.99343750000116,
      "v": 64
    },
    {
      "midi": 56,
      "hit": false,
      "t": 161481.16968750244,
      "d": 64.93500000002678,
      "v": 51
    },
    {
      "midi": 63,
      "hit": false,
      "t": 161485.22812500244,
      "d": 56.81812500001979,
      "v": 60
    },
    {
      "midi": 60,
      "hit": false,
      "t": 161489.28656250244,
      "d": 36.52593750000233,
      "v": 87
    },
    {
      "midi": 92,
      "hit": false,
      "t": 161509.5787500006,
      "d": 81.16875000001164,
      "v": 83
    },
    {
      "midi": 84,
      "hit": false,
      "t": 161521.7540625006,
      "d": 60.87656249999418,
      "v": 55
    },
    {
      "midi": 56,
      "hit": false,
      "t": 161874.83812500245,
      "d": 85.22718750001513,
      "v": 47
    },
    {
      "midi": 63,
      "hit": false,
      "t": 161878.89656250246,
      "d": 93.34406250002212,
      "v": 55
    },
    {
      "midi": 92,
      "hit": false,
      "t": 161882.9550000006,
      "d": 68.99343750000116,
      "v": 76
    },
    {
      "midi": 60,
      "hit": false,
      "t": 161882.95500000246,
      "d": 36.52593750000233,
      "v": 87
    },
    {
      "midi": 84,
      "hit": false,
      "t": 161887.0134375006,
      "d": 81.16875000001164,
      "v": 67
    },
    {
      "midi": 61,
      "hit": false,
      "t": 162041.23406250039,
      "d": 2499.997500000027,
      "v": 94
    },
    {
      "midi": 53,
      "hit": false,
      "t": 162045.2925000004,
      "d": 2516.2312500000116,
      "v": 91
    },
    {
      "midi": 56,
      "hit": false,
      "t": 162045.2925000004,
      "d": 2528.406562500022,
      "v": 100
    },
    {
      "midi": 37,
      "hit": false,
      "t": 162061.5262500004,
      "d": 3165.5812500000175,
      "v": 100
    },
    {
      "midi": 89,
      "hit": false,
      "t": 162451.13625000062,
      "d": 68.99343750000116,
      "v": 75
    },
    {
      "midi": 61,
      "hit": false,
      "t": 162455.1946875025,
      "d": 60.87656249999418,
      "v": 70
    },
    {
      "midi": 56,
      "hit": false,
      "t": 162459.2531250025,
      "d": 68.99343750000116,
      "v": 55
    },
    {
      "midi": 85,
      "hit": false,
      "t": 162463.31156250063,
      "d": 28.409062499995343,
      "v": 71
    },
    {
      "midi": 65,
      "hit": false,
      "t": 162463.3115625025,
      "d": 68.99343750000116,
      "v": 57
    },
    {
      "midi": 61,
      "hit": false,
      "t": 163039.6096875025,
      "d": 56.81812500001979,
      "v": 64
    },
    {
      "midi": 56,
      "hit": false,
      "t": 163047.7265625025,
      "d": 44.64281250000931,
      "v": 43
    },
    {
      "midi": 65,
      "hit": false,
      "t": 163051.7850000025,
      "d": 56.81812500001979,
      "v": 39
    },
    {
      "midi": 89,
      "hit": false,
      "t": 163072.07718750063,
      "d": 40.58437500000582,
      "v": 61
    },
    {
      "midi": 61,
      "hit": false,
      "t": 163429.21968750254,
      "d": 60.87656249999418,
      "v": 64
    },
    {
      "midi": 56,
      "hit": false,
      "t": 163429.21968750254,
      "d": 64.93499999999767,
      "v": 47
    },
    {
      "midi": 85,
      "hit": false,
      "t": 163437.33656250063,
      "d": 105.51937500000349,
      "v": 76
    },
    {
      "midi": 65,
      "hit": false,
      "t": 163437.33656250255,
      "d": 68.99343750000116,
      "v": 51
    },
    {
      "midi": 89,
      "hit": false,
      "t": 163441.39500000063,
      "d": 385.55156250001164,
      "v": 77
    },
    {
      "midi": 89,
      "hit": false,
      "t": 164001.45937500065,
      "d": 101.4609375,
      "v": 79
    },
    {
      "midi": 61,
      "hit": false,
      "t": 164021.75156250256,
      "d": 64.93499999999767,
      "v": 87
    },
    {
      "midi": 56,
      "hit": false,
      "t": 164025.81000000256,
      "d": 64.93499999999767,
      "v": 55
    },
    {
      "midi": 65,
      "hit": false,
      "t": 164029.86843750256,
      "d": 77.11031250000815,
      "v": 61
    },
    {
      "midi": 61,
      "hit": false,
      "t": 164618.34187500257,
      "d": 56.81812500001979,
      "v": 60
    },
    {
      "midi": 56,
      "hit": false,
      "t": 164622.40031250258,
      "d": 52.7596875000163,
      "v": 47
    },
    {
      "midi": 85,
      "hit": false,
      "t": 164626.45875000066,
      "d": 48.701250000012806,
      "v": 43
    },
    {
      "midi": 65,
      "hit": false,
      "t": 164626.45875000258,
      "d": 64.93500000002678,
      "v": 43
    },
    {
      "midi": 89,
      "hit": false,
      "t": 164634.57562500067,
      "d": 48.701250000012806,
      "v": 59
    },
    {
      "midi": 56,
      "hit": false,
      "t": 164995.7765625026,
      "d": 77.11031250000815,
      "v": 51
    },
    {
      "midi": 85,
      "hit": false,
      "t": 164999.8350000007,
      "d": 56.81812499999069,
      "v": 68
    },
    {
      "midi": 61,
      "hit": false,
      "t": 164999.8350000026,
      "d": 60.87656249999418,
      "v": 64
    },
    {
      "midi": 65,
      "hit": false,
      "t": 164999.8350000026,
      "d": 77.11031250000815,
      "v": 57
    },
    {
      "midi": 89,
      "hit": false,
      "t": 165012.0103125007,
      "d": 24.35062499999185,
      "v": 59
    },
    {
      "midi": 58,
      "hit": false,
      "t": 165166.2309375004,
      "d": 1594.9659375000338,
      "v": 117
    },
    {
      "midi": 54,
      "hit": false,
      "t": 165170.2893750004,
      "d": 1594.9659375000338,
      "v": 90
    },
    {
      "midi": 61,
      "hit": false,
      "t": 165170.2893750004,
      "d": 1603.0828125000407,
      "v": 117
    },
    {
      "midi": 30,
      "hit": false,
      "t": 165178.4062500004,
      "d": 1603.0828125000407,
      "v": 100
    },
    {
      "midi": 82,
      "hit": false,
      "t": 165568.01625000068,
      "d": 68.99343750000116,
      "v": 80
    },
    {
      "midi": 85,
      "hit": false,
      "t": 165572.0746875007,
      "d": 68.99343750000116,
      "v": 73
    },
    {
      "midi": 58,
      "hit": false,
      "t": 165576.1331250026,
      "d": 81.16875000001164,
      "v": 51
    },
    {
      "midi": 61,
      "hit": false,
      "t": 165584.25000000262,
      "d": 40.58437500000582,
      "v": 70
    },
    {
      "midi": 66,
      "hit": false,
      "t": 165588.30843750262,
      "d": 77.11031250000815,
      "v": 43
    },
    {
      "midi": 85,
      "hit": false,
      "t": 166156.4896875007,
      "d": 85.22718750001513,
      "v": 57
    },
    {
      "midi": 82,
      "hit": false,
      "t": 166160.5481250007,
      "d": 73.05187500000466,
      "v": 65
    },
    {
      "midi": 58,
      "hit": false,
      "t": 166160.54812500262,
      "d": 68.99343750000116,
      "v": 43
    },
    {
      "midi": 61,
      "hit": false,
      "t": 166164.60656250262,
      "d": 64.93499999999767,
      "v": 51
    },
    {
      "midi": 66,
      "hit": false,
      "t": 166168.66500000263,
      "d": 64.93499999999767,
      "v": 28
    },
    {
      "midi": 58,
      "hit": false,
      "t": 166546.09968750263,
      "d": 77.11031250000815,
      "v": 51
    },
    {
      "midi": 85,
      "hit": false,
      "t": 166550.15812500071,
      "d": 52.759687499987194,
      "v": 45
    },
    {
      "midi": 82,
      "hit": false,
      "t": 166550.15812500071,
      "d": 64.93499999999767,
      "v": 53
    },
    {
      "midi": 61,
      "hit": false,
      "t": 166550.15812500264,
      "d": 64.93499999999767,
      "v": 64
    },
    {
      "midi": 66,
      "hit": false,
      "t": 166554.21656250264,
      "d": 109.57781250000698,
      "v": 43
    },
    {
      "midi": 82,
      "hit": false,
      "t": 166732.78781250073,
      "d": 146.1037500000093,
      "v": 80
    },
    {
      "midi": 58,
      "hit": false,
      "t": 166732.78781250265,
      "d": 178.57125000000815,
      "v": 64
    },
    {
      "midi": 85,
      "hit": false,
      "t": 166736.84625000073,
      "d": 162.33749999999418,
      "v": 76
    },
    {
      "midi": 54,
      "hit": false,
      "t": 166736.84625000265,
      "d": 186.68812500001513,
      "v": 47
    },
    {
      "midi": 61,
      "hit": false,
      "t": 166740.90468750265,
      "d": 166.39593749999767,
      "v": 55
    },
    {
      "midi": 48,
      "hit": false,
      "t": 173445.44343750077,
      "d": 44.64281249998021,
      "v": 67
    },
    {
      "midi": 50,
      "hit": false,
      "t": 173469.79406250076,
      "d": 48.701250000012806,
      "v": 73
    },
    {
      "midi": 52,
      "hit": false,
      "t": 173506.32000000076,
      "d": 36.52593750003143,
      "v": 68
    },
    {
      "midi": 53,
      "hit": false,
      "t": 173530.67062500078,
      "d": 32.46750000002794,
      "v": 94
    },
    {
      "midi": 55,
      "hit": false,
      "t": 173550.9628125008,
      "d": 24.350625000020955,
      "v": 108
    },
    {
      "midi": 57,
      "hit": false,
      "t": 173567.19656250082,
      "d": 24.350625000020955,
      "v": 97
    },
    {
      "midi": 59,
      "hit": false,
      "t": 173583.43031250083,
      "d": 20.292187500017462,
      "v": 104
    },
    {
      "midi": 60,
      "hit": false,
      "t": 173599.66406250084,
      "d": 20.292187500017462,
      "v": 97
    },
    {
      "midi": 62,
      "hit": false,
      "t": 173607.78093750085,
      "d": 24.350625000020955,
      "v": 122
    },
    {
      "midi": 64,
      "hit": false,
      "t": 173624.01468750086,
      "d": 16.23375000001397,
      "v": 117
    },
    {
      "midi": 65,
      "hit": false,
      "t": 173632.13156250087,
      "d": 20.292187500017462,
      "v": 101
    },
    {
      "midi": 67,
      "hit": false,
      "t": 173644.30687500088,
      "d": 20.292187500017462,
      "v": 122
    },
    {
      "midi": 69,
      "hit": false,
      "t": 173656.4821875009,
      "d": 20.292187500017462,
      "v": 113
    },
    {
      "midi": 71,
      "hit": false,
      "t": 173664.5990625009,
      "d": 20.292187500017462,
      "v": 113
    },
    {
      "midi": 72,
      "hit": false,
      "t": 173672.7159375009,
      "d": 20.292187500017462,
      "v": 117
    },
    {
      "midi": 74,
      "hit": false,
      "t": 173684.89125000092,
      "d": 20.292187500017462,
      "v": 122
    },
    {
      "midi": 76,
      "hit": false,
      "t": 173697.06656250093,
      "d": 16.23375000001397,
      "v": 122
    },
    {
      "midi": 77,
      "hit": false,
      "t": 173709.24187500094,
      "d": 16.23375000001397,
      "v": 101
    },
    {
      "midi": 79,
      "hit": false,
      "t": 173717.35875000095,
      "d": 20.292187500017462,
      "v": 113
    },
    {
      "midi": 81,
      "hit": false,
      "t": 173729.53406250096,
      "d": 20.292187500017462,
      "v": 113
    },
    {
      "midi": 83,
      "hit": false,
      "t": 173737.65093750096,
      "d": 20.292187500017462,
      "v": 108
    },
    {
      "midi": 84,
      "hit": false,
      "t": 173749.82625000097,
      "d": 20.292187500017462,
      "v": 122
    },
    {
      "midi": 86,
      "hit": false,
      "t": 173762.00156250098,
      "d": 20.292187500017462,
      "v": 122
    },
    {
      "midi": 88,
      "hit": false,
      "t": 173770.118437501,
      "d": 20.292187500017462,
      "v": 122
    },
    {
      "midi": 89,
      "hit": false,
      "t": 173782.293750001,
      "d": 24.350625000020955,
      "v": 127
    },
    {
      "midi": 91,
      "hit": false,
      "t": 173794.469062501,
      "d": 24.350625000020955,
      "v": 122
    },
    {
      "midi": 93,
      "hit": false,
      "t": 173806.64437500102,
      "d": 28.409062500024447,
      "v": 117
    },
    {
      "midi": 95,
      "hit": false,
      "t": 173826.93656250104,
      "d": 28.409062500024447,
      "v": 101
    },
    {
      "midi": 96,
      "hit": false,
      "t": 173843.17031250105,
      "d": 133.92843750002794,
      "v": 108
    },
    {
      "midi": 95,
      "hit": false,
      "t": 173973.04031250108,
      "d": 24.35062499999185,
      "v": 86
    },
    {
      "midi": 94,
      "hit": false,
      "t": 174005.50781250108,
      "d": 16.23375000001397,
      "v": 80
    },
    {
      "midi": 92,
      "hit": false,
      "t": 174037.9753125011,
      "d": 20.29218749998836,
      "v": 87
    },
    {
      "midi": 90,
      "hit": false,
      "t": 174062.3259375011,
      "d": 24.35062499999185,
      "v": 73
    },
    {
      "midi": 87,
      "hit": false,
      "t": 174102.9103125011,
      "d": 28.409062499995343,
      "v": 83
    },
    {
      "midi": 85,
      "hit": false,
      "t": 174131.3193750011,
      "d": 24.35062499999185,
      "v": 110
    },
    {
      "midi": 82,
      "hit": false,
      "t": 174171.9037500011,
      "d": 28.409062499995343,
      "v": 95
    },
    {
      "midi": 80,
      "hit": false,
      "t": 174196.2543750011,
      "d": 24.35062499999185,
      "v": 127
    },
    {
      "midi": 78,
      "hit": false,
      "t": 174224.6634375011,
      "d": 24.35062499999185,
      "v": 104
    },
    {
      "midi": 75,
      "hit": false,
      "t": 174261.1893750011,
      "d": 32.467499999998836,
      "v": 87
    },
    {
      "midi": 73,
      "hit": false,
      "t": 174289.5984375011,
      "d": 28.409062499995343,
      "v": 127
    },
    {
      "midi": 70,
      "hit": false,
      "t": 174334.2412500011,
      "d": 28.409062499995343,
      "v": 83
    },
    {
      "midi": 68,
      "hit": false,
      "t": 174366.7087500011,
      "d": 24.35062499999185,
      "v": 110
    },
    {
      "midi": 66,
      "hit": false,
      "t": 174395.1178125011,
      "d": 24.35062499999185,
      "v": 104
    },
    {
      "midi": 63,
      "hit": false,
      "t": 174439.76062500107,
      "d": 24.35062499999185,
      "v": 83
    },
    {
      "midi": 61,
      "hit": false,
      "t": 174468.16968750107,
      "d": 20.29218749998836,
      "v": 100
    },
    {
      "midi": 58,
      "hit": false,
      "t": 174512.81250000105,
      "d": 24.35062499999185,
      "v": 87
    },
    {
      "midi": 35,
      "hit": false,
      "t": 174533.10468750045,
      "d": 2727.2699999999895,
      "v": 117
    },
    {
      "midi": 51,
      "hit": false,
      "t": 174533.10468750045,
      "d": 2727.2699999999895,
      "v": 100
    },
    {
      "midi": 54,
      "hit": false,
      "t": 174533.10468750045,
      "d": 2727.2699999999895,
      "v": 94
    },
    {
      "midi": 59,
      "hit": false,
      "t": 174533.10468750045,
      "d": 2727.2699999999895,
      "v": 107
    },
    {
      "midi": 56,
      "hit": false,
      "t": 174541.22156250104,
      "d": 20.29218749998836,
      "v": 87
    },
    {
      "midi": 54,
      "hit": false,
      "t": 174565.57218750103,
      "d": 16.23375000001397,
      "v": 110
    },
    {
      "midi": 66,
      "hit": false,
      "t": 174922.71468750265,
      "d": 68.99343750000116,
      "v": 64
    },
    {
      "midi": 63,
      "hit": false,
      "t": 174922.71468750265,
      "d": 77.11031250000815,
      "v": 70
    },
    {
      "midi": 59,
      "hit": false,
      "t": 174926.77312500266,
      "d": 68.99343750000116,
      "v": 64
    },
    {
      "midi": 66,
      "hit": false,
      "t": 175499.01281250265,
      "d": 68.99343750000116,
      "v": 60
    },
    {
      "midi": 63,
      "hit": false,
      "t": 175503.07125000266,
      "d": 52.759687499987194,
      "v": 60
    },
    {
      "midi": 59,
      "hit": false,
      "t": 175503.07125000266,
      "d": 68.99343750000116,
      "v": 64
    },
    {
      "midi": 66,
      "hit": false,
      "t": 175888.62281250267,
      "d": 89.28562500001863,
      "v": 60
    },
    {
      "midi": 63,
      "hit": false,
      "t": 175892.68125000267,
      "d": 64.93499999999767,
      "v": 60
    },
    {
      "midi": 59,
      "hit": false,
      "t": 175896.73968750268,
      "d": 73.05187500000466,
      "v": 64
    },
    {
      "midi": 63,
      "hit": false,
      "t": 176477.09625000268,
      "d": 68.99343750000116,
      "v": 64
    },
    {
      "midi": 66,
      "hit": false,
      "t": 176477.09625000268,
      "d": 73.05187500000466,
      "v": 55
    },
    {
      "midi": 59,
      "hit": false,
      "t": 176481.15468750268,
      "d": 81.16875000001164,
      "v": 68
    },
    {
      "midi": 63,
      "hit": false,
      "t": 177057.45281250268,
      "d": 56.81812500001979,
      "v": 60
    },
    {
      "midi": 66,
      "hit": false,
      "t": 177061.5112500027,
      "d": 56.81812500001979,
      "v": 55
    },
    {
      "midi": 59,
      "hit": false,
      "t": 177065.5696875027,
      "d": 64.93500000002678,
      "v": 61
    },
    {
      "midi": 66,
      "hit": false,
      "t": 177447.06281250273,
      "d": 85.22718750001513,
      "v": 64
    },
    {
      "midi": 59,
      "hit": false,
      "t": 177451.12125000273,
      "d": 68.99343750000116,
      "v": 57
    },
    {
      "midi": 63,
      "hit": false,
      "t": 177451.12125000273,
      "d": 73.05187500000466,
      "v": 64
    },
    {
      "midi": 35,
      "hit": false,
      "t": 177649.98468750043,
      "d": 3116.8800000000047,
      "v": 117
    },
    {
      "midi": 51,
      "hit": false,
      "t": 177649.98468750043,
      "d": 3116.8800000000047,
      "v": 94
    },
    {
      "midi": 54,
      "hit": false,
      "t": 177649.98468750043,
      "d": 3116.8800000000047,
      "v": 100
    },
    {
      "midi": 59,
      "hit": false,
      "t": 177649.98468750043,
      "d": 3116.8800000000047,
      "v": 107
    },
    {
      "midi": 66,
      "hit": false,
      "t": 178047.71156250275,
      "d": 73.05187500003376,
      "v": 64
    },
    {
      "midi": 63,
      "hit": false,
      "t": 178051.77000000275,
      "d": 52.7596875000163,
      "v": 70
    },
    {
      "midi": 59,
      "hit": false,
      "t": 178055.82843750276,
      "d": 73.05187500003376,
      "v": 73
    },
    {
      "midi": 59,
      "hit": false,
      "t": 178615.8928125028,
      "d": 73.05187500003376,
      "v": 57
    },
    {
      "midi": 63,
      "hit": false,
      "t": 178619.9512500028,
      "d": 48.701250000012806,
      "v": 55
    },
    {
      "midi": 66,
      "hit": false,
      "t": 178619.9512500028,
      "d": 56.81812500001979,
      "v": 47
    },
    {
      "midi": 66,
      "hit": false,
      "t": 179009.56125000285,
      "d": 77.11031250003725,
      "v": 60
    },
    {
      "midi": 63,
      "hit": false,
      "t": 179013.61968750285,
      "d": 64.93500000002678,
      "v": 64
    },
    {
      "midi": 59,
      "hit": false,
      "t": 179017.67812500286,
      "d": 64.93500000002678,
      "v": 61
    },
    {
      "midi": 61,
      "hit": false,
      "t": 179029.85343750287,
      "d": 12.175312500010477,
      "v": 25
    },
    {
      "midi": 63,
      "hit": false,
      "t": 179589.91781250288,
      "d": 73.05187500000466,
      "v": 60
    },
    {
      "midi": 59,
      "hit": false,
      "t": 179593.9762500029,
      "d": 77.11031250000815,
      "v": 61
    },
    {
      "midi": 66,
      "hit": false,
      "t": 179593.9762500029,
      "d": 85.22718750001513,
      "v": 60
    },
    {
      "midi": 66,
      "hit": false,
      "t": 180166.21593750292,
      "d": 81.16875000001164,
      "v": 55
    },
    {
      "midi": 63,
      "hit": false,
      "t": 180170.27437500292,
      "d": 60.87656249999418,
      "v": 51
    },
    {
      "midi": 59,
      "hit": false,
      "t": 180174.33281250292,
      "d": 64.93499999999767,
      "v": 54
    },
    {
      "midi": 66,
      "hit": false,
      "t": 180551.76750000293,
      "d": 117.69468750001397,
      "v": 55
    },
    {
      "midi": 63,
      "hit": false,
      "t": 180555.82593750293,
      "d": 73.05187500000466,
      "v": 51
    },
    {
      "midi": 59,
      "hit": false,
      "t": 180559.88437500293,
      "d": 81.16875000001164,
      "v": 54
    },
    {
      "midi": 35,
      "hit": false,
      "t": 180766.86468750043,
      "d": 2727.2699999999895,
      "v": 117
    },
    {
      "midi": 51,
      "hit": false,
      "t": 180766.86468750043,
      "d": 2727.2699999999895,
      "v": 100
    },
    {
      "midi": 54,
      "hit": false,
      "t": 180766.86468750043,
      "d": 2727.2699999999895,
      "v": 94
    },
    {
      "midi": 59,
      "hit": false,
      "t": 180766.86468750043,
      "d": 2727.2699999999895,
      "v": 107
    },
    {
      "midi": 66,
      "hit": false,
      "t": 181148.35781250295,
      "d": 117.69468750001397,
      "v": 60
    },
    {
      "midi": 63,
      "hit": false,
      "t": 181152.41625000295,
      "d": 64.93499999999767,
      "v": 60
    },
    {
      "midi": 59,
      "hit": false,
      "t": 181156.47468750295,
      "d": 93.34406249999302,
      "v": 64
    },
    {
      "midi": 66,
      "hit": false,
      "t": 181749.00656250297,
      "d": 97.40249999999651,
      "v": 55
    },
    {
      "midi": 63,
      "hit": false,
      "t": 181753.06500000297,
      "d": 56.81812499999069,
      "v": 55
    },
    {
      "midi": 59,
      "hit": false,
      "t": 181757.12343750297,
      "d": 68.99343750000116,
      "v": 61
    },
    {
      "midi": 63,
      "hit": false,
      "t": 182134.55812500295,
      "d": 60.87656249999418,
      "v": 60
    },
    {
      "midi": 66,
      "hit": false,
      "t": 182134.55812500295,
      "d": 81.16875000001164,
      "v": 55
    },
    {
      "midi": 59,
      "hit": false,
      "t": 182138.61656250295,
      "d": 68.99343750000116,
      "v": 54
    },
    {
      "midi": 66,
      "hit": false,
      "t": 182698.68093750297,
      "d": 89.28562499998952,
      "v": 55
    },
    {
      "midi": 63,
      "hit": false,
      "t": 182702.73937500297,
      "d": 60.87656249999418,
      "v": 60
    },
    {
      "midi": 59,
      "hit": false,
      "t": 182706.79781250298,
      "d": 77.11031249997905,
      "v": 61
    },
    {
      "midi": 63,
      "hit": false,
      "t": 183307.44656250297,
      "d": 60.87656249999418,
      "v": 60
    },
    {
      "midi": 66,
      "hit": false,
      "t": 183307.44656250297,
      "d": 73.05187500000466,
      "v": 55
    },
    {
      "midi": 59,
      "hit": false,
      "t": 183311.50500000297,
      "d": 60.87656249999418,
      "v": 57
    },
    {
      "midi": 66,
      "hit": false,
      "t": 183692.99812500298,
      "d": 93.34406249999302,
      "v": 60
    },
    {
      "midi": 63,
      "hit": false,
      "t": 183697.05656250298,
      "d": 52.759687499987194,
      "v": 64
    },
    {
      "midi": 59,
      "hit": false,
      "t": 183697.05656250298,
      "d": 73.05187499997555,
      "v": 61
    },
    {
      "midi": 35,
      "hit": false,
      "t": 183883.7446875004,
      "d": 3116.8800000000047,
      "v": 117
    },
    {
      "midi": 51,
      "hit": false,
      "t": 183883.7446875004,
      "d": 3116.8800000000047,
      "v": 94
    },
    {
      "midi": 54,
      "hit": false,
      "t": 183883.7446875004,
      "d": 3116.8800000000047,
      "v": 100
    },
    {
      "midi": 59,
      "hit": false,
      "t": 183883.7446875004,
      "d": 3116.8800000000047,
      "v": 107
    },
    {
      "midi": 66,
      "hit": false,
      "t": 184261.17937500298,
      "d": 97.40250000002561,
      "v": 64
    },
    {
      "midi": 59,
      "hit": false,
      "t": 184265.23781250298,
      "d": 81.16875000001164,
      "v": 73
    },
    {
      "midi": 63,
      "hit": false,
      "t": 184269.29625000298,
      "d": 60.87656249999418,
      "v": 70
    },
    {
      "midi": 61,
      "hit": false,
      "t": 184273.354687503,
      "d": 20.29218749998836,
      "v": 36
    },
    {
      "midi": 66,
      "hit": false,
      "t": 184849.652812503,
      "d": 77.11031250000815,
      "v": 55
    },
    {
      "midi": 63,
      "hit": false,
      "t": 184853.711250003,
      "d": 56.81812499999069,
      "v": 60
    },
    {
      "midi": 59,
      "hit": false,
      "t": 184857.769687503,
      "d": 60.87656249999418,
      "v": 64
    },
    {
      "midi": 61,
      "hit": false,
      "t": 184861.828125003,
      "d": 20.29218749998836,
      "v": 40
    },
    {
      "midi": 66,
      "hit": false,
      "t": 185239.262812503,
      "d": 93.34406250002212,
      "v": 60
    },
    {
      "midi": 63,
      "hit": false,
      "t": 185243.321250003,
      "d": 68.99343750000116,
      "v": 70
    },
    {
      "midi": 59,
      "hit": false,
      "t": 185243.321250003,
      "d": 85.22718750001513,
      "v": 64
    },
    {
      "midi": 66,
      "hit": false,
      "t": 185803.38562500302,
      "d": 113.63624999998137,
      "v": 64
    },
    {
      "midi": 59,
      "hit": false,
      "t": 185807.44406250303,
      "d": 89.28562499998952,
      "v": 68
    },
    {
      "midi": 63,
      "hit": false,
      "t": 185811.50250000303,
      "d": 56.81812499999069,
      "v": 70
    },
    {
      "midi": 61,
      "hit": false,
      "t": 185815.56093750303,
      "d": 20.29218749998836,
      "v": 51
    },
    {
      "midi": 59,
      "hit": false,
      "t": 186420.268125003,
      "d": 68.99343750000116,
      "v": 61
    },
    {
      "midi": 63,
      "hit": false,
      "t": 186424.326562503,
      "d": 60.87656249999418,
      "v": 60
    },
    {
      "midi": 66,
      "hit": false,
      "t": 186424.326562503,
      "d": 77.11031250000815,
      "v": 60
    },
    {
      "midi": 61,
      "hit": false,
      "t": 186428.385000003,
      "d": 20.29218749998836,
      "v": 33
    },
    {
      "midi": 66,
      "hit": false,
      "t": 186797.702812503,
      "d": 109.57781250000698,
      "v": 60
    },
    {
      "midi": 63,
      "hit": false,
      "t": 186801.761250003,
      "d": 56.81812500001979,
      "v": 64
    },
    {
      "midi": 59,
      "hit": false,
      "t": 186801.761250003,
      "d": 85.22718750001513,
      "v": 61
    },
    {
      "midi": 61,
      "hit": false,
      "t": 186817.99500000302,
      "d": 16.23375000001397,
      "v": 33
    },
    {
      "midi": 35,
      "hit": false,
      "t": 187000.6246875004,
      "d": 2727.2699999999895,
      "v": 117
    },
    {
      "midi": 51,
      "hit": false,
      "t": 187000.6246875004,
      "d": 2727.2699999999895,
      "v": 100
    },
    {
      "midi": 54,
      "hit": false,
      "t": 187000.6246875004,
      "d": 2727.2699999999895,
      "v": 94
    },
    {
      "midi": 59,
      "hit": false,
      "t": 187000.6246875004,
      "d": 2727.2699999999895,
      "v": 107
    },
    {
      "midi": 66,
      "hit": false,
      "t": 187386.17625000302,
      "d": 105.5193750000326,
      "v": 60
    },
    {
      "midi": 63,
      "hit": false,
      "t": 187390.23468750302,
      "d": 77.11031250000815,
      "v": 60
    },
    {
      "midi": 59,
      "hit": false,
      "t": 187394.29312500302,
      "d": 85.22718750001513,
      "v": 68
    },
    {
      "midi": 66,
      "hit": false,
      "t": 187978.70812500306,
      "d": 89.28562499998952,
      "v": 55
    },
    {
      "midi": 59,
      "hit": false,
      "t": 187982.76656250306,
      "d": 64.93499999999767,
      "v": 64
    },
    {
      "midi": 63,
      "hit": false,
      "t": 187986.82500000307,
      "d": 56.81812499999069,
      "v": 60
    },
    {
      "midi": 66,
      "hit": false,
      "t": 188372.37656250305,
      "d": 97.40249999999651,
      "v": 64
    },
    {
      "midi": 63,
      "hit": false,
      "t": 188376.43500000305,
      "d": 64.93499999999767,
      "v": 70
    },
    {
      "midi": 59,
      "hit": false,
      "t": 188380.49343750306,
      "d": 64.93499999999767,
      "v": 64
    },
    {
      "midi": 59,
      "hit": false,
      "t": 188940.55781250304,
      "d": 73.05187500000466,
      "v": 64
    },
    {
      "midi": 66,
      "hit": false,
      "t": 188944.61625000305,
      "d": 81.16875000001164,
      "v": 60
    },
    {
      "midi": 63,
      "hit": false,
      "t": 188948.67468750305,
      "d": 56.81812499999069,
      "v": 64
    },
    {
      "midi": 66,
      "hit": false,
      "t": 189537.14812500306,
      "d": 85.22718750004424,
      "v": 60
    },
    {
      "midi": 63,
      "hit": false,
      "t": 189541.20656250307,
      "d": 48.701250000012806,
      "v": 55
    },
    {
      "midi": 59,
      "hit": false,
      "t": 189545.26500000307,
      "d": 60.87656250002328,
      "v": 57
    },
    {
      "midi": 59,
      "hit": false,
      "t": 189918.6412500031,
      "d": 85.22718750001513,
      "v": 57
    },
    {
      "midi": 66,
      "hit": false,
      "t": 189922.6996875031,
      "d": 113.63625000001048,
      "v": 60
    },
    {
      "midi": 63,
      "hit": false,
      "t": 189926.7581250031,
      "d": 73.05187500000466,
      "v": 60
    },
    {
      "midi": 35,
      "hit": false,
      "t": 190117.5046875004,
      "d": 3116.8800000000047,
      "v": 117
    },
    {
      "midi": 51,
      "hit": false,
      "t": 190117.5046875004,
      "d": 3116.8800000000047,
      "v": 94
    },
    {
      "midi": 54,
      "hit": false,
      "t": 190117.5046875004,
      "d": 3116.8800000000047,
      "v": 100
    },
    {
      "midi": 59,
      "hit": false,
      "t": 190117.5046875004,
      "d": 3116.8800000000047,
      "v": 107
    },
    {
      "midi": 66,
      "hit": false,
      "t": 190519.29000000312,
      "d": 101.4609375000291,
      "v": 60
    },
    {
      "midi": 59,
      "hit": false,
      "t": 190523.34843750313,
      "d": 81.16875000001164,
      "v": 73
    },
    {
      "midi": 63,
      "hit": false,
      "t": 190527.40687500313,
      "d": 81.16875000001164,
      "v": 70
    },
    {
      "midi": 66,
      "hit": false,
      "t": 191103.70500000316,
      "d": 109.57781250000698,
      "v": 60
    },
    {
      "midi": 59,
      "hit": false,
      "t": 191107.76343750316,
      "d": 73.05187500000466,
      "v": 73
    },
    {
      "midi": 63,
      "hit": false,
      "t": 191111.82187500317,
      "d": 48.701250000012806,
      "v": 64
    },
    {
      "midi": 66,
      "hit": false,
      "t": 191485.19812500317,
      "d": 113.63625000001048,
      "v": 70
    },
    {
      "midi": 63,
      "hit": false,
      "t": 191489.25656250317,
      "d": 77.11031250000815,
      "v": 70
    },
    {
      "midi": 59,
      "hit": false,
      "t": 191493.31500000317,
      "d": 81.16875000001164,
      "v": 64
    },
    {
      "midi": 66,
      "hit": false,
      "t": 192053.3793750032,
      "d": 97.40250000002561,
      "v": 64
    },
    {
      "midi": 63,
      "hit": false,
      "t": 192057.4378125032,
      "d": 73.05187500000466,
      "v": 70
    },
    {
      "midi": 59,
      "hit": false,
      "t": 192057.4378125032,
      "d": 81.16875000001164,
      "v": 77
    },
    {
      "midi": 66,
      "hit": false,
      "t": 192654.0281250032,
      "d": 85.22718750001513,
      "v": 51
    },
    {
      "midi": 63,
      "hit": false,
      "t": 192658.08656250322,
      "d": 60.87656249999418,
      "v": 55
    },
    {
      "midi": 59,
      "hit": false,
      "t": 192658.08656250322,
      "d": 64.93499999999767,
      "v": 61
    },
    {
      "midi": 66,
      "hit": false,
      "t": 193031.46281250322,
      "d": 109.57781250000698,
      "v": 60
    },
    {
      "midi": 63,
      "hit": false,
      "t": 193035.52125000322,
      "d": 73.05187500000466,
      "v": 64
    },
    {
      "midi": 59,
      "hit": false,
      "t": 193039.57968750322,
      "d": 77.11031250000815,
      "v": 61
    },
    {
      "midi": 35,
      "hit": false,
      "t": 193234.3846875004,
      "d": 2727.2699999999895,
      "v": 117
    },
    {
      "midi": 51,
      "hit": false,
      "t": 193234.3846875004,
      "d": 2727.2699999999895,
      "v": 100
    },
    {
      "midi": 54,
      "hit": false,
      "t": 193234.3846875004,
      "d": 2727.2699999999895,
      "v": 94
    },
    {
      "midi": 59,
      "hit": false,
      "t": 193234.3846875004,
      "d": 2727.2699999999895,
      "v": 107
    },
    {
      "midi": 66,
      "hit": false,
      "t": 193619.93625000323,
      "d": 89.28562500001863,
      "v": 64
    },
    {
      "midi": 63,
      "hit": false,
      "t": 193623.99468750323,
      "d": 56.81812499999069,
      "v": 70
    },
    {
      "midi": 59,
      "hit": false,
      "t": 193628.05312500324,
      "d": 68.99343750000116,
      "v": 68
    },
    {
      "midi": 66,
      "hit": false,
      "t": 194212.46812500324,
      "d": 85.22718750001513,
      "v": 47
    },
    {
      "midi": 59,
      "hit": false,
      "t": 194216.52656250325,
      "d": 64.93499999999767,
      "v": 54
    },
    {
      "midi": 63,
      "hit": false,
      "t": 194216.52656250325,
      "d": 64.93499999999767,
      "v": 47
    },
    {
      "midi": 66,
      "hit": false,
      "t": 194602.07812500326,
      "d": 93.34406249999302,
      "v": 60
    },
    {
      "midi": 63,
      "hit": false,
      "t": 194606.13656250326,
      "d": 56.81812499999069,
      "v": 70
    },
    {
      "midi": 59,
      "hit": false,
      "t": 194610.19500000327,
      "d": 77.11031249997905,
      "v": 64
    },
    {
      "midi": 66,
      "hit": false,
      "t": 195174.31781250326,
      "d": 101.4609375,
      "v": 60
    },
    {
      "midi": 63,
      "hit": false,
      "t": 195178.37625000326,
      "d": 68.99343750000116,
      "v": 60
    },
    {
      "midi": 59,
      "hit": false,
      "t": 195182.43468750326,
      "d": 73.05187500000466,
      "v": 73
    },
    {
      "midi": 66,
      "hit": false,
      "t": 195774.96656250325,
      "d": 97.40249999999651,
      "v": 51
    },
    {
      "midi": 63,
      "hit": false,
      "t": 195779.02500000325,
      "d": 68.99343750000116,
      "v": 51
    },
    {
      "midi": 59,
      "hit": false,
      "t": 195783.08343750326,
      "d": 64.93499999999767,
      "v": 54
    },
    {
      "midi": 66,
      "hit": false,
      "t": 196160.51812500323,
      "d": 97.40249999999651,
      "v": 60
    },
    {
      "midi": 63,
      "hit": false,
      "t": 196164.57656250324,
      "d": 64.93499999999767,
      "v": 64
    },
    {
      "midi": 59,
      "hit": false,
      "t": 196168.63500000324,
      "d": 64.93499999999767,
      "v": 54
    },
    {
      "midi": 51,
      "hit": false,
      "t": 196343.1478125004,
      "d": 3124.9968750000116,
      "v": 94
    },
    {
      "midi": 35,
      "hit": false,
      "t": 196343.1478125004,
      "d": 3129.055312500015,
      "v": 117
    },
    {
      "midi": 59,
      "hit": false,
      "t": 196347.2062500004,
      "d": 3092.529375000013,
      "v": 107
    },
    {
      "midi": 54,
      "hit": false,
      "t": 196359.3815625004,
      "d": 3116.8800000000047,
      "v": 100
    },
    {
      "midi": 66,
      "hit": false,
      "t": 196748.99156250322,
      "d": 77.11031250000815,
      "v": 60
    },
    {
      "midi": 59,
      "hit": false,
      "t": 196753.05000000322,
      "d": 73.05187500000466,
      "v": 73
    },
    {
      "midi": 63,
      "hit": false,
      "t": 196757.10843750322,
      "d": 48.701250000012806,
      "v": 60
    },
    {
      "midi": 66,
      "hit": false,
      "t": 197325.28968750322,
      "d": 101.4609375,
      "v": 47
    },
    {
      "midi": 63,
      "hit": false,
      "t": 197329.34812500322,
      "d": 60.87656249999418,
      "v": 47
    },
    {
      "midi": 59,
      "hit": false,
      "t": 197329.34812500322,
      "d": 73.05187500000466,
      "v": 57
    },
    {
      "midi": 66,
      "hit": false,
      "t": 197706.78281250322,
      "d": 113.63625000001048,
      "v": 60
    },
    {
      "midi": 59,
      "hit": false,
      "t": 197714.89968750323,
      "d": 73.05187500000466,
      "v": 68
    },
    {
      "midi": 63,
      "hit": false,
      "t": 197714.89968750323,
      "d": 77.11031250000815,
      "v": 64
    },
    {
      "midi": 66,
      "hit": false,
      "t": 198291.19781250323,
      "d": 93.34406250002212,
      "v": 55
    },
    {
      "midi": 59,
      "hit": false,
      "t": 198295.25625000324,
      "d": 73.05187500000466,
      "v": 64
    },
    {
      "midi": 63,
      "hit": false,
      "t": 198299.31468750324,
      "d": 56.81812499999069,
      "v": 60
    },
    {
      "midi": 66,
      "hit": false,
      "t": 198891.84656250325,
      "d": 73.05187500003376,
      "v": 47
    },
    {
      "midi": 59,
      "hit": false,
      "t": 198895.90500000326,
      "d": 64.93500000002678,
      "v": 64
    },
    {
      "midi": 63,
      "hit": false,
      "t": 198899.96343750326,
      "d": 48.701250000012806,
      "v": 51
    },
    {
      "midi": 59,
      "hit": false,
      "t": 199269.2812500033,
      "d": 89.28562500001863,
      "v": 64
    },
    {
      "midi": 63,
      "hit": false,
      "t": 199273.3396875033,
      "d": 73.05187500000466,
      "v": 60
    },
    {
      "midi": 66,
      "hit": false,
      "t": 199273.3396875033,
      "d": 109.57781250000698,
      "v": 60
    }
  ]
}