{
  "jsonPath": "Rock/Country Rock/Brooks  Dunn/lost-and-found.json",
  "path": "Rock\\Country Rock\\Brooks  Dunn\\Lost And Found.mid",
  "name": "Lost And Found",
  "difficulty": "Advanced",
  "bpm": 120,
  "notes": [
    {
      "midi": 64,
      "hit": false,
      "t": 12000,
      "d": 3557.291666666668,
      "v": 91
    },
    {
      "midi": 52,
      "hit": false,
      "t": 12000,
      "d": 3570.312500000002,
      "v": 109
    },
    {
      "midi": 68,
      "hit": false,
      "t": 12000,
      "d": 3593.750000000002,
      "v": 97
    },
    {
      "midi": 40,
      "hit": false,
      "t": 12000,
      "d": 3606.7708333333358,
      "v": 99
    },
    {
      "midi": 59,
      "hit": false,
      "t": 12000,
      "d": 3617.187500000002,
      "v": 102
    },
    {
      "midi": 63,
      "hit": false,
      "t": 16000.000000000002,
      "d": 3614.5833333333303,
      "v": 104
    },
    {
      "midi": 66,
      "hit": false,
      "t": 16000.000000000002,
      "d": 3635.4166666666624,
      "v": 99
    },
    {
      "midi": 47,
      "hit": false,
      "t": 16000.000000000002,
      "d": 3640.6249999999945,
      "v": 102
    },
    {
      "midi": 59,
      "hit": false,
      "t": 16000.000000000002,
      "d": 3640.6249999999945,
      "v": 102
    },
    {
      "midi": 35,
      "hit": false,
      "t": 16000.000000000002,
      "d": 3656.2499999999945,
      "v": 104
    },
    {
      "midi": 57,
      "hit": false,
      "t": 19999.999999999996,
      "d": 1632.8125,
      "v": 99
    },
    {
      "midi": 61,
      "hit": false,
      "t": 19999.999999999996,
      "d": 1632.8125,
      "v": 95
    },
    {
      "midi": 64,
      "hit": false,
      "t": 19999.999999999996,
      "d": 1638.0208333333321,
      "v": 97
    },
    {
      "midi": 45,
      "hit": false,
      "t": 19999.999999999996,
      "d": 1674.4791666666642,
      "v": 102
    },
    {
      "midi": 33,
      "hit": false,
      "t": 19999.999999999996,
      "d": 1677.0833333333321,
      "v": 99
    },
    {
      "midi": 63,
      "hit": false,
      "t": 21999.999999999993,
      "d": 1533.8541666666679,
      "v": 106
    },
    {
      "midi": 35,
      "hit": false,
      "t": 21999.999999999993,
      "d": 1544.2708333333358,
      "v": 97
    },
    {
      "midi": 59,
      "hit": false,
      "t": 21999.999999999993,
      "d": 1544.2708333333358,
      "v": 102
    },
    {
      "midi": 66,
      "hit": false,
      "t": 21999.999999999993,
      "d": 1549.4791666666679,
      "v": 104
    },
    {
      "midi": 47,
      "hit": false,
      "t": 21999.999999999993,
      "d": 1591.1458333333358,
      "v": 97
    },
    {
      "midi": 64,
      "hit": false,
      "t": 23999.999999999996,
      "d": 3973.958333333332,
      "v": 106
    },
    {
      "midi": 40,
      "hit": false,
      "t": 23999.999999999996,
      "d": 3986.9791666666642,
      "v": 102
    },
    {
      "midi": 68,
      "hit": false,
      "t": 23999.999999999996,
      "d": 3986.9791666666642,
      "v": 104
    },
    {
      "midi": 52,
      "hit": false,
      "t": 23999.999999999996,
      "d": 3992.1874999999964,
      "v": 106
    },
    {
      "midi": 59,
      "hit": false,
      "t": 23999.999999999996,
      "d": 3992.1874999999964,
      "v": 104
    },
    {
      "midi": 64,
      "hit": false,
      "t": 27999.999999999993,
      "d": 3557.2916666666642,
      "v": 91
    },
    {
      "midi": 52,
      "hit": false,
      "t": 27999.999999999993,
      "d": 3570.3124999999964,
      "v": 109
    },
    {
      "midi": 68,
      "hit": false,
      "t": 27999.999999999993,
      "d": 3593.7499999999964,
      "v": 97
    },
    {
      "midi": 40,
      "hit": false,
      "t": 27999.999999999993,
      "d": 3606.7708333333285,
      "v": 99
    },
    {
      "midi": 59,
      "hit": false,
      "t": 27999.999999999993,
      "d": 3617.1874999999964,
      "v": 102
    },
    {
      "midi": 63,
      "hit": false,
      "t": 31999.99999999999,
      "d": 3614.583333333332,
      "v": 104
    },
    {
      "midi": 66,
      "hit": false,
      "t": 31999.99999999999,
      "d": 3635.416666666668,
      "v": 99
    },
    {
      "midi": 47,
      "hit": false,
      "t": 31999.99999999999,
      "d": 3640.6250000000036,
      "v": 102
    },
    {
      "midi": 59,
      "hit": false,
      "t": 31999.99999999999,
      "d": 3640.6250000000036,
      "v": 102
    },
    {
      "midi": 35,
      "hit": false,
      "t": 31999.99999999999,
      "d": 3656.2500000000036,
      "v": 104
    },
    {
      "midi": 57,
      "hit": false,
      "t": 35999.99999999999,
      "d": 1632.8125,
      "v": 99
    },
    {
      "midi": 61,
      "hit": false,
      "t": 35999.99999999999,
      "d": 1632.8125,
      "v": 95
    },
    {
      "midi": 64,
      "hit": false,
      "t": 35999.99999999999,
      "d": 1638.0208333333358,
      "v": 97
    },
    {
      "midi": 45,
      "hit": false,
      "t": 35999.99999999999,
      "d": 1674.4791666666715,
      "v": 102
    },
    {
      "midi": 33,
      "hit": false,
      "t": 35999.99999999999,
      "d": 1677.0833333333358,
      "v": 99
    },
    {
      "midi": 63,
      "hit": false,
      "t": 38000,
      "d": 1533.8541666666642,
      "v": 106
    },
    {
      "midi": 35,
      "hit": false,
      "t": 38000,
      "d": 1544.2708333333285,
      "v": 97
    },
    {
      "midi": 59,
      "hit": false,
      "t": 38000,
      "d": 1544.2708333333285,
      "v": 102
    },
    {
      "midi": 66,
      "hit": false,
      "t": 38000,
      "d": 1549.4791666666642,
      "v": 104
    },
    {
      "midi": 47,
      "hit": false,
      "t": 38000,
      "d": 1591.1458333333285,
      "v": 97
    },
    {
      "midi": 64,
      "hit": false,
      "t": 39999.99999999999,
      "d": 3973.9583333333358,
      "v": 106
    },
    {
      "midi": 40,
      "hit": false,
      "t": 39999.99999999999,
      "d": 3986.9791666666715,
      "v": 102
    },
    {
      "midi": 68,
      "hit": false,
      "t": 39999.99999999999,
      "d": 3986.9791666666715,
      "v": 104
    },
    {
      "midi": 52,
      "hit": false,
      "t": 39999.99999999999,
      "d": 3992.1875000000073,
      "v": 106
    },
    {
      "midi": 59,
      "hit": false,
      "t": 39999.99999999999,
      "d": 3992.1875000000073,
      "v": 104
    },
    {
      "midi": 64,
      "hit": false,
      "t": 76000,
      "d": 3557.291666666657,
      "v": 91
    },
    {
      "midi": 52,
      "hit": false,
      "t": 76000,
      "d": 3570.3124999999854,
      "v": 109
    },
    {
      "midi": 68,
      "hit": false,
      "t": 76000,
      "d": 3593.7499999999854,
      "v": 97
    },
    {
      "midi": 40,
      "hit": false,
      "t": 76000,
      "d": 3606.770833333314,
      "v": 99
    },
    {
      "midi": 59,
      "hit": false,
      "t": 76000,
      "d": 3617.1874999999854,
      "v": 102
    },
    {
      "midi": 63,
      "hit": false,
      "t": 79999.99999999999,
      "d": 3614.5833333333285,
      "v": 104
    },
    {
      "midi": 66,
      "hit": false,
      "t": 79999.99999999999,
      "d": 3635.416666666657,
      "v": 99
    },
    {
      "midi": 47,
      "hit": false,
      "t": 79999.99999999999,
      "d": 3640.6249999999854,
      "v": 102
    },
    {
      "midi": 59,
      "hit": false,
      "t": 79999.99999999999,
      "d": 3640.6249999999854,
      "v": 102
    },
    {
      "midi": 35,
      "hit": false,
      "t": 79999.99999999999,
      "d": 3656.2499999999854,
      "v": 104
    },
    {
      "midi": 57,
      "hit": false,
      "t": 83999.99999999997,
      "d": 1632.8125,
      "v": 99
    },
    {
      "midi": 61,
      "hit": false,
      "t": 83999.99999999997,
      "d": 1632.8125,
      "v": 95
    },
    {
      "midi": 64,
      "hit": false,
      "t": 83999.99999999997,
      "d": 1638.0208333333285,
      "v": 97
    },
    {
      "midi": 45,
      "hit": false,
      "t": 83999.99999999997,
      "d": 1674.479166666657,
      "v": 102
    },
    {
      "midi": 33,
      "hit": false,
      "t": 83999.99999999997,
      "d": 1677.0833333333285,
      "v": 99
    },
    {
      "midi": 63,
      "hit": false,
      "t": 85999.99999999996,
      "d": 1533.8541666666715,
      "v": 106
    },
    {
      "midi": 35,
      "hit": false,
      "t": 85999.99999999996,
      "d": 1544.270833333343,
      "v": 97
    },
    {
      "midi": 59,
      "hit": false,
      "t": 85999.99999999996,
      "d": 1544.270833333343,
      "v": 102
    },
    {
      "midi": 66,
      "hit": false,
      "t": 85999.99999999996,
      "d": 1549.4791666666715,
      "v": 104
    },
    {
      "midi": 47,
      "hit": false,
      "t": 85999.99999999996,
      "d": 1591.145833333343,
      "v": 97
    },
    {
      "midi": 64,
      "hit": false,
      "t": 87999.99999999997,
      "d": 3973.9583333333285,
      "v": 106
    },
    {
      "midi": 40,
      "hit": false,
      "t": 87999.99999999997,
      "d": 3986.979166666657,
      "v": 102
    },
    {
      "midi": 68,
      "hit": false,
      "t": 87999.99999999997,
      "d": 3986.979166666657,
      "v": 104
    },
    {
      "midi": 52,
      "hit": false,
      "t": 87999.99999999997,
      "d": 3992.1874999999854,
      "v": 106
    },
    {
      "midi": 59,
      "hit": false,
      "t": 87999.99999999997,
      "d": 3992.1874999999854,
      "v": 104
    },
    {
      "midi": 64,
      "hit": false,
      "t": 91999.99999999996,
      "d": 3557.291666666657,
      "v": 91
    },
    {
      "midi": 52,
      "hit": false,
      "t": 91999.99999999996,
      "d": 3570.3124999999854,
      "v": 109
    },
    {
      "midi": 68,
      "hit": false,
      "t": 91999.99999999996,
      "d": 3593.7499999999854,
      "v": 97
    },
    {
      "midi": 40,
      "hit": false,
      "t": 91999.99999999996,
      "d": 3606.770833333314,
      "v": 99
    },
    {
      "midi": 59,
      "hit": false,
      "t": 91999.99999999996,
      "d": 3617.1874999999854,
      "v": 102
    },
    {
      "midi": 63,
      "hit": false,
      "t": 95999.99999999994,
      "d": 3614.5833333333285,
      "v": 104
    },
    {
      "midi": 66,
      "hit": false,
      "t": 95999.99999999994,
      "d": 3635.416666666657,
      "v": 99
    },
    {
      "midi": 47,
      "hit": false,
      "t": 95999.99999999994,
      "d": 3640.6249999999854,
      "v": 102
    },
    {
      "midi": 59,
      "hit": false,
      "t": 95999.99999999994,
      "d": 3640.6249999999854,
      "v": 102
    },
    {
      "midi": 35,
      "hit": false,
      "t": 95999.99999999994,
      "d": 3656.2499999999854,
      "v": 104
    },
    {
      "midi": 57,
      "hit": false,
      "t": 99999.99999999993,
      "d": 1632.8125,
      "v": 99
    },
    {
      "midi": 61,
      "hit": false,
      "t": 99999.99999999993,
      "d": 1632.8125,
      "v": 95
    },
    {
      "midi": 64,
      "hit": false,
      "t": 99999.99999999993,
      "d": 1638.0208333333285,
      "v": 97
    },
    {
      "midi": 45,
      "hit": false,
      "t": 99999.99999999993,
      "d": 1674.479166666657,
      "v": 102
    },
    {
      "midi": 33,
      "hit": false,
      "t": 99999.99999999993,
      "d": 1677.0833333333285,
      "v": 99
    },
    {
      "midi": 63,
      "hit": false,
      "t": 101999.99999999991,
      "d": 1533.8541666666715,
      "v": 106
    },
    {
      "midi": 35,
      "hit": false,
      "t": 101999.99999999991,
      "d": 1544.270833333343,
      "v": 97
    },
    {
      "midi": 59,
      "hit": false,
      "t": 101999.99999999991,
      "d": 1544.270833333343,
      "v": 102
    },
    {
      "midi": 66,
      "hit": false,
      "t": 101999.99999999991,
      "d": 1549.4791666666715,
      "v": 104
    },
    {
      "midi": 47,
      "hit": false,
      "t": 101999.99999999991,
      "d": 1591.145833333343,
      "v": 97
    },
    {
      "midi": 64,
      "hit": false,
      "t": 103999.99999999993,
      "d": 3973.9583333333285,
      "v": 106
    },
    {
      "midi": 40,
      "hit": false,
      "t": 103999.99999999993,
      "d": 3986.979166666657,
      "v": 102
    },
    {
      "midi": 68,
      "hit": false,
      "t": 103999.99999999993,
      "d": 3986.979166666657,
      "v": 104
    },
    {
      "midi": 52,
      "hit": false,
      "t": 103999.99999999993,
      "d": 3992.1874999999854,
      "v": 106
    },
    {
      "midi": 59,
      "hit": false,
      "t": 103999.99999999993,
      "d": 3992.1874999999854,
      "v": 104
    },
    {
      "midi": 61,
      "hit": false,
      "t": 155999.9999999999,
      "d": 1656.25,
      "v": 109
    },
    {
      "midi": 66,
      "hit": false,
      "t": 155999.9999999999,
      "d": 1666.666666666657,
      "v": 104
    },
    {
      "midi": 57,
      "hit": false,
      "t": 155999.9999999999,
      "d": 1674.479166666657,
      "v": 106
    },
    {
      "midi": 42,
      "hit": false,
      "t": 155999.9999999999,
      "d": 1697.916666666657,
      "v": 112
    },
    {
      "midi": 63,
      "hit": false,
      "t": 157999.9999999999,
      "d": 1502.604166666686,
      "v": 106
    },
    {
      "midi": 59,
      "hit": false,
      "t": 157999.9999999999,
      "d": 1513.020833333343,
      "v": 99
    },
    {
      "midi": 66,
      "hit": false,
      "t": 157999.9999999999,
      "d": 1520.833333333343,
      "v": 109
    },
    {
      "midi": 47,
      "hit": false,
      "t": 157999.9999999999,
      "d": 1544.270833333343,
      "v": 104
    },
    {
      "midi": 64,
      "hit": false,
      "t": 159999.9999999999,
      "d": 3536.458333333314,
      "v": 106
    },
    {
      "midi": 68,
      "hit": false,
      "t": 159999.9999999999,
      "d": 3559.895833333314,
      "v": 104
    },
    {
      "midi": 52,
      "hit": false,
      "t": 159999.9999999999,
      "d": 3570.312499999971,
      "v": 106
    },
    {
      "midi": 40,
      "hit": false,
      "t": 159999.9999999999,
      "d": 3572.916666666628,
      "v": 102
    },
    {
      "midi": 59,
      "hit": false,
      "t": 159999.9999999999,
      "d": 3578.124999999971,
      "v": 109
    },
    {
      "midi": 61,
      "hit": false,
      "t": 163999.99999999988,
      "d": 1492.1875,
      "v": 104
    },
    {
      "midi": 42,
      "hit": false,
      "t": 163999.99999999988,
      "d": 1518.229166666657,
      "v": 106
    },
    {
      "midi": 57,
      "hit": false,
      "t": 163999.99999999988,
      "d": 1531.25,
      "v": 109
    },
    {
      "midi": 66,
      "hit": false,
      "t": 163999.99999999988,
      "d": 1549.479166666657,
      "v": 104
    },
    {
      "midi": 57,
      "hit": false,
      "t": 165999.99999999988,
      "d": 1562.5,
      "v": 109
    },
    {
      "midi": 61,
      "hit": false,
      "t": 165999.99999999988,
      "d": 1570.3125,
      "v": 99
    },
    {
      "midi": 64,
      "hit": false,
      "t": 165999.99999999988,
      "d": 1575.520833333343,
      "v": 99
    },
    {
      "midi": 45,
      "hit": false,
      "t": 165999.99999999988,
      "d": 1593.75,
      "v": 109
    },
    {
      "midi": 63,
      "hit": false,
      "t": 167999.99999999988,
      "d": 3622.395833333314,
      "v": 109
    },
    {
      "midi": 66,
      "hit": false,
      "t": 167999.99999999988,
      "d": 3622.395833333314,
      "v": 109
    },
    {
      "midi": 59,
      "hit": false,
      "t": 167999.99999999988,
      "d": 3643.229166666657,
      "v": 109
    },
    {
      "midi": 47,
      "hit": false,
      "t": 167999.99999999988,
      "d": 3669.270833333314,
      "v": 116
    },
    {
      "midi": 59,
      "hit": false,
      "t": 171999.99999999985,
      "d": 1677.083333333343,
      "v": 97
    },
    {
      "midi": 63,
      "hit": false,
      "t": 171999.99999999985,
      "d": 1677.083333333343,
      "v": 97
    },
    {
      "midi": 66,
      "hit": false,
      "t": 171999.99999999985,
      "d": 1679.6875,
      "v": 97
    },
    {
      "midi": 47,
      "hit": false,
      "t": 171999.99999999985,
      "d": 1734.375,
      "v": 106
    },
    {
      "midi": 71,
      "hit": false,
      "t": 173999.99999999985,
      "d": 682.2916666666861,
      "v": 95
    },
    {
      "midi": 59,
      "hit": false,
      "t": 173999.99999999985,
      "d": 703.1250000000291,
      "v": 99
    },
    {
      "midi": 63,
      "hit": false,
      "t": 173999.99999999985,
      "d": 710.9375000000291,
      "v": 95
    },
    {
      "midi": 66,
      "hit": false,
      "t": 173999.99999999985,
      "d": 726.5625000000291,
      "v": 89
    },
    {
      "midi": 47,
      "hit": false,
      "t": 173999.99999999985,
      "d": 1947.9166666667152,
      "v": 97
    },
    {
      "midi": 59,
      "hit": false,
      "t": 174749.99999999988,
      "d": 361.97916666665697,
      "v": 97
    },
    {
      "midi": 66,
      "hit": false,
      "t": 174749.99999999988,
      "d": 539.0625,
      "v": 85
    },
    {
      "midi": 63,
      "hit": false,
      "t": 174749.99999999988,
      "d": 1156.25,
      "v": 97
    },
    {
      "midi": 71,
      "hit": false,
      "t": 174749.99999999988,
      "d": 1184.895833333343,
      "v": 97
    },
    {
      "midi": 59,
      "hit": false,
      "t": 175249.99999999988,
      "d": 679.6875,
      "v": 95
    },
    {
      "midi": 66,
      "hit": false,
      "t": 175499.99999999988,
      "d": 401.04166666665697,
      "v": 89
    }
  ]
}