{
  "jsonPath": "Rock/Country Rock/Brooks  Dunn/neon-moon.json",
  "path": "Rock\\Country Rock\\Brooks  Dunn\\Neon Moon.mid",
  "name": "Neon Moon",
  "difficulty": "Advanced",
  "bpm": 100,
  "notes": [
    {
      "midi": 76,
      "hit": false,
      "t": 2400,
      "d": 310,
      "v": 127
    },
    {
      "midi": 57,
      "hit": false,
      "t": 2400,
      "d": 4367.5,
      "v": 90
    },
    {
      "midi": 64,
      "hit": false,
      "t": 2400,
      "d": 4430,
      "v": 114
    },
    {
      "midi": 61,
      "hit": false,
      "t": 2400,
      "d": 4432.5,
      "v": 108
    },
    {
      "midi": 66,
      "hit": false,
      "t": 2400,
      "d": 4472.5,
      "v": 102
    },
    {
      "midi": 45,
      "hit": false,
      "t": 2400,
      "d": 4495,
      "v": 88
    },
    {
      "midi": 78,
      "hit": false,
      "t": 2700,
      "d": 292.5,
      "v": 108
    },
    {
      "midi": 73,
      "hit": false,
      "t": 3000,
      "d": 312.5,
      "v": 114
    },
    {
      "midi": 76,
      "hit": false,
      "t": 3300,
      "d": 3300,
      "v": 120
    },
    {
      "midi": 64,
      "hit": false,
      "t": 7200,
      "d": 4240,
      "v": 127
    },
    {
      "midi": 57,
      "hit": false,
      "t": 7200,
      "d": 4275,
      "v": 127
    },
    {
      "midi": 71,
      "hit": false,
      "t": 7500,
      "d": 3947.5,
      "v": 108
    },
    {
      "midi": 69,
      "hit": false,
      "t": 7800,
      "d": 335,
      "v": 120
    },
    {
      "midi": 66,
      "hit": false,
      "t": 8100,
      "d": 3315,
      "v": 114
    },
    {
      "midi": 52,
      "hit": false,
      "t": 12000,
      "d": 1497.5,
      "v": 76
    },
    {
      "midi": 57,
      "hit": false,
      "t": 12000,
      "d": 2175,
      "v": 69
    },
    {
      "midi": 61,
      "hit": false,
      "t": 12000,
      "d": 2180,
      "v": 69
    },
    {
      "midi": 64,
      "hit": false,
      "t": 12000,
      "d": 2255,
      "v": 48
    },
    {
      "midi": 45,
      "hit": false,
      "t": 12000,
      "d": 3065,
      "v": 102
    },
    {
      "midi": 52,
      "hit": false,
      "t": 14100,
      "d": 272.5,
      "v": 63
    },
    {
      "midi": 52,
      "hit": false,
      "t": 15900,
      "d": 182.5,
      "v": 114
    },
    {
      "midi": 59,
      "hit": false,
      "t": 16200,
      "d": 187.5,
      "v": 127
    },
    {
      "midi": 64,
      "hit": false,
      "t": 16200,
      "d": 187.5,
      "v": 127
    },
    {
      "midi": 57,
      "hit": false,
      "t": 16800,
      "d": 2762.5,
      "v": 72
    },
    {
      "midi": 61,
      "hit": false,
      "t": 16800,
      "d": 2807.5,
      "v": 93
    },
    {
      "midi": 64,
      "hit": false,
      "t": 16800,
      "d": 2942.5,
      "v": 45
    },
    {
      "midi": 45,
      "hit": false,
      "t": 16800,
      "d": 3840,
      "v": 85
    },
    {
      "midi": 52,
      "hit": false,
      "t": 19500,
      "d": 160,
      "v": 96
    },
    {
      "midi": 57,
      "hit": false,
      "t": 19800,
      "d": 182.5,
      "v": 67
    },
    {
      "midi": 61,
      "hit": false,
      "t": 20100,
      "d": 452.5,
      "v": 120
    },
    {
      "midi": 64,
      "hit": false,
      "t": 20700,
      "d": 120,
      "v": 127
    },
    {
      "midi": 69,
      "hit": false,
      "t": 21600,
      "d": 1942.5,
      "v": 108
    },
    {
      "midi": 66,
      "hit": false,
      "t": 21600,
      "d": 1975,
      "v": 96
    },
    {
      "midi": 62,
      "hit": false,
      "t": 21600,
      "d": 1982.5,
      "v": 108
    },
    {
      "midi": 50,
      "hit": false,
      "t": 22500,
      "d": 1537.5,
      "v": 82
    },
    {
      "midi": 50,
      "hit": false,
      "t": 24900,
      "d": 247.5,
      "v": 108
    },
    {
      "midi": 64,
      "hit": false,
      "t": 25200,
      "d": 540,
      "v": 127
    },
    {
      "midi": 66,
      "hit": false,
      "t": 25800,
      "d": 132.5,
      "v": 127
    },
    {
      "midi": 61,
      "hit": false,
      "t": 26400,
      "d": 670,
      "v": 88
    },
    {
      "midi": 64,
      "hit": false,
      "t": 26400,
      "d": 675,
      "v": 73
    },
    {
      "midi": 57,
      "hit": false,
      "t": 26400,
      "d": 707.5,
      "v": 102
    },
    {
      "midi": 52,
      "hit": false,
      "t": 26400,
      "d": 1952.5,
      "v": 88
    },
    {
      "midi": 45,
      "hit": false,
      "t": 26400,
      "d": 1977.5,
      "v": 127
    },
    {
      "midi": 59,
      "hit": false,
      "t": 27300,
      "d": 190,
      "v": 127
    },
    {
      "midi": 64,
      "hit": false,
      "t": 27300,
      "d": 202.5,
      "v": 127
    },
    {
      "midi": 57,
      "hit": false,
      "t": 28500,
      "d": 680,
      "v": 88
    },
    {
      "midi": 45,
      "hit": false,
      "t": 28800,
      "d": 1802.5,
      "v": 114
    },
    {
      "midi": 52,
      "hit": false,
      "t": 29100,
      "d": 1485,
      "v": 93
    },
    {
      "midi": 57,
      "hit": false,
      "t": 29400,
      "d": 195,
      "v": 84
    },
    {
      "midi": 59,
      "hit": false,
      "t": 29700,
      "d": 120,
      "v": 114
    },
    {
      "midi": 52,
      "hit": false,
      "t": 31200,
      "d": 1497.5,
      "v": 76
    },
    {
      "midi": 57,
      "hit": false,
      "t": 31200,
      "d": 2175,
      "v": 69
    },
    {
      "midi": 61,
      "hit": false,
      "t": 31200,
      "d": 2180,
      "v": 69
    },
    {
      "midi": 64,
      "hit": false,
      "t": 31200,
      "d": 2255,
      "v": 48
    },
    {
      "midi": 45,
      "hit": false,
      "t": 31200,
      "d": 3065,
      "v": 102
    },
    {
      "midi": 78,
      "hit": false,
      "t": 31500,
      "d": 325,
      "v": 127
    },
    {
      "midi": 73,
      "hit": false,
      "t": 31800,
      "d": 310,
      "v": 120
    },
    {
      "midi": 76,
      "hit": false,
      "t": 32100,
      "d": 1712.5,
      "v": 90
    },
    {
      "midi": 52,
      "hit": false,
      "t": 33300,
      "d": 272.5,
      "v": 63
    },
    {
      "midi": 90,
      "hit": false,
      "t": 33900,
      "d": 902.5,
      "v": 88
    },
    {
      "midi": 88,
      "hit": false,
      "t": 34800,
      "d": 557.5,
      "v": 66
    },
    {
      "midi": 52,
      "hit": false,
      "t": 35100,
      "d": 182.5,
      "v": 114
    },
    {
      "midi": 59,
      "hit": false,
      "t": 35400,
      "d": 187.5,
      "v": 127
    },
    {
      "midi": 64,
      "hit": false,
      "t": 35400,
      "d": 187.5,
      "v": 127
    },
    {
      "midi": 85,
      "hit": false,
      "t": 35400,
      "d": 2315,
      "v": 73
    },
    {
      "midi": 57,
      "hit": false,
      "t": 36000,
      "d": 2762.5,
      "v": 72
    },
    {
      "midi": 61,
      "hit": false,
      "t": 36000,
      "d": 2807.5,
      "v": 93
    },
    {
      "midi": 64,
      "hit": false,
      "t": 36000,
      "d": 2942.5,
      "v": 45
    },
    {
      "midi": 45,
      "hit": false,
      "t": 36000,
      "d": 3840,
      "v": 85
    },
    {
      "midi": 52,
      "hit": false,
      "t": 38700,
      "d": 160,
      "v": 96
    },
    {
      "midi": 57,
      "hit": false,
      "t": 39000,
      "d": 182.5,
      "v": 67
    },
    {
      "midi": 61,
      "hit": false,
      "t": 39300,
      "d": 452.5,
      "v": 120
    },
    {
      "midi": 64,
      "hit": false,
      "t": 39900,
      "d": 120,
      "v": 127
    },
    {
      "midi": 69,
      "hit": false,
      "t": 40800,
      "d": 1942.5,
      "v": 108
    },
    {
      "midi": 66,
      "hit": false,
      "t": 40800,
      "d": 1975,
      "v": 96
    },
    {
      "midi": 62,
      "hit": false,
      "t": 40800,
      "d": 1982.5,
      "v": 108
    },
    {
      "midi": 50,
      "hit": false,
      "t": 41700,
      "d": 1537.5,
      "v": 82
    },
    {
      "midi": 50,
      "hit": false,
      "t": 44100,
      "d": 247.5,
      "v": 108
    },
    {
      "midi": 64,
      "hit": false,
      "t": 44400,
      "d": 540,
      "v": 127
    },
    {
      "midi": 66,
      "hit": false,
      "t": 45000,
      "d": 132.5,
      "v": 127
    },
    {
      "midi": 61,
      "hit": false,
      "t": 45600,
      "d": 670,
      "v": 88
    },
    {
      "midi": 64,
      "hit": false,
      "t": 45600,
      "d": 675,
      "v": 73
    },
    {
      "midi": 57,
      "hit": false,
      "t": 45600,
      "d": 707.5,
      "v": 102
    },
    {
      "midi": 52,
      "hit": false,
      "t": 45600,
      "d": 1952.5,
      "v": 88
    },
    {
      "midi": 45,
      "hit": false,
      "t": 45600,
      "d": 1977.5,
      "v": 127
    },
    {
      "midi": 59,
      "hit": false,
      "t": 46500,
      "d": 190,
      "v": 127
    },
    {
      "midi": 64,
      "hit": false,
      "t": 46500,
      "d": 202.5,
      "v": 127
    },
    {
      "midi": 57,
      "hit": false,
      "t": 47700,
      "d": 680,
      "v": 88
    },
    {
      "midi": 45,
      "hit": false,
      "t": 48000,
      "d": 1802.5,
      "v": 114
    },
    {
      "midi": 52,
      "hit": false,
      "t": 48300,
      "d": 1485,
      "v": 93
    },
    {
      "midi": 57,
      "hit": false,
      "t": 48600,
      "d": 195,
      "v": 84
    },
    {
      "midi": 59,
      "hit": false,
      "t": 48900,
      "d": 120,
      "v": 114
    },
    {
      "midi": 62,
      "hit": false,
      "t": 50400,
      "d": 2007.5,
      "v": 93
    },
    {
      "midi": 59,
      "hit": false,
      "t": 50400,
      "d": 2082.5,
      "v": 85
    },
    {
      "midi": 64,
      "hit": false,
      "t": 50400,
      "d": 2145,
      "v": 96
    },
    {
      "midi": 52,
      "hit": false,
      "t": 50400,
      "d": 2197.5,
      "v": 96
    },
    {
      "midi": 68,
      "hit": false,
      "t": 50400,
      "d": 2257.5,
      "v": 93
    },
    {
      "midi": 62,
      "hit": false,
      "t": 52500,
      "d": 300,
      "v": 120
    },
    {
      "midi": 62,
      "hit": false,
      "t": 52800,
      "d": 35,
      "v": 40
    },
    {
      "midi": 68,
      "hit": false,
      "t": 52800,
      "d": 270,
      "v": 114
    },
    {
      "midi": 52,
      "hit": false,
      "t": 55200,
      "d": 1517.5,
      "v": 93
    },
    {
      "midi": 57,
      "hit": false,
      "t": 55200,
      "d": 1915,
      "v": 93
    },
    {
      "midi": 59,
      "hit": false,
      "t": 55200,
      "d": 1932.5,
      "v": 96
    },
    {
      "midi": 61,
      "hit": false,
      "t": 55200,
      "d": 1947.5,
      "v": 102
    },
    {
      "midi": 64,
      "hit": false,
      "t": 55200,
      "d": 1980,
      "v": 93
    },
    {
      "midi": 45,
      "hit": false,
      "t": 55200,
      "d": 4657.5,
      "v": 127
    },
    {
      "midi": 52,
      "hit": false,
      "t": 57000,
      "d": 2872.5,
      "v": 96
    },
    {
      "midi": 76,
      "hit": false,
      "t": 57900,
      "d": 72.5,
      "v": 114
    },
    {
      "midi": 73,
      "hit": false,
      "t": 58200,
      "d": 65,
      "v": 120
    },
    {
      "midi": 71,
      "hit": false,
      "t": 58500,
      "d": 75,
      "v": 114
    },
    {
      "midi": 69,
      "hit": false,
      "t": 59100,
      "d": 70,
      "v": 93
    },
    {
      "midi": 68,
      "hit": false,
      "t": 59400,
      "d": 307.5,
      "v": 88
    },
    {
      "midi": 66,
      "hit": false,
      "t": 59700,
      "d": 87.5,
      "v": 102
    },
    {
      "midi": 62,
      "hit": false,
      "t": 60000,
      "d": 1480,
      "v": 127
    },
    {
      "midi": 57,
      "hit": false,
      "t": 60000,
      "d": 1485,
      "v": 127
    },
    {
      "midi": 66,
      "hit": false,
      "t": 60000,
      "d": 1500,
      "v": 108
    },
    {
      "midi": 50,
      "hit": false,
      "t": 60000,
      "d": 1530,
      "v": 120
    },
    {
      "midi": 64,
      "hit": false,
      "t": 62400,
      "d": 2082.5,
      "v": 108
    },
    {
      "midi": 59,
      "hit": false,
      "t": 62400,
      "d": 2085,
      "v": 93
    },
    {
      "midi": 52,
      "hit": false,
      "t": 62400,
      "d": 2087.5,
      "v": 120
    },
    {
      "midi": 68,
      "hit": false,
      "t": 62400,
      "d": 2087.5,
      "v": 96
    },
    {
      "midi": 62,
      "hit": false,
      "t": 64800,
      "d": 1480,
      "v": 127
    },
    {
      "midi": 57,
      "hit": false,
      "t": 64800,
      "d": 1485,
      "v": 127
    },
    {
      "midi": 66,
      "hit": false,
      "t": 64800,
      "d": 1500,
      "v": 108
    },
    {
      "midi": 50,
      "hit": false,
      "t": 64800,
      "d": 1530,
      "v": 120
    },
    {
      "midi": 64,
      "hit": false,
      "t": 67200,
      "d": 2082.5,
      "v": 108
    },
    {
      "midi": 59,
      "hit": false,
      "t": 67200,
      "d": 2085,
      "v": 93
    },
    {
      "midi": 52,
      "hit": false,
      "t": 67200,
      "d": 2087.5,
      "v": 120
    },
    {
      "midi": 68,
      "hit": false,
      "t": 67200,
      "d": 2087.5,
      "v": 96
    },
    {
      "midi": 62,
      "hit": false,
      "t": 69600,
      "d": 1480,
      "v": 127
    },
    {
      "midi": 57,
      "hit": false,
      "t": 69600,
      "d": 1485,
      "v": 127
    },
    {
      "midi": 66,
      "hit": false,
      "t": 69600,
      "d": 1500,
      "v": 108
    },
    {
      "midi": 50,
      "hit": false,
      "t": 69600,
      "d": 1530,
      "v": 120
    },
    {
      "midi": 64,
      "hit": false,
      "t": 72000,
      "d": 2082.5,
      "v": 108
    },
    {
      "midi": 59,
      "hit": false,
      "t": 72000,
      "d": 2085,
      "v": 93
    },
    {
      "midi": 52,
      "hit": false,
      "t": 72000,
      "d": 2087.5,
      "v": 120
    },
    {
      "midi": 68,
      "hit": false,
      "t": 72000,
      "d": 2087.5,
      "v": 96
    },
    {
      "midi": 64,
      "hit": false,
      "t": 74400,
      "d": 4240,
      "v": 127
    },
    {
      "midi": 57,
      "hit": false,
      "t": 74400,
      "d": 4275,
      "v": 127
    },
    {
      "midi": 71,
      "hit": false,
      "t": 74700,
      "d": 3947.5,
      "v": 108
    },
    {
      "midi": 69,
      "hit": false,
      "t": 75000,
      "d": 335,
      "v": 120
    },
    {
      "midi": 66,
      "hit": false,
      "t": 75300,
      "d": 3315,
      "v": 114
    },
    {
      "midi": 52,
      "hit": false,
      "t": 79200,
      "d": 1497.5,
      "v": 76
    },
    {
      "midi": 57,
      "hit": false,
      "t": 79200,
      "d": 2175,
      "v": 69
    },
    {
      "midi": 61,
      "hit": false,
      "t": 79200,
      "d": 2180,
      "v": 69
    },
    {
      "midi": 64,
      "hit": false,
      "t": 79200,
      "d": 2255,
      "v": 48
    },
    {
      "midi": 45,
      "hit": false,
      "t": 79200,
      "d": 3065,
      "v": 102
    },
    {
      "midi": 78,
      "hit": false,
      "t": 79500,
      "d": 325,
      "v": 127
    },
    {
      "midi": 73,
      "hit": false,
      "t": 79800,
      "d": 310,
      "v": 120
    },
    {
      "midi": 76,
      "hit": false,
      "t": 80100,
      "d": 1712.5,
      "v": 90
    },
    {
      "midi": 52,
      "hit": false,
      "t": 81300,
      "d": 272.5,
      "v": 63
    },
    {
      "midi": 90,
      "hit": false,
      "t": 81900,
      "d": 902.5,
      "v": 88
    },
    {
      "midi": 88,
      "hit": false,
      "t": 82800,
      "d": 557.5,
      "v": 66
    },
    {
      "midi": 52,
      "hit": false,
      "t": 83100,
      "d": 182.5,
      "v": 114
    },
    {
      "midi": 59,
      "hit": false,
      "t": 83400,
      "d": 187.5,
      "v": 127
    },
    {
      "midi": 64,
      "hit": false,
      "t": 83400,
      "d": 187.5,
      "v": 127
    },
    {
      "midi": 85,
      "hit": false,
      "t": 83400,
      "d": 2315,
      "v": 73
    },
    {
      "midi": 57,
      "hit": false,
      "t": 84000,
      "d": 2762.5,
      "v": 72
    },
    {
      "midi": 61,
      "hit": false,
      "t": 84000,
      "d": 2807.5,
      "v": 93
    },
    {
      "midi": 64,
      "hit": false,
      "t": 84000,
      "d": 2942.5,
      "v": 45
    },
    {
      "midi": 45,
      "hit": false,
      "t": 84000,
      "d": 3840,
      "v": 85
    },
    {
      "midi": 52,
      "hit": false,
      "t": 86700,
      "d": 160,
      "v": 96
    },
    {
      "midi": 57,
      "hit": false,
      "t": 87000,
      "d": 182.5,
      "v": 67
    },
    {
      "midi": 61,
      "hit": false,
      "t": 87300,
      "d": 452.5,
      "v": 120
    },
    {
      "midi": 64,
      "hit": false,
      "t": 87900,
      "d": 120,
      "v": 127
    },
    {
      "midi": 69,
      "hit": false,
      "t": 88800,
      "d": 1942.5,
      "v": 108
    },
    {
      "midi": 66,
      "hit": false,
      "t": 88800,
      "d": 1975,
      "v": 96
    },
    {
      "midi": 62,
      "hit": false,
      "t": 88800,
      "d": 1982.5,
      "v": 108
    },
    {
      "midi": 50,
      "hit": false,
      "t": 89700,
      "d": 1537.5,
      "v": 82
    },
    {
      "midi": 50,
      "hit": false,
      "t": 92100,
      "d": 247.5,
      "v": 108
    },
    {
      "midi": 64,
      "hit": false,
      "t": 92400,
      "d": 540,
      "v": 127
    },
    {
      "midi": 66,
      "hit": false,
      "t": 93000,
      "d": 132.5,
      "v": 127
    },
    {
      "midi": 61,
      "hit": false,
      "t": 93600,
      "d": 670,
      "v": 88
    },
    {
      "midi": 64,
      "hit": false,
      "t": 93600,
      "d": 675,
      "v": 73
    },
    {
      "midi": 57,
      "hit": false,
      "t": 93600,
      "d": 707.5,
      "v": 102
    },
    {
      "midi": 52,
      "hit": false,
      "t": 93600,
      "d": 1952.5,
      "v": 88
    },
    {
      "midi": 45,
      "hit": false,
      "t": 93600,
      "d": 1977.5,
      "v": 127
    },
    {
      "midi": 59,
      "hit": false,
      "t": 94500,
      "d": 190,
      "v": 127
    },
    {
      "midi": 64,
      "hit": false,
      "t": 94500,
      "d": 202.5,
      "v": 127
    },
    {
      "midi": 57,
      "hit": false,
      "t": 95700,
      "d": 680,
      "v": 88
    },
    {
      "midi": 45,
      "hit": false,
      "t": 96000,
      "d": 1802.5,
      "v": 114
    },
    {
      "midi": 52,
      "hit": false,
      "t": 96300,
      "d": 1485,
      "v": 93
    },
    {
      "midi": 57,
      "hit": false,
      "t": 96600,
      "d": 195,
      "v": 84
    },
    {
      "midi": 59,
      "hit": false,
      "t": 96900,
      "d": 120,
      "v": 114
    },
    {
      "midi": 52,
      "hit": false,
      "t": 98400,
      "d": 1497.5,
      "v": 76
    },
    {
      "midi": 57,
      "hit": false,
      "t": 98400,
      "d": 2175,
      "v": 69
    },
    {
      "midi": 61,
      "hit": false,
      "t": 98400,
      "d": 2180,
      "v": 69
    },
    {
      "midi": 64,
      "hit": false,
      "t": 98400,
      "d": 2255,
      "v": 48
    },
    {
      "midi": 45,
      "hit": false,
      "t": 98400,
      "d": 3065,
      "v": 102
    },
    {
      "midi": 78,
      "hit": false,
      "t": 98700,
      "d": 325,
      "v": 127
    },
    {
      "midi": 73,
      "hit": false,
      "t": 99000,
      "d": 310,
      "v": 120
    },
    {
      "midi": 76,
      "hit": false,
      "t": 99300,
      "d": 1712.5,
      "v": 90
    },
    {
      "midi": 52,
      "hit": false,
      "t": 100500,
      "d": 272.5,
      "v": 63
    },
    {
      "midi": 90,
      "hit": false,
      "t": 101100,
      "d": 902.5,
      "v": 88
    },
    {
      "midi": 88,
      "hit": false,
      "t": 102000,
      "d": 557.5,
      "v": 66
    },
    {
      "midi": 52,
      "hit": false,
      "t": 102300,
      "d": 182.5,
      "v": 114
    },
    {
      "midi": 59,
      "hit": false,
      "t": 102600,
      "d": 187.5,
      "v": 127
    },
    {
      "midi": 64,
      "hit": false,
      "t": 102600,
      "d": 187.5,
      "v": 127
    },
    {
      "midi": 85,
      "hit": false,
      "t": 102600,
      "d": 2315,
      "v": 73
    },
    {
      "midi": 57,
      "hit": false,
      "t": 103200,
      "d": 2762.5,
      "v": 72
    },
    {
      "midi": 61,
      "hit": false,
      "t": 103200,
      "d": 2807.5,
      "v": 93
    },
    {
      "midi": 64,
      "hit": false,
      "t": 103200,
      "d": 2942.5,
      "v": 45
    },
    {
      "midi": 45,
      "hit": false,
      "t": 103200,
      "d": 3840,
      "v": 85
    },
    {
      "midi": 52,
      "hit": false,
      "t": 105900,
      "d": 160,
      "v": 96
    },
    {
      "midi": 57,
      "hit": false,
      "t": 106200,
      "d": 182.5,
      "v": 67
    },
    {
      "midi": 61,
      "hit": false,
      "t": 106500,
      "d": 452.5,
      "v": 120
    },
    {
      "midi": 64,
      "hit": false,
      "t": 107100,
      "d": 120,
      "v": 127
    },
    {
      "midi": 69,
      "hit": false,
      "t": 108000,
      "d": 1942.5,
      "v": 108
    },
    {
      "midi": 66,
      "hit": false,
      "t": 108000,
      "d": 1975,
      "v": 96
    },
    {
      "midi": 62,
      "hit": false,
      "t": 108000,
      "d": 1982.5,
      "v": 108
    },
    {
      "midi": 50,
      "hit": false,
      "t": 108900,
      "d": 1537.5,
      "v": 82
    },
    {
      "midi": 50,
      "hit": false,
      "t": 111300,
      "d": 247.5,
      "v": 108
    },
    {
      "midi": 64,
      "hit": false,
      "t": 111600,
      "d": 540,
      "v": 127
    },
    {
      "midi": 66,
      "hit": false,
      "t": 112200,
      "d": 132.5,
      "v": 127
    },
    {
      "midi": 61,
      "hit": false,
      "t": 112800,
      "d": 670,
      "v": 88
    },
    {
      "midi": 64,
      "hit": false,
      "t": 112800,
      "d": 675,
      "v": 73
    },
    {
      "midi": 57,
      "hit": false,
      "t": 112800,
      "d": 707.5,
      "v": 102
    },
    {
      "midi": 52,
      "hit": false,
      "t": 112800,
      "d": 1952.5,
      "v": 88
    },
    {
      "midi": 45,
      "hit": false,
      "t": 112800,
      "d": 1977.5,
      "v": 127
    },
    {
      "midi": 59,
      "hit": false,
      "t": 113700,
      "d": 190,
      "v": 127
    },
    {
      "midi": 64,
      "hit": false,
      "t": 113700,
      "d": 202.5,
      "v": 127
    },
    {
      "midi": 57,
      "hit": false,
      "t": 114900,
      "d": 680,
      "v": 88
    },
    {
      "midi": 45,
      "hit": false,
      "t": 115200,
      "d": 1802.5,
      "v": 114
    },
    {
      "midi": 52,
      "hit": false,
      "t": 115500,
      "d": 1485,
      "v": 93
    },
    {
      "midi": 57,
      "hit": false,
      "t": 115800,
      "d": 195,
      "v": 84
    },
    {
      "midi": 59,
      "hit": false,
      "t": 116100,
      "d": 120,
      "v": 114
    },
    {
      "midi": 62,
      "hit": false,
      "t": 117600,
      "d": 2007.5,
      "v": 93
    },
    {
      "midi": 59,
      "hit": false,
      "t": 117600,
      "d": 2082.5,
      "v": 85
    },
    {
      "midi": 64,
      "hit": false,
      "t": 117600,
      "d": 2145,
      "v": 96
    },
    {
      "midi": 52,
      "hit": false,
      "t": 117600,
      "d": 2197.5,
      "v": 96
    },
    {
      "midi": 68,
      "hit": false,
      "t": 117600,
      "d": 2257.5,
      "v": 93
    },
    {
      "midi": 62,
      "hit": false,
      "t": 119700,
      "d": 300,
      "v": 120
    },
    {
      "midi": 62,
      "hit": false,
      "t": 120000,
      "d": 35,
      "v": 40
    },
    {
      "midi": 68,
      "hit": false,
      "t": 120000,
      "d": 270,
      "v": 114
    },
    {
      "midi": 52,
      "hit": false,
      "t": 122400,
      "d": 1517.5,
      "v": 93
    },
    {
      "midi": 57,
      "hit": false,
      "t": 122400,
      "d": 1915,
      "v": 93
    },
    {
      "midi": 59,
      "hit": false,
      "t": 122400,
      "d": 1932.5,
      "v": 96
    },
    {
      "midi": 61,
      "hit": false,
      "t": 122400,
      "d": 1947.5,
      "v": 102
    },
    {
      "midi": 64,
      "hit": false,
      "t": 122400,
      "d": 1980,
      "v": 93
    },
    {
      "midi": 45,
      "hit": false,
      "t": 122400,
      "d": 4657.5,
      "v": 127
    },
    {
      "midi": 52,
      "hit": false,
      "t": 124200,
      "d": 2872.5,
      "v": 96
    },
    {
      "midi": 76,
      "hit": false,
      "t": 125100,
      "d": 72.5,
      "v": 114
    },
    {
      "midi": 73,
      "hit": false,
      "t": 125400,
      "d": 65,
      "v": 120
    },
    {
      "midi": 71,
      "hit": false,
      "t": 125700,
      "d": 75,
      "v": 114
    },
    {
      "midi": 69,
      "hit": false,
      "t": 126300,
      "d": 70,
      "v": 93
    },
    {
      "midi": 68,
      "hit": false,
      "t": 126600,
      "d": 307.5,
      "v": 88
    },
    {
      "midi": 66,
      "hit": false,
      "t": 126900,
      "d": 87.5,
      "v": 102
    },
    {
      "midi": 62,
      "hit": false,
      "t": 127200,
      "d": 1480,
      "v": 127
    },
    {
      "midi": 57,
      "hit": false,
      "t": 127200,
      "d": 1485,
      "v": 127
    },
    {
      "midi": 66,
      "hit": false,
      "t": 127200,
      "d": 1500,
      "v": 108
    },
    {
      "midi": 50,
      "hit": false,
      "t": 127200,
      "d": 1530,
      "v": 120
    },
    {
      "midi": 64,
      "hit": false,
      "t": 129600,
      "d": 2082.5,
      "v": 108
    },
    {
      "midi": 59,
      "hit": false,
      "t": 129600,
      "d": 2085,
      "v": 93
    },
    {
      "midi": 52,
      "hit": false,
      "t": 129600,
      "d": 2087.5,
      "v": 120
    },
    {
      "midi": 68,
      "hit": false,
      "t": 129600,
      "d": 2087.5,
      "v": 96
    },
    {
      "midi": 62,
      "hit": false,
      "t": 132000,
      "d": 1480,
      "v": 127
    },
    {
      "midi": 57,
      "hit": false,
      "t": 132000,
      "d": 1485,
      "v": 127
    },
    {
      "midi": 66,
      "hit": false,
      "t": 132000,
      "d": 1500,
      "v": 108
    },
    {
      "midi": 50,
      "hit": false,
      "t": 132000,
      "d": 1530,
      "v": 120
    },
    {
      "midi": 64,
      "hit": false,
      "t": 134400,
      "d": 2082.5,
      "v": 108
    },
    {
      "midi": 59,
      "hit": false,
      "t": 134400,
      "d": 2085,
      "v": 93
    },
    {
      "midi": 52,
      "hit": false,
      "t": 134400,
      "d": 2087.5,
      "v": 120
    },
    {
      "midi": 68,
      "hit": false,
      "t": 134400,
      "d": 2087.5,
      "v": 96
    },
    {
      "midi": 62,
      "hit": false,
      "t": 136800,
      "d": 1480,
      "v": 127
    },
    {
      "midi": 57,
      "hit": false,
      "t": 136800,
      "d": 1485,
      "v": 127
    },
    {
      "midi": 66,
      "hit": false,
      "t": 136800,
      "d": 1500,
      "v": 108
    },
    {
      "midi": 50,
      "hit": false,
      "t": 136800,
      "d": 1530,
      "v": 120
    },
    {
      "midi": 64,
      "hit": false,
      "t": 139200,
      "d": 2082.5,
      "v": 108
    },
    {
      "midi": 59,
      "hit": false,
      "t": 139200,
      "d": 2085,
      "v": 93
    },
    {
      "midi": 52,
      "hit": false,
      "t": 139200,
      "d": 2087.5,
      "v": 120
    },
    {
      "midi": 68,
      "hit": false,
      "t": 139200,
      "d": 2087.5,
      "v": 96
    },
    {
      "midi": 64,
      "hit": false,
      "t": 141600,
      "d": 4240,
      "v": 127
    },
    {
      "midi": 57,
      "hit": false,
      "t": 141600,
      "d": 4275,
      "v": 127
    },
    {
      "midi": 71,
      "hit": false,
      "t": 141900,
      "d": 3947.5,
      "v": 108
    },
    {
      "midi": 69,
      "hit": false,
      "t": 142200,
      "d": 335,
      "v": 120
    },
    {
      "midi": 66,
      "hit": false,
      "t": 142500,
      "d": 3315,
      "v": 114
    },
    {
      "midi": 52,
      "hit": false,
      "t": 146400,
      "d": 1497.5,
      "v": 76
    },
    {
      "midi": 57,
      "hit": false,
      "t": 146400,
      "d": 2175,
      "v": 69
    },
    {
      "midi": 61,
      "hit": false,
      "t": 146400,
      "d": 2180,
      "v": 69
    },
    {
      "midi": 64,
      "hit": false,
      "t": 146400,
      "d": 2255,
      "v": 48
    },
    {
      "midi": 45,
      "hit": false,
      "t": 146400,
      "d": 3065,
      "v": 102
    },
    {
      "midi": 78,
      "hit": false,
      "t": 146700,
      "d": 325,
      "v": 127
    },
    {
      "midi": 73,
      "hit": false,
      "t": 147000,
      "d": 310,
      "v": 120
    },
    {
      "midi": 76,
      "hit": false,
      "t": 147300,
      "d": 1712.5,
      "v": 90
    },
    {
      "midi": 52,
      "hit": false,
      "t": 148500,
      "d": 272.5,
      "v": 63
    },
    {
      "midi": 90,
      "hit": false,
      "t": 149100,
      "d": 902.5,
      "v": 88
    },
    {
      "midi": 88,
      "hit": false,
      "t": 150000,
      "d": 557.5,
      "v": 66
    },
    {
      "midi": 52,
      "hit": false,
      "t": 150300,
      "d": 182.5,
      "v": 114
    },
    {
      "midi": 59,
      "hit": false,
      "t": 150600,
      "d": 187.5,
      "v": 127
    },
    {
      "midi": 64,
      "hit": false,
      "t": 150600,
      "d": 187.5,
      "v": 127
    },
    {
      "midi": 85,
      "hit": false,
      "t": 150600,
      "d": 2315,
      "v": 73
    },
    {
      "midi": 57,
      "hit": false,
      "t": 151200,
      "d": 2762.5,
      "v": 72
    },
    {
      "midi": 61,
      "hit": false,
      "t": 151200,
      "d": 2807.5,
      "v": 93
    },
    {
      "midi": 64,
      "hit": false,
      "t": 151200,
      "d": 2942.5,
      "v": 45
    },
    {
      "midi": 45,
      "hit": false,
      "t": 151200,
      "d": 3840,
      "v": 85
    },
    {
      "midi": 52,
      "hit": false,
      "t": 153900,
      "d": 160,
      "v": 96
    },
    {
      "midi": 57,
      "hit": false,
      "t": 154200,
      "d": 182.5,
      "v": 67
    },
    {
      "midi": 61,
      "hit": false,
      "t": 154500,
      "d": 452.5,
      "v": 120
    },
    {
      "midi": 64,
      "hit": false,
      "t": 155100,
      "d": 120,
      "v": 127
    },
    {
      "midi": 69,
      "hit": false,
      "t": 156000,
      "d": 1942.5,
      "v": 108
    },
    {
      "midi": 66,
      "hit": false,
      "t": 156000,
      "d": 1975,
      "v": 96
    },
    {
      "midi": 62,
      "hit": false,
      "t": 156000,
      "d": 1982.5,
      "v": 108
    },
    {
      "midi": 50,
      "hit": false,
      "t": 156900,
      "d": 1537.5,
      "v": 82
    },
    {
      "midi": 50,
      "hit": false,
      "t": 159300,
      "d": 247.5,
      "v": 108
    },
    {
      "midi": 64,
      "hit": false,
      "t": 159600,
      "d": 540,
      "v": 127
    },
    {
      "midi": 66,
      "hit": false,
      "t": 160200,
      "d": 132.5,
      "v": 127
    },
    {
      "midi": 61,
      "hit": false,
      "t": 160800,
      "d": 670,
      "v": 88
    },
    {
      "midi": 64,
      "hit": false,
      "t": 160800,
      "d": 675,
      "v": 73
    },
    {
      "midi": 57,
      "hit": false,
      "t": 160800,
      "d": 707.5,
      "v": 102
    },
    {
      "midi": 52,
      "hit": false,
      "t": 160800,
      "d": 1952.5,
      "v": 88
    },
    {
      "midi": 45,
      "hit": false,
      "t": 160800,
      "d": 1977.5,
      "v": 127
    },
    {
      "midi": 59,
      "hit": false,
      "t": 161700,
      "d": 190,
      "v": 127
    },
    {
      "midi": 64,
      "hit": false,
      "t": 161700,
      "d": 202.5,
      "v": 127
    },
    {
      "midi": 57,
      "hit": false,
      "t": 162900,
      "d": 680,
      "v": 88
    },
    {
      "midi": 45,
      "hit": false,
      "t": 163200,
      "d": 1802.5,
      "v": 114
    },
    {
      "midi": 52,
      "hit": false,
      "t": 163500,
      "d": 1485,
      "v": 93
    },
    {
      "midi": 57,
      "hit": false,
      "t": 163800,
      "d": 195,
      "v": 84
    },
    {
      "midi": 59,
      "hit": false,
      "t": 164100,
      "d": 120,
      "v": 114
    },
    {
      "midi": 52,
      "hit": false,
      "t": 165600,
      "d": 1497.5,
      "v": 76
    },
    {
      "midi": 57,
      "hit": false,
      "t": 165600,
      "d": 2175,
      "v": 69
    },
    {
      "midi": 61,
      "hit": false,
      "t": 165600,
      "d": 2180,
      "v": 69
    },
    {
      "midi": 64,
      "hit": false,
      "t": 165600,
      "d": 2255,
      "v": 48
    },
    {
      "midi": 45,
      "hit": false,
      "t": 165600,
      "d": 3065,
      "v": 102
    },
    {
      "midi": 78,
      "hit": false,
      "t": 165900,
      "d": 325,
      "v": 127
    },
    {
      "midi": 73,
      "hit": false,
      "t": 166200,
      "d": 310,
      "v": 120
    },
    {
      "midi": 76,
      "hit": false,
      "t": 166500,
      "d": 1712.5,
      "v": 90
    },
    {
      "midi": 52,
      "hit": false,
      "t": 167700,
      "d": 272.5,
      "v": 63
    },
    {
      "midi": 90,
      "hit": false,
      "t": 168300,
      "d": 902.5,
      "v": 88
    },
    {
      "midi": 88,
      "hit": false,
      "t": 169200,
      "d": 557.5,
      "v": 66
    },
    {
      "midi": 52,
      "hit": false,
      "t": 169500,
      "d": 182.5,
      "v": 114
    },
    {
      "midi": 59,
      "hit": false,
      "t": 169800,
      "d": 187.5,
      "v": 127
    },
    {
      "midi": 64,
      "hit": false,
      "t": 169800,
      "d": 187.5,
      "v": 127
    },
    {
      "midi": 85,
      "hit": false,
      "t": 169800,
      "d": 2315,
      "v": 73
    },
    {
      "midi": 57,
      "hit": false,
      "t": 170400,
      "d": 2762.5,
      "v": 72
    },
    {
      "midi": 61,
      "hit": false,
      "t": 170400,
      "d": 2807.5,
      "v": 93
    },
    {
      "midi": 64,
      "hit": false,
      "t": 170400,
      "d": 2942.5,
      "v": 45
    },
    {
      "midi": 45,
      "hit": false,
      "t": 170400,
      "d": 3840,
      "v": 85
    },
    {
      "midi": 52,
      "hit": false,
      "t": 173100,
      "d": 160,
      "v": 96
    },
    {
      "midi": 57,
      "hit": false,
      "t": 173400,
      "d": 182.5,
      "v": 67
    },
    {
      "midi": 61,
      "hit": false,
      "t": 173700,
      "d": 452.5,
      "v": 120
    },
    {
      "midi": 64,
      "hit": false,
      "t": 174300,
      "d": 120,
      "v": 127
    },
    {
      "midi": 69,
      "hit": false,
      "t": 175200,
      "d": 1942.5,
      "v": 108
    },
    {
      "midi": 66,
      "hit": false,
      "t": 175200,
      "d": 1975,
      "v": 96
    },
    {
      "midi": 62,
      "hit": false,
      "t": 175200,
      "d": 1982.5,
      "v": 108
    },
    {
      "midi": 50,
      "hit": false,
      "t": 176100,
      "d": 1537.5,
      "v": 82
    },
    {
      "midi": 50,
      "hit": false,
      "t": 178500,
      "d": 247.5,
      "v": 108
    },
    {
      "midi": 64,
      "hit": false,
      "t": 178800,
      "d": 540,
      "v": 127
    },
    {
      "midi": 66,
      "hit": false,
      "t": 179400,
      "d": 132.5,
      "v": 127
    },
    {
      "midi": 61,
      "hit": false,
      "t": 180000,
      "d": 670,
      "v": 88
    },
    {
      "midi": 64,
      "hit": false,
      "t": 180000,
      "d": 675,
      "v": 73
    },
    {
      "midi": 57,
      "hit": false,
      "t": 180000,
      "d": 707.5,
      "v": 102
    },
    {
      "midi": 52,
      "hit": false,
      "t": 180000,
      "d": 1952.5,
      "v": 88
    },
    {
      "midi": 45,
      "hit": false,
      "t": 180000,
      "d": 1977.5,
      "v": 127
    },
    {
      "midi": 59,
      "hit": false,
      "t": 180900,
      "d": 190,
      "v": 127
    },
    {
      "midi": 64,
      "hit": false,
      "t": 180900,
      "d": 202.5,
      "v": 127
    },
    {
      "midi": 57,
      "hit": false,
      "t": 182100,
      "d": 680,
      "v": 88
    },
    {
      "midi": 45,
      "hit": false,
      "t": 182400,
      "d": 1802.5,
      "v": 114
    },
    {
      "midi": 52,
      "hit": false,
      "t": 182700,
      "d": 1485,
      "v": 93
    },
    {
      "midi": 57,
      "hit": false,
      "t": 183000,
      "d": 195,
      "v": 84
    },
    {
      "midi": 59,
      "hit": false,
      "t": 183300,
      "d": 120,
      "v": 114
    },
    {
      "midi": 62,
      "hit": false,
      "t": 184800,
      "d": 2007.5,
      "v": 93
    },
    {
      "midi": 59,
      "hit": false,
      "t": 184800,
      "d": 2082.5,
      "v": 85
    },
    {
      "midi": 64,
      "hit": false,
      "t": 184800,
      "d": 2145,
      "v": 96
    },
    {
      "midi": 52,
      "hit": false,
      "t": 184800,
      "d": 2197.5,
      "v": 96
    },
    {
      "midi": 68,
      "hit": false,
      "t": 184800,
      "d": 2257.5,
      "v": 93
    },
    {
      "midi": 62,
      "hit": false,
      "t": 186900,
      "d": 300,
      "v": 120
    },
    {
      "midi": 62,
      "hit": false,
      "t": 187200,
      "d": 35,
      "v": 40
    },
    {
      "midi": 68,
      "hit": false,
      "t": 187200,
      "d": 270,
      "v": 114
    },
    {
      "midi": 52,
      "hit": false,
      "t": 189600,
      "d": 1517.5,
      "v": 93
    },
    {
      "midi": 57,
      "hit": false,
      "t": 189600,
      "d": 1915,
      "v": 93
    },
    {
      "midi": 59,
      "hit": false,
      "t": 189600,
      "d": 1932.5,
      "v": 96
    },
    {
      "midi": 61,
      "hit": false,
      "t": 189600,
      "d": 1947.5,
      "v": 102
    },
    {
      "midi": 64,
      "hit": false,
      "t": 189600,
      "d": 1980,
      "v": 93
    },
    {
      "midi": 45,
      "hit": false,
      "t": 189600,
      "d": 4657.5,
      "v": 127
    },
    {
      "midi": 52,
      "hit": false,
      "t": 191400,
      "d": 2872.5,
      "v": 96
    },
    {
      "midi": 76,
      "hit": false,
      "t": 192300,
      "d": 72.5,
      "v": 114
    },
    {
      "midi": 73,
      "hit": false,
      "t": 192600,
      "d": 65,
      "v": 120
    },
    {
      "midi": 71,
      "hit": false,
      "t": 192900,
      "d": 75,
      "v": 114
    },
    {
      "midi": 69,
      "hit": false,
      "t": 193500,
      "d": 70,
      "v": 93
    },
    {
      "midi": 68,
      "hit": false,
      "t": 193800,
      "d": 307.5,
      "v": 88
    },
    {
      "midi": 66,
      "hit": false,
      "t": 194100,
      "d": 87.5,
      "v": 102
    },
    {
      "midi": 62,
      "hit": false,
      "t": 194400,
      "d": 1480,
      "v": 127
    },
    {
      "midi": 57,
      "hit": false,
      "t": 194400,
      "d": 1485,
      "v": 127
    },
    {
      "midi": 66,
      "hit": false,
      "t": 194400,
      "d": 1500,
      "v": 108
    },
    {
      "midi": 50,
      "hit": false,
      "t": 194400,
      "d": 1530,
      "v": 120
    },
    {
      "midi": 64,
      "hit": false,
      "t": 196800,
      "d": 2082.5,
      "v": 108
    },
    {
      "midi": 59,
      "hit": false,
      "t": 196800,
      "d": 2085,
      "v": 93
    },
    {
      "midi": 52,
      "hit": false,
      "t": 196800,
      "d": 2087.5,
      "v": 120
    },
    {
      "midi": 68,
      "hit": false,
      "t": 196800,
      "d": 2087.5,
      "v": 96
    },
    {
      "midi": 62,
      "hit": false,
      "t": 199200,
      "d": 1480,
      "v": 127
    },
    {
      "midi": 57,
      "hit": false,
      "t": 199200,
      "d": 1485,
      "v": 127
    },
    {
      "midi": 66,
      "hit": false,
      "t": 199200,
      "d": 1500,
      "v": 108
    },
    {
      "midi": 50,
      "hit": false,
      "t": 199200,
      "d": 1530,
      "v": 120
    },
    {
      "midi": 64,
      "hit": false,
      "t": 201600,
      "d": 2082.5,
      "v": 108
    },
    {
      "midi": 59,
      "hit": false,
      "t": 201600,
      "d": 2085,
      "v": 93
    },
    {
      "midi": 52,
      "hit": false,
      "t": 201600,
      "d": 2087.5,
      "v": 120
    },
    {
      "midi": 68,
      "hit": false,
      "t": 201600,
      "d": 2087.5,
      "v": 96
    },
    {
      "midi": 62,
      "hit": false,
      "t": 204000,
      "d": 1480,
      "v": 127
    },
    {
      "midi": 57,
      "hit": false,
      "t": 204000,
      "d": 1485,
      "v": 127
    },
    {
      "midi": 66,
      "hit": false,
      "t": 204000,
      "d": 1500,
      "v": 108
    },
    {
      "midi": 50,
      "hit": false,
      "t": 204000,
      "d": 1530,
      "v": 120
    },
    {
      "midi": 64,
      "hit": false,
      "t": 206400,
      "d": 2082.5,
      "v": 108
    },
    {
      "midi": 59,
      "hit": false,
      "t": 206400,
      "d": 2085,
      "v": 93
    },
    {
      "midi": 52,
      "hit": false,
      "t": 206400,
      "d": 2087.5,
      "v": 120
    },
    {
      "midi": 68,
      "hit": false,
      "t": 206400,
      "d": 2087.5,
      "v": 96
    },
    {
      "midi": 57,
      "hit": false,
      "t": 208800,
      "d": 205,
      "v": 114
    },
    {
      "midi": 61,
      "hit": false,
      "t": 208800,
      "d": 205,
      "v": 108
    },
    {
      "midi": 64,
      "hit": false,
      "t": 208800,
      "d": 230,
      "v": 108
    },
    {
      "midi": 45,
      "hit": false,
      "t": 208800,
      "d": 4252.5,
      "v": 114
    },
    {
      "midi": 71,
      "hit": false,
      "t": 209700,
      "d": 110,
      "v": 127
    },
    {
      "midi": 73,
      "hit": false,
      "t": 210300,
      "d": 87.5,
      "v": 127
    },
    {
      "midi": 74,
      "hit": false,
      "t": 210900,
      "d": 87.5,
      "v": 127
    },
    {
      "midi": 76,
      "hit": false,
      "t": 211500,
      "d": 257.5,
      "v": 127
    },
    {
      "midi": 73,
      "hit": false,
      "t": 211800,
      "d": 157.5,
      "v": 127
    },
    {
      "midi": 69,
      "hit": false,
      "t": 212100,
      "d": 127.5,
      "v": 127
    },
    {
      "midi": 67,
      "hit": false,
      "t": 212400,
      "d": 607.5,
      "v": 127
    },
    {
      "midi": 52,
      "hit": false,
      "t": 213600,
      "d": 575,
      "v": 127
    },
    {
      "midi": 56,
      "hit": false,
      "t": 213600,
      "d": 602.5,
      "v": 93
    },
    {
      "midi": 64,
      "hit": false,
      "t": 213600,
      "d": 617.5,
      "v": 114
    },
    {
      "midi": 59,
      "hit": false,
      "t": 213600,
      "d": 637.5,
      "v": 120
    },
    {
      "midi": 52,
      "hit": false,
      "t": 214500,
      "d": 102.5,
      "v": 93
    },
    {
      "midi": 68,
      "hit": false,
      "t": 214800,
      "d": 100,
      "v": 127
    },
    {
      "midi": 69,
      "hit": false,
      "t": 215400,
      "d": 292.5,
      "v": 127
    },
    {
      "midi": 68,
      "hit": false,
      "t": 216000,
      "d": 667.5,
      "v": 114
    },
    {
      "midi": 64,
      "hit": false,
      "t": 216900,
      "d": 100,
      "v": 114
    },
    {
      "midi": 61,
      "hit": false,
      "t": 218400,
      "d": 295,
      "v": 102
    },
    {
      "midi": 57,
      "hit": false,
      "t": 218400,
      "d": 330,
      "v": 108
    },
    {
      "midi": 45,
      "hit": false,
      "t": 218400,
      "d": 1900,
      "v": 114
    },
    {
      "midi": 52,
      "hit": false,
      "t": 218400,
      "d": 1940,
      "v": 93
    },
    {
      "midi": 59,
      "hit": false,
      "t": 219300,
      "d": 117.5,
      "v": 127
    },
    {
      "midi": 57,
      "hit": false,
      "t": 220800,
      "d": 682.5,
      "v": 96
    },
    {
      "midi": 64,
      "hit": false,
      "t": 220800,
      "d": 722.5,
      "v": 120
    },
    {
      "midi": 52,
      "hit": false,
      "t": 220800,
      "d": 1597.5,
      "v": 90
    },
    {
      "midi": 45,
      "hit": false,
      "t": 220800,
      "d": 1620,
      "v": 108
    },
    {
      "midi": 59,
      "hit": false,
      "t": 221700,
      "d": 655,
      "v": 127
    },
    {
      "midi": 64,
      "hit": false,
      "t": 221700,
      "d": 720,
      "v": 127
    },
    {
      "midi": 64,
      "hit": false,
      "t": 222600,
      "d": 45,
      "v": 82
    },
    {
      "midi": 57,
      "hit": false,
      "t": 222600,
      "d": 110,
      "v": 120
    },
    {
      "midi": 61,
      "hit": false,
      "t": 222600,
      "d": 112.5,
      "v": 108
    },
    {
      "midi": 56,
      "hit": false,
      "t": 223200,
      "d": 680,
      "v": 108
    },
    {
      "midi": 64,
      "hit": false,
      "t": 223200,
      "d": 740,
      "v": 127
    },
    {
      "midi": 59,
      "hit": false,
      "t": 223200,
      "d": 875,
      "v": 127
    },
    {
      "midi": 40,
      "hit": false,
      "t": 223800,
      "d": 212.5,
      "v": 114
    },
    {
      "midi": 56,
      "hit": false,
      "t": 224100,
      "d": 655,
      "v": 102
    },
    {
      "midi": 52,
      "hit": false,
      "t": 224700,
      "d": 245,
      "v": 114
    },
    {
      "midi": 56,
      "hit": false,
      "t": 225000,
      "d": 225,
      "v": 120
    },
    {
      "midi": 59,
      "hit": false,
      "t": 225300,
      "d": 257.5,
      "v": 114
    },
    {
      "midi": 59,
      "hit": false,
      "t": 225600,
      "d": 1437.5,
      "v": 90
    },
    {
      "midi": 52,
      "hit": false,
      "t": 225600,
      "d": 2190,
      "v": 102
    },
    {
      "midi": 64,
      "hit": false,
      "t": 225600,
      "d": 3455,
      "v": 108
    },
    {
      "midi": 76,
      "hit": false,
      "t": 230400,
      "d": 310,
      "v": 127
    },
    {
      "midi": 57,
      "hit": false,
      "t": 230400,
      "d": 4367.5,
      "v": 90
    },
    {
      "midi": 64,
      "hit": false,
      "t": 230400,
      "d": 4430,
      "v": 114
    },
    {
      "midi": 61,
      "hit": false,
      "t": 230400,
      "d": 4432.5,
      "v": 108
    },
    {
      "midi": 66,
      "hit": false,
      "t": 230400,
      "d": 4472.5,
      "v": 102
    },
    {
      "midi": 45,
      "hit": false,
      "t": 230400,
      "d": 4495,
      "v": 88
    },
    {
      "midi": 78,
      "hit": false,
      "t": 230700,
      "d": 292.5,
      "v": 108
    },
    {
      "midi": 73,
      "hit": false,
      "t": 231000,
      "d": 312.5,
      "v": 114
    },
    {
      "midi": 76,
      "hit": false,
      "t": 231300,
      "d": 3300,
      "v": 120
    },
    {
      "midi": 64,
      "hit": false,
      "t": 235200,
      "d": 4240,
      "v": 127
    },
    {
      "midi": 57,
      "hit": false,
      "t": 235200,
      "d": 4275,
      "v": 127
    },
    {
      "midi": 71,
      "hit": false,
      "t": 235500,
      "d": 3947.5,
      "v": 108
    },
    {
      "midi": 69,
      "hit": false,
      "t": 235800,
      "d": 335,
      "v": 120
    },
    {
      "midi": 66,
      "hit": false,
      "t": 236100,
      "d": 3315,
      "v": 114
    },
    {
      "midi": 76,
      "hit": false,
      "t": 240000,
      "d": 310,
      "v": 127
    },
    {
      "midi": 57,
      "hit": false,
      "t": 240000,
      "d": 4367.5,
      "v": 90
    },
    {
      "midi": 64,
      "hit": false,
      "t": 240000,
      "d": 4430,
      "v": 114
    },
    {
      "midi": 61,
      "hit": false,
      "t": 240000,
      "d": 4432.5,
      "v": 108
    },
    {
      "midi": 66,
      "hit": false,
      "t": 240000,
      "d": 4472.5,
      "v": 102
    },
    {
      "midi": 45,
      "hit": false,
      "t": 240000,
      "d": 4495,
      "v": 88
    },
    {
      "midi": 78,
      "hit": false,
      "t": 240300,
      "d": 292.5,
      "v": 108
    },
    {
      "midi": 73,
      "hit": false,
      "t": 240600,
      "d": 312.5,
      "v": 114
    },
    {
      "midi": 76,
      "hit": false,
      "t": 240900,
      "d": 3300,
      "v": 120
    },
    {
      "midi": 83,
      "hit": false,
      "t": 241800,
      "d": 1952.5,
      "v": 127
    },
    {
      "midi": 88,
      "hit": false,
      "t": 244800,
      "d": 1977.5,
      "v": 127
    },
    {
      "midi": 64,
      "hit": false,
      "t": 244800,
      "d": 4240,
      "v": 127
    },
    {
      "midi": 57,
      "hit": false,
      "t": 244800,
      "d": 4275,
      "v": 127
    },
    {
      "midi": 71,
      "hit": false,
      "t": 245100,
      "d": 3947.5,
      "v": 108
    },
    {
      "midi": 69,
      "hit": false,
      "t": 245400,
      "d": 335,
      "v": 120
    },
    {
      "midi": 66,
      "hit": false,
      "t": 245700,
      "d": 3315,
      "v": 114
    },
    {
      "midi": 61,
      "hit": false,
      "t": 249600,
      "d": 4637.5,
      "v": 82
    },
    {
      "midi": 64,
      "hit": false,
      "t": 249600,
      "d": 4675,
      "v": 108
    },
    {
      "midi": 57,
      "hit": false,
      "t": 249600,
      "d": 4730,
      "v": 114
    },
    {
      "midi": 66,
      "hit": false,
      "t": 249600,
      "d": 4785,
      "v": 85
    }
  ]
}