{
  "jsonPath": "Rock/Country Rock/Brooks  Dunn/shes-not-the-cheatin-kind.json",
  "path": "Rock\\Country Rock\\Brooks  Dunn\\Shes Not The Cheatin Kind.mid",
  "name": "Shes Not The Cheatin Kind",
  "difficulty": "Advanced",
  "bpm": 111.000111000111,
  "notes": [
    {
      "midi": 62,
      "hit": false,
      "t": 6486.48,
      "d": 242.1168749999997,
      "v": 87
    },
    {
      "midi": 54,
      "hit": false,
      "t": 6486.48,
      "d": 247.7474999999995,
      "v": 68
    },
    {
      "midi": 57,
      "hit": false,
      "t": 6486.48,
      "d": 247.7474999999995,
      "v": 79
    },
    {
      "midi": 38,
      "hit": false,
      "t": 6486.48,
      "d": 292.79249999999956,
      "v": 79
    },
    {
      "midi": 54,
      "hit": false,
      "t": 6762.380624999999,
      "d": 219.59437500000058,
      "v": 87
    },
    {
      "midi": 57,
      "hit": false,
      "t": 6762.380624999999,
      "d": 230.85562500000015,
      "v": 84
    },
    {
      "midi": 62,
      "hit": false,
      "t": 6762.380624999999,
      "d": 242.1168749999997,
      "v": 98
    },
    {
      "midi": 50,
      "hit": false,
      "t": 6762.380624999999,
      "d": 523.6481249999997,
      "v": 68
    },
    {
      "midi": 54,
      "hit": false,
      "t": 7302.920624999999,
      "d": 67.56750000000011,
      "v": 56
    },
    {
      "midi": 57,
      "hit": false,
      "t": 7302.920624999999,
      "d": 95.72062499999993,
      "v": 62
    },
    {
      "midi": 38,
      "hit": false,
      "t": 7302.920624999999,
      "d": 197.07187499999964,
      "v": 68
    },
    {
      "midi": 54,
      "hit": false,
      "t": 7567.559999999999,
      "d": 185.81062500000007,
      "v": 87
    },
    {
      "midi": 62,
      "hit": false,
      "t": 7567.559999999999,
      "d": 197.07187499999964,
      "v": 100
    },
    {
      "midi": 57,
      "hit": false,
      "t": 7567.559999999999,
      "d": 202.70249999999942,
      "v": 95
    },
    {
      "midi": 50,
      "hit": false,
      "t": 7573.190624999998,
      "d": 365.99062500000036,
      "v": 84
    },
    {
      "midi": 54,
      "hit": false,
      "t": 7832.199374999998,
      "d": 208.3331250000001,
      "v": 101
    },
    {
      "midi": 57,
      "hit": false,
      "t": 7832.199374999998,
      "d": 219.59437499999967,
      "v": 117
    },
    {
      "midi": 62,
      "hit": false,
      "t": 7832.199374999998,
      "d": 264.63937499999975,
      "v": 117
    },
    {
      "midi": 62,
      "hit": false,
      "t": 8372.739374999997,
      "d": 185.81062500000007,
      "v": 78
    },
    {
      "midi": 50,
      "hit": false,
      "t": 8372.739374999997,
      "d": 208.3331249999992,
      "v": 92
    },
    {
      "midi": 57,
      "hit": false,
      "t": 8372.739374999997,
      "d": 242.1168749999997,
      "v": 88
    },
    {
      "midi": 54,
      "hit": false,
      "t": 8378.369999999997,
      "d": 174.5493750000005,
      "v": 74
    },
    {
      "midi": 40,
      "hit": false,
      "t": 8643.009374999998,
      "d": 253.37812499999927,
      "v": 85
    },
    {
      "midi": 59,
      "hit": false,
      "t": 8654.270624999997,
      "d": 45.04500000000007,
      "v": 53
    },
    {
      "midi": 56,
      "hit": false,
      "t": 8654.270624999997,
      "d": 95.72062499999993,
      "v": 42
    },
    {
      "midi": 64,
      "hit": false,
      "t": 8654.270624999997,
      "d": 112.61249999999927,
      "v": 70
    },
    {
      "midi": 56,
      "hit": false,
      "t": 8913.279374999996,
      "d": 174.5493750000005,
      "v": 79
    },
    {
      "midi": 64,
      "hit": false,
      "t": 8913.279374999996,
      "d": 236.48625000000175,
      "v": 80
    },
    {
      "midi": 52,
      "hit": false,
      "t": 8913.279374999996,
      "d": 540.5400000000009,
      "v": 100
    },
    {
      "midi": 59,
      "hit": false,
      "t": 8918.909999999996,
      "d": 197.07187500000146,
      "v": 94
    },
    {
      "midi": 40,
      "hit": false,
      "t": 9453.819374999997,
      "d": 275.9006250000002,
      "v": 76
    },
    {
      "midi": 59,
      "hit": false,
      "t": 9735.350624999997,
      "d": 101.35124999999971,
      "v": 55
    },
    {
      "midi": 64,
      "hit": false,
      "t": 9735.350624999997,
      "d": 112.61249999999927,
      "v": 65
    },
    {
      "midi": 52,
      "hit": false,
      "t": 9735.350624999997,
      "d": 146.39624999999978,
      "v": 69
    },
    {
      "midi": 40,
      "hit": false,
      "t": 9994.359374999996,
      "d": 653.1525000000001,
      "v": 114
    },
    {
      "midi": 64,
      "hit": false,
      "t": 10005.620624999996,
      "d": 343.46812500000124,
      "v": 98
    },
    {
      "midi": 59,
      "hit": false,
      "t": 10005.620624999996,
      "d": 349.098750000001,
      "v": 88
    },
    {
      "midi": 68,
      "hit": false,
      "t": 10005.620624999996,
      "d": 354.7293750000008,
      "v": 104
    },
    {
      "midi": 52,
      "hit": false,
      "t": 10264.629374999997,
      "d": 135.13500000000022,
      "v": 98
    },
    {
      "midi": 64,
      "hit": false,
      "t": 10534.899374999997,
      "d": 157.65749999999935,
      "v": 106
    },
    {
      "midi": 68,
      "hit": false,
      "t": 10534.899374999997,
      "d": 168.9187499999989,
      "v": 97
    },
    {
      "midi": 59,
      "hit": false,
      "t": 10534.899374999997,
      "d": 185.81062499999825,
      "v": 88
    },
    {
      "midi": 52,
      "hit": false,
      "t": 10540.529999999997,
      "d": 123.87374999999884,
      "v": 100
    },
    {
      "midi": 57,
      "hit": false,
      "t": 10805.169374999996,
      "d": 197.07187499999964,
      "v": 73
    },
    {
      "midi": 62,
      "hit": false,
      "t": 10805.169374999996,
      "d": 197.07187499999964,
      "v": 83
    },
    {
      "midi": 66,
      "hit": false,
      "t": 10805.169374999996,
      "d": 197.07187499999964,
      "v": 74
    },
    {
      "midi": 38,
      "hit": false,
      "t": 10805.169374999996,
      "d": 247.7474999999995,
      "v": 81
    },
    {
      "midi": 62,
      "hit": false,
      "t": 11075.439374999994,
      "d": 230.85562500000015,
      "v": 97
    },
    {
      "midi": 66,
      "hit": false,
      "t": 11075.439374999994,
      "d": 230.85562500000015,
      "v": 93
    },
    {
      "midi": 57,
      "hit": false,
      "t": 11075.439374999994,
      "d": 236.48624999999993,
      "v": 83
    },
    {
      "midi": 50,
      "hit": false,
      "t": 11075.439374999994,
      "d": 512.3868750000001,
      "v": 104
    },
    {
      "midi": 62,
      "hit": false,
      "t": 11615.979374999995,
      "d": 118.24312499999905,
      "v": 73
    },
    {
      "midi": 38,
      "hit": false,
      "t": 11615.979374999995,
      "d": 292.79249999999774,
      "v": 76
    },
    {
      "midi": 57,
      "hit": false,
      "t": 11627.240624999995,
      "d": 61.93687499999942,
      "v": 48
    },
    {
      "midi": 57,
      "hit": false,
      "t": 11886.249374999994,
      "d": 197.07187499999964,
      "v": 91
    },
    {
      "midi": 62,
      "hit": false,
      "t": 11886.249374999994,
      "d": 213.96374999999898,
      "v": 106
    },
    {
      "midi": 66,
      "hit": false,
      "t": 11886.249374999994,
      "d": 213.96374999999898,
      "v": 93
    },
    {
      "midi": 50,
      "hit": false,
      "t": 11886.249374999994,
      "d": 230.85562499999833,
      "v": 88
    },
    {
      "midi": 62,
      "hit": false,
      "t": 12156.519374999993,
      "d": 219.59437500000058,
      "v": 104
    },
    {
      "midi": 57,
      "hit": false,
      "t": 12156.519374999993,
      "d": 225.22500000000036,
      "v": 88
    },
    {
      "midi": 66,
      "hit": false,
      "t": 12156.519374999993,
      "d": 253.3781250000011,
      "v": 89
    },
    {
      "midi": 38,
      "hit": false,
      "t": 12156.519374999993,
      "d": 540.5400000000009,
      "v": 106
    },
    {
      "midi": 50,
      "hit": false,
      "t": 12426.789374999993,
      "d": 135.13500000000022,
      "v": 64
    },
    {
      "midi": 62,
      "hit": false,
      "t": 12697.059374999993,
      "d": 163.28812499999913,
      "v": 97
    },
    {
      "midi": 66,
      "hit": false,
      "t": 12697.059374999993,
      "d": 174.5493749999987,
      "v": 85
    },
    {
      "midi": 57,
      "hit": false,
      "t": 12697.059374999993,
      "d": 191.44124999999804,
      "v": 76
    },
    {
      "midi": 50,
      "hit": false,
      "t": 12708.320624999993,
      "d": 112.61249999999927,
      "v": 90
    },
    {
      "midi": 40,
      "hit": false,
      "t": 13237.59937499999,
      "d": 129.50437500000044,
      "v": 72
    },
    {
      "midi": 56,
      "hit": false,
      "t": 13248.86062499999,
      "d": 73.1981250000008,
      "v": 57
    },
    {
      "midi": 59,
      "hit": false,
      "t": 13248.86062499999,
      "d": 73.1981250000008,
      "v": 71
    },
    {
      "midi": 52,
      "hit": false,
      "t": 13248.86062499999,
      "d": 118.24312500000087,
      "v": 58
    },
    {
      "midi": 52,
      "hit": false,
      "t": 13507.869374999991,
      "d": 84.45937500000036,
      "v": 98
    },
    {
      "midi": 40,
      "hit": false,
      "t": 13507.869374999991,
      "d": 95.72062499999993,
      "v": 108
    },
    {
      "midi": 56,
      "hit": false,
      "t": 13507.869374999991,
      "d": 106.98187499999949,
      "v": 99
    },
    {
      "midi": 59,
      "hit": false,
      "t": 13507.869374999991,
      "d": 112.61249999999927,
      "v": 108
    },
    {
      "midi": 52,
      "hit": false,
      "t": 13778.13937499999,
      "d": 90.09000000000015,
      "v": 110
    },
    {
      "midi": 40,
      "hit": false,
      "t": 13778.13937499999,
      "d": 95.72062499999993,
      "v": 127
    },
    {
      "midi": 56,
      "hit": false,
      "t": 13778.13937499999,
      "d": 106.98187499999949,
      "v": 107
    },
    {
      "midi": 59,
      "hit": false,
      "t": 13778.13937499999,
      "d": 112.61249999999927,
      "v": 108
    },
    {
      "midi": 52,
      "hit": false,
      "t": 14048.409374999988,
      "d": 236.48624999999993,
      "v": 120
    },
    {
      "midi": 40,
      "hit": false,
      "t": 14048.409374999988,
      "d": 247.7474999999995,
      "v": 127
    },
    {
      "midi": 56,
      "hit": false,
      "t": 14048.409374999988,
      "d": 253.37812499999927,
      "v": 119
    },
    {
      "midi": 59,
      "hit": false,
      "t": 14048.409374999988,
      "d": 253.37812499999927,
      "v": 117
    },
    {
      "midi": 38,
      "hit": false,
      "t": 15135.119999999988,
      "d": 157.65749999999935,
      "v": 72
    },
    {
      "midi": 45,
      "hit": false,
      "t": 15135.119999999988,
      "d": 157.65749999999935,
      "v": 65
    },
    {
      "midi": 38,
      "hit": false,
      "t": 15405.389999999987,
      "d": 185.81062500000007,
      "v": 91
    },
    {
      "midi": 45,
      "hit": false,
      "t": 15405.389999999987,
      "d": 185.81062500000007,
      "v": 85
    },
    {
      "midi": 38,
      "hit": false,
      "t": 16210.569374999986,
      "d": 185.81062500000007,
      "v": 59
    },
    {
      "midi": 45,
      "hit": false,
      "t": 16216.199999999986,
      "d": 140.765625,
      "v": 66
    },
    {
      "midi": 45,
      "hit": false,
      "t": 16480.839374999985,
      "d": 208.33312500000102,
      "v": 80
    },
    {
      "midi": 38,
      "hit": false,
      "t": 16480.839374999985,
      "d": 213.96375000000262,
      "v": 74
    },
    {
      "midi": 40,
      "hit": false,
      "t": 17291.649374999986,
      "d": 185.81062499999825,
      "v": 86
    },
    {
      "midi": 47,
      "hit": false,
      "t": 17291.649374999986,
      "d": 185.81062499999825,
      "v": 79
    },
    {
      "midi": 40,
      "hit": false,
      "t": 17561.919374999983,
      "d": 197.07187500000146,
      "v": 90
    },
    {
      "midi": 47,
      "hit": false,
      "t": 17561.919374999983,
      "d": 197.07187500000146,
      "v": 84
    },
    {
      "midi": 47,
      "hit": false,
      "t": 18372.729374999984,
      "d": 146.3962500000016,
      "v": 78
    },
    {
      "midi": 40,
      "hit": false,
      "t": 18372.729374999984,
      "d": 185.8106250000019,
      "v": 80
    },
    {
      "midi": 47,
      "hit": false,
      "t": 18642.999374999985,
      "d": 225.22499999999854,
      "v": 84
    },
    {
      "midi": 40,
      "hit": false,
      "t": 18642.999374999985,
      "d": 253.37812499999927,
      "v": 86
    },
    {
      "midi": 45,
      "hit": false,
      "t": 19453.809374999983,
      "d": 157.65750000000116,
      "v": 77
    },
    {
      "midi": 38,
      "hit": false,
      "t": 19453.809374999983,
      "d": 168.91875000000073,
      "v": 86
    },
    {
      "midi": 38,
      "hit": false,
      "t": 19724.079374999983,
      "d": 197.07187500000146,
      "v": 91
    },
    {
      "midi": 45,
      "hit": false,
      "t": 19724.079374999983,
      "d": 213.96375000000262,
      "v": 86
    },
    {
      "midi": 38,
      "hit": false,
      "t": 20534.889374999984,
      "d": 163.28812499999913,
      "v": 81
    },
    {
      "midi": 45,
      "hit": false,
      "t": 20534.889374999984,
      "d": 163.28812499999913,
      "v": 70
    },
    {
      "midi": 38,
      "hit": false,
      "t": 20805.159374999985,
      "d": 247.7475000000013,
      "v": 92
    },
    {
      "midi": 45,
      "hit": false,
      "t": 20805.159374999985,
      "d": 253.3781250000029,
      "v": 80
    },
    {
      "midi": 40,
      "hit": false,
      "t": 21615.969374999986,
      "d": 135.1349999999984,
      "v": 84
    },
    {
      "midi": 47,
      "hit": false,
      "t": 21615.969374999986,
      "d": 135.1349999999984,
      "v": 74
    },
    {
      "midi": 40,
      "hit": false,
      "t": 21891.869999999984,
      "d": 202.70249999999942,
      "v": 102
    },
    {
      "midi": 47,
      "hit": false,
      "t": 21891.869999999984,
      "d": 213.96374999999898,
      "v": 95
    },
    {
      "midi": 40,
      "hit": false,
      "t": 22697.049374999984,
      "d": 135.1349999999984,
      "v": 85
    },
    {
      "midi": 47,
      "hit": false,
      "t": 22697.049374999984,
      "d": 140.765625,
      "v": 75
    },
    {
      "midi": 47,
      "hit": false,
      "t": 22967.319374999985,
      "d": 208.33312500000102,
      "v": 104
    },
    {
      "midi": 40,
      "hit": false,
      "t": 22967.319374999985,
      "d": 219.59437500000058,
      "v": 108
    },
    {
      "midi": 45,
      "hit": false,
      "t": 23778.129374999986,
      "d": 140.765625,
      "v": 80
    },
    {
      "midi": 38,
      "hit": false,
      "t": 23778.129374999986,
      "d": 168.91875000000073,
      "v": 94
    },
    {
      "midi": 45,
      "hit": false,
      "t": 24048.399374999986,
      "d": 174.5493749999987,
      "v": 80
    },
    {
      "midi": 38,
      "hit": false,
      "t": 24048.399374999986,
      "d": 213.96374999999898,
      "v": 87
    },
    {
      "midi": 45,
      "hit": false,
      "t": 24859.209374999984,
      "d": 140.765625,
      "v": 71
    },
    {
      "midi": 38,
      "hit": false,
      "t": 24859.209374999984,
      "d": 152.02687499999956,
      "v": 73
    },
    {
      "midi": 38,
      "hit": false,
      "t": 25129.479374999984,
      "d": 219.59437500000058,
      "v": 100
    },
    {
      "midi": 45,
      "hit": false,
      "t": 25129.479374999984,
      "d": 219.59437500000058,
      "v": 92
    },
    {
      "midi": 47,
      "hit": false,
      "t": 25940.289374999986,
      "d": 163.28812499999913,
      "v": 74
    },
    {
      "midi": 40,
      "hit": false,
      "t": 25940.289374999986,
      "d": 168.91875000000073,
      "v": 80
    },
    {
      "midi": 47,
      "hit": false,
      "t": 26216.189999999988,
      "d": 197.07187500000146,
      "v": 106
    },
    {
      "midi": 40,
      "hit": false,
      "t": 26216.189999999988,
      "d": 202.70250000000306,
      "v": 104
    },
    {
      "midi": 40,
      "hit": false,
      "t": 27021.36937499999,
      "d": 140.765625,
      "v": 71
    },
    {
      "midi": 47,
      "hit": false,
      "t": 27021.36937499999,
      "d": 140.765625,
      "v": 67
    },
    {
      "midi": 47,
      "hit": false,
      "t": 27291.63937499999,
      "d": 225.22499999999854,
      "v": 104
    },
    {
      "midi": 40,
      "hit": false,
      "t": 27291.63937499999,
      "d": 242.1168749999997,
      "v": 106
    },
    {
      "midi": 45,
      "hit": false,
      "t": 28102.449374999993,
      "d": 135.1349999999984,
      "v": 70
    },
    {
      "midi": 38,
      "hit": false,
      "t": 28102.449374999993,
      "d": 140.765625,
      "v": 73
    },
    {
      "midi": 38,
      "hit": false,
      "t": 28372.719374999993,
      "d": 219.59437500000058,
      "v": 104
    },
    {
      "midi": 45,
      "hit": false,
      "t": 28372.719374999993,
      "d": 219.59437500000058,
      "v": 91
    },
    {
      "midi": 38,
      "hit": false,
      "t": 29183.529374999995,
      "d": 140.765625,
      "v": 78
    },
    {
      "midi": 45,
      "hit": false,
      "t": 29183.529374999995,
      "d": 140.765625,
      "v": 65
    },
    {
      "midi": 38,
      "hit": false,
      "t": 29453.799374999995,
      "d": 230.85562500000015,
      "v": 100
    },
    {
      "midi": 45,
      "hit": false,
      "t": 29453.799374999995,
      "d": 230.85562500000015,
      "v": 94
    },
    {
      "midi": 40,
      "hit": false,
      "t": 30264.609374999996,
      "d": 152.02687499999956,
      "v": 73
    },
    {
      "midi": 47,
      "hit": false,
      "t": 30264.609374999996,
      "d": 152.02687499999956,
      "v": 67
    },
    {
      "midi": 47,
      "hit": false,
      "t": 30540.509999999995,
      "d": 225.22499999999854,
      "v": 94
    },
    {
      "midi": 40,
      "hit": false,
      "t": 30540.509999999995,
      "d": 230.85562500000015,
      "v": 102
    },
    {
      "midi": 47,
      "hit": false,
      "t": 31345.689374999994,
      "d": 123.87374999999884,
      "v": 83
    },
    {
      "midi": 40,
      "hit": false,
      "t": 31345.689374999994,
      "d": 146.39624999999796,
      "v": 94
    },
    {
      "midi": 47,
      "hit": false,
      "t": 31621.589999999993,
      "d": 202.70249999999942,
      "v": 104
    },
    {
      "midi": 40,
      "hit": false,
      "t": 31621.589999999993,
      "d": 230.85562500000015,
      "v": 106
    },
    {
      "midi": 45,
      "hit": false,
      "t": 32432.399999999994,
      "d": 163.28812499999913,
      "v": 92
    },
    {
      "midi": 38,
      "hit": false,
      "t": 32432.399999999994,
      "d": 168.91875000000073,
      "v": 98
    },
    {
      "midi": 45,
      "hit": false,
      "t": 32702.669999999995,
      "d": 197.07187499999782,
      "v": 92
    },
    {
      "midi": 38,
      "hit": false,
      "t": 32702.669999999995,
      "d": 219.59437499999694,
      "v": 102
    },
    {
      "midi": 45,
      "hit": false,
      "t": 33513.47999999999,
      "d": 157.65750000000116,
      "v": 92
    },
    {
      "midi": 38,
      "hit": false,
      "t": 33513.47999999999,
      "d": 163.28812499999913,
      "v": 98
    },
    {
      "midi": 45,
      "hit": false,
      "t": 33783.749999999985,
      "d": 230.8556249999965,
      "v": 102
    },
    {
      "midi": 38,
      "hit": false,
      "t": 33783.749999999985,
      "d": 247.74749999999767,
      "v": 110
    },
    {
      "midi": 47,
      "hit": false,
      "t": 34588.929374999985,
      "d": 146.39624999999796,
      "v": 84
    },
    {
      "midi": 40,
      "hit": false,
      "t": 34588.929374999985,
      "d": 157.65750000000116,
      "v": 90
    },
    {
      "midi": 47,
      "hit": false,
      "t": 34864.82999999999,
      "d": 168.9187499999971,
      "v": 100
    },
    {
      "midi": 40,
      "hit": false,
      "t": 34864.82999999999,
      "d": 202.70249999999942,
      "v": 102
    },
    {
      "midi": 47,
      "hit": false,
      "t": 35670.00937499999,
      "d": 180.1800000000003,
      "v": 83
    },
    {
      "midi": 40,
      "hit": false,
      "t": 35670.00937499999,
      "d": 185.81062499999825,
      "v": 84
    },
    {
      "midi": 47,
      "hit": false,
      "t": 35940.279374999984,
      "d": 225.22499999999854,
      "v": 100
    },
    {
      "midi": 40,
      "hit": false,
      "t": 35940.279374999984,
      "d": 264.63937499999884,
      "v": 106
    },
    {
      "midi": 45,
      "hit": false,
      "t": 36751.08937499998,
      "d": 157.65750000000116,
      "v": 80
    },
    {
      "midi": 38,
      "hit": false,
      "t": 36751.08937499998,
      "d": 174.54937500000233,
      "v": 88
    },
    {
      "midi": 45,
      "hit": false,
      "t": 37026.98999999998,
      "d": 180.1800000000003,
      "v": 95
    },
    {
      "midi": 38,
      "hit": false,
      "t": 37026.98999999998,
      "d": 197.07187500000146,
      "v": 97
    },
    {
      "midi": 45,
      "hit": false,
      "t": 37832.16937499998,
      "d": 123.87374999999884,
      "v": 84
    },
    {
      "midi": 38,
      "hit": false,
      "t": 37832.16937499998,
      "d": 135.13500000000204,
      "v": 79
    },
    {
      "midi": 45,
      "hit": false,
      "t": 38102.43937499999,
      "d": 236.48625000000175,
      "v": 91
    },
    {
      "midi": 38,
      "hit": false,
      "t": 38102.43937499999,
      "d": 253.3781250000029,
      "v": 100
    },
    {
      "midi": 47,
      "hit": false,
      "t": 38913.24937499999,
      "d": 152.0268750000032,
      "v": 85
    },
    {
      "midi": 40,
      "hit": false,
      "t": 38913.24937499999,
      "d": 163.2881250000064,
      "v": 90
    },
    {
      "midi": 47,
      "hit": false,
      "t": 39183.519374999996,
      "d": 208.33312499999738,
      "v": 97
    },
    {
      "midi": 40,
      "hit": false,
      "t": 39183.519374999996,
      "d": 219.59437500000058,
      "v": 102
    },
    {
      "midi": 47,
      "hit": false,
      "t": 39994.329374999994,
      "d": 140.765625,
      "v": 84
    },
    {
      "midi": 40,
      "hit": false,
      "t": 39994.329374999994,
      "d": 152.0268750000032,
      "v": 88
    },
    {
      "midi": 47,
      "hit": false,
      "t": 40264.599375,
      "d": 236.48625000000175,
      "v": 104
    },
    {
      "midi": 40,
      "hit": false,
      "t": 40264.599375,
      "d": 264.63937499999884,
      "v": 110
    },
    {
      "midi": 45,
      "hit": false,
      "t": 41075.409374999996,
      "d": 146.39624999999796,
      "v": 80
    },
    {
      "midi": 38,
      "hit": false,
      "t": 41075.409374999996,
      "d": 157.65750000000116,
      "v": 86
    },
    {
      "midi": 45,
      "hit": false,
      "t": 41345.679375,
      "d": 208.33312499999738,
      "v": 98
    },
    {
      "midi": 38,
      "hit": false,
      "t": 41345.679375,
      "d": 219.59437500000058,
      "v": 106
    },
    {
      "midi": 45,
      "hit": false,
      "t": 42156.489375,
      "d": 95.72062500000175,
      "v": 73
    },
    {
      "midi": 38,
      "hit": false,
      "t": 42156.489375,
      "d": 118.24312500000087,
      "v": 80
    },
    {
      "midi": 45,
      "hit": false,
      "t": 42426.759375,
      "d": 202.70249999999942,
      "v": 98
    },
    {
      "midi": 38,
      "hit": false,
      "t": 42426.759375,
      "d": 236.48625000000175,
      "v": 108
    },
    {
      "midi": 47,
      "hit": false,
      "t": 43237.56937500001,
      "d": 129.5043749999968,
      "v": 78
    },
    {
      "midi": 40,
      "hit": false,
      "t": 43237.56937500001,
      "d": 140.765625,
      "v": 83
    },
    {
      "midi": 47,
      "hit": false,
      "t": 43507.839375,
      "d": 213.96375000000262,
      "v": 110
    },
    {
      "midi": 40,
      "hit": false,
      "t": 43507.839375,
      "d": 230.85562500000378,
      "v": 110
    },
    {
      "midi": 47,
      "hit": false,
      "t": 44318.64937500001,
      "d": 118.24312500000087,
      "v": 87
    },
    {
      "midi": 40,
      "hit": false,
      "t": 44318.64937500001,
      "d": 129.50437500000407,
      "v": 87
    },
    {
      "midi": 47,
      "hit": false,
      "t": 44588.91937500001,
      "d": 225.22499999999854,
      "v": 102
    },
    {
      "midi": 40,
      "hit": false,
      "t": 44588.91937500001,
      "d": 247.74749999999767,
      "v": 106
    },
    {
      "midi": 45,
      "hit": false,
      "t": 45399.72937500001,
      "d": 123.87374999999884,
      "v": 79
    },
    {
      "midi": 38,
      "hit": false,
      "t": 45399.72937500001,
      "d": 135.13500000000204,
      "v": 84
    },
    {
      "midi": 45,
      "hit": false,
      "t": 45669.999375000014,
      "d": 191.4412500000035,
      "v": 100
    },
    {
      "midi": 38,
      "hit": false,
      "t": 45669.999375000014,
      "d": 230.85562500000378,
      "v": 104
    },
    {
      "midi": 45,
      "hit": false,
      "t": 46480.80937500002,
      "d": 118.24312500000087,
      "v": 81
    },
    {
      "midi": 38,
      "hit": false,
      "t": 46480.80937500002,
      "d": 129.50437500000407,
      "v": 80
    },
    {
      "midi": 45,
      "hit": false,
      "t": 46751.07937500002,
      "d": 236.48625000000175,
      "v": 108
    },
    {
      "midi": 38,
      "hit": false,
      "t": 46751.07937500002,
      "d": 247.74750000000495,
      "v": 108
    },
    {
      "midi": 47,
      "hit": false,
      "t": 47561.88937500003,
      "d": 112.61250000000291,
      "v": 97
    },
    {
      "midi": 40,
      "hit": false,
      "t": 47561.88937500003,
      "d": 129.50437500000407,
      "v": 95
    },
    {
      "midi": 47,
      "hit": false,
      "t": 47832.15937500003,
      "d": 219.59437500000058,
      "v": 117
    },
    {
      "midi": 40,
      "hit": false,
      "t": 47832.15937500003,
      "d": 225.22499999999854,
      "v": 117
    },
    {
      "midi": 47,
      "hit": false,
      "t": 48642.96937500003,
      "d": 152.0268750000032,
      "v": 108
    },
    {
      "midi": 40,
      "hit": false,
      "t": 48642.96937500003,
      "d": 157.65750000000116,
      "v": 114
    },
    {
      "midi": 47,
      "hit": false,
      "t": 48913.239375000034,
      "d": 152.0268750000032,
      "v": 100
    },
    {
      "midi": 40,
      "hit": false,
      "t": 48913.239375000034,
      "d": 174.54937500000233,
      "v": 106
    },
    {
      "midi": 47,
      "hit": false,
      "t": 49183.50937500004,
      "d": 146.39624999999796,
      "v": 102
    },
    {
      "midi": 40,
      "hit": false,
      "t": 49183.50937500004,
      "d": 168.9187499999971,
      "v": 106
    },
    {
      "midi": 47,
      "hit": false,
      "t": 49453.779375000035,
      "d": 135.13500000000204,
      "v": 108
    },
    {
      "midi": 40,
      "hit": false,
      "t": 49453.779375000035,
      "d": 146.39625000000524,
      "v": 102
    },
    {
      "midi": 61,
      "hit": false,
      "t": 49724.04937500004,
      "d": 1615.9893749999974,
      "v": 104
    },
    {
      "midi": 64,
      "hit": false,
      "t": 49724.04937500004,
      "d": 1615.9893749999974,
      "v": 104
    },
    {
      "midi": 69,
      "hit": false,
      "t": 49724.04937500004,
      "d": 1649.7731249999924,
      "v": 112
    },
    {
      "midi": 45,
      "hit": false,
      "t": 49724.04937500004,
      "d": 2156.529374999991,
      "v": 112
    },
    {
      "midi": 57,
      "hit": false,
      "t": 51075.39937500004,
      "d": 411.0356249999968,
      "v": 125
    },
    {
      "midi": 61,
      "hit": false,
      "t": 51345.669375000034,
      "d": 534.9093749999956,
      "v": 101
    },
    {
      "midi": 64,
      "hit": false,
      "t": 51345.669375000034,
      "d": 534.9093749999956,
      "v": 112
    },
    {
      "midi": 57,
      "hit": false,
      "t": 51615.93937500003,
      "d": 264.63937499999884,
      "v": 100
    },
    {
      "midi": 69,
      "hit": false,
      "t": 51615.93937500003,
      "d": 264.63937499999884,
      "v": 97
    },
    {
      "midi": 66,
      "hit": false,
      "t": 51897.47062500003,
      "d": 382.8824999999997,
      "v": 79
    },
    {
      "midi": 50,
      "hit": false,
      "t": 51897.47062500003,
      "d": 793.9181249999965,
      "v": 110
    },
    {
      "midi": 62,
      "hit": false,
      "t": 51897.47062500003,
      "d": 793.9181249999965,
      "v": 114
    },
    {
      "midi": 69,
      "hit": false,
      "t": 51897.47062500003,
      "d": 793.9181249999965,
      "v": 112
    },
    {
      "midi": 50,
      "hit": false,
      "t": 52697.019375000025,
      "d": 540.5400000000009,
      "v": 114
    },
    {
      "midi": 62,
      "hit": false,
      "t": 52697.019375000025,
      "d": 816.4406249999956,
      "v": 108
    },
    {
      "midi": 66,
      "hit": false,
      "t": 52697.019375000025,
      "d": 816.4406249999956,
      "v": 116
    },
    {
      "midi": 69,
      "hit": false,
      "t": 52697.019375000025,
      "d": 1075.4493749999965,
      "v": 102
    },
    {
      "midi": 50,
      "hit": false,
      "t": 53243.190000000024,
      "d": 529.2787499999977,
      "v": 100
    },
    {
      "midi": 62,
      "hit": false,
      "t": 53519.09062500002,
      "d": 264.63937499999884,
      "v": 114
    },
    {
      "midi": 66,
      "hit": false,
      "t": 53519.09062500002,
      "d": 484.2337499999994,
      "v": 127
    },
    {
      "midi": 50,
      "hit": false,
      "t": 53778.09937500002,
      "d": 225.22499999999854,
      "v": 75
    },
    {
      "midi": 69,
      "hit": false,
      "t": 53778.09937500002,
      "d": 225.22499999999854,
      "v": 112
    },
    {
      "midi": 62,
      "hit": false,
      "t": 53789.360625000016,
      "d": 213.96375000000262,
      "v": 64
    },
    {
      "midi": 61,
      "hit": false,
      "t": 54048.36937500002,
      "d": 799.5487500000017,
      "v": 110
    },
    {
      "midi": 64,
      "hit": false,
      "t": 54048.36937500002,
      "d": 799.5487500000017,
      "v": 108
    },
    {
      "midi": 69,
      "hit": false,
      "t": 54048.36937500002,
      "d": 799.5487500000017,
      "v": 110
    },
    {
      "midi": 45,
      "hit": false,
      "t": 54054.000000000015,
      "d": 793.9181250000038,
      "v": 125
    },
    {
      "midi": 57,
      "hit": false,
      "t": 54588.90937500002,
      "d": 259.0087500000009,
      "v": 98
    },
    {
      "midi": 57,
      "hit": false,
      "t": 54859.17937500002,
      "d": 534.9093750000029,
      "v": 112
    },
    {
      "midi": 45,
      "hit": false,
      "t": 54859.17937500002,
      "d": 754.5037500000035,
      "v": 117
    },
    {
      "midi": 69,
      "hit": false,
      "t": 54859.17937500002,
      "d": 754.5037500000035,
      "v": 120
    },
    {
      "midi": 76,
      "hit": false,
      "t": 54859.17937500002,
      "d": 754.5037500000035,
      "v": 125
    },
    {
      "midi": 57,
      "hit": false,
      "t": 55399.71937500002,
      "d": 213.96375000000262,
      "v": 114
    },
    {
      "midi": 50,
      "hit": false,
      "t": 55669.98937500003,
      "d": 495.4950000000026,
      "v": 127
    },
    {
      "midi": 66,
      "hit": false,
      "t": 55669.98937500003,
      "d": 495.4950000000026,
      "v": 116
    },
    {
      "midi": 69,
      "hit": false,
      "t": 55669.98937500003,
      "d": 495.4950000000026,
      "v": 127
    },
    {
      "midi": 74,
      "hit": false,
      "t": 55669.98937500003,
      "d": 495.4950000000026,
      "v": 127
    },
    {
      "midi": 57,
      "hit": false,
      "t": 56210.52937500003,
      "d": 805.1793749999997,
      "v": 120
    },
    {
      "midi": 64,
      "hit": false,
      "t": 56210.52937500003,
      "d": 805.1793749999997,
      "v": 127
    },
    {
      "midi": 69,
      "hit": false,
      "t": 56210.52937500003,
      "d": 805.1793749999997,
      "v": 110
    },
    {
      "midi": 45,
      "hit": false,
      "t": 56210.52937500003,
      "d": 850.224374999998,
      "v": 106
    },
    {
      "midi": 73,
      "hit": false,
      "t": 56210.52937500003,
      "d": 850.224374999998,
      "v": 113
    },
    {
      "midi": 57,
      "hit": false,
      "t": 57021.339375000025,
      "d": 1300.674374999995,
      "v": 114
    },
    {
      "midi": 64,
      "hit": false,
      "t": 57021.339375000025,
      "d": 1300.674374999995,
      "v": 120
    },
    {
      "midi": 69,
      "hit": false,
      "t": 57021.339375000025,
      "d": 1300.674374999995,
      "v": 98
    },
    {
      "midi": 45,
      "hit": false,
      "t": 57561.879375000026,
      "d": 534.9093749999956,
      "v": 112
    },
    {
      "midi": 61,
      "hit": false,
      "t": 57832.14937500002,
      "d": 489.8643749999974,
      "v": 107
    },
    {
      "midi": 45,
      "hit": false,
      "t": 58102.41937500002,
      "d": 219.59437500000058,
      "v": 110
    },
    {
      "midi": 45,
      "hit": false,
      "t": 58372.68937500002,
      "d": 1075.4493749999892,
      "v": 122
    },
    {
      "midi": 69,
      "hit": false,
      "t": 58642.95937500002,
      "d": 275.90062499999476,
      "v": 102
    },
    {
      "midi": 76,
      "hit": false,
      "t": 58642.95937500002,
      "d": 275.90062499999476,
      "v": 114
    },
    {
      "midi": 64,
      "hit": false,
      "t": 58642.95937500002,
      "d": 805.1793749999924,
      "v": 97
    },
    {
      "midi": 57,
      "hit": false,
      "t": 58648.59000000002,
      "d": 799.5487499999945,
      "v": 108
    },
    {
      "midi": 69,
      "hit": false,
      "t": 58924.49062500001,
      "d": 523.6481249999997,
      "v": 83
    },
    {
      "midi": 76,
      "hit": false,
      "t": 58924.49062500001,
      "d": 523.6481249999997,
      "v": 66
    },
    {
      "midi": 64,
      "hit": false,
      "t": 59453.76937500001,
      "d": 534.9093749999956,
      "v": 117
    },
    {
      "midi": 71,
      "hit": false,
      "t": 59453.76937500001,
      "d": 534.9093749999956,
      "v": 114
    },
    {
      "midi": 76,
      "hit": false,
      "t": 59453.76937500001,
      "d": 534.9093749999956,
      "v": 100
    },
    {
      "midi": 44,
      "hit": false,
      "t": 59453.76937500001,
      "d": 810.8099999999904,
      "v": 107
    },
    {
      "midi": 56,
      "hit": false,
      "t": 59724.03937500001,
      "d": 332.2068749999962,
      "v": 97
    },
    {
      "midi": 64,
      "hit": false,
      "t": 59994.309375000004,
      "d": 506.75624999999127,
      "v": 108
    },
    {
      "midi": 68,
      "hit": false,
      "t": 59994.309375000004,
      "d": 506.75624999999127,
      "v": 104
    },
    {
      "midi": 71,
      "hit": false,
      "t": 59994.309375000004,
      "d": 506.75624999999127,
      "v": 97
    },
    {
      "midi": 76,
      "hit": false,
      "t": 59994.309375000004,
      "d": 506.75624999999127,
      "v": 98
    },
    {
      "midi": 56,
      "hit": false,
      "t": 60264.579375,
      "d": 236.48624999999447,
      "v": 116
    },
    {
      "midi": 44,
      "hit": false,
      "t": 60270.21,
      "d": 230.8556249999965,
      "v": 58
    },
    {
      "midi": 42,
      "hit": false,
      "t": 60534.849375,
      "d": 1255.6293749999968,
      "v": 110
    },
    {
      "midi": 54,
      "hit": false,
      "t": 60534.849375,
      "d": 1255.6293749999968,
      "v": 119
    },
    {
      "midi": 66,
      "hit": false,
      "t": 60534.849375,
      "d": 1255.6293749999968,
      "v": 113
    },
    {
      "midi": 69,
      "hit": false,
      "t": 60534.849375,
      "d": 1255.6293749999968,
      "v": 102
    },
    {
      "midi": 73,
      "hit": false,
      "t": 60534.849375,
      "d": 1255.6293749999968,
      "v": 99
    },
    {
      "midi": 42,
      "hit": false,
      "t": 61886.199375,
      "d": 281.53125,
      "v": 99
    },
    {
      "midi": 61,
      "hit": false,
      "t": 61886.199375,
      "d": 534.9093750000029,
      "v": 95
    },
    {
      "midi": 66,
      "hit": false,
      "t": 61886.199375,
      "d": 793.9181250000038,
      "v": 110
    },
    {
      "midi": 54,
      "hit": false,
      "t": 62156.46937499999,
      "d": 523.648125000007,
      "v": 116
    },
    {
      "midi": 61,
      "hit": false,
      "t": 62426.739375,
      "d": 253.3781250000029,
      "v": 79
    },
    {
      "midi": 69,
      "hit": false,
      "t": 62426.739375,
      "d": 253.3781250000029,
      "v": 90
    },
    {
      "midi": 50,
      "hit": false,
      "t": 62708.270625,
      "d": 1334.4581249999974,
      "v": 120
    },
    {
      "midi": 62,
      "hit": false,
      "t": 62708.270625,
      "d": 1604.7281249999942,
      "v": 114
    },
    {
      "midi": 66,
      "hit": false,
      "t": 62708.270625,
      "d": 1604.7281249999942,
      "v": 123
    },
    {
      "midi": 69,
      "hit": false,
      "t": 62708.270625,
      "d": 1874.998124999991,
      "v": 120
    },
    {
      "midi": 57,
      "hit": false,
      "t": 64048.35937499999,
      "d": 264.63937499999884,
      "v": 78
    },
    {
      "midi": 50,
      "hit": false,
      "t": 64048.35937499999,
      "d": 534.9093749999956,
      "v": 80
    },
    {
      "midi": 57,
      "hit": false,
      "t": 64318.62937499999,
      "d": 264.63937499999884,
      "v": 97
    },
    {
      "midi": 62,
      "hit": false,
      "t": 64318.62937499999,
      "d": 264.63937499999884,
      "v": 106
    },
    {
      "midi": 66,
      "hit": false,
      "t": 64318.62937499999,
      "d": 264.63937499999884,
      "v": 101
    },
    {
      "midi": 50,
      "hit": false,
      "t": 64588.899374999986,
      "d": 247.74749999999767,
      "v": 112
    },
    {
      "midi": 57,
      "hit": false,
      "t": 64588.899374999986,
      "d": 247.74749999999767,
      "v": 67
    },
    {
      "midi": 62,
      "hit": false,
      "t": 64588.899374999986,
      "d": 247.74749999999767,
      "v": 77
    },
    {
      "midi": 66,
      "hit": false,
      "t": 64588.899374999986,
      "d": 247.74749999999767,
      "v": 61
    },
    {
      "midi": 69,
      "hit": false,
      "t": 64588.899374999986,
      "d": 247.74749999999767,
      "v": 91
    },
    {
      "midi": 59,
      "hit": false,
      "t": 64859.16937499998,
      "d": 365.99062499999854,
      "v": 98
    },
    {
      "midi": 64,
      "hit": false,
      "t": 64859.16937499998,
      "d": 805.179375000007,
      "v": 94
    },
    {
      "midi": 68,
      "hit": false,
      "t": 64859.16937499998,
      "d": 805.179375000007,
      "v": 99
    },
    {
      "midi": 71,
      "hit": false,
      "t": 64859.16937499998,
      "d": 805.179375000007,
      "v": 110
    },
    {
      "midi": 52,
      "hit": false,
      "t": 64859.16937499998,
      "d": 1081.0800000000163,
      "v": 114
    },
    {
      "midi": 59,
      "hit": false,
      "t": 65399.709374999984,
      "d": 264.6393750000061,
      "v": 73
    },
    {
      "midi": 59,
      "hit": false,
      "t": 65669.979375,
      "d": 399.77437500000815,
      "v": 127
    },
    {
      "midi": 64,
      "hit": false,
      "t": 65669.979375,
      "d": 534.9093750000175,
      "v": 117
    },
    {
      "midi": 68,
      "hit": false,
      "t": 65669.979375,
      "d": 771.3956250000338,
      "v": 116
    },
    {
      "midi": 71,
      "hit": false,
      "t": 65669.979375,
      "d": 771.3956250000338,
      "v": 117
    },
    {
      "midi": 52,
      "hit": false,
      "t": 65945.88,
      "d": 270.2700000000186,
      "v": 65
    },
    {
      "midi": 59,
      "hit": false,
      "t": 66075.38437500001,
      "d": 365.9906250000204,
      "v": 81
    },
    {
      "midi": 64,
      "hit": false,
      "t": 66210.51937500002,
      "d": 230.85562500001106,
      "v": 72
    },
    {
      "midi": 52,
      "hit": false,
      "t": 66221.78062500003,
      "d": 337.8374999999942,
      "v": 117
    },
    {
      "midi": 64,
      "hit": false,
      "t": 66480.78937500002,
      "d": 540.5399999999936,
      "v": 117
    },
    {
      "midi": 59,
      "hit": false,
      "t": 66480.78937500002,
      "d": 546.1706249999988,
      "v": 122
    },
    {
      "midi": 68,
      "hit": false,
      "t": 66480.78937500002,
      "d": 546.1706249999988,
      "v": 113
    },
    {
      "midi": 71,
      "hit": false,
      "t": 66480.78937500002,
      "d": 546.1706249999988,
      "v": 122
    },
    {
      "midi": 52,
      "hit": false,
      "t": 66762.32062500002,
      "d": 264.63937499999884,
      "v": 92
    },
    {
      "midi": 69,
      "hit": false,
      "t": 67026.96000000002,
      "d": 529.2787500000122,
      "v": 112
    },
    {
      "midi": 64,
      "hit": false,
      "t": 67026.96000000002,
      "d": 551.8012500000186,
      "v": 114
    },
    {
      "midi": 61,
      "hit": false,
      "t": 67032.59062500003,
      "d": 546.1706250000134,
      "v": 119
    },
    {
      "midi": 45,
      "hit": false,
      "t": 67032.59062500003,
      "d": 2150.8987500000367,
      "v": 125
    },
    {
      "midi": 57,
      "hit": false,
      "t": 67561.86937500004,
      "d": 805.179375000007,
      "v": 102
    },
    {
      "midi": 69,
      "hit": false,
      "t": 67561.86937500004,
      "d": 1075.449375000011,
      "v": 110
    },
    {
      "midi": 76,
      "hit": false,
      "t": 67561.86937500004,
      "d": 1075.449375000011,
      "v": 122
    },
    {
      "midi": 64,
      "hit": false,
      "t": 68372.67937500005,
      "d": 264.63937499999884,
      "v": 85
    },
    {
      "midi": 57,
      "hit": false,
      "t": 68372.67937500005,
      "d": 287.16187500000524,
      "v": 83
    },
    {
      "midi": 64,
      "hit": false,
      "t": 68642.94937500005,
      "d": 540.5400000000081,
      "v": 127
    },
    {
      "midi": 69,
      "hit": false,
      "t": 68642.94937500005,
      "d": 540.5400000000081,
      "v": 110
    },
    {
      "midi": 73,
      "hit": false,
      "t": 68642.94937500005,
      "d": 540.5400000000081,
      "v": 101
    },
    {
      "midi": 76,
      "hit": false,
      "t": 68642.94937500005,
      "d": 540.5400000000081,
      "v": 108
    },
    {
      "midi": 57,
      "hit": false,
      "t": 68913.21937500006,
      "d": 270.2700000000041,
      "v": 104
    },
    {
      "midi": 66,
      "hit": false,
      "t": 69194.75062500006,
      "d": 793.9181249999965,
      "v": 116
    },
    {
      "midi": 69,
      "hit": false,
      "t": 69194.75062500006,
      "d": 793.9181249999965,
      "v": 102
    },
    {
      "midi": 74,
      "hit": false,
      "t": 69194.75062500006,
      "d": 793.9181249999965,
      "v": 98
    },
    {
      "midi": 50,
      "hit": false,
      "t": 69194.75062500006,
      "d": 900.9000000000087,
      "v": 127
    },
    {
      "midi": 66,
      "hit": false,
      "t": 69994.29937500006,
      "d": 805.179375000007,
      "v": 116
    },
    {
      "midi": 69,
      "hit": false,
      "t": 69994.29937500006,
      "d": 805.179375000007,
      "v": 117
    },
    {
      "midi": 74,
      "hit": false,
      "t": 69994.29937500006,
      "d": 805.179375000007,
      "v": 120
    },
    {
      "midi": 50,
      "hit": false,
      "t": 70534.83937500007,
      "d": 388.5131249999977,
      "v": 127
    },
    {
      "midi": 69,
      "hit": false,
      "t": 70805.10937500007,
      "d": 540.5399999999936,
      "v": 122
    },
    {
      "midi": 62,
      "hit": false,
      "t": 70805.10937500007,
      "d": 551.8012500000041,
      "v": 117
    },
    {
      "midi": 66,
      "hit": false,
      "t": 70805.10937500007,
      "d": 551.8012500000041,
      "v": 127
    },
    {
      "midi": 50,
      "hit": false,
      "t": 71075.37937500006,
      "d": 281.53125000001455,
      "v": 72
    },
    {
      "midi": 61,
      "hit": false,
      "t": 71351.28000000007,
      "d": 1559.6831250000105,
      "v": 116
    },
    {
      "midi": 64,
      "hit": false,
      "t": 71351.28000000007,
      "d": 1559.6831250000105,
      "v": 112
    },
    {
      "midi": 69,
      "hit": false,
      "t": 71351.28000000007,
      "d": 1559.6831250000105,
      "v": 108
    },
    {
      "midi": 45,
      "hit": false,
      "t": 71356.91062500008,
      "d": 1334.4581250000047,
      "v": 122
    },
    {
      "midi": 57,
      "hit": false,
      "t": 72156.45937500008,
      "d": 534.9093750000029,
      "v": 106
    },
    {
      "midi": 45,
      "hit": false,
      "t": 72696.99937500009,
      "d": 213.96374999999534,
      "v": 104
    },
    {
      "midi": 57,
      "hit": false,
      "t": 72696.99937500009,
      "d": 213.96374999999534,
      "v": 108
    },
    {
      "midi": 50,
      "hit": false,
      "t": 72967.26937500008,
      "d": 484.2337499999994,
      "v": 120
    },
    {
      "midi": 66,
      "hit": false,
      "t": 72967.26937500008,
      "d": 484.2337499999994,
      "v": 123
    },
    {
      "midi": 69,
      "hit": false,
      "t": 72967.26937500008,
      "d": 484.2337499999994,
      "v": 127
    },
    {
      "midi": 74,
      "hit": false,
      "t": 72967.26937500008,
      "d": 484.2337499999994,
      "v": 127
    },
    {
      "midi": 64,
      "hit": false,
      "t": 73507.80937500007,
      "d": 754.5037500000035,
      "v": 125
    },
    {
      "midi": 57,
      "hit": false,
      "t": 73507.80937500007,
      "d": 765.7649999999994,
      "v": 125
    },
    {
      "midi": 69,
      "hit": false,
      "t": 73507.80937500007,
      "d": 765.7649999999994,
      "v": 114
    },
    {
      "midi": 73,
      "hit": false,
      "t": 73507.80937500007,
      "d": 771.3956250000047,
      "v": 113
    },
    {
      "midi": 45,
      "hit": false,
      "t": 73507.80937500007,
      "d": 1345.7193750000006,
      "v": 106
    },
    {
      "midi": 57,
      "hit": false,
      "t": 74318.61937500007,
      "d": 816.4406250000029,
      "v": 94
    },
    {
      "midi": 69,
      "hit": false,
      "t": 74318.61937500007,
      "d": 816.4406250000029,
      "v": 100
    },
    {
      "midi": 76,
      "hit": false,
      "t": 74318.61937500007,
      "d": 816.4406250000029,
      "v": 88
    },
    {
      "midi": 64,
      "hit": false,
      "t": 74318.61937500007,
      "d": 2387.3850000000384,
      "v": 84
    },
    {
      "midi": 45,
      "hit": false,
      "t": 74859.15937500008,
      "d": 534.9093750000029,
      "v": 100
    },
    {
      "midi": 57,
      "hit": false,
      "t": 75140.69062500008,
      "d": 253.3781250000029,
      "v": 51
    },
    {
      "midi": 69,
      "hit": false,
      "t": 75140.69062500008,
      "d": 253.3781250000029,
      "v": 108
    },
    {
      "midi": 76,
      "hit": false,
      "t": 75140.69062500008,
      "d": 253.3781250000029,
      "v": 106
    },
    {
      "midi": 57,
      "hit": false,
      "t": 75399.69937500008,
      "d": 534.9093750000029,
      "v": 114
    },
    {
      "midi": 69,
      "hit": false,
      "t": 75399.69937500008,
      "d": 534.9093750000029,
      "v": 127
    },
    {
      "midi": 76,
      "hit": false,
      "t": 75399.69937500008,
      "d": 534.9093750000029,
      "v": 125
    },
    {
      "midi": 45,
      "hit": false,
      "t": 75399.69937500008,
      "d": 1306.3050000000221,
      "v": 117
    },
    {
      "midi": 69,
      "hit": false,
      "t": 75940.23937500009,
      "d": 264.63937499999884,
      "v": 85
    },
    {
      "midi": 76,
      "hit": false,
      "t": 75940.23937500009,
      "d": 264.63937499999884,
      "v": 87
    },
    {
      "midi": 81,
      "hit": false,
      "t": 75940.23937500009,
      "d": 264.63937499999884,
      "v": 94
    },
    {
      "midi": 57,
      "hit": false,
      "t": 75940.23937500009,
      "d": 416.6662500000093,
      "v": 117
    },
    {
      "midi": 69,
      "hit": false,
      "t": 76210.5093750001,
      "d": 495.4950000000099,
      "v": 122
    },
    {
      "midi": 76,
      "hit": false,
      "t": 76210.5093750001,
      "d": 495.4950000000099,
      "v": 125
    },
    {
      "midi": 81,
      "hit": false,
      "t": 76210.5093750001,
      "d": 495.4950000000099,
      "v": 127
    },
    {
      "midi": 57,
      "hit": false,
      "t": 76362.5362500001,
      "d": 343.4681249999994,
      "v": 80
    },
    {
      "midi": 71,
      "hit": false,
      "t": 76751.0493750001,
      "d": 534.9093750000029,
      "v": 112
    },
    {
      "midi": 76,
      "hit": false,
      "t": 76751.0493750001,
      "d": 534.9093750000029,
      "v": 112
    },
    {
      "midi": 80,
      "hit": false,
      "t": 76751.0493750001,
      "d": 534.9093750000029,
      "v": 116
    },
    {
      "midi": 56,
      "hit": false,
      "t": 76751.0493750001,
      "d": 805.179375000007,
      "v": 127
    },
    {
      "midi": 44,
      "hit": false,
      "t": 76751.0493750001,
      "d": 1052.9268750000192,
      "v": 107
    },
    {
      "midi": 71,
      "hit": false,
      "t": 77291.58937500011,
      "d": 512.3868750000111,
      "v": 94
    },
    {
      "midi": 76,
      "hit": false,
      "t": 77291.58937500011,
      "d": 512.3868750000111,
      "v": 97
    },
    {
      "midi": 80,
      "hit": false,
      "t": 77291.58937500011,
      "d": 512.3868750000111,
      "v": 104
    },
    {
      "midi": 56,
      "hit": false,
      "t": 77561.85937500012,
      "d": 242.11687500000698,
      "v": 99
    },
    {
      "midi": 54,
      "hit": false,
      "t": 77832.12937500012,
      "d": 799.5487500000017,
      "v": 119
    },
    {
      "midi": 69,
      "hit": false,
      "t": 77832.12937500012,
      "d": 799.5487500000017,
      "v": 106
    },
    {
      "midi": 73,
      "hit": false,
      "t": 77832.12937500012,
      "d": 799.5487500000017,
      "v": 107
    },
    {
      "midi": 78,
      "hit": false,
      "t": 77832.12937500012,
      "d": 799.5487500000017,
      "v": 107
    },
    {
      "midi": 42,
      "hit": false,
      "t": 77832.12937500012,
      "d": 1345.7193750000006,
      "v": 110
    },
    {
      "midi": 69,
      "hit": false,
      "t": 78642.93937500012,
      "d": 805.179375000007,
      "v": 110
    },
    {
      "midi": 54,
      "hit": false,
      "t": 78642.93937500012,
      "d": 1311.9356250000128,
      "v": 123
    },
    {
      "midi": 73,
      "hit": false,
      "t": 78642.93937500012,
      "d": 1311.9356250000128,
      "v": 101
    },
    {
      "midi": 42,
      "hit": false,
      "t": 79183.47937500013,
      "d": 771.3956250000047,
      "v": 95
    },
    {
      "midi": 66,
      "hit": false,
      "t": 79453.74937500013,
      "d": 501.1256250000006,
      "v": 107
    },
    {
      "midi": 69,
      "hit": false,
      "t": 79453.74937500013,
      "d": 501.1256250000006,
      "v": 92
    },
    {
      "midi": 50,
      "hit": false,
      "t": 79994.28937500012,
      "d": 534.9093750000029,
      "v": 125
    },
    {
      "midi": 62,
      "hit": false,
      "t": 79994.28937500012,
      "d": 534.9093750000029,
      "v": 117
    },
    {
      "midi": 66,
      "hit": false,
      "t": 79994.28937500012,
      "d": 534.9093750000029,
      "v": 116
    },
    {
      "midi": 69,
      "hit": false,
      "t": 79994.28937500012,
      "d": 534.9093750000029,
      "v": 114
    },
    {
      "midi": 50,
      "hit": false,
      "t": 80534.82937500013,
      "d": 518.0175000000017,
      "v": 97
    },
    {
      "midi": 62,
      "hit": false,
      "t": 80534.82937500013,
      "d": 518.0175000000017,
      "v": 97
    },
    {
      "midi": 66,
      "hit": false,
      "t": 80534.82937500013,
      "d": 518.0175000000017,
      "v": 97
    },
    {
      "midi": 69,
      "hit": false,
      "t": 80534.82937500013,
      "d": 518.0175000000017,
      "v": 87
    },
    {
      "midi": 64,
      "hit": false,
      "t": 81075.36937500014,
      "d": 478.6031249999942,
      "v": 112
    },
    {
      "midi": 68,
      "hit": false,
      "t": 81075.36937500014,
      "d": 478.6031249999942,
      "v": 116
    },
    {
      "midi": 71,
      "hit": false,
      "t": 81075.36937500014,
      "d": 478.6031249999942,
      "v": 110
    },
    {
      "midi": 52,
      "hit": false,
      "t": 81075.36937500014,
      "d": 501.1256250000006,
      "v": 110
    },
    {
      "midi": 52,
      "hit": false,
      "t": 81621.54000000014,
      "d": 512.3868749999965,
      "v": 91
    },
    {
      "midi": 64,
      "hit": false,
      "t": 81621.54000000014,
      "d": 512.3868749999965,
      "v": 106
    },
    {
      "midi": 68,
      "hit": false,
      "t": 81621.54000000014,
      "d": 512.3868749999965,
      "v": 101
    },
    {
      "midi": 71,
      "hit": false,
      "t": 81621.54000000014,
      "d": 512.3868749999965,
      "v": 106
    },
    {
      "midi": 61,
      "hit": false,
      "t": 82156.44937500014,
      "d": 174.54937500000233,
      "v": 97
    },
    {
      "midi": 64,
      "hit": false,
      "t": 82156.44937500014,
      "d": 185.81062499999825,
      "v": 100
    },
    {
      "midi": 69,
      "hit": false,
      "t": 82156.44937500014,
      "d": 185.81062499999825,
      "v": 97
    },
    {
      "midi": 45,
      "hit": false,
      "t": 82156.44937500014,
      "d": 197.07187499999418,
      "v": 102
    },
    {
      "midi": 42,
      "hit": false,
      "t": 82426.71937500013,
      "d": 168.9187499999971,
      "v": 123
    },
    {
      "midi": 69,
      "hit": false,
      "t": 82426.71937500013,
      "d": 219.59437500000058,
      "v": 120
    },
    {
      "midi": 62,
      "hit": false,
      "t": 82426.71937500013,
      "d": 230.8556249999965,
      "v": 122
    },
    {
      "midi": 66,
      "hit": false,
      "t": 82426.71937500013,
      "d": 230.8556249999965,
      "v": 127
    },
    {
      "midi": 40,
      "hit": false,
      "t": 82696.98937500012,
      "d": 197.07187499999418,
      "v": 125
    },
    {
      "midi": 62,
      "hit": false,
      "t": 82708.25062500012,
      "d": 180.17999999999302,
      "v": 98
    },
    {
      "midi": 66,
      "hit": false,
      "t": 82708.25062500012,
      "d": 185.81062499999825,
      "v": 91
    },
    {
      "midi": 69,
      "hit": false,
      "t": 82708.25062500012,
      "d": 185.81062499999825,
      "v": 97
    },
    {
      "midi": 62,
      "hit": false,
      "t": 82967.25937500011,
      "d": 157.65750000000116,
      "v": 104
    },
    {
      "midi": 69,
      "hit": false,
      "t": 82967.25937500011,
      "d": 157.65750000000116,
      "v": 102
    },
    {
      "midi": 66,
      "hit": false,
      "t": 82967.25937500011,
      "d": 219.59437500000058,
      "v": 104
    },
    {
      "midi": 38,
      "hit": false,
      "t": 82967.25937500011,
      "d": 242.11687500000698,
      "v": 127
    },
    {
      "midi": 69,
      "hit": false,
      "t": 83237.52937500011,
      "d": 315.3150000000169,
      "v": 120
    },
    {
      "midi": 45,
      "hit": false,
      "t": 83243.16000000012,
      "d": 292.7924999999959,
      "v": 127
    },
    {
      "midi": 61,
      "hit": false,
      "t": 83243.16000000012,
      "d": 298.42312500000116,
      "v": 127
    },
    {
      "midi": 64,
      "hit": false,
      "t": 83243.16000000012,
      "d": 304.0537500000064,
      "v": 117
    },
    {
      "midi": 45,
      "hit": false,
      "t": 84318.60937500013,
      "d": 163.2881250000064,
      "v": 62
    },
    {
      "midi": 38,
      "hit": false,
      "t": 84318.60937500013,
      "d": 343.4681249999994,
      "v": 66
    },
    {
      "midi": 57,
      "hit": false,
      "t": 84318.60937500013,
      "d": 771.3956250000047,
      "v": 53
    },
    {
      "midi": 62,
      "hit": false,
      "t": 84318.60937500013,
      "d": 805.179375000007,
      "v": 65
    },
    {
      "midi": 45,
      "hit": false,
      "t": 84588.87937500014,
      "d": 106.98187499999767,
      "v": 66
    },
    {
      "midi": 45,
      "hit": false,
      "t": 85129.41937500014,
      "d": 67.5674999999901,
      "v": 73
    },
    {
      "midi": 38,
      "hit": false,
      "t": 85140.68062500014,
      "d": 73.19812499999534,
      "v": 73
    },
    {
      "midi": 57,
      "hit": false,
      "t": 85410.95062500013,
      "d": 867.1162499999919,
      "v": 65
    },
    {
      "midi": 62,
      "hit": false,
      "t": 85410.95062500013,
      "d": 1007.8818749999919,
      "v": 72
    },
    {
      "midi": 45,
      "hit": false,
      "t": 85669.95937500012,
      "d": 101.35125000000698,
      "v": 78
    },
    {
      "midi": 38,
      "hit": false,
      "t": 85669.95937500012,
      "d": 135.1350000000093,
      "v": 85
    },
    {
      "midi": 38,
      "hit": false,
      "t": 86221.76062500013,
      "d": 39.414374999993015,
      "v": 53
    },
    {
      "midi": 45,
      "hit": false,
      "t": 86221.76062500013,
      "d": 39.414374999993015,
      "v": 54
    },
    {
      "midi": 47,
      "hit": false,
      "t": 86480.76937500012,
      "d": 146.39625000000524,
      "v": 85
    },
    {
      "midi": 40,
      "hit": false,
      "t": 86480.76937500012,
      "d": 174.54937500000233,
      "v": 84
    },
    {
      "midi": 59,
      "hit": false,
      "t": 86480.76937500012,
      "d": 619.3687500000087,
      "v": 75
    },
    {
      "midi": 64,
      "hit": false,
      "t": 86480.76937500012,
      "d": 777.0262500000099,
      "v": 79
    },
    {
      "midi": 47,
      "hit": false,
      "t": 86751.03937500012,
      "d": 101.35125000000698,
      "v": 81
    },
    {
      "midi": 40,
      "hit": false,
      "t": 86751.03937500012,
      "d": 129.50437500000407,
      "v": 80
    },
    {
      "midi": 47,
      "hit": false,
      "t": 87561.84937500014,
      "d": 101.35125000000698,
      "v": 66
    },
    {
      "midi": 40,
      "hit": false,
      "t": 87561.84937500014,
      "d": 106.98187500001222,
      "v": 65
    },
    {
      "midi": 59,
      "hit": false,
      "t": 87561.84937500014,
      "d": 495.4950000000099,
      "v": 68
    },
    {
      "midi": 64,
      "hit": false,
      "t": 87561.84937500014,
      "d": 1097.9718750000175,
      "v": 67
    },
    {
      "midi": 47,
      "hit": false,
      "t": 87832.11937500015,
      "d": 90.08999999999651,
      "v": 83
    },
    {
      "midi": 40,
      "hit": false,
      "t": 87832.11937500015,
      "d": 118.2431249999936,
      "v": 86
    },
    {
      "midi": 59,
      "hit": false,
      "t": 88113.65062500014,
      "d": 371.6212499999965,
      "v": 74
    },
    {
      "midi": 47,
      "hit": false,
      "t": 88372.65937500013,
      "d": 112.61250000000291,
      "v": 80
    },
    {
      "midi": 40,
      "hit": false,
      "t": 88372.65937500013,
      "d": 135.1350000000093,
      "v": 77
    },
    {
      "midi": 45,
      "hit": false,
      "t": 88654.19062500015,
      "d": 84.45937500000582,
      "v": 56
    },
    {
      "midi": 38,
      "hit": false,
      "t": 88654.19062500015,
      "d": 106.98187500001222,
      "v": 64
    },
    {
      "midi": 57,
      "hit": false,
      "t": 88654.19062500015,
      "d": 478.6031249999942,
      "v": 63
    },
    {
      "midi": 62,
      "hit": false,
      "t": 88654.19062500015,
      "d": 850.2243749999907,
      "v": 52
    },
    {
      "midi": 45,
      "hit": false,
      "t": 88913.19937500016,
      "d": 118.2431249999936,
      "v": 108
    },
    {
      "midi": 38,
      "hit": false,
      "t": 88913.19937500016,
      "d": 157.6574999999866,
      "v": 110
    },
    {
      "midi": 57,
      "hit": false,
      "t": 89453.73937500014,
      "d": 197.07187500000873,
      "v": 67
    },
    {
      "midi": 45,
      "hit": false,
      "t": 89724.00937500014,
      "d": 95.72062500000175,
      "v": 87
    },
    {
      "midi": 38,
      "hit": false,
      "t": 89724.00937500014,
      "d": 118.24312500000815,
      "v": 95
    },
    {
      "midi": 57,
      "hit": false,
      "t": 89724.00937500014,
      "d": 242.11687500000698,
      "v": 57
    },
    {
      "midi": 62,
      "hit": false,
      "t": 89724.00937500014,
      "d": 253.3781250000029,
      "v": 76
    },
    {
      "midi": 45,
      "hit": false,
      "t": 89994.27937500014,
      "d": 106.98187499999767,
      "v": 100
    },
    {
      "midi": 38,
      "hit": false,
      "t": 89994.27937500014,
      "d": 118.2431249999936,
      "v": 98
    },
    {
      "midi": 57,
      "hit": false,
      "t": 89994.27937500014,
      "d": 658.7831250000017,
      "v": 60
    },
    {
      "midi": 62,
      "hit": false,
      "t": 89994.27937500014,
      "d": 827.7018749999988,
      "v": 75
    },
    {
      "midi": 38,
      "hit": false,
      "t": 90540.45000000014,
      "d": 90.08999999999651,
      "v": 68
    },
    {
      "midi": 45,
      "hit": false,
      "t": 90540.45000000014,
      "d": 95.72062500000175,
      "v": 68
    },
    {
      "midi": 47,
      "hit": false,
      "t": 90805.08937500014,
      "d": 90.08999999999651,
      "v": 90
    },
    {
      "midi": 40,
      "hit": false,
      "t": 90805.08937500014,
      "d": 118.2431249999936,
      "v": 92
    },
    {
      "midi": 59,
      "hit": false,
      "t": 90805.08937500014,
      "d": 619.3687499999942,
      "v": 73
    },
    {
      "midi": 64,
      "hit": false,
      "t": 90805.08937500014,
      "d": 878.3775000000023,
      "v": 80
    },
    {
      "midi": 47,
      "hit": false,
      "t": 91075.35937500013,
      "d": 106.98187499999767,
      "v": 110
    },
    {
      "midi": 40,
      "hit": false,
      "t": 91075.35937500013,
      "d": 123.87374999999884,
      "v": 108
    },
    {
      "midi": 59,
      "hit": false,
      "t": 91615.89937500014,
      "d": 1227.476250000007,
      "v": 68
    },
    {
      "midi": 47,
      "hit": false,
      "t": 91886.16937500014,
      "d": 67.56750000000466,
      "v": 65
    },
    {
      "midi": 40,
      "hit": false,
      "t": 91886.16937500014,
      "d": 84.45937500000582,
      "v": 64
    },
    {
      "midi": 64,
      "hit": false,
      "t": 91886.16937500014,
      "d": 208.33312500000466,
      "v": 64
    },
    {
      "midi": 47,
      "hit": false,
      "t": 92156.43937500015,
      "d": 101.35125000000698,
      "v": 106
    },
    {
      "midi": 40,
      "hit": false,
      "t": 92156.43937500015,
      "d": 129.50437500000407,
      "v": 104
    },
    {
      "midi": 64,
      "hit": false,
      "t": 92156.43937500015,
      "d": 878.3775000000023,
      "v": 104
    },
    {
      "midi": 40,
      "hit": false,
      "t": 92696.97937500016,
      "d": 95.72062500000175,
      "v": 68
    },
    {
      "midi": 47,
      "hit": false,
      "t": 92696.97937500016,
      "d": 106.98187499999767,
      "v": 80
    },
    {
      "midi": 45,
      "hit": false,
      "t": 92967.24937500014,
      "d": 61.93687499999942,
      "v": 59
    },
    {
      "midi": 38,
      "hit": false,
      "t": 92967.24937500014,
      "d": 78.82875000000058,
      "v": 73
    },
    {
      "midi": 57,
      "hit": false,
      "t": 92967.24937500014,
      "d": 501.12562500001513,
      "v": 65
    },
    {
      "midi": 62,
      "hit": false,
      "t": 92967.24937500014,
      "d": 867.116250000021,
      "v": 80
    },
    {
      "midi": 45,
      "hit": false,
      "t": 93237.51937500015,
      "d": 112.61250000000291,
      "v": 97
    },
    {
      "midi": 38,
      "hit": false,
      "t": 93237.51937500015,
      "d": 129.50437500000407,
      "v": 104
    },
    {
      "midi": 57,
      "hit": false,
      "t": 93783.69000000016,
      "d": 771.3956249999901,
      "v": 73
    },
    {
      "midi": 45,
      "hit": false,
      "t": 94048.32937500016,
      "d": 101.35125000000698,
      "v": 68
    },
    {
      "midi": 38,
      "hit": false,
      "t": 94048.32937500016,
      "d": 112.61250000000291,
      "v": 76
    },
    {
      "midi": 62,
      "hit": false,
      "t": 94048.32937500016,
      "d": 230.8556249999965,
      "v": 70
    },
    {
      "midi": 45,
      "hit": false,
      "t": 94318.59937500015,
      "d": 118.2431249999936,
      "v": 94
    },
    {
      "midi": 38,
      "hit": false,
      "t": 94318.59937500015,
      "d": 135.13499999999476,
      "v": 106
    },
    {
      "midi": 62,
      "hit": false,
      "t": 94318.59937500015,
      "d": 850.2243750000052,
      "v": 108
    },
    {
      "midi": 57,
      "hit": false,
      "t": 94600.13062500015,
      "d": 405.40499999999884,
      "v": 75
    },
    {
      "midi": 38,
      "hit": false,
      "t": 94859.13937500014,
      "d": 101.35125000000698,
      "v": 68
    },
    {
      "midi": 45,
      "hit": false,
      "t": 94864.77000000015,
      "d": 90.08999999999651,
      "v": 64
    },
    {
      "midi": 64,
      "hit": false,
      "t": 95129.40937500015,
      "d": 230.85562500001106,
      "v": 64
    },
    {
      "midi": 59,
      "hit": false,
      "t": 95129.40937500015,
      "d": 236.4862500000163,
      "v": 70
    },
    {
      "midi": 47,
      "hit": false,
      "t": 95135.04000000015,
      "d": 73.19812499999534,
      "v": 73
    },
    {
      "midi": 40,
      "hit": false,
      "t": 95135.04000000015,
      "d": 78.82875000000058,
      "v": 73
    },
    {
      "midi": 47,
      "hit": false,
      "t": 95399.67937500017,
      "d": 135.13499999999476,
      "v": 104
    },
    {
      "midi": 40,
      "hit": false,
      "t": 95399.67937500017,
      "d": 174.54937499998778,
      "v": 110
    },
    {
      "midi": 59,
      "hit": false,
      "t": 95399.67937500017,
      "d": 259.0087499999936,
      "v": 90
    },
    {
      "midi": 64,
      "hit": false,
      "t": 95399.67937500017,
      "d": 664.4137499999924,
      "v": 97
    },
    {
      "midi": 59,
      "hit": false,
      "t": 95799.45375000016,
      "d": 906.5306250000285,
      "v": 58
    },
    {
      "midi": 47,
      "hit": false,
      "t": 96210.48937500016,
      "d": 101.35125000000698,
      "v": 81
    },
    {
      "midi": 40,
      "hit": false,
      "t": 96210.48937500016,
      "d": 135.1350000000093,
      "v": 88
    },
    {
      "midi": 64,
      "hit": false,
      "t": 96210.48937500016,
      "d": 236.4862500000163,
      "v": 73
    },
    {
      "midi": 47,
      "hit": false,
      "t": 96480.75937500018,
      "d": 118.2431249999936,
      "v": 104
    },
    {
      "midi": 40,
      "hit": false,
      "t": 96480.75937500018,
      "d": 140.765625,
      "v": 108
    },
    {
      "midi": 64,
      "hit": false,
      "t": 96480.75937500018,
      "d": 467.34187499999825,
      "v": 76
    },
    {
      "midi": 59,
      "hit": false,
      "t": 96751.02937500019,
      "d": 388.5131249999977,
      "v": 73
    },
    {
      "midi": 47,
      "hit": false,
      "t": 97021.29937500018,
      "d": 95.72062500000175,
      "v": 74
    },
    {
      "midi": 40,
      "hit": false,
      "t": 97021.29937500018,
      "d": 118.24312500000815,
      "v": 78
    },
    {
      "midi": 64,
      "hit": false,
      "t": 97021.29937500018,
      "d": 292.7925000000105,
      "v": 83
    },
    {
      "midi": 57,
      "hit": false,
      "t": 97291.56937500018,
      "d": 439.1887500000157,
      "v": 62
    },
    {
      "midi": 62,
      "hit": false,
      "t": 97297.20000000019,
      "d": 884.0081250000076,
      "v": 70
    },
    {
      "midi": 38,
      "hit": false,
      "t": 97302.83062500019,
      "d": 67.5674999999901,
      "v": 61
    },
    {
      "midi": 45,
      "hit": false,
      "t": 97561.83937500019,
      "d": 146.39625000000524,
      "v": 86
    },
    {
      "midi": 38,
      "hit": false,
      "t": 97561.83937500019,
      "d": 152.02687500001048,
      "v": 94
    },
    {
      "midi": 57,
      "hit": false,
      "t": 98102.3793750002,
      "d": 608.1075000000128,
      "v": 73
    },
    {
      "midi": 45,
      "hit": false,
      "t": 98372.6493750002,
      "d": 84.45937500000582,
      "v": 66
    },
    {
      "midi": 38,
      "hit": false,
      "t": 98372.6493750002,
      "d": 101.35125000000698,
      "v": 73
    },
    {
      "midi": 62,
      "hit": false,
      "t": 98372.6493750002,
      "d": 219.59437500000058,
      "v": 62
    },
    {
      "midi": 45,
      "hit": false,
      "t": 98642.9193750002,
      "d": 123.87374999999884,
      "v": 106
    },
    {
      "midi": 38,
      "hit": false,
      "t": 98642.9193750002,
      "d": 129.50437500000407,
      "v": 106
    },
    {
      "midi": 62,
      "hit": false,
      "t": 98642.9193750002,
      "d": 822.0712499999936,
      "v": 97
    },
    {
      "midi": 38,
      "hit": false,
      "t": 99183.45937500021,
      "d": 73.19812499999534,
      "v": 63
    },
    {
      "midi": 57,
      "hit": false,
      "t": 99183.45937500021,
      "d": 118.2431249999936,
      "v": 66
    },
    {
      "midi": 45,
      "hit": false,
      "t": 99194.7206250002,
      "d": 61.93687499999942,
      "v": 49
    },
    {
      "midi": 59,
      "hit": false,
      "t": 99453.7293750002,
      "d": 563.0624999999854,
      "v": 70
    },
    {
      "midi": 64,
      "hit": false,
      "t": 99453.7293750002,
      "d": 951.5756249999977,
      "v": 64
    },
    {
      "midi": 47,
      "hit": false,
      "t": 99723.99937500019,
      "d": 73.19812499999534,
      "v": 70
    },
    {
      "midi": 40,
      "hit": false,
      "t": 99723.99937500019,
      "d": 78.82875000000058,
      "v": 77
    },
    {
      "midi": 47,
      "hit": false,
      "t": 100264.53937500018,
      "d": 50.67562500000349,
      "v": 70
    },
    {
      "midi": 40,
      "hit": false,
      "t": 100264.53937500018,
      "d": 56.30625000000873,
      "v": 68
    },
    {
      "midi": 59,
      "hit": false,
      "t": 100264.53937500018,
      "d": 152.02687500001048,
      "v": 58
    },
    {
      "midi": 40,
      "hit": false,
      "t": 100534.80937500019,
      "d": 140.76562500001455,
      "v": 91
    },
    {
      "midi": 47,
      "hit": false,
      "t": 100534.80937500019,
      "d": 140.76562500001455,
      "v": 88
    },
    {
      "midi": 64,
      "hit": false,
      "t": 100540.44000000019,
      "d": 208.3331250000192,
      "v": 65
    },
    {
      "midi": 59,
      "hit": false,
      "t": 100546.0706250002,
      "d": 180.18000000000757,
      "v": 51
    },
    {
      "midi": 47,
      "hit": false,
      "t": 100805.0793750002,
      "d": 106.98187499999767,
      "v": 79
    },
    {
      "midi": 40,
      "hit": false,
      "t": 100805.0793750002,
      "d": 118.2431249999936,
      "v": 84
    },
    {
      "midi": 64,
      "hit": false,
      "t": 100805.0793750002,
      "d": 163.2881250000064,
      "v": 64
    },
    {
      "midi": 59,
      "hit": false,
      "t": 100816.3406250002,
      "d": 129.50437500000407,
      "v": 50
    },
    {
      "midi": 64,
      "hit": false,
      "t": 101075.34937500021,
      "d": 264.63937499999884,
      "v": 90
    },
    {
      "midi": 59,
      "hit": false,
      "t": 101075.34937500021,
      "d": 270.2700000000041,
      "v": 80
    },
    {
      "midi": 40,
      "hit": false,
      "t": 101086.6106250002,
      "d": 253.3781250000029,
      "v": 114
    },
    {
      "midi": 47,
      "hit": false,
      "t": 101086.6106250002,
      "d": 253.3781250000029,
      "v": 112
    },
    {
      "midi": 40,
      "hit": false,
      "t": 101345.61937500021,
      "d": 259.00875000000815,
      "v": 108
    },
    {
      "midi": 47,
      "hit": false,
      "t": 101345.61937500021,
      "d": 259.00875000000815,
      "v": 112
    },
    {
      "midi": 64,
      "hit": false,
      "t": 101345.61937500021,
      "d": 259.00875000000815,
      "v": 91
    },
    {
      "midi": 59,
      "hit": false,
      "t": 101351.25000000022,
      "d": 253.3781250000029,
      "v": 84
    },
    {
      "midi": 61,
      "hit": false,
      "t": 101615.88937500022,
      "d": 805.179375000007,
      "v": 104
    },
    {
      "midi": 64,
      "hit": false,
      "t": 101615.88937500022,
      "d": 805.179375000007,
      "v": 94
    },
    {
      "midi": 69,
      "hit": false,
      "t": 101615.88937500022,
      "d": 805.179375000007,
      "v": 95
    },
    {
      "midi": 45,
      "hit": false,
      "t": 101615.88937500022,
      "d": 2150.8987500000076,
      "v": 127
    },
    {
      "midi": 61,
      "hit": false,
      "t": 102426.69937500023,
      "d": 805.1793749999924,
      "v": 97
    },
    {
      "midi": 64,
      "hit": false,
      "t": 102426.69937500023,
      "d": 805.1793749999924,
      "v": 102
    },
    {
      "midi": 69,
      "hit": false,
      "t": 102426.69937500023,
      "d": 1075.4493749999965,
      "v": 104
    },
    {
      "midi": 57,
      "hit": false,
      "t": 102967.23937500022,
      "d": 534.9093750000029,
      "v": 100
    },
    {
      "midi": 61,
      "hit": false,
      "t": 103237.50937500023,
      "d": 529.2787499999977,
      "v": 107
    },
    {
      "midi": 64,
      "hit": false,
      "t": 103237.50937500023,
      "d": 529.2787499999977,
      "v": 106
    },
    {
      "midi": 57,
      "hit": false,
      "t": 103507.77937500023,
      "d": 259.0087499999936,
      "v": 110
    },
    {
      "midi": 69,
      "hit": false,
      "t": 103507.77937500023,
      "d": 259.0087499999936,
      "v": 108
    },
    {
      "midi": 50,
      "hit": false,
      "t": 103778.04937500022,
      "d": 805.179375000007,
      "v": 125
    },
    {
      "midi": 62,
      "hit": false,
      "t": 103778.04937500022,
      "d": 805.179375000007,
      "v": 114
    },
    {
      "midi": 66,
      "hit": false,
      "t": 103778.04937500022,
      "d": 805.179375000007,
      "v": 104
    },
    {
      "midi": 69,
      "hit": false,
      "t": 103778.04937500022,
      "d": 805.179375000007,
      "v": 110
    },
    {
      "midi": 50,
      "hit": false,
      "t": 104588.85937500023,
      "d": 534.9093750000029,
      "v": 106
    },
    {
      "midi": 62,
      "hit": false,
      "t": 104588.85937500023,
      "d": 805.179375000007,
      "v": 110
    },
    {
      "midi": 66,
      "hit": false,
      "t": 104588.85937500023,
      "d": 805.179375000007,
      "v": 95
    },
    {
      "midi": 69,
      "hit": false,
      "t": 104588.85937500023,
      "d": 805.179375000007,
      "v": 102
    },
    {
      "midi": 50,
      "hit": false,
      "t": 105129.39937500024,
      "d": 534.9093750000029,
      "v": 112
    },
    {
      "midi": 62,
      "hit": false,
      "t": 105399.66937500025,
      "d": 523.648125000007,
      "v": 122
    },
    {
      "midi": 66,
      "hit": false,
      "t": 105399.66937500025,
      "d": 523.648125000007,
      "v": 113
    },
    {
      "midi": 69,
      "hit": false,
      "t": 105399.66937500025,
      "d": 523.648125000007,
      "v": 102
    },
    {
      "midi": 50,
      "hit": false,
      "t": 105669.93937500025,
      "d": 253.3781250000029,
      "v": 73
    },
    {
      "midi": 52,
      "hit": false,
      "t": 105940.20937500025,
      "d": 805.179375000007,
      "v": 94
    },
    {
      "midi": 45,
      "hit": false,
      "t": 105940.20937500025,
      "d": 1036.035000000018,
      "v": 92
    },
    {
      "midi": 61,
      "hit": false,
      "t": 105940.20937500025,
      "d": 1036.035000000018,
      "v": 93
    },
    {
      "midi": 69,
      "hit": false,
      "t": 105940.20937500025,
      "d": 1036.035000000018,
      "v": 97
    },
    {
      "midi": 52,
      "hit": false,
      "t": 106751.01937500027,
      "d": 225.22500000000582,
      "v": 57
    },
    {
      "midi": 45,
      "hit": false,
      "t": 107021.28937500027,
      "d": 805.179375000007,
      "v": 95
    },
    {
      "midi": 52,
      "hit": false,
      "t": 107021.28937500027,
      "d": 805.179375000007,
      "v": 92
    },
    {
      "midi": 76,
      "hit": false,
      "t": 107021.28937500027,
      "d": 810.8100000000122,
      "v": 98
    },
    {
      "midi": 57,
      "hit": false,
      "t": 107291.55937500027,
      "d": 540.5400000000081,
      "v": 87
    },
    {
      "midi": 66,
      "hit": false,
      "t": 107291.55937500027,
      "d": 540.5400000000081,
      "v": 99
    },
    {
      "midi": 78,
      "hit": false,
      "t": 107291.55937500027,
      "d": 540.5400000000081,
      "v": 99
    },
    {
      "midi": 71,
      "hit": false,
      "t": 107561.82937500028,
      "d": 270.2700000000041,
      "v": 100
    },
    {
      "midi": 83,
      "hit": false,
      "t": 107561.82937500028,
      "d": 270.2700000000041,
      "v": 117
    },
    {
      "midi": 45,
      "hit": false,
      "t": 107832.09937500028,
      "d": 1075.4493749999965,
      "v": 77
    },
    {
      "midi": 69,
      "hit": false,
      "t": 107832.09937500028,
      "d": 1075.4493749999965,
      "v": 110
    },
    {
      "midi": 81,
      "hit": false,
      "t": 107832.09937500028,
      "d": 1210.5843750000058,
      "v": 114
    },
    {
      "midi": 57,
      "hit": false,
      "t": 108372.63937500028,
      "d": 670.0443750000122,
      "v": 83
    },
    {
      "midi": 76,
      "hit": false,
      "t": 108913.17937500028,
      "d": 298.42312500000116,
      "v": 122
    },
    {
      "midi": 69,
      "hit": false,
      "t": 108913.17937500028,
      "d": 805.179375000007,
      "v": 122
    },
    {
      "midi": 45,
      "hit": false,
      "t": 108913.17937500028,
      "d": 1278.1518750000105,
      "v": 102
    },
    {
      "midi": 52,
      "hit": false,
      "t": 108913.17937500028,
      "d": 1278.1518750000105,
      "v": 106
    },
    {
      "midi": 73,
      "hit": false,
      "t": 109183.44937500029,
      "d": 534.9093750000029,
      "v": 82
    },
    {
      "midi": 57,
      "hit": false,
      "t": 109453.71937500029,
      "d": 805.179375000007,
      "v": 88
    },
    {
      "midi": 64,
      "hit": false,
      "t": 109723.9893750003,
      "d": 534.9093750000029,
      "v": 106
    },
    {
      "midi": 73,
      "hit": false,
      "t": 109723.9893750003,
      "d": 534.9093750000029,
      "v": 104
    },
    {
      "midi": 45,
      "hit": false,
      "t": 110264.5293750003,
      "d": 1097.9718750000175,
      "v": 122
    },
    {
      "midi": 81,
      "hit": false,
      "t": 110534.79937500031,
      "d": 67.56750000000466,
      "v": 87
    },
    {
      "midi": 57,
      "hit": false,
      "t": 110534.79937500031,
      "d": 827.7018750000134,
      "v": 106
    },
    {
      "midi": 73,
      "hit": false,
      "t": 110546.0606250003,
      "d": 33.78375000000233,
      "v": 54
    },
    {
      "midi": 76,
      "hit": false,
      "t": 110546.0606250003,
      "d": 39.41437500000757,
      "v": 74
    },
    {
      "midi": 69,
      "hit": false,
      "t": 110546.0606250003,
      "d": 50.67562500000349,
      "v": 66
    },
    {
      "midi": 76,
      "hit": false,
      "t": 110805.06937500031,
      "d": 534.9093750000029,
      "v": 110
    },
    {
      "midi": 69,
      "hit": false,
      "t": 110805.06937500031,
      "d": 557.4318750000093,
      "v": 110
    },
    {
      "midi": 73,
      "hit": false,
      "t": 110805.06937500031,
      "d": 557.4318750000093,
      "v": 104
    },
    {
      "midi": 81,
      "hit": false,
      "t": 110805.06937500031,
      "d": 557.4318750000093,
      "v": 117
    },
    {
      "midi": 52,
      "hit": false,
      "t": 111075.33937500032,
      "d": 287.16187500000524,
      "v": 71
    },
    {
      "midi": 71,
      "hit": false,
      "t": 111345.60937500032,
      "d": 534.9093750000029,
      "v": 102
    },
    {
      "midi": 76,
      "hit": false,
      "t": 111345.60937500032,
      "d": 534.9093750000029,
      "v": 91
    },
    {
      "midi": 56,
      "hit": false,
      "t": 111345.60937500032,
      "d": 805.179375000007,
      "v": 116
    },
    {
      "midi": 44,
      "hit": false,
      "t": 111345.60937500032,
      "d": 1075.449375000011,
      "v": 99
    },
    {
      "midi": 80,
      "hit": false,
      "t": 111345.60937500032,
      "d": 1075.449375000011,
      "v": 107
    },
    {
      "midi": 71,
      "hit": false,
      "t": 111886.14937500033,
      "d": 534.9093750000029,
      "v": 88
    },
    {
      "midi": 76,
      "hit": false,
      "t": 111886.14937500033,
      "d": 534.9093750000029,
      "v": 102
    },
    {
      "midi": 56,
      "hit": false,
      "t": 112156.41937500033,
      "d": 264.63937499999884,
      "v": 101
    },
    {
      "midi": 42,
      "hit": false,
      "t": 112426.68937500034,
      "d": 1345.7193750000006,
      "v": 99
    },
    {
      "midi": 54,
      "hit": false,
      "t": 112426.68937500034,
      "d": 1345.7193750000006,
      "v": 116
    },
    {
      "midi": 69,
      "hit": false,
      "t": 112426.68937500034,
      "d": 1345.7193750000006,
      "v": 98
    },
    {
      "midi": 73,
      "hit": false,
      "t": 112426.68937500034,
      "d": 1345.7193750000006,
      "v": 107
    },
    {
      "midi": 66,
      "hit": false,
      "t": 112967.22937500033,
      "d": 805.179375000007,
      "v": 89
    },
    {
      "midi": 42,
      "hit": false,
      "t": 113778.03937500034,
      "d": 771.3956250000047,
      "v": 97
    },
    {
      "midi": 66,
      "hit": false,
      "t": 113778.03937500034,
      "d": 771.3956250000047,
      "v": 93
    },
    {
      "midi": 54,
      "hit": false,
      "t": 114048.30937500035,
      "d": 501.1256250000006,
      "v": 107
    },
    {
      "midi": 61,
      "hit": false,
      "t": 114048.30937500035,
      "d": 501.1256250000006,
      "v": 101
    },
    {
      "midi": 69,
      "hit": false,
      "t": 114318.57937500035,
      "d": 1075.449374999982,
      "v": 104
    },
    {
      "midi": 50,
      "hit": false,
      "t": 114588.84937500034,
      "d": 805.1793749999924,
      "v": 110
    },
    {
      "midi": 62,
      "hit": false,
      "t": 114588.84937500034,
      "d": 805.1793749999924,
      "v": 100
    },
    {
      "midi": 57,
      "hit": false,
      "t": 115129.38937500033,
      "d": 264.63937499999884,
      "v": 97
    },
    {
      "midi": 50,
      "hit": false,
      "t": 115399.65937500034,
      "d": 534.9093750000029,
      "v": 120
    },
    {
      "midi": 57,
      "hit": false,
      "t": 115399.65937500034,
      "d": 805.179375000007,
      "v": 108
    },
    {
      "midi": 62,
      "hit": false,
      "t": 115399.65937500034,
      "d": 805.179375000007,
      "v": 120
    },
    {
      "midi": 66,
      "hit": false,
      "t": 115399.65937500034,
      "d": 805.179375000007,
      "v": 113
    },
    {
      "midi": 50,
      "hit": false,
      "t": 115940.19937500035,
      "d": 264.63937499999884,
      "v": 97
    },
    {
      "midi": 50,
      "hit": false,
      "t": 116210.46937500035,
      "d": 529.2787499999977,
      "v": 120
    },
    {
      "midi": 57,
      "hit": false,
      "t": 116210.46937500035,
      "d": 529.2787499999977,
      "v": 114
    },
    {
      "midi": 62,
      "hit": false,
      "t": 116210.46937500035,
      "d": 529.2787499999977,
      "v": 127
    },
    {
      "midi": 66,
      "hit": false,
      "t": 116210.46937500035,
      "d": 529.2787499999977,
      "v": 116
    },
    {
      "midi": 59,
      "hit": false,
      "t": 116751.00937500034,
      "d": 1081.0800000000017,
      "v": 91
    },
    {
      "midi": 64,
      "hit": false,
      "t": 116751.00937500034,
      "d": 1081.0800000000017,
      "v": 97
    },
    {
      "midi": 52,
      "hit": false,
      "t": 116751.00937500034,
      "d": 1627.2506250000151,
      "v": 112
    },
    {
      "midi": 68,
      "hit": false,
      "t": 116751.00937500034,
      "d": 1897.5206250000192,
      "v": 110
    },
    {
      "midi": 71,
      "hit": false,
      "t": 117837.72000000035,
      "d": 259.0087499999936,
      "v": 114
    },
    {
      "midi": 59,
      "hit": false,
      "t": 117837.72000000035,
      "d": 264.63937499999884,
      "v": 122
    },
    {
      "midi": 64,
      "hit": false,
      "t": 117837.72000000035,
      "d": 264.63937499999884,
      "v": 114
    },
    {
      "midi": 71,
      "hit": false,
      "t": 118102.35937500035,
      "d": 275.9006250000093,
      "v": 112
    },
    {
      "midi": 59,
      "hit": false,
      "t": 118107.99000000035,
      "d": 270.2700000000041,
      "v": 110
    },
    {
      "midi": 64,
      "hit": false,
      "t": 118107.99000000035,
      "d": 270.2700000000041,
      "v": 110
    },
    {
      "midi": 64,
      "hit": false,
      "t": 118383.89062500036,
      "d": 259.0087499999936,
      "v": 108
    },
    {
      "midi": 52,
      "hit": false,
      "t": 118383.89062500036,
      "d": 518.0175000000017,
      "v": 127
    },
    {
      "midi": 59,
      "hit": false,
      "t": 118383.89062500036,
      "d": 518.0175000000017,
      "v": 108
    },
    {
      "midi": 71,
      "hit": false,
      "t": 118383.89062500036,
      "d": 518.0175000000017,
      "v": 104
    },
    {
      "midi": 64,
      "hit": false,
      "t": 118648.53000000036,
      "d": 253.3781250000029,
      "v": 64
    },
    {
      "midi": 68,
      "hit": false,
      "t": 118654.16062500037,
      "d": 247.74749999999767,
      "v": 81
    },
    {
      "midi": 57,
      "hit": false,
      "t": 118918.80000000037,
      "d": 799.5487500000017,
      "v": 114
    },
    {
      "midi": 45,
      "hit": false,
      "t": 118918.80000000037,
      "d": 1069.8187500000058,
      "v": 91
    },
    {
      "midi": 61,
      "hit": false,
      "t": 118918.80000000037,
      "d": 1069.8187500000058,
      "v": 113
    },
    {
      "midi": 64,
      "hit": false,
      "t": 118918.80000000037,
      "d": 1069.8187500000058,
      "v": 104
    },
    {
      "midi": 69,
      "hit": false,
      "t": 118918.80000000037,
      "d": 1069.8187500000058,
      "v": 104
    },
    {
      "midi": 57,
      "hit": false,
      "t": 119723.97937500037,
      "d": 264.63937499999884,
      "v": 73
    },
    {
      "midi": 57,
      "hit": false,
      "t": 119994.24937500038,
      "d": 805.179375000007,
      "v": 112
    },
    {
      "midi": 45,
      "hit": false,
      "t": 119994.24937500038,
      "d": 1058.55750000001,
      "v": 117
    },
    {
      "midi": 69,
      "hit": false,
      "t": 119994.24937500038,
      "d": 1058.55750000001,
      "v": 104
    },
    {
      "midi": 76,
      "hit": false,
      "t": 119994.24937500038,
      "d": 1058.55750000001,
      "v": 110
    },
    {
      "midi": 57,
      "hit": false,
      "t": 120805.05937500039,
      "d": 247.74749999999767,
      "v": 104
    },
    {
      "midi": 50,
      "hit": false,
      "t": 121075.3293750004,
      "d": 805.179375000007,
      "v": 125
    },
    {
      "midi": 66,
      "hit": false,
      "t": 121075.3293750004,
      "d": 822.0712500000081,
      "v": 113
    },
    {
      "midi": 74,
      "hit": false,
      "t": 121075.3293750004,
      "d": 822.0712500000081,
      "v": 110
    },
    {
      "midi": 50,
      "hit": false,
      "t": 121886.1393750004,
      "d": 427.9274999999907,
      "v": 127
    },
    {
      "midi": 62,
      "hit": false,
      "t": 121886.1393750004,
      "d": 715.0893749999959,
      "v": 122
    },
    {
      "midi": 69,
      "hit": false,
      "t": 121886.1393750004,
      "d": 748.8731249999983,
      "v": 94
    },
    {
      "midi": 50,
      "hit": false,
      "t": 122437.9406250004,
      "d": 332.20687500001804,
      "v": 114
    },
    {
      "midi": 62,
      "hit": false,
      "t": 122702.58000000041,
      "d": 484.2337499999994,
      "v": 110
    },
    {
      "midi": 66,
      "hit": false,
      "t": 122702.58000000041,
      "d": 484.2337499999994,
      "v": 113
    },
    {
      "midi": 69,
      "hit": false,
      "t": 122702.58000000041,
      "d": 484.2337499999994,
      "v": 112
    },
    {
      "midi": 50,
      "hit": false,
      "t": 122972.85000000041,
      "d": 213.96374999999534,
      "v": 80
    },
    {
      "midi": 61,
      "hit": false,
      "t": 123237.48937500041,
      "d": 793.9181249999965,
      "v": 107
    },
    {
      "midi": 64,
      "hit": false,
      "t": 123237.48937500041,
      "d": 793.9181249999965,
      "v": 104
    },
    {
      "midi": 69,
      "hit": false,
      "t": 123237.48937500041,
      "d": 793.9181249999965,
      "v": 102
    },
    {
      "midi": 45,
      "hit": false,
      "t": 123248.75062500041,
      "d": 1582.2056250000023,
      "v": 117
    },
    {
      "midi": 57,
      "hit": false,
      "t": 123778.0293750004,
      "d": 534.9093750000029,
      "v": 95
    },
    {
      "midi": 61,
      "hit": false,
      "t": 124048.29937500041,
      "d": 782.6568750000006,
      "v": 107
    },
    {
      "midi": 64,
      "hit": false,
      "t": 124048.29937500041,
      "d": 782.6568750000006,
      "v": 112
    },
    {
      "midi": 69,
      "hit": false,
      "t": 124048.29937500041,
      "d": 782.6568750000006,
      "v": 108
    },
    {
      "midi": 57,
      "hit": false,
      "t": 124588.8393750004,
      "d": 242.11687500000698,
      "v": 90
    },
    {
      "midi": 62,
      "hit": false,
      "t": 124864.74000000041,
      "d": 506.7562500000058,
      "v": 120
    },
    {
      "midi": 66,
      "hit": false,
      "t": 124864.74000000041,
      "d": 506.7562500000058,
      "v": 127
    },
    {
      "midi": 69,
      "hit": false,
      "t": 124864.74000000041,
      "d": 506.7562500000058,
      "v": 114
    },
    {
      "midi": 50,
      "hit": false,
      "t": 124870.37062500042,
      "d": 501.1256250000006,
      "v": 125
    },
    {
      "midi": 57,
      "hit": false,
      "t": 125399.64937500042,
      "d": 703.828125,
      "v": 114
    },
    {
      "midi": 64,
      "hit": false,
      "t": 125399.64937500042,
      "d": 731.9812499999971,
      "v": 110
    },
    {
      "midi": 69,
      "hit": false,
      "t": 125399.64937500042,
      "d": 731.9812499999971,
      "v": 108
    },
    {
      "midi": 61,
      "hit": false,
      "t": 125399.64937500042,
      "d": 737.6118750000023,
      "v": 113
    },
    {
      "midi": 45,
      "hit": false,
      "t": 125399.64937500042,
      "d": 1897.5206250000192,
      "v": 100
    },
    {
      "midi": 57,
      "hit": false,
      "t": 126210.45937500041,
      "d": 534.9093750000029,
      "v": 104
    },
    {
      "midi": 69,
      "hit": false,
      "t": 126210.45937500041,
      "d": 1075.449375000011,
      "v": 87
    },
    {
      "midi": 61,
      "hit": false,
      "t": 126210.45937500041,
      "d": 1340.0887500000244,
      "v": 84
    },
    {
      "midi": 64,
      "hit": false,
      "t": 126210.45937500041,
      "d": 1340.0887500000244,
      "v": 97
    },
    {
      "midi": 57,
      "hit": false,
      "t": 126750.99937500042,
      "d": 799.5487500000163,
      "v": 87
    },
    {
      "midi": 69,
      "hit": false,
      "t": 127291.53937500043,
      "d": 259.00875000000815,
      "v": 98
    },
    {
      "midi": 76,
      "hit": false,
      "t": 127291.53937500043,
      "d": 259.00875000000815,
      "v": 102
    },
    {
      "midi": 45,
      "hit": false,
      "t": 127302.80062500044,
      "d": 247.74749999999767,
      "v": 78
    },
    {
      "midi": 64,
      "hit": false,
      "t": 127561.80937500043,
      "d": 456.0806250000023,
      "v": 125
    },
    {
      "midi": 69,
      "hit": false,
      "t": 127561.80937500043,
      "d": 456.0806250000023,
      "v": 114
    },
    {
      "midi": 73,
      "hit": false,
      "t": 127561.80937500043,
      "d": 456.0806250000023,
      "v": 116
    },
    {
      "midi": 76,
      "hit": false,
      "t": 127561.80937500043,
      "d": 456.0806250000023,
      "v": 114
    },
    {
      "midi": 45,
      "hit": false,
      "t": 127561.80937500043,
      "d": 1058.55750000001,
      "v": 120
    },
    {
      "midi": 57,
      "hit": false,
      "t": 127561.80937500043,
      "d": 1058.55750000001,
      "v": 114
    },
    {
      "midi": 69,
      "hit": false,
      "t": 128102.34937500044,
      "d": 518.0175000000017,
      "v": 106
    },
    {
      "midi": 76,
      "hit": false,
      "t": 128102.34937500044,
      "d": 518.0175000000017,
      "v": 114
    },
    {
      "midi": 52,
      "hit": false,
      "t": 128383.88062500044,
      "d": 236.48625000000175,
      "v": 51
    },
    {
      "midi": 71,
      "hit": false,
      "t": 128642.88937500045,
      "d": 534.9093750000029,
      "v": 127
    },
    {
      "midi": 76,
      "hit": false,
      "t": 128642.88937500045,
      "d": 568.6931250000052,
      "v": 117
    },
    {
      "midi": 44,
      "hit": false,
      "t": 128642.88937500045,
      "d": 585.5850000000064,
      "v": 95
    },
    {
      "midi": 56,
      "hit": false,
      "t": 128642.88937500045,
      "d": 591.2156250000116,
      "v": 116
    },
    {
      "midi": 64,
      "hit": false,
      "t": 129183.42937500046,
      "d": 523.648125000007,
      "v": 112
    },
    {
      "midi": 68,
      "hit": false,
      "t": 129183.42937500046,
      "d": 523.648125000007,
      "v": 101
    },
    {
      "midi": 71,
      "hit": false,
      "t": 129183.42937500046,
      "d": 523.648125000007,
      "v": 97
    },
    {
      "midi": 44,
      "hit": false,
      "t": 129453.69937500046,
      "d": 253.3781250000029,
      "v": 71
    },
    {
      "midi": 56,
      "hit": false,
      "t": 129453.69937500046,
      "d": 253.3781250000029,
      "v": 75
    },
    {
      "midi": 66,
      "hit": false,
      "t": 129723.96937500047,
      "d": 534.9093750000029,
      "v": 101
    },
    {
      "midi": 42,
      "hit": false,
      "t": 129723.96937500047,
      "d": 1345.7193750000151,
      "v": 101
    },
    {
      "midi": 54,
      "hit": false,
      "t": 129723.96937500047,
      "d": 1356.980625000011,
      "v": 107
    },
    {
      "midi": 73,
      "hit": false,
      "t": 129723.96937500047,
      "d": 1615.98937499999,
      "v": 89
    },
    {
      "midi": 69,
      "hit": false,
      "t": 129723.96937500047,
      "d": 2094.5924999999843,
      "v": 95
    },
    {
      "midi": 66,
      "hit": false,
      "t": 130264.50937500047,
      "d": 264.63937499999884,
      "v": 79
    },
    {
      "midi": 78,
      "hit": false,
      "t": 130264.50937500047,
      "d": 264.63937499999884,
      "v": 85
    },
    {
      "midi": 66,
      "hit": false,
      "t": 130534.77937500048,
      "d": 805.1793749999779,
      "v": 116
    },
    {
      "midi": 78,
      "hit": false,
      "t": 130534.77937500048,
      "d": 1283.782499999972,
      "v": 113
    },
    {
      "midi": 42,
      "hit": false,
      "t": 131075.3193750005,
      "d": 743.2424999999639,
      "v": 93
    },
    {
      "midi": 54,
      "hit": false,
      "t": 131086.58062500047,
      "d": 523.6481249999779,
      "v": 67
    },
    {
      "midi": 66,
      "hit": false,
      "t": 131345.58937500045,
      "d": 472.9725000000035,
      "v": 89
    },
    {
      "midi": 73,
      "hit": false,
      "t": 131345.58937500045,
      "d": 472.9725000000035,
      "v": 104
    },
    {
      "midi": 54,
      "hit": false,
      "t": 131615.85937500044,
      "d": 202.70250000001397,
      "v": 78
    },
    {
      "midi": 50,
      "hit": false,
      "t": 131886.12937500046,
      "d": 534.9093749999884,
      "v": 100
    },
    {
      "midi": 66,
      "hit": false,
      "t": 131886.12937500046,
      "d": 534.9093749999884,
      "v": 93
    },
    {
      "midi": 69,
      "hit": false,
      "t": 131886.12937500046,
      "d": 534.9093749999884,
      "v": 88
    },
    {
      "midi": 74,
      "hit": false,
      "t": 131886.12937500046,
      "d": 534.9093749999884,
      "v": 102
    },
    {
      "midi": 50,
      "hit": false,
      "t": 132426.66937500043,
      "d": 546.1706249999988,
      "v": 117
    },
    {
      "midi": 66,
      "hit": false,
      "t": 132426.66937500043,
      "d": 546.1706249999988,
      "v": 110
    },
    {
      "midi": 69,
      "hit": false,
      "t": 132426.66937500043,
      "d": 546.1706249999988,
      "v": 110
    },
    {
      "midi": 74,
      "hit": false,
      "t": 132426.66937500043,
      "d": 546.1706249999988,
      "v": 117
    },
    {
      "midi": 68,
      "hit": false,
      "t": 132972.84000000043,
      "d": 439.18874999997206,
      "v": 73
    },
    {
      "midi": 64,
      "hit": false,
      "t": 132978.47062500042,
      "d": 411.0356249999895,
      "v": 98
    },
    {
      "midi": 71,
      "hit": false,
      "t": 132978.47062500042,
      "d": 450.44999999998254,
      "v": 80
    },
    {
      "midi": 52,
      "hit": false,
      "t": 132978.47062500042,
      "d": 461.711249999993,
      "v": 98
    },
    {
      "midi": 52,
      "hit": false,
      "t": 133507.74937500042,
      "d": 467.3418749999837,
      "v": 83
    },
    {
      "midi": 68,
      "hit": false,
      "t": 133507.74937500042,
      "d": 467.3418749999837,
      "v": 87
    },
    {
      "midi": 64,
      "hit": false,
      "t": 133513.3800000004,
      "d": 461.711249999993,
      "v": 90
    },
    {
      "midi": 71,
      "hit": false,
      "t": 133513.3800000004,
      "d": 461.711249999993,
      "v": 85
    },
    {
      "midi": 69,
      "hit": false,
      "t": 134048.2893750004,
      "d": 185.8106250000128,
      "v": 84
    },
    {
      "midi": 64,
      "hit": false,
      "t": 134048.2893750004,
      "d": 219.59437500001513,
      "v": 70
    },
    {
      "midi": 45,
      "hit": false,
      "t": 134048.2893750004,
      "d": 275.9006250000093,
      "v": 92
    },
    {
      "midi": 73,
      "hit": false,
      "t": 134048.2893750004,
      "d": 275.9006250000093,
      "v": 79
    },
    {
      "midi": 42,
      "hit": false,
      "t": 134318.55937500042,
      "d": 135.1349999999802,
      "v": 113
    },
    {
      "midi": 66,
      "hit": false,
      "t": 134318.55937500042,
      "d": 202.70249999998487,
      "v": 104
    },
    {
      "midi": 74,
      "hit": false,
      "t": 134318.55937500042,
      "d": 213.96374999999534,
      "v": 100
    },
    {
      "midi": 40,
      "hit": false,
      "t": 134588.8293750004,
      "d": 163.28812499999185,
      "v": 106
    },
    {
      "midi": 66,
      "hit": false,
      "t": 134588.8293750004,
      "d": 163.28812499999185,
      "v": 82
    },
    {
      "midi": 74,
      "hit": false,
      "t": 134588.8293750004,
      "d": 168.91874999998254,
      "v": 95
    },
    {
      "midi": 66,
      "hit": false,
      "t": 134859.0993750004,
      "d": 152.02687500001048,
      "v": 101
    },
    {
      "midi": 74,
      "hit": false,
      "t": 134859.0993750004,
      "d": 202.70250000001397,
      "v": 102
    },
    {
      "midi": 38,
      "hit": false,
      "t": 134859.0993750004,
      "d": 230.8556250000256,
      "v": 127
    },
    {
      "midi": 73,
      "hit": false,
      "t": 135135.00000000044,
      "d": 270.2699999999895,
      "v": 95
    },
    {
      "midi": 45,
      "hit": false,
      "t": 135135.00000000044,
      "d": 287.1618749999907,
      "v": 125
    },
    {
      "midi": 69,
      "hit": false,
      "t": 135135.00000000044,
      "d": 287.1618749999907,
      "v": 98
    },
    {
      "midi": 64,
      "hit": false,
      "t": 135135.00000000044,
      "d": 298.42312500000116,
      "v": 85
    },
    {
      "midi": 57,
      "hit": false,
      "t": 135669.90937500042,
      "d": 484.23375000001397,
      "v": 114
    },
    {
      "midi": 37,
      "hit": false,
      "t": 135669.90937500042,
      "d": 489.86437500000466,
      "v": 119
    },
    {
      "midi": 61,
      "hit": false,
      "t": 135669.90937500042,
      "d": 489.86437500000466,
      "v": 113
    },
    {
      "midi": 64,
      "hit": false,
      "t": 135669.90937500042,
      "d": 506.7562500000058,
      "v": 112
    },
    {
      "midi": 69,
      "hit": false,
      "t": 148913.13937500044,
      "d": 1345.719374999986,
      "v": 125
    },
    {
      "midi": 73,
      "hit": false,
      "t": 148913.13937500044,
      "d": 1345.719374999986,
      "v": 119
    },
    {
      "midi": 64,
      "hit": false,
      "t": 148913.13937500044,
      "d": 1615.9893749999756,
      "v": 127
    },
    {
      "midi": 76,
      "hit": false,
      "t": 148913.13937500044,
      "d": 1886.259374999965,
      "v": 120
    },
    {
      "midi": 45,
      "hit": false,
      "t": 148913.13937500044,
      "d": 2409.907499999943,
      "v": 127
    },
    {
      "midi": 57,
      "hit": false,
      "t": 149994.21937500042,
      "d": 534.9093749999884,
      "v": 98
    },
    {
      "midi": 69,
      "hit": false,
      "t": 150264.4893750004,
      "d": 264.63937499999884,
      "v": 53
    },
    {
      "midi": 73,
      "hit": false,
      "t": 150264.4893750004,
      "d": 264.63937499999884,
      "v": 55
    },
    {
      "midi": 64,
      "hit": false,
      "t": 150534.7593750004,
      "d": 264.63937499999884,
      "v": 61
    },
    {
      "midi": 69,
      "hit": false,
      "t": 150534.7593750004,
      "d": 264.63937499999884,
      "v": 74
    },
    {
      "midi": 73,
      "hit": false,
      "t": 150534.7593750004,
      "d": 264.63937499999884,
      "v": 58
    },
    {
      "midi": 57,
      "hit": false,
      "t": 150534.7593750004,
      "d": 534.9093749999884,
      "v": 112
    },
    {
      "midi": 64,
      "hit": false,
      "t": 150805.0293750004,
      "d": 518.0174999999872,
      "v": 120
    },
    {
      "midi": 69,
      "hit": false,
      "t": 150805.0293750004,
      "d": 518.0174999999872,
      "v": 114
    },
    {
      "midi": 73,
      "hit": false,
      "t": 150805.0293750004,
      "d": 518.0174999999872,
      "v": 110
    },
    {
      "midi": 76,
      "hit": false,
      "t": 150805.0293750004,
      "d": 518.0174999999872,
      "v": 120
    },
    {
      "midi": 57,
      "hit": false,
      "t": 151075.29937500038,
      "d": 247.74749999999767,
      "v": 84
    },
    {
      "midi": 66,
      "hit": false,
      "t": 151345.56937500037,
      "d": 805.179375000007,
      "v": 113
    },
    {
      "midi": 69,
      "hit": false,
      "t": 151345.56937500037,
      "d": 805.179375000007,
      "v": 104
    },
    {
      "midi": 74,
      "hit": false,
      "t": 151345.56937500037,
      "d": 805.179375000007,
      "v": 112
    },
    {
      "midi": 50,
      "hit": false,
      "t": 151345.56937500037,
      "d": 1351.3500000000058,
      "v": 125
    },
    {
      "midi": 66,
      "hit": false,
      "t": 152156.37937500037,
      "d": 805.179375000007,
      "v": 113
    },
    {
      "midi": 69,
      "hit": false,
      "t": 152156.37937500037,
      "d": 805.179375000007,
      "v": 120
    },
    {
      "midi": 74,
      "hit": false,
      "t": 152156.37937500037,
      "d": 805.179375000007,
      "v": 122
    },
    {
      "midi": 50,
      "hit": false,
      "t": 152702.55000000037,
      "d": 529.2787499999977,
      "v": 125
    },
    {
      "midi": 66,
      "hit": false,
      "t": 152967.18937500037,
      "d": 472.9725000000035,
      "v": 107
    },
    {
      "midi": 69,
      "hit": false,
      "t": 152967.18937500037,
      "d": 472.9725000000035,
      "v": 112
    },
    {
      "midi": 74,
      "hit": false,
      "t": 152967.18937500037,
      "d": 472.9725000000035,
      "v": 117
    },
    {
      "midi": 50,
      "hit": false,
      "t": 153237.45937500036,
      "d": 202.70250000001397,
      "v": 73
    },
    {
      "midi": 64,
      "hit": false,
      "t": 153507.72937500037,
      "d": 1075.4493749999965,
      "v": 110
    },
    {
      "midi": 76,
      "hit": false,
      "t": 153507.72937500037,
      "d": 1075.4493749999965,
      "v": 100
    },
    {
      "midi": 45,
      "hit": false,
      "t": 153507.72937500037,
      "d": 1345.719374999957,
      "v": 114
    },
    {
      "midi": 73,
      "hit": false,
      "t": 153507.72937500037,
      "d": 1908.7818749999278,
      "v": 87
    },
    {
      "midi": 57,
      "hit": false,
      "t": 154048.26937500038,
      "d": 264.63937499999884,
      "v": 110
    },
    {
      "midi": 57,
      "hit": false,
      "t": 154318.53937500037,
      "d": 275.9006249999802,
      "v": 94
    },
    {
      "midi": 64,
      "hit": false,
      "t": 154588.80937500036,
      "d": 827.7018749999406,
      "v": 73
    },
    {
      "midi": 76,
      "hit": false,
      "t": 154588.80937500036,
      "d": 827.7018749999406,
      "v": 87
    },
    {
      "midi": 57,
      "hit": false,
      "t": 154600.07062500034,
      "d": 253.37812499998836,
      "v": 52
    },
    {
      "midi": 45,
      "hit": false,
      "t": 154859.07937500032,
      "d": 264.63937499999884,
      "v": 85
    },
    {
      "midi": 57,
      "hit": false,
      "t": 154859.07937500032,
      "d": 264.63937499999884,
      "v": 73
    },
    {
      "midi": 78,
      "hit": false,
      "t": 154859.07937500032,
      "d": 557.4318749999802,
      "v": 104
    },
    {
      "midi": 45,
      "hit": false,
      "t": 155129.3493750003,
      "d": 264.63937499999884,
      "v": 106
    },
    {
      "midi": 57,
      "hit": false,
      "t": 155129.3493750003,
      "d": 264.63937499999884,
      "v": 98
    },
    {
      "midi": 71,
      "hit": false,
      "t": 155129.3493750003,
      "d": 264.63937499999884,
      "v": 98
    },
    {
      "midi": 83,
      "hit": false,
      "t": 155129.3493750003,
      "d": 264.63937499999884,
      "v": 114
    },
    {
      "midi": 57,
      "hit": false,
      "t": 155399.6193750003,
      "d": 534.9093749999884,
      "v": 120
    },
    {
      "midi": 45,
      "hit": false,
      "t": 155399.6193750003,
      "d": 1075.4493749999674,
      "v": 108
    },
    {
      "midi": 71,
      "hit": false,
      "t": 155399.6193750003,
      "d": 1097.9718749999593,
      "v": 114
    },
    {
      "midi": 83,
      "hit": false,
      "t": 155399.6193750003,
      "d": 1097.9718749999593,
      "v": 127
    },
    {
      "midi": 73,
      "hit": false,
      "t": 155940.15937500028,
      "d": 534.9093749999884,
      "v": 110
    },
    {
      "midi": 57,
      "hit": false,
      "t": 155940.15937500028,
      "d": 557.4318749999802,
      "v": 117
    },
    {
      "midi": 85,
      "hit": false,
      "t": 155940.15937500028,
      "d": 557.4318749999802,
      "v": 119
    },
    {
      "midi": 69,
      "hit": false,
      "t": 156480.69937500026,
      "d": 805.179375000007,
      "v": 104
    },
    {
      "midi": 73,
      "hit": false,
      "t": 156480.69937500026,
      "d": 805.179375000007,
      "v": 104
    },
    {
      "midi": 45,
      "hit": false,
      "t": 156480.69937500026,
      "d": 1340.0887499999662,
      "v": 120
    },
    {
      "midi": 76,
      "hit": false,
      "t": 156480.69937500026,
      "d": 1340.0887499999662,
      "v": 106
    },
    {
      "midi": 57,
      "hit": false,
      "t": 157021.23937500027,
      "d": 540.539999999979,
      "v": 102
    },
    {
      "midi": 69,
      "hit": false,
      "t": 157291.50937500026,
      "d": 529.2787499999686,
      "v": 88
    },
    {
      "midi": 73,
      "hit": false,
      "t": 157291.50937500026,
      "d": 529.2787499999686,
      "v": 79
    },
    {
      "midi": 57,
      "hit": false,
      "t": 157567.41000000024,
      "d": 253.37812499998836,
      "v": 94
    },
    {
      "midi": 64,
      "hit": false,
      "t": 157567.41000000024,
      "d": 253.37812499998836,
      "v": 91
    },
    {
      "midi": 69,
      "hit": false,
      "t": 157832.04937500024,
      "d": 540.5400000000081,
      "v": 117
    },
    {
      "midi": 73,
      "hit": false,
      "t": 157832.04937500024,
      "d": 540.5400000000081,
      "v": 116
    },
    {
      "midi": 76,
      "hit": false,
      "t": 157832.04937500024,
      "d": 546.1706249999988,
      "v": 120
    },
    {
      "midi": 57,
      "hit": false,
      "t": 157832.04937500024,
      "d": 805.1793749999779,
      "v": 114
    },
    {
      "midi": 45,
      "hit": false,
      "t": 157832.04937500024,
      "d": 1041.665624999965,
      "v": 114
    },
    {
      "midi": 64,
      "hit": false,
      "t": 157832.04937500024,
      "d": 1041.665624999965,
      "v": 114
    },
    {
      "midi": 69,
      "hit": false,
      "t": 158378.22000000023,
      "d": 495.49499999996624,
      "v": 112
    },
    {
      "midi": 73,
      "hit": false,
      "t": 158378.22000000023,
      "d": 495.49499999996624,
      "v": 101
    },
    {
      "midi": 76,
      "hit": false,
      "t": 158383.85062500022,
      "d": 489.86437499997555,
      "v": 104
    },
    {
      "midi": 57,
      "hit": false,
      "t": 158642.8593750002,
      "d": 230.8556249999965,
      "v": 88
    },
    {
      "midi": 76,
      "hit": false,
      "t": 158913.1293750002,
      "d": 534.9093749999884,
      "v": 110
    },
    {
      "midi": 44,
      "hit": false,
      "t": 158913.1293750002,
      "d": 540.539999999979,
      "v": 97
    },
    {
      "midi": 56,
      "hit": false,
      "t": 158913.1293750002,
      "d": 540.539999999979,
      "v": 119
    },
    {
      "midi": 71,
      "hit": false,
      "t": 158913.1293750002,
      "d": 540.539999999979,
      "v": 110
    },
    {
      "midi": 68,
      "hit": false,
      "t": 158913.1293750002,
      "d": 1069.8187499999767,
      "v": 104
    },
    {
      "midi": 76,
      "hit": false,
      "t": 159453.66937500017,
      "d": 529.2787499999977,
      "v": 106
    },
    {
      "midi": 80,
      "hit": false,
      "t": 159453.66937500017,
      "d": 529.2787499999977,
      "v": 95
    },
    {
      "midi": 44,
      "hit": false,
      "t": 159459.30000000016,
      "d": 523.648125000007,
      "v": 101
    },
    {
      "midi": 56,
      "hit": false,
      "t": 159459.30000000016,
      "d": 523.648125000007,
      "v": 116
    },
    {
      "midi": 71,
      "hit": false,
      "t": 159459.30000000016,
      "d": 523.648125000007,
      "v": 112
    },
    {
      "midi": 54,
      "hit": false,
      "t": 159994.20937500018,
      "d": 540.5400000000081,
      "v": 119
    },
    {
      "midi": 42,
      "hit": false,
      "t": 159994.20937500018,
      "d": 771.3956250000047,
      "v": 107
    },
    {
      "midi": 69,
      "hit": false,
      "t": 159994.20937500018,
      "d": 771.3956250000047,
      "v": 112
    },
    {
      "midi": 73,
      "hit": false,
      "t": 159994.20937500018,
      "d": 771.3956250000047,
      "v": 113
    },
    {
      "midi": 78,
      "hit": false,
      "t": 159994.20937500018,
      "d": 771.3956250000047,
      "v": 110
    },
    {
      "midi": 54,
      "hit": false,
      "t": 160540.38000000018,
      "d": 225.22500000000582,
      "v": 107
    },
    {
      "midi": 42,
      "hit": false,
      "t": 160805.01937500018,
      "d": 1334.4581250000047,
      "v": 119
    },
    {
      "midi": 54,
      "hit": false,
      "t": 160805.01937500018,
      "d": 1334.4581250000047,
      "v": 123
    },
    {
      "midi": 69,
      "hit": false,
      "t": 160805.01937500018,
      "d": 1334.4581250000047,
      "v": 106
    },
    {
      "midi": 73,
      "hit": false,
      "t": 160805.01937500018,
      "d": 1334.4581250000047,
      "v": 119
    },
    {
      "midi": 62,
      "hit": false,
      "t": 162156.36937500018,
      "d": 365.9906250000058,
      "v": 114
    },
    {
      "midi": 66,
      "hit": false,
      "t": 162156.36937500018,
      "d": 805.179375000007,
      "v": 110
    },
    {
      "midi": 69,
      "hit": false,
      "t": 162156.36937500018,
      "d": 1345.719374999986,
      "v": 108
    },
    {
      "midi": 50,
      "hit": false,
      "t": 162156.36937500018,
      "d": 1356.9806249999674,
      "v": 114
    },
    {
      "midi": 62,
      "hit": false,
      "t": 162696.9093750002,
      "d": 264.63937499999884,
      "v": 77
    },
    {
      "midi": 62,
      "hit": false,
      "t": 162967.17937500018,
      "d": 275.9006250000093,
      "v": 95
    },
    {
      "midi": 66,
      "hit": false,
      "t": 162967.17937500018,
      "d": 805.1793749999488,
      "v": 104
    },
    {
      "midi": 74,
      "hit": false,
      "t": 162967.17937500018,
      "d": 805.1793749999488,
      "v": 112
    },
    {
      "midi": 62,
      "hit": false,
      "t": 163248.71062500018,
      "d": 523.6481249999488,
      "v": 70
    },
    {
      "midi": 69,
      "hit": false,
      "t": 163507.71937500016,
      "d": 264.63937499996973,
      "v": 52
    },
    {
      "midi": 50,
      "hit": false,
      "t": 163518.98062500014,
      "d": 253.37812499998836,
      "v": 78
    },
    {
      "midi": 50,
      "hit": false,
      "t": 163777.98937500012,
      "d": 157.65750000000116,
      "v": 106
    },
    {
      "midi": 62,
      "hit": false,
      "t": 163777.98937500012,
      "d": 557.4318750000093,
      "v": 127
    },
    {
      "midi": 66,
      "hit": false,
      "t": 163777.98937500012,
      "d": 557.4318750000093,
      "v": 113
    },
    {
      "midi": 69,
      "hit": false,
      "t": 163777.98937500012,
      "d": 557.4318750000093,
      "v": 104
    },
    {
      "midi": 74,
      "hit": false,
      "t": 163777.98937500012,
      "d": 557.4318750000093,
      "v": 110
    },
    {
      "midi": 50,
      "hit": false,
      "t": 164059.52062500012,
      "d": 275.9006250000093,
      "v": 84
    },
    {
      "midi": 52,
      "hit": false,
      "t": 164318.52937500013,
      "d": 84.45937500000582,
      "v": 102
    },
    {
      "midi": 52,
      "hit": false,
      "t": 164588.79937500015,
      "d": 264.63937499999884,
      "v": 102
    },
    {
      "midi": 64,
      "hit": false,
      "t": 164588.79937500015,
      "d": 264.63937499999884,
      "v": 84
    },
    {
      "midi": 71,
      "hit": false,
      "t": 164588.79937500015,
      "d": 264.63937499999884,
      "v": 90
    },
    {
      "midi": 76,
      "hit": false,
      "t": 164588.79937500015,
      "d": 264.63937499999884,
      "v": 88
    },
    {
      "midi": 64,
      "hit": false,
      "t": 164859.06937500014,
      "d": 157.65750000000116,
      "v": 125
    },
    {
      "midi": 52,
      "hit": false,
      "t": 164859.06937500014,
      "d": 534.9093749999884,
      "v": 122
    },
    {
      "midi": 71,
      "hit": false,
      "t": 164859.06937500014,
      "d": 534.9093749999884,
      "v": 114
    },
    {
      "midi": 76,
      "hit": false,
      "t": 164859.06937500014,
      "d": 805.1793749999779,
      "v": 112
    },
    {
      "midi": 64,
      "hit": false,
      "t": 165129.33937500013,
      "d": 534.9093749999884,
      "v": 85
    },
    {
      "midi": 71,
      "hit": false,
      "t": 165399.60937500012,
      "d": 264.63937499999884,
      "v": 62
    },
    {
      "midi": 52,
      "hit": false,
      "t": 165399.60937500012,
      "d": 534.9093749999884,
      "v": 69
    },
    {
      "midi": 64,
      "hit": false,
      "t": 165669.8793750001,
      "d": 264.63937499999884,
      "v": 91
    },
    {
      "midi": 71,
      "hit": false,
      "t": 165669.8793750001,
      "d": 264.63937499999884,
      "v": 88
    },
    {
      "midi": 76,
      "hit": false,
      "t": 165669.8793750001,
      "d": 264.63937499999884,
      "v": 91
    },
    {
      "midi": 52,
      "hit": false,
      "t": 165940.1493750001,
      "d": 191.4412500000035,
      "v": 125
    },
    {
      "midi": 64,
      "hit": false,
      "t": 165940.1493750001,
      "d": 208.33312500000466,
      "v": 127
    },
    {
      "midi": 71,
      "hit": false,
      "t": 165940.1493750001,
      "d": 230.8556249999965,
      "v": 127
    },
    {
      "midi": 76,
      "hit": false,
      "t": 165940.1493750001,
      "d": 236.4862499999872,
      "v": 125
    },
    {
      "midi": 52,
      "hit": false,
      "t": 166221.6806250001,
      "d": 253.37812499998836,
      "v": 87
    },
    {
      "midi": 64,
      "hit": false,
      "t": 166221.6806250001,
      "d": 253.37812499998836,
      "v": 71
    },
    {
      "midi": 71,
      "hit": false,
      "t": 166221.6806250001,
      "d": 253.37812499998836,
      "v": 79
    },
    {
      "midi": 76,
      "hit": false,
      "t": 166221.6806250001,
      "d": 253.37812499998836,
      "v": 69
    },
    {
      "midi": 45,
      "hit": false,
      "t": 166491.95062500008,
      "d": 917.7918749999953,
      "v": 125
    },
    {
      "midi": 57,
      "hit": false,
      "t": 166750.9593750001,
      "d": 534.9093749999884,
      "v": 94
    },
    {
      "midi": 69,
      "hit": false,
      "t": 167021.22937500008,
      "d": 467.3418749999837,
      "v": 117
    },
    {
      "midi": 76,
      "hit": false,
      "t": 167026.86000000007,
      "d": 900.8999999999942,
      "v": 117
    },
    {
      "midi": 64,
      "hit": false,
      "t": 167291.49937500007,
      "d": 208.33312500000466,
      "v": 66
    },
    {
      "midi": 57,
      "hit": false,
      "t": 167291.49937500007,
      "d": 534.9093750000175,
      "v": 56
    },
    {
      "midi": 69,
      "hit": false,
      "t": 167561.7693750001,
      "d": 365.9906249999767,
      "v": 84
    },
    {
      "midi": 73,
      "hit": false,
      "t": 167561.7693750001,
      "d": 399.77437499997905,
      "v": 81
    },
    {
      "midi": 57,
      "hit": false,
      "t": 167832.03937500008,
      "d": 534.9093749999884,
      "v": 112
    },
    {
      "midi": 45,
      "hit": false,
      "t": 167832.03937500008,
      "d": 743.242499999993,
      "v": 106
    },
    {
      "midi": 64,
      "hit": false,
      "t": 168102.30937500007,
      "d": 472.9725000000035,
      "v": 112
    },
    {
      "midi": 69,
      "hit": false,
      "t": 168102.30937500007,
      "d": 472.9725000000035,
      "v": 112
    },
    {
      "midi": 76,
      "hit": false,
      "t": 168102.30937500007,
      "d": 472.9725000000035,
      "v": 114
    },
    {
      "midi": 57,
      "hit": false,
      "t": 168372.57937500006,
      "d": 202.70250000001397,
      "v": 88
    },
    {
      "midi": 50,
      "hit": false,
      "t": 168642.84937500008,
      "d": 805.179375000007,
      "v": 104
    },
    {
      "midi": 69,
      "hit": false,
      "t": 168642.84937500008,
      "d": 805.179375000007,
      "v": 95
    },
    {
      "midi": 74,
      "hit": false,
      "t": 168642.84937500008,
      "d": 805.179375000007,
      "v": 108
    },
    {
      "midi": 66,
      "hit": false,
      "t": 168642.84937500008,
      "d": 1114.8637499999895,
      "v": 104
    },
    {
      "midi": 69,
      "hit": false,
      "t": 169453.65937500008,
      "d": 264.63937499999884,
      "v": 54
    },
    {
      "midi": 74,
      "hit": false,
      "t": 169453.65937500008,
      "d": 264.63937499999884,
      "v": 80
    },
    {
      "midi": 81,
      "hit": false,
      "t": 169453.65937500008,
      "d": 264.63937499999884,
      "v": 84
    },
    {
      "midi": 50,
      "hit": false,
      "t": 169453.65937500008,
      "d": 304.05374999999185,
      "v": 97
    },
    {
      "midi": 69,
      "hit": false,
      "t": 169723.92937500007,
      "d": 534.9093749999884,
      "v": 120
    },
    {
      "midi": 74,
      "hit": false,
      "t": 169723.92937500007,
      "d": 534.9093749999884,
      "v": 125
    },
    {
      "midi": 81,
      "hit": false,
      "t": 169723.92937500007,
      "d": 546.1706249999697,
      "v": 127
    },
    {
      "midi": 50,
      "hit": false,
      "t": 169994.19937500005,
      "d": 534.9093749999884,
      "v": 127
    },
    {
      "midi": 74,
      "hit": false,
      "t": 170264.46937500004,
      "d": 512.3868749999965,
      "v": 102
    },
    {
      "midi": 78,
      "hit": false,
      "t": 170264.46937500004,
      "d": 512.3868749999965,
      "v": 101
    },
    {
      "midi": 69,
      "hit": false,
      "t": 170286.99187500004,
      "d": 512.3868749999965,
      "v": 98
    },
    {
      "midi": 50,
      "hit": false,
      "t": 170534.73937500003,
      "d": 242.11687500000698,
      "v": 79
    },
    {
      "midi": 45,
      "hit": false,
      "t": 170805.00937500002,
      "d": 782.6568750000151,
      "v": 127
    },
    {
      "midi": 69,
      "hit": false,
      "t": 170805.00937500002,
      "d": 782.6568750000151,
      "v": 120
    },
    {
      "midi": 73,
      "hit": false,
      "t": 170805.00937500002,
      "d": 782.6568750000151,
      "v": 116
    },
    {
      "midi": 76,
      "hit": false,
      "t": 170805.00937500002,
      "d": 782.6568750000151,
      "v": 110
    },
    {
      "midi": 57,
      "hit": false,
      "t": 171345.54937500003,
      "d": 242.11687500000698,
      "v": 69
    },
    {
      "midi": 57,
      "hit": false,
      "t": 171615.81937500005,
      "d": 230.8556249999965,
      "v": 112
    },
    {
      "midi": 45,
      "hit": false,
      "t": 171615.81937500005,
      "d": 720.7200000000012,
      "v": 114
    },
    {
      "midi": 69,
      "hit": false,
      "t": 171615.81937500005,
      "d": 720.7200000000012,
      "v": 98
    },
    {
      "midi": 73,
      "hit": false,
      "t": 171615.81937500005,
      "d": 720.7200000000012,
      "v": 113
    },
    {
      "midi": 76,
      "hit": false,
      "t": 171615.81937500005,
      "d": 720.7200000000012,
      "v": 104
    },
    {
      "midi": 57,
      "hit": false,
      "t": 172156.35937500006,
      "d": 180.17999999999302,
      "v": 104
    },
    {
      "midi": 50,
      "hit": false,
      "t": 172426.62937500005,
      "d": 484.23375000001397,
      "v": 120
    },
    {
      "midi": 69,
      "hit": false,
      "t": 172426.62937500005,
      "d": 484.23375000001397,
      "v": 110
    },
    {
      "midi": 74,
      "hit": false,
      "t": 172426.62937500005,
      "d": 484.23375000001397,
      "v": 120
    },
    {
      "midi": 78,
      "hit": false,
      "t": 172426.62937500005,
      "d": 484.23375000001397,
      "v": 113
    },
    {
      "midi": 57,
      "hit": false,
      "t": 172967.16937500006,
      "d": 805.179375000007,
      "v": 114
    },
    {
      "midi": 69,
      "hit": false,
      "t": 172967.16937500006,
      "d": 805.179375000007,
      "v": 114
    },
    {
      "midi": 76,
      "hit": false,
      "t": 172967.16937500006,
      "d": 805.179375000007,
      "v": 112
    },
    {
      "midi": 45,
      "hit": false,
      "t": 172967.16937500006,
      "d": 1345.719374999986,
      "v": 122
    },
    {
      "midi": 73,
      "hit": false,
      "t": 172967.16937500006,
      "d": 2122.7456249999523,
      "v": 113
    },
    {
      "midi": 76,
      "hit": false,
      "t": 173777.97937500005,
      "d": 264.63937499999884,
      "v": 73
    },
    {
      "midi": 69,
      "hit": false,
      "t": 173777.97937500005,
      "d": 534.9093749999884,
      "v": 70
    },
    {
      "midi": 57,
      "hit": false,
      "t": 173777.97937500005,
      "d": 1311.9356249999546,
      "v": 91
    },
    {
      "midi": 76,
      "hit": false,
      "t": 174048.24937500004,
      "d": 1041.665624999965,
      "v": 85
    },
    {
      "midi": 45,
      "hit": false,
      "t": 174318.51937500003,
      "d": 264.63937499999884,
      "v": 100
    },
    {
      "midi": 69,
      "hit": false,
      "t": 174318.51937500003,
      "d": 264.63937499999884,
      "v": 80
    },
    {
      "midi": 81,
      "hit": false,
      "t": 174318.51937500003,
      "d": 264.63937499999884,
      "v": 97
    },
    {
      "midi": 45,
      "hit": false,
      "t": 174588.78937500002,
      "d": 264.63937499999884,
      "v": 112
    },
    {
      "midi": 69,
      "hit": false,
      "t": 174588.78937500002,
      "d": 264.63937499999884,
      "v": 112
    },
    {
      "midi": 81,
      "hit": false,
      "t": 174588.78937500002,
      "d": 264.63937499999884,
      "v": 120
    },
    {
      "midi": 69,
      "hit": false,
      "t": 174859.059375,
      "d": 230.8556249999965,
      "v": 125
    },
    {
      "midi": 81,
      "hit": false,
      "t": 174859.059375,
      "d": 230.8556249999965,
      "v": 127
    },
    {
      "midi": 45,
      "hit": false,
      "t": 174859.059375,
      "d": 1351.3499999999476,
      "v": 122
    },
    {
      "midi": 57,
      "hit": false,
      "t": 175129.329375,
      "d": 157.65750000000116,
      "v": 98
    },
    {
      "midi": 69,
      "hit": false,
      "t": 175129.329375,
      "d": 534.9093749999884,
      "v": 120
    },
    {
      "midi": 76,
      "hit": false,
      "t": 175129.329375,
      "d": 534.9093749999884,
      "v": 114
    },
    {
      "midi": 81,
      "hit": false,
      "t": 175157.4825,
      "d": 484.23374999998487,
      "v": 125
    },
    {
      "midi": 57,
      "hit": false,
      "t": 175405.23,
      "d": 805.1793749999488,
      "v": 110
    },
    {
      "midi": 76,
      "hit": false,
      "t": 175669.86937499998,
      "d": 534.9093749999884,
      "v": 104
    },
    {
      "midi": 69,
      "hit": false,
      "t": 175669.86937499998,
      "d": 540.539999999979,
      "v": 104
    },
    {
      "midi": 73,
      "hit": false,
      "t": 175669.86937499998,
      "d": 540.539999999979,
      "v": 99
    },
    {
      "midi": 81,
      "hit": false,
      "t": 175669.86937499998,
      "d": 540.539999999979,
      "v": 108
    },
    {
      "midi": 68,
      "hit": false,
      "t": 176210.40937499996,
      "d": 534.9093749999884,
      "v": 107
    },
    {
      "midi": 76,
      "hit": false,
      "t": 176210.40937499996,
      "d": 534.9093749999884,
      "v": 91
    },
    {
      "midi": 80,
      "hit": false,
      "t": 176210.40937499996,
      "d": 534.9093749999884,
      "v": 104
    },
    {
      "midi": 56,
      "hit": false,
      "t": 176216.03999999995,
      "d": 213.96374999999534,
      "v": 107
    },
    {
      "midi": 44,
      "hit": false,
      "t": 176216.03999999995,
      "d": 1075.4493749999674,
      "v": 95
    },
    {
      "midi": 56,
      "hit": false,
      "t": 176491.94062499996,
      "d": 523.6481249999779,
      "v": 78
    },
    {
      "midi": 68,
      "hit": false,
      "t": 176750.94937499994,
      "d": 540.539999999979,
      "v": 107
    },
    {
      "midi": 76,
      "hit": false,
      "t": 176750.94937499994,
      "d": 540.539999999979,
      "v": 95
    },
    {
      "midi": 80,
      "hit": false,
      "t": 176750.94937499994,
      "d": 540.539999999979,
      "v": 104
    },
    {
      "midi": 56,
      "hit": false,
      "t": 177021.21937499993,
      "d": 270.2699999999895,
      "v": 104
    },
    {
      "midi": 78,
      "hit": false,
      "t": 177291.48937499992,
      "d": 861.4856249999721,
      "v": 97
    },
    {
      "midi": 66,
      "hit": false,
      "t": 177297.1199999999,
      "d": 805.179375000007,
      "v": 101
    },
    {
      "midi": 73,
      "hit": false,
      "t": 177297.1199999999,
      "d": 805.179375000007,
      "v": 79
    },
    {
      "midi": 42,
      "hit": false,
      "t": 177302.7506249999,
      "d": 67.56750000000466,
      "v": 99
    },
    {
      "midi": 54,
      "hit": false,
      "t": 177302.7506249999,
      "d": 534.9093750000175,
      "v": 104
    },
    {
      "midi": 42,
      "hit": false,
      "t": 177573.02062499992,
      "d": 534.9093749999884,
      "v": 84
    },
    {
      "midi": 54,
      "hit": false,
      "t": 177843.2906249999,
      "d": 309.68437499998254,
      "v": 113
    },
    {
      "midi": 66,
      "hit": false,
      "t": 178107.9299999999,
      "d": 529.2787499999977,
      "v": 107
    },
    {
      "midi": 73,
      "hit": false,
      "t": 178107.9299999999,
      "d": 1300.6743749999732,
      "v": 113
    },
    {
      "midi": 42,
      "hit": false,
      "t": 178113.5606249999,
      "d": 1295.0437499999825,
      "v": 107
    },
    {
      "midi": 66,
      "hit": false,
      "t": 178642.8393749999,
      "d": 264.63937499999884,
      "v": 77
    },
    {
      "midi": 69,
      "hit": false,
      "t": 178642.8393749999,
      "d": 264.63937499999884,
      "v": 86
    },
    {
      "midi": 54,
      "hit": false,
      "t": 178642.8393749999,
      "d": 765.7649999999849,
      "v": 127
    },
    {
      "midi": 66,
      "hit": false,
      "t": 178913.10937499988,
      "d": 495.49499999999534,
      "v": 95
    },
    {
      "midi": 69,
      "hit": false,
      "t": 178913.10937499988,
      "d": 495.49499999999534,
      "v": 102
    },
    {
      "midi": 66,
      "hit": false,
      "t": 179453.6493749999,
      "d": 456.0806250000023,
      "v": 113
    },
    {
      "midi": 62,
      "hit": false,
      "t": 179453.6493749999,
      "d": 467.3418750000128,
      "v": 117
    },
    {
      "midi": 69,
      "hit": false,
      "t": 179453.6493749999,
      "d": 472.9725000000035,
      "v": 110
    },
    {
      "midi": 50,
      "hit": false,
      "t": 179453.6493749999,
      "d": 805.179375000007,
      "v": 127
    },
    {
      "midi": 62,
      "hit": false,
      "t": 179994.1893749999,
      "d": 534.9093749999884,
      "v": 73
    },
    {
      "midi": 66,
      "hit": false,
      "t": 179994.1893749999,
      "d": 534.9093749999884,
      "v": 91
    },
    {
      "midi": 69,
      "hit": false,
      "t": 179994.1893749999,
      "d": 534.9093749999884,
      "v": 80
    },
    {
      "midi": 50,
      "hit": false,
      "t": 180264.4593749999,
      "d": 264.63937499999884,
      "v": 80
    },
    {
      "midi": 71,
      "hit": false,
      "t": 180534.72937499988,
      "d": 467.3418750000128,
      "v": 120
    },
    {
      "midi": 64,
      "hit": false,
      "t": 180534.72937499988,
      "d": 478.6031250000233,
      "v": 108
    },
    {
      "midi": 68,
      "hit": false,
      "t": 180534.72937499988,
      "d": 478.6031250000233,
      "v": 119
    },
    {
      "midi": 52,
      "hit": false,
      "t": 180534.72937499988,
      "d": 805.1793750000361,
      "v": 112
    },
    {
      "midi": 64,
      "hit": false,
      "t": 181075.26937499992,
      "d": 518.0174999999872,
      "v": 95
    },
    {
      "midi": 68,
      "hit": false,
      "t": 181075.26937499992,
      "d": 518.0174999999872,
      "v": 97
    },
    {
      "midi": 71,
      "hit": false,
      "t": 181075.26937499992,
      "d": 518.0174999999872,
      "v": 90
    },
    {
      "midi": 52,
      "hit": false,
      "t": 181345.5393749999,
      "d": 247.74749999999767,
      "v": 83
    },
    {
      "midi": 69,
      "hit": false,
      "t": 181621.43999999992,
      "d": 692.5668749999895,
      "v": 108
    },
    {
      "midi": 61,
      "hit": false,
      "t": 181621.43999999992,
      "d": 698.1974999999802,
      "v": 113
    },
    {
      "midi": 64,
      "hit": false,
      "t": 181621.43999999992,
      "d": 703.8281249999709,
      "v": 104
    },
    {
      "midi": 45,
      "hit": false,
      "t": 181627.0706249999,
      "d": 664.413750000007,
      "v": 108
    },
    {
      "midi": 57,
      "hit": false,
      "t": 182167.6106249999,
      "d": 95.7206249999872,
      "v": 94
    },
    {
      "midi": 57,
      "hit": false,
      "t": 182426.6193749999,
      "d": 146.3962499999907,
      "v": 92
    },
    {
      "midi": 45,
      "hit": false,
      "t": 182426.6193749999,
      "d": 168.91874999998254,
      "v": 74
    },
    {
      "midi": 64,
      "hit": false,
      "t": 182426.6193749999,
      "d": 191.4412499999744,
      "v": 88
    },
    {
      "midi": 61,
      "hit": false,
      "t": 182426.6193749999,
      "d": 197.07187499996508,
      "v": 74
    },
    {
      "midi": 69,
      "hit": false,
      "t": 182426.6193749999,
      "d": 202.70249999995576,
      "v": 73
    },
    {
      "midi": 45,
      "hit": false,
      "t": 182696.88937499985,
      "d": 140.765625,
      "v": 68
    },
    {
      "midi": 61,
      "hit": false,
      "t": 182696.88937499985,
      "d": 168.91875000001164,
      "v": 58
    },
    {
      "midi": 64,
      "hit": false,
      "t": 182696.88937499985,
      "d": 180.18000000002212,
      "v": 77
    },
    {
      "midi": 69,
      "hit": false,
      "t": 182696.88937499985,
      "d": 208.33312500003376,
      "v": 58
    },
    {
      "midi": 57,
      "hit": false,
      "t": 182708.15062499986,
      "d": 33.78375000000233,
      "v": 29
    },
    {
      "midi": 57,
      "hit": false,
      "t": 182978.42062499988,
      "d": 152.02687500001048,
      "v": 80
    },
    {
      "midi": 61,
      "hit": false,
      "t": 182978.42062499988,
      "d": 157.65750000000116,
      "v": 57
    },
    {
      "midi": 69,
      "hit": false,
      "t": 182978.42062499988,
      "d": 157.65750000000116,
      "v": 60
    },
    {
      "midi": 64,
      "hit": false,
      "t": 182978.42062499988,
      "d": 163.28812499999185,
      "v": 80
    },
    {
      "midi": 45,
      "hit": false,
      "t": 182978.42062499988,
      "d": 168.91874999998254,
      "v": 88
    },
    {
      "midi": 57,
      "hit": false,
      "t": 183248.69062499987,
      "d": 163.28812499999185,
      "v": 87
    },
    {
      "midi": 45,
      "hit": false,
      "t": 183248.69062499987,
      "d": 168.91874999998254,
      "v": 97
    },
    {
      "midi": 61,
      "hit": false,
      "t": 183248.69062499987,
      "d": 174.54937499997322,
      "v": 91
    },
    {
      "midi": 64,
      "hit": false,
      "t": 183248.69062499987,
      "d": 180.1799999999639,
      "v": 92
    },
    {
      "midi": 69,
      "hit": false,
      "t": 183248.69062499987,
      "d": 180.1799999999639,
      "v": 83
    },
    {
      "midi": 57,
      "hit": false,
      "t": 183507.69937499982,
      "d": 197.07187499999418,
      "v": 100
    },
    {
      "midi": 61,
      "hit": false,
      "t": 183507.69937499982,
      "d": 213.96374999999534,
      "v": 89
    },
    {
      "midi": 45,
      "hit": false,
      "t": 183507.69937499982,
      "d": 225.22500000000582,
      "v": 108
    },
    {
      "midi": 64,
      "hit": false,
      "t": 183507.69937499982,
      "d": 225.22500000000582,
      "v": 92
    },
    {
      "midi": 69,
      "hit": false,
      "t": 183507.69937499982,
      "d": 236.4862500000163,
      "v": 87
    },
    {
      "midi": 64,
      "hit": false,
      "t": 183789.23062499985,
      "d": 793.9181249999965,
      "v": 117
    },
    {
      "midi": 76,
      "hit": false,
      "t": 183789.23062499985,
      "d": 793.9181249999965,
      "v": 106
    },
    {
      "midi": 73,
      "hit": false,
      "t": 183789.23062499985,
      "d": 1874.9981249999546,
      "v": 107
    },
    {
      "midi": 45,
      "hit": false,
      "t": 183789.23062499985,
      "d": 2173.4212499999558,
      "v": 100
    },
    {
      "midi": 57,
      "hit": false,
      "t": 184329.77062499986,
      "d": 793.9181249999674,
      "v": 73
    },
    {
      "midi": 64,
      "hit": false,
      "t": 184588.77937499984,
      "d": 1075.4493749999674,
      "v": 91
    },
    {
      "midi": 76,
      "hit": false,
      "t": 184588.77937499984,
      "d": 1373.8724999999686,
      "v": 112
    },
    {
      "midi": 57,
      "hit": false,
      "t": 185129.31937499982,
      "d": 534.9093749999884,
      "v": 120
    },
    {
      "midi": 57,
      "hit": false,
      "t": 185669.8593749998,
      "d": 292.7925000000105,
      "v": 106
    },
    {
      "midi": 64,
      "hit": false,
      "t": 185669.8593749998,
      "d": 292.7925000000105,
      "v": 79
    },
    {
      "midi": 73,
      "hit": false,
      "t": 185669.8593749998,
      "d": 292.7925000000105,
      "v": 93
    },
    {
      "midi": 74,
      "hit": false,
      "t": 185940.1293749998,
      "d": 816.4406250000175,
      "v": 112
    },
    {
      "midi": 69,
      "hit": false,
      "t": 185940.1293749998,
      "d": 1621.6199999999662,
      "v": 102
    },
    {
      "midi": 50,
      "hit": false,
      "t": 185951.3906249998,
      "d": 2353.601249999949,
      "v": 112
    },
    {
      "midi": 81,
      "hit": false,
      "t": 186756.5699999998,
      "d": 259.00874999997905,
      "v": 86
    },
    {
      "midi": 74,
      "hit": false,
      "t": 186762.2006249998,
      "d": 253.37812499998836,
      "v": 81
    },
    {
      "midi": 62,
      "hit": false,
      "t": 186762.2006249998,
      "d": 523.6481249999779,
      "v": 79
    },
    {
      "midi": 74,
      "hit": false,
      "t": 187021.20937499977,
      "d": 534.9093749999884,
      "v": 122
    },
    {
      "midi": 81,
      "hit": false,
      "t": 187021.20937499977,
      "d": 1283.782499999972,
      "v": 120
    },
    {
      "midi": 62,
      "hit": false,
      "t": 187291.47937499976,
      "d": 534.9093749999884,
      "v": 110
    },
    {
      "midi": 74,
      "hit": false,
      "t": 187561.74937499975,
      "d": 743.242499999993,
      "v": 92
    },
    {
      "midi": 78,
      "hit": false,
      "t": 187561.74937499975,
      "d": 743.242499999993,
      "v": 99
    },
    {
      "midi": 69,
      "hit": false,
      "t": 187567.37999999974,
      "d": 737.6118750000023,
      "v": 87
    },
    {
      "midi": 62,
      "hit": false,
      "t": 187832.01937499974,
      "d": 472.9725000000035,
      "v": 97
    },
    {
      "midi": 57,
      "hit": false,
      "t": 188102.28937499973,
      "d": 805.179375000007,
      "v": 117
    },
    {
      "midi": 64,
      "hit": false,
      "t": 188372.55937499975,
      "d": 534.9093749999884,
      "v": 112
    },
    {
      "midi": 69,
      "hit": false,
      "t": 188372.55937499975,
      "d": 534.9093749999884,
      "v": 106
    },
    {
      "midi": 73,
      "hit": false,
      "t": 188372.55937499975,
      "d": 534.9093749999884,
      "v": 107
    },
    {
      "midi": 76,
      "hit": false,
      "t": 188372.55937499975,
      "d": 534.9093749999884,
      "v": 104
    },
    {
      "midi": 64,
      "hit": false,
      "t": 188913.09937499973,
      "d": 534.9093749999884,
      "v": 127
    },
    {
      "midi": 57,
      "hit": false,
      "t": 188913.09937499973,
      "d": 731.9812499999825,
      "v": 122
    },
    {
      "midi": 69,
      "hit": false,
      "t": 188913.09937499973,
      "d": 731.9812499999825,
      "v": 117
    },
    {
      "midi": 73,
      "hit": false,
      "t": 188913.09937499973,
      "d": 731.9812499999825,
      "v": 123
    },
    {
      "midi": 76,
      "hit": false,
      "t": 188913.09937499973,
      "d": 731.9812499999825,
      "v": 117
    },
    {
      "midi": 64,
      "hit": false,
      "t": 189453.6393749997,
      "d": 191.4412500000035,
      "v": 100
    },
    {
      "midi": 62,
      "hit": false,
      "t": 189723.9093749997,
      "d": 512.3868749999965,
      "v": 127
    },
    {
      "midi": 69,
      "hit": false,
      "t": 189723.9093749997,
      "d": 512.3868749999965,
      "v": 117
    },
    {
      "midi": 74,
      "hit": false,
      "t": 189723.9093749997,
      "d": 512.3868749999965,
      "v": 120
    },
    {
      "midi": 78,
      "hit": false,
      "t": 189723.9093749997,
      "d": 512.3868749999965,
      "v": 113
    },
    {
      "midi": 69,
      "hit": false,
      "t": 190264.4493749997,
      "d": 816.4406249999884,
      "v": 117
    },
    {
      "midi": 76,
      "hit": false,
      "t": 190264.4493749997,
      "d": 816.4406249999884,
      "v": 112
    },
    {
      "midi": 57,
      "hit": false,
      "t": 190264.4493749997,
      "d": 1548.421874999971,
      "v": 120
    },
    {
      "midi": 64,
      "hit": false,
      "t": 190264.4493749997,
      "d": 1548.421874999971,
      "v": 122
    },
    {
      "midi": 73,
      "hit": false,
      "t": 190264.4493749997,
      "d": 1548.421874999971,
      "v": 119
    },
    {
      "midi": 69,
      "hit": false,
      "t": 191086.52062499968,
      "d": 259.00875000000815,
      "v": 73
    },
    {
      "midi": 76,
      "hit": false,
      "t": 191086.52062499968,
      "d": 259.00875000000815,
      "v": 68
    },
    {
      "midi": 69,
      "hit": false,
      "t": 191351.15999999968,
      "d": 461.711249999993,
      "v": 104
    },
    {
      "midi": 76,
      "hit": false,
      "t": 191351.15999999968,
      "d": 461.711249999993,
      "v": 102
    },
    {
      "midi": 45,
      "hit": false,
      "t": 191615.79937499968,
      "d": 1024.773749999964,
      "v": 108
    },
    {
      "midi": 57,
      "hit": false,
      "t": 191886.06937499967,
      "d": 534.9093749999884,
      "v": 104
    },
    {
      "midi": 76,
      "hit": false,
      "t": 191886.06937499967,
      "d": 754.5037499999744,
      "v": 122
    },
    {
      "midi": 81,
      "hit": false,
      "t": 191886.06937499967,
      "d": 754.5037499999744,
      "v": 127
    },
    {
      "midi": 69,
      "hit": false,
      "t": 192156.33937499966,
      "d": 484.23374999998487,
      "v": 95
    },
    {
      "midi": 57,
      "hit": false,
      "t": 192426.60937499965,
      "d": 213.96374999999534,
      "v": 79
    },
    {
      "midi": 45,
      "hit": false,
      "t": 192696.87937499964,
      "d": 771.3956250000047,
      "v": 117
    },
    {
      "midi": 69,
      "hit": false,
      "t": 192696.87937499964,
      "d": 771.3956250000047,
      "v": 122
    },
    {
      "midi": 76,
      "hit": false,
      "t": 192696.87937499964,
      "d": 771.3956250000047,
      "v": 117
    },
    {
      "midi": 81,
      "hit": false,
      "t": 192696.87937499964,
      "d": 771.3956250000047,
      "v": 112
    },
    {
      "midi": 57,
      "hit": false,
      "t": 193237.41937499965,
      "d": 230.8556249999965,
      "v": 98
    },
    {
      "midi": 45,
      "hit": false,
      "t": 193507.68937499964,
      "d": 101.35125000000698,
      "v": 108
    },
    {
      "midi": 71,
      "hit": false,
      "t": 193507.68937499964,
      "d": 534.9093750000175,
      "v": 110
    },
    {
      "midi": 76,
      "hit": false,
      "t": 193507.68937499964,
      "d": 534.9093750000175,
      "v": 104
    },
    {
      "midi": 80,
      "hit": false,
      "t": 193507.68937499964,
      "d": 534.9093750000175,
      "v": 110
    },
    {
      "midi": 56,
      "hit": false,
      "t": 193507.68937499964,
      "d": 805.179375000007,
      "v": 119
    },
    {
      "midi": 44,
      "hit": false,
      "t": 193777.95937499966,
      "d": 546.1706249999697,
      "v": 104
    },
    {
      "midi": 71,
      "hit": false,
      "t": 194048.22937499965,
      "d": 501.1256249999569,
      "v": 110
    },
    {
      "midi": 76,
      "hit": false,
      "t": 194048.22937499965,
      "d": 501.1256249999569,
      "v": 110
    },
    {
      "midi": 80,
      "hit": false,
      "t": 194048.22937499965,
      "d": 501.1256249999569,
      "v": 110
    },
    {
      "midi": 56,
      "hit": false,
      "t": 194318.49937499964,
      "d": 230.8556249999674,
      "v": 113
    },
    {
      "midi": 44,
      "hit": false,
      "t": 194329.76062499962,
      "d": 219.59437499998603,
      "v": 60
    },
    {
      "midi": 69,
      "hit": false,
      "t": 194588.7693749996,
      "d": 777.0262499999662,
      "v": 120
    },
    {
      "midi": 73,
      "hit": false,
      "t": 194588.7693749996,
      "d": 777.0262499999662,
      "v": 116
    },
    {
      "midi": 78,
      "hit": false,
      "t": 194588.7693749996,
      "d": 777.0262499999662,
      "v": 107
    },
    {
      "midi": 42,
      "hit": false,
      "t": 194594.3999999996,
      "d": 529.2787499999977,
      "v": 107
    },
    {
      "midi": 54,
      "hit": false,
      "t": 194594.3999999996,
      "d": 771.3956249999756,
      "v": 127
    },
    {
      "midi": 42,
      "hit": false,
      "t": 195129.30937499958,
      "d": 236.4862499999872,
      "v": 107
    },
    {
      "midi": 54,
      "hit": false,
      "t": 195399.57937499956,
      "d": 478.6031249999942,
      "v": 123
    },
    {
      "midi": 42,
      "hit": false,
      "t": 195399.57937499956,
      "d": 534.9093749999884,
      "v": 110
    },
    {
      "midi": 66,
      "hit": false,
      "t": 195399.57937499956,
      "d": 805.1793749999779,
      "v": 113
    },
    {
      "midi": 73,
      "hit": false,
      "t": 195399.57937499956,
      "d": 805.1793749999779,
      "v": 127
    },
    {
      "midi": 42,
      "hit": false,
      "t": 195940.11937499954,
      "d": 793.9181249999965,
      "v": 116
    },
    {
      "midi": 66,
      "hit": false,
      "t": 196210.38937499953,
      "d": 523.648125000007,
      "v": 119
    },
    {
      "midi": 69,
      "hit": false,
      "t": 196210.38937499953,
      "d": 523.648125000007,
      "v": 125
    },
    {
      "midi": 73,
      "hit": false,
      "t": 196210.38937499953,
      "d": 523.648125000007,
      "v": 127
    },
    {
      "midi": 50,
      "hit": false,
      "t": 196750.92937499954,
      "d": 805.179375000007,
      "v": 127
    },
    {
      "midi": 62,
      "hit": false,
      "t": 196762.19062499955,
      "d": 793.9181249999965,
      "v": 127
    },
    {
      "midi": 66,
      "hit": false,
      "t": 196762.19062499955,
      "d": 793.9181249999965,
      "v": 119
    },
    {
      "midi": 69,
      "hit": false,
      "t": 196762.19062499955,
      "d": 793.9181249999965,
      "v": 120
    },
    {
      "midi": 50,
      "hit": false,
      "t": 197561.73937499954,
      "d": 534.9093749999884,
      "v": 127
    },
    {
      "midi": 62,
      "hit": false,
      "t": 197561.73937499954,
      "d": 805.1793749999779,
      "v": 127
    },
    {
      "midi": 66,
      "hit": false,
      "t": 197561.73937499954,
      "d": 805.1793749999779,
      "v": 127
    },
    {
      "midi": 69,
      "hit": false,
      "t": 197561.73937499954,
      "d": 805.1793749999779,
      "v": 125
    },
    {
      "midi": 50,
      "hit": false,
      "t": 198102.27937499952,
      "d": 534.9093749999884,
      "v": 102
    },
    {
      "midi": 62,
      "hit": false,
      "t": 198372.5493749995,
      "d": 501.12562499998603,
      "v": 120
    },
    {
      "midi": 66,
      "hit": false,
      "t": 198372.5493749995,
      "d": 501.12562499998603,
      "v": 123
    },
    {
      "midi": 69,
      "hit": false,
      "t": 198372.5493749995,
      "d": 563.0625000000291,
      "v": 112
    },
    {
      "midi": 50,
      "hit": false,
      "t": 198642.8193749995,
      "d": 242.11687500000698,
      "v": 85
    },
    {
      "midi": 52,
      "hit": false,
      "t": 198913.08937499952,
      "d": 264.63937499999884,
      "v": 75
    },
    {
      "midi": 68,
      "hit": false,
      "t": 198913.08937499952,
      "d": 270.2699999999895,
      "v": 50
    },
    {
      "midi": 64,
      "hit": false,
      "t": 198924.35062499953,
      "d": 140.765625,
      "v": 42
    },
    {
      "midi": 71,
      "hit": false,
      "t": 198924.35062499953,
      "d": 259.00874999997905,
      "v": 53
    },
    {
      "midi": 52,
      "hit": false,
      "t": 199183.3593749995,
      "d": 270.2699999999895,
      "v": 72
    },
    {
      "midi": 68,
      "hit": false,
      "t": 199188.9899999995,
      "d": 270.2699999999895,
      "v": 58
    },
    {
      "midi": 71,
      "hit": false,
      "t": 199188.9899999995,
      "d": 270.2699999999895,
      "v": 55
    },
    {
      "midi": 64,
      "hit": false,
      "t": 199194.6206249995,
      "d": 264.63937499999884,
      "v": 57
    },
    {
      "midi": 52,
      "hit": false,
      "t": 199459.25999999949,
      "d": 259.00874999997905,
      "v": 81
    },
    {
      "midi": 64,
      "hit": false,
      "t": 199464.89062499948,
      "d": 259.00874999997905,
      "v": 66
    },
    {
      "midi": 68,
      "hit": false,
      "t": 199464.89062499948,
      "d": 259.00874999997905,
      "v": 68
    },
    {
      "midi": 71,
      "hit": false,
      "t": 199464.89062499948,
      "d": 259.00874999997905,
      "v": 74
    },
    {
      "midi": 52,
      "hit": false,
      "t": 199723.89937499946,
      "d": 270.2699999999895,
      "v": 102
    },
    {
      "midi": 64,
      "hit": false,
      "t": 199729.52999999945,
      "d": 264.63937499999884,
      "v": 92
    },
    {
      "midi": 68,
      "hit": false,
      "t": 199729.52999999945,
      "d": 264.63937499999884,
      "v": 97
    },
    {
      "midi": 71,
      "hit": false,
      "t": 199729.52999999945,
      "d": 264.63937499999884,
      "v": 100
    },
    {
      "midi": 52,
      "hit": false,
      "t": 199999.79999999944,
      "d": 264.63937499999884,
      "v": 120
    },
    {
      "midi": 64,
      "hit": false,
      "t": 199999.79999999944,
      "d": 264.63937499999884,
      "v": 110
    },
    {
      "midi": 68,
      "hit": false,
      "t": 199999.79999999944,
      "d": 264.63937499999884,
      "v": 116
    },
    {
      "midi": 71,
      "hit": false,
      "t": 199999.79999999944,
      "d": 264.63937499999884,
      "v": 114
    },
    {
      "midi": 52,
      "hit": false,
      "t": 200270.06999999942,
      "d": 270.2699999999895,
      "v": 112
    },
    {
      "midi": 64,
      "hit": false,
      "t": 200270.06999999942,
      "d": 270.2699999999895,
      "v": 110
    },
    {
      "midi": 68,
      "hit": false,
      "t": 200270.06999999942,
      "d": 270.2699999999895,
      "v": 116
    },
    {
      "midi": 71,
      "hit": false,
      "t": 200270.06999999942,
      "d": 270.2699999999895,
      "v": 112
    },
    {
      "midi": 64,
      "hit": false,
      "t": 200545.9706249994,
      "d": 253.37812499998836,
      "v": 125
    },
    {
      "midi": 68,
      "hit": false,
      "t": 200545.9706249994,
      "d": 253.37812499998836,
      "v": 119
    },
    {
      "midi": 71,
      "hit": false,
      "t": 200545.9706249994,
      "d": 253.37812499998836,
      "v": 120
    },
    {
      "midi": 52,
      "hit": false,
      "t": 200545.9706249994,
      "d": 264.63937499996973,
      "v": 122
    },
    {
      "midi": 64,
      "hit": false,
      "t": 200804.97937499938,
      "d": 264.63937499996973,
      "v": 106
    },
    {
      "midi": 68,
      "hit": false,
      "t": 200804.97937499938,
      "d": 264.63937499996973,
      "v": 113
    },
    {
      "midi": 71,
      "hit": false,
      "t": 200804.97937499938,
      "d": 264.63937499996973,
      "v": 110
    },
    {
      "midi": 52,
      "hit": false,
      "t": 200816.24062499937,
      "d": 253.37812499998836,
      "v": 127
    },
    {
      "midi": 69,
      "hit": false,
      "t": 201080.87999999936,
      "d": 450.45000000001164,
      "v": 114
    },
    {
      "midi": 64,
      "hit": false,
      "t": 201080.87999999936,
      "d": 461.7112500000221,
      "v": 112
    },
    {
      "midi": 76,
      "hit": false,
      "t": 201080.87999999936,
      "d": 799.5487500000163,
      "v": 122
    },
    {
      "midi": 45,
      "hit": false,
      "t": 201080.87999999936,
      "d": 2094.5924999999697,
      "v": 125
    },
    {
      "midi": 57,
      "hit": false,
      "t": 201615.78937499938,
      "d": 805.1793749999779,
      "v": 112
    },
    {
      "midi": 73,
      "hit": false,
      "t": 201886.05937499937,
      "d": 805.1793749999779,
      "v": 107
    },
    {
      "midi": 76,
      "hit": false,
      "t": 201886.05937499937,
      "d": 805.1793749999779,
      "v": 106
    },
    {
      "midi": 57,
      "hit": false,
      "t": 202426.59937499935,
      "d": 534.9093749999884,
      "v": 120
    },
    {
      "midi": 64,
      "hit": false,
      "t": 202696.86937499934,
      "d": 478.6031249999942,
      "v": 120
    },
    {
      "midi": 73,
      "hit": false,
      "t": 202696.86937499934,
      "d": 478.6031249999942,
      "v": 107
    },
    {
      "midi": 76,
      "hit": false,
      "t": 202696.86937499934,
      "d": 478.6031249999942,
      "v": 110
    },
    {
      "midi": 57,
      "hit": false,
      "t": 202967.13937499933,
      "d": 208.33312500000466,
      "v": 97
    },
    {
      "midi": 69,
      "hit": false,
      "t": 203237.40937499935,
      "d": 1345.719374999986,
      "v": 106
    },
    {
      "midi": 74,
      "hit": false,
      "t": 203237.40937499935,
      "d": 1345.719374999986,
      "v": 114
    },
    {
      "midi": 66,
      "hit": false,
      "t": 203237.40937499935,
      "d": 1998.8718749999534,
      "v": 113
    },
    {
      "midi": 50,
      "hit": false,
      "t": 203237.40937499935,
      "d": 2156.5293749999546,
      "v": 125
    },
    {
      "midi": 69,
      "hit": false,
      "t": 204588.75937499932,
      "d": 264.63937499999884,
      "v": 87
    },
    {
      "midi": 74,
      "hit": false,
      "t": 204588.75937499932,
      "d": 264.63937499999884,
      "v": 95
    },
    {
      "midi": 81,
      "hit": false,
      "t": 204588.75937499932,
      "d": 264.63937499999884,
      "v": 100
    },
    {
      "midi": 62,
      "hit": false,
      "t": 204588.75937499932,
      "d": 270.2699999999895,
      "v": 110
    },
    {
      "midi": 74,
      "hit": false,
      "t": 204859.0293749993,
      "d": 534.9093749999884,
      "v": 125
    },
    {
      "midi": 81,
      "hit": false,
      "t": 204859.0293749993,
      "d": 534.9093749999884,
      "v": 122
    },
    {
      "midi": 62,
      "hit": false,
      "t": 204864.6599999993,
      "d": 529.2787499999977,
      "v": 125
    },
    {
      "midi": 57,
      "hit": false,
      "t": 205399.5693749993,
      "d": 805.179375000007,
      "v": 112
    },
    {
      "midi": 69,
      "hit": false,
      "t": 205399.5693749993,
      "d": 805.179375000007,
      "v": 120
    },
    {
      "midi": 76,
      "hit": false,
      "t": 205399.5693749993,
      "d": 805.179375000007,
      "v": 112
    },
    {
      "midi": 81,
      "hit": false,
      "t": 205399.5693749993,
      "d": 805.179375000007,
      "v": 122
    },
    {
      "midi": 45,
      "hit": false,
      "t": 205940.1093749993,
      "d": 264.63937499999884,
      "v": 106
    },
    {
      "midi": 45,
      "hit": false,
      "t": 206210.3793749993,
      "d": 540.5400000000081,
      "v": 94
    },
    {
      "midi": 57,
      "hit": false,
      "t": 206210.3793749993,
      "d": 771.3956250000047,
      "v": 117
    },
    {
      "midi": 69,
      "hit": false,
      "t": 206210.3793749993,
      "d": 771.3956250000047,
      "v": 125
    },
    {
      "midi": 76,
      "hit": false,
      "t": 206210.3793749993,
      "d": 771.3956250000047,
      "v": 125
    },
    {
      "midi": 81,
      "hit": false,
      "t": 206210.3793749993,
      "d": 771.3956250000047,
      "v": 127
    },
    {
      "midi": 45,
      "hit": false,
      "t": 206756.5499999993,
      "d": 225.22500000000582,
      "v": 108
    },
    {
      "midi": 45,
      "hit": false,
      "t": 207021.1893749993,
      "d": 484.23375000001397,
      "v": 120
    },
    {
      "midi": 57,
      "hit": false,
      "t": 207021.1893749993,
      "d": 484.23375000001397,
      "v": 127
    },
    {
      "midi": 69,
      "hit": false,
      "t": 207021.1893749993,
      "d": 484.23375000001397,
      "v": 127
    },
    {
      "midi": 74,
      "hit": false,
      "t": 207021.1893749993,
      "d": 484.23375000001397,
      "v": 127
    },
    {
      "midi": 78,
      "hit": false,
      "t": 207021.1893749993,
      "d": 484.23375000001397,
      "v": 119
    },
    {
      "midi": 57,
      "hit": false,
      "t": 207561.7293749993,
      "d": 793.9181249999965,
      "v": 125
    },
    {
      "midi": 69,
      "hit": false,
      "t": 207561.7293749993,
      "d": 793.9181249999965,
      "v": 112
    },
    {
      "midi": 73,
      "hit": false,
      "t": 207561.7293749993,
      "d": 793.9181249999965,
      "v": 123
    },
    {
      "midi": 76,
      "hit": false,
      "t": 207561.7293749993,
      "d": 793.9181249999965,
      "v": 112
    },
    {
      "midi": 45,
      "hit": false,
      "t": 207561.7293749993,
      "d": 1886.2593749999942,
      "v": 120
    },
    {
      "midi": 57,
      "hit": false,
      "t": 208372.5393749993,
      "d": 540.5400000000081,
      "v": 110
    },
    {
      "midi": 69,
      "hit": false,
      "t": 208372.5393749993,
      "d": 805.179375000007,
      "v": 114
    },
    {
      "midi": 73,
      "hit": false,
      "t": 208372.5393749993,
      "d": 1317.5662499999744,
      "v": 113
    },
    {
      "midi": 64,
      "hit": false,
      "t": 208648.4399999993,
      "d": 529.2787499999977,
      "v": 60
    },
    {
      "midi": 57,
      "hit": false,
      "t": 208918.7099999993,
      "d": 771.3956249999756,
      "v": 100
    },
    {
      "midi": 64,
      "hit": false,
      "t": 209183.3493749993,
      "d": 506.7562499999767,
      "v": 112
    },
    {
      "midi": 69,
      "hit": false,
      "t": 209183.3493749993,
      "d": 506.7562499999767,
      "v": 114
    },
    {
      "midi": 45,
      "hit": false,
      "t": 209453.61937499928,
      "d": 236.4862499999872,
      "v": 100
    },
    {
      "midi": 45,
      "hit": false,
      "t": 209723.88937499927,
      "d": 529.2787499999977,
      "v": 108
    },
    {
      "midi": 57,
      "hit": false,
      "t": 209723.88937499927,
      "d": 529.2787499999977,
      "v": 127
    },
    {
      "midi": 61,
      "hit": false,
      "t": 209723.88937499927,
      "d": 529.2787499999977,
      "v": 107
    },
    {
      "midi": 64,
      "hit": false,
      "t": 209723.88937499927,
      "d": 529.2787499999977,
      "v": 114
    },
    {
      "midi": 69,
      "hit": false,
      "t": 209723.88937499927,
      "d": 529.2787499999977,
      "v": 114
    },
    {
      "midi": 45,
      "hit": false,
      "t": 210264.42937499928,
      "d": 540.539999999979,
      "v": 100
    },
    {
      "midi": 61,
      "hit": false,
      "t": 210264.42937499928,
      "d": 540.539999999979,
      "v": 123
    },
    {
      "midi": 64,
      "hit": false,
      "t": 210264.42937499928,
      "d": 540.539999999979,
      "v": 125
    },
    {
      "midi": 69,
      "hit": false,
      "t": 210264.42937499928,
      "d": 540.539999999979,
      "v": 114
    },
    {
      "midi": 57,
      "hit": false,
      "t": 210270.05999999927,
      "d": 534.9093749999884,
      "v": 114
    },
    {
      "midi": 44,
      "hit": false,
      "t": 210816.23062499927,
      "d": 523.648125000007,
      "v": 99
    },
    {
      "midi": 56,
      "hit": false,
      "t": 210816.23062499927,
      "d": 523.648125000007,
      "v": 127
    },
    {
      "midi": 64,
      "hit": false,
      "t": 210816.23062499927,
      "d": 523.648125000007,
      "v": 125
    },
    {
      "midi": 68,
      "hit": false,
      "t": 210816.23062499927,
      "d": 523.648125000007,
      "v": 110
    },
    {
      "midi": 71,
      "hit": false,
      "t": 210816.23062499927,
      "d": 523.648125000007,
      "v": 122
    },
    {
      "midi": 44,
      "hit": false,
      "t": 211345.50937499927,
      "d": 523.648125000007,
      "v": 104
    },
    {
      "midi": 56,
      "hit": false,
      "t": 211345.50937499927,
      "d": 523.648125000007,
      "v": 116
    },
    {
      "midi": 64,
      "hit": false,
      "t": 211345.50937499927,
      "d": 523.648125000007,
      "v": 122
    },
    {
      "midi": 68,
      "hit": false,
      "t": 211345.50937499927,
      "d": 523.648125000007,
      "v": 110
    },
    {
      "midi": 71,
      "hit": false,
      "t": 211345.50937499927,
      "d": 523.648125000007,
      "v": 117
    },
    {
      "midi": 54,
      "hit": false,
      "t": 211891.67999999927,
      "d": 540.539999999979,
      "v": 110
    },
    {
      "midi": 69,
      "hit": false,
      "t": 211897.31062499926,
      "d": 793.9181249999674,
      "v": 120
    },
    {
      "midi": 42,
      "hit": false,
      "t": 211897.31062499926,
      "d": 2111.4843749999127,
      "v": 107
    },
    {
      "midi": 54,
      "hit": false,
      "t": 212437.85062499924,
      "d": 1334.4581249999756,
      "v": 97
    },
    {
      "midi": 69,
      "hit": false,
      "t": 212696.8593749992,
      "d": 805.179375000007,
      "v": 125
    },
    {
      "midi": 73,
      "hit": false,
      "t": 212696.8593749992,
      "d": 1081.0799999999872,
      "v": 123
    },
    {
      "midi": 66,
      "hit": false,
      "t": 213507.6693749992,
      "d": 275.9006249999802,
      "v": 89
    },
    {
      "midi": 69,
      "hit": false,
      "t": 213507.6693749992,
      "d": 275.9006249999802,
      "v": 98
    },
    {
      "midi": 54,
      "hit": false,
      "t": 213777.9393749992,
      "d": 230.8556249999674,
      "v": 104
    },
    {
      "midi": 73,
      "hit": false,
      "t": 213783.5699999992,
      "d": 225.22499999997672,
      "v": 93
    },
    {
      "midi": 66,
      "hit": false,
      "t": 213789.20062499918,
      "d": 219.59437499998603,
      "v": 55
    },
    {
      "midi": 69,
      "hit": false,
      "t": 213789.20062499918,
      "d": 219.59437499998603,
      "v": 73
    },
    {
      "midi": 50,
      "hit": false,
      "t": 214048.20937499916,
      "d": 456.0806250000023,
      "v": 85
    },
    {
      "midi": 66,
      "hit": false,
      "t": 214048.20937499916,
      "d": 456.0806250000023,
      "v": 116
    },
    {
      "midi": 74,
      "hit": false,
      "t": 214048.20937499916,
      "d": 456.0806250000023,
      "v": 127
    },
    {
      "midi": 69,
      "hit": false,
      "t": 214048.20937499916,
      "d": 461.711249999993,
      "v": 127
    },
    {
      "midi": 50,
      "hit": false,
      "t": 214588.74937499914,
      "d": 534.9093749999884,
      "v": 104
    },
    {
      "midi": 66,
      "hit": false,
      "t": 214588.74937499914,
      "d": 534.9093749999884,
      "v": 113
    },
    {
      "midi": 69,
      "hit": false,
      "t": 214588.74937499914,
      "d": 534.9093749999884,
      "v": 117
    },
    {
      "midi": 74,
      "hit": false,
      "t": 214588.74937499914,
      "d": 534.9093749999884,
      "v": 117
    },
    {
      "midi": 52,
      "hit": false,
      "t": 215129.28937499912,
      "d": 467.3418749999837,
      "v": 114
    },
    {
      "midi": 64,
      "hit": false,
      "t": 215134.9199999991,
      "d": 456.0806250000023,
      "v": 110
    },
    {
      "midi": 68,
      "hit": false,
      "t": 215134.9199999991,
      "d": 461.711249999993,
      "v": 101
    },
    {
      "midi": 71,
      "hit": false,
      "t": 215134.9199999991,
      "d": 467.3418749999837,
      "v": 100
    },
    {
      "midi": 52,
      "hit": false,
      "t": 215669.8293749991,
      "d": 568.6931250000198,
      "v": 106
    },
    {
      "midi": 68,
      "hit": false,
      "t": 215669.8293749991,
      "d": 568.6931250000198,
      "v": 104
    },
    {
      "midi": 71,
      "hit": false,
      "t": 215669.8293749991,
      "d": 568.6931250000198,
      "v": 104
    },
    {
      "midi": 64,
      "hit": false,
      "t": 215669.8293749991,
      "d": 748.8731250000128,
      "v": 104
    },
    {
      "midi": 76,
      "hit": false,
      "t": 216210.3693749991,
      "d": 208.33312500000466,
      "v": 64
    },
    {
      "midi": 69,
      "hit": false,
      "t": 216210.3693749991,
      "d": 213.96374999999534,
      "v": 54
    },
    {
      "midi": 57,
      "hit": false,
      "t": 216210.3693749991,
      "d": 275.9006250000093,
      "v": 55
    },
    {
      "midi": 73,
      "hit": false,
      "t": 216221.63062499912,
      "d": 163.28812499999185,
      "v": 51
    },
    {
      "midi": 57,
      "hit": false,
      "t": 216491.9006249991,
      "d": 264.63937499999884,
      "v": 75
    },
    {
      "midi": 64,
      "hit": false,
      "t": 216491.9006249991,
      "d": 264.63937499999884,
      "v": 61
    },
    {
      "midi": 69,
      "hit": false,
      "t": 216491.9006249991,
      "d": 264.63937499999884,
      "v": 70
    },
    {
      "midi": 73,
      "hit": false,
      "t": 216491.9006249991,
      "d": 264.63937499999884,
      "v": 59
    },
    {
      "midi": 76,
      "hit": false,
      "t": 216491.9006249991,
      "d": 264.63937499999884,
      "v": 51
    },
    {
      "midi": 57,
      "hit": false,
      "t": 216762.1706249991,
      "d": 253.37812499998836,
      "v": 74
    },
    {
      "midi": 64,
      "hit": false,
      "t": 216762.1706249991,
      "d": 253.37812499998836,
      "v": 51
    },
    {
      "midi": 69,
      "hit": false,
      "t": 216762.1706249991,
      "d": 253.37812499998836,
      "v": 69
    },
    {
      "midi": 73,
      "hit": false,
      "t": 216762.1706249991,
      "d": 253.37812499998836,
      "v": 58
    },
    {
      "midi": 76,
      "hit": false,
      "t": 216762.1706249991,
      "d": 253.37812499998836,
      "v": 51
    },
    {
      "midi": 57,
      "hit": false,
      "t": 217021.17937499908,
      "d": 264.63937499999884,
      "v": 92
    },
    {
      "midi": 64,
      "hit": false,
      "t": 217021.17937499908,
      "d": 264.63937499999884,
      "v": 84
    },
    {
      "midi": 69,
      "hit": false,
      "t": 217021.17937499908,
      "d": 264.63937499999884,
      "v": 88
    },
    {
      "midi": 73,
      "hit": false,
      "t": 217021.17937499908,
      "d": 264.63937499999884,
      "v": 74
    },
    {
      "midi": 76,
      "hit": false,
      "t": 217021.17937499908,
      "d": 264.63937499999884,
      "v": 80
    },
    {
      "midi": 57,
      "hit": false,
      "t": 217291.44937499907,
      "d": 264.63937499999884,
      "v": 106
    },
    {
      "midi": 64,
      "hit": false,
      "t": 217291.44937499907,
      "d": 264.63937499999884,
      "v": 94
    },
    {
      "midi": 69,
      "hit": false,
      "t": 217291.44937499907,
      "d": 264.63937499999884,
      "v": 97
    },
    {
      "midi": 73,
      "hit": false,
      "t": 217291.44937499907,
      "d": 264.63937499999884,
      "v": 84
    },
    {
      "midi": 76,
      "hit": false,
      "t": 217291.44937499907,
      "d": 264.63937499999884,
      "v": 90
    },
    {
      "midi": 57,
      "hit": false,
      "t": 217561.71937499905,
      "d": 270.2699999999895,
      "v": 120
    },
    {
      "midi": 64,
      "hit": false,
      "t": 217561.71937499905,
      "d": 270.2699999999895,
      "v": 114
    },
    {
      "midi": 69,
      "hit": false,
      "t": 217561.71937499905,
      "d": 270.2699999999895,
      "v": 106
    },
    {
      "midi": 73,
      "hit": false,
      "t": 217561.71937499905,
      "d": 270.2699999999895,
      "v": 97
    },
    {
      "midi": 76,
      "hit": false,
      "t": 217561.71937499905,
      "d": 270.2699999999895,
      "v": 108
    },
    {
      "midi": 64,
      "hit": false,
      "t": 217837.61999999903,
      "d": 264.63937499999884,
      "v": 120
    },
    {
      "midi": 69,
      "hit": false,
      "t": 217837.61999999903,
      "d": 264.63937499999884,
      "v": 112
    },
    {
      "midi": 73,
      "hit": false,
      "t": 217837.61999999903,
      "d": 264.63937499999884,
      "v": 99
    },
    {
      "midi": 76,
      "hit": false,
      "t": 217837.61999999903,
      "d": 264.63937499999884,
      "v": 108
    },
    {
      "midi": 57,
      "hit": false,
      "t": 217837.61999999903,
      "d": 270.2699999999895,
      "v": 110
    },
    {
      "midi": 64,
      "hit": false,
      "t": 218107.88999999902,
      "d": 219.59437499998603,
      "v": 120
    },
    {
      "midi": 69,
      "hit": false,
      "t": 218107.88999999902,
      "d": 219.59437499998603,
      "v": 120
    },
    {
      "midi": 73,
      "hit": false,
      "t": 218107.88999999902,
      "d": 219.59437499998603,
      "v": 120
    },
    {
      "midi": 76,
      "hit": false,
      "t": 218107.88999999902,
      "d": 219.59437499998603,
      "v": 120
    },
    {
      "midi": 57,
      "hit": false,
      "t": 218113.52062499902,
      "d": 213.96374999999534,
      "v": 95
    },
    {
      "midi": 57,
      "hit": false,
      "t": 218372.52937499902,
      "d": 810.8099999999977,
      "v": 122
    },
    {
      "midi": 81,
      "hit": false,
      "t": 218372.52937499902,
      "d": 810.8099999999977,
      "v": 117
    },
    {
      "midi": 69,
      "hit": false,
      "t": 218372.52937499902,
      "d": 816.4406249999884,
      "v": 117
    },
    {
      "midi": 73,
      "hit": false,
      "t": 218372.52937499902,
      "d": 816.4406249999884,
      "v": 119
    },
    {
      "midi": 76,
      "hit": false,
      "t": 218372.52937499902,
      "d": 816.4406249999884,
      "v": 114
    },
    {
      "midi": 57,
      "hit": false,
      "t": 219188.969999999,
      "d": 529.2787499999977,
      "v": 73
    },
    {
      "midi": 81,
      "hit": false,
      "t": 219188.969999999,
      "d": 1069.8187499999767,
      "v": 62
    },
    {
      "midi": 69,
      "hit": false,
      "t": 219194.600624999,
      "d": 793.9181249999965,
      "v": 61
    },
    {
      "midi": 73,
      "hit": false,
      "t": 219194.600624999,
      "d": 793.9181249999965,
      "v": 72
    },
    {
      "midi": 76,
      "hit": false,
      "t": 219194.600624999,
      "d": 793.9181249999965,
      "v": 75
    },
    {
      "midi": 57,
      "hit": false,
      "t": 219723.879374999,
      "d": 540.539999999979,
      "v": 102
    },
    {
      "midi": 69,
      "hit": false,
      "t": 219994.149374999,
      "d": 264.63937499999884,
      "v": 100
    },
    {
      "midi": 73,
      "hit": false,
      "t": 219994.149374999,
      "d": 264.63937499999884,
      "v": 107
    },
    {
      "midi": 76,
      "hit": false,
      "t": 219994.149374999,
      "d": 264.63937499999884,
      "v": 108
    },
    {
      "midi": 69,
      "hit": false,
      "t": 220264.41937499898,
      "d": 259.00874999997905,
      "v": 69
    },
    {
      "midi": 73,
      "hit": false,
      "t": 220264.41937499898,
      "d": 259.00874999997905,
      "v": 84
    },
    {
      "midi": 76,
      "hit": false,
      "t": 220264.41937499898,
      "d": 259.00874999997905,
      "v": 78
    },
    {
      "midi": 81,
      "hit": false,
      "t": 220264.41937499898,
      "d": 259.00874999997905,
      "v": 104
    },
    {
      "midi": 57,
      "hit": false,
      "t": 220270.04999999897,
      "d": 253.37812499998836,
      "v": 94
    },
    {
      "midi": 69,
      "hit": false,
      "t": 220534.68937499897,
      "d": 726.3506249999919,
      "v": 125
    },
    {
      "midi": 74,
      "hit": false,
      "t": 220534.68937499897,
      "d": 737.6118750000023,
      "v": 125
    },
    {
      "midi": 78,
      "hit": false,
      "t": 220534.68937499897,
      "d": 743.242499999993,
      "v": 110
    },
    {
      "midi": 81,
      "hit": false,
      "t": 220534.68937499897,
      "d": 743.242499999993,
      "v": 122
    },
    {
      "midi": 50,
      "hit": false,
      "t": 220540.31999999896,
      "d": 2145.2681250000023,
      "v": 122
    },
    {
      "midi": 62,
      "hit": false,
      "t": 221075.22937499895,
      "d": 731.9812500000116,
      "v": 95
    },
    {
      "midi": 69,
      "hit": false,
      "t": 221345.49937499897,
      "d": 810.8099999999977,
      "v": 95
    },
    {
      "midi": 74,
      "hit": false,
      "t": 221345.49937499897,
      "d": 810.8099999999977,
      "v": 100
    },
    {
      "midi": 78,
      "hit": false,
      "t": 221345.49937499897,
      "d": 810.8099999999977,
      "v": 110
    },
    {
      "midi": 81,
      "hit": false,
      "t": 221345.49937499897,
      "d": 810.8099999999977,
      "v": 106
    },
    {
      "midi": 62,
      "hit": false,
      "t": 221891.66999999897,
      "d": 529.2787499999977,
      "v": 85
    },
    {
      "midi": 69,
      "hit": false,
      "t": 222161.93999999895,
      "d": 523.648125000007,
      "v": 76
    },
    {
      "midi": 74,
      "hit": false,
      "t": 222161.93999999895,
      "d": 523.648125000007,
      "v": 86
    },
    {
      "midi": 78,
      "hit": false,
      "t": 222161.93999999895,
      "d": 523.648125000007,
      "v": 72
    },
    {
      "midi": 81,
      "hit": false,
      "t": 222161.93999999895,
      "d": 523.648125000007,
      "v": 85
    },
    {
      "midi": 62,
      "hit": false,
      "t": 222426.57937499895,
      "d": 259.00875000000815,
      "v": 88
    },
    {
      "midi": 57,
      "hit": false,
      "t": 222696.84937499897,
      "d": 546.1706250000279,
      "v": 110
    },
    {
      "midi": 76,
      "hit": false,
      "t": 222696.84937499897,
      "d": 805.179375000007,
      "v": 104
    },
    {
      "midi": 69,
      "hit": false,
      "t": 222696.84937499897,
      "d": 1345.7193750000151,
      "v": 110
    },
    {
      "midi": 81,
      "hit": false,
      "t": 222696.84937499897,
      "d": 1345.7193750000151,
      "v": 104
    },
    {
      "midi": 73,
      "hit": false,
      "t": 222696.84937499897,
      "d": 1615.9893750000047,
      "v": 104
    },
    {
      "midi": 57,
      "hit": false,
      "t": 223248.650624999,
      "d": 264.63937499996973,
      "v": 68
    },
    {
      "midi": 64,
      "hit": false,
      "t": 223507.65937499897,
      "d": 805.179375000007,
      "v": 80
    },
    {
      "midi": 76,
      "hit": false,
      "t": 223507.65937499897,
      "d": 805.179375000007,
      "v": 83
    },
    {
      "midi": 57,
      "hit": false,
      "t": 223518.92062499895,
      "d": 523.6481250000361,
      "v": 83
    },
    {
      "midi": 66,
      "hit": false,
      "t": 223777.92937499896,
      "d": 534.9093750000175,
      "v": 104
    },
    {
      "midi": 78,
      "hit": false,
      "t": 223777.92937499896,
      "d": 534.9093750000175,
      "v": 104
    },
    {
      "midi": 57,
      "hit": false,
      "t": 224048.19937499898,
      "d": 264.63937499999884,
      "v": 98
    },
    {
      "midi": 69,
      "hit": false,
      "t": 224048.19937499898,
      "d": 264.63937499999884,
      "v": 98
    },
    {
      "midi": 81,
      "hit": false,
      "t": 224048.19937499898,
      "d": 264.63937499999884,
      "v": 108
    },
    {
      "midi": 57,
      "hit": false,
      "t": 224318.46937499897,
      "d": 264.63937499999884,
      "v": 125
    },
    {
      "midi": 71,
      "hit": false,
      "t": 224318.46937499897,
      "d": 264.63937499999884,
      "v": 127
    },
    {
      "midi": 83,
      "hit": false,
      "t": 224318.46937499897,
      "d": 264.63937499999884,
      "v": 127
    },
    {
      "midi": 57,
      "hit": false,
      "t": 224588.73937499896,
      "d": 534.9093750000175,
      "v": 106
    },
    {
      "midi": 71,
      "hit": false,
      "t": 224588.73937499896,
      "d": 585.585000000021,
      "v": 114
    },
    {
      "midi": 83,
      "hit": false,
      "t": 224588.73937499896,
      "d": 585.585000000021,
      "v": 120
    },
    {
      "midi": 57,
      "hit": false,
      "t": 225129.27937499897,
      "d": 534.9093750000466,
      "v": 117
    },
    {
      "midi": 69,
      "hit": false,
      "t": 225129.27937499897,
      "d": 534.9093750000466,
      "v": 127
    },
    {
      "midi": 81,
      "hit": false,
      "t": 225129.27937499897,
      "d": 1880.6287500000908,
      "v": 120
    },
    {
      "midi": 69,
      "hit": false,
      "t": 225669.819374999,
      "d": 805.1793750000361,
      "v": 112
    },
    {
      "midi": 76,
      "hit": false,
      "t": 225669.819374999,
      "d": 805.1793750000361,
      "v": 114
    },
    {
      "midi": 57,
      "hit": false,
      "t": 225669.819374999,
      "d": 1340.0887500000536,
      "v": 86
    },
    {
      "midi": 64,
      "hit": false,
      "t": 226210.359374999,
      "d": 264.63937500002794,
      "v": 73
    },
    {
      "midi": 64,
      "hit": false,
      "t": 226480.62937499903,
      "d": 529.2787500000268,
      "v": 104
    },
    {
      "midi": 69,
      "hit": false,
      "t": 226480.62937499903,
      "d": 529.2787500000268,
      "v": 108
    },
    {
      "midi": 73,
      "hit": false,
      "t": 226480.62937499903,
      "d": 529.2787500000268,
      "v": 87
    },
    {
      "midi": 76,
      "hit": false,
      "t": 226480.62937499903,
      "d": 529.2787500000268,
      "v": 106
    },
    {
      "midi": 64,
      "hit": false,
      "t": 227021.16937499907,
      "d": 478.6031250000524,
      "v": 127
    },
    {
      "midi": 69,
      "hit": false,
      "t": 227021.16937499907,
      "d": 478.6031250000524,
      "v": 127
    },
    {
      "midi": 73,
      "hit": false,
      "t": 227021.16937499907,
      "d": 484.2337500000431,
      "v": 107
    },
    {
      "midi": 76,
      "hit": false,
      "t": 227021.16937499907,
      "d": 484.2337500000431,
      "v": 112
    },
    {
      "midi": 57,
      "hit": false,
      "t": 227021.16937499907,
      "d": 698.1975000000093,
      "v": 122
    },
    {
      "midi": 64,
      "hit": false,
      "t": 227561.7093749991,
      "d": 540.539999999979,
      "v": 95
    },
    {
      "midi": 76,
      "hit": false,
      "t": 227561.7093749991,
      "d": 540.539999999979,
      "v": 85
    },
    {
      "midi": 69,
      "hit": false,
      "t": 227561.7093749991,
      "d": 579.9543749999721,
      "v": 104
    },
    {
      "midi": 73,
      "hit": false,
      "t": 227561.7093749991,
      "d": 579.9543749999721,
      "v": 89
    },
    {
      "midi": 57,
      "hit": false,
      "t": 227843.24062499907,
      "d": 298.42312500000116,
      "v": 84
    },
    {
      "midi": 64,
      "hit": false,
      "t": 228107.87999999907,
      "d": 461.7112500000221,
      "v": 114
    },
    {
      "midi": 56,
      "hit": false,
      "t": 228107.87999999907,
      "d": 467.3418750000128,
      "v": 93
    },
    {
      "midi": 68,
      "hit": false,
      "t": 228107.87999999907,
      "d": 467.3418750000128,
      "v": 107
    },
    {
      "midi": 76,
      "hit": false,
      "t": 228107.87999999907,
      "d": 467.3418750000128,
      "v": 104
    },
    {
      "midi": 71,
      "hit": false,
      "t": 228107.87999999907,
      "d": 478.6031250000233,
      "v": 104
    },
    {
      "midi": 76,
      "hit": false,
      "t": 228642.7893749991,
      "d": 512.3868749999965,
      "v": 102
    },
    {
      "midi": 64,
      "hit": false,
      "t": 228648.41999999908,
      "d": 506.7562500000058,
      "v": 97
    },
    {
      "midi": 68,
      "hit": false,
      "t": 228648.41999999908,
      "d": 506.7562500000058,
      "v": 104
    },
    {
      "midi": 56,
      "hit": false,
      "t": 228654.05062499907,
      "d": 501.12562500001513,
      "v": 97
    },
    {
      "midi": 71,
      "hit": false,
      "t": 228654.05062499907,
      "d": 501.12562500001513,
      "v": 110
    },
    {
      "midi": 54,
      "hit": false,
      "t": 229183.3293749991,
      "d": 805.1793750000361,
      "v": 123
    },
    {
      "midi": 66,
      "hit": false,
      "t": 229183.3293749991,
      "d": 805.1793750000361,
      "v": 113
    },
    {
      "midi": 69,
      "hit": false,
      "t": 229183.3293749991,
      "d": 805.1793750000361,
      "v": 106
    },
    {
      "midi": 73,
      "hit": false,
      "t": 229183.3293749991,
      "d": 805.1793750000361,
      "v": 99
    },
    {
      "midi": 54,
      "hit": false,
      "t": 229994.13937499913,
      "d": 534.9093750000175,
      "v": 95
    },
    {
      "midi": 66,
      "hit": false,
      "t": 229994.13937499913,
      "d": 805.179375000007,
      "v": 89
    },
    {
      "midi": 69,
      "hit": false,
      "t": 229994.13937499913,
      "d": 805.179375000007,
      "v": 102
    },
    {
      "midi": 73,
      "hit": false,
      "t": 229994.13937499913,
      "d": 805.179375000007,
      "v": 99
    },
    {
      "midi": 54,
      "hit": false,
      "t": 230534.67937499913,
      "d": 534.9093750000175,
      "v": 110
    },
    {
      "midi": 66,
      "hit": false,
      "t": 230804.94937499912,
      "d": 506.7562500000349,
      "v": 116
    },
    {
      "midi": 69,
      "hit": false,
      "t": 230804.94937499912,
      "d": 506.7562500000349,
      "v": 122
    },
    {
      "midi": 73,
      "hit": false,
      "t": 230804.94937499912,
      "d": 506.7562500000349,
      "v": 123
    },
    {
      "midi": 54,
      "hit": false,
      "t": 231075.21937499914,
      "d": 236.4862500000163,
      "v": 107
    },
    {
      "midi": 62,
      "hit": false,
      "t": 231345.48937499916,
      "d": 805.1793750000361,
      "v": 125
    },
    {
      "midi": 66,
      "hit": false,
      "t": 231345.48937499916,
      "d": 805.1793750000361,
      "v": 110
    },
    {
      "midi": 69,
      "hit": false,
      "t": 231345.48937499916,
      "d": 805.1793750000361,
      "v": 104
    },
    {
      "midi": 50,
      "hit": false,
      "t": 231345.48937499916,
      "d": 1345.7193750000442,
      "v": 125
    },
    {
      "midi": 62,
      "hit": false,
      "t": 232156.2993749992,
      "d": 805.179375000007,
      "v": 114
    },
    {
      "midi": 66,
      "hit": false,
      "t": 232156.2993749992,
      "d": 805.179375000007,
      "v": 123
    },
    {
      "midi": 69,
      "hit": false,
      "t": 232156.2993749992,
      "d": 805.179375000007,
      "v": 122
    },
    {
      "midi": 50,
      "hit": false,
      "t": 232696.8393749992,
      "d": 534.9093749999884,
      "v": 120
    },
    {
      "midi": 62,
      "hit": false,
      "t": 232967.10937499919,
      "d": 619.3687499999651,
      "v": 120
    },
    {
      "midi": 66,
      "hit": false,
      "t": 232967.10937499919,
      "d": 619.3687499999651,
      "v": 116
    },
    {
      "midi": 69,
      "hit": false,
      "t": 232967.10937499919,
      "d": 641.8912499999569,
      "v": 106
    },
    {
      "midi": 50,
      "hit": false,
      "t": 233237.37937499917,
      "d": 264.63937499999884,
      "v": 108
    },
    {
      "midi": 50,
      "hit": false,
      "t": 233507.64937499916,
      "d": 112.61249999998836,
      "v": 108
    },
    {
      "midi": 71,
      "hit": false,
      "t": 233777.91937499915,
      "d": 95.7206250000163,
      "v": 95
    },
    {
      "midi": 64,
      "hit": false,
      "t": 233777.91937499915,
      "d": 112.61250000001746,
      "v": 84
    },
    {
      "midi": 52,
      "hit": false,
      "t": 233777.91937499915,
      "d": 135.1350000000093,
      "v": 114
    },
    {
      "midi": 68,
      "hit": false,
      "t": 233783.54999999914,
      "d": 61.93687500001397,
      "v": 61
    },
    {
      "midi": 52,
      "hit": false,
      "t": 234048.18937499917,
      "d": 185.8106250000128,
      "v": 127
    },
    {
      "midi": 64,
      "hit": false,
      "t": 234048.18937499917,
      "d": 208.33312500000466,
      "v": 117
    },
    {
      "midi": 71,
      "hit": false,
      "t": 234048.18937499917,
      "d": 208.33312500000466,
      "v": 120
    },
    {
      "midi": 68,
      "hit": false,
      "t": 234048.18937499917,
      "d": 213.96374999999534,
      "v": 127
    },
    {
      "midi": 64,
      "hit": false,
      "t": 234318.45937499916,
      "d": 534.9093750000175,
      "v": 94
    },
    {
      "midi": 68,
      "hit": false,
      "t": 234318.45937499916,
      "d": 534.9093750000175,
      "v": 95
    },
    {
      "midi": 71,
      "hit": false,
      "t": 234318.45937499916,
      "d": 534.9093750000175,
      "v": 97
    },
    {
      "midi": 52,
      "hit": false,
      "t": 234318.45937499916,
      "d": 546.1706249999988,
      "v": 122
    },
    {
      "midi": 64,
      "hit": false,
      "t": 234858.99937499917,
      "d": 264.63937499999884,
      "v": 64
    },
    {
      "midi": 68,
      "hit": false,
      "t": 234858.99937499917,
      "d": 264.63937499999884,
      "v": 70
    },
    {
      "midi": 71,
      "hit": false,
      "t": 234858.99937499917,
      "d": 264.63937499999884,
      "v": 66
    },
    {
      "midi": 52,
      "hit": false,
      "t": 234870.26062499915,
      "d": 253.37812500001746,
      "v": 57
    },
    {
      "midi": 52,
      "hit": false,
      "t": 235129.26937499916,
      "d": 264.63937499999884,
      "v": 122
    },
    {
      "midi": 64,
      "hit": false,
      "t": 235129.26937499916,
      "d": 264.63937499999884,
      "v": 104
    },
    {
      "midi": 68,
      "hit": false,
      "t": 235129.26937499916,
      "d": 264.63937499999884,
      "v": 110
    },
    {
      "midi": 71,
      "hit": false,
      "t": 235129.26937499916,
      "d": 264.63937499999884,
      "v": 100
    },
    {
      "midi": 68,
      "hit": false,
      "t": 235399.53937499915,
      "d": 123.87374999999884,
      "v": 127
    },
    {
      "midi": 52,
      "hit": false,
      "t": 235399.53937499915,
      "d": 129.50437499998952,
      "v": 127
    },
    {
      "midi": 64,
      "hit": false,
      "t": 235399.53937499915,
      "d": 135.1349999999802,
      "v": 114
    },
    {
      "midi": 71,
      "hit": false,
      "t": 235399.53937499915,
      "d": 146.3962499999907,
      "v": 117
    },
    {
      "midi": 61,
      "hit": false,
      "t": 235669.80937499914,
      "d": 3215.086875000008,
      "v": 95
    },
    {
      "midi": 45,
      "hit": false,
      "t": 235669.80937499914,
      "d": 3248.8706250000105,
      "v": 100
    },
    {
      "midi": 69,
      "hit": false,
      "t": 235669.80937499914,
      "d": 3248.8706250000105,
      "v": 98
    },
    {
      "midi": 64,
      "hit": false,
      "t": 235669.80937499914,
      "d": 3293.9156250000233,
      "v": 108
    }
  ]
}