{
  "jsonPath": "Rock/Country Rock/Brooks  Dunn/well-burn-that-bridge.json",
  "path": "Rock\\Country Rock\\Brooks  Dunn\\Well Burn That Bridge.mid",
  "name": "Well Burn That Bridge",
  "difficulty": "Advanced",
  "bpm": 169.0002788504601,
  "notes": [
    {
      "midi": 28,
      "hit": false,
      "t": 4260.348,
      "d": 177.51450000000023,
      "v": 98
    },
    {
      "midi": 40,
      "hit": false,
      "t": 4611.678781250001,
      "d": 199.7038124999999,
      "v": 116
    },
    {
      "midi": 28,
      "hit": false,
      "t": 4966.70778125,
      "d": 184.91093749999982,
      "v": 87
    },
    {
      "midi": 40,
      "hit": false,
      "t": 5321.73678125,
      "d": 162.72162500000013,
      "v": 108
    },
    {
      "midi": 28,
      "hit": false,
      "t": 5676.76578125,
      "d": 170.11806249999972,
      "v": 97
    },
    {
      "midi": 40,
      "hit": false,
      "t": 6031.79478125,
      "d": 181.21271875000002,
      "v": 101
    },
    {
      "midi": 28,
      "hit": false,
      "t": 6386.82378125,
      "d": 181.21271875000002,
      "v": 93
    },
    {
      "midi": 40,
      "hit": false,
      "t": 6741.852781250001,
      "d": 170.11806249999972,
      "v": 101
    },
    {
      "midi": 28,
      "hit": false,
      "t": 7096.88178125,
      "d": 170.11806249999972,
      "v": 94
    },
    {
      "midi": 40,
      "hit": false,
      "t": 7451.91078125,
      "d": 170.11806249999972,
      "v": 106
    },
    {
      "midi": 28,
      "hit": false,
      "t": 7806.939781249999,
      "d": 173.81628125000043,
      "v": 89
    },
    {
      "midi": 40,
      "hit": false,
      "t": 8161.96878125,
      "d": 155.32518750000054,
      "v": 101
    },
    {
      "midi": 28,
      "hit": false,
      "t": 8516.99778125,
      "d": 177.51449999999932,
      "v": 93
    },
    {
      "midi": 40,
      "hit": false,
      "t": 8868.328562499999,
      "d": 170.11806249999972,
      "v": 110
    },
    {
      "midi": 28,
      "hit": false,
      "t": 9223.3575625,
      "d": 177.51449999999932,
      "v": 93
    },
    {
      "midi": 40,
      "hit": false,
      "t": 9578.386562499998,
      "d": 159.02340625000033,
      "v": 110
    },
    {
      "midi": 28,
      "hit": false,
      "t": 9929.717343749999,
      "d": 177.51449999999932,
      "v": 100
    },
    {
      "midi": 40,
      "hit": false,
      "t": 10288.444562499997,
      "d": 170.11806249999972,
      "v": 101
    },
    {
      "midi": 28,
      "hit": false,
      "t": 10647.171781249997,
      "d": 181.2127187499991,
      "v": 96
    },
    {
      "midi": 40,
      "hit": false,
      "t": 11002.200781249996,
      "d": 196.00559375000012,
      "v": 100
    },
    {
      "midi": 28,
      "hit": false,
      "t": 11357.229781249996,
      "d": 192.30737500000032,
      "v": 92
    },
    {
      "midi": 40,
      "hit": false,
      "t": 11712.258781249997,
      "d": 177.51449999999932,
      "v": 90
    },
    {
      "midi": 28,
      "hit": false,
      "t": 12067.287781249996,
      "d": 181.2127187499991,
      "v": 96
    },
    {
      "midi": 40,
      "hit": false,
      "t": 12422.316781249994,
      "d": 170.11806249999972,
      "v": 100
    },
    {
      "midi": 28,
      "hit": false,
      "t": 12777.345781249995,
      "d": 177.51449999999932,
      "v": 93
    },
    {
      "midi": 40,
      "hit": false,
      "t": 13132.374781249993,
      "d": 188.60915625000052,
      "v": 100
    },
    {
      "midi": 28,
      "hit": false,
      "t": 13487.403781249994,
      "d": 192.30737500000032,
      "v": 91
    },
    {
      "midi": 40,
      "hit": false,
      "t": 13838.734562499994,
      "d": 196.00559375000012,
      "v": 91
    },
    {
      "midi": 28,
      "hit": false,
      "t": 14193.763562499995,
      "d": 173.81628124999952,
      "v": 90
    },
    {
      "midi": 40,
      "hit": false,
      "t": 14552.490781249995,
      "d": 196.00559375000012,
      "v": 91
    },
    {
      "midi": 28,
      "hit": false,
      "t": 14907.519781249996,
      "d": 292.1592812500003,
      "v": 94
    },
    {
      "midi": 47,
      "hit": false,
      "t": 15617.577781249996,
      "d": 207.1002499999995,
      "v": 91
    },
    {
      "midi": 52,
      "hit": false,
      "t": 15621.275999999996,
      "d": 229.2895625000001,
      "v": 110
    },
    {
      "midi": 47,
      "hit": false,
      "t": 15972.606781249997,
      "d": 218.1949062500007,
      "v": 96
    },
    {
      "midi": 52,
      "hit": false,
      "t": 15972.606781249997,
      "d": 244.0824375000011,
      "v": 108
    },
    {
      "midi": 49,
      "hit": false,
      "t": 16327.635781249997,
      "d": 218.1949062500007,
      "v": 117
    },
    {
      "midi": 52,
      "hit": false,
      "t": 16327.635781249997,
      "d": 218.1949062500007,
      "v": 97
    },
    {
      "midi": 49,
      "hit": false,
      "t": 16678.966562499998,
      "d": 218.1949062499989,
      "v": 117
    },
    {
      "midi": 52,
      "hit": false,
      "t": 16682.664781249998,
      "d": 225.5913437499985,
      "v": 84
    },
    {
      "midi": 52,
      "hit": false,
      "t": 17033.995562499997,
      "d": 210.7984687499993,
      "v": 87
    },
    {
      "midi": 50,
      "hit": false,
      "t": 17037.693781249996,
      "d": 192.30737500000032,
      "v": 96
    },
    {
      "midi": 50,
      "hit": false,
      "t": 17392.722781249995,
      "d": 155.32518749999872,
      "v": 111
    },
    {
      "midi": 52,
      "hit": false,
      "t": 17392.722781249995,
      "d": 170.1180624999979,
      "v": 99
    },
    {
      "midi": 49,
      "hit": false,
      "t": 17744.053562499994,
      "d": 114.64478125000096,
      "v": 97
    },
    {
      "midi": 47,
      "hit": false,
      "t": 17980.739562499995,
      "d": 173.81628125000134,
      "v": 107
    },
    {
      "midi": 52,
      "hit": false,
      "t": 17980.739562499995,
      "d": 192.30737500000032,
      "v": 110
    },
    {
      "midi": 40,
      "hit": false,
      "t": 18102.780781249996,
      "d": 177.51450000000114,
      "v": 100
    },
    {
      "midi": 52,
      "hit": false,
      "t": 18335.768562499998,
      "d": 240.3842187500013,
      "v": 113
    },
    {
      "midi": 45,
      "hit": false,
      "t": 18335.768562499998,
      "d": 251.4788750000007,
      "v": 108
    },
    {
      "midi": 33,
      "hit": false,
      "t": 18457.80978125,
      "d": 177.51450000000114,
      "v": 100
    },
    {
      "midi": 45,
      "hit": false,
      "t": 18809.1405625,
      "d": 255.1770937500005,
      "v": 100
    },
    {
      "midi": 52,
      "hit": false,
      "t": 18809.1405625,
      "d": 255.1770937500005,
      "v": 111
    },
    {
      "midi": 45,
      "hit": false,
      "t": 19167.867781250003,
      "d": 203.4020312499997,
      "v": 80
    },
    {
      "midi": 54,
      "hit": false,
      "t": 19167.867781250003,
      "d": 207.1002499999995,
      "v": 109
    },
    {
      "midi": 54,
      "hit": false,
      "t": 19522.89678125,
      "d": 125.73943750000035,
      "v": 98
    },
    {
      "midi": 45,
      "hit": false,
      "t": 19522.89678125,
      "d": 162.72162500000195,
      "v": 107
    },
    {
      "midi": 47,
      "hit": false,
      "t": 19881.624000000003,
      "d": 214.4966874999991,
      "v": 96
    },
    {
      "midi": 52,
      "hit": false,
      "t": 19881.624000000003,
      "d": 229.28956249999828,
      "v": 108
    },
    {
      "midi": 52,
      "hit": false,
      "t": 20232.954781250002,
      "d": 207.1002499999995,
      "v": 107
    },
    {
      "midi": 49,
      "hit": false,
      "t": 20232.954781250002,
      "d": 210.7984687499993,
      "v": 94
    },
    {
      "midi": 52,
      "hit": false,
      "t": 20584.2855625,
      "d": 177.51450000000114,
      "v": 107
    },
    {
      "midi": 47,
      "hit": false,
      "t": 20584.2855625,
      "d": 181.21271875000093,
      "v": 96
    },
    {
      "midi": 52,
      "hit": false,
      "t": 20820.971562500003,
      "d": 188.60915625000052,
      "v": 110
    },
    {
      "midi": 47,
      "hit": false,
      "t": 20820.971562500003,
      "d": 218.1949062499989,
      "v": 95
    },
    {
      "midi": 40,
      "hit": false,
      "t": 20943.012781250003,
      "d": 236.68599999999788,
      "v": 113
    },
    {
      "midi": 52,
      "hit": false,
      "t": 21179.69878125,
      "d": 196.00559375000012,
      "v": 110
    },
    {
      "midi": 47,
      "hit": false,
      "t": 21179.69878125,
      "d": 199.7038124999999,
      "v": 97
    },
    {
      "midi": 40,
      "hit": false,
      "t": 21298.04178125,
      "d": 166.4198437499981,
      "v": 107
    },
    {
      "midi": 49,
      "hit": false,
      "t": 21653.07078125,
      "d": 188.60915625000052,
      "v": 117
    },
    {
      "midi": 52,
      "hit": false,
      "t": 21653.07078125,
      "d": 207.1002499999995,
      "v": 102
    },
    {
      "midi": 47,
      "hit": false,
      "t": 22008.09978125,
      "d": 207.1002499999995,
      "v": 95
    },
    {
      "midi": 52,
      "hit": false,
      "t": 22008.09978125,
      "d": 221.8931249999987,
      "v": 107
    },
    {
      "midi": 52,
      "hit": false,
      "t": 22363.128781249998,
      "d": 207.1002499999995,
      "v": 91
    },
    {
      "midi": 49,
      "hit": false,
      "t": 22363.128781249998,
      "d": 218.1949062499989,
      "v": 111
    },
    {
      "midi": 47,
      "hit": false,
      "t": 22714.459562499997,
      "d": 210.7984687499993,
      "v": 101
    },
    {
      "midi": 52,
      "hit": false,
      "t": 22718.157781249996,
      "d": 203.4020312499997,
      "v": 96
    },
    {
      "midi": 52,
      "hit": false,
      "t": 23069.488562499995,
      "d": 166.41984375000175,
      "v": 97
    },
    {
      "midi": 49,
      "hit": false,
      "t": 23069.488562499995,
      "d": 203.40203125000335,
      "v": 123
    },
    {
      "midi": 52,
      "hit": false,
      "t": 23424.517562499997,
      "d": 103.55012500000157,
      "v": 107
    },
    {
      "midi": 47,
      "hit": false,
      "t": 23424.517562499997,
      "d": 114.64478125000096,
      "v": 96
    },
    {
      "midi": 47,
      "hit": false,
      "t": 23661.2035625,
      "d": 225.59134375000212,
      "v": 104
    },
    {
      "midi": 52,
      "hit": false,
      "t": 23661.2035625,
      "d": 229.28956250000192,
      "v": 113
    },
    {
      "midi": 40,
      "hit": false,
      "t": 23779.5465625,
      "d": 236.6860000000015,
      "v": 102
    },
    {
      "midi": 47,
      "hit": false,
      "t": 24016.2325625,
      "d": 221.89312500000233,
      "v": 97
    },
    {
      "midi": 52,
      "hit": false,
      "t": 24016.2325625,
      "d": 225.59134375000212,
      "v": 111
    },
    {
      "midi": 40,
      "hit": false,
      "t": 24134.575562500002,
      "d": 181.21271875000093,
      "v": 106
    },
    {
      "midi": 52,
      "hit": false,
      "t": 24493.302781250004,
      "d": 210.7984687499993,
      "v": 95
    },
    {
      "midi": 49,
      "hit": false,
      "t": 24493.302781250004,
      "d": 225.5913437499985,
      "v": 120
    },
    {
      "midi": 47,
      "hit": false,
      "t": 24848.331781250003,
      "d": 203.4020312499997,
      "v": 97
    },
    {
      "midi": 52,
      "hit": false,
      "t": 24852.030000000002,
      "d": 199.7038124999999,
      "v": 111
    },
    {
      "midi": 52,
      "hit": false,
      "t": 25203.36078125,
      "d": 184.91093750000073,
      "v": 101
    },
    {
      "midi": 49,
      "hit": false,
      "t": 25203.36078125,
      "d": 210.7984687499993,
      "v": 113
    },
    {
      "midi": 54,
      "hit": false,
      "t": 25562.088,
      "d": 184.9109374999971,
      "v": 117
    },
    {
      "midi": 47,
      "hit": false,
      "t": 25562.088,
      "d": 199.70381249999627,
      "v": 73
    },
    {
      "midi": 35,
      "hit": false,
      "t": 25565.78621875,
      "d": 85.05903124999895,
      "v": 76
    },
    {
      "midi": 54,
      "hit": false,
      "t": 25913.418781249995,
      "d": 251.4788750000007,
      "v": 120
    },
    {
      "midi": 47,
      "hit": false,
      "t": 25913.418781249995,
      "d": 255.1770937500005,
      "v": 89
    },
    {
      "midi": 56,
      "hit": false,
      "t": 26268.447781249997,
      "d": 207.1002499999995,
      "v": 107
    },
    {
      "midi": 47,
      "hit": false,
      "t": 26268.447781249997,
      "d": 218.1949062499989,
      "v": 76
    },
    {
      "midi": 56,
      "hit": false,
      "t": 26623.476781249996,
      "d": 225.5913437499985,
      "v": 107
    },
    {
      "midi": 47,
      "hit": false,
      "t": 26623.476781249996,
      "d": 247.78065624999726,
      "v": 87
    },
    {
      "midi": 47,
      "hit": false,
      "t": 26978.505781249994,
      "d": 199.7038124999999,
      "v": 84
    },
    {
      "midi": 57,
      "hit": false,
      "t": 26978.505781249994,
      "d": 221.8931249999987,
      "v": 108
    },
    {
      "midi": 57,
      "hit": false,
      "t": 27329.836562499993,
      "d": 192.30737500000032,
      "v": 103
    },
    {
      "midi": 47,
      "hit": false,
      "t": 27333.534781249993,
      "d": 181.21271875000093,
      "v": 103
    },
    {
      "midi": 47,
      "hit": false,
      "t": 27684.865562499992,
      "d": 184.91093750000073,
      "v": 81
    },
    {
      "midi": 56,
      "hit": false,
      "t": 27684.865562499992,
      "d": 192.30737500000032,
      "v": 98
    },
    {
      "midi": 47,
      "hit": false,
      "t": 27925.249781249993,
      "d": 210.7984687499993,
      "v": 92
    },
    {
      "midi": 54,
      "hit": false,
      "t": 27925.249781249993,
      "d": 210.7984687499993,
      "v": 127
    },
    {
      "midi": 35,
      "hit": false,
      "t": 28039.894562499994,
      "d": 210.7984687499993,
      "v": 96
    },
    {
      "midi": 52,
      "hit": false,
      "t": 28280.278781249992,
      "d": 255.1770937500005,
      "v": 106
    },
    {
      "midi": 47,
      "hit": false,
      "t": 28280.278781249992,
      "d": 269.9699687499997,
      "v": 96
    },
    {
      "midi": 40,
      "hit": false,
      "t": 28398.621781249993,
      "d": 173.8162812499977,
      "v": 110
    },
    {
      "midi": 47,
      "hit": false,
      "t": 28749.95256249999,
      "d": 218.1949062499989,
      "v": 102
    },
    {
      "midi": 52,
      "hit": false,
      "t": 28749.95256249999,
      "d": 225.5913437499985,
      "v": 96
    },
    {
      "midi": 49,
      "hit": false,
      "t": 29104.98156249999,
      "d": 214.4966874999991,
      "v": 113
    },
    {
      "midi": 52,
      "hit": false,
      "t": 29104.98156249999,
      "d": 232.98778124999808,
      "v": 101
    },
    {
      "midi": 49,
      "hit": false,
      "t": 29460.01056249999,
      "d": 236.6860000000015,
      "v": 117
    },
    {
      "midi": 52,
      "hit": false,
      "t": 29460.01056249999,
      "d": 236.6860000000015,
      "v": 97
    },
    {
      "midi": 47,
      "hit": false,
      "t": 29818.73778124999,
      "d": 218.1949062499989,
      "v": 101
    },
    {
      "midi": 52,
      "hit": false,
      "t": 29818.73778124999,
      "d": 221.8931249999987,
      "v": 94
    },
    {
      "midi": 47,
      "hit": false,
      "t": 30173.76678124999,
      "d": 199.7038124999999,
      "v": 103
    },
    {
      "midi": 52,
      "hit": false,
      "t": 30173.76678124999,
      "d": 210.7984687499993,
      "v": 99
    },
    {
      "midi": 49,
      "hit": false,
      "t": 30525.09756249999,
      "d": 96.15368749999834,
      "v": 115
    },
    {
      "midi": 52,
      "hit": false,
      "t": 30528.795781249988,
      "d": 107.24834374999773,
      "v": 96
    },
    {
      "midi": 52,
      "hit": false,
      "t": 30761.783562499986,
      "d": 196.00559375000012,
      "v": 96
    },
    {
      "midi": 47,
      "hit": false,
      "t": 30761.783562499986,
      "d": 214.4966874999991,
      "v": 107
    },
    {
      "midi": 40,
      "hit": false,
      "t": 30880.126562499987,
      "d": 184.9109374999971,
      "v": 96
    },
    {
      "midi": 45,
      "hit": false,
      "t": 31116.812562499985,
      "d": 251.4788750000007,
      "v": 108
    },
    {
      "midi": 52,
      "hit": false,
      "t": 31120.510781249985,
      "d": 225.59134375000212,
      "v": 107
    },
    {
      "midi": 35,
      "hit": false,
      "t": 31238.853781249985,
      "d": 118.34300000000076,
      "v": 78
    },
    {
      "midi": 45,
      "hit": false,
      "t": 31593.882781249984,
      "d": 218.1949062499989,
      "v": 99
    },
    {
      "midi": 52,
      "hit": false,
      "t": 31593.882781249984,
      "d": 229.28956249999828,
      "v": 103
    },
    {
      "midi": 45,
      "hit": false,
      "t": 31945.213562499983,
      "d": 225.5913437499985,
      "v": 51
    },
    {
      "midi": 54,
      "hit": false,
      "t": 31948.911781249983,
      "d": 221.8931249999987,
      "v": 107
    },
    {
      "midi": 54,
      "hit": false,
      "t": 32303.94078124998,
      "d": 207.1002499999995,
      "v": 107
    },
    {
      "midi": 45,
      "hit": false,
      "t": 32303.94078124998,
      "d": 232.98778124999808,
      "v": 94
    },
    {
      "midi": 47,
      "hit": false,
      "t": 32658.96978124998,
      "d": 203.4020312499997,
      "v": 99
    },
    {
      "midi": 52,
      "hit": false,
      "t": 32658.96978124998,
      "d": 203.4020312499997,
      "v": 94
    },
    {
      "midi": 47,
      "hit": false,
      "t": 33013.99878124998,
      "d": 207.10025000000314,
      "v": 96
    },
    {
      "midi": 52,
      "hit": false,
      "t": 33013.99878124998,
      "d": 236.6860000000015,
      "v": 103
    },
    {
      "midi": 49,
      "hit": false,
      "t": 33369.027781249984,
      "d": 107.24834374999773,
      "v": 100
    },
    {
      "midi": 52,
      "hit": false,
      "t": 33369.027781249984,
      "d": 136.8340937499961,
      "v": 100
    },
    {
      "midi": 52,
      "hit": false,
      "t": 33605.71378124998,
      "d": 192.30737500000396,
      "v": 101
    },
    {
      "midi": 47,
      "hit": false,
      "t": 33605.71378124998,
      "d": 207.10025000000314,
      "v": 106
    },
    {
      "midi": 40,
      "hit": false,
      "t": 33731.45321874998,
      "d": 229.28956250000192,
      "v": 100
    },
    {
      "midi": 47,
      "hit": false,
      "t": 33960.74278124998,
      "d": 292.1592812500021,
      "v": 100
    },
    {
      "midi": 52,
      "hit": false,
      "t": 33960.74278124998,
      "d": 292.1592812500021,
      "v": 108
    },
    {
      "midi": 40,
      "hit": false,
      "t": 34079.08578124998,
      "d": 196.00559375000012,
      "v": 97
    },
    {
      "midi": 52,
      "hit": false,
      "t": 34430.41656249998,
      "d": 240.38421875000495,
      "v": 104
    },
    {
      "midi": 47,
      "hit": false,
      "t": 34434.114781249984,
      "d": 236.6860000000015,
      "v": 100
    },
    {
      "midi": 52,
      "hit": false,
      "t": 34789.143781249986,
      "d": 199.70381250000355,
      "v": 94
    },
    {
      "midi": 49,
      "hit": false,
      "t": 34789.143781249986,
      "d": 207.10025000000314,
      "v": 115
    },
    {
      "midi": 49,
      "hit": false,
      "t": 35140.47456249999,
      "d": 196.00559375000012,
      "v": 117
    },
    {
      "midi": 52,
      "hit": false,
      "t": 35140.47456249999,
      "d": 214.49668750000274,
      "v": 89
    },
    {
      "midi": 47,
      "hit": false,
      "t": 35499.20178125,
      "d": 225.5913437499985,
      "v": 96
    },
    {
      "midi": 52,
      "hit": false,
      "t": 35499.20178125,
      "d": 232.98778124999808,
      "v": 89
    },
    {
      "midi": 47,
      "hit": false,
      "t": 35854.23078124999,
      "d": 229.28956250000192,
      "v": 101
    },
    {
      "midi": 52,
      "hit": false,
      "t": 35854.23078124999,
      "d": 240.38421875000495,
      "v": 96
    },
    {
      "midi": 49,
      "hit": false,
      "t": 36209.259781249995,
      "d": 210.7984687499993,
      "v": 117
    },
    {
      "midi": 52,
      "hit": false,
      "t": 36209.259781249995,
      "d": 210.7984687499993,
      "v": 102
    },
    {
      "midi": 52,
      "hit": false,
      "t": 36564.28878125,
      "d": 207.10025000000314,
      "v": 90
    },
    {
      "midi": 49,
      "hit": false,
      "t": 36564.28878125,
      "d": 218.19490625000617,
      "v": 98
    },
    {
      "midi": 47,
      "hit": false,
      "t": 36919.31778125001,
      "d": 199.70381250000355,
      "v": 72
    },
    {
      "midi": 54,
      "hit": false,
      "t": 36919.31778125001,
      "d": 203.40203125000698,
      "v": 117
    },
    {
      "midi": 47,
      "hit": false,
      "t": 37270.64856250001,
      "d": 277.3664062500029,
      "v": 78
    },
    {
      "midi": 54,
      "hit": false,
      "t": 37274.34678125002,
      "d": 240.38421874999767,
      "v": 117
    },
    {
      "midi": 47,
      "hit": false,
      "t": 37629.37578125002,
      "d": 232.98778125000536,
      "v": 76
    },
    {
      "midi": 56,
      "hit": false,
      "t": 37633.07400000002,
      "d": 151.62696875000256,
      "v": 100
    },
    {
      "midi": 54,
      "hit": false,
      "t": 37984.40478125002,
      "d": 188.60915625000052,
      "v": 117
    },
    {
      "midi": 47,
      "hit": false,
      "t": 37984.40478125002,
      "d": 266.2717499999999,
      "v": 82
    },
    {
      "midi": 52,
      "hit": false,
      "t": 38339.43378125002,
      "d": 236.6860000000015,
      "v": 94
    },
    {
      "midi": 47,
      "hit": false,
      "t": 38343.13200000003,
      "d": 210.7984687499993,
      "v": 96
    },
    {
      "midi": 47,
      "hit": false,
      "t": 38694.462781250026,
      "d": 236.6860000000015,
      "v": 90
    },
    {
      "midi": 52,
      "hit": false,
      "t": 38694.462781250026,
      "d": 247.78065625000454,
      "v": 104
    },
    {
      "midi": 52,
      "hit": false,
      "t": 39049.49178125003,
      "d": 196.00559375000012,
      "v": 89
    },
    {
      "midi": 49,
      "hit": false,
      "t": 39049.49178125003,
      "d": 203.4020312499997,
      "v": 115
    },
    {
      "midi": 49,
      "hit": false,
      "t": 39400.82256250003,
      "d": 251.4788750000007,
      "v": 117
    },
    {
      "midi": 52,
      "hit": false,
      "t": 39404.52078125003,
      "d": 225.5913437499985,
      "v": 85
    },
    {
      "midi": 47,
      "hit": false,
      "t": 39759.549781250025,
      "d": 210.7984687499993,
      "v": 91
    },
    {
      "midi": 52,
      "hit": false,
      "t": 39759.549781250025,
      "d": 221.89312500000233,
      "v": 100
    },
    {
      "midi": 47,
      "hit": false,
      "t": 40114.57878125003,
      "d": 240.38421874999767,
      "v": 89
    },
    {
      "midi": 52,
      "hit": false,
      "t": 40114.57878125003,
      "d": 251.4788750000007,
      "v": 101
    },
    {
      "midi": 52,
      "hit": false,
      "t": 40473.306000000026,
      "d": 229.28956250000192,
      "v": 90
    },
    {
      "midi": 49,
      "hit": false,
      "t": 40473.306000000026,
      "d": 232.98778125000536,
      "v": 115
    },
    {
      "midi": 52,
      "hit": false,
      "t": 40820.93856250003,
      "d": 240.38421874999767,
      "v": 100
    },
    {
      "midi": 47,
      "hit": false,
      "t": 40820.93856250003,
      "d": 247.78065624999726,
      "v": 91
    },
    {
      "midi": 45,
      "hit": false,
      "t": 41183.36400000002,
      "d": 210.7984687499993,
      "v": 96
    },
    {
      "midi": 52,
      "hit": false,
      "t": 41183.36400000002,
      "d": 218.1949062499989,
      "v": 100
    },
    {
      "midi": 45,
      "hit": false,
      "t": 41530.99656250002,
      "d": 269.9699687500033,
      "v": 111
    },
    {
      "midi": 52,
      "hit": false,
      "t": 41534.69478125002,
      "d": 266.2717499999999,
      "v": 124
    },
    {
      "midi": 45,
      "hit": false,
      "t": 41889.723781250024,
      "d": 251.4788750000007,
      "v": 96
    },
    {
      "midi": 54,
      "hit": false,
      "t": 41889.723781250024,
      "d": 262.5735312500037,
      "v": 123
    },
    {
      "midi": 54,
      "hit": false,
      "t": 42244.75278125003,
      "d": 273.6681874999995,
      "v": 123
    },
    {
      "midi": 45,
      "hit": false,
      "t": 42244.75278125003,
      "d": 281.06462499999907,
      "v": 84
    },
    {
      "midi": 45,
      "hit": false,
      "t": 42599.78178125003,
      "d": 225.5913437499985,
      "v": 96
    },
    {
      "midi": 55,
      "hit": false,
      "t": 42599.78178125003,
      "d": 269.96996874999604,
      "v": 106
    },
    {
      "midi": 45,
      "hit": false,
      "t": 42954.810781250024,
      "d": 207.10025000000314,
      "v": 107
    },
    {
      "midi": 55,
      "hit": false,
      "t": 42954.810781250024,
      "d": 214.49668750000274,
      "v": 96
    },
    {
      "midi": 45,
      "hit": false,
      "t": 43306.14156250003,
      "d": 51.77506249999715,
      "v": 77
    },
    {
      "midi": 54,
      "hit": false,
      "t": 43306.14156250003,
      "d": 92.45546874999854,
      "v": 113
    },
    {
      "midi": 55,
      "hit": false,
      "t": 43542.82756250003,
      "d": 173.81628124999406,
      "v": 103
    },
    {
      "midi": 52,
      "hit": false,
      "t": 43542.82756250003,
      "d": 314.3485937499936,
      "v": 116
    },
    {
      "midi": 47,
      "hit": false,
      "t": 43664.86878125003,
      "d": 181.21271874999366,
      "v": 94
    },
    {
      "midi": 41,
      "hit": false,
      "t": 43894.15834375002,
      "d": 125.73943750000035,
      "v": 92
    },
    {
      "midi": 55,
      "hit": false,
      "t": 44016.19956250002,
      "d": 251.4788750000007,
      "v": 118
    },
    {
      "midi": 52,
      "hit": false,
      "t": 44019.89778125002,
      "d": 258.8753125000003,
      "v": 118
    },
    {
      "midi": 52,
      "hit": false,
      "t": 44374.926781250026,
      "d": 225.59134375000576,
      "v": 89
    },
    {
      "midi": 49,
      "hit": false,
      "t": 44378.62500000003,
      "d": 203.4020312499997,
      "v": 115
    },
    {
      "midi": 50,
      "hit": false,
      "t": 44729.95578125003,
      "d": 266.2717499999999,
      "v": 104
    },
    {
      "midi": 52,
      "hit": false,
      "t": 44729.95578125003,
      "d": 288.46106249999866,
      "v": 110
    },
    {
      "midi": 50,
      "hit": false,
      "t": 45084.98478125003,
      "d": 147.92874999999913,
      "v": 111
    },
    {
      "midi": 52,
      "hit": false,
      "t": 45084.98478125003,
      "d": 232.98778124999808,
      "v": 94
    },
    {
      "midi": 52,
      "hit": false,
      "t": 45440.013781250025,
      "d": 255.17709374999686,
      "v": 103
    },
    {
      "midi": 49,
      "hit": false,
      "t": 45440.013781250025,
      "d": 258.8753125000003,
      "v": 118
    },
    {
      "midi": 49,
      "hit": false,
      "t": 45795.04278125003,
      "d": 207.10025000000314,
      "v": 113
    },
    {
      "midi": 52,
      "hit": false,
      "t": 45795.04278125003,
      "d": 251.4788750000007,
      "v": 108
    },
    {
      "midi": 52,
      "hit": false,
      "t": 46146.373562500026,
      "d": 144.23053125000297,
      "v": 89
    },
    {
      "midi": 50,
      "hit": false,
      "t": 46146.373562500026,
      "d": 151.62696875000256,
      "v": 105
    },
    {
      "midi": 47,
      "hit": false,
      "t": 46386.75778125003,
      "d": 177.5144999999975,
      "v": 101
    },
    {
      "midi": 52,
      "hit": false,
      "t": 46386.75778125003,
      "d": 203.4020312499997,
      "v": 108
    },
    {
      "midi": 40,
      "hit": false,
      "t": 46512.49721875003,
      "d": 203.4020312499997,
      "v": 107
    },
    {
      "midi": 54,
      "hit": false,
      "t": 46741.78678125003,
      "d": 284.7628437500025,
      "v": 101
    },
    {
      "midi": 49,
      "hit": false,
      "t": 46741.78678125003,
      "d": 318.0468125000043,
      "v": 100
    },
    {
      "midi": 42,
      "hit": false,
      "t": 46860.129781250034,
      "d": 203.40203125000698,
      "v": 113
    },
    {
      "midi": 49,
      "hit": false,
      "t": 47215.158781250044,
      "d": 184.9109374999971,
      "v": 101
    },
    {
      "midi": 54,
      "hit": false,
      "t": 47215.158781250044,
      "d": 229.28956249999464,
      "v": 109
    },
    {
      "midi": 54,
      "hit": false,
      "t": 47570.18778125004,
      "d": 232.98778124999808,
      "v": 95
    },
    {
      "midi": 51,
      "hit": false,
      "t": 47570.18778125004,
      "d": 244.0824375000011,
      "v": 115
    },
    {
      "midi": 54,
      "hit": false,
      "t": 47925.21678125004,
      "d": 225.5913437499985,
      "v": 101
    },
    {
      "midi": 51,
      "hit": false,
      "t": 47925.21678125004,
      "d": 247.78065624999726,
      "v": 109
    },
    {
      "midi": 49,
      "hit": false,
      "t": 48280.245781250036,
      "d": 225.5913437499985,
      "v": 98
    },
    {
      "midi": 54,
      "hit": false,
      "t": 48280.245781250036,
      "d": 236.6860000000015,
      "v": 98
    },
    {
      "midi": 49,
      "hit": false,
      "t": 48631.576562500035,
      "d": 207.10025000000314,
      "v": 98
    },
    {
      "midi": 54,
      "hit": false,
      "t": 48631.576562500035,
      "d": 214.49668750000274,
      "v": 95
    },
    {
      "midi": 51,
      "hit": false,
      "t": 48986.60556250004,
      "d": 199.70381250000355,
      "v": 113
    },
    {
      "midi": 54,
      "hit": false,
      "t": 48990.30378125004,
      "d": 203.4020312499997,
      "v": 95
    },
    {
      "midi": 51,
      "hit": false,
      "t": 49345.33278125004,
      "d": 225.5913437499985,
      "v": 113
    },
    {
      "midi": 54,
      "hit": false,
      "t": 49345.33278125004,
      "d": 229.28956250000192,
      "v": 103
    },
    {
      "midi": 54,
      "hit": false,
      "t": 49704.06000000004,
      "d": 236.6860000000088,
      "v": 117
    },
    {
      "midi": 47,
      "hit": false,
      "t": 49707.758218750045,
      "d": 229.28956250000192,
      "v": 89
    },
    {
      "midi": 56,
      "hit": false,
      "t": 50055.39078125005,
      "d": 229.28956250000192,
      "v": 111
    },
    {
      "midi": 47,
      "hit": false,
      "t": 50055.39078125005,
      "d": 251.4788750000007,
      "v": 71
    },
    {
      "midi": 57,
      "hit": false,
      "t": 50410.41978125005,
      "d": 199.70381250000355,
      "v": 118
    },
    {
      "midi": 47,
      "hit": false,
      "t": 50410.41978125005,
      "d": 229.28956250000192,
      "v": 81
    },
    {
      "midi": 56,
      "hit": false,
      "t": 50761.75056250005,
      "d": 181.21271875000093,
      "v": 117
    },
    {
      "midi": 47,
      "hit": false,
      "t": 50761.75056250005,
      "d": 255.17709375000413,
      "v": 77
    },
    {
      "midi": 47,
      "hit": false,
      "t": 51124.17600000005,
      "d": 980.0279687500006,
      "v": 96
    },
    {
      "midi": 54,
      "hit": false,
      "t": 51124.17600000005,
      "d": 994.8208437499998,
      "v": 127
    },
    {
      "midi": 47,
      "hit": false,
      "t": 53968.10621875005,
      "d": 225.5913437499985,
      "v": 97
    },
    {
      "midi": 52,
      "hit": false,
      "t": 53968.10621875005,
      "d": 236.6860000000015,
      "v": 108
    },
    {
      "midi": 47,
      "hit": false,
      "t": 54323.13521875005,
      "d": 214.49668750000274,
      "v": 96
    },
    {
      "midi": 52,
      "hit": false,
      "t": 54323.13521875005,
      "d": 247.78065625000454,
      "v": 101
    },
    {
      "midi": 52,
      "hit": false,
      "t": 54670.767781250055,
      "d": 210.7984687499993,
      "v": 99
    },
    {
      "midi": 49,
      "hit": false,
      "t": 54670.767781250055,
      "d": 221.89312500000233,
      "v": 117
    },
    {
      "midi": 52,
      "hit": false,
      "t": 55025.79678125006,
      "d": 255.17709374999686,
      "v": 100
    },
    {
      "midi": 49,
      "hit": false,
      "t": 55025.79678125006,
      "d": 258.8753125000003,
      "v": 115
    },
    {
      "midi": 47,
      "hit": false,
      "t": 55380.82578125006,
      "d": 229.28956250000192,
      "v": 97
    },
    {
      "midi": 52,
      "hit": false,
      "t": 55380.82578125006,
      "d": 266.2717499999999,
      "v": 99
    },
    {
      "midi": 47,
      "hit": false,
      "t": 55743.25121875006,
      "d": 199.70381250000355,
      "v": 102
    },
    {
      "midi": 52,
      "hit": false,
      "t": 55743.25121875006,
      "d": 251.4788750000007,
      "v": 101
    },
    {
      "midi": 49,
      "hit": false,
      "t": 56090.883781250064,
      "d": 244.0824375000011,
      "v": 115
    },
    {
      "midi": 52,
      "hit": false,
      "t": 56098.280218750064,
      "d": 218.1949062499989,
      "v": 96
    },
    {
      "midi": 47,
      "hit": false,
      "t": 56445.91278125007,
      "d": 232.98778124999808,
      "v": 104
    },
    {
      "midi": 52,
      "hit": false,
      "t": 56445.91278125007,
      "d": 262.57353124999645,
      "v": 102
    },
    {
      "midi": 45,
      "hit": false,
      "t": 56800.94178125006,
      "d": 247.78065624999726,
      "v": 102
    },
    {
      "midi": 52,
      "hit": false,
      "t": 56800.94178125006,
      "d": 266.2717499999999,
      "v": 102
    },
    {
      "midi": 45,
      "hit": false,
      "t": 57155.970781250064,
      "d": 266.2717499999999,
      "v": 106
    },
    {
      "midi": 52,
      "hit": false,
      "t": 57155.970781250064,
      "d": 281.06462499999907,
      "v": 104
    },
    {
      "midi": 54,
      "hit": false,
      "t": 57518.396218750066,
      "d": 166.41984375000175,
      "v": 101
    },
    {
      "midi": 45,
      "hit": false,
      "t": 57518.396218750066,
      "d": 181.21271875000093,
      "v": 70
    },
    {
      "midi": 54,
      "hit": false,
      "t": 57866.02878125007,
      "d": 236.6860000000015,
      "v": 103
    },
    {
      "midi": 45,
      "hit": false,
      "t": 57866.02878125007,
      "d": 258.8753125000003,
      "v": 97
    },
    {
      "midi": 47,
      "hit": false,
      "t": 58221.05778125007,
      "d": 221.89312500000233,
      "v": 91
    },
    {
      "midi": 52,
      "hit": false,
      "t": 58221.05778125007,
      "d": 244.0824375000011,
      "v": 89
    },
    {
      "midi": 47,
      "hit": false,
      "t": 58576.08678125007,
      "d": 269.9699687500033,
      "v": 97
    },
    {
      "midi": 52,
      "hit": false,
      "t": 58576.08678125007,
      "d": 277.3664062500029,
      "v": 102
    },
    {
      "midi": 52,
      "hit": false,
      "t": 58938.512218750075,
      "d": 166.41984375000175,
      "v": 86
    },
    {
      "midi": 49,
      "hit": false,
      "t": 58938.512218750075,
      "d": 203.4020312499997,
      "v": 115
    },
    {
      "midi": 52,
      "hit": false,
      "t": 59282.446562500074,
      "d": 251.4788750000007,
      "v": 99
    },
    {
      "midi": 49,
      "hit": false,
      "t": 59286.14478125008,
      "d": 251.4788750000007,
      "v": 111
    },
    {
      "midi": 47,
      "hit": false,
      "t": 59641.17378125008,
      "d": 218.1949062499989,
      "v": 91
    },
    {
      "midi": 52,
      "hit": false,
      "t": 59641.17378125008,
      "d": 247.78065624999726,
      "v": 99
    },
    {
      "midi": 47,
      "hit": false,
      "t": 59996.202781250075,
      "d": 229.28956250000192,
      "v": 93
    },
    {
      "midi": 52,
      "hit": false,
      "t": 59996.202781250075,
      "d": 266.2717499999999,
      "v": 100
    },
    {
      "midi": 52,
      "hit": false,
      "t": 60351.23178125008,
      "d": 221.89312500000233,
      "v": 100
    },
    {
      "midi": 49,
      "hit": false,
      "t": 60351.23178125008,
      "d": 232.98778125000536,
      "v": 113
    },
    {
      "midi": 47,
      "hit": false,
      "t": 60706.26078125008,
      "d": 236.6860000000015,
      "v": 96
    },
    {
      "midi": 52,
      "hit": false,
      "t": 60706.26078125008,
      "d": 251.4788750000007,
      "v": 100
    },
    {
      "midi": 54,
      "hit": false,
      "t": 61061.28978125008,
      "d": 236.6860000000015,
      "v": 109
    },
    {
      "midi": 47,
      "hit": false,
      "t": 61061.28978125008,
      "d": 240.38421875000495,
      "v": 89
    },
    {
      "midi": 47,
      "hit": false,
      "t": 61416.318781250084,
      "d": 255.17709374999686,
      "v": 96
    },
    {
      "midi": 54,
      "hit": false,
      "t": 61416.318781250084,
      "d": 262.57353124999645,
      "v": 107
    },
    {
      "midi": 56,
      "hit": false,
      "t": 61771.34778125008,
      "d": 192.30737500000396,
      "v": 107
    },
    {
      "midi": 47,
      "hit": false,
      "t": 61775.04600000008,
      "d": 225.5913437499985,
      "v": 71
    },
    {
      "midi": 54,
      "hit": false,
      "t": 62122.67856250008,
      "d": 203.40203125000698,
      "v": 115
    },
    {
      "midi": 47,
      "hit": false,
      "t": 62126.37678125008,
      "d": 258.8753125000003,
      "v": 90
    },
    {
      "midi": 47,
      "hit": false,
      "t": 62481.40578125008,
      "d": 247.78065624999726,
      "v": 84
    },
    {
      "midi": 52,
      "hit": false,
      "t": 62481.40578125008,
      "d": 251.4788750000007,
      "v": 107
    },
    {
      "midi": 47,
      "hit": false,
      "t": 62836.434781250086,
      "d": 247.78065624999726,
      "v": 89
    },
    {
      "midi": 52,
      "hit": false,
      "t": 62836.434781250086,
      "d": 255.17709374999686,
      "v": 103
    },
    {
      "midi": 49,
      "hit": false,
      "t": 63191.46378125008,
      "d": 218.1949062499989,
      "v": 98
    },
    {
      "midi": 52,
      "hit": false,
      "t": 63198.86021875008,
      "d": 203.4020312499997,
      "v": 89
    },
    {
      "midi": 49,
      "hit": false,
      "t": 63542.79456250008,
      "d": 277.3664062500029,
      "v": 117
    },
    {
      "midi": 52,
      "hit": false,
      "t": 63542.79456250008,
      "d": 277.3664062500029,
      "v": 101
    },
    {
      "midi": 47,
      "hit": false,
      "t": 63908.918218750085,
      "d": 225.5913437499985,
      "v": 89
    },
    {
      "midi": 52,
      "hit": false,
      "t": 63908.918218750085,
      "d": 240.38421874999767,
      "v": 102
    },
    {
      "midi": 47,
      "hit": false,
      "t": 64256.55078125008,
      "d": 247.78065624999726,
      "v": 91
    },
    {
      "midi": 52,
      "hit": false,
      "t": 64256.55078125008,
      "d": 273.6681874999995,
      "v": 102
    },
    {
      "midi": 52,
      "hit": false,
      "t": 64618.97621875008,
      "d": 207.10025000000314,
      "v": 95
    },
    {
      "midi": 49,
      "hit": false,
      "t": 64618.97621875008,
      "d": 229.28956250000192,
      "v": 113
    },
    {
      "midi": 47,
      "hit": false,
      "t": 64966.608781250085,
      "d": 240.38421875000495,
      "v": 92
    },
    {
      "midi": 52,
      "hit": false,
      "t": 64970.30700000009,
      "d": 221.89312500000233,
      "v": 101
    },
    {
      "midi": 47,
      "hit": false,
      "t": 65317.93956250009,
      "d": 281.06462499999907,
      "v": 93
    },
    {
      "midi": 52,
      "hit": false,
      "t": 65321.637781250094,
      "d": 258.8753125000003,
      "v": 99
    },
    {
      "midi": 52,
      "hit": false,
      "t": 65676.6667812501,
      "d": 255.17709374999686,
      "v": 104
    },
    {
      "midi": 47,
      "hit": false,
      "t": 65676.6667812501,
      "d": 258.875312499993,
      "v": 89
    },
    {
      "midi": 49,
      "hit": false,
      "t": 66031.69578125009,
      "d": 232.98778125000536,
      "v": 115
    },
    {
      "midi": 52,
      "hit": false,
      "t": 66031.69578125009,
      "d": 232.98778125000536,
      "v": 97
    },
    {
      "midi": 52,
      "hit": false,
      "t": 66386.7247812501,
      "d": 236.6860000000015,
      "v": 93
    },
    {
      "midi": 49,
      "hit": false,
      "t": 66386.7247812501,
      "d": 258.87531250000757,
      "v": 117
    },
    {
      "midi": 47,
      "hit": false,
      "t": 66738.05556250011,
      "d": 244.08243749999383,
      "v": 93
    },
    {
      "midi": 52,
      "hit": false,
      "t": 66738.05556250011,
      "d": 262.5735312499892,
      "v": 101
    },
    {
      "midi": 47,
      "hit": false,
      "t": 67096.7827812501,
      "d": 232.98778125000536,
      "v": 96
    },
    {
      "midi": 52,
      "hit": false,
      "t": 67096.7827812501,
      "d": 269.9699687500106,
      "v": 97
    },
    {
      "midi": 52,
      "hit": false,
      "t": 67459.20821875012,
      "d": 218.19490625000617,
      "v": 96
    },
    {
      "midi": 49,
      "hit": false,
      "t": 67459.20821875012,
      "d": 236.6860000000015,
      "v": 113
    },
    {
      "midi": 47,
      "hit": false,
      "t": 67806.84078125012,
      "d": 236.6860000000015,
      "v": 92
    },
    {
      "midi": 52,
      "hit": false,
      "t": 67806.84078125012,
      "d": 251.4788750000007,
      "v": 104
    },
    {
      "midi": 45,
      "hit": false,
      "t": 68161.86978125012,
      "d": 258.875312499993,
      "v": 95
    },
    {
      "midi": 52,
      "hit": false,
      "t": 68161.86978125012,
      "d": 273.6681874999922,
      "v": 100
    },
    {
      "midi": 52,
      "hit": false,
      "t": 68516.89878125011,
      "d": 255.17709374999686,
      "v": 103
    },
    {
      "midi": 45,
      "hit": false,
      "t": 68516.89878125011,
      "d": 284.7628437499952,
      "v": 97
    },
    {
      "midi": 54,
      "hit": false,
      "t": 68871.92778125011,
      "d": 210.7984687499993,
      "v": 107
    },
    {
      "midi": 45,
      "hit": false,
      "t": 68871.92778125011,
      "d": 240.38421874999767,
      "v": 80
    },
    {
      "midi": 54,
      "hit": false,
      "t": 69226.9567812501,
      "d": 218.19490625000617,
      "v": 103
    },
    {
      "midi": 45,
      "hit": false,
      "t": 69226.9567812501,
      "d": 247.78065625000454,
      "v": 96
    },
    {
      "midi": 47,
      "hit": false,
      "t": 69581.98578125011,
      "d": 225.5913437499985,
      "v": 101
    },
    {
      "midi": 52,
      "hit": false,
      "t": 69581.98578125011,
      "d": 247.78065625000454,
      "v": 99
    },
    {
      "midi": 47,
      "hit": false,
      "t": 69937.01478125012,
      "d": 251.4788750000007,
      "v": 94
    },
    {
      "midi": 52,
      "hit": false,
      "t": 69937.01478125012,
      "d": 255.17709374999686,
      "v": 96
    },
    {
      "midi": 49,
      "hit": false,
      "t": 70292.04378125012,
      "d": 232.98778125000536,
      "v": 109
    },
    {
      "midi": 52,
      "hit": false,
      "t": 70292.04378125012,
      "d": 244.08243750000838,
      "v": 90
    },
    {
      "midi": 52,
      "hit": false,
      "t": 70647.07278125013,
      "d": 262.5735312500037,
      "v": 94
    },
    {
      "midi": 49,
      "hit": false,
      "t": 70647.07278125013,
      "d": 266.2717499999999,
      "v": 111
    },
    {
      "midi": 47,
      "hit": false,
      "t": 70998.40356250013,
      "d": 236.6860000000015,
      "v": 93
    },
    {
      "midi": 52,
      "hit": false,
      "t": 70998.40356250013,
      "d": 255.17709374999686,
      "v": 96
    },
    {
      "midi": 47,
      "hit": false,
      "t": 71357.13078125012,
      "d": 236.6860000000015,
      "v": 96
    },
    {
      "midi": 52,
      "hit": false,
      "t": 71357.13078125012,
      "d": 262.5735312500037,
      "v": 101
    },
    {
      "midi": 52,
      "hit": false,
      "t": 71712.15978125013,
      "d": 218.19490625000617,
      "v": 93
    },
    {
      "midi": 49,
      "hit": false,
      "t": 71712.15978125013,
      "d": 236.6860000000015,
      "v": 107
    },
    {
      "midi": 52,
      "hit": false,
      "t": 72067.18878125012,
      "d": 236.6860000000015,
      "v": 96
    },
    {
      "midi": 47,
      "hit": false,
      "t": 72067.18878125012,
      "d": 266.2717499999999,
      "v": 95
    },
    {
      "midi": 47,
      "hit": false,
      "t": 72418.51956250012,
      "d": 225.5913437499985,
      "v": 80
    },
    {
      "midi": 54,
      "hit": false,
      "t": 72422.21778125012,
      "d": 221.89312500000233,
      "v": 100
    },
    {
      "midi": 47,
      "hit": false,
      "t": 72777.24678125013,
      "d": 277.3664062500029,
      "v": 91
    },
    {
      "midi": 54,
      "hit": false,
      "t": 72777.24678125013,
      "d": 284.7628437500098,
      "v": 109
    },
    {
      "midi": 56,
      "hit": false,
      "t": 73132.27578125014,
      "d": 196.00559375000012,
      "v": 107
    },
    {
      "midi": 47,
      "hit": false,
      "t": 73132.27578125014,
      "d": 244.08243749999383,
      "v": 76
    },
    {
      "midi": 54,
      "hit": false,
      "t": 73483.60656250014,
      "d": 210.7984687499993,
      "v": 101
    },
    {
      "midi": 47,
      "hit": false,
      "t": 73487.30478125013,
      "d": 244.08243750000838,
      "v": 88
    },
    {
      "midi": 47,
      "hit": false,
      "t": 73842.33378125014,
      "d": 181.21271875000093,
      "v": 96
    },
    {
      "midi": 52,
      "hit": false,
      "t": 73849.73021875015,
      "d": 262.5735312499892,
      "v": 80
    },
    {
      "midi": 47,
      "hit": false,
      "t": 74197.36278125014,
      "d": 218.19490625000617,
      "v": 96
    },
    {
      "midi": 52,
      "hit": false,
      "t": 74197.36278125014,
      "d": 229.2895625000092,
      "v": 100
    },
    {
      "midi": 52,
      "hit": false,
      "t": 74548.69356250015,
      "d": 229.28956249999464,
      "v": 94
    },
    {
      "midi": 49,
      "hit": false,
      "t": 74552.39178125015,
      "d": 210.7984687499993,
      "v": 109
    },
    {
      "midi": 52,
      "hit": false,
      "t": 74914.81721875015,
      "d": 229.28956249999464,
      "v": 104
    },
    {
      "midi": 49,
      "hit": false,
      "t": 74914.81721875015,
      "d": 240.38421874999767,
      "v": 109
    },
    {
      "midi": 47,
      "hit": false,
      "t": 75262.44978125015,
      "d": 244.08243749999383,
      "v": 88
    },
    {
      "midi": 52,
      "hit": false,
      "t": 75262.44978125015,
      "d": 251.4788750000007,
      "v": 101
    },
    {
      "midi": 47,
      "hit": false,
      "t": 75624.87521875015,
      "d": 214.49668749999546,
      "v": 96
    },
    {
      "midi": 52,
      "hit": false,
      "t": 75624.87521875015,
      "d": 247.78065624999,
      "v": 103
    },
    {
      "midi": 52,
      "hit": false,
      "t": 75979.90421875015,
      "d": 214.49668749999546,
      "v": 96
    },
    {
      "midi": 49,
      "hit": false,
      "t": 75979.90421875015,
      "d": 236.6860000000015,
      "v": 111
    },
    {
      "midi": 47,
      "hit": false,
      "t": 76334.93321875014,
      "d": 192.30737500000396,
      "v": 103
    },
    {
      "midi": 52,
      "hit": false,
      "t": 76334.93321875014,
      "d": 199.70381250001083,
      "v": 100
    },
    {
      "midi": 47,
      "hit": false,
      "t": 76682.56578125016,
      "d": 207.10025000000314,
      "v": 91
    },
    {
      "midi": 52,
      "hit": false,
      "t": 76686.26400000016,
      "d": 229.2895625000092,
      "v": 110
    },
    {
      "midi": 47,
      "hit": false,
      "t": 77037.59478125017,
      "d": 218.19490625000617,
      "v": 96
    },
    {
      "midi": 52,
      "hit": false,
      "t": 77037.59478125017,
      "d": 244.08243750000838,
      "v": 108
    },
    {
      "midi": 49,
      "hit": false,
      "t": 77392.62378125018,
      "d": 218.19490625000617,
      "v": 117
    },
    {
      "midi": 52,
      "hit": false,
      "t": 77392.62378125018,
      "d": 218.19490625000617,
      "v": 97
    },
    {
      "midi": 49,
      "hit": false,
      "t": 77743.95456250019,
      "d": 218.19490624999162,
      "v": 117
    },
    {
      "midi": 52,
      "hit": false,
      "t": 77747.65278125019,
      "d": 225.5913437499985,
      "v": 84
    },
    {
      "midi": 52,
      "hit": false,
      "t": 78098.98356250019,
      "d": 210.7984687499993,
      "v": 87
    },
    {
      "midi": 50,
      "hit": false,
      "t": 78102.68178125018,
      "d": 192.30737500000396,
      "v": 96
    },
    {
      "midi": 50,
      "hit": false,
      "t": 78457.71078125019,
      "d": 155.32518749999872,
      "v": 111
    },
    {
      "midi": 52,
      "hit": false,
      "t": 78457.71078125019,
      "d": 170.1180624999979,
      "v": 99
    },
    {
      "midi": 49,
      "hit": false,
      "t": 78809.04156250019,
      "d": 114.64478124999732,
      "v": 97
    },
    {
      "midi": 47,
      "hit": false,
      "t": 79045.7275625002,
      "d": 173.81628125000861,
      "v": 107
    },
    {
      "midi": 52,
      "hit": false,
      "t": 79045.7275625002,
      "d": 192.30737500000396,
      "v": 110
    },
    {
      "midi": 40,
      "hit": false,
      "t": 79167.7687812502,
      "d": 177.51450000000477,
      "v": 100
    },
    {
      "midi": 52,
      "hit": false,
      "t": 79400.7565625002,
      "d": 240.38421874999767,
      "v": 113
    },
    {
      "midi": 45,
      "hit": false,
      "t": 79400.7565625002,
      "d": 251.4788750000007,
      "v": 108
    },
    {
      "midi": 33,
      "hit": false,
      "t": 79522.7977812502,
      "d": 177.51449999999022,
      "v": 100
    },
    {
      "midi": 45,
      "hit": false,
      "t": 79874.12856250019,
      "d": 255.17709374999686,
      "v": 100
    },
    {
      "midi": 52,
      "hit": false,
      "t": 79874.12856250019,
      "d": 255.17709374999686,
      "v": 111
    },
    {
      "midi": 45,
      "hit": false,
      "t": 80232.85578125018,
      "d": 203.40203125000698,
      "v": 80
    },
    {
      "midi": 54,
      "hit": false,
      "t": 80232.85578125018,
      "d": 207.10025000000314,
      "v": 109
    },
    {
      "midi": 54,
      "hit": false,
      "t": 80587.88478125019,
      "d": 125.73943750000035,
      "v": 98
    },
    {
      "midi": 45,
      "hit": false,
      "t": 80587.88478125019,
      "d": 162.7216250000056,
      "v": 107
    },
    {
      "midi": 47,
      "hit": false,
      "t": 80946.6120000002,
      "d": 214.49668749999546,
      "v": 96
    },
    {
      "midi": 52,
      "hit": false,
      "t": 80946.6120000002,
      "d": 229.28956249999464,
      "v": 108
    },
    {
      "midi": 52,
      "hit": false,
      "t": 81297.9427812502,
      "d": 207.10025000000314,
      "v": 107
    },
    {
      "midi": 49,
      "hit": false,
      "t": 81297.9427812502,
      "d": 210.7984687499993,
      "v": 94
    },
    {
      "midi": 52,
      "hit": false,
      "t": 81649.2735625002,
      "d": 177.51450000000477,
      "v": 107
    },
    {
      "midi": 47,
      "hit": false,
      "t": 81649.2735625002,
      "d": 181.21271875000093,
      "v": 96
    },
    {
      "midi": 52,
      "hit": false,
      "t": 81885.9595625002,
      "d": 188.6091562500078,
      "v": 110
    },
    {
      "midi": 47,
      "hit": false,
      "t": 81885.9595625002,
      "d": 218.19490625000617,
      "v": 95
    },
    {
      "midi": 40,
      "hit": false,
      "t": 82008.0007812502,
      "d": 236.6860000000015,
      "v": 113
    },
    {
      "midi": 52,
      "hit": false,
      "t": 82244.6867812502,
      "d": 196.00559375000012,
      "v": 110
    },
    {
      "midi": 47,
      "hit": false,
      "t": 82244.6867812502,
      "d": 199.70381249999627,
      "v": 97
    },
    {
      "midi": 40,
      "hit": false,
      "t": 82363.0297812502,
      "d": 166.41984375000175,
      "v": 107
    },
    {
      "midi": 49,
      "hit": false,
      "t": 82718.05878125019,
      "d": 188.60915624999325,
      "v": 117
    },
    {
      "midi": 52,
      "hit": false,
      "t": 82718.05878125019,
      "d": 207.1002499999886,
      "v": 102
    },
    {
      "midi": 47,
      "hit": false,
      "t": 83073.08778125019,
      "d": 207.10025000000314,
      "v": 95
    },
    {
      "midi": 52,
      "hit": false,
      "t": 83073.08778125019,
      "d": 221.89312500000233,
      "v": 107
    },
    {
      "midi": 52,
      "hit": false,
      "t": 83428.1167812502,
      "d": 207.10025000000314,
      "v": 91
    },
    {
      "midi": 49,
      "hit": false,
      "t": 83428.1167812502,
      "d": 218.19490625000617,
      "v": 111
    },
    {
      "midi": 47,
      "hit": false,
      "t": 83779.44756250021,
      "d": 210.7984687499993,
      "v": 101
    },
    {
      "midi": 52,
      "hit": false,
      "t": 83783.1457812502,
      "d": 203.40203125000698,
      "v": 96
    },
    {
      "midi": 52,
      "hit": false,
      "t": 84134.4765625002,
      "d": 166.41984375000175,
      "v": 97
    },
    {
      "midi": 49,
      "hit": false,
      "t": 84134.4765625002,
      "d": 203.40203125000698,
      "v": 123
    },
    {
      "midi": 52,
      "hit": false,
      "t": 84489.50556250021,
      "d": 103.5501249999943,
      "v": 107
    },
    {
      "midi": 47,
      "hit": false,
      "t": 84489.50556250021,
      "d": 114.64478124999732,
      "v": 96
    },
    {
      "midi": 47,
      "hit": false,
      "t": 84726.19156250021,
      "d": 225.5913437499985,
      "v": 104
    },
    {
      "midi": 52,
      "hit": false,
      "t": 84726.19156250021,
      "d": 229.28956249999464,
      "v": 113
    },
    {
      "midi": 40,
      "hit": false,
      "t": 84844.53456250021,
      "d": 236.6860000000015,
      "v": 102
    },
    {
      "midi": 47,
      "hit": false,
      "t": 85081.22056250021,
      "d": 221.89312499998778,
      "v": 97
    },
    {
      "midi": 52,
      "hit": false,
      "t": 85081.22056250021,
      "d": 225.59134374998393,
      "v": 111
    },
    {
      "midi": 40,
      "hit": false,
      "t": 85199.5635625002,
      "d": 181.21271874998638,
      "v": 106
    },
    {
      "midi": 52,
      "hit": false,
      "t": 85558.2907812502,
      "d": 210.7984687499993,
      "v": 95
    },
    {
      "midi": 49,
      "hit": false,
      "t": 85558.2907812502,
      "d": 225.5913437499985,
      "v": 120
    },
    {
      "midi": 47,
      "hit": false,
      "t": 85913.31978125019,
      "d": 203.40203124999243,
      "v": 97
    },
    {
      "midi": 52,
      "hit": false,
      "t": 85917.01800000019,
      "d": 199.70381249999627,
      "v": 111
    },
    {
      "midi": 52,
      "hit": false,
      "t": 86268.34878125018,
      "d": 184.9109374999971,
      "v": 101
    },
    {
      "midi": 49,
      "hit": false,
      "t": 86268.34878125018,
      "d": 210.7984687499993,
      "v": 113
    },
    {
      "midi": 54,
      "hit": false,
      "t": 86627.07600000019,
      "d": 184.9109374999971,
      "v": 117
    },
    {
      "midi": 47,
      "hit": false,
      "t": 86627.07600000019,
      "d": 199.70381249999627,
      "v": 73
    },
    {
      "midi": 35,
      "hit": false,
      "t": 86630.77421875019,
      "d": 85.05903124999895,
      "v": 76
    },
    {
      "midi": 54,
      "hit": false,
      "t": 86978.40678125019,
      "d": 251.4788750000007,
      "v": 120
    },
    {
      "midi": 47,
      "hit": false,
      "t": 86978.40678125019,
      "d": 255.17709374999686,
      "v": 89
    },
    {
      "midi": 56,
      "hit": false,
      "t": 87333.43578125018,
      "d": 207.10025000000314,
      "v": 107
    },
    {
      "midi": 47,
      "hit": false,
      "t": 87333.43578125018,
      "d": 218.19490625000617,
      "v": 76
    },
    {
      "midi": 56,
      "hit": false,
      "t": 87688.4647812502,
      "d": 225.5913437499985,
      "v": 107
    },
    {
      "midi": 47,
      "hit": false,
      "t": 87688.4647812502,
      "d": 247.78065625000454,
      "v": 87
    },
    {
      "midi": 47,
      "hit": false,
      "t": 88043.4937812502,
      "d": 199.70381249999627,
      "v": 84
    },
    {
      "midi": 57,
      "hit": false,
      "t": 88043.4937812502,
      "d": 221.89312500000233,
      "v": 108
    },
    {
      "midi": 57,
      "hit": false,
      "t": 88394.8245625002,
      "d": 192.30737500000396,
      "v": 103
    },
    {
      "midi": 47,
      "hit": false,
      "t": 88398.5227812502,
      "d": 181.21271875000093,
      "v": 103
    },
    {
      "midi": 47,
      "hit": false,
      "t": 88749.85356250021,
      "d": 184.9109374999971,
      "v": 81
    },
    {
      "midi": 56,
      "hit": false,
      "t": 88749.85356250021,
      "d": 192.30737500000396,
      "v": 98
    },
    {
      "midi": 47,
      "hit": false,
      "t": 88990.23778125021,
      "d": 210.7984687499993,
      "v": 92
    },
    {
      "midi": 54,
      "hit": false,
      "t": 88990.23778125021,
      "d": 210.7984687499993,
      "v": 127
    },
    {
      "midi": 35,
      "hit": false,
      "t": 89104.8825625002,
      "d": 210.7984687499993,
      "v": 96
    },
    {
      "midi": 52,
      "hit": false,
      "t": 89345.2667812502,
      "d": 255.17709374999686,
      "v": 106
    },
    {
      "midi": 47,
      "hit": false,
      "t": 89345.2667812502,
      "d": 269.96996874999604,
      "v": 96
    },
    {
      "midi": 40,
      "hit": false,
      "t": 89463.6097812502,
      "d": 173.81628125000861,
      "v": 110
    },
    {
      "midi": 47,
      "hit": false,
      "t": 89814.94056250021,
      "d": 218.19490625000617,
      "v": 102
    },
    {
      "midi": 52,
      "hit": false,
      "t": 89814.94056250021,
      "d": 225.59134375001304,
      "v": 96
    },
    {
      "midi": 49,
      "hit": false,
      "t": 90169.96956250022,
      "d": 214.49668749999546,
      "v": 113
    },
    {
      "midi": 52,
      "hit": false,
      "t": 90169.96956250022,
      "d": 232.9877812499908,
      "v": 101
    },
    {
      "midi": 49,
      "hit": false,
      "t": 90524.99856250022,
      "d": 236.6860000000015,
      "v": 117
    },
    {
      "midi": 52,
      "hit": false,
      "t": 90524.99856250022,
      "d": 236.6860000000015,
      "v": 97
    },
    {
      "midi": 47,
      "hit": false,
      "t": 90883.72578125022,
      "d": 218.19490625000617,
      "v": 101
    },
    {
      "midi": 52,
      "hit": false,
      "t": 90883.72578125022,
      "d": 221.89312500000233,
      "v": 94
    },
    {
      "midi": 47,
      "hit": false,
      "t": 91238.75478125023,
      "d": 199.70381249999627,
      "v": 103
    },
    {
      "midi": 52,
      "hit": false,
      "t": 91238.75478125023,
      "d": 210.7984687499993,
      "v": 99
    },
    {
      "midi": 49,
      "hit": false,
      "t": 91590.08556250023,
      "d": 96.15368750000198,
      "v": 115
    },
    {
      "midi": 52,
      "hit": false,
      "t": 91593.78378125023,
      "d": 107.248343750005,
      "v": 96
    },
    {
      "midi": 52,
      "hit": false,
      "t": 91826.77156250023,
      "d": 196.00559375000012,
      "v": 96
    },
    {
      "midi": 47,
      "hit": false,
      "t": 91826.77156250023,
      "d": 214.49668749999546,
      "v": 107
    },
    {
      "midi": 40,
      "hit": false,
      "t": 91945.11456250022,
      "d": 184.9109374999971,
      "v": 96
    },
    {
      "midi": 45,
      "hit": false,
      "t": 92181.80056250023,
      "d": 251.4788750000007,
      "v": 108
    },
    {
      "midi": 52,
      "hit": false,
      "t": 92185.49878125022,
      "d": 225.5913437499985,
      "v": 107
    },
    {
      "midi": 35,
      "hit": false,
      "t": 92303.84178125022,
      "d": 118.34300000000803,
      "v": 78
    },
    {
      "midi": 45,
      "hit": false,
      "t": 92658.87078125023,
      "d": 218.19490625000617,
      "v": 99
    },
    {
      "midi": 52,
      "hit": false,
      "t": 92658.87078125023,
      "d": 229.2895625000092,
      "v": 103
    },
    {
      "midi": 45,
      "hit": false,
      "t": 93010.20156250024,
      "d": 225.5913437499985,
      "v": 51
    },
    {
      "midi": 54,
      "hit": false,
      "t": 93013.89978125023,
      "d": 221.89312500000233,
      "v": 107
    },
    {
      "midi": 54,
      "hit": false,
      "t": 93368.92878125024,
      "d": 207.10025000000314,
      "v": 107
    },
    {
      "midi": 45,
      "hit": false,
      "t": 93368.92878125024,
      "d": 232.98778125000536,
      "v": 94
    },
    {
      "midi": 47,
      "hit": false,
      "t": 93723.95778125025,
      "d": 203.40203125000698,
      "v": 99
    },
    {
      "midi": 52,
      "hit": false,
      "t": 93723.95778125025,
      "d": 203.40203125000698,
      "v": 94
    },
    {
      "midi": 47,
      "hit": false,
      "t": 94078.98678125026,
      "d": 207.10025000000314,
      "v": 96
    },
    {
      "midi": 52,
      "hit": false,
      "t": 94078.98678125026,
      "d": 236.6860000000015,
      "v": 103
    },
    {
      "midi": 49,
      "hit": false,
      "t": 94434.01578125026,
      "d": 107.248343750005,
      "v": 100
    },
    {
      "midi": 52,
      "hit": false,
      "t": 94434.01578125026,
      "d": 136.83409375000338,
      "v": 100
    },
    {
      "midi": 52,
      "hit": false,
      "t": 94670.70178125026,
      "d": 192.30737500000396,
      "v": 101
    },
    {
      "midi": 47,
      "hit": false,
      "t": 94670.70178125026,
      "d": 207.10025000000314,
      "v": 106
    },
    {
      "midi": 40,
      "hit": false,
      "t": 94796.44121875026,
      "d": 229.2895625000092,
      "v": 100
    },
    {
      "midi": 47,
      "hit": false,
      "t": 95025.73078125027,
      "d": 292.15928124998754,
      "v": 100
    },
    {
      "midi": 52,
      "hit": false,
      "t": 95025.73078125027,
      "d": 292.15928124998754,
      "v": 108
    },
    {
      "midi": 40,
      "hit": false,
      "t": 95144.07378125026,
      "d": 196.00559375000012,
      "v": 97
    },
    {
      "midi": 52,
      "hit": false,
      "t": 95495.40456250026,
      "d": 240.38421874999767,
      "v": 104
    },
    {
      "midi": 47,
      "hit": false,
      "t": 95499.10278125026,
      "d": 236.6860000000015,
      "v": 100
    },
    {
      "midi": 52,
      "hit": false,
      "t": 95854.13178125025,
      "d": 199.70381249999627,
      "v": 94
    },
    {
      "midi": 49,
      "hit": false,
      "t": 95854.13178125025,
      "d": 207.10025000000314,
      "v": 115
    },
    {
      "midi": 49,
      "hit": false,
      "t": 96205.46256250025,
      "d": 196.00559375000012,
      "v": 117
    },
    {
      "midi": 52,
      "hit": false,
      "t": 96205.46256250025,
      "d": 214.49668749999546,
      "v": 89
    },
    {
      "midi": 47,
      "hit": false,
      "t": 96564.18978125024,
      "d": 225.5913437499985,
      "v": 96
    },
    {
      "midi": 52,
      "hit": false,
      "t": 96564.18978125024,
      "d": 232.98778125000536,
      "v": 89
    },
    {
      "midi": 47,
      "hit": false,
      "t": 96919.21878125025,
      "d": 229.28956249999464,
      "v": 101
    },
    {
      "midi": 52,
      "hit": false,
      "t": 96919.21878125025,
      "d": 240.38421874999767,
      "v": 96
    },
    {
      "midi": 49,
      "hit": false,
      "t": 97274.24778125025,
      "d": 210.7984687499993,
      "v": 117
    },
    {
      "midi": 52,
      "hit": false,
      "t": 97274.24778125025,
      "d": 210.7984687499993,
      "v": 102
    },
    {
      "midi": 52,
      "hit": false,
      "t": 97629.27678125024,
      "d": 207.10025000000314,
      "v": 90
    },
    {
      "midi": 49,
      "hit": false,
      "t": 97629.27678125024,
      "d": 218.19490625000617,
      "v": 98
    },
    {
      "midi": 47,
      "hit": false,
      "t": 97984.30578125025,
      "d": 199.70381249999627,
      "v": 72
    },
    {
      "midi": 54,
      "hit": false,
      "t": 97984.30578125025,
      "d": 203.40203124999243,
      "v": 117
    },
    {
      "midi": 47,
      "hit": false,
      "t": 98335.63656250025,
      "d": 277.36640624998836,
      "v": 78
    },
    {
      "midi": 54,
      "hit": false,
      "t": 98339.33478125025,
      "d": 240.38421874999767,
      "v": 117
    },
    {
      "midi": 47,
      "hit": false,
      "t": 98694.36378125024,
      "d": 232.98778125000536,
      "v": 76
    },
    {
      "midi": 56,
      "hit": false,
      "t": 98698.06200000024,
      "d": 151.62696875000256,
      "v": 100
    },
    {
      "midi": 54,
      "hit": false,
      "t": 99049.39278125025,
      "d": 188.60915624999325,
      "v": 117
    },
    {
      "midi": 47,
      "hit": false,
      "t": 99049.39278125025,
      "d": 266.2717499999999,
      "v": 82
    },
    {
      "midi": 52,
      "hit": false,
      "t": 99404.42178125025,
      "d": 236.6860000000015,
      "v": 94
    },
    {
      "midi": 47,
      "hit": false,
      "t": 99408.12000000024,
      "d": 210.7984687499993,
      "v": 96
    },
    {
      "midi": 47,
      "hit": false,
      "t": 99759.45078125024,
      "d": 236.6860000000015,
      "v": 90
    },
    {
      "midi": 52,
      "hit": false,
      "t": 99759.45078125024,
      "d": 247.78065625000454,
      "v": 104
    },
    {
      "midi": 52,
      "hit": false,
      "t": 100114.47978125025,
      "d": 196.00559375000012,
      "v": 89
    },
    {
      "midi": 49,
      "hit": false,
      "t": 100114.47978125025,
      "d": 203.40203125000698,
      "v": 115
    },
    {
      "midi": 49,
      "hit": false,
      "t": 100465.81056250026,
      "d": 251.4788750000007,
      "v": 117
    },
    {
      "midi": 52,
      "hit": false,
      "t": 100469.50878125026,
      "d": 225.5913437499985,
      "v": 85
    },
    {
      "midi": 47,
      "hit": false,
      "t": 100824.53778125027,
      "d": 210.7984687499993,
      "v": 91
    },
    {
      "midi": 52,
      "hit": false,
      "t": 100824.53778125027,
      "d": 221.89312500000233,
      "v": 100
    },
    {
      "midi": 47,
      "hit": false,
      "t": 101179.56678125028,
      "d": 240.38421874999767,
      "v": 89
    },
    {
      "midi": 52,
      "hit": false,
      "t": 101179.56678125028,
      "d": 251.4788750000007,
      "v": 101
    },
    {
      "midi": 52,
      "hit": false,
      "t": 101538.29400000029,
      "d": 229.28956249999464,
      "v": 90
    },
    {
      "midi": 49,
      "hit": false,
      "t": 101538.29400000029,
      "d": 232.9877812499908,
      "v": 115
    },
    {
      "midi": 52,
      "hit": false,
      "t": 101885.92656250027,
      "d": 240.38421874999767,
      "v": 100
    },
    {
      "midi": 47,
      "hit": false,
      "t": 101885.92656250027,
      "d": 247.78065625000454,
      "v": 91
    },
    {
      "midi": 45,
      "hit": false,
      "t": 102248.35200000028,
      "d": 210.7984687499993,
      "v": 96
    },
    {
      "midi": 52,
      "hit": false,
      "t": 102248.35200000028,
      "d": 218.19490625000617,
      "v": 100
    },
    {
      "midi": 45,
      "hit": false,
      "t": 102595.98456250028,
      "d": 269.96996874999604,
      "v": 111
    },
    {
      "midi": 52,
      "hit": false,
      "t": 102599.68278125027,
      "d": 266.2717499999999,
      "v": 124
    },
    {
      "midi": 45,
      "hit": false,
      "t": 102954.71178125027,
      "d": 251.4788750000007,
      "v": 96
    },
    {
      "midi": 54,
      "hit": false,
      "t": 102954.71178125027,
      "d": 262.5735312500037,
      "v": 123
    },
    {
      "midi": 54,
      "hit": false,
      "t": 103309.74078125028,
      "d": 273.66818750000675,
      "v": 123
    },
    {
      "midi": 45,
      "hit": false,
      "t": 103309.74078125028,
      "d": 281.0646250000136,
      "v": 84
    },
    {
      "midi": 45,
      "hit": false,
      "t": 103664.76978125029,
      "d": 225.5913437499985,
      "v": 96
    },
    {
      "midi": 55,
      "hit": false,
      "t": 103664.76978125029,
      "d": 269.96996874999604,
      "v": 106
    },
    {
      "midi": 45,
      "hit": false,
      "t": 104019.79878125028,
      "d": 207.10025000000314,
      "v": 107
    },
    {
      "midi": 55,
      "hit": false,
      "t": 104019.79878125028,
      "d": 214.49668750001,
      "v": 96
    },
    {
      "midi": 45,
      "hit": false,
      "t": 104371.1295625003,
      "d": 51.775062500004424,
      "v": 77
    },
    {
      "midi": 54,
      "hit": false,
      "t": 104371.1295625003,
      "d": 92.45546875000582,
      "v": 113
    },
    {
      "midi": 55,
      "hit": false,
      "t": 104607.8155625003,
      "d": 173.81628125000861,
      "v": 103
    },
    {
      "midi": 52,
      "hit": false,
      "t": 104607.8155625003,
      "d": 314.34859375000815,
      "v": 116
    },
    {
      "midi": 47,
      "hit": false,
      "t": 104729.8567812503,
      "d": 181.21271875000093,
      "v": 94
    },
    {
      "midi": 41,
      "hit": false,
      "t": 104959.14634375031,
      "d": 125.73943750000035,
      "v": 92
    },
    {
      "midi": 55,
      "hit": false,
      "t": 105081.18756250032,
      "d": 251.4788750000007,
      "v": 118
    },
    {
      "midi": 52,
      "hit": false,
      "t": 105084.88578125031,
      "d": 258.87531250000757,
      "v": 118
    },
    {
      "midi": 52,
      "hit": false,
      "t": 105439.91478125032,
      "d": 225.5913437499985,
      "v": 89
    },
    {
      "midi": 49,
      "hit": false,
      "t": 105443.61300000032,
      "d": 203.40203125000698,
      "v": 115
    },
    {
      "midi": 50,
      "hit": false,
      "t": 105794.94378125032,
      "d": 266.2717499999999,
      "v": 104
    },
    {
      "midi": 52,
      "hit": false,
      "t": 105794.94378125032,
      "d": 288.46106250000594,
      "v": 110
    },
    {
      "midi": 50,
      "hit": false,
      "t": 106149.97278125033,
      "d": 147.9287500000064,
      "v": 111
    },
    {
      "midi": 52,
      "hit": false,
      "t": 106149.97278125033,
      "d": 232.98778125000536,
      "v": 94
    },
    {
      "midi": 52,
      "hit": false,
      "t": 106505.00178125034,
      "d": 255.17709374999686,
      "v": 103
    },
    {
      "midi": 49,
      "hit": false,
      "t": 106505.00178125034,
      "d": 258.875312499993,
      "v": 118
    },
    {
      "midi": 49,
      "hit": false,
      "t": 106860.03078125033,
      "d": 207.10025000000314,
      "v": 113
    },
    {
      "midi": 52,
      "hit": false,
      "t": 106860.03078125033,
      "d": 251.4788750000007,
      "v": 108
    },
    {
      "midi": 52,
      "hit": false,
      "t": 107211.36156250033,
      "d": 144.2305312499957,
      "v": 89
    },
    {
      "midi": 50,
      "hit": false,
      "t": 107211.36156250033,
      "d": 151.62696875000256,
      "v": 105
    },
    {
      "midi": 47,
      "hit": false,
      "t": 107451.74578125033,
      "d": 177.51450000000477,
      "v": 101
    },
    {
      "midi": 52,
      "hit": false,
      "t": 107451.74578125033,
      "d": 203.40203125000698,
      "v": 108
    },
    {
      "midi": 40,
      "hit": false,
      "t": 107577.48521875033,
      "d": 203.40203125000698,
      "v": 107
    },
    {
      "midi": 54,
      "hit": false,
      "t": 107806.77478125034,
      "d": 284.7628437499952,
      "v": 101
    },
    {
      "midi": 49,
      "hit": false,
      "t": 107806.77478125034,
      "d": 318.04681249998976,
      "v": 100
    },
    {
      "midi": 42,
      "hit": false,
      "t": 107925.11778125033,
      "d": 203.40203124999243,
      "v": 113
    },
    {
      "midi": 49,
      "hit": false,
      "t": 108280.14678125033,
      "d": 184.9109374999971,
      "v": 101
    },
    {
      "midi": 54,
      "hit": false,
      "t": 108280.14678125033,
      "d": 229.28956249999464,
      "v": 109
    },
    {
      "midi": 54,
      "hit": false,
      "t": 108635.17578125032,
      "d": 232.98778125000536,
      "v": 95
    },
    {
      "midi": 51,
      "hit": false,
      "t": 108635.17578125032,
      "d": 244.08243750000838,
      "v": 115
    },
    {
      "midi": 54,
      "hit": false,
      "t": 108990.20478125033,
      "d": 225.5913437499985,
      "v": 101
    },
    {
      "midi": 51,
      "hit": false,
      "t": 108990.20478125033,
      "d": 247.78065625000454,
      "v": 109
    },
    {
      "midi": 49,
      "hit": false,
      "t": 109345.23378125034,
      "d": 225.5913437499985,
      "v": 98
    },
    {
      "midi": 54,
      "hit": false,
      "t": 109345.23378125034,
      "d": 236.6860000000015,
      "v": 98
    },
    {
      "midi": 49,
      "hit": false,
      "t": 109696.56456250034,
      "d": 207.10025000000314,
      "v": 98
    },
    {
      "midi": 54,
      "hit": false,
      "t": 109696.56456250034,
      "d": 214.49668750001,
      "v": 95
    },
    {
      "midi": 51,
      "hit": false,
      "t": 110051.59356250035,
      "d": 199.70381249999627,
      "v": 113
    },
    {
      "midi": 54,
      "hit": false,
      "t": 110055.29178125034,
      "d": 203.40203125000698,
      "v": 95
    },
    {
      "midi": 51,
      "hit": false,
      "t": 110410.32078125035,
      "d": 225.5913437499985,
      "v": 113
    },
    {
      "midi": 54,
      "hit": false,
      "t": 110410.32078125035,
      "d": 229.28956249999464,
      "v": 103
    },
    {
      "midi": 54,
      "hit": false,
      "t": 110769.04800000034,
      "d": 236.68599999998696,
      "v": 117
    },
    {
      "midi": 47,
      "hit": false,
      "t": 110772.74621875034,
      "d": 229.28956249999464,
      "v": 89
    },
    {
      "midi": 56,
      "hit": false,
      "t": 111120.37878125033,
      "d": 229.28956249999464,
      "v": 111
    },
    {
      "midi": 47,
      "hit": false,
      "t": 111120.37878125033,
      "d": 251.4788750000007,
      "v": 71
    },
    {
      "midi": 57,
      "hit": false,
      "t": 111475.40778125032,
      "d": 199.70381249999627,
      "v": 118
    },
    {
      "midi": 47,
      "hit": false,
      "t": 111475.40778125032,
      "d": 229.28956249999464,
      "v": 81
    },
    {
      "midi": 56,
      "hit": false,
      "t": 111826.73856250032,
      "d": 181.21271875000093,
      "v": 117
    },
    {
      "midi": 47,
      "hit": false,
      "t": 111826.73856250032,
      "d": 255.17709374999686,
      "v": 77
    },
    {
      "midi": 47,
      "hit": false,
      "t": 112189.16400000032,
      "d": 980.0279687500006,
      "v": 96
    },
    {
      "midi": 54,
      "hit": false,
      "t": 112189.16400000032,
      "d": 994.8208437499998,
      "v": 127
    },
    {
      "midi": 47,
      "hit": false,
      "t": 115033.09421875032,
      "d": 225.5913437499985,
      "v": 97
    },
    {
      "midi": 52,
      "hit": false,
      "t": 115033.09421875032,
      "d": 236.6860000000015,
      "v": 108
    },
    {
      "midi": 47,
      "hit": false,
      "t": 115388.12321875032,
      "d": 214.49668749999546,
      "v": 96
    },
    {
      "midi": 52,
      "hit": false,
      "t": 115388.12321875032,
      "d": 247.78065624999,
      "v": 101
    },
    {
      "midi": 52,
      "hit": false,
      "t": 115735.75578125031,
      "d": 210.7984687499993,
      "v": 99
    },
    {
      "midi": 49,
      "hit": false,
      "t": 115735.75578125031,
      "d": 221.89312500000233,
      "v": 117
    },
    {
      "midi": 52,
      "hit": false,
      "t": 116090.78478125032,
      "d": 255.17709374999686,
      "v": 100
    },
    {
      "midi": 49,
      "hit": false,
      "t": 116090.78478125032,
      "d": 258.875312499993,
      "v": 115
    },
    {
      "midi": 47,
      "hit": false,
      "t": 116445.81378125031,
      "d": 229.28956249999464,
      "v": 97
    },
    {
      "midi": 52,
      "hit": false,
      "t": 116445.81378125031,
      "d": 266.2717499999999,
      "v": 99
    },
    {
      "midi": 47,
      "hit": false,
      "t": 116808.23921875031,
      "d": 199.70381249999627,
      "v": 102
    },
    {
      "midi": 52,
      "hit": false,
      "t": 116808.23921875031,
      "d": 251.4788750000007,
      "v": 101
    },
    {
      "midi": 49,
      "hit": false,
      "t": 117155.87178125032,
      "d": 244.08243750000838,
      "v": 115
    },
    {
      "midi": 52,
      "hit": false,
      "t": 117163.26821875032,
      "d": 218.19490625000617,
      "v": 96
    },
    {
      "midi": 47,
      "hit": false,
      "t": 117510.90078125033,
      "d": 232.98778125000536,
      "v": 104
    },
    {
      "midi": 52,
      "hit": false,
      "t": 117510.90078125033,
      "d": 262.5735312500037,
      "v": 102
    },
    {
      "midi": 45,
      "hit": false,
      "t": 117865.92978125034,
      "d": 247.78065625000454,
      "v": 102
    },
    {
      "midi": 52,
      "hit": false,
      "t": 117865.92978125034,
      "d": 266.2717499999999,
      "v": 102
    },
    {
      "midi": 45,
      "hit": false,
      "t": 118220.95878125033,
      "d": 266.2717499999999,
      "v": 106
    },
    {
      "midi": 52,
      "hit": false,
      "t": 118220.95878125033,
      "d": 281.06462499999907,
      "v": 104
    },
    {
      "midi": 54,
      "hit": false,
      "t": 118583.38421875033,
      "d": 166.41984375000175,
      "v": 101
    },
    {
      "midi": 45,
      "hit": false,
      "t": 118583.38421875033,
      "d": 181.21271875000093,
      "v": 70
    },
    {
      "midi": 54,
      "hit": false,
      "t": 118931.01678125034,
      "d": 236.6860000000015,
      "v": 103
    },
    {
      "midi": 45,
      "hit": false,
      "t": 118931.01678125034,
      "d": 258.87531250000757,
      "v": 97
    },
    {
      "midi": 47,
      "hit": false,
      "t": 119286.04578125034,
      "d": 221.89312500000233,
      "v": 91
    },
    {
      "midi": 52,
      "hit": false,
      "t": 119286.04578125034,
      "d": 244.08243750000838,
      "v": 89
    },
    {
      "midi": 47,
      "hit": false,
      "t": 119641.07478125035,
      "d": 269.96996874999604,
      "v": 97
    },
    {
      "midi": 52,
      "hit": false,
      "t": 119641.07478125035,
      "d": 277.3664062500029,
      "v": 102
    },
    {
      "midi": 52,
      "hit": false,
      "t": 120003.50021875036,
      "d": 166.41984375000175,
      "v": 86
    },
    {
      "midi": 49,
      "hit": false,
      "t": 120003.50021875036,
      "d": 203.40203125000698,
      "v": 115
    },
    {
      "midi": 52,
      "hit": false,
      "t": 120347.43456250036,
      "d": 251.4788750000007,
      "v": 99
    },
    {
      "midi": 49,
      "hit": false,
      "t": 120351.13278125036,
      "d": 251.4788750000007,
      "v": 111
    },
    {
      "midi": 47,
      "hit": false,
      "t": 120706.16178125035,
      "d": 218.19490625000617,
      "v": 91
    },
    {
      "midi": 52,
      "hit": false,
      "t": 120706.16178125035,
      "d": 247.78065625000454,
      "v": 99
    },
    {
      "midi": 47,
      "hit": false,
      "t": 121061.19078125036,
      "d": 229.28956249999464,
      "v": 93
    },
    {
      "midi": 52,
      "hit": false,
      "t": 121061.19078125036,
      "d": 266.2717499999999,
      "v": 100
    },
    {
      "midi": 52,
      "hit": false,
      "t": 121416.21978125036,
      "d": 221.89312500000233,
      "v": 100
    },
    {
      "midi": 49,
      "hit": false,
      "t": 121416.21978125036,
      "d": 232.98778125000536,
      "v": 113
    },
    {
      "midi": 47,
      "hit": false,
      "t": 121771.24878125037,
      "d": 236.6860000000015,
      "v": 96
    },
    {
      "midi": 52,
      "hit": false,
      "t": 121771.24878125037,
      "d": 251.4788750000007,
      "v": 100
    },
    {
      "midi": 54,
      "hit": false,
      "t": 122126.27778125036,
      "d": 236.6860000000015,
      "v": 109
    },
    {
      "midi": 47,
      "hit": false,
      "t": 122126.27778125036,
      "d": 240.38421874999767,
      "v": 89
    },
    {
      "midi": 47,
      "hit": false,
      "t": 122481.30678125036,
      "d": 255.17709374999686,
      "v": 96
    },
    {
      "midi": 54,
      "hit": false,
      "t": 122481.30678125036,
      "d": 262.5735312500037,
      "v": 107
    },
    {
      "midi": 56,
      "hit": false,
      "t": 122836.33578125037,
      "d": 192.3073749999894,
      "v": 107
    },
    {
      "midi": 47,
      "hit": false,
      "t": 122840.03400000036,
      "d": 225.5913437499985,
      "v": 71
    },
    {
      "midi": 54,
      "hit": false,
      "t": 123187.66656250037,
      "d": 203.40203124999243,
      "v": 115
    },
    {
      "midi": 47,
      "hit": false,
      "t": 123191.36478125036,
      "d": 258.875312499993,
      "v": 90
    },
    {
      "midi": 47,
      "hit": false,
      "t": 123546.39378125036,
      "d": 247.78065625000454,
      "v": 84
    },
    {
      "midi": 52,
      "hit": false,
      "t": 123546.39378125036,
      "d": 251.4788750000007,
      "v": 107
    },
    {
      "midi": 47,
      "hit": false,
      "t": 123901.42278125035,
      "d": 247.78065625000454,
      "v": 89
    },
    {
      "midi": 52,
      "hit": false,
      "t": 123901.42278125035,
      "d": 255.1770937500114,
      "v": 103
    },
    {
      "midi": 49,
      "hit": false,
      "t": 124256.45178125036,
      "d": 218.19490625002072,
      "v": 98
    },
    {
      "midi": 52,
      "hit": false,
      "t": 124263.84821875037,
      "d": 203.40203125000698,
      "v": 89
    },
    {
      "midi": 49,
      "hit": false,
      "t": 124607.78256250039,
      "d": 277.3664062500029,
      "v": 117
    },
    {
      "midi": 52,
      "hit": false,
      "t": 124607.78256250039,
      "d": 277.3664062500029,
      "v": 101
    },
    {
      "midi": 47,
      "hit": false,
      "t": 124973.90621875039,
      "d": 225.5913437499985,
      "v": 89
    },
    {
      "midi": 52,
      "hit": false,
      "t": 124973.90621875039,
      "d": 240.38421874999767,
      "v": 102
    },
    {
      "midi": 47,
      "hit": false,
      "t": 125321.53878125039,
      "d": 247.78065625000454,
      "v": 91
    },
    {
      "midi": 52,
      "hit": false,
      "t": 125321.53878125039,
      "d": 273.66818750000675,
      "v": 102
    },
    {
      "midi": 52,
      "hit": false,
      "t": 125683.96421875039,
      "d": 207.10025000000314,
      "v": 95
    },
    {
      "midi": 49,
      "hit": false,
      "t": 125683.96421875039,
      "d": 229.2895625000092,
      "v": 113
    },
    {
      "midi": 47,
      "hit": false,
      "t": 126031.5967812504,
      "d": 240.38421874999767,
      "v": 92
    },
    {
      "midi": 52,
      "hit": false,
      "t": 126035.29500000039,
      "d": 221.89312500000233,
      "v": 101
    },
    {
      "midi": 47,
      "hit": false,
      "t": 126382.9275625004,
      "d": 281.0646249999845,
      "v": 93
    },
    {
      "midi": 52,
      "hit": false,
      "t": 126386.62578125039,
      "d": 258.875312499993,
      "v": 99
    },
    {
      "midi": 52,
      "hit": false,
      "t": 126741.65478125038,
      "d": 255.17709374999686,
      "v": 104
    },
    {
      "midi": 47,
      "hit": false,
      "t": 126741.65478125038,
      "d": 258.875312499993,
      "v": 89
    },
    {
      "midi": 47,
      "hit": false,
      "t": 127096.68378125038,
      "d": 232.98778125000536,
      "v": 115
    },
    {
      "midi": 50,
      "hit": false,
      "t": 127096.68378125038,
      "d": 232.98778125000536,
      "v": 97
    },
    {
      "midi": 50,
      "hit": false,
      "t": 127451.71278125039,
      "d": 236.6860000000015,
      "v": 93
    },
    {
      "midi": 47,
      "hit": false,
      "t": 127451.71278125039,
      "d": 258.87531250000757,
      "v": 117
    },
    {
      "midi": 47,
      "hit": false,
      "t": 127803.0435625004,
      "d": 244.08243749999383,
      "v": 93
    },
    {
      "midi": 52,
      "hit": false,
      "t": 127803.0435625004,
      "d": 262.5735312499892,
      "v": 101
    },
    {
      "midi": 47,
      "hit": false,
      "t": 128161.7707812504,
      "d": 232.98778125000536,
      "v": 96
    },
    {
      "midi": 52,
      "hit": false,
      "t": 128161.7707812504,
      "d": 269.9699687500106,
      "v": 97
    },
    {
      "midi": 52,
      "hit": false,
      "t": 128524.19621875041,
      "d": 218.19490625000617,
      "v": 96
    },
    {
      "midi": 49,
      "hit": false,
      "t": 128524.19621875041,
      "d": 236.6860000000015,
      "v": 113
    },
    {
      "midi": 47,
      "hit": false,
      "t": 128871.82878125041,
      "d": 236.6860000000015,
      "v": 92
    },
    {
      "midi": 52,
      "hit": false,
      "t": 128871.82878125041,
      "d": 251.4788750000007,
      "v": 104
    },
    {
      "midi": 45,
      "hit": false,
      "t": 129226.85778125041,
      "d": 258.875312499993,
      "v": 95
    },
    {
      "midi": 52,
      "hit": false,
      "t": 129226.85778125041,
      "d": 273.6681874999922,
      "v": 100
    },
    {
      "midi": 52,
      "hit": false,
      "t": 129581.8867812504,
      "d": 255.17709374999686,
      "v": 103
    },
    {
      "midi": 45,
      "hit": false,
      "t": 129581.8867812504,
      "d": 284.7628437499952,
      "v": 97
    },
    {
      "midi": 54,
      "hit": false,
      "t": 129936.9157812504,
      "d": 210.7984687499993,
      "v": 107
    },
    {
      "midi": 45,
      "hit": false,
      "t": 129936.9157812504,
      "d": 240.38421874999767,
      "v": 80
    },
    {
      "midi": 54,
      "hit": false,
      "t": 130291.9447812504,
      "d": 218.19490625000617,
      "v": 103
    },
    {
      "midi": 45,
      "hit": false,
      "t": 130291.9447812504,
      "d": 247.78065625000454,
      "v": 96
    },
    {
      "midi": 47,
      "hit": false,
      "t": 130646.9737812504,
      "d": 225.5913437499985,
      "v": 101
    },
    {
      "midi": 52,
      "hit": false,
      "t": 130646.9737812504,
      "d": 247.78065625000454,
      "v": 99
    },
    {
      "midi": 47,
      "hit": false,
      "t": 131002.00278125041,
      "d": 251.47887499998615,
      "v": 94
    },
    {
      "midi": 52,
      "hit": false,
      "t": 131002.00278125041,
      "d": 255.17709374999686,
      "v": 96
    },
    {
      "midi": 49,
      "hit": false,
      "t": 131357.0317812504,
      "d": 232.98778125000536,
      "v": 109
    },
    {
      "midi": 52,
      "hit": false,
      "t": 131357.0317812504,
      "d": 244.08243750000838,
      "v": 90
    },
    {
      "midi": 52,
      "hit": false,
      "t": 131712.06078125042,
      "d": 262.5735312500037,
      "v": 94
    },
    {
      "midi": 49,
      "hit": false,
      "t": 131712.06078125042,
      "d": 266.27175000001444,
      "v": 111
    },
    {
      "midi": 47,
      "hit": false,
      "t": 132063.39156250044,
      "d": 236.68599999998696,
      "v": 93
    },
    {
      "midi": 52,
      "hit": false,
      "t": 132063.39156250044,
      "d": 255.1770937499823,
      "v": 96
    },
    {
      "midi": 47,
      "hit": false,
      "t": 132422.11878125044,
      "d": 236.68599999998696,
      "v": 96
    },
    {
      "midi": 52,
      "hit": false,
      "t": 132422.11878125044,
      "d": 262.5735312499746,
      "v": 101
    },
    {
      "midi": 52,
      "hit": false,
      "t": 132777.14778125042,
      "d": 218.19490624999162,
      "v": 93
    },
    {
      "midi": 49,
      "hit": false,
      "t": 132777.14778125042,
      "d": 236.68599999998696,
      "v": 107
    },
    {
      "midi": 52,
      "hit": false,
      "t": 133132.1767812504,
      "d": 236.68599999998696,
      "v": 96
    },
    {
      "midi": 47,
      "hit": false,
      "t": 133132.1767812504,
      "d": 266.27174999998533,
      "v": 95
    },
    {
      "midi": 47,
      "hit": false,
      "t": 133483.5075625004,
      "d": 225.59134375001304,
      "v": 80
    },
    {
      "midi": 54,
      "hit": false,
      "t": 133487.2057812504,
      "d": 221.89312500000233,
      "v": 100
    },
    {
      "midi": 47,
      "hit": false,
      "t": 133842.23478125042,
      "d": 277.36640624998836,
      "v": 91
    },
    {
      "midi": 54,
      "hit": false,
      "t": 133842.23478125042,
      "d": 284.7628437499807,
      "v": 109
    },
    {
      "midi": 56,
      "hit": false,
      "t": 134197.2637812504,
      "d": 196.00559374998556,
      "v": 107
    },
    {
      "midi": 47,
      "hit": false,
      "t": 134197.2637812504,
      "d": 244.08243749997928,
      "v": 76
    },
    {
      "midi": 54,
      "hit": false,
      "t": 134548.59456250037,
      "d": 210.7984687499993,
      "v": 101
    },
    {
      "midi": 47,
      "hit": false,
      "t": 134552.29278125038,
      "d": 244.08243749997928,
      "v": 88
    },
    {
      "midi": 56,
      "hit": false,
      "t": 134899.92534375036,
      "d": 1486.6839374999981,
      "v": 123
    },
    {
      "midi": 52,
      "hit": false,
      "t": 134899.92534375036,
      "d": 1516.2696874999965,
      "v": 113
    },
    {
      "midi": 67,
      "hit": false,
      "t": 135262.35078125037,
      "d": 377.2183124999865,
      "v": 124
    },
    {
      "midi": 62,
      "hit": false,
      "t": 135262.35078125037,
      "d": 417.8987187499879,
      "v": 127
    },
    {
      "midi": 59,
      "hit": false,
      "t": 135846.66934375034,
      "d": 329.1414687499928,
      "v": 122
    },
    {
      "midi": 64,
      "hit": false,
      "t": 135846.66934375034,
      "d": 329.1414687499928,
      "v": 116
    },
    {
      "midi": 64,
      "hit": false,
      "t": 136320.04134375034,
      "d": 203.40203125000698,
      "v": 80
    },
    {
      "midi": 59,
      "hit": false,
      "t": 136323.73956250036,
      "d": 170.1180624999979,
      "v": 76
    },
    {
      "midi": 59,
      "hit": false,
      "t": 136693.56143750035,
      "d": 207.1002499999886,
      "v": 116
    },
    {
      "midi": 64,
      "hit": false,
      "t": 136693.56143750035,
      "d": 210.7984687499993,
      "v": 116
    },
    {
      "midi": 61,
      "hit": false,
      "t": 137048.59043750036,
      "d": 199.70381249999627,
      "v": 103
    },
    {
      "midi": 64,
      "hit": false,
      "t": 137048.59043750036,
      "d": 229.28956249999464,
      "v": 97
    },
    {
      "midi": 61,
      "hit": false,
      "t": 137407.31765625035,
      "d": 192.30737500000396,
      "v": 127
    },
    {
      "midi": 64,
      "hit": false,
      "t": 137407.31765625035,
      "d": 192.30737500000396,
      "v": 122
    },
    {
      "midi": 45,
      "hit": false,
      "t": 137769.74309375035,
      "d": 210.7984687499993,
      "v": 96
    },
    {
      "midi": 52,
      "hit": false,
      "t": 137769.74309375035,
      "d": 218.19490624999162,
      "v": 100
    },
    {
      "midi": 45,
      "hit": false,
      "t": 138117.37565625034,
      "d": 269.96996875002515,
      "v": 111
    },
    {
      "midi": 52,
      "hit": false,
      "t": 138121.07387500035,
      "d": 266.27175000001444,
      "v": 124
    },
    {
      "midi": 45,
      "hit": false,
      "t": 138476.10287500036,
      "d": 251.4788750000007,
      "v": 96
    },
    {
      "midi": 54,
      "hit": false,
      "t": 138476.10287500036,
      "d": 262.5735312500037,
      "v": 123
    },
    {
      "midi": 54,
      "hit": false,
      "t": 138831.13187500037,
      "d": 273.66818750000675,
      "v": 123
    },
    {
      "midi": 45,
      "hit": false,
      "t": 138831.13187500037,
      "d": 281.06462499999907,
      "v": 84
    },
    {
      "midi": 45,
      "hit": false,
      "t": 139186.16087500038,
      "d": 225.59134375001304,
      "v": 96
    },
    {
      "midi": 55,
      "hit": false,
      "t": 139186.16087500038,
      "d": 269.96996875002515,
      "v": 106
    },
    {
      "midi": 45,
      "hit": false,
      "t": 139541.18987500042,
      "d": 207.1002499999886,
      "v": 107
    },
    {
      "midi": 55,
      "hit": false,
      "t": 139541.18987500042,
      "d": 214.4966874999809,
      "v": 96
    },
    {
      "midi": 45,
      "hit": false,
      "t": 139892.5206562504,
      "d": 51.775062500004424,
      "v": 77
    },
    {
      "midi": 54,
      "hit": false,
      "t": 139892.5206562504,
      "d": 92.45546875000582,
      "v": 113
    },
    {
      "midi": 55,
      "hit": false,
      "t": 140129.2066562504,
      "d": 173.81628125000861,
      "v": 103
    },
    {
      "midi": 52,
      "hit": false,
      "t": 140129.2066562504,
      "d": 314.34859375000815,
      "v": 116
    },
    {
      "midi": 47,
      "hit": false,
      "t": 140251.2478750004,
      "d": 181.21271875000093,
      "v": 94
    },
    {
      "midi": 41,
      "hit": false,
      "t": 140480.5374375004,
      "d": 125.7394375000149,
      "v": 92
    },
    {
      "midi": 55,
      "hit": false,
      "t": 140602.5786562504,
      "d": 251.4788750000007,
      "v": 118
    },
    {
      "midi": 52,
      "hit": false,
      "t": 140606.27687500042,
      "d": 258.875312499993,
      "v": 118
    },
    {
      "midi": 52,
      "hit": false,
      "t": 140961.3058750004,
      "d": 225.59134375001304,
      "v": 89
    },
    {
      "midi": 49,
      "hit": false,
      "t": 140965.0040937504,
      "d": 203.40203125000698,
      "v": 115
    },
    {
      "midi": 50,
      "hit": false,
      "t": 141316.3348750004,
      "d": 266.27175000001444,
      "v": 104
    },
    {
      "midi": 52,
      "hit": false,
      "t": 141316.3348750004,
      "d": 288.4610625000205,
      "v": 110
    },
    {
      "midi": 50,
      "hit": false,
      "t": 141671.36387500042,
      "d": 147.92874999999185,
      "v": 111
    },
    {
      "midi": 52,
      "hit": false,
      "t": 141671.36387500042,
      "d": 232.98778125000536,
      "v": 94
    },
    {
      "midi": 52,
      "hit": false,
      "t": 142026.39287500043,
      "d": 255.1770937500114,
      "v": 103
    },
    {
      "midi": 49,
      "hit": false,
      "t": 142026.39287500043,
      "d": 258.8753125000221,
      "v": 118
    },
    {
      "midi": 49,
      "hit": false,
      "t": 142381.42187500044,
      "d": 207.1002499999886,
      "v": 113
    },
    {
      "midi": 52,
      "hit": false,
      "t": 142381.42187500044,
      "d": 251.4788750000007,
      "v": 108
    },
    {
      "midi": 52,
      "hit": false,
      "t": 142732.75265625044,
      "d": 144.23053125001024,
      "v": 89
    },
    {
      "midi": 50,
      "hit": false,
      "t": 142732.75265625044,
      "d": 151.62696875000256,
      "v": 105
    },
    {
      "midi": 47,
      "hit": false,
      "t": 142973.13687500043,
      "d": 177.51449999999022,
      "v": 101
    },
    {
      "midi": 52,
      "hit": false,
      "t": 142973.13687500043,
      "d": 203.40203124997788,
      "v": 108
    },
    {
      "midi": 40,
      "hit": false,
      "t": 143098.87631250042,
      "d": 203.40203124997788,
      "v": 107
    },
    {
      "midi": 54,
      "hit": false,
      "t": 143328.16587500038,
      "d": 284.7628437499807,
      "v": 101
    },
    {
      "midi": 49,
      "hit": false,
      "t": 143328.16587500038,
      "d": 318.04681249998976,
      "v": 100
    },
    {
      "midi": 42,
      "hit": false,
      "t": 143446.50887500038,
      "d": 203.40203125000698,
      "v": 113
    },
    {
      "midi": 49,
      "hit": false,
      "t": 143801.5378750004,
      "d": 184.91093750001164,
      "v": 101
    },
    {
      "midi": 54,
      "hit": false,
      "t": 143801.5378750004,
      "d": 229.28956250002375,
      "v": 109
    },
    {
      "midi": 54,
      "hit": false,
      "t": 144156.5668750004,
      "d": 232.98778125000536,
      "v": 95
    },
    {
      "midi": 51,
      "hit": false,
      "t": 144156.5668750004,
      "d": 244.08243750000838,
      "v": 115
    },
    {
      "midi": 54,
      "hit": false,
      "t": 144511.5958750004,
      "d": 225.59134375001304,
      "v": 101
    },
    {
      "midi": 51,
      "hit": false,
      "t": 144511.5958750004,
      "d": 247.7806562500191,
      "v": 109
    },
    {
      "midi": 49,
      "hit": false,
      "t": 144866.62487500042,
      "d": 225.59134375001304,
      "v": 98
    },
    {
      "midi": 54,
      "hit": false,
      "t": 144866.62487500042,
      "d": 236.68600000001607,
      "v": 98
    },
    {
      "midi": 49,
      "hit": false,
      "t": 145217.95565625044,
      "d": 207.1002499999886,
      "v": 98
    },
    {
      "midi": 54,
      "hit": false,
      "t": 145217.95565625044,
      "d": 214.4966874999809,
      "v": 95
    },
    {
      "midi": 51,
      "hit": false,
      "t": 145572.98465625042,
      "d": 199.70381249999627,
      "v": 113
    },
    {
      "midi": 54,
      "hit": false,
      "t": 145576.68287500044,
      "d": 203.40203124997788,
      "v": 95
    },
    {
      "midi": 51,
      "hit": false,
      "t": 145931.71187500042,
      "d": 225.59134375001304,
      "v": 113
    },
    {
      "midi": 54,
      "hit": false,
      "t": 145931.71187500042,
      "d": 229.28956250002375,
      "v": 103
    },
    {
      "midi": 54,
      "hit": false,
      "t": 146290.43909375044,
      "d": 236.68600000001607,
      "v": 117
    },
    {
      "midi": 47,
      "hit": false,
      "t": 146294.13731250045,
      "d": 229.28956249999464,
      "v": 89
    },
    {
      "midi": 56,
      "hit": false,
      "t": 146641.76987500046,
      "d": 229.28956249999464,
      "v": 111
    },
    {
      "midi": 47,
      "hit": false,
      "t": 146641.76987500046,
      "d": 251.4788750000007,
      "v": 71
    },
    {
      "midi": 57,
      "hit": false,
      "t": 146996.79887500047,
      "d": 199.70381249999627,
      "v": 118
    },
    {
      "midi": 47,
      "hit": false,
      "t": 146996.79887500047,
      "d": 229.28956249999464,
      "v": 81
    },
    {
      "midi": 56,
      "hit": false,
      "t": 147348.12965625047,
      "d": 181.21271875000093,
      "v": 117
    },
    {
      "midi": 47,
      "hit": false,
      "t": 147348.12965625047,
      "d": 255.1770937500114,
      "v": 77
    },
    {
      "midi": 47,
      "hit": false,
      "t": 147710.55509375047,
      "d": 980.027968749986,
      "v": 96
    },
    {
      "midi": 54,
      "hit": false,
      "t": 147710.55509375047,
      "d": 994.8208437499998,
      "v": 127
    },
    {
      "midi": 80,
      "hit": false,
      "t": 150550.78709375046,
      "d": 181.21271875000093,
      "v": 84
    },
    {
      "midi": 76,
      "hit": false,
      "t": 150550.78709375046,
      "d": 196.00559375001467,
      "v": 89
    },
    {
      "midi": 88,
      "hit": false,
      "t": 150554.48531250047,
      "d": 188.60915624999325,
      "v": 96
    },
    {
      "midi": 88,
      "hit": false,
      "t": 150902.1178750005,
      "d": 192.30737500000396,
      "v": 106
    },
    {
      "midi": 80,
      "hit": false,
      "t": 150902.1178750005,
      "d": 210.7984687499993,
      "v": 105
    },
    {
      "midi": 76,
      "hit": false,
      "t": 150902.1178750005,
      "d": 225.59134375001304,
      "v": 104
    },
    {
      "midi": 86,
      "hit": false,
      "t": 151253.4486562505,
      "d": 207.1002500000177,
      "v": 87
    },
    {
      "midi": 80,
      "hit": false,
      "t": 151257.1468750005,
      "d": 181.21271875000093,
      "v": 76
    },
    {
      "midi": 76,
      "hit": false,
      "t": 151257.1468750005,
      "d": 203.40203125000698,
      "v": 90
    },
    {
      "midi": 80,
      "hit": false,
      "t": 151608.4776562505,
      "d": 203.40203125000698,
      "v": 107
    },
    {
      "midi": 86,
      "hit": false,
      "t": 151608.4776562505,
      "d": 210.7984687499993,
      "v": 102
    },
    {
      "midi": 76,
      "hit": false,
      "t": 151608.4776562505,
      "d": 218.19490624999162,
      "v": 107
    },
    {
      "midi": 80,
      "hit": false,
      "t": 151967.2048750005,
      "d": 159.02340624999488,
      "v": 83
    },
    {
      "midi": 76,
      "hit": false,
      "t": 151967.2048750005,
      "d": 184.91093749998254,
      "v": 86
    },
    {
      "midi": 83,
      "hit": false,
      "t": 151967.2048750005,
      "d": 188.60915624999325,
      "v": 88
    },
    {
      "midi": 76,
      "hit": false,
      "t": 152318.5356562505,
      "d": 355.02900000000955,
      "v": 97
    },
    {
      "midi": 80,
      "hit": false,
      "t": 152318.5356562505,
      "d": 355.02900000000955,
      "v": 113
    },
    {
      "midi": 83,
      "hit": false,
      "t": 152318.5356562505,
      "d": 369.8218750000233,
      "v": 104
    },
    {
      "midi": 52,
      "hit": false,
      "t": 152677.2628750005,
      "d": 306.95215625001583,
      "v": 110
    },
    {
      "midi": 69,
      "hit": false,
      "t": 152910.25065625052,
      "d": 347.63256250001723,
      "v": 106
    },
    {
      "midi": 64,
      "hit": false,
      "t": 152910.25065625052,
      "d": 351.33078125002794,
      "v": 120
    },
    {
      "midi": 52,
      "hit": false,
      "t": 153265.27965625055,
      "d": 129.4376562499965,
      "v": 114
    },
    {
      "midi": 64,
      "hit": false,
      "t": 153387.32087500056,
      "d": 203.40203124997788,
      "v": 116
    },
    {
      "midi": 69,
      "hit": false,
      "t": 153387.32087500056,
      "d": 207.1002499999886,
      "v": 103
    },
    {
      "midi": 74,
      "hit": false,
      "t": 153387.32087500056,
      "d": 207.1002499999886,
      "v": 116
    },
    {
      "midi": 64,
      "hit": false,
      "t": 153738.65165625056,
      "d": 244.08243750000838,
      "v": 117
    },
    {
      "midi": 74,
      "hit": false,
      "t": 153738.65165625056,
      "d": 247.7806562500191,
      "v": 116
    },
    {
      "midi": 69,
      "hit": false,
      "t": 153738.65165625056,
      "d": 258.8753125000221,
      "v": 110
    },
    {
      "midi": 64,
      "hit": false,
      "t": 154097.37887500058,
      "d": 196.00559374998556,
      "v": 108
    },
    {
      "midi": 69,
      "hit": false,
      "t": 154097.37887500058,
      "d": 203.40203124997788,
      "v": 101
    },
    {
      "midi": 73,
      "hit": false,
      "t": 154097.37887500058,
      "d": 207.1002499999886,
      "v": 111
    },
    {
      "midi": 69,
      "hit": false,
      "t": 154452.40787500056,
      "d": 181.21271875000093,
      "v": 108
    },
    {
      "midi": 64,
      "hit": false,
      "t": 154452.40787500056,
      "d": 203.40203125000698,
      "v": 111
    },
    {
      "midi": 73,
      "hit": false,
      "t": 154452.40787500056,
      "d": 218.19490625002072,
      "v": 111
    },
    {
      "midi": 52,
      "hit": false,
      "t": 154692.79209375058,
      "d": 99.85190624999814,
      "v": 95
    },
    {
      "midi": 64,
      "hit": false,
      "t": 154807.4368750006,
      "d": 565.8274687500088,
      "v": 106
    },
    {
      "midi": 68,
      "hit": false,
      "t": 154807.4368750006,
      "d": 580.6203437500226,
      "v": 113
    },
    {
      "midi": 71,
      "hit": false,
      "t": 154807.4368750006,
      "d": 588.0167812500149,
      "v": 103
    },
    {
      "midi": 68,
      "hit": false,
      "t": 155524.8913125006,
      "d": 188.60915624999325,
      "v": 79
    },
    {
      "midi": 64,
      "hit": false,
      "t": 155524.8913125006,
      "d": 203.40203125000698,
      "v": 86
    },
    {
      "midi": 71,
      "hit": false,
      "t": 155524.8913125006,
      "d": 214.49668750001,
      "v": 97
    },
    {
      "midi": 71,
      "hit": false,
      "t": 155876.2220937506,
      "d": 247.7806562500191,
      "v": 111
    },
    {
      "midi": 64,
      "hit": false,
      "t": 155879.92031250062,
      "d": 232.98778125000536,
      "v": 101
    },
    {
      "midi": 68,
      "hit": false,
      "t": 155879.92031250062,
      "d": 232.98778125000536,
      "v": 107
    },
    {
      "midi": 64,
      "hit": false,
      "t": 156234.94931250063,
      "d": 192.30737500000396,
      "v": 70
    },
    {
      "midi": 68,
      "hit": false,
      "t": 156234.94931250063,
      "d": 196.00559375001467,
      "v": 70
    },
    {
      "midi": 71,
      "hit": false,
      "t": 156234.94931250063,
      "d": 207.1002500000177,
      "v": 81
    },
    {
      "midi": 64,
      "hit": false,
      "t": 156578.88365625063,
      "d": 244.08243750000838,
      "v": 103
    },
    {
      "midi": 71,
      "hit": false,
      "t": 156578.88365625063,
      "d": 247.7806562500191,
      "v": 118
    },
    {
      "midi": 68,
      "hit": false,
      "t": 156582.58187500064,
      "d": 229.28956249999464,
      "v": 111
    },
    {
      "midi": 64,
      "hit": false,
      "t": 156933.91265625064,
      "d": 210.7984687500284,
      "v": 84
    },
    {
      "midi": 71,
      "hit": false,
      "t": 156933.91265625064,
      "d": 210.7984687500284,
      "v": 93
    },
    {
      "midi": 68,
      "hit": false,
      "t": 156937.61087500065,
      "d": 203.40203125000698,
      "v": 77
    },
    {
      "midi": 71,
      "hit": false,
      "t": 157288.94165625068,
      "d": 170.1180624999979,
      "v": 96
    },
    {
      "midi": 68,
      "hit": false,
      "t": 157288.94165625068,
      "d": 196.00559374998556,
      "v": 89
    },
    {
      "midi": 64,
      "hit": false,
      "t": 157288.94165625068,
      "d": 207.1002499999886,
      "v": 97
    },
    {
      "midi": 66,
      "hit": false,
      "t": 157651.36709375068,
      "d": 177.51450000001932,
      "v": 81
    },
    {
      "midi": 59,
      "hit": false,
      "t": 157655.0653125007,
      "d": 188.60915625002235,
      "v": 75
    },
    {
      "midi": 59,
      "hit": false,
      "t": 157998.99965625073,
      "d": 244.08243750000838,
      "v": 88
    },
    {
      "midi": 66,
      "hit": false,
      "t": 157998.99965625073,
      "d": 244.08243750000838,
      "v": 117
    },
    {
      "midi": 68,
      "hit": false,
      "t": 158354.02865625074,
      "d": 229.28956249999464,
      "v": 90
    },
    {
      "midi": 59,
      "hit": false,
      "t": 158354.02865625074,
      "d": 255.1770937499823,
      "v": 78
    },
    {
      "midi": 59,
      "hit": false,
      "t": 158709.05765625072,
      "d": 240.38421874999767,
      "v": 96
    },
    {
      "midi": 68,
      "hit": false,
      "t": 158709.05765625072,
      "d": 273.66818750000675,
      "v": 107
    },
    {
      "midi": 55,
      "hit": false,
      "t": 159067.78487500074,
      "d": 281.06462499999907,
      "v": 102
    },
    {
      "midi": 56,
      "hit": false,
      "t": 159304.47087500073,
      "d": 162.7216250000347,
      "v": 109
    },
    {
      "midi": 62,
      "hit": false,
      "t": 159422.81387500075,
      "d": 262.5735312500037,
      "v": 120
    },
    {
      "midi": 64,
      "hit": false,
      "t": 159422.81387500075,
      "d": 262.5735312500037,
      "v": 110
    },
    {
      "midi": 55,
      "hit": false,
      "t": 159777.84287500076,
      "d": 225.59134375001304,
      "v": 103
    },
    {
      "midi": 52,
      "hit": false,
      "t": 160007.13243750078,
      "d": 436.38981250001234,
      "v": 101
    },
    {
      "midi": 59,
      "hit": false,
      "t": 160010.8306562508,
      "d": 399.40762499999255,
      "v": 120
    },
    {
      "midi": 64,
      "hit": false,
      "t": 160495.2973125008,
      "d": 221.89312500003143,
      "v": 86
    },
    {
      "midi": 57,
      "hit": false,
      "t": 160498.9955312508,
      "d": 214.49668750001,
      "v": 89
    },
    {
      "midi": 64,
      "hit": false,
      "t": 160842.92987500082,
      "d": 232.98778125000536,
      "v": 107
    },
    {
      "midi": 57,
      "hit": false,
      "t": 160842.92987500082,
      "d": 244.08243750000838,
      "v": 110
    },
    {
      "midi": 66,
      "hit": false,
      "t": 161197.95887500083,
      "d": 221.89312500000233,
      "v": 103
    },
    {
      "midi": 57,
      "hit": false,
      "t": 161197.95887500083,
      "d": 244.08243750000838,
      "v": 81
    },
    {
      "midi": 57,
      "hit": false,
      "t": 161552.98787500084,
      "d": 214.49668750001,
      "v": 94
    },
    {
      "midi": 66,
      "hit": false,
      "t": 161552.98787500084,
      "d": 221.89312500000233,
      "v": 105
    },
    {
      "midi": 59,
      "hit": false,
      "t": 161908.01687500085,
      "d": 214.49668750001,
      "v": 83
    },
    {
      "midi": 64,
      "hit": false,
      "t": 161908.01687500085,
      "d": 229.28956250002375,
      "v": 86
    },
    {
      "midi": 59,
      "hit": false,
      "t": 162263.04587500085,
      "d": 229.28956249999464,
      "v": 103
    },
    {
      "midi": 64,
      "hit": false,
      "t": 162263.04587500085,
      "d": 251.4788750000007,
      "v": 108
    },
    {
      "midi": 61,
      "hit": false,
      "t": 162625.47131250086,
      "d": 218.19490624999162,
      "v": 117
    },
    {
      "midi": 64,
      "hit": false,
      "t": 162625.47131250086,
      "d": 218.19490624999162,
      "v": 92
    },
    {
      "midi": 64,
      "hit": false,
      "t": 162969.40565625083,
      "d": 236.68599999998696,
      "v": 108
    },
    {
      "midi": 61,
      "hit": false,
      "t": 162969.40565625083,
      "d": 240.38421874999767,
      "v": 115
    },
    {
      "midi": 59,
      "hit": false,
      "t": 163320.73643750083,
      "d": 251.4788750000007,
      "v": 80
    },
    {
      "midi": 66,
      "hit": false,
      "t": 163328.13287500083,
      "d": 229.28956249999464,
      "v": 107
    },
    {
      "midi": 66,
      "hit": false,
      "t": 163679.46365625082,
      "d": 240.38421874999767,
      "v": 120
    },
    {
      "midi": 59,
      "hit": false,
      "t": 163679.46365625082,
      "d": 262.5735312500037,
      "v": 88
    },
    {
      "midi": 68,
      "hit": false,
      "t": 164034.49265625083,
      "d": 221.89312500000233,
      "v": 107
    },
    {
      "midi": 59,
      "hit": false,
      "t": 164034.49265625083,
      "d": 244.08243750000838,
      "v": 84
    },
    {
      "midi": 59,
      "hit": false,
      "t": 164385.82343750083,
      "d": 199.70381249999627,
      "v": 86
    },
    {
      "midi": 68,
      "hit": false,
      "t": 164385.82343750083,
      "d": 229.28956249999464,
      "v": 105
    },
    {
      "midi": 28,
      "hit": false,
      "t": 164751.94709375082,
      "d": 177.51449999999022,
      "v": 98
    },
    {
      "midi": 40,
      "hit": false,
      "t": 165103.27787500081,
      "d": 199.70381249999627,
      "v": 116
    },
    {
      "midi": 64,
      "hit": false,
      "t": 165103.27787500081,
      "d": 229.28956249999464,
      "v": 122
    },
    {
      "midi": 28,
      "hit": false,
      "t": 165458.3068750008,
      "d": 184.91093749998254,
      "v": 87
    },
    {
      "midi": 62,
      "hit": false,
      "t": 165465.7033125008,
      "d": 199.70381249999627,
      "v": 111
    },
    {
      "midi": 40,
      "hit": false,
      "t": 165813.33587500078,
      "d": 162.7216250000056,
      "v": 108
    },
    {
      "midi": 61,
      "hit": false,
      "t": 165813.33587500078,
      "d": 221.89312500000233,
      "v": 113
    },
    {
      "midi": 28,
      "hit": false,
      "t": 166168.36487500079,
      "d": 170.1180624999979,
      "v": 97
    },
    {
      "midi": 62,
      "hit": false,
      "t": 166168.36487500079,
      "d": 207.1002499999886,
      "v": 114
    },
    {
      "midi": 40,
      "hit": false,
      "t": 166523.39387500077,
      "d": 181.21271875000093,
      "v": 101
    },
    {
      "midi": 61,
      "hit": false,
      "t": 166523.39387500077,
      "d": 203.40203125000698,
      "v": 127
    },
    {
      "midi": 28,
      "hit": false,
      "t": 166878.42287500078,
      "d": 181.21271875000093,
      "v": 93
    },
    {
      "midi": 59,
      "hit": false,
      "t": 166878.42287500078,
      "d": 240.38421874999767,
      "v": 107
    },
    {
      "midi": 61,
      "hit": false,
      "t": 167111.41065625078,
      "d": 70.26615624999977,
      "v": 113
    },
    {
      "midi": 40,
      "hit": false,
      "t": 167233.45187500078,
      "d": 170.1180624999979,
      "v": 101
    },
    {
      "midi": 55,
      "hit": false,
      "t": 167240.84831250078,
      "d": 314.34859375000815,
      "v": 113
    },
    {
      "midi": 28,
      "hit": false,
      "t": 167588.4808750008,
      "d": 170.1180624999979,
      "v": 94
    },
    {
      "midi": 40,
      "hit": false,
      "t": 167943.5098750008,
      "d": 170.1180624999979,
      "v": 106
    },
    {
      "midi": 64,
      "hit": false,
      "t": 167943.5098750008,
      "d": 258.875312499993,
      "v": 120
    },
    {
      "midi": 28,
      "hit": false,
      "t": 168298.53887500078,
      "d": 173.81628125000861,
      "v": 89
    },
    {
      "midi": 62,
      "hit": false,
      "t": 168298.53887500078,
      "d": 225.59134375001304,
      "v": 97
    },
    {
      "midi": 61,
      "hit": false,
      "t": 168649.86965625078,
      "d": 199.70381250002538,
      "v": 111
    },
    {
      "midi": 40,
      "hit": false,
      "t": 168653.5678750008,
      "d": 155.32518750001327,
      "v": 101
    },
    {
      "midi": 62,
      "hit": false,
      "t": 169004.89865625082,
      "d": 196.00559375001467,
      "v": 102
    },
    {
      "midi": 28,
      "hit": false,
      "t": 169008.59687500083,
      "d": 177.51449999999022,
      "v": 93
    },
    {
      "midi": 40,
      "hit": false,
      "t": 169359.92765625083,
      "d": 170.1180624999979,
      "v": 110
    },
    {
      "midi": 61,
      "hit": false,
      "t": 169359.92765625083,
      "d": 199.70381249999627,
      "v": 120
    },
    {
      "midi": 28,
      "hit": false,
      "t": 169714.95665625084,
      "d": 177.51450000001932,
      "v": 93
    },
    {
      "midi": 59,
      "hit": false,
      "t": 169718.65487500085,
      "d": 232.98778125000536,
      "v": 110
    },
    {
      "midi": 61,
      "hit": false,
      "t": 169947.94443750085,
      "d": 77.66259375002119,
      "v": 107
    },
    {
      "midi": 40,
      "hit": false,
      "t": 170069.98565625088,
      "d": 159.02340624999488,
      "v": 110
    },
    {
      "midi": 55,
      "hit": false,
      "t": 170081.08031250088,
      "d": 314.34859374997905,
      "v": 104
    },
    {
      "midi": 28,
      "hit": false,
      "t": 170421.31643750085,
      "d": 177.51449999999022,
      "v": 100
    },
    {
      "midi": 40,
      "hit": false,
      "t": 170780.04365625084,
      "d": 170.1180624999979,
      "v": 101
    },
    {
      "midi": 68,
      "hit": false,
      "t": 170791.13831250084,
      "d": 210.7984687499993,
      "v": 120
    },
    {
      "midi": 28,
      "hit": false,
      "t": 171138.77087500083,
      "d": 181.21271875000093,
      "v": 96
    },
    {
      "midi": 66,
      "hit": false,
      "t": 171142.46909375084,
      "d": 244.08243749997928,
      "v": 123
    },
    {
      "midi": 40,
      "hit": false,
      "t": 171493.7998750008,
      "d": 196.00559374998556,
      "v": 100
    },
    {
      "midi": 64,
      "hit": false,
      "t": 171493.7998750008,
      "d": 236.68599999998696,
      "v": 107
    },
    {
      "midi": 66,
      "hit": false,
      "t": 171845.1306562508,
      "d": 244.08243750000838,
      "v": 117
    },
    {
      "midi": 28,
      "hit": false,
      "t": 171848.82887500082,
      "d": 192.30737500000396,
      "v": 92
    },
    {
      "midi": 64,
      "hit": false,
      "t": 172200.15965625082,
      "d": 192.30737500000396,
      "v": 108
    },
    {
      "midi": 40,
      "hit": false,
      "t": 172203.85787500083,
      "d": 177.51449999999022,
      "v": 90
    },
    {
      "midi": 28,
      "hit": false,
      "t": 172558.8868750008,
      "d": 181.21271875000093,
      "v": 96
    },
    {
      "midi": 62,
      "hit": false,
      "t": 172558.8868750008,
      "d": 240.38421874999767,
      "v": 101
    },
    {
      "midi": 64,
      "hit": false,
      "t": 172795.5728750008,
      "d": 70.26615624999977,
      "v": 101
    },
    {
      "midi": 40,
      "hit": false,
      "t": 172913.9158750008,
      "d": 170.1180624999979,
      "v": 100
    },
    {
      "midi": 61,
      "hit": false,
      "t": 172913.9158750008,
      "d": 196.00559374998556,
      "v": 115
    },
    {
      "midi": 28,
      "hit": false,
      "t": 173268.94487500077,
      "d": 177.51450000001932,
      "v": 93
    },
    {
      "midi": 68,
      "hit": false,
      "t": 173276.34131250076,
      "d": 155.32518750001327,
      "v": 126
    },
    {
      "midi": 71,
      "hit": false,
      "t": 173276.34131250076,
      "d": 170.118062500027,
      "v": 106
    },
    {
      "midi": 64,
      "hit": false,
      "t": 173276.34131250076,
      "d": 173.81628125003772,
      "v": 106
    },
    {
      "midi": 28,
      "hit": false,
      "t": 173623.9738750008,
      "d": 188.60915625002235,
      "v": 100
    },
    {
      "midi": 68,
      "hit": false,
      "t": 173627.67209375082,
      "d": 196.00559375001467,
      "v": 126
    },
    {
      "midi": 64,
      "hit": false,
      "t": 173627.67209375082,
      "d": 199.70381250002538,
      "v": 106
    },
    {
      "midi": 71,
      "hit": false,
      "t": 173627.67209375082,
      "d": 214.49668750003912,
      "v": 107
    }
  ]
}