{
  "jsonPath": "World/German Pop/Glashaus/wenn-das-liebe-ist.json",
  "path": "World\\German Pop\\Glashaus\\Wenn das Liebe ist.mid",
  "name": "Wenn das Liebe ist",
  "difficulty": "Advanced",
  "bpm": 104.00001386666851,
  "notes": [
    {
      "midi": 50,
      "hit": false,
      "t": 3750,
      "d": 3707.03125,
      "v": 116
    },
    {
      "midi": 69,
      "hit": false,
      "t": 3750,
      "d": 5933.59375,
      "v": 87
    },
    {
      "midi": 65,
      "hit": false,
      "t": 3750,
      "d": 6529.296875,
      "v": 92
    },
    {
      "midi": 60,
      "hit": false,
      "t": 3753.90625,
      "d": 5939.453125,
      "v": 91
    },
    {
      "midi": 62,
      "hit": false,
      "t": 3753.90625,
      "d": 6076.171875,
      "v": 93
    },
    {
      "midi": 50,
      "hit": false,
      "t": 7500,
      "d": 1798.828125,
      "v": 71
    },
    {
      "midi": 50,
      "hit": false,
      "t": 9375,
      "d": 1798.828125,
      "v": 66
    },
    {
      "midi": 60,
      "hit": false,
      "t": 9847.65625,
      "d": 1369.140625,
      "v": 94
    },
    {
      "midi": 65,
      "hit": false,
      "t": 10302.734375,
      "d": 851.5625,
      "v": 85
    },
    {
      "midi": 69,
      "hit": false,
      "t": 10771.484375,
      "d": 464.84375,
      "v": 91
    },
    {
      "midi": 60,
      "hit": false,
      "t": 11240.234375,
      "d": 1330.078125,
      "v": 90
    },
    {
      "midi": 48,
      "hit": false,
      "t": 11250,
      "d": 3722.65625,
      "v": 113
    },
    {
      "midi": 64,
      "hit": false,
      "t": 11250,
      "d": 1779.296875,
      "v": 90
    },
    {
      "midi": 67,
      "hit": false,
      "t": 11253.90625,
      "d": 3458.984375,
      "v": 87
    },
    {
      "midi": 60,
      "hit": false,
      "t": 12666.015625,
      "d": 445.3125,
      "v": 73
    },
    {
      "midi": 64,
      "hit": false,
      "t": 13125,
      "d": 451.171875,
      "v": 95
    },
    {
      "midi": 65,
      "hit": false,
      "t": 13583.984375,
      "d": 451.171875,
      "v": 81
    },
    {
      "midi": 64,
      "hit": false,
      "t": 14066.40625,
      "d": 2794.921875,
      "v": 92
    },
    {
      "midi": 48,
      "hit": false,
      "t": 15000,
      "d": 1798.828125,
      "v": 71
    },
    {
      "midi": 65,
      "hit": false,
      "t": 16865.234375,
      "d": 919.921875,
      "v": 90
    },
    {
      "midi": 48,
      "hit": false,
      "t": 16875,
      "d": 1798.828125,
      "v": 66
    },
    {
      "midi": 64,
      "hit": false,
      "t": 17816.40625,
      "d": 916.015625,
      "v": 87
    },
    {
      "midi": 64,
      "hit": false,
      "t": 18744.140625,
      "d": 919.921875,
      "v": 91
    },
    {
      "midi": 50,
      "hit": false,
      "t": 18750,
      "d": 1798.828125,
      "v": 87
    },
    {
      "midi": 65,
      "hit": false,
      "t": 18753.90625,
      "d": 1853.515625,
      "v": 91
    },
    {
      "midi": 60,
      "hit": false,
      "t": 19677.734375,
      "d": 919.921875,
      "v": 90
    },
    {
      "midi": 60,
      "hit": false,
      "t": 20619.140625,
      "d": 1828.125,
      "v": 79
    },
    {
      "midi": 50,
      "hit": false,
      "t": 20625,
      "d": 1798.828125,
      "v": 82
    },
    {
      "midi": 65,
      "hit": false,
      "t": 20628.90625,
      "d": 1824.21875,
      "v": 89
    },
    {
      "midi": 69,
      "hit": false,
      "t": 21562.5,
      "d": 919.921875,
      "v": 91
    },
    {
      "midi": 72,
      "hit": false,
      "t": 22490.234375,
      "d": 919.921875,
      "v": 90
    },
    {
      "midi": 65,
      "hit": false,
      "t": 22494.140625,
      "d": 1833.984375,
      "v": 79
    },
    {
      "midi": 50,
      "hit": false,
      "t": 22500,
      "d": 1798.828125,
      "v": 87
    },
    {
      "midi": 60,
      "hit": false,
      "t": 22509.765625,
      "d": 910.15625,
      "v": 79
    },
    {
      "midi": 60,
      "hit": false,
      "t": 23431.640625,
      "d": 919.921875,
      "v": 84
    },
    {
      "midi": 69,
      "hit": false,
      "t": 24369.140625,
      "d": 451.171875,
      "v": 92
    },
    {
      "midi": 60,
      "hit": false,
      "t": 24369.140625,
      "d": 1828.125,
      "v": 79
    },
    {
      "midi": 50,
      "hit": false,
      "t": 24375,
      "d": 1798.828125,
      "v": 82
    },
    {
      "midi": 65,
      "hit": false,
      "t": 24378.90625,
      "d": 916.015625,
      "v": 79
    },
    {
      "midi": 67,
      "hit": false,
      "t": 24853.515625,
      "d": 451.171875,
      "v": 90
    },
    {
      "midi": 65,
      "hit": false,
      "t": 25306.640625,
      "d": 919.921875,
      "v": 87
    },
    {
      "midi": 67,
      "hit": false,
      "t": 26244.140625,
      "d": 5603.515625,
      "v": 92
    },
    {
      "midi": 48,
      "hit": false,
      "t": 26250,
      "d": 5597.65625,
      "v": 98
    },
    {
      "midi": 60,
      "hit": false,
      "t": 26253.90625,
      "d": 3654.296875,
      "v": 75
    },
    {
      "midi": 64,
      "hit": false,
      "t": 26253.90625,
      "d": 5603.515625,
      "v": 75
    },
    {
      "midi": 72,
      "hit": false,
      "t": 29052.734375,
      "d": 919.921875,
      "v": 87
    },
    {
      "midi": 60,
      "hit": false,
      "t": 29994.140625,
      "d": 1779.296875,
      "v": 94
    },
    {
      "midi": 48,
      "hit": false,
      "t": 31875,
      "d": 1798.828125,
      "v": 72
    },
    {
      "midi": 67,
      "hit": false,
      "t": 31875,
      "d": 1822.265625,
      "v": 82
    },
    {
      "midi": 60,
      "hit": false,
      "t": 31884.765625,
      "d": 890.625,
      "v": 78
    },
    {
      "midi": 64,
      "hit": false,
      "t": 31884.765625,
      "d": 1828.125,
      "v": 78
    },
    {
      "midi": 60,
      "hit": false,
      "t": 32816.40625,
      "d": 919.921875,
      "v": 77
    },
    {
      "midi": 50,
      "hit": false,
      "t": 33750,
      "d": 1798.828125,
      "v": 95
    },
    {
      "midi": 65,
      "hit": false,
      "t": 33750,
      "d": 1822.265625,
      "v": 84
    },
    {
      "midi": 69,
      "hit": false,
      "t": 33750,
      "d": 5933.59375,
      "v": 87
    },
    {
      "midi": 60,
      "hit": false,
      "t": 33753.90625,
      "d": 1853.515625,
      "v": 91
    },
    {
      "midi": 62,
      "hit": false,
      "t": 33753.90625,
      "d": 1853.515625,
      "v": 93
    },
    {
      "midi": 50,
      "hit": false,
      "t": 35625,
      "d": 1798.828125,
      "v": 76
    },
    {
      "midi": 65,
      "hit": false,
      "t": 35625,
      "d": 1822.265625,
      "v": 72
    },
    {
      "midi": 60,
      "hit": false,
      "t": 35628.90625,
      "d": 1853.515625,
      "v": 79
    },
    {
      "midi": 62,
      "hit": false,
      "t": 35628.90625,
      "d": 1853.515625,
      "v": 81
    },
    {
      "midi": 38,
      "hit": false,
      "t": 36562.5,
      "d": 2326.171875,
      "v": 86
    },
    {
      "midi": 50,
      "hit": false,
      "t": 37500,
      "d": 1867.1875,
      "v": 81
    },
    {
      "midi": 65,
      "hit": false,
      "t": 37500,
      "d": 1822.265625,
      "v": 72
    },
    {
      "midi": 60,
      "hit": false,
      "t": 37503.90625,
      "d": 1853.515625,
      "v": 79
    },
    {
      "midi": 62,
      "hit": false,
      "t": 37503.90625,
      "d": 1853.515625,
      "v": 81
    },
    {
      "midi": 38,
      "hit": false,
      "t": 38906.25,
      "d": 2326.171875,
      "v": 81
    },
    {
      "midi": 50,
      "hit": false,
      "t": 39375,
      "d": 445.3125,
      "v": 81
    },
    {
      "midi": 50,
      "hit": false,
      "t": 39843.75,
      "d": 1330.078125,
      "v": 76
    },
    {
      "midi": 60,
      "hit": false,
      "t": 39847.65625,
      "d": 1369.140625,
      "v": 94
    },
    {
      "midi": 65,
      "hit": false,
      "t": 40302.734375,
      "d": 851.5625,
      "v": 85
    },
    {
      "midi": 69,
      "hit": false,
      "t": 40771.484375,
      "d": 464.84375,
      "v": 91
    },
    {
      "midi": 60,
      "hit": false,
      "t": 41240.234375,
      "d": 1861.328125,
      "v": 85
    },
    {
      "midi": 48,
      "hit": false,
      "t": 41250,
      "d": 1798.828125,
      "v": 81
    },
    {
      "midi": 64,
      "hit": false,
      "t": 41250,
      "d": 1779.296875,
      "v": 85
    },
    {
      "midi": 67,
      "hit": false,
      "t": 41253.90625,
      "d": 3693.359375,
      "v": 87
    },
    {
      "midi": 48,
      "hit": false,
      "t": 43125,
      "d": 1798.828125,
      "v": 76
    },
    {
      "midi": 60,
      "hit": false,
      "t": 43128.90625,
      "d": 1843.75,
      "v": 70
    },
    {
      "midi": 64,
      "hit": false,
      "t": 43128.90625,
      "d": 1853.515625,
      "v": 72
    },
    {
      "midi": 60,
      "hit": false,
      "t": 44990.234375,
      "d": 3244.140625,
      "v": 76
    },
    {
      "midi": 48,
      "hit": false,
      "t": 45000,
      "d": 861.328125,
      "v": 81
    },
    {
      "midi": 64,
      "hit": false,
      "t": 45000,
      "d": 3185.546875,
      "v": 75
    },
    {
      "midi": 67,
      "hit": false,
      "t": 45000,
      "d": 3185.546875,
      "v": 76
    },
    {
      "midi": 48,
      "hit": false,
      "t": 45937.5,
      "d": 861.328125,
      "v": 71
    },
    {
      "midi": 60,
      "hit": false,
      "t": 46875,
      "d": 861.328125,
      "v": 76
    },
    {
      "midi": 48,
      "hit": false,
      "t": 47812.5,
      "d": 861.328125,
      "v": 71
    },
    {
      "midi": 60,
      "hit": false,
      "t": 48285.15625,
      "d": 447.265625,
      "v": 87
    },
    {
      "midi": 64,
      "hit": false,
      "t": 48285.15625,
      "d": 447.265625,
      "v": 87
    },
    {
      "midi": 67,
      "hit": false,
      "t": 48285.15625,
      "d": 447.265625,
      "v": 87
    },
    {
      "midi": 64,
      "hit": false,
      "t": 48744.140625,
      "d": 919.921875,
      "v": 86
    },
    {
      "midi": 50,
      "hit": false,
      "t": 48750,
      "d": 1798.828125,
      "v": 97
    },
    {
      "midi": 65,
      "hit": false,
      "t": 48753.90625,
      "d": 1853.515625,
      "v": 81
    },
    {
      "midi": 69,
      "hit": false,
      "t": 48753.90625,
      "d": 1853.515625,
      "v": 81
    },
    {
      "midi": 60,
      "hit": false,
      "t": 49677.734375,
      "d": 919.921875,
      "v": 77
    },
    {
      "midi": 60,
      "hit": false,
      "t": 50619.140625,
      "d": 890.625,
      "v": 79
    },
    {
      "midi": 50,
      "hit": false,
      "t": 50625,
      "d": 1798.828125,
      "v": 92
    },
    {
      "midi": 69,
      "hit": false,
      "t": 50625,
      "d": 919.921875,
      "v": 78
    },
    {
      "midi": 65,
      "hit": false,
      "t": 50628.90625,
      "d": 1824.21875,
      "v": 89
    },
    {
      "midi": 60,
      "hit": false,
      "t": 51556.640625,
      "d": 919.921875,
      "v": 76
    },
    {
      "midi": 69,
      "hit": false,
      "t": 52490.234375,
      "d": 919.921875,
      "v": 77
    },
    {
      "midi": 65,
      "hit": false,
      "t": 52494.140625,
      "d": 1833.984375,
      "v": 79
    },
    {
      "midi": 50,
      "hit": false,
      "t": 52500,
      "d": 1798.828125,
      "v": 97
    },
    {
      "midi": 60,
      "hit": false,
      "t": 52509.765625,
      "d": 910.15625,
      "v": 79
    },
    {
      "midi": 60,
      "hit": false,
      "t": 53431.640625,
      "d": 919.921875,
      "v": 84
    },
    {
      "midi": 69,
      "hit": false,
      "t": 54369.140625,
      "d": 919.921875,
      "v": 87
    },
    {
      "midi": 60,
      "hit": false,
      "t": 54369.140625,
      "d": 1828.125,
      "v": 74
    },
    {
      "midi": 50,
      "hit": false,
      "t": 54375,
      "d": 1798.828125,
      "v": 92
    },
    {
      "midi": 65,
      "hit": false,
      "t": 54378.90625,
      "d": 1853.515625,
      "v": 74
    },
    {
      "midi": 72,
      "hit": false,
      "t": 55322.265625,
      "d": 919.921875,
      "v": 84
    },
    {
      "midi": 67,
      "hit": false,
      "t": 56244.140625,
      "d": 3259.765625,
      "v": 92
    },
    {
      "midi": 48,
      "hit": false,
      "t": 56250,
      "d": 1847.65625,
      "v": 89
    },
    {
      "midi": 60,
      "hit": false,
      "t": 56253.90625,
      "d": 2248.046875,
      "v": 75
    },
    {
      "midi": 64,
      "hit": false,
      "t": 56253.90625,
      "d": 2791.015625,
      "v": 75
    },
    {
      "midi": 48,
      "hit": false,
      "t": 58125,
      "d": 1847.65625,
      "v": 89
    },
    {
      "midi": 60,
      "hit": false,
      "t": 58593.75,
      "d": 451.171875,
      "v": 81
    },
    {
      "midi": 64,
      "hit": false,
      "t": 59062.5,
      "d": 451.171875,
      "v": 88
    },
    {
      "midi": 67,
      "hit": false,
      "t": 59531.25,
      "d": 445.3125,
      "v": 84
    },
    {
      "midi": 60,
      "hit": false,
      "t": 59994.140625,
      "d": 1779.296875,
      "v": 77
    },
    {
      "midi": 64,
      "hit": false,
      "t": 59994.140625,
      "d": 1779.296875,
      "v": 77
    },
    {
      "midi": 67,
      "hit": false,
      "t": 59994.140625,
      "d": 1837.890625,
      "v": 77
    },
    {
      "midi": 48,
      "hit": false,
      "t": 60000,
      "d": 1847.65625,
      "v": 89
    },
    {
      "midi": 48,
      "hit": false,
      "t": 61875,
      "d": 1798.828125,
      "v": 82
    },
    {
      "midi": 67,
      "hit": false,
      "t": 61875,
      "d": 1822.265625,
      "v": 82
    },
    {
      "midi": 65,
      "hit": false,
      "t": 61884.765625,
      "d": 890.625,
      "v": 78
    },
    {
      "midi": 60,
      "hit": false,
      "t": 61884.765625,
      "d": 1369.140625,
      "v": 78
    },
    {
      "midi": 64,
      "hit": false,
      "t": 62812.5,
      "d": 451.171875,
      "v": 88
    },
    {
      "midi": 60,
      "hit": false,
      "t": 63281.25,
      "d": 445.3125,
      "v": 84
    },
    {
      "midi": 50,
      "hit": false,
      "t": 63750,
      "d": 1798.828125,
      "v": 90
    },
    {
      "midi": 65,
      "hit": false,
      "t": 63750,
      "d": 1822.265625,
      "v": 84
    },
    {
      "midi": 69,
      "hit": false,
      "t": 63750,
      "d": 5933.59375,
      "v": 87
    },
    {
      "midi": 60,
      "hit": false,
      "t": 63753.90625,
      "d": 1853.515625,
      "v": 91
    },
    {
      "midi": 62,
      "hit": false,
      "t": 63753.90625,
      "d": 1853.515625,
      "v": 93
    },
    {
      "midi": 50,
      "hit": false,
      "t": 65625,
      "d": 1798.828125,
      "v": 71
    },
    {
      "midi": 65,
      "hit": false,
      "t": 65625,
      "d": 1822.265625,
      "v": 72
    },
    {
      "midi": 60,
      "hit": false,
      "t": 65628.90625,
      "d": 1853.515625,
      "v": 79
    },
    {
      "midi": 62,
      "hit": false,
      "t": 65628.90625,
      "d": 1853.515625,
      "v": 81
    },
    {
      "midi": 38,
      "hit": false,
      "t": 66562.5,
      "d": 2326.171875,
      "v": 81
    },
    {
      "midi": 50,
      "hit": false,
      "t": 67500,
      "d": 1867.1875,
      "v": 76
    },
    {
      "midi": 65,
      "hit": false,
      "t": 67500,
      "d": 1822.265625,
      "v": 72
    },
    {
      "midi": 60,
      "hit": false,
      "t": 67503.90625,
      "d": 1853.515625,
      "v": 79
    },
    {
      "midi": 62,
      "hit": false,
      "t": 67503.90625,
      "d": 1853.515625,
      "v": 81
    },
    {
      "midi": 38,
      "hit": false,
      "t": 68906.25,
      "d": 2326.171875,
      "v": 76
    },
    {
      "midi": 50,
      "hit": false,
      "t": 69375,
      "d": 445.3125,
      "v": 76
    },
    {
      "midi": 50,
      "hit": false,
      "t": 69843.75,
      "d": 1330.078125,
      "v": 71
    },
    {
      "midi": 60,
      "hit": false,
      "t": 69847.65625,
      "d": 1369.140625,
      "v": 94
    },
    {
      "midi": 72,
      "hit": false,
      "t": 70302.734375,
      "d": 699.21875,
      "v": 91
    },
    {
      "midi": 65,
      "hit": false,
      "t": 70302.734375,
      "d": 851.5625,
      "v": 85
    },
    {
      "midi": 60,
      "hit": false,
      "t": 71240.234375,
      "d": 1861.328125,
      "v": 85
    },
    {
      "midi": 48,
      "hit": false,
      "t": 71250,
      "d": 1798.828125,
      "v": 76
    },
    {
      "midi": 64,
      "hit": false,
      "t": 71250,
      "d": 1779.296875,
      "v": 85
    },
    {
      "midi": 67,
      "hit": false,
      "t": 71253.90625,
      "d": 3693.359375,
      "v": 87
    },
    {
      "midi": 48,
      "hit": false,
      "t": 73125,
      "d": 1798.828125,
      "v": 71
    },
    {
      "midi": 60,
      "hit": false,
      "t": 73128.90625,
      "d": 1843.75,
      "v": 70
    },
    {
      "midi": 64,
      "hit": false,
      "t": 73128.90625,
      "d": 1853.515625,
      "v": 72
    },
    {
      "midi": 60,
      "hit": false,
      "t": 74990.234375,
      "d": 1837.890625,
      "v": 76
    },
    {
      "midi": 48,
      "hit": false,
      "t": 75000,
      "d": 861.328125,
      "v": 76
    },
    {
      "midi": 64,
      "hit": false,
      "t": 75000,
      "d": 1779.296875,
      "v": 75
    },
    {
      "midi": 67,
      "hit": false,
      "t": 75000,
      "d": 1779.296875,
      "v": 76
    },
    {
      "midi": 48,
      "hit": false,
      "t": 75937.5,
      "d": 861.328125,
      "v": 66
    },
    {
      "midi": 60,
      "hit": false,
      "t": 76875,
      "d": 861.328125,
      "v": 71
    },
    {
      "midi": 60,
      "hit": false,
      "t": 76878.90625,
      "d": 916.015625,
      "v": 87
    },
    {
      "midi": 65,
      "hit": false,
      "t": 76878.90625,
      "d": 916.015625,
      "v": 98
    },
    {
      "midi": 67,
      "hit": false,
      "t": 76878.90625,
      "d": 916.015625,
      "v": 87
    },
    {
      "midi": 48,
      "hit": false,
      "t": 77812.5,
      "d": 861.328125,
      "v": 66
    },
    {
      "midi": 60,
      "hit": false,
      "t": 77816.40625,
      "d": 916.015625,
      "v": 87
    },
    {
      "midi": 64,
      "hit": false,
      "t": 77816.40625,
      "d": 916.015625,
      "v": 95
    },
    {
      "midi": 67,
      "hit": false,
      "t": 77816.40625,
      "d": 916.015625,
      "v": 87
    },
    {
      "midi": 50,
      "hit": false,
      "t": 78750,
      "d": 1798.828125,
      "v": 92
    },
    {
      "midi": 65,
      "hit": false,
      "t": 78750,
      "d": 1822.265625,
      "v": 84
    },
    {
      "midi": 69,
      "hit": false,
      "t": 78750,
      "d": 4660.15625,
      "v": 87
    },
    {
      "midi": 60,
      "hit": false,
      "t": 78753.90625,
      "d": 1853.515625,
      "v": 91
    },
    {
      "midi": 62,
      "hit": false,
      "t": 78753.90625,
      "d": 1853.515625,
      "v": 93
    },
    {
      "midi": 50,
      "hit": false,
      "t": 80625,
      "d": 1798.828125,
      "v": 87
    },
    {
      "midi": 65,
      "hit": false,
      "t": 80625,
      "d": 1822.265625,
      "v": 72
    },
    {
      "midi": 60,
      "hit": false,
      "t": 80628.90625,
      "d": 1296.875,
      "v": 79
    },
    {
      "midi": 62,
      "hit": false,
      "t": 80628.90625,
      "d": 1853.515625,
      "v": 81
    },
    {
      "midi": 60,
      "hit": false,
      "t": 82031.25,
      "d": 451.171875,
      "v": 84
    },
    {
      "midi": 50,
      "hit": false,
      "t": 82500,
      "d": 1798.828125,
      "v": 92
    },
    {
      "midi": 65,
      "hit": false,
      "t": 82500,
      "d": 1822.265625,
      "v": 72
    },
    {
      "midi": 60,
      "hit": false,
      "t": 82503.90625,
      "d": 1853.515625,
      "v": 79
    },
    {
      "midi": 62,
      "hit": false,
      "t": 82503.90625,
      "d": 1853.515625,
      "v": 81
    },
    {
      "midi": 69,
      "hit": false,
      "t": 83437.5,
      "d": 919.921875,
      "v": 84
    },
    {
      "midi": 50,
      "hit": false,
      "t": 84375,
      "d": 1798.828125,
      "v": 87
    },
    {
      "midi": 69,
      "hit": false,
      "t": 84375,
      "d": 451.171875,
      "v": 77
    },
    {
      "midi": 67,
      "hit": false,
      "t": 84843.75,
      "d": 451.171875,
      "v": 77
    },
    {
      "midi": 60,
      "hit": false,
      "t": 84847.65625,
      "d": 1369.140625,
      "v": 94
    },
    {
      "midi": 65,
      "hit": false,
      "t": 85302.734375,
      "d": 382.8125,
      "v": 85
    },
    {
      "midi": 69,
      "hit": false,
      "t": 85302.734375,
      "d": 699.21875,
      "v": 91
    },
    {
      "midi": 65,
      "hit": false,
      "t": 85781.25,
      "d": 451.171875,
      "v": 81
    },
    {
      "midi": 67,
      "hit": false,
      "t": 86244.140625,
      "d": 2791.015625,
      "v": 92
    },
    {
      "midi": 48,
      "hit": false,
      "t": 86250,
      "d": 2785.15625,
      "v": 84
    },
    {
      "midi": 60,
      "hit": false,
      "t": 86253.90625,
      "d": 2716.796875,
      "v": 75
    },
    {
      "midi": 64,
      "hit": false,
      "t": 86253.90625,
      "d": 2791.015625,
      "v": 75
    },
    {
      "midi": 60,
      "hit": false,
      "t": 89056.640625,
      "d": 2716.796875,
      "v": 77
    },
    {
      "midi": 64,
      "hit": false,
      "t": 89056.640625,
      "d": 2716.796875,
      "v": 77
    },
    {
      "midi": 67,
      "hit": false,
      "t": 89056.640625,
      "d": 2775.390625,
      "v": 77
    },
    {
      "midi": 48,
      "hit": false,
      "t": 89062.5,
      "d": 2785.15625,
      "v": 84
    },
    {
      "midi": 48,
      "hit": false,
      "t": 91875,
      "d": 1798.828125,
      "v": 77
    },
    {
      "midi": 67,
      "hit": false,
      "t": 91875,
      "d": 1822.265625,
      "v": 89
    },
    {
      "midi": 60,
      "hit": false,
      "t": 91884.765625,
      "d": 900.390625,
      "v": 78
    },
    {
      "midi": 64,
      "hit": false,
      "t": 91884.765625,
      "d": 1828.125,
      "v": 78
    },
    {
      "midi": 60,
      "hit": false,
      "t": 92812.5,
      "d": 914.0625,
      "v": 91
    },
    {
      "midi": 46,
      "hit": false,
      "t": 93750,
      "d": 1857.421875,
      "v": 92
    },
    {
      "midi": 50,
      "hit": false,
      "t": 93750,
      "d": 1857.421875,
      "v": 92
    },
    {
      "midi": 60,
      "hit": false,
      "t": 93750,
      "d": 919.921875,
      "v": 82
    },
    {
      "midi": 67,
      "hit": false,
      "t": 93753.90625,
      "d": 1853.515625,
      "v": 85
    },
    {
      "midi": 65,
      "hit": false,
      "t": 93753.90625,
      "d": 3728.515625,
      "v": 85
    },
    {
      "midi": 58,
      "hit": false,
      "t": 94677.734375,
      "d": 919.921875,
      "v": 81
    },
    {
      "midi": 60,
      "hit": false,
      "t": 95619.140625,
      "d": 890.625,
      "v": 83
    },
    {
      "midi": 46,
      "hit": false,
      "t": 95625,
      "d": 1857.421875,
      "v": 87
    },
    {
      "midi": 50,
      "hit": false,
      "t": 95625,
      "d": 1857.421875,
      "v": 87
    },
    {
      "midi": 67,
      "hit": false,
      "t": 95625,
      "d": 919.921875,
      "v": 82
    },
    {
      "midi": 58,
      "hit": false,
      "t": 96556.640625,
      "d": 919.921875,
      "v": 80
    },
    {
      "midi": 50,
      "hit": false,
      "t": 97500,
      "d": 919.921875,
      "v": 92
    },
    {
      "midi": 46,
      "hit": false,
      "t": 97500,
      "d": 3673.828125,
      "v": 92
    },
    {
      "midi": 60,
      "hit": false,
      "t": 97500,
      "d": 2794.921875,
      "v": 82
    },
    {
      "midi": 67,
      "hit": false,
      "t": 97503.90625,
      "d": 2791.015625,
      "v": 85
    },
    {
      "midi": 65,
      "hit": false,
      "t": 97503.90625,
      "d": 2794.921875,
      "v": 85
    },
    {
      "midi": 50,
      "hit": false,
      "t": 98437.5,
      "d": 1857.421875,
      "v": 87
    },
    {
      "midi": 50,
      "hit": false,
      "t": 100312.5,
      "d": 861.328125,
      "v": 92
    },
    {
      "midi": 67,
      "hit": false,
      "t": 100312.5,
      "d": 451.171875,
      "v": 95
    },
    {
      "midi": 60,
      "hit": false,
      "t": 100312.5,
      "d": 919.921875,
      "v": 82
    },
    {
      "midi": 65,
      "hit": false,
      "t": 100316.40625,
      "d": 916.015625,
      "v": 85
    },
    {
      "midi": 69,
      "hit": false,
      "t": 100781.25,
      "d": 451.171875,
      "v": 90
    },
    {
      "midi": 45,
      "hit": false,
      "t": 101250,
      "d": 1857.421875,
      "v": 92
    },
    {
      "midi": 48,
      "hit": false,
      "t": 101250,
      "d": 1857.421875,
      "v": 92
    },
    {
      "midi": 64,
      "hit": false,
      "t": 101250,
      "d": 919.921875,
      "v": 82
    },
    {
      "midi": 67,
      "hit": false,
      "t": 101253.90625,
      "d": 3728.515625,
      "v": 85
    },
    {
      "midi": 60,
      "hit": false,
      "t": 102177.734375,
      "d": 919.921875,
      "v": 81
    },
    {
      "midi": 64,
      "hit": false,
      "t": 103119.140625,
      "d": 890.625,
      "v": 83
    },
    {
      "midi": 45,
      "hit": false,
      "t": 103125,
      "d": 1857.421875,
      "v": 87
    },
    {
      "midi": 48,
      "hit": false,
      "t": 103125,
      "d": 1857.421875,
      "v": 87
    },
    {
      "midi": 60,
      "hit": false,
      "t": 104056.640625,
      "d": 919.921875,
      "v": 80
    },
    {
      "midi": 45,
      "hit": false,
      "t": 105000,
      "d": 1857.421875,
      "v": 92
    },
    {
      "midi": 48,
      "hit": false,
      "t": 105000,
      "d": 1857.421875,
      "v": 92
    },
    {
      "midi": 60,
      "hit": false,
      "t": 105000,
      "d": 2794.921875,
      "v": 82
    },
    {
      "midi": 67,
      "hit": false,
      "t": 105003.90625,
      "d": 916.015625,
      "v": 85
    },
    {
      "midi": 64,
      "hit": false,
      "t": 105003.90625,
      "d": 1857.421875,
      "v": 85
    },
    {
      "midi": 65,
      "hit": false,
      "t": 105941.40625,
      "d": 916.015625,
      "v": 85
    },
    {
      "midi": 67,
      "hit": false,
      "t": 106406.25,
      "d": 451.171875,
      "v": 90
    },
    {
      "midi": 45,
      "hit": false,
      "t": 106875,
      "d": 1857.421875,
      "v": 87
    },
    {
      "midi": 48,
      "hit": false,
      "t": 106875,
      "d": 1857.421875,
      "v": 87
    },
    {
      "midi": 64,
      "hit": false,
      "t": 106875,
      "d": 919.921875,
      "v": 95
    },
    {
      "midi": 60,
      "hit": false,
      "t": 107812.5,
      "d": 919.921875,
      "v": 82
    },
    {
      "midi": 46,
      "hit": false,
      "t": 108750,
      "d": 1857.421875,
      "v": 92
    },
    {
      "midi": 50,
      "hit": false,
      "t": 108750,
      "d": 1857.421875,
      "v": 92
    },
    {
      "midi": 60,
      "hit": false,
      "t": 108750,
      "d": 919.921875,
      "v": 82
    },
    {
      "midi": 65,
      "hit": false,
      "t": 108753.90625,
      "d": 1853.515625,
      "v": 85
    },
    {
      "midi": 69,
      "hit": false,
      "t": 108753.90625,
      "d": 1853.515625,
      "v": 85
    },
    {
      "midi": 58,
      "hit": false,
      "t": 109677.734375,
      "d": 919.921875,
      "v": 81
    },
    {
      "midi": 60,
      "hit": false,
      "t": 110619.140625,
      "d": 890.625,
      "v": 83
    },
    {
      "midi": 46,
      "hit": false,
      "t": 110625,
      "d": 1857.421875,
      "v": 87
    },
    {
      "midi": 50,
      "hit": false,
      "t": 110625,
      "d": 1857.421875,
      "v": 87
    },
    {
      "midi": 69,
      "hit": false,
      "t": 110625,
      "d": 919.921875,
      "v": 82
    },
    {
      "midi": 65,
      "hit": false,
      "t": 110628.90625,
      "d": 1824.21875,
      "v": 93
    },
    {
      "midi": 58,
      "hit": false,
      "t": 111556.640625,
      "d": 919.921875,
      "v": 80
    },
    {
      "midi": 46,
      "hit": false,
      "t": 112500,
      "d": 1857.421875,
      "v": 92
    },
    {
      "midi": 50,
      "hit": false,
      "t": 112500,
      "d": 1857.421875,
      "v": 92
    },
    {
      "midi": 60,
      "hit": false,
      "t": 112500,
      "d": 1388.671875,
      "v": 82
    },
    {
      "midi": 67,
      "hit": false,
      "t": 112503.90625,
      "d": 916.015625,
      "v": 85
    },
    {
      "midi": 65,
      "hit": false,
      "t": 113441.40625,
      "d": 447.265625,
      "v": 85
    },
    {
      "midi": 60,
      "hit": false,
      "t": 113906.25,
      "d": 451.171875,
      "v": 90
    },
    {
      "midi": 60,
      "hit": false,
      "t": 114369.140625,
      "d": 890.625,
      "v": 83
    },
    {
      "midi": 46,
      "hit": false,
      "t": 114375,
      "d": 1857.421875,
      "v": 87
    },
    {
      "midi": 50,
      "hit": false,
      "t": 114375,
      "d": 1857.421875,
      "v": 87
    },
    {
      "midi": 69,
      "hit": false,
      "t": 114375,
      "d": 919.921875,
      "v": 82
    },
    {
      "midi": 65,
      "hit": false,
      "t": 114378.90625,
      "d": 1355.46875,
      "v": 93
    },
    {
      "midi": 58,
      "hit": false,
      "t": 115306.640625,
      "d": 919.921875,
      "v": 80
    },
    {
      "midi": 67,
      "hit": false,
      "t": 115316.40625,
      "d": 447.265625,
      "v": 90
    },
    {
      "midi": 65,
      "hit": false,
      "t": 115781.25,
      "d": 451.171875,
      "v": 84
    },
    {
      "midi": 45,
      "hit": false,
      "t": 116250,
      "d": 1857.421875,
      "v": 92
    },
    {
      "midi": 48,
      "hit": false,
      "t": 116250,
      "d": 1857.421875,
      "v": 92
    },
    {
      "midi": 60,
      "hit": false,
      "t": 116250,
      "d": 3253.90625,
      "v": 82
    },
    {
      "midi": 67,
      "hit": false,
      "t": 116253.90625,
      "d": 916.015625,
      "v": 85
    },
    {
      "midi": 64,
      "hit": false,
      "t": 116253.90625,
      "d": 1857.421875,
      "v": 85
    },
    {
      "midi": 45,
      "hit": false,
      "t": 118125,
      "d": 1857.421875,
      "v": 87
    },
    {
      "midi": 48,
      "hit": false,
      "t": 118125,
      "d": 1857.421875,
      "v": 87
    },
    {
      "midi": 64,
      "hit": false,
      "t": 118125,
      "d": 919.921875,
      "v": 95
    },
    {
      "midi": 72,
      "hit": false,
      "t": 119066.40625,
      "d": 916.015625,
      "v": 85
    },
    {
      "midi": 60,
      "hit": false,
      "t": 119531.25,
      "d": 451.171875,
      "v": 90
    },
    {
      "midi": 48,
      "hit": false,
      "t": 120000,
      "d": 1857.421875,
      "v": 92
    },
    {
      "midi": 45,
      "hit": false,
      "t": 120000,
      "d": 3732.421875,
      "v": 92
    },
    {
      "midi": 64,
      "hit": false,
      "t": 120003.90625,
      "d": 919.921875,
      "v": 90
    },
    {
      "midi": 65,
      "hit": false,
      "t": 120468.75,
      "d": 451.171875,
      "v": 84
    },
    {
      "midi": 64,
      "hit": false,
      "t": 120941.40625,
      "d": 916.015625,
      "v": 90
    },
    {
      "midi": 60,
      "hit": false,
      "t": 121406.25,
      "d": 451.171875,
      "v": 84
    },
    {
      "midi": 48,
      "hit": false,
      "t": 121875,
      "d": 1857.421875,
      "v": 87
    },
    {
      "midi": 64,
      "hit": false,
      "t": 122343.75,
      "d": 451.171875,
      "v": 84
    },
    {
      "midi": 65,
      "hit": false,
      "t": 122816.40625,
      "d": 916.015625,
      "v": 90
    },
    {
      "midi": 64,
      "hit": false,
      "t": 123281.25,
      "d": 451.171875,
      "v": 84
    },
    {
      "midi": 50,
      "hit": false,
      "t": 123750,
      "d": 1798.828125,
      "v": 100
    },
    {
      "midi": 38,
      "hit": false,
      "t": 123750,
      "d": 5607.421875,
      "v": 112
    },
    {
      "midi": 65,
      "hit": false,
      "t": 123750,
      "d": 1822.265625,
      "v": 94
    },
    {
      "midi": 69,
      "hit": false,
      "t": 123750,
      "d": 5933.59375,
      "v": 97
    },
    {
      "midi": 60,
      "hit": false,
      "t": 123753.90625,
      "d": 1853.515625,
      "v": 101
    },
    {
      "midi": 62,
      "hit": false,
      "t": 123753.90625,
      "d": 1853.515625,
      "v": 103
    },
    {
      "midi": 50,
      "hit": false,
      "t": 125625,
      "d": 1798.828125,
      "v": 81
    },
    {
      "midi": 65,
      "hit": false,
      "t": 125625,
      "d": 1822.265625,
      "v": 82
    },
    {
      "midi": 60,
      "hit": false,
      "t": 125628.90625,
      "d": 1853.515625,
      "v": 89
    },
    {
      "midi": 62,
      "hit": false,
      "t": 125628.90625,
      "d": 1853.515625,
      "v": 91
    },
    {
      "midi": 50,
      "hit": false,
      "t": 127500,
      "d": 1867.1875,
      "v": 86
    },
    {
      "midi": 65,
      "hit": false,
      "t": 127500,
      "d": 1822.265625,
      "v": 82
    },
    {
      "midi": 60,
      "hit": false,
      "t": 127503.90625,
      "d": 1384.765625,
      "v": 89
    },
    {
      "midi": 62,
      "hit": false,
      "t": 127503.90625,
      "d": 1843.75,
      "v": 91
    },
    {
      "midi": 60,
      "hit": false,
      "t": 128910.15625,
      "d": 431.640625,
      "v": 104
    },
    {
      "midi": 65,
      "hit": false,
      "t": 129365.234375,
      "d": 441.40625,
      "v": 95
    },
    {
      "midi": 50,
      "hit": false,
      "t": 129375,
      "d": 445.3125,
      "v": 86
    },
    {
      "midi": 38,
      "hit": false,
      "t": 129375,
      "d": 1857.421875,
      "v": 86
    },
    {
      "midi": 67,
      "hit": false,
      "t": 129833.984375,
      "d": 464.84375,
      "v": 101
    },
    {
      "midi": 50,
      "hit": false,
      "t": 129843.75,
      "d": 1330.078125,
      "v": 81
    },
    {
      "midi": 69,
      "hit": false,
      "t": 130302.734375,
      "d": 851.5625,
      "v": 95
    },
    {
      "midi": 65,
      "hit": false,
      "t": 130771.484375,
      "d": 464.84375,
      "v": 101
    },
    {
      "midi": 60,
      "hit": false,
      "t": 131240.234375,
      "d": 1861.328125,
      "v": 95
    },
    {
      "midi": 48,
      "hit": false,
      "t": 131250,
      "d": 1798.828125,
      "v": 86
    },
    {
      "midi": 36,
      "hit": false,
      "t": 131250,
      "d": 5607.421875,
      "v": 112
    },
    {
      "midi": 64,
      "hit": false,
      "t": 131250,
      "d": 1779.296875,
      "v": 95
    },
    {
      "midi": 67,
      "hit": false,
      "t": 131253.90625,
      "d": 3693.359375,
      "v": 97
    },
    {
      "midi": 48,
      "hit": false,
      "t": 133125,
      "d": 1798.828125,
      "v": 81
    },
    {
      "midi": 60,
      "hit": false,
      "t": 133128.90625,
      "d": 1843.75,
      "v": 80
    },
    {
      "midi": 64,
      "hit": false,
      "t": 133128.90625,
      "d": 1853.515625,
      "v": 82
    },
    {
      "midi": 60,
      "hit": false,
      "t": 134990.234375,
      "d": 2775.390625,
      "v": 86
    },
    {
      "midi": 48,
      "hit": false,
      "t": 135000,
      "d": 861.328125,
      "v": 86
    },
    {
      "midi": 64,
      "hit": false,
      "t": 135000,
      "d": 2716.796875,
      "v": 85
    },
    {
      "midi": 67,
      "hit": false,
      "t": 135000,
      "d": 2716.796875,
      "v": 86
    },
    {
      "midi": 48,
      "hit": false,
      "t": 135937.5,
      "d": 861.328125,
      "v": 76
    },
    {
      "midi": 60,
      "hit": false,
      "t": 136875,
      "d": 861.328125,
      "v": 81
    },
    {
      "midi": 36,
      "hit": false,
      "t": 136875,
      "d": 1857.421875,
      "v": 86
    },
    {
      "midi": 48,
      "hit": false,
      "t": 137812.5,
      "d": 861.328125,
      "v": 76
    },
    {
      "midi": 60,
      "hit": false,
      "t": 137816.40625,
      "d": 447.265625,
      "v": 97
    },
    {
      "midi": 65,
      "hit": false,
      "t": 137816.40625,
      "d": 447.265625,
      "v": 102
    },
    {
      "midi": 67,
      "hit": false,
      "t": 137816.40625,
      "d": 447.265625,
      "v": 97
    },
    {
      "midi": 64,
      "hit": false,
      "t": 138271.484375,
      "d": 464.84375,
      "v": 101
    },
    {
      "midi": 60,
      "hit": false,
      "t": 138744.140625,
      "d": 916.015625,
      "v": 96
    },
    {
      "midi": 38,
      "hit": false,
      "t": 138750,
      "d": 1798.828125,
      "v": 83
    },
    {
      "midi": 50,
      "hit": false,
      "t": 138750,
      "d": 1798.828125,
      "v": 102
    },
    {
      "midi": 65,
      "hit": false,
      "t": 138753.90625,
      "d": 1853.515625,
      "v": 91
    },
    {
      "midi": 69,
      "hit": false,
      "t": 138753.90625,
      "d": 1853.515625,
      "v": 91
    },
    {
      "midi": 60,
      "hit": false,
      "t": 139677.734375,
      "d": 910.15625,
      "v": 87
    },
    {
      "midi": 60,
      "hit": false,
      "t": 140619.140625,
      "d": 890.625,
      "v": 89
    },
    {
      "midi": 38,
      "hit": false,
      "t": 140625,
      "d": 1798.828125,
      "v": 78
    },
    {
      "midi": 50,
      "hit": false,
      "t": 140625,
      "d": 1798.828125,
      "v": 97
    },
    {
      "midi": 69,
      "hit": false,
      "t": 140625,
      "d": 919.921875,
      "v": 88
    },
    {
      "midi": 65,
      "hit": false,
      "t": 140628.90625,
      "d": 1824.21875,
      "v": 99
    },
    {
      "midi": 60,
      "hit": false,
      "t": 141556.640625,
      "d": 919.921875,
      "v": 86
    },
    {
      "midi": 69,
      "hit": false,
      "t": 142490.234375,
      "d": 919.921875,
      "v": 87
    },
    {
      "midi": 65,
      "hit": false,
      "t": 142494.140625,
      "d": 1833.984375,
      "v": 89
    },
    {
      "midi": 38,
      "hit": false,
      "t": 142500,
      "d": 1798.828125,
      "v": 83
    },
    {
      "midi": 50,
      "hit": false,
      "t": 142500,
      "d": 1798.828125,
      "v": 102
    },
    {
      "midi": 60,
      "hit": false,
      "t": 142509.765625,
      "d": 910.15625,
      "v": 89
    },
    {
      "midi": 60,
      "hit": false,
      "t": 143431.640625,
      "d": 919.921875,
      "v": 94
    },
    {
      "midi": 60,
      "hit": false,
      "t": 144369.140625,
      "d": 1828.125,
      "v": 84
    },
    {
      "midi": 38,
      "hit": false,
      "t": 144375,
      "d": 1798.828125,
      "v": 78
    },
    {
      "midi": 50,
      "hit": false,
      "t": 144375,
      "d": 1798.828125,
      "v": 97
    },
    {
      "midi": 65,
      "hit": false,
      "t": 144378.90625,
      "d": 447.265625,
      "v": 100
    },
    {
      "midi": 67,
      "hit": false,
      "t": 144837.890625,
      "d": 919.921875,
      "v": 97
    },
    {
      "midi": 69,
      "hit": false,
      "t": 145791.015625,
      "d": 451.171875,
      "v": 94
    },
    {
      "midi": 60,
      "hit": false,
      "t": 146244.140625,
      "d": 1779.296875,
      "v": 87
    },
    {
      "midi": 64,
      "hit": false,
      "t": 146244.140625,
      "d": 1779.296875,
      "v": 87
    },
    {
      "midi": 67,
      "hit": false,
      "t": 146244.140625,
      "d": 1837.890625,
      "v": 87
    },
    {
      "midi": 36,
      "hit": false,
      "t": 146250,
      "d": 1847.65625,
      "v": 75
    },
    {
      "midi": 48,
      "hit": false,
      "t": 146250,
      "d": 1847.65625,
      "v": 94
    },
    {
      "midi": 36,
      "hit": false,
      "t": 148125,
      "d": 1847.65625,
      "v": 75
    },
    {
      "midi": 48,
      "hit": false,
      "t": 148125,
      "d": 1847.65625,
      "v": 94
    },
    {
      "midi": 67,
      "hit": false,
      "t": 148125,
      "d": 1822.265625,
      "v": 92
    },
    {
      "midi": 64,
      "hit": false,
      "t": 148134.765625,
      "d": 1828.125,
      "v": 88
    },
    {
      "midi": 60,
      "hit": false,
      "t": 148134.765625,
      "d": 1837.890625,
      "v": 88
    },
    {
      "midi": 67,
      "hit": false,
      "t": 149994.140625,
      "d": 1853.515625,
      "v": 102
    },
    {
      "midi": 36,
      "hit": false,
      "t": 150000,
      "d": 1847.65625,
      "v": 75
    },
    {
      "midi": 48,
      "hit": false,
      "t": 150000,
      "d": 1847.65625,
      "v": 94
    },
    {
      "midi": 60,
      "hit": false,
      "t": 150003.90625,
      "d": 1310.546875,
      "v": 85
    },
    {
      "midi": 64,
      "hit": false,
      "t": 150003.90625,
      "d": 3728.515625,
      "v": 85
    },
    {
      "midi": 60,
      "hit": false,
      "t": 151406.25,
      "d": 451.171875,
      "v": 91
    },
    {
      "midi": 36,
      "hit": false,
      "t": 151875,
      "d": 1798.828125,
      "v": 68
    },
    {
      "midi": 48,
      "hit": false,
      "t": 151875,
      "d": 1798.828125,
      "v": 87
    },
    {
      "midi": 67,
      "hit": false,
      "t": 151875,
      "d": 451.171875,
      "v": 98
    },
    {
      "midi": 72,
      "hit": false,
      "t": 152343.75,
      "d": 919.921875,
      "v": 98
    },
    {
      "midi": 67,
      "hit": false,
      "t": 153281.25,
      "d": 445.3125,
      "v": 94
    },
    {
      "midi": 50,
      "hit": false,
      "t": 153750,
      "d": 1798.828125,
      "v": 100
    },
    {
      "midi": 38,
      "hit": false,
      "t": 153750,
      "d": 5607.421875,
      "v": 112
    },
    {
      "midi": 65,
      "hit": false,
      "t": 153750,
      "d": 1822.265625,
      "v": 94
    },
    {
      "midi": 69,
      "hit": false,
      "t": 153750,
      "d": 5933.59375,
      "v": 97
    },
    {
      "midi": 60,
      "hit": false,
      "t": 153753.90625,
      "d": 1853.515625,
      "v": 101
    },
    {
      "midi": 62,
      "hit": false,
      "t": 153753.90625,
      "d": 1853.515625,
      "v": 103
    },
    {
      "midi": 50,
      "hit": false,
      "t": 155625,
      "d": 1798.828125,
      "v": 81
    },
    {
      "midi": 65,
      "hit": false,
      "t": 155625,
      "d": 1822.265625,
      "v": 82
    },
    {
      "midi": 60,
      "hit": false,
      "t": 155628.90625,
      "d": 1853.515625,
      "v": 89
    },
    {
      "midi": 62,
      "hit": false,
      "t": 155628.90625,
      "d": 1853.515625,
      "v": 91
    },
    {
      "midi": 50,
      "hit": false,
      "t": 157500,
      "d": 1867.1875,
      "v": 86
    },
    {
      "midi": 60,
      "hit": false,
      "t": 157972.65625,
      "d": 1384.765625,
      "v": 89
    },
    {
      "midi": 65,
      "hit": false,
      "t": 158437.5,
      "d": 884.765625,
      "v": 82
    },
    {
      "midi": 62,
      "hit": false,
      "t": 158441.40625,
      "d": 916.015625,
      "v": 91
    },
    {
      "midi": 50,
      "hit": false,
      "t": 159375,
      "d": 445.3125,
      "v": 86
    },
    {
      "midi": 38,
      "hit": false,
      "t": 159375,
      "d": 1857.421875,
      "v": 86
    },
    {
      "midi": 67,
      "hit": false,
      "t": 159375,
      "d": 451.171875,
      "v": 100
    },
    {
      "midi": 69,
      "hit": false,
      "t": 159833.984375,
      "d": 699.21875,
      "v": 101
    },
    {
      "midi": 50,
      "hit": false,
      "t": 159843.75,
      "d": 1330.078125,
      "v": 81
    },
    {
      "midi": 65,
      "hit": false,
      "t": 160302.734375,
      "d": 851.5625,
      "v": 95
    },
    {
      "midi": 60,
      "hit": false,
      "t": 160785.15625,
      "d": 431.640625,
      "v": 104
    },
    {
      "midi": 60,
      "hit": false,
      "t": 161240.234375,
      "d": 1861.328125,
      "v": 95
    },
    {
      "midi": 48,
      "hit": false,
      "t": 161250,
      "d": 1798.828125,
      "v": 86
    },
    {
      "midi": 36,
      "hit": false,
      "t": 161250,
      "d": 5607.421875,
      "v": 112
    },
    {
      "midi": 64,
      "hit": false,
      "t": 161250,
      "d": 1779.296875,
      "v": 95
    },
    {
      "midi": 67,
      "hit": false,
      "t": 161253.90625,
      "d": 3693.359375,
      "v": 97
    },
    {
      "midi": 48,
      "hit": false,
      "t": 163125,
      "d": 1798.828125,
      "v": 81
    },
    {
      "midi": 60,
      "hit": false,
      "t": 163128.90625,
      "d": 1843.75,
      "v": 80
    },
    {
      "midi": 64,
      "hit": false,
      "t": 163128.90625,
      "d": 1853.515625,
      "v": 82
    },
    {
      "midi": 60,
      "hit": false,
      "t": 164990.234375,
      "d": 1837.890625,
      "v": 86
    },
    {
      "midi": 48,
      "hit": false,
      "t": 165000,
      "d": 861.328125,
      "v": 86
    },
    {
      "midi": 64,
      "hit": false,
      "t": 165000,
      "d": 1779.296875,
      "v": 85
    },
    {
      "midi": 67,
      "hit": false,
      "t": 165000,
      "d": 1779.296875,
      "v": 86
    },
    {
      "midi": 48,
      "hit": false,
      "t": 165937.5,
      "d": 861.328125,
      "v": 76
    },
    {
      "midi": 60,
      "hit": false,
      "t": 166875,
      "d": 861.328125,
      "v": 81
    },
    {
      "midi": 36,
      "hit": false,
      "t": 166875,
      "d": 1857.421875,
      "v": 86
    },
    {
      "midi": 65,
      "hit": false,
      "t": 166878.90625,
      "d": 447.265625,
      "v": 108
    },
    {
      "midi": 67,
      "hit": false,
      "t": 166878.90625,
      "d": 916.015625,
      "v": 97
    },
    {
      "midi": 60,
      "hit": false,
      "t": 166878.90625,
      "d": 1378.90625,
      "v": 97
    },
    {
      "midi": 64,
      "hit": false,
      "t": 167347.65625,
      "d": 916.015625,
      "v": 105
    },
    {
      "midi": 48,
      "hit": false,
      "t": 167812.5,
      "d": 861.328125,
      "v": 76
    },
    {
      "midi": 67,
      "hit": false,
      "t": 167816.40625,
      "d": 916.015625,
      "v": 97
    },
    {
      "midi": 60,
      "hit": false,
      "t": 168285.15625,
      "d": 447.265625,
      "v": 97
    },
    {
      "midi": 38,
      "hit": false,
      "t": 168750,
      "d": 1798.828125,
      "v": 83
    },
    {
      "midi": 50,
      "hit": false,
      "t": 168750,
      "d": 1798.828125,
      "v": 102
    },
    {
      "midi": 65,
      "hit": false,
      "t": 168750,
      "d": 1822.265625,
      "v": 94
    },
    {
      "midi": 69,
      "hit": false,
      "t": 168750,
      "d": 4660.15625,
      "v": 97
    },
    {
      "midi": 60,
      "hit": false,
      "t": 168753.90625,
      "d": 1853.515625,
      "v": 101
    },
    {
      "midi": 62,
      "hit": false,
      "t": 168753.90625,
      "d": 1853.515625,
      "v": 103
    },
    {
      "midi": 38,
      "hit": false,
      "t": 170625,
      "d": 1798.828125,
      "v": 78
    },
    {
      "midi": 50,
      "hit": false,
      "t": 170625,
      "d": 1798.828125,
      "v": 97
    },
    {
      "midi": 65,
      "hit": false,
      "t": 170625,
      "d": 1822.265625,
      "v": 82
    },
    {
      "midi": 60,
      "hit": false,
      "t": 170628.90625,
      "d": 1296.875,
      "v": 89
    },
    {
      "midi": 62,
      "hit": false,
      "t": 170628.90625,
      "d": 1853.515625,
      "v": 91
    },
    {
      "midi": 60,
      "hit": false,
      "t": 172031.25,
      "d": 451.171875,
      "v": 94
    },
    {
      "midi": 38,
      "hit": false,
      "t": 172500,
      "d": 1798.828125,
      "v": 83
    },
    {
      "midi": 50,
      "hit": false,
      "t": 172500,
      "d": 1798.828125,
      "v": 102
    },
    {
      "midi": 65,
      "hit": false,
      "t": 172500,
      "d": 1822.265625,
      "v": 82
    },
    {
      "midi": 60,
      "hit": false,
      "t": 172503.90625,
      "d": 1853.515625,
      "v": 89
    },
    {
      "midi": 62,
      "hit": false,
      "t": 172503.90625,
      "d": 1853.515625,
      "v": 91
    },
    {
      "midi": 69,
      "hit": false,
      "t": 173437.5,
      "d": 919.921875,
      "v": 94
    },
    {
      "midi": 38,
      "hit": false,
      "t": 174375,
      "d": 1798.828125,
      "v": 78
    },
    {
      "midi": 50,
      "hit": false,
      "t": 174375,
      "d": 1798.828125,
      "v": 97
    },
    {
      "midi": 69,
      "hit": false,
      "t": 174375,
      "d": 451.171875,
      "v": 87
    },
    {
      "midi": 67,
      "hit": false,
      "t": 174843.75,
      "d": 451.171875,
      "v": 87
    },
    {
      "midi": 60,
      "hit": false,
      "t": 174847.65625,
      "d": 1369.140625,
      "v": 104
    },
    {
      "midi": 65,
      "hit": false,
      "t": 175302.734375,
      "d": 382.8125,
      "v": 95
    },
    {
      "midi": 69,
      "hit": false,
      "t": 175302.734375,
      "d": 699.21875,
      "v": 101
    },
    {
      "midi": 65,
      "hit": false,
      "t": 175781.25,
      "d": 451.171875,
      "v": 91
    },
    {
      "midi": 67,
      "hit": false,
      "t": 176244.140625,
      "d": 3728.515625,
      "v": 102
    },
    {
      "midi": 36,
      "hit": false,
      "t": 176250,
      "d": 1847.65625,
      "v": 75
    },
    {
      "midi": 48,
      "hit": false,
      "t": 176250,
      "d": 1847.65625,
      "v": 94
    },
    {
      "midi": 60,
      "hit": false,
      "t": 176253.90625,
      "d": 3654.296875,
      "v": 85
    },
    {
      "midi": 64,
      "hit": false,
      "t": 176253.90625,
      "d": 3728.515625,
      "v": 85
    },
    {
      "midi": 36,
      "hit": false,
      "t": 178125,
      "d": 1847.65625,
      "v": 75
    },
    {
      "midi": 48,
      "hit": false,
      "t": 178125,
      "d": 1847.65625,
      "v": 94
    },
    {
      "midi": 60,
      "hit": false,
      "t": 179994.140625,
      "d": 1779.296875,
      "v": 87
    },
    {
      "midi": 64,
      "hit": false,
      "t": 179994.140625,
      "d": 1779.296875,
      "v": 87
    },
    {
      "midi": 67,
      "hit": false,
      "t": 179994.140625,
      "d": 1837.890625,
      "v": 87
    },
    {
      "midi": 36,
      "hit": false,
      "t": 180000,
      "d": 1847.65625,
      "v": 75
    },
    {
      "midi": 48,
      "hit": false,
      "t": 180000,
      "d": 1847.65625,
      "v": 94
    },
    {
      "midi": 36,
      "hit": false,
      "t": 181875,
      "d": 1798.828125,
      "v": 68
    },
    {
      "midi": 48,
      "hit": false,
      "t": 181875,
      "d": 1798.828125,
      "v": 87
    },
    {
      "midi": 67,
      "hit": false,
      "t": 181875,
      "d": 1822.265625,
      "v": 99
    },
    {
      "midi": 60,
      "hit": false,
      "t": 181884.765625,
      "d": 900.390625,
      "v": 88
    },
    {
      "midi": 64,
      "hit": false,
      "t": 181884.765625,
      "d": 1828.125,
      "v": 88
    },
    {
      "midi": 60,
      "hit": false,
      "t": 182812.5,
      "d": 914.0625,
      "v": 101
    },
    {
      "midi": 34,
      "hit": false,
      "t": 183750,
      "d": 3732.421875,
      "v": 107
    },
    {
      "midi": 50,
      "hit": false,
      "t": 183750,
      "d": 3732.421875,
      "v": 107
    },
    {
      "midi": 60,
      "hit": false,
      "t": 183750,
      "d": 919.921875,
      "v": 99
    },
    {
      "midi": 67,
      "hit": false,
      "t": 183753.90625,
      "d": 1853.515625,
      "v": 102
    },
    {
      "midi": 65,
      "hit": false,
      "t": 183753.90625,
      "d": 3728.515625,
      "v": 102
    },
    {
      "midi": 50,
      "hit": false,
      "t": 187500,
      "d": 919.921875,
      "v": 97
    },
    {
      "midi": 34,
      "hit": false,
      "t": 187500,
      "d": 3673.828125,
      "v": 97
    },
    {
      "midi": 58,
      "hit": false,
      "t": 187500,
      "d": 2794.921875,
      "v": 88
    },
    {
      "midi": 69,
      "hit": false,
      "t": 187958.984375,
      "d": 796.875,
      "v": 107
    },
    {
      "midi": 50,
      "hit": false,
      "t": 188437.5,
      "d": 1857.421875,
      "v": 92
    },
    {
      "midi": 67,
      "hit": false,
      "t": 188906.25,
      "d": 871.09375,
      "v": 105
    },
    {
      "midi": 65,
      "hit": false,
      "t": 189853.515625,
      "d": 1378.90625,
      "v": 107
    },
    {
      "midi": 50,
      "hit": false,
      "t": 190312.5,
      "d": 919.921875,
      "v": 97
    },
    {
      "midi": 33,
      "hit": false,
      "t": 191250,
      "d": 3732.421875,
      "v": 97
    },
    {
      "midi": 48,
      "hit": false,
      "t": 191250,
      "d": 3732.421875,
      "v": 97
    },
    {
      "midi": 64,
      "hit": false,
      "t": 191250,
      "d": 914.0625,
      "v": 88
    },
    {
      "midi": 67,
      "hit": false,
      "t": 191253.90625,
      "d": 3728.515625,
      "v": 91
    },
    {
      "midi": 65,
      "hit": false,
      "t": 192181.640625,
      "d": 451.171875,
      "v": 98
    },
    {
      "midi": 64,
      "hit": false,
      "t": 192650.390625,
      "d": 880.859375,
      "v": 107
    },
    {
      "midi": 60,
      "hit": false,
      "t": 193587.890625,
      "d": 919.921875,
      "v": 100
    },
    {
      "midi": 57,
      "hit": false,
      "t": 194525.390625,
      "d": 2791.015625,
      "v": 98
    },
    {
      "midi": 33,
      "hit": false,
      "t": 195000,
      "d": 3732.421875,
      "v": 97
    },
    {
      "midi": 48,
      "hit": false,
      "t": 195000,
      "d": 3732.421875,
      "v": 97
    },
    {
      "midi": 60,
      "hit": false,
      "t": 195000,
      "d": 919.921875,
      "v": 88
    },
    {
      "midi": 67,
      "hit": false,
      "t": 195003.90625,
      "d": 916.015625,
      "v": 91
    },
    {
      "midi": 64,
      "hit": false,
      "t": 195003.90625,
      "d": 1384.765625,
      "v": 91
    },
    {
      "midi": 60,
      "hit": false,
      "t": 195941.40625,
      "d": 447.265625,
      "v": 98
    },
    {
      "midi": 64,
      "hit": false,
      "t": 196406.25,
      "d": 455.078125,
      "v": 107
    },
    {
      "midi": 57,
      "hit": false,
      "t": 197337.890625,
      "d": 1789.0625,
      "v": 107
    },
    {
      "midi": 65,
      "hit": false,
      "t": 197343.75,
      "d": 1388.671875,
      "v": 107
    },
    {
      "midi": 34,
      "hit": false,
      "t": 198750,
      "d": 3732.421875,
      "v": 97
    },
    {
      "midi": 50,
      "hit": false,
      "t": 198750,
      "d": 3732.421875,
      "v": 97
    },
    {
      "midi": 60,
      "hit": false,
      "t": 198750,
      "d": 919.921875,
      "v": 88
    },
    {
      "midi": 69,
      "hit": false,
      "t": 198753.90625,
      "d": 1384.765625,
      "v": 91
    },
    {
      "midi": 65,
      "hit": false,
      "t": 198753.90625,
      "d": 1853.515625,
      "v": 91
    },
    {
      "midi": 69,
      "hit": false,
      "t": 201097.65625,
      "d": 437.5,
      "v": 110
    },
    {
      "midi": 65,
      "hit": false,
      "t": 201552.734375,
      "d": 451.171875,
      "v": 104
    },
    {
      "midi": 60,
      "hit": false,
      "t": 202025.390625,
      "d": 408.203125,
      "v": 105
    },
    {
      "midi": 34,
      "hit": false,
      "t": 202500,
      "d": 3732.421875,
      "v": 97
    },
    {
      "midi": 50,
      "hit": false,
      "t": 202500,
      "d": 3732.421875,
      "v": 97
    },
    {
      "midi": 58,
      "hit": false,
      "t": 202500,
      "d": 1388.671875,
      "v": 88
    },
    {
      "midi": 60,
      "hit": false,
      "t": 202500,
      "d": 1388.671875,
      "v": 88
    },
    {
      "midi": 67,
      "hit": false,
      "t": 202503.90625,
      "d": 916.015625,
      "v": 91
    },
    {
      "midi": 67,
      "hit": false,
      "t": 204359.375,
      "d": 451.171875,
      "v": 107
    },
    {
      "midi": 69,
      "hit": false,
      "t": 204837.890625,
      "d": 412.109375,
      "v": 105
    },
    {
      "midi": 65,
      "hit": false,
      "t": 205296.875,
      "d": 398.4375,
      "v": 106
    },
    {
      "midi": 60,
      "hit": false,
      "t": 205781.25,
      "d": 421.875,
      "v": 104
    },
    {
      "midi": 33,
      "hit": false,
      "t": 206250,
      "d": 3732.421875,
      "v": 97
    },
    {
      "midi": 48,
      "hit": false,
      "t": 206250,
      "d": 3732.421875,
      "v": 97
    },
    {
      "midi": 60,
      "hit": false,
      "t": 206250,
      "d": 910.15625,
      "v": 88
    },
    {
      "midi": 67,
      "hit": false,
      "t": 206253.90625,
      "d": 916.015625,
      "v": 91
    },
    {
      "midi": 64,
      "hit": false,
      "t": 206253.90625,
      "d": 1384.765625,
      "v": 91
    },
    {
      "midi": 60,
      "hit": false,
      "t": 207187.5,
      "d": 1388.671875,
      "v": 93
    },
    {
      "midi": 72,
      "hit": false,
      "t": 207421.875,
      "d": 5386.71875,
      "v": 1
    },
    {
      "midi": 64,
      "hit": false,
      "t": 207656.25,
      "d": 871.09375,
      "v": 102
    },
    {
      "midi": 65,
      "hit": false,
      "t": 208593.75,
      "d": 451.171875,
      "v": 93
    },
    {
      "midi": 64,
      "hit": false,
      "t": 209062.5,
      "d": 3693.359375,
      "v": 102
    },
    {
      "midi": 60,
      "hit": false,
      "t": 209062.5,
      "d": 4669.921875,
      "v": 96
    },
    {
      "midi": 48,
      "hit": false,
      "t": 210000,
      "d": 1857.421875,
      "v": 97
    },
    {
      "midi": 33,
      "hit": false,
      "t": 210000,
      "d": 3732.421875,
      "v": 97
    },
    {
      "midi": 48,
      "hit": false,
      "t": 211875,
      "d": 1857.421875,
      "v": 92
    },
    {
      "midi": 65,
      "hit": false,
      "t": 212812.5,
      "d": 464.84375,
      "v": 1
    },
    {
      "midi": 72,
      "hit": false,
      "t": 212812.5,
      "d": 464.84375,
      "v": 1
    },
    {
      "midi": 65,
      "hit": false,
      "t": 212816.40625,
      "d": 916.015625,
      "v": 96
    },
    {
      "midi": 64,
      "hit": false,
      "t": 213281.25,
      "d": 451.171875,
      "v": 90
    },
    {
      "midi": 64,
      "hit": false,
      "t": 213281.25,
      "d": 464.84375,
      "v": 1
    },
    {
      "midi": 70,
      "hit": false,
      "t": 213281.25,
      "d": 464.84375,
      "v": 1
    },
    {
      "midi": 34,
      "hit": false,
      "t": 213750,
      "d": 3732.421875,
      "v": 107
    },
    {
      "midi": 50,
      "hit": false,
      "t": 213750,
      "d": 3732.421875,
      "v": 107
    },
    {
      "midi": 60,
      "hit": false,
      "t": 213750,
      "d": 919.921875,
      "v": 99
    },
    {
      "midi": 65,
      "hit": false,
      "t": 213750,
      "d": 933.59375,
      "v": 1
    },
    {
      "midi": 69,
      "hit": false,
      "t": 213750,
      "d": 933.59375,
      "v": 1
    },
    {
      "midi": 58,
      "hit": false,
      "t": 213753.90625,
      "d": 1853.515625,
      "v": 102
    },
    {
      "midi": 65,
      "hit": false,
      "t": 213753.90625,
      "d": 3728.515625,
      "v": 102
    },
    {
      "midi": 60,
      "hit": false,
      "t": 214687.5,
      "d": 464.84375,
      "v": 1
    },
    {
      "midi": 65,
      "hit": false,
      "t": 214687.5,
      "d": 464.84375,
      "v": 1
    },
    {
      "midi": 62,
      "hit": false,
      "t": 215156.25,
      "d": 6089.84375,
      "v": 1
    },
    {
      "midi": 67,
      "hit": false,
      "t": 215156.25,
      "d": 6089.84375,
      "v": 1
    },
    {
      "midi": 62,
      "hit": false,
      "t": 217490.234375,
      "d": 796.875,
      "v": 107
    },
    {
      "midi": 67,
      "hit": false,
      "t": 217490.234375,
      "d": 796.875,
      "v": 107
    },
    {
      "midi": 50,
      "hit": false,
      "t": 217500,
      "d": 919.921875,
      "v": 97
    },
    {
      "midi": 34,
      "hit": false,
      "t": 217500,
      "d": 3673.828125,
      "v": 97
    },
    {
      "midi": 58,
      "hit": false,
      "t": 217500,
      "d": 1388.671875,
      "v": 88
    },
    {
      "midi": 50,
      "hit": false,
      "t": 218437.5,
      "d": 1857.421875,
      "v": 92
    },
    {
      "midi": 58,
      "hit": false,
      "t": 218906.25,
      "d": 871.09375,
      "v": 105
    },
    {
      "midi": 65,
      "hit": false,
      "t": 218906.25,
      "d": 871.09375,
      "v": 105
    },
    {
      "midi": 60,
      "hit": false,
      "t": 219853.515625,
      "d": 441.40625,
      "v": 107
    },
    {
      "midi": 50,
      "hit": false,
      "t": 220312.5,
      "d": 919.921875,
      "v": 97
    },
    {
      "midi": 50,
      "hit": false,
      "t": 220312.5,
      "d": 914.0625,
      "v": 88
    },
    {
      "midi": 58,
      "hit": false,
      "t": 220312.5,
      "d": 914.0625,
      "v": 88
    },
    {
      "midi": 33,
      "hit": false,
      "t": 221250,
      "d": 3732.421875,
      "v": 97
    },
    {
      "midi": 48,
      "hit": false,
      "t": 221250,
      "d": 3732.421875,
      "v": 97
    },
    {
      "midi": 64,
      "hit": false,
      "t": 221250,
      "d": 914.0625,
      "v": 88
    },
    {
      "midi": 60,
      "hit": false,
      "t": 221250,
      "d": 464.84375,
      "v": 1
    },
    {
      "midi": 67,
      "hit": false,
      "t": 221250,
      "d": 464.84375,
      "v": 1
    },
    {
      "midi": 67,
      "hit": false,
      "t": 221253.90625,
      "d": 3728.515625,
      "v": 91
    },
    {
      "midi": 60,
      "hit": false,
      "t": 221718.75,
      "d": 464.84375,
      "v": 1
    },
    {
      "midi": 65,
      "hit": false,
      "t": 221718.75,
      "d": 464.84375,
      "v": 1
    },
    {
      "midi": 60,
      "hit": false,
      "t": 222187.5,
      "d": 464.84375,
      "v": 1
    },
    {
      "midi": 67,
      "hit": false,
      "t": 222187.5,
      "d": 464.84375,
      "v": 1
    },
    {
      "midi": 60,
      "hit": false,
      "t": 222650.390625,
      "d": 919.921875,
      "v": 98
    },
    {
      "midi": 60,
      "hit": false,
      "t": 222656.25,
      "d": 464.84375,
      "v": 1
    },
    {
      "midi": 65,
      "hit": false,
      "t": 222656.25,
      "d": 464.84375,
      "v": 1
    },
    {
      "midi": 60,
      "hit": false,
      "t": 223125,
      "d": 933.59375,
      "v": 1
    },
    {
      "midi": 67,
      "hit": false,
      "t": 223125,
      "d": 933.59375,
      "v": 1
    },
    {
      "midi": 64,
      "hit": false,
      "t": 223587.890625,
      "d": 880.859375,
      "v": 107
    },
    {
      "midi": 60,
      "hit": false,
      "t": 224062.5,
      "d": 464.84375,
      "v": 1
    },
    {
      "midi": 65,
      "hit": false,
      "t": 224062.5,
      "d": 464.84375,
      "v": 1
    },
    {
      "midi": 57,
      "hit": false,
      "t": 224525.390625,
      "d": 2791.015625,
      "v": 98
    },
    {
      "midi": 64,
      "hit": false,
      "t": 224531.25,
      "d": 2808.59375,
      "v": 1
    },
    {
      "midi": 69,
      "hit": false,
      "t": 224531.25,
      "d": 2808.59375,
      "v": 1
    },
    {
      "midi": 33,
      "hit": false,
      "t": 225000,
      "d": 3732.421875,
      "v": 97
    },
    {
      "midi": 48,
      "hit": false,
      "t": 225000,
      "d": 3732.421875,
      "v": 97
    },
    {
      "midi": 60,
      "hit": false,
      "t": 225000,
      "d": 919.921875,
      "v": 88
    },
    {
      "midi": 67,
      "hit": false,
      "t": 225003.90625,
      "d": 916.015625,
      "v": 91
    },
    {
      "midi": 64,
      "hit": false,
      "t": 225003.90625,
      "d": 1384.765625,
      "v": 91
    },
    {
      "midi": 60,
      "hit": false,
      "t": 225941.40625,
      "d": 447.265625,
      "v": 98
    },
    {
      "midi": 64,
      "hit": false,
      "t": 226406.25,
      "d": 914.0625,
      "v": 107
    },
    {
      "midi": 57,
      "hit": false,
      "t": 227337.890625,
      "d": 1320.3125,
      "v": 107
    },
    {
      "midi": 65,
      "hit": false,
      "t": 227343.75,
      "d": 1388.671875,
      "v": 107
    },
    {
      "midi": 65,
      "hit": false,
      "t": 227343.75,
      "d": 464.84375,
      "v": 1
    },
    {
      "midi": 72,
      "hit": false,
      "t": 227343.75,
      "d": 464.84375,
      "v": 1
    },
    {
      "midi": 64,
      "hit": false,
      "t": 227812.5,
      "d": 464.84375,
      "v": 1
    },
    {
      "midi": 70,
      "hit": false,
      "t": 227812.5,
      "d": 464.84375,
      "v": 1
    },
    {
      "midi": 65,
      "hit": false,
      "t": 228281.25,
      "d": 1402.34375,
      "v": 1
    },
    {
      "midi": 69,
      "hit": false,
      "t": 228281.25,
      "d": 1402.34375,
      "v": 1
    },
    {
      "midi": 34,
      "hit": false,
      "t": 228750,
      "d": 3732.421875,
      "v": 97
    },
    {
      "midi": 50,
      "hit": false,
      "t": 228750,
      "d": 3732.421875,
      "v": 97
    },
    {
      "midi": 60,
      "hit": false,
      "t": 228750,
      "d": 919.921875,
      "v": 99
    },
    {
      "midi": 58,
      "hit": false,
      "t": 228753.90625,
      "d": 1853.515625,
      "v": 102
    },
    {
      "midi": 65,
      "hit": false,
      "t": 228753.90625,
      "d": 3728.515625,
      "v": 102
    },
    {
      "midi": 60,
      "hit": false,
      "t": 229687.5,
      "d": 464.84375,
      "v": 1
    },
    {
      "midi": 65,
      "hit": false,
      "t": 229687.5,
      "d": 464.84375,
      "v": 1
    },
    {
      "midi": 62,
      "hit": false,
      "t": 230156.25,
      "d": 6089.84375,
      "v": 1
    },
    {
      "midi": 67,
      "hit": false,
      "t": 230156.25,
      "d": 6089.84375,
      "v": 1
    },
    {
      "midi": 62,
      "hit": false,
      "t": 232490.234375,
      "d": 796.875,
      "v": 107
    },
    {
      "midi": 67,
      "hit": false,
      "t": 232490.234375,
      "d": 796.875,
      "v": 107
    },
    {
      "midi": 34,
      "hit": false,
      "t": 232500,
      "d": 3732.421875,
      "v": 97
    },
    {
      "midi": 50,
      "hit": false,
      "t": 232500,
      "d": 3732.421875,
      "v": 97
    },
    {
      "midi": 58,
      "hit": false,
      "t": 232500,
      "d": 1388.671875,
      "v": 88
    },
    {
      "midi": 58,
      "hit": false,
      "t": 233906.25,
      "d": 871.09375,
      "v": 105
    },
    {
      "midi": 65,
      "hit": false,
      "t": 233906.25,
      "d": 871.09375,
      "v": 105
    },
    {
      "midi": 60,
      "hit": false,
      "t": 234853.515625,
      "d": 441.40625,
      "v": 107
    },
    {
      "midi": 50,
      "hit": false,
      "t": 235312.5,
      "d": 914.0625,
      "v": 88
    },
    {
      "midi": 58,
      "hit": false,
      "t": 235312.5,
      "d": 914.0625,
      "v": 88
    },
    {
      "midi": 33,
      "hit": false,
      "t": 236250,
      "d": 3732.421875,
      "v": 97
    },
    {
      "midi": 48,
      "hit": false,
      "t": 236250,
      "d": 3732.421875,
      "v": 97
    },
    {
      "midi": 64,
      "hit": false,
      "t": 236250,
      "d": 914.0625,
      "v": 88
    },
    {
      "midi": 60,
      "hit": false,
      "t": 236250,
      "d": 464.84375,
      "v": 1
    },
    {
      "midi": 67,
      "hit": false,
      "t": 236250,
      "d": 464.84375,
      "v": 1
    },
    {
      "midi": 67,
      "hit": false,
      "t": 236253.90625,
      "d": 3728.515625,
      "v": 91
    },
    {
      "midi": 60,
      "hit": false,
      "t": 236718.75,
      "d": 464.84375,
      "v": 1
    },
    {
      "midi": 65,
      "hit": false,
      "t": 236718.75,
      "d": 464.84375,
      "v": 1
    },
    {
      "midi": 60,
      "hit": false,
      "t": 237187.5,
      "d": 464.84375,
      "v": 1
    },
    {
      "midi": 67,
      "hit": false,
      "t": 237187.5,
      "d": 464.84375,
      "v": 1
    },
    {
      "midi": 60,
      "hit": false,
      "t": 237650.390625,
      "d": 919.921875,
      "v": 98
    },
    {
      "midi": 60,
      "hit": false,
      "t": 237656.25,
      "d": 464.84375,
      "v": 1
    },
    {
      "midi": 65,
      "hit": false,
      "t": 237656.25,
      "d": 464.84375,
      "v": 1
    },
    {
      "midi": 60,
      "hit": false,
      "t": 238125,
      "d": 933.59375,
      "v": 1
    },
    {
      "midi": 67,
      "hit": false,
      "t": 238125,
      "d": 933.59375,
      "v": 1
    },
    {
      "midi": 64,
      "hit": false,
      "t": 238587.890625,
      "d": 880.859375,
      "v": 107
    },
    {
      "midi": 60,
      "hit": false,
      "t": 239062.5,
      "d": 464.84375,
      "v": 1
    },
    {
      "midi": 65,
      "hit": false,
      "t": 239062.5,
      "d": 464.84375,
      "v": 1
    },
    {
      "midi": 57,
      "hit": false,
      "t": 239525.390625,
      "d": 2791.015625,
      "v": 98
    },
    {
      "midi": 64,
      "hit": false,
      "t": 239531.25,
      "d": 2408.203125,
      "v": 1
    },
    {
      "midi": 69,
      "hit": false,
      "t": 239531.25,
      "d": 2408.203125,
      "v": 1
    },
    {
      "midi": 48,
      "hit": false,
      "t": 240000,
      "d": 1857.421875,
      "v": 97
    },
    {
      "midi": 33,
      "hit": false,
      "t": 240000,
      "d": 3732.421875,
      "v": 97
    },
    {
      "midi": 60,
      "hit": false,
      "t": 240000,
      "d": 919.921875,
      "v": 88
    },
    {
      "midi": 67,
      "hit": false,
      "t": 240003.90625,
      "d": 916.015625,
      "v": 91
    },
    {
      "midi": 64,
      "hit": false,
      "t": 240003.90625,
      "d": 1384.765625,
      "v": 91
    },
    {
      "midi": 60,
      "hit": false,
      "t": 240941.40625,
      "d": 447.265625,
      "v": 98
    },
    {
      "midi": 64,
      "hit": false,
      "t": 241406.25,
      "d": 455.078125,
      "v": 107
    },
    {
      "midi": 48,
      "hit": false,
      "t": 241875,
      "d": 1857.421875,
      "v": 92
    },
    {
      "midi": 67,
      "hit": false,
      "t": 241875,
      "d": 933.59375,
      "v": 1
    },
    {
      "midi": 57,
      "hit": false,
      "t": 242337.890625,
      "d": 1320.3125,
      "v": 107
    },
    {
      "midi": 65,
      "hit": false,
      "t": 242343.75,
      "d": 1388.671875,
      "v": 107
    },
    {
      "midi": 64,
      "hit": false,
      "t": 242812.5,
      "d": 464.84375,
      "v": 1
    },
    {
      "midi": 72,
      "hit": false,
      "t": 242812.5,
      "d": 464.84375,
      "v": 1
    },
    {
      "midi": 64,
      "hit": false,
      "t": 243281.25,
      "d": 480.46875,
      "v": 1
    },
    {
      "midi": 70,
      "hit": false,
      "t": 243281.25,
      "d": 480.46875,
      "v": 1
    },
    {
      "midi": 34,
      "hit": false,
      "t": 243750,
      "d": 3732.421875,
      "v": 107
    },
    {
      "midi": 50,
      "hit": false,
      "t": 243750,
      "d": 3732.421875,
      "v": 107
    },
    {
      "midi": 60,
      "hit": false,
      "t": 243750,
      "d": 919.921875,
      "v": 99
    },
    {
      "midi": 65,
      "hit": false,
      "t": 243750,
      "d": 933.59375,
      "v": 1
    },
    {
      "midi": 69,
      "hit": false,
      "t": 243750,
      "d": 933.59375,
      "v": 1
    },
    {
      "midi": 58,
      "hit": false,
      "t": 243753.90625,
      "d": 1853.515625,
      "v": 102
    },
    {
      "midi": 65,
      "hit": false,
      "t": 243753.90625,
      "d": 3728.515625,
      "v": 102
    },
    {
      "midi": 60,
      "hit": false,
      "t": 244687.5,
      "d": 464.84375,
      "v": 1
    },
    {
      "midi": 65,
      "hit": false,
      "t": 244687.5,
      "d": 464.84375,
      "v": 1
    },
    {
      "midi": 62,
      "hit": false,
      "t": 245156.25,
      "d": 6089.84375,
      "v": 1
    },
    {
      "midi": 67,
      "hit": false,
      "t": 245156.25,
      "d": 6089.84375,
      "v": 1
    },
    {
      "midi": 62,
      "hit": false,
      "t": 247490.234375,
      "d": 796.875,
      "v": 107
    },
    {
      "midi": 67,
      "hit": false,
      "t": 247490.234375,
      "d": 796.875,
      "v": 107
    },
    {
      "midi": 50,
      "hit": false,
      "t": 247500,
      "d": 919.921875,
      "v": 97
    },
    {
      "midi": 34,
      "hit": false,
      "t": 247500,
      "d": 3673.828125,
      "v": 97
    },
    {
      "midi": 58,
      "hit": false,
      "t": 247500,
      "d": 1388.671875,
      "v": 88
    },
    {
      "midi": 50,
      "hit": false,
      "t": 248437.5,
      "d": 1857.421875,
      "v": 92
    },
    {
      "midi": 58,
      "hit": false,
      "t": 248906.25,
      "d": 871.09375,
      "v": 105
    },
    {
      "midi": 65,
      "hit": false,
      "t": 248906.25,
      "d": 871.09375,
      "v": 105
    },
    {
      "midi": 60,
      "hit": false,
      "t": 249853.515625,
      "d": 441.40625,
      "v": 107
    },
    {
      "midi": 50,
      "hit": false,
      "t": 250312.5,
      "d": 919.921875,
      "v": 97
    },
    {
      "midi": 50,
      "hit": false,
      "t": 250312.5,
      "d": 914.0625,
      "v": 88
    },
    {
      "midi": 58,
      "hit": false,
      "t": 250312.5,
      "d": 914.0625,
      "v": 88
    },
    {
      "midi": 33,
      "hit": false,
      "t": 251250,
      "d": 3732.421875,
      "v": 97
    },
    {
      "midi": 48,
      "hit": false,
      "t": 251250,
      "d": 3732.421875,
      "v": 97
    },
    {
      "midi": 64,
      "hit": false,
      "t": 251250,
      "d": 914.0625,
      "v": 88
    },
    {
      "midi": 60,
      "hit": false,
      "t": 251250,
      "d": 464.84375,
      "v": 1
    },
    {
      "midi": 67,
      "hit": false,
      "t": 251250,
      "d": 464.84375,
      "v": 1
    },
    {
      "midi": 67,
      "hit": false,
      "t": 251253.90625,
      "d": 3728.515625,
      "v": 91
    },
    {
      "midi": 60,
      "hit": false,
      "t": 251718.75,
      "d": 464.84375,
      "v": 1
    },
    {
      "midi": 65,
      "hit": false,
      "t": 251718.75,
      "d": 464.84375,
      "v": 1
    },
    {
      "midi": 60,
      "hit": false,
      "t": 252187.5,
      "d": 464.84375,
      "v": 1
    },
    {
      "midi": 67,
      "hit": false,
      "t": 252187.5,
      "d": 464.84375,
      "v": 1
    },
    {
      "midi": 60,
      "hit": false,
      "t": 252650.390625,
      "d": 919.921875,
      "v": 98
    },
    {
      "midi": 60,
      "hit": false,
      "t": 252656.25,
      "d": 464.84375,
      "v": 1
    },
    {
      "midi": 65,
      "hit": false,
      "t": 252656.25,
      "d": 464.84375,
      "v": 1
    },
    {
      "midi": 60,
      "hit": false,
      "t": 253125,
      "d": 464.84375,
      "v": 1
    },
    {
      "midi": 67,
      "hit": false,
      "t": 253125,
      "d": 464.84375,
      "v": 1
    },
    {
      "midi": 64,
      "hit": false,
      "t": 253587.890625,
      "d": 880.859375,
      "v": 107
    },
    {
      "midi": 60,
      "hit": false,
      "t": 253593.75,
      "d": 464.84375,
      "v": 1
    },
    {
      "midi": 65,
      "hit": false,
      "t": 253593.75,
      "d": 464.84375,
      "v": 1
    },
    {
      "midi": 64,
      "hit": false,
      "t": 254062.5,
      "d": 3277.34375,
      "v": 1
    },
    {
      "midi": 69,
      "hit": false,
      "t": 254062.5,
      "d": 3277.34375,
      "v": 1
    },
    {
      "midi": 57,
      "hit": false,
      "t": 254525.390625,
      "d": 2791.015625,
      "v": 98
    },
    {
      "midi": 33,
      "hit": false,
      "t": 255000,
      "d": 3732.421875,
      "v": 97
    },
    {
      "midi": 48,
      "hit": false,
      "t": 255000,
      "d": 3732.421875,
      "v": 97
    },
    {
      "midi": 60,
      "hit": false,
      "t": 255000,
      "d": 919.921875,
      "v": 88
    },
    {
      "midi": 67,
      "hit": false,
      "t": 255003.90625,
      "d": 916.015625,
      "v": 91
    },
    {
      "midi": 64,
      "hit": false,
      "t": 255003.90625,
      "d": 1384.765625,
      "v": 91
    },
    {
      "midi": 60,
      "hit": false,
      "t": 255941.40625,
      "d": 447.265625,
      "v": 98
    },
    {
      "midi": 64,
      "hit": false,
      "t": 256406.25,
      "d": 914.0625,
      "v": 107
    },
    {
      "midi": 57,
      "hit": false,
      "t": 257337.890625,
      "d": 1320.3125,
      "v": 107
    },
    {
      "midi": 65,
      "hit": false,
      "t": 257343.75,
      "d": 1388.671875,
      "v": 107
    },
    {
      "midi": 65,
      "hit": false,
      "t": 257343.75,
      "d": 464.84375,
      "v": 1
    },
    {
      "midi": 72,
      "hit": false,
      "t": 257343.75,
      "d": 464.84375,
      "v": 1
    },
    {
      "midi": 64,
      "hit": false,
      "t": 257812.5,
      "d": 464.84375,
      "v": 1
    },
    {
      "midi": 70,
      "hit": false,
      "t": 257812.5,
      "d": 464.84375,
      "v": 1
    },
    {
      "midi": 65,
      "hit": false,
      "t": 258281.25,
      "d": 1402.34375,
      "v": 1
    },
    {
      "midi": 69,
      "hit": false,
      "t": 258281.25,
      "d": 1402.34375,
      "v": 1
    },
    {
      "midi": 34,
      "hit": false,
      "t": 258750,
      "d": 3732.421875,
      "v": 97
    },
    {
      "midi": 50,
      "hit": false,
      "t": 258750,
      "d": 3732.421875,
      "v": 97
    },
    {
      "midi": 60,
      "hit": false,
      "t": 258750,
      "d": 919.921875,
      "v": 99
    },
    {
      "midi": 58,
      "hit": false,
      "t": 258753.90625,
      "d": 1853.515625,
      "v": 102
    },
    {
      "midi": 65,
      "hit": false,
      "t": 258753.90625,
      "d": 3728.515625,
      "v": 102
    },
    {
      "midi": 60,
      "hit": false,
      "t": 259687.5,
      "d": 464.84375,
      "v": 1
    },
    {
      "midi": 65,
      "hit": false,
      "t": 259687.5,
      "d": 464.84375,
      "v": 1
    },
    {
      "midi": 62,
      "hit": false,
      "t": 260156.25,
      "d": 6089.84375,
      "v": 1
    },
    {
      "midi": 67,
      "hit": false,
      "t": 260156.25,
      "d": 6089.84375,
      "v": 1
    },
    {
      "midi": 62,
      "hit": false,
      "t": 262490.234375,
      "d": 796.875,
      "v": 107
    },
    {
      "midi": 67,
      "hit": false,
      "t": 262490.234375,
      "d": 796.875,
      "v": 107
    },
    {
      "midi": 34,
      "hit": false,
      "t": 262500,
      "d": 3732.421875,
      "v": 97
    },
    {
      "midi": 50,
      "hit": false,
      "t": 262500,
      "d": 3732.421875,
      "v": 97
    },
    {
      "midi": 58,
      "hit": false,
      "t": 262500,
      "d": 1388.671875,
      "v": 88
    },
    {
      "midi": 58,
      "hit": false,
      "t": 263906.25,
      "d": 871.09375,
      "v": 105
    },
    {
      "midi": 65,
      "hit": false,
      "t": 263906.25,
      "d": 871.09375,
      "v": 105
    },
    {
      "midi": 60,
      "hit": false,
      "t": 264853.515625,
      "d": 441.40625,
      "v": 107
    },
    {
      "midi": 50,
      "hit": false,
      "t": 265312.5,
      "d": 914.0625,
      "v": 88
    },
    {
      "midi": 58,
      "hit": false,
      "t": 265312.5,
      "d": 914.0625,
      "v": 88
    },
    {
      "midi": 33,
      "hit": false,
      "t": 266250,
      "d": 3732.421875,
      "v": 97
    },
    {
      "midi": 48,
      "hit": false,
      "t": 266250,
      "d": 3732.421875,
      "v": 97
    },
    {
      "midi": 64,
      "hit": false,
      "t": 266250,
      "d": 914.0625,
      "v": 88
    },
    {
      "midi": 64,
      "hit": false,
      "t": 266250,
      "d": 6792.96875,
      "v": 1
    },
    {
      "midi": 67,
      "hit": false,
      "t": 266250,
      "d": 6792.96875,
      "v": 1
    },
    {
      "midi": 67,
      "hit": false,
      "t": 266253.90625,
      "d": 3728.515625,
      "v": 91
    },
    {
      "midi": 60,
      "hit": false,
      "t": 267650.390625,
      "d": 919.921875,
      "v": 98
    },
    {
      "midi": 64,
      "hit": false,
      "t": 268587.890625,
      "d": 880.859375,
      "v": 107
    },
    {
      "midi": 57,
      "hit": false,
      "t": 269525.390625,
      "d": 2791.015625,
      "v": 98
    },
    {
      "midi": 48,
      "hit": false,
      "t": 270000,
      "d": 1857.421875,
      "v": 97
    },
    {
      "midi": 33,
      "hit": false,
      "t": 270000,
      "d": 3732.421875,
      "v": 97
    },
    {
      "midi": 60,
      "hit": false,
      "t": 270000,
      "d": 919.921875,
      "v": 88
    },
    {
      "midi": 67,
      "hit": false,
      "t": 270003.90625,
      "d": 916.015625,
      "v": 91
    },
    {
      "midi": 64,
      "hit": false,
      "t": 270003.90625,
      "d": 1384.765625,
      "v": 91
    },
    {
      "midi": 60,
      "hit": false,
      "t": 270941.40625,
      "d": 447.265625,
      "v": 98
    },
    {
      "midi": 64,
      "hit": false,
      "t": 271406.25,
      "d": 455.078125,
      "v": 107
    },
    {
      "midi": 48,
      "hit": false,
      "t": 271875,
      "d": 1857.421875,
      "v": 92
    },
    {
      "midi": 57,
      "hit": false,
      "t": 272337.890625,
      "d": 1320.3125,
      "v": 107
    },
    {
      "midi": 65,
      "hit": false,
      "t": 272343.75,
      "d": 1388.671875,
      "v": 107
    },
    {
      "midi": 62,
      "hit": false,
      "t": 273046.875,
      "d": 699.21875,
      "v": 1
    },
    {
      "midi": 65,
      "hit": false,
      "t": 273046.875,
      "d": 699.21875,
      "v": 1
    },
    {
      "midi": 34,
      "hit": false,
      "t": 273750,
      "d": 1857.421875,
      "v": 97
    },
    {
      "midi": 50,
      "hit": false,
      "t": 273750,
      "d": 1857.421875,
      "v": 97
    },
    {
      "midi": 60,
      "hit": false,
      "t": 273750,
      "d": 919.921875,
      "v": 88
    },
    {
      "midi": 67,
      "hit": false,
      "t": 273750,
      "d": 12652.34375,
      "v": 1
    },
    {
      "midi": 67,
      "hit": false,
      "t": 273753.90625,
      "d": 1853.515625,
      "v": 91
    },
    {
      "midi": 65,
      "hit": false,
      "t": 273753.90625,
      "d": 3728.515625,
      "v": 91
    },
    {
      "midi": 58,
      "hit": false,
      "t": 274677.734375,
      "d": 919.921875,
      "v": 87
    },
    {
      "midi": 60,
      "hit": false,
      "t": 275619.140625,
      "d": 890.625,
      "v": 89
    },
    {
      "midi": 34,
      "hit": false,
      "t": 275625,
      "d": 1857.421875,
      "v": 92
    },
    {
      "midi": 50,
      "hit": false,
      "t": 275625,
      "d": 1857.421875,
      "v": 92
    },
    {
      "midi": 67,
      "hit": false,
      "t": 275625,
      "d": 919.921875,
      "v": 88
    },
    {
      "midi": 58,
      "hit": false,
      "t": 276556.640625,
      "d": 919.921875,
      "v": 86
    },
    {
      "midi": 50,
      "hit": false,
      "t": 277500,
      "d": 919.921875,
      "v": 97
    },
    {
      "midi": 34,
      "hit": false,
      "t": 277500,
      "d": 3673.828125,
      "v": 97
    },
    {
      "midi": 60,
      "hit": false,
      "t": 277500,
      "d": 2794.921875,
      "v": 88
    },
    {
      "midi": 67,
      "hit": false,
      "t": 277503.90625,
      "d": 2791.015625,
      "v": 91
    },
    {
      "midi": 65,
      "hit": false,
      "t": 277503.90625,
      "d": 2794.921875,
      "v": 91
    },
    {
      "midi": 50,
      "hit": false,
      "t": 278437.5,
      "d": 1857.421875,
      "v": 92
    },
    {
      "midi": 50,
      "hit": false,
      "t": 280312.5,
      "d": 861.328125,
      "v": 97
    },
    {
      "midi": 67,
      "hit": false,
      "t": 280312.5,
      "d": 451.171875,
      "v": 101
    },
    {
      "midi": 60,
      "hit": false,
      "t": 280312.5,
      "d": 919.921875,
      "v": 88
    },
    {
      "midi": 65,
      "hit": false,
      "t": 280316.40625,
      "d": 916.015625,
      "v": 91
    },
    {
      "midi": 69,
      "hit": false,
      "t": 280781.25,
      "d": 451.171875,
      "v": 96
    },
    {
      "midi": 33,
      "hit": false,
      "t": 281250,
      "d": 1857.421875,
      "v": 97
    },
    {
      "midi": 48,
      "hit": false,
      "t": 281250,
      "d": 1857.421875,
      "v": 97
    },
    {
      "midi": 64,
      "hit": false,
      "t": 281250,
      "d": 919.921875,
      "v": 88
    },
    {
      "midi": 67,
      "hit": false,
      "t": 281253.90625,
      "d": 3728.515625,
      "v": 91
    },
    {
      "midi": 60,
      "hit": false,
      "t": 282177.734375,
      "d": 919.921875,
      "v": 87
    },
    {
      "midi": 64,
      "hit": false,
      "t": 283119.140625,
      "d": 890.625,
      "v": 89
    },
    {
      "midi": 33,
      "hit": false,
      "t": 283125,
      "d": 1857.421875,
      "v": 92
    },
    {
      "midi": 48,
      "hit": false,
      "t": 283125,
      "d": 1857.421875,
      "v": 92
    },
    {
      "midi": 60,
      "hit": false,
      "t": 284056.640625,
      "d": 919.921875,
      "v": 86
    },
    {
      "midi": 33,
      "hit": false,
      "t": 285000,
      "d": 1857.421875,
      "v": 97
    },
    {
      "midi": 48,
      "hit": false,
      "t": 285000,
      "d": 1857.421875,
      "v": 97
    },
    {
      "midi": 60,
      "hit": false,
      "t": 285000,
      "d": 2794.921875,
      "v": 88
    },
    {
      "midi": 67,
      "hit": false,
      "t": 285003.90625,
      "d": 916.015625,
      "v": 91
    },
    {
      "midi": 64,
      "hit": false,
      "t": 285003.90625,
      "d": 1857.421875,
      "v": 91
    },
    {
      "midi": 65,
      "hit": false,
      "t": 285941.40625,
      "d": 916.015625,
      "v": 91
    },
    {
      "midi": 67,
      "hit": false,
      "t": 286406.25,
      "d": 451.171875,
      "v": 96
    },
    {
      "midi": 69,
      "hit": false,
      "t": 286406.25,
      "d": 933.59375,
      "v": 1
    },
    {
      "midi": 33,
      "hit": false,
      "t": 286875,
      "d": 1857.421875,
      "v": 92
    },
    {
      "midi": 48,
      "hit": false,
      "t": 286875,
      "d": 1857.421875,
      "v": 92
    },
    {
      "midi": 64,
      "hit": false,
      "t": 286875,
      "d": 919.921875,
      "v": 101
    },
    {
      "midi": 67,
      "hit": false,
      "t": 287343.75,
      "d": 949.21875,
      "v": 1
    },
    {
      "midi": 60,
      "hit": false,
      "t": 287812.5,
      "d": 919.921875,
      "v": 88
    },
    {
      "midi": 65,
      "hit": false,
      "t": 288281.25,
      "d": 699.21875,
      "v": 1
    },
    {
      "midi": 34,
      "hit": false,
      "t": 288750,
      "d": 1857.421875,
      "v": 97
    },
    {
      "midi": 50,
      "hit": false,
      "t": 288750,
      "d": 1857.421875,
      "v": 97
    },
    {
      "midi": 60,
      "hit": false,
      "t": 288750,
      "d": 919.921875,
      "v": 88
    },
    {
      "midi": 65,
      "hit": false,
      "t": 288753.90625,
      "d": 1853.515625,
      "v": 91
    },
    {
      "midi": 69,
      "hit": false,
      "t": 288753.90625,
      "d": 1853.515625,
      "v": 91
    },
    {
      "midi": 67,
      "hit": false,
      "t": 288984.375,
      "d": 621.09375,
      "v": 1
    },
    {
      "midi": 62,
      "hit": false,
      "t": 289453.125,
      "d": 5855.46875,
      "v": 1
    },
    {
      "midi": 58,
      "hit": false,
      "t": 289677.734375,
      "d": 919.921875,
      "v": 87
    },
    {
      "midi": 60,
      "hit": false,
      "t": 290619.140625,
      "d": 890.625,
      "v": 89
    },
    {
      "midi": 34,
      "hit": false,
      "t": 290625,
      "d": 1857.421875,
      "v": 92
    },
    {
      "midi": 50,
      "hit": false,
      "t": 290625,
      "d": 1857.421875,
      "v": 92
    },
    {
      "midi": 69,
      "hit": false,
      "t": 290625,
      "d": 919.921875,
      "v": 88
    },
    {
      "midi": 65,
      "hit": false,
      "t": 290628.90625,
      "d": 1824.21875,
      "v": 99
    },
    {
      "midi": 58,
      "hit": false,
      "t": 291556.640625,
      "d": 919.921875,
      "v": 86
    },
    {
      "midi": 34,
      "hit": false,
      "t": 292500,
      "d": 1857.421875,
      "v": 97
    },
    {
      "midi": 50,
      "hit": false,
      "t": 292500,
      "d": 1857.421875,
      "v": 97
    },
    {
      "midi": 60,
      "hit": false,
      "t": 292500,
      "d": 1388.671875,
      "v": 88
    },
    {
      "midi": 69,
      "hit": false,
      "t": 292500,
      "d": 1363.28125,
      "v": 1
    },
    {
      "midi": 67,
      "hit": false,
      "t": 292503.90625,
      "d": 916.015625,
      "v": 91
    },
    {
      "midi": 65,
      "hit": false,
      "t": 293441.40625,
      "d": 447.265625,
      "v": 91
    },
    {
      "midi": 60,
      "hit": false,
      "t": 293906.25,
      "d": 451.171875,
      "v": 96
    },
    {
      "midi": 65,
      "hit": false,
      "t": 293906.25,
      "d": 1421.875,
      "v": 1
    },
    {
      "midi": 60,
      "hit": false,
      "t": 294369.140625,
      "d": 890.625,
      "v": 89
    },
    {
      "midi": 34,
      "hit": false,
      "t": 294375,
      "d": 1857.421875,
      "v": 92
    },
    {
      "midi": 50,
      "hit": false,
      "t": 294375,
      "d": 1857.421875,
      "v": 92
    },
    {
      "midi": 69,
      "hit": false,
      "t": 294375,
      "d": 919.921875,
      "v": 88
    },
    {
      "midi": 65,
      "hit": false,
      "t": 294378.90625,
      "d": 1355.46875,
      "v": 99
    },
    {
      "midi": 58,
      "hit": false,
      "t": 295306.640625,
      "d": 919.921875,
      "v": 86
    },
    {
      "midi": 62,
      "hit": false,
      "t": 295312.5,
      "d": 933.59375,
      "v": 1
    },
    {
      "midi": 67,
      "hit": false,
      "t": 295316.40625,
      "d": 447.265625,
      "v": 96
    },
    {
      "midi": 65,
      "hit": false,
      "t": 295781.25,
      "d": 451.171875,
      "v": 90
    },
    {
      "midi": 33,
      "hit": false,
      "t": 296250,
      "d": 1857.421875,
      "v": 97
    },
    {
      "midi": 48,
      "hit": false,
      "t": 296250,
      "d": 1857.421875,
      "v": 97
    },
    {
      "midi": 60,
      "hit": false,
      "t": 296250,
      "d": 3253.90625,
      "v": 88
    },
    {
      "midi": 64,
      "hit": false,
      "t": 296250,
      "d": 6558.59375,
      "v": 1
    },
    {
      "midi": 69,
      "hit": false,
      "t": 296250,
      "d": 6558.59375,
      "v": 1
    },
    {
      "midi": 67,
      "hit": false,
      "t": 296253.90625,
      "d": 916.015625,
      "v": 91
    },
    {
      "midi": 64,
      "hit": false,
      "t": 296253.90625,
      "d": 1857.421875,
      "v": 91
    },
    {
      "midi": 33,
      "hit": false,
      "t": 298125,
      "d": 1857.421875,
      "v": 92
    },
    {
      "midi": 48,
      "hit": false,
      "t": 298125,
      "d": 1857.421875,
      "v": 92
    },
    {
      "midi": 64,
      "hit": false,
      "t": 298125,
      "d": 919.921875,
      "v": 101
    },
    {
      "midi": 72,
      "hit": false,
      "t": 299066.40625,
      "d": 916.015625,
      "v": 91
    },
    {
      "midi": 60,
      "hit": false,
      "t": 299531.25,
      "d": 451.171875,
      "v": 96
    },
    {
      "midi": 48,
      "hit": false,
      "t": 300000,
      "d": 1857.421875,
      "v": 97
    },
    {
      "midi": 33,
      "hit": false,
      "t": 300000,
      "d": 3732.421875,
      "v": 97
    },
    {
      "midi": 64,
      "hit": false,
      "t": 300003.90625,
      "d": 919.921875,
      "v": 96
    },
    {
      "midi": 65,
      "hit": false,
      "t": 300468.75,
      "d": 451.171875,
      "v": 90
    },
    {
      "midi": 64,
      "hit": false,
      "t": 300941.40625,
      "d": 916.015625,
      "v": 96
    },
    {
      "midi": 60,
      "hit": false,
      "t": 301406.25,
      "d": 451.171875,
      "v": 90
    },
    {
      "midi": 48,
      "hit": false,
      "t": 301875,
      "d": 1857.421875,
      "v": 92
    },
    {
      "midi": 64,
      "hit": false,
      "t": 302343.75,
      "d": 451.171875,
      "v": 90
    },
    {
      "midi": 67,
      "hit": false,
      "t": 302812.5,
      "d": 933.59375,
      "v": 1
    },
    {
      "midi": 65,
      "hit": false,
      "t": 302816.40625,
      "d": 916.015625,
      "v": 96
    },
    {
      "midi": 64,
      "hit": false,
      "t": 303281.25,
      "d": 451.171875,
      "v": 90
    },
    {
      "midi": 31,
      "hit": false,
      "t": 303750,
      "d": 1857.421875,
      "v": 102
    },
    {
      "midi": 43,
      "hit": false,
      "t": 303750,
      "d": 1857.421875,
      "v": 102
    },
    {
      "midi": 55,
      "hit": false,
      "t": 303750,
      "d": 1847.65625,
      "v": 93
    },
    {
      "midi": 67,
      "hit": false,
      "t": 303750,
      "d": 3746.09375,
      "v": 1
    },
    {
      "midi": 58,
      "hit": false,
      "t": 303753.90625,
      "d": 1853.515625,
      "v": 96
    },
    {
      "midi": 64,
      "hit": false,
      "t": 303753.90625,
      "d": 1853.515625,
      "v": 78
    },
    {
      "midi": 65,
      "hit": false,
      "t": 303753.90625,
      "d": 3728.515625,
      "v": 96
    },
    {
      "midi": 55,
      "hit": false,
      "t": 305619.140625,
      "d": 890.625,
      "v": 94
    },
    {
      "midi": 31,
      "hit": false,
      "t": 305625,
      "d": 1857.421875,
      "v": 97
    },
    {
      "midi": 43,
      "hit": false,
      "t": 305625,
      "d": 1857.421875,
      "v": 97
    },
    {
      "midi": 58,
      "hit": false,
      "t": 305625,
      "d": 1857.421875,
      "v": 93
    },
    {
      "midi": 62,
      "hit": false,
      "t": 305628.90625,
      "d": 1853.515625,
      "v": 87
    },
    {
      "midi": 55,
      "hit": false,
      "t": 306556.640625,
      "d": 919.921875,
      "v": 91
    },
    {
      "midi": 62,
      "hit": false,
      "t": 306562.5,
      "d": 933.59375,
      "v": 1
    },
    {
      "midi": 43,
      "hit": false,
      "t": 307500,
      "d": 919.921875,
      "v": 102
    },
    {
      "midi": 31,
      "hit": false,
      "t": 307500,
      "d": 3673.828125,
      "v": 102
    },
    {
      "midi": 55,
      "hit": false,
      "t": 307500,
      "d": 2326.171875,
      "v": 93
    },
    {
      "midi": 67,
      "hit": false,
      "t": 307500,
      "d": 933.59375,
      "v": 1
    },
    {
      "midi": 65,
      "hit": false,
      "t": 307503.90625,
      "d": 2322.265625,
      "v": 96
    },
    {
      "midi": 58,
      "hit": false,
      "t": 307503.90625,
      "d": 2326.171875,
      "v": 96
    },
    {
      "midi": 43,
      "hit": false,
      "t": 308437.5,
      "d": 1857.421875,
      "v": 97
    },
    {
      "midi": 65,
      "hit": false,
      "t": 308437.5,
      "d": 474.609375,
      "v": 1
    },
    {
      "midi": 69,
      "hit": false,
      "t": 308437.5,
      "d": 474.609375,
      "v": 1
    },
    {
      "midi": 67,
      "hit": false,
      "t": 308906.25,
      "d": 5152.34375,
      "v": 1
    },
    {
      "midi": 70,
      "hit": false,
      "t": 308906.25,
      "d": 5152.34375,
      "v": 1
    },
    {
      "midi": 58,
      "hit": false,
      "t": 309843.75,
      "d": 451.171875,
      "v": 106
    },
    {
      "midi": 55,
      "hit": false,
      "t": 309843.75,
      "d": 919.921875,
      "v": 93
    },
    {
      "midi": 65,
      "hit": false,
      "t": 309847.65625,
      "d": 916.015625,
      "v": 96
    },
    {
      "midi": 69,
      "hit": false,
      "t": 309847.65625,
      "d": 916.015625,
      "v": 96
    },
    {
      "midi": 43,
      "hit": false,
      "t": 310312.5,
      "d": 861.328125,
      "v": 102
    },
    {
      "midi": 55,
      "hit": false,
      "t": 310781.25,
      "d": 451.171875,
      "v": 101
    },
    {
      "midi": 29,
      "hit": false,
      "t": 311250,
      "d": 1857.421875,
      "v": 102
    },
    {
      "midi": 41,
      "hit": false,
      "t": 311250,
      "d": 1857.421875,
      "v": 102
    },
    {
      "midi": 58,
      "hit": false,
      "t": 311250,
      "d": 1857.421875,
      "v": 93
    },
    {
      "midi": 62,
      "hit": false,
      "t": 311250,
      "d": 1857.421875,
      "v": 93
    },
    {
      "midi": 65,
      "hit": false,
      "t": 311253.90625,
      "d": 3728.515625,
      "v": 96
    },
    {
      "midi": 58,
      "hit": false,
      "t": 313119.140625,
      "d": 1828.125,
      "v": 94
    },
    {
      "midi": 62,
      "hit": false,
      "t": 313119.140625,
      "d": 1828.125,
      "v": 94
    },
    {
      "midi": 29,
      "hit": false,
      "t": 313125,
      "d": 1857.421875,
      "v": 97
    },
    {
      "midi": 41,
      "hit": false,
      "t": 313125,
      "d": 1857.421875,
      "v": 97
    },
    {
      "midi": 67,
      "hit": false,
      "t": 314062.5,
      "d": 933.59375,
      "v": 1
    },
    {
      "midi": 29,
      "hit": false,
      "t": 315000,
      "d": 1857.421875,
      "v": 102
    },
    {
      "midi": 41,
      "hit": false,
      "t": 315000,
      "d": 1857.421875,
      "v": 102
    },
    {
      "midi": 58,
      "hit": false,
      "t": 315000,
      "d": 1857.421875,
      "v": 93
    },
    {
      "midi": 62,
      "hit": false,
      "t": 315000,
      "d": 1857.421875,
      "v": 93
    },
    {
      "midi": 74,
      "hit": false,
      "t": 315000,
      "d": 933.59375,
      "v": 1
    },
    {
      "midi": 65,
      "hit": false,
      "t": 315003.90625,
      "d": 3728.515625,
      "v": 96
    },
    {
      "midi": 72,
      "hit": false,
      "t": 315937.5,
      "d": 464.84375,
      "v": 1
    },
    {
      "midi": 70,
      "hit": false,
      "t": 316406.25,
      "d": 1402.34375,
      "v": 1
    },
    {
      "midi": 62,
      "hit": false,
      "t": 316869.140625,
      "d": 890.625,
      "v": 94
    },
    {
      "midi": 58,
      "hit": false,
      "t": 316869.140625,
      "d": 1828.125,
      "v": 94
    },
    {
      "midi": 29,
      "hit": false,
      "t": 316875,
      "d": 1857.421875,
      "v": 97
    },
    {
      "midi": 41,
      "hit": false,
      "t": 316875,
      "d": 1857.421875,
      "v": 97
    },
    {
      "midi": 67,
      "hit": false,
      "t": 316875,
      "d": 919.921875,
      "v": 99
    },
    {
      "midi": 62,
      "hit": false,
      "t": 317812.5,
      "d": 919.921875,
      "v": 93
    },
    {
      "midi": 69,
      "hit": false,
      "t": 317812.5,
      "d": 933.59375,
      "v": 1
    },
    {
      "midi": 28,
      "hit": false,
      "t": 318750,
      "d": 1857.421875,
      "v": 102
    },
    {
      "midi": 40,
      "hit": false,
      "t": 318750,
      "d": 1857.421875,
      "v": 102
    },
    {
      "midi": 58,
      "hit": false,
      "t": 318750,
      "d": 1857.421875,
      "v": 93
    },
    {
      "midi": 69,
      "hit": false,
      "t": 318750,
      "d": 2808.59375,
      "v": 1
    },
    {
      "midi": 72,
      "hit": false,
      "t": 318750,
      "d": 4312.5,
      "v": 1
    },
    {
      "midi": 62,
      "hit": false,
      "t": 318753.90625,
      "d": 1853.515625,
      "v": 96
    },
    {
      "midi": 69,
      "hit": false,
      "t": 318753.90625,
      "d": 1853.515625,
      "v": 96
    },
    {
      "midi": 58,
      "hit": false,
      "t": 320619.140625,
      "d": 1828.125,
      "v": 94
    },
    {
      "midi": 28,
      "hit": false,
      "t": 320625,
      "d": 1857.421875,
      "v": 97
    },
    {
      "midi": 40,
      "hit": false,
      "t": 320625,
      "d": 1857.421875,
      "v": 97
    },
    {
      "midi": 69,
      "hit": false,
      "t": 320625,
      "d": 1857.421875,
      "v": 93
    },
    {
      "midi": 62,
      "hit": false,
      "t": 320628.90625,
      "d": 1824.21875,
      "v": 104
    },
    {
      "midi": 70,
      "hit": false,
      "t": 321562.5,
      "d": 919.921875,
      "v": 1
    },
    {
      "midi": 28,
      "hit": false,
      "t": 322500,
      "d": 2794.921875,
      "v": 102
    },
    {
      "midi": 40,
      "hit": false,
      "t": 322500,
      "d": 2794.921875,
      "v": 102
    },
    {
      "midi": 62,
      "hit": false,
      "t": 322500,
      "d": 2261.71875,
      "v": 93
    },
    {
      "midi": 58,
      "hit": false,
      "t": 322500,
      "d": 3732.421875,
      "v": 93
    },
    {
      "midi": 69,
      "hit": false,
      "t": 322500,
      "d": 1402.34375,
      "v": 1
    },
    {
      "midi": 69,
      "hit": false,
      "t": 322503.90625,
      "d": 2322.265625,
      "v": 96
    },
    {
      "midi": 70,
      "hit": false,
      "t": 323906.25,
      "d": 464.84375,
      "v": 1
    },
    {
      "midi": 52,
      "hit": false,
      "t": 324375,
      "d": 919.921875,
      "v": 88
    },
    {
      "midi": 69,
      "hit": false,
      "t": 324375,
      "d": 1871.09375,
      "v": 1
    },
    {
      "midi": 62,
      "hit": false,
      "t": 324843.75,
      "d": 451.171875,
      "v": 101
    },
    {
      "midi": 28,
      "hit": false,
      "t": 325312.5,
      "d": 919.921875,
      "v": 97
    },
    {
      "midi": 40,
      "hit": false,
      "t": 325312.5,
      "d": 919.921875,
      "v": 97
    },
    {
      "midi": 52,
      "hit": false,
      "t": 325312.5,
      "d": 919.921875,
      "v": 111
    },
    {
      "midi": 64,
      "hit": false,
      "t": 325316.40625,
      "d": 447.265625,
      "v": 101
    },
    {
      "midi": 69,
      "hit": false,
      "t": 325781.25,
      "d": 451.171875,
      "v": 95
    },
    {
      "midi": 27,
      "hit": false,
      "t": 326250,
      "d": 1857.421875,
      "v": 100
    },
    {
      "midi": 39,
      "hit": false,
      "t": 326250,
      "d": 1857.421875,
      "v": 102
    },
    {
      "midi": 51,
      "hit": false,
      "t": 326250,
      "d": 1857.421875,
      "v": 102
    },
    {
      "midi": 58,
      "hit": false,
      "t": 326250,
      "d": 1847.65625,
      "v": 93
    },
    {
      "midi": 67,
      "hit": false,
      "t": 326253.90625,
      "d": 916.015625,
      "v": 96
    },
    {
      "midi": 62,
      "hit": false,
      "t": 326253.90625,
      "d": 1857.421875,
      "v": 96
    },
    {
      "midi": 27,
      "hit": false,
      "t": 328125,
      "d": 1857.421875,
      "v": 97
    },
    {
      "midi": 39,
      "hit": false,
      "t": 328125,
      "d": 1857.421875,
      "v": 97
    },
    {
      "midi": 58,
      "hit": false,
      "t": 328125,
      "d": 1857.421875,
      "v": 106
    },
    {
      "midi": 62,
      "hit": false,
      "t": 328125,
      "d": 1857.421875,
      "v": 106
    },
    {
      "midi": 27,
      "hit": false,
      "t": 330000,
      "d": 3732.421875,
      "v": 102
    },
    {
      "midi": 39,
      "hit": false,
      "t": 330000,
      "d": 3732.421875,
      "v": 102
    },
    {
      "midi": 58,
      "hit": false,
      "t": 330000,
      "d": 3722.65625,
      "v": 93
    },
    {
      "midi": 60,
      "hit": false,
      "t": 330003.90625,
      "d": 3722.65625,
      "v": 96
    },
    {
      "midi": 63,
      "hit": false,
      "t": 330003.90625,
      "d": 3722.65625,
      "v": 96
    },
    {
      "midi": 42,
      "hit": false,
      "t": 333750,
      "d": 1857.421875,
      "v": 102
    },
    {
      "midi": 54,
      "hit": false,
      "t": 333750,
      "d": 1857.421875,
      "v": 102
    },
    {
      "midi": 54,
      "hit": false,
      "t": 333750,
      "d": 1847.65625,
      "v": 93
    },
    {
      "midi": 58,
      "hit": false,
      "t": 333753.90625,
      "d": 1853.515625,
      "v": 96
    },
    {
      "midi": 61,
      "hit": false,
      "t": 333753.90625,
      "d": 1853.515625,
      "v": 78
    },
    {
      "midi": 65,
      "hit": false,
      "t": 333753.90625,
      "d": 3728.515625,
      "v": 96
    },
    {
      "midi": 73,
      "hit": false,
      "t": 333822.265625,
      "d": 10236.328125,
      "v": 1
    },
    {
      "midi": 54,
      "hit": false,
      "t": 335619.140625,
      "d": 890.625,
      "v": 94
    },
    {
      "midi": 42,
      "hit": false,
      "t": 335625,
      "d": 1857.421875,
      "v": 97
    },
    {
      "midi": 54,
      "hit": false,
      "t": 335625,
      "d": 1857.421875,
      "v": 97
    },
    {
      "midi": 58,
      "hit": false,
      "t": 335625,
      "d": 1857.421875,
      "v": 93
    },
    {
      "midi": 61,
      "hit": false,
      "t": 335628.90625,
      "d": 1853.515625,
      "v": 87
    },
    {
      "midi": 54,
      "hit": false,
      "t": 336556.640625,
      "d": 919.921875,
      "v": 91
    },
    {
      "midi": 54,
      "hit": false,
      "t": 337500,
      "d": 919.921875,
      "v": 102
    },
    {
      "midi": 42,
      "hit": false,
      "t": 337500,
      "d": 3673.828125,
      "v": 102
    },
    {
      "midi": 54,
      "hit": false,
      "t": 337500,
      "d": 2326.171875,
      "v": 93
    },
    {
      "midi": 58,
      "hit": false,
      "t": 337503.90625,
      "d": 2322.265625,
      "v": 96
    },
    {
      "midi": 65,
      "hit": false,
      "t": 337503.90625,
      "d": 2322.265625,
      "v": 96
    },
    {
      "midi": 54,
      "hit": false,
      "t": 338437.5,
      "d": 1857.421875,
      "v": 97
    },
    {
      "midi": 54,
      "hit": false,
      "t": 339843.75,
      "d": 919.921875,
      "v": 93
    },
    {
      "midi": 58,
      "hit": false,
      "t": 339843.75,
      "d": 919.921875,
      "v": 106
    },
    {
      "midi": 65,
      "hit": false,
      "t": 339847.65625,
      "d": 916.015625,
      "v": 96
    },
    {
      "midi": 54,
      "hit": false,
      "t": 340312.5,
      "d": 861.328125,
      "v": 102
    },
    {
      "midi": 54,
      "hit": false,
      "t": 340781.25,
      "d": 451.171875,
      "v": 101
    },
    {
      "midi": 70,
      "hit": false,
      "t": 340785.15625,
      "d": 447.265625,
      "v": 96
    },
    {
      "midi": 41,
      "hit": false,
      "t": 341250,
      "d": 1857.421875,
      "v": 102
    },
    {
      "midi": 53,
      "hit": false,
      "t": 341250,
      "d": 1857.421875,
      "v": 102
    },
    {
      "midi": 56,
      "hit": false,
      "t": 341250,
      "d": 1857.421875,
      "v": 93
    },
    {
      "midi": 60,
      "hit": false,
      "t": 341250,
      "d": 1857.421875,
      "v": 93
    },
    {
      "midi": 63,
      "hit": false,
      "t": 341253.90625,
      "d": 3728.515625,
      "v": 96
    },
    {
      "midi": 56,
      "hit": false,
      "t": 343119.140625,
      "d": 1828.125,
      "v": 94
    },
    {
      "midi": 60,
      "hit": false,
      "t": 343119.140625,
      "d": 1828.125,
      "v": 94
    },
    {
      "midi": 41,
      "hit": false,
      "t": 343125,
      "d": 1857.421875,
      "v": 97
    },
    {
      "midi": 53,
      "hit": false,
      "t": 343125,
      "d": 1857.421875,
      "v": 97
    },
    {
      "midi": 68,
      "hit": false,
      "t": 344062.5,
      "d": 919.921875,
      "v": 99
    },
    {
      "midi": 75,
      "hit": false,
      "t": 344062.5,
      "d": 318.359375,
      "v": 1
    },
    {
      "midi": 77,
      "hit": false,
      "t": 344384.765625,
      "d": 382.8125,
      "v": 1
    },
    {
      "midi": 73,
      "hit": false,
      "t": 344769.53125,
      "d": 2062.5,
      "v": 1
    },
    {
      "midi": 41,
      "hit": false,
      "t": 345000,
      "d": 1857.421875,
      "v": 102
    },
    {
      "midi": 53,
      "hit": false,
      "t": 345000,
      "d": 1857.421875,
      "v": 102
    },
    {
      "midi": 68,
      "hit": false,
      "t": 345000,
      "d": 1851.5625,
      "v": 93
    },
    {
      "midi": 56,
      "hit": false,
      "t": 345000,
      "d": 1857.421875,
      "v": 93
    },
    {
      "midi": 60,
      "hit": false,
      "t": 345000,
      "d": 1857.421875,
      "v": 93
    },
    {
      "midi": 63,
      "hit": false,
      "t": 345003.90625,
      "d": 3728.515625,
      "v": 96
    },
    {
      "midi": 75,
      "hit": false,
      "t": 346810.546875,
      "d": 558.59375,
      "v": 1
    },
    {
      "midi": 60,
      "hit": false,
      "t": 346869.140625,
      "d": 890.625,
      "v": 94
    },
    {
      "midi": 68,
      "hit": false,
      "t": 346869.140625,
      "d": 1808.59375,
      "v": 94
    },
    {
      "midi": 56,
      "hit": false,
      "t": 346869.140625,
      "d": 1828.125,
      "v": 94
    },
    {
      "midi": 41,
      "hit": false,
      "t": 346875,
      "d": 1857.421875,
      "v": 97
    },
    {
      "midi": 53,
      "hit": false,
      "t": 346875,
      "d": 1857.421875,
      "v": 97
    },
    {
      "midi": 73,
      "hit": false,
      "t": 347373.046875,
      "d": 871.09375,
      "v": 1
    },
    {
      "midi": 60,
      "hit": false,
      "t": 347812.5,
      "d": 919.921875,
      "v": 93
    },
    {
      "midi": 72,
      "hit": false,
      "t": 348216.796875,
      "d": 603.515625,
      "v": 1
    },
    {
      "midi": 40,
      "hit": false,
      "t": 348750,
      "d": 1857.421875,
      "v": 102
    },
    {
      "midi": 52,
      "hit": false,
      "t": 348750,
      "d": 1857.421875,
      "v": 102
    },
    {
      "midi": 58,
      "hit": false,
      "t": 348750,
      "d": 1857.421875,
      "v": 93
    },
    {
      "midi": 62,
      "hit": false,
      "t": 348753.90625,
      "d": 1853.515625,
      "v": 96
    },
    {
      "midi": 67,
      "hit": false,
      "t": 348753.90625,
      "d": 1853.515625,
      "v": 96
    },
    {
      "midi": 72,
      "hit": false,
      "t": 348822.265625,
      "d": 7423.828125,
      "v": 1
    },
    {
      "midi": 58,
      "hit": false,
      "t": 350619.140625,
      "d": 1359.375,
      "v": 94
    },
    {
      "midi": 40,
      "hit": false,
      "t": 350625,
      "d": 1857.421875,
      "v": 97
    },
    {
      "midi": 52,
      "hit": false,
      "t": 350625,
      "d": 1857.421875,
      "v": 97
    },
    {
      "midi": 67,
      "hit": false,
      "t": 350625,
      "d": 445.3125,
      "v": 93
    },
    {
      "midi": 62,
      "hit": false,
      "t": 350628.90625,
      "d": 919.921875,
      "v": 108
    },
    {
      "midi": 67,
      "hit": false,
      "t": 351093.75,
      "d": 451.171875,
      "v": 101
    },
    {
      "midi": 67,
      "hit": false,
      "t": 351552.734375,
      "d": 8443.359375,
      "v": 1
    },
    {
      "midi": 62,
      "hit": false,
      "t": 351566.40625,
      "d": 916.015625,
      "v": 101
    },
    {
      "midi": 58,
      "hit": false,
      "t": 352031.25,
      "d": 451.171875,
      "v": 95
    },
    {
      "midi": 40,
      "hit": false,
      "t": 352500,
      "d": 2794.921875,
      "v": 102
    },
    {
      "midi": 52,
      "hit": false,
      "t": 352500,
      "d": 2794.921875,
      "v": 102
    },
    {
      "midi": 62,
      "hit": false,
      "t": 352500,
      "d": 2261.71875,
      "v": 93
    },
    {
      "midi": 58,
      "hit": false,
      "t": 352500,
      "d": 2794.921875,
      "v": 93
    },
    {
      "midi": 67,
      "hit": false,
      "t": 352503.90625,
      "d": 2322.265625,
      "v": 96
    },
    {
      "midi": 40,
      "hit": false,
      "t": 355312.5,
      "d": 919.921875,
      "v": 97
    },
    {
      "midi": 52,
      "hit": false,
      "t": 355312.5,
      "d": 919.921875,
      "v": 97
    },
    {
      "midi": 58,
      "hit": false,
      "t": 355312.5,
      "d": 919.921875,
      "v": 101
    },
    {
      "midi": 38,
      "hit": false,
      "t": 356250,
      "d": 1857.421875,
      "v": 100
    },
    {
      "midi": 50,
      "hit": false,
      "t": 356250,
      "d": 1857.421875,
      "v": 102
    },
    {
      "midi": 57,
      "hit": false,
      "t": 356250,
      "d": 1847.65625,
      "v": 93
    },
    {
      "midi": 67,
      "hit": false,
      "t": 356253.90625,
      "d": 1853.515625,
      "v": 96
    },
    {
      "midi": 62,
      "hit": false,
      "t": 356253.90625,
      "d": 1857.421875,
      "v": 96
    },
    {
      "midi": 38,
      "hit": false,
      "t": 358125,
      "d": 1857.421875,
      "v": 97
    },
    {
      "midi": 50,
      "hit": false,
      "t": 358125,
      "d": 1857.421875,
      "v": 97
    },
    {
      "midi": 57,
      "hit": false,
      "t": 358125,
      "d": 1857.421875,
      "v": 106
    },
    {
      "midi": 62,
      "hit": false,
      "t": 358125,
      "d": 1857.421875,
      "v": 106
    },
    {
      "midi": 67,
      "hit": false,
      "t": 358128.90625,
      "d": 1853.515625,
      "v": 96
    },
    {
      "midi": 38,
      "hit": false,
      "t": 360000,
      "d": 3732.421875,
      "v": 102
    },
    {
      "midi": 50,
      "hit": false,
      "t": 360000,
      "d": 3732.421875,
      "v": 102
    },
    {
      "midi": 57,
      "hit": false,
      "t": 360000,
      "d": 3722.65625,
      "v": 93
    },
    {
      "midi": 62,
      "hit": false,
      "t": 360003.90625,
      "d": 3722.65625,
      "v": 96
    },
    {
      "midi": 66,
      "hit": false,
      "t": 360003.90625,
      "d": 3722.65625,
      "v": 96
    },
    {
      "midi": 50,
      "hit": false,
      "t": 363750,
      "d": 1798.828125,
      "v": 100
    },
    {
      "midi": 38,
      "hit": false,
      "t": 363750,
      "d": 5607.421875,
      "v": 112
    },
    {
      "midi": 65,
      "hit": false,
      "t": 363750,
      "d": 1822.265625,
      "v": 94
    },
    {
      "midi": 69,
      "hit": false,
      "t": 363750,
      "d": 5933.59375,
      "v": 97
    },
    {
      "midi": 60,
      "hit": false,
      "t": 363753.90625,
      "d": 1853.515625,
      "v": 101
    },
    {
      "midi": 62,
      "hit": false,
      "t": 363753.90625,
      "d": 1853.515625,
      "v": 103
    },
    {
      "midi": 50,
      "hit": false,
      "t": 365625,
      "d": 1798.828125,
      "v": 81
    },
    {
      "midi": 65,
      "hit": false,
      "t": 365625,
      "d": 1822.265625,
      "v": 82
    },
    {
      "midi": 60,
      "hit": false,
      "t": 365628.90625,
      "d": 1853.515625,
      "v": 89
    },
    {
      "midi": 62,
      "hit": false,
      "t": 365628.90625,
      "d": 1853.515625,
      "v": 91
    },
    {
      "midi": 50,
      "hit": false,
      "t": 367500,
      "d": 1867.1875,
      "v": 86
    },
    {
      "midi": 65,
      "hit": false,
      "t": 367500,
      "d": 1822.265625,
      "v": 82
    },
    {
      "midi": 60,
      "hit": false,
      "t": 367503.90625,
      "d": 1384.765625,
      "v": 89
    },
    {
      "midi": 62,
      "hit": false,
      "t": 367503.90625,
      "d": 1843.75,
      "v": 91
    },
    {
      "midi": 60,
      "hit": false,
      "t": 368910.15625,
      "d": 431.640625,
      "v": 104
    },
    {
      "midi": 65,
      "hit": false,
      "t": 369365.234375,
      "d": 441.40625,
      "v": 95
    },
    {
      "midi": 50,
      "hit": false,
      "t": 369375,
      "d": 445.3125,
      "v": 86
    },
    {
      "midi": 38,
      "hit": false,
      "t": 369375,
      "d": 1857.421875,
      "v": 86
    },
    {
      "midi": 67,
      "hit": false,
      "t": 369833.984375,
      "d": 464.84375,
      "v": 101
    },
    {
      "midi": 50,
      "hit": false,
      "t": 369843.75,
      "d": 1330.078125,
      "v": 81
    },
    {
      "midi": 69,
      "hit": false,
      "t": 370302.734375,
      "d": 851.5625,
      "v": 95
    },
    {
      "midi": 65,
      "hit": false,
      "t": 370771.484375,
      "d": 464.84375,
      "v": 101
    },
    {
      "midi": 60,
      "hit": false,
      "t": 371240.234375,
      "d": 1861.328125,
      "v": 95
    },
    {
      "midi": 48,
      "hit": false,
      "t": 371250,
      "d": 1798.828125,
      "v": 86
    },
    {
      "midi": 36,
      "hit": false,
      "t": 371250,
      "d": 5607.421875,
      "v": 112
    },
    {
      "midi": 64,
      "hit": false,
      "t": 371250,
      "d": 1779.296875,
      "v": 95
    },
    {
      "midi": 67,
      "hit": false,
      "t": 371253.90625,
      "d": 3693.359375,
      "v": 97
    },
    {
      "midi": 48,
      "hit": false,
      "t": 373125,
      "d": 1798.828125,
      "v": 81
    },
    {
      "midi": 60,
      "hit": false,
      "t": 373128.90625,
      "d": 1843.75,
      "v": 80
    },
    {
      "midi": 64,
      "hit": false,
      "t": 373128.90625,
      "d": 1853.515625,
      "v": 82
    },
    {
      "midi": 60,
      "hit": false,
      "t": 374990.234375,
      "d": 2775.390625,
      "v": 86
    },
    {
      "midi": 48,
      "hit": false,
      "t": 375000,
      "d": 861.328125,
      "v": 86
    },
    {
      "midi": 64,
      "hit": false,
      "t": 375000,
      "d": 2716.796875,
      "v": 85
    },
    {
      "midi": 67,
      "hit": false,
      "t": 375000,
      "d": 2716.796875,
      "v": 86
    },
    {
      "midi": 48,
      "hit": false,
      "t": 375937.5,
      "d": 861.328125,
      "v": 76
    },
    {
      "midi": 60,
      "hit": false,
      "t": 376875,
      "d": 861.328125,
      "v": 81
    },
    {
      "midi": 36,
      "hit": false,
      "t": 376875,
      "d": 1857.421875,
      "v": 86
    },
    {
      "midi": 48,
      "hit": false,
      "t": 377812.5,
      "d": 861.328125,
      "v": 76
    },
    {
      "midi": 60,
      "hit": false,
      "t": 377816.40625,
      "d": 447.265625,
      "v": 97
    },
    {
      "midi": 65,
      "hit": false,
      "t": 377816.40625,
      "d": 447.265625,
      "v": 102
    },
    {
      "midi": 67,
      "hit": false,
      "t": 377816.40625,
      "d": 447.265625,
      "v": 97
    },
    {
      "midi": 64,
      "hit": false,
      "t": 378271.484375,
      "d": 464.84375,
      "v": 101
    },
    {
      "midi": 60,
      "hit": false,
      "t": 378744.140625,
      "d": 916.015625,
      "v": 96
    },
    {
      "midi": 38,
      "hit": false,
      "t": 378750,
      "d": 1798.828125,
      "v": 83
    },
    {
      "midi": 50,
      "hit": false,
      "t": 378750,
      "d": 1798.828125,
      "v": 102
    },
    {
      "midi": 65,
      "hit": false,
      "t": 378753.90625,
      "d": 1853.515625,
      "v": 91
    },
    {
      "midi": 69,
      "hit": false,
      "t": 378753.90625,
      "d": 1853.515625,
      "v": 91
    },
    {
      "midi": 60,
      "hit": false,
      "t": 379677.734375,
      "d": 910.15625,
      "v": 87
    },
    {
      "midi": 60,
      "hit": false,
      "t": 380619.140625,
      "d": 890.625,
      "v": 89
    },
    {
      "midi": 38,
      "hit": false,
      "t": 380625,
      "d": 1798.828125,
      "v": 78
    },
    {
      "midi": 50,
      "hit": false,
      "t": 380625,
      "d": 1798.828125,
      "v": 97
    },
    {
      "midi": 69,
      "hit": false,
      "t": 380625,
      "d": 919.921875,
      "v": 88
    },
    {
      "midi": 65,
      "hit": false,
      "t": 380628.90625,
      "d": 1824.21875,
      "v": 99
    },
    {
      "midi": 60,
      "hit": false,
      "t": 381556.640625,
      "d": 919.921875,
      "v": 86
    },
    {
      "midi": 69,
      "hit": false,
      "t": 382490.234375,
      "d": 919.921875,
      "v": 87
    },
    {
      "midi": 65,
      "hit": false,
      "t": 382494.140625,
      "d": 1833.984375,
      "v": 89
    },
    {
      "midi": 38,
      "hit": false,
      "t": 382500,
      "d": 1798.828125,
      "v": 83
    },
    {
      "midi": 50,
      "hit": false,
      "t": 382500,
      "d": 1798.828125,
      "v": 102
    },
    {
      "midi": 60,
      "hit": false,
      "t": 382509.765625,
      "d": 910.15625,
      "v": 89
    },
    {
      "midi": 60,
      "hit": false,
      "t": 383431.640625,
      "d": 919.921875,
      "v": 94
    },
    {
      "midi": 60,
      "hit": false,
      "t": 384369.140625,
      "d": 1828.125,
      "v": 84
    },
    {
      "midi": 38,
      "hit": false,
      "t": 384375,
      "d": 1798.828125,
      "v": 78
    },
    {
      "midi": 50,
      "hit": false,
      "t": 384375,
      "d": 1798.828125,
      "v": 97
    },
    {
      "midi": 65,
      "hit": false,
      "t": 384378.90625,
      "d": 447.265625,
      "v": 100
    },
    {
      "midi": 67,
      "hit": false,
      "t": 384837.890625,
      "d": 919.921875,
      "v": 97
    },
    {
      "midi": 69,
      "hit": false,
      "t": 385791.015625,
      "d": 451.171875,
      "v": 94
    },
    {
      "midi": 60,
      "hit": false,
      "t": 386244.140625,
      "d": 1779.296875,
      "v": 87
    },
    {
      "midi": 64,
      "hit": false,
      "t": 386244.140625,
      "d": 1779.296875,
      "v": 87
    },
    {
      "midi": 67,
      "hit": false,
      "t": 386244.140625,
      "d": 1837.890625,
      "v": 87
    },
    {
      "midi": 36,
      "hit": false,
      "t": 386250,
      "d": 1847.65625,
      "v": 75
    },
    {
      "midi": 48,
      "hit": false,
      "t": 386250,
      "d": 1847.65625,
      "v": 94
    },
    {
      "midi": 36,
      "hit": false,
      "t": 388125,
      "d": 1847.65625,
      "v": 75
    },
    {
      "midi": 48,
      "hit": false,
      "t": 388125,
      "d": 1847.65625,
      "v": 94
    },
    {
      "midi": 67,
      "hit": false,
      "t": 388125,
      "d": 1822.265625,
      "v": 92
    },
    {
      "midi": 64,
      "hit": false,
      "t": 388134.765625,
      "d": 1828.125,
      "v": 88
    },
    {
      "midi": 60,
      "hit": false,
      "t": 388134.765625,
      "d": 1837.890625,
      "v": 88
    },
    {
      "midi": 67,
      "hit": false,
      "t": 389994.140625,
      "d": 1853.515625,
      "v": 102
    },
    {
      "midi": 36,
      "hit": false,
      "t": 390000,
      "d": 1847.65625,
      "v": 75
    },
    {
      "midi": 48,
      "hit": false,
      "t": 390000,
      "d": 1847.65625,
      "v": 94
    },
    {
      "midi": 60,
      "hit": false,
      "t": 390003.90625,
      "d": 1310.546875,
      "v": 85
    },
    {
      "midi": 64,
      "hit": false,
      "t": 390003.90625,
      "d": 3728.515625,
      "v": 85
    },
    {
      "midi": 60,
      "hit": false,
      "t": 391406.25,
      "d": 451.171875,
      "v": 91
    },
    {
      "midi": 36,
      "hit": false,
      "t": 391875,
      "d": 1798.828125,
      "v": 68
    },
    {
      "midi": 48,
      "hit": false,
      "t": 391875,
      "d": 1798.828125,
      "v": 87
    },
    {
      "midi": 67,
      "hit": false,
      "t": 391875,
      "d": 451.171875,
      "v": 98
    },
    {
      "midi": 72,
      "hit": false,
      "t": 392343.75,
      "d": 919.921875,
      "v": 98
    },
    {
      "midi": 67,
      "hit": false,
      "t": 393281.25,
      "d": 445.3125,
      "v": 94
    },
    {
      "midi": 50,
      "hit": false,
      "t": 393750,
      "d": 1798.828125,
      "v": 100
    },
    {
      "midi": 38,
      "hit": false,
      "t": 393750,
      "d": 5607.421875,
      "v": 112
    },
    {
      "midi": 65,
      "hit": false,
      "t": 393750,
      "d": 1822.265625,
      "v": 94
    },
    {
      "midi": 69,
      "hit": false,
      "t": 393750,
      "d": 5933.59375,
      "v": 97
    },
    {
      "midi": 60,
      "hit": false,
      "t": 393753.90625,
      "d": 1853.515625,
      "v": 101
    },
    {
      "midi": 62,
      "hit": false,
      "t": 393753.90625,
      "d": 1853.515625,
      "v": 103
    },
    {
      "midi": 50,
      "hit": false,
      "t": 395625,
      "d": 1798.828125,
      "v": 81
    },
    {
      "midi": 65,
      "hit": false,
      "t": 395625,
      "d": 1822.265625,
      "v": 82
    },
    {
      "midi": 60,
      "hit": false,
      "t": 395628.90625,
      "d": 1853.515625,
      "v": 89
    },
    {
      "midi": 62,
      "hit": false,
      "t": 395628.90625,
      "d": 1853.515625,
      "v": 91
    },
    {
      "midi": 50,
      "hit": false,
      "t": 397500,
      "d": 1867.1875,
      "v": 86
    },
    {
      "midi": 60,
      "hit": false,
      "t": 397972.65625,
      "d": 1384.765625,
      "v": 89
    },
    {
      "midi": 65,
      "hit": false,
      "t": 398437.5,
      "d": 884.765625,
      "v": 82
    },
    {
      "midi": 62,
      "hit": false,
      "t": 398441.40625,
      "d": 916.015625,
      "v": 91
    },
    {
      "midi": 50,
      "hit": false,
      "t": 399375,
      "d": 445.3125,
      "v": 86
    },
    {
      "midi": 38,
      "hit": false,
      "t": 399375,
      "d": 1857.421875,
      "v": 86
    },
    {
      "midi": 67,
      "hit": false,
      "t": 399375,
      "d": 451.171875,
      "v": 100
    },
    {
      "midi": 69,
      "hit": false,
      "t": 399833.984375,
      "d": 699.21875,
      "v": 101
    },
    {
      "midi": 50,
      "hit": false,
      "t": 399843.75,
      "d": 1330.078125,
      "v": 81
    },
    {
      "midi": 65,
      "hit": false,
      "t": 400302.734375,
      "d": 851.5625,
      "v": 95
    },
    {
      "midi": 60,
      "hit": false,
      "t": 400785.15625,
      "d": 431.640625,
      "v": 104
    },
    {
      "midi": 60,
      "hit": false,
      "t": 401240.234375,
      "d": 1861.328125,
      "v": 95
    },
    {
      "midi": 48,
      "hit": false,
      "t": 401250,
      "d": 1798.828125,
      "v": 86
    },
    {
      "midi": 36,
      "hit": false,
      "t": 401250,
      "d": 5607.421875,
      "v": 112
    },
    {
      "midi": 64,
      "hit": false,
      "t": 401250,
      "d": 1779.296875,
      "v": 95
    },
    {
      "midi": 67,
      "hit": false,
      "t": 401253.90625,
      "d": 3693.359375,
      "v": 97
    },
    {
      "midi": 48,
      "hit": false,
      "t": 403125,
      "d": 1798.828125,
      "v": 81
    },
    {
      "midi": 60,
      "hit": false,
      "t": 403128.90625,
      "d": 1843.75,
      "v": 80
    },
    {
      "midi": 64,
      "hit": false,
      "t": 403128.90625,
      "d": 1853.515625,
      "v": 82
    },
    {
      "midi": 60,
      "hit": false,
      "t": 404990.234375,
      "d": 1837.890625,
      "v": 86
    },
    {
      "midi": 48,
      "hit": false,
      "t": 405000,
      "d": 861.328125,
      "v": 86
    },
    {
      "midi": 64,
      "hit": false,
      "t": 405000,
      "d": 1779.296875,
      "v": 85
    },
    {
      "midi": 67,
      "hit": false,
      "t": 405000,
      "d": 1779.296875,
      "v": 86
    },
    {
      "midi": 48,
      "hit": false,
      "t": 405937.5,
      "d": 861.328125,
      "v": 76
    },
    {
      "midi": 60,
      "hit": false,
      "t": 406875,
      "d": 861.328125,
      "v": 81
    },
    {
      "midi": 36,
      "hit": false,
      "t": 406875,
      "d": 1857.421875,
      "v": 86
    },
    {
      "midi": 65,
      "hit": false,
      "t": 406878.90625,
      "d": 447.265625,
      "v": 108
    },
    {
      "midi": 67,
      "hit": false,
      "t": 406878.90625,
      "d": 916.015625,
      "v": 97
    },
    {
      "midi": 60,
      "hit": false,
      "t": 406878.90625,
      "d": 1378.90625,
      "v": 97
    },
    {
      "midi": 64,
      "hit": false,
      "t": 407347.65625,
      "d": 916.015625,
      "v": 105
    },
    {
      "midi": 48,
      "hit": false,
      "t": 407812.5,
      "d": 861.328125,
      "v": 76
    },
    {
      "midi": 67,
      "hit": false,
      "t": 407816.40625,
      "d": 916.015625,
      "v": 97
    },
    {
      "midi": 60,
      "hit": false,
      "t": 408285.15625,
      "d": 447.265625,
      "v": 97
    },
    {
      "midi": 38,
      "hit": false,
      "t": 408750,
      "d": 1798.828125,
      "v": 83
    },
    {
      "midi": 50,
      "hit": false,
      "t": 408750,
      "d": 1798.828125,
      "v": 102
    },
    {
      "midi": 65,
      "hit": false,
      "t": 408750,
      "d": 1822.265625,
      "v": 94
    },
    {
      "midi": 69,
      "hit": false,
      "t": 408750,
      "d": 4660.15625,
      "v": 97
    },
    {
      "midi": 60,
      "hit": false,
      "t": 408753.90625,
      "d": 1853.515625,
      "v": 101
    },
    {
      "midi": 62,
      "hit": false,
      "t": 408753.90625,
      "d": 1853.515625,
      "v": 103
    },
    {
      "midi": 38,
      "hit": false,
      "t": 410625,
      "d": 1798.828125,
      "v": 78
    },
    {
      "midi": 50,
      "hit": false,
      "t": 410625,
      "d": 1798.828125,
      "v": 97
    },
    {
      "midi": 65,
      "hit": false,
      "t": 410625,
      "d": 1822.265625,
      "v": 82
    },
    {
      "midi": 60,
      "hit": false,
      "t": 410628.90625,
      "d": 1296.875,
      "v": 89
    },
    {
      "midi": 62,
      "hit": false,
      "t": 410628.90625,
      "d": 1853.515625,
      "v": 91
    },
    {
      "midi": 60,
      "hit": false,
      "t": 412031.25,
      "d": 451.171875,
      "v": 94
    },
    {
      "midi": 38,
      "hit": false,
      "t": 412500,
      "d": 1798.828125,
      "v": 83
    },
    {
      "midi": 50,
      "hit": false,
      "t": 412500,
      "d": 1798.828125,
      "v": 102
    },
    {
      "midi": 65,
      "hit": false,
      "t": 412500,
      "d": 1822.265625,
      "v": 82
    },
    {
      "midi": 60,
      "hit": false,
      "t": 412503.90625,
      "d": 1853.515625,
      "v": 89
    },
    {
      "midi": 62,
      "hit": false,
      "t": 412503.90625,
      "d": 1853.515625,
      "v": 91
    },
    {
      "midi": 69,
      "hit": false,
      "t": 413437.5,
      "d": 919.921875,
      "v": 94
    },
    {
      "midi": 38,
      "hit": false,
      "t": 414375,
      "d": 1798.828125,
      "v": 78
    },
    {
      "midi": 50,
      "hit": false,
      "t": 414375,
      "d": 1798.828125,
      "v": 97
    },
    {
      "midi": 69,
      "hit": false,
      "t": 414375,
      "d": 451.171875,
      "v": 87
    },
    {
      "midi": 67,
      "hit": false,
      "t": 414843.75,
      "d": 451.171875,
      "v": 87
    },
    {
      "midi": 60,
      "hit": false,
      "t": 414847.65625,
      "d": 1369.140625,
      "v": 104
    },
    {
      "midi": 65,
      "hit": false,
      "t": 415302.734375,
      "d": 382.8125,
      "v": 95
    },
    {
      "midi": 69,
      "hit": false,
      "t": 415302.734375,
      "d": 699.21875,
      "v": 101
    },
    {
      "midi": 65,
      "hit": false,
      "t": 415781.25,
      "d": 451.171875,
      "v": 91
    },
    {
      "midi": 67,
      "hit": false,
      "t": 416244.140625,
      "d": 3728.515625,
      "v": 102
    },
    {
      "midi": 36,
      "hit": false,
      "t": 416250,
      "d": 1847.65625,
      "v": 75
    },
    {
      "midi": 48,
      "hit": false,
      "t": 416250,
      "d": 1847.65625,
      "v": 94
    },
    {
      "midi": 60,
      "hit": false,
      "t": 416253.90625,
      "d": 3654.296875,
      "v": 85
    },
    {
      "midi": 64,
      "hit": false,
      "t": 416253.90625,
      "d": 3728.515625,
      "v": 85
    },
    {
      "midi": 36,
      "hit": false,
      "t": 418125,
      "d": 1847.65625,
      "v": 75
    },
    {
      "midi": 48,
      "hit": false,
      "t": 418125,
      "d": 1847.65625,
      "v": 94
    },
    {
      "midi": 60,
      "hit": false,
      "t": 419994.140625,
      "d": 1779.296875,
      "v": 87
    },
    {
      "midi": 64,
      "hit": false,
      "t": 419994.140625,
      "d": 1779.296875,
      "v": 87
    },
    {
      "midi": 67,
      "hit": false,
      "t": 419994.140625,
      "d": 1837.890625,
      "v": 87
    },
    {
      "midi": 36,
      "hit": false,
      "t": 420000,
      "d": 1847.65625,
      "v": 75
    },
    {
      "midi": 48,
      "hit": false,
      "t": 420000,
      "d": 1847.65625,
      "v": 94
    },
    {
      "midi": 36,
      "hit": false,
      "t": 421875,
      "d": 1798.828125,
      "v": 68
    },
    {
      "midi": 48,
      "hit": false,
      "t": 421875,
      "d": 1798.828125,
      "v": 87
    },
    {
      "midi": 67,
      "hit": false,
      "t": 421875,
      "d": 1822.265625,
      "v": 99
    },
    {
      "midi": 60,
      "hit": false,
      "t": 421884.765625,
      "d": 900.390625,
      "v": 88
    },
    {
      "midi": 64,
      "hit": false,
      "t": 421884.765625,
      "d": 1828.125,
      "v": 88
    },
    {
      "midi": 60,
      "hit": false,
      "t": 422812.5,
      "d": 914.0625,
      "v": 101
    },
    {
      "midi": 34,
      "hit": false,
      "t": 423750,
      "d": 3732.421875,
      "v": 117
    },
    {
      "midi": 50,
      "hit": false,
      "t": 423750,
      "d": 3732.421875,
      "v": 117
    },
    {
      "midi": 60,
      "hit": false,
      "t": 423750,
      "d": 919.921875,
      "v": 109
    },
    {
      "midi": 67,
      "hit": false,
      "t": 423753.90625,
      "d": 1853.515625,
      "v": 112
    },
    {
      "midi": 65,
      "hit": false,
      "t": 423753.90625,
      "d": 3728.515625,
      "v": 112
    },
    {
      "midi": 50,
      "hit": false,
      "t": 427500,
      "d": 919.921875,
      "v": 107
    },
    {
      "midi": 34,
      "hit": false,
      "t": 427500,
      "d": 3673.828125,
      "v": 107
    },
    {
      "midi": 58,
      "hit": false,
      "t": 427500,
      "d": 2794.921875,
      "v": 98
    },
    {
      "midi": 69,
      "hit": false,
      "t": 427958.984375,
      "d": 796.875,
      "v": 117
    },
    {
      "midi": 50,
      "hit": false,
      "t": 428437.5,
      "d": 1857.421875,
      "v": 102
    },
    {
      "midi": 67,
      "hit": false,
      "t": 428906.25,
      "d": 871.09375,
      "v": 115
    },
    {
      "midi": 65,
      "hit": false,
      "t": 429853.515625,
      "d": 1378.90625,
      "v": 117
    },
    {
      "midi": 50,
      "hit": false,
      "t": 430312.5,
      "d": 919.921875,
      "v": 107
    },
    {
      "midi": 33,
      "hit": false,
      "t": 431250,
      "d": 3732.421875,
      "v": 107
    },
    {
      "midi": 48,
      "hit": false,
      "t": 431250,
      "d": 3732.421875,
      "v": 107
    },
    {
      "midi": 64,
      "hit": false,
      "t": 431250,
      "d": 914.0625,
      "v": 98
    },
    {
      "midi": 67,
      "hit": false,
      "t": 431253.90625,
      "d": 3728.515625,
      "v": 101
    },
    {
      "midi": 65,
      "hit": false,
      "t": 432181.640625,
      "d": 451.171875,
      "v": 108
    },
    {
      "midi": 64,
      "hit": false,
      "t": 432650.390625,
      "d": 880.859375,
      "v": 117
    },
    {
      "midi": 60,
      "hit": false,
      "t": 433587.890625,
      "d": 919.921875,
      "v": 110
    },
    {
      "midi": 57,
      "hit": false,
      "t": 434525.390625,
      "d": 2791.015625,
      "v": 108
    },
    {
      "midi": 33,
      "hit": false,
      "t": 435000,
      "d": 3732.421875,
      "v": 107
    },
    {
      "midi": 48,
      "hit": false,
      "t": 435000,
      "d": 3732.421875,
      "v": 107
    },
    {
      "midi": 60,
      "hit": false,
      "t": 435000,
      "d": 919.921875,
      "v": 98
    },
    {
      "midi": 67,
      "hit": false,
      "t": 435003.90625,
      "d": 916.015625,
      "v": 101
    },
    {
      "midi": 64,
      "hit": false,
      "t": 435003.90625,
      "d": 1384.765625,
      "v": 101
    },
    {
      "midi": 60,
      "hit": false,
      "t": 435941.40625,
      "d": 447.265625,
      "v": 108
    },
    {
      "midi": 64,
      "hit": false,
      "t": 436406.25,
      "d": 455.078125,
      "v": 117
    },
    {
      "midi": 57,
      "hit": false,
      "t": 437337.890625,
      "d": 1789.0625,
      "v": 117
    },
    {
      "midi": 65,
      "hit": false,
      "t": 437343.75,
      "d": 1388.671875,
      "v": 117
    },
    {
      "midi": 34,
      "hit": false,
      "t": 438750,
      "d": 3732.421875,
      "v": 107
    },
    {
      "midi": 50,
      "hit": false,
      "t": 438750,
      "d": 3732.421875,
      "v": 107
    },
    {
      "midi": 60,
      "hit": false,
      "t": 438750,
      "d": 919.921875,
      "v": 98
    },
    {
      "midi": 69,
      "hit": false,
      "t": 438753.90625,
      "d": 1384.765625,
      "v": 101
    },
    {
      "midi": 65,
      "hit": false,
      "t": 438753.90625,
      "d": 1853.515625,
      "v": 101
    },
    {
      "midi": 69,
      "hit": false,
      "t": 441097.65625,
      "d": 437.5,
      "v": 120
    },
    {
      "midi": 65,
      "hit": false,
      "t": 441552.734375,
      "d": 451.171875,
      "v": 114
    },
    {
      "midi": 60,
      "hit": false,
      "t": 442025.390625,
      "d": 408.203125,
      "v": 115
    },
    {
      "midi": 34,
      "hit": false,
      "t": 442500,
      "d": 3732.421875,
      "v": 107
    },
    {
      "midi": 50,
      "hit": false,
      "t": 442500,
      "d": 3732.421875,
      "v": 107
    },
    {
      "midi": 58,
      "hit": false,
      "t": 442500,
      "d": 1388.671875,
      "v": 98
    },
    {
      "midi": 60,
      "hit": false,
      "t": 442500,
      "d": 1388.671875,
      "v": 98
    },
    {
      "midi": 67,
      "hit": false,
      "t": 442503.90625,
      "d": 916.015625,
      "v": 101
    },
    {
      "midi": 67,
      "hit": false,
      "t": 444359.375,
      "d": 451.171875,
      "v": 117
    },
    {
      "midi": 69,
      "hit": false,
      "t": 444837.890625,
      "d": 412.109375,
      "v": 115
    },
    {
      "midi": 65,
      "hit": false,
      "t": 445296.875,
      "d": 398.4375,
      "v": 116
    },
    {
      "midi": 60,
      "hit": false,
      "t": 445781.25,
      "d": 421.875,
      "v": 114
    },
    {
      "midi": 33,
      "hit": false,
      "t": 446250,
      "d": 3732.421875,
      "v": 107
    },
    {
      "midi": 48,
      "hit": false,
      "t": 446250,
      "d": 3732.421875,
      "v": 107
    },
    {
      "midi": 60,
      "hit": false,
      "t": 446250,
      "d": 910.15625,
      "v": 98
    },
    {
      "midi": 67,
      "hit": false,
      "t": 446253.90625,
      "d": 916.015625,
      "v": 101
    },
    {
      "midi": 64,
      "hit": false,
      "t": 446253.90625,
      "d": 1384.765625,
      "v": 101
    },
    {
      "midi": 60,
      "hit": false,
      "t": 447187.5,
      "d": 1388.671875,
      "v": 103
    },
    {
      "midi": 64,
      "hit": false,
      "t": 447656.25,
      "d": 871.09375,
      "v": 112
    },
    {
      "midi": 65,
      "hit": false,
      "t": 448593.75,
      "d": 451.171875,
      "v": 103
    },
    {
      "midi": 64,
      "hit": false,
      "t": 449062.5,
      "d": 3693.359375,
      "v": 112
    },
    {
      "midi": 60,
      "hit": false,
      "t": 449062.5,
      "d": 4669.921875,
      "v": 106
    },
    {
      "midi": 48,
      "hit": false,
      "t": 450000,
      "d": 1857.421875,
      "v": 107
    },
    {
      "midi": 33,
      "hit": false,
      "t": 450000,
      "d": 3732.421875,
      "v": 107
    },
    {
      "midi": 48,
      "hit": false,
      "t": 451875,
      "d": 1857.421875,
      "v": 102
    },
    {
      "midi": 65,
      "hit": false,
      "t": 452812.5,
      "d": 464.84375,
      "v": 1
    },
    {
      "midi": 72,
      "hit": false,
      "t": 452812.5,
      "d": 464.84375,
      "v": 1
    },
    {
      "midi": 65,
      "hit": false,
      "t": 452816.40625,
      "d": 916.015625,
      "v": 106
    },
    {
      "midi": 64,
      "hit": false,
      "t": 453281.25,
      "d": 451.171875,
      "v": 100
    },
    {
      "midi": 64,
      "hit": false,
      "t": 453281.25,
      "d": 464.84375,
      "v": 1
    },
    {
      "midi": 70,
      "hit": false,
      "t": 453281.25,
      "d": 464.84375,
      "v": 1
    },
    {
      "midi": 34,
      "hit": false,
      "t": 453750,
      "d": 3732.421875,
      "v": 117
    },
    {
      "midi": 50,
      "hit": false,
      "t": 453750,
      "d": 3732.421875,
      "v": 117
    },
    {
      "midi": 60,
      "hit": false,
      "t": 453750,
      "d": 919.921875,
      "v": 109
    },
    {
      "midi": 65,
      "hit": false,
      "t": 453750,
      "d": 933.59375,
      "v": 1
    },
    {
      "midi": 69,
      "hit": false,
      "t": 453750,
      "d": 933.59375,
      "v": 1
    },
    {
      "midi": 58,
      "hit": false,
      "t": 453753.90625,
      "d": 1853.515625,
      "v": 112
    },
    {
      "midi": 65,
      "hit": false,
      "t": 453753.90625,
      "d": 3728.515625,
      "v": 112
    },
    {
      "midi": 60,
      "hit": false,
      "t": 454687.5,
      "d": 464.84375,
      "v": 1
    },
    {
      "midi": 65,
      "hit": false,
      "t": 454687.5,
      "d": 464.84375,
      "v": 1
    },
    {
      "midi": 62,
      "hit": false,
      "t": 455156.25,
      "d": 6089.84375,
      "v": 1
    },
    {
      "midi": 67,
      "hit": false,
      "t": 455156.25,
      "d": 6089.84375,
      "v": 1
    },
    {
      "midi": 67,
      "hit": false,
      "t": 456562.5,
      "d": 451.171875,
      "v": 113
    },
    {
      "midi": 67,
      "hit": false,
      "t": 457031.25,
      "d": 451.171875,
      "v": 124
    },
    {
      "midi": 62,
      "hit": false,
      "t": 457490.234375,
      "d": 796.875,
      "v": 117
    },
    {
      "midi": 67,
      "hit": false,
      "t": 457490.234375,
      "d": 796.875,
      "v": 117
    },
    {
      "midi": 50,
      "hit": false,
      "t": 457500,
      "d": 919.921875,
      "v": 107
    },
    {
      "midi": 34,
      "hit": false,
      "t": 457500,
      "d": 3673.828125,
      "v": 107
    },
    {
      "midi": 58,
      "hit": false,
      "t": 457500,
      "d": 1388.671875,
      "v": 98
    },
    {
      "midi": 50,
      "hit": false,
      "t": 458437.5,
      "d": 1857.421875,
      "v": 102
    },
    {
      "midi": 65,
      "hit": false,
      "t": 458437.5,
      "d": 451.171875,
      "v": 113
    },
    {
      "midi": 65,
      "hit": false,
      "t": 458906.25,
      "d": 451.171875,
      "v": 124
    },
    {
      "midi": 58,
      "hit": false,
      "t": 458906.25,
      "d": 871.09375,
      "v": 115
    },
    {
      "midi": 60,
      "hit": false,
      "t": 459853.515625,
      "d": 441.40625,
      "v": 117
    },
    {
      "midi": 50,
      "hit": false,
      "t": 460312.5,
      "d": 919.921875,
      "v": 107
    },
    {
      "midi": 50,
      "hit": false,
      "t": 460312.5,
      "d": 914.0625,
      "v": 98
    },
    {
      "midi": 58,
      "hit": false,
      "t": 460312.5,
      "d": 914.0625,
      "v": 98
    },
    {
      "midi": 33,
      "hit": false,
      "t": 461250,
      "d": 3732.421875,
      "v": 107
    },
    {
      "midi": 48,
      "hit": false,
      "t": 461250,
      "d": 3732.421875,
      "v": 107
    },
    {
      "midi": 64,
      "hit": false,
      "t": 461250,
      "d": 914.0625,
      "v": 98
    },
    {
      "midi": 64,
      "hit": false,
      "t": 461250,
      "d": 464.84375,
      "v": 1
    },
    {
      "midi": 67,
      "hit": false,
      "t": 461250,
      "d": 464.84375,
      "v": 1
    },
    {
      "midi": 67,
      "hit": false,
      "t": 461253.90625,
      "d": 3728.515625,
      "v": 101
    },
    {
      "midi": 62,
      "hit": false,
      "t": 461718.75,
      "d": 464.84375,
      "v": 1
    },
    {
      "midi": 65,
      "hit": false,
      "t": 461718.75,
      "d": 464.84375,
      "v": 1
    },
    {
      "midi": 64,
      "hit": false,
      "t": 462187.5,
      "d": 464.84375,
      "v": 1
    },
    {
      "midi": 67,
      "hit": false,
      "t": 462187.5,
      "d": 464.84375,
      "v": 1
    },
    {
      "midi": 60,
      "hit": false,
      "t": 462650.390625,
      "d": 919.921875,
      "v": 108
    },
    {
      "midi": 62,
      "hit": false,
      "t": 462656.25,
      "d": 464.84375,
      "v": 1
    },
    {
      "midi": 65,
      "hit": false,
      "t": 462656.25,
      "d": 464.84375,
      "v": 1
    },
    {
      "midi": 64,
      "hit": false,
      "t": 463125,
      "d": 933.59375,
      "v": 1
    },
    {
      "midi": 67,
      "hit": false,
      "t": 463125,
      "d": 933.59375,
      "v": 1
    },
    {
      "midi": 64,
      "hit": false,
      "t": 463587.890625,
      "d": 880.859375,
      "v": 117
    },
    {
      "midi": 62,
      "hit": false,
      "t": 464062.5,
      "d": 464.84375,
      "v": 1
    },
    {
      "midi": 65,
      "hit": false,
      "t": 464062.5,
      "d": 464.84375,
      "v": 1
    },
    {
      "midi": 57,
      "hit": false,
      "t": 464525.390625,
      "d": 2791.015625,
      "v": 108
    },
    {
      "midi": 64,
      "hit": false,
      "t": 464531.25,
      "d": 2808.59375,
      "v": 1
    },
    {
      "midi": 69,
      "hit": false,
      "t": 464531.25,
      "d": 2808.59375,
      "v": 1
    },
    {
      "midi": 33,
      "hit": false,
      "t": 465000,
      "d": 3732.421875,
      "v": 107
    },
    {
      "midi": 48,
      "hit": false,
      "t": 465000,
      "d": 3732.421875,
      "v": 107
    },
    {
      "midi": 60,
      "hit": false,
      "t": 465000,
      "d": 919.921875,
      "v": 98
    },
    {
      "midi": 67,
      "hit": false,
      "t": 465003.90625,
      "d": 916.015625,
      "v": 101
    },
    {
      "midi": 64,
      "hit": false,
      "t": 465003.90625,
      "d": 1384.765625,
      "v": 101
    },
    {
      "midi": 60,
      "hit": false,
      "t": 465941.40625,
      "d": 447.265625,
      "v": 108
    },
    {
      "midi": 64,
      "hit": false,
      "t": 466406.25,
      "d": 914.0625,
      "v": 117
    },
    {
      "midi": 72,
      "hit": false,
      "t": 466878.90625,
      "d": 916.015625,
      "v": 123
    },
    {
      "midi": 57,
      "hit": false,
      "t": 467337.890625,
      "d": 1320.3125,
      "v": 117
    },
    {
      "midi": 65,
      "hit": false,
      "t": 467343.75,
      "d": 1388.671875,
      "v": 117
    },
    {
      "midi": 65,
      "hit": false,
      "t": 467343.75,
      "d": 464.84375,
      "v": 1
    },
    {
      "midi": 72,
      "hit": false,
      "t": 467343.75,
      "d": 464.84375,
      "v": 1
    },
    {
      "midi": 64,
      "hit": false,
      "t": 467812.5,
      "d": 464.84375,
      "v": 1
    },
    {
      "midi": 70,
      "hit": false,
      "t": 467812.5,
      "d": 464.84375,
      "v": 1
    },
    {
      "midi": 70,
      "hit": false,
      "t": 467816.40625,
      "d": 916.015625,
      "v": 113
    },
    {
      "midi": 65,
      "hit": false,
      "t": 468281.25,
      "d": 1402.34375,
      "v": 1
    },
    {
      "midi": 69,
      "hit": false,
      "t": 468281.25,
      "d": 1402.34375,
      "v": 1
    },
    {
      "midi": 34,
      "hit": false,
      "t": 468750,
      "d": 3732.421875,
      "v": 107
    },
    {
      "midi": 50,
      "hit": false,
      "t": 468750,
      "d": 3732.421875,
      "v": 107
    },
    {
      "midi": 60,
      "hit": false,
      "t": 468750,
      "d": 919.921875,
      "v": 109
    },
    {
      "midi": 58,
      "hit": false,
      "t": 468753.90625,
      "d": 1853.515625,
      "v": 112
    },
    {
      "midi": 65,
      "hit": false,
      "t": 468753.90625,
      "d": 3728.515625,
      "v": 112
    },
    {
      "midi": 60,
      "hit": false,
      "t": 469687.5,
      "d": 464.84375,
      "v": 1
    },
    {
      "midi": 65,
      "hit": false,
      "t": 469687.5,
      "d": 464.84375,
      "v": 1
    },
    {
      "midi": 62,
      "hit": false,
      "t": 470156.25,
      "d": 6089.84375,
      "v": 1
    },
    {
      "midi": 67,
      "hit": false,
      "t": 470156.25,
      "d": 6089.84375,
      "v": 1
    },
    {
      "midi": 62,
      "hit": false,
      "t": 472490.234375,
      "d": 796.875,
      "v": 117
    },
    {
      "midi": 67,
      "hit": false,
      "t": 472490.234375,
      "d": 796.875,
      "v": 117
    },
    {
      "midi": 34,
      "hit": false,
      "t": 472500,
      "d": 3732.421875,
      "v": 107
    },
    {
      "midi": 50,
      "hit": false,
      "t": 472500,
      "d": 3732.421875,
      "v": 107
    },
    {
      "midi": 58,
      "hit": false,
      "t": 472500,
      "d": 1388.671875,
      "v": 98
    },
    {
      "midi": 58,
      "hit": false,
      "t": 473906.25,
      "d": 871.09375,
      "v": 115
    },
    {
      "midi": 65,
      "hit": false,
      "t": 473906.25,
      "d": 871.09375,
      "v": 115
    },
    {
      "midi": 60,
      "hit": false,
      "t": 474853.515625,
      "d": 441.40625,
      "v": 117
    },
    {
      "midi": 50,
      "hit": false,
      "t": 475312.5,
      "d": 914.0625,
      "v": 98
    },
    {
      "midi": 58,
      "hit": false,
      "t": 475312.5,
      "d": 914.0625,
      "v": 98
    },
    {
      "midi": 33,
      "hit": false,
      "t": 476250,
      "d": 3732.421875,
      "v": 107
    },
    {
      "midi": 48,
      "hit": false,
      "t": 476250,
      "d": 3732.421875,
      "v": 107
    },
    {
      "midi": 64,
      "hit": false,
      "t": 476250,
      "d": 914.0625,
      "v": 98
    },
    {
      "midi": 64,
      "hit": false,
      "t": 476250,
      "d": 464.84375,
      "v": 1
    },
    {
      "midi": 67,
      "hit": false,
      "t": 476250,
      "d": 464.84375,
      "v": 1
    },
    {
      "midi": 67,
      "hit": false,
      "t": 476253.90625,
      "d": 3728.515625,
      "v": 101
    },
    {
      "midi": 62,
      "hit": false,
      "t": 476718.75,
      "d": 464.84375,
      "v": 1
    },
    {
      "midi": 65,
      "hit": false,
      "t": 476718.75,
      "d": 464.84375,
      "v": 1
    },
    {
      "midi": 64,
      "hit": false,
      "t": 477187.5,
      "d": 464.84375,
      "v": 1
    },
    {
      "midi": 67,
      "hit": false,
      "t": 477187.5,
      "d": 464.84375,
      "v": 1
    },
    {
      "midi": 60,
      "hit": false,
      "t": 477650.390625,
      "d": 919.921875,
      "v": 108
    },
    {
      "midi": 62,
      "hit": false,
      "t": 477656.25,
      "d": 464.84375,
      "v": 1
    },
    {
      "midi": 65,
      "hit": false,
      "t": 477656.25,
      "d": 464.84375,
      "v": 1
    },
    {
      "midi": 64,
      "hit": false,
      "t": 478125,
      "d": 933.59375,
      "v": 1
    },
    {
      "midi": 67,
      "hit": false,
      "t": 478125,
      "d": 933.59375,
      "v": 1
    },
    {
      "midi": 64,
      "hit": false,
      "t": 478587.890625,
      "d": 880.859375,
      "v": 117
    },
    {
      "midi": 62,
      "hit": false,
      "t": 479062.5,
      "d": 464.84375,
      "v": 1
    },
    {
      "midi": 65,
      "hit": false,
      "t": 479062.5,
      "d": 464.84375,
      "v": 1
    },
    {
      "midi": 57,
      "hit": false,
      "t": 479525.390625,
      "d": 2791.015625,
      "v": 108
    },
    {
      "midi": 64,
      "hit": false,
      "t": 479531.25,
      "d": 2408.203125,
      "v": 1
    },
    {
      "midi": 69,
      "hit": false,
      "t": 479531.25,
      "d": 2408.203125,
      "v": 1
    },
    {
      "midi": 48,
      "hit": false,
      "t": 480000,
      "d": 1857.421875,
      "v": 107
    },
    {
      "midi": 33,
      "hit": false,
      "t": 480000,
      "d": 3732.421875,
      "v": 107
    },
    {
      "midi": 60,
      "hit": false,
      "t": 480000,
      "d": 919.921875,
      "v": 98
    },
    {
      "midi": 67,
      "hit": false,
      "t": 480003.90625,
      "d": 916.015625,
      "v": 101
    },
    {
      "midi": 64,
      "hit": false,
      "t": 480003.90625,
      "d": 1384.765625,
      "v": 101
    },
    {
      "midi": 60,
      "hit": false,
      "t": 480941.40625,
      "d": 447.265625,
      "v": 108
    },
    {
      "midi": 64,
      "hit": false,
      "t": 481406.25,
      "d": 455.078125,
      "v": 117
    },
    {
      "midi": 48,
      "hit": false,
      "t": 481875,
      "d": 1857.421875,
      "v": 102
    },
    {
      "midi": 67,
      "hit": false,
      "t": 481875,
      "d": 933.59375,
      "v": 1
    },
    {
      "midi": 57,
      "hit": false,
      "t": 482337.890625,
      "d": 1320.3125,
      "v": 117
    },
    {
      "midi": 65,
      "hit": false,
      "t": 482343.75,
      "d": 1388.671875,
      "v": 117
    },
    {
      "midi": 64,
      "hit": false,
      "t": 482812.5,
      "d": 464.84375,
      "v": 1
    },
    {
      "midi": 72,
      "hit": false,
      "t": 482812.5,
      "d": 464.84375,
      "v": 1
    },
    {
      "midi": 64,
      "hit": false,
      "t": 483281.25,
      "d": 480.46875,
      "v": 1
    },
    {
      "midi": 70,
      "hit": false,
      "t": 483281.25,
      "d": 480.46875,
      "v": 1
    },
    {
      "midi": 34,
      "hit": false,
      "t": 483750,
      "d": 3732.421875,
      "v": 110
    },
    {
      "midi": 50,
      "hit": false,
      "t": 483750,
      "d": 3732.421875,
      "v": 110
    },
    {
      "midi": 60,
      "hit": false,
      "t": 483750,
      "d": 919.921875,
      "v": 102
    },
    {
      "midi": 65,
      "hit": false,
      "t": 483750,
      "d": 933.59375,
      "v": 1
    },
    {
      "midi": 69,
      "hit": false,
      "t": 483750,
      "d": 933.59375,
      "v": 1
    },
    {
      "midi": 58,
      "hit": false,
      "t": 483753.90625,
      "d": 1853.515625,
      "v": 105
    },
    {
      "midi": 65,
      "hit": false,
      "t": 483753.90625,
      "d": 3728.515625,
      "v": 105
    },
    {
      "midi": 60,
      "hit": false,
      "t": 484687.5,
      "d": 464.84375,
      "v": 1
    },
    {
      "midi": 65,
      "hit": false,
      "t": 484687.5,
      "d": 464.84375,
      "v": 1
    },
    {
      "midi": 62,
      "hit": false,
      "t": 485156.25,
      "d": 6089.84375,
      "v": 1
    },
    {
      "midi": 67,
      "hit": false,
      "t": 485156.25,
      "d": 6089.84375,
      "v": 1
    },
    {
      "midi": 62,
      "hit": false,
      "t": 487490.234375,
      "d": 796.875,
      "v": 110
    },
    {
      "midi": 67,
      "hit": false,
      "t": 487490.234375,
      "d": 796.875,
      "v": 110
    },
    {
      "midi": 50,
      "hit": false,
      "t": 487500,
      "d": 919.921875,
      "v": 100
    },
    {
      "midi": 34,
      "hit": false,
      "t": 487500,
      "d": 3673.828125,
      "v": 100
    },
    {
      "midi": 58,
      "hit": false,
      "t": 487500,
      "d": 1388.671875,
      "v": 91
    },
    {
      "midi": 50,
      "hit": false,
      "t": 488437.5,
      "d": 1857.421875,
      "v": 95
    },
    {
      "midi": 58,
      "hit": false,
      "t": 488906.25,
      "d": 871.09375,
      "v": 108
    },
    {
      "midi": 65,
      "hit": false,
      "t": 488906.25,
      "d": 871.09375,
      "v": 108
    },
    {
      "midi": 60,
      "hit": false,
      "t": 489853.515625,
      "d": 441.40625,
      "v": 110
    },
    {
      "midi": 50,
      "hit": false,
      "t": 490312.5,
      "d": 919.921875,
      "v": 100
    },
    {
      "midi": 50,
      "hit": false,
      "t": 490312.5,
      "d": 914.0625,
      "v": 91
    },
    {
      "midi": 58,
      "hit": false,
      "t": 490312.5,
      "d": 914.0625,
      "v": 91
    },
    {
      "midi": 33,
      "hit": false,
      "t": 491250,
      "d": 3732.421875,
      "v": 100
    },
    {
      "midi": 48,
      "hit": false,
      "t": 491250,
      "d": 3732.421875,
      "v": 100
    },
    {
      "midi": 64,
      "hit": false,
      "t": 491250,
      "d": 914.0625,
      "v": 91
    },
    {
      "midi": 60,
      "hit": false,
      "t": 491250,
      "d": 464.84375,
      "v": 1
    },
    {
      "midi": 67,
      "hit": false,
      "t": 491250,
      "d": 464.84375,
      "v": 1
    },
    {
      "midi": 67,
      "hit": false,
      "t": 491253.90625,
      "d": 3728.515625,
      "v": 94
    },
    {
      "midi": 60,
      "hit": false,
      "t": 491718.75,
      "d": 464.84375,
      "v": 1
    },
    {
      "midi": 65,
      "hit": false,
      "t": 491718.75,
      "d": 464.84375,
      "v": 1
    },
    {
      "midi": 60,
      "hit": false,
      "t": 492187.5,
      "d": 464.84375,
      "v": 1
    },
    {
      "midi": 67,
      "hit": false,
      "t": 492187.5,
      "d": 464.84375,
      "v": 1
    },
    {
      "midi": 60,
      "hit": false,
      "t": 492650.390625,
      "d": 919.921875,
      "v": 101
    },
    {
      "midi": 60,
      "hit": false,
      "t": 492656.25,
      "d": 464.84375,
      "v": 1
    },
    {
      "midi": 65,
      "hit": false,
      "t": 492656.25,
      "d": 464.84375,
      "v": 1
    },
    {
      "midi": 60,
      "hit": false,
      "t": 493125,
      "d": 464.84375,
      "v": 1
    },
    {
      "midi": 67,
      "hit": false,
      "t": 493125,
      "d": 464.84375,
      "v": 1
    },
    {
      "midi": 64,
      "hit": false,
      "t": 493587.890625,
      "d": 880.859375,
      "v": 110
    },
    {
      "midi": 60,
      "hit": false,
      "t": 493593.75,
      "d": 464.84375,
      "v": 1
    },
    {
      "midi": 65,
      "hit": false,
      "t": 493593.75,
      "d": 464.84375,
      "v": 1
    },
    {
      "midi": 64,
      "hit": false,
      "t": 494062.5,
      "d": 3277.34375,
      "v": 1
    },
    {
      "midi": 69,
      "hit": false,
      "t": 494062.5,
      "d": 3277.34375,
      "v": 1
    },
    {
      "midi": 57,
      "hit": false,
      "t": 494525.390625,
      "d": 2791.015625,
      "v": 101
    },
    {
      "midi": 33,
      "hit": false,
      "t": 495000,
      "d": 3732.421875,
      "v": 100
    },
    {
      "midi": 48,
      "hit": false,
      "t": 495000,
      "d": 3732.421875,
      "v": 100
    },
    {
      "midi": 60,
      "hit": false,
      "t": 495000,
      "d": 919.921875,
      "v": 91
    },
    {
      "midi": 67,
      "hit": false,
      "t": 495003.90625,
      "d": 916.015625,
      "v": 94
    },
    {
      "midi": 64,
      "hit": false,
      "t": 495003.90625,
      "d": 1384.765625,
      "v": 94
    },
    {
      "midi": 60,
      "hit": false,
      "t": 495941.40625,
      "d": 447.265625,
      "v": 101
    },
    {
      "midi": 64,
      "hit": false,
      "t": 496406.25,
      "d": 914.0625,
      "v": 110
    },
    {
      "midi": 57,
      "hit": false,
      "t": 497337.890625,
      "d": 1320.3125,
      "v": 110
    },
    {
      "midi": 65,
      "hit": false,
      "t": 497343.75,
      "d": 1388.671875,
      "v": 110
    },
    {
      "midi": 65,
      "hit": false,
      "t": 497343.75,
      "d": 464.84375,
      "v": 1
    },
    {
      "midi": 72,
      "hit": false,
      "t": 497343.75,
      "d": 464.84375,
      "v": 1
    },
    {
      "midi": 64,
      "hit": false,
      "t": 497812.5,
      "d": 464.84375,
      "v": 1
    },
    {
      "midi": 70,
      "hit": false,
      "t": 497812.5,
      "d": 464.84375,
      "v": 1
    },
    {
      "midi": 65,
      "hit": false,
      "t": 498281.25,
      "d": 1402.34375,
      "v": 1
    },
    {
      "midi": 69,
      "hit": false,
      "t": 498281.25,
      "d": 1402.34375,
      "v": 1
    },
    {
      "midi": 34,
      "hit": false,
      "t": 498750,
      "d": 3732.421875,
      "v": 100
    },
    {
      "midi": 50,
      "hit": false,
      "t": 498750,
      "d": 3732.421875,
      "v": 100
    },
    {
      "midi": 60,
      "hit": false,
      "t": 498750,
      "d": 919.921875,
      "v": 102
    },
    {
      "midi": 58,
      "hit": false,
      "t": 498753.90625,
      "d": 1853.515625,
      "v": 105
    },
    {
      "midi": 65,
      "hit": false,
      "t": 498753.90625,
      "d": 3728.515625,
      "v": 105
    },
    {
      "midi": 60,
      "hit": false,
      "t": 499687.5,
      "d": 464.84375,
      "v": 1
    },
    {
      "midi": 65,
      "hit": false,
      "t": 499687.5,
      "d": 464.84375,
      "v": 1
    },
    {
      "midi": 62,
      "hit": false,
      "t": 500156.25,
      "d": 6089.84375,
      "v": 1
    },
    {
      "midi": 67,
      "hit": false,
      "t": 500156.25,
      "d": 6089.84375,
      "v": 1
    },
    {
      "midi": 62,
      "hit": false,
      "t": 502490.234375,
      "d": 796.875,
      "v": 110
    },
    {
      "midi": 67,
      "hit": false,
      "t": 502490.234375,
      "d": 796.875,
      "v": 110
    },
    {
      "midi": 34,
      "hit": false,
      "t": 502500,
      "d": 3732.421875,
      "v": 100
    },
    {
      "midi": 50,
      "hit": false,
      "t": 502500,
      "d": 3732.421875,
      "v": 100
    },
    {
      "midi": 58,
      "hit": false,
      "t": 502500,
      "d": 1388.671875,
      "v": 91
    },
    {
      "midi": 58,
      "hit": false,
      "t": 503906.25,
      "d": 871.09375,
      "v": 108
    },
    {
      "midi": 65,
      "hit": false,
      "t": 503906.25,
      "d": 871.09375,
      "v": 108
    },
    {
      "midi": 60,
      "hit": false,
      "t": 504853.515625,
      "d": 441.40625,
      "v": 110
    },
    {
      "midi": 50,
      "hit": false,
      "t": 505312.5,
      "d": 914.0625,
      "v": 91
    },
    {
      "midi": 58,
      "hit": false,
      "t": 505312.5,
      "d": 914.0625,
      "v": 91
    },
    {
      "midi": 33,
      "hit": false,
      "t": 506250,
      "d": 3732.421875,
      "v": 100
    },
    {
      "midi": 48,
      "hit": false,
      "t": 506250,
      "d": 3732.421875,
      "v": 100
    },
    {
      "midi": 64,
      "hit": false,
      "t": 506250,
      "d": 914.0625,
      "v": 91
    },
    {
      "midi": 64,
      "hit": false,
      "t": 506250,
      "d": 6792.96875,
      "v": 1
    },
    {
      "midi": 67,
      "hit": false,
      "t": 506250,
      "d": 6792.96875,
      "v": 1
    },
    {
      "midi": 67,
      "hit": false,
      "t": 506253.90625,
      "d": 3728.515625,
      "v": 94
    },
    {
      "midi": 60,
      "hit": false,
      "t": 507650.390625,
      "d": 919.921875,
      "v": 101
    },
    {
      "midi": 64,
      "hit": false,
      "t": 508587.890625,
      "d": 880.859375,
      "v": 110
    },
    {
      "midi": 57,
      "hit": false,
      "t": 509525.390625,
      "d": 2791.015625,
      "v": 101
    },
    {
      "midi": 48,
      "hit": false,
      "t": 510000,
      "d": 1857.421875,
      "v": 100
    },
    {
      "midi": 33,
      "hit": false,
      "t": 510000,
      "d": 3732.421875,
      "v": 100
    },
    {
      "midi": 60,
      "hit": false,
      "t": 510000,
      "d": 919.921875,
      "v": 91
    },
    {
      "midi": 67,
      "hit": false,
      "t": 510003.90625,
      "d": 916.015625,
      "v": 94
    },
    {
      "midi": 64,
      "hit": false,
      "t": 510003.90625,
      "d": 1384.765625,
      "v": 94
    },
    {
      "midi": 60,
      "hit": false,
      "t": 510941.40625,
      "d": 447.265625,
      "v": 101
    },
    {
      "midi": 64,
      "hit": false,
      "t": 511406.25,
      "d": 455.078125,
      "v": 110
    },
    {
      "midi": 48,
      "hit": false,
      "t": 511875,
      "d": 1857.421875,
      "v": 95
    },
    {
      "midi": 57,
      "hit": false,
      "t": 512337.890625,
      "d": 1320.3125,
      "v": 110
    },
    {
      "midi": 65,
      "hit": false,
      "t": 512343.75,
      "d": 1388.671875,
      "v": 110
    },
    {
      "midi": 62,
      "hit": false,
      "t": 513046.875,
      "d": 699.21875,
      "v": 1
    },
    {
      "midi": 65,
      "hit": false,
      "t": 513046.875,
      "d": 699.21875,
      "v": 1
    },
    {
      "midi": 34,
      "hit": false,
      "t": 513750,
      "d": 1857.421875,
      "v": 100
    },
    {
      "midi": 50,
      "hit": false,
      "t": 513750,
      "d": 1857.421875,
      "v": 100
    },
    {
      "midi": 60,
      "hit": false,
      "t": 513750,
      "d": 919.921875,
      "v": 91
    },
    {
      "midi": 74,
      "hit": false,
      "t": 513750,
      "d": 6558.59375,
      "v": 1
    },
    {
      "midi": 67,
      "hit": false,
      "t": 513753.90625,
      "d": 1853.515625,
      "v": 94
    },
    {
      "midi": 65,
      "hit": false,
      "t": 513753.90625,
      "d": 3728.515625,
      "v": 94
    },
    {
      "midi": 58,
      "hit": false,
      "t": 514677.734375,
      "d": 919.921875,
      "v": 90
    },
    {
      "midi": 60,
      "hit": false,
      "t": 515619.140625,
      "d": 890.625,
      "v": 92
    },
    {
      "midi": 34,
      "hit": false,
      "t": 515625,
      "d": 1857.421875,
      "v": 95
    },
    {
      "midi": 50,
      "hit": false,
      "t": 515625,
      "d": 1857.421875,
      "v": 95
    },
    {
      "midi": 67,
      "hit": false,
      "t": 515625,
      "d": 919.921875,
      "v": 91
    },
    {
      "midi": 67,
      "hit": false,
      "t": 516556.640625,
      "d": 300.78125,
      "v": 106
    },
    {
      "midi": 58,
      "hit": false,
      "t": 516556.640625,
      "d": 919.921875,
      "v": 89
    },
    {
      "midi": 60,
      "hit": false,
      "t": 516562.5,
      "d": 298.828125,
      "v": 106
    },
    {
      "midi": 67,
      "hit": false,
      "t": 517021.484375,
      "d": 1173.828125,
      "v": 109
    },
    {
      "midi": 60,
      "hit": false,
      "t": 517025.390625,
      "d": 1173.828125,
      "v": 109
    },
    {
      "midi": 50,
      "hit": false,
      "t": 517500,
      "d": 919.921875,
      "v": 100
    },
    {
      "midi": 34,
      "hit": false,
      "t": 517500,
      "d": 3673.828125,
      "v": 100
    },
    {
      "midi": 60,
      "hit": false,
      "t": 517500,
      "d": 2794.921875,
      "v": 91
    },
    {
      "midi": 67,
      "hit": false,
      "t": 517503.90625,
      "d": 2791.015625,
      "v": 94
    },
    {
      "midi": 65,
      "hit": false,
      "t": 517503.90625,
      "d": 2794.921875,
      "v": 94
    },
    {
      "midi": 50,
      "hit": false,
      "t": 518437.5,
      "d": 1857.421875,
      "v": 95
    },
    {
      "midi": 60,
      "hit": false,
      "t": 518906.25,
      "d": 255.859375,
      "v": 99
    },
    {
      "midi": 69,
      "hit": false,
      "t": 518916.015625,
      "d": 255.859375,
      "v": 99
    },
    {
      "midi": 69,
      "hit": false,
      "t": 519365.234375,
      "d": 533.203125,
      "v": 104
    },
    {
      "midi": 60,
      "hit": false,
      "t": 519378.90625,
      "d": 451.171875,
      "v": 104
    },
    {
      "midi": 65,
      "hit": false,
      "t": 519833.984375,
      "d": 451.171875,
      "v": 101
    },
    {
      "midi": 60,
      "hit": false,
      "t": 519843.75,
      "d": 455.078125,
      "v": 101
    },
    {
      "midi": 65,
      "hit": false,
      "t": 520302.734375,
      "d": 382.8125,
      "v": 106
    },
    {
      "midi": 50,
      "hit": false,
      "t": 520312.5,
      "d": 861.328125,
      "v": 100
    },
    {
      "midi": 60,
      "hit": false,
      "t": 520312.5,
      "d": 919.921875,
      "v": 91
    },
    {
      "midi": 72,
      "hit": false,
      "t": 520312.5,
      "d": 464.84375,
      "v": 1
    },
    {
      "midi": 60,
      "hit": false,
      "t": 520316.40625,
      "d": 382.8125,
      "v": 106
    },
    {
      "midi": 67,
      "hit": false,
      "t": 520771.484375,
      "d": 386.71875,
      "v": 98
    },
    {
      "midi": 74,
      "hit": false,
      "t": 520781.25,
      "d": 464.84375,
      "v": 1
    },
    {
      "midi": 60,
      "hit": false,
      "t": 520791.015625,
      "d": 386.71875,
      "v": 98
    },
    {
      "midi": 33,
      "hit": false,
      "t": 521250,
      "d": 1857.421875,
      "v": 100
    },
    {
      "midi": 48,
      "hit": false,
      "t": 521250,
      "d": 1857.421875,
      "v": 100
    },
    {
      "midi": 64,
      "hit": false,
      "t": 521250,
      "d": 919.921875,
      "v": 91
    },
    {
      "midi": 72,
      "hit": false,
      "t": 521250,
      "d": 7457.03125,
      "v": 1
    },
    {
      "midi": 67,
      "hit": false,
      "t": 521253.90625,
      "d": 3728.515625,
      "v": 94
    },
    {
      "midi": 60,
      "hit": false,
      "t": 522177.734375,
      "d": 919.921875,
      "v": 90
    },
    {
      "midi": 69,
      "hit": false,
      "t": 522650.390625,
      "d": 431.640625,
      "v": 99
    },
    {
      "midi": 60,
      "hit": false,
      "t": 522660.15625,
      "d": 437.5,
      "v": 99
    },
    {
      "midi": 60,
      "hit": false,
      "t": 523119.140625,
      "d": 451.171875,
      "v": 104
    },
    {
      "midi": 69,
      "hit": false,
      "t": 523119.140625,
      "d": 535.15625,
      "v": 104
    },
    {
      "midi": 64,
      "hit": false,
      "t": 523119.140625,
      "d": 890.625,
      "v": 92
    },
    {
      "midi": 33,
      "hit": false,
      "t": 523125,
      "d": 1857.421875,
      "v": 95
    },
    {
      "midi": 48,
      "hit": false,
      "t": 523125,
      "d": 1857.421875,
      "v": 95
    },
    {
      "midi": 65,
      "hit": false,
      "t": 523583.984375,
      "d": 455.078125,
      "v": 101
    },
    {
      "midi": 60,
      "hit": false,
      "t": 523603.515625,
      "d": 431.640625,
      "v": 101
    },
    {
      "midi": 60,
      "hit": false,
      "t": 524052.734375,
      "d": 382.8125,
      "v": 106
    },
    {
      "midi": 65,
      "hit": false,
      "t": 524056.640625,
      "d": 382.8125,
      "v": 106
    },
    {
      "midi": 60,
      "hit": false,
      "t": 524521.484375,
      "d": 386.71875,
      "v": 98
    },
    {
      "midi": 67,
      "hit": false,
      "t": 524535.15625,
      "d": 388.671875,
      "v": 98
    },
    {
      "midi": 33,
      "hit": false,
      "t": 525000,
      "d": 1857.421875,
      "v": 100
    },
    {
      "midi": 48,
      "hit": false,
      "t": 525000,
      "d": 1857.421875,
      "v": 100
    },
    {
      "midi": 60,
      "hit": false,
      "t": 525000,
      "d": 2794.921875,
      "v": 91
    },
    {
      "midi": 67,
      "hit": false,
      "t": 525003.90625,
      "d": 916.015625,
      "v": 94
    },
    {
      "midi": 64,
      "hit": false,
      "t": 525003.90625,
      "d": 1857.421875,
      "v": 94
    },
    {
      "midi": 65,
      "hit": false,
      "t": 525941.40625,
      "d": 916.015625,
      "v": 94
    },
    {
      "midi": 60,
      "hit": false,
      "t": 526400.390625,
      "d": 466.796875,
      "v": 99
    },
    {
      "midi": 69,
      "hit": false,
      "t": 526406.25,
      "d": 441.40625,
      "v": 99
    },
    {
      "midi": 67,
      "hit": false,
      "t": 526406.25,
      "d": 451.171875,
      "v": 99
    },
    {
      "midi": 69,
      "hit": false,
      "t": 526406.25,
      "d": 933.59375,
      "v": 1
    },
    {
      "midi": 69,
      "hit": false,
      "t": 526865.234375,
      "d": 533.203125,
      "v": 104
    },
    {
      "midi": 33,
      "hit": false,
      "t": 526875,
      "d": 1857.421875,
      "v": 95
    },
    {
      "midi": 48,
      "hit": false,
      "t": 526875,
      "d": 1857.421875,
      "v": 95
    },
    {
      "midi": 64,
      "hit": false,
      "t": 526875,
      "d": 919.921875,
      "v": 104
    },
    {
      "midi": 60,
      "hit": false,
      "t": 526884.765625,
      "d": 445.3125,
      "v": 104
    },
    {
      "midi": 67,
      "hit": false,
      "t": 527343.75,
      "d": 451.171875,
      "v": 101
    },
    {
      "midi": 60,
      "hit": false,
      "t": 527343.75,
      "d": 460.9375,
      "v": 101
    },
    {
      "midi": 67,
      "hit": false,
      "t": 527343.75,
      "d": 949.21875,
      "v": 1
    },
    {
      "midi": 60,
      "hit": false,
      "t": 527812.5,
      "d": 919.921875,
      "v": 91
    },
    {
      "midi": 67,
      "hit": false,
      "t": 527816.40625,
      "d": 382.8125,
      "v": 106
    },
    {
      "midi": 60,
      "hit": false,
      "t": 527822.265625,
      "d": 382.8125,
      "v": 106
    },
    {
      "midi": 60,
      "hit": false,
      "t": 528275.390625,
      "d": 388.671875,
      "v": 98
    },
    {
      "midi": 65,
      "hit": false,
      "t": 528281.25,
      "d": 386.71875,
      "v": 98
    },
    {
      "midi": 65,
      "hit": false,
      "t": 528281.25,
      "d": 699.21875,
      "v": 1
    },
    {
      "midi": 34,
      "hit": false,
      "t": 528750,
      "d": 1857.421875,
      "v": 100
    },
    {
      "midi": 50,
      "hit": false,
      "t": 528750,
      "d": 1857.421875,
      "v": 100
    },
    {
      "midi": 60,
      "hit": false,
      "t": 528750,
      "d": 919.921875,
      "v": 91
    },
    {
      "midi": 65,
      "hit": false,
      "t": 528753.90625,
      "d": 1853.515625,
      "v": 94
    },
    {
      "midi": 69,
      "hit": false,
      "t": 528753.90625,
      "d": 1853.515625,
      "v": 94
    },
    {
      "midi": 67,
      "hit": false,
      "t": 528984.375,
      "d": 621.09375,
      "v": 1
    },
    {
      "midi": 62,
      "hit": false,
      "t": 529453.125,
      "d": 5855.46875,
      "v": 1
    },
    {
      "midi": 58,
      "hit": false,
      "t": 529677.734375,
      "d": 919.921875,
      "v": 90
    },
    {
      "midi": 58,
      "hit": false,
      "t": 529691.40625,
      "d": 382.8125,
      "v": 106
    },
    {
      "midi": 67,
      "hit": false,
      "t": 529691.40625,
      "d": 382.8125,
      "v": 106
    },
    {
      "midi": 69,
      "hit": false,
      "t": 530156.25,
      "d": 1324.21875,
      "v": 98
    },
    {
      "midi": 58,
      "hit": false,
      "t": 530156.25,
      "d": 1382.8125,
      "v": 98
    },
    {
      "midi": 60,
      "hit": false,
      "t": 530619.140625,
      "d": 890.625,
      "v": 92
    },
    {
      "midi": 34,
      "hit": false,
      "t": 530625,
      "d": 1857.421875,
      "v": 95
    },
    {
      "midi": 50,
      "hit": false,
      "t": 530625,
      "d": 1857.421875,
      "v": 95
    },
    {
      "midi": 69,
      "hit": false,
      "t": 530625,
      "d": 919.921875,
      "v": 91
    },
    {
      "midi": 65,
      "hit": false,
      "t": 530628.90625,
      "d": 1824.21875,
      "v": 102
    },
    {
      "midi": 58,
      "hit": false,
      "t": 531556.640625,
      "d": 919.921875,
      "v": 89
    },
    {
      "midi": 58,
      "hit": false,
      "t": 531562.5,
      "d": 386.71875,
      "v": 98
    },
    {
      "midi": 65,
      "hit": false,
      "t": 531576.171875,
      "d": 388.671875,
      "v": 98
    },
    {
      "midi": 58,
      "hit": false,
      "t": 532031.25,
      "d": 855.46875,
      "v": 102
    },
    {
      "midi": 67,
      "hit": false,
      "t": 532044.921875,
      "d": 857.421875,
      "v": 102
    },
    {
      "midi": 34,
      "hit": false,
      "t": 532500,
      "d": 1857.421875,
      "v": 100
    },
    {
      "midi": 50,
      "hit": false,
      "t": 532500,
      "d": 1857.421875,
      "v": 100
    },
    {
      "midi": 60,
      "hit": false,
      "t": 532500,
      "d": 1388.671875,
      "v": 91
    },
    {
      "midi": 69,
      "hit": false,
      "t": 532500,
      "d": 1363.28125,
      "v": 1
    },
    {
      "midi": 67,
      "hit": false,
      "t": 532503.90625,
      "d": 916.015625,
      "v": 94
    },
    {
      "midi": 65,
      "hit": false,
      "t": 532982.421875,
      "d": 857.421875,
      "v": 102
    },
    {
      "midi": 65,
      "hit": false,
      "t": 533441.40625,
      "d": 447.265625,
      "v": 94
    },
    {
      "midi": 60,
      "hit": false,
      "t": 533906.25,
      "d": 451.171875,
      "v": 99
    },
    {
      "midi": 65,
      "hit": false,
      "t": 533906.25,
      "d": 1421.875,
      "v": 1
    },
    {
      "midi": 60,
      "hit": false,
      "t": 534369.140625,
      "d": 890.625,
      "v": 92
    },
    {
      "midi": 34,
      "hit": false,
      "t": 534375,
      "d": 1857.421875,
      "v": 95
    },
    {
      "midi": 50,
      "hit": false,
      "t": 534375,
      "d": 1857.421875,
      "v": 95
    },
    {
      "midi": 69,
      "hit": false,
      "t": 534375,
      "d": 919.921875,
      "v": 91
    },
    {
      "midi": 65,
      "hit": false,
      "t": 534378.90625,
      "d": 1355.46875,
      "v": 102
    },
    {
      "midi": 58,
      "hit": false,
      "t": 535306.640625,
      "d": 919.921875,
      "v": 89
    },
    {
      "midi": 62,
      "hit": false,
      "t": 535312.5,
      "d": 933.59375,
      "v": 1
    },
    {
      "midi": 67,
      "hit": false,
      "t": 535316.40625,
      "d": 447.265625,
      "v": 99
    },
    {
      "midi": 65,
      "hit": false,
      "t": 535781.25,
      "d": 451.171875,
      "v": 93
    },
    {
      "midi": 33,
      "hit": false,
      "t": 536250,
      "d": 1857.421875,
      "v": 100
    },
    {
      "midi": 48,
      "hit": false,
      "t": 536250,
      "d": 1857.421875,
      "v": 100
    },
    {
      "midi": 60,
      "hit": false,
      "t": 536250,
      "d": 3253.90625,
      "v": 91
    },
    {
      "midi": 64,
      "hit": false,
      "t": 536250,
      "d": 5152.34375,
      "v": 1
    },
    {
      "midi": 69,
      "hit": false,
      "t": 536250,
      "d": 5152.34375,
      "v": 1
    },
    {
      "midi": 67,
      "hit": false,
      "t": 536253.90625,
      "d": 916.015625,
      "v": 94
    },
    {
      "midi": 64,
      "hit": false,
      "t": 536253.90625,
      "d": 1857.421875,
      "v": 94
    },
    {
      "midi": 33,
      "hit": false,
      "t": 538125,
      "d": 1857.421875,
      "v": 95
    },
    {
      "midi": 48,
      "hit": false,
      "t": 538125,
      "d": 1857.421875,
      "v": 95
    },
    {
      "midi": 64,
      "hit": false,
      "t": 538125,
      "d": 919.921875,
      "v": 104
    },
    {
      "midi": 72,
      "hit": false,
      "t": 539066.40625,
      "d": 916.015625,
      "v": 94
    },
    {
      "midi": 60,
      "hit": false,
      "t": 539531.25,
      "d": 451.171875,
      "v": 99
    },
    {
      "midi": 48,
      "hit": false,
      "t": 540000,
      "d": 1857.421875,
      "v": 100
    },
    {
      "midi": 33,
      "hit": false,
      "t": 540000,
      "d": 2794.921875,
      "v": 100
    },
    {
      "midi": 64,
      "hit": false,
      "t": 540003.90625,
      "d": 919.921875,
      "v": 99
    },
    {
      "midi": 65,
      "hit": false,
      "t": 540468.75,
      "d": 451.171875,
      "v": 93
    },
    {
      "midi": 64,
      "hit": false,
      "t": 540941.40625,
      "d": 916.015625,
      "v": 99
    },
    {
      "midi": 60,
      "hit": false,
      "t": 541406.25,
      "d": 451.171875,
      "v": 93
    },
    {
      "midi": 48,
      "hit": false,
      "t": 541875,
      "d": 919.921875,
      "v": 95
    },
    {
      "midi": 60,
      "hit": false,
      "t": 542343.75,
      "d": 451.171875,
      "v": 93
    },
    {
      "midi": 33,
      "hit": false,
      "t": 542812.5,
      "d": 919.921875,
      "v": 100
    },
    {
      "midi": 48,
      "hit": false,
      "t": 542812.5,
      "d": 919.921875,
      "v": 100
    },
    {
      "midi": 64,
      "hit": false,
      "t": 542816.40625,
      "d": 916.015625,
      "v": 99
    },
    {
      "midi": 60,
      "hit": false,
      "t": 543281.25,
      "d": 451.171875,
      "v": 93
    },
    {
      "midi": 38,
      "hit": false,
      "t": 543750,
      "d": 3732.421875,
      "v": 100
    },
    {
      "midi": 50,
      "hit": false,
      "t": 543750,
      "d": 3732.421875,
      "v": 100
    },
    {
      "midi": 57,
      "hit": false,
      "t": 543750,
      "d": 3722.65625,
      "v": 91
    },
    {
      "midi": 62,
      "hit": false,
      "t": 543753.90625,
      "d": 3722.65625,
      "v": 94
    },
    {
      "midi": 65,
      "hit": false,
      "t": 543753.90625,
      "d": 3722.65625,
      "v": 94
    }
  ]
}