{
  "jsonPath": "Rock/Cyberpunk/Vangelis/mythodea-music-for-the-nasa-mission-2001-mars-odysseymovement-6.json",
  "path": "Rock\\Cyberpunk\\Vangelis\\Mythodea - Music for the NASA Mission 2001 Mars OdysseyMovement 6.mid",
  "name": "Mythodea - Music for the NASA Mission 2001 Mars OdysseyMovement 6",
  "difficulty": "Advanced",
  "bpm": 100,
  "notes": [
    {
      "midi": 79,
      "hit": false,
      "t": 18105,
      "d": 390,
      "v": 43
    },
    {
      "midi": 79,
      "hit": false,
      "t": 18775,
      "d": 1005,
      "v": 50
    },
    {
      "midi": 79,
      "hit": false,
      "t": 20230,
      "d": 225,
      "v": 16
    },
    {
      "midi": 79,
      "hit": false,
      "t": 20805,
      "d": 270,
      "v": 47
    },
    {
      "midi": 77,
      "hit": false,
      "t": 21090,
      "d": 415,
      "v": 53
    },
    {
      "midi": 79,
      "hit": false,
      "t": 21510,
      "d": 1620,
      "v": 66
    },
    {
      "midi": 79,
      "hit": false,
      "t": 23725,
      "d": 310,
      "v": 59
    },
    {
      "midi": 77,
      "hit": false,
      "t": 24050,
      "d": 370,
      "v": 62
    },
    {
      "midi": 79,
      "hit": false,
      "t": 24410,
      "d": 1350,
      "v": 57
    },
    {
      "midi": 79,
      "hit": false,
      "t": 26135,
      "d": 265,
      "v": 60
    },
    {
      "midi": 77,
      "hit": false,
      "t": 26445,
      "d": 330,
      "v": 50
    },
    {
      "midi": 79,
      "hit": false,
      "t": 26815,
      "d": 955,
      "v": 62
    },
    {
      "midi": 79,
      "hit": false,
      "t": 28820,
      "d": 315,
      "v": 55
    },
    {
      "midi": 77,
      "hit": false,
      "t": 29115,
      "d": 290,
      "v": 47
    },
    {
      "midi": 79,
      "hit": false,
      "t": 29450,
      "d": 1210,
      "v": 80
    },
    {
      "midi": 82,
      "hit": false,
      "t": 30670,
      "d": 1290,
      "v": 70
    },
    {
      "midi": 77,
      "hit": false,
      "t": 31975,
      "d": 1775,
      "v": 69
    },
    {
      "midi": 79,
      "hit": false,
      "t": 33735,
      "d": 280,
      "v": 69
    },
    {
      "midi": 77,
      "hit": false,
      "t": 34010,
      "d": 315,
      "v": 50
    },
    {
      "midi": 79,
      "hit": false,
      "t": 34330,
      "d": 1175,
      "v": 78
    },
    {
      "midi": 75,
      "hit": false,
      "t": 34855,
      "d": 770,
      "v": 44
    },
    {
      "midi": 82,
      "hit": false,
      "t": 35490,
      "d": 650,
      "v": 67
    },
    {
      "midi": 75,
      "hit": false,
      "t": 35750,
      "d": 425,
      "v": 60
    },
    {
      "midi": 84,
      "hit": false,
      "t": 36110,
      "d": 670,
      "v": 74
    },
    {
      "midi": 75,
      "hit": false,
      "t": 36400,
      "d": 385,
      "v": 51
    },
    {
      "midi": 79,
      "hit": false,
      "t": 36760,
      "d": 1700,
      "v": 70
    },
    {
      "midi": 75,
      "hit": false,
      "t": 38165,
      "d": 560,
      "v": 23
    },
    {
      "midi": 79,
      "hit": false,
      "t": 38750,
      "d": 330,
      "v": 62
    },
    {
      "midi": 77,
      "hit": false,
      "t": 39055,
      "d": 340,
      "v": 59
    },
    {
      "midi": 79,
      "hit": false,
      "t": 39380,
      "d": 1240,
      "v": 69
    },
    {
      "midi": 77,
      "hit": false,
      "t": 40120,
      "d": 110,
      "v": 7
    },
    {
      "midi": 82,
      "hit": false,
      "t": 40610,
      "d": 650,
      "v": 71
    },
    {
      "midi": 84,
      "hit": false,
      "t": 41230,
      "d": 625,
      "v": 66
    },
    {
      "midi": 79,
      "hit": false,
      "t": 41825,
      "d": 3060,
      "v": 70
    },
    {
      "midi": 79,
      "hit": false,
      "t": 45290,
      "d": 330,
      "v": 41
    },
    {
      "midi": 77,
      "hit": false,
      "t": 45615,
      "d": 385,
      "v": 26
    },
    {
      "midi": 79,
      "hit": false,
      "t": 45950,
      "d": 4340,
      "v": 45
    },
    {
      "midi": 79,
      "hit": false,
      "t": 50825,
      "d": 300,
      "v": 59
    },
    {
      "midi": 77,
      "hit": false,
      "t": 51145,
      "d": 405,
      "v": 56
    },
    {
      "midi": 79,
      "hit": false,
      "t": 51545,
      "d": 2465,
      "v": 60
    },
    {
      "midi": 75,
      "hit": false,
      "t": 53015,
      "d": 3450,
      "v": 63
    },
    {
      "midi": 79,
      "hit": false,
      "t": 54260,
      "d": 1110,
      "v": 35
    },
    {
      "midi": 79,
      "hit": false,
      "t": 55815,
      "d": 415,
      "v": 50
    },
    {
      "midi": 79,
      "hit": false,
      "t": 56490,
      "d": 355,
      "v": 63
    },
    {
      "midi": 77,
      "hit": false,
      "t": 56885,
      "d": 420,
      "v": 55
    },
    {
      "midi": 72,
      "hit": false,
      "t": 57310,
      "d": 2020,
      "v": 70
    },
    {
      "midi": 77,
      "hit": false,
      "t": 59290,
      "d": 630,
      "v": 60
    },
    {
      "midi": 79,
      "hit": false,
      "t": 59940,
      "d": 1255,
      "v": 59
    },
    {
      "midi": 72,
      "hit": false,
      "t": 60570,
      "d": 915,
      "v": 20
    },
    {
      "midi": 82,
      "hit": false,
      "t": 61210,
      "d": 855,
      "v": 65
    },
    {
      "midi": 72,
      "hit": false,
      "t": 61830,
      "d": 480,
      "v": 41
    },
    {
      "midi": 79,
      "hit": false,
      "t": 62150,
      "d": 240,
      "v": 67
    },
    {
      "midi": 75,
      "hit": false,
      "t": 63670,
      "d": 1430,
      "v": 43
    },
    {
      "midi": 79,
      "hit": false,
      "t": 63690,
      "d": 1090,
      "v": 38
    },
    {
      "midi": 79,
      "hit": false,
      "t": 64935,
      "d": 625,
      "v": 52
    },
    {
      "midi": 77,
      "hit": false,
      "t": 66255,
      "d": 895,
      "v": 51
    },
    {
      "midi": 79,
      "hit": false,
      "t": 67910,
      "d": 725,
      "v": 50
    },
    {
      "midi": 79,
      "hit": false,
      "t": 69635,
      "d": 405,
      "v": 36
    },
    {
      "midi": 82,
      "hit": false,
      "t": 69990,
      "d": 595,
      "v": 60
    },
    {
      "midi": 79,
      "hit": false,
      "t": 70590,
      "d": 3330,
      "v": 47
    },
    {
      "midi": 79,
      "hit": false,
      "t": 74840,
      "d": 310,
      "v": 66
    },
    {
      "midi": 77,
      "hit": false,
      "t": 75170,
      "d": 305,
      "v": 47
    },
    {
      "midi": 79,
      "hit": false,
      "t": 75505,
      "d": 695,
      "v": 76
    },
    {
      "midi": 75,
      "hit": false,
      "t": 76080,
      "d": 1460,
      "v": 72
    },
    {
      "midi": 82,
      "hit": false,
      "t": 76760,
      "d": 615,
      "v": 72
    },
    {
      "midi": 84,
      "hit": false,
      "t": 77375,
      "d": 1595,
      "v": 86
    },
    {
      "midi": 87,
      "hit": false,
      "t": 79370,
      "d": 860,
      "v": 67
    },
    {
      "midi": 86,
      "hit": false,
      "t": 80625,
      "d": 885,
      "v": 67
    },
    {
      "midi": 87,
      "hit": false,
      "t": 81785,
      "d": 715,
      "v": 65
    },
    {
      "midi": 87,
      "hit": false,
      "t": 84450,
      "d": 885,
      "v": 57
    },
    {
      "midi": 86,
      "hit": false,
      "t": 85705,
      "d": 1120,
      "v": 59
    },
    {
      "midi": 84,
      "hit": false,
      "t": 86930,
      "d": 1360,
      "v": 60
    },
    {
      "midi": 79,
      "hit": false,
      "t": 93040,
      "d": 295,
      "v": 49
    },
    {
      "midi": 79,
      "hit": false,
      "t": 93710,
      "d": 595,
      "v": 62
    },
    {
      "midi": 82,
      "hit": false,
      "t": 94370,
      "d": 1305,
      "v": 65
    },
    {
      "midi": 84,
      "hit": false,
      "t": 95640,
      "d": 7410,
      "v": 64
    },
    {
      "midi": 77,
      "hit": false,
      "t": 97040,
      "d": 895,
      "v": 50
    },
    {
      "midi": 75,
      "hit": false,
      "t": 98335,
      "d": 625,
      "v": 54
    },
    {
      "midi": 72,
      "hit": false,
      "t": 99695,
      "d": 695,
      "v": 59
    },
    {
      "midi": 74,
      "hit": false,
      "t": 100935,
      "d": 1060,
      "v": 56
    },
    {
      "midi": 87,
      "hit": false,
      "t": 107655,
      "d": 380,
      "v": 56
    },
    {
      "midi": 82,
      "hit": false,
      "t": 107820,
      "d": 380,
      "v": 64
    },
    {
      "midi": 79,
      "hit": false,
      "t": 107980,
      "d": 240,
      "v": 52
    },
    {
      "midi": 75,
      "hit": false,
      "t": 108100,
      "d": 395,
      "v": 56
    },
    {
      "midi": 87,
      "hit": false,
      "t": 108290,
      "d": 260,
      "v": 71
    },
    {
      "midi": 82,
      "hit": false,
      "t": 108430,
      "d": 345,
      "v": 67
    },
    {
      "midi": 79,
      "hit": false,
      "t": 108575,
      "d": 220,
      "v": 74
    },
    {
      "midi": 75,
      "hit": false,
      "t": 108695,
      "d": 535,
      "v": 68
    },
    {
      "midi": 87,
      "hit": false,
      "t": 108885,
      "d": 295,
      "v": 93
    },
    {
      "midi": 82,
      "hit": false,
      "t": 109040,
      "d": 390,
      "v": 72
    },
    {
      "midi": 79,
      "hit": false,
      "t": 109205,
      "d": 285,
      "v": 80
    },
    {
      "midi": 75,
      "hit": false,
      "t": 109340,
      "d": 460,
      "v": 75
    },
    {
      "midi": 87,
      "hit": false,
      "t": 109530,
      "d": 165,
      "v": 100
    },
    {
      "midi": 82,
      "hit": false,
      "t": 109670,
      "d": 380,
      "v": 74
    },
    {
      "midi": 79,
      "hit": false,
      "t": 109830,
      "d": 245,
      "v": 71
    },
    {
      "midi": 75,
      "hit": false,
      "t": 109990,
      "d": 320,
      "v": 64
    },
    {
      "midi": 87,
      "hit": false,
      "t": 110170,
      "d": 230,
      "v": 79
    },
    {
      "midi": 82,
      "hit": false,
      "t": 110305,
      "d": 295,
      "v": 56
    },
    {
      "midi": 79,
      "hit": false,
      "t": 110455,
      "d": 235,
      "v": 54
    },
    {
      "midi": 75,
      "hit": false,
      "t": 110580,
      "d": 180,
      "v": 58
    },
    {
      "midi": 82,
      "hit": false,
      "t": 110775,
      "d": 210,
      "v": 68
    },
    {
      "midi": 79,
      "hit": false,
      "t": 110920,
      "d": 220,
      "v": 78
    },
    {
      "midi": 77,
      "hit": false,
      "t": 111085,
      "d": 240,
      "v": 82
    },
    {
      "midi": 79,
      "hit": false,
      "t": 111260,
      "d": 200,
      "v": 74
    },
    {
      "midi": 82,
      "hit": false,
      "t": 111415,
      "d": 205,
      "v": 98
    },
    {
      "midi": 79,
      "hit": false,
      "t": 111580,
      "d": 210,
      "v": 89
    },
    {
      "midi": 77,
      "hit": false,
      "t": 111725,
      "d": 290,
      "v": 73
    },
    {
      "midi": 79,
      "hit": false,
      "t": 111885,
      "d": 225,
      "v": 66
    },
    {
      "midi": 82,
      "hit": false,
      "t": 112040,
      "d": 140,
      "v": 95
    },
    {
      "midi": 77,
      "hit": false,
      "t": 112195,
      "d": 325,
      "v": 74
    },
    {
      "midi": 79,
      "hit": false,
      "t": 112320,
      "d": 315,
      "v": 78
    },
    {
      "midi": 81,
      "hit": false,
      "t": 112495,
      "d": 210,
      "v": 84
    },
    {
      "midi": 77,
      "hit": false,
      "t": 112670,
      "d": 360,
      "v": 82
    },
    {
      "midi": 81,
      "hit": false,
      "t": 112840,
      "d": 100,
      "v": 69
    },
    {
      "midi": 81,
      "hit": false,
      "t": 113005,
      "d": 145,
      "v": 78
    },
    {
      "midi": 77,
      "hit": false,
      "t": 113160,
      "d": 195,
      "v": 80
    },
    {
      "midi": 81,
      "hit": false,
      "t": 113295,
      "d": 195,
      "v": 71
    },
    {
      "midi": 82,
      "hit": false,
      "t": 113445,
      "d": 165,
      "v": 91
    },
    {
      "midi": 86,
      "hit": false,
      "t": 113585,
      "d": 295,
      "v": 82
    },
    {
      "midi": 82,
      "hit": false,
      "t": 113750,
      "d": 200,
      "v": 71
    },
    {
      "midi": 79,
      "hit": false,
      "t": 113900,
      "d": 235,
      "v": 71
    },
    {
      "midi": 82,
      "hit": false,
      "t": 114050,
      "d": 165,
      "v": 75
    },
    {
      "midi": 86,
      "hit": false,
      "t": 114210,
      "d": 205,
      "v": 97
    },
    {
      "midi": 82,
      "hit": false,
      "t": 114340,
      "d": 150,
      "v": 79
    },
    {
      "midi": 79,
      "hit": false,
      "t": 114500,
      "d": 220,
      "v": 66
    },
    {
      "midi": 82,
      "hit": false,
      "t": 114650,
      "d": 110,
      "v": 91
    },
    {
      "midi": 86,
      "hit": false,
      "t": 114820,
      "d": 370,
      "v": 104
    },
    {
      "midi": 82,
      "hit": false,
      "t": 114975,
      "d": 135,
      "v": 98
    },
    {
      "midi": 79,
      "hit": false,
      "t": 115120,
      "d": 275,
      "v": 89
    },
    {
      "midi": 82,
      "hit": false,
      "t": 115270,
      "d": 120,
      "v": 100
    },
    {
      "midi": 86,
      "hit": false,
      "t": 115435,
      "d": 505,
      "v": 104
    },
    {
      "midi": 82,
      "hit": false,
      "t": 115580,
      "d": 160,
      "v": 91
    },
    {
      "midi": 79,
      "hit": false,
      "t": 115740,
      "d": 425,
      "v": 71
    },
    {
      "midi": 82,
      "hit": false,
      "t": 115900,
      "d": 145,
      "v": 81
    },
    {
      "midi": 86,
      "hit": false,
      "t": 116055,
      "d": 515,
      "v": 95
    },
    {
      "midi": 82,
      "hit": false,
      "t": 116200,
      "d": 165,
      "v": 68
    },
    {
      "midi": 79,
      "hit": false,
      "t": 116370,
      "d": 245,
      "v": 51
    },
    {
      "midi": 82,
      "hit": false,
      "t": 116515,
      "d": 145,
      "v": 74
    },
    {
      "midi": 86,
      "hit": false,
      "t": 116680,
      "d": 525,
      "v": 93
    },
    {
      "midi": 82,
      "hit": false,
      "t": 116825,
      "d": 135,
      "v": 58
    },
    {
      "midi": 79,
      "hit": false,
      "t": 117010,
      "d": 375,
      "v": 52
    },
    {
      "midi": 82,
      "hit": false,
      "t": 117150,
      "d": 210,
      "v": 75
    },
    {
      "midi": 87,
      "hit": false,
      "t": 117325,
      "d": 280,
      "v": 100
    },
    {
      "midi": 75,
      "hit": false,
      "t": 117345,
      "d": 2505,
      "v": 72
    },
    {
      "midi": 82,
      "hit": false,
      "t": 117475,
      "d": 225,
      "v": 75
    },
    {
      "midi": 79,
      "hit": false,
      "t": 117645,
      "d": 250,
      "v": 66
    },
    {
      "midi": 82,
      "hit": false,
      "t": 117780,
      "d": 120,
      "v": 71
    },
    {
      "midi": 87,
      "hit": false,
      "t": 117940,
      "d": 140,
      "v": 103
    },
    {
      "midi": 82,
      "hit": false,
      "t": 118105,
      "d": 190,
      "v": 79
    },
    {
      "midi": 79,
      "hit": false,
      "t": 118260,
      "d": 250,
      "v": 73
    },
    {
      "midi": 82,
      "hit": false,
      "t": 118415,
      "d": 90,
      "v": 95
    },
    {
      "midi": 79,
      "hit": false,
      "t": 118565,
      "d": 105,
      "v": 55
    },
    {
      "midi": 87,
      "hit": false,
      "t": 118565,
      "d": 265,
      "v": 107
    },
    {
      "midi": 82,
      "hit": false,
      "t": 118575,
      "d": 55,
      "v": 81
    },
    {
      "midi": 82,
      "hit": false,
      "t": 118725,
      "d": 195,
      "v": 81
    },
    {
      "midi": 79,
      "hit": false,
      "t": 118875,
      "d": 505,
      "v": 78
    },
    {
      "midi": 82,
      "hit": false,
      "t": 119020,
      "d": 100,
      "v": 88
    },
    {
      "midi": 87,
      "hit": false,
      "t": 119190,
      "d": 225,
      "v": 103
    },
    {
      "midi": 82,
      "hit": false,
      "t": 119200,
      "d": 45,
      "v": 77
    },
    {
      "midi": 82,
      "hit": false,
      "t": 119345,
      "d": 130,
      "v": 75
    },
    {
      "midi": 79,
      "hit": false,
      "t": 119500,
      "d": 265,
      "v": 60
    },
    {
      "midi": 82,
      "hit": false,
      "t": 119655,
      "d": 110,
      "v": 79
    },
    {
      "midi": 87,
      "hit": false,
      "t": 119805,
      "d": 135,
      "v": 98
    },
    {
      "midi": 77,
      "hit": false,
      "t": 119915,
      "d": 400,
      "v": 82
    },
    {
      "midi": 82,
      "hit": false,
      "t": 120085,
      "d": 100,
      "v": 65
    },
    {
      "midi": 79,
      "hit": false,
      "t": 120245,
      "d": 195,
      "v": 74
    },
    {
      "midi": 82,
      "hit": false,
      "t": 120395,
      "d": 125,
      "v": 77
    },
    {
      "midi": 77,
      "hit": false,
      "t": 120530,
      "d": 335,
      "v": 86
    },
    {
      "midi": 81,
      "hit": false,
      "t": 120665,
      "d": 100,
      "v": 89
    },
    {
      "midi": 81,
      "hit": false,
      "t": 120825,
      "d": 220,
      "v": 84
    },
    {
      "midi": 77,
      "hit": false,
      "t": 120995,
      "d": 240,
      "v": 84
    },
    {
      "midi": 81,
      "hit": false,
      "t": 121155,
      "d": 245,
      "v": 95
    },
    {
      "midi": 77,
      "hit": false,
      "t": 121345,
      "d": 375,
      "v": 89
    },
    {
      "midi": 81,
      "hit": false,
      "t": 121495,
      "d": 185,
      "v": 80
    },
    {
      "midi": 84,
      "hit": false,
      "t": 121630,
      "d": 115,
      "v": 89
    },
    {
      "midi": 81,
      "hit": false,
      "t": 121795,
      "d": 175,
      "v": 95
    },
    {
      "midi": 77,
      "hit": false,
      "t": 121920,
      "d": 310,
      "v": 84
    },
    {
      "midi": 81,
      "hit": false,
      "t": 122075,
      "d": 175,
      "v": 84
    },
    {
      "midi": 84,
      "hit": false,
      "t": 122250,
      "d": 95,
      "v": 84
    },
    {
      "midi": 75,
      "hit": false,
      "t": 122405,
      "d": 290,
      "v": 51
    },
    {
      "midi": 86,
      "hit": false,
      "t": 122770,
      "d": 205,
      "v": 50
    },
    {
      "midi": 75,
      "hit": false,
      "t": 122925,
      "d": 230,
      "v": 57
    },
    {
      "midi": 86,
      "hit": false,
      "t": 123120,
      "d": 235,
      "v": 80
    },
    {
      "midi": 75,
      "hit": false,
      "t": 123295,
      "d": 165,
      "v": 71
    },
    {
      "midi": 75,
      "hit": false,
      "t": 123535,
      "d": 515,
      "v": 75
    },
    {
      "midi": 91,
      "hit": false,
      "t": 123810,
      "d": 270,
      "v": 64
    },
    {
      "midi": 89,
      "hit": false,
      "t": 123820,
      "d": 55,
      "v": 60
    },
    {
      "midi": 75,
      "hit": false,
      "t": 124140,
      "d": 375,
      "v": 64
    },
    {
      "midi": 91,
      "hit": false,
      "t": 124480,
      "d": 310,
      "v": 89
    },
    {
      "midi": 82,
      "hit": false,
      "t": 124780,
      "d": 275,
      "v": 23
    },
    {
      "midi": 91,
      "hit": false,
      "t": 125145,
      "d": 760,
      "v": 56
    },
    {
      "midi": 86,
      "hit": false,
      "t": 125345,
      "d": 410,
      "v": 76
    },
    {
      "midi": 82,
      "hit": false,
      "t": 125560,
      "d": 310,
      "v": 42
    },
    {
      "midi": 79,
      "hit": false,
      "t": 125730,
      "d": 555,
      "v": 47
    },
    {
      "midi": 82,
      "hit": false,
      "t": 125985,
      "d": 480,
      "v": 28
    },
    {
      "midi": 86,
      "hit": false,
      "t": 126325,
      "d": 490,
      "v": 62
    },
    {
      "midi": 79,
      "hit": false,
      "t": 126705,
      "d": 340,
      "v": 66
    },
    {
      "midi": 82,
      "hit": false,
      "t": 126930,
      "d": 350,
      "v": 52
    },
    {
      "midi": 79,
      "hit": false,
      "t": 127155,
      "d": 600,
      "v": 62
    },
    {
      "midi": 82,
      "hit": false,
      "t": 127415,
      "d": 470,
      "v": 34
    },
    {
      "midi": 86,
      "hit": false,
      "t": 127630,
      "d": 580,
      "v": 76
    },
    {
      "midi": 79,
      "hit": false,
      "t": 127865,
      "d": 435,
      "v": 66
    },
    {
      "midi": 87,
      "hit": false,
      "t": 128165,
      "d": 865,
      "v": 72
    },
    {
      "midi": 79,
      "hit": false,
      "t": 128390,
      "d": 400,
      "v": 69
    },
    {
      "midi": 86,
      "hit": false,
      "t": 128710,
      "d": 300,
      "v": 40
    },
    {
      "midi": 79,
      "hit": false,
      "t": 128905,
      "d": 670,
      "v": 69
    },
    {
      "midi": 82,
      "hit": false,
      "t": 129210,
      "d": 570,
      "v": 51
    },
    {
      "midi": 84,
      "hit": false,
      "t": 129450,
      "d": 420,
      "v": 76
    },
    {
      "midi": 79,
      "hit": false,
      "t": 129680,
      "d": 445,
      "v": 45
    },
    {
      "midi": 82,
      "hit": false,
      "t": 129920,
      "d": 440,
      "v": 33
    },
    {
      "midi": 86,
      "hit": false,
      "t": 130255,
      "d": 455,
      "v": 60
    },
    {
      "midi": 79,
      "hit": false,
      "t": 130560,
      "d": 430,
      "v": 36
    },
    {
      "midi": 82,
      "hit": false,
      "t": 130785,
      "d": 575,
      "v": 47
    },
    {
      "midi": 86,
      "hit": false,
      "t": 131075,
      "d": 355,
      "v": 78
    },
    {
      "midi": 79,
      "hit": false,
      "t": 131315,
      "d": 465,
      "v": 57
    },
    {
      "midi": 82,
      "hit": false,
      "t": 131540,
      "d": 1050,
      "v": 24
    },
    {
      "midi": 86,
      "hit": false,
      "t": 131795,
      "d": 545,
      "v": 60
    },
    {
      "midi": 79,
      "hit": false,
      "t": 132030,
      "d": 360,
      "v": 54
    },
    {
      "midi": 87,
      "hit": false,
      "t": 132275,
      "d": 1165,
      "v": 63
    },
    {
      "midi": 75,
      "hit": false,
      "t": 132525,
      "d": 325,
      "v": 56
    },
    {
      "midi": 82,
      "hit": false,
      "t": 132755,
      "d": 1095,
      "v": 31
    },
    {
      "midi": 86,
      "hit": false,
      "t": 133005,
      "d": 455,
      "v": 67
    },
    {
      "midi": 72,
      "hit": false,
      "t": 133310,
      "d": 390,
      "v": 52
    },
    {
      "midi": 84,
      "hit": false,
      "t": 133550,
      "d": 320,
      "v": 76
    },
    {
      "midi": 72,
      "hit": false,
      "t": 133785,
      "d": 700,
      "v": 66
    },
    {
      "midi": 84,
      "hit": false,
      "t": 134145,
      "d": 325,
      "v": 67
    },
    {
      "midi": 86,
      "hit": false,
      "t": 134435,
      "d": 240,
      "v": 41
    },
    {
      "midi": 72,
      "hit": false,
      "t": 134655,
      "d": 405,
      "v": 48
    },
    {
      "midi": 84,
      "hit": false,
      "t": 134930,
      "d": 265,
      "v": 47
    },
    {
      "midi": 72,
      "hit": false,
      "t": 135160,
      "d": 560,
      "v": 45
    },
    {
      "midi": 84,
      "hit": false,
      "t": 135430,
      "d": 320,
      "v": 57
    },
    {
      "midi": 86,
      "hit": false,
      "t": 135700,
      "d": 380,
      "v": 17
    },
    {
      "midi": 72,
      "hit": false,
      "t": 135965,
      "d": 365,
      "v": 12
    },
    {
      "midi": 84,
      "hit": false,
      "t": 136210,
      "d": 285,
      "v": 55
    },
    {
      "midi": 72,
      "hit": false,
      "t": 136475,
      "d": 375,
      "v": 52
    },
    {
      "midi": 84,
      "hit": false,
      "t": 136765,
      "d": 270,
      "v": 19
    },
    {
      "midi": 86,
      "hit": false,
      "t": 137010,
      "d": 270,
      "v": 47
    },
    {
      "midi": 72,
      "hit": false,
      "t": 137245,
      "d": 335,
      "v": 63
    },
    {
      "midi": 86,
      "hit": false,
      "t": 137490,
      "d": 290,
      "v": 60
    },
    {
      "midi": 86,
      "hit": false,
      "t": 137995,
      "d": 495,
      "v": 66
    },
    {
      "midi": 74,
      "hit": false,
      "t": 138455,
      "d": 285,
      "v": 45
    },
    {
      "midi": 86,
      "hit": false,
      "t": 138715,
      "d": 290,
      "v": 64
    },
    {
      "midi": 74,
      "hit": false,
      "t": 138985,
      "d": 270,
      "v": 52
    },
    {
      "midi": 86,
      "hit": false,
      "t": 139560,
      "d": 465,
      "v": 67
    },
    {
      "midi": 74,
      "hit": false,
      "t": 139995,
      "d": 275,
      "v": 60
    },
    {
      "midi": 86,
      "hit": false,
      "t": 140255,
      "d": 330,
      "v": 59
    },
    {
      "midi": 75,
      "hit": false,
      "t": 140505,
      "d": 670,
      "v": 68
    },
    {
      "midi": 86,
      "hit": false,
      "t": 141100,
      "d": 560,
      "v": 73
    },
    {
      "midi": 75,
      "hit": false,
      "t": 141550,
      "d": 520,
      "v": 65
    },
    {
      "midi": 86,
      "hit": false,
      "t": 141845,
      "d": 265,
      "v": 74
    },
    {
      "midi": 87,
      "hit": false,
      "t": 142090,
      "d": 520,
      "v": 75
    },
    {
      "midi": 75,
      "hit": false,
      "t": 142330,
      "d": 635,
      "v": 67
    },
    {
      "midi": 84,
      "hit": false,
      "t": 142610,
      "d": 625,
      "v": 82
    },
    {
      "midi": 72,
      "hit": false,
      "t": 143125,
      "d": 465,
      "v": 36
    },
    {
      "midi": 84,
      "hit": false,
      "t": 143405,
      "d": 335,
      "v": 71
    },
    {
      "midi": 72,
      "hit": false,
      "t": 143690,
      "d": 475,
      "v": 47
    },
    {
      "midi": 84,
      "hit": false,
      "t": 144120,
      "d": 530,
      "v": 64
    },
    {
      "midi": 72,
      "hit": false,
      "t": 144640,
      "d": 1560,
      "v": 30
    },
    {
      "midi": 82,
      "hit": false,
      "t": 144930,
      "d": 140,
      "v": 17
    },
    {
      "midi": 82,
      "hit": false,
      "t": 145190,
      "d": 170,
      "v": 47
    },
    {
      "midi": 82,
      "hit": false,
      "t": 145690,
      "d": 355,
      "v": 58
    },
    {
      "midi": 79,
      "hit": false,
      "t": 148410,
      "d": 320,
      "v": 63
    },
    {
      "midi": 77,
      "hit": false,
      "t": 148720,
      "d": 305,
      "v": 66
    },
    {
      "midi": 79,
      "hit": false,
      "t": 149050,
      "d": 625,
      "v": 89
    },
    {
      "midi": 82,
      "hit": false,
      "t": 149610,
      "d": 680,
      "v": 71
    },
    {
      "midi": 84,
      "hit": false,
      "t": 150270,
      "d": 2600,
      "v": 84
    },
    {
      "midi": 75,
      "hit": false,
      "t": 150850,
      "d": 5780,
      "v": 57
    },
    {
      "midi": 79,
      "hit": false,
      "t": 152865,
      "d": 310,
      "v": 69
    },
    {
      "midi": 77,
      "hit": false,
      "t": 153155,
      "d": 340,
      "v": 66
    },
    {
      "midi": 79,
      "hit": false,
      "t": 153490,
      "d": 615,
      "v": 86
    },
    {
      "midi": 82,
      "hit": false,
      "t": 154070,
      "d": 650,
      "v": 75
    },
    {
      "midi": 79,
      "hit": false,
      "t": 154720,
      "d": 1255,
      "v": 73
    },
    {
      "midi": 77,
      "hit": false,
      "t": 155970,
      "d": 1120,
      "v": 76
    },
    {
      "midi": 79,
      "hit": false,
      "t": 157080,
      "d": 355,
      "v": 73
    },
    {
      "midi": 77,
      "hit": false,
      "t": 157395,
      "d": 395,
      "v": 47
    },
    {
      "midi": 79,
      "hit": false,
      "t": 157785,
      "d": 21675,
      "v": 80
    },
    {
      "midi": 74,
      "hit": false,
      "t": 160560,
      "d": 430,
      "v": 63
    },
    {
      "midi": 75,
      "hit": false,
      "t": 161195,
      "d": 920,
      "v": 74
    },
    {
      "midi": 72,
      "hit": false,
      "t": 162495,
      "d": 1385,
      "v": 70
    },
    {
      "midi": 70,
      "hit": false,
      "t": 163885,
      "d": 690,
      "v": 57
    },
    {
      "midi": 74,
      "hit": false,
      "t": 163885,
      "d": 910,
      "v": 64
    },
    {
      "midi": 70,
      "hit": false,
      "t": 165090,
      "d": 790,
      "v": 52
    },
    {
      "midi": 74,
      "hit": false,
      "t": 165110,
      "d": 660,
      "v": 64
    },
    {
      "midi": 75,
      "hit": false,
      "t": 165740,
      "d": 630,
      "v": 58
    },
    {
      "midi": 70,
      "hit": false,
      "t": 166335,
      "d": 1105,
      "v": 53
    },
    {
      "midi": 74,
      "hit": false,
      "t": 166350,
      "d": 975,
      "v": 64
    },
    {
      "midi": 70,
      "hit": false,
      "t": 167615,
      "d": 680,
      "v": 55
    },
    {
      "midi": 74,
      "hit": false,
      "t": 167635,
      "d": 665,
      "v": 45
    },
    {
      "midi": 72,
      "hit": false,
      "t": 168295,
      "d": 1840,
      "v": 50
    },
    {
      "midi": 74,
      "hit": false,
      "t": 170435,
      "d": 715,
      "v": 54
    },
    {
      "midi": 70,
      "hit": false,
      "t": 171710,
      "d": 730,
      "v": 44
    },
    {
      "midi": 74,
      "hit": false,
      "t": 171735,
      "d": 685,
      "v": 67
    },
    {
      "midi": 75,
      "hit": false,
      "t": 172365,
      "d": 615,
      "v": 60
    },
    {
      "midi": 74,
      "hit": false,
      "t": 173105,
      "d": 1195,
      "v": 64
    },
    {
      "midi": 70,
      "hit": false,
      "t": 173110,
      "d": 1050,
      "v": 53
    },
    {
      "midi": 70,
      "hit": false,
      "t": 174850,
      "d": 735,
      "v": 37
    },
    {
      "midi": 74,
      "hit": false,
      "t": 174870,
      "d": 660,
      "v": 63
    },
    {
      "midi": 72,
      "hit": false,
      "t": 175550,
      "d": 765,
      "v": 53
    },
    {
      "midi": 74,
      "hit": false,
      "t": 176295,
      "d": 3105,
      "v": 55
    },
    {
      "midi": 70,
      "hit": false,
      "t": 176310,
      "d": 670,
      "v": 55
    },
    {
      "midi": 70,
      "hit": false,
      "t": 177510,
      "d": 450,
      "v": 60
    },
    {
      "midi": 67,
      "hit": false,
      "t": 178175,
      "d": 355,
      "v": 57
    },
    {
      "midi": 67,
      "hit": false,
      "t": 178855,
      "d": 9820,
      "v": 76
    },
    {
      "midi": 79,
      "hit": false,
      "t": 180155,
      "d": 780,
      "v": 54
    },
    {
      "midi": 79,
      "hit": false,
      "t": 181150,
      "d": 385,
      "v": 54
    },
    {
      "midi": 77,
      "hit": false,
      "t": 181510,
      "d": 445,
      "v": 63
    },
    {
      "midi": 79,
      "hit": false,
      "t": 181950,
      "d": 7800,
      "v": 66
    },
    {
      "midi": 91,
      "hit": false,
      "t": 190770,
      "d": 425,
      "v": 91
    },
    {
      "midi": 91,
      "hit": false,
      "t": 191925,
      "d": 625,
      "v": 108
    },
    {
      "midi": 89,
      "hit": false,
      "t": 193105,
      "d": 565,
      "v": 97
    },
    {
      "midi": 89,
      "hit": false,
      "t": 194835,
      "d": 120,
      "v": 106
    },
    {
      "midi": 91,
      "hit": false,
      "t": 195110,
      "d": 280,
      "v": 108
    },
    {
      "midi": 92,
      "hit": false,
      "t": 195435,
      "d": 385,
      "v": 107
    },
    {
      "midi": 91,
      "hit": false,
      "t": 196240,
      "d": 110,
      "v": 93
    },
    {
      "midi": 89,
      "hit": false,
      "t": 196385,
      "d": 80,
      "v": 100
    },
    {
      "midi": 91,
      "hit": false,
      "t": 196535,
      "d": 1430,
      "v": 115
    },
    {
      "midi": 91,
      "hit": false,
      "t": 198405,
      "d": 615,
      "v": 104
    },
    {
      "midi": 89,
      "hit": false,
      "t": 199060,
      "d": 460,
      "v": 108
    },
    {
      "midi": 89,
      "hit": false,
      "t": 199690,
      "d": 105,
      "v": 56
    },
    {
      "midi": 91,
      "hit": false,
      "t": 200360,
      "d": 225,
      "v": 21
    },
    {
      "midi": 91,
      "hit": false,
      "t": 200900,
      "d": 265,
      "v": 86
    },
    {
      "midi": 89,
      "hit": false,
      "t": 201530,
      "d": 535,
      "v": 119
    },
    {
      "midi": 89,
      "hit": false,
      "t": 202775,
      "d": 115,
      "v": 106
    },
    {
      "midi": 87,
      "hit": false,
      "t": 203455,
      "d": 680,
      "v": 112
    },
    {
      "midi": 89,
      "hit": false,
      "t": 204110,
      "d": 650,
      "v": 108
    },
    {
      "midi": 92,
      "hit": false,
      "t": 205340,
      "d": 470,
      "v": 117
    },
    {
      "midi": 91,
      "hit": false,
      "t": 206255,
      "d": 85,
      "v": 106
    },
    {
      "midi": 89,
      "hit": false,
      "t": 206400,
      "d": 100,
      "v": 102
    },
    {
      "midi": 91,
      "hit": false,
      "t": 206560,
      "d": 820,
      "v": 123
    },
    {
      "midi": 89,
      "hit": false,
      "t": 207750,
      "d": 160,
      "v": 93
    },
    {
      "midi": 87,
      "hit": false,
      "t": 207980,
      "d": 130,
      "v": 91
    },
    {
      "midi": 89,
      "hit": false,
      "t": 208285,
      "d": 370,
      "v": 97
    },
    {
      "midi": 91,
      "hit": false,
      "t": 208675,
      "d": 90,
      "v": 76
    },
    {
      "midi": 91,
      "hit": false,
      "t": 208920,
      "d": 335,
      "v": 111
    },
    {
      "midi": 83,
      "hit": false,
      "t": 210185,
      "d": 175,
      "v": 91
    },
    {
      "midi": 86,
      "hit": false,
      "t": 210330,
      "d": 120,
      "v": 97
    },
    {
      "midi": 91,
      "hit": false,
      "t": 210450,
      "d": 665,
      "v": 106
    },
    {
      "midi": 86,
      "hit": false,
      "t": 210750,
      "d": 355,
      "v": 104
    },
    {
      "midi": 83,
      "hit": false,
      "t": 211055,
      "d": 2105,
      "v": 97
    },
    {
      "midi": 83,
      "hit": false,
      "t": 213535,
      "d": 285,
      "v": 64
    },
    {
      "midi": 86,
      "hit": false,
      "t": 213705,
      "d": 175,
      "v": 84
    },
    {
      "midi": 91,
      "hit": false,
      "t": 213850,
      "d": 2475,
      "v": 97
    },
    {
      "midi": 86,
      "hit": false,
      "t": 214115,
      "d": 875,
      "v": 93
    },
    {
      "midi": 83,
      "hit": false,
      "t": 214425,
      "d": 2030,
      "v": 78
    },
    {
      "midi": 55,
      "hit": false,
      "t": 222760,
      "d": 2235,
      "v": 10
    },
    {
      "midi": 79,
      "hit": false,
      "t": 222765,
      "d": 890,
      "v": 45
    },
    {
      "midi": 67,
      "hit": false,
      "t": 222765,
      "d": 2085,
      "v": 9
    },
    {
      "midi": 74,
      "hit": false,
      "t": 223175,
      "d": 425,
      "v": 73
    },
    {
      "midi": 77,
      "hit": false,
      "t": 224165,
      "d": 2095,
      "v": 78
    },
    {
      "midi": 72,
      "hit": false,
      "t": 224470,
      "d": 380,
      "v": 86
    },
    {
      "midi": 68,
      "hit": false,
      "t": 224775,
      "d": 725,
      "v": 70
    },
    {
      "midi": 72,
      "hit": false,
      "t": 225435,
      "d": 765,
      "v": 89
    },
    {
      "midi": 77,
      "hit": false,
      "t": 226435,
      "d": 960,
      "v": 74
    },
    {
      "midi": 72,
      "hit": false,
      "t": 226790,
      "d": 555,
      "v": 76
    },
    {
      "midi": 79,
      "hit": false,
      "t": 227780,
      "d": 1650,
      "v": 76
    },
    {
      "midi": 74,
      "hit": false,
      "t": 228125,
      "d": 1180,
      "v": 82
    },
    {
      "midi": 71,
      "hit": false,
      "t": 228435,
      "d": 490,
      "v": 91
    },
    {
      "midi": 67,
      "hit": false,
      "t": 228745,
      "d": 480,
      "v": 93
    },
    {
      "midi": 71,
      "hit": false,
      "t": 229445,
      "d": 1420,
      "v": 40
    },
    {
      "midi": 74,
      "hit": false,
      "t": 229750,
      "d": 1090,
      "v": 78
    },
    {
      "midi": 79,
      "hit": false,
      "t": 230045,
      "d": 785,
      "v": 82
    },
    {
      "midi": 77,
      "hit": false,
      "t": 232175,
      "d": 370,
      "v": 86
    },
    {
      "midi": 68,
      "hit": false,
      "t": 232480,
      "d": 1315,
      "v": 86
    },
    {
      "midi": 72,
      "hit": false,
      "t": 232820,
      "d": 2765,
      "v": 71
    },
    {
      "midi": 77,
      "hit": false,
      "t": 233150,
      "d": 2360,
      "v": 76
    },
    {
      "midi": 80,
      "hit": false,
      "t": 233465,
      "d": 760,
      "v": 107
    },
    {
      "midi": 68,
      "hit": false,
      "t": 234125,
      "d": 1445,
      "v": 60
    },
    {
      "midi": 79,
      "hit": false,
      "t": 234785,
      "d": 735,
      "v": 95
    },
    {
      "midi": 79,
      "hit": false,
      "t": 236180,
      "d": 1840,
      "v": 78
    },
    {
      "midi": 74,
      "hit": false,
      "t": 237000,
      "d": 995,
      "v": 95
    },
    {
      "midi": 71,
      "hit": false,
      "t": 237325,
      "d": 665,
      "v": 95
    },
    {
      "midi": 67,
      "hit": false,
      "t": 237630,
      "d": 1735,
      "v": 89
    },
    {
      "midi": 71,
      "hit": false,
      "t": 238325,
      "d": 345,
      "v": 95
    },
    {
      "midi": 72,
      "hit": false,
      "t": 238630,
      "d": 360,
      "v": 93
    },
    {
      "midi": 74,
      "hit": false,
      "t": 238965,
      "d": 640,
      "v": 95
    },
    {
      "midi": 67,
      "hit": false,
      "t": 239590,
      "d": 1015,
      "v": 71
    },
    {
      "midi": 75,
      "hit": false,
      "t": 240240,
      "d": 1015,
      "v": 77
    },
    {
      "midi": 67,
      "hit": false,
      "t": 240855,
      "d": 110,
      "v": 74
    },
    {
      "midi": 74,
      "hit": false,
      "t": 241210,
      "d": 130,
      "v": 78
    },
    {
      "midi": 72,
      "hit": false,
      "t": 241350,
      "d": 195,
      "v": 89
    },
    {
      "midi": 74,
      "hit": false,
      "t": 241500,
      "d": 1485,
      "v": 100
    },
    {
      "midi": 68,
      "hit": false,
      "t": 241555,
      "d": 555,
      "v": 77
    },
    {
      "midi": 68,
      "hit": false,
      "t": 242820,
      "d": 1095,
      "v": 93
    },
    {
      "midi": 72,
      "hit": false,
      "t": 243400,
      "d": 310,
      "v": 104
    },
    {
      "midi": 74,
      "hit": false,
      "t": 243720,
      "d": 375,
      "v": 91
    },
    {
      "midi": 75,
      "hit": false,
      "t": 244075,
      "d": 945,
      "v": 103
    },
    {
      "midi": 68,
      "hit": false,
      "t": 244675,
      "d": 925,
      "v": 65
    },
    {
      "midi": 77,
      "hit": false,
      "t": 245330,
      "d": 1440,
      "v": 97
    },
    {
      "midi": 68,
      "hit": false,
      "t": 246045,
      "d": 80,
      "v": 36
    },
    {
      "midi": 71,
      "hit": false,
      "t": 251595,
      "d": 525,
      "v": 56
    },
    {
      "midi": 67,
      "hit": false,
      "t": 251600,
      "d": 495,
      "v": 51
    },
    {
      "midi": 71,
      "hit": false,
      "t": 252890,
      "d": 240,
      "v": 40
    },
    {
      "midi": 67,
      "hit": false,
      "t": 252900,
      "d": 195,
      "v": 24
    },
    {
      "midi": 67,
      "hit": false,
      "t": 253495,
      "d": 350,
      "v": 43
    },
    {
      "midi": 72,
      "hit": false,
      "t": 253495,
      "d": 350,
      "v": 67
    },
    {
      "midi": 67,
      "hit": false,
      "t": 254175,
      "d": 890,
      "v": 52
    },
    {
      "midi": 72,
      "hit": false,
      "t": 254180,
      "d": 960,
      "v": 78
    },
    {
      "midi": 71,
      "hit": false,
      "t": 255540,
      "d": 370,
      "v": 82
    },
    {
      "midi": 67,
      "hit": false,
      "t": 255545,
      "d": 310,
      "v": 66
    },
    {
      "midi": 67,
      "hit": false,
      "t": 256195,
      "d": 135,
      "v": 70
    },
    {
      "midi": 71,
      "hit": false,
      "t": 256195,
      "d": 265,
      "v": 93
    },
    {
      "midi": 67,
      "hit": false,
      "t": 256530,
      "d": 170,
      "v": 60
    },
    {
      "midi": 67,
      "hit": false,
      "t": 256885,
      "d": 540,
      "v": 74
    },
    {
      "midi": 71,
      "hit": false,
      "t": 256885,
      "d": 675,
      "v": 89
    },
    {
      "midi": 72,
      "hit": false,
      "t": 258430,
      "d": 380,
      "v": 80
    },
    {
      "midi": 67,
      "hit": false,
      "t": 258440,
      "d": 250,
      "v": 54
    },
    {
      "midi": 74,
      "hit": false,
      "t": 258775,
      "d": 140,
      "v": 73
    },
    {
      "midi": 67,
      "hit": false,
      "t": 258780,
      "d": 200,
      "v": 32
    },
    {
      "midi": 75,
      "hit": false,
      "t": 259105,
      "d": 410,
      "v": 77
    },
    {
      "midi": 67,
      "hit": false,
      "t": 259115,
      "d": 195,
      "v": 53
    },
    {
      "midi": 67,
      "hit": false,
      "t": 259460,
      "d": 315,
      "v": 46
    },
    {
      "midi": 74,
      "hit": false,
      "t": 260565,
      "d": 175,
      "v": 28
    },
    {
      "midi": 67,
      "hit": false,
      "t": 260575,
      "d": 235,
      "v": 34
    },
    {
      "midi": 67,
      "hit": false,
      "t": 261260,
      "d": 655,
      "v": 62
    },
    {
      "midi": 71,
      "hit": false,
      "t": 261270,
      "d": 680,
      "v": 86
    },
    {
      "midi": 67,
      "hit": false,
      "t": 262055,
      "d": 175,
      "v": 50
    },
    {
      "midi": 67,
      "hit": false,
      "t": 262660,
      "d": 335,
      "v": 60
    },
    {
      "midi": 71,
      "hit": false,
      "t": 262660,
      "d": 385,
      "v": 78
    },
    {
      "midi": 72,
      "hit": false,
      "t": 263360,
      "d": 175,
      "v": 74
    },
    {
      "midi": 67,
      "hit": false,
      "t": 263365,
      "d": 175,
      "v": 52
    },
    {
      "midi": 67,
      "hit": false,
      "t": 263815,
      "d": 170,
      "v": 8
    },
    {
      "midi": 67,
      "hit": false,
      "t": 264110,
      "d": 390,
      "v": 54
    },
    {
      "midi": 74,
      "hit": false,
      "t": 264120,
      "d": 625,
      "v": 70
    },
    {
      "midi": 75,
      "hit": false,
      "t": 265110,
      "d": 170,
      "v": 63
    },
    {
      "midi": 67,
      "hit": false,
      "t": 265135,
      "d": 120,
      "v": 50
    },
    {
      "midi": 67,
      "hit": false,
      "t": 265460,
      "d": 605,
      "v": 22
    },
    {
      "midi": 75,
      "hit": false,
      "t": 265480,
      "d": 170,
      "v": 68
    },
    {
      "midi": 74,
      "hit": false,
      "t": 265900,
      "d": 100,
      "v": 47
    },
    {
      "midi": 74,
      "hit": false,
      "t": 266170,
      "d": 565,
      "v": 71
    },
    {
      "midi": 67,
      "hit": false,
      "t": 266615,
      "d": 125,
      "v": 11
    },
    {
      "midi": 72,
      "hit": false,
      "t": 267320,
      "d": 1010,
      "v": 63
    },
    {
      "midi": 67,
      "hit": false,
      "t": 267355,
      "d": 165,
      "v": 22
    },
    {
      "midi": 79,
      "hit": false,
      "t": 271955,
      "d": 465,
      "v": 51
    },
    {
      "midi": 83,
      "hit": false,
      "t": 271970,
      "d": 455,
      "v": 67
    },
    {
      "midi": 83,
      "hit": false,
      "t": 273380,
      "d": 1050,
      "v": 64
    },
    {
      "midi": 79,
      "hit": false,
      "t": 273390,
      "d": 960,
      "v": 39
    },
    {
      "midi": 83,
      "hit": false,
      "t": 274930,
      "d": 160,
      "v": 47
    },
    {
      "midi": 79,
      "hit": false,
      "t": 274950,
      "d": 115,
      "v": 30
    },
    {
      "midi": 83,
      "hit": false,
      "t": 275285,
      "d": 235,
      "v": 40
    },
    {
      "midi": 79,
      "hit": false,
      "t": 275295,
      "d": 195,
      "v": 43
    },
    {
      "midi": 84,
      "hit": false,
      "t": 275625,
      "d": 140,
      "v": 67
    },
    {
      "midi": 79,
      "hit": false,
      "t": 275630,
      "d": 175,
      "v": 32
    },
    {
      "midi": 84,
      "hit": false,
      "t": 275990,
      "d": 360,
      "v": 71
    },
    {
      "midi": 79,
      "hit": false,
      "t": 276000,
      "d": 220,
      "v": 45
    },
    {
      "midi": 79,
      "hit": false,
      "t": 276335,
      "d": 155,
      "v": 49
    },
    {
      "midi": 87,
      "hit": false,
      "t": 276705,
      "d": 390,
      "v": 71
    },
    {
      "midi": 79,
      "hit": false,
      "t": 276710,
      "d": 230,
      "v": 45
    },
    {
      "midi": 79,
      "hit": false,
      "t": 277060,
      "d": 1125,
      "v": 31
    },
    {
      "midi": 86,
      "hit": false,
      "t": 277430,
      "d": 905,
      "v": 56
    },
    {
      "midi": 79,
      "hit": false,
      "t": 278540,
      "d": 175,
      "v": 12
    },
    {
      "midi": 84,
      "hit": false,
      "t": 278540,
      "d": 195,
      "v": 34
    },
    {
      "midi": 84,
      "hit": false,
      "t": 278955,
      "d": 410,
      "v": 70
    },
    {
      "midi": 79,
      "hit": false,
      "t": 278960,
      "d": 520,
      "v": 28
    },
    {
      "midi": 83,
      "hit": false,
      "t": 279700,
      "d": 440,
      "v": 69
    },
    {
      "midi": 79,
      "hit": false,
      "t": 279700,
      "d": 450,
      "v": 53
    },
    {
      "midi": 79,
      "hit": false,
      "t": 280470,
      "d": 380,
      "v": 43
    },
    {
      "midi": 83,
      "hit": false,
      "t": 280475,
      "d": 370,
      "v": 63
    },
    {
      "midi": 79,
      "hit": false,
      "t": 281995,
      "d": 115,
      "v": 32
    },
    {
      "midi": 83,
      "hit": false,
      "t": 282010,
      "d": 115,
      "v": 67
    },
    {
      "midi": 77,
      "hit": false,
      "t": 282240,
      "d": 145,
      "v": 50
    },
    {
      "midi": 83,
      "hit": false,
      "t": 282250,
      "d": 115,
      "v": 43
    },
    {
      "midi": 83,
      "hit": false,
      "t": 282500,
      "d": 315,
      "v": 59
    },
    {
      "midi": 79,
      "hit": false,
      "t": 282505,
      "d": 295,
      "v": 55
    },
    {
      "midi": 83,
      "hit": false,
      "t": 285345,
      "d": 160,
      "v": 32
    },
    {
      "midi": 79,
      "hit": false,
      "t": 285350,
      "d": 140,
      "v": 63
    },
    {
      "midi": 83,
      "hit": false,
      "t": 285720,
      "d": 145,
      "v": 55
    },
    {
      "midi": 79,
      "hit": false,
      "t": 285735,
      "d": 130,
      "v": 64
    },
    {
      "midi": 84,
      "hit": false,
      "t": 286100,
      "d": 135,
      "v": 50
    },
    {
      "midi": 79,
      "hit": false,
      "t": 286100,
      "d": 150,
      "v": 7
    },
    {
      "midi": 79,
      "hit": false,
      "t": 286475,
      "d": 185,
      "v": 57
    },
    {
      "midi": 84,
      "hit": false,
      "t": 286475,
      "d": 515,
      "v": 51
    },
    {
      "midi": 77,
      "hit": false,
      "t": 286825,
      "d": 160,
      "v": 50
    },
    {
      "midi": 84,
      "hit": false,
      "t": 287200,
      "d": 950,
      "v": 62
    },
    {
      "midi": 77,
      "hit": false,
      "t": 287215,
      "d": 745,
      "v": 51
    },
    {
      "midi": 84,
      "hit": false,
      "t": 288300,
      "d": 205,
      "v": 36
    },
    {
      "midi": 79,
      "hit": false,
      "t": 288315,
      "d": 150,
      "v": 60
    },
    {
      "midi": 79,
      "hit": false,
      "t": 288720,
      "d": 295,
      "v": 59
    },
    {
      "midi": 84,
      "hit": false,
      "t": 288720,
      "d": 610,
      "v": 55
    },
    {
      "midi": 77,
      "hit": false,
      "t": 289085,
      "d": 190,
      "v": 41
    },
    {
      "midi": 79,
      "hit": false,
      "t": 290390,
      "d": 320,
      "v": 7
    },
    {
      "midi": 75,
      "hit": false,
      "t": 291480,
      "d": 210,
      "v": 48
    },
    {
      "midi": 75,
      "hit": false,
      "t": 291855,
      "d": 445,
      "v": 60
    },
    {
      "midi": 72,
      "hit": false,
      "t": 293215,
      "d": 455,
      "v": 50
    },
    {
      "midi": 74,
      "hit": false,
      "t": 294090,
      "d": 780,
      "v": 73
    },
    {
      "midi": 75,
      "hit": false,
      "t": 294890,
      "d": 2050,
      "v": 65
    },
    {
      "midi": 71,
      "hit": false,
      "t": 297505,
      "d": 465,
      "v": 70
    },
    {
      "midi": 67,
      "hit": false,
      "t": 297510,
      "d": 480,
      "v": 57
    },
    {
      "midi": 71,
      "hit": false,
      "t": 298335,
      "d": 915,
      "v": 71
    },
    {
      "midi": 67,
      "hit": false,
      "t": 298345,
      "d": 915,
      "v": 54
    },
    {
      "midi": 71,
      "hit": false,
      "t": 299480,
      "d": 175,
      "v": 67
    },
    {
      "midi": 67,
      "hit": false,
      "t": 299485,
      "d": 175,
      "v": 50
    },
    {
      "midi": 71,
      "hit": false,
      "t": 299870,
      "d": 210,
      "v": 67
    },
    {
      "midi": 67,
      "hit": false,
      "t": 299880,
      "d": 190,
      "v": 57
    },
    {
      "midi": 72,
      "hit": false,
      "t": 300250,
      "d": 185,
      "v": 66
    },
    {
      "midi": 67,
      "hit": false,
      "t": 300250,
      "d": 210,
      "v": 55
    },
    {
      "midi": 67,
      "hit": false,
      "t": 300670,
      "d": 380,
      "v": 60
    },
    {
      "midi": 72,
      "hit": false,
      "t": 300670,
      "d": 390,
      "v": 78
    },
    {
      "midi": 74,
      "hit": false,
      "t": 301400,
      "d": 370,
      "v": 71
    },
    {
      "midi": 67,
      "hit": false,
      "t": 301405,
      "d": 350,
      "v": 56
    },
    {
      "midi": 65,
      "hit": false,
      "t": 302160,
      "d": 355,
      "v": 57
    },
    {
      "midi": 74,
      "hit": false,
      "t": 302165,
      "d": 295,
      "v": 69
    },
    {
      "midi": 75,
      "hit": false,
      "t": 302945,
      "d": 450,
      "v": 65
    },
    {
      "midi": 65,
      "hit": false,
      "t": 302955,
      "d": 405,
      "v": 63
    },
    {
      "midi": 74,
      "hit": false,
      "t": 304160,
      "d": 125,
      "v": 63
    },
    {
      "midi": 67,
      "hit": false,
      "t": 304175,
      "d": 135,
      "v": 41
    },
    {
      "midi": 67,
      "hit": false,
      "t": 304360,
      "d": 155,
      "v": 34
    },
    {
      "midi": 74,
      "hit": false,
      "t": 304370,
      "d": 120,
      "v": 55
    },
    {
      "midi": 74,
      "hit": false,
      "t": 304575,
      "d": 440,
      "v": 60
    },
    {
      "midi": 67,
      "hit": false,
      "t": 304590,
      "d": 1920,
      "v": 41
    },
    {
      "midi": 72,
      "hit": false,
      "t": 304985,
      "d": 395,
      "v": 62
    },
    {
      "midi": 74,
      "hit": false,
      "t": 305385,
      "d": 1220,
      "v": 62
    },
    {
      "midi": 72,
      "hit": false,
      "t": 306905,
      "d": 245,
      "v": 31
    },
    {
      "midi": 72,
      "hit": false,
      "t": 307320,
      "d": 585,
      "v": 69
    },
    {
      "midi": 67,
      "hit": false,
      "t": 307355,
      "d": 405,
      "v": 23
    },
    {
      "midi": 71,
      "hit": false,
      "t": 308075,
      "d": 490,
      "v": 74
    },
    {
      "midi": 67,
      "hit": false,
      "t": 308095,
      "d": 445,
      "v": 35
    },
    {
      "midi": 71,
      "hit": false,
      "t": 308870,
      "d": 845,
      "v": 56
    },
    {
      "midi": 67,
      "hit": false,
      "t": 309655,
      "d": 525,
      "v": 50
    },
    {
      "midi": 71,
      "hit": false,
      "t": 310460,
      "d": 495,
      "v": 56
    },
    {
      "midi": 43,
      "hit": false,
      "t": 310465,
      "d": 730,
      "v": 55
    },
    {
      "midi": 55,
      "hit": false,
      "t": 310470,
      "d": 740,
      "v": 47
    },
    {
      "midi": 50,
      "hit": false,
      "t": 310480,
      "d": 700,
      "v": 67
    },
    {
      "midi": 55,
      "hit": false,
      "t": 311285,
      "d": 1350,
      "v": 45
    },
    {
      "midi": 43,
      "hit": false,
      "t": 311300,
      "d": 1210,
      "v": 47
    },
    {
      "midi": 50,
      "hit": false,
      "t": 311300,
      "d": 1230,
      "v": 69
    },
    {
      "midi": 71,
      "hit": false,
      "t": 311300,
      "d": 1320,
      "v": 63
    },
    {
      "midi": 43,
      "hit": false,
      "t": 312980,
      "d": 620,
      "v": 47
    },
    {
      "midi": 55,
      "hit": false,
      "t": 312980,
      "d": 645,
      "v": 34
    },
    {
      "midi": 50,
      "hit": false,
      "t": 312990,
      "d": 330,
      "v": 62
    },
    {
      "midi": 71,
      "hit": false,
      "t": 312995,
      "d": 525,
      "v": 62
    },
    {
      "midi": 55,
      "hit": false,
      "t": 313775,
      "d": 2385,
      "v": 47
    },
    {
      "midi": 43,
      "hit": false,
      "t": 313775,
      "d": 3660,
      "v": 52
    },
    {
      "midi": 72,
      "hit": false,
      "t": 313785,
      "d": 1245,
      "v": 73
    },
    {
      "midi": 50,
      "hit": false,
      "t": 313790,
      "d": 720,
      "v": 73
    },
    {
      "midi": 74,
      "hit": false,
      "t": 315090,
      "d": 220,
      "v": 71
    },
    {
      "midi": 50,
      "hit": false,
      "t": 315530,
      "d": 470,
      "v": 54
    },
    {
      "midi": 75,
      "hit": false,
      "t": 315545,
      "d": 440,
      "v": 68
    },
    {
      "midi": 53,
      "hit": false,
      "t": 316320,
      "d": 275,
      "v": 80
    },
    {
      "midi": 74,
      "hit": false,
      "t": 316325,
      "d": 485,
      "v": 70
    },
    {
      "midi": 71,
      "hit": false,
      "t": 317110,
      "d": 345,
      "v": 80
    },
    {
      "midi": 55,
      "hit": false,
      "t": 317110,
      "d": 370,
      "v": 73
    },
    {
      "midi": 50,
      "hit": false,
      "t": 317115,
      "d": 315,
      "v": 73
    },
    {
      "midi": 71,
      "hit": false,
      "t": 317890,
      "d": 1640,
      "v": 71
    },
    {
      "midi": 55,
      "hit": false,
      "t": 317890,
      "d": 2100,
      "v": 66
    },
    {
      "midi": 43,
      "hit": false,
      "t": 317890,
      "d": 3545,
      "v": 66
    },
    {
      "midi": 50,
      "hit": false,
      "t": 317895,
      "d": 715,
      "v": 76
    },
    {
      "midi": 50,
      "hit": false,
      "t": 319435,
      "d": 420,
      "v": 64
    },
    {
      "midi": 71,
      "hit": false,
      "t": 319825,
      "d": 170,
      "v": 69
    },
    {
      "midi": 72,
      "hit": false,
      "t": 320250,
      "d": 605,
      "v": 76
    },
    {
      "midi": 55,
      "hit": false,
      "t": 320255,
      "d": 1150,
      "v": 46
    },
    {
      "midi": 50,
      "hit": false,
      "t": 320275,
      "d": 1090,
      "v": 71
    },
    {
      "midi": 72,
      "hit": false,
      "t": 321055,
      "d": 810,
      "v": 70
    },
    {
      "midi": 53,
      "hit": false,
      "t": 321870,
      "d": 900,
      "v": 66
    },
    {
      "midi": 74,
      "hit": false,
      "t": 321885,
      "d": 410,
      "v": 70
    },
    {
      "midi": 41,
      "hit": false,
      "t": 321895,
      "d": 70,
      "v": 50
    },
    {
      "midi": 75,
      "hit": false,
      "t": 322655,
      "d": 315,
      "v": 58
    },
    {
      "midi": 59,
      "hit": false,
      "t": 324220,
      "d": 3605,
      "v": 51
    },
    {
      "midi": 55,
      "hit": false,
      "t": 324245,
      "d": 1890,
      "v": 60
    },
    {
      "midi": 62,
      "hit": false,
      "t": 324255,
      "d": 3800,
      "v": 59
    },
    {
      "midi": 67,
      "hit": false,
      "t": 324360,
      "d": 4395,
      "v": 70
    },
    {
      "midi": 43,
      "hit": false,
      "t": 326950,
      "d": 2190,
      "v": 44
    }
  ]
}