{
  "jsonPath": "Electronic/Psychedelic Trance/Infected Mushroom/noon.json",
  "path": "Electronic\\Psychedelic Trance\\Infected Mushroom\\Noon.mid",
  "name": "Noon",
  "difficulty": "Advanced",
  "bpm": 143.51011387527535,
  "notes": [
    {
      "midi": 69,
      "hit": false,
      "t": 3344.7120000000004,
      "d": 104.52224999999999,
      "v": 83
    },
    {
      "midi": 57,
      "hit": false,
      "t": 3449.2342500000004,
      "d": 104.52224999999999,
      "v": 83
    },
    {
      "midi": 76,
      "hit": false,
      "t": 3553.7565000000004,
      "d": 104.52224999999999,
      "v": 83
    },
    {
      "midi": 57,
      "hit": false,
      "t": 3658.2787500000004,
      "d": 104.52224999999999,
      "v": 83
    },
    {
      "midi": 77,
      "hit": false,
      "t": 3762.8010000000004,
      "d": 104.52224999999999,
      "v": 83
    },
    {
      "midi": 57,
      "hit": false,
      "t": 3867.3232500000004,
      "d": 104.52224999999999,
      "v": 83
    },
    {
      "midi": 79,
      "hit": false,
      "t": 3971.8455000000004,
      "d": 104.52224999999999,
      "v": 83
    },
    {
      "midi": 57,
      "hit": false,
      "t": 4076.3677500000003,
      "d": 104.52224999999999,
      "v": 83
    },
    {
      "midi": 76,
      "hit": false,
      "t": 4180.89,
      "d": 104.52224999999999,
      "v": 83
    },
    {
      "midi": 57,
      "hit": false,
      "t": 4285.41225,
      "d": 104.52224999999999,
      "v": 83
    },
    {
      "midi": 76,
      "hit": false,
      "t": 4389.9345,
      "d": 104.52224999999999,
      "v": 83
    },
    {
      "midi": 57,
      "hit": false,
      "t": 4494.45675,
      "d": 104.52224999999999,
      "v": 83
    },
    {
      "midi": 77,
      "hit": false,
      "t": 4598.979,
      "d": 104.52224999999999,
      "v": 83
    },
    {
      "midi": 57,
      "hit": false,
      "t": 4703.50125,
      "d": 104.52224999999999,
      "v": 83
    },
    {
      "midi": 74,
      "hit": false,
      "t": 4808.0235,
      "d": 104.52224999999999,
      "v": 83
    },
    {
      "midi": 57,
      "hit": false,
      "t": 4912.54575,
      "d": 104.52224999999999,
      "v": 83
    },
    {
      "midi": 76,
      "hit": false,
      "t": 5017.068,
      "d": 104.52224999999999,
      "v": 83
    },
    {
      "midi": 57,
      "hit": false,
      "t": 5121.59025,
      "d": 104.52224999999999,
      "v": 83
    },
    {
      "midi": 76,
      "hit": false,
      "t": 5226.1125,
      "d": 104.52224999999999,
      "v": 83
    },
    {
      "midi": 57,
      "hit": false,
      "t": 5330.63475,
      "d": 104.52224999999999,
      "v": 83
    },
    {
      "midi": 77,
      "hit": false,
      "t": 5435.157,
      "d": 104.52224999999999,
      "v": 83
    },
    {
      "midi": 57,
      "hit": false,
      "t": 5539.67925,
      "d": 104.52224999999999,
      "v": 83
    },
    {
      "midi": 79,
      "hit": false,
      "t": 5644.2015,
      "d": 104.52224999999999,
      "v": 83
    },
    {
      "midi": 57,
      "hit": false,
      "t": 5748.72375,
      "d": 104.52224999999999,
      "v": 83
    },
    {
      "midi": 76,
      "hit": false,
      "t": 5853.246,
      "d": 104.52224999999999,
      "v": 83
    },
    {
      "midi": 57,
      "hit": false,
      "t": 5957.76825,
      "d": 104.52224999999999,
      "v": 83
    },
    {
      "midi": 76,
      "hit": false,
      "t": 6062.2905,
      "d": 104.52224999999999,
      "v": 83
    },
    {
      "midi": 57,
      "hit": false,
      "t": 6166.81275,
      "d": 104.52224999999999,
      "v": 83
    },
    {
      "midi": 77,
      "hit": false,
      "t": 6271.335,
      "d": 104.52224999999999,
      "v": 83
    },
    {
      "midi": 57,
      "hit": false,
      "t": 6375.85725,
      "d": 104.52224999999999,
      "v": 83
    },
    {
      "midi": 74,
      "hit": false,
      "t": 6480.3795,
      "d": 104.52224999999999,
      "v": 83
    },
    {
      "midi": 57,
      "hit": false,
      "t": 6584.90175,
      "d": 104.52224999999999,
      "v": 83
    },
    {
      "midi": 76,
      "hit": false,
      "t": 6689.424,
      "d": 104.52224999999999,
      "v": 83
    },
    {
      "midi": 57,
      "hit": false,
      "t": 6793.94625,
      "d": 104.52224999999999,
      "v": 83
    },
    {
      "midi": 76,
      "hit": false,
      "t": 6898.4685,
      "d": 104.52224999999999,
      "v": 83
    },
    {
      "midi": 57,
      "hit": false,
      "t": 7002.99075,
      "d": 104.52224999999999,
      "v": 83
    },
    {
      "midi": 77,
      "hit": false,
      "t": 7107.513,
      "d": 104.52224999999999,
      "v": 83
    },
    {
      "midi": 57,
      "hit": false,
      "t": 7212.03525,
      "d": 104.52224999999999,
      "v": 83
    },
    {
      "midi": 79,
      "hit": false,
      "t": 7316.5575,
      "d": 104.52224999999999,
      "v": 83
    },
    {
      "midi": 57,
      "hit": false,
      "t": 7421.07975,
      "d": 104.52224999999999,
      "v": 83
    },
    {
      "midi": 76,
      "hit": false,
      "t": 7525.602,
      "d": 104.52224999999999,
      "v": 83
    },
    {
      "midi": 57,
      "hit": false,
      "t": 7630.12425,
      "d": 104.52224999999999,
      "v": 83
    },
    {
      "midi": 76,
      "hit": false,
      "t": 7734.6465,
      "d": 104.52224999999999,
      "v": 83
    },
    {
      "midi": 57,
      "hit": false,
      "t": 7839.16875,
      "d": 104.52224999999999,
      "v": 83
    },
    {
      "midi": 77,
      "hit": false,
      "t": 7943.691,
      "d": 104.52224999999999,
      "v": 83
    },
    {
      "midi": 57,
      "hit": false,
      "t": 8048.21325,
      "d": 104.52224999999999,
      "v": 83
    },
    {
      "midi": 74,
      "hit": false,
      "t": 8152.7355,
      "d": 104.5222500000009,
      "v": 83
    },
    {
      "midi": 57,
      "hit": false,
      "t": 8257.25775,
      "d": 104.52224999999999,
      "v": 83
    },
    {
      "midi": 76,
      "hit": false,
      "t": 8361.78,
      "d": 104.52224999999999,
      "v": 83
    },
    {
      "midi": 57,
      "hit": false,
      "t": 8466.30225,
      "d": 104.52224999999999,
      "v": 83
    },
    {
      "midi": 72,
      "hit": false,
      "t": 8570.8245,
      "d": 104.52224999999999,
      "v": 83
    },
    {
      "midi": 57,
      "hit": false,
      "t": 8675.34675,
      "d": 104.52224999999999,
      "v": 83
    },
    {
      "midi": 74,
      "hit": false,
      "t": 8779.869,
      "d": 104.52224999999999,
      "v": 83
    },
    {
      "midi": 57,
      "hit": false,
      "t": 8884.39125,
      "d": 104.52224999999999,
      "v": 83
    },
    {
      "midi": 71,
      "hit": false,
      "t": 8988.9135,
      "d": 104.52224999999999,
      "v": 83
    },
    {
      "midi": 57,
      "hit": false,
      "t": 9093.43575,
      "d": 104.52224999999999,
      "v": 83
    },
    {
      "midi": 72,
      "hit": false,
      "t": 9197.958,
      "d": 104.52224999999999,
      "v": 83
    },
    {
      "midi": 57,
      "hit": false,
      "t": 9302.48025,
      "d": 104.52224999999999,
      "v": 83
    },
    {
      "midi": 69,
      "hit": false,
      "t": 9407.0025,
      "d": 104.52224999999999,
      "v": 83
    },
    {
      "midi": 57,
      "hit": false,
      "t": 9511.52475,
      "d": 104.52224999999999,
      "v": 83
    },
    {
      "midi": 71,
      "hit": false,
      "t": 9616.047,
      "d": 104.52224999999999,
      "v": 83
    },
    {
      "midi": 57,
      "hit": false,
      "t": 9720.56925,
      "d": 104.52224999999999,
      "v": 83
    },
    {
      "midi": 68,
      "hit": false,
      "t": 9825.0915,
      "d": 104.52224999999999,
      "v": 83
    },
    {
      "midi": 57,
      "hit": false,
      "t": 9929.61375,
      "d": 104.52224999999999,
      "v": 83
    },
    {
      "midi": 69,
      "hit": false,
      "t": 10034.136,
      "d": 104.52224999999999,
      "v": 83
    },
    {
      "midi": 57,
      "hit": false,
      "t": 10138.65825,
      "d": 104.52224999999999,
      "v": 83
    },
    {
      "midi": 76,
      "hit": false,
      "t": 10243.1805,
      "d": 104.52224999999999,
      "v": 83
    },
    {
      "midi": 57,
      "hit": false,
      "t": 10347.70275,
      "d": 104.52224999999999,
      "v": 83
    },
    {
      "midi": 77,
      "hit": false,
      "t": 10452.225,
      "d": 104.52224999999999,
      "v": 83
    },
    {
      "midi": 57,
      "hit": false,
      "t": 10556.74725,
      "d": 104.52224999999999,
      "v": 83
    },
    {
      "midi": 79,
      "hit": false,
      "t": 10661.2695,
      "d": 104.52224999999999,
      "v": 83
    },
    {
      "midi": 57,
      "hit": false,
      "t": 10765.79175,
      "d": 104.52224999999999,
      "v": 83
    },
    {
      "midi": 76,
      "hit": false,
      "t": 10870.314,
      "d": 104.52224999999999,
      "v": 83
    },
    {
      "midi": 57,
      "hit": false,
      "t": 10974.83625,
      "d": 104.52224999999999,
      "v": 83
    },
    {
      "midi": 76,
      "hit": false,
      "t": 11079.3585,
      "d": 104.52224999999999,
      "v": 83
    },
    {
      "midi": 57,
      "hit": false,
      "t": 11183.88075,
      "d": 104.52224999999999,
      "v": 83
    },
    {
      "midi": 77,
      "hit": false,
      "t": 11288.403,
      "d": 104.52224999999999,
      "v": 83
    },
    {
      "midi": 57,
      "hit": false,
      "t": 11392.92525,
      "d": 104.52224999999999,
      "v": 83
    },
    {
      "midi": 74,
      "hit": false,
      "t": 11497.4475,
      "d": 104.52224999999999,
      "v": 83
    },
    {
      "midi": 57,
      "hit": false,
      "t": 11601.96975,
      "d": 104.52224999999999,
      "v": 83
    },
    {
      "midi": 76,
      "hit": false,
      "t": 11706.492,
      "d": 104.52224999999999,
      "v": 83
    },
    {
      "midi": 57,
      "hit": false,
      "t": 11811.01425,
      "d": 104.52224999999999,
      "v": 83
    },
    {
      "midi": 76,
      "hit": false,
      "t": 11915.5365,
      "d": 104.52224999999999,
      "v": 83
    },
    {
      "midi": 57,
      "hit": false,
      "t": 12020.05875,
      "d": 104.52224999999999,
      "v": 83
    },
    {
      "midi": 77,
      "hit": false,
      "t": 12124.581,
      "d": 104.52224999999999,
      "v": 83
    },
    {
      "midi": 57,
      "hit": false,
      "t": 12229.10325,
      "d": 104.52224999999999,
      "v": 83
    },
    {
      "midi": 79,
      "hit": false,
      "t": 12333.6255,
      "d": 104.52224999999999,
      "v": 83
    },
    {
      "midi": 57,
      "hit": false,
      "t": 12438.14775,
      "d": 104.52224999999999,
      "v": 83
    },
    {
      "midi": 76,
      "hit": false,
      "t": 12542.67,
      "d": 104.52224999999999,
      "v": 83
    },
    {
      "midi": 57,
      "hit": false,
      "t": 12647.19225,
      "d": 104.52224999999999,
      "v": 83
    },
    {
      "midi": 76,
      "hit": false,
      "t": 12751.7145,
      "d": 104.52224999999999,
      "v": 83
    },
    {
      "midi": 57,
      "hit": false,
      "t": 12856.23675,
      "d": 104.52224999999999,
      "v": 83
    },
    {
      "midi": 77,
      "hit": false,
      "t": 12960.759,
      "d": 104.52224999999999,
      "v": 83
    },
    {
      "midi": 57,
      "hit": false,
      "t": 13065.28125,
      "d": 104.52224999999999,
      "v": 83
    },
    {
      "midi": 74,
      "hit": false,
      "t": 13169.8035,
      "d": 104.52224999999999,
      "v": 83
    },
    {
      "midi": 57,
      "hit": false,
      "t": 13274.32575,
      "d": 104.52224999999999,
      "v": 83
    },
    {
      "midi": 76,
      "hit": false,
      "t": 13378.848,
      "d": 104.52224999999999,
      "v": 83
    },
    {
      "midi": 57,
      "hit": false,
      "t": 13483.37025,
      "d": 104.52224999999999,
      "v": 83
    },
    {
      "midi": 76,
      "hit": false,
      "t": 13587.8925,
      "d": 104.52224999999999,
      "v": 83
    },
    {
      "midi": 57,
      "hit": false,
      "t": 13692.41475,
      "d": 104.52224999999999,
      "v": 83
    },
    {
      "midi": 77,
      "hit": false,
      "t": 13796.937,
      "d": 104.52224999999999,
      "v": 83
    },
    {
      "midi": 57,
      "hit": false,
      "t": 13901.45925,
      "d": 104.52224999999999,
      "v": 83
    },
    {
      "midi": 79,
      "hit": false,
      "t": 14005.9815,
      "d": 104.52224999999999,
      "v": 83
    },
    {
      "midi": 57,
      "hit": false,
      "t": 14110.50375,
      "d": 104.52224999999999,
      "v": 83
    },
    {
      "midi": 76,
      "hit": false,
      "t": 14215.026,
      "d": 104.52224999999999,
      "v": 83
    },
    {
      "midi": 57,
      "hit": false,
      "t": 14319.54825,
      "d": 104.52224999999999,
      "v": 83
    },
    {
      "midi": 76,
      "hit": false,
      "t": 14424.0705,
      "d": 104.52224999999999,
      "v": 83
    },
    {
      "midi": 57,
      "hit": false,
      "t": 14528.59275,
      "d": 104.52224999999999,
      "v": 83
    },
    {
      "midi": 77,
      "hit": false,
      "t": 14633.115,
      "d": 104.52224999999999,
      "v": 83
    },
    {
      "midi": 57,
      "hit": false,
      "t": 14737.63725,
      "d": 104.52224999999999,
      "v": 83
    },
    {
      "midi": 74,
      "hit": false,
      "t": 14842.1595,
      "d": 104.52224999999999,
      "v": 83
    },
    {
      "midi": 57,
      "hit": false,
      "t": 14946.68175,
      "d": 104.52224999999999,
      "v": 83
    },
    {
      "midi": 76,
      "hit": false,
      "t": 15051.204,
      "d": 104.52224999999999,
      "v": 83
    },
    {
      "midi": 57,
      "hit": false,
      "t": 15155.72625,
      "d": 104.52224999999999,
      "v": 83
    },
    {
      "midi": 72,
      "hit": false,
      "t": 15260.2485,
      "d": 104.52224999999999,
      "v": 83
    },
    {
      "midi": 57,
      "hit": false,
      "t": 15364.77075,
      "d": 104.52224999999999,
      "v": 83
    },
    {
      "midi": 74,
      "hit": false,
      "t": 15469.293,
      "d": 104.52224999999999,
      "v": 83
    },
    {
      "midi": 57,
      "hit": false,
      "t": 15573.81525,
      "d": 104.52224999999999,
      "v": 83
    },
    {
      "midi": 71,
      "hit": false,
      "t": 15678.3375,
      "d": 104.52224999999999,
      "v": 83
    },
    {
      "midi": 57,
      "hit": false,
      "t": 15782.85975,
      "d": 104.52224999999999,
      "v": 83
    },
    {
      "midi": 72,
      "hit": false,
      "t": 15887.382,
      "d": 104.52224999999999,
      "v": 83
    },
    {
      "midi": 57,
      "hit": false,
      "t": 15991.90425,
      "d": 104.52224999999999,
      "v": 83
    },
    {
      "midi": 69,
      "hit": false,
      "t": 16096.4265,
      "d": 104.52224999999999,
      "v": 83
    },
    {
      "midi": 57,
      "hit": false,
      "t": 16200.94875,
      "d": 104.52224999999999,
      "v": 83
    },
    {
      "midi": 71,
      "hit": false,
      "t": 16305.471,
      "d": 104.52224999999999,
      "v": 83
    },
    {
      "midi": 57,
      "hit": false,
      "t": 16409.99325,
      "d": 104.5222500000018,
      "v": 83
    },
    {
      "midi": 68,
      "hit": false,
      "t": 16514.5155,
      "d": 104.5222500000018,
      "v": 83
    },
    {
      "midi": 57,
      "hit": false,
      "t": 16619.037750000003,
      "d": 104.5222500000018,
      "v": 83
    },
    {
      "midi": 57,
      "hit": false,
      "t": 16723.56,
      "d": 132.8303593749988,
      "v": 64
    },
    {
      "midi": 69,
      "hit": false,
      "t": 16723.560000000005,
      "d": 104.5222500000018,
      "v": 83
    },
    {
      "midi": 57,
      "hit": false,
      "t": 16828.082250000007,
      "d": 104.5222500000018,
      "v": 83
    },
    {
      "midi": 69,
      "hit": false,
      "t": 16932.6045,
      "d": 132.8303593749988,
      "v": 64
    },
    {
      "midi": 76,
      "hit": false,
      "t": 16932.60450000001,
      "d": 104.5222500000018,
      "v": 83
    },
    {
      "midi": 57,
      "hit": false,
      "t": 17037.12675000001,
      "d": 104.5222500000018,
      "v": 83
    },
    {
      "midi": 57,
      "hit": false,
      "t": 17141.649,
      "d": 132.8303593749988,
      "v": 64
    },
    {
      "midi": 77,
      "hit": false,
      "t": 17141.649000000012,
      "d": 104.5222500000018,
      "v": 83
    },
    {
      "midi": 57,
      "hit": false,
      "t": 17246.171250000014,
      "d": 104.5222500000018,
      "v": 83
    },
    {
      "midi": 69,
      "hit": false,
      "t": 17350.6935,
      "d": 132.8303593749988,
      "v": 64
    },
    {
      "midi": 79,
      "hit": false,
      "t": 17350.693500000016,
      "d": 104.5222500000018,
      "v": 83
    },
    {
      "midi": 57,
      "hit": false,
      "t": 17455.215750000018,
      "d": 104.5222500000018,
      "v": 83
    },
    {
      "midi": 57,
      "hit": false,
      "t": 17559.738,
      "d": 132.8303593749988,
      "v": 64
    },
    {
      "midi": 76,
      "hit": false,
      "t": 17559.73800000002,
      "d": 104.5222500000018,
      "v": 83
    },
    {
      "midi": 57,
      "hit": false,
      "t": 17664.26025000002,
      "d": 104.5222500000018,
      "v": 83
    },
    {
      "midi": 69,
      "hit": false,
      "t": 17768.7825,
      "d": 132.8303593749988,
      "v": 64
    },
    {
      "midi": 76,
      "hit": false,
      "t": 17768.782500000023,
      "d": 104.5222500000018,
      "v": 83
    },
    {
      "midi": 57,
      "hit": false,
      "t": 17873.304750000025,
      "d": 104.5222500000018,
      "v": 83
    },
    {
      "midi": 60,
      "hit": false,
      "t": 17977.827,
      "d": 178.55884375000096,
      "v": 64
    },
    {
      "midi": 72,
      "hit": false,
      "t": 17977.827,
      "d": 189.4465781250001,
      "v": 64
    },
    {
      "midi": 77,
      "hit": false,
      "t": 17977.827000000027,
      "d": 104.5222500000018,
      "v": 83
    },
    {
      "midi": 57,
      "hit": false,
      "t": 18082.34925000003,
      "d": 104.5222500000018,
      "v": 83
    },
    {
      "midi": 62,
      "hit": false,
      "t": 18186.8715,
      "d": 193.80167187500047,
      "v": 64
    },
    {
      "midi": 74,
      "hit": false,
      "t": 18186.8715,
      "d": 195.97921874999884,
      "v": 64
    },
    {
      "midi": 74,
      "hit": false,
      "t": 18186.87150000003,
      "d": 104.5222500000018,
      "v": 83
    },
    {
      "midi": 57,
      "hit": false,
      "t": 18291.393750000032,
      "d": 104.5222500000018,
      "v": 83
    },
    {
      "midi": 57,
      "hit": false,
      "t": 18395.916,
      "d": 132.8303593749988,
      "v": 64
    },
    {
      "midi": 76,
      "hit": false,
      "t": 18395.916000000034,
      "d": 104.5222500000018,
      "v": 83
    },
    {
      "midi": 57,
      "hit": false,
      "t": 18500.438250000036,
      "d": 104.5222500000018,
      "v": 83
    },
    {
      "midi": 69,
      "hit": false,
      "t": 18604.9605,
      "d": 132.8303593749988,
      "v": 64
    },
    {
      "midi": 76,
      "hit": false,
      "t": 18604.960500000037,
      "d": 104.5222500000018,
      "v": 83
    },
    {
      "midi": 57,
      "hit": false,
      "t": 18709.48275000004,
      "d": 104.5222500000018,
      "v": 83
    },
    {
      "midi": 57,
      "hit": false,
      "t": 18814.005,
      "d": 132.8303593749988,
      "v": 64
    },
    {
      "midi": 77,
      "hit": false,
      "t": 18814.00500000004,
      "d": 104.5222500000018,
      "v": 83
    },
    {
      "midi": 57,
      "hit": false,
      "t": 18918.527250000043,
      "d": 104.5222500000018,
      "v": 83
    },
    {
      "midi": 69,
      "hit": false,
      "t": 19023.0495,
      "d": 132.8303593749988,
      "v": 64
    },
    {
      "midi": 79,
      "hit": false,
      "t": 19023.049500000045,
      "d": 104.5222500000018,
      "v": 83
    },
    {
      "midi": 57,
      "hit": false,
      "t": 19127.571750000046,
      "d": 104.5222500000018,
      "v": 83
    },
    {
      "midi": 57,
      "hit": false,
      "t": 19232.094,
      "d": 132.8303593749988,
      "v": 64
    },
    {
      "midi": 76,
      "hit": false,
      "t": 19232.09400000005,
      "d": 104.5222500000018,
      "v": 83
    },
    {
      "midi": 57,
      "hit": false,
      "t": 19336.61625000005,
      "d": 104.5222500000018,
      "v": 83
    },
    {
      "midi": 69,
      "hit": false,
      "t": 19441.1385,
      "d": 132.8303593749988,
      "v": 64
    },
    {
      "midi": 76,
      "hit": false,
      "t": 19441.138500000052,
      "d": 104.5222500000018,
      "v": 83
    },
    {
      "midi": 57,
      "hit": false,
      "t": 19545.660750000054,
      "d": 104.5222500000018,
      "v": 83
    },
    {
      "midi": 53,
      "hit": false,
      "t": 19650.183,
      "d": 178.55884375000096,
      "v": 64
    },
    {
      "midi": 65,
      "hit": false,
      "t": 19650.183,
      "d": 189.4465781250001,
      "v": 64
    },
    {
      "midi": 77,
      "hit": false,
      "t": 19650.183000000055,
      "d": 104.5222500000018,
      "v": 83
    },
    {
      "midi": 57,
      "hit": false,
      "t": 19754.705250000057,
      "d": 104.5222500000018,
      "v": 83
    },
    {
      "midi": 52,
      "hit": false,
      "t": 19859.2275,
      "d": 193.80167187500047,
      "v": 64
    },
    {
      "midi": 64,
      "hit": false,
      "t": 19859.2275,
      "d": 195.97921874999884,
      "v": 64
    },
    {
      "midi": 74,
      "hit": false,
      "t": 19859.22750000006,
      "d": 104.5222500000018,
      "v": 83
    },
    {
      "midi": 57,
      "hit": false,
      "t": 19963.74975000006,
      "d": 104.5222500000018,
      "v": 83
    },
    {
      "midi": 57,
      "hit": false,
      "t": 20068.272,
      "d": 132.8303593749988,
      "v": 64
    },
    {
      "midi": 76,
      "hit": false,
      "t": 20068.272000000063,
      "d": 104.5222500000018,
      "v": 83
    },
    {
      "midi": 57,
      "hit": false,
      "t": 20172.794250000064,
      "d": 104.5222500000018,
      "v": 83
    },
    {
      "midi": 69,
      "hit": false,
      "t": 20277.3165,
      "d": 132.8303593749988,
      "v": 64
    },
    {
      "midi": 76,
      "hit": false,
      "t": 20277.316500000066,
      "d": 104.5222500000018,
      "v": 83
    },
    {
      "midi": 57,
      "hit": false,
      "t": 20381.838750000068,
      "d": 104.5222500000018,
      "v": 83
    },
    {
      "midi": 57,
      "hit": false,
      "t": 20486.361,
      "d": 132.8303593749988,
      "v": 64
    },
    {
      "midi": 77,
      "hit": false,
      "t": 20486.36100000007,
      "d": 104.5222500000018,
      "v": 83
    },
    {
      "midi": 57,
      "hit": false,
      "t": 20590.88325000007,
      "d": 104.5222500000018,
      "v": 83
    },
    {
      "midi": 69,
      "hit": false,
      "t": 20695.4055,
      "d": 132.8303593749988,
      "v": 64
    },
    {
      "midi": 79,
      "hit": false,
      "t": 20695.405500000074,
      "d": 104.5222500000018,
      "v": 83
    },
    {
      "midi": 57,
      "hit": false,
      "t": 20799.927750000075,
      "d": 104.5222500000018,
      "v": 83
    },
    {
      "midi": 57,
      "hit": false,
      "t": 20904.45,
      "d": 132.8303593749988,
      "v": 64
    },
    {
      "midi": 76,
      "hit": false,
      "t": 20904.450000000077,
      "d": 104.5222500000018,
      "v": 83
    },
    {
      "midi": 57,
      "hit": false,
      "t": 21008.97225000008,
      "d": 104.5222500000018,
      "v": 83
    },
    {
      "midi": 69,
      "hit": false,
      "t": 21113.4945,
      "d": 132.8303593749988,
      "v": 64
    },
    {
      "midi": 76,
      "hit": false,
      "t": 21113.49450000008,
      "d": 104.5222500000018,
      "v": 83
    },
    {
      "midi": 57,
      "hit": false,
      "t": 21218.016750000083,
      "d": 104.5222500000018,
      "v": 83
    },
    {
      "midi": 60,
      "hit": false,
      "t": 21322.539,
      "d": 178.55884375000096,
      "v": 64
    },
    {
      "midi": 72,
      "hit": false,
      "t": 21322.539,
      "d": 189.4465781250001,
      "v": 64
    },
    {
      "midi": 77,
      "hit": false,
      "t": 21322.539000000084,
      "d": 104.5222500000018,
      "v": 83
    },
    {
      "midi": 57,
      "hit": false,
      "t": 21427.061250000086,
      "d": 104.5222500000018,
      "v": 83
    },
    {
      "midi": 62,
      "hit": false,
      "t": 21531.5835,
      "d": 193.80167187500047,
      "v": 64
    },
    {
      "midi": 74,
      "hit": false,
      "t": 21531.5835,
      "d": 195.97921874999884,
      "v": 64
    },
    {
      "midi": 74,
      "hit": false,
      "t": 21531.583500000088,
      "d": 104.5222500000018,
      "v": 83
    },
    {
      "midi": 57,
      "hit": false,
      "t": 21636.10575000009,
      "d": 104.5222500000018,
      "v": 83
    },
    {
      "midi": 57,
      "hit": false,
      "t": 21740.628,
      "d": 132.8303593749988,
      "v": 64
    },
    {
      "midi": 76,
      "hit": false,
      "t": 21740.62800000009,
      "d": 104.5222500000018,
      "v": 83
    },
    {
      "midi": 57,
      "hit": false,
      "t": 21845.150250000093,
      "d": 104.5222500000018,
      "v": 83
    },
    {
      "midi": 69,
      "hit": false,
      "t": 21949.6725,
      "d": 132.8303593749988,
      "v": 64
    },
    {
      "midi": 72,
      "hit": false,
      "t": 21949.672500000095,
      "d": 104.5222500000018,
      "v": 83
    },
    {
      "midi": 57,
      "hit": false,
      "t": 22054.194750000097,
      "d": 104.5222500000018,
      "v": 83
    },
    {
      "midi": 57,
      "hit": false,
      "t": 22158.717,
      "d": 132.8303593749988,
      "v": 64
    },
    {
      "midi": 74,
      "hit": false,
      "t": 22158.7170000001,
      "d": 104.5222500000018,
      "v": 83
    },
    {
      "midi": 57,
      "hit": false,
      "t": 22263.2392500001,
      "d": 104.5222500000018,
      "v": 83
    },
    {
      "midi": 69,
      "hit": false,
      "t": 22367.7615,
      "d": 132.8303593749988,
      "v": 64
    },
    {
      "midi": 71,
      "hit": false,
      "t": 22367.761500000102,
      "d": 104.5222500000018,
      "v": 83
    },
    {
      "midi": 57,
      "hit": false,
      "t": 22472.283750000104,
      "d": 104.5222500000018,
      "v": 83
    },
    {
      "midi": 57,
      "hit": false,
      "t": 22576.806,
      "d": 132.8303593749988,
      "v": 64
    },
    {
      "midi": 72,
      "hit": false,
      "t": 22576.806000000106,
      "d": 104.5222500000018,
      "v": 83
    },
    {
      "midi": 57,
      "hit": false,
      "t": 22681.328250000108,
      "d": 104.5222500000018,
      "v": 83
    },
    {
      "midi": 69,
      "hit": false,
      "t": 22785.8505,
      "d": 132.8303593749988,
      "v": 64
    },
    {
      "midi": 69,
      "hit": false,
      "t": 22785.85050000011,
      "d": 104.5222500000018,
      "v": 83
    },
    {
      "midi": 57,
      "hit": false,
      "t": 22890.37275000011,
      "d": 104.5222500000018,
      "v": 83
    },
    {
      "midi": 53,
      "hit": false,
      "t": 22994.895,
      "d": 178.55884375000096,
      "v": 64
    },
    {
      "midi": 65,
      "hit": false,
      "t": 22994.895,
      "d": 189.4465781250001,
      "v": 64
    },
    {
      "midi": 71,
      "hit": false,
      "t": 22994.895000000113,
      "d": 104.5222500000018,
      "v": 83
    },
    {
      "midi": 57,
      "hit": false,
      "t": 23099.417250000115,
      "d": 104.5222500000018,
      "v": 83
    },
    {
      "midi": 52,
      "hit": false,
      "t": 23203.9395,
      "d": 193.80167187500047,
      "v": 64
    },
    {
      "midi": 64,
      "hit": false,
      "t": 23203.9395,
      "d": 195.97921874999884,
      "v": 64
    },
    {
      "midi": 68,
      "hit": false,
      "t": 23203.939500000117,
      "d": 104.5222500000018,
      "v": 83
    },
    {
      "midi": 57,
      "hit": false,
      "t": 23308.46175000012,
      "d": 104.5222500000018,
      "v": 83
    },
    {
      "midi": 57,
      "hit": false,
      "t": 23412.984,
      "d": 132.8303593749988,
      "v": 64
    },
    {
      "midi": 69,
      "hit": false,
      "t": 23412.98400000012,
      "d": 104.5222500000018,
      "v": 83
    },
    {
      "midi": 57,
      "hit": false,
      "t": 23517.506250000122,
      "d": 104.5222500000018,
      "v": 83
    },
    {
      "midi": 69,
      "hit": false,
      "t": 23622.0285,
      "d": 132.8303593749988,
      "v": 64
    },
    {
      "midi": 76,
      "hit": false,
      "t": 23622.028500000124,
      "d": 104.5222500000018,
      "v": 83
    },
    {
      "midi": 57,
      "hit": false,
      "t": 23726.550750000126,
      "d": 104.5222500000018,
      "v": 83
    },
    {
      "midi": 57,
      "hit": false,
      "t": 23831.073,
      "d": 132.8303593749988,
      "v": 64
    },
    {
      "midi": 77,
      "hit": false,
      "t": 23831.073000000128,
      "d": 104.5222500000018,
      "v": 83
    },
    {
      "midi": 57,
      "hit": false,
      "t": 23935.59525000013,
      "d": 104.5222500000018,
      "v": 83
    },
    {
      "midi": 69,
      "hit": false,
      "t": 24040.1175,
      "d": 132.8303593749988,
      "v": 64
    },
    {
      "midi": 79,
      "hit": false,
      "t": 24040.11750000013,
      "d": 104.5222500000018,
      "v": 83
    },
    {
      "midi": 57,
      "hit": false,
      "t": 24144.639750000133,
      "d": 104.5222500000018,
      "v": 83
    },
    {
      "midi": 57,
      "hit": false,
      "t": 24249.162,
      "d": 132.8303593749988,
      "v": 64
    },
    {
      "midi": 76,
      "hit": false,
      "t": 24249.162000000135,
      "d": 104.5222500000018,
      "v": 83
    },
    {
      "midi": 57,
      "hit": false,
      "t": 24353.684250000137,
      "d": 104.5222500000018,
      "v": 83
    },
    {
      "midi": 69,
      "hit": false,
      "t": 24458.2065,
      "d": 132.8303593749988,
      "v": 64
    },
    {
      "midi": 76,
      "hit": false,
      "t": 24458.20650000014,
      "d": 104.5222500000018,
      "v": 83
    },
    {
      "midi": 57,
      "hit": false,
      "t": 24562.72875000014,
      "d": 104.5222500000018,
      "v": 83
    },
    {
      "midi": 60,
      "hit": false,
      "t": 24667.251,
      "d": 178.55884375000096,
      "v": 64
    },
    {
      "midi": 72,
      "hit": false,
      "t": 24667.251,
      "d": 189.4465781250001,
      "v": 64
    },
    {
      "midi": 77,
      "hit": false,
      "t": 24667.251000000142,
      "d": 104.5222500000018,
      "v": 83
    },
    {
      "midi": 57,
      "hit": false,
      "t": 24771.773250000144,
      "d": 104.5222500000018,
      "v": 83
    },
    {
      "midi": 62,
      "hit": false,
      "t": 24876.2955,
      "d": 193.80167187500047,
      "v": 64
    },
    {
      "midi": 74,
      "hit": false,
      "t": 24876.2955,
      "d": 195.97921874999884,
      "v": 64
    },
    {
      "midi": 74,
      "hit": false,
      "t": 24876.295500000146,
      "d": 104.5222500000018,
      "v": 83
    },
    {
      "midi": 57,
      "hit": false,
      "t": 24980.817750000147,
      "d": 104.5222500000018,
      "v": 83
    },
    {
      "midi": 57,
      "hit": false,
      "t": 25085.34,
      "d": 132.8303593749988,
      "v": 64
    },
    {
      "midi": 76,
      "hit": false,
      "t": 25085.34000000015,
      "d": 104.5222500000018,
      "v": 83
    },
    {
      "midi": 57,
      "hit": false,
      "t": 25189.86225000015,
      "d": 104.5222500000018,
      "v": 83
    },
    {
      "midi": 69,
      "hit": false,
      "t": 25294.3845,
      "d": 132.8303593749988,
      "v": 64
    },
    {
      "midi": 76,
      "hit": false,
      "t": 25294.384500000153,
      "d": 104.5222500000018,
      "v": 83
    },
    {
      "midi": 57,
      "hit": false,
      "t": 25398.906750000155,
      "d": 104.5222500000018,
      "v": 83
    },
    {
      "midi": 57,
      "hit": false,
      "t": 25503.429,
      "d": 132.8303593749988,
      "v": 64
    },
    {
      "midi": 77,
      "hit": false,
      "t": 25503.429000000157,
      "d": 104.5222500000018,
      "v": 83
    },
    {
      "midi": 57,
      "hit": false,
      "t": 25607.95125000016,
      "d": 104.5222500000018,
      "v": 83
    },
    {
      "midi": 69,
      "hit": false,
      "t": 25712.4735,
      "d": 132.8303593749988,
      "v": 64
    },
    {
      "midi": 79,
      "hit": false,
      "t": 25712.47350000016,
      "d": 104.5222500000018,
      "v": 83
    },
    {
      "midi": 57,
      "hit": false,
      "t": 25816.995750000162,
      "d": 104.5222500000018,
      "v": 83
    },
    {
      "midi": 57,
      "hit": false,
      "t": 25921.518,
      "d": 132.8303593749988,
      "v": 64
    },
    {
      "midi": 76,
      "hit": false,
      "t": 25921.518000000164,
      "d": 104.5222500000018,
      "v": 83
    },
    {
      "midi": 57,
      "hit": false,
      "t": 26026.040250000166,
      "d": 104.5222500000018,
      "v": 83
    },
    {
      "midi": 69,
      "hit": false,
      "t": 26130.5625,
      "d": 132.8303593749988,
      "v": 64
    },
    {
      "midi": 76,
      "hit": false,
      "t": 26130.562500000167,
      "d": 104.5222500000018,
      "v": 83
    },
    {
      "midi": 57,
      "hit": false,
      "t": 26235.08475000017,
      "d": 104.5222500000018,
      "v": 83
    },
    {
      "midi": 53,
      "hit": false,
      "t": 26339.607,
      "d": 178.55884375000096,
      "v": 64
    },
    {
      "midi": 65,
      "hit": false,
      "t": 26339.607,
      "d": 189.4465781250001,
      "v": 64
    },
    {
      "midi": 77,
      "hit": false,
      "t": 26339.60700000017,
      "d": 104.5222500000018,
      "v": 83
    },
    {
      "midi": 57,
      "hit": false,
      "t": 26444.129250000173,
      "d": 104.5222500000018,
      "v": 83
    },
    {
      "midi": 52,
      "hit": false,
      "t": 26548.6515,
      "d": 193.80167187500047,
      "v": 64
    },
    {
      "midi": 64,
      "hit": false,
      "t": 26548.6515,
      "d": 195.97921874999884,
      "v": 64
    },
    {
      "midi": 74,
      "hit": false,
      "t": 26548.651500000175,
      "d": 104.5222500000018,
      "v": 83
    },
    {
      "midi": 57,
      "hit": false,
      "t": 26653.173750000176,
      "d": 104.5222500000018,
      "v": 83
    },
    {
      "midi": 57,
      "hit": false,
      "t": 26757.696,
      "d": 132.8303593749988,
      "v": 64
    },
    {
      "midi": 76,
      "hit": false,
      "t": 26757.696000000178,
      "d": 104.5222500000018,
      "v": 83
    },
    {
      "midi": 57,
      "hit": false,
      "t": 26862.21825000018,
      "d": 104.5222500000018,
      "v": 83
    },
    {
      "midi": 69,
      "hit": false,
      "t": 26966.7405,
      "d": 132.8303593749988,
      "v": 64
    },
    {
      "midi": 76,
      "hit": false,
      "t": 26966.74050000018,
      "d": 104.5222500000018,
      "v": 83
    },
    {
      "midi": 57,
      "hit": false,
      "t": 27071.262750000184,
      "d": 104.5222500000018,
      "v": 83
    },
    {
      "midi": 57,
      "hit": false,
      "t": 27175.785,
      "d": 132.8303593749988,
      "v": 64
    },
    {
      "midi": 77,
      "hit": false,
      "t": 27175.785000000185,
      "d": 104.5222500000018,
      "v": 83
    },
    {
      "midi": 57,
      "hit": false,
      "t": 27280.307250000187,
      "d": 104.5222500000018,
      "v": 83
    },
    {
      "midi": 69,
      "hit": false,
      "t": 27384.8295,
      "d": 132.8303593749988,
      "v": 64
    },
    {
      "midi": 79,
      "hit": false,
      "t": 27384.82950000019,
      "d": 104.5222500000018,
      "v": 83
    },
    {
      "midi": 57,
      "hit": false,
      "t": 27489.35175000019,
      "d": 104.5222500000018,
      "v": 83
    },
    {
      "midi": 57,
      "hit": false,
      "t": 27593.874,
      "d": 132.8303593749988,
      "v": 64
    },
    {
      "midi": 76,
      "hit": false,
      "t": 27593.874000000193,
      "d": 104.5222500000018,
      "v": 83
    },
    {
      "midi": 57,
      "hit": false,
      "t": 27698.396250000194,
      "d": 104.5222500000018,
      "v": 83
    },
    {
      "midi": 69,
      "hit": false,
      "t": 27802.9185,
      "d": 132.8303593749988,
      "v": 64
    },
    {
      "midi": 76,
      "hit": false,
      "t": 27802.918500000196,
      "d": 104.5222500000018,
      "v": 83
    },
    {
      "midi": 57,
      "hit": false,
      "t": 27907.440750000198,
      "d": 104.5222500000018,
      "v": 83
    },
    {
      "midi": 60,
      "hit": false,
      "t": 28011.963,
      "d": 178.55884375000096,
      "v": 64
    },
    {
      "midi": 72,
      "hit": false,
      "t": 28011.963,
      "d": 189.4465781250001,
      "v": 64
    },
    {
      "midi": 77,
      "hit": false,
      "t": 28011.9630000002,
      "d": 104.5222500000018,
      "v": 83
    },
    {
      "midi": 57,
      "hit": false,
      "t": 28116.4852500002,
      "d": 104.5222500000018,
      "v": 83
    },
    {
      "midi": 62,
      "hit": false,
      "t": 28221.0075,
      "d": 193.80167187500047,
      "v": 64
    },
    {
      "midi": 74,
      "hit": false,
      "t": 28221.0075,
      "d": 195.97921874999884,
      "v": 64
    },
    {
      "midi": 74,
      "hit": false,
      "t": 28221.007500000203,
      "d": 104.5222500000018,
      "v": 83
    },
    {
      "midi": 57,
      "hit": false,
      "t": 28325.529750000205,
      "d": 104.5222500000018,
      "v": 83
    },
    {
      "midi": 57,
      "hit": false,
      "t": 28430.052,
      "d": 132.8303593749988,
      "v": 64
    },
    {
      "midi": 76,
      "hit": false,
      "t": 28430.052000000207,
      "d": 104.5222500000018,
      "v": 83
    },
    {
      "midi": 57,
      "hit": false,
      "t": 28534.57425000021,
      "d": 104.5222500000018,
      "v": 83
    },
    {
      "midi": 69,
      "hit": false,
      "t": 28639.0965,
      "d": 132.8303593749988,
      "v": 64
    },
    {
      "midi": 72,
      "hit": false,
      "t": 28639.09650000021,
      "d": 104.5222500000018,
      "v": 83
    },
    {
      "midi": 57,
      "hit": false,
      "t": 28743.618750000212,
      "d": 104.5222500000018,
      "v": 83
    },
    {
      "midi": 57,
      "hit": false,
      "t": 28848.141,
      "d": 132.8303593749988,
      "v": 64
    },
    {
      "midi": 74,
      "hit": false,
      "t": 28848.141000000214,
      "d": 104.5222500000018,
      "v": 83
    },
    {
      "midi": 57,
      "hit": false,
      "t": 28952.663250000216,
      "d": 104.5222500000018,
      "v": 83
    },
    {
      "midi": 69,
      "hit": false,
      "t": 29057.1855,
      "d": 132.8303593749988,
      "v": 64
    },
    {
      "midi": 71,
      "hit": false,
      "t": 29057.185500000218,
      "d": 104.5222500000018,
      "v": 83
    },
    {
      "midi": 57,
      "hit": false,
      "t": 29161.70775000022,
      "d": 104.5222500000018,
      "v": 83
    },
    {
      "midi": 57,
      "hit": false,
      "t": 29266.23,
      "d": 132.8303593749988,
      "v": 64
    },
    {
      "midi": 72,
      "hit": false,
      "t": 29266.23000000022,
      "d": 104.5222500000018,
      "v": 83
    },
    {
      "midi": 57,
      "hit": false,
      "t": 29370.752250000223,
      "d": 104.5222500000018,
      "v": 83
    },
    {
      "midi": 69,
      "hit": false,
      "t": 29475.2745,
      "d": 132.8303593749988,
      "v": 64
    },
    {
      "midi": 69,
      "hit": false,
      "t": 29475.274500000225,
      "d": 104.5222500000018,
      "v": 83
    },
    {
      "midi": 57,
      "hit": false,
      "t": 29579.796750000227,
      "d": 104.5222500000018,
      "v": 83
    },
    {
      "midi": 53,
      "hit": false,
      "t": 29684.319,
      "d": 178.55884375000096,
      "v": 64
    },
    {
      "midi": 65,
      "hit": false,
      "t": 29684.319,
      "d": 189.4465781250001,
      "v": 64
    },
    {
      "midi": 71,
      "hit": false,
      "t": 29684.31900000023,
      "d": 104.5222500000018,
      "v": 83
    },
    {
      "midi": 57,
      "hit": false,
      "t": 29788.84125000023,
      "d": 104.5222500000018,
      "v": 83
    },
    {
      "midi": 52,
      "hit": false,
      "t": 29893.3635,
      "d": 193.80167187500047,
      "v": 64
    },
    {
      "midi": 64,
      "hit": false,
      "t": 29893.3635,
      "d": 195.97921874999884,
      "v": 64
    },
    {
      "midi": 68,
      "hit": false,
      "t": 29893.363500000232,
      "d": 104.5222500000018,
      "v": 83
    },
    {
      "midi": 57,
      "hit": false,
      "t": 29997.885750000234,
      "d": 104.5222500000018,
      "v": 83
    },
    {
      "midi": 57,
      "hit": false,
      "t": 70238.95199999999,
      "d": 132.83035937500244,
      "v": 64
    },
    {
      "midi": 69,
      "hit": false,
      "t": 70238.95200000024,
      "d": 104.52224999999453,
      "v": 83
    },
    {
      "midi": 57,
      "hit": false,
      "t": 70343.47425000023,
      "d": 104.52224999999453,
      "v": 83
    },
    {
      "midi": 69,
      "hit": false,
      "t": 70447.9965,
      "d": 132.83035937500244,
      "v": 64
    },
    {
      "midi": 76,
      "hit": false,
      "t": 70447.99650000023,
      "d": 104.52224999999453,
      "v": 83
    },
    {
      "midi": 57,
      "hit": false,
      "t": 70552.51875000022,
      "d": 104.52224999999453,
      "v": 83
    },
    {
      "midi": 57,
      "hit": false,
      "t": 70657.041,
      "d": 132.83035937500244,
      "v": 64
    },
    {
      "midi": 77,
      "hit": false,
      "t": 70657.04100000022,
      "d": 104.52224999999453,
      "v": 83
    },
    {
      "midi": 57,
      "hit": false,
      "t": 70761.56325000021,
      "d": 104.52224999999453,
      "v": 83
    },
    {
      "midi": 69,
      "hit": false,
      "t": 70866.0855,
      "d": 132.83035937500244,
      "v": 64
    },
    {
      "midi": 79,
      "hit": false,
      "t": 70866.0855000002,
      "d": 104.52224999999453,
      "v": 83
    },
    {
      "midi": 57,
      "hit": false,
      "t": 70970.6077500002,
      "d": 104.52224999999453,
      "v": 83
    },
    {
      "midi": 57,
      "hit": false,
      "t": 71075.13,
      "d": 132.83035937500244,
      "v": 64
    },
    {
      "midi": 76,
      "hit": false,
      "t": 71075.1300000002,
      "d": 104.52224999999453,
      "v": 83
    },
    {
      "midi": 57,
      "hit": false,
      "t": 71179.65225000019,
      "d": 104.52224999999453,
      "v": 83
    },
    {
      "midi": 69,
      "hit": false,
      "t": 71284.17450000001,
      "d": 132.83035937500244,
      "v": 64
    },
    {
      "midi": 76,
      "hit": false,
      "t": 71284.17450000018,
      "d": 104.52224999999453,
      "v": 83
    },
    {
      "midi": 57,
      "hit": false,
      "t": 71388.69675000018,
      "d": 104.52224999999453,
      "v": 83
    },
    {
      "midi": 60,
      "hit": false,
      "t": 71493.21900000001,
      "d": 178.55884374999732,
      "v": 64
    },
    {
      "midi": 72,
      "hit": false,
      "t": 71493.21900000001,
      "d": 189.44657812500373,
      "v": 64
    },
    {
      "midi": 77,
      "hit": false,
      "t": 71493.21900000017,
      "d": 104.52224999999453,
      "v": 83
    },
    {
      "midi": 57,
      "hit": false,
      "t": 71597.74125000017,
      "d": 104.52224999999453,
      "v": 83
    },
    {
      "midi": 62,
      "hit": false,
      "t": 71702.26350000002,
      "d": 193.80167187500047,
      "v": 64
    },
    {
      "midi": 74,
      "hit": false,
      "t": 71702.26350000002,
      "d": 195.97921874999884,
      "v": 64
    },
    {
      "midi": 74,
      "hit": false,
      "t": 71702.26350000016,
      "d": 104.52224999999453,
      "v": 83
    },
    {
      "midi": 57,
      "hit": false,
      "t": 71806.78575000016,
      "d": 104.52224999999453,
      "v": 83
    },
    {
      "midi": 57,
      "hit": false,
      "t": 71911.30800000002,
      "d": 132.83035937500244,
      "v": 64
    },
    {
      "midi": 76,
      "hit": false,
      "t": 71911.30800000015,
      "d": 104.52224999999453,
      "v": 83
    },
    {
      "midi": 57,
      "hit": false,
      "t": 72015.83025000014,
      "d": 104.52224999999453,
      "v": 83
    },
    {
      "midi": 69,
      "hit": false,
      "t": 72120.35250000002,
      "d": 132.83035937500244,
      "v": 64
    },
    {
      "midi": 76,
      "hit": false,
      "t": 72120.35250000014,
      "d": 104.52224999999453,
      "v": 83
    },
    {
      "midi": 57,
      "hit": false,
      "t": 72224.87475000013,
      "d": 104.52224999999453,
      "v": 83
    },
    {
      "midi": 57,
      "hit": false,
      "t": 72329.39700000003,
      "d": 132.83035937500244,
      "v": 64
    },
    {
      "midi": 77,
      "hit": false,
      "t": 72329.39700000013,
      "d": 104.52224999999453,
      "v": 83
    },
    {
      "midi": 57,
      "hit": false,
      "t": 72433.91925000012,
      "d": 104.52224999999453,
      "v": 83
    },
    {
      "midi": 69,
      "hit": false,
      "t": 72538.44150000003,
      "d": 132.83035937500244,
      "v": 64
    },
    {
      "midi": 79,
      "hit": false,
      "t": 72538.44150000012,
      "d": 104.52224999999453,
      "v": 83
    },
    {
      "midi": 57,
      "hit": false,
      "t": 72642.96375000011,
      "d": 104.52224999999453,
      "v": 83
    },
    {
      "midi": 57,
      "hit": false,
      "t": 72747.48600000003,
      "d": 132.83035937500244,
      "v": 64
    },
    {
      "midi": 76,
      "hit": false,
      "t": 72747.4860000001,
      "d": 104.52224999999453,
      "v": 83
    },
    {
      "midi": 57,
      "hit": false,
      "t": 72852.0082500001,
      "d": 104.52224999999453,
      "v": 83
    },
    {
      "midi": 69,
      "hit": false,
      "t": 72956.53050000004,
      "d": 132.83035937500244,
      "v": 64
    },
    {
      "midi": 76,
      "hit": false,
      "t": 72956.5305000001,
      "d": 104.52224999999453,
      "v": 83
    },
    {
      "midi": 57,
      "hit": false,
      "t": 73061.05275000009,
      "d": 104.52224999999453,
      "v": 83
    },
    {
      "midi": 53,
      "hit": false,
      "t": 73165.57500000004,
      "d": 178.55884374999732,
      "v": 64
    },
    {
      "midi": 65,
      "hit": false,
      "t": 73165.57500000004,
      "d": 189.44657812500373,
      "v": 64
    },
    {
      "midi": 77,
      "hit": false,
      "t": 73165.57500000008,
      "d": 104.52224999999453,
      "v": 83
    },
    {
      "midi": 57,
      "hit": false,
      "t": 73270.09725000008,
      "d": 104.52224999999453,
      "v": 83
    },
    {
      "midi": 52,
      "hit": false,
      "t": 73374.61950000004,
      "d": 193.80167187500047,
      "v": 64
    },
    {
      "midi": 64,
      "hit": false,
      "t": 73374.61950000004,
      "d": 195.97921874999884,
      "v": 64
    },
    {
      "midi": 74,
      "hit": false,
      "t": 73374.61950000007,
      "d": 104.52224999999453,
      "v": 83
    },
    {
      "midi": 57,
      "hit": false,
      "t": 73479.14175000007,
      "d": 104.52224999999453,
      "v": 83
    },
    {
      "midi": 57,
      "hit": false,
      "t": 73583.66400000005,
      "d": 132.83035937500244,
      "v": 64
    },
    {
      "midi": 76,
      "hit": false,
      "t": 73583.66400000006,
      "d": 104.52224999999453,
      "v": 83
    },
    {
      "midi": 57,
      "hit": false,
      "t": 73688.18625000006,
      "d": 104.52224999999453,
      "v": 83
    },
    {
      "midi": 76,
      "hit": false,
      "t": 73792.70850000005,
      "d": 104.52224999999453,
      "v": 83
    },
    {
      "midi": 69,
      "hit": false,
      "t": 73792.70850000005,
      "d": 132.83035937500244,
      "v": 64
    },
    {
      "midi": 57,
      "hit": false,
      "t": 73897.23075000005,
      "d": 104.52224999999453,
      "v": 83
    },
    {
      "midi": 77,
      "hit": false,
      "t": 74001.75300000004,
      "d": 104.52224999999453,
      "v": 83
    },
    {
      "midi": 57,
      "hit": false,
      "t": 74001.75300000006,
      "d": 132.83035937500244,
      "v": 64
    },
    {
      "midi": 57,
      "hit": false,
      "t": 74106.27525000004,
      "d": 104.52224999999453,
      "v": 83
    },
    {
      "midi": 79,
      "hit": false,
      "t": 74210.79750000003,
      "d": 104.52224999999453,
      "v": 83
    },
    {
      "midi": 69,
      "hit": false,
      "t": 74210.79750000006,
      "d": 132.83035937500244,
      "v": 64
    },
    {
      "midi": 57,
      "hit": false,
      "t": 74315.31975000002,
      "d": 104.52224999999453,
      "v": 83
    },
    {
      "midi": 76,
      "hit": false,
      "t": 74419.84200000002,
      "d": 104.52224999999453,
      "v": 83
    },
    {
      "midi": 57,
      "hit": false,
      "t": 74419.84200000006,
      "d": 132.83035937500244,
      "v": 64
    },
    {
      "midi": 57,
      "hit": false,
      "t": 74524.36425000001,
      "d": 104.52224999999453,
      "v": 83
    },
    {
      "midi": 76,
      "hit": false,
      "t": 74628.88650000001,
      "d": 104.52224999999453,
      "v": 83
    },
    {
      "midi": 69,
      "hit": false,
      "t": 74628.88650000007,
      "d": 132.83035937500244,
      "v": 64
    },
    {
      "midi": 57,
      "hit": false,
      "t": 74733.40875,
      "d": 104.52224999999453,
      "v": 83
    },
    {
      "midi": 77,
      "hit": false,
      "t": 74837.931,
      "d": 104.52224999999453,
      "v": 83
    },
    {
      "midi": 60,
      "hit": false,
      "t": 74837.93100000007,
      "d": 178.55884374999732,
      "v": 64
    },
    {
      "midi": 72,
      "hit": false,
      "t": 74837.93100000007,
      "d": 189.44657812500373,
      "v": 64
    },
    {
      "midi": 57,
      "hit": false,
      "t": 74942.45324999999,
      "d": 104.52224999999453,
      "v": 83
    },
    {
      "midi": 74,
      "hit": false,
      "t": 75046.97549999999,
      "d": 104.52224999999453,
      "v": 83
    },
    {
      "midi": 62,
      "hit": false,
      "t": 75046.97550000007,
      "d": 193.80167187500047,
      "v": 64
    },
    {
      "midi": 74,
      "hit": false,
      "t": 75046.97550000007,
      "d": 195.97921874999884,
      "v": 64
    },
    {
      "midi": 57,
      "hit": false,
      "t": 75151.49774999998,
      "d": 104.52224999999453,
      "v": 83
    },
    {
      "midi": 76,
      "hit": false,
      "t": 75256.01999999997,
      "d": 104.52224999999453,
      "v": 83
    },
    {
      "midi": 57,
      "hit": false,
      "t": 75256.02000000008,
      "d": 132.83035937500244,
      "v": 64
    },
    {
      "midi": 57,
      "hit": false,
      "t": 75360.54224999997,
      "d": 104.52224999999453,
      "v": 83
    },
    {
      "midi": 72,
      "hit": false,
      "t": 75465.06449999996,
      "d": 104.52224999999453,
      "v": 83
    },
    {
      "midi": 69,
      "hit": false,
      "t": 75465.06450000008,
      "d": 132.83035937500244,
      "v": 64
    },
    {
      "midi": 57,
      "hit": false,
      "t": 75569.58674999996,
      "d": 104.52224999999453,
      "v": 83
    },
    {
      "midi": 74,
      "hit": false,
      "t": 75674.10899999995,
      "d": 104.52224999999453,
      "v": 83
    },
    {
      "midi": 57,
      "hit": false,
      "t": 75674.10900000008,
      "d": 132.83035937500244,
      "v": 64
    },
    {
      "midi": 57,
      "hit": false,
      "t": 75778.63124999995,
      "d": 104.52224999999453,
      "v": 83
    },
    {
      "midi": 71,
      "hit": false,
      "t": 75883.15349999994,
      "d": 104.52224999999453,
      "v": 83
    },
    {
      "midi": 69,
      "hit": false,
      "t": 75883.15350000009,
      "d": 132.83035937500244,
      "v": 64
    },
    {
      "midi": 57,
      "hit": false,
      "t": 75987.67574999994,
      "d": 104.52224999999453,
      "v": 83
    },
    {
      "midi": 72,
      "hit": false,
      "t": 76092.19799999993,
      "d": 104.52224999999453,
      "v": 83
    },
    {
      "midi": 57,
      "hit": false,
      "t": 76092.19800000009,
      "d": 132.83035937500244,
      "v": 64
    },
    {
      "midi": 57,
      "hit": false,
      "t": 76196.72024999993,
      "d": 104.52224999999453,
      "v": 83
    },
    {
      "midi": 69,
      "hit": false,
      "t": 76301.24249999992,
      "d": 104.52224999999453,
      "v": 83
    },
    {
      "midi": 69,
      "hit": false,
      "t": 76301.2425000001,
      "d": 132.83035937500244,
      "v": 64
    },
    {
      "midi": 57,
      "hit": false,
      "t": 76405.76474999991,
      "d": 104.52224999999453,
      "v": 83
    },
    {
      "midi": 71,
      "hit": false,
      "t": 76510.28699999991,
      "d": 104.52224999999453,
      "v": 83
    },
    {
      "midi": 53,
      "hit": false,
      "t": 76510.2870000001,
      "d": 178.55884374999732,
      "v": 64
    },
    {
      "midi": 65,
      "hit": false,
      "t": 76510.2870000001,
      "d": 189.44657812500373,
      "v": 64
    },
    {
      "midi": 57,
      "hit": false,
      "t": 76614.8092499999,
      "d": 104.52224999999453,
      "v": 83
    },
    {
      "midi": 68,
      "hit": false,
      "t": 76719.3314999999,
      "d": 104.52224999999453,
      "v": 83
    },
    {
      "midi": 52,
      "hit": false,
      "t": 76719.3315000001,
      "d": 193.80167187500047,
      "v": 64
    },
    {
      "midi": 64,
      "hit": false,
      "t": 76719.3315000001,
      "d": 195.97921874999884,
      "v": 64
    },
    {
      "midi": 57,
      "hit": false,
      "t": 76823.8537499999,
      "d": 104.52224999999453,
      "v": 83
    },
    {
      "midi": 69,
      "hit": false,
      "t": 76928.37599999989,
      "d": 104.52224999999453,
      "v": 83
    },
    {
      "midi": 57,
      "hit": false,
      "t": 76928.3760000001,
      "d": 132.83035937500244,
      "v": 64
    },
    {
      "midi": 57,
      "hit": false,
      "t": 77032.89824999988,
      "d": 104.52224999999453,
      "v": 83
    },
    {
      "midi": 76,
      "hit": false,
      "t": 77137.42049999988,
      "d": 104.52224999999453,
      "v": 83
    },
    {
      "midi": 69,
      "hit": false,
      "t": 77137.42050000011,
      "d": 132.83035937500244,
      "v": 64
    },
    {
      "midi": 57,
      "hit": false,
      "t": 77241.94274999987,
      "d": 104.52224999999453,
      "v": 83
    },
    {
      "midi": 77,
      "hit": false,
      "t": 77346.46499999987,
      "d": 104.52224999999453,
      "v": 83
    },
    {
      "midi": 57,
      "hit": false,
      "t": 77346.46500000011,
      "d": 132.83035937500244,
      "v": 64
    },
    {
      "midi": 57,
      "hit": false,
      "t": 77450.98724999986,
      "d": 104.52224999999453,
      "v": 83
    },
    {
      "midi": 79,
      "hit": false,
      "t": 77555.50949999985,
      "d": 104.52224999999453,
      "v": 83
    },
    {
      "midi": 69,
      "hit": false,
      "t": 77555.50950000012,
      "d": 132.83035937500244,
      "v": 64
    },
    {
      "midi": 57,
      "hit": false,
      "t": 77660.03174999985,
      "d": 104.52224999999453,
      "v": 83
    },
    {
      "midi": 76,
      "hit": false,
      "t": 77764.55399999984,
      "d": 104.52224999999453,
      "v": 83
    },
    {
      "midi": 57,
      "hit": false,
      "t": 77764.55400000012,
      "d": 132.83035937500244,
      "v": 64
    },
    {
      "midi": 57,
      "hit": false,
      "t": 77869.07624999984,
      "d": 104.52224999999453,
      "v": 83
    },
    {
      "midi": 76,
      "hit": false,
      "t": 77973.59849999983,
      "d": 104.52224999999453,
      "v": 83
    },
    {
      "midi": 69,
      "hit": false,
      "t": 77973.59850000012,
      "d": 132.83035937500244,
      "v": 64
    },
    {
      "midi": 57,
      "hit": false,
      "t": 78078.12074999983,
      "d": 104.52224999999453,
      "v": 83
    },
    {
      "midi": 77,
      "hit": false,
      "t": 78182.64299999982,
      "d": 104.52224999999453,
      "v": 83
    },
    {
      "midi": 60,
      "hit": false,
      "t": 78182.64300000013,
      "d": 178.55884374999732,
      "v": 64
    },
    {
      "midi": 72,
      "hit": false,
      "t": 78182.64300000013,
      "d": 189.44657812500373,
      "v": 64
    },
    {
      "midi": 57,
      "hit": false,
      "t": 78287.16524999982,
      "d": 104.52224999999453,
      "v": 83
    },
    {
      "midi": 74,
      "hit": false,
      "t": 78391.68749999981,
      "d": 104.52224999999453,
      "v": 83
    },
    {
      "midi": 62,
      "hit": false,
      "t": 78391.68750000013,
      "d": 193.80167187500047,
      "v": 64
    },
    {
      "midi": 74,
      "hit": false,
      "t": 78391.68750000013,
      "d": 195.97921874999884,
      "v": 64
    },
    {
      "midi": 57,
      "hit": false,
      "t": 78496.2097499998,
      "d": 104.52224999999453,
      "v": 83
    },
    {
      "midi": 76,
      "hit": false,
      "t": 78600.7319999998,
      "d": 104.52224999999453,
      "v": 83
    },
    {
      "midi": 57,
      "hit": false,
      "t": 78600.73200000013,
      "d": 132.83035937500244,
      "v": 64
    },
    {
      "midi": 57,
      "hit": false,
      "t": 78705.2542499998,
      "d": 104.52224999999453,
      "v": 83
    },
    {
      "midi": 76,
      "hit": false,
      "t": 78809.77649999979,
      "d": 104.52224999999453,
      "v": 83
    },
    {
      "midi": 69,
      "hit": false,
      "t": 78809.77650000014,
      "d": 132.83035937500244,
      "v": 64
    },
    {
      "midi": 57,
      "hit": false,
      "t": 78914.29874999978,
      "d": 104.52224999999453,
      "v": 83
    },
    {
      "midi": 77,
      "hit": false,
      "t": 79018.82099999978,
      "d": 104.52224999999453,
      "v": 83
    },
    {
      "midi": 57,
      "hit": false,
      "t": 79018.82100000014,
      "d": 132.83035937500244,
      "v": 64
    },
    {
      "midi": 57,
      "hit": false,
      "t": 79123.34324999977,
      "d": 104.52224999999453,
      "v": 83
    },
    {
      "midi": 79,
      "hit": false,
      "t": 79227.86549999977,
      "d": 104.52224999999453,
      "v": 83
    },
    {
      "midi": 69,
      "hit": false,
      "t": 79227.86550000015,
      "d": 132.83035937500244,
      "v": 64
    },
    {
      "midi": 57,
      "hit": false,
      "t": 79332.38774999976,
      "d": 104.52224999999453,
      "v": 83
    },
    {
      "midi": 76,
      "hit": false,
      "t": 79436.90999999976,
      "d": 104.52224999999453,
      "v": 83
    },
    {
      "midi": 57,
      "hit": false,
      "t": 79436.91000000015,
      "d": 132.83035937500244,
      "v": 64
    },
    {
      "midi": 57,
      "hit": false,
      "t": 79541.43224999975,
      "d": 104.52224999999453,
      "v": 83
    },
    {
      "midi": 76,
      "hit": false,
      "t": 79645.95449999975,
      "d": 104.52224999999453,
      "v": 83
    },
    {
      "midi": 69,
      "hit": false,
      "t": 79645.95450000015,
      "d": 132.83035937500244,
      "v": 64
    },
    {
      "midi": 57,
      "hit": false,
      "t": 79750.47674999974,
      "d": 104.52224999999453,
      "v": 83
    },
    {
      "midi": 77,
      "hit": false,
      "t": 79854.99899999973,
      "d": 104.52224999999453,
      "v": 83
    },
    {
      "midi": 53,
      "hit": false,
      "t": 79854.99900000016,
      "d": 178.55884374999732,
      "v": 64
    },
    {
      "midi": 65,
      "hit": false,
      "t": 79854.99900000016,
      "d": 189.44657812500373,
      "v": 64
    },
    {
      "midi": 57,
      "hit": false,
      "t": 79959.52124999973,
      "d": 104.52224999999453,
      "v": 83
    },
    {
      "midi": 74,
      "hit": false,
      "t": 80064.04349999972,
      "d": 104.52224999999453,
      "v": 83
    },
    {
      "midi": 52,
      "hit": false,
      "t": 80064.04350000016,
      "d": 193.80167187500047,
      "v": 64
    },
    {
      "midi": 64,
      "hit": false,
      "t": 80064.04350000016,
      "d": 195.97921874999884,
      "v": 64
    },
    {
      "midi": 57,
      "hit": false,
      "t": 80168.56574999972,
      "d": 104.52224999999453,
      "v": 83
    },
    {
      "midi": 76,
      "hit": false,
      "t": 80273.08799999971,
      "d": 104.52224999999453,
      "v": 83
    },
    {
      "midi": 57,
      "hit": false,
      "t": 80273.08800000016,
      "d": 132.83035937500244,
      "v": 64
    },
    {
      "midi": 57,
      "hit": false,
      "t": 80377.6102499997,
      "d": 104.52224999999453,
      "v": 83
    },
    {
      "midi": 76,
      "hit": false,
      "t": 80482.1324999997,
      "d": 104.52224999999453,
      "v": 83
    },
    {
      "midi": 69,
      "hit": false,
      "t": 80482.13250000017,
      "d": 132.83035937500244,
      "v": 64
    },
    {
      "midi": 57,
      "hit": false,
      "t": 80586.6547499997,
      "d": 104.52224999999453,
      "v": 83
    },
    {
      "midi": 77,
      "hit": false,
      "t": 80691.17699999969,
      "d": 104.52224999999453,
      "v": 83
    },
    {
      "midi": 57,
      "hit": false,
      "t": 80691.17700000017,
      "d": 132.83035937500244,
      "v": 64
    },
    {
      "midi": 57,
      "hit": false,
      "t": 80795.69924999968,
      "d": 104.52224999999453,
      "v": 83
    },
    {
      "midi": 79,
      "hit": false,
      "t": 80900.22149999968,
      "d": 104.52224999999453,
      "v": 83
    },
    {
      "midi": 69,
      "hit": false,
      "t": 80900.22150000017,
      "d": 132.83035937500244,
      "v": 64
    },
    {
      "midi": 57,
      "hit": false,
      "t": 81004.74374999967,
      "d": 104.52224999999453,
      "v": 83
    },
    {
      "midi": 76,
      "hit": false,
      "t": 81109.26599999967,
      "d": 104.52224999999453,
      "v": 83
    },
    {
      "midi": 57,
      "hit": false,
      "t": 81109.26600000018,
      "d": 132.83035937500244,
      "v": 64
    },
    {
      "midi": 57,
      "hit": false,
      "t": 81213.78824999966,
      "d": 104.52224999999453,
      "v": 83
    },
    {
      "midi": 76,
      "hit": false,
      "t": 81318.31049999966,
      "d": 104.52224999999453,
      "v": 83
    },
    {
      "midi": 69,
      "hit": false,
      "t": 81318.31050000018,
      "d": 132.83035937500244,
      "v": 64
    },
    {
      "midi": 57,
      "hit": false,
      "t": 81422.83274999965,
      "d": 104.52224999999453,
      "v": 83
    },
    {
      "midi": 77,
      "hit": false,
      "t": 81527.35499999965,
      "d": 104.52224999999453,
      "v": 83
    },
    {
      "midi": 60,
      "hit": false,
      "t": 81527.35500000019,
      "d": 178.55884374999732,
      "v": 64
    },
    {
      "midi": 72,
      "hit": false,
      "t": 81527.35500000019,
      "d": 189.44657812500373,
      "v": 64
    },
    {
      "midi": 57,
      "hit": false,
      "t": 81631.87724999964,
      "d": 104.52224999999453,
      "v": 83
    },
    {
      "midi": 74,
      "hit": false,
      "t": 81736.39949999964,
      "d": 104.52224999999453,
      "v": 83
    },
    {
      "midi": 62,
      "hit": false,
      "t": 81736.39950000019,
      "d": 193.80167187500047,
      "v": 64
    },
    {
      "midi": 74,
      "hit": false,
      "t": 81736.39950000019,
      "d": 195.97921874999884,
      "v": 64
    },
    {
      "midi": 57,
      "hit": false,
      "t": 81840.92174999963,
      "d": 104.52224999999453,
      "v": 83
    },
    {
      "midi": 76,
      "hit": false,
      "t": 81945.44399999962,
      "d": 104.52224999999453,
      "v": 83
    },
    {
      "midi": 57,
      "hit": false,
      "t": 81945.44400000019,
      "d": 132.83035937500244,
      "v": 64
    },
    {
      "midi": 57,
      "hit": false,
      "t": 82049.96624999962,
      "d": 104.52224999999453,
      "v": 83
    },
    {
      "midi": 72,
      "hit": false,
      "t": 82154.48849999961,
      "d": 104.52224999999453,
      "v": 83
    },
    {
      "midi": 69,
      "hit": false,
      "t": 82154.4885000002,
      "d": 132.83035937500244,
      "v": 64
    },
    {
      "midi": 57,
      "hit": false,
      "t": 82259.01074999961,
      "d": 104.52224999999453,
      "v": 83
    },
    {
      "midi": 74,
      "hit": false,
      "t": 82363.5329999996,
      "d": 104.52224999999453,
      "v": 83
    },
    {
      "midi": 57,
      "hit": false,
      "t": 82363.5330000002,
      "d": 132.83035937500244,
      "v": 64
    },
    {
      "midi": 57,
      "hit": false,
      "t": 82468.0552499996,
      "d": 104.52224999999453,
      "v": 83
    },
    {
      "midi": 71,
      "hit": false,
      "t": 82572.57749999959,
      "d": 104.52224999999453,
      "v": 83
    },
    {
      "midi": 69,
      "hit": false,
      "t": 82572.5775000002,
      "d": 132.83035937500244,
      "v": 64
    },
    {
      "midi": 57,
      "hit": false,
      "t": 82677.09974999959,
      "d": 104.52224999999453,
      "v": 83
    },
    {
      "midi": 72,
      "hit": false,
      "t": 82781.62199999958,
      "d": 104.52224999999453,
      "v": 83
    },
    {
      "midi": 57,
      "hit": false,
      "t": 82781.6220000002,
      "d": 132.83035937500244,
      "v": 64
    },
    {
      "midi": 57,
      "hit": false,
      "t": 82886.14424999958,
      "d": 104.52224999999453,
      "v": 83
    },
    {
      "midi": 69,
      "hit": false,
      "t": 82990.66649999957,
      "d": 104.52224999999453,
      "v": 83
    },
    {
      "midi": 69,
      "hit": false,
      "t": 82990.66650000021,
      "d": 132.83035937500244,
      "v": 64
    },
    {
      "midi": 57,
      "hit": false,
      "t": 83095.18874999956,
      "d": 104.52224999999453,
      "v": 83
    },
    {
      "midi": 71,
      "hit": false,
      "t": 83199.71099999956,
      "d": 104.52224999999453,
      "v": 83
    },
    {
      "midi": 53,
      "hit": false,
      "t": 83199.71100000021,
      "d": 178.55884374999732,
      "v": 64
    },
    {
      "midi": 65,
      "hit": false,
      "t": 83199.71100000021,
      "d": 189.44657812500373,
      "v": 64
    },
    {
      "midi": 57,
      "hit": false,
      "t": 83304.23324999955,
      "d": 104.52224999999453,
      "v": 83
    },
    {
      "midi": 68,
      "hit": false,
      "t": 83408.75549999955,
      "d": 104.52224999999453,
      "v": 83
    },
    {
      "midi": 52,
      "hit": false,
      "t": 83408.75550000022,
      "d": 193.80167187500047,
      "v": 64
    },
    {
      "midi": 64,
      "hit": false,
      "t": 83408.75550000022,
      "d": 195.97921874999884,
      "v": 64
    },
    {
      "midi": 57,
      "hit": false,
      "t": 83513.27774999954,
      "d": 104.52224999999453,
      "v": 83
    },
    {
      "midi": 69,
      "hit": false,
      "t": 150512.03999999954,
      "d": 104.52225000000908,
      "v": 83
    },
    {
      "midi": 57,
      "hit": false,
      "t": 150616.56224999955,
      "d": 104.52225000000908,
      "v": 83
    },
    {
      "midi": 76,
      "hit": false,
      "t": 150721.08449999956,
      "d": 104.52225000000908,
      "v": 83
    },
    {
      "midi": 57,
      "hit": false,
      "t": 150825.60674999957,
      "d": 104.52225000000908,
      "v": 83
    },
    {
      "midi": 77,
      "hit": false,
      "t": 150930.12899999958,
      "d": 104.52225000000908,
      "v": 83
    },
    {
      "midi": 57,
      "hit": false,
      "t": 151034.6512499996,
      "d": 104.52225000000908,
      "v": 83
    },
    {
      "midi": 79,
      "hit": false,
      "t": 151139.1734999996,
      "d": 104.52225000000908,
      "v": 83
    },
    {
      "midi": 57,
      "hit": false,
      "t": 151243.6957499996,
      "d": 104.52225000000908,
      "v": 83
    },
    {
      "midi": 76,
      "hit": false,
      "t": 151348.21799999962,
      "d": 104.52225000000908,
      "v": 83
    },
    {
      "midi": 57,
      "hit": false,
      "t": 151452.74024999962,
      "d": 104.52225000000908,
      "v": 83
    },
    {
      "midi": 76,
      "hit": false,
      "t": 151557.26249999963,
      "d": 104.52225000000908,
      "v": 83
    },
    {
      "midi": 57,
      "hit": false,
      "t": 151661.78474999964,
      "d": 104.52225000000908,
      "v": 83
    },
    {
      "midi": 77,
      "hit": false,
      "t": 151766.30699999965,
      "d": 104.52225000000908,
      "v": 83
    },
    {
      "midi": 57,
      "hit": false,
      "t": 151870.82924999966,
      "d": 104.52225000000908,
      "v": 83
    },
    {
      "midi": 74,
      "hit": false,
      "t": 151975.35149999967,
      "d": 104.52225000000908,
      "v": 83
    },
    {
      "midi": 57,
      "hit": false,
      "t": 152079.87374999968,
      "d": 104.52225000000908,
      "v": 83
    },
    {
      "midi": 76,
      "hit": false,
      "t": 152184.3959999997,
      "d": 104.52225000000908,
      "v": 83
    },
    {
      "midi": 57,
      "hit": false,
      "t": 152288.9182499997,
      "d": 104.52225000000908,
      "v": 83
    },
    {
      "midi": 76,
      "hit": false,
      "t": 152393.4404999997,
      "d": 104.52225000000908,
      "v": 83
    },
    {
      "midi": 57,
      "hit": false,
      "t": 152497.96274999972,
      "d": 104.52225000000908,
      "v": 83
    },
    {
      "midi": 77,
      "hit": false,
      "t": 152602.48499999972,
      "d": 104.52225000000908,
      "v": 83
    },
    {
      "midi": 57,
      "hit": false,
      "t": 152707.00724999973,
      "d": 104.52225000000908,
      "v": 83
    },
    {
      "midi": 79,
      "hit": false,
      "t": 152811.52949999974,
      "d": 104.52225000000908,
      "v": 83
    },
    {
      "midi": 57,
      "hit": false,
      "t": 152916.05174999975,
      "d": 104.52225000000908,
      "v": 83
    },
    {
      "midi": 76,
      "hit": false,
      "t": 153020.57399999976,
      "d": 104.52225000000908,
      "v": 83
    },
    {
      "midi": 57,
      "hit": false,
      "t": 153125.09624999977,
      "d": 104.52225000000908,
      "v": 83
    },
    {
      "midi": 76,
      "hit": false,
      "t": 153229.61849999978,
      "d": 104.52225000000908,
      "v": 83
    },
    {
      "midi": 57,
      "hit": false,
      "t": 153334.1407499998,
      "d": 104.52225000000908,
      "v": 83
    },
    {
      "midi": 77,
      "hit": false,
      "t": 153438.6629999998,
      "d": 104.52225000000908,
      "v": 83
    },
    {
      "midi": 57,
      "hit": false,
      "t": 153543.1852499998,
      "d": 104.52225000000908,
      "v": 83
    },
    {
      "midi": 74,
      "hit": false,
      "t": 153647.70749999981,
      "d": 104.52225000000908,
      "v": 83
    },
    {
      "midi": 57,
      "hit": false,
      "t": 153752.22974999982,
      "d": 104.52225000000908,
      "v": 83
    },
    {
      "midi": 76,
      "hit": false,
      "t": 153856.75199999983,
      "d": 104.52225000000908,
      "v": 83
    },
    {
      "midi": 57,
      "hit": false,
      "t": 153961.27424999984,
      "d": 104.52225000000908,
      "v": 83
    },
    {
      "midi": 76,
      "hit": false,
      "t": 154065.79649999985,
      "d": 104.52225000000908,
      "v": 83
    },
    {
      "midi": 57,
      "hit": false,
      "t": 154170.31874999986,
      "d": 104.52225000000908,
      "v": 83
    },
    {
      "midi": 77,
      "hit": false,
      "t": 154274.84099999987,
      "d": 104.52225000000908,
      "v": 83
    },
    {
      "midi": 57,
      "hit": false,
      "t": 154379.36324999988,
      "d": 104.52225000000908,
      "v": 83
    },
    {
      "midi": 79,
      "hit": false,
      "t": 154483.8854999999,
      "d": 104.52225000000908,
      "v": 83
    },
    {
      "midi": 57,
      "hit": false,
      "t": 154588.4077499999,
      "d": 104.52225000000908,
      "v": 83
    },
    {
      "midi": 76,
      "hit": false,
      "t": 154692.9299999999,
      "d": 104.52225000000908,
      "v": 83
    },
    {
      "midi": 57,
      "hit": false,
      "t": 154797.45224999991,
      "d": 104.52225000000908,
      "v": 83
    },
    {
      "midi": 76,
      "hit": false,
      "t": 154901.97449999992,
      "d": 104.52225000000908,
      "v": 83
    },
    {
      "midi": 57,
      "hit": false,
      "t": 155006.49674999993,
      "d": 104.52225000000908,
      "v": 83
    },
    {
      "midi": 77,
      "hit": false,
      "t": 155111.01899999994,
      "d": 104.52225000000908,
      "v": 83
    },
    {
      "midi": 57,
      "hit": false,
      "t": 155215.54124999995,
      "d": 104.52225000000908,
      "v": 83
    },
    {
      "midi": 74,
      "hit": false,
      "t": 155320.06349999996,
      "d": 104.52225000000908,
      "v": 83
    },
    {
      "midi": 57,
      "hit": false,
      "t": 155424.58574999997,
      "d": 104.52225000000908,
      "v": 83
    },
    {
      "midi": 76,
      "hit": false,
      "t": 155529.10799999998,
      "d": 104.52225000000908,
      "v": 83
    },
    {
      "midi": 57,
      "hit": false,
      "t": 155633.63025,
      "d": 104.52225000000908,
      "v": 83
    },
    {
      "midi": 72,
      "hit": false,
      "t": 155738.1525,
      "d": 104.52225000000908,
      "v": 83
    },
    {
      "midi": 57,
      "hit": false,
      "t": 155842.67475,
      "d": 104.52225000000908,
      "v": 83
    },
    {
      "midi": 74,
      "hit": false,
      "t": 155947.19700000001,
      "d": 104.52225000000908,
      "v": 83
    },
    {
      "midi": 57,
      "hit": false,
      "t": 156051.71925000002,
      "d": 104.52225000000908,
      "v": 83
    },
    {
      "midi": 71,
      "hit": false,
      "t": 156156.24150000003,
      "d": 104.52225000000908,
      "v": 83
    },
    {
      "midi": 57,
      "hit": false,
      "t": 156260.76375000004,
      "d": 104.52225000000908,
      "v": 83
    },
    {
      "midi": 72,
      "hit": false,
      "t": 156365.28600000005,
      "d": 104.52225000000908,
      "v": 83
    },
    {
      "midi": 57,
      "hit": false,
      "t": 156469.80825000006,
      "d": 104.52225000000908,
      "v": 83
    },
    {
      "midi": 69,
      "hit": false,
      "t": 156574.33050000007,
      "d": 104.52225000000908,
      "v": 83
    },
    {
      "midi": 57,
      "hit": false,
      "t": 156678.85275000008,
      "d": 104.52225000000908,
      "v": 83
    },
    {
      "midi": 71,
      "hit": false,
      "t": 156783.3750000001,
      "d": 104.52225000000908,
      "v": 83
    },
    {
      "midi": 57,
      "hit": false,
      "t": 156887.8972500001,
      "d": 104.52225000000908,
      "v": 83
    },
    {
      "midi": 68,
      "hit": false,
      "t": 156992.4195000001,
      "d": 104.52225000000908,
      "v": 83
    },
    {
      "midi": 57,
      "hit": false,
      "t": 157096.94175000011,
      "d": 104.52225000000908,
      "v": 83
    },
    {
      "midi": 69,
      "hit": false,
      "t": 157201.46400000012,
      "d": 104.52225000000908,
      "v": 83
    },
    {
      "midi": 57,
      "hit": false,
      "t": 157305.98625000013,
      "d": 104.52225000000908,
      "v": 83
    },
    {
      "midi": 76,
      "hit": false,
      "t": 157410.50850000014,
      "d": 104.52225000000908,
      "v": 83
    },
    {
      "midi": 57,
      "hit": false,
      "t": 157515.03075000015,
      "d": 104.52225000000908,
      "v": 83
    },
    {
      "midi": 77,
      "hit": false,
      "t": 157619.55300000016,
      "d": 104.52225000000908,
      "v": 83
    },
    {
      "midi": 57,
      "hit": false,
      "t": 157724.07525000017,
      "d": 104.52225000000908,
      "v": 83
    },
    {
      "midi": 79,
      "hit": false,
      "t": 157828.59750000018,
      "d": 104.52225000000908,
      "v": 83
    },
    {
      "midi": 57,
      "hit": false,
      "t": 157933.1197500002,
      "d": 104.52225000000908,
      "v": 83
    },
    {
      "midi": 76,
      "hit": false,
      "t": 158037.6420000002,
      "d": 104.52225000000908,
      "v": 83
    },
    {
      "midi": 57,
      "hit": false,
      "t": 158142.1642500002,
      "d": 104.52225000000908,
      "v": 83
    },
    {
      "midi": 76,
      "hit": false,
      "t": 158246.6865000002,
      "d": 104.52225000000908,
      "v": 83
    },
    {
      "midi": 57,
      "hit": false,
      "t": 158351.20875000022,
      "d": 104.52225000000908,
      "v": 83
    },
    {
      "midi": 77,
      "hit": false,
      "t": 158455.73100000023,
      "d": 104.52225000000908,
      "v": 83
    },
    {
      "midi": 57,
      "hit": false,
      "t": 158560.25325000024,
      "d": 104.52225000000908,
      "v": 83
    },
    {
      "midi": 74,
      "hit": false,
      "t": 158664.77550000025,
      "d": 104.52225000000908,
      "v": 83
    },
    {
      "midi": 57,
      "hit": false,
      "t": 158769.29775000026,
      "d": 104.52225000000908,
      "v": 83
    },
    {
      "midi": 76,
      "hit": false,
      "t": 158873.82000000027,
      "d": 104.52225000000908,
      "v": 83
    },
    {
      "midi": 57,
      "hit": false,
      "t": 158978.34225000028,
      "d": 104.52225000000908,
      "v": 83
    },
    {
      "midi": 76,
      "hit": false,
      "t": 159082.8645000003,
      "d": 104.52225000000908,
      "v": 83
    },
    {
      "midi": 57,
      "hit": false,
      "t": 159187.3867500003,
      "d": 104.52225000000908,
      "v": 83
    },
    {
      "midi": 77,
      "hit": false,
      "t": 159291.9090000003,
      "d": 104.52225000000908,
      "v": 83
    },
    {
      "midi": 57,
      "hit": false,
      "t": 159396.4312500003,
      "d": 104.52225000000908,
      "v": 83
    },
    {
      "midi": 79,
      "hit": false,
      "t": 159500.95350000032,
      "d": 104.52225000000908,
      "v": 83
    },
    {
      "midi": 57,
      "hit": false,
      "t": 159605.47575000033,
      "d": 104.52225000000908,
      "v": 83
    },
    {
      "midi": 76,
      "hit": false,
      "t": 159709.99800000034,
      "d": 104.52225000000908,
      "v": 83
    },
    {
      "midi": 57,
      "hit": false,
      "t": 159814.52025000035,
      "d": 104.52225000000908,
      "v": 83
    },
    {
      "midi": 76,
      "hit": false,
      "t": 159919.04250000036,
      "d": 104.52225000000908,
      "v": 83
    },
    {
      "midi": 57,
      "hit": false,
      "t": 160023.56475000037,
      "d": 104.52225000000908,
      "v": 83
    },
    {
      "midi": 77,
      "hit": false,
      "t": 160128.08700000038,
      "d": 104.52225000000908,
      "v": 83
    },
    {
      "midi": 57,
      "hit": false,
      "t": 160232.6092500004,
      "d": 104.52225000000908,
      "v": 83
    },
    {
      "midi": 74,
      "hit": false,
      "t": 160337.1315000004,
      "d": 104.52225000000908,
      "v": 83
    },
    {
      "midi": 57,
      "hit": false,
      "t": 160441.6537500004,
      "d": 104.52225000000908,
      "v": 83
    },
    {
      "midi": 76,
      "hit": false,
      "t": 160546.1760000004,
      "d": 104.52225000000908,
      "v": 83
    },
    {
      "midi": 57,
      "hit": false,
      "t": 160650.69825000042,
      "d": 104.52225000000908,
      "v": 83
    },
    {
      "midi": 76,
      "hit": false,
      "t": 160755.22050000043,
      "d": 104.52225000000908,
      "v": 83
    },
    {
      "midi": 57,
      "hit": false,
      "t": 160859.74275000044,
      "d": 104.52225000000908,
      "v": 83
    },
    {
      "midi": 77,
      "hit": false,
      "t": 160964.26500000045,
      "d": 104.52225000000908,
      "v": 83
    },
    {
      "midi": 57,
      "hit": false,
      "t": 161068.78725000046,
      "d": 104.52225000000908,
      "v": 83
    },
    {
      "midi": 79,
      "hit": false,
      "t": 161173.30950000047,
      "d": 104.52225000000908,
      "v": 83
    },
    {
      "midi": 57,
      "hit": false,
      "t": 161277.83175000048,
      "d": 104.52225000000908,
      "v": 83
    },
    {
      "midi": 76,
      "hit": false,
      "t": 161382.3540000005,
      "d": 104.52225000000908,
      "v": 83
    },
    {
      "midi": 57,
      "hit": false,
      "t": 161486.8762500005,
      "d": 104.52225000000908,
      "v": 83
    },
    {
      "midi": 76,
      "hit": false,
      "t": 161591.3985000005,
      "d": 104.52225000000908,
      "v": 83
    },
    {
      "midi": 57,
      "hit": false,
      "t": 161695.9207500005,
      "d": 104.52225000000908,
      "v": 83
    },
    {
      "midi": 77,
      "hit": false,
      "t": 161800.44300000052,
      "d": 104.52225000000908,
      "v": 83
    },
    {
      "midi": 57,
      "hit": false,
      "t": 161904.96525000053,
      "d": 104.52225000000908,
      "v": 83
    },
    {
      "midi": 74,
      "hit": false,
      "t": 162009.48750000054,
      "d": 104.52225000000908,
      "v": 83
    },
    {
      "midi": 57,
      "hit": false,
      "t": 162114.00975000055,
      "d": 104.52225000000908,
      "v": 83
    },
    {
      "midi": 76,
      "hit": false,
      "t": 162218.53200000056,
      "d": 104.52225000000908,
      "v": 83
    },
    {
      "midi": 57,
      "hit": false,
      "t": 162323.05425000057,
      "d": 104.52225000000908,
      "v": 83
    },
    {
      "midi": 72,
      "hit": false,
      "t": 162427.57650000058,
      "d": 104.52225000000908,
      "v": 83
    },
    {
      "midi": 57,
      "hit": false,
      "t": 162532.0987500006,
      "d": 104.52225000000908,
      "v": 83
    },
    {
      "midi": 74,
      "hit": false,
      "t": 162636.6210000006,
      "d": 104.52225000000908,
      "v": 83
    },
    {
      "midi": 57,
      "hit": false,
      "t": 162741.1432500006,
      "d": 104.52225000000908,
      "v": 83
    },
    {
      "midi": 71,
      "hit": false,
      "t": 162845.6655000006,
      "d": 104.52225000000908,
      "v": 83
    },
    {
      "midi": 57,
      "hit": false,
      "t": 162950.18775000062,
      "d": 104.52225000000908,
      "v": 83
    },
    {
      "midi": 72,
      "hit": false,
      "t": 163054.71000000063,
      "d": 104.52225000000908,
      "v": 83
    },
    {
      "midi": 57,
      "hit": false,
      "t": 163159.23225000064,
      "d": 104.52225000000908,
      "v": 83
    },
    {
      "midi": 69,
      "hit": false,
      "t": 163263.75450000065,
      "d": 104.52225000000908,
      "v": 83
    },
    {
      "midi": 57,
      "hit": false,
      "t": 163368.27675000066,
      "d": 104.52225000000908,
      "v": 83
    },
    {
      "midi": 71,
      "hit": false,
      "t": 163472.79900000067,
      "d": 104.52225000000908,
      "v": 83
    },
    {
      "midi": 57,
      "hit": false,
      "t": 163577.32125000068,
      "d": 104.52225000000908,
      "v": 83
    },
    {
      "midi": 68,
      "hit": false,
      "t": 163681.8435000007,
      "d": 104.52225000000908,
      "v": 83
    },
    {
      "midi": 57,
      "hit": false,
      "t": 163786.3657500007,
      "d": 104.52225000000908,
      "v": 83
    },
    {
      "midi": 57,
      "hit": false,
      "t": 163890.8880000002,
      "d": 132.8303593749879,
      "v": 64
    },
    {
      "midi": 69,
      "hit": false,
      "t": 163890.8880000007,
      "d": 104.52225000000908,
      "v": 83
    },
    {
      "midi": 57,
      "hit": false,
      "t": 163995.4102500007,
      "d": 104.52225000000908,
      "v": 83
    },
    {
      "midi": 69,
      "hit": false,
      "t": 164099.9325000002,
      "d": 132.8303593749879,
      "v": 64
    },
    {
      "midi": 76,
      "hit": false,
      "t": 164099.93250000072,
      "d": 104.52225000000908,
      "v": 83
    },
    {
      "midi": 57,
      "hit": false,
      "t": 164204.45475000073,
      "d": 104.52225000000908,
      "v": 83
    },
    {
      "midi": 57,
      "hit": false,
      "t": 164308.9770000002,
      "d": 132.8303593749879,
      "v": 64
    },
    {
      "midi": 77,
      "hit": false,
      "t": 164308.97700000074,
      "d": 104.52225000000908,
      "v": 83
    },
    {
      "midi": 57,
      "hit": false,
      "t": 164413.49925000075,
      "d": 104.52225000000908,
      "v": 83
    },
    {
      "midi": 69,
      "hit": false,
      "t": 164518.02150000018,
      "d": 132.8303593749879,
      "v": 64
    },
    {
      "midi": 79,
      "hit": false,
      "t": 164518.02150000076,
      "d": 104.52225000000908,
      "v": 83
    },
    {
      "midi": 57,
      "hit": false,
      "t": 164622.54375000077,
      "d": 104.52225000000908,
      "v": 83
    },
    {
      "midi": 57,
      "hit": false,
      "t": 164727.06600000017,
      "d": 132.8303593749879,
      "v": 64
    },
    {
      "midi": 76,
      "hit": false,
      "t": 164727.06600000078,
      "d": 104.52225000000908,
      "v": 83
    },
    {
      "midi": 57,
      "hit": false,
      "t": 164831.5882500008,
      "d": 104.52225000000908,
      "v": 83
    },
    {
      "midi": 69,
      "hit": false,
      "t": 164936.11050000016,
      "d": 132.8303593749879,
      "v": 64
    },
    {
      "midi": 76,
      "hit": false,
      "t": 164936.1105000008,
      "d": 104.52225000000908,
      "v": 83
    },
    {
      "midi": 57,
      "hit": false,
      "t": 165040.6327500008,
      "d": 104.52225000000908,
      "v": 83
    },
    {
      "midi": 60,
      "hit": false,
      "t": 165145.15500000014,
      "d": 178.55884375001187,
      "v": 64
    },
    {
      "midi": 72,
      "hit": false,
      "t": 165145.15500000014,
      "d": 189.44657812500373,
      "v": 64
    },
    {
      "midi": 77,
      "hit": false,
      "t": 165145.1550000008,
      "d": 104.52225000000908,
      "v": 83
    },
    {
      "midi": 57,
      "hit": false,
      "t": 165249.67725000082,
      "d": 104.52225000000908,
      "v": 83
    },
    {
      "midi": 62,
      "hit": false,
      "t": 165354.19950000016,
      "d": 193.80167187500047,
      "v": 64
    },
    {
      "midi": 74,
      "hit": false,
      "t": 165354.19950000016,
      "d": 195.97921874999884,
      "v": 64
    },
    {
      "midi": 74,
      "hit": false,
      "t": 165354.19950000083,
      "d": 104.52225000000908,
      "v": 83
    },
    {
      "midi": 57,
      "hit": false,
      "t": 165458.72175000084,
      "d": 104.52225000000908,
      "v": 83
    },
    {
      "midi": 57,
      "hit": false,
      "t": 165563.24400000015,
      "d": 132.8303593749879,
      "v": 64
    },
    {
      "midi": 76,
      "hit": false,
      "t": 165563.24400000085,
      "d": 104.52225000000908,
      "v": 83
    },
    {
      "midi": 57,
      "hit": false,
      "t": 165667.76625000086,
      "d": 104.52225000000908,
      "v": 83
    },
    {
      "midi": 69,
      "hit": false,
      "t": 165772.28850000014,
      "d": 132.8303593749879,
      "v": 64
    },
    {
      "midi": 76,
      "hit": false,
      "t": 165772.28850000087,
      "d": 104.52225000000908,
      "v": 83
    },
    {
      "midi": 57,
      "hit": false,
      "t": 165876.81075000088,
      "d": 104.52225000000908,
      "v": 83
    },
    {
      "midi": 57,
      "hit": false,
      "t": 165981.33300000013,
      "d": 132.8303593749879,
      "v": 64
    },
    {
      "midi": 77,
      "hit": false,
      "t": 165981.3330000009,
      "d": 104.52225000000908,
      "v": 83
    },
    {
      "midi": 57,
      "hit": false,
      "t": 166085.8552500009,
      "d": 104.52225000000908,
      "v": 83
    },
    {
      "midi": 69,
      "hit": false,
      "t": 166190.37750000012,
      "d": 132.8303593749879,
      "v": 64
    },
    {
      "midi": 79,
      "hit": false,
      "t": 166190.3775000009,
      "d": 104.52225000000908,
      "v": 83
    },
    {
      "midi": 57,
      "hit": false,
      "t": 166294.8997500009,
      "d": 104.52225000000908,
      "v": 83
    },
    {
      "midi": 57,
      "hit": false,
      "t": 166399.4220000001,
      "d": 132.8303593749879,
      "v": 64
    },
    {
      "midi": 76,
      "hit": false,
      "t": 166399.42200000092,
      "d": 104.52225000000908,
      "v": 83
    },
    {
      "midi": 57,
      "hit": false,
      "t": 166503.94425000093,
      "d": 104.52225000000908,
      "v": 83
    },
    {
      "midi": 69,
      "hit": false,
      "t": 166608.4665000001,
      "d": 132.8303593749879,
      "v": 64
    },
    {
      "midi": 76,
      "hit": false,
      "t": 166608.46650000094,
      "d": 104.52225000000908,
      "v": 83
    },
    {
      "midi": 57,
      "hit": false,
      "t": 166712.98875000095,
      "d": 104.52225000000908,
      "v": 83
    },
    {
      "midi": 53,
      "hit": false,
      "t": 166817.5110000001,
      "d": 178.55884375001187,
      "v": 64
    },
    {
      "midi": 65,
      "hit": false,
      "t": 166817.5110000001,
      "d": 189.44657812500373,
      "v": 64
    },
    {
      "midi": 77,
      "hit": false,
      "t": 166817.51100000096,
      "d": 104.52225000000908,
      "v": 83
    },
    {
      "midi": 57,
      "hit": false,
      "t": 166922.03325000097,
      "d": 104.52225000000908,
      "v": 83
    },
    {
      "midi": 52,
      "hit": false,
      "t": 167026.5555000001,
      "d": 193.80167187500047,
      "v": 64
    },
    {
      "midi": 64,
      "hit": false,
      "t": 167026.5555000001,
      "d": 195.97921874999884,
      "v": 64
    },
    {
      "midi": 74,
      "hit": false,
      "t": 167026.55550000098,
      "d": 104.52225000000908,
      "v": 83
    },
    {
      "midi": 57,
      "hit": false,
      "t": 167131.077750001,
      "d": 104.52225000000908,
      "v": 83
    },
    {
      "midi": 57,
      "hit": false,
      "t": 167235.6000000001,
      "d": 132.8303593749879,
      "v": 64
    },
    {
      "midi": 76,
      "hit": false,
      "t": 167235.600000001,
      "d": 104.52225000000908,
      "v": 83
    },
    {
      "midi": 57,
      "hit": false,
      "t": 167340.122250001,
      "d": 104.52225000000908,
      "v": 83
    },
    {
      "midi": 69,
      "hit": false,
      "t": 167444.64450000008,
      "d": 132.8303593749879,
      "v": 64
    },
    {
      "midi": 76,
      "hit": false,
      "t": 167444.644500001,
      "d": 104.52225000000908,
      "v": 83
    },
    {
      "midi": 57,
      "hit": false,
      "t": 167549.16675000102,
      "d": 104.52225000000908,
      "v": 83
    },
    {
      "midi": 57,
      "hit": false,
      "t": 167653.68900000007,
      "d": 132.8303593749879,
      "v": 64
    },
    {
      "midi": 77,
      "hit": false,
      "t": 167653.68900000103,
      "d": 104.52225000000908,
      "v": 83
    },
    {
      "midi": 57,
      "hit": false,
      "t": 167758.21125000104,
      "d": 104.52225000000908,
      "v": 83
    },
    {
      "midi": 69,
      "hit": false,
      "t": 167862.73350000006,
      "d": 132.8303593749879,
      "v": 64
    },
    {
      "midi": 79,
      "hit": false,
      "t": 167862.73350000105,
      "d": 104.52225000000908,
      "v": 83
    },
    {
      "midi": 57,
      "hit": false,
      "t": 167967.25575000106,
      "d": 104.52225000000908,
      "v": 83
    },
    {
      "midi": 57,
      "hit": false,
      "t": 168071.77800000005,
      "d": 132.8303593749879,
      "v": 64
    },
    {
      "midi": 76,
      "hit": false,
      "t": 168071.77800000107,
      "d": 104.52225000000908,
      "v": 83
    },
    {
      "midi": 57,
      "hit": false,
      "t": 168176.30025000108,
      "d": 104.52225000000908,
      "v": 83
    },
    {
      "midi": 69,
      "hit": false,
      "t": 168280.82250000004,
      "d": 132.8303593749879,
      "v": 64
    },
    {
      "midi": 76,
      "hit": false,
      "t": 168280.8225000011,
      "d": 104.52225000000908,
      "v": 83
    },
    {
      "midi": 57,
      "hit": false,
      "t": 168385.3447500011,
      "d": 104.52225000000908,
      "v": 83
    },
    {
      "midi": 60,
      "hit": false,
      "t": 168489.86700000003,
      "d": 178.55884375001187,
      "v": 64
    },
    {
      "midi": 72,
      "hit": false,
      "t": 168489.86700000003,
      "d": 189.44657812500373,
      "v": 64
    },
    {
      "midi": 77,
      "hit": false,
      "t": 168489.8670000011,
      "d": 104.52225000000908,
      "v": 83
    },
    {
      "midi": 57,
      "hit": false,
      "t": 168594.3892500011,
      "d": 104.52225000000908,
      "v": 83
    },
    {
      "midi": 62,
      "hit": false,
      "t": 168698.91150000005,
      "d": 193.80167187500047,
      "v": 64
    },
    {
      "midi": 74,
      "hit": false,
      "t": 168698.91150000005,
      "d": 195.97921874999884,
      "v": 64
    },
    {
      "midi": 74,
      "hit": false,
      "t": 168698.91150000112,
      "d": 104.52225000000908,
      "v": 83
    },
    {
      "midi": 57,
      "hit": false,
      "t": 168803.43375000113,
      "d": 104.52225000000908,
      "v": 83
    },
    {
      "midi": 57,
      "hit": false,
      "t": 168907.95600000003,
      "d": 132.8303593749879,
      "v": 64
    },
    {
      "midi": 76,
      "hit": false,
      "t": 168907.95600000114,
      "d": 104.52225000000908,
      "v": 83
    },
    {
      "midi": 57,
      "hit": false,
      "t": 169012.47825000115,
      "d": 104.52225000000908,
      "v": 83
    },
    {
      "midi": 69,
      "hit": false,
      "t": 169117.00050000002,
      "d": 132.8303593749879,
      "v": 64
    },
    {
      "midi": 72,
      "hit": false,
      "t": 169117.00050000116,
      "d": 104.52225000000908,
      "v": 83
    },
    {
      "midi": 57,
      "hit": false,
      "t": 169221.52275000117,
      "d": 104.52225000000908,
      "v": 83
    },
    {
      "midi": 57,
      "hit": false,
      "t": 169326.045,
      "d": 132.8303593749879,
      "v": 64
    },
    {
      "midi": 74,
      "hit": false,
      "t": 169326.04500000118,
      "d": 104.52225000000908,
      "v": 83
    },
    {
      "midi": 57,
      "hit": false,
      "t": 169430.5672500012,
      "d": 104.52225000000908,
      "v": 83
    },
    {
      "midi": 69,
      "hit": false,
      "t": 169535.0895,
      "d": 132.8303593749879,
      "v": 64
    },
    {
      "midi": 71,
      "hit": false,
      "t": 169535.0895000012,
      "d": 104.52225000000908,
      "v": 83
    },
    {
      "midi": 57,
      "hit": false,
      "t": 169639.6117500012,
      "d": 104.52225000000908,
      "v": 83
    },
    {
      "midi": 57,
      "hit": false,
      "t": 169744.134,
      "d": 132.8303593749879,
      "v": 64
    },
    {
      "midi": 72,
      "hit": false,
      "t": 169744.1340000012,
      "d": 104.52225000000908,
      "v": 83
    },
    {
      "midi": 57,
      "hit": false,
      "t": 169848.65625000122,
      "d": 104.52225000000908,
      "v": 83
    },
    {
      "midi": 69,
      "hit": false,
      "t": 169953.17849999998,
      "d": 132.8303593749879,
      "v": 64
    },
    {
      "midi": 69,
      "hit": false,
      "t": 169953.17850000123,
      "d": 104.52225000000908,
      "v": 83
    },
    {
      "midi": 57,
      "hit": false,
      "t": 170057.70075000124,
      "d": 104.52225000000908,
      "v": 83
    },
    {
      "midi": 53,
      "hit": false,
      "t": 170162.22299999997,
      "d": 178.55884375001187,
      "v": 64
    },
    {
      "midi": 65,
      "hit": false,
      "t": 170162.22299999997,
      "d": 189.44657812500373,
      "v": 64
    },
    {
      "midi": 71,
      "hit": false,
      "t": 170162.22300000125,
      "d": 104.52225000000908,
      "v": 83
    },
    {
      "midi": 57,
      "hit": false,
      "t": 170266.74525000126,
      "d": 104.52225000000908,
      "v": 83
    },
    {
      "midi": 52,
      "hit": false,
      "t": 170371.2675,
      "d": 193.80167187500047,
      "v": 64
    },
    {
      "midi": 64,
      "hit": false,
      "t": 170371.2675,
      "d": 195.97921874999884,
      "v": 64
    },
    {
      "midi": 68,
      "hit": false,
      "t": 170371.26750000127,
      "d": 104.52225000000908,
      "v": 83
    },
    {
      "midi": 57,
      "hit": false,
      "t": 170475.78975000128,
      "d": 104.52225000000908,
      "v": 83
    },
    {
      "midi": 57,
      "hit": false,
      "t": 170580.31199999998,
      "d": 132.8303593749879,
      "v": 64
    },
    {
      "midi": 69,
      "hit": false,
      "t": 170580.3120000013,
      "d": 104.52225000000908,
      "v": 83
    },
    {
      "midi": 57,
      "hit": false,
      "t": 170684.8342500013,
      "d": 104.52225000000908,
      "v": 83
    },
    {
      "midi": 69,
      "hit": false,
      "t": 170789.35649999997,
      "d": 132.8303593749879,
      "v": 64
    },
    {
      "midi": 76,
      "hit": false,
      "t": 170789.3565000013,
      "d": 104.52225000000908,
      "v": 83
    },
    {
      "midi": 57,
      "hit": false,
      "t": 170893.8787500013,
      "d": 104.52225000000908,
      "v": 83
    },
    {
      "midi": 57,
      "hit": false,
      "t": 170998.40099999995,
      "d": 132.8303593749879,
      "v": 64
    },
    {
      "midi": 77,
      "hit": false,
      "t": 170998.40100000132,
      "d": 104.52225000000908,
      "v": 83
    },
    {
      "midi": 57,
      "hit": false,
      "t": 171102.92325000133,
      "d": 104.52225000000908,
      "v": 83
    },
    {
      "midi": 69,
      "hit": false,
      "t": 171207.44549999994,
      "d": 132.8303593749879,
      "v": 64
    },
    {
      "midi": 79,
      "hit": false,
      "t": 171207.44550000134,
      "d": 104.52225000000908,
      "v": 83
    },
    {
      "midi": 57,
      "hit": false,
      "t": 171311.96775000135,
      "d": 104.52225000000908,
      "v": 83
    },
    {
      "midi": 57,
      "hit": false,
      "t": 171416.48999999993,
      "d": 132.8303593749879,
      "v": 64
    },
    {
      "midi": 76,
      "hit": false,
      "t": 171416.49000000136,
      "d": 104.52225000000908,
      "v": 83
    },
    {
      "midi": 57,
      "hit": false,
      "t": 171521.01225000137,
      "d": 104.52225000000908,
      "v": 83
    },
    {
      "midi": 69,
      "hit": false,
      "t": 171625.53449999992,
      "d": 132.8303593749879,
      "v": 64
    },
    {
      "midi": 76,
      "hit": false,
      "t": 171625.53450000138,
      "d": 104.52225000000908,
      "v": 83
    },
    {
      "midi": 57,
      "hit": false,
      "t": 171730.0567500014,
      "d": 104.52225000000908,
      "v": 83
    },
    {
      "midi": 60,
      "hit": false,
      "t": 171834.5789999999,
      "d": 178.55884375001187,
      "v": 64
    },
    {
      "midi": 72,
      "hit": false,
      "t": 171834.5789999999,
      "d": 189.44657812500373,
      "v": 64
    },
    {
      "midi": 77,
      "hit": false,
      "t": 171834.5790000014,
      "d": 104.52225000000908,
      "v": 83
    },
    {
      "midi": 57,
      "hit": false,
      "t": 171939.1012500014,
      "d": 104.52225000000908,
      "v": 83
    },
    {
      "midi": 62,
      "hit": false,
      "t": 172043.62349999993,
      "d": 193.80167187500047,
      "v": 64
    },
    {
      "midi": 74,
      "hit": false,
      "t": 172043.62349999993,
      "d": 195.97921874999884,
      "v": 64
    },
    {
      "midi": 74,
      "hit": false,
      "t": 172043.6235000014,
      "d": 104.52225000000908,
      "v": 83
    },
    {
      "midi": 57,
      "hit": false,
      "t": 172148.14575000142,
      "d": 104.52225000000908,
      "v": 83
    },
    {
      "midi": 57,
      "hit": false,
      "t": 172252.66799999992,
      "d": 132.8303593749879,
      "v": 64
    },
    {
      "midi": 76,
      "hit": false,
      "t": 172252.66800000143,
      "d": 104.52225000000908,
      "v": 83
    },
    {
      "midi": 57,
      "hit": false,
      "t": 172357.19025000144,
      "d": 104.52225000000908,
      "v": 83
    },
    {
      "midi": 69,
      "hit": false,
      "t": 172461.7124999999,
      "d": 132.8303593749879,
      "v": 64
    },
    {
      "midi": 76,
      "hit": false,
      "t": 172461.71250000145,
      "d": 104.52225000000908,
      "v": 83
    },
    {
      "midi": 57,
      "hit": false,
      "t": 172566.23475000146,
      "d": 104.52225000000908,
      "v": 83
    },
    {
      "midi": 57,
      "hit": false,
      "t": 172670.7569999999,
      "d": 132.8303593749879,
      "v": 64
    },
    {
      "midi": 77,
      "hit": false,
      "t": 172670.75700000147,
      "d": 104.52225000000908,
      "v": 83
    },
    {
      "midi": 57,
      "hit": false,
      "t": 172775.27925000148,
      "d": 104.52225000000908,
      "v": 83
    },
    {
      "midi": 69,
      "hit": false,
      "t": 172879.80149999988,
      "d": 132.8303593749879,
      "v": 64
    },
    {
      "midi": 79,
      "hit": false,
      "t": 172879.8015000015,
      "d": 104.52225000000908,
      "v": 83
    },
    {
      "midi": 57,
      "hit": false,
      "t": 172984.3237500015,
      "d": 104.52225000000908,
      "v": 83
    },
    {
      "midi": 57,
      "hit": false,
      "t": 173088.84599999987,
      "d": 132.8303593749879,
      "v": 64
    },
    {
      "midi": 76,
      "hit": false,
      "t": 173088.8460000015,
      "d": 104.52225000000908,
      "v": 83
    },
    {
      "midi": 57,
      "hit": false,
      "t": 173193.3682500015,
      "d": 104.52225000000908,
      "v": 83
    },
    {
      "midi": 69,
      "hit": false,
      "t": 173297.89049999986,
      "d": 132.8303593749879,
      "v": 64
    },
    {
      "midi": 76,
      "hit": false,
      "t": 173297.89050000152,
      "d": 104.52225000000908,
      "v": 83
    },
    {
      "midi": 57,
      "hit": false,
      "t": 173402.41275000153,
      "d": 104.52225000000908,
      "v": 83
    },
    {
      "midi": 53,
      "hit": false,
      "t": 173506.93499999985,
      "d": 178.55884375001187,
      "v": 64
    },
    {
      "midi": 65,
      "hit": false,
      "t": 173506.93499999985,
      "d": 189.44657812500373,
      "v": 64
    },
    {
      "midi": 77,
      "hit": false,
      "t": 173506.93500000154,
      "d": 104.52225000000908,
      "v": 83
    },
    {
      "midi": 57,
      "hit": false,
      "t": 173611.45725000155,
      "d": 104.52225000000908,
      "v": 83
    },
    {
      "midi": 52,
      "hit": false,
      "t": 173715.97949999987,
      "d": 193.80167187500047,
      "v": 64
    },
    {
      "midi": 64,
      "hit": false,
      "t": 173715.97949999987,
      "d": 195.97921874999884,
      "v": 64
    },
    {
      "midi": 74,
      "hit": false,
      "t": 173715.97950000156,
      "d": 104.52225000000908,
      "v": 83
    },
    {
      "midi": 57,
      "hit": false,
      "t": 173820.50175000157,
      "d": 104.52225000000908,
      "v": 83
    },
    {
      "midi": 57,
      "hit": false,
      "t": 173925.02399999986,
      "d": 132.8303593749879,
      "v": 64
    },
    {
      "midi": 76,
      "hit": false,
      "t": 173925.02400000158,
      "d": 104.52225000000908,
      "v": 83
    },
    {
      "midi": 57,
      "hit": false,
      "t": 174029.5462500016,
      "d": 104.52225000000908,
      "v": 83
    },
    {
      "midi": 69,
      "hit": false,
      "t": 174134.06849999985,
      "d": 132.8303593749879,
      "v": 64
    },
    {
      "midi": 76,
      "hit": false,
      "t": 174134.0685000016,
      "d": 104.52225000000908,
      "v": 83
    },
    {
      "midi": 57,
      "hit": false,
      "t": 174238.5907500016,
      "d": 104.52225000000908,
      "v": 83
    },
    {
      "midi": 57,
      "hit": false,
      "t": 174343.11299999984,
      "d": 132.8303593749879,
      "v": 64
    },
    {
      "midi": 77,
      "hit": false,
      "t": 174343.1130000016,
      "d": 104.52225000000908,
      "v": 83
    },
    {
      "midi": 57,
      "hit": false,
      "t": 174447.63525000162,
      "d": 104.52225000000908,
      "v": 83
    },
    {
      "midi": 69,
      "hit": false,
      "t": 174552.15749999983,
      "d": 132.8303593749879,
      "v": 64
    },
    {
      "midi": 79,
      "hit": false,
      "t": 174552.15750000163,
      "d": 104.52225000000908,
      "v": 83
    },
    {
      "midi": 57,
      "hit": false,
      "t": 174656.67975000164,
      "d": 104.52225000000908,
      "v": 83
    },
    {
      "midi": 57,
      "hit": false,
      "t": 174761.20199999982,
      "d": 132.8303593749879,
      "v": 64
    },
    {
      "midi": 76,
      "hit": false,
      "t": 174761.20200000165,
      "d": 104.52225000000908,
      "v": 83
    },
    {
      "midi": 57,
      "hit": false,
      "t": 174865.72425000166,
      "d": 104.52225000000908,
      "v": 83
    },
    {
      "midi": 69,
      "hit": false,
      "t": 174970.2464999998,
      "d": 132.8303593749879,
      "v": 64
    },
    {
      "midi": 76,
      "hit": false,
      "t": 174970.24650000167,
      "d": 104.52225000000908,
      "v": 83
    },
    {
      "midi": 57,
      "hit": false,
      "t": 175074.76875000168,
      "d": 104.52225000000908,
      "v": 83
    },
    {
      "midi": 60,
      "hit": false,
      "t": 175179.2909999998,
      "d": 178.55884375001187,
      "v": 64
    },
    {
      "midi": 72,
      "hit": false,
      "t": 175179.2909999998,
      "d": 189.44657812500373,
      "v": 64
    },
    {
      "midi": 77,
      "hit": false,
      "t": 175179.2910000017,
      "d": 104.52225000000908,
      "v": 83
    },
    {
      "midi": 57,
      "hit": false,
      "t": 175283.8132500017,
      "d": 104.52225000000908,
      "v": 83
    },
    {
      "midi": 62,
      "hit": false,
      "t": 175388.3354999998,
      "d": 193.80167187500047,
      "v": 64
    },
    {
      "midi": 74,
      "hit": false,
      "t": 175388.3354999998,
      "d": 195.97921874999884,
      "v": 64
    },
    {
      "midi": 74,
      "hit": false,
      "t": 175388.3355000017,
      "d": 104.52225000000908,
      "v": 83
    },
    {
      "midi": 57,
      "hit": false,
      "t": 175492.8577500017,
      "d": 104.52225000000908,
      "v": 83
    },
    {
      "midi": 57,
      "hit": false,
      "t": 175597.3799999998,
      "d": 132.8303593749879,
      "v": 64
    },
    {
      "midi": 76,
      "hit": false,
      "t": 175597.38000000172,
      "d": 104.52225000000908,
      "v": 83
    },
    {
      "midi": 57,
      "hit": false,
      "t": 175701.90225000173,
      "d": 104.52225000000908,
      "v": 83
    },
    {
      "midi": 69,
      "hit": false,
      "t": 175806.4244999998,
      "d": 132.8303593749879,
      "v": 64
    },
    {
      "midi": 72,
      "hit": false,
      "t": 175806.42450000174,
      "d": 104.52225000000908,
      "v": 83
    },
    {
      "midi": 57,
      "hit": false,
      "t": 175910.94675000175,
      "d": 104.52225000000908,
      "v": 83
    },
    {
      "midi": 57,
      "hit": false,
      "t": 176015.46899999978,
      "d": 132.8303593749879,
      "v": 64
    },
    {
      "midi": 74,
      "hit": false,
      "t": 176015.46900000176,
      "d": 104.52225000000908,
      "v": 83
    },
    {
      "midi": 57,
      "hit": false,
      "t": 176119.99125000177,
      "d": 104.52225000000908,
      "v": 83
    },
    {
      "midi": 69,
      "hit": false,
      "t": 176224.51349999977,
      "d": 132.8303593749879,
      "v": 64
    },
    {
      "midi": 71,
      "hit": false,
      "t": 176224.51350000178,
      "d": 104.52225000000908,
      "v": 83
    },
    {
      "midi": 57,
      "hit": false,
      "t": 176329.03575000179,
      "d": 104.52225000000908,
      "v": 83
    },
    {
      "midi": 57,
      "hit": false,
      "t": 176433.55799999976,
      "d": 132.8303593749879,
      "v": 64
    },
    {
      "midi": 72,
      "hit": false,
      "t": 176433.5580000018,
      "d": 104.52225000000908,
      "v": 83
    },
    {
      "midi": 57,
      "hit": false,
      "t": 176538.0802500018,
      "d": 104.52225000000908,
      "v": 83
    },
    {
      "midi": 69,
      "hit": false,
      "t": 176642.60249999975,
      "d": 132.8303593749879,
      "v": 64
    },
    {
      "midi": 69,
      "hit": false,
      "t": 176642.6025000018,
      "d": 104.52225000000908,
      "v": 83
    },
    {
      "midi": 57,
      "hit": false,
      "t": 176747.12475000182,
      "d": 104.52225000000908,
      "v": 83
    },
    {
      "midi": 53,
      "hit": false,
      "t": 176851.64699999974,
      "d": 178.55884375001187,
      "v": 64
    },
    {
      "midi": 65,
      "hit": false,
      "t": 176851.64699999974,
      "d": 189.44657812500373,
      "v": 64
    },
    {
      "midi": 71,
      "hit": false,
      "t": 176851.64700000183,
      "d": 104.52225000000908,
      "v": 83
    },
    {
      "midi": 57,
      "hit": false,
      "t": 176956.16925000184,
      "d": 104.52225000000908,
      "v": 83
    },
    {
      "midi": 52,
      "hit": false,
      "t": 177060.69149999975,
      "d": 193.80167187500047,
      "v": 64
    },
    {
      "midi": 64,
      "hit": false,
      "t": 177060.69149999975,
      "d": 195.97921874999884,
      "v": 64
    },
    {
      "midi": 68,
      "hit": false,
      "t": 177060.69150000185,
      "d": 104.52225000000908,
      "v": 83
    },
    {
      "midi": 57,
      "hit": false,
      "t": 177165.21375000186,
      "d": 104.52225000000908,
      "v": 83
    },
    {
      "midi": 57,
      "hit": false,
      "t": 205699.78799999977,
      "d": 132.8303593749879,
      "v": 64
    },
    {
      "midi": 69,
      "hit": false,
      "t": 205699.78800000186,
      "d": 104.52225000000908,
      "v": 83
    },
    {
      "midi": 57,
      "hit": false,
      "t": 205804.31025000187,
      "d": 104.52225000000908,
      "v": 83
    },
    {
      "midi": 69,
      "hit": false,
      "t": 205908.83249999976,
      "d": 132.8303593749879,
      "v": 64
    },
    {
      "midi": 76,
      "hit": false,
      "t": 205908.83250000188,
      "d": 104.52225000000908,
      "v": 83
    },
    {
      "midi": 57,
      "hit": false,
      "t": 206013.3547500019,
      "d": 104.52225000000908,
      "v": 83
    },
    {
      "midi": 57,
      "hit": false,
      "t": 206117.87699999975,
      "d": 132.8303593749879,
      "v": 64
    },
    {
      "midi": 77,
      "hit": false,
      "t": 206117.8770000019,
      "d": 104.52225000000908,
      "v": 83
    },
    {
      "midi": 57,
      "hit": false,
      "t": 206222.3992500019,
      "d": 104.52225000000908,
      "v": 83
    },
    {
      "midi": 69,
      "hit": false,
      "t": 206326.92149999973,
      "d": 132.8303593749879,
      "v": 64
    },
    {
      "midi": 79,
      "hit": false,
      "t": 206326.92150000192,
      "d": 104.52225000000908,
      "v": 83
    },
    {
      "midi": 57,
      "hit": false,
      "t": 206431.44375000193,
      "d": 104.52225000000908,
      "v": 83
    },
    {
      "midi": 57,
      "hit": false,
      "t": 206535.96599999972,
      "d": 132.8303593749879,
      "v": 64
    },
    {
      "midi": 76,
      "hit": false,
      "t": 206535.96600000194,
      "d": 104.52225000000908,
      "v": 83
    },
    {
      "midi": 57,
      "hit": false,
      "t": 206640.48825000194,
      "d": 104.52225000000908,
      "v": 83
    },
    {
      "midi": 69,
      "hit": false,
      "t": 206745.0104999997,
      "d": 132.8303593749879,
      "v": 64
    },
    {
      "midi": 76,
      "hit": false,
      "t": 206745.01050000195,
      "d": 104.52225000000908,
      "v": 83
    },
    {
      "midi": 57,
      "hit": false,
      "t": 206849.53275000196,
      "d": 104.52225000000908,
      "v": 83
    },
    {
      "midi": 60,
      "hit": false,
      "t": 206954.0549999997,
      "d": 178.55884375001187,
      "v": 64
    },
    {
      "midi": 72,
      "hit": false,
      "t": 206954.0549999997,
      "d": 189.44657812500373,
      "v": 64
    },
    {
      "midi": 77,
      "hit": false,
      "t": 206954.05500000197,
      "d": 104.52225000000908,
      "v": 83
    },
    {
      "midi": 57,
      "hit": false,
      "t": 207058.57725000198,
      "d": 104.52225000000908,
      "v": 83
    },
    {
      "midi": 62,
      "hit": false,
      "t": 207163.09949999972,
      "d": 193.80167187500047,
      "v": 64
    },
    {
      "midi": 74,
      "hit": false,
      "t": 207163.09949999972,
      "d": 195.97921874999884,
      "v": 64
    },
    {
      "midi": 74,
      "hit": false,
      "t": 207163.099500002,
      "d": 104.52225000000908,
      "v": 83
    },
    {
      "midi": 57,
      "hit": false,
      "t": 207267.621750002,
      "d": 104.52225000000908,
      "v": 83
    },
    {
      "midi": 57,
      "hit": false,
      "t": 207372.1439999997,
      "d": 132.8303593749879,
      "v": 64
    },
    {
      "midi": 76,
      "hit": false,
      "t": 207372.144000002,
      "d": 104.52225000000908,
      "v": 83
    },
    {
      "midi": 57,
      "hit": false,
      "t": 207476.66625000202,
      "d": 104.52225000000908,
      "v": 83
    },
    {
      "midi": 69,
      "hit": false,
      "t": 207581.1884999997,
      "d": 132.8303593749879,
      "v": 64
    },
    {
      "midi": 76,
      "hit": false,
      "t": 207581.18850000203,
      "d": 104.52225000000908,
      "v": 83
    },
    {
      "midi": 57,
      "hit": false,
      "t": 207685.71075000204,
      "d": 104.52225000000908,
      "v": 83
    },
    {
      "midi": 57,
      "hit": false,
      "t": 207790.2329999997,
      "d": 132.8303593749879,
      "v": 64
    },
    {
      "midi": 77,
      "hit": false,
      "t": 207790.23300000204,
      "d": 104.52225000000908,
      "v": 83
    },
    {
      "midi": 57,
      "hit": false,
      "t": 207894.75525000205,
      "d": 104.52225000000908,
      "v": 83
    },
    {
      "midi": 69,
      "hit": false,
      "t": 207999.27749999968,
      "d": 132.8303593749879,
      "v": 64
    },
    {
      "midi": 79,
      "hit": false,
      "t": 207999.27750000206,
      "d": 104.52225000000908,
      "v": 83
    },
    {
      "midi": 57,
      "hit": false,
      "t": 208103.79975000207,
      "d": 104.52225000000908,
      "v": 83
    },
    {
      "midi": 57,
      "hit": false,
      "t": 208208.32199999967,
      "d": 132.8303593749879,
      "v": 64
    },
    {
      "midi": 76,
      "hit": false,
      "t": 208208.32200000208,
      "d": 104.52225000000908,
      "v": 83
    },
    {
      "midi": 57,
      "hit": false,
      "t": 208312.8442500021,
      "d": 104.52225000000908,
      "v": 83
    },
    {
      "midi": 69,
      "hit": false,
      "t": 208417.36649999965,
      "d": 132.8303593749879,
      "v": 64
    },
    {
      "midi": 76,
      "hit": false,
      "t": 208417.3665000021,
      "d": 104.52225000000908,
      "v": 83
    },
    {
      "midi": 57,
      "hit": false,
      "t": 208521.8887500021,
      "d": 104.52225000000908,
      "v": 83
    },
    {
      "midi": 53,
      "hit": false,
      "t": 208626.41099999964,
      "d": 178.55884375001187,
      "v": 64
    },
    {
      "midi": 65,
      "hit": false,
      "t": 208626.41099999964,
      "d": 189.44657812500373,
      "v": 64
    },
    {
      "midi": 77,
      "hit": false,
      "t": 208626.41100000212,
      "d": 104.52225000000908,
      "v": 83
    },
    {
      "midi": 57,
      "hit": false,
      "t": 208730.93325000213,
      "d": 104.52225000000908,
      "v": 83
    },
    {
      "midi": 52,
      "hit": false,
      "t": 208835.45549999966,
      "d": 193.80167187500047,
      "v": 64
    },
    {
      "midi": 64,
      "hit": false,
      "t": 208835.45549999966,
      "d": 195.97921874999884,
      "v": 64
    },
    {
      "midi": 74,
      "hit": false,
      "t": 208835.45550000214,
      "d": 104.52225000000908,
      "v": 83
    },
    {
      "midi": 57,
      "hit": false,
      "t": 208939.97775000214,
      "d": 104.52225000000908,
      "v": 83
    },
    {
      "midi": 57,
      "hit": false,
      "t": 209044.49999999965,
      "d": 132.8303593749879,
      "v": 64
    },
    {
      "midi": 76,
      "hit": false,
      "t": 209044.50000000215,
      "d": 104.52225000000908,
      "v": 83
    },
    {
      "midi": 57,
      "hit": false,
      "t": 209149.02225000216,
      "d": 104.52225000000908,
      "v": 83
    },
    {
      "midi": 69,
      "hit": false,
      "t": 209253.54449999964,
      "d": 132.8303593749879,
      "v": 64
    },
    {
      "midi": 76,
      "hit": false,
      "t": 209253.54450000217,
      "d": 104.52225000000908,
      "v": 83
    },
    {
      "midi": 57,
      "hit": false,
      "t": 209358.06675000218,
      "d": 104.52225000000908,
      "v": 83
    },
    {
      "midi": 57,
      "hit": false,
      "t": 209462.58899999963,
      "d": 132.8303593749879,
      "v": 64
    },
    {
      "midi": 77,
      "hit": false,
      "t": 209462.5890000022,
      "d": 104.52225000000908,
      "v": 83
    },
    {
      "midi": 57,
      "hit": false,
      "t": 209567.1112500022,
      "d": 104.52225000000908,
      "v": 83
    },
    {
      "midi": 69,
      "hit": false,
      "t": 209671.63349999962,
      "d": 132.8303593749879,
      "v": 64
    },
    {
      "midi": 79,
      "hit": false,
      "t": 209671.6335000022,
      "d": 104.52225000000908,
      "v": 83
    },
    {
      "midi": 57,
      "hit": false,
      "t": 209776.15575000222,
      "d": 104.52225000000908,
      "v": 83
    },
    {
      "midi": 57,
      "hit": false,
      "t": 209880.6779999996,
      "d": 132.8303593749879,
      "v": 64
    },
    {
      "midi": 76,
      "hit": false,
      "t": 209880.67800000223,
      "d": 104.52225000000908,
      "v": 83
    },
    {
      "midi": 57,
      "hit": false,
      "t": 209985.20025000224,
      "d": 104.52225000000908,
      "v": 83
    },
    {
      "midi": 69,
      "hit": false,
      "t": 210089.7224999996,
      "d": 132.8303593749879,
      "v": 64
    },
    {
      "midi": 76,
      "hit": false,
      "t": 210089.72250000224,
      "d": 104.52225000000908,
      "v": 83
    },
    {
      "midi": 57,
      "hit": false,
      "t": 210194.24475000225,
      "d": 104.52225000000908,
      "v": 83
    },
    {
      "midi": 60,
      "hit": false,
      "t": 210298.76699999959,
      "d": 178.55884375001187,
      "v": 64
    },
    {
      "midi": 72,
      "hit": false,
      "t": 210298.76699999959,
      "d": 189.44657812500373,
      "v": 64
    },
    {
      "midi": 77,
      "hit": false,
      "t": 210298.76700000226,
      "d": 104.52225000000908,
      "v": 83
    },
    {
      "midi": 57,
      "hit": false,
      "t": 210403.28925000227,
      "d": 104.52225000000908,
      "v": 83
    },
    {
      "midi": 62,
      "hit": false,
      "t": 210507.8114999996,
      "d": 193.80167187500047,
      "v": 64
    },
    {
      "midi": 74,
      "hit": false,
      "t": 210507.8114999996,
      "d": 195.97921874999884,
      "v": 64
    },
    {
      "midi": 74,
      "hit": false,
      "t": 210507.81150000228,
      "d": 104.52225000000908,
      "v": 83
    },
    {
      "midi": 57,
      "hit": false,
      "t": 210612.3337500023,
      "d": 104.52225000000908,
      "v": 83
    },
    {
      "midi": 57,
      "hit": false,
      "t": 210716.8559999996,
      "d": 132.8303593749879,
      "v": 64
    },
    {
      "midi": 76,
      "hit": false,
      "t": 210716.8560000023,
      "d": 104.52225000000908,
      "v": 83
    },
    {
      "midi": 57,
      "hit": false,
      "t": 210821.3782500023,
      "d": 104.52225000000908,
      "v": 83
    },
    {
      "midi": 69,
      "hit": false,
      "t": 210925.90049999958,
      "d": 132.8303593749879,
      "v": 64
    },
    {
      "midi": 72,
      "hit": false,
      "t": 210925.90050000232,
      "d": 104.52225000000908,
      "v": 83
    },
    {
      "midi": 57,
      "hit": false,
      "t": 211030.42275000233,
      "d": 104.52225000000908,
      "v": 83
    },
    {
      "midi": 57,
      "hit": false,
      "t": 211134.94499999957,
      "d": 132.8303593749879,
      "v": 64
    },
    {
      "midi": 74,
      "hit": false,
      "t": 211134.94500000234,
      "d": 104.52225000000908,
      "v": 83
    },
    {
      "midi": 57,
      "hit": false,
      "t": 211239.46725000234,
      "d": 104.52225000000908,
      "v": 83
    },
    {
      "midi": 69,
      "hit": false,
      "t": 211343.98949999956,
      "d": 132.8303593749879,
      "v": 64
    },
    {
      "midi": 71,
      "hit": false,
      "t": 211343.98950000235,
      "d": 104.52225000000908,
      "v": 83
    },
    {
      "midi": 57,
      "hit": false,
      "t": 211448.51175000236,
      "d": 104.52225000000908,
      "v": 83
    },
    {
      "midi": 57,
      "hit": false,
      "t": 211553.03399999955,
      "d": 132.8303593749879,
      "v": 64
    },
    {
      "midi": 72,
      "hit": false,
      "t": 211553.03400000237,
      "d": 104.52225000000908,
      "v": 83
    },
    {
      "midi": 57,
      "hit": false,
      "t": 211657.55625000238,
      "d": 104.52225000000908,
      "v": 83
    },
    {
      "midi": 69,
      "hit": false,
      "t": 211762.07849999954,
      "d": 132.8303593749879,
      "v": 64
    },
    {
      "midi": 69,
      "hit": false,
      "t": 211762.0785000024,
      "d": 104.52225000000908,
      "v": 83
    },
    {
      "midi": 57,
      "hit": false,
      "t": 211866.6007500024,
      "d": 104.52225000000908,
      "v": 83
    },
    {
      "midi": 53,
      "hit": false,
      "t": 211971.12299999953,
      "d": 178.55884375001187,
      "v": 64
    },
    {
      "midi": 65,
      "hit": false,
      "t": 211971.12299999953,
      "d": 189.44657812500373,
      "v": 64
    },
    {
      "midi": 71,
      "hit": false,
      "t": 211971.1230000024,
      "d": 104.52225000000908,
      "v": 83
    },
    {
      "midi": 57,
      "hit": false,
      "t": 212075.64525000242,
      "d": 104.52225000000908,
      "v": 83
    },
    {
      "midi": 52,
      "hit": false,
      "t": 212180.16749999954,
      "d": 193.80167187500047,
      "v": 64
    },
    {
      "midi": 64,
      "hit": false,
      "t": 212180.16749999954,
      "d": 195.97921874999884,
      "v": 64
    },
    {
      "midi": 68,
      "hit": false,
      "t": 212180.16750000243,
      "d": 104.52225000000908,
      "v": 83
    },
    {
      "midi": 57,
      "hit": false,
      "t": 212284.68975000244,
      "d": 104.52225000000908,
      "v": 83
    },
    {
      "midi": 57,
      "hit": false,
      "t": 212389.21199999953,
      "d": 132.8303593749879,
      "v": 64
    },
    {
      "midi": 69,
      "hit": false,
      "t": 212389.21200000244,
      "d": 104.52225000000908,
      "v": 83
    },
    {
      "midi": 57,
      "hit": false,
      "t": 212493.73425000245,
      "d": 104.52225000000908,
      "v": 83
    },
    {
      "midi": 69,
      "hit": false,
      "t": 212598.25649999952,
      "d": 132.8303593749879,
      "v": 64
    },
    {
      "midi": 76,
      "hit": false,
      "t": 212598.25650000246,
      "d": 104.52225000000908,
      "v": 83
    },
    {
      "midi": 57,
      "hit": false,
      "t": 212702.77875000247,
      "d": 104.52225000000908,
      "v": 83
    },
    {
      "midi": 57,
      "hit": false,
      "t": 212807.3009999995,
      "d": 132.8303593749879,
      "v": 64
    },
    {
      "midi": 77,
      "hit": false,
      "t": 212807.30100000248,
      "d": 104.52225000000908,
      "v": 83
    },
    {
      "midi": 57,
      "hit": false,
      "t": 212911.8232500025,
      "d": 104.52225000000908,
      "v": 83
    },
    {
      "midi": 69,
      "hit": false,
      "t": 213016.3454999995,
      "d": 132.8303593749879,
      "v": 64
    },
    {
      "midi": 79,
      "hit": false,
      "t": 213016.3455000025,
      "d": 104.52225000000908,
      "v": 83
    },
    {
      "midi": 57,
      "hit": false,
      "t": 213120.8677500025,
      "d": 104.52225000000908,
      "v": 83
    },
    {
      "midi": 57,
      "hit": false,
      "t": 213225.3899999995,
      "d": 132.8303593749879,
      "v": 64
    },
    {
      "midi": 76,
      "hit": false,
      "t": 213225.39000000252,
      "d": 104.52225000000908,
      "v": 83
    },
    {
      "midi": 57,
      "hit": false,
      "t": 213329.91225000253,
      "d": 104.52225000000908,
      "v": 83
    },
    {
      "midi": 69,
      "hit": false,
      "t": 213434.43449999948,
      "d": 132.8303593749879,
      "v": 64
    },
    {
      "midi": 76,
      "hit": false,
      "t": 213434.43450000254,
      "d": 104.52225000000908,
      "v": 83
    },
    {
      "midi": 57,
      "hit": false,
      "t": 213538.95675000254,
      "d": 104.52225000000908,
      "v": 83
    },
    {
      "midi": 60,
      "hit": false,
      "t": 213643.47899999947,
      "d": 178.55884375001187,
      "v": 64
    },
    {
      "midi": 72,
      "hit": false,
      "t": 213643.47899999947,
      "d": 189.44657812500373,
      "v": 64
    },
    {
      "midi": 77,
      "hit": false,
      "t": 213643.47900000255,
      "d": 104.52225000000908,
      "v": 83
    },
    {
      "midi": 57,
      "hit": false,
      "t": 213748.00125000256,
      "d": 104.52225000000908,
      "v": 83
    },
    {
      "midi": 62,
      "hit": false,
      "t": 213852.5234999995,
      "d": 193.80167187500047,
      "v": 64
    },
    {
      "midi": 74,
      "hit": false,
      "t": 213852.5234999995,
      "d": 195.97921874999884,
      "v": 64
    },
    {
      "midi": 74,
      "hit": false,
      "t": 213852.52350000257,
      "d": 104.52225000000908,
      "v": 83
    },
    {
      "midi": 57,
      "hit": false,
      "t": 213957.04575000258,
      "d": 104.52225000000908,
      "v": 83
    },
    {
      "midi": 57,
      "hit": false,
      "t": 214061.56799999948,
      "d": 132.8303593749879,
      "v": 64
    },
    {
      "midi": 76,
      "hit": false,
      "t": 214061.5680000026,
      "d": 104.52225000000908,
      "v": 83
    },
    {
      "midi": 57,
      "hit": false,
      "t": 214166.0902500026,
      "d": 104.52225000000908,
      "v": 83
    },
    {
      "midi": 69,
      "hit": false,
      "t": 214270.61249999946,
      "d": 132.8303593749879,
      "v": 64
    },
    {
      "midi": 76,
      "hit": false,
      "t": 214270.6125000026,
      "d": 104.52225000000908,
      "v": 83
    },
    {
      "midi": 57,
      "hit": false,
      "t": 214375.13475000262,
      "d": 104.52225000000908,
      "v": 83
    },
    {
      "midi": 57,
      "hit": false,
      "t": 214479.65699999945,
      "d": 132.8303593749879,
      "v": 64
    },
    {
      "midi": 77,
      "hit": false,
      "t": 214479.65700000263,
      "d": 104.52225000000908,
      "v": 83
    },
    {
      "midi": 57,
      "hit": false,
      "t": 214584.17925000263,
      "d": 104.52225000000908,
      "v": 83
    },
    {
      "midi": 69,
      "hit": false,
      "t": 214688.70149999944,
      "d": 132.8303593749879,
      "v": 64
    },
    {
      "midi": 79,
      "hit": false,
      "t": 214688.70150000264,
      "d": 104.52225000000908,
      "v": 83
    },
    {
      "midi": 57,
      "hit": false,
      "t": 214793.22375000265,
      "d": 104.52225000000908,
      "v": 83
    },
    {
      "midi": 57,
      "hit": false,
      "t": 214897.74599999943,
      "d": 132.8303593749879,
      "v": 64
    },
    {
      "midi": 76,
      "hit": false,
      "t": 214897.74600000266,
      "d": 104.52225000000908,
      "v": 83
    },
    {
      "midi": 57,
      "hit": false,
      "t": 215002.26825000267,
      "d": 104.52225000000908,
      "v": 83
    },
    {
      "midi": 69,
      "hit": false,
      "t": 215106.79049999942,
      "d": 132.8303593749879,
      "v": 64
    },
    {
      "midi": 76,
      "hit": false,
      "t": 215106.79050000268,
      "d": 104.52225000000908,
      "v": 83
    },
    {
      "midi": 57,
      "hit": false,
      "t": 215211.3127500027,
      "d": 104.52225000000908,
      "v": 83
    },
    {
      "midi": 53,
      "hit": false,
      "t": 215315.8349999994,
      "d": 178.55884375001187,
      "v": 64
    },
    {
      "midi": 65,
      "hit": false,
      "t": 215315.8349999994,
      "d": 189.44657812500373,
      "v": 64
    },
    {
      "midi": 77,
      "hit": false,
      "t": 215315.8350000027,
      "d": 104.52225000000908,
      "v": 83
    },
    {
      "midi": 57,
      "hit": false,
      "t": 215420.3572500027,
      "d": 104.52225000000908,
      "v": 83
    },
    {
      "midi": 52,
      "hit": false,
      "t": 215524.87949999943,
      "d": 193.80167187500047,
      "v": 64
    },
    {
      "midi": 64,
      "hit": false,
      "t": 215524.87949999943,
      "d": 195.97921874999884,
      "v": 64
    },
    {
      "midi": 74,
      "hit": false,
      "t": 215524.87950000272,
      "d": 104.52225000000908,
      "v": 83
    },
    {
      "midi": 57,
      "hit": false,
      "t": 215629.40175000273,
      "d": 104.52225000000908,
      "v": 83
    },
    {
      "midi": 57,
      "hit": false,
      "t": 215733.92399999942,
      "d": 132.8303593749879,
      "v": 64
    },
    {
      "midi": 76,
      "hit": false,
      "t": 215733.92400000273,
      "d": 104.52225000000908,
      "v": 83
    },
    {
      "midi": 57,
      "hit": false,
      "t": 215838.44625000274,
      "d": 104.52225000000908,
      "v": 83
    },
    {
      "midi": 69,
      "hit": false,
      "t": 215942.9684999994,
      "d": 132.8303593749879,
      "v": 64
    },
    {
      "midi": 76,
      "hit": false,
      "t": 215942.96850000275,
      "d": 104.52225000000908,
      "v": 83
    },
    {
      "midi": 57,
      "hit": false,
      "t": 216047.49075000276,
      "d": 104.52225000000908,
      "v": 83
    },
    {
      "midi": 57,
      "hit": false,
      "t": 216152.0129999994,
      "d": 132.8303593749879,
      "v": 64
    },
    {
      "midi": 77,
      "hit": false,
      "t": 216152.01300000277,
      "d": 104.52225000000908,
      "v": 83
    },
    {
      "midi": 57,
      "hit": false,
      "t": 216256.53525000278,
      "d": 104.52225000000908,
      "v": 83
    },
    {
      "midi": 69,
      "hit": false,
      "t": 216361.05749999938,
      "d": 132.8303593749879,
      "v": 64
    },
    {
      "midi": 79,
      "hit": false,
      "t": 216361.0575000028,
      "d": 104.52225000000908,
      "v": 83
    },
    {
      "midi": 57,
      "hit": false,
      "t": 216465.5797500028,
      "d": 104.52225000000908,
      "v": 83
    },
    {
      "midi": 57,
      "hit": false,
      "t": 216570.10199999937,
      "d": 132.8303593749879,
      "v": 64
    },
    {
      "midi": 76,
      "hit": false,
      "t": 216570.1020000028,
      "d": 104.52225000000908,
      "v": 83
    },
    {
      "midi": 57,
      "hit": false,
      "t": 216674.62425000282,
      "d": 104.52225000000908,
      "v": 83
    },
    {
      "midi": 69,
      "hit": false,
      "t": 216779.14649999936,
      "d": 132.8303593749879,
      "v": 64
    },
    {
      "midi": 76,
      "hit": false,
      "t": 216779.14650000283,
      "d": 104.52225000000908,
      "v": 83
    },
    {
      "midi": 57,
      "hit": false,
      "t": 216883.66875000283,
      "d": 104.52225000000908,
      "v": 83
    },
    {
      "midi": 60,
      "hit": false,
      "t": 216988.19099999935,
      "d": 178.55884375001187,
      "v": 64
    },
    {
      "midi": 72,
      "hit": false,
      "t": 216988.19099999935,
      "d": 189.44657812500373,
      "v": 64
    },
    {
      "midi": 77,
      "hit": false,
      "t": 216988.19100000284,
      "d": 104.52225000000908,
      "v": 83
    },
    {
      "midi": 57,
      "hit": false,
      "t": 217092.71325000285,
      "d": 104.52225000000908,
      "v": 83
    },
    {
      "midi": 62,
      "hit": false,
      "t": 217197.23549999937,
      "d": 193.80167187500047,
      "v": 64
    },
    {
      "midi": 74,
      "hit": false,
      "t": 217197.23549999937,
      "d": 195.97921874999884,
      "v": 64
    },
    {
      "midi": 74,
      "hit": false,
      "t": 217197.23550000286,
      "d": 104.52225000000908,
      "v": 83
    },
    {
      "midi": 57,
      "hit": false,
      "t": 217301.75775000287,
      "d": 104.52225000000908,
      "v": 83
    },
    {
      "midi": 57,
      "hit": false,
      "t": 217406.27999999936,
      "d": 132.8303593749879,
      "v": 64
    },
    {
      "midi": 76,
      "hit": false,
      "t": 217406.28000000288,
      "d": 104.52225000000908,
      "v": 83
    },
    {
      "midi": 57,
      "hit": false,
      "t": 217510.8022500029,
      "d": 104.52225000000908,
      "v": 83
    },
    {
      "midi": 69,
      "hit": false,
      "t": 217615.32449999935,
      "d": 132.8303593749879,
      "v": 64
    },
    {
      "midi": 72,
      "hit": false,
      "t": 217615.3245000029,
      "d": 104.52225000000908,
      "v": 83
    },
    {
      "midi": 57,
      "hit": false,
      "t": 217719.8467500029,
      "d": 104.52225000000908,
      "v": 83
    },
    {
      "midi": 57,
      "hit": false,
      "t": 217824.36899999934,
      "d": 132.8303593749879,
      "v": 64
    },
    {
      "midi": 74,
      "hit": false,
      "t": 217824.36900000292,
      "d": 104.52225000000908,
      "v": 83
    },
    {
      "midi": 57,
      "hit": false,
      "t": 217928.89125000293,
      "d": 104.52225000000908,
      "v": 83
    },
    {
      "midi": 69,
      "hit": false,
      "t": 218033.41349999933,
      "d": 132.8303593749879,
      "v": 64
    },
    {
      "midi": 71,
      "hit": false,
      "t": 218033.41350000293,
      "d": 104.52225000000908,
      "v": 83
    },
    {
      "midi": 57,
      "hit": false,
      "t": 218137.93575000294,
      "d": 104.52225000000908,
      "v": 83
    },
    {
      "midi": 57,
      "hit": false,
      "t": 218242.45799999931,
      "d": 132.8303593749879,
      "v": 64
    },
    {
      "midi": 72,
      "hit": false,
      "t": 218242.45800000295,
      "d": 104.52225000000908,
      "v": 83
    },
    {
      "midi": 57,
      "hit": false,
      "t": 218346.98025000296,
      "d": 104.52225000000908,
      "v": 83
    },
    {
      "midi": 69,
      "hit": false,
      "t": 218451.5024999993,
      "d": 132.8303593749879,
      "v": 64
    },
    {
      "midi": 69,
      "hit": false,
      "t": 218451.50250000297,
      "d": 104.52225000000908,
      "v": 83
    },
    {
      "midi": 57,
      "hit": false,
      "t": 218556.02475000298,
      "d": 104.52225000000908,
      "v": 83
    },
    {
      "midi": 53,
      "hit": false,
      "t": 218660.5469999993,
      "d": 178.55884375001187,
      "v": 64
    },
    {
      "midi": 65,
      "hit": false,
      "t": 218660.5469999993,
      "d": 189.44657812500373,
      "v": 64
    },
    {
      "midi": 71,
      "hit": false,
      "t": 218660.547000003,
      "d": 104.52225000000908,
      "v": 83
    },
    {
      "midi": 57,
      "hit": false,
      "t": 218765.069250003,
      "d": 104.52225000000908,
      "v": 83
    },
    {
      "midi": 52,
      "hit": false,
      "t": 218869.5914999993,
      "d": 193.80167187500047,
      "v": 64
    },
    {
      "midi": 64,
      "hit": false,
      "t": 218869.5914999993,
      "d": 195.97921874999884,
      "v": 64
    },
    {
      "midi": 68,
      "hit": false,
      "t": 218869.591500003,
      "d": 104.52225000000908,
      "v": 83
    },
    {
      "midi": 57,
      "hit": false,
      "t": 218974.11375000302,
      "d": 104.52225000000908,
      "v": 83
    },
    {
      "midi": 36,
      "hit": false,
      "t": 219078.63600000303,
      "d": 1546.058281250007,
      "v": 43
    },
    {
      "midi": 21,
      "hit": false,
      "t": 219078.63600000303,
      "d": 1580.89903125001,
      "v": 83
    },
    {
      "midi": 33,
      "hit": false,
      "t": 219078.63600000303,
      "d": 1580.89903125001,
      "v": 83
    },
    {
      "midi": 45,
      "hit": false,
      "t": 219078.63600000303,
      "d": 1589.6092187500035,
      "v": 83
    },
    {
      "midi": 40,
      "hit": false,
      "t": 219078.63600000303,
      "d": 1611.3846875000163,
      "v": 83
    },
    {
      "midi": 57,
      "hit": false,
      "t": 220750.99200000305,
      "d": 370.18296875001397,
      "v": 83
    },
    {
      "midi": 81,
      "hit": false,
      "t": 220750.99200000305,
      "d": 370.18296875001397,
      "v": 83
    },
    {
      "midi": 52,
      "hit": false,
      "t": 220750.99200000305,
      "d": 378.89315625000745,
      "v": 83
    },
    {
      "midi": 76,
      "hit": false,
      "t": 220750.99200000305,
      "d": 378.89315625000745,
      "v": 83
    },
    {
      "midi": 45,
      "hit": false,
      "t": 220750.99200000305,
      "d": 407.20126562501537,
      "v": 83
    },
    {
      "midi": 69,
      "hit": false,
      "t": 220750.99200000305,
      "d": 407.20126562501537,
      "v": 83
    }
  ]
}