{
  "jsonPath": "Animes/Yu Yu Hakusho MIDI Collection/eien-no-rekuiemu.json",
  "path": "Animes\\Yu Yu Hakusho MIDI Collection\\Eien no Rekuiemu.mid",
  "name": "Eien no Rekuiemu",
  "difficulty": "Advanced",
  "bpm": 60,
  "notes": [
    {
      "midi": 52,
      "hit": false,
      "t": 0,
      "d": 5054.34075,
      "v": 10
    },
    {
      "midi": 59,
      "hit": false,
      "t": 0,
      "d": 5054.34075,
      "v": 10
    },
    {
      "midi": 52,
      "hit": false,
      "t": 0,
      "d": 5054.34075,
      "v": 10
    },
    {
      "midi": 59,
      "hit": false,
      "t": 0,
      "d": 5054.34075,
      "v": 10
    },
    {
      "midi": 67,
      "hit": false,
      "t": 326.0865,
      "d": 326.0865,
      "v": 45
    },
    {
      "midi": 66,
      "hit": false,
      "t": 652.173,
      "d": 326.0865,
      "v": 45
    },
    {
      "midi": 67,
      "hit": false,
      "t": 978.2595,
      "d": 163.04325000000006,
      "v": 45
    },
    {
      "midi": 69,
      "hit": false,
      "t": 1141.30275,
      "d": 163.04324999999994,
      "v": 45
    },
    {
      "midi": 71,
      "hit": false,
      "t": 1304.346,
      "d": 326.0864999999999,
      "v": 45
    },
    {
      "midi": 69,
      "hit": false,
      "t": 1630.4325,
      "d": 163.04324999999994,
      "v": 45
    },
    {
      "midi": 67,
      "hit": false,
      "t": 1793.4757499999998,
      "d": 163.04324999999994,
      "v": 45
    },
    {
      "midi": 69,
      "hit": false,
      "t": 1956.5189999999998,
      "d": 326.0864999999999,
      "v": 45
    },
    {
      "midi": 66,
      "hit": false,
      "t": 2282.6054999999997,
      "d": 163.04325000000017,
      "v": 45
    },
    {
      "midi": 69,
      "hit": false,
      "t": 2445.64875,
      "d": 163.04325000000017,
      "v": 45
    },
    {
      "midi": 67,
      "hit": false,
      "t": 2608.692,
      "d": 326.0864999999999,
      "v": 45
    },
    {
      "midi": 66,
      "hit": false,
      "t": 2934.7785,
      "d": 163.04325000000017,
      "v": 45
    },
    {
      "midi": 64,
      "hit": false,
      "t": 3097.82175,
      "d": 163.04325000000017,
      "v": 45
    },
    {
      "midi": 66,
      "hit": false,
      "t": 3260.8650000000002,
      "d": 326.0864999999999,
      "v": 45
    },
    {
      "midi": 62,
      "hit": false,
      "t": 3586.9515,
      "d": 326.0864999999999,
      "v": 45
    },
    {
      "midi": 64,
      "hit": false,
      "t": 3913.038,
      "d": 652.1730000000002,
      "v": 45
    },
    {
      "midi": 64,
      "hit": false,
      "t": 4565.211,
      "d": 543.4775,
      "v": 45
    },
    {
      "midi": 52,
      "hit": false,
      "t": 5217.384,
      "d": 5054.340750000001,
      "v": 10
    },
    {
      "midi": 59,
      "hit": false,
      "t": 5217.384,
      "d": 5054.340750000001,
      "v": 10
    },
    {
      "midi": 52,
      "hit": false,
      "t": 5217.384,
      "d": 5054.340750000001,
      "v": 10
    },
    {
      "midi": 59,
      "hit": false,
      "t": 5217.384,
      "d": 5054.340750000001,
      "v": 10
    },
    {
      "midi": 67,
      "hit": false,
      "t": 5543.4705,
      "d": 326.08650000000034,
      "v": 45
    },
    {
      "midi": 66,
      "hit": false,
      "t": 5869.557000000001,
      "d": 326.08650000000034,
      "v": 45
    },
    {
      "midi": 67,
      "hit": false,
      "t": 6195.643500000001,
      "d": 163.04324999999972,
      "v": 45
    },
    {
      "midi": 69,
      "hit": false,
      "t": 6358.686750000001,
      "d": 163.04324999999972,
      "v": 45
    },
    {
      "midi": 71,
      "hit": false,
      "t": 6521.7300000000005,
      "d": 326.08650000000034,
      "v": 45
    },
    {
      "midi": 69,
      "hit": false,
      "t": 6847.816500000001,
      "d": 163.04324999999972,
      "v": 45
    },
    {
      "midi": 67,
      "hit": false,
      "t": 7010.8597500000005,
      "d": 163.04324999999972,
      "v": 45
    },
    {
      "midi": 69,
      "hit": false,
      "t": 7173.903,
      "d": 326.08650000000034,
      "v": 45
    },
    {
      "midi": 66,
      "hit": false,
      "t": 7499.989500000001,
      "d": 163.04324999999972,
      "v": 45
    },
    {
      "midi": 69,
      "hit": false,
      "t": 7663.03275,
      "d": 163.04324999999972,
      "v": 45
    },
    {
      "midi": 67,
      "hit": false,
      "t": 7826.076,
      "d": 326.08650000000034,
      "v": 45
    },
    {
      "midi": 66,
      "hit": false,
      "t": 8152.1625,
      "d": 163.04325000000063,
      "v": 45
    },
    {
      "midi": 64,
      "hit": false,
      "t": 8315.205750000001,
      "d": 163.04325000000063,
      "v": 45
    },
    {
      "midi": 66,
      "hit": false,
      "t": 8478.249000000002,
      "d": 326.08649999999943,
      "v": 45
    },
    {
      "midi": 62,
      "hit": false,
      "t": 8804.335500000001,
      "d": 326.08649999999943,
      "v": 45
    },
    {
      "midi": 64,
      "hit": false,
      "t": 9130.422,
      "d": 652.1730000000007,
      "v": 45
    },
    {
      "midi": 64,
      "hit": false,
      "t": 9782.595000000001,
      "d": 543.4775000000009,
      "v": 45
    },
    {
      "midi": 79,
      "hit": false,
      "t": 10108.6815,
      "d": 319.29303124999933,
      "v": 30
    },
    {
      "midi": 81,
      "hit": false,
      "t": 10434.768,
      "d": 543.4775000000009,
      "v": 30
    },
    {
      "midi": 57,
      "hit": false,
      "t": 10434.768000000002,
      "d": 2445.6487500000003,
      "v": 10
    },
    {
      "midi": 60,
      "hit": false,
      "t": 10434.768000000002,
      "d": 2445.6487500000003,
      "v": 10
    },
    {
      "midi": 57,
      "hit": false,
      "t": 10434.768000000002,
      "d": 2445.6487500000003,
      "v": 10
    },
    {
      "midi": 60,
      "hit": false,
      "t": 10434.768000000002,
      "d": 2445.6487500000003,
      "v": 10
    },
    {
      "midi": 72,
      "hit": false,
      "t": 10760.854500000001,
      "d": 326.08649999999943,
      "v": 60
    },
    {
      "midi": 71,
      "hit": false,
      "t": 11086.941,
      "d": 326.08649999999943,
      "v": 60
    },
    {
      "midi": 72,
      "hit": false,
      "t": 11413.0275,
      "d": 163.04325000000063,
      "v": 60
    },
    {
      "midi": 74,
      "hit": false,
      "t": 11576.07075,
      "d": 163.04325000000063,
      "v": 60
    },
    {
      "midi": 76,
      "hit": false,
      "t": 11739.114000000001,
      "d": 326.08649999999943,
      "v": 60
    },
    {
      "midi": 74,
      "hit": false,
      "t": 12065.2005,
      "d": 163.04325000000063,
      "v": 60
    },
    {
      "midi": 72,
      "hit": false,
      "t": 12228.243750000001,
      "d": 163.04325000000063,
      "v": 60
    },
    {
      "midi": 74,
      "hit": false,
      "t": 12391.287000000002,
      "d": 326.08649999999943,
      "v": 60
    },
    {
      "midi": 71,
      "hit": false,
      "t": 12717.373500000002,
      "d": 163.04325000000063,
      "v": 60
    },
    {
      "midi": 74,
      "hit": false,
      "t": 12880.416750000002,
      "d": 163.04325000000063,
      "v": 60
    },
    {
      "midi": 72,
      "hit": false,
      "t": 13043.460000000003,
      "d": 326.08649999999943,
      "v": 60
    },
    {
      "midi": 53,
      "hit": false,
      "t": 13043.460000000003,
      "d": 2445.6487500000003,
      "v": 10
    },
    {
      "midi": 57,
      "hit": false,
      "t": 13043.460000000003,
      "d": 2445.6487500000003,
      "v": 10
    },
    {
      "midi": 60,
      "hit": false,
      "t": 13043.460000000003,
      "d": 2445.6487500000003,
      "v": 10
    },
    {
      "midi": 53,
      "hit": false,
      "t": 13043.460000000003,
      "d": 2445.6487500000003,
      "v": 10
    },
    {
      "midi": 57,
      "hit": false,
      "t": 13043.460000000003,
      "d": 2445.6487500000003,
      "v": 10
    },
    {
      "midi": 60,
      "hit": false,
      "t": 13043.460000000003,
      "d": 2445.6487500000003,
      "v": 10
    },
    {
      "midi": 71,
      "hit": false,
      "t": 13369.546500000002,
      "d": 163.04325000000063,
      "v": 60
    },
    {
      "midi": 69,
      "hit": false,
      "t": 13532.589750000003,
      "d": 163.04325000000063,
      "v": 60
    },
    {
      "midi": 71,
      "hit": false,
      "t": 13695.633000000003,
      "d": 326.08649999999943,
      "v": 60
    },
    {
      "midi": 67,
      "hit": false,
      "t": 14021.719500000003,
      "d": 326.08649999999943,
      "v": 60
    },
    {
      "midi": 69,
      "hit": false,
      "t": 14347.806000000002,
      "d": 652.1730000000007,
      "v": 60
    },
    {
      "midi": 69,
      "hit": false,
      "t": 14999.979000000003,
      "d": 652.1730000000007,
      "v": 60
    },
    {
      "midi": 79,
      "hit": false,
      "t": 15326.0655,
      "d": 326.08649999999943,
      "v": 30
    },
    {
      "midi": 81,
      "hit": false,
      "t": 15652.152,
      "d": 543.4775000000009,
      "v": 30
    },
    {
      "midi": 52,
      "hit": false,
      "t": 15652.152000000004,
      "d": 2445.6487499999985,
      "v": 10
    },
    {
      "midi": 57,
      "hit": false,
      "t": 15652.152000000004,
      "d": 2445.6487499999985,
      "v": 10
    },
    {
      "midi": 60,
      "hit": false,
      "t": 15652.152000000004,
      "d": 2445.6487499999985,
      "v": 10
    },
    {
      "midi": 52,
      "hit": false,
      "t": 15652.152000000004,
      "d": 2445.6487499999985,
      "v": 10
    },
    {
      "midi": 57,
      "hit": false,
      "t": 15652.152000000004,
      "d": 2445.6487499999985,
      "v": 10
    },
    {
      "midi": 60,
      "hit": false,
      "t": 15652.152000000004,
      "d": 2445.6487499999985,
      "v": 10
    },
    {
      "midi": 72,
      "hit": false,
      "t": 15978.238500000003,
      "d": 319.29303124999933,
      "v": 60
    },
    {
      "midi": 71,
      "hit": false,
      "t": 16304.325000000003,
      "d": 326.08649999999943,
      "v": 60
    },
    {
      "midi": 72,
      "hit": false,
      "t": 16630.411500000002,
      "d": 163.0432499999988,
      "v": 60
    },
    {
      "midi": 74,
      "hit": false,
      "t": 16793.45475,
      "d": 163.0432499999988,
      "v": 60
    },
    {
      "midi": 76,
      "hit": false,
      "t": 16956.498,
      "d": 326.08650000000125,
      "v": 60
    },
    {
      "midi": 74,
      "hit": false,
      "t": 17282.5845,
      "d": 163.0432499999988,
      "v": 60
    },
    {
      "midi": 72,
      "hit": false,
      "t": 17445.62775,
      "d": 163.0432499999988,
      "v": 60
    },
    {
      "midi": 74,
      "hit": false,
      "t": 17608.671,
      "d": 1304.3460000000014,
      "v": 60
    },
    {
      "midi": 53,
      "hit": false,
      "t": 18260.844,
      "d": 1141.302749999999,
      "v": 10
    },
    {
      "midi": 58,
      "hit": false,
      "t": 18260.844,
      "d": 1141.302749999999,
      "v": 10
    },
    {
      "midi": 62,
      "hit": false,
      "t": 18260.844,
      "d": 1141.302749999999,
      "v": 10
    },
    {
      "midi": 53,
      "hit": false,
      "t": 18260.844,
      "d": 1141.302749999999,
      "v": 10
    },
    {
      "midi": 58,
      "hit": false,
      "t": 18260.844,
      "d": 1141.302749999999,
      "v": 10
    },
    {
      "midi": 62,
      "hit": false,
      "t": 18260.844,
      "d": 1141.302749999999,
      "v": 10
    },
    {
      "midi": 65,
      "hit": false,
      "t": 18913.017,
      "d": 326.08650000000125,
      "v": 60
    },
    {
      "midi": 70,
      "hit": false,
      "t": 19239.1035,
      "d": 326.08650000000125,
      "v": 60
    },
    {
      "midi": 55,
      "hit": false,
      "t": 19565.19,
      "d": 1141.302749999999,
      "v": 10
    },
    {
      "midi": 58,
      "hit": false,
      "t": 19565.19,
      "d": 1141.302749999999,
      "v": 10
    },
    {
      "midi": 63,
      "hit": false,
      "t": 19565.19,
      "d": 1141.302749999999,
      "v": 10
    },
    {
      "midi": 55,
      "hit": false,
      "t": 19565.19,
      "d": 1141.302749999999,
      "v": 10
    },
    {
      "midi": 58,
      "hit": false,
      "t": 19565.19,
      "d": 1141.302749999999,
      "v": 10
    },
    {
      "midi": 63,
      "hit": false,
      "t": 19565.19,
      "d": 1141.302749999999,
      "v": 10
    },
    {
      "midi": 67,
      "hit": false,
      "t": 19565.190000000002,
      "d": 1304.3460000000014,
      "v": 60
    },
    {
      "midi": 52,
      "hit": false,
      "t": 20869.535999999996,
      "d": 7663.032750000002,
      "v": 10
    },
    {
      "midi": 55,
      "hit": false,
      "t": 20869.535999999996,
      "d": 7663.032750000002,
      "v": 10
    },
    {
      "midi": 59,
      "hit": false,
      "t": 20869.535999999996,
      "d": 7663.032750000002,
      "v": 10
    },
    {
      "midi": 52,
      "hit": false,
      "t": 20869.535999999996,
      "d": 7663.032750000002,
      "v": 10
    },
    {
      "midi": 55,
      "hit": false,
      "t": 20869.535999999996,
      "d": 7663.032750000002,
      "v": 10
    },
    {
      "midi": 59,
      "hit": false,
      "t": 20869.535999999996,
      "d": 7663.032750000002,
      "v": 10
    },
    {
      "midi": 67,
      "hit": false,
      "t": 21195.622500000005,
      "d": 326.08650000000125,
      "v": 75
    },
    {
      "midi": 66,
      "hit": false,
      "t": 21521.709000000006,
      "d": 326.08650000000125,
      "v": 75
    },
    {
      "midi": 67,
      "hit": false,
      "t": 21847.795500000007,
      "d": 163.0432499999988,
      "v": 75
    },
    {
      "midi": 69,
      "hit": false,
      "t": 22010.838750000006,
      "d": 163.0432499999988,
      "v": 75
    },
    {
      "midi": 71,
      "hit": false,
      "t": 22173.882000000005,
      "d": 326.08650000000125,
      "v": 75
    },
    {
      "midi": 69,
      "hit": false,
      "t": 22499.968500000006,
      "d": 163.0432499999988,
      "v": 75
    },
    {
      "midi": 67,
      "hit": false,
      "t": 22663.011750000005,
      "d": 163.0432499999988,
      "v": 75
    },
    {
      "midi": 69,
      "hit": false,
      "t": 22826.055000000004,
      "d": 326.08650000000125,
      "v": 75
    },
    {
      "midi": 66,
      "hit": false,
      "t": 23152.141500000005,
      "d": 163.0432499999988,
      "v": 75
    },
    {
      "midi": 69,
      "hit": false,
      "t": 23315.184750000004,
      "d": 163.0432499999988,
      "v": 75
    },
    {
      "midi": 67,
      "hit": false,
      "t": 23478.228000000003,
      "d": 326.08650000000125,
      "v": 75
    },
    {
      "midi": 66,
      "hit": false,
      "t": 23804.314500000004,
      "d": 163.0432499999988,
      "v": 75
    },
    {
      "midi": 64,
      "hit": false,
      "t": 23967.357750000003,
      "d": 163.0432499999988,
      "v": 75
    },
    {
      "midi": 66,
      "hit": false,
      "t": 24130.401,
      "d": 326.08650000000125,
      "v": 75
    },
    {
      "midi": 62,
      "hit": false,
      "t": 24456.487500000003,
      "d": 326.08650000000125,
      "v": 75
    },
    {
      "midi": 64,
      "hit": false,
      "t": 24782.574000000004,
      "d": 652.1729999999989,
      "v": 75
    },
    {
      "midi": 64,
      "hit": false,
      "t": 25434.747000000003,
      "d": 3097.821749999999,
      "v": 75
    },
    {
      "midi": 40,
      "hit": false,
      "t": 28695.611999999997,
      "d": 543.4775000000009,
      "v": 92
    },
    {
      "midi": 36,
      "hit": false,
      "t": 28695.612,
      "d": 156.24978125000052,
      "v": 63
    },
    {
      "midi": 46,
      "hit": false,
      "t": 28695.612,
      "d": 156.24978125000052,
      "v": 63
    },
    {
      "midi": 69,
      "hit": false,
      "t": 28695.612,
      "d": 33.96734374999869,
      "v": 60
    },
    {
      "midi": 71,
      "hit": false,
      "t": 28736.372812499998,
      "d": 33.96734374999869,
      "v": 60
    },
    {
      "midi": 72,
      "hit": false,
      "t": 28777.133624999995,
      "d": 33.96734374999869,
      "v": 60
    },
    {
      "midi": 64,
      "hit": false,
      "t": 28817.894437499992,
      "d": 2323.366312500002,
      "v": 60
    },
    {
      "midi": 67,
      "hit": false,
      "t": 28817.894437499992,
      "d": 2323.366312500002,
      "v": 60
    },
    {
      "midi": 71,
      "hit": false,
      "t": 28817.894437499992,
      "d": 2323.366312500002,
      "v": 60
    },
    {
      "midi": 74,
      "hit": false,
      "t": 28817.894437499992,
      "d": 2323.366312500002,
      "v": 60
    },
    {
      "midi": 42,
      "hit": false,
      "t": 28858.65525,
      "d": 156.24978125000052,
      "v": 45
    },
    {
      "midi": 44,
      "hit": false,
      "t": 29021.6985,
      "d": 156.24978125000052,
      "v": 45
    },
    {
      "midi": 36,
      "hit": false,
      "t": 29184.741749999997,
      "d": 156.24978125000052,
      "v": 45
    },
    {
      "midi": 42,
      "hit": false,
      "t": 29184.741749999997,
      "d": 156.24978125000052,
      "v": 45
    },
    {
      "midi": 38,
      "hit": false,
      "t": 29347.784999999996,
      "d": 156.24978125000052,
      "v": 45
    },
    {
      "midi": 44,
      "hit": false,
      "t": 29347.784999999996,
      "d": 156.24978125000052,
      "v": 45
    },
    {
      "midi": 42,
      "hit": false,
      "t": 29510.828249999995,
      "d": 156.24978125000052,
      "v": 45
    },
    {
      "midi": 44,
      "hit": false,
      "t": 29673.871499999994,
      "d": 156.24978125000052,
      "v": 45
    },
    {
      "midi": 40,
      "hit": false,
      "t": 29673.871499999997,
      "d": 319.29303124999933,
      "v": 92
    },
    {
      "midi": 36,
      "hit": false,
      "t": 29836.914749999993,
      "d": 156.24978125000052,
      "v": 45
    },
    {
      "midi": 46,
      "hit": false,
      "t": 29836.914749999993,
      "d": 156.24978125000052,
      "v": 45
    },
    {
      "midi": 42,
      "hit": false,
      "t": 29999.95799999999,
      "d": 156.24978125000052,
      "v": 45
    },
    {
      "midi": 44,
      "hit": false,
      "t": 30163.00124999999,
      "d": 156.24978125000052,
      "v": 45
    },
    {
      "midi": 36,
      "hit": false,
      "t": 30326.04449999999,
      "d": 156.24978125000052,
      "v": 45
    },
    {
      "midi": 42,
      "hit": false,
      "t": 30326.04449999999,
      "d": 156.24978125000052,
      "v": 45
    },
    {
      "midi": 44,
      "hit": false,
      "t": 30489.087749999988,
      "d": 156.24978125000052,
      "v": 45
    },
    {
      "midi": 38,
      "hit": false,
      "t": 30652.130999999987,
      "d": 156.24978125000052,
      "v": 45
    },
    {
      "midi": 42,
      "hit": false,
      "t": 30652.130999999987,
      "d": 156.24978125000052,
      "v": 45
    },
    {
      "midi": 47,
      "hit": false,
      "t": 30652.130999999998,
      "d": 319.29303124999933,
      "v": 92
    },
    {
      "midi": 44,
      "hit": false,
      "t": 30815.174249999985,
      "d": 156.24978125000052,
      "v": 45
    },
    {
      "midi": 42,
      "hit": false,
      "t": 30978.217499999984,
      "d": 156.24978125000052,
      "v": 45
    },
    {
      "midi": 40,
      "hit": false,
      "t": 30978.217499999995,
      "d": 319.29303124999933,
      "v": 92
    },
    {
      "midi": 44,
      "hit": false,
      "t": 31141.260749999983,
      "d": 156.24978125000052,
      "v": 45
    },
    {
      "midi": 36,
      "hit": false,
      "t": 31304.303999999982,
      "d": 156.24978125000052,
      "v": 63
    },
    {
      "midi": 46,
      "hit": false,
      "t": 31304.303999999982,
      "d": 156.24978125000052,
      "v": 63
    },
    {
      "midi": 64,
      "hit": false,
      "t": 31304.303999999993,
      "d": 2445.648750000004,
      "v": 60
    },
    {
      "midi": 67,
      "hit": false,
      "t": 31304.303999999993,
      "d": 2445.648750000004,
      "v": 60
    },
    {
      "midi": 70,
      "hit": false,
      "t": 31304.303999999993,
      "d": 2445.648750000004,
      "v": 60
    },
    {
      "midi": 74,
      "hit": false,
      "t": 31304.303999999993,
      "d": 2445.648750000004,
      "v": 60
    },
    {
      "midi": 36,
      "hit": false,
      "t": 31304.303999999993,
      "d": 543.4775000000009,
      "v": 92
    },
    {
      "midi": 42,
      "hit": false,
      "t": 31467.34724999998,
      "d": 156.24978125000052,
      "v": 45
    },
    {
      "midi": 44,
      "hit": false,
      "t": 31630.39049999998,
      "d": 156.24978125000052,
      "v": 45
    },
    {
      "midi": 36,
      "hit": false,
      "t": 31793.43374999998,
      "d": 156.24978125000052,
      "v": 45
    },
    {
      "midi": 42,
      "hit": false,
      "t": 31793.43374999998,
      "d": 156.24978125000052,
      "v": 45
    },
    {
      "midi": 38,
      "hit": false,
      "t": 31956.476999999977,
      "d": 156.24978125000052,
      "v": 45
    },
    {
      "midi": 44,
      "hit": false,
      "t": 31956.476999999977,
      "d": 156.24978125000052,
      "v": 45
    },
    {
      "midi": 42,
      "hit": false,
      "t": 32119.520249999976,
      "d": 156.24978125000052,
      "v": 45
    },
    {
      "midi": 44,
      "hit": false,
      "t": 32282.563499999975,
      "d": 156.24978125000052,
      "v": 45
    },
    {
      "midi": 36,
      "hit": false,
      "t": 32282.563499999993,
      "d": 319.29303124999933,
      "v": 92
    },
    {
      "midi": 36,
      "hit": false,
      "t": 32445.606749999974,
      "d": 156.24978125000052,
      "v": 45
    },
    {
      "midi": 46,
      "hit": false,
      "t": 32445.606749999974,
      "d": 156.24978125000052,
      "v": 45
    },
    {
      "midi": 42,
      "hit": false,
      "t": 32608.649999999972,
      "d": 156.24978125000052,
      "v": 45
    },
    {
      "midi": 44,
      "hit": false,
      "t": 32771.693249999975,
      "d": 156.24978125000052,
      "v": 45
    },
    {
      "midi": 36,
      "hit": false,
      "t": 32934.73649999998,
      "d": 156.24978125000052,
      "v": 45
    },
    {
      "midi": 42,
      "hit": false,
      "t": 32934.73649999998,
      "d": 156.24978125000052,
      "v": 45
    },
    {
      "midi": 44,
      "hit": false,
      "t": 33097.77974999998,
      "d": 156.24978125000052,
      "v": 45
    },
    {
      "midi": 38,
      "hit": false,
      "t": 33260.82299999998,
      "d": 156.24978125000052,
      "v": 45
    },
    {
      "midi": 42,
      "hit": false,
      "t": 33260.82299999998,
      "d": 156.24978125000052,
      "v": 45
    },
    {
      "midi": 36,
      "hit": false,
      "t": 33260.82299999999,
      "d": 319.29303125000297,
      "v": 92
    },
    {
      "midi": 44,
      "hit": false,
      "t": 33423.866249999985,
      "d": 156.24978125000052,
      "v": 45
    },
    {
      "midi": 42,
      "hit": false,
      "t": 33586.90949999999,
      "d": 156.24978125000052,
      "v": 45
    },
    {
      "midi": 38,
      "hit": false,
      "t": 33586.909499999994,
      "d": 319.29303125000297,
      "v": 92
    },
    {
      "midi": 44,
      "hit": false,
      "t": 33749.95274999999,
      "d": 156.24978125000052,
      "v": 45
    },
    {
      "midi": 36,
      "hit": false,
      "t": 33912.99599999999,
      "d": 156.24978125000052,
      "v": 63
    },
    {
      "midi": 46,
      "hit": false,
      "t": 33912.99599999999,
      "d": 156.24978125000052,
      "v": 63
    },
    {
      "midi": 64,
      "hit": false,
      "t": 33912.996,
      "d": 2445.6487500000003,
      "v": 60
    },
    {
      "midi": 67,
      "hit": false,
      "t": 33912.996,
      "d": 2445.6487500000003,
      "v": 60
    },
    {
      "midi": 71,
      "hit": false,
      "t": 33912.996,
      "d": 2445.6487500000003,
      "v": 60
    },
    {
      "midi": 74,
      "hit": false,
      "t": 33912.996,
      "d": 2445.6487500000003,
      "v": 60
    },
    {
      "midi": 52,
      "hit": false,
      "t": 33912.996,
      "d": 2445.6487500000003,
      "v": 75
    },
    {
      "midi": 55,
      "hit": false,
      "t": 33912.996,
      "d": 2445.6487500000003,
      "v": 75
    },
    {
      "midi": 59,
      "hit": false,
      "t": 33912.996,
      "d": 2445.6487500000003,
      "v": 75
    },
    {
      "midi": 62,
      "hit": false,
      "t": 33912.996,
      "d": 2445.6487500000003,
      "v": 75
    },
    {
      "midi": 40,
      "hit": false,
      "t": 33912.996,
      "d": 543.4775000000009,
      "v": 92
    },
    {
      "midi": 42,
      "hit": false,
      "t": 34076.039249999994,
      "d": 156.24978125000052,
      "v": 45
    },
    {
      "midi": 44,
      "hit": false,
      "t": 34239.0825,
      "d": 156.24978125000052,
      "v": 45
    },
    {
      "midi": 36,
      "hit": false,
      "t": 34402.12575,
      "d": 156.24978125000052,
      "v": 45
    },
    {
      "midi": 42,
      "hit": false,
      "t": 34402.12575,
      "d": 156.24978125000052,
      "v": 45
    },
    {
      "midi": 38,
      "hit": false,
      "t": 34565.169,
      "d": 156.24978125000052,
      "v": 45
    },
    {
      "midi": 44,
      "hit": false,
      "t": 34565.169,
      "d": 156.24978125000052,
      "v": 45
    },
    {
      "midi": 42,
      "hit": false,
      "t": 34728.212250000004,
      "d": 156.24978125000052,
      "v": 45
    },
    {
      "midi": 40,
      "hit": false,
      "t": 34891.2555,
      "d": 319.29303125000297,
      "v": 92
    },
    {
      "midi": 44,
      "hit": false,
      "t": 34891.25550000001,
      "d": 156.24978125000052,
      "v": 45
    },
    {
      "midi": 36,
      "hit": false,
      "t": 35054.29875000001,
      "d": 156.24978125000052,
      "v": 45
    },
    {
      "midi": 46,
      "hit": false,
      "t": 35054.29875000001,
      "d": 156.24978125000052,
      "v": 45
    },
    {
      "midi": 42,
      "hit": false,
      "t": 35217.34200000001,
      "d": 156.24978125000052,
      "v": 45
    },
    {
      "midi": 44,
      "hit": false,
      "t": 35380.385250000014,
      "d": 156.24978125000052,
      "v": 45
    },
    {
      "midi": 36,
      "hit": false,
      "t": 35543.428500000016,
      "d": 156.24978125000052,
      "v": 45
    },
    {
      "midi": 42,
      "hit": false,
      "t": 35543.428500000016,
      "d": 156.24978125000052,
      "v": 45
    },
    {
      "midi": 44,
      "hit": false,
      "t": 35706.47175000002,
      "d": 156.24978125000052,
      "v": 45
    },
    {
      "midi": 47,
      "hit": false,
      "t": 35869.515,
      "d": 319.29303125000297,
      "v": 92
    },
    {
      "midi": 38,
      "hit": false,
      "t": 35869.51500000002,
      "d": 156.24978125000052,
      "v": 45
    },
    {
      "midi": 42,
      "hit": false,
      "t": 35869.51500000002,
      "d": 156.24978125000052,
      "v": 45
    },
    {
      "midi": 44,
      "hit": false,
      "t": 36032.558250000024,
      "d": 156.24978125000052,
      "v": 45
    },
    {
      "midi": 40,
      "hit": false,
      "t": 36195.601500000004,
      "d": 319.29303125000297,
      "v": 92
    },
    {
      "midi": 42,
      "hit": false,
      "t": 36195.601500000026,
      "d": 156.24978125000052,
      "v": 45
    },
    {
      "midi": 44,
      "hit": false,
      "t": 36358.64475000003,
      "d": 156.24978125000052,
      "v": 45
    },
    {
      "midi": 64,
      "hit": false,
      "t": 36521.688,
      "d": 2445.6487500000003,
      "v": 60
    },
    {
      "midi": 67,
      "hit": false,
      "t": 36521.688,
      "d": 2445.6487500000003,
      "v": 60
    },
    {
      "midi": 70,
      "hit": false,
      "t": 36521.688,
      "d": 2445.6487500000003,
      "v": 60
    },
    {
      "midi": 74,
      "hit": false,
      "t": 36521.688,
      "d": 2445.6487500000003,
      "v": 60
    },
    {
      "midi": 52,
      "hit": false,
      "t": 36521.688,
      "d": 2445.6487500000003,
      "v": 75
    },
    {
      "midi": 55,
      "hit": false,
      "t": 36521.688,
      "d": 2445.6487500000003,
      "v": 75
    },
    {
      "midi": 58,
      "hit": false,
      "t": 36521.688,
      "d": 2445.6487500000003,
      "v": 75
    },
    {
      "midi": 62,
      "hit": false,
      "t": 36521.688,
      "d": 2445.6487500000003,
      "v": 75
    },
    {
      "midi": 36,
      "hit": false,
      "t": 36521.68800000001,
      "d": 543.4775000000009,
      "v": 92
    },
    {
      "midi": 36,
      "hit": false,
      "t": 36521.68800000003,
      "d": 156.24978125000052,
      "v": 63
    },
    {
      "midi": 46,
      "hit": false,
      "t": 36521.68800000003,
      "d": 156.24978125000052,
      "v": 63
    },
    {
      "midi": 42,
      "hit": false,
      "t": 36684.73125000003,
      "d": 156.24978125000052,
      "v": 45
    },
    {
      "midi": 44,
      "hit": false,
      "t": 36847.774500000036,
      "d": 156.24978125000052,
      "v": 45
    },
    {
      "midi": 36,
      "hit": false,
      "t": 37010.81775000004,
      "d": 156.24978125000052,
      "v": 45
    },
    {
      "midi": 42,
      "hit": false,
      "t": 37010.81775000004,
      "d": 156.24978125000052,
      "v": 45
    },
    {
      "midi": 38,
      "hit": false,
      "t": 37173.86100000004,
      "d": 156.24978125000052,
      "v": 45
    },
    {
      "midi": 44,
      "hit": false,
      "t": 37173.86100000004,
      "d": 156.24978125000052,
      "v": 45
    },
    {
      "midi": 42,
      "hit": false,
      "t": 37336.90425000004,
      "d": 156.24978125000052,
      "v": 45
    },
    {
      "midi": 36,
      "hit": false,
      "t": 37499.94750000001,
      "d": 319.29303125000297,
      "v": 92
    },
    {
      "midi": 44,
      "hit": false,
      "t": 37499.947500000046,
      "d": 156.24978125000052,
      "v": 45
    },
    {
      "midi": 36,
      "hit": false,
      "t": 37662.99075000005,
      "d": 156.24978125000052,
      "v": 45
    },
    {
      "midi": 46,
      "hit": false,
      "t": 37662.99075000005,
      "d": 156.24978125000052,
      "v": 45
    },
    {
      "midi": 42,
      "hit": false,
      "t": 37826.03400000005,
      "d": 156.24978125000052,
      "v": 45
    },
    {
      "midi": 44,
      "hit": false,
      "t": 37989.07725000005,
      "d": 156.24978125000052,
      "v": 45
    },
    {
      "midi": 36,
      "hit": false,
      "t": 38152.120500000055,
      "d": 156.24978125000052,
      "v": 45
    },
    {
      "midi": 42,
      "hit": false,
      "t": 38152.120500000055,
      "d": 156.24978125000052,
      "v": 45
    },
    {
      "midi": 44,
      "hit": false,
      "t": 38315.16375000006,
      "d": 156.24978125000052,
      "v": 45
    },
    {
      "midi": 36,
      "hit": false,
      "t": 38478.20700000001,
      "d": 319.29303125000297,
      "v": 92
    },
    {
      "midi": 38,
      "hit": false,
      "t": 38478.20700000006,
      "d": 156.24978125000052,
      "v": 45
    },
    {
      "midi": 42,
      "hit": false,
      "t": 38478.20700000006,
      "d": 156.24978125000052,
      "v": 45
    },
    {
      "midi": 44,
      "hit": false,
      "t": 38641.25025000006,
      "d": 156.24978125000052,
      "v": 45
    },
    {
      "midi": 38,
      "hit": false,
      "t": 38804.293500000014,
      "d": 319.29303125000297,
      "v": 92
    },
    {
      "midi": 42,
      "hit": false,
      "t": 38804.293500000065,
      "d": 156.24978125000052,
      "v": 45
    },
    {
      "midi": 44,
      "hit": false,
      "t": 38967.33675000007,
      "d": 156.24978125000052,
      "v": 45
    },
    {
      "midi": 59,
      "hit": false,
      "t": 39130.380000000005,
      "d": 319.29303125000297,
      "v": 60
    },
    {
      "midi": 40,
      "hit": false,
      "t": 39130.380000000005,
      "d": 543.4775000000009,
      "v": 60
    },
    {
      "midi": 40,
      "hit": false,
      "t": 39130.38000000002,
      "d": 543.4775000000009,
      "v": 92
    },
    {
      "midi": 36,
      "hit": false,
      "t": 39130.38000000007,
      "d": 156.24978125000052,
      "v": 63
    },
    {
      "midi": 46,
      "hit": false,
      "t": 39130.38000000007,
      "d": 156.24978125000052,
      "v": 63
    },
    {
      "midi": 42,
      "hit": false,
      "t": 39293.42325000007,
      "d": 156.24978125000052,
      "v": 45
    },
    {
      "midi": 59,
      "hit": false,
      "t": 39456.46650000001,
      "d": 319.29303125000297,
      "v": 60
    },
    {
      "midi": 44,
      "hit": false,
      "t": 39456.466500000075,
      "d": 156.24978125000052,
      "v": 45
    },
    {
      "midi": 36,
      "hit": false,
      "t": 39619.50975000008,
      "d": 156.24978125000052,
      "v": 45
    },
    {
      "midi": 42,
      "hit": false,
      "t": 39619.50975000008,
      "d": 156.24978125000052,
      "v": 45
    },
    {
      "midi": 67,
      "hit": false,
      "t": 39782.553000000014,
      "d": 1141.3027500000026,
      "v": 60
    },
    {
      "midi": 38,
      "hit": false,
      "t": 39782.55300000008,
      "d": 156.24978125000052,
      "v": 45
    },
    {
      "midi": 44,
      "hit": false,
      "t": 39782.55300000008,
      "d": 156.24978125000052,
      "v": 45
    },
    {
      "midi": 42,
      "hit": false,
      "t": 39945.59625000008,
      "d": 156.24978125000052,
      "v": 45
    },
    {
      "midi": 40,
      "hit": false,
      "t": 40108.639500000005,
      "d": 319.29303125000297,
      "v": 60
    },
    {
      "midi": 76,
      "hit": false,
      "t": 40108.639500000005,
      "d": 156.24978125000052,
      "v": 30
    },
    {
      "midi": 40,
      "hit": false,
      "t": 40108.63950000002,
      "d": 319.29303125000297,
      "v": 92
    },
    {
      "midi": 44,
      "hit": false,
      "t": 40108.639500000085,
      "d": 156.24978125000052,
      "v": 45
    },
    {
      "midi": 79,
      "hit": false,
      "t": 40271.68275000001,
      "d": 156.24978125000052,
      "v": 30
    },
    {
      "midi": 36,
      "hit": false,
      "t": 40271.68275000009,
      "d": 156.24978125000052,
      "v": 45
    },
    {
      "midi": 46,
      "hit": false,
      "t": 40271.68275000009,
      "d": 156.24978125000052,
      "v": 45
    },
    {
      "midi": 42,
      "hit": false,
      "t": 40434.72600000009,
      "d": 156.24978125000052,
      "v": 45
    },
    {
      "midi": 44,
      "hit": false,
      "t": 40597.76925000009,
      "d": 156.24978125000052,
      "v": 45
    },
    {
      "midi": 36,
      "hit": false,
      "t": 40760.812500000095,
      "d": 156.24978125000052,
      "v": 45
    },
    {
      "midi": 42,
      "hit": false,
      "t": 40760.812500000095,
      "d": 156.24978125000052,
      "v": 45
    },
    {
      "midi": 44,
      "hit": false,
      "t": 40923.8557500001,
      "d": 156.24978125000052,
      "v": 45
    },
    {
      "midi": 47,
      "hit": false,
      "t": 41086.899000000005,
      "d": 319.29303125000297,
      "v": 60
    },
    {
      "midi": 66,
      "hit": false,
      "t": 41086.89900000002,
      "d": 319.29303125000297,
      "v": 60
    },
    {
      "midi": 47,
      "hit": false,
      "t": 41086.89900000002,
      "d": 319.29303125000297,
      "v": 92
    },
    {
      "midi": 38,
      "hit": false,
      "t": 41086.8990000001,
      "d": 156.24978125000052,
      "v": 45
    },
    {
      "midi": 42,
      "hit": false,
      "t": 41086.8990000001,
      "d": 156.24978125000052,
      "v": 45
    },
    {
      "midi": 44,
      "hit": false,
      "t": 41249.9422500001,
      "d": 156.24978125000052,
      "v": 45
    },
    {
      "midi": 40,
      "hit": false,
      "t": 41412.98550000001,
      "d": 319.29303125000297,
      "v": 60
    },
    {
      "midi": 74,
      "hit": false,
      "t": 41412.98550000001,
      "d": 156.24978125000052,
      "v": 30
    },
    {
      "midi": 64,
      "hit": false,
      "t": 41412.985500000024,
      "d": 319.29303125000297,
      "v": 60
    },
    {
      "midi": 40,
      "hit": false,
      "t": 41412.985500000024,
      "d": 319.29303125000297,
      "v": 92
    },
    {
      "midi": 42,
      "hit": false,
      "t": 41412.985500000104,
      "d": 156.24978125000052,
      "v": 45
    },
    {
      "midi": 79,
      "hit": false,
      "t": 41576.02875000001,
      "d": 156.24978125000052,
      "v": 30
    },
    {
      "midi": 44,
      "hit": false,
      "t": 41576.02875000011,
      "d": 156.24978125000052,
      "v": 45
    },
    {
      "midi": 36,
      "hit": false,
      "t": 41739.072000000015,
      "d": 543.4775000000009,
      "v": 60
    },
    {
      "midi": 64,
      "hit": false,
      "t": 41739.07200000003,
      "d": 543.4775000000009,
      "v": 60
    },
    {
      "midi": 36,
      "hit": false,
      "t": 41739.07200000003,
      "d": 543.4775000000009,
      "v": 92
    },
    {
      "midi": 36,
      "hit": false,
      "t": 41739.07200000011,
      "d": 156.24978125000052,
      "v": 63
    },
    {
      "midi": 46,
      "hit": false,
      "t": 41739.07200000011,
      "d": 156.24978125000052,
      "v": 63
    },
    {
      "midi": 42,
      "hit": false,
      "t": 41902.11525000011,
      "d": 156.24978125000052,
      "v": 45
    },
    {
      "midi": 44,
      "hit": false,
      "t": 42065.158500000114,
      "d": 156.24978125000052,
      "v": 45
    },
    {
      "midi": 36,
      "hit": false,
      "t": 42228.20175000012,
      "d": 156.24978125000052,
      "v": 45
    },
    {
      "midi": 42,
      "hit": false,
      "t": 42228.20175000012,
      "d": 156.24978125000052,
      "v": 45
    },
    {
      "midi": 58,
      "hit": false,
      "t": 42391.24500000003,
      "d": 1793.4757499999978,
      "v": 60
    },
    {
      "midi": 38,
      "hit": false,
      "t": 42391.24500000012,
      "d": 156.24978125000052,
      "v": 45
    },
    {
      "midi": 44,
      "hit": false,
      "t": 42391.24500000012,
      "d": 156.24978125000052,
      "v": 45
    },
    {
      "midi": 42,
      "hit": false,
      "t": 42554.28825000012,
      "d": 156.24978125000052,
      "v": 45
    },
    {
      "midi": 36,
      "hit": false,
      "t": 42717.331500000015,
      "d": 319.29303125000297,
      "v": 60
    },
    {
      "midi": 76,
      "hit": false,
      "t": 42717.331500000015,
      "d": 156.24978125000052,
      "v": 30
    },
    {
      "midi": 36,
      "hit": false,
      "t": 42717.33150000003,
      "d": 319.29303125000297,
      "v": 92
    },
    {
      "midi": 44,
      "hit": false,
      "t": 42717.331500000124,
      "d": 156.24978125000052,
      "v": 45
    },
    {
      "midi": 79,
      "hit": false,
      "t": 42880.37475000002,
      "d": 156.24978125000052,
      "v": 30
    },
    {
      "midi": 36,
      "hit": false,
      "t": 42880.37475000013,
      "d": 156.24978125000052,
      "v": 45
    },
    {
      "midi": 46,
      "hit": false,
      "t": 42880.37475000013,
      "d": 156.24978125000052,
      "v": 45
    },
    {
      "midi": 42,
      "hit": false,
      "t": 43043.41800000013,
      "d": 156.24978125000052,
      "v": 45
    },
    {
      "midi": 44,
      "hit": false,
      "t": 43206.46125000013,
      "d": 156.24978125000052,
      "v": 45
    },
    {
      "midi": 36,
      "hit": false,
      "t": 43369.504500000134,
      "d": 156.24978125000052,
      "v": 45
    },
    {
      "midi": 42,
      "hit": false,
      "t": 43369.504500000134,
      "d": 156.24978125000052,
      "v": 45
    },
    {
      "midi": 44,
      "hit": false,
      "t": 43532.547750000136,
      "d": 156.24978125000052,
      "v": 45
    },
    {
      "midi": 36,
      "hit": false,
      "t": 43695.591000000015,
      "d": 319.29303125000297,
      "v": 60
    },
    {
      "midi": 36,
      "hit": false,
      "t": 43695.59100000003,
      "d": 319.29303125000297,
      "v": 92
    },
    {
      "midi": 38,
      "hit": false,
      "t": 43695.59100000014,
      "d": 156.24978125000052,
      "v": 45
    },
    {
      "midi": 42,
      "hit": false,
      "t": 43695.59100000014,
      "d": 156.24978125000052,
      "v": 45
    },
    {
      "midi": 44,
      "hit": false,
      "t": 43858.63425000014,
      "d": 156.24978125000052,
      "v": 45
    },
    {
      "midi": 38,
      "hit": false,
      "t": 44021.67750000002,
      "d": 319.29303125000297,
      "v": 60
    },
    {
      "midi": 74,
      "hit": false,
      "t": 44021.67750000002,
      "d": 156.24978125000052,
      "v": 30
    },
    {
      "midi": 38,
      "hit": false,
      "t": 44021.677500000034,
      "d": 319.29303125000297,
      "v": 92
    },
    {
      "midi": 42,
      "hit": false,
      "t": 44021.67750000014,
      "d": 156.24978125000052,
      "v": 45
    },
    {
      "midi": 79,
      "hit": false,
      "t": 44184.72075000002,
      "d": 156.24978125000052,
      "v": 30
    },
    {
      "midi": 44,
      "hit": false,
      "t": 44184.720750000146,
      "d": 156.24978125000052,
      "v": 45
    },
    {
      "midi": 40,
      "hit": false,
      "t": 44347.764000000025,
      "d": 543.4775000000009,
      "v": 60
    },
    {
      "midi": 59,
      "hit": false,
      "t": 44347.76400000003,
      "d": 319.29303125000297,
      "v": 60
    },
    {
      "midi": 40,
      "hit": false,
      "t": 44347.76400000004,
      "d": 543.4775000000009,
      "v": 92
    },
    {
      "midi": 36,
      "hit": false,
      "t": 44347.76400000015,
      "d": 156.24978125000052,
      "v": 63
    },
    {
      "midi": 46,
      "hit": false,
      "t": 44347.76400000015,
      "d": 156.24978125000052,
      "v": 63
    },
    {
      "midi": 42,
      "hit": false,
      "t": 44510.80725000015,
      "d": 156.24978125000052,
      "v": 45
    },
    {
      "midi": 59,
      "hit": false,
      "t": 44673.85050000004,
      "d": 319.29303125000297,
      "v": 60
    },
    {
      "midi": 44,
      "hit": false,
      "t": 44673.85050000015,
      "d": 156.24978125000052,
      "v": 45
    },
    {
      "midi": 36,
      "hit": false,
      "t": 44836.893750000156,
      "d": 156.24978125000052,
      "v": 45
    },
    {
      "midi": 42,
      "hit": false,
      "t": 44836.893750000156,
      "d": 156.24978125000052,
      "v": 45
    },
    {
      "midi": 67,
      "hit": false,
      "t": 44999.93700000004,
      "d": 1141.3027500000026,
      "v": 60
    },
    {
      "midi": 38,
      "hit": false,
      "t": 44999.93700000016,
      "d": 156.24978125000052,
      "v": 45
    },
    {
      "midi": 44,
      "hit": false,
      "t": 44999.93700000016,
      "d": 156.24978125000052,
      "v": 45
    },
    {
      "midi": 42,
      "hit": false,
      "t": 45162.98025000016,
      "d": 156.24978125000052,
      "v": 45
    },
    {
      "midi": 40,
      "hit": false,
      "t": 45326.023500000025,
      "d": 319.29303125000297,
      "v": 60
    },
    {
      "midi": 76,
      "hit": false,
      "t": 45326.023500000025,
      "d": 156.24978125000052,
      "v": 30
    },
    {
      "midi": 40,
      "hit": false,
      "t": 45326.02350000004,
      "d": 319.29303125000297,
      "v": 92
    },
    {
      "midi": 44,
      "hit": false,
      "t": 45326.02350000016,
      "d": 156.24978125000052,
      "v": 45
    },
    {
      "midi": 79,
      "hit": false,
      "t": 45489.06675000003,
      "d": 156.24978125000052,
      "v": 30
    },
    {
      "midi": 36,
      "hit": false,
      "t": 45489.066750000165,
      "d": 156.24978125000052,
      "v": 45
    },
    {
      "midi": 46,
      "hit": false,
      "t": 45489.066750000165,
      "d": 156.24978125000052,
      "v": 45
    },
    {
      "midi": 42,
      "hit": false,
      "t": 45652.11000000017,
      "d": 156.24978125000052,
      "v": 45
    },
    {
      "midi": 44,
      "hit": false,
      "t": 45815.15325000017,
      "d": 156.24978125000052,
      "v": 45
    },
    {
      "midi": 36,
      "hit": false,
      "t": 45978.19650000017,
      "d": 156.24978125000052,
      "v": 45
    },
    {
      "midi": 42,
      "hit": false,
      "t": 45978.19650000017,
      "d": 156.24978125000052,
      "v": 45
    },
    {
      "midi": 44,
      "hit": false,
      "t": 46141.239750000175,
      "d": 156.24978125000052,
      "v": 45
    },
    {
      "midi": 47,
      "hit": false,
      "t": 46304.283000000025,
      "d": 319.29303125000297,
      "v": 60
    },
    {
      "midi": 47,
      "hit": false,
      "t": 46304.28300000004,
      "d": 319.29303125000297,
      "v": 92
    },
    {
      "midi": 66,
      "hit": false,
      "t": 46304.28300000005,
      "d": 319.29303125000297,
      "v": 60
    },
    {
      "midi": 38,
      "hit": false,
      "t": 46304.28300000018,
      "d": 156.24978125000052,
      "v": 45
    },
    {
      "midi": 42,
      "hit": false,
      "t": 46304.28300000018,
      "d": 156.24978125000052,
      "v": 45
    },
    {
      "midi": 44,
      "hit": false,
      "t": 46467.32625000018,
      "d": 156.24978125000052,
      "v": 45
    },
    {
      "midi": 40,
      "hit": false,
      "t": 46630.36950000003,
      "d": 319.29303125000297,
      "v": 60
    },
    {
      "midi": 74,
      "hit": false,
      "t": 46630.36950000003,
      "d": 156.24978125000052,
      "v": 30
    },
    {
      "midi": 40,
      "hit": false,
      "t": 46630.369500000044,
      "d": 319.29303125000297,
      "v": 92
    },
    {
      "midi": 63,
      "hit": false,
      "t": 46630.36950000005,
      "d": 319.29303125000297,
      "v": 60
    },
    {
      "midi": 42,
      "hit": false,
      "t": 46630.36950000018,
      "d": 156.24978125000052,
      "v": 45
    },
    {
      "midi": 79,
      "hit": false,
      "t": 46793.41275000003,
      "d": 156.24978125000052,
      "v": 30
    },
    {
      "midi": 44,
      "hit": false,
      "t": 46793.412750000185,
      "d": 156.24978125000052,
      "v": 45
    },
    {
      "midi": 36,
      "hit": false,
      "t": 46956.456000000035,
      "d": 543.4775000000009,
      "v": 60
    },
    {
      "midi": 36,
      "hit": false,
      "t": 46956.45600000005,
      "d": 543.4775000000009,
      "v": 92
    },
    {
      "midi": 64,
      "hit": false,
      "t": 46956.45600000006,
      "d": 543.4775000000009,
      "v": 60
    },
    {
      "midi": 36,
      "hit": false,
      "t": 46956.45600000019,
      "d": 156.24978125000052,
      "v": 63
    },
    {
      "midi": 46,
      "hit": false,
      "t": 46956.45600000019,
      "d": 156.24978125000052,
      "v": 63
    },
    {
      "midi": 42,
      "hit": false,
      "t": 47119.49925000019,
      "d": 156.24978125000052,
      "v": 45
    },
    {
      "midi": 44,
      "hit": false,
      "t": 47282.54250000019,
      "d": 156.24978125000052,
      "v": 45
    },
    {
      "midi": 36,
      "hit": false,
      "t": 47445.585750000195,
      "d": 156.24978125000052,
      "v": 45
    },
    {
      "midi": 42,
      "hit": false,
      "t": 47445.585750000195,
      "d": 156.24978125000052,
      "v": 45
    },
    {
      "midi": 38,
      "hit": false,
      "t": 47608.6290000002,
      "d": 156.24978125000052,
      "v": 45
    },
    {
      "midi": 44,
      "hit": false,
      "t": 47608.6290000002,
      "d": 156.24978125000052,
      "v": 45
    },
    {
      "midi": 42,
      "hit": false,
      "t": 47771.6722500002,
      "d": 156.24978125000052,
      "v": 45
    },
    {
      "midi": 36,
      "hit": false,
      "t": 47934.715500000035,
      "d": 319.29303125000297,
      "v": 60
    },
    {
      "midi": 76,
      "hit": false,
      "t": 47934.715500000035,
      "d": 156.24978125000052,
      "v": 30
    },
    {
      "midi": 36,
      "hit": false,
      "t": 47934.71550000005,
      "d": 319.29303125000297,
      "v": 92
    },
    {
      "midi": 64,
      "hit": false,
      "t": 47934.71550000006,
      "d": 319.29303125000297,
      "v": 60
    },
    {
      "midi": 44,
      "hit": false,
      "t": 47934.7155000002,
      "d": 156.24978125000052,
      "v": 45
    },
    {
      "midi": 79,
      "hit": false,
      "t": 48097.75875000004,
      "d": 156.24978125000052,
      "v": 30
    },
    {
      "midi": 36,
      "hit": false,
      "t": 48097.758750000205,
      "d": 156.24978125000052,
      "v": 45
    },
    {
      "midi": 46,
      "hit": false,
      "t": 48097.758750000205,
      "d": 156.24978125000052,
      "v": 45
    },
    {
      "midi": 62,
      "hit": false,
      "t": 48260.80200000006,
      "d": 319.29303125000297,
      "v": 60
    },
    {
      "midi": 42,
      "hit": false,
      "t": 48260.80200000021,
      "d": 156.24978125000052,
      "v": 45
    },
    {
      "midi": 44,
      "hit": false,
      "t": 48423.84525000021,
      "d": 156.24978125000052,
      "v": 45
    },
    {
      "midi": 60,
      "hit": false,
      "t": 48586.88850000007,
      "d": 319.29303125000297,
      "v": 60
    },
    {
      "midi": 36,
      "hit": false,
      "t": 48586.88850000021,
      "d": 156.24978125000052,
      "v": 45
    },
    {
      "midi": 42,
      "hit": false,
      "t": 48586.88850000021,
      "d": 156.24978125000052,
      "v": 45
    },
    {
      "midi": 44,
      "hit": false,
      "t": 48749.931750000214,
      "d": 156.24978125000052,
      "v": 45
    },
    {
      "midi": 36,
      "hit": false,
      "t": 48912.975000000035,
      "d": 319.29303125000297,
      "v": 60
    },
    {
      "midi": 36,
      "hit": false,
      "t": 48912.97500000005,
      "d": 319.29303125000297,
      "v": 92
    },
    {
      "midi": 58,
      "hit": false,
      "t": 48912.97500000007,
      "d": 319.29303125000297,
      "v": 60
    },
    {
      "midi": 38,
      "hit": false,
      "t": 48912.97500000022,
      "d": 156.24978125000052,
      "v": 45
    },
    {
      "midi": 42,
      "hit": false,
      "t": 48912.97500000022,
      "d": 156.24978125000052,
      "v": 45
    },
    {
      "midi": 44,
      "hit": false,
      "t": 49076.01825000022,
      "d": 156.24978125000052,
      "v": 45
    },
    {
      "midi": 38,
      "hit": false,
      "t": 49239.06150000004,
      "d": 319.29303125000297,
      "v": 60
    },
    {
      "midi": 74,
      "hit": false,
      "t": 49239.06150000004,
      "d": 156.24978125000052,
      "v": 30
    },
    {
      "midi": 38,
      "hit": false,
      "t": 49239.061500000054,
      "d": 319.29303125000297,
      "v": 92
    },
    {
      "midi": 60,
      "hit": false,
      "t": 49239.061500000076,
      "d": 319.29303125000297,
      "v": 60
    },
    {
      "midi": 42,
      "hit": false,
      "t": 49239.06150000022,
      "d": 156.24978125000052,
      "v": 45
    },
    {
      "midi": 79,
      "hit": false,
      "t": 49402.10475000004,
      "d": 156.24978125000052,
      "v": 30
    },
    {
      "midi": 44,
      "hit": false,
      "t": 49402.104750000224,
      "d": 156.24978125000052,
      "v": 45
    },
    {
      "midi": 40,
      "hit": false,
      "t": 49565.148000000045,
      "d": 543.4775000000009,
      "v": 60
    },
    {
      "midi": 40,
      "hit": false,
      "t": 49565.14800000006,
      "d": 543.4775000000009,
      "v": 92
    },
    {
      "midi": 59,
      "hit": false,
      "t": 49565.14800000008,
      "d": 2445.6487500000003,
      "v": 60
    },
    {
      "midi": 36,
      "hit": false,
      "t": 49565.14800000023,
      "d": 156.24978125000052,
      "v": 63
    },
    {
      "midi": 46,
      "hit": false,
      "t": 49565.14800000023,
      "d": 156.24978125000052,
      "v": 63
    },
    {
      "midi": 42,
      "hit": false,
      "t": 49728.19125000023,
      "d": 156.24978125000052,
      "v": 45
    },
    {
      "midi": 44,
      "hit": false,
      "t": 49891.23450000023,
      "d": 156.24978125000052,
      "v": 45
    },
    {
      "midi": 36,
      "hit": false,
      "t": 50054.277750000234,
      "d": 156.24978125000052,
      "v": 45
    },
    {
      "midi": 42,
      "hit": false,
      "t": 50054.277750000234,
      "d": 156.24978125000052,
      "v": 45
    },
    {
      "midi": 38,
      "hit": false,
      "t": 50217.32100000024,
      "d": 156.24978125000052,
      "v": 45
    },
    {
      "midi": 44,
      "hit": false,
      "t": 50217.32100000024,
      "d": 156.24978125000052,
      "v": 45
    },
    {
      "midi": 42,
      "hit": false,
      "t": 50380.36425000024,
      "d": 156.24978125000052,
      "v": 45
    },
    {
      "midi": 40,
      "hit": false,
      "t": 50543.407500000045,
      "d": 319.29303125000297,
      "v": 60
    },
    {
      "midi": 76,
      "hit": false,
      "t": 50543.407500000045,
      "d": 156.24978125000052,
      "v": 30
    },
    {
      "midi": 40,
      "hit": false,
      "t": 50543.40750000006,
      "d": 319.29303125000297,
      "v": 92
    },
    {
      "midi": 44,
      "hit": false,
      "t": 50543.40750000024,
      "d": 156.24978125000052,
      "v": 45
    },
    {
      "midi": 79,
      "hit": false,
      "t": 50706.45075000005,
      "d": 156.24978125000052,
      "v": 30
    },
    {
      "midi": 36,
      "hit": false,
      "t": 50706.450750000244,
      "d": 156.24978125000052,
      "v": 45
    },
    {
      "midi": 46,
      "hit": false,
      "t": 50706.450750000244,
      "d": 156.24978125000052,
      "v": 45
    },
    {
      "midi": 42,
      "hit": false,
      "t": 50869.494000000246,
      "d": 156.24978125000052,
      "v": 45
    },
    {
      "midi": 44,
      "hit": false,
      "t": 51032.53725000025,
      "d": 156.24978125000052,
      "v": 45
    },
    {
      "midi": 36,
      "hit": false,
      "t": 51195.58050000025,
      "d": 156.24978125000052,
      "v": 45
    },
    {
      "midi": 42,
      "hit": false,
      "t": 51195.58050000025,
      "d": 156.24978125000052,
      "v": 45
    },
    {
      "midi": 44,
      "hit": false,
      "t": 51358.62375000025,
      "d": 156.24978125000052,
      "v": 45
    },
    {
      "midi": 47,
      "hit": false,
      "t": 51521.667000000045,
      "d": 319.29303125000297,
      "v": 60
    },
    {
      "midi": 47,
      "hit": false,
      "t": 51521.66700000006,
      "d": 319.29303125000297,
      "v": 92
    },
    {
      "midi": 38,
      "hit": false,
      "t": 51521.667000000256,
      "d": 156.24978125000052,
      "v": 45
    },
    {
      "midi": 42,
      "hit": false,
      "t": 51521.667000000256,
      "d": 156.24978125000052,
      "v": 45
    },
    {
      "midi": 44,
      "hit": false,
      "t": 51684.71025000026,
      "d": 156.24978125000052,
      "v": 45
    },
    {
      "midi": 40,
      "hit": false,
      "t": 51847.75350000005,
      "d": 319.29303125000297,
      "v": 60
    },
    {
      "midi": 74,
      "hit": false,
      "t": 51847.75350000005,
      "d": 156.24978125000052,
      "v": 30
    },
    {
      "midi": 40,
      "hit": false,
      "t": 51847.753500000064,
      "d": 319.29303125000297,
      "v": 92
    },
    {
      "midi": 42,
      "hit": false,
      "t": 51847.75350000026,
      "d": 156.24978125000052,
      "v": 45
    },
    {
      "midi": 79,
      "hit": false,
      "t": 52010.79675000005,
      "d": 156.24978125000052,
      "v": 30
    },
    {
      "midi": 44,
      "hit": false,
      "t": 52010.79675000026,
      "d": 156.24978125000052,
      "v": 45
    },
    {
      "midi": 36,
      "hit": false,
      "t": 52173.840000000055,
      "d": 543.4775000000009,
      "v": 60
    },
    {
      "midi": 36,
      "hit": false,
      "t": 52173.84000000007,
      "d": 543.4775000000009,
      "v": 92
    },
    {
      "midi": 64,
      "hit": false,
      "t": 52173.840000000084,
      "d": 1141.3027500000026,
      "v": 60
    },
    {
      "midi": 67,
      "hit": false,
      "t": 52173.840000000084,
      "d": 1141.3027500000026,
      "v": 60
    },
    {
      "midi": 70,
      "hit": false,
      "t": 52173.840000000084,
      "d": 1141.3027500000026,
      "v": 60
    },
    {
      "midi": 74,
      "hit": false,
      "t": 52173.840000000084,
      "d": 1141.3027500000026,
      "v": 60
    },
    {
      "midi": 36,
      "hit": false,
      "t": 52173.840000000266,
      "d": 156.24978125000052,
      "v": 63
    },
    {
      "midi": 46,
      "hit": false,
      "t": 52173.840000000266,
      "d": 156.24978125000052,
      "v": 63
    },
    {
      "midi": 42,
      "hit": false,
      "t": 52336.88325000027,
      "d": 156.24978125000052,
      "v": 45
    },
    {
      "midi": 44,
      "hit": false,
      "t": 52499.92650000027,
      "d": 156.24978125000052,
      "v": 45
    },
    {
      "midi": 36,
      "hit": false,
      "t": 52662.96975000027,
      "d": 156.24978125000052,
      "v": 45
    },
    {
      "midi": 42,
      "hit": false,
      "t": 52662.96975000027,
      "d": 156.24978125000052,
      "v": 45
    },
    {
      "midi": 38,
      "hit": false,
      "t": 52826.013000000275,
      "d": 156.24978125000052,
      "v": 45
    },
    {
      "midi": 44,
      "hit": false,
      "t": 52826.013000000275,
      "d": 156.24978125000052,
      "v": 45
    },
    {
      "midi": 42,
      "hit": false,
      "t": 52989.05625000028,
      "d": 156.24978125000052,
      "v": 45
    },
    {
      "midi": 36,
      "hit": false,
      "t": 53152.099500000055,
      "d": 319.29303125000297,
      "v": 60
    },
    {
      "midi": 36,
      "hit": false,
      "t": 53152.09950000007,
      "d": 319.29303125000297,
      "v": 92
    },
    {
      "midi": 44,
      "hit": false,
      "t": 53152.09950000028,
      "d": 156.24978125000052,
      "v": 45
    },
    {
      "midi": 36,
      "hit": false,
      "t": 53315.14275000028,
      "d": 156.24978125000052,
      "v": 45
    },
    {
      "midi": 46,
      "hit": false,
      "t": 53315.14275000028,
      "d": 156.24978125000052,
      "v": 45
    },
    {
      "midi": 64,
      "hit": false,
      "t": 53478.18600000009,
      "d": 543.4775000000009,
      "v": 60
    },
    {
      "midi": 42,
      "hit": false,
      "t": 53478.186000000285,
      "d": 156.24978125000052,
      "v": 45
    },
    {
      "midi": 44,
      "hit": false,
      "t": 53641.22925000029,
      "d": 156.24978125000052,
      "v": 45
    },
    {
      "midi": 36,
      "hit": false,
      "t": 53804.27250000029,
      "d": 156.24978125000052,
      "v": 45
    },
    {
      "midi": 42,
      "hit": false,
      "t": 53804.27250000029,
      "d": 156.24978125000052,
      "v": 45
    },
    {
      "midi": 44,
      "hit": false,
      "t": 53967.31575000029,
      "d": 156.24978125000052,
      "v": 45
    },
    {
      "midi": 48,
      "hit": false,
      "t": 54130.359000000055,
      "d": 319.29303125000297,
      "v": 60
    },
    {
      "midi": 48,
      "hit": false,
      "t": 54130.35900000007,
      "d": 319.29303125000297,
      "v": 92
    },
    {
      "midi": 66,
      "hit": false,
      "t": 54130.35900000009,
      "d": 319.29303125000297,
      "v": 60
    },
    {
      "midi": 38,
      "hit": false,
      "t": 54130.359000000295,
      "d": 156.24978125000052,
      "v": 45
    },
    {
      "midi": 42,
      "hit": false,
      "t": 54130.359000000295,
      "d": 156.24978125000052,
      "v": 45
    },
    {
      "midi": 44,
      "hit": false,
      "t": 54293.4022500003,
      "d": 156.24978125000052,
      "v": 45
    },
    {
      "midi": 47,
      "hit": false,
      "t": 54456.44550000006,
      "d": 319.29303125000297,
      "v": 60
    },
    {
      "midi": 47,
      "hit": false,
      "t": 54456.445500000074,
      "d": 319.29303125000297,
      "v": 92
    },
    {
      "midi": 67,
      "hit": false,
      "t": 54456.445500000096,
      "d": 319.29303125000297,
      "v": 60
    },
    {
      "midi": 42,
      "hit": false,
      "t": 54456.4455000003,
      "d": 156.24978125000052,
      "v": 45
    },
    {
      "midi": 44,
      "hit": false,
      "t": 54619.4887500003,
      "d": 156.24978125000052,
      "v": 45
    },
    {
      "midi": 45,
      "hit": false,
      "t": 54782.532000000065,
      "d": 543.4775000000009,
      "v": 60
    },
    {
      "midi": 45,
      "hit": false,
      "t": 54782.53200000008,
      "d": 543.4775000000009,
      "v": 92
    },
    {
      "midi": 69,
      "hit": false,
      "t": 54782.5320000001,
      "d": 319.29303125000297,
      "v": 60
    },
    {
      "midi": 36,
      "hit": false,
      "t": 54782.532000000305,
      "d": 156.24978125000052,
      "v": 63
    },
    {
      "midi": 46,
      "hit": false,
      "t": 54782.532000000305,
      "d": 156.24978125000052,
      "v": 63
    },
    {
      "midi": 42,
      "hit": false,
      "t": 54945.57525000031,
      "d": 156.24978125000052,
      "v": 45
    },
    {
      "midi": 71,
      "hit": false,
      "t": 55108.618500000106,
      "d": 156.24978125000052,
      "v": 60
    },
    {
      "midi": 44,
      "hit": false,
      "t": 55108.61850000031,
      "d": 156.24978125000052,
      "v": 45
    },
    {
      "midi": 69,
      "hit": false,
      "t": 55271.66175000011,
      "d": 706.5207500000033,
      "v": 60
    },
    {
      "midi": 36,
      "hit": false,
      "t": 55271.66175000031,
      "d": 156.24978125000052,
      "v": 45
    },
    {
      "midi": 42,
      "hit": false,
      "t": 55271.66175000031,
      "d": 156.24978125000052,
      "v": 45
    },
    {
      "midi": 38,
      "hit": false,
      "t": 55434.705000000315,
      "d": 156.24978125000052,
      "v": 45
    },
    {
      "midi": 44,
      "hit": false,
      "t": 55434.705000000315,
      "d": 156.24978125000052,
      "v": 45
    },
    {
      "midi": 42,
      "hit": false,
      "t": 55597.74825000032,
      "d": 156.24978125000052,
      "v": 45
    },
    {
      "midi": 76,
      "hit": false,
      "t": 55760.79150000005,
      "d": 156.24978125000052,
      "v": 30
    },
    {
      "midi": 45,
      "hit": false,
      "t": 55760.791500000065,
      "d": 319.29303125000297,
      "v": 60
    },
    {
      "midi": 45,
      "hit": false,
      "t": 55760.79150000008,
      "d": 319.29303125000297,
      "v": 92
    },
    {
      "midi": 44,
      "hit": false,
      "t": 55760.79150000032,
      "d": 156.24978125000052,
      "v": 45
    },
    {
      "midi": 79,
      "hit": false,
      "t": 55923.83475000005,
      "d": 156.24978125000052,
      "v": 30
    },
    {
      "midi": 36,
      "hit": false,
      "t": 55923.83475000032,
      "d": 156.24978125000052,
      "v": 45
    },
    {
      "midi": 46,
      "hit": false,
      "t": 55923.83475000032,
      "d": 156.24978125000052,
      "v": 45
    },
    {
      "midi": 42,
      "hit": false,
      "t": 56086.878000000324,
      "d": 156.24978125000052,
      "v": 45
    },
    {
      "midi": 44,
      "hit": false,
      "t": 56249.92125000033,
      "d": 156.24978125000052,
      "v": 45
    },
    {
      "midi": 64,
      "hit": false,
      "t": 56412.96450000011,
      "d": 319.29303125000297,
      "v": 60
    },
    {
      "midi": 36,
      "hit": false,
      "t": 56412.96450000033,
      "d": 156.24978125000052,
      "v": 45
    },
    {
      "midi": 42,
      "hit": false,
      "t": 56412.96450000033,
      "d": 156.24978125000052,
      "v": 45
    },
    {
      "midi": 44,
      "hit": false,
      "t": 56576.00775000033,
      "d": 156.24978125000052,
      "v": 45
    },
    {
      "midi": 45,
      "hit": false,
      "t": 56739.051000000065,
      "d": 319.29303125000297,
      "v": 60
    },
    {
      "midi": 45,
      "hit": false,
      "t": 56739.05100000008,
      "d": 319.29303125000297,
      "v": 92
    },
    {
      "midi": 66,
      "hit": false,
      "t": 56739.051000000116,
      "d": 319.29303125000297,
      "v": 60
    },
    {
      "midi": 38,
      "hit": false,
      "t": 56739.051000000334,
      "d": 156.24978125000052,
      "v": 45
    },
    {
      "midi": 42,
      "hit": false,
      "t": 56739.051000000334,
      "d": 156.24978125000052,
      "v": 45
    },
    {
      "midi": 44,
      "hit": false,
      "t": 56902.09425000034,
      "d": 156.24978125000052,
      "v": 45
    },
    {
      "midi": 74,
      "hit": false,
      "t": 57065.137500000055,
      "d": 156.24978125000052,
      "v": 30
    },
    {
      "midi": 40,
      "hit": false,
      "t": 57065.13750000007,
      "d": 319.29303125000297,
      "v": 60
    },
    {
      "midi": 40,
      "hit": false,
      "t": 57065.137500000084,
      "d": 319.29303125000297,
      "v": 92
    },
    {
      "midi": 67,
      "hit": false,
      "t": 57065.13750000012,
      "d": 319.29303125000297,
      "v": 60
    },
    {
      "midi": 42,
      "hit": false,
      "t": 57065.13750000034,
      "d": 156.24978125000052,
      "v": 45
    },
    {
      "midi": 79,
      "hit": false,
      "t": 57228.18075000006,
      "d": 156.24978125000052,
      "v": 30
    },
    {
      "midi": 44,
      "hit": false,
      "t": 57228.18075000034,
      "d": 156.24978125000052,
      "v": 45
    },
    {
      "midi": 47,
      "hit": false,
      "t": 57391.224000000075,
      "d": 543.4775000000009,
      "v": 60
    },
    {
      "midi": 47,
      "hit": false,
      "t": 57391.22400000009,
      "d": 543.4775000000009,
      "v": 92
    },
    {
      "midi": 66,
      "hit": false,
      "t": 57391.224000000126,
      "d": 319.29303125000297,
      "v": 60
    },
    {
      "midi": 36,
      "hit": false,
      "t": 57391.224000000344,
      "d": 156.24978125000052,
      "v": 63
    },
    {
      "midi": 46,
      "hit": false,
      "t": 57391.224000000344,
      "d": 156.24978125000052,
      "v": 63
    },
    {
      "midi": 42,
      "hit": false,
      "t": 57554.26725000035,
      "d": 156.24978125000052,
      "v": 45
    },
    {
      "midi": 64,
      "hit": false,
      "t": 57717.31050000013,
      "d": 156.24978125000052,
      "v": 60
    },
    {
      "midi": 44,
      "hit": false,
      "t": 57717.31050000035,
      "d": 156.24978125000052,
      "v": 45
    },
    {
      "midi": 66,
      "hit": false,
      "t": 57880.35375000013,
      "d": 482.33628124999814,
      "v": 60
    },
    {
      "midi": 36,
      "hit": false,
      "t": 57880.35375000035,
      "d": 156.24978125000052,
      "v": 45
    },
    {
      "midi": 42,
      "hit": false,
      "t": 57880.35375000035,
      "d": 156.24978125000052,
      "v": 45
    },
    {
      "midi": 38,
      "hit": false,
      "t": 58043.397000000354,
      "d": 156.24978125000052,
      "v": 45
    },
    {
      "midi": 44,
      "hit": false,
      "t": 58043.397000000354,
      "d": 156.24978125000052,
      "v": 45
    },
    {
      "midi": 42,
      "hit": false,
      "t": 58206.440250000356,
      "d": 156.24978125000052,
      "v": 45
    },
    {
      "midi": 76,
      "hit": false,
      "t": 58369.48350000006,
      "d": 156.24978125000052,
      "v": 30
    },
    {
      "midi": 47,
      "hit": false,
      "t": 58369.483500000075,
      "d": 319.29303125000297,
      "v": 60
    },
    {
      "midi": 47,
      "hit": false,
      "t": 58369.48350000009,
      "d": 319.29303125000297,
      "v": 92
    },
    {
      "midi": 62,
      "hit": false,
      "t": 58369.48350000013,
      "d": 319.29303125000297,
      "v": 60
    },
    {
      "midi": 44,
      "hit": false,
      "t": 58369.48350000036,
      "d": 156.24978125000052,
      "v": 45
    },
    {
      "midi": 79,
      "hit": false,
      "t": 58532.52675000006,
      "d": 156.24978125000052,
      "v": 30
    },
    {
      "midi": 36,
      "hit": false,
      "t": 58532.52675000036,
      "d": 156.24978125000052,
      "v": 45
    },
    {
      "midi": 46,
      "hit": false,
      "t": 58532.52675000036,
      "d": 156.24978125000052,
      "v": 45
    },
    {
      "midi": 64,
      "hit": false,
      "t": 58695.57000000014,
      "d": 319.29303125000297,
      "v": 60
    },
    {
      "midi": 42,
      "hit": false,
      "t": 58695.57000000036,
      "d": 156.24978125000052,
      "v": 45
    },
    {
      "midi": 44,
      "hit": false,
      "t": 58858.613250000366,
      "d": 156.24978125000052,
      "v": 45
    },
    {
      "midi": 66,
      "hit": false,
      "t": 59021.65650000014,
      "d": 319.29303125000297,
      "v": 60
    },
    {
      "midi": 36,
      "hit": false,
      "t": 59021.65650000037,
      "d": 156.24978125000052,
      "v": 45
    },
    {
      "midi": 42,
      "hit": false,
      "t": 59021.65650000037,
      "d": 156.24978125000052,
      "v": 45
    },
    {
      "midi": 44,
      "hit": false,
      "t": 59184.69975000037,
      "d": 156.24978125000052,
      "v": 45
    },
    {
      "midi": 42,
      "hit": false,
      "t": 59347.743000000075,
      "d": 319.29303125000297,
      "v": 60
    },
    {
      "midi": 42,
      "hit": false,
      "t": 59347.74300000009,
      "d": 319.29303125000297,
      "v": 92
    },
    {
      "midi": 67,
      "hit": false,
      "t": 59347.74300000015,
      "d": 319.29303125000297,
      "v": 60
    },
    {
      "midi": 38,
      "hit": false,
      "t": 59347.74300000037,
      "d": 156.24978125000052,
      "v": 45
    },
    {
      "midi": 42,
      "hit": false,
      "t": 59347.74300000037,
      "d": 156.24978125000052,
      "v": 45
    },
    {
      "midi": 44,
      "hit": false,
      "t": 59510.786250000376,
      "d": 156.24978125000052,
      "v": 45
    },
    {
      "midi": 74,
      "hit": false,
      "t": 59673.829500000065,
      "d": 156.24978125000052,
      "v": 30
    },
    {
      "midi": 47,
      "hit": false,
      "t": 59673.82950000008,
      "d": 319.29303125000297,
      "v": 60
    },
    {
      "midi": 47,
      "hit": false,
      "t": 59673.829500000094,
      "d": 319.29303125000297,
      "v": 92
    },
    {
      "midi": 69,
      "hit": false,
      "t": 59673.82950000015,
      "d": 319.29303125000297,
      "v": 60
    },
    {
      "midi": 42,
      "hit": false,
      "t": 59673.82950000038,
      "d": 156.24978125000052,
      "v": 45
    },
    {
      "midi": 79,
      "hit": false,
      "t": 59836.87275000007,
      "d": 156.24978125000052,
      "v": 30
    },
    {
      "midi": 44,
      "hit": false,
      "t": 59836.87275000038,
      "d": 156.24978125000052,
      "v": 45
    },
    {
      "midi": 48,
      "hit": false,
      "t": 59999.916000000085,
      "d": 543.4775000000009,
      "v": 60
    },
    {
      "midi": 48,
      "hit": false,
      "t": 59999.9160000001,
      "d": 543.4775000000009,
      "v": 92
    },
    {
      "midi": 59,
      "hit": false,
      "t": 59999.91600000016,
      "d": 1141.3027500000026,
      "v": 60
    },
    {
      "midi": 64,
      "hit": false,
      "t": 59999.91600000016,
      "d": 1141.3027500000026,
      "v": 60
    },
    {
      "midi": 67,
      "hit": false,
      "t": 59999.91600000016,
      "d": 1141.3027500000026,
      "v": 60
    },
    {
      "midi": 36,
      "hit": false,
      "t": 59999.91600000038,
      "d": 156.24978125000052,
      "v": 63
    },
    {
      "midi": 46,
      "hit": false,
      "t": 59999.91600000038,
      "d": 156.24978125000052,
      "v": 63
    },
    {
      "midi": 42,
      "hit": false,
      "t": 60162.959250000386,
      "d": 156.24978125000052,
      "v": 45
    },
    {
      "midi": 44,
      "hit": false,
      "t": 60326.00250000039,
      "d": 156.24978125000052,
      "v": 45
    },
    {
      "midi": 36,
      "hit": false,
      "t": 60489.04575000039,
      "d": 156.24978125000052,
      "v": 45
    },
    {
      "midi": 42,
      "hit": false,
      "t": 60489.04575000039,
      "d": 156.24978125000052,
      "v": 45
    },
    {
      "midi": 72,
      "hit": false,
      "t": 60652.089,
      "d": 543.4775000000009,
      "v": 45
    },
    {
      "midi": 76,
      "hit": false,
      "t": 60652.089,
      "d": 543.4775000000009,
      "v": 45
    },
    {
      "midi": 38,
      "hit": false,
      "t": 60652.08900000039,
      "d": 156.24978125000052,
      "v": 45
    },
    {
      "midi": 44,
      "hit": false,
      "t": 60652.08900000039,
      "d": 156.24978125000052,
      "v": 45
    },
    {
      "midi": 42,
      "hit": false,
      "t": 60815.132250000395,
      "d": 156.24978125000052,
      "v": 45
    },
    {
      "midi": 76,
      "hit": false,
      "t": 60978.17550000007,
      "d": 156.24978125000052,
      "v": 30
    },
    {
      "midi": 48,
      "hit": false,
      "t": 60978.175500000085,
      "d": 319.29303125000297,
      "v": 60
    },
    {
      "midi": 48,
      "hit": false,
      "t": 60978.1755000001,
      "d": 319.29303125000297,
      "v": 92
    },
    {
      "midi": 44,
      "hit": false,
      "t": 60978.1755000004,
      "d": 156.24978125000052,
      "v": 45
    },
    {
      "midi": 79,
      "hit": false,
      "t": 61141.21875000007,
      "d": 156.24978125000052,
      "v": 30
    },
    {
      "midi": 36,
      "hit": false,
      "t": 61141.2187500004,
      "d": 156.24978125000052,
      "v": 45
    },
    {
      "midi": 46,
      "hit": false,
      "t": 61141.2187500004,
      "d": 156.24978125000052,
      "v": 45
    },
    {
      "midi": 67,
      "hit": false,
      "t": 61304.262,
      "d": 543.4775000000009,
      "v": 45
    },
    {
      "midi": 71,
      "hit": false,
      "t": 61304.262,
      "d": 543.4775000000009,
      "v": 45
    },
    {
      "midi": 42,
      "hit": false,
      "t": 61304.2620000004,
      "d": 156.24978125000052,
      "v": 45
    },
    {
      "midi": 44,
      "hit": false,
      "t": 61467.305250000405,
      "d": 156.24978125000052,
      "v": 45
    },
    {
      "midi": 67,
      "hit": false,
      "t": 61630.34850000016,
      "d": 319.29303125000297,
      "v": 60
    },
    {
      "midi": 36,
      "hit": false,
      "t": 61630.34850000041,
      "d": 156.24978125000052,
      "v": 45
    },
    {
      "midi": 42,
      "hit": false,
      "t": 61630.34850000041,
      "d": 156.24978125000052,
      "v": 45
    },
    {
      "midi": 44,
      "hit": false,
      "t": 61793.39175000041,
      "d": 156.24978125000052,
      "v": 45
    },
    {
      "midi": 64,
      "hit": false,
      "t": 61956.435000000005,
      "d": 543.4775000000009,
      "v": 45
    },
    {
      "midi": 67,
      "hit": false,
      "t": 61956.435000000005,
      "d": 543.4775000000009,
      "v": 45
    },
    {
      "midi": 40,
      "hit": false,
      "t": 61956.435000000085,
      "d": 319.29303125000297,
      "v": 60
    },
    {
      "midi": 40,
      "hit": false,
      "t": 61956.4350000001,
      "d": 319.29303125000297,
      "v": 92
    },
    {
      "midi": 69,
      "hit": false,
      "t": 61956.435000000165,
      "d": 319.29303125000297,
      "v": 60
    },
    {
      "midi": 38,
      "hit": false,
      "t": 61956.43500000041,
      "d": 156.24978125000052,
      "v": 45
    },
    {
      "midi": 42,
      "hit": false,
      "t": 61956.43500000041,
      "d": 156.24978125000052,
      "v": 45
    },
    {
      "midi": 44,
      "hit": false,
      "t": 62119.478250000415,
      "d": 156.24978125000052,
      "v": 45
    },
    {
      "midi": 74,
      "hit": false,
      "t": 62282.521500000075,
      "d": 156.24978125000052,
      "v": 30
    },
    {
      "midi": 43,
      "hit": false,
      "t": 62282.52150000009,
      "d": 319.29303125000297,
      "v": 60
    },
    {
      "midi": 43,
      "hit": false,
      "t": 62282.521500000104,
      "d": 319.29303125000297,
      "v": 92
    },
    {
      "midi": 67,
      "hit": false,
      "t": 62282.52150000017,
      "d": 319.29303125000297,
      "v": 60
    },
    {
      "midi": 42,
      "hit": false,
      "t": 62282.52150000042,
      "d": 156.24978125000052,
      "v": 45
    },
    {
      "midi": 79,
      "hit": false,
      "t": 62445.56475000008,
      "d": 156.24978125000052,
      "v": 30
    },
    {
      "midi": 44,
      "hit": false,
      "t": 62445.56475000042,
      "d": 156.24978125000052,
      "v": 45
    },
    {
      "midi": 65,
      "hit": false,
      "t": 62608.60800000001,
      "d": 1141.3027500000026,
      "v": 45
    },
    {
      "midi": 69,
      "hit": false,
      "t": 62608.60800000001,
      "d": 1141.3027500000026,
      "v": 45
    },
    {
      "midi": 41,
      "hit": false,
      "t": 62608.608000000095,
      "d": 543.4775000000009,
      "v": 60
    },
    {
      "midi": 41,
      "hit": false,
      "t": 62608.60800000011,
      "d": 543.4775000000009,
      "v": 92
    },
    {
      "midi": 57,
      "hit": false,
      "t": 62608.608000000175,
      "d": 869.5639999999985,
      "v": 60
    },
    {
      "midi": 60,
      "hit": false,
      "t": 62608.608000000175,
      "d": 869.5639999999985,
      "v": 60
    },
    {
      "midi": 65,
      "hit": false,
      "t": 62608.608000000175,
      "d": 869.5639999999985,
      "v": 60
    },
    {
      "midi": 36,
      "hit": false,
      "t": 62608.60800000042,
      "d": 156.24978125000052,
      "v": 63
    },
    {
      "midi": 46,
      "hit": false,
      "t": 62608.60800000042,
      "d": 156.24978125000052,
      "v": 63
    },
    {
      "midi": 42,
      "hit": false,
      "t": 62771.651250000425,
      "d": 156.24978125000052,
      "v": 45
    },
    {
      "midi": 44,
      "hit": false,
      "t": 62934.69450000043,
      "d": 156.24978125000052,
      "v": 45
    },
    {
      "midi": 36,
      "hit": false,
      "t": 63097.73775000043,
      "d": 156.24978125000052,
      "v": 45
    },
    {
      "midi": 42,
      "hit": false,
      "t": 63097.73775000043,
      "d": 156.24978125000052,
      "v": 45
    },
    {
      "midi": 38,
      "hit": false,
      "t": 63260.78100000043,
      "d": 156.24978125000052,
      "v": 45
    },
    {
      "midi": 44,
      "hit": false,
      "t": 63260.78100000043,
      "d": 156.24978125000052,
      "v": 45
    },
    {
      "midi": 42,
      "hit": false,
      "t": 63423.824250000434,
      "d": 156.24978125000052,
      "v": 45
    },
    {
      "midi": 76,
      "hit": false,
      "t": 63586.86750000008,
      "d": 156.24978125000052,
      "v": 30
    },
    {
      "midi": 41,
      "hit": false,
      "t": 63586.867500000095,
      "d": 319.29303125000297,
      "v": 60
    },
    {
      "midi": 41,
      "hit": false,
      "t": 63586.86750000011,
      "d": 319.29303125000297,
      "v": 92
    },
    {
      "midi": 64,
      "hit": false,
      "t": 63586.867500000175,
      "d": 319.29303125000297,
      "v": 60
    },
    {
      "midi": 44,
      "hit": false,
      "t": 63586.86750000044,
      "d": 156.24978125000052,
      "v": 45
    },
    {
      "midi": 79,
      "hit": false,
      "t": 63749.91075000008,
      "d": 156.24978125000052,
      "v": 30
    },
    {
      "midi": 36,
      "hit": false,
      "t": 63749.91075000044,
      "d": 156.24978125000052,
      "v": 45
    },
    {
      "midi": 46,
      "hit": false,
      "t": 63749.91075000044,
      "d": 156.24978125000052,
      "v": 45
    },
    {
      "midi": 62,
      "hit": false,
      "t": 63912.95400000001,
      "d": 1141.3027500000026,
      "v": 45
    },
    {
      "midi": 66,
      "hit": false,
      "t": 63912.95400000001,
      "d": 1141.3027500000026,
      "v": 45
    },
    {
      "midi": 47,
      "hit": false,
      "t": 63912.9540000001,
      "d": 543.4775000000009,
      "v": 60
    },
    {
      "midi": 47,
      "hit": false,
      "t": 63912.954000000114,
      "d": 543.4775000000009,
      "v": 92
    },
    {
      "midi": 57,
      "hit": false,
      "t": 63912.95400000018,
      "d": 869.5639999999985,
      "v": 60
    },
    {
      "midi": 59,
      "hit": false,
      "t": 63912.95400000018,
      "d": 869.5639999999985,
      "v": 60
    },
    {
      "midi": 63,
      "hit": false,
      "t": 63912.95400000018,
      "d": 869.5639999999985,
      "v": 60
    },
    {
      "midi": 42,
      "hit": false,
      "t": 63912.95400000044,
      "d": 156.24978125000052,
      "v": 45
    },
    {
      "midi": 44,
      "hit": false,
      "t": 64075.997250000444,
      "d": 156.24978125000052,
      "v": 45
    },
    {
      "midi": 36,
      "hit": false,
      "t": 64239.04050000045,
      "d": 156.24978125000052,
      "v": 45
    },
    {
      "midi": 42,
      "hit": false,
      "t": 64239.04050000045,
      "d": 156.24978125000052,
      "v": 45
    },
    {
      "midi": 44,
      "hit": false,
      "t": 64402.08375000045,
      "d": 156.24978125000052,
      "v": 45
    },
    {
      "midi": 38,
      "hit": false,
      "t": 64565.12700000045,
      "d": 156.24978125000052,
      "v": 45
    },
    {
      "midi": 42,
      "hit": false,
      "t": 64565.12700000045,
      "d": 156.24978125000052,
      "v": 45
    },
    {
      "midi": 44,
      "hit": false,
      "t": 64728.170250000454,
      "d": 156.24978125000052,
      "v": 45
    },
    {
      "midi": 74,
      "hit": false,
      "t": 64891.213500000085,
      "d": 156.24978125000052,
      "v": 30
    },
    {
      "midi": 47,
      "hit": false,
      "t": 64891.2135000001,
      "d": 319.29303125000297,
      "v": 60
    },
    {
      "midi": 47,
      "hit": false,
      "t": 64891.213500000114,
      "d": 319.29303125000297,
      "v": 92
    },
    {
      "midi": 63,
      "hit": false,
      "t": 64891.21350000018,
      "d": 319.29303125000297,
      "v": 60
    },
    {
      "midi": 42,
      "hit": false,
      "t": 64891.21350000046,
      "d": 156.24978125000052,
      "v": 45
    },
    {
      "midi": 79,
      "hit": false,
      "t": 65054.25675000009,
      "d": 156.24978125000052,
      "v": 30
    },
    {
      "midi": 44,
      "hit": false,
      "t": 65054.25675000046,
      "d": 156.24978125000052,
      "v": 45
    },
    {
      "midi": 64,
      "hit": false,
      "t": 65217.30000000002,
      "d": 1141.3027500000026,
      "v": 45
    },
    {
      "midi": 67,
      "hit": false,
      "t": 65217.30000000002,
      "d": 1141.3027500000026,
      "v": 45
    },
    {
      "midi": 40,
      "hit": false,
      "t": 65217.300000000105,
      "d": 543.4774999999936,
      "v": 60
    },
    {
      "midi": 40,
      "hit": false,
      "t": 65217.30000000012,
      "d": 543.4774999999936,
      "v": 92
    },
    {
      "midi": 55,
      "hit": false,
      "t": 65217.300000000185,
      "d": 2445.6487500000003,
      "v": 60
    },
    {
      "midi": 59,
      "hit": false,
      "t": 65217.300000000185,
      "d": 2445.6487500000003,
      "v": 60
    },
    {
      "midi": 64,
      "hit": false,
      "t": 65217.300000000185,
      "d": 2445.6487500000003,
      "v": 60
    },
    {
      "midi": 36,
      "hit": false,
      "t": 65217.30000000046,
      "d": 156.24978125000052,
      "v": 63
    },
    {
      "midi": 46,
      "hit": false,
      "t": 65217.30000000046,
      "d": 156.24978125000052,
      "v": 63
    },
    {
      "midi": 42,
      "hit": false,
      "t": 65380.343250000464,
      "d": 156.24978125000052,
      "v": 45
    },
    {
      "midi": 44,
      "hit": false,
      "t": 65543.38650000046,
      "d": 156.24978124999325,
      "v": 45
    },
    {
      "midi": 36,
      "hit": false,
      "t": 65706.42975000045,
      "d": 156.24978124999325,
      "v": 45
    },
    {
      "midi": 42,
      "hit": false,
      "t": 65706.42975000045,
      "d": 156.24978124999325,
      "v": 45
    },
    {
      "midi": 38,
      "hit": false,
      "t": 65869.47300000043,
      "d": 156.24978124999325,
      "v": 45
    },
    {
      "midi": 44,
      "hit": false,
      "t": 65869.47300000043,
      "d": 156.24978124999325,
      "v": 45
    },
    {
      "midi": 42,
      "hit": false,
      "t": 66032.51625000042,
      "d": 156.24978124999325,
      "v": 45
    },
    {
      "midi": 76,
      "hit": false,
      "t": 66195.55950000009,
      "d": 156.24978124999325,
      "v": 30
    },
    {
      "midi": 40,
      "hit": false,
      "t": 66195.5595000001,
      "d": 319.2930312499957,
      "v": 60
    },
    {
      "midi": 40,
      "hit": false,
      "t": 66195.55950000012,
      "d": 319.2930312499957,
      "v": 92
    },
    {
      "midi": 44,
      "hit": false,
      "t": 66195.55950000041,
      "d": 156.24978124999325,
      "v": 45
    },
    {
      "midi": 79,
      "hit": false,
      "t": 66358.60275000008,
      "d": 156.24978124999325,
      "v": 30
    },
    {
      "midi": 36,
      "hit": false,
      "t": 66358.6027500004,
      "d": 156.24978124999325,
      "v": 45
    },
    {
      "midi": 46,
      "hit": false,
      "t": 66358.6027500004,
      "d": 156.24978124999325,
      "v": 45
    },
    {
      "midi": 42,
      "hit": false,
      "t": 66521.64600000039,
      "d": 156.24978124999325,
      "v": 45
    },
    {
      "midi": 44,
      "hit": false,
      "t": 66684.68925000037,
      "d": 156.24978124999325,
      "v": 45
    },
    {
      "midi": 71,
      "hit": false,
      "t": 66847.73250000001,
      "d": 319.2930312499957,
      "v": 45
    },
    {
      "midi": 47,
      "hit": false,
      "t": 66847.73250000011,
      "d": 319.2930312499957,
      "v": 92
    },
    {
      "midi": 36,
      "hit": false,
      "t": 66847.73250000036,
      "d": 156.24978124999325,
      "v": 45
    },
    {
      "midi": 42,
      "hit": false,
      "t": 66847.73250000036,
      "d": 156.24978124999325,
      "v": 45
    },
    {
      "midi": 44,
      "hit": false,
      "t": 67010.77575000035,
      "d": 156.24978124999325,
      "v": 45
    },
    {
      "midi": 81,
      "hit": false,
      "t": 67173.819,
      "d": 319.2930312499957,
      "v": 45
    },
    {
      "midi": 47,
      "hit": false,
      "t": 67173.8190000001,
      "d": 156.24978124999325,
      "v": 60
    },
    {
      "midi": 43,
      "hit": false,
      "t": 67173.8190000001,
      "d": 319.2930312499957,
      "v": 92
    },
    {
      "midi": 38,
      "hit": false,
      "t": 67173.81900000034,
      "d": 156.24978124999325,
      "v": 45
    },
    {
      "midi": 42,
      "hit": false,
      "t": 67173.81900000034,
      "d": 156.24978124999325,
      "v": 45
    },
    {
      "midi": 43,
      "hit": false,
      "t": 67336.8622500001,
      "d": 156.24978124999325,
      "v": 60
    },
    {
      "midi": 44,
      "hit": false,
      "t": 67336.86225000033,
      "d": 156.24978124999325,
      "v": 45
    },
    {
      "midi": 79,
      "hit": false,
      "t": 67499.9055,
      "d": 156.24978124999325,
      "v": 45
    },
    {
      "midi": 74,
      "hit": false,
      "t": 67499.90550000007,
      "d": 156.24978124999325,
      "v": 30
    },
    {
      "midi": 42,
      "hit": false,
      "t": 67499.90550000008,
      "d": 319.2930312499957,
      "v": 60
    },
    {
      "midi": 42,
      "hit": false,
      "t": 67499.9055000001,
      "d": 319.2930312499957,
      "v": 92
    },
    {
      "midi": 42,
      "hit": false,
      "t": 67499.90550000031,
      "d": 156.24978124999325,
      "v": 45
    },
    {
      "midi": 78,
      "hit": false,
      "t": 67662.94874999998,
      "d": 156.24978124999325,
      "v": 45
    },
    {
      "midi": 79,
      "hit": false,
      "t": 67662.94875000005,
      "d": 156.24978124999325,
      "v": 30
    },
    {
      "midi": 44,
      "hit": false,
      "t": 67662.9487500003,
      "d": 156.24978124999325,
      "v": 45
    },
    {
      "midi": 76,
      "hit": false,
      "t": 67825.99199999997,
      "d": 1141.3027500000026,
      "v": 45
    },
    {
      "midi": 40,
      "hit": false,
      "t": 67825.99200000007,
      "d": 543.4774999999936,
      "v": 60
    },
    {
      "midi": 40,
      "hit": false,
      "t": 67825.99200000009,
      "d": 543.4774999999936,
      "v": 92
    },
    {
      "midi": 36,
      "hit": false,
      "t": 67825.99200000029,
      "d": 156.24978124999325,
      "v": 63
    },
    {
      "midi": 46,
      "hit": false,
      "t": 67825.99200000029,
      "d": 156.24978124999325,
      "v": 63
    },
    {
      "midi": 42,
      "hit": false,
      "t": 67989.03525000028,
      "d": 156.24978124999325,
      "v": 45
    },
    {
      "midi": 44,
      "hit": false,
      "t": 68152.07850000027,
      "d": 156.24978124999325,
      "v": 45
    },
    {
      "midi": 36,
      "hit": false,
      "t": 68315.12175000025,
      "d": 156.24978124999325,
      "v": 45
    },
    {
      "midi": 42,
      "hit": false,
      "t": 68315.12175000025,
      "d": 156.24978124999325,
      "v": 45
    },
    {
      "midi": 38,
      "hit": false,
      "t": 68478.16500000024,
      "d": 156.24978124999325,
      "v": 45
    },
    {
      "midi": 44,
      "hit": false,
      "t": 68478.16500000024,
      "d": 156.24978124999325,
      "v": 45
    },
    {
      "midi": 42,
      "hit": false,
      "t": 68641.20825000023,
      "d": 156.24978124999325,
      "v": 45
    },
    {
      "midi": 76,
      "hit": false,
      "t": 68804.25150000004,
      "d": 156.24978124999325,
      "v": 30
    },
    {
      "midi": 40,
      "hit": false,
      "t": 68804.25150000007,
      "d": 319.2930312499957,
      "v": 60
    },
    {
      "midi": 40,
      "hit": false,
      "t": 68804.25150000009,
      "d": 319.2930312499957,
      "v": 92
    },
    {
      "midi": 44,
      "hit": false,
      "t": 68804.25150000022,
      "d": 156.24978124999325,
      "v": 45
    },
    {
      "midi": 79,
      "hit": false,
      "t": 68967.29475000003,
      "d": 156.24978124999325,
      "v": 30
    },
    {
      "midi": 36,
      "hit": false,
      "t": 68967.2947500002,
      "d": 156.24978124999325,
      "v": 45
    },
    {
      "midi": 46,
      "hit": false,
      "t": 68967.2947500002,
      "d": 156.24978124999325,
      "v": 45
    },
    {
      "midi": 40,
      "hit": false,
      "t": 69130.33800000006,
      "d": 543.4774999999936,
      "v": 60
    },
    {
      "midi": 40,
      "hit": false,
      "t": 69130.33800000008,
      "d": 543.4774999999936,
      "v": 92
    },
    {
      "midi": 42,
      "hit": false,
      "t": 69130.33800000019,
      "d": 156.24978124999325,
      "v": 45
    },
    {
      "midi": 64,
      "hit": false,
      "t": 69130.33800000019,
      "d": 482.33628124999814,
      "v": 60
    },
    {
      "midi": 44,
      "hit": false,
      "t": 69293.38125000018,
      "d": 156.24978124999325,
      "v": 45
    },
    {
      "midi": 36,
      "hit": false,
      "t": 69456.42450000017,
      "d": 156.24978124999325,
      "v": 45
    },
    {
      "midi": 42,
      "hit": false,
      "t": 69456.42450000017,
      "d": 156.24978124999325,
      "v": 45
    },
    {
      "midi": 44,
      "hit": false,
      "t": 69619.46775000016,
      "d": 156.24978124999325,
      "v": 45
    },
    {
      "midi": 67,
      "hit": false,
      "t": 69619.46775000019,
      "d": 482.33628124999814,
      "v": 60
    },
    {
      "midi": 38,
      "hit": false,
      "t": 69782.51100000014,
      "d": 156.24978124999325,
      "v": 45
    },
    {
      "midi": 42,
      "hit": false,
      "t": 69782.51100000014,
      "d": 156.24978124999325,
      "v": 45
    },
    {
      "midi": 44,
      "hit": false,
      "t": 69945.55425000013,
      "d": 156.24978124999325,
      "v": 45
    },
    {
      "midi": 74,
      "hit": false,
      "t": 70108.59750000002,
      "d": 156.24978124999325,
      "v": 30
    },
    {
      "midi": 38,
      "hit": false,
      "t": 70108.59750000006,
      "d": 319.2930312499957,
      "v": 60
    },
    {
      "midi": 38,
      "hit": false,
      "t": 70108.59750000008,
      "d": 319.2930312499957,
      "v": 92
    },
    {
      "midi": 42,
      "hit": false,
      "t": 70108.59750000012,
      "d": 156.24978124999325,
      "v": 45
    },
    {
      "midi": 71,
      "hit": false,
      "t": 70108.59750000018,
      "d": 319.2930312499957,
      "v": 60
    },
    {
      "midi": 79,
      "hit": false,
      "t": 70271.64075,
      "d": 156.24978124999325,
      "v": 30
    },
    {
      "midi": 44,
      "hit": false,
      "t": 70271.64075000011,
      "d": 156.24978124999325,
      "v": 45
    },
    {
      "midi": 36,
      "hit": false,
      "t": 70434.68400000005,
      "d": 543.4774999999936,
      "v": 60
    },
    {
      "midi": 36,
      "hit": false,
      "t": 70434.68400000007,
      "d": 543.4774999999936,
      "v": 60
    },
    {
      "midi": 36,
      "hit": false,
      "t": 70434.6840000001,
      "d": 156.24978124999325,
      "v": 63
    },
    {
      "midi": 46,
      "hit": false,
      "t": 70434.6840000001,
      "d": 156.24978124999325,
      "v": 63
    },
    {
      "midi": 64,
      "hit": false,
      "t": 70434.68400000017,
      "d": 1793.4757499999978,
      "v": 92
    },
    {
      "midi": 67,
      "hit": false,
      "t": 70434.68400000017,
      "d": 1793.4757499999978,
      "v": 92
    },
    {
      "midi": 70,
      "hit": false,
      "t": 70434.68400000017,
      "d": 1793.4757499999978,
      "v": 92
    },
    {
      "midi": 42,
      "hit": false,
      "t": 70597.72725000008,
      "d": 156.24978124999325,
      "v": 45
    },
    {
      "midi": 44,
      "hit": false,
      "t": 70760.77050000007,
      "d": 156.24978124999325,
      "v": 45
    },
    {
      "midi": 36,
      "hit": false,
      "t": 70923.81375000006,
      "d": 156.24978124999325,
      "v": 45
    },
    {
      "midi": 42,
      "hit": false,
      "t": 70923.81375000006,
      "d": 156.24978124999325,
      "v": 45
    },
    {
      "midi": 38,
      "hit": false,
      "t": 71086.85700000005,
      "d": 156.24978124999325,
      "v": 45
    },
    {
      "midi": 44,
      "hit": false,
      "t": 71086.85700000005,
      "d": 156.24978124999325,
      "v": 45
    },
    {
      "midi": 42,
      "hit": false,
      "t": 71249.90025000004,
      "d": 156.24978124999325,
      "v": 45
    },
    {
      "midi": 76,
      "hit": false,
      "t": 71412.9435,
      "d": 156.24978124999325,
      "v": 30
    },
    {
      "midi": 44,
      "hit": false,
      "t": 71412.94350000002,
      "d": 156.24978124999325,
      "v": 45
    },
    {
      "midi": 36,
      "hit": false,
      "t": 71412.94350000005,
      "d": 156.24978124999325,
      "v": 60
    },
    {
      "midi": 36,
      "hit": false,
      "t": 71412.94350000007,
      "d": 156.24978124999325,
      "v": 60
    },
    {
      "midi": 79,
      "hit": false,
      "t": 71575.98674999998,
      "d": 156.24978124999325,
      "v": 30
    },
    {
      "midi": 36,
      "hit": false,
      "t": 71575.98675000001,
      "d": 156.24978124999325,
      "v": 45
    },
    {
      "midi": 46,
      "hit": false,
      "t": 71575.98675000001,
      "d": 156.24978124999325,
      "v": 45
    },
    {
      "midi": 36,
      "hit": false,
      "t": 71575.98675000004,
      "d": 156.24978124999325,
      "v": 60
    },
    {
      "midi": 36,
      "hit": false,
      "t": 71575.98675000005,
      "d": 156.24978124999325,
      "v": 60
    },
    {
      "midi": 42,
      "hit": false,
      "t": 71739.03,
      "d": 156.24978124999325,
      "v": 45
    },
    {
      "midi": 44,
      "hit": false,
      "t": 71902.07324999999,
      "d": 156.24978124999325,
      "v": 45
    },
    {
      "midi": 36,
      "hit": false,
      "t": 72065.11649999997,
      "d": 156.24978124999325,
      "v": 45
    },
    {
      "midi": 42,
      "hit": false,
      "t": 72065.11649999997,
      "d": 156.24978124999325,
      "v": 45
    },
    {
      "midi": 44,
      "hit": false,
      "t": 72228.15974999996,
      "d": 156.24978124999325,
      "v": 45
    },
    {
      "midi": 38,
      "hit": false,
      "t": 72391.20299999995,
      "d": 156.24978124999325,
      "v": 45
    },
    {
      "midi": 42,
      "hit": false,
      "t": 72391.20299999995,
      "d": 156.24978124999325,
      "v": 45
    },
    {
      "midi": 70,
      "hit": false,
      "t": 72391.20300000017,
      "d": 543.4774999999936,
      "v": 92
    },
    {
      "midi": 44,
      "hit": false,
      "t": 72554.24624999994,
      "d": 156.24978124999325,
      "v": 45
    },
    {
      "midi": 42,
      "hit": false,
      "t": 72717.28949999993,
      "d": 156.24978124999325,
      "v": 45
    },
    {
      "midi": 74,
      "hit": false,
      "t": 72717.28949999997,
      "d": 156.24978124999325,
      "v": 30
    },
    {
      "midi": 36,
      "hit": false,
      "t": 72717.28950000003,
      "d": 319.2930312499957,
      "v": 60
    },
    {
      "midi": 36,
      "hit": false,
      "t": 72717.28950000004,
      "d": 319.2930312499957,
      "v": 60
    },
    {
      "midi": 44,
      "hit": false,
      "t": 72880.33274999991,
      "d": 156.24978124999325,
      "v": 45
    },
    {
      "midi": 79,
      "hit": false,
      "t": 72880.33274999996,
      "d": 156.24978124999325,
      "v": 30
    },
    {
      "midi": 36,
      "hit": false,
      "t": 73043.3759999999,
      "d": 156.24978124999325,
      "v": 63
    },
    {
      "midi": 46,
      "hit": false,
      "t": 73043.3759999999,
      "d": 156.24978124999325,
      "v": 63
    },
    {
      "midi": 40,
      "hit": false,
      "t": 73043.37600000002,
      "d": 543.4774999999936,
      "v": 60
    },
    {
      "midi": 40,
      "hit": false,
      "t": 73043.37600000003,
      "d": 543.4774999999936,
      "v": 60
    },
    {
      "midi": 64,
      "hit": false,
      "t": 73043.37600000016,
      "d": 2445.648749999993,
      "v": 92
    },
    {
      "midi": 67,
      "hit": false,
      "t": 73043.37600000016,
      "d": 2445.648749999993,
      "v": 92
    },
    {
      "midi": 71,
      "hit": false,
      "t": 73043.37600000016,
      "d": 2445.648749999993,
      "v": 92
    },
    {
      "midi": 42,
      "hit": false,
      "t": 73206.41924999989,
      "d": 156.24978124999325,
      "v": 45
    },
    {
      "midi": 44,
      "hit": false,
      "t": 73369.46249999988,
      "d": 156.24978124999325,
      "v": 45
    },
    {
      "midi": 67,
      "hit": false,
      "t": 73369.46249999995,
      "d": 319.2930312499957,
      "v": 45
    },
    {
      "midi": 36,
      "hit": false,
      "t": 73532.50574999987,
      "d": 156.24978124999325,
      "v": 45
    },
    {
      "midi": 42,
      "hit": false,
      "t": 73532.50574999987,
      "d": 156.24978124999325,
      "v": 45
    },
    {
      "midi": 38,
      "hit": false,
      "t": 73695.54899999985,
      "d": 156.24978124999325,
      "v": 45
    },
    {
      "midi": 44,
      "hit": false,
      "t": 73695.54899999985,
      "d": 156.24978124999325,
      "v": 45
    },
    {
      "midi": 66,
      "hit": false,
      "t": 73695.54899999994,
      "d": 319.2930312499957,
      "v": 45
    },
    {
      "midi": 42,
      "hit": false,
      "t": 73858.59224999984,
      "d": 156.24978124999325,
      "v": 45
    },
    {
      "midi": 44,
      "hit": false,
      "t": 74021.63549999983,
      "d": 156.24978124999325,
      "v": 45
    },
    {
      "midi": 67,
      "hit": false,
      "t": 74021.63549999993,
      "d": 156.24978124999325,
      "v": 45
    },
    {
      "midi": 40,
      "hit": false,
      "t": 74021.63550000002,
      "d": 156.24978124999325,
      "v": 60
    },
    {
      "midi": 40,
      "hit": false,
      "t": 74021.63550000003,
      "d": 156.24978124999325,
      "v": 60
    },
    {
      "midi": 36,
      "hit": false,
      "t": 74184.67874999982,
      "d": 156.24978124999325,
      "v": 45
    },
    {
      "midi": 46,
      "hit": false,
      "t": 74184.67874999982,
      "d": 156.24978124999325,
      "v": 45
    },
    {
      "midi": 69,
      "hit": false,
      "t": 74184.67874999992,
      "d": 156.24978124999325,
      "v": 45
    },
    {
      "midi": 40,
      "hit": false,
      "t": 74184.67875,
      "d": 156.24978124999325,
      "v": 60
    },
    {
      "midi": 40,
      "hit": false,
      "t": 74184.67875000002,
      "d": 156.24978124999325,
      "v": 60
    },
    {
      "midi": 42,
      "hit": false,
      "t": 74347.7219999998,
      "d": 156.24978124999325,
      "v": 45
    },
    {
      "midi": 71,
      "hit": false,
      "t": 74347.7219999999,
      "d": 319.2930312499957,
      "v": 45
    },
    {
      "midi": 44,
      "hit": false,
      "t": 74510.7652499998,
      "d": 156.24978124999325,
      "v": 45
    },
    {
      "midi": 36,
      "hit": false,
      "t": 74673.80849999978,
      "d": 156.24978124999325,
      "v": 45
    },
    {
      "midi": 42,
      "hit": false,
      "t": 74673.80849999978,
      "d": 156.24978124999325,
      "v": 45
    },
    {
      "midi": 69,
      "hit": false,
      "t": 74673.8084999999,
      "d": 156.24978124999325,
      "v": 45
    },
    {
      "midi": 44,
      "hit": false,
      "t": 74836.85174999977,
      "d": 156.24978124999325,
      "v": 45
    },
    {
      "midi": 67,
      "hit": false,
      "t": 74836.85174999989,
      "d": 156.24978124999325,
      "v": 45
    },
    {
      "midi": 38,
      "hit": false,
      "t": 74999.89499999976,
      "d": 156.24978124999325,
      "v": 45
    },
    {
      "midi": 42,
      "hit": false,
      "t": 74999.89499999976,
      "d": 156.24978124999325,
      "v": 45
    },
    {
      "midi": 69,
      "hit": false,
      "t": 74999.89499999987,
      "d": 319.2930312499957,
      "v": 45
    },
    {
      "midi": 44,
      "hit": false,
      "t": 75162.93824999974,
      "d": 156.24978124999325,
      "v": 45
    },
    {
      "midi": 42,
      "hit": false,
      "t": 75325.98149999973,
      "d": 156.24978124999325,
      "v": 45
    },
    {
      "midi": 66,
      "hit": false,
      "t": 75325.98149999986,
      "d": 156.24978124999325,
      "v": 45
    },
    {
      "midi": 40,
      "hit": false,
      "t": 75325.9815,
      "d": 319.2930312499957,
      "v": 60
    },
    {
      "midi": 40,
      "hit": false,
      "t": 75325.98150000001,
      "d": 319.2930312499957,
      "v": 60
    },
    {
      "midi": 44,
      "hit": false,
      "t": 75489.02474999972,
      "d": 156.24978124999325,
      "v": 45
    },
    {
      "midi": 69,
      "hit": false,
      "t": 75489.02474999985,
      "d": 156.24978124999325,
      "v": 45
    },
    {
      "midi": 36,
      "hit": false,
      "t": 75652.06799999971,
      "d": 156.24978124999325,
      "v": 63
    },
    {
      "midi": 46,
      "hit": false,
      "t": 75652.06799999971,
      "d": 156.24978124999325,
      "v": 63
    },
    {
      "midi": 67,
      "hit": false,
      "t": 75652.06799999984,
      "d": 319.2930312499957,
      "v": 45
    },
    {
      "midi": 40,
      "hit": false,
      "t": 75652.06799999998,
      "d": 543.4774999999936,
      "v": 60
    },
    {
      "midi": 40,
      "hit": false,
      "t": 75652.068,
      "d": 543.4774999999936,
      "v": 60
    },
    {
      "midi": 42,
      "hit": false,
      "t": 75815.1112499997,
      "d": 156.24978124999325,
      "v": 45
    },
    {
      "midi": 44,
      "hit": false,
      "t": 75978.15449999968,
      "d": 156.24978124999325,
      "v": 45
    },
    {
      "midi": 66,
      "hit": false,
      "t": 75978.15449999983,
      "d": 156.24978124999325,
      "v": 45
    },
    {
      "midi": 36,
      "hit": false,
      "t": 76141.19774999967,
      "d": 156.24978124999325,
      "v": 45
    },
    {
      "midi": 42,
      "hit": false,
      "t": 76141.19774999967,
      "d": 156.24978124999325,
      "v": 45
    },
    {
      "midi": 64,
      "hit": false,
      "t": 76141.19774999982,
      "d": 156.24978124999325,
      "v": 45
    },
    {
      "midi": 38,
      "hit": false,
      "t": 76304.24099999966,
      "d": 156.24978124999325,
      "v": 45
    },
    {
      "midi": 44,
      "hit": false,
      "t": 76304.24099999966,
      "d": 156.24978124999325,
      "v": 45
    },
    {
      "midi": 66,
      "hit": false,
      "t": 76304.2409999998,
      "d": 319.2930312499957,
      "v": 45
    },
    {
      "midi": 42,
      "hit": false,
      "t": 76467.28424999965,
      "d": 156.24978124999325,
      "v": 45
    },
    {
      "midi": 44,
      "hit": false,
      "t": 76630.32749999964,
      "d": 156.24978124999325,
      "v": 45
    },
    {
      "midi": 62,
      "hit": false,
      "t": 76630.3274999998,
      "d": 319.2930312499957,
      "v": 45
    },
    {
      "midi": 42,
      "hit": false,
      "t": 76630.32749999998,
      "d": 319.2930312499957,
      "v": 60
    },
    {
      "midi": 42,
      "hit": false,
      "t": 76630.3275,
      "d": 319.2930312499957,
      "v": 60
    },
    {
      "midi": 36,
      "hit": false,
      "t": 76793.37074999962,
      "d": 156.24978124999325,
      "v": 45
    },
    {
      "midi": 46,
      "hit": false,
      "t": 76793.37074999962,
      "d": 156.24978124999325,
      "v": 45
    },
    {
      "midi": 42,
      "hit": false,
      "t": 76956.41399999961,
      "d": 156.24978124999325,
      "v": 45
    },
    {
      "midi": 64,
      "hit": false,
      "t": 76956.41399999979,
      "d": 652.1729999999952,
      "v": 45
    },
    {
      "midi": 43,
      "hit": false,
      "t": 76956.41399999998,
      "d": 543.4774999999936,
      "v": 60
    },
    {
      "midi": 43,
      "hit": false,
      "t": 76956.41399999999,
      "d": 543.4774999999936,
      "v": 60
    },
    {
      "midi": 59,
      "hit": false,
      "t": 76956.41400000016,
      "d": 482.33628124999814,
      "v": 92
    },
    {
      "midi": 44,
      "hit": false,
      "t": 77119.4572499996,
      "d": 156.24978124999325,
      "v": 45
    },
    {
      "midi": 36,
      "hit": false,
      "t": 77282.50049999959,
      "d": 156.24978124999325,
      "v": 45
    },
    {
      "midi": 42,
      "hit": false,
      "t": 77282.50049999959,
      "d": 156.24978124999325,
      "v": 45
    },
    {
      "midi": 44,
      "hit": false,
      "t": 77445.54374999958,
      "d": 156.24978124999325,
      "v": 45
    },
    {
      "midi": 64,
      "hit": false,
      "t": 77445.54375000016,
      "d": 482.33628124999814,
      "v": 92
    },
    {
      "midi": 38,
      "hit": false,
      "t": 77608.58699999956,
      "d": 156.24978124999325,
      "v": 45
    },
    {
      "midi": 42,
      "hit": false,
      "t": 77608.58699999956,
      "d": 156.24978124999325,
      "v": 45
    },
    {
      "midi": 64,
      "hit": false,
      "t": 77608.58699999978,
      "d": 543.4774999999936,
      "v": 45
    },
    {
      "midi": 47,
      "hit": false,
      "t": 77608.58699999997,
      "d": 543.4774999999936,
      "v": 60
    },
    {
      "midi": 47,
      "hit": false,
      "t": 77608.58699999998,
      "d": 543.4774999999936,
      "v": 60
    },
    {
      "midi": 44,
      "hit": false,
      "t": 77771.63024999955,
      "d": 156.24978124999325,
      "v": 45
    },
    {
      "midi": 42,
      "hit": false,
      "t": 77934.67349999954,
      "d": 156.24978124999325,
      "v": 45
    },
    {
      "midi": 67,
      "hit": false,
      "t": 77934.67350000015,
      "d": 319.2930312499957,
      "v": 92
    },
    {
      "midi": 44,
      "hit": false,
      "t": 78097.71674999953,
      "d": 156.24978124999325,
      "v": 45
    },
    {
      "midi": 36,
      "hit": false,
      "t": 78260.75999999951,
      "d": 156.24978124999325,
      "v": 63
    },
    {
      "midi": 46,
      "hit": false,
      "t": 78260.75999999951,
      "d": 156.24978124999325,
      "v": 63
    },
    {
      "midi": 48,
      "hit": false,
      "t": 78260.75999999997,
      "d": 543.4774999999936,
      "v": 60
    },
    {
      "midi": 48,
      "hit": false,
      "t": 78260.75999999998,
      "d": 543.4774999999936,
      "v": 60
    },
    {
      "midi": 67,
      "hit": false,
      "t": 78260.75999999998,
      "d": 543.4774999999936,
      "v": 30
    },
    {
      "midi": 71,
      "hit": false,
      "t": 78260.75999999998,
      "d": 543.4774999999936,
      "v": 30
    },
    {
      "midi": 60,
      "hit": false,
      "t": 78260.76000000014,
      "d": 1141.3027500000026,
      "v": 92
    },
    {
      "midi": 63,
      "hit": false,
      "t": 78260.76000000014,
      "d": 1141.3027500000026,
      "v": 92
    },
    {
      "midi": 66,
      "hit": false,
      "t": 78260.76000000014,
      "d": 1141.3027500000026,
      "v": 92
    },
    {
      "midi": 42,
      "hit": false,
      "t": 78423.8032499995,
      "d": 156.24978124999325,
      "v": 45
    },
    {
      "midi": 44,
      "hit": false,
      "t": 78586.84649999949,
      "d": 156.24978124999325,
      "v": 45
    },
    {
      "midi": 36,
      "hit": false,
      "t": 78749.88974999948,
      "d": 156.24978124999325,
      "v": 45
    },
    {
      "midi": 42,
      "hit": false,
      "t": 78749.88974999948,
      "d": 156.24978124999325,
      "v": 45
    },
    {
      "midi": 38,
      "hit": false,
      "t": 78912.93299999947,
      "d": 156.24978124999325,
      "v": 45
    },
    {
      "midi": 44,
      "hit": false,
      "t": 78912.93299999947,
      "d": 156.24978124999325,
      "v": 45
    },
    {
      "midi": 76,
      "hit": false,
      "t": 78912.93299999998,
      "d": 543.4774999999936,
      "v": 30
    },
    {
      "midi": 79,
      "hit": false,
      "t": 78912.93299999998,
      "d": 543.4774999999936,
      "v": 30
    },
    {
      "midi": 42,
      "hit": false,
      "t": 79075.97624999945,
      "d": 156.24978124999325,
      "v": 45
    },
    {
      "midi": 44,
      "hit": false,
      "t": 79239.01949999944,
      "d": 156.24978124999325,
      "v": 45
    },
    {
      "midi": 48,
      "hit": false,
      "t": 79239.01949999997,
      "d": 156.24978124999325,
      "v": 60
    },
    {
      "midi": 48,
      "hit": false,
      "t": 79239.01949999998,
      "d": 156.24978124999325,
      "v": 60
    },
    {
      "midi": 36,
      "hit": false,
      "t": 79402.06274999943,
      "d": 156.24978124999325,
      "v": 45
    },
    {
      "midi": 46,
      "hit": false,
      "t": 79402.06274999943,
      "d": 156.24978124999325,
      "v": 45
    },
    {
      "midi": 48,
      "hit": false,
      "t": 79402.06274999995,
      "d": 156.24978124999325,
      "v": 60
    },
    {
      "midi": 48,
      "hit": false,
      "t": 79402.06274999997,
      "d": 156.24978124999325,
      "v": 60
    },
    {
      "midi": 42,
      "hit": false,
      "t": 79565.10599999942,
      "d": 156.24978124999325,
      "v": 45
    },
    {
      "midi": 67,
      "hit": false,
      "t": 79565.10599999997,
      "d": 543.4774999999936,
      "v": 30
    },
    {
      "midi": 71,
      "hit": false,
      "t": 79565.10599999997,
      "d": 543.4774999999936,
      "v": 30
    },
    {
      "midi": 63,
      "hit": false,
      "t": 79565.10600000015,
      "d": 869.5639999999985,
      "v": 92
    },
    {
      "midi": 44,
      "hit": false,
      "t": 79728.1492499994,
      "d": 156.24978124999325,
      "v": 45
    },
    {
      "midi": 36,
      "hit": false,
      "t": 79891.1924999994,
      "d": 156.24978124999325,
      "v": 45
    },
    {
      "midi": 42,
      "hit": false,
      "t": 79891.1924999994,
      "d": 156.24978124999325,
      "v": 45
    },
    {
      "midi": 44,
      "hit": false,
      "t": 80054.23574999938,
      "d": 156.24978124999325,
      "v": 45
    },
    {
      "midi": 38,
      "hit": false,
      "t": 80217.27899999937,
      "d": 156.24978124999325,
      "v": 45
    },
    {
      "midi": 42,
      "hit": false,
      "t": 80217.27899999937,
      "d": 156.24978124999325,
      "v": 45
    },
    {
      "midi": 69,
      "hit": false,
      "t": 80217.27899999997,
      "d": 543.4774999999936,
      "v": 30
    },
    {
      "midi": 72,
      "hit": false,
      "t": 80217.27899999997,
      "d": 543.4774999999936,
      "v": 30
    },
    {
      "midi": 44,
      "hit": false,
      "t": 80380.32224999936,
      "d": 156.24978124999325,
      "v": 45
    },
    {
      "midi": 42,
      "hit": false,
      "t": 80543.36549999935,
      "d": 156.24978124999325,
      "v": 45
    },
    {
      "midi": 48,
      "hit": false,
      "t": 80543.36549999994,
      "d": 319.2930312499957,
      "v": 60
    },
    {
      "midi": 48,
      "hit": false,
      "t": 80543.36549999996,
      "d": 319.2930312499957,
      "v": 60
    },
    {
      "midi": 64,
      "hit": false,
      "t": 80543.36550000015,
      "d": 319.2930312499957,
      "v": 92
    },
    {
      "midi": 44,
      "hit": false,
      "t": 80706.40874999933,
      "d": 156.24978124999325,
      "v": 45
    },
    {
      "midi": 36,
      "hit": false,
      "t": 80869.45199999932,
      "d": 156.24978124999325,
      "v": 63
    },
    {
      "midi": 46,
      "hit": false,
      "t": 80869.45199999932,
      "d": 156.24978124999325,
      "v": 63
    },
    {
      "midi": 47,
      "hit": false,
      "t": 80869.45199999993,
      "d": 543.4774999999936,
      "v": 60
    },
    {
      "midi": 47,
      "hit": false,
      "t": 80869.45199999995,
      "d": 543.4774999999936,
      "v": 60
    },
    {
      "midi": 66,
      "hit": false,
      "t": 80869.45199999996,
      "d": 1141.3027500000026,
      "v": 30
    },
    {
      "midi": 69,
      "hit": false,
      "t": 80869.45199999996,
      "d": 1141.3027500000026,
      "v": 30
    },
    {
      "midi": 57,
      "hit": false,
      "t": 80869.45200000014,
      "d": 1793.4757499999978,
      "v": 92
    },
    {
      "midi": 59,
      "hit": false,
      "t": 80869.45200000014,
      "d": 1793.4757499999978,
      "v": 92
    },
    {
      "midi": 63,
      "hit": false,
      "t": 80869.45200000014,
      "d": 1793.4757499999978,
      "v": 92
    },
    {
      "midi": 42,
      "hit": false,
      "t": 81032.49524999931,
      "d": 156.24978124999325,
      "v": 45
    },
    {
      "midi": 44,
      "hit": false,
      "t": 81195.5384999993,
      "d": 156.24978124999325,
      "v": 45
    },
    {
      "midi": 36,
      "hit": false,
      "t": 81358.58174999928,
      "d": 156.24978124999325,
      "v": 45
    },
    {
      "midi": 42,
      "hit": false,
      "t": 81358.58174999928,
      "d": 156.24978124999325,
      "v": 45
    },
    {
      "midi": 38,
      "hit": false,
      "t": 81521.62499999927,
      "d": 156.24978124999325,
      "v": 45
    },
    {
      "midi": 44,
      "hit": false,
      "t": 81521.62499999927,
      "d": 156.24978124999325,
      "v": 45
    },
    {
      "midi": 42,
      "hit": false,
      "t": 81684.66824999926,
      "d": 156.24978124999325,
      "v": 45
    },
    {
      "midi": 44,
      "hit": false,
      "t": 81847.71149999925,
      "d": 156.24978124999325,
      "v": 45
    },
    {
      "midi": 47,
      "hit": false,
      "t": 81847.71149999993,
      "d": 156.24978124999325,
      "v": 60
    },
    {
      "midi": 47,
      "hit": false,
      "t": 81847.71149999995,
      "d": 156.24978124999325,
      "v": 60
    },
    {
      "midi": 36,
      "hit": false,
      "t": 82010.75474999924,
      "d": 156.24978124999325,
      "v": 45
    },
    {
      "midi": 46,
      "hit": false,
      "t": 82010.75474999924,
      "d": 156.24978124999325,
      "v": 45
    },
    {
      "midi": 47,
      "hit": false,
      "t": 82010.75474999992,
      "d": 156.24978124999325,
      "v": 60
    },
    {
      "midi": 47,
      "hit": false,
      "t": 82010.75474999993,
      "d": 156.24978124999325,
      "v": 60
    },
    {
      "midi": 42,
      "hit": false,
      "t": 82173.79799999922,
      "d": 156.24978124999325,
      "v": 45
    },
    {
      "midi": 44,
      "hit": false,
      "t": 82336.84124999921,
      "d": 156.24978124999325,
      "v": 45
    },
    {
      "midi": 36,
      "hit": false,
      "t": 82499.8844999992,
      "d": 156.24978124999325,
      "v": 45
    },
    {
      "midi": 42,
      "hit": false,
      "t": 82499.8844999992,
      "d": 156.24978124999325,
      "v": 45
    },
    {
      "midi": 44,
      "hit": false,
      "t": 82662.92774999919,
      "d": 156.24978124999325,
      "v": 45
    },
    {
      "midi": 38,
      "hit": false,
      "t": 82825.97099999918,
      "d": 156.24978124999325,
      "v": 45
    },
    {
      "midi": 42,
      "hit": false,
      "t": 82825.97099999918,
      "d": 156.24978124999325,
      "v": 45
    },
    {
      "midi": 47,
      "hit": false,
      "t": 82825.97099999992,
      "d": 156.24978124999325,
      "v": 60
    },
    {
      "midi": 47,
      "hit": false,
      "t": 82825.97099999993,
      "d": 156.24978124999325,
      "v": 60
    },
    {
      "midi": 44,
      "hit": false,
      "t": 82989.01424999916,
      "d": 156.24978124999325,
      "v": 45
    },
    {
      "midi": 45,
      "hit": false,
      "t": 82989.0142499999,
      "d": 156.24978124999325,
      "v": 60
    },
    {
      "midi": 45,
      "hit": false,
      "t": 82989.01424999992,
      "d": 156.24978124999325,
      "v": 60
    },
    {
      "midi": 42,
      "hit": false,
      "t": 83152.05749999915,
      "d": 156.24978124999325,
      "v": 45
    },
    {
      "midi": 42,
      "hit": false,
      "t": 83152.0574999999,
      "d": 319.2930312499957,
      "v": 60
    },
    {
      "midi": 42,
      "hit": false,
      "t": 83152.05749999991,
      "d": 319.2930312499957,
      "v": 60
    },
    {
      "midi": 59,
      "hit": false,
      "t": 83152.05750000013,
      "d": 319.2930312499957,
      "v": 92
    },
    {
      "midi": 44,
      "hit": false,
      "t": 83315.10074999914,
      "d": 156.24978124999325,
      "v": 45
    },
    {
      "midi": 36,
      "hit": false,
      "t": 83478.14399999913,
      "d": 156.24978124999325,
      "v": 63
    },
    {
      "midi": 46,
      "hit": false,
      "t": 83478.14399999913,
      "d": 156.24978124999325,
      "v": 63
    },
    {
      "midi": 40,
      "hit": false,
      "t": 83478.14399999988,
      "d": 543.4774999999936,
      "v": 60
    },
    {
      "midi": 40,
      "hit": false,
      "t": 83478.1439999999,
      "d": 543.4774999999936,
      "v": 60
    },
    {
      "midi": 60,
      "hit": false,
      "t": 83478.14400000012,
      "d": 319.2930312499957,
      "v": 92
    },
    {
      "midi": 42,
      "hit": false,
      "t": 83641.18724999912,
      "d": 156.24978124999325,
      "v": 45
    },
    {
      "midi": 44,
      "hit": false,
      "t": 83804.2304999991,
      "d": 156.24978124999325,
      "v": 45
    },
    {
      "midi": 67,
      "hit": false,
      "t": 83804.23049999977,
      "d": 319.2930312499957,
      "v": 45
    },
    {
      "midi": 59,
      "hit": false,
      "t": 83804.2305000001,
      "d": 2119.5622500000027,
      "v": 92
    },
    {
      "midi": 36,
      "hit": false,
      "t": 83967.27374999909,
      "d": 156.24978124999325,
      "v": 45
    },
    {
      "midi": 42,
      "hit": false,
      "t": 83967.27374999909,
      "d": 156.24978124999325,
      "v": 45
    },
    {
      "midi": 38,
      "hit": false,
      "t": 84130.31699999908,
      "d": 156.24978124999325,
      "v": 45
    },
    {
      "midi": 44,
      "hit": false,
      "t": 84130.31699999908,
      "d": 156.24978124999325,
      "v": 45
    },
    {
      "midi": 66,
      "hit": false,
      "t": 84130.31699999976,
      "d": 319.2930312499957,
      "v": 45
    },
    {
      "midi": 42,
      "hit": false,
      "t": 84293.36024999907,
      "d": 156.24978124999325,
      "v": 45
    },
    {
      "midi": 44,
      "hit": false,
      "t": 84456.40349999905,
      "d": 156.24978124999325,
      "v": 45
    },
    {
      "midi": 67,
      "hit": false,
      "t": 84456.40349999975,
      "d": 156.24978124999325,
      "v": 45
    },
    {
      "midi": 40,
      "hit": false,
      "t": 84456.40349999988,
      "d": 156.24978124999325,
      "v": 60
    },
    {
      "midi": 40,
      "hit": false,
      "t": 84456.4034999999,
      "d": 156.24978124999325,
      "v": 60
    },
    {
      "midi": 36,
      "hit": false,
      "t": 84619.44674999904,
      "d": 156.24978124999325,
      "v": 45
    },
    {
      "midi": 46,
      "hit": false,
      "t": 84619.44674999904,
      "d": 156.24978124999325,
      "v": 45
    },
    {
      "midi": 69,
      "hit": false,
      "t": 84619.44674999974,
      "d": 156.24978124999325,
      "v": 45
    },
    {
      "midi": 40,
      "hit": false,
      "t": 84619.44674999987,
      "d": 156.24978124999325,
      "v": 60
    },
    {
      "midi": 40,
      "hit": false,
      "t": 84619.44674999989,
      "d": 156.24978124999325,
      "v": 60
    },
    {
      "midi": 42,
      "hit": false,
      "t": 84782.48999999903,
      "d": 156.24978124999325,
      "v": 45
    },
    {
      "midi": 71,
      "hit": false,
      "t": 84782.48999999973,
      "d": 319.2930312499957,
      "v": 45
    },
    {
      "midi": 44,
      "hit": false,
      "t": 84945.53324999902,
      "d": 156.24978124999325,
      "v": 45
    },
    {
      "midi": 36,
      "hit": false,
      "t": 85108.576499999,
      "d": 156.24978124999325,
      "v": 45
    },
    {
      "midi": 42,
      "hit": false,
      "t": 85108.576499999,
      "d": 156.24978124999325,
      "v": 45
    },
    {
      "midi": 69,
      "hit": false,
      "t": 85108.57649999972,
      "d": 156.24978124999325,
      "v": 45
    },
    {
      "midi": 44,
      "hit": false,
      "t": 85271.619749999,
      "d": 156.24978124999325,
      "v": 45
    },
    {
      "midi": 67,
      "hit": false,
      "t": 85271.6197499997,
      "d": 156.24978124999325,
      "v": 45
    },
    {
      "midi": 38,
      "hit": false,
      "t": 85434.66299999898,
      "d": 156.24978124999325,
      "v": 45
    },
    {
      "midi": 42,
      "hit": false,
      "t": 85434.66299999898,
      "d": 156.24978124999325,
      "v": 45
    },
    {
      "midi": 69,
      "hit": false,
      "t": 85434.6629999997,
      "d": 319.2930312499957,
      "v": 45
    },
    {
      "midi": 44,
      "hit": false,
      "t": 85597.70624999897,
      "d": 156.24978124999325,
      "v": 45
    },
    {
      "midi": 42,
      "hit": false,
      "t": 85760.74949999896,
      "d": 156.24978124999325,
      "v": 45
    },
    {
      "midi": 66,
      "hit": false,
      "t": 85760.74949999969,
      "d": 156.24978124999325,
      "v": 45
    },
    {
      "midi": 40,
      "hit": false,
      "t": 85760.74949999986,
      "d": 319.2930312499957,
      "v": 60
    },
    {
      "midi": 40,
      "hit": false,
      "t": 85760.74949999987,
      "d": 319.2930312499957,
      "v": 60
    },
    {
      "midi": 44,
      "hit": false,
      "t": 85923.79274999895,
      "d": 156.24978124999325,
      "v": 45
    },
    {
      "midi": 69,
      "hit": false,
      "t": 85923.79274999967,
      "d": 156.24978124999325,
      "v": 45
    },
    {
      "midi": 36,
      "hit": false,
      "t": 86086.83599999893,
      "d": 156.24978124999325,
      "v": 63
    },
    {
      "midi": 46,
      "hit": false,
      "t": 86086.83599999893,
      "d": 156.24978124999325,
      "v": 63
    },
    {
      "midi": 67,
      "hit": false,
      "t": 86086.83599999966,
      "d": 319.2930312499957,
      "v": 45
    },
    {
      "midi": 48,
      "hit": false,
      "t": 86086.83599999985,
      "d": 543.4774999999936,
      "v": 60
    },
    {
      "midi": 48,
      "hit": false,
      "t": 86086.83599999986,
      "d": 543.4774999999936,
      "v": 60
    },
    {
      "midi": 58,
      "hit": false,
      "t": 86086.83600000011,
      "d": 2445.6487500000076,
      "v": 92
    },
    {
      "midi": 60,
      "hit": false,
      "t": 86086.83600000011,
      "d": 2445.6487500000076,
      "v": 92
    },
    {
      "midi": 64,
      "hit": false,
      "t": 86086.83600000011,
      "d": 2445.6487500000076,
      "v": 92
    },
    {
      "midi": 42,
      "hit": false,
      "t": 86249.87924999892,
      "d": 156.24978124999325,
      "v": 45
    },
    {
      "midi": 44,
      "hit": false,
      "t": 86412.92249999891,
      "d": 156.24978124999325,
      "v": 45
    },
    {
      "midi": 66,
      "hit": false,
      "t": 86412.92249999965,
      "d": 156.24978124999325,
      "v": 45
    },
    {
      "midi": 36,
      "hit": false,
      "t": 86575.9657499989,
      "d": 156.24978124999325,
      "v": 45
    },
    {
      "midi": 42,
      "hit": false,
      "t": 86575.9657499989,
      "d": 156.24978124999325,
      "v": 45
    },
    {
      "midi": 64,
      "hit": false,
      "t": 86575.96574999964,
      "d": 156.24978124999325,
      "v": 45
    },
    {
      "midi": 38,
      "hit": false,
      "t": 86739.00899999888,
      "d": 156.24978124999325,
      "v": 45
    },
    {
      "midi": 44,
      "hit": false,
      "t": 86739.00899999888,
      "d": 156.24978124999325,
      "v": 45
    },
    {
      "midi": 66,
      "hit": false,
      "t": 86739.00899999963,
      "d": 319.2930312499957,
      "v": 45
    },
    {
      "midi": 42,
      "hit": false,
      "t": 86902.05224999887,
      "d": 156.24978124999325,
      "v": 45
    },
    {
      "midi": 44,
      "hit": false,
      "t": 87065.09549999886,
      "d": 156.24978124999325,
      "v": 45
    },
    {
      "midi": 62,
      "hit": false,
      "t": 87065.09549999962,
      "d": 319.2930312499957,
      "v": 45
    },
    {
      "midi": 48,
      "hit": false,
      "t": 87065.09549999985,
      "d": 156.24978124999325,
      "v": 60
    },
    {
      "midi": 48,
      "hit": false,
      "t": 87065.09549999986,
      "d": 156.24978124999325,
      "v": 60
    },
    {
      "midi": 36,
      "hit": false,
      "t": 87228.13874999885,
      "d": 156.24978124999325,
      "v": 45
    },
    {
      "midi": 46,
      "hit": false,
      "t": 87228.13874999885,
      "d": 156.24978124999325,
      "v": 45
    },
    {
      "midi": 48,
      "hit": false,
      "t": 87228.13874999984,
      "d": 156.24978124999325,
      "v": 60
    },
    {
      "midi": 48,
      "hit": false,
      "t": 87228.13874999985,
      "d": 156.24978124999325,
      "v": 60
    },
    {
      "midi": 42,
      "hit": false,
      "t": 87391.18199999884,
      "d": 156.24978124999325,
      "v": 45
    },
    {
      "midi": 64,
      "hit": false,
      "t": 87391.18199999961,
      "d": 652.1729999999952,
      "v": 45
    },
    {
      "midi": 44,
      "hit": false,
      "t": 87554.22524999882,
      "d": 156.24978124999325,
      "v": 45
    },
    {
      "midi": 36,
      "hit": false,
      "t": 87717.26849999881,
      "d": 156.24978124999325,
      "v": 45
    },
    {
      "midi": 42,
      "hit": false,
      "t": 87717.26849999881,
      "d": 156.24978124999325,
      "v": 45
    },
    {
      "midi": 44,
      "hit": false,
      "t": 87880.3117499988,
      "d": 156.24978124999325,
      "v": 45
    },
    {
      "midi": 38,
      "hit": false,
      "t": 88043.35499999879,
      "d": 156.24978124999325,
      "v": 45
    },
    {
      "midi": 42,
      "hit": false,
      "t": 88043.35499999879,
      "d": 156.24978124999325,
      "v": 45
    },
    {
      "midi": 64,
      "hit": false,
      "t": 88043.3549999996,
      "d": 543.4774999999936,
      "v": 45
    },
    {
      "midi": 44,
      "hit": false,
      "t": 88206.39824999878,
      "d": 156.24978124999325,
      "v": 45
    },
    {
      "midi": 42,
      "hit": false,
      "t": 88369.44149999876,
      "d": 156.24978124999325,
      "v": 45
    },
    {
      "midi": 48,
      "hit": false,
      "t": 88369.44149999983,
      "d": 319.2930312499957,
      "v": 60
    },
    {
      "midi": 48,
      "hit": false,
      "t": 88369.44149999984,
      "d": 319.2930312499957,
      "v": 60
    },
    {
      "midi": 44,
      "hit": false,
      "t": 88532.48474999875,
      "d": 156.24978124999325,
      "v": 45
    },
    {
      "midi": 36,
      "hit": false,
      "t": 88695.52799999874,
      "d": 156.24978124999325,
      "v": 63
    },
    {
      "midi": 46,
      "hit": false,
      "t": 88695.52799999874,
      "d": 156.24978124999325,
      "v": 63
    },
    {
      "midi": 40,
      "hit": false,
      "t": 88695.52799999982,
      "d": 543.4774999999936,
      "v": 60
    },
    {
      "midi": 40,
      "hit": false,
      "t": 88695.52799999983,
      "d": 543.4774999999936,
      "v": 60
    },
    {
      "midi": 55,
      "hit": false,
      "t": 88695.52800000012,
      "d": 2445.6487500000076,
      "v": 92
    },
    {
      "midi": 59,
      "hit": false,
      "t": 88695.52800000012,
      "d": 2445.6487500000076,
      "v": 92
    },
    {
      "midi": 64,
      "hit": false,
      "t": 88695.52800000012,
      "d": 2445.6487500000076,
      "v": 92
    },
    {
      "midi": 42,
      "hit": false,
      "t": 88858.57124999873,
      "d": 156.24978124999325,
      "v": 45
    },
    {
      "midi": 44,
      "hit": false,
      "t": 89021.61449999872,
      "d": 156.24978124999325,
      "v": 45
    },
    {
      "midi": 67,
      "hit": false,
      "t": 89021.6144999996,
      "d": 319.2930312499957,
      "v": 45
    },
    {
      "midi": 36,
      "hit": false,
      "t": 89184.6577499987,
      "d": 156.24978124999325,
      "v": 45
    },
    {
      "midi": 42,
      "hit": false,
      "t": 89184.6577499987,
      "d": 156.24978124999325,
      "v": 45
    },
    {
      "midi": 38,
      "hit": false,
      "t": 89347.70099999869,
      "d": 156.24978124999325,
      "v": 45
    },
    {
      "midi": 44,
      "hit": false,
      "t": 89347.70099999869,
      "d": 156.24978124999325,
      "v": 45
    },
    {
      "midi": 66,
      "hit": false,
      "t": 89347.7009999996,
      "d": 319.2930312499957,
      "v": 45
    },
    {
      "midi": 42,
      "hit": false,
      "t": 89510.74424999868,
      "d": 156.24978124999325,
      "v": 45
    },
    {
      "midi": 44,
      "hit": false,
      "t": 89673.78749999867,
      "d": 156.24978124999325,
      "v": 45
    },
    {
      "midi": 67,
      "hit": false,
      "t": 89673.78749999958,
      "d": 156.24978124999325,
      "v": 45
    },
    {
      "midi": 40,
      "hit": false,
      "t": 89673.78749999982,
      "d": 156.24978124999325,
      "v": 60
    },
    {
      "midi": 40,
      "hit": false,
      "t": 89673.78749999983,
      "d": 156.24978124999325,
      "v": 60
    },
    {
      "midi": 36,
      "hit": false,
      "t": 89836.83074999865,
      "d": 156.24978124999325,
      "v": 45
    },
    {
      "midi": 46,
      "hit": false,
      "t": 89836.83074999865,
      "d": 156.24978124999325,
      "v": 45
    },
    {
      "midi": 69,
      "hit": false,
      "t": 89836.83074999957,
      "d": 156.24978124999325,
      "v": 45
    },
    {
      "midi": 40,
      "hit": false,
      "t": 89836.8307499998,
      "d": 156.24978124999325,
      "v": 60
    },
    {
      "midi": 40,
      "hit": false,
      "t": 89836.83074999982,
      "d": 156.24978124999325,
      "v": 60
    },
    {
      "midi": 42,
      "hit": false,
      "t": 89999.87399999864,
      "d": 156.24978124999325,
      "v": 45
    },
    {
      "midi": 71,
      "hit": false,
      "t": 89999.87399999956,
      "d": 319.2930312499957,
      "v": 45
    },
    {
      "midi": 44,
      "hit": false,
      "t": 90162.91724999863,
      "d": 156.24978124999325,
      "v": 45
    },
    {
      "midi": 36,
      "hit": false,
      "t": 90325.96049999862,
      "d": 156.24978124999325,
      "v": 45
    },
    {
      "midi": 42,
      "hit": false,
      "t": 90325.96049999862,
      "d": 156.24978124999325,
      "v": 45
    },
    {
      "midi": 69,
      "hit": false,
      "t": 90325.96049999955,
      "d": 156.24978124999325,
      "v": 45
    },
    {
      "midi": 44,
      "hit": false,
      "t": 90489.0037499986,
      "d": 156.24978124999325,
      "v": 45
    },
    {
      "midi": 67,
      "hit": false,
      "t": 90489.00374999954,
      "d": 156.24978124999325,
      "v": 45
    },
    {
      "midi": 38,
      "hit": false,
      "t": 90652.0469999986,
      "d": 156.24978124999325,
      "v": 45
    },
    {
      "midi": 42,
      "hit": false,
      "t": 90652.0469999986,
      "d": 156.24978124999325,
      "v": 45
    },
    {
      "midi": 69,
      "hit": false,
      "t": 90652.04699999953,
      "d": 319.2930312499957,
      "v": 45
    },
    {
      "midi": 44,
      "hit": false,
      "t": 90815.09024999858,
      "d": 156.24978124999325,
      "v": 45
    },
    {
      "midi": 42,
      "hit": false,
      "t": 90978.13349999857,
      "d": 156.24978124999325,
      "v": 45
    },
    {
      "midi": 66,
      "hit": false,
      "t": 90978.13349999952,
      "d": 156.24978124999325,
      "v": 45
    },
    {
      "midi": 40,
      "hit": false,
      "t": 90978.13349999979,
      "d": 319.2930312499957,
      "v": 60
    },
    {
      "midi": 40,
      "hit": false,
      "t": 90978.1334999998,
      "d": 319.2930312499957,
      "v": 60
    },
    {
      "midi": 44,
      "hit": false,
      "t": 91141.17674999856,
      "d": 156.24978124999325,
      "v": 45
    },
    {
      "midi": 69,
      "hit": false,
      "t": 91141.1767499995,
      "d": 156.24978124999325,
      "v": 45
    },
    {
      "midi": 36,
      "hit": false,
      "t": 91304.21999999855,
      "d": 156.24978124999325,
      "v": 63
    },
    {
      "midi": 46,
      "hit": false,
      "t": 91304.21999999855,
      "d": 156.24978124999325,
      "v": 63
    },
    {
      "midi": 67,
      "hit": false,
      "t": 91304.21999999949,
      "d": 319.2930312499957,
      "v": 45
    },
    {
      "midi": 48,
      "hit": false,
      "t": 91304.21999999978,
      "d": 543.4774999999936,
      "v": 60
    },
    {
      "midi": 48,
      "hit": false,
      "t": 91304.2199999998,
      "d": 543.4774999999936,
      "v": 60
    },
    {
      "midi": 58,
      "hit": false,
      "t": 91304.22000000013,
      "d": 2445.6487500000076,
      "v": 92
    },
    {
      "midi": 60,
      "hit": false,
      "t": 91304.22000000013,
      "d": 2445.6487500000076,
      "v": 92
    },
    {
      "midi": 64,
      "hit": false,
      "t": 91304.22000000013,
      "d": 2445.6487500000076,
      "v": 92
    },
    {
      "midi": 42,
      "hit": false,
      "t": 91467.26324999853,
      "d": 156.24978124999325,
      "v": 45
    },
    {
      "midi": 44,
      "hit": false,
      "t": 91630.30649999852,
      "d": 156.24978124999325,
      "v": 45
    },
    {
      "midi": 66,
      "hit": false,
      "t": 91630.30649999948,
      "d": 156.24978124999325,
      "v": 45
    },
    {
      "midi": 36,
      "hit": false,
      "t": 91793.34974999851,
      "d": 156.24978124999325,
      "v": 45
    },
    {
      "midi": 42,
      "hit": false,
      "t": 91793.34974999851,
      "d": 156.24978124999325,
      "v": 45
    },
    {
      "midi": 64,
      "hit": false,
      "t": 91793.34974999947,
      "d": 156.24978124999325,
      "v": 45
    },
    {
      "midi": 38,
      "hit": false,
      "t": 91956.3929999985,
      "d": 156.24978124999325,
      "v": 45
    },
    {
      "midi": 44,
      "hit": false,
      "t": 91956.3929999985,
      "d": 156.24978124999325,
      "v": 45
    },
    {
      "midi": 66,
      "hit": false,
      "t": 91956.39299999946,
      "d": 319.2930312499957,
      "v": 45
    },
    {
      "midi": 42,
      "hit": false,
      "t": 92119.43624999849,
      "d": 156.24978124999325,
      "v": 45
    },
    {
      "midi": 44,
      "hit": false,
      "t": 92282.47949999847,
      "d": 156.24978124999325,
      "v": 45
    },
    {
      "midi": 62,
      "hit": false,
      "t": 92282.47949999945,
      "d": 319.2930312499957,
      "v": 45
    },
    {
      "midi": 48,
      "hit": false,
      "t": 92282.47949999978,
      "d": 156.24978124999325,
      "v": 60
    },
    {
      "midi": 48,
      "hit": false,
      "t": 92282.4794999998,
      "d": 156.24978124999325,
      "v": 60
    },
    {
      "midi": 36,
      "hit": false,
      "t": 92445.52274999846,
      "d": 156.24978124999325,
      "v": 45
    },
    {
      "midi": 46,
      "hit": false,
      "t": 92445.52274999846,
      "d": 156.24978124999325,
      "v": 45
    },
    {
      "midi": 48,
      "hit": false,
      "t": 92445.52274999977,
      "d": 156.24978124999325,
      "v": 60
    },
    {
      "midi": 48,
      "hit": false,
      "t": 92445.52274999979,
      "d": 156.24978124999325,
      "v": 60
    },
    {
      "midi": 42,
      "hit": false,
      "t": 92608.56599999845,
      "d": 156.24978124999325,
      "v": 45
    },
    {
      "midi": 64,
      "hit": false,
      "t": 92608.56599999944,
      "d": 652.1729999999952,
      "v": 45
    },
    {
      "midi": 44,
      "hit": false,
      "t": 92771.60924999844,
      "d": 156.24978124999325,
      "v": 45
    },
    {
      "midi": 36,
      "hit": false,
      "t": 92934.65249999842,
      "d": 156.24978124999325,
      "v": 45
    },
    {
      "midi": 42,
      "hit": false,
      "t": 92934.65249999842,
      "d": 156.24978124999325,
      "v": 45
    },
    {
      "midi": 44,
      "hit": false,
      "t": 93097.69574999841,
      "d": 156.24978124999325,
      "v": 45
    },
    {
      "midi": 38,
      "hit": false,
      "t": 93260.7389999984,
      "d": 156.24978124999325,
      "v": 45
    },
    {
      "midi": 42,
      "hit": false,
      "t": 93260.7389999984,
      "d": 156.24978124999325,
      "v": 45
    },
    {
      "midi": 64,
      "hit": false,
      "t": 93260.73899999943,
      "d": 543.4774999999936,
      "v": 45
    },
    {
      "midi": 44,
      "hit": false,
      "t": 93423.78224999839,
      "d": 156.24978124999325,
      "v": 45
    },
    {
      "midi": 42,
      "hit": false,
      "t": 93586.82549999838,
      "d": 156.24978124999325,
      "v": 45
    },
    {
      "midi": 48,
      "hit": false,
      "t": 93586.82549999976,
      "d": 319.2930312499957,
      "v": 60
    },
    {
      "midi": 48,
      "hit": false,
      "t": 93586.82549999977,
      "d": 319.2930312499957,
      "v": 60
    },
    {
      "midi": 44,
      "hit": false,
      "t": 93749.86874999836,
      "d": 156.24978124999325,
      "v": 45
    },
    {
      "midi": 36,
      "hit": false,
      "t": 93912.91199999835,
      "d": 156.24978124999325,
      "v": 63
    },
    {
      "midi": 46,
      "hit": false,
      "t": 93912.91199999835,
      "d": 156.24978124999325,
      "v": 63
    },
    {
      "midi": 45,
      "hit": false,
      "t": 93912.91199999975,
      "d": 543.4774999999936,
      "v": 60
    },
    {
      "midi": 45,
      "hit": false,
      "t": 93912.91199999976,
      "d": 543.4774999999936,
      "v": 60
    },
    {
      "midi": 60,
      "hit": false,
      "t": 93912.91200000014,
      "d": 2445.6487500000076,
      "v": 92
    },
    {
      "midi": 64,
      "hit": false,
      "t": 93912.91200000014,
      "d": 2445.6487500000076,
      "v": 92
    },
    {
      "midi": 69,
      "hit": false,
      "t": 93912.91200000014,
      "d": 2445.6487500000076,
      "v": 92
    },
    {
      "midi": 42,
      "hit": false,
      "t": 94075.95524999834,
      "d": 156.24978124999325,
      "v": 45
    },
    {
      "midi": 44,
      "hit": false,
      "t": 94238.99849999833,
      "d": 156.24978124999325,
      "v": 45
    },
    {
      "midi": 72,
      "hit": false,
      "t": 94238.99849999943,
      "d": 319.2930312499957,
      "v": 45
    },
    {
      "midi": 36,
      "hit": false,
      "t": 94402.04174999832,
      "d": 156.24978124999325,
      "v": 45
    },
    {
      "midi": 42,
      "hit": false,
      "t": 94402.04174999832,
      "d": 156.24978124999325,
      "v": 45
    },
    {
      "midi": 38,
      "hit": false,
      "t": 94565.0849999983,
      "d": 156.24978124999325,
      "v": 45
    },
    {
      "midi": 44,
      "hit": false,
      "t": 94565.0849999983,
      "d": 156.24978124999325,
      "v": 45
    },
    {
      "midi": 71,
      "hit": false,
      "t": 94565.08499999942,
      "d": 319.2930312499957,
      "v": 45
    },
    {
      "midi": 42,
      "hit": false,
      "t": 94728.12824999829,
      "d": 156.24978124999325,
      "v": 45
    },
    {
      "midi": 44,
      "hit": false,
      "t": 94891.17149999828,
      "d": 156.24978124999325,
      "v": 45
    },
    {
      "midi": 72,
      "hit": false,
      "t": 94891.17149999941,
      "d": 156.24978124999325,
      "v": 45
    },
    {
      "midi": 45,
      "hit": false,
      "t": 94891.17149999975,
      "d": 156.24978124999325,
      "v": 60
    },
    {
      "midi": 45,
      "hit": false,
      "t": 94891.17149999976,
      "d": 156.24978124999325,
      "v": 60
    },
    {
      "midi": 36,
      "hit": false,
      "t": 95054.21474999827,
      "d": 156.24978124999325,
      "v": 45
    },
    {
      "midi": 46,
      "hit": false,
      "t": 95054.21474999827,
      "d": 156.24978124999325,
      "v": 45
    },
    {
      "midi": 74,
      "hit": false,
      "t": 95054.2147499994,
      "d": 156.24978124999325,
      "v": 45
    },
    {
      "midi": 45,
      "hit": false,
      "t": 95054.21474999974,
      "d": 156.24978124999325,
      "v": 60
    },
    {
      "midi": 45,
      "hit": false,
      "t": 95054.21474999975,
      "d": 156.24978124999325,
      "v": 60
    },
    {
      "midi": 42,
      "hit": false,
      "t": 95217.25799999826,
      "d": 156.24978124999325,
      "v": 45
    },
    {
      "midi": 76,
      "hit": false,
      "t": 95217.25799999939,
      "d": 319.2930312499957,
      "v": 45
    },
    {
      "midi": 44,
      "hit": false,
      "t": 95380.30124999824,
      "d": 156.24978124999325,
      "v": 45
    },
    {
      "midi": 36,
      "hit": false,
      "t": 95543.34449999823,
      "d": 156.24978124999325,
      "v": 45
    },
    {
      "midi": 42,
      "hit": false,
      "t": 95543.34449999823,
      "d": 156.24978124999325,
      "v": 45
    },
    {
      "midi": 74,
      "hit": false,
      "t": 95543.34449999938,
      "d": 156.24978124999325,
      "v": 45
    },
    {
      "midi": 44,
      "hit": false,
      "t": 95706.38774999822,
      "d": 156.24978124999325,
      "v": 45
    },
    {
      "midi": 72,
      "hit": false,
      "t": 95706.38774999937,
      "d": 156.24978124999325,
      "v": 45
    },
    {
      "midi": 38,
      "hit": false,
      "t": 95869.4309999982,
      "d": 156.24978124999325,
      "v": 45
    },
    {
      "midi": 42,
      "hit": false,
      "t": 95869.4309999982,
      "d": 156.24978124999325,
      "v": 45
    },
    {
      "midi": 74,
      "hit": false,
      "t": 95869.43099999936,
      "d": 319.2930312499957,
      "v": 45
    },
    {
      "midi": 44,
      "hit": false,
      "t": 96032.4742499982,
      "d": 156.24978124999325,
      "v": 45
    },
    {
      "midi": 42,
      "hit": false,
      "t": 96195.51749999818,
      "d": 156.24978124999325,
      "v": 45
    },
    {
      "midi": 71,
      "hit": false,
      "t": 96195.51749999935,
      "d": 156.24978124999325,
      "v": 45
    },
    {
      "midi": 45,
      "hit": false,
      "t": 96195.51749999973,
      "d": 319.2930312499957,
      "v": 60
    },
    {
      "midi": 45,
      "hit": false,
      "t": 96195.51749999974,
      "d": 319.2930312499957,
      "v": 60
    },
    {
      "midi": 44,
      "hit": false,
      "t": 96358.56074999817,
      "d": 156.24978124999325,
      "v": 45
    },
    {
      "midi": 74,
      "hit": false,
      "t": 96358.56074999933,
      "d": 156.24978124999325,
      "v": 45
    },
    {
      "midi": 36,
      "hit": false,
      "t": 96521.60399999816,
      "d": 156.24978124999325,
      "v": 63
    },
    {
      "midi": 46,
      "hit": false,
      "t": 96521.60399999816,
      "d": 156.24978124999325,
      "v": 63
    },
    {
      "midi": 72,
      "hit": false,
      "t": 96521.60399999932,
      "d": 319.2930312499957,
      "v": 45
    },
    {
      "midi": 41,
      "hit": false,
      "t": 96521.60399999972,
      "d": 543.4774999999936,
      "v": 60
    },
    {
      "midi": 41,
      "hit": false,
      "t": 96521.60399999973,
      "d": 543.4774999999936,
      "v": 60
    },
    {
      "midi": 65,
      "hit": false,
      "t": 96521.60400000015,
      "d": 2445.6487500000076,
      "v": 92
    },
    {
      "midi": 69,
      "hit": false,
      "t": 96521.60400000015,
      "d": 2445.6487500000076,
      "v": 92
    },
    {
      "midi": 72,
      "hit": false,
      "t": 96521.60400000015,
      "d": 2445.6487500000076,
      "v": 92
    },
    {
      "midi": 42,
      "hit": false,
      "t": 96684.64724999815,
      "d": 156.24978124999325,
      "v": 45
    },
    {
      "midi": 44,
      "hit": false,
      "t": 96847.69049999813,
      "d": 156.24978124999325,
      "v": 45
    },
    {
      "midi": 71,
      "hit": false,
      "t": 96847.69049999931,
      "d": 156.24978124999325,
      "v": 45
    },
    {
      "midi": 36,
      "hit": false,
      "t": 97010.73374999812,
      "d": 156.24978124999325,
      "v": 45
    },
    {
      "midi": 42,
      "hit": false,
      "t": 97010.73374999812,
      "d": 156.24978124999325,
      "v": 45
    },
    {
      "midi": 69,
      "hit": false,
      "t": 97010.7337499993,
      "d": 156.24978124999325,
      "v": 45
    },
    {
      "midi": 38,
      "hit": false,
      "t": 97173.77699999811,
      "d": 156.24978124999325,
      "v": 45
    },
    {
      "midi": 44,
      "hit": false,
      "t": 97173.77699999811,
      "d": 156.24978124999325,
      "v": 45
    },
    {
      "midi": 71,
      "hit": false,
      "t": 97173.77699999929,
      "d": 319.2930312499957,
      "v": 45
    },
    {
      "midi": 42,
      "hit": false,
      "t": 97336.8202499981,
      "d": 156.24978124999325,
      "v": 45
    },
    {
      "midi": 44,
      "hit": false,
      "t": 97499.86349999809,
      "d": 156.24978124999325,
      "v": 45
    },
    {
      "midi": 67,
      "hit": false,
      "t": 97499.86349999928,
      "d": 319.2930312499957,
      "v": 45
    },
    {
      "midi": 41,
      "hit": false,
      "t": 97499.86349999972,
      "d": 156.24978124999325,
      "v": 60
    },
    {
      "midi": 41,
      "hit": false,
      "t": 97499.86349999973,
      "d": 156.24978124999325,
      "v": 60
    },
    {
      "midi": 36,
      "hit": false,
      "t": 97662.90674999807,
      "d": 156.24978124999325,
      "v": 45
    },
    {
      "midi": 46,
      "hit": false,
      "t": 97662.90674999807,
      "d": 156.24978124999325,
      "v": 45
    },
    {
      "midi": 41,
      "hit": false,
      "t": 97662.9067499997,
      "d": 156.24978124999325,
      "v": 60
    },
    {
      "midi": 41,
      "hit": false,
      "t": 97662.90674999972,
      "d": 156.24978124999325,
      "v": 60
    },
    {
      "midi": 42,
      "hit": false,
      "t": 97825.94999999806,
      "d": 156.24978124999325,
      "v": 45
    },
    {
      "midi": 69,
      "hit": false,
      "t": 97825.94999999927,
      "d": 543.4774999999936,
      "v": 45
    },
    {
      "midi": 44,
      "hit": false,
      "t": 97988.99324999805,
      "d": 156.24978124999325,
      "v": 45
    },
    {
      "midi": 36,
      "hit": false,
      "t": 98152.03649999804,
      "d": 156.24978124999325,
      "v": 45
    },
    {
      "midi": 42,
      "hit": false,
      "t": 98152.03649999804,
      "d": 156.24978124999325,
      "v": 45
    },
    {
      "midi": 44,
      "hit": false,
      "t": 98315.07974999803,
      "d": 156.24978124999325,
      "v": 45
    },
    {
      "midi": 38,
      "hit": false,
      "t": 98478.12299999801,
      "d": 156.24978124999325,
      "v": 45
    },
    {
      "midi": 42,
      "hit": false,
      "t": 98478.12299999801,
      "d": 156.24978124999325,
      "v": 45
    },
    {
      "midi": 69,
      "hit": false,
      "t": 98478.12299999926,
      "d": 319.2930312499957,
      "v": 45
    },
    {
      "midi": 44,
      "hit": false,
      "t": 98641.166249998,
      "d": 156.24978124999325,
      "v": 45
    },
    {
      "midi": 42,
      "hit": false,
      "t": 98804.20949999799,
      "d": 156.24978124999325,
      "v": 45
    },
    {
      "midi": 79,
      "hit": false,
      "t": 98804.20949999926,
      "d": 319.2930312499957,
      "v": 45
    },
    {
      "midi": 41,
      "hit": false,
      "t": 98804.20949999969,
      "d": 319.2930312499957,
      "v": 60
    },
    {
      "midi": 41,
      "hit": false,
      "t": 98804.2094999997,
      "d": 319.2930312499957,
      "v": 60
    },
    {
      "midi": 44,
      "hit": false,
      "t": 98967.25274999798,
      "d": 156.24978124999325,
      "v": 45
    },
    {
      "midi": 36,
      "hit": false,
      "t": 99130.29599999796,
      "d": 156.24978124999325,
      "v": 63
    },
    {
      "midi": 46,
      "hit": false,
      "t": 99130.29599999796,
      "d": 156.24978124999325,
      "v": 63
    },
    {
      "midi": 81,
      "hit": false,
      "t": 99130.29599999925,
      "d": 326.0865000000049,
      "v": 45
    },
    {
      "midi": 45,
      "hit": false,
      "t": 99130.29599999968,
      "d": 543.4774999999936,
      "v": 60
    },
    {
      "midi": 45,
      "hit": false,
      "t": 99130.2959999997,
      "d": 543.4774999999936,
      "v": 60
    },
    {
      "midi": 60,
      "hit": false,
      "t": 99130.29600000016,
      "d": 2445.6487500000076,
      "v": 92
    },
    {
      "midi": 64,
      "hit": false,
      "t": 99130.29600000016,
      "d": 2445.6487500000076,
      "v": 92
    },
    {
      "midi": 69,
      "hit": false,
      "t": 99130.29600000016,
      "d": 2445.6487500000076,
      "v": 92
    },
    {
      "midi": 42,
      "hit": false,
      "t": 99293.33924999795,
      "d": 156.24978124999325,
      "v": 45
    },
    {
      "midi": 44,
      "hit": false,
      "t": 99456.38249999794,
      "d": 156.24978124999325,
      "v": 45
    },
    {
      "midi": 72,
      "hit": false,
      "t": 99456.38249999925,
      "d": 326.0865000000049,
      "v": 45
    },
    {
      "midi": 36,
      "hit": false,
      "t": 99619.42574999793,
      "d": 156.24978124999325,
      "v": 45
    },
    {
      "midi": 42,
      "hit": false,
      "t": 99619.42574999793,
      "d": 156.24978124999325,
      "v": 45
    },
    {
      "midi": 38,
      "hit": false,
      "t": 99782.46899999792,
      "d": 156.24978124999325,
      "v": 45
    },
    {
      "midi": 44,
      "hit": false,
      "t": 99782.46899999792,
      "d": 156.24978124999325,
      "v": 45
    },
    {
      "midi": 71,
      "hit": false,
      "t": 99782.46899999926,
      "d": 326.0865000000049,
      "v": 45
    },
    {
      "midi": 42,
      "hit": false,
      "t": 99945.5122499979,
      "d": 156.24978124999325,
      "v": 45
    },
    {
      "midi": 44,
      "hit": false,
      "t": 100108.55549999789,
      "d": 156.24978124999325,
      "v": 45
    },
    {
      "midi": 72,
      "hit": false,
      "t": 100108.55549999926,
      "d": 156.24978124999325,
      "v": 45
    },
    {
      "midi": 45,
      "hit": false,
      "t": 100108.55549999968,
      "d": 156.24978124999325,
      "v": 60
    },
    {
      "midi": 45,
      "hit": false,
      "t": 100108.5554999997,
      "d": 156.24978124999325,
      "v": 60
    },
    {
      "midi": 36,
      "hit": false,
      "t": 100271.59874999788,
      "d": 156.24978124999325,
      "v": 45
    },
    {
      "midi": 46,
      "hit": false,
      "t": 100271.59874999788,
      "d": 156.24978124999325,
      "v": 45
    },
    {
      "midi": 74,
      "hit": false,
      "t": 100271.59874999925,
      "d": 156.24978124999325,
      "v": 45
    },
    {
      "midi": 45,
      "hit": false,
      "t": 100271.59874999967,
      "d": 156.24978124999325,
      "v": 60
    },
    {
      "midi": 45,
      "hit": false,
      "t": 100271.59874999968,
      "d": 156.24978124999325,
      "v": 60
    },
    {
      "midi": 42,
      "hit": false,
      "t": 100434.64199999787,
      "d": 156.24978124999325,
      "v": 45
    },
    {
      "midi": 76,
      "hit": false,
      "t": 100434.64199999924,
      "d": 319.2930312499957,
      "v": 45
    },
    {
      "midi": 44,
      "hit": false,
      "t": 100597.68524999786,
      "d": 156.24978124999325,
      "v": 45
    },
    {
      "midi": 36,
      "hit": false,
      "t": 100760.72849999784,
      "d": 156.24978124999325,
      "v": 45
    },
    {
      "midi": 42,
      "hit": false,
      "t": 100760.72849999784,
      "d": 156.24978124999325,
      "v": 45
    },
    {
      "midi": 74,
      "hit": false,
      "t": 100760.72849999923,
      "d": 156.24978124999325,
      "v": 45
    },
    {
      "midi": 44,
      "hit": false,
      "t": 100923.77174999783,
      "d": 156.24978124999325,
      "v": 45
    },
    {
      "midi": 72,
      "hit": false,
      "t": 100923.77174999921,
      "d": 156.24978124999325,
      "v": 45
    },
    {
      "midi": 38,
      "hit": false,
      "t": 101086.81499999782,
      "d": 156.24978124999325,
      "v": 45
    },
    {
      "midi": 42,
      "hit": false,
      "t": 101086.81499999782,
      "d": 156.24978124999325,
      "v": 45
    },
    {
      "midi": 74,
      "hit": false,
      "t": 101086.8149999992,
      "d": 1195.6505000000034,
      "v": 45
    },
    {
      "midi": 44,
      "hit": false,
      "t": 101249.85824999781,
      "d": 156.24978124999325,
      "v": 45
    },
    {
      "midi": 42,
      "hit": false,
      "t": 101412.9014999978,
      "d": 156.24978124999325,
      "v": 45
    },
    {
      "midi": 45,
      "hit": false,
      "t": 101412.90149999966,
      "d": 319.2930312499957,
      "v": 60
    },
    {
      "midi": 45,
      "hit": false,
      "t": 101412.90149999967,
      "d": 319.2930312499957,
      "v": 60
    },
    {
      "midi": 44,
      "hit": false,
      "t": 101575.94474999778,
      "d": 156.24978124999325,
      "v": 45
    },
    {
      "midi": 36,
      "hit": false,
      "t": 101738.98799999777,
      "d": 156.24978124999325,
      "v": 63
    },
    {
      "midi": 46,
      "hit": false,
      "t": 101738.98799999777,
      "d": 156.24978124999325,
      "v": 63
    },
    {
      "midi": 46,
      "hit": false,
      "t": 101738.98799999965,
      "d": 156.24978124999325,
      "v": 60
    },
    {
      "midi": 46,
      "hit": false,
      "t": 101738.98799999966,
      "d": 156.24978124999325,
      "v": 60
    },
    {
      "midi": 65,
      "hit": false,
      "t": 101738.98800000017,
      "d": 1141.3027500000026,
      "v": 92
    },
    {
      "midi": 70,
      "hit": false,
      "t": 101738.98800000017,
      "d": 1141.3027500000026,
      "v": 92
    },
    {
      "midi": 74,
      "hit": false,
      "t": 101738.98800000017,
      "d": 1141.3027500000026,
      "v": 92
    },
    {
      "midi": 42,
      "hit": false,
      "t": 101902.03124999776,
      "d": 156.24978124999325,
      "v": 45
    },
    {
      "midi": 46,
      "hit": false,
      "t": 101902.03124999964,
      "d": 156.24978124999325,
      "v": 60
    },
    {
      "midi": 46,
      "hit": false,
      "t": 101902.03124999965,
      "d": 156.24978124999325,
      "v": 60
    },
    {
      "midi": 44,
      "hit": false,
      "t": 102065.07449999775,
      "d": 156.24978124999325,
      "v": 45
    },
    {
      "midi": 36,
      "hit": false,
      "t": 102228.11774999773,
      "d": 156.24978124999325,
      "v": 45
    },
    {
      "midi": 42,
      "hit": false,
      "t": 102228.11774999773,
      "d": 156.24978124999325,
      "v": 45
    },
    {
      "midi": 46,
      "hit": false,
      "t": 102228.11774999963,
      "d": 156.24978124999325,
      "v": 60
    },
    {
      "midi": 46,
      "hit": false,
      "t": 102228.11774999964,
      "d": 156.24978124999325,
      "v": 60
    },
    {
      "midi": 38,
      "hit": false,
      "t": 102391.16099999772,
      "d": 156.24978124999325,
      "v": 45
    },
    {
      "midi": 44,
      "hit": false,
      "t": 102391.16099999772,
      "d": 156.24978124999325,
      "v": 45
    },
    {
      "midi": 65,
      "hit": false,
      "t": 102391.1609999992,
      "d": 319.2930312499957,
      "v": 45
    },
    {
      "midi": 42,
      "hit": false,
      "t": 102554.20424999771,
      "d": 156.24978124999325,
      "v": 45
    },
    {
      "midi": 44,
      "hit": false,
      "t": 102717.2474999977,
      "d": 156.24978124999325,
      "v": 45
    },
    {
      "midi": 70,
      "hit": false,
      "t": 102717.2474999992,
      "d": 319.2930312499957,
      "v": 45
    },
    {
      "midi": 36,
      "hit": false,
      "t": 102880.29074999769,
      "d": 156.24978124999325,
      "v": 45
    },
    {
      "midi": 46,
      "hit": false,
      "t": 102880.29074999769,
      "d": 156.24978124999325,
      "v": 45
    },
    {
      "midi": 42,
      "hit": false,
      "t": 103043.33399999767,
      "d": 156.24978124999325,
      "v": 45
    },
    {
      "midi": 67,
      "hit": false,
      "t": 103043.33399999919,
      "d": 1141.3027500000026,
      "v": 45
    },
    {
      "midi": 39,
      "hit": false,
      "t": 103043.33399999962,
      "d": 156.24978124999325,
      "v": 60
    },
    {
      "midi": 39,
      "hit": false,
      "t": 103043.33399999964,
      "d": 156.24978124999325,
      "v": 60
    },
    {
      "midi": 67,
      "hit": false,
      "t": 103043.33400000018,
      "d": 1141.3027500000026,
      "v": 92
    },
    {
      "midi": 70,
      "hit": false,
      "t": 103043.33400000018,
      "d": 1141.3027500000026,
      "v": 92
    },
    {
      "midi": 75,
      "hit": false,
      "t": 103043.33400000018,
      "d": 1141.3027500000026,
      "v": 92
    },
    {
      "midi": 44,
      "hit": false,
      "t": 103206.37724999766,
      "d": 156.24978124999325,
      "v": 45
    },
    {
      "midi": 39,
      "hit": false,
      "t": 103206.37724999961,
      "d": 156.24978124999325,
      "v": 60
    },
    {
      "midi": 39,
      "hit": false,
      "t": 103206.37724999963,
      "d": 156.24978124999325,
      "v": 60
    },
    {
      "midi": 36,
      "hit": false,
      "t": 103369.42049999765,
      "d": 156.24978124999325,
      "v": 45
    },
    {
      "midi": 42,
      "hit": false,
      "t": 103369.42049999765,
      "d": 156.24978124999325,
      "v": 45
    },
    {
      "midi": 44,
      "hit": false,
      "t": 103532.46374999764,
      "d": 156.24978124999325,
      "v": 45
    },
    {
      "midi": 39,
      "hit": false,
      "t": 103532.4637499996,
      "d": 156.24978124999325,
      "v": 60
    },
    {
      "midi": 39,
      "hit": false,
      "t": 103532.46374999962,
      "d": 156.24978124999325,
      "v": 60
    },
    {
      "midi": 38,
      "hit": false,
      "t": 103695.50699999763,
      "d": 156.24978124999325,
      "v": 45
    },
    {
      "midi": 42,
      "hit": false,
      "t": 103695.50699999763,
      "d": 156.24978124999325,
      "v": 45
    },
    {
      "midi": 46,
      "hit": false,
      "t": 103695.50699999959,
      "d": 543.4774999999936,
      "v": 60
    },
    {
      "midi": 46,
      "hit": false,
      "t": 103695.5069999996,
      "d": 543.4774999999936,
      "v": 60
    },
    {
      "midi": 44,
      "hit": false,
      "t": 103858.55024999761,
      "d": 156.24978124999325,
      "v": 45
    },
    {
      "midi": 42,
      "hit": false,
      "t": 104021.5934999976,
      "d": 156.24978124999325,
      "v": 45
    },
    {
      "midi": 44,
      "hit": false,
      "t": 104184.63674999759,
      "d": 156.24978124999325,
      "v": 45
    },
    {
      "midi": 36,
      "hit": false,
      "t": 104347.67999999758,
      "d": 156.24978124999325,
      "v": 63
    },
    {
      "midi": 46,
      "hit": false,
      "t": 104347.67999999758,
      "d": 156.24978124999325,
      "v": 63
    },
    {
      "midi": 40,
      "hit": false,
      "t": 104347.67999999959,
      "d": 543.4774999999936,
      "v": 60
    },
    {
      "midi": 40,
      "hit": false,
      "t": 104347.6799999996,
      "d": 543.4774999999936,
      "v": 60
    },
    {
      "midi": 42,
      "hit": false,
      "t": 104510.72324999757,
      "d": 156.24978124999325,
      "v": 45
    },
    {
      "midi": 44,
      "hit": false,
      "t": 104673.76649999755,
      "d": 156.24978124999325,
      "v": 45
    },
    {
      "midi": 79,
      "hit": false,
      "t": 104673.76649999918,
      "d": 319.2930312499957,
      "v": 45
    },
    {
      "midi": 67,
      "hit": false,
      "t": 104673.76650000017,
      "d": 319.2930312499957,
      "v": 92
    },
    {
      "midi": 36,
      "hit": false,
      "t": 104836.80974999754,
      "d": 156.24978124999325,
      "v": 45
    },
    {
      "midi": 42,
      "hit": false,
      "t": 104836.80974999754,
      "d": 156.24978124999325,
      "v": 45
    },
    {
      "midi": 38,
      "hit": false,
      "t": 104999.85299999753,
      "d": 156.24978124999325,
      "v": 45
    },
    {
      "midi": 44,
      "hit": false,
      "t": 104999.85299999753,
      "d": 156.24978124999325,
      "v": 45
    },
    {
      "midi": 78,
      "hit": false,
      "t": 104999.85299999917,
      "d": 319.2930312499957,
      "v": 45
    },
    {
      "midi": 66,
      "hit": false,
      "t": 104999.85300000016,
      "d": 319.2930312499957,
      "v": 92
    },
    {
      "midi": 42,
      "hit": false,
      "t": 105162.89624999752,
      "d": 156.24978124999325,
      "v": 45
    },
    {
      "midi": 44,
      "hit": false,
      "t": 105325.9394999975,
      "d": 156.24978124999325,
      "v": 45
    },
    {
      "midi": 79,
      "hit": false,
      "t": 105325.93949999916,
      "d": 156.24978124999325,
      "v": 45
    },
    {
      "midi": 40,
      "hit": false,
      "t": 105325.93949999959,
      "d": 156.24978124999325,
      "v": 60
    },
    {
      "midi": 40,
      "hit": false,
      "t": 105325.9394999996,
      "d": 156.24978124999325,
      "v": 60
    },
    {
      "midi": 67,
      "hit": false,
      "t": 105325.93950000015,
      "d": 156.24978124999325,
      "v": 92
    },
    {
      "midi": 36,
      "hit": false,
      "t": 105488.98274999749,
      "d": 156.24978124999325,
      "v": 45
    },
    {
      "midi": 46,
      "hit": false,
      "t": 105488.98274999749,
      "d": 156.24978124999325,
      "v": 45
    },
    {
      "midi": 81,
      "hit": false,
      "t": 105488.98274999915,
      "d": 156.24978124999325,
      "v": 45
    },
    {
      "midi": 40,
      "hit": false,
      "t": 105488.98274999957,
      "d": 156.24978124999325,
      "v": 60
    },
    {
      "midi": 40,
      "hit": false,
      "t": 105488.98274999959,
      "d": 156.24978124999325,
      "v": 60
    },
    {
      "midi": 69,
      "hit": false,
      "t": 105488.98275000014,
      "d": 156.24978124999325,
      "v": 92
    },
    {
      "midi": 42,
      "hit": false,
      "t": 105652.02599999748,
      "d": 156.24978124999325,
      "v": 45
    },
    {
      "midi": 83,
      "hit": false,
      "t": 105652.02599999914,
      "d": 319.2930312499957,
      "v": 45
    },
    {
      "midi": 71,
      "hit": false,
      "t": 105652.02600000013,
      "d": 319.2930312499957,
      "v": 92
    },
    {
      "midi": 44,
      "hit": false,
      "t": 105815.06924999747,
      "d": 156.24978124999325,
      "v": 45
    },
    {
      "midi": 36,
      "hit": false,
      "t": 105978.11249999746,
      "d": 156.24978124999325,
      "v": 45
    },
    {
      "midi": 42,
      "hit": false,
      "t": 105978.11249999746,
      "d": 156.24978124999325,
      "v": 45
    },
    {
      "midi": 81,
      "hit": false,
      "t": 105978.11249999913,
      "d": 156.24978124999325,
      "v": 45
    },
    {
      "midi": 69,
      "hit": false,
      "t": 105978.11250000012,
      "d": 156.24978124999325,
      "v": 92
    },
    {
      "midi": 44,
      "hit": false,
      "t": 106141.15574999744,
      "d": 156.24978124999325,
      "v": 45
    },
    {
      "midi": 79,
      "hit": false,
      "t": 106141.15574999912,
      "d": 156.24978124999325,
      "v": 45
    },
    {
      "midi": 67,
      "hit": false,
      "t": 106141.1557500001,
      "d": 156.24978124999325,
      "v": 92
    },
    {
      "midi": 38,
      "hit": false,
      "t": 106304.19899999743,
      "d": 156.24978124999325,
      "v": 45
    },
    {
      "midi": 42,
      "hit": false,
      "t": 106304.19899999743,
      "d": 156.24978124999325,
      "v": 45
    },
    {
      "midi": 81,
      "hit": false,
      "t": 106304.1989999991,
      "d": 319.2930312499957,
      "v": 45
    },
    {
      "midi": 69,
      "hit": false,
      "t": 106304.1990000001,
      "d": 319.2930312499957,
      "v": 92
    },
    {
      "midi": 44,
      "hit": false,
      "t": 106467.24224999742,
      "d": 156.24978124999325,
      "v": 45
    },
    {
      "midi": 42,
      "hit": false,
      "t": 106630.28549999741,
      "d": 156.24978124999325,
      "v": 45
    },
    {
      "midi": 78,
      "hit": false,
      "t": 106630.2854999991,
      "d": 156.24978124999325,
      "v": 45
    },
    {
      "midi": 40,
      "hit": false,
      "t": 106630.28549999956,
      "d": 319.2930312499957,
      "v": 60
    },
    {
      "midi": 40,
      "hit": false,
      "t": 106630.28549999958,
      "d": 319.2930312499957,
      "v": 60
    },
    {
      "midi": 66,
      "hit": false,
      "t": 106630.28550000009,
      "d": 156.24978124999325,
      "v": 92
    },
    {
      "midi": 44,
      "hit": false,
      "t": 106793.3287499974,
      "d": 156.24978124999325,
      "v": 45
    },
    {
      "midi": 81,
      "hit": false,
      "t": 106793.32874999908,
      "d": 156.24978124999325,
      "v": 45
    },
    {
      "midi": 69,
      "hit": false,
      "t": 106793.32875000007,
      "d": 156.24978124999325,
      "v": 92
    },
    {
      "midi": 36,
      "hit": false,
      "t": 106956.37199999738,
      "d": 156.24978124999325,
      "v": 63
    },
    {
      "midi": 46,
      "hit": false,
      "t": 106956.37199999738,
      "d": 156.24978124999325,
      "v": 63
    },
    {
      "midi": 79,
      "hit": false,
      "t": 106956.37199999907,
      "d": 319.2930312499957,
      "v": 45
    },
    {
      "midi": 48,
      "hit": false,
      "t": 106956.37199999955,
      "d": 543.4774999999936,
      "v": 60
    },
    {
      "midi": 48,
      "hit": false,
      "t": 106956.37199999957,
      "d": 543.4774999999936,
      "v": 60
    },
    {
      "midi": 58,
      "hit": false,
      "t": 106956.37200000006,
      "d": 319.2930312499957,
      "v": 92
    },
    {
      "midi": 67,
      "hit": false,
      "t": 106956.37200000006,
      "d": 319.2930312499957,
      "v": 92
    },
    {
      "midi": 42,
      "hit": false,
      "t": 107119.41524999737,
      "d": 156.24978124999325,
      "v": 45
    },
    {
      "midi": 44,
      "hit": false,
      "t": 107282.45849999736,
      "d": 156.24978124999325,
      "v": 45
    },
    {
      "midi": 78,
      "hit": false,
      "t": 107282.45849999906,
      "d": 156.24978124999325,
      "v": 45
    },
    {
      "midi": 66,
      "hit": false,
      "t": 107282.45850000005,
      "d": 156.24978124999325,
      "v": 92
    },
    {
      "midi": 36,
      "hit": false,
      "t": 107445.50174999735,
      "d": 156.24978124999325,
      "v": 45
    },
    {
      "midi": 42,
      "hit": false,
      "t": 107445.50174999735,
      "d": 156.24978124999325,
      "v": 45
    },
    {
      "midi": 76,
      "hit": false,
      "t": 107445.50174999905,
      "d": 156.24978124999325,
      "v": 45
    },
    {
      "midi": 64,
      "hit": false,
      "t": 107445.50175000004,
      "d": 156.24978124999325,
      "v": 92
    },
    {
      "midi": 38,
      "hit": false,
      "t": 107608.54499999734,
      "d": 156.24978124999325,
      "v": 45
    },
    {
      "midi": 44,
      "hit": false,
      "t": 107608.54499999734,
      "d": 156.24978124999325,
      "v": 45
    },
    {
      "midi": 78,
      "hit": false,
      "t": 107608.54499999904,
      "d": 319.2930312499957,
      "v": 45
    },
    {
      "midi": 66,
      "hit": false,
      "t": 107608.54500000003,
      "d": 319.2930312499957,
      "v": 92
    },
    {
      "midi": 42,
      "hit": false,
      "t": 107771.58824999732,
      "d": 156.24978124999325,
      "v": 45
    },
    {
      "midi": 44,
      "hit": false,
      "t": 107934.63149999731,
      "d": 156.24978124999325,
      "v": 45
    },
    {
      "midi": 74,
      "hit": false,
      "t": 107934.63149999903,
      "d": 319.2930312499957,
      "v": 45
    },
    {
      "midi": 48,
      "hit": false,
      "t": 107934.63149999955,
      "d": 156.24978124999325,
      "v": 60
    },
    {
      "midi": 48,
      "hit": false,
      "t": 107934.63149999957,
      "d": 156.24978124999325,
      "v": 60
    },
    {
      "midi": 62,
      "hit": false,
      "t": 107934.63150000002,
      "d": 319.2930312499957,
      "v": 92
    },
    {
      "midi": 36,
      "hit": false,
      "t": 108097.6747499973,
      "d": 156.24978124999325,
      "v": 45
    },
    {
      "midi": 46,
      "hit": false,
      "t": 108097.6747499973,
      "d": 156.24978124999325,
      "v": 45
    },
    {
      "midi": 48,
      "hit": false,
      "t": 108097.67474999954,
      "d": 156.24978124999325,
      "v": 60
    },
    {
      "midi": 48,
      "hit": false,
      "t": 108097.67474999955,
      "d": 156.24978124999325,
      "v": 60
    },
    {
      "midi": 42,
      "hit": false,
      "t": 108260.71799999729,
      "d": 156.24978124999325,
      "v": 45
    },
    {
      "midi": 76,
      "hit": false,
      "t": 108260.71799999902,
      "d": 1141.3027500000026,
      "v": 45
    },
    {
      "midi": 64,
      "hit": false,
      "t": 108260.71800000001,
      "d": 1141.3027500000026,
      "v": 92
    },
    {
      "midi": 44,
      "hit": false,
      "t": 108423.76124999727,
      "d": 156.24978124999325,
      "v": 45
    },
    {
      "midi": 36,
      "hit": false,
      "t": 108586.80449999726,
      "d": 156.24978124999325,
      "v": 45
    },
    {
      "midi": 42,
      "hit": false,
      "t": 108586.80449999726,
      "d": 156.24978124999325,
      "v": 45
    },
    {
      "midi": 44,
      "hit": false,
      "t": 108749.84774999725,
      "d": 156.24978124999325,
      "v": 45
    },
    {
      "midi": 38,
      "hit": false,
      "t": 108912.89099999724,
      "d": 156.24978124999325,
      "v": 45
    },
    {
      "midi": 42,
      "hit": false,
      "t": 108912.89099999724,
      "d": 156.24978124999325,
      "v": 45
    },
    {
      "midi": 44,
      "hit": false,
      "t": 109075.93424999723,
      "d": 156.24978124999325,
      "v": 45
    },
    {
      "midi": 42,
      "hit": false,
      "t": 109238.97749999721,
      "d": 156.24978124999325,
      "v": 45
    },
    {
      "midi": 48,
      "hit": false,
      "t": 109238.97749999953,
      "d": 319.2930312499957,
      "v": 60
    },
    {
      "midi": 48,
      "hit": false,
      "t": 109238.97749999954,
      "d": 319.2930312499957,
      "v": 60
    },
    {
      "midi": 44,
      "hit": false,
      "t": 109402.0207499972,
      "d": 156.24978124999325,
      "v": 45
    },
    {
      "midi": 36,
      "hit": false,
      "t": 109565.06399999719,
      "d": 156.24978124999325,
      "v": 63
    },
    {
      "midi": 46,
      "hit": false,
      "t": 109565.06399999719,
      "d": 156.24978124999325,
      "v": 63
    },
    {
      "midi": 40,
      "hit": false,
      "t": 109565.06399999952,
      "d": 543.4774999999936,
      "v": 60
    },
    {
      "midi": 40,
      "hit": false,
      "t": 109565.06399999953,
      "d": 543.4774999999936,
      "v": 60
    },
    {
      "midi": 42,
      "hit": false,
      "t": 109728.10724999718,
      "d": 156.24978124999325,
      "v": 45
    },
    {
      "midi": 44,
      "hit": false,
      "t": 109891.15049999717,
      "d": 156.24978124999325,
      "v": 45
    },
    {
      "midi": 79,
      "hit": false,
      "t": 109891.15049999901,
      "d": 319.2930312499957,
      "v": 45
    },
    {
      "midi": 67,
      "hit": false,
      "t": 109891.1505,
      "d": 319.2930312499957,
      "v": 92
    },
    {
      "midi": 36,
      "hit": false,
      "t": 110054.19374999715,
      "d": 156.24978124999325,
      "v": 45
    },
    {
      "midi": 42,
      "hit": false,
      "t": 110054.19374999715,
      "d": 156.24978124999325,
      "v": 45
    },
    {
      "midi": 38,
      "hit": false,
      "t": 110217.23699999714,
      "d": 156.24978124999325,
      "v": 45
    },
    {
      "midi": 44,
      "hit": false,
      "t": 110217.23699999714,
      "d": 156.24978124999325,
      "v": 45
    },
    {
      "midi": 78,
      "hit": false,
      "t": 110217.236999999,
      "d": 319.2930312499957,
      "v": 45
    },
    {
      "midi": 66,
      "hit": false,
      "t": 110217.237,
      "d": 319.2930312499957,
      "v": 92
    },
    {
      "midi": 42,
      "hit": false,
      "t": 110380.28024999713,
      "d": 156.24978124999325,
      "v": 45
    },
    {
      "midi": 44,
      "hit": false,
      "t": 110543.32349999712,
      "d": 156.24978124999325,
      "v": 45
    },
    {
      "midi": 79,
      "hit": false,
      "t": 110543.323499999,
      "d": 156.24978124999325,
      "v": 45
    },
    {
      "midi": 40,
      "hit": false,
      "t": 110543.32349999952,
      "d": 156.24978124999325,
      "v": 60
    },
    {
      "midi": 40,
      "hit": false,
      "t": 110543.32349999953,
      "d": 156.24978124999325,
      "v": 60
    },
    {
      "midi": 67,
      "hit": false,
      "t": 110543.32349999998,
      "d": 156.24978124999325,
      "v": 92
    },
    {
      "midi": 36,
      "hit": false,
      "t": 110706.3667499971,
      "d": 156.24978124999325,
      "v": 45
    },
    {
      "midi": 46,
      "hit": false,
      "t": 110706.3667499971,
      "d": 156.24978124999325,
      "v": 45
    },
    {
      "midi": 81,
      "hit": false,
      "t": 110706.36674999898,
      "d": 156.24978124999325,
      "v": 45
    },
    {
      "midi": 40,
      "hit": false,
      "t": 110706.3667499995,
      "d": 156.24978124999325,
      "v": 60
    },
    {
      "midi": 40,
      "hit": false,
      "t": 110706.36674999952,
      "d": 156.24978124999325,
      "v": 60
    },
    {
      "midi": 69,
      "hit": false,
      "t": 110706.36674999997,
      "d": 156.24978124999325,
      "v": 92
    },
    {
      "midi": 42,
      "hit": false,
      "t": 110869.4099999971,
      "d": 156.24978124999325,
      "v": 45
    },
    {
      "midi": 83,
      "hit": false,
      "t": 110869.40999999897,
      "d": 319.2930312499957,
      "v": 45
    },
    {
      "midi": 71,
      "hit": false,
      "t": 110869.40999999996,
      "d": 319.2930312499957,
      "v": 92
    },
    {
      "midi": 44,
      "hit": false,
      "t": 111032.45324999708,
      "d": 156.24978124999325,
      "v": 45
    },
    {
      "midi": 36,
      "hit": false,
      "t": 111195.49649999707,
      "d": 156.24978124999325,
      "v": 45
    },
    {
      "midi": 42,
      "hit": false,
      "t": 111195.49649999707,
      "d": 156.24978124999325,
      "v": 45
    },
    {
      "midi": 81,
      "hit": false,
      "t": 111195.49649999896,
      "d": 156.24978124999325,
      "v": 45
    },
    {
      "midi": 69,
      "hit": false,
      "t": 111195.49649999995,
      "d": 156.24978124999325,
      "v": 92
    },
    {
      "midi": 44,
      "hit": false,
      "t": 111358.53974999706,
      "d": 156.24978124999325,
      "v": 45
    },
    {
      "midi": 79,
      "hit": false,
      "t": 111358.53974999895,
      "d": 156.24978124999325,
      "v": 45
    },
    {
      "midi": 67,
      "hit": false,
      "t": 111358.53974999994,
      "d": 156.24978124999325,
      "v": 92
    },
    {
      "midi": 38,
      "hit": false,
      "t": 111521.58299999704,
      "d": 156.24978124999325,
      "v": 45
    },
    {
      "midi": 42,
      "hit": false,
      "t": 111521.58299999704,
      "d": 156.24978124999325,
      "v": 45
    },
    {
      "midi": 81,
      "hit": false,
      "t": 111521.58299999894,
      "d": 319.2930312499957,
      "v": 45
    },
    {
      "midi": 69,
      "hit": false,
      "t": 111521.58299999993,
      "d": 319.2930312499957,
      "v": 92
    },
    {
      "midi": 44,
      "hit": false,
      "t": 111684.62624999703,
      "d": 156.24978124999325,
      "v": 45
    },
    {
      "midi": 42,
      "hit": false,
      "t": 111847.66949999702,
      "d": 156.24978124999325,
      "v": 45
    },
    {
      "midi": 78,
      "hit": false,
      "t": 111847.66949999893,
      "d": 156.24978124999325,
      "v": 45
    },
    {
      "midi": 40,
      "hit": false,
      "t": 111847.6694999995,
      "d": 319.2930312499957,
      "v": 60
    },
    {
      "midi": 40,
      "hit": false,
      "t": 111847.66949999951,
      "d": 319.2930312499957,
      "v": 60
    },
    {
      "midi": 66,
      "hit": false,
      "t": 111847.66949999992,
      "d": 156.24978124999325,
      "v": 92
    },
    {
      "midi": 44,
      "hit": false,
      "t": 112010.71274999701,
      "d": 156.24978124999325,
      "v": 45
    },
    {
      "midi": 81,
      "hit": false,
      "t": 112010.71274999891,
      "d": 156.24978124999325,
      "v": 45
    },
    {
      "midi": 69,
      "hit": false,
      "t": 112010.7127499999,
      "d": 156.24978124999325,
      "v": 92
    },
    {
      "midi": 36,
      "hit": false,
      "t": 112173.755999997,
      "d": 156.24978124999325,
      "v": 63
    },
    {
      "midi": 46,
      "hit": false,
      "t": 112173.755999997,
      "d": 156.24978124999325,
      "v": 63
    },
    {
      "midi": 79,
      "hit": false,
      "t": 112173.7559999989,
      "d": 319.2930312499957,
      "v": 45
    },
    {
      "midi": 48,
      "hit": false,
      "t": 112173.75599999948,
      "d": 543.4774999999936,
      "v": 60
    },
    {
      "midi": 48,
      "hit": false,
      "t": 112173.7559999995,
      "d": 543.4774999999936,
      "v": 60
    },
    {
      "midi": 59,
      "hit": false,
      "t": 112173.75599999989,
      "d": 319.2930312499957,
      "v": 92
    },
    {
      "midi": 67,
      "hit": false,
      "t": 112173.75599999989,
      "d": 319.2930312499957,
      "v": 92
    },
    {
      "midi": 42,
      "hit": false,
      "t": 112336.79924999698,
      "d": 156.24978124999325,
      "v": 45
    },
    {
      "midi": 44,
      "hit": false,
      "t": 112499.84249999697,
      "d": 156.24978124999325,
      "v": 45
    },
    {
      "midi": 78,
      "hit": false,
      "t": 112499.8424999989,
      "d": 156.24978124999325,
      "v": 45
    },
    {
      "midi": 66,
      "hit": false,
      "t": 112499.84249999988,
      "d": 156.24978124999325,
      "v": 92
    },
    {
      "midi": 36,
      "hit": false,
      "t": 112662.88574999696,
      "d": 156.24978124999325,
      "v": 45
    },
    {
      "midi": 42,
      "hit": false,
      "t": 112662.88574999696,
      "d": 156.24978124999325,
      "v": 45
    },
    {
      "midi": 76,
      "hit": false,
      "t": 112662.88574999888,
      "d": 156.24978124999325,
      "v": 45
    },
    {
      "midi": 64,
      "hit": false,
      "t": 112662.88574999987,
      "d": 156.24978124999325,
      "v": 92
    },
    {
      "midi": 38,
      "hit": false,
      "t": 112825.92899999695,
      "d": 156.24978124999325,
      "v": 45
    },
    {
      "midi": 44,
      "hit": false,
      "t": 112825.92899999695,
      "d": 156.24978124999325,
      "v": 45
    },
    {
      "midi": 78,
      "hit": false,
      "t": 112825.92899999887,
      "d": 319.2930312499957,
      "v": 45
    },
    {
      "midi": 66,
      "hit": false,
      "t": 112825.92899999986,
      "d": 319.2930312499957,
      "v": 92
    },
    {
      "midi": 42,
      "hit": false,
      "t": 112988.97224999694,
      "d": 156.24978124999325,
      "v": 45
    },
    {
      "midi": 44,
      "hit": false,
      "t": 113152.01549999692,
      "d": 156.24978124999325,
      "v": 45
    },
    {
      "midi": 74,
      "hit": false,
      "t": 113152.01549999886,
      "d": 319.2930312499957,
      "v": 45
    },
    {
      "midi": 48,
      "hit": false,
      "t": 113152.01549999948,
      "d": 156.24978124999325,
      "v": 60
    },
    {
      "midi": 48,
      "hit": false,
      "t": 113152.0154999995,
      "d": 156.24978124999325,
      "v": 60
    },
    {
      "midi": 62,
      "hit": false,
      "t": 113152.01549999985,
      "d": 319.2930312499957,
      "v": 92
    },
    {
      "midi": 36,
      "hit": false,
      "t": 113315.05874999691,
      "d": 156.24978124999325,
      "v": 45
    },
    {
      "midi": 46,
      "hit": false,
      "t": 113315.05874999691,
      "d": 156.24978124999325,
      "v": 45
    },
    {
      "midi": 48,
      "hit": false,
      "t": 113315.05874999947,
      "d": 156.24978124999325,
      "v": 60
    },
    {
      "midi": 48,
      "hit": false,
      "t": 113315.05874999949,
      "d": 156.24978124999325,
      "v": 60
    },
    {
      "midi": 42,
      "hit": false,
      "t": 113478.1019999969,
      "d": 156.24978124999325,
      "v": 45
    },
    {
      "midi": 76,
      "hit": false,
      "t": 113478.10199999885,
      "d": 1141.3027500000026,
      "v": 45
    },
    {
      "midi": 64,
      "hit": false,
      "t": 113478.10199999984,
      "d": 1141.3027500000026,
      "v": 92
    },
    {
      "midi": 44,
      "hit": false,
      "t": 113641.14524999689,
      "d": 156.24978124999325,
      "v": 45
    },
    {
      "midi": 36,
      "hit": false,
      "t": 113804.18849999688,
      "d": 156.24978124999325,
      "v": 45
    },
    {
      "midi": 42,
      "hit": false,
      "t": 113804.18849999688,
      "d": 156.24978124999325,
      "v": 45
    },
    {
      "midi": 44,
      "hit": false,
      "t": 113967.23174999686,
      "d": 156.24978124999325,
      "v": 45
    },
    {
      "midi": 38,
      "hit": false,
      "t": 114130.27499999685,
      "d": 156.24978124999325,
      "v": 45
    },
    {
      "midi": 42,
      "hit": false,
      "t": 114130.27499999685,
      "d": 156.24978124999325,
      "v": 45
    },
    {
      "midi": 44,
      "hit": false,
      "t": 114293.31824999684,
      "d": 156.24978124999325,
      "v": 45
    },
    {
      "midi": 42,
      "hit": false,
      "t": 114456.36149999683,
      "d": 156.24978124999325,
      "v": 45
    },
    {
      "midi": 48,
      "hit": false,
      "t": 114456.36149999946,
      "d": 319.2930312499957,
      "v": 60
    },
    {
      "midi": 48,
      "hit": false,
      "t": 114456.36149999948,
      "d": 319.2930312499957,
      "v": 60
    },
    {
      "midi": 44,
      "hit": false,
      "t": 114619.40474999681,
      "d": 156.24978124999325,
      "v": 45
    },
    {
      "midi": 36,
      "hit": false,
      "t": 114782.4479999968,
      "d": 156.24978124999325,
      "v": 63
    },
    {
      "midi": 46,
      "hit": false,
      "t": 114782.4479999968,
      "d": 156.24978124999325,
      "v": 63
    },
    {
      "midi": 45,
      "hit": false,
      "t": 114782.44799999945,
      "d": 543.4774999999936,
      "v": 60
    },
    {
      "midi": 45,
      "hit": false,
      "t": 114782.44799999947,
      "d": 543.4774999999936,
      "v": 60
    },
    {
      "midi": 42,
      "hit": false,
      "t": 114945.49124999679,
      "d": 156.24978124999325,
      "v": 45
    },
    {
      "midi": 44,
      "hit": false,
      "t": 115108.53449999678,
      "d": 156.24978124999325,
      "v": 45
    },
    {
      "midi": 72,
      "hit": false,
      "t": 115108.53449999884,
      "d": 319.2930312499957,
      "v": 45
    },
    {
      "midi": 84,
      "hit": false,
      "t": 115108.53449999884,
      "d": 319.2930312499957,
      "v": 45
    },
    {
      "midi": 72,
      "hit": false,
      "t": 115108.53449999983,
      "d": 319.2930312499957,
      "v": 92
    },
    {
      "midi": 36,
      "hit": false,
      "t": 115271.57774999677,
      "d": 156.24978124999325,
      "v": 45
    },
    {
      "midi": 42,
      "hit": false,
      "t": 115271.57774999677,
      "d": 156.24978124999325,
      "v": 45
    },
    {
      "midi": 38,
      "hit": false,
      "t": 115434.62099999675,
      "d": 156.24978124999325,
      "v": 45
    },
    {
      "midi": 44,
      "hit": false,
      "t": 115434.62099999675,
      "d": 156.24978124999325,
      "v": 45
    },
    {
      "midi": 71,
      "hit": false,
      "t": 115434.62099999884,
      "d": 319.2930312499957,
      "v": 45
    },
    {
      "midi": 83,
      "hit": false,
      "t": 115434.62099999884,
      "d": 319.2930312499957,
      "v": 45
    },
    {
      "midi": 71,
      "hit": false,
      "t": 115434.62099999982,
      "d": 319.2930312499957,
      "v": 92
    },
    {
      "midi": 42,
      "hit": false,
      "t": 115597.66424999674,
      "d": 156.24978124999325,
      "v": 45
    },
    {
      "midi": 44,
      "hit": false,
      "t": 115760.70749999673,
      "d": 156.24978124999325,
      "v": 45
    },
    {
      "midi": 72,
      "hit": false,
      "t": 115760.70749999883,
      "d": 156.24978124999325,
      "v": 45
    },
    {
      "midi": 84,
      "hit": false,
      "t": 115760.70749999883,
      "d": 319.29303124998114,
      "v": 45
    },
    {
      "midi": 45,
      "hit": false,
      "t": 115760.70749999945,
      "d": 156.24978124999325,
      "v": 60
    },
    {
      "midi": 45,
      "hit": false,
      "t": 115760.70749999947,
      "d": 156.24978124999325,
      "v": 60
    },
    {
      "midi": 72,
      "hit": false,
      "t": 115760.70749999981,
      "d": 156.24978124999325,
      "v": 92
    },
    {
      "midi": 36,
      "hit": false,
      "t": 115923.75074999672,
      "d": 156.24978124999325,
      "v": 45
    },
    {
      "midi": 46,
      "hit": false,
      "t": 115923.75074999672,
      "d": 156.24978124999325,
      "v": 45
    },
    {
      "midi": 74,
      "hit": false,
      "t": 115923.75074999881,
      "d": 156.24978124999325,
      "v": 45
    },
    {
      "midi": 86,
      "hit": false,
      "t": 115923.75074999881,
      "d": 319.29303124998114,
      "v": 45
    },
    {
      "midi": 45,
      "hit": false,
      "t": 115923.75074999944,
      "d": 156.24978124999325,
      "v": 60
    },
    {
      "midi": 45,
      "hit": false,
      "t": 115923.75074999945,
      "d": 156.24978124999325,
      "v": 60
    },
    {
      "midi": 74,
      "hit": false,
      "t": 115923.7507499998,
      "d": 156.24978124999325,
      "v": 92
    },
    {
      "midi": 42,
      "hit": false,
      "t": 116086.7939999967,
      "d": 156.24978124999325,
      "v": 45
    },
    {
      "midi": 76,
      "hit": false,
      "t": 116086.7939999988,
      "d": 319.2930312499957,
      "v": 45
    },
    {
      "midi": 88,
      "hit": false,
      "t": 116086.7939999988,
      "d": 319.2930312499957,
      "v": 45
    },
    {
      "midi": 76,
      "hit": false,
      "t": 116086.79399999979,
      "d": 319.2930312499957,
      "v": 92
    },
    {
      "midi": 44,
      "hit": false,
      "t": 116249.8372499967,
      "d": 156.24978124999325,
      "v": 45
    },
    {
      "midi": 36,
      "hit": false,
      "t": 116412.88049999668,
      "d": 156.24978124999325,
      "v": 45
    },
    {
      "midi": 42,
      "hit": false,
      "t": 116412.88049999668,
      "d": 156.24978124999325,
      "v": 45
    },
    {
      "midi": 74,
      "hit": false,
      "t": 116412.88049999879,
      "d": 156.24978124999325,
      "v": 45
    },
    {
      "midi": 86,
      "hit": false,
      "t": 116412.88049999879,
      "d": 319.29303124998114,
      "v": 45
    },
    {
      "midi": 74,
      "hit": false,
      "t": 116412.88049999978,
      "d": 156.24978124999325,
      "v": 92
    },
    {
      "midi": 44,
      "hit": false,
      "t": 116575.92374999667,
      "d": 156.24978124999325,
      "v": 45
    },
    {
      "midi": 72,
      "hit": false,
      "t": 116575.92374999878,
      "d": 156.24978124999325,
      "v": 45
    },
    {
      "midi": 84,
      "hit": false,
      "t": 116575.92374999878,
      "d": 319.29303124998114,
      "v": 45
    },
    {
      "midi": 72,
      "hit": false,
      "t": 116575.92374999977,
      "d": 156.24978124999325,
      "v": 92
    },
    {
      "midi": 38,
      "hit": false,
      "t": 116738.96699999666,
      "d": 156.24978124999325,
      "v": 45
    },
    {
      "midi": 42,
      "hit": false,
      "t": 116738.96699999666,
      "d": 156.24978124999325,
      "v": 45
    },
    {
      "midi": 74,
      "hit": false,
      "t": 116738.96699999877,
      "d": 319.2930312499957,
      "v": 45
    },
    {
      "midi": 86,
      "hit": false,
      "t": 116738.96699999877,
      "d": 319.2930312499957,
      "v": 45
    },
    {
      "midi": 74,
      "hit": false,
      "t": 116738.96699999976,
      "d": 319.2930312499957,
      "v": 92
    },
    {
      "midi": 44,
      "hit": false,
      "t": 116902.01024999665,
      "d": 156.24978124999325,
      "v": 45
    },
    {
      "midi": 42,
      "hit": false,
      "t": 117065.05349999663,
      "d": 156.24978124999325,
      "v": 45
    },
    {
      "midi": 71,
      "hit": false,
      "t": 117065.05349999876,
      "d": 156.24978124999325,
      "v": 45
    },
    {
      "midi": 83,
      "hit": false,
      "t": 117065.05349999876,
      "d": 319.29303124998114,
      "v": 45
    },
    {
      "midi": 45,
      "hit": false,
      "t": 117065.05349999943,
      "d": 319.2930312499957,
      "v": 60
    },
    {
      "midi": 45,
      "hit": false,
      "t": 117065.05349999944,
      "d": 319.2930312499957,
      "v": 60
    },
    {
      "midi": 71,
      "hit": false,
      "t": 117065.05349999975,
      "d": 156.24978124999325,
      "v": 92
    },
    {
      "midi": 44,
      "hit": false,
      "t": 117228.09674999662,
      "d": 156.24978124999325,
      "v": 45
    },
    {
      "midi": 74,
      "hit": false,
      "t": 117228.09674999875,
      "d": 156.24978124999325,
      "v": 45
    },
    {
      "midi": 86,
      "hit": false,
      "t": 117228.09674999875,
      "d": 319.29303124998114,
      "v": 45
    },
    {
      "midi": 74,
      "hit": false,
      "t": 117228.09674999974,
      "d": 156.24978124999325,
      "v": 92
    },
    {
      "midi": 36,
      "hit": false,
      "t": 117391.13999999661,
      "d": 156.24978124999325,
      "v": 63
    },
    {
      "midi": 46,
      "hit": false,
      "t": 117391.13999999661,
      "d": 156.24978124999325,
      "v": 63
    },
    {
      "midi": 72,
      "hit": false,
      "t": 117391.13999999873,
      "d": 319.2930312499957,
      "v": 45
    },
    {
      "midi": 84,
      "hit": false,
      "t": 117391.13999999873,
      "d": 319.2930312499957,
      "v": 45
    },
    {
      "midi": 41,
      "hit": false,
      "t": 117391.13999999942,
      "d": 543.4774999999936,
      "v": 60
    },
    {
      "midi": 41,
      "hit": false,
      "t": 117391.13999999943,
      "d": 543.4774999999936,
      "v": 60
    },
    {
      "midi": 72,
      "hit": false,
      "t": 117391.13999999972,
      "d": 319.2930312499957,
      "v": 92
    },
    {
      "midi": 42,
      "hit": false,
      "t": 117554.1832499966,
      "d": 156.24978124999325,
      "v": 45
    },
    {
      "midi": 44,
      "hit": false,
      "t": 117717.22649999658,
      "d": 156.24978124999325,
      "v": 45
    },
    {
      "midi": 71,
      "hit": false,
      "t": 117717.22649999872,
      "d": 156.24978124999325,
      "v": 45
    },
    {
      "midi": 83,
      "hit": false,
      "t": 117717.22649999872,
      "d": 319.29303124998114,
      "v": 45
    },
    {
      "midi": 71,
      "hit": false,
      "t": 117717.22649999971,
      "d": 156.24978124999325,
      "v": 92
    },
    {
      "midi": 36,
      "hit": false,
      "t": 117880.26974999657,
      "d": 156.24978124999325,
      "v": 45
    },
    {
      "midi": 42,
      "hit": false,
      "t": 117880.26974999657,
      "d": 156.24978124999325,
      "v": 45
    },
    {
      "midi": 69,
      "hit": false,
      "t": 117880.26974999871,
      "d": 156.24978124999325,
      "v": 45
    },
    {
      "midi": 81,
      "hit": false,
      "t": 117880.26974999871,
      "d": 319.29303124998114,
      "v": 45
    },
    {
      "midi": 69,
      "hit": false,
      "t": 117880.2697499997,
      "d": 156.24978124999325,
      "v": 92
    },
    {
      "midi": 38,
      "hit": false,
      "t": 118043.31299999656,
      "d": 156.24978124999325,
      "v": 45
    },
    {
      "midi": 44,
      "hit": false,
      "t": 118043.31299999656,
      "d": 156.24978124999325,
      "v": 45
    },
    {
      "midi": 71,
      "hit": false,
      "t": 118043.3129999987,
      "d": 319.2930312499957,
      "v": 45
    },
    {
      "midi": 83,
      "hit": false,
      "t": 118043.3129999987,
      "d": 319.2930312499957,
      "v": 45
    },
    {
      "midi": 71,
      "hit": false,
      "t": 118043.31299999969,
      "d": 319.2930312499957,
      "v": 92
    },
    {
      "midi": 42,
      "hit": false,
      "t": 118206.35624999655,
      "d": 156.24978124999325,
      "v": 45
    },
    {
      "midi": 44,
      "hit": false,
      "t": 118369.39949999654,
      "d": 156.24978124999325,
      "v": 45
    },
    {
      "midi": 67,
      "hit": false,
      "t": 118369.39949999869,
      "d": 319.2930312499957,
      "v": 45
    },
    {
      "midi": 79,
      "hit": false,
      "t": 118369.39949999869,
      "d": 319.2930312499957,
      "v": 45
    },
    {
      "midi": 41,
      "hit": false,
      "t": 118369.39949999942,
      "d": 156.24978124999325,
      "v": 60
    },
    {
      "midi": 41,
      "hit": false,
      "t": 118369.39949999943,
      "d": 156.24978124999325,
      "v": 60
    },
    {
      "midi": 67,
      "hit": false,
      "t": 118369.39949999968,
      "d": 319.2930312499957,
      "v": 92
    },
    {
      "midi": 36,
      "hit": false,
      "t": 118532.44274999652,
      "d": 156.24978124999325,
      "v": 45
    },
    {
      "midi": 46,
      "hit": false,
      "t": 118532.44274999652,
      "d": 156.24978124999325,
      "v": 45
    },
    {
      "midi": 41,
      "hit": false,
      "t": 118532.4427499994,
      "d": 156.24978124999325,
      "v": 60
    },
    {
      "midi": 41,
      "hit": false,
      "t": 118532.44274999942,
      "d": 156.24978124999325,
      "v": 60
    },
    {
      "midi": 42,
      "hit": false,
      "t": 118695.48599999651,
      "d": 156.24978124999325,
      "v": 45
    },
    {
      "midi": 69,
      "hit": false,
      "t": 118695.48599999868,
      "d": 1141.3027500000026,
      "v": 45
    },
    {
      "midi": 81,
      "hit": false,
      "t": 118695.48599999868,
      "d": 1141.3027500000026,
      "v": 45
    },
    {
      "midi": 69,
      "hit": false,
      "t": 118695.48599999967,
      "d": 1141.3027500000026,
      "v": 92
    },
    {
      "midi": 44,
      "hit": false,
      "t": 118858.5292499965,
      "d": 156.24978124999325,
      "v": 45
    },
    {
      "midi": 36,
      "hit": false,
      "t": 119021.57249999649,
      "d": 156.24978124999325,
      "v": 45
    },
    {
      "midi": 42,
      "hit": false,
      "t": 119021.57249999649,
      "d": 156.24978124999325,
      "v": 45
    },
    {
      "midi": 44,
      "hit": false,
      "t": 119184.61574999648,
      "d": 156.24978124999325,
      "v": 45
    },
    {
      "midi": 38,
      "hit": false,
      "t": 119347.65899999646,
      "d": 156.24978124999325,
      "v": 45
    },
    {
      "midi": 42,
      "hit": false,
      "t": 119347.65899999646,
      "d": 156.24978124999325,
      "v": 45
    },
    {
      "midi": 44,
      "hit": false,
      "t": 119510.70224999645,
      "d": 156.24978124999325,
      "v": 45
    },
    {
      "midi": 42,
      "hit": false,
      "t": 119673.74549999644,
      "d": 156.24978124999325,
      "v": 45
    },
    {
      "midi": 41,
      "hit": false,
      "t": 119673.7454999994,
      "d": 319.2930312499957,
      "v": 60
    },
    {
      "midi": 41,
      "hit": false,
      "t": 119673.74549999941,
      "d": 319.2930312499957,
      "v": 60
    },
    {
      "midi": 44,
      "hit": false,
      "t": 119836.78874999643,
      "d": 156.24978124999325,
      "v": 45
    },
    {
      "midi": 36,
      "hit": false,
      "t": 119999.83199999642,
      "d": 156.24978124999325,
      "v": 63
    },
    {
      "midi": 46,
      "hit": false,
      "t": 119999.83199999642,
      "d": 156.24978124999325,
      "v": 63
    },
    {
      "midi": 45,
      "hit": false,
      "t": 119999.83199999938,
      "d": 543.4774999999936,
      "v": 60
    },
    {
      "midi": 45,
      "hit": false,
      "t": 119999.8319999994,
      "d": 543.4774999999936,
      "v": 60
    },
    {
      "midi": 42,
      "hit": false,
      "t": 120162.8752499964,
      "d": 156.24978124999325,
      "v": 45
    },
    {
      "midi": 44,
      "hit": false,
      "t": 120325.91849999639,
      "d": 156.24978124999325,
      "v": 45
    },
    {
      "midi": 69,
      "hit": false,
      "t": 120325.91849999868,
      "d": 319.2930312499957,
      "v": 45
    },
    {
      "midi": 81,
      "hit": false,
      "t": 120325.91849999868,
      "d": 319.2930312499957,
      "v": 45
    },
    {
      "midi": 72,
      "hit": false,
      "t": 120325.91849999967,
      "d": 319.2930312499957,
      "v": 92
    },
    {
      "midi": 36,
      "hit": false,
      "t": 120488.96174999638,
      "d": 156.24978124999325,
      "v": 45
    },
    {
      "midi": 42,
      "hit": false,
      "t": 120488.96174999638,
      "d": 156.24978124999325,
      "v": 45
    },
    {
      "midi": 38,
      "hit": false,
      "t": 120652.00499999637,
      "d": 156.24978124999325,
      "v": 45
    },
    {
      "midi": 44,
      "hit": false,
      "t": 120652.00499999637,
      "d": 156.24978124999325,
      "v": 45
    },
    {
      "midi": 67,
      "hit": false,
      "t": 120652.00499999867,
      "d": 319.2930312499957,
      "v": 45
    },
    {
      "midi": 79,
      "hit": false,
      "t": 120652.00499999867,
      "d": 319.2930312499957,
      "v": 45
    },
    {
      "midi": 71,
      "hit": false,
      "t": 120652.00499999966,
      "d": 319.2930312499957,
      "v": 92
    },
    {
      "midi": 42,
      "hit": false,
      "t": 120815.04824999635,
      "d": 156.24978124999325,
      "v": 45
    },
    {
      "midi": 44,
      "hit": false,
      "t": 120978.09149999634,
      "d": 156.24978124999325,
      "v": 45
    },
    {
      "midi": 69,
      "hit": false,
      "t": 120978.09149999866,
      "d": 156.24978124999325,
      "v": 45
    },
    {
      "midi": 81,
      "hit": false,
      "t": 120978.09149999866,
      "d": 156.24978124999325,
      "v": 45
    },
    {
      "midi": 45,
      "hit": false,
      "t": 120978.09149999938,
      "d": 156.24978124999325,
      "v": 60
    },
    {
      "midi": 45,
      "hit": false,
      "t": 120978.0914999994,
      "d": 156.24978124999325,
      "v": 60
    },
    {
      "midi": 72,
      "hit": false,
      "t": 120978.09149999965,
      "d": 156.24978124999325,
      "v": 92
    },
    {
      "midi": 36,
      "hit": false,
      "t": 121141.13474999633,
      "d": 156.24978124999325,
      "v": 45
    },
    {
      "midi": 46,
      "hit": false,
      "t": 121141.13474999633,
      "d": 156.24978124999325,
      "v": 45
    },
    {
      "midi": 71,
      "hit": false,
      "t": 121141.13474999864,
      "d": 156.24978124999325,
      "v": 45
    },
    {
      "midi": 83,
      "hit": false,
      "t": 121141.13474999864,
      "d": 156.24978124999325,
      "v": 45
    },
    {
      "midi": 45,
      "hit": false,
      "t": 121141.13474999937,
      "d": 156.24978124999325,
      "v": 60
    },
    {
      "midi": 45,
      "hit": false,
      "t": 121141.13474999939,
      "d": 156.24978124999325,
      "v": 60
    },
    {
      "midi": 74,
      "hit": false,
      "t": 121141.13474999963,
      "d": 156.24978124999325,
      "v": 92
    },
    {
      "midi": 42,
      "hit": false,
      "t": 121304.17799999632,
      "d": 156.24978124999325,
      "v": 45
    },
    {
      "midi": 72,
      "hit": false,
      "t": 121304.17799999863,
      "d": 319.2930312499957,
      "v": 45
    },
    {
      "midi": 84,
      "hit": false,
      "t": 121304.17799999863,
      "d": 319.2930312499957,
      "v": 45
    },
    {
      "midi": 76,
      "hit": false,
      "t": 121304.17799999962,
      "d": 319.2930312499957,
      "v": 92
    },
    {
      "midi": 44,
      "hit": false,
      "t": 121467.2212499963,
      "d": 156.24978124999325,
      "v": 45
    },
    {
      "midi": 36,
      "hit": false,
      "t": 121630.2644999963,
      "d": 156.24978124999325,
      "v": 45
    },
    {
      "midi": 42,
      "hit": false,
      "t": 121630.2644999963,
      "d": 156.24978124999325,
      "v": 45
    },
    {
      "midi": 71,
      "hit": false,
      "t": 121630.26449999862,
      "d": 156.24978124999325,
      "v": 45
    },
    {
      "midi": 83,
      "hit": false,
      "t": 121630.26449999862,
      "d": 156.24978124999325,
      "v": 45
    },
    {
      "midi": 74,
      "hit": false,
      "t": 121630.26449999961,
      "d": 156.24978124999325,
      "v": 92
    },
    {
      "midi": 44,
      "hit": false,
      "t": 121793.30774999628,
      "d": 156.24978124999325,
      "v": 45
    },
    {
      "midi": 69,
      "hit": false,
      "t": 121793.30774999861,
      "d": 156.24978124999325,
      "v": 45
    },
    {
      "midi": 81,
      "hit": false,
      "t": 121793.30774999861,
      "d": 156.24978124999325,
      "v": 45
    },
    {
      "midi": 72,
      "hit": false,
      "t": 121793.3077499996,
      "d": 156.24978124999325,
      "v": 92
    },
    {
      "midi": 38,
      "hit": false,
      "t": 121956.35099999627,
      "d": 156.24978124999325,
      "v": 45
    },
    {
      "midi": 42,
      "hit": false,
      "t": 121956.35099999627,
      "d": 156.24978124999325,
      "v": 45
    },
    {
      "midi": 74,
      "hit": false,
      "t": 121956.3509999986,
      "d": 1195.6505000000034,
      "v": 45
    },
    {
      "midi": 86,
      "hit": false,
      "t": 121956.3509999986,
      "d": 1195.6505000000034,
      "v": 45
    },
    {
      "midi": 74,
      "hit": false,
      "t": 121956.35099999959,
      "d": 1195.6505000000034,
      "v": 92
    },
    {
      "midi": 44,
      "hit": false,
      "t": 122119.39424999626,
      "d": 156.24978124999325,
      "v": 45
    },
    {
      "midi": 42,
      "hit": false,
      "t": 122282.43749999625,
      "d": 156.24978124999325,
      "v": 45
    },
    {
      "midi": 45,
      "hit": false,
      "t": 122282.43749999936,
      "d": 319.2930312499957,
      "v": 60
    },
    {
      "midi": 45,
      "hit": false,
      "t": 122282.43749999937,
      "d": 319.2930312499957,
      "v": 60
    },
    {
      "midi": 44,
      "hit": false,
      "t": 122445.48074999623,
      "d": 156.24978124999325,
      "v": 45
    },
    {
      "midi": 36,
      "hit": false,
      "t": 122608.52399999622,
      "d": 156.24978124999325,
      "v": 63
    },
    {
      "midi": 46,
      "hit": false,
      "t": 122608.52399999622,
      "d": 156.24978124999325,
      "v": 63
    },
    {
      "midi": 46,
      "hit": false,
      "t": 122608.52399999935,
      "d": 156.24978124999325,
      "v": 60
    },
    {
      "midi": 46,
      "hit": false,
      "t": 122608.52399999936,
      "d": 156.24978124999325,
      "v": 60
    },
    {
      "midi": 42,
      "hit": false,
      "t": 122771.56724999621,
      "d": 156.24978124999325,
      "v": 45
    },
    {
      "midi": 46,
      "hit": false,
      "t": 122771.56724999934,
      "d": 156.24978124999325,
      "v": 60
    },
    {
      "midi": 46,
      "hit": false,
      "t": 122771.56724999935,
      "d": 156.24978124999325,
      "v": 60
    },
    {
      "midi": 44,
      "hit": false,
      "t": 122934.6104999962,
      "d": 156.24978124999325,
      "v": 45
    },
    {
      "midi": 36,
      "hit": false,
      "t": 123097.65374999619,
      "d": 156.24978124999325,
      "v": 45
    },
    {
      "midi": 42,
      "hit": false,
      "t": 123097.65374999619,
      "d": 156.24978124999325,
      "v": 45
    },
    {
      "midi": 46,
      "hit": false,
      "t": 123097.65374999933,
      "d": 156.24978124999325,
      "v": 60
    },
    {
      "midi": 46,
      "hit": false,
      "t": 123097.65374999934,
      "d": 156.24978124999325,
      "v": 60
    },
    {
      "midi": 38,
      "hit": false,
      "t": 123260.69699999617,
      "d": 156.24978124999325,
      "v": 45
    },
    {
      "midi": 44,
      "hit": false,
      "t": 123260.69699999617,
      "d": 156.24978124999325,
      "v": 45
    },
    {
      "midi": 65,
      "hit": false,
      "t": 123260.6969999986,
      "d": 319.2930312499957,
      "v": 45
    },
    {
      "midi": 77,
      "hit": false,
      "t": 123260.6969999986,
      "d": 319.2930312499957,
      "v": 45
    },
    {
      "midi": 65,
      "hit": false,
      "t": 123260.69699999959,
      "d": 319.2930312499957,
      "v": 92
    },
    {
      "midi": 42,
      "hit": false,
      "t": 123423.74024999616,
      "d": 156.24978124999325,
      "v": 45
    },
    {
      "midi": 44,
      "hit": false,
      "t": 123586.78349999615,
      "d": 156.24978124999325,
      "v": 45
    },
    {
      "midi": 70,
      "hit": false,
      "t": 123586.7834999986,
      "d": 319.2930312499957,
      "v": 45
    },
    {
      "midi": 82,
      "hit": false,
      "t": 123586.7834999986,
      "d": 319.2930312499957,
      "v": 45
    },
    {
      "midi": 70,
      "hit": false,
      "t": 123586.78349999958,
      "d": 319.2930312499957,
      "v": 92
    },
    {
      "midi": 36,
      "hit": false,
      "t": 123749.82674999614,
      "d": 156.24978124999325,
      "v": 45
    },
    {
      "midi": 46,
      "hit": false,
      "t": 123749.82674999614,
      "d": 156.24978124999325,
      "v": 45
    },
    {
      "midi": 42,
      "hit": false,
      "t": 123912.86999999612,
      "d": 156.24978124999325,
      "v": 45
    },
    {
      "midi": 67,
      "hit": false,
      "t": 123912.86999999858,
      "d": 1141.3027500000026,
      "v": 45
    },
    {
      "midi": 79,
      "hit": false,
      "t": 123912.86999999858,
      "d": 1141.3027500000026,
      "v": 45
    },
    {
      "midi": 39,
      "hit": false,
      "t": 123912.86999999933,
      "d": 156.24978124999325,
      "v": 60
    },
    {
      "midi": 39,
      "hit": false,
      "t": 123912.86999999934,
      "d": 156.24978124999325,
      "v": 60
    },
    {
      "midi": 67,
      "hit": false,
      "t": 123912.86999999957,
      "d": 1141.3027500000026,
      "v": 92
    },
    {
      "midi": 44,
      "hit": false,
      "t": 124075.91324999611,
      "d": 156.24978124999325,
      "v": 45
    },
    {
      "midi": 39,
      "hit": false,
      "t": 124075.91324999931,
      "d": 156.24978124999325,
      "v": 60
    },
    {
      "midi": 39,
      "hit": false,
      "t": 124075.91324999933,
      "d": 156.24978124999325,
      "v": 60
    },
    {
      "midi": 36,
      "hit": false,
      "t": 124238.9564999961,
      "d": 156.24978124999325,
      "v": 45
    },
    {
      "midi": 42,
      "hit": false,
      "t": 124238.9564999961,
      "d": 156.24978124999325,
      "v": 45
    },
    {
      "midi": 44,
      "hit": false,
      "t": 124401.99974999609,
      "d": 156.24978124999325,
      "v": 45
    },
    {
      "midi": 39,
      "hit": false,
      "t": 124401.9997499993,
      "d": 156.24978124999325,
      "v": 60
    },
    {
      "midi": 39,
      "hit": false,
      "t": 124401.99974999932,
      "d": 156.24978124999325,
      "v": 60
    },
    {
      "midi": 38,
      "hit": false,
      "t": 124565.04299999608,
      "d": 156.24978124999325,
      "v": 45
    },
    {
      "midi": 42,
      "hit": false,
      "t": 124565.04299999608,
      "d": 156.24978124999325,
      "v": 45
    },
    {
      "midi": 46,
      "hit": false,
      "t": 124565.04299999929,
      "d": 543.4774999999936,
      "v": 60
    },
    {
      "midi": 46,
      "hit": false,
      "t": 124565.0429999993,
      "d": 543.4774999999936,
      "v": 60
    },
    {
      "midi": 44,
      "hit": false,
      "t": 124728.08624999606,
      "d": 156.24978124999325,
      "v": 45
    },
    {
      "midi": 42,
      "hit": false,
      "t": 124891.12949999605,
      "d": 156.24978124999325,
      "v": 45
    },
    {
      "midi": 44,
      "hit": false,
      "t": 125054.17274999604,
      "d": 156.24978124999325,
      "v": 45
    },
    {
      "midi": 36,
      "hit": false,
      "t": 125217.21599999603,
      "d": 156.24978124999325,
      "v": 63
    },
    {
      "midi": 46,
      "hit": false,
      "t": 125217.21599999603,
      "d": 156.24978124999325,
      "v": 63
    },
    {
      "midi": 40,
      "hit": false,
      "t": 125217.2159999993,
      "d": 543.4774999999936,
      "v": 92
    },
    {
      "midi": 64,
      "hit": false,
      "t": 125217.21599999958,
      "d": 2445.648749999993,
      "v": 30
    },
    {
      "midi": 67,
      "hit": false,
      "t": 125217.21599999958,
      "d": 2445.648749999993,
      "v": 30
    },
    {
      "midi": 71,
      "hit": false,
      "t": 125217.21599999958,
      "d": 2445.648749999993,
      "v": 30
    },
    {
      "midi": 74,
      "hit": false,
      "t": 125217.21599999958,
      "d": 2445.648749999993,
      "v": 30
    },
    {
      "midi": 42,
      "hit": false,
      "t": 125380.25924999602,
      "d": 156.24978124999325,
      "v": 45
    },
    {
      "midi": 71,
      "hit": false,
      "t": 125380.25924999996,
      "d": 489.1297499999928,
      "v": 108
    },
    {
      "midi": 44,
      "hit": false,
      "t": 125543.302499996,
      "d": 156.24978124999325,
      "v": 45
    },
    {
      "midi": 36,
      "hit": false,
      "t": 125706.34574999599,
      "d": 156.24978124999325,
      "v": 45
    },
    {
      "midi": 42,
      "hit": false,
      "t": 125706.34574999599,
      "d": 156.24978124999325,
      "v": 45
    },
    {
      "midi": 38,
      "hit": false,
      "t": 125869.38899999598,
      "d": 156.24978124999325,
      "v": 45
    },
    {
      "midi": 44,
      "hit": false,
      "t": 125869.38899999598,
      "d": 156.24978124999325,
      "v": 45
    },
    {
      "midi": 72,
      "hit": false,
      "t": 125869.38899999995,
      "d": 326.0865000000049,
      "v": 127
    },
    {
      "midi": 42,
      "hit": false,
      "t": 126032.43224999597,
      "d": 156.24978124999325,
      "v": 45
    },
    {
      "midi": 44,
      "hit": false,
      "t": 126195.47549999596,
      "d": 156.24978124999325,
      "v": 45
    },
    {
      "midi": 40,
      "hit": false,
      "t": 126195.4754999993,
      "d": 319.2930312499957,
      "v": 92
    },
    {
      "midi": 36,
      "hit": false,
      "t": 126358.51874999594,
      "d": 156.24978124999325,
      "v": 45
    },
    {
      "midi": 46,
      "hit": false,
      "t": 126358.51874999594,
      "d": 156.24978124999325,
      "v": 45
    },
    {
      "midi": 42,
      "hit": false,
      "t": 126521.56199999593,
      "d": 156.24978124999325,
      "v": 45
    },
    {
      "midi": 44,
      "hit": false,
      "t": 126684.60524999592,
      "d": 156.24978124999325,
      "v": 45
    },
    {
      "midi": 36,
      "hit": false,
      "t": 126847.6484999959,
      "d": 156.24978124999325,
      "v": 45
    },
    {
      "midi": 42,
      "hit": false,
      "t": 126847.6484999959,
      "d": 156.24978124999325,
      "v": 45
    },
    {
      "midi": 44,
      "hit": false,
      "t": 127010.6917499959,
      "d": 156.24978124999325,
      "v": 45
    },
    {
      "midi": 38,
      "hit": false,
      "t": 127173.73499999588,
      "d": 156.24978124999325,
      "v": 45
    },
    {
      "midi": 42,
      "hit": false,
      "t": 127173.73499999588,
      "d": 156.24978124999325,
      "v": 45
    },
    {
      "midi": 47,
      "hit": false,
      "t": 127173.7349999993,
      "d": 319.2930312499957,
      "v": 92
    },
    {
      "midi": 72,
      "hit": false,
      "t": 127173.73499999996,
      "d": 74.7281562499993,
      "v": 108
    },
    {
      "midi": 71,
      "hit": false,
      "t": 127255.25662499995,
      "d": 896.7378750000062,
      "v": 108
    },
    {
      "midi": 44,
      "hit": false,
      "t": 127336.77824999587,
      "d": 156.24978124999325,
      "v": 45
    },
    {
      "midi": 42,
      "hit": false,
      "t": 127499.82149999586,
      "d": 156.24978124999325,
      "v": 45
    },
    {
      "midi": 40,
      "hit": false,
      "t": 127499.82149999929,
      "d": 319.2930312499957,
      "v": 92
    },
    {
      "midi": 44,
      "hit": false,
      "t": 127662.86474999585,
      "d": 156.24978124999325,
      "v": 45
    },
    {
      "midi": 36,
      "hit": false,
      "t": 127825.90799999583,
      "d": 156.24978124999325,
      "v": 63
    },
    {
      "midi": 46,
      "hit": false,
      "t": 127825.90799999583,
      "d": 156.24978124999325,
      "v": 63
    },
    {
      "midi": 36,
      "hit": false,
      "t": 127825.90799999928,
      "d": 543.4774999999936,
      "v": 92
    },
    {
      "midi": 64,
      "hit": false,
      "t": 127825.90799999957,
      "d": 2445.6487500000076,
      "v": 30
    },
    {
      "midi": 67,
      "hit": false,
      "t": 127825.90799999957,
      "d": 2445.6487500000076,
      "v": 30
    },
    {
      "midi": 70,
      "hit": false,
      "t": 127825.90799999957,
      "d": 2445.6487500000076,
      "v": 30
    },
    {
      "midi": 74,
      "hit": false,
      "t": 127825.90799999957,
      "d": 2445.6487500000076,
      "v": 30
    },
    {
      "midi": 42,
      "hit": false,
      "t": 127988.95124999582,
      "d": 156.24978124999325,
      "v": 45
    },
    {
      "midi": 44,
      "hit": false,
      "t": 128151.99449999581,
      "d": 156.24978124999325,
      "v": 45
    },
    {
      "midi": 69,
      "hit": false,
      "t": 128151.99449999996,
      "d": 326.0865000000049,
      "v": 108
    },
    {
      "midi": 36,
      "hit": false,
      "t": 128315.0377499958,
      "d": 156.24978124999325,
      "v": 45
    },
    {
      "midi": 42,
      "hit": false,
      "t": 128315.0377499958,
      "d": 156.24978124999325,
      "v": 45
    },
    {
      "midi": 38,
      "hit": false,
      "t": 128478.08099999579,
      "d": 156.24978124999325,
      "v": 45
    },
    {
      "midi": 44,
      "hit": false,
      "t": 128478.08099999579,
      "d": 156.24978124999325,
      "v": 45
    },
    {
      "midi": 67,
      "hit": false,
      "t": 128478.08099999996,
      "d": 163.04325000000244,
      "v": 108
    },
    {
      "midi": 42,
      "hit": false,
      "t": 128641.12424999577,
      "d": 156.24978124999325,
      "v": 45
    },
    {
      "midi": 64,
      "hit": false,
      "t": 128641.12424999996,
      "d": 163.04325000000244,
      "v": 108
    },
    {
      "midi": 44,
      "hit": false,
      "t": 128804.16749999576,
      "d": 156.24978124999325,
      "v": 45
    },
    {
      "midi": 36,
      "hit": false,
      "t": 128804.16749999928,
      "d": 319.2930312499957,
      "v": 92
    },
    {
      "midi": 36,
      "hit": false,
      "t": 128967.21074999575,
      "d": 156.24978124999325,
      "v": 45
    },
    {
      "midi": 46,
      "hit": false,
      "t": 128967.21074999575,
      "d": 156.24978124999325,
      "v": 45
    },
    {
      "midi": 42,
      "hit": false,
      "t": 129130.25399999574,
      "d": 156.24978124999325,
      "v": 45
    },
    {
      "midi": 44,
      "hit": false,
      "t": 129293.29724999572,
      "d": 156.24978124999325,
      "v": 45
    },
    {
      "midi": 36,
      "hit": false,
      "t": 129456.34049999571,
      "d": 156.24978124999325,
      "v": 45
    },
    {
      "midi": 42,
      "hit": false,
      "t": 129456.34049999571,
      "d": 156.24978124999325,
      "v": 45
    },
    {
      "midi": 64,
      "hit": false,
      "t": 129456.34049999996,
      "d": 326.0865000000049,
      "v": 45
    },
    {
      "midi": 44,
      "hit": false,
      "t": 129619.3837499957,
      "d": 156.24978124999325,
      "v": 45
    },
    {
      "midi": 38,
      "hit": false,
      "t": 129782.42699999569,
      "d": 156.24978124999325,
      "v": 45
    },
    {
      "midi": 42,
      "hit": false,
      "t": 129782.42699999569,
      "d": 156.24978124999325,
      "v": 45
    },
    {
      "midi": 36,
      "hit": false,
      "t": 129782.42699999928,
      "d": 319.2930312499957,
      "v": 92
    },
    {
      "midi": 62,
      "hit": false,
      "t": 129782.42699999997,
      "d": 326.0865000000049,
      "v": 45
    },
    {
      "midi": 44,
      "hit": false,
      "t": 129945.47024999568,
      "d": 156.24978124999325,
      "v": 45
    },
    {
      "midi": 42,
      "hit": false,
      "t": 130108.51349999566,
      "d": 156.24978124999325,
      "v": 45
    },
    {
      "midi": 38,
      "hit": false,
      "t": 130108.51349999927,
      "d": 319.2930312499957,
      "v": 92
    },
    {
      "midi": 67,
      "hit": false,
      "t": 130108.51349999997,
      "d": 163.04325000000244,
      "v": 45
    },
    {
      "midi": 44,
      "hit": false,
      "t": 130271.55674999565,
      "d": 156.24978124999325,
      "v": 45
    },
    {
      "midi": 64,
      "hit": false,
      "t": 130271.55674999997,
      "d": 163.04325000000244,
      "v": 45
    },
    {
      "midi": 36,
      "hit": false,
      "t": 130434.59999999564,
      "d": 156.24978124999325,
      "v": 63
    },
    {
      "midi": 46,
      "hit": false,
      "t": 130434.59999999564,
      "d": 156.24978124999325,
      "v": 63
    },
    {
      "midi": 40,
      "hit": false,
      "t": 130434.59999999926,
      "d": 543.4774999999936,
      "v": 92
    },
    {
      "midi": 52,
      "hit": false,
      "t": 130434.5999999993,
      "d": 2445.6487500000076,
      "v": 30
    },
    {
      "midi": 55,
      "hit": false,
      "t": 130434.5999999993,
      "d": 2445.6487500000076,
      "v": 30
    },
    {
      "midi": 59,
      "hit": false,
      "t": 130434.5999999993,
      "d": 2445.6487500000076,
      "v": 30
    },
    {
      "midi": 62,
      "hit": false,
      "t": 130434.5999999993,
      "d": 2445.6487500000076,
      "v": 30
    },
    {
      "midi": 64,
      "hit": false,
      "t": 130434.59999999958,
      "d": 2445.6487500000076,
      "v": 30
    },
    {
      "midi": 67,
      "hit": false,
      "t": 130434.59999999958,
      "d": 2445.6487500000076,
      "v": 30
    },
    {
      "midi": 71,
      "hit": false,
      "t": 130434.59999999958,
      "d": 2445.6487500000076,
      "v": 30
    },
    {
      "midi": 74,
      "hit": false,
      "t": 130434.59999999958,
      "d": 2445.6487500000076,
      "v": 30
    },
    {
      "midi": 42,
      "hit": false,
      "t": 130597.64324999563,
      "d": 156.24978124999325,
      "v": 45
    },
    {
      "midi": 44,
      "hit": false,
      "t": 130760.68649999562,
      "d": 156.24978124999325,
      "v": 45
    },
    {
      "midi": 36,
      "hit": false,
      "t": 130923.7297499956,
      "d": 156.24978124999325,
      "v": 45
    },
    {
      "midi": 42,
      "hit": false,
      "t": 130923.7297499956,
      "d": 156.24978124999325,
      "v": 45
    },
    {
      "midi": 38,
      "hit": false,
      "t": 131086.7729999956,
      "d": 156.24978124999325,
      "v": 45
    },
    {
      "midi": 44,
      "hit": false,
      "t": 131086.7729999956,
      "d": 156.24978124999325,
      "v": 45
    },
    {
      "midi": 42,
      "hit": false,
      "t": 131249.81624999558,
      "d": 156.24978124999325,
      "v": 45
    },
    {
      "midi": 44,
      "hit": false,
      "t": 131412.85949999557,
      "d": 156.24978124999325,
      "v": 45
    },
    {
      "midi": 40,
      "hit": false,
      "t": 131412.85949999926,
      "d": 319.29303125001024,
      "v": 92
    },
    {
      "midi": 36,
      "hit": false,
      "t": 131575.90274999556,
      "d": 156.24978124999325,
      "v": 45
    },
    {
      "midi": 46,
      "hit": false,
      "t": 131575.90274999556,
      "d": 156.24978124999325,
      "v": 45
    },
    {
      "midi": 71,
      "hit": false,
      "t": 131575.90274999998,
      "d": 163.0432499999879,
      "v": 60
    },
    {
      "midi": 42,
      "hit": false,
      "t": 131738.94599999554,
      "d": 156.24978124999325,
      "v": 45
    },
    {
      "midi": 72,
      "hit": false,
      "t": 131738.94599999997,
      "d": 326.0865000000049,
      "v": 60
    },
    {
      "midi": 44,
      "hit": false,
      "t": 131901.98924999553,
      "d": 156.24978124999325,
      "v": 45
    },
    {
      "midi": 36,
      "hit": false,
      "t": 132065.03249999552,
      "d": 156.24978124999325,
      "v": 45
    },
    {
      "midi": 42,
      "hit": false,
      "t": 132065.03249999552,
      "d": 156.24978124999325,
      "v": 45
    },
    {
      "midi": 74,
      "hit": false,
      "t": 132065.03249999997,
      "d": 652.1730000000098,
      "v": 60
    },
    {
      "midi": 44,
      "hit": false,
      "t": 132228.0757499955,
      "d": 156.24978124999325,
      "v": 45
    },
    {
      "midi": 38,
      "hit": false,
      "t": 132391.1189999955,
      "d": 156.24978124999325,
      "v": 45
    },
    {
      "midi": 42,
      "hit": false,
      "t": 132391.1189999955,
      "d": 156.24978124999325,
      "v": 45
    },
    {
      "midi": 47,
      "hit": false,
      "t": 132391.11899999928,
      "d": 319.29303125001024,
      "v": 92
    },
    {
      "midi": 44,
      "hit": false,
      "t": 132554.16224999548,
      "d": 156.24978124999325,
      "v": 45
    },
    {
      "midi": 42,
      "hit": false,
      "t": 132717.20549999547,
      "d": 156.24978124999325,
      "v": 45
    },
    {
      "midi": 40,
      "hit": false,
      "t": 132717.20549999928,
      "d": 319.29303125001024,
      "v": 92
    },
    {
      "midi": 76,
      "hit": false,
      "t": 132717.20549999998,
      "d": 326.0865000000049,
      "v": 75
    },
    {
      "midi": 44,
      "hit": false,
      "t": 132880.24874999546,
      "d": 156.24978124999325,
      "v": 45
    },
    {
      "midi": 36,
      "hit": false,
      "t": 133043.29199999545,
      "d": 156.24978124999325,
      "v": 63
    },
    {
      "midi": 46,
      "hit": false,
      "t": 133043.29199999545,
      "d": 156.24978124999325,
      "v": 63
    },
    {
      "midi": 52,
      "hit": false,
      "t": 133043.2919999993,
      "d": 2445.648749999993,
      "v": 30
    },
    {
      "midi": 55,
      "hit": false,
      "t": 133043.2919999993,
      "d": 2445.648749999993,
      "v": 30
    },
    {
      "midi": 58,
      "hit": false,
      "t": 133043.2919999993,
      "d": 2445.648749999993,
      "v": 30
    },
    {
      "midi": 62,
      "hit": false,
      "t": 133043.2919999993,
      "d": 2445.648749999993,
      "v": 30
    },
    {
      "midi": 36,
      "hit": false,
      "t": 133043.2919999993,
      "d": 543.4775000000081,
      "v": 92
    },
    {
      "midi": 64,
      "hit": false,
      "t": 133043.29199999958,
      "d": 2445.648749999993,
      "v": 30
    },
    {
      "midi": 67,
      "hit": false,
      "t": 133043.29199999958,
      "d": 2445.648749999993,
      "v": 30
    },
    {
      "midi": 70,
      "hit": false,
      "t": 133043.29199999958,
      "d": 2445.648749999993,
      "v": 30
    },
    {
      "midi": 74,
      "hit": false,
      "t": 133043.29199999958,
      "d": 2445.648749999993,
      "v": 30
    },
    {
      "midi": 79,
      "hit": false,
      "t": 133043.292,
      "d": 978.2594999999856,
      "v": 127
    },
    {
      "midi": 42,
      "hit": false,
      "t": 133206.33524999543,
      "d": 156.24978124999325,
      "v": 45
    },
    {
      "midi": 44,
      "hit": false,
      "t": 133369.37849999542,
      "d": 156.24978124999325,
      "v": 45
    },
    {
      "midi": 36,
      "hit": false,
      "t": 133532.4217499954,
      "d": 156.24978124999325,
      "v": 45
    },
    {
      "midi": 42,
      "hit": false,
      "t": 133532.4217499954,
      "d": 156.24978124999325,
      "v": 45
    },
    {
      "midi": 38,
      "hit": false,
      "t": 133695.4649999954,
      "d": 156.24978124999325,
      "v": 45
    },
    {
      "midi": 44,
      "hit": false,
      "t": 133695.4649999954,
      "d": 156.24978124999325,
      "v": 45
    },
    {
      "midi": 42,
      "hit": false,
      "t": 133858.5082499954,
      "d": 156.24978124999325,
      "v": 45
    },
    {
      "midi": 44,
      "hit": false,
      "t": 134021.55149999537,
      "d": 156.24978124999325,
      "v": 45
    },
    {
      "midi": 36,
      "hit": false,
      "t": 134021.5514999993,
      "d": 319.29303125001024,
      "v": 92
    },
    {
      "midi": 76,
      "hit": false,
      "t": 134021.55149999997,
      "d": 652.1730000000098,
      "v": 108
    },
    {
      "midi": 36,
      "hit": false,
      "t": 134184.59474999536,
      "d": 156.24978124999325,
      "v": 45
    },
    {
      "midi": 46,
      "hit": false,
      "t": 134184.59474999536,
      "d": 156.24978124999325,
      "v": 45
    },
    {
      "midi": 42,
      "hit": false,
      "t": 134347.63799999535,
      "d": 156.24978124999325,
      "v": 45
    },
    {
      "midi": 44,
      "hit": false,
      "t": 134510.68124999534,
      "d": 156.24978124999325,
      "v": 45
    },
    {
      "midi": 36,
      "hit": false,
      "t": 134673.72449999533,
      "d": 156.24978124999325,
      "v": 45
    },
    {
      "midi": 42,
      "hit": false,
      "t": 134673.72449999533,
      "d": 156.24978124999325,
      "v": 45
    },
    {
      "midi": 74,
      "hit": false,
      "t": 134673.72449999998,
      "d": 163.0432499999879,
      "v": 60
    },
    {
      "midi": 44,
      "hit": false,
      "t": 134836.7677499953,
      "d": 156.24978124999325,
      "v": 45
    },
    {
      "midi": 71,
      "hit": false,
      "t": 134836.76774999997,
      "d": 163.0432499999879,
      "v": 60
    },
    {
      "midi": 38,
      "hit": false,
      "t": 134999.8109999953,
      "d": 156.24978124999325,
      "v": 45
    },
    {
      "midi": 42,
      "hit": false,
      "t": 134999.8109999953,
      "d": 156.24978124999325,
      "v": 45
    },
    {
      "midi": 36,
      "hit": false,
      "t": 134999.81099999932,
      "d": 319.29303125001024,
      "v": 92
    },
    {
      "midi": 69,
      "hit": false,
      "t": 134999.81099999996,
      "d": 163.0432499999879,
      "v": 60
    },
    {
      "midi": 44,
      "hit": false,
      "t": 135162.8542499953,
      "d": 156.24978124999325,
      "v": 45
    },
    {
      "midi": 71,
      "hit": false,
      "t": 135162.85424999995,
      "d": 163.0432499999879,
      "v": 60
    },
    {
      "midi": 42,
      "hit": false,
      "t": 135325.89749999528,
      "d": 156.24978124999325,
      "v": 45
    },
    {
      "midi": 76,
      "hit": false,
      "t": 135325.8974999986,
      "d": 156.24978124999325,
      "v": 30
    },
    {
      "midi": 38,
      "hit": false,
      "t": 135325.89749999932,
      "d": 319.29303125001024,
      "v": 92
    },
    {
      "midi": 74,
      "hit": false,
      "t": 135325.89749999993,
      "d": 163.0432499999879,
      "v": 60
    },
    {
      "midi": 44,
      "hit": false,
      "t": 135488.94074999526,
      "d": 156.24978124999325,
      "v": 45
    },
    {
      "midi": 79,
      "hit": false,
      "t": 135488.94074999858,
      "d": 156.24978124999325,
      "v": 30
    },
    {
      "midi": 71,
      "hit": false,
      "t": 135488.94074999992,
      "d": 1304.3459999999905,
      "v": 60
    },
    {
      "midi": 36,
      "hit": false,
      "t": 135651.98399999525,
      "d": 156.24978124999325,
      "v": 63
    },
    {
      "midi": 46,
      "hit": false,
      "t": 135651.98399999525,
      "d": 156.24978124999325,
      "v": 63
    },
    {
      "midi": 40,
      "hit": false,
      "t": 135651.98399999927,
      "d": 543.4775000000081,
      "v": 75
    },
    {
      "midi": 40,
      "hit": false,
      "t": 135651.98399999933,
      "d": 543.4775000000081,
      "v": 92
    },
    {
      "midi": 59,
      "hit": false,
      "t": 135651.98399999956,
      "d": 319.29303125001024,
      "v": 108
    },
    {
      "midi": 42,
      "hit": false,
      "t": 135815.02724999524,
      "d": 156.24978124999325,
      "v": 45
    },
    {
      "midi": 44,
      "hit": false,
      "t": 135978.07049999523,
      "d": 156.24978124999325,
      "v": 45
    },
    {
      "midi": 59,
      "hit": false,
      "t": 135978.07049999957,
      "d": 319.29303125001024,
      "v": 108
    },
    {
      "midi": 36,
      "hit": false,
      "t": 136141.11374999522,
      "d": 156.24978124999325,
      "v": 45
    },
    {
      "midi": 42,
      "hit": false,
      "t": 136141.11374999522,
      "d": 156.24978124999325,
      "v": 45
    },
    {
      "midi": 38,
      "hit": false,
      "t": 136304.1569999952,
      "d": 156.24978124999325,
      "v": 45
    },
    {
      "midi": 44,
      "hit": false,
      "t": 136304.1569999952,
      "d": 156.24978124999325,
      "v": 45
    },
    {
      "midi": 67,
      "hit": false,
      "t": 136304.15699999957,
      "d": 1141.3027500000026,
      "v": 108
    },
    {
      "midi": 42,
      "hit": false,
      "t": 136467.2002499952,
      "d": 156.24978124999325,
      "v": 45
    },
    {
      "midi": 44,
      "hit": false,
      "t": 136630.24349999518,
      "d": 156.24978124999325,
      "v": 45
    },
    {
      "midi": 76,
      "hit": false,
      "t": 136630.24349999859,
      "d": 156.24978124999325,
      "v": 30
    },
    {
      "midi": 40,
      "hit": false,
      "t": 136630.24349999928,
      "d": 319.29303125001024,
      "v": 75
    },
    {
      "midi": 40,
      "hit": false,
      "t": 136630.24349999934,
      "d": 319.29303125001024,
      "v": 92
    },
    {
      "midi": 36,
      "hit": false,
      "t": 136793.28674999517,
      "d": 156.24978124999325,
      "v": 45
    },
    {
      "midi": 46,
      "hit": false,
      "t": 136793.28674999517,
      "d": 156.24978124999325,
      "v": 45
    },
    {
      "midi": 79,
      "hit": false,
      "t": 136793.28674999857,
      "d": 156.24978124999325,
      "v": 30
    },
    {
      "midi": 42,
      "hit": false,
      "t": 136956.32999999516,
      "d": 156.24978124999325,
      "v": 45
    },
    {
      "midi": 44,
      "hit": false,
      "t": 137119.37324999514,
      "d": 156.24978124999325,
      "v": 45
    },
    {
      "midi": 36,
      "hit": false,
      "t": 137282.41649999513,
      "d": 156.24978124999325,
      "v": 45
    },
    {
      "midi": 42,
      "hit": false,
      "t": 137282.41649999513,
      "d": 156.24978124999325,
      "v": 45
    },
    {
      "midi": 44,
      "hit": false,
      "t": 137445.45974999512,
      "d": 156.24978124999325,
      "v": 45
    },
    {
      "midi": 38,
      "hit": false,
      "t": 137608.5029999951,
      "d": 156.24978124999325,
      "v": 45
    },
    {
      "midi": 42,
      "hit": false,
      "t": 137608.5029999951,
      "d": 156.24978124999325,
      "v": 45
    },
    {
      "midi": 47,
      "hit": false,
      "t": 137608.5029999993,
      "d": 319.29303125001024,
      "v": 75
    },
    {
      "midi": 47,
      "hit": false,
      "t": 137608.50299999936,
      "d": 319.29303125001024,
      "v": 92
    },
    {
      "midi": 66,
      "hit": false,
      "t": 137608.50299999956,
      "d": 319.29303125001024,
      "v": 108
    },
    {
      "midi": 44,
      "hit": false,
      "t": 137771.5462499951,
      "d": 156.24978124999325,
      "v": 45
    },
    {
      "midi": 42,
      "hit": false,
      "t": 137934.58949999508,
      "d": 156.24978124999325,
      "v": 45
    },
    {
      "midi": 74,
      "hit": false,
      "t": 137934.58949999858,
      "d": 156.24978124999325,
      "v": 30
    },
    {
      "midi": 40,
      "hit": false,
      "t": 137934.5894999993,
      "d": 319.29303125001024,
      "v": 75
    },
    {
      "midi": 40,
      "hit": false,
      "t": 137934.58949999936,
      "d": 319.29303125001024,
      "v": 92
    },
    {
      "midi": 64,
      "hit": false,
      "t": 137934.58949999957,
      "d": 319.29303125001024,
      "v": 108
    },
    {
      "midi": 44,
      "hit": false,
      "t": 138097.63274999507,
      "d": 156.24978124999325,
      "v": 45
    },
    {
      "midi": 79,
      "hit": false,
      "t": 138097.63274999856,
      "d": 156.24978124999325,
      "v": 30
    },
    {
      "midi": 36,
      "hit": false,
      "t": 138260.67599999506,
      "d": 156.24978124999325,
      "v": 63
    },
    {
      "midi": 46,
      "hit": false,
      "t": 138260.67599999506,
      "d": 156.24978124999325,
      "v": 63
    },
    {
      "midi": 36,
      "hit": false,
      "t": 138260.6759999993,
      "d": 543.4775000000081,
      "v": 75
    },
    {
      "midi": 36,
      "hit": false,
      "t": 138260.67599999937,
      "d": 543.4775000000081,
      "v": 92
    },
    {
      "midi": 64,
      "hit": false,
      "t": 138260.67599999957,
      "d": 543.4775000000081,
      "v": 108
    },
    {
      "midi": 42,
      "hit": false,
      "t": 138423.71924999505,
      "d": 156.24978124999325,
      "v": 45
    },
    {
      "midi": 44,
      "hit": false,
      "t": 138586.76249999503,
      "d": 156.24978124999325,
      "v": 45
    },
    {
      "midi": 36,
      "hit": false,
      "t": 138749.80574999502,
      "d": 156.24978124999325,
      "v": 45
    },
    {
      "midi": 42,
      "hit": false,
      "t": 138749.80574999502,
      "d": 156.24978124999325,
      "v": 45
    },
    {
      "midi": 38,
      "hit": false,
      "t": 138912.848999995,
      "d": 156.24978124999325,
      "v": 45
    },
    {
      "midi": 44,
      "hit": false,
      "t": 138912.848999995,
      "d": 156.24978124999325,
      "v": 45
    },
    {
      "midi": 58,
      "hit": false,
      "t": 138912.84899999958,
      "d": 1793.4757500000123,
      "v": 108
    },
    {
      "midi": 42,
      "hit": false,
      "t": 139075.892249995,
      "d": 156.24978124999325,
      "v": 45
    },
    {
      "midi": 44,
      "hit": false,
      "t": 139238.935499995,
      "d": 156.24978124999325,
      "v": 45
    },
    {
      "midi": 76,
      "hit": false,
      "t": 139238.93549999857,
      "d": 156.24978124999325,
      "v": 30
    },
    {
      "midi": 36,
      "hit": false,
      "t": 139238.93549999932,
      "d": 319.29303125001024,
      "v": 75
    },
    {
      "midi": 36,
      "hit": false,
      "t": 139238.93549999938,
      "d": 319.29303125001024,
      "v": 92
    },
    {
      "midi": 36,
      "hit": false,
      "t": 139401.97874999497,
      "d": 156.24978124999325,
      "v": 45
    },
    {
      "midi": 46,
      "hit": false,
      "t": 139401.97874999497,
      "d": 156.24978124999325,
      "v": 45
    },
    {
      "midi": 79,
      "hit": false,
      "t": 139401.97874999855,
      "d": 156.24978124999325,
      "v": 30
    },
    {
      "midi": 42,
      "hit": false,
      "t": 139565.02199999496,
      "d": 156.24978124999325,
      "v": 45
    },
    {
      "midi": 44,
      "hit": false,
      "t": 139728.06524999495,
      "d": 156.24978124999325,
      "v": 45
    },
    {
      "midi": 36,
      "hit": false,
      "t": 139891.10849999494,
      "d": 156.24978124999325,
      "v": 45
    },
    {
      "midi": 42,
      "hit": false,
      "t": 139891.10849999494,
      "d": 156.24978124999325,
      "v": 45
    },
    {
      "midi": 44,
      "hit": false,
      "t": 140054.15174999493,
      "d": 156.24978124999325,
      "v": 45
    },
    {
      "midi": 38,
      "hit": false,
      "t": 140217.1949999949,
      "d": 156.24978124999325,
      "v": 45
    },
    {
      "midi": 42,
      "hit": false,
      "t": 140217.1949999949,
      "d": 156.24978124999325,
      "v": 45
    },
    {
      "midi": 36,
      "hit": false,
      "t": 140217.19499999934,
      "d": 319.29303125001024,
      "v": 75
    },
    {
      "midi": 36,
      "hit": false,
      "t": 140217.1949999994,
      "d": 319.29303125001024,
      "v": 92
    },
    {
      "midi": 44,
      "hit": false,
      "t": 140380.2382499949,
      "d": 156.24978124999325,
      "v": 45
    },
    {
      "midi": 42,
      "hit": false,
      "t": 140543.2814999949,
      "d": 156.24978124999325,
      "v": 45
    },
    {
      "midi": 74,
      "hit": false,
      "t": 140543.28149999856,
      "d": 156.24978124999325,
      "v": 30
    },
    {
      "midi": 38,
      "hit": false,
      "t": 140543.28149999934,
      "d": 319.29303125001024,
      "v": 75
    },
    {
      "midi": 38,
      "hit": false,
      "t": 140543.2814999994,
      "d": 319.29303125001024,
      "v": 92
    },
    {
      "midi": 44,
      "hit": false,
      "t": 140706.32474999488,
      "d": 156.24978124999325,
      "v": 45
    },
    {
      "midi": 79,
      "hit": false,
      "t": 140706.32474999854,
      "d": 156.24978124999325,
      "v": 30
    },
    {
      "midi": 36,
      "hit": false,
      "t": 140869.36799999487,
      "d": 156.24978124999325,
      "v": 63
    },
    {
      "midi": 46,
      "hit": false,
      "t": 140869.36799999487,
      "d": 156.24978124999325,
      "v": 63
    },
    {
      "midi": 40,
      "hit": false,
      "t": 140869.36799999935,
      "d": 543.4775000000081,
      "v": 75
    },
    {
      "midi": 40,
      "hit": false,
      "t": 140869.3679999994,
      "d": 543.4775000000081,
      "v": 92
    },
    {
      "midi": 59,
      "hit": false,
      "t": 140869.36799999958,
      "d": 319.29303125001024,
      "v": 108
    },
    {
      "midi": 42,
      "hit": false,
      "t": 141032.41124999485,
      "d": 156.24978124999325,
      "v": 45
    },
    {
      "midi": 44,
      "hit": false,
      "t": 141195.45449999484,
      "d": 156.24978124999325,
      "v": 45
    },
    {
      "midi": 59,
      "hit": false,
      "t": 141195.45449999959,
      "d": 319.29303125001024,
      "v": 108
    },
    {
      "midi": 36,
      "hit": false,
      "t": 141358.49774999483,
      "d": 156.24978124999325,
      "v": 45
    },
    {
      "midi": 42,
      "hit": false,
      "t": 141358.49774999483,
      "d": 156.24978124999325,
      "v": 45
    },
    {
      "midi": 38,
      "hit": false,
      "t": 141521.54099999482,
      "d": 156.24978124999325,
      "v": 45
    },
    {
      "midi": 44,
      "hit": false,
      "t": 141521.54099999482,
      "d": 156.24978124999325,
      "v": 45
    },
    {
      "midi": 67,
      "hit": false,
      "t": 141521.5409999996,
      "d": 1141.3027500000026,
      "v": 108
    },
    {
      "midi": 42,
      "hit": false,
      "t": 141684.5842499948,
      "d": 156.24978124999325,
      "v": 45
    },
    {
      "midi": 44,
      "hit": false,
      "t": 141847.6274999948,
      "d": 156.24978124999325,
      "v": 45
    },
    {
      "midi": 76,
      "hit": false,
      "t": 141847.62749999855,
      "d": 156.24978124999325,
      "v": 30
    },
    {
      "midi": 40,
      "hit": false,
      "t": 141847.62749999936,
      "d": 319.29303125001024,
      "v": 75
    },
    {
      "midi": 40,
      "hit": false,
      "t": 141847.62749999942,
      "d": 319.29303125001024,
      "v": 92
    },
    {
      "midi": 71,
      "hit": false,
      "t": 141847.62749999992,
      "d": 326.0865000000049,
      "v": 45
    },
    {
      "midi": 36,
      "hit": false,
      "t": 142010.67074999478,
      "d": 156.24978124999325,
      "v": 45
    },
    {
      "midi": 46,
      "hit": false,
      "t": 142010.67074999478,
      "d": 156.24978124999325,
      "v": 45
    },
    {
      "midi": 79,
      "hit": false,
      "t": 142010.67074999854,
      "d": 156.24978124999325,
      "v": 30
    },
    {
      "midi": 42,
      "hit": false,
      "t": 142173.71399999477,
      "d": 156.24978124999325,
      "v": 45
    },
    {
      "midi": 72,
      "hit": false,
      "t": 142173.71399999992,
      "d": 652.1730000000098,
      "v": 45
    },
    {
      "midi": 44,
      "hit": false,
      "t": 142336.75724999476,
      "d": 156.24978124999325,
      "v": 45
    },
    {
      "midi": 36,
      "hit": false,
      "t": 142499.80049999474,
      "d": 156.24978124999325,
      "v": 45
    },
    {
      "midi": 42,
      "hit": false,
      "t": 142499.80049999474,
      "d": 156.24978124999325,
      "v": 45
    },
    {
      "midi": 44,
      "hit": false,
      "t": 142662.84374999473,
      "d": 156.24978124999325,
      "v": 45
    },
    {
      "midi": 38,
      "hit": false,
      "t": 142825.88699999472,
      "d": 156.24978124999325,
      "v": 45
    },
    {
      "midi": 42,
      "hit": false,
      "t": 142825.88699999472,
      "d": 156.24978124999325,
      "v": 45
    },
    {
      "midi": 47,
      "hit": false,
      "t": 142825.88699999938,
      "d": 319.29303125001024,
      "v": 75
    },
    {
      "midi": 47,
      "hit": false,
      "t": 142825.88699999943,
      "d": 319.29303125001024,
      "v": 92
    },
    {
      "midi": 66,
      "hit": false,
      "t": 142825.88699999958,
      "d": 319.29303125001024,
      "v": 108
    },
    {
      "midi": 79,
      "hit": false,
      "t": 142825.88699999993,
      "d": 652.1730000000098,
      "v": 45
    },
    {
      "midi": 44,
      "hit": false,
      "t": 142988.9302499947,
      "d": 156.24978124999325,
      "v": 45
    },
    {
      "midi": 42,
      "hit": false,
      "t": 143151.9734999947,
      "d": 156.24978124999325,
      "v": 45
    },
    {
      "midi": 74,
      "hit": false,
      "t": 143151.97349999854,
      "d": 156.24978124999325,
      "v": 30
    },
    {
      "midi": 40,
      "hit": false,
      "t": 143151.97349999938,
      "d": 319.29303125001024,
      "v": 75
    },
    {
      "midi": 40,
      "hit": false,
      "t": 143151.97349999944,
      "d": 319.29303125001024,
      "v": 92
    },
    {
      "midi": 63,
      "hit": false,
      "t": 143151.97349999959,
      "d": 319.29303125001024,
      "v": 108
    },
    {
      "midi": 44,
      "hit": false,
      "t": 143315.01674999468,
      "d": 156.24978124999325,
      "v": 45
    },
    {
      "midi": 79,
      "hit": false,
      "t": 143315.01674999853,
      "d": 156.24978124999325,
      "v": 30
    },
    {
      "midi": 36,
      "hit": false,
      "t": 143478.05999999467,
      "d": 156.24978124999325,
      "v": 63
    },
    {
      "midi": 46,
      "hit": false,
      "t": 143478.05999999467,
      "d": 156.24978124999325,
      "v": 63
    },
    {
      "midi": 36,
      "hit": false,
      "t": 143478.0599999994,
      "d": 543.4775000000081,
      "v": 75
    },
    {
      "midi": 36,
      "hit": false,
      "t": 143478.05999999944,
      "d": 543.4775000000081,
      "v": 92
    },
    {
      "midi": 64,
      "hit": false,
      "t": 143478.0599999996,
      "d": 543.4775000000081,
      "v": 108
    },
    {
      "midi": 78,
      "hit": false,
      "t": 143478.05999999994,
      "d": 1141.3027500000026,
      "v": 45
    },
    {
      "midi": 42,
      "hit": false,
      "t": 143641.10324999466,
      "d": 156.24978124999325,
      "v": 45
    },
    {
      "midi": 44,
      "hit": false,
      "t": 143804.14649999465,
      "d": 156.24978124999325,
      "v": 45
    },
    {
      "midi": 36,
      "hit": false,
      "t": 143967.18974999464,
      "d": 156.24978124999325,
      "v": 45
    },
    {
      "midi": 42,
      "hit": false,
      "t": 143967.18974999464,
      "d": 156.24978124999325,
      "v": 45
    },
    {
      "midi": 38,
      "hit": false,
      "t": 144130.23299999462,
      "d": 156.24978124999325,
      "v": 45
    },
    {
      "midi": 44,
      "hit": false,
      "t": 144130.23299999462,
      "d": 156.24978124999325,
      "v": 45
    },
    {
      "midi": 42,
      "hit": false,
      "t": 144293.2762499946,
      "d": 156.24978124999325,
      "v": 45
    },
    {
      "midi": 44,
      "hit": false,
      "t": 144456.3194999946,
      "d": 156.24978124999325,
      "v": 45
    },
    {
      "midi": 76,
      "hit": false,
      "t": 144456.31949999853,
      "d": 156.24978124999325,
      "v": 30
    },
    {
      "midi": 36,
      "hit": false,
      "t": 144456.3194999994,
      "d": 319.29303125001024,
      "v": 75
    },
    {
      "midi": 36,
      "hit": false,
      "t": 144456.31949999946,
      "d": 319.29303125001024,
      "v": 92
    },
    {
      "midi": 64,
      "hit": false,
      "t": 144456.3194999996,
      "d": 319.29303125001024,
      "v": 108
    },
    {
      "midi": 36,
      "hit": false,
      "t": 144619.3627499946,
      "d": 156.24978124999325,
      "v": 45
    },
    {
      "midi": 46,
      "hit": false,
      "t": 144619.3627499946,
      "d": 156.24978124999325,
      "v": 45
    },
    {
      "midi": 79,
      "hit": false,
      "t": 144619.36274999852,
      "d": 156.24978124999325,
      "v": 30
    },
    {
      "midi": 42,
      "hit": false,
      "t": 144782.40599999457,
      "d": 156.24978124999325,
      "v": 45
    },
    {
      "midi": 62,
      "hit": false,
      "t": 144782.4059999996,
      "d": 319.29303125001024,
      "v": 108
    },
    {
      "midi": 44,
      "hit": false,
      "t": 144945.44924999456,
      "d": 156.24978124999325,
      "v": 45
    },
    {
      "midi": 36,
      "hit": false,
      "t": 145108.49249999455,
      "d": 156.24978124999325,
      "v": 45
    },
    {
      "midi": 42,
      "hit": false,
      "t": 145108.49249999455,
      "d": 156.24978124999325,
      "v": 45
    },
    {
      "midi": 60,
      "hit": false,
      "t": 145108.49249999961,
      "d": 319.29303125001024,
      "v": 108
    },
    {
      "midi": 44,
      "hit": false,
      "t": 145271.53574999454,
      "d": 156.24978124999325,
      "v": 45
    },
    {
      "midi": 38,
      "hit": false,
      "t": 145434.57899999453,
      "d": 156.24978124999325,
      "v": 45
    },
    {
      "midi": 42,
      "hit": false,
      "t": 145434.57899999453,
      "d": 156.24978124999325,
      "v": 45
    },
    {
      "midi": 36,
      "hit": false,
      "t": 145434.57899999942,
      "d": 319.29303125001024,
      "v": 75
    },
    {
      "midi": 36,
      "hit": false,
      "t": 145434.57899999947,
      "d": 319.29303125001024,
      "v": 92
    },
    {
      "midi": 58,
      "hit": false,
      "t": 145434.57899999962,
      "d": 319.29303125001024,
      "v": 108
    },
    {
      "midi": 44,
      "hit": false,
      "t": 145597.6222499945,
      "d": 156.24978124999325,
      "v": 45
    },
    {
      "midi": 42,
      "hit": false,
      "t": 145760.6654999945,
      "d": 156.24978124999325,
      "v": 45
    },
    {
      "midi": 74,
      "hit": false,
      "t": 145760.66549999852,
      "d": 156.24978124999325,
      "v": 30
    },
    {
      "midi": 38,
      "hit": false,
      "t": 145760.66549999942,
      "d": 319.29303125001024,
      "v": 75
    },
    {
      "midi": 38,
      "hit": false,
      "t": 145760.66549999948,
      "d": 319.29303125001024,
      "v": 92
    },
    {
      "midi": 60,
      "hit": false,
      "t": 145760.66549999962,
      "d": 319.29303125001024,
      "v": 108
    },
    {
      "midi": 44,
      "hit": false,
      "t": 145923.7087499945,
      "d": 156.24978124999325,
      "v": 45
    },
    {
      "midi": 79,
      "hit": false,
      "t": 145923.7087499985,
      "d": 156.24978124999325,
      "v": 30
    },
    {
      "midi": 36,
      "hit": false,
      "t": 146086.75199999448,
      "d": 156.24978124999325,
      "v": 63
    },
    {
      "midi": 46,
      "hit": false,
      "t": 146086.75199999448,
      "d": 156.24978124999325,
      "v": 63
    },
    {
      "midi": 40,
      "hit": false,
      "t": 146086.75199999943,
      "d": 543.4775000000081,
      "v": 75
    },
    {
      "midi": 40,
      "hit": false,
      "t": 146086.75199999948,
      "d": 543.4775000000081,
      "v": 92
    },
    {
      "midi": 59,
      "hit": false,
      "t": 146086.75199999963,
      "d": 2445.648749999993,
      "v": 108
    },
    {
      "midi": 42,
      "hit": false,
      "t": 146249.79524999447,
      "d": 156.24978124999325,
      "v": 45
    },
    {
      "midi": 44,
      "hit": false,
      "t": 146412.83849999445,
      "d": 156.24978124999325,
      "v": 45
    },
    {
      "midi": 36,
      "hit": false,
      "t": 146575.88174999444,
      "d": 156.24978124999325,
      "v": 45
    },
    {
      "midi": 42,
      "hit": false,
      "t": 146575.88174999444,
      "d": 156.24978124999325,
      "v": 45
    },
    {
      "midi": 38,
      "hit": false,
      "t": 146738.92499999443,
      "d": 156.24978124999325,
      "v": 45
    },
    {
      "midi": 44,
      "hit": false,
      "t": 146738.92499999443,
      "d": 156.24978124999325,
      "v": 45
    },
    {
      "midi": 42,
      "hit": false,
      "t": 146901.96824999442,
      "d": 156.24978124999325,
      "v": 45
    },
    {
      "midi": 44,
      "hit": false,
      "t": 147065.0114999944,
      "d": 156.24978124999325,
      "v": 45
    },
    {
      "midi": 76,
      "hit": false,
      "t": 147065.0114999985,
      "d": 156.24978124999325,
      "v": 30
    },
    {
      "midi": 40,
      "hit": false,
      "t": 147065.01149999944,
      "d": 319.29303125001024,
      "v": 75
    },
    {
      "midi": 40,
      "hit": false,
      "t": 147065.0114999995,
      "d": 319.29303125001024,
      "v": 92
    },
    {
      "midi": 36,
      "hit": false,
      "t": 147228.0547499944,
      "d": 156.24978124999325,
      "v": 45
    },
    {
      "midi": 46,
      "hit": false,
      "t": 147228.0547499944,
      "d": 156.24978124999325,
      "v": 45
    },
    {
      "midi": 79,
      "hit": false,
      "t": 147228.0547499985,
      "d": 156.24978124999325,
      "v": 30
    },
    {
      "midi": 42,
      "hit": false,
      "t": 147391.09799999438,
      "d": 156.24978124999325,
      "v": 45
    },
    {
      "midi": 44,
      "hit": false,
      "t": 147554.14124999437,
      "d": 156.24978124999325,
      "v": 45
    },
    {
      "midi": 36,
      "hit": false,
      "t": 147717.18449999436,
      "d": 156.24978124999325,
      "v": 45
    },
    {
      "midi": 42,
      "hit": false,
      "t": 147717.18449999436,
      "d": 156.24978124999325,
      "v": 45
    },
    {
      "midi": 44,
      "hit": false,
      "t": 147880.22774999434,
      "d": 156.24978124999325,
      "v": 45
    },
    {
      "midi": 38,
      "hit": false,
      "t": 148043.27099999433,
      "d": 156.24978124999325,
      "v": 45
    },
    {
      "midi": 42,
      "hit": false,
      "t": 148043.27099999433,
      "d": 156.24978124999325,
      "v": 45
    },
    {
      "midi": 47,
      "hit": false,
      "t": 148043.27099999945,
      "d": 319.29303125001024,
      "v": 75
    },
    {
      "midi": 47,
      "hit": false,
      "t": 148043.2709999995,
      "d": 319.29303125001024,
      "v": 92
    },
    {
      "midi": 44,
      "hit": false,
      "t": 148206.31424999432,
      "d": 156.24978124999325,
      "v": 45
    },
    {
      "midi": 42,
      "hit": false,
      "t": 148369.3574999943,
      "d": 156.24978124999325,
      "v": 45
    },
    {
      "midi": 74,
      "hit": false,
      "t": 148369.3574999985,
      "d": 156.24978124999325,
      "v": 30
    },
    {
      "midi": 40,
      "hit": false,
      "t": 148369.35749999946,
      "d": 319.29303125001024,
      "v": 75
    },
    {
      "midi": 40,
      "hit": false,
      "t": 148369.35749999952,
      "d": 319.29303125001024,
      "v": 92
    },
    {
      "midi": 44,
      "hit": false,
      "t": 148532.4007499943,
      "d": 156.24978124999325,
      "v": 45
    },
    {
      "midi": 79,
      "hit": false,
      "t": 148532.4007499985,
      "d": 156.24978124999325,
      "v": 30
    },
    {
      "midi": 36,
      "hit": false,
      "t": 148695.44399999428,
      "d": 156.24978124999325,
      "v": 63
    },
    {
      "midi": 46,
      "hit": false,
      "t": 148695.44399999428,
      "d": 156.24978124999325,
      "v": 63
    },
    {
      "midi": 36,
      "hit": false,
      "t": 148695.44399999946,
      "d": 543.4775000000081,
      "v": 75
    },
    {
      "midi": 36,
      "hit": false,
      "t": 148695.44399999952,
      "d": 543.4775000000081,
      "v": 92
    },
    {
      "midi": 64,
      "hit": false,
      "t": 148695.4439999996,
      "d": 1141.3027500000026,
      "v": 108
    },
    {
      "midi": 67,
      "hit": false,
      "t": 148695.4439999996,
      "d": 1141.3027500000026,
      "v": 108
    },
    {
      "midi": 70,
      "hit": false,
      "t": 148695.4439999996,
      "d": 1141.3027500000026,
      "v": 108
    },
    {
      "midi": 74,
      "hit": false,
      "t": 148695.4439999996,
      "d": 1141.3027500000026,
      "v": 108
    },
    {
      "midi": 42,
      "hit": false,
      "t": 148858.48724999427,
      "d": 156.24978124999325,
      "v": 45
    },
    {
      "midi": 44,
      "hit": false,
      "t": 149021.53049999426,
      "d": 156.24978124999325,
      "v": 45
    },
    {
      "midi": 36,
      "hit": false,
      "t": 149184.57374999425,
      "d": 156.24978124999325,
      "v": 45
    },
    {
      "midi": 42,
      "hit": false,
      "t": 149184.57374999425,
      "d": 156.24978124999325,
      "v": 45
    },
    {
      "midi": 38,
      "hit": false,
      "t": 149347.61699999424,
      "d": 156.24978124999325,
      "v": 45
    },
    {
      "midi": 44,
      "hit": false,
      "t": 149347.61699999424,
      "d": 156.24978124999325,
      "v": 45
    },
    {
      "midi": 42,
      "hit": false,
      "t": 149510.66024999422,
      "d": 156.24978124999325,
      "v": 45
    },
    {
      "midi": 44,
      "hit": false,
      "t": 149673.7034999942,
      "d": 156.24978124999325,
      "v": 45
    },
    {
      "midi": 36,
      "hit": false,
      "t": 149673.70349999948,
      "d": 319.29303125001024,
      "v": 75
    },
    {
      "midi": 36,
      "hit": false,
      "t": 149673.70349999954,
      "d": 319.29303125001024,
      "v": 92
    },
    {
      "midi": 36,
      "hit": false,
      "t": 149836.7467499942,
      "d": 156.24978124999325,
      "v": 45
    },
    {
      "midi": 46,
      "hit": false,
      "t": 149836.7467499942,
      "d": 156.24978124999325,
      "v": 45
    },
    {
      "midi": 42,
      "hit": false,
      "t": 149999.7899999942,
      "d": 156.24978124999325,
      "v": 45
    },
    {
      "midi": 64,
      "hit": false,
      "t": 149999.7899999996,
      "d": 543.4775000000081,
      "v": 108
    },
    {
      "midi": 44,
      "hit": false,
      "t": 150162.83324999418,
      "d": 156.24978124999325,
      "v": 45
    },
    {
      "midi": 36,
      "hit": false,
      "t": 150325.87649999416,
      "d": 156.24978124999325,
      "v": 45
    },
    {
      "midi": 42,
      "hit": false,
      "t": 150325.87649999416,
      "d": 156.24978124999325,
      "v": 45
    },
    {
      "midi": 44,
      "hit": false,
      "t": 150488.91974999415,
      "d": 156.24978124999325,
      "v": 45
    },
    {
      "midi": 38,
      "hit": false,
      "t": 150651.96299999414,
      "d": 156.24978124999325,
      "v": 45
    },
    {
      "midi": 42,
      "hit": false,
      "t": 150651.96299999414,
      "d": 156.24978124999325,
      "v": 45
    },
    {
      "midi": 48,
      "hit": false,
      "t": 150651.9629999995,
      "d": 319.29303125001024,
      "v": 75
    },
    {
      "midi": 48,
      "hit": false,
      "t": 150651.96299999955,
      "d": 319.29303125001024,
      "v": 92
    },
    {
      "midi": 66,
      "hit": false,
      "t": 150651.9629999996,
      "d": 319.29303125001024,
      "v": 108
    },
    {
      "midi": 44,
      "hit": false,
      "t": 150815.00624999413,
      "d": 156.24978124999325,
      "v": 45
    },
    {
      "midi": 42,
      "hit": false,
      "t": 150978.04949999411,
      "d": 156.24978124999325,
      "v": 45
    },
    {
      "midi": 47,
      "hit": false,
      "t": 150978.0494999995,
      "d": 319.29303125001024,
      "v": 75
    },
    {
      "midi": 47,
      "hit": false,
      "t": 150978.04949999956,
      "d": 319.29303125001024,
      "v": 92
    },
    {
      "midi": 67,
      "hit": false,
      "t": 150978.04949999962,
      "d": 319.29303125001024,
      "v": 108
    },
    {
      "midi": 44,
      "hit": false,
      "t": 151141.0927499941,
      "d": 156.24978124999325,
      "v": 45
    },
    {
      "midi": 36,
      "hit": false,
      "t": 151304.1359999941,
      "d": 156.24978124999325,
      "v": 63
    },
    {
      "midi": 46,
      "hit": false,
      "t": 151304.1359999941,
      "d": 156.24978124999325,
      "v": 63
    },
    {
      "midi": 45,
      "hit": false,
      "t": 151304.1359999995,
      "d": 543.4775000000081,
      "v": 75
    },
    {
      "midi": 45,
      "hit": false,
      "t": 151304.13599999956,
      "d": 543.4775000000081,
      "v": 92
    },
    {
      "midi": 69,
      "hit": false,
      "t": 151304.13599999962,
      "d": 319.29303125001024,
      "v": 108
    },
    {
      "midi": 42,
      "hit": false,
      "t": 151467.17924999408,
      "d": 156.24978124999325,
      "v": 45
    },
    {
      "midi": 44,
      "hit": false,
      "t": 151630.22249999407,
      "d": 156.24978124999325,
      "v": 45
    },
    {
      "midi": 71,
      "hit": false,
      "t": 151630.22249999963,
      "d": 156.24978124999325,
      "v": 108
    },
    {
      "midi": 36,
      "hit": false,
      "t": 151793.26574999405,
      "d": 156.24978124999325,
      "v": 45
    },
    {
      "midi": 42,
      "hit": false,
      "t": 151793.26574999405,
      "d": 156.24978124999325,
      "v": 45
    },
    {
      "midi": 69,
      "hit": false,
      "t": 151793.2657499996,
      "d": 706.520749999996,
      "v": 108
    },
    {
      "midi": 38,
      "hit": false,
      "t": 151956.30899999404,
      "d": 156.24978124999325,
      "v": 45
    },
    {
      "midi": 44,
      "hit": false,
      "t": 151956.30899999404,
      "d": 156.24978124999325,
      "v": 45
    },
    {
      "midi": 42,
      "hit": false,
      "t": 152119.35224999403,
      "d": 156.24978124999325,
      "v": 45
    },
    {
      "midi": 44,
      "hit": false,
      "t": 152282.39549999402,
      "d": 156.24978124999325,
      "v": 45
    },
    {
      "midi": 76,
      "hit": false,
      "t": 152282.39549999847,
      "d": 156.24978124999325,
      "v": 30
    },
    {
      "midi": 45,
      "hit": false,
      "t": 152282.39549999952,
      "d": 319.29303125001024,
      "v": 75
    },
    {
      "midi": 45,
      "hit": false,
      "t": 152282.39549999958,
      "d": 319.29303125001024,
      "v": 92
    },
    {
      "midi": 36,
      "hit": false,
      "t": 152445.438749994,
      "d": 156.24978124999325,
      "v": 45
    },
    {
      "midi": 46,
      "hit": false,
      "t": 152445.438749994,
      "d": 156.24978124999325,
      "v": 45
    },
    {
      "midi": 79,
      "hit": false,
      "t": 152445.43874999846,
      "d": 156.24978124999325,
      "v": 30
    },
    {
      "midi": 42,
      "hit": false,
      "t": 152608.481999994,
      "d": 156.24978124999325,
      "v": 45
    },
    {
      "midi": 44,
      "hit": false,
      "t": 152771.52524999398,
      "d": 156.24978124999325,
      "v": 45
    },
    {
      "midi": 36,
      "hit": false,
      "t": 152934.56849999397,
      "d": 156.24978124999325,
      "v": 45
    },
    {
      "midi": 42,
      "hit": false,
      "t": 152934.56849999397,
      "d": 156.24978124999325,
      "v": 45
    },
    {
      "midi": 64,
      "hit": false,
      "t": 152934.56849999962,
      "d": 319.29303125001024,
      "v": 108
    },
    {
      "midi": 44,
      "hit": false,
      "t": 153097.61174999396,
      "d": 156.24978124999325,
      "v": 45
    },
    {
      "midi": 38,
      "hit": false,
      "t": 153260.65499999395,
      "d": 156.24978124999325,
      "v": 45
    },
    {
      "midi": 42,
      "hit": false,
      "t": 153260.65499999395,
      "d": 156.24978124999325,
      "v": 45
    },
    {
      "midi": 45,
      "hit": false,
      "t": 153260.65499999953,
      "d": 319.29303125001024,
      "v": 75
    },
    {
      "midi": 45,
      "hit": false,
      "t": 153260.6549999996,
      "d": 319.29303125001024,
      "v": 92
    },
    {
      "midi": 66,
      "hit": false,
      "t": 153260.65499999962,
      "d": 319.29303125001024,
      "v": 108
    },
    {
      "midi": 44,
      "hit": false,
      "t": 153423.69824999393,
      "d": 156.24978124999325,
      "v": 45
    },
    {
      "midi": 42,
      "hit": false,
      "t": 153586.74149999392,
      "d": 156.24978124999325,
      "v": 45
    },
    {
      "midi": 74,
      "hit": false,
      "t": 153586.74149999846,
      "d": 156.24978124999325,
      "v": 30
    },
    {
      "midi": 40,
      "hit": false,
      "t": 153586.74149999954,
      "d": 319.29303125001024,
      "v": 75
    },
    {
      "midi": 40,
      "hit": false,
      "t": 153586.7414999996,
      "d": 319.29303125001024,
      "v": 92
    },
    {
      "midi": 67,
      "hit": false,
      "t": 153586.74149999963,
      "d": 319.29303125001024,
      "v": 108
    },
    {
      "midi": 44,
      "hit": false,
      "t": 153749.7847499939,
      "d": 156.24978124999325,
      "v": 45
    },
    {
      "midi": 79,
      "hit": false,
      "t": 153749.78474999845,
      "d": 156.24978124999325,
      "v": 30
    },
    {
      "midi": 36,
      "hit": false,
      "t": 153912.8279999939,
      "d": 156.24978124999325,
      "v": 63
    },
    {
      "midi": 46,
      "hit": false,
      "t": 153912.8279999939,
      "d": 156.24978124999325,
      "v": 63
    },
    {
      "midi": 47,
      "hit": false,
      "t": 153912.82799999954,
      "d": 543.4775000000081,
      "v": 75
    },
    {
      "midi": 47,
      "hit": false,
      "t": 153912.8279999996,
      "d": 543.4775000000081,
      "v": 92
    },
    {
      "midi": 66,
      "hit": false,
      "t": 153912.82799999963,
      "d": 319.29303125001024,
      "v": 108
    },
    {
      "midi": 42,
      "hit": false,
      "t": 154075.87124999388,
      "d": 156.24978124999325,
      "v": 45
    },
    {
      "midi": 44,
      "hit": false,
      "t": 154238.91449999387,
      "d": 156.24978124999325,
      "v": 45
    },
    {
      "midi": 64,
      "hit": false,
      "t": 154238.91449999964,
      "d": 156.24978124999325,
      "v": 108
    },
    {
      "midi": 36,
      "hit": false,
      "t": 154401.95774999386,
      "d": 156.24978124999325,
      "v": 45
    },
    {
      "midi": 42,
      "hit": false,
      "t": 154401.95774999386,
      "d": 156.24978124999325,
      "v": 45
    },
    {
      "midi": 66,
      "hit": false,
      "t": 154401.95774999962,
      "d": 482.33628124999814,
      "v": 108
    },
    {
      "midi": 38,
      "hit": false,
      "t": 154565.00099999385,
      "d": 156.24978124999325,
      "v": 45
    },
    {
      "midi": 44,
      "hit": false,
      "t": 154565.00099999385,
      "d": 156.24978124999325,
      "v": 45
    },
    {
      "midi": 42,
      "hit": false,
      "t": 154728.04424999384,
      "d": 156.24978124999325,
      "v": 45
    },
    {
      "midi": 44,
      "hit": false,
      "t": 154891.08749999382,
      "d": 156.24978124999325,
      "v": 45
    },
    {
      "midi": 76,
      "hit": false,
      "t": 154891.08749999845,
      "d": 156.24978124999325,
      "v": 30
    },
    {
      "midi": 47,
      "hit": false,
      "t": 154891.08749999956,
      "d": 319.29303125001024,
      "v": 75
    },
    {
      "midi": 62,
      "hit": false,
      "t": 154891.08749999962,
      "d": 319.29303125001024,
      "v": 108
    },
    {
      "midi": 47,
      "hit": false,
      "t": 154891.08749999962,
      "d": 319.29303125001024,
      "v": 92
    },
    {
      "midi": 36,
      "hit": false,
      "t": 155054.1307499938,
      "d": 156.24978124999325,
      "v": 45
    },
    {
      "midi": 46,
      "hit": false,
      "t": 155054.1307499938,
      "d": 156.24978124999325,
      "v": 45
    },
    {
      "midi": 79,
      "hit": false,
      "t": 155054.13074999844,
      "d": 156.24978124999325,
      "v": 30
    },
    {
      "midi": 42,
      "hit": false,
      "t": 155217.1739999938,
      "d": 156.24978124999325,
      "v": 45
    },
    {
      "midi": 64,
      "hit": false,
      "t": 155217.17399999962,
      "d": 319.29303125001024,
      "v": 108
    },
    {
      "midi": 44,
      "hit": false,
      "t": 155380.2172499938,
      "d": 156.24978124999325,
      "v": 45
    },
    {
      "midi": 36,
      "hit": false,
      "t": 155543.26049999378,
      "d": 156.24978124999325,
      "v": 45
    },
    {
      "midi": 42,
      "hit": false,
      "t": 155543.26049999378,
      "d": 156.24978124999325,
      "v": 45
    },
    {
      "midi": 66,
      "hit": false,
      "t": 155543.26049999963,
      "d": 319.29303125001024,
      "v": 108
    },
    {
      "midi": 44,
      "hit": false,
      "t": 155706.30374999376,
      "d": 156.24978124999325,
      "v": 45
    },
    {
      "midi": 38,
      "hit": false,
      "t": 155869.34699999375,
      "d": 156.24978124999325,
      "v": 45
    },
    {
      "midi": 42,
      "hit": false,
      "t": 155869.34699999375,
      "d": 156.24978124999325,
      "v": 45
    },
    {
      "midi": 42,
      "hit": false,
      "t": 155869.34699999957,
      "d": 319.29303125001024,
      "v": 75
    },
    {
      "midi": 67,
      "hit": false,
      "t": 155869.34699999963,
      "d": 319.29303125001024,
      "v": 108
    },
    {
      "midi": 42,
      "hit": false,
      "t": 155869.34699999963,
      "d": 319.29303125001024,
      "v": 92
    },
    {
      "midi": 44,
      "hit": false,
      "t": 156032.39024999374,
      "d": 156.24978124999325,
      "v": 45
    },
    {
      "midi": 42,
      "hit": false,
      "t": 156195.43349999373,
      "d": 156.24978124999325,
      "v": 45
    },
    {
      "midi": 74,
      "hit": false,
      "t": 156195.43349999844,
      "d": 156.24978124999325,
      "v": 30
    },
    {
      "midi": 47,
      "hit": false,
      "t": 156195.43349999958,
      "d": 319.29303125001024,
      "v": 75
    },
    {
      "midi": 69,
      "hit": false,
      "t": 156195.43349999964,
      "d": 319.29303125001024,
      "v": 108
    },
    {
      "midi": 47,
      "hit": false,
      "t": 156195.43349999964,
      "d": 319.29303125001024,
      "v": 92
    },
    {
      "midi": 44,
      "hit": false,
      "t": 156358.47674999372,
      "d": 156.24978124999325,
      "v": 45
    },
    {
      "midi": 79,
      "hit": false,
      "t": 156358.47674999843,
      "d": 156.24978124999325,
      "v": 30
    },
    {
      "midi": 36,
      "hit": false,
      "t": 156521.5199999937,
      "d": 156.24978124999325,
      "v": 63
    },
    {
      "midi": 46,
      "hit": false,
      "t": 156521.5199999937,
      "d": 156.24978124999325,
      "v": 63
    },
    {
      "midi": 48,
      "hit": false,
      "t": 156521.51999999958,
      "d": 543.4775000000081,
      "v": 75
    },
    {
      "midi": 59,
      "hit": false,
      "t": 156521.51999999964,
      "d": 1141.3027500000026,
      "v": 108
    },
    {
      "midi": 64,
      "hit": false,
      "t": 156521.51999999964,
      "d": 1141.3027500000026,
      "v": 108
    },
    {
      "midi": 67,
      "hit": false,
      "t": 156521.51999999964,
      "d": 1141.3027500000026,
      "v": 108
    },
    {
      "midi": 48,
      "hit": false,
      "t": 156521.51999999964,
      "d": 543.4775000000081,
      "v": 92
    },
    {
      "midi": 42,
      "hit": false,
      "t": 156684.5632499937,
      "d": 156.24978124999325,
      "v": 45
    },
    {
      "midi": 44,
      "hit": false,
      "t": 156847.60649999368,
      "d": 156.24978124999325,
      "v": 45
    },
    {
      "midi": 36,
      "hit": false,
      "t": 157010.64974999367,
      "d": 156.24978124999325,
      "v": 45
    },
    {
      "midi": 42,
      "hit": false,
      "t": 157010.64974999367,
      "d": 156.24978124999325,
      "v": 45
    },
    {
      "midi": 38,
      "hit": false,
      "t": 157173.69299999365,
      "d": 156.24978124999325,
      "v": 45
    },
    {
      "midi": 44,
      "hit": false,
      "t": 157173.69299999365,
      "d": 156.24978124999325,
      "v": 45
    },
    {
      "midi": 72,
      "hit": false,
      "t": 157173.69299999994,
      "d": 543.4775000000081,
      "v": 45
    },
    {
      "midi": 76,
      "hit": false,
      "t": 157173.69299999994,
      "d": 543.4775000000081,
      "v": 45
    },
    {
      "midi": 42,
      "hit": false,
      "t": 157336.73624999364,
      "d": 156.24978124999325,
      "v": 45
    },
    {
      "midi": 44,
      "hit": false,
      "t": 157499.77949999363,
      "d": 156.24978124999325,
      "v": 45
    },
    {
      "midi": 76,
      "hit": false,
      "t": 157499.77949999843,
      "d": 156.24978124999325,
      "v": 30
    },
    {
      "midi": 48,
      "hit": false,
      "t": 157499.7794999996,
      "d": 319.29303125001024,
      "v": 75
    },
    {
      "midi": 48,
      "hit": false,
      "t": 157499.77949999965,
      "d": 319.29303125001024,
      "v": 92
    },
    {
      "midi": 36,
      "hit": false,
      "t": 157662.82274999362,
      "d": 156.24978124999325,
      "v": 45
    },
    {
      "midi": 46,
      "hit": false,
      "t": 157662.82274999362,
      "d": 156.24978124999325,
      "v": 45
    },
    {
      "midi": 79,
      "hit": false,
      "t": 157662.82274999842,
      "d": 156.24978124999325,
      "v": 30
    },
    {
      "midi": 42,
      "hit": false,
      "t": 157825.8659999936,
      "d": 156.24978124999325,
      "v": 45
    },
    {
      "midi": 67,
      "hit": false,
      "t": 157825.86599999995,
      "d": 543.4775000000081,
      "v": 45
    },
    {
      "midi": 71,
      "hit": false,
      "t": 157825.86599999995,
      "d": 543.4775000000081,
      "v": 45
    },
    {
      "midi": 44,
      "hit": false,
      "t": 157988.9092499936,
      "d": 156.24978124999325,
      "v": 45
    },
    {
      "midi": 36,
      "hit": false,
      "t": 158151.95249999358,
      "d": 156.24978124999325,
      "v": 45
    },
    {
      "midi": 42,
      "hit": false,
      "t": 158151.95249999358,
      "d": 156.24978124999325,
      "v": 45
    },
    {
      "midi": 67,
      "hit": false,
      "t": 158151.95249999964,
      "d": 319.29303125001024,
      "v": 108
    },
    {
      "midi": 44,
      "hit": false,
      "t": 158314.99574999357,
      "d": 156.24978124999325,
      "v": 45
    },
    {
      "midi": 38,
      "hit": false,
      "t": 158478.03899999356,
      "d": 156.24978124999325,
      "v": 45
    },
    {
      "midi": 42,
      "hit": false,
      "t": 158478.03899999356,
      "d": 156.24978124999325,
      "v": 45
    },
    {
      "midi": 40,
      "hit": false,
      "t": 158478.0389999996,
      "d": 319.29303125001024,
      "v": 75
    },
    {
      "midi": 69,
      "hit": false,
      "t": 158478.03899999964,
      "d": 319.29303125001024,
      "v": 108
    },
    {
      "midi": 40,
      "hit": false,
      "t": 158478.03899999967,
      "d": 319.29303125001024,
      "v": 92
    },
    {
      "midi": 64,
      "hit": false,
      "t": 158478.03899999996,
      "d": 543.4775000000081,
      "v": 45
    },
    {
      "midi": 67,
      "hit": false,
      "t": 158478.03899999996,
      "d": 543.4775000000081,
      "v": 45
    },
    {
      "midi": 44,
      "hit": false,
      "t": 158641.08224999355,
      "d": 156.24978124999325,
      "v": 45
    },
    {
      "midi": 42,
      "hit": false,
      "t": 158804.12549999353,
      "d": 156.24978124999325,
      "v": 45
    },
    {
      "midi": 74,
      "hit": false,
      "t": 158804.12549999842,
      "d": 156.24978124999325,
      "v": 30
    },
    {
      "midi": 43,
      "hit": false,
      "t": 158804.12549999962,
      "d": 319.29303125001024,
      "v": 75
    },
    {
      "midi": 67,
      "hit": false,
      "t": 158804.12549999965,
      "d": 319.29303125001024,
      "v": 108
    },
    {
      "midi": 43,
      "hit": false,
      "t": 158804.12549999967,
      "d": 319.29303125001024,
      "v": 92
    },
    {
      "midi": 44,
      "hit": false,
      "t": 158967.16874999352,
      "d": 156.24978124999325,
      "v": 45
    },
    {
      "midi": 79,
      "hit": false,
      "t": 158967.1687499984,
      "d": 156.24978124999325,
      "v": 30
    },
    {
      "midi": 36,
      "hit": false,
      "t": 159130.2119999935,
      "d": 156.24978124999325,
      "v": 63
    },
    {
      "midi": 46,
      "hit": false,
      "t": 159130.2119999935,
      "d": 156.24978124999325,
      "v": 63
    },
    {
      "midi": 41,
      "hit": false,
      "t": 159130.21199999962,
      "d": 543.4775000000081,
      "v": 75
    },
    {
      "midi": 57,
      "hit": false,
      "t": 159130.21199999965,
      "d": 869.564000000013,
      "v": 108
    },
    {
      "midi": 60,
      "hit": false,
      "t": 159130.21199999965,
      "d": 869.564000000013,
      "v": 108
    },
    {
      "midi": 65,
      "hit": false,
      "t": 159130.21199999965,
      "d": 869.564000000013,
      "v": 108
    },
    {
      "midi": 41,
      "hit": false,
      "t": 159130.21199999968,
      "d": 543.4775000000081,
      "v": 92
    },
    {
      "midi": 65,
      "hit": false,
      "t": 159130.21199999997,
      "d": 1141.3027500000026,
      "v": 45
    },
    {
      "midi": 69,
      "hit": false,
      "t": 159130.21199999997,
      "d": 1141.3027500000026,
      "v": 45
    },
    {
      "midi": 42,
      "hit": false,
      "t": 159293.2552499935,
      "d": 156.24978124999325,
      "v": 45
    },
    {
      "midi": 44,
      "hit": false,
      "t": 159456.29849999349,
      "d": 156.24978124999325,
      "v": 45
    },
    {
      "midi": 36,
      "hit": false,
      "t": 159619.34174999347,
      "d": 156.24978124999325,
      "v": 45
    },
    {
      "midi": 42,
      "hit": false,
      "t": 159619.34174999347,
      "d": 156.24978124999325,
      "v": 45
    },
    {
      "midi": 38,
      "hit": false,
      "t": 159782.38499999346,
      "d": 156.24978124999325,
      "v": 45
    },
    {
      "midi": 44,
      "hit": false,
      "t": 159782.38499999346,
      "d": 156.24978124999325,
      "v": 45
    },
    {
      "midi": 42,
      "hit": false,
      "t": 159945.42824999345,
      "d": 156.24978124999325,
      "v": 45
    },
    {
      "midi": 44,
      "hit": false,
      "t": 160108.47149999344,
      "d": 156.24978124999325,
      "v": 45
    },
    {
      "midi": 76,
      "hit": false,
      "t": 160108.4714999984,
      "d": 156.24978124999325,
      "v": 30
    },
    {
      "midi": 41,
      "hit": false,
      "t": 160108.47149999964,
      "d": 319.29303125001024,
      "v": 75
    },
    {
      "midi": 64,
      "hit": false,
      "t": 160108.47149999966,
      "d": 319.29303125001024,
      "v": 108
    },
    {
      "midi": 41,
      "hit": false,
      "t": 160108.4714999997,
      "d": 319.29303125001024,
      "v": 92
    },
    {
      "midi": 36,
      "hit": false,
      "t": 160271.51474999342,
      "d": 156.24978124999325,
      "v": 45
    },
    {
      "midi": 46,
      "hit": false,
      "t": 160271.51474999342,
      "d": 156.24978124999325,
      "v": 45
    },
    {
      "midi": 79,
      "hit": false,
      "t": 160271.5147499984,
      "d": 156.24978124999325,
      "v": 30
    },
    {
      "midi": 42,
      "hit": false,
      "t": 160434.5579999934,
      "d": 156.24978124999325,
      "v": 45
    },
    {
      "midi": 47,
      "hit": false,
      "t": 160434.55799999964,
      "d": 543.4775000000081,
      "v": 75
    },
    {
      "midi": 57,
      "hit": false,
      "t": 160434.55799999967,
      "d": 869.564000000013,
      "v": 108
    },
    {
      "midi": 59,
      "hit": false,
      "t": 160434.55799999967,
      "d": 869.564000000013,
      "v": 108
    },
    {
      "midi": 63,
      "hit": false,
      "t": 160434.55799999967,
      "d": 869.564000000013,
      "v": 108
    },
    {
      "midi": 47,
      "hit": false,
      "t": 160434.5579999997,
      "d": 543.4775000000081,
      "v": 92
    },
    {
      "midi": 62,
      "hit": false,
      "t": 160434.55799999996,
      "d": 1141.3027500000026,
      "v": 45
    },
    {
      "midi": 66,
      "hit": false,
      "t": 160434.55799999996,
      "d": 1141.3027500000026,
      "v": 45
    },
    {
      "midi": 44,
      "hit": false,
      "t": 160597.6012499934,
      "d": 156.24978124999325,
      "v": 45
    },
    {
      "midi": 36,
      "hit": false,
      "t": 160760.6444999934,
      "d": 156.24978124999325,
      "v": 45
    },
    {
      "midi": 42,
      "hit": false,
      "t": 160760.6444999934,
      "d": 156.24978124999325,
      "v": 45
    },
    {
      "midi": 44,
      "hit": false,
      "t": 160923.68774999338,
      "d": 156.24978124999325,
      "v": 45
    },
    {
      "midi": 38,
      "hit": false,
      "t": 161086.73099999336,
      "d": 156.24978124999325,
      "v": 45
    },
    {
      "midi": 42,
      "hit": false,
      "t": 161086.73099999336,
      "d": 156.24978124999325,
      "v": 45
    },
    {
      "midi": 44,
      "hit": false,
      "t": 161249.77424999335,
      "d": 156.24978124999325,
      "v": 45
    },
    {
      "midi": 42,
      "hit": false,
      "t": 161412.81749999334,
      "d": 156.24978124999325,
      "v": 45
    },
    {
      "midi": 74,
      "hit": false,
      "t": 161412.8174999984,
      "d": 156.24978124999325,
      "v": 30
    },
    {
      "midi": 47,
      "hit": false,
      "t": 161412.81749999966,
      "d": 319.29303125001024,
      "v": 75
    },
    {
      "midi": 63,
      "hit": false,
      "t": 161412.81749999968,
      "d": 319.29303125001024,
      "v": 108
    },
    {
      "midi": 47,
      "hit": false,
      "t": 161412.8174999997,
      "d": 319.29303125001024,
      "v": 92
    },
    {
      "midi": 44,
      "hit": false,
      "t": 161575.86074999333,
      "d": 156.24978124999325,
      "v": 45
    },
    {
      "midi": 79,
      "hit": false,
      "t": 161575.8607499984,
      "d": 156.24978124999325,
      "v": 30
    },
    {
      "midi": 36,
      "hit": false,
      "t": 161738.90399999332,
      "d": 156.24978124999325,
      "v": 63
    },
    {
      "midi": 46,
      "hit": false,
      "t": 161738.90399999332,
      "d": 156.24978124999325,
      "v": 63
    },
    {
      "midi": 40,
      "hit": false,
      "t": 161738.90399999966,
      "d": 543.4775000000081,
      "v": 75
    },
    {
      "midi": 55,
      "hit": false,
      "t": 161738.9039999997,
      "d": 2445.648749999993,
      "v": 108
    },
    {
      "midi": 59,
      "hit": false,
      "t": 161738.9039999997,
      "d": 2445.648749999993,
      "v": 108
    },
    {
      "midi": 64,
      "hit": false,
      "t": 161738.9039999997,
      "d": 2445.648749999993,
      "v": 108
    },
    {
      "midi": 40,
      "hit": false,
      "t": 161738.90399999972,
      "d": 543.4775000000081,
      "v": 92
    },
    {
      "midi": 64,
      "hit": false,
      "t": 161738.90399999995,
      "d": 1141.3027500000026,
      "v": 45
    },
    {
      "midi": 67,
      "hit": false,
      "t": 161738.90399999995,
      "d": 1141.3027500000026,
      "v": 45
    },
    {
      "midi": 42,
      "hit": false,
      "t": 161901.9472499933,
      "d": 156.24978124999325,
      "v": 45
    },
    {
      "midi": 44,
      "hit": false,
      "t": 162064.9904999933,
      "d": 156.24978124999325,
      "v": 45
    },
    {
      "midi": 36,
      "hit": false,
      "t": 162228.03374999328,
      "d": 156.24978124999325,
      "v": 45
    },
    {
      "midi": 42,
      "hit": false,
      "t": 162228.03374999328,
      "d": 156.24978124999325,
      "v": 45
    },
    {
      "midi": 38,
      "hit": false,
      "t": 162391.07699999327,
      "d": 156.24978124999325,
      "v": 45
    },
    {
      "midi": 44,
      "hit": false,
      "t": 162391.07699999327,
      "d": 156.24978124999325,
      "v": 45
    },
    {
      "midi": 42,
      "hit": false,
      "t": 162554.12024999326,
      "d": 156.24978124999325,
      "v": 45
    },
    {
      "midi": 44,
      "hit": false,
      "t": 162717.16349999324,
      "d": 156.24978124999325,
      "v": 45
    },
    {
      "midi": 76,
      "hit": false,
      "t": 162717.1634999984,
      "d": 156.24978124999325,
      "v": 30
    },
    {
      "midi": 40,
      "hit": false,
      "t": 162717.16349999967,
      "d": 319.29303125001024,
      "v": 75
    },
    {
      "midi": 40,
      "hit": false,
      "t": 162717.16349999973,
      "d": 319.29303125001024,
      "v": 92
    },
    {
      "midi": 36,
      "hit": false,
      "t": 162880.20674999323,
      "d": 156.24978124999325,
      "v": 45
    },
    {
      "midi": 46,
      "hit": false,
      "t": 162880.20674999323,
      "d": 156.24978124999325,
      "v": 45
    },
    {
      "midi": 79,
      "hit": false,
      "t": 162880.20674999838,
      "d": 156.24978124999325,
      "v": 30
    },
    {
      "midi": 42,
      "hit": false,
      "t": 163043.24999999322,
      "d": 156.24978124999325,
      "v": 45
    },
    {
      "midi": 44,
      "hit": false,
      "t": 163206.2932499932,
      "d": 156.24978124999325,
      "v": 45
    },
    {
      "midi": 36,
      "hit": false,
      "t": 163369.3364999932,
      "d": 156.24978124999325,
      "v": 45
    },
    {
      "midi": 42,
      "hit": false,
      "t": 163369.3364999932,
      "d": 156.24978124999325,
      "v": 45
    },
    {
      "midi": 47,
      "hit": false,
      "t": 163369.33649999968,
      "d": 319.29303125001024,
      "v": 75
    },
    {
      "midi": 71,
      "hit": false,
      "t": 163369.33649999995,
      "d": 319.29303125001024,
      "v": 45
    },
    {
      "midi": 44,
      "hit": false,
      "t": 163532.37974999318,
      "d": 156.24978124999325,
      "v": 45
    },
    {
      "midi": 38,
      "hit": false,
      "t": 163695.42299999317,
      "d": 156.24978124999325,
      "v": 45
    },
    {
      "midi": 42,
      "hit": false,
      "t": 163695.42299999317,
      "d": 156.24978124999325,
      "v": 45
    },
    {
      "midi": 43,
      "hit": false,
      "t": 163695.4229999997,
      "d": 319.29303125001024,
      "v": 75
    },
    {
      "midi": 47,
      "hit": false,
      "t": 163695.42299999975,
      "d": 156.24978124999325,
      "v": 92
    },
    {
      "midi": 81,
      "hit": false,
      "t": 163695.42299999995,
      "d": 319.29303125001024,
      "v": 45
    },
    {
      "midi": 44,
      "hit": false,
      "t": 163858.46624999316,
      "d": 156.24978124999325,
      "v": 45
    },
    {
      "midi": 43,
      "hit": false,
      "t": 163858.46624999974,
      "d": 156.24978124999325,
      "v": 92
    },
    {
      "midi": 42,
      "hit": false,
      "t": 164021.50949999315,
      "d": 156.24978124999325,
      "v": 45
    },
    {
      "midi": 74,
      "hit": false,
      "t": 164021.50949999838,
      "d": 156.24978124999325,
      "v": 30
    },
    {
      "midi": 42,
      "hit": false,
      "t": 164021.5094999997,
      "d": 319.29303125001024,
      "v": 75
    },
    {
      "midi": 42,
      "hit": false,
      "t": 164021.50949999972,
      "d": 319.29303125001024,
      "v": 92
    },
    {
      "midi": 79,
      "hit": false,
      "t": 164021.50949999996,
      "d": 156.24978124999325,
      "v": 45
    },
    {
      "midi": 44,
      "hit": false,
      "t": 164184.55274999313,
      "d": 156.24978124999325,
      "v": 45
    },
    {
      "midi": 79,
      "hit": false,
      "t": 164184.55274999837,
      "d": 156.24978124999325,
      "v": 30
    },
    {
      "midi": 78,
      "hit": false,
      "t": 164184.55274999994,
      "d": 156.24978124999325,
      "v": 45
    },
    {
      "midi": 36,
      "hit": false,
      "t": 164347.59599999312,
      "d": 156.24978124999325,
      "v": 63
    },
    {
      "midi": 46,
      "hit": false,
      "t": 164347.59599999312,
      "d": 156.24978124999325,
      "v": 63
    },
    {
      "midi": 40,
      "hit": false,
      "t": 164347.5959999997,
      "d": 543.4775000000081,
      "v": 75
    },
    {
      "midi": 40,
      "hit": false,
      "t": 164347.59599999973,
      "d": 543.4775000000081,
      "v": 92
    },
    {
      "midi": 76,
      "hit": false,
      "t": 164347.59599999993,
      "d": 1141.3027500000026,
      "v": 45
    },
    {
      "midi": 42,
      "hit": false,
      "t": 164510.6392499931,
      "d": 156.24978124999325,
      "v": 45
    },
    {
      "midi": 44,
      "hit": false,
      "t": 164673.6824999931,
      "d": 156.24978124999325,
      "v": 45
    },
    {
      "midi": 36,
      "hit": false,
      "t": 164836.7257499931,
      "d": 156.24978124999325,
      "v": 45
    },
    {
      "midi": 42,
      "hit": false,
      "t": 164836.7257499931,
      "d": 156.24978124999325,
      "v": 45
    },
    {
      "midi": 38,
      "hit": false,
      "t": 164999.76899999307,
      "d": 156.24978124999325,
      "v": 45
    },
    {
      "midi": 44,
      "hit": false,
      "t": 164999.76899999307,
      "d": 156.24978124999325,
      "v": 45
    },
    {
      "midi": 42,
      "hit": false,
      "t": 165162.81224999306,
      "d": 156.24978124999325,
      "v": 45
    },
    {
      "midi": 44,
      "hit": false,
      "t": 165325.85549999305,
      "d": 156.24978124999325,
      "v": 45
    },
    {
      "midi": 76,
      "hit": false,
      "t": 165325.85549999838,
      "d": 156.24978124999325,
      "v": 30
    },
    {
      "midi": 40,
      "hit": false,
      "t": 165325.8554999997,
      "d": 319.29303125001024,
      "v": 75
    },
    {
      "midi": 40,
      "hit": false,
      "t": 165325.85549999974,
      "d": 319.29303125001024,
      "v": 92
    },
    {
      "midi": 36,
      "hit": false,
      "t": 165488.89874999304,
      "d": 156.24978124999325,
      "v": 45
    },
    {
      "midi": 46,
      "hit": false,
      "t": 165488.89874999304,
      "d": 156.24978124999325,
      "v": 45
    },
    {
      "midi": 79,
      "hit": false,
      "t": 165488.89874999836,
      "d": 156.24978124999325,
      "v": 30
    },
    {
      "midi": 42,
      "hit": false,
      "t": 165651.94199999303,
      "d": 156.24978124999325,
      "v": 45
    },
    {
      "midi": 64,
      "hit": false,
      "t": 165651.9419999997,
      "d": 482.33628124999814,
      "v": 108
    },
    {
      "midi": 40,
      "hit": false,
      "t": 165651.94199999972,
      "d": 543.4775000000081,
      "v": 75
    },
    {
      "midi": 40,
      "hit": false,
      "t": 165651.94199999975,
      "d": 543.4775000000081,
      "v": 92
    },
    {
      "midi": 44,
      "hit": false,
      "t": 165814.985249993,
      "d": 156.24978124999325,
      "v": 45
    },
    {
      "midi": 36,
      "hit": false,
      "t": 165978.028499993,
      "d": 156.24978124999325,
      "v": 45
    },
    {
      "midi": 42,
      "hit": false,
      "t": 165978.028499993,
      "d": 156.24978124999325,
      "v": 45
    },
    {
      "midi": 44,
      "hit": false,
      "t": 166141.071749993,
      "d": 156.24978124999325,
      "v": 45
    },
    {
      "midi": 67,
      "hit": false,
      "t": 166141.07174999968,
      "d": 482.33628124999814,
      "v": 108
    },
    {
      "midi": 38,
      "hit": false,
      "t": 166304.11499999298,
      "d": 156.24978124999325,
      "v": 45
    },
    {
      "midi": 42,
      "hit": false,
      "t": 166304.11499999298,
      "d": 156.24978124999325,
      "v": 45
    },
    {
      "midi": 44,
      "hit": false,
      "t": 166467.15824999296,
      "d": 156.24978124999325,
      "v": 45
    },
    {
      "midi": 42,
      "hit": false,
      "t": 166630.20149999295,
      "d": 156.24978124999325,
      "v": 45
    },
    {
      "midi": 71,
      "hit": false,
      "t": 166630.20149999968,
      "d": 319.29303125001024,
      "v": 108
    },
    {
      "midi": 38,
      "hit": false,
      "t": 166630.20149999973,
      "d": 319.29303125001024,
      "v": 75
    },
    {
      "midi": 38,
      "hit": false,
      "t": 166630.20149999976,
      "d": 319.29303125001024,
      "v": 92
    },
    {
      "midi": 44,
      "hit": false,
      "t": 166793.24474999294,
      "d": 156.24978124999325,
      "v": 45
    },
    {
      "midi": 36,
      "hit": false,
      "t": 166956.28799999293,
      "d": 156.24978124999325,
      "v": 63
    },
    {
      "midi": 46,
      "hit": false,
      "t": 166956.28799999293,
      "d": 156.24978124999325,
      "v": 63
    },
    {
      "midi": 64,
      "hit": false,
      "t": 166956.28799999968,
      "d": 1793.4757500000123,
      "v": 108
    },
    {
      "midi": 67,
      "hit": false,
      "t": 166956.28799999968,
      "d": 1793.4757500000123,
      "v": 108
    },
    {
      "midi": 70,
      "hit": false,
      "t": 166956.28799999968,
      "d": 1793.4757500000123,
      "v": 108
    },
    {
      "midi": 36,
      "hit": false,
      "t": 166956.28799999974,
      "d": 543.4775000000081,
      "v": 75
    },
    {
      "midi": 36,
      "hit": false,
      "t": 166956.28799999977,
      "d": 543.4775000000081,
      "v": 92
    },
    {
      "midi": 42,
      "hit": false,
      "t": 167119.33124999292,
      "d": 156.24978124999325,
      "v": 45
    },
    {
      "midi": 44,
      "hit": false,
      "t": 167282.3744999929,
      "d": 156.24978124999325,
      "v": 45
    },
    {
      "midi": 36,
      "hit": false,
      "t": 167445.4177499929,
      "d": 156.24978124999325,
      "v": 45
    },
    {
      "midi": 42,
      "hit": false,
      "t": 167445.4177499929,
      "d": 156.24978124999325,
      "v": 45
    },
    {
      "midi": 38,
      "hit": false,
      "t": 167608.46099999288,
      "d": 156.24978124999325,
      "v": 45
    },
    {
      "midi": 44,
      "hit": false,
      "t": 167608.46099999288,
      "d": 156.24978124999325,
      "v": 45
    },
    {
      "midi": 42,
      "hit": false,
      "t": 167771.50424999287,
      "d": 156.24978124999325,
      "v": 45
    },
    {
      "midi": 44,
      "hit": false,
      "t": 167934.54749999286,
      "d": 156.24978124999325,
      "v": 45
    },
    {
      "midi": 36,
      "hit": false,
      "t": 167934.54749999975,
      "d": 156.24978124999325,
      "v": 75
    },
    {
      "midi": 36,
      "hit": false,
      "t": 167934.54749999978,
      "d": 156.24978124999325,
      "v": 92
    },
    {
      "midi": 36,
      "hit": false,
      "t": 168097.59074999284,
      "d": 156.24978124999325,
      "v": 45
    },
    {
      "midi": 46,
      "hit": false,
      "t": 168097.59074999284,
      "d": 156.24978124999325,
      "v": 45
    },
    {
      "midi": 36,
      "hit": false,
      "t": 168097.59074999974,
      "d": 156.24978124999325,
      "v": 75
    },
    {
      "midi": 36,
      "hit": false,
      "t": 168097.59074999977,
      "d": 156.24978124999325,
      "v": 92
    },
    {
      "midi": 42,
      "hit": false,
      "t": 168260.63399999283,
      "d": 156.24978124999325,
      "v": 45
    },
    {
      "midi": 44,
      "hit": false,
      "t": 168423.67724999282,
      "d": 156.24978124999325,
      "v": 45
    },
    {
      "midi": 36,
      "hit": false,
      "t": 168586.7204999928,
      "d": 156.24978124999325,
      "v": 45
    },
    {
      "midi": 42,
      "hit": false,
      "t": 168586.7204999928,
      "d": 156.24978124999325,
      "v": 45
    },
    {
      "midi": 44,
      "hit": false,
      "t": 168749.7637499928,
      "d": 156.24978124999325,
      "v": 45
    },
    {
      "midi": 38,
      "hit": false,
      "t": 168912.80699999278,
      "d": 156.24978124999325,
      "v": 45
    },
    {
      "midi": 42,
      "hit": false,
      "t": 168912.80699999278,
      "d": 156.24978124999325,
      "v": 45
    },
    {
      "midi": 70,
      "hit": false,
      "t": 168912.80699999968,
      "d": 543.4775000000081,
      "v": 108
    },
    {
      "midi": 44,
      "hit": false,
      "t": 169075.85024999277,
      "d": 156.24978124999325,
      "v": 45
    },
    {
      "midi": 42,
      "hit": false,
      "t": 169238.89349999276,
      "d": 156.24978124999325,
      "v": 45
    },
    {
      "midi": 36,
      "hit": false,
      "t": 169238.89349999974,
      "d": 319.29303125001024,
      "v": 75
    },
    {
      "midi": 36,
      "hit": false,
      "t": 169238.89349999977,
      "d": 319.29303125001024,
      "v": 92
    },
    {
      "midi": 44,
      "hit": false,
      "t": 169401.93674999275,
      "d": 156.24978124999325,
      "v": 45
    },
    {
      "midi": 36,
      "hit": false,
      "t": 169564.97999999273,
      "d": 156.24978124999325,
      "v": 63
    },
    {
      "midi": 46,
      "hit": false,
      "t": 169564.97999999273,
      "d": 156.24978124999325,
      "v": 63
    },
    {
      "midi": 64,
      "hit": false,
      "t": 169564.9799999997,
      "d": 1141.3027500000026,
      "v": 108
    },
    {
      "midi": 67,
      "hit": false,
      "t": 169564.9799999997,
      "d": 1141.3027500000026,
      "v": 108
    },
    {
      "midi": 71,
      "hit": false,
      "t": 169564.9799999997,
      "d": 1141.3027500000026,
      "v": 108
    },
    {
      "midi": 40,
      "hit": false,
      "t": 169564.97999999975,
      "d": 543.4775000000081,
      "v": 75
    },
    {
      "midi": 40,
      "hit": false,
      "t": 169564.97999999978,
      "d": 543.4775000000081,
      "v": 92
    },
    {
      "midi": 42,
      "hit": false,
      "t": 169728.02324999272,
      "d": 156.24978124999325,
      "v": 45
    },
    {
      "midi": 44,
      "hit": false,
      "t": 169891.0664999927,
      "d": 156.24978124999325,
      "v": 45
    },
    {
      "midi": 36,
      "hit": false,
      "t": 170054.1097499927,
      "d": 156.24978124999325,
      "v": 45
    },
    {
      "midi": 42,
      "hit": false,
      "t": 170054.1097499927,
      "d": 156.24978124999325,
      "v": 45
    },
    {
      "midi": 38,
      "hit": false,
      "t": 170217.1529999927,
      "d": 156.24978124999325,
      "v": 45
    },
    {
      "midi": 44,
      "hit": false,
      "t": 170217.1529999927,
      "d": 156.24978124999325,
      "v": 45
    },
    {
      "midi": 42,
      "hit": false,
      "t": 170380.19624999267,
      "d": 156.24978124999325,
      "v": 45
    },
    {
      "midi": 44,
      "hit": false,
      "t": 170543.23949999266,
      "d": 156.24978124999325,
      "v": 45
    },
    {
      "midi": 40,
      "hit": false,
      "t": 170543.23949999976,
      "d": 156.24978124999325,
      "v": 75
    },
    {
      "midi": 40,
      "hit": false,
      "t": 170543.2394999998,
      "d": 156.24978124999325,
      "v": 92
    },
    {
      "midi": 36,
      "hit": false,
      "t": 170706.28274999265,
      "d": 156.24978124999325,
      "v": 45
    },
    {
      "midi": 46,
      "hit": false,
      "t": 170706.28274999265,
      "d": 156.24978124999325,
      "v": 45
    },
    {
      "midi": 40,
      "hit": false,
      "t": 170706.28274999975,
      "d": 156.24978124999325,
      "v": 75
    },
    {
      "midi": 40,
      "hit": false,
      "t": 170706.28274999978,
      "d": 156.24978124999325,
      "v": 92
    },
    {
      "midi": 42,
      "hit": false,
      "t": 170869.32599999264,
      "d": 156.24978124999325,
      "v": 45
    },
    {
      "midi": 59,
      "hit": false,
      "t": 170869.32599999968,
      "d": 482.33628124999814,
      "v": 108
    },
    {
      "midi": 44,
      "hit": false,
      "t": 171032.36924999263,
      "d": 156.24978124999325,
      "v": 45
    },
    {
      "midi": 36,
      "hit": false,
      "t": 171195.4124999926,
      "d": 156.24978124999325,
      "v": 45
    },
    {
      "midi": 42,
      "hit": false,
      "t": 171195.4124999926,
      "d": 156.24978124999325,
      "v": 45
    },
    {
      "midi": 44,
      "hit": false,
      "t": 171358.4557499926,
      "d": 156.24978124999325,
      "v": 45
    },
    {
      "midi": 64,
      "hit": false,
      "t": 171358.45574999967,
      "d": 482.33628124999814,
      "v": 108
    },
    {
      "midi": 38,
      "hit": false,
      "t": 171521.4989999926,
      "d": 156.24978124999325,
      "v": 45
    },
    {
      "midi": 42,
      "hit": false,
      "t": 171521.4989999926,
      "d": 156.24978124999325,
      "v": 45
    },
    {
      "midi": 44,
      "hit": false,
      "t": 171684.54224999258,
      "d": 156.24978124999325,
      "v": 45
    },
    {
      "midi": 42,
      "hit": false,
      "t": 171847.58549999257,
      "d": 156.24978124999325,
      "v": 45
    },
    {
      "midi": 67,
      "hit": false,
      "t": 171847.58549999967,
      "d": 319.29303125001024,
      "v": 108
    },
    {
      "midi": 40,
      "hit": false,
      "t": 171847.58549999975,
      "d": 319.29303125001024,
      "v": 75
    },
    {
      "midi": 40,
      "hit": false,
      "t": 171847.58549999978,
      "d": 319.29303125001024,
      "v": 92
    },
    {
      "midi": 44,
      "hit": false,
      "t": 172010.62874999255,
      "d": 156.24978124999325,
      "v": 45
    },
    {
      "midi": 36,
      "hit": false,
      "t": 172173.67199999254,
      "d": 156.24978124999325,
      "v": 63
    },
    {
      "midi": 46,
      "hit": false,
      "t": 172173.67199999254,
      "d": 156.24978124999325,
      "v": 63
    },
    {
      "midi": 60,
      "hit": false,
      "t": 172173.67199999967,
      "d": 1141.3027500000026,
      "v": 108
    },
    {
      "midi": 63,
      "hit": false,
      "t": 172173.67199999967,
      "d": 1141.3027500000026,
      "v": 108
    },
    {
      "midi": 66,
      "hit": false,
      "t": 172173.67199999967,
      "d": 1141.3027500000026,
      "v": 108
    },
    {
      "midi": 48,
      "hit": false,
      "t": 172173.67199999976,
      "d": 543.4775000000081,
      "v": 75
    },
    {
      "midi": 48,
      "hit": false,
      "t": 172173.6719999998,
      "d": 543.4775000000081,
      "v": 92
    },
    {
      "midi": 42,
      "hit": false,
      "t": 172336.71524999253,
      "d": 156.24978124999325,
      "v": 45
    },
    {
      "midi": 44,
      "hit": false,
      "t": 172499.75849999252,
      "d": 156.24978124999325,
      "v": 45
    },
    {
      "midi": 36,
      "hit": false,
      "t": 172662.8017499925,
      "d": 156.24978124999325,
      "v": 45
    },
    {
      "midi": 42,
      "hit": false,
      "t": 172662.8017499925,
      "d": 156.24978124999325,
      "v": 45
    },
    {
      "midi": 38,
      "hit": false,
      "t": 172825.8449999925,
      "d": 156.24978124999325,
      "v": 45
    },
    {
      "midi": 44,
      "hit": false,
      "t": 172825.8449999925,
      "d": 156.24978124999325,
      "v": 45
    },
    {
      "midi": 42,
      "hit": false,
      "t": 172988.88824999248,
      "d": 156.24978124999325,
      "v": 45
    },
    {
      "midi": 44,
      "hit": false,
      "t": 173151.93149999247,
      "d": 156.24978124999325,
      "v": 45
    },
    {
      "midi": 48,
      "hit": false,
      "t": 173151.93149999977,
      "d": 156.24978124999325,
      "v": 75
    },
    {
      "midi": 48,
      "hit": false,
      "t": 173151.9314999998,
      "d": 156.24978124999325,
      "v": 92
    },
    {
      "midi": 36,
      "hit": false,
      "t": 173314.97474999246,
      "d": 156.24978124999325,
      "v": 45
    },
    {
      "midi": 46,
      "hit": false,
      "t": 173314.97474999246,
      "d": 156.24978124999325,
      "v": 45
    },
    {
      "midi": 48,
      "hit": false,
      "t": 173314.97474999976,
      "d": 156.24978124999325,
      "v": 75
    },
    {
      "midi": 48,
      "hit": false,
      "t": 173314.9747499998,
      "d": 156.24978124999325,
      "v": 92
    },
    {
      "midi": 42,
      "hit": false,
      "t": 173478.01799999244,
      "d": 156.24978124999325,
      "v": 45
    },
    {
      "midi": 63,
      "hit": false,
      "t": 173478.01799999966,
      "d": 869.564000000013,
      "v": 108
    },
    {
      "midi": 44,
      "hit": false,
      "t": 173641.06124999243,
      "d": 156.24978124999325,
      "v": 45
    },
    {
      "midi": 36,
      "hit": false,
      "t": 173804.10449999242,
      "d": 156.24978124999325,
      "v": 45
    },
    {
      "midi": 42,
      "hit": false,
      "t": 173804.10449999242,
      "d": 156.24978124999325,
      "v": 45
    },
    {
      "midi": 44,
      "hit": false,
      "t": 173967.1477499924,
      "d": 156.24978124999325,
      "v": 45
    },
    {
      "midi": 38,
      "hit": false,
      "t": 174130.1909999924,
      "d": 156.24978124999325,
      "v": 45
    },
    {
      "midi": 42,
      "hit": false,
      "t": 174130.1909999924,
      "d": 156.24978124999325,
      "v": 45
    },
    {
      "midi": 48,
      "hit": false,
      "t": 174130.19099999976,
      "d": 319.29303125001024,
      "v": 75
    },
    {
      "midi": 48,
      "hit": false,
      "t": 174130.1909999998,
      "d": 319.29303125001024,
      "v": 92
    },
    {
      "midi": 44,
      "hit": false,
      "t": 174293.23424999238,
      "d": 156.24978124999325,
      "v": 45
    },
    {
      "midi": 42,
      "hit": false,
      "t": 174456.27749999237,
      "d": 156.24978124999325,
      "v": 45
    },
    {
      "midi": 64,
      "hit": false,
      "t": 174456.27749999968,
      "d": 319.29303125001024,
      "v": 108
    },
    {
      "midi": 44,
      "hit": false,
      "t": 174619.32074999236,
      "d": 156.24978124999325,
      "v": 45
    },
    {
      "midi": 36,
      "hit": false,
      "t": 174782.36399999235,
      "d": 156.24978124999325,
      "v": 63
    },
    {
      "midi": 46,
      "hit": false,
      "t": 174782.36399999235,
      "d": 156.24978124999325,
      "v": 63
    },
    {
      "midi": 55,
      "hit": false,
      "t": 174782.36399999968,
      "d": 1141.3027500000026,
      "v": 108
    },
    {
      "midi": 59,
      "hit": false,
      "t": 174782.36399999968,
      "d": 1141.3027500000026,
      "v": 108
    },
    {
      "midi": 64,
      "hit": false,
      "t": 174782.36399999968,
      "d": 1141.3027500000026,
      "v": 108
    },
    {
      "midi": 40,
      "hit": false,
      "t": 174782.36399999977,
      "d": 543.4775000000081,
      "v": 75
    },
    {
      "midi": 40,
      "hit": false,
      "t": 174782.3639999998,
      "d": 543.4775000000081,
      "v": 92
    },
    {
      "midi": 42,
      "hit": false,
      "t": 174945.40724999233,
      "d": 156.24978124999325,
      "v": 45
    },
    {
      "midi": 44,
      "hit": false,
      "t": 175108.45049999232,
      "d": 156.24978124999325,
      "v": 45
    },
    {
      "midi": 36,
      "hit": false,
      "t": 175271.4937499923,
      "d": 156.24978124999325,
      "v": 45
    },
    {
      "midi": 42,
      "hit": false,
      "t": 175271.4937499923,
      "d": 156.24978124999325,
      "v": 45
    },
    {
      "midi": 38,
      "hit": false,
      "t": 175434.5369999923,
      "d": 156.24978124999325,
      "v": 45
    },
    {
      "midi": 44,
      "hit": false,
      "t": 175434.5369999923,
      "d": 156.24978124999325,
      "v": 45
    },
    {
      "midi": 42,
      "hit": false,
      "t": 175597.5802499923,
      "d": 156.24978124999325,
      "v": 45
    },
    {
      "midi": 44,
      "hit": false,
      "t": 175760.62349999227,
      "d": 156.24978124999325,
      "v": 45
    },
    {
      "midi": 40,
      "hit": false,
      "t": 175760.62349999978,
      "d": 156.24978124999325,
      "v": 75
    },
    {
      "midi": 40,
      "hit": false,
      "t": 175760.6234999998,
      "d": 156.24978124999325,
      "v": 92
    },
    {
      "midi": 36,
      "hit": false,
      "t": 175923.66674999226,
      "d": 156.24978124999325,
      "v": 45
    },
    {
      "midi": 46,
      "hit": false,
      "t": 175923.66674999226,
      "d": 156.24978124999325,
      "v": 45
    },
    {
      "midi": 40,
      "hit": false,
      "t": 175923.66674999977,
      "d": 156.24978124999325,
      "v": 75
    },
    {
      "midi": 40,
      "hit": false,
      "t": 175923.6667499998,
      "d": 156.24978124999325,
      "v": 92
    },
    {
      "midi": 42,
      "hit": false,
      "t": 176086.70999999225,
      "d": 156.24978124999325,
      "v": 45
    },
    {
      "midi": 64,
      "hit": false,
      "t": 176086.70999999967,
      "d": 482.33628124999814,
      "v": 108
    },
    {
      "midi": 44,
      "hit": false,
      "t": 176249.75324999224,
      "d": 156.24978124999325,
      "v": 45
    },
    {
      "midi": 36,
      "hit": false,
      "t": 176412.79649999223,
      "d": 156.24978124999325,
      "v": 45
    },
    {
      "midi": 42,
      "hit": false,
      "t": 176412.79649999223,
      "d": 156.24978124999325,
      "v": 45
    },
    {
      "midi": 44,
      "hit": false,
      "t": 176575.8397499922,
      "d": 156.24978124999325,
      "v": 45
    },
    {
      "midi": 67,
      "hit": false,
      "t": 176575.83974999966,
      "d": 482.33628124999814,
      "v": 108
    },
    {
      "midi": 38,
      "hit": false,
      "t": 176738.8829999922,
      "d": 156.24978124999325,
      "v": 45
    },
    {
      "midi": 42,
      "hit": false,
      "t": 176738.8829999922,
      "d": 156.24978124999325,
      "v": 45
    },
    {
      "midi": 38,
      "hit": false,
      "t": 176738.88299999977,
      "d": 319.29303125001024,
      "v": 75
    },
    {
      "midi": 38,
      "hit": false,
      "t": 176738.8829999998,
      "d": 319.29303125001024,
      "v": 92
    },
    {
      "midi": 44,
      "hit": false,
      "t": 176901.9262499922,
      "d": 156.24978124999325,
      "v": 45
    },
    {
      "midi": 42,
      "hit": false,
      "t": 177064.96949999218,
      "d": 156.24978124999325,
      "v": 45
    },
    {
      "midi": 71,
      "hit": false,
      "t": 177064.96949999966,
      "d": 319.29303125001024,
      "v": 108
    },
    {
      "midi": 37,
      "hit": false,
      "t": 177064.96949999977,
      "d": 319.29303125001024,
      "v": 75
    },
    {
      "midi": 37,
      "hit": false,
      "t": 177064.9694999998,
      "d": 319.29303125001024,
      "v": 92
    },
    {
      "midi": 44,
      "hit": false,
      "t": 177228.01274999217,
      "d": 156.24978124999325,
      "v": 45
    },
    {
      "midi": 36,
      "hit": false,
      "t": 177391.05599999215,
      "d": 156.24978124999325,
      "v": 63
    },
    {
      "midi": 46,
      "hit": false,
      "t": 177391.05599999215,
      "d": 156.24978124999325,
      "v": 63
    },
    {
      "midi": 64,
      "hit": false,
      "t": 177391.05599999966,
      "d": 1793.4757500000123,
      "v": 108
    },
    {
      "midi": 67,
      "hit": false,
      "t": 177391.05599999966,
      "d": 1793.4757500000123,
      "v": 108
    },
    {
      "midi": 70,
      "hit": false,
      "t": 177391.05599999966,
      "d": 1793.4757500000123,
      "v": 108
    },
    {
      "midi": 36,
      "hit": false,
      "t": 177391.05599999978,
      "d": 543.4775000000081,
      "v": 75
    },
    {
      "midi": 36,
      "hit": false,
      "t": 177391.0559999998,
      "d": 543.4775000000081,
      "v": 92
    },
    {
      "midi": 42,
      "hit": false,
      "t": 177554.09924999214,
      "d": 156.24978124999325,
      "v": 45
    },
    {
      "midi": 44,
      "hit": false,
      "t": 177717.14249999213,
      "d": 156.24978124999325,
      "v": 45
    },
    {
      "midi": 36,
      "hit": false,
      "t": 177880.18574999212,
      "d": 156.24978124999325,
      "v": 45
    },
    {
      "midi": 42,
      "hit": false,
      "t": 177880.18574999212,
      "d": 156.24978124999325,
      "v": 45
    },
    {
      "midi": 38,
      "hit": false,
      "t": 178043.2289999921,
      "d": 156.24978124999325,
      "v": 45
    },
    {
      "midi": 44,
      "hit": false,
      "t": 178043.2289999921,
      "d": 156.24978124999325,
      "v": 45
    },
    {
      "midi": 42,
      "hit": false,
      "t": 178206.2722499921,
      "d": 156.24978124999325,
      "v": 45
    },
    {
      "midi": 44,
      "hit": false,
      "t": 178369.31549999208,
      "d": 156.24978124999325,
      "v": 45
    },
    {
      "midi": 36,
      "hit": false,
      "t": 178369.3154999998,
      "d": 156.24978124999325,
      "v": 75
    },
    {
      "midi": 36,
      "hit": false,
      "t": 178369.31549999982,
      "d": 156.24978124999325,
      "v": 92
    },
    {
      "midi": 36,
      "hit": false,
      "t": 178532.35874999207,
      "d": 156.24978124999325,
      "v": 45
    },
    {
      "midi": 46,
      "hit": false,
      "t": 178532.35874999207,
      "d": 156.24978124999325,
      "v": 45
    },
    {
      "midi": 36,
      "hit": false,
      "t": 178532.35874999978,
      "d": 156.24978124999325,
      "v": 75
    },
    {
      "midi": 36,
      "hit": false,
      "t": 178532.3587499998,
      "d": 156.24978124999325,
      "v": 92
    },
    {
      "midi": 42,
      "hit": false,
      "t": 178695.40199999206,
      "d": 156.24978124999325,
      "v": 45
    },
    {
      "midi": 44,
      "hit": false,
      "t": 178858.44524999204,
      "d": 156.24978124999325,
      "v": 45
    },
    {
      "midi": 36,
      "hit": false,
      "t": 179021.48849999203,
      "d": 156.24978124999325,
      "v": 45
    },
    {
      "midi": 42,
      "hit": false,
      "t": 179021.48849999203,
      "d": 156.24978124999325,
      "v": 45
    },
    {
      "midi": 44,
      "hit": false,
      "t": 179184.53174999202,
      "d": 156.24978124999325,
      "v": 45
    },
    {
      "midi": 38,
      "hit": false,
      "t": 179347.574999992,
      "d": 156.24978124999325,
      "v": 45
    },
    {
      "midi": 42,
      "hit": false,
      "t": 179347.574999992,
      "d": 156.24978124999325,
      "v": 45
    },
    {
      "midi": 70,
      "hit": false,
      "t": 179347.57499999966,
      "d": 543.4775000000081,
      "v": 108
    },
    {
      "midi": 44,
      "hit": false,
      "t": 179510.618249992,
      "d": 156.24978124999325,
      "v": 45
    },
    {
      "midi": 42,
      "hit": false,
      "t": 179673.66149999198,
      "d": 156.24978124999325,
      "v": 45
    },
    {
      "midi": 36,
      "hit": false,
      "t": 179673.66149999978,
      "d": 319.29303125001024,
      "v": 75
    },
    {
      "midi": 36,
      "hit": false,
      "t": 179673.6614999998,
      "d": 319.29303125001024,
      "v": 92
    },
    {
      "midi": 44,
      "hit": false,
      "t": 179836.70474999197,
      "d": 156.24978124999325,
      "v": 45
    },
    {
      "midi": 36,
      "hit": false,
      "t": 179999.74799999196,
      "d": 156.24978124999325,
      "v": 63
    },
    {
      "midi": 46,
      "hit": false,
      "t": 179999.74799999196,
      "d": 156.24978124999325,
      "v": 63
    },
    {
      "midi": 64,
      "hit": false,
      "t": 179999.74799999967,
      "d": 1141.3027500000026,
      "v": 108
    },
    {
      "midi": 67,
      "hit": false,
      "t": 179999.74799999967,
      "d": 1141.3027500000026,
      "v": 108
    },
    {
      "midi": 71,
      "hit": false,
      "t": 179999.74799999967,
      "d": 1141.3027500000026,
      "v": 108
    },
    {
      "midi": 40,
      "hit": false,
      "t": 179999.7479999998,
      "d": 543.4775000000081,
      "v": 75
    },
    {
      "midi": 40,
      "hit": false,
      "t": 179999.74799999982,
      "d": 543.4775000000081,
      "v": 92
    },
    {
      "midi": 42,
      "hit": false,
      "t": 180162.79124999195,
      "d": 156.24978124999325,
      "v": 45
    },
    {
      "midi": 44,
      "hit": false,
      "t": 180325.83449999194,
      "d": 156.24978124999325,
      "v": 45
    },
    {
      "midi": 36,
      "hit": false,
      "t": 180488.87774999192,
      "d": 156.24978124999325,
      "v": 45
    },
    {
      "midi": 42,
      "hit": false,
      "t": 180488.87774999192,
      "d": 156.24978124999325,
      "v": 45
    },
    {
      "midi": 38,
      "hit": false,
      "t": 180651.9209999919,
      "d": 156.24978124999325,
      "v": 45
    },
    {
      "midi": 44,
      "hit": false,
      "t": 180651.9209999919,
      "d": 156.24978124999325,
      "v": 45
    },
    {
      "midi": 42,
      "hit": false,
      "t": 180814.9642499919,
      "d": 156.24978124999325,
      "v": 45
    },
    {
      "midi": 44,
      "hit": false,
      "t": 180978.0074999919,
      "d": 156.24978124999325,
      "v": 45
    },
    {
      "midi": 40,
      "hit": false,
      "t": 180978.0074999998,
      "d": 156.24978124999325,
      "v": 75
    },
    {
      "midi": 40,
      "hit": false,
      "t": 180978.00749999983,
      "d": 156.24978124999325,
      "v": 92
    },
    {
      "midi": 36,
      "hit": false,
      "t": 181141.05074999187,
      "d": 156.24978124999325,
      "v": 45
    },
    {
      "midi": 46,
      "hit": false,
      "t": 181141.05074999187,
      "d": 156.24978124999325,
      "v": 45
    },
    {
      "midi": 40,
      "hit": false,
      "t": 181141.0507499998,
      "d": 156.24978124999325,
      "v": 75
    },
    {
      "midi": 40,
      "hit": false,
      "t": 181141.05074999982,
      "d": 156.24978124999325,
      "v": 92
    },
    {
      "midi": 42,
      "hit": false,
      "t": 181304.09399999186,
      "d": 156.24978124999325,
      "v": 45
    },
    {
      "midi": 59,
      "hit": false,
      "t": 181304.09399999966,
      "d": 482.33628124999814,
      "v": 92
    },
    {
      "midi": 44,
      "hit": false,
      "t": 181467.13724999185,
      "d": 156.24978124999325,
      "v": 45
    },
    {
      "midi": 36,
      "hit": false,
      "t": 181630.18049999184,
      "d": 156.24978124999325,
      "v": 45
    },
    {
      "midi": 42,
      "hit": false,
      "t": 181630.18049999184,
      "d": 156.24978124999325,
      "v": 45
    },
    {
      "midi": 44,
      "hit": false,
      "t": 181793.22374999183,
      "d": 156.24978124999325,
      "v": 45
    },
    {
      "midi": 64,
      "hit": false,
      "t": 181793.22374999966,
      "d": 482.33628124999814,
      "v": 92
    },
    {
      "midi": 38,
      "hit": false,
      "t": 181956.2669999918,
      "d": 156.24978124999325,
      "v": 45
    },
    {
      "midi": 42,
      "hit": false,
      "t": 181956.2669999918,
      "d": 156.24978124999325,
      "v": 45
    },
    {
      "midi": 44,
      "hit": false,
      "t": 182119.3102499918,
      "d": 156.24978124999325,
      "v": 45
    },
    {
      "midi": 42,
      "hit": false,
      "t": 182282.3534999918,
      "d": 156.24978124999325,
      "v": 45
    },
    {
      "midi": 67,
      "hit": false,
      "t": 182282.35349999965,
      "d": 319.29303125001024,
      "v": 92
    },
    {
      "midi": 40,
      "hit": false,
      "t": 182282.3534999998,
      "d": 319.29303125001024,
      "v": 75
    },
    {
      "midi": 40,
      "hit": false,
      "t": 182282.35349999982,
      "d": 319.29303125001024,
      "v": 92
    },
    {
      "midi": 44,
      "hit": false,
      "t": 182445.39674999178,
      "d": 156.24978124999325,
      "v": 45
    },
    {
      "midi": 36,
      "hit": false,
      "t": 182608.43999999177,
      "d": 156.24978124999325,
      "v": 63
    },
    {
      "midi": 46,
      "hit": false,
      "t": 182608.43999999177,
      "d": 156.24978124999325,
      "v": 63
    },
    {
      "midi": 63,
      "hit": false,
      "t": 182608.43999999965,
      "d": 1141.3027500000026,
      "v": 92
    },
    {
      "midi": 66,
      "hit": false,
      "t": 182608.43999999965,
      "d": 1141.3027500000026,
      "v": 92
    },
    {
      "midi": 69,
      "hit": false,
      "t": 182608.43999999965,
      "d": 1141.3027500000026,
      "v": 92
    },
    {
      "midi": 48,
      "hit": false,
      "t": 182608.4399999998,
      "d": 543.4775000000081,
      "v": 75
    },
    {
      "midi": 48,
      "hit": false,
      "t": 182608.43999999983,
      "d": 543.4775000000081,
      "v": 92
    },
    {
      "midi": 42,
      "hit": false,
      "t": 182771.48324999175,
      "d": 156.24978124999325,
      "v": 45
    },
    {
      "midi": 44,
      "hit": false,
      "t": 182934.52649999174,
      "d": 156.24978124999325,
      "v": 45
    },
    {
      "midi": 36,
      "hit": false,
      "t": 183097.56974999173,
      "d": 156.24978124999325,
      "v": 45
    },
    {
      "midi": 42,
      "hit": false,
      "t": 183097.56974999173,
      "d": 156.24978124999325,
      "v": 45
    },
    {
      "midi": 38,
      "hit": false,
      "t": 183260.61299999172,
      "d": 156.24978124999325,
      "v": 45
    },
    {
      "midi": 44,
      "hit": false,
      "t": 183260.61299999172,
      "d": 156.24978124999325,
      "v": 45
    },
    {
      "midi": 42,
      "hit": false,
      "t": 183423.6562499917,
      "d": 156.24978124999325,
      "v": 45
    },
    {
      "midi": 44,
      "hit": false,
      "t": 183586.6994999917,
      "d": 156.24978124999325,
      "v": 45
    },
    {
      "midi": 48,
      "hit": false,
      "t": 183586.6994999998,
      "d": 156.24978124999325,
      "v": 75
    },
    {
      "midi": 48,
      "hit": false,
      "t": 183586.69949999984,
      "d": 156.24978124999325,
      "v": 92
    },
    {
      "midi": 36,
      "hit": false,
      "t": 183749.74274999168,
      "d": 156.24978124999325,
      "v": 45
    },
    {
      "midi": 46,
      "hit": false,
      "t": 183749.74274999168,
      "d": 156.24978124999325,
      "v": 45
    },
    {
      "midi": 48,
      "hit": false,
      "t": 183749.7427499998,
      "d": 156.24978124999325,
      "v": 75
    },
    {
      "midi": 48,
      "hit": false,
      "t": 183749.74274999983,
      "d": 156.24978124999325,
      "v": 92
    },
    {
      "midi": 42,
      "hit": false,
      "t": 183912.78599999167,
      "d": 156.24978124999325,
      "v": 45
    },
    {
      "midi": 63,
      "hit": false,
      "t": 183912.78599999964,
      "d": 978.2594999999856,
      "v": 127
    },
    {
      "midi": 69,
      "hit": false,
      "t": 183912.78599999964,
      "d": 978.2594999999856,
      "v": 127
    },
    {
      "midi": 72,
      "hit": false,
      "t": 183912.78599999964,
      "d": 978.2594999999856,
      "v": 127
    },
    {
      "midi": 44,
      "hit": false,
      "t": 184075.82924999166,
      "d": 156.24978124999325,
      "v": 45
    },
    {
      "midi": 36,
      "hit": false,
      "t": 184238.87249999164,
      "d": 156.24978124999325,
      "v": 45
    },
    {
      "midi": 42,
      "hit": false,
      "t": 184238.87249999164,
      "d": 156.24978124999325,
      "v": 45
    },
    {
      "midi": 44,
      "hit": false,
      "t": 184401.91574999163,
      "d": 156.24978124999325,
      "v": 45
    },
    {
      "midi": 38,
      "hit": false,
      "t": 184564.95899999162,
      "d": 156.24978124999325,
      "v": 45
    },
    {
      "midi": 42,
      "hit": false,
      "t": 184564.95899999162,
      "d": 156.24978124999325,
      "v": 45
    },
    {
      "midi": 48,
      "hit": false,
      "t": 184564.9589999998,
      "d": 319.29303125001024,
      "v": 75
    },
    {
      "midi": 48,
      "hit": false,
      "t": 184564.95899999983,
      "d": 319.29303125001024,
      "v": 92
    },
    {
      "midi": 44,
      "hit": false,
      "t": 184728.0022499916,
      "d": 156.24978124999325,
      "v": 45
    },
    {
      "midi": 42,
      "hit": false,
      "t": 184891.0454999916,
      "d": 156.24978124999325,
      "v": 45
    },
    {
      "midi": 69,
      "hit": false,
      "t": 184891.04549999963,
      "d": 319.29303125001024,
      "v": 127
    },
    {
      "midi": 44,
      "hit": false,
      "t": 185054.08874999158,
      "d": 156.24978124999325,
      "v": 45
    },
    {
      "midi": 36,
      "hit": false,
      "t": 185217.13199999157,
      "d": 156.24978124999325,
      "v": 63
    },
    {
      "midi": 46,
      "hit": false,
      "t": 185217.13199999157,
      "d": 156.24978124999325,
      "v": 63
    },
    {
      "midi": 64,
      "hit": false,
      "t": 185217.13199999963,
      "d": 1141.3027500000026,
      "v": 127
    },
    {
      "midi": 67,
      "hit": false,
      "t": 185217.13199999963,
      "d": 1141.3027500000026,
      "v": 127
    },
    {
      "midi": 40,
      "hit": false,
      "t": 185217.1319999998,
      "d": 543.4775000000081,
      "v": 75
    },
    {
      "midi": 40,
      "hit": false,
      "t": 185217.13199999984,
      "d": 543.4775000000081,
      "v": 92
    },
    {
      "midi": 42,
      "hit": false,
      "t": 185380.17524999156,
      "d": 156.24978124999325,
      "v": 45
    },
    {
      "midi": 44,
      "hit": false,
      "t": 185543.21849999155,
      "d": 156.24978124999325,
      "v": 45
    },
    {
      "midi": 36,
      "hit": false,
      "t": 185706.26174999154,
      "d": 156.24978124999325,
      "v": 45
    },
    {
      "midi": 42,
      "hit": false,
      "t": 185706.26174999154,
      "d": 156.24978124999325,
      "v": 45
    },
    {
      "midi": 38,
      "hit": false,
      "t": 185869.30499999152,
      "d": 156.24978124999325,
      "v": 45
    },
    {
      "midi": 44,
      "hit": false,
      "t": 185869.30499999152,
      "d": 156.24978124999325,
      "v": 45
    },
    {
      "midi": 42,
      "hit": false,
      "t": 186032.3482499915,
      "d": 156.24978124999325,
      "v": 45
    },
    {
      "midi": 44,
      "hit": false,
      "t": 186195.3914999915,
      "d": 156.24978124999325,
      "v": 45
    },
    {
      "midi": 40,
      "hit": false,
      "t": 186195.39149999982,
      "d": 156.24978124999325,
      "v": 75
    },
    {
      "midi": 40,
      "hit": false,
      "t": 186195.39149999985,
      "d": 156.24978124999325,
      "v": 92
    },
    {
      "midi": 36,
      "hit": false,
      "t": 186358.4347499915,
      "d": 156.24978124999325,
      "v": 45
    },
    {
      "midi": 46,
      "hit": false,
      "t": 186358.4347499915,
      "d": 156.24978124999325,
      "v": 45
    },
    {
      "midi": 40,
      "hit": false,
      "t": 186358.4347499998,
      "d": 156.24978124999325,
      "v": 75
    },
    {
      "midi": 40,
      "hit": false,
      "t": 186358.43474999984,
      "d": 156.24978124999325,
      "v": 92
    },
    {
      "midi": 42,
      "hit": false,
      "t": 186521.47799999148,
      "d": 156.24978124999325,
      "v": 45
    },
    {
      "midi": 64,
      "hit": false,
      "t": 186521.47799999962,
      "d": 482.33628124999814,
      "v": 127
    },
    {
      "midi": 44,
      "hit": false,
      "t": 186684.52124999146,
      "d": 156.24978124999325,
      "v": 45
    },
    {
      "midi": 36,
      "hit": false,
      "t": 186847.56449999145,
      "d": 156.24978124999325,
      "v": 45
    },
    {
      "midi": 42,
      "hit": false,
      "t": 186847.56449999145,
      "d": 156.24978124999325,
      "v": 45
    },
    {
      "midi": 44,
      "hit": false,
      "t": 187010.60774999144,
      "d": 156.24978124999325,
      "v": 45
    },
    {
      "midi": 67,
      "hit": false,
      "t": 187010.60774999962,
      "d": 482.33628124999814,
      "v": 127
    },
    {
      "midi": 38,
      "hit": false,
      "t": 187173.65099999143,
      "d": 156.24978124999325,
      "v": 45
    },
    {
      "midi": 42,
      "hit": false,
      "t": 187173.65099999143,
      "d": 156.24978124999325,
      "v": 45
    },
    {
      "midi": 38,
      "hit": false,
      "t": 187173.6509999998,
      "d": 319.29303125001024,
      "v": 75
    },
    {
      "midi": 38,
      "hit": false,
      "t": 187173.65099999984,
      "d": 319.29303125001024,
      "v": 92
    },
    {
      "midi": 44,
      "hit": false,
      "t": 187336.69424999141,
      "d": 156.24978124999325,
      "v": 45
    },
    {
      "midi": 42,
      "hit": false,
      "t": 187499.7374999914,
      "d": 156.24978124999325,
      "v": 45
    },
    {
      "midi": 71,
      "hit": false,
      "t": 187499.7374999996,
      "d": 319.29303125001024,
      "v": 127
    },
    {
      "midi": 37,
      "hit": false,
      "t": 187499.7374999998,
      "d": 319.29303125001024,
      "v": 75
    },
    {
      "midi": 37,
      "hit": false,
      "t": 187499.73749999984,
      "d": 319.29303125001024,
      "v": 92
    },
    {
      "midi": 44,
      "hit": false,
      "t": 187662.7807499914,
      "d": 156.24978124999325,
      "v": 45
    },
    {
      "midi": 36,
      "hit": false,
      "t": 187825.82399999138,
      "d": 156.24978124999325,
      "v": 63
    },
    {
      "midi": 46,
      "hit": false,
      "t": 187825.82399999138,
      "d": 156.24978124999325,
      "v": 63
    },
    {
      "midi": 64,
      "hit": false,
      "t": 187825.82399999961,
      "d": 1304.3459999999905,
      "v": 127
    },
    {
      "midi": 67,
      "hit": false,
      "t": 187825.82399999961,
      "d": 1304.3459999999905,
      "v": 127
    },
    {
      "midi": 70,
      "hit": false,
      "t": 187825.82399999961,
      "d": 1304.3459999999905,
      "v": 127
    },
    {
      "midi": 36,
      "hit": false,
      "t": 187825.82399999982,
      "d": 543.4775000000081,
      "v": 75
    },
    {
      "midi": 36,
      "hit": false,
      "t": 187825.82399999985,
      "d": 543.4775000000081,
      "v": 92
    },
    {
      "midi": 42,
      "hit": false,
      "t": 187988.86724999137,
      "d": 156.24978124999325,
      "v": 45
    },
    {
      "midi": 44,
      "hit": false,
      "t": 188151.91049999135,
      "d": 156.24978124999325,
      "v": 45
    },
    {
      "midi": 36,
      "hit": false,
      "t": 188314.95374999134,
      "d": 156.24978124999325,
      "v": 45
    },
    {
      "midi": 42,
      "hit": false,
      "t": 188314.95374999134,
      "d": 156.24978124999325,
      "v": 45
    },
    {
      "midi": 38,
      "hit": false,
      "t": 188477.99699999133,
      "d": 156.24978124999325,
      "v": 45
    },
    {
      "midi": 44,
      "hit": false,
      "t": 188477.99699999133,
      "d": 156.24978124999325,
      "v": 45
    },
    {
      "midi": 42,
      "hit": false,
      "t": 188641.04024999132,
      "d": 156.24978124999325,
      "v": 45
    },
    {
      "midi": 44,
      "hit": false,
      "t": 188804.0834999913,
      "d": 156.24978124999325,
      "v": 45
    },
    {
      "midi": 36,
      "hit": false,
      "t": 188804.08349999983,
      "d": 156.24978124999325,
      "v": 75
    },
    {
      "midi": 36,
      "hit": false,
      "t": 188804.08349999986,
      "d": 156.24978124999325,
      "v": 92
    },
    {
      "midi": 36,
      "hit": false,
      "t": 188967.1267499913,
      "d": 156.24978124999325,
      "v": 45
    },
    {
      "midi": 46,
      "hit": false,
      "t": 188967.1267499913,
      "d": 156.24978124999325,
      "v": 45
    },
    {
      "midi": 36,
      "hit": false,
      "t": 188967.12674999982,
      "d": 156.24978124999325,
      "v": 75
    },
    {
      "midi": 36,
      "hit": false,
      "t": 188967.12674999985,
      "d": 156.24978124999325,
      "v": 92
    },
    {
      "midi": 42,
      "hit": false,
      "t": 189130.16999999128,
      "d": 156.24978124999325,
      "v": 45
    },
    {
      "midi": 44,
      "hit": false,
      "t": 189293.21324999127,
      "d": 156.24978124999325,
      "v": 45
    },
    {
      "midi": 36,
      "hit": false,
      "t": 189456.25649999126,
      "d": 156.24978124999325,
      "v": 45
    },
    {
      "midi": 42,
      "hit": false,
      "t": 189456.25649999126,
      "d": 156.24978124999325,
      "v": 45
    },
    {
      "midi": 44,
      "hit": false,
      "t": 189619.29974999125,
      "d": 156.24978124999325,
      "v": 45
    },
    {
      "midi": 38,
      "hit": false,
      "t": 189782.34299999123,
      "d": 156.24978124999325,
      "v": 45
    },
    {
      "midi": 42,
      "hit": false,
      "t": 189782.34299999123,
      "d": 156.24978124999325,
      "v": 45
    },
    {
      "midi": 44,
      "hit": false,
      "t": 189945.38624999122,
      "d": 156.24978124999325,
      "v": 45
    },
    {
      "midi": 42,
      "hit": false,
      "t": 190108.4294999912,
      "d": 156.24978124999325,
      "v": 45
    },
    {
      "midi": 36,
      "hit": false,
      "t": 190108.42949999982,
      "d": 319.29303125001024,
      "v": 75
    },
    {
      "midi": 36,
      "hit": false,
      "t": 190108.42949999985,
      "d": 319.29303125001024,
      "v": 92
    },
    {
      "midi": 44,
      "hit": false,
      "t": 190271.4727499912,
      "d": 156.24978124999325,
      "v": 45
    },
    {
      "midi": 36,
      "hit": false,
      "t": 190434.51599999118,
      "d": 156.24978124999325,
      "v": 63
    },
    {
      "midi": 46,
      "hit": false,
      "t": 190434.51599999118,
      "d": 156.24978124999325,
      "v": 63
    },
    {
      "midi": 64,
      "hit": false,
      "t": 190434.5159999996,
      "d": 3749.9947500000126,
      "v": 127
    },
    {
      "midi": 67,
      "hit": false,
      "t": 190434.5159999996,
      "d": 3749.9947500000126,
      "v": 127
    },
    {
      "midi": 71,
      "hit": false,
      "t": 190434.5159999996,
      "d": 3749.9947500000126,
      "v": 127
    },
    {
      "midi": 40,
      "hit": false,
      "t": 190434.51599999983,
      "d": 543.4775000000081,
      "v": 75
    },
    {
      "midi": 40,
      "hit": false,
      "t": 190434.51599999986,
      "d": 543.4775000000081,
      "v": 92
    },
    {
      "midi": 42,
      "hit": false,
      "t": 190597.55924999117,
      "d": 156.24978124999325,
      "v": 45
    },
    {
      "midi": 44,
      "hit": false,
      "t": 190760.60249999116,
      "d": 156.24978124999325,
      "v": 45
    },
    {
      "midi": 67,
      "hit": false,
      "t": 190760.60249999835,
      "d": 319.29303125001024,
      "v": 45
    },
    {
      "midi": 36,
      "hit": false,
      "t": 190923.64574999115,
      "d": 156.24978124999325,
      "v": 45
    },
    {
      "midi": 42,
      "hit": false,
      "t": 190923.64574999115,
      "d": 156.24978124999325,
      "v": 45
    },
    {
      "midi": 38,
      "hit": false,
      "t": 191086.68899999114,
      "d": 156.24978124999325,
      "v": 45
    },
    {
      "midi": 44,
      "hit": false,
      "t": 191086.68899999114,
      "d": 156.24978124999325,
      "v": 45
    },
    {
      "midi": 66,
      "hit": false,
      "t": 191086.68899999835,
      "d": 319.29303125001024,
      "v": 45
    },
    {
      "midi": 42,
      "hit": false,
      "t": 191249.73224999112,
      "d": 156.24978124999325,
      "v": 45
    },
    {
      "midi": 44,
      "hit": false,
      "t": 191412.7754999911,
      "d": 156.24978124999325,
      "v": 45
    },
    {
      "midi": 67,
      "hit": false,
      "t": 191412.77549999836,
      "d": 156.24978124999325,
      "v": 45
    },
    {
      "midi": 40,
      "hit": false,
      "t": 191412.77549999984,
      "d": 156.24978124999325,
      "v": 75
    },
    {
      "midi": 40,
      "hit": false,
      "t": 191412.77549999987,
      "d": 156.24978124999325,
      "v": 92
    },
    {
      "midi": 36,
      "hit": false,
      "t": 191575.8187499911,
      "d": 156.24978124999325,
      "v": 45
    },
    {
      "midi": 46,
      "hit": false,
      "t": 191575.8187499911,
      "d": 156.24978124999325,
      "v": 45
    },
    {
      "midi": 69,
      "hit": false,
      "t": 191575.81874999835,
      "d": 156.24978124999325,
      "v": 45
    },
    {
      "midi": 40,
      "hit": false,
      "t": 191575.81874999983,
      "d": 156.24978124999325,
      "v": 75
    },
    {
      "midi": 40,
      "hit": false,
      "t": 191575.81874999986,
      "d": 156.24978124999325,
      "v": 92
    },
    {
      "midi": 42,
      "hit": false,
      "t": 191738.8619999911,
      "d": 156.24978124999325,
      "v": 45
    },
    {
      "midi": 71,
      "hit": false,
      "t": 191738.86199999833,
      "d": 319.29303125001024,
      "v": 45
    },
    {
      "midi": 44,
      "hit": false,
      "t": 191901.90524999108,
      "d": 156.24978124999325,
      "v": 45
    },
    {
      "midi": 36,
      "hit": false,
      "t": 192064.94849999106,
      "d": 156.24978124999325,
      "v": 45
    },
    {
      "midi": 42,
      "hit": false,
      "t": 192064.94849999106,
      "d": 156.24978124999325,
      "v": 45
    },
    {
      "midi": 69,
      "hit": false,
      "t": 192064.94849999834,
      "d": 156.24978124999325,
      "v": 45
    },
    {
      "midi": 44,
      "hit": false,
      "t": 192227.99174999105,
      "d": 156.24978124999325,
      "v": 45
    },
    {
      "midi": 67,
      "hit": false,
      "t": 192227.99174999833,
      "d": 156.24978124999325,
      "v": 45
    },
    {
      "midi": 38,
      "hit": false,
      "t": 192391.03499999104,
      "d": 156.24978124999325,
      "v": 45
    },
    {
      "midi": 42,
      "hit": false,
      "t": 192391.03499999104,
      "d": 156.24978124999325,
      "v": 45
    },
    {
      "midi": 69,
      "hit": false,
      "t": 192391.03499999832,
      "d": 319.29303125001024,
      "v": 45
    },
    {
      "midi": 44,
      "hit": false,
      "t": 192554.07824999103,
      "d": 156.24978124999325,
      "v": 45
    },
    {
      "midi": 42,
      "hit": false,
      "t": 192717.12149999102,
      "d": 156.24978124999325,
      "v": 45
    },
    {
      "midi": 66,
      "hit": false,
      "t": 192717.12149999832,
      "d": 156.24978124999325,
      "v": 45
    },
    {
      "midi": 40,
      "hit": false,
      "t": 192717.12149999983,
      "d": 319.29303125001024,
      "v": 75
    },
    {
      "midi": 40,
      "hit": false,
      "t": 192717.12149999986,
      "d": 319.29303125001024,
      "v": 92
    },
    {
      "midi": 44,
      "hit": false,
      "t": 192880.164749991,
      "d": 156.24978124999325,
      "v": 45
    },
    {
      "midi": 69,
      "hit": false,
      "t": 192880.1647499983,
      "d": 156.24978124999325,
      "v": 45
    },
    {
      "midi": 36,
      "hit": false,
      "t": 193043.207999991,
      "d": 156.24978124999325,
      "v": 63
    },
    {
      "midi": 46,
      "hit": false,
      "t": 193043.207999991,
      "d": 156.24978124999325,
      "v": 63
    },
    {
      "midi": 67,
      "hit": false,
      "t": 193043.2079999983,
      "d": 319.29303125001024,
      "v": 45
    },
    {
      "midi": 40,
      "hit": false,
      "t": 193043.20799999984,
      "d": 543.4775000000081,
      "v": 75
    },
    {
      "midi": 40,
      "hit": false,
      "t": 193043.20799999987,
      "d": 543.4775000000081,
      "v": 92
    },
    {
      "midi": 42,
      "hit": false,
      "t": 193206.25124999098,
      "d": 156.24978124999325,
      "v": 45
    },
    {
      "midi": 44,
      "hit": false,
      "t": 193369.29449999097,
      "d": 156.24978124999325,
      "v": 45
    },
    {
      "midi": 66,
      "hit": false,
      "t": 193369.2944999983,
      "d": 156.24978124999325,
      "v": 45
    },
    {
      "midi": 36,
      "hit": false,
      "t": 193532.33774999095,
      "d": 156.24978124999325,
      "v": 45
    },
    {
      "midi": 42,
      "hit": false,
      "t": 193532.33774999095,
      "d": 156.24978124999325,
      "v": 45
    },
    {
      "midi": 64,
      "hit": false,
      "t": 193532.3377499983,
      "d": 156.24978124999325,
      "v": 45
    },
    {
      "midi": 38,
      "hit": false,
      "t": 193695.38099999094,
      "d": 156.24978124999325,
      "v": 45
    },
    {
      "midi": 44,
      "hit": false,
      "t": 193695.38099999094,
      "d": 156.24978124999325,
      "v": 45
    },
    {
      "midi": 66,
      "hit": false,
      "t": 193695.38099999828,
      "d": 319.29303125001024,
      "v": 45
    },
    {
      "midi": 42,
      "hit": false,
      "t": 193858.42424999093,
      "d": 156.24978124999325,
      "v": 45
    },
    {
      "midi": 44,
      "hit": false,
      "t": 194021.46749999092,
      "d": 156.24978124999325,
      "v": 45
    },
    {
      "midi": 62,
      "hit": false,
      "t": 194021.46749999828,
      "d": 319.29303125001024,
      "v": 45
    },
    {
      "midi": 42,
      "hit": false,
      "t": 194021.46749999985,
      "d": 319.29303125001024,
      "v": 75
    },
    {
      "midi": 42,
      "hit": false,
      "t": 194021.46749999988,
      "d": 319.29303125001024,
      "v": 92
    },
    {
      "midi": 36,
      "hit": false,
      "t": 194184.5107499909,
      "d": 156.24978124999325,
      "v": 45
    },
    {
      "midi": 46,
      "hit": false,
      "t": 194184.5107499909,
      "d": 156.24978124999325,
      "v": 45
    },
    {
      "midi": 42,
      "hit": false,
      "t": 194347.5539999909,
      "d": 156.24978124999325,
      "v": 45
    },
    {
      "midi": 64,
      "hit": false,
      "t": 194347.5539999983,
      "d": 652.1730000000098,
      "v": 45
    },
    {
      "midi": 59,
      "hit": false,
      "t": 194347.5539999996,
      "d": 482.33628124999814,
      "v": 127
    },
    {
      "midi": 43,
      "hit": false,
      "t": 194347.55399999986,
      "d": 543.4775000000081,
      "v": 75
    },
    {
      "midi": 43,
      "hit": false,
      "t": 194347.5539999999,
      "d": 543.4775000000081,
      "v": 92
    },
    {
      "midi": 44,
      "hit": false,
      "t": 194510.59724999088,
      "d": 156.24978124999325,
      "v": 45
    },
    {
      "midi": 36,
      "hit": false,
      "t": 194673.64049999087,
      "d": 156.24978124999325,
      "v": 45
    },
    {
      "midi": 42,
      "hit": false,
      "t": 194673.64049999087,
      "d": 156.24978124999325,
      "v": 45
    },
    {
      "midi": 44,
      "hit": false,
      "t": 194836.68374999086,
      "d": 156.24978124999325,
      "v": 45
    },
    {
      "midi": 64,
      "hit": false,
      "t": 194836.6837499996,
      "d": 482.33628124999814,
      "v": 127
    },
    {
      "midi": 38,
      "hit": false,
      "t": 194999.72699999085,
      "d": 156.24978124999325,
      "v": 45
    },
    {
      "midi": 42,
      "hit": false,
      "t": 194999.72699999085,
      "d": 156.24978124999325,
      "v": 45
    },
    {
      "midi": 64,
      "hit": false,
      "t": 194999.7269999983,
      "d": 543.4775000000081,
      "v": 45
    },
    {
      "midi": 47,
      "hit": false,
      "t": 194999.72699999987,
      "d": 543.4775000000081,
      "v": 75
    },
    {
      "midi": 47,
      "hit": false,
      "t": 194999.7269999999,
      "d": 543.4775000000081,
      "v": 92
    },
    {
      "midi": 44,
      "hit": false,
      "t": 195162.77024999083,
      "d": 156.24978124999325,
      "v": 45
    },
    {
      "midi": 42,
      "hit": false,
      "t": 195325.81349999082,
      "d": 156.24978124999325,
      "v": 45
    },
    {
      "midi": 67,
      "hit": false,
      "t": 195325.81349999958,
      "d": 319.29303125001024,
      "v": 127
    },
    {
      "midi": 44,
      "hit": false,
      "t": 195488.8567499908,
      "d": 156.24978124999325,
      "v": 45
    },
    {
      "midi": 36,
      "hit": false,
      "t": 195651.8999999908,
      "d": 156.24978124999325,
      "v": 63
    },
    {
      "midi": 46,
      "hit": false,
      "t": 195651.8999999908,
      "d": 156.24978124999325,
      "v": 63
    },
    {
      "midi": 63,
      "hit": false,
      "t": 195651.8999999996,
      "d": 1141.3027500000026,
      "v": 127
    },
    {
      "midi": 66,
      "hit": false,
      "t": 195651.8999999996,
      "d": 1141.3027500000026,
      "v": 127
    },
    {
      "midi": 69,
      "hit": false,
      "t": 195651.8999999996,
      "d": 1141.3027500000026,
      "v": 127
    },
    {
      "midi": 48,
      "hit": false,
      "t": 195651.89999999988,
      "d": 543.4775000000081,
      "v": 75
    },
    {
      "midi": 48,
      "hit": false,
      "t": 195651.8999999999,
      "d": 543.4775000000081,
      "v": 92
    },
    {
      "midi": 67,
      "hit": false,
      "t": 195651.89999999994,
      "d": 543.4775000000081,
      "v": 30
    },
    {
      "midi": 71,
      "hit": false,
      "t": 195651.89999999994,
      "d": 543.4775000000081,
      "v": 30
    },
    {
      "midi": 42,
      "hit": false,
      "t": 195814.94324999079,
      "d": 156.24978124999325,
      "v": 45
    },
    {
      "midi": 44,
      "hit": false,
      "t": 195977.98649999077,
      "d": 156.24978124999325,
      "v": 45
    },
    {
      "midi": 36,
      "hit": false,
      "t": 196141.02974999076,
      "d": 156.24978124999325,
      "v": 45
    },
    {
      "midi": 42,
      "hit": false,
      "t": 196141.02974999076,
      "d": 156.24978124999325,
      "v": 45
    },
    {
      "midi": 38,
      "hit": false,
      "t": 196304.07299999075,
      "d": 156.24978124999325,
      "v": 45
    },
    {
      "midi": 44,
      "hit": false,
      "t": 196304.07299999075,
      "d": 156.24978124999325,
      "v": 45
    },
    {
      "midi": 76,
      "hit": false,
      "t": 196304.07299999995,
      "d": 543.4775000000081,
      "v": 30
    },
    {
      "midi": 79,
      "hit": false,
      "t": 196304.07299999995,
      "d": 543.4775000000081,
      "v": 30
    },
    {
      "midi": 42,
      "hit": false,
      "t": 196467.11624999074,
      "d": 156.24978124999325,
      "v": 45
    },
    {
      "midi": 44,
      "hit": false,
      "t": 196630.15949999072,
      "d": 156.24978124999325,
      "v": 45
    },
    {
      "midi": 48,
      "hit": false,
      "t": 196630.1594999999,
      "d": 156.24978124999325,
      "v": 75
    },
    {
      "midi": 48,
      "hit": false,
      "t": 196630.15949999992,
      "d": 156.24978124999325,
      "v": 92
    },
    {
      "midi": 36,
      "hit": false,
      "t": 196793.2027499907,
      "d": 156.24978124999325,
      "v": 45
    },
    {
      "midi": 46,
      "hit": false,
      "t": 196793.2027499907,
      "d": 156.24978124999325,
      "v": 45
    },
    {
      "midi": 48,
      "hit": false,
      "t": 196793.20274999988,
      "d": 156.24978124999325,
      "v": 75
    },
    {
      "midi": 48,
      "hit": false,
      "t": 196793.2027499999,
      "d": 156.24978124999325,
      "v": 92
    },
    {
      "midi": 42,
      "hit": false,
      "t": 196956.2459999907,
      "d": 156.24978124999325,
      "v": 45
    },
    {
      "midi": 66,
      "hit": false,
      "t": 196956.24599999958,
      "d": 869.564000000013,
      "v": 127
    },
    {
      "midi": 67,
      "hit": false,
      "t": 196956.24599999996,
      "d": 543.4775000000081,
      "v": 30
    },
    {
      "midi": 71,
      "hit": false,
      "t": 196956.24599999996,
      "d": 543.4775000000081,
      "v": 30
    },
    {
      "midi": 44,
      "hit": false,
      "t": 197119.2892499907,
      "d": 156.24978124999325,
      "v": 45
    },
    {
      "midi": 36,
      "hit": false,
      "t": 197282.33249999068,
      "d": 156.24978124999325,
      "v": 45
    },
    {
      "midi": 42,
      "hit": false,
      "t": 197282.33249999068,
      "d": 156.24978124999325,
      "v": 45
    },
    {
      "midi": 44,
      "hit": false,
      "t": 197445.37574999066,
      "d": 156.24978124999325,
      "v": 45
    },
    {
      "midi": 38,
      "hit": false,
      "t": 197608.41899999065,
      "d": 156.24978124999325,
      "v": 45
    },
    {
      "midi": 42,
      "hit": false,
      "t": 197608.41899999065,
      "d": 156.24978124999325,
      "v": 45
    },
    {
      "midi": 48,
      "hit": false,
      "t": 197608.41899999988,
      "d": 319.29303125001024,
      "v": 75
    },
    {
      "midi": 48,
      "hit": false,
      "t": 197608.4189999999,
      "d": 319.29303125001024,
      "v": 92
    },
    {
      "midi": 69,
      "hit": false,
      "t": 197608.41899999997,
      "d": 543.4775000000081,
      "v": 30
    },
    {
      "midi": 72,
      "hit": false,
      "t": 197608.41899999997,
      "d": 543.4775000000081,
      "v": 30
    },
    {
      "midi": 44,
      "hit": false,
      "t": 197771.46224999064,
      "d": 156.24978124999325,
      "v": 45
    },
    {
      "midi": 42,
      "hit": false,
      "t": 197934.50549999063,
      "d": 156.24978124999325,
      "v": 45
    },
    {
      "midi": 67,
      "hit": false,
      "t": 197934.5054999996,
      "d": 319.29303125001024,
      "v": 127
    },
    {
      "midi": 44,
      "hit": false,
      "t": 198097.54874999062,
      "d": 156.24978124999325,
      "v": 45
    },
    {
      "midi": 36,
      "hit": false,
      "t": 198260.5919999906,
      "d": 156.24978124999325,
      "v": 63
    },
    {
      "midi": 46,
      "hit": false,
      "t": 198260.5919999906,
      "d": 156.24978124999325,
      "v": 63
    },
    {
      "midi": 63,
      "hit": false,
      "t": 198260.5919999996,
      "d": 1793.4757500000123,
      "v": 127
    },
    {
      "midi": 66,
      "hit": false,
      "t": 198260.5919999996,
      "d": 1793.4757500000123,
      "v": 127
    },
    {
      "midi": 47,
      "hit": false,
      "t": 198260.5919999999,
      "d": 543.4775000000081,
      "v": 75
    },
    {
      "midi": 47,
      "hit": false,
      "t": 198260.59199999992,
      "d": 543.4775000000081,
      "v": 92
    },
    {
      "midi": 66,
      "hit": false,
      "t": 198260.59199999998,
      "d": 1141.3027500000026,
      "v": 30
    },
    {
      "midi": 69,
      "hit": false,
      "t": 198260.59199999998,
      "d": 1141.3027500000026,
      "v": 30
    },
    {
      "midi": 42,
      "hit": false,
      "t": 198423.6352499906,
      "d": 156.24978124999325,
      "v": 45
    },
    {
      "midi": 44,
      "hit": false,
      "t": 198586.67849999058,
      "d": 156.24978124999325,
      "v": 45
    },
    {
      "midi": 36,
      "hit": false,
      "t": 198749.72174999057,
      "d": 156.24978124999325,
      "v": 45
    },
    {
      "midi": 42,
      "hit": false,
      "t": 198749.72174999057,
      "d": 156.24978124999325,
      "v": 45
    },
    {
      "midi": 38,
      "hit": false,
      "t": 198912.76499999056,
      "d": 156.24978124999325,
      "v": 45
    },
    {
      "midi": 44,
      "hit": false,
      "t": 198912.76499999056,
      "d": 156.24978124999325,
      "v": 45
    },
    {
      "midi": 42,
      "hit": false,
      "t": 199075.80824999054,
      "d": 156.24978124999325,
      "v": 45
    },
    {
      "midi": 44,
      "hit": false,
      "t": 199238.85149999053,
      "d": 156.24978124999325,
      "v": 45
    },
    {
      "midi": 47,
      "hit": false,
      "t": 199238.8514999999,
      "d": 156.24978124999325,
      "v": 75
    },
    {
      "midi": 47,
      "hit": false,
      "t": 199238.85149999993,
      "d": 156.24978124999325,
      "v": 92
    },
    {
      "midi": 36,
      "hit": false,
      "t": 199401.89474999052,
      "d": 156.24978124999325,
      "v": 45
    },
    {
      "midi": 46,
      "hit": false,
      "t": 199401.89474999052,
      "d": 156.24978124999325,
      "v": 45
    },
    {
      "midi": 47,
      "hit": false,
      "t": 199401.8947499999,
      "d": 156.24978124999325,
      "v": 75
    },
    {
      "midi": 47,
      "hit": false,
      "t": 199401.89474999992,
      "d": 156.24978124999325,
      "v": 92
    },
    {
      "midi": 42,
      "hit": false,
      "t": 199564.9379999905,
      "d": 156.24978124999325,
      "v": 45
    },
    {
      "midi": 44,
      "hit": false,
      "t": 199727.9812499905,
      "d": 156.24978124999325,
      "v": 45
    },
    {
      "midi": 36,
      "hit": false,
      "t": 199891.02449999048,
      "d": 156.24978124999325,
      "v": 45
    },
    {
      "midi": 42,
      "hit": false,
      "t": 199891.02449999048,
      "d": 156.24978124999325,
      "v": 45
    },
    {
      "midi": 44,
      "hit": false,
      "t": 200054.06774999047,
      "d": 156.24978124999325,
      "v": 45
    },
    {
      "midi": 38,
      "hit": false,
      "t": 200217.11099999046,
      "d": 156.24978124999325,
      "v": 45
    },
    {
      "midi": 42,
      "hit": false,
      "t": 200217.11099999046,
      "d": 156.24978124999325,
      "v": 45
    },
    {
      "midi": 47,
      "hit": false,
      "t": 200217.1109999999,
      "d": 156.24978124999325,
      "v": 75
    },
    {
      "midi": 47,
      "hit": false,
      "t": 200217.11099999992,
      "d": 156.24978124999325,
      "v": 92
    },
    {
      "midi": 44,
      "hit": false,
      "t": 200380.15424999045,
      "d": 156.24978124999325,
      "v": 45
    },
    {
      "midi": 45,
      "hit": false,
      "t": 200380.15424999988,
      "d": 156.24978124999325,
      "v": 75
    },
    {
      "midi": 45,
      "hit": false,
      "t": 200380.1542499999,
      "d": 156.24978124999325,
      "v": 92
    },
    {
      "midi": 42,
      "hit": false,
      "t": 200543.19749999043,
      "d": 156.24978124999325,
      "v": 45
    },
    {
      "midi": 67,
      "hit": false,
      "t": 200543.1974999996,
      "d": 319.29303125001024,
      "v": 127
    },
    {
      "midi": 42,
      "hit": false,
      "t": 200543.19749999986,
      "d": 319.29303125001024,
      "v": 75
    },
    {
      "midi": 42,
      "hit": false,
      "t": 200543.1974999999,
      "d": 319.29303125001024,
      "v": 92
    },
    {
      "midi": 44,
      "hit": false,
      "t": 200706.24074999042,
      "d": 156.24978124999325,
      "v": 45
    },
    {
      "midi": 36,
      "hit": false,
      "t": 200869.2839999904,
      "d": 156.24978124999325,
      "v": 63
    },
    {
      "midi": 46,
      "hit": false,
      "t": 200869.2839999904,
      "d": 156.24978124999325,
      "v": 63
    },
    {
      "midi": 66,
      "hit": false,
      "t": 200869.2839999996,
      "d": 482.33628124999814,
      "v": 127
    },
    {
      "midi": 40,
      "hit": false,
      "t": 200869.28399999987,
      "d": 543.4775000000081,
      "v": 75
    },
    {
      "midi": 40,
      "hit": false,
      "t": 200869.2839999999,
      "d": 543.4775000000081,
      "v": 92
    },
    {
      "midi": 42,
      "hit": false,
      "t": 201032.3272499904,
      "d": 156.24978124999325,
      "v": 45
    },
    {
      "midi": 44,
      "hit": false,
      "t": 201195.3704999904,
      "d": 156.24978124999325,
      "v": 45
    },
    {
      "midi": 36,
      "hit": false,
      "t": 201358.41374999037,
      "d": 156.24978124999325,
      "v": 45
    },
    {
      "midi": 42,
      "hit": false,
      "t": 201358.41374999037,
      "d": 156.24978124999325,
      "v": 45
    },
    {
      "midi": 64,
      "hit": false,
      "t": 201358.4137499996,
      "d": 1304.3459999999905,
      "v": 127
    },
    {
      "midi": 38,
      "hit": false,
      "t": 201521.45699999036,
      "d": 156.24978124999325,
      "v": 45
    },
    {
      "midi": 44,
      "hit": false,
      "t": 201521.45699999036,
      "d": 156.24978124999325,
      "v": 45
    },
    {
      "midi": 42,
      "hit": false,
      "t": 201684.50024999035,
      "d": 156.24978124999325,
      "v": 45
    },
    {
      "midi": 44,
      "hit": false,
      "t": 201847.54349999034,
      "d": 156.24978124999325,
      "v": 45
    },
    {
      "midi": 67,
      "hit": false,
      "t": 201847.5434999983,
      "d": 319.29303125001024,
      "v": 45
    },
    {
      "midi": 40,
      "hit": false,
      "t": 201847.54349999988,
      "d": 319.29303125001024,
      "v": 75
    },
    {
      "midi": 40,
      "hit": false,
      "t": 201847.5434999999,
      "d": 319.29303125001024,
      "v": 92
    },
    {
      "midi": 36,
      "hit": false,
      "t": 202010.58674999033,
      "d": 156.24978124999325,
      "v": 45
    },
    {
      "midi": 46,
      "hit": false,
      "t": 202010.58674999033,
      "d": 156.24978124999325,
      "v": 45
    },
    {
      "midi": 42,
      "hit": false,
      "t": 202173.6299999903,
      "d": 156.24978124999325,
      "v": 45
    },
    {
      "midi": 66,
      "hit": false,
      "t": 202173.62999999832,
      "d": 482.33628124999814,
      "v": 45
    },
    {
      "midi": 44,
      "hit": false,
      "t": 202336.6732499903,
      "d": 156.24978124999325,
      "v": 45
    },
    {
      "midi": 36,
      "hit": false,
      "t": 202499.7164999903,
      "d": 156.24978124999325,
      "v": 45
    },
    {
      "midi": 42,
      "hit": false,
      "t": 202499.7164999903,
      "d": 156.24978124999325,
      "v": 45
    },
    {
      "midi": 44,
      "hit": false,
      "t": 202662.75974999028,
      "d": 156.24978124999325,
      "v": 45
    },
    {
      "midi": 64,
      "hit": false,
      "t": 202662.7597499983,
      "d": 808.422781250003,
      "v": 45
    },
    {
      "midi": 38,
      "hit": false,
      "t": 202825.80299999026,
      "d": 156.24978124999325,
      "v": 45
    },
    {
      "midi": 42,
      "hit": false,
      "t": 202825.80299999026,
      "d": 156.24978124999325,
      "v": 45
    },
    {
      "midi": 44,
      "hit": false,
      "t": 202988.84624999025,
      "d": 156.24978124999325,
      "v": 45
    },
    {
      "midi": 42,
      "hit": false,
      "t": 203151.88949999024,
      "d": 156.24978124999325,
      "v": 45
    },
    {
      "midi": 79,
      "hit": false,
      "t": 203151.88949999958,
      "d": 319.29303125001024,
      "v": 127
    },
    {
      "midi": 47,
      "hit": false,
      "t": 203151.8894999999,
      "d": 319.29303125001024,
      "v": 75
    },
    {
      "midi": 47,
      "hit": false,
      "t": 203151.88949999993,
      "d": 319.29303125001024,
      "v": 92
    },
    {
      "midi": 44,
      "hit": false,
      "t": 203314.93274999023,
      "d": 156.24978124999325,
      "v": 45
    },
    {
      "midi": 36,
      "hit": false,
      "t": 203477.97599999022,
      "d": 156.24978124999325,
      "v": 63
    },
    {
      "midi": 46,
      "hit": false,
      "t": 203477.97599999022,
      "d": 156.24978124999325,
      "v": 63
    },
    {
      "midi": 78,
      "hit": false,
      "t": 203477.9759999996,
      "d": 482.33628124999814,
      "v": 127
    },
    {
      "midi": 40,
      "hit": false,
      "t": 203477.9759999999,
      "d": 543.4775000000081,
      "v": 75
    },
    {
      "midi": 40,
      "hit": false,
      "t": 203477.97599999994,
      "d": 543.4775000000081,
      "v": 92
    },
    {
      "midi": 42,
      "hit": false,
      "t": 203641.0192499902,
      "d": 156.24978124999325,
      "v": 45
    },
    {
      "midi": 44,
      "hit": false,
      "t": 203804.0624999902,
      "d": 156.24978124999325,
      "v": 45
    },
    {
      "midi": 36,
      "hit": false,
      "t": 203967.10574999018,
      "d": 156.24978124999325,
      "v": 45
    },
    {
      "midi": 42,
      "hit": false,
      "t": 203967.10574999018,
      "d": 156.24978124999325,
      "v": 45
    },
    {
      "midi": 76,
      "hit": false,
      "t": 203967.10574999958,
      "d": 1304.3459999999905,
      "v": 127
    },
    {
      "midi": 38,
      "hit": false,
      "t": 204130.14899999017,
      "d": 156.24978124999325,
      "v": 45
    },
    {
      "midi": 44,
      "hit": false,
      "t": 204130.14899999017,
      "d": 156.24978124999325,
      "v": 45
    },
    {
      "midi": 42,
      "hit": false,
      "t": 204293.19224999016,
      "d": 156.24978124999325,
      "v": 45
    },
    {
      "midi": 44,
      "hit": false,
      "t": 204456.23549999014,
      "d": 156.24978124999325,
      "v": 45
    },
    {
      "midi": 79,
      "hit": false,
      "t": 204456.23549999832,
      "d": 319.29303125001024,
      "v": 45
    },
    {
      "midi": 40,
      "hit": false,
      "t": 204456.23549999992,
      "d": 319.29303125001024,
      "v": 75
    },
    {
      "midi": 40,
      "hit": false,
      "t": 204456.23549999995,
      "d": 319.29303125001024,
      "v": 92
    },
    {
      "midi": 36,
      "hit": false,
      "t": 204619.27874999013,
      "d": 156.24978124999325,
      "v": 45
    },
    {
      "midi": 46,
      "hit": false,
      "t": 204619.27874999013,
      "d": 156.24978124999325,
      "v": 45
    },
    {
      "midi": 42,
      "hit": false,
      "t": 204782.32199999012,
      "d": 156.24978124999325,
      "v": 45
    },
    {
      "midi": 78,
      "hit": false,
      "t": 204782.32199999833,
      "d": 482.33628124999814,
      "v": 45
    },
    {
      "midi": 44,
      "hit": false,
      "t": 204945.3652499901,
      "d": 156.24978124999325,
      "v": 45
    },
    {
      "midi": 36,
      "hit": false,
      "t": 205108.4084999901,
      "d": 156.24978124999325,
      "v": 45
    },
    {
      "midi": 42,
      "hit": false,
      "t": 205108.4084999901,
      "d": 156.24978124999325,
      "v": 45
    },
    {
      "midi": 44,
      "hit": false,
      "t": 205271.45174999008,
      "d": 156.24978124999325,
      "v": 45
    },
    {
      "midi": 76,
      "hit": false,
      "t": 205271.45174999832,
      "d": 706.520749999996,
      "v": 45
    },
    {
      "midi": 38,
      "hit": false,
      "t": 205434.49499999007,
      "d": 156.24978124999325,
      "v": 45
    },
    {
      "midi": 42,
      "hit": false,
      "t": 205434.49499999007,
      "d": 156.24978124999325,
      "v": 45
    },
    {
      "midi": 44,
      "hit": false,
      "t": 205597.53824999006,
      "d": 156.24978124999325,
      "v": 45
    },
    {
      "midi": 42,
      "hit": false,
      "t": 205760.58149999005,
      "d": 156.24978124999325,
      "v": 45
    },
    {
      "midi": 70,
      "hit": false,
      "t": 205760.58149999956,
      "d": 319.29303125001024,
      "v": 127
    },
    {
      "midi": 40,
      "hit": false,
      "t": 205760.58149999994,
      "d": 319.29303125001024,
      "v": 75
    },
    {
      "midi": 40,
      "hit": false,
      "t": 205760.58149999997,
      "d": 319.29303125001024,
      "v": 92
    },
    {
      "midi": 44,
      "hit": false,
      "t": 205923.62474999003,
      "d": 156.24978124999325,
      "v": 45
    },
    {
      "midi": 36,
      "hit": false,
      "t": 206086.66799999002,
      "d": 156.24978124999325,
      "v": 63
    },
    {
      "midi": 46,
      "hit": false,
      "t": 206086.66799999002,
      "d": 156.24978124999325,
      "v": 63
    },
    {
      "midi": 71,
      "hit": false,
      "t": 206086.66799999957,
      "d": 482.33628124999814,
      "v": 127
    },
    {
      "midi": 36,
      "hit": false,
      "t": 206086.66799999995,
      "d": 543.4775000000081,
      "v": 75
    },
    {
      "midi": 36,
      "hit": false,
      "t": 206086.66799999998,
      "d": 543.4775000000081,
      "v": 92
    },
    {
      "midi": 42,
      "hit": false,
      "t": 206249.71124999,
      "d": 156.24978124999325,
      "v": 45
    },
    {
      "midi": 44,
      "hit": false,
      "t": 206412.75449999,
      "d": 156.24978124999325,
      "v": 45
    },
    {
      "midi": 36,
      "hit": false,
      "t": 206575.79774999,
      "d": 156.24978124999325,
      "v": 45
    },
    {
      "midi": 42,
      "hit": false,
      "t": 206575.79774999,
      "d": 156.24978124999325,
      "v": 45
    },
    {
      "midi": 58,
      "hit": false,
      "t": 206575.79774999956,
      "d": 1304.3459999999905,
      "v": 127
    },
    {
      "midi": 64,
      "hit": false,
      "t": 206575.79774999956,
      "d": 1304.3459999999905,
      "v": 127
    },
    {
      "midi": 38,
      "hit": false,
      "t": 206738.84099998997,
      "d": 156.24978124999325,
      "v": 45
    },
    {
      "midi": 44,
      "hit": false,
      "t": 206738.84099998997,
      "d": 156.24978124999325,
      "v": 45
    },
    {
      "midi": 42,
      "hit": false,
      "t": 206901.88424998996,
      "d": 156.24978124999325,
      "v": 45
    },
    {
      "midi": 44,
      "hit": false,
      "t": 207064.92749998995,
      "d": 156.24978124999325,
      "v": 45
    },
    {
      "midi": 70,
      "hit": false,
      "t": 207064.9274999983,
      "d": 319.29303125001024,
      "v": 45
    },
    {
      "midi": 36,
      "hit": false,
      "t": 207064.92749999996,
      "d": 319.29303125001024,
      "v": 75
    },
    {
      "midi": 36,
      "hit": false,
      "t": 207064.9275,
      "d": 319.29303125001024,
      "v": 92
    },
    {
      "midi": 36,
      "hit": false,
      "t": 207227.97074998994,
      "d": 156.24978124999325,
      "v": 45
    },
    {
      "midi": 46,
      "hit": false,
      "t": 207227.97074998994,
      "d": 156.24978124999325,
      "v": 45
    },
    {
      "midi": 42,
      "hit": false,
      "t": 207391.01399998993,
      "d": 156.24978124999325,
      "v": 45
    },
    {
      "midi": 71,
      "hit": false,
      "t": 207391.0139999983,
      "d": 482.33628124999814,
      "v": 45
    },
    {
      "midi": 44,
      "hit": false,
      "t": 207554.0572499899,
      "d": 156.24978124999325,
      "v": 45
    },
    {
      "midi": 36,
      "hit": false,
      "t": 207717.1004999899,
      "d": 156.24978124999325,
      "v": 45
    },
    {
      "midi": 42,
      "hit": false,
      "t": 207717.1004999899,
      "d": 156.24978124999325,
      "v": 45
    },
    {
      "midi": 44,
      "hit": false,
      "t": 207880.1437499899,
      "d": 156.24978124999325,
      "v": 45
    },
    {
      "midi": 58,
      "hit": false,
      "t": 207880.1437499983,
      "d": 706.520749999996,
      "v": 45
    },
    {
      "midi": 64,
      "hit": false,
      "t": 207880.1437499983,
      "d": 706.520749999996,
      "v": 45
    },
    {
      "midi": 38,
      "hit": false,
      "t": 208043.18699998988,
      "d": 156.24978124999325,
      "v": 45
    },
    {
      "midi": 42,
      "hit": false,
      "t": 208043.18699998988,
      "d": 156.24978124999325,
      "v": 45
    },
    {
      "midi": 44,
      "hit": false,
      "t": 208206.23024998987,
      "d": 156.24978124999325,
      "v": 45
    },
    {
      "midi": 42,
      "hit": false,
      "t": 208369.27349998985,
      "d": 156.24978124999325,
      "v": 45
    },
    {
      "midi": 82,
      "hit": false,
      "t": 208369.27349999954,
      "d": 319.29303125001024,
      "v": 127
    },
    {
      "midi": 43,
      "hit": false,
      "t": 208369.27349999998,
      "d": 319.29303125001024,
      "v": 75
    },
    {
      "midi": 43,
      "hit": false,
      "t": 208369.2735,
      "d": 319.29303125001024,
      "v": 92
    },
    {
      "midi": 44,
      "hit": false,
      "t": 208532.31674998984,
      "d": 156.24978124999325,
      "v": 45
    },
    {
      "midi": 36,
      "hit": false,
      "t": 208695.35999998983,
      "d": 156.24978124999325,
      "v": 63
    },
    {
      "midi": 46,
      "hit": false,
      "t": 208695.35999998983,
      "d": 156.24978124999325,
      "v": 63
    },
    {
      "midi": 83,
      "hit": false,
      "t": 208695.35999999955,
      "d": 482.33628124999814,
      "v": 127
    },
    {
      "midi": 36,
      "hit": false,
      "t": 208695.36,
      "d": 543.4775000000081,
      "v": 75
    },
    {
      "midi": 36,
      "hit": false,
      "t": 208695.36000000002,
      "d": 543.4775000000081,
      "v": 92
    },
    {
      "midi": 42,
      "hit": false,
      "t": 208858.40324998982,
      "d": 156.24978124999325,
      "v": 45
    },
    {
      "midi": 44,
      "hit": false,
      "t": 209021.4464999898,
      "d": 156.24978124999325,
      "v": 45
    },
    {
      "midi": 36,
      "hit": false,
      "t": 209184.4897499898,
      "d": 156.24978124999325,
      "v": 45
    },
    {
      "midi": 42,
      "hit": false,
      "t": 209184.4897499898,
      "d": 156.24978124999325,
      "v": 45
    },
    {
      "midi": 70,
      "hit": false,
      "t": 209184.48974999954,
      "d": 1304.3459999999905,
      "v": 127
    },
    {
      "midi": 76,
      "hit": false,
      "t": 209184.48974999954,
      "d": 1304.3459999999905,
      "v": 127
    },
    {
      "midi": 38,
      "hit": false,
      "t": 209347.53299998978,
      "d": 156.24978124999325,
      "v": 45
    },
    {
      "midi": 44,
      "hit": false,
      "t": 209347.53299998978,
      "d": 156.24978124999325,
      "v": 45
    },
    {
      "midi": 42,
      "hit": false,
      "t": 209510.57624998977,
      "d": 156.24978124999325,
      "v": 45
    },
    {
      "midi": 44,
      "hit": false,
      "t": 209673.61949998976,
      "d": 156.24978124999325,
      "v": 45
    },
    {
      "midi": 82,
      "hit": false,
      "t": 209673.61949999828,
      "d": 319.29303125001024,
      "v": 45
    },
    {
      "midi": 36,
      "hit": false,
      "t": 209673.6195,
      "d": 319.29303125001024,
      "v": 75
    },
    {
      "midi": 36,
      "hit": false,
      "t": 209673.61950000003,
      "d": 319.29303125001024,
      "v": 92
    },
    {
      "midi": 36,
      "hit": false,
      "t": 209836.66274998974,
      "d": 156.24978124999325,
      "v": 45
    },
    {
      "midi": 46,
      "hit": false,
      "t": 209836.66274998974,
      "d": 156.24978124999325,
      "v": 45
    },
    {
      "midi": 42,
      "hit": false,
      "t": 209999.70599998973,
      "d": 156.24978124999325,
      "v": 45
    },
    {
      "midi": 83,
      "hit": false,
      "t": 209999.7059999983,
      "d": 482.33628124999814,
      "v": 45
    },
    {
      "midi": 44,
      "hit": false,
      "t": 210162.74924998972,
      "d": 156.24978124999325,
      "v": 45
    },
    {
      "midi": 36,
      "hit": false,
      "t": 210325.7924999897,
      "d": 156.24978124999325,
      "v": 45
    },
    {
      "midi": 42,
      "hit": false,
      "t": 210325.7924999897,
      "d": 156.24978124999325,
      "v": 45
    },
    {
      "midi": 44,
      "hit": false,
      "t": 210488.8357499897,
      "d": 156.24978124999325,
      "v": 45
    },
    {
      "midi": 70,
      "hit": false,
      "t": 210488.83574999828,
      "d": 706.520749999996,
      "v": 45
    },
    {
      "midi": 76,
      "hit": false,
      "t": 210488.83574999828,
      "d": 706.520749999996,
      "v": 45
    },
    {
      "midi": 38,
      "hit": false,
      "t": 210651.87899998968,
      "d": 156.24978124999325,
      "v": 45
    },
    {
      "midi": 42,
      "hit": false,
      "t": 210651.87899998968,
      "d": 156.24978124999325,
      "v": 45
    },
    {
      "midi": 44,
      "hit": false,
      "t": 210814.92224998967,
      "d": 156.24978124999325,
      "v": 45
    },
    {
      "midi": 42,
      "hit": false,
      "t": 210977.96549998966,
      "d": 156.24978124999325,
      "v": 45
    },
    {
      "midi": 67,
      "hit": false,
      "t": 210977.96549999953,
      "d": 319.29303125001024,
      "v": 127
    },
    {
      "midi": 38,
      "hit": false,
      "t": 210977.96550000002,
      "d": 319.29303125001024,
      "v": 75
    },
    {
      "midi": 38,
      "hit": false,
      "t": 210977.96550000005,
      "d": 319.29303125001024,
      "v": 92
    },
    {
      "midi": 44,
      "hit": false,
      "t": 211141.00874998965,
      "d": 156.24978124999325,
      "v": 45
    },
    {
      "midi": 36,
      "hit": false,
      "t": 211304.05199998964,
      "d": 156.24978124999325,
      "v": 63
    },
    {
      "midi": 46,
      "hit": false,
      "t": 211304.05199998964,
      "d": 156.24978124999325,
      "v": 63
    },
    {
      "midi": 66,
      "hit": false,
      "t": 211304.05199999953,
      "d": 482.33628124999814,
      "v": 127
    },
    {
      "midi": 40,
      "hit": false,
      "t": 211304.05200000003,
      "d": 543.4775000000081,
      "v": 75
    },
    {
      "midi": 40,
      "hit": false,
      "t": 211304.05200000005,
      "d": 543.4775000000081,
      "v": 92
    },
    {
      "midi": 42,
      "hit": false,
      "t": 211467.09524998962,
      "d": 156.24978124999325,
      "v": 45
    },
    {
      "midi": 44,
      "hit": false,
      "t": 211630.1384999896,
      "d": 156.24978124999325,
      "v": 45
    },
    {
      "midi": 36,
      "hit": false,
      "t": 211793.1817499896,
      "d": 156.24978124999325,
      "v": 45
    },
    {
      "midi": 42,
      "hit": false,
      "t": 211793.1817499896,
      "d": 156.24978124999325,
      "v": 45
    },
    {
      "midi": 64,
      "hit": false,
      "t": 211793.18174999952,
      "d": 1304.3459999999905,
      "v": 127
    },
    {
      "midi": 38,
      "hit": false,
      "t": 211956.2249999896,
      "d": 156.24978124999325,
      "v": 45
    },
    {
      "midi": 44,
      "hit": false,
      "t": 211956.2249999896,
      "d": 156.24978124999325,
      "v": 45
    },
    {
      "midi": 42,
      "hit": false,
      "t": 212119.26824998957,
      "d": 156.24978124999325,
      "v": 45
    },
    {
      "midi": 44,
      "hit": false,
      "t": 212282.31149998956,
      "d": 156.24978124999325,
      "v": 45
    },
    {
      "midi": 67,
      "hit": false,
      "t": 212282.31149999826,
      "d": 319.29303125001024,
      "v": 45
    },
    {
      "midi": 40,
      "hit": false,
      "t": 212282.31150000004,
      "d": 319.29303125001024,
      "v": 75
    },
    {
      "midi": 40,
      "hit": false,
      "t": 212282.31150000007,
      "d": 319.29303125001024,
      "v": 92
    },
    {
      "midi": 36,
      "hit": false,
      "t": 212445.35474998955,
      "d": 156.24978124999325,
      "v": 45
    },
    {
      "midi": 46,
      "hit": false,
      "t": 212445.35474998955,
      "d": 156.24978124999325,
      "v": 45
    },
    {
      "midi": 42,
      "hit": false,
      "t": 212608.39799998954,
      "d": 156.24978124999325,
      "v": 45
    },
    {
      "midi": 66,
      "hit": false,
      "t": 212608.39799999827,
      "d": 482.33628124999814,
      "v": 45
    },
    {
      "midi": 44,
      "hit": false,
      "t": 212771.44124998953,
      "d": 156.24978124999325,
      "v": 45
    },
    {
      "midi": 36,
      "hit": false,
      "t": 212934.4844999895,
      "d": 156.24978124999325,
      "v": 45
    },
    {
      "midi": 42,
      "hit": false,
      "t": 212934.4844999895,
      "d": 156.24978124999325,
      "v": 45
    },
    {
      "midi": 44,
      "hit": false,
      "t": 213097.5277499895,
      "d": 156.24978124999325,
      "v": 45
    },
    {
      "midi": 64,
      "hit": false,
      "t": 213097.52774999826,
      "d": 706.520749999996,
      "v": 45
    },
    {
      "midi": 38,
      "hit": false,
      "t": 213260.5709999895,
      "d": 156.24978124999325,
      "v": 45
    },
    {
      "midi": 42,
      "hit": false,
      "t": 213260.5709999895,
      "d": 156.24978124999325,
      "v": 45
    },
    {
      "midi": 44,
      "hit": false,
      "t": 213423.61424998948,
      "d": 156.24978124999325,
      "v": 45
    },
    {
      "midi": 42,
      "hit": false,
      "t": 213586.65749998947,
      "d": 156.24978124999325,
      "v": 45
    },
    {
      "midi": 79,
      "hit": false,
      "t": 213586.6574999995,
      "d": 319.29303125001024,
      "v": 127
    },
    {
      "midi": 47,
      "hit": false,
      "t": 213586.65750000006,
      "d": 319.29303125001024,
      "v": 75
    },
    {
      "midi": 47,
      "hit": false,
      "t": 213586.6575000001,
      "d": 319.29303125001024,
      "v": 92
    },
    {
      "midi": 44,
      "hit": false,
      "t": 213749.70074998945,
      "d": 156.24978124999325,
      "v": 45
    },
    {
      "midi": 36,
      "hit": false,
      "t": 213912.74399998944,
      "d": 156.24978124999325,
      "v": 63
    },
    {
      "midi": 46,
      "hit": false,
      "t": 213912.74399998944,
      "d": 156.24978124999325,
      "v": 63
    },
    {
      "midi": 78,
      "hit": false,
      "t": 213912.7439999995,
      "d": 482.33628124999814,
      "v": 127
    },
    {
      "midi": 40,
      "hit": false,
      "t": 213912.74400000006,
      "d": 543.4775000000081,
      "v": 75
    },
    {
      "midi": 40,
      "hit": false,
      "t": 213912.7440000001,
      "d": 543.4775000000081,
      "v": 92
    },
    {
      "midi": 42,
      "hit": false,
      "t": 214075.78724998943,
      "d": 156.24978124999325,
      "v": 45
    },
    {
      "midi": 44,
      "hit": false,
      "t": 214238.83049998942,
      "d": 156.24978124999325,
      "v": 45
    },
    {
      "midi": 36,
      "hit": false,
      "t": 214401.8737499894,
      "d": 156.24978124999325,
      "v": 45
    },
    {
      "midi": 42,
      "hit": false,
      "t": 214401.8737499894,
      "d": 156.24978124999325,
      "v": 45
    },
    {
      "midi": 76,
      "hit": false,
      "t": 214401.8737499995,
      "d": 1304.3459999999905,
      "v": 127
    },
    {
      "midi": 38,
      "hit": false,
      "t": 214564.9169999894,
      "d": 156.24978124999325,
      "v": 45
    },
    {
      "midi": 44,
      "hit": false,
      "t": 214564.9169999894,
      "d": 156.24978124999325,
      "v": 45
    },
    {
      "midi": 42,
      "hit": false,
      "t": 214727.96024998938,
      "d": 156.24978124999325,
      "v": 45
    },
    {
      "midi": 44,
      "hit": false,
      "t": 214891.00349998937,
      "d": 156.24978124999325,
      "v": 45
    },
    {
      "midi": 79,
      "hit": false,
      "t": 214891.00349999825,
      "d": 319.29303125001024,
      "v": 45
    },
    {
      "midi": 40,
      "hit": false,
      "t": 214891.00350000008,
      "d": 319.29303125001024,
      "v": 75
    },
    {
      "midi": 40,
      "hit": false,
      "t": 214891.0035000001,
      "d": 319.29303125001024,
      "v": 92
    },
    {
      "midi": 36,
      "hit": false,
      "t": 215054.04674998936,
      "d": 156.24978124999325,
      "v": 45
    },
    {
      "midi": 46,
      "hit": false,
      "t": 215054.04674998936,
      "d": 156.24978124999325,
      "v": 45
    },
    {
      "midi": 42,
      "hit": false,
      "t": 215217.08999998934,
      "d": 156.24978124999325,
      "v": 45
    },
    {
      "midi": 78,
      "hit": false,
      "t": 215217.08999999825,
      "d": 482.33628124999814,
      "v": 45
    },
    {
      "midi": 44,
      "hit": false,
      "t": 215380.13324998933,
      "d": 156.24978124999325,
      "v": 45
    },
    {
      "midi": 36,
      "hit": false,
      "t": 215543.17649998932,
      "d": 156.24978124999325,
      "v": 45
    },
    {
      "midi": 42,
      "hit": false,
      "t": 215543.17649998932,
      "d": 156.24978124999325,
      "v": 45
    },
    {
      "midi": 44,
      "hit": false,
      "t": 215706.2197499893,
      "d": 156.24978124999325,
      "v": 45
    },
    {
      "midi": 76,
      "hit": false,
      "t": 215706.21974999824,
      "d": 706.520749999996,
      "v": 45
    },
    {
      "midi": 38,
      "hit": false,
      "t": 215869.2629999893,
      "d": 156.24978124999325,
      "v": 45
    },
    {
      "midi": 42,
      "hit": false,
      "t": 215869.2629999893,
      "d": 156.24978124999325,
      "v": 45
    },
    {
      "midi": 44,
      "hit": false,
      "t": 216032.30624998928,
      "d": 156.24978124999325,
      "v": 45
    },
    {
      "midi": 42,
      "hit": false,
      "t": 216195.34949998927,
      "d": 156.24978124999325,
      "v": 45
    },
    {
      "midi": 70,
      "hit": false,
      "t": 216195.3494999995,
      "d": 319.29303125001024,
      "v": 127
    },
    {
      "midi": 40,
      "hit": false,
      "t": 216195.3495000001,
      "d": 319.29303125001024,
      "v": 75
    },
    {
      "midi": 40,
      "hit": false,
      "t": 216195.34950000013,
      "d": 319.29303125001024,
      "v": 92
    },
    {
      "midi": 44,
      "hit": false,
      "t": 216358.39274998926,
      "d": 156.24978124999325,
      "v": 45
    },
    {
      "midi": 36,
      "hit": false,
      "t": 216521.43599998925,
      "d": 156.24978124999325,
      "v": 63
    },
    {
      "midi": 46,
      "hit": false,
      "t": 216521.43599998925,
      "d": 156.24978124999325,
      "v": 63
    },
    {
      "midi": 71,
      "hit": false,
      "t": 216521.4359999995,
      "d": 482.33628124999814,
      "v": 127
    },
    {
      "midi": 36,
      "hit": false,
      "t": 216521.4360000001,
      "d": 543.4775000000081,
      "v": 75
    },
    {
      "midi": 36,
      "hit": false,
      "t": 216521.43600000013,
      "d": 543.4775000000081,
      "v": 92
    },
    {
      "midi": 42,
      "hit": false,
      "t": 216684.47924998924,
      "d": 156.24978124999325,
      "v": 45
    },
    {
      "midi": 44,
      "hit": false,
      "t": 216847.52249998922,
      "d": 156.24978124999325,
      "v": 45
    },
    {
      "midi": 36,
      "hit": false,
      "t": 217010.5657499892,
      "d": 156.24978124999325,
      "v": 45
    },
    {
      "midi": 42,
      "hit": false,
      "t": 217010.5657499892,
      "d": 156.24978124999325,
      "v": 45
    },
    {
      "midi": 58,
      "hit": false,
      "t": 217010.56574999948,
      "d": 1304.3459999999905,
      "v": 127
    },
    {
      "midi": 64,
      "hit": false,
      "t": 217010.56574999948,
      "d": 1304.3459999999905,
      "v": 127
    },
    {
      "midi": 38,
      "hit": false,
      "t": 217173.6089999892,
      "d": 156.24978124999325,
      "v": 45
    },
    {
      "midi": 44,
      "hit": false,
      "t": 217173.6089999892,
      "d": 156.24978124999325,
      "v": 45
    },
    {
      "midi": 42,
      "hit": false,
      "t": 217336.6522499892,
      "d": 156.24978124999325,
      "v": 45
    },
    {
      "midi": 44,
      "hit": false,
      "t": 217499.69549998918,
      "d": 156.24978124999325,
      "v": 45
    },
    {
      "midi": 70,
      "hit": false,
      "t": 217499.69549999823,
      "d": 319.29303125001024,
      "v": 45
    },
    {
      "midi": 36,
      "hit": false,
      "t": 217499.69550000012,
      "d": 319.29303125001024,
      "v": 75
    },
    {
      "midi": 36,
      "hit": false,
      "t": 217499.69550000015,
      "d": 319.29303125001024,
      "v": 92
    },
    {
      "midi": 36,
      "hit": false,
      "t": 217662.73874998916,
      "d": 156.24978124999325,
      "v": 45
    },
    {
      "midi": 46,
      "hit": false,
      "t": 217662.73874998916,
      "d": 156.24978124999325,
      "v": 45
    },
    {
      "midi": 42,
      "hit": false,
      "t": 217825.78199998915,
      "d": 156.24978124999325,
      "v": 45
    },
    {
      "midi": 71,
      "hit": false,
      "t": 217825.78199999823,
      "d": 482.33628124999814,
      "v": 45
    },
    {
      "midi": 44,
      "hit": false,
      "t": 217988.82524998914,
      "d": 156.24978124999325,
      "v": 45
    },
    {
      "midi": 36,
      "hit": false,
      "t": 218151.86849998913,
      "d": 156.24978124999325,
      "v": 45
    },
    {
      "midi": 42,
      "hit": false,
      "t": 218151.86849998913,
      "d": 156.24978124999325,
      "v": 45
    },
    {
      "midi": 44,
      "hit": false,
      "t": 218314.9117499891,
      "d": 156.24978124999325,
      "v": 45
    },
    {
      "midi": 58,
      "hit": false,
      "t": 218314.91174999822,
      "d": 706.520749999996,
      "v": 45
    },
    {
      "midi": 64,
      "hit": false,
      "t": 218314.91174999822,
      "d": 706.520749999996,
      "v": 45
    },
    {
      "midi": 38,
      "hit": false,
      "t": 218477.9549999891,
      "d": 156.24978124999325,
      "v": 45
    },
    {
      "midi": 42,
      "hit": false,
      "t": 218477.9549999891,
      "d": 156.24978124999325,
      "v": 45
    },
    {
      "midi": 44,
      "hit": false,
      "t": 218640.9982499891,
      "d": 156.24978124999325,
      "v": 45
    },
    {
      "midi": 42,
      "hit": false,
      "t": 218804.04149998908,
      "d": 156.24978124999325,
      "v": 45
    },
    {
      "midi": 82,
      "hit": false,
      "t": 218804.04149999947,
      "d": 319.29303125001024,
      "v": 127
    },
    {
      "midi": 43,
      "hit": false,
      "t": 218804.04150000014,
      "d": 319.29303125001024,
      "v": 75
    },
    {
      "midi": 43,
      "hit": false,
      "t": 218804.04150000017,
      "d": 319.29303125001024,
      "v": 92
    },
    {
      "midi": 44,
      "hit": false,
      "t": 218967.08474998907,
      "d": 156.24978124999325,
      "v": 45
    },
    {
      "midi": 36,
      "hit": false,
      "t": 219130.12799998905,
      "d": 156.24978124999325,
      "v": 63
    },
    {
      "midi": 46,
      "hit": false,
      "t": 219130.12799998905,
      "d": 156.24978124999325,
      "v": 63
    },
    {
      "midi": 83,
      "hit": false,
      "t": 219130.12799999947,
      "d": 482.33628124999814,
      "v": 127
    },
    {
      "midi": 36,
      "hit": false,
      "t": 219130.12800000014,
      "d": 543.4775000000081,
      "v": 75
    },
    {
      "midi": 36,
      "hit": false,
      "t": 219130.12800000017,
      "d": 543.4775000000081,
      "v": 92
    },
    {
      "midi": 42,
      "hit": false,
      "t": 219293.17124998904,
      "d": 156.24978124999325,
      "v": 45
    },
    {
      "midi": 44,
      "hit": false,
      "t": 219456.21449998903,
      "d": 156.24978124999325,
      "v": 45
    },
    {
      "midi": 36,
      "hit": false,
      "t": 219619.25774998902,
      "d": 156.24978124999325,
      "v": 45
    },
    {
      "midi": 42,
      "hit": false,
      "t": 219619.25774998902,
      "d": 156.24978124999325,
      "v": 45
    },
    {
      "midi": 70,
      "hit": false,
      "t": 219619.25774999947,
      "d": 1304.3459999999905,
      "v": 127
    },
    {
      "midi": 76,
      "hit": false,
      "t": 219619.25774999947,
      "d": 1304.3459999999905,
      "v": 127
    },
    {
      "midi": 38,
      "hit": false,
      "t": 219782.300999989,
      "d": 156.24978124999325,
      "v": 45
    },
    {
      "midi": 44,
      "hit": false,
      "t": 219782.300999989,
      "d": 156.24978124999325,
      "v": 45
    },
    {
      "midi": 42,
      "hit": false,
      "t": 219945.344249989,
      "d": 156.24978124999325,
      "v": 45
    },
    {
      "midi": 44,
      "hit": false,
      "t": 220108.38749998898,
      "d": 156.24978124999325,
      "v": 45
    },
    {
      "midi": 82,
      "hit": false,
      "t": 220108.3874999982,
      "d": 319.29303125001024,
      "v": 45
    },
    {
      "midi": 36,
      "hit": false,
      "t": 220108.38750000016,
      "d": 319.29303125001024,
      "v": 75
    },
    {
      "midi": 36,
      "hit": false,
      "t": 220108.3875000002,
      "d": 319.29303125001024,
      "v": 92
    },
    {
      "midi": 36,
      "hit": false,
      "t": 220271.43074998897,
      "d": 156.24978124999325,
      "v": 45
    },
    {
      "midi": 46,
      "hit": false,
      "t": 220271.43074998897,
      "d": 156.24978124999325,
      "v": 45
    },
    {
      "midi": 42,
      "hit": false,
      "t": 220434.47399998896,
      "d": 156.24978124999325,
      "v": 45
    },
    {
      "midi": 83,
      "hit": false,
      "t": 220434.4739999982,
      "d": 482.33628124999814,
      "v": 45
    },
    {
      "midi": 44,
      "hit": false,
      "t": 220597.51724998894,
      "d": 156.24978124999325,
      "v": 45
    },
    {
      "midi": 36,
      "hit": false,
      "t": 220760.56049998893,
      "d": 156.24978124999325,
      "v": 45
    },
    {
      "midi": 42,
      "hit": false,
      "t": 220760.56049998893,
      "d": 156.24978124999325,
      "v": 45
    },
    {
      "midi": 44,
      "hit": false,
      "t": 220923.60374998892,
      "d": 156.24978124999325,
      "v": 45
    },
    {
      "midi": 70,
      "hit": false,
      "t": 220923.6037499982,
      "d": 706.520749999996,
      "v": 45
    },
    {
      "midi": 76,
      "hit": false,
      "t": 220923.6037499982,
      "d": 706.520749999996,
      "v": 45
    },
    {
      "midi": 38,
      "hit": false,
      "t": 221086.6469999889,
      "d": 156.24978124999325,
      "v": 45
    },
    {
      "midi": 42,
      "hit": false,
      "t": 221086.6469999889,
      "d": 156.24978124999325,
      "v": 45
    },
    {
      "midi": 44,
      "hit": false,
      "t": 221249.6902499889,
      "d": 156.24978124999325,
      "v": 45
    },
    {
      "midi": 42,
      "hit": false,
      "t": 221412.73349998888,
      "d": 156.24978124999325,
      "v": 45
    },
    {
      "midi": 67,
      "hit": false,
      "t": 221412.73349999945,
      "d": 319.29303125001024,
      "v": 127
    },
    {
      "midi": 38,
      "hit": false,
      "t": 221412.73350000018,
      "d": 319.29303125001024,
      "v": 75
    },
    {
      "midi": 38,
      "hit": false,
      "t": 221412.7335000002,
      "d": 319.29303125001024,
      "v": 92
    },
    {
      "midi": 44,
      "hit": false,
      "t": 221575.77674998887,
      "d": 156.24978124999325,
      "v": 45
    },
    {
      "midi": 36,
      "hit": false,
      "t": 221738.81999998886,
      "d": 156.24978124999325,
      "v": 63
    },
    {
      "midi": 46,
      "hit": false,
      "t": 221738.81999998886,
      "d": 156.24978124999325,
      "v": 63
    },
    {
      "midi": 66,
      "hit": false,
      "t": 221738.81999999945,
      "d": 482.33628124999814,
      "v": 127
    },
    {
      "midi": 40,
      "hit": false,
      "t": 221738.82000000018,
      "d": 543.4775000000081,
      "v": 75
    },
    {
      "midi": 40,
      "hit": false,
      "t": 221738.8200000002,
      "d": 543.4775000000081,
      "v": 92
    },
    {
      "midi": 42,
      "hit": false,
      "t": 221901.86324998885,
      "d": 156.24978124999325,
      "v": 45
    },
    {
      "midi": 44,
      "hit": false,
      "t": 222064.90649998884,
      "d": 156.24978124999325,
      "v": 45
    },
    {
      "midi": 36,
      "hit": false,
      "t": 222227.94974998882,
      "d": 156.24978124999325,
      "v": 45
    },
    {
      "midi": 42,
      "hit": false,
      "t": 222227.94974998882,
      "d": 156.24978124999325,
      "v": 45
    },
    {
      "midi": 64,
      "hit": false,
      "t": 222227.94974999945,
      "d": 1304.3459999999905,
      "v": 127
    },
    {
      "midi": 38,
      "hit": false,
      "t": 222390.9929999888,
      "d": 156.24978124999325,
      "v": 45
    },
    {
      "midi": 44,
      "hit": false,
      "t": 222390.9929999888,
      "d": 156.24978124999325,
      "v": 45
    },
    {
      "midi": 42,
      "hit": false,
      "t": 222554.0362499888,
      "d": 156.24978124999325,
      "v": 45
    },
    {
      "midi": 44,
      "hit": false,
      "t": 222717.0794999888,
      "d": 156.24978124999325,
      "v": 45
    },
    {
      "midi": 67,
      "hit": false,
      "t": 222717.0794999982,
      "d": 319.29303125001024,
      "v": 45
    },
    {
      "midi": 40,
      "hit": false,
      "t": 222717.0795000002,
      "d": 319.29303125001024,
      "v": 75
    },
    {
      "midi": 40,
      "hit": false,
      "t": 222717.07950000023,
      "d": 319.29303125001024,
      "v": 92
    },
    {
      "midi": 36,
      "hit": false,
      "t": 222880.12274998878,
      "d": 156.24978124999325,
      "v": 45
    },
    {
      "midi": 46,
      "hit": false,
      "t": 222880.12274998878,
      "d": 156.24978124999325,
      "v": 45
    },
    {
      "midi": 42,
      "hit": false,
      "t": 223043.16599998876,
      "d": 156.24978124999325,
      "v": 45
    },
    {
      "midi": 66,
      "hit": false,
      "t": 223043.1659999982,
      "d": 482.33628124999814,
      "v": 45
    },
    {
      "midi": 44,
      "hit": false,
      "t": 223206.20924998875,
      "d": 156.24978124999325,
      "v": 45
    },
    {
      "midi": 36,
      "hit": false,
      "t": 223369.25249998874,
      "d": 156.24978124999325,
      "v": 45
    },
    {
      "midi": 42,
      "hit": false,
      "t": 223369.25249998874,
      "d": 156.24978124999325,
      "v": 45
    },
    {
      "midi": 44,
      "hit": false,
      "t": 223532.29574998873,
      "d": 156.24978124999325,
      "v": 45
    },
    {
      "midi": 64,
      "hit": false,
      "t": 223532.2957499982,
      "d": 706.520749999996,
      "v": 45
    },
    {
      "midi": 38,
      "hit": false,
      "t": 223695.33899998871,
      "d": 156.24978124999325,
      "v": 45
    },
    {
      "midi": 42,
      "hit": false,
      "t": 223695.33899998871,
      "d": 156.24978124999325,
      "v": 45
    },
    {
      "midi": 44,
      "hit": false,
      "t": 223858.3822499887,
      "d": 156.24978124999325,
      "v": 45
    },
    {
      "midi": 42,
      "hit": false,
      "t": 224021.4254999887,
      "d": 156.24978124999325,
      "v": 45
    },
    {
      "midi": 79,
      "hit": false,
      "t": 224021.42549999943,
      "d": 319.29303125001024,
      "v": 127
    },
    {
      "midi": 47,
      "hit": false,
      "t": 224021.42550000022,
      "d": 319.29303125001024,
      "v": 75
    },
    {
      "midi": 47,
      "hit": false,
      "t": 224021.42550000024,
      "d": 319.29303125001024,
      "v": 92
    },
    {
      "midi": 44,
      "hit": false,
      "t": 224184.46874998868,
      "d": 156.24978124999325,
      "v": 45
    },
    {
      "midi": 36,
      "hit": false,
      "t": 224347.51199998867,
      "d": 156.24978124999325,
      "v": 63
    },
    {
      "midi": 46,
      "hit": false,
      "t": 224347.51199998867,
      "d": 156.24978124999325,
      "v": 63
    },
    {
      "midi": 78,
      "hit": false,
      "t": 224347.51199999943,
      "d": 482.33628124999814,
      "v": 127
    },
    {
      "midi": 40,
      "hit": false,
      "t": 224347.51200000022,
      "d": 543.4775000000081,
      "v": 75
    },
    {
      "midi": 40,
      "hit": false,
      "t": 224347.51200000025,
      "d": 543.4775000000081,
      "v": 92
    },
    {
      "midi": 42,
      "hit": false,
      "t": 224510.55524998865,
      "d": 156.24978124999325,
      "v": 45
    },
    {
      "midi": 44,
      "hit": false,
      "t": 224673.59849998864,
      "d": 156.24978124999325,
      "v": 45
    },
    {
      "midi": 36,
      "hit": false,
      "t": 224836.64174998863,
      "d": 156.24978124999325,
      "v": 45
    },
    {
      "midi": 42,
      "hit": false,
      "t": 224836.64174998863,
      "d": 156.24978124999325,
      "v": 45
    },
    {
      "midi": 76,
      "hit": false,
      "t": 224836.64174999943,
      "d": 1304.3459999999905,
      "v": 127
    },
    {
      "midi": 38,
      "hit": false,
      "t": 224999.68499998862,
      "d": 156.24978124999325,
      "v": 45
    },
    {
      "midi": 44,
      "hit": false,
      "t": 224999.68499998862,
      "d": 156.24978124999325,
      "v": 45
    },
    {
      "midi": 42,
      "hit": false,
      "t": 225162.7282499886,
      "d": 156.24978124999325,
      "v": 45
    },
    {
      "midi": 44,
      "hit": false,
      "t": 225325.7714999886,
      "d": 156.24978124999325,
      "v": 45
    },
    {
      "midi": 79,
      "hit": false,
      "t": 225325.77149999817,
      "d": 319.29303125001024,
      "v": 45
    },
    {
      "midi": 40,
      "hit": false,
      "t": 225325.77150000024,
      "d": 319.29303125001024,
      "v": 75
    },
    {
      "midi": 40,
      "hit": false,
      "t": 225325.77150000026,
      "d": 319.29303125001024,
      "v": 92
    },
    {
      "midi": 36,
      "hit": false,
      "t": 225488.81474998858,
      "d": 156.24978124999325,
      "v": 45
    },
    {
      "midi": 46,
      "hit": false,
      "t": 225488.81474998858,
      "d": 156.24978124999325,
      "v": 45
    },
    {
      "midi": 42,
      "hit": false,
      "t": 225651.85799998857,
      "d": 156.24978124999325,
      "v": 45
    },
    {
      "midi": 78,
      "hit": false,
      "t": 225651.85799999817,
      "d": 482.33628124999814,
      "v": 45
    },
    {
      "midi": 44,
      "hit": false,
      "t": 225814.90124998856,
      "d": 156.24978124999325,
      "v": 45
    },
    {
      "midi": 36,
      "hit": false,
      "t": 225977.94449998855,
      "d": 156.24978124999325,
      "v": 45
    },
    {
      "midi": 42,
      "hit": false,
      "t": 225977.94449998855,
      "d": 156.24978124999325,
      "v": 45
    },
    {
      "midi": 44,
      "hit": false,
      "t": 226140.98774998853,
      "d": 156.24978124999325,
      "v": 45
    },
    {
      "midi": 76,
      "hit": false,
      "t": 226140.98774999817,
      "d": 706.520749999996,
      "v": 45
    },
    {
      "midi": 38,
      "hit": false,
      "t": 226304.03099998852,
      "d": 156.24978124999325,
      "v": 45
    },
    {
      "midi": 42,
      "hit": false,
      "t": 226304.03099998852,
      "d": 156.24978124999325,
      "v": 45
    },
    {
      "midi": 44,
      "hit": false,
      "t": 226467.0742499885,
      "d": 156.24978124999325,
      "v": 45
    },
    {
      "midi": 42,
      "hit": false,
      "t": 226630.1174999885,
      "d": 156.24978124999325,
      "v": 45
    },
    {
      "midi": 70,
      "hit": false,
      "t": 226630.1174999994,
      "d": 319.29303125001024,
      "v": 127
    },
    {
      "midi": 40,
      "hit": false,
      "t": 226630.11750000025,
      "d": 319.29303125001024,
      "v": 75
    },
    {
      "midi": 40,
      "hit": false,
      "t": 226630.11750000028,
      "d": 319.29303125001024,
      "v": 92
    },
    {
      "midi": 44,
      "hit": false,
      "t": 226793.16074998848,
      "d": 156.24978124999325,
      "v": 45
    },
    {
      "midi": 36,
      "hit": false,
      "t": 226956.20399998847,
      "d": 156.24978124999325,
      "v": 63
    },
    {
      "midi": 46,
      "hit": false,
      "t": 226956.20399998847,
      "d": 156.24978124999325,
      "v": 63
    },
    {
      "midi": 71,
      "hit": false,
      "t": 226956.20399999942,
      "d": 482.33628124999814,
      "v": 127
    },
    {
      "midi": 36,
      "hit": false,
      "t": 226956.20400000026,
      "d": 543.4775000000081,
      "v": 75
    },
    {
      "midi": 36,
      "hit": false,
      "t": 226956.2040000003,
      "d": 543.4775000000081,
      "v": 92
    },
    {
      "midi": 42,
      "hit": false,
      "t": 227119.24724998846,
      "d": 156.24978124999325,
      "v": 45
    },
    {
      "midi": 44,
      "hit": false,
      "t": 227282.29049998845,
      "d": 156.24978124999325,
      "v": 45
    },
    {
      "midi": 67,
      "hit": false,
      "t": 227282.29049999997,
      "d": 326.0865000000049,
      "v": 30
    },
    {
      "midi": 36,
      "hit": false,
      "t": 227445.33374998844,
      "d": 156.24978124999325,
      "v": 45
    },
    {
      "midi": 42,
      "hit": false,
      "t": 227445.33374998844,
      "d": 156.24978124999325,
      "v": 45
    },
    {
      "midi": 58,
      "hit": false,
      "t": 227445.3337499994,
      "d": 1304.3459999999905,
      "v": 127
    },
    {
      "midi": 64,
      "hit": false,
      "t": 227445.3337499994,
      "d": 1304.3459999999905,
      "v": 127
    },
    {
      "midi": 38,
      "hit": false,
      "t": 227608.37699998842,
      "d": 156.24978124999325,
      "v": 45
    },
    {
      "midi": 44,
      "hit": false,
      "t": 227608.37699998842,
      "d": 156.24978124999325,
      "v": 45
    },
    {
      "midi": 66,
      "hit": false,
      "t": 227608.37699999998,
      "d": 326.0865000000049,
      "v": 30
    },
    {
      "midi": 42,
      "hit": false,
      "t": 227771.4202499884,
      "d": 156.24978124999325,
      "v": 45
    },
    {
      "midi": 44,
      "hit": false,
      "t": 227934.4634999884,
      "d": 156.24978124999325,
      "v": 45
    },
    {
      "midi": 70,
      "hit": false,
      "t": 227934.46349999815,
      "d": 319.29303125001024,
      "v": 45
    },
    {
      "midi": 67,
      "hit": false,
      "t": 227934.46349999998,
      "d": 163.0432499999879,
      "v": 30
    },
    {
      "midi": 36,
      "hit": false,
      "t": 227934.46350000027,
      "d": 319.29303125001024,
      "v": 75
    },
    {
      "midi": 36,
      "hit": false,
      "t": 227934.4635000003,
      "d": 319.29303125001024,
      "v": 92
    },
    {
      "midi": 36,
      "hit": false,
      "t": 228097.5067499884,
      "d": 156.24978124999325,
      "v": 45
    },
    {
      "midi": 46,
      "hit": false,
      "t": 228097.5067499884,
      "d": 156.24978124999325,
      "v": 45
    },
    {
      "midi": 69,
      "hit": false,
      "t": 228097.50674999997,
      "d": 163.0432499999879,
      "v": 30
    },
    {
      "midi": 42,
      "hit": false,
      "t": 228260.54999998838,
      "d": 156.24978124999325,
      "v": 45
    },
    {
      "midi": 71,
      "hit": false,
      "t": 228260.54999999815,
      "d": 482.33628124999814,
      "v": 45
    },
    {
      "midi": 71,
      "hit": false,
      "t": 228260.54999999996,
      "d": 326.0865000000049,
      "v": 30
    },
    {
      "midi": 44,
      "hit": false,
      "t": 228423.59324998836,
      "d": 156.24978124999325,
      "v": 45
    },
    {
      "midi": 36,
      "hit": false,
      "t": 228586.63649998835,
      "d": 156.24978124999325,
      "v": 45
    },
    {
      "midi": 42,
      "hit": false,
      "t": 228586.63649998835,
      "d": 156.24978124999325,
      "v": 45
    },
    {
      "midi": 69,
      "hit": false,
      "t": 228586.63649999996,
      "d": 163.0432499999879,
      "v": 30
    },
    {
      "midi": 44,
      "hit": false,
      "t": 228749.67974998834,
      "d": 156.24978124999325,
      "v": 45
    },
    {
      "midi": 58,
      "hit": false,
      "t": 228749.67974999815,
      "d": 706.520749999996,
      "v": 45
    },
    {
      "midi": 64,
      "hit": false,
      "t": 228749.67974999815,
      "d": 706.520749999996,
      "v": 45
    },
    {
      "midi": 67,
      "hit": false,
      "t": 228749.67974999995,
      "d": 163.0432499999879,
      "v": 30
    },
    {
      "midi": 38,
      "hit": false,
      "t": 228912.72299998833,
      "d": 156.24978124999325,
      "v": 45
    },
    {
      "midi": 42,
      "hit": false,
      "t": 228912.72299998833,
      "d": 156.24978124999325,
      "v": 45
    },
    {
      "midi": 69,
      "hit": false,
      "t": 228912.72299999994,
      "d": 326.0865000000049,
      "v": 30
    },
    {
      "midi": 44,
      "hit": false,
      "t": 229075.76624998832,
      "d": 156.24978124999325,
      "v": 45
    },
    {
      "midi": 42,
      "hit": false,
      "t": 229238.8094999883,
      "d": 156.24978124999325,
      "v": 45
    },
    {
      "midi": 82,
      "hit": false,
      "t": 229238.8094999994,
      "d": 319.29303125001024,
      "v": 127
    },
    {
      "midi": 66,
      "hit": false,
      "t": 229238.80949999994,
      "d": 163.0432499999879,
      "v": 30
    },
    {
      "midi": 43,
      "hit": false,
      "t": 229238.8095000003,
      "d": 319.29303125001024,
      "v": 75
    },
    {
      "midi": 43,
      "hit": false,
      "t": 229238.80950000032,
      "d": 319.29303125001024,
      "v": 92
    },
    {
      "midi": 44,
      "hit": false,
      "t": 229401.8527499883,
      "d": 156.24978124999325,
      "v": 45
    },
    {
      "midi": 69,
      "hit": false,
      "t": 229401.85274999993,
      "d": 163.0432499999879,
      "v": 30
    },
    {
      "midi": 36,
      "hit": false,
      "t": 229564.89599998828,
      "d": 156.24978124999325,
      "v": 63
    },
    {
      "midi": 46,
      "hit": false,
      "t": 229564.89599998828,
      "d": 156.24978124999325,
      "v": 63
    },
    {
      "midi": 83,
      "hit": false,
      "t": 229564.8959999994,
      "d": 482.33628124999814,
      "v": 127
    },
    {
      "midi": 67,
      "hit": false,
      "t": 229564.89599999992,
      "d": 326.0865000000049,
      "v": 30
    },
    {
      "midi": 36,
      "hit": false,
      "t": 229564.8960000003,
      "d": 543.4775000000081,
      "v": 75
    },
    {
      "midi": 36,
      "hit": false,
      "t": 229564.89600000033,
      "d": 543.4775000000081,
      "v": 92
    },
    {
      "midi": 42,
      "hit": false,
      "t": 229727.93924998827,
      "d": 156.24978124999325,
      "v": 45
    },
    {
      "midi": 44,
      "hit": false,
      "t": 229890.98249998825,
      "d": 156.24978124999325,
      "v": 45
    },
    {
      "midi": 66,
      "hit": false,
      "t": 229890.98249999993,
      "d": 163.0432499999879,
      "v": 30
    },
    {
      "midi": 36,
      "hit": false,
      "t": 230054.02574998824,
      "d": 156.24978124999325,
      "v": 45
    },
    {
      "midi": 42,
      "hit": false,
      "t": 230054.02574998824,
      "d": 156.24978124999325,
      "v": 45
    },
    {
      "midi": 70,
      "hit": false,
      "t": 230054.0257499994,
      "d": 1304.3459999999905,
      "v": 127
    },
    {
      "midi": 76,
      "hit": false,
      "t": 230054.0257499994,
      "d": 1304.3459999999905,
      "v": 127
    },
    {
      "midi": 64,
      "hit": false,
      "t": 230054.0257499999,
      "d": 163.0432499999879,
      "v": 30
    },
    {
      "midi": 38,
      "hit": false,
      "t": 230217.06899998823,
      "d": 156.24978124999325,
      "v": 45
    },
    {
      "midi": 44,
      "hit": false,
      "t": 230217.06899998823,
      "d": 156.24978124999325,
      "v": 45
    },
    {
      "midi": 66,
      "hit": false,
      "t": 230217.0689999999,
      "d": 326.0865000000049,
      "v": 30
    },
    {
      "midi": 42,
      "hit": false,
      "t": 230380.11224998822,
      "d": 156.24978124999325,
      "v": 45
    },
    {
      "midi": 44,
      "hit": false,
      "t": 230543.1554999882,
      "d": 156.24978124999325,
      "v": 45
    },
    {
      "midi": 82,
      "hit": false,
      "t": 230543.15549999813,
      "d": 319.29303125001024,
      "v": 45
    },
    {
      "midi": 62,
      "hit": false,
      "t": 230543.1554999999,
      "d": 326.0865000000049,
      "v": 30
    },
    {
      "midi": 36,
      "hit": false,
      "t": 230543.1555000003,
      "d": 319.29303125001024,
      "v": 75
    },
    {
      "midi": 36,
      "hit": false,
      "t": 230543.15550000034,
      "d": 319.29303125001024,
      "v": 92
    },
    {
      "midi": 36,
      "hit": false,
      "t": 230706.1987499882,
      "d": 156.24978124999325,
      "v": 45
    },
    {
      "midi": 46,
      "hit": false,
      "t": 230706.1987499882,
      "d": 156.24978124999325,
      "v": 45
    },
    {
      "midi": 42,
      "hit": false,
      "t": 230869.24199998818,
      "d": 156.24978124999325,
      "v": 45
    },
    {
      "midi": 83,
      "hit": false,
      "t": 230869.24199999814,
      "d": 482.33628124999814,
      "v": 45
    },
    {
      "midi": 64,
      "hit": false,
      "t": 230869.2419999999,
      "d": 652.1730000000098,
      "v": 30
    },
    {
      "midi": 44,
      "hit": false,
      "t": 231032.28524998817,
      "d": 156.24978124999325,
      "v": 45
    },
    {
      "midi": 36,
      "hit": false,
      "t": 231195.32849998816,
      "d": 156.24978124999325,
      "v": 45
    },
    {
      "midi": 42,
      "hit": false,
      "t": 231195.32849998816,
      "d": 156.24978124999325,
      "v": 45
    },
    {
      "midi": 44,
      "hit": false,
      "t": 231358.37174998815,
      "d": 156.24978124999325,
      "v": 45
    },
    {
      "midi": 70,
      "hit": false,
      "t": 231358.37174999813,
      "d": 706.520749999996,
      "v": 45
    },
    {
      "midi": 76,
      "hit": false,
      "t": 231358.37174999813,
      "d": 706.520749999996,
      "v": 45
    },
    {
      "midi": 38,
      "hit": false,
      "t": 231521.41499998813,
      "d": 156.24978124999325,
      "v": 45
    },
    {
      "midi": 42,
      "hit": false,
      "t": 231521.41499998813,
      "d": 156.24978124999325,
      "v": 45
    },
    {
      "midi": 64,
      "hit": false,
      "t": 231521.41499999992,
      "d": 543.4775000000081,
      "v": 30
    },
    {
      "midi": 44,
      "hit": false,
      "t": 231684.45824998812,
      "d": 156.24978124999325,
      "v": 45
    },
    {
      "midi": 42,
      "hit": false,
      "t": 231847.5014999881,
      "d": 156.24978124999325,
      "v": 45
    },
    {
      "midi": 67,
      "hit": false,
      "t": 231847.50149999937,
      "d": 319.29303125001024,
      "v": 127
    },
    {
      "midi": 38,
      "hit": false,
      "t": 231847.50150000033,
      "d": 319.29303125001024,
      "v": 75
    },
    {
      "midi": 38,
      "hit": false,
      "t": 231847.50150000036,
      "d": 319.29303125001024,
      "v": 92
    },
    {
      "midi": 44,
      "hit": false,
      "t": 232010.5447499881,
      "d": 156.24978124999325,
      "v": 45
    },
    {
      "midi": 66,
      "hit": false,
      "t": 232173.58799999938,
      "d": 482.33628124999814,
      "v": 127
    },
    {
      "midi": 40,
      "hit": false,
      "t": 232173.58800000034,
      "d": 543.4775000000081,
      "v": 75
    },
    {
      "midi": 40,
      "hit": false,
      "t": 232173.58800000037,
      "d": 543.4775000000081,
      "v": 92
    },
    {
      "midi": 67,
      "hit": false,
      "t": 232499.67449999994,
      "d": 326.0865000000049,
      "v": 45
    },
    {
      "midi": 64,
      "hit": false,
      "t": 232662.71774999937,
      "d": 1304.3459999999905,
      "v": 127
    },
    {
      "midi": 66,
      "hit": false,
      "t": 232825.76099999994,
      "d": 326.0865000000049,
      "v": 45
    },
    {
      "midi": 67,
      "hit": false,
      "t": 233151.8474999981,
      "d": 319.29303125001024,
      "v": 45
    },
    {
      "midi": 67,
      "hit": false,
      "t": 233151.84749999995,
      "d": 163.0432499999879,
      "v": 45
    },
    {
      "midi": 40,
      "hit": false,
      "t": 233151.84750000035,
      "d": 319.29303125001024,
      "v": 75
    },
    {
      "midi": 40,
      "hit": false,
      "t": 233151.84750000038,
      "d": 319.29303125001024,
      "v": 92
    },
    {
      "midi": 69,
      "hit": false,
      "t": 233314.89074999993,
      "d": 163.0432499999879,
      "v": 45
    },
    {
      "midi": 66,
      "hit": false,
      "t": 233477.93399999812,
      "d": 482.33628124999814,
      "v": 45
    },
    {
      "midi": 71,
      "hit": false,
      "t": 233477.93399999992,
      "d": 326.0865000000049,
      "v": 45
    },
    {
      "midi": 69,
      "hit": false,
      "t": 233804.02049999993,
      "d": 163.0432499999879,
      "v": 45
    },
    {
      "midi": 64,
      "hit": false,
      "t": 233967.0637499981,
      "d": 706.520749999996,
      "v": 45
    },
    {
      "midi": 67,
      "hit": false,
      "t": 233967.0637499999,
      "d": 163.0432499999879,
      "v": 45
    },
    {
      "midi": 69,
      "hit": false,
      "t": 234130.1069999999,
      "d": 326.0865000000049,
      "v": 45
    },
    {
      "midi": 79,
      "hit": false,
      "t": 234456.19349999935,
      "d": 319.29303125001024,
      "v": 45
    },
    {
      "midi": 66,
      "hit": false,
      "t": 234456.1934999999,
      "d": 163.0432499999879,
      "v": 45
    },
    {
      "midi": 47,
      "hit": false,
      "t": 234456.19350000037,
      "d": 319.29303125001024,
      "v": 75
    },
    {
      "midi": 47,
      "hit": false,
      "t": 234456.1935000004,
      "d": 319.29303125001024,
      "v": 92
    },
    {
      "midi": 69,
      "hit": false,
      "t": 234619.2367499999,
      "d": 163.0432499999879,
      "v": 45
    },
    {
      "midi": 78,
      "hit": false,
      "t": 234782.27999999936,
      "d": 482.33628124999814,
      "v": 45
    },
    {
      "midi": 67,
      "hit": false,
      "t": 234782.27999999988,
      "d": 326.0865000000049,
      "v": 45
    },
    {
      "midi": 40,
      "hit": false,
      "t": 234782.28000000038,
      "d": 543.4775000000081,
      "v": 75
    },
    {
      "midi": 40,
      "hit": false,
      "t": 234782.2800000004,
      "d": 543.4775000000081,
      "v": 92
    },
    {
      "midi": 66,
      "hit": false,
      "t": 235108.3664999999,
      "d": 163.0432499999879,
      "v": 45
    },
    {
      "midi": 76,
      "hit": false,
      "t": 235271.40974999935,
      "d": 1304.3459999999905,
      "v": 45
    },
    {
      "midi": 64,
      "hit": false,
      "t": 235271.40974999988,
      "d": 163.0432499999879,
      "v": 45
    },
    {
      "midi": 66,
      "hit": false,
      "t": 235434.45299999986,
      "d": 326.0865000000049,
      "v": 45
    },
    {
      "midi": 79,
      "hit": false,
      "t": 235760.5394999981,
      "d": 319.29303125001024,
      "v": 45
    },
    {
      "midi": 62,
      "hit": false,
      "t": 235760.53949999987,
      "d": 326.0865000000049,
      "v": 45
    },
    {
      "midi": 40,
      "hit": false,
      "t": 235760.5395000004,
      "d": 319.29303125001024,
      "v": 75
    },
    {
      "midi": 40,
      "hit": false,
      "t": 235760.53950000042,
      "d": 319.29303125001024,
      "v": 92
    },
    {
      "midi": 78,
      "hit": false,
      "t": 236086.6259999981,
      "d": 482.33628124999814,
      "v": 45
    },
    {
      "midi": 64,
      "hit": false,
      "t": 236086.62599999987,
      "d": 652.1730000000098,
      "v": 45
    },
    {
      "midi": 76,
      "hit": false,
      "t": 236575.7557499981,
      "d": 706.520749999996,
      "v": 45
    },
    {
      "midi": 64,
      "hit": false,
      "t": 236738.79899999988,
      "d": 543.4775000000081,
      "v": 45
    },
    {
      "midi": 70,
      "hit": false,
      "t": 237064.88549999933,
      "d": 319.29303125001024,
      "v": 45
    },
    {
      "midi": 40,
      "hit": false,
      "t": 237064.8855000004,
      "d": 319.29303125001024,
      "v": 75
    },
    {
      "midi": 40,
      "hit": false,
      "t": 237064.88550000044,
      "d": 319.29303125001024,
      "v": 92
    },
    {
      "midi": 71,
      "hit": false,
      "t": 237390.97199999934,
      "d": 482.33628124999814,
      "v": 45
    },
    {
      "midi": 36,
      "hit": false,
      "t": 237390.97200000042,
      "d": 543.4775000000081,
      "v": 75
    },
    {
      "midi": 36,
      "hit": false,
      "t": 237390.97200000045,
      "d": 543.4775000000081,
      "v": 92
    },
    {
      "midi": 67,
      "hit": false,
      "t": 237717.0584999999,
      "d": 326.0865000000049,
      "v": 75
    },
    {
      "midi": 58,
      "hit": false,
      "t": 237880.10174999933,
      "d": 1304.3459999999905,
      "v": 45
    },
    {
      "midi": 64,
      "hit": false,
      "t": 237880.10174999933,
      "d": 1304.3459999999905,
      "v": 45
    },
    {
      "midi": 66,
      "hit": false,
      "t": 238043.1449999999,
      "d": 326.0865000000049,
      "v": 75
    },
    {
      "midi": 70,
      "hit": false,
      "t": 238369.23149999807,
      "d": 319.29303125001024,
      "v": 60
    },
    {
      "midi": 67,
      "hit": false,
      "t": 238369.2314999999,
      "d": 163.0432499999879,
      "v": 75
    },
    {
      "midi": 36,
      "hit": false,
      "t": 238369.23150000043,
      "d": 319.29303125001024,
      "v": 75
    },
    {
      "midi": 36,
      "hit": false,
      "t": 238369.23150000046,
      "d": 319.29303125001024,
      "v": 92
    },
    {
      "midi": 69,
      "hit": false,
      "t": 238532.2747499999,
      "d": 163.0432499999879,
      "v": 75
    },
    {
      "midi": 71,
      "hit": false,
      "t": 238695.31799999808,
      "d": 482.33628124999814,
      "v": 60
    },
    {
      "midi": 71,
      "hit": false,
      "t": 238695.31799999988,
      "d": 326.0865000000049,
      "v": 75
    },
    {
      "midi": 69,
      "hit": false,
      "t": 239021.4044999999,
      "d": 163.0432499999879,
      "v": 75
    },
    {
      "midi": 58,
      "hit": false,
      "t": 239184.44774999807,
      "d": 706.520749999996,
      "v": 60
    },
    {
      "midi": 64,
      "hit": false,
      "t": 239184.44774999807,
      "d": 706.520749999996,
      "v": 60
    },
    {
      "midi": 67,
      "hit": false,
      "t": 239184.44774999988,
      "d": 163.0432499999879,
      "v": 75
    },
    {
      "midi": 69,
      "hit": false,
      "t": 239347.49099999986,
      "d": 326.0865000000049,
      "v": 75
    },
    {
      "midi": 82,
      "hit": false,
      "t": 239673.57749999932,
      "d": 319.29303125001024,
      "v": 45
    },
    {
      "midi": 66,
      "hit": false,
      "t": 239673.57749999987,
      "d": 163.0432499999879,
      "v": 75
    },
    {
      "midi": 43,
      "hit": false,
      "t": 239673.57750000045,
      "d": 319.29303125001024,
      "v": 75
    },
    {
      "midi": 43,
      "hit": false,
      "t": 239673.57750000048,
      "d": 319.29303125001024,
      "v": 92
    },
    {
      "midi": 69,
      "hit": false,
      "t": 239836.62074999986,
      "d": 163.0432499999879,
      "v": 75
    },
    {
      "midi": 83,
      "hit": false,
      "t": 239999.66399999932,
      "d": 482.33628124999814,
      "v": 45
    },
    {
      "midi": 67,
      "hit": false,
      "t": 239999.66399999984,
      "d": 326.0865000000049,
      "v": 75
    },
    {
      "midi": 36,
      "hit": false,
      "t": 239999.66400000046,
      "d": 543.4775000000081,
      "v": 75
    },
    {
      "midi": 36,
      "hit": false,
      "t": 239999.66400000048,
      "d": 543.4775000000081,
      "v": 92
    },
    {
      "midi": 66,
      "hit": false,
      "t": 240325.75049999985,
      "d": 163.0432499999879,
      "v": 75
    },
    {
      "midi": 70,
      "hit": false,
      "t": 240488.7937499993,
      "d": 1304.3459999999905,
      "v": 45
    },
    {
      "midi": 76,
      "hit": false,
      "t": 240488.7937499993,
      "d": 1304.3459999999905,
      "v": 45
    },
    {
      "midi": 64,
      "hit": false,
      "t": 240488.79374999984,
      "d": 163.0432499999879,
      "v": 75
    },
    {
      "midi": 66,
      "hit": false,
      "t": 240651.83699999982,
      "d": 326.0865000000049,
      "v": 75
    },
    {
      "midi": 82,
      "hit": false,
      "t": 240977.92349999805,
      "d": 319.29303125001024,
      "v": 60
    },
    {
      "midi": 62,
      "hit": false,
      "t": 240977.92349999983,
      "d": 326.0865000000049,
      "v": 75
    },
    {
      "midi": 36,
      "hit": false,
      "t": 240977.92350000047,
      "d": 319.29303125001024,
      "v": 75
    },
    {
      "midi": 36,
      "hit": false,
      "t": 240977.9235000005,
      "d": 319.29303125001024,
      "v": 92
    },
    {
      "midi": 83,
      "hit": false,
      "t": 241304.00999999806,
      "d": 482.33628124999814,
      "v": 60
    },
    {
      "midi": 64,
      "hit": false,
      "t": 241304.00999999983,
      "d": 652.1730000000098,
      "v": 75
    },
    {
      "midi": 70,
      "hit": false,
      "t": 241793.13974999805,
      "d": 706.520749999996,
      "v": 60
    },
    {
      "midi": 76,
      "hit": false,
      "t": 241793.13974999805,
      "d": 706.520749999996,
      "v": 60
    },
    {
      "midi": 64,
      "hit": false,
      "t": 241956.18299999984,
      "d": 543.4775000000081,
      "v": 75
    },
    {
      "midi": 67,
      "hit": false,
      "t": 242282.2694999993,
      "d": 319.29303125001024,
      "v": 30
    },
    {
      "midi": 38,
      "hit": false,
      "t": 242282.2695000005,
      "d": 319.29303125001024,
      "v": 75
    },
    {
      "midi": 38,
      "hit": false,
      "t": 242282.26950000052,
      "d": 319.29303125001024,
      "v": 92
    },
    {
      "midi": 66,
      "hit": false,
      "t": 242608.3559999993,
      "d": 482.33628124999814,
      "v": 30
    },
    {
      "midi": 40,
      "hit": false,
      "t": 242608.3560000005,
      "d": 543.4775000000081,
      "v": 75
    },
    {
      "midi": 40,
      "hit": false,
      "t": 242608.35600000052,
      "d": 543.4775000000081,
      "v": 92
    },
    {
      "midi": 67,
      "hit": false,
      "t": 242934.44249999986,
      "d": 326.0865000000049,
      "v": 92
    },
    {
      "midi": 64,
      "hit": false,
      "t": 243097.4857499993,
      "d": 156.24978124999325,
      "v": 30
    },
    {
      "midi": 64,
      "hit": false,
      "t": 243260.52899999806,
      "d": 7010.859750000003,
      "v": 45
    },
    {
      "midi": 64,
      "hit": false,
      "t": 243260.52899999928,
      "d": 7010.859750000003,
      "v": 30
    },
    {
      "midi": 66,
      "hit": false,
      "t": 243260.52899999986,
      "d": 326.0865000000049,
      "v": 92
    },
    {
      "midi": 67,
      "hit": false,
      "t": 243586.61549999987,
      "d": 163.0432499999879,
      "v": 92
    },
    {
      "midi": 40,
      "hit": false,
      "t": 243586.6155000005,
      "d": 1467.3892500000075,
      "v": 75
    },
    {
      "midi": 40,
      "hit": false,
      "t": 243586.61550000054,
      "d": 1467.3892500000075,
      "v": 92
    },
    {
      "midi": 69,
      "hit": false,
      "t": 243749.65874999986,
      "d": 163.0432499999879,
      "v": 92
    },
    {
      "midi": 71,
      "hit": false,
      "t": 243912.70199999984,
      "d": 326.0865000000049,
      "v": 92
    },
    {
      "midi": 69,
      "hit": false,
      "t": 244238.78849999985,
      "d": 163.0432499999879,
      "v": 92
    },
    {
      "midi": 67,
      "hit": false,
      "t": 244401.83174999984,
      "d": 163.0432499999879,
      "v": 92
    },
    {
      "midi": 69,
      "hit": false,
      "t": 244564.87499999983,
      "d": 326.0865000000049,
      "v": 92
    },
    {
      "midi": 66,
      "hit": false,
      "t": 244890.96149999983,
      "d": 163.0432499999879,
      "v": 92
    },
    {
      "midi": 69,
      "hit": false,
      "t": 245054.00474999982,
      "d": 163.0432499999879,
      "v": 92
    },
    {
      "midi": 67,
      "hit": false,
      "t": 245217.0479999998,
      "d": 326.0865000000049,
      "v": 92
    },
    {
      "midi": 66,
      "hit": false,
      "t": 245543.1344999998,
      "d": 163.0432499999879,
      "v": 92
    },
    {
      "midi": 64,
      "hit": false,
      "t": 245706.1777499998,
      "d": 163.0432499999879,
      "v": 92
    },
    {
      "midi": 66,
      "hit": false,
      "t": 245869.2209999998,
      "d": 326.0865000000049,
      "v": 92
    },
    {
      "midi": 62,
      "hit": false,
      "t": 246195.3074999998,
      "d": 326.0865000000049,
      "v": 92
    },
    {
      "midi": 64,
      "hit": false,
      "t": 246521.3939999998,
      "d": 3749.9947500000126,
      "v": 92
    }
  ]
}