{
  "jsonPath": "Unknown/Unknown/Tony  The Beat Brothers/get-back.json",
  "path": "Unknown\\Unknown\\Tony  The Beat Brothers\\Get Back.mid",
  "name": "Get Back",
  "difficulty": "Advanced",
  "bpm": 123.00047355182318,
  "notes": [
    {
      "midi": 45,
      "hit": false,
      "t": 5853.636,
      "d": 666.6641,
      "v": 80
    },
    {
      "midi": 57,
      "hit": false,
      "t": 5853.636,
      "d": 666.6641,
      "v": 80
    },
    {
      "midi": 61,
      "hit": false,
      "t": 5853.636,
      "d": 666.6641,
      "v": 80
    },
    {
      "midi": 64,
      "hit": false,
      "t": 5853.636,
      "d": 666.6641,
      "v": 80
    },
    {
      "midi": 45,
      "hit": false,
      "t": 6585.3405,
      "d": 439.02269999999953,
      "v": 80
    },
    {
      "midi": 57,
      "hit": false,
      "t": 6585.3405,
      "d": 1093.4917249999999,
      "v": 80
    },
    {
      "midi": 61,
      "hit": false,
      "t": 6585.3405,
      "d": 1093.4917249999999,
      "v": 80
    },
    {
      "midi": 40,
      "hit": false,
      "t": 7073.1435,
      "d": 219.51134999999977,
      "v": 80
    },
    {
      "midi": 64,
      "hit": false,
      "t": 7073.1435,
      "d": 605.688725,
      "v": 80
    },
    {
      "midi": 45,
      "hit": false,
      "t": 7317.045,
      "d": 219.51134999999977,
      "v": 80
    },
    {
      "midi": 40,
      "hit": false,
      "t": 7560.9465,
      "d": 219.51134999999977,
      "v": 80
    },
    {
      "midi": 45,
      "hit": false,
      "t": 7804.848,
      "d": 487.8029999999999,
      "v": 80
    },
    {
      "midi": 57,
      "hit": false,
      "t": 7804.848,
      "d": 487.8029999999999,
      "v": 80
    },
    {
      "midi": 61,
      "hit": false,
      "t": 7804.848,
      "d": 487.8029999999999,
      "v": 80
    },
    {
      "midi": 64,
      "hit": false,
      "t": 7804.848,
      "d": 487.8029999999999,
      "v": 80
    },
    {
      "midi": 45,
      "hit": false,
      "t": 8292.651,
      "d": 487.8029999999999,
      "v": 80
    },
    {
      "midi": 57,
      "hit": false,
      "t": 8292.651,
      "d": 487.8029999999999,
      "v": 80
    },
    {
      "midi": 61,
      "hit": false,
      "t": 8292.651,
      "d": 487.8029999999999,
      "v": 80
    },
    {
      "midi": 64,
      "hit": false,
      "t": 8292.651,
      "d": 487.8029999999999,
      "v": 80
    },
    {
      "midi": 43,
      "hit": false,
      "t": 8780.454,
      "d": 487.8029999999999,
      "v": 80
    },
    {
      "midi": 55,
      "hit": false,
      "t": 8780.454,
      "d": 487.8029999999999,
      "v": 80
    },
    {
      "midi": 59,
      "hit": false,
      "t": 8780.454,
      "d": 487.8029999999999,
      "v": 80
    },
    {
      "midi": 62,
      "hit": false,
      "t": 8780.454,
      "d": 487.8029999999999,
      "v": 80
    },
    {
      "midi": 45,
      "hit": false,
      "t": 9268.257,
      "d": 487.8029999999999,
      "v": 80
    },
    {
      "midi": 57,
      "hit": false,
      "t": 9268.257,
      "d": 487.8029999999999,
      "v": 80
    },
    {
      "midi": 62,
      "hit": false,
      "t": 9268.257,
      "d": 487.8029999999999,
      "v": 80
    },
    {
      "midi": 66,
      "hit": false,
      "t": 9268.257,
      "d": 487.8029999999999,
      "v": 80
    },
    {
      "midi": 45,
      "hit": false,
      "t": 9756.06,
      "d": 487.8029999999999,
      "v": 80
    },
    {
      "midi": 57,
      "hit": false,
      "t": 9756.06,
      "d": 487.8029999999999,
      "v": 80
    },
    {
      "midi": 61,
      "hit": false,
      "t": 9756.06,
      "d": 487.8029999999999,
      "v": 80
    },
    {
      "midi": 64,
      "hit": false,
      "t": 9756.06,
      "d": 487.8029999999999,
      "v": 80
    },
    {
      "midi": 45,
      "hit": false,
      "t": 10243.863,
      "d": 487.8029999999999,
      "v": 80
    },
    {
      "midi": 61,
      "hit": false,
      "t": 10243.863,
      "d": 487.8029999999999,
      "v": 80
    },
    {
      "midi": 64,
      "hit": false,
      "t": 10243.863,
      "d": 487.8029999999999,
      "v": 80
    },
    {
      "midi": 66,
      "hit": false,
      "t": 10243.863,
      "d": 487.8029999999999,
      "v": 80
    },
    {
      "midi": 69,
      "hit": false,
      "t": 10243.863,
      "d": 487.8029999999999,
      "v": 80
    },
    {
      "midi": 45,
      "hit": false,
      "t": 10731.666,
      "d": 487.8029999999999,
      "v": 80
    },
    {
      "midi": 57,
      "hit": false,
      "t": 10731.666,
      "d": 487.8029999999999,
      "v": 80
    },
    {
      "midi": 61,
      "hit": false,
      "t": 10731.666,
      "d": 487.8029999999999,
      "v": 80
    },
    {
      "midi": 64,
      "hit": false,
      "t": 10731.666,
      "d": 487.8029999999999,
      "v": 80
    },
    {
      "midi": 45,
      "hit": false,
      "t": 11219.469,
      "d": 487.8029999999999,
      "v": 80
    },
    {
      "midi": 61,
      "hit": false,
      "t": 11219.469,
      "d": 487.8029999999999,
      "v": 80
    },
    {
      "midi": 64,
      "hit": false,
      "t": 11219.469,
      "d": 487.8029999999999,
      "v": 80
    },
    {
      "midi": 66,
      "hit": false,
      "t": 11219.469,
      "d": 487.8029999999999,
      "v": 80
    },
    {
      "midi": 69,
      "hit": false,
      "t": 11219.469,
      "d": 487.8029999999999,
      "v": 80
    },
    {
      "midi": 45,
      "hit": false,
      "t": 11707.271999999999,
      "d": 487.8029999999999,
      "v": 80
    },
    {
      "midi": 57,
      "hit": false,
      "t": 11707.271999999999,
      "d": 487.8029999999999,
      "v": 80
    },
    {
      "midi": 61,
      "hit": false,
      "t": 11707.271999999999,
      "d": 487.8029999999999,
      "v": 80
    },
    {
      "midi": 64,
      "hit": false,
      "t": 11707.271999999999,
      "d": 487.8029999999999,
      "v": 80
    },
    {
      "midi": 45,
      "hit": false,
      "t": 12195.074999999999,
      "d": 487.8029999999999,
      "v": 80
    },
    {
      "midi": 61,
      "hit": false,
      "t": 12195.074999999999,
      "d": 487.8029999999999,
      "v": 80
    },
    {
      "midi": 64,
      "hit": false,
      "t": 12195.074999999999,
      "d": 487.8029999999999,
      "v": 80
    },
    {
      "midi": 66,
      "hit": false,
      "t": 12195.074999999999,
      "d": 487.8029999999999,
      "v": 80
    },
    {
      "midi": 69,
      "hit": false,
      "t": 12195.074999999999,
      "d": 487.8029999999999,
      "v": 80
    },
    {
      "midi": 45,
      "hit": false,
      "t": 12682.877999999999,
      "d": 487.8029999999999,
      "v": 80
    },
    {
      "midi": 57,
      "hit": false,
      "t": 12682.877999999999,
      "d": 487.8029999999999,
      "v": 80
    },
    {
      "midi": 61,
      "hit": false,
      "t": 12682.877999999999,
      "d": 487.8029999999999,
      "v": 80
    },
    {
      "midi": 64,
      "hit": false,
      "t": 12682.877999999999,
      "d": 487.8029999999999,
      "v": 80
    },
    {
      "midi": 45,
      "hit": false,
      "t": 13170.680999999999,
      "d": 487.8029999999999,
      "v": 80
    },
    {
      "midi": 61,
      "hit": false,
      "t": 13170.680999999999,
      "d": 487.8029999999999,
      "v": 80
    },
    {
      "midi": 64,
      "hit": false,
      "t": 13170.680999999999,
      "d": 487.8029999999999,
      "v": 80
    },
    {
      "midi": 66,
      "hit": false,
      "t": 13170.680999999999,
      "d": 487.8029999999999,
      "v": 80
    },
    {
      "midi": 69,
      "hit": false,
      "t": 13170.680999999999,
      "d": 487.8029999999999,
      "v": 80
    },
    {
      "midi": 50,
      "hit": false,
      "t": 13658.483999999999,
      "d": 487.8029999999999,
      "v": 80
    },
    {
      "midi": 57,
      "hit": false,
      "t": 13658.483999999999,
      "d": 487.8029999999999,
      "v": 80
    },
    {
      "midi": 62,
      "hit": false,
      "t": 13658.483999999999,
      "d": 487.8029999999999,
      "v": 80
    },
    {
      "midi": 66,
      "hit": false,
      "t": 13658.483999999999,
      "d": 487.8029999999999,
      "v": 80
    },
    {
      "midi": 50,
      "hit": false,
      "t": 14146.286999999998,
      "d": 487.8029999999999,
      "v": 80
    },
    {
      "midi": 59,
      "hit": false,
      "t": 14146.286999999998,
      "d": 487.8029999999999,
      "v": 80
    },
    {
      "midi": 62,
      "hit": false,
      "t": 14146.286999999998,
      "d": 487.8029999999999,
      "v": 80
    },
    {
      "midi": 66,
      "hit": false,
      "t": 14146.286999999998,
      "d": 487.8029999999999,
      "v": 80
    },
    {
      "midi": 69,
      "hit": false,
      "t": 14146.286999999998,
      "d": 487.8029999999999,
      "v": 80
    },
    {
      "midi": 50,
      "hit": false,
      "t": 14634.089999999998,
      "d": 487.8029999999999,
      "v": 80
    },
    {
      "midi": 57,
      "hit": false,
      "t": 14634.089999999998,
      "d": 487.8029999999999,
      "v": 80
    },
    {
      "midi": 62,
      "hit": false,
      "t": 14634.089999999998,
      "d": 487.8029999999999,
      "v": 80
    },
    {
      "midi": 66,
      "hit": false,
      "t": 14634.089999999998,
      "d": 487.8029999999999,
      "v": 80
    },
    {
      "midi": 50,
      "hit": false,
      "t": 15121.892999999998,
      "d": 487.8029999999999,
      "v": 80
    },
    {
      "midi": 59,
      "hit": false,
      "t": 15121.892999999998,
      "d": 487.8029999999999,
      "v": 80
    },
    {
      "midi": 62,
      "hit": false,
      "t": 15121.892999999998,
      "d": 487.8029999999999,
      "v": 80
    },
    {
      "midi": 66,
      "hit": false,
      "t": 15121.892999999998,
      "d": 487.8029999999999,
      "v": 80
    },
    {
      "midi": 69,
      "hit": false,
      "t": 15121.892999999998,
      "d": 487.8029999999999,
      "v": 80
    },
    {
      "midi": 45,
      "hit": false,
      "t": 15609.695999999998,
      "d": 666.6641,
      "v": 80
    },
    {
      "midi": 57,
      "hit": false,
      "t": 15609.695999999998,
      "d": 666.6641,
      "v": 80
    },
    {
      "midi": 61,
      "hit": false,
      "t": 15609.695999999998,
      "d": 666.6641,
      "v": 80
    },
    {
      "midi": 64,
      "hit": false,
      "t": 15609.695999999998,
      "d": 666.6641,
      "v": 80
    },
    {
      "midi": 45,
      "hit": false,
      "t": 16341.400499999998,
      "d": 439.02269999999953,
      "v": 80
    },
    {
      "midi": 57,
      "hit": false,
      "t": 16341.400499999998,
      "d": 1093.491724999998,
      "v": 80
    },
    {
      "midi": 61,
      "hit": false,
      "t": 16341.400499999998,
      "d": 1093.491724999998,
      "v": 80
    },
    {
      "midi": 40,
      "hit": false,
      "t": 16829.203499999996,
      "d": 219.51135000000068,
      "v": 80
    },
    {
      "midi": 64,
      "hit": false,
      "t": 16829.203499999996,
      "d": 605.688725,
      "v": 80
    },
    {
      "midi": 45,
      "hit": false,
      "t": 17073.104999999996,
      "d": 219.51135000000068,
      "v": 80
    },
    {
      "midi": 40,
      "hit": false,
      "t": 17317.006499999996,
      "d": 219.51135000000068,
      "v": 80
    },
    {
      "midi": 45,
      "hit": false,
      "t": 17560.907999999996,
      "d": 487.8029999999999,
      "v": 80
    },
    {
      "midi": 57,
      "hit": false,
      "t": 17560.907999999996,
      "d": 487.8029999999999,
      "v": 80
    },
    {
      "midi": 61,
      "hit": false,
      "t": 17560.907999999996,
      "d": 487.8029999999999,
      "v": 80
    },
    {
      "midi": 64,
      "hit": false,
      "t": 17560.907999999996,
      "d": 487.8029999999999,
      "v": 80
    },
    {
      "midi": 45,
      "hit": false,
      "t": 18048.710999999996,
      "d": 487.8029999999999,
      "v": 80
    },
    {
      "midi": 61,
      "hit": false,
      "t": 18048.710999999996,
      "d": 487.8029999999999,
      "v": 80
    },
    {
      "midi": 64,
      "hit": false,
      "t": 18048.710999999996,
      "d": 487.8029999999999,
      "v": 80
    },
    {
      "midi": 66,
      "hit": false,
      "t": 18048.710999999996,
      "d": 487.8029999999999,
      "v": 80
    },
    {
      "midi": 69,
      "hit": false,
      "t": 18048.710999999996,
      "d": 487.8029999999999,
      "v": 80
    },
    {
      "midi": 45,
      "hit": false,
      "t": 18536.513999999996,
      "d": 487.8029999999999,
      "v": 80
    },
    {
      "midi": 57,
      "hit": false,
      "t": 18536.513999999996,
      "d": 487.8029999999999,
      "v": 80
    },
    {
      "midi": 61,
      "hit": false,
      "t": 18536.513999999996,
      "d": 487.8029999999999,
      "v": 80
    },
    {
      "midi": 64,
      "hit": false,
      "t": 18536.513999999996,
      "d": 487.8029999999999,
      "v": 80
    },
    {
      "midi": 45,
      "hit": false,
      "t": 19024.316999999995,
      "d": 487.8029999999999,
      "v": 80
    },
    {
      "midi": 61,
      "hit": false,
      "t": 19024.316999999995,
      "d": 487.8029999999999,
      "v": 80
    },
    {
      "midi": 64,
      "hit": false,
      "t": 19024.316999999995,
      "d": 487.8029999999999,
      "v": 80
    },
    {
      "midi": 66,
      "hit": false,
      "t": 19024.316999999995,
      "d": 487.8029999999999,
      "v": 80
    },
    {
      "midi": 69,
      "hit": false,
      "t": 19024.316999999995,
      "d": 487.8029999999999,
      "v": 80
    },
    {
      "midi": 45,
      "hit": false,
      "t": 19512.119999999995,
      "d": 487.8029999999999,
      "v": 80
    },
    {
      "midi": 57,
      "hit": false,
      "t": 19512.119999999995,
      "d": 487.8029999999999,
      "v": 80
    },
    {
      "midi": 61,
      "hit": false,
      "t": 19512.119999999995,
      "d": 487.8029999999999,
      "v": 80
    },
    {
      "midi": 64,
      "hit": false,
      "t": 19512.119999999995,
      "d": 487.8029999999999,
      "v": 80
    },
    {
      "midi": 45,
      "hit": false,
      "t": 19999.922999999995,
      "d": 487.8029999999999,
      "v": 80
    },
    {
      "midi": 61,
      "hit": false,
      "t": 19999.922999999995,
      "d": 487.8029999999999,
      "v": 80
    },
    {
      "midi": 64,
      "hit": false,
      "t": 19999.922999999995,
      "d": 487.8029999999999,
      "v": 80
    },
    {
      "midi": 66,
      "hit": false,
      "t": 19999.922999999995,
      "d": 487.8029999999999,
      "v": 80
    },
    {
      "midi": 69,
      "hit": false,
      "t": 19999.922999999995,
      "d": 487.8029999999999,
      "v": 80
    },
    {
      "midi": 45,
      "hit": false,
      "t": 20487.725999999995,
      "d": 487.8029999999999,
      "v": 80
    },
    {
      "midi": 57,
      "hit": false,
      "t": 20487.725999999995,
      "d": 487.8029999999999,
      "v": 80
    },
    {
      "midi": 61,
      "hit": false,
      "t": 20487.725999999995,
      "d": 487.8029999999999,
      "v": 80
    },
    {
      "midi": 64,
      "hit": false,
      "t": 20487.725999999995,
      "d": 487.8029999999999,
      "v": 80
    },
    {
      "midi": 45,
      "hit": false,
      "t": 20975.528999999995,
      "d": 487.8029999999999,
      "v": 80
    },
    {
      "midi": 61,
      "hit": false,
      "t": 20975.528999999995,
      "d": 487.8029999999999,
      "v": 80
    },
    {
      "midi": 64,
      "hit": false,
      "t": 20975.528999999995,
      "d": 487.8029999999999,
      "v": 80
    },
    {
      "midi": 66,
      "hit": false,
      "t": 20975.528999999995,
      "d": 487.8029999999999,
      "v": 80
    },
    {
      "midi": 69,
      "hit": false,
      "t": 20975.528999999995,
      "d": 487.8029999999999,
      "v": 80
    },
    {
      "midi": 50,
      "hit": false,
      "t": 21463.331999999995,
      "d": 487.8029999999999,
      "v": 80
    },
    {
      "midi": 57,
      "hit": false,
      "t": 21463.331999999995,
      "d": 487.8029999999999,
      "v": 80
    },
    {
      "midi": 62,
      "hit": false,
      "t": 21463.331999999995,
      "d": 487.8029999999999,
      "v": 80
    },
    {
      "midi": 66,
      "hit": false,
      "t": 21463.331999999995,
      "d": 487.8029999999999,
      "v": 80
    },
    {
      "midi": 50,
      "hit": false,
      "t": 21951.134999999995,
      "d": 487.8029999999999,
      "v": 80
    },
    {
      "midi": 59,
      "hit": false,
      "t": 21951.134999999995,
      "d": 487.8029999999999,
      "v": 80
    },
    {
      "midi": 62,
      "hit": false,
      "t": 21951.134999999995,
      "d": 487.8029999999999,
      "v": 80
    },
    {
      "midi": 66,
      "hit": false,
      "t": 21951.134999999995,
      "d": 487.8029999999999,
      "v": 80
    },
    {
      "midi": 69,
      "hit": false,
      "t": 21951.134999999995,
      "d": 487.8029999999999,
      "v": 80
    },
    {
      "midi": 50,
      "hit": false,
      "t": 22438.937999999995,
      "d": 487.8029999999999,
      "v": 80
    },
    {
      "midi": 57,
      "hit": false,
      "t": 22438.937999999995,
      "d": 487.8029999999999,
      "v": 80
    },
    {
      "midi": 62,
      "hit": false,
      "t": 22438.937999999995,
      "d": 487.8029999999999,
      "v": 80
    },
    {
      "midi": 66,
      "hit": false,
      "t": 22438.937999999995,
      "d": 487.8029999999999,
      "v": 80
    },
    {
      "midi": 50,
      "hit": false,
      "t": 22926.740999999995,
      "d": 487.8029999999999,
      "v": 80
    },
    {
      "midi": 57,
      "hit": false,
      "t": 22926.740999999995,
      "d": 487.8029999999999,
      "v": 80
    },
    {
      "midi": 59,
      "hit": false,
      "t": 22926.740999999995,
      "d": 487.8029999999999,
      "v": 80
    },
    {
      "midi": 62,
      "hit": false,
      "t": 22926.740999999995,
      "d": 487.8029999999999,
      "v": 80
    },
    {
      "midi": 66,
      "hit": false,
      "t": 22926.740999999995,
      "d": 487.8029999999999,
      "v": 80
    },
    {
      "midi": 45,
      "hit": false,
      "t": 23414.543999999994,
      "d": 666.6641000000018,
      "v": 80
    },
    {
      "midi": 57,
      "hit": false,
      "t": 23414.543999999994,
      "d": 666.6641000000018,
      "v": 80
    },
    {
      "midi": 61,
      "hit": false,
      "t": 23414.543999999994,
      "d": 666.6641000000018,
      "v": 80
    },
    {
      "midi": 64,
      "hit": false,
      "t": 23414.543999999994,
      "d": 666.6641000000018,
      "v": 80
    },
    {
      "midi": 45,
      "hit": false,
      "t": 24146.248499999998,
      "d": 439.02270000000135,
      "v": 80
    },
    {
      "midi": 57,
      "hit": false,
      "t": 24146.248499999998,
      "d": 1093.4917249999999,
      "v": 80
    },
    {
      "midi": 61,
      "hit": false,
      "t": 24146.248499999998,
      "d": 1093.4917249999999,
      "v": 80
    },
    {
      "midi": 40,
      "hit": false,
      "t": 24634.051499999998,
      "d": 219.51135000000068,
      "v": 80
    },
    {
      "midi": 64,
      "hit": false,
      "t": 24634.051499999998,
      "d": 605.688725,
      "v": 80
    },
    {
      "midi": 45,
      "hit": false,
      "t": 24877.952999999998,
      "d": 219.51135000000068,
      "v": 80
    },
    {
      "midi": 40,
      "hit": false,
      "t": 25121.854499999998,
      "d": 219.51135000000068,
      "v": 80
    },
    {
      "midi": 45,
      "hit": false,
      "t": 25365.755999999998,
      "d": 260.16159999999945,
      "v": 90
    },
    {
      "midi": 49,
      "hit": false,
      "t": 25609.657499999998,
      "d": 260.16159999999945,
      "v": 90
    },
    {
      "midi": 52,
      "hit": false,
      "t": 25853.558999999997,
      "d": 203.25125000000116,
      "v": 90
    },
    {
      "midi": 45,
      "hit": false,
      "t": 26097.460499999997,
      "d": 894.3054999999986,
      "v": 90
    },
    {
      "midi": 61,
      "hit": false,
      "t": 26097.460499999997,
      "d": 1154.467099999998,
      "v": 90
    },
    {
      "midi": 64,
      "hit": false,
      "t": 26097.460499999997,
      "d": 1154.467099999998,
      "v": 90
    },
    {
      "midi": 67,
      "hit": false,
      "t": 26097.460499999997,
      "d": 1154.467099999998,
      "v": 90
    },
    {
      "midi": 72,
      "hit": false,
      "t": 26097.460499999997,
      "d": 1154.467099999998,
      "v": 90
    },
    {
      "midi": 45,
      "hit": false,
      "t": 27073.066499999997,
      "d": 215.44632499999716,
      "v": 90
    },
    {
      "midi": 45,
      "hit": false,
      "t": 27316.967999999993,
      "d": 260.16159999999945,
      "v": 90
    },
    {
      "midi": 49,
      "hit": false,
      "t": 27560.869499999993,
      "d": 260.16159999999945,
      "v": 90
    },
    {
      "midi": 52,
      "hit": false,
      "t": 27804.770999999993,
      "d": 203.25125000000116,
      "v": 90
    },
    {
      "midi": 45,
      "hit": false,
      "t": 28048.672499999993,
      "d": 894.3054999999986,
      "v": 90
    },
    {
      "midi": 61,
      "hit": false,
      "t": 28048.672499999993,
      "d": 1154.467099999998,
      "v": 90
    },
    {
      "midi": 64,
      "hit": false,
      "t": 28048.672499999993,
      "d": 1154.467099999998,
      "v": 90
    },
    {
      "midi": 67,
      "hit": false,
      "t": 28048.672499999993,
      "d": 1154.467099999998,
      "v": 90
    },
    {
      "midi": 72,
      "hit": false,
      "t": 28048.672499999993,
      "d": 1154.467099999998,
      "v": 90
    },
    {
      "midi": 45,
      "hit": false,
      "t": 29024.278499999993,
      "d": 215.44632499999716,
      "v": 90
    },
    {
      "midi": 50,
      "hit": false,
      "t": 29268.17999999999,
      "d": 260.16159999999945,
      "v": 90
    },
    {
      "midi": 54,
      "hit": false,
      "t": 29512.08149999999,
      "d": 260.16159999999945,
      "v": 90
    },
    {
      "midi": 57,
      "hit": false,
      "t": 29755.98299999999,
      "d": 243.90149999999994,
      "v": 90
    },
    {
      "midi": 50,
      "hit": false,
      "t": 30243.78599999999,
      "d": 203.25125000000116,
      "v": 90
    },
    {
      "midi": 57,
      "hit": false,
      "t": 30243.78599999999,
      "d": 203.25125000000116,
      "v": 90
    },
    {
      "midi": 62,
      "hit": false,
      "t": 30243.78599999999,
      "d": 203.25125000000116,
      "v": 90
    },
    {
      "midi": 66,
      "hit": false,
      "t": 30243.78599999999,
      "d": 203.25125000000116,
      "v": 90
    },
    {
      "midi": 50,
      "hit": false,
      "t": 30487.68749999999,
      "d": 695.1192750000009,
      "v": 90
    },
    {
      "midi": 60,
      "hit": false,
      "t": 30487.68749999999,
      "d": 723.5744500000001,
      "v": 90
    },
    {
      "midi": 62,
      "hit": false,
      "t": 30487.68749999999,
      "d": 723.5744500000001,
      "v": 90
    },
    {
      "midi": 66,
      "hit": false,
      "t": 30487.68749999999,
      "d": 723.5744500000001,
      "v": 90
    },
    {
      "midi": 69,
      "hit": false,
      "t": 30487.68749999999,
      "d": 723.5744500000001,
      "v": 90
    },
    {
      "midi": 45,
      "hit": false,
      "t": 31219.39199999999,
      "d": 666.6640999999981,
      "v": 90
    },
    {
      "midi": 61,
      "hit": false,
      "t": 31219.39199999999,
      "d": 666.6640999999981,
      "v": 90
    },
    {
      "midi": 64,
      "hit": false,
      "t": 31219.39199999999,
      "d": 666.6640999999981,
      "v": 90
    },
    {
      "midi": 66,
      "hit": false,
      "t": 31219.39199999999,
      "d": 666.6640999999981,
      "v": 90
    },
    {
      "midi": 69,
      "hit": false,
      "t": 31219.39199999999,
      "d": 666.6640999999981,
      "v": 90
    },
    {
      "midi": 40,
      "hit": false,
      "t": 31951.09649999999,
      "d": 219.51135000000068,
      "v": 90
    },
    {
      "midi": 64,
      "hit": false,
      "t": 31951.09649999999,
      "d": 219.51135000000068,
      "v": 90
    },
    {
      "midi": 43,
      "hit": false,
      "t": 32194.99799999999,
      "d": 459.34782500000074,
      "v": 90
    },
    {
      "midi": 55,
      "hit": false,
      "t": 32194.99799999999,
      "d": 487.8029999999999,
      "v": 90
    },
    {
      "midi": 59,
      "hit": false,
      "t": 32194.99799999999,
      "d": 487.8029999999999,
      "v": 90
    },
    {
      "midi": 62,
      "hit": false,
      "t": 32194.99799999999,
      "d": 487.8029999999999,
      "v": 90
    },
    {
      "midi": 45,
      "hit": false,
      "t": 32682.80099999999,
      "d": 459.34782500000074,
      "v": 90
    },
    {
      "midi": 54,
      "hit": false,
      "t": 32682.80099999999,
      "d": 487.8030000000035,
      "v": 90
    },
    {
      "midi": 57,
      "hit": false,
      "t": 32682.80099999999,
      "d": 487.8030000000035,
      "v": 90
    },
    {
      "midi": 62,
      "hit": false,
      "t": 32682.80099999999,
      "d": 487.8030000000035,
      "v": 90
    },
    {
      "midi": 45,
      "hit": false,
      "t": 33170.60399999999,
      "d": 260.16159999999945,
      "v": 90
    },
    {
      "midi": 49,
      "hit": false,
      "t": 33414.50549999999,
      "d": 260.16159999999945,
      "v": 90
    },
    {
      "midi": 52,
      "hit": false,
      "t": 33658.40699999999,
      "d": 203.25125000000116,
      "v": 90
    },
    {
      "midi": 45,
      "hit": false,
      "t": 33902.30849999999,
      "d": 894.3055000000022,
      "v": 90
    },
    {
      "midi": 61,
      "hit": false,
      "t": 33902.30849999999,
      "d": 1154.4671000000017,
      "v": 90
    },
    {
      "midi": 64,
      "hit": false,
      "t": 33902.30849999999,
      "d": 1154.4671000000017,
      "v": 90
    },
    {
      "midi": 67,
      "hit": false,
      "t": 33902.30849999999,
      "d": 1154.4671000000017,
      "v": 90
    },
    {
      "midi": 72,
      "hit": false,
      "t": 33902.30849999999,
      "d": 1154.4671000000017,
      "v": 90
    },
    {
      "midi": 45,
      "hit": false,
      "t": 34877.91449999999,
      "d": 215.44632500000444,
      "v": 90
    },
    {
      "midi": 45,
      "hit": false,
      "t": 35121.816,
      "d": 260.16159999999945,
      "v": 90
    },
    {
      "midi": 49,
      "hit": false,
      "t": 35365.7175,
      "d": 260.16159999999945,
      "v": 90
    },
    {
      "midi": 52,
      "hit": false,
      "t": 35609.619,
      "d": 203.25125000000116,
      "v": 90
    },
    {
      "midi": 45,
      "hit": false,
      "t": 35853.5205,
      "d": 894.3055000000022,
      "v": 90
    },
    {
      "midi": 61,
      "hit": false,
      "t": 35853.5205,
      "d": 1154.4671000000017,
      "v": 90
    },
    {
      "midi": 64,
      "hit": false,
      "t": 35853.5205,
      "d": 1154.4671000000017,
      "v": 90
    },
    {
      "midi": 67,
      "hit": false,
      "t": 35853.5205,
      "d": 1154.4671000000017,
      "v": 90
    },
    {
      "midi": 72,
      "hit": false,
      "t": 35853.5205,
      "d": 1154.4671000000017,
      "v": 90
    },
    {
      "midi": 45,
      "hit": false,
      "t": 36829.1265,
      "d": 215.44632500000444,
      "v": 90
    },
    {
      "midi": 50,
      "hit": false,
      "t": 37073.028000000006,
      "d": 260.16159999999945,
      "v": 90
    },
    {
      "midi": 54,
      "hit": false,
      "t": 37316.929500000006,
      "d": 260.16159999999945,
      "v": 90
    },
    {
      "midi": 57,
      "hit": false,
      "t": 37560.831000000006,
      "d": 243.90149999999994,
      "v": 90
    },
    {
      "midi": 50,
      "hit": false,
      "t": 37804.732500000006,
      "d": 918.6956500000015,
      "v": 90
    },
    {
      "midi": 54,
      "hit": false,
      "t": 37804.732500000006,
      "d": 951.2158500000005,
      "v": 90
    },
    {
      "midi": 60,
      "hit": false,
      "t": 37804.732500000006,
      "d": 1069.1015750000006,
      "v": 90
    },
    {
      "midi": 62,
      "hit": false,
      "t": 37804.732500000006,
      "d": 1158.532124999998,
      "v": 90
    },
    {
      "midi": 69,
      "hit": false,
      "t": 37804.732500000006,
      "d": 1219.5074999999997,
      "v": 90
    },
    {
      "midi": 48,
      "hit": false,
      "t": 38780.338500000005,
      "d": 199.18622499999765,
      "v": 90
    },
    {
      "midi": 45,
      "hit": false,
      "t": 39024.240000000005,
      "d": 666.6641000000018,
      "v": 90
    },
    {
      "midi": 57,
      "hit": false,
      "t": 39024.240000000005,
      "d": 666.6641000000018,
      "v": 90
    },
    {
      "midi": 61,
      "hit": false,
      "t": 39024.240000000005,
      "d": 666.6641000000018,
      "v": 90
    },
    {
      "midi": 64,
      "hit": false,
      "t": 39024.240000000005,
      "d": 666.6641000000018,
      "v": 90
    },
    {
      "midi": 40,
      "hit": false,
      "t": 39755.944500000005,
      "d": 219.51135000000068,
      "v": 90
    },
    {
      "midi": 64,
      "hit": false,
      "t": 39755.944500000005,
      "d": 219.51135000000068,
      "v": 90
    },
    {
      "midi": 45,
      "hit": false,
      "t": 39999.846000000005,
      "d": 219.51135000000068,
      "v": 90
    },
    {
      "midi": 57,
      "hit": false,
      "t": 39999.846000000005,
      "d": 333.33204999999725,
      "v": 90
    },
    {
      "midi": 61,
      "hit": false,
      "t": 39999.846000000005,
      "d": 333.33204999999725,
      "v": 90
    },
    {
      "midi": 64,
      "hit": false,
      "t": 39999.846000000005,
      "d": 333.33204999999725,
      "v": 90
    },
    {
      "midi": 40,
      "hit": false,
      "t": 40243.747500000005,
      "d": 219.51135000000068,
      "v": 90
    },
    {
      "midi": 45,
      "hit": false,
      "t": 40487.649000000005,
      "d": 365.85225000000355,
      "v": 90
    },
    {
      "midi": 57,
      "hit": false,
      "t": 40487.649000000005,
      "d": 365.85225000000355,
      "v": 90
    },
    {
      "midi": 61,
      "hit": false,
      "t": 40487.649000000005,
      "d": 365.85225000000355,
      "v": 90
    },
    {
      "midi": 64,
      "hit": false,
      "t": 40487.649000000005,
      "d": 365.85225000000355,
      "v": 90
    },
    {
      "midi": 45,
      "hit": false,
      "t": 40975.45200000001,
      "d": 666.6641000000018,
      "v": 80
    },
    {
      "midi": 57,
      "hit": false,
      "t": 40975.45200000001,
      "d": 666.6641000000018,
      "v": 80
    },
    {
      "midi": 61,
      "hit": false,
      "t": 40975.45200000001,
      "d": 666.6641000000018,
      "v": 80
    },
    {
      "midi": 64,
      "hit": false,
      "t": 40975.45200000001,
      "d": 666.6641000000018,
      "v": 80
    },
    {
      "midi": 45,
      "hit": false,
      "t": 41707.15650000001,
      "d": 439.02270000000135,
      "v": 80
    },
    {
      "midi": 57,
      "hit": false,
      "t": 41707.15650000001,
      "d": 1093.4917249999999,
      "v": 80
    },
    {
      "midi": 61,
      "hit": false,
      "t": 41707.15650000001,
      "d": 1093.4917249999999,
      "v": 80
    },
    {
      "midi": 40,
      "hit": false,
      "t": 42194.95950000001,
      "d": 219.51135000000068,
      "v": 80
    },
    {
      "midi": 64,
      "hit": false,
      "t": 42194.95950000001,
      "d": 605.688725,
      "v": 80
    },
    {
      "midi": 45,
      "hit": false,
      "t": 42438.86100000001,
      "d": 219.51135000000068,
      "v": 80
    },
    {
      "midi": 40,
      "hit": false,
      "t": 42682.76250000001,
      "d": 219.51135000000068,
      "v": 80
    },
    {
      "midi": 45,
      "hit": false,
      "t": 42926.66400000001,
      "d": 658.534050000002,
      "v": 80
    },
    {
      "midi": 57,
      "hit": false,
      "t": 42926.66400000001,
      "d": 658.534050000002,
      "v": 80
    },
    {
      "midi": 61,
      "hit": false,
      "t": 42926.66400000001,
      "d": 658.534050000002,
      "v": 80
    },
    {
      "midi": 64,
      "hit": false,
      "t": 42926.66400000001,
      "d": 658.534050000002,
      "v": 80
    },
    {
      "midi": 57,
      "hit": false,
      "t": 43658.36850000001,
      "d": 219.51135000000068,
      "v": 80
    },
    {
      "midi": 61,
      "hit": false,
      "t": 43658.36850000001,
      "d": 219.51135000000068,
      "v": 80
    },
    {
      "midi": 64,
      "hit": false,
      "t": 43658.36850000001,
      "d": 219.51135000000068,
      "v": 80
    },
    {
      "midi": 45,
      "hit": false,
      "t": 43658.36850000001,
      "d": 439.02270000000135,
      "v": 80
    },
    {
      "midi": 52,
      "hit": false,
      "t": 44146.17150000001,
      "d": 219.51135000000068,
      "v": 80
    },
    {
      "midi": 57,
      "hit": false,
      "t": 44146.17150000001,
      "d": 540.6483250000019,
      "v": 80
    },
    {
      "midi": 61,
      "hit": false,
      "t": 44146.17150000001,
      "d": 540.6483250000019,
      "v": 80
    },
    {
      "midi": 64,
      "hit": false,
      "t": 44146.17150000001,
      "d": 540.6483250000019,
      "v": 80
    },
    {
      "midi": 49,
      "hit": false,
      "t": 44390.07300000001,
      "d": 219.51135000000068,
      "v": 80
    },
    {
      "midi": 45,
      "hit": false,
      "t": 44633.97450000001,
      "d": 199.18622500000492,
      "v": 80
    },
    {
      "midi": 50,
      "hit": false,
      "t": 44877.87600000002,
      "d": 666.6641000000018,
      "v": 80
    },
    {
      "midi": 57,
      "hit": false,
      "t": 44877.87600000002,
      "d": 666.6641000000018,
      "v": 80
    },
    {
      "midi": 62,
      "hit": false,
      "t": 44877.87600000002,
      "d": 666.6641000000018,
      "v": 80
    },
    {
      "midi": 66,
      "hit": false,
      "t": 44877.87600000002,
      "d": 666.6641000000018,
      "v": 80
    },
    {
      "midi": 50,
      "hit": false,
      "t": 45609.58050000002,
      "d": 439.02270000000135,
      "v": 80
    },
    {
      "midi": 57,
      "hit": false,
      "t": 45609.58050000002,
      "d": 1093.4917249999999,
      "v": 80
    },
    {
      "midi": 62,
      "hit": false,
      "t": 45609.58050000002,
      "d": 1093.4917249999999,
      "v": 80
    },
    {
      "midi": 66,
      "hit": false,
      "t": 45609.58050000002,
      "d": 1093.4917249999999,
      "v": 80
    },
    {
      "midi": 45,
      "hit": false,
      "t": 46097.38350000002,
      "d": 219.51135000000068,
      "v": 80
    },
    {
      "midi": 69,
      "hit": false,
      "t": 46097.38350000002,
      "d": 609.7537500000035,
      "v": 80
    },
    {
      "midi": 50,
      "hit": false,
      "t": 46341.28500000002,
      "d": 219.51135000000068,
      "v": 80
    },
    {
      "midi": 45,
      "hit": false,
      "t": 46585.18650000002,
      "d": 219.51135000000068,
      "v": 80
    },
    {
      "midi": 45,
      "hit": false,
      "t": 46829.08800000002,
      "d": 975.6059999999998,
      "v": 80
    },
    {
      "midi": 57,
      "hit": false,
      "t": 46829.08800000002,
      "d": 975.6059999999998,
      "v": 80
    },
    {
      "midi": 61,
      "hit": false,
      "t": 46829.08800000002,
      "d": 975.6059999999998,
      "v": 80
    },
    {
      "midi": 64,
      "hit": false,
      "t": 46829.08800000002,
      "d": 975.6059999999998,
      "v": 80
    },
    {
      "midi": 43,
      "hit": false,
      "t": 47804.69400000002,
      "d": 333.33204999999725,
      "v": 90
    },
    {
      "midi": 55,
      "hit": false,
      "t": 47804.69400000002,
      "d": 357.7221999999965,
      "v": 90
    },
    {
      "midi": 59,
      "hit": false,
      "t": 47804.69400000002,
      "d": 357.7221999999965,
      "v": 90
    },
    {
      "midi": 62,
      "hit": false,
      "t": 47804.69400000002,
      "d": 357.7221999999965,
      "v": 90
    },
    {
      "midi": 57,
      "hit": false,
      "t": 48292.49700000002,
      "d": 276.42169999999896,
      "v": 90
    },
    {
      "midi": 62,
      "hit": false,
      "t": 48292.49700000002,
      "d": 276.42169999999896,
      "v": 90
    },
    {
      "midi": 66,
      "hit": false,
      "t": 48292.49700000002,
      "d": 276.42169999999896,
      "v": 90
    },
    {
      "midi": 45,
      "hit": false,
      "t": 48292.49700000002,
      "d": 333.33204999999725,
      "v": 90
    },
    {
      "midi": 50,
      "hit": false,
      "t": 52682.72400000002,
      "d": 666.6641000000018,
      "v": 80
    },
    {
      "midi": 57,
      "hit": false,
      "t": 52682.72400000002,
      "d": 666.6641000000018,
      "v": 80
    },
    {
      "midi": 62,
      "hit": false,
      "t": 52682.72400000002,
      "d": 666.6641000000018,
      "v": 80
    },
    {
      "midi": 66,
      "hit": false,
      "t": 52682.72400000002,
      "d": 666.6641000000018,
      "v": 80
    },
    {
      "midi": 50,
      "hit": false,
      "t": 53414.428500000016,
      "d": 439.02270000000135,
      "v": 80
    },
    {
      "midi": 57,
      "hit": false,
      "t": 53414.428500000016,
      "d": 1093.4917249999999,
      "v": 80
    },
    {
      "midi": 62,
      "hit": false,
      "t": 53414.428500000016,
      "d": 1093.4917249999999,
      "v": 80
    },
    {
      "midi": 66,
      "hit": false,
      "t": 53414.428500000016,
      "d": 1093.4917249999999,
      "v": 80
    },
    {
      "midi": 45,
      "hit": false,
      "t": 53902.231500000016,
      "d": 219.51135000000068,
      "v": 80
    },
    {
      "midi": 69,
      "hit": false,
      "t": 53902.231500000016,
      "d": 609.7537500000035,
      "v": 80
    },
    {
      "midi": 50,
      "hit": false,
      "t": 54146.133000000016,
      "d": 219.51135000000068,
      "v": 80
    },
    {
      "midi": 45,
      "hit": false,
      "t": 54390.034500000016,
      "d": 219.51135000000068,
      "v": 80
    },
    {
      "midi": 45,
      "hit": false,
      "t": 54633.936000000016,
      "d": 975.6059999999998,
      "v": 80
    },
    {
      "midi": 57,
      "hit": false,
      "t": 54633.936000000016,
      "d": 975.6059999999998,
      "v": 80
    },
    {
      "midi": 61,
      "hit": false,
      "t": 54633.936000000016,
      "d": 975.6059999999998,
      "v": 80
    },
    {
      "midi": 64,
      "hit": false,
      "t": 54633.936000000016,
      "d": 975.6059999999998,
      "v": 80
    },
    {
      "midi": 43,
      "hit": false,
      "t": 55609.542000000016,
      "d": 487.8029999999999,
      "v": 80
    },
    {
      "midi": 55,
      "hit": false,
      "t": 55609.542000000016,
      "d": 487.8029999999999,
      "v": 80
    },
    {
      "midi": 59,
      "hit": false,
      "t": 55609.542000000016,
      "d": 487.8029999999999,
      "v": 80
    },
    {
      "midi": 62,
      "hit": false,
      "t": 55609.542000000016,
      "d": 487.8029999999999,
      "v": 80
    },
    {
      "midi": 57,
      "hit": false,
      "t": 56097.345000000016,
      "d": 276.42169999999896,
      "v": 90
    },
    {
      "midi": 62,
      "hit": false,
      "t": 56097.345000000016,
      "d": 276.42169999999896,
      "v": 90
    },
    {
      "midi": 66,
      "hit": false,
      "t": 56097.345000000016,
      "d": 276.42169999999896,
      "v": 90
    },
    {
      "midi": 45,
      "hit": false,
      "t": 56097.345000000016,
      "d": 333.33204999999725,
      "v": 90
    },
    {
      "midi": 45,
      "hit": false,
      "t": 56585.148000000016,
      "d": 487.8029999999999,
      "v": 80
    },
    {
      "midi": 57,
      "hit": false,
      "t": 56585.148000000016,
      "d": 487.8029999999999,
      "v": 80
    },
    {
      "midi": 61,
      "hit": false,
      "t": 56585.148000000016,
      "d": 487.8029999999999,
      "v": 80
    },
    {
      "midi": 64,
      "hit": false,
      "t": 56585.148000000016,
      "d": 487.8029999999999,
      "v": 80
    },
    {
      "midi": 45,
      "hit": false,
      "t": 57072.951000000015,
      "d": 487.8029999999999,
      "v": 80
    },
    {
      "midi": 61,
      "hit": false,
      "t": 57072.951000000015,
      "d": 487.8029999999999,
      "v": 80
    },
    {
      "midi": 64,
      "hit": false,
      "t": 57072.951000000015,
      "d": 487.8029999999999,
      "v": 80
    },
    {
      "midi": 66,
      "hit": false,
      "t": 57072.951000000015,
      "d": 487.8029999999999,
      "v": 80
    },
    {
      "midi": 69,
      "hit": false,
      "t": 57072.951000000015,
      "d": 487.8029999999999,
      "v": 80
    },
    {
      "midi": 45,
      "hit": false,
      "t": 57560.754000000015,
      "d": 487.8029999999999,
      "v": 80
    },
    {
      "midi": 57,
      "hit": false,
      "t": 57560.754000000015,
      "d": 487.8029999999999,
      "v": 80
    },
    {
      "midi": 61,
      "hit": false,
      "t": 57560.754000000015,
      "d": 487.8029999999999,
      "v": 80
    },
    {
      "midi": 64,
      "hit": false,
      "t": 57560.754000000015,
      "d": 487.8029999999999,
      "v": 80
    },
    {
      "midi": 45,
      "hit": false,
      "t": 58048.557000000015,
      "d": 487.8029999999999,
      "v": 80
    },
    {
      "midi": 61,
      "hit": false,
      "t": 58048.557000000015,
      "d": 487.8029999999999,
      "v": 80
    },
    {
      "midi": 64,
      "hit": false,
      "t": 58048.557000000015,
      "d": 487.8029999999999,
      "v": 80
    },
    {
      "midi": 66,
      "hit": false,
      "t": 58048.557000000015,
      "d": 487.8029999999999,
      "v": 80
    },
    {
      "midi": 69,
      "hit": false,
      "t": 58048.557000000015,
      "d": 487.8029999999999,
      "v": 80
    },
    {
      "midi": 45,
      "hit": false,
      "t": 58536.360000000015,
      "d": 487.8029999999999,
      "v": 80
    },
    {
      "midi": 57,
      "hit": false,
      "t": 58536.360000000015,
      "d": 487.8029999999999,
      "v": 80
    },
    {
      "midi": 61,
      "hit": false,
      "t": 58536.360000000015,
      "d": 487.8029999999999,
      "v": 80
    },
    {
      "midi": 64,
      "hit": false,
      "t": 58536.360000000015,
      "d": 487.8029999999999,
      "v": 80
    },
    {
      "midi": 45,
      "hit": false,
      "t": 59024.163000000015,
      "d": 487.8029999999999,
      "v": 80
    },
    {
      "midi": 61,
      "hit": false,
      "t": 59024.163000000015,
      "d": 487.8029999999999,
      "v": 80
    },
    {
      "midi": 64,
      "hit": false,
      "t": 59024.163000000015,
      "d": 487.8029999999999,
      "v": 80
    },
    {
      "midi": 66,
      "hit": false,
      "t": 59024.163000000015,
      "d": 487.8029999999999,
      "v": 80
    },
    {
      "midi": 69,
      "hit": false,
      "t": 59024.163000000015,
      "d": 487.8029999999999,
      "v": 80
    },
    {
      "midi": 45,
      "hit": false,
      "t": 59511.966000000015,
      "d": 487.8029999999999,
      "v": 80
    },
    {
      "midi": 57,
      "hit": false,
      "t": 59511.966000000015,
      "d": 487.8029999999999,
      "v": 80
    },
    {
      "midi": 61,
      "hit": false,
      "t": 59511.966000000015,
      "d": 487.8029999999999,
      "v": 80
    },
    {
      "midi": 64,
      "hit": false,
      "t": 59511.966000000015,
      "d": 487.8029999999999,
      "v": 80
    },
    {
      "midi": 45,
      "hit": false,
      "t": 59999.769000000015,
      "d": 487.8029999999999,
      "v": 80
    },
    {
      "midi": 61,
      "hit": false,
      "t": 59999.769000000015,
      "d": 487.8029999999999,
      "v": 80
    },
    {
      "midi": 64,
      "hit": false,
      "t": 59999.769000000015,
      "d": 487.8029999999999,
      "v": 80
    },
    {
      "midi": 66,
      "hit": false,
      "t": 59999.769000000015,
      "d": 487.8029999999999,
      "v": 80
    },
    {
      "midi": 69,
      "hit": false,
      "t": 59999.769000000015,
      "d": 487.8029999999999,
      "v": 80
    },
    {
      "midi": 50,
      "hit": false,
      "t": 60487.572000000015,
      "d": 487.8029999999999,
      "v": 80
    },
    {
      "midi": 57,
      "hit": false,
      "t": 60487.572000000015,
      "d": 487.8029999999999,
      "v": 80
    },
    {
      "midi": 62,
      "hit": false,
      "t": 60487.572000000015,
      "d": 487.8029999999999,
      "v": 80
    },
    {
      "midi": 66,
      "hit": false,
      "t": 60487.572000000015,
      "d": 487.8029999999999,
      "v": 80
    },
    {
      "midi": 50,
      "hit": false,
      "t": 60975.375000000015,
      "d": 487.8029999999999,
      "v": 80
    },
    {
      "midi": 59,
      "hit": false,
      "t": 60975.375000000015,
      "d": 487.8029999999999,
      "v": 80
    },
    {
      "midi": 62,
      "hit": false,
      "t": 60975.375000000015,
      "d": 487.8029999999999,
      "v": 80
    },
    {
      "midi": 66,
      "hit": false,
      "t": 60975.375000000015,
      "d": 487.8029999999999,
      "v": 80
    },
    {
      "midi": 69,
      "hit": false,
      "t": 60975.375000000015,
      "d": 487.8029999999999,
      "v": 80
    },
    {
      "midi": 50,
      "hit": false,
      "t": 61463.178000000014,
      "d": 487.8029999999999,
      "v": 80
    },
    {
      "midi": 57,
      "hit": false,
      "t": 61463.178000000014,
      "d": 487.8029999999999,
      "v": 80
    },
    {
      "midi": 62,
      "hit": false,
      "t": 61463.178000000014,
      "d": 487.8029999999999,
      "v": 80
    },
    {
      "midi": 66,
      "hit": false,
      "t": 61463.178000000014,
      "d": 487.8029999999999,
      "v": 80
    },
    {
      "midi": 50,
      "hit": false,
      "t": 61950.981000000014,
      "d": 487.8029999999999,
      "v": 80
    },
    {
      "midi": 59,
      "hit": false,
      "t": 61950.981000000014,
      "d": 487.8029999999999,
      "v": 80
    },
    {
      "midi": 62,
      "hit": false,
      "t": 61950.981000000014,
      "d": 487.8029999999999,
      "v": 80
    },
    {
      "midi": 66,
      "hit": false,
      "t": 61950.981000000014,
      "d": 487.8029999999999,
      "v": 80
    },
    {
      "midi": 69,
      "hit": false,
      "t": 61950.981000000014,
      "d": 487.8029999999999,
      "v": 80
    },
    {
      "midi": 45,
      "hit": false,
      "t": 62438.784000000014,
      "d": 487.8029999999999,
      "v": 80
    },
    {
      "midi": 57,
      "hit": false,
      "t": 62438.784000000014,
      "d": 487.8029999999999,
      "v": 80
    },
    {
      "midi": 61,
      "hit": false,
      "t": 62438.784000000014,
      "d": 487.8029999999999,
      "v": 80
    },
    {
      "midi": 64,
      "hit": false,
      "t": 62438.784000000014,
      "d": 487.8029999999999,
      "v": 80
    },
    {
      "midi": 45,
      "hit": false,
      "t": 62926.587000000014,
      "d": 487.8029999999999,
      "v": 80
    },
    {
      "midi": 61,
      "hit": false,
      "t": 62926.587000000014,
      "d": 487.8029999999999,
      "v": 80
    },
    {
      "midi": 64,
      "hit": false,
      "t": 62926.587000000014,
      "d": 487.8029999999999,
      "v": 80
    },
    {
      "midi": 66,
      "hit": false,
      "t": 62926.587000000014,
      "d": 487.8029999999999,
      "v": 80
    },
    {
      "midi": 69,
      "hit": false,
      "t": 62926.587000000014,
      "d": 487.8029999999999,
      "v": 80
    },
    {
      "midi": 43,
      "hit": false,
      "t": 63414.390000000014,
      "d": 333.33204999999725,
      "v": 90
    },
    {
      "midi": 55,
      "hit": false,
      "t": 63414.390000000014,
      "d": 357.7221999999965,
      "v": 90
    },
    {
      "midi": 59,
      "hit": false,
      "t": 63414.390000000014,
      "d": 357.7221999999965,
      "v": 90
    },
    {
      "midi": 62,
      "hit": false,
      "t": 63414.390000000014,
      "d": 357.7221999999965,
      "v": 90
    },
    {
      "midi": 57,
      "hit": false,
      "t": 63902.193000000014,
      "d": 276.42169999999896,
      "v": 90
    },
    {
      "midi": 62,
      "hit": false,
      "t": 63902.193000000014,
      "d": 276.42169999999896,
      "v": 90
    },
    {
      "midi": 66,
      "hit": false,
      "t": 63902.193000000014,
      "d": 276.42169999999896,
      "v": 90
    },
    {
      "midi": 45,
      "hit": false,
      "t": 63902.193000000014,
      "d": 333.33204999999725,
      "v": 90
    },
    {
      "midi": 45,
      "hit": false,
      "t": 64389.996000000014,
      "d": 487.8029999999999,
      "v": 80
    },
    {
      "midi": 57,
      "hit": false,
      "t": 64389.996000000014,
      "d": 487.8029999999999,
      "v": 80
    },
    {
      "midi": 61,
      "hit": false,
      "t": 64389.996000000014,
      "d": 487.8029999999999,
      "v": 80
    },
    {
      "midi": 64,
      "hit": false,
      "t": 64389.996000000014,
      "d": 487.8029999999999,
      "v": 80
    },
    {
      "midi": 45,
      "hit": false,
      "t": 64877.79900000001,
      "d": 487.8029999999999,
      "v": 80
    },
    {
      "midi": 61,
      "hit": false,
      "t": 64877.79900000001,
      "d": 487.8029999999999,
      "v": 80
    },
    {
      "midi": 64,
      "hit": false,
      "t": 64877.79900000001,
      "d": 487.8029999999999,
      "v": 80
    },
    {
      "midi": 66,
      "hit": false,
      "t": 64877.79900000001,
      "d": 487.8029999999999,
      "v": 80
    },
    {
      "midi": 69,
      "hit": false,
      "t": 64877.79900000001,
      "d": 487.8029999999999,
      "v": 80
    },
    {
      "midi": 45,
      "hit": false,
      "t": 65365.60200000001,
      "d": 487.8029999999999,
      "v": 80
    },
    {
      "midi": 57,
      "hit": false,
      "t": 65365.60200000001,
      "d": 487.8029999999999,
      "v": 80
    },
    {
      "midi": 61,
      "hit": false,
      "t": 65365.60200000001,
      "d": 487.8029999999999,
      "v": 80
    },
    {
      "midi": 64,
      "hit": false,
      "t": 65365.60200000001,
      "d": 487.8029999999999,
      "v": 80
    },
    {
      "midi": 45,
      "hit": false,
      "t": 65853.40500000001,
      "d": 487.8029999999999,
      "v": 80
    },
    {
      "midi": 61,
      "hit": false,
      "t": 65853.40500000001,
      "d": 487.8029999999999,
      "v": 80
    },
    {
      "midi": 64,
      "hit": false,
      "t": 65853.40500000001,
      "d": 487.8029999999999,
      "v": 80
    },
    {
      "midi": 66,
      "hit": false,
      "t": 65853.40500000001,
      "d": 487.8029999999999,
      "v": 80
    },
    {
      "midi": 69,
      "hit": false,
      "t": 65853.40500000001,
      "d": 487.8029999999999,
      "v": 80
    },
    {
      "midi": 45,
      "hit": false,
      "t": 66341.20800000001,
      "d": 487.8029999999999,
      "v": 80
    },
    {
      "midi": 57,
      "hit": false,
      "t": 66341.20800000001,
      "d": 487.8029999999999,
      "v": 80
    },
    {
      "midi": 61,
      "hit": false,
      "t": 66341.20800000001,
      "d": 487.8029999999999,
      "v": 80
    },
    {
      "midi": 64,
      "hit": false,
      "t": 66341.20800000001,
      "d": 487.8029999999999,
      "v": 80
    },
    {
      "midi": 45,
      "hit": false,
      "t": 66829.01100000001,
      "d": 487.8029999999999,
      "v": 80
    },
    {
      "midi": 61,
      "hit": false,
      "t": 66829.01100000001,
      "d": 487.8029999999999,
      "v": 80
    },
    {
      "midi": 64,
      "hit": false,
      "t": 66829.01100000001,
      "d": 487.8029999999999,
      "v": 80
    },
    {
      "midi": 66,
      "hit": false,
      "t": 66829.01100000001,
      "d": 487.8029999999999,
      "v": 80
    },
    {
      "midi": 69,
      "hit": false,
      "t": 66829.01100000001,
      "d": 487.8029999999999,
      "v": 80
    },
    {
      "midi": 45,
      "hit": false,
      "t": 67316.81400000001,
      "d": 487.8029999999999,
      "v": 80
    },
    {
      "midi": 57,
      "hit": false,
      "t": 67316.81400000001,
      "d": 487.8029999999999,
      "v": 80
    },
    {
      "midi": 61,
      "hit": false,
      "t": 67316.81400000001,
      "d": 487.8029999999999,
      "v": 80
    },
    {
      "midi": 64,
      "hit": false,
      "t": 67316.81400000001,
      "d": 487.8029999999999,
      "v": 80
    },
    {
      "midi": 45,
      "hit": false,
      "t": 67804.61700000001,
      "d": 487.8029999999999,
      "v": 80
    },
    {
      "midi": 61,
      "hit": false,
      "t": 67804.61700000001,
      "d": 487.8029999999999,
      "v": 80
    },
    {
      "midi": 64,
      "hit": false,
      "t": 67804.61700000001,
      "d": 487.8029999999999,
      "v": 80
    },
    {
      "midi": 66,
      "hit": false,
      "t": 67804.61700000001,
      "d": 487.8029999999999,
      "v": 80
    },
    {
      "midi": 69,
      "hit": false,
      "t": 67804.61700000001,
      "d": 487.8029999999999,
      "v": 80
    },
    {
      "midi": 45,
      "hit": false,
      "t": 68292.42000000001,
      "d": 487.8029999999999,
      "v": 80
    },
    {
      "midi": 57,
      "hit": false,
      "t": 68292.42000000001,
      "d": 487.8029999999999,
      "v": 80
    },
    {
      "midi": 61,
      "hit": false,
      "t": 68292.42000000001,
      "d": 487.8029999999999,
      "v": 80
    },
    {
      "midi": 64,
      "hit": false,
      "t": 68292.42000000001,
      "d": 487.8029999999999,
      "v": 80
    },
    {
      "midi": 45,
      "hit": false,
      "t": 68780.22300000001,
      "d": 487.8029999999999,
      "v": 80
    },
    {
      "midi": 61,
      "hit": false,
      "t": 68780.22300000001,
      "d": 487.8029999999999,
      "v": 80
    },
    {
      "midi": 64,
      "hit": false,
      "t": 68780.22300000001,
      "d": 487.8029999999999,
      "v": 80
    },
    {
      "midi": 66,
      "hit": false,
      "t": 68780.22300000001,
      "d": 487.8029999999999,
      "v": 80
    },
    {
      "midi": 69,
      "hit": false,
      "t": 68780.22300000001,
      "d": 487.8029999999999,
      "v": 80
    },
    {
      "midi": 45,
      "hit": false,
      "t": 69268.02600000001,
      "d": 487.8029999999999,
      "v": 80
    },
    {
      "midi": 57,
      "hit": false,
      "t": 69268.02600000001,
      "d": 487.8029999999999,
      "v": 80
    },
    {
      "midi": 61,
      "hit": false,
      "t": 69268.02600000001,
      "d": 487.8029999999999,
      "v": 80
    },
    {
      "midi": 64,
      "hit": false,
      "t": 69268.02600000001,
      "d": 487.8029999999999,
      "v": 80
    },
    {
      "midi": 45,
      "hit": false,
      "t": 69755.82900000001,
      "d": 203.25125000000116,
      "v": 80
    },
    {
      "midi": 61,
      "hit": false,
      "t": 69755.82900000001,
      "d": 203.25125000000116,
      "v": 80
    },
    {
      "midi": 64,
      "hit": false,
      "t": 69755.82900000001,
      "d": 203.25125000000116,
      "v": 80
    },
    {
      "midi": 66,
      "hit": false,
      "t": 69755.82900000001,
      "d": 203.25125000000116,
      "v": 80
    },
    {
      "midi": 69,
      "hit": false,
      "t": 69755.82900000001,
      "d": 203.25125000000116,
      "v": 80
    },
    {
      "midi": 50,
      "hit": false,
      "t": 69999.73050000002,
      "d": 902.4355499999947,
      "v": 80
    },
    {
      "midi": 57,
      "hit": false,
      "t": 69999.73050000002,
      "d": 902.4355499999947,
      "v": 80
    },
    {
      "midi": 62,
      "hit": false,
      "t": 69999.73050000002,
      "d": 902.4355499999947,
      "v": 80
    },
    {
      "midi": 66,
      "hit": false,
      "t": 69999.73050000002,
      "d": 902.4355499999947,
      "v": 80
    },
    {
      "midi": 50,
      "hit": false,
      "t": 70975.33650000002,
      "d": 439.02270000000135,
      "v": 80
    },
    {
      "midi": 57,
      "hit": false,
      "t": 70975.33650000002,
      "d": 1093.4917250000144,
      "v": 80
    },
    {
      "midi": 62,
      "hit": false,
      "t": 70975.33650000002,
      "d": 1093.4917250000144,
      "v": 80
    },
    {
      "midi": 66,
      "hit": false,
      "t": 70975.33650000002,
      "d": 1093.4917250000144,
      "v": 80
    },
    {
      "midi": 45,
      "hit": false,
      "t": 71463.13950000002,
      "d": 219.51135000000068,
      "v": 80
    },
    {
      "midi": 69,
      "hit": false,
      "t": 71463.13950000002,
      "d": 609.753750000018,
      "v": 80
    },
    {
      "midi": 50,
      "hit": false,
      "t": 71707.04100000003,
      "d": 219.51135000000068,
      "v": 80
    },
    {
      "midi": 45,
      "hit": false,
      "t": 71950.94250000003,
      "d": 219.51135000000068,
      "v": 80
    },
    {
      "midi": 50,
      "hit": false,
      "t": 72194.84400000004,
      "d": 666.6640999999945,
      "v": 80
    },
    {
      "midi": 57,
      "hit": false,
      "t": 72194.84400000004,
      "d": 666.6640999999945,
      "v": 80
    },
    {
      "midi": 62,
      "hit": false,
      "t": 72194.84400000004,
      "d": 666.6640999999945,
      "v": 80
    },
    {
      "midi": 66,
      "hit": false,
      "t": 72194.84400000004,
      "d": 666.6640999999945,
      "v": 80
    },
    {
      "midi": 50,
      "hit": false,
      "t": 72926.54850000003,
      "d": 439.02270000000135,
      "v": 80
    },
    {
      "midi": 57,
      "hit": false,
      "t": 72926.54850000003,
      "d": 1093.4917250000144,
      "v": 80
    },
    {
      "midi": 62,
      "hit": false,
      "t": 72926.54850000003,
      "d": 1093.4917250000144,
      "v": 80
    },
    {
      "midi": 66,
      "hit": false,
      "t": 72926.54850000003,
      "d": 1093.4917250000144,
      "v": 80
    },
    {
      "midi": 45,
      "hit": false,
      "t": 73414.35150000003,
      "d": 219.51135000000068,
      "v": 80
    },
    {
      "midi": 69,
      "hit": false,
      "t": 73414.35150000003,
      "d": 609.753750000018,
      "v": 80
    },
    {
      "midi": 50,
      "hit": false,
      "t": 73658.25300000004,
      "d": 219.51135000000068,
      "v": 80
    },
    {
      "midi": 45,
      "hit": false,
      "t": 73902.15450000005,
      "d": 219.51135000000068,
      "v": 80
    },
    {
      "midi": 45,
      "hit": false,
      "t": 74146.05600000006,
      "d": 487.8029999999999,
      "v": 80
    },
    {
      "midi": 57,
      "hit": false,
      "t": 74146.05600000006,
      "d": 487.8029999999999,
      "v": 80
    },
    {
      "midi": 61,
      "hit": false,
      "t": 74146.05600000006,
      "d": 487.8029999999999,
      "v": 80
    },
    {
      "midi": 64,
      "hit": false,
      "t": 74146.05600000006,
      "d": 487.8029999999999,
      "v": 80
    },
    {
      "midi": 45,
      "hit": false,
      "t": 74633.85900000005,
      "d": 487.8029999999999,
      "v": 80
    },
    {
      "midi": 61,
      "hit": false,
      "t": 74633.85900000005,
      "d": 487.8029999999999,
      "v": 80
    },
    {
      "midi": 64,
      "hit": false,
      "t": 74633.85900000005,
      "d": 487.8029999999999,
      "v": 80
    },
    {
      "midi": 66,
      "hit": false,
      "t": 74633.85900000005,
      "d": 487.8029999999999,
      "v": 80
    },
    {
      "midi": 69,
      "hit": false,
      "t": 74633.85900000005,
      "d": 487.8029999999999,
      "v": 80
    },
    {
      "midi": 45,
      "hit": false,
      "t": 75121.66200000005,
      "d": 487.8029999999999,
      "v": 80
    },
    {
      "midi": 57,
      "hit": false,
      "t": 75121.66200000005,
      "d": 487.8029999999999,
      "v": 80
    },
    {
      "midi": 61,
      "hit": false,
      "t": 75121.66200000005,
      "d": 487.8029999999999,
      "v": 80
    },
    {
      "midi": 64,
      "hit": false,
      "t": 75121.66200000005,
      "d": 487.8029999999999,
      "v": 80
    },
    {
      "midi": 45,
      "hit": false,
      "t": 75609.46500000005,
      "d": 487.8029999999999,
      "v": 80
    },
    {
      "midi": 61,
      "hit": false,
      "t": 75609.46500000005,
      "d": 487.8029999999999,
      "v": 80
    },
    {
      "midi": 64,
      "hit": false,
      "t": 75609.46500000005,
      "d": 487.8029999999999,
      "v": 80
    },
    {
      "midi": 66,
      "hit": false,
      "t": 75609.46500000005,
      "d": 487.8029999999999,
      "v": 80
    },
    {
      "midi": 69,
      "hit": false,
      "t": 75609.46500000005,
      "d": 487.8029999999999,
      "v": 80
    },
    {
      "midi": 45,
      "hit": false,
      "t": 76097.26800000005,
      "d": 487.8029999999999,
      "v": 80
    },
    {
      "midi": 57,
      "hit": false,
      "t": 76097.26800000005,
      "d": 487.8029999999999,
      "v": 80
    },
    {
      "midi": 61,
      "hit": false,
      "t": 76097.26800000005,
      "d": 487.8029999999999,
      "v": 80
    },
    {
      "midi": 64,
      "hit": false,
      "t": 76097.26800000005,
      "d": 487.8029999999999,
      "v": 80
    },
    {
      "midi": 45,
      "hit": false,
      "t": 76585.07100000005,
      "d": 487.8029999999999,
      "v": 80
    },
    {
      "midi": 61,
      "hit": false,
      "t": 76585.07100000005,
      "d": 487.8029999999999,
      "v": 80
    },
    {
      "midi": 64,
      "hit": false,
      "t": 76585.07100000005,
      "d": 487.8029999999999,
      "v": 80
    },
    {
      "midi": 66,
      "hit": false,
      "t": 76585.07100000005,
      "d": 487.8029999999999,
      "v": 80
    },
    {
      "midi": 69,
      "hit": false,
      "t": 76585.07100000005,
      "d": 487.8029999999999,
      "v": 80
    },
    {
      "midi": 45,
      "hit": false,
      "t": 77072.87400000005,
      "d": 487.8029999999999,
      "v": 80
    },
    {
      "midi": 57,
      "hit": false,
      "t": 77072.87400000005,
      "d": 487.8029999999999,
      "v": 80
    },
    {
      "midi": 61,
      "hit": false,
      "t": 77072.87400000005,
      "d": 487.8029999999999,
      "v": 80
    },
    {
      "midi": 64,
      "hit": false,
      "t": 77072.87400000005,
      "d": 487.8029999999999,
      "v": 80
    },
    {
      "midi": 45,
      "hit": false,
      "t": 77560.67700000005,
      "d": 487.8029999999999,
      "v": 80
    },
    {
      "midi": 61,
      "hit": false,
      "t": 77560.67700000005,
      "d": 487.8029999999999,
      "v": 80
    },
    {
      "midi": 64,
      "hit": false,
      "t": 77560.67700000005,
      "d": 487.8029999999999,
      "v": 80
    },
    {
      "midi": 66,
      "hit": false,
      "t": 77560.67700000005,
      "d": 487.8029999999999,
      "v": 80
    },
    {
      "midi": 69,
      "hit": false,
      "t": 77560.67700000005,
      "d": 487.8029999999999,
      "v": 80
    },
    {
      "midi": 50,
      "hit": false,
      "t": 78048.48000000005,
      "d": 487.8029999999999,
      "v": 80
    },
    {
      "midi": 57,
      "hit": false,
      "t": 78048.48000000005,
      "d": 487.8029999999999,
      "v": 80
    },
    {
      "midi": 62,
      "hit": false,
      "t": 78048.48000000005,
      "d": 487.8029999999999,
      "v": 80
    },
    {
      "midi": 66,
      "hit": false,
      "t": 78048.48000000005,
      "d": 487.8029999999999,
      "v": 80
    },
    {
      "midi": 50,
      "hit": false,
      "t": 78536.28300000005,
      "d": 487.8029999999999,
      "v": 80
    },
    {
      "midi": 59,
      "hit": false,
      "t": 78536.28300000005,
      "d": 487.8029999999999,
      "v": 80
    },
    {
      "midi": 62,
      "hit": false,
      "t": 78536.28300000005,
      "d": 487.8029999999999,
      "v": 80
    },
    {
      "midi": 66,
      "hit": false,
      "t": 78536.28300000005,
      "d": 487.8029999999999,
      "v": 80
    },
    {
      "midi": 69,
      "hit": false,
      "t": 78536.28300000005,
      "d": 487.8029999999999,
      "v": 80
    },
    {
      "midi": 50,
      "hit": false,
      "t": 79024.08600000005,
      "d": 487.8029999999999,
      "v": 80
    },
    {
      "midi": 57,
      "hit": false,
      "t": 79024.08600000005,
      "d": 487.8029999999999,
      "v": 80
    },
    {
      "midi": 62,
      "hit": false,
      "t": 79024.08600000005,
      "d": 487.8029999999999,
      "v": 80
    },
    {
      "midi": 66,
      "hit": false,
      "t": 79024.08600000005,
      "d": 487.8029999999999,
      "v": 80
    },
    {
      "midi": 50,
      "hit": false,
      "t": 79511.88900000005,
      "d": 487.8029999999999,
      "v": 80
    },
    {
      "midi": 59,
      "hit": false,
      "t": 79511.88900000005,
      "d": 487.8029999999999,
      "v": 80
    },
    {
      "midi": 62,
      "hit": false,
      "t": 79511.88900000005,
      "d": 487.8029999999999,
      "v": 80
    },
    {
      "midi": 66,
      "hit": false,
      "t": 79511.88900000005,
      "d": 487.8029999999999,
      "v": 80
    },
    {
      "midi": 69,
      "hit": false,
      "t": 79511.88900000005,
      "d": 487.8029999999999,
      "v": 80
    },
    {
      "midi": 45,
      "hit": false,
      "t": 79999.69200000005,
      "d": 975.6059999999998,
      "v": 80
    },
    {
      "midi": 57,
      "hit": false,
      "t": 79999.69200000005,
      "d": 975.6059999999998,
      "v": 80
    },
    {
      "midi": 61,
      "hit": false,
      "t": 79999.69200000005,
      "d": 975.6059999999998,
      "v": 80
    },
    {
      "midi": 64,
      "hit": false,
      "t": 79999.69200000005,
      "d": 975.6059999999998,
      "v": 80
    },
    {
      "midi": 43,
      "hit": false,
      "t": 80975.29800000005,
      "d": 333.33204999999725,
      "v": 90
    },
    {
      "midi": 55,
      "hit": false,
      "t": 80975.29800000005,
      "d": 357.7222000000038,
      "v": 90
    },
    {
      "midi": 59,
      "hit": false,
      "t": 80975.29800000005,
      "d": 357.7222000000038,
      "v": 90
    },
    {
      "midi": 62,
      "hit": false,
      "t": 80975.29800000005,
      "d": 357.7222000000038,
      "v": 90
    },
    {
      "midi": 50,
      "hit": false,
      "t": 81463.10100000005,
      "d": 487.8029999999999,
      "v": 80
    },
    {
      "midi": 57,
      "hit": false,
      "t": 81463.10100000005,
      "d": 487.8029999999999,
      "v": 80
    },
    {
      "midi": 62,
      "hit": false,
      "t": 81463.10100000005,
      "d": 487.8029999999999,
      "v": 80
    },
    {
      "midi": 66,
      "hit": false,
      "t": 81463.10100000005,
      "d": 487.8029999999999,
      "v": 80
    },
    {
      "midi": 45,
      "hit": false,
      "t": 81950.90400000005,
      "d": 487.8029999999999,
      "v": 80
    },
    {
      "midi": 57,
      "hit": false,
      "t": 81950.90400000005,
      "d": 487.8029999999999,
      "v": 80
    },
    {
      "midi": 61,
      "hit": false,
      "t": 81950.90400000005,
      "d": 487.8029999999999,
      "v": 80
    },
    {
      "midi": 64,
      "hit": false,
      "t": 81950.90400000005,
      "d": 487.8029999999999,
      "v": 80
    },
    {
      "midi": 45,
      "hit": false,
      "t": 82438.70700000005,
      "d": 487.8029999999999,
      "v": 80
    },
    {
      "midi": 61,
      "hit": false,
      "t": 82438.70700000005,
      "d": 487.8029999999999,
      "v": 80
    },
    {
      "midi": 64,
      "hit": false,
      "t": 82438.70700000005,
      "d": 487.8029999999999,
      "v": 80
    },
    {
      "midi": 66,
      "hit": false,
      "t": 82438.70700000005,
      "d": 487.8029999999999,
      "v": 80
    },
    {
      "midi": 69,
      "hit": false,
      "t": 82438.70700000005,
      "d": 487.8029999999999,
      "v": 80
    },
    {
      "midi": 45,
      "hit": false,
      "t": 82926.51000000005,
      "d": 487.8029999999999,
      "v": 80
    },
    {
      "midi": 57,
      "hit": false,
      "t": 82926.51000000005,
      "d": 487.8029999999999,
      "v": 80
    },
    {
      "midi": 61,
      "hit": false,
      "t": 82926.51000000005,
      "d": 487.8029999999999,
      "v": 80
    },
    {
      "midi": 64,
      "hit": false,
      "t": 82926.51000000005,
      "d": 487.8029999999999,
      "v": 80
    },
    {
      "midi": 45,
      "hit": false,
      "t": 83414.31300000005,
      "d": 487.8029999999999,
      "v": 80
    },
    {
      "midi": 61,
      "hit": false,
      "t": 83414.31300000005,
      "d": 487.8029999999999,
      "v": 80
    },
    {
      "midi": 64,
      "hit": false,
      "t": 83414.31300000005,
      "d": 487.8029999999999,
      "v": 80
    },
    {
      "midi": 66,
      "hit": false,
      "t": 83414.31300000005,
      "d": 487.8029999999999,
      "v": 80
    },
    {
      "midi": 69,
      "hit": false,
      "t": 83414.31300000005,
      "d": 487.8029999999999,
      "v": 80
    },
    {
      "midi": 45,
      "hit": false,
      "t": 83902.11600000005,
      "d": 487.8029999999999,
      "v": 80
    },
    {
      "midi": 57,
      "hit": false,
      "t": 83902.11600000005,
      "d": 487.8029999999999,
      "v": 80
    },
    {
      "midi": 61,
      "hit": false,
      "t": 83902.11600000005,
      "d": 487.8029999999999,
      "v": 80
    },
    {
      "midi": 64,
      "hit": false,
      "t": 83902.11600000005,
      "d": 487.8029999999999,
      "v": 80
    },
    {
      "midi": 45,
      "hit": false,
      "t": 84389.91900000005,
      "d": 487.8029999999999,
      "v": 80
    },
    {
      "midi": 61,
      "hit": false,
      "t": 84389.91900000005,
      "d": 487.8029999999999,
      "v": 80
    },
    {
      "midi": 64,
      "hit": false,
      "t": 84389.91900000005,
      "d": 487.8029999999999,
      "v": 80
    },
    {
      "midi": 66,
      "hit": false,
      "t": 84389.91900000005,
      "d": 487.8029999999999,
      "v": 80
    },
    {
      "midi": 69,
      "hit": false,
      "t": 84389.91900000005,
      "d": 487.8029999999999,
      "v": 80
    },
    {
      "midi": 45,
      "hit": false,
      "t": 84877.72200000005,
      "d": 487.8029999999999,
      "v": 80
    },
    {
      "midi": 57,
      "hit": false,
      "t": 84877.72200000005,
      "d": 487.8029999999999,
      "v": 80
    },
    {
      "midi": 61,
      "hit": false,
      "t": 84877.72200000005,
      "d": 487.8029999999999,
      "v": 80
    },
    {
      "midi": 64,
      "hit": false,
      "t": 84877.72200000005,
      "d": 487.8029999999999,
      "v": 80
    },
    {
      "midi": 45,
      "hit": false,
      "t": 85365.52500000005,
      "d": 487.8029999999999,
      "v": 80
    },
    {
      "midi": 61,
      "hit": false,
      "t": 85365.52500000005,
      "d": 487.8029999999999,
      "v": 80
    },
    {
      "midi": 64,
      "hit": false,
      "t": 85365.52500000005,
      "d": 487.8029999999999,
      "v": 80
    },
    {
      "midi": 66,
      "hit": false,
      "t": 85365.52500000005,
      "d": 487.8029999999999,
      "v": 80
    },
    {
      "midi": 69,
      "hit": false,
      "t": 85365.52500000005,
      "d": 487.8029999999999,
      "v": 80
    },
    {
      "midi": 50,
      "hit": false,
      "t": 85853.32800000005,
      "d": 487.8029999999999,
      "v": 80
    },
    {
      "midi": 57,
      "hit": false,
      "t": 85853.32800000005,
      "d": 487.8029999999999,
      "v": 80
    },
    {
      "midi": 62,
      "hit": false,
      "t": 85853.32800000005,
      "d": 487.8029999999999,
      "v": 80
    },
    {
      "midi": 66,
      "hit": false,
      "t": 85853.32800000005,
      "d": 487.8029999999999,
      "v": 80
    },
    {
      "midi": 50,
      "hit": false,
      "t": 86341.13100000005,
      "d": 487.8029999999999,
      "v": 80
    },
    {
      "midi": 59,
      "hit": false,
      "t": 86341.13100000005,
      "d": 487.8029999999999,
      "v": 80
    },
    {
      "midi": 62,
      "hit": false,
      "t": 86341.13100000005,
      "d": 487.8029999999999,
      "v": 80
    },
    {
      "midi": 66,
      "hit": false,
      "t": 86341.13100000005,
      "d": 487.8029999999999,
      "v": 80
    },
    {
      "midi": 69,
      "hit": false,
      "t": 86341.13100000005,
      "d": 487.8029999999999,
      "v": 80
    },
    {
      "midi": 50,
      "hit": false,
      "t": 86828.93400000005,
      "d": 487.8029999999999,
      "v": 80
    },
    {
      "midi": 57,
      "hit": false,
      "t": 86828.93400000005,
      "d": 487.8029999999999,
      "v": 80
    },
    {
      "midi": 62,
      "hit": false,
      "t": 86828.93400000005,
      "d": 487.8029999999999,
      "v": 80
    },
    {
      "midi": 66,
      "hit": false,
      "t": 86828.93400000005,
      "d": 487.8029999999999,
      "v": 80
    },
    {
      "midi": 50,
      "hit": false,
      "t": 87316.73700000005,
      "d": 487.8029999999999,
      "v": 80
    },
    {
      "midi": 59,
      "hit": false,
      "t": 87316.73700000005,
      "d": 487.8029999999999,
      "v": 80
    },
    {
      "midi": 62,
      "hit": false,
      "t": 87316.73700000005,
      "d": 487.8029999999999,
      "v": 80
    },
    {
      "midi": 66,
      "hit": false,
      "t": 87316.73700000005,
      "d": 487.8029999999999,
      "v": 80
    },
    {
      "midi": 69,
      "hit": false,
      "t": 87316.73700000005,
      "d": 487.8029999999999,
      "v": 80
    },
    {
      "midi": 45,
      "hit": false,
      "t": 87804.54000000005,
      "d": 975.6059999999998,
      "v": 80
    },
    {
      "midi": 57,
      "hit": false,
      "t": 87804.54000000005,
      "d": 975.6059999999998,
      "v": 80
    },
    {
      "midi": 61,
      "hit": false,
      "t": 87804.54000000005,
      "d": 975.6059999999998,
      "v": 80
    },
    {
      "midi": 64,
      "hit": false,
      "t": 87804.54000000005,
      "d": 975.6059999999998,
      "v": 80
    },
    {
      "midi": 43,
      "hit": false,
      "t": 88780.14600000005,
      "d": 487.8029999999999,
      "v": 80
    },
    {
      "midi": 55,
      "hit": false,
      "t": 88780.14600000005,
      "d": 487.8029999999999,
      "v": 80
    },
    {
      "midi": 59,
      "hit": false,
      "t": 88780.14600000005,
      "d": 487.8029999999999,
      "v": 80
    },
    {
      "midi": 62,
      "hit": false,
      "t": 88780.14600000005,
      "d": 487.8029999999999,
      "v": 80
    },
    {
      "midi": 50,
      "hit": false,
      "t": 89267.94900000005,
      "d": 487.8029999999999,
      "v": 80
    },
    {
      "midi": 57,
      "hit": false,
      "t": 89267.94900000005,
      "d": 487.8029999999999,
      "v": 80
    },
    {
      "midi": 62,
      "hit": false,
      "t": 89267.94900000005,
      "d": 487.8029999999999,
      "v": 80
    },
    {
      "midi": 66,
      "hit": false,
      "t": 89267.94900000005,
      "d": 487.8029999999999,
      "v": 80
    },
    {
      "midi": 45,
      "hit": false,
      "t": 89755.75200000005,
      "d": 487.8029999999999,
      "v": 80
    },
    {
      "midi": 57,
      "hit": false,
      "t": 89755.75200000005,
      "d": 487.8029999999999,
      "v": 80
    },
    {
      "midi": 61,
      "hit": false,
      "t": 89755.75200000005,
      "d": 487.8029999999999,
      "v": 80
    },
    {
      "midi": 64,
      "hit": false,
      "t": 89755.75200000005,
      "d": 487.8029999999999,
      "v": 80
    },
    {
      "midi": 45,
      "hit": false,
      "t": 90243.55500000005,
      "d": 487.8029999999999,
      "v": 80
    },
    {
      "midi": 61,
      "hit": false,
      "t": 90243.55500000005,
      "d": 487.8029999999999,
      "v": 80
    },
    {
      "midi": 64,
      "hit": false,
      "t": 90243.55500000005,
      "d": 487.8029999999999,
      "v": 80
    },
    {
      "midi": 66,
      "hit": false,
      "t": 90243.55500000005,
      "d": 487.8029999999999,
      "v": 80
    },
    {
      "midi": 69,
      "hit": false,
      "t": 90243.55500000005,
      "d": 487.8029999999999,
      "v": 80
    },
    {
      "midi": 45,
      "hit": false,
      "t": 90731.35800000005,
      "d": 487.8029999999999,
      "v": 80
    },
    {
      "midi": 57,
      "hit": false,
      "t": 90731.35800000005,
      "d": 487.8029999999999,
      "v": 80
    },
    {
      "midi": 61,
      "hit": false,
      "t": 90731.35800000005,
      "d": 487.8029999999999,
      "v": 80
    },
    {
      "midi": 64,
      "hit": false,
      "t": 90731.35800000005,
      "d": 487.8029999999999,
      "v": 80
    },
    {
      "midi": 45,
      "hit": false,
      "t": 91219.16100000005,
      "d": 487.8029999999999,
      "v": 80
    },
    {
      "midi": 61,
      "hit": false,
      "t": 91219.16100000005,
      "d": 487.8029999999999,
      "v": 80
    },
    {
      "midi": 64,
      "hit": false,
      "t": 91219.16100000005,
      "d": 487.8029999999999,
      "v": 80
    },
    {
      "midi": 66,
      "hit": false,
      "t": 91219.16100000005,
      "d": 487.8029999999999,
      "v": 80
    },
    {
      "midi": 69,
      "hit": false,
      "t": 91219.16100000005,
      "d": 487.8029999999999,
      "v": 80
    },
    {
      "midi": 45,
      "hit": false,
      "t": 91706.96400000005,
      "d": 487.8029999999999,
      "v": 80
    },
    {
      "midi": 57,
      "hit": false,
      "t": 91706.96400000005,
      "d": 487.8029999999999,
      "v": 80
    },
    {
      "midi": 61,
      "hit": false,
      "t": 91706.96400000005,
      "d": 487.8029999999999,
      "v": 80
    },
    {
      "midi": 64,
      "hit": false,
      "t": 91706.96400000005,
      "d": 487.8029999999999,
      "v": 80
    },
    {
      "midi": 45,
      "hit": false,
      "t": 92194.76700000005,
      "d": 487.8029999999999,
      "v": 80
    },
    {
      "midi": 61,
      "hit": false,
      "t": 92194.76700000005,
      "d": 487.8029999999999,
      "v": 80
    },
    {
      "midi": 64,
      "hit": false,
      "t": 92194.76700000005,
      "d": 487.8029999999999,
      "v": 80
    },
    {
      "midi": 66,
      "hit": false,
      "t": 92194.76700000005,
      "d": 487.8029999999999,
      "v": 80
    },
    {
      "midi": 69,
      "hit": false,
      "t": 92194.76700000005,
      "d": 487.8029999999999,
      "v": 80
    },
    {
      "midi": 45,
      "hit": false,
      "t": 92682.57000000005,
      "d": 487.8029999999999,
      "v": 80
    },
    {
      "midi": 57,
      "hit": false,
      "t": 92682.57000000005,
      "d": 487.8029999999999,
      "v": 80
    },
    {
      "midi": 61,
      "hit": false,
      "t": 92682.57000000005,
      "d": 487.8029999999999,
      "v": 80
    },
    {
      "midi": 64,
      "hit": false,
      "t": 92682.57000000005,
      "d": 487.8029999999999,
      "v": 80
    },
    {
      "midi": 45,
      "hit": false,
      "t": 93170.37300000005,
      "d": 487.8029999999999,
      "v": 80
    },
    {
      "midi": 61,
      "hit": false,
      "t": 93170.37300000005,
      "d": 487.8029999999999,
      "v": 80
    },
    {
      "midi": 64,
      "hit": false,
      "t": 93170.37300000005,
      "d": 487.8029999999999,
      "v": 80
    },
    {
      "midi": 66,
      "hit": false,
      "t": 93170.37300000005,
      "d": 487.8029999999999,
      "v": 80
    },
    {
      "midi": 69,
      "hit": false,
      "t": 93170.37300000005,
      "d": 487.8029999999999,
      "v": 80
    },
    {
      "midi": 50,
      "hit": false,
      "t": 93658.17600000005,
      "d": 487.8029999999999,
      "v": 80
    },
    {
      "midi": 57,
      "hit": false,
      "t": 93658.17600000005,
      "d": 487.8029999999999,
      "v": 80
    },
    {
      "midi": 62,
      "hit": false,
      "t": 93658.17600000005,
      "d": 487.8029999999999,
      "v": 80
    },
    {
      "midi": 66,
      "hit": false,
      "t": 93658.17600000005,
      "d": 487.8029999999999,
      "v": 80
    },
    {
      "midi": 50,
      "hit": false,
      "t": 94145.97900000005,
      "d": 487.8029999999999,
      "v": 80
    },
    {
      "midi": 59,
      "hit": false,
      "t": 94145.97900000005,
      "d": 487.8029999999999,
      "v": 80
    },
    {
      "midi": 62,
      "hit": false,
      "t": 94145.97900000005,
      "d": 487.8029999999999,
      "v": 80
    },
    {
      "midi": 66,
      "hit": false,
      "t": 94145.97900000005,
      "d": 487.8029999999999,
      "v": 80
    },
    {
      "midi": 69,
      "hit": false,
      "t": 94145.97900000005,
      "d": 487.8029999999999,
      "v": 80
    },
    {
      "midi": 50,
      "hit": false,
      "t": 94633.78200000005,
      "d": 487.8029999999999,
      "v": 80
    },
    {
      "midi": 57,
      "hit": false,
      "t": 94633.78200000005,
      "d": 487.8029999999999,
      "v": 80
    },
    {
      "midi": 62,
      "hit": false,
      "t": 94633.78200000005,
      "d": 487.8029999999999,
      "v": 80
    },
    {
      "midi": 66,
      "hit": false,
      "t": 94633.78200000005,
      "d": 487.8029999999999,
      "v": 80
    },
    {
      "midi": 50,
      "hit": false,
      "t": 95121.58500000005,
      "d": 487.8029999999999,
      "v": 80
    },
    {
      "midi": 59,
      "hit": false,
      "t": 95121.58500000005,
      "d": 487.8029999999999,
      "v": 80
    },
    {
      "midi": 62,
      "hit": false,
      "t": 95121.58500000005,
      "d": 487.8029999999999,
      "v": 80
    },
    {
      "midi": 66,
      "hit": false,
      "t": 95121.58500000005,
      "d": 487.8029999999999,
      "v": 80
    },
    {
      "midi": 69,
      "hit": false,
      "t": 95121.58500000005,
      "d": 487.8029999999999,
      "v": 80
    },
    {
      "midi": 45,
      "hit": false,
      "t": 95609.38800000005,
      "d": 666.6640999999945,
      "v": 80
    },
    {
      "midi": 57,
      "hit": false,
      "t": 95609.38800000005,
      "d": 666.6640999999945,
      "v": 80
    },
    {
      "midi": 61,
      "hit": false,
      "t": 95609.38800000005,
      "d": 666.6640999999945,
      "v": 80
    },
    {
      "midi": 64,
      "hit": false,
      "t": 95609.38800000005,
      "d": 666.6640999999945,
      "v": 80
    },
    {
      "midi": 45,
      "hit": false,
      "t": 96341.09250000004,
      "d": 439.02270000000135,
      "v": 80
    },
    {
      "midi": 57,
      "hit": false,
      "t": 96341.09250000004,
      "d": 1093.4917250000144,
      "v": 80
    },
    {
      "midi": 61,
      "hit": false,
      "t": 96341.09250000004,
      "d": 1093.4917250000144,
      "v": 80
    },
    {
      "midi": 40,
      "hit": false,
      "t": 96828.89550000004,
      "d": 219.51135000000068,
      "v": 80
    },
    {
      "midi": 64,
      "hit": false,
      "t": 96828.89550000004,
      "d": 605.6887250000145,
      "v": 80
    },
    {
      "midi": 45,
      "hit": false,
      "t": 97072.79700000005,
      "d": 219.51135000000068,
      "v": 80
    },
    {
      "midi": 40,
      "hit": false,
      "t": 97316.69850000006,
      "d": 219.51135000000068,
      "v": 80
    },
    {
      "midi": 45,
      "hit": false,
      "t": 97560.60000000006,
      "d": 487.8029999999999,
      "v": 80
    },
    {
      "midi": 57,
      "hit": false,
      "t": 97560.60000000006,
      "d": 487.8029999999999,
      "v": 80
    },
    {
      "midi": 61,
      "hit": false,
      "t": 97560.60000000006,
      "d": 487.8029999999999,
      "v": 80
    },
    {
      "midi": 64,
      "hit": false,
      "t": 97560.60000000006,
      "d": 487.8029999999999,
      "v": 80
    },
    {
      "midi": 45,
      "hit": false,
      "t": 98048.40300000006,
      "d": 487.8029999999999,
      "v": 80
    },
    {
      "midi": 61,
      "hit": false,
      "t": 98048.40300000006,
      "d": 487.8029999999999,
      "v": 80
    },
    {
      "midi": 64,
      "hit": false,
      "t": 98048.40300000006,
      "d": 487.8029999999999,
      "v": 80
    },
    {
      "midi": 66,
      "hit": false,
      "t": 98048.40300000006,
      "d": 487.8029999999999,
      "v": 80
    },
    {
      "midi": 69,
      "hit": false,
      "t": 98048.40300000006,
      "d": 487.8029999999999,
      "v": 80
    },
    {
      "midi": 45,
      "hit": false,
      "t": 98536.20600000006,
      "d": 487.8029999999999,
      "v": 80
    },
    {
      "midi": 57,
      "hit": false,
      "t": 98536.20600000006,
      "d": 487.8029999999999,
      "v": 80
    },
    {
      "midi": 61,
      "hit": false,
      "t": 98536.20600000006,
      "d": 487.8029999999999,
      "v": 80
    },
    {
      "midi": 64,
      "hit": false,
      "t": 98536.20600000006,
      "d": 487.8029999999999,
      "v": 80
    },
    {
      "midi": 45,
      "hit": false,
      "t": 99024.00900000006,
      "d": 487.8029999999999,
      "v": 80
    },
    {
      "midi": 61,
      "hit": false,
      "t": 99024.00900000006,
      "d": 487.8029999999999,
      "v": 80
    },
    {
      "midi": 64,
      "hit": false,
      "t": 99024.00900000006,
      "d": 487.8029999999999,
      "v": 80
    },
    {
      "midi": 66,
      "hit": false,
      "t": 99024.00900000006,
      "d": 487.8029999999999,
      "v": 80
    },
    {
      "midi": 69,
      "hit": false,
      "t": 99024.00900000006,
      "d": 487.8029999999999,
      "v": 80
    },
    {
      "midi": 45,
      "hit": false,
      "t": 99511.81200000006,
      "d": 487.8029999999999,
      "v": 80
    },
    {
      "midi": 57,
      "hit": false,
      "t": 99511.81200000006,
      "d": 487.8029999999999,
      "v": 80
    },
    {
      "midi": 61,
      "hit": false,
      "t": 99511.81200000006,
      "d": 487.8029999999999,
      "v": 80
    },
    {
      "midi": 64,
      "hit": false,
      "t": 99511.81200000006,
      "d": 487.8029999999999,
      "v": 80
    },
    {
      "midi": 45,
      "hit": false,
      "t": 99999.61500000006,
      "d": 487.8029999999999,
      "v": 80
    },
    {
      "midi": 61,
      "hit": false,
      "t": 99999.61500000006,
      "d": 487.8029999999999,
      "v": 80
    },
    {
      "midi": 64,
      "hit": false,
      "t": 99999.61500000006,
      "d": 487.8029999999999,
      "v": 80
    },
    {
      "midi": 66,
      "hit": false,
      "t": 99999.61500000006,
      "d": 487.8029999999999,
      "v": 80
    },
    {
      "midi": 69,
      "hit": false,
      "t": 99999.61500000006,
      "d": 487.8029999999999,
      "v": 80
    },
    {
      "midi": 45,
      "hit": false,
      "t": 100487.41800000006,
      "d": 487.8029999999999,
      "v": 80
    },
    {
      "midi": 57,
      "hit": false,
      "t": 100487.41800000006,
      "d": 487.8029999999999,
      "v": 80
    },
    {
      "midi": 61,
      "hit": false,
      "t": 100487.41800000006,
      "d": 487.8029999999999,
      "v": 80
    },
    {
      "midi": 64,
      "hit": false,
      "t": 100487.41800000006,
      "d": 487.8029999999999,
      "v": 80
    },
    {
      "midi": 45,
      "hit": false,
      "t": 100975.22100000006,
      "d": 487.8029999999999,
      "v": 80
    },
    {
      "midi": 61,
      "hit": false,
      "t": 100975.22100000006,
      "d": 487.8029999999999,
      "v": 80
    },
    {
      "midi": 64,
      "hit": false,
      "t": 100975.22100000006,
      "d": 487.8029999999999,
      "v": 80
    },
    {
      "midi": 66,
      "hit": false,
      "t": 100975.22100000006,
      "d": 487.8029999999999,
      "v": 80
    },
    {
      "midi": 69,
      "hit": false,
      "t": 100975.22100000006,
      "d": 487.8029999999999,
      "v": 80
    },
    {
      "midi": 50,
      "hit": false,
      "t": 101463.02400000006,
      "d": 487.8029999999999,
      "v": 80
    },
    {
      "midi": 57,
      "hit": false,
      "t": 101463.02400000006,
      "d": 487.8029999999999,
      "v": 80
    },
    {
      "midi": 62,
      "hit": false,
      "t": 101463.02400000006,
      "d": 487.8029999999999,
      "v": 80
    },
    {
      "midi": 66,
      "hit": false,
      "t": 101463.02400000006,
      "d": 487.8029999999999,
      "v": 80
    },
    {
      "midi": 50,
      "hit": false,
      "t": 101950.82700000006,
      "d": 487.8029999999999,
      "v": 80
    },
    {
      "midi": 59,
      "hit": false,
      "t": 101950.82700000006,
      "d": 487.8029999999999,
      "v": 80
    },
    {
      "midi": 62,
      "hit": false,
      "t": 101950.82700000006,
      "d": 487.8029999999999,
      "v": 80
    },
    {
      "midi": 66,
      "hit": false,
      "t": 101950.82700000006,
      "d": 487.8029999999999,
      "v": 80
    },
    {
      "midi": 69,
      "hit": false,
      "t": 101950.82700000006,
      "d": 487.8029999999999,
      "v": 80
    },
    {
      "midi": 50,
      "hit": false,
      "t": 102438.63000000006,
      "d": 487.8029999999999,
      "v": 80
    },
    {
      "midi": 57,
      "hit": false,
      "t": 102438.63000000006,
      "d": 487.8029999999999,
      "v": 80
    },
    {
      "midi": 62,
      "hit": false,
      "t": 102438.63000000006,
      "d": 487.8029999999999,
      "v": 80
    },
    {
      "midi": 66,
      "hit": false,
      "t": 102438.63000000006,
      "d": 487.8029999999999,
      "v": 80
    },
    {
      "midi": 50,
      "hit": false,
      "t": 102926.43300000006,
      "d": 487.8029999999999,
      "v": 80
    },
    {
      "midi": 59,
      "hit": false,
      "t": 102926.43300000006,
      "d": 487.8029999999999,
      "v": 80
    },
    {
      "midi": 62,
      "hit": false,
      "t": 102926.43300000006,
      "d": 487.8029999999999,
      "v": 80
    },
    {
      "midi": 66,
      "hit": false,
      "t": 102926.43300000006,
      "d": 487.8029999999999,
      "v": 80
    },
    {
      "midi": 69,
      "hit": false,
      "t": 102926.43300000006,
      "d": 487.8029999999999,
      "v": 80
    },
    {
      "midi": 45,
      "hit": false,
      "t": 103414.23600000006,
      "d": 1951.2119999999995,
      "v": 80
    },
    {
      "midi": 57,
      "hit": false,
      "t": 103414.23600000006,
      "d": 1951.2119999999995,
      "v": 80
    },
    {
      "midi": 61,
      "hit": false,
      "t": 103414.23600000006,
      "d": 1951.2119999999995,
      "v": 80
    },
    {
      "midi": 64,
      "hit": false,
      "t": 103414.23600000006,
      "d": 1951.2119999999995,
      "v": 80
    },
    {
      "midi": 45,
      "hit": false,
      "t": 105365.44800000006,
      "d": 260.16160000000673,
      "v": 90
    },
    {
      "midi": 49,
      "hit": false,
      "t": 105609.34950000007,
      "d": 260.1615999999922,
      "v": 90
    },
    {
      "midi": 52,
      "hit": false,
      "t": 105853.25100000006,
      "d": 203.25125000000116,
      "v": 90
    },
    {
      "midi": 45,
      "hit": false,
      "t": 106097.15250000007,
      "d": 894.3055000000022,
      "v": 90
    },
    {
      "midi": 61,
      "hit": false,
      "t": 106097.15250000007,
      "d": 1154.4670999999944,
      "v": 90
    },
    {
      "midi": 64,
      "hit": false,
      "t": 106097.15250000007,
      "d": 1154.4670999999944,
      "v": 90
    },
    {
      "midi": 67,
      "hit": false,
      "t": 106097.15250000007,
      "d": 1154.4670999999944,
      "v": 90
    },
    {
      "midi": 72,
      "hit": false,
      "t": 106097.15250000007,
      "d": 1154.4670999999944,
      "v": 90
    },
    {
      "midi": 45,
      "hit": false,
      "t": 107072.75850000007,
      "d": 215.44632499999716,
      "v": 90
    },
    {
      "midi": 45,
      "hit": false,
      "t": 107316.66000000006,
      "d": 260.16160000000673,
      "v": 90
    },
    {
      "midi": 49,
      "hit": false,
      "t": 107560.56150000007,
      "d": 260.1615999999922,
      "v": 90
    },
    {
      "midi": 52,
      "hit": false,
      "t": 107804.46300000006,
      "d": 203.25125000000116,
      "v": 90
    },
    {
      "midi": 45,
      "hit": false,
      "t": 108048.36450000007,
      "d": 894.3055000000022,
      "v": 90
    },
    {
      "midi": 61,
      "hit": false,
      "t": 108048.36450000007,
      "d": 1154.4670999999944,
      "v": 90
    },
    {
      "midi": 64,
      "hit": false,
      "t": 108048.36450000007,
      "d": 1154.4670999999944,
      "v": 90
    },
    {
      "midi": 67,
      "hit": false,
      "t": 108048.36450000007,
      "d": 1154.4670999999944,
      "v": 90
    },
    {
      "midi": 72,
      "hit": false,
      "t": 108048.36450000007,
      "d": 1154.4670999999944,
      "v": 90
    },
    {
      "midi": 45,
      "hit": false,
      "t": 109023.97050000007,
      "d": 215.44632499999716,
      "v": 90
    },
    {
      "midi": 54,
      "hit": false,
      "t": 109267.87200000006,
      "d": 260.16160000000673,
      "v": 90
    },
    {
      "midi": 57,
      "hit": false,
      "t": 109511.77350000007,
      "d": 260.1615999999922,
      "v": 90
    },
    {
      "midi": 59,
      "hit": false,
      "t": 109755.67500000006,
      "d": 243.90149999999267,
      "v": 90
    },
    {
      "midi": 50,
      "hit": false,
      "t": 110243.47800000006,
      "d": 203.25125000000116,
      "v": 90
    },
    {
      "midi": 57,
      "hit": false,
      "t": 110243.47800000006,
      "d": 203.25125000000116,
      "v": 90
    },
    {
      "midi": 62,
      "hit": false,
      "t": 110243.47800000006,
      "d": 203.25125000000116,
      "v": 90
    },
    {
      "midi": 66,
      "hit": false,
      "t": 110243.47800000006,
      "d": 203.25125000000116,
      "v": 90
    },
    {
      "midi": 50,
      "hit": false,
      "t": 110487.37950000007,
      "d": 695.1192750000046,
      "v": 90
    },
    {
      "midi": 60,
      "hit": false,
      "t": 110487.37950000007,
      "d": 723.5744500000001,
      "v": 90
    },
    {
      "midi": 62,
      "hit": false,
      "t": 110487.37950000007,
      "d": 723.5744500000001,
      "v": 90
    },
    {
      "midi": 66,
      "hit": false,
      "t": 110487.37950000007,
      "d": 723.5744500000001,
      "v": 90
    },
    {
      "midi": 69,
      "hit": false,
      "t": 110487.37950000007,
      "d": 723.5744500000001,
      "v": 90
    },
    {
      "midi": 45,
      "hit": false,
      "t": 111219.08400000008,
      "d": 666.6640999999945,
      "v": 90
    },
    {
      "midi": 61,
      "hit": false,
      "t": 111219.08400000008,
      "d": 666.6640999999945,
      "v": 90
    },
    {
      "midi": 64,
      "hit": false,
      "t": 111219.08400000008,
      "d": 666.6640999999945,
      "v": 90
    },
    {
      "midi": 66,
      "hit": false,
      "t": 111219.08400000008,
      "d": 666.6640999999945,
      "v": 90
    },
    {
      "midi": 69,
      "hit": false,
      "t": 111219.08400000008,
      "d": 666.6640999999945,
      "v": 90
    },
    {
      "midi": 40,
      "hit": false,
      "t": 111950.78850000007,
      "d": 219.51135000000068,
      "v": 90
    },
    {
      "midi": 64,
      "hit": false,
      "t": 111950.78850000007,
      "d": 219.51135000000068,
      "v": 90
    },
    {
      "midi": 55,
      "hit": false,
      "t": 112194.69000000008,
      "d": 317.07194999999774,
      "v": 100
    },
    {
      "midi": 59,
      "hit": false,
      "t": 112194.69000000008,
      "d": 317.07194999999774,
      "v": 100
    },
    {
      "midi": 62,
      "hit": false,
      "t": 112194.69000000008,
      "d": 317.07194999999774,
      "v": 100
    },
    {
      "midi": 43,
      "hit": false,
      "t": 112194.69000000008,
      "d": 341.4621000000043,
      "v": 100
    },
    {
      "midi": 57,
      "hit": false,
      "t": 112682.49300000007,
      "d": 308.94190000000526,
      "v": 100
    },
    {
      "midi": 62,
      "hit": false,
      "t": 112682.49300000007,
      "d": 308.94190000000526,
      "v": 100
    },
    {
      "midi": 66,
      "hit": false,
      "t": 112682.49300000007,
      "d": 308.94190000000526,
      "v": 100
    },
    {
      "midi": 45,
      "hit": false,
      "t": 112682.49300000007,
      "d": 341.4621000000043,
      "v": 100
    },
    {
      "midi": 45,
      "hit": false,
      "t": 113170.29600000007,
      "d": 260.16160000000673,
      "v": 90
    },
    {
      "midi": 49,
      "hit": false,
      "t": 113414.19750000008,
      "d": 260.1615999999922,
      "v": 90
    },
    {
      "midi": 52,
      "hit": false,
      "t": 113658.09900000007,
      "d": 203.25125000000116,
      "v": 90
    },
    {
      "midi": 45,
      "hit": false,
      "t": 113902.00050000008,
      "d": 894.3055000000022,
      "v": 90
    },
    {
      "midi": 61,
      "hit": false,
      "t": 113902.00050000008,
      "d": 1154.4670999999944,
      "v": 90
    },
    {
      "midi": 64,
      "hit": false,
      "t": 113902.00050000008,
      "d": 1154.4670999999944,
      "v": 90
    },
    {
      "midi": 67,
      "hit": false,
      "t": 113902.00050000008,
      "d": 1154.4670999999944,
      "v": 90
    },
    {
      "midi": 72,
      "hit": false,
      "t": 113902.00050000008,
      "d": 1154.4670999999944,
      "v": 90
    },
    {
      "midi": 45,
      "hit": false,
      "t": 114877.60650000008,
      "d": 215.44632499999716,
      "v": 90
    },
    {
      "midi": 45,
      "hit": false,
      "t": 115121.50800000007,
      "d": 260.16160000000673,
      "v": 90
    },
    {
      "midi": 49,
      "hit": false,
      "t": 115365.40950000008,
      "d": 260.1615999999922,
      "v": 90
    },
    {
      "midi": 52,
      "hit": false,
      "t": 115609.31100000007,
      "d": 203.25125000000116,
      "v": 90
    },
    {
      "midi": 45,
      "hit": false,
      "t": 115853.21250000008,
      "d": 894.3055000000022,
      "v": 90
    },
    {
      "midi": 61,
      "hit": false,
      "t": 115853.21250000008,
      "d": 1154.4670999999944,
      "v": 90
    },
    {
      "midi": 64,
      "hit": false,
      "t": 115853.21250000008,
      "d": 1154.4670999999944,
      "v": 90
    },
    {
      "midi": 67,
      "hit": false,
      "t": 115853.21250000008,
      "d": 1154.4670999999944,
      "v": 90
    },
    {
      "midi": 72,
      "hit": false,
      "t": 115853.21250000008,
      "d": 1154.4670999999944,
      "v": 90
    },
    {
      "midi": 45,
      "hit": false,
      "t": 116828.81850000008,
      "d": 215.44632499999716,
      "v": 90
    },
    {
      "midi": 50,
      "hit": false,
      "t": 117072.72000000007,
      "d": 666.6640999999945,
      "v": 90
    },
    {
      "midi": 60,
      "hit": false,
      "t": 117072.72000000007,
      "d": 666.6640999999945,
      "v": 90
    },
    {
      "midi": 62,
      "hit": false,
      "t": 117072.72000000007,
      "d": 666.6640999999945,
      "v": 90
    },
    {
      "midi": 66,
      "hit": false,
      "t": 117072.72000000007,
      "d": 666.6640999999945,
      "v": 90
    },
    {
      "midi": 69,
      "hit": false,
      "t": 117072.72000000007,
      "d": 666.6640999999945,
      "v": 90
    },
    {
      "midi": 50,
      "hit": false,
      "t": 117804.42450000007,
      "d": 439.02270000000135,
      "v": 90
    },
    {
      "midi": 60,
      "hit": false,
      "t": 117804.42450000007,
      "d": 1093.4917250000144,
      "v": 90
    },
    {
      "midi": 62,
      "hit": false,
      "t": 117804.42450000007,
      "d": 1093.4917250000144,
      "v": 90
    },
    {
      "midi": 66,
      "hit": false,
      "t": 117804.42450000007,
      "d": 1093.4917250000144,
      "v": 90
    },
    {
      "midi": 45,
      "hit": false,
      "t": 118292.22750000007,
      "d": 219.51135000000068,
      "v": 90
    },
    {
      "midi": 69,
      "hit": false,
      "t": 118292.22750000007,
      "d": 605.6887250000145,
      "v": 90
    },
    {
      "midi": 50,
      "hit": false,
      "t": 118536.12900000007,
      "d": 219.51135000000068,
      "v": 90
    },
    {
      "midi": 45,
      "hit": false,
      "t": 118780.03050000008,
      "d": 219.51135000000068,
      "v": 90
    },
    {
      "midi": 45,
      "hit": false,
      "t": 119023.93200000009,
      "d": 666.6640999999945,
      "v": 90
    },
    {
      "midi": 57,
      "hit": false,
      "t": 119023.93200000009,
      "d": 666.6640999999945,
      "v": 90
    },
    {
      "midi": 61,
      "hit": false,
      "t": 119023.93200000009,
      "d": 666.6640999999945,
      "v": 90
    },
    {
      "midi": 64,
      "hit": false,
      "t": 119023.93200000009,
      "d": 666.6640999999945,
      "v": 90
    },
    {
      "midi": 40,
      "hit": false,
      "t": 119755.63650000008,
      "d": 219.51135000000068,
      "v": 90
    },
    {
      "midi": 64,
      "hit": false,
      "t": 119755.63650000008,
      "d": 219.51135000000068,
      "v": 90
    },
    {
      "midi": 45,
      "hit": false,
      "t": 119999.53800000009,
      "d": 219.51135000000068,
      "v": 90
    },
    {
      "midi": 57,
      "hit": false,
      "t": 119999.53800000009,
      "d": 333.3320500000118,
      "v": 90
    },
    {
      "midi": 61,
      "hit": false,
      "t": 119999.53800000009,
      "d": 333.3320500000118,
      "v": 90
    },
    {
      "midi": 64,
      "hit": false,
      "t": 119999.53800000009,
      "d": 333.3320500000118,
      "v": 90
    },
    {
      "midi": 40,
      "hit": false,
      "t": 120243.4395000001,
      "d": 219.51135000000068,
      "v": 90
    },
    {
      "midi": 45,
      "hit": false,
      "t": 120487.3410000001,
      "d": 365.8522499999963,
      "v": 90
    },
    {
      "midi": 57,
      "hit": false,
      "t": 120487.3410000001,
      "d": 365.8522499999963,
      "v": 90
    },
    {
      "midi": 61,
      "hit": false,
      "t": 120487.3410000001,
      "d": 365.8522499999963,
      "v": 90
    },
    {
      "midi": 64,
      "hit": false,
      "t": 120487.3410000001,
      "d": 365.8522499999963,
      "v": 90
    },
    {
      "midi": 50,
      "hit": false,
      "t": 124877.5680000001,
      "d": 1951.2119999999995,
      "v": 80
    },
    {
      "midi": 57,
      "hit": false,
      "t": 124877.5680000001,
      "d": 1951.2119999999995,
      "v": 80
    },
    {
      "midi": 62,
      "hit": false,
      "t": 124877.5680000001,
      "d": 1951.2119999999995,
      "v": 80
    },
    {
      "midi": 66,
      "hit": false,
      "t": 124877.5680000001,
      "d": 1951.2119999999995,
      "v": 80
    },
    {
      "midi": 45,
      "hit": false,
      "t": 126828.7800000001,
      "d": 975.6059999999998,
      "v": 80
    },
    {
      "midi": 57,
      "hit": false,
      "t": 126828.7800000001,
      "d": 975.6059999999998,
      "v": 80
    },
    {
      "midi": 61,
      "hit": false,
      "t": 126828.7800000001,
      "d": 975.6059999999998,
      "v": 80
    },
    {
      "midi": 64,
      "hit": false,
      "t": 126828.7800000001,
      "d": 975.6059999999998,
      "v": 80
    },
    {
      "midi": 43,
      "hit": false,
      "t": 127804.3860000001,
      "d": 487.8029999999999,
      "v": 80
    },
    {
      "midi": 55,
      "hit": false,
      "t": 127804.3860000001,
      "d": 487.8029999999999,
      "v": 80
    },
    {
      "midi": 59,
      "hit": false,
      "t": 127804.3860000001,
      "d": 487.8029999999999,
      "v": 80
    },
    {
      "midi": 62,
      "hit": false,
      "t": 127804.3860000001,
      "d": 487.8029999999999,
      "v": 80
    },
    {
      "midi": 57,
      "hit": false,
      "t": 128292.1890000001,
      "d": 276.42170000000624,
      "v": 90
    },
    {
      "midi": 62,
      "hit": false,
      "t": 128292.1890000001,
      "d": 276.42170000000624,
      "v": 90
    },
    {
      "midi": 66,
      "hit": false,
      "t": 128292.1890000001,
      "d": 276.42170000000624,
      "v": 90
    },
    {
      "midi": 45,
      "hit": false,
      "t": 128292.1890000001,
      "d": 333.3320500000118,
      "v": 90
    },
    {
      "midi": 50,
      "hit": false,
      "t": 132682.4160000001,
      "d": 1951.2119999999995,
      "v": 80
    },
    {
      "midi": 57,
      "hit": false,
      "t": 132682.4160000001,
      "d": 1951.2119999999995,
      "v": 80
    },
    {
      "midi": 62,
      "hit": false,
      "t": 132682.4160000001,
      "d": 1951.2119999999995,
      "v": 80
    },
    {
      "midi": 66,
      "hit": false,
      "t": 132682.4160000001,
      "d": 1951.2119999999995,
      "v": 80
    },
    {
      "midi": 45,
      "hit": false,
      "t": 134633.6280000001,
      "d": 975.6059999999998,
      "v": 80
    },
    {
      "midi": 57,
      "hit": false,
      "t": 134633.6280000001,
      "d": 975.6059999999998,
      "v": 80
    },
    {
      "midi": 61,
      "hit": false,
      "t": 134633.6280000001,
      "d": 975.6059999999998,
      "v": 80
    },
    {
      "midi": 64,
      "hit": false,
      "t": 134633.6280000001,
      "d": 975.6059999999998,
      "v": 80
    },
    {
      "midi": 43,
      "hit": false,
      "t": 135609.2340000001,
      "d": 333.33204999999725,
      "v": 90
    },
    {
      "midi": 55,
      "hit": false,
      "t": 135609.2340000001,
      "d": 357.72219999998924,
      "v": 90
    },
    {
      "midi": 59,
      "hit": false,
      "t": 135609.2340000001,
      "d": 357.72219999998924,
      "v": 90
    },
    {
      "midi": 62,
      "hit": false,
      "t": 135609.2340000001,
      "d": 357.72219999998924,
      "v": 90
    },
    {
      "midi": 57,
      "hit": false,
      "t": 136097.0370000001,
      "d": 276.42170000000624,
      "v": 90
    },
    {
      "midi": 62,
      "hit": false,
      "t": 136097.0370000001,
      "d": 276.42170000000624,
      "v": 90
    },
    {
      "midi": 66,
      "hit": false,
      "t": 136097.0370000001,
      "d": 276.42170000000624,
      "v": 90
    },
    {
      "midi": 45,
      "hit": false,
      "t": 136097.0370000001,
      "d": 333.33204999999725,
      "v": 90
    },
    {
      "midi": 45,
      "hit": false,
      "t": 136584.84000000008,
      "d": 260.1616000000213,
      "v": 90
    },
    {
      "midi": 49,
      "hit": false,
      "t": 136828.7415000001,
      "d": 260.1616000000213,
      "v": 90
    },
    {
      "midi": 52,
      "hit": false,
      "t": 137072.6430000001,
      "d": 203.25125000000116,
      "v": 90
    },
    {
      "midi": 45,
      "hit": false,
      "t": 137316.5445000001,
      "d": 894.3054999999877,
      "v": 90
    },
    {
      "midi": 61,
      "hit": false,
      "t": 137316.5445000001,
      "d": 1154.467100000009,
      "v": 90
    },
    {
      "midi": 64,
      "hit": false,
      "t": 137316.5445000001,
      "d": 1154.467100000009,
      "v": 90
    },
    {
      "midi": 67,
      "hit": false,
      "t": 137316.5445000001,
      "d": 1154.467100000009,
      "v": 90
    },
    {
      "midi": 72,
      "hit": false,
      "t": 137316.5445000001,
      "d": 1154.467100000009,
      "v": 90
    },
    {
      "midi": 45,
      "hit": false,
      "t": 138292.1505000001,
      "d": 215.44632499999716,
      "v": 90
    },
    {
      "midi": 45,
      "hit": false,
      "t": 138536.0520000001,
      "d": 260.1616000000213,
      "v": 90
    },
    {
      "midi": 49,
      "hit": false,
      "t": 138779.95350000012,
      "d": 260.1616000000213,
      "v": 90
    },
    {
      "midi": 52,
      "hit": false,
      "t": 139023.85500000013,
      "d": 203.25125000000116,
      "v": 90
    },
    {
      "midi": 45,
      "hit": false,
      "t": 139267.75650000013,
      "d": 695.1192750000046,
      "v": 90
    },
    {
      "midi": 61,
      "hit": false,
      "t": 139267.75650000013,
      "d": 723.5744500000146,
      "v": 90
    },
    {
      "midi": 64,
      "hit": false,
      "t": 139267.75650000013,
      "d": 723.5744500000146,
      "v": 90
    },
    {
      "midi": 67,
      "hit": false,
      "t": 139267.75650000013,
      "d": 723.5744500000146,
      "v": 90
    },
    {
      "midi": 72,
      "hit": false,
      "t": 139267.75650000013,
      "d": 723.5744500000146,
      "v": 90
    },
    {
      "midi": 45,
      "hit": false,
      "t": 139999.46100000016,
      "d": 459.3478250000044,
      "v": 90
    },
    {
      "midi": 57,
      "hit": false,
      "t": 139999.46100000016,
      "d": 487.80300000001444,
      "v": 90
    },
    {
      "midi": 61,
      "hit": false,
      "t": 139999.46100000016,
      "d": 487.80300000001444,
      "v": 90
    },
    {
      "midi": 64,
      "hit": false,
      "t": 139999.46100000016,
      "d": 487.80300000001444,
      "v": 90
    },
    {
      "midi": 45,
      "hit": false,
      "t": 140487.26400000017,
      "d": 203.25125000000116,
      "v": 90
    },
    {
      "midi": 57,
      "hit": false,
      "t": 140487.26400000017,
      "d": 203.25125000000116,
      "v": 90
    },
    {
      "midi": 61,
      "hit": false,
      "t": 140487.26400000017,
      "d": 203.25125000000116,
      "v": 90
    },
    {
      "midi": 64,
      "hit": false,
      "t": 140487.26400000017,
      "d": 203.25125000000116,
      "v": 90
    },
    {
      "midi": 50,
      "hit": false,
      "t": 140731.16550000018,
      "d": 813.0050000000047,
      "v": 90
    },
    {
      "midi": 57,
      "hit": false,
      "t": 140731.16550000018,
      "d": 813.0050000000047,
      "v": 90
    },
    {
      "midi": 62,
      "hit": false,
      "t": 140731.16550000018,
      "d": 813.0050000000047,
      "v": 90
    },
    {
      "midi": 66,
      "hit": false,
      "t": 140731.16550000018,
      "d": 813.0050000000047,
      "v": 90
    },
    {
      "midi": 50,
      "hit": false,
      "t": 141706.77150000018,
      "d": 81.30050000001211,
      "v": 90
    },
    {
      "midi": 57,
      "hit": false,
      "t": 141706.77150000018,
      "d": 81.30050000001211,
      "v": 90
    },
    {
      "midi": 62,
      "hit": false,
      "t": 141706.77150000018,
      "d": 81.30050000001211,
      "v": 90
    },
    {
      "midi": 66,
      "hit": false,
      "t": 141706.77150000018,
      "d": 81.30050000001211,
      "v": 90
    },
    {
      "midi": 60,
      "hit": false,
      "t": 141706.77150000018,
      "d": 723.5744500000146,
      "v": 90
    },
    {
      "midi": 45,
      "hit": false,
      "t": 142438.4760000002,
      "d": 260.1616000000213,
      "v": 90
    },
    {
      "midi": 49,
      "hit": false,
      "t": 142682.3775000002,
      "d": 260.1616000000213,
      "v": 90
    },
    {
      "midi": 52,
      "hit": false,
      "t": 142926.2790000002,
      "d": 203.25125000000116,
      "v": 90
    },
    {
      "midi": 43,
      "hit": false,
      "t": 143170.18050000022,
      "d": 447.1527500000084,
      "v": 100
    },
    {
      "midi": 55,
      "hit": false,
      "t": 143170.18050000022,
      "d": 447.1527500000084,
      "v": 100
    },
    {
      "midi": 59,
      "hit": false,
      "t": 143170.18050000022,
      "d": 447.1527500000084,
      "v": 100
    },
    {
      "midi": 62,
      "hit": false,
      "t": 143170.18050000022,
      "d": 447.1527500000084,
      "v": 100
    },
    {
      "midi": 57,
      "hit": false,
      "t": 143657.98350000023,
      "d": 544.7133500000054,
      "v": 100
    },
    {
      "midi": 62,
      "hit": false,
      "t": 143657.98350000023,
      "d": 544.7133500000054,
      "v": 100
    },
    {
      "midi": 66,
      "hit": false,
      "t": 143657.98350000023,
      "d": 544.7133500000054,
      "v": 100
    },
    {
      "midi": 50,
      "hit": false,
      "t": 143657.98350000023,
      "d": 577.2335500000045,
      "v": 100
    },
    {
      "midi": 49,
      "hit": false,
      "t": 144389.68800000023,
      "d": 260.1616000000213,
      "v": 90
    },
    {
      "midi": 52,
      "hit": false,
      "t": 144633.58950000023,
      "d": 260.1616000000213,
      "v": 90
    },
    {
      "midi": 54,
      "hit": false,
      "t": 144877.49100000024,
      "d": 203.25125000000116,
      "v": 90
    },
    {
      "midi": 45,
      "hit": false,
      "t": 145121.39250000025,
      "d": 894.3054999999877,
      "v": 90
    },
    {
      "midi": 61,
      "hit": false,
      "t": 145121.39250000025,
      "d": 1154.467100000009,
      "v": 90
    },
    {
      "midi": 64,
      "hit": false,
      "t": 145121.39250000025,
      "d": 1154.467100000009,
      "v": 90
    },
    {
      "midi": 67,
      "hit": false,
      "t": 145121.39250000025,
      "d": 1154.467100000009,
      "v": 90
    },
    {
      "midi": 72,
      "hit": false,
      "t": 145121.39250000025,
      "d": 1154.467100000009,
      "v": 90
    },
    {
      "midi": 45,
      "hit": false,
      "t": 146096.99850000025,
      "d": 215.44632499999716,
      "v": 90
    },
    {
      "midi": 45,
      "hit": false,
      "t": 146340.90000000026,
      "d": 260.1616000000213,
      "v": 90
    },
    {
      "midi": 49,
      "hit": false,
      "t": 146584.80150000026,
      "d": 260.1616000000213,
      "v": 90
    },
    {
      "midi": 52,
      "hit": false,
      "t": 146828.70300000027,
      "d": 203.25125000000116,
      "v": 90
    },
    {
      "midi": 45,
      "hit": false,
      "t": 147072.60450000028,
      "d": 894.3054999999877,
      "v": 90
    },
    {
      "midi": 61,
      "hit": false,
      "t": 147072.60450000028,
      "d": 1154.467100000009,
      "v": 90
    },
    {
      "midi": 64,
      "hit": false,
      "t": 147072.60450000028,
      "d": 1154.467100000009,
      "v": 90
    },
    {
      "midi": 67,
      "hit": false,
      "t": 147072.60450000028,
      "d": 1154.467100000009,
      "v": 90
    },
    {
      "midi": 72,
      "hit": false,
      "t": 147072.60450000028,
      "d": 1154.467100000009,
      "v": 90
    },
    {
      "midi": 45,
      "hit": false,
      "t": 148048.21050000028,
      "d": 215.44632499999716,
      "v": 90
    },
    {
      "midi": 45,
      "hit": false,
      "t": 148292.11200000028,
      "d": 666.6640999999945,
      "v": 90
    },
    {
      "midi": 57,
      "hit": false,
      "t": 148292.11200000028,
      "d": 666.6640999999945,
      "v": 90
    },
    {
      "midi": 61,
      "hit": false,
      "t": 148292.11200000028,
      "d": 666.6640999999945,
      "v": 90
    },
    {
      "midi": 64,
      "hit": false,
      "t": 148292.11200000028,
      "d": 666.6640999999945,
      "v": 90
    },
    {
      "midi": 45,
      "hit": false,
      "t": 149267.71800000028,
      "d": 459.3478250000044,
      "v": 90
    },
    {
      "midi": 57,
      "hit": false,
      "t": 149267.71800000028,
      "d": 487.80300000001444,
      "v": 90
    },
    {
      "midi": 61,
      "hit": false,
      "t": 149267.71800000028,
      "d": 487.80300000001444,
      "v": 90
    },
    {
      "midi": 64,
      "hit": false,
      "t": 149267.71800000028,
      "d": 487.80300000001444,
      "v": 90
    },
    {
      "midi": 48,
      "hit": false,
      "t": 149755.5210000003,
      "d": 203.25125000000116,
      "v": 90
    },
    {
      "midi": 55,
      "hit": false,
      "t": 149755.5210000003,
      "d": 203.25125000000116,
      "v": 90
    },
    {
      "midi": 60,
      "hit": false,
      "t": 149755.5210000003,
      "d": 203.25125000000116,
      "v": 90
    },
    {
      "midi": 64,
      "hit": false,
      "t": 149755.5210000003,
      "d": 203.25125000000116,
      "v": 90
    },
    {
      "midi": 50,
      "hit": false,
      "t": 149999.4225000003,
      "d": 495.93305000002147,
      "v": 90
    },
    {
      "midi": 54,
      "hit": false,
      "t": 150487.22550000032,
      "d": 260.1616000000213,
      "v": 90
    },
    {
      "midi": 57,
      "hit": false,
      "t": 150731.12700000033,
      "d": 243.90150000000722,
      "v": 90
    },
    {
      "midi": 57,
      "hit": false,
      "t": 151218.93000000034,
      "d": 317.0719500000123,
      "v": 100
    },
    {
      "midi": 62,
      "hit": false,
      "t": 151218.93000000034,
      "d": 317.0719500000123,
      "v": 100
    },
    {
      "midi": 66,
      "hit": false,
      "t": 151218.93000000034,
      "d": 317.0719500000123,
      "v": 100
    },
    {
      "midi": 50,
      "hit": false,
      "t": 151218.93000000034,
      "d": 341.4621000000043,
      "v": 100
    },
    {
      "midi": 50,
      "hit": false,
      "t": 151706.73300000036,
      "d": 459.3478250000044,
      "v": 90
    },
    {
      "midi": 60,
      "hit": false,
      "t": 151706.73300000036,
      "d": 487.80300000001444,
      "v": 90
    },
    {
      "midi": 62,
      "hit": false,
      "t": 151706.73300000036,
      "d": 487.80300000001444,
      "v": 90
    },
    {
      "midi": 66,
      "hit": false,
      "t": 151706.73300000036,
      "d": 487.80300000001444,
      "v": 90
    },
    {
      "midi": 69,
      "hit": false,
      "t": 151706.73300000036,
      "d": 487.80300000001444,
      "v": 90
    },
    {
      "midi": 50,
      "hit": false,
      "t": 152194.53600000037,
      "d": 260.1616000000213,
      "v": 90
    },
    {
      "midi": 54,
      "hit": false,
      "t": 152438.43750000038,
      "d": 260.1616000000213,
      "v": 90
    },
    {
      "midi": 57,
      "hit": false,
      "t": 152682.3390000004,
      "d": 243.90150000000722,
      "v": 90
    },
    {
      "midi": 50,
      "hit": false,
      "t": 152926.2405000004,
      "d": 918.6956500000088,
      "v": 90
    },
    {
      "midi": 54,
      "hit": false,
      "t": 152926.2405000004,
      "d": 951.2158500000078,
      "v": 90
    },
    {
      "midi": 60,
      "hit": false,
      "t": 152926.2405000004,
      "d": 1069.1015750000079,
      "v": 90
    },
    {
      "midi": 62,
      "hit": false,
      "t": 152926.2405000004,
      "d": 1158.532124999998,
      "v": 90
    },
    {
      "midi": 69,
      "hit": false,
      "t": 152926.2405000004,
      "d": 1227.637550000014,
      "v": 90
    },
    {
      "midi": 48,
      "hit": false,
      "t": 153901.8465000004,
      "d": 199.1862250000122,
      "v": 90
    },
    {
      "midi": 50,
      "hit": false,
      "t": 154145.7480000004,
      "d": 252.03155000001425,
      "v": 90
    },
    {
      "midi": 54,
      "hit": false,
      "t": 154389.6495000004,
      "d": 252.03155000001425,
      "v": 90
    },
    {
      "midi": 57,
      "hit": false,
      "t": 154633.5510000004,
      "d": 235.7714500000002,
      "v": 90
    },
    {
      "midi": 50,
      "hit": false,
      "t": 154877.45250000042,
      "d": 792.6798750000016,
      "v": 90
    },
    {
      "midi": 54,
      "hit": false,
      "t": 154877.45250000042,
      "d": 792.6798750000016,
      "v": 90
    },
    {
      "midi": 60,
      "hit": false,
      "t": 154877.45250000042,
      "d": 792.6798750000016,
      "v": 90
    },
    {
      "midi": 62,
      "hit": false,
      "t": 154877.45250000042,
      "d": 792.6798750000016,
      "v": 90
    },
    {
      "midi": 69,
      "hit": false,
      "t": 154877.45250000042,
      "d": 792.6798750000016,
      "v": 90
    },
    {
      "midi": 50,
      "hit": false,
      "t": 156096.96000000043,
      "d": 666.6640999999945,
      "v": 90
    },
    {
      "midi": 60,
      "hit": false,
      "t": 156096.96000000043,
      "d": 666.6640999999945,
      "v": 90
    },
    {
      "midi": 62,
      "hit": false,
      "t": 156096.96000000043,
      "d": 666.6640999999945,
      "v": 90
    },
    {
      "midi": 66,
      "hit": false,
      "t": 156096.96000000043,
      "d": 666.6640999999945,
      "v": 90
    },
    {
      "midi": 69,
      "hit": false,
      "t": 156096.96000000043,
      "d": 666.6640999999945,
      "v": 90
    },
    {
      "midi": 45,
      "hit": false,
      "t": 157072.56600000043,
      "d": 487.80300000001444,
      "v": 80
    },
    {
      "midi": 57,
      "hit": false,
      "t": 157072.56600000043,
      "d": 487.80300000001444,
      "v": 80
    },
    {
      "midi": 61,
      "hit": false,
      "t": 157072.56600000043,
      "d": 487.80300000001444,
      "v": 80
    },
    {
      "midi": 64,
      "hit": false,
      "t": 157072.56600000043,
      "d": 487.80300000001444,
      "v": 80
    },
    {
      "midi": 45,
      "hit": false,
      "t": 157560.36900000044,
      "d": 487.80300000001444,
      "v": 80
    },
    {
      "midi": 61,
      "hit": false,
      "t": 157560.36900000044,
      "d": 487.80300000001444,
      "v": 80
    },
    {
      "midi": 64,
      "hit": false,
      "t": 157560.36900000044,
      "d": 487.80300000001444,
      "v": 80
    },
    {
      "midi": 66,
      "hit": false,
      "t": 157560.36900000044,
      "d": 487.80300000001444,
      "v": 80
    },
    {
      "midi": 69,
      "hit": false,
      "t": 157560.36900000044,
      "d": 487.80300000001444,
      "v": 80
    },
    {
      "midi": 45,
      "hit": false,
      "t": 158048.17200000046,
      "d": 487.80300000001444,
      "v": 80
    },
    {
      "midi": 57,
      "hit": false,
      "t": 158048.17200000046,
      "d": 487.80300000001444,
      "v": 80
    },
    {
      "midi": 61,
      "hit": false,
      "t": 158048.17200000046,
      "d": 487.80300000001444,
      "v": 80
    },
    {
      "midi": 64,
      "hit": false,
      "t": 158048.17200000046,
      "d": 487.80300000001444,
      "v": 80
    },
    {
      "midi": 45,
      "hit": false,
      "t": 158535.97500000047,
      "d": 487.80300000001444,
      "v": 80
    },
    {
      "midi": 61,
      "hit": false,
      "t": 158535.97500000047,
      "d": 487.80300000001444,
      "v": 80
    },
    {
      "midi": 64,
      "hit": false,
      "t": 158535.97500000047,
      "d": 487.80300000001444,
      "v": 80
    },
    {
      "midi": 66,
      "hit": false,
      "t": 158535.97500000047,
      "d": 487.80300000001444,
      "v": 80
    },
    {
      "midi": 69,
      "hit": false,
      "t": 158535.97500000047,
      "d": 487.80300000001444,
      "v": 80
    },
    {
      "midi": 45,
      "hit": false,
      "t": 159023.7780000005,
      "d": 487.80300000001444,
      "v": 80
    },
    {
      "midi": 57,
      "hit": false,
      "t": 159023.7780000005,
      "d": 487.80300000001444,
      "v": 80
    },
    {
      "midi": 61,
      "hit": false,
      "t": 159023.7780000005,
      "d": 487.80300000001444,
      "v": 80
    },
    {
      "midi": 64,
      "hit": false,
      "t": 159023.7780000005,
      "d": 487.80300000001444,
      "v": 80
    },
    {
      "midi": 45,
      "hit": false,
      "t": 159511.5810000005,
      "d": 487.80300000001444,
      "v": 80
    },
    {
      "midi": 61,
      "hit": false,
      "t": 159511.5810000005,
      "d": 487.80300000001444,
      "v": 80
    },
    {
      "midi": 64,
      "hit": false,
      "t": 159511.5810000005,
      "d": 487.80300000001444,
      "v": 80
    },
    {
      "midi": 66,
      "hit": false,
      "t": 159511.5810000005,
      "d": 487.80300000001444,
      "v": 80
    },
    {
      "midi": 69,
      "hit": false,
      "t": 159511.5810000005,
      "d": 487.80300000001444,
      "v": 80
    },
    {
      "midi": 45,
      "hit": false,
      "t": 159999.38400000051,
      "d": 487.80300000001444,
      "v": 80
    },
    {
      "midi": 57,
      "hit": false,
      "t": 159999.38400000051,
      "d": 487.80300000001444,
      "v": 80
    },
    {
      "midi": 61,
      "hit": false,
      "t": 159999.38400000051,
      "d": 487.80300000001444,
      "v": 80
    },
    {
      "midi": 64,
      "hit": false,
      "t": 159999.38400000051,
      "d": 487.80300000001444,
      "v": 80
    },
    {
      "midi": 45,
      "hit": false,
      "t": 160487.18700000053,
      "d": 487.80300000001444,
      "v": 80
    },
    {
      "midi": 61,
      "hit": false,
      "t": 160487.18700000053,
      "d": 487.80300000001444,
      "v": 80
    },
    {
      "midi": 64,
      "hit": false,
      "t": 160487.18700000053,
      "d": 487.80300000001444,
      "v": 80
    },
    {
      "midi": 66,
      "hit": false,
      "t": 160487.18700000053,
      "d": 487.80300000001444,
      "v": 80
    },
    {
      "midi": 69,
      "hit": false,
      "t": 160487.18700000053,
      "d": 487.80300000001444,
      "v": 80
    },
    {
      "midi": 50,
      "hit": false,
      "t": 160974.99000000054,
      "d": 487.80300000001444,
      "v": 80
    },
    {
      "midi": 57,
      "hit": false,
      "t": 160974.99000000054,
      "d": 487.80300000001444,
      "v": 80
    },
    {
      "midi": 62,
      "hit": false,
      "t": 160974.99000000054,
      "d": 487.80300000001444,
      "v": 80
    },
    {
      "midi": 66,
      "hit": false,
      "t": 160974.99000000054,
      "d": 487.80300000001444,
      "v": 80
    },
    {
      "midi": 50,
      "hit": false,
      "t": 161462.79300000056,
      "d": 487.80300000001444,
      "v": 80
    },
    {
      "midi": 59,
      "hit": false,
      "t": 161462.79300000056,
      "d": 487.80300000001444,
      "v": 80
    },
    {
      "midi": 62,
      "hit": false,
      "t": 161462.79300000056,
      "d": 487.80300000001444,
      "v": 80
    },
    {
      "midi": 66,
      "hit": false,
      "t": 161462.79300000056,
      "d": 487.80300000001444,
      "v": 80
    },
    {
      "midi": 69,
      "hit": false,
      "t": 161462.79300000056,
      "d": 487.80300000001444,
      "v": 80
    },
    {
      "midi": 50,
      "hit": false,
      "t": 161950.59600000057,
      "d": 487.80300000001444,
      "v": 80
    },
    {
      "midi": 57,
      "hit": false,
      "t": 161950.59600000057,
      "d": 487.80300000001444,
      "v": 80
    },
    {
      "midi": 62,
      "hit": false,
      "t": 161950.59600000057,
      "d": 487.80300000001444,
      "v": 80
    },
    {
      "midi": 66,
      "hit": false,
      "t": 161950.59600000057,
      "d": 487.80300000001444,
      "v": 80
    },
    {
      "midi": 50,
      "hit": false,
      "t": 162438.3990000006,
      "d": 487.80300000001444,
      "v": 80
    },
    {
      "midi": 59,
      "hit": false,
      "t": 162438.3990000006,
      "d": 487.80300000001444,
      "v": 80
    },
    {
      "midi": 62,
      "hit": false,
      "t": 162438.3990000006,
      "d": 487.80300000001444,
      "v": 80
    },
    {
      "midi": 66,
      "hit": false,
      "t": 162438.3990000006,
      "d": 487.80300000001444,
      "v": 80
    },
    {
      "midi": 69,
      "hit": false,
      "t": 162438.3990000006,
      "d": 487.80300000001444,
      "v": 80
    },
    {
      "midi": 45,
      "hit": false,
      "t": 162926.2020000006,
      "d": 975.6059999999998,
      "v": 80
    },
    {
      "midi": 57,
      "hit": false,
      "t": 162926.2020000006,
      "d": 975.6059999999998,
      "v": 80
    },
    {
      "midi": 61,
      "hit": false,
      "t": 162926.2020000006,
      "d": 975.6059999999998,
      "v": 80
    },
    {
      "midi": 64,
      "hit": false,
      "t": 162926.2020000006,
      "d": 975.6059999999998,
      "v": 80
    },
    {
      "midi": 43,
      "hit": false,
      "t": 163901.8080000006,
      "d": 487.80300000001444,
      "v": 80
    },
    {
      "midi": 55,
      "hit": false,
      "t": 163901.8080000006,
      "d": 487.80300000001444,
      "v": 80
    },
    {
      "midi": 59,
      "hit": false,
      "t": 163901.8080000006,
      "d": 487.80300000001444,
      "v": 80
    },
    {
      "midi": 62,
      "hit": false,
      "t": 163901.8080000006,
      "d": 487.80300000001444,
      "v": 80
    },
    {
      "midi": 57,
      "hit": false,
      "t": 164389.61100000062,
      "d": 276.42170000000624,
      "v": 90
    },
    {
      "midi": 62,
      "hit": false,
      "t": 164389.61100000062,
      "d": 276.42170000000624,
      "v": 90
    },
    {
      "midi": 66,
      "hit": false,
      "t": 164389.61100000062,
      "d": 276.42170000000624,
      "v": 90
    },
    {
      "midi": 45,
      "hit": false,
      "t": 164389.61100000062,
      "d": 333.33204999999725,
      "v": 90
    },
    {
      "midi": 45,
      "hit": false,
      "t": 164877.4140000006,
      "d": 975.6059999999998,
      "v": 80
    },
    {
      "midi": 57,
      "hit": false,
      "t": 164877.4140000006,
      "d": 975.6059999999998,
      "v": 80
    },
    {
      "midi": 61,
      "hit": false,
      "t": 164877.4140000006,
      "d": 975.6059999999998,
      "v": 80
    },
    {
      "midi": 64,
      "hit": false,
      "t": 164877.4140000006,
      "d": 975.6059999999998,
      "v": 80
    },
    {
      "midi": 45,
      "hit": false,
      "t": 165853.0200000006,
      "d": 203.25125000000116,
      "v": 80
    },
    {
      "midi": 57,
      "hit": false,
      "t": 165853.0200000006,
      "d": 203.25125000000116,
      "v": 80
    },
    {
      "midi": 61,
      "hit": false,
      "t": 165853.0200000006,
      "d": 203.25125000000116,
      "v": 80
    },
    {
      "midi": 64,
      "hit": false,
      "t": 165853.0200000006,
      "d": 203.25125000000116,
      "v": 80
    },
    {
      "midi": 45,
      "hit": false,
      "t": 166096.9215000006,
      "d": 723.5744499999855,
      "v": 80
    },
    {
      "midi": 61,
      "hit": false,
      "t": 166096.9215000006,
      "d": 723.5744499999855,
      "v": 80
    },
    {
      "midi": 64,
      "hit": false,
      "t": 166096.9215000006,
      "d": 723.5744499999855,
      "v": 80
    },
    {
      "midi": 67,
      "hit": false,
      "t": 166096.9215000006,
      "d": 723.5744499999855,
      "v": 80
    },
    {
      "midi": 69,
      "hit": false,
      "t": 166096.9215000006,
      "d": 723.5744499999855,
      "v": 80
    },
    {
      "midi": 45,
      "hit": false,
      "t": 166828.6260000006,
      "d": 975.6059999999998,
      "v": 80
    },
    {
      "midi": 57,
      "hit": false,
      "t": 166828.6260000006,
      "d": 975.6059999999998,
      "v": 80
    },
    {
      "midi": 61,
      "hit": false,
      "t": 166828.6260000006,
      "d": 975.6059999999998,
      "v": 80
    },
    {
      "midi": 64,
      "hit": false,
      "t": 166828.6260000006,
      "d": 975.6059999999998,
      "v": 80
    },
    {
      "midi": 45,
      "hit": false,
      "t": 167804.2320000006,
      "d": 203.25125000000116,
      "v": 80
    },
    {
      "midi": 57,
      "hit": false,
      "t": 167804.2320000006,
      "d": 203.25125000000116,
      "v": 80
    },
    {
      "midi": 61,
      "hit": false,
      "t": 167804.2320000006,
      "d": 203.25125000000116,
      "v": 80
    },
    {
      "midi": 64,
      "hit": false,
      "t": 167804.2320000006,
      "d": 203.25125000000116,
      "v": 80
    },
    {
      "midi": 45,
      "hit": false,
      "t": 168048.1335000006,
      "d": 723.5744499999855,
      "v": 80
    },
    {
      "midi": 61,
      "hit": false,
      "t": 168048.1335000006,
      "d": 723.5744499999855,
      "v": 80
    },
    {
      "midi": 64,
      "hit": false,
      "t": 168048.1335000006,
      "d": 723.5744499999855,
      "v": 80
    },
    {
      "midi": 67,
      "hit": false,
      "t": 168048.1335000006,
      "d": 723.5744499999855,
      "v": 80
    },
    {
      "midi": 69,
      "hit": false,
      "t": 168048.1335000006,
      "d": 723.5744499999855,
      "v": 80
    },
    {
      "midi": 50,
      "hit": false,
      "t": 168779.8380000006,
      "d": 975.6059999999998,
      "v": 80
    },
    {
      "midi": 57,
      "hit": false,
      "t": 168779.8380000006,
      "d": 975.6059999999998,
      "v": 80
    },
    {
      "midi": 62,
      "hit": false,
      "t": 168779.8380000006,
      "d": 975.6059999999998,
      "v": 80
    },
    {
      "midi": 66,
      "hit": false,
      "t": 168779.8380000006,
      "d": 975.6059999999998,
      "v": 80
    },
    {
      "midi": 50,
      "hit": false,
      "t": 169755.4440000006,
      "d": 203.25125000000116,
      "v": 80
    },
    {
      "midi": 57,
      "hit": false,
      "t": 169755.4440000006,
      "d": 203.25125000000116,
      "v": 80
    },
    {
      "midi": 62,
      "hit": false,
      "t": 169755.4440000006,
      "d": 203.25125000000116,
      "v": 80
    },
    {
      "midi": 66,
      "hit": false,
      "t": 169755.4440000006,
      "d": 203.25125000000116,
      "v": 80
    },
    {
      "midi": 50,
      "hit": false,
      "t": 169999.3455000006,
      "d": 723.5744499999855,
      "v": 80
    },
    {
      "midi": 60,
      "hit": false,
      "t": 169999.3455000006,
      "d": 723.5744499999855,
      "v": 80
    },
    {
      "midi": 62,
      "hit": false,
      "t": 169999.3455000006,
      "d": 723.5744499999855,
      "v": 80
    },
    {
      "midi": 66,
      "hit": false,
      "t": 169999.3455000006,
      "d": 723.5744499999855,
      "v": 80
    },
    {
      "midi": 69,
      "hit": false,
      "t": 169999.3455000006,
      "d": 723.5744499999855,
      "v": 80
    },
    {
      "midi": 45,
      "hit": false,
      "t": 170731.0500000006,
      "d": 975.6059999999998,
      "v": 80
    },
    {
      "midi": 57,
      "hit": false,
      "t": 170731.0500000006,
      "d": 975.6059999999998,
      "v": 80
    },
    {
      "midi": 61,
      "hit": false,
      "t": 170731.0500000006,
      "d": 975.6059999999998,
      "v": 80
    },
    {
      "midi": 64,
      "hit": false,
      "t": 170731.0500000006,
      "d": 975.6059999999998,
      "v": 80
    },
    {
      "midi": 43,
      "hit": false,
      "t": 171706.6560000006,
      "d": 333.33204999999725,
      "v": 90
    },
    {
      "midi": 55,
      "hit": false,
      "t": 171706.6560000006,
      "d": 357.72219999998924,
      "v": 90
    },
    {
      "midi": 59,
      "hit": false,
      "t": 171706.6560000006,
      "d": 357.72219999998924,
      "v": 90
    },
    {
      "midi": 62,
      "hit": false,
      "t": 171706.6560000006,
      "d": 357.72219999998924,
      "v": 90
    },
    {
      "midi": 57,
      "hit": false,
      "t": 172194.45900000058,
      "d": 276.42170000000624,
      "v": 90
    },
    {
      "midi": 62,
      "hit": false,
      "t": 172194.45900000058,
      "d": 276.42170000000624,
      "v": 90
    },
    {
      "midi": 66,
      "hit": false,
      "t": 172194.45900000058,
      "d": 276.42170000000624,
      "v": 90
    },
    {
      "midi": 45,
      "hit": false,
      "t": 172194.45900000058,
      "d": 333.33204999999725,
      "v": 90
    },
    {
      "midi": 45,
      "hit": false,
      "t": 172682.26200000057,
      "d": 691.0542499999865,
      "v": 80
    },
    {
      "midi": 61,
      "hit": false,
      "t": 172682.26200000057,
      "d": 691.0542499999865,
      "v": 80
    },
    {
      "midi": 64,
      "hit": false,
      "t": 172682.26200000057,
      "d": 691.0542499999865,
      "v": 80
    },
    {
      "midi": 67,
      "hit": false,
      "t": 172682.26200000057,
      "d": 691.0542499999865,
      "v": 80
    },
    {
      "midi": 69,
      "hit": false,
      "t": 172682.26200000057,
      "d": 691.0542499999865,
      "v": 80
    },
    {
      "midi": 45,
      "hit": false,
      "t": 173413.96650000056,
      "d": 1211.37745,
      "v": 80
    },
    {
      "midi": 61,
      "hit": false,
      "t": 173413.96650000056,
      "d": 1211.37745,
      "v": 80
    },
    {
      "midi": 64,
      "hit": false,
      "t": 173413.96650000056,
      "d": 1211.37745,
      "v": 80
    },
    {
      "midi": 67,
      "hit": false,
      "t": 173413.96650000056,
      "d": 1211.37745,
      "v": 80
    },
    {
      "midi": 72,
      "hit": false,
      "t": 173413.96650000056,
      "d": 1211.37745,
      "v": 80
    },
    {
      "midi": 45,
      "hit": false,
      "t": 174633.47400000057,
      "d": 691.0542499999865,
      "v": 80
    },
    {
      "midi": 57,
      "hit": false,
      "t": 174633.47400000057,
      "d": 691.0542499999865,
      "v": 80
    },
    {
      "midi": 61,
      "hit": false,
      "t": 174633.47400000057,
      "d": 691.0542499999865,
      "v": 80
    },
    {
      "midi": 64,
      "hit": false,
      "t": 174633.47400000057,
      "d": 691.0542499999865,
      "v": 80
    },
    {
      "midi": 45,
      "hit": false,
      "t": 175365.17850000056,
      "d": 1211.37745,
      "v": 80
    },
    {
      "midi": 61,
      "hit": false,
      "t": 175365.17850000056,
      "d": 1211.37745,
      "v": 80
    },
    {
      "midi": 64,
      "hit": false,
      "t": 175365.17850000056,
      "d": 1211.37745,
      "v": 80
    },
    {
      "midi": 67,
      "hit": false,
      "t": 175365.17850000056,
      "d": 1211.37745,
      "v": 80
    },
    {
      "midi": 72,
      "hit": false,
      "t": 175365.17850000056,
      "d": 1211.37745,
      "v": 80
    },
    {
      "midi": 50,
      "hit": false,
      "t": 176584.68600000057,
      "d": 975.6059999999998,
      "v": 80
    },
    {
      "midi": 57,
      "hit": false,
      "t": 176584.68600000057,
      "d": 975.6059999999998,
      "v": 80
    },
    {
      "midi": 62,
      "hit": false,
      "t": 176584.68600000057,
      "d": 975.6059999999998,
      "v": 80
    },
    {
      "midi": 66,
      "hit": false,
      "t": 176584.68600000057,
      "d": 975.6059999999998,
      "v": 80
    },
    {
      "midi": 50,
      "hit": false,
      "t": 177560.29200000057,
      "d": 203.25125000000116,
      "v": 80
    },
    {
      "midi": 57,
      "hit": false,
      "t": 177560.29200000057,
      "d": 203.25125000000116,
      "v": 80
    },
    {
      "midi": 62,
      "hit": false,
      "t": 177560.29200000057,
      "d": 203.25125000000116,
      "v": 80
    },
    {
      "midi": 66,
      "hit": false,
      "t": 177560.29200000057,
      "d": 203.25125000000116,
      "v": 80
    },
    {
      "midi": 50,
      "hit": false,
      "t": 177804.19350000058,
      "d": 723.5744499999855,
      "v": 80
    },
    {
      "midi": 60,
      "hit": false,
      "t": 177804.19350000058,
      "d": 723.5744499999855,
      "v": 80
    },
    {
      "midi": 62,
      "hit": false,
      "t": 177804.19350000058,
      "d": 723.5744499999855,
      "v": 80
    },
    {
      "midi": 66,
      "hit": false,
      "t": 177804.19350000058,
      "d": 723.5744499999855,
      "v": 80
    },
    {
      "midi": 69,
      "hit": false,
      "t": 177804.19350000058,
      "d": 723.5744499999855,
      "v": 80
    },
    {
      "midi": 45,
      "hit": false,
      "t": 178535.89800000057,
      "d": 975.6059999999998,
      "v": 80
    },
    {
      "midi": 57,
      "hit": false,
      "t": 178535.89800000057,
      "d": 975.6059999999998,
      "v": 80
    },
    {
      "midi": 61,
      "hit": false,
      "t": 178535.89800000057,
      "d": 975.6059999999998,
      "v": 80
    },
    {
      "midi": 64,
      "hit": false,
      "t": 178535.89800000057,
      "d": 975.6059999999998,
      "v": 80
    },
    {
      "midi": 43,
      "hit": false,
      "t": 179511.50400000057,
      "d": 487.80300000001444,
      "v": 80
    },
    {
      "midi": 55,
      "hit": false,
      "t": 179511.50400000057,
      "d": 487.80300000001444,
      "v": 80
    },
    {
      "midi": 59,
      "hit": false,
      "t": 179511.50400000057,
      "d": 487.80300000001444,
      "v": 80
    },
    {
      "midi": 62,
      "hit": false,
      "t": 179511.50400000057,
      "d": 487.80300000001444,
      "v": 80
    },
    {
      "midi": 57,
      "hit": false,
      "t": 179999.30700000058,
      "d": 276.42170000000624,
      "v": 90
    },
    {
      "midi": 62,
      "hit": false,
      "t": 179999.30700000058,
      "d": 276.42170000000624,
      "v": 90
    },
    {
      "midi": 66,
      "hit": false,
      "t": 179999.30700000058,
      "d": 276.42170000000624,
      "v": 90
    },
    {
      "midi": 50,
      "hit": false,
      "t": 179999.30700000058,
      "d": 333.33204999999725,
      "v": 90
    },
    {
      "midi": 45,
      "hit": false,
      "t": 180487.11000000057,
      "d": 691.0542500000156,
      "v": 80
    },
    {
      "midi": 57,
      "hit": false,
      "t": 180487.11000000057,
      "d": 691.0542500000156,
      "v": 80
    },
    {
      "midi": 61,
      "hit": false,
      "t": 180487.11000000057,
      "d": 691.0542500000156,
      "v": 80
    },
    {
      "midi": 64,
      "hit": false,
      "t": 180487.11000000057,
      "d": 691.0542500000156,
      "v": 80
    },
    {
      "midi": 45,
      "hit": false,
      "t": 181218.8145000006,
      "d": 1211.377450000029,
      "v": 80
    },
    {
      "midi": 61,
      "hit": false,
      "t": 181218.8145000006,
      "d": 1211.377450000029,
      "v": 80
    },
    {
      "midi": 64,
      "hit": false,
      "t": 181218.8145000006,
      "d": 1211.377450000029,
      "v": 80
    },
    {
      "midi": 67,
      "hit": false,
      "t": 181218.8145000006,
      "d": 1211.377450000029,
      "v": 80
    },
    {
      "midi": 72,
      "hit": false,
      "t": 181218.8145000006,
      "d": 1211.377450000029,
      "v": 80
    },
    {
      "midi": 45,
      "hit": false,
      "t": 182438.32200000063,
      "d": 691.0542500000156,
      "v": 80
    },
    {
      "midi": 57,
      "hit": false,
      "t": 182438.32200000063,
      "d": 691.0542500000156,
      "v": 80
    },
    {
      "midi": 61,
      "hit": false,
      "t": 182438.32200000063,
      "d": 691.0542500000156,
      "v": 80
    },
    {
      "midi": 64,
      "hit": false,
      "t": 182438.32200000063,
      "d": 691.0542500000156,
      "v": 80
    },
    {
      "midi": 45,
      "hit": false,
      "t": 183170.02650000065,
      "d": 1211.377450000029,
      "v": 80
    },
    {
      "midi": 61,
      "hit": false,
      "t": 183170.02650000065,
      "d": 1211.377450000029,
      "v": 80
    },
    {
      "midi": 64,
      "hit": false,
      "t": 183170.02650000065,
      "d": 1211.377450000029,
      "v": 80
    },
    {
      "midi": 67,
      "hit": false,
      "t": 183170.02650000065,
      "d": 1211.377450000029,
      "v": 80
    },
    {
      "midi": 72,
      "hit": false,
      "t": 183170.02650000065,
      "d": 1211.377450000029,
      "v": 80
    },
    {
      "midi": 50,
      "hit": false,
      "t": 184389.53400000068,
      "d": 691.0542500000156,
      "v": 80
    },
    {
      "midi": 57,
      "hit": false,
      "t": 184389.53400000068,
      "d": 691.0542500000156,
      "v": 80
    },
    {
      "midi": 62,
      "hit": false,
      "t": 184389.53400000068,
      "d": 691.0542500000156,
      "v": 80
    },
    {
      "midi": 66,
      "hit": false,
      "t": 184389.53400000068,
      "d": 691.0542500000156,
      "v": 80
    },
    {
      "midi": 50,
      "hit": false,
      "t": 185121.2385000007,
      "d": 1211.377450000029,
      "v": 80
    },
    {
      "midi": 60,
      "hit": false,
      "t": 185121.2385000007,
      "d": 1211.377450000029,
      "v": 80
    },
    {
      "midi": 62,
      "hit": false,
      "t": 185121.2385000007,
      "d": 1211.377450000029,
      "v": 80
    },
    {
      "midi": 66,
      "hit": false,
      "t": 185121.2385000007,
      "d": 1211.377450000029,
      "v": 80
    },
    {
      "midi": 69,
      "hit": false,
      "t": 185121.2385000007,
      "d": 1211.377450000029,
      "v": 80
    },
    {
      "midi": 45,
      "hit": false,
      "t": 186340.74600000074,
      "d": 691.0542500000156,
      "v": 80
    },
    {
      "midi": 57,
      "hit": false,
      "t": 186340.74600000074,
      "d": 691.0542500000156,
      "v": 80
    },
    {
      "midi": 61,
      "hit": false,
      "t": 186340.74600000074,
      "d": 691.0542500000156,
      "v": 80
    },
    {
      "midi": 64,
      "hit": false,
      "t": 186340.74600000074,
      "d": 691.0542500000156,
      "v": 80
    },
    {
      "midi": 45,
      "hit": false,
      "t": 187072.45050000076,
      "d": 1211.377450000029,
      "v": 80
    },
    {
      "midi": 61,
      "hit": false,
      "t": 187072.45050000076,
      "d": 1211.377450000029,
      "v": 80
    },
    {
      "midi": 64,
      "hit": false,
      "t": 187072.45050000076,
      "d": 1211.377450000029,
      "v": 80
    },
    {
      "midi": 67,
      "hit": false,
      "t": 187072.45050000076,
      "d": 1211.377450000029,
      "v": 80
    },
    {
      "midi": 69,
      "hit": false,
      "t": 187072.45050000076,
      "d": 1211.377450000029,
      "v": 80
    }
  ]
}