{
  "jsonPath": "Unknown/Unknown/Patrick Nuo/beautiful-original-radio-version.json",
  "path": "Unknown\\Unknown\\Patrick Nuo\\Beautiful (Original Radio Version).mid",
  "name": "Beautiful (Original Radio Version)",
  "difficulty": "Advanced",
  "bpm": 120,
  "notes": [
    {
      "midi": 49,
      "hit": false,
      "t": 33267.304,
      "d": 878.7122708333336,
      "v": 77
    },
    {
      "midi": 49,
      "hit": false,
      "t": 34455.42199999999,
      "d": 1175.7417708333378,
      "v": 77
    },
    {
      "midi": 49,
      "hit": false,
      "t": 35643.53999999999,
      "d": 878.7122708333336,
      "v": 77
    },
    {
      "midi": 60,
      "hit": false,
      "t": 36237.598999999995,
      "d": 2363.8597708333255,
      "v": 85
    },
    {
      "midi": 49,
      "hit": false,
      "t": 36831.65799999999,
      "d": 1175.7417708333305,
      "v": 77
    },
    {
      "midi": 44,
      "hit": false,
      "t": 38019.77599999998,
      "d": 878.7122708333336,
      "v": 87
    },
    {
      "midi": 44,
      "hit": false,
      "t": 39207.89399999998,
      "d": 1175.7417708333378,
      "v": 87
    },
    {
      "midi": 44,
      "hit": false,
      "t": 40396.01199999998,
      "d": 878.7122708333336,
      "v": 87
    },
    {
      "midi": 60,
      "hit": false,
      "t": 40990.07099999998,
      "d": 1769.8007708333243,
      "v": 85
    },
    {
      "midi": 44,
      "hit": false,
      "t": 41584.129999999976,
      "d": 1175.7417708333305,
      "v": 87
    },
    {
      "midi": 63,
      "hit": false,
      "t": 42772.24799999997,
      "d": 581.6827708333367,
      "v": 96
    },
    {
      "midi": 49,
      "hit": false,
      "t": 42772.24799999997,
      "d": 878.7122708333336,
      "v": 77
    },
    {
      "midi": 49,
      "hit": false,
      "t": 43960.365999999965,
      "d": 1175.7417708333378,
      "v": 77
    },
    {
      "midi": 49,
      "hit": false,
      "t": 45148.48399999997,
      "d": 878.7122708333336,
      "v": 77
    },
    {
      "midi": 60,
      "hit": false,
      "t": 45742.54299999997,
      "d": 1769.8007708333316,
      "v": 80
    },
    {
      "midi": 49,
      "hit": false,
      "t": 46336.60199999996,
      "d": 1175.7417708333378,
      "v": 77
    },
    {
      "midi": 56,
      "hit": false,
      "t": 47487.591312499964,
      "d": 878.7122708333336,
      "v": 69
    },
    {
      "midi": 44,
      "hit": false,
      "t": 47512.3437708333,
      "d": 581.6827708333294,
      "v": 87
    },
    {
      "midi": 60,
      "hit": false,
      "t": 47512.3437708333,
      "d": 878.7122708333336,
      "v": 74
    },
    {
      "midi": 63,
      "hit": false,
      "t": 47524.719999999965,
      "d": 878.7122708333336,
      "v": 81
    },
    {
      "midi": 44,
      "hit": false,
      "t": 49306.89699999996,
      "d": 581.6827708333221,
      "v": 87
    },
    {
      "midi": 56,
      "hit": false,
      "t": 49603.92649999996,
      "d": 259.9008124999964,
      "v": 51
    },
    {
      "midi": 60,
      "hit": false,
      "t": 49603.92649999996,
      "d": 272.2770416666608,
      "v": 75
    },
    {
      "midi": 63,
      "hit": false,
      "t": 49603.92649999996,
      "d": 284.6532708333252,
      "v": 70
    },
    {
      "midi": 41,
      "hit": false,
      "t": 49900.95599999995,
      "d": 594.0590000000011,
      "v": 76
    },
    {
      "midi": 53,
      "hit": false,
      "t": 50495.01499999995,
      "d": 1188.117999999995,
      "v": 60
    },
    {
      "midi": 56,
      "hit": false,
      "t": 50792.044499999945,
      "d": 1472.7712708333347,
      "v": 71
    },
    {
      "midi": 60,
      "hit": false,
      "t": 50792.044499999945,
      "d": 1472.7712708333347,
      "v": 71
    },
    {
      "midi": 65,
      "hit": false,
      "t": 50804.42072916661,
      "d": 1472.7712708333347,
      "v": 71
    },
    {
      "midi": 41,
      "hit": false,
      "t": 51670.75677083328,
      "d": 594.0590000000011,
      "v": 54
    },
    {
      "midi": 56,
      "hit": false,
      "t": 52277.191999999945,
      "d": 594.0590000000011,
      "v": 66
    },
    {
      "midi": 46,
      "hit": false,
      "t": 52277.191999999945,
      "d": 878.7122708333336,
      "v": 77
    },
    {
      "midi": 58,
      "hit": false,
      "t": 52871.250999999946,
      "d": 1782.1769999999888,
      "v": 73
    },
    {
      "midi": 46,
      "hit": false,
      "t": 53465.30999999994,
      "d": 1175.7417708333305,
      "v": 77
    },
    {
      "midi": 46,
      "hit": false,
      "t": 54653.427999999934,
      "d": 878.7122708333336,
      "v": 77
    },
    {
      "midi": 46,
      "hit": false,
      "t": 55841.54599999993,
      "d": 1175.7417708333305,
      "v": 77
    },
    {
      "midi": 56,
      "hit": false,
      "t": 57029.663999999924,
      "d": 594.0590000000011,
      "v": 81
    },
    {
      "midi": 39,
      "hit": false,
      "t": 57029.663999999924,
      "d": 878.7122708333336,
      "v": 77
    },
    {
      "midi": 58,
      "hit": false,
      "t": 57623.722999999925,
      "d": 1782.1769999999888,
      "v": 88
    },
    {
      "midi": 39,
      "hit": false,
      "t": 58217.78199999992,
      "d": 1175.7417708333305,
      "v": 77
    },
    {
      "midi": 39,
      "hit": false,
      "t": 59405.899999999914,
      "d": 878.7122708333336,
      "v": 77
    },
    {
      "midi": 39,
      "hit": false,
      "t": 60594.01799999991,
      "d": 1175.7417708333305,
      "v": 77
    },
    {
      "midi": 49,
      "hit": false,
      "t": 109306.85599999991,
      "d": 878.7122708333336,
      "v": 77
    },
    {
      "midi": 49,
      "hit": false,
      "t": 110494.97399999991,
      "d": 1175.7417708333232,
      "v": 77
    },
    {
      "midi": 49,
      "hit": false,
      "t": 111683.0919999999,
      "d": 878.7122708333336,
      "v": 77
    },
    {
      "midi": 60,
      "hit": false,
      "t": 112277.1509999999,
      "d": 2363.85977083334,
      "v": 71
    },
    {
      "midi": 49,
      "hit": false,
      "t": 112871.2099999999,
      "d": 1175.7417708333378,
      "v": 77
    },
    {
      "midi": 44,
      "hit": false,
      "t": 114059.3279999999,
      "d": 878.7122708333336,
      "v": 87
    },
    {
      "midi": 44,
      "hit": false,
      "t": 115247.44599999991,
      "d": 1175.7417708333232,
      "v": 87
    },
    {
      "midi": 44,
      "hit": false,
      "t": 116435.5639999999,
      "d": 878.7122708333336,
      "v": 87
    },
    {
      "midi": 60,
      "hit": false,
      "t": 117029.62299999989,
      "d": 1769.8007708333462,
      "v": 78
    },
    {
      "midi": 44,
      "hit": false,
      "t": 117623.6819999999,
      "d": 1175.7417708333378,
      "v": 87
    },
    {
      "midi": 75,
      "hit": false,
      "t": 118811.7999999999,
      "d": 581.6827708333294,
      "v": 74
    },
    {
      "midi": 49,
      "hit": false,
      "t": 118811.7999999999,
      "d": 878.7122708333336,
      "v": 77
    },
    {
      "midi": 49,
      "hit": false,
      "t": 119999.9179999999,
      "d": 1175.7417708333232,
      "v": 77
    },
    {
      "midi": 49,
      "hit": false,
      "t": 121188.03599999989,
      "d": 878.7122708333336,
      "v": 77
    },
    {
      "midi": 72,
      "hit": false,
      "t": 121782.09499999988,
      "d": 1769.8007708333316,
      "v": 58
    },
    {
      "midi": 49,
      "hit": false,
      "t": 122376.1539999999,
      "d": 1175.7417708333232,
      "v": 77
    },
    {
      "midi": 56,
      "hit": false,
      "t": 123527.14331249989,
      "d": 878.712270833319,
      "v": 69
    },
    {
      "midi": 44,
      "hit": false,
      "t": 123551.89577083322,
      "d": 581.6827708333294,
      "v": 87
    },
    {
      "midi": 60,
      "hit": false,
      "t": 123551.89577083322,
      "d": 878.712270833319,
      "v": 74
    },
    {
      "midi": 63,
      "hit": false,
      "t": 123564.27199999988,
      "d": 878.712270833319,
      "v": 81
    },
    {
      "midi": 44,
      "hit": false,
      "t": 125346.44899999986,
      "d": 581.6827708333294,
      "v": 87
    },
    {
      "midi": 56,
      "hit": false,
      "t": 125643.47849999987,
      "d": 259.9008124999964,
      "v": 51
    },
    {
      "midi": 60,
      "hit": false,
      "t": 125643.47849999987,
      "d": 272.2770416666608,
      "v": 75
    },
    {
      "midi": 63,
      "hit": false,
      "t": 125643.47849999987,
      "d": 284.6532708333252,
      "v": 70
    },
    {
      "midi": 41,
      "hit": false,
      "t": 125940.50799999986,
      "d": 594.0589999999938,
      "v": 76
    },
    {
      "midi": 53,
      "hit": false,
      "t": 126534.56699999985,
      "d": 1188.1180000000022,
      "v": 60
    },
    {
      "midi": 56,
      "hit": false,
      "t": 126831.59649999985,
      "d": 1472.7712708333274,
      "v": 71
    },
    {
      "midi": 60,
      "hit": false,
      "t": 126831.59649999985,
      "d": 1472.7712708333274,
      "v": 71
    },
    {
      "midi": 65,
      "hit": false,
      "t": 126843.97272916652,
      "d": 1472.7712708333274,
      "v": 71
    },
    {
      "midi": 41,
      "hit": false,
      "t": 127710.30877083319,
      "d": 594.0589999999938,
      "v": 54
    },
    {
      "midi": 56,
      "hit": false,
      "t": 128316.74399999985,
      "d": 594.0589999999938,
      "v": 66
    },
    {
      "midi": 46,
      "hit": false,
      "t": 128316.74399999985,
      "d": 878.7122708333336,
      "v": 77
    },
    {
      "midi": 58,
      "hit": false,
      "t": 128910.80299999984,
      "d": 1782.1770000000106,
      "v": 73
    },
    {
      "midi": 46,
      "hit": false,
      "t": 129504.86199999985,
      "d": 1175.7417708333378,
      "v": 77
    },
    {
      "midi": 46,
      "hit": false,
      "t": 130692.97999999985,
      "d": 878.7122708333336,
      "v": 77
    },
    {
      "midi": 46,
      "hit": false,
      "t": 131881.09799999985,
      "d": 1175.7417708333232,
      "v": 77
    },
    {
      "midi": 56,
      "hit": false,
      "t": 133069.21599999984,
      "d": 594.0590000000084,
      "v": 81
    },
    {
      "midi": 39,
      "hit": false,
      "t": 133069.21599999984,
      "d": 878.7122708333482,
      "v": 77
    },
    {
      "midi": 58,
      "hit": false,
      "t": 133663.27499999985,
      "d": 1782.176999999996,
      "v": 88
    },
    {
      "midi": 39,
      "hit": false,
      "t": 134257.33399999986,
      "d": 1175.7417708333232,
      "v": 77
    },
    {
      "midi": 39,
      "hit": false,
      "t": 135445.45199999984,
      "d": 878.712270833319,
      "v": 77
    },
    {
      "midi": 39,
      "hit": false,
      "t": 136633.56999999983,
      "d": 1175.7417708333232,
      "v": 77
    },
    {
      "midi": 75,
      "hit": false,
      "t": 192178.08649999983,
      "d": 297.0295000000042,
      "v": 76
    },
    {
      "midi": 84,
      "hit": false,
      "t": 192475.11599999983,
      "d": 2079.2065000000002,
      "v": 80
    },
    {
      "midi": 75,
      "hit": false,
      "t": 194554.32249999983,
      "d": 297.0295000000042,
      "v": 76
    },
    {
      "midi": 82,
      "hit": false,
      "t": 194851.35199999984,
      "d": 2079.2065000000002,
      "v": 81
    },
    {
      "midi": 75,
      "hit": false,
      "t": 196930.55849999984,
      "d": 297.0295000000042,
      "v": 76
    },
    {
      "midi": 84,
      "hit": false,
      "t": 198118.67649999986,
      "d": 1485.1474999999919,
      "v": 91
    },
    {
      "midi": 75,
      "hit": false,
      "t": 199306.79449999984,
      "d": 297.0295000000042,
      "v": 62
    },
    {
      "midi": 84,
      "hit": false,
      "t": 200494.91249999986,
      "d": 1485.1474999999919,
      "v": 91
    },
    {
      "midi": 75,
      "hit": false,
      "t": 201683.03049999985,
      "d": 297.0295000000042,
      "v": 67
    },
    {
      "midi": 75,
      "hit": false,
      "t": 202574.11899999986,
      "d": 297.0295000000042,
      "v": 76
    },
    {
      "midi": 82,
      "hit": false,
      "t": 202871.14849999986,
      "d": 1485.1474999999919,
      "v": 91
    },
    {
      "midi": 75,
      "hit": false,
      "t": 204059.26649999985,
      "d": 297.0295000000042,
      "v": 76
    },
    {
      "midi": 75,
      "hit": false,
      "t": 204950.35499999986,
      "d": 297.0295000000042,
      "v": 76
    },
    {
      "midi": 82,
      "hit": false,
      "t": 205247.38449999987,
      "d": 1485.1474999999919,
      "v": 91
    },
    {
      "midi": 32,
      "hit": false,
      "t": 216237.47599999985,
      "d": 2363.85977083334,
      "v": 66
    },
    {
      "midi": 44,
      "hit": false,
      "t": 216237.47599999985,
      "d": 2363.85977083334,
      "v": 66
    },
    {
      "midi": 56,
      "hit": false,
      "t": 216237.47599999985,
      "d": 2363.85977083334,
      "v": 77
    },
    {
      "midi": 63,
      "hit": false,
      "t": 216237.47599999985,
      "d": 2363.85977083334,
      "v": 77
    },
    {
      "midi": 60,
      "hit": false,
      "t": 216237.47599999985,
      "d": 2376.2360000000044,
      "v": 81
    },
    {
      "midi": 31,
      "hit": false,
      "t": 218613.71199999985,
      "d": 2363.85977083334,
      "v": 66
    },
    {
      "midi": 43,
      "hit": false,
      "t": 218613.71199999985,
      "d": 2363.85977083334,
      "v": 66
    },
    {
      "midi": 55,
      "hit": false,
      "t": 218613.71199999985,
      "d": 2363.85977083334,
      "v": 77
    },
    {
      "midi": 60,
      "hit": false,
      "t": 218613.71199999985,
      "d": 2363.85977083334,
      "v": 77
    },
    {
      "midi": 63,
      "hit": false,
      "t": 218613.71199999985,
      "d": 2376.2360000000044,
      "v": 81
    },
    {
      "midi": 37,
      "hit": false,
      "t": 278019.61199999985,
      "d": 5334.154770833324,
      "v": 53
    },
    {
      "midi": 49,
      "hit": false,
      "t": 278019.61199999985,
      "d": 5334.154770833324,
      "v": 64
    },
    {
      "midi": 56,
      "hit": false,
      "t": 278019.61199999985,
      "d": 5334.154770833324,
      "v": 75
    },
    {
      "midi": 61,
      "hit": false,
      "t": 278019.61199999985,
      "d": 5334.154770833324,
      "v": 74
    },
    {
      "midi": 63,
      "hit": false,
      "t": 278019.61199999985,
      "d": 5334.154770833324,
      "v": 64
    },
    {
      "midi": 65,
      "hit": false,
      "t": 278019.61199999985,
      "d": 5346.531000000017,
      "v": 79
    },
    {
      "midi": 32,
      "hit": false,
      "t": 283366.14299999987,
      "d": 4146.036770832725,
      "v": 24
    },
    {
      "midi": 44,
      "hit": false,
      "t": 283366.14299999987,
      "d": 4146.036770832725,
      "v": 33
    },
    {
      "midi": 48,
      "hit": false,
      "t": 283366.14299999987,
      "d": 4146.036770832725,
      "v": 47
    },
    {
      "midi": 51,
      "hit": false,
      "t": 283366.14299999987,
      "d": 4146.036770832725,
      "v": 70
    },
    {
      "midi": 56,
      "hit": false,
      "t": 283366.14299999987,
      "d": 4146.036770832725,
      "v": 69
    }
  ]
}