{
  "jsonPath": "Rock/Instrumental Rock/Derek Sherinian/sweet-lament.json",
  "path": "Rock\\Instrumental Rock\\Derek Sherinian\\Sweet lament.mid",
  "name": "Sweet lament",
  "difficulty": "Advanced",
  "bpm": 80,
  "notes": [
    {
      "midi": 62,
      "hit": false,
      "t": 6000,
      "d": 712.5,
      "v": 65
    },
    {
      "midi": 59,
      "hit": false,
      "t": 6000,
      "d": 762.5,
      "v": 48
    },
    {
      "midi": 67,
      "hit": false,
      "t": 6000,
      "d": 775,
      "v": 61
    },
    {
      "midi": 71,
      "hit": false,
      "t": 6000,
      "d": 775,
      "v": 56
    },
    {
      "midi": 50,
      "hit": false,
      "t": 6006.25,
      "d": 368.75,
      "v": 122
    },
    {
      "midi": 59,
      "hit": false,
      "t": 6006.25,
      "d": 856.25,
      "v": 122
    },
    {
      "midi": 43,
      "hit": false,
      "t": 6006.25,
      "d": 956.25,
      "v": 122
    },
    {
      "midi": 50,
      "hit": false,
      "t": 6381.25,
      "d": 368.75,
      "v": 122
    },
    {
      "midi": 67,
      "hit": false,
      "t": 6756.25,
      "d": 875,
      "v": 122
    },
    {
      "midi": 59,
      "hit": false,
      "t": 7125,
      "d": 375,
      "v": 46
    },
    {
      "midi": 62,
      "hit": false,
      "t": 7125,
      "d": 375,
      "v": 80
    },
    {
      "midi": 67,
      "hit": false,
      "t": 7125,
      "d": 375,
      "v": 62
    },
    {
      "midi": 71,
      "hit": false,
      "t": 7125,
      "d": 375,
      "v": 63
    },
    {
      "midi": 43,
      "hit": false,
      "t": 7131.25,
      "d": 368.75,
      "v": 122
    },
    {
      "midi": 59,
      "hit": false,
      "t": 7500,
      "d": 312.5,
      "v": 48
    },
    {
      "midi": 62,
      "hit": false,
      "t": 7500,
      "d": 312.5,
      "v": 65
    },
    {
      "midi": 67,
      "hit": false,
      "t": 7500,
      "d": 312.5,
      "v": 61
    },
    {
      "midi": 71,
      "hit": false,
      "t": 7500,
      "d": 312.5,
      "v": 56
    },
    {
      "midi": 59,
      "hit": false,
      "t": 7506.25,
      "d": 450,
      "v": 122
    },
    {
      "midi": 50,
      "hit": false,
      "t": 7506.25,
      "d": 487.5,
      "v": 122
    },
    {
      "midi": 43,
      "hit": false,
      "t": 7506.25,
      "d": 956.25,
      "v": 122
    },
    {
      "midi": 62,
      "hit": false,
      "t": 7875,
      "d": 1075,
      "v": 65
    },
    {
      "midi": 59,
      "hit": false,
      "t": 7875,
      "d": 1112.5,
      "v": 48
    },
    {
      "midi": 67,
      "hit": false,
      "t": 7875,
      "d": 1112.5,
      "v": 61
    },
    {
      "midi": 71,
      "hit": false,
      "t": 7875,
      "d": 1112.5,
      "v": 56
    },
    {
      "midi": 60,
      "hit": false,
      "t": 7881.25,
      "d": 181.25,
      "v": 122
    },
    {
      "midi": 52,
      "hit": false,
      "t": 7881.25,
      "d": 468.75,
      "v": 122
    },
    {
      "midi": 60,
      "hit": false,
      "t": 8075,
      "d": 175,
      "v": 90
    },
    {
      "midi": 62,
      "hit": false,
      "t": 8256.25,
      "d": 450,
      "v": 122
    },
    {
      "midi": 54,
      "hit": false,
      "t": 8256.25,
      "d": 487.5,
      "v": 122
    },
    {
      "midi": 52,
      "hit": false,
      "t": 8631.25,
      "d": 737.5,
      "v": 122
    },
    {
      "midi": 60,
      "hit": false,
      "t": 8631.25,
      "d": 1262.5,
      "v": 122
    },
    {
      "midi": 71,
      "hit": false,
      "t": 9000,
      "d": 2243.75,
      "v": 61
    },
    {
      "midi": 59,
      "hit": false,
      "t": 9000,
      "d": 3000,
      "v": 58
    },
    {
      "midi": 67,
      "hit": false,
      "t": 9006.25,
      "d": 2993.75,
      "v": 57
    },
    {
      "midi": 62,
      "hit": false,
      "t": 9018.75,
      "d": 2981.25,
      "v": 71
    },
    {
      "midi": 52,
      "hit": false,
      "t": 9381.25,
      "d": 1262.5,
      "v": 122
    },
    {
      "midi": 55,
      "hit": false,
      "t": 9756.25,
      "d": 550,
      "v": 122
    },
    {
      "midi": 67,
      "hit": false,
      "t": 10131.25,
      "d": 1225,
      "v": 122
    },
    {
      "midi": 52,
      "hit": false,
      "t": 10881.25,
      "d": 856.25,
      "v": 122
    },
    {
      "midi": 60,
      "hit": false,
      "t": 11256.25,
      "d": 1568.75,
      "v": 122
    },
    {
      "midi": 79,
      "hit": false,
      "t": 11268.75,
      "d": 375,
      "v": 60
    },
    {
      "midi": 59,
      "hit": false,
      "t": 11450,
      "d": 481.25,
      "v": 122
    },
    {
      "midi": 55,
      "hit": false,
      "t": 11631.25,
      "d": 368.75,
      "v": 122
    },
    {
      "midi": 71,
      "hit": false,
      "t": 11643.75,
      "d": 356.25,
      "v": 66
    },
    {
      "midi": 59,
      "hit": false,
      "t": 12000,
      "d": 1500,
      "v": 17
    },
    {
      "midi": 62,
      "hit": false,
      "t": 12000,
      "d": 1500,
      "v": 80
    },
    {
      "midi": 67,
      "hit": false,
      "t": 12000,
      "d": 1500,
      "v": 67
    },
    {
      "midi": 71,
      "hit": false,
      "t": 12000,
      "d": 1500,
      "v": 71
    },
    {
      "midi": 43,
      "hit": false,
      "t": 12006.25,
      "d": 12.5,
      "v": 122
    },
    {
      "midi": 50,
      "hit": false,
      "t": 12006.25,
      "d": 368.75,
      "v": 122
    },
    {
      "midi": 60,
      "hit": false,
      "t": 12187.5,
      "d": 75,
      "v": 24
    },
    {
      "midi": 79,
      "hit": false,
      "t": 12375,
      "d": 750,
      "v": 70
    },
    {
      "midi": 50,
      "hit": false,
      "t": 12381.25,
      "d": 918.75,
      "v": 122
    },
    {
      "midi": 83,
      "hit": false,
      "t": 12750,
      "d": 375,
      "v": 65
    },
    {
      "midi": 59,
      "hit": false,
      "t": 12756.25,
      "d": 656.25,
      "v": 122
    },
    {
      "midi": 67,
      "hit": false,
      "t": 12756.25,
      "d": 956.25,
      "v": 122
    },
    {
      "midi": 91,
      "hit": false,
      "t": 13125,
      "d": 325,
      "v": 75
    },
    {
      "midi": 43,
      "hit": false,
      "t": 13131.25,
      "d": 368.75,
      "v": 122
    },
    {
      "midi": 59,
      "hit": false,
      "t": 13500,
      "d": 312.5,
      "v": 48
    },
    {
      "midi": 62,
      "hit": false,
      "t": 13500,
      "d": 312.5,
      "v": 65
    },
    {
      "midi": 67,
      "hit": false,
      "t": 13500,
      "d": 312.5,
      "v": 61
    },
    {
      "midi": 71,
      "hit": false,
      "t": 13500,
      "d": 312.5,
      "v": 56
    },
    {
      "midi": 50,
      "hit": false,
      "t": 13506.25,
      "d": 368.75,
      "v": 122
    },
    {
      "midi": 59,
      "hit": false,
      "t": 13506.25,
      "d": 468.75,
      "v": 122
    },
    {
      "midi": 43,
      "hit": false,
      "t": 13506.25,
      "d": 956.25,
      "v": 122
    },
    {
      "midi": 60,
      "hit": false,
      "t": 13875,
      "d": 1075,
      "v": 65
    },
    {
      "midi": 55,
      "hit": false,
      "t": 13875,
      "d": 1112.5,
      "v": 48
    },
    {
      "midi": 64,
      "hit": false,
      "t": 13875,
      "d": 1112.5,
      "v": 61
    },
    {
      "midi": 67,
      "hit": false,
      "t": 13875,
      "d": 1112.5,
      "v": 56
    },
    {
      "midi": 60,
      "hit": false,
      "t": 13881.25,
      "d": 181.25,
      "v": 122
    },
    {
      "midi": 52,
      "hit": false,
      "t": 13881.25,
      "d": 431.25,
      "v": 122
    },
    {
      "midi": 60,
      "hit": false,
      "t": 14075,
      "d": 287.5,
      "v": 90
    },
    {
      "midi": 54,
      "hit": false,
      "t": 14256.25,
      "d": 487.5,
      "v": 122
    },
    {
      "midi": 62,
      "hit": false,
      "t": 14256.25,
      "d": 487.5,
      "v": 122
    },
    {
      "midi": 52,
      "hit": false,
      "t": 14631.25,
      "d": 737.5,
      "v": 122
    },
    {
      "midi": 60,
      "hit": false,
      "t": 14631.25,
      "d": 1287.5,
      "v": 122
    },
    {
      "midi": 43,
      "hit": false,
      "t": 14631.25,
      "d": 3350,
      "v": 122
    },
    {
      "midi": 60,
      "hit": false,
      "t": 15000,
      "d": 1418.75,
      "v": 66
    },
    {
      "midi": 55,
      "hit": false,
      "t": 15000,
      "d": 1493.75,
      "v": 45
    },
    {
      "midi": 64,
      "hit": false,
      "t": 15000,
      "d": 1500,
      "v": 53
    },
    {
      "midi": 67,
      "hit": false,
      "t": 15000,
      "d": 1556.25,
      "v": 52
    },
    {
      "midi": 72,
      "hit": false,
      "t": 15000,
      "d": 1725,
      "v": 65
    },
    {
      "midi": 79,
      "hit": false,
      "t": 15000,
      "d": 1781.25,
      "v": 59
    },
    {
      "midi": 52,
      "hit": false,
      "t": 15381.25,
      "d": 1387.5,
      "v": 122
    },
    {
      "midi": 55,
      "hit": false,
      "t": 15756.25,
      "d": 531.25,
      "v": 122
    },
    {
      "midi": 67,
      "hit": false,
      "t": 16131.25,
      "d": 1243.75,
      "v": 122
    },
    {
      "midi": 55,
      "hit": false,
      "t": 16875,
      "d": 1125,
      "v": 69
    },
    {
      "midi": 52,
      "hit": false,
      "t": 16881.25,
      "d": 900,
      "v": 122
    },
    {
      "midi": 60,
      "hit": false,
      "t": 17062.5,
      "d": 937.5,
      "v": 49
    },
    {
      "midi": 64,
      "hit": false,
      "t": 17250,
      "d": 750,
      "v": 76
    },
    {
      "midi": 60,
      "hit": false,
      "t": 17256.25,
      "d": 368.75,
      "v": 122
    },
    {
      "midi": 67,
      "hit": false,
      "t": 17437.5,
      "d": 562.5,
      "v": 79
    },
    {
      "midi": 55,
      "hit": false,
      "t": 17631.25,
      "d": 368.75,
      "v": 122
    },
    {
      "midi": 72,
      "hit": false,
      "t": 17812.5,
      "d": 187.5,
      "v": 85
    },
    {
      "midi": 59,
      "hit": false,
      "t": 18006.25,
      "d": 1093.75,
      "v": 122
    },
    {
      "midi": 43,
      "hit": false,
      "t": 18006.25,
      "d": 1568.75,
      "v": 122
    },
    {
      "midi": 43,
      "hit": false,
      "t": 18018.75,
      "d": 1481.25,
      "v": 65
    },
    {
      "midi": 59,
      "hit": false,
      "t": 18156.25,
      "d": 1343.75,
      "v": 83
    },
    {
      "midi": 67,
      "hit": false,
      "t": 18300,
      "d": 1200,
      "v": 63
    },
    {
      "midi": 50,
      "hit": false,
      "t": 18381.25,
      "d": 525,
      "v": 122
    },
    {
      "midi": 71,
      "hit": false,
      "t": 18431.25,
      "d": 1068.75,
      "v": 57
    },
    {
      "midi": 74,
      "hit": false,
      "t": 18537.5,
      "d": 962.5,
      "v": 58
    },
    {
      "midi": 83,
      "hit": false,
      "t": 18668.75,
      "d": 831.25,
      "v": 63
    },
    {
      "midi": 55,
      "hit": false,
      "t": 18756.25,
      "d": 862.5,
      "v": 122
    },
    {
      "midi": 67,
      "hit": false,
      "t": 19131.25,
      "d": 506.25,
      "v": 122
    },
    {
      "midi": 57,
      "hit": false,
      "t": 19500,
      "d": 1500,
      "v": 23
    },
    {
      "midi": 62,
      "hit": false,
      "t": 19500,
      "d": 1500,
      "v": 86
    },
    {
      "midi": 66,
      "hit": false,
      "t": 19500,
      "d": 1500,
      "v": 73
    },
    {
      "midi": 69,
      "hit": false,
      "t": 19500,
      "d": 1500,
      "v": 77
    },
    {
      "midi": 66,
      "hit": false,
      "t": 19506.25,
      "d": 650,
      "v": 122
    },
    {
      "midi": 42,
      "hit": false,
      "t": 19506.25,
      "d": 1500,
      "v": 122
    },
    {
      "midi": 59,
      "hit": false,
      "t": 19687.5,
      "d": 75,
      "v": 30
    },
    {
      "midi": 78,
      "hit": false,
      "t": 19875,
      "d": 750,
      "v": 76
    },
    {
      "midi": 50,
      "hit": false,
      "t": 19881.25,
      "d": 475,
      "v": 122
    },
    {
      "midi": 67,
      "hit": false,
      "t": 20075,
      "d": 637.5,
      "v": 122
    },
    {
      "midi": 81,
      "hit": false,
      "t": 20250,
      "d": 375,
      "v": 71
    },
    {
      "midi": 62,
      "hit": false,
      "t": 20256.25,
      "d": 850,
      "v": 122
    },
    {
      "midi": 57,
      "hit": false,
      "t": 20256.25,
      "d": 900,
      "v": 122
    },
    {
      "midi": 90,
      "hit": false,
      "t": 20625,
      "d": 325,
      "v": 81
    },
    {
      "midi": 69,
      "hit": false,
      "t": 20631.25,
      "d": 487.5,
      "v": 122
    },
    {
      "midi": 59,
      "hit": false,
      "t": 21000,
      "d": 2400,
      "v": 86
    },
    {
      "midi": 55,
      "hit": false,
      "t": 21000,
      "d": 2443.75,
      "v": 23
    },
    {
      "midi": 64,
      "hit": false,
      "t": 21000,
      "d": 2443.75,
      "v": 73
    },
    {
      "midi": 67,
      "hit": false,
      "t": 21000,
      "d": 2481.25,
      "v": 77
    },
    {
      "midi": 71,
      "hit": false,
      "t": 21006.25,
      "d": 368.75,
      "v": 122
    },
    {
      "midi": 40,
      "hit": false,
      "t": 21006.25,
      "d": 3150,
      "v": 122
    },
    {
      "midi": 57,
      "hit": false,
      "t": 21187.5,
      "d": 75,
      "v": 30
    },
    {
      "midi": 76,
      "hit": false,
      "t": 21375,
      "d": 750,
      "v": 76
    },
    {
      "midi": 47,
      "hit": false,
      "t": 21381.25,
      "d": 506.25,
      "v": 122
    },
    {
      "midi": 71,
      "hit": false,
      "t": 21381.25,
      "d": 2006.25,
      "v": 122
    },
    {
      "midi": 79,
      "hit": false,
      "t": 21750,
      "d": 375,
      "v": 71
    },
    {
      "midi": 52,
      "hit": false,
      "t": 21756.25,
      "d": 456.25,
      "v": 122
    },
    {
      "midi": 88,
      "hit": false,
      "t": 22125,
      "d": 325,
      "v": 81
    },
    {
      "midi": 64,
      "hit": false,
      "t": 22131.25,
      "d": 1893.75,
      "v": 122
    },
    {
      "midi": 55,
      "hit": false,
      "t": 22131.25,
      "d": 2037.5,
      "v": 122
    },
    {
      "midi": 83,
      "hit": false,
      "t": 22500,
      "d": 675,
      "v": 72
    },
    {
      "midi": 79,
      "hit": false,
      "t": 23250,
      "d": 568.75,
      "v": 75
    },
    {
      "midi": 69,
      "hit": false,
      "t": 23256.25,
      "d": 487.5,
      "v": 122
    },
    {
      "midi": 71,
      "hit": false,
      "t": 23631.25,
      "d": 368.75,
      "v": 122
    },
    {
      "midi": 72,
      "hit": false,
      "t": 24006.25,
      "d": 368.75,
      "v": 122
    },
    {
      "midi": 45,
      "hit": false,
      "t": 24006.25,
      "d": 1600,
      "v": 122
    },
    {
      "midi": 45,
      "hit": false,
      "t": 24018.75,
      "d": 1481.25,
      "v": 65
    },
    {
      "midi": 52,
      "hit": false,
      "t": 24156.25,
      "d": 1343.75,
      "v": 83
    },
    {
      "midi": 60,
      "hit": false,
      "t": 24300,
      "d": 1200,
      "v": 63
    },
    {
      "midi": 52,
      "hit": false,
      "t": 24381.25,
      "d": 506.25,
      "v": 122
    },
    {
      "midi": 72,
      "hit": false,
      "t": 24381.25,
      "d": 668.75,
      "v": 122
    },
    {
      "midi": 64,
      "hit": false,
      "t": 24431.25,
      "d": 1068.75,
      "v": 57
    },
    {
      "midi": 69,
      "hit": false,
      "t": 24537.5,
      "d": 962.5,
      "v": 58
    },
    {
      "midi": 76,
      "hit": false,
      "t": 24668.75,
      "d": 831.25,
      "v": 63
    },
    {
      "midi": 60,
      "hit": false,
      "t": 24756.25,
      "d": 900,
      "v": 122
    },
    {
      "midi": 72,
      "hit": false,
      "t": 25131.25,
      "d": 487.5,
      "v": 122
    },
    {
      "midi": 71,
      "hit": false,
      "t": 25506.25,
      "d": 850,
      "v": 122
    },
    {
      "midi": 64,
      "hit": false,
      "t": 25506.25,
      "d": 881.25,
      "v": 122
    },
    {
      "midi": 43,
      "hit": false,
      "t": 25506.25,
      "d": 1487.5,
      "v": 122
    },
    {
      "midi": 43,
      "hit": false,
      "t": 25518.75,
      "d": 1481.25,
      "v": 65
    },
    {
      "midi": 55,
      "hit": false,
      "t": 25656.25,
      "d": 1343.75,
      "v": 83
    },
    {
      "midi": 64,
      "hit": false,
      "t": 25800,
      "d": 1200,
      "v": 63
    },
    {
      "midi": 52,
      "hit": false,
      "t": 25881.25,
      "d": 487.5,
      "v": 122
    },
    {
      "midi": 67,
      "hit": false,
      "t": 25931.25,
      "d": 1068.75,
      "v": 57
    },
    {
      "midi": 71,
      "hit": false,
      "t": 26037.5,
      "d": 962.5,
      "v": 58
    },
    {
      "midi": 79,
      "hit": false,
      "t": 26168.75,
      "d": 831.25,
      "v": 63
    },
    {
      "midi": 67,
      "hit": false,
      "t": 26256.25,
      "d": 487.5,
      "v": 122
    },
    {
      "midi": 59,
      "hit": false,
      "t": 26256.25,
      "d": 818.75,
      "v": 122
    },
    {
      "midi": 69,
      "hit": false,
      "t": 26631.25,
      "d": 368.75,
      "v": 122
    },
    {
      "midi": 62,
      "hit": false,
      "t": 27000,
      "d": 712.5,
      "v": 71
    },
    {
      "midi": 57,
      "hit": false,
      "t": 27000,
      "d": 762.5,
      "v": 54
    },
    {
      "midi": 66,
      "hit": false,
      "t": 27000,
      "d": 775,
      "v": 67
    },
    {
      "midi": 69,
      "hit": false,
      "t": 27000,
      "d": 775,
      "v": 62
    },
    {
      "midi": 42,
      "hit": false,
      "t": 27006.25,
      "d": 1812.5,
      "v": 122
    },
    {
      "midi": 69,
      "hit": false,
      "t": 27006.25,
      "d": 2987.5,
      "v": 122
    },
    {
      "midi": 57,
      "hit": false,
      "t": 27381.25,
      "d": 475,
      "v": 122
    },
    {
      "midi": 62,
      "hit": false,
      "t": 27756.25,
      "d": 506.25,
      "v": 122
    },
    {
      "midi": 69,
      "hit": false,
      "t": 28125,
      "d": 1325,
      "v": 69
    },
    {
      "midi": 57,
      "hit": false,
      "t": 28125,
      "d": 1475,
      "v": 52
    },
    {
      "midi": 62,
      "hit": false,
      "t": 28125,
      "d": 1487.5,
      "v": 86
    },
    {
      "midi": 66,
      "hit": false,
      "t": 28125,
      "d": 1518.75,
      "v": 68
    },
    {
      "midi": 57,
      "hit": false,
      "t": 28131.25,
      "d": 506.25,
      "v": 122
    },
    {
      "midi": 64,
      "hit": false,
      "t": 28506.25,
      "d": 506.25,
      "v": 122
    },
    {
      "midi": 57,
      "hit": false,
      "t": 28881.25,
      "d": 506.25,
      "v": 122
    },
    {
      "midi": 42,
      "hit": false,
      "t": 28881.25,
      "d": 1043.75,
      "v": 122
    },
    {
      "midi": 78,
      "hit": false,
      "t": 29250,
      "d": 225,
      "v": 77
    },
    {
      "midi": 62,
      "hit": false,
      "t": 29256.25,
      "d": 487.5,
      "v": 122
    },
    {
      "midi": 81,
      "hit": false,
      "t": 29625,
      "d": 168.75,
      "v": 76
    },
    {
      "midi": 57,
      "hit": false,
      "t": 29631.25,
      "d": 368.75,
      "v": 122
    },
    {
      "midi": 62,
      "hit": false,
      "t": 30000,
      "d": 712.5,
      "v": 71
    },
    {
      "midi": 59,
      "hit": false,
      "t": 30000,
      "d": 762.5,
      "v": 54
    },
    {
      "midi": 67,
      "hit": false,
      "t": 30000,
      "d": 775,
      "v": 67
    },
    {
      "midi": 71,
      "hit": false,
      "t": 30000,
      "d": 775,
      "v": 62
    },
    {
      "midi": 59,
      "hit": false,
      "t": 30006.25,
      "d": 1112.5,
      "v": 122
    },
    {
      "midi": 43,
      "hit": false,
      "t": 30006.25,
      "d": 1618.75,
      "v": 122
    },
    {
      "midi": 50,
      "hit": false,
      "t": 30381.25,
      "d": 606.25,
      "v": 122
    },
    {
      "midi": 55,
      "hit": false,
      "t": 30756.25,
      "d": 850,
      "v": 122
    },
    {
      "midi": 59,
      "hit": false,
      "t": 31125,
      "d": 375,
      "v": 52
    },
    {
      "midi": 62,
      "hit": false,
      "t": 31125,
      "d": 375,
      "v": 86
    },
    {
      "midi": 67,
      "hit": false,
      "t": 31125,
      "d": 375,
      "v": 68
    },
    {
      "midi": 71,
      "hit": false,
      "t": 31125,
      "d": 375,
      "v": 69
    },
    {
      "midi": 67,
      "hit": false,
      "t": 31131.25,
      "d": 506.25,
      "v": 122
    },
    {
      "midi": 57,
      "hit": false,
      "t": 31500,
      "d": 1500,
      "v": 23
    },
    {
      "midi": 62,
      "hit": false,
      "t": 31500,
      "d": 1500,
      "v": 86
    },
    {
      "midi": 66,
      "hit": false,
      "t": 31500,
      "d": 1500,
      "v": 73
    },
    {
      "midi": 69,
      "hit": false,
      "t": 31500,
      "d": 1500,
      "v": 77
    },
    {
      "midi": 66,
      "hit": false,
      "t": 31506.25,
      "d": 637.5,
      "v": 122
    },
    {
      "midi": 42,
      "hit": false,
      "t": 31506.25,
      "d": 1631.25,
      "v": 122
    },
    {
      "midi": 59,
      "hit": false,
      "t": 31687.5,
      "d": 75,
      "v": 30
    },
    {
      "midi": 78,
      "hit": false,
      "t": 31875,
      "d": 750,
      "v": 76
    },
    {
      "midi": 50,
      "hit": false,
      "t": 31881.25,
      "d": 456.25,
      "v": 122
    },
    {
      "midi": 74,
      "hit": false,
      "t": 32075,
      "d": 687.5,
      "v": 122
    },
    {
      "midi": 81,
      "hit": false,
      "t": 32250,
      "d": 375,
      "v": 71
    },
    {
      "midi": 62,
      "hit": false,
      "t": 32256.25,
      "d": 850,
      "v": 122
    },
    {
      "midi": 57,
      "hit": false,
      "t": 32256.25,
      "d": 900,
      "v": 122
    },
    {
      "midi": 90,
      "hit": false,
      "t": 32625,
      "d": 325,
      "v": 81
    },
    {
      "midi": 72,
      "hit": false,
      "t": 32631.25,
      "d": 456.25,
      "v": 122
    },
    {
      "midi": 59,
      "hit": false,
      "t": 33000,
      "d": 2400,
      "v": 86
    },
    {
      "midi": 55,
      "hit": false,
      "t": 33000,
      "d": 2443.75,
      "v": 23
    },
    {
      "midi": 64,
      "hit": false,
      "t": 33000,
      "d": 2443.75,
      "v": 73
    },
    {
      "midi": 67,
      "hit": false,
      "t": 33000,
      "d": 2481.25,
      "v": 77
    },
    {
      "midi": 71,
      "hit": false,
      "t": 33006.25,
      "d": 312.5,
      "v": 122
    },
    {
      "midi": 40,
      "hit": false,
      "t": 33006.25,
      "d": 3006.25,
      "v": 122
    },
    {
      "midi": 57,
      "hit": false,
      "t": 33187.5,
      "d": 75,
      "v": 30
    },
    {
      "midi": 69,
      "hit": false,
      "t": 33200,
      "d": 262.5,
      "v": 122
    },
    {
      "midi": 76,
      "hit": false,
      "t": 33375,
      "d": 750,
      "v": 76
    },
    {
      "midi": 67,
      "hit": false,
      "t": 33381.25,
      "d": 368.75,
      "v": 122
    },
    {
      "midi": 47,
      "hit": false,
      "t": 33381.25,
      "d": 475,
      "v": 122
    },
    {
      "midi": 79,
      "hit": false,
      "t": 33750,
      "d": 375,
      "v": 71
    },
    {
      "midi": 52,
      "hit": false,
      "t": 33756.25,
      "d": 443.75,
      "v": 122
    },
    {
      "midi": 67,
      "hit": false,
      "t": 33756.25,
      "d": 1600,
      "v": 122
    },
    {
      "midi": 88,
      "hit": false,
      "t": 34125,
      "d": 325,
      "v": 81
    },
    {
      "midi": 64,
      "hit": false,
      "t": 34131.25,
      "d": 2025,
      "v": 122
    },
    {
      "midi": 55,
      "hit": false,
      "t": 34131.25,
      "d": 2037.5,
      "v": 122
    },
    {
      "midi": 83,
      "hit": false,
      "t": 34500,
      "d": 675,
      "v": 72
    },
    {
      "midi": 79,
      "hit": false,
      "t": 35250,
      "d": 568.75,
      "v": 75
    },
    {
      "midi": 69,
      "hit": false,
      "t": 35256.25,
      "d": 456.25,
      "v": 122
    },
    {
      "midi": 71,
      "hit": false,
      "t": 35631.25,
      "d": 475,
      "v": 122
    },
    {
      "midi": 52,
      "hit": false,
      "t": 36000,
      "d": 1500,
      "v": 23
    },
    {
      "midi": 57,
      "hit": false,
      "t": 36000,
      "d": 1500,
      "v": 86
    },
    {
      "midi": 60,
      "hit": false,
      "t": 36000,
      "d": 1500,
      "v": 73
    },
    {
      "midi": 64,
      "hit": false,
      "t": 36000,
      "d": 1500,
      "v": 77
    },
    {
      "midi": 72,
      "hit": false,
      "t": 36006.25,
      "d": 368.75,
      "v": 122
    },
    {
      "midi": 45,
      "hit": false,
      "t": 36006.25,
      "d": 1600,
      "v": 122
    },
    {
      "midi": 54,
      "hit": false,
      "t": 36187.5,
      "d": 75,
      "v": 30
    },
    {
      "midi": 72,
      "hit": false,
      "t": 36375,
      "d": 750,
      "v": 76
    },
    {
      "midi": 52,
      "hit": false,
      "t": 36381.25,
      "d": 456.25,
      "v": 122
    },
    {
      "midi": 72,
      "hit": false,
      "t": 36381.25,
      "d": 650,
      "v": 122
    },
    {
      "midi": 76,
      "hit": false,
      "t": 36750,
      "d": 375,
      "v": 71
    },
    {
      "midi": 60,
      "hit": false,
      "t": 36756.25,
      "d": 831.25,
      "v": 122
    },
    {
      "midi": 84,
      "hit": false,
      "t": 37125,
      "d": 325,
      "v": 81
    },
    {
      "midi": 72,
      "hit": false,
      "t": 37131.25,
      "d": 506.25,
      "v": 122
    },
    {
      "midi": 71,
      "hit": false,
      "t": 37506.25,
      "d": 862.5,
      "v": 122
    },
    {
      "midi": 64,
      "hit": false,
      "t": 37506.25,
      "d": 881.25,
      "v": 122
    },
    {
      "midi": 43,
      "hit": false,
      "t": 37506.25,
      "d": 1631.25,
      "v": 122
    },
    {
      "midi": 43,
      "hit": false,
      "t": 37518.75,
      "d": 1481.25,
      "v": 65
    },
    {
      "midi": 55,
      "hit": false,
      "t": 37656.25,
      "d": 1343.75,
      "v": 83
    },
    {
      "midi": 64,
      "hit": false,
      "t": 37800,
      "d": 1200,
      "v": 63
    },
    {
      "midi": 52,
      "hit": false,
      "t": 37881.25,
      "d": 487.5,
      "v": 122
    },
    {
      "midi": 67,
      "hit": false,
      "t": 37931.25,
      "d": 1068.75,
      "v": 57
    },
    {
      "midi": 71,
      "hit": false,
      "t": 38037.5,
      "d": 962.5,
      "v": 58
    },
    {
      "midi": 79,
      "hit": false,
      "t": 38168.75,
      "d": 831.25,
      "v": 63
    },
    {
      "midi": 72,
      "hit": false,
      "t": 38256.25,
      "d": 456.25,
      "v": 122
    },
    {
      "midi": 59,
      "hit": false,
      "t": 38256.25,
      "d": 881.25,
      "v": 122
    },
    {
      "midi": 74,
      "hit": false,
      "t": 38631.25,
      "d": 487.5,
      "v": 122
    },
    {
      "midi": 62,
      "hit": false,
      "t": 39000,
      "d": 2400,
      "v": 86
    },
    {
      "midi": 57,
      "hit": false,
      "t": 39000,
      "d": 2443.75,
      "v": 23
    },
    {
      "midi": 66,
      "hit": false,
      "t": 39000,
      "d": 2443.75,
      "v": 73
    },
    {
      "midi": 69,
      "hit": false,
      "t": 39000,
      "d": 2481.25,
      "v": 77
    },
    {
      "midi": 42,
      "hit": false,
      "t": 39006.25,
      "d": 1812.5,
      "v": 122
    },
    {
      "midi": 69,
      "hit": false,
      "t": 39006.25,
      "d": 2987.5,
      "v": 122
    },
    {
      "midi": 59,
      "hit": false,
      "t": 39187.5,
      "d": 75,
      "v": 30
    },
    {
      "midi": 78,
      "hit": false,
      "t": 39375,
      "d": 750,
      "v": 76
    },
    {
      "midi": 57,
      "hit": false,
      "t": 39381.25,
      "d": 443.75,
      "v": 122
    },
    {
      "midi": 81,
      "hit": false,
      "t": 39750,
      "d": 375,
      "v": 71
    },
    {
      "midi": 62,
      "hit": false,
      "t": 39756.25,
      "d": 475,
      "v": 122
    },
    {
      "midi": 90,
      "hit": false,
      "t": 40125,
      "d": 325,
      "v": 81
    },
    {
      "midi": 57,
      "hit": false,
      "t": 40131.25,
      "d": 487.5,
      "v": 122
    },
    {
      "midi": 86,
      "hit": false,
      "t": 40500,
      "d": 675,
      "v": 72
    },
    {
      "midi": 64,
      "hit": false,
      "t": 40506.25,
      "d": 506.25,
      "v": 122
    },
    {
      "midi": 57,
      "hit": false,
      "t": 40881.25,
      "d": 456.25,
      "v": 122
    },
    {
      "midi": 42,
      "hit": false,
      "t": 40881.25,
      "d": 1062.5,
      "v": 122
    },
    {
      "midi": 81,
      "hit": false,
      "t": 41250,
      "d": 568.75,
      "v": 75
    },
    {
      "midi": 62,
      "hit": false,
      "t": 41256.25,
      "d": 737.5,
      "v": 122
    },
    {
      "midi": 67,
      "hit": false,
      "t": 42000,
      "d": 2243.75,
      "v": 61
    },
    {
      "midi": 55,
      "hit": false,
      "t": 42000,
      "d": 3000,
      "v": 58
    },
    {
      "midi": 64,
      "hit": false,
      "t": 42006.25,
      "d": 2993.75,
      "v": 57
    },
    {
      "midi": 48,
      "hit": false,
      "t": 42006.25,
      "d": 3068.75,
      "v": 122
    },
    {
      "midi": 60,
      "hit": false,
      "t": 42018.75,
      "d": 2981.25,
      "v": 71
    },
    {
      "midi": 52,
      "hit": false,
      "t": 42381.25,
      "d": 475,
      "v": 122
    },
    {
      "midi": 55,
      "hit": false,
      "t": 42756.25,
      "d": 475,
      "v": 122
    },
    {
      "midi": 64,
      "hit": false,
      "t": 43131.25,
      "d": 475,
      "v": 122
    },
    {
      "midi": 76,
      "hit": false,
      "t": 43506.25,
      "d": 368.75,
      "v": 122
    },
    {
      "midi": 67,
      "hit": false,
      "t": 43506.25,
      "d": 506.25,
      "v": 122
    },
    {
      "midi": 76,
      "hit": false,
      "t": 43881.25,
      "d": 368.75,
      "v": 122
    },
    {
      "midi": 55,
      "hit": false,
      "t": 43881.25,
      "d": 475,
      "v": 122
    },
    {
      "midi": 76,
      "hit": false,
      "t": 44256.25,
      "d": 368.75,
      "v": 122
    },
    {
      "midi": 60,
      "hit": false,
      "t": 44256.25,
      "d": 831.25,
      "v": 122
    },
    {
      "midi": 76,
      "hit": false,
      "t": 44268.75,
      "d": 375,
      "v": 60
    },
    {
      "midi": 75,
      "hit": false,
      "t": 44631.25,
      "d": 1075,
      "v": 122
    },
    {
      "midi": 66,
      "hit": false,
      "t": 44631.25,
      "d": 1206.25,
      "v": 122
    },
    {
      "midi": 67,
      "hit": false,
      "t": 44643.75,
      "d": 356.25,
      "v": 66
    },
    {
      "midi": 57,
      "hit": false,
      "t": 45000,
      "d": 2400,
      "v": 80
    },
    {
      "midi": 54,
      "hit": false,
      "t": 45000,
      "d": 2443.75,
      "v": 17
    },
    {
      "midi": 59,
      "hit": false,
      "t": 45000,
      "d": 2443.75,
      "v": 67
    },
    {
      "midi": 63,
      "hit": false,
      "t": 45000,
      "d": 2481.25,
      "v": 71
    },
    {
      "midi": 47,
      "hit": false,
      "t": 45006.25,
      "d": 487.5,
      "v": 122
    },
    {
      "midi": 55,
      "hit": false,
      "t": 45187.5,
      "d": 75,
      "v": 24
    },
    {
      "midi": 71,
      "hit": false,
      "t": 45375,
      "d": 750,
      "v": 70
    },
    {
      "midi": 51,
      "hit": false,
      "t": 45381.25,
      "d": 506.25,
      "v": 122
    },
    {
      "midi": 78,
      "hit": false,
      "t": 45750,
      "d": 375,
      "v": 65
    },
    {
      "midi": 75,
      "hit": false,
      "t": 45756.25,
      "d": 443.75,
      "v": 122
    },
    {
      "midi": 57,
      "hit": false,
      "t": 45756.25,
      "d": 862.5,
      "v": 122
    },
    {
      "midi": 83,
      "hit": false,
      "t": 46125,
      "d": 325,
      "v": 75
    },
    {
      "midi": 76,
      "hit": false,
      "t": 46131.25,
      "d": 800,
      "v": 122
    },
    {
      "midi": 66,
      "hit": false,
      "t": 46131.25,
      "d": 850,
      "v": 122
    },
    {
      "midi": 81,
      "hit": false,
      "t": 46500,
      "d": 675,
      "v": 66
    },
    {
      "midi": 47,
      "hit": false,
      "t": 46506.25,
      "d": 475,
      "v": 122
    },
    {
      "midi": 51,
      "hit": false,
      "t": 46881.25,
      "d": 506.25,
      "v": 122
    },
    {
      "midi": 69,
      "hit": false,
      "t": 46881.25,
      "d": 831.25,
      "v": 122
    },
    {
      "midi": 78,
      "hit": false,
      "t": 46881.25,
      "d": 862.5,
      "v": 122
    },
    {
      "midi": 78,
      "hit": false,
      "t": 47250,
      "d": 568.75,
      "v": 69
    },
    {
      "midi": 59,
      "hit": false,
      "t": 47256.25,
      "d": 506.25,
      "v": 122
    },
    {
      "midi": 57,
      "hit": false,
      "t": 47631.25,
      "d": 487.5,
      "v": 122
    },
    {
      "midi": 79,
      "hit": false,
      "t": 47631.25,
      "d": 1175,
      "v": 122
    },
    {
      "midi": 71,
      "hit": false,
      "t": 47631.25,
      "d": 1225,
      "v": 122
    },
    {
      "midi": 59,
      "hit": false,
      "t": 48000,
      "d": 712.5,
      "v": 65
    },
    {
      "midi": 55,
      "hit": false,
      "t": 48000,
      "d": 762.5,
      "v": 48
    },
    {
      "midi": 64,
      "hit": false,
      "t": 48000,
      "d": 775,
      "v": 61
    },
    {
      "midi": 67,
      "hit": false,
      "t": 48000,
      "d": 775,
      "v": 56
    },
    {
      "midi": 52,
      "hit": false,
      "t": 48006.25,
      "d": 1568.75,
      "v": 122
    },
    {
      "midi": 59,
      "hit": false,
      "t": 48381.25,
      "d": 456.25,
      "v": 122
    },
    {
      "midi": 78,
      "hit": false,
      "t": 48756.25,
      "d": 525,
      "v": 122
    },
    {
      "midi": 64,
      "hit": false,
      "t": 48756.25,
      "d": 818.75,
      "v": 122
    },
    {
      "midi": 55,
      "hit": false,
      "t": 49125,
      "d": 375,
      "v": 46
    },
    {
      "midi": 59,
      "hit": false,
      "t": 49125,
      "d": 375,
      "v": 80
    },
    {
      "midi": 64,
      "hit": false,
      "t": 49125,
      "d": 375,
      "v": 62
    },
    {
      "midi": 67,
      "hit": false,
      "t": 49125,
      "d": 375,
      "v": 63
    },
    {
      "midi": 67,
      "hit": false,
      "t": 49131.25,
      "d": 818.75,
      "v": 122
    },
    {
      "midi": 76,
      "hit": false,
      "t": 49131.25,
      "d": 831.25,
      "v": 122
    },
    {
      "midi": 57,
      "hit": false,
      "t": 49500,
      "d": 1500,
      "v": 17
    },
    {
      "midi": 62,
      "hit": false,
      "t": 49500,
      "d": 1500,
      "v": 80
    },
    {
      "midi": 66,
      "hit": false,
      "t": 49500,
      "d": 1500,
      "v": 67
    },
    {
      "midi": 69,
      "hit": false,
      "t": 49500,
      "d": 1500,
      "v": 71
    },
    {
      "midi": 50,
      "hit": false,
      "t": 49506.25,
      "d": 1631.25,
      "v": 122
    },
    {
      "midi": 59,
      "hit": false,
      "t": 49687.5,
      "d": 75,
      "v": 24
    },
    {
      "midi": 78,
      "hit": false,
      "t": 49875,
      "d": 750,
      "v": 70
    },
    {
      "midi": 57,
      "hit": false,
      "t": 49881.25,
      "d": 475,
      "v": 122
    },
    {
      "midi": 74,
      "hit": false,
      "t": 49881.25,
      "d": 850,
      "v": 122
    },
    {
      "midi": 81,
      "hit": false,
      "t": 50250,
      "d": 375,
      "v": 65
    },
    {
      "midi": 62,
      "hit": false,
      "t": 50256.25,
      "d": 475,
      "v": 122
    },
    {
      "midi": 90,
      "hit": false,
      "t": 50625,
      "d": 325,
      "v": 75
    },
    {
      "midi": 55,
      "hit": false,
      "t": 50631.25,
      "d": 487.5,
      "v": 122
    },
    {
      "midi": 71,
      "hit": false,
      "t": 50631.25,
      "d": 525,
      "v": 122
    },
    {
      "midi": 55,
      "hit": false,
      "t": 51000,
      "d": 2400,
      "v": 80
    },
    {
      "midi": 52,
      "hit": false,
      "t": 51000,
      "d": 2443.75,
      "v": 17
    },
    {
      "midi": 57,
      "hit": false,
      "t": 51000,
      "d": 2443.75,
      "v": 67
    },
    {
      "midi": 61,
      "hit": false,
      "t": 51000,
      "d": 2481.25,
      "v": 71
    },
    {
      "midi": 69,
      "hit": false,
      "t": 51006.25,
      "d": 456.25,
      "v": 122
    },
    {
      "midi": 49,
      "hit": false,
      "t": 51006.25,
      "d": 2987.5,
      "v": 122
    },
    {
      "midi": 54,
      "hit": false,
      "t": 51187.5,
      "d": 75,
      "v": 24
    },
    {
      "midi": 69,
      "hit": false,
      "t": 51375,
      "d": 750,
      "v": 70
    },
    {
      "midi": 52,
      "hit": false,
      "t": 51381.25,
      "d": 475,
      "v": 122
    },
    {
      "midi": 67,
      "hit": false,
      "t": 51381.25,
      "d": 943.75,
      "v": 122
    },
    {
      "midi": 76,
      "hit": false,
      "t": 51750,
      "d": 375,
      "v": 65
    },
    {
      "midi": 55,
      "hit": false,
      "t": 51756.25,
      "d": 487.5,
      "v": 122
    },
    {
      "midi": 81,
      "hit": false,
      "t": 52125,
      "d": 325,
      "v": 75
    },
    {
      "midi": 64,
      "hit": false,
      "t": 52131.25,
      "d": 1387.5,
      "v": 122
    },
    {
      "midi": 59,
      "hit": false,
      "t": 52131.25,
      "d": 1862.5,
      "v": 122
    },
    {
      "midi": 79,
      "hit": false,
      "t": 52500,
      "d": 675,
      "v": 66
    },
    {
      "midi": 67,
      "hit": false,
      "t": 52506.25,
      "d": 506.25,
      "v": 122
    },
    {
      "midi": 69,
      "hit": false,
      "t": 52881.25,
      "d": 487.5,
      "v": 122
    },
    {
      "midi": 76,
      "hit": false,
      "t": 53250,
      "d": 568.75,
      "v": 69
    },
    {
      "midi": 71,
      "hit": false,
      "t": 53256.25,
      "d": 506.25,
      "v": 122
    },
    {
      "midi": 64,
      "hit": false,
      "t": 53631.25,
      "d": 831.25,
      "v": 122
    },
    {
      "midi": 55,
      "hit": false,
      "t": 54000,
      "d": 712.5,
      "v": 65
    },
    {
      "midi": 52,
      "hit": false,
      "t": 54000,
      "d": 762.5,
      "v": 48
    },
    {
      "midi": 57,
      "hit": false,
      "t": 54000,
      "d": 775,
      "v": 61
    },
    {
      "midi": 60,
      "hit": false,
      "t": 54000,
      "d": 775,
      "v": 56
    },
    {
      "midi": 45,
      "hit": false,
      "t": 54006.25,
      "d": 1812.5,
      "v": 122
    },
    {
      "midi": 52,
      "hit": false,
      "t": 54381.25,
      "d": 2125,
      "v": 122
    },
    {
      "midi": 67,
      "hit": false,
      "t": 54381.25,
      "d": 2381.25,
      "v": 122
    },
    {
      "midi": 55,
      "hit": false,
      "t": 54756.25,
      "d": 506.25,
      "v": 122
    },
    {
      "midi": 52,
      "hit": false,
      "t": 55125,
      "d": 1475,
      "v": 46
    },
    {
      "midi": 55,
      "hit": false,
      "t": 55125,
      "d": 1487.5,
      "v": 80
    },
    {
      "midi": 57,
      "hit": false,
      "t": 55125,
      "d": 1518.75,
      "v": 62
    },
    {
      "midi": 60,
      "hit": false,
      "t": 55125,
      "d": 1531.25,
      "v": 63
    },
    {
      "midi": 60,
      "hit": false,
      "t": 55131.25,
      "d": 1062.5,
      "v": 122
    },
    {
      "midi": 64,
      "hit": false,
      "t": 55131.25,
      "d": 1225,
      "v": 122
    },
    {
      "midi": 64,
      "hit": false,
      "t": 55875,
      "d": 575,
      "v": 60
    },
    {
      "midi": 45,
      "hit": false,
      "t": 55881.25,
      "d": 1043.75,
      "v": 122
    },
    {
      "midi": 69,
      "hit": false,
      "t": 56250,
      "d": 225,
      "v": 71
    },
    {
      "midi": 55,
      "hit": false,
      "t": 56256.25,
      "d": 862.5,
      "v": 122
    },
    {
      "midi": 60,
      "hit": false,
      "t": 56256.25,
      "d": 881.25,
      "v": 122
    },
    {
      "midi": 72,
      "hit": false,
      "t": 56625,
      "d": 168.75,
      "v": 70
    },
    {
      "midi": 52,
      "hit": false,
      "t": 56631.25,
      "d": 525,
      "v": 122
    },
    {
      "midi": 60,
      "hit": false,
      "t": 57000,
      "d": 712.5,
      "v": 65
    },
    {
      "midi": 55,
      "hit": false,
      "t": 57000,
      "d": 762.5,
      "v": 48
    },
    {
      "midi": 64,
      "hit": false,
      "t": 57000,
      "d": 775,
      "v": 61
    },
    {
      "midi": 67,
      "hit": false,
      "t": 57000,
      "d": 775,
      "v": 56
    },
    {
      "midi": 50,
      "hit": false,
      "t": 57006.25,
      "d": 2500,
      "v": 122
    },
    {
      "midi": 72,
      "hit": false,
      "t": 57381.25,
      "d": 487.5,
      "v": 122
    },
    {
      "midi": 57,
      "hit": false,
      "t": 57381.25,
      "d": 506.25,
      "v": 122
    },
    {
      "midi": 71,
      "hit": false,
      "t": 57756.25,
      "d": 475,
      "v": 122
    },
    {
      "midi": 60,
      "hit": false,
      "t": 57756.25,
      "d": 862.5,
      "v": 122
    },
    {
      "midi": 67,
      "hit": false,
      "t": 57756.25,
      "d": 881.25,
      "v": 122
    },
    {
      "midi": 55,
      "hit": false,
      "t": 58125,
      "d": 375,
      "v": 46
    },
    {
      "midi": 60,
      "hit": false,
      "t": 58125,
      "d": 375,
      "v": 80
    },
    {
      "midi": 64,
      "hit": false,
      "t": 58125,
      "d": 375,
      "v": 62
    },
    {
      "midi": 67,
      "hit": false,
      "t": 58125,
      "d": 375,
      "v": 63
    },
    {
      "midi": 74,
      "hit": false,
      "t": 58131.25,
      "d": 1256.25,
      "v": 122
    },
    {
      "midi": 62,
      "hit": false,
      "t": 58500,
      "d": 712.5,
      "v": 65
    },
    {
      "midi": 57,
      "hit": false,
      "t": 58500,
      "d": 762.5,
      "v": 48
    },
    {
      "midi": 66,
      "hit": false,
      "t": 58500,
      "d": 775,
      "v": 61
    },
    {
      "midi": 69,
      "hit": false,
      "t": 58500,
      "d": 775,
      "v": 56
    },
    {
      "midi": 62,
      "hit": false,
      "t": 58506.25,
      "d": 900,
      "v": 122
    },
    {
      "midi": 66,
      "hit": false,
      "t": 58506.25,
      "d": 1618.75,
      "v": 122
    },
    {
      "midi": 71,
      "hit": false,
      "t": 59256.25,
      "d": 368.75,
      "v": 122
    },
    {
      "midi": 57,
      "hit": false,
      "t": 59256.25,
      "d": 506.25,
      "v": 122
    },
    {
      "midi": 57,
      "hit": false,
      "t": 59625,
      "d": 375,
      "v": 46
    },
    {
      "midi": 62,
      "hit": false,
      "t": 59625,
      "d": 375,
      "v": 80
    },
    {
      "midi": 66,
      "hit": false,
      "t": 59625,
      "d": 375,
      "v": 62
    },
    {
      "midi": 69,
      "hit": false,
      "t": 59625,
      "d": 375,
      "v": 63
    },
    {
      "midi": 50,
      "hit": false,
      "t": 59631.25,
      "d": 506.25,
      "v": 122
    },
    {
      "midi": 69,
      "hit": false,
      "t": 59631.25,
      "d": 850,
      "v": 122
    },
    {
      "midi": 59,
      "hit": false,
      "t": 60000,
      "d": 1500,
      "v": 17
    },
    {
      "midi": 62,
      "hit": false,
      "t": 60000,
      "d": 1500,
      "v": 80
    },
    {
      "midi": 67,
      "hit": false,
      "t": 60000,
      "d": 1500,
      "v": 67
    },
    {
      "midi": 71,
      "hit": false,
      "t": 60000,
      "d": 1500,
      "v": 71
    },
    {
      "midi": 43,
      "hit": false,
      "t": 60006.25,
      "d": 993.75,
      "v": 122
    },
    {
      "midi": 60,
      "hit": false,
      "t": 60187.5,
      "d": 75,
      "v": 24
    },
    {
      "midi": 79,
      "hit": false,
      "t": 60375,
      "d": 750,
      "v": 70
    },
    {
      "midi": 50,
      "hit": false,
      "t": 60381.25,
      "d": 962.5,
      "v": 122
    },
    {
      "midi": 67,
      "hit": false,
      "t": 60381.25,
      "d": 1193.75,
      "v": 122
    },
    {
      "midi": 83,
      "hit": false,
      "t": 60750,
      "d": 375,
      "v": 65
    },
    {
      "midi": 59,
      "hit": false,
      "t": 60756.25,
      "d": 650,
      "v": 122
    },
    {
      "midi": 91,
      "hit": false,
      "t": 61125,
      "d": 325,
      "v": 75
    },
    {
      "midi": 43,
      "hit": false,
      "t": 61131.25,
      "d": 368.75,
      "v": 122
    },
    {
      "midi": 59,
      "hit": false,
      "t": 61500,
      "d": 312.5,
      "v": 17
    },
    {
      "midi": 62,
      "hit": false,
      "t": 61500,
      "d": 312.5,
      "v": 80
    },
    {
      "midi": 67,
      "hit": false,
      "t": 61500,
      "d": 312.5,
      "v": 67
    },
    {
      "midi": 71,
      "hit": false,
      "t": 61500,
      "d": 312.5,
      "v": 71
    },
    {
      "midi": 50,
      "hit": false,
      "t": 61506.25,
      "d": 475,
      "v": 122
    },
    {
      "midi": 59,
      "hit": false,
      "t": 61506.25,
      "d": 475,
      "v": 122
    },
    {
      "midi": 43,
      "hit": false,
      "t": 61506.25,
      "d": 993.75,
      "v": 122
    },
    {
      "midi": 60,
      "hit": false,
      "t": 61881.25,
      "d": 181.25,
      "v": 122
    },
    {
      "midi": 52,
      "hit": false,
      "t": 61881.25,
      "d": 456.25,
      "v": 122
    },
    {
      "midi": 43,
      "hit": false,
      "t": 61893.75,
      "d": 1093.75,
      "v": 59
    },
    {
      "midi": 60,
      "hit": false,
      "t": 62075,
      "d": 175,
      "v": 104
    },
    {
      "midi": 54,
      "hit": false,
      "t": 62256.25,
      "d": 456.25,
      "v": 122
    },
    {
      "midi": 62,
      "hit": false,
      "t": 62256.25,
      "d": 487.5,
      "v": 122
    },
    {
      "midi": 55,
      "hit": false,
      "t": 62406.25,
      "d": 593.75,
      "v": 77
    },
    {
      "midi": 64,
      "hit": false,
      "t": 62550,
      "d": 450,
      "v": 57
    },
    {
      "midi": 52,
      "hit": false,
      "t": 62631.25,
      "d": 737.5,
      "v": 122
    },
    {
      "midi": 60,
      "hit": false,
      "t": 62631.25,
      "d": 1275,
      "v": 122
    },
    {
      "midi": 67,
      "hit": false,
      "t": 62681.25,
      "d": 318.75,
      "v": 51
    },
    {
      "midi": 72,
      "hit": false,
      "t": 62787.5,
      "d": 212.5,
      "v": 52
    },
    {
      "midi": 79,
      "hit": false,
      "t": 62918.75,
      "d": 81.25,
      "v": 57
    },
    {
      "midi": 60,
      "hit": false,
      "t": 63000,
      "d": 712.5,
      "v": 65
    },
    {
      "midi": 55,
      "hit": false,
      "t": 63000,
      "d": 762.5,
      "v": 48
    },
    {
      "midi": 64,
      "hit": false,
      "t": 63000,
      "d": 775,
      "v": 61
    },
    {
      "midi": 67,
      "hit": false,
      "t": 63000,
      "d": 775,
      "v": 56
    },
    {
      "midi": 52,
      "hit": false,
      "t": 63381.25,
      "d": 1450,
      "v": 122
    },
    {
      "midi": 55,
      "hit": false,
      "t": 63756.25,
      "d": 525,
      "v": 122
    },
    {
      "midi": 67,
      "hit": false,
      "t": 64125,
      "d": 1325,
      "v": 63
    },
    {
      "midi": 55,
      "hit": false,
      "t": 64125,
      "d": 1475,
      "v": 46
    },
    {
      "midi": 60,
      "hit": false,
      "t": 64125,
      "d": 1487.5,
      "v": 80
    },
    {
      "midi": 64,
      "hit": false,
      "t": 64125,
      "d": 1518.75,
      "v": 62
    },
    {
      "midi": 67,
      "hit": false,
      "t": 64131.25,
      "d": 1206.25,
      "v": 122
    },
    {
      "midi": 52,
      "hit": false,
      "t": 64881.25,
      "d": 850,
      "v": 122
    },
    {
      "midi": 76,
      "hit": false,
      "t": 65250,
      "d": 225,
      "v": 71
    },
    {
      "midi": 60,
      "hit": false,
      "t": 65256.25,
      "d": 718.75,
      "v": 122
    },
    {
      "midi": 79,
      "hit": false,
      "t": 65625,
      "d": 168.75,
      "v": 70
    },
    {
      "midi": 59,
      "hit": false,
      "t": 66000,
      "d": 1500,
      "v": 23
    },
    {
      "midi": 62,
      "hit": false,
      "t": 66000,
      "d": 1500,
      "v": 86
    },
    {
      "midi": 67,
      "hit": false,
      "t": 66000,
      "d": 1500,
      "v": 73
    },
    {
      "midi": 71,
      "hit": false,
      "t": 66000,
      "d": 1500,
      "v": 77
    },
    {
      "midi": 43,
      "hit": false,
      "t": 66006.25,
      "d": 18.75,
      "v": 122
    },
    {
      "midi": 59,
      "hit": false,
      "t": 66006.25,
      "d": 1093.75,
      "v": 122
    },
    {
      "midi": 60,
      "hit": false,
      "t": 66187.5,
      "d": 75,
      "v": 30
    },
    {
      "midi": 79,
      "hit": false,
      "t": 66375,
      "d": 750,
      "v": 76
    },
    {
      "midi": 50,
      "hit": false,
      "t": 66381.25,
      "d": 525,
      "v": 122
    },
    {
      "midi": 83,
      "hit": false,
      "t": 66750,
      "d": 375,
      "v": 71
    },
    {
      "midi": 55,
      "hit": false,
      "t": 66756.25,
      "d": 862.5,
      "v": 122
    },
    {
      "midi": 91,
      "hit": false,
      "t": 67125,
      "d": 325,
      "v": 81
    },
    {
      "midi": 67,
      "hit": false,
      "t": 67131.25,
      "d": 506.25,
      "v": 122
    },
    {
      "midi": 62,
      "hit": false,
      "t": 67500,
      "d": 712.5,
      "v": 71
    },
    {
      "midi": 57,
      "hit": false,
      "t": 67500,
      "d": 762.5,
      "v": 54
    },
    {
      "midi": 66,
      "hit": false,
      "t": 67500,
      "d": 775,
      "v": 67
    },
    {
      "midi": 69,
      "hit": false,
      "t": 67500,
      "d": 775,
      "v": 62
    },
    {
      "midi": 66,
      "hit": false,
      "t": 67506.25,
      "d": 650,
      "v": 122
    },
    {
      "midi": 42,
      "hit": false,
      "t": 67506.25,
      "d": 1500,
      "v": 122
    },
    {
      "midi": 50,
      "hit": false,
      "t": 67881.25,
      "d": 475,
      "v": 122
    },
    {
      "midi": 67,
      "hit": false,
      "t": 68075,
      "d": 637.5,
      "v": 122
    },
    {
      "midi": 62,
      "hit": false,
      "t": 68256.25,
      "d": 850,
      "v": 122
    },
    {
      "midi": 57,
      "hit": false,
      "t": 68256.25,
      "d": 900,
      "v": 122
    },
    {
      "midi": 57,
      "hit": false,
      "t": 68625,
      "d": 375,
      "v": 52
    },
    {
      "midi": 62,
      "hit": false,
      "t": 68625,
      "d": 375,
      "v": 86
    },
    {
      "midi": 66,
      "hit": false,
      "t": 68625,
      "d": 375,
      "v": 68
    },
    {
      "midi": 69,
      "hit": false,
      "t": 68625,
      "d": 375,
      "v": 69
    },
    {
      "midi": 69,
      "hit": false,
      "t": 68631.25,
      "d": 487.5,
      "v": 122
    },
    {
      "midi": 59,
      "hit": false,
      "t": 69000,
      "d": 1418.75,
      "v": 72
    },
    {
      "midi": 55,
      "hit": false,
      "t": 69000,
      "d": 1493.75,
      "v": 51
    },
    {
      "midi": 64,
      "hit": false,
      "t": 69000,
      "d": 1500,
      "v": 59
    },
    {
      "midi": 67,
      "hit": false,
      "t": 69000,
      "d": 1556.25,
      "v": 58
    },
    {
      "midi": 71,
      "hit": false,
      "t": 69000,
      "d": 1725,
      "v": 71
    },
    {
      "midi": 79,
      "hit": false,
      "t": 69000,
      "d": 1781.25,
      "v": 65
    },
    {
      "midi": 71,
      "hit": false,
      "t": 69006.25,
      "d": 368.75,
      "v": 122
    },
    {
      "midi": 40,
      "hit": false,
      "t": 69006.25,
      "d": 3150,
      "v": 122
    },
    {
      "midi": 47,
      "hit": false,
      "t": 69381.25,
      "d": 506.25,
      "v": 122
    },
    {
      "midi": 71,
      "hit": false,
      "t": 69381.25,
      "d": 2006.25,
      "v": 122
    },
    {
      "midi": 52,
      "hit": false,
      "t": 69756.25,
      "d": 456.25,
      "v": 122
    },
    {
      "midi": 64,
      "hit": false,
      "t": 70131.25,
      "d": 1893.75,
      "v": 122
    },
    {
      "midi": 55,
      "hit": false,
      "t": 70131.25,
      "d": 2037.5,
      "v": 122
    },
    {
      "midi": 55,
      "hit": false,
      "t": 70875,
      "d": 1125,
      "v": 75
    },
    {
      "midi": 59,
      "hit": false,
      "t": 71062.5,
      "d": 937.5,
      "v": 55
    },
    {
      "midi": 64,
      "hit": false,
      "t": 71250,
      "d": 750,
      "v": 82
    },
    {
      "midi": 69,
      "hit": false,
      "t": 71256.25,
      "d": 487.5,
      "v": 122
    },
    {
      "midi": 67,
      "hit": false,
      "t": 71437.5,
      "d": 562.5,
      "v": 85
    },
    {
      "midi": 71,
      "hit": false,
      "t": 71631.25,
      "d": 368.75,
      "v": 122
    },
    {
      "midi": 71,
      "hit": false,
      "t": 71812.5,
      "d": 187.5,
      "v": 91
    },
    {
      "midi": 72,
      "hit": false,
      "t": 72006.25,
      "d": 368.75,
      "v": 122
    },
    {
      "midi": 45,
      "hit": false,
      "t": 72006.25,
      "d": 1600,
      "v": 122
    },
    {
      "midi": 45,
      "hit": false,
      "t": 72018.75,
      "d": 1481.25,
      "v": 65
    },
    {
      "midi": 52,
      "hit": false,
      "t": 72156.25,
      "d": 1343.75,
      "v": 83
    },
    {
      "midi": 60,
      "hit": false,
      "t": 72300,
      "d": 1200,
      "v": 63
    },
    {
      "midi": 52,
      "hit": false,
      "t": 72381.25,
      "d": 506.25,
      "v": 122
    },
    {
      "midi": 72,
      "hit": false,
      "t": 72381.25,
      "d": 668.75,
      "v": 122
    },
    {
      "midi": 64,
      "hit": false,
      "t": 72431.25,
      "d": 1068.75,
      "v": 57
    },
    {
      "midi": 69,
      "hit": false,
      "t": 72537.5,
      "d": 962.5,
      "v": 58
    },
    {
      "midi": 76,
      "hit": false,
      "t": 72668.75,
      "d": 831.25,
      "v": 63
    },
    {
      "midi": 60,
      "hit": false,
      "t": 72756.25,
      "d": 900,
      "v": 122
    },
    {
      "midi": 72,
      "hit": false,
      "t": 73131.25,
      "d": 487.5,
      "v": 122
    },
    {
      "midi": 71,
      "hit": false,
      "t": 73506.25,
      "d": 850,
      "v": 122
    },
    {
      "midi": 64,
      "hit": false,
      "t": 73506.25,
      "d": 881.25,
      "v": 122
    },
    {
      "midi": 43,
      "hit": false,
      "t": 73506.25,
      "d": 1487.5,
      "v": 122
    },
    {
      "midi": 43,
      "hit": false,
      "t": 73518.75,
      "d": 1481.25,
      "v": 65
    },
    {
      "midi": 55,
      "hit": false,
      "t": 73656.25,
      "d": 1343.75,
      "v": 83
    },
    {
      "midi": 64,
      "hit": false,
      "t": 73800,
      "d": 1200,
      "v": 63
    },
    {
      "midi": 52,
      "hit": false,
      "t": 73881.25,
      "d": 487.5,
      "v": 122
    },
    {
      "midi": 67,
      "hit": false,
      "t": 73931.25,
      "d": 1068.75,
      "v": 57
    },
    {
      "midi": 71,
      "hit": false,
      "t": 74037.5,
      "d": 962.5,
      "v": 58
    },
    {
      "midi": 79,
      "hit": false,
      "t": 74168.75,
      "d": 831.25,
      "v": 63
    },
    {
      "midi": 67,
      "hit": false,
      "t": 74256.25,
      "d": 487.5,
      "v": 122
    },
    {
      "midi": 59,
      "hit": false,
      "t": 74256.25,
      "d": 818.75,
      "v": 122
    },
    {
      "midi": 69,
      "hit": false,
      "t": 74631.25,
      "d": 368.75,
      "v": 122
    },
    {
      "midi": 69,
      "hit": false,
      "t": 75000,
      "d": 2243.75,
      "v": 67
    },
    {
      "midi": 57,
      "hit": false,
      "t": 75000,
      "d": 3000,
      "v": 64
    },
    {
      "midi": 66,
      "hit": false,
      "t": 75006.25,
      "d": 2993.75,
      "v": 63
    },
    {
      "midi": 42,
      "hit": false,
      "t": 75006.25,
      "d": 1812.5,
      "v": 122
    },
    {
      "midi": 69,
      "hit": false,
      "t": 75006.25,
      "d": 2987.5,
      "v": 122
    },
    {
      "midi": 62,
      "hit": false,
      "t": 75018.75,
      "d": 2981.25,
      "v": 77
    },
    {
      "midi": 57,
      "hit": false,
      "t": 75381.25,
      "d": 475,
      "v": 122
    },
    {
      "midi": 62,
      "hit": false,
      "t": 75756.25,
      "d": 506.25,
      "v": 122
    },
    {
      "midi": 57,
      "hit": false,
      "t": 76131.25,
      "d": 506.25,
      "v": 122
    },
    {
      "midi": 64,
      "hit": false,
      "t": 76506.25,
      "d": 506.25,
      "v": 122
    },
    {
      "midi": 57,
      "hit": false,
      "t": 76881.25,
      "d": 506.25,
      "v": 122
    },
    {
      "midi": 42,
      "hit": false,
      "t": 76881.25,
      "d": 1043.75,
      "v": 122
    },
    {
      "midi": 62,
      "hit": false,
      "t": 77256.25,
      "d": 487.5,
      "v": 122
    },
    {
      "midi": 78,
      "hit": false,
      "t": 77268.75,
      "d": 375,
      "v": 66
    },
    {
      "midi": 57,
      "hit": false,
      "t": 77631.25,
      "d": 368.75,
      "v": 122
    },
    {
      "midi": 69,
      "hit": false,
      "t": 77643.75,
      "d": 356.25,
      "v": 72
    },
    {
      "midi": 59,
      "hit": false,
      "t": 78000,
      "d": 1500,
      "v": 23
    },
    {
      "midi": 62,
      "hit": false,
      "t": 78000,
      "d": 1500,
      "v": 86
    },
    {
      "midi": 67,
      "hit": false,
      "t": 78000,
      "d": 1500,
      "v": 73
    },
    {
      "midi": 71,
      "hit": false,
      "t": 78000,
      "d": 1500,
      "v": 77
    },
    {
      "midi": 59,
      "hit": false,
      "t": 78006.25,
      "d": 1112.5,
      "v": 122
    },
    {
      "midi": 43,
      "hit": false,
      "t": 78006.25,
      "d": 1618.75,
      "v": 122
    },
    {
      "midi": 60,
      "hit": false,
      "t": 78187.5,
      "d": 75,
      "v": 30
    },
    {
      "midi": 79,
      "hit": false,
      "t": 78375,
      "d": 750,
      "v": 76
    },
    {
      "midi": 50,
      "hit": false,
      "t": 78381.25,
      "d": 606.25,
      "v": 122
    },
    {
      "midi": 83,
      "hit": false,
      "t": 78750,
      "d": 375,
      "v": 71
    },
    {
      "midi": 55,
      "hit": false,
      "t": 78756.25,
      "d": 850,
      "v": 122
    },
    {
      "midi": 91,
      "hit": false,
      "t": 79125,
      "d": 325,
      "v": 81
    },
    {
      "midi": 67,
      "hit": false,
      "t": 79131.25,
      "d": 506.25,
      "v": 122
    },
    {
      "midi": 57,
      "hit": false,
      "t": 79500,
      "d": 1500,
      "v": 23
    },
    {
      "midi": 62,
      "hit": false,
      "t": 79500,
      "d": 1500,
      "v": 86
    },
    {
      "midi": 66,
      "hit": false,
      "t": 79500,
      "d": 1500,
      "v": 73
    },
    {
      "midi": 69,
      "hit": false,
      "t": 79500,
      "d": 1500,
      "v": 77
    },
    {
      "midi": 66,
      "hit": false,
      "t": 79506.25,
      "d": 637.5,
      "v": 122
    },
    {
      "midi": 42,
      "hit": false,
      "t": 79506.25,
      "d": 1631.25,
      "v": 122
    },
    {
      "midi": 59,
      "hit": false,
      "t": 79687.5,
      "d": 75,
      "v": 30
    },
    {
      "midi": 78,
      "hit": false,
      "t": 79875,
      "d": 750,
      "v": 76
    },
    {
      "midi": 50,
      "hit": false,
      "t": 79881.25,
      "d": 456.25,
      "v": 122
    },
    {
      "midi": 74,
      "hit": false,
      "t": 80075,
      "d": 687.5,
      "v": 122
    },
    {
      "midi": 81,
      "hit": false,
      "t": 80250,
      "d": 375,
      "v": 71
    },
    {
      "midi": 62,
      "hit": false,
      "t": 80256.25,
      "d": 850,
      "v": 122
    },
    {
      "midi": 57,
      "hit": false,
      "t": 80256.25,
      "d": 900,
      "v": 122
    },
    {
      "midi": 90,
      "hit": false,
      "t": 80625,
      "d": 325,
      "v": 81
    },
    {
      "midi": 72,
      "hit": false,
      "t": 80631.25,
      "d": 456.25,
      "v": 122
    },
    {
      "midi": 67,
      "hit": false,
      "t": 81000,
      "d": 2243.75,
      "v": 67
    },
    {
      "midi": 55,
      "hit": false,
      "t": 81000,
      "d": 3000,
      "v": 64
    },
    {
      "midi": 64,
      "hit": false,
      "t": 81006.25,
      "d": 2993.75,
      "v": 63
    },
    {
      "midi": 71,
      "hit": false,
      "t": 81006.25,
      "d": 312.5,
      "v": 122
    },
    {
      "midi": 40,
      "hit": false,
      "t": 81006.25,
      "d": 3006.25,
      "v": 122
    },
    {
      "midi": 59,
      "hit": false,
      "t": 81018.75,
      "d": 2981.25,
      "v": 77
    },
    {
      "midi": 69,
      "hit": false,
      "t": 81200,
      "d": 262.5,
      "v": 122
    },
    {
      "midi": 67,
      "hit": false,
      "t": 81381.25,
      "d": 368.75,
      "v": 122
    },
    {
      "midi": 47,
      "hit": false,
      "t": 81381.25,
      "d": 475,
      "v": 122
    },
    {
      "midi": 52,
      "hit": false,
      "t": 81756.25,
      "d": 443.75,
      "v": 122
    },
    {
      "midi": 67,
      "hit": false,
      "t": 81756.25,
      "d": 1600,
      "v": 122
    },
    {
      "midi": 64,
      "hit": false,
      "t": 82131.25,
      "d": 2025,
      "v": 122
    },
    {
      "midi": 55,
      "hit": false,
      "t": 82131.25,
      "d": 2037.5,
      "v": 122
    },
    {
      "midi": 69,
      "hit": false,
      "t": 83256.25,
      "d": 456.25,
      "v": 122
    },
    {
      "midi": 76,
      "hit": false,
      "t": 83268.75,
      "d": 375,
      "v": 66
    },
    {
      "midi": 71,
      "hit": false,
      "t": 83631.25,
      "d": 475,
      "v": 122
    },
    {
      "midi": 67,
      "hit": false,
      "t": 83643.75,
      "d": 356.25,
      "v": 72
    },
    {
      "midi": 52,
      "hit": false,
      "t": 84000,
      "d": 1500,
      "v": 23
    },
    {
      "midi": 57,
      "hit": false,
      "t": 84000,
      "d": 1500,
      "v": 86
    },
    {
      "midi": 60,
      "hit": false,
      "t": 84000,
      "d": 1500,
      "v": 73
    },
    {
      "midi": 64,
      "hit": false,
      "t": 84000,
      "d": 1500,
      "v": 77
    },
    {
      "midi": 72,
      "hit": false,
      "t": 84006.25,
      "d": 368.75,
      "v": 122
    },
    {
      "midi": 45,
      "hit": false,
      "t": 84006.25,
      "d": 1600,
      "v": 122
    },
    {
      "midi": 54,
      "hit": false,
      "t": 84187.5,
      "d": 75,
      "v": 30
    },
    {
      "midi": 72,
      "hit": false,
      "t": 84375,
      "d": 750,
      "v": 76
    },
    {
      "midi": 52,
      "hit": false,
      "t": 84381.25,
      "d": 456.25,
      "v": 122
    },
    {
      "midi": 72,
      "hit": false,
      "t": 84381.25,
      "d": 650,
      "v": 122
    },
    {
      "midi": 76,
      "hit": false,
      "t": 84750,
      "d": 375,
      "v": 71
    },
    {
      "midi": 60,
      "hit": false,
      "t": 84756.25,
      "d": 831.25,
      "v": 122
    },
    {
      "midi": 84,
      "hit": false,
      "t": 85125,
      "d": 325,
      "v": 81
    },
    {
      "midi": 72,
      "hit": false,
      "t": 85131.25,
      "d": 506.25,
      "v": 122
    },
    {
      "midi": 71,
      "hit": false,
      "t": 85506.25,
      "d": 862.5,
      "v": 122
    },
    {
      "midi": 64,
      "hit": false,
      "t": 85506.25,
      "d": 881.25,
      "v": 122
    },
    {
      "midi": 43,
      "hit": false,
      "t": 85506.25,
      "d": 1631.25,
      "v": 122
    },
    {
      "midi": 43,
      "hit": false,
      "t": 85518.75,
      "d": 1481.25,
      "v": 65
    },
    {
      "midi": 55,
      "hit": false,
      "t": 85656.25,
      "d": 1343.75,
      "v": 83
    },
    {
      "midi": 64,
      "hit": false,
      "t": 85800,
      "d": 1200,
      "v": 63
    },
    {
      "midi": 52,
      "hit": false,
      "t": 85881.25,
      "d": 487.5,
      "v": 122
    },
    {
      "midi": 67,
      "hit": false,
      "t": 85931.25,
      "d": 1068.75,
      "v": 57
    },
    {
      "midi": 71,
      "hit": false,
      "t": 86037.5,
      "d": 962.5,
      "v": 58
    },
    {
      "midi": 79,
      "hit": false,
      "t": 86168.75,
      "d": 831.25,
      "v": 63
    },
    {
      "midi": 72,
      "hit": false,
      "t": 86256.25,
      "d": 456.25,
      "v": 122
    },
    {
      "midi": 59,
      "hit": false,
      "t": 86256.25,
      "d": 881.25,
      "v": 122
    },
    {
      "midi": 74,
      "hit": false,
      "t": 86631.25,
      "d": 487.5,
      "v": 122
    },
    {
      "midi": 62,
      "hit": false,
      "t": 87000,
      "d": 1418.75,
      "v": 72
    },
    {
      "midi": 57,
      "hit": false,
      "t": 87000,
      "d": 1493.75,
      "v": 51
    },
    {
      "midi": 66,
      "hit": false,
      "t": 87000,
      "d": 1500,
      "v": 59
    },
    {
      "midi": 69,
      "hit": false,
      "t": 87000,
      "d": 1556.25,
      "v": 58
    },
    {
      "midi": 74,
      "hit": false,
      "t": 87000,
      "d": 1725,
      "v": 71
    },
    {
      "midi": 81,
      "hit": false,
      "t": 87000,
      "d": 1781.25,
      "v": 65
    },
    {
      "midi": 42,
      "hit": false,
      "t": 87006.25,
      "d": 1812.5,
      "v": 122
    },
    {
      "midi": 69,
      "hit": false,
      "t": 87006.25,
      "d": 2987.5,
      "v": 122
    },
    {
      "midi": 57,
      "hit": false,
      "t": 87381.25,
      "d": 443.75,
      "v": 122
    },
    {
      "midi": 62,
      "hit": false,
      "t": 87756.25,
      "d": 475,
      "v": 122
    },
    {
      "midi": 57,
      "hit": false,
      "t": 88131.25,
      "d": 487.5,
      "v": 122
    },
    {
      "midi": 64,
      "hit": false,
      "t": 88506.25,
      "d": 506.25,
      "v": 122
    },
    {
      "midi": 57,
      "hit": false,
      "t": 88875,
      "d": 1125,
      "v": 75
    },
    {
      "midi": 57,
      "hit": false,
      "t": 88881.25,
      "d": 456.25,
      "v": 122
    },
    {
      "midi": 42,
      "hit": false,
      "t": 88881.25,
      "d": 1062.5,
      "v": 122
    },
    {
      "midi": 62,
      "hit": false,
      "t": 89062.5,
      "d": 937.5,
      "v": 55
    },
    {
      "midi": 66,
      "hit": false,
      "t": 89250,
      "d": 750,
      "v": 82
    },
    {
      "midi": 62,
      "hit": false,
      "t": 89256.25,
      "d": 737.5,
      "v": 122
    },
    {
      "midi": 69,
      "hit": false,
      "t": 89437.5,
      "d": 562.5,
      "v": 85
    },
    {
      "midi": 74,
      "hit": false,
      "t": 89812.5,
      "d": 187.5,
      "v": 91
    },
    {
      "midi": 60,
      "hit": false,
      "t": 90000,
      "d": 1418.75,
      "v": 66
    },
    {
      "midi": 55,
      "hit": false,
      "t": 90000,
      "d": 1493.75,
      "v": 45
    },
    {
      "midi": 64,
      "hit": false,
      "t": 90000,
      "d": 1500,
      "v": 53
    },
    {
      "midi": 67,
      "hit": false,
      "t": 90000,
      "d": 1556.25,
      "v": 52
    },
    {
      "midi": 72,
      "hit": false,
      "t": 90000,
      "d": 1725,
      "v": 65
    },
    {
      "midi": 79,
      "hit": false,
      "t": 90000,
      "d": 1781.25,
      "v": 59
    },
    {
      "midi": 48,
      "hit": false,
      "t": 90006.25,
      "d": 3068.75,
      "v": 122
    },
    {
      "midi": 52,
      "hit": false,
      "t": 90381.25,
      "d": 475,
      "v": 122
    },
    {
      "midi": 55,
      "hit": false,
      "t": 90756.25,
      "d": 475,
      "v": 122
    },
    {
      "midi": 64,
      "hit": false,
      "t": 91131.25,
      "d": 475,
      "v": 122
    },
    {
      "midi": 76,
      "hit": false,
      "t": 91506.25,
      "d": 368.75,
      "v": 122
    },
    {
      "midi": 67,
      "hit": false,
      "t": 91506.25,
      "d": 506.25,
      "v": 122
    },
    {
      "midi": 55,
      "hit": false,
      "t": 91875,
      "d": 1125,
      "v": 69
    },
    {
      "midi": 76,
      "hit": false,
      "t": 91881.25,
      "d": 368.75,
      "v": 122
    },
    {
      "midi": 55,
      "hit": false,
      "t": 91881.25,
      "d": 475,
      "v": 122
    },
    {
      "midi": 60,
      "hit": false,
      "t": 92062.5,
      "d": 937.5,
      "v": 49
    },
    {
      "midi": 64,
      "hit": false,
      "t": 92250,
      "d": 750,
      "v": 76
    },
    {
      "midi": 76,
      "hit": false,
      "t": 92256.25,
      "d": 368.75,
      "v": 122
    },
    {
      "midi": 60,
      "hit": false,
      "t": 92256.25,
      "d": 831.25,
      "v": 122
    },
    {
      "midi": 67,
      "hit": false,
      "t": 92437.5,
      "d": 562.5,
      "v": 79
    },
    {
      "midi": 75,
      "hit": false,
      "t": 92631.25,
      "d": 1075,
      "v": 122
    },
    {
      "midi": 66,
      "hit": false,
      "t": 92631.25,
      "d": 1206.25,
      "v": 122
    },
    {
      "midi": 72,
      "hit": false,
      "t": 92812.5,
      "d": 187.5,
      "v": 85
    },
    {
      "midi": 57,
      "hit": false,
      "t": 93000,
      "d": 1418.75,
      "v": 66
    },
    {
      "midi": 54,
      "hit": false,
      "t": 93000,
      "d": 1493.75,
      "v": 45
    },
    {
      "midi": 59,
      "hit": false,
      "t": 93000,
      "d": 1500,
      "v": 53
    },
    {
      "midi": 63,
      "hit": false,
      "t": 93000,
      "d": 1556.25,
      "v": 52
    },
    {
      "midi": 69,
      "hit": false,
      "t": 93000,
      "d": 1725,
      "v": 65
    },
    {
      "midi": 66,
      "hit": false,
      "t": 93000,
      "d": 1743.75,
      "v": 50
    },
    {
      "midi": 75,
      "hit": false,
      "t": 93000,
      "d": 1781.25,
      "v": 59
    },
    {
      "midi": 47,
      "hit": false,
      "t": 93006.25,
      "d": 487.5,
      "v": 122
    },
    {
      "midi": 51,
      "hit": false,
      "t": 93381.25,
      "d": 506.25,
      "v": 122
    },
    {
      "midi": 75,
      "hit": false,
      "t": 93756.25,
      "d": 443.75,
      "v": 122
    },
    {
      "midi": 57,
      "hit": false,
      "t": 93756.25,
      "d": 862.5,
      "v": 122
    },
    {
      "midi": 76,
      "hit": false,
      "t": 94131.25,
      "d": 800,
      "v": 122
    },
    {
      "midi": 66,
      "hit": false,
      "t": 94131.25,
      "d": 850,
      "v": 122
    },
    {
      "midi": 47,
      "hit": false,
      "t": 94506.25,
      "d": 475,
      "v": 122
    },
    {
      "midi": 54,
      "hit": false,
      "t": 94875,
      "d": 1125,
      "v": 69
    },
    {
      "midi": 51,
      "hit": false,
      "t": 94881.25,
      "d": 506.25,
      "v": 122
    },
    {
      "midi": 69,
      "hit": false,
      "t": 94881.25,
      "d": 831.25,
      "v": 122
    },
    {
      "midi": 78,
      "hit": false,
      "t": 94881.25,
      "d": 862.5,
      "v": 122
    },
    {
      "midi": 57,
      "hit": false,
      "t": 95062.5,
      "d": 937.5,
      "v": 49
    },
    {
      "midi": 59,
      "hit": false,
      "t": 95250,
      "d": 750,
      "v": 76
    },
    {
      "midi": 59,
      "hit": false,
      "t": 95256.25,
      "d": 506.25,
      "v": 122
    },
    {
      "midi": 63,
      "hit": false,
      "t": 95437.5,
      "d": 562.5,
      "v": 79
    },
    {
      "midi": 66,
      "hit": false,
      "t": 95625,
      "d": 375,
      "v": 69
    },
    {
      "midi": 57,
      "hit": false,
      "t": 95631.25,
      "d": 487.5,
      "v": 122
    },
    {
      "midi": 79,
      "hit": false,
      "t": 95631.25,
      "d": 1175,
      "v": 122
    },
    {
      "midi": 71,
      "hit": false,
      "t": 95631.25,
      "d": 1225,
      "v": 122
    },
    {
      "midi": 69,
      "hit": false,
      "t": 95812.5,
      "d": 187.5,
      "v": 85
    },
    {
      "midi": 59,
      "hit": false,
      "t": 96000,
      "d": 712.5,
      "v": 65
    },
    {
      "midi": 55,
      "hit": false,
      "t": 96000,
      "d": 762.5,
      "v": 48
    },
    {
      "midi": 64,
      "hit": false,
      "t": 96000,
      "d": 775,
      "v": 61
    },
    {
      "midi": 67,
      "hit": false,
      "t": 96000,
      "d": 775,
      "v": 56
    },
    {
      "midi": 52,
      "hit": false,
      "t": 96006.25,
      "d": 1568.75,
      "v": 122
    },
    {
      "midi": 59,
      "hit": false,
      "t": 96381.25,
      "d": 456.25,
      "v": 122
    },
    {
      "midi": 78,
      "hit": false,
      "t": 96756.25,
      "d": 525,
      "v": 122
    },
    {
      "midi": 64,
      "hit": false,
      "t": 96756.25,
      "d": 818.75,
      "v": 122
    },
    {
      "midi": 55,
      "hit": false,
      "t": 97125,
      "d": 375,
      "v": 46
    },
    {
      "midi": 59,
      "hit": false,
      "t": 97125,
      "d": 375,
      "v": 80
    },
    {
      "midi": 64,
      "hit": false,
      "t": 97125,
      "d": 375,
      "v": 62
    },
    {
      "midi": 67,
      "hit": false,
      "t": 97125,
      "d": 375,
      "v": 63
    },
    {
      "midi": 67,
      "hit": false,
      "t": 97131.25,
      "d": 818.75,
      "v": 122
    },
    {
      "midi": 76,
      "hit": false,
      "t": 97131.25,
      "d": 831.25,
      "v": 122
    },
    {
      "midi": 62,
      "hit": false,
      "t": 97500,
      "d": 712.5,
      "v": 65
    },
    {
      "midi": 57,
      "hit": false,
      "t": 97500,
      "d": 762.5,
      "v": 48
    },
    {
      "midi": 66,
      "hit": false,
      "t": 97500,
      "d": 775,
      "v": 61
    },
    {
      "midi": 69,
      "hit": false,
      "t": 97500,
      "d": 775,
      "v": 56
    },
    {
      "midi": 50,
      "hit": false,
      "t": 97506.25,
      "d": 1631.25,
      "v": 122
    },
    {
      "midi": 57,
      "hit": false,
      "t": 97881.25,
      "d": 475,
      "v": 122
    },
    {
      "midi": 74,
      "hit": false,
      "t": 97881.25,
      "d": 850,
      "v": 122
    },
    {
      "midi": 62,
      "hit": false,
      "t": 98256.25,
      "d": 475,
      "v": 122
    },
    {
      "midi": 57,
      "hit": false,
      "t": 98625,
      "d": 375,
      "v": 46
    },
    {
      "midi": 62,
      "hit": false,
      "t": 98625,
      "d": 375,
      "v": 80
    },
    {
      "midi": 66,
      "hit": false,
      "t": 98625,
      "d": 375,
      "v": 62
    },
    {
      "midi": 69,
      "hit": false,
      "t": 98625,
      "d": 375,
      "v": 63
    },
    {
      "midi": 55,
      "hit": false,
      "t": 98631.25,
      "d": 487.5,
      "v": 122
    },
    {
      "midi": 71,
      "hit": false,
      "t": 98631.25,
      "d": 525,
      "v": 122
    },
    {
      "midi": 55,
      "hit": false,
      "t": 99000,
      "d": 1418.75,
      "v": 66
    },
    {
      "midi": 52,
      "hit": false,
      "t": 99000,
      "d": 1493.75,
      "v": 45
    },
    {
      "midi": 57,
      "hit": false,
      "t": 99000,
      "d": 1500,
      "v": 53
    },
    {
      "midi": 61,
      "hit": false,
      "t": 99000,
      "d": 1556.25,
      "v": 52
    },
    {
      "midi": 67,
      "hit": false,
      "t": 99000,
      "d": 1725,
      "v": 65
    },
    {
      "midi": 64,
      "hit": false,
      "t": 99000,
      "d": 1743.75,
      "v": 50
    },
    {
      "midi": 73,
      "hit": false,
      "t": 99000,
      "d": 1781.25,
      "v": 59
    },
    {
      "midi": 69,
      "hit": false,
      "t": 99006.25,
      "d": 456.25,
      "v": 122
    },
    {
      "midi": 49,
      "hit": false,
      "t": 99006.25,
      "d": 2987.5,
      "v": 122
    },
    {
      "midi": 52,
      "hit": false,
      "t": 99381.25,
      "d": 475,
      "v": 122
    },
    {
      "midi": 67,
      "hit": false,
      "t": 99381.25,
      "d": 943.75,
      "v": 122
    },
    {
      "midi": 55,
      "hit": false,
      "t": 99756.25,
      "d": 487.5,
      "v": 122
    },
    {
      "midi": 64,
      "hit": false,
      "t": 100131.25,
      "d": 1387.5,
      "v": 122
    },
    {
      "midi": 59,
      "hit": false,
      "t": 100131.25,
      "d": 1862.5,
      "v": 122
    },
    {
      "midi": 67,
      "hit": false,
      "t": 100506.25,
      "d": 506.25,
      "v": 122
    },
    {
      "midi": 52,
      "hit": false,
      "t": 100875,
      "d": 1125,
      "v": 69
    },
    {
      "midi": 69,
      "hit": false,
      "t": 100881.25,
      "d": 487.5,
      "v": 122
    },
    {
      "midi": 55,
      "hit": false,
      "t": 101062.5,
      "d": 937.5,
      "v": 49
    },
    {
      "midi": 57,
      "hit": false,
      "t": 101250,
      "d": 750,
      "v": 76
    },
    {
      "midi": 71,
      "hit": false,
      "t": 101256.25,
      "d": 506.25,
      "v": 122
    },
    {
      "midi": 61,
      "hit": false,
      "t": 101437.5,
      "d": 562.5,
      "v": 79
    },
    {
      "midi": 64,
      "hit": false,
      "t": 101625,
      "d": 375,
      "v": 69
    },
    {
      "midi": 64,
      "hit": false,
      "t": 101631.25,
      "d": 831.25,
      "v": 122
    },
    {
      "midi": 67,
      "hit": false,
      "t": 101812.5,
      "d": 187.5,
      "v": 85
    },
    {
      "midi": 45,
      "hit": false,
      "t": 102006.25,
      "d": 1812.5,
      "v": 122
    },
    {
      "midi": 60,
      "hit": false,
      "t": 102012.5,
      "d": 2987.5,
      "v": 64
    },
    {
      "midi": 57,
      "hit": false,
      "t": 102025,
      "d": 2975,
      "v": 61
    },
    {
      "midi": 52,
      "hit": false,
      "t": 102031.25,
      "d": 2968.75,
      "v": 48
    },
    {
      "midi": 55,
      "hit": false,
      "t": 102043.75,
      "d": 2956.25,
      "v": 73
    },
    {
      "midi": 52,
      "hit": false,
      "t": 102381.25,
      "d": 2125,
      "v": 122
    },
    {
      "midi": 67,
      "hit": false,
      "t": 102381.25,
      "d": 2381.25,
      "v": 122
    },
    {
      "midi": 55,
      "hit": false,
      "t": 102756.25,
      "d": 506.25,
      "v": 122
    },
    {
      "midi": 60,
      "hit": false,
      "t": 103131.25,
      "d": 1062.5,
      "v": 122
    },
    {
      "midi": 64,
      "hit": false,
      "t": 103131.25,
      "d": 1225,
      "v": 122
    },
    {
      "midi": 64,
      "hit": false,
      "t": 103881.25,
      "d": 1118.75,
      "v": 55
    },
    {
      "midi": 45,
      "hit": false,
      "t": 103881.25,
      "d": 1043.75,
      "v": 122
    },
    {
      "midi": 55,
      "hit": false,
      "t": 104256.25,
      "d": 862.5,
      "v": 122
    },
    {
      "midi": 60,
      "hit": false,
      "t": 104256.25,
      "d": 881.25,
      "v": 122
    },
    {
      "midi": 69,
      "hit": false,
      "t": 104281.25,
      "d": 718.75,
      "v": 66
    },
    {
      "midi": 52,
      "hit": false,
      "t": 104631.25,
      "d": 525,
      "v": 122
    },
    {
      "midi": 76,
      "hit": false,
      "t": 104643.75,
      "d": 356.25,
      "v": 68
    },
    {
      "midi": 55,
      "hit": false,
      "t": 105000,
      "d": 1500,
      "v": 17
    },
    {
      "midi": 60,
      "hit": false,
      "t": 105000,
      "d": 1500,
      "v": 80
    },
    {
      "midi": 64,
      "hit": false,
      "t": 105000,
      "d": 1500,
      "v": 67
    },
    {
      "midi": 67,
      "hit": false,
      "t": 105000,
      "d": 1500,
      "v": 71
    },
    {
      "midi": 50,
      "hit": false,
      "t": 105006.25,
      "d": 2500,
      "v": 122
    },
    {
      "midi": 57,
      "hit": false,
      "t": 105187.5,
      "d": 75,
      "v": 24
    },
    {
      "midi": 76,
      "hit": false,
      "t": 105375,
      "d": 750,
      "v": 70
    },
    {
      "midi": 72,
      "hit": false,
      "t": 105381.25,
      "d": 487.5,
      "v": 122
    },
    {
      "midi": 57,
      "hit": false,
      "t": 105381.25,
      "d": 506.25,
      "v": 122
    },
    {
      "midi": 79,
      "hit": false,
      "t": 105750,
      "d": 375,
      "v": 65
    },
    {
      "midi": 71,
      "hit": false,
      "t": 105756.25,
      "d": 475,
      "v": 122
    },
    {
      "midi": 60,
      "hit": false,
      "t": 105756.25,
      "d": 862.5,
      "v": 122
    },
    {
      "midi": 67,
      "hit": false,
      "t": 105756.25,
      "d": 881.25,
      "v": 122
    },
    {
      "midi": 88,
      "hit": false,
      "t": 106125,
      "d": 325,
      "v": 75
    },
    {
      "midi": 74,
      "hit": false,
      "t": 106131.25,
      "d": 1256.25,
      "v": 122
    },
    {
      "midi": 62,
      "hit": false,
      "t": 106500,
      "d": 712.5,
      "v": 65
    },
    {
      "midi": 57,
      "hit": false,
      "t": 106500,
      "d": 762.5,
      "v": 48
    },
    {
      "midi": 66,
      "hit": false,
      "t": 106500,
      "d": 775,
      "v": 61
    },
    {
      "midi": 69,
      "hit": false,
      "t": 106500,
      "d": 775,
      "v": 56
    },
    {
      "midi": 62,
      "hit": false,
      "t": 106506.25,
      "d": 900,
      "v": 122
    },
    {
      "midi": 66,
      "hit": false,
      "t": 106506.25,
      "d": 1618.75,
      "v": 122
    },
    {
      "midi": 71,
      "hit": false,
      "t": 107256.25,
      "d": 368.75,
      "v": 122
    },
    {
      "midi": 57,
      "hit": false,
      "t": 107256.25,
      "d": 506.25,
      "v": 122
    },
    {
      "midi": 57,
      "hit": false,
      "t": 107625,
      "d": 375,
      "v": 46
    },
    {
      "midi": 62,
      "hit": false,
      "t": 107625,
      "d": 375,
      "v": 80
    },
    {
      "midi": 66,
      "hit": false,
      "t": 107625,
      "d": 375,
      "v": 62
    },
    {
      "midi": 69,
      "hit": false,
      "t": 107625,
      "d": 375,
      "v": 63
    },
    {
      "midi": 50,
      "hit": false,
      "t": 107631.25,
      "d": 487.5,
      "v": 122
    },
    {
      "midi": 69,
      "hit": false,
      "t": 107631.25,
      "d": 912.5,
      "v": 122
    },
    {
      "midi": 59,
      "hit": false,
      "t": 108000,
      "d": 1500,
      "v": 17
    },
    {
      "midi": 62,
      "hit": false,
      "t": 108000,
      "d": 1500,
      "v": 80
    },
    {
      "midi": 67,
      "hit": false,
      "t": 108000,
      "d": 1500,
      "v": 67
    },
    {
      "midi": 71,
      "hit": false,
      "t": 108000,
      "d": 1500,
      "v": 71
    },
    {
      "midi": 43,
      "hit": false,
      "t": 108006.25,
      "d": 981.25,
      "v": 122
    },
    {
      "midi": 60,
      "hit": false,
      "t": 108187.5,
      "d": 75,
      "v": 24
    },
    {
      "midi": 79,
      "hit": false,
      "t": 108375,
      "d": 750,
      "v": 70
    },
    {
      "midi": 50,
      "hit": false,
      "t": 108381.25,
      "d": 981.25,
      "v": 122
    },
    {
      "midi": 67,
      "hit": false,
      "t": 108381.25,
      "d": 1206.25,
      "v": 122
    },
    {
      "midi": 83,
      "hit": false,
      "t": 108750,
      "d": 375,
      "v": 65
    },
    {
      "midi": 59,
      "hit": false,
      "t": 108756.25,
      "d": 650,
      "v": 122
    },
    {
      "midi": 91,
      "hit": false,
      "t": 109125,
      "d": 325,
      "v": 75
    },
    {
      "midi": 43,
      "hit": false,
      "t": 109131.25,
      "d": 368.75,
      "v": 122
    },
    {
      "midi": 59,
      "hit": false,
      "t": 109500,
      "d": 312.5,
      "v": 48
    },
    {
      "midi": 62,
      "hit": false,
      "t": 109500,
      "d": 312.5,
      "v": 65
    },
    {
      "midi": 67,
      "hit": false,
      "t": 109500,
      "d": 312.5,
      "v": 61
    },
    {
      "midi": 71,
      "hit": false,
      "t": 109500,
      "d": 312.5,
      "v": 56
    },
    {
      "midi": 50,
      "hit": false,
      "t": 109506.25,
      "d": 475,
      "v": 122
    },
    {
      "midi": 59,
      "hit": false,
      "t": 109506.25,
      "d": 487.5,
      "v": 122
    },
    {
      "midi": 43,
      "hit": false,
      "t": 109506.25,
      "d": 1012.5,
      "v": 122
    },
    {
      "midi": 55,
      "hit": false,
      "t": 109875,
      "d": 1112.5,
      "v": 17
    },
    {
      "midi": 60,
      "hit": false,
      "t": 109875,
      "d": 1112.5,
      "v": 80
    },
    {
      "midi": 64,
      "hit": false,
      "t": 109875,
      "d": 1112.5,
      "v": 67
    },
    {
      "midi": 67,
      "hit": false,
      "t": 109875,
      "d": 1112.5,
      "v": 71
    },
    {
      "midi": 60,
      "hit": false,
      "t": 109881.25,
      "d": 181.25,
      "v": 122
    },
    {
      "midi": 52,
      "hit": false,
      "t": 109881.25,
      "d": 525,
      "v": 122
    },
    {
      "midi": 60,
      "hit": false,
      "t": 110075,
      "d": 175,
      "v": 103
    },
    {
      "midi": 62,
      "hit": false,
      "t": 110256.25,
      "d": 425,
      "v": 122
    },
    {
      "midi": 54,
      "hit": false,
      "t": 110256.25,
      "d": 443.75,
      "v": 122
    },
    {
      "midi": 57,
      "hit": false,
      "t": 110437.5,
      "d": 75,
      "v": 24
    },
    {
      "midi": 76,
      "hit": false,
      "t": 110625,
      "d": 375,
      "v": 70
    },
    {
      "midi": 60,
      "hit": false,
      "t": 110631.25,
      "d": 881.25,
      "v": 122
    },
    {
      "midi": 52,
      "hit": false,
      "t": 110631.25,
      "d": 1956.25,
      "v": 122
    },
    {
      "midi": 43,
      "hit": false,
      "t": 110631.25,
      "d": 2037.5,
      "v": 122
    },
    {
      "midi": 60,
      "hit": false,
      "t": 111000,
      "d": 712.5,
      "v": 65
    },
    {
      "midi": 55,
      "hit": false,
      "t": 111000,
      "d": 762.5,
      "v": 48
    },
    {
      "midi": 64,
      "hit": false,
      "t": 111000,
      "d": 775,
      "v": 61
    },
    {
      "midi": 67,
      "hit": false,
      "t": 111000,
      "d": 775,
      "v": 56
    },
    {
      "midi": 55,
      "hit": false,
      "t": 111381.25,
      "d": 525,
      "v": 122
    },
    {
      "midi": 67,
      "hit": false,
      "t": 111756.25,
      "d": 900,
      "v": 122
    },
    {
      "midi": 55,
      "hit": false,
      "t": 112125,
      "d": 375,
      "v": 46
    },
    {
      "midi": 60,
      "hit": false,
      "t": 112125,
      "d": 375,
      "v": 80
    },
    {
      "midi": 64,
      "hit": false,
      "t": 112125,
      "d": 375,
      "v": 62
    },
    {
      "midi": 67,
      "hit": false,
      "t": 112125,
      "d": 375,
      "v": 63
    },
    {
      "midi": 71,
      "hit": false,
      "t": 112506.25,
      "d": 368.75,
      "v": 122
    },
    {
      "midi": 63,
      "hit": false,
      "t": 112506.25,
      "d": 506.25,
      "v": 122
    },
    {
      "midi": 57,
      "hit": false,
      "t": 112506.25,
      "d": 1468.75,
      "v": 122
    },
    {
      "midi": 47,
      "hit": false,
      "t": 112506.25,
      "d": 1600,
      "v": 122
    },
    {
      "midi": 47,
      "hit": false,
      "t": 112518.75,
      "d": 1481.25,
      "v": 59
    },
    {
      "midi": 57,
      "hit": false,
      "t": 112656.25,
      "d": 1343.75,
      "v": 77
    },
    {
      "midi": 63,
      "hit": false,
      "t": 112800,
      "d": 1200,
      "v": 57
    },
    {
      "midi": 71,
      "hit": false,
      "t": 112881.25,
      "d": 487.5,
      "v": 122
    },
    {
      "midi": 66,
      "hit": false,
      "t": 112931.25,
      "d": 1068.75,
      "v": 51
    },
    {
      "midi": 71,
      "hit": false,
      "t": 113037.5,
      "d": 962.5,
      "v": 52
    },
    {
      "midi": 78,
      "hit": false,
      "t": 113168.75,
      "d": 831.25,
      "v": 57
    },
    {
      "midi": 69,
      "hit": false,
      "t": 113256.25,
      "d": 475,
      "v": 122
    },
    {
      "midi": 67,
      "hit": false,
      "t": 113631.25,
      "d": 650,
      "v": 122
    },
    {
      "midi": 59,
      "hit": false,
      "t": 113631.25,
      "d": 687.5,
      "v": 122
    },
    {
      "midi": 59,
      "hit": false,
      "t": 114000,
      "d": 712.5,
      "v": 71
    },
    {
      "midi": 55,
      "hit": false,
      "t": 114000,
      "d": 762.5,
      "v": 54
    },
    {
      "midi": 64,
      "hit": false,
      "t": 114000,
      "d": 775,
      "v": 67
    },
    {
      "midi": 67,
      "hit": false,
      "t": 114000,
      "d": 775,
      "v": 62
    },
    {
      "midi": 40,
      "hit": false,
      "t": 114006.25,
      "d": 1581.25,
      "v": 122
    },
    {
      "midi": 47,
      "hit": false,
      "t": 114381.25,
      "d": 506.25,
      "v": 122
    },
    {
      "midi": 67,
      "hit": false,
      "t": 114381.25,
      "d": 650,
      "v": 122
    },
    {
      "midi": 59,
      "hit": false,
      "t": 114381.25,
      "d": 831.25,
      "v": 122
    },
    {
      "midi": 55,
      "hit": false,
      "t": 114756.25,
      "d": 818.75,
      "v": 122
    },
    {
      "midi": 55,
      "hit": false,
      "t": 115125,
      "d": 375,
      "v": 52
    },
    {
      "midi": 59,
      "hit": false,
      "t": 115125,
      "d": 375,
      "v": 86
    },
    {
      "midi": 64,
      "hit": false,
      "t": 115125,
      "d": 375,
      "v": 68
    },
    {
      "midi": 67,
      "hit": false,
      "t": 115125,
      "d": 375,
      "v": 69
    },
    {
      "midi": 67,
      "hit": false,
      "t": 115131.25,
      "d": 650,
      "v": 122
    },
    {
      "midi": 72,
      "hit": false,
      "t": 115131.25,
      "d": 668.75,
      "v": 122
    },
    {
      "midi": 76,
      "hit": false,
      "t": 115131.25,
      "d": 668.75,
      "v": 122
    },
    {
      "midi": 48,
      "hit": false,
      "t": 115506.25,
      "d": 1650,
      "v": 122
    },
    {
      "midi": 48,
      "hit": false,
      "t": 115518.75,
      "d": 1481.25,
      "v": 65
    },
    {
      "midi": 55,
      "hit": false,
      "t": 115656.25,
      "d": 1343.75,
      "v": 83
    },
    {
      "midi": 64,
      "hit": false,
      "t": 115800,
      "d": 1200,
      "v": 63
    },
    {
      "midi": 55,
      "hit": false,
      "t": 115881.25,
      "d": 456.25,
      "v": 122
    },
    {
      "midi": 72,
      "hit": false,
      "t": 115881.25,
      "d": 818.75,
      "v": 122
    },
    {
      "midi": 76,
      "hit": false,
      "t": 115881.25,
      "d": 831.25,
      "v": 122
    },
    {
      "midi": 67,
      "hit": false,
      "t": 115881.25,
      "d": 850,
      "v": 122
    },
    {
      "midi": 67,
      "hit": false,
      "t": 115931.25,
      "d": 1068.75,
      "v": 57
    },
    {
      "midi": 72,
      "hit": false,
      "t": 116037.5,
      "d": 962.5,
      "v": 58
    },
    {
      "midi": 79,
      "hit": false,
      "t": 116168.75,
      "d": 831.25,
      "v": 63
    },
    {
      "midi": 60,
      "hit": false,
      "t": 116256.25,
      "d": 850,
      "v": 122
    },
    {
      "midi": 64,
      "hit": false,
      "t": 116256.25,
      "d": 862.5,
      "v": 122
    },
    {
      "midi": 74,
      "hit": false,
      "t": 116631.25,
      "d": 368.75,
      "v": 122
    },
    {
      "midi": 62,
      "hit": false,
      "t": 117000,
      "d": 712.5,
      "v": 71
    },
    {
      "midi": 59,
      "hit": false,
      "t": 117000,
      "d": 762.5,
      "v": 54
    },
    {
      "midi": 67,
      "hit": false,
      "t": 117000,
      "d": 775,
      "v": 67
    },
    {
      "midi": 71,
      "hit": false,
      "t": 117000,
      "d": 775,
      "v": 62
    },
    {
      "midi": 67,
      "hit": false,
      "t": 117006.25,
      "d": 487.5,
      "v": 122
    },
    {
      "midi": 74,
      "hit": false,
      "t": 117006.25,
      "d": 487.5,
      "v": 122
    },
    {
      "midi": 71,
      "hit": false,
      "t": 117006.25,
      "d": 506.25,
      "v": 122
    },
    {
      "midi": 43,
      "hit": false,
      "t": 117006.25,
      "d": 1650,
      "v": 122
    },
    {
      "midi": 72,
      "hit": false,
      "t": 117381.25,
      "d": 487.5,
      "v": 122
    },
    {
      "midi": 50,
      "hit": false,
      "t": 117381.25,
      "d": 525,
      "v": 122
    },
    {
      "midi": 71,
      "hit": false,
      "t": 117756.25,
      "d": 456.25,
      "v": 122
    },
    {
      "midi": 59,
      "hit": false,
      "t": 117756.25,
      "d": 862.5,
      "v": 122
    },
    {
      "midi": 59,
      "hit": false,
      "t": 118125,
      "d": 375,
      "v": 52
    },
    {
      "midi": 62,
      "hit": false,
      "t": 118125,
      "d": 375,
      "v": 86
    },
    {
      "midi": 67,
      "hit": false,
      "t": 118125,
      "d": 375,
      "v": 68
    },
    {
      "midi": 71,
      "hit": false,
      "t": 118125,
      "d": 375,
      "v": 69
    },
    {
      "midi": 62,
      "hit": false,
      "t": 118131.25,
      "d": 862.5,
      "v": 122
    },
    {
      "midi": 66,
      "hit": false,
      "t": 118131.25,
      "d": 1043.75,
      "v": 122
    },
    {
      "midi": 69,
      "hit": false,
      "t": 118131.25,
      "d": 1062.5,
      "v": 122
    },
    {
      "midi": 62,
      "hit": false,
      "t": 118500,
      "d": 712.5,
      "v": 71
    },
    {
      "midi": 57,
      "hit": false,
      "t": 118500,
      "d": 762.5,
      "v": 54
    },
    {
      "midi": 66,
      "hit": false,
      "t": 118500,
      "d": 775,
      "v": 67
    },
    {
      "midi": 69,
      "hit": false,
      "t": 118500,
      "d": 775,
      "v": 62
    },
    {
      "midi": 50,
      "hit": false,
      "t": 118506.25,
      "d": 487.5,
      "v": 122
    },
    {
      "midi": 57,
      "hit": false,
      "t": 118881.25,
      "d": 487.5,
      "v": 122
    },
    {
      "midi": 62,
      "hit": false,
      "t": 119075,
      "d": 175,
      "v": 122
    },
    {
      "midi": 64,
      "hit": false,
      "t": 119256.25,
      "d": 275,
      "v": 122
    },
    {
      "midi": 50,
      "hit": false,
      "t": 119256.25,
      "d": 443.75,
      "v": 122
    },
    {
      "midi": 66,
      "hit": false,
      "t": 119450,
      "d": 243.75,
      "v": 122
    },
    {
      "midi": 57,
      "hit": false,
      "t": 119625,
      "d": 375,
      "v": 52
    },
    {
      "midi": 62,
      "hit": false,
      "t": 119625,
      "d": 375,
      "v": 86
    },
    {
      "midi": 66,
      "hit": false,
      "t": 119625,
      "d": 375,
      "v": 68
    },
    {
      "midi": 69,
      "hit": false,
      "t": 119625,
      "d": 375,
      "v": 69
    },
    {
      "midi": 64,
      "hit": false,
      "t": 119631.25,
      "d": 262.5,
      "v": 122
    },
    {
      "midi": 38,
      "hit": false,
      "t": 119631.25,
      "d": 406.25,
      "v": 122
    },
    {
      "midi": 62,
      "hit": false,
      "t": 119825,
      "d": 275,
      "v": 122
    },
    {
      "midi": 59,
      "hit": false,
      "t": 120000,
      "d": 712.5,
      "v": 71
    },
    {
      "midi": 55,
      "hit": false,
      "t": 120000,
      "d": 762.5,
      "v": 54
    },
    {
      "midi": 64,
      "hit": false,
      "t": 120000,
      "d": 775,
      "v": 67
    },
    {
      "midi": 67,
      "hit": false,
      "t": 120000,
      "d": 775,
      "v": 62
    },
    {
      "midi": 64,
      "hit": false,
      "t": 120006.25,
      "d": 456.25,
      "v": 122
    },
    {
      "midi": 40,
      "hit": false,
      "t": 120006.25,
      "d": 1618.75,
      "v": 122
    },
    {
      "midi": 67,
      "hit": false,
      "t": 120381.25,
      "d": 368.75,
      "v": 122
    },
    {
      "midi": 47,
      "hit": false,
      "t": 120381.25,
      "d": 506.25,
      "v": 122
    },
    {
      "midi": 67,
      "hit": false,
      "t": 120756.25,
      "d": 368.75,
      "v": 122
    },
    {
      "midi": 55,
      "hit": false,
      "t": 120756.25,
      "d": 831.25,
      "v": 122
    },
    {
      "midi": 59,
      "hit": false,
      "t": 120756.25,
      "d": 850,
      "v": 122
    },
    {
      "midi": 55,
      "hit": false,
      "t": 121125,
      "d": 375,
      "v": 52
    },
    {
      "midi": 59,
      "hit": false,
      "t": 121125,
      "d": 375,
      "v": 86
    },
    {
      "midi": 64,
      "hit": false,
      "t": 121125,
      "d": 375,
      "v": 68
    },
    {
      "midi": 67,
      "hit": false,
      "t": 121125,
      "d": 375,
      "v": 69
    },
    {
      "midi": 76,
      "hit": false,
      "t": 121131.25,
      "d": 687.5,
      "v": 122
    },
    {
      "midi": 72,
      "hit": false,
      "t": 121131.25,
      "d": 781.25,
      "v": 122
    },
    {
      "midi": 67,
      "hit": false,
      "t": 121131.25,
      "d": 818.75,
      "v": 122
    },
    {
      "midi": 36,
      "hit": false,
      "t": 121506.25,
      "d": 1518.75,
      "v": 122
    },
    {
      "midi": 48,
      "hit": false,
      "t": 121518.75,
      "d": 1481.25,
      "v": 65
    },
    {
      "midi": 55,
      "hit": false,
      "t": 121656.25,
      "d": 1343.75,
      "v": 83
    },
    {
      "midi": 64,
      "hit": false,
      "t": 121800,
      "d": 1200,
      "v": 63
    },
    {
      "midi": 76,
      "hit": false,
      "t": 121881.25,
      "d": 368.75,
      "v": 122
    },
    {
      "midi": 43,
      "hit": false,
      "t": 121881.25,
      "d": 475,
      "v": 122
    },
    {
      "midi": 67,
      "hit": false,
      "t": 121931.25,
      "d": 1068.75,
      "v": 57
    },
    {
      "midi": 72,
      "hit": false,
      "t": 122037.5,
      "d": 962.5,
      "v": 58
    },
    {
      "midi": 79,
      "hit": false,
      "t": 122168.75,
      "d": 831.25,
      "v": 63
    },
    {
      "midi": 76,
      "hit": false,
      "t": 122256.25,
      "d": 506.25,
      "v": 122
    },
    {
      "midi": 52,
      "hit": false,
      "t": 122256.25,
      "d": 862.5,
      "v": 122
    },
    {
      "midi": 60,
      "hit": false,
      "t": 122256.25,
      "d": 862.5,
      "v": 122
    },
    {
      "midi": 74,
      "hit": false,
      "t": 122631.25,
      "d": 850,
      "v": 122
    },
    {
      "midi": 67,
      "hit": false,
      "t": 122631.25,
      "d": 1975,
      "v": 122
    },
    {
      "midi": 71,
      "hit": false,
      "t": 122631.25,
      "d": 1975,
      "v": 122
    },
    {
      "midi": 62,
      "hit": false,
      "t": 123000,
      "d": 712.5,
      "v": 71
    },
    {
      "midi": 59,
      "hit": false,
      "t": 123000,
      "d": 762.5,
      "v": 54
    },
    {
      "midi": 67,
      "hit": false,
      "t": 123000,
      "d": 775,
      "v": 67
    },
    {
      "midi": 71,
      "hit": false,
      "t": 123000,
      "d": 775,
      "v": 62
    },
    {
      "midi": 43,
      "hit": false,
      "t": 123006.25,
      "d": 1631.25,
      "v": 122
    },
    {
      "midi": 50,
      "hit": false,
      "t": 123381.25,
      "d": 487.5,
      "v": 122
    },
    {
      "midi": 79,
      "hit": false,
      "t": 123381.25,
      "d": 506.25,
      "v": 122
    },
    {
      "midi": 78,
      "hit": false,
      "t": 123756.25,
      "d": 475,
      "v": 122
    },
    {
      "midi": 59,
      "hit": false,
      "t": 123756.25,
      "d": 862.5,
      "v": 122
    },
    {
      "midi": 59,
      "hit": false,
      "t": 124125,
      "d": 375,
      "v": 52
    },
    {
      "midi": 62,
      "hit": false,
      "t": 124125,
      "d": 375,
      "v": 86
    },
    {
      "midi": 67,
      "hit": false,
      "t": 124125,
      "d": 375,
      "v": 68
    },
    {
      "midi": 71,
      "hit": false,
      "t": 124125,
      "d": 375,
      "v": 69
    },
    {
      "midi": 76,
      "hit": false,
      "t": 124131.25,
      "d": 487.5,
      "v": 122
    },
    {
      "midi": 66,
      "hit": false,
      "t": 124506.25,
      "d": 1487.5,
      "v": 122
    },
    {
      "midi": 69,
      "hit": false,
      "t": 124506.25,
      "d": 1487.5,
      "v": 122
    },
    {
      "midi": 74,
      "hit": false,
      "t": 124506.25,
      "d": 1487.5,
      "v": 122
    },
    {
      "midi": 42,
      "hit": false,
      "t": 124506.25,
      "d": 1518.75,
      "v": 122
    },
    {
      "midi": 54,
      "hit": false,
      "t": 124518.75,
      "d": 1481.25,
      "v": 65
    },
    {
      "midi": 57,
      "hit": false,
      "t": 124656.25,
      "d": 1343.75,
      "v": 83
    },
    {
      "midi": 66,
      "hit": false,
      "t": 124800,
      "d": 1200,
      "v": 63
    },
    {
      "midi": 50,
      "hit": false,
      "t": 124881.25,
      "d": 456.25,
      "v": 122
    },
    {
      "midi": 69,
      "hit": false,
      "t": 124931.25,
      "d": 1068.75,
      "v": 57
    },
    {
      "midi": 74,
      "hit": false,
      "t": 125037.5,
      "d": 962.5,
      "v": 58
    },
    {
      "midi": 81,
      "hit": false,
      "t": 125168.75,
      "d": 831.25,
      "v": 63
    },
    {
      "midi": 57,
      "hit": false,
      "t": 125256.25,
      "d": 456.25,
      "v": 122
    },
    {
      "midi": 50,
      "hit": false,
      "t": 125631.25,
      "d": 368.75,
      "v": 122
    },
    {
      "midi": 55,
      "hit": false,
      "t": 126000,
      "d": 1500,
      "v": 23
    },
    {
      "midi": 59,
      "hit": false,
      "t": 126000,
      "d": 1500,
      "v": 86
    },
    {
      "midi": 64,
      "hit": false,
      "t": 126000,
      "d": 1500,
      "v": 73
    },
    {
      "midi": 67,
      "hit": false,
      "t": 126000,
      "d": 1500,
      "v": 77
    },
    {
      "midi": 67,
      "hit": false,
      "t": 126006.25,
      "d": 368.75,
      "v": 122
    },
    {
      "midi": 40,
      "hit": false,
      "t": 126006.25,
      "d": 1581.25,
      "v": 122
    },
    {
      "midi": 57,
      "hit": false,
      "t": 126187.5,
      "d": 75,
      "v": 30
    },
    {
      "midi": 76,
      "hit": false,
      "t": 126375,
      "d": 750,
      "v": 76
    },
    {
      "midi": 67,
      "hit": false,
      "t": 126381.25,
      "d": 368.75,
      "v": 122
    },
    {
      "midi": 66,
      "hit": false,
      "t": 126381.25,
      "d": 443.75,
      "v": 122
    },
    {
      "midi": 47,
      "hit": false,
      "t": 126381.25,
      "d": 525,
      "v": 122
    },
    {
      "midi": 79,
      "hit": false,
      "t": 126750,
      "d": 375,
      "v": 71
    },
    {
      "midi": 67,
      "hit": false,
      "t": 126756.25,
      "d": 368.75,
      "v": 122
    },
    {
      "midi": 55,
      "hit": false,
      "t": 126756.25,
      "d": 475,
      "v": 122
    },
    {
      "midi": 64,
      "hit": false,
      "t": 126756.25,
      "d": 475,
      "v": 122
    },
    {
      "midi": 88,
      "hit": false,
      "t": 127125,
      "d": 325,
      "v": 81
    },
    {
      "midi": 67,
      "hit": false,
      "t": 127131.25,
      "d": 368.75,
      "v": 122
    },
    {
      "midi": 62,
      "hit": false,
      "t": 127131.25,
      "d": 456.25,
      "v": 122
    },
    {
      "midi": 47,
      "hit": false,
      "t": 127131.25,
      "d": 487.5,
      "v": 122
    },
    {
      "midi": 60,
      "hit": false,
      "t": 127500,
      "d": 712.5,
      "v": 71
    },
    {
      "midi": 55,
      "hit": false,
      "t": 127500,
      "d": 762.5,
      "v": 54
    },
    {
      "midi": 64,
      "hit": false,
      "t": 127500,
      "d": 775,
      "v": 67
    },
    {
      "midi": 67,
      "hit": false,
      "t": 127500,
      "d": 775,
      "v": 62
    },
    {
      "midi": 36,
      "hit": false,
      "t": 127506.25,
      "d": 368.75,
      "v": 122
    },
    {
      "midi": 76,
      "hit": false,
      "t": 127506.25,
      "d": 368.75,
      "v": 122
    },
    {
      "midi": 72,
      "hit": false,
      "t": 127506.25,
      "d": 475,
      "v": 122
    },
    {
      "midi": 67,
      "hit": false,
      "t": 127506.25,
      "d": 487.5,
      "v": 122
    },
    {
      "midi": 43,
      "hit": false,
      "t": 127881.25,
      "d": 475,
      "v": 122
    },
    {
      "midi": 76,
      "hit": false,
      "t": 127881.25,
      "d": 862.5,
      "v": 122
    },
    {
      "midi": 52,
      "hit": false,
      "t": 128256.25,
      "d": 831.25,
      "v": 122
    },
    {
      "midi": 55,
      "hit": false,
      "t": 128256.25,
      "d": 831.25,
      "v": 122
    },
    {
      "midi": 55,
      "hit": false,
      "t": 128625,
      "d": 375,
      "v": 52
    },
    {
      "midi": 60,
      "hit": false,
      "t": 128625,
      "d": 375,
      "v": 86
    },
    {
      "midi": 64,
      "hit": false,
      "t": 128625,
      "d": 375,
      "v": 68
    },
    {
      "midi": 67,
      "hit": false,
      "t": 128625,
      "d": 375,
      "v": 69
    },
    {
      "midi": 67,
      "hit": false,
      "t": 128631.25,
      "d": 831.25,
      "v": 122
    },
    {
      "midi": 74,
      "hit": false,
      "t": 128631.25,
      "d": 850,
      "v": 122
    },
    {
      "midi": 71,
      "hit": false,
      "t": 128631.25,
      "d": 862.5,
      "v": 122
    },
    {
      "midi": 62,
      "hit": false,
      "t": 129000,
      "d": 712.5,
      "v": 71
    },
    {
      "midi": 59,
      "hit": false,
      "t": 129000,
      "d": 762.5,
      "v": 54
    },
    {
      "midi": 67,
      "hit": false,
      "t": 129000,
      "d": 775,
      "v": 67
    },
    {
      "midi": 71,
      "hit": false,
      "t": 129000,
      "d": 775,
      "v": 62
    },
    {
      "midi": 43,
      "hit": false,
      "t": 129006.25,
      "d": 1581.25,
      "v": 122
    },
    {
      "midi": 72,
      "hit": false,
      "t": 129381.25,
      "d": 487.5,
      "v": 122
    },
    {
      "midi": 50,
      "hit": false,
      "t": 129381.25,
      "d": 506.25,
      "v": 122
    },
    {
      "midi": 71,
      "hit": false,
      "t": 129756.25,
      "d": 475,
      "v": 122
    },
    {
      "midi": 59,
      "hit": false,
      "t": 129756.25,
      "d": 850,
      "v": 122
    },
    {
      "midi": 59,
      "hit": false,
      "t": 130125,
      "d": 375,
      "v": 52
    },
    {
      "midi": 62,
      "hit": false,
      "t": 130125,
      "d": 375,
      "v": 86
    },
    {
      "midi": 67,
      "hit": false,
      "t": 130125,
      "d": 375,
      "v": 68
    },
    {
      "midi": 71,
      "hit": false,
      "t": 130125,
      "d": 375,
      "v": 69
    },
    {
      "midi": 66,
      "hit": false,
      "t": 130131.25,
      "d": 850,
      "v": 122
    },
    {
      "midi": 69,
      "hit": false,
      "t": 130131.25,
      "d": 850,
      "v": 122
    },
    {
      "midi": 38,
      "hit": false,
      "t": 130506.25,
      "d": 1568.75,
      "v": 122
    },
    {
      "midi": 50,
      "hit": false,
      "t": 130518.75,
      "d": 1481.25,
      "v": 65
    },
    {
      "midi": 57,
      "hit": false,
      "t": 130656.25,
      "d": 1343.75,
      "v": 83
    },
    {
      "midi": 66,
      "hit": false,
      "t": 130800,
      "d": 1200,
      "v": 63
    },
    {
      "midi": 71,
      "hit": false,
      "t": 130881.25,
      "d": 456.25,
      "v": 122
    },
    {
      "midi": 45,
      "hit": false,
      "t": 130881.25,
      "d": 537.5,
      "v": 122
    },
    {
      "midi": 69,
      "hit": false,
      "t": 130931.25,
      "d": 1068.75,
      "v": 57
    },
    {
      "midi": 74,
      "hit": false,
      "t": 131037.5,
      "d": 962.5,
      "v": 58
    },
    {
      "midi": 81,
      "hit": false,
      "t": 131168.75,
      "d": 831.25,
      "v": 63
    },
    {
      "midi": 69,
      "hit": false,
      "t": 131256.25,
      "d": 456.25,
      "v": 122
    },
    {
      "midi": 54,
      "hit": false,
      "t": 131256.25,
      "d": 862.5,
      "v": 122
    },
    {
      "midi": 71,
      "hit": false,
      "t": 131631.25,
      "d": 275,
      "v": 122
    },
    {
      "midi": 69,
      "hit": false,
      "t": 131825,
      "d": 293.75,
      "v": 122
    },
    {
      "midi": 67,
      "hit": false,
      "t": 132006.25,
      "d": 737.5,
      "v": 122
    },
    {
      "midi": 64,
      "hit": false,
      "t": 132006.25,
      "d": 831.25,
      "v": 122
    },
    {
      "midi": 60,
      "hit": false,
      "t": 132006.25,
      "d": 850,
      "v": 122
    },
    {
      "midi": 55,
      "hit": false,
      "t": 132006.25,
      "d": 2856.25,
      "v": 122
    },
    {
      "midi": 45,
      "hit": false,
      "t": 132006.25,
      "d": 2887.5,
      "v": 122
    },
    {
      "midi": 60,
      "hit": false,
      "t": 132012.5,
      "d": 2987.5,
      "v": 70
    },
    {
      "midi": 57,
      "hit": false,
      "t": 132025,
      "d": 2975,
      "v": 67
    },
    {
      "midi": 52,
      "hit": false,
      "t": 132031.25,
      "d": 2968.75,
      "v": 54
    },
    {
      "midi": 55,
      "hit": false,
      "t": 132043.75,
      "d": 2956.25,
      "v": 79
    },
    {
      "midi": 67,
      "hit": false,
      "t": 132756.25,
      "d": 293.75,
      "v": 122
    },
    {
      "midi": 69,
      "hit": false,
      "t": 132950,
      "d": 243.75,
      "v": 122
    },
    {
      "midi": 79,
      "hit": false,
      "t": 133131.25,
      "d": 831.25,
      "v": 122
    },
    {
      "midi": 64,
      "hit": false,
      "t": 133881.25,
      "d": 1118.75,
      "v": 61
    },
    {
      "midi": 76,
      "hit": false,
      "t": 133881.25,
      "d": 525,
      "v": 122
    },
    {
      "midi": 79,
      "hit": false,
      "t": 134256.25,
      "d": 475,
      "v": 122
    },
    {
      "midi": 69,
      "hit": false,
      "t": 134281.25,
      "d": 718.75,
      "v": 72
    },
    {
      "midi": 83,
      "hit": false,
      "t": 134631.25,
      "d": 1925,
      "v": 122
    },
    {
      "midi": 76,
      "hit": false,
      "t": 134643.75,
      "d": 356.25,
      "v": 74
    },
    {
      "midi": 58,
      "hit": false,
      "t": 135000,
      "d": 712.5,
      "v": 71
    },
    {
      "midi": 55,
      "hit": false,
      "t": 135000,
      "d": 762.5,
      "v": 54
    },
    {
      "midi": 60,
      "hit": false,
      "t": 135000,
      "d": 775,
      "v": 67
    },
    {
      "midi": 63,
      "hit": false,
      "t": 135000,
      "d": 775,
      "v": 62
    },
    {
      "midi": 72,
      "hit": false,
      "t": 135006.25,
      "d": 737.5,
      "v": 122
    },
    {
      "midi": 75,
      "hit": false,
      "t": 135006.25,
      "d": 737.5,
      "v": 122
    },
    {
      "midi": 79,
      "hit": false,
      "t": 135006.25,
      "d": 781.25,
      "v": 122
    },
    {
      "midi": 63,
      "hit": false,
      "t": 135006.25,
      "d": 1356.25,
      "v": 122
    },
    {
      "midi": 55,
      "hit": false,
      "t": 135006.25,
      "d": 1418.75,
      "v": 122
    },
    {
      "midi": 48,
      "hit": false,
      "t": 135006.25,
      "d": 1600,
      "v": 122
    },
    {
      "midi": 69,
      "hit": false,
      "t": 135756.25,
      "d": 737.5,
      "v": 122
    },
    {
      "midi": 72,
      "hit": false,
      "t": 135756.25,
      "d": 737.5,
      "v": 122
    },
    {
      "midi": 75,
      "hit": false,
      "t": 135756.25,
      "d": 737.5,
      "v": 122
    },
    {
      "midi": 55,
      "hit": false,
      "t": 136125,
      "d": 375,
      "v": 52
    },
    {
      "midi": 58,
      "hit": false,
      "t": 136125,
      "d": 375,
      "v": 86
    },
    {
      "midi": 60,
      "hit": false,
      "t": 136125,
      "d": 375,
      "v": 68
    },
    {
      "midi": 63,
      "hit": false,
      "t": 136125,
      "d": 375,
      "v": 69
    },
    {
      "midi": 57,
      "hit": false,
      "t": 136500,
      "d": 262.5,
      "v": 86
    },
    {
      "midi": 55,
      "hit": false,
      "t": 136500,
      "d": 1500,
      "v": 23
    },
    {
      "midi": 60,
      "hit": false,
      "t": 136500,
      "d": 1500,
      "v": 73
    },
    {
      "midi": 63,
      "hit": false,
      "t": 136500,
      "d": 1500,
      "v": 77
    },
    {
      "midi": 55,
      "hit": false,
      "t": 136506.25,
      "d": 737.5,
      "v": 122
    },
    {
      "midi": 57,
      "hit": false,
      "t": 136506.25,
      "d": 737.5,
      "v": 122
    },
    {
      "midi": 60,
      "hit": false,
      "t": 136506.25,
      "d": 737.5,
      "v": 122
    },
    {
      "midi": 72,
      "hit": false,
      "t": 136506.25,
      "d": 737.5,
      "v": 122
    },
    {
      "midi": 75,
      "hit": false,
      "t": 136506.25,
      "d": 737.5,
      "v": 122
    },
    {
      "midi": 63,
      "hit": false,
      "t": 136506.25,
      "d": 831.25,
      "v": 122
    },
    {
      "midi": 81,
      "hit": false,
      "t": 136506.25,
      "d": 1518.75,
      "v": 122
    },
    {
      "midi": 72,
      "hit": false,
      "t": 136875,
      "d": 750,
      "v": 76
    },
    {
      "midi": 79,
      "hit": false,
      "t": 137250,
      "d": 375,
      "v": 71
    },
    {
      "midi": 51,
      "hit": false,
      "t": 137256.25,
      "d": 737.5,
      "v": 122
    },
    {
      "midi": 55,
      "hit": false,
      "t": 137256.25,
      "d": 737.5,
      "v": 122
    },
    {
      "midi": 57,
      "hit": false,
      "t": 137256.25,
      "d": 737.5,
      "v": 122
    },
    {
      "midi": 60,
      "hit": false,
      "t": 137256.25,
      "d": 737.5,
      "v": 122
    },
    {
      "midi": 67,
      "hit": false,
      "t": 137256.25,
      "d": 737.5,
      "v": 122
    },
    {
      "midi": 72,
      "hit": false,
      "t": 137256.25,
      "d": 737.5,
      "v": 122
    },
    {
      "midi": 75,
      "hit": false,
      "t": 137256.25,
      "d": 737.5,
      "v": 122
    },
    {
      "midi": 84,
      "hit": false,
      "t": 137625,
      "d": 325,
      "v": 81
    },
    {
      "midi": 62,
      "hit": false,
      "t": 138000,
      "d": 712.5,
      "v": 71
    },
    {
      "midi": 59,
      "hit": false,
      "t": 138000,
      "d": 762.5,
      "v": 54
    },
    {
      "midi": 67,
      "hit": false,
      "t": 138000,
      "d": 775,
      "v": 67
    },
    {
      "midi": 71,
      "hit": false,
      "t": 138000,
      "d": 775,
      "v": 62
    },
    {
      "midi": 67,
      "hit": false,
      "t": 138006.25,
      "d": 1012.5,
      "v": 122
    },
    {
      "midi": 71,
      "hit": false,
      "t": 138006.25,
      "d": 1062.5,
      "v": 122
    },
    {
      "midi": 74,
      "hit": false,
      "t": 138006.25,
      "d": 1075,
      "v": 122
    },
    {
      "midi": 79,
      "hit": false,
      "t": 138006.25,
      "d": 1075,
      "v": 122
    },
    {
      "midi": 43,
      "hit": false,
      "t": 138006.25,
      "d": 1631.25,
      "v": 122
    },
    {
      "midi": 50,
      "hit": false,
      "t": 138381.25,
      "d": 506.25,
      "v": 122
    },
    {
      "midi": 59,
      "hit": false,
      "t": 138756.25,
      "d": 881.25,
      "v": 122
    },
    {
      "midi": 59,
      "hit": false,
      "t": 139125,
      "d": 375,
      "v": 52
    },
    {
      "midi": 62,
      "hit": false,
      "t": 139125,
      "d": 375,
      "v": 86
    },
    {
      "midi": 67,
      "hit": false,
      "t": 139125,
      "d": 375,
      "v": 68
    },
    {
      "midi": 71,
      "hit": false,
      "t": 139125,
      "d": 375,
      "v": 69
    },
    {
      "midi": 67,
      "hit": false,
      "t": 139131.25,
      "d": 93.75,
      "v": 122
    },
    {
      "midi": 69,
      "hit": false,
      "t": 139225,
      "d": 93.75,
      "v": 122
    },
    {
      "midi": 67,
      "hit": false,
      "t": 139318.75,
      "d": 312.5,
      "v": 122
    },
    {
      "midi": 66,
      "hit": false,
      "t": 139506.25,
      "d": 687.5,
      "v": 122
    },
    {
      "midi": 42,
      "hit": false,
      "t": 139506.25,
      "d": 1550,
      "v": 122
    },
    {
      "midi": 54,
      "hit": false,
      "t": 139518.75,
      "d": 1481.25,
      "v": 65
    },
    {
      "midi": 57,
      "hit": false,
      "t": 139656.25,
      "d": 1343.75,
      "v": 83
    },
    {
      "midi": 66,
      "hit": false,
      "t": 139800,
      "d": 1200,
      "v": 63
    },
    {
      "midi": 50,
      "hit": false,
      "t": 139881.25,
      "d": 487.5,
      "v": 122
    },
    {
      "midi": 69,
      "hit": false,
      "t": 139931.25,
      "d": 1068.75,
      "v": 57
    },
    {
      "midi": 74,
      "hit": false,
      "t": 140037.5,
      "d": 962.5,
      "v": 58
    },
    {
      "midi": 67,
      "hit": false,
      "t": 140075,
      "d": 700,
      "v": 122
    },
    {
      "midi": 81,
      "hit": false,
      "t": 140168.75,
      "d": 831.25,
      "v": 63
    },
    {
      "midi": 57,
      "hit": false,
      "t": 140256.25,
      "d": 900,
      "v": 122
    },
    {
      "midi": 69,
      "hit": false,
      "t": 140631.25,
      "d": 506.25,
      "v": 122
    },
    {
      "midi": 71,
      "hit": false,
      "t": 141006.25,
      "d": 368.75,
      "v": 122
    },
    {
      "midi": 40,
      "hit": false,
      "t": 141006.25,
      "d": 3037.5,
      "v": 122
    },
    {
      "midi": 67,
      "hit": false,
      "t": 141012.5,
      "d": 2987.5,
      "v": 70
    },
    {
      "midi": 64,
      "hit": false,
      "t": 141025,
      "d": 2975,
      "v": 67
    },
    {
      "midi": 55,
      "hit": false,
      "t": 141031.25,
      "d": 2968.75,
      "v": 54
    },
    {
      "midi": 59,
      "hit": false,
      "t": 141043.75,
      "d": 2956.25,
      "v": 79
    },
    {
      "midi": 47,
      "hit": false,
      "t": 141381.25,
      "d": 537.5,
      "v": 122
    },
    {
      "midi": 71,
      "hit": false,
      "t": 141381.25,
      "d": 1781.25,
      "v": 122
    },
    {
      "midi": 52,
      "hit": false,
      "t": 141756.25,
      "d": 487.5,
      "v": 122
    },
    {
      "midi": 64,
      "hit": false,
      "t": 142131.25,
      "d": 1875,
      "v": 122
    },
    {
      "midi": 55,
      "hit": false,
      "t": 142131.25,
      "d": 1893.75,
      "v": 122
    },
    {
      "midi": 71,
      "hit": false,
      "t": 143256.25,
      "d": 243.75,
      "v": 122
    },
    {
      "midi": 76,
      "hit": false,
      "t": 143281.25,
      "d": 718.75,
      "v": 72
    },
    {
      "midi": 72,
      "hit": false,
      "t": 143450,
      "d": 243.75,
      "v": 122
    },
    {
      "midi": 69,
      "hit": false,
      "t": 143631.25,
      "d": 262.5,
      "v": 122
    },
    {
      "midi": 79,
      "hit": false,
      "t": 143643.75,
      "d": 356.25,
      "v": 74
    },
    {
      "midi": 71,
      "hit": false,
      "t": 143825,
      "d": 293.75,
      "v": 122
    },
    {
      "midi": 52,
      "hit": false,
      "t": 144000,
      "d": 1500,
      "v": 23
    },
    {
      "midi": 57,
      "hit": false,
      "t": 144000,
      "d": 1500,
      "v": 86
    },
    {
      "midi": 60,
      "hit": false,
      "t": 144000,
      "d": 1500,
      "v": 73
    },
    {
      "midi": 64,
      "hit": false,
      "t": 144000,
      "d": 1500,
      "v": 77
    },
    {
      "midi": 72,
      "hit": false,
      "t": 144006.25,
      "d": 1031.25,
      "v": 122
    },
    {
      "midi": 64,
      "hit": false,
      "t": 144006.25,
      "d": 1075,
      "v": 122
    },
    {
      "midi": 45,
      "hit": false,
      "t": 144006.25,
      "d": 1581.25,
      "v": 122
    },
    {
      "midi": 54,
      "hit": false,
      "t": 144187.5,
      "d": 75,
      "v": 30
    },
    {
      "midi": 72,
      "hit": false,
      "t": 144375,
      "d": 750,
      "v": 76
    },
    {
      "midi": 52,
      "hit": false,
      "t": 144381.25,
      "d": 487.5,
      "v": 122
    },
    {
      "midi": 76,
      "hit": false,
      "t": 144750,
      "d": 375,
      "v": 71
    },
    {
      "midi": 57,
      "hit": false,
      "t": 144756.25,
      "d": 912.5,
      "v": 122
    },
    {
      "midi": 84,
      "hit": false,
      "t": 145125,
      "d": 325,
      "v": 81
    },
    {
      "midi": 74,
      "hit": false,
      "t": 145231.25,
      "d": 87.5,
      "v": 122
    },
    {
      "midi": 72,
      "hit": false,
      "t": 145318.75,
      "d": 181.25,
      "v": 122
    },
    {
      "midi": 55,
      "hit": false,
      "t": 145500,
      "d": 1500,
      "v": 23
    },
    {
      "midi": 59,
      "hit": false,
      "t": 145500,
      "d": 1500,
      "v": 86
    },
    {
      "midi": 64,
      "hit": false,
      "t": 145500,
      "d": 1500,
      "v": 73
    },
    {
      "midi": 67,
      "hit": false,
      "t": 145500,
      "d": 1500,
      "v": 77
    },
    {
      "midi": 71,
      "hit": false,
      "t": 145506.25,
      "d": 831.25,
      "v": 122
    },
    {
      "midi": 64,
      "hit": false,
      "t": 145506.25,
      "d": 850,
      "v": 122
    },
    {
      "midi": 43,
      "hit": false,
      "t": 145506.25,
      "d": 1518.75,
      "v": 122
    },
    {
      "midi": 57,
      "hit": false,
      "t": 145687.5,
      "d": 75,
      "v": 30
    },
    {
      "midi": 76,
      "hit": false,
      "t": 145875,
      "d": 750,
      "v": 76
    },
    {
      "midi": 52,
      "hit": false,
      "t": 145881.25,
      "d": 506.25,
      "v": 122
    },
    {
      "midi": 79,
      "hit": false,
      "t": 146250,
      "d": 375,
      "v": 71
    },
    {
      "midi": 67,
      "hit": false,
      "t": 146256.25,
      "d": 850,
      "v": 122
    },
    {
      "midi": 59,
      "hit": false,
      "t": 146256.25,
      "d": 862.5,
      "v": 122
    },
    {
      "midi": 88,
      "hit": false,
      "t": 146625,
      "d": 325,
      "v": 81
    },
    {
      "midi": 62,
      "hit": false,
      "t": 147000,
      "d": 1418.75,
      "v": 72
    },
    {
      "midi": 57,
      "hit": false,
      "t": 147000,
      "d": 1493.75,
      "v": 51
    },
    {
      "midi": 66,
      "hit": false,
      "t": 147000,
      "d": 1500,
      "v": 59
    },
    {
      "midi": 69,
      "hit": false,
      "t": 147000,
      "d": 1556.25,
      "v": 58
    },
    {
      "midi": 74,
      "hit": false,
      "t": 147000,
      "d": 1725,
      "v": 71
    },
    {
      "midi": 81,
      "hit": false,
      "t": 147000,
      "d": 1781.25,
      "v": 65
    },
    {
      "midi": 69,
      "hit": false,
      "t": 147006.25,
      "d": 1537.5,
      "v": 122
    },
    {
      "midi": 42,
      "hit": false,
      "t": 147006.25,
      "d": 3006.25,
      "v": 122
    },
    {
      "midi": 50,
      "hit": false,
      "t": 147381.25,
      "d": 487.5,
      "v": 122
    },
    {
      "midi": 57,
      "hit": false,
      "t": 147756.25,
      "d": 487.5,
      "v": 122
    },
    {
      "midi": 50,
      "hit": false,
      "t": 148131.25,
      "d": 537.5,
      "v": 122
    },
    {
      "midi": 57,
      "hit": false,
      "t": 148506.25,
      "d": 1537.5,
      "v": 122
    },
    {
      "midi": 62,
      "hit": false,
      "t": 148700,
      "d": 262.5,
      "v": 122
    },
    {
      "midi": 57,
      "hit": false,
      "t": 148875,
      "d": 1125,
      "v": 75
    },
    {
      "midi": 64,
      "hit": false,
      "t": 148881.25,
      "d": 275,
      "v": 122
    },
    {
      "midi": 62,
      "hit": false,
      "t": 149062.5,
      "d": 937.5,
      "v": 55
    },
    {
      "midi": 66,
      "hit": false,
      "t": 149075,
      "d": 275,
      "v": 122
    },
    {
      "midi": 66,
      "hit": false,
      "t": 149250,
      "d": 750,
      "v": 82
    },
    {
      "midi": 67,
      "hit": false,
      "t": 149256.25,
      "d": 243.75,
      "v": 122
    },
    {
      "midi": 69,
      "hit": false,
      "t": 149437.5,
      "d": 562.5,
      "v": 85
    },
    {
      "midi": 69,
      "hit": false,
      "t": 149450,
      "d": 225,
      "v": 122
    },
    {
      "midi": 71,
      "hit": false,
      "t": 149631.25,
      "d": 262.5,
      "v": 122
    },
    {
      "midi": 74,
      "hit": false,
      "t": 149812.5,
      "d": 187.5,
      "v": 91
    },
    {
      "midi": 74,
      "hit": false,
      "t": 149825,
      "d": 175,
      "v": 122
    },
    {
      "midi": 62,
      "hit": false,
      "t": 150000,
      "d": 712.5,
      "v": 71
    },
    {
      "midi": 59,
      "hit": false,
      "t": 150000,
      "d": 762.5,
      "v": 54
    },
    {
      "midi": 67,
      "hit": false,
      "t": 150000,
      "d": 775,
      "v": 67
    },
    {
      "midi": 71,
      "hit": false,
      "t": 150000,
      "d": 775,
      "v": 62
    },
    {
      "midi": 71,
      "hit": false,
      "t": 150006.25,
      "d": 687.5,
      "v": 122
    },
    {
      "midi": 43,
      "hit": false,
      "t": 150006.25,
      "d": 1600,
      "v": 122
    },
    {
      "midi": 50,
      "hit": false,
      "t": 150381.25,
      "d": 456.25,
      "v": 122
    },
    {
      "midi": 79,
      "hit": false,
      "t": 150575,
      "d": 875,
      "v": 122
    },
    {
      "midi": 59,
      "hit": false,
      "t": 150756.25,
      "d": 525,
      "v": 122
    },
    {
      "midi": 59,
      "hit": false,
      "t": 151125,
      "d": 375,
      "v": 52
    },
    {
      "midi": 62,
      "hit": false,
      "t": 151125,
      "d": 375,
      "v": 86
    },
    {
      "midi": 67,
      "hit": false,
      "t": 151125,
      "d": 375,
      "v": 68
    },
    {
      "midi": 71,
      "hit": false,
      "t": 151125,
      "d": 375,
      "v": 69
    },
    {
      "midi": 50,
      "hit": false,
      "t": 151131.25,
      "d": 475,
      "v": 122
    },
    {
      "midi": 71,
      "hit": false,
      "t": 151325,
      "d": 275,
      "v": 122
    },
    {
      "midi": 57,
      "hit": false,
      "t": 151500,
      "d": 1500,
      "v": 23
    },
    {
      "midi": 62,
      "hit": false,
      "t": 151500,
      "d": 1500,
      "v": 86
    },
    {
      "midi": 66,
      "hit": false,
      "t": 151500,
      "d": 1500,
      "v": 73
    },
    {
      "midi": 69,
      "hit": false,
      "t": 151500,
      "d": 1500,
      "v": 77
    },
    {
      "midi": 69,
      "hit": false,
      "t": 151506.25,
      "d": 700,
      "v": 122
    },
    {
      "midi": 42,
      "hit": false,
      "t": 151506.25,
      "d": 1600,
      "v": 122
    },
    {
      "midi": 59,
      "hit": false,
      "t": 151687.5,
      "d": 75,
      "v": 30
    },
    {
      "midi": 78,
      "hit": false,
      "t": 151875,
      "d": 750,
      "v": 76
    },
    {
      "midi": 50,
      "hit": false,
      "t": 151881.25,
      "d": 475,
      "v": 122
    },
    {
      "midi": 78,
      "hit": false,
      "t": 152075,
      "d": 531.25,
      "v": 122
    },
    {
      "midi": 81,
      "hit": false,
      "t": 152250,
      "d": 375,
      "v": 71
    },
    {
      "midi": 57,
      "hit": false,
      "t": 152256.25,
      "d": 456.25,
      "v": 122
    },
    {
      "midi": 90,
      "hit": false,
      "t": 152625,
      "d": 325,
      "v": 81
    },
    {
      "midi": 78,
      "hit": false,
      "t": 152631.25,
      "d": 93.75,
      "v": 122
    },
    {
      "midi": 50,
      "hit": false,
      "t": 152631.25,
      "d": 525,
      "v": 122
    },
    {
      "midi": 79,
      "hit": false,
      "t": 152725,
      "d": 93.75,
      "v": 122
    },
    {
      "midi": 78,
      "hit": false,
      "t": 152818.75,
      "d": 293.75,
      "v": 122
    },
    {
      "midi": 67,
      "hit": false,
      "t": 153000,
      "d": 2243.75,
      "v": 67
    },
    {
      "midi": 55,
      "hit": false,
      "t": 153000,
      "d": 3000,
      "v": 64
    },
    {
      "midi": 64,
      "hit": false,
      "t": 153006.25,
      "d": 2993.75,
      "v": 63
    },
    {
      "midi": 76,
      "hit": false,
      "t": 153006.25,
      "d": 456.25,
      "v": 122
    },
    {
      "midi": 67,
      "hit": false,
      "t": 153006.25,
      "d": 718.75,
      "v": 122
    },
    {
      "midi": 40,
      "hit": false,
      "t": 153006.25,
      "d": 3018.75,
      "v": 122
    },
    {
      "midi": 59,
      "hit": false,
      "t": 153018.75,
      "d": 2981.25,
      "v": 77
    },
    {
      "midi": 47,
      "hit": false,
      "t": 153381.25,
      "d": 556.25,
      "v": 122
    },
    {
      "midi": 76,
      "hit": false,
      "t": 153575,
      "d": 856.25,
      "v": 122
    },
    {
      "midi": 83,
      "hit": false,
      "t": 153575,
      "d": 856.25,
      "v": 122
    },
    {
      "midi": 55,
      "hit": false,
      "t": 153756.25,
      "d": 456.25,
      "v": 122
    },
    {
      "midi": 52,
      "hit": false,
      "t": 154131.25,
      "d": 475,
      "v": 122
    },
    {
      "midi": 59,
      "hit": false,
      "t": 154506.25,
      "d": 368.75,
      "v": 122
    },
    {
      "midi": 83,
      "hit": false,
      "t": 154506.25,
      "d": 475,
      "v": 122
    },
    {
      "midi": 76,
      "hit": false,
      "t": 154506.25,
      "d": 718.75,
      "v": 122
    },
    {
      "midi": 84,
      "hit": false,
      "t": 154881.25,
      "d": 243.75,
      "v": 105
    },
    {
      "midi": 55,
      "hit": false,
      "t": 154881.25,
      "d": 475,
      "v": 122
    },
    {
      "midi": 83,
      "hit": false,
      "t": 155075,
      "d": 700,
      "v": 122
    },
    {
      "midi": 52,
      "hit": false,
      "t": 155256.25,
      "d": 506.25,
      "v": 122
    },
    {
      "midi": 76,
      "hit": false,
      "t": 155268.75,
      "d": 375,
      "v": 66
    },
    {
      "midi": 81,
      "hit": false,
      "t": 155631.25,
      "d": 368.75,
      "v": 122
    },
    {
      "midi": 47,
      "hit": false,
      "t": 155631.25,
      "d": 506.25,
      "v": 122
    },
    {
      "midi": 67,
      "hit": false,
      "t": 155643.75,
      "d": 356.25,
      "v": 72
    },
    {
      "midi": 81,
      "hit": false,
      "t": 156006.25,
      "d": 368.75,
      "v": 122
    },
    {
      "midi": 72,
      "hit": false,
      "t": 156006.25,
      "d": 556.25,
      "v": 122
    },
    {
      "midi": 45,
      "hit": false,
      "t": 156006.25,
      "d": 1581.25,
      "v": 122
    },
    {
      "midi": 45,
      "hit": false,
      "t": 156018.75,
      "d": 1481.25,
      "v": 65
    },
    {
      "midi": 52,
      "hit": false,
      "t": 156156.25,
      "d": 1343.75,
      "v": 83
    },
    {
      "midi": 60,
      "hit": false,
      "t": 156300,
      "d": 1200,
      "v": 63
    },
    {
      "midi": 83,
      "hit": false,
      "t": 156381.25,
      "d": 275,
      "v": 122
    },
    {
      "midi": 52,
      "hit": false,
      "t": 156381.25,
      "d": 456.25,
      "v": 122
    },
    {
      "midi": 64,
      "hit": false,
      "t": 156431.25,
      "d": 1068.75,
      "v": 57
    },
    {
      "midi": 69,
      "hit": false,
      "t": 156537.5,
      "d": 962.5,
      "v": 58
    },
    {
      "midi": 79,
      "hit": false,
      "t": 156575,
      "d": 875,
      "v": 122
    },
    {
      "midi": 76,
      "hit": false,
      "t": 156668.75,
      "d": 831.25,
      "v": 63
    },
    {
      "midi": 60,
      "hit": false,
      "t": 156756.25,
      "d": 506.25,
      "v": 122
    },
    {
      "midi": 52,
      "hit": false,
      "t": 157131.25,
      "d": 456.25,
      "v": 122
    },
    {
      "midi": 74,
      "hit": false,
      "t": 157325,
      "d": 175,
      "v": 122
    },
    {
      "midi": 55,
      "hit": false,
      "t": 157500,
      "d": 1500,
      "v": 23
    },
    {
      "midi": 59,
      "hit": false,
      "t": 157500,
      "d": 1500,
      "v": 86
    },
    {
      "midi": 64,
      "hit": false,
      "t": 157500,
      "d": 1500,
      "v": 73
    },
    {
      "midi": 67,
      "hit": false,
      "t": 157500,
      "d": 1500,
      "v": 77
    },
    {
      "midi": 74,
      "hit": false,
      "t": 157506.25,
      "d": 525,
      "v": 122
    },
    {
      "midi": 43,
      "hit": false,
      "t": 157506.25,
      "d": 1700,
      "v": 122
    },
    {
      "midi": 57,
      "hit": false,
      "t": 157687.5,
      "d": 75,
      "v": 30
    },
    {
      "midi": 76,
      "hit": false,
      "t": 157875,
      "d": 750,
      "v": 76
    },
    {
      "midi": 79,
      "hit": false,
      "t": 157881.25,
      "d": 181.25,
      "v": 122
    },
    {
      "midi": 52,
      "hit": false,
      "t": 157881.25,
      "d": 456.25,
      "v": 122
    },
    {
      "midi": 79,
      "hit": false,
      "t": 158075,
      "d": 856.25,
      "v": 122
    },
    {
      "midi": 79,
      "hit": false,
      "t": 158250,
      "d": 375,
      "v": 71
    },
    {
      "midi": 59,
      "hit": false,
      "t": 158256.25,
      "d": 456.25,
      "v": 122
    },
    {
      "midi": 88,
      "hit": false,
      "t": 158625,
      "d": 325,
      "v": 81
    },
    {
      "midi": 50,
      "hit": false,
      "t": 158631.25,
      "d": 487.5,
      "v": 122
    },
    {
      "midi": 74,
      "hit": false,
      "t": 158825,
      "d": 175,
      "v": 122
    },
    {
      "midi": 62,
      "hit": false,
      "t": 159000,
      "d": 2400,
      "v": 86
    },
    {
      "midi": 57,
      "hit": false,
      "t": 159000,
      "d": 2443.75,
      "v": 23
    },
    {
      "midi": 66,
      "hit": false,
      "t": 159000,
      "d": 2443.75,
      "v": 73
    },
    {
      "midi": 69,
      "hit": false,
      "t": 159000,
      "d": 2481.25,
      "v": 77
    },
    {
      "midi": 81,
      "hit": false,
      "t": 159006.25,
      "d": 831.25,
      "v": 122
    },
    {
      "midi": 74,
      "hit": false,
      "t": 159006.25,
      "d": 850,
      "v": 122
    },
    {
      "midi": 69,
      "hit": false,
      "t": 159006.25,
      "d": 881.25,
      "v": 122
    },
    {
      "midi": 42,
      "hit": false,
      "t": 159006.25,
      "d": 3006.25,
      "v": 122
    },
    {
      "midi": 59,
      "hit": false,
      "t": 159187.5,
      "d": 75,
      "v": 30
    },
    {
      "midi": 78,
      "hit": false,
      "t": 159375,
      "d": 750,
      "v": 76
    },
    {
      "midi": 50,
      "hit": false,
      "t": 159381.25,
      "d": 943.75,
      "v": 122
    },
    {
      "midi": 81,
      "hit": false,
      "t": 159750,
      "d": 375,
      "v": 71
    },
    {
      "midi": 62,
      "hit": false,
      "t": 159756.25,
      "d": 487.5,
      "v": 122
    },
    {
      "midi": 90,
      "hit": false,
      "t": 160125,
      "d": 325,
      "v": 81
    },
    {
      "midi": 57,
      "hit": false,
      "t": 160131.25,
      "d": 487.5,
      "v": 122
    },
    {
      "midi": 86,
      "hit": false,
      "t": 160500,
      "d": 675,
      "v": 72
    },
    {
      "midi": 64,
      "hit": false,
      "t": 160506.25,
      "d": 537.5,
      "v": 122
    },
    {
      "midi": 50,
      "hit": false,
      "t": 160506.25,
      "d": 1468.75,
      "v": 122
    },
    {
      "midi": 57,
      "hit": false,
      "t": 160881.25,
      "d": 506.25,
      "v": 122
    },
    {
      "midi": 81,
      "hit": false,
      "t": 161250,
      "d": 568.75,
      "v": 75
    },
    {
      "midi": 62,
      "hit": false,
      "t": 161256.25,
      "d": 475,
      "v": 122
    },
    {
      "midi": 57,
      "hit": false,
      "t": 161631.25,
      "d": 368.75,
      "v": 122
    },
    {
      "midi": 60,
      "hit": false,
      "t": 162000,
      "d": 1418.75,
      "v": 66
    },
    {
      "midi": 55,
      "hit": false,
      "t": 162000,
      "d": 1493.75,
      "v": 45
    },
    {
      "midi": 64,
      "hit": false,
      "t": 162000,
      "d": 1500,
      "v": 53
    },
    {
      "midi": 67,
      "hit": false,
      "t": 162000,
      "d": 1556.25,
      "v": 52
    },
    {
      "midi": 72,
      "hit": false,
      "t": 162000,
      "d": 1725,
      "v": 65
    },
    {
      "midi": 79,
      "hit": false,
      "t": 162000,
      "d": 1781.25,
      "v": 59
    },
    {
      "midi": 64,
      "hit": false,
      "t": 162006.25,
      "d": 1043.75,
      "v": 122
    },
    {
      "midi": 48,
      "hit": false,
      "t": 162006.25,
      "d": 3118.75,
      "v": 122
    },
    {
      "midi": 52,
      "hit": false,
      "t": 162381.25,
      "d": 487.5,
      "v": 122
    },
    {
      "midi": 55,
      "hit": false,
      "t": 162756.25,
      "d": 525,
      "v": 122
    },
    {
      "midi": 64,
      "hit": false,
      "t": 163131.25,
      "d": 862.5,
      "v": 122
    },
    {
      "midi": 76,
      "hit": false,
      "t": 163506.25,
      "d": 368.75,
      "v": 122
    },
    {
      "midi": 67,
      "hit": false,
      "t": 163506.25,
      "d": 587.5,
      "v": 122
    },
    {
      "midi": 55,
      "hit": false,
      "t": 163875,
      "d": 1125,
      "v": 69
    },
    {
      "midi": 76,
      "hit": false,
      "t": 163881.25,
      "d": 368.75,
      "v": 122
    },
    {
      "midi": 55,
      "hit": false,
      "t": 163881.25,
      "d": 456.25,
      "v": 122
    },
    {
      "midi": 60,
      "hit": false,
      "t": 164062.5,
      "d": 937.5,
      "v": 49
    },
    {
      "midi": 64,
      "hit": false,
      "t": 164250,
      "d": 750,
      "v": 76
    },
    {
      "midi": 76,
      "hit": false,
      "t": 164256.25,
      "d": 368.75,
      "v": 122
    },
    {
      "midi": 60,
      "hit": false,
      "t": 164256.25,
      "d": 881.25,
      "v": 122
    },
    {
      "midi": 67,
      "hit": false,
      "t": 164437.5,
      "d": 562.5,
      "v": 79
    },
    {
      "midi": 75,
      "hit": false,
      "t": 164631.25,
      "d": 1043.75,
      "v": 122
    },
    {
      "midi": 66,
      "hit": false,
      "t": 164631.25,
      "d": 1225,
      "v": 122
    },
    {
      "midi": 72,
      "hit": false,
      "t": 164812.5,
      "d": 187.5,
      "v": 85
    },
    {
      "midi": 47,
      "hit": false,
      "t": 165006.25,
      "d": 1418.75,
      "v": 122
    },
    {
      "midi": 63,
      "hit": false,
      "t": 165012.5,
      "d": 2987.5,
      "v": 64
    },
    {
      "midi": 59,
      "hit": false,
      "t": 165025,
      "d": 2975,
      "v": 61
    },
    {
      "midi": 54,
      "hit": false,
      "t": 165031.25,
      "d": 2968.75,
      "v": 48
    },
    {
      "midi": 57,
      "hit": false,
      "t": 165043.75,
      "d": 2956.25,
      "v": 73
    },
    {
      "midi": 51,
      "hit": false,
      "t": 165381.25,
      "d": 525,
      "v": 122
    },
    {
      "midi": 75,
      "hit": false,
      "t": 165756.25,
      "d": 537.5,
      "v": 122
    },
    {
      "midi": 57,
      "hit": false,
      "t": 165756.25,
      "d": 900,
      "v": 122
    },
    {
      "midi": 76,
      "hit": false,
      "t": 166131.25,
      "d": 862.5,
      "v": 122
    },
    {
      "midi": 66,
      "hit": false,
      "t": 166131.25,
      "d": 900,
      "v": 122
    },
    {
      "midi": 47,
      "hit": false,
      "t": 166506.25,
      "d": 1662.5,
      "v": 122
    },
    {
      "midi": 66,
      "hit": false,
      "t": 166881.25,
      "d": 1118.75,
      "v": 55
    },
    {
      "midi": 51,
      "hit": false,
      "t": 166881.25,
      "d": 506.25,
      "v": 122
    },
    {
      "midi": 78,
      "hit": false,
      "t": 166881.25,
      "d": 831.25,
      "v": 122
    },
    {
      "midi": 69,
      "hit": false,
      "t": 166881.25,
      "d": 881.25,
      "v": 122
    },
    {
      "midi": 59,
      "hit": false,
      "t": 167256.25,
      "d": 506.25,
      "v": 122
    },
    {
      "midi": 71,
      "hit": false,
      "t": 167281.25,
      "d": 718.75,
      "v": 66
    },
    {
      "midi": 57,
      "hit": false,
      "t": 167631.25,
      "d": 506.25,
      "v": 122
    },
    {
      "midi": 79,
      "hit": false,
      "t": 167631.25,
      "d": 1175,
      "v": 122
    },
    {
      "midi": 71,
      "hit": false,
      "t": 167631.25,
      "d": 1206.25,
      "v": 122
    },
    {
      "midi": 78,
      "hit": false,
      "t": 167643.75,
      "d": 356.25,
      "v": 68
    },
    {
      "midi": 52,
      "hit": false,
      "t": 168006.25,
      "d": 1631.25,
      "v": 122
    },
    {
      "midi": 40,
      "hit": false,
      "t": 168018.75,
      "d": 1481.25,
      "v": 59
    },
    {
      "midi": 55,
      "hit": false,
      "t": 168156.25,
      "d": 1343.75,
      "v": 77
    },
    {
      "midi": 64,
      "hit": false,
      "t": 168300,
      "d": 1200,
      "v": 57
    },
    {
      "midi": 59,
      "hit": false,
      "t": 168381.25,
      "d": 475,
      "v": 122
    },
    {
      "midi": 67,
      "hit": false,
      "t": 168431.25,
      "d": 1068.75,
      "v": 51
    },
    {
      "midi": 71,
      "hit": false,
      "t": 168537.5,
      "d": 962.5,
      "v": 52
    },
    {
      "midi": 79,
      "hit": false,
      "t": 168668.75,
      "d": 831.25,
      "v": 57
    },
    {
      "midi": 78,
      "hit": false,
      "t": 168756.25,
      "d": 368.75,
      "v": 122
    },
    {
      "midi": 64,
      "hit": false,
      "t": 168756.25,
      "d": 862.5,
      "v": 122
    },
    {
      "midi": 67,
      "hit": false,
      "t": 169131.25,
      "d": 818.75,
      "v": 122
    },
    {
      "midi": 76,
      "hit": false,
      "t": 169131.25,
      "d": 850,
      "v": 122
    },
    {
      "midi": 50,
      "hit": false,
      "t": 169506.25,
      "d": 368.75,
      "v": 122
    },
    {
      "midi": 50,
      "hit": false,
      "t": 169518.75,
      "d": 1481.25,
      "v": 59
    },
    {
      "midi": 55,
      "hit": false,
      "t": 169656.25,
      "d": 1343.75,
      "v": 77
    },
    {
      "midi": 64,
      "hit": false,
      "t": 169800,
      "d": 1200,
      "v": 57
    },
    {
      "midi": 57,
      "hit": false,
      "t": 169881.25,
      "d": 506.25,
      "v": 122
    },
    {
      "midi": 74,
      "hit": false,
      "t": 169881.25,
      "d": 862.5,
      "v": 122
    },
    {
      "midi": 67,
      "hit": false,
      "t": 169931.25,
      "d": 1068.75,
      "v": 51
    },
    {
      "midi": 72,
      "hit": false,
      "t": 170037.5,
      "d": 962.5,
      "v": 52
    },
    {
      "midi": 79,
      "hit": false,
      "t": 170168.75,
      "d": 831.25,
      "v": 57
    },
    {
      "midi": 62,
      "hit": false,
      "t": 170256.25,
      "d": 487.5,
      "v": 122
    },
    {
      "midi": 57,
      "hit": false,
      "t": 170631.25,
      "d": 487.5,
      "v": 122
    },
    {
      "midi": 71,
      "hit": false,
      "t": 170631.25,
      "d": 525,
      "v": 122
    },
    {
      "midi": 52,
      "hit": false,
      "t": 171000,
      "d": 3000,
      "v": 58
    },
    {
      "midi": 61,
      "hit": false,
      "t": 171000,
      "d": 3000,
      "v": 61
    },
    {
      "midi": 57,
      "hit": false,
      "t": 171006.25,
      "d": 2993.75,
      "v": 57
    },
    {
      "midi": 69,
      "hit": false,
      "t": 171006.25,
      "d": 368.75,
      "v": 122
    },
    {
      "midi": 49,
      "hit": false,
      "t": 171006.25,
      "d": 3100,
      "v": 122
    },
    {
      "midi": 55,
      "hit": false,
      "t": 171018.75,
      "d": 2981.25,
      "v": 71
    },
    {
      "midi": 52,
      "hit": false,
      "t": 171381.25,
      "d": 525,
      "v": 122
    },
    {
      "midi": 67,
      "hit": false,
      "t": 171381.25,
      "d": 981.25,
      "v": 122
    },
    {
      "midi": 55,
      "hit": false,
      "t": 171756.25,
      "d": 456.25,
      "v": 122
    },
    {
      "midi": 64,
      "hit": false,
      "t": 172131.25,
      "d": 1862.5,
      "v": 122
    },
    {
      "midi": 59,
      "hit": false,
      "t": 172131.25,
      "d": 1993.75,
      "v": 122
    },
    {
      "midi": 67,
      "hit": false,
      "t": 172506.25,
      "d": 506.25,
      "v": 122
    },
    {
      "midi": 69,
      "hit": false,
      "t": 172881.25,
      "d": 487.5,
      "v": 122
    },
    {
      "midi": 64,
      "hit": false,
      "t": 172893.75,
      "d": 350,
      "v": 62
    },
    {
      "midi": 71,
      "hit": false,
      "t": 173256.25,
      "d": 487.5,
      "v": 122
    },
    {
      "midi": 69,
      "hit": false,
      "t": 173268.75,
      "d": 375,
      "v": 60
    },
    {
      "midi": 69,
      "hit": false,
      "t": 173631.25,
      "d": 850,
      "v": 122
    },
    {
      "midi": 64,
      "hit": false,
      "t": 173643.75,
      "d": 356.25,
      "v": 66
    },
    {
      "midi": 45,
      "hit": false,
      "t": 174006.25,
      "d": 1793.75,
      "v": 122
    },
    {
      "midi": 60,
      "hit": false,
      "t": 174012.5,
      "d": 2987.5,
      "v": 64
    },
    {
      "midi": 57,
      "hit": false,
      "t": 174025,
      "d": 2975,
      "v": 61
    },
    {
      "midi": 52,
      "hit": false,
      "t": 174031.25,
      "d": 2968.75,
      "v": 48
    },
    {
      "midi": 55,
      "hit": false,
      "t": 174043.75,
      "d": 2956.25,
      "v": 73
    },
    {
      "midi": 52,
      "hit": false,
      "t": 174381.25,
      "d": 2106.25,
      "v": 122
    },
    {
      "midi": 67,
      "hit": false,
      "t": 174381.25,
      "d": 2368.75,
      "v": 122
    },
    {
      "midi": 55,
      "hit": false,
      "t": 174756.25,
      "d": 475,
      "v": 122
    },
    {
      "midi": 60,
      "hit": false,
      "t": 175131.25,
      "d": 1062.5,
      "v": 122
    },
    {
      "midi": 64,
      "hit": false,
      "t": 175131.25,
      "d": 1225,
      "v": 122
    },
    {
      "midi": 64,
      "hit": false,
      "t": 175881.25,
      "d": 1118.75,
      "v": 55
    },
    {
      "midi": 45,
      "hit": false,
      "t": 175881.25,
      "d": 1075,
      "v": 122
    },
    {
      "midi": 55,
      "hit": false,
      "t": 176256.25,
      "d": 831.25,
      "v": 122
    },
    {
      "midi": 60,
      "hit": false,
      "t": 176256.25,
      "d": 831.25,
      "v": 122
    },
    {
      "midi": 69,
      "hit": false,
      "t": 176281.25,
      "d": 718.75,
      "v": 66
    },
    {
      "midi": 52,
      "hit": false,
      "t": 176631.25,
      "d": 456.25,
      "v": 122
    },
    {
      "midi": 76,
      "hit": false,
      "t": 176643.75,
      "d": 356.25,
      "v": 68
    },
    {
      "midi": 60,
      "hit": false,
      "t": 177000,
      "d": 712.5,
      "v": 65
    },
    {
      "midi": 55,
      "hit": false,
      "t": 177000,
      "d": 762.5,
      "v": 48
    },
    {
      "midi": 64,
      "hit": false,
      "t": 177000,
      "d": 775,
      "v": 61
    },
    {
      "midi": 67,
      "hit": false,
      "t": 177000,
      "d": 775,
      "v": 56
    },
    {
      "midi": 50,
      "hit": false,
      "t": 177006.25,
      "d": 2543.75,
      "v": 122
    },
    {
      "midi": 72,
      "hit": false,
      "t": 177381.25,
      "d": 475,
      "v": 122
    },
    {
      "midi": 57,
      "hit": false,
      "t": 177381.25,
      "d": 506.25,
      "v": 122
    },
    {
      "midi": 71,
      "hit": false,
      "t": 177756.25,
      "d": 475,
      "v": 122
    },
    {
      "midi": 60,
      "hit": false,
      "t": 177756.25,
      "d": 818.75,
      "v": 122
    },
    {
      "midi": 67,
      "hit": false,
      "t": 177756.25,
      "d": 850,
      "v": 122
    },
    {
      "midi": 55,
      "hit": false,
      "t": 178125,
      "d": 375,
      "v": 46
    },
    {
      "midi": 60,
      "hit": false,
      "t": 178125,
      "d": 375,
      "v": 80
    },
    {
      "midi": 64,
      "hit": false,
      "t": 178125,
      "d": 375,
      "v": 62
    },
    {
      "midi": 67,
      "hit": false,
      "t": 178125,
      "d": 375,
      "v": 63
    },
    {
      "midi": 74,
      "hit": false,
      "t": 178131.25,
      "d": 1225,
      "v": 122
    },
    {
      "midi": 62,
      "hit": false,
      "t": 178506.25,
      "d": 862.5,
      "v": 122
    },
    {
      "midi": 66,
      "hit": false,
      "t": 178506.25,
      "d": 1618.75,
      "v": 122
    },
    {
      "midi": 50,
      "hit": false,
      "t": 178518.75,
      "d": 1481.25,
      "v": 59
    },
    {
      "midi": 57,
      "hit": false,
      "t": 178656.25,
      "d": 1343.75,
      "v": 77
    },
    {
      "midi": 66,
      "hit": false,
      "t": 178800,
      "d": 1200,
      "v": 57
    },
    {
      "midi": 69,
      "hit": false,
      "t": 178931.25,
      "d": 1068.75,
      "v": 51
    },
    {
      "midi": 74,
      "hit": false,
      "t": 179037.5,
      "d": 962.5,
      "v": 52
    },
    {
      "midi": 81,
      "hit": false,
      "t": 179168.75,
      "d": 831.25,
      "v": 57
    },
    {
      "midi": 71,
      "hit": false,
      "t": 179256.25,
      "d": 368.75,
      "v": 122
    },
    {
      "midi": 57,
      "hit": false,
      "t": 179256.25,
      "d": 456.25,
      "v": 122
    },
    {
      "midi": 50,
      "hit": false,
      "t": 179631.25,
      "d": 487.5,
      "v": 122
    },
    {
      "midi": 71,
      "hit": false,
      "t": 179631.25,
      "d": 831.25,
      "v": 122
    },
    {
      "midi": 43,
      "hit": false,
      "t": 180006.25,
      "d": 962.5,
      "v": 122
    },
    {
      "midi": 43,
      "hit": false,
      "t": 180018.75,
      "d": 1481.25,
      "v": 65
    },
    {
      "midi": 59,
      "hit": false,
      "t": 180156.25,
      "d": 1343.75,
      "v": 83
    },
    {
      "midi": 67,
      "hit": false,
      "t": 180300,
      "d": 1200,
      "v": 63
    },
    {
      "midi": 50,
      "hit": false,
      "t": 180381.25,
      "d": 981.25,
      "v": 122
    },
    {
      "midi": 67,
      "hit": false,
      "t": 180381.25,
      "d": 1206.25,
      "v": 122
    },
    {
      "midi": 71,
      "hit": false,
      "t": 180431.25,
      "d": 1068.75,
      "v": 57
    },
    {
      "midi": 74,
      "hit": false,
      "t": 180537.5,
      "d": 962.5,
      "v": 58
    },
    {
      "midi": 83,
      "hit": false,
      "t": 180668.75,
      "d": 831.25,
      "v": 63
    },
    {
      "midi": 59,
      "hit": false,
      "t": 180756.25,
      "d": 668.75,
      "v": 122
    },
    {
      "midi": 43,
      "hit": false,
      "t": 181131.25,
      "d": 368.75,
      "v": 122
    },
    {
      "midi": 50,
      "hit": false,
      "t": 181506.25,
      "d": 456.25,
      "v": 122
    },
    {
      "midi": 59,
      "hit": false,
      "t": 181506.25,
      "d": 456.25,
      "v": 122
    },
    {
      "midi": 43,
      "hit": false,
      "t": 181506.25,
      "d": 981.25,
      "v": 122
    },
    {
      "midi": 43,
      "hit": false,
      "t": 181518.75,
      "d": 293.75,
      "v": 65
    },
    {
      "midi": 60,
      "hit": false,
      "t": 181881.25,
      "d": 181.25,
      "v": 122
    },
    {
      "midi": 52,
      "hit": false,
      "t": 181881.25,
      "d": 443.75,
      "v": 122
    },
    {
      "midi": 43,
      "hit": false,
      "t": 181893.75,
      "d": 1093.75,
      "v": 65
    },
    {
      "midi": 60,
      "hit": false,
      "t": 182075,
      "d": 175,
      "v": 102
    },
    {
      "midi": 62,
      "hit": false,
      "t": 182256.25,
      "d": 456.25,
      "v": 122
    },
    {
      "midi": 54,
      "hit": false,
      "t": 182256.25,
      "d": 475,
      "v": 122
    },
    {
      "midi": 55,
      "hit": false,
      "t": 182406.25,
      "d": 593.75,
      "v": 83
    },
    {
      "midi": 64,
      "hit": false,
      "t": 182550,
      "d": 450,
      "v": 63
    },
    {
      "midi": 52,
      "hit": false,
      "t": 182631.25,
      "d": 737.5,
      "v": 122
    },
    {
      "midi": 60,
      "hit": false,
      "t": 182631.25,
      "d": 1062.5,
      "v": 122
    },
    {
      "midi": 43,
      "hit": false,
      "t": 182631.25,
      "d": 1793.75,
      "v": 122
    },
    {
      "midi": 67,
      "hit": false,
      "t": 182681.25,
      "d": 318.75,
      "v": 57
    },
    {
      "midi": 72,
      "hit": false,
      "t": 182787.5,
      "d": 212.5,
      "v": 58
    },
    {
      "midi": 79,
      "hit": false,
      "t": 182918.75,
      "d": 81.25,
      "v": 63
    },
    {
      "midi": 60,
      "hit": false,
      "t": 183000,
      "d": 712.5,
      "v": 71
    },
    {
      "midi": 55,
      "hit": false,
      "t": 183000,
      "d": 762.5,
      "v": 54
    },
    {
      "midi": 64,
      "hit": false,
      "t": 183000,
      "d": 775,
      "v": 67
    },
    {
      "midi": 67,
      "hit": false,
      "t": 183000,
      "d": 775,
      "v": 62
    },
    {
      "midi": 52,
      "hit": false,
      "t": 183381.25,
      "d": 900,
      "v": 122
    },
    {
      "midi": 60,
      "hit": false,
      "t": 183756.25,
      "d": 687.5,
      "v": 122
    },
    {
      "midi": 67,
      "hit": false,
      "t": 184125,
      "d": 1325,
      "v": 69
    },
    {
      "midi": 55,
      "hit": false,
      "t": 184125,
      "d": 1475,
      "v": 52
    },
    {
      "midi": 60,
      "hit": false,
      "t": 184125,
      "d": 1487.5,
      "v": 86
    },
    {
      "midi": 64,
      "hit": false,
      "t": 184125,
      "d": 1518.75,
      "v": 68
    },
    {
      "midi": 55,
      "hit": false,
      "t": 184131.25,
      "d": 368.75,
      "v": 122
    },
    {
      "midi": 60,
      "hit": false,
      "t": 184506.25,
      "d": 487.5,
      "v": 122
    },
    {
      "midi": 67,
      "hit": false,
      "t": 184506.25,
      "d": 525,
      "v": 122
    },
    {
      "midi": 43,
      "hit": false,
      "t": 184506.25,
      "d": 1518.75,
      "v": 122
    },
    {
      "midi": 55,
      "hit": false,
      "t": 184506.25,
      "d": 1518.75,
      "v": 122
    },
    {
      "midi": 69,
      "hit": false,
      "t": 184881.25,
      "d": 556.25,
      "v": 122
    },
    {
      "midi": 76,
      "hit": false,
      "t": 185250,
      "d": 225,
      "v": 77
    },
    {
      "midi": 71,
      "hit": false,
      "t": 185256.25,
      "d": 525,
      "v": 122
    },
    {
      "midi": 79,
      "hit": false,
      "t": 185625,
      "d": 168.75,
      "v": 76
    },
    {
      "midi": 72,
      "hit": false,
      "t": 185631.25,
      "d": 368.75,
      "v": 122
    },
    {
      "midi": 55,
      "hit": false,
      "t": 186000,
      "d": 1418.75,
      "v": 72
    },
    {
      "midi": 52,
      "hit": false,
      "t": 186000,
      "d": 1493.75,
      "v": 51
    },
    {
      "midi": 57,
      "hit": false,
      "t": 186000,
      "d": 1500,
      "v": 59
    },
    {
      "midi": 60,
      "hit": false,
      "t": 186000,
      "d": 1556.25,
      "v": 58
    },
    {
      "midi": 67,
      "hit": false,
      "t": 186000,
      "d": 1725,
      "v": 71
    },
    {
      "midi": 64,
      "hit": false,
      "t": 186000,
      "d": 1743.75,
      "v": 56
    },
    {
      "midi": 72,
      "hit": false,
      "t": 186000,
      "d": 1781.25,
      "v": 65
    },
    {
      "midi": 71,
      "hit": false,
      "t": 186006.25,
      "d": 262.5,
      "v": 122
    },
    {
      "midi": 45,
      "hit": false,
      "t": 186006.25,
      "d": 1781.25,
      "v": 122
    },
    {
      "midi": 69,
      "hit": false,
      "t": 186200,
      "d": 262.5,
      "v": 122
    },
    {
      "midi": 67,
      "hit": false,
      "t": 186381.25,
      "d": 368.75,
      "v": 122
    },
    {
      "midi": 52,
      "hit": false,
      "t": 186381.25,
      "d": 1550,
      "v": 122
    },
    {
      "midi": 55,
      "hit": false,
      "t": 186756.25,
      "d": 537.5,
      "v": 122
    },
    {
      "midi": 67,
      "hit": false,
      "t": 186756.25,
      "d": 2006.25,
      "v": 122
    },
    {
      "midi": 60,
      "hit": false,
      "t": 187131.25,
      "d": 1043.75,
      "v": 122
    },
    {
      "midi": 64,
      "hit": false,
      "t": 187131.25,
      "d": 1206.25,
      "v": 122
    },
    {
      "midi": 52,
      "hit": false,
      "t": 187875,
      "d": 1125,
      "v": 75
    },
    {
      "midi": 45,
      "hit": false,
      "t": 187881.25,
      "d": 475,
      "v": 122
    },
    {
      "midi": 55,
      "hit": false,
      "t": 188062.5,
      "d": 937.5,
      "v": 55
    },
    {
      "midi": 57,
      "hit": false,
      "t": 188250,
      "d": 750,
      "v": 82
    },
    {
      "midi": 43,
      "hit": false,
      "t": 188256.25,
      "d": 456.25,
      "v": 122
    },
    {
      "midi": 60,
      "hit": false,
      "t": 188256.25,
      "d": 750,
      "v": 122
    },
    {
      "midi": 55,
      "hit": false,
      "t": 188256.25,
      "d": 768.75,
      "v": 122
    },
    {
      "midi": 60,
      "hit": false,
      "t": 188437.5,
      "d": 562.5,
      "v": 85
    },
    {
      "midi": 64,
      "hit": false,
      "t": 188625,
      "d": 375,
      "v": 75
    },
    {
      "midi": 40,
      "hit": false,
      "t": 188631.25,
      "d": 487.5,
      "v": 122
    },
    {
      "midi": 67,
      "hit": false,
      "t": 188812.5,
      "d": 187.5,
      "v": 91
    },
    {
      "midi": 60,
      "hit": false,
      "t": 189000,
      "d": 1418.75,
      "v": 72
    },
    {
      "midi": 55,
      "hit": false,
      "t": 189000,
      "d": 1493.75,
      "v": 51
    },
    {
      "midi": 64,
      "hit": false,
      "t": 189000,
      "d": 1500,
      "v": 59
    },
    {
      "midi": 67,
      "hit": false,
      "t": 189000,
      "d": 1556.25,
      "v": 58
    },
    {
      "midi": 72,
      "hit": false,
      "t": 189000,
      "d": 1725,
      "v": 71
    },
    {
      "midi": 79,
      "hit": false,
      "t": 189000,
      "d": 1781.25,
      "v": 65
    },
    {
      "midi": 60,
      "hit": false,
      "t": 189006.25,
      "d": 3006.25,
      "v": 122
    },
    {
      "midi": 64,
      "hit": false,
      "t": 189006.25,
      "d": 3006.25,
      "v": 122
    },
    {
      "midi": 45,
      "hit": false,
      "t": 189381.25,
      "d": 475,
      "v": 122
    },
    {
      "midi": 72,
      "hit": false,
      "t": 189381.25,
      "d": 525,
      "v": 122
    },
    {
      "midi": 71,
      "hit": false,
      "t": 189756.25,
      "d": 475,
      "v": 122
    },
    {
      "midi": 55,
      "hit": false,
      "t": 189756.25,
      "d": 506.25,
      "v": 122
    },
    {
      "midi": 50,
      "hit": false,
      "t": 190131.25,
      "d": 525,
      "v": 122
    },
    {
      "midi": 69,
      "hit": false,
      "t": 190131.25,
      "d": 3443.75,
      "v": 122
    },
    {
      "midi": 55,
      "hit": false,
      "t": 190506.25,
      "d": 475,
      "v": 122
    },
    {
      "midi": 55,
      "hit": false,
      "t": 190875,
      "d": 1125,
      "v": 75
    },
    {
      "midi": 50,
      "hit": false,
      "t": 190881.25,
      "d": 525,
      "v": 122
    },
    {
      "midi": 60,
      "hit": false,
      "t": 191062.5,
      "d": 937.5,
      "v": 55
    },
    {
      "midi": 64,
      "hit": false,
      "t": 191250,
      "d": 750,
      "v": 82
    },
    {
      "midi": 55,
      "hit": false,
      "t": 191256.25,
      "d": 487.5,
      "v": 122
    },
    {
      "midi": 67,
      "hit": false,
      "t": 191437.5,
      "d": 562.5,
      "v": 85
    },
    {
      "midi": 50,
      "hit": false,
      "t": 191631.25,
      "d": 525,
      "v": 122
    },
    {
      "midi": 72,
      "hit": false,
      "t": 191812.5,
      "d": 187.5,
      "v": 91
    },
    {
      "midi": 38,
      "hit": false,
      "t": 192006.25,
      "d": 6.25,
      "v": 122
    },
    {
      "midi": 66,
      "hit": false,
      "t": 192006.25,
      "d": 1581.25,
      "v": 122
    },
    {
      "midi": 62,
      "hit": false,
      "t": 192006.25,
      "d": 1600,
      "v": 122
    },
    {
      "midi": 69,
      "hit": false,
      "t": 192012.5,
      "d": 2987.5,
      "v": 70
    },
    {
      "midi": 66,
      "hit": false,
      "t": 192025,
      "d": 2975,
      "v": 67
    },
    {
      "midi": 57,
      "hit": false,
      "t": 192031.25,
      "d": 2968.75,
      "v": 54
    },
    {
      "midi": 62,
      "hit": false,
      "t": 192043.75,
      "d": 2956.25,
      "v": 79
    },
    {
      "midi": 45,
      "hit": false,
      "t": 192381.25,
      "d": 443.75,
      "v": 122
    },
    {
      "midi": 54,
      "hit": false,
      "t": 192756.25,
      "d": 506.25,
      "v": 122
    },
    {
      "midi": 45,
      "hit": false,
      "t": 193131.25,
      "d": 475,
      "v": 122
    },
    {
      "midi": 54,
      "hit": false,
      "t": 193506.25,
      "d": 1600,
      "v": 122
    },
    {
      "midi": 69,
      "hit": false,
      "t": 193881.25,
      "d": 1062.5,
      "v": 122
    },
    {
      "midi": 62,
      "hit": false,
      "t": 193881.25,
      "d": 1100,
      "v": 122
    },
    {
      "midi": 66,
      "hit": false,
      "t": 193881.25,
      "d": 1100,
      "v": 122
    },
    {
      "midi": 78,
      "hit": false,
      "t": 194281.25,
      "d": 718.75,
      "v": 72
    },
    {
      "midi": 81,
      "hit": false,
      "t": 194643.75,
      "d": 356.25,
      "v": 74
    },
    {
      "midi": 60,
      "hit": false,
      "t": 195006.25,
      "d": 1112.5,
      "v": 122
    },
    {
      "midi": 64,
      "hit": false,
      "t": 195006.25,
      "d": 1112.5,
      "v": 122
    },
    {
      "midi": 67,
      "hit": false,
      "t": 195006.25,
      "d": 2987.5,
      "v": 122
    },
    {
      "midi": 67,
      "hit": false,
      "t": 195012.5,
      "d": 2987.5,
      "v": 70
    },
    {
      "midi": 64,
      "hit": false,
      "t": 195025,
      "d": 2975,
      "v": 67
    },
    {
      "midi": 55,
      "hit": false,
      "t": 195031.25,
      "d": 2968.75,
      "v": 54
    },
    {
      "midi": 60,
      "hit": false,
      "t": 195043.75,
      "d": 2956.25,
      "v": 79
    },
    {
      "midi": 43,
      "hit": false,
      "t": 195381.25,
      "d": 368.75,
      "v": 122
    },
    {
      "midi": 52,
      "hit": false,
      "t": 195756.25,
      "d": 1993.75,
      "v": 122
    },
    {
      "midi": 55,
      "hit": false,
      "t": 196131.25,
      "d": 456.25,
      "v": 122
    },
    {
      "midi": 60,
      "hit": false,
      "t": 196506.25,
      "d": 506.25,
      "v": 122
    },
    {
      "midi": 55,
      "hit": false,
      "t": 196881.25,
      "d": 475,
      "v": 122
    },
    {
      "midi": 64,
      "hit": false,
      "t": 197256.25,
      "d": 506.25,
      "v": 122
    },
    {
      "midi": 76,
      "hit": false,
      "t": 197281.25,
      "d": 718.75,
      "v": 72
    },
    {
      "midi": 55,
      "hit": false,
      "t": 197631.25,
      "d": 368.75,
      "v": 122
    },
    {
      "midi": 79,
      "hit": false,
      "t": 197643.75,
      "d": 356.25,
      "v": 74
    },
    {
      "midi": 55,
      "hit": false,
      "t": 198000,
      "d": 3000,
      "v": 64
    },
    {
      "midi": 63,
      "hit": false,
      "t": 198000,
      "d": 3000,
      "v": 67
    },
    {
      "midi": 60,
      "hit": false,
      "t": 198006.25,
      "d": 2993.75,
      "v": 63
    },
    {
      "midi": 36,
      "hit": false,
      "t": 198006.25,
      "d": 18.75,
      "v": 122
    },
    {
      "midi": 63,
      "hit": false,
      "t": 198006.25,
      "d": 668.75,
      "v": 122
    },
    {
      "midi": 67,
      "hit": false,
      "t": 198006.25,
      "d": 862.5,
      "v": 122
    },
    {
      "midi": 57,
      "hit": false,
      "t": 198018.75,
      "d": 2981.25,
      "v": 77
    },
    {
      "midi": 55,
      "hit": false,
      "t": 198381.25,
      "d": 668.75,
      "v": 122
    },
    {
      "midi": 63,
      "hit": false,
      "t": 198756.25,
      "d": 862.5,
      "v": 122
    },
    {
      "midi": 55,
      "hit": false,
      "t": 199131.25,
      "d": 668.75,
      "v": 122
    },
    {
      "midi": 60,
      "hit": false,
      "t": 199506.25,
      "d": 900,
      "v": 122
    },
    {
      "midi": 38,
      "hit": false,
      "t": 199881.25,
      "d": 368.75,
      "v": 122
    },
    {
      "midi": 55,
      "hit": false,
      "t": 199881.25,
      "d": 1043.75,
      "v": 122
    },
    {
      "midi": 67,
      "hit": false,
      "t": 199893.75,
      "d": 350,
      "v": 68
    },
    {
      "midi": 39,
      "hit": false,
      "t": 200256.25,
      "d": 900,
      "v": 122
    },
    {
      "midi": 57,
      "hit": false,
      "t": 200256.25,
      "d": 912.5,
      "v": 122
    },
    {
      "midi": 72,
      "hit": false,
      "t": 200268.75,
      "d": 375,
      "v": 66
    },
    {
      "midi": 67,
      "hit": false,
      "t": 200643.75,
      "d": 356.25,
      "v": 72
    },
    {
      "midi": 62,
      "hit": false,
      "t": 201000,
      "d": 712.5,
      "v": 71
    },
    {
      "midi": 59,
      "hit": false,
      "t": 201000,
      "d": 762.5,
      "v": 54
    },
    {
      "midi": 67,
      "hit": false,
      "t": 201000,
      "d": 775,
      "v": 67
    },
    {
      "midi": 71,
      "hit": false,
      "t": 201000,
      "d": 775,
      "v": 62
    },
    {
      "midi": 43,
      "hit": false,
      "t": 201006.25,
      "d": 1406.25,
      "v": 122
    },
    {
      "midi": 67,
      "hit": false,
      "t": 201006.25,
      "d": 1418.75,
      "v": 122
    },
    {
      "midi": 62,
      "hit": false,
      "t": 201006.25,
      "d": 1600,
      "v": 122
    },
    {
      "midi": 59,
      "hit": false,
      "t": 201006.25,
      "d": 1618.75,
      "v": 122
    },
    {
      "midi": 50,
      "hit": false,
      "t": 201381.25,
      "d": 506.25,
      "v": 122
    },
    {
      "midi": 55,
      "hit": false,
      "t": 201756.25,
      "d": 525,
      "v": 122
    },
    {
      "midi": 59,
      "hit": false,
      "t": 202125,
      "d": 375,
      "v": 52
    },
    {
      "midi": 62,
      "hit": false,
      "t": 202125,
      "d": 375,
      "v": 86
    },
    {
      "midi": 67,
      "hit": false,
      "t": 202125,
      "d": 375,
      "v": 68
    },
    {
      "midi": 71,
      "hit": false,
      "t": 202125,
      "d": 375,
      "v": 69
    },
    {
      "midi": 50,
      "hit": false,
      "t": 202131.25,
      "d": 525,
      "v": 122
    },
    {
      "midi": 55,
      "hit": false,
      "t": 202500,
      "d": 750,
      "v": 23
    },
    {
      "midi": 60,
      "hit": false,
      "t": 202500,
      "d": 750,
      "v": 86
    },
    {
      "midi": 64,
      "hit": false,
      "t": 202500,
      "d": 750,
      "v": 73
    },
    {
      "midi": 67,
      "hit": false,
      "t": 202500,
      "d": 750,
      "v": 77
    },
    {
      "midi": 43,
      "hit": false,
      "t": 202506.25,
      "d": 737.5,
      "v": 122
    },
    {
      "midi": 52,
      "hit": false,
      "t": 202506.25,
      "d": 737.5,
      "v": 122
    },
    {
      "midi": 60,
      "hit": false,
      "t": 202506.25,
      "d": 831.25,
      "v": 122
    },
    {
      "midi": 67,
      "hit": false,
      "t": 202506.25,
      "d": 1356.25,
      "v": 122
    },
    {
      "midi": 57,
      "hit": false,
      "t": 202687.5,
      "d": 75,
      "v": 30
    },
    {
      "midi": 76,
      "hit": false,
      "t": 202875,
      "d": 375,
      "v": 76
    },
    {
      "midi": 43,
      "hit": false,
      "t": 203256.25,
      "d": 618.75,
      "v": 122
    },
    {
      "midi": 52,
      "hit": false,
      "t": 203256.25,
      "d": 650,
      "v": 122
    },
    {
      "midi": 62,
      "hit": false,
      "t": 203256.25,
      "d": 687.5,
      "v": 122
    },
    {
      "midi": 43,
      "hit": false,
      "t": 203268.75,
      "d": 731.25,
      "v": 65
    },
    {
      "midi": 57,
      "hit": false,
      "t": 203406.25,
      "d": 593.75,
      "v": 83
    },
    {
      "midi": 66,
      "hit": false,
      "t": 203550,
      "d": 450,
      "v": 63
    },
    {
      "midi": 69,
      "hit": false,
      "t": 203681.25,
      "d": 318.75,
      "v": 57
    },
    {
      "midi": 74,
      "hit": false,
      "t": 203787.5,
      "d": 212.5,
      "v": 58
    },
    {
      "midi": 81,
      "hit": false,
      "t": 203918.75,
      "d": 81.25,
      "v": 63
    },
    {
      "midi": 62,
      "hit": false,
      "t": 204000,
      "d": 1418.75,
      "v": 72
    },
    {
      "midi": 59,
      "hit": false,
      "t": 204000,
      "d": 1493.75,
      "v": 51
    },
    {
      "midi": 67,
      "hit": false,
      "t": 204000,
      "d": 1500,
      "v": 59
    },
    {
      "midi": 71,
      "hit": false,
      "t": 204000,
      "d": 1556.25,
      "v": 58
    },
    {
      "midi": 74,
      "hit": false,
      "t": 204000,
      "d": 1725,
      "v": 71
    },
    {
      "midi": 83,
      "hit": false,
      "t": 204000,
      "d": 1781.25,
      "v": 65
    },
    {
      "midi": 43,
      "hit": false,
      "t": 204006.25,
      "d": 2987.5,
      "v": 122
    },
    {
      "midi": 50,
      "hit": false,
      "t": 204006.25,
      "d": 2987.5,
      "v": 122
    },
    {
      "midi": 55,
      "hit": false,
      "t": 204006.25,
      "d": 2987.5,
      "v": 122
    },
    {
      "midi": 59,
      "hit": false,
      "t": 204006.25,
      "d": 3006.25,
      "v": 122
    },
    {
      "midi": 67,
      "hit": false,
      "t": 204006.25,
      "d": 3006.25,
      "v": 122
    },
    {
      "midi": 59,
      "hit": false,
      "t": 205875,
      "d": 1125,
      "v": 75
    },
    {
      "midi": 62,
      "hit": false,
      "t": 206062.5,
      "d": 937.5,
      "v": 55
    },
    {
      "midi": 67,
      "hit": false,
      "t": 206250,
      "d": 750,
      "v": 82
    },
    {
      "midi": 71,
      "hit": false,
      "t": 206437.5,
      "d": 562.5,
      "v": 85
    },
    {
      "midi": 74,
      "hit": false,
      "t": 206812.5,
      "d": 187.5,
      "v": 91
    },
    {
      "midi": 71,
      "hit": false,
      "t": 207037.5,
      "d": 1950,
      "v": 61
    },
    {
      "midi": 67,
      "hit": false,
      "t": 207050,
      "d": 2743.75,
      "v": 58
    },
    {
      "midi": 59,
      "hit": false,
      "t": 207075,
      "d": 2718.75,
      "v": 55
    },
    {
      "midi": 62,
      "hit": false,
      "t": 207075,
      "d": 2718.75,
      "v": 80
    },
    {
      "midi": 79,
      "hit": false,
      "t": 208900,
      "d": 212.5,
      "v": 80
    },
    {
      "midi": 83,
      "hit": false,
      "t": 209262.5,
      "d": 118.75,
      "v": 78
    },
    {
      "midi": 83,
      "hit": false,
      "t": 209625,
      "d": 112.5,
      "v": 83
    },
    {
      "midi": 91,
      "hit": false,
      "t": 210050,
      "d": 2081.25,
      "v": 82
    },
    {
      "midi": 62,
      "hit": false,
      "t": 210056.25,
      "d": 2075,
      "v": 76
    },
    {
      "midi": 67,
      "hit": false,
      "t": 210056.25,
      "d": 2087.5,
      "v": 61
    },
    {
      "midi": 59,
      "hit": false,
      "t": 210056.25,
      "d": 2100,
      "v": 44
    },
    {
      "midi": 71,
      "hit": false,
      "t": 210056.25,
      "d": 2106.25,
      "v": 65
    }
  ]
}