{
  "jsonPath": "Electronic/Lo-Fi/Preston School Of Industry/a-treasure-silver-bank-this-dynasty-is-for-real.json",
  "path": "Electronic\\Lo-Fi\\Preston School Of Industry\\A Treasure  Silver Bank (this dynasty is for real).mid",
  "name": "A Treasure  Silver Bank (this dynasty is for real)",
  "difficulty": "Intermediate",
  "bpm": 114.0001710002565,
  "notes": [
    {
      "midi": 45,
      "hit": false,
      "t": 8421.04,
      "d": 257.67505208333387,
      "v": 112
    },
    {
      "midi": 57,
      "hit": false,
      "t": 8421.04,
      "d": 257.67505208333387,
      "v": 110
    },
    {
      "midi": 43,
      "hit": false,
      "t": 8684.197500000002,
      "d": 520.8325520833332,
      "v": 102
    },
    {
      "midi": 55,
      "hit": false,
      "t": 8684.197500000002,
      "d": 520.8325520833332,
      "v": 108
    },
    {
      "midi": 40,
      "hit": false,
      "t": 9210.512500000003,
      "d": 227.52158854166737,
      "v": 102
    },
    {
      "midi": 52,
      "hit": false,
      "t": 9210.512500000003,
      "d": 233.00403645833467,
      "v": 112
    },
    {
      "midi": 52,
      "hit": false,
      "t": 9736.827500000003,
      "d": 175.4383333333335,
      "v": 112
    },
    {
      "midi": 40,
      "hit": false,
      "t": 9736.827500000003,
      "d": 219.29791666666642,
      "v": 108
    },
    {
      "midi": 31,
      "hit": false,
      "t": 9999.985000000002,
      "d": 438.59583333333285,
      "v": 114
    },
    {
      "midi": 43,
      "hit": false,
      "t": 9999.985000000002,
      "d": 476.9729687500003,
      "v": 113
    },
    {
      "midi": 48,
      "hit": false,
      "t": 10526.300000000003,
      "d": 578.3982552083326,
      "v": 120
    },
    {
      "midi": 36,
      "hit": false,
      "t": 10526.300000000003,
      "d": 594.8455989583326,
      "v": 127
    },
    {
      "midi": 60,
      "hit": false,
      "t": 10526.300000000003,
      "d": 1965.4575781249987,
      "v": 120
    },
    {
      "midi": 64,
      "hit": false,
      "t": 10526.300000000003,
      "d": 1987.387369791666,
      "v": 127
    },
    {
      "midi": 48,
      "hit": false,
      "t": 12631.560000000003,
      "d": 257.67505208333387,
      "v": 127
    },
    {
      "midi": 47,
      "hit": false,
      "t": 12894.717500000004,
      "d": 520.8325520833332,
      "v": 114
    },
    {
      "midi": 45,
      "hit": false,
      "t": 13421.032500000005,
      "d": 241.2277083333338,
      "v": 120
    },
    {
      "midi": 43,
      "hit": false,
      "t": 13947.347500000005,
      "d": 227.52158854166737,
      "v": 118
    },
    {
      "midi": 43,
      "hit": false,
      "t": 14473.662500000006,
      "d": 180.9207812500008,
      "v": 122
    },
    {
      "midi": 36,
      "hit": false,
      "t": 14736.820000000007,
      "d": 397.4774739583336,
      "v": 120
    },
    {
      "midi": 60,
      "hit": false,
      "t": 14736.820000000007,
      "d": 1321.2699479166677,
      "v": 98
    },
    {
      "midi": 64,
      "hit": false,
      "t": 14736.820000000007,
      "d": 1321.2699479166677,
      "v": 114
    },
    {
      "midi": 60,
      "hit": false,
      "t": 18947.340000000007,
      "d": 2020.282057291668,
      "v": 100
    },
    {
      "midi": 64,
      "hit": false,
      "t": 18947.340000000007,
      "d": 2020.282057291668,
      "v": 109
    },
    {
      "midi": 59,
      "hit": false,
      "t": 23157.860000000008,
      "d": 1296.5989322916648,
      "v": 94
    },
    {
      "midi": 67,
      "hit": false,
      "t": 23157.860000000008,
      "d": 1296.5989322916648,
      "v": 106
    },
    {
      "midi": 62,
      "hit": false,
      "t": 23157.860000000008,
      "d": 1307.5638281249994,
      "v": 100
    },
    {
      "midi": 60,
      "hit": false,
      "t": 27368.38000000001,
      "d": 1208.879765624999,
      "v": 89
    },
    {
      "midi": 64,
      "hit": false,
      "t": 27368.38000000001,
      "d": 1211.6209895833308,
      "v": 106
    },
    {
      "midi": 60,
      "hit": false,
      "t": 31578.900000000005,
      "d": 1321.2699479166658,
      "v": 90
    },
    {
      "midi": 64,
      "hit": false,
      "t": 31578.900000000005,
      "d": 1321.2699479166658,
      "v": 106
    },
    {
      "midi": 60,
      "hit": false,
      "t": 35789.420000000006,
      "d": 2020.282057291668,
      "v": 100
    },
    {
      "midi": 64,
      "hit": false,
      "t": 35789.420000000006,
      "d": 2020.282057291668,
      "v": 109
    },
    {
      "midi": 59,
      "hit": false,
      "t": 39999.94000000001,
      "d": 1296.5989322916648,
      "v": 94
    },
    {
      "midi": 67,
      "hit": false,
      "t": 39999.94000000001,
      "d": 1296.5989322916648,
      "v": 106
    },
    {
      "midi": 62,
      "hit": false,
      "t": 39999.94000000001,
      "d": 1307.5638281249994,
      "v": 100
    },
    {
      "midi": 60,
      "hit": false,
      "t": 44210.46000000001,
      "d": 1208.8797656250026,
      "v": 89
    },
    {
      "midi": 64,
      "hit": false,
      "t": 44210.46000000001,
      "d": 1211.620989583338,
      "v": 106
    },
    {
      "midi": 48,
      "hit": false,
      "t": 71578.84000000001,
      "d": 257.67505208333023,
      "v": 127
    },
    {
      "midi": 47,
      "hit": false,
      "t": 71841.99750000001,
      "d": 520.8325520833314,
      "v": 114
    },
    {
      "midi": 45,
      "hit": false,
      "t": 72368.31250000001,
      "d": 241.22770833333198,
      "v": 120
    },
    {
      "midi": 43,
      "hit": false,
      "t": 72894.62750000002,
      "d": 227.5215885416692,
      "v": 118
    },
    {
      "midi": 43,
      "hit": false,
      "t": 73420.94250000002,
      "d": 180.92078124999534,
      "v": 122
    },
    {
      "midi": 36,
      "hit": false,
      "t": 73684.10000000002,
      "d": 550.986015625007,
      "v": 127
    },
    {
      "midi": 48,
      "hit": false,
      "t": 88420.92000000003,
      "d": 257.67505208333023,
      "v": 127
    },
    {
      "midi": 47,
      "hit": false,
      "t": 88684.07750000003,
      "d": 520.8325520833314,
      "v": 114
    },
    {
      "midi": 45,
      "hit": false,
      "t": 89210.39250000003,
      "d": 241.22770833333198,
      "v": 120
    },
    {
      "midi": 43,
      "hit": false,
      "t": 89736.70750000003,
      "d": 227.5215885416692,
      "v": 118
    },
    {
      "midi": 43,
      "hit": false,
      "t": 90263.02250000004,
      "d": 180.92078124999534,
      "v": 122
    },
    {
      "midi": 36,
      "hit": false,
      "t": 90526.18000000004,
      "d": 452.3019531250029,
      "v": 127
    },
    {
      "midi": 48,
      "hit": false,
      "t": 130526.12000000004,
      "d": 257.67505208333023,
      "v": 127
    },
    {
      "midi": 47,
      "hit": false,
      "t": 130789.27750000004,
      "d": 520.832552083346,
      "v": 114
    },
    {
      "midi": 45,
      "hit": false,
      "t": 131315.59250000006,
      "d": 241.22770833334653,
      "v": 120
    },
    {
      "midi": 43,
      "hit": false,
      "t": 131841.90750000006,
      "d": 227.52158854165464,
      "v": 118
    },
    {
      "midi": 43,
      "hit": false,
      "t": 132368.22250000006,
      "d": 180.92078124999534,
      "v": 122
    },
    {
      "midi": 45,
      "hit": false,
      "t": 155789.24000000005,
      "d": 257.67505208333023,
      "v": 127
    },
    {
      "midi": 59,
      "hit": false,
      "t": 155789.24000000005,
      "d": 1639.251927083329,
      "v": 92
    },
    {
      "midi": 62,
      "hit": false,
      "t": 155789.24000000005,
      "d": 1639.251927083329,
      "v": 97
    },
    {
      "midi": 67,
      "hit": false,
      "t": 155789.24000000005,
      "d": 1647.475598958321,
      "v": 102
    },
    {
      "midi": 43,
      "hit": false,
      "t": 156052.39750000005,
      "d": 520.8325520833314,
      "v": 114
    },
    {
      "midi": 40,
      "hit": false,
      "t": 156578.71250000005,
      "d": 241.22770833334653,
      "v": 120
    },
    {
      "midi": 40,
      "hit": false,
      "t": 157105.02750000005,
      "d": 227.52158854165464,
      "v": 118
    },
    {
      "midi": 31,
      "hit": false,
      "t": 157368.18500000006,
      "d": 520.8325520833023,
      "v": 122
    },
    {
      "midi": 36,
      "hit": false,
      "t": 157894.50000000003,
      "d": 3810.3013020833314,
      "v": 118
    },
    {
      "midi": 48,
      "hit": false,
      "t": 157894.50000000003,
      "d": 3810.3013020833314,
      "v": 116
    },
    {
      "midi": 55,
      "hit": false,
      "t": 157894.50000000003,
      "d": 3810.3013020833314,
      "v": 83
    },
    {
      "midi": 60,
      "hit": false,
      "t": 157894.50000000003,
      "d": 3810.3013020833314,
      "v": 88
    },
    {
      "midi": 64,
      "hit": false,
      "t": 157894.50000000003,
      "d": 3810.3013020833314,
      "v": 95
    }
  ]
}