{
  "jsonPath": "Soul/Funk/The Supremes/after-all.json",
  "path": "Soul\\Funk\\The Supremes\\After All.mid",
  "name": "After All",
  "difficulty": "Advanced",
  "bpm": 69.00009660013524,
  "notes": [
    {
      "midi": 76,
      "hit": false,
      "t": 0,
      "d": 181.1591666666667,
      "v": 120
    },
    {
      "midi": 81,
      "hit": false,
      "t": 0,
      "d": 1449.2733333333335,
      "v": 120
    },
    {
      "midi": 41,
      "hit": false,
      "t": 0,
      "d": 282.60830000000004,
      "v": 125
    },
    {
      "midi": 65,
      "hit": false,
      "t": 0,
      "d": 282.60830000000004,
      "v": 125
    },
    {
      "midi": 69,
      "hit": false,
      "t": 0,
      "d": 282.60830000000004,
      "v": 125
    },
    {
      "midi": 72,
      "hit": false,
      "t": 0,
      "d": 282.60830000000004,
      "v": 125
    },
    {
      "midi": 77,
      "hit": false,
      "t": 181.1591666666667,
      "d": 1159.418666666667,
      "v": 120
    },
    {
      "midi": 41,
      "hit": false,
      "t": 289.85466666666673,
      "d": 282.6083,
      "v": 125
    },
    {
      "midi": 65,
      "hit": false,
      "t": 289.85466666666673,
      "d": 282.6083,
      "v": 125
    },
    {
      "midi": 69,
      "hit": false,
      "t": 289.85466666666673,
      "d": 282.6083,
      "v": 125
    },
    {
      "midi": 72,
      "hit": false,
      "t": 289.85466666666673,
      "d": 282.6083,
      "v": 125
    },
    {
      "midi": 41,
      "hit": false,
      "t": 579.7093333333333,
      "d": 282.6083,
      "v": 125
    },
    {
      "midi": 65,
      "hit": false,
      "t": 579.7093333333333,
      "d": 282.6083,
      "v": 125
    },
    {
      "midi": 69,
      "hit": false,
      "t": 579.7093333333333,
      "d": 282.6083,
      "v": 125
    },
    {
      "midi": 72,
      "hit": false,
      "t": 579.7093333333333,
      "d": 282.6083,
      "v": 125
    },
    {
      "midi": 41,
      "hit": false,
      "t": 869.564,
      "d": 282.6083,
      "v": 125
    },
    {
      "midi": 65,
      "hit": false,
      "t": 869.564,
      "d": 282.6083,
      "v": 125
    },
    {
      "midi": 69,
      "hit": false,
      "t": 869.564,
      "d": 282.6083,
      "v": 125
    },
    {
      "midi": 72,
      "hit": false,
      "t": 869.564,
      "d": 282.6083,
      "v": 125
    },
    {
      "midi": 41,
      "hit": false,
      "t": 1159.4186666666667,
      "d": 282.6083000000001,
      "v": 125
    },
    {
      "midi": 65,
      "hit": false,
      "t": 1159.4186666666667,
      "d": 282.6083000000001,
      "v": 125
    },
    {
      "midi": 69,
      "hit": false,
      "t": 1159.4186666666667,
      "d": 282.6083000000001,
      "v": 125
    },
    {
      "midi": 72,
      "hit": false,
      "t": 1159.4186666666667,
      "d": 282.6083000000001,
      "v": 125
    },
    {
      "midi": 41,
      "hit": false,
      "t": 1449.2733333333335,
      "d": 282.6083000000001,
      "v": 125
    },
    {
      "midi": 65,
      "hit": false,
      "t": 1449.2733333333335,
      "d": 282.6083000000001,
      "v": 125
    },
    {
      "midi": 69,
      "hit": false,
      "t": 1449.2733333333335,
      "d": 282.6083000000001,
      "v": 125
    },
    {
      "midi": 72,
      "hit": false,
      "t": 1449.2733333333335,
      "d": 282.6083000000001,
      "v": 125
    },
    {
      "midi": 72,
      "hit": false,
      "t": 1739.1280000000002,
      "d": 1449.2733333333335,
      "v": 120
    },
    {
      "midi": 77,
      "hit": false,
      "t": 1739.1280000000002,
      "d": 1739.1280000000002,
      "v": 120
    },
    {
      "midi": 38,
      "hit": false,
      "t": 1739.1280000000004,
      "d": 282.6083000000001,
      "v": 125
    },
    {
      "midi": 65,
      "hit": false,
      "t": 1739.1280000000004,
      "d": 282.6083000000001,
      "v": 125
    },
    {
      "midi": 69,
      "hit": false,
      "t": 1739.1280000000004,
      "d": 282.6083000000001,
      "v": 125
    },
    {
      "midi": 74,
      "hit": false,
      "t": 1739.1280000000004,
      "d": 282.6083000000001,
      "v": 125
    },
    {
      "midi": 38,
      "hit": false,
      "t": 2028.9826666666672,
      "d": 282.6082999999999,
      "v": 125
    },
    {
      "midi": 65,
      "hit": false,
      "t": 2028.9826666666672,
      "d": 282.6082999999999,
      "v": 125
    },
    {
      "midi": 69,
      "hit": false,
      "t": 2028.9826666666672,
      "d": 282.6082999999999,
      "v": 125
    },
    {
      "midi": 74,
      "hit": false,
      "t": 2028.9826666666672,
      "d": 282.6082999999999,
      "v": 125
    },
    {
      "midi": 38,
      "hit": false,
      "t": 2318.837333333334,
      "d": 282.6082999999999,
      "v": 125
    },
    {
      "midi": 65,
      "hit": false,
      "t": 2318.837333333334,
      "d": 282.6082999999999,
      "v": 125
    },
    {
      "midi": 69,
      "hit": false,
      "t": 2318.837333333334,
      "d": 282.6082999999999,
      "v": 125
    },
    {
      "midi": 74,
      "hit": false,
      "t": 2318.837333333334,
      "d": 282.6082999999999,
      "v": 125
    },
    {
      "midi": 38,
      "hit": false,
      "t": 2608.6920000000005,
      "d": 282.6082999999999,
      "v": 125
    },
    {
      "midi": 65,
      "hit": false,
      "t": 2608.6920000000005,
      "d": 282.6082999999999,
      "v": 125
    },
    {
      "midi": 69,
      "hit": false,
      "t": 2608.6920000000005,
      "d": 282.6082999999999,
      "v": 125
    },
    {
      "midi": 74,
      "hit": false,
      "t": 2608.6920000000005,
      "d": 282.6082999999999,
      "v": 125
    },
    {
      "midi": 38,
      "hit": false,
      "t": 2898.546666666667,
      "d": 282.6082999999999,
      "v": 125
    },
    {
      "midi": 65,
      "hit": false,
      "t": 2898.546666666667,
      "d": 282.6082999999999,
      "v": 125
    },
    {
      "midi": 69,
      "hit": false,
      "t": 2898.546666666667,
      "d": 282.6082999999999,
      "v": 125
    },
    {
      "midi": 74,
      "hit": false,
      "t": 2898.546666666667,
      "d": 282.6082999999999,
      "v": 125
    },
    {
      "midi": 38,
      "hit": false,
      "t": 3188.4013333333337,
      "d": 282.6082999999999,
      "v": 125
    },
    {
      "midi": 65,
      "hit": false,
      "t": 3188.4013333333337,
      "d": 282.6082999999999,
      "v": 125
    },
    {
      "midi": 69,
      "hit": false,
      "t": 3188.4013333333337,
      "d": 282.6082999999999,
      "v": 125
    },
    {
      "midi": 74,
      "hit": false,
      "t": 3188.4013333333337,
      "d": 282.6082999999999,
      "v": 125
    },
    {
      "midi": 34,
      "hit": false,
      "t": 3478.2560000000003,
      "d": 282.6082999999999,
      "v": 125
    },
    {
      "midi": 65,
      "hit": false,
      "t": 3478.2560000000003,
      "d": 282.6082999999999,
      "v": 125
    },
    {
      "midi": 70,
      "hit": false,
      "t": 3478.2560000000003,
      "d": 282.6082999999999,
      "v": 125
    },
    {
      "midi": 73,
      "hit": false,
      "t": 3478.2560000000003,
      "d": 282.6082999999999,
      "v": 125
    },
    {
      "midi": 34,
      "hit": false,
      "t": 3768.110666666667,
      "d": 282.6082999999999,
      "v": 125
    },
    {
      "midi": 65,
      "hit": false,
      "t": 3768.110666666667,
      "d": 282.6082999999999,
      "v": 125
    },
    {
      "midi": 70,
      "hit": false,
      "t": 3768.110666666667,
      "d": 282.6082999999999,
      "v": 125
    },
    {
      "midi": 73,
      "hit": false,
      "t": 3768.110666666667,
      "d": 282.6082999999999,
      "v": 125
    },
    {
      "midi": 34,
      "hit": false,
      "t": 4057.9653333333335,
      "d": 282.6082999999999,
      "v": 125
    },
    {
      "midi": 65,
      "hit": false,
      "t": 4057.9653333333335,
      "d": 282.6082999999999,
      "v": 125
    },
    {
      "midi": 70,
      "hit": false,
      "t": 4057.9653333333335,
      "d": 282.6082999999999,
      "v": 125
    },
    {
      "midi": 73,
      "hit": false,
      "t": 4057.9653333333335,
      "d": 282.6082999999999,
      "v": 125
    },
    {
      "midi": 34,
      "hit": false,
      "t": 4347.82,
      "d": 282.6082999999999,
      "v": 125
    },
    {
      "midi": 65,
      "hit": false,
      "t": 4347.82,
      "d": 282.6082999999999,
      "v": 125
    },
    {
      "midi": 70,
      "hit": false,
      "t": 4347.82,
      "d": 282.6082999999999,
      "v": 125
    },
    {
      "midi": 73,
      "hit": false,
      "t": 4347.82,
      "d": 282.6082999999999,
      "v": 125
    },
    {
      "midi": 34,
      "hit": false,
      "t": 4637.674666666666,
      "d": 282.6082999999999,
      "v": 125
    },
    {
      "midi": 65,
      "hit": false,
      "t": 4637.674666666666,
      "d": 282.6082999999999,
      "v": 125
    },
    {
      "midi": 70,
      "hit": false,
      "t": 4637.674666666666,
      "d": 282.6082999999999,
      "v": 125
    },
    {
      "midi": 73,
      "hit": false,
      "t": 4637.674666666666,
      "d": 282.6082999999999,
      "v": 125
    },
    {
      "midi": 70,
      "hit": false,
      "t": 4637.674666666667,
      "d": 282.6082999999999,
      "v": 120
    },
    {
      "midi": 34,
      "hit": false,
      "t": 4927.529333333332,
      "d": 282.6082999999999,
      "v": 125
    },
    {
      "midi": 65,
      "hit": false,
      "t": 4927.529333333332,
      "d": 282.6082999999999,
      "v": 125
    },
    {
      "midi": 70,
      "hit": false,
      "t": 4927.529333333332,
      "d": 282.6082999999999,
      "v": 125
    },
    {
      "midi": 73,
      "hit": false,
      "t": 4927.529333333332,
      "d": 282.6082999999999,
      "v": 125
    },
    {
      "midi": 72,
      "hit": false,
      "t": 4927.529333333333,
      "d": 282.6082999999999,
      "v": 120
    },
    {
      "midi": 77,
      "hit": false,
      "t": 4927.529333333333,
      "d": 282.6082999999999,
      "v": 120
    },
    {
      "midi": 36,
      "hit": false,
      "t": 5217.383999999998,
      "d": 282.6082999999999,
      "v": 125
    },
    {
      "midi": 64,
      "hit": false,
      "t": 5217.383999999998,
      "d": 282.6082999999999,
      "v": 125
    },
    {
      "midi": 67,
      "hit": false,
      "t": 5217.383999999998,
      "d": 282.6082999999999,
      "v": 125
    },
    {
      "midi": 72,
      "hit": false,
      "t": 5217.383999999998,
      "d": 282.6082999999999,
      "v": 125
    },
    {
      "midi": 72,
      "hit": false,
      "t": 5217.383999999999,
      "d": 181.15916666666635,
      "v": 120
    },
    {
      "midi": 77,
      "hit": false,
      "t": 5217.383999999999,
      "d": 579.7093333333332,
      "v": 120
    },
    {
      "midi": 73,
      "hit": false,
      "t": 5398.5431666666655,
      "d": 282.6082999999999,
      "v": 120
    },
    {
      "midi": 36,
      "hit": false,
      "t": 5507.238666666664,
      "d": 282.6082999999999,
      "v": 125
    },
    {
      "midi": 64,
      "hit": false,
      "t": 5507.238666666664,
      "d": 282.6082999999999,
      "v": 125
    },
    {
      "midi": 67,
      "hit": false,
      "t": 5507.238666666664,
      "d": 282.6082999999999,
      "v": 125
    },
    {
      "midi": 72,
      "hit": false,
      "t": 5507.238666666664,
      "d": 282.6082999999999,
      "v": 125
    },
    {
      "midi": 36,
      "hit": false,
      "t": 5797.0933333333305,
      "d": 282.6082999999999,
      "v": 125
    },
    {
      "midi": 64,
      "hit": false,
      "t": 5797.0933333333305,
      "d": 282.6082999999999,
      "v": 125
    },
    {
      "midi": 67,
      "hit": false,
      "t": 5797.0933333333305,
      "d": 282.6082999999999,
      "v": 125
    },
    {
      "midi": 72,
      "hit": false,
      "t": 5797.0933333333305,
      "d": 282.6082999999999,
      "v": 125
    },
    {
      "midi": 72,
      "hit": false,
      "t": 5797.093333333332,
      "d": 579.7093333333332,
      "v": 120
    },
    {
      "midi": 77,
      "hit": false,
      "t": 5797.093333333332,
      "d": 579.7093333333332,
      "v": 120
    },
    {
      "midi": 36,
      "hit": false,
      "t": 6086.947999999997,
      "d": 282.6082999999999,
      "v": 125
    },
    {
      "midi": 64,
      "hit": false,
      "t": 6086.947999999997,
      "d": 282.6082999999999,
      "v": 125
    },
    {
      "midi": 67,
      "hit": false,
      "t": 6086.947999999997,
      "d": 282.6082999999999,
      "v": 125
    },
    {
      "midi": 72,
      "hit": false,
      "t": 6086.947999999997,
      "d": 282.6082999999999,
      "v": 125
    },
    {
      "midi": 36,
      "hit": false,
      "t": 6376.802666666663,
      "d": 282.6082999999999,
      "v": 125
    },
    {
      "midi": 64,
      "hit": false,
      "t": 6376.802666666663,
      "d": 282.6082999999999,
      "v": 125
    },
    {
      "midi": 67,
      "hit": false,
      "t": 6376.802666666663,
      "d": 282.6082999999999,
      "v": 125
    },
    {
      "midi": 72,
      "hit": false,
      "t": 6376.802666666663,
      "d": 282.6082999999999,
      "v": 125
    },
    {
      "midi": 70,
      "hit": false,
      "t": 6376.802666666666,
      "d": 579.7093333333332,
      "v": 120
    },
    {
      "midi": 36,
      "hit": false,
      "t": 6666.657333333329,
      "d": 282.6082999999999,
      "v": 125
    },
    {
      "midi": 64,
      "hit": false,
      "t": 6666.657333333329,
      "d": 282.6082999999999,
      "v": 125
    },
    {
      "midi": 67,
      "hit": false,
      "t": 6666.657333333329,
      "d": 282.6082999999999,
      "v": 125
    },
    {
      "midi": 72,
      "hit": false,
      "t": 6666.657333333329,
      "d": 282.6082999999999,
      "v": 125
    },
    {
      "midi": 41,
      "hit": false,
      "t": 6956.511999999995,
      "d": 282.6082999999999,
      "v": 125
    },
    {
      "midi": 65,
      "hit": false,
      "t": 6956.511999999995,
      "d": 282.6082999999999,
      "v": 125
    },
    {
      "midi": 69,
      "hit": false,
      "t": 6956.511999999995,
      "d": 282.6082999999999,
      "v": 125
    },
    {
      "midi": 72,
      "hit": false,
      "t": 6956.511999999995,
      "d": 282.6082999999999,
      "v": 125
    },
    {
      "midi": 76,
      "hit": false,
      "t": 6956.511999999999,
      "d": 181.15916666666635,
      "v": 120
    },
    {
      "midi": 81,
      "hit": false,
      "t": 6956.511999999999,
      "d": 1449.2733333333326,
      "v": 120
    },
    {
      "midi": 77,
      "hit": false,
      "t": 7137.671166666665,
      "d": 1159.4186666666665,
      "v": 120
    },
    {
      "midi": 41,
      "hit": false,
      "t": 7246.366666666661,
      "d": 282.6082999999999,
      "v": 125
    },
    {
      "midi": 65,
      "hit": false,
      "t": 7246.366666666661,
      "d": 282.6082999999999,
      "v": 125
    },
    {
      "midi": 69,
      "hit": false,
      "t": 7246.366666666661,
      "d": 282.6082999999999,
      "v": 125
    },
    {
      "midi": 72,
      "hit": false,
      "t": 7246.366666666661,
      "d": 282.6082999999999,
      "v": 125
    },
    {
      "midi": 41,
      "hit": false,
      "t": 7536.2213333333275,
      "d": 282.6082999999999,
      "v": 125
    },
    {
      "midi": 65,
      "hit": false,
      "t": 7536.2213333333275,
      "d": 282.6082999999999,
      "v": 125
    },
    {
      "midi": 69,
      "hit": false,
      "t": 7536.2213333333275,
      "d": 282.6082999999999,
      "v": 125
    },
    {
      "midi": 72,
      "hit": false,
      "t": 7536.2213333333275,
      "d": 282.6082999999999,
      "v": 125
    },
    {
      "midi": 41,
      "hit": false,
      "t": 7826.075999999994,
      "d": 282.6082999999999,
      "v": 125
    },
    {
      "midi": 65,
      "hit": false,
      "t": 7826.075999999994,
      "d": 282.6082999999999,
      "v": 125
    },
    {
      "midi": 69,
      "hit": false,
      "t": 7826.075999999994,
      "d": 282.6082999999999,
      "v": 125
    },
    {
      "midi": 72,
      "hit": false,
      "t": 7826.075999999994,
      "d": 282.6082999999999,
      "v": 125
    },
    {
      "midi": 41,
      "hit": false,
      "t": 8115.93066666666,
      "d": 282.6082999999999,
      "v": 125
    },
    {
      "midi": 65,
      "hit": false,
      "t": 8115.93066666666,
      "d": 282.6082999999999,
      "v": 125
    },
    {
      "midi": 69,
      "hit": false,
      "t": 8115.93066666666,
      "d": 282.6082999999999,
      "v": 125
    },
    {
      "midi": 72,
      "hit": false,
      "t": 8115.93066666666,
      "d": 282.6082999999999,
      "v": 125
    },
    {
      "midi": 41,
      "hit": false,
      "t": 8405.785333333326,
      "d": 282.6082999999999,
      "v": 125
    },
    {
      "midi": 65,
      "hit": false,
      "t": 8405.785333333326,
      "d": 282.6082999999999,
      "v": 125
    },
    {
      "midi": 69,
      "hit": false,
      "t": 8405.785333333326,
      "d": 282.6082999999999,
      "v": 125
    },
    {
      "midi": 72,
      "hit": false,
      "t": 8405.785333333326,
      "d": 282.6082999999999,
      "v": 125
    },
    {
      "midi": 38,
      "hit": false,
      "t": 8695.639999999992,
      "d": 282.6082999999999,
      "v": 125
    },
    {
      "midi": 65,
      "hit": false,
      "t": 8695.639999999992,
      "d": 282.6082999999999,
      "v": 125
    },
    {
      "midi": 69,
      "hit": false,
      "t": 8695.639999999992,
      "d": 282.6082999999999,
      "v": 125
    },
    {
      "midi": 74,
      "hit": false,
      "t": 8695.639999999992,
      "d": 282.6082999999999,
      "v": 125
    },
    {
      "midi": 72,
      "hit": false,
      "t": 8695.639999999998,
      "d": 1449.2733333333344,
      "v": 120
    },
    {
      "midi": 77,
      "hit": false,
      "t": 8695.639999999998,
      "d": 1739.1280000000006,
      "v": 120
    },
    {
      "midi": 38,
      "hit": false,
      "t": 8985.494666666658,
      "d": 282.6082999999999,
      "v": 125
    },
    {
      "midi": 65,
      "hit": false,
      "t": 8985.494666666658,
      "d": 282.6082999999999,
      "v": 125
    },
    {
      "midi": 69,
      "hit": false,
      "t": 8985.494666666658,
      "d": 282.6082999999999,
      "v": 125
    },
    {
      "midi": 74,
      "hit": false,
      "t": 8985.494666666658,
      "d": 282.6082999999999,
      "v": 125
    },
    {
      "midi": 38,
      "hit": false,
      "t": 9275.349333333324,
      "d": 282.6082999999999,
      "v": 125
    },
    {
      "midi": 65,
      "hit": false,
      "t": 9275.349333333324,
      "d": 282.6082999999999,
      "v": 125
    },
    {
      "midi": 69,
      "hit": false,
      "t": 9275.349333333324,
      "d": 282.6082999999999,
      "v": 125
    },
    {
      "midi": 74,
      "hit": false,
      "t": 9275.349333333324,
      "d": 282.6082999999999,
      "v": 125
    },
    {
      "midi": 38,
      "hit": false,
      "t": 9565.20399999999,
      "d": 282.6082999999999,
      "v": 125
    },
    {
      "midi": 65,
      "hit": false,
      "t": 9565.20399999999,
      "d": 282.6082999999999,
      "v": 125
    },
    {
      "midi": 69,
      "hit": false,
      "t": 9565.20399999999,
      "d": 282.6082999999999,
      "v": 125
    },
    {
      "midi": 74,
      "hit": false,
      "t": 9565.20399999999,
      "d": 282.6082999999999,
      "v": 125
    },
    {
      "midi": 38,
      "hit": false,
      "t": 9855.058666666657,
      "d": 282.6082999999999,
      "v": 125
    },
    {
      "midi": 65,
      "hit": false,
      "t": 9855.058666666657,
      "d": 282.6082999999999,
      "v": 125
    },
    {
      "midi": 69,
      "hit": false,
      "t": 9855.058666666657,
      "d": 282.6082999999999,
      "v": 125
    },
    {
      "midi": 74,
      "hit": false,
      "t": 9855.058666666657,
      "d": 282.6082999999999,
      "v": 125
    },
    {
      "midi": 38,
      "hit": false,
      "t": 10144.913333333323,
      "d": 282.6082999999999,
      "v": 125
    },
    {
      "midi": 65,
      "hit": false,
      "t": 10144.913333333323,
      "d": 282.6082999999999,
      "v": 125
    },
    {
      "midi": 69,
      "hit": false,
      "t": 10144.913333333323,
      "d": 282.6082999999999,
      "v": 125
    },
    {
      "midi": 74,
      "hit": false,
      "t": 10144.913333333323,
      "d": 282.6082999999999,
      "v": 125
    },
    {
      "midi": 34,
      "hit": false,
      "t": 10434.76799999999,
      "d": 282.6082999999999,
      "v": 125
    },
    {
      "midi": 65,
      "hit": false,
      "t": 10434.76799999999,
      "d": 282.6082999999999,
      "v": 125
    },
    {
      "midi": 70,
      "hit": false,
      "t": 10434.76799999999,
      "d": 282.6082999999999,
      "v": 125
    },
    {
      "midi": 73,
      "hit": false,
      "t": 10434.76799999999,
      "d": 282.6082999999999,
      "v": 125
    },
    {
      "midi": 34,
      "hit": false,
      "t": 10724.622666666655,
      "d": 282.6082999999999,
      "v": 125
    },
    {
      "midi": 65,
      "hit": false,
      "t": 10724.622666666655,
      "d": 282.6082999999999,
      "v": 125
    },
    {
      "midi": 70,
      "hit": false,
      "t": 10724.622666666655,
      "d": 282.6082999999999,
      "v": 125
    },
    {
      "midi": 73,
      "hit": false,
      "t": 10724.622666666655,
      "d": 282.6082999999999,
      "v": 125
    },
    {
      "midi": 34,
      "hit": false,
      "t": 11014.477333333321,
      "d": 282.6082999999999,
      "v": 125
    },
    {
      "midi": 65,
      "hit": false,
      "t": 11014.477333333321,
      "d": 282.6082999999999,
      "v": 125
    },
    {
      "midi": 70,
      "hit": false,
      "t": 11014.477333333321,
      "d": 282.6082999999999,
      "v": 125
    },
    {
      "midi": 73,
      "hit": false,
      "t": 11014.477333333321,
      "d": 282.6082999999999,
      "v": 125
    },
    {
      "midi": 34,
      "hit": false,
      "t": 11304.331999999988,
      "d": 282.6082999999999,
      "v": 125
    },
    {
      "midi": 65,
      "hit": false,
      "t": 11304.331999999988,
      "d": 282.6082999999999,
      "v": 125
    },
    {
      "midi": 70,
      "hit": false,
      "t": 11304.331999999988,
      "d": 282.6082999999999,
      "v": 125
    },
    {
      "midi": 73,
      "hit": false,
      "t": 11304.331999999988,
      "d": 282.6082999999999,
      "v": 125
    },
    {
      "midi": 34,
      "hit": false,
      "t": 11594.186666666654,
      "d": 282.6082999999999,
      "v": 125
    },
    {
      "midi": 65,
      "hit": false,
      "t": 11594.186666666654,
      "d": 282.6082999999999,
      "v": 125
    },
    {
      "midi": 70,
      "hit": false,
      "t": 11594.186666666654,
      "d": 282.6082999999999,
      "v": 125
    },
    {
      "midi": 73,
      "hit": false,
      "t": 11594.186666666654,
      "d": 282.6082999999999,
      "v": 125
    },
    {
      "midi": 70,
      "hit": false,
      "t": 11594.186666666665,
      "d": 282.6082999999999,
      "v": 120
    },
    {
      "midi": 34,
      "hit": false,
      "t": 11884.04133333332,
      "d": 282.6082999999999,
      "v": 125
    },
    {
      "midi": 65,
      "hit": false,
      "t": 11884.04133333332,
      "d": 282.6082999999999,
      "v": 125
    },
    {
      "midi": 70,
      "hit": false,
      "t": 11884.04133333332,
      "d": 282.6082999999999,
      "v": 125
    },
    {
      "midi": 73,
      "hit": false,
      "t": 11884.04133333332,
      "d": 282.6082999999999,
      "v": 125
    },
    {
      "midi": 72,
      "hit": false,
      "t": 11884.04133333333,
      "d": 282.6082999999999,
      "v": 120
    },
    {
      "midi": 77,
      "hit": false,
      "t": 11884.04133333333,
      "d": 282.6082999999999,
      "v": 120
    },
    {
      "midi": 36,
      "hit": false,
      "t": 12173.895999999986,
      "d": 282.6082999999999,
      "v": 125
    },
    {
      "midi": 64,
      "hit": false,
      "t": 12173.895999999986,
      "d": 282.6082999999999,
      "v": 125
    },
    {
      "midi": 67,
      "hit": false,
      "t": 12173.895999999986,
      "d": 282.6082999999999,
      "v": 125
    },
    {
      "midi": 72,
      "hit": false,
      "t": 12173.895999999986,
      "d": 282.6082999999999,
      "v": 125
    },
    {
      "midi": 72,
      "hit": false,
      "t": 12173.895999999997,
      "d": 181.15916666666635,
      "v": 120
    },
    {
      "midi": 77,
      "hit": false,
      "t": 12173.895999999997,
      "d": 579.7093333333323,
      "v": 120
    },
    {
      "midi": 73,
      "hit": false,
      "t": 12355.055166666663,
      "d": 282.6082999999999,
      "v": 120
    },
    {
      "midi": 36,
      "hit": false,
      "t": 12463.750666666652,
      "d": 282.6082999999999,
      "v": 125
    },
    {
      "midi": 64,
      "hit": false,
      "t": 12463.750666666652,
      "d": 282.6082999999999,
      "v": 125
    },
    {
      "midi": 67,
      "hit": false,
      "t": 12463.750666666652,
      "d": 282.6082999999999,
      "v": 125
    },
    {
      "midi": 72,
      "hit": false,
      "t": 12463.750666666652,
      "d": 282.6082999999999,
      "v": 125
    },
    {
      "midi": 36,
      "hit": false,
      "t": 12753.605333333318,
      "d": 282.6082999999999,
      "v": 125
    },
    {
      "midi": 64,
      "hit": false,
      "t": 12753.605333333318,
      "d": 282.6082999999999,
      "v": 125
    },
    {
      "midi": 67,
      "hit": false,
      "t": 12753.605333333318,
      "d": 282.6082999999999,
      "v": 125
    },
    {
      "midi": 72,
      "hit": false,
      "t": 12753.605333333318,
      "d": 282.6082999999999,
      "v": 125
    },
    {
      "midi": 72,
      "hit": false,
      "t": 12753.60533333333,
      "d": 579.7093333333341,
      "v": 120
    },
    {
      "midi": 77,
      "hit": false,
      "t": 12753.60533333333,
      "d": 579.7093333333341,
      "v": 120
    },
    {
      "midi": 36,
      "hit": false,
      "t": 13043.459999999985,
      "d": 282.6082999999999,
      "v": 125
    },
    {
      "midi": 64,
      "hit": false,
      "t": 13043.459999999985,
      "d": 282.6082999999999,
      "v": 125
    },
    {
      "midi": 67,
      "hit": false,
      "t": 13043.459999999985,
      "d": 282.6082999999999,
      "v": 125
    },
    {
      "midi": 72,
      "hit": false,
      "t": 13043.459999999985,
      "d": 282.6082999999999,
      "v": 125
    },
    {
      "midi": 36,
      "hit": false,
      "t": 13333.31466666665,
      "d": 282.6082999999999,
      "v": 125
    },
    {
      "midi": 64,
      "hit": false,
      "t": 13333.31466666665,
      "d": 282.6082999999999,
      "v": 125
    },
    {
      "midi": 67,
      "hit": false,
      "t": 13333.31466666665,
      "d": 282.6082999999999,
      "v": 125
    },
    {
      "midi": 72,
      "hit": false,
      "t": 13333.31466666665,
      "d": 282.6082999999999,
      "v": 125
    },
    {
      "midi": 70,
      "hit": false,
      "t": 13333.314666666663,
      "d": 579.7093333333341,
      "v": 120
    },
    {
      "midi": 36,
      "hit": false,
      "t": 13623.169333333317,
      "d": 282.6082999999999,
      "v": 125
    },
    {
      "midi": 64,
      "hit": false,
      "t": 13623.169333333317,
      "d": 282.6082999999999,
      "v": 125
    },
    {
      "midi": 67,
      "hit": false,
      "t": 13623.169333333317,
      "d": 282.6082999999999,
      "v": 125
    },
    {
      "midi": 72,
      "hit": false,
      "t": 13623.169333333317,
      "d": 282.6082999999999,
      "v": 125
    },
    {
      "midi": 41,
      "hit": false,
      "t": 13913.023999999983,
      "d": 282.6082999999999,
      "v": 125
    },
    {
      "midi": 65,
      "hit": false,
      "t": 13913.023999999983,
      "d": 282.6082999999999,
      "v": 125
    },
    {
      "midi": 69,
      "hit": false,
      "t": 13913.023999999983,
      "d": 282.6082999999999,
      "v": 125
    },
    {
      "midi": 72,
      "hit": false,
      "t": 13913.023999999983,
      "d": 282.6082999999999,
      "v": 125
    },
    {
      "midi": 72,
      "hit": false,
      "t": 13913.023999999998,
      "d": 869.5640000000003,
      "v": 120
    },
    {
      "midi": 77,
      "hit": false,
      "t": 13913.023999999998,
      "d": 869.5640000000003,
      "v": 120
    },
    {
      "midi": 41,
      "hit": false,
      "t": 14202.87866666665,
      "d": 282.6082999999999,
      "v": 125
    },
    {
      "midi": 65,
      "hit": false,
      "t": 14202.87866666665,
      "d": 282.6082999999999,
      "v": 125
    },
    {
      "midi": 69,
      "hit": false,
      "t": 14202.87866666665,
      "d": 282.6082999999999,
      "v": 125
    },
    {
      "midi": 72,
      "hit": false,
      "t": 14202.87866666665,
      "d": 282.6082999999999,
      "v": 125
    },
    {
      "midi": 41,
      "hit": false,
      "t": 14492.733333333315,
      "d": 282.6082999999999,
      "v": 125
    },
    {
      "midi": 65,
      "hit": false,
      "t": 14492.733333333315,
      "d": 282.6082999999999,
      "v": 125
    },
    {
      "midi": 69,
      "hit": false,
      "t": 14492.733333333315,
      "d": 282.6082999999999,
      "v": 125
    },
    {
      "midi": 72,
      "hit": false,
      "t": 14492.733333333315,
      "d": 282.6082999999999,
      "v": 125
    },
    {
      "midi": 41,
      "hit": false,
      "t": 14782.587999999982,
      "d": 282.6082999999999,
      "v": 125
    },
    {
      "midi": 65,
      "hit": false,
      "t": 14782.587999999982,
      "d": 282.6082999999999,
      "v": 125
    },
    {
      "midi": 69,
      "hit": false,
      "t": 14782.587999999982,
      "d": 282.6082999999999,
      "v": 125
    },
    {
      "midi": 72,
      "hit": false,
      "t": 14782.587999999982,
      "d": 282.6082999999999,
      "v": 125
    },
    {
      "midi": 69,
      "hit": false,
      "t": 14782.587999999998,
      "d": 210.14463333333333,
      "v": 120
    },
    {
      "midi": 77,
      "hit": false,
      "t": 14782.587999999998,
      "d": 210.14463333333333,
      "v": 120
    },
    {
      "midi": 72,
      "hit": false,
      "t": 14999.978999999998,
      "d": 210.14463333333333,
      "v": 120
    },
    {
      "midi": 77,
      "hit": false,
      "t": 14999.978999999998,
      "d": 210.14463333333333,
      "v": 120
    },
    {
      "midi": 41,
      "hit": false,
      "t": 15072.442666666648,
      "d": 282.6082999999999,
      "v": 125
    },
    {
      "midi": 65,
      "hit": false,
      "t": 15072.442666666648,
      "d": 282.6082999999999,
      "v": 125
    },
    {
      "midi": 69,
      "hit": false,
      "t": 15072.442666666648,
      "d": 282.6082999999999,
      "v": 125
    },
    {
      "midi": 72,
      "hit": false,
      "t": 15072.442666666648,
      "d": 282.6082999999999,
      "v": 125
    },
    {
      "midi": 72,
      "hit": false,
      "t": 15217.369999999997,
      "d": 210.14463333333333,
      "v": 120
    },
    {
      "midi": 69,
      "hit": false,
      "t": 15217.369999999997,
      "d": 217.39099999999962,
      "v": 120
    },
    {
      "midi": 41,
      "hit": false,
      "t": 15362.297333333314,
      "d": 282.6082999999999,
      "v": 125
    },
    {
      "midi": 65,
      "hit": false,
      "t": 15362.297333333314,
      "d": 282.6082999999999,
      "v": 125
    },
    {
      "midi": 69,
      "hit": false,
      "t": 15362.297333333314,
      "d": 282.6082999999999,
      "v": 125
    },
    {
      "midi": 72,
      "hit": false,
      "t": 15362.297333333314,
      "d": 282.6082999999999,
      "v": 125
    },
    {
      "midi": 65,
      "hit": false,
      "t": 15434.760999999997,
      "d": 210.14463333333333,
      "v": 120
    },
    {
      "midi": 72,
      "hit": false,
      "t": 15434.760999999997,
      "d": 210.14463333333333,
      "v": 120
    },
    {
      "midi": 38,
      "hit": false,
      "t": 15652.15199999998,
      "d": 282.6082999999999,
      "v": 125
    },
    {
      "midi": 65,
      "hit": false,
      "t": 15652.15199999998,
      "d": 282.6082999999999,
      "v": 125
    },
    {
      "midi": 69,
      "hit": false,
      "t": 15652.15199999998,
      "d": 282.6082999999999,
      "v": 125
    },
    {
      "midi": 74,
      "hit": false,
      "t": 15652.15199999998,
      "d": 282.6082999999999,
      "v": 125
    },
    {
      "midi": 62,
      "hit": false,
      "t": 15652.151999999996,
      "d": 652.1730000000007,
      "v": 120
    },
    {
      "midi": 65,
      "hit": false,
      "t": 15652.151999999996,
      "d": 652.1730000000007,
      "v": 120
    },
    {
      "midi": 38,
      "hit": false,
      "t": 15942.006666666646,
      "d": 282.6082999999999,
      "v": 125
    },
    {
      "midi": 65,
      "hit": false,
      "t": 15942.006666666646,
      "d": 282.6082999999999,
      "v": 125
    },
    {
      "midi": 69,
      "hit": false,
      "t": 15942.006666666646,
      "d": 282.6082999999999,
      "v": 125
    },
    {
      "midi": 74,
      "hit": false,
      "t": 15942.006666666646,
      "d": 282.6082999999999,
      "v": 125
    },
    {
      "midi": 38,
      "hit": false,
      "t": 16231.861333333312,
      "d": 282.6082999999999,
      "v": 125
    },
    {
      "midi": 65,
      "hit": false,
      "t": 16231.861333333312,
      "d": 282.6082999999999,
      "v": 125
    },
    {
      "midi": 69,
      "hit": false,
      "t": 16231.861333333312,
      "d": 282.6082999999999,
      "v": 125
    },
    {
      "midi": 74,
      "hit": false,
      "t": 16231.861333333312,
      "d": 282.6082999999999,
      "v": 125
    },
    {
      "midi": 38,
      "hit": false,
      "t": 16521.71599999998,
      "d": 282.6082999999999,
      "v": 125
    },
    {
      "midi": 65,
      "hit": false,
      "t": 16521.71599999998,
      "d": 282.6082999999999,
      "v": 125
    },
    {
      "midi": 69,
      "hit": false,
      "t": 16521.71599999998,
      "d": 282.6082999999999,
      "v": 125
    },
    {
      "midi": 74,
      "hit": false,
      "t": 16521.71599999998,
      "d": 282.6082999999999,
      "v": 125
    },
    {
      "midi": 38,
      "hit": false,
      "t": 16811.570666666645,
      "d": 282.6082999999999,
      "v": 125
    },
    {
      "midi": 65,
      "hit": false,
      "t": 16811.570666666645,
      "d": 282.6082999999999,
      "v": 125
    },
    {
      "midi": 69,
      "hit": false,
      "t": 16811.570666666645,
      "d": 282.6082999999999,
      "v": 125
    },
    {
      "midi": 74,
      "hit": false,
      "t": 16811.570666666645,
      "d": 282.6082999999999,
      "v": 125
    },
    {
      "midi": 38,
      "hit": false,
      "t": 17101.42533333331,
      "d": 282.6082999999999,
      "v": 125
    },
    {
      "midi": 65,
      "hit": false,
      "t": 17101.42533333331,
      "d": 282.6082999999999,
      "v": 125
    },
    {
      "midi": 69,
      "hit": false,
      "t": 17101.42533333331,
      "d": 282.6082999999999,
      "v": 125
    },
    {
      "midi": 74,
      "hit": false,
      "t": 17101.42533333331,
      "d": 282.6082999999999,
      "v": 125
    },
    {
      "midi": 34,
      "hit": false,
      "t": 17391.279999999977,
      "d": 282.6082999999999,
      "v": 125
    },
    {
      "midi": 65,
      "hit": false,
      "t": 17391.279999999977,
      "d": 282.6082999999999,
      "v": 125
    },
    {
      "midi": 70,
      "hit": false,
      "t": 17391.279999999977,
      "d": 282.6082999999999,
      "v": 125
    },
    {
      "midi": 73,
      "hit": false,
      "t": 17391.279999999977,
      "d": 282.6082999999999,
      "v": 125
    },
    {
      "midi": 34,
      "hit": false,
      "t": 17681.134666666643,
      "d": 282.6082999999999,
      "v": 125
    },
    {
      "midi": 65,
      "hit": false,
      "t": 17681.134666666643,
      "d": 282.6082999999999,
      "v": 125
    },
    {
      "midi": 70,
      "hit": false,
      "t": 17681.134666666643,
      "d": 282.6082999999999,
      "v": 125
    },
    {
      "midi": 73,
      "hit": false,
      "t": 17681.134666666643,
      "d": 282.6082999999999,
      "v": 125
    },
    {
      "midi": 34,
      "hit": false,
      "t": 17970.98933333331,
      "d": 282.6082999999999,
      "v": 125
    },
    {
      "midi": 65,
      "hit": false,
      "t": 17970.98933333331,
      "d": 282.6082999999999,
      "v": 125
    },
    {
      "midi": 70,
      "hit": false,
      "t": 17970.98933333331,
      "d": 282.6082999999999,
      "v": 125
    },
    {
      "midi": 73,
      "hit": false,
      "t": 17970.98933333331,
      "d": 282.6082999999999,
      "v": 125
    },
    {
      "midi": 34,
      "hit": false,
      "t": 18260.843999999975,
      "d": 282.6082999999999,
      "v": 125
    },
    {
      "midi": 65,
      "hit": false,
      "t": 18260.843999999975,
      "d": 282.6082999999999,
      "v": 125
    },
    {
      "midi": 70,
      "hit": false,
      "t": 18260.843999999975,
      "d": 282.6082999999999,
      "v": 125
    },
    {
      "midi": 73,
      "hit": false,
      "t": 18260.843999999975,
      "d": 282.6082999999999,
      "v": 125
    },
    {
      "midi": 34,
      "hit": false,
      "t": 18550.69866666664,
      "d": 282.6082999999999,
      "v": 125
    },
    {
      "midi": 65,
      "hit": false,
      "t": 18550.69866666664,
      "d": 282.6082999999999,
      "v": 125
    },
    {
      "midi": 70,
      "hit": false,
      "t": 18550.69866666664,
      "d": 282.6082999999999,
      "v": 125
    },
    {
      "midi": 73,
      "hit": false,
      "t": 18550.69866666664,
      "d": 282.6082999999999,
      "v": 125
    },
    {
      "midi": 65,
      "hit": false,
      "t": 18550.698666666663,
      "d": 282.6082999999999,
      "v": 120
    },
    {
      "midi": 70,
      "hit": false,
      "t": 18550.698666666663,
      "d": 282.6082999999999,
      "v": 120
    },
    {
      "midi": 34,
      "hit": false,
      "t": 18840.553333333308,
      "d": 282.6082999999999,
      "v": 125
    },
    {
      "midi": 65,
      "hit": false,
      "t": 18840.553333333308,
      "d": 282.6082999999999,
      "v": 125
    },
    {
      "midi": 70,
      "hit": false,
      "t": 18840.553333333308,
      "d": 282.6082999999999,
      "v": 125
    },
    {
      "midi": 73,
      "hit": false,
      "t": 18840.553333333308,
      "d": 282.6082999999999,
      "v": 125
    },
    {
      "midi": 65,
      "hit": false,
      "t": 18840.55333333333,
      "d": 282.6082999999999,
      "v": 120
    },
    {
      "midi": 70,
      "hit": false,
      "t": 18840.55333333333,
      "d": 282.6082999999999,
      "v": 120
    },
    {
      "midi": 36,
      "hit": false,
      "t": 19130.407999999974,
      "d": 282.6082999999999,
      "v": 125
    },
    {
      "midi": 64,
      "hit": false,
      "t": 19130.407999999974,
      "d": 282.6082999999999,
      "v": 125
    },
    {
      "midi": 67,
      "hit": false,
      "t": 19130.407999999974,
      "d": 282.6082999999999,
      "v": 125
    },
    {
      "midi": 72,
      "hit": false,
      "t": 19130.407999999974,
      "d": 282.6082999999999,
      "v": 125
    },
    {
      "midi": 67,
      "hit": false,
      "t": 19130.407999999996,
      "d": 572.4629666666697,
      "v": 120
    },
    {
      "midi": 72,
      "hit": false,
      "t": 19130.407999999996,
      "d": 572.4629666666697,
      "v": 120
    },
    {
      "midi": 69,
      "hit": false,
      "t": 19311.567166666664,
      "d": 398.5501666666678,
      "v": 120
    },
    {
      "midi": 36,
      "hit": false,
      "t": 19420.26266666664,
      "d": 282.6082999999999,
      "v": 125
    },
    {
      "midi": 64,
      "hit": false,
      "t": 19420.26266666664,
      "d": 282.6082999999999,
      "v": 125
    },
    {
      "midi": 67,
      "hit": false,
      "t": 19420.26266666664,
      "d": 282.6082999999999,
      "v": 125
    },
    {
      "midi": 72,
      "hit": false,
      "t": 19420.26266666664,
      "d": 282.6082999999999,
      "v": 125
    },
    {
      "midi": 36,
      "hit": false,
      "t": 19710.117333333306,
      "d": 282.6082999999999,
      "v": 125
    },
    {
      "midi": 64,
      "hit": false,
      "t": 19710.117333333306,
      "d": 282.6082999999999,
      "v": 125
    },
    {
      "midi": 67,
      "hit": false,
      "t": 19710.117333333306,
      "d": 282.6082999999999,
      "v": 125
    },
    {
      "midi": 72,
      "hit": false,
      "t": 19710.117333333306,
      "d": 282.6082999999999,
      "v": 125
    },
    {
      "midi": 67,
      "hit": false,
      "t": 19710.11733333333,
      "d": 572.4629666666697,
      "v": 120
    },
    {
      "midi": 72,
      "hit": false,
      "t": 19710.11733333333,
      "d": 572.4629666666697,
      "v": 120
    },
    {
      "midi": 69,
      "hit": false,
      "t": 19891.2765,
      "d": 391.3038000000015,
      "v": 120
    },
    {
      "midi": 36,
      "hit": false,
      "t": 19999.971999999972,
      "d": 282.6082999999999,
      "v": 125
    },
    {
      "midi": 64,
      "hit": false,
      "t": 19999.971999999972,
      "d": 282.6082999999999,
      "v": 125
    },
    {
      "midi": 67,
      "hit": false,
      "t": 19999.971999999972,
      "d": 282.6082999999999,
      "v": 125
    },
    {
      "midi": 72,
      "hit": false,
      "t": 19999.971999999972,
      "d": 282.6082999999999,
      "v": 125
    },
    {
      "midi": 36,
      "hit": false,
      "t": 20289.82666666664,
      "d": 282.6082999999999,
      "v": 125
    },
    {
      "midi": 64,
      "hit": false,
      "t": 20289.82666666664,
      "d": 282.6082999999999,
      "v": 125
    },
    {
      "midi": 67,
      "hit": false,
      "t": 20289.82666666664,
      "d": 282.6082999999999,
      "v": 125
    },
    {
      "midi": 72,
      "hit": false,
      "t": 20289.82666666664,
      "d": 282.6082999999999,
      "v": 125
    },
    {
      "midi": 68,
      "hit": false,
      "t": 20289.826666666668,
      "d": 572.462966666666,
      "v": 120
    },
    {
      "midi": 72,
      "hit": false,
      "t": 20289.826666666668,
      "d": 572.462966666666,
      "v": 120
    },
    {
      "midi": 36,
      "hit": false,
      "t": 20579.681333333305,
      "d": 282.6082999999999,
      "v": 125
    },
    {
      "midi": 64,
      "hit": false,
      "t": 20579.681333333305,
      "d": 282.6082999999999,
      "v": 125
    },
    {
      "midi": 67,
      "hit": false,
      "t": 20579.681333333305,
      "d": 282.6082999999999,
      "v": 125
    },
    {
      "midi": 72,
      "hit": false,
      "t": 20579.681333333305,
      "d": 282.6082999999999,
      "v": 125
    },
    {
      "midi": 41,
      "hit": false,
      "t": 20869.53599999997,
      "d": 282.6082999999999,
      "v": 125
    },
    {
      "midi": 65,
      "hit": false,
      "t": 20869.53599999997,
      "d": 282.6082999999999,
      "v": 125
    },
    {
      "midi": 69,
      "hit": false,
      "t": 20869.53599999997,
      "d": 282.6082999999999,
      "v": 125
    },
    {
      "midi": 72,
      "hit": false,
      "t": 20869.53599999997,
      "d": 282.6082999999999,
      "v": 125
    },
    {
      "midi": 67,
      "hit": false,
      "t": 20869.536,
      "d": 181.15916666666817,
      "v": 120
    },
    {
      "midi": 72,
      "hit": false,
      "t": 20869.536,
      "d": 3478.256000000005,
      "v": 120
    },
    {
      "midi": 69,
      "hit": false,
      "t": 21050.69516666667,
      "d": 3188.401333333335,
      "v": 120
    },
    {
      "midi": 41,
      "hit": false,
      "t": 21159.390666666637,
      "d": 282.6082999999999,
      "v": 125
    },
    {
      "midi": 65,
      "hit": false,
      "t": 21159.390666666637,
      "d": 282.6082999999999,
      "v": 125
    },
    {
      "midi": 69,
      "hit": false,
      "t": 21159.390666666637,
      "d": 282.6082999999999,
      "v": 125
    },
    {
      "midi": 72,
      "hit": false,
      "t": 21159.390666666637,
      "d": 282.6082999999999,
      "v": 125
    },
    {
      "midi": 41,
      "hit": false,
      "t": 21449.245333333303,
      "d": 282.6082999999999,
      "v": 125
    },
    {
      "midi": 65,
      "hit": false,
      "t": 21449.245333333303,
      "d": 282.6082999999999,
      "v": 125
    },
    {
      "midi": 69,
      "hit": false,
      "t": 21449.245333333303,
      "d": 282.6082999999999,
      "v": 125
    },
    {
      "midi": 72,
      "hit": false,
      "t": 21449.245333333303,
      "d": 282.6082999999999,
      "v": 125
    },
    {
      "midi": 41,
      "hit": false,
      "t": 21739.09999999997,
      "d": 282.6082999999999,
      "v": 125
    },
    {
      "midi": 65,
      "hit": false,
      "t": 21739.09999999997,
      "d": 282.6082999999999,
      "v": 125
    },
    {
      "midi": 69,
      "hit": false,
      "t": 21739.09999999997,
      "d": 282.6082999999999,
      "v": 125
    },
    {
      "midi": 72,
      "hit": false,
      "t": 21739.09999999997,
      "d": 282.6082999999999,
      "v": 125
    },
    {
      "midi": 41,
      "hit": false,
      "t": 22028.954666666636,
      "d": 282.6082999999999,
      "v": 125
    },
    {
      "midi": 65,
      "hit": false,
      "t": 22028.954666666636,
      "d": 282.6082999999999,
      "v": 125
    },
    {
      "midi": 69,
      "hit": false,
      "t": 22028.954666666636,
      "d": 282.6082999999999,
      "v": 125
    },
    {
      "midi": 72,
      "hit": false,
      "t": 22028.954666666636,
      "d": 282.6082999999999,
      "v": 125
    },
    {
      "midi": 41,
      "hit": false,
      "t": 22318.8093333333,
      "d": 282.6082999999999,
      "v": 125
    },
    {
      "midi": 65,
      "hit": false,
      "t": 22318.8093333333,
      "d": 282.6082999999999,
      "v": 125
    },
    {
      "midi": 69,
      "hit": false,
      "t": 22318.8093333333,
      "d": 282.6082999999999,
      "v": 125
    },
    {
      "midi": 72,
      "hit": false,
      "t": 22318.8093333333,
      "d": 282.6082999999999,
      "v": 125
    },
    {
      "midi": 38,
      "hit": false,
      "t": 22608.663999999968,
      "d": 282.6082999999999,
      "v": 125
    },
    {
      "midi": 65,
      "hit": false,
      "t": 22608.663999999968,
      "d": 282.6082999999999,
      "v": 125
    },
    {
      "midi": 69,
      "hit": false,
      "t": 22608.663999999968,
      "d": 282.6082999999999,
      "v": 125
    },
    {
      "midi": 74,
      "hit": false,
      "t": 22608.663999999968,
      "d": 282.6082999999999,
      "v": 125
    },
    {
      "midi": 38,
      "hit": false,
      "t": 22898.518666666634,
      "d": 282.6082999999999,
      "v": 125
    },
    {
      "midi": 65,
      "hit": false,
      "t": 22898.518666666634,
      "d": 282.6082999999999,
      "v": 125
    },
    {
      "midi": 69,
      "hit": false,
      "t": 22898.518666666634,
      "d": 282.6082999999999,
      "v": 125
    },
    {
      "midi": 74,
      "hit": false,
      "t": 22898.518666666634,
      "d": 282.6082999999999,
      "v": 125
    },
    {
      "midi": 38,
      "hit": false,
      "t": 23188.3733333333,
      "d": 282.6082999999999,
      "v": 125
    },
    {
      "midi": 65,
      "hit": false,
      "t": 23188.3733333333,
      "d": 282.6082999999999,
      "v": 125
    },
    {
      "midi": 69,
      "hit": false,
      "t": 23188.3733333333,
      "d": 282.6082999999999,
      "v": 125
    },
    {
      "midi": 74,
      "hit": false,
      "t": 23188.3733333333,
      "d": 282.6082999999999,
      "v": 125
    },
    {
      "midi": 38,
      "hit": false,
      "t": 23478.227999999966,
      "d": 282.6082999999999,
      "v": 125
    },
    {
      "midi": 65,
      "hit": false,
      "t": 23478.227999999966,
      "d": 282.6082999999999,
      "v": 125
    },
    {
      "midi": 69,
      "hit": false,
      "t": 23478.227999999966,
      "d": 282.6082999999999,
      "v": 125
    },
    {
      "midi": 74,
      "hit": false,
      "t": 23478.227999999966,
      "d": 282.6082999999999,
      "v": 125
    },
    {
      "midi": 38,
      "hit": false,
      "t": 23768.082666666633,
      "d": 282.6082999999999,
      "v": 125
    },
    {
      "midi": 65,
      "hit": false,
      "t": 23768.082666666633,
      "d": 282.6082999999999,
      "v": 125
    },
    {
      "midi": 69,
      "hit": false,
      "t": 23768.082666666633,
      "d": 282.6082999999999,
      "v": 125
    },
    {
      "midi": 74,
      "hit": false,
      "t": 23768.082666666633,
      "d": 282.6082999999999,
      "v": 125
    },
    {
      "midi": 38,
      "hit": false,
      "t": 24057.9373333333,
      "d": 282.6082999999999,
      "v": 125
    },
    {
      "midi": 65,
      "hit": false,
      "t": 24057.9373333333,
      "d": 282.6082999999999,
      "v": 125
    },
    {
      "midi": 69,
      "hit": false,
      "t": 24057.9373333333,
      "d": 282.6082999999999,
      "v": 125
    },
    {
      "midi": 74,
      "hit": false,
      "t": 24057.9373333333,
      "d": 282.6082999999999,
      "v": 125
    },
    {
      "midi": 34,
      "hit": false,
      "t": 24347.791999999965,
      "d": 282.6082999999999,
      "v": 125
    },
    {
      "midi": 65,
      "hit": false,
      "t": 24347.791999999965,
      "d": 282.6082999999999,
      "v": 125
    },
    {
      "midi": 70,
      "hit": false,
      "t": 24347.791999999965,
      "d": 282.6082999999999,
      "v": 125
    },
    {
      "midi": 73,
      "hit": false,
      "t": 24347.791999999965,
      "d": 282.6082999999999,
      "v": 125
    },
    {
      "midi": 34,
      "hit": false,
      "t": 24637.64666666663,
      "d": 282.6082999999999,
      "v": 125
    },
    {
      "midi": 65,
      "hit": false,
      "t": 24637.64666666663,
      "d": 282.6082999999999,
      "v": 125
    },
    {
      "midi": 70,
      "hit": false,
      "t": 24637.64666666663,
      "d": 282.6082999999999,
      "v": 125
    },
    {
      "midi": 73,
      "hit": false,
      "t": 24637.64666666663,
      "d": 282.6082999999999,
      "v": 125
    },
    {
      "midi": 34,
      "hit": false,
      "t": 24927.501333333297,
      "d": 282.6082999999999,
      "v": 125
    },
    {
      "midi": 65,
      "hit": false,
      "t": 24927.501333333297,
      "d": 282.6082999999999,
      "v": 125
    },
    {
      "midi": 70,
      "hit": false,
      "t": 24927.501333333297,
      "d": 282.6082999999999,
      "v": 125
    },
    {
      "midi": 73,
      "hit": false,
      "t": 24927.501333333297,
      "d": 282.6082999999999,
      "v": 125
    },
    {
      "midi": 34,
      "hit": false,
      "t": 25217.355999999963,
      "d": 282.6082999999999,
      "v": 125
    },
    {
      "midi": 65,
      "hit": false,
      "t": 25217.355999999963,
      "d": 282.6082999999999,
      "v": 125
    },
    {
      "midi": 70,
      "hit": false,
      "t": 25217.355999999963,
      "d": 282.6082999999999,
      "v": 125
    },
    {
      "midi": 73,
      "hit": false,
      "t": 25217.355999999963,
      "d": 282.6082999999999,
      "v": 125
    },
    {
      "midi": 34,
      "hit": false,
      "t": 25507.21066666663,
      "d": 282.6082999999999,
      "v": 125
    },
    {
      "midi": 65,
      "hit": false,
      "t": 25507.21066666663,
      "d": 282.6082999999999,
      "v": 125
    },
    {
      "midi": 70,
      "hit": false,
      "t": 25507.21066666663,
      "d": 282.6082999999999,
      "v": 125
    },
    {
      "midi": 73,
      "hit": false,
      "t": 25507.21066666663,
      "d": 282.6082999999999,
      "v": 125
    },
    {
      "midi": 34,
      "hit": false,
      "t": 25797.065333333296,
      "d": 282.6082999999999,
      "v": 125
    },
    {
      "midi": 65,
      "hit": false,
      "t": 25797.065333333296,
      "d": 282.6082999999999,
      "v": 125
    },
    {
      "midi": 70,
      "hit": false,
      "t": 25797.065333333296,
      "d": 282.6082999999999,
      "v": 125
    },
    {
      "midi": 73,
      "hit": false,
      "t": 25797.065333333296,
      "d": 282.6082999999999,
      "v": 125
    },
    {
      "midi": 36,
      "hit": false,
      "t": 26086.919999999962,
      "d": 282.6082999999999,
      "v": 125
    },
    {
      "midi": 64,
      "hit": false,
      "t": 26086.919999999962,
      "d": 282.6082999999999,
      "v": 125
    },
    {
      "midi": 67,
      "hit": false,
      "t": 26086.919999999962,
      "d": 282.6082999999999,
      "v": 125
    },
    {
      "midi": 72,
      "hit": false,
      "t": 26086.919999999962,
      "d": 282.6082999999999,
      "v": 125
    },
    {
      "midi": 36,
      "hit": false,
      "t": 26376.774666666628,
      "d": 282.6082999999999,
      "v": 125
    },
    {
      "midi": 64,
      "hit": false,
      "t": 26376.774666666628,
      "d": 282.6082999999999,
      "v": 125
    },
    {
      "midi": 67,
      "hit": false,
      "t": 26376.774666666628,
      "d": 282.6082999999999,
      "v": 125
    },
    {
      "midi": 72,
      "hit": false,
      "t": 26376.774666666628,
      "d": 282.6082999999999,
      "v": 125
    },
    {
      "midi": 36,
      "hit": false,
      "t": 26666.629333333294,
      "d": 282.6082999999999,
      "v": 125
    },
    {
      "midi": 64,
      "hit": false,
      "t": 26666.629333333294,
      "d": 282.6082999999999,
      "v": 125
    },
    {
      "midi": 67,
      "hit": false,
      "t": 26666.629333333294,
      "d": 282.6082999999999,
      "v": 125
    },
    {
      "midi": 72,
      "hit": false,
      "t": 26666.629333333294,
      "d": 282.6082999999999,
      "v": 125
    },
    {
      "midi": 36,
      "hit": false,
      "t": 26956.48399999996,
      "d": 282.6082999999999,
      "v": 125
    },
    {
      "midi": 64,
      "hit": false,
      "t": 26956.48399999996,
      "d": 282.6082999999999,
      "v": 125
    },
    {
      "midi": 67,
      "hit": false,
      "t": 26956.48399999996,
      "d": 282.6082999999999,
      "v": 125
    },
    {
      "midi": 72,
      "hit": false,
      "t": 26956.48399999996,
      "d": 282.6082999999999,
      "v": 125
    },
    {
      "midi": 36,
      "hit": false,
      "t": 27246.338666666627,
      "d": 282.6082999999999,
      "v": 125
    },
    {
      "midi": 64,
      "hit": false,
      "t": 27246.338666666627,
      "d": 282.6082999999999,
      "v": 125
    },
    {
      "midi": 67,
      "hit": false,
      "t": 27246.338666666627,
      "d": 282.6082999999999,
      "v": 125
    },
    {
      "midi": 72,
      "hit": false,
      "t": 27246.338666666627,
      "d": 282.6082999999999,
      "v": 125
    },
    {
      "midi": 36,
      "hit": false,
      "t": 27536.193333333293,
      "d": 282.6082999999999,
      "v": 125
    },
    {
      "midi": 64,
      "hit": false,
      "t": 27536.193333333293,
      "d": 282.6082999999999,
      "v": 125
    },
    {
      "midi": 67,
      "hit": false,
      "t": 27536.193333333293,
      "d": 282.6082999999999,
      "v": 125
    },
    {
      "midi": 72,
      "hit": false,
      "t": 27536.193333333293,
      "d": 282.6082999999999,
      "v": 125
    },
    {
      "midi": 41,
      "hit": false,
      "t": 27826.04799999996,
      "d": 282.6082999999999,
      "v": 125
    },
    {
      "midi": 65,
      "hit": false,
      "t": 27826.04799999996,
      "d": 282.6082999999999,
      "v": 125
    },
    {
      "midi": 69,
      "hit": false,
      "t": 27826.04799999996,
      "d": 282.6082999999999,
      "v": 125
    },
    {
      "midi": 72,
      "hit": false,
      "t": 27826.04799999996,
      "d": 282.6082999999999,
      "v": 125
    },
    {
      "midi": 76,
      "hit": false,
      "t": 27826.048000000006,
      "d": 181.15916666666817,
      "v": 121
    },
    {
      "midi": 81,
      "hit": false,
      "t": 27826.048000000006,
      "d": 1449.273333333338,
      "v": 121
    },
    {
      "midi": 77,
      "hit": false,
      "t": 28007.207166666674,
      "d": 1159.4186666666683,
      "v": 121
    },
    {
      "midi": 41,
      "hit": false,
      "t": 28115.902666666625,
      "d": 282.6082999999999,
      "v": 125
    },
    {
      "midi": 65,
      "hit": false,
      "t": 28115.902666666625,
      "d": 282.6082999999999,
      "v": 125
    },
    {
      "midi": 69,
      "hit": false,
      "t": 28115.902666666625,
      "d": 282.6082999999999,
      "v": 125
    },
    {
      "midi": 72,
      "hit": false,
      "t": 28115.902666666625,
      "d": 282.6082999999999,
      "v": 125
    },
    {
      "midi": 41,
      "hit": false,
      "t": 28405.75733333329,
      "d": 282.6082999999999,
      "v": 125
    },
    {
      "midi": 65,
      "hit": false,
      "t": 28405.75733333329,
      "d": 282.6082999999999,
      "v": 125
    },
    {
      "midi": 69,
      "hit": false,
      "t": 28405.75733333329,
      "d": 282.6082999999999,
      "v": 125
    },
    {
      "midi": 72,
      "hit": false,
      "t": 28405.75733333329,
      "d": 282.6082999999999,
      "v": 125
    },
    {
      "midi": 41,
      "hit": false,
      "t": 28695.611999999957,
      "d": 282.6082999999999,
      "v": 125
    },
    {
      "midi": 65,
      "hit": false,
      "t": 28695.611999999957,
      "d": 282.6082999999999,
      "v": 125
    },
    {
      "midi": 69,
      "hit": false,
      "t": 28695.611999999957,
      "d": 282.6082999999999,
      "v": 125
    },
    {
      "midi": 72,
      "hit": false,
      "t": 28695.611999999957,
      "d": 282.6082999999999,
      "v": 125
    },
    {
      "midi": 41,
      "hit": false,
      "t": 28985.466666666623,
      "d": 282.6082999999999,
      "v": 125
    },
    {
      "midi": 65,
      "hit": false,
      "t": 28985.466666666623,
      "d": 282.6082999999999,
      "v": 125
    },
    {
      "midi": 69,
      "hit": false,
      "t": 28985.466666666623,
      "d": 282.6082999999999,
      "v": 125
    },
    {
      "midi": 72,
      "hit": false,
      "t": 28985.466666666623,
      "d": 282.6082999999999,
      "v": 125
    },
    {
      "midi": 41,
      "hit": false,
      "t": 29275.32133333329,
      "d": 282.6082999999999,
      "v": 125
    },
    {
      "midi": 65,
      "hit": false,
      "t": 29275.32133333329,
      "d": 282.6082999999999,
      "v": 125
    },
    {
      "midi": 69,
      "hit": false,
      "t": 29275.32133333329,
      "d": 282.6082999999999,
      "v": 125
    },
    {
      "midi": 72,
      "hit": false,
      "t": 29275.32133333329,
      "d": 282.6082999999999,
      "v": 125
    },
    {
      "midi": 38,
      "hit": false,
      "t": 29565.175999999956,
      "d": 282.6082999999999,
      "v": 125
    },
    {
      "midi": 65,
      "hit": false,
      "t": 29565.175999999956,
      "d": 282.6082999999999,
      "v": 125
    },
    {
      "midi": 69,
      "hit": false,
      "t": 29565.175999999956,
      "d": 282.6082999999999,
      "v": 125
    },
    {
      "midi": 74,
      "hit": false,
      "t": 29565.175999999956,
      "d": 282.6082999999999,
      "v": 125
    },
    {
      "midi": 72,
      "hit": false,
      "t": 29565.17600000001,
      "d": 1449.2733333333308,
      "v": 121
    },
    {
      "midi": 77,
      "hit": false,
      "t": 29565.17600000001,
      "d": 1739.127999999997,
      "v": 121
    },
    {
      "midi": 38,
      "hit": false,
      "t": 29855.030666666622,
      "d": 282.6082999999999,
      "v": 125
    },
    {
      "midi": 65,
      "hit": false,
      "t": 29855.030666666622,
      "d": 282.6082999999999,
      "v": 125
    },
    {
      "midi": 69,
      "hit": false,
      "t": 29855.030666666622,
      "d": 282.6082999999999,
      "v": 125
    },
    {
      "midi": 74,
      "hit": false,
      "t": 29855.030666666622,
      "d": 282.6082999999999,
      "v": 125
    },
    {
      "midi": 38,
      "hit": false,
      "t": 30144.885333333288,
      "d": 282.6082999999999,
      "v": 125
    },
    {
      "midi": 65,
      "hit": false,
      "t": 30144.885333333288,
      "d": 282.6082999999999,
      "v": 125
    },
    {
      "midi": 69,
      "hit": false,
      "t": 30144.885333333288,
      "d": 282.6082999999999,
      "v": 125
    },
    {
      "midi": 74,
      "hit": false,
      "t": 30144.885333333288,
      "d": 282.6082999999999,
      "v": 125
    },
    {
      "midi": 38,
      "hit": false,
      "t": 30434.739999999954,
      "d": 282.6082999999999,
      "v": 125
    },
    {
      "midi": 65,
      "hit": false,
      "t": 30434.739999999954,
      "d": 282.6082999999999,
      "v": 125
    },
    {
      "midi": 69,
      "hit": false,
      "t": 30434.739999999954,
      "d": 282.6082999999999,
      "v": 125
    },
    {
      "midi": 74,
      "hit": false,
      "t": 30434.739999999954,
      "d": 282.6082999999999,
      "v": 125
    },
    {
      "midi": 38,
      "hit": false,
      "t": 30724.59466666662,
      "d": 282.6082999999999,
      "v": 125
    },
    {
      "midi": 65,
      "hit": false,
      "t": 30724.59466666662,
      "d": 282.6082999999999,
      "v": 125
    },
    {
      "midi": 69,
      "hit": false,
      "t": 30724.59466666662,
      "d": 282.6082999999999,
      "v": 125
    },
    {
      "midi": 74,
      "hit": false,
      "t": 30724.59466666662,
      "d": 282.6082999999999,
      "v": 125
    },
    {
      "midi": 38,
      "hit": false,
      "t": 31014.449333333287,
      "d": 282.6082999999999,
      "v": 125
    },
    {
      "midi": 65,
      "hit": false,
      "t": 31014.449333333287,
      "d": 282.6082999999999,
      "v": 125
    },
    {
      "midi": 69,
      "hit": false,
      "t": 31014.449333333287,
      "d": 282.6082999999999,
      "v": 125
    },
    {
      "midi": 74,
      "hit": false,
      "t": 31014.449333333287,
      "d": 282.6082999999999,
      "v": 125
    },
    {
      "midi": 34,
      "hit": false,
      "t": 31304.303999999953,
      "d": 282.6082999999999,
      "v": 125
    },
    {
      "midi": 65,
      "hit": false,
      "t": 31304.303999999953,
      "d": 282.6082999999999,
      "v": 125
    },
    {
      "midi": 70,
      "hit": false,
      "t": 31304.303999999953,
      "d": 282.6082999999999,
      "v": 125
    },
    {
      "midi": 73,
      "hit": false,
      "t": 31304.303999999953,
      "d": 282.6082999999999,
      "v": 125
    },
    {
      "midi": 34,
      "hit": false,
      "t": 31594.15866666662,
      "d": 282.6082999999999,
      "v": 125
    },
    {
      "midi": 65,
      "hit": false,
      "t": 31594.15866666662,
      "d": 282.6082999999999,
      "v": 125
    },
    {
      "midi": 70,
      "hit": false,
      "t": 31594.15866666662,
      "d": 282.6082999999999,
      "v": 125
    },
    {
      "midi": 73,
      "hit": false,
      "t": 31594.15866666662,
      "d": 282.6082999999999,
      "v": 125
    },
    {
      "midi": 34,
      "hit": false,
      "t": 31884.013333333285,
      "d": 282.6082999999999,
      "v": 125
    },
    {
      "midi": 65,
      "hit": false,
      "t": 31884.013333333285,
      "d": 282.6082999999999,
      "v": 125
    },
    {
      "midi": 70,
      "hit": false,
      "t": 31884.013333333285,
      "d": 282.6082999999999,
      "v": 125
    },
    {
      "midi": 73,
      "hit": false,
      "t": 31884.013333333285,
      "d": 282.6082999999999,
      "v": 125
    },
    {
      "midi": 34,
      "hit": false,
      "t": 32173.86799999995,
      "d": 282.6082999999999,
      "v": 125
    },
    {
      "midi": 65,
      "hit": false,
      "t": 32173.86799999995,
      "d": 282.6082999999999,
      "v": 125
    },
    {
      "midi": 70,
      "hit": false,
      "t": 32173.86799999995,
      "d": 282.6082999999999,
      "v": 125
    },
    {
      "midi": 73,
      "hit": false,
      "t": 32173.86799999995,
      "d": 282.6082999999999,
      "v": 125
    },
    {
      "midi": 34,
      "hit": false,
      "t": 32463.722666666617,
      "d": 282.6082999999999,
      "v": 125
    },
    {
      "midi": 65,
      "hit": false,
      "t": 32463.722666666617,
      "d": 282.6082999999999,
      "v": 125
    },
    {
      "midi": 70,
      "hit": false,
      "t": 32463.722666666617,
      "d": 282.6082999999999,
      "v": 125
    },
    {
      "midi": 73,
      "hit": false,
      "t": 32463.722666666617,
      "d": 282.6082999999999,
      "v": 125
    },
    {
      "midi": 70,
      "hit": false,
      "t": 32463.722666666676,
      "d": 282.6082999999999,
      "v": 121
    },
    {
      "midi": 34,
      "hit": false,
      "t": 32753.577333333284,
      "d": 282.6082999999999,
      "v": 125
    },
    {
      "midi": 65,
      "hit": false,
      "t": 32753.577333333284,
      "d": 282.6082999999999,
      "v": 125
    },
    {
      "midi": 70,
      "hit": false,
      "t": 32753.577333333284,
      "d": 282.6082999999999,
      "v": 125
    },
    {
      "midi": 73,
      "hit": false,
      "t": 32753.577333333284,
      "d": 282.6082999999999,
      "v": 125
    },
    {
      "midi": 72,
      "hit": false,
      "t": 32753.57733333334,
      "d": 282.6082999999999,
      "v": 121
    },
    {
      "midi": 77,
      "hit": false,
      "t": 32753.57733333334,
      "d": 282.6082999999999,
      "v": 121
    },
    {
      "midi": 36,
      "hit": false,
      "t": 33043.43199999995,
      "d": 282.6082999999999,
      "v": 125
    },
    {
      "midi": 64,
      "hit": false,
      "t": 33043.43199999995,
      "d": 282.6082999999999,
      "v": 125
    },
    {
      "midi": 67,
      "hit": false,
      "t": 33043.43199999995,
      "d": 282.6082999999999,
      "v": 125
    },
    {
      "midi": 72,
      "hit": false,
      "t": 33043.43199999995,
      "d": 282.6082999999999,
      "v": 125
    },
    {
      "midi": 72,
      "hit": false,
      "t": 33043.43200000001,
      "d": 181.15916666666453,
      "v": 121
    },
    {
      "midi": 77,
      "hit": false,
      "t": 33043.43200000001,
      "d": 579.7093333333323,
      "v": 121
    },
    {
      "midi": 73,
      "hit": false,
      "t": 33224.59116666667,
      "d": 282.6082999999999,
      "v": 121
    },
    {
      "midi": 36,
      "hit": false,
      "t": 33333.286666666616,
      "d": 282.6082999999999,
      "v": 125
    },
    {
      "midi": 64,
      "hit": false,
      "t": 33333.286666666616,
      "d": 282.6082999999999,
      "v": 125
    },
    {
      "midi": 67,
      "hit": false,
      "t": 33333.286666666616,
      "d": 282.6082999999999,
      "v": 125
    },
    {
      "midi": 72,
      "hit": false,
      "t": 33333.286666666616,
      "d": 282.6082999999999,
      "v": 125
    },
    {
      "midi": 36,
      "hit": false,
      "t": 33623.14133333328,
      "d": 282.6082999999999,
      "v": 125
    },
    {
      "midi": 64,
      "hit": false,
      "t": 33623.14133333328,
      "d": 282.6082999999999,
      "v": 125
    },
    {
      "midi": 67,
      "hit": false,
      "t": 33623.14133333328,
      "d": 282.6082999999999,
      "v": 125
    },
    {
      "midi": 72,
      "hit": false,
      "t": 33623.14133333328,
      "d": 282.6082999999999,
      "v": 125
    },
    {
      "midi": 72,
      "hit": false,
      "t": 33623.14133333334,
      "d": 579.7093333333323,
      "v": 121
    },
    {
      "midi": 77,
      "hit": false,
      "t": 33623.14133333334,
      "d": 579.7093333333323,
      "v": 121
    },
    {
      "midi": 36,
      "hit": false,
      "t": 33912.99599999995,
      "d": 282.6082999999999,
      "v": 125
    },
    {
      "midi": 64,
      "hit": false,
      "t": 33912.99599999995,
      "d": 282.6082999999999,
      "v": 125
    },
    {
      "midi": 67,
      "hit": false,
      "t": 33912.99599999995,
      "d": 282.6082999999999,
      "v": 125
    },
    {
      "midi": 72,
      "hit": false,
      "t": 33912.99599999995,
      "d": 282.6082999999999,
      "v": 125
    },
    {
      "midi": 36,
      "hit": false,
      "t": 34202.850666666614,
      "d": 282.6082999999999,
      "v": 125
    },
    {
      "midi": 64,
      "hit": false,
      "t": 34202.850666666614,
      "d": 282.6082999999999,
      "v": 125
    },
    {
      "midi": 67,
      "hit": false,
      "t": 34202.850666666614,
      "d": 282.6082999999999,
      "v": 125
    },
    {
      "midi": 72,
      "hit": false,
      "t": 34202.850666666614,
      "d": 282.6082999999999,
      "v": 125
    },
    {
      "midi": 70,
      "hit": false,
      "t": 34202.85066666667,
      "d": 579.7093333333323,
      "v": 121
    },
    {
      "midi": 36,
      "hit": false,
      "t": 34492.70533333328,
      "d": 282.6082999999999,
      "v": 125
    },
    {
      "midi": 38,
      "hit": false,
      "t": 34492.70533333328,
      "d": 282.6082999999999,
      "v": 125
    },
    {
      "midi": 64,
      "hit": false,
      "t": 34492.70533333328,
      "d": 282.6082999999999,
      "v": 125
    },
    {
      "midi": 67,
      "hit": false,
      "t": 34492.70533333328,
      "d": 282.6082999999999,
      "v": 125
    },
    {
      "midi": 72,
      "hit": false,
      "t": 34492.70533333328,
      "d": 282.6082999999999,
      "v": 125
    },
    {
      "midi": 41,
      "hit": false,
      "t": 34782.55999999995,
      "d": 282.6082999999999,
      "v": 125
    },
    {
      "midi": 65,
      "hit": false,
      "t": 34782.55999999995,
      "d": 282.6082999999999,
      "v": 125
    },
    {
      "midi": 69,
      "hit": false,
      "t": 34782.55999999995,
      "d": 282.6082999999999,
      "v": 125
    },
    {
      "midi": 72,
      "hit": false,
      "t": 34782.55999999995,
      "d": 282.6082999999999,
      "v": 125
    },
    {
      "midi": 76,
      "hit": false,
      "t": 34782.560000000005,
      "d": 181.15916666666453,
      "v": 121
    },
    {
      "midi": 81,
      "hit": false,
      "t": 34782.560000000005,
      "d": 1449.2733333333308,
      "v": 121
    },
    {
      "midi": 77,
      "hit": false,
      "t": 34963.71916666667,
      "d": 1159.4186666666646,
      "v": 121
    },
    {
      "midi": 41,
      "hit": false,
      "t": 35072.41466666661,
      "d": 282.6082999999999,
      "v": 125
    },
    {
      "midi": 65,
      "hit": false,
      "t": 35072.41466666661,
      "d": 282.6082999999999,
      "v": 125
    },
    {
      "midi": 69,
      "hit": false,
      "t": 35072.41466666661,
      "d": 282.6082999999999,
      "v": 125
    },
    {
      "midi": 72,
      "hit": false,
      "t": 35072.41466666661,
      "d": 282.6082999999999,
      "v": 125
    },
    {
      "midi": 41,
      "hit": false,
      "t": 35362.26933333328,
      "d": 282.6082999999999,
      "v": 125
    },
    {
      "midi": 65,
      "hit": false,
      "t": 35362.26933333328,
      "d": 282.6082999999999,
      "v": 125
    },
    {
      "midi": 69,
      "hit": false,
      "t": 35362.26933333328,
      "d": 282.6082999999999,
      "v": 125
    },
    {
      "midi": 72,
      "hit": false,
      "t": 35362.26933333328,
      "d": 282.6082999999999,
      "v": 125
    },
    {
      "midi": 41,
      "hit": false,
      "t": 35652.123999999945,
      "d": 282.6082999999999,
      "v": 125
    },
    {
      "midi": 65,
      "hit": false,
      "t": 35652.123999999945,
      "d": 282.6082999999999,
      "v": 125
    },
    {
      "midi": 69,
      "hit": false,
      "t": 35652.123999999945,
      "d": 282.6082999999999,
      "v": 125
    },
    {
      "midi": 72,
      "hit": false,
      "t": 35652.123999999945,
      "d": 282.6082999999999,
      "v": 125
    },
    {
      "midi": 41,
      "hit": false,
      "t": 35941.97866666661,
      "d": 282.6082999999999,
      "v": 125
    },
    {
      "midi": 65,
      "hit": false,
      "t": 35941.97866666661,
      "d": 282.6082999999999,
      "v": 125
    },
    {
      "midi": 69,
      "hit": false,
      "t": 35941.97866666661,
      "d": 282.6082999999999,
      "v": 125
    },
    {
      "midi": 72,
      "hit": false,
      "t": 35941.97866666661,
      "d": 282.6082999999999,
      "v": 125
    },
    {
      "midi": 41,
      "hit": false,
      "t": 36231.83333333328,
      "d": 282.6082999999999,
      "v": 125
    },
    {
      "midi": 65,
      "hit": false,
      "t": 36231.83333333328,
      "d": 282.6082999999999,
      "v": 125
    },
    {
      "midi": 69,
      "hit": false,
      "t": 36231.83333333328,
      "d": 282.6082999999999,
      "v": 125
    },
    {
      "midi": 72,
      "hit": false,
      "t": 36231.83333333328,
      "d": 282.6082999999999,
      "v": 125
    },
    {
      "midi": 38,
      "hit": false,
      "t": 36521.687999999944,
      "d": 282.6082999999999,
      "v": 125
    },
    {
      "midi": 65,
      "hit": false,
      "t": 36521.687999999944,
      "d": 282.6082999999999,
      "v": 125
    },
    {
      "midi": 69,
      "hit": false,
      "t": 36521.687999999944,
      "d": 282.6082999999999,
      "v": 125
    },
    {
      "midi": 74,
      "hit": false,
      "t": 36521.687999999944,
      "d": 282.6082999999999,
      "v": 125
    },
    {
      "midi": 72,
      "hit": false,
      "t": 36521.688,
      "d": 1449.2733333333308,
      "v": 121
    },
    {
      "midi": 77,
      "hit": false,
      "t": 36521.688,
      "d": 1739.127999999997,
      "v": 121
    },
    {
      "midi": 38,
      "hit": false,
      "t": 36811.54266666661,
      "d": 282.6082999999999,
      "v": 125
    },
    {
      "midi": 65,
      "hit": false,
      "t": 36811.54266666661,
      "d": 282.6082999999999,
      "v": 125
    },
    {
      "midi": 69,
      "hit": false,
      "t": 36811.54266666661,
      "d": 282.6082999999999,
      "v": 125
    },
    {
      "midi": 74,
      "hit": false,
      "t": 36811.54266666661,
      "d": 282.6082999999999,
      "v": 125
    },
    {
      "midi": 38,
      "hit": false,
      "t": 37101.397333333276,
      "d": 282.6082999999999,
      "v": 125
    },
    {
      "midi": 65,
      "hit": false,
      "t": 37101.397333333276,
      "d": 282.6082999999999,
      "v": 125
    },
    {
      "midi": 69,
      "hit": false,
      "t": 37101.397333333276,
      "d": 282.6082999999999,
      "v": 125
    },
    {
      "midi": 74,
      "hit": false,
      "t": 37101.397333333276,
      "d": 282.6082999999999,
      "v": 125
    },
    {
      "midi": 38,
      "hit": false,
      "t": 37391.25199999994,
      "d": 282.6082999999999,
      "v": 125
    },
    {
      "midi": 65,
      "hit": false,
      "t": 37391.25199999994,
      "d": 282.6082999999999,
      "v": 125
    },
    {
      "midi": 69,
      "hit": false,
      "t": 37391.25199999994,
      "d": 282.6082999999999,
      "v": 125
    },
    {
      "midi": 74,
      "hit": false,
      "t": 37391.25199999994,
      "d": 282.6082999999999,
      "v": 125
    },
    {
      "midi": 38,
      "hit": false,
      "t": 37681.10666666661,
      "d": 282.6082999999999,
      "v": 125
    },
    {
      "midi": 65,
      "hit": false,
      "t": 37681.10666666661,
      "d": 282.6082999999999,
      "v": 125
    },
    {
      "midi": 69,
      "hit": false,
      "t": 37681.10666666661,
      "d": 282.6082999999999,
      "v": 125
    },
    {
      "midi": 74,
      "hit": false,
      "t": 37681.10666666661,
      "d": 282.6082999999999,
      "v": 125
    },
    {
      "midi": 38,
      "hit": false,
      "t": 37970.961333333275,
      "d": 282.6082999999999,
      "v": 125
    },
    {
      "midi": 65,
      "hit": false,
      "t": 37970.961333333275,
      "d": 282.6082999999999,
      "v": 125
    },
    {
      "midi": 69,
      "hit": false,
      "t": 37970.961333333275,
      "d": 282.6082999999999,
      "v": 125
    },
    {
      "midi": 74,
      "hit": false,
      "t": 37970.961333333275,
      "d": 282.6082999999999,
      "v": 125
    },
    {
      "midi": 34,
      "hit": false,
      "t": 38260.81599999994,
      "d": 282.6082999999999,
      "v": 125
    },
    {
      "midi": 65,
      "hit": false,
      "t": 38260.81599999994,
      "d": 282.6082999999999,
      "v": 125
    },
    {
      "midi": 70,
      "hit": false,
      "t": 38260.81599999994,
      "d": 282.6082999999999,
      "v": 125
    },
    {
      "midi": 73,
      "hit": false,
      "t": 38260.81599999994,
      "d": 282.6082999999999,
      "v": 125
    },
    {
      "midi": 34,
      "hit": false,
      "t": 38550.67066666661,
      "d": 282.6082999999999,
      "v": 125
    },
    {
      "midi": 65,
      "hit": false,
      "t": 38550.67066666661,
      "d": 282.6082999999999,
      "v": 125
    },
    {
      "midi": 70,
      "hit": false,
      "t": 38550.67066666661,
      "d": 282.6082999999999,
      "v": 125
    },
    {
      "midi": 73,
      "hit": false,
      "t": 38550.67066666661,
      "d": 282.6082999999999,
      "v": 125
    },
    {
      "midi": 34,
      "hit": false,
      "t": 38840.52533333327,
      "d": 282.6082999999999,
      "v": 125
    },
    {
      "midi": 65,
      "hit": false,
      "t": 38840.52533333327,
      "d": 282.6082999999999,
      "v": 125
    },
    {
      "midi": 70,
      "hit": false,
      "t": 38840.52533333327,
      "d": 282.6082999999999,
      "v": 125
    },
    {
      "midi": 73,
      "hit": false,
      "t": 38840.52533333327,
      "d": 282.6082999999999,
      "v": 125
    },
    {
      "midi": 34,
      "hit": false,
      "t": 39130.37999999994,
      "d": 282.6082999999999,
      "v": 125
    },
    {
      "midi": 65,
      "hit": false,
      "t": 39130.37999999994,
      "d": 282.6082999999999,
      "v": 125
    },
    {
      "midi": 70,
      "hit": false,
      "t": 39130.37999999994,
      "d": 282.6082999999999,
      "v": 125
    },
    {
      "midi": 73,
      "hit": false,
      "t": 39130.37999999994,
      "d": 282.6082999999999,
      "v": 125
    },
    {
      "midi": 34,
      "hit": false,
      "t": 39420.234666666605,
      "d": 282.6082999999999,
      "v": 125
    },
    {
      "midi": 65,
      "hit": false,
      "t": 39420.234666666605,
      "d": 282.6082999999999,
      "v": 125
    },
    {
      "midi": 70,
      "hit": false,
      "t": 39420.234666666605,
      "d": 282.6082999999999,
      "v": 125
    },
    {
      "midi": 73,
      "hit": false,
      "t": 39420.234666666605,
      "d": 282.6082999999999,
      "v": 125
    },
    {
      "midi": 70,
      "hit": false,
      "t": 39420.23466666666,
      "d": 282.6082999999999,
      "v": 121
    },
    {
      "midi": 34,
      "hit": false,
      "t": 39710.08933333327,
      "d": 282.6082999999999,
      "v": 125
    },
    {
      "midi": 65,
      "hit": false,
      "t": 39710.08933333327,
      "d": 282.6082999999999,
      "v": 125
    },
    {
      "midi": 70,
      "hit": false,
      "t": 39710.08933333327,
      "d": 282.6082999999999,
      "v": 125
    },
    {
      "midi": 73,
      "hit": false,
      "t": 39710.08933333327,
      "d": 282.6082999999999,
      "v": 125
    },
    {
      "midi": 72,
      "hit": false,
      "t": 39710.08933333333,
      "d": 282.6082999999999,
      "v": 121
    },
    {
      "midi": 77,
      "hit": false,
      "t": 39710.08933333333,
      "d": 282.6082999999999,
      "v": 121
    },
    {
      "midi": 36,
      "hit": false,
      "t": 39999.94399999994,
      "d": 282.6082999999999,
      "v": 125
    },
    {
      "midi": 64,
      "hit": false,
      "t": 39999.94399999994,
      "d": 282.6082999999999,
      "v": 125
    },
    {
      "midi": 67,
      "hit": false,
      "t": 39999.94399999994,
      "d": 282.6082999999999,
      "v": 125
    },
    {
      "midi": 72,
      "hit": false,
      "t": 39999.94399999994,
      "d": 282.6082999999999,
      "v": 125
    },
    {
      "midi": 72,
      "hit": false,
      "t": 39999.943999999996,
      "d": 181.15916666666453,
      "v": 121
    },
    {
      "midi": 77,
      "hit": false,
      "t": 39999.943999999996,
      "d": 579.7093333333323,
      "v": 121
    },
    {
      "midi": 73,
      "hit": false,
      "t": 40181.10316666666,
      "d": 282.6082999999999,
      "v": 121
    },
    {
      "midi": 36,
      "hit": false,
      "t": 40289.798666666604,
      "d": 282.6082999999999,
      "v": 125
    },
    {
      "midi": 64,
      "hit": false,
      "t": 40289.798666666604,
      "d": 282.6082999999999,
      "v": 125
    },
    {
      "midi": 67,
      "hit": false,
      "t": 40289.798666666604,
      "d": 282.6082999999999,
      "v": 125
    },
    {
      "midi": 72,
      "hit": false,
      "t": 40289.798666666604,
      "d": 282.6082999999999,
      "v": 125
    },
    {
      "midi": 36,
      "hit": false,
      "t": 40579.65333333327,
      "d": 282.6082999999999,
      "v": 125
    },
    {
      "midi": 64,
      "hit": false,
      "t": 40579.65333333327,
      "d": 282.6082999999999,
      "v": 125
    },
    {
      "midi": 67,
      "hit": false,
      "t": 40579.65333333327,
      "d": 282.6082999999999,
      "v": 125
    },
    {
      "midi": 72,
      "hit": false,
      "t": 40579.65333333327,
      "d": 282.6082999999999,
      "v": 125
    },
    {
      "midi": 72,
      "hit": false,
      "t": 40579.65333333333,
      "d": 579.7093333333323,
      "v": 121
    },
    {
      "midi": 77,
      "hit": false,
      "t": 40579.65333333333,
      "d": 579.7093333333323,
      "v": 121
    },
    {
      "midi": 36,
      "hit": false,
      "t": 40869.507999999936,
      "d": 282.6082999999999,
      "v": 125
    },
    {
      "midi": 64,
      "hit": false,
      "t": 40869.507999999936,
      "d": 282.6082999999999,
      "v": 125
    },
    {
      "midi": 67,
      "hit": false,
      "t": 40869.507999999936,
      "d": 282.6082999999999,
      "v": 125
    },
    {
      "midi": 72,
      "hit": false,
      "t": 40869.507999999936,
      "d": 282.6082999999999,
      "v": 125
    },
    {
      "midi": 36,
      "hit": false,
      "t": 41159.3626666666,
      "d": 282.6082999999999,
      "v": 125
    },
    {
      "midi": 64,
      "hit": false,
      "t": 41159.3626666666,
      "d": 282.6082999999999,
      "v": 125
    },
    {
      "midi": 67,
      "hit": false,
      "t": 41159.3626666666,
      "d": 282.6082999999999,
      "v": 125
    },
    {
      "midi": 72,
      "hit": false,
      "t": 41159.3626666666,
      "d": 282.6082999999999,
      "v": 125
    },
    {
      "midi": 70,
      "hit": false,
      "t": 41159.36266666666,
      "d": 579.7093333333323,
      "v": 121
    },
    {
      "midi": 36,
      "hit": false,
      "t": 41449.21733333327,
      "d": 282.6082999999999,
      "v": 125
    },
    {
      "midi": 64,
      "hit": false,
      "t": 41449.21733333327,
      "d": 282.6082999999999,
      "v": 125
    },
    {
      "midi": 67,
      "hit": false,
      "t": 41449.21733333327,
      "d": 282.6082999999999,
      "v": 125
    },
    {
      "midi": 72,
      "hit": false,
      "t": 41449.21733333327,
      "d": 282.6082999999999,
      "v": 125
    },
    {
      "midi": 41,
      "hit": false,
      "t": 41739.071999999935,
      "d": 282.6082999999999,
      "v": 125
    },
    {
      "midi": 65,
      "hit": false,
      "t": 41739.071999999935,
      "d": 282.6082999999999,
      "v": 125
    },
    {
      "midi": 69,
      "hit": false,
      "t": 41739.071999999935,
      "d": 282.6082999999999,
      "v": 125
    },
    {
      "midi": 72,
      "hit": false,
      "t": 41739.071999999935,
      "d": 282.6082999999999,
      "v": 125
    },
    {
      "midi": 72,
      "hit": false,
      "t": 41739.07199999999,
      "d": 869.5639999999985,
      "v": 121
    },
    {
      "midi": 77,
      "hit": false,
      "t": 41739.07199999999,
      "d": 869.5639999999985,
      "v": 121
    },
    {
      "midi": 41,
      "hit": false,
      "t": 42028.9266666666,
      "d": 282.6082999999999,
      "v": 125
    },
    {
      "midi": 65,
      "hit": false,
      "t": 42028.9266666666,
      "d": 282.6082999999999,
      "v": 125
    },
    {
      "midi": 69,
      "hit": false,
      "t": 42028.9266666666,
      "d": 282.6082999999999,
      "v": 125
    },
    {
      "midi": 72,
      "hit": false,
      "t": 42028.9266666666,
      "d": 282.6082999999999,
      "v": 125
    },
    {
      "midi": 41,
      "hit": false,
      "t": 42318.78133333327,
      "d": 282.6082999999999,
      "v": 125
    },
    {
      "midi": 65,
      "hit": false,
      "t": 42318.78133333327,
      "d": 282.6082999999999,
      "v": 125
    },
    {
      "midi": 69,
      "hit": false,
      "t": 42318.78133333327,
      "d": 282.6082999999999,
      "v": 125
    },
    {
      "midi": 72,
      "hit": false,
      "t": 42318.78133333327,
      "d": 282.6082999999999,
      "v": 125
    },
    {
      "midi": 41,
      "hit": false,
      "t": 42608.63599999993,
      "d": 282.6082999999999,
      "v": 125
    },
    {
      "midi": 65,
      "hit": false,
      "t": 42608.63599999993,
      "d": 282.6082999999999,
      "v": 125
    },
    {
      "midi": 69,
      "hit": false,
      "t": 42608.63599999993,
      "d": 282.6082999999999,
      "v": 125
    },
    {
      "midi": 72,
      "hit": false,
      "t": 42608.63599999993,
      "d": 282.6082999999999,
      "v": 125
    },
    {
      "midi": 69,
      "hit": false,
      "t": 42608.63599999999,
      "d": 210.14463333333697,
      "v": 121
    },
    {
      "midi": 77,
      "hit": false,
      "t": 42608.63599999999,
      "d": 210.14463333333697,
      "v": 121
    },
    {
      "midi": 72,
      "hit": false,
      "t": 42826.026999999995,
      "d": 210.14463333333697,
      "v": 121
    },
    {
      "midi": 77,
      "hit": false,
      "t": 42826.026999999995,
      "d": 210.14463333333697,
      "v": 121
    },
    {
      "midi": 41,
      "hit": false,
      "t": 42898.4906666666,
      "d": 282.6082999999999,
      "v": 125
    },
    {
      "midi": 65,
      "hit": false,
      "t": 42898.4906666666,
      "d": 282.6082999999999,
      "v": 125
    },
    {
      "midi": 69,
      "hit": false,
      "t": 42898.4906666666,
      "d": 282.6082999999999,
      "v": 125
    },
    {
      "midi": 72,
      "hit": false,
      "t": 42898.4906666666,
      "d": 282.6082999999999,
      "v": 125
    },
    {
      "midi": 72,
      "hit": false,
      "t": 43043.418,
      "d": 210.14463333333697,
      "v": 121
    },
    {
      "midi": 69,
      "hit": false,
      "t": 43043.418,
      "d": 217.39100000000326,
      "v": 121
    },
    {
      "midi": 41,
      "hit": false,
      "t": 43188.345333333265,
      "d": 282.6082999999999,
      "v": 125
    },
    {
      "midi": 65,
      "hit": false,
      "t": 43188.345333333265,
      "d": 282.6082999999999,
      "v": 125
    },
    {
      "midi": 69,
      "hit": false,
      "t": 43188.345333333265,
      "d": 282.6082999999999,
      "v": 125
    },
    {
      "midi": 72,
      "hit": false,
      "t": 43188.345333333265,
      "d": 282.6082999999999,
      "v": 125
    },
    {
      "midi": 65,
      "hit": false,
      "t": 43260.809,
      "d": 210.1446333333297,
      "v": 121
    },
    {
      "midi": 72,
      "hit": false,
      "t": 43260.809,
      "d": 210.1446333333297,
      "v": 121
    },
    {
      "midi": 38,
      "hit": false,
      "t": 43478.19999999993,
      "d": 282.6082999999999,
      "v": 125
    },
    {
      "midi": 65,
      "hit": false,
      "t": 43478.19999999993,
      "d": 282.6082999999999,
      "v": 125
    },
    {
      "midi": 69,
      "hit": false,
      "t": 43478.19999999993,
      "d": 282.6082999999999,
      "v": 125
    },
    {
      "midi": 74,
      "hit": false,
      "t": 43478.19999999993,
      "d": 282.6082999999999,
      "v": 125
    },
    {
      "midi": 62,
      "hit": false,
      "t": 43478.2,
      "d": 652.1730000000025,
      "v": 121
    },
    {
      "midi": 65,
      "hit": false,
      "t": 43478.2,
      "d": 652.1730000000025,
      "v": 121
    },
    {
      "midi": 38,
      "hit": false,
      "t": 43768.0546666666,
      "d": 282.6082999999999,
      "v": 125
    },
    {
      "midi": 65,
      "hit": false,
      "t": 43768.0546666666,
      "d": 282.6082999999999,
      "v": 125
    },
    {
      "midi": 69,
      "hit": false,
      "t": 43768.0546666666,
      "d": 282.6082999999999,
      "v": 125
    },
    {
      "midi": 74,
      "hit": false,
      "t": 43768.0546666666,
      "d": 282.6082999999999,
      "v": 125
    },
    {
      "midi": 38,
      "hit": false,
      "t": 44057.909333333264,
      "d": 282.6082999999999,
      "v": 125
    },
    {
      "midi": 65,
      "hit": false,
      "t": 44057.909333333264,
      "d": 282.6082999999999,
      "v": 125
    },
    {
      "midi": 69,
      "hit": false,
      "t": 44057.909333333264,
      "d": 282.6082999999999,
      "v": 125
    },
    {
      "midi": 74,
      "hit": false,
      "t": 44057.909333333264,
      "d": 282.6082999999999,
      "v": 125
    },
    {
      "midi": 38,
      "hit": false,
      "t": 44347.76399999993,
      "d": 282.6082999999999,
      "v": 125
    },
    {
      "midi": 65,
      "hit": false,
      "t": 44347.76399999993,
      "d": 282.6082999999999,
      "v": 125
    },
    {
      "midi": 69,
      "hit": false,
      "t": 44347.76399999993,
      "d": 282.6082999999999,
      "v": 125
    },
    {
      "midi": 74,
      "hit": false,
      "t": 44347.76399999993,
      "d": 282.6082999999999,
      "v": 125
    },
    {
      "midi": 38,
      "hit": false,
      "t": 44637.618666666596,
      "d": 282.6082999999999,
      "v": 125
    },
    {
      "midi": 65,
      "hit": false,
      "t": 44637.618666666596,
      "d": 282.6082999999999,
      "v": 125
    },
    {
      "midi": 69,
      "hit": false,
      "t": 44637.618666666596,
      "d": 282.6082999999999,
      "v": 125
    },
    {
      "midi": 74,
      "hit": false,
      "t": 44637.618666666596,
      "d": 282.6082999999999,
      "v": 125
    },
    {
      "midi": 38,
      "hit": false,
      "t": 44927.47333333326,
      "d": 282.6082999999999,
      "v": 125
    },
    {
      "midi": 65,
      "hit": false,
      "t": 44927.47333333326,
      "d": 282.6082999999999,
      "v": 125
    },
    {
      "midi": 69,
      "hit": false,
      "t": 44927.47333333326,
      "d": 282.6082999999999,
      "v": 125
    },
    {
      "midi": 74,
      "hit": false,
      "t": 44927.47333333326,
      "d": 282.6082999999999,
      "v": 125
    },
    {
      "midi": 34,
      "hit": false,
      "t": 45217.32799999993,
      "d": 282.6082999999999,
      "v": 125
    },
    {
      "midi": 65,
      "hit": false,
      "t": 45217.32799999993,
      "d": 282.6082999999999,
      "v": 125
    },
    {
      "midi": 70,
      "hit": false,
      "t": 45217.32799999993,
      "d": 282.6082999999999,
      "v": 125
    },
    {
      "midi": 73,
      "hit": false,
      "t": 45217.32799999993,
      "d": 282.6082999999999,
      "v": 125
    },
    {
      "midi": 34,
      "hit": false,
      "t": 45507.182666666595,
      "d": 282.6082999999999,
      "v": 125
    },
    {
      "midi": 65,
      "hit": false,
      "t": 45507.182666666595,
      "d": 282.6082999999999,
      "v": 125
    },
    {
      "midi": 70,
      "hit": false,
      "t": 45507.182666666595,
      "d": 282.6082999999999,
      "v": 125
    },
    {
      "midi": 73,
      "hit": false,
      "t": 45507.182666666595,
      "d": 282.6082999999999,
      "v": 125
    },
    {
      "midi": 34,
      "hit": false,
      "t": 45797.03733333326,
      "d": 282.6082999999999,
      "v": 125
    },
    {
      "midi": 65,
      "hit": false,
      "t": 45797.03733333326,
      "d": 282.6082999999999,
      "v": 125
    },
    {
      "midi": 70,
      "hit": false,
      "t": 45797.03733333326,
      "d": 282.6082999999999,
      "v": 125
    },
    {
      "midi": 73,
      "hit": false,
      "t": 45797.03733333326,
      "d": 282.6082999999999,
      "v": 125
    },
    {
      "midi": 34,
      "hit": false,
      "t": 46086.89199999993,
      "d": 282.6082999999999,
      "v": 125
    },
    {
      "midi": 65,
      "hit": false,
      "t": 46086.89199999993,
      "d": 282.6082999999999,
      "v": 125
    },
    {
      "midi": 70,
      "hit": false,
      "t": 46086.89199999993,
      "d": 282.6082999999999,
      "v": 125
    },
    {
      "midi": 73,
      "hit": false,
      "t": 46086.89199999993,
      "d": 282.6082999999999,
      "v": 125
    },
    {
      "midi": 34,
      "hit": false,
      "t": 46376.74666666659,
      "d": 282.6082999999999,
      "v": 125
    },
    {
      "midi": 65,
      "hit": false,
      "t": 46376.74666666659,
      "d": 282.6082999999999,
      "v": 125
    },
    {
      "midi": 70,
      "hit": false,
      "t": 46376.74666666659,
      "d": 282.6082999999999,
      "v": 125
    },
    {
      "midi": 73,
      "hit": false,
      "t": 46376.74666666659,
      "d": 282.6082999999999,
      "v": 125
    },
    {
      "midi": 65,
      "hit": false,
      "t": 46376.746666666666,
      "d": 282.6082999999999,
      "v": 121
    },
    {
      "midi": 70,
      "hit": false,
      "t": 46376.746666666666,
      "d": 282.6082999999999,
      "v": 121
    },
    {
      "midi": 34,
      "hit": false,
      "t": 46666.60133333326,
      "d": 282.6082999999999,
      "v": 125
    },
    {
      "midi": 65,
      "hit": false,
      "t": 46666.60133333326,
      "d": 282.6082999999999,
      "v": 125
    },
    {
      "midi": 70,
      "hit": false,
      "t": 46666.60133333326,
      "d": 282.6082999999999,
      "v": 125
    },
    {
      "midi": 73,
      "hit": false,
      "t": 46666.60133333326,
      "d": 282.6082999999999,
      "v": 125
    },
    {
      "midi": 65,
      "hit": false,
      "t": 46666.60133333333,
      "d": 282.6082999999999,
      "v": 121
    },
    {
      "midi": 70,
      "hit": false,
      "t": 46666.60133333333,
      "d": 282.6082999999999,
      "v": 121
    },
    {
      "midi": 36,
      "hit": false,
      "t": 46956.455999999926,
      "d": 282.6082999999999,
      "v": 125
    },
    {
      "midi": 64,
      "hit": false,
      "t": 46956.455999999926,
      "d": 282.6082999999999,
      "v": 125
    },
    {
      "midi": 67,
      "hit": false,
      "t": 46956.455999999926,
      "d": 282.6082999999999,
      "v": 125
    },
    {
      "midi": 72,
      "hit": false,
      "t": 46956.455999999926,
      "d": 282.6082999999999,
      "v": 125
    },
    {
      "midi": 67,
      "hit": false,
      "t": 46956.456,
      "d": 572.462966666666,
      "v": 121
    },
    {
      "midi": 72,
      "hit": false,
      "t": 46956.456,
      "d": 572.462966666666,
      "v": 121
    },
    {
      "midi": 69,
      "hit": false,
      "t": 47137.61516666666,
      "d": 398.5501666666678,
      "v": 121
    },
    {
      "midi": 36,
      "hit": false,
      "t": 47246.31066666659,
      "d": 282.6082999999999,
      "v": 125
    },
    {
      "midi": 64,
      "hit": false,
      "t": 47246.31066666659,
      "d": 282.6082999999999,
      "v": 125
    },
    {
      "midi": 67,
      "hit": false,
      "t": 47246.31066666659,
      "d": 282.6082999999999,
      "v": 125
    },
    {
      "midi": 72,
      "hit": false,
      "t": 47246.31066666659,
      "d": 282.6082999999999,
      "v": 125
    },
    {
      "midi": 36,
      "hit": false,
      "t": 47536.16533333326,
      "d": 282.6082999999999,
      "v": 125
    },
    {
      "midi": 64,
      "hit": false,
      "t": 47536.16533333326,
      "d": 282.6082999999999,
      "v": 125
    },
    {
      "midi": 67,
      "hit": false,
      "t": 47536.16533333326,
      "d": 282.6082999999999,
      "v": 125
    },
    {
      "midi": 72,
      "hit": false,
      "t": 47536.16533333326,
      "d": 282.6082999999999,
      "v": 125
    },
    {
      "midi": 67,
      "hit": false,
      "t": 47536.16533333333,
      "d": 572.462966666666,
      "v": 121
    },
    {
      "midi": 72,
      "hit": false,
      "t": 47536.16533333333,
      "d": 572.462966666666,
      "v": 121
    },
    {
      "midi": 69,
      "hit": false,
      "t": 47717.324499999995,
      "d": 391.3038000000015,
      "v": 121
    },
    {
      "midi": 36,
      "hit": false,
      "t": 47826.019999999924,
      "d": 282.6082999999999,
      "v": 125
    },
    {
      "midi": 64,
      "hit": false,
      "t": 47826.019999999924,
      "d": 282.6082999999999,
      "v": 125
    },
    {
      "midi": 67,
      "hit": false,
      "t": 47826.019999999924,
      "d": 282.6082999999999,
      "v": 125
    },
    {
      "midi": 72,
      "hit": false,
      "t": 47826.019999999924,
      "d": 282.6082999999999,
      "v": 125
    },
    {
      "midi": 36,
      "hit": false,
      "t": 48115.87466666659,
      "d": 282.6082999999999,
      "v": 125
    },
    {
      "midi": 64,
      "hit": false,
      "t": 48115.87466666659,
      "d": 282.6082999999999,
      "v": 125
    },
    {
      "midi": 67,
      "hit": false,
      "t": 48115.87466666659,
      "d": 282.6082999999999,
      "v": 125
    },
    {
      "midi": 72,
      "hit": false,
      "t": 48115.87466666659,
      "d": 282.6082999999999,
      "v": 125
    },
    {
      "midi": 67,
      "hit": false,
      "t": 48115.87466666666,
      "d": 210.1446333333297,
      "v": 121
    },
    {
      "midi": 72,
      "hit": false,
      "t": 48115.87466666666,
      "d": 572.462966666666,
      "v": 121
    },
    {
      "midi": 69,
      "hit": false,
      "t": 48297.03383333333,
      "d": 398.5501666666678,
      "v": 121
    },
    {
      "midi": 36,
      "hit": false,
      "t": 48405.72933333326,
      "d": 282.6082999999999,
      "v": 125
    },
    {
      "midi": 64,
      "hit": false,
      "t": 48405.72933333326,
      "d": 282.6082999999999,
      "v": 125
    },
    {
      "midi": 67,
      "hit": false,
      "t": 48405.72933333326,
      "d": 282.6082999999999,
      "v": 125
    },
    {
      "midi": 72,
      "hit": false,
      "t": 48405.72933333326,
      "d": 282.6082999999999,
      "v": 125
    },
    {
      "midi": 41,
      "hit": false,
      "t": 48695.58399999992,
      "d": 282.6082999999999,
      "v": 125
    },
    {
      "midi": 65,
      "hit": false,
      "t": 48695.58399999992,
      "d": 282.6082999999999,
      "v": 125
    },
    {
      "midi": 69,
      "hit": false,
      "t": 48695.58399999992,
      "d": 282.6082999999999,
      "v": 125
    },
    {
      "midi": 72,
      "hit": false,
      "t": 48695.58399999992,
      "d": 282.6082999999999,
      "v": 125
    },
    {
      "midi": 65,
      "hit": false,
      "t": 48695.583999999995,
      "d": 1731.8816333333307,
      "v": 120
    },
    {
      "midi": 69,
      "hit": false,
      "t": 48695.583999999995,
      "d": 1731.8816333333307,
      "v": 120
    },
    {
      "midi": 41,
      "hit": false,
      "t": 48985.43866666659,
      "d": 282.6082999999999,
      "v": 125
    },
    {
      "midi": 65,
      "hit": false,
      "t": 48985.43866666659,
      "d": 282.6082999999999,
      "v": 125
    },
    {
      "midi": 69,
      "hit": false,
      "t": 48985.43866666659,
      "d": 282.6082999999999,
      "v": 125
    },
    {
      "midi": 72,
      "hit": false,
      "t": 48985.43866666659,
      "d": 282.6082999999999,
      "v": 125
    },
    {
      "midi": 41,
      "hit": false,
      "t": 49275.293333333255,
      "d": 282.6082999999999,
      "v": 125
    },
    {
      "midi": 65,
      "hit": false,
      "t": 49275.293333333255,
      "d": 282.6082999999999,
      "v": 125
    },
    {
      "midi": 69,
      "hit": false,
      "t": 49275.293333333255,
      "d": 282.6082999999999,
      "v": 125
    },
    {
      "midi": 72,
      "hit": false,
      "t": 49275.293333333255,
      "d": 282.6082999999999,
      "v": 125
    },
    {
      "midi": 41,
      "hit": false,
      "t": 49565.14799999992,
      "d": 282.6082999999999,
      "v": 125
    },
    {
      "midi": 65,
      "hit": false,
      "t": 49565.14799999992,
      "d": 282.6082999999999,
      "v": 125
    },
    {
      "midi": 69,
      "hit": false,
      "t": 49565.14799999992,
      "d": 282.6082999999999,
      "v": 125
    },
    {
      "midi": 72,
      "hit": false,
      "t": 49565.14799999992,
      "d": 282.6082999999999,
      "v": 125
    },
    {
      "midi": 41,
      "hit": false,
      "t": 49855.00266666659,
      "d": 282.6082999999999,
      "v": 125
    },
    {
      "midi": 65,
      "hit": false,
      "t": 49855.00266666659,
      "d": 282.6082999999999,
      "v": 125
    },
    {
      "midi": 69,
      "hit": false,
      "t": 49855.00266666659,
      "d": 282.6082999999999,
      "v": 125
    },
    {
      "midi": 72,
      "hit": false,
      "t": 49855.00266666659,
      "d": 282.6082999999999,
      "v": 125
    },
    {
      "midi": 41,
      "hit": false,
      "t": 50144.85733333325,
      "d": 282.6082999999999,
      "v": 125
    },
    {
      "midi": 65,
      "hit": false,
      "t": 50144.85733333325,
      "d": 282.6082999999999,
      "v": 125
    },
    {
      "midi": 69,
      "hit": false,
      "t": 50144.85733333325,
      "d": 282.6082999999999,
      "v": 125
    },
    {
      "midi": 72,
      "hit": false,
      "t": 50144.85733333325,
      "d": 282.6082999999999,
      "v": 125
    },
    {
      "midi": 34,
      "hit": false,
      "t": 50434.71199999992,
      "d": 282.6082999999999,
      "v": 125
    },
    {
      "midi": 65,
      "hit": false,
      "t": 50434.71199999992,
      "d": 282.6082999999999,
      "v": 125
    },
    {
      "midi": 70,
      "hit": false,
      "t": 50434.71199999992,
      "d": 282.6082999999999,
      "v": 125
    },
    {
      "midi": 73,
      "hit": false,
      "t": 50434.71199999992,
      "d": 282.6082999999999,
      "v": 125
    },
    {
      "midi": 60,
      "hit": false,
      "t": 50434.71199999999,
      "d": 181.15916666666453,
      "v": 121
    },
    {
      "midi": 65,
      "hit": false,
      "t": 50434.71199999999,
      "d": 572.462966666666,
      "v": 121
    },
    {
      "midi": 61,
      "hit": false,
      "t": 50615.87116666666,
      "d": 398.5501666666678,
      "v": 121
    },
    {
      "midi": 34,
      "hit": false,
      "t": 50724.566666666586,
      "d": 282.6082999999999,
      "v": 125
    },
    {
      "midi": 65,
      "hit": false,
      "t": 50724.566666666586,
      "d": 282.6082999999999,
      "v": 125
    },
    {
      "midi": 70,
      "hit": false,
      "t": 50724.566666666586,
      "d": 282.6082999999999,
      "v": 125
    },
    {
      "midi": 73,
      "hit": false,
      "t": 50724.566666666586,
      "d": 282.6082999999999,
      "v": 125
    },
    {
      "midi": 34,
      "hit": false,
      "t": 51014.42133333325,
      "d": 282.6082999999999,
      "v": 125
    },
    {
      "midi": 65,
      "hit": false,
      "t": 51014.42133333325,
      "d": 282.6082999999999,
      "v": 125
    },
    {
      "midi": 70,
      "hit": false,
      "t": 51014.42133333325,
      "d": 282.6082999999999,
      "v": 125
    },
    {
      "midi": 73,
      "hit": false,
      "t": 51014.42133333325,
      "d": 282.6082999999999,
      "v": 125
    },
    {
      "midi": 60,
      "hit": false,
      "t": 51014.421333333325,
      "d": 173.91279999999824,
      "v": 122
    },
    {
      "midi": 65,
      "hit": false,
      "t": 51014.421333333325,
      "d": 572.462966666666,
      "v": 122
    },
    {
      "midi": 61,
      "hit": false,
      "t": 51195.58049999999,
      "d": 391.3038000000015,
      "v": 122
    },
    {
      "midi": 34,
      "hit": false,
      "t": 51304.27599999992,
      "d": 282.6082999999999,
      "v": 125
    },
    {
      "midi": 65,
      "hit": false,
      "t": 51304.27599999992,
      "d": 282.6082999999999,
      "v": 125
    },
    {
      "midi": 70,
      "hit": false,
      "t": 51304.27599999992,
      "d": 282.6082999999999,
      "v": 125
    },
    {
      "midi": 73,
      "hit": false,
      "t": 51304.27599999992,
      "d": 282.6082999999999,
      "v": 125
    },
    {
      "midi": 34,
      "hit": false,
      "t": 51594.130666666584,
      "d": 282.6082999999999,
      "v": 125
    },
    {
      "midi": 65,
      "hit": false,
      "t": 51594.130666666584,
      "d": 282.6082999999999,
      "v": 125
    },
    {
      "midi": 70,
      "hit": false,
      "t": 51594.130666666584,
      "d": 282.6082999999999,
      "v": 125
    },
    {
      "midi": 73,
      "hit": false,
      "t": 51594.130666666584,
      "d": 282.6082999999999,
      "v": 125
    },
    {
      "midi": 60,
      "hit": false,
      "t": 51594.13066666666,
      "d": 166.66643333333195,
      "v": 122
    },
    {
      "midi": 65,
      "hit": false,
      "t": 51594.13066666666,
      "d": 572.462966666666,
      "v": 122
    },
    {
      "midi": 61,
      "hit": false,
      "t": 51775.28983333332,
      "d": 398.5501666666678,
      "v": 123
    },
    {
      "midi": 34,
      "hit": false,
      "t": 51883.98533333325,
      "d": 282.6082999999999,
      "v": 125
    },
    {
      "midi": 65,
      "hit": false,
      "t": 51883.98533333325,
      "d": 282.6082999999999,
      "v": 125
    },
    {
      "midi": 70,
      "hit": false,
      "t": 51883.98533333325,
      "d": 282.6082999999999,
      "v": 125
    },
    {
      "midi": 73,
      "hit": false,
      "t": 51883.98533333325,
      "d": 282.6082999999999,
      "v": 125
    },
    {
      "midi": 41,
      "hit": false,
      "t": 52173.83999999992,
      "d": 282.6082999999999,
      "v": 125
    },
    {
      "midi": 65,
      "hit": false,
      "t": 52173.83999999992,
      "d": 282.6082999999999,
      "v": 125
    },
    {
      "midi": 69,
      "hit": false,
      "t": 52173.83999999992,
      "d": 282.6082999999999,
      "v": 125
    },
    {
      "midi": 72,
      "hit": false,
      "t": 52173.83999999992,
      "d": 282.6082999999999,
      "v": 125
    },
    {
      "midi": 64,
      "hit": false,
      "t": 52173.83999999999,
      "d": 166.66643333333195,
      "v": 123
    },
    {
      "midi": 69,
      "hit": false,
      "t": 52173.83999999999,
      "d": 572.462966666666,
      "v": 123
    },
    {
      "midi": 65,
      "hit": false,
      "t": 52354.999166666654,
      "d": 391.3038000000015,
      "v": 123
    },
    {
      "midi": 41,
      "hit": false,
      "t": 52463.69466666658,
      "d": 282.6082999999999,
      "v": 125
    },
    {
      "midi": 65,
      "hit": false,
      "t": 52463.69466666658,
      "d": 282.6082999999999,
      "v": 125
    },
    {
      "midi": 69,
      "hit": false,
      "t": 52463.69466666658,
      "d": 282.6082999999999,
      "v": 125
    },
    {
      "midi": 72,
      "hit": false,
      "t": 52463.69466666658,
      "d": 282.6082999999999,
      "v": 125
    },
    {
      "midi": 41,
      "hit": false,
      "t": 52753.54933333325,
      "d": 282.6082999999999,
      "v": 125
    },
    {
      "midi": 65,
      "hit": false,
      "t": 52753.54933333325,
      "d": 282.6082999999999,
      "v": 125
    },
    {
      "midi": 69,
      "hit": false,
      "t": 52753.54933333325,
      "d": 282.6082999999999,
      "v": 125
    },
    {
      "midi": 72,
      "hit": false,
      "t": 52753.54933333325,
      "d": 282.6082999999999,
      "v": 125
    },
    {
      "midi": 41,
      "hit": false,
      "t": 53043.403999999915,
      "d": 282.6082999999999,
      "v": 125
    },
    {
      "midi": 65,
      "hit": false,
      "t": 53043.403999999915,
      "d": 282.6082999999999,
      "v": 125
    },
    {
      "midi": 69,
      "hit": false,
      "t": 53043.403999999915,
      "d": 282.6082999999999,
      "v": 125
    },
    {
      "midi": 72,
      "hit": false,
      "t": 53043.403999999915,
      "d": 282.6082999999999,
      "v": 125
    },
    {
      "midi": 41,
      "hit": false,
      "t": 53333.25866666658,
      "d": 282.6082999999999,
      "v": 125
    },
    {
      "midi": 65,
      "hit": false,
      "t": 53333.25866666658,
      "d": 282.6082999999999,
      "v": 125
    },
    {
      "midi": 69,
      "hit": false,
      "t": 53333.25866666658,
      "d": 282.6082999999999,
      "v": 125
    },
    {
      "midi": 72,
      "hit": false,
      "t": 53333.25866666658,
      "d": 282.6082999999999,
      "v": 125
    },
    {
      "midi": 41,
      "hit": false,
      "t": 53623.11333333325,
      "d": 282.6082999999999,
      "v": 125
    },
    {
      "midi": 65,
      "hit": false,
      "t": 53623.11333333325,
      "d": 282.6082999999999,
      "v": 125
    },
    {
      "midi": 69,
      "hit": false,
      "t": 53623.11333333325,
      "d": 282.6082999999999,
      "v": 125
    },
    {
      "midi": 72,
      "hit": false,
      "t": 53623.11333333325,
      "d": 282.6082999999999,
      "v": 125
    }
  ]
}