{
  "jsonPath": "Pop/Classic Portuguese Pop/José Cid/alvas-brumas-do-douro.json",
  "path": "Pop\\Classic Portuguese Pop\\José Cid\\Alvas Brumas Do Douro.mid",
  "name": "Alvas Brumas Do Douro",
  "difficulty": "Advanced",
  "bpm": 100,
  "notes": [
    {
      "midi": 51,
      "hit": false,
      "t": 4800,
      "d": 1785,
      "v": 76
    },
    {
      "midi": 62,
      "hit": false,
      "t": 5400,
      "d": 320,
      "v": 45
    },
    {
      "midi": 63,
      "hit": false,
      "t": 5400,
      "d": 805,
      "v": 52
    },
    {
      "midi": 70,
      "hit": false,
      "t": 5400,
      "d": 1975,
      "v": 66
    },
    {
      "midi": 74,
      "hit": false,
      "t": 5400,
      "d": 1990,
      "v": 66
    },
    {
      "midi": 67,
      "hit": false,
      "t": 5400,
      "d": 2045,
      "v": 63
    },
    {
      "midi": 55,
      "hit": false,
      "t": 5400,
      "d": 3630,
      "v": 45
    },
    {
      "midi": 58,
      "hit": false,
      "t": 5400,
      "d": 3740,
      "v": 62
    },
    {
      "midi": 62,
      "hit": false,
      "t": 6000,
      "d": 915,
      "v": 32
    },
    {
      "midi": 63,
      "hit": false,
      "t": 6300,
      "d": 1010,
      "v": 22
    },
    {
      "midi": 51,
      "hit": false,
      "t": 6600,
      "d": 2570,
      "v": 13
    },
    {
      "midi": 62,
      "hit": false,
      "t": 7200,
      "d": 985,
      "v": 60
    },
    {
      "midi": 70,
      "hit": false,
      "t": 7800,
      "d": 720,
      "v": 63
    },
    {
      "midi": 74,
      "hit": false,
      "t": 7800,
      "d": 725,
      "v": 60
    },
    {
      "midi": 67,
      "hit": false,
      "t": 7800,
      "d": 775,
      "v": 70
    },
    {
      "midi": 63,
      "hit": false,
      "t": 7800,
      "d": 780,
      "v": 58
    },
    {
      "midi": 62,
      "hit": false,
      "t": 8400,
      "d": 430,
      "v": 34
    },
    {
      "midi": 74,
      "hit": false,
      "t": 8700,
      "d": 385,
      "v": 43
    },
    {
      "midi": 70,
      "hit": false,
      "t": 8700,
      "d": 395,
      "v": 56
    },
    {
      "midi": 67,
      "hit": false,
      "t": 8700,
      "d": 405,
      "v": 65
    },
    {
      "midi": 63,
      "hit": false,
      "t": 8700,
      "d": 420,
      "v": 47
    },
    {
      "midi": 62,
      "hit": false,
      "t": 9000,
      "d": 550,
      "v": 57
    },
    {
      "midi": 63,
      "hit": false,
      "t": 9300,
      "d": 185,
      "v": 40
    },
    {
      "midi": 60,
      "hit": false,
      "t": 9600,
      "d": 310,
      "v": 66
    },
    {
      "midi": 56,
      "hit": false,
      "t": 9600,
      "d": 370,
      "v": 61
    },
    {
      "midi": 72,
      "hit": false,
      "t": 9600,
      "d": 695,
      "v": 51
    },
    {
      "midi": 53,
      "hit": false,
      "t": 9600,
      "d": 945,
      "v": 68
    },
    {
      "midi": 75,
      "hit": false,
      "t": 9600,
      "d": 2165,
      "v": 62
    },
    {
      "midi": 68,
      "hit": false,
      "t": 9600,
      "d": 2215,
      "v": 60
    },
    {
      "midi": 63,
      "hit": false,
      "t": 10200,
      "d": 945,
      "v": 42
    },
    {
      "midi": 60,
      "hit": false,
      "t": 10200,
      "d": 1050,
      "v": 25
    },
    {
      "midi": 56,
      "hit": false,
      "t": 10200,
      "d": 1730,
      "v": 18
    },
    {
      "midi": 65,
      "hit": false,
      "t": 10500,
      "d": 1045,
      "v": 51
    },
    {
      "midi": 72,
      "hit": false,
      "t": 10500,
      "d": 1045,
      "v": 15
    },
    {
      "midi": 53,
      "hit": false,
      "t": 10800,
      "d": 1110,
      "v": 13
    },
    {
      "midi": 60,
      "hit": false,
      "t": 11400,
      "d": 450,
      "v": 24
    },
    {
      "midi": 63,
      "hit": false,
      "t": 11400,
      "d": 605,
      "v": 42
    },
    {
      "midi": 65,
      "hit": false,
      "t": 11700,
      "d": 180,
      "v": 25
    },
    {
      "midi": 53,
      "hit": false,
      "t": 12000,
      "d": 410,
      "v": 57
    },
    {
      "midi": 60,
      "hit": false,
      "t": 12000,
      "d": 455,
      "v": 48
    },
    {
      "midi": 72,
      "hit": false,
      "t": 12000,
      "d": 470,
      "v": 79
    },
    {
      "midi": 75,
      "hit": false,
      "t": 12000,
      "d": 610,
      "v": 77
    },
    {
      "midi": 68,
      "hit": false,
      "t": 12000,
      "d": 625,
      "v": 70
    },
    {
      "midi": 65,
      "hit": false,
      "t": 12000,
      "d": 695,
      "v": 56
    },
    {
      "midi": 56,
      "hit": false,
      "t": 12000,
      "d": 2015,
      "v": 24
    },
    {
      "midi": 53,
      "hit": false,
      "t": 12600,
      "d": 105,
      "v": 18
    },
    {
      "midi": 60,
      "hit": false,
      "t": 12600,
      "d": 300,
      "v": 53
    },
    {
      "midi": 63,
      "hit": false,
      "t": 12600,
      "d": 395,
      "v": 41
    },
    {
      "midi": 72,
      "hit": false,
      "t": 12900,
      "d": 110,
      "v": 75
    },
    {
      "midi": 65,
      "hit": false,
      "t": 12900,
      "d": 470,
      "v": 77
    },
    {
      "midi": 68,
      "hit": false,
      "t": 12900,
      "d": 485,
      "v": 81
    },
    {
      "midi": 75,
      "hit": false,
      "t": 12900,
      "d": 485,
      "v": 77
    },
    {
      "midi": 53,
      "hit": false,
      "t": 13200,
      "d": 495,
      "v": 45
    },
    {
      "midi": 60,
      "hit": false,
      "t": 13200,
      "d": 530,
      "v": 36
    },
    {
      "midi": 75,
      "hit": false,
      "t": 13500,
      "d": 100,
      "v": 32
    },
    {
      "midi": 72,
      "hit": false,
      "t": 13500,
      "d": 185,
      "v": 70
    },
    {
      "midi": 65,
      "hit": false,
      "t": 13500,
      "d": 290,
      "v": 74
    },
    {
      "midi": 68,
      "hit": false,
      "t": 13500,
      "d": 350,
      "v": 63
    },
    {
      "midi": 60,
      "hit": false,
      "t": 13800,
      "d": 100,
      "v": 44
    },
    {
      "midi": 63,
      "hit": false,
      "t": 13800,
      "d": 210,
      "v": 63
    },
    {
      "midi": 53,
      "hit": false,
      "t": 13800,
      "d": 225,
      "v": 37
    },
    {
      "midi": 63,
      "hit": false,
      "t": 14100,
      "d": 205,
      "v": 40
    },
    {
      "midi": 70,
      "hit": false,
      "t": 14400,
      "d": 140,
      "v": 69
    },
    {
      "midi": 58,
      "hit": false,
      "t": 14400,
      "d": 540,
      "v": 42
    },
    {
      "midi": 62,
      "hit": false,
      "t": 14400,
      "d": 545,
      "v": 34
    },
    {
      "midi": 67,
      "hit": false,
      "t": 14400,
      "d": 855,
      "v": 67
    },
    {
      "midi": 51,
      "hit": false,
      "t": 14400,
      "d": 955,
      "v": 18
    },
    {
      "midi": 74,
      "hit": false,
      "t": 14400,
      "d": 1920,
      "v": 68
    },
    {
      "midi": 63,
      "hit": false,
      "t": 14400,
      "d": 1925,
      "v": 63
    },
    {
      "midi": 55,
      "hit": false,
      "t": 14400,
      "d": 2320,
      "v": 41
    },
    {
      "midi": 70,
      "hit": false,
      "t": 14700,
      "d": 595,
      "v": 9
    },
    {
      "midi": 62,
      "hit": false,
      "t": 15000,
      "d": 870,
      "v": 53
    },
    {
      "midi": 58,
      "hit": false,
      "t": 15000,
      "d": 1725,
      "v": 41
    },
    {
      "midi": 70,
      "hit": false,
      "t": 15300,
      "d": 135,
      "v": 10
    },
    {
      "midi": 67,
      "hit": false,
      "t": 15300,
      "d": 970,
      "v": 22
    },
    {
      "midi": 51,
      "hit": false,
      "t": 15600,
      "d": 835,
      "v": 13
    },
    {
      "midi": 62,
      "hit": false,
      "t": 16200,
      "d": 555,
      "v": 53
    },
    {
      "midi": 63,
      "hit": false,
      "t": 16500,
      "d": 150,
      "v": 33
    },
    {
      "midi": 62,
      "hit": false,
      "t": 16800,
      "d": 140,
      "v": 23
    },
    {
      "midi": 58,
      "hit": false,
      "t": 16800,
      "d": 495,
      "v": 34
    },
    {
      "midi": 70,
      "hit": false,
      "t": 16800,
      "d": 560,
      "v": 65
    },
    {
      "midi": 67,
      "hit": false,
      "t": 16800,
      "d": 605,
      "v": 65
    },
    {
      "midi": 74,
      "hit": false,
      "t": 16800,
      "d": 605,
      "v": 73
    },
    {
      "midi": 63,
      "hit": false,
      "t": 16800,
      "d": 715,
      "v": 65
    },
    {
      "midi": 51,
      "hit": false,
      "t": 16800,
      "d": 1010,
      "v": 37
    },
    {
      "midi": 55,
      "hit": false,
      "t": 16800,
      "d": 1790,
      "v": 28
    },
    {
      "midi": 62,
      "hit": false,
      "t": 17400,
      "d": 885,
      "v": 53
    },
    {
      "midi": 58,
      "hit": false,
      "t": 17400,
      "d": 1095,
      "v": 57
    },
    {
      "midi": 70,
      "hit": false,
      "t": 17700,
      "d": 80,
      "v": 60
    },
    {
      "midi": 74,
      "hit": false,
      "t": 17700,
      "d": 350,
      "v": 75
    },
    {
      "midi": 67,
      "hit": false,
      "t": 17700,
      "d": 415,
      "v": 69
    },
    {
      "midi": 63,
      "hit": false,
      "t": 17700,
      "d": 435,
      "v": 66
    },
    {
      "midi": 51,
      "hit": false,
      "t": 18000,
      "d": 820,
      "v": 15
    },
    {
      "midi": 70,
      "hit": false,
      "t": 18300,
      "d": 270,
      "v": 69
    },
    {
      "midi": 67,
      "hit": false,
      "t": 18300,
      "d": 275,
      "v": 64
    },
    {
      "midi": 74,
      "hit": false,
      "t": 18300,
      "d": 345,
      "v": 71
    },
    {
      "midi": 63,
      "hit": false,
      "t": 18300,
      "d": 375,
      "v": 49
    },
    {
      "midi": 58,
      "hit": false,
      "t": 18600,
      "d": 140,
      "v": 11
    },
    {
      "midi": 62,
      "hit": false,
      "t": 18600,
      "d": 520,
      "v": 55
    },
    {
      "midi": 65,
      "hit": false,
      "t": 18900,
      "d": 155,
      "v": 30
    },
    {
      "midi": 60,
      "hit": false,
      "t": 19200,
      "d": 455,
      "v": 62
    },
    {
      "midi": 72,
      "hit": false,
      "t": 19200,
      "d": 580,
      "v": 74
    },
    {
      "midi": 65,
      "hit": false,
      "t": 19200,
      "d": 760,
      "v": 51
    },
    {
      "midi": 53,
      "hit": false,
      "t": 19200,
      "d": 845,
      "v": 60
    },
    {
      "midi": 75,
      "hit": false,
      "t": 19200,
      "d": 2090,
      "v": 70
    },
    {
      "midi": 68,
      "hit": false,
      "t": 19200,
      "d": 3120,
      "v": 61
    },
    {
      "midi": 56,
      "hit": false,
      "t": 19200,
      "d": 4320,
      "v": 65
    },
    {
      "midi": 60,
      "hit": false,
      "t": 19800,
      "d": 300,
      "v": 12
    },
    {
      "midi": 63,
      "hit": false,
      "t": 19800,
      "d": 940,
      "v": 39
    },
    {
      "midi": 65,
      "hit": false,
      "t": 20100,
      "d": 455,
      "v": 54
    },
    {
      "midi": 60,
      "hit": false,
      "t": 20100,
      "d": 620,
      "v": 35
    },
    {
      "midi": 53,
      "hit": false,
      "t": 20100,
      "d": 1040,
      "v": 27
    },
    {
      "midi": 72,
      "hit": false,
      "t": 20100,
      "d": 1145,
      "v": 51
    },
    {
      "midi": 65,
      "hit": false,
      "t": 20700,
      "d": 440,
      "v": 15
    },
    {
      "midi": 60,
      "hit": false,
      "t": 21000,
      "d": 510,
      "v": 22
    },
    {
      "midi": 63,
      "hit": false,
      "t": 21000,
      "d": 925,
      "v": 36
    },
    {
      "midi": 65,
      "hit": false,
      "t": 21300,
      "d": 970,
      "v": 21
    },
    {
      "midi": 53,
      "hit": false,
      "t": 21600,
      "d": 350,
      "v": 51
    },
    {
      "midi": 60,
      "hit": false,
      "t": 21600,
      "d": 515,
      "v": 33
    },
    {
      "midi": 72,
      "hit": false,
      "t": 21600,
      "d": 545,
      "v": 72
    },
    {
      "midi": 75,
      "hit": false,
      "t": 21600,
      "d": 655,
      "v": 49
    },
    {
      "midi": 53,
      "hit": false,
      "t": 22200,
      "d": 280,
      "v": 33
    },
    {
      "midi": 63,
      "hit": false,
      "t": 22200,
      "d": 510,
      "v": 36
    },
    {
      "midi": 60,
      "hit": false,
      "t": 22200,
      "d": 985,
      "v": 57
    },
    {
      "midi": 72,
      "hit": false,
      "t": 22500,
      "d": 50,
      "v": 48
    },
    {
      "midi": 65,
      "hit": false,
      "t": 22500,
      "d": 365,
      "v": 60
    },
    {
      "midi": 75,
      "hit": false,
      "t": 22500,
      "d": 380,
      "v": 57
    },
    {
      "midi": 68,
      "hit": false,
      "t": 22500,
      "d": 385,
      "v": 61
    },
    {
      "midi": 53,
      "hit": false,
      "t": 22800,
      "d": 370,
      "v": 50
    },
    {
      "midi": 72,
      "hit": false,
      "t": 23100,
      "d": 155,
      "v": 72
    },
    {
      "midi": 65,
      "hit": false,
      "t": 23100,
      "d": 305,
      "v": 67
    },
    {
      "midi": 68,
      "hit": false,
      "t": 23100,
      "d": 340,
      "v": 72
    },
    {
      "midi": 60,
      "hit": false,
      "t": 23400,
      "d": 115,
      "v": 44
    },
    {
      "midi": 63,
      "hit": false,
      "t": 23400,
      "d": 255,
      "v": 77
    },
    {
      "midi": 63,
      "hit": false,
      "t": 23700,
      "d": 155,
      "v": 35
    },
    {
      "midi": 63,
      "hit": false,
      "t": 24000,
      "d": 710,
      "v": 66
    },
    {
      "midi": 51,
      "hit": false,
      "t": 24000,
      "d": 960,
      "v": 39
    },
    {
      "midi": 70,
      "hit": false,
      "t": 24000,
      "d": 1825,
      "v": 65
    },
    {
      "midi": 67,
      "hit": false,
      "t": 24000,
      "d": 2005,
      "v": 68
    },
    {
      "midi": 74,
      "hit": false,
      "t": 24000,
      "d": 2135,
      "v": 68
    },
    {
      "midi": 55,
      "hit": false,
      "t": 24000,
      "d": 2345,
      "v": 56
    },
    {
      "midi": 58,
      "hit": false,
      "t": 24000,
      "d": 2955,
      "v": 63
    },
    {
      "midi": 62,
      "hit": false,
      "t": 24600,
      "d": 965,
      "v": 34
    },
    {
      "midi": 63,
      "hit": false,
      "t": 24900,
      "d": 1010,
      "v": 33
    },
    {
      "midi": 51,
      "hit": false,
      "t": 25200,
      "d": 1125,
      "v": 9
    },
    {
      "midi": 62,
      "hit": false,
      "t": 25800,
      "d": 915,
      "v": 45
    },
    {
      "midi": 63,
      "hit": false,
      "t": 26100,
      "d": 215,
      "v": 32
    },
    {
      "midi": 70,
      "hit": false,
      "t": 26400,
      "d": 680,
      "v": 58
    },
    {
      "midi": 67,
      "hit": false,
      "t": 26400,
      "d": 685,
      "v": 60
    },
    {
      "midi": 74,
      "hit": false,
      "t": 26400,
      "d": 760,
      "v": 75
    },
    {
      "midi": 63,
      "hit": false,
      "t": 26400,
      "d": 820,
      "v": 48
    },
    {
      "midi": 51,
      "hit": false,
      "t": 26400,
      "d": 950,
      "v": 13
    },
    {
      "midi": 55,
      "hit": false,
      "t": 27000,
      "d": 485,
      "v": 1
    },
    {
      "midi": 62,
      "hit": false,
      "t": 27000,
      "d": 1010,
      "v": 51
    },
    {
      "midi": 58,
      "hit": false,
      "t": 27000,
      "d": 1420,
      "v": 44
    },
    {
      "midi": 74,
      "hit": false,
      "t": 27300,
      "d": 450,
      "v": 59
    },
    {
      "midi": 70,
      "hit": false,
      "t": 27300,
      "d": 490,
      "v": 62
    },
    {
      "midi": 67,
      "hit": false,
      "t": 27300,
      "d": 500,
      "v": 60
    },
    {
      "midi": 63,
      "hit": false,
      "t": 27300,
      "d": 1030,
      "v": 54
    },
    {
      "midi": 55,
      "hit": false,
      "t": 27600,
      "d": 675,
      "v": 12
    },
    {
      "midi": 51,
      "hit": false,
      "t": 27600,
      "d": 815,
      "v": 43
    },
    {
      "midi": 70,
      "hit": false,
      "t": 27900,
      "d": 270,
      "v": 41
    },
    {
      "midi": 67,
      "hit": false,
      "t": 27900,
      "d": 335,
      "v": 29
    },
    {
      "midi": 74,
      "hit": false,
      "t": 27900,
      "d": 455,
      "v": 56
    },
    {
      "midi": 62,
      "hit": false,
      "t": 28200,
      "d": 530,
      "v": 69
    },
    {
      "midi": 65,
      "hit": false,
      "t": 28500,
      "d": 905,
      "v": 29
    },
    {
      "midi": 60,
      "hit": false,
      "t": 28800,
      "d": 385,
      "v": 60
    },
    {
      "midi": 72,
      "hit": false,
      "t": 28800,
      "d": 640,
      "v": 68
    },
    {
      "midi": 75,
      "hit": false,
      "t": 28800,
      "d": 770,
      "v": 46
    },
    {
      "midi": 68,
      "hit": false,
      "t": 28800,
      "d": 795,
      "v": 65
    },
    {
      "midi": 53,
      "hit": false,
      "t": 28800,
      "d": 820,
      "v": 57
    },
    {
      "midi": 56,
      "hit": false,
      "t": 28800,
      "d": 1975,
      "v": 54
    },
    {
      "midi": 63,
      "hit": false,
      "t": 29400,
      "d": 925,
      "v": 26
    },
    {
      "midi": 60,
      "hit": false,
      "t": 29400,
      "d": 2810,
      "v": 29
    },
    {
      "midi": 65,
      "hit": false,
      "t": 29700,
      "d": 930,
      "v": 60
    },
    {
      "midi": 72,
      "hit": false,
      "t": 29700,
      "d": 945,
      "v": 70
    },
    {
      "midi": 68,
      "hit": false,
      "t": 29700,
      "d": 1385,
      "v": 15
    },
    {
      "midi": 75,
      "hit": false,
      "t": 29700,
      "d": 2930,
      "v": 30
    },
    {
      "midi": 53,
      "hit": false,
      "t": 30000,
      "d": 2175,
      "v": 44
    },
    {
      "midi": 63,
      "hit": false,
      "t": 30600,
      "d": 750,
      "v": 38
    },
    {
      "midi": 65,
      "hit": false,
      "t": 30900,
      "d": 685,
      "v": 36
    },
    {
      "midi": 72,
      "hit": false,
      "t": 31200,
      "d": 565,
      "v": 59
    },
    {
      "midi": 68,
      "hit": false,
      "t": 31200,
      "d": 710,
      "v": 69
    },
    {
      "midi": 56,
      "hit": false,
      "t": 31200,
      "d": 2025,
      "v": 47
    },
    {
      "midi": 63,
      "hit": false,
      "t": 31800,
      "d": 780,
      "v": 53
    },
    {
      "midi": 65,
      "hit": false,
      "t": 32100,
      "d": 400,
      "v": 60
    },
    {
      "midi": 72,
      "hit": false,
      "t": 32100,
      "d": 440,
      "v": 63
    },
    {
      "midi": 68,
      "hit": false,
      "t": 32100,
      "d": 920,
      "v": 67
    },
    {
      "midi": 53,
      "hit": false,
      "t": 32400,
      "d": 440,
      "v": 25
    },
    {
      "midi": 60,
      "hit": false,
      "t": 32400,
      "d": 775,
      "v": 18
    },
    {
      "midi": 72,
      "hit": false,
      "t": 32700,
      "d": 110,
      "v": 14
    },
    {
      "midi": 65,
      "hit": false,
      "t": 32700,
      "d": 355,
      "v": 63
    },
    {
      "midi": 63,
      "hit": false,
      "t": 33000,
      "d": 450,
      "v": 90
    },
    {
      "midi": 58,
      "hit": false,
      "t": 33600,
      "d": 520,
      "v": 55
    },
    {
      "midi": 67,
      "hit": false,
      "t": 33600,
      "d": 640,
      "v": 66
    },
    {
      "midi": 70,
      "hit": false,
      "t": 33600,
      "d": 650,
      "v": 64
    },
    {
      "midi": 63,
      "hit": false,
      "t": 33600,
      "d": 715,
      "v": 70
    },
    {
      "midi": 74,
      "hit": false,
      "t": 33600,
      "d": 715,
      "v": 68
    },
    {
      "midi": 55,
      "hit": false,
      "t": 33600,
      "d": 1890,
      "v": 54
    },
    {
      "midi": 51,
      "hit": false,
      "t": 33600,
      "d": 3290,
      "v": 28
    },
    {
      "midi": 62,
      "hit": false,
      "t": 34200,
      "d": 930,
      "v": 37
    },
    {
      "midi": 58,
      "hit": false,
      "t": 34200,
      "d": 3800,
      "v": 11
    },
    {
      "midi": 63,
      "hit": false,
      "t": 34500,
      "d": 935,
      "v": 58
    },
    {
      "midi": 70,
      "hit": false,
      "t": 34500,
      "d": 1075,
      "v": 58
    },
    {
      "midi": 67,
      "hit": false,
      "t": 34500,
      "d": 2935,
      "v": 66
    },
    {
      "midi": 74,
      "hit": false,
      "t": 34500,
      "d": 3495,
      "v": 71
    },
    {
      "midi": 62,
      "hit": false,
      "t": 35400,
      "d": 1120,
      "v": 43
    },
    {
      "midi": 63,
      "hit": false,
      "t": 35700,
      "d": 1050,
      "v": 36
    },
    {
      "midi": 70,
      "hit": false,
      "t": 36000,
      "d": 770,
      "v": 50
    },
    {
      "midi": 55,
      "hit": false,
      "t": 36000,
      "d": 1825,
      "v": 51
    },
    {
      "midi": 62,
      "hit": false,
      "t": 36600,
      "d": 1015,
      "v": 56
    },
    {
      "midi": 70,
      "hit": false,
      "t": 36900,
      "d": 460,
      "v": 20
    },
    {
      "midi": 63,
      "hit": false,
      "t": 36900,
      "d": 990,
      "v": 74
    },
    {
      "midi": 51,
      "hit": false,
      "t": 37200,
      "d": 705,
      "v": 30
    },
    {
      "midi": 67,
      "hit": false,
      "t": 37500,
      "d": 210,
      "v": 54
    },
    {
      "midi": 70,
      "hit": false,
      "t": 37500,
      "d": 315,
      "v": 31
    },
    {
      "midi": 62,
      "hit": false,
      "t": 37800,
      "d": 670,
      "v": 65
    },
    {
      "midi": 65,
      "hit": false,
      "t": 38100,
      "d": 200,
      "v": 25
    },
    {
      "midi": 60,
      "hit": false,
      "t": 38400,
      "d": 370,
      "v": 75
    },
    {
      "midi": 72,
      "hit": false,
      "t": 38400,
      "d": 500,
      "v": 86
    },
    {
      "midi": 65,
      "hit": false,
      "t": 38400,
      "d": 655,
      "v": 57
    },
    {
      "midi": 68,
      "hit": false,
      "t": 38400,
      "d": 765,
      "v": 80
    },
    {
      "midi": 53,
      "hit": false,
      "t": 38400,
      "d": 990,
      "v": 73
    },
    {
      "midi": 56,
      "hit": false,
      "t": 38400,
      "d": 4405,
      "v": 65
    },
    {
      "midi": 63,
      "hit": false,
      "t": 39000,
      "d": 1030,
      "v": 60
    },
    {
      "midi": 60,
      "hit": false,
      "t": 39000,
      "d": 1105,
      "v": 60
    },
    {
      "midi": 68,
      "hit": false,
      "t": 39300,
      "d": 1490,
      "v": 72
    },
    {
      "midi": 72,
      "hit": false,
      "t": 39600,
      "d": 335,
      "v": 71
    },
    {
      "midi": 53,
      "hit": false,
      "t": 39600,
      "d": 450,
      "v": 39
    },
    {
      "midi": 65,
      "hit": false,
      "t": 39900,
      "d": 105,
      "v": 46
    },
    {
      "midi": 72,
      "hit": false,
      "t": 40200,
      "d": 345,
      "v": 45
    },
    {
      "midi": 53,
      "hit": false,
      "t": 40200,
      "d": 385,
      "v": 28
    },
    {
      "midi": 60,
      "hit": false,
      "t": 40200,
      "d": 570,
      "v": 13
    },
    {
      "midi": 65,
      "hit": false,
      "t": 40500,
      "d": 270,
      "v": 47
    },
    {
      "midi": 63,
      "hit": false,
      "t": 40500,
      "d": 665,
      "v": 40
    },
    {
      "midi": 53,
      "hit": false,
      "t": 41100,
      "d": 380,
      "v": 60
    },
    {
      "midi": 72,
      "hit": false,
      "t": 41100,
      "d": 530,
      "v": 70
    },
    {
      "midi": 60,
      "hit": false,
      "t": 41100,
      "d": 1640,
      "v": 27
    },
    {
      "midi": 65,
      "hit": false,
      "t": 41100,
      "d": 1730,
      "v": 58
    },
    {
      "midi": 68,
      "hit": false,
      "t": 41100,
      "d": 1920,
      "v": 51
    },
    {
      "midi": 53,
      "hit": false,
      "t": 41700,
      "d": 295,
      "v": 17
    },
    {
      "midi": 63,
      "hit": false,
      "t": 41700,
      "d": 785,
      "v": 46
    },
    {
      "midi": 72,
      "hit": false,
      "t": 42000,
      "d": 300,
      "v": 66
    },
    {
      "midi": 53,
      "hit": false,
      "t": 42000,
      "d": 545,
      "v": 25
    },
    {
      "midi": 72,
      "hit": false,
      "t": 42600,
      "d": 110,
      "v": 29
    },
    {
      "midi": 60,
      "hit": false,
      "t": 42900,
      "d": 75,
      "v": 27
    },
    {
      "midi": 65,
      "hit": false,
      "t": 42900,
      "d": 175,
      "v": 11
    },
    {
      "midi": 63,
      "hit": false,
      "t": 42900,
      "d": 215,
      "v": 61
    },
    {
      "midi": 72,
      "hit": false,
      "t": 43200,
      "d": 650,
      "v": 81
    },
    {
      "midi": 68,
      "hit": false,
      "t": 43200,
      "d": 735,
      "v": 66
    },
    {
      "midi": 51,
      "hit": false,
      "t": 43200,
      "d": 940,
      "v": 26
    },
    {
      "midi": 56,
      "hit": false,
      "t": 43200,
      "d": 1865,
      "v": 61
    },
    {
      "midi": 60,
      "hit": false,
      "t": 43500,
      "d": 275,
      "v": 15
    },
    {
      "midi": 60,
      "hit": false,
      "t": 43800,
      "d": 945,
      "v": 56
    },
    {
      "midi": 72,
      "hit": false,
      "t": 44100,
      "d": 975,
      "v": 67
    },
    {
      "midi": 63,
      "hit": false,
      "t": 44100,
      "d": 1015,
      "v": 62
    },
    {
      "midi": 68,
      "hit": false,
      "t": 44100,
      "d": 1025,
      "v": 23
    },
    {
      "midi": 51,
      "hit": false,
      "t": 44400,
      "d": 940,
      "v": 11
    },
    {
      "midi": 60,
      "hit": false,
      "t": 45000,
      "d": 590,
      "v": 62
    },
    {
      "midi": 63,
      "hit": false,
      "t": 45300,
      "d": 390,
      "v": 41
    },
    {
      "midi": 70,
      "hit": false,
      "t": 45600,
      "d": 780,
      "v": 67
    },
    {
      "midi": 50,
      "hit": false,
      "t": 45600,
      "d": 885,
      "v": 54
    },
    {
      "midi": 55,
      "hit": false,
      "t": 45600,
      "d": 1755,
      "v": 57
    },
    {
      "midi": 67,
      "hit": false,
      "t": 45600,
      "d": 1915,
      "v": 61
    },
    {
      "midi": 58,
      "hit": false,
      "t": 46200,
      "d": 915,
      "v": 39
    },
    {
      "midi": 62,
      "hit": false,
      "t": 46500,
      "d": 410,
      "v": 56
    },
    {
      "midi": 70,
      "hit": false,
      "t": 46500,
      "d": 1180,
      "v": 60
    },
    {
      "midi": 50,
      "hit": false,
      "t": 46800,
      "d": 750,
      "v": 33
    },
    {
      "midi": 62,
      "hit": false,
      "t": 47100,
      "d": 345,
      "v": 51
    },
    {
      "midi": 58,
      "hit": false,
      "t": 47400,
      "d": 620,
      "v": 50
    },
    {
      "midi": 62,
      "hit": false,
      "t": 47700,
      "d": 340,
      "v": 42
    },
    {
      "midi": 65,
      "hit": false,
      "t": 48000,
      "d": 665,
      "v": 74
    },
    {
      "midi": 53,
      "hit": false,
      "t": 48000,
      "d": 1785,
      "v": 55
    },
    {
      "midi": 68,
      "hit": false,
      "t": 48000,
      "d": 2175,
      "v": 56
    },
    {
      "midi": 56,
      "hit": false,
      "t": 48600,
      "d": 1085,
      "v": 67
    },
    {
      "midi": 60,
      "hit": false,
      "t": 48900,
      "d": 535,
      "v": 50
    },
    {
      "midi": 65,
      "hit": false,
      "t": 48900,
      "d": 1380,
      "v": 68
    },
    {
      "midi": 48,
      "hit": false,
      "t": 49200,
      "d": 540,
      "v": 41
    },
    {
      "midi": 60,
      "hit": false,
      "t": 49500,
      "d": 445,
      "v": 38
    },
    {
      "midi": 56,
      "hit": false,
      "t": 49800,
      "d": 555,
      "v": 47
    },
    {
      "midi": 63,
      "hit": false,
      "t": 50400,
      "d": 660,
      "v": 61
    },
    {
      "midi": 68,
      "hit": false,
      "t": 50400,
      "d": 2150,
      "v": 73
    },
    {
      "midi": 56,
      "hit": false,
      "t": 50400,
      "d": 2415,
      "v": 51
    },
    {
      "midi": 51,
      "hit": false,
      "t": 50400,
      "d": 2565,
      "v": 56
    },
    {
      "midi": 60,
      "hit": false,
      "t": 51000,
      "d": 965,
      "v": 52
    },
    {
      "midi": 63,
      "hit": false,
      "t": 51300,
      "d": 1100,
      "v": 39
    },
    {
      "midi": 72,
      "hit": false,
      "t": 51900,
      "d": 590,
      "v": 62
    },
    {
      "midi": 60,
      "hit": false,
      "t": 52200,
      "d": 615,
      "v": 55
    },
    {
      "midi": 63,
      "hit": false,
      "t": 52500,
      "d": 980,
      "v": 38
    },
    {
      "midi": 55,
      "hit": false,
      "t": 52800,
      "d": 1015,
      "v": 54
    },
    {
      "midi": 67,
      "hit": false,
      "t": 52800,
      "d": 1995,
      "v": 69
    },
    {
      "midi": 70,
      "hit": false,
      "t": 52800,
      "d": 2130,
      "v": 60
    },
    {
      "midi": 51,
      "hit": false,
      "t": 53100,
      "d": 9070,
      "v": 7
    },
    {
      "midi": 58,
      "hit": false,
      "t": 53400,
      "d": 1045,
      "v": 65
    },
    {
      "midi": 63,
      "hit": false,
      "t": 53700,
      "d": 920,
      "v": 60
    },
    {
      "midi": 55,
      "hit": false,
      "t": 54000,
      "d": 795,
      "v": 12
    },
    {
      "midi": 58,
      "hit": false,
      "t": 54600,
      "d": 255,
      "v": 49
    },
    {
      "midi": 63,
      "hit": false,
      "t": 54900,
      "d": 1100,
      "v": 24
    },
    {
      "midi": 60,
      "hit": false,
      "t": 55200,
      "d": 475,
      "v": 29
    },
    {
      "midi": 56,
      "hit": false,
      "t": 55200,
      "d": 1640,
      "v": 39
    },
    {
      "midi": 68,
      "hit": false,
      "t": 55200,
      "d": 2140,
      "v": 74
    },
    {
      "midi": 60,
      "hit": false,
      "t": 55800,
      "d": 940,
      "v": 38
    },
    {
      "midi": 63,
      "hit": false,
      "t": 56100,
      "d": 2145,
      "v": 52
    },
    {
      "midi": 56,
      "hit": false,
      "t": 57000,
      "d": 555,
      "v": 50
    },
    {
      "midi": 60,
      "hit": false,
      "t": 57000,
      "d": 600,
      "v": 53
    },
    {
      "midi": 55,
      "hit": false,
      "t": 57600,
      "d": 2205,
      "v": 26
    },
    {
      "midi": 70,
      "hit": false,
      "t": 57600,
      "d": 4270,
      "v": 58
    },
    {
      "midi": 67,
      "hit": false,
      "t": 57600,
      "d": 4575,
      "v": 65
    },
    {
      "midi": 58,
      "hit": false,
      "t": 58200,
      "d": 1140,
      "v": 42
    },
    {
      "midi": 63,
      "hit": false,
      "t": 58500,
      "d": 2265,
      "v": 54
    },
    {
      "midi": 58,
      "hit": false,
      "t": 59400,
      "d": 1185,
      "v": 24
    },
    {
      "midi": 55,
      "hit": false,
      "t": 60000,
      "d": 885,
      "v": 33
    },
    {
      "midi": 58,
      "hit": false,
      "t": 60600,
      "d": 970,
      "v": 25
    },
    {
      "midi": 63,
      "hit": false,
      "t": 60900,
      "d": 510,
      "v": 27
    },
    {
      "midi": 55,
      "hit": false,
      "t": 61200,
      "d": 735,
      "v": 20
    },
    {
      "midi": 63,
      "hit": false,
      "t": 61500,
      "d": 340,
      "v": 48
    },
    {
      "midi": 58,
      "hit": false,
      "t": 61800,
      "d": 270,
      "v": 39
    },
    {
      "midi": 63,
      "hit": false,
      "t": 62100,
      "d": 160,
      "v": 34
    },
    {
      "midi": 62,
      "hit": false,
      "t": 62400,
      "d": 375,
      "v": 26
    },
    {
      "midi": 51,
      "hit": false,
      "t": 62400,
      "d": 735,
      "v": 22
    },
    {
      "midi": 63,
      "hit": false,
      "t": 62400,
      "d": 745,
      "v": 52
    },
    {
      "midi": 70,
      "hit": false,
      "t": 62400,
      "d": 1915,
      "v": 58
    },
    {
      "midi": 67,
      "hit": false,
      "t": 62400,
      "d": 2150,
      "v": 60
    },
    {
      "midi": 55,
      "hit": false,
      "t": 62400,
      "d": 2180,
      "v": 36
    },
    {
      "midi": 74,
      "hit": false,
      "t": 62400,
      "d": 2280,
      "v": 56
    },
    {
      "midi": 58,
      "hit": false,
      "t": 62400,
      "d": 4320,
      "v": 43
    },
    {
      "midi": 62,
      "hit": false,
      "t": 63000,
      "d": 920,
      "v": 50
    },
    {
      "midi": 63,
      "hit": false,
      "t": 63300,
      "d": 360,
      "v": 49
    },
    {
      "midi": 51,
      "hit": false,
      "t": 63600,
      "d": 1070,
      "v": 23
    },
    {
      "midi": 63,
      "hit": false,
      "t": 63900,
      "d": 385,
      "v": 37
    },
    {
      "midi": 62,
      "hit": false,
      "t": 64200,
      "d": 875,
      "v": 42
    },
    {
      "midi": 63,
      "hit": false,
      "t": 64500,
      "d": 1045,
      "v": 31
    },
    {
      "midi": 67,
      "hit": false,
      "t": 64800,
      "d": 780,
      "v": 68
    },
    {
      "midi": 51,
      "hit": false,
      "t": 64800,
      "d": 900,
      "v": 17
    },
    {
      "midi": 55,
      "hit": false,
      "t": 64800,
      "d": 1015,
      "v": 41
    },
    {
      "midi": 70,
      "hit": false,
      "t": 64800,
      "d": 1820,
      "v": 58
    },
    {
      "midi": 74,
      "hit": false,
      "t": 64800,
      "d": 1985,
      "v": 62
    },
    {
      "midi": 62,
      "hit": false,
      "t": 65400,
      "d": 910,
      "v": 47
    },
    {
      "midi": 63,
      "hit": false,
      "t": 65700,
      "d": 445,
      "v": 56
    },
    {
      "midi": 67,
      "hit": false,
      "t": 65700,
      "d": 515,
      "v": 59
    },
    {
      "midi": 55,
      "hit": false,
      "t": 66000,
      "d": 600,
      "v": 22
    },
    {
      "midi": 51,
      "hit": false,
      "t": 66000,
      "d": 705,
      "v": 24
    },
    {
      "midi": 67,
      "hit": false,
      "t": 66300,
      "d": 280,
      "v": 57
    },
    {
      "midi": 63,
      "hit": false,
      "t": 66300,
      "d": 665,
      "v": 60
    },
    {
      "midi": 62,
      "hit": false,
      "t": 66600,
      "d": 590,
      "v": 59
    },
    {
      "midi": 72,
      "hit": false,
      "t": 67200,
      "d": 180,
      "v": 71
    },
    {
      "midi": 60,
      "hit": false,
      "t": 67200,
      "d": 345,
      "v": 69
    },
    {
      "midi": 68,
      "hit": false,
      "t": 67200,
      "d": 730,
      "v": 64
    },
    {
      "midi": 53,
      "hit": false,
      "t": 67200,
      "d": 845,
      "v": 61
    },
    {
      "midi": 56,
      "hit": false,
      "t": 67200,
      "d": 2080,
      "v": 53
    },
    {
      "midi": 72,
      "hit": false,
      "t": 67500,
      "d": 195,
      "v": 9
    },
    {
      "midi": 60,
      "hit": false,
      "t": 67800,
      "d": 435,
      "v": 57
    },
    {
      "midi": 63,
      "hit": false,
      "t": 67800,
      "d": 985,
      "v": 42
    },
    {
      "midi": 72,
      "hit": false,
      "t": 68100,
      "d": 1015,
      "v": 72
    },
    {
      "midi": 65,
      "hit": false,
      "t": 68100,
      "d": 1040,
      "v": 60
    },
    {
      "midi": 68,
      "hit": false,
      "t": 68100,
      "d": 3465,
      "v": 53
    },
    {
      "midi": 53,
      "hit": false,
      "t": 68400,
      "d": 2235,
      "v": 46
    },
    {
      "midi": 63,
      "hit": false,
      "t": 69000,
      "d": 950,
      "v": 41
    },
    {
      "midi": 65,
      "hit": false,
      "t": 69300,
      "d": 1095,
      "v": 40
    },
    {
      "midi": 72,
      "hit": false,
      "t": 69600,
      "d": 565,
      "v": 41
    },
    {
      "midi": 56,
      "hit": false,
      "t": 69600,
      "d": 2065,
      "v": 42
    },
    {
      "midi": 63,
      "hit": false,
      "t": 70200,
      "d": 760,
      "v": 47
    },
    {
      "midi": 72,
      "hit": false,
      "t": 70500,
      "d": 105,
      "v": 48
    },
    {
      "midi": 65,
      "hit": false,
      "t": 70500,
      "d": 435,
      "v": 57
    },
    {
      "midi": 53,
      "hit": false,
      "t": 70800,
      "d": 440,
      "v": 36
    },
    {
      "midi": 72,
      "hit": false,
      "t": 71100,
      "d": 155,
      "v": 43
    },
    {
      "midi": 65,
      "hit": false,
      "t": 71100,
      "d": 645,
      "v": 63
    },
    {
      "midi": 60,
      "hit": false,
      "t": 71400,
      "d": 20,
      "v": 38
    },
    {
      "midi": 63,
      "hit": false,
      "t": 71400,
      "d": 375,
      "v": 55
    },
    {
      "midi": 70,
      "hit": false,
      "t": 72000,
      "d": 90,
      "v": 43
    },
    {
      "midi": 67,
      "hit": false,
      "t": 72000,
      "d": 675,
      "v": 55
    },
    {
      "midi": 74,
      "hit": false,
      "t": 72000,
      "d": 685,
      "v": 71
    },
    {
      "midi": 51,
      "hit": false,
      "t": 72000,
      "d": 3440,
      "v": 11
    },
    {
      "midi": 58,
      "hit": false,
      "t": 72000,
      "d": 4335,
      "v": 60
    },
    {
      "midi": 70,
      "hit": false,
      "t": 72300,
      "d": 340,
      "v": 7
    },
    {
      "midi": 55,
      "hit": false,
      "t": 72300,
      "d": 2095,
      "v": 11
    },
    {
      "midi": 62,
      "hit": false,
      "t": 72600,
      "d": 1060,
      "v": 45
    },
    {
      "midi": 63,
      "hit": false,
      "t": 72900,
      "d": 1125,
      "v": 58
    },
    {
      "midi": 70,
      "hit": false,
      "t": 72900,
      "d": 2285,
      "v": 47
    },
    {
      "midi": 74,
      "hit": false,
      "t": 72900,
      "d": 2320,
      "v": 54
    },
    {
      "midi": 67,
      "hit": false,
      "t": 72900,
      "d": 2325,
      "v": 64
    },
    {
      "midi": 62,
      "hit": false,
      "t": 73800,
      "d": 1150,
      "v": 53
    },
    {
      "midi": 63,
      "hit": false,
      "t": 74100,
      "d": 1070,
      "v": 14
    },
    {
      "midi": 55,
      "hit": false,
      "t": 74400,
      "d": 1795,
      "v": 54
    },
    {
      "midi": 62,
      "hit": false,
      "t": 75000,
      "d": 885,
      "v": 56
    },
    {
      "midi": 63,
      "hit": false,
      "t": 75300,
      "d": 390,
      "v": 55
    },
    {
      "midi": 70,
      "hit": false,
      "t": 75300,
      "d": 470,
      "v": 59
    },
    {
      "midi": 74,
      "hit": false,
      "t": 75300,
      "d": 470,
      "v": 55
    },
    {
      "midi": 67,
      "hit": false,
      "t": 75300,
      "d": 490,
      "v": 74
    },
    {
      "midi": 51,
      "hit": false,
      "t": 75600,
      "d": 745,
      "v": 18
    },
    {
      "midi": 67,
      "hit": false,
      "t": 75900,
      "d": 195,
      "v": 63
    },
    {
      "midi": 70,
      "hit": false,
      "t": 75900,
      "d": 360,
      "v": 24
    },
    {
      "midi": 74,
      "hit": false,
      "t": 75900,
      "d": 615,
      "v": 54
    },
    {
      "midi": 63,
      "hit": false,
      "t": 75900,
      "d": 665,
      "v": 61
    },
    {
      "midi": 62,
      "hit": false,
      "t": 76200,
      "d": 575,
      "v": 71
    },
    {
      "midi": 53,
      "hit": false,
      "t": 76800,
      "d": 885,
      "v": 72
    },
    {
      "midi": 72,
      "hit": false,
      "t": 76800,
      "d": 1840,
      "v": 62
    },
    {
      "midi": 56,
      "hit": false,
      "t": 76800,
      "d": 2010,
      "v": 66
    },
    {
      "midi": 68,
      "hit": false,
      "t": 76800,
      "d": 3805,
      "v": 5
    },
    {
      "midi": 60,
      "hit": false,
      "t": 76800,
      "d": 4055,
      "v": 70
    },
    {
      "midi": 63,
      "hit": false,
      "t": 77400,
      "d": 915,
      "v": 24
    },
    {
      "midi": 65,
      "hit": false,
      "t": 77700,
      "d": 935,
      "v": 50
    },
    {
      "midi": 53,
      "hit": false,
      "t": 78000,
      "d": 2145,
      "v": 45
    },
    {
      "midi": 63,
      "hit": false,
      "t": 78600,
      "d": 1145,
      "v": 34
    },
    {
      "midi": 72,
      "hit": false,
      "t": 78900,
      "d": 860,
      "v": 13
    },
    {
      "midi": 65,
      "hit": false,
      "t": 78900,
      "d": 1085,
      "v": 41
    },
    {
      "midi": 56,
      "hit": false,
      "t": 79200,
      "d": 2070,
      "v": 53
    },
    {
      "midi": 63,
      "hit": false,
      "t": 79800,
      "d": 585,
      "v": 40
    },
    {
      "midi": 72,
      "hit": false,
      "t": 80100,
      "d": 310,
      "v": 54
    },
    {
      "midi": 65,
      "hit": false,
      "t": 80100,
      "d": 425,
      "v": 50
    },
    {
      "midi": 53,
      "hit": false,
      "t": 80400,
      "d": 415,
      "v": 47
    },
    {
      "midi": 72,
      "hit": false,
      "t": 80700,
      "d": 115,
      "v": 48
    },
    {
      "midi": 65,
      "hit": false,
      "t": 80700,
      "d": 330,
      "v": 63
    },
    {
      "midi": 68,
      "hit": false,
      "t": 80700,
      "d": 395,
      "v": 17
    },
    {
      "midi": 60,
      "hit": false,
      "t": 81000,
      "d": 120,
      "v": 15
    },
    {
      "midi": 63,
      "hit": false,
      "t": 81000,
      "d": 370,
      "v": 63
    },
    {
      "midi": 65,
      "hit": false,
      "t": 81300,
      "d": 300,
      "v": 25
    },
    {
      "midi": 72,
      "hit": false,
      "t": 81600,
      "d": 725,
      "v": 79
    },
    {
      "midi": 68,
      "hit": false,
      "t": 81600,
      "d": 765,
      "v": 80
    },
    {
      "midi": 56,
      "hit": false,
      "t": 81600,
      "d": 1900,
      "v": 81
    },
    {
      "midi": 51,
      "hit": false,
      "t": 81600,
      "d": 2150,
      "v": 5
    },
    {
      "midi": 60,
      "hit": false,
      "t": 82200,
      "d": 1005,
      "v": 69
    },
    {
      "midi": 63,
      "hit": false,
      "t": 82500,
      "d": 545,
      "v": 72
    },
    {
      "midi": 72,
      "hit": false,
      "t": 82500,
      "d": 1255,
      "v": 52
    },
    {
      "midi": 68,
      "hit": false,
      "t": 82500,
      "d": 1360,
      "v": 49
    },
    {
      "midi": 63,
      "hit": false,
      "t": 83100,
      "d": 345,
      "v": 42
    },
    {
      "midi": 60,
      "hit": false,
      "t": 83400,
      "d": 615,
      "v": 71
    },
    {
      "midi": 63,
      "hit": false,
      "t": 83700,
      "d": 320,
      "v": 47
    },
    {
      "midi": 50,
      "hit": false,
      "t": 84000,
      "d": 975,
      "v": 48
    },
    {
      "midi": 67,
      "hit": false,
      "t": 84000,
      "d": 1595,
      "v": 65
    },
    {
      "midi": 55,
      "hit": false,
      "t": 84000,
      "d": 1895,
      "v": 65
    },
    {
      "midi": 70,
      "hit": false,
      "t": 84000,
      "d": 2310,
      "v": 63
    },
    {
      "midi": 58,
      "hit": false,
      "t": 84600,
      "d": 865,
      "v": 34
    },
    {
      "midi": 62,
      "hit": false,
      "t": 84900,
      "d": 445,
      "v": 52
    },
    {
      "midi": 50,
      "hit": false,
      "t": 85200,
      "d": 660,
      "v": 38
    },
    {
      "midi": 62,
      "hit": false,
      "t": 85500,
      "d": 420,
      "v": 54
    },
    {
      "midi": 58,
      "hit": false,
      "t": 85800,
      "d": 665,
      "v": 81
    },
    {
      "midi": 62,
      "hit": false,
      "t": 86100,
      "d": 325,
      "v": 41
    },
    {
      "midi": 53,
      "hit": false,
      "t": 86400,
      "d": 1720,
      "v": 62
    },
    {
      "midi": 68,
      "hit": false,
      "t": 86400,
      "d": 1800,
      "v": 65
    },
    {
      "midi": 65,
      "hit": false,
      "t": 86400,
      "d": 2165,
      "v": 61
    },
    {
      "midi": 56,
      "hit": false,
      "t": 87000,
      "d": 920,
      "v": 73
    },
    {
      "midi": 60,
      "hit": false,
      "t": 87300,
      "d": 440,
      "v": 50
    },
    {
      "midi": 60,
      "hit": false,
      "t": 87900,
      "d": 355,
      "v": 52
    },
    {
      "midi": 56,
      "hit": false,
      "t": 88200,
      "d": 3070,
      "v": 70
    },
    {
      "midi": 68,
      "hit": false,
      "t": 88500,
      "d": 165,
      "v": 9
    },
    {
      "midi": 63,
      "hit": false,
      "t": 88800,
      "d": 545,
      "v": 60
    },
    {
      "midi": 51,
      "hit": false,
      "t": 88800,
      "d": 1055,
      "v": 48
    },
    {
      "midi": 68,
      "hit": false,
      "t": 88800,
      "d": 2260,
      "v": 26
    },
    {
      "midi": 60,
      "hit": false,
      "t": 89400,
      "d": 1115,
      "v": 66
    },
    {
      "midi": 63,
      "hit": false,
      "t": 89700,
      "d": 1005,
      "v": 49
    },
    {
      "midi": 51,
      "hit": false,
      "t": 90000,
      "d": 2935,
      "v": 29
    },
    {
      "midi": 72,
      "hit": false,
      "t": 90300,
      "d": 625,
      "v": 72
    },
    {
      "midi": 60,
      "hit": false,
      "t": 90600,
      "d": 635,
      "v": 59
    },
    {
      "midi": 63,
      "hit": false,
      "t": 90900,
      "d": 1045,
      "v": 19
    },
    {
      "midi": 55,
      "hit": false,
      "t": 91200,
      "d": 940,
      "v": 39
    },
    {
      "midi": 67,
      "hit": false,
      "t": 91200,
      "d": 1965,
      "v": 67
    },
    {
      "midi": 70,
      "hit": false,
      "t": 91200,
      "d": 2300,
      "v": 67
    },
    {
      "midi": 58,
      "hit": false,
      "t": 91800,
      "d": 1000,
      "v": 43
    },
    {
      "midi": 63,
      "hit": false,
      "t": 92100,
      "d": 965,
      "v": 56
    },
    {
      "midi": 55,
      "hit": false,
      "t": 92400,
      "d": 830,
      "v": 13
    },
    {
      "midi": 58,
      "hit": false,
      "t": 93000,
      "d": 375,
      "v": 53
    },
    {
      "midi": 51,
      "hit": false,
      "t": 93000,
      "d": 5190,
      "v": 16
    },
    {
      "midi": 63,
      "hit": false,
      "t": 93300,
      "d": 115,
      "v": 8
    },
    {
      "midi": 63,
      "hit": false,
      "t": 93600,
      "d": 685,
      "v": 60
    },
    {
      "midi": 68,
      "hit": false,
      "t": 93600,
      "d": 2165,
      "v": 60
    },
    {
      "midi": 56,
      "hit": false,
      "t": 93600,
      "d": 2395,
      "v": 63
    },
    {
      "midi": 60,
      "hit": false,
      "t": 94200,
      "d": 995,
      "v": 50
    },
    {
      "midi": 63,
      "hit": false,
      "t": 94500,
      "d": 970,
      "v": 34
    },
    {
      "midi": 72,
      "hit": false,
      "t": 95100,
      "d": 585,
      "v": 68
    },
    {
      "midi": 60,
      "hit": false,
      "t": 95400,
      "d": 610,
      "v": 56
    },
    {
      "midi": 63,
      "hit": false,
      "t": 95700,
      "d": 1055,
      "v": 38
    },
    {
      "midi": 55,
      "hit": false,
      "t": 96000,
      "d": 4195,
      "v": 39
    },
    {
      "midi": 70,
      "hit": false,
      "t": 96000,
      "d": 4215,
      "v": 63
    },
    {
      "midi": 67,
      "hit": false,
      "t": 96000,
      "d": 4220,
      "v": 68
    },
    {
      "midi": 58,
      "hit": false,
      "t": 96600,
      "d": 3315,
      "v": 46
    },
    {
      "midi": 63,
      "hit": false,
      "t": 96900,
      "d": 3425,
      "v": 39
    },
    {
      "midi": 51,
      "hit": false,
      "t": 98400,
      "d": 1885,
      "v": 10
    },
    {
      "midi": 58,
      "hit": false,
      "t": 100200,
      "d": 550,
      "v": 45
    },
    {
      "midi": 65,
      "hit": false,
      "t": 100800,
      "d": 575,
      "v": 89
    },
    {
      "midi": 68,
      "hit": false,
      "t": 100800,
      "d": 610,
      "v": 52
    },
    {
      "midi": 49,
      "hit": false,
      "t": 100800,
      "d": 1750,
      "v": 69
    },
    {
      "midi": 56,
      "hit": false,
      "t": 101400,
      "d": 1870,
      "v": 92
    },
    {
      "midi": 61,
      "hit": false,
      "t": 101700,
      "d": 555,
      "v": 72
    },
    {
      "midi": 68,
      "hit": false,
      "t": 101700,
      "d": 1115,
      "v": 62
    },
    {
      "midi": 65,
      "hit": false,
      "t": 101700,
      "d": 1235,
      "v": 87
    },
    {
      "midi": 53,
      "hit": false,
      "t": 102000,
      "d": 540,
      "v": 37
    },
    {
      "midi": 61,
      "hit": false,
      "t": 102300,
      "d": 385,
      "v": 50
    },
    {
      "midi": 53,
      "hit": false,
      "t": 102600,
      "d": 390,
      "v": 63
    },
    {
      "midi": 49,
      "hit": false,
      "t": 102600,
      "d": 2490,
      "v": 25
    },
    {
      "midi": 61,
      "hit": false,
      "t": 102900,
      "d": 230,
      "v": 39
    },
    {
      "midi": 61,
      "hit": false,
      "t": 103200,
      "d": 695,
      "v": 42
    },
    {
      "midi": 70,
      "hit": false,
      "t": 103200,
      "d": 700,
      "v": 77
    },
    {
      "midi": 66,
      "hit": false,
      "t": 103200,
      "d": 705,
      "v": 63
    },
    {
      "midi": 54,
      "hit": false,
      "t": 103200,
      "d": 1880,
      "v": 51
    },
    {
      "midi": 58,
      "hit": false,
      "t": 103800,
      "d": 1005,
      "v": 78
    },
    {
      "midi": 61,
      "hit": false,
      "t": 104100,
      "d": 525,
      "v": 62
    },
    {
      "midi": 66,
      "hit": false,
      "t": 104100,
      "d": 1045,
      "v": 51
    },
    {
      "midi": 70,
      "hit": false,
      "t": 104100,
      "d": 1325,
      "v": 38
    },
    {
      "midi": 61,
      "hit": false,
      "t": 104700,
      "d": 375,
      "v": 46
    },
    {
      "midi": 58,
      "hit": false,
      "t": 105000,
      "d": 330,
      "v": 84
    },
    {
      "midi": 61,
      "hit": false,
      "t": 105300,
      "d": 175,
      "v": 51
    },
    {
      "midi": 54,
      "hit": false,
      "t": 105600,
      "d": 385,
      "v": 51
    },
    {
      "midi": 59,
      "hit": false,
      "t": 105600,
      "d": 620,
      "v": 51
    },
    {
      "midi": 66,
      "hit": false,
      "t": 105600,
      "d": 715,
      "v": 72
    },
    {
      "midi": 63,
      "hit": false,
      "t": 105600,
      "d": 810,
      "v": 68
    },
    {
      "midi": 47,
      "hit": false,
      "t": 105600,
      "d": 935,
      "v": 47
    },
    {
      "midi": 51,
      "hit": false,
      "t": 105600,
      "d": 1955,
      "v": 63
    },
    {
      "midi": 54,
      "hit": false,
      "t": 106200,
      "d": 1035,
      "v": 69
    },
    {
      "midi": 59,
      "hit": false,
      "t": 106500,
      "d": 385,
      "v": 60
    },
    {
      "midi": 63,
      "hit": false,
      "t": 106500,
      "d": 985,
      "v": 69
    },
    {
      "midi": 66,
      "hit": false,
      "t": 106500,
      "d": 1220,
      "v": 67
    },
    {
      "midi": 47,
      "hit": false,
      "t": 106800,
      "d": 500,
      "v": 11
    },
    {
      "midi": 59,
      "hit": false,
      "t": 107100,
      "d": 320,
      "v": 57
    },
    {
      "midi": 57,
      "hit": false,
      "t": 107400,
      "d": 320,
      "v": 26
    },
    {
      "midi": 54,
      "hit": false,
      "t": 107400,
      "d": 545,
      "v": 66
    },
    {
      "midi": 59,
      "hit": false,
      "t": 107700,
      "d": 175,
      "v": 19
    },
    {
      "midi": 65,
      "hit": false,
      "t": 108000,
      "d": 465,
      "v": 80
    },
    {
      "midi": 61,
      "hit": false,
      "t": 108000,
      "d": 650,
      "v": 84
    },
    {
      "midi": 46,
      "hit": false,
      "t": 108000,
      "d": 1935,
      "v": 51
    },
    {
      "midi": 53,
      "hit": false,
      "t": 108600,
      "d": 1085,
      "v": 62
    },
    {
      "midi": 65,
      "hit": false,
      "t": 108900,
      "d": 520,
      "v": 64
    },
    {
      "midi": 58,
      "hit": false,
      "t": 108900,
      "d": 1055,
      "v": 61
    },
    {
      "midi": 61,
      "hit": false,
      "t": 108900,
      "d": 1355,
      "v": 80
    },
    {
      "midi": 65,
      "hit": false,
      "t": 109500,
      "d": 400,
      "v": 20
    },
    {
      "midi": 53,
      "hit": false,
      "t": 109800,
      "d": 485,
      "v": 60
    },
    {
      "midi": 58,
      "hit": false,
      "t": 110100,
      "d": 145,
      "v": 20
    },
    {
      "midi": 59,
      "hit": false,
      "t": 110400,
      "d": 730,
      "v": 60
    },
    {
      "midi": 66,
      "hit": false,
      "t": 110400,
      "d": 770,
      "v": 69
    },
    {
      "midi": 63,
      "hit": false,
      "t": 110400,
      "d": 815,
      "v": 77
    },
    {
      "midi": 51,
      "hit": false,
      "t": 110400,
      "d": 995,
      "v": 22
    },
    {
      "midi": 47,
      "hit": false,
      "t": 110400,
      "d": 1675,
      "v": 57
    },
    {
      "midi": 54,
      "hit": false,
      "t": 110700,
      "d": 125,
      "v": 26
    },
    {
      "midi": 54,
      "hit": false,
      "t": 111000,
      "d": 1015,
      "v": 47
    },
    {
      "midi": 59,
      "hit": false,
      "t": 111300,
      "d": 375,
      "v": 68
    },
    {
      "midi": 63,
      "hit": false,
      "t": 111300,
      "d": 790,
      "v": 25
    },
    {
      "midi": 66,
      "hit": false,
      "t": 111300,
      "d": 1150,
      "v": 70
    },
    {
      "midi": 51,
      "hit": false,
      "t": 111600,
      "d": 715,
      "v": 16
    },
    {
      "midi": 59,
      "hit": false,
      "t": 111900,
      "d": 300,
      "v": 50
    },
    {
      "midi": 54,
      "hit": false,
      "t": 112200,
      "d": 595,
      "v": 55
    },
    {
      "midi": 65,
      "hit": false,
      "t": 112800,
      "d": 475,
      "v": 81
    },
    {
      "midi": 61,
      "hit": false,
      "t": 112800,
      "d": 545,
      "v": 84
    },
    {
      "midi": 46,
      "hit": false,
      "t": 112800,
      "d": 1950,
      "v": 66
    },
    {
      "midi": 53,
      "hit": false,
      "t": 113400,
      "d": 500,
      "v": 56
    },
    {
      "midi": 65,
      "hit": false,
      "t": 113700,
      "d": 785,
      "v": 80
    },
    {
      "midi": 61,
      "hit": false,
      "t": 113700,
      "d": 895,
      "v": 84
    },
    {
      "midi": 58,
      "hit": false,
      "t": 113700,
      "d": 940,
      "v": 66
    },
    {
      "midi": 53,
      "hit": false,
      "t": 114600,
      "d": 580,
      "v": 54
    },
    {
      "midi": 56,
      "hit": false,
      "t": 115200,
      "d": 590,
      "v": 62
    },
    {
      "midi": 63,
      "hit": false,
      "t": 115200,
      "d": 600,
      "v": 69
    },
    {
      "midi": 59,
      "hit": false,
      "t": 115200,
      "d": 605,
      "v": 75
    },
    {
      "midi": 44,
      "hit": false,
      "t": 115200,
      "d": 1750,
      "v": 37
    },
    {
      "midi": 51,
      "hit": false,
      "t": 115800,
      "d": 1000,
      "v": 44
    },
    {
      "midi": 59,
      "hit": false,
      "t": 116100,
      "d": 405,
      "v": 67
    },
    {
      "midi": 63,
      "hit": false,
      "t": 116100,
      "d": 450,
      "v": 51
    },
    {
      "midi": 56,
      "hit": false,
      "t": 116100,
      "d": 470,
      "v": 60
    },
    {
      "midi": 56,
      "hit": false,
      "t": 116700,
      "d": 230,
      "v": 41
    },
    {
      "midi": 59,
      "hit": false,
      "t": 116700,
      "d": 250,
      "v": 77
    },
    {
      "midi": 63,
      "hit": false,
      "t": 116700,
      "d": 330,
      "v": 61
    },
    {
      "midi": 44,
      "hit": false,
      "t": 117000,
      "d": 80,
      "v": 12
    },
    {
      "midi": 51,
      "hit": false,
      "t": 117000,
      "d": 220,
      "v": 82
    },
    {
      "midi": 61,
      "hit": false,
      "t": 117300,
      "d": 140,
      "v": 30
    },
    {
      "midi": 66,
      "hit": false,
      "t": 117600,
      "d": 305,
      "v": 10
    },
    {
      "midi": 54,
      "hit": false,
      "t": 117600,
      "d": 475,
      "v": 69
    },
    {
      "midi": 61,
      "hit": false,
      "t": 117600,
      "d": 495,
      "v": 33
    },
    {
      "midi": 58,
      "hit": false,
      "t": 118200,
      "d": 900,
      "v": 37
    },
    {
      "midi": 54,
      "hit": false,
      "t": 118200,
      "d": 1280,
      "v": 60
    },
    {
      "midi": 61,
      "hit": false,
      "t": 118500,
      "d": 440,
      "v": 67
    },
    {
      "midi": 66,
      "hit": false,
      "t": 118500,
      "d": 495,
      "v": 67
    },
    {
      "midi": 65,
      "hit": false,
      "t": 118500,
      "d": 530,
      "v": 90
    },
    {
      "midi": 61,
      "hit": false,
      "t": 119100,
      "d": 425,
      "v": 31
    },
    {
      "midi": 66,
      "hit": false,
      "t": 119100,
      "d": 485,
      "v": 24
    },
    {
      "midi": 65,
      "hit": false,
      "t": 119100,
      "d": 490,
      "v": 32
    },
    {
      "midi": 58,
      "hit": false,
      "t": 119400,
      "d": 400,
      "v": 85
    },
    {
      "midi": 61,
      "hit": false,
      "t": 119700,
      "d": 120,
      "v": 52
    },
    {
      "midi": 53,
      "hit": false,
      "t": 120000,
      "d": 1780,
      "v": 68
    },
    {
      "midi": 58,
      "hit": false,
      "t": 120000,
      "d": 2175,
      "v": 69
    },
    {
      "midi": 70,
      "hit": false,
      "t": 120000,
      "d": 2230,
      "v": 76
    },
    {
      "midi": 62,
      "hit": false,
      "t": 120600,
      "d": 1020,
      "v": 51
    },
    {
      "midi": 65,
      "hit": false,
      "t": 120900,
      "d": 1240,
      "v": 65
    },
    {
      "midi": 62,
      "hit": false,
      "t": 121800,
      "d": 420,
      "v": 52
    },
    {
      "midi": 62,
      "hit": false,
      "t": 122400,
      "d": 500,
      "v": 62
    },
    {
      "midi": 67,
      "hit": false,
      "t": 122400,
      "d": 740,
      "v": 75
    },
    {
      "midi": 70,
      "hit": false,
      "t": 122400,
      "d": 740,
      "v": 72
    },
    {
      "midi": 51,
      "hit": false,
      "t": 122400,
      "d": 755,
      "v": 56
    },
    {
      "midi": 58,
      "hit": false,
      "t": 122400,
      "d": 1655,
      "v": 73
    },
    {
      "midi": 55,
      "hit": false,
      "t": 122400,
      "d": 2325,
      "v": 58
    },
    {
      "midi": 62,
      "hit": false,
      "t": 123000,
      "d": 960,
      "v": 24
    },
    {
      "midi": 63,
      "hit": false,
      "t": 123300,
      "d": 960,
      "v": 57
    },
    {
      "midi": 51,
      "hit": false,
      "t": 123300,
      "d": 965,
      "v": 23
    },
    {
      "midi": 67,
      "hit": false,
      "t": 123300,
      "d": 1295,
      "v": 76
    },
    {
      "midi": 70,
      "hit": false,
      "t": 123300,
      "d": 1340,
      "v": 68
    },
    {
      "midi": 62,
      "hit": false,
      "t": 124200,
      "d": 985,
      "v": 59
    },
    {
      "midi": 58,
      "hit": false,
      "t": 124200,
      "d": 2580,
      "v": 60
    },
    {
      "midi": 63,
      "hit": false,
      "t": 124500,
      "d": 245,
      "v": 37
    },
    {
      "midi": 63,
      "hit": false,
      "t": 124800,
      "d": 700,
      "v": 63
    },
    {
      "midi": 67,
      "hit": false,
      "t": 124800,
      "d": 745,
      "v": 81
    },
    {
      "midi": 70,
      "hit": false,
      "t": 124800,
      "d": 755,
      "v": 72
    },
    {
      "midi": 51,
      "hit": false,
      "t": 124800,
      "d": 900,
      "v": 16
    },
    {
      "midi": 55,
      "hit": false,
      "t": 124800,
      "d": 1755,
      "v": 20
    },
    {
      "midi": 62,
      "hit": false,
      "t": 125400,
      "d": 820,
      "v": 51
    },
    {
      "midi": 63,
      "hit": false,
      "t": 125700,
      "d": 435,
      "v": 50
    },
    {
      "midi": 67,
      "hit": false,
      "t": 125700,
      "d": 510,
      "v": 63
    },
    {
      "midi": 70,
      "hit": false,
      "t": 125700,
      "d": 1015,
      "v": 52
    },
    {
      "midi": 51,
      "hit": false,
      "t": 126000,
      "d": 760,
      "v": 26
    },
    {
      "midi": 67,
      "hit": false,
      "t": 126300,
      "d": 355,
      "v": 50
    },
    {
      "midi": 63,
      "hit": false,
      "t": 126600,
      "d": 15,
      "v": 39
    },
    {
      "midi": 62,
      "hit": false,
      "t": 126600,
      "d": 545,
      "v": 55
    },
    {
      "midi": 56,
      "hit": false,
      "t": 127200,
      "d": 265,
      "v": 47
    },
    {
      "midi": 60,
      "hit": false,
      "t": 127200,
      "d": 305,
      "v": 66
    },
    {
      "midi": 72,
      "hit": false,
      "t": 127200,
      "d": 655,
      "v": 74
    },
    {
      "midi": 65,
      "hit": false,
      "t": 127200,
      "d": 690,
      "v": 63
    },
    {
      "midi": 68,
      "hit": false,
      "t": 127200,
      "d": 745,
      "v": 70
    },
    {
      "midi": 53,
      "hit": false,
      "t": 127200,
      "d": 750,
      "v": 9
    },
    {
      "midi": 56,
      "hit": false,
      "t": 127800,
      "d": 200,
      "v": 1
    },
    {
      "midi": 63,
      "hit": false,
      "t": 127800,
      "d": 1000,
      "v": 28
    },
    {
      "midi": 53,
      "hit": false,
      "t": 128100,
      "d": 610,
      "v": 48
    },
    {
      "midi": 56,
      "hit": false,
      "t": 128100,
      "d": 800,
      "v": 47
    },
    {
      "midi": 65,
      "hit": false,
      "t": 128100,
      "d": 1025,
      "v": 53
    },
    {
      "midi": 72,
      "hit": false,
      "t": 128100,
      "d": 1120,
      "v": 70
    },
    {
      "midi": 60,
      "hit": false,
      "t": 128100,
      "d": 1160,
      "v": 50
    },
    {
      "midi": 68,
      "hit": false,
      "t": 128100,
      "d": 1235,
      "v": 62
    },
    {
      "midi": 53,
      "hit": false,
      "t": 129000,
      "d": 390,
      "v": 11
    },
    {
      "midi": 63,
      "hit": false,
      "t": 129000,
      "d": 1025,
      "v": 36
    },
    {
      "midi": 53,
      "hit": false,
      "t": 129600,
      "d": 425,
      "v": 17
    },
    {
      "midi": 60,
      "hit": false,
      "t": 129600,
      "d": 485,
      "v": 54
    },
    {
      "midi": 72,
      "hit": false,
      "t": 129600,
      "d": 730,
      "v": 74
    },
    {
      "midi": 65,
      "hit": false,
      "t": 129600,
      "d": 750,
      "v": 60
    },
    {
      "midi": 68,
      "hit": false,
      "t": 129600,
      "d": 800,
      "v": 74
    },
    {
      "midi": 56,
      "hit": false,
      "t": 129600,
      "d": 2000,
      "v": 49
    },
    {
      "midi": 53,
      "hit": false,
      "t": 130200,
      "d": 170,
      "v": 33
    },
    {
      "midi": 60,
      "hit": false,
      "t": 130200,
      "d": 380,
      "v": 60
    },
    {
      "midi": 63,
      "hit": false,
      "t": 130200,
      "d": 820,
      "v": 52
    },
    {
      "midi": 72,
      "hit": false,
      "t": 130500,
      "d": 95,
      "v": 54
    },
    {
      "midi": 68,
      "hit": false,
      "t": 130500,
      "d": 290,
      "v": 58
    },
    {
      "midi": 75,
      "hit": false,
      "t": 130500,
      "d": 605,
      "v": 77
    },
    {
      "midi": 65,
      "hit": false,
      "t": 130500,
      "d": 920,
      "v": 62
    },
    {
      "midi": 53,
      "hit": false,
      "t": 130800,
      "d": 305,
      "v": 51
    },
    {
      "midi": 60,
      "hit": false,
      "t": 130800,
      "d": 580,
      "v": 28
    },
    {
      "midi": 72,
      "hit": false,
      "t": 131100,
      "d": 535,
      "v": 82
    },
    {
      "midi": 60,
      "hit": false,
      "t": 131400,
      "d": 130,
      "v": 57
    },
    {
      "midi": 63,
      "hit": false,
      "t": 131400,
      "d": 445,
      "v": 90
    },
    {
      "midi": 65,
      "hit": false,
      "t": 131700,
      "d": 180,
      "v": 54
    },
    {
      "midi": 70,
      "hit": false,
      "t": 132000,
      "d": 530,
      "v": 72
    },
    {
      "midi": 67,
      "hit": false,
      "t": 132000,
      "d": 610,
      "v": 60
    },
    {
      "midi": 51,
      "hit": false,
      "t": 132000,
      "d": 900,
      "v": 39
    },
    {
      "midi": 55,
      "hit": false,
      "t": 132000,
      "d": 3245,
      "v": 62
    },
    {
      "midi": 58,
      "hit": false,
      "t": 132000,
      "d": 4345,
      "v": 42
    },
    {
      "midi": 62,
      "hit": false,
      "t": 132600,
      "d": 915,
      "v": 33
    },
    {
      "midi": 63,
      "hit": false,
      "t": 132900,
      "d": 945,
      "v": 60
    },
    {
      "midi": 70,
      "hit": false,
      "t": 132900,
      "d": 970,
      "v": 47
    },
    {
      "midi": 67,
      "hit": false,
      "t": 132900,
      "d": 1055,
      "v": 59
    },
    {
      "midi": 51,
      "hit": false,
      "t": 133200,
      "d": 870,
      "v": 10
    },
    {
      "midi": 62,
      "hit": false,
      "t": 133800,
      "d": 885,
      "v": 35
    },
    {
      "midi": 63,
      "hit": false,
      "t": 134100,
      "d": 205,
      "v": 34
    },
    {
      "midi": 70,
      "hit": false,
      "t": 134400,
      "d": 665,
      "v": 70
    },
    {
      "midi": 67,
      "hit": false,
      "t": 134400,
      "d": 675,
      "v": 85
    },
    {
      "midi": 63,
      "hit": false,
      "t": 134400,
      "d": 695,
      "v": 69
    },
    {
      "midi": 51,
      "hit": false,
      "t": 134400,
      "d": 905,
      "v": 46
    },
    {
      "midi": 62,
      "hit": false,
      "t": 135000,
      "d": 820,
      "v": 48
    },
    {
      "midi": 63,
      "hit": false,
      "t": 135300,
      "d": 410,
      "v": 57
    },
    {
      "midi": 67,
      "hit": false,
      "t": 135300,
      "d": 475,
      "v": 68
    },
    {
      "midi": 70,
      "hit": false,
      "t": 135300,
      "d": 520,
      "v": 55
    },
    {
      "midi": 55,
      "hit": false,
      "t": 135600,
      "d": 640,
      "v": 11
    },
    {
      "midi": 51,
      "hit": false,
      "t": 135600,
      "d": 885,
      "v": 22
    },
    {
      "midi": 67,
      "hit": false,
      "t": 135900,
      "d": 285,
      "v": 71
    },
    {
      "midi": 63,
      "hit": false,
      "t": 135900,
      "d": 380,
      "v": 70
    },
    {
      "midi": 70,
      "hit": false,
      "t": 135900,
      "d": 415,
      "v": 20
    },
    {
      "midi": 62,
      "hit": false,
      "t": 136200,
      "d": 540,
      "v": 67
    },
    {
      "midi": 65,
      "hit": false,
      "t": 136500,
      "d": 175,
      "v": 50
    },
    {
      "midi": 60,
      "hit": false,
      "t": 136800,
      "d": 315,
      "v": 64
    },
    {
      "midi": 72,
      "hit": false,
      "t": 136800,
      "d": 640,
      "v": 60
    },
    {
      "midi": 53,
      "hit": false,
      "t": 136800,
      "d": 690,
      "v": 54
    },
    {
      "midi": 65,
      "hit": false,
      "t": 136800,
      "d": 705,
      "v": 39
    },
    {
      "midi": 68,
      "hit": false,
      "t": 136800,
      "d": 760,
      "v": 65
    },
    {
      "midi": 56,
      "hit": false,
      "t": 136800,
      "d": 2125,
      "v": 49
    },
    {
      "midi": 63,
      "hit": false,
      "t": 137400,
      "d": 890,
      "v": 42
    },
    {
      "midi": 53,
      "hit": false,
      "t": 137700,
      "d": 515,
      "v": 45
    },
    {
      "midi": 60,
      "hit": false,
      "t": 137700,
      "d": 605,
      "v": 5
    },
    {
      "midi": 65,
      "hit": false,
      "t": 137700,
      "d": 965,
      "v": 61
    },
    {
      "midi": 72,
      "hit": false,
      "t": 137700,
      "d": 975,
      "v": 71
    },
    {
      "midi": 68,
      "hit": false,
      "t": 137700,
      "d": 2275,
      "v": 65
    },
    {
      "midi": 53,
      "hit": false,
      "t": 138600,
      "d": 90,
      "v": 13
    },
    {
      "midi": 60,
      "hit": false,
      "t": 138600,
      "d": 535,
      "v": 44
    },
    {
      "midi": 63,
      "hit": false,
      "t": 138600,
      "d": 875,
      "v": 46
    },
    {
      "midi": 72,
      "hit": false,
      "t": 138900,
      "d": 990,
      "v": 37
    },
    {
      "midi": 65,
      "hit": false,
      "t": 138900,
      "d": 995,
      "v": 46
    },
    {
      "midi": 53,
      "hit": false,
      "t": 139200,
      "d": 465,
      "v": 60
    },
    {
      "midi": 56,
      "hit": false,
      "t": 139200,
      "d": 1065,
      "v": 42
    },
    {
      "midi": 60,
      "hit": false,
      "t": 139200,
      "d": 1085,
      "v": 42
    },
    {
      "midi": 53,
      "hit": false,
      "t": 139800,
      "d": 290,
      "v": 22
    },
    {
      "midi": 63,
      "hit": false,
      "t": 139800,
      "d": 850,
      "v": 67
    },
    {
      "midi": 65,
      "hit": false,
      "t": 140100,
      "d": 440,
      "v": 66
    },
    {
      "midi": 72,
      "hit": false,
      "t": 140100,
      "d": 465,
      "v": 59
    },
    {
      "midi": 68,
      "hit": false,
      "t": 140100,
      "d": 535,
      "v": 38
    },
    {
      "midi": 53,
      "hit": false,
      "t": 140400,
      "d": 240,
      "v": 31
    },
    {
      "midi": 60,
      "hit": false,
      "t": 140400,
      "d": 475,
      "v": 41
    },
    {
      "midi": 56,
      "hit": false,
      "t": 140400,
      "d": 760,
      "v": 23
    },
    {
      "midi": 75,
      "hit": false,
      "t": 140700,
      "d": 65,
      "v": 59
    },
    {
      "midi": 72,
      "hit": false,
      "t": 140700,
      "d": 155,
      "v": 71
    },
    {
      "midi": 65,
      "hit": false,
      "t": 140700,
      "d": 200,
      "v": 54
    },
    {
      "midi": 68,
      "hit": false,
      "t": 140700,
      "d": 430,
      "v": 37
    },
    {
      "midi": 53,
      "hit": false,
      "t": 141000,
      "d": 65,
      "v": 39
    },
    {
      "midi": 60,
      "hit": false,
      "t": 141000,
      "d": 105,
      "v": 34
    },
    {
      "midi": 63,
      "hit": false,
      "t": 141000,
      "d": 315,
      "v": 51
    },
    {
      "midi": 72,
      "hit": false,
      "t": 141300,
      "d": 80,
      "v": 45
    },
    {
      "midi": 65,
      "hit": false,
      "t": 141300,
      "d": 215,
      "v": 32
    },
    {
      "midi": 51,
      "hit": false,
      "t": 141600,
      "d": 1020,
      "v": 33
    },
    {
      "midi": 68,
      "hit": false,
      "t": 141600,
      "d": 1340,
      "v": 58
    },
    {
      "midi": 72,
      "hit": false,
      "t": 141600,
      "d": 1355,
      "v": 74
    },
    {
      "midi": 56,
      "hit": false,
      "t": 141600,
      "d": 2105,
      "v": 73
    },
    {
      "midi": 60,
      "hit": false,
      "t": 142200,
      "d": 1060,
      "v": 50
    },
    {
      "midi": 63,
      "hit": false,
      "t": 142500,
      "d": 510,
      "v": 67
    },
    {
      "midi": 51,
      "hit": false,
      "t": 142800,
      "d": 895,
      "v": 34
    },
    {
      "midi": 72,
      "hit": false,
      "t": 143100,
      "d": 405,
      "v": 86
    },
    {
      "midi": 63,
      "hit": false,
      "t": 143100,
      "d": 420,
      "v": 60
    },
    {
      "midi": 68,
      "hit": false,
      "t": 143100,
      "d": 445,
      "v": 72
    },
    {
      "midi": 60,
      "hit": false,
      "t": 143400,
      "d": 540,
      "v": 53
    },
    {
      "midi": 72,
      "hit": false,
      "t": 143700,
      "d": 185,
      "v": 62
    },
    {
      "midi": 68,
      "hit": false,
      "t": 143700,
      "d": 190,
      "v": 67
    },
    {
      "midi": 63,
      "hit": false,
      "t": 143700,
      "d": 330,
      "v": 61
    },
    {
      "midi": 50,
      "hit": false,
      "t": 144000,
      "d": 765,
      "v": 51
    },
    {
      "midi": 67,
      "hit": false,
      "t": 144000,
      "d": 775,
      "v": 81
    },
    {
      "midi": 55,
      "hit": false,
      "t": 144000,
      "d": 1055,
      "v": 70
    },
    {
      "midi": 70,
      "hit": false,
      "t": 144000,
      "d": 2205,
      "v": 76
    },
    {
      "midi": 58,
      "hit": false,
      "t": 144600,
      "d": 980,
      "v": 60
    },
    {
      "midi": 67,
      "hit": false,
      "t": 144900,
      "d": 995,
      "v": 27
    },
    {
      "midi": 62,
      "hit": false,
      "t": 144900,
      "d": 1020,
      "v": 51
    },
    {
      "midi": 50,
      "hit": false,
      "t": 145200,
      "d": 610,
      "v": 52
    },
    {
      "midi": 55,
      "hit": false,
      "t": 145200,
      "d": 745,
      "v": 30
    },
    {
      "midi": 58,
      "hit": false,
      "t": 145800,
      "d": 650,
      "v": 65
    },
    {
      "midi": 62,
      "hit": false,
      "t": 146100,
      "d": 250,
      "v": 39
    },
    {
      "midi": 65,
      "hit": false,
      "t": 146400,
      "d": 705,
      "v": 82
    },
    {
      "midi": 68,
      "hit": false,
      "t": 146400,
      "d": 730,
      "v": 66
    },
    {
      "midi": 53,
      "hit": false,
      "t": 146400,
      "d": 1740,
      "v": 72
    },
    {
      "midi": 56,
      "hit": false,
      "t": 147000,
      "d": 1005,
      "v": 98
    },
    {
      "midi": 60,
      "hit": false,
      "t": 147300,
      "d": 450,
      "v": 56
    },
    {
      "midi": 65,
      "hit": false,
      "t": 147300,
      "d": 465,
      "v": 68
    },
    {
      "midi": 68,
      "hit": false,
      "t": 147300,
      "d": 485,
      "v": 49
    },
    {
      "midi": 48,
      "hit": false,
      "t": 147600,
      "d": 345,
      "v": 52
    },
    {
      "midi": 60,
      "hit": false,
      "t": 147900,
      "d": 350,
      "v": 66
    },
    {
      "midi": 68,
      "hit": false,
      "t": 147900,
      "d": 350,
      "v": 73
    },
    {
      "midi": 65,
      "hit": false,
      "t": 147900,
      "d": 490,
      "v": 85
    },
    {
      "midi": 56,
      "hit": false,
      "t": 148200,
      "d": 535,
      "v": 80
    },
    {
      "midi": 68,
      "hit": false,
      "t": 148500,
      "d": 235,
      "v": 68
    },
    {
      "midi": 63,
      "hit": false,
      "t": 148500,
      "d": 1020,
      "v": 53
    },
    {
      "midi": 68,
      "hit": false,
      "t": 148800,
      "d": 2100,
      "v": 81
    },
    {
      "midi": 56,
      "hit": false,
      "t": 148800,
      "d": 2350,
      "v": 77
    },
    {
      "midi": 51,
      "hit": false,
      "t": 148800,
      "d": 19010,
      "v": 59
    },
    {
      "midi": 60,
      "hit": false,
      "t": 149400,
      "d": 1040,
      "v": 62
    },
    {
      "midi": 63,
      "hit": false,
      "t": 149700,
      "d": 1035,
      "v": 61
    },
    {
      "midi": 60,
      "hit": false,
      "t": 150600,
      "d": 590,
      "v": 64
    },
    {
      "midi": 63,
      "hit": false,
      "t": 150900,
      "d": 230,
      "v": 55
    },
    {
      "midi": 63,
      "hit": false,
      "t": 151200,
      "d": 90,
      "v": 55
    },
    {
      "midi": 67,
      "hit": false,
      "t": 151200,
      "d": 750,
      "v": 84
    },
    {
      "midi": 55,
      "hit": false,
      "t": 151200,
      "d": 1835,
      "v": 45
    },
    {
      "midi": 70,
      "hit": false,
      "t": 151200,
      "d": 2010,
      "v": 77
    },
    {
      "midi": 63,
      "hit": false,
      "t": 151500,
      "d": 370,
      "v": 85
    },
    {
      "midi": 58,
      "hit": false,
      "t": 151800,
      "d": 970,
      "v": 78
    },
    {
      "midi": 63,
      "hit": false,
      "t": 152100,
      "d": 445,
      "v": 88
    },
    {
      "midi": 67,
      "hit": false,
      "t": 152100,
      "d": 500,
      "v": 67
    },
    {
      "midi": 63,
      "hit": false,
      "t": 152700,
      "d": 390,
      "v": 54
    },
    {
      "midi": 67,
      "hit": false,
      "t": 152700,
      "d": 495,
      "v": 63
    },
    {
      "midi": 58,
      "hit": false,
      "t": 153000,
      "d": 430,
      "v": 63
    },
    {
      "midi": 63,
      "hit": false,
      "t": 153300,
      "d": 995,
      "v": 47
    },
    {
      "midi": 56,
      "hit": false,
      "t": 153600,
      "d": 1770,
      "v": 68
    },
    {
      "midi": 72,
      "hit": false,
      "t": 153600,
      "d": 2130,
      "v": 82
    },
    {
      "midi": 68,
      "hit": false,
      "t": 153600,
      "d": 2230,
      "v": 72
    },
    {
      "midi": 60,
      "hit": false,
      "t": 154200,
      "d": 1060,
      "v": 58
    },
    {
      "midi": 63,
      "hit": false,
      "t": 154500,
      "d": 505,
      "v": 70
    },
    {
      "midi": 63,
      "hit": false,
      "t": 155100,
      "d": 420,
      "v": 64
    },
    {
      "midi": 56,
      "hit": false,
      "t": 155400,
      "d": 500,
      "v": 68
    },
    {
      "midi": 60,
      "hit": false,
      "t": 155400,
      "d": 575,
      "v": 60
    },
    {
      "midi": 63,
      "hit": false,
      "t": 155700,
      "d": 960,
      "v": 36
    },
    {
      "midi": 55,
      "hit": false,
      "t": 156000,
      "d": 970,
      "v": 48
    },
    {
      "midi": 67,
      "hit": false,
      "t": 156000,
      "d": 4330,
      "v": 77
    },
    {
      "midi": 70,
      "hit": false,
      "t": 156000,
      "d": 4370,
      "v": 70
    },
    {
      "midi": 58,
      "hit": false,
      "t": 156600,
      "d": 1075,
      "v": 65
    },
    {
      "midi": 63,
      "hit": false,
      "t": 156900,
      "d": 525,
      "v": 66
    },
    {
      "midi": 55,
      "hit": false,
      "t": 157200,
      "d": 770,
      "v": 26
    },
    {
      "midi": 63,
      "hit": false,
      "t": 157500,
      "d": 470,
      "v": 26
    },
    {
      "midi": 58,
      "hit": false,
      "t": 157800,
      "d": 1000,
      "v": 55
    },
    {
      "midi": 63,
      "hit": false,
      "t": 158100,
      "d": 925,
      "v": 54
    },
    {
      "midi": 55,
      "hit": false,
      "t": 158400,
      "d": 620,
      "v": 59
    },
    {
      "midi": 58,
      "hit": false,
      "t": 159000,
      "d": 940,
      "v": 57
    },
    {
      "midi": 63,
      "hit": false,
      "t": 159300,
      "d": 420,
      "v": 78
    },
    {
      "midi": 55,
      "hit": false,
      "t": 159600,
      "d": 625,
      "v": 57
    },
    {
      "midi": 63,
      "hit": false,
      "t": 159900,
      "d": 315,
      "v": 58
    },
    {
      "midi": 58,
      "hit": false,
      "t": 160200,
      "d": 920,
      "v": 74
    },
    {
      "midi": 63,
      "hit": false,
      "t": 160500,
      "d": 215,
      "v": 51
    },
    {
      "midi": 70,
      "hit": false,
      "t": 160800,
      "d": 660,
      "v": 81
    },
    {
      "midi": 67,
      "hit": false,
      "t": 160800,
      "d": 710,
      "v": 85
    },
    {
      "midi": 63,
      "hit": false,
      "t": 160800,
      "d": 770,
      "v": 73
    },
    {
      "midi": 55,
      "hit": false,
      "t": 160800,
      "d": 2035,
      "v": 61
    },
    {
      "midi": 58,
      "hit": false,
      "t": 161400,
      "d": 940,
      "v": 64
    },
    {
      "midi": 67,
      "hit": false,
      "t": 161700,
      "d": 470,
      "v": 74
    },
    {
      "midi": 70,
      "hit": false,
      "t": 161700,
      "d": 525,
      "v": 60
    },
    {
      "midi": 63,
      "hit": false,
      "t": 161700,
      "d": 925,
      "v": 67
    },
    {
      "midi": 70,
      "hit": false,
      "t": 162300,
      "d": 405,
      "v": 22
    },
    {
      "midi": 67,
      "hit": false,
      "t": 162300,
      "d": 435,
      "v": 57
    },
    {
      "midi": 58,
      "hit": false,
      "t": 162600,
      "d": 390,
      "v": 50
    },
    {
      "midi": 63,
      "hit": false,
      "t": 162900,
      "d": 1100,
      "v": 46
    },
    {
      "midi": 72,
      "hit": false,
      "t": 163200,
      "d": 810,
      "v": 80
    },
    {
      "midi": 68,
      "hit": false,
      "t": 163200,
      "d": 840,
      "v": 73
    },
    {
      "midi": 56,
      "hit": false,
      "t": 163200,
      "d": 1745,
      "v": 53
    },
    {
      "midi": 60,
      "hit": false,
      "t": 163800,
      "d": 980,
      "v": 44
    },
    {
      "midi": 63,
      "hit": false,
      "t": 164100,
      "d": 510,
      "v": 72
    },
    {
      "midi": 72,
      "hit": false,
      "t": 164100,
      "d": 560,
      "v": 75
    },
    {
      "midi": 68,
      "hit": false,
      "t": 164100,
      "d": 1240,
      "v": 54
    },
    {
      "midi": 63,
      "hit": false,
      "t": 164700,
      "d": 360,
      "v": 50
    },
    {
      "midi": 72,
      "hit": false,
      "t": 164700,
      "d": 505,
      "v": 30
    },
    {
      "midi": 56,
      "hit": false,
      "t": 165000,
      "d": 470,
      "v": 56
    },
    {
      "midi": 60,
      "hit": false,
      "t": 165000,
      "d": 515,
      "v": 45
    },
    {
      "midi": 63,
      "hit": false,
      "t": 165300,
      "d": 1105,
      "v": 32
    },
    {
      "midi": 55,
      "hit": false,
      "t": 165600,
      "d": 2240,
      "v": 45
    },
    {
      "midi": 70,
      "hit": false,
      "t": 165600,
      "d": 4345,
      "v": 74
    },
    {
      "midi": 67,
      "hit": false,
      "t": 165600,
      "d": 4380,
      "v": 79
    },
    {
      "midi": 58,
      "hit": false,
      "t": 166200,
      "d": 1010,
      "v": 44
    },
    {
      "midi": 63,
      "hit": false,
      "t": 166500,
      "d": 1065,
      "v": 38
    },
    {
      "midi": 58,
      "hit": false,
      "t": 167400,
      "d": 1055,
      "v": 57
    },
    {
      "midi": 63,
      "hit": false,
      "t": 167700,
      "d": 1000,
      "v": 52
    },
    {
      "midi": 55,
      "hit": false,
      "t": 168000,
      "d": 1050,
      "v": 33
    },
    {
      "midi": 51,
      "hit": false,
      "t": 168000,
      "d": 2270,
      "v": 26
    },
    {
      "midi": 58,
      "hit": false,
      "t": 168600,
      "d": 940,
      "v": 58
    },
    {
      "midi": 63,
      "hit": false,
      "t": 168900,
      "d": 425,
      "v": 88
    },
    {
      "midi": 55,
      "hit": false,
      "t": 169200,
      "d": 1040,
      "v": 24
    },
    {
      "midi": 63,
      "hit": false,
      "t": 169500,
      "d": 370,
      "v": 58
    },
    {
      "midi": 58,
      "hit": false,
      "t": 169800,
      "d": 860,
      "v": 64
    },
    {
      "midi": 63,
      "hit": false,
      "t": 170100,
      "d": 210,
      "v": 44
    },
    {
      "midi": 70,
      "hit": false,
      "t": 170400,
      "d": 575,
      "v": 62
    },
    {
      "midi": 75,
      "hit": false,
      "t": 170400,
      "d": 590,
      "v": 26
    },
    {
      "midi": 67,
      "hit": false,
      "t": 170400,
      "d": 665,
      "v": 74
    },
    {
      "midi": 63,
      "hit": false,
      "t": 170400,
      "d": 670,
      "v": 64
    },
    {
      "midi": 51,
      "hit": false,
      "t": 170400,
      "d": 960,
      "v": 56
    },
    {
      "midi": 55,
      "hit": false,
      "t": 170400,
      "d": 1990,
      "v": 64
    },
    {
      "midi": 58,
      "hit": false,
      "t": 171000,
      "d": 945,
      "v": 68
    },
    {
      "midi": 70,
      "hit": false,
      "t": 171300,
      "d": 110,
      "v": 58
    },
    {
      "midi": 67,
      "hit": false,
      "t": 171300,
      "d": 435,
      "v": 69
    },
    {
      "midi": 63,
      "hit": false,
      "t": 171300,
      "d": 445,
      "v": 69
    },
    {
      "midi": 75,
      "hit": false,
      "t": 171300,
      "d": 1070,
      "v": 77
    },
    {
      "midi": 51,
      "hit": false,
      "t": 171600,
      "d": 500,
      "v": 14
    },
    {
      "midi": 63,
      "hit": false,
      "t": 171900,
      "d": 385,
      "v": 58
    },
    {
      "midi": 70,
      "hit": false,
      "t": 171900,
      "d": 390,
      "v": 38
    },
    {
      "midi": 58,
      "hit": false,
      "t": 172200,
      "d": 325,
      "v": 63
    },
    {
      "midi": 51,
      "hit": false,
      "t": 172200,
      "d": 2730,
      "v": 39
    },
    {
      "midi": 63,
      "hit": false,
      "t": 172500,
      "d": 250,
      "v": 33
    },
    {
      "midi": 60,
      "hit": false,
      "t": 172800,
      "d": 470,
      "v": 43
    },
    {
      "midi": 72,
      "hit": false,
      "t": 172800,
      "d": 730,
      "v": 86
    },
    {
      "midi": 68,
      "hit": false,
      "t": 172800,
      "d": 770,
      "v": 77
    },
    {
      "midi": 63,
      "hit": false,
      "t": 172800,
      "d": 880,
      "v": 65
    },
    {
      "midi": 56,
      "hit": false,
      "t": 173400,
      "d": 25,
      "v": 28
    },
    {
      "midi": 60,
      "hit": false,
      "t": 173400,
      "d": 810,
      "v": 50
    },
    {
      "midi": 63,
      "hit": false,
      "t": 173700,
      "d": 415,
      "v": 62
    },
    {
      "midi": 68,
      "hit": false,
      "t": 173700,
      "d": 880,
      "v": 80
    },
    {
      "midi": 72,
      "hit": false,
      "t": 173700,
      "d": 1000,
      "v": 81
    },
    {
      "midi": 63,
      "hit": false,
      "t": 174300,
      "d": 705,
      "v": 47
    },
    {
      "midi": 60,
      "hit": false,
      "t": 174600,
      "d": 230,
      "v": 64
    },
    {
      "midi": 56,
      "hit": false,
      "t": 174600,
      "d": 405,
      "v": 70
    },
    {
      "midi": 70,
      "hit": false,
      "t": 175200,
      "d": 595,
      "v": 74
    },
    {
      "midi": 67,
      "hit": false,
      "t": 175200,
      "d": 1110,
      "v": 84
    },
    {
      "midi": 63,
      "hit": false,
      "t": 175200,
      "d": 3170,
      "v": 74
    },
    {
      "midi": 51,
      "hit": false,
      "t": 175200,
      "d": 4790,
      "v": 47
    },
    {
      "midi": 58,
      "hit": false,
      "t": 175200,
      "d": 7045,
      "v": 46
    },
    {
      "midi": 55,
      "hit": false,
      "t": 175200,
      "d": 7560,
      "v": 74
    },
    {
      "midi": 74,
      "hit": false,
      "t": 175800,
      "d": 220,
      "v": 65
    },
    {
      "midi": 74,
      "hit": false,
      "t": 176400,
      "d": 6555,
      "v": 65
    },
    {
      "midi": 70,
      "hit": false,
      "t": 177000,
      "d": 375,
      "v": 68
    },
    {
      "midi": 70,
      "hit": false,
      "t": 177600,
      "d": 5390,
      "v": 68
    },
    {
      "midi": 67,
      "hit": false,
      "t": 178200,
      "d": 4740,
      "v": 52
    },
    {
      "midi": 51,
      "hit": false,
      "t": 180600,
      "d": 2250,
      "v": 65
    }
  ]
}