{
  "jsonPath": "Rock/Folk Rock/Crazy Horse/medley.json",
  "path": "Rock\\Folk Rock\\Crazy Horse\\Medley.mid",
  "name": "Medley",
  "difficulty": "Advanced",
  "bpm": 84.000084000084,
  "notes": [
    {
      "midi": 41,
      "hit": false,
      "t": 11076.923999999999,
      "d": 3358.1733567708325,
      "v": 31
    },
    {
      "midi": 29,
      "hit": false,
      "t": 11081.731692708332,
      "d": 3237.981039062499,
      "v": 16
    },
    {
      "midi": 65,
      "hit": false,
      "t": 11944.712533854165,
      "d": 610.5769739583338,
      "v": 105
    },
    {
      "midi": 65,
      "hit": false,
      "t": 12627.404898437499,
      "d": 192.30770833333372,
      "v": 76
    },
    {
      "midi": 72,
      "hit": false,
      "t": 12872.597226562499,
      "d": 194.71155468750112,
      "v": 94
    },
    {
      "midi": 75,
      "hit": false,
      "t": 12875.001072916666,
      "d": 197.1154010416667,
      "v": 88
    },
    {
      "midi": 65,
      "hit": false,
      "t": 13105.770322916665,
      "d": 182.69232291666594,
      "v": 78
    },
    {
      "midi": 70,
      "hit": false,
      "t": 13334.135726562497,
      "d": 209.13463281250006,
      "v": 78
    },
    {
      "midi": 74,
      "hit": false,
      "t": 13336.539572916665,
      "d": 221.15386458333342,
      "v": 76
    },
    {
      "midi": 68,
      "hit": false,
      "t": 13557.693437499998,
      "d": 9.615385416665958,
      "v": 62
    },
    {
      "midi": 72,
      "hit": false,
      "t": 13584.13574739583,
      "d": 951.9231562500008,
      "v": 74
    },
    {
      "midi": 69,
      "hit": false,
      "t": 13584.13574739583,
      "d": 956.7308489583338,
      "v": 63
    },
    {
      "midi": 60,
      "hit": false,
      "t": 14036.058861979163,
      "d": 199.5192473958341,
      "v": 90
    },
    {
      "midi": 57,
      "hit": false,
      "t": 14278.847343749998,
      "d": 240.38463541666715,
      "v": 69
    },
    {
      "midi": 53,
      "hit": false,
      "t": 14512.020440104165,
      "d": 276.4423307291654,
      "v": 74
    },
    {
      "midi": 46,
      "hit": false,
      "t": 14766.82815364583,
      "d": 139.4230885416673,
      "v": 78
    },
    {
      "midi": 34,
      "hit": false,
      "t": 14771.635846354164,
      "d": 120.19231770833358,
      "v": 81
    },
    {
      "midi": 46,
      "hit": false,
      "t": 15247.597424479165,
      "d": 2771.6348463541653,
      "v": 84
    },
    {
      "midi": 34,
      "hit": false,
      "t": 15247.597424479165,
      "d": 2798.0771562499976,
      "v": 81
    },
    {
      "midi": 70,
      "hit": false,
      "t": 15915.866710937498,
      "d": 173.07693749999999,
      "v": 75
    },
    {
      "midi": 74,
      "hit": false,
      "t": 16146.635960937498,
      "d": 278.8461770833328,
      "v": 87
    },
    {
      "midi": 77,
      "hit": false,
      "t": 16149.039807291665,
      "d": 615.384666666665,
      "v": 90
    },
    {
      "midi": 74,
      "hit": false,
      "t": 16625.001385416665,
      "d": 151.44232031249703,
      "v": 84
    },
    {
      "midi": 77,
      "hit": false,
      "t": 16781.251398437496,
      "d": 1697.1155260416635,
      "v": 39
    },
    {
      "midi": 72,
      "hit": false,
      "t": 16836.53986458333,
      "d": 146.63462760416587,
      "v": 63
    },
    {
      "midi": 70,
      "hit": false,
      "t": 17036.059111979164,
      "d": 1153.8462499999987,
      "v": 97
    },
    {
      "midi": 65,
      "hit": false,
      "t": 17076.924499999997,
      "d": 1451.9231979166616,
      "v": 86
    },
    {
      "midi": 60,
      "hit": false,
      "t": 17307.69375,
      "d": 187.50001562499892,
      "v": 80
    },
    {
      "midi": 58,
      "hit": false,
      "t": 17769.232249999997,
      "d": 9.615385416665958,
      "v": 86
    },
    {
      "midi": 60,
      "hit": false,
      "t": 17992.789960937498,
      "d": 237.98078906249793,
      "v": 61
    },
    {
      "midi": 67,
      "hit": false,
      "t": 18211.539979166664,
      "d": 269.2307916666614,
      "v": 84
    },
    {
      "midi": 29,
      "hit": false,
      "t": 18451.924614583328,
      "d": 3459.1349036458305,
      "v": 88
    },
    {
      "midi": 41,
      "hit": false,
      "t": 18454.328460937493,
      "d": 3629.8079947916667,
      "v": 84
    },
    {
      "midi": 29,
      "hit": false,
      "t": 22141.82876822916,
      "d": 396.634648437499,
      "v": 75
    },
    {
      "midi": 60,
      "hit": false,
      "t": 22144.232614583325,
      "d": 322.11541145833326,
      "v": 57
    },
    {
      "midi": 69,
      "hit": false,
      "t": 22144.232614583325,
      "d": 331.7307968749992,
      "v": 58
    },
    {
      "midi": 65,
      "hit": false,
      "t": 22149.04030729166,
      "d": 317.30771874999846,
      "v": 67
    },
    {
      "midi": 41,
      "hit": false,
      "t": 22151.444153645825,
      "d": 358.1731067708315,
      "v": 56
    },
    {
      "midi": 29,
      "hit": false,
      "t": 25855.771385416658,
      "d": 211.53847916666928,
      "v": 81
    },
    {
      "midi": 41,
      "hit": false,
      "t": 25860.579078124993,
      "d": 168.269244791667,
      "v": 62
    },
    {
      "midi": 53,
      "hit": false,
      "t": 25865.386770833327,
      "d": 100.96154687500166,
      "v": 73
    },
    {
      "midi": 57,
      "hit": false,
      "t": 25865.386770833327,
      "d": 103.36539322916724,
      "v": 68
    },
    {
      "midi": 60,
      "hit": false,
      "t": 25870.194463541662,
      "d": 115.38462499999878,
      "v": 52
    },
    {
      "midi": 41,
      "hit": false,
      "t": 26353.367580729162,
      "d": 6341.34668229166,
      "v": 46
    },
    {
      "midi": 29,
      "hit": false,
      "t": 26355.771427083328,
      "d": 1016.8270078124988,
      "v": 68
    },
    {
      "midi": 60,
      "hit": false,
      "t": 26377.40604427083,
      "d": 1634.6155208333294,
      "v": 49
    },
    {
      "midi": 53,
      "hit": false,
      "t": 26379.809890624994,
      "d": 1485.577046874998,
      "v": 45
    },
    {
      "midi": 57,
      "hit": false,
      "t": 26382.21373697916,
      "d": 1593.7501328125,
      "v": 54
    },
    {
      "midi": 65,
      "hit": false,
      "t": 28370.19467187499,
      "d": 156.25001302083183,
      "v": 67
    },
    {
      "midi": 72,
      "hit": false,
      "t": 28603.367768229156,
      "d": 197.11540104166852,
      "v": 97
    },
    {
      "midi": 75,
      "hit": false,
      "t": 28610.579307291657,
      "d": 201.92309374999968,
      "v": 88
    },
    {
      "midi": 65,
      "hit": false,
      "t": 28843.752403645824,
      "d": 103.36539322916724,
      "v": 87
    },
    {
      "midi": 70,
      "hit": false,
      "t": 29057.69472916666,
      "d": 74.51923697916573,
      "v": 88
    },
    {
      "midi": 74,
      "hit": false,
      "t": 29060.098575520824,
      "d": 274.0384843749998,
      "v": 86
    },
    {
      "midi": 65,
      "hit": false,
      "t": 29302.887057291657,
      "d": 115.38462499999878,
      "v": 86
    },
    {
      "midi": 72,
      "hit": false,
      "t": 29564.90630989582,
      "d": 3105.769489583334,
      "v": 75
    },
    {
      "midi": 69,
      "hit": false,
      "t": 29567.310156249987,
      "d": 3125.0002604166693,
      "v": 72
    },
    {
      "midi": 36,
      "hit": false,
      "t": 33240.38738541665,
      "d": 180.28847656249127,
      "v": 72
    },
    {
      "midi": 60,
      "hit": false,
      "t": 33242.79123177082,
      "d": 122.59616406249552,
      "v": 62
    },
    {
      "midi": 48,
      "hit": false,
      "t": 33245.19507812498,
      "d": 170.67309114582895,
      "v": 58
    },
    {
      "midi": 64,
      "hit": false,
      "t": 33252.40661718748,
      "d": 127.40385677083395,
      "v": 62
    },
    {
      "midi": 55,
      "hit": false,
      "t": 33254.810463541646,
      "d": 122.5961640625028,
      "v": 50
    },
    {
      "midi": 36,
      "hit": false,
      "t": 33721.15665624998,
      "d": 6579.327471354169,
      "v": 52
    },
    {
      "midi": 64,
      "hit": false,
      "t": 33723.560502604145,
      "d": 1836.5386145833327,
      "v": 52
    },
    {
      "midi": 60,
      "hit": false,
      "t": 33725.96434895831,
      "d": 1793.2693802083304,
      "v": 51
    },
    {
      "midi": 48,
      "hit": false,
      "t": 33725.96434895831,
      "d": 6552.88516145834,
      "v": 42
    },
    {
      "midi": 55,
      "hit": false,
      "t": 33733.17588802081,
      "d": 1420.6731953124981,
      "v": 33
    },
    {
      "midi": 60,
      "hit": false,
      "t": 35769.23374999998,
      "d": 112.9807786458332,
      "v": 76
    },
    {
      "midi": 67,
      "hit": false,
      "t": 35987.98376822915,
      "d": 182.69232291666412,
      "v": 100
    },
    {
      "midi": 70,
      "hit": false,
      "t": 35995.195307291644,
      "d": 165.8653984374978,
      "v": 88
    },
    {
      "midi": 60,
      "hit": false,
      "t": 36230.77224999998,
      "d": 91.3461614583357,
      "v": 85
    },
    {
      "midi": 69,
      "hit": false,
      "t": 36439.90688281248,
      "d": 199.51924739583774,
      "v": 88
    },
    {
      "midi": 65,
      "hit": false,
      "t": 36449.52226822915,
      "d": 201.92309375000332,
      "v": 86
    },
    {
      "midi": 60,
      "hit": false,
      "t": 36677.88767187499,
      "d": 110.57693229166762,
      "v": 64
    },
    {
      "midi": 67,
      "hit": false,
      "t": 36918.272307291656,
      "d": 2649.0386822916626,
      "v": 66
    },
    {
      "midi": 64,
      "hit": false,
      "t": 36918.272307291656,
      "d": 3120.1925677083273,
      "v": 86
    },
    {
      "midi": 67,
      "hit": false,
      "t": 39745.19561979165,
      "d": 278.846177083331,
      "v": 1
    },
    {
      "midi": 58,
      "hit": false,
      "t": 40625.00338541665,
      "d": 1788.461687499992,
      "v": 76
    },
    {
      "midi": 55,
      "hit": false,
      "t": 40627.40723177081,
      "d": 3473.557981770806,
      "v": 81
    },
    {
      "midi": 53,
      "hit": false,
      "t": 40632.21492447914,
      "d": 1569.7116692708296,
      "v": 70
    },
    {
      "midi": 62,
      "hit": false,
      "t": 40632.21492447914,
      "d": 1757.2116848958321,
      "v": 84
    },
    {
      "midi": 36,
      "hit": false,
      "t": 40634.61877083331,
      "d": 3444.7118255208115,
      "v": 57
    },
    {
      "midi": 48,
      "hit": false,
      "t": 40639.42646354164,
      "d": 3420.6733619791485,
      "v": 51
    },
    {
      "midi": 52,
      "hit": false,
      "t": 42447.11892187497,
      "d": 1468.750122395817,
      "v": 43
    },
    {
      "midi": 60,
      "hit": false,
      "t": 42454.33046093747,
      "d": 1526.44243489582,
      "v": 43
    },
    {
      "midi": 76,
      "hit": false,
      "t": 42920.6766536458,
      "d": 120.19231770832994,
      "v": 64
    },
    {
      "midi": 79,
      "hit": false,
      "t": 42920.6766536458,
      "d": 127.40385677082668,
      "v": 72
    },
    {
      "midi": 74,
      "hit": false,
      "t": 43076.92666666663,
      "d": 120.19231770832994,
      "v": 52
    },
    {
      "midi": 77,
      "hit": false,
      "t": 43079.330513020795,
      "d": 115.38462499999878,
      "v": 66
    },
    {
      "midi": 76,
      "hit": false,
      "t": 43223.561294270796,
      "d": 79.32692968750052,
      "v": 74
    },
    {
      "midi": 72,
      "hit": false,
      "t": 43233.176679687465,
      "d": 79.32692968750052,
      "v": 72
    },
    {
      "midi": 67,
      "hit": false,
      "t": 43367.792075520796,
      "d": 230.76924999999756,
      "v": 68
    },
    {
      "midi": 64,
      "hit": false,
      "t": 43372.59976822913,
      "d": 225.9615572916664,
      "v": 80
    },
    {
      "midi": 72,
      "hit": false,
      "t": 43663.46517708329,
      "d": 629.8077447916585,
      "v": 80
    },
    {
      "midi": 76,
      "hit": false,
      "t": 43668.272869791625,
      "d": 632.2115911458241,
      "v": 79
    },
    {
      "midi": 65,
      "hit": false,
      "t": 44314.90753906245,
      "d": 1706.7309114583331,
      "v": 74
    },
    {
      "midi": 58,
      "hit": false,
      "t": 44317.311385416615,
      "d": 1879.807848958335,
      "v": 63
    },
    {
      "midi": 36,
      "hit": false,
      "t": 44319.71523177078,
      "d": 3504.8079843750093,
      "v": 74
    },
    {
      "midi": 62,
      "hit": false,
      "t": 44322.119078124946,
      "d": 1379.8078072916687,
      "v": 81
    },
    {
      "midi": 55,
      "hit": false,
      "t": 44322.119078124946,
      "d": 3454.3272109375102,
      "v": 75
    },
    {
      "midi": 48,
      "hit": false,
      "t": 44331.734463541616,
      "d": 3447.1156718750062,
      "v": 62
    },
    {
      "midi": 64,
      "hit": false,
      "t": 46170.676924479114,
      "d": 790.8654505208324,
      "v": 44
    },
    {
      "midi": 60,
      "hit": false,
      "t": 46182.69615624995,
      "d": 1514.4232031250067,
      "v": 58
    },
    {
      "midi": 65,
      "hit": false,
      "t": 47055.29238281245,
      "d": 201.92309375000332,
      "v": 87
    },
    {
      "midi": 67,
      "hit": false,
      "t": 47314.907789062454,
      "d": 596.1538958333331,
      "v": 84
    },
    {
      "midi": 65,
      "hit": false,
      "t": 47987.98476822912,
      "d": 2377.4040442708283,
      "v": 78
    },
    {
      "midi": 69,
      "hit": false,
      "t": 47995.19630729162,
      "d": 2468.750205729164,
      "v": 74
    },
    {
      "midi": 65,
      "hit": false,
      "t": 50548.081135416614,
      "d": 103.3653932291636,
      "v": 90
    },
    {
      "midi": 72,
      "hit": false,
      "t": 50762.023460937446,
      "d": 213.94232552083122,
      "v": 100
    },
    {
      "midi": 75,
      "hit": false,
      "t": 50762.023460937446,
      "d": 237.9807890624943,
      "v": 93
    },
    {
      "midi": 65,
      "hit": false,
      "t": 51007.21578906244,
      "d": 129.80770312499953,
      "v": 79
    },
    {
      "midi": 70,
      "hit": false,
      "t": 51218.7542682291,
      "d": 213.94232552083122,
      "v": 93
    },
    {
      "midi": 74,
      "hit": false,
      "t": 51223.56196093743,
      "d": 274.0384843749998,
      "v": 80
    },
    {
      "midi": 65,
      "hit": false,
      "t": 51473.56198177077,
      "d": 105.76923958332918,
      "v": 80
    },
    {
      "midi": 69,
      "hit": false,
      "t": 51687.5043072916,
      "d": 721.1539062500015,
      "v": 67
    },
    {
      "midi": 72,
      "hit": false,
      "t": 51699.52353906244,
      "d": 723.557752604167,
      "v": 69
    },
    {
      "midi": 41,
      "hit": false,
      "t": 55396.63923177077,
      "d": 137.01924218750355,
      "v": 63
    },
    {
      "midi": 41,
      "hit": false,
      "t": 55838.94696093744,
      "d": 6576.923625000018,
      "v": 67
    },
    {
      "midi": 53,
      "hit": false,
      "t": 57932.69713541661,
      "d": 156.25001302083547,
      "v": 36
    },
    {
      "midi": 60,
      "hit": false,
      "t": 58129.81253645828,
      "d": 225.9615572916664,
      "v": 86
    },
    {
      "midi": 63,
      "hit": false,
      "t": 58129.81253645828,
      "d": 259.61540624999907,
      "v": 69
    },
    {
      "midi": 53,
      "hit": false,
      "t": 58382.21640364578,
      "d": 134.6153958333307,
      "v": 78
    },
    {
      "midi": 58,
      "hit": false,
      "t": 58600.966421874946,
      "d": 189.90386197916814,
      "v": 55
    },
    {
      "midi": 62,
      "hit": false,
      "t": 58612.98565364578,
      "d": 250.00002083333675,
      "v": 73
    },
    {
      "midi": 53,
      "hit": false,
      "t": 58805.293361979115,
      "d": 228.36540364583925,
      "v": 61
    },
    {
      "midi": 60,
      "hit": false,
      "t": 59060.10107552079,
      "d": 3254.8079635416652,
      "v": 60
    },
    {
      "midi": 57,
      "hit": false,
      "t": 59096.15877083329,
      "d": 3245.192578125003,
      "v": 40
    },
    {
      "midi": 55,
      "hit": false,
      "t": 62778.85138541663,
      "d": 6850.962109374996,
      "v": 45
    },
    {
      "midi": 48,
      "hit": false,
      "t": 62781.255231770796,
      "d": 6963.942888020836,
      "v": 54
    },
    {
      "midi": 60,
      "hit": false,
      "t": 65271.640054687465,
      "d": 197.11540104166488,
      "v": 63
    },
    {
      "midi": 67,
      "hit": false,
      "t": 65528.8516145833,
      "d": 240.38463541667443,
      "v": 66
    },
    {
      "midi": 70,
      "hit": false,
      "t": 65557.6977708333,
      "d": 230.76924999999756,
      "v": 50
    },
    {
      "midi": 60,
      "hit": false,
      "t": 65776.44778906247,
      "d": 180.28847656249127,
      "v": 79
    },
    {
      "midi": 69,
      "hit": false,
      "t": 66007.21703906247,
      "d": 281.2500234374893,
      "v": 72
    },
    {
      "midi": 65,
      "hit": false,
      "t": 66016.83242447913,
      "d": 194.7115546874993,
      "v": 66
    },
    {
      "midi": 60,
      "hit": false,
      "t": 66216.35167187496,
      "d": 180.28847656249127,
      "v": 72
    },
    {
      "midi": 67,
      "hit": false,
      "t": 66478.37092447912,
      "d": 2862.981007812501,
      "v": 38
    },
    {
      "midi": 64,
      "hit": false,
      "t": 66483.17861718746,
      "d": 2838.9425442708307,
      "v": 44
    },
    {
      "midi": 65,
      "hit": false,
      "t": 70146.64046093746,
      "d": 1531.2501276041585,
      "v": 61
    },
    {
      "midi": 62,
      "hit": false,
      "t": 70161.06353906245,
      "d": 1548.077052083332,
      "v": 43
    },
    {
      "midi": 58,
      "hit": false,
      "t": 70161.06353906245,
      "d": 1687.500140624994,
      "v": 50
    },
    {
      "midi": 55,
      "hit": false,
      "t": 70168.27507812495,
      "d": 3319.711815104165,
      "v": 46
    },
    {
      "midi": 48,
      "hit": false,
      "t": 70168.27507812495,
      "d": 3406.2502838541695,
      "v": 72
    },
    {
      "midi": 60,
      "hit": false,
      "t": 72007.21753906245,
      "d": 1485.577046874998,
      "v": 32
    },
    {
      "midi": 64,
      "hit": false,
      "t": 72009.62138541661,
      "d": 1408.6539635416702,
      "v": 68
    },
    {
      "midi": 48,
      "hit": false,
      "t": 73822.12153645829,
      "d": 3221.154114583318,
      "v": 49
    },
    {
      "midi": 65,
      "hit": false,
      "t": 73831.73692187495,
      "d": 1504.8078177083225,
      "v": 45
    },
    {
      "midi": 58,
      "hit": false,
      "t": 73831.73692187495,
      "d": 1572.115515624988,
      "v": 31
    },
    {
      "midi": 62,
      "hit": false,
      "t": 73841.35230729161,
      "d": 1509.6155104166537,
      "v": 50
    },
    {
      "midi": 55,
      "hit": false,
      "t": 73848.56384635411,
      "d": 3401.442591145824,
      "v": 27
    },
    {
      "midi": 60,
      "hit": false,
      "t": 75687.50630729161,
      "d": 1877.404002604162,
      "v": 28
    },
    {
      "midi": 64,
      "hit": false,
      "t": 75709.14092447911,
      "d": 1875.0001562499965,
      "v": 42
    },
    {
      "midi": 53,
      "hit": false,
      "t": 78004.81419270828,
      "d": 1627.4039817708253,
      "v": 1
    },
    {
      "midi": 41,
      "hit": false,
      "t": 78442.31422916662,
      "d": 2603.3656015625165,
      "v": 50
    },
    {
      "midi": 67,
      "hit": false,
      "t": 78701.92963541661,
      "d": 447.11542187500163,
      "v": 94
    },
    {
      "midi": 65,
      "hit": false,
      "t": 79146.64121093745,
      "d": 245.19232812499104,
      "v": 57
    },
    {
      "midi": 70,
      "hit": false,
      "t": 79358.17969010411,
      "d": 612.9808203124994,
      "v": 67
    },
    {
      "midi": 74,
      "hit": false,
      "t": 79358.17969010411,
      "d": 670.6731328125024,
      "v": 72
    },
    {
      "midi": 53,
      "hit": false,
      "t": 79855.7758854166,
      "d": 281.2500234375184,
      "v": 58
    },
    {
      "midi": 65,
      "hit": false,
      "t": 80048.08359374995,
      "d": 120.19231770833721,
      "v": 64
    },
    {
      "midi": 72,
      "hit": false,
      "t": 80254.81438020829,
      "d": 221.15386458333523,
      "v": 100
    },
    {
      "midi": 75,
      "hit": false,
      "t": 80254.81438020829,
      "d": 245.1923281250056,
      "v": 94
    },
    {
      "midi": 65,
      "hit": false,
      "t": 80502.41055468746,
      "d": 149.03847395833873,
      "v": 69
    },
    {
      "midi": 70,
      "hit": false,
      "t": 80728.37211197913,
      "d": 230.76924999999756,
      "v": 79
    },
    {
      "midi": 74,
      "hit": false,
      "t": 80733.17980468746,
      "d": 290.86540885416616,
      "v": 72
    },
    {
      "midi": 65,
      "hit": false,
      "t": 80966.35290104162,
      "d": 139.4230885416764,
      "v": 75
    },
    {
      "midi": 72,
      "hit": false,
      "t": 81211.54522916663,
      "d": 600.9615885416715,
      "v": 75
    },
    {
      "midi": 69,
      "hit": false,
      "t": 81216.35292187496,
      "d": 593.7500494791748,
      "v": 72
    },
    {
      "midi": 41,
      "hit": false,
      "t": 81242.7952317708,
      "d": 750.0000625000102,
      "v": 55
    },
    {
      "midi": 65,
      "hit": false,
      "t": 85651.44944531248,
      "d": 74.51923697916209,
      "v": 78
    },
    {
      "midi": 74,
      "hit": false,
      "t": 85841.35330729165,
      "d": 295.6731015624973,
      "v": 99
    },
    {
      "midi": 77,
      "hit": false,
      "t": 85855.77638541664,
      "d": 283.6538697916694,
      "v": 91
    },
    {
      "midi": 65,
      "hit": false,
      "t": 86069.71871093748,
      "d": 120.19231770833721,
      "v": 78
    },
    {
      "midi": 70,
      "hit": false,
      "t": 86286.06488281248,
      "d": 1168.2693281250104,
      "v": 63
    },
    {
      "midi": 74,
      "hit": false,
      "t": 86305.29565364582,
      "d": 1016.827007812506,
      "v": 69
    },
    {
      "midi": 46,
      "hit": false,
      "t": 87447.122671875,
      "d": 959.1346953124885,
      "v": 67
    },
    {
      "midi": 70,
      "hit": false,
      "t": 87677.891921875,
      "d": 269.2307916666614,
      "v": 91
    },
    {
      "midi": 62,
      "hit": false,
      "t": 87680.29576822916,
      "d": 173.07693749999453,
      "v": 91
    },
    {
      "midi": 62,
      "hit": false,
      "t": 87935.10348177083,
      "d": 88.94231510415557,
      "v": 67
    },
    {
      "midi": 72,
      "hit": false,
      "t": 88163.46888541665,
      "d": 274.0384843750071,
      "v": 84
    },
    {
      "midi": 63,
      "hit": false,
      "t": 88180.29580989582,
      "d": 213.9423255208385,
      "v": 94
    },
    {
      "midi": 58,
      "hit": false,
      "t": 88399.04582812499,
      "d": 271.6346380208415,
      "v": 69
    },
    {
      "midi": 46,
      "hit": false,
      "t": 88617.79584635416,
      "d": 3439.9041328125313,
      "v": 93
    },
    {
      "midi": 70,
      "hit": false,
      "t": 88627.41123177082,
      "d": 543.269276041683,
      "v": 63
    },
    {
      "midi": 74,
      "hit": false,
      "t": 88644.23815625,
      "d": 545.6731223958486,
      "v": 69
    },
    {
      "midi": 65,
      "hit": false,
      "t": 88646.64200260416,
      "d": 84.13462239583896,
      "v": 75
    },
    {
      "midi": 65,
      "hit": false,
      "t": 88865.39202083333,
      "d": 307.6923333333398,
      "v": 75
    },
    {
      "midi": 58,
      "hit": false,
      "t": 89108.18050260417,
      "d": 524.0385052083438,
      "v": 58
    },
    {
      "midi": 65,
      "hit": false,
      "t": 89305.29590364585,
      "d": 600.9615885416715,
      "v": 88
    },
    {
      "midi": 70,
      "hit": false,
      "t": 89310.10359635418,
      "d": 620.1923593750107,
      "v": 85
    },
    {
      "midi": 62,
      "hit": false,
      "t": 89550.48823177084,
      "d": 377.40387760418525,
      "v": 69
    },
    {
      "midi": 58,
      "hit": false,
      "t": 89790.87286718751,
      "d": 927.8846927083505,
      "v": 45
    },
    {
      "midi": 65,
      "hit": false,
      "t": 90024.04596354169,
      "d": 668.2692864583369,
      "v": 81
    },
    {
      "midi": 70,
      "hit": false,
      "t": 90031.25750260419,
      "d": 949.5193098958407,
      "v": 62
    },
    {
      "midi": 62,
      "hit": false,
      "t": 90699.52678906253,
      "d": 317.3077187500021,
      "v": 72
    },
    {
      "midi": 58,
      "hit": false,
      "t": 90925.48834635419,
      "d": 516.8269661458326,
      "v": 75
    },
    {
      "midi": 70,
      "hit": false,
      "t": 91151.44990364586,
      "d": 524.0385052083293,
      "v": 97
    },
    {
      "midi": 65,
      "hit": false,
      "t": 91151.44990364586,
      "d": 526.4423515624949,
      "v": 103
    },
    {
      "midi": 62,
      "hit": false,
      "t": 91391.83453906252,
      "d": 305.2884869791742,
      "v": 81
    },
    {
      "midi": 58,
      "hit": false,
      "t": 91605.77686458336,
      "d": 348.5577213541692,
      "v": 88
    },
    {
      "midi": 65,
      "hit": false,
      "t": 91838.94996093752,
      "d": 254.80771354165336,
      "v": 105
    },
    {
      "midi": 70,
      "hit": false,
      "t": 91841.35380729169,
      "d": 233.17309635416314,
      "v": 105
    },
    {
      "midi": 58,
      "hit": false,
      "t": 92064.91151822919,
      "d": 86.53846874998999,
      "v": 55
    },
    {
      "midi": 62,
      "hit": false,
      "t": 92086.54613541668,
      "d": 129.80770312499953,
      "v": 72
    },
    {
      "midi": 68,
      "hit": false,
      "t": 92201.93076041668,
      "d": 72.11539062499651,
      "v": 68
    },
    {
      "midi": 57,
      "hit": false,
      "t": 92286.0653828125,
      "d": 7209.135216145791,
      "v": 69
    },
    {
      "midi": 48,
      "hit": false,
      "t": 92295.68076822917,
      "d": 1161.0577890624845,
      "v": 74
    },
    {
      "midi": 69,
      "hit": false,
      "t": 92295.68076822917,
      "d": 4274.038817708322,
      "v": 78
    },
    {
      "midi": 65,
      "hit": false,
      "t": 92305.29615364583,
      "d": 4235.5772760416585,
      "v": 86
    },
    {
      "midi": 60,
      "hit": false,
      "t": 92317.31538541666,
      "d": 5334.135059895838,
      "v": 86
    },
    {
      "midi": 81,
      "hit": false,
      "t": 97858.18123177082,
      "d": 194.7115546874993,
      "v": 105
    },
    {
      "midi": 72,
      "hit": false,
      "t": 97865.39277083332,
      "d": 389.42310937498405,
      "v": 105
    },
    {
      "midi": 79,
      "hit": false,
      "t": 97997.60432031249,
      "d": 139.42308854166185,
      "v": 88
    },
    {
      "midi": 77,
      "hit": false,
      "t": 98122.60433072915,
      "d": 84.13462239582441,
      "v": 67
    },
    {
      "midi": 81,
      "hit": false,
      "t": 98331.73896354163,
      "d": 194.71155468751385,
      "v": 86
    },
    {
      "midi": 72,
      "hit": false,
      "t": 98360.58511979163,
      "d": 81.73077604167338,
      "v": 8
    },
    {
      "midi": 79,
      "hit": false,
      "t": 98471.16205208331,
      "d": 173.07693750000908,
      "v": 42
    },
    {
      "midi": 77,
      "hit": false,
      "t": 98608.18129427082,
      "d": 206.7307864583272,
      "v": 61
    },
    {
      "midi": 72,
      "hit": false,
      "t": 98769.23899999999,
      "d": 185.09616927082243,
      "v": 97
    },
    {
      "midi": 69,
      "hit": false,
      "t": 99000.00824999997,
      "d": 230.76924999999756,
      "v": 69
    },
    {
      "midi": 67,
      "hit": false,
      "t": 99230.77749999997,
      "d": 230.76924999999756,
      "v": 69
    },
    {
      "midi": 65,
      "hit": false,
      "t": 99461.54674999996,
      "d": 230.76924999999756,
      "v": 70
    },
    {
      "midi": 72,
      "hit": false,
      "t": 99692.31599999996,
      "d": 415.86541927083454,
      "v": 84
    },
    {
      "midi": 76,
      "hit": false,
      "t": 99692.31599999996,
      "d": 420.6731119791657,
      "v": 88
    },
    {
      "midi": 48,
      "hit": false,
      "t": 99692.31599999996,
      "d": 461.5384999999951,
      "v": 80
    },
    {
      "midi": 48,
      "hit": false,
      "t": 100153.85449999996,
      "d": 1615.3847499999974,
      "v": 79
    },
    {
      "midi": 76,
      "hit": false,
      "t": 100161.06603906245,
      "d": 1822.1155364583392,
      "v": 72
    },
    {
      "midi": 72,
      "hit": false,
      "t": 100161.06603906245,
      "d": 1971.154010416678,
      "v": 80
    },
    {
      "midi": 64,
      "hit": false,
      "t": 102012.0277317708,
      "d": 247.59617447917117,
      "v": 60
    },
    {
      "midi": 48,
      "hit": false,
      "t": 102209.14313281246,
      "d": 834.1346848958347,
      "v": 76
    },
    {
      "midi": 55,
      "hit": false,
      "t": 102456.73930729163,
      "d": 276.4423307291727,
      "v": 94
    },
    {
      "midi": 67,
      "hit": false,
      "t": 102699.52778906247,
      "d": 560.0962005208276,
      "v": 105
    },
    {
      "midi": 72,
      "hit": false,
      "t": 102701.93163541664,
      "d": 634.6154374999896,
      "v": 105
    },
    {
      "midi": 64,
      "hit": false,
      "t": 102942.3162708333,
      "d": 391.8269557291642,
      "v": 84
    },
    {
      "midi": 55,
      "hit": false,
      "t": 103161.06628906247,
      "d": 64.90385156249977,
      "v": 58
    },
    {
      "midi": 65,
      "hit": false,
      "t": 103379.81630729162,
      "d": 98.55770052083244,
      "v": 78
    },
    {
      "midi": 70,
      "hit": false,
      "t": 103382.22015364579,
      "d": 112.98077864584047,
      "v": 64
    },
    {
      "midi": 46,
      "hit": false,
      "t": 103394.23938541661,
      "d": 3362.9810494791745,
      "v": 60
    },
    {
      "midi": 65,
      "hit": false,
      "t": 103850.9701927083,
      "d": 1442.307812500003,
      "v": 85
    },
    {
      "midi": 70,
      "hit": false,
      "t": 103850.9701927083,
      "d": 1449.5193515624997,
      "v": 78
    },
    {
      "midi": 62,
      "hit": false,
      "t": 103858.18173177079,
      "d": 822.1154531250068,
      "v": 69
    },
    {
      "midi": 58,
      "hit": false,
      "t": 103858.18173177079,
      "d": 1021.6347005208372,
      "v": 45
    },
    {
      "midi": 62,
      "hit": false,
      "t": 104769.23949999997,
      "d": 533.6538906249916,
      "v": 22
    },
    {
      "midi": 58,
      "hit": false,
      "t": 105225.97030729163,
      "d": 329.32695052083,
      "v": 58
    },
    {
      "midi": 65,
      "hit": false,
      "t": 105454.33571093746,
      "d": 365.38464583332825,
      "v": 99
    },
    {
      "midi": 70,
      "hit": false,
      "t": 105456.73955729163,
      "d": 305.28848697915964,
      "v": 102
    },
    {
      "midi": 62,
      "hit": false,
      "t": 105682.7011145833,
      "d": 355.7692604166514,
      "v": 73
    },
    {
      "midi": 65,
      "hit": false,
      "t": 105872.60497656246,
      "d": 117.78847135415708,
      "v": 12
    },
    {
      "midi": 58,
      "hit": false,
      "t": 105913.47036458329,
      "d": 396.6346484374808,
      "v": 66
    },
    {
      "midi": 74,
      "hit": false,
      "t": 106165.87423177078,
      "d": 408.6538802083378,
      "v": 88
    },
    {
      "midi": 65,
      "hit": false,
      "t": 106165.87423177078,
      "d": 536.0577369791718,
      "v": 88
    },
    {
      "midi": 62,
      "hit": false,
      "t": 106391.83578906245,
      "d": 300.48079427084303,
      "v": 80
    },
    {
      "midi": 58,
      "hit": false,
      "t": 106608.18196093745,
      "d": 262.01925260416465,
      "v": 61
    },
    {
      "midi": 70,
      "hit": false,
      "t": 106819.72044010412,
      "d": 165.86539843748324,
      "v": 66
    },
    {
      "midi": 65,
      "hit": false,
      "t": 106826.93197916662,
      "d": 144.23078124999302,
      "v": 63
    },
    {
      "midi": 69,
      "hit": false,
      "t": 107060.10507552077,
      "d": 3206.7310364583245,
      "v": 66
    },
    {
      "midi": 65,
      "hit": false,
      "t": 107069.72046093743,
      "d": 3326.9233541666763,
      "v": 74
    },
    {
      "midi": 60,
      "hit": false,
      "t": 107072.1243072916,
      "d": 3307.692583333337,
      "v": 62
    },
    {
      "midi": 57,
      "hit": false,
      "t": 107086.54738541659,
      "d": 1951.9232395833387,
      "v": 61
    },
    {
      "midi": 48,
      "hit": false,
      "t": 107088.95123177076,
      "d": 3360.5772031250235,
      "v": 51
    },
    {
      "midi": 57,
      "hit": false,
      "t": 110778.85538541661,
      "d": 411.0577265624888,
      "v": 48
    },
    {
      "midi": 60,
      "hit": false,
      "t": 110778.85538541661,
      "d": 418.26926562498556,
      "v": 60
    },
    {
      "midi": 65,
      "hit": false,
      "t": 110778.85538541661,
      "d": 418.26926562498556,
      "v": 61
    },
    {
      "midi": 41,
      "hit": false,
      "t": 110793.2784635416,
      "d": 490.3846562499966,
      "v": 58
    },
    {
      "midi": 41,
      "hit": false,
      "t": 114492.7980026041,
      "d": 122.5961640625028,
      "v": 58
    },
    {
      "midi": 65,
      "hit": false,
      "t": 114492.7980026041,
      "d": 139.42308854166185,
      "v": 43
    },
    {
      "midi": 60,
      "hit": false,
      "t": 114502.41338802077,
      "d": 115.38462500000605,
      "v": 48
    },
    {
      "midi": 57,
      "hit": false,
      "t": 114502.41338802077,
      "d": 149.03847395833873,
      "v": 34
    },
    {
      "midi": 65,
      "hit": false,
      "t": 114944.72111718744,
      "d": 1627.4039817708108,
      "v": 49
    },
    {
      "midi": 60,
      "hit": false,
      "t": 114951.93265624993,
      "d": 1521.6347421874816,
      "v": 50
    },
    {
      "midi": 57,
      "hit": false,
      "t": 114963.95188802076,
      "d": 918.2693072916591,
      "v": 33
    },
    {
      "midi": 41,
      "hit": false,
      "t": 114963.95188802076,
      "d": 2956.731015624973,
      "v": 42
    },
    {
      "midi": 53,
      "hit": false,
      "t": 114973.56727343742,
      "d": 2939.904091145814,
      "v": 42
    },
    {
      "midi": 65,
      "hit": false,
      "t": 116959.14436197908,
      "d": 137.01924218749627,
      "v": 63
    },
    {
      "midi": 72,
      "hit": false,
      "t": 117187.50976562491,
      "d": 218.75001822916965,
      "v": 105
    },
    {
      "midi": 75,
      "hit": false,
      "t": 117187.50976562491,
      "d": 252.40386718750233,
      "v": 102
    },
    {
      "midi": 65,
      "hit": false,
      "t": 117451.93286458324,
      "d": 120.19231770833721,
      "v": 91
    },
    {
      "midi": 70,
      "hit": false,
      "t": 117665.87519010408,
      "d": 237.9807890624943,
      "v": 91
    },
    {
      "midi": 74,
      "hit": false,
      "t": 117675.49057552074,
      "d": 252.40386718748778,
      "v": 85
    },
    {
      "midi": 65,
      "hit": false,
      "t": 117899.04828645824,
      "d": 139.4230885416473,
      "v": 72
    },
    {
      "midi": 53,
      "hit": false,
      "t": 118125.0098437499,
      "d": 1240.3847187499923,
      "v": 52
    },
    {
      "midi": 41,
      "hit": false,
      "t": 118129.81753645823,
      "d": 3016.827174479142,
      "v": 58
    },
    {
      "midi": 72,
      "hit": false,
      "t": 118137.02907552072,
      "d": 1641.8270598958188,
      "v": 63
    },
    {
      "midi": 65,
      "hit": false,
      "t": 118141.83676822906,
      "d": 1656.2501380208269,
      "v": 43
    },
    {
      "midi": 69,
      "hit": false,
      "t": 118163.47138541656,
      "d": 1661.057830729158,
      "v": 58
    },
    {
      "midi": 53,
      "hit": false,
      "t": 119733.18305468738,
      "d": 694.7115963541582,
      "v": 36
    },
    {
      "midi": 69,
      "hit": false,
      "t": 119973.56769010406,
      "d": 1552.8847447916487,
      "v": 38
    },
    {
      "midi": 65,
      "hit": false,
      "t": 119983.18307552072,
      "d": 1579.3270546874992,
      "v": 63
    },
    {
      "midi": 60,
      "hit": false,
      "t": 119997.60615364571,
      "d": 1548.077052083332,
      "v": 49
    },
    {
      "midi": 53,
      "hit": false,
      "t": 120918.27930729154,
      "d": 697.1154427083529,
      "v": 52
    },
    {
      "midi": 67,
      "hit": false,
      "t": 121843.76015364572,
      "d": 146.63462760417315,
      "v": 52
    },
    {
      "midi": 60,
      "hit": false,
      "t": 121843.76015364572,
      "d": 149.03847395833873,
      "v": 44
    },
    {
      "midi": 64,
      "hit": false,
      "t": 121855.77938541655,
      "d": 115.38462500000605,
      "v": 67
    },
    {
      "midi": 55,
      "hit": false,
      "t": 121855.77938541655,
      "d": 141.826934895842,
      "v": 48
    },
    {
      "midi": 48,
      "hit": false,
      "t": 121855.77938541655,
      "d": 204.32694010417617,
      "v": 24
    },
    {
      "midi": 48,
      "hit": false,
      "t": 122295.68326822906,
      "d": 3036.057945312481,
      "v": 40
    },
    {
      "midi": 60,
      "hit": false,
      "t": 122298.08711458322,
      "d": 1442.3078124999884,
      "v": 44
    },
    {
      "midi": 67,
      "hit": false,
      "t": 122305.29865364572,
      "d": 1408.6539635416557,
      "v": 55
    },
    {
      "midi": 55,
      "hit": false,
      "t": 122307.70249999988,
      "d": 1084.1347057291568,
      "v": 45
    },
    {
      "midi": 64,
      "hit": false,
      "t": 122314.91403906238,
      "d": 1418.2693489583326,
      "v": 63
    },
    {
      "midi": 60,
      "hit": false,
      "t": 123906.2603255207,
      "d": 86.53846875000454,
      "v": 72
    },
    {
      "midi": 62,
      "hit": false,
      "t": 123973.56802343737,
      "d": 86.53846875000454,
      "v": 73
    },
    {
      "midi": 60,
      "hit": false,
      "t": 124064.91418489571,
      "d": 98.55770052083244,
      "v": 48
    },
    {
      "midi": 59,
      "hit": false,
      "t": 124129.81803645821,
      "d": 187.50001562500256,
      "v": 86
    },
    {
      "midi": 60,
      "hit": false,
      "t": 124358.18344010404,
      "d": 98.55770052083244,
      "v": 86
    },
    {
      "midi": 67,
      "hit": false,
      "t": 124625.01038541654,
      "d": 228.36540364583198,
      "v": 86
    },
    {
      "midi": 70,
      "hit": false,
      "t": 124627.4142317707,
      "d": 199.51924739583046,
      "v": 80
    },
    {
      "midi": 60,
      "hit": false,
      "t": 124865.3950208332,
      "d": 98.55770052083244,
      "v": 72
    },
    {
      "midi": 65,
      "hit": false,
      "t": 125076.93349999987,
      "d": 228.36540364583198,
      "v": 76
    },
    {
      "midi": 69,
      "hit": false,
      "t": 125086.54888541653,
      "d": 276.4423307291727,
      "v": 79
    },
    {
      "midi": 60,
      "hit": false,
      "t": 125307.70274999987,
      "d": 110.5769322916749,
      "v": 80
    },
    {
      "midi": 67,
      "hit": false,
      "t": 125536.06815364571,
      "d": 3531.2502942708234,
      "v": 73
    },
    {
      "midi": 64,
      "hit": false,
      "t": 125548.08738541654,
      "d": 3528.846447916658,
      "v": 72
    },
    {
      "midi": 48,
      "hit": false,
      "t": 125555.29892447904,
      "d": 3540.8656796874857,
      "v": 42
    },
    {
      "midi": 55,
      "hit": false,
      "t": 125560.10661718737,
      "d": 3526.442601562492,
      "v": 54
    },
    {
      "midi": 67,
      "hit": false,
      "t": 131312.51094270818,
      "d": 149.03847395832418,
      "v": 72
    },
    {
      "midi": 77,
      "hit": false,
      "t": 131521.64557552067,
      "d": 139.42308854166185,
      "v": 81
    },
    {
      "midi": 74,
      "hit": false,
      "t": 131536.06865364566,
      "d": 149.03847395832418,
      "v": 84
    },
    {
      "midi": 79,
      "hit": false,
      "t": 131798.08790624983,
      "d": 112.98077864581137,
      "v": 85
    },
    {
      "midi": 76,
      "hit": false,
      "t": 131805.29944531232,
      "d": 74.51923697916209,
      "v": 82
    },
    {
      "midi": 76,
      "hit": false,
      "t": 132254.81871354146,
      "d": 67.30769791666535,
      "v": 82
    },
    {
      "midi": 72,
      "hit": false,
      "t": 132254.81871354146,
      "d": 72.11539062499651,
      "v": 84
    },
    {
      "midi": 60,
      "hit": false,
      "t": 132903.85722916646,
      "d": 1862.9809244791395,
      "v": 12
    },
    {
      "midi": 74,
      "hit": false,
      "t": 132930.29953906228,
      "d": 1769.2309166666528,
      "v": 63
    },
    {
      "midi": 67,
      "hit": false,
      "t": 132930.29953906228,
      "d": 1778.846302083315,
      "v": 61
    },
    {
      "midi": 70,
      "hit": false,
      "t": 132932.70338541645,
      "d": 1762.019377604156,
      "v": 55
    },
    {
      "midi": 48,
      "hit": false,
      "t": 134975.9727864581,
      "d": 1572.115515625017,
      "v": 20
    },
    {
      "midi": 55,
      "hit": false,
      "t": 135216.35742187477,
      "d": 1399.038578125008,
      "v": 66
    },
    {
      "midi": 60,
      "hit": false,
      "t": 135435.10744010392,
      "d": 949.5193098958407,
      "v": 92
    },
    {
      "midi": 64,
      "hit": false,
      "t": 135437.5112864581,
      "d": 947.1154635416751,
      "v": 103
    },
    {
      "midi": 67,
      "hit": false,
      "t": 135439.91513281225,
      "d": 1175.4808671875217,
      "v": 94
    },
    {
      "midi": 57,
      "hit": false,
      "t": 136615.39599999978,
      "d": 2600.961755208322,
      "v": 69
    },
    {
      "midi": 65,
      "hit": false,
      "t": 136622.60753906227,
      "d": 2526.4425182291598,
      "v": 81
    },
    {
      "midi": 60,
      "hit": false,
      "t": 136627.4152317706,
      "d": 2548.07713541665,
      "v": 75
    },
    {
      "midi": 41,
      "hit": false,
      "t": 136627.4152317706,
      "d": 3521.6349088541756,
      "v": 74
    },
    {
      "midi": 53,
      "hit": false,
      "t": 139610.58855729143,
      "d": 105.76923958334373,
      "v": 63
    },
    {
      "midi": 60,
      "hit": false,
      "t": 139817.31934374978,
      "d": 1497.5962786457967,
      "v": 92
    },
    {
      "midi": 65,
      "hit": false,
      "t": 139819.72319010395,
      "d": 1492.7885859374655,
      "v": 90
    },
    {
      "midi": 57,
      "hit": false,
      "t": 140081.7424427081,
      "d": 1211.5385624999763,
      "v": 39
    },
    {
      "midi": 41,
      "hit": false,
      "t": 140300.49246093727,
      "d": 1014.4231614583114,
      "v": 84
    },
    {
      "midi": 65,
      "hit": false,
      "t": 144007.22353906225,
      "d": 240.38463541664532,
      "v": 54
    },
    {
      "midi": 53,
      "hit": false,
      "t": 144009.62738541642,
      "d": 250.00002083330764,
      "v": 39
    },
    {
      "midi": 41,
      "hit": false,
      "t": 144009.62738541642,
      "d": 266.8269453124667,
      "v": 46
    },
    {
      "midi": 60,
      "hit": false,
      "t": 144014.43507812475,
      "d": 230.769249999983,
      "v": 49
    },
    {
      "midi": 57,
      "hit": false,
      "t": 144026.45430989558,
      "d": 235.57694270831416,
      "v": 28
    },
    {
      "midi": 41,
      "hit": false,
      "t": 144507.2235807289,
      "d": 3057.6925624999276,
      "v": 16
    },
    {
      "midi": 53,
      "hit": false,
      "t": 144516.83896614556,
      "d": 3021.634867187444,
      "v": 32
    },
    {
      "midi": 60,
      "hit": false,
      "t": 144524.05050520806,
      "d": 759.6154479166435,
      "v": 38
    },
    {
      "midi": 65,
      "hit": false,
      "t": 144528.8581979164,
      "d": 795.6731432291563,
      "v": 38
    },
    {
      "midi": 57,
      "hit": false,
      "t": 144531.26204427055,
      "d": 545.6731223958195,
      "v": 26
    },
    {
      "midi": 72,
      "hit": false,
      "t": 145625.0121354164,
      "d": 81.73077604165883,
      "v": 60
    },
    {
      "midi": 79,
      "hit": false,
      "t": 145826.93522916638,
      "d": 180.28847656250582,
      "v": 105
    },
    {
      "midi": 72,
      "hit": false,
      "t": 145831.7429218747,
      "d": 187.50001562500256,
      "v": 85
    },
    {
      "midi": 81,
      "hit": false,
      "t": 146000.0121666664,
      "d": 158.6538593749865,
      "v": 67
    },
    {
      "midi": 72,
      "hit": false,
      "t": 146156.2621796872,
      "d": 50.480773437506286,
      "v": 72
    },
    {
      "midi": 79,
      "hit": false,
      "t": 146305.30065364557,
      "d": 180.28847656247672,
      "v": 105
    },
    {
      "midi": 72,
      "hit": false,
      "t": 146314.91603906223,
      "d": 168.26924479164882,
      "v": 87
    },
    {
      "midi": 81,
      "hit": false,
      "t": 146468.76220572888,
      "d": 139.42308854166185,
      "v": 69
    },
    {
      "midi": 72,
      "hit": false,
      "t": 146617.8006796872,
      "d": 43.269234375009546,
      "v": 84
    },
    {
      "midi": 67,
      "hit": false,
      "t": 146783.66607812472,
      "d": 223.55771093748626,
      "v": 88
    },
    {
      "midi": 69,
      "hit": false,
      "t": 146927.8968593747,
      "d": 194.7115546874993,
      "v": 69
    },
    {
      "midi": 60,
      "hit": false,
      "t": 147074.53148697887,
      "d": 79.32692968749325,
      "v": 72
    },
    {
      "midi": 67,
      "hit": false,
      "t": 147247.60842447885,
      "d": 180.28847656250582,
      "v": 105
    },
    {
      "midi": 60,
      "hit": false,
      "t": 147250.01227083302,
      "d": 72.11539062499651,
      "v": 61
    },
    {
      "midi": 69,
      "hit": false,
      "t": 147387.0315130205,
      "d": 137.01924218749627,
      "v": 74
    },
    {
      "midi": 60,
      "hit": false,
      "t": 147528.85844791634,
      "d": 79.32692968749325,
      "v": 78
    },
    {
      "midi": 60,
      "hit": false,
      "t": 147699.53153906215,
      "d": 3425.481054687494,
      "v": 72
    },
    {
      "midi": 65,
      "hit": false,
      "t": 147701.93538541632,
      "d": 3439.9041328124877,
      "v": 76
    },
    {
      "midi": 57,
      "hit": false,
      "t": 147706.74307812465,
      "d": 3423.0772083333286,
      "v": 69
    },
    {
      "midi": 41,
      "hit": false,
      "t": 147711.55077083298,
      "d": 3447.1156718749844,
      "v": 62
    },
    {
      "midi": 53,
      "hit": false,
      "t": 147713.95461718715,
      "d": 3081.7310260416707,
      "v": 55
    },
    {
      "midi": 60,
      "hit": false,
      "t": 151384.62799999965,
      "d": 96.15385416665231,
      "v": 79
    },
    {
      "midi": 48,
      "hit": false,
      "t": 151387.0318463538,
      "d": 134.6153958333016,
      "v": 84
    },
    {
      "midi": 55,
      "hit": false,
      "t": 151394.2433854163,
      "d": 98.55770052081789,
      "v": 72
    },
    {
      "midi": 64,
      "hit": false,
      "t": 151396.64723177048,
      "d": 115.38462499997695,
      "v": 84
    },
    {
      "midi": 60,
      "hit": false,
      "t": 151836.55111458295,
      "d": 1665.8655234375037,
      "v": 79
    },
    {
      "midi": 64,
      "hit": false,
      "t": 151836.55111458295,
      "d": 1673.0770625000005,
      "v": 79
    },
    {
      "midi": 55,
      "hit": false,
      "t": 151843.76265364545,
      "d": 1466.3462760416733,
      "v": 64
    },
    {
      "midi": 48,
      "hit": false,
      "t": 151848.57034635378,
      "d": 1968.7501640625123,
      "v": 72
    },
    {
      "midi": 48,
      "hit": false,
      "t": 153920.68590364547,
      "d": 858.1731484374614,
      "v": 85
    },
    {
      "midi": 60,
      "hit": false,
      "t": 153937.51282812463,
      "d": 67.30769791666535,
      "v": 67
    },
    {
      "midi": 67,
      "hit": false,
      "t": 154156.26284635378,
      "d": 259.61540624999907,
      "v": 103
    },
    {
      "midi": 70,
      "hit": false,
      "t": 154163.47438541628,
      "d": 252.40386718750233,
      "v": 94
    },
    {
      "midi": 60,
      "hit": false,
      "t": 154389.43594270796,
      "d": 110.57693229164579,
      "v": 80
    },
    {
      "midi": 65,
      "hit": false,
      "t": 154620.20519270794,
      "d": 213.94232552082394,
      "v": 94
    },
    {
      "midi": 69,
      "hit": false,
      "t": 154622.6090390621,
      "d": 298.07694791664835,
      "v": 86
    },
    {
      "midi": 60,
      "hit": false,
      "t": 154853.3782890621,
      "d": 108.17308593750931,
      "v": 73
    },
    {
      "midi": 66,
      "hit": false,
      "t": 155040.8783046871,
      "d": 24.0384635416558,
      "v": 63
    },
    {
      "midi": 64,
      "hit": false,
      "t": 155103.37830989543,
      "d": 139.42308854166185,
      "v": 80
    },
    {
      "midi": 67,
      "hit": false,
      "t": 155125.01292708292,
      "d": 120.19231770833721,
      "v": 79
    },
    {
      "midi": 48,
      "hit": false,
      "t": 155125.01292708292,
      "d": 177.88463020834024,
      "v": 84
    },
    {
      "midi": 60,
      "hit": false,
      "t": 155550.49373177043,
      "d": 2125.000177083304,
      "v": 74
    },
    {
      "midi": 67,
      "hit": false,
      "t": 155555.30142447876,
      "d": 2108.173252604145,
      "v": 72
    },
    {
      "midi": 48,
      "hit": false,
      "t": 155557.70527083293,
      "d": 1956.7309322916553,
      "v": 75
    },
    {
      "midi": 64,
      "hit": false,
      "t": 155557.70527083293,
      "d": 2122.5963307291386,
      "v": 75
    },
    {
      "midi": 48,
      "hit": false,
      "t": 157608.18621093707,
      "d": 574.5192786458647,
      "v": 79
    },
    {
      "midi": 60,
      "hit": false,
      "t": 157841.35930729125,
      "d": 584.134664062527,
      "v": 94
    },
    {
      "midi": 64,
      "hit": false,
      "t": 157841.35930729125,
      "d": 675.4808255208482,
      "v": 91
    },
    {
      "midi": 55,
      "hit": false,
      "t": 158069.7247109371,
      "d": 435.09619010417373,
      "v": 80
    },
    {
      "midi": 48,
      "hit": false,
      "t": 158370.20550520794,
      "d": 69.71154427083093,
      "v": 28
    },
    {
      "midi": 48,
      "hit": false,
      "t": 158574.5324453121,
      "d": 125.00001041666837,
      "v": 42
    },
    {
      "midi": 62,
      "hit": false,
      "t": 158776.4555390621,
      "d": 125.00001041663927,
      "v": 76
    },
    {
      "midi": 55,
      "hit": false,
      "t": 158776.4555390621,
      "d": 129.80770312497043,
      "v": 80
    },
    {
      "midi": 65,
      "hit": false,
      "t": 158776.4555390621,
      "d": 144.2307812499639,
      "v": 86
    },
    {
      "midi": 58,
      "hit": false,
      "t": 158783.6670781246,
      "d": 86.53846874998999,
      "v": 76
    },
    {
      "midi": 48,
      "hit": false,
      "t": 158795.68630989542,
      "d": 137.01924218746717,
      "v": 56
    },
    {
      "midi": 62,
      "hit": false,
      "t": 159228.3786536454,
      "d": 1096.1539374999993,
      "v": 76
    },
    {
      "midi": 58,
      "hit": false,
      "t": 159228.3786536454,
      "d": 1122.5962473958207,
      "v": 74
    },
    {
      "midi": 65,
      "hit": false,
      "t": 159228.3786536454,
      "d": 1139.4231718749797,
      "v": 82
    },
    {
      "midi": 48,
      "hit": false,
      "t": 159228.3786536454,
      "d": 2834.1348515624704,
      "v": 69
    },
    {
      "midi": 55,
      "hit": false,
      "t": 159233.18634635373,
      "d": 1112.9808619791584,
      "v": 79
    },
    {
      "midi": 36,
      "hit": false,
      "t": 160591.35953645787,
      "d": 1596.1539791666728,
      "v": 58
    },
    {
      "midi": 60,
      "hit": false,
      "t": 160625.0133854162,
      "d": 1406.2501171875047,
      "v": 61
    },
    {
      "midi": 64,
      "hit": false,
      "t": 160625.0133854162,
      "d": 1487.9808932291635,
      "v": 54
    },
    {
      "midi": 55,
      "hit": false,
      "t": 160629.82107812454,
      "d": 1442.3078124999884,
      "v": 42
    },
    {
      "midi": 48,
      "hit": false,
      "t": 162197.1289010412,
      "d": 1947.115546874964,
      "v": 63
    },
    {
      "midi": 58,
      "hit": false,
      "t": 162420.6866119787,
      "d": 96.15385416665231,
      "v": 58
    },
    {
      "midi": 55,
      "hit": false,
      "t": 162427.89815104118,
      "d": 98.55770052081789,
      "v": 60
    },
    {
      "midi": 65,
      "hit": false,
      "t": 162427.89815104118,
      "d": 117.78847135414253,
      "v": 78
    },
    {
      "midi": 36,
      "hit": false,
      "t": 162432.7058437495,
      "d": 274.03848437499255,
      "v": 75
    },
    {
      "midi": 62,
      "hit": false,
      "t": 162435.10969010368,
      "d": 93.75000781248673,
      "v": 76
    },
    {
      "midi": 65,
      "hit": false,
      "t": 162930.302039062,
      "d": 1223.5577942708333,
      "v": 60
    },
    {
      "midi": 58,
      "hit": false,
      "t": 162935.10973177032,
      "d": 1221.1539479166677,
      "v": 38
    },
    {
      "midi": 36,
      "hit": false,
      "t": 162939.91742447866,
      "d": 1257.2116432291514,
      "v": 64
    },
    {
      "midi": 55,
      "hit": false,
      "t": 162944.725117187,
      "d": 1199.5193307291775,
      "v": 51
    },
    {
      "midi": 62,
      "hit": false,
      "t": 162944.725117187,
      "d": 1221.1539479166677,
      "v": 72
    },
    {
      "midi": 48,
      "hit": false,
      "t": 164300.49446093698,
      "d": 1651.442445312452,
      "v": 60
    },
    {
      "midi": 64,
      "hit": false,
      "t": 164302.89830729115,
      "d": 1574.5193619791244,
      "v": 68
    },
    {
      "midi": 55,
      "hit": false,
      "t": 164305.30215364532,
      "d": 1524.0385885416472,
      "v": 50
    },
    {
      "midi": 60,
      "hit": false,
      "t": 164310.10984635365,
      "d": 1536.057820312475,
      "v": 63
    },
    {
      "midi": 36,
      "hit": false,
      "t": 164317.32138541614,
      "d": 1603.3655182291404,
      "v": 55
    },
    {
      "midi": 53,
      "hit": false,
      "t": 166170.6869244786,
      "d": 1105.7693229166907,
      "v": 58
    },
    {
      "midi": 41,
      "hit": false,
      "t": 166177.8984635411,
      "d": 3271.6348880208097,
      "v": 52
    },
    {
      "midi": 60,
      "hit": false,
      "t": 166875.01390624943,
      "d": 64.90385156249977,
      "v": 62
    },
    {
      "midi": 65,
      "hit": false,
      "t": 167100.9754635411,
      "d": 403.8461875000212,
      "v": 100
    },
    {
      "midi": 69,
      "hit": false,
      "t": 167105.78315624944,
      "d": 391.8269557291933,
      "v": 88
    },
    {
      "midi": 60,
      "hit": false,
      "t": 167329.34086718695,
      "d": 204.32694010416162,
      "v": 75
    },
    {
      "midi": 53,
      "hit": false,
      "t": 167548.0908854161,
      "d": 305.2884869791742,
      "v": 58
    },
    {
      "midi": 60,
      "hit": false,
      "t": 167774.0524427078,
      "d": 490.38465624995297,
      "v": 99
    },
    {
      "midi": 67,
      "hit": false,
      "t": 167776.45628906196,
      "d": 468.75003906246275,
      "v": 94
    },
    {
      "midi": 57,
      "hit": false,
      "t": 168007.22553906194,
      "d": 269.2307916666323,
      "v": 74
    },
    {
      "midi": 53,
      "hit": false,
      "t": 168225.9755572911,
      "d": 312.50002604164183,
      "v": 55
    },
    {
      "midi": 60,
      "hit": false,
      "t": 168468.7640390619,
      "d": 358.17310677084606,
      "v": 97
    },
    {
      "midi": 65,
      "hit": false,
      "t": 168471.16788541607,
      "d": 384.61541666666744,
      "v": 94
    },
    {
      "midi": 57,
      "hit": false,
      "t": 168718.76405989524,
      "d": 180.28847656250582,
      "v": 76
    },
    {
      "midi": 53,
      "hit": false,
      "t": 168920.68715364524,
      "d": 163.46155208334676,
      "v": 66
    },
    {
      "midi": 60,
      "hit": false,
      "t": 169149.05255729108,
      "d": 632.2115911458095,
      "v": 92
    },
    {
      "midi": 57,
      "hit": false,
      "t": 169151.45640364525,
      "d": 598.5577421874914,
      "v": 92
    },
    {
      "midi": 53,
      "hit": false,
      "t": 169372.61026822857,
      "d": 336.53848958332674,
      "v": 84
    },
    {
      "midi": 41,
      "hit": false,
      "t": 169612.99490364525,
      "d": 129.80770312499953,
      "v": 48
    },
    {
      "midi": 46,
      "hit": false,
      "t": 169843.76415364523,
      "d": 3295.673351562553,
      "v": 93
    },
    {
      "midi": 62,
      "hit": false,
      "t": 170562.51421354106,
      "d": 67.30769791666535,
      "v": 62
    },
    {
      "midi": 70,
      "hit": false,
      "t": 170810.11038802023,
      "d": 283.65386979165487,
      "v": 102
    },
    {
      "midi": 65,
      "hit": false,
      "t": 170812.5142343744,
      "d": 281.2500234374893,
      "v": 102
    },
    {
      "midi": 62,
      "hit": false,
      "t": 171026.45655989522,
      "d": 129.80770312499953,
      "v": 78
    },
    {
      "midi": 58,
      "hit": false,
      "t": 171237.99503906188,
      "d": 134.6153958333307,
      "v": 57
    },
    {
      "midi": 62,
      "hit": false,
      "t": 171471.16813541605,
      "d": 276.44233072918723,
      "v": 86
    },
    {
      "midi": 67,
      "hit": false,
      "t": 171473.57198177022,
      "d": 427.884651041677,
      "v": 85
    },
    {
      "midi": 58,
      "hit": false,
      "t": 171706.7450781244,
      "d": 230.7692500000121,
      "v": 73
    },
    {
      "midi": 53,
      "hit": false,
      "t": 171973.57202343692,
      "d": 189.90386197916814,
      "v": 50
    },
    {
      "midi": 62,
      "hit": false,
      "t": 172161.07203906192,
      "d": 266.8269453124958,
      "v": 86
    },
    {
      "midi": 65,
      "hit": false,
      "t": 172165.87973177026,
      "d": 237.98078906250885,
      "v": 86
    },
    {
      "midi": 58,
      "hit": false,
      "t": 172411.07205989526,
      "d": 137.01924218749627,
      "v": 78
    },
    {
      "midi": 53,
      "hit": false,
      "t": 172610.5913072911,
      "d": 209.13463281249278,
      "v": 75
    },
    {
      "midi": 62,
      "hit": false,
      "t": 172853.37978906193,
      "d": 603.3654348958516,
      "v": 88
    },
    {
      "midi": 58,
      "hit": false,
      "t": 172855.7836354161,
      "d": 593.7500494791893,
      "v": 104
    },
    {
      "midi": 53,
      "hit": false,
      "t": 173081.74519270778,
      "d": 348.55772135418374,
      "v": 88
    },
    {
      "midi": 46,
      "hit": false,
      "t": 173310.11059635362,
      "d": 120.19231770833721,
      "v": 51
    },
    {
      "midi": 57,
      "hit": false,
      "t": 173555.30292447863,
      "d": 514.4231197916379,
      "v": 80
    },
    {
      "midi": 60,
      "hit": false,
      "t": 173557.7067708328,
      "d": 572.1154322916409,
      "v": 76
    },
    {
      "midi": 41,
      "hit": false,
      "t": 173572.1298489578,
      "d": 3000.0002499999537,
      "v": 72
    },
    {
      "midi": 53,
      "hit": false,
      "t": 173990.39911458277,
      "d": 644.2308229166665,
      "v": 86
    },
    {
      "midi": 60,
      "hit": false,
      "t": 174250.01452083277,
      "d": 105.76923958334373,
      "v": 84
    },
    {
      "midi": 65,
      "hit": false,
      "t": 174480.7837708328,
      "d": 403.8461874999921,
      "v": 105
    },
    {
      "midi": 69,
      "hit": false,
      "t": 174483.18761718695,
      "d": 387.019263020833,
      "v": 90
    },
    {
      "midi": 60,
      "hit": false,
      "t": 174704.34148177027,
      "d": 201.92309374999604,
      "v": 86
    },
    {
      "midi": 53,
      "hit": false,
      "t": 174906.26457552027,
      "d": 334.13464322919026,
      "v": 73
    },
    {
      "midi": 67,
      "hit": false,
      "t": 175134.62997916611,
      "d": 504.80773437500466,
      "v": 97
    },
    {
      "midi": 60,
      "hit": false,
      "t": 175134.62997916611,
      "d": 531.250044270826,
      "v": 105
    },
    {
      "midi": 57,
      "hit": false,
      "t": 175358.18769010363,
      "d": 317.307718749973,
      "v": 82
    },
    {
      "midi": 53,
      "hit": false,
      "t": 175579.34155468695,
      "d": 358.17310677081696,
      "v": 67
    },
    {
      "midi": 60,
      "hit": false,
      "t": 175831.74542187442,
      "d": 377.4038776041707,
      "v": 105
    },
    {
      "midi": 65,
      "hit": false,
      "t": 175831.74542187442,
      "d": 396.63464843749534,
      "v": 102
    },
    {
      "midi": 57,
      "hit": false,
      "t": 176069.72621093693,
      "d": 283.65386979165487,
      "v": 92
    },
    {
      "midi": 53,
      "hit": false,
      "t": 176262.03391927027,
      "d": 211.53847916665836,
      "v": 78
    },
    {
      "midi": 58,
      "hit": false,
      "t": 176500.01470833275,
      "d": 125.00001041666837,
      "v": 105
    },
    {
      "midi": 62,
      "hit": false,
      "t": 176502.4185546869,
      "d": 637.0192838541989,
      "v": 97
    },
    {
      "midi": 53,
      "hit": false,
      "t": 176728.3801119786,
      "d": 408.65388020835235,
      "v": 75
    },
    {
      "midi": 41,
      "hit": false,
      "t": 176971.16859374943,
      "d": 204.32694010419073,
      "v": 72
    },
    {
      "midi": 60,
      "hit": false,
      "t": 177233.18784635363,
      "d": 3692.30799999999,
      "v": 76
    },
    {
      "midi": 57,
      "hit": false,
      "t": 177240.39938541612,
      "d": 3673.0772291666653,
      "v": 74
    },
    {
      "midi": 53,
      "hit": false,
      "t": 177240.39938541612,
      "d": 3685.0964609374932,
      "v": 79
    },
    {
      "midi": 41,
      "hit": false,
      "t": 177266.84169531194,
      "d": 3658.654151041672,
      "v": 70
    }
  ]
}