{
  "jsonPath": "World/Chanson/Florent Pagny/chatelet-les-halles.json",
  "path": "World\\Chanson\\Florent Pagny\\Châtelet Les Halles.mid",
  "name": "Châtelet Les Halles",
  "difficulty": "Advanced",
  "bpm": 76.00006586672374,
  "notes": [
    {
      "midi": 67,
      "hit": false,
      "t": 3157.892,
      "d": 347.45035677083297,
      "v": 85
    },
    {
      "midi": 48,
      "hit": false,
      "t": 3182.5630312499998,
      "d": 2960.5237499999985,
      "v": 82
    },
    {
      "midi": 55,
      "hit": false,
      "t": 3552.6284999999993,
      "d": 423.5193697916666,
      "v": 92
    },
    {
      "midi": 60,
      "hit": false,
      "t": 3947.3649999999993,
      "d": 374.17730729166624,
      "v": 85
    },
    {
      "midi": 55,
      "hit": false,
      "t": 4342.101499999999,
      "d": 374.1773072916667,
      "v": 87
    },
    {
      "midi": 67,
      "hit": false,
      "t": 4736.837999999999,
      "d": 376.2332265625,
      "v": 89
    },
    {
      "midi": 55,
      "hit": false,
      "t": 5131.574499999999,
      "d": 431.7430468749999,
      "v": 84
    },
    {
      "midi": 60,
      "hit": false,
      "t": 5526.310999999999,
      "d": 378.28914583333335,
      "v": 83
    },
    {
      "midi": 55,
      "hit": false,
      "t": 5921.047499999999,
      "d": 407.07201562499904,
      "v": 71
    },
    {
      "midi": 48,
      "hit": false,
      "t": 6229.435390624998,
      "d": 3059.2078749999982,
      "v": 73
    },
    {
      "midi": 60,
      "hit": false,
      "t": 6266.441937499998,
      "d": 380.34506510416577,
      "v": 73
    },
    {
      "midi": 63,
      "hit": false,
      "t": 6291.112968749998,
      "d": 380.34506510416577,
      "v": 80
    },
    {
      "midi": 67,
      "hit": false,
      "t": 6315.783999999998,
      "d": 380.34506510416577,
      "v": 90
    },
    {
      "midi": 36,
      "hit": false,
      "t": 6315.783999999998,
      "d": 2960.5237499999985,
      "v": 82
    },
    {
      "midi": 55,
      "hit": false,
      "t": 6710.520499999997,
      "d": 413.23977343749993,
      "v": 70
    },
    {
      "midi": 60,
      "hit": false,
      "t": 7105.256999999997,
      "d": 382.400984375,
      "v": 79
    },
    {
      "midi": 55,
      "hit": false,
      "t": 7499.993499999997,
      "d": 400.90425781249996,
      "v": 77
    },
    {
      "midi": 67,
      "hit": false,
      "t": 7894.729999999997,
      "d": 368.0095494791667,
      "v": 82
    },
    {
      "midi": 55,
      "hit": false,
      "t": 8289.466499999997,
      "d": 409.1279348958342,
      "v": 76
    },
    {
      "midi": 60,
      "hit": false,
      "t": 8684.202999999998,
      "d": 372.12138802083246,
      "v": 79
    },
    {
      "midi": 55,
      "hit": false,
      "t": 9078.939499999997,
      "d": 390.6246614583324,
      "v": 77
    },
    {
      "midi": 65,
      "hit": false,
      "t": 9473.675999999996,
      "d": 368.0095494791658,
      "v": 82
    },
    {
      "midi": 43,
      "hit": false,
      "t": 9473.675999999996,
      "d": 3092.102583333328,
      "v": 82
    },
    {
      "midi": 56,
      "hit": false,
      "t": 9868.412499999995,
      "d": 368.0095494791658,
      "v": 77
    },
    {
      "midi": 60,
      "hit": false,
      "t": 10263.148999999994,
      "d": 368.0095494791658,
      "v": 77
    },
    {
      "midi": 56,
      "hit": false,
      "t": 10645.549984374993,
      "d": 374.1773072916658,
      "v": 75
    },
    {
      "midi": 65,
      "hit": false,
      "t": 11040.286484374992,
      "d": 349.50627604166584,
      "v": 88
    },
    {
      "midi": 56,
      "hit": false,
      "t": 11435.022984374991,
      "d": 384.45690364583425,
      "v": 81
    },
    {
      "midi": 60,
      "hit": false,
      "t": 11829.759484374992,
      "d": 345.3944374999992,
      "v": 85
    },
    {
      "midi": 56,
      "hit": false,
      "t": 12224.495984374991,
      "d": 382.4009843749991,
      "v": 79
    },
    {
      "midi": 67,
      "hit": false,
      "t": 12631.56799999999,
      "d": 372.12138802083246,
      "v": 84
    },
    {
      "midi": 39,
      "hit": false,
      "t": 12631.56799999999,
      "d": 2960.5237499999967,
      "v": 82
    },
    {
      "midi": 55,
      "hit": false,
      "t": 13026.30449999999,
      "d": 394.7365000000009,
      "v": 82
    },
    {
      "midi": 60,
      "hit": false,
      "t": 13421.04099999999,
      "d": 376.23322656250093,
      "v": 83
    },
    {
      "midi": 55,
      "hit": false,
      "t": 13815.777499999991,
      "d": 384.4569036458324,
      "v": 76
    },
    {
      "midi": 67,
      "hit": false,
      "t": 14210.51399999999,
      "d": 349.50627604166584,
      "v": 90
    },
    {
      "midi": 55,
      "hit": false,
      "t": 14592.91498437499,
      "d": 388.5687421874991,
      "v": 87
    },
    {
      "midi": 60,
      "hit": false,
      "t": 14987.651484374988,
      "d": 384.4569036458324,
      "v": 77
    },
    {
      "midi": 55,
      "hit": false,
      "t": 15394.723499999987,
      "d": 378.28914583333244,
      "v": 84
    },
    {
      "midi": 60,
      "hit": false,
      "t": 15789.459999999986,
      "d": 396.7924192708324,
      "v": 91
    },
    {
      "midi": 41,
      "hit": false,
      "t": 15789.459999999986,
      "d": 3034.536843750002,
      "v": 76
    },
    {
      "midi": 53,
      "hit": false,
      "t": 16182.140580729152,
      "d": 310.4438098958344,
      "v": 94
    },
    {
      "midi": 56,
      "hit": false,
      "t": 16576.877080729155,
      "d": 370.0654687499991,
      "v": 87
    },
    {
      "midi": 53,
      "hit": false,
      "t": 16971.613580729154,
      "d": 390.6246614583324,
      "v": 94
    },
    {
      "midi": 60,
      "hit": false,
      "t": 17366.350080729153,
      "d": 386.51282291666575,
      "v": 94
    },
    {
      "midi": 53,
      "hit": false,
      "t": 17761.086580729152,
      "d": 368.0095494791676,
      "v": 92
    },
    {
      "midi": 62,
      "hit": false,
      "t": 18155.823080729155,
      "d": 382.4009843749991,
      "v": 94
    },
    {
      "midi": 53,
      "hit": false,
      "t": 18550.559580729154,
      "d": 388.5687421875009,
      "v": 89
    },
    {
      "midi": 67,
      "hit": false,
      "t": 18947.351999999988,
      "d": 1202.7127734375026,
      "v": 82
    },
    {
      "midi": 36,
      "hit": false,
      "t": 18947.351999999988,
      "d": 3122.9413723958387,
      "v": 89
    },
    {
      "midi": 55,
      "hit": false,
      "t": 19342.088499999987,
      "d": 316.6115677083326,
      "v": 86
    },
    {
      "midi": 60,
      "hit": false,
      "t": 19734.769080729155,
      "d": 489.3087864583358,
      "v": 82
    },
    {
      "midi": 55,
      "hit": false,
      "t": 20131.56149999999,
      "d": 304.27605208333625,
      "v": 83
    },
    {
      "midi": 67,
      "hit": false,
      "t": 20524.24208072916,
      "d": 1581.001919270835,
      "v": 85
    },
    {
      "midi": 55,
      "hit": false,
      "t": 20918.97858072916,
      "d": 322.7793255208344,
      "v": 77
    },
    {
      "midi": 60,
      "hit": false,
      "t": 21313.715080729162,
      "d": 795.6407578124999,
      "v": 70
    },
    {
      "midi": 55,
      "hit": false,
      "t": 21708.45158072916,
      "d": 384.45690364583425,
      "v": 74
    },
    {
      "midi": 65,
      "hit": false,
      "t": 22105.243999999995,
      "d": 762.7460494791667,
      "v": 89
    },
    {
      "midi": 43,
      "hit": false,
      "t": 22105.243999999995,
      "d": 3090.046664062509,
      "v": 83
    },
    {
      "midi": 56,
      "hit": false,
      "t": 22497.924580729163,
      "d": 349.50627604166584,
      "v": 75
    },
    {
      "midi": 60,
      "hit": false,
      "t": 22892.66108072916,
      "d": 431.743046874999,
      "v": 78
    },
    {
      "midi": 56,
      "hit": false,
      "t": 23287.39758072916,
      "d": 359.7858723958343,
      "v": 76
    },
    {
      "midi": 65,
      "hit": false,
      "t": 23682.134080729164,
      "d": 446.1344817708341,
      "v": 97
    },
    {
      "midi": 56,
      "hit": false,
      "t": 24076.870580729163,
      "d": 363.8977109375046,
      "v": 83
    },
    {
      "midi": 60,
      "hit": false,
      "t": 24471.60708072917,
      "d": 742.186856770837,
      "v": 80
    },
    {
      "midi": 55,
      "hit": false,
      "t": 24473.663000000004,
      "d": 409.1279348958342,
      "v": 63
    },
    {
      "midi": 56,
      "hit": false,
      "t": 24882.79093489584,
      "d": 363.89771093750096,
      "v": 74
    },
    {
      "midi": 67,
      "hit": false,
      "t": 25263.136000000006,
      "d": 894.3248828124997,
      "v": 82
    },
    {
      "midi": 39,
      "hit": false,
      "t": 25263.136000000006,
      "d": 2925.5731223958464,
      "v": 82
    },
    {
      "midi": 55,
      "hit": false,
      "t": 25657.872500000005,
      "d": 279.6050208333327,
      "v": 72
    },
    {
      "midi": 60,
      "hit": false,
      "t": 26052.609000000004,
      "d": 382.40098437500274,
      "v": 82
    },
    {
      "midi": 55,
      "hit": false,
      "t": 26445.289580729175,
      "d": 310.4438098958344,
      "v": 86
    },
    {
      "midi": 67,
      "hit": false,
      "t": 26840.026080729178,
      "d": 1101.9727291666713,
      "v": 84
    },
    {
      "midi": 51,
      "hit": false,
      "t": 26842.082000000013,
      "d": 1326.067929687506,
      "v": 74
    },
    {
      "midi": 55,
      "hit": false,
      "t": 27234.76258072918,
      "d": 351.562195312501,
      "v": 76
    },
    {
      "midi": 60,
      "hit": false,
      "t": 27629.499080729183,
      "d": 372.1213880208343,
      "v": 88
    },
    {
      "midi": 55,
      "hit": false,
      "t": 28022.17966145835,
      "d": 331.0030026041677,
      "v": 96
    },
    {
      "midi": 60,
      "hit": false,
      "t": 28416.916161458354,
      "d": 355.67403385416765,
      "v": 89
    },
    {
      "midi": 41,
      "hit": false,
      "t": 28418.97208072919,
      "d": 2689.1424062500046,
      "v": 85
    },
    {
      "midi": 53,
      "hit": false,
      "t": 28805.484903645855,
      "d": 347.45035677083433,
      "v": 91
    },
    {
      "midi": 56,
      "hit": false,
      "t": 29206.389161458355,
      "d": 388.5687421875009,
      "v": 83
    },
    {
      "midi": 53,
      "hit": false,
      "t": 29601.125661458358,
      "d": 417.3516119791675,
      "v": 94
    },
    {
      "midi": 60,
      "hit": false,
      "t": 29995.862161458357,
      "d": 390.62466145833605,
      "v": 100
    },
    {
      "midi": 53,
      "hit": false,
      "t": 30390.59866145836,
      "d": 402.9601770833324,
      "v": 94
    },
    {
      "midi": 62,
      "hit": false,
      "t": 30785.33516145836,
      "d": 760.6901302083388,
      "v": 96
    },
    {
      "midi": 53,
      "hit": false,
      "t": 31180.07166145836,
      "d": 357.7299531250028,
      "v": 89
    },
    {
      "midi": 41,
      "hit": false,
      "t": 31206.798611979197,
      "d": 320.72340624999924,
      "v": 65
    },
    {
      "midi": 67,
      "hit": false,
      "t": 31578.92000000003,
      "d": 729.8513411458371,
      "v": 94
    },
    {
      "midi": 36,
      "hit": false,
      "t": 31578.92000000003,
      "d": 3048.928278645846,
      "v": 76
    },
    {
      "midi": 62,
      "hit": false,
      "t": 31589.199596354167,
      "d": 347.45035677083433,
      "v": 79
    },
    {
      "midi": 60,
      "hit": false,
      "t": 31971.60058072917,
      "d": 394.7365000000027,
      "v": 64
    },
    {
      "midi": 55,
      "hit": false,
      "t": 31973.656500000034,
      "d": 277.54910156250116,
      "v": 94
    },
    {
      "midi": 60,
      "hit": false,
      "t": 32366.3370807292,
      "d": 396.7924192708342,
      "v": 85
    },
    {
      "midi": 62,
      "hit": false,
      "t": 32378.672596354172,
      "d": 347.45035677083433,
      "v": 79
    },
    {
      "midi": 60,
      "hit": false,
      "t": 32761.073580729175,
      "d": 1940.7877916666657,
      "v": 64
    },
    {
      "midi": 55,
      "hit": false,
      "t": 32763.129500000035,
      "d": 359.78587239583067,
      "v": 90
    },
    {
      "midi": 67,
      "hit": false,
      "t": 33155.8100807292,
      "d": 380.3450651041712,
      "v": 100
    },
    {
      "midi": 55,
      "hit": false,
      "t": 33550.546580729206,
      "d": 322.77932552083075,
      "v": 95
    },
    {
      "midi": 60,
      "hit": false,
      "t": 33943.22716145837,
      "d": 374.1773072916694,
      "v": 90
    },
    {
      "midi": 55,
      "hit": false,
      "t": 34337.96366145838,
      "d": 353.6181145833325,
      "v": 88
    },
    {
      "midi": 62,
      "hit": false,
      "t": 34730.64424218751,
      "d": 777.1374843750018,
      "v": 79
    },
    {
      "midi": 67,
      "hit": false,
      "t": 34734.75608072921,
      "d": 394.73649999999907,
      "v": 95
    },
    {
      "midi": 38,
      "hit": false,
      "t": 34734.75608072921,
      "d": 3157.8920000000144,
      "v": 79
    },
    {
      "midi": 55,
      "hit": false,
      "t": 35129.49258072921,
      "d": 331.00300260416407,
      "v": 89
    },
    {
      "midi": 60,
      "hit": false,
      "t": 35522.17316145838,
      "d": 384.45690364583425,
      "v": 90
    },
    {
      "midi": 62,
      "hit": false,
      "t": 35536.56459635418,
      "d": 2290.2940677083316,
      "v": 79
    },
    {
      "midi": 55,
      "hit": false,
      "t": 35918.965580729215,
      "d": 384.45690364583425,
      "v": 89
    },
    {
      "midi": 67,
      "hit": false,
      "t": 36315.75800000005,
      "d": 394.73649999999907,
      "v": 92
    },
    {
      "midi": 55,
      "hit": false,
      "t": 36708.43858072922,
      "d": 341.2825989583289,
      "v": 86
    },
    {
      "midi": 60,
      "hit": false,
      "t": 37103.17508072922,
      "d": 775.0815651041703,
      "v": 88
    },
    {
      "midi": 55,
      "hit": false,
      "t": 37497.91158072922,
      "d": 365.9536302083361,
      "v": 92
    },
    {
      "midi": 62,
      "hit": false,
      "t": 37888.53624218751,
      "d": 396.7924192708306,
      "v": 79
    },
    {
      "midi": 67,
      "hit": false,
      "t": 37894.704000000056,
      "d": 777.1374843750018,
      "v": 95
    },
    {
      "midi": 39,
      "hit": false,
      "t": 37894.704000000056,
      "d": 3042.7605208333407,
      "v": 86
    },
    {
      "midi": 60,
      "hit": false,
      "t": 38283.27274218751,
      "d": 398.84833854166936,
      "v": 64
    },
    {
      "midi": 55,
      "hit": false,
      "t": 38287.384580729224,
      "d": 337.17076041666587,
      "v": 92
    },
    {
      "midi": 62,
      "hit": false,
      "t": 38678.00924218751,
      "d": 396.79241927083785,
      "v": 79
    },
    {
      "midi": 60,
      "hit": false,
      "t": 38682.12108072922,
      "d": 400.9042578125009,
      "v": 91
    },
    {
      "midi": 60,
      "hit": false,
      "t": 39072.745742187515,
      "d": 3540.2929843749953,
      "v": 64
    },
    {
      "midi": 55,
      "hit": false,
      "t": 39076.85758072922,
      "d": 331.00300260417134,
      "v": 94
    },
    {
      "midi": 67,
      "hit": false,
      "t": 39471.59408072923,
      "d": 1258.2225937500043,
      "v": 100
    },
    {
      "midi": 55,
      "hit": false,
      "t": 39866.330580729234,
      "d": 343.3385182291677,
      "v": 96
    },
    {
      "midi": 60,
      "hit": false,
      "t": 40261.06708072923,
      "d": 446.13448177083046,
      "v": 96
    },
    {
      "midi": 55,
      "hit": false,
      "t": 40655.80358072923,
      "d": 333.0589218749956,
      "v": 96
    },
    {
      "midi": 67,
      "hit": false,
      "t": 41050.54008072923,
      "d": 684.6211171875038,
      "v": 102
    },
    {
      "midi": 41,
      "hit": false,
      "t": 41050.54008072923,
      "d": 1576.8900807291793,
      "v": 84
    },
    {
      "midi": 53,
      "hit": false,
      "t": 41445.27658072924,
      "d": 365.95363020832883,
      "v": 99
    },
    {
      "midi": 63,
      "hit": false,
      "t": 41840.01308072924,
      "d": 374.1773072916694,
      "v": 105
    },
    {
      "midi": 56,
      "hit": false,
      "t": 42234.74958072924,
      "d": 400.9042578125009,
      "v": 88
    },
    {
      "midi": 63,
      "hit": false,
      "t": 42629.48608072924,
      "d": 446.13448177083774,
      "v": 95
    },
    {
      "midi": 43,
      "hit": false,
      "t": 42629.48608072924,
      "d": 1624.1762239583404,
      "v": 85
    },
    {
      "midi": 55,
      "hit": false,
      "t": 43026.27850000008,
      "d": 460.5259166666656,
      "v": 81
    },
    {
      "midi": 62,
      "hit": false,
      "t": 43421.01500000008,
      "d": 756.5782916666649,
      "v": 97
    },
    {
      "midi": 55,
      "hit": false,
      "t": 43815.75150000008,
      "d": 361.8417916666658,
      "v": 89
    },
    {
      "midi": 67,
      "hit": false,
      "t": 44214.59983854175,
      "d": 349.5062760416695,
      "v": 77
    },
    {
      "midi": 55,
      "hit": false,
      "t": 44605.224500000084,
      "d": 333.05892187500285,
      "v": 79
    },
    {
      "midi": 62,
      "hit": false,
      "t": 44997.90508072925,
      "d": 789.4729999999981,
      "v": 86
    },
    {
      "midi": 55,
      "hit": false,
      "t": 45388.52974218759,
      "d": 429.68712760416383,
      "v": 88
    },
    {
      "midi": 60,
      "hit": false,
      "t": 45789.43400000008,
      "d": 359.7858723958416,
      "v": 114
    },
    {
      "midi": 55,
      "hit": false,
      "t": 46184.17050000009,
      "d": 281.6609401041642,
      "v": 106
    },
    {
      "midi": 60,
      "hit": false,
      "t": 46580.96291927092,
      "d": 271.38134374999936,
      "v": 108
    },
    {
      "midi": 55,
      "hit": false,
      "t": 46973.643500000086,
      "d": 333.05892187500285,
      "v": 110
    },
    {
      "midi": 60,
      "hit": false,
      "t": 47370.43591927092,
      "d": 343.33851822917495,
      "v": 102
    },
    {
      "midi": 55,
      "hit": false,
      "t": 47763.1165000001,
      "d": 296.0523749999993,
      "v": 108
    },
    {
      "midi": 60,
      "hit": false,
      "t": 48155.797080729266,
      "d": 318.66748697916773,
      "v": 99
    },
    {
      "midi": 55,
      "hit": false,
      "t": 48550.533580729265,
      "d": 281.6609401041642,
      "v": 109
    },
    {
      "midi": 60,
      "hit": false,
      "t": 48945.270080729264,
      "d": 349.5062760416622,
      "v": 101
    },
    {
      "midi": 55,
      "hit": false,
      "t": 49337.950661458424,
      "d": 343.3385182291677,
      "v": 97
    },
    {
      "midi": 60,
      "hit": false,
      "t": 49736.799000000094,
      "d": 365.9536302083361,
      "v": 96
    },
    {
      "midi": 55,
      "hit": false,
      "t": 50131.5355000001,
      "d": 236.4307161458346,
      "v": 97
    },
    {
      "midi": 60,
      "hit": false,
      "t": 50524.21608072927,
      "d": 374.17730729166215,
      "v": 101
    },
    {
      "midi": 55,
      "hit": false,
      "t": 50921.0085000001,
      "d": 314.55564843749744,
      "v": 101
    },
    {
      "midi": 60,
      "hit": false,
      "t": 51315.7450000001,
      "d": 349.5062760416695,
      "v": 96
    },
    {
      "midi": 55,
      "hit": false,
      "t": 51708.425580729265,
      "d": 326.89116406250105,
      "v": 108
    },
    {
      "midi": 58,
      "hit": false,
      "t": 52105.2180000001,
      "d": 359.7858723958343,
      "v": 114
    },
    {
      "midi": 55,
      "hit": false,
      "t": 52499.9545000001,
      "d": 281.6609401041642,
      "v": 106
    },
    {
      "midi": 58,
      "hit": false,
      "t": 52896.74691927093,
      "d": 271.38134374999936,
      "v": 108
    },
    {
      "midi": 55,
      "hit": false,
      "t": 53289.4275000001,
      "d": 333.05892187500285,
      "v": 110
    },
    {
      "midi": 58,
      "hit": false,
      "t": 53686.21991927094,
      "d": 343.33851822917495,
      "v": 102
    },
    {
      "midi": 55,
      "hit": false,
      "t": 54078.90050000011,
      "d": 296.0523749999993,
      "v": 108
    },
    {
      "midi": 58,
      "hit": false,
      "t": 54471.58108072928,
      "d": 318.66748697916773,
      "v": 99
    },
    {
      "midi": 55,
      "hit": false,
      "t": 54866.31758072928,
      "d": 281.6609401041642,
      "v": 109
    },
    {
      "midi": 60,
      "hit": false,
      "t": 55261.05408072928,
      "d": 349.5062760416622,
      "v": 101
    },
    {
      "midi": 55,
      "hit": false,
      "t": 55653.73466145844,
      "d": 343.3385182291677,
      "v": 97
    },
    {
      "midi": 60,
      "hit": false,
      "t": 56052.58300000011,
      "d": 365.9536302083361,
      "v": 96
    },
    {
      "midi": 55,
      "hit": false,
      "t": 56447.319500000114,
      "d": 236.4307161458346,
      "v": 97
    },
    {
      "midi": 60,
      "hit": false,
      "t": 56840.00008072928,
      "d": 374.17730729166215,
      "v": 101
    },
    {
      "midi": 55,
      "hit": false,
      "t": 57236.79250000011,
      "d": 314.55564843749744,
      "v": 101
    },
    {
      "midi": 60,
      "hit": false,
      "t": 57631.52900000011,
      "d": 349.5062760416695,
      "v": 96
    },
    {
      "midi": 55,
      "hit": false,
      "t": 58024.20958072928,
      "d": 326.89116406250105,
      "v": 108
    },
    {
      "midi": 60,
      "hit": false,
      "t": 58421.00200000012,
      "d": 359.7858723958343,
      "v": 114
    },
    {
      "midi": 55,
      "hit": false,
      "t": 58815.738500000116,
      "d": 281.6609401041642,
      "v": 106
    },
    {
      "midi": 60,
      "hit": false,
      "t": 59212.53091927095,
      "d": 271.38134374999936,
      "v": 108
    },
    {
      "midi": 55,
      "hit": false,
      "t": 59605.211500000114,
      "d": 333.05892187500285,
      "v": 110
    },
    {
      "midi": 60,
      "hit": false,
      "t": 60002.00391927095,
      "d": 343.33851822917495,
      "v": 102
    },
    {
      "midi": 55,
      "hit": false,
      "t": 60394.68450000013,
      "d": 296.0523749999993,
      "v": 108
    },
    {
      "midi": 60,
      "hit": false,
      "t": 60787.365080729294,
      "d": 318.66748697916773,
      "v": 99
    },
    {
      "midi": 55,
      "hit": false,
      "t": 61182.10158072929,
      "d": 281.6609401041642,
      "v": 109
    },
    {
      "midi": 60,
      "hit": false,
      "t": 61576.83808072929,
      "d": 349.5062760416622,
      "v": 101
    },
    {
      "midi": 55,
      "hit": false,
      "t": 61969.51866145845,
      "d": 343.3385182291677,
      "v": 97
    },
    {
      "midi": 60,
      "hit": false,
      "t": 62368.36700000012,
      "d": 365.9536302083361,
      "v": 96
    },
    {
      "midi": 55,
      "hit": false,
      "t": 62763.10350000013,
      "d": 236.4307161458346,
      "v": 97
    },
    {
      "midi": 60,
      "hit": false,
      "t": 63155.784080729296,
      "d": 374.17730729166215,
      "v": 101
    },
    {
      "midi": 55,
      "hit": false,
      "t": 63552.57650000013,
      "d": 314.55564843749744,
      "v": 101
    },
    {
      "midi": 60,
      "hit": false,
      "t": 63947.313000000126,
      "d": 349.5062760416695,
      "v": 96
    },
    {
      "midi": 55,
      "hit": false,
      "t": 64339.99358072929,
      "d": 326.89116406250105,
      "v": 108
    },
    {
      "midi": 58,
      "hit": false,
      "t": 64736.78600000013,
      "d": 359.7858723958343,
      "v": 114
    },
    {
      "midi": 55,
      "hit": false,
      "t": 65131.52250000013,
      "d": 281.6609401041642,
      "v": 106
    },
    {
      "midi": 58,
      "hit": false,
      "t": 65528.31491927096,
      "d": 271.38134374999936,
      "v": 108
    },
    {
      "midi": 55,
      "hit": false,
      "t": 65920.99550000012,
      "d": 333.0589218749956,
      "v": 110
    },
    {
      "midi": 58,
      "hit": false,
      "t": 66317.78791927095,
      "d": 343.3385182291677,
      "v": 102
    },
    {
      "midi": 55,
      "hit": false,
      "t": 66710.46850000012,
      "d": 296.0523749999993,
      "v": 108
    },
    {
      "midi": 58,
      "hit": false,
      "t": 67103.14908072929,
      "d": 318.66748697916046,
      "v": 99
    },
    {
      "midi": 55,
      "hit": false,
      "t": 67497.88558072929,
      "d": 281.6609401041642,
      "v": 109
    },
    {
      "midi": 60,
      "hit": false,
      "t": 67892.62208072928,
      "d": 349.50627604167676,
      "v": 101
    },
    {
      "midi": 55,
      "hit": false,
      "t": 68285.30266145847,
      "d": 343.3385182291677,
      "v": 97
    },
    {
      "midi": 60,
      "hit": false,
      "t": 68684.15100000013,
      "d": 365.95363020832883,
      "v": 96
    },
    {
      "midi": 55,
      "hit": false,
      "t": 69078.88750000013,
      "d": 236.43071614582732,
      "v": 97
    },
    {
      "midi": 60,
      "hit": false,
      "t": 69471.5680807293,
      "d": 374.1773072916694,
      "v": 101
    },
    {
      "midi": 55,
      "hit": false,
      "t": 69868.36050000013,
      "d": 314.55564843749744,
      "v": 101
    },
    {
      "midi": 60,
      "hit": false,
      "t": 70263.09700000013,
      "d": 349.5062760416622,
      "v": 96
    },
    {
      "midi": 55,
      "hit": false,
      "t": 70655.7775807293,
      "d": 326.89116406250105,
      "v": 108
    },
    {
      "midi": 60,
      "hit": false,
      "t": 71052.57000000012,
      "d": 359.7858723958343,
      "v": 114
    },
    {
      "midi": 55,
      "hit": false,
      "t": 71447.30650000012,
      "d": 281.6609401041642,
      "v": 106
    },
    {
      "midi": 60,
      "hit": false,
      "t": 71844.09891927095,
      "d": 271.38134375000664,
      "v": 108
    },
    {
      "midi": 55,
      "hit": false,
      "t": 72236.77950000012,
      "d": 333.0589218749956,
      "v": 110
    },
    {
      "midi": 60,
      "hit": false,
      "t": 72633.57191927095,
      "d": 343.3385182291677,
      "v": 102
    },
    {
      "midi": 55,
      "hit": false,
      "t": 73026.25250000012,
      "d": 296.0523749999993,
      "v": 108
    },
    {
      "midi": 60,
      "hit": false,
      "t": 73418.93308072929,
      "d": 318.66748697916046,
      "v": 99
    },
    {
      "midi": 55,
      "hit": false,
      "t": 73813.66958072929,
      "d": 281.6609401041642,
      "v": 109
    },
    {
      "midi": 60,
      "hit": false,
      "t": 74208.40608072928,
      "d": 349.50627604167676,
      "v": 101
    },
    {
      "midi": 55,
      "hit": false,
      "t": 74601.08666145847,
      "d": 343.3385182291677,
      "v": 97
    },
    {
      "midi": 60,
      "hit": false,
      "t": 74999.93500000013,
      "d": 365.95363020832883,
      "v": 96
    },
    {
      "midi": 55,
      "hit": false,
      "t": 75394.67150000013,
      "d": 236.43071614582732,
      "v": 97
    },
    {
      "midi": 60,
      "hit": false,
      "t": 75787.3520807293,
      "d": 374.1773072916694,
      "v": 101
    },
    {
      "midi": 55,
      "hit": false,
      "t": 76184.14450000013,
      "d": 314.55564843749744,
      "v": 101
    },
    {
      "midi": 60,
      "hit": false,
      "t": 76578.88100000012,
      "d": 349.5062760416622,
      "v": 96
    },
    {
      "midi": 55,
      "hit": false,
      "t": 76971.56158072929,
      "d": 326.89116406250105,
      "v": 108
    },
    {
      "midi": 58,
      "hit": false,
      "t": 77368.35400000012,
      "d": 359.7858723958343,
      "v": 114
    },
    {
      "midi": 55,
      "hit": false,
      "t": 77763.09050000012,
      "d": 281.6609401041642,
      "v": 106
    },
    {
      "midi": 58,
      "hit": false,
      "t": 78159.88291927095,
      "d": 271.38134375000664,
      "v": 108
    },
    {
      "midi": 55,
      "hit": false,
      "t": 78552.56350000012,
      "d": 333.0589218749956,
      "v": 110
    },
    {
      "midi": 58,
      "hit": false,
      "t": 78949.35591927095,
      "d": 343.3385182291677,
      "v": 102
    },
    {
      "midi": 55,
      "hit": false,
      "t": 79342.03650000012,
      "d": 296.0523749999993,
      "v": 108
    },
    {
      "midi": 58,
      "hit": false,
      "t": 79734.71708072929,
      "d": 318.66748697916046,
      "v": 99
    },
    {
      "midi": 55,
      "hit": false,
      "t": 80129.45358072929,
      "d": 281.6609401041642,
      "v": 109
    },
    {
      "midi": 60,
      "hit": false,
      "t": 80524.19008072928,
      "d": 349.50627604167676,
      "v": 101
    },
    {
      "midi": 55,
      "hit": false,
      "t": 80916.87066145847,
      "d": 343.3385182291677,
      "v": 97
    },
    {
      "midi": 60,
      "hit": false,
      "t": 81315.71900000013,
      "d": 365.95363020832883,
      "v": 96
    },
    {
      "midi": 55,
      "hit": false,
      "t": 81710.45550000013,
      "d": 236.43071614582732,
      "v": 97
    },
    {
      "midi": 60,
      "hit": false,
      "t": 82103.1360807293,
      "d": 374.1773072916694,
      "v": 101
    },
    {
      "midi": 55,
      "hit": false,
      "t": 82499.92850000013,
      "d": 314.55564843749744,
      "v": 101
    },
    {
      "midi": 60,
      "hit": false,
      "t": 82894.66500000012,
      "d": 349.5062760416622,
      "v": 96
    },
    {
      "midi": 55,
      "hit": false,
      "t": 83287.34558072929,
      "d": 326.89116406250105,
      "v": 108
    },
    {
      "midi": 60,
      "hit": false,
      "t": 83684.13800000012,
      "d": 359.7858723958343,
      "v": 114
    },
    {
      "midi": 55,
      "hit": false,
      "t": 84078.87450000012,
      "d": 281.6609401041642,
      "v": 106
    },
    {
      "midi": 60,
      "hit": false,
      "t": 84475.66691927095,
      "d": 271.38134375000664,
      "v": 108
    },
    {
      "midi": 55,
      "hit": false,
      "t": 84868.34750000012,
      "d": 333.0589218749956,
      "v": 110
    },
    {
      "midi": 60,
      "hit": false,
      "t": 85265.13991927095,
      "d": 343.3385182291677,
      "v": 102
    },
    {
      "midi": 55,
      "hit": false,
      "t": 85657.82050000012,
      "d": 296.0523749999993,
      "v": 108
    },
    {
      "midi": 60,
      "hit": false,
      "t": 86050.50108072929,
      "d": 318.66748697916046,
      "v": 99
    },
    {
      "midi": 55,
      "hit": false,
      "t": 86445.23758072928,
      "d": 281.6609401041642,
      "v": 109
    },
    {
      "midi": 60,
      "hit": false,
      "t": 86839.97408072928,
      "d": 349.50627604167676,
      "v": 101
    },
    {
      "midi": 55,
      "hit": false,
      "t": 87232.65466145847,
      "d": 343.3385182291677,
      "v": 97
    },
    {
      "midi": 60,
      "hit": false,
      "t": 87631.50300000013,
      "d": 365.95363020832883,
      "v": 96
    },
    {
      "midi": 55,
      "hit": false,
      "t": 88026.23950000013,
      "d": 236.43071614582732,
      "v": 97
    },
    {
      "midi": 60,
      "hit": false,
      "t": 88418.9200807293,
      "d": 374.1773072916694,
      "v": 101
    },
    {
      "midi": 55,
      "hit": false,
      "t": 88815.71250000013,
      "d": 314.55564843749744,
      "v": 101
    },
    {
      "midi": 60,
      "hit": false,
      "t": 89210.44900000012,
      "d": 349.5062760416622,
      "v": 96
    },
    {
      "midi": 55,
      "hit": false,
      "t": 89603.12958072929,
      "d": 326.89116406250105,
      "v": 108
    },
    {
      "midi": 58,
      "hit": false,
      "t": 89999.92200000012,
      "d": 359.7858723958343,
      "v": 114
    },
    {
      "midi": 55,
      "hit": false,
      "t": 90394.65850000012,
      "d": 281.6609401041642,
      "v": 106
    },
    {
      "midi": 58,
      "hit": false,
      "t": 90791.45091927095,
      "d": 271.38134375000664,
      "v": 108
    },
    {
      "midi": 55,
      "hit": false,
      "t": 91184.13150000012,
      "d": 333.0589218749956,
      "v": 110
    },
    {
      "midi": 58,
      "hit": false,
      "t": 91580.92391927095,
      "d": 343.3385182291677,
      "v": 102
    },
    {
      "midi": 55,
      "hit": false,
      "t": 91973.60450000012,
      "d": 296.0523749999993,
      "v": 108
    },
    {
      "midi": 58,
      "hit": false,
      "t": 92366.28508072929,
      "d": 318.66748697916046,
      "v": 99
    },
    {
      "midi": 55,
      "hit": false,
      "t": 92761.02158072928,
      "d": 281.6609401041642,
      "v": 109
    },
    {
      "midi": 60,
      "hit": false,
      "t": 93155.75808072928,
      "d": 349.50627604167676,
      "v": 101
    },
    {
      "midi": 55,
      "hit": false,
      "t": 93548.43866145847,
      "d": 343.3385182291677,
      "v": 97
    },
    {
      "midi": 60,
      "hit": false,
      "t": 93947.28700000013,
      "d": 365.95363020832883,
      "v": 96
    },
    {
      "midi": 55,
      "hit": false,
      "t": 94342.02350000013,
      "d": 236.43071614582732,
      "v": 97
    },
    {
      "midi": 60,
      "hit": false,
      "t": 94734.7040807293,
      "d": 374.1773072916694,
      "v": 101
    },
    {
      "midi": 55,
      "hit": false,
      "t": 95131.49650000012,
      "d": 314.55564843749744,
      "v": 101
    },
    {
      "midi": 60,
      "hit": false,
      "t": 95526.23300000012,
      "d": 349.5062760416622,
      "v": 96
    },
    {
      "midi": 55,
      "hit": false,
      "t": 95918.91358072929,
      "d": 326.89116406250105,
      "v": 108
    },
    {
      "midi": 60,
      "hit": false,
      "t": 96315.70600000012,
      "d": 384.4569036458415,
      "v": 85
    },
    {
      "midi": 36,
      "hit": false,
      "t": 96315.70600000012,
      "d": 3131.1650494792266,
      "v": 80
    },
    {
      "midi": 48,
      "hit": false,
      "t": 96315.70600000012,
      "d": 3131.1650494792266,
      "v": 78
    },
    {
      "midi": 55,
      "hit": false,
      "t": 96708.3865807293,
      "d": 345.3944374999992,
      "v": 96
    },
    {
      "midi": 60,
      "hit": false,
      "t": 97103.1230807293,
      "d": 427.6312083333323,
      "v": 95
    },
    {
      "midi": 55,
      "hit": false,
      "t": 97497.8595807293,
      "d": 374.1773072916694,
      "v": 100
    },
    {
      "midi": 62,
      "hit": false,
      "t": 97892.59608072932,
      "d": 423.51936979168386,
      "v": 99
    },
    {
      "midi": 55,
      "hit": false,
      "t": 98289.38850000016,
      "d": 374.177307291684,
      "v": 98
    },
    {
      "midi": 63,
      "hit": false,
      "t": 98684.12500000017,
      "d": 762.746049479174,
      "v": 99
    },
    {
      "midi": 55,
      "hit": false,
      "t": 99078.86150000017,
      "d": 368.0095494791749,
      "v": 87
    },
    {
      "midi": 67,
      "hit": false,
      "t": 99473.59800000019,
      "d": 380.34506510416395,
      "v": 100
    },
    {
      "midi": 36,
      "hit": false,
      "t": 99473.59800000019,
      "d": 2960.523749999993,
      "v": 92
    },
    {
      "midi": 55,
      "hit": false,
      "t": 99868.33450000019,
      "d": 413.2397734374972,
      "v": 80
    },
    {
      "midi": 60,
      "hit": false,
      "t": 100263.07100000019,
      "d": 382.40098437499546,
      "v": 89
    },
    {
      "midi": 55,
      "hit": false,
      "t": 100657.80750000018,
      "d": 400.9042578124936,
      "v": 87
    },
    {
      "midi": 67,
      "hit": false,
      "t": 101052.54400000018,
      "d": 368.00954947916034,
      "v": 92
    },
    {
      "midi": 55,
      "hit": false,
      "t": 101447.28050000018,
      "d": 409.1279348958342,
      "v": 86
    },
    {
      "midi": 60,
      "hit": false,
      "t": 101842.01700000018,
      "d": 372.1213880208379,
      "v": 89
    },
    {
      "midi": 55,
      "hit": false,
      "t": 102236.75350000018,
      "d": 390.62466145833605,
      "v": 87
    },
    {
      "midi": 65,
      "hit": false,
      "t": 102631.49000000018,
      "d": 368.0095494791749,
      "v": 92
    },
    {
      "midi": 43,
      "hit": false,
      "t": 102631.49000000018,
      "d": 3092.1025833333406,
      "v": 92
    },
    {
      "midi": 56,
      "hit": false,
      "t": 103026.2265000002,
      "d": 368.00954947916034,
      "v": 87
    },
    {
      "midi": 60,
      "hit": false,
      "t": 103420.96300000019,
      "d": 368.00954947916034,
      "v": 87
    },
    {
      "midi": 56,
      "hit": false,
      "t": 103803.36398437519,
      "d": 374.17730729165487,
      "v": 85
    },
    {
      "midi": 65,
      "hit": false,
      "t": 104198.10048437517,
      "d": 349.50627604167676,
      "v": 98
    },
    {
      "midi": 56,
      "hit": false,
      "t": 104592.83698437519,
      "d": 384.45690364582697,
      "v": 91
    },
    {
      "midi": 60,
      "hit": false,
      "t": 104987.57348437519,
      "d": 345.3944374999992,
      "v": 95
    },
    {
      "midi": 56,
      "hit": false,
      "t": 105382.30998437518,
      "d": 382.40098437501,
      "v": 89
    },
    {
      "midi": 67,
      "hit": false,
      "t": 105789.3820000002,
      "d": 372.1213880208379,
      "v": 94
    },
    {
      "midi": 39,
      "hit": false,
      "t": 105789.3820000002,
      "d": 2960.5237500000076,
      "v": 92
    },
    {
      "midi": 55,
      "hit": false,
      "t": 106184.1185000002,
      "d": 394.73649999999907,
      "v": 92
    },
    {
      "midi": 60,
      "hit": false,
      "t": 106578.8550000002,
      "d": 376.23322656250093,
      "v": 93
    },
    {
      "midi": 55,
      "hit": false,
      "t": 106973.5915000002,
      "d": 384.4569036458415,
      "v": 86
    },
    {
      "midi": 67,
      "hit": false,
      "t": 107368.32800000021,
      "d": 349.50627604167676,
      "v": 100
    },
    {
      "midi": 55,
      "hit": false,
      "t": 107750.72898437522,
      "d": 388.56874218750454,
      "v": 97
    },
    {
      "midi": 60,
      "hit": false,
      "t": 108145.46548437522,
      "d": 384.45690364582697,
      "v": 87
    },
    {
      "midi": 55,
      "hit": false,
      "t": 108552.53750000021,
      "d": 378.28914583333244,
      "v": 94
    },
    {
      "midi": 60,
      "hit": false,
      "t": 108947.27400000021,
      "d": 396.7924192708306,
      "v": 101
    },
    {
      "midi": 41,
      "hit": false,
      "t": 108947.27400000021,
      "d": 3034.536843750029,
      "v": 86
    },
    {
      "midi": 53,
      "hit": false,
      "t": 109339.95458072938,
      "d": 310.4438098958344,
      "v": 104
    },
    {
      "midi": 56,
      "hit": false,
      "t": 109734.69108072938,
      "d": 370.0654687500064,
      "v": 97
    },
    {
      "midi": 53,
      "hit": false,
      "t": 110129.42758072939,
      "d": 390.62466145833605,
      "v": 104
    },
    {
      "midi": 60,
      "hit": false,
      "t": 110524.16408072939,
      "d": 386.51282291667303,
      "v": 104
    },
    {
      "midi": 53,
      "hit": false,
      "t": 110918.9005807294,
      "d": 368.00954947916034,
      "v": 102
    },
    {
      "midi": 62,
      "hit": false,
      "t": 111313.6370807294,
      "d": 382.40098437499546,
      "v": 104
    },
    {
      "midi": 53,
      "hit": false,
      "t": 111708.3735807294,
      "d": 388.5687421875191,
      "v": 99
    },
    {
      "midi": 84,
      "hit": false,
      "t": 112084.60680729167,
      "d": 104.8518828124943,
      "v": 77
    },
    {
      "midi": 67,
      "hit": false,
      "t": 112105.16600000026,
      "d": 1202.7127734374953,
      "v": 92
    },
    {
      "midi": 36,
      "hit": false,
      "t": 112105.16600000026,
      "d": 3122.941372395828,
      "v": 99
    },
    {
      "midi": 84,
      "hit": false,
      "t": 112388.882859375,
      "d": 100.74004427083128,
      "v": 69
    },
    {
      "midi": 55,
      "hit": false,
      "t": 112499.90250000026,
      "d": 316.61156770832895,
      "v": 96
    },
    {
      "midi": 84,
      "hit": false,
      "t": 112619.14581770833,
      "d": 92.51636718750524,
      "v": 62
    },
    {
      "midi": 60,
      "hit": false,
      "t": 112892.58308072943,
      "d": 489.3087864583358,
      "v": 92
    },
    {
      "midi": 84,
      "hit": false,
      "t": 112904.91859635417,
      "d": 106.90780208334036,
      "v": 59
    },
    {
      "midi": 84,
      "hit": false,
      "t": 113186.57953645835,
      "d": 111.01964062500338,
      "v": 51
    },
    {
      "midi": 55,
      "hit": false,
      "t": 113289.37550000026,
      "d": 304.2760520833399,
      "v": 93
    },
    {
      "midi": 84,
      "hit": false,
      "t": 113476.46415364585,
      "d": 119.24331770832941,
      "v": 47
    },
    {
      "midi": 67,
      "hit": false,
      "t": 113682.05608072942,
      "d": 1581.0019192708278,
      "v": 95
    },
    {
      "midi": 84,
      "hit": false,
      "t": 113762.23693229168,
      "d": 129.5229140625015,
      "v": 47
    },
    {
      "midi": 84,
      "hit": false,
      "t": 113996.61172916667,
      "d": 123.35515625000698,
      "v": 44
    },
    {
      "midi": 55,
      "hit": false,
      "t": 114076.79258072942,
      "d": 322.77932552083803,
      "v": 87
    },
    {
      "midi": 84,
      "hit": false,
      "t": 114290.60818489584,
      "d": 127.46699479167,
      "v": 31
    },
    {
      "midi": 60,
      "hit": false,
      "t": 114471.52908072942,
      "d": 795.6407578124927,
      "v": 80
    },
    {
      "midi": 84,
      "hit": false,
      "t": 114580.49280208335,
      "d": 137.74659114582755,
      "v": 35
    },
    {
      "midi": 84,
      "hit": false,
      "t": 114866.26558072917,
      "d": 94.57228645833675,
      "v": 38
    },
    {
      "midi": 55,
      "hit": false,
      "t": 114866.26558072942,
      "d": 384.45690364582697,
      "v": 84
    },
    {
      "midi": 65,
      "hit": false,
      "t": 115263.05800000025,
      "d": 762.7460494791449,
      "v": 99
    },
    {
      "midi": 43,
      "hit": false,
      "t": 115263.05800000025,
      "d": 3090.04666406248,
      "v": 93
    },
    {
      "midi": 56,
      "hit": false,
      "t": 115655.7385807294,
      "d": 349.5062760416622,
      "v": 85
    },
    {
      "midi": 60,
      "hit": false,
      "t": 116050.4750807294,
      "d": 431.74304687499534,
      "v": 88
    },
    {
      "midi": 56,
      "hit": false,
      "t": 116445.2115807294,
      "d": 359.7858723958343,
      "v": 86
    },
    {
      "midi": 65,
      "hit": false,
      "t": 116839.9480807294,
      "d": 446.13448177083046,
      "v": 107
    },
    {
      "midi": 56,
      "hit": false,
      "t": 117234.6845807294,
      "d": 363.8977109374973,
      "v": 93
    },
    {
      "midi": 60,
      "hit": false,
      "t": 117629.4210807294,
      "d": 742.1868567708298,
      "v": 90
    },
    {
      "midi": 55,
      "hit": false,
      "t": 117631.47700000023,
      "d": 409.1279348958342,
      "v": 73
    },
    {
      "midi": 56,
      "hit": false,
      "t": 118040.60493489607,
      "d": 363.8977109374973,
      "v": 84
    },
    {
      "midi": 67,
      "hit": false,
      "t": 118420.95000000023,
      "d": 894.324882812507,
      "v": 92
    },
    {
      "midi": 39,
      "hit": false,
      "t": 118420.95000000023,
      "d": 2925.573122395843,
      "v": 92
    },
    {
      "midi": 55,
      "hit": false,
      "t": 118815.68650000024,
      "d": 279.6050208333327,
      "v": 82
    },
    {
      "midi": 60,
      "hit": false,
      "t": 119210.42300000024,
      "d": 382.40098437499546,
      "v": 92
    },
    {
      "midi": 55,
      "hit": false,
      "t": 119603.10358072941,
      "d": 310.4438098958344,
      "v": 96
    },
    {
      "midi": 67,
      "hit": false,
      "t": 119997.84008072941,
      "d": 1101.972729166664,
      "v": 94
    },
    {
      "midi": 51,
      "hit": false,
      "t": 119999.89600000024,
      "d": 1326.0679296875023,
      "v": 94
    },
    {
      "midi": 55,
      "hit": false,
      "t": 120392.57658072941,
      "d": 351.5621953124937,
      "v": 86
    },
    {
      "midi": 60,
      "hit": false,
      "t": 120787.31308072941,
      "d": 372.1213880208379,
      "v": 98
    },
    {
      "midi": 55,
      "hit": false,
      "t": 121179.99366145857,
      "d": 331.00300260416407,
      "v": 106
    },
    {
      "midi": 41,
      "hit": false,
      "t": 121576.7860807294,
      "d": 2689.1424062499864,
      "v": 95
    },
    {
      "midi": 65,
      "hit": false,
      "t": 121599.40119270857,
      "d": 1459.7026822916669,
      "v": 99
    },
    {
      "midi": 53,
      "hit": false,
      "t": 121963.29890364606,
      "d": 347.45035677084525,
      "v": 101
    },
    {
      "midi": 60,
      "hit": false,
      "t": 122364.20316145857,
      "d": 388.56874218750454,
      "v": 93
    },
    {
      "midi": 53,
      "hit": false,
      "t": 122758.93966145857,
      "d": 417.3516119791602,
      "v": 104
    },
    {
      "midi": 56,
      "hit": false,
      "t": 123178.34719270856,
      "d": 390.6246614583215,
      "v": 110
    },
    {
      "midi": 53,
      "hit": false,
      "t": 123548.41266145855,
      "d": 402.96017708333966,
      "v": 104
    },
    {
      "midi": 62,
      "hit": false,
      "t": 123943.14916145855,
      "d": 760.690130208357,
      "v": 116
    },
    {
      "midi": 53,
      "hit": false,
      "t": 124337.88566145855,
      "d": 357.72995312501735,
      "v": 99
    },
    {
      "midi": 41,
      "hit": false,
      "t": 124364.61261197939,
      "d": 320.7234062500065,
      "v": 75
    },
    {
      "midi": 67,
      "hit": false,
      "t": 124736.73400000024,
      "d": 729.8513411458407,
      "v": 104
    },
    {
      "midi": 36,
      "hit": false,
      "t": 124736.73400000024,
      "d": 3048.92827864585,
      "v": 86
    },
    {
      "midi": 55,
      "hit": false,
      "t": 125131.47050000024,
      "d": 277.54910156250116,
      "v": 104
    },
    {
      "midi": 60,
      "hit": false,
      "t": 125524.15108072943,
      "d": 396.7924192708306,
      "v": 95
    },
    {
      "midi": 55,
      "hit": false,
      "t": 125920.94350000026,
      "d": 359.7858723958343,
      "v": 100
    },
    {
      "midi": 67,
      "hit": false,
      "t": 126313.62408072942,
      "d": 380.34506510416395,
      "v": 110
    },
    {
      "midi": 60,
      "hit": false,
      "t": 126321.8477578125,
      "d": 345.3944374999992,
      "v": 99
    },
    {
      "midi": 55,
      "hit": false,
      "t": 126708.36058072942,
      "d": 322.77932552083803,
      "v": 105
    },
    {
      "midi": 55,
      "hit": false,
      "t": 126710.4165,
      "d": 396.7924192708306,
      "v": 84
    },
    {
      "midi": 60,
      "hit": false,
      "t": 127101.04116145859,
      "d": 374.1773072916694,
      "v": 100
    },
    {
      "midi": 60,
      "hit": false,
      "t": 127111.3207578125,
      "d": 345.3944374999992,
      "v": 85
    },
    {
      "midi": 55,
      "hit": false,
      "t": 127495.77766145859,
      "d": 353.6181145833398,
      "v": 98
    },
    {
      "midi": 55,
      "hit": false,
      "t": 127499.8895,
      "d": 394.73649999999907,
      "v": 84
    },
    {
      "midi": 67,
      "hit": false,
      "t": 127892.57008072943,
      "d": 394.73649999999907,
      "v": 105
    },
    {
      "midi": 38,
      "hit": false,
      "t": 127892.57008072943,
      "d": 3157.8920000000217,
      "v": 89
    },
    {
      "midi": 62,
      "hit": false,
      "t": 127894.626,
      "d": 3059.207874999993,
      "v": 84
    },
    {
      "midi": 55,
      "hit": false,
      "t": 128287.30658072943,
      "d": 331.00300260416407,
      "v": 99
    },
    {
      "midi": 60,
      "hit": false,
      "t": 128679.9871614586,
      "d": 384.45690364582697,
      "v": 100
    },
    {
      "midi": 55,
      "hit": false,
      "t": 129076.77958072943,
      "d": 384.4569036458415,
      "v": 99
    },
    {
      "midi": 67,
      "hit": false,
      "t": 129473.57200000028,
      "d": 394.7365000000136,
      "v": 102
    },
    {
      "midi": 55,
      "hit": false,
      "t": 129866.25258072946,
      "d": 341.28259895833617,
      "v": 96
    },
    {
      "midi": 60,
      "hit": false,
      "t": 130260.98908072946,
      "d": 775.081565104163,
      "v": 98
    },
    {
      "midi": 55,
      "hit": false,
      "t": 130655.72558072946,
      "d": 365.95363020832883,
      "v": 102
    },
    {
      "midi": 62,
      "hit": false,
      "t": 131052.518,
      "d": 396.7924192708597,
      "v": 92
    },
    {
      "midi": 67,
      "hit": false,
      "t": 131052.51800000029,
      "d": 777.1374843749945,
      "v": 105
    },
    {
      "midi": 39,
      "hit": false,
      "t": 131052.51800000029,
      "d": 3042.760520833326,
      "v": 96
    },
    {
      "midi": 55,
      "hit": false,
      "t": 131445.19858072945,
      "d": 337.1707604166586,
      "v": 102
    },
    {
      "midi": 60,
      "hit": false,
      "t": 131447.2545,
      "d": 2713.8134375000373,
      "v": 84
    },
    {
      "midi": 60,
      "hit": false,
      "t": 131839.93508072945,
      "d": 400.90425781250815,
      "v": 101
    },
    {
      "midi": 55,
      "hit": false,
      "t": 132234.67158072945,
      "d": 331.0030026041786,
      "v": 104
    },
    {
      "midi": 67,
      "hit": false,
      "t": 132629.40808072945,
      "d": 1258.2225937499898,
      "v": 110
    },
    {
      "midi": 55,
      "hit": false,
      "t": 133024.14458072945,
      "d": 343.3385182291677,
      "v": 106
    },
    {
      "midi": 60,
      "hit": false,
      "t": 133418.88108072945,
      "d": 446.13448177083046,
      "v": 106
    },
    {
      "midi": 55,
      "hit": false,
      "t": 133813.61758072945,
      "d": 333.0589218749956,
      "v": 106
    },
    {
      "midi": 67,
      "hit": false,
      "t": 134208.35408072945,
      "d": 684.6211171874893,
      "v": 112
    },
    {
      "midi": 41,
      "hit": false,
      "t": 134208.35408072945,
      "d": 1576.8900807291793,
      "v": 94
    },
    {
      "midi": 53,
      "hit": false,
      "t": 134603.09058072945,
      "d": 365.95363020832883,
      "v": 109
    },
    {
      "midi": 63,
      "hit": false,
      "t": 134997.82708072945,
      "d": 374.17730729165487,
      "v": 115
    },
    {
      "midi": 56,
      "hit": false,
      "t": 135392.56358072945,
      "d": 400.90425781253725,
      "v": 98
    },
    {
      "midi": 63,
      "hit": false,
      "t": 135787.30008072947,
      "d": 446.13448177085957,
      "v": 105
    },
    {
      "midi": 43,
      "hit": false,
      "t": 135787.30008072947,
      "d": 1624.1762239583768,
      "v": 95
    },
    {
      "midi": 55,
      "hit": false,
      "t": 136184.09250000032,
      "d": 460.5259166666947,
      "v": 91
    },
    {
      "midi": 62,
      "hit": false,
      "t": 136578.82900000035,
      "d": 756.5782916666649,
      "v": 107
    },
    {
      "midi": 55,
      "hit": false,
      "t": 136973.56550000035,
      "d": 361.8417916666658,
      "v": 99
    },
    {
      "midi": 67,
      "hit": false,
      "t": 137372.413838542,
      "d": 349.50627604167676,
      "v": 87
    },
    {
      "midi": 55,
      "hit": false,
      "t": 137763.03850000034,
      "d": 333.0589218749956,
      "v": 89
    },
    {
      "midi": 67,
      "hit": false,
      "t": 138155.7190807295,
      "d": 789.4730000000272,
      "v": 96
    },
    {
      "midi": 55,
      "hit": false,
      "t": 138546.34374218783,
      "d": 429.6871276042075,
      "v": 98
    },
    {
      "midi": 60,
      "hit": false,
      "t": 138947.24800000037,
      "d": 359.78587239584886,
      "v": 104
    },
    {
      "midi": 55,
      "hit": false,
      "t": 139341.9845000004,
      "d": 281.6609401041642,
      "v": 96
    },
    {
      "midi": 60,
      "hit": false,
      "t": 139738.77691927124,
      "d": 271.3813437499921,
      "v": 98
    },
    {
      "midi": 55,
      "hit": false,
      "t": 140131.4575000004,
      "d": 333.0589218749956,
      "v": 100
    },
    {
      "midi": 60,
      "hit": false,
      "t": 140528.2499192712,
      "d": 343.3385182291677,
      "v": 92
    },
    {
      "midi": 55,
      "hit": false,
      "t": 140920.9305000004,
      "d": 296.0523749999993,
      "v": 98
    },
    {
      "midi": 60,
      "hit": false,
      "t": 141313.61108072955,
      "d": 318.66748697916046,
      "v": 89
    },
    {
      "midi": 55,
      "hit": false,
      "t": 141708.34758072955,
      "d": 281.6609401041642,
      "v": 99
    },
    {
      "midi": 60,
      "hit": false,
      "t": 142103.08408072955,
      "d": 349.50627604167676,
      "v": 91
    },
    {
      "midi": 55,
      "hit": false,
      "t": 142495.76466145873,
      "d": 343.3385182291677,
      "v": 87
    },
    {
      "midi": 60,
      "hit": false,
      "t": 142894.6130000004,
      "d": 365.95363020832883,
      "v": 86
    },
    {
      "midi": 55,
      "hit": false,
      "t": 143289.3495000004,
      "d": 236.43071614584187,
      "v": 87
    },
    {
      "midi": 60,
      "hit": false,
      "t": 143682.03008072957,
      "d": 374.177307291684,
      "v": 91
    },
    {
      "midi": 55,
      "hit": false,
      "t": 144078.82250000042,
      "d": 314.55564843749744,
      "v": 91
    },
    {
      "midi": 60,
      "hit": false,
      "t": 144473.55900000042,
      "d": 349.50627604167676,
      "v": 86
    },
    {
      "midi": 55,
      "hit": false,
      "t": 144866.2395807296,
      "d": 326.8911640624865,
      "v": 98
    },
    {
      "midi": 58,
      "hit": false,
      "t": 145263.0320000004,
      "d": 359.78587239584886,
      "v": 104
    },
    {
      "midi": 55,
      "hit": false,
      "t": 145657.76850000044,
      "d": 281.6609401041642,
      "v": 96
    },
    {
      "midi": 58,
      "hit": false,
      "t": 146054.5609192713,
      "d": 271.3813437499921,
      "v": 98
    },
    {
      "midi": 55,
      "hit": false,
      "t": 146447.24150000044,
      "d": 333.0589218749956,
      "v": 100
    },
    {
      "midi": 58,
      "hit": false,
      "t": 146844.03391927126,
      "d": 343.3385182291677,
      "v": 92
    },
    {
      "midi": 55,
      "hit": false,
      "t": 147236.71450000044,
      "d": 296.0523749999993,
      "v": 98
    },
    {
      "midi": 58,
      "hit": false,
      "t": 147629.3950807296,
      "d": 318.66748697916046,
      "v": 89
    },
    {
      "midi": 55,
      "hit": false,
      "t": 148024.1315807296,
      "d": 281.6609401041642,
      "v": 99
    },
    {
      "midi": 60,
      "hit": false,
      "t": 148418.8680807296,
      "d": 349.50627604167676,
      "v": 91
    },
    {
      "midi": 55,
      "hit": false,
      "t": 148811.54866145877,
      "d": 343.3385182291677,
      "v": 87
    },
    {
      "midi": 60,
      "hit": false,
      "t": 149210.39700000043,
      "d": 365.95363020832883,
      "v": 86
    },
    {
      "midi": 55,
      "hit": false,
      "t": 149605.13350000043,
      "d": 236.43071614584187,
      "v": 87
    },
    {
      "midi": 60,
      "hit": false,
      "t": 149997.81408072961,
      "d": 374.177307291684,
      "v": 91
    },
    {
      "midi": 55,
      "hit": false,
      "t": 150394.60650000046,
      "d": 314.55564843749744,
      "v": 91
    },
    {
      "midi": 60,
      "hit": false,
      "t": 150789.34300000046,
      "d": 349.50627604167676,
      "v": 86
    },
    {
      "midi": 55,
      "hit": false,
      "t": 151182.02358072964,
      "d": 326.8911640624865,
      "v": 98
    },
    {
      "midi": 60,
      "hit": false,
      "t": 151578.81600000046,
      "d": 359.78587239584886,
      "v": 104
    },
    {
      "midi": 55,
      "hit": false,
      "t": 151973.5525000005,
      "d": 281.6609401041642,
      "v": 96
    },
    {
      "midi": 60,
      "hit": false,
      "t": 152370.34491927133,
      "d": 271.3813437499921,
      "v": 98
    },
    {
      "midi": 55,
      "hit": false,
      "t": 152763.02550000048,
      "d": 333.0589218749956,
      "v": 100
    },
    {
      "midi": 60,
      "hit": false,
      "t": 153159.8179192713,
      "d": 343.3385182291677,
      "v": 92
    },
    {
      "midi": 55,
      "hit": false,
      "t": 153552.49850000048,
      "d": 296.0523749999993,
      "v": 98
    },
    {
      "midi": 60,
      "hit": false,
      "t": 153945.17908072963,
      "d": 318.66748697916046,
      "v": 89
    },
    {
      "midi": 55,
      "hit": false,
      "t": 154339.91558072963,
      "d": 281.6609401041642,
      "v": 99
    },
    {
      "midi": 60,
      "hit": false,
      "t": 154734.65208072963,
      "d": 349.50627604167676,
      "v": 91
    },
    {
      "midi": 55,
      "hit": false,
      "t": 155127.33266145881,
      "d": 343.3385182291677,
      "v": 87
    },
    {
      "midi": 60,
      "hit": false,
      "t": 155526.18100000048,
      "d": 365.95363020832883,
      "v": 86
    },
    {
      "midi": 55,
      "hit": false,
      "t": 155920.91750000048,
      "d": 236.43071614584187,
      "v": 87
    },
    {
      "midi": 60,
      "hit": false,
      "t": 156313.59808072966,
      "d": 374.177307291684,
      "v": 91
    },
    {
      "midi": 55,
      "hit": false,
      "t": 156710.3905000005,
      "d": 314.55564843749744,
      "v": 91
    },
    {
      "midi": 60,
      "hit": false,
      "t": 157105.1270000005,
      "d": 349.50627604167676,
      "v": 86
    },
    {
      "midi": 55,
      "hit": false,
      "t": 157497.80758072968,
      "d": 326.8911640624865,
      "v": 98
    },
    {
      "midi": 58,
      "hit": false,
      "t": 157894.6000000005,
      "d": 359.78587239584886,
      "v": 104
    },
    {
      "midi": 55,
      "hit": false,
      "t": 158289.33650000053,
      "d": 281.6609401041642,
      "v": 96
    },
    {
      "midi": 58,
      "hit": false,
      "t": 158686.12891927137,
      "d": 271.3813437499921,
      "v": 98
    },
    {
      "midi": 55,
      "hit": false,
      "t": 159078.80950000053,
      "d": 333.0589218749956,
      "v": 100
    },
    {
      "midi": 58,
      "hit": false,
      "t": 159475.60191927134,
      "d": 343.3385182291677,
      "v": 92
    },
    {
      "midi": 55,
      "hit": false,
      "t": 159868.28250000053,
      "d": 296.0523749999993,
      "v": 98
    },
    {
      "midi": 58,
      "hit": false,
      "t": 160260.96308072968,
      "d": 318.66748697916046,
      "v": 89
    },
    {
      "midi": 55,
      "hit": false,
      "t": 160655.69958072968,
      "d": 281.6609401041642,
      "v": 99
    },
    {
      "midi": 60,
      "hit": false,
      "t": 161050.43608072968,
      "d": 349.50627604167676,
      "v": 91
    },
    {
      "midi": 55,
      "hit": false,
      "t": 161443.11666145886,
      "d": 343.3385182291677,
      "v": 87
    },
    {
      "midi": 60,
      "hit": false,
      "t": 161841.96500000052,
      "d": 365.95363020832883,
      "v": 86
    },
    {
      "midi": 55,
      "hit": false,
      "t": 162236.70150000052,
      "d": 236.43071614584187,
      "v": 87
    },
    {
      "midi": 60,
      "hit": false,
      "t": 162629.3820807297,
      "d": 374.177307291684,
      "v": 91
    },
    {
      "midi": 55,
      "hit": false,
      "t": 163026.17450000055,
      "d": 314.55564843749744,
      "v": 91
    },
    {
      "midi": 60,
      "hit": false,
      "t": 163420.91100000055,
      "d": 349.50627604167676,
      "v": 86
    },
    {
      "midi": 55,
      "hit": false,
      "t": 163813.59158072973,
      "d": 326.8911640624865,
      "v": 98
    },
    {
      "midi": 68,
      "hit": false,
      "t": 164210.38400000005,
      "d": 740.1309375000128,
      "v": 66
    },
    {
      "midi": 60,
      "hit": false,
      "t": 164210.38400000054,
      "d": 359.78587239584886,
      "v": 104
    },
    {
      "midi": 55,
      "hit": false,
      "t": 164605.12050000057,
      "d": 281.6609401041642,
      "v": 96
    },
    {
      "midi": 67,
      "hit": false,
      "t": 164997.80108072923,
      "d": 750.4105338541558,
      "v": 55
    },
    {
      "midi": 60,
      "hit": false,
      "t": 165001.91291927142,
      "d": 271.3813437499921,
      "v": 98
    },
    {
      "midi": 55,
      "hit": false,
      "t": 165394.59350000057,
      "d": 333.0589218749956,
      "v": 100
    },
    {
      "midi": 65,
      "hit": false,
      "t": 165787.27408072923,
      "d": 431.74304687499534,
      "v": 74
    },
    {
      "midi": 60,
      "hit": false,
      "t": 165791.3859192714,
      "d": 343.3385182291677,
      "v": 92
    },
    {
      "midi": 63,
      "hit": false,
      "t": 166182.01058072923,
      "d": 405.01609635417117,
      "v": 67
    },
    {
      "midi": 55,
      "hit": false,
      "t": 166184.06650000057,
      "d": 296.0523749999993,
      "v": 98
    },
    {
      "midi": 62,
      "hit": false,
      "t": 166576.74708072923,
      "d": 374.177307291684,
      "v": 62
    },
    {
      "midi": 60,
      "hit": false,
      "t": 166576.74708072972,
      "d": 318.66748697916046,
      "v": 89
    },
    {
      "midi": 63,
      "hit": false,
      "t": 166969.4276614584,
      "d": 376.23322656250093,
      "v": 67
    },
    {
      "midi": 55,
      "hit": false,
      "t": 166971.48358072972,
      "d": 281.6609401041642,
      "v": 99
    },
    {
      "midi": 67,
      "hit": false,
      "t": 167364.1641614584,
      "d": 803.8644348958333,
      "v": 63
    },
    {
      "midi": 60,
      "hit": false,
      "t": 167366.22008072972,
      "d": 349.50627604167676,
      "v": 91
    },
    {
      "midi": 55,
      "hit": false,
      "t": 167758.9006614589,
      "d": 343.3385182291677,
      "v": 87
    },
    {
      "midi": 65,
      "hit": false,
      "t": 168153.6371614584,
      "d": 822.3677083333314,
      "v": 69
    },
    {
      "midi": 60,
      "hit": false,
      "t": 168157.74900000056,
      "d": 365.95363020832883,
      "v": 86
    },
    {
      "midi": 55,
      "hit": false,
      "t": 168552.48550000056,
      "d": 236.43071614584187,
      "v": 87
    },
    {
      "midi": 63,
      "hit": false,
      "t": 168945.16608072925,
      "d": 795.6407578124781,
      "v": 63
    },
    {
      "midi": 60,
      "hit": false,
      "t": 168945.16608072974,
      "d": 374.177307291684,
      "v": 91
    },
    {
      "midi": 55,
      "hit": false,
      "t": 169341.9585000006,
      "d": 314.55564843749744,
      "v": 91
    },
    {
      "midi": 65,
      "hit": false,
      "t": 169732.5831614584,
      "d": 411.18385416665114,
      "v": 68
    },
    {
      "midi": 60,
      "hit": false,
      "t": 169736.6950000006,
      "d": 349.50627604167676,
      "v": 86
    },
    {
      "midi": 67,
      "hit": false,
      "t": 170129.37558072922,
      "d": 382.40098437501,
      "v": 65
    },
    {
      "midi": 55,
      "hit": false,
      "t": 170129.37558072977,
      "d": 326.8911640624865,
      "v": 98
    },
    {
      "midi": 68,
      "hit": false,
      "t": 170526.16800000006,
      "d": 775.081565104163,
      "v": 68
    },
    {
      "midi": 58,
      "hit": false,
      "t": 170526.1680000006,
      "d": 359.78587239584886,
      "v": 104
    },
    {
      "midi": 55,
      "hit": false,
      "t": 170920.90450000062,
      "d": 281.6609401041642,
      "v": 96
    },
    {
      "midi": 67,
      "hit": false,
      "t": 171315.64100000006,
      "d": 738.0750182291667,
      "v": 55
    },
    {
      "midi": 58,
      "hit": false,
      "t": 171317.69691927146,
      "d": 271.3813437499921,
      "v": 98
    },
    {
      "midi": 55,
      "hit": false,
      "t": 171710.3775000006,
      "d": 333.0589218749956,
      "v": 100
    },
    {
      "midi": 65,
      "hit": false,
      "t": 172103.05808072924,
      "d": 421.46345052082324,
      "v": 62
    },
    {
      "midi": 58,
      "hit": false,
      "t": 172107.16991927143,
      "d": 343.3385182291677,
      "v": 92
    },
    {
      "midi": 63,
      "hit": false,
      "t": 172497.79458072924,
      "d": 417.3516119791602,
      "v": 66
    },
    {
      "midi": 55,
      "hit": false,
      "t": 172499.8505000006,
      "d": 296.0523749999993,
      "v": 98
    },
    {
      "midi": 62,
      "hit": false,
      "t": 172892.53108072924,
      "d": 372.1213880208379,
      "v": 59
    },
    {
      "midi": 58,
      "hit": false,
      "t": 172892.53108072976,
      "d": 318.66748697916046,
      "v": 89
    },
    {
      "midi": 63,
      "hit": false,
      "t": 173287.26758072924,
      "d": 398.8483385416621,
      "v": 65
    },
    {
      "midi": 55,
      "hit": false,
      "t": 173287.26758072976,
      "d": 281.6609401041642,
      "v": 99
    },
    {
      "midi": 67,
      "hit": false,
      "t": 173682.00408072924,
      "d": 810.0321927083423,
      "v": 63
    },
    {
      "midi": 60,
      "hit": false,
      "t": 173682.00408072976,
      "d": 349.50627604167676,
      "v": 91
    },
    {
      "midi": 55,
      "hit": false,
      "t": 174074.68466145894,
      "d": 343.3385182291677,
      "v": 87
    },
    {
      "midi": 65,
      "hit": false,
      "t": 174471.47708072924,
      "d": 781.2493229166721,
      "v": 62
    },
    {
      "midi": 60,
      "hit": false,
      "t": 174473.5330000006,
      "d": 365.95363020832883,
      "v": 86
    },
    {
      "midi": 55,
      "hit": false,
      "t": 174868.2695000006,
      "d": 236.43071614584187,
      "v": 87
    },
    {
      "midi": 63,
      "hit": false,
      "t": 175260.95008072924,
      "d": 768.9138072916539,
      "v": 65
    },
    {
      "midi": 60,
      "hit": false,
      "t": 175260.9500807298,
      "d": 374.177307291684,
      "v": 91
    },
    {
      "midi": 55,
      "hit": false,
      "t": 175657.74250000063,
      "d": 314.55564843749744,
      "v": 91
    },
    {
      "midi": 65,
      "hit": false,
      "t": 176052.47900000005,
      "d": 409.1279348958342,
      "v": 68
    },
    {
      "midi": 60,
      "hit": false,
      "t": 176052.47900000063,
      "d": 349.50627604167676,
      "v": 86
    },
    {
      "midi": 55,
      "hit": false,
      "t": 176445.1595807298,
      "d": 326.8911640624865,
      "v": 98
    },
    {
      "midi": 67,
      "hit": false,
      "t": 176447.21550000005,
      "d": 382.40098437501,
      "v": 65
    },
    {
      "midi": 68,
      "hit": false,
      "t": 176841.95200000005,
      "d": 740.1309375000128,
      "v": 66
    },
    {
      "midi": 60,
      "hit": false,
      "t": 176841.95200000063,
      "d": 359.78587239584886,
      "v": 104
    },
    {
      "midi": 55,
      "hit": false,
      "t": 177236.68850000066,
      "d": 281.6609401041642,
      "v": 96
    },
    {
      "midi": 67,
      "hit": false,
      "t": 177629.36908072923,
      "d": 750.4105338541558,
      "v": 55
    },
    {
      "midi": 60,
      "hit": false,
      "t": 177633.4809192715,
      "d": 271.3813437499921,
      "v": 98
    },
    {
      "midi": 55,
      "hit": false,
      "t": 178026.16150000066,
      "d": 333.0589218749956,
      "v": 100
    },
    {
      "midi": 65,
      "hit": false,
      "t": 178418.84208072923,
      "d": 431.74304687499534,
      "v": 74
    },
    {
      "midi": 60,
      "hit": false,
      "t": 178422.95391927147,
      "d": 343.3385182291677,
      "v": 92
    },
    {
      "midi": 63,
      "hit": false,
      "t": 178813.57858072923,
      "d": 405.01609635417117,
      "v": 67
    },
    {
      "midi": 55,
      "hit": false,
      "t": 178815.63450000065,
      "d": 296.0523749999993,
      "v": 98
    },
    {
      "midi": 62,
      "hit": false,
      "t": 179208.31508072923,
      "d": 374.177307291684,
      "v": 62
    },
    {
      "midi": 60,
      "hit": false,
      "t": 179208.3150807298,
      "d": 318.66748697916046,
      "v": 89
    },
    {
      "midi": 63,
      "hit": false,
      "t": 179600.9956614584,
      "d": 376.23322656250093,
      "v": 67
    },
    {
      "midi": 55,
      "hit": false,
      "t": 179603.0515807298,
      "d": 281.6609401041642,
      "v": 99
    },
    {
      "midi": 67,
      "hit": false,
      "t": 179995.7321614584,
      "d": 803.8644348958333,
      "v": 63
    },
    {
      "midi": 60,
      "hit": false,
      "t": 179997.7880807298,
      "d": 349.50627604167676,
      "v": 91
    },
    {
      "midi": 55,
      "hit": false,
      "t": 180390.468661459,
      "d": 343.3385182291677,
      "v": 87
    },
    {
      "midi": 65,
      "hit": false,
      "t": 180785.2051614584,
      "d": 822.3677083333314,
      "v": 69
    },
    {
      "midi": 60,
      "hit": false,
      "t": 180789.31700000065,
      "d": 365.95363020832883,
      "v": 86
    },
    {
      "midi": 55,
      "hit": false,
      "t": 181184.05350000065,
      "d": 236.43071614584187,
      "v": 87
    },
    {
      "midi": 63,
      "hit": false,
      "t": 181576.73408072925,
      "d": 795.6407578124781,
      "v": 63
    },
    {
      "midi": 60,
      "hit": false,
      "t": 181576.73408072983,
      "d": 374.177307291684,
      "v": 91
    },
    {
      "midi": 55,
      "hit": false,
      "t": 181973.52650000068,
      "d": 314.55564843749744,
      "v": 91
    },
    {
      "midi": 65,
      "hit": false,
      "t": 182364.1511614584,
      "d": 411.18385416665114,
      "v": 68
    },
    {
      "midi": 60,
      "hit": false,
      "t": 182368.26300000068,
      "d": 349.50627604167676,
      "v": 86
    },
    {
      "midi": 67,
      "hit": false,
      "t": 182760.94358072922,
      "d": 382.40098437501,
      "v": 65
    },
    {
      "midi": 55,
      "hit": false,
      "t": 182760.94358072986,
      "d": 326.8911640624865,
      "v": 98
    },
    {
      "midi": 68,
      "hit": false,
      "t": 183157.73600000006,
      "d": 775.081565104163,
      "v": 68
    },
    {
      "midi": 58,
      "hit": false,
      "t": 183157.73600000067,
      "d": 359.78587239584886,
      "v": 104
    },
    {
      "midi": 55,
      "hit": false,
      "t": 183552.4725000007,
      "d": 281.6609401041642,
      "v": 96
    },
    {
      "midi": 67,
      "hit": false,
      "t": 183947.20900000006,
      "d": 738.0750182291667,
      "v": 55
    },
    {
      "midi": 58,
      "hit": false,
      "t": 183949.26491927155,
      "d": 271.3813437499921,
      "v": 98
    },
    {
      "midi": 55,
      "hit": false,
      "t": 184341.9455000007,
      "d": 333.0589218749956,
      "v": 100
    },
    {
      "midi": 65,
      "hit": false,
      "t": 184734.62608072924,
      "d": 421.46345052082324,
      "v": 62
    },
    {
      "midi": 58,
      "hit": false,
      "t": 184738.73791927152,
      "d": 343.3385182291677,
      "v": 92
    },
    {
      "midi": 63,
      "hit": false,
      "t": 185129.36258072924,
      "d": 417.3516119791602,
      "v": 66
    },
    {
      "midi": 55,
      "hit": false,
      "t": 185131.4185000007,
      "d": 296.0523749999993,
      "v": 98
    },
    {
      "midi": 62,
      "hit": false,
      "t": 185524.09908072924,
      "d": 372.1213880208379,
      "v": 59
    },
    {
      "midi": 58,
      "hit": false,
      "t": 185524.09908072985,
      "d": 318.66748697916046,
      "v": 89
    },
    {
      "midi": 63,
      "hit": false,
      "t": 185918.83558072924,
      "d": 398.8483385416621,
      "v": 65
    },
    {
      "midi": 55,
      "hit": false,
      "t": 185918.83558072985,
      "d": 281.6609401041642,
      "v": 99
    },
    {
      "midi": 67,
      "hit": false,
      "t": 186313.57208072924,
      "d": 810.0321927083423,
      "v": 63
    },
    {
      "midi": 60,
      "hit": false,
      "t": 186313.57208072985,
      "d": 349.50627604167676,
      "v": 91
    },
    {
      "midi": 55,
      "hit": false,
      "t": 186706.25266145903,
      "d": 343.3385182291677,
      "v": 87
    },
    {
      "midi": 65,
      "hit": false,
      "t": 187103.04508072924,
      "d": 781.2493229166721,
      "v": 62
    },
    {
      "midi": 60,
      "hit": false,
      "t": 187105.1010000007,
      "d": 365.95363020832883,
      "v": 86
    },
    {
      "midi": 55,
      "hit": false,
      "t": 187499.8375000007,
      "d": 236.43071614584187,
      "v": 87
    },
    {
      "midi": 63,
      "hit": false,
      "t": 187892.51808072923,
      "d": 768.9138072916539,
      "v": 65
    },
    {
      "midi": 60,
      "hit": false,
      "t": 187892.51808072987,
      "d": 374.177307291684,
      "v": 91
    },
    {
      "midi": 55,
      "hit": false,
      "t": 188289.31050000072,
      "d": 314.55564843749744,
      "v": 91
    },
    {
      "midi": 65,
      "hit": false,
      "t": 188684.04700000005,
      "d": 409.1279348958342,
      "v": 68
    },
    {
      "midi": 60,
      "hit": false,
      "t": 188684.04700000072,
      "d": 349.50627604167676,
      "v": 86
    },
    {
      "midi": 55,
      "hit": false,
      "t": 189076.7275807299,
      "d": 326.8911640624865,
      "v": 98
    },
    {
      "midi": 67,
      "hit": false,
      "t": 189078.78350000005,
      "d": 382.40098437501,
      "v": 65
    },
    {
      "midi": 60,
      "hit": false,
      "t": 189473.52000000072,
      "d": 368.0095494791749,
      "v": 85
    },
    {
      "midi": 55,
      "hit": false,
      "t": 189866.2005807299,
      "d": 343.3385182291677,
      "v": 76
    },
    {
      "midi": 60,
      "hit": false,
      "t": 190260.9370807299,
      "d": 365.95363020832883,
      "v": 75
    },
    {
      "midi": 55,
      "hit": false,
      "t": 190655.6735807299,
      "d": 298.10829427084536,
      "v": 92
    },
    {
      "midi": 60,
      "hit": false,
      "t": 191050.4100807299,
      "d": 335.11484114584164,
      "v": 72
    },
    {
      "midi": 55,
      "hit": false,
      "t": 191445.1465807299,
      "d": 359.78587239581975,
      "v": 90
    },
    {
      "midi": 60,
      "hit": false,
      "t": 191839.8830807299,
      "d": 363.8977109375119,
      "v": 88
    },
    {
      "midi": 55,
      "hit": false,
      "t": 192234.6195807299,
      "d": 166.52946093751234,
      "v": 92
    },
    {
      "midi": 60,
      "hit": false,
      "t": 192629.3560807299,
      "d": 431.74304687502445,
      "v": 86
    },
    {
      "midi": 55,
      "hit": false,
      "t": 193024.09258072992,
      "d": 376.23322656250093,
      "v": 78
    },
    {
      "midi": 60,
      "hit": false,
      "t": 193418.82908072992,
      "d": 394.73649999999907,
      "v": 78
    },
    {
      "midi": 55,
      "hit": false,
      "t": 193815.62150000077,
      "d": 328.94708333333256,
      "v": 86
    },
    {
      "midi": 60,
      "hit": false,
      "t": 194210.35800000076,
      "d": 324.83524479166954,
      "v": 75
    },
    {
      "midi": 55,
      "hit": false,
      "t": 194605.09450000076,
      "d": 267.26950520832906,
      "v": 88
    },
    {
      "midi": 60,
      "hit": false,
      "t": 194997.77508072992,
      "d": 736.0190989583498,
      "v": 81
    },
    {
      "midi": 55,
      "hit": false,
      "t": 195392.51158072992,
      "d": 396.79241927084513,
      "v": 82
    },
    {
      "midi": 82,
      "hit": false,
      "t": 195789.304,
      "d": 197.36824999999953,
      "v": 61
    },
    {
      "midi": 84,
      "hit": false,
      "t": 195789.304,
      "d": 197.36824999999953,
      "v": 65
    },
    {
      "midi": 58,
      "hit": false,
      "t": 195789.30400000076,
      "d": 368.0095494791749,
      "v": 85
    },
    {
      "midi": 82,
      "hit": false,
      "t": 196036.01431250002,
      "d": 98.68412499999977,
      "v": 61
    },
    {
      "midi": 84,
      "hit": false,
      "t": 196036.01431250002,
      "d": 98.68412499999977,
      "v": 65
    },
    {
      "midi": 82,
      "hit": false,
      "t": 196184.04050000003,
      "d": 98.68412499999977,
      "v": 61
    },
    {
      "midi": 84,
      "hit": false,
      "t": 196184.04050000003,
      "d": 98.68412499999977,
      "v": 65
    },
    {
      "midi": 55,
      "hit": false,
      "t": 196184.04050000076,
      "d": 341.2825989583216,
      "v": 76
    },
    {
      "midi": 82,
      "hit": false,
      "t": 196315.61933333336,
      "d": 98.68412499999977,
      "v": 61
    },
    {
      "midi": 84,
      "hit": false,
      "t": 196315.61933333336,
      "d": 98.68412499999977,
      "v": 65
    },
    {
      "midi": 82,
      "hit": false,
      "t": 196447.1981666667,
      "d": 98.68412499999977,
      "v": 61
    },
    {
      "midi": 84,
      "hit": false,
      "t": 196447.1981666667,
      "d": 98.68412499999977,
      "v": 65
    },
    {
      "midi": 58,
      "hit": false,
      "t": 196576.7210807299,
      "d": 365.95363020832883,
      "v": 75
    },
    {
      "midi": 82,
      "hit": false,
      "t": 196578.77700000003,
      "d": 98.68412499999977,
      "v": 61
    },
    {
      "midi": 84,
      "hit": false,
      "t": 196578.77700000003,
      "d": 98.68412499999977,
      "v": 65
    },
    {
      "midi": 82,
      "hit": false,
      "t": 196710.35583333336,
      "d": 98.68412499999977,
      "v": 61
    },
    {
      "midi": 84,
      "hit": false,
      "t": 196710.35583333336,
      "d": 98.68412499999977,
      "v": 65
    },
    {
      "midi": 82,
      "hit": false,
      "t": 196858.38202083338,
      "d": 98.68412499999977,
      "v": 61
    },
    {
      "midi": 84,
      "hit": false,
      "t": 196858.38202083338,
      "d": 98.68412499999977,
      "v": 65
    },
    {
      "midi": 55,
      "hit": false,
      "t": 196971.4575807299,
      "d": 298.10829427084536,
      "v": 92
    },
    {
      "midi": 82,
      "hit": false,
      "t": 196989.9608541667,
      "d": 98.68412499999977,
      "v": 61
    },
    {
      "midi": 84,
      "hit": false,
      "t": 196989.9608541667,
      "d": 98.68412499999977,
      "v": 65
    },
    {
      "midi": 82,
      "hit": false,
      "t": 197121.53968750004,
      "d": 98.68412499999977,
      "v": 61
    },
    {
      "midi": 84,
      "hit": false,
      "t": 197121.53968750004,
      "d": 98.68412499999977,
      "v": 65
    },
    {
      "midi": 82,
      "hit": false,
      "t": 197253.11852083338,
      "d": 98.68412499999977,
      "v": 61
    },
    {
      "midi": 84,
      "hit": false,
      "t": 197253.11852083338,
      "d": 98.68412499999977,
      "v": 65
    },
    {
      "midi": 58,
      "hit": false,
      "t": 197366.1940807299,
      "d": 335.11484114584164,
      "v": 72
    },
    {
      "midi": 82,
      "hit": false,
      "t": 197368.25000000006,
      "d": 98.68412499999977,
      "v": 61
    },
    {
      "midi": 84,
      "hit": false,
      "t": 197368.25000000006,
      "d": 98.68412499999977,
      "v": 65
    },
    {
      "midi": 82,
      "hit": false,
      "t": 197503.94067187505,
      "d": 98.68412499999977,
      "v": 61
    },
    {
      "midi": 84,
      "hit": false,
      "t": 197503.94067187505,
      "d": 98.68412499999977,
      "v": 65
    },
    {
      "midi": 82,
      "hit": false,
      "t": 197635.5195052084,
      "d": 98.68412499999977,
      "v": 61
    },
    {
      "midi": 84,
      "hit": false,
      "t": 197635.5195052084,
      "d": 98.68412499999977,
      "v": 65
    },
    {
      "midi": 55,
      "hit": false,
      "t": 197762.98650000076,
      "d": 357.7299531250028,
      "v": 90
    },
    {
      "midi": 82,
      "hit": false,
      "t": 197767.09833854172,
      "d": 98.68412499999977,
      "v": 61
    },
    {
      "midi": 84,
      "hit": false,
      "t": 197767.09833854172,
      "d": 98.68412499999977,
      "v": 65
    },
    {
      "midi": 82,
      "hit": false,
      "t": 197898.67717187505,
      "d": 98.68412499999977,
      "v": 61
    },
    {
      "midi": 84,
      "hit": false,
      "t": 197898.67717187505,
      "d": 98.68412499999977,
      "v": 65
    },
    {
      "midi": 82,
      "hit": false,
      "t": 198030.2560052084,
      "d": 98.68412499999977,
      "v": 61
    },
    {
      "midi": 84,
      "hit": false,
      "t": 198030.2560052084,
      "d": 98.68412499999977,
      "v": 65
    },
    {
      "midi": 58,
      "hit": false,
      "t": 198155.66708072994,
      "d": 363.8977109375119,
      "v": 88
    },
    {
      "midi": 82,
      "hit": false,
      "t": 198165.94667708338,
      "d": 98.68412499999977,
      "v": 61
    },
    {
      "midi": 84,
      "hit": false,
      "t": 198165.94667708338,
      "d": 98.68412499999977,
      "v": 65
    },
    {
      "midi": 82,
      "hit": false,
      "t": 198297.52551041672,
      "d": 98.68412499999977,
      "v": 61
    },
    {
      "midi": 84,
      "hit": false,
      "t": 198297.52551041672,
      "d": 98.68412499999977,
      "v": 65
    },
    {
      "midi": 82,
      "hit": false,
      "t": 198429.10434375005,
      "d": 98.68412499999977,
      "v": 61
    },
    {
      "midi": 84,
      "hit": false,
      "t": 198429.10434375005,
      "d": 98.68412499999977,
      "v": 65
    },
    {
      "midi": 55,
      "hit": false,
      "t": 198552.45950000078,
      "d": 164.47354166666628,
      "v": 92
    },
    {
      "midi": 82,
      "hit": false,
      "t": 198560.68317708338,
      "d": 98.68412499999977,
      "v": 61
    },
    {
      "midi": 84,
      "hit": false,
      "t": 198560.68317708338,
      "d": 98.68412499999977,
      "v": 65
    },
    {
      "midi": 82,
      "hit": false,
      "t": 198684.0383333334,
      "d": 98.68412499999977,
      "v": 61
    },
    {
      "midi": 84,
      "hit": false,
      "t": 198684.0383333334,
      "d": 98.68412499999977,
      "v": 65
    },
    {
      "midi": 82,
      "hit": false,
      "t": 198813.56124739588,
      "d": 98.68412499999977,
      "v": 61
    },
    {
      "midi": 84,
      "hit": false,
      "t": 198813.56124739588,
      "d": 98.68412499999977,
      "v": 65
    },
    {
      "midi": 82,
      "hit": false,
      "t": 198945.1400807292,
      "d": 98.68412499999977,
      "v": 61
    },
    {
      "midi": 84,
      "hit": false,
      "t": 198945.1400807292,
      "d": 98.68412499999977,
      "v": 65
    },
    {
      "midi": 60,
      "hit": false,
      "t": 198945.14008072994,
      "d": 431.74304687502445,
      "v": 86
    },
    {
      "midi": 82,
      "hit": false,
      "t": 199076.71891406254,
      "d": 98.68412499999977,
      "v": 61
    },
    {
      "midi": 84,
      "hit": false,
      "t": 199076.71891406254,
      "d": 98.68412499999977,
      "v": 65
    },
    {
      "midi": 82,
      "hit": false,
      "t": 199208.29774739587,
      "d": 98.68412499999977,
      "v": 61
    },
    {
      "midi": 84,
      "hit": false,
      "t": 199208.29774739587,
      "d": 98.68412499999977,
      "v": 65
    },
    {
      "midi": 82,
      "hit": false,
      "t": 199339.8765807292,
      "d": 98.68412499999977,
      "v": 61
    },
    {
      "midi": 84,
      "hit": false,
      "t": 199339.8765807292,
      "d": 98.68412499999977,
      "v": 65
    },
    {
      "midi": 55,
      "hit": false,
      "t": 199339.87658072996,
      "d": 376.23322656250093,
      "v": 78
    },
    {
      "midi": 82,
      "hit": false,
      "t": 199471.45541406254,
      "d": 98.68412499999977,
      "v": 61
    },
    {
      "midi": 84,
      "hit": false,
      "t": 199471.45541406254,
      "d": 98.68412499999977,
      "v": 65
    },
    {
      "midi": 82,
      "hit": false,
      "t": 199603.03424739587,
      "d": 98.68412499999977,
      "v": 61
    },
    {
      "midi": 84,
      "hit": false,
      "t": 199603.03424739587,
      "d": 98.68412499999977,
      "v": 65
    },
    {
      "midi": 82,
      "hit": false,
      "t": 199734.6130807292,
      "d": 98.68412499999977,
      "v": 61
    },
    {
      "midi": 84,
      "hit": false,
      "t": 199734.6130807292,
      "d": 98.68412499999977,
      "v": 65
    },
    {
      "midi": 60,
      "hit": false,
      "t": 199734.61308072996,
      "d": 394.73649999999907,
      "v": 78
    },
    {
      "midi": 82,
      "hit": false,
      "t": 199866.19191406254,
      "d": 98.68412499999977,
      "v": 61
    },
    {
      "midi": 84,
      "hit": false,
      "t": 199866.19191406254,
      "d": 98.68412499999977,
      "v": 65
    },
    {
      "midi": 82,
      "hit": false,
      "t": 199997.77074739587,
      "d": 98.68412499999977,
      "v": 61
    },
    {
      "midi": 84,
      "hit": false,
      "t": 199997.77074739587,
      "d": 98.68412499999977,
      "v": 65
    },
    {
      "midi": 82,
      "hit": false,
      "t": 200131.40550000005,
      "d": 98.68412499999977,
      "v": 61
    },
    {
      "midi": 84,
      "hit": false,
      "t": 200131.40550000005,
      "d": 98.68412499999977,
      "v": 65
    },
    {
      "midi": 55,
      "hit": false,
      "t": 200131.4055000008,
      "d": 328.94708333333256,
      "v": 86
    },
    {
      "midi": 82,
      "hit": false,
      "t": 200262.98433333338,
      "d": 98.68412499999977,
      "v": 61
    },
    {
      "midi": 84,
      "hit": false,
      "t": 200262.98433333338,
      "d": 98.68412499999977,
      "v": 65
    },
    {
      "midi": 82,
      "hit": false,
      "t": 200394.56316666672,
      "d": 98.68412499999977,
      "v": 61
    },
    {
      "midi": 84,
      "hit": false,
      "t": 200394.56316666672,
      "d": 98.68412499999977,
      "v": 65
    },
    {
      "midi": 82,
      "hit": false,
      "t": 200526.14200000005,
      "d": 98.68412499999977,
      "v": 61
    },
    {
      "midi": 84,
      "hit": false,
      "t": 200526.14200000005,
      "d": 98.68412499999977,
      "v": 65
    },
    {
      "midi": 60,
      "hit": false,
      "t": 200526.1420000008,
      "d": 324.83524479166954,
      "v": 75
    },
    {
      "midi": 82,
      "hit": false,
      "t": 200657.72083333338,
      "d": 98.68412499999977,
      "v": 61
    },
    {
      "midi": 84,
      "hit": false,
      "t": 200657.72083333338,
      "d": 98.68412499999977,
      "v": 65
    },
    {
      "midi": 82,
      "hit": false,
      "t": 200789.29966666672,
      "d": 98.68412499999977,
      "v": 61
    },
    {
      "midi": 84,
      "hit": false,
      "t": 200789.29966666672,
      "d": 98.68412499999977,
      "v": 65
    },
    {
      "midi": 82,
      "hit": false,
      "t": 200920.87850000005,
      "d": 98.68412499999977,
      "v": 61
    },
    {
      "midi": 84,
      "hit": false,
      "t": 200920.87850000005,
      "d": 98.68412499999977,
      "v": 65
    },
    {
      "midi": 55,
      "hit": false,
      "t": 200920.8785000008,
      "d": 267.26950520832906,
      "v": 88
    },
    {
      "midi": 82,
      "hit": false,
      "t": 201052.45733333338,
      "d": 98.68412499999977,
      "v": 61
    },
    {
      "midi": 84,
      "hit": false,
      "t": 201052.45733333338,
      "d": 98.68412499999977,
      "v": 65
    },
    {
      "midi": 82,
      "hit": false,
      "t": 201184.03616666672,
      "d": 98.68412499999977,
      "v": 61
    },
    {
      "midi": 84,
      "hit": false,
      "t": 201184.03616666672,
      "d": 98.68412499999977,
      "v": 65
    },
    {
      "midi": 60,
      "hit": false,
      "t": 201313.55908072996,
      "d": 736.0190989583498,
      "v": 81
    },
    {
      "midi": 82,
      "hit": false,
      "t": 201315.61500000005,
      "d": 98.68412499999977,
      "v": 61
    },
    {
      "midi": 84,
      "hit": false,
      "t": 201315.61500000005,
      "d": 98.68412499999977,
      "v": 65
    },
    {
      "midi": 82,
      "hit": false,
      "t": 201447.19383333338,
      "d": 98.68412499999977,
      "v": 61
    },
    {
      "midi": 84,
      "hit": false,
      "t": 201447.19383333338,
      "d": 98.68412499999977,
      "v": 65
    },
    {
      "midi": 82,
      "hit": false,
      "t": 201578.77266666671,
      "d": 98.68412499999977,
      "v": 61
    },
    {
      "midi": 84,
      "hit": false,
      "t": 201578.77266666671,
      "d": 98.68412499999977,
      "v": 65
    },
    {
      "midi": 55,
      "hit": false,
      "t": 201708.29558072996,
      "d": 396.79241927084513,
      "v": 82
    },
    {
      "midi": 82,
      "hit": false,
      "t": 201710.35150000005,
      "d": 98.68412499999977,
      "v": 61
    },
    {
      "midi": 84,
      "hit": false,
      "t": 201710.35150000005,
      "d": 98.68412499999977,
      "v": 65
    },
    {
      "midi": 82,
      "hit": false,
      "t": 201841.93033333338,
      "d": 98.68412499999977,
      "v": 61
    },
    {
      "midi": 84,
      "hit": false,
      "t": 201841.93033333338,
      "d": 98.68412499999977,
      "v": 65
    },
    {
      "midi": 82,
      "hit": false,
      "t": 201973.5091666667,
      "d": 98.68412499999977,
      "v": 61
    },
    {
      "midi": 84,
      "hit": false,
      "t": 201973.5091666667,
      "d": 98.68412499999977,
      "v": 65
    },
    {
      "midi": 55,
      "hit": false,
      "t": 202105.0880000008,
      "d": 516.03573697916,
      "v": 79
    },
    {
      "midi": 63,
      "hit": false,
      "t": 202105.0880000008,
      "d": 522.2034947916691,
      "v": 75
    },
    {
      "midi": 60,
      "hit": false,
      "t": 202105.0880000008,
      "d": 526.3153333333321,
      "v": 76
    },
    {
      "midi": 63,
      "hit": false,
      "t": 202892.50508072996,
      "d": 522.2034947916691,
      "v": 84
    },
    {
      "midi": 55,
      "hit": false,
      "t": 202892.50508072996,
      "d": 534.5390104166581,
      "v": 83
    },
    {
      "midi": 60,
      "hit": false,
      "t": 202892.50508072996,
      "d": 571.5455572916544,
      "v": 75
    },
    {
      "midi": 55,
      "hit": false,
      "t": 203684.03400000077,
      "d": 429.6871276041784,
      "v": 76
    },
    {
      "midi": 63,
      "hit": false,
      "t": 203684.03400000077,
      "d": 433.7989661458414,
      "v": 76
    },
    {
      "midi": 60,
      "hit": false,
      "t": 203684.03400000077,
      "d": 466.69367447917466,
      "v": 75
    },
    {
      "midi": 60,
      "hit": false,
      "t": 204473.50700000077,
      "d": 446.13448177083046,
      "v": 76
    },
    {
      "midi": 63,
      "hit": false,
      "t": 204473.50700000077,
      "d": 454.3581588541565,
      "v": 73
    },
    {
      "midi": 55,
      "hit": false,
      "t": 204473.50700000077,
      "d": 481.0851093749807,
      "v": 74
    },
    {
      "midi": 56,
      "hit": false,
      "t": 205260.92408072992,
      "d": 526.3153333333321,
      "v": 75
    },
    {
      "midi": 63,
      "hit": false,
      "t": 205260.92408072992,
      "d": 550.9863645833393,
      "v": 75
    },
    {
      "midi": 60,
      "hit": false,
      "t": 205262.98000000077,
      "d": 479.0291901041637,
      "v": 75
    },
    {
      "midi": 63,
      "hit": false,
      "t": 206052.45300000077,
      "d": 462.58183593751164,
      "v": 66
    },
    {
      "midi": 56,
      "hit": false,
      "t": 206052.45300000077,
      "d": 472.86143229168374,
      "v": 68
    },
    {
      "midi": 60,
      "hit": false,
      "t": 206052.45300000077,
      "d": 491.3647057291819,
      "v": 71
    },
    {
      "midi": 63,
      "hit": false,
      "t": 206839.87008072995,
      "d": 398.8483385416912,
      "v": 69
    },
    {
      "midi": 56,
      "hit": false,
      "t": 206839.87008072995,
      "d": 417.35161197921843,
      "v": 68
    },
    {
      "midi": 60,
      "hit": false,
      "t": 206841.9260000008,
      "d": 413.2397734375263,
      "v": 66
    },
    {
      "midi": 63,
      "hit": false,
      "t": 207629.34308073,
      "d": 548.9304453124932,
      "v": 68
    },
    {
      "midi": 56,
      "hit": false,
      "t": 207629.34308073,
      "d": 602.3843463541707,
      "v": 71
    },
    {
      "midi": 60,
      "hit": false,
      "t": 207629.34308073,
      "d": 624.9994583333319,
      "v": 75
    },
    {
      "midi": 58,
      "hit": false,
      "t": 208418.81608073,
      "d": 555.0982031250023,
      "v": 79
    },
    {
      "midi": 63,
      "hit": false,
      "t": 208418.81608073,
      "d": 561.2659609375114,
      "v": 79
    },
    {
      "midi": 55,
      "hit": false,
      "t": 208418.81608073,
      "d": 579.7692343750095,
      "v": 79
    },
    {
      "midi": 55,
      "hit": false,
      "t": 209210.34500000085,
      "d": 561.2659609375114,
      "v": 75
    },
    {
      "midi": 58,
      "hit": false,
      "t": 209210.34500000085,
      "d": 563.3218802083575,
      "v": 73
    },
    {
      "midi": 63,
      "hit": false,
      "t": 209210.34500000085,
      "d": 567.4337187500205,
      "v": 84
    },
    {
      "midi": 63,
      "hit": false,
      "t": 209997.76208073003,
      "d": 548.9304453124932,
      "v": 78
    },
    {
      "midi": 58,
      "hit": false,
      "t": 209997.76208073003,
      "d": 550.9863645833393,
      "v": 75
    },
    {
      "midi": 55,
      "hit": false,
      "t": 209997.76208073003,
      "d": 553.0422838541854,
      "v": 74
    },
    {
      "midi": 63,
      "hit": false,
      "t": 210787.23508073005,
      "d": 559.2100416666653,
      "v": 84
    },
    {
      "midi": 58,
      "hit": false,
      "t": 210787.23508073005,
      "d": 594.1606692708447,
      "v": 69
    },
    {
      "midi": 55,
      "hit": false,
      "t": 210787.23508073005,
      "d": 614.7198619791889,
      "v": 76
    },
    {
      "midi": 60,
      "hit": false,
      "t": 211576.70808073008,
      "d": 569.4896380208374,
      "v": 71
    },
    {
      "midi": 56,
      "hit": false,
      "t": 211576.70808073008,
      "d": 573.6014765625005,
      "v": 69
    },
    {
      "midi": 63,
      "hit": false,
      "t": 211576.70808073008,
      "d": 573.6014765625005,
      "v": 70
    },
    {
      "midi": 63,
      "hit": false,
      "t": 212366.18108073008,
      "d": 548.9304453124932,
      "v": 73
    },
    {
      "midi": 60,
      "hit": false,
      "t": 212366.18108073008,
      "d": 565.3777994791744,
      "v": 68
    },
    {
      "midi": 56,
      "hit": false,
      "t": 212366.18108073008,
      "d": 575.6573958333465,
      "v": 73
    },
    {
      "midi": 63,
      "hit": false,
      "t": 213155.6540807301,
      "d": 550.9863645833393,
      "v": 73
    },
    {
      "midi": 60,
      "hit": false,
      "t": 213155.6540807301,
      "d": 583.8810729166726,
      "v": 76
    },
    {
      "midi": 55,
      "hit": false,
      "t": 213157.71000000095,
      "d": 569.4896380208374,
      "v": 82
    },
    {
      "midi": 55,
      "hit": false,
      "t": 213947.18300000095,
      "d": 596.2165885416616,
      "v": 80
    },
    {
      "midi": 63,
      "hit": false,
      "t": 213947.18300000095,
      "d": 604.4402656249877,
      "v": 73
    },
    {
      "midi": 60,
      "hit": false,
      "t": 213947.18300000095,
      "d": 612.6639427083137,
      "v": 74
    },
    {
      "midi": 55,
      "hit": false,
      "t": 214736.65600000092,
      "d": 516.03573697916,
      "v": 79
    },
    {
      "midi": 63,
      "hit": false,
      "t": 214736.65600000092,
      "d": 522.2034947916691,
      "v": 75
    },
    {
      "midi": 60,
      "hit": false,
      "t": 214736.65600000092,
      "d": 526.3153333333321,
      "v": 76
    },
    {
      "midi": 63,
      "hit": false,
      "t": 215524.07308073007,
      "d": 522.2034947916691,
      "v": 84
    },
    {
      "midi": 55,
      "hit": false,
      "t": 215524.07308073007,
      "d": 534.5390104166581,
      "v": 83
    },
    {
      "midi": 60,
      "hit": false,
      "t": 215524.07308073007,
      "d": 571.5455572916544,
      "v": 75
    },
    {
      "midi": 55,
      "hit": false,
      "t": 216315.6020000009,
      "d": 429.6871276041784,
      "v": 76
    },
    {
      "midi": 63,
      "hit": false,
      "t": 216315.6020000009,
      "d": 433.7989661458414,
      "v": 76
    },
    {
      "midi": 60,
      "hit": false,
      "t": 216315.6020000009,
      "d": 466.69367447917466,
      "v": 75
    },
    {
      "midi": 60,
      "hit": false,
      "t": 217105.07500000088,
      "d": 446.13448177083046,
      "v": 76
    },
    {
      "midi": 63,
      "hit": false,
      "t": 217105.07500000088,
      "d": 454.3581588541565,
      "v": 73
    },
    {
      "midi": 55,
      "hit": false,
      "t": 217105.07500000088,
      "d": 481.0851093749807,
      "v": 74
    },
    {
      "midi": 56,
      "hit": false,
      "t": 217892.49208073004,
      "d": 526.3153333333321,
      "v": 75
    },
    {
      "midi": 63,
      "hit": false,
      "t": 217892.49208073004,
      "d": 550.9863645833393,
      "v": 75
    },
    {
      "midi": 60,
      "hit": false,
      "t": 217894.54800000088,
      "d": 479.0291901041637,
      "v": 75
    },
    {
      "midi": 63,
      "hit": false,
      "t": 218684.02100000088,
      "d": 462.58183593751164,
      "v": 66
    },
    {
      "midi": 56,
      "hit": false,
      "t": 218684.02100000088,
      "d": 472.86143229168374,
      "v": 68
    },
    {
      "midi": 60,
      "hit": false,
      "t": 218684.02100000088,
      "d": 491.3647057291819,
      "v": 71
    },
    {
      "midi": 63,
      "hit": false,
      "t": 219471.43808073006,
      "d": 398.8483385416912,
      "v": 69
    },
    {
      "midi": 56,
      "hit": false,
      "t": 219471.43808073006,
      "d": 417.35161197921843,
      "v": 68
    },
    {
      "midi": 60,
      "hit": false,
      "t": 219473.4940000009,
      "d": 413.2397734375263,
      "v": 66
    },
    {
      "midi": 63,
      "hit": false,
      "t": 220260.91108073012,
      "d": 548.9304453124932,
      "v": 68
    },
    {
      "midi": 56,
      "hit": false,
      "t": 220260.91108073012,
      "d": 602.3843463541707,
      "v": 71
    },
    {
      "midi": 60,
      "hit": false,
      "t": 220260.91108073012,
      "d": 624.9994583333319,
      "v": 75
    },
    {
      "midi": 58,
      "hit": false,
      "t": 221050.38408073012,
      "d": 555.0982031250023,
      "v": 79
    },
    {
      "midi": 63,
      "hit": false,
      "t": 221050.38408073012,
      "d": 561.2659609375114,
      "v": 79
    },
    {
      "midi": 55,
      "hit": false,
      "t": 221050.38408073012,
      "d": 579.7692343750095,
      "v": 79
    },
    {
      "midi": 55,
      "hit": false,
      "t": 221841.91300000096,
      "d": 561.2659609375114,
      "v": 75
    },
    {
      "midi": 58,
      "hit": false,
      "t": 221841.91300000096,
      "d": 563.3218802083575,
      "v": 73
    },
    {
      "midi": 63,
      "hit": false,
      "t": 221841.91300000096,
      "d": 567.4337187500205,
      "v": 84
    },
    {
      "midi": 63,
      "hit": false,
      "t": 222629.33008073014,
      "d": 548.9304453124932,
      "v": 78
    },
    {
      "midi": 58,
      "hit": false,
      "t": 222629.33008073014,
      "d": 550.9863645833393,
      "v": 75
    },
    {
      "midi": 55,
      "hit": false,
      "t": 222629.33008073014,
      "d": 553.0422838541854,
      "v": 74
    },
    {
      "midi": 63,
      "hit": false,
      "t": 223418.80308073017,
      "d": 559.2100416666653,
      "v": 84
    },
    {
      "midi": 58,
      "hit": false,
      "t": 223418.80308073017,
      "d": 594.1606692708447,
      "v": 69
    },
    {
      "midi": 55,
      "hit": false,
      "t": 223418.80308073017,
      "d": 614.7198619791889,
      "v": 76
    },
    {
      "midi": 60,
      "hit": false,
      "t": 224208.2760807302,
      "d": 569.4896380208374,
      "v": 71
    },
    {
      "midi": 56,
      "hit": false,
      "t": 224208.2760807302,
      "d": 573.6014765625005,
      "v": 69
    },
    {
      "midi": 63,
      "hit": false,
      "t": 224208.2760807302,
      "d": 573.6014765625005,
      "v": 70
    },
    {
      "midi": 63,
      "hit": false,
      "t": 224997.7490807302,
      "d": 548.9304453124932,
      "v": 73
    },
    {
      "midi": 60,
      "hit": false,
      "t": 224997.7490807302,
      "d": 565.3777994791744,
      "v": 68
    },
    {
      "midi": 56,
      "hit": false,
      "t": 224997.7490807302,
      "d": 575.6573958333465,
      "v": 73
    },
    {
      "midi": 63,
      "hit": false,
      "t": 225787.22208073022,
      "d": 550.9863645833393,
      "v": 73
    },
    {
      "midi": 60,
      "hit": false,
      "t": 225787.22208073022,
      "d": 583.8810729166726,
      "v": 76
    },
    {
      "midi": 55,
      "hit": false,
      "t": 225789.27800000107,
      "d": 569.4896380208374,
      "v": 82
    },
    {
      "midi": 55,
      "hit": false,
      "t": 226578.75100000107,
      "d": 596.2165885416616,
      "v": 80
    },
    {
      "midi": 63,
      "hit": false,
      "t": 226578.75100000107,
      "d": 604.4402656249877,
      "v": 73
    },
    {
      "midi": 60,
      "hit": false,
      "t": 226578.75100000107,
      "d": 612.6639427083137,
      "v": 74
    },
    {
      "midi": 55,
      "hit": false,
      "t": 227368.22400000104,
      "d": 516.03573697916,
      "v": 79
    },
    {
      "midi": 63,
      "hit": false,
      "t": 227368.22400000104,
      "d": 522.2034947916691,
      "v": 75
    },
    {
      "midi": 60,
      "hit": false,
      "t": 227368.22400000104,
      "d": 526.3153333333321,
      "v": 76
    },
    {
      "midi": 63,
      "hit": false,
      "t": 228155.6410807302,
      "d": 522.2034947916691,
      "v": 84
    },
    {
      "midi": 55,
      "hit": false,
      "t": 228155.6410807302,
      "d": 534.5390104166581,
      "v": 83
    },
    {
      "midi": 60,
      "hit": false,
      "t": 228155.6410807302,
      "d": 571.5455572916544,
      "v": 75
    },
    {
      "midi": 55,
      "hit": false,
      "t": 228947.170000001,
      "d": 429.6871276041784,
      "v": 76
    },
    {
      "midi": 63,
      "hit": false,
      "t": 228947.170000001,
      "d": 433.7989661458414,
      "v": 76
    },
    {
      "midi": 60,
      "hit": false,
      "t": 228947.170000001,
      "d": 466.69367447917466,
      "v": 75
    },
    {
      "midi": 60,
      "hit": false,
      "t": 229736.643000001,
      "d": 446.13448177083046,
      "v": 76
    },
    {
      "midi": 63,
      "hit": false,
      "t": 229736.643000001,
      "d": 454.3581588541565,
      "v": 73
    },
    {
      "midi": 55,
      "hit": false,
      "t": 229736.643000001,
      "d": 481.0851093749807,
      "v": 74
    },
    {
      "midi": 56,
      "hit": false,
      "t": 230524.06008073015,
      "d": 526.3153333333321,
      "v": 75
    },
    {
      "midi": 63,
      "hit": false,
      "t": 230524.06008073015,
      "d": 550.9863645833393,
      "v": 75
    },
    {
      "midi": 60,
      "hit": false,
      "t": 230526.116000001,
      "d": 479.0291901041637,
      "v": 75
    },
    {
      "midi": 63,
      "hit": false,
      "t": 231315.589000001,
      "d": 462.58183593751164,
      "v": 66
    },
    {
      "midi": 56,
      "hit": false,
      "t": 231315.589000001,
      "d": 472.86143229168374,
      "v": 68
    },
    {
      "midi": 60,
      "hit": false,
      "t": 231315.589000001,
      "d": 491.3647057291819,
      "v": 71
    },
    {
      "midi": 63,
      "hit": false,
      "t": 232103.00608073018,
      "d": 398.8483385416912,
      "v": 69
    },
    {
      "midi": 56,
      "hit": false,
      "t": 232103.00608073018,
      "d": 417.35161197921843,
      "v": 68
    },
    {
      "midi": 60,
      "hit": false,
      "t": 232105.06200000102,
      "d": 413.2397734375263,
      "v": 66
    },
    {
      "midi": 63,
      "hit": false,
      "t": 232892.47908073023,
      "d": 548.9304453124932,
      "v": 68
    },
    {
      "midi": 56,
      "hit": false,
      "t": 232892.47908073023,
      "d": 602.3843463541707,
      "v": 71
    },
    {
      "midi": 60,
      "hit": false,
      "t": 232892.47908073023,
      "d": 624.9994583333319,
      "v": 75
    },
    {
      "midi": 58,
      "hit": false,
      "t": 233681.95208073023,
      "d": 555.0982031250023,
      "v": 79
    },
    {
      "midi": 63,
      "hit": false,
      "t": 233681.95208073023,
      "d": 561.2659609375114,
      "v": 79
    },
    {
      "midi": 55,
      "hit": false,
      "t": 233681.95208073023,
      "d": 579.7692343750095,
      "v": 79
    },
    {
      "midi": 55,
      "hit": false,
      "t": 234473.48100000108,
      "d": 561.2659609375114,
      "v": 75
    },
    {
      "midi": 58,
      "hit": false,
      "t": 234473.48100000108,
      "d": 563.3218802083575,
      "v": 73
    },
    {
      "midi": 63,
      "hit": false,
      "t": 234473.48100000108,
      "d": 567.4337187500205,
      "v": 84
    },
    {
      "midi": 63,
      "hit": false,
      "t": 235260.89808073026,
      "d": 548.9304453124932,
      "v": 78
    },
    {
      "midi": 58,
      "hit": false,
      "t": 235260.89808073026,
      "d": 550.9863645833393,
      "v": 75
    },
    {
      "midi": 55,
      "hit": false,
      "t": 235260.89808073026,
      "d": 553.0422838541854,
      "v": 74
    },
    {
      "midi": 63,
      "hit": false,
      "t": 236050.37108073029,
      "d": 559.2100416666653,
      "v": 84
    },
    {
      "midi": 58,
      "hit": false,
      "t": 236050.37108073029,
      "d": 594.1606692708447,
      "v": 69
    },
    {
      "midi": 55,
      "hit": false,
      "t": 236050.37108073029,
      "d": 614.7198619791889,
      "v": 76
    },
    {
      "midi": 60,
      "hit": false,
      "t": 236839.8440807303,
      "d": 569.4896380208374,
      "v": 71
    },
    {
      "midi": 56,
      "hit": false,
      "t": 236839.8440807303,
      "d": 573.6014765625005,
      "v": 69
    },
    {
      "midi": 63,
      "hit": false,
      "t": 236839.8440807303,
      "d": 573.6014765625005,
      "v": 70
    },
    {
      "midi": 63,
      "hit": false,
      "t": 237629.3170807303,
      "d": 548.9304453124932,
      "v": 73
    },
    {
      "midi": 60,
      "hit": false,
      "t": 237629.3170807303,
      "d": 565.3777994791744,
      "v": 68
    },
    {
      "midi": 56,
      "hit": false,
      "t": 237629.3170807303,
      "d": 575.6573958333465,
      "v": 73
    },
    {
      "midi": 63,
      "hit": false,
      "t": 238418.79008073034,
      "d": 550.9863645833393,
      "v": 73
    },
    {
      "midi": 60,
      "hit": false,
      "t": 238418.79008073034,
      "d": 583.8810729166726,
      "v": 76
    },
    {
      "midi": 55,
      "hit": false,
      "t": 238420.84600000118,
      "d": 569.4896380208374,
      "v": 82
    },
    {
      "midi": 55,
      "hit": false,
      "t": 239210.31900000118,
      "d": 596.2165885416616,
      "v": 80
    },
    {
      "midi": 63,
      "hit": false,
      "t": 239210.31900000118,
      "d": 604.4402656249877,
      "v": 73
    },
    {
      "midi": 60,
      "hit": false,
      "t": 239210.31900000118,
      "d": 612.6639427083137,
      "v": 74
    },
    {
      "midi": 55,
      "hit": false,
      "t": 239999.79200000115,
      "d": 516.03573697916,
      "v": 79
    },
    {
      "midi": 63,
      "hit": false,
      "t": 239999.79200000115,
      "d": 522.2034947916691,
      "v": 75
    },
    {
      "midi": 60,
      "hit": false,
      "t": 239999.79200000115,
      "d": 526.3153333333321,
      "v": 76
    },
    {
      "midi": 63,
      "hit": false,
      "t": 240787.2090807303,
      "d": 522.2034947916691,
      "v": 84
    },
    {
      "midi": 55,
      "hit": false,
      "t": 240787.2090807303,
      "d": 534.5390104166581,
      "v": 83
    },
    {
      "midi": 60,
      "hit": false,
      "t": 240787.2090807303,
      "d": 571.5455572916544,
      "v": 75
    },
    {
      "midi": 55,
      "hit": false,
      "t": 241578.73800000112,
      "d": 429.6871276041784,
      "v": 76
    },
    {
      "midi": 63,
      "hit": false,
      "t": 241578.73800000112,
      "d": 433.7989661458414,
      "v": 76
    },
    {
      "midi": 60,
      "hit": false,
      "t": 241578.73800000112,
      "d": 466.69367447917466,
      "v": 75
    },
    {
      "midi": 60,
      "hit": false,
      "t": 242368.21100000112,
      "d": 446.13448177083046,
      "v": 76
    },
    {
      "midi": 63,
      "hit": false,
      "t": 242368.21100000112,
      "d": 454.3581588541565,
      "v": 73
    },
    {
      "midi": 55,
      "hit": false,
      "t": 242368.21100000112,
      "d": 481.0851093749807,
      "v": 74
    },
    {
      "midi": 56,
      "hit": false,
      "t": 243155.62808073027,
      "d": 526.3153333333321,
      "v": 75
    },
    {
      "midi": 63,
      "hit": false,
      "t": 243155.62808073027,
      "d": 550.9863645833393,
      "v": 75
    },
    {
      "midi": 60,
      "hit": false,
      "t": 243157.6840000011,
      "d": 479.0291901041637,
      "v": 75
    },
    {
      "midi": 63,
      "hit": false,
      "t": 243947.1570000011,
      "d": 462.58183593751164,
      "v": 66
    },
    {
      "midi": 56,
      "hit": false,
      "t": 243947.1570000011,
      "d": 472.86143229168374,
      "v": 68
    },
    {
      "midi": 60,
      "hit": false,
      "t": 243947.1570000011,
      "d": 491.3647057291819,
      "v": 71
    },
    {
      "midi": 63,
      "hit": false,
      "t": 244734.5740807303,
      "d": 398.8483385416912,
      "v": 69
    },
    {
      "midi": 56,
      "hit": false,
      "t": 244734.5740807303,
      "d": 417.35161197921843,
      "v": 68
    },
    {
      "midi": 60,
      "hit": false,
      "t": 244736.63000000114,
      "d": 413.2397734375263,
      "v": 66
    },
    {
      "midi": 63,
      "hit": false,
      "t": 245524.04708073035,
      "d": 548.9304453124932,
      "v": 68
    },
    {
      "midi": 56,
      "hit": false,
      "t": 245524.04708073035,
      "d": 602.3843463541707,
      "v": 71
    },
    {
      "midi": 60,
      "hit": false,
      "t": 245524.04708073035,
      "d": 624.9994583333319,
      "v": 75
    },
    {
      "midi": 58,
      "hit": false,
      "t": 246313.52008073035,
      "d": 555.0982031250023,
      "v": 79
    },
    {
      "midi": 63,
      "hit": false,
      "t": 246313.52008073035,
      "d": 561.2659609375114,
      "v": 79
    },
    {
      "midi": 55,
      "hit": false,
      "t": 246313.52008073035,
      "d": 579.7692343750095,
      "v": 79
    },
    {
      "midi": 55,
      "hit": false,
      "t": 247105.0490000012,
      "d": 561.2659609375114,
      "v": 75
    },
    {
      "midi": 58,
      "hit": false,
      "t": 247105.0490000012,
      "d": 563.3218802083575,
      "v": 73
    },
    {
      "midi": 63,
      "hit": false,
      "t": 247105.0490000012,
      "d": 567.4337187500205,
      "v": 84
    },
    {
      "midi": 63,
      "hit": false,
      "t": 247892.46608073037,
      "d": 548.9304453124932,
      "v": 78
    },
    {
      "midi": 58,
      "hit": false,
      "t": 247892.46608073037,
      "d": 550.9863645833393,
      "v": 75
    },
    {
      "midi": 55,
      "hit": false,
      "t": 247892.46608073037,
      "d": 553.0422838541854,
      "v": 74
    },
    {
      "midi": 63,
      "hit": false,
      "t": 248681.9390807304,
      "d": 559.2100416666653,
      "v": 84
    },
    {
      "midi": 58,
      "hit": false,
      "t": 248681.9390807304,
      "d": 594.1606692708447,
      "v": 69
    },
    {
      "midi": 55,
      "hit": false,
      "t": 248681.9390807304,
      "d": 614.7198619791889,
      "v": 76
    },
    {
      "midi": 60,
      "hit": false,
      "t": 249471.41208073043,
      "d": 569.4896380208374,
      "v": 71
    },
    {
      "midi": 56,
      "hit": false,
      "t": 249471.41208073043,
      "d": 573.6014765625005,
      "v": 69
    },
    {
      "midi": 63,
      "hit": false,
      "t": 249471.41208073043,
      "d": 573.6014765625005,
      "v": 70
    },
    {
      "midi": 63,
      "hit": false,
      "t": 250260.88508073043,
      "d": 548.9304453124932,
      "v": 73
    },
    {
      "midi": 60,
      "hit": false,
      "t": 250260.88508073043,
      "d": 565.3777994791744,
      "v": 68
    },
    {
      "midi": 56,
      "hit": false,
      "t": 250260.88508073043,
      "d": 575.6573958333465,
      "v": 73
    },
    {
      "midi": 63,
      "hit": false,
      "t": 251050.35808073045,
      "d": 550.9863645833393,
      "v": 73
    },
    {
      "midi": 60,
      "hit": false,
      "t": 251050.35808073045,
      "d": 583.8810729166726,
      "v": 76
    },
    {
      "midi": 55,
      "hit": false,
      "t": 251052.4140000013,
      "d": 569.4896380208374,
      "v": 82
    },
    {
      "midi": 55,
      "hit": false,
      "t": 251841.8870000013,
      "d": 596.2165885416616,
      "v": 80
    },
    {
      "midi": 63,
      "hit": false,
      "t": 251841.8870000013,
      "d": 604.4402656249877,
      "v": 73
    },
    {
      "midi": 60,
      "hit": false,
      "t": 251841.8870000013,
      "d": 612.6639427083137,
      "v": 74
    },
    {
      "midi": 55,
      "hit": false,
      "t": 252631.36000000127,
      "d": 516.03573697916,
      "v": 79
    },
    {
      "midi": 63,
      "hit": false,
      "t": 252631.36000000127,
      "d": 522.2034947916691,
      "v": 75
    },
    {
      "midi": 60,
      "hit": false,
      "t": 252631.36000000127,
      "d": 526.3153333333321,
      "v": 76
    },
    {
      "midi": 63,
      "hit": false,
      "t": 253418.77708073042,
      "d": 522.2034947916691,
      "v": 84
    },
    {
      "midi": 55,
      "hit": false,
      "t": 253418.77708073042,
      "d": 534.5390104166581,
      "v": 83
    },
    {
      "midi": 60,
      "hit": false,
      "t": 253418.77708073042,
      "d": 571.5455572916544,
      "v": 75
    },
    {
      "midi": 55,
      "hit": false,
      "t": 254210.30600000123,
      "d": 429.6871276041784,
      "v": 76
    },
    {
      "midi": 63,
      "hit": false,
      "t": 254210.30600000123,
      "d": 433.7989661458414,
      "v": 76
    },
    {
      "midi": 60,
      "hit": false,
      "t": 254210.30600000123,
      "d": 466.69367447917466,
      "v": 75
    },
    {
      "midi": 60,
      "hit": false,
      "t": 254999.77900000123,
      "d": 446.13448177083046,
      "v": 76
    },
    {
      "midi": 63,
      "hit": false,
      "t": 254999.77900000123,
      "d": 454.3581588541565,
      "v": 73
    },
    {
      "midi": 55,
      "hit": false,
      "t": 254999.77900000123,
      "d": 481.0851093749807,
      "v": 74
    },
    {
      "midi": 56,
      "hit": false,
      "t": 255787.19608073038,
      "d": 526.3153333333321,
      "v": 75
    },
    {
      "midi": 63,
      "hit": false,
      "t": 255787.19608073038,
      "d": 550.9863645833393,
      "v": 75
    },
    {
      "midi": 60,
      "hit": false,
      "t": 255789.25200000123,
      "d": 479.0291901041637,
      "v": 75
    },
    {
      "midi": 63,
      "hit": false,
      "t": 256578.72500000123,
      "d": 462.58183593751164,
      "v": 66
    },
    {
      "midi": 56,
      "hit": false,
      "t": 256578.72500000123,
      "d": 472.86143229168374,
      "v": 68
    },
    {
      "midi": 60,
      "hit": false,
      "t": 256578.72500000123,
      "d": 491.3647057291819,
      "v": 71
    },
    {
      "midi": 63,
      "hit": false,
      "t": 257366.1420807304,
      "d": 398.8483385416912,
      "v": 69
    },
    {
      "midi": 56,
      "hit": false,
      "t": 257366.1420807304,
      "d": 417.35161197921843,
      "v": 68
    },
    {
      "midi": 60,
      "hit": false,
      "t": 257368.19800000126,
      "d": 413.2397734375263,
      "v": 66
    },
    {
      "midi": 63,
      "hit": false,
      "t": 258155.61508073047,
      "d": 548.9304453124932,
      "v": 68
    },
    {
      "midi": 56,
      "hit": false,
      "t": 258155.61508073047,
      "d": 602.3843463541707,
      "v": 71
    },
    {
      "midi": 60,
      "hit": false,
      "t": 258155.61508073047,
      "d": 624.9994583333319,
      "v": 75
    },
    {
      "midi": 58,
      "hit": false,
      "t": 258945.08808073046,
      "d": 555.0982031250023,
      "v": 79
    },
    {
      "midi": 63,
      "hit": false,
      "t": 258945.08808073046,
      "d": 561.2659609375114,
      "v": 79
    },
    {
      "midi": 55,
      "hit": false,
      "t": 258945.08808073046,
      "d": 579.7692343750095,
      "v": 79
    },
    {
      "midi": 55,
      "hit": false,
      "t": 259736.6170000013,
      "d": 561.2659609375114,
      "v": 75
    },
    {
      "midi": 58,
      "hit": false,
      "t": 259736.6170000013,
      "d": 563.3218802083575,
      "v": 73
    },
    {
      "midi": 63,
      "hit": false,
      "t": 259736.6170000013,
      "d": 567.4337187500205,
      "v": 84
    },
    {
      "midi": 63,
      "hit": false,
      "t": 260524.0340807305,
      "d": 548.9304453124932,
      "v": 78
    },
    {
      "midi": 58,
      "hit": false,
      "t": 260524.0340807305,
      "d": 550.9863645833393,
      "v": 75
    },
    {
      "midi": 55,
      "hit": false,
      "t": 260524.0340807305,
      "d": 553.0422838541854,
      "v": 74
    },
    {
      "midi": 63,
      "hit": false,
      "t": 261313.50708073052,
      "d": 559.2100416666653,
      "v": 84
    },
    {
      "midi": 58,
      "hit": false,
      "t": 261313.50708073052,
      "d": 594.1606692708447,
      "v": 69
    },
    {
      "midi": 55,
      "hit": false,
      "t": 261313.50708073052,
      "d": 614.7198619791889,
      "v": 76
    },
    {
      "midi": 60,
      "hit": false,
      "t": 262102.98008073054,
      "d": 569.4896380208374,
      "v": 71
    },
    {
      "midi": 56,
      "hit": false,
      "t": 262102.98008073054,
      "d": 573.6014765625296,
      "v": 69
    },
    {
      "midi": 63,
      "hit": false,
      "t": 262102.98008073054,
      "d": 573.6014765625296,
      "v": 70
    },
    {
      "midi": 63,
      "hit": false,
      "t": 262892.4530807306,
      "d": 548.9304453125224,
      "v": 73
    },
    {
      "midi": 60,
      "hit": false,
      "t": 262892.4530807306,
      "d": 565.3777994791744,
      "v": 68
    },
    {
      "midi": 56,
      "hit": false,
      "t": 262892.4530807306,
      "d": 575.6573958333465,
      "v": 73
    },
    {
      "midi": 63,
      "hit": false,
      "t": 263681.92608073057,
      "d": 550.9863645833684,
      "v": 73
    },
    {
      "midi": 60,
      "hit": false,
      "t": 263681.92608073057,
      "d": 583.8810729167308,
      "v": 76
    },
    {
      "midi": 55,
      "hit": false,
      "t": 263683.9820000014,
      "d": 569.4896380208666,
      "v": 82
    },
    {
      "midi": 55,
      "hit": false,
      "t": 264473.4550000015,
      "d": 596.2165885416907,
      "v": 80
    },
    {
      "midi": 63,
      "hit": false,
      "t": 264473.4550000015,
      "d": 604.4402656250168,
      "v": 73
    },
    {
      "midi": 60,
      "hit": false,
      "t": 264473.4550000015,
      "d": 612.6639427083428,
      "v": 74
    },
    {
      "midi": 55,
      "hit": false,
      "t": 265262.92800000147,
      "d": 516.03573697916,
      "v": 79
    },
    {
      "midi": 63,
      "hit": false,
      "t": 265262.92800000147,
      "d": 522.20349479164,
      "v": 75
    },
    {
      "midi": 60,
      "hit": false,
      "t": 265262.92800000147,
      "d": 526.3153333333321,
      "v": 76
    },
    {
      "midi": 63,
      "hit": false,
      "t": 266050.3450807306,
      "d": 522.20349479164,
      "v": 84
    },
    {
      "midi": 55,
      "hit": false,
      "t": 266050.3450807306,
      "d": 534.5390104166581,
      "v": 83
    },
    {
      "midi": 60,
      "hit": false,
      "t": 266050.3450807306,
      "d": 571.5455572916544,
      "v": 75
    },
    {
      "midi": 55,
      "hit": false,
      "t": 266841.87400000147,
      "d": 429.6871276041493,
      "v": 76
    },
    {
      "midi": 63,
      "hit": false,
      "t": 266841.87400000147,
      "d": 433.7989661458414,
      "v": 76
    },
    {
      "midi": 60,
      "hit": false,
      "t": 266841.87400000147,
      "d": 466.69367447920376,
      "v": 75
    },
    {
      "midi": 60,
      "hit": false,
      "t": 267631.3470000015,
      "d": 446.13448177085957,
      "v": 76
    },
    {
      "midi": 63,
      "hit": false,
      "t": 267631.3470000015,
      "d": 454.3581588541856,
      "v": 73
    },
    {
      "midi": 55,
      "hit": false,
      "t": 267631.3470000015,
      "d": 481.0851093750098,
      "v": 74
    },
    {
      "midi": 56,
      "hit": false,
      "t": 268418.7640807307,
      "d": 526.3153333333321,
      "v": 75
    },
    {
      "midi": 63,
      "hit": false,
      "t": 268418.7640807307,
      "d": 550.9863645833102,
      "v": 75
    },
    {
      "midi": 60,
      "hit": false,
      "t": 268420.8200000015,
      "d": 479.0291901041637,
      "v": 75
    },
    {
      "midi": 63,
      "hit": false,
      "t": 269210.29300000146,
      "d": 462.58183593751164,
      "v": 66
    },
    {
      "midi": 56,
      "hit": false,
      "t": 269210.29300000146,
      "d": 472.86143229168374,
      "v": 68
    },
    {
      "midi": 60,
      "hit": false,
      "t": 269210.29300000146,
      "d": 491.3647057291819,
      "v": 71
    },
    {
      "midi": 63,
      "hit": false,
      "t": 269997.71008073067,
      "d": 398.8483385416912,
      "v": 69
    },
    {
      "midi": 56,
      "hit": false,
      "t": 269997.71008073067,
      "d": 417.35161197918933,
      "v": 68
    },
    {
      "midi": 60,
      "hit": false,
      "t": 269999.7660000015,
      "d": 413.2397734374972,
      "v": 66
    },
    {
      "midi": 63,
      "hit": false,
      "t": 270787.18308073067,
      "d": 548.9304453125224,
      "v": 68
    },
    {
      "midi": 56,
      "hit": false,
      "t": 270787.18308073067,
      "d": 602.3843463541707,
      "v": 71
    },
    {
      "midi": 60,
      "hit": false,
      "t": 270787.18308073067,
      "d": 624.999458333361,
      "v": 75
    },
    {
      "midi": 58,
      "hit": false,
      "t": 271576.6560807307,
      "d": 555.0982031250023,
      "v": 79
    },
    {
      "midi": 63,
      "hit": false,
      "t": 271576.6560807307,
      "d": 561.2659609374823,
      "v": 79
    },
    {
      "midi": 55,
      "hit": false,
      "t": 271576.6560807307,
      "d": 579.7692343749804,
      "v": 79
    },
    {
      "midi": 55,
      "hit": false,
      "t": 272368.1850000015,
      "d": 561.2659609374823,
      "v": 75
    },
    {
      "midi": 58,
      "hit": false,
      "t": 272368.1850000015,
      "d": 563.3218802083284,
      "v": 73
    },
    {
      "midi": 63,
      "hit": false,
      "t": 272368.1850000015,
      "d": 567.4337187500205,
      "v": 84
    },
    {
      "midi": 63,
      "hit": false,
      "t": 273155.6020807307,
      "d": 548.9304453125224,
      "v": 78
    },
    {
      "midi": 58,
      "hit": false,
      "t": 273155.6020807307,
      "d": 550.9863645833684,
      "v": 75
    },
    {
      "midi": 55,
      "hit": false,
      "t": 273155.6020807307,
      "d": 553.0422838542145,
      "v": 74
    },
    {
      "midi": 63,
      "hit": false,
      "t": 273945.0750807308,
      "d": 559.2100416666945,
      "v": 84
    },
    {
      "midi": 58,
      "hit": false,
      "t": 273945.0750807308,
      "d": 594.1606692708447,
      "v": 69
    },
    {
      "midi": 55,
      "hit": false,
      "t": 273945.0750807308,
      "d": 614.7198619791889,
      "v": 76
    },
    {
      "midi": 60,
      "hit": false,
      "t": 274734.5480807308,
      "d": 569.4896380208083,
      "v": 71
    },
    {
      "midi": 56,
      "hit": false,
      "t": 274734.5480807308,
      "d": 573.6014765625005,
      "v": 69
    },
    {
      "midi": 63,
      "hit": false,
      "t": 274734.5480807308,
      "d": 573.6014765625005,
      "v": 70
    },
    {
      "midi": 63,
      "hit": false,
      "t": 275524.0210807308,
      "d": 548.9304453125224,
      "v": 73
    },
    {
      "midi": 60,
      "hit": false,
      "t": 275524.0210807308,
      "d": 565.3777994791744,
      "v": 68
    },
    {
      "midi": 56,
      "hit": false,
      "t": 275524.0210807308,
      "d": 575.6573958333465,
      "v": 73
    },
    {
      "midi": 63,
      "hit": false,
      "t": 276313.4940807308,
      "d": 550.9863645833684,
      "v": 73
    },
    {
      "midi": 60,
      "hit": false,
      "t": 276313.4940807308,
      "d": 583.8810729167308,
      "v": 76
    },
    {
      "midi": 55,
      "hit": false,
      "t": 276315.5500000016,
      "d": 569.4896380208666,
      "v": 82
    },
    {
      "midi": 55,
      "hit": false,
      "t": 277105.0230000017,
      "d": 596.2165885416907,
      "v": 80
    },
    {
      "midi": 63,
      "hit": false,
      "t": 277105.0230000017,
      "d": 604.4402656250168,
      "v": 73
    },
    {
      "midi": 60,
      "hit": false,
      "t": 277105.0230000017,
      "d": 612.6639427083428,
      "v": 74
    },
    {
      "midi": 55,
      "hit": false,
      "t": 277894.4960000017,
      "d": 516.03573697916,
      "v": 79
    },
    {
      "midi": 63,
      "hit": false,
      "t": 277894.4960000017,
      "d": 522.20349479164,
      "v": 75
    },
    {
      "midi": 60,
      "hit": false,
      "t": 277894.4960000017,
      "d": 526.3153333333321,
      "v": 76
    },
    {
      "midi": 63,
      "hit": false,
      "t": 278681.9130807308,
      "d": 522.20349479164,
      "v": 84
    },
    {
      "midi": 55,
      "hit": false,
      "t": 278681.9130807308,
      "d": 534.5390104166581,
      "v": 83
    },
    {
      "midi": 60,
      "hit": false,
      "t": 278681.9130807308,
      "d": 571.5455572916544,
      "v": 75
    },
    {
      "midi": 55,
      "hit": false,
      "t": 279473.44200000167,
      "d": 429.6871276041493,
      "v": 76
    },
    {
      "midi": 63,
      "hit": false,
      "t": 279473.44200000167,
      "d": 433.7989661458414,
      "v": 76
    },
    {
      "midi": 60,
      "hit": false,
      "t": 279473.44200000167,
      "d": 466.69367447920376,
      "v": 75
    },
    {
      "midi": 60,
      "hit": false,
      "t": 280262.9150000017,
      "d": 446.13448177085957,
      "v": 76
    },
    {
      "midi": 63,
      "hit": false,
      "t": 280262.9150000017,
      "d": 454.3581588541856,
      "v": 73
    },
    {
      "midi": 55,
      "hit": false,
      "t": 280262.9150000017,
      "d": 481.0851093750098,
      "v": 74
    },
    {
      "midi": 56,
      "hit": false,
      "t": 281050.3320807309,
      "d": 526.3153333333321,
      "v": 75
    },
    {
      "midi": 63,
      "hit": false,
      "t": 281050.3320807309,
      "d": 550.9863645833102,
      "v": 75
    },
    {
      "midi": 60,
      "hit": false,
      "t": 281052.3880000017,
      "d": 479.0291901041637,
      "v": 75
    },
    {
      "midi": 63,
      "hit": false,
      "t": 281841.86100000166,
      "d": 462.58183593751164,
      "v": 66
    },
    {
      "midi": 56,
      "hit": false,
      "t": 281841.86100000166,
      "d": 472.86143229168374,
      "v": 68
    },
    {
      "midi": 60,
      "hit": false,
      "t": 281841.86100000166,
      "d": 491.3647057291819,
      "v": 71
    },
    {
      "midi": 63,
      "hit": false,
      "t": 282629.2780807309,
      "d": 398.8483385416912,
      "v": 69
    },
    {
      "midi": 56,
      "hit": false,
      "t": 282629.2780807309,
      "d": 417.35161197918933,
      "v": 68
    },
    {
      "midi": 60,
      "hit": false,
      "t": 282631.3340000017,
      "d": 413.2397734374972,
      "v": 66
    },
    {
      "midi": 63,
      "hit": false,
      "t": 283418.7510807309,
      "d": 548.9304453125224,
      "v": 68
    },
    {
      "midi": 56,
      "hit": false,
      "t": 283418.7510807309,
      "d": 602.3843463541707,
      "v": 71
    },
    {
      "midi": 60,
      "hit": false,
      "t": 283418.7510807309,
      "d": 624.999458333361,
      "v": 75
    },
    {
      "midi": 58,
      "hit": false,
      "t": 284208.2240807309,
      "d": 555.0982031250023,
      "v": 79
    },
    {
      "midi": 63,
      "hit": false,
      "t": 284208.2240807309,
      "d": 561.2659609374823,
      "v": 79
    },
    {
      "midi": 55,
      "hit": false,
      "t": 284208.2240807309,
      "d": 579.7692343749804,
      "v": 79
    },
    {
      "midi": 55,
      "hit": false,
      "t": 284999.7530000017,
      "d": 561.2659609374823,
      "v": 75
    },
    {
      "midi": 58,
      "hit": false,
      "t": 284999.7530000017,
      "d": 563.3218802083284,
      "v": 73
    },
    {
      "midi": 63,
      "hit": false,
      "t": 284999.7530000017,
      "d": 567.4337187500205,
      "v": 84
    },
    {
      "midi": 63,
      "hit": false,
      "t": 285787.1700807309,
      "d": 548.9304453125224,
      "v": 78
    },
    {
      "midi": 58,
      "hit": false,
      "t": 285787.1700807309,
      "d": 550.9863645833684,
      "v": 75
    },
    {
      "midi": 55,
      "hit": false,
      "t": 285787.1700807309,
      "d": 553.0422838542145,
      "v": 74
    },
    {
      "midi": 63,
      "hit": false,
      "t": 286576.643080731,
      "d": 559.2100416666945,
      "v": 84
    },
    {
      "midi": 58,
      "hit": false,
      "t": 286576.643080731,
      "d": 594.1606692708447,
      "v": 69
    },
    {
      "midi": 55,
      "hit": false,
      "t": 286576.643080731,
      "d": 614.7198619791889,
      "v": 76
    },
    {
      "midi": 60,
      "hit": false,
      "t": 287366.116080731,
      "d": 569.4896380208083,
      "v": 71
    },
    {
      "midi": 56,
      "hit": false,
      "t": 287366.116080731,
      "d": 573.6014765625005,
      "v": 69
    },
    {
      "midi": 63,
      "hit": false,
      "t": 287366.116080731,
      "d": 573.6014765625005,
      "v": 70
    },
    {
      "midi": 63,
      "hit": false,
      "t": 288155.589080731,
      "d": 548.9304453125224,
      "v": 73
    },
    {
      "midi": 60,
      "hit": false,
      "t": 288155.589080731,
      "d": 565.3777994791744,
      "v": 68
    },
    {
      "midi": 56,
      "hit": false,
      "t": 288155.589080731,
      "d": 575.6573958333465,
      "v": 73
    },
    {
      "midi": 63,
      "hit": false,
      "t": 288945.062080731,
      "d": 550.9863645833684,
      "v": 73
    },
    {
      "midi": 60,
      "hit": false,
      "t": 288945.062080731,
      "d": 583.8810729167308,
      "v": 76
    },
    {
      "midi": 55,
      "hit": false,
      "t": 288947.1180000018,
      "d": 569.4896380208666,
      "v": 82
    },
    {
      "midi": 55,
      "hit": false,
      "t": 289736.5910000019,
      "d": 596.2165885416907,
      "v": 80
    },
    {
      "midi": 63,
      "hit": false,
      "t": 289736.5910000019,
      "d": 604.4402656250168,
      "v": 73
    },
    {
      "midi": 60,
      "hit": false,
      "t": 289736.5910000019,
      "d": 612.6639427083428,
      "v": 74
    },
    {
      "midi": 60,
      "hit": false,
      "t": 290577.46198177274,
      "d": 326.8911640625447,
      "v": 74
    },
    {
      "midi": 55,
      "hit": false,
      "t": 290900.2413072936,
      "d": 353.6181145833689,
      "v": 76
    },
    {
      "midi": 60,
      "hit": false,
      "t": 291278.53045312694,
      "d": 374.17730729165487,
      "v": 71
    },
    {
      "midi": 55,
      "hit": false,
      "t": 291669.15511458524,
      "d": 380.34506510419305,
      "v": 74
    },
    {
      "midi": 60,
      "hit": false,
      "t": 292193.4145286478,
      "d": 431.74304687499534,
      "v": 70
    },
    {
      "midi": 55,
      "hit": false,
      "t": 292682.7233151061,
      "d": 417.3516119791311,
      "v": 72
    },
    {
      "midi": 60,
      "hit": false,
      "t": 293085.68349218945,
      "d": 462.58183593745343,
      "v": 69
    },
    {
      "midi": 55,
      "hit": false,
      "t": 293577.0481979186,
      "d": 427.6312083333614,
      "v": 70
    },
    {
      "midi": 60,
      "hit": false,
      "t": 294062.2451458353,
      "d": 396.79241927084513,
      "v": 63
    },
    {
      "midi": 55,
      "hit": false,
      "t": 294477.5408385436,
      "d": 386.51282291667303,
      "v": 66
    },
    {
      "midi": 60,
      "hit": false,
      "t": 294944.23451302276,
      "d": 550.9863645833102,
      "v": 66
    },
    {
      "midi": 55,
      "hit": false,
      "t": 295561.01029427274,
      "d": 705.1803098958335,
      "v": 74
    },
    {
      "midi": 24,
      "hit": false,
      "t": 296241.5195729186,
      "d": 5304.271718749951,
      "v": 70
    }
  ]
}