{
  "jsonPath": "Rock/Country Rock/Ronnie Milsap/happy-happy-birthday-baby.json",
  "path": "Rock\\Country Rock\\Ronnie Milsap\\Happy_ Happy Birthday Baby.mid",
  "name": "Happy_ Happy Birthday Baby",
  "difficulty": "Advanced",
  "bpm": 65.00013541694878,
  "notes": [
    {
      "midi": 71,
      "hit": false,
      "t": 3374.9929687500003,
      "d": 144.23046875,
      "v": 90
    },
    {
      "midi": 75,
      "hit": false,
      "t": 3374.9929687500003,
      "d": 144.23046875,
      "v": 70
    },
    {
      "midi": 72,
      "hit": false,
      "t": 3538.454166666667,
      "d": 182.6919270833332,
      "v": 90
    },
    {
      "midi": 75,
      "hit": false,
      "t": 3538.454166666667,
      "d": 182.6919270833332,
      "v": 70
    },
    {
      "midi": 41,
      "hit": false,
      "t": 3692.3,
      "d": 1673.0734375000002,
      "v": 66
    },
    {
      "midi": 65,
      "hit": false,
      "t": 3692.3,
      "d": 1846.1500000000005,
      "v": 85
    },
    {
      "midi": 68,
      "hit": false,
      "t": 3692.3,
      "d": 1846.1500000000005,
      "v": 85
    },
    {
      "midi": 80,
      "hit": false,
      "t": 3749.9921875,
      "d": 519.2296875000002,
      "v": 90
    },
    {
      "midi": 84,
      "hit": false,
      "t": 3749.9921875,
      "d": 519.2296875000002,
      "v": 70
    },
    {
      "midi": 71,
      "hit": false,
      "t": 4451.913802083333,
      "d": 461.53750000000036,
      "v": 90
    },
    {
      "midi": 75,
      "hit": false,
      "t": 4451.913802083333,
      "d": 461.53750000000036,
      "v": 70
    },
    {
      "midi": 53,
      "hit": false,
      "t": 4615.375,
      "d": 923.0750000000007,
      "v": 43
    },
    {
      "midi": 56,
      "hit": false,
      "t": 4615.375,
      "d": 923.0750000000007,
      "v": 64
    },
    {
      "midi": 60,
      "hit": false,
      "t": 4615.375,
      "d": 923.0750000000007,
      "v": 56
    },
    {
      "midi": 63,
      "hit": false,
      "t": 4615.375,
      "d": 923.0750000000007,
      "v": 57
    },
    {
      "midi": 72,
      "hit": false,
      "t": 4980.758854166667,
      "d": 519.2296875000002,
      "v": 90
    },
    {
      "midi": 75,
      "hit": false,
      "t": 4980.758854166667,
      "d": 519.2296875000002,
      "v": 70
    },
    {
      "midi": 41,
      "hit": false,
      "t": 5538.450000000001,
      "d": 923.0749999999998,
      "v": 48
    },
    {
      "midi": 60,
      "hit": false,
      "t": 5538.450000000001,
      "d": 923.0749999999998,
      "v": 80
    },
    {
      "midi": 63,
      "hit": false,
      "t": 5538.450000000001,
      "d": 923.0749999999998,
      "v": 80
    },
    {
      "midi": 65,
      "hit": false,
      "t": 5538.450000000001,
      "d": 923.0749999999998,
      "v": 80
    },
    {
      "midi": 68,
      "hit": false,
      "t": 5538.450000000001,
      "d": 923.0749999999998,
      "v": 80
    },
    {
      "midi": 75,
      "hit": false,
      "t": 5596.142187500001,
      "d": 778.8445312499998,
      "v": 90
    },
    {
      "midi": 80,
      "hit": false,
      "t": 5596.142187500001,
      "d": 778.8445312499998,
      "v": 70
    },
    {
      "midi": 46,
      "hit": false,
      "t": 6461.525000000001,
      "d": 923.0749999999998,
      "v": 66
    },
    {
      "midi": 56,
      "hit": false,
      "t": 6461.525000000001,
      "d": 923.0749999999998,
      "v": 80
    },
    {
      "midi": 58,
      "hit": false,
      "t": 6461.525000000001,
      "d": 923.0749999999998,
      "v": 80
    },
    {
      "midi": 62,
      "hit": false,
      "t": 6461.525000000001,
      "d": 923.0749999999998,
      "v": 80
    },
    {
      "midi": 65,
      "hit": false,
      "t": 6461.525000000001,
      "d": 923.0749999999998,
      "v": 80
    },
    {
      "midi": 77,
      "hit": false,
      "t": 6519.2171875,
      "d": 778.8445312499998,
      "v": 90
    },
    {
      "midi": 80,
      "hit": false,
      "t": 6519.2171875,
      "d": 778.8445312499998,
      "v": 70
    },
    {
      "midi": 82,
      "hit": false,
      "t": 7384.6,
      "d": 307.6916666666666,
      "v": 85
    },
    {
      "midi": 87,
      "hit": false,
      "t": 7384.6,
      "d": 1230.7666666666664,
      "v": 85
    },
    {
      "midi": 39,
      "hit": false,
      "t": 7384.6,
      "d": 1769.2270833333332,
      "v": 59
    },
    {
      "midi": 67,
      "hit": false,
      "t": 7384.6,
      "d": 3692.2999999999975,
      "v": 56
    },
    {
      "midi": 75,
      "hit": false,
      "t": 7442.2921875,
      "d": 2346.148958333334,
      "v": 90
    },
    {
      "midi": 79,
      "hit": false,
      "t": 7442.2921875,
      "d": 2346.148958333334,
      "v": 70
    },
    {
      "midi": 84,
      "hit": false,
      "t": 7692.291666666667,
      "d": 807.6906250000002,
      "v": 66
    },
    {
      "midi": 82,
      "hit": false,
      "t": 8307.675000000001,
      "d": 307.6916666666657,
      "v": 76
    },
    {
      "midi": 55,
      "hit": false,
      "t": 8307.675000000001,
      "d": 1173.0744791666657,
      "v": 45
    },
    {
      "midi": 63,
      "hit": false,
      "t": 8307.675000000001,
      "d": 1423.0739583333325,
      "v": 65
    },
    {
      "midi": 58,
      "hit": false,
      "t": 8307.675000000001,
      "d": 1461.5354166666657,
      "v": 65
    },
    {
      "midi": 77,
      "hit": false,
      "t": 9230.75,
      "d": 307.6916666666675,
      "v": 89
    },
    {
      "midi": 82,
      "hit": false,
      "t": 9230.75,
      "d": 653.8447916666664,
      "v": 80
    },
    {
      "midi": 51,
      "hit": false,
      "t": 9230.75,
      "d": 1192.3052083333314,
      "v": 49
    },
    {
      "midi": 79,
      "hit": false,
      "t": 9538.441666666668,
      "d": 346.1531249999989,
      "v": 82
    },
    {
      "midi": 55,
      "hit": false,
      "t": 9846.133333333333,
      "d": 807.6906249999975,
      "v": 27
    },
    {
      "midi": 79,
      "hit": false,
      "t": 10153.824999999999,
      "d": 384.6145833333321,
      "v": 89
    },
    {
      "midi": 63,
      "hit": false,
      "t": 10153.824999999999,
      "d": 538.460416666665,
      "v": 56
    },
    {
      "midi": 58,
      "hit": false,
      "t": 10153.824999999999,
      "d": 576.9218749999982,
      "v": 68
    },
    {
      "midi": 82,
      "hit": false,
      "t": 10153.824999999999,
      "d": 923.0749999999989,
      "v": 87
    },
    {
      "midi": 77,
      "hit": false,
      "t": 10461.516666666665,
      "d": 326.9223958333332,
      "v": 58
    },
    {
      "midi": 75,
      "hit": false,
      "t": 10769.20833333333,
      "d": 307.6916666666675,
      "v": 76
    },
    {
      "midi": 67,
      "hit": false,
      "t": 11076.899999999998,
      "d": 2346.1489583333314,
      "v": 80
    },
    {
      "midi": 79,
      "hit": false,
      "t": 11134.5921875,
      "d": 384.61458333333394,
      "v": 90
    },
    {
      "midi": 82,
      "hit": false,
      "t": 11134.5921875,
      "d": 384.61458333333394,
      "v": 70
    },
    {
      "midi": 39,
      "hit": false,
      "t": 11153.822916666664,
      "d": 3298.0700520833307,
      "v": 53
    },
    {
      "midi": 70,
      "hit": false,
      "t": 11682.667968750002,
      "d": 317.30703125000036,
      "v": 90
    },
    {
      "midi": 75,
      "hit": false,
      "t": 11682.667968750002,
      "d": 317.30703125000036,
      "v": 70
    },
    {
      "midi": 55,
      "hit": false,
      "t": 11701.898697916664,
      "d": 682.6908854166668,
      "v": 43
    },
    {
      "midi": 58,
      "hit": false,
      "t": 11961.513541666664,
      "d": 1461.5354166666657,
      "v": 69
    },
    {
      "midi": 63,
      "hit": false,
      "t": 11990.359635416664,
      "d": 1394.2278645833321,
      "v": 52
    },
    {
      "midi": 55,
      "hit": false,
      "t": 12615.35833333333,
      "d": 374.9992187499993,
      "v": 57
    },
    {
      "midi": 51,
      "hit": false,
      "t": 12951.896093749996,
      "d": 1317.3049479166657,
      "v": 65
    },
    {
      "midi": 55,
      "hit": false,
      "t": 13548.048697916662,
      "d": 644.2294270833336,
      "v": 37
    },
    {
      "midi": 58,
      "hit": false,
      "t": 13826.894270833329,
      "d": 942.3057291666664,
      "v": 73
    },
    {
      "midi": 63,
      "hit": false,
      "t": 13874.971093749995,
      "d": 894.2289062500004,
      "v": 63
    },
    {
      "midi": 55,
      "hit": false,
      "t": 14451.892968749995,
      "d": 317.30703125000036,
      "v": 49
    },
    {
      "midi": 58,
      "hit": false,
      "t": 14769.199999999995,
      "d": 278.84557291666715,
      "v": 85
    },
    {
      "midi": 60,
      "hit": false,
      "t": 14769.199999999995,
      "d": 278.84557291666715,
      "v": 85
    },
    {
      "midi": 64,
      "hit": false,
      "t": 14769.199999999995,
      "d": 278.84557291666715,
      "v": 85
    },
    {
      "midi": 67,
      "hit": false,
      "t": 14769.199999999995,
      "d": 278.84557291666715,
      "v": 85
    },
    {
      "midi": 48,
      "hit": false,
      "t": 14769.199999999995,
      "d": 1682.6888020833376,
      "v": 66
    },
    {
      "midi": 72,
      "hit": false,
      "t": 14826.892187500001,
      "d": 519.2296874999993,
      "v": 90
    },
    {
      "midi": 76,
      "hit": false,
      "t": 14826.892187500001,
      "d": 519.2296874999993,
      "v": 70
    },
    {
      "midi": 60,
      "hit": false,
      "t": 15076.891666666663,
      "d": 249.9994791666668,
      "v": 80
    },
    {
      "midi": 65,
      "hit": false,
      "t": 15076.891666666663,
      "d": 249.9994791666668,
      "v": 80
    },
    {
      "midi": 69,
      "hit": false,
      "t": 15076.891666666663,
      "d": 249.9994791666668,
      "v": 80
    },
    {
      "midi": 67,
      "hit": false,
      "t": 15384.58333333333,
      "d": 2749.9942708333347,
      "v": 82
    },
    {
      "midi": 76,
      "hit": false,
      "t": 15528.813802083334,
      "d": 461.53750000000036,
      "v": 90
    },
    {
      "midi": 82,
      "hit": false,
      "t": 15528.813802083334,
      "d": 461.53750000000036,
      "v": 70
    },
    {
      "midi": 55,
      "hit": false,
      "t": 15692.274999999998,
      "d": 1153.84375,
      "v": 43
    },
    {
      "midi": 60,
      "hit": false,
      "t": 15692.274999999998,
      "d": 1336.535677083335,
      "v": 56
    },
    {
      "midi": 58,
      "hit": false,
      "t": 15692.274999999998,
      "d": 1384.612500000003,
      "v": 64
    },
    {
      "midi": 64,
      "hit": false,
      "t": 15692.274999999998,
      "d": 1384.612500000003,
      "v": 57
    },
    {
      "midi": 79,
      "hit": false,
      "t": 16057.658854166668,
      "d": 519.2296874999993,
      "v": 90
    },
    {
      "midi": 82,
      "hit": false,
      "t": 16057.658854166668,
      "d": 519.2296874999993,
      "v": 70
    },
    {
      "midi": 52,
      "hit": false,
      "t": 16615.35,
      "d": 1673.0734374999993,
      "v": 68
    },
    {
      "midi": 84,
      "hit": false,
      "t": 16673.0421875,
      "d": 519.2296874999993,
      "v": 90
    },
    {
      "midi": 88,
      "hit": false,
      "t": 16673.0421875,
      "d": 519.2296874999993,
      "v": 70
    },
    {
      "midi": 55,
      "hit": false,
      "t": 17230.733333333334,
      "d": 1230.7666666666628,
      "v": 50
    },
    {
      "midi": 82,
      "hit": false,
      "t": 17374.963802083334,
      "d": 461.53749999999854,
      "v": 90
    },
    {
      "midi": 88,
      "hit": false,
      "t": 17374.963802083334,
      "d": 461.53749999999854,
      "v": 70
    },
    {
      "midi": 58,
      "hit": false,
      "t": 17538.425,
      "d": 596.1526041666657,
      "v": 75
    },
    {
      "midi": 79,
      "hit": false,
      "t": 17903.808854166666,
      "d": 519.2296874999993,
      "v": 90
    },
    {
      "midi": 82,
      "hit": false,
      "t": 17903.808854166666,
      "d": 519.2296874999993,
      "v": 70
    },
    {
      "midi": 60,
      "hit": false,
      "t": 18153.80833333333,
      "d": 307.6916666666657,
      "v": 67
    },
    {
      "midi": 64,
      "hit": false,
      "t": 18153.80833333333,
      "d": 307.6916666666657,
      "v": 73
    },
    {
      "midi": 41,
      "hit": false,
      "t": 18461.499999999996,
      "d": 1682.6888020833358,
      "v": 66
    },
    {
      "midi": 80,
      "hit": false,
      "t": 18519.192187499997,
      "d": 384.6145833333321,
      "v": 90
    },
    {
      "midi": 84,
      "hit": false,
      "t": 18519.192187499997,
      "d": 384.6145833333321,
      "v": 70
    },
    {
      "midi": 84,
      "hit": false,
      "t": 19067.267968749995,
      "d": 2807.6864583333336,
      "v": 90
    },
    {
      "midi": 89,
      "hit": false,
      "t": 19067.267968749995,
      "d": 2807.6864583333336,
      "v": 70
    },
    {
      "midi": 56,
      "hit": false,
      "t": 19384.574999999997,
      "d": 1153.84375,
      "v": 43
    },
    {
      "midi": 65,
      "hit": false,
      "t": 19384.574999999997,
      "d": 1336.535677083335,
      "v": 57
    },
    {
      "midi": 60,
      "hit": false,
      "t": 19384.574999999997,
      "d": 1384.612500000003,
      "v": 64
    },
    {
      "midi": 53,
      "hit": false,
      "t": 20307.649999999998,
      "d": 1673.0734374999993,
      "v": 68
    },
    {
      "midi": 56,
      "hit": false,
      "t": 20923.033333333333,
      "d": 846.1520833333307,
      "v": 50
    },
    {
      "midi": 60,
      "hit": false,
      "t": 21230.725,
      "d": 538.460416666665,
      "v": 75
    },
    {
      "midi": 56,
      "hit": false,
      "t": 22153.799999999996,
      "d": 624.9986979166679,
      "v": 74
    },
    {
      "midi": 65,
      "hit": false,
      "t": 22153.799999999996,
      "d": 663.4601562500029,
      "v": 74
    },
    {
      "midi": 60,
      "hit": false,
      "t": 22153.799999999996,
      "d": 682.6908854166686,
      "v": 74
    },
    {
      "midi": 41,
      "hit": false,
      "t": 22153.799999999996,
      "d": 1615.3812500000022,
      "v": 46
    },
    {
      "midi": 56,
      "hit": false,
      "t": 23076.874999999996,
      "d": 413.4606770833343,
      "v": 42
    },
    {
      "midi": 60,
      "hit": false,
      "t": 23076.874999999996,
      "d": 413.4606770833343,
      "v": 64
    },
    {
      "midi": 65,
      "hit": false,
      "t": 23076.874999999996,
      "d": 413.4606770833343,
      "v": 64
    },
    {
      "midi": 56,
      "hit": false,
      "t": 23999.949999999997,
      "d": 201.92265625000073,
      "v": 72
    },
    {
      "midi": 60,
      "hit": false,
      "t": 23999.949999999997,
      "d": 201.92265625000073,
      "v": 72
    },
    {
      "midi": 65,
      "hit": false,
      "t": 23999.949999999997,
      "d": 201.92265625000073,
      "v": 72
    },
    {
      "midi": 53,
      "hit": false,
      "t": 23999.949999999997,
      "d": 1355.766406249997,
      "v": 65
    },
    {
      "midi": 65,
      "hit": false,
      "t": 24307.641666666663,
      "d": 153.84583333333285,
      "v": 76
    },
    {
      "midi": 58,
      "hit": false,
      "t": 24307.641666666663,
      "d": 163.4611979166657,
      "v": 76
    },
    {
      "midi": 62,
      "hit": false,
      "t": 24307.641666666663,
      "d": 163.4611979166657,
      "v": 76
    },
    {
      "midi": 56,
      "hit": false,
      "t": 24615.33333333333,
      "d": 788.4598958333336,
      "v": 89
    },
    {
      "midi": 60,
      "hit": false,
      "t": 24923.024999999994,
      "d": 480.7682291666679,
      "v": 75
    },
    {
      "midi": 65,
      "hit": false,
      "t": 24923.024999999994,
      "d": 480.7682291666679,
      "v": 49
    },
    {
      "midi": 84,
      "hit": false,
      "t": 24980.717187499995,
      "d": 778.8445312500007,
      "v": 90
    },
    {
      "midi": 89,
      "hit": false,
      "t": 24980.717187499995,
      "d": 778.8445312500007,
      "v": 70
    },
    {
      "midi": 46,
      "hit": false,
      "t": 25846.099999999995,
      "d": 1778.8424479166679,
      "v": 48
    },
    {
      "midi": 65,
      "hit": false,
      "t": 25846.099999999995,
      "d": 3307.685416666667,
      "v": 87
    },
    {
      "midi": 72,
      "hit": false,
      "t": 25903.792187499996,
      "d": 384.6145833333321,
      "v": 90
    },
    {
      "midi": 75,
      "hit": false,
      "t": 25903.792187499996,
      "d": 384.6145833333321,
      "v": 70
    },
    {
      "midi": 74,
      "hit": false,
      "t": 26451.867968749993,
      "d": 2807.6864583333336,
      "v": 90
    },
    {
      "midi": 77,
      "hit": false,
      "t": 26451.867968749993,
      "d": 2807.6864583333336,
      "v": 70
    },
    {
      "midi": 53,
      "hit": false,
      "t": 26769.174999999996,
      "d": 1182.6898437500022,
      "v": 51
    },
    {
      "midi": 58,
      "hit": false,
      "t": 26769.174999999996,
      "d": 1384.612500000003,
      "v": 66
    },
    {
      "midi": 62,
      "hit": false,
      "t": 26769.174999999996,
      "d": 1384.612500000003,
      "v": 62
    },
    {
      "midi": 50,
      "hit": false,
      "t": 27692.249999999996,
      "d": 1682.6888020833321,
      "v": 18
    },
    {
      "midi": 58,
      "hit": false,
      "t": 28615.324999999997,
      "d": 538.460416666665,
      "v": 70
    },
    {
      "midi": 53,
      "hit": false,
      "t": 29538.399999999994,
      "d": 653.8447916666664,
      "v": 74
    },
    {
      "midi": 62,
      "hit": false,
      "t": 29538.399999999994,
      "d": 653.8447916666664,
      "v": 74
    },
    {
      "midi": 58,
      "hit": false,
      "t": 29538.399999999994,
      "d": 711.5369791666672,
      "v": 74
    },
    {
      "midi": 46,
      "hit": false,
      "t": 29538.399999999994,
      "d": 1701.9195312500015,
      "v": 44
    },
    {
      "midi": 70,
      "hit": false,
      "t": 29596.092187499995,
      "d": 519.2296874999993,
      "v": 90
    },
    {
      "midi": 74,
      "hit": false,
      "t": 29596.092187499995,
      "d": 519.2296874999993,
      "v": 70
    },
    {
      "midi": 74,
      "hit": false,
      "t": 30298.01380208333,
      "d": 461.53749999999854,
      "v": 90
    },
    {
      "midi": 77,
      "hit": false,
      "t": 30298.01380208333,
      "d": 461.53749999999854,
      "v": 70
    },
    {
      "midi": 53,
      "hit": false,
      "t": 30461.474999999995,
      "d": 413.4606770833343,
      "v": 48
    },
    {
      "midi": 58,
      "hit": false,
      "t": 30461.474999999995,
      "d": 413.4606770833343,
      "v": 75
    },
    {
      "midi": 62,
      "hit": false,
      "t": 30461.474999999995,
      "d": 413.4606770833343,
      "v": 56
    },
    {
      "midi": 77,
      "hit": false,
      "t": 30826.85885416666,
      "d": 519.2296874999993,
      "v": 90
    },
    {
      "midi": 82,
      "hit": false,
      "t": 30826.85885416666,
      "d": 519.2296874999993,
      "v": 70
    },
    {
      "midi": 53,
      "hit": false,
      "t": 31384.549999999996,
      "d": 201.92265625000073,
      "v": 72
    },
    {
      "midi": 58,
      "hit": false,
      "t": 31384.549999999996,
      "d": 201.92265625000073,
      "v": 72
    },
    {
      "midi": 62,
      "hit": false,
      "t": 31384.549999999996,
      "d": 201.92265625000073,
      "v": 72
    },
    {
      "midi": 50,
      "hit": false,
      "t": 31384.549999999996,
      "d": 1423.0739583333343,
      "v": 65
    },
    {
      "midi": 87,
      "hit": false,
      "t": 31442.242187499993,
      "d": 519.2296874999993,
      "v": 90
    },
    {
      "midi": 91,
      "hit": false,
      "t": 31442.242187499993,
      "d": 519.2296874999993,
      "v": 70
    },
    {
      "midi": 58,
      "hit": false,
      "t": 31692.24166666666,
      "d": 124.9997395833343,
      "v": 76
    },
    {
      "midi": 55,
      "hit": false,
      "t": 31692.24166666666,
      "d": 163.46119791666933,
      "v": 76
    },
    {
      "midi": 63,
      "hit": false,
      "t": 31692.24166666666,
      "d": 163.46119791666933,
      "v": 76
    },
    {
      "midi": 86,
      "hit": false,
      "t": 32144.163802083327,
      "d": 461.53749999999854,
      "v": 90
    },
    {
      "midi": 89,
      "hit": false,
      "t": 32144.163802083327,
      "d": 461.53749999999854,
      "v": 70
    },
    {
      "midi": 53,
      "hit": false,
      "t": 32307.624999999996,
      "d": 480.7682291666679,
      "v": 63
    },
    {
      "midi": 58,
      "hit": false,
      "t": 32307.624999999996,
      "d": 480.7682291666679,
      "v": 57
    },
    {
      "midi": 62,
      "hit": false,
      "t": 32307.624999999996,
      "d": 480.7682291666679,
      "v": 36
    },
    {
      "midi": 84,
      "hit": false,
      "t": 32673.00885416666,
      "d": 519.2296874999993,
      "v": 90
    },
    {
      "midi": 87,
      "hit": false,
      "t": 32673.00885416666,
      "d": 519.2296874999993,
      "v": 70
    },
    {
      "midi": 55,
      "hit": false,
      "t": 33230.7,
      "d": 278.84557291666715,
      "v": 85
    },
    {
      "midi": 58,
      "hit": false,
      "t": 33230.7,
      "d": 278.84557291666715,
      "v": 85
    },
    {
      "midi": 63,
      "hit": false,
      "t": 33230.7,
      "d": 278.84557291666715,
      "v": 85
    },
    {
      "midi": 39,
      "hit": false,
      "t": 33230.7,
      "d": 1682.6888020833285,
      "v": 66
    },
    {
      "midi": 87,
      "hit": false,
      "t": 33288.392187499994,
      "d": 1759.6117187499985,
      "v": 70
    },
    {
      "midi": 82,
      "hit": false,
      "t": 33288.392187499994,
      "d": 3134.6088541666613,
      "v": 90
    },
    {
      "midi": 56,
      "hit": false,
      "t": 33538.39166666666,
      "d": 249.9994791666686,
      "v": 80
    },
    {
      "midi": 60,
      "hit": false,
      "t": 33538.39166666666,
      "d": 249.9994791666686,
      "v": 80
    },
    {
      "midi": 63,
      "hit": false,
      "t": 33538.39166666666,
      "d": 249.9994791666686,
      "v": 80
    },
    {
      "midi": 55,
      "hit": false,
      "t": 34153.774999999994,
      "d": 923.0749999999971,
      "v": 43
    },
    {
      "midi": 58,
      "hit": false,
      "t": 34153.774999999994,
      "d": 923.0749999999971,
      "v": 64
    },
    {
      "midi": 63,
      "hit": false,
      "t": 34153.774999999994,
      "d": 923.0749999999971,
      "v": 57
    },
    {
      "midi": 46,
      "hit": false,
      "t": 35076.84999999999,
      "d": 1778.8424479166642,
      "v": 48
    },
    {
      "midi": 64,
      "hit": false,
      "t": 35076.84999999999,
      "d": 1846.1499999999942,
      "v": 85
    },
    {
      "midi": 67,
      "hit": false,
      "t": 35076.84999999999,
      "d": 1846.1499999999942,
      "v": 85
    },
    {
      "midi": 70,
      "hit": false,
      "t": 35076.84999999999,
      "d": 1846.1499999999942,
      "v": 85
    },
    {
      "midi": 88,
      "hit": false,
      "t": 35086.465364583324,
      "d": 1336.5356770833314,
      "v": 70
    },
    {
      "midi": 52,
      "hit": false,
      "t": 35999.92499999999,
      "d": 923.0749999999971,
      "v": 51
    },
    {
      "midi": 55,
      "hit": false,
      "t": 35999.92499999999,
      "d": 923.0749999999971,
      "v": 66
    },
    {
      "midi": 61,
      "hit": false,
      "t": 35999.92499999999,
      "d": 923.0749999999971,
      "v": 62
    },
    {
      "midi": 41,
      "hit": false,
      "t": 36922.999999999985,
      "d": 1778.8424479166642,
      "v": 48
    },
    {
      "midi": 60,
      "hit": false,
      "t": 36922.999999999985,
      "d": 1846.1499999999942,
      "v": 85
    },
    {
      "midi": 65,
      "hit": false,
      "t": 36922.999999999985,
      "d": 1846.1499999999942,
      "v": 85
    },
    {
      "midi": 68,
      "hit": false,
      "t": 36922.999999999985,
      "d": 1846.1499999999942,
      "v": 85
    },
    {
      "midi": 53,
      "hit": false,
      "t": 37846.07499999998,
      "d": 923.0749999999971,
      "v": 51
    },
    {
      "midi": 56,
      "hit": false,
      "t": 37846.07499999998,
      "d": 923.0749999999971,
      "v": 66
    },
    {
      "midi": 63,
      "hit": false,
      "t": 37846.07499999998,
      "d": 923.0749999999971,
      "v": 62
    },
    {
      "midi": 62,
      "hit": false,
      "t": 38769.14999999998,
      "d": 278.84557291666715,
      "v": 85
    },
    {
      "midi": 65,
      "hit": false,
      "t": 38769.14999999998,
      "d": 278.84557291666715,
      "v": 85
    },
    {
      "midi": 68,
      "hit": false,
      "t": 38769.14999999998,
      "d": 278.84557291666715,
      "v": 85
    },
    {
      "midi": 70,
      "hit": false,
      "t": 38769.14999999998,
      "d": 278.84557291666715,
      "v": 85
    },
    {
      "midi": 46,
      "hit": false,
      "t": 38769.14999999998,
      "d": 1682.6888020833285,
      "v": 66
    },
    {
      "midi": 63,
      "hit": false,
      "t": 39076.841666666645,
      "d": 249.9994791666686,
      "v": 80
    },
    {
      "midi": 67,
      "hit": false,
      "t": 39076.841666666645,
      "d": 249.9994791666686,
      "v": 80
    },
    {
      "midi": 70,
      "hit": false,
      "t": 39076.841666666645,
      "d": 249.9994791666686,
      "v": 80
    },
    {
      "midi": 65,
      "hit": false,
      "t": 39384.53333333331,
      "d": 1230.7666666666628,
      "v": 82
    },
    {
      "midi": 68,
      "hit": false,
      "t": 39384.53333333331,
      "d": 1230.7666666666628,
      "v": 82
    },
    {
      "midi": 70,
      "hit": false,
      "t": 39384.53333333331,
      "d": 1230.7666666666628,
      "v": 82
    },
    {
      "midi": 53,
      "hit": false,
      "t": 39692.22499999998,
      "d": 923.0749999999971,
      "v": 43
    },
    {
      "midi": 56,
      "hit": false,
      "t": 39692.22499999998,
      "d": 923.0749999999971,
      "v": 64
    },
    {
      "midi": 58,
      "hit": false,
      "t": 39692.22499999998,
      "d": 923.0749999999971,
      "v": 56
    },
    {
      "midi": 62,
      "hit": false,
      "t": 39692.22499999998,
      "d": 923.0749999999971,
      "v": 57
    },
    {
      "midi": 39,
      "hit": false,
      "t": 40615.299999999974,
      "d": 2076.918749999997,
      "v": 53
    },
    {
      "midi": 79,
      "hit": false,
      "t": 40672.992187499985,
      "d": 384.61458333333576,
      "v": 90
    },
    {
      "midi": 82,
      "hit": false,
      "t": 40672.992187499985,
      "d": 384.61458333333576,
      "v": 70
    },
    {
      "midi": 70,
      "hit": false,
      "t": 41221.06796874999,
      "d": 2548.0716145833358,
      "v": 90
    },
    {
      "midi": 75,
      "hit": false,
      "t": 41221.06796874999,
      "d": 2548.0716145833358,
      "v": 70
    },
    {
      "midi": 55,
      "hit": false,
      "t": 41538.37499999997,
      "d": 1201.9205729166642,
      "v": 46
    },
    {
      "midi": 58,
      "hit": false,
      "t": 41538.37499999997,
      "d": 1230.7666666666628,
      "v": 67
    },
    {
      "midi": 63,
      "hit": false,
      "t": 41538.37499999997,
      "d": 1336.5356770833314,
      "v": 62
    },
    {
      "midi": 51,
      "hit": false,
      "t": 42461.44999999997,
      "d": 1134.613020833327,
      "v": 48
    },
    {
      "midi": 55,
      "hit": false,
      "t": 43076.8333333333,
      "d": 913.459635416657,
      "v": 78
    },
    {
      "midi": 63,
      "hit": false,
      "t": 43384.524999999965,
      "d": 557.691145833327,
      "v": 67
    },
    {
      "midi": 58,
      "hit": false,
      "t": 43384.524999999965,
      "d": 605.7679687499913,
      "v": 75
    },
    {
      "midi": 70,
      "hit": false,
      "t": 43990.29296874999,
      "d": 326.9223958333314,
      "v": 90
    },
    {
      "midi": 75,
      "hit": false,
      "t": 43990.29296874999,
      "d": 326.9223958333314,
      "v": 70
    },
    {
      "midi": 48,
      "hit": false,
      "t": 44307.599999999955,
      "d": 1769.2270833333314,
      "v": 59
    },
    {
      "midi": 60,
      "hit": false,
      "t": 44307.599999999955,
      "d": 2048.0726562499985,
      "v": 64
    },
    {
      "midi": 67,
      "hit": false,
      "t": 44307.599999999955,
      "d": 2086.53411458333,
      "v": 82
    },
    {
      "midi": 72,
      "hit": false,
      "t": 44365.29218749999,
      "d": 519.2296875000029,
      "v": 90
    },
    {
      "midi": 76,
      "hit": false,
      "t": 44365.29218749999,
      "d": 519.2296875000029,
      "v": 70
    },
    {
      "midi": 76,
      "hit": false,
      "t": 45067.21380208332,
      "d": 461.53749999999854,
      "v": 90
    },
    {
      "midi": 82,
      "hit": false,
      "t": 45067.21380208332,
      "d": 461.53749999999854,
      "v": 70
    },
    {
      "midi": 55,
      "hit": false,
      "t": 45230.67499999995,
      "d": 1115.3822916666686,
      "v": 45
    },
    {
      "midi": 64,
      "hit": false,
      "t": 45230.67499999995,
      "d": 1134.6130208333343,
      "v": 65
    },
    {
      "midi": 58,
      "hit": false,
      "t": 45230.67499999995,
      "d": 1144.2283854166672,
      "v": 65
    },
    {
      "midi": 79,
      "hit": false,
      "t": 45596.05885416665,
      "d": 519.2296875000029,
      "v": 90
    },
    {
      "midi": 82,
      "hit": false,
      "t": 45596.05885416665,
      "d": 519.2296875000029,
      "v": 70
    },
    {
      "midi": 52,
      "hit": false,
      "t": 46153.749999999956,
      "d": 1192.3052083333314,
      "v": 49
    },
    {
      "midi": 84,
      "hit": false,
      "t": 46211.44218749999,
      "d": 519.2296875000029,
      "v": 90
    },
    {
      "midi": 88,
      "hit": false,
      "t": 46211.44218749999,
      "d": 519.2296875000029,
      "v": 70
    },
    {
      "midi": 55,
      "hit": false,
      "t": 46769.13333333329,
      "d": 817.3059895833358,
      "v": 60
    },
    {
      "midi": 67,
      "hit": false,
      "t": 46769.13333333329,
      "d": 1230.7666666666628,
      "v": 85
    },
    {
      "midi": 82,
      "hit": false,
      "t": 46913.363802083324,
      "d": 461.53749999999854,
      "v": 90
    },
    {
      "midi": 88,
      "hit": false,
      "t": 46913.363802083324,
      "d": 461.53749999999854,
      "v": 70
    },
    {
      "midi": 60,
      "hit": false,
      "t": 47076.82499999995,
      "d": 538.4604166666686,
      "v": 56
    },
    {
      "midi": 58,
      "hit": false,
      "t": 47076.82499999995,
      "d": 576.921875,
      "v": 68
    },
    {
      "midi": 64,
      "hit": false,
      "t": 47076.82499999995,
      "d": 576.921875,
      "v": 62
    },
    {
      "midi": 79,
      "hit": false,
      "t": 47442.20885416665,
      "d": 519.2296875000029,
      "v": 90
    },
    {
      "midi": 82,
      "hit": false,
      "t": 47442.20885416665,
      "d": 519.2296875000029,
      "v": 70
    },
    {
      "midi": 41,
      "hit": false,
      "t": 47999.89999999995,
      "d": 1682.6888020833285,
      "v": 66
    },
    {
      "midi": 80,
      "hit": false,
      "t": 48057.59218749999,
      "d": 384.61458333333576,
      "v": 90
    },
    {
      "midi": 84,
      "hit": false,
      "t": 48057.59218749999,
      "d": 384.61458333333576,
      "v": 70
    },
    {
      "midi": 84,
      "hit": false,
      "t": 48605.66796874999,
      "d": 2807.68645833333,
      "v": 90
    },
    {
      "midi": 89,
      "hit": false,
      "t": 48605.66796874999,
      "d": 2807.68645833333,
      "v": 70
    },
    {
      "midi": 56,
      "hit": false,
      "t": 48922.97499999995,
      "d": 1153.84375,
      "v": 43
    },
    {
      "midi": 65,
      "hit": false,
      "t": 48922.97499999995,
      "d": 1336.5356770833314,
      "v": 57
    },
    {
      "midi": 60,
      "hit": false,
      "t": 48922.97499999995,
      "d": 1384.6124999999956,
      "v": 64
    },
    {
      "midi": 53,
      "hit": false,
      "t": 49846.049999999945,
      "d": 1673.0734374999956,
      "v": 68
    },
    {
      "midi": 56,
      "hit": false,
      "t": 50461.433333333276,
      "d": 1855.765364583327,
      "v": 50
    },
    {
      "midi": 60,
      "hit": false,
      "t": 50769.12499999994,
      "d": 1605.7658854166584,
      "v": 75
    },
    {
      "midi": 65,
      "hit": false,
      "t": 51384.50833333327,
      "d": 971.1518229166613,
      "v": 73
    },
    {
      "midi": 41,
      "hit": false,
      "t": 51692.19999999994,
      "d": 1615.3812499999985,
      "v": 46
    },
    {
      "midi": 56,
      "hit": false,
      "t": 52615.274999999936,
      "d": 1153.8437500000073,
      "v": 42
    },
    {
      "midi": 60,
      "hit": false,
      "t": 52615.274999999936,
      "d": 1384.6125000000102,
      "v": 64
    },
    {
      "midi": 65,
      "hit": false,
      "t": 52615.274999999936,
      "d": 1384.6125000000102,
      "v": 64
    },
    {
      "midi": 53,
      "hit": false,
      "t": 53538.34999999994,
      "d": 1355.7664062500044,
      "v": 65
    },
    {
      "midi": 84,
      "hit": false,
      "t": 53596.04218749999,
      "d": 778.8445312499971,
      "v": 90
    },
    {
      "midi": 89,
      "hit": false,
      "t": 53596.04218749999,
      "d": 778.8445312499971,
      "v": 70
    },
    {
      "midi": 56,
      "hit": false,
      "t": 54153.73333333328,
      "d": 971.1518229166686,
      "v": 30
    },
    {
      "midi": 60,
      "hit": false,
      "t": 54461.424999999945,
      "d": 663.4601562500029,
      "v": 75
    },
    {
      "midi": 65,
      "hit": false,
      "t": 54461.424999999945,
      "d": 663.4601562500029,
      "v": 49
    },
    {
      "midi": 82,
      "hit": false,
      "t": 54519.117187499985,
      "d": 778.8445312499971,
      "v": 90
    },
    {
      "midi": 89,
      "hit": false,
      "t": 54519.117187499985,
      "d": 778.8445312499971,
      "v": 70
    },
    {
      "midi": 46,
      "hit": false,
      "t": 55384.49999999995,
      "d": 1778.8424479166642,
      "v": 48
    },
    {
      "midi": 67,
      "hit": false,
      "t": 55384.49999999995,
      "d": 3307.68541666666,
      "v": 87
    },
    {
      "midi": 72,
      "hit": false,
      "t": 55384.49999999995,
      "d": 3307.68541666666,
      "v": 87
    },
    {
      "midi": 84,
      "hit": false,
      "t": 55442.19218749998,
      "d": 384.61458333333576,
      "v": 90
    },
    {
      "midi": 87,
      "hit": false,
      "t": 55442.19218749998,
      "d": 384.61458333333576,
      "v": 70
    },
    {
      "midi": 74,
      "hit": false,
      "t": 55990.267968749984,
      "d": 2548.0716145833358,
      "v": 90
    },
    {
      "midi": 80,
      "hit": false,
      "t": 55990.267968749984,
      "d": 2548.0716145833358,
      "v": 70
    },
    {
      "midi": 53,
      "hit": false,
      "t": 56307.574999999946,
      "d": 1182.6898437499985,
      "v": 51
    },
    {
      "midi": 56,
      "hit": false,
      "t": 56307.574999999946,
      "d": 1384.6124999999956,
      "v": 66
    },
    {
      "midi": 62,
      "hit": false,
      "t": 56307.574999999946,
      "d": 1384.6124999999956,
      "v": 62
    },
    {
      "midi": 50,
      "hit": false,
      "t": 57230.64999999994,
      "d": 1682.6888020833358,
      "v": 18
    },
    {
      "midi": 53,
      "hit": false,
      "t": 57846.033333333275,
      "d": 1884.6114583333401,
      "v": 62
    },
    {
      "midi": 56,
      "hit": false,
      "t": 58153.72499999994,
      "d": 538.4604166666686,
      "v": 70
    },
    {
      "midi": 70,
      "hit": false,
      "t": 58759.49296874999,
      "d": 326.9223958333314,
      "v": 90
    },
    {
      "midi": 74,
      "hit": false,
      "t": 58759.49296874999,
      "d": 326.9223958333314,
      "v": 70
    },
    {
      "midi": 58,
      "hit": false,
      "t": 58769.10833333328,
      "d": 980.7671875000015,
      "v": 52
    },
    {
      "midi": 62,
      "hit": false,
      "t": 59076.799999999945,
      "d": 653.8447916666701,
      "v": 74
    },
    {
      "midi": 65,
      "hit": false,
      "t": 59076.799999999945,
      "d": 1336.5356770833387,
      "v": 74
    },
    {
      "midi": 68,
      "hit": false,
      "t": 59076.799999999945,
      "d": 1336.5356770833387,
      "v": 74
    },
    {
      "midi": 70,
      "hit": false,
      "t": 59076.799999999945,
      "d": 1336.5356770833387,
      "v": 74
    },
    {
      "midi": 46,
      "hit": false,
      "t": 59076.799999999945,
      "d": 1701.9195312500087,
      "v": 44
    },
    {
      "midi": 70,
      "hit": false,
      "t": 59134.492187499985,
      "d": 519.2296875000029,
      "v": 90
    },
    {
      "midi": 74,
      "hit": false,
      "t": 59134.492187499985,
      "d": 519.2296875000029,
      "v": 70
    },
    {
      "midi": 74,
      "hit": false,
      "t": 59836.41380208332,
      "d": 461.53749999999854,
      "v": 90
    },
    {
      "midi": 80,
      "hit": false,
      "t": 59836.41380208332,
      "d": 461.53749999999854,
      "v": 70
    },
    {
      "midi": 62,
      "hit": false,
      "t": 59999.87499999995,
      "d": 413.4606770833343,
      "v": 56
    },
    {
      "midi": 53,
      "hit": false,
      "t": 59999.87499999995,
      "d": 1221.1513020833372,
      "v": 48
    },
    {
      "midi": 56,
      "hit": false,
      "t": 59999.87499999995,
      "d": 1355.7664062500044,
      "v": 75
    },
    {
      "midi": 77,
      "hit": false,
      "t": 60365.25885416665,
      "d": 519.2296875000029,
      "v": 90
    },
    {
      "midi": 80,
      "hit": false,
      "t": 60365.25885416665,
      "d": 519.2296875000029,
      "v": 70
    },
    {
      "midi": 62,
      "hit": false,
      "t": 60922.94999999995,
      "d": 201.9226562499971,
      "v": 72
    },
    {
      "midi": 65,
      "hit": false,
      "t": 60922.94999999995,
      "d": 201.9226562499971,
      "v": 72
    },
    {
      "midi": 68,
      "hit": false,
      "t": 60922.94999999995,
      "d": 201.9226562499971,
      "v": 72
    },
    {
      "midi": 70,
      "hit": false,
      "t": 60922.94999999995,
      "d": 201.9226562499971,
      "v": 72
    },
    {
      "midi": 50,
      "hit": false,
      "t": 60922.94999999995,
      "d": 1423.073958333327,
      "v": 65
    },
    {
      "midi": 80,
      "hit": false,
      "t": 60980.64218749999,
      "d": 519.2296875000029,
      "v": 90
    },
    {
      "midi": 86,
      "hit": false,
      "t": 60980.64218749999,
      "d": 519.2296875000029,
      "v": 70
    },
    {
      "midi": 63,
      "hit": false,
      "t": 61230.64166666662,
      "d": 163.4611979166657,
      "v": 76
    },
    {
      "midi": 67,
      "hit": false,
      "t": 61230.64166666662,
      "d": 163.4611979166657,
      "v": 76
    },
    {
      "midi": 70,
      "hit": false,
      "t": 61230.64166666662,
      "d": 163.4611979166657,
      "v": 76
    },
    {
      "midi": 65,
      "hit": false,
      "t": 61538.333333333285,
      "d": 788.4598958333299,
      "v": 89
    },
    {
      "midi": 68,
      "hit": false,
      "t": 61538.333333333285,
      "d": 788.4598958333299,
      "v": 89
    },
    {
      "midi": 70,
      "hit": false,
      "t": 61538.333333333285,
      "d": 788.4598958333299,
      "v": 89
    },
    {
      "midi": 79,
      "hit": false,
      "t": 61682.56380208332,
      "d": 461.53749999999854,
      "v": 90
    },
    {
      "midi": 82,
      "hit": false,
      "t": 61682.56380208332,
      "d": 461.53749999999854,
      "v": 70
    },
    {
      "midi": 62,
      "hit": false,
      "t": 61846.02499999995,
      "d": 480.76822916666424,
      "v": 36
    },
    {
      "midi": 56,
      "hit": false,
      "t": 61846.02499999995,
      "d": 778.8445312499971,
      "v": 57
    },
    {
      "midi": 53,
      "hit": false,
      "t": 61846.02499999995,
      "d": 798.0752604166628,
      "v": 63
    },
    {
      "midi": 77,
      "hit": false,
      "t": 62211.40885416665,
      "d": 519.2296875000029,
      "v": 90
    },
    {
      "midi": 80,
      "hit": false,
      "t": 62211.40885416665,
      "d": 519.2296875000029,
      "v": 70
    },
    {
      "midi": 39,
      "hit": false,
      "t": 62769.09999999995,
      "d": 1682.6888020833285,
      "v": 66
    },
    {
      "midi": 79,
      "hit": false,
      "t": 62826.79218749999,
      "d": 1759.6117187499985,
      "v": 80
    },
    {
      "midi": 75,
      "hit": false,
      "t": 62826.79218749999,
      "d": 2471.1486979166657,
      "v": 100
    },
    {
      "midi": 55,
      "hit": false,
      "t": 63692.174999999945,
      "d": 923.0749999999971,
      "v": 43
    },
    {
      "midi": 58,
      "hit": false,
      "t": 63692.174999999945,
      "d": 923.0749999999971,
      "v": 64
    },
    {
      "midi": 63,
      "hit": false,
      "t": 63692.174999999945,
      "d": 923.0749999999971,
      "v": 57
    },
    {
      "midi": 44,
      "hit": false,
      "t": 64615.24999999994,
      "d": 1778.842447916657,
      "v": 48
    },
    {
      "midi": 56,
      "hit": false,
      "t": 64615.24999999994,
      "d": 1846.1499999999942,
      "v": 85
    },
    {
      "midi": 60,
      "hit": false,
      "t": 65538.32499999994,
      "d": 923.0749999999971,
      "v": 51
    },
    {
      "midi": 63,
      "hit": false,
      "t": 65538.32499999994,
      "d": 923.0749999999971,
      "v": 66
    },
    {
      "midi": 68,
      "hit": false,
      "t": 65538.32499999994,
      "d": 923.0749999999971,
      "v": 62
    },
    {
      "midi": 39,
      "hit": false,
      "t": 66461.39999999994,
      "d": 1778.842447916657,
      "v": 48
    },
    {
      "midi": 55,
      "hit": false,
      "t": 67384.47499999993,
      "d": 923.0749999999971,
      "v": 51
    },
    {
      "midi": 58,
      "hit": false,
      "t": 67384.47499999993,
      "d": 923.0749999999971,
      "v": 66
    },
    {
      "midi": 63,
      "hit": false,
      "t": 67384.47499999993,
      "d": 923.0749999999971,
      "v": 62
    },
    {
      "midi": 63,
      "hit": false,
      "t": 68307.54999999993,
      "d": 1846.1500000000087,
      "v": 66
    },
    {
      "midi": 67,
      "hit": false,
      "t": 68307.54999999993,
      "d": 1846.1500000000087,
      "v": 64
    },
    {
      "midi": 39,
      "hit": false,
      "t": 68384.4729166666,
      "d": 1769.227083333346,
      "v": 53
    },
    {
      "midi": 82,
      "hit": false,
      "t": 68922.93333333326,
      "d": 1230.7666666666773,
      "v": 91
    },
    {
      "midi": 51,
      "hit": false,
      "t": 68932.5486979166,
      "d": 682.6908854166686,
      "v": 43
    },
    {
      "midi": 55,
      "hit": false,
      "t": 69192.1635416666,
      "d": 961.536458333343,
      "v": 69
    },
    {
      "midi": 58,
      "hit": false,
      "t": 69221.0096354166,
      "d": 932.6903645833372,
      "v": 52
    },
    {
      "midi": 61,
      "hit": false,
      "t": 69221.0096354166,
      "d": 932.6903645833372,
      "v": 57
    },
    {
      "midi": 79,
      "hit": false,
      "t": 69230.62499999994,
      "d": 923.0749999999971,
      "v": 76
    },
    {
      "midi": 75,
      "hit": false,
      "t": 69538.31666666661,
      "d": 615.3833333333314,
      "v": 66
    },
    {
      "midi": 51,
      "hit": false,
      "t": 69846.00833333327,
      "d": 307.6916666666657,
      "v": 57
    },
    {
      "midi": 70,
      "hit": false,
      "t": 69846.00833333327,
      "d": 307.6916666666657,
      "v": 95
    },
    {
      "midi": 44,
      "hit": false,
      "t": 70153.69999999994,
      "d": 1778.842447916657,
      "v": 48
    },
    {
      "midi": 51,
      "hit": false,
      "t": 70153.69999999994,
      "d": 3317.3007812499854,
      "v": 54
    },
    {
      "midi": 87,
      "hit": false,
      "t": 70211.3921875,
      "d": 384.6145833333285,
      "v": 90
    },
    {
      "midi": 92,
      "hit": false,
      "t": 70211.3921875,
      "d": 384.6145833333285,
      "v": 70
    },
    {
      "midi": 84,
      "hit": false,
      "t": 70759.46796874999,
      "d": 2807.686458333337,
      "v": 90
    },
    {
      "midi": 87,
      "hit": false,
      "t": 70759.46796874999,
      "d": 2807.686458333337,
      "v": 70
    },
    {
      "midi": 60,
      "hit": false,
      "t": 71076.77499999994,
      "d": 1182.6898437499913,
      "v": 51
    },
    {
      "midi": 63,
      "hit": false,
      "t": 71076.77499999994,
      "d": 1384.6124999999884,
      "v": 66
    },
    {
      "midi": 68,
      "hit": false,
      "t": 71076.77499999994,
      "d": 1384.6124999999884,
      "v": 62
    },
    {
      "midi": 56,
      "hit": false,
      "t": 71999.84999999993,
      "d": 1499.996874999997,
      "v": 18
    },
    {
      "midi": 60,
      "hit": false,
      "t": 72615.23333333326,
      "d": 884.6135416666657,
      "v": 62
    },
    {
      "midi": 63,
      "hit": false,
      "t": 72922.92499999993,
      "d": 576.921875,
      "v": 70
    },
    {
      "midi": 63,
      "hit": false,
      "t": 73845.99999999993,
      "d": 307.6916666666657,
      "v": 91
    },
    {
      "midi": 60,
      "hit": false,
      "t": 73845.99999999993,
      "d": 653.8447916666628,
      "v": 57
    },
    {
      "midi": 68,
      "hit": false,
      "t": 73845.99999999993,
      "d": 653.8447916666628,
      "v": 98
    },
    {
      "midi": 44,
      "hit": false,
      "t": 73845.99999999993,
      "d": 1701.9195312499942,
      "v": 44
    },
    {
      "midi": 51,
      "hit": false,
      "t": 73845.99999999993,
      "d": 3653.838541666686,
      "v": 55
    },
    {
      "midi": 75,
      "hit": false,
      "t": 73903.6921875,
      "d": 519.2296875000029,
      "v": 90
    },
    {
      "midi": 80,
      "hit": false,
      "t": 73903.6921875,
      "d": 519.2296875000029,
      "v": 70
    },
    {
      "midi": 65,
      "hit": false,
      "t": 74153.6916666666,
      "d": 807.6906250000029,
      "v": 87
    },
    {
      "midi": 80,
      "hit": false,
      "t": 74605.61380208333,
      "d": 461.5375000000058,
      "v": 90
    },
    {
      "midi": 84,
      "hit": false,
      "t": 74605.61380208333,
      "d": 461.5375000000058,
      "v": 70
    },
    {
      "midi": 63,
      "hit": false,
      "t": 74769.07499999992,
      "d": 211.5380208333372,
      "v": 105
    },
    {
      "midi": 68,
      "hit": false,
      "t": 74769.07499999992,
      "d": 211.5380208333372,
      "v": 56
    },
    {
      "midi": 60,
      "hit": false,
      "t": 74769.07499999992,
      "d": 326.9223958333314,
      "v": 48
    },
    {
      "midi": 84,
      "hit": false,
      "t": 75134.45885416667,
      "d": 519.2296875000029,
      "v": 90
    },
    {
      "midi": 87,
      "hit": false,
      "t": 75134.45885416667,
      "d": 519.2296875000029,
      "v": 70
    },
    {
      "midi": 56,
      "hit": false,
      "t": 75692.14999999992,
      "d": 153.84583333334012,
      "v": 65
    },
    {
      "midi": 58,
      "hit": false,
      "t": 75692.14999999992,
      "d": 307.69166666668025,
      "v": 95
    },
    {
      "midi": 63,
      "hit": false,
      "t": 75692.14999999992,
      "d": 432.69140625001455,
      "v": 91
    },
    {
      "midi": 87,
      "hit": false,
      "t": 75749.8421875,
      "d": 519.2296875000029,
      "v": 90
    },
    {
      "midi": 92,
      "hit": false,
      "t": 75749.8421875,
      "d": 519.2296875000029,
      "v": 70
    },
    {
      "midi": 60,
      "hit": false,
      "t": 75999.8416666666,
      "d": 461.5375000000058,
      "v": 78
    },
    {
      "midi": 86,
      "hit": false,
      "t": 76451.76380208334,
      "d": 461.5375000000058,
      "v": 90
    },
    {
      "midi": 89,
      "hit": false,
      "t": 76451.76380208334,
      "d": 461.5375000000058,
      "v": 70
    },
    {
      "midi": 60,
      "hit": false,
      "t": 76615.22499999995,
      "d": 384.6145833333285,
      "v": 85
    },
    {
      "midi": 63,
      "hit": false,
      "t": 76615.22499999995,
      "d": 778.8445312499971,
      "v": 98
    },
    {
      "midi": 68,
      "hit": false,
      "t": 76615.22499999995,
      "d": 778.8445312499971,
      "v": 36
    },
    {
      "midi": 58,
      "hit": false,
      "t": 76922.91666666661,
      "d": 307.6916666666657,
      "v": 66
    },
    {
      "midi": 84,
      "hit": false,
      "t": 76980.60885416668,
      "d": 519.2296875000029,
      "v": 90
    },
    {
      "midi": 87,
      "hit": false,
      "t": 76980.60885416668,
      "d": 519.2296875000029,
      "v": 70
    },
    {
      "midi": 56,
      "hit": false,
      "t": 77230.60833333328,
      "d": 269.2302083333343,
      "v": 72
    },
    {
      "midi": 70,
      "hit": false,
      "t": 77538.29999999994,
      "d": 2182.6877604166657,
      "v": 64
    },
    {
      "midi": 79,
      "hit": false,
      "t": 77595.99218750001,
      "d": 384.6145833333285,
      "v": 90
    },
    {
      "midi": 82,
      "hit": false,
      "t": 77595.99218750001,
      "d": 384.6145833333285,
      "v": 70
    },
    {
      "midi": 39,
      "hit": false,
      "t": 77615.22291666661,
      "d": 3298.0700520833343,
      "v": 53
    },
    {
      "midi": 82,
      "hit": false,
      "t": 78144.06796875001,
      "d": 2807.686458333337,
      "v": 90
    },
    {
      "midi": 87,
      "hit": false,
      "t": 78144.06796875001,
      "d": 2807.686458333337,
      "v": 70
    },
    {
      "midi": 55,
      "hit": false,
      "t": 78163.2986979166,
      "d": 682.6908854166686,
      "v": 43
    },
    {
      "midi": 58,
      "hit": false,
      "t": 78422.9135416666,
      "d": 1461.5354166666802,
      "v": 69
    },
    {
      "midi": 63,
      "hit": false,
      "t": 78451.7596354166,
      "d": 1269.2281250000087,
      "v": 52
    },
    {
      "midi": 55,
      "hit": false,
      "t": 79076.75833333327,
      "d": 374.9992187500029,
      "v": 57
    },
    {
      "midi": 51,
      "hit": false,
      "t": 79413.29609374994,
      "d": 1317.3049479166657,
      "v": 65
    },
    {
      "midi": 70,
      "hit": false,
      "t": 79999.83333333327,
      "d": 1153.84375,
      "v": 85
    },
    {
      "midi": 55,
      "hit": false,
      "t": 80009.44869791661,
      "d": 644.2294270833372,
      "v": 37
    },
    {
      "midi": 63,
      "hit": false,
      "t": 80336.37109374994,
      "d": 817.3059895833285,
      "v": 63
    },
    {
      "midi": 55,
      "hit": false,
      "t": 80913.29296874994,
      "d": 240.38411458332848,
      "v": 49
    },
    {
      "midi": 63,
      "hit": false,
      "t": 81230.59999999993,
      "d": 567.3065104166599,
      "v": 93
    },
    {
      "midi": 58,
      "hit": false,
      "t": 81230.59999999993,
      "d": 605.7679687499913,
      "v": 93
    },
    {
      "midi": 67,
      "hit": false,
      "t": 81230.59999999993,
      "d": 2115.380208333314,
      "v": 93
    },
    {
      "midi": 39,
      "hit": false,
      "t": 81249.8307291666,
      "d": 3288.4546874999796,
      "v": 61
    },
    {
      "midi": 55,
      "hit": false,
      "t": 81894.06015624992,
      "d": 624.998697916657,
      "v": 46
    },
    {
      "midi": 58,
      "hit": false,
      "t": 82153.67499999992,
      "d": 1192.3052083333314,
      "v": 65
    },
    {
      "midi": 63,
      "hit": false,
      "t": 82153.67499999992,
      "d": 1192.3052083333314,
      "v": 39
    },
    {
      "midi": 55,
      "hit": false,
      "t": 82769.05833333325,
      "d": 307.6916666666657,
      "v": 44
    },
    {
      "midi": 51,
      "hit": false,
      "t": 83095.98072916658,
      "d": 1221.1513020833372,
      "v": 54
    },
    {
      "midi": 67,
      "hit": false,
      "t": 83692.13333333324,
      "d": 1153.84375,
      "v": 74
    },
    {
      "midi": 55,
      "hit": false,
      "t": 83692.13333333324,
      "d": 1230.7666666666628,
      "v": 39
    },
    {
      "midi": 63,
      "hit": false,
      "t": 83980.59427083324,
      "d": 865.3828125,
      "v": 48
    },
    {
      "midi": 58,
      "hit": false,
      "t": 83999.82499999991,
      "d": 846.1520833333343,
      "v": 77
    },
    {
      "midi": 41,
      "hit": false,
      "t": 84922.8999999999,
      "d": 1682.6888020833285,
      "v": 66
    },
    {
      "midi": 87,
      "hit": false,
      "t": 84980.5921875,
      "d": 384.6145833333285,
      "v": 90
    },
    {
      "midi": 93,
      "hit": false,
      "t": 84980.5921875,
      "d": 384.6145833333285,
      "v": 70
    },
    {
      "midi": 84,
      "hit": false,
      "t": 85528.66796875,
      "d": 2807.686458333337,
      "v": 90
    },
    {
      "midi": 87,
      "hit": false,
      "t": 85528.66796875,
      "d": 2807.686458333337,
      "v": 70
    },
    {
      "midi": 65,
      "hit": false,
      "t": 85538.28333333324,
      "d": 3230.7625000000116,
      "v": 89
    },
    {
      "midi": 69,
      "hit": false,
      "t": 85538.28333333324,
      "d": 3230.7625000000116,
      "v": 89
    },
    {
      "midi": 53,
      "hit": false,
      "t": 85845.9749999999,
      "d": 1153.84375,
      "v": 43
    },
    {
      "midi": 60,
      "hit": false,
      "t": 85845.9749999999,
      "d": 1336.5356770833314,
      "v": 56
    },
    {
      "midi": 57,
      "hit": false,
      "t": 85845.9749999999,
      "d": 1384.612500000003,
      "v": 64
    },
    {
      "midi": 63,
      "hit": false,
      "t": 85845.9749999999,
      "d": 1384.612500000003,
      "v": 57
    },
    {
      "midi": 51,
      "hit": false,
      "t": 86769.0499999999,
      "d": 1673.073437500003,
      "v": 68
    },
    {
      "midi": 53,
      "hit": false,
      "t": 87384.43333333325,
      "d": 1855.7653645833489,
      "v": 50
    },
    {
      "midi": 57,
      "hit": false,
      "t": 87692.12499999991,
      "d": 1605.7658854166802,
      "v": 75
    },
    {
      "midi": 60,
      "hit": false,
      "t": 88307.50833333324,
      "d": 461.5375000000058,
      "v": 67
    },
    {
      "midi": 63,
      "hit": false,
      "t": 88307.50833333324,
      "d": 461.5375000000058,
      "v": 73
    },
    {
      "midi": 41,
      "hit": false,
      "t": 88615.19999999991,
      "d": 1615.3812500000204,
      "v": 46
    },
    {
      "midi": 77,
      "hit": false,
      "t": 88672.89218750001,
      "d": 519.2296875000029,
      "v": 90
    },
    {
      "midi": 81,
      "hit": false,
      "t": 88672.89218750001,
      "d": 519.2296875000029,
      "v": 70
    },
    {
      "midi": 60,
      "hit": false,
      "t": 89230.58333333326,
      "d": 48.07682291667152,
      "v": 98
    },
    {
      "midi": 63,
      "hit": false,
      "t": 89230.58333333326,
      "d": 96.15364583334303,
      "v": 98
    },
    {
      "midi": 65,
      "hit": false,
      "t": 89230.58333333326,
      "d": 1538.458333333343,
      "v": 98
    },
    {
      "midi": 69,
      "hit": false,
      "t": 89230.58333333326,
      "d": 1538.458333333343,
      "v": 98
    },
    {
      "midi": 81,
      "hit": false,
      "t": 89374.81380208334,
      "d": 461.5375000000058,
      "v": 90
    },
    {
      "midi": 87,
      "hit": false,
      "t": 89374.81380208334,
      "d": 461.5375000000058,
      "v": 70
    },
    {
      "midi": 53,
      "hit": false,
      "t": 89538.27499999994,
      "d": 1153.84375,
      "v": 42
    },
    {
      "midi": 60,
      "hit": false,
      "t": 89538.27499999994,
      "d": 1230.7666666666628,
      "v": 52
    },
    {
      "midi": 63,
      "hit": false,
      "t": 89538.27499999994,
      "d": 1230.7666666666628,
      "v": 64
    },
    {
      "midi": 57,
      "hit": false,
      "t": 89538.27499999994,
      "d": 1384.612500000003,
      "v": 64
    },
    {
      "midi": 84,
      "hit": false,
      "t": 89903.65885416669,
      "d": 519.2296875000029,
      "v": 90
    },
    {
      "midi": 87,
      "hit": false,
      "t": 89903.65885416669,
      "d": 519.2296875000029,
      "v": 70
    },
    {
      "midi": 51,
      "hit": false,
      "t": 90461.34999999993,
      "d": 1355.7664062500116,
      "v": 65
    },
    {
      "midi": 87,
      "hit": false,
      "t": 90519.04218750002,
      "d": 519.2296875000029,
      "v": 90
    },
    {
      "midi": 93,
      "hit": false,
      "t": 90519.04218750002,
      "d": 519.2296875000029,
      "v": 70
    },
    {
      "midi": 53,
      "hit": false,
      "t": 91076.73333333328,
      "d": 1115.3822916666686,
      "v": 30
    },
    {
      "midi": 65,
      "hit": false,
      "t": 91076.73333333328,
      "d": 1163.4591145833401,
      "v": 100
    },
    {
      "midi": 69,
      "hit": false,
      "t": 91076.73333333328,
      "d": 1163.4591145833401,
      "v": 100
    },
    {
      "midi": 86,
      "hit": false,
      "t": 91220.96380208335,
      "d": 461.5375000000058,
      "v": 90
    },
    {
      "midi": 89,
      "hit": false,
      "t": 91220.96380208335,
      "d": 461.5375000000058,
      "v": 70
    },
    {
      "midi": 57,
      "hit": false,
      "t": 91384.42499999994,
      "d": 807.6906250000029,
      "v": 75
    },
    {
      "midi": 63,
      "hit": false,
      "t": 91384.42499999994,
      "d": 807.6906250000029,
      "v": 49
    },
    {
      "midi": 60,
      "hit": false,
      "t": 91692.11666666661,
      "d": 499.9989583333372,
      "v": 12
    },
    {
      "midi": 84,
      "hit": false,
      "t": 91749.8088541667,
      "d": 519.2296875000029,
      "v": 90
    },
    {
      "midi": 87,
      "hit": false,
      "t": 91749.8088541667,
      "d": 519.2296875000029,
      "v": 70
    },
    {
      "midi": 46,
      "hit": false,
      "t": 92307.49999999996,
      "d": 1778.842447916657,
      "v": 48
    },
    {
      "midi": 58,
      "hit": false,
      "t": 92307.49999999996,
      "d": 2048.072656250006,
      "v": 64
    },
    {
      "midi": 65,
      "hit": false,
      "t": 92307.49999999996,
      "d": 2086.5341145833518,
      "v": 82
    },
    {
      "midi": 82,
      "hit": false,
      "t": 92365.19218750003,
      "d": 3134.6088541666686,
      "v": 90
    },
    {
      "midi": 86,
      "hit": false,
      "t": 92365.19218750003,
      "d": 3134.6088541666686,
      "v": 70
    },
    {
      "midi": 53,
      "hit": false,
      "t": 93230.57499999995,
      "d": 1115.3822916666686,
      "v": 51
    },
    {
      "midi": 62,
      "hit": false,
      "t": 93230.57499999995,
      "d": 1134.6130208333489,
      "v": 62
    },
    {
      "midi": 56,
      "hit": false,
      "t": 93230.57499999995,
      "d": 1144.228385416689,
      "v": 66
    },
    {
      "midi": 50,
      "hit": false,
      "t": 94153.64999999995,
      "d": 1682.6888020833576,
      "v": 18
    },
    {
      "midi": 53,
      "hit": false,
      "t": 94769.03333333331,
      "d": 1230.7666666666628,
      "v": 62
    },
    {
      "midi": 65,
      "hit": false,
      "t": 94769.03333333331,
      "d": 1230.7666666666628,
      "v": 85
    },
    {
      "midi": 56,
      "hit": false,
      "t": 95076.72499999998,
      "d": 923.0749999999971,
      "v": 70
    },
    {
      "midi": 58,
      "hit": false,
      "t": 95692.10833333331,
      "d": 307.6916666666657,
      "v": 52
    },
    {
      "midi": 62,
      "hit": false,
      "t": 95692.10833333331,
      "d": 307.6916666666657,
      "v": 63
    },
    {
      "midi": 46,
      "hit": false,
      "t": 95999.79999999997,
      "d": 2076.918749999997,
      "v": 53
    },
    {
      "midi": 66,
      "hit": false,
      "t": 95999.79999999997,
      "d": 3692.3000000000175,
      "v": 87
    },
    {
      "midi": 70,
      "hit": false,
      "t": 95999.79999999997,
      "d": 3692.3000000000175,
      "v": 87
    },
    {
      "midi": 54,
      "hit": false,
      "t": 96922.87499999997,
      "d": 1201.9205729166715,
      "v": 46
    },
    {
      "midi": 58,
      "hit": false,
      "t": 96922.87499999997,
      "d": 1230.7666666666773,
      "v": 67
    },
    {
      "midi": 62,
      "hit": false,
      "t": 96922.87499999997,
      "d": 1336.535677083346,
      "v": 62
    },
    {
      "midi": 50,
      "hit": false,
      "t": 97845.94999999997,
      "d": 1134.6130208333489,
      "v": 48
    },
    {
      "midi": 54,
      "hit": false,
      "t": 98461.33333333331,
      "d": 913.4596354166715,
      "v": 27
    },
    {
      "midi": 62,
      "hit": false,
      "t": 98769.02499999998,
      "d": 557.6911458333343,
      "v": 67
    },
    {
      "midi": 58,
      "hit": false,
      "t": 98769.02499999998,
      "d": 605.7679687500058,
      "v": 75
    },
    {
      "midi": 39,
      "hit": false,
      "t": 99692.09999999999,
      "d": 2076.918749999997,
      "v": 53
    },
    {
      "midi": 79,
      "hit": false,
      "t": 99749.79218750003,
      "d": 384.6145833333285,
      "v": 90
    },
    {
      "midi": 82,
      "hit": false,
      "t": 99749.79218750003,
      "d": 384.6145833333285,
      "v": 70
    },
    {
      "midi": 70,
      "hit": false,
      "t": 100297.86796875003,
      "d": 2548.0716145833285,
      "v": 90
    },
    {
      "midi": 75,
      "hit": false,
      "t": 100297.86796875003,
      "d": 2548.0716145833285,
      "v": 70
    },
    {
      "midi": 55,
      "hit": false,
      "t": 100615.17499999999,
      "d": 1201.9205729166715,
      "v": 46
    },
    {
      "midi": 58,
      "hit": false,
      "t": 100615.17499999999,
      "d": 1230.7666666666773,
      "v": 67
    },
    {
      "midi": 63,
      "hit": false,
      "t": 100615.17499999999,
      "d": 1336.535677083346,
      "v": 62
    },
    {
      "midi": 51,
      "hit": false,
      "t": 101538.24999999999,
      "d": 1134.6130208333489,
      "v": 48
    },
    {
      "midi": 55,
      "hit": false,
      "t": 102153.63333333333,
      "d": 913.4596354166715,
      "v": 27
    },
    {
      "midi": 63,
      "hit": false,
      "t": 102461.325,
      "d": 557.6911458333343,
      "v": 67
    },
    {
      "midi": 58,
      "hit": false,
      "t": 102461.325,
      "d": 605.7679687500058,
      "v": 75
    },
    {
      "midi": 70,
      "hit": false,
      "t": 103067.09296875002,
      "d": 326.9223958333314,
      "v": 90
    },
    {
      "midi": 75,
      "hit": false,
      "t": 103067.09296875002,
      "d": 326.9223958333314,
      "v": 70
    },
    {
      "midi": 72,
      "hit": false,
      "t": 103442.09218750002,
      "d": 519.2296875000029,
      "v": 90
    },
    {
      "midi": 76,
      "hit": false,
      "t": 103442.09218750002,
      "d": 519.2296875000029,
      "v": 70
    },
    {
      "midi": 48,
      "hit": false,
      "t": 103461.32291666667,
      "d": 3298.0700520833198,
      "v": 53
    },
    {
      "midi": 55,
      "hit": false,
      "t": 104009.39869791667,
      "d": 682.6908854166686,
      "v": 43
    },
    {
      "midi": 76,
      "hit": false,
      "t": 104144.01380208335,
      "d": 461.5375000000058,
      "v": 90
    },
    {
      "midi": 82,
      "hit": false,
      "t": 104144.01380208335,
      "d": 461.5375000000058,
      "v": 70
    },
    {
      "midi": 58,
      "hit": false,
      "t": 104269.01354166666,
      "d": 1461.5354166666802,
      "v": 69
    },
    {
      "midi": 64,
      "hit": false,
      "t": 104297.85963541667,
      "d": 1394.227864583343,
      "v": 57
    },
    {
      "midi": 60,
      "hit": false,
      "t": 104297.85963541667,
      "d": 1432.6893229166744,
      "v": 52
    },
    {
      "midi": 79,
      "hit": false,
      "t": 104672.8588541667,
      "d": 519.2296875000029,
      "v": 90
    },
    {
      "midi": 82,
      "hit": false,
      "t": 104672.8588541667,
      "d": 519.2296875000029,
      "v": 70
    },
    {
      "midi": 55,
      "hit": false,
      "t": 104922.85833333334,
      "d": 374.9992187500029,
      "v": 57
    },
    {
      "midi": 52,
      "hit": false,
      "t": 105259.39609375001,
      "d": 1317.3049479166511,
      "v": 65
    },
    {
      "midi": 84,
      "hit": false,
      "t": 105288.24218750003,
      "d": 519.2296875000029,
      "v": 90
    },
    {
      "midi": 88,
      "hit": false,
      "t": 105288.24218750003,
      "d": 519.2296875000029,
      "v": 70
    },
    {
      "midi": 72,
      "hit": false,
      "t": 105845.93333333333,
      "d": 317.3070312500058,
      "v": 95
    },
    {
      "midi": 55,
      "hit": false,
      "t": 105855.54869791667,
      "d": 644.2294270833227,
      "v": 37
    },
    {
      "midi": 82,
      "hit": false,
      "t": 105990.16380208336,
      "d": 461.5375000000058,
      "v": 90
    },
    {
      "midi": 88,
      "hit": false,
      "t": 105990.16380208336,
      "d": 461.5375000000058,
      "v": 70
    },
    {
      "midi": 58,
      "hit": false,
      "t": 106134.39427083333,
      "d": 942.3057291666628,
      "v": 73
    },
    {
      "midi": 76,
      "hit": false,
      "t": 106153.625,
      "d": 923.0749999999971,
      "v": 89
    },
    {
      "midi": 60,
      "hit": false,
      "t": 106182.47109375,
      "d": 894.2289062499913,
      "v": 63
    },
    {
      "midi": 64,
      "hit": false,
      "t": 106182.47109375,
      "d": 894.2289062499913,
      "v": 67
    },
    {
      "midi": 72,
      "hit": false,
      "t": 106461.31666666667,
      "d": 615.3833333333314,
      "v": 85
    },
    {
      "midi": 79,
      "hit": false,
      "t": 106519.0088541667,
      "d": 519.2296875000029,
      "v": 90
    },
    {
      "midi": 82,
      "hit": false,
      "t": 106519.0088541667,
      "d": 519.2296875000029,
      "v": 70
    },
    {
      "midi": 55,
      "hit": false,
      "t": 106759.39296874999,
      "d": 317.3070312500058,
      "v": 49
    },
    {
      "midi": 67,
      "hit": false,
      "t": 106769.00833333333,
      "d": 307.6916666666657,
      "v": 74
    },
    {
      "midi": 41,
      "hit": false,
      "t": 107076.7,
      "d": 1682.6888020833285,
      "v": 66
    },
    {
      "midi": 80,
      "hit": false,
      "t": 107134.39218750004,
      "d": 384.6145833333285,
      "v": 90
    },
    {
      "midi": 84,
      "hit": false,
      "t": 107134.39218750004,
      "d": 384.6145833333285,
      "v": 70
    },
    {
      "midi": 84,
      "hit": false,
      "t": 107682.46796875003,
      "d": 2807.686458333337,
      "v": 90
    },
    {
      "midi": 89,
      "hit": false,
      "t": 107682.46796875003,
      "d": 2807.686458333337,
      "v": 70
    },
    {
      "midi": 56,
      "hit": false,
      "t": 107999.775,
      "d": 1153.84375,
      "v": 43
    },
    {
      "midi": 60,
      "hit": false,
      "t": 107999.775,
      "d": 1259.6127604166686,
      "v": 64
    },
    {
      "midi": 65,
      "hit": false,
      "t": 107999.775,
      "d": 1336.5356770833314,
      "v": 57
    },
    {
      "midi": 53,
      "hit": false,
      "t": 108922.84999999999,
      "d": 336.5377604166715,
      "v": 68
    },
    {
      "midi": 53,
      "hit": false,
      "t": 109538.23333333332,
      "d": 1057.690104166657,
      "v": 85
    },
    {
      "midi": 56,
      "hit": false,
      "t": 109538.23333333332,
      "d": 1153.8437499999854,
      "v": 85
    },
    {
      "midi": 60,
      "hit": false,
      "t": 109845.92499999999,
      "d": 846.1520833333198,
      "v": 75
    },
    {
      "midi": 56,
      "hit": false,
      "t": 110768.99999999997,
      "d": 624.9986979166715,
      "v": 93
    },
    {
      "midi": 65,
      "hit": false,
      "t": 110768.99999999997,
      "d": 663.4601562500029,
      "v": 93
    },
    {
      "midi": 60,
      "hit": false,
      "t": 110768.99999999997,
      "d": 682.6908854166686,
      "v": 93
    },
    {
      "midi": 41,
      "hit": false,
      "t": 110768.99999999997,
      "d": 1615.3812499999913,
      "v": 46
    },
    {
      "midi": 56,
      "hit": false,
      "t": 111692.07499999997,
      "d": 1153.84375,
      "v": 42
    },
    {
      "midi": 60,
      "hit": false,
      "t": 111692.07499999997,
      "d": 1192.3052083333314,
      "v": 64
    },
    {
      "midi": 65,
      "hit": false,
      "t": 111692.07499999997,
      "d": 1192.3052083333314,
      "v": 64
    },
    {
      "midi": 53,
      "hit": false,
      "t": 112615.14999999997,
      "d": 1355.766406249997,
      "v": 65
    },
    {
      "midi": 56,
      "hit": false,
      "t": 113230.5333333333,
      "d": 1115.3822916666686,
      "v": 74
    },
    {
      "midi": 60,
      "hit": false,
      "t": 113538.22499999996,
      "d": 807.6906250000029,
      "v": 75
    },
    {
      "midi": 65,
      "hit": false,
      "t": 113538.22499999996,
      "d": 807.6906250000029,
      "v": 49
    },
    {
      "midi": 84,
      "hit": false,
      "t": 113595.91718750003,
      "d": 778.8445312499971,
      "v": 90
    },
    {
      "midi": 89,
      "hit": false,
      "t": 113595.91718750003,
      "d": 778.8445312499971,
      "v": 70
    },
    {
      "midi": 56,
      "hit": false,
      "t": 114461.29999999996,
      "d": 1846.1499999999942,
      "v": 85
    },
    {
      "midi": 87,
      "hit": false,
      "t": 114518.99218750003,
      "d": 519.2296875000029,
      "v": 90
    },
    {
      "midi": 92,
      "hit": false,
      "t": 114518.99218750003,
      "d": 519.2296875000029,
      "v": 70
    },
    {
      "midi": 44,
      "hit": false,
      "t": 114538.22291666662,
      "d": 1769.2270833333314,
      "v": 53
    },
    {
      "midi": 60,
      "hit": false,
      "t": 115086.29869791662,
      "d": 682.6908854166686,
      "v": 43
    },
    {
      "midi": 84,
      "hit": false,
      "t": 115220.91380208336,
      "d": 461.5375000000058,
      "v": 90
    },
    {
      "midi": 87,
      "hit": false,
      "t": 115220.91380208336,
      "d": 461.5375000000058,
      "v": 70
    },
    {
      "midi": 63,
      "hit": false,
      "t": 115345.91354166661,
      "d": 961.536458333343,
      "v": 69
    },
    {
      "midi": 68,
      "hit": false,
      "t": 115374.75963541662,
      "d": 932.6903645833372,
      "v": 52
    },
    {
      "midi": 80,
      "hit": false,
      "t": 115749.7588541667,
      "d": 519.2296875000029,
      "v": 90
    },
    {
      "midi": 84,
      "hit": false,
      "t": 115749.7588541667,
      "d": 519.2296875000029,
      "v": 70
    },
    {
      "midi": 60,
      "hit": false,
      "t": 115999.75833333329,
      "d": 307.6916666666657,
      "v": 57
    },
    {
      "midi": 55,
      "hit": false,
      "t": 116307.44999999995,
      "d": 278.8455729166599,
      "v": 85
    },
    {
      "midi": 58,
      "hit": false,
      "t": 116307.44999999995,
      "d": 278.8455729166599,
      "v": 85
    },
    {
      "midi": 62,
      "hit": false,
      "t": 116307.44999999995,
      "d": 278.8455729166599,
      "v": 85
    },
    {
      "midi": 43,
      "hit": false,
      "t": 116307.44999999995,
      "d": 1682.6888020833285,
      "v": 66
    },
    {
      "midi": 86,
      "hit": false,
      "t": 116365.14218750004,
      "d": 384.6145833333285,
      "v": 90
    },
    {
      "midi": 91,
      "hit": false,
      "t": 116365.14218750004,
      "d": 384.6145833333285,
      "v": 70
    },
    {
      "midi": 55,
      "hit": false,
      "t": 116615.14166666662,
      "d": 249.9994791666686,
      "v": 80
    },
    {
      "midi": 60,
      "hit": false,
      "t": 116615.14166666662,
      "d": 249.9994791666686,
      "v": 80
    },
    {
      "midi": 64,
      "hit": false,
      "t": 116615.14166666662,
      "d": 249.9994791666686,
      "v": 80
    },
    {
      "midi": 82,
      "hit": false,
      "t": 116913.21796875003,
      "d": 1115.3822916666686,
      "v": 90
    },
    {
      "midi": 86,
      "hit": false,
      "t": 116913.21796875003,
      "d": 1115.3822916666686,
      "v": 70
    },
    {
      "midi": 55,
      "hit": false,
      "t": 116922.83333333328,
      "d": 1230.7666666666628,
      "v": 82
    },
    {
      "midi": 58,
      "hit": false,
      "t": 117230.52499999995,
      "d": 923.0749999999971,
      "v": 43
    },
    {
      "midi": 62,
      "hit": false,
      "t": 117230.52499999995,
      "d": 923.0749999999971,
      "v": 64
    },
    {
      "midi": 67,
      "hit": false,
      "t": 117230.52499999995,
      "d": 923.0749999999971,
      "v": 57
    },
    {
      "midi": 56,
      "hit": false,
      "t": 118153.59999999995,
      "d": 278.8455729166599,
      "v": 85
    },
    {
      "midi": 60,
      "hit": false,
      "t": 118153.59999999995,
      "d": 278.8455729166599,
      "v": 85
    },
    {
      "midi": 65,
      "hit": false,
      "t": 118153.59999999995,
      "d": 278.8455729166599,
      "v": 85
    },
    {
      "midi": 41,
      "hit": false,
      "t": 118153.59999999995,
      "d": 1778.842447916657,
      "v": 48
    },
    {
      "midi": 84,
      "hit": false,
      "t": 118211.29218750003,
      "d": 519.2296875000029,
      "v": 90
    },
    {
      "midi": 89,
      "hit": false,
      "t": 118211.29218750003,
      "d": 519.2296875000029,
      "v": 70
    },
    {
      "midi": 58,
      "hit": false,
      "t": 118461.29166666661,
      "d": 249.9994791666686,
      "v": 80
    },
    {
      "midi": 62,
      "hit": false,
      "t": 118461.29166666661,
      "d": 249.9994791666686,
      "v": 80
    },
    {
      "midi": 65,
      "hit": false,
      "t": 118461.29166666661,
      "d": 249.9994791666686,
      "v": 80
    },
    {
      "midi": 80,
      "hit": false,
      "t": 118913.21380208337,
      "d": 461.5375000000058,
      "v": 90
    },
    {
      "midi": 84,
      "hit": false,
      "t": 118913.21380208337,
      "d": 461.5375000000058,
      "v": 70
    },
    {
      "midi": 56,
      "hit": false,
      "t": 119076.67499999994,
      "d": 923.0749999999971,
      "v": 51
    },
    {
      "midi": 60,
      "hit": false,
      "t": 119076.67499999994,
      "d": 923.0749999999971,
      "v": 66
    },
    {
      "midi": 65,
      "hit": false,
      "t": 119076.67499999994,
      "d": 923.0749999999971,
      "v": 62
    },
    {
      "midi": 77,
      "hit": false,
      "t": 119442.05885416671,
      "d": 519.2296875000029,
      "v": 90
    },
    {
      "midi": 80,
      "hit": false,
      "t": 119442.05885416671,
      "d": 519.2296875000029,
      "v": 70
    },
    {
      "midi": 82,
      "hit": false,
      "t": 120057.44218750004,
      "d": 384.6145833333285,
      "v": 90
    },
    {
      "midi": 87,
      "hit": false,
      "t": 120057.44218750004,
      "d": 384.6145833333285,
      "v": 70
    },
    {
      "midi": 48,
      "hit": false,
      "t": 120076.6729166666,
      "d": 1769.227083333346,
      "v": 53
    },
    {
      "midi": 79,
      "hit": false,
      "t": 120605.51796875003,
      "d": 778.8445312499971,
      "v": 90
    },
    {
      "midi": 84,
      "hit": false,
      "t": 120605.51796875003,
      "d": 778.8445312499971,
      "v": 70
    },
    {
      "midi": 79,
      "hit": false,
      "t": 120615.13333333327,
      "d": 1230.7666666666773,
      "v": 91
    },
    {
      "midi": 55,
      "hit": false,
      "t": 120624.74869791661,
      "d": 682.6908854166686,
      "v": 43
    },
    {
      "midi": 60,
      "hit": false,
      "t": 120884.36354166661,
      "d": 961.536458333343,
      "v": 69
    },
    {
      "midi": 63,
      "hit": false,
      "t": 120913.20963541661,
      "d": 932.6903645833372,
      "v": 52
    },
    {
      "midi": 75,
      "hit": false,
      "t": 120922.82499999995,
      "d": 923.0749999999971,
      "v": 76
    },
    {
      "midi": 72,
      "hit": false,
      "t": 121230.51666666662,
      "d": 615.3833333333314,
      "v": 66
    },
    {
      "midi": 71,
      "hit": false,
      "t": 121528.59296875003,
      "d": 144.23046875,
      "v": 90
    },
    {
      "midi": 75,
      "hit": false,
      "t": 121528.59296875003,
      "d": 144.23046875,
      "v": 70
    },
    {
      "midi": 55,
      "hit": false,
      "t": 121538.20833333328,
      "d": 307.6916666666657,
      "v": 57
    },
    {
      "midi": 67,
      "hit": false,
      "t": 121538.20833333328,
      "d": 307.6916666666657,
      "v": 95
    },
    {
      "midi": 72,
      "hit": false,
      "t": 121692.0541666667,
      "d": 182.6919270833314,
      "v": 90
    },
    {
      "midi": 75,
      "hit": false,
      "t": 121692.0541666667,
      "d": 182.6919270833314,
      "v": 70
    },
    {
      "midi": 41,
      "hit": false,
      "t": 121845.89999999995,
      "d": 1682.6888020833285,
      "v": 66
    },
    {
      "midi": 65,
      "hit": false,
      "t": 121845.89999999995,
      "d": 1846.1499999999942,
      "v": 85
    },
    {
      "midi": 68,
      "hit": false,
      "t": 121845.89999999995,
      "d": 1846.1499999999942,
      "v": 85
    },
    {
      "midi": 80,
      "hit": false,
      "t": 121903.59218750003,
      "d": 519.2296875000029,
      "v": 90
    },
    {
      "midi": 84,
      "hit": false,
      "t": 121903.59218750003,
      "d": 519.2296875000029,
      "v": 70
    },
    {
      "midi": 71,
      "hit": false,
      "t": 122605.51380208337,
      "d": 461.5375000000058,
      "v": 90
    },
    {
      "midi": 75,
      "hit": false,
      "t": 122605.51380208337,
      "d": 461.5375000000058,
      "v": 70
    },
    {
      "midi": 53,
      "hit": false,
      "t": 122768.97499999995,
      "d": 923.0749999999971,
      "v": 43
    },
    {
      "midi": 56,
      "hit": false,
      "t": 122768.97499999995,
      "d": 923.0749999999971,
      "v": 64
    },
    {
      "midi": 60,
      "hit": false,
      "t": 122768.97499999995,
      "d": 923.0749999999971,
      "v": 56
    },
    {
      "midi": 63,
      "hit": false,
      "t": 122768.97499999995,
      "d": 923.0749999999971,
      "v": 57
    },
    {
      "midi": 72,
      "hit": false,
      "t": 123134.35885416671,
      "d": 519.2296875000029,
      "v": 90
    },
    {
      "midi": 75,
      "hit": false,
      "t": 123134.35885416671,
      "d": 519.2296875000029,
      "v": 70
    },
    {
      "midi": 41,
      "hit": false,
      "t": 123692.04999999994,
      "d": 923.0749999999971,
      "v": 48
    },
    {
      "midi": 60,
      "hit": false,
      "t": 123692.04999999994,
      "d": 923.0749999999971,
      "v": 80
    },
    {
      "midi": 63,
      "hit": false,
      "t": 123692.04999999994,
      "d": 923.0749999999971,
      "v": 80
    },
    {
      "midi": 65,
      "hit": false,
      "t": 123692.04999999994,
      "d": 923.0749999999971,
      "v": 80
    },
    {
      "midi": 68,
      "hit": false,
      "t": 123692.04999999994,
      "d": 923.0749999999971,
      "v": 80
    },
    {
      "midi": 75,
      "hit": false,
      "t": 123749.74218750004,
      "d": 778.8445312499971,
      "v": 90
    },
    {
      "midi": 80,
      "hit": false,
      "t": 123749.74218750004,
      "d": 778.8445312499971,
      "v": 70
    },
    {
      "midi": 46,
      "hit": false,
      "t": 124615.12499999994,
      "d": 923.0749999999971,
      "v": 66
    },
    {
      "midi": 56,
      "hit": false,
      "t": 124615.12499999994,
      "d": 923.0749999999971,
      "v": 80
    },
    {
      "midi": 58,
      "hit": false,
      "t": 124615.12499999994,
      "d": 923.0749999999971,
      "v": 80
    },
    {
      "midi": 62,
      "hit": false,
      "t": 124615.12499999994,
      "d": 923.0749999999971,
      "v": 80
    },
    {
      "midi": 65,
      "hit": false,
      "t": 124615.12499999994,
      "d": 923.0749999999971,
      "v": 80
    },
    {
      "midi": 77,
      "hit": false,
      "t": 124672.81718750004,
      "d": 778.8445312499971,
      "v": 90
    },
    {
      "midi": 80,
      "hit": false,
      "t": 124672.81718750004,
      "d": 778.8445312499971,
      "v": 70
    },
    {
      "midi": 82,
      "hit": false,
      "t": 125538.19999999994,
      "d": 307.6916666666657,
      "v": 85
    },
    {
      "midi": 87,
      "hit": false,
      "t": 125538.19999999994,
      "d": 1230.7666666666628,
      "v": 85
    },
    {
      "midi": 39,
      "hit": false,
      "t": 125538.19999999994,
      "d": 1769.2270833333314,
      "v": 59
    },
    {
      "midi": 67,
      "hit": false,
      "t": 125538.19999999994,
      "d": 3692.2999999999884,
      "v": 56
    },
    {
      "midi": 75,
      "hit": false,
      "t": 125595.89218750004,
      "d": 2346.1489583333314,
      "v": 90
    },
    {
      "midi": 79,
      "hit": false,
      "t": 125595.89218750004,
      "d": 2346.1489583333314,
      "v": 70
    },
    {
      "midi": 84,
      "hit": false,
      "t": 125845.8916666666,
      "d": 807.6906250000029,
      "v": 66
    },
    {
      "midi": 82,
      "hit": false,
      "t": 126461.27499999994,
      "d": 307.6916666666657,
      "v": 76
    },
    {
      "midi": 55,
      "hit": false,
      "t": 126461.27499999994,
      "d": 1182.6898437499913,
      "v": 45
    },
    {
      "midi": 63,
      "hit": false,
      "t": 126461.27499999994,
      "d": 1423.0739583333343,
      "v": 65
    },
    {
      "midi": 58,
      "hit": false,
      "t": 126461.27499999994,
      "d": 1461.5354166666657,
      "v": 65
    },
    {
      "midi": 77,
      "hit": false,
      "t": 127384.34999999993,
      "d": 307.6916666666657,
      "v": 89
    },
    {
      "midi": 82,
      "hit": false,
      "t": 127384.34999999993,
      "d": 663.4601562500029,
      "v": 80
    },
    {
      "midi": 51,
      "hit": false,
      "t": 127384.34999999993,
      "d": 1192.3052083333314,
      "v": 49
    },
    {
      "midi": 79,
      "hit": false,
      "t": 127692.0416666666,
      "d": 355.7684895833372,
      "v": 82
    },
    {
      "midi": 55,
      "hit": false,
      "t": 127999.73333333326,
      "d": 817.3059895833285,
      "v": 27
    },
    {
      "midi": 79,
      "hit": false,
      "t": 128307.42499999993,
      "d": 384.6145833333285,
      "v": 89
    },
    {
      "midi": 63,
      "hit": false,
      "t": 128307.42499999993,
      "d": 538.4604166666686,
      "v": 56
    },
    {
      "midi": 58,
      "hit": false,
      "t": 128307.42499999993,
      "d": 576.921875,
      "v": 68
    },
    {
      "midi": 82,
      "hit": false,
      "t": 128307.42499999993,
      "d": 923.0749999999971,
      "v": 87
    },
    {
      "midi": 77,
      "hit": false,
      "t": 128615.1166666666,
      "d": 326.9223958333314,
      "v": 58
    },
    {
      "midi": 75,
      "hit": false,
      "t": 128922.80833333326,
      "d": 307.6916666666657,
      "v": 76
    },
    {
      "midi": 58,
      "hit": false,
      "t": 129230.49999999993,
      "d": 173.07656250000582,
      "v": 87
    },
    {
      "midi": 63,
      "hit": false,
      "t": 129230.49999999993,
      "d": 173.07656250000582,
      "v": 87
    },
    {
      "midi": 67,
      "hit": false,
      "t": 129230.49999999993,
      "d": 173.07656250000582,
      "v": 87
    },
    {
      "midi": 39,
      "hit": false,
      "t": 129230.49999999993,
      "d": 4086.5299479167006,
      "v": 29
    },
    {
      "midi": 55,
      "hit": false,
      "t": 129230.49999999993,
      "d": 4153.837500000038,
      "v": 41
    },
    {
      "midi": 58,
      "hit": false,
      "t": 129538.1916666666,
      "d": 134.61510416665988,
      "v": 68
    },
    {
      "midi": 63,
      "hit": false,
      "t": 129538.1916666666,
      "d": 134.61510416665988,
      "v": 68
    },
    {
      "midi": 67,
      "hit": false,
      "t": 129538.1916666666,
      "d": 134.61510416665988,
      "v": 68
    },
    {
      "midi": 58,
      "hit": false,
      "t": 129845.88333333326,
      "d": 153.84583333334012,
      "v": 68
    },
    {
      "midi": 63,
      "hit": false,
      "t": 129845.88333333326,
      "d": 153.84583333334012,
      "v": 68
    },
    {
      "midi": 67,
      "hit": false,
      "t": 129845.88333333326,
      "d": 153.84583333334012,
      "v": 68
    },
    {
      "midi": 58,
      "hit": false,
      "t": 130153.57499999994,
      "d": 153.84583333334012,
      "v": 70
    },
    {
      "midi": 63,
      "hit": false,
      "t": 130153.57499999994,
      "d": 153.84583333334012,
      "v": 70
    },
    {
      "midi": 67,
      "hit": false,
      "t": 130153.57499999994,
      "d": 153.84583333334012,
      "v": 70
    },
    {
      "midi": 58,
      "hit": false,
      "t": 130461.26666666662,
      "d": 124.9997395833343,
      "v": 70
    },
    {
      "midi": 63,
      "hit": false,
      "t": 130461.26666666662,
      "d": 124.9997395833343,
      "v": 70
    },
    {
      "midi": 67,
      "hit": false,
      "t": 130461.26666666662,
      "d": 124.9997395833343,
      "v": 70
    },
    {
      "midi": 58,
      "hit": false,
      "t": 130768.95833333328,
      "d": 124.9997395833343,
      "v": 76
    },
    {
      "midi": 63,
      "hit": false,
      "t": 130768.95833333328,
      "d": 124.9997395833343,
      "v": 76
    },
    {
      "midi": 67,
      "hit": false,
      "t": 130768.95833333328,
      "d": 124.9997395833343,
      "v": 76
    },
    {
      "midi": 60,
      "hit": false,
      "t": 131076.64999999997,
      "d": 115.38437499999418,
      "v": 68
    },
    {
      "midi": 63,
      "hit": false,
      "t": 131076.64999999997,
      "d": 115.38437499999418,
      "v": 68
    },
    {
      "midi": 68,
      "hit": false,
      "t": 131076.64999999997,
      "d": 115.38437499999418,
      "v": 68
    },
    {
      "midi": 60,
      "hit": false,
      "t": 131384.34166666662,
      "d": 134.61510416667443,
      "v": 57
    },
    {
      "midi": 63,
      "hit": false,
      "t": 131384.34166666662,
      "d": 134.61510416667443,
      "v": 57
    },
    {
      "midi": 68,
      "hit": false,
      "t": 131384.34166666662,
      "d": 134.61510416667443,
      "v": 57
    },
    {
      "midi": 60,
      "hit": false,
      "t": 131692.0333333333,
      "d": 134.61510416667443,
      "v": 60
    },
    {
      "midi": 63,
      "hit": false,
      "t": 131692.0333333333,
      "d": 134.61510416667443,
      "v": 60
    },
    {
      "midi": 68,
      "hit": false,
      "t": 131692.0333333333,
      "d": 134.61510416667443,
      "v": 60
    },
    {
      "midi": 60,
      "hit": false,
      "t": 131999.72499999998,
      "d": 144.23046875,
      "v": 57
    },
    {
      "midi": 63,
      "hit": false,
      "t": 131999.72499999998,
      "d": 144.23046875,
      "v": 57
    },
    {
      "midi": 68,
      "hit": false,
      "t": 131999.72499999998,
      "d": 144.23046875,
      "v": 57
    },
    {
      "midi": 60,
      "hit": false,
      "t": 132307.41666666666,
      "d": 153.84583333332557,
      "v": 57
    },
    {
      "midi": 63,
      "hit": false,
      "t": 132307.41666666666,
      "d": 153.84583333332557,
      "v": 57
    },
    {
      "midi": 68,
      "hit": false,
      "t": 132307.41666666666,
      "d": 153.84583333332557,
      "v": 57
    },
    {
      "midi": 60,
      "hit": false,
      "t": 132615.1083333333,
      "d": 124.99973958331975,
      "v": 63
    },
    {
      "midi": 63,
      "hit": false,
      "t": 132615.1083333333,
      "d": 124.99973958331975,
      "v": 63
    },
    {
      "midi": 68,
      "hit": false,
      "t": 132615.1083333333,
      "d": 124.99973958331975,
      "v": 63
    },
    {
      "midi": 58,
      "hit": false,
      "t": 132922.79999999996,
      "d": 528.845052083343,
      "v": 70
    },
    {
      "midi": 67,
      "hit": false,
      "t": 132922.79999999996,
      "d": 576.921875,
      "v": 70
    },
    {
      "midi": 63,
      "hit": false,
      "t": 132922.79999999996,
      "d": 1423.0739583333198,
      "v": 70
    },
    {
      "midi": 39,
      "hit": false,
      "t": 134768.94999999995,
      "d": 346.15312500001164,
      "v": 53
    },
    {
      "midi": 58,
      "hit": false,
      "t": 134768.94999999995,
      "d": 461.5375000000058,
      "v": 74
    },
    {
      "midi": 55,
      "hit": false,
      "t": 134768.94999999995,
      "d": 490.38359375001164,
      "v": 66
    },
    {
      "midi": 67,
      "hit": false,
      "t": 134768.94999999995,
      "d": 490.38359375001164,
      "v": 75
    },
    {
      "midi": 63,
      "hit": false,
      "t": 134768.94999999995,
      "d": 1807.688541666692,
      "v": 66
    },
    {
      "midi": 70,
      "hit": false,
      "t": 134768.94999999995,
      "d": 1807.688541666692,
      "v": 66
    }
  ]
}