{
  "jsonPath": "Rock/Christian Alternative Rock/Passion/you-are-my-king-split-trax.json",
  "path": "Rock\\Christian Alternative Rock\\Passion\\You Are My King (Split Trax).mid",
  "name": "You Are My King (Split Trax)",
  "difficulty": "Advanced",
  "bpm": 69.99998833333528,
  "notes": [
    {
      "midi": 52,
      "hit": false,
      "t": 6421.429641666667,
      "d": 350.0000583333331,
      "v": 71
    },
    {
      "midi": 54,
      "hit": false,
      "t": 6607.143958333333,
      "d": 178.57145833333288,
      "v": 51
    },
    {
      "midi": 52,
      "hit": false,
      "t": 6814.2868499999995,
      "d": 1157.1430499999997,
      "v": 37
    },
    {
      "midi": 55,
      "hit": false,
      "t": 6828.572566666666,
      "d": 1171.428766666667,
      "v": 76
    },
    {
      "midi": 38,
      "hit": false,
      "t": 6842.858283333332,
      "d": 3121.429091666666,
      "v": 67
    },
    {
      "midi": 54,
      "hit": false,
      "t": 8128.572783333333,
      "d": 1250.000208333333,
      "v": 42
    },
    {
      "midi": 50,
      "hit": false,
      "t": 8135.715641666667,
      "d": 1235.7144916666666,
      "v": 50
    },
    {
      "midi": 57,
      "hit": false,
      "t": 9814.287349999999,
      "d": 364.28577499999847,
      "v": 53
    },
    {
      "midi": 59,
      "hit": false,
      "t": 10028.573099999998,
      "d": 264.2857583333316,
      "v": 46
    },
    {
      "midi": 57,
      "hit": false,
      "t": 10250.00170833333,
      "d": 1085.7144666666663,
      "v": 65
    },
    {
      "midi": 60,
      "hit": false,
      "t": 10250.00170833333,
      "d": 1285.7145,
      "v": 93
    },
    {
      "midi": 43,
      "hit": false,
      "t": 10250.00170833333,
      "d": 3021.429075,
      "v": 73
    },
    {
      "midi": 55,
      "hit": false,
      "t": 11571.430499999997,
      "d": 1414.2859499999995,
      "v": 42
    },
    {
      "midi": 59,
      "hit": false,
      "t": 11578.57335833333,
      "d": 1414.2859499999995,
      "v": 50
    },
    {
      "midi": 52,
      "hit": false,
      "t": 13271.43078333333,
      "d": 1514.2859666666664,
      "v": 69
    },
    {
      "midi": 54,
      "hit": false,
      "t": 13464.287958333329,
      "d": 185.7143166666665,
      "v": 48
    },
    {
      "midi": 55,
      "hit": false,
      "t": 13685.716566666662,
      "d": 1128.5716166666662,
      "v": 86
    },
    {
      "midi": 38,
      "hit": false,
      "t": 13728.573716666662,
      "d": 3092.8576583333343,
      "v": 78
    },
    {
      "midi": 50,
      "hit": false,
      "t": 14978.573924999995,
      "d": 1385.714516666665,
      "v": 56
    },
    {
      "midi": 54,
      "hit": false,
      "t": 14978.573924999995,
      "d": 1414.2859499999995,
      "v": 43
    },
    {
      "midi": 57,
      "hit": false,
      "t": 14985.716783333328,
      "d": 1428.5716666666685,
      "v": 52
    },
    {
      "midi": 57,
      "hit": false,
      "t": 16671.431349999995,
      "d": 371.428633333333,
      "v": 50
    },
    {
      "midi": 59,
      "hit": false,
      "t": 16871.43138333333,
      "d": 264.285758333328,
      "v": 60
    },
    {
      "midi": 57,
      "hit": false,
      "t": 17100.002849999993,
      "d": 1057.14303333333,
      "v": 49
    },
    {
      "midi": 60,
      "hit": false,
      "t": 17107.145708333326,
      "d": 1242.8573499999984,
      "v": 87
    },
    {
      "midi": 43,
      "hit": false,
      "t": 17121.43142499999,
      "d": 3414.286283333331,
      "v": 72
    },
    {
      "midi": 55,
      "hit": false,
      "t": 18392.860208333324,
      "d": 1557.1431166666662,
      "v": 46
    },
    {
      "midi": 59,
      "hit": false,
      "t": 18400.003066666657,
      "d": 1542.8574000000008,
      "v": 64
    },
    {
      "midi": 38,
      "hit": false,
      "t": 20528.57484999999,
      "d": 1185.7144833333332,
      "v": 52
    },
    {
      "midi": 54,
      "hit": false,
      "t": 20528.57484999999,
      "d": 2435.714691666668,
      "v": 49
    },
    {
      "midi": 50,
      "hit": false,
      "t": 20528.57484999999,
      "d": 3000.000500000002,
      "v": 32
    },
    {
      "midi": 57,
      "hit": false,
      "t": 20535.717708333323,
      "d": 2392.857541666668,
      "v": 42
    },
    {
      "midi": 38,
      "hit": false,
      "t": 21778.575058333325,
      "d": 2207.143225,
      "v": 43
    },
    {
      "midi": 57,
      "hit": false,
      "t": 23092.860991666657,
      "d": 564.285808333334,
      "v": 76
    },
    {
      "midi": 54,
      "hit": false,
      "t": 23507.14677499999,
      "d": 164.28574166666658,
      "v": 49
    },
    {
      "midi": 45,
      "hit": false,
      "t": 23985.718283333325,
      "d": 3578.5720250000013,
      "v": 34
    },
    {
      "midi": 61,
      "hit": false,
      "t": 24000.00399999999,
      "d": 1242.8573499999984,
      "v": 42
    },
    {
      "midi": 57,
      "hit": false,
      "t": 24000.00399999999,
      "d": 2142.8574999999983,
      "v": 49
    },
    {
      "midi": 47,
      "hit": false,
      "t": 24007.146858333323,
      "d": 214.2857499999991,
      "v": 37
    },
    {
      "midi": 52,
      "hit": false,
      "t": 24021.432574999988,
      "d": 2607.143291666667,
      "v": 41
    },
    {
      "midi": 62,
      "hit": false,
      "t": 25271.432783333323,
      "d": 1664.285991666664,
      "v": 55
    },
    {
      "midi": 61,
      "hit": false,
      "t": 26150.00435833332,
      "d": 778.5715583333331,
      "v": 52
    },
    {
      "midi": 57,
      "hit": false,
      "t": 26757.147316666655,
      "d": 314.28576666666777,
      "v": 48
    },
    {
      "midi": 52,
      "hit": false,
      "t": 27000.00449999999,
      "d": 214.28575000000274,
      "v": 55
    },
    {
      "midi": 54,
      "hit": false,
      "t": 27357.14741666666,
      "d": 2435.7146916666643,
      "v": 41
    },
    {
      "midi": 50,
      "hit": false,
      "t": 27385.718849999994,
      "d": 2307.143241666665,
      "v": 52
    },
    {
      "midi": 57,
      "hit": false,
      "t": 27400.00456666666,
      "d": 2514.2861333333312,
      "v": 51
    },
    {
      "midi": 38,
      "hit": false,
      "t": 28692.861924999994,
      "d": 1257.1430666666638,
      "v": 48
    },
    {
      "midi": 57,
      "hit": false,
      "t": 30000.00499999999,
      "d": 485.71436666666705,
      "v": 58
    },
    {
      "midi": 54,
      "hit": false,
      "t": 30007.147858333323,
      "d": 507.1429416666688,
      "v": 65
    },
    {
      "midi": 42,
      "hit": false,
      "t": 30014.290716666655,
      "d": 814.2858500000038,
      "v": 60
    },
    {
      "midi": 50,
      "hit": false,
      "t": 30414.290783333323,
      "d": 3400.0005666666693,
      "v": 70
    },
    {
      "midi": 54,
      "hit": false,
      "t": 30585.719383333326,
      "d": 192.857175000001,
      "v": 43
    },
    {
      "midi": 43,
      "hit": false,
      "t": 30835.719424999992,
      "d": 850.0001416666637,
      "v": 47
    },
    {
      "midi": 59,
      "hit": false,
      "t": 30835.719424999992,
      "d": 1085.7144666666645,
      "v": 84
    },
    {
      "midi": 55,
      "hit": false,
      "t": 30850.005141666657,
      "d": 1121.4287583333316,
      "v": 62
    },
    {
      "midi": 43,
      "hit": false,
      "t": 31750.005291666657,
      "d": 1971.4289000000026,
      "v": 63
    },
    {
      "midi": 61,
      "hit": false,
      "t": 32128.576783333323,
      "d": 1085.7144666666645,
      "v": 51
    },
    {
      "midi": 57,
      "hit": false,
      "t": 32135.719641666656,
      "d": 1135.7144750000007,
      "v": 56
    },
    {
      "midi": 55,
      "hit": false,
      "t": 33407.14842499999,
      "d": 671.4286833333317,
      "v": 63
    },
    {
      "midi": 59,
      "hit": false,
      "t": 33414.291283333325,
      "d": 678.5715416666644,
      "v": 62
    },
    {
      "midi": 43,
      "hit": false,
      "t": 33828.57706666666,
      "d": 457.142933333329,
      "v": 66
    },
    {
      "midi": 50,
      "hit": false,
      "t": 34242.86284999999,
      "d": 2664.2861583333215,
      "v": 35
    },
    {
      "midi": 54,
      "hit": false,
      "t": 34257.148566666656,
      "d": 2385.7146833333245,
      "v": 42
    },
    {
      "midi": 57,
      "hit": false,
      "t": 34271.43428333332,
      "d": 2342.8575333333283,
      "v": 50
    },
    {
      "midi": 38,
      "hit": false,
      "t": 34271.43428333332,
      "d": 3514.286299999985,
      "v": 60
    },
    {
      "midi": 62,
      "hit": false,
      "t": 36578.577524999986,
      "d": 542.8572333333213,
      "v": 64
    },
    {
      "midi": 57,
      "hit": false,
      "t": 36785.72041666665,
      "d": 464.2857916666617,
      "v": 54
    },
    {
      "midi": 54,
      "hit": false,
      "t": 37000.006166666644,
      "d": 264.2857583333316,
      "v": 70
    },
    {
      "midi": 50,
      "hit": false,
      "t": 37200.006199999974,
      "d": 214.28575000000274,
      "v": 95
    },
    {
      "midi": 61,
      "hit": false,
      "t": 37657.14913333331,
      "d": 1071.4287499999991,
      "v": 43
    },
    {
      "midi": 52,
      "hit": false,
      "t": 37671.434849999976,
      "d": 2557.1432833333383,
      "v": 25
    },
    {
      "midi": 57,
      "hit": false,
      "t": 37685.72056666664,
      "d": 2557.1432833333383,
      "v": 49
    },
    {
      "midi": 45,
      "hit": false,
      "t": 38521.43499166664,
      "d": 1000.0001666666722,
      "v": 56
    },
    {
      "midi": 62,
      "hit": false,
      "t": 38964.29220833331,
      "d": 1200.0002000000022,
      "v": 66
    },
    {
      "midi": 45,
      "hit": false,
      "t": 39842.86378333331,
      "d": 642.8572500000009,
      "v": 61
    },
    {
      "midi": 52,
      "hit": false,
      "t": 40285.72099999998,
      "d": 450.0000749999963,
      "v": 38
    },
    {
      "midi": 57,
      "hit": false,
      "t": 40285.72099999998,
      "d": 828.5715666666583,
      "v": 49
    },
    {
      "midi": 61,
      "hit": false,
      "t": 40292.863858333316,
      "d": 464.2857916666617,
      "v": 70
    },
    {
      "midi": 45,
      "hit": false,
      "t": 40700.006783333316,
      "d": 242.85718333332625,
      "v": 81
    },
    {
      "midi": 55,
      "hit": false,
      "t": 41114.29256666664,
      "d": 1735.7145749999981,
      "v": 53
    },
    {
      "midi": 59,
      "hit": false,
      "t": 41121.435424999974,
      "d": 1671.4288499999966,
      "v": 68
    },
    {
      "midi": 43,
      "hit": false,
      "t": 41121.435424999974,
      "d": 3392.857708333322,
      "v": 60
    },
    {
      "midi": 61,
      "hit": false,
      "t": 42842.86428333331,
      "d": 1135.7144749999934,
      "v": 36
    },
    {
      "midi": 57,
      "hit": false,
      "t": 42864.292858333305,
      "d": 878.5715749999945,
      "v": 56
    },
    {
      "midi": 55,
      "hit": false,
      "t": 43700.0072833333,
      "d": 557.142949999994,
      "v": 36
    },
    {
      "midi": 59,
      "hit": false,
      "t": 43707.150141666636,
      "d": 471.4286499999944,
      "v": 60
    },
    {
      "midi": 50,
      "hit": false,
      "t": 44578.5788583333,
      "d": 1235.7144916666657,
      "v": 43
    },
    {
      "midi": 38,
      "hit": false,
      "t": 44578.5788583333,
      "d": 1571.4288333333388,
      "v": 51
    },
    {
      "midi": 57,
      "hit": false,
      "t": 44592.86457499996,
      "d": 1185.7144833333368,
      "v": 45
    },
    {
      "midi": 54,
      "hit": false,
      "t": 44592.86457499996,
      "d": 1264.2859250000038,
      "v": 43
    },
    {
      "midi": 52,
      "hit": false,
      "t": 46157.15054999997,
      "d": 1307.143075,
      "v": 49
    },
    {
      "midi": 45,
      "hit": false,
      "t": 46185.7219833333,
      "d": 1550.0002583333335,
      "v": 49
    },
    {
      "midi": 57,
      "hit": false,
      "t": 46228.5791333333,
      "d": 1192.8573416666623,
      "v": 32
    },
    {
      "midi": 61,
      "hit": false,
      "t": 46350.00772499997,
      "d": 1121.4287583333353,
      "v": 41
    },
    {
      "midi": 50,
      "hit": false,
      "t": 47800.007966666635,
      "d": 1842.8574500000032,
      "v": 56
    },
    {
      "midi": 38,
      "hit": false,
      "t": 47821.43654166663,
      "d": 1271.4287833333365,
      "v": 63
    },
    {
      "midi": 54,
      "hit": false,
      "t": 47864.29369166664,
      "d": 1721.4288583333328,
      "v": 56
    },
    {
      "midi": 57,
      "hit": false,
      "t": 47935.72227499997,
      "d": 1657.1431333333312,
      "v": 60
    },
    {
      "midi": 38,
      "hit": false,
      "t": 49278.579641666634,
      "d": 878.5715750000018,
      "v": 67
    },
    {
      "midi": 50,
      "hit": false,
      "t": 49692.865424999974,
      "d": 1135.7144749999934,
      "v": 56
    },
    {
      "midi": 57,
      "hit": false,
      "t": 49700.00828333331,
      "d": 892.8572916666599,
      "v": 84
    },
    {
      "midi": 54,
      "hit": false,
      "t": 49728.57971666664,
      "d": 900.0001499999926,
      "v": 50
    },
    {
      "midi": 38,
      "hit": false,
      "t": 50335.72267499997,
      "d": 1092.8573249999972,
      "v": 64
    },
    {
      "midi": 62,
      "hit": false,
      "t": 50578.5798583333,
      "d": 707.1429749999952,
      "v": 69
    },
    {
      "midi": 57,
      "hit": false,
      "t": 50785.722749999964,
      "d": 364.2857750000039,
      "v": 64
    },
    {
      "midi": 54,
      "hit": false,
      "t": 50985.7227833333,
      "d": 250.00004166666622,
      "v": 61
    },
    {
      "midi": 50,
      "hit": false,
      "t": 51164.294241666634,
      "d": 100.00001666666503,
      "v": 78
    },
    {
      "midi": 52,
      "hit": false,
      "t": 51428.579999999965,
      "d": 857.1429999999964,
      "v": 69
    },
    {
      "midi": 57,
      "hit": false,
      "t": 51428.579999999965,
      "d": 857.1429999999964,
      "v": 69
    },
    {
      "midi": 61,
      "hit": false,
      "t": 51428.579999999965,
      "d": 857.1429999999964,
      "v": 69
    },
    {
      "midi": 45,
      "hit": false,
      "t": 52671.437349999964,
      "d": 42.85714999999618,
      "v": 53
    },
    {
      "midi": 62,
      "hit": false,
      "t": 52692.86592499996,
      "d": 342.85719999999856,
      "v": 78
    },
    {
      "midi": 57,
      "hit": false,
      "t": 53100.00884999996,
      "d": 1450.0002416666684,
      "v": 45
    },
    {
      "midi": 61,
      "hit": false,
      "t": 53107.151708333295,
      "d": 835.7144249999983,
      "v": 52
    },
    {
      "midi": 52,
      "hit": false,
      "t": 53107.151708333295,
      "d": 1457.1431000000011,
      "v": 53
    },
    {
      "midi": 45,
      "hit": false,
      "t": 53821.43754166663,
      "d": 521.4286583333305,
      "v": 69
    },
    {
      "midi": 45,
      "hit": false,
      "t": 54421.43764166663,
      "d": 414.2857833333328,
      "v": 95
    },
    {
      "midi": 38,
      "hit": false,
      "t": 54814.29484999996,
      "d": 1185.7144833333296,
      "v": 69
    },
    {
      "midi": 50,
      "hit": false,
      "t": 54821.437708333295,
      "d": 2200.00036666666,
      "v": 64
    },
    {
      "midi": 54,
      "hit": false,
      "t": 54828.58056666663,
      "d": 1600.0002666666624,
      "v": 55
    },
    {
      "midi": 57,
      "hit": false,
      "t": 54828.58056666663,
      "d": 1628.5716999999931,
      "v": 60
    },
    {
      "midi": 38,
      "hit": false,
      "t": 56121.437924999955,
      "d": 1292.8573583333346,
      "v": 65
    },
    {
      "midi": 57,
      "hit": false,
      "t": 56542.86656666662,
      "d": 1564.2859749999989,
      "v": 86
    },
    {
      "midi": 50,
      "hit": false,
      "t": 57414.29528333329,
      "d": 507.14294166666514,
      "v": 67
    },
    {
      "midi": 54,
      "hit": false,
      "t": 57414.29528333329,
      "d": 742.857266666666,
      "v": 66
    },
    {
      "midi": 42,
      "hit": false,
      "t": 57428.580999999955,
      "d": 364.28577499999665,
      "v": 66
    },
    {
      "midi": 42,
      "hit": false,
      "t": 57857.15249999995,
      "d": 478.57150833333435,
      "v": 65
    },
    {
      "midi": 50,
      "hit": false,
      "t": 58071.438249999956,
      "d": 6557.143949999991,
      "v": 59
    },
    {
      "midi": 43,
      "hit": false,
      "t": 58307.15257499996,
      "d": 878.5715749999945,
      "v": 55
    },
    {
      "midi": 55,
      "hit": false,
      "t": 58314.29543333329,
      "d": 1478.571674999992,
      "v": 84
    },
    {
      "midi": 59,
      "hit": false,
      "t": 58321.43829166662,
      "d": 1471.4288166666593,
      "v": 84
    },
    {
      "midi": 43,
      "hit": false,
      "t": 59528.58134999995,
      "d": 992.8573083333322,
      "v": 64
    },
    {
      "midi": 61,
      "hit": false,
      "t": 59964.29570833328,
      "d": 714.2858333333352,
      "v": 75
    },
    {
      "midi": 57,
      "hit": false,
      "t": 59978.581424999946,
      "d": 728.5715500000006,
      "v": 68
    },
    {
      "midi": 43,
      "hit": false,
      "t": 60628.58153333328,
      "d": 357.14291666666395,
      "v": 67
    },
    {
      "midi": 55,
      "hit": false,
      "t": 60814.295849999944,
      "d": 557.142949999994,
      "v": 84
    },
    {
      "midi": 57,
      "hit": false,
      "t": 60828.58156666661,
      "d": 107.14287499999773,
      "v": 72
    },
    {
      "midi": 59,
      "hit": false,
      "t": 60835.72442499994,
      "d": 607.1429583333302,
      "v": 61
    },
    {
      "midi": 43,
      "hit": false,
      "t": 61257.15306666661,
      "d": 407.1429250000001,
      "v": 66
    },
    {
      "midi": 38,
      "hit": false,
      "t": 61707.15314166661,
      "d": 1064.2858916666664,
      "v": 64
    },
    {
      "midi": 54,
      "hit": false,
      "t": 61714.295999999944,
      "d": 1550.0002583333335,
      "v": 62
    },
    {
      "midi": 57,
      "hit": false,
      "t": 61714.295999999944,
      "d": 1578.5716916666643,
      "v": 66
    },
    {
      "midi": 38,
      "hit": false,
      "t": 62985.72478333328,
      "d": 842.8572833333237,
      "v": 56
    },
    {
      "midi": 57,
      "hit": false,
      "t": 63414.29628333327,
      "d": 864.2858583333364,
      "v": 80
    },
    {
      "midi": 38,
      "hit": false,
      "t": 64042.86781666661,
      "d": 1000.0001666666722,
      "v": 60
    },
    {
      "midi": 62,
      "hit": false,
      "t": 64250.01070833328,
      "d": 742.857266666666,
      "v": 70
    },
    {
      "midi": 57,
      "hit": false,
      "t": 64492.86789166661,
      "d": 378.5714916666693,
      "v": 59
    },
    {
      "midi": 54,
      "hit": false,
      "t": 64700.01078333328,
      "d": 264.2857583333316,
      "v": 43
    },
    {
      "midi": 50,
      "hit": false,
      "t": 64757.15364999995,
      "d": 192.85717499999737,
      "v": 10
    },
    {
      "midi": 45,
      "hit": false,
      "t": 65042.86798333328,
      "d": 1107.1430416666626,
      "v": 62
    },
    {
      "midi": 57,
      "hit": false,
      "t": 66000.01099999994,
      "d": 428.57150000000547,
      "v": 56
    },
    {
      "midi": 62,
      "hit": false,
      "t": 66000.01099999994,
      "d": 428.57150000000547,
      "v": 71
    },
    {
      "midi": 45,
      "hit": false,
      "t": 66407.15392499995,
      "d": 900.0001499999926,
      "v": 65
    },
    {
      "midi": 57,
      "hit": false,
      "t": 66835.72542499994,
      "d": 735.7144083333405,
      "v": 86
    },
    {
      "midi": 61,
      "hit": false,
      "t": 66835.72542499994,
      "d": 757.1429833333386,
      "v": 72
    },
    {
      "midi": 45,
      "hit": false,
      "t": 67442.86838333328,
      "d": 414.2857833333401,
      "v": 69
    },
    {
      "midi": 61,
      "hit": false,
      "t": 67700.01128333328,
      "d": 542.8572333333286,
      "v": 65
    },
    {
      "midi": 57,
      "hit": false,
      "t": 67721.43985833328,
      "d": 614.2858166666556,
      "v": 95
    },
    {
      "midi": 45,
      "hit": false,
      "t": 68092.86849166661,
      "d": 192.85717499999737,
      "v": 93
    },
    {
      "midi": 43,
      "hit": false,
      "t": 68464.29712499994,
      "d": 142.8571666666685,
      "v": 53
    },
    {
      "midi": 55,
      "hit": false,
      "t": 68500.0114166666,
      "d": 1592.8574083333224,
      "v": 73
    },
    {
      "midi": 59,
      "hit": false,
      "t": 68514.29713333327,
      "d": 1521.4288249999954,
      "v": 93
    },
    {
      "midi": 43,
      "hit": false,
      "t": 69814.29734999994,
      "d": 885.7144333333126,
      "v": 82
    },
    {
      "midi": 61,
      "hit": false,
      "t": 70300.01171666659,
      "d": 800.0001333333203,
      "v": 72
    },
    {
      "midi": 57,
      "hit": false,
      "t": 70307.15457499992,
      "d": 757.1429833333241,
      "v": 93
    },
    {
      "midi": 43,
      "hit": false,
      "t": 70778.58322499991,
      "d": 535.7143749999959,
      "v": 78
    },
    {
      "midi": 59,
      "hit": false,
      "t": 71121.4404249999,
      "d": 571.428666666674,
      "v": 70
    },
    {
      "midi": 55,
      "hit": false,
      "t": 71135.72614166657,
      "d": 557.1429500000086,
      "v": 68
    },
    {
      "midi": 43,
      "hit": false,
      "t": 71578.58335833324,
      "d": 400.0000666666747,
      "v": 53
    },
    {
      "midi": 50,
      "hit": false,
      "t": 71978.58342499992,
      "d": 2664.2861583333433,
      "v": 66
    },
    {
      "midi": 57,
      "hit": false,
      "t": 71978.58342499992,
      "d": 2692.857591666674,
      "v": 64
    },
    {
      "midi": 54,
      "hit": false,
      "t": 71985.72628333325,
      "d": 2685.7147333333414,
      "v": 52
    },
    {
      "midi": 38,
      "hit": false,
      "t": 71992.86914166658,
      "d": 1071.4287500000064,
      "v": 68
    },
    {
      "midi": 38,
      "hit": false,
      "t": 73207.15505833326,
      "d": 400.00006666666013,
      "v": 81
    },
    {
      "midi": 40,
      "hit": false,
      "t": 73692.86942499992,
      "d": 771.428700000004,
      "v": 89
    },
    {
      "midi": 42,
      "hit": false,
      "t": 74578.58385833327,
      "d": 785.7144166666549,
      "v": 98
    },
    {
      "midi": 50,
      "hit": false,
      "t": 75200.01253333325,
      "d": 1821.4288749999978,
      "v": 12
    },
    {
      "midi": 43,
      "hit": false,
      "t": 75328.58398333326,
      "d": 1092.85732499999,
      "v": 71
    },
    {
      "midi": 55,
      "hit": false,
      "t": 75435.72685833325,
      "d": 1578.5716916666715,
      "v": 91
    },
    {
      "midi": 59,
      "hit": false,
      "t": 75435.72685833325,
      "d": 1600.0002666666696,
      "v": 86
    },
    {
      "midi": 43,
      "hit": false,
      "t": 76678.58420833325,
      "d": 1064.2858916666737,
      "v": 89
    },
    {
      "midi": 50,
      "hit": false,
      "t": 77142.86999999992,
      "d": 800.0001333333348,
      "v": 65
    },
    {
      "midi": 55,
      "hit": false,
      "t": 77150.01285833326,
      "d": 757.1429833333386,
      "v": 68
    },
    {
      "midi": 59,
      "hit": false,
      "t": 77157.15571666659,
      "d": 757.1429833333386,
      "v": 72
    },
    {
      "midi": 43,
      "hit": false,
      "t": 77792.87010833326,
      "d": 428.5714999999909,
      "v": 64
    },
    {
      "midi": 50,
      "hit": false,
      "t": 78014.29871666658,
      "d": 2464.286124999984,
      "v": 45
    },
    {
      "midi": 55,
      "hit": false,
      "t": 78021.44157499992,
      "d": 657.1429666666518,
      "v": 55
    },
    {
      "midi": 59,
      "hit": false,
      "t": 78021.44157499992,
      "d": 664.2858249999845,
      "v": 63
    },
    {
      "midi": 43,
      "hit": false,
      "t": 78435.72735833324,
      "d": 1364.2859416666615,
      "v": 86
    },
    {
      "midi": 54,
      "hit": false,
      "t": 78857.1559999999,
      "d": 1642.8574166666658,
      "v": 67
    },
    {
      "midi": 57,
      "hit": false,
      "t": 78871.44171666657,
      "d": 1635.7145583333331,
      "v": 73
    },
    {
      "midi": 43,
      "hit": false,
      "t": 80078.58477499991,
      "d": 850.0001416666491,
      "v": 64
    },
    {
      "midi": 50,
      "hit": false,
      "t": 80571.4419999999,
      "d": 1042.857316666661,
      "v": 71
    },
    {
      "midi": 54,
      "hit": false,
      "t": 80585.72771666656,
      "d": 1085.7144666666572,
      "v": 64
    },
    {
      "midi": 57,
      "hit": false,
      "t": 80592.87057499989,
      "d": 1028.5715999999957,
      "v": 68
    },
    {
      "midi": 57,
      "hit": false,
      "t": 82271.44228333322,
      "d": 735.714408333326,
      "v": 84
    },
    {
      "midi": 64,
      "hit": false,
      "t": 82271.44228333322,
      "d": 742.8572666666587,
      "v": 72
    },
    {
      "midi": 62,
      "hit": false,
      "t": 82271.44228333322,
      "d": 757.1429833333241,
      "v": 87
    },
    {
      "midi": 45,
      "hit": false,
      "t": 82900.01381666656,
      "d": 557.142949999994,
      "v": 89
    },
    {
      "midi": 57,
      "hit": false,
      "t": 83135.72814166655,
      "d": 721.4286916666606,
      "v": 68
    },
    {
      "midi": 62,
      "hit": false,
      "t": 83150.01385833322,
      "d": 614.2858166666556,
      "v": 100
    },
    {
      "midi": 64,
      "hit": false,
      "t": 83157.15671666655,
      "d": 728.5715499999933,
      "v": 93
    },
    {
      "midi": 45,
      "hit": false,
      "t": 83535.72820833321,
      "d": 1000.0001666666649,
      "v": 73
    },
    {
      "midi": 57,
      "hit": false,
      "t": 84007.15685833321,
      "d": 764.2858416666713,
      "v": 70
    },
    {
      "midi": 61,
      "hit": false,
      "t": 84014.29971666654,
      "d": 742.8572666666732,
      "v": 77
    },
    {
      "midi": 64,
      "hit": false,
      "t": 84014.29971666654,
      "d": 757.1429833333386,
      "v": 84
    },
    {
      "midi": 45,
      "hit": false,
      "t": 84635.72839166655,
      "d": 392.857208333342,
      "v": 77
    },
    {
      "midi": 61,
      "hit": false,
      "t": 84878.58557499989,
      "d": 464.28579166666896,
      "v": 79
    },
    {
      "midi": 57,
      "hit": false,
      "t": 84878.58557499989,
      "d": 492.85722499999974,
      "v": 70
    },
    {
      "midi": 64,
      "hit": false,
      "t": 84892.87129166655,
      "d": 407.1429250000074,
      "v": 81
    },
    {
      "midi": 45,
      "hit": false,
      "t": 85307.1570749999,
      "d": 428.5714999999909,
      "v": 89
    },
    {
      "midi": 38,
      "hit": false,
      "t": 85728.58571666655,
      "d": 171.42859999999928,
      "v": 52
    },
    {
      "midi": 50,
      "hit": false,
      "t": 85735.72857499988,
      "d": 700.0001166666625,
      "v": 64
    },
    {
      "midi": 55,
      "hit": false,
      "t": 85735.72857499988,
      "d": 735.714408333326,
      "v": 56
    },
    {
      "midi": 57,
      "hit": false,
      "t": 85742.87143333322,
      "d": 707.1429749999952,
      "v": 63
    },
    {
      "midi": 38,
      "hit": false,
      "t": 86257.15723333322,
      "d": 971.4287333333195,
      "v": 60
    },
    {
      "midi": 50,
      "hit": false,
      "t": 86578.58585833322,
      "d": 1578.571691666657,
      "v": 73
    },
    {
      "midi": 55,
      "hit": false,
      "t": 86592.87157499988,
      "d": 200.00003333333007,
      "v": 70
    },
    {
      "midi": 57,
      "hit": false,
      "t": 86592.87157499988,
      "d": 300.0000500000024,
      "v": 73
    },
    {
      "midi": 57,
      "hit": false,
      "t": 86942.87163333321,
      "d": 414.2857833333255,
      "v": 40
    },
    {
      "midi": 54,
      "hit": false,
      "t": 86978.58592499988,
      "d": 250.00004166665894,
      "v": 77
    },
    {
      "midi": 52,
      "hit": false,
      "t": 87185.72881666654,
      "d": 157.14288333333388,
      "v": 93
    },
    {
      "midi": 38,
      "hit": false,
      "t": 87392.8717083332,
      "d": 328.57148333333316,
      "v": 64
    },
    {
      "midi": 57,
      "hit": false,
      "t": 87400.01456666653,
      "d": 764.2858416666713,
      "v": 50
    },
    {
      "midi": 54,
      "hit": false,
      "t": 87414.3002833332,
      "d": 721.4286916666751,
      "v": 81
    },
    {
      "midi": 38,
      "hit": false,
      "t": 87864.3003583332,
      "d": 371.42863333332934,
      "v": 68
    },
    {
      "midi": 50,
      "hit": false,
      "t": 88242.87184999986,
      "d": 521.4286583333305,
      "v": 70
    },
    {
      "midi": 57,
      "hit": false,
      "t": 88257.15756666653,
      "d": 535.7143749999959,
      "v": 78
    },
    {
      "midi": 54,
      "hit": false,
      "t": 88257.15756666653,
      "d": 542.8572333333286,
      "v": 111
    },
    {
      "midi": 42,
      "hit": false,
      "t": 88285.72899999986,
      "d": 264.2857583333389,
      "v": 92
    },
    {
      "midi": 42,
      "hit": false,
      "t": 88692.87192499987,
      "d": 400.00006666666013,
      "v": 95
    },
    {
      "midi": 43,
      "hit": false,
      "t": 89121.44342499986,
      "d": 1050.0001749999938,
      "v": 64
    },
    {
      "midi": 55,
      "hit": false,
      "t": 89121.44342499986,
      "d": 1578.571691666657,
      "v": 64
    },
    {
      "midi": 59,
      "hit": false,
      "t": 89121.44342499986,
      "d": 1607.1431249999878,
      "v": 80
    },
    {
      "midi": 62,
      "hit": false,
      "t": 89128.58628333319,
      "d": 1614.2859833333205,
      "v": 89
    },
    {
      "midi": 43,
      "hit": false,
      "t": 90400.01506666651,
      "d": 1492.8573916666646,
      "v": 86
    },
    {
      "midi": 55,
      "hit": false,
      "t": 90857.15799999985,
      "d": 1321.4287916666508,
      "v": 76
    },
    {
      "midi": 62,
      "hit": false,
      "t": 90864.30085833318,
      "d": 1378.5716583333124,
      "v": 100
    },
    {
      "midi": 59,
      "hit": false,
      "t": 90871.44371666652,
      "d": 1328.5716499999835,
      "v": 87
    },
    {
      "midi": 43,
      "hit": false,
      "t": 92121.44392499984,
      "d": 257.14289999999164,
      "v": 66
    },
    {
      "midi": 45,
      "hit": false,
      "t": 92328.5868166665,
      "d": 221.42860833332816,
      "v": 72
    },
    {
      "midi": 66,
      "hit": false,
      "t": 92542.8725666665,
      "d": 1614.285983333335,
      "v": 48
    },
    {
      "midi": 47,
      "hit": false,
      "t": 92557.15828333316,
      "d": 1085.7144666666718,
      "v": 86
    },
    {
      "midi": 62,
      "hit": false,
      "t": 92557.15828333316,
      "d": 1600.0002666666696,
      "v": 70
    },
    {
      "midi": 59,
      "hit": false,
      "t": 92564.3011416665,
      "d": 1571.4288333333388,
      "v": 58
    },
    {
      "midi": 47,
      "hit": false,
      "t": 93850.0156416665,
      "d": 942.8573000000033,
      "v": 65
    },
    {
      "midi": 59,
      "hit": false,
      "t": 94292.87285833317,
      "d": 1278.5716416666692,
      "v": 60
    },
    {
      "midi": 62,
      "hit": false,
      "t": 94300.0157166665,
      "d": 700.0001166666771,
      "v": 74
    },
    {
      "midi": 66,
      "hit": false,
      "t": 94307.15857499983,
      "d": 728.5715500000078,
      "v": 60
    },
    {
      "midi": 47,
      "hit": false,
      "t": 94885.73009999984,
      "d": 1057.1430333333265,
      "v": 51
    },
    {
      "midi": 66,
      "hit": false,
      "t": 95078.58727499984,
      "d": 435.71435833333817,
      "v": 36
    },
    {
      "midi": 62,
      "hit": false,
      "t": 95100.01584999984,
      "d": 442.85721666667087,
      "v": 67
    },
    {
      "midi": 40,
      "hit": false,
      "t": 95978.58742499983,
      "d": 1064.2858916666592,
      "v": 60
    },
    {
      "midi": 52,
      "hit": false,
      "t": 95985.73028333316,
      "d": 1021.428741666663,
      "v": 55
    },
    {
      "midi": 55,
      "hit": false,
      "t": 95992.8731416665,
      "d": 1042.857316666661,
      "v": 58
    },
    {
      "midi": 59,
      "hit": false,
      "t": 95992.8731416665,
      "d": 1057.1430333333265,
      "v": 60
    },
    {
      "midi": 52,
      "hit": false,
      "t": 97250.01620833315,
      "d": 114.2857333333377,
      "v": 58
    },
    {
      "midi": 55,
      "hit": false,
      "t": 97250.01620833315,
      "d": 142.8571666666685,
      "v": 64
    },
    {
      "midi": 59,
      "hit": false,
      "t": 97257.15906666649,
      "d": 164.28574166666658,
      "v": 64
    },
    {
      "midi": 40,
      "hit": false,
      "t": 97278.58764166648,
      "d": 128.5714500000031,
      "v": 86
    },
    {
      "midi": 54,
      "hit": false,
      "t": 97700.01628333316,
      "d": 792.8572749999876,
      "v": 39
    },
    {
      "midi": 57,
      "hit": false,
      "t": 97714.30199999982,
      "d": 857.1429999999818,
      "v": 65
    },
    {
      "midi": 42,
      "hit": false,
      "t": 97721.44485833315,
      "d": 1621.4288416666532,
      "v": 69
    },
    {
      "midi": 61,
      "hit": false,
      "t": 97757.15914999982,
      "d": 835.7144249999837,
      "v": 38
    },
    {
      "midi": 57,
      "hit": false,
      "t": 99435.73085833315,
      "d": 2200.00036666666,
      "v": 62
    },
    {
      "midi": 62,
      "hit": false,
      "t": 99442.87371666648,
      "d": 1621.4288416666677,
      "v": 76
    },
    {
      "midi": 64,
      "hit": false,
      "t": 99442.87371666648,
      "d": 1692.8574249999947,
      "v": 72
    },
    {
      "midi": 45,
      "hit": false,
      "t": 99450.01657499981,
      "d": 2257.1432333333214,
      "v": 68
    },
    {
      "midi": 61,
      "hit": false,
      "t": 101178.58829166647,
      "d": 350.0000583333458,
      "v": 52
    },
    {
      "midi": 64,
      "hit": false,
      "t": 101435.73119166648,
      "d": 171.42859999999928,
      "v": 43
    },
    {
      "midi": 52,
      "hit": false,
      "t": 102450.0170749998,
      "d": 1564.2859749999916,
      "v": 64
    },
    {
      "midi": 54,
      "hit": false,
      "t": 102621.4456749998,
      "d": 235.71432499999355,
      "v": 59
    },
    {
      "midi": 55,
      "hit": false,
      "t": 102864.30285833313,
      "d": 1164.2859083333315,
      "v": 84
    },
    {
      "midi": 38,
      "hit": false,
      "t": 102871.44571666647,
      "d": 3364.2862749999913,
      "v": 65
    },
    {
      "midi": 50,
      "hit": false,
      "t": 104128.58878333314,
      "d": 1314.2859333333327,
      "v": 76
    },
    {
      "midi": 54,
      "hit": false,
      "t": 104135.73164166647,
      "d": 1321.4287916666653,
      "v": 50
    },
    {
      "midi": 57,
      "hit": false,
      "t": 104135.73164166647,
      "d": 1350.0002249999961,
      "v": 66
    },
    {
      "midi": 57,
      "hit": false,
      "t": 105864.30335833313,
      "d": 321.42862500000047,
      "v": 59
    },
    {
      "midi": 59,
      "hit": false,
      "t": 106064.30339166646,
      "d": 264.28575833332434,
      "v": 69
    },
    {
      "midi": 57,
      "hit": false,
      "t": 106278.58914166645,
      "d": 1114.2859000000026,
      "v": 76
    },
    {
      "midi": 60,
      "hit": false,
      "t": 106285.73199999979,
      "d": 1257.143066666671,
      "v": 95
    },
    {
      "midi": 43,
      "hit": false,
      "t": 106300.01771666645,
      "d": 2964.286208333331,
      "v": 67
    },
    {
      "midi": 55,
      "hit": false,
      "t": 107557.16078333312,
      "d": 1478.5716749999992,
      "v": 65
    },
    {
      "midi": 59,
      "hit": false,
      "t": 107571.44649999979,
      "d": 1414.285950000005,
      "v": 80
    },
    {
      "midi": 50,
      "hit": false,
      "t": 109678.58970833311,
      "d": 3014.28621666666,
      "v": 54
    },
    {
      "midi": 38,
      "hit": false,
      "t": 109685.73256666644,
      "d": 785.7144166666549,
      "v": 53
    },
    {
      "midi": 54,
      "hit": false,
      "t": 109685.73256666644,
      "d": 2250.0003749999887,
      "v": 48
    },
    {
      "midi": 57,
      "hit": false,
      "t": 109692.87542499977,
      "d": 1835.7145916666632,
      "v": 45
    },
    {
      "midi": 38,
      "hit": false,
      "t": 110992.87564166643,
      "d": 942.8573000000033,
      "v": 44
    },
    {
      "midi": 62,
      "hit": false,
      "t": 111428.58999999976,
      "d": 1414.285950000005,
      "v": 64
    },
    {
      "midi": 38,
      "hit": false,
      "t": 112114.30439999976,
      "d": 3421.4291416666674,
      "v": 55
    },
    {
      "midi": 57,
      "hit": false,
      "t": 112364.30444166643,
      "d": 385.71434999999474,
      "v": 58
    },
    {
      "midi": 61,
      "hit": false,
      "t": 113185.73314999977,
      "d": 942.8573000000033,
      "v": 48
    },
    {
      "midi": 57,
      "hit": false,
      "t": 113185.73314999977,
      "d": 1114.2859000000026,
      "v": 44
    },
    {
      "midi": 62,
      "hit": false,
      "t": 114392.87620833311,
      "d": 171.42859999999928,
      "v": 64
    },
    {
      "midi": 57,
      "hit": false,
      "t": 114407.16192499977,
      "d": 214.28574999999546,
      "v": 45
    },
    {
      "midi": 61,
      "hit": false,
      "t": 114857.16199999976,
      "d": 1328.571649999998,
      "v": 49
    },
    {
      "midi": 57,
      "hit": false,
      "t": 114878.59057499976,
      "d": 1307.143075,
      "v": 44
    },
    {
      "midi": 38,
      "hit": false,
      "t": 115735.73357499976,
      "d": 671.4286833333317,
      "v": 64
    },
    {
      "midi": 50,
      "hit": false,
      "t": 116542.87656666643,
      "d": 2142.8574999999837,
      "v": 54
    },
    {
      "midi": 57,
      "hit": false,
      "t": 116542.87656666643,
      "d": 2457.1432666666515,
      "v": 55
    },
    {
      "midi": 38,
      "hit": false,
      "t": 116550.01942499976,
      "d": 1128.571616666668,
      "v": 63
    },
    {
      "midi": 54,
      "hit": false,
      "t": 116557.16228333309,
      "d": 1571.4288333333243,
      "v": 48
    },
    {
      "midi": 38,
      "hit": false,
      "t": 117900.01964999975,
      "d": 1200.000199999995,
      "v": 48
    },
    {
      "midi": 50,
      "hit": false,
      "t": 118850.01980833308,
      "d": 500.00008333333244,
      "v": 63
    },
    {
      "midi": 42,
      "hit": false,
      "t": 119142.87699999975,
      "d": 864.2858583333291,
      "v": 66
    },
    {
      "midi": 54,
      "hit": false,
      "t": 119150.01985833308,
      "d": 550.0000916666613,
      "v": 62
    },
    {
      "midi": 57,
      "hit": false,
      "t": 119164.30557499974,
      "d": 450.000074999989,
      "v": 51
    },
    {
      "midi": 50,
      "hit": false,
      "t": 119592.87707499973,
      "d": 1528.5716833333427,
      "v": 72
    },
    {
      "midi": 55,
      "hit": false,
      "t": 119957.16284999975,
      "d": 892.8572916666599,
      "v": 55
    },
    {
      "midi": 43,
      "hit": false,
      "t": 119985.73428333308,
      "d": 1178.5716249999969,
      "v": 61
    },
    {
      "midi": 59,
      "hit": false,
      "t": 119992.87714166641,
      "d": 828.5715666666656,
      "v": 52
    },
    {
      "midi": 61,
      "hit": false,
      "t": 121271.44878333308,
      "d": 992.8573083333322,
      "v": 49
    },
    {
      "midi": 57,
      "hit": false,
      "t": 121285.73449999974,
      "d": 978.5715916666668,
      "v": 50
    },
    {
      "midi": 50,
      "hit": false,
      "t": 121300.02021666641,
      "d": 1157.1430499999988,
      "v": 43
    },
    {
      "midi": 43,
      "hit": false,
      "t": 121307.16307499974,
      "d": 357.14291666666395,
      "v": 52
    },
    {
      "midi": 43,
      "hit": false,
      "t": 121764.30600833308,
      "d": 728.5715499999933,
      "v": 58
    },
    {
      "midi": 59,
      "hit": false,
      "t": 122621.44900833307,
      "d": 592.857241666672,
      "v": 56
    },
    {
      "midi": 55,
      "hit": false,
      "t": 122628.59186666641,
      "d": 592.857241666672,
      "v": 42
    },
    {
      "midi": 50,
      "hit": false,
      "t": 122628.59186666641,
      "d": 3735.7149083333206,
      "v": 56
    },
    {
      "midi": 43,
      "hit": false,
      "t": 122650.0204416664,
      "d": 742.8572666666732,
      "v": 61
    },
    {
      "midi": 38,
      "hit": false,
      "t": 123392.87770833308,
      "d": 1050.0001749999938,
      "v": 46
    },
    {
      "midi": 54,
      "hit": false,
      "t": 123400.02056666641,
      "d": 1885.714599999992,
      "v": 41
    },
    {
      "midi": 57,
      "hit": false,
      "t": 123400.02056666641,
      "d": 2342.8575333333283,
      "v": 49
    },
    {
      "midi": 38,
      "hit": false,
      "t": 124678.59220833307,
      "d": 1264.2859250000038,
      "v": 46
    },
    {
      "midi": 62,
      "hit": false,
      "t": 125150.02085833307,
      "d": 1307.143075,
      "v": 50
    },
    {
      "midi": 54,
      "hit": false,
      "t": 125957.16384999974,
      "d": 407.14292499999283,
      "v": 41
    },
    {
      "midi": 57,
      "hit": false,
      "t": 125971.4495666664,
      "d": 364.28577499999665,
      "v": 41
    },
    {
      "midi": 38,
      "hit": false,
      "t": 126564.30680833307,
      "d": 157.14288333333388,
      "v": 10
    },
    {
      "midi": 62,
      "hit": false,
      "t": 126907.16400833307,
      "d": 1314.2859333333327,
      "v": 64
    },
    {
      "midi": 57,
      "hit": false,
      "t": 126935.7354416664,
      "d": 1407.1430916666723,
      "v": 47
    },
    {
      "midi": 45,
      "hit": false,
      "t": 128121.44992499973,
      "d": 971.4287333333341,
      "v": 55
    },
    {
      "midi": 57,
      "hit": false,
      "t": 128600.02143333307,
      "d": 1142.8573333333334,
      "v": 60
    },
    {
      "midi": 61,
      "hit": false,
      "t": 128600.02143333307,
      "d": 1207.1430583333276,
      "v": 49
    },
    {
      "midi": 45,
      "hit": false,
      "t": 129435.73585833306,
      "d": 314.28576666666777,
      "v": 74
    },
    {
      "midi": 45,
      "hit": false,
      "t": 129850.02164166639,
      "d": 207.14289166666276,
      "v": 64
    },
    {
      "midi": 61,
      "hit": false,
      "t": 129857.16449999972,
      "d": 207.14289166666276,
      "v": 42
    },
    {
      "midi": 57,
      "hit": false,
      "t": 129864.30735833306,
      "d": 228.57146666666085,
      "v": 73
    },
    {
      "midi": 44,
      "hit": false,
      "t": 130050.02167499972,
      "d": 121.42859166665585,
      "v": 56
    },
    {
      "midi": 43,
      "hit": false,
      "t": 130264.30742499972,
      "d": 450.000074999989,
      "v": 61
    },
    {
      "midi": 55,
      "hit": false,
      "t": 130271.45028333305,
      "d": 1342.8573666666343,
      "v": 49
    },
    {
      "midi": 62,
      "hit": false,
      "t": 130278.59314166638,
      "d": 1350.000224999967,
      "v": 69
    },
    {
      "midi": 59,
      "hit": false,
      "t": 130278.59314166638,
      "d": 1471.4288166666229,
      "v": 64
    },
    {
      "midi": 43,
      "hit": false,
      "t": 131521.45049166636,
      "d": 900.000149999978,
      "v": 37
    },
    {
      "midi": 57,
      "hit": false,
      "t": 132021.45057499968,
      "d": 564.2858083333122,
      "v": 49
    },
    {
      "midi": 61,
      "hit": false,
      "t": 132028.593433333,
      "d": 657.1429666666372,
      "v": 50
    },
    {
      "midi": 43,
      "hit": false,
      "t": 132521.450658333,
      "d": 400.00006666666013,
      "v": 64
    },
    {
      "midi": 55,
      "hit": false,
      "t": 132850.02214166633,
      "d": 450.000074999989,
      "v": 47
    },
    {
      "midi": 59,
      "hit": false,
      "t": 132864.307858333,
      "d": 385.71434999999474,
      "v": 64
    },
    {
      "midi": 43,
      "hit": false,
      "t": 133250.022208333,
      "d": 457.1429333333508,
      "v": 40
    },
    {
      "midi": 54,
      "hit": false,
      "t": 133707.16514166634,
      "d": 2071.4289166666567,
      "v": 44
    },
    {
      "midi": 50,
      "hit": false,
      "t": 133707.16514166634,
      "d": 2121.4289249999856,
      "v": 46
    },
    {
      "midi": 38,
      "hit": false,
      "t": 133714.30799999967,
      "d": 2435.7146916666534,
      "v": 59
    },
    {
      "midi": 57,
      "hit": false,
      "t": 133728.59371666634,
      "d": 2042.857483333326,
      "v": 55
    },
    {
      "midi": 35,
      "hit": false,
      "t": 137114.30856666632,
      "d": 642.8572500000009,
      "v": 97
    },
    {
      "midi": 47,
      "hit": false,
      "t": 137121.45142499966,
      "d": 407.14292499999283,
      "v": 81
    },
    {
      "midi": 50,
      "hit": false,
      "t": 137121.45142499966,
      "d": 435.7143583333236,
      "v": 97
    },
    {
      "midi": 54,
      "hit": false,
      "t": 137121.45142499966,
      "d": 450.000074999989,
      "v": 65
    },
    {
      "midi": 52,
      "hit": false,
      "t": 137985.737283333,
      "d": 450.000074999989,
      "v": 77
    },
    {
      "midi": 49,
      "hit": false,
      "t": 137985.737283333,
      "d": 457.1429333333217,
      "v": 64
    },
    {
      "midi": 37,
      "hit": false,
      "t": 137992.88014166633,
      "d": 614.285816666641,
      "v": 106
    },
    {
      "midi": 56,
      "hit": false,
      "t": 138000.02299999967,
      "d": 435.7143583333236,
      "v": 58
    },
    {
      "midi": 54,
      "hit": false,
      "t": 138835.73742499965,
      "d": 714.2858333332988,
      "v": 70
    },
    {
      "midi": 38,
      "hit": false,
      "t": 138842.88028333298,
      "d": 471.4286499999871,
      "v": 82
    },
    {
      "midi": 57,
      "hit": false,
      "t": 138850.02314166632,
      "d": 692.8572583333007,
      "v": 78
    },
    {
      "midi": 50,
      "hit": false,
      "t": 138850.02314166632,
      "d": 800.0001333332912,
      "v": 87
    },
    {
      "midi": 38,
      "hit": false,
      "t": 139450.0232416663,
      "d": 950.000158333336,
      "v": 84
    },
    {
      "midi": 57,
      "hit": false,
      "t": 139678.59470833294,
      "d": 700.0001166666916,
      "v": 100
    },
    {
      "midi": 54,
      "hit": false,
      "t": 139900.02331666628,
      "d": 485.7143666666816,
      "v": 89
    },
    {
      "midi": 50,
      "hit": false,
      "t": 140142.88049999962,
      "d": 228.5714666666754,
      "v": 111
    },
    {
      "midi": 52,
      "hit": false,
      "t": 140542.88056666628,
      "d": 557.1429500000086,
      "v": 86
    },
    {
      "midi": 55,
      "hit": false,
      "t": 140550.0234249996,
      "d": 535.7143750000105,
      "v": 71
    },
    {
      "midi": 40,
      "hit": false,
      "t": 140557.16628333295,
      "d": 664.285824999999,
      "v": 93
    },
    {
      "midi": 59,
      "hit": false,
      "t": 140564.30914166628,
      "d": 550.0000916666759,
      "v": 68
    },
    {
      "midi": 54,
      "hit": false,
      "t": 141407.16642499962,
      "d": 464.2857916666544,
      "v": 84
    },
    {
      "midi": 42,
      "hit": false,
      "t": 141414.30928333296,
      "d": 700.0001166666625,
      "v": 98
    },
    {
      "midi": 57,
      "hit": false,
      "t": 141421.4521416663,
      "d": 407.14292499999283,
      "v": 100
    },
    {
      "midi": 61,
      "hit": false,
      "t": 141421.4521416663,
      "d": 435.7143583333236,
      "v": 77
    },
    {
      "midi": 43,
      "hit": false,
      "t": 142271.45228333294,
      "d": 400.00006666666013,
      "v": 102
    },
    {
      "midi": 59,
      "hit": false,
      "t": 142271.45228333294,
      "d": 814.2858500000148,
      "v": 91
    },
    {
      "midi": 55,
      "hit": false,
      "t": 142278.59514166627,
      "d": 800.0001333333494,
      "v": 87
    },
    {
      "midi": 62,
      "hit": false,
      "t": 142278.59514166627,
      "d": 807.1429916666821,
      "v": 89
    },
    {
      "midi": 43,
      "hit": false,
      "t": 142871.45238333294,
      "d": 457.1429333333217,
      "v": 89
    },
    {
      "midi": 55,
      "hit": false,
      "t": 143157.16671666628,
      "d": 564.2858083333122,
      "v": 67
    },
    {
      "midi": 59,
      "hit": false,
      "t": 143171.45243333295,
      "d": 578.5715249999776,
      "v": 86
    },
    {
      "midi": 62,
      "hit": false,
      "t": 143171.45243333295,
      "d": 607.1429583333083,
      "v": 87
    },
    {
      "midi": 43,
      "hit": false,
      "t": 143442.8810499996,
      "d": 164.28574166668113,
      "v": 111
    },
    {
      "midi": 43,
      "hit": false,
      "t": 143721.4525249996,
      "d": 107.14287499999045,
      "v": 100
    },
    {
      "midi": 47,
      "hit": false,
      "t": 144042.88114999956,
      "d": 1021.428741666663,
      "v": 89
    },
    {
      "midi": 59,
      "hit": false,
      "t": 144864.30985833288,
      "d": 500.000083333347,
      "v": 81
    },
    {
      "midi": 62,
      "hit": false,
      "t": 144864.30985833288,
      "d": 507.1429416666797,
      "v": 91
    },
    {
      "midi": 66,
      "hit": false,
      "t": 144871.45271666622,
      "d": 507.1429416666797,
      "v": 75
    },
    {
      "midi": 47,
      "hit": false,
      "t": 145278.59564166624,
      "d": 807.1429916666239,
      "v": 76
    },
    {
      "midi": 59,
      "hit": false,
      "t": 145457.16709999955,
      "d": 78.57144166665967,
      "v": 58
    },
    {
      "midi": 62,
      "hit": false,
      "t": 145464.3099583329,
      "d": 71.42858333332697,
      "v": 71
    },
    {
      "midi": 66,
      "hit": false,
      "t": 145471.45281666622,
      "d": 71.42858333332697,
      "v": 55
    },
    {
      "midi": 59,
      "hit": false,
      "t": 145700.02428333287,
      "d": 728.5715499999933,
      "v": 95
    },
    {
      "midi": 62,
      "hit": false,
      "t": 145707.1671416662,
      "d": 721.4286916666606,
      "v": 102
    },
    {
      "midi": 66,
      "hit": false,
      "t": 145707.1671416662,
      "d": 728.5715499999933,
      "v": 98
    },
    {
      "midi": 47,
      "hit": false,
      "t": 146314.31009999954,
      "d": 842.8572833333164,
      "v": 84
    },
    {
      "midi": 59,
      "hit": false,
      "t": 146571.4529999995,
      "d": 264.2857583333389,
      "v": 86
    },
    {
      "midi": 62,
      "hit": false,
      "t": 146578.59585833285,
      "d": 257.1429000000062,
      "v": 95
    },
    {
      "midi": 66,
      "hit": false,
      "t": 146578.59585833285,
      "d": 264.2857583333389,
      "v": 81
    },
    {
      "midi": 59,
      "hit": false,
      "t": 146971.45306666617,
      "d": 292.8571916666697,
      "v": 69
    },
    {
      "midi": 62,
      "hit": false,
      "t": 146978.5959249995,
      "d": 271.4286166666716,
      "v": 93
    },
    {
      "midi": 66,
      "hit": false,
      "t": 146985.73878333284,
      "d": 257.1429000000062,
      "v": 61
    },
    {
      "midi": 46,
      "hit": false,
      "t": 147200.02453333285,
      "d": 200.0000333333155,
      "v": 48
    },
    {
      "midi": 57,
      "hit": false,
      "t": 147428.5959999995,
      "d": 742.8572666666587,
      "v": 84
    },
    {
      "midi": 61,
      "hit": false,
      "t": 147435.73885833283,
      "d": 264.2857583333389,
      "v": 98
    },
    {
      "midi": 64,
      "hit": false,
      "t": 147435.73885833283,
      "d": 778.5715583333222,
      "v": 81
    },
    {
      "midi": 45,
      "hit": false,
      "t": 147442.88171666616,
      "d": 392.85720833332743,
      "v": 64
    },
    {
      "midi": 62,
      "hit": false,
      "t": 147628.59603333284,
      "d": 585.7143833333103,
      "v": 55
    },
    {
      "midi": 45,
      "hit": false,
      "t": 148100.02468333283,
      "d": 407.1429249999637,
      "v": 78
    },
    {
      "midi": 57,
      "hit": false,
      "t": 148314.3104333328,
      "d": 535.7143749999814,
      "v": 93
    },
    {
      "midi": 62,
      "hit": false,
      "t": 148321.45329166614,
      "d": 592.857241666643,
      "v": 105
    },
    {
      "midi": 64,
      "hit": false,
      "t": 148321.45329166614,
      "d": 614.285816666641,
      "v": 91
    },
    {
      "midi": 45,
      "hit": false,
      "t": 148700.0247833328,
      "d": 1007.1430249999685,
      "v": 84
    },
    {
      "midi": 57,
      "hit": false,
      "t": 149135.7391416661,
      "d": 721.4286916666606,
      "v": 78
    },
    {
      "midi": 61,
      "hit": false,
      "t": 149135.7391416661,
      "d": 750.0001249999914,
      "v": 102
    },
    {
      "midi": 64,
      "hit": false,
      "t": 149142.88199999943,
      "d": 771.4286999999895,
      "v": 91
    },
    {
      "midi": 45,
      "hit": false,
      "t": 149771.45353333277,
      "d": 500.0000833333179,
      "v": 91
    },
    {
      "midi": 57,
      "hit": false,
      "t": 150035.73929166608,
      "d": 678.5715416666644,
      "v": 95
    },
    {
      "midi": 61,
      "hit": false,
      "t": 150035.73929166608,
      "d": 707.1429749999952,
      "v": 106
    },
    {
      "midi": 64,
      "hit": false,
      "t": 150035.73929166608,
      "d": 728.5715499999933,
      "v": 91
    },
    {
      "midi": 45,
      "hit": false,
      "t": 150414.31078333274,
      "d": 342.85719999999856,
      "v": 93
    },
    {
      "midi": 45,
      "hit": false,
      "t": 150828.59656666606,
      "d": 550.0000916666759,
      "v": 84
    },
    {
      "midi": 57,
      "hit": false,
      "t": 150835.7394249994,
      "d": 728.5715499999933,
      "v": 74
    },
    {
      "midi": 62,
      "hit": false,
      "t": 150842.88228333273,
      "d": 764.2858416666568,
      "v": 102
    },
    {
      "midi": 64,
      "hit": false,
      "t": 150842.88228333273,
      "d": 764.2858416666568,
      "v": 78
    },
    {
      "midi": 45,
      "hit": false,
      "t": 151471.45381666606,
      "d": 528.5715166666487,
      "v": 78
    },
    {
      "midi": 57,
      "hit": false,
      "t": 151728.59671666604,
      "d": 592.857241666672,
      "v": 89
    },
    {
      "midi": 62,
      "hit": false,
      "t": 151728.59671666604,
      "d": 600.0001000000047,
      "v": 95
    },
    {
      "midi": 64,
      "hit": false,
      "t": 151728.59671666604,
      "d": 635.7143916666682,
      "v": 87
    },
    {
      "midi": 45,
      "hit": false,
      "t": 152121.45392499937,
      "d": 257.1429000000062,
      "v": 77
    },
    {
      "midi": 45,
      "hit": false,
      "t": 152557.16828333272,
      "d": 478.5715083333198,
      "v": 86
    },
    {
      "midi": 57,
      "hit": false,
      "t": 152557.16828333272,
      "d": 757.1429833333241,
      "v": 93
    },
    {
      "midi": 61,
      "hit": false,
      "t": 152557.16828333272,
      "d": 764.2858416666568,
      "v": 95
    },
    {
      "midi": 64,
      "hit": false,
      "t": 152564.31114166605,
      "d": 792.8572749999876,
      "v": 87
    },
    {
      "midi": 45,
      "hit": false,
      "t": 153200.02553333272,
      "d": 778.5715583332931,
      "v": 63
    },
    {
      "midi": 57,
      "hit": false,
      "t": 153435.7398583327,
      "d": 307.1429083333351,
      "v": 84
    },
    {
      "midi": 61,
      "hit": false,
      "t": 153450.02557499937,
      "d": 271.4286166666716,
      "v": 92
    },
    {
      "midi": 64,
      "hit": false,
      "t": 153450.02557499937,
      "d": 314.28576666666777,
      "v": 91
    },
    {
      "midi": 62,
      "hit": false,
      "t": 153478.5970083327,
      "d": 28.571433333330788,
      "v": 49
    },
    {
      "midi": 57,
      "hit": false,
      "t": 153835.73992499936,
      "d": 271.4286166666425,
      "v": 64
    },
    {
      "midi": 61,
      "hit": false,
      "t": 153835.73992499936,
      "d": 271.4286166666425,
      "v": 95
    },
    {
      "midi": 64,
      "hit": false,
      "t": 153842.8827833327,
      "d": 228.5714666666463,
      "v": 70
    },
    {
      "midi": 44,
      "hit": false,
      "t": 154035.73995833268,
      "d": 228.5714666666463,
      "v": 61
    },
    {
      "midi": 55,
      "hit": false,
      "t": 154285.73999999932,
      "d": 742.8572666666296,
      "v": 82
    },
    {
      "midi": 62,
      "hit": false,
      "t": 154292.88285833265,
      "d": 721.4286916666315,
      "v": 93
    },
    {
      "midi": 43,
      "hit": false,
      "t": 154300.025716666,
      "d": 500.0000833333179,
      "v": 55
    },
    {
      "midi": 59,
      "hit": false,
      "t": 154300.025716666,
      "d": 714.2858333332988,
      "v": 84
    },
    {
      "midi": 60,
      "hit": false,
      "t": 154321.45429166598,
      "d": 28.571433333330788,
      "v": 56
    },
    {
      "midi": 43,
      "hit": false,
      "t": 154864.3115249993,
      "d": 1064.28589166663,
      "v": 66
    },
    {
      "midi": 62,
      "hit": false,
      "t": 155178.59729166594,
      "d": 742.8572666666587,
      "v": 95
    },
    {
      "midi": 59,
      "hit": false,
      "t": 155192.8830083326,
      "d": 442.8572166666563,
      "v": 91
    },
    {
      "midi": 55,
      "hit": false,
      "t": 155557.1687833326,
      "d": 392.85720833332743,
      "v": 86
    },
    {
      "midi": 59,
      "hit": false,
      "t": 155714.31166666592,
      "d": 207.14289166667731,
      "v": 46
    },
    {
      "midi": 43,
      "hit": false,
      "t": 156007.1688583326,
      "d": 321.42862500000047,
      "v": 84
    },
    {
      "midi": 55,
      "hit": false,
      "t": 156007.1688583326,
      "d": 692.8572583333298,
      "v": 55
    },
    {
      "midi": 59,
      "hit": false,
      "t": 156014.31171666592,
      "d": 742.8572666666587,
      "v": 86
    },
    {
      "midi": 62,
      "hit": false,
      "t": 156014.31171666592,
      "d": 750.0001249999914,
      "v": 91
    },
    {
      "midi": 43,
      "hit": false,
      "t": 156400.02606666592,
      "d": 642.8572500000009,
      "v": 66
    },
    {
      "midi": 55,
      "hit": false,
      "t": 156864.31185833257,
      "d": 521.4286583333451,
      "v": 71
    },
    {
      "midi": 59,
      "hit": false,
      "t": 156878.59757499924,
      "d": 428.57150000002,
      "v": 82
    },
    {
      "midi": 62,
      "hit": false,
      "t": 156878.59757499924,
      "d": 492.8572250000143,
      "v": 95
    },
    {
      "midi": 43,
      "hit": false,
      "t": 157271.4547833326,
      "d": 314.28576666666777,
      "v": 68
    },
    {
      "midi": 42,
      "hit": false,
      "t": 157692.88342499925,
      "d": 314.28576666666777,
      "v": 79
    },
    {
      "midi": 57,
      "hit": false,
      "t": 157707.16914166592,
      "d": 607.1429583333374,
      "v": 73
    },
    {
      "midi": 54,
      "hit": false,
      "t": 157707.16914166592,
      "d": 707.1429749999952,
      "v": 64
    },
    {
      "midi": 62,
      "hit": false,
      "t": 157728.5977166659,
      "d": 571.428666666674,
      "v": 67
    },
    {
      "midi": 42,
      "hit": false,
      "t": 158128.59778333257,
      "d": 757.1429833333532,
      "v": 65
    },
    {
      "midi": 54,
      "hit": false,
      "t": 158585.74071666592,
      "d": 635.7143916666682,
      "v": 70
    },
    {
      "midi": 57,
      "hit": false,
      "t": 158592.88357499926,
      "d": 635.7143916666682,
      "v": 74
    },
    {
      "midi": 62,
      "hit": false,
      "t": 158607.16929166592,
      "d": 585.7143833333394,
      "v": 77
    },
    {
      "midi": 42,
      "hit": false,
      "t": 159007.16935833258,
      "d": 721.4286916666897,
      "v": 67
    },
    {
      "midi": 54,
      "hit": false,
      "t": 159414.3122833326,
      "d": 671.4286833333317,
      "v": 70
    },
    {
      "midi": 57,
      "hit": false,
      "t": 159414.3122833326,
      "d": 692.8572583333298,
      "v": 77
    },
    {
      "midi": 62,
      "hit": false,
      "t": 159435.7408583326,
      "d": 692.8572583333298,
      "v": 71
    },
    {
      "midi": 42,
      "hit": false,
      "t": 159864.3123583326,
      "d": 671.4286833333317,
      "v": 72
    },
    {
      "midi": 54,
      "hit": false,
      "t": 160278.59814166592,
      "d": 200.00003333334462,
      "v": 72
    },
    {
      "midi": 57,
      "hit": false,
      "t": 160292.88385833259,
      "d": 207.14289166667731,
      "v": 82
    },
    {
      "midi": 62,
      "hit": false,
      "t": 160300.02671666592,
      "d": 207.14289166667731,
      "v": 84
    },
    {
      "midi": 43,
      "hit": false,
      "t": 160685.7410666659,
      "d": 200.0000333333155,
      "v": 60
    },
    {
      "midi": 44,
      "hit": false,
      "t": 160814.3125166659,
      "d": 350.00005833333125,
      "v": 48
    },
    {
      "midi": 57,
      "hit": false,
      "t": 161135.7411416659,
      "d": 692.8572583333589,
      "v": 82
    },
    {
      "midi": 64,
      "hit": false,
      "t": 161135.7411416659,
      "d": 742.8572666666878,
      "v": 87
    },
    {
      "midi": 62,
      "hit": false,
      "t": 161135.7411416659,
      "d": 757.1429833333532,
      "v": 93
    },
    {
      "midi": 45,
      "hit": false,
      "t": 161157.1697166659,
      "d": 228.5714666666754,
      "v": 63
    },
    {
      "midi": 45,
      "hit": false,
      "t": 161564.31264166592,
      "d": 1664.2859916666348,
      "v": 65
    },
    {
      "midi": 57,
      "hit": false,
      "t": 162000.02699999925,
      "d": 564.2858083333122,
      "v": 57
    },
    {
      "midi": 62,
      "hit": false,
      "t": 162007.16985833258,
      "d": 550.0000916666468,
      "v": 80
    },
    {
      "midi": 64,
      "hit": false,
      "t": 162014.3127166659,
      "d": 585.7143833333103,
      "v": 71
    },
    {
      "midi": 33,
      "hit": false,
      "t": 162407.16992499924,
      "d": 792.8572749999876,
      "v": 87
    },
    {
      "midi": 57,
      "hit": false,
      "t": 162878.59857499923,
      "d": 721.4286916666606,
      "v": 67
    },
    {
      "midi": 61,
      "hit": false,
      "t": 162885.74143333256,
      "d": 757.1429833333241,
      "v": 79
    },
    {
      "midi": 64,
      "hit": false,
      "t": 162885.74143333256,
      "d": 778.5715583333222,
      "v": 87
    },
    {
      "midi": 45,
      "hit": false,
      "t": 163300.02721666588,
      "d": 578.5715249999776,
      "v": 56
    },
    {
      "midi": 33,
      "hit": false,
      "t": 163314.31293333255,
      "d": 1257.143066666642,
      "v": 56
    },
    {
      "midi": 61,
      "hit": false,
      "t": 163757.1701499992,
      "d": 385.71434999999474,
      "v": 77
    },
    {
      "midi": 57,
      "hit": false,
      "t": 163757.1701499992,
      "d": 428.5714999999909,
      "v": 70
    },
    {
      "midi": 64,
      "hit": false,
      "t": 163764.31300833254,
      "d": 350.00005833333125,
      "v": 70
    },
    {
      "midi": 45,
      "hit": false,
      "t": 164128.59878333253,
      "d": 378.57149166666204,
      "v": 67
    },
    {
      "midi": 57,
      "hit": false,
      "t": 164621.45600833252,
      "d": 578.5715250000067,
      "v": 72
    },
    {
      "midi": 55,
      "hit": false,
      "t": 164621.45600833252,
      "d": 607.1429583333374,
      "v": 66
    },
    {
      "midi": 50,
      "hit": false,
      "t": 164628.59886666585,
      "d": 550.0000916666759,
      "v": 87
    },
    {
      "midi": 38,
      "hit": false,
      "t": 165007.1703583325,
      "d": 735.7144083333551,
      "v": 87
    },
    {
      "midi": 50,
      "hit": false,
      "t": 165464.31329166587,
      "d": 600.0001000000047,
      "v": 95
    },
    {
      "midi": 55,
      "hit": false,
      "t": 165471.4561499992,
      "d": 607.1429583333374,
      "v": 93
    },
    {
      "midi": 57,
      "hit": false,
      "t": 165471.4561499992,
      "d": 678.5715416666644,
      "v": 93
    },
    {
      "midi": 38,
      "hit": false,
      "t": 165857.1704999992,
      "d": 357.14291666666395,
      "v": 82
    },
    {
      "midi": 50,
      "hit": false,
      "t": 166271.45628333252,
      "d": 757.1429833333241,
      "v": 77
    },
    {
      "midi": 54,
      "hit": false,
      "t": 166278.59914166585,
      "d": 735.714408333326,
      "v": 81
    },
    {
      "midi": 57,
      "hit": false,
      "t": 166285.74199999918,
      "d": 757.1429833333241,
      "v": 87
    },
    {
      "midi": 38,
      "hit": false,
      "t": 166292.88485833252,
      "d": 414.2857833333255,
      "v": 86
    },
    {
      "midi": 50,
      "hit": false,
      "t": 167121.45642499917,
      "d": 435.7143583333527,
      "v": 70
    },
    {
      "midi": 42,
      "hit": false,
      "t": 167128.5992833325,
      "d": 207.14289166667731,
      "v": 102
    },
    {
      "midi": 54,
      "hit": false,
      "t": 167128.5992833325,
      "d": 464.2857916666835,
      "v": 89
    },
    {
      "midi": 57,
      "hit": false,
      "t": 167135.74214166583,
      "d": 457.1429333333508,
      "v": 93
    },
    {
      "midi": 42,
      "hit": false,
      "t": 167521.45649166586,
      "d": 392.85720833332743,
      "v": 111
    },
    {
      "midi": 43,
      "hit": false,
      "t": 167950.02799166585,
      "d": 535.7143750000105,
      "v": 80
    },
    {
      "midi": 55,
      "hit": false,
      "t": 167964.3137083325,
      "d": 764.2858416666568,
      "v": 69
    },
    {
      "midi": 59,
      "hit": false,
      "t": 167971.45656666585,
      "d": 771.4286999999895,
      "v": 86
    },
    {
      "midi": 62,
      "hit": false,
      "t": 167971.45656666585,
      "d": 814.2858499999857,
      "v": 89
    },
    {
      "midi": 43,
      "hit": false,
      "t": 168578.59952499918,
      "d": 592.857241666643,
      "v": 64
    },
    {
      "midi": 55,
      "hit": false,
      "t": 168892.88529166582,
      "d": 592.857241666672,
      "v": 52
    },
    {
      "midi": 59,
      "hit": false,
      "t": 168892.88529166582,
      "d": 650.0001083333336,
      "v": 67
    },
    {
      "midi": 62,
      "hit": false,
      "t": 168900.02814999915,
      "d": 664.285824999999,
      "v": 71
    },
    {
      "midi": 43,
      "hit": false,
      "t": 169278.59964166582,
      "d": 378.57149166666204,
      "v": 60
    },
    {
      "midi": 43,
      "hit": false,
      "t": 169721.45685833247,
      "d": 400.00006666666013,
      "v": 66
    },
    {
      "midi": 55,
      "hit": false,
      "t": 169728.5997166658,
      "d": 728.5715499999933,
      "v": 61
    },
    {
      "midi": 59,
      "hit": false,
      "t": 169728.5997166658,
      "d": 757.1429833333241,
      "v": 70
    },
    {
      "midi": 62,
      "hit": false,
      "t": 169735.74257499914,
      "d": 757.1429833333241,
      "v": 69
    },
    {
      "midi": 43,
      "hit": false,
      "t": 170371.4569666658,
      "d": 892.8572916666453,
      "v": 69
    },
    {
      "midi": 55,
      "hit": false,
      "t": 170600.02843333245,
      "d": 235.7143250000081,
      "v": 70
    },
    {
      "midi": 59,
      "hit": false,
      "t": 170600.02843333245,
      "d": 657.1429666666663,
      "v": 80
    },
    {
      "midi": 62,
      "hit": false,
      "t": 170607.17129166579,
      "d": 685.7143999999971,
      "v": 81
    },
    {
      "midi": 55,
      "hit": false,
      "t": 170957.17134999912,
      "d": 271.4286166666716,
      "v": 24
    },
    {
      "midi": 45,
      "hit": false,
      "t": 171221.45710833246,
      "d": 178.57145833331742,
      "v": 77
    },
    {
      "midi": 47,
      "hit": false,
      "t": 171435.74285833244,
      "d": 1571.4288333333388,
      "v": 81
    },
    {
      "midi": 62,
      "hit": false,
      "t": 172307.1715749991,
      "d": 478.5715083333198,
      "v": 93
    },
    {
      "midi": 66,
      "hit": false,
      "t": 172307.1715749991,
      "d": 485.7143666666525,
      "v": 72
    },
    {
      "midi": 59,
      "hit": false,
      "t": 172685.74306666577,
      "d": 307.1429083333351,
      "v": 60
    },
    {
      "midi": 66,
      "hit": false,
      "t": 173150.02885833243,
      "d": 750.0001249999623,
      "v": 62
    },
    {
      "midi": 59,
      "hit": false,
      "t": 173157.17171666576,
      "d": 728.5715499999642,
      "v": 64
    },
    {
      "midi": 62,
      "hit": false,
      "t": 173157.17171666576,
      "d": 757.142983333295,
      "v": 84
    },
    {
      "midi": 47,
      "hit": false,
      "t": 173192.88600833243,
      "d": 500.0000833333179,
      "v": 78
    },
    {
      "midi": 47,
      "hit": false,
      "t": 173842.88611666573,
      "d": 964.2858749999723,
      "v": 65
    },
    {
      "midi": 66,
      "hit": false,
      "t": 174028.60043333238,
      "d": 328.57148333333316,
      "v": 58
    },
    {
      "midi": 62,
      "hit": false,
      "t": 174028.60043333238,
      "d": 378.57149166666204,
      "v": 87
    },
    {
      "midi": 59,
      "hit": false,
      "t": 174028.60043333238,
      "d": 407.14292499999283,
      "v": 67
    },
    {
      "midi": 52,
      "hit": false,
      "t": 174842.88628333237,
      "d": 1100.0001833333226,
      "v": 64
    },
    {
      "midi": 55,
      "hit": false,
      "t": 174842.88628333237,
      "d": 1121.4287583333207,
      "v": 60
    },
    {
      "midi": 59,
      "hit": false,
      "t": 174850.0291416657,
      "d": 1114.285899999988,
      "v": 64
    },
    {
      "midi": 40,
      "hit": false,
      "t": 174864.31485833236,
      "d": 1078.5716083333245,
      "v": 68
    },
    {
      "midi": 52,
      "hit": false,
      "t": 176100.029349999,
      "d": 142.85716666665394,
      "v": 76
    },
    {
      "midi": 55,
      "hit": false,
      "t": 176100.029349999,
      "d": 185.71431666665012,
      "v": 87
    },
    {
      "midi": 40,
      "hit": false,
      "t": 176107.17220833234,
      "d": 157.14288333331933,
      "v": 91
    },
    {
      "midi": 59,
      "hit": false,
      "t": 176114.31506666567,
      "d": 178.57145833331742,
      "v": 82
    },
    {
      "midi": 61,
      "hit": false,
      "t": 176535.74370833233,
      "d": 1164.285908333317,
      "v": 51
    },
    {
      "midi": 54,
      "hit": false,
      "t": 176542.88656666566,
      "d": 1150.0001916666515,
      "v": 62
    },
    {
      "midi": 42,
      "hit": false,
      "t": 176542.88656666566,
      "d": 1628.5716999999713,
      "v": 95
    },
    {
      "midi": 57,
      "hit": false,
      "t": 176550.029424999,
      "d": 1164.285908333317,
      "v": 70
    },
    {
      "midi": 62,
      "hit": false,
      "t": 178242.88684999896,
      "d": 1685.714566666691,
      "v": 72
    },
    {
      "midi": 57,
      "hit": false,
      "t": 178242.88684999896,
      "d": 2207.143225000007,
      "v": 50
    },
    {
      "midi": 64,
      "hit": false,
      "t": 178250.0297083323,
      "d": 1714.2860000000219,
      "v": 63
    },
    {
      "midi": 45,
      "hit": false,
      "t": 178264.31542499896,
      "d": 2185.714650000009,
      "v": 72
    },
    {
      "midi": 61,
      "hit": false,
      "t": 179992.88714166565,
      "d": 421.4286416666582,
      "v": 43
    },
    {
      "midi": 64,
      "hit": false,
      "t": 180028.6014333323,
      "d": 385.71434999999474,
      "v": 58
    },
    {
      "midi": 52,
      "hit": false,
      "t": 181278.60164166565,
      "d": 1392.8573749999923,
      "v": 62
    },
    {
      "midi": 54,
      "hit": false,
      "t": 181471.45881666563,
      "d": 207.14289166667731,
      "v": 64
    },
    {
      "midi": 55,
      "hit": false,
      "t": 181707.17314166564,
      "d": 1000.0001666666649,
      "v": 77
    },
    {
      "midi": 38,
      "hit": false,
      "t": 181714.31599999897,
      "d": 214.28575000001,
      "v": 67
    },
    {
      "midi": 50,
      "hit": false,
      "t": 182978.60192499898,
      "d": 628.5715333333064,
      "v": 49
    },
    {
      "midi": 38,
      "hit": false,
      "t": 182992.88764166564,
      "d": 450.000074999989,
      "v": 55
    },
    {
      "midi": 54,
      "hit": false,
      "t": 182992.88764166564,
      "d": 600.0000999999756,
      "v": 41
    },
    {
      "midi": 57,
      "hit": false,
      "t": 183000.03049999897,
      "d": 635.7143916666391,
      "v": 46
    },
    {
      "midi": 57,
      "hit": false,
      "t": 184700.03078333227,
      "d": 335.71434166666586,
      "v": 67
    },
    {
      "midi": 59,
      "hit": false,
      "t": 184914.31653333228,
      "d": 214.2857499999809,
      "v": 69
    },
    {
      "midi": 57,
      "hit": false,
      "t": 185157.1737166656,
      "d": 600.0001000000047,
      "v": 72
    },
    {
      "midi": 60,
      "hit": false,
      "t": 185157.1737166656,
      "d": 600.0001000000047,
      "v": 87
    },
    {
      "midi": 43,
      "hit": false,
      "t": 185164.31657499893,
      "d": 2400.000400000019,
      "v": 64
    },
    {
      "midi": 62,
      "hit": false,
      "t": 186407.17392499893,
      "d": 842.8572833333455,
      "v": 53
    },
    {
      "midi": 59,
      "hit": false,
      "t": 186421.4596416656,
      "d": 850.0001416666782,
      "v": 49
    },
    {
      "midi": 55,
      "hit": false,
      "t": 186421.4596416656,
      "d": 878.571575000009,
      "v": 42
    },
    {
      "midi": 52,
      "hit": false,
      "t": 188107.17420833226,
      "d": 1664.285991666693,
      "v": 53
    },
    {
      "midi": 54,
      "hit": false,
      "t": 188321.45995833227,
      "d": 192.85717500001192,
      "v": 66
    },
    {
      "midi": 55,
      "hit": false,
      "t": 188535.74570833228,
      "d": 1350.0002249999961,
      "v": 82
    },
    {
      "midi": 38,
      "hit": false,
      "t": 188571.45999999894,
      "d": 857.1430000000109,
      "v": 69
    },
    {
      "midi": 38,
      "hit": false,
      "t": 189435.7458583323,
      "d": 2278.571808333305,
      "v": 54
    },
    {
      "midi": 54,
      "hit": false,
      "t": 189850.0316416656,
      "d": 1321.4287916666653,
      "v": 51
    },
    {
      "midi": 50,
      "hit": false,
      "t": 189878.60307499894,
      "d": 1271.4287833333365,
      "v": 67
    },
    {
      "midi": 57,
      "hit": false,
      "t": 191564.3176416656,
      "d": 371.42863333330024,
      "v": 56
    },
    {
      "midi": 59,
      "hit": false,
      "t": 191778.6033916656,
      "d": 271.4286166666425,
      "v": 64
    },
    {
      "midi": 57,
      "hit": false,
      "t": 191985.74628333224,
      "d": 1057.1430333333265,
      "v": 65
    },
    {
      "midi": 60,
      "hit": false,
      "t": 192000.0319999989,
      "d": 1235.714491666673,
      "v": 100
    },
    {
      "midi": 43,
      "hit": false,
      "t": 192050.03200833223,
      "d": 4942.857966666663,
      "v": 66
    },
    {
      "midi": 55,
      "hit": false,
      "t": 193264.3179249989,
      "d": 2885.7147666666715,
      "v": 43
    },
    {
      "midi": 59,
      "hit": false,
      "t": 193278.60364166557,
      "d": 2907.1433416666696,
      "v": 51
    },
    {
      "midi": 38,
      "hit": false,
      "t": 198800.03313333224,
      "d": 2214.286083333369,
      "v": 70
    },
    {
      "midi": 50,
      "hit": false,
      "t": 199121.46175833224,
      "d": 3200.0005333333684,
      "v": 51
    },
    {
      "midi": 54,
      "hit": false,
      "t": 199335.74750833225,
      "d": 3014.286216666689,
      "v": 32
    },
    {
      "midi": 57,
      "hit": false,
      "t": 199578.6046916656,
      "d": 578.5715250000067,
      "v": 48
    },
    {
      "midi": 62,
      "hit": false,
      "t": 199971.46189999892,
      "d": 2442.857550000015,
      "v": 15
    },
    {
      "midi": 57,
      "hit": false,
      "t": 200450.03340833227,
      "d": 1921.42889166667,
      "v": 10
    }
  ]
}