{
  "jsonPath": "Latin/Marimba De Guatemala/Uman/galimatias.json",
  "path": "Latin\\Marimba De Guatemala\\Uman\\Galimatias.mid",
  "name": "Galimatias",
  "difficulty": "Advanced",
  "bpm": 200,
  "notes": [
    {
      "midi": 55,
      "hit": false,
      "t": 31456.295999999995,
      "d": 1038.8344666666671,
      "v": 54
    },
    {
      "midi": 48,
      "hit": false,
      "t": 31456.295999999995,
      "d": 1043.6888333333336,
      "v": 64
    },
    {
      "midi": 48,
      "hit": false,
      "t": 32621.343999999994,
      "d": 310.67946666666467,
      "v": 65
    },
    {
      "midi": 55,
      "hit": false,
      "t": 32621.343999999994,
      "d": 325.24256666666406,
      "v": 57
    },
    {
      "midi": 60,
      "hit": false,
      "t": 32912.60599999999,
      "d": 106.79606666666223,
      "v": 65
    },
    {
      "midi": 65,
      "hit": false,
      "t": 32912.60599999999,
      "d": 121.35916666666162,
      "v": 83
    },
    {
      "midi": 48,
      "hit": false,
      "t": 33058.23699999999,
      "d": 111.65043333333597,
      "v": 60
    },
    {
      "midi": 55,
      "hit": false,
      "t": 33058.23699999999,
      "d": 126.21353333333536,
      "v": 46
    },
    {
      "midi": 60,
      "hit": false,
      "t": 33203.86799999999,
      "d": 106.7960666666695,
      "v": 77
    },
    {
      "midi": 65,
      "hit": false,
      "t": 33203.86799999999,
      "d": 121.3591666666689,
      "v": 80
    },
    {
      "midi": 48,
      "hit": false,
      "t": 33349.49899999999,
      "d": 140.77663333333476,
      "v": 57
    },
    {
      "midi": 55,
      "hit": false,
      "t": 33349.49899999999,
      "d": 199.02903333333234,
      "v": 60
    },
    {
      "midi": 60,
      "hit": false,
      "t": 33495.12999999999,
      "d": 33.980566666665254,
      "v": 34
    },
    {
      "midi": 63,
      "hit": false,
      "t": 33495.12999999999,
      "d": 58.25239999999758,
      "v": 68
    },
    {
      "midi": 60,
      "hit": false,
      "t": 33640.760999999984,
      "d": 101.94170000000304,
      "v": 69
    },
    {
      "midi": 65,
      "hit": false,
      "t": 33640.760999999984,
      "d": 101.94170000000304,
      "v": 90
    },
    {
      "midi": 48,
      "hit": false,
      "t": 33786.391999999985,
      "d": 126.21353333333536,
      "v": 60
    },
    {
      "midi": 55,
      "hit": false,
      "t": 33786.391999999985,
      "d": 126.21353333333536,
      "v": 46
    },
    {
      "midi": 60,
      "hit": false,
      "t": 33932.02299999999,
      "d": 38.83493333333172,
      "v": 48
    },
    {
      "midi": 63,
      "hit": false,
      "t": 33932.02299999999,
      "d": 38.83493333333172,
      "v": 71
    },
    {
      "midi": 60,
      "hit": false,
      "t": 34077.65399999999,
      "d": 97.08733333333657,
      "v": 80
    },
    {
      "midi": 65,
      "hit": false,
      "t": 34077.65399999999,
      "d": 121.3591666666689,
      "v": 100
    },
    {
      "midi": 55,
      "hit": false,
      "t": 34223.28499999999,
      "d": 131.06790000000183,
      "v": 55
    },
    {
      "midi": 48,
      "hit": false,
      "t": 34223.28499999999,
      "d": 135.9222666666683,
      "v": 62
    },
    {
      "midi": 63,
      "hit": false,
      "t": 34368.91599999999,
      "d": 38.83493333333172,
      "v": 32
    },
    {
      "midi": 60,
      "hit": false,
      "t": 34368.91599999999,
      "d": 77.66986666666344,
      "v": 41
    },
    {
      "midi": 48,
      "hit": false,
      "t": 34514.546999999984,
      "d": 135.9222666666683,
      "v": 56
    },
    {
      "midi": 55,
      "hit": false,
      "t": 34514.546999999984,
      "d": 140.77663333333476,
      "v": 50
    },
    {
      "midi": 60,
      "hit": false,
      "t": 34660.177999999985,
      "d": 135.9222666666683,
      "v": 74
    },
    {
      "midi": 63,
      "hit": false,
      "t": 34660.177999999985,
      "d": 140.77663333333476,
      "v": 85
    },
    {
      "midi": 60,
      "hit": false,
      "t": 34805.80899999999,
      "d": 97.08733333333657,
      "v": 30
    },
    {
      "midi": 65,
      "hit": false,
      "t": 34805.80899999999,
      "d": 106.7960666666695,
      "v": 77
    },
    {
      "midi": 48,
      "hit": false,
      "t": 34951.43999999999,
      "d": 121.3591666666689,
      "v": 59
    },
    {
      "midi": 55,
      "hit": false,
      "t": 34951.43999999999,
      "d": 140.77663333333476,
      "v": 48
    },
    {
      "midi": 60,
      "hit": false,
      "t": 35097.07099999999,
      "d": 24.271833333332324,
      "v": 29
    },
    {
      "midi": 48,
      "hit": false,
      "t": 35097.07099999999,
      "d": 126.21353333333536,
      "v": 59
    },
    {
      "midi": 55,
      "hit": false,
      "t": 35097.07099999999,
      "d": 131.06790000000183,
      "v": 50
    },
    {
      "midi": 65,
      "hit": false,
      "t": 35242.70199999999,
      "d": 106.7960666666695,
      "v": 86
    },
    {
      "midi": 60,
      "hit": false,
      "t": 35242.70199999999,
      "d": 116.50480000000243,
      "v": 72
    },
    {
      "midi": 48,
      "hit": false,
      "t": 35388.33299999999,
      "d": 106.7960666666695,
      "v": 57
    },
    {
      "midi": 55,
      "hit": false,
      "t": 35388.33299999999,
      "d": 106.7960666666695,
      "v": 51
    },
    {
      "midi": 60,
      "hit": false,
      "t": 35533.96399999999,
      "d": 87.37859999999637,
      "v": 77
    },
    {
      "midi": 65,
      "hit": false,
      "t": 35533.96399999999,
      "d": 140.77663333332748,
      "v": 100
    },
    {
      "midi": 48,
      "hit": false,
      "t": 35679.59499999999,
      "d": 101.94170000000304,
      "v": 57
    },
    {
      "midi": 55,
      "hit": false,
      "t": 35679.59499999999,
      "d": 145.63100000000122,
      "v": 57
    },
    {
      "midi": 60,
      "hit": false,
      "t": 35825.22599999999,
      "d": 38.83493333333172,
      "v": 56
    },
    {
      "midi": 63,
      "hit": false,
      "t": 35825.22599999999,
      "d": 43.689299999998184,
      "v": 73
    },
    {
      "midi": 60,
      "hit": false,
      "t": 35970.85699999999,
      "d": 97.08733333333657,
      "v": 86
    },
    {
      "midi": 65,
      "hit": false,
      "t": 35970.85699999999,
      "d": 111.65043333333597,
      "v": 95
    },
    {
      "midi": 48,
      "hit": false,
      "t": 36116.48799999999,
      "d": 121.3591666666689,
      "v": 59
    },
    {
      "midi": 55,
      "hit": false,
      "t": 36116.48799999999,
      "d": 145.63100000000122,
      "v": 48
    },
    {
      "midi": 60,
      "hit": false,
      "t": 36262.11899999999,
      "d": 63.10676666666404,
      "v": 69
    },
    {
      "midi": 67,
      "hit": false,
      "t": 36262.11899999999,
      "d": 67.96113333333051,
      "v": 83
    },
    {
      "midi": 60,
      "hit": false,
      "t": 36407.749999999985,
      "d": 169.90283333333355,
      "v": 86
    },
    {
      "midi": 63,
      "hit": false,
      "t": 36407.749999999985,
      "d": 169.90283333333355,
      "v": 111
    },
    {
      "midi": 55,
      "hit": false,
      "t": 36553.38099999999,
      "d": 228.15523333333113,
      "v": 60
    },
    {
      "midi": 48,
      "hit": false,
      "t": 36553.38099999999,
      "d": 393.2036999999982,
      "v": 62
    },
    {
      "midi": 58,
      "hit": false,
      "t": 36990.27399999998,
      "d": 77.66986666666344,
      "v": 101
    },
    {
      "midi": 55,
      "hit": false,
      "t": 36990.27399999998,
      "d": 111.65043333332869,
      "v": 72
    },
    {
      "midi": 48,
      "hit": false,
      "t": 37135.90499999998,
      "d": 126.21353333333536,
      "v": 62
    },
    {
      "midi": 55,
      "hit": false,
      "t": 37281.53599999998,
      "d": 97.08733333333657,
      "v": 69
    },
    {
      "midi": 58,
      "hit": false,
      "t": 37281.53599999998,
      "d": 106.7960666666695,
      "v": 92
    },
    {
      "midi": 55,
      "hit": false,
      "t": 37427.16699999998,
      "d": 58.25239999999758,
      "v": 42
    },
    {
      "midi": 60,
      "hit": false,
      "t": 37427.16699999998,
      "d": 77.66986666666344,
      "v": 74
    },
    {
      "midi": 48,
      "hit": false,
      "t": 37572.79799999997,
      "d": 106.7960666666695,
      "v": 67
    },
    {
      "midi": 63,
      "hit": false,
      "t": 37718.428999999975,
      "d": 19.41746666666586,
      "v": 49
    },
    {
      "midi": 55,
      "hit": false,
      "t": 37718.428999999975,
      "d": 97.0873333333293,
      "v": 65
    },
    {
      "midi": 60,
      "hit": false,
      "t": 37718.428999999975,
      "d": 140.77663333332748,
      "v": 90
    },
    {
      "midi": 48,
      "hit": false,
      "t": 37864.05999999997,
      "d": 145.63100000000122,
      "v": 62
    },
    {
      "midi": 48,
      "hit": false,
      "t": 38009.69099999997,
      "d": 106.7960666666695,
      "v": 26
    },
    {
      "midi": 55,
      "hit": false,
      "t": 41796.09699999997,
      "d": 334.95130000000063,
      "v": 56
    },
    {
      "midi": 48,
      "hit": false,
      "t": 41796.09699999997,
      "d": 378.6405999999988,
      "v": 59
    },
    {
      "midi": 60,
      "hit": false,
      "t": 42232.98999999997,
      "d": 126.21353333333536,
      "v": 57
    },
    {
      "midi": 55,
      "hit": false,
      "t": 42378.62099999997,
      "d": 116.50480000000243,
      "v": 45
    },
    {
      "midi": 48,
      "hit": false,
      "t": 42378.62099999997,
      "d": 145.63100000000122,
      "v": 56
    },
    {
      "midi": 60,
      "hit": false,
      "t": 42524.25199999997,
      "d": 97.08733333333657,
      "v": 80
    },
    {
      "midi": 65,
      "hit": false,
      "t": 42524.25199999997,
      "d": 126.21353333333536,
      "v": 90
    },
    {
      "midi": 48,
      "hit": false,
      "t": 42669.88299999997,
      "d": 121.3591666666689,
      "v": 59
    },
    {
      "midi": 55,
      "hit": false,
      "t": 42669.88299999997,
      "d": 155.33973333333415,
      "v": 49
    },
    {
      "midi": 63,
      "hit": false,
      "t": 42815.513999999974,
      "d": 53.398033333331114,
      "v": 62
    },
    {
      "midi": 60,
      "hit": false,
      "t": 42815.513999999974,
      "d": 58.25239999999758,
      "v": 53
    },
    {
      "midi": 60,
      "hit": false,
      "t": 42961.14499999997,
      "d": 92.23296666667011,
      "v": 65
    },
    {
      "midi": 65,
      "hit": false,
      "t": 42961.14499999997,
      "d": 106.7960666666695,
      "v": 86
    },
    {
      "midi": 55,
      "hit": false,
      "t": 43106.77599999997,
      "d": 121.3591666666689,
      "v": 45
    },
    {
      "midi": 48,
      "hit": false,
      "t": 43106.77599999997,
      "d": 145.63100000000122,
      "v": 54
    },
    {
      "midi": 63,
      "hit": false,
      "t": 43252.40699999997,
      "d": 33.980566666665254,
      "v": 73
    },
    {
      "midi": 60,
      "hit": false,
      "t": 43252.40699999997,
      "d": 58.25239999999758,
      "v": 56
    },
    {
      "midi": 60,
      "hit": false,
      "t": 43398.037999999964,
      "d": 82.5242333333299,
      "v": 60
    },
    {
      "midi": 65,
      "hit": false,
      "t": 43398.037999999964,
      "d": 111.65043333332869,
      "v": 90
    },
    {
      "midi": 48,
      "hit": false,
      "t": 43543.66899999996,
      "d": 101.94170000000304,
      "v": 53
    },
    {
      "midi": 55,
      "hit": false,
      "t": 43543.66899999996,
      "d": 140.77663333333476,
      "v": 45
    },
    {
      "midi": 60,
      "hit": false,
      "t": 43689.29999999996,
      "d": 67.96113333333051,
      "v": 56
    },
    {
      "midi": 48,
      "hit": false,
      "t": 43834.93099999995,
      "d": 135.9222666666683,
      "v": 56
    },
    {
      "midi": 55,
      "hit": false,
      "t": 43834.93099999995,
      "d": 160.19410000000062,
      "v": 48
    },
    {
      "midi": 60,
      "hit": false,
      "t": 43980.561999999954,
      "d": 106.7960666666695,
      "v": 67
    },
    {
      "midi": 63,
      "hit": false,
      "t": 43980.561999999954,
      "d": 199.02903333333234,
      "v": 85
    },
    {
      "midi": 60,
      "hit": false,
      "t": 44126.192999999956,
      "d": 87.37859999999637,
      "v": 39
    },
    {
      "midi": 65,
      "hit": false,
      "t": 44126.192999999956,
      "d": 101.94169999999576,
      "v": 86
    },
    {
      "midi": 55,
      "hit": false,
      "t": 44126.192999999956,
      "d": 145.63099999999395,
      "v": 45
    },
    {
      "midi": 48,
      "hit": false,
      "t": 44271.82399999995,
      "d": 140.77663333333476,
      "v": 53
    },
    {
      "midi": 60,
      "hit": false,
      "t": 44417.45499999995,
      "d": 67.96113333333051,
      "v": 45
    },
    {
      "midi": 55,
      "hit": false,
      "t": 44563.085999999945,
      "d": 111.65043333333597,
      "v": 49
    },
    {
      "midi": 60,
      "hit": false,
      "t": 44563.085999999945,
      "d": 111.65043333333597,
      "v": 74
    },
    {
      "midi": 48,
      "hit": false,
      "t": 44563.085999999945,
      "d": 126.21353333333536,
      "v": 60
    },
    {
      "midi": 65,
      "hit": false,
      "t": 44563.085999999945,
      "d": 135.9222666666683,
      "v": 90
    },
    {
      "midi": 48,
      "hit": false,
      "t": 44708.716999999946,
      "d": 121.3591666666689,
      "v": 57
    },
    {
      "midi": 55,
      "hit": false,
      "t": 44708.716999999946,
      "d": 126.21353333333536,
      "v": 45
    },
    {
      "midi": 60,
      "hit": false,
      "t": 44854.34799999995,
      "d": 97.08733333333657,
      "v": 74
    },
    {
      "midi": 65,
      "hit": false,
      "t": 44854.34799999995,
      "d": 131.06790000000183,
      "v": 90
    },
    {
      "midi": 48,
      "hit": false,
      "t": 44999.97899999995,
      "d": 131.06790000000183,
      "v": 54
    },
    {
      "midi": 55,
      "hit": false,
      "t": 44999.97899999995,
      "d": 145.63100000000122,
      "v": 48
    },
    {
      "midi": 60,
      "hit": false,
      "t": 45145.60999999995,
      "d": 48.54366666666465,
      "v": 51
    },
    {
      "midi": 63,
      "hit": false,
      "t": 45145.60999999995,
      "d": 63.10676666666404,
      "v": 71
    },
    {
      "midi": 60,
      "hit": false,
      "t": 45291.24099999994,
      "d": 97.08733333333657,
      "v": 65
    },
    {
      "midi": 65,
      "hit": false,
      "t": 45291.24099999994,
      "d": 126.21353333333536,
      "v": 86
    },
    {
      "midi": 48,
      "hit": false,
      "t": 45436.871999999945,
      "d": 121.3591666666689,
      "v": 55
    },
    {
      "midi": 55,
      "hit": false,
      "t": 45436.871999999945,
      "d": 140.77663333333476,
      "v": 50
    },
    {
      "midi": 60,
      "hit": false,
      "t": 45582.502999999946,
      "d": 67.96113333333051,
      "v": 64
    },
    {
      "midi": 67,
      "hit": false,
      "t": 45582.502999999946,
      "d": 67.96113333333051,
      "v": 72
    },
    {
      "midi": 67,
      "hit": false,
      "t": 45728.13399999994,
      "d": 14.563099999999395,
      "v": 41
    },
    {
      "midi": 63,
      "hit": false,
      "t": 45728.13399999994,
      "d": 116.50480000000243,
      "v": 101
    },
    {
      "midi": 60,
      "hit": false,
      "t": 45728.13399999994,
      "d": 135.9222666666683,
      "v": 67
    },
    {
      "midi": 48,
      "hit": false,
      "t": 45873.76499999994,
      "d": 131.06790000000183,
      "v": 51
    },
    {
      "midi": 63,
      "hit": false,
      "t": 46019.39599999994,
      "d": 140.77663333333476,
      "v": 44
    },
    {
      "midi": 60,
      "hit": false,
      "t": 46019.39599999994,
      "d": 145.63100000000122,
      "v": 57
    },
    {
      "midi": 50,
      "hit": false,
      "t": 46165.026999999944,
      "d": 82.5242333333299,
      "v": 44
    },
    {
      "midi": 48,
      "hit": false,
      "t": 46165.026999999944,
      "d": 116.50479999999516,
      "v": 48
    },
    {
      "midi": 55,
      "hit": false,
      "t": 46310.65799999994,
      "d": 87.37859999999637,
      "v": 67
    },
    {
      "midi": 58,
      "hit": false,
      "t": 46310.65799999994,
      "d": 87.37859999999637,
      "v": 92
    },
    {
      "midi": 48,
      "hit": false,
      "t": 46456.28899999993,
      "d": 140.77663333333476,
      "v": 65
    },
    {
      "midi": 58,
      "hit": false,
      "t": 46601.91999999993,
      "d": 82.5242333333299,
      "v": 101
    },
    {
      "midi": 55,
      "hit": false,
      "t": 46601.91999999993,
      "d": 87.37859999999637,
      "v": 69
    },
    {
      "midi": 55,
      "hit": false,
      "t": 46747.55099999993,
      "d": 63.10676666666404,
      "v": 44
    },
    {
      "midi": 60,
      "hit": false,
      "t": 46747.55099999993,
      "d": 97.0873333333293,
      "v": 83
    },
    {
      "midi": 48,
      "hit": false,
      "t": 46893.18199999992,
      "d": 106.7960666666695,
      "v": 67
    },
    {
      "midi": 61,
      "hit": false,
      "t": 47038.81299999992,
      "d": 19.41746666666586,
      "v": 62
    },
    {
      "midi": 55,
      "hit": false,
      "t": 47038.81299999992,
      "d": 82.5242333333299,
      "v": 62
    },
    {
      "midi": 63,
      "hit": false,
      "t": 47038.81299999992,
      "d": 82.5242333333299,
      "v": 92
    },
    {
      "midi": 48,
      "hit": false,
      "t": 47184.443999999916,
      "d": 106.7960666666695,
      "v": 67
    },
    {
      "midi": 58,
      "hit": false,
      "t": 47330.07499999992,
      "d": 24.271833333332324,
      "v": 80
    },
    {
      "midi": 55,
      "hit": false,
      "t": 47330.07499999992,
      "d": 38.83493333333172,
      "v": 53
    },
    {
      "midi": 55,
      "hit": false,
      "t": 47475.70599999992,
      "d": 2873.7850666666636,
      "v": 56
    },
    {
      "midi": 60,
      "hit": false,
      "t": 47475.70599999992,
      "d": 2883.4937999999966,
      "v": 90
    },
    {
      "midi": 48,
      "hit": false,
      "t": 60582.49599999991,
      "d": 310.6794666666683,
      "v": 65
    },
    {
      "midi": 55,
      "hit": false,
      "t": 60582.49599999991,
      "d": 325.2425666666677,
      "v": 57
    },
    {
      "midi": 60,
      "hit": false,
      "t": 60873.757999999914,
      "d": 106.79606666666223,
      "v": 65
    },
    {
      "midi": 65,
      "hit": false,
      "t": 60873.757999999914,
      "d": 121.35916666666162,
      "v": 83
    },
    {
      "midi": 48,
      "hit": false,
      "t": 61019.38899999991,
      "d": 111.65043333333597,
      "v": 60
    },
    {
      "midi": 55,
      "hit": false,
      "t": 61019.38899999991,
      "d": 126.21353333333536,
      "v": 46
    },
    {
      "midi": 60,
      "hit": false,
      "t": 61165.01999999991,
      "d": 106.7960666666695,
      "v": 77
    },
    {
      "midi": 65,
      "hit": false,
      "t": 61165.01999999991,
      "d": 121.3591666666689,
      "v": 80
    },
    {
      "midi": 48,
      "hit": false,
      "t": 61310.65099999991,
      "d": 140.77663333333476,
      "v": 57
    },
    {
      "midi": 55,
      "hit": false,
      "t": 61310.65099999991,
      "d": 199.02903333333234,
      "v": 60
    },
    {
      "midi": 60,
      "hit": false,
      "t": 61456.28199999991,
      "d": 33.980566666665254,
      "v": 34
    },
    {
      "midi": 63,
      "hit": false,
      "t": 61456.28199999991,
      "d": 58.25239999999758,
      "v": 68
    },
    {
      "midi": 60,
      "hit": false,
      "t": 61601.912999999906,
      "d": 101.94170000000304,
      "v": 69
    },
    {
      "midi": 65,
      "hit": false,
      "t": 61601.912999999906,
      "d": 101.94170000000304,
      "v": 90
    },
    {
      "midi": 48,
      "hit": false,
      "t": 61747.54399999991,
      "d": 126.21353333333536,
      "v": 60
    },
    {
      "midi": 55,
      "hit": false,
      "t": 61747.54399999991,
      "d": 126.21353333333536,
      "v": 46
    },
    {
      "midi": 60,
      "hit": false,
      "t": 61893.17499999991,
      "d": 38.83493333333172,
      "v": 48
    },
    {
      "midi": 63,
      "hit": false,
      "t": 61893.17499999991,
      "d": 38.83493333333172,
      "v": 71
    },
    {
      "midi": 60,
      "hit": false,
      "t": 62038.80599999991,
      "d": 97.08733333333657,
      "v": 80
    },
    {
      "midi": 65,
      "hit": false,
      "t": 62038.80599999991,
      "d": 121.3591666666689,
      "v": 100
    },
    {
      "midi": 55,
      "hit": false,
      "t": 62184.43699999991,
      "d": 131.06790000000183,
      "v": 55
    },
    {
      "midi": 48,
      "hit": false,
      "t": 62184.43699999991,
      "d": 135.9222666666683,
      "v": 62
    },
    {
      "midi": 63,
      "hit": false,
      "t": 62330.06799999991,
      "d": 38.83493333333172,
      "v": 32
    },
    {
      "midi": 60,
      "hit": false,
      "t": 62330.06799999991,
      "d": 77.66986666666344,
      "v": 41
    },
    {
      "midi": 48,
      "hit": false,
      "t": 62475.698999999906,
      "d": 135.9222666666683,
      "v": 56
    },
    {
      "midi": 55,
      "hit": false,
      "t": 62475.698999999906,
      "d": 140.77663333333476,
      "v": 50
    },
    {
      "midi": 60,
      "hit": false,
      "t": 62621.32999999991,
      "d": 135.9222666666683,
      "v": 74
    },
    {
      "midi": 63,
      "hit": false,
      "t": 62621.32999999991,
      "d": 140.77663333333476,
      "v": 85
    },
    {
      "midi": 60,
      "hit": false,
      "t": 62766.96099999991,
      "d": 97.08733333333657,
      "v": 30
    },
    {
      "midi": 65,
      "hit": false,
      "t": 62766.96099999991,
      "d": 106.7960666666695,
      "v": 77
    },
    {
      "midi": 48,
      "hit": false,
      "t": 62912.59199999991,
      "d": 121.3591666666689,
      "v": 59
    },
    {
      "midi": 55,
      "hit": false,
      "t": 62912.59199999991,
      "d": 140.77663333333476,
      "v": 48
    },
    {
      "midi": 60,
      "hit": false,
      "t": 63058.22299999991,
      "d": 24.271833333332324,
      "v": 29
    },
    {
      "midi": 48,
      "hit": false,
      "t": 63058.22299999991,
      "d": 126.21353333333536,
      "v": 59
    },
    {
      "midi": 55,
      "hit": false,
      "t": 63058.22299999991,
      "d": 131.06790000000183,
      "v": 50
    },
    {
      "midi": 65,
      "hit": false,
      "t": 63203.85399999991,
      "d": 106.7960666666695,
      "v": 86
    },
    {
      "midi": 60,
      "hit": false,
      "t": 63203.85399999991,
      "d": 116.50480000000243,
      "v": 72
    },
    {
      "midi": 48,
      "hit": false,
      "t": 63349.48499999991,
      "d": 106.7960666666695,
      "v": 57
    },
    {
      "midi": 55,
      "hit": false,
      "t": 63349.48499999991,
      "d": 106.7960666666695,
      "v": 51
    },
    {
      "midi": 60,
      "hit": false,
      "t": 63495.115999999914,
      "d": 87.37859999999637,
      "v": 77
    },
    {
      "midi": 65,
      "hit": false,
      "t": 63495.115999999914,
      "d": 140.77663333332748,
      "v": 100
    },
    {
      "midi": 48,
      "hit": false,
      "t": 63640.74699999991,
      "d": 101.94170000000304,
      "v": 57
    },
    {
      "midi": 55,
      "hit": false,
      "t": 63640.74699999991,
      "d": 145.63100000000122,
      "v": 57
    },
    {
      "midi": 60,
      "hit": false,
      "t": 63786.37799999991,
      "d": 38.83493333333172,
      "v": 56
    },
    {
      "midi": 63,
      "hit": false,
      "t": 63786.37799999991,
      "d": 43.689299999998184,
      "v": 73
    },
    {
      "midi": 60,
      "hit": false,
      "t": 63932.00899999991,
      "d": 97.08733333333657,
      "v": 86
    },
    {
      "midi": 65,
      "hit": false,
      "t": 63932.00899999991,
      "d": 111.65043333333597,
      "v": 95
    },
    {
      "midi": 48,
      "hit": false,
      "t": 64077.63999999991,
      "d": 121.3591666666689,
      "v": 59
    },
    {
      "midi": 55,
      "hit": false,
      "t": 64077.63999999991,
      "d": 145.63100000000122,
      "v": 48
    },
    {
      "midi": 60,
      "hit": false,
      "t": 64223.27099999991,
      "d": 63.10676666666404,
      "v": 69
    },
    {
      "midi": 67,
      "hit": false,
      "t": 64223.27099999991,
      "d": 67.96113333333051,
      "v": 83
    },
    {
      "midi": 60,
      "hit": false,
      "t": 64368.90199999991,
      "d": 169.90283333333355,
      "v": 86
    },
    {
      "midi": 63,
      "hit": false,
      "t": 64368.90199999991,
      "d": 169.90283333333355,
      "v": 111
    },
    {
      "midi": 55,
      "hit": false,
      "t": 64514.53299999991,
      "d": 228.15523333333113,
      "v": 60
    },
    {
      "midi": 48,
      "hit": false,
      "t": 64514.53299999991,
      "d": 393.2036999999982,
      "v": 62
    },
    {
      "midi": 58,
      "hit": false,
      "t": 64951.425999999905,
      "d": 77.66986666666344,
      "v": 101
    },
    {
      "midi": 55,
      "hit": false,
      "t": 64951.425999999905,
      "d": 111.65043333332869,
      "v": 72
    },
    {
      "midi": 48,
      "hit": false,
      "t": 65097.0569999999,
      "d": 126.21353333333536,
      "v": 62
    },
    {
      "midi": 55,
      "hit": false,
      "t": 65242.6879999999,
      "d": 97.08733333333657,
      "v": 69
    },
    {
      "midi": 58,
      "hit": false,
      "t": 65242.6879999999,
      "d": 106.7960666666695,
      "v": 92
    },
    {
      "midi": 55,
      "hit": false,
      "t": 65388.3189999999,
      "d": 58.25239999999758,
      "v": 42
    },
    {
      "midi": 60,
      "hit": false,
      "t": 65388.3189999999,
      "d": 77.66986666666344,
      "v": 74
    },
    {
      "midi": 48,
      "hit": false,
      "t": 65533.949999999895,
      "d": 106.79606666666223,
      "v": 67
    },
    {
      "midi": 63,
      "hit": false,
      "t": 65679.58099999989,
      "d": 19.41746666666586,
      "v": 49
    },
    {
      "midi": 55,
      "hit": false,
      "t": 65679.58099999989,
      "d": 97.0873333333293,
      "v": 65
    },
    {
      "midi": 60,
      "hit": false,
      "t": 65679.58099999989,
      "d": 140.77663333332748,
      "v": 90
    },
    {
      "midi": 48,
      "hit": false,
      "t": 65825.21199999988,
      "d": 145.63099999999395,
      "v": 62
    },
    {
      "midi": 48,
      "hit": false,
      "t": 65970.84299999988,
      "d": 106.79606666666223,
      "v": 26
    },
    {
      "midi": 55,
      "hit": false,
      "t": 69757.24899999987,
      "d": 334.95130000000063,
      "v": 56
    },
    {
      "midi": 48,
      "hit": false,
      "t": 69757.24899999987,
      "d": 378.6405999999988,
      "v": 59
    },
    {
      "midi": 60,
      "hit": false,
      "t": 70194.14199999986,
      "d": 126.21353333332809,
      "v": 57
    },
    {
      "midi": 55,
      "hit": false,
      "t": 70339.77299999986,
      "d": 116.50479999999516,
      "v": 45
    },
    {
      "midi": 48,
      "hit": false,
      "t": 70339.77299999986,
      "d": 145.63099999999395,
      "v": 56
    },
    {
      "midi": 60,
      "hit": false,
      "t": 70485.40399999985,
      "d": 97.0873333333293,
      "v": 80
    },
    {
      "midi": 65,
      "hit": false,
      "t": 70485.40399999985,
      "d": 126.21353333332809,
      "v": 90
    },
    {
      "midi": 48,
      "hit": false,
      "t": 70631.03499999984,
      "d": 121.35916666666162,
      "v": 59
    },
    {
      "midi": 55,
      "hit": false,
      "t": 70631.03499999984,
      "d": 155.33973333332688,
      "v": 49
    },
    {
      "midi": 63,
      "hit": false,
      "t": 70776.66599999984,
      "d": 53.398033333331114,
      "v": 62
    },
    {
      "midi": 60,
      "hit": false,
      "t": 70776.66599999984,
      "d": 58.25239999999758,
      "v": 53
    },
    {
      "midi": 60,
      "hit": false,
      "t": 70922.29699999983,
      "d": 92.23296666666283,
      "v": 65
    },
    {
      "midi": 65,
      "hit": false,
      "t": 70922.29699999983,
      "d": 106.79606666666223,
      "v": 86
    },
    {
      "midi": 55,
      "hit": false,
      "t": 71067.92799999983,
      "d": 121.35916666666162,
      "v": 45
    },
    {
      "midi": 48,
      "hit": false,
      "t": 71067.92799999983,
      "d": 145.63099999999395,
      "v": 54
    },
    {
      "midi": 63,
      "hit": false,
      "t": 71213.55899999982,
      "d": 33.980566666665254,
      "v": 73
    },
    {
      "midi": 60,
      "hit": false,
      "t": 71213.55899999982,
      "d": 58.25239999999758,
      "v": 56
    },
    {
      "midi": 60,
      "hit": false,
      "t": 71359.18999999981,
      "d": 82.5242333333299,
      "v": 60
    },
    {
      "midi": 65,
      "hit": false,
      "t": 71359.18999999981,
      "d": 111.65043333332869,
      "v": 90
    },
    {
      "midi": 48,
      "hit": false,
      "t": 71504.8209999998,
      "d": 101.94169999999576,
      "v": 53
    },
    {
      "midi": 55,
      "hit": false,
      "t": 71504.8209999998,
      "d": 140.77663333332748,
      "v": 45
    },
    {
      "midi": 60,
      "hit": false,
      "t": 71650.4519999998,
      "d": 67.96113333333051,
      "v": 56
    },
    {
      "midi": 48,
      "hit": false,
      "t": 71796.0829999998,
      "d": 135.92226666666102,
      "v": 56
    },
    {
      "midi": 55,
      "hit": false,
      "t": 71796.0829999998,
      "d": 160.19409999999334,
      "v": 48
    },
    {
      "midi": 60,
      "hit": false,
      "t": 71941.71399999979,
      "d": 106.79606666666223,
      "v": 67
    },
    {
      "midi": 63,
      "hit": false,
      "t": 71941.71399999979,
      "d": 199.02903333332506,
      "v": 85
    },
    {
      "midi": 60,
      "hit": false,
      "t": 72087.34499999978,
      "d": 87.37859999999637,
      "v": 39
    },
    {
      "midi": 65,
      "hit": false,
      "t": 72087.34499999978,
      "d": 101.94169999999576,
      "v": 86
    },
    {
      "midi": 55,
      "hit": false,
      "t": 72087.34499999978,
      "d": 145.63099999999395,
      "v": 45
    },
    {
      "midi": 48,
      "hit": false,
      "t": 72232.97599999978,
      "d": 140.77663333332748,
      "v": 53
    },
    {
      "midi": 60,
      "hit": false,
      "t": 72378.60699999977,
      "d": 67.96113333333051,
      "v": 45
    },
    {
      "midi": 55,
      "hit": false,
      "t": 72524.23799999976,
      "d": 111.65043333332869,
      "v": 49
    },
    {
      "midi": 60,
      "hit": false,
      "t": 72524.23799999976,
      "d": 111.65043333332869,
      "v": 74
    },
    {
      "midi": 48,
      "hit": false,
      "t": 72524.23799999976,
      "d": 126.21353333332809,
      "v": 60
    },
    {
      "midi": 65,
      "hit": false,
      "t": 72524.23799999976,
      "d": 135.92226666666102,
      "v": 90
    },
    {
      "midi": 48,
      "hit": false,
      "t": 72669.86899999976,
      "d": 121.35916666666162,
      "v": 57
    },
    {
      "midi": 55,
      "hit": false,
      "t": 72669.86899999976,
      "d": 126.21353333332809,
      "v": 45
    },
    {
      "midi": 60,
      "hit": false,
      "t": 72815.49999999975,
      "d": 97.0873333333293,
      "v": 74
    },
    {
      "midi": 65,
      "hit": false,
      "t": 72815.49999999975,
      "d": 131.06789999999455,
      "v": 90
    },
    {
      "midi": 48,
      "hit": false,
      "t": 72961.13099999975,
      "d": 131.06789999999455,
      "v": 54
    },
    {
      "midi": 55,
      "hit": false,
      "t": 72961.13099999975,
      "d": 145.63099999999395,
      "v": 48
    },
    {
      "midi": 60,
      "hit": false,
      "t": 73106.76199999974,
      "d": 48.54366666666465,
      "v": 51
    },
    {
      "midi": 63,
      "hit": false,
      "t": 73106.76199999974,
      "d": 63.10676666666404,
      "v": 71
    },
    {
      "midi": 60,
      "hit": false,
      "t": 73252.39299999973,
      "d": 97.0873333333293,
      "v": 65
    },
    {
      "midi": 65,
      "hit": false,
      "t": 73252.39299999973,
      "d": 126.21353333332809,
      "v": 86
    },
    {
      "midi": 48,
      "hit": false,
      "t": 73398.02399999973,
      "d": 121.35916666666162,
      "v": 55
    },
    {
      "midi": 55,
      "hit": false,
      "t": 73398.02399999973,
      "d": 140.77663333332748,
      "v": 50
    },
    {
      "midi": 60,
      "hit": false,
      "t": 73543.65499999972,
      "d": 67.96113333333051,
      "v": 64
    },
    {
      "midi": 67,
      "hit": false,
      "t": 73543.65499999972,
      "d": 67.96113333333051,
      "v": 72
    },
    {
      "midi": 67,
      "hit": false,
      "t": 73689.28599999972,
      "d": 14.563099999999395,
      "v": 41
    },
    {
      "midi": 63,
      "hit": false,
      "t": 73689.28599999972,
      "d": 116.50479999999516,
      "v": 101
    },
    {
      "midi": 60,
      "hit": false,
      "t": 73689.28599999972,
      "d": 135.92226666666102,
      "v": 67
    },
    {
      "midi": 48,
      "hit": false,
      "t": 73834.91699999971,
      "d": 131.06789999999455,
      "v": 51
    },
    {
      "midi": 63,
      "hit": false,
      "t": 73980.5479999997,
      "d": 140.77663333332748,
      "v": 44
    },
    {
      "midi": 60,
      "hit": false,
      "t": 73980.5479999997,
      "d": 145.63099999999395,
      "v": 57
    },
    {
      "midi": 50,
      "hit": false,
      "t": 74126.1789999997,
      "d": 82.5242333333299,
      "v": 44
    },
    {
      "midi": 48,
      "hit": false,
      "t": 74126.1789999997,
      "d": 116.50479999999516,
      "v": 48
    },
    {
      "midi": 55,
      "hit": false,
      "t": 74271.80999999969,
      "d": 87.37859999999637,
      "v": 67
    },
    {
      "midi": 58,
      "hit": false,
      "t": 74271.80999999969,
      "d": 87.37859999999637,
      "v": 92
    },
    {
      "midi": 48,
      "hit": false,
      "t": 74417.44099999969,
      "d": 140.77663333332748,
      "v": 65
    },
    {
      "midi": 58,
      "hit": false,
      "t": 74563.07199999968,
      "d": 82.5242333333299,
      "v": 101
    },
    {
      "midi": 55,
      "hit": false,
      "t": 74563.07199999968,
      "d": 87.37859999999637,
      "v": 69
    },
    {
      "midi": 55,
      "hit": false,
      "t": 74708.70299999967,
      "d": 63.10676666666404,
      "v": 44
    },
    {
      "midi": 60,
      "hit": false,
      "t": 74708.70299999967,
      "d": 97.0873333333293,
      "v": 83
    },
    {
      "midi": 48,
      "hit": false,
      "t": 74854.33399999967,
      "d": 106.79606666666223,
      "v": 67
    },
    {
      "midi": 61,
      "hit": false,
      "t": 74999.96499999966,
      "d": 19.41746666666586,
      "v": 62
    },
    {
      "midi": 55,
      "hit": false,
      "t": 74999.96499999966,
      "d": 82.5242333333299,
      "v": 62
    },
    {
      "midi": 63,
      "hit": false,
      "t": 74999.96499999966,
      "d": 82.5242333333299,
      "v": 92
    },
    {
      "midi": 48,
      "hit": false,
      "t": 75145.59599999966,
      "d": 106.79606666666223,
      "v": 67
    },
    {
      "midi": 58,
      "hit": false,
      "t": 75291.22699999965,
      "d": 24.271833333332324,
      "v": 80
    },
    {
      "midi": 55,
      "hit": false,
      "t": 75291.22699999965,
      "d": 38.83493333333172,
      "v": 53
    },
    {
      "midi": 55,
      "hit": false,
      "t": 75436.85799999964,
      "d": 2873.7850666666636,
      "v": 56
    },
    {
      "midi": 60,
      "hit": false,
      "t": 75436.85799999964,
      "d": 2883.4937999999966,
      "v": 90
    },
    {
      "midi": 53,
      "hit": false,
      "t": 135145.56799999997,
      "d": 708.737533333333,
      "v": 60
    },
    {
      "midi": 65,
      "hit": false,
      "t": 135145.56799999997,
      "d": 961.1645999999892,
      "v": 74
    },
    {
      "midi": 68,
      "hit": false,
      "t": 135145.56799999997,
      "d": 966.0189666666556,
      "v": 66
    },
    {
      "midi": 72,
      "hit": false,
      "t": 135145.56799999997,
      "d": 975.7276999999885,
      "v": 72
    },
    {
      "midi": 53,
      "hit": false,
      "t": 136019.35399999996,
      "d": 621.3589333333366,
      "v": 54
    },
    {
      "midi": 65,
      "hit": false,
      "t": 136601.87799999997,
      "d": 135.92226666666102,
      "v": 67
    },
    {
      "midi": 65,
      "hit": false,
      "t": 136893.13999999996,
      "d": 77.66986666666344,
      "v": 72
    },
    {
      "midi": 68,
      "hit": false,
      "t": 136893.13999999996,
      "d": 87.37859999999637,
      "v": 80
    },
    {
      "midi": 72,
      "hit": false,
      "t": 136893.13999999996,
      "d": 101.94169999999576,
      "v": 77
    },
    {
      "midi": 65,
      "hit": false,
      "t": 137184.40199999994,
      "d": 436.89299999998184,
      "v": 83
    },
    {
      "midi": 53,
      "hit": false,
      "t": 137184.40199999994,
      "d": 524.2715999999782,
      "v": 69
    },
    {
      "midi": 67,
      "hit": false,
      "t": 137184.40199999994,
      "d": 597.0870999999752,
      "v": 86
    },
    {
      "midi": 72,
      "hit": false,
      "t": 137184.40199999994,
      "d": 621.3589333333075,
      "v": 80
    },
    {
      "midi": 65,
      "hit": false,
      "t": 137766.92599999992,
      "d": 145.63099999999395,
      "v": 43
    },
    {
      "midi": 65,
      "hit": false,
      "t": 138058.1879999999,
      "d": 58.25239999999758,
      "v": 64
    },
    {
      "midi": 68,
      "hit": false,
      "t": 138058.1879999999,
      "d": 160.19409999999334,
      "v": 101
    },
    {
      "midi": 53,
      "hit": false,
      "t": 138058.1879999999,
      "d": 266.99016666665557,
      "v": 69
    },
    {
      "midi": 72,
      "hit": false,
      "t": 138058.1879999999,
      "d": 276.6988999999885,
      "v": 74
    },
    {
      "midi": 65,
      "hit": false,
      "t": 138349.4499999999,
      "d": 135.92226666666102,
      "v": 50
    },
    {
      "midi": 53,
      "hit": false,
      "t": 138786.34299999988,
      "d": 1048.5431999999564,
      "v": 69
    },
    {
      "midi": 72,
      "hit": false,
      "t": 139077.60499999986,
      "d": 218.44649999999092,
      "v": 50
    },
    {
      "midi": 75,
      "hit": false,
      "t": 139223.23599999986,
      "d": 121.35916666666162,
      "v": 76
    },
    {
      "midi": 77,
      "hit": false,
      "t": 139368.86699999985,
      "d": 150.4853666666604,
      "v": 51
    },
    {
      "midi": 72,
      "hit": false,
      "t": 139514.49799999985,
      "d": 199.02903333332506,
      "v": 34
    },
    {
      "midi": 75,
      "hit": false,
      "t": 139660.12899999984,
      "d": 72.81549999999697,
      "v": 25
    },
    {
      "midi": 77,
      "hit": false,
      "t": 139660.12899999984,
      "d": 101.94169999999576,
      "v": 57
    },
    {
      "midi": 79,
      "hit": false,
      "t": 139805.75999999983,
      "d": 334.9512999999861,
      "v": 77
    },
    {
      "midi": 72,
      "hit": false,
      "t": 140388.2839999998,
      "d": 87.37859999999637,
      "v": 17
    },
    {
      "midi": 65,
      "hit": false,
      "t": 140388.2839999998,
      "d": 237.86396666665678,
      "v": 60
    },
    {
      "midi": 80,
      "hit": false,
      "t": 140679.5459999998,
      "d": 184.46593333332567,
      "v": 73
    },
    {
      "midi": 79,
      "hit": false,
      "t": 141262.0699999998,
      "d": 305.8250999999873,
      "v": 57
    },
    {
      "midi": 75,
      "hit": false,
      "t": 141553.3319999998,
      "d": 271.84453333332203,
      "v": 92
    },
    {
      "midi": 72,
      "hit": false,
      "t": 141844.59399999978,
      "d": 218.44649999999092,
      "v": 56
    },
    {
      "midi": 65,
      "hit": false,
      "t": 142135.85599999977,
      "d": 135.92226666666102,
      "v": 74
    },
    {
      "midi": 67,
      "hit": false,
      "t": 142281.48699999976,
      "d": 106.79606666666223,
      "v": 55
    },
    {
      "midi": 70,
      "hit": false,
      "t": 142427.11799999975,
      "d": 92.23296666666283,
      "v": 64
    },
    {
      "midi": 75,
      "hit": false,
      "t": 142572.74899999975,
      "d": 116.50479999999516,
      "v": 85
    },
    {
      "midi": 60,
      "hit": false,
      "t": 142718.37999999974,
      "d": 203.88339999999152,
      "v": 80
    },
    {
      "midi": 67,
      "hit": false,
      "t": 142864.01099999974,
      "d": 101.94169999999576,
      "v": 59
    },
    {
      "midi": 70,
      "hit": false,
      "t": 143009.64199999973,
      "d": 67.96113333333051,
      "v": 76
    },
    {
      "midi": 72,
      "hit": false,
      "t": 143155.27299999972,
      "d": 101.94169999999576,
      "v": 100
    },
    {
      "midi": 60,
      "hit": false,
      "t": 143300.90399999972,
      "d": 131.06789999999455,
      "v": 72
    },
    {
      "midi": 67,
      "hit": false,
      "t": 143446.5349999997,
      "d": 87.37859999999637,
      "v": 55
    },
    {
      "midi": 70,
      "hit": false,
      "t": 143592.1659999997,
      "d": 126.21353333332809,
      "v": 101
    },
    {
      "midi": 60,
      "hit": false,
      "t": 143737.7969999997,
      "d": 135.92226666666102,
      "v": 74
    },
    {
      "midi": 65,
      "hit": false,
      "t": 143883.4279999997,
      "d": 101.94169999999576,
      "v": 86
    },
    {
      "midi": 63,
      "hit": false,
      "t": 144174.68999999968,
      "d": 116.50479999999516,
      "v": 92
    },
    {
      "midi": 60,
      "hit": false,
      "t": 144465.95199999967,
      "d": 43.689299999998184,
      "v": 25
    },
    {
      "midi": 63,
      "hit": false,
      "t": 144465.95199999967,
      "d": 43.689299999998184,
      "v": 68
    },
    {
      "midi": 65,
      "hit": false,
      "t": 144465.95199999967,
      "d": 228.15523333332385,
      "v": 77
    },
    {
      "midi": 63,
      "hit": false,
      "t": 144757.21399999966,
      "d": 82.5242333333299,
      "v": 73
    },
    {
      "midi": 60,
      "hit": false,
      "t": 144902.84499999965,
      "d": 92.23296666666283,
      "v": 77
    },
    {
      "midi": 67,
      "hit": false,
      "t": 145048.47599999965,
      "d": 97.0873333333293,
      "v": 100
    },
    {
      "midi": 60,
      "hit": false,
      "t": 145339.73799999963,
      "d": 48.54366666666465,
      "v": 65
    },
    {
      "midi": 63,
      "hit": false,
      "t": 145339.73799999963,
      "d": 116.50479999999516,
      "v": 62
    },
    {
      "midi": 60,
      "hit": false,
      "t": 145485.36899999963,
      "d": 97.0873333333293,
      "v": 77
    },
    {
      "midi": 67,
      "hit": false,
      "t": 145630.99999999962,
      "d": 126.21353333332809,
      "v": 86
    },
    {
      "midi": 60,
      "hit": false,
      "t": 145776.63099999962,
      "d": 111.65043333332869,
      "v": 57
    },
    {
      "midi": 63,
      "hit": false,
      "t": 145922.2619999996,
      "d": 101.94169999999576,
      "v": 73
    },
    {
      "midi": 70,
      "hit": false,
      "t": 146067.8929999996,
      "d": 97.0873333333293,
      "v": 92
    },
    {
      "midi": 60,
      "hit": false,
      "t": 146213.5239999996,
      "d": 97.0873333333293,
      "v": 54
    },
    {
      "midi": 63,
      "hit": false,
      "t": 146359.1549999996,
      "d": 97.0873333333293,
      "v": 60
    },
    {
      "midi": 72,
      "hit": false,
      "t": 146504.78599999959,
      "d": 199.02903333332506,
      "v": 100
    },
    {
      "midi": 60,
      "hit": false,
      "t": 147087.3099999996,
      "d": 155.33973333332688,
      "v": 72
    },
    {
      "midi": 67,
      "hit": false,
      "t": 147232.94099999958,
      "d": 87.37859999999637,
      "v": 74
    },
    {
      "midi": 70,
      "hit": false,
      "t": 147378.57199999958,
      "d": 58.25239999999758,
      "v": 80
    },
    {
      "midi": 74,
      "hit": false,
      "t": 147524.20299999957,
      "d": 82.5242333333299,
      "v": 95
    },
    {
      "midi": 62,
      "hit": false,
      "t": 147669.83399999957,
      "d": 106.79606666666223,
      "v": 62
    },
    {
      "midi": 60,
      "hit": false,
      "t": 147669.83399999957,
      "d": 135.92226666666102,
      "v": 69
    },
    {
      "midi": 65,
      "hit": false,
      "t": 147815.46499999956,
      "d": 77.66986666666344,
      "v": 56
    },
    {
      "midi": 67,
      "hit": false,
      "t": 147961.09599999955,
      "d": 87.37859999999637,
      "v": 85
    },
    {
      "midi": 60,
      "hit": false,
      "t": 148252.35799999954,
      "d": 131.06789999999455,
      "v": 12
    },
    {
      "midi": 70,
      "hit": false,
      "t": 148397.98899999954,
      "d": 145.63099999999395,
      "v": 80
    },
    {
      "midi": 60,
      "hit": false,
      "t": 148689.25099999952,
      "d": 106.79606666666223,
      "v": 74
    },
    {
      "midi": 68,
      "hit": false,
      "t": 148834.88199999952,
      "d": 33.980566666665254,
      "v": 39
    },
    {
      "midi": 67,
      "hit": false,
      "t": 148834.88199999952,
      "d": 38.83493333333172,
      "v": 44
    },
    {
      "midi": 67,
      "hit": false,
      "t": 149126.1439999995,
      "d": 29.12619999999879,
      "v": 64
    },
    {
      "midi": 65,
      "hit": false,
      "t": 149126.1439999995,
      "d": 97.0873333333293,
      "v": 80
    },
    {
      "midi": 60,
      "hit": false,
      "t": 149417.4059999995,
      "d": 87.37859999999637,
      "v": 77
    },
    {
      "midi": 63,
      "hit": false,
      "t": 149563.0369999995,
      "d": 101.94169999999576,
      "v": 85
    },
    {
      "midi": 65,
      "hit": false,
      "t": 149854.29899999948,
      "d": 87.37859999999637,
      "v": 74
    },
    {
      "midi": 63,
      "hit": false,
      "t": 149999.92999999947,
      "d": 150.4853666666604,
      "v": 85
    },
    {
      "midi": 60,
      "hit": false,
      "t": 150291.19199999946,
      "d": 135.92226666666102,
      "v": 86
    },
    {
      "midi": 67,
      "hit": false,
      "t": 150582.45399999944,
      "d": 82.5242333333299,
      "v": 95
    },
    {
      "midi": 58,
      "hit": false,
      "t": 150873.71599999943,
      "d": 165.0484666666598,
      "v": 80
    },
    {
      "midi": 72,
      "hit": false,
      "t": 151164.97799999942,
      "d": 121.35916666666162,
      "v": 95
    },
    {
      "midi": 75,
      "hit": false,
      "t": 151310.60899999941,
      "d": 77.66986666666344,
      "v": 60
    },
    {
      "midi": 77,
      "hit": false,
      "t": 151456.2399999994,
      "d": 116.50479999999516,
      "v": 86
    },
    {
      "midi": 79,
      "hit": false,
      "t": 151747.5019999994,
      "d": 82.5242333333299,
      "v": 86
    },
    {
      "midi": 82,
      "hit": false,
      "t": 151893.1329999994,
      "d": 92.23296666666283,
      "v": 111
    },
    {
      "midi": 79,
      "hit": false,
      "t": 152184.39499999938,
      "d": 116.50479999999516,
      "v": 64
    },
    {
      "midi": 82,
      "hit": false,
      "t": 152330.02599999937,
      "d": 116.50479999999516,
      "v": 85
    },
    {
      "midi": 87,
      "hit": false,
      "t": 152621.28799999936,
      "d": 92.23296666666283,
      "v": 111
    },
    {
      "midi": 86,
      "hit": false,
      "t": 152912.54999999935,
      "d": 87.37859999999637,
      "v": 77
    },
    {
      "midi": 82,
      "hit": false,
      "t": 153058.18099999934,
      "d": 82.5242333333299,
      "v": 85
    },
    {
      "midi": 79,
      "hit": false,
      "t": 153203.81199999934,
      "d": 63.10676666666404,
      "v": 65
    },
    {
      "midi": 77,
      "hit": false,
      "t": 153349.44299999933,
      "d": 58.25239999999758,
      "v": 74
    },
    {
      "midi": 75,
      "hit": false,
      "t": 153495.07399999932,
      "d": 63.10676666666404,
      "v": 85
    },
    {
      "midi": 72,
      "hit": false,
      "t": 153640.70499999932,
      "d": 101.94169999999576,
      "v": 77
    },
    {
      "midi": 75,
      "hit": false,
      "t": 153786.3359999993,
      "d": 72.81549999999697,
      "v": 68
    },
    {
      "midi": 79,
      "hit": false,
      "t": 153786.3359999993,
      "d": 111.65043333332869,
      "v": 44
    },
    {
      "midi": 75,
      "hit": false,
      "t": 153931.9669999993,
      "d": 140.77663333332748,
      "v": 92
    },
    {
      "midi": 72,
      "hit": false,
      "t": 153931.9669999993,
      "d": 271.84453333332203,
      "v": 72
    },
    {
      "midi": 79,
      "hit": false,
      "t": 153931.9669999993,
      "d": 305.8250999999873,
      "v": 83
    },
    {
      "midi": 75,
      "hit": false,
      "t": 154077.5979999993,
      "d": 9.70873333333293,
      "v": 69
    },
    {
      "midi": 78,
      "hit": false,
      "t": 154077.5979999993,
      "d": 9.70873333333293,
      "v": 69
    },
    {
      "midi": 60,
      "hit": false,
      "t": 154223.2289999993,
      "d": 194.1746666666586,
      "v": 72
    },
    {
      "midi": 72,
      "hit": false,
      "t": 154368.8599999993,
      "d": 199.02903333332506,
      "v": 90
    },
    {
      "midi": 75,
      "hit": false,
      "t": 154368.8599999993,
      "d": 257.28143333332264,
      "v": 101
    },
    {
      "midi": 79,
      "hit": false,
      "t": 154368.8599999993,
      "d": 281.55326666665496,
      "v": 86
    },
    {
      "midi": 60,
      "hit": false,
      "t": 154660.12199999928,
      "d": 199.02903333332506,
      "v": 77
    },
    {
      "midi": 75,
      "hit": false,
      "t": 154805.75299999927,
      "d": 97.0873333333293,
      "v": 92
    },
    {
      "midi": 78,
      "hit": false,
      "t": 154805.75299999927,
      "d": 131.06789999999455,
      "v": 101
    },
    {
      "midi": 77,
      "hit": false,
      "t": 155097.01499999926,
      "d": 82.5242333333299,
      "v": 83
    },
    {
      "midi": 75,
      "hit": false,
      "t": 155242.64599999925,
      "d": 101.94169999999576,
      "v": 101
    },
    {
      "midi": 72,
      "hit": false,
      "t": 155388.27699999925,
      "d": 77.66986666666344,
      "v": 83
    },
    {
      "midi": 60,
      "hit": false,
      "t": 155533.90799999924,
      "d": 121.35916666666162,
      "v": 77
    },
    {
      "midi": 67,
      "hit": false,
      "t": 155679.53899999923,
      "d": 53.398033333331114,
      "v": 65
    },
    {
      "midi": 70,
      "hit": false,
      "t": 155825.16999999923,
      "d": 82.5242333333299,
      "v": 101
    },
    {
      "midi": 72,
      "hit": false,
      "t": 155970.80099999922,
      "d": 63.10676666666404,
      "v": 100
    },
    {
      "midi": 72,
      "hit": false,
      "t": 156116.43199999921,
      "d": 97.0873333333293,
      "v": 105
    },
    {
      "midi": 60,
      "hit": false,
      "t": 156407.6939999992,
      "d": 121.35916666666162,
      "v": 74
    },
    {
      "midi": 70,
      "hit": false,
      "t": 156553.3249999992,
      "d": 87.37859999999637,
      "v": 68
    },
    {
      "midi": 67,
      "hit": false,
      "t": 156698.9559999992,
      "d": 106.79606666666223,
      "v": 77
    },
    {
      "midi": 75,
      "hit": false,
      "t": 156844.58699999918,
      "d": 67.96113333333051,
      "v": 92
    },
    {
      "midi": 74,
      "hit": false,
      "t": 156990.21799999918,
      "d": 58.25239999999758,
      "v": 83
    },
    {
      "midi": 70,
      "hit": false,
      "t": 157135.84899999917,
      "d": 72.81549999999697,
      "v": 101
    },
    {
      "midi": 67,
      "hit": false,
      "t": 157281.47999999917,
      "d": 126.21353333332809,
      "v": 65
    },
    {
      "midi": 70,
      "hit": false,
      "t": 157427.11099999916,
      "d": 97.0873333333293,
      "v": 92
    },
    {
      "midi": 67,
      "hit": false,
      "t": 157572.74199999915,
      "d": 67.96113333333051,
      "v": 65
    },
    {
      "midi": 60,
      "hit": false,
      "t": 157572.74199999915,
      "d": 189.32029999999213,
      "v": 43
    },
    {
      "midi": 65,
      "hit": false,
      "t": 157864.00399999914,
      "d": 106.79606666666223,
      "v": 86
    },
    {
      "midi": 63,
      "hit": false,
      "t": 158155.26599999913,
      "d": 97.0873333333293,
      "v": 80
    },
    {
      "midi": 60,
      "hit": false,
      "t": 158300.89699999912,
      "d": 97.0873333333293,
      "v": 72
    },
    {
      "midi": 67,
      "hit": false,
      "t": 158446.52799999912,
      "d": 106.79606666666223,
      "v": 86
    },
    {
      "midi": 63,
      "hit": false,
      "t": 158737.7899999991,
      "d": 92.23296666666283,
      "v": 85
    },
    {
      "midi": 60,
      "hit": false,
      "t": 158883.4209999991,
      "d": 106.79606666666223,
      "v": 72
    },
    {
      "midi": 70,
      "hit": false,
      "t": 159029.0519999991,
      "d": 111.65043333332869,
      "v": 101
    },
    {
      "midi": 64,
      "hit": false,
      "t": 159320.31399999908,
      "d": 87.37859999999637,
      "v": 45
    },
    {
      "midi": 60,
      "hit": false,
      "t": 159465.94499999908,
      "d": 97.0873333333293,
      "v": 74
    },
    {
      "midi": 72,
      "hit": false,
      "t": 159611.57599999907,
      "d": 97.0873333333293,
      "v": 90
    },
    {
      "midi": 62,
      "hit": false,
      "t": 159757.20699999906,
      "d": 19.41746666666586,
      "v": 69
    },
    {
      "midi": 58,
      "hit": false,
      "t": 159902.83799999906,
      "d": 145.63099999999395,
      "v": 66
    },
    {
      "midi": 75,
      "hit": false,
      "t": 160048.46899999905,
      "d": 116.50479999999516,
      "v": 80
    },
    {
      "midi": 72,
      "hit": false,
      "t": 160339.73099999904,
      "d": 33.980566666665254,
      "v": 59
    },
    {
      "midi": 71,
      "hit": false,
      "t": 160339.73099999904,
      "d": 43.689299999998184,
      "v": 56
    },
    {
      "midi": 75,
      "hit": false,
      "t": 160485.36199999903,
      "d": 131.06789999999455,
      "v": 92
    },
    {
      "midi": 77,
      "hit": false,
      "t": 160630.99299999903,
      "d": 106.79606666666223,
      "v": 83
    },
    {
      "midi": 65,
      "hit": false,
      "t": 160776.62399999902,
      "d": 101.94169999999576,
      "v": 67
    },
    {
      "midi": 67,
      "hit": false,
      "t": 160776.62399999902,
      "d": 116.50479999999516,
      "v": 67
    },
    {
      "midi": 72,
      "hit": false,
      "t": 160922.25499999902,
      "d": 111.65043333332869,
      "v": 77
    },
    {
      "midi": 78,
      "hit": false,
      "t": 161067.885999999,
      "d": 101.94169999999576,
      "v": 101
    },
    {
      "midi": 77,
      "hit": false,
      "t": 161213.516999999,
      "d": 53.398033333331114,
      "v": 72
    },
    {
      "midi": 77,
      "hit": false,
      "t": 161359.147999999,
      "d": 101.94169999999576,
      "v": 95
    },
    {
      "midi": 75,
      "hit": false,
      "t": 161504.778999999,
      "d": 67.96113333333051,
      "v": 66
    },
    {
      "midi": 72,
      "hit": false,
      "t": 161650.40999999898,
      "d": 160.19409999999334,
      "v": 51
    },
    {
      "midi": 77,
      "hit": false,
      "t": 161796.04099999898,
      "d": 77.66986666666344,
      "v": 67
    },
    {
      "midi": 75,
      "hit": false,
      "t": 161941.67199999897,
      "d": 101.94169999999576,
      "v": 92
    },
    {
      "midi": 77,
      "hit": false,
      "t": 162087.30299999897,
      "d": 92.23296666666283,
      "v": 80
    },
    {
      "midi": 79,
      "hit": false,
      "t": 162232.93399999896,
      "d": 82.5242333333299,
      "v": 95
    },
    {
      "midi": 75,
      "hit": false,
      "t": 162378.56499999895,
      "d": 87.37859999999637,
      "v": 85
    },
    {
      "midi": 67,
      "hit": false,
      "t": 162815.45799999894,
      "d": 169.90283333332627,
      "v": 74
    },
    {
      "midi": 60,
      "hit": false,
      "t": 163106.71999999892,
      "d": 5053.39569999979,
      "v": 74
    },
    {
      "midi": 72,
      "hit": false,
      "t": 163397.9819999989,
      "d": 87.37859999999637,
      "v": 57
    },
    {
      "midi": 75,
      "hit": false,
      "t": 163543.6129999989,
      "d": 77.66986666666344,
      "v": 85
    },
    {
      "midi": 72,
      "hit": false,
      "t": 163543.6129999989,
      "d": 111.65043333332869,
      "v": 80
    },
    {
      "midi": 79,
      "hit": false,
      "t": 163543.6129999989,
      "d": 155.33973333332688,
      "v": 90
    },
    {
      "midi": 79,
      "hit": false,
      "t": 163834.8749999989,
      "d": 29.12619999999879,
      "v": 57
    },
    {
      "midi": 72,
      "hit": false,
      "t": 163834.8749999989,
      "d": 67.96113333333051,
      "v": 86
    },
    {
      "midi": 72,
      "hit": false,
      "t": 163980.5059999989,
      "d": 116.50479999999516,
      "v": 80
    },
    {
      "midi": 74,
      "hit": false,
      "t": 163980.5059999989,
      "d": 155.33973333332688,
      "v": 105
    },
    {
      "midi": 79,
      "hit": false,
      "t": 163980.5059999989,
      "d": 262.1357999999891,
      "v": 86
    },
    {
      "midi": 72,
      "hit": false,
      "t": 164417.39899999887,
      "d": 72.81549999999697,
      "v": 100
    },
    {
      "midi": 75,
      "hit": false,
      "t": 164417.39899999887,
      "d": 111.65043333332869,
      "v": 101
    },
    {
      "midi": 79,
      "hit": false,
      "t": 164417.39899999887,
      "d": 126.21353333332809,
      "v": 90
    },
    {
      "midi": 65,
      "hit": false,
      "t": 164563.02999999886,
      "d": 38.83493333333172,
      "v": 53
    },
    {
      "midi": 72,
      "hit": false,
      "t": 164708.66099999886,
      "d": 58.25239999999758,
      "v": 80
    },
    {
      "midi": 72,
      "hit": false,
      "t": 164854.29199999885,
      "d": 82.5242333333299,
      "v": 90
    },
    {
      "midi": 74,
      "hit": false,
      "t": 164854.29199999885,
      "d": 111.65043333332869,
      "v": 105
    },
    {
      "midi": 79,
      "hit": false,
      "t": 164854.29199999885,
      "d": 121.35916666666162,
      "v": 95
    },
    {
      "midi": 72,
      "hit": false,
      "t": 165145.55399999884,
      "d": 87.37859999999637,
      "v": 95
    },
    {
      "midi": 79,
      "hit": false,
      "t": 165145.55399999884,
      "d": 126.21353333332809,
      "v": 90
    },
    {
      "midi": 75,
      "hit": false,
      "t": 165145.55399999884,
      "d": 131.06789999999455,
      "v": 111
    },
    {
      "midi": 67,
      "hit": false,
      "t": 165436.81599999883,
      "d": 368.93186666665133,
      "v": 95
    },
    {
      "midi": 72,
      "hit": false,
      "t": 165728.07799999882,
      "d": 53.398033333331114,
      "v": 80
    },
    {
      "midi": 79,
      "hit": false,
      "t": 165728.07799999882,
      "d": 101.94169999999576,
      "v": 100
    },
    {
      "midi": 77,
      "hit": false,
      "t": 165728.07799999882,
      "d": 165.0484666666598,
      "v": 100
    },
    {
      "midi": 67,
      "hit": false,
      "t": 165873.7089999988,
      "d": 1339.8051999999443,
      "v": 86
    },
    {
      "midi": 83,
      "hit": false,
      "t": 166155.26226666546,
      "d": 43.689299999998184,
      "v": 80
    },
    {
      "midi": 84,
      "hit": false,
      "t": 166184.38846666546,
      "d": 24.271833333332324,
      "v": 113
    },
    {
      "midi": 81,
      "hit": false,
      "t": 166310.6019999988,
      "d": 29.12619999999879,
      "v": 62
    },
    {
      "midi": 79,
      "hit": false,
      "t": 166310.6019999988,
      "d": 87.37859999999637,
      "v": 56
    },
    {
      "midi": 82,
      "hit": false,
      "t": 166456.23299999879,
      "d": 72.81549999999697,
      "v": 111
    },
    {
      "midi": 84,
      "hit": false,
      "t": 166601.86399999878,
      "d": 77.66986666666344,
      "v": 127
    },
    {
      "midi": 79,
      "hit": false,
      "t": 166747.49499999877,
      "d": 145.63099999999395,
      "v": 56
    },
    {
      "midi": 87,
      "hit": false,
      "t": 166893.12599999877,
      "d": 92.23296666666283,
      "v": 101
    },
    {
      "midi": 86,
      "hit": false,
      "t": 167038.75699999876,
      "d": 101.94169999999576,
      "v": 62
    },
    {
      "midi": 84,
      "hit": false,
      "t": 167330.01899999875,
      "d": 72.81549999999697,
      "v": 113
    },
    {
      "midi": 82,
      "hit": false,
      "t": 167475.64999999874,
      "d": 97.0873333333293,
      "v": 49
    },
    {
      "midi": 79,
      "hit": false,
      "t": 167621.28099999874,
      "d": 29.12619999999879,
      "v": 29
    },
    {
      "midi": 78,
      "hit": false,
      "t": 167621.28099999874,
      "d": 58.25239999999758,
      "v": 92
    },
    {
      "midi": 77,
      "hit": false,
      "t": 167766.91199999873,
      "d": 33.980566666665254,
      "v": 49
    },
    {
      "midi": 75,
      "hit": false,
      "t": 167766.91199999873,
      "d": 111.65043333332869,
      "v": 85
    },
    {
      "midi": 77,
      "hit": false,
      "t": 167912.54299999872,
      "d": 48.54366666666465,
      "v": 48
    },
    {
      "midi": 77,
      "hit": false,
      "t": 168058.17399999872,
      "d": 97.0873333333293,
      "v": 95
    },
    {
      "midi": 75,
      "hit": false,
      "t": 168203.8049999987,
      "d": 67.96113333333051,
      "v": 80
    },
    {
      "midi": 74,
      "hit": false,
      "t": 168349.4359999987,
      "d": 72.81549999999697,
      "v": 72
    },
    {
      "midi": 72,
      "hit": false,
      "t": 168349.4359999987,
      "d": 106.79606666666223,
      "v": 80
    },
    {
      "midi": 75,
      "hit": false,
      "t": 168495.0669999987,
      "d": 58.25239999999758,
      "v": 101
    },
    {
      "midi": 77,
      "hit": false,
      "t": 168640.6979999987,
      "d": 72.81549999999697,
      "v": 90
    },
    {
      "midi": 75,
      "hit": false,
      "t": 168786.3289999987,
      "d": 82.5242333333299,
      "v": 92
    },
    {
      "midi": 67,
      "hit": false,
      "t": 168931.95999999868,
      "d": 179.6115666666592,
      "v": 72
    },
    {
      "midi": 78,
      "hit": false,
      "t": 169077.59099999868,
      "d": 67.96113333333051,
      "v": 111
    },
    {
      "midi": 77,
      "hit": false,
      "t": 169223.22199999867,
      "d": 77.66986666666344,
      "v": 86
    },
    {
      "midi": 75,
      "hit": false,
      "t": 169368.85299999866,
      "d": 58.25239999999758,
      "v": 76
    },
    {
      "midi": 67,
      "hit": false,
      "t": 169368.85299999866,
      "d": 77.66986666666344,
      "v": 50
    },
    {
      "midi": 77,
      "hit": false,
      "t": 169514.48399999866,
      "d": 87.37859999999637,
      "v": 95
    },
    {
      "midi": 75,
      "hit": false,
      "t": 169660.11499999865,
      "d": 82.5242333333299,
      "v": 101
    },
    {
      "midi": 72,
      "hit": false,
      "t": 169805.74599999865,
      "d": 87.37859999999637,
      "v": 80
    },
    {
      "midi": 67,
      "hit": false,
      "t": 169951.37699999864,
      "d": 101.94169999999576,
      "v": 72
    },
    {
      "midi": 70,
      "hit": false,
      "t": 170097.00799999863,
      "d": 77.66986666666344,
      "v": 101
    },
    {
      "midi": 67,
      "hit": false,
      "t": 170242.63899999863,
      "d": 82.5242333333299,
      "v": 69
    },
    {
      "midi": 70,
      "hit": false,
      "t": 170388.26999999862,
      "d": 77.66986666666344,
      "v": 101
    },
    {
      "midi": 65,
      "hit": false,
      "t": 170533.90099999862,
      "d": 97.0873333333293,
      "v": 90
    },
    {
      "midi": 60,
      "hit": false,
      "t": 170533.90099999862,
      "d": 106.79606666666223,
      "v": 77
    },
    {
      "midi": 70,
      "hit": false,
      "t": 170825.1629999986,
      "d": 82.5242333333299,
      "v": 85
    },
    {
      "midi": 60,
      "hit": false,
      "t": 170970.7939999986,
      "d": 126.21353333332809,
      "v": 72
    },
    {
      "midi": 72,
      "hit": false,
      "t": 171116.4249999986,
      "d": 63.10676666666404,
      "v": 74
    },
    {
      "midi": 70,
      "hit": false,
      "t": 171262.05599999859,
      "d": 101.94169999999576,
      "v": 101
    },
    {
      "midi": 65,
      "hit": false,
      "t": 171407.68699999858,
      "d": 82.5242333333299,
      "v": 62
    },
    {
      "midi": 63,
      "hit": false,
      "t": 171407.68699999858,
      "d": 101.94169999999576,
      "v": 85
    },
    {
      "midi": 60,
      "hit": false,
      "t": 171553.31799999857,
      "d": 87.37859999999637,
      "v": 101
    },
    {
      "midi": 63,
      "hit": false,
      "t": 171698.94899999857,
      "d": 92.23296666666283,
      "v": 80
    },
    {
      "midi": 58,
      "hit": false,
      "t": 171844.57999999856,
      "d": 87.37859999999637,
      "v": 100
    },
    {
      "midi": 63,
      "hit": false,
      "t": 171990.21099999856,
      "d": 92.23296666666283,
      "v": 80
    },
    {
      "midi": 53,
      "hit": false,
      "t": 172135.84199999855,
      "d": 82.5242333333299,
      "v": 100
    },
    {
      "midi": 43,
      "hit": false,
      "t": 172427.10399999854,
      "d": 67.96113333333051,
      "v": 100
    },
    {
      "midi": 48,
      "hit": false,
      "t": 172427.10399999854,
      "d": 67.96113333333051,
      "v": 100
    },
    {
      "midi": 51,
      "hit": false,
      "t": 172427.10399999854,
      "d": 67.96113333333051,
      "v": 100
    },
    {
      "midi": 48,
      "hit": false,
      "t": 173592.15199999962,
      "d": 310.67946666665375,
      "v": 65
    },
    {
      "midi": 55,
      "hit": false,
      "t": 173592.15199999962,
      "d": 325.24256666665315,
      "v": 57
    },
    {
      "midi": 60,
      "hit": false,
      "t": 173883.4139999996,
      "d": 106.79606666666223,
      "v": 65
    },
    {
      "midi": 65,
      "hit": false,
      "t": 173883.4139999996,
      "d": 121.35916666666162,
      "v": 83
    },
    {
      "midi": 48,
      "hit": false,
      "t": 174029.0449999996,
      "d": 111.65043333332869,
      "v": 60
    },
    {
      "midi": 55,
      "hit": false,
      "t": 174029.0449999996,
      "d": 126.21353333332809,
      "v": 46
    },
    {
      "midi": 60,
      "hit": false,
      "t": 174174.6759999996,
      "d": 106.79606666666223,
      "v": 77
    },
    {
      "midi": 65,
      "hit": false,
      "t": 174174.6759999996,
      "d": 121.35916666666162,
      "v": 80
    },
    {
      "midi": 48,
      "hit": false,
      "t": 174320.3069999996,
      "d": 140.77663333332748,
      "v": 57
    },
    {
      "midi": 55,
      "hit": false,
      "t": 174320.3069999996,
      "d": 199.02903333332506,
      "v": 60
    },
    {
      "midi": 60,
      "hit": false,
      "t": 174465.9379999996,
      "d": 33.980566666665254,
      "v": 34
    },
    {
      "midi": 63,
      "hit": false,
      "t": 174465.9379999996,
      "d": 58.25239999999758,
      "v": 68
    },
    {
      "midi": 60,
      "hit": false,
      "t": 174611.56899999958,
      "d": 101.94169999999576,
      "v": 69
    },
    {
      "midi": 65,
      "hit": false,
      "t": 174611.56899999958,
      "d": 101.94169999999576,
      "v": 90
    },
    {
      "midi": 48,
      "hit": false,
      "t": 174757.19999999958,
      "d": 126.21353333332809,
      "v": 60
    },
    {
      "midi": 55,
      "hit": false,
      "t": 174757.19999999958,
      "d": 126.21353333332809,
      "v": 46
    },
    {
      "midi": 60,
      "hit": false,
      "t": 174902.83099999957,
      "d": 38.83493333333172,
      "v": 48
    },
    {
      "midi": 63,
      "hit": false,
      "t": 174902.83099999957,
      "d": 38.83493333333172,
      "v": 71
    },
    {
      "midi": 60,
      "hit": false,
      "t": 175048.46199999956,
      "d": 97.0873333333293,
      "v": 80
    },
    {
      "midi": 65,
      "hit": false,
      "t": 175048.46199999956,
      "d": 121.35916666666162,
      "v": 100
    },
    {
      "midi": 55,
      "hit": false,
      "t": 175194.09299999956,
      "d": 131.06789999999455,
      "v": 55
    },
    {
      "midi": 48,
      "hit": false,
      "t": 175194.09299999956,
      "d": 135.92226666666102,
      "v": 62
    },
    {
      "midi": 63,
      "hit": false,
      "t": 175339.72399999955,
      "d": 38.83493333333172,
      "v": 32
    },
    {
      "midi": 60,
      "hit": false,
      "t": 175339.72399999955,
      "d": 77.66986666666344,
      "v": 41
    },
    {
      "midi": 48,
      "hit": false,
      "t": 175485.35499999954,
      "d": 135.92226666666102,
      "v": 56
    },
    {
      "midi": 55,
      "hit": false,
      "t": 175485.35499999954,
      "d": 140.77663333332748,
      "v": 50
    },
    {
      "midi": 60,
      "hit": false,
      "t": 175630.98599999954,
      "d": 135.92226666666102,
      "v": 74
    },
    {
      "midi": 63,
      "hit": false,
      "t": 175630.98599999954,
      "d": 140.77663333332748,
      "v": 85
    },
    {
      "midi": 60,
      "hit": false,
      "t": 175776.61699999953,
      "d": 97.0873333333293,
      "v": 30
    },
    {
      "midi": 65,
      "hit": false,
      "t": 175776.61699999953,
      "d": 106.79606666666223,
      "v": 77
    },
    {
      "midi": 48,
      "hit": false,
      "t": 175922.24799999953,
      "d": 121.35916666666162,
      "v": 59
    },
    {
      "midi": 55,
      "hit": false,
      "t": 175922.24799999953,
      "d": 140.77663333332748,
      "v": 48
    },
    {
      "midi": 60,
      "hit": false,
      "t": 176067.87899999952,
      "d": 24.271833333332324,
      "v": 29
    },
    {
      "midi": 48,
      "hit": false,
      "t": 176067.87899999952,
      "d": 126.21353333332809,
      "v": 59
    },
    {
      "midi": 55,
      "hit": false,
      "t": 176067.87899999952,
      "d": 131.06789999999455,
      "v": 50
    },
    {
      "midi": 65,
      "hit": false,
      "t": 176213.5099999995,
      "d": 106.79606666666223,
      "v": 86
    },
    {
      "midi": 60,
      "hit": false,
      "t": 176213.5099999995,
      "d": 116.50479999999516,
      "v": 72
    },
    {
      "midi": 48,
      "hit": false,
      "t": 176359.1409999995,
      "d": 106.79606666666223,
      "v": 57
    },
    {
      "midi": 55,
      "hit": false,
      "t": 176359.1409999995,
      "d": 106.79606666666223,
      "v": 51
    },
    {
      "midi": 60,
      "hit": false,
      "t": 176504.7719999995,
      "d": 87.37859999999637,
      "v": 77
    },
    {
      "midi": 65,
      "hit": false,
      "t": 176504.7719999995,
      "d": 140.77663333332748,
      "v": 100
    },
    {
      "midi": 48,
      "hit": false,
      "t": 176650.4029999995,
      "d": 101.94169999999576,
      "v": 57
    },
    {
      "midi": 55,
      "hit": false,
      "t": 176650.4029999995,
      "d": 145.63099999999395,
      "v": 57
    },
    {
      "midi": 60,
      "hit": false,
      "t": 176796.0339999995,
      "d": 38.83493333333172,
      "v": 56
    },
    {
      "midi": 63,
      "hit": false,
      "t": 176796.0339999995,
      "d": 43.689299999998184,
      "v": 73
    },
    {
      "midi": 60,
      "hit": false,
      "t": 176941.66499999948,
      "d": 97.0873333333293,
      "v": 86
    },
    {
      "midi": 65,
      "hit": false,
      "t": 176941.66499999948,
      "d": 111.65043333332869,
      "v": 95
    },
    {
      "midi": 48,
      "hit": false,
      "t": 177087.29599999948,
      "d": 121.35916666666162,
      "v": 59
    },
    {
      "midi": 55,
      "hit": false,
      "t": 177087.29599999948,
      "d": 145.63099999999395,
      "v": 48
    },
    {
      "midi": 60,
      "hit": false,
      "t": 177232.92699999947,
      "d": 63.10676666666404,
      "v": 69
    },
    {
      "midi": 67,
      "hit": false,
      "t": 177232.92699999947,
      "d": 67.96113333333051,
      "v": 83
    },
    {
      "midi": 60,
      "hit": false,
      "t": 177378.55799999947,
      "d": 169.90283333332627,
      "v": 86
    },
    {
      "midi": 63,
      "hit": false,
      "t": 177378.55799999947,
      "d": 169.90283333332627,
      "v": 111
    },
    {
      "midi": 55,
      "hit": false,
      "t": 177524.18899999946,
      "d": 228.15523333332385,
      "v": 60
    },
    {
      "midi": 48,
      "hit": false,
      "t": 177524.18899999946,
      "d": 393.20369999998366,
      "v": 62
    },
    {
      "midi": 58,
      "hit": false,
      "t": 177961.08199999944,
      "d": 77.66986666666344,
      "v": 101
    },
    {
      "midi": 55,
      "hit": false,
      "t": 177961.08199999944,
      "d": 111.65043333332869,
      "v": 72
    },
    {
      "midi": 48,
      "hit": false,
      "t": 178106.71299999944,
      "d": 126.21353333332809,
      "v": 62
    },
    {
      "midi": 55,
      "hit": false,
      "t": 178252.34399999943,
      "d": 97.0873333333293,
      "v": 69
    },
    {
      "midi": 58,
      "hit": false,
      "t": 178252.34399999943,
      "d": 106.79606666666223,
      "v": 92
    },
    {
      "midi": 55,
      "hit": false,
      "t": 178397.97499999942,
      "d": 58.25239999999758,
      "v": 42
    },
    {
      "midi": 60,
      "hit": false,
      "t": 178397.97499999942,
      "d": 77.66986666666344,
      "v": 74
    },
    {
      "midi": 48,
      "hit": false,
      "t": 178543.60599999942,
      "d": 106.79606666666223,
      "v": 67
    },
    {
      "midi": 63,
      "hit": false,
      "t": 178689.2369999994,
      "d": 19.41746666666586,
      "v": 49
    },
    {
      "midi": 55,
      "hit": false,
      "t": 178689.2369999994,
      "d": 97.0873333333293,
      "v": 65
    },
    {
      "midi": 60,
      "hit": false,
      "t": 178689.2369999994,
      "d": 140.77663333332748,
      "v": 90
    },
    {
      "midi": 48,
      "hit": false,
      "t": 178834.8679999994,
      "d": 145.63099999999395,
      "v": 62
    },
    {
      "midi": 48,
      "hit": false,
      "t": 178980.4989999994,
      "d": 106.79606666666223,
      "v": 26
    },
    {
      "midi": 55,
      "hit": false,
      "t": 182766.9049999994,
      "d": 334.9512999999861,
      "v": 56
    },
    {
      "midi": 48,
      "hit": false,
      "t": 182766.9049999994,
      "d": 378.64059999998426,
      "v": 59
    },
    {
      "midi": 60,
      "hit": false,
      "t": 183203.79799999937,
      "d": 126.21353333332809,
      "v": 57
    },
    {
      "midi": 55,
      "hit": false,
      "t": 183349.42899999936,
      "d": 116.50479999999516,
      "v": 45
    },
    {
      "midi": 48,
      "hit": false,
      "t": 183349.42899999936,
      "d": 145.63099999999395,
      "v": 56
    },
    {
      "midi": 60,
      "hit": false,
      "t": 183495.05999999936,
      "d": 97.0873333333293,
      "v": 80
    },
    {
      "midi": 65,
      "hit": false,
      "t": 183495.05999999936,
      "d": 126.21353333332809,
      "v": 90
    },
    {
      "midi": 48,
      "hit": false,
      "t": 183640.69099999935,
      "d": 121.35916666666162,
      "v": 59
    },
    {
      "midi": 55,
      "hit": false,
      "t": 183640.69099999935,
      "d": 155.33973333332688,
      "v": 49
    },
    {
      "midi": 63,
      "hit": false,
      "t": 183786.32199999935,
      "d": 53.398033333331114,
      "v": 62
    },
    {
      "midi": 60,
      "hit": false,
      "t": 183786.32199999935,
      "d": 58.25239999999758,
      "v": 53
    },
    {
      "midi": 60,
      "hit": false,
      "t": 183931.95299999934,
      "d": 92.23296666666283,
      "v": 65
    },
    {
      "midi": 65,
      "hit": false,
      "t": 183931.95299999934,
      "d": 106.79606666666223,
      "v": 86
    },
    {
      "midi": 55,
      "hit": false,
      "t": 184077.58399999933,
      "d": 121.35916666666162,
      "v": 45
    },
    {
      "midi": 48,
      "hit": false,
      "t": 184077.58399999933,
      "d": 145.63099999999395,
      "v": 54
    },
    {
      "midi": 63,
      "hit": false,
      "t": 184223.21499999933,
      "d": 33.980566666665254,
      "v": 73
    },
    {
      "midi": 60,
      "hit": false,
      "t": 184223.21499999933,
      "d": 58.25239999999758,
      "v": 56
    },
    {
      "midi": 60,
      "hit": false,
      "t": 184368.84599999932,
      "d": 82.5242333333299,
      "v": 60
    },
    {
      "midi": 65,
      "hit": false,
      "t": 184368.84599999932,
      "d": 111.65043333332869,
      "v": 90
    },
    {
      "midi": 48,
      "hit": false,
      "t": 184514.47699999932,
      "d": 101.94169999999576,
      "v": 53
    },
    {
      "midi": 55,
      "hit": false,
      "t": 184514.47699999932,
      "d": 140.77663333332748,
      "v": 45
    },
    {
      "midi": 60,
      "hit": false,
      "t": 184660.1079999993,
      "d": 67.96113333333051,
      "v": 56
    },
    {
      "midi": 48,
      "hit": false,
      "t": 184805.7389999993,
      "d": 135.92226666666102,
      "v": 56
    },
    {
      "midi": 55,
      "hit": false,
      "t": 184805.7389999993,
      "d": 160.19409999999334,
      "v": 48
    },
    {
      "midi": 60,
      "hit": false,
      "t": 184951.3699999993,
      "d": 106.79606666666223,
      "v": 67
    },
    {
      "midi": 63,
      "hit": false,
      "t": 184951.3699999993,
      "d": 199.02903333332506,
      "v": 85
    },
    {
      "midi": 60,
      "hit": false,
      "t": 185097.0009999993,
      "d": 87.37859999999637,
      "v": 39
    },
    {
      "midi": 65,
      "hit": false,
      "t": 185097.0009999993,
      "d": 101.94169999999576,
      "v": 86
    },
    {
      "midi": 55,
      "hit": false,
      "t": 185097.0009999993,
      "d": 145.63099999999395,
      "v": 45
    },
    {
      "midi": 48,
      "hit": false,
      "t": 185242.63199999928,
      "d": 140.77663333332748,
      "v": 53
    },
    {
      "midi": 60,
      "hit": false,
      "t": 185388.26299999928,
      "d": 67.96113333333051,
      "v": 45
    },
    {
      "midi": 55,
      "hit": false,
      "t": 185533.89399999927,
      "d": 111.65043333332869,
      "v": 49
    },
    {
      "midi": 60,
      "hit": false,
      "t": 185533.89399999927,
      "d": 111.65043333332869,
      "v": 74
    },
    {
      "midi": 48,
      "hit": false,
      "t": 185533.89399999927,
      "d": 126.21353333332809,
      "v": 60
    },
    {
      "midi": 65,
      "hit": false,
      "t": 185533.89399999927,
      "d": 135.92226666666102,
      "v": 90
    },
    {
      "midi": 48,
      "hit": false,
      "t": 185679.52499999927,
      "d": 121.35916666666162,
      "v": 57
    },
    {
      "midi": 55,
      "hit": false,
      "t": 185679.52499999927,
      "d": 126.21353333332809,
      "v": 45
    },
    {
      "midi": 60,
      "hit": false,
      "t": 185825.15599999926,
      "d": 97.0873333333293,
      "v": 74
    },
    {
      "midi": 65,
      "hit": false,
      "t": 185825.15599999926,
      "d": 131.06789999999455,
      "v": 90
    },
    {
      "midi": 48,
      "hit": false,
      "t": 185970.78699999925,
      "d": 131.06789999999455,
      "v": 54
    },
    {
      "midi": 55,
      "hit": false,
      "t": 185970.78699999925,
      "d": 145.63099999999395,
      "v": 48
    },
    {
      "midi": 60,
      "hit": false,
      "t": 186116.41799999925,
      "d": 48.54366666666465,
      "v": 51
    },
    {
      "midi": 63,
      "hit": false,
      "t": 186116.41799999925,
      "d": 63.10676666666404,
      "v": 71
    },
    {
      "midi": 60,
      "hit": false,
      "t": 186262.04899999924,
      "d": 97.0873333333293,
      "v": 65
    },
    {
      "midi": 65,
      "hit": false,
      "t": 186262.04899999924,
      "d": 126.21353333332809,
      "v": 86
    },
    {
      "midi": 48,
      "hit": false,
      "t": 186407.67999999924,
      "d": 121.35916666666162,
      "v": 55
    },
    {
      "midi": 55,
      "hit": false,
      "t": 186407.67999999924,
      "d": 140.77663333332748,
      "v": 50
    },
    {
      "midi": 60,
      "hit": false,
      "t": 186553.31099999923,
      "d": 67.96113333333051,
      "v": 64
    },
    {
      "midi": 67,
      "hit": false,
      "t": 186553.31099999923,
      "d": 67.96113333333051,
      "v": 72
    },
    {
      "midi": 67,
      "hit": false,
      "t": 186698.94199999922,
      "d": 14.563099999999395,
      "v": 41
    },
    {
      "midi": 63,
      "hit": false,
      "t": 186698.94199999922,
      "d": 116.50479999999516,
      "v": 101
    },
    {
      "midi": 60,
      "hit": false,
      "t": 186698.94199999922,
      "d": 135.92226666666102,
      "v": 67
    },
    {
      "midi": 48,
      "hit": false,
      "t": 186844.57299999922,
      "d": 131.06789999999455,
      "v": 51
    },
    {
      "midi": 63,
      "hit": false,
      "t": 186990.2039999992,
      "d": 140.77663333332748,
      "v": 44
    },
    {
      "midi": 60,
      "hit": false,
      "t": 186990.2039999992,
      "d": 145.63099999999395,
      "v": 57
    },
    {
      "midi": 50,
      "hit": false,
      "t": 187135.8349999992,
      "d": 82.5242333333299,
      "v": 44
    },
    {
      "midi": 48,
      "hit": false,
      "t": 187135.8349999992,
      "d": 116.50479999999516,
      "v": 48
    },
    {
      "midi": 55,
      "hit": false,
      "t": 187281.4659999992,
      "d": 87.37859999999637,
      "v": 67
    },
    {
      "midi": 58,
      "hit": false,
      "t": 187281.4659999992,
      "d": 87.37859999999637,
      "v": 92
    },
    {
      "midi": 48,
      "hit": false,
      "t": 187427.0969999992,
      "d": 140.77663333332748,
      "v": 65
    },
    {
      "midi": 58,
      "hit": false,
      "t": 187572.7279999992,
      "d": 82.5242333333299,
      "v": 101
    },
    {
      "midi": 55,
      "hit": false,
      "t": 187572.7279999992,
      "d": 87.37859999999637,
      "v": 69
    },
    {
      "midi": 55,
      "hit": false,
      "t": 187718.35899999918,
      "d": 63.10676666666404,
      "v": 44
    },
    {
      "midi": 60,
      "hit": false,
      "t": 187718.35899999918,
      "d": 97.0873333333293,
      "v": 83
    },
    {
      "midi": 48,
      "hit": false,
      "t": 187863.98999999918,
      "d": 106.79606666666223,
      "v": 67
    },
    {
      "midi": 61,
      "hit": false,
      "t": 188009.62099999917,
      "d": 19.41746666666586,
      "v": 62
    },
    {
      "midi": 55,
      "hit": false,
      "t": 188009.62099999917,
      "d": 82.5242333333299,
      "v": 62
    },
    {
      "midi": 63,
      "hit": false,
      "t": 188009.62099999917,
      "d": 82.5242333333299,
      "v": 92
    },
    {
      "midi": 48,
      "hit": false,
      "t": 188155.25199999916,
      "d": 106.79606666666223,
      "v": 67
    },
    {
      "midi": 58,
      "hit": false,
      "t": 188300.88299999916,
      "d": 24.271833333332324,
      "v": 80
    },
    {
      "midi": 55,
      "hit": false,
      "t": 188300.88299999916,
      "d": 38.83493333333172,
      "v": 53
    },
    {
      "midi": 55,
      "hit": false,
      "t": 188446.51399999915,
      "d": 2873.7850666666636,
      "v": 56
    },
    {
      "midi": 60,
      "hit": false,
      "t": 188446.51399999915,
      "d": 2883.4937999999966,
      "v": 90
    }
  ]
}