{
  "jsonPath": "Unknown/Unknown/Bill Medley  Jennifer Warnes/ive-had-the-time-of-my-life.json",
  "path": "Unknown\\Unknown\\Bill Medley  Jennifer Warnes\\(Ive Had) The Time Of My Life.mid",
  "name": "(Ive Had) The Time Of My Life",
  "difficulty": "Advanced",
  "bpm": 108.00205203898874,
  "notes": [
    {
      "midi": 59,
      "hit": false,
      "t": 8231.903776041665,
      "d": 555.5450000000001,
      "v": 99
    },
    {
      "midi": 64,
      "hit": false,
      "t": 8799.022630208332,
      "d": 1371.5017187499998,
      "v": 80
    },
    {
      "midi": 71,
      "hit": false,
      "t": 8880.039609374999,
      "d": 329.85484375000124,
      "v": 52
    },
    {
      "midi": 76,
      "hit": false,
      "t": 9146.238255208333,
      "d": 361.68294270833394,
      "v": 45
    },
    {
      "midi": 78,
      "hit": false,
      "t": 9470.306171875,
      "d": 295.13328125000044,
      "v": 57
    },
    {
      "midi": 71,
      "hit": false,
      "t": 9742.291744791666,
      "d": 326.96138020833314,
      "v": 43
    },
    {
      "midi": 76,
      "hit": false,
      "t": 9996.916536458333,
      "d": 338.53523437499825,
      "v": 46
    },
    {
      "midi": 64,
      "hit": false,
      "t": 10251.541328124998,
      "d": 324.06791666666686,
      "v": 84
    },
    {
      "midi": 78,
      "hit": false,
      "t": 10292.049817708332,
      "d": 535.2907552083325,
      "v": 55
    },
    {
      "midi": 66,
      "hit": false,
      "t": 10552.461536458331,
      "d": 497.6757291666672,
      "v": 84
    },
    {
      "midi": 71,
      "hit": false,
      "t": 10807.086328124999,
      "d": 347.2156249999989,
      "v": 45
    },
    {
      "midi": 64,
      "hit": false,
      "t": 11073.284973958333,
      "d": 1006.9253124999996,
      "v": 84
    },
    {
      "midi": 76,
      "hit": false,
      "t": 11093.539218749998,
      "d": 324.06791666666686,
      "v": 51
    },
    {
      "midi": 78,
      "hit": false,
      "t": 11379.992109374998,
      "d": 329.85484375000124,
      "v": 53
    },
    {
      "midi": 71,
      "hit": false,
      "t": 11646.190755208332,
      "d": 358.78947916666766,
      "v": 56
    },
    {
      "midi": 76,
      "hit": false,
      "t": 11923.963255208333,
      "d": 332.7483072916675,
      "v": 44
    },
    {
      "midi": 64,
      "hit": false,
      "t": 12184.374973958333,
      "d": 329.8548437499994,
      "v": 99
    },
    {
      "midi": 78,
      "hit": false,
      "t": 12219.096536458334,
      "d": 286.4528906249998,
      "v": 50
    },
    {
      "midi": 71,
      "hit": false,
      "t": 12502.655963541667,
      "d": 596.0534895833334,
      "v": 45
    },
    {
      "midi": 66,
      "hit": false,
      "t": 12577.886015625,
      "d": 266.198645833334,
      "v": 109
    },
    {
      "midi": 68,
      "hit": false,
      "t": 12948.249348958334,
      "d": 283.5594270833335,
      "v": 90
    },
    {
      "midi": 76,
      "hit": false,
      "t": 13029.266328125,
      "d": 329.8548437499994,
      "v": 49
    },
    {
      "midi": 78,
      "hit": false,
      "t": 13312.825755208334,
      "d": 306.70713541666555,
      "v": 58
    },
    {
      "midi": 69,
      "hit": false,
      "t": 13341.760390625,
      "d": 208.32937499999935,
      "v": 91
    },
    {
      "midi": 68,
      "hit": false,
      "t": 13561.663619791667,
      "d": 190.96859374999985,
      "v": 92
    },
    {
      "midi": 71,
      "hit": false,
      "t": 13573.237473958334,
      "d": 358.78947916666766,
      "v": 45
    },
    {
      "midi": 66,
      "hit": false,
      "t": 13793.140703125,
      "d": 1689.782708333334,
      "v": 78
    },
    {
      "midi": 76,
      "hit": false,
      "t": 13856.796901041667,
      "d": 306.70713541666737,
      "v": 51
    },
    {
      "midi": 78,
      "hit": false,
      "t": 14140.356328125,
      "d": 324.06791666666686,
      "v": 57
    },
    {
      "midi": 71,
      "hit": false,
      "t": 14435.489609375001,
      "d": 326.96138020833314,
      "v": 52
    },
    {
      "midi": 76,
      "hit": false,
      "t": 14719.049036458335,
      "d": 1203.680833333332,
      "v": 52
    },
    {
      "midi": 69,
      "hit": false,
      "t": 15511.858046875,
      "d": 315.3875260416662,
      "v": 92
    },
    {
      "midi": 83,
      "hit": false,
      "t": 15864.860598958334,
      "d": 1406.2232812500006,
      "v": 46
    },
    {
      "midi": 69,
      "hit": false,
      "t": 15905.369088541667,
      "d": 407.97835937499985,
      "v": 94
    },
    {
      "midi": 71,
      "hit": false,
      "t": 16310.453984375,
      "d": 300.9202083333312,
      "v": 86
    },
    {
      "midi": 68,
      "hit": false,
      "t": 16622.948046874997,
      "d": 541.0776822916669,
      "v": 87
    },
    {
      "midi": 66,
      "hit": false,
      "t": 17143.771484374996,
      "d": 567.118854166667,
      "v": 79
    },
    {
      "midi": 64,
      "hit": false,
      "t": 17728.251119791665,
      "d": 1330.9932291666664,
      "v": 87
    },
    {
      "midi": 71,
      "hit": false,
      "t": 17768.759609375,
      "d": 358.78947916666584,
      "v": 62
    },
    {
      "midi": 76,
      "hit": false,
      "t": 18069.679817708333,
      "d": 306.70713541666555,
      "v": 49
    },
    {
      "midi": 78,
      "hit": false,
      "t": 18353.239244791665,
      "d": 283.5594270833353,
      "v": 70
    },
    {
      "midi": 71,
      "hit": false,
      "t": 18607.864036458333,
      "d": 315.387526041668,
      "v": 55
    },
    {
      "midi": 76,
      "hit": false,
      "t": 18879.849609375,
      "d": 300.92020833333663,
      "v": 69
    },
    {
      "midi": 64,
      "hit": false,
      "t": 19134.474401041665,
      "d": 280.6659635416654,
      "v": 89
    },
    {
      "midi": 78,
      "hit": false,
      "t": 19157.622109375003,
      "d": 604.7338802083359,
      "v": 73
    },
    {
      "midi": 66,
      "hit": false,
      "t": 19412.246901041664,
      "d": 538.1842187500006,
      "v": 95
    },
    {
      "midi": 71,
      "hit": false,
      "t": 19718.954036458337,
      "d": 283.5594270833353,
      "v": 42
    },
    {
      "midi": 64,
      "hit": false,
      "t": 19973.578828125,
      "d": 775.4482291666682,
      "v": 86
    },
    {
      "midi": 76,
      "hit": false,
      "t": 19979.36575520834,
      "d": 300.920208333333,
      "v": 69
    },
    {
      "midi": 78,
      "hit": false,
      "t": 20257.138255208338,
      "d": 353.0025520833333,
      "v": 68
    },
    {
      "midi": 71,
      "hit": false,
      "t": 20569.63231770834,
      "d": 312.4940624999981,
      "v": 52
    },
    {
      "midi": 64,
      "hit": false,
      "t": 20830.044036458334,
      "d": 214.11630208333372,
      "v": 74
    },
    {
      "midi": 76,
      "hit": false,
      "t": 20841.617890625006,
      "d": 295.1332812499968,
      "v": 64
    },
    {
      "midi": 64,
      "hit": false,
      "t": 21107.816536458333,
      "d": 364.5764062499984,
      "v": 85
    },
    {
      "midi": 78,
      "hit": false,
      "t": 21107.816536458336,
      "d": 312.4940624999981,
      "v": 73
    },
    {
      "midi": 71,
      "hit": false,
      "t": 21391.375963541668,
      "d": 613.4142708333347,
      "v": 69
    },
    {
      "midi": 66,
      "hit": false,
      "t": 21466.606015625,
      "d": 271.98557291666657,
      "v": 94
    },
    {
      "midi": 68,
      "hit": false,
      "t": 21819.608567708332,
      "d": 329.8548437499994,
      "v": 94
    },
    {
      "midi": 76,
      "hit": false,
      "t": 21929.56018229167,
      "d": 329.8548437499994,
      "v": 53
    },
    {
      "midi": 69,
      "hit": false,
      "t": 22230.480390624998,
      "d": 318.2809895833343,
      "v": 96
    },
    {
      "midi": 78,
      "hit": false,
      "t": 22230.480390625,
      "d": 295.13328125000044,
      "v": 70
    },
    {
      "midi": 71,
      "hit": false,
      "t": 22502.46596354167,
      "d": 329.8548437499994,
      "v": 59
    },
    {
      "midi": 68,
      "hit": false,
      "t": 22554.548307291665,
      "d": 202.54244791666497,
      "v": 88
    },
    {
      "midi": 66,
      "hit": false,
      "t": 22716.582265625,
      "d": 1672.421927083331,
      "v": 88
    },
    {
      "midi": 76,
      "hit": false,
      "t": 22774.451536458335,
      "d": 312.4940624999981,
      "v": 72
    },
    {
      "midi": 78,
      "hit": false,
      "t": 23058.010963541667,
      "d": 295.13328125000044,
      "v": 68
    },
    {
      "midi": 71,
      "hit": false,
      "t": 23329.996536458333,
      "d": 306.7071354166692,
      "v": 65
    },
    {
      "midi": 76,
      "hit": false,
      "t": 23613.55596354167,
      "d": 2106.441458333331,
      "v": 77
    },
    {
      "midi": 69,
      "hit": false,
      "t": 24412.151901041663,
      "d": 347.2156250000007,
      "v": 90
    },
    {
      "midi": 83,
      "hit": false,
      "t": 24707.285182291667,
      "d": 1481.453333333331,
      "v": 48
    },
    {
      "midi": 69,
      "hit": false,
      "t": 24828.810651041666,
      "d": 399.297968750001,
      "v": 92
    },
    {
      "midi": 71,
      "hit": false,
      "t": 25228.108619791667,
      "d": 318.2809895833343,
      "v": 83
    },
    {
      "midi": 68,
      "hit": false,
      "t": 25540.60268229167,
      "d": 503.46265624999796,
      "v": 84
    },
    {
      "midi": 66,
      "hit": false,
      "t": 26044.065338541666,
      "d": 488.99533854166657,
      "v": 77
    },
    {
      "midi": 76,
      "hit": false,
      "t": 26628.544973958335,
      "d": 1319.4193750000013,
      "v": 90
    },
    {
      "midi": 71,
      "hit": false,
      "t": 26640.118828125,
      "d": 318.2809895833343,
      "v": 72
    },
    {
      "midi": 76,
      "hit": false,
      "t": 26912.104401041666,
      "d": 312.49406250000175,
      "v": 62
    },
    {
      "midi": 78,
      "hit": false,
      "t": 27201.450755208334,
      "d": 300.920208333333,
      "v": 85
    },
    {
      "midi": 71,
      "hit": false,
      "t": 27496.584036458335,
      "d": 306.70713541666555,
      "v": 48
    },
    {
      "midi": 76,
      "hit": false,
      "t": 27751.208828125,
      "d": 324.06791666666686,
      "v": 74
    },
    {
      "midi": 71,
      "hit": false,
      "t": 28011.620546875,
      "d": 303.8136718749993,
      "v": 70
    },
    {
      "midi": 78,
      "hit": false,
      "t": 28028.981328125,
      "d": 587.3730989583346,
      "v": 98
    },
    {
      "midi": 78,
      "hit": false,
      "t": 28312.540755208334,
      "d": 486.1018750000003,
      "v": 98
    },
    {
      "midi": 71,
      "hit": false,
      "t": 28590.313255208333,
      "d": 263.30518229166773,
      "v": 57
    },
    {
      "midi": 76,
      "hit": false,
      "t": 28821.79033854167,
      "d": 821.7436458333323,
      "v": 87
    },
    {
      "midi": 76,
      "hit": false,
      "t": 28868.085755208336,
      "d": 350.109088541667,
      "v": 74
    },
    {
      "midi": 78,
      "hit": false,
      "t": 29174.792890625,
      "d": 306.7071354166692,
      "v": 57
    },
    {
      "midi": 71,
      "hit": false,
      "t": 29458.352317708337,
      "d": 300.92020833333663,
      "v": 47
    },
    {
      "midi": 76,
      "hit": false,
      "t": 29707.190182291666,
      "d": 109.95161458333314,
      "v": 61
    },
    {
      "midi": 76,
      "hit": false,
      "t": 29712.977109375006,
      "d": 324.06791666666686,
      "v": 72
    },
    {
      "midi": 76,
      "hit": false,
      "t": 29996.536536458334,
      "d": 399.2979687499974,
      "v": 84
    },
    {
      "midi": 78,
      "hit": false,
      "t": 29996.53653645834,
      "d": 306.70713541666555,
      "v": 81
    },
    {
      "midi": 71,
      "hit": false,
      "t": 30280.095963541673,
      "d": 601.840416666666,
      "v": 65
    },
    {
      "midi": 78,
      "hit": false,
      "t": 30390.047578125,
      "d": 442.69992187499884,
      "v": 92
    },
    {
      "midi": 80,
      "hit": false,
      "t": 30754.623984374997,
      "d": 202.5424479166686,
      "v": 88
    },
    {
      "midi": 76,
      "hit": false,
      "t": 30818.280182291674,
      "d": 303.8136718749993,
      "v": 55
    },
    {
      "midi": 80,
      "hit": false,
      "t": 31090.265755208333,
      "d": 115.73854166666933,
      "v": 85
    },
    {
      "midi": 78,
      "hit": false,
      "t": 31096.052682291673,
      "d": 318.2809895833343,
      "v": 81
    },
    {
      "midi": 81,
      "hit": false,
      "t": 31159.708880208334,
      "d": 280.66596354166904,
      "v": 81
    },
    {
      "midi": 71,
      "hit": false,
      "t": 31368.03825520834,
      "d": 329.85484375000306,
      "v": 49
    },
    {
      "midi": 80,
      "hit": false,
      "t": 31420.120598958336,
      "d": 219.90322916666628,
      "v": 98
    },
    {
      "midi": 76,
      "hit": false,
      "t": 31651.597682291675,
      "d": 306.70713541666555,
      "v": 74
    },
    {
      "midi": 78,
      "hit": false,
      "t": 31666.065000000002,
      "d": 833.317500000001,
      "v": 98
    },
    {
      "midi": 78,
      "hit": false,
      "t": 31917.79632812501,
      "d": 332.74830729166206,
      "v": 73
    },
    {
      "midi": 71,
      "hit": false,
      "t": 32212.929609375005,
      "d": 329.8548437499994,
      "v": 55
    },
    {
      "midi": 76,
      "hit": false,
      "t": 32496.489036458337,
      "d": 3113.366770833334,
      "v": 72
    },
    {
      "midi": 81,
      "hit": false,
      "t": 33332.700000000004,
      "d": 277.7724999999991,
      "v": 87
    },
    {
      "midi": 81,
      "hit": false,
      "t": 33729.104505208335,
      "d": 277.7724999999991,
      "v": 87
    },
    {
      "midi": 83,
      "hit": false,
      "t": 34125.50901041667,
      "d": 277.7724999999991,
      "v": 98
    },
    {
      "midi": 83,
      "hit": false,
      "t": 34446.683463541674,
      "d": 1229.7220052083285,
      "v": 46
    },
    {
      "midi": 80,
      "hit": false,
      "t": 34545.061223958335,
      "d": 277.7724999999991,
      "v": 98
    },
    {
      "midi": 78,
      "hit": false,
      "t": 34973.293828125,
      "d": 682.8573958333291,
      "v": 83
    },
    {
      "midi": 56,
      "hit": false,
      "t": 35534.62575520833,
      "d": 3113.3667708333305,
      "v": 99
    },
    {
      "midi": 64,
      "hit": false,
      "t": 35534.62575520833,
      "d": 3148.088333333333,
      "v": 82
    },
    {
      "midi": 52,
      "hit": false,
      "t": 35534.62575520833,
      "d": 3162.5556510416645,
      "v": 107
    },
    {
      "midi": 59,
      "hit": false,
      "t": 35540.412682291666,
      "d": 3107.579843749998,
      "v": 90
    },
    {
      "midi": 76,
      "hit": false,
      "t": 35633.003515625,
      "d": 2763.257682291667,
      "v": 52
    },
    {
      "midi": 59,
      "hit": false,
      "t": 43867.800755208336,
      "d": 335.641770833332,
      "v": 122
    },
    {
      "midi": 61,
      "hit": false,
      "t": 44157.147109375,
      "d": 266.198645833334,
      "v": 109
    },
    {
      "midi": 62,
      "hit": false,
      "t": 44440.70653645833,
      "d": 286.45289062499796,
      "v": 94
    },
    {
      "midi": 54,
      "hit": false,
      "t": 44463.85424479166,
      "d": 3394.032734375003,
      "v": 90
    },
    {
      "midi": 57,
      "hit": false,
      "t": 44463.85424479166,
      "d": 3411.393515625001,
      "v": 83
    },
    {
      "midi": 62,
      "hit": false,
      "t": 44463.85424479166,
      "d": 3414.286979166667,
      "v": 81
    },
    {
      "midi": 61,
      "hit": false,
      "t": 44724.265963541664,
      "d": 219.90322916666628,
      "v": 93
    },
    {
      "midi": 62,
      "hit": false,
      "t": 45007.825390624996,
      "d": 271.98557291666657,
      "v": 89
    },
    {
      "midi": 61,
      "hit": false,
      "t": 45297.17174479166,
      "d": 98.37776041666802,
      "v": 85
    },
    {
      "midi": 62,
      "hit": false,
      "t": 45407.12335937499,
      "d": 457.16723958333023,
      "v": 91
    },
    {
      "midi": 59,
      "hit": false,
      "t": 46084.19382812499,
      "d": 335.641770833332,
      "v": 104
    },
    {
      "midi": 61,
      "hit": false,
      "t": 46373.540182291654,
      "d": 248.83786458333634,
      "v": 100
    },
    {
      "midi": 62,
      "hit": false,
      "t": 46651.31268229166,
      "d": 289.34635416666424,
      "v": 91
    },
    {
      "midi": 61,
      "hit": false,
      "t": 46934.87210937499,
      "d": 260.41171875000146,
      "v": 90
    },
    {
      "midi": 62,
      "hit": false,
      "t": 47201.070755208326,
      "d": 292.2398177083305,
      "v": 92
    },
    {
      "midi": 61,
      "hit": false,
      "t": 47484.63018229166,
      "d": 164.92742187499243,
      "v": 86
    },
    {
      "midi": 62,
      "hit": false,
      "t": 47623.51643229165,
      "d": 445.5933854166651,
      "v": 94
    },
    {
      "midi": 64,
      "hit": false,
      "t": 48040.17518229165,
      "d": 763.8743750000067,
      "v": 92
    },
    {
      "midi": 61,
      "hit": false,
      "t": 48885.06653645832,
      "d": 428.23260416666744,
      "v": 105
    },
    {
      "midi": 56,
      "hit": false,
      "t": 48902.42731770833,
      "d": 1539.322604166664,
      "v": 92
    },
    {
      "midi": 64,
      "hit": false,
      "t": 48902.42731770833,
      "d": 1614.5526562500017,
      "v": 82
    },
    {
      "midi": 59,
      "hit": false,
      "t": 48905.32078125,
      "d": 1565.3637760416677,
      "v": 84
    },
    {
      "midi": 59,
      "hit": false,
      "t": 49307.51221354165,
      "d": 1770.7996875000026,
      "v": 89
    },
    {
      "midi": 71,
      "hit": false,
      "t": 52785.455390624986,
      "d": 254.6247916666689,
      "v": 97
    },
    {
      "midi": 73,
      "hit": false,
      "t": 53051.65403645832,
      "d": 205.43591145833489,
      "v": 96
    },
    {
      "midi": 74,
      "hit": false,
      "t": 53326.53307291665,
      "d": 274.87903645833285,
      "v": 90
    },
    {
      "midi": 57,
      "hit": false,
      "t": 53352.574244791664,
      "d": 3107.579843749998,
      "v": 93
    },
    {
      "midi": 54,
      "hit": false,
      "t": 53352.574244791664,
      "d": 3136.514479166668,
      "v": 99
    },
    {
      "midi": 62,
      "hit": false,
      "t": 53352.574244791664,
      "d": 3165.449114583338,
      "v": 86
    },
    {
      "midi": 73,
      "hit": false,
      "t": 53624.559817708316,
      "d": 219.90322916666628,
      "v": 85
    },
    {
      "midi": 74,
      "hit": false,
      "t": 53879.184609374985,
      "d": 283.5594270833317,
      "v": 81
    },
    {
      "midi": 73,
      "hit": false,
      "t": 54174.31789062498,
      "d": 95.48429687500175,
      "v": 75
    },
    {
      "midi": 74,
      "hit": false,
      "t": 54295.84335937498,
      "d": 645.2423697916674,
      "v": 80
    },
    {
      "midi": 71,
      "hit": false,
      "t": 54978.700755208316,
      "d": 318.2809895833343,
      "v": 82
    },
    {
      "midi": 73,
      "hit": false,
      "t": 55250.68632812498,
      "d": 248.83786458333634,
      "v": 86
    },
    {
      "midi": 74,
      "hit": false,
      "t": 55522.67190104165,
      "d": 274.87903645833285,
      "v": 83
    },
    {
      "midi": 73,
      "hit": false,
      "t": 55794.657473958316,
      "d": 243.0509374999965,
      "v": 84
    },
    {
      "midi": 74,
      "hit": false,
      "t": 56066.64304687498,
      "d": 303.8136718750029,
      "v": 81
    },
    {
      "midi": 73,
      "hit": false,
      "t": 56367.56325520832,
      "d": 144.67317708333576,
      "v": 82
    },
    {
      "midi": 74,
      "hit": false,
      "t": 56523.81028645832,
      "d": 364.57640625000204,
      "v": 89
    },
    {
      "midi": 78,
      "hit": false,
      "t": 56882.59976562499,
      "d": 850.6782812500023,
      "v": 89
    },
    {
      "midi": 76,
      "hit": false,
      "t": 57762.21268229166,
      "d": 784.1286197916634,
      "v": 85
    },
    {
      "midi": 59,
      "hit": false,
      "t": 57791.14731770833,
      "d": 3576.3209375000006,
      "v": 98
    },
    {
      "midi": 56,
      "hit": false,
      "t": 57791.14731770833,
      "d": 3593.6817187499983,
      "v": 94
    },
    {
      "midi": 64,
      "hit": false,
      "t": 57794.04078125,
      "d": 3590.788255208332,
      "v": 90
    },
    {
      "midi": 78,
      "hit": false,
      "t": 58520.30013020833,
      "d": 144.67317708332848,
      "v": 86
    },
    {
      "midi": 80,
      "hit": false,
      "t": 58659.186380208324,
      "d": 2471.0178645833294,
      "v": 81
    },
    {
      "midi": 71,
      "hit": false,
      "t": 61656.81460937499,
      "d": 277.7724999999991,
      "v": 91
    },
    {
      "midi": 74,
      "hit": false,
      "t": 61656.81460937499,
      "d": 312.49406250000175,
      "v": 91
    },
    {
      "midi": 73,
      "hit": false,
      "t": 61928.800182291656,
      "d": 240.1574739583375,
      "v": 90
    },
    {
      "midi": 76,
      "hit": false,
      "t": 61928.800182291656,
      "d": 257.5182552083352,
      "v": 78
    },
    {
      "midi": 74,
      "hit": false,
      "t": 62200.78575520832,
      "d": 289.34635416666424,
      "v": 87
    },
    {
      "midi": 78,
      "hit": false,
      "t": 62203.67921874999,
      "d": 269.0921093750003,
      "v": 87
    },
    {
      "midi": 57,
      "hit": false,
      "t": 62235.50731770833,
      "d": 3576.3209374999933,
      "v": 91
    },
    {
      "midi": 54,
      "hit": false,
      "t": 62235.50731770833,
      "d": 3715.2071874999892,
      "v": 96
    },
    {
      "midi": 62,
      "hit": false,
      "t": 62238.40078125,
      "d": 3671.805234374995,
      "v": 91
    },
    {
      "midi": 76,
      "hit": false,
      "t": 62484.345182291654,
      "d": 263.30518229166046,
      "v": 73
    },
    {
      "midi": 73,
      "hit": false,
      "t": 62507.492890624984,
      "d": 214.11630208333372,
      "v": 87
    },
    {
      "midi": 78,
      "hit": false,
      "t": 62750.54382812498,
      "d": 248.83786458333634,
      "v": 82
    },
    {
      "midi": 74,
      "hit": false,
      "t": 62750.54382812498,
      "d": 274.87903645833285,
      "v": 87
    },
    {
      "midi": 76,
      "hit": false,
      "t": 63022.52940104165,
      "d": 121.52546874999825,
      "v": 74
    },
    {
      "midi": 73,
      "hit": false,
      "t": 63051.46403645831,
      "d": 92.59083333333547,
      "v": 90
    },
    {
      "midi": 78,
      "hit": false,
      "t": 63155.62872395831,
      "d": 549.7580729166657,
      "v": 88
    },
    {
      "midi": 74,
      "hit": false,
      "t": 63161.41565104164,
      "d": 543.9711458333331,
      "v": 89
    },
    {
      "midi": 74,
      "hit": false,
      "t": 63826.912265624975,
      "d": 283.5594270833317,
      "v": 87
    },
    {
      "midi": 71,
      "hit": false,
      "t": 63844.27304687497,
      "d": 248.83786458333634,
      "v": 92
    },
    {
      "midi": 73,
      "hit": false,
      "t": 64122.04554687497,
      "d": 237.26401041666395,
      "v": 89
    },
    {
      "midi": 76,
      "hit": false,
      "t": 64122.04554687497,
      "d": 266.198645833334,
      "v": 80
    },
    {
      "midi": 78,
      "hit": false,
      "t": 64417.178828124976,
      "d": 237.26401041666395,
      "v": 85
    },
    {
      "midi": 74,
      "hit": false,
      "t": 64417.178828124976,
      "d": 254.62479166666162,
      "v": 88
    },
    {
      "midi": 76,
      "hit": false,
      "t": 64694.95132812497,
      "d": 245.9444010416628,
      "v": 77
    },
    {
      "midi": 73,
      "hit": false,
      "t": 64697.844791666634,
      "d": 234.37054687499767,
      "v": 92
    },
    {
      "midi": 78,
      "hit": false,
      "t": 64972.72382812497,
      "d": 248.83786458333634,
      "v": 86
    },
    {
      "midi": 74,
      "hit": false,
      "t": 64972.72382812497,
      "d": 260.41171875000146,
      "v": 87
    },
    {
      "midi": 73,
      "hit": false,
      "t": 65227.348619791635,
      "d": 121.52546874999825,
      "v": 82
    },
    {
      "midi": 76,
      "hit": false,
      "t": 65256.2832552083,
      "d": 92.59083333333547,
      "v": 72
    },
    {
      "midi": 74,
      "hit": false,
      "t": 65366.23486979163,
      "d": 254.62479166666162,
      "v": 90
    },
    {
      "midi": 78,
      "hit": false,
      "t": 65389.38257812496,
      "d": 312.49406250000175,
      "v": 93
    },
    {
      "midi": 78,
      "hit": false,
      "t": 65852.33674479162,
      "d": 781.2351562499971,
      "v": 76
    },
    {
      "midi": 81,
      "hit": false,
      "t": 65869.69752604162,
      "d": 781.2351562499971,
      "v": 78
    },
    {
      "midi": 80,
      "hit": false,
      "t": 66645.14575520829,
      "d": 3142.301406249986,
      "v": 41
    },
    {
      "midi": 76,
      "hit": false,
      "t": 66674.08039062495,
      "d": 3084.4321354166605,
      "v": 68
    },
    {
      "midi": 56,
      "hit": false,
      "t": 66674.080390625,
      "d": 4033.488177083331,
      "v": 99
    },
    {
      "midi": 59,
      "hit": false,
      "t": 66691.44117187499,
      "d": 3998.7666145833355,
      "v": 98
    },
    {
      "midi": 64,
      "hit": false,
      "t": 66691.44117187499,
      "d": 4045.062031249996,
      "v": 90
    },
    {
      "midi": 74,
      "hit": false,
      "t": 70562.89539062494,
      "d": 263.30518229166046,
      "v": 91
    },
    {
      "midi": 71,
      "hit": false,
      "t": 70562.89539062494,
      "d": 300.9202083333221,
      "v": 96
    },
    {
      "midi": 73,
      "hit": false,
      "t": 70823.30710937493,
      "d": 243.0509374999965,
      "v": 92
    },
    {
      "midi": 76,
      "hit": false,
      "t": 70823.30710937493,
      "d": 257.5182552083279,
      "v": 81
    },
    {
      "midi": 78,
      "hit": false,
      "t": 71118.44039062492,
      "d": 248.83786458332906,
      "v": 86
    },
    {
      "midi": 74,
      "hit": false,
      "t": 71118.44039062492,
      "d": 263.30518229166046,
      "v": 86
    },
    {
      "midi": 57,
      "hit": false,
      "t": 71124.22731770833,
      "d": 3842.5195833333273,
      "v": 100
    },
    {
      "midi": 62,
      "hit": false,
      "t": 71124.22731770833,
      "d": 3888.814999999988,
      "v": 90
    },
    {
      "midi": 54,
      "hit": false,
      "t": 71127.12078124999,
      "d": 3868.560755208324,
      "v": 99
    },
    {
      "midi": 76,
      "hit": false,
      "t": 71378.85210937492,
      "d": 254.62479166666162,
      "v": 73
    },
    {
      "midi": 73,
      "hit": false,
      "t": 71401.99981770825,
      "d": 225.69015624999884,
      "v": 89
    },
    {
      "midi": 78,
      "hit": false,
      "t": 71645.05075520824,
      "d": 248.83786458332906,
      "v": 83
    },
    {
      "midi": 74,
      "hit": false,
      "t": 71671.09192708324,
      "d": 251.73132812499534,
      "v": 87
    },
    {
      "midi": 76,
      "hit": false,
      "t": 71922.82325520823,
      "d": 101.2712239583343,
      "v": 70
    },
    {
      "midi": 73,
      "hit": false,
      "t": 71945.97096354156,
      "d": 92.59083333333547,
      "v": 89
    },
    {
      "midi": 74,
      "hit": false,
      "t": 72055.9225781249,
      "d": 214.11630208333372,
      "v": 92
    },
    {
      "midi": 78,
      "hit": false,
      "t": 72055.9225781249,
      "d": 214.11630208333372,
      "v": 92
    },
    {
      "midi": 71,
      "hit": false,
      "t": 72761.92768229157,
      "d": 243.0509374999965,
      "v": 94
    },
    {
      "midi": 74,
      "hit": false,
      "t": 72761.92768229157,
      "d": 254.62479166666162,
      "v": 90
    },
    {
      "midi": 73,
      "hit": false,
      "t": 73028.1263281249,
      "d": 225.69015624999884,
      "v": 94
    },
    {
      "midi": 76,
      "hit": false,
      "t": 73028.1263281249,
      "d": 251.73132812499534,
      "v": 79
    },
    {
      "midi": 78,
      "hit": false,
      "t": 73305.89882812489,
      "d": 243.0509374999965,
      "v": 85
    },
    {
      "midi": 74,
      "hit": false,
      "t": 73305.89882812489,
      "d": 260.4117187499942,
      "v": 83
    },
    {
      "midi": 76,
      "hit": false,
      "t": 73577.88440104155,
      "d": 257.5182552083279,
      "v": 69
    },
    {
      "midi": 73,
      "hit": false,
      "t": 73601.03210937488,
      "d": 219.90322916666628,
      "v": 89
    },
    {
      "midi": 78,
      "hit": false,
      "t": 73867.2307552082,
      "d": 219.90322916666628,
      "v": 86
    },
    {
      "midi": 74,
      "hit": false,
      "t": 73867.2307552082,
      "d": 237.26401041666395,
      "v": 87
    },
    {
      "midi": 73,
      "hit": false,
      "t": 74127.6424739582,
      "d": 104.16468750000058,
      "v": 87
    },
    {
      "midi": 76,
      "hit": false,
      "t": 74127.6424739582,
      "d": 104.16468750000058,
      "v": 65
    },
    {
      "midi": 74,
      "hit": false,
      "t": 74243.38101562487,
      "d": 173.60781249999127,
      "v": 87
    },
    {
      "midi": 78,
      "hit": false,
      "t": 74266.5287239582,
      "d": 225.69015624999884,
      "v": 92
    },
    {
      "midi": 78,
      "hit": false,
      "t": 74688.97440104153,
      "d": 827.5305729166721,
      "v": 85
    },
    {
      "midi": 81,
      "hit": false,
      "t": 74688.97440104153,
      "d": 844.8913541666698,
      "v": 86
    },
    {
      "midi": 76,
      "hit": false,
      "t": 75545.43960937487,
      "d": 2789.298854166671,
      "v": 69
    },
    {
      "midi": 80,
      "hit": false,
      "t": 75545.43960937487,
      "d": 2806.6596354166686,
      "v": 64
    },
    {
      "midi": 56,
      "hit": false,
      "t": 75585.94809895831,
      "d": 2624.371432291664,
      "v": 92
    },
    {
      "midi": 59,
      "hit": false,
      "t": 75585.94809895831,
      "d": 2653.3060677083267,
      "v": 100
    },
    {
      "midi": 64,
      "hit": false,
      "t": 75585.94809895831,
      "d": 2711.175338541667,
      "v": 91
    },
    {
      "midi": 69,
      "hit": false,
      "t": 77784.980390625,
      "d": 2.8934635416662786,
      "v": 32
    },
    {
      "midi": 71,
      "hit": false,
      "t": 77784.980390625,
      "d": 2.8934635416662786,
      "v": 38
    },
    {
      "midi": 73,
      "hit": false,
      "t": 77784.980390625,
      "d": 2.8934635416662786,
      "v": 40
    },
    {
      "midi": 76,
      "hit": false,
      "t": 77787.87385416667,
      "d": 2.8934635416662786,
      "v": 37
    },
    {
      "midi": 69,
      "hit": false,
      "t": 80007.160390625,
      "d": 3992.979687500003,
      "v": 64
    },
    {
      "midi": 73,
      "hit": false,
      "t": 80007.160390625,
      "d": 4033.488177083331,
      "v": 73
    },
    {
      "midi": 76,
      "hit": false,
      "t": 80010.05385416666,
      "d": 4024.807786458332,
      "v": 59
    },
    {
      "midi": 64,
      "hit": false,
      "t": 80012.94731770831,
      "d": 3359.311171874986,
      "v": 98
    },
    {
      "midi": 69,
      "hit": false,
      "t": 80279.14596354164,
      "d": 3119.153697916656,
      "v": 107
    },
    {
      "midi": 74,
      "hit": false,
      "t": 80533.7707552083,
      "d": 347.2156249999971,
      "v": 107
    },
    {
      "midi": 73,
      "hit": false,
      "t": 80828.9040364583,
      "d": 2517.313281249997,
      "v": 99
    },
    {
      "midi": 73,
      "hit": false,
      "t": 81343.94054687487,
      "d": 624.9881250000035,
      "v": 102
    },
    {
      "midi": 78,
      "hit": false,
      "t": 81893.69861979154,
      "d": 775.4482291666645,
      "v": 81
    },
    {
      "midi": 76,
      "hit": false,
      "t": 82680.72070312487,
      "d": 931.6952604166581,
      "v": 74
    },
    {
      "midi": 73,
      "hit": false,
      "t": 83583.48132812486,
      "d": 862.2521354166674,
      "v": 74
    },
    {
      "midi": 71,
      "hit": false,
      "t": 84428.37268229167,
      "d": 3775.969921875003,
      "v": 72
    },
    {
      "midi": 74,
      "hit": false,
      "t": 84428.37268229167,
      "d": 3822.2653385416634,
      "v": 64
    },
    {
      "midi": 67,
      "hit": false,
      "t": 84428.37268229167,
      "d": 3883.0280729166698,
      "v": 74
    },
    {
      "midi": 62,
      "hit": false,
      "t": 84468.88117187496,
      "d": 3408.5000520833128,
      "v": 121
    },
    {
      "midi": 67,
      "hit": false,
      "t": 84729.29289062496,
      "d": 3174.129505208315,
      "v": 100
    },
    {
      "midi": 74,
      "hit": false,
      "t": 84983.91768229153,
      "d": 231.4770833333314,
      "v": 90
    },
    {
      "midi": 72,
      "hit": false,
      "t": 84989.70460937495,
      "d": 353.00255208332965,
      "v": 98
    },
    {
      "midi": 74,
      "hit": false,
      "t": 85261.69018229152,
      "d": 214.11630208333372,
      "v": 88
    },
    {
      "midi": 71,
      "hit": false,
      "t": 85296.41174479162,
      "d": 2627.2648958333157,
      "v": 81
    },
    {
      "midi": 74,
      "hit": false,
      "t": 85539.46268229153,
      "d": 364.57640624999476,
      "v": 86
    },
    {
      "midi": 73,
      "hit": false,
      "t": 85944.54757812485,
      "d": 260.4117187499942,
      "v": 96
    },
    {
      "midi": 71,
      "hit": false,
      "t": 86349.63247395818,
      "d": 219.90322916666628,
      "v": 91
    },
    {
      "midi": 69,
      "hit": false,
      "t": 86662.12653645818,
      "d": 1556.6833854166616,
      "v": 77
    },
    {
      "midi": 73,
      "hit": false,
      "t": 88878.519609375,
      "d": 2378.427031250001,
      "v": 73
    },
    {
      "midi": 76,
      "hit": false,
      "t": 88878.519609375,
      "d": 2395.787812499999,
      "v": 62
    },
    {
      "midi": 69,
      "hit": false,
      "t": 88881.41307291666,
      "d": 2392.8943489583326,
      "v": 67
    },
    {
      "midi": 64,
      "hit": false,
      "t": 88895.88039062494,
      "d": 2960.0132031250105,
      "v": 95
    },
    {
      "midi": 69,
      "hit": false,
      "t": 89173.65289062494,
      "d": 2638.83875000001,
      "v": 85
    },
    {
      "midi": 73,
      "hit": false,
      "t": 89428.2776822915,
      "d": 228.58361979166511,
      "v": 98
    },
    {
      "midi": 74,
      "hit": false,
      "t": 89428.2776822916,
      "d": 353.0025520833442,
      "v": 90
    },
    {
      "midi": 73,
      "hit": false,
      "t": 89711.83710937484,
      "d": 196.75552083333605,
      "v": 81
    },
    {
      "midi": 73,
      "hit": false,
      "t": 89723.41096354161,
      "d": 2089.080677083344,
      "v": 88
    },
    {
      "midi": 73,
      "hit": false,
      "t": 89995.39653645818,
      "d": 717.5789583333244,
      "v": 89
    },
    {
      "midi": 78,
      "hit": false,
      "t": 90666.68007812485,
      "d": 445.5933854166651,
      "v": 85
    },
    {
      "midi": 76,
      "hit": false,
      "t": 91123.84731770818,
      "d": 879.6129166666651,
      "v": 83
    },
    {
      "midi": 73,
      "hit": false,
      "t": 92015.0340885415,
      "d": 1134.2377083333267,
      "v": 84
    },
    {
      "midi": 78,
      "hit": false,
      "t": 93328.66653645833,
      "d": 1834.455885416668,
      "v": 91
    },
    {
      "midi": 76,
      "hit": false,
      "t": 93331.56,
      "d": 1808.4147135416715,
      "v": 81
    },
    {
      "midi": 83,
      "hit": false,
      "t": 93331.56,
      "d": 1808.4147135416715,
      "v": 90
    },
    {
      "midi": 71,
      "hit": false,
      "t": 93351.81424479162,
      "d": 1840.242812499986,
      "v": 93
    },
    {
      "midi": 66,
      "hit": false,
      "t": 93351.81424479162,
      "d": 1866.2839843749825,
      "v": 111
    },
    {
      "midi": 64,
      "hit": false,
      "t": 93357.60117187495,
      "d": 1788.160468749993,
      "v": 100
    },
    {
      "midi": 59,
      "hit": false,
      "t": 93357.60117187495,
      "d": 1866.2839843749825,
      "v": 111
    },
    {
      "midi": 75,
      "hit": false,
      "t": 94422.39575520817,
      "d": 173.60781250000582,
      "v": 117
    },
    {
      "midi": 75,
      "hit": false,
      "t": 94711.74210937484,
      "d": 277.7725000000064,
      "v": 100
    },
    {
      "midi": 80,
      "hit": false,
      "t": 95111.04007812485,
      "d": 283.55942708333896,
      "v": 123
    },
    {
      "midi": 78,
      "hit": false,
      "t": 95527.69882812485,
      "d": 792.8090104166622,
      "v": 105
    },
    {
      "midi": 75,
      "hit": false,
      "t": 95550.84653645834,
      "d": 1562.4703124999942,
      "v": 81
    },
    {
      "midi": 78,
      "hit": false,
      "t": 95550.84653645834,
      "d": 1562.4703124999942,
      "v": 77
    },
    {
      "midi": 83,
      "hit": false,
      "t": 95550.84653645834,
      "d": 1562.4703124999942,
      "v": 85
    },
    {
      "midi": 63,
      "hit": false,
      "t": 95573.9942447916,
      "d": 1197.8939062499849,
      "v": 107
    },
    {
      "midi": 71,
      "hit": false,
      "t": 95591.3550260416,
      "d": 1145.8115624999919,
      "v": 100
    },
    {
      "midi": 66,
      "hit": false,
      "t": 95591.3550260416,
      "d": 1192.1069791666523,
      "v": 107
    },
    {
      "midi": 47,
      "hit": false,
      "t": 95591.3550260416,
      "d": 1226.8285416666477,
      "v": 84
    },
    {
      "midi": 59,
      "hit": false,
      "t": 95597.14195312493,
      "d": 1122.6638541666616,
      "v": 91
    },
    {
      "midi": 76,
      "hit": false,
      "t": 96650.36268229151,
      "d": 405.0848958333372,
      "v": 127
    },
    {
      "midi": 78,
      "hit": false,
      "t": 97200.12075520818,
      "d": 503.46265625000524,
      "v": 117
    },
    {
      "midi": 71,
      "hit": false,
      "t": 97773.02653645833,
      "d": 1765.0127604166628,
      "v": 65
    },
    {
      "midi": 80,
      "hit": false,
      "t": 97773.02653645833,
      "d": 1799.7343229166581,
      "v": 64
    },
    {
      "midi": 76,
      "hit": false,
      "t": 97773.02653645833,
      "d": 1817.0951041666558,
      "v": 74
    },
    {
      "midi": 64,
      "hit": false,
      "t": 97790.38731770824,
      "d": 1817.0951041666704,
      "v": 84
    },
    {
      "midi": 52,
      "hit": false,
      "t": 97790.38731770824,
      "d": 1869.1774479166634,
      "v": 90
    },
    {
      "midi": 59,
      "hit": false,
      "t": 97793.28078124991,
      "d": 1814.201640625004,
      "v": 98
    },
    {
      "midi": 68,
      "hit": false,
      "t": 97793.28078124991,
      "d": 1828.6689583333355,
      "v": 88
    },
    {
      "midi": 80,
      "hit": false,
      "t": 98594.77018229151,
      "d": 821.7436458333395,
      "v": 100
    },
    {
      "midi": 80,
      "hit": false,
      "t": 99468.59617187484,
      "d": 977.9906770833331,
      "v": 94
    },
    {
      "midi": 73,
      "hit": false,
      "t": 99989.41960937499,
      "d": 1776.586614583328,
      "v": 85
    },
    {
      "midi": 76,
      "hit": false,
      "t": 99989.41960937499,
      "d": 1793.9473958333256,
      "v": 72
    },
    {
      "midi": 80,
      "hit": false,
      "t": 99989.41960937499,
      "d": 1828.668958333321,
      "v": 62
    },
    {
      "midi": 68,
      "hit": false,
      "t": 99995.20653645824,
      "d": 1765.0127604166628,
      "v": 81
    },
    {
      "midi": 61,
      "hit": false,
      "t": 100018.35424479157,
      "d": 1788.160468749993,
      "v": 87
    },
    {
      "midi": 49,
      "hit": false,
      "t": 100018.35424479157,
      "d": 1811.3081770833232,
      "v": 92
    },
    {
      "midi": 64,
      "hit": false,
      "t": 100021.24770833323,
      "d": 1727.3977343750012,
      "v": 79
    },
    {
      "midi": 76,
      "hit": false,
      "t": 101094.72268229151,
      "d": 329.8548437499994,
      "v": 97
    },
    {
      "midi": 78,
      "hit": false,
      "t": 101459.2990885415,
      "d": 283.55942708333896,
      "v": 113
    },
    {
      "midi": 80,
      "hit": false,
      "t": 101881.74476562484,
      "d": 277.7725000000064,
      "v": 123
    },
    {
      "midi": 78,
      "hit": false,
      "t": 102188.45190104164,
      "d": 3576.3209375000006,
      "v": 73
    },
    {
      "midi": 57,
      "hit": false,
      "t": 102200.02575520822,
      "d": 3489.5170312499977,
      "v": 91
    },
    {
      "midi": 62,
      "hit": false,
      "t": 102200.02575520822,
      "d": 3506.8778124999953,
      "v": 85
    },
    {
      "midi": 50,
      "hit": false,
      "t": 102202.91921874988,
      "d": 3469.2627864583337,
      "v": 95
    },
    {
      "midi": 66,
      "hit": false,
      "t": 102202.91921874988,
      "d": 3486.6235677083314,
      "v": 92
    },
    {
      "midi": 74,
      "hit": false,
      "t": 102211.59960937497,
      "d": 3535.8124479166727,
      "v": 57
    },
    {
      "midi": 81,
      "hit": false,
      "t": 102211.59960937497,
      "d": 3611.0425000000105,
      "v": 62
    },
    {
      "midi": 81,
      "hit": false,
      "t": 102246.32117187485,
      "d": 335.641770833332,
      "v": 109
    },
    {
      "midi": 80,
      "hit": false,
      "t": 102553.02830729152,
      "d": 164.92742187499243,
      "v": 95
    },
    {
      "midi": 78,
      "hit": false,
      "t": 102691.91455729151,
      "d": 943.2691145833232,
      "v": 93
    },
    {
      "midi": 78,
      "hit": false,
      "t": 104138.64632812484,
      "d": 277.7725000000064,
      "v": 123
    },
    {
      "midi": 81,
      "hit": false,
      "t": 104427.99268229151,
      "d": 457.16723958333023,
      "v": 89
    },
    {
      "midi": 81,
      "hit": false,
      "t": 104966.17690104152,
      "d": 300.92020833333663,
      "v": 92
    },
    {
      "midi": 83,
      "hit": false,
      "t": 105261.31018229152,
      "d": 214.11630208333372,
      "v": 82
    },
    {
      "midi": 80,
      "hit": false,
      "t": 105550.65653645819,
      "d": 347.2156249999971,
      "v": 96
    },
    {
      "midi": 78,
      "hit": false,
      "t": 105926.80679687485,
      "d": 370.3633333333273,
      "v": 109
    },
    {
      "midi": 76,
      "hit": false,
      "t": 106320.31783854151,
      "d": 1163.172343750004,
      "v": 96
    },
    {
      "midi": 71,
      "hit": false,
      "t": 106655.95960937499,
      "d": 1874.964374999996,
      "v": 65
    },
    {
      "midi": 80,
      "hit": false,
      "t": 106655.95960937499,
      "d": 1927.046718749989,
      "v": 70
    },
    {
      "midi": 56,
      "hit": false,
      "t": 106661.74653645822,
      "d": 1898.1120833333262,
      "v": 89
    },
    {
      "midi": 76,
      "hit": false,
      "t": 106661.74653645832,
      "d": 1938.620572916654,
      "v": 69
    },
    {
      "midi": 52,
      "hit": false,
      "t": 106673.32039062488,
      "d": 1869.1774479166634,
      "v": 103
    },
    {
      "midi": 59,
      "hit": false,
      "t": 106673.32039062488,
      "d": 1892.3251562499936,
      "v": 81
    },
    {
      "midi": 64,
      "hit": false,
      "t": 106673.32039062488,
      "d": 1892.3251562499936,
      "v": 81
    },
    {
      "midi": 76,
      "hit": false,
      "t": 108021.67440104151,
      "d": 248.83786458332906,
      "v": 89
    },
    {
      "midi": 78,
      "hit": false,
      "t": 108293.65997395817,
      "d": 480.31494791666046,
      "v": 102
    },
    {
      "midi": 76,
      "hit": false,
      "t": 108849.20497395817,
      "d": 590.2665624999936,
      "v": 97
    },
    {
      "midi": 73,
      "hit": false,
      "t": 108854.99190104163,
      "d": 1799.7343229166727,
      "v": 68
    },
    {
      "midi": 80,
      "hit": false,
      "t": 108854.99190104163,
      "d": 1817.0951041666704,
      "v": 57
    },
    {
      "midi": 76,
      "hit": false,
      "t": 108860.77882812497,
      "d": 1811.3081770833378,
      "v": 56
    },
    {
      "midi": 56,
      "hit": false,
      "t": 108907.07424479154,
      "d": 1869.1774479166634,
      "v": 96
    },
    {
      "midi": 49,
      "hit": false,
      "t": 108907.07424479154,
      "d": 1886.538229166661,
      "v": 107
    },
    {
      "midi": 61,
      "hit": false,
      "t": 108907.07424479154,
      "d": 1903.8990104166587,
      "v": 86
    },
    {
      "midi": 64,
      "hit": false,
      "t": 108909.9677083332,
      "d": 1877.8578385416622,
      "v": 91
    },
    {
      "midi": 76,
      "hit": false,
      "t": 110006.59039062483,
      "d": 300.92020833333663,
      "v": 106
    },
    {
      "midi": 78,
      "hit": false,
      "t": 110376.95372395817,
      "d": 260.4117187499942,
      "v": 105
    },
    {
      "midi": 80,
      "hit": false,
      "t": 110787.82554687482,
      "d": 234.37054687499767,
      "v": 113
    },
    {
      "midi": 57,
      "hit": false,
      "t": 111100.31960937487,
      "d": 1678.2088541666599,
      "v": 86
    },
    {
      "midi": 81,
      "hit": false,
      "t": 111106.1065364583,
      "d": 1950.1944270833337,
      "v": 54
    },
    {
      "midi": 78,
      "hit": false,
      "t": 111106.1065364583,
      "d": 1967.5552083333314,
      "v": 66
    },
    {
      "midi": 74,
      "hit": false,
      "t": 111106.1065364583,
      "d": 1990.7029166666616,
      "v": 53
    },
    {
      "midi": 81,
      "hit": false,
      "t": 111108.99999999983,
      "d": 300.92020833333663,
      "v": 99
    },
    {
      "midi": 50,
      "hit": false,
      "t": 111117.68039062487,
      "d": 1782.3735416666605,
      "v": 111
    },
    {
      "midi": 62,
      "hit": false,
      "t": 111123.4673177082,
      "d": 1655.0611458333296,
      "v": 84
    },
    {
      "midi": 66,
      "hit": false,
      "t": 111123.4673177082,
      "d": 1689.782708333325,
      "v": 88
    },
    {
      "midi": 80,
      "hit": false,
      "t": 111407.0267447915,
      "d": 144.67317708332848,
      "v": 95
    },
    {
      "midi": 78,
      "hit": false,
      "t": 111574.84763020815,
      "d": 1215.254687499997,
      "v": 75
    },
    {
      "midi": 76,
      "hit": false,
      "t": 113044.72710937481,
      "d": 86.80390625000291,
      "v": 63
    },
    {
      "midi": 83,
      "hit": false,
      "t": 113328.2865364583,
      "d": 1568.2572395833267,
      "v": 48
    },
    {
      "midi": 81,
      "hit": false,
      "t": 113339.86039062482,
      "d": 228.58361979166511,
      "v": 77
    },
    {
      "midi": 66,
      "hit": false,
      "t": 113345.6473177082,
      "d": 1655.0611458333296,
      "v": 99
    },
    {
      "midi": 63,
      "hit": false,
      "t": 113345.6473177082,
      "d": 1672.4219270833273,
      "v": 103
    },
    {
      "midi": 59,
      "hit": false,
      "t": 113345.6473177082,
      "d": 1793.9473958333256,
      "v": 95
    },
    {
      "midi": 47,
      "hit": false,
      "t": 113348.54078124986,
      "d": 1397.5428906250017,
      "v": 88
    },
    {
      "midi": 71,
      "hit": false,
      "t": 113351.43424479153,
      "d": 57.869270833340124,
      "v": 91
    },
    {
      "midi": 69,
      "hit": false,
      "t": 113351.43424479153,
      "d": 1631.9134374999994,
      "v": 88
    },
    {
      "midi": 78,
      "hit": false,
      "t": 113363.0080989583,
      "d": 1516.1748958333337,
      "v": 61
    },
    {
      "midi": 81,
      "hit": false,
      "t": 113634.99367187482,
      "d": 185.18166666667094,
      "v": 96
    },
    {
      "midi": 81,
      "hit": false,
      "t": 113883.83153645816,
      "d": 271.98557291667385,
      "v": 88
    },
    {
      "midi": 83,
      "hit": false,
      "t": 114173.17789062484,
      "d": 190.9685937500035,
      "v": 87
    },
    {
      "midi": 80,
      "hit": false,
      "t": 114433.58960937485,
      "d": 353.00255208332965,
      "v": 96
    },
    {
      "midi": 78,
      "hit": false,
      "t": 114815.52679687484,
      "d": 410.87182291666977,
      "v": 94
    },
    {
      "midi": 76,
      "hit": false,
      "t": 115261.1201822915,
      "d": 989.5645312499983,
      "v": 76
    },
    {
      "midi": 76,
      "hit": false,
      "t": 115544.67960937496,
      "d": 1325.2063020833302,
      "v": 67
    },
    {
      "midi": 59,
      "hit": false,
      "t": 115585.18809895818,
      "d": 2280.0492708333186,
      "v": 85
    },
    {
      "midi": 64,
      "hit": false,
      "t": 115585.18809895818,
      "d": 2280.0492708333186,
      "v": 85
    },
    {
      "midi": 56,
      "hit": false,
      "t": 115588.08156249985,
      "d": 2248.2211718749895,
      "v": 99
    },
    {
      "midi": 52,
      "hit": false,
      "t": 115619.90966145818,
      "d": 2245.3277083333232,
      "v": 95
    },
    {
      "midi": 71,
      "hit": false,
      "t": 123895.21539062483,
      "d": 312.4940624999872,
      "v": 99
    },
    {
      "midi": 73,
      "hit": false,
      "t": 124155.62710937482,
      "d": 231.4770833333314,
      "v": 95
    },
    {
      "midi": 74,
      "hit": false,
      "t": 124421.82575520815,
      "d": 260.4117187499942,
      "v": 91
    },
    {
      "midi": 54,
      "hit": false,
      "t": 124456.54731770817,
      "d": 2569.3956250000047,
      "v": 92
    },
    {
      "midi": 62,
      "hit": false,
      "t": 124456.54731770817,
      "d": 2569.3956250000047,
      "v": 88
    },
    {
      "midi": 57,
      "hit": false,
      "t": 124456.54731770817,
      "d": 2586.7564062500023,
      "v": 85
    },
    {
      "midi": 73,
      "hit": false,
      "t": 124699.59825520814,
      "d": 231.4770833333314,
      "v": 78
    },
    {
      "midi": 74,
      "hit": false,
      "t": 124977.37075520813,
      "d": 269.092109374993,
      "v": 73
    },
    {
      "midi": 73,
      "hit": false,
      "t": 125243.56940104146,
      "d": 133.09932291666337,
      "v": 71
    },
    {
      "midi": 74,
      "hit": false,
      "t": 125399.81643229145,
      "d": 682.8573958333291,
      "v": 83
    },
    {
      "midi": 71,
      "hit": false,
      "t": 126105.82153645811,
      "d": 318.2809895833343,
      "v": 86
    },
    {
      "midi": 73,
      "hit": false,
      "t": 126377.80710937479,
      "d": 257.5182552083279,
      "v": 86
    },
    {
      "midi": 74,
      "hit": false,
      "t": 126632.43190104145,
      "d": 312.49406250000175,
      "v": 77
    },
    {
      "midi": 73,
      "hit": false,
      "t": 126921.77825520812,
      "d": 260.4117187499942,
      "v": 86
    },
    {
      "midi": 74,
      "hit": false,
      "t": 127193.76382812478,
      "d": 280.6659635416727,
      "v": 79
    },
    {
      "midi": 73,
      "hit": false,
      "t": 127471.53632812478,
      "d": 112.84507812499942,
      "v": 79
    },
    {
      "midi": 74,
      "hit": false,
      "t": 127581.48794270812,
      "d": 451.3803124999977,
      "v": 79
    },
    {
      "midi": 78,
      "hit": false,
      "t": 128032.86825520812,
      "d": 844.8913541666698,
      "v": 88
    },
    {
      "midi": 76,
      "hit": false,
      "t": 128883.54653645812,
      "d": 2303.1969791666634,
      "v": 74
    },
    {
      "midi": 52,
      "hit": false,
      "t": 128900.90731770817,
      "d": 2303.1969791666634,
      "v": 88
    },
    {
      "midi": 64,
      "hit": false,
      "t": 128918.26809895817,
      "d": 2288.729661458332,
      "v": 80
    },
    {
      "midi": 59,
      "hit": false,
      "t": 128924.0550260415,
      "d": 2262.6884895833355,
      "v": 81
    },
    {
      "midi": 56,
      "hit": false,
      "t": 128924.0550260415,
      "d": 2280.049270833333,
      "v": 87
    },
    {
      "midi": 59,
      "hit": false,
      "t": 132749.21382812478,
      "d": 353.0025520833151,
      "v": 104
    },
    {
      "midi": 61,
      "hit": false,
      "t": 133026.98632812477,
      "d": 318.28098958331975,
      "v": 94
    },
    {
      "midi": 62,
      "hit": false,
      "t": 133316.33268229142,
      "d": 300.9202083333221,
      "v": 94
    },
    {
      "midi": 57,
      "hit": false,
      "t": 133322.11960937484,
      "d": 3651.5509895833384,
      "v": 81
    },
    {
      "midi": 54,
      "hit": false,
      "t": 133322.11960937484,
      "d": 3668.911770833336,
      "v": 89
    },
    {
      "midi": 62,
      "hit": false,
      "t": 133322.11960937484,
      "d": 3726.7810416666616,
      "v": 81
    },
    {
      "midi": 50,
      "hit": false,
      "t": 133325.0130729165,
      "d": 3799.1176302083186,
      "v": 95
    },
    {
      "midi": 61,
      "hit": false,
      "t": 133594.10518229142,
      "d": 271.9855729166593,
      "v": 102
    },
    {
      "midi": 62,
      "hit": false,
      "t": 133860.30382812474,
      "d": 332.74830729165114,
      "v": 90
    },
    {
      "midi": 61,
      "hit": false,
      "t": 134155.43710937473,
      "d": 185.18166666664183,
      "v": 100
    },
    {
      "midi": 62,
      "hit": false,
      "t": 134294.3233593747,
      "d": 653.9227604166663,
      "v": 90
    },
    {
      "midi": 59,
      "hit": false,
      "t": 134988.7546093747,
      "d": 318.28098958331975,
      "v": 122
    },
    {
      "midi": 61,
      "hit": false,
      "t": 135260.74018229137,
      "d": 274.8790364583256,
      "v": 113
    },
    {
      "midi": 62,
      "hit": false,
      "t": 135532.72575520803,
      "d": 300.9202083333221,
      "v": 91
    },
    {
      "midi": 61,
      "hit": false,
      "t": 135804.7113281247,
      "d": 277.77249999999185,
      "v": 93
    },
    {
      "midi": 62,
      "hit": false,
      "t": 136076.69690104134,
      "d": 318.28098958331975,
      "v": 89
    },
    {
      "midi": 61,
      "hit": false,
      "t": 136366.043255208,
      "d": 150.4601041666465,
      "v": 89
    },
    {
      "midi": 62,
      "hit": false,
      "t": 136493.35565104132,
      "d": 419.5522135416686,
      "v": 91
    },
    {
      "midi": 66,
      "hit": false,
      "t": 136927.37518229132,
      "d": 810.1697916666744,
      "v": 105
    },
    {
      "midi": 52,
      "hit": false,
      "t": 137760.6926822915,
      "d": 1073.4749739583349,
      "v": 100
    },
    {
      "midi": 64,
      "hit": false,
      "t": 137772.266536458,
      "d": 1319.4193749999977,
      "v": 97
    },
    {
      "midi": 64,
      "hit": false,
      "t": 137783.84039062483,
      "d": 1053.220729166671,
      "v": 78
    },
    {
      "midi": 56,
      "hit": false,
      "t": 137786.7338541665,
      "d": 998.2449218750116,
      "v": 92
    },
    {
      "midi": 59,
      "hit": false,
      "t": 137786.7338541665,
      "d": 1015.6057031250093,
      "v": 84
    },
    {
      "midi": 61,
      "hit": false,
      "t": 139051.17742187466,
      "d": 341.42869791665,
      "v": 127
    },
    {
      "midi": 59,
      "hit": false,
      "t": 139421.54075520797,
      "d": 1504.6010416666686,
      "v": 78
    },
    {
      "midi": 71,
      "hit": false,
      "t": 141655.29460937463,
      "d": 271.9855729166593,
      "v": 101
    },
    {
      "midi": 74,
      "hit": false,
      "t": 141655.29460937463,
      "d": 289.34635416665697,
      "v": 92
    },
    {
      "midi": 73,
      "hit": false,
      "t": 141938.85403645795,
      "d": 243.0509374999965,
      "v": 100
    },
    {
      "midi": 76,
      "hit": false,
      "t": 141938.85403645795,
      "d": 289.34635416665697,
      "v": 87
    },
    {
      "midi": 54,
      "hit": false,
      "t": 142216.62653645818,
      "d": 3148.0883333333477,
      "v": 88
    },
    {
      "midi": 57,
      "hit": false,
      "t": 142216.62653645818,
      "d": 3148.0883333333477,
      "v": 82
    },
    {
      "midi": 62,
      "hit": false,
      "t": 142216.62653645818,
      "d": 3162.555651041679,
      "v": 83
    },
    {
      "midi": 74,
      "hit": false,
      "t": 142219.5199999996,
      "d": 280.66596354165813,
      "v": 81
    },
    {
      "midi": 50,
      "hit": false,
      "t": 142219.51999999984,
      "d": 3162.555651041679,
      "v": 100
    },
    {
      "midi": 78,
      "hit": false,
      "t": 142228.2003906246,
      "d": 237.26401041666395,
      "v": 89
    },
    {
      "midi": 76,
      "hit": false,
      "t": 142488.6121093746,
      "d": 269.092109374993,
      "v": 66
    },
    {
      "midi": 73,
      "hit": false,
      "t": 142517.54674479127,
      "d": 214.11630208333372,
      "v": 84
    },
    {
      "midi": 78,
      "hit": false,
      "t": 142754.81075520793,
      "d": 248.83786458332906,
      "v": 87
    },
    {
      "midi": 74,
      "hit": false,
      "t": 142754.81075520793,
      "d": 292.23981770832324,
      "v": 88
    },
    {
      "midi": 73,
      "hit": false,
      "t": 143044.1571093746,
      "d": 109.95161458331859,
      "v": 86
    },
    {
      "midi": 76,
      "hit": false,
      "t": 143067.30481770792,
      "d": 150.4601041666465,
      "v": 67
    },
    {
      "midi": 74,
      "hit": false,
      "t": 143177.25643229124,
      "d": 376.1502604166744,
      "v": 85
    },
    {
      "midi": 78,
      "hit": false,
      "t": 143177.25643229124,
      "d": 393.5110416666721,
      "v": 89
    },
    {
      "midi": 74,
      "hit": false,
      "t": 143848.5399739579,
      "d": 277.77249999999185,
      "v": 90
    },
    {
      "midi": 71,
      "hit": false,
      "t": 143865.9007552079,
      "d": 260.4117187499942,
      "v": 97
    },
    {
      "midi": 73,
      "hit": false,
      "t": 144137.88632812456,
      "d": 222.79669270833256,
      "v": 84
    },
    {
      "midi": 76,
      "hit": false,
      "t": 144137.88632812456,
      "d": 251.73132812499534,
      "v": 77
    },
    {
      "midi": 78,
      "hit": false,
      "t": 144415.65882812455,
      "d": 266.19864583332674,
      "v": 81
    },
    {
      "midi": 74,
      "hit": false,
      "t": 144415.65882812455,
      "d": 283.5594270833244,
      "v": 80
    },
    {
      "midi": 73,
      "hit": false,
      "t": 144693.43132812454,
      "d": 222.79669270833256,
      "v": 82
    },
    {
      "midi": 76,
      "hit": false,
      "t": 144693.43132812454,
      "d": 240.15747395833023,
      "v": 69
    },
    {
      "midi": 78,
      "hit": false,
      "t": 144959.62997395787,
      "d": 208.32937500000116,
      "v": 81
    },
    {
      "midi": 74,
      "hit": false,
      "t": 144959.62997395787,
      "d": 266.19864583332674,
      "v": 86
    },
    {
      "midi": 76,
      "hit": false,
      "t": 145248.97632812453,
      "d": 138.88624999998137,
      "v": 60
    },
    {
      "midi": 73,
      "hit": false,
      "t": 145254.76325520786,
      "d": 98.37776041665347,
      "v": 89
    },
    {
      "midi": 74,
      "hit": false,
      "t": 145382.07565104117,
      "d": 179.39473958333838,
      "v": 89
    },
    {
      "midi": 78,
      "hit": false,
      "t": 145382.07565104117,
      "d": 237.26401041666395,
      "v": 84
    },
    {
      "midi": 78,
      "hit": false,
      "t": 145804.5213281245,
      "d": 844.8913541666698,
      "v": 92
    },
    {
      "midi": 81,
      "hit": false,
      "t": 145821.8821093745,
      "d": 833.3175000000047,
      "v": 81
    },
    {
      "midi": 80,
      "hit": false,
      "t": 146620.47804687452,
      "d": 2407.361666666664,
      "v": 55
    },
    {
      "midi": 76,
      "hit": false,
      "t": 146649.41268229118,
      "d": 2372.6401041666686,
      "v": 65
    },
    {
      "midi": 52,
      "hit": false,
      "t": 146672.56039062486,
      "d": 1574.0441666666593,
      "v": 111
    },
    {
      "midi": 64,
      "hit": false,
      "t": 146672.56039062486,
      "d": 1857.6035937499837,
      "v": 83
    },
    {
      "midi": 56,
      "hit": false,
      "t": 146675.45385416652,
      "d": 1912.579401041643,
      "v": 89
    },
    {
      "midi": 59,
      "hit": false,
      "t": 146675.45385416652,
      "d": 1912.579401041643,
      "v": 83
    },
    {
      "midi": 73,
      "hit": false,
      "t": 151093.77268229163,
      "d": 4062.422812500008,
      "v": 70
    },
    {
      "midi": 76,
      "hit": false,
      "t": 151093.77268229163,
      "d": 4079.783593750006,
      "v": 58
    },
    {
      "midi": 69,
      "hit": false,
      "t": 151093.77268229163,
      "d": 4094.250911458337,
      "v": 56
    },
    {
      "midi": 57,
      "hit": false,
      "t": 151128.4942447915,
      "d": 3211.7445312499767,
      "v": 93
    },
    {
      "midi": 64,
      "hit": false,
      "t": 151128.4942447915,
      "d": 3304.3353645832976,
      "v": 95
    },
    {
      "midi": 69,
      "hit": false,
      "t": 151400.47981770817,
      "d": 2957.119739583315,
      "v": 111
    },
    {
      "midi": 74,
      "hit": false,
      "t": 151660.89153645816,
      "d": 353.0025520833151,
      "v": 98
    },
    {
      "midi": 73,
      "hit": false,
      "t": 151956.02481770815,
      "d": 2418.935520833329,
      "v": 90
    },
    {
      "midi": 73,
      "hit": false,
      "t": 152465.27440104118,
      "d": 405.0848958333372,
      "v": 95
    },
    {
      "midi": 78,
      "hit": false,
      "t": 152876.14622395785,
      "d": 436.9129947916663,
      "v": 93
    },
    {
      "midi": 76,
      "hit": false,
      "t": 153356.4611718745,
      "d": 810.1697916666744,
      "v": 75
    },
    {
      "midi": 73,
      "hit": false,
      "t": 154143.48325520786,
      "d": 931.6952604166581,
      "v": 81
    },
    {
      "midi": 74,
      "hit": false,
      "t": 155549.7065364583,
      "d": 3859.8803645833395,
      "v": 58
    },
    {
      "midi": 71,
      "hit": false,
      "t": 155549.7065364583,
      "d": 3883.0280729166698,
      "v": 62
    },
    {
      "midi": 55,
      "hit": false,
      "t": 155561.2803906248,
      "d": 3289.8680468749662,
      "v": 127
    },
    {
      "midi": 67,
      "hit": false,
      "t": 155584.4280989583,
      "d": 3813.584947916679,
      "v": 95
    },
    {
      "midi": 62,
      "hit": false,
      "t": 155839.0528906248,
      "d": 2974.4805208333128,
      "v": 90
    },
    {
      "midi": 72,
      "hit": false,
      "t": 155879.56138020812,
      "d": 28.934635416662786,
      "v": 66
    },
    {
      "midi": 72,
      "hit": false,
      "t": 156116.82539062478,
      "d": 381.9371874999779,
      "v": 95
    },
    {
      "midi": 67,
      "hit": false,
      "t": 156157.3338802081,
      "d": 28.934635416662786,
      "v": 66
    },
    {
      "midi": 74,
      "hit": false,
      "t": 156365.66325520785,
      "d": 75.23005208332324,
      "v": 74
    },
    {
      "midi": 67,
      "hit": false,
      "t": 156411.95867187477,
      "d": 2416.042057291663,
      "v": 88
    },
    {
      "midi": 71,
      "hit": false,
      "t": 156411.95867187477,
      "d": 2424.7224479166616,
      "v": 90
    },
    {
      "midi": 74,
      "hit": false,
      "t": 156666.58346354117,
      "d": 335.6417708333465,
      "v": 86
    },
    {
      "midi": 73,
      "hit": false,
      "t": 157077.45528645784,
      "d": 260.4117187499942,
      "v": 93
    },
    {
      "midi": 71,
      "hit": false,
      "t": 157453.60554687452,
      "d": 674.1770052083302,
      "v": 82
    },
    {
      "midi": 69,
      "hit": false,
      "t": 158119.10216145785,
      "d": 1076.3684375000012,
      "v": 75
    },
    {
      "midi": 69,
      "hit": false,
      "t": 159988.279609375,
      "d": 3639.9771354166733,
      "v": 67
    },
    {
      "midi": 73,
      "hit": false,
      "t": 159988.279609375,
      "d": 3657.337916666671,
      "v": 73
    },
    {
      "midi": 76,
      "hit": false,
      "t": 159991.17307291666,
      "d": 3700.739869791665,
      "v": 60
    },
    {
      "midi": 57,
      "hit": false,
      "t": 160005.64039062476,
      "d": 3096.0059895832965,
      "v": 95
    },
    {
      "midi": 64,
      "hit": false,
      "t": 160005.64039062476,
      "d": 3145.194869791623,
      "v": 93
    },
    {
      "midi": 69,
      "hit": false,
      "t": 160294.98674479141,
      "d": 2824.020416666637,
      "v": 98
    },
    {
      "midi": 74,
      "hit": false,
      "t": 160566.97231770807,
      "d": 324.0679166666523,
      "v": 100
    },
    {
      "midi": 73,
      "hit": false,
      "t": 160844.74481770807,
      "d": 2256.9015624999884,
      "v": 96
    },
    {
      "midi": 73,
      "hit": false,
      "t": 161348.20747395785,
      "d": 399.29796875000466,
      "v": 102
    },
    {
      "midi": 78,
      "hit": false,
      "t": 161718.5708072912,
      "d": 468.74109374999534,
      "v": 73
    },
    {
      "midi": 76,
      "hit": false,
      "t": 162187.3119010412,
      "d": 836.2109635416709,
      "v": 72
    },
    {
      "midi": 73,
      "hit": false,
      "t": 163032.20325520786,
      "d": 1168.959270833322,
      "v": 63
    },
    {
      "midi": 76,
      "hit": false,
      "t": 164432.63960937498,
      "d": 1903.8990104166733,
      "v": 85
    },
    {
      "midi": 78,
      "hit": false,
      "t": 164432.63960937498,
      "d": 1938.6205729166686,
      "v": 91
    },
    {
      "midi": 83,
      "hit": false,
      "t": 164435.53307291665,
      "d": 1918.3663281250047,
      "v": 90
    },
    {
      "midi": 64,
      "hit": false,
      "t": 164438.42653645805,
      "d": 1793.9473958333256,
      "v": 103
    },
    {
      "midi": 71,
      "hit": false,
      "t": 164461.57424479138,
      "d": 1828.668958333321,
      "v": 107
    },
    {
      "midi": 66,
      "hit": false,
      "t": 164461.57424479138,
      "d": 1857.6035937499837,
      "v": 107
    },
    {
      "midi": 59,
      "hit": false,
      "t": 164464.46770833305,
      "d": 1941.5140364583058,
      "v": 103
    },
    {
      "midi": 75,
      "hit": false,
      "t": 165537.94268229118,
      "d": 590.2665625000081,
      "v": 95
    },
    {
      "midi": 80,
      "hit": false,
      "t": 166099.27460937452,
      "d": 567.1188541666488,
      "v": 80
    },
    {
      "midi": 78,
      "hit": false,
      "t": 166660.60653645784,
      "d": 821.7436458333395,
      "v": 83
    },
    {
      "midi": 78,
      "hit": false,
      "t": 166672.18039062497,
      "d": 1377.2886458333232,
      "v": 68
    },
    {
      "midi": 71,
      "hit": false,
      "t": 166677.967317708,
      "d": 1342.567083333328,
      "v": 79
    },
    {
      "midi": 66,
      "hit": false,
      "t": 166683.75424479134,
      "d": 1342.567083333328,
      "v": 86
    },
    {
      "midi": 75,
      "hit": false,
      "t": 166695.3280989583,
      "d": 1336.7801562499953,
      "v": 73
    },
    {
      "midi": 83,
      "hit": false,
      "t": 166695.3280989583,
      "d": 1354.140937499993,
      "v": 77
    },
    {
      "midi": 63,
      "hit": false,
      "t": 166706.90195312467,
      "d": 1296.2716666666674,
      "v": 92
    },
    {
      "midi": 59,
      "hit": false,
      "t": 166712.688880208,
      "d": 1261.550104166672,
      "v": 91
    },
    {
      "midi": 76,
      "hit": false,
      "t": 167765.9096093745,
      "d": 497.67572916665813,
      "v": 94
    },
    {
      "midi": 78,
      "hit": false,
      "t": 168298.30690104116,
      "d": 567.1188541666779,
      "v": 96
    },
    {
      "midi": 80,
      "hit": false,
      "t": 168882.7865364583,
      "d": 1932.833645833336,
      "v": 54
    },
    {
      "midi": 76,
      "hit": false,
      "t": 168882.7865364583,
      "d": 1950.1944270833337,
      "v": 56
    },
    {
      "midi": 71,
      "hit": false,
      "t": 168885.67999999996,
      "d": 1880.751302083343,
      "v": 58
    },
    {
      "midi": 56,
      "hit": false,
      "t": 168917.508098958,
      "d": 1976.2355989583302,
      "v": 89
    },
    {
      "midi": 52,
      "hit": false,
      "t": 168917.508098958,
      "d": 2060.1460416666523,
      "v": 95
    },
    {
      "midi": 59,
      "hit": false,
      "t": 168923.29502604133,
      "d": 2008.0636979166593,
      "v": 84
    },
    {
      "midi": 64,
      "hit": false,
      "t": 168952.229661458,
      "d": 1932.833645833336,
      "v": 77
    },
    {
      "midi": 80,
      "hit": false,
      "t": 169727.6778906245,
      "d": 758.0874479166523,
      "v": 88
    },
    {
      "midi": 80,
      "hit": false,
      "t": 170549.4215364578,
      "d": 1105.303072916664,
      "v": 84
    },
    {
      "midi": 56,
      "hit": false,
      "t": 171116.54039062466,
      "d": 1967.5552083333314,
      "v": 88
    },
    {
      "midi": 64,
      "hit": false,
      "t": 171116.54039062466,
      "d": 1967.5552083333314,
      "v": 78
    },
    {
      "midi": 61,
      "hit": false,
      "t": 171116.54039062466,
      "d": 2019.6375520833244,
      "v": 84
    },
    {
      "midi": 73,
      "hit": false,
      "t": 171119.43385416662,
      "d": 1796.8408593749919,
      "v": 66
    },
    {
      "midi": 76,
      "hit": false,
      "t": 171119.43385416662,
      "d": 1912.579401041672,
      "v": 58
    },
    {
      "midi": 80,
      "hit": false,
      "t": 171119.43385416662,
      "d": 1912.579401041672,
      "v": 60
    },
    {
      "midi": 49,
      "hit": false,
      "t": 171151.26195312466,
      "d": 2135.3760937500047,
      "v": 107
    },
    {
      "midi": 76,
      "hit": false,
      "t": 172198.69575520782,
      "d": 324.0679166666523,
      "v": 104
    },
    {
      "midi": 78,
      "hit": false,
      "t": 172603.78065104113,
      "d": 248.83786458332906,
      "v": 117
    },
    {
      "midi": 80,
      "hit": false,
      "t": 172933.63549479112,
      "d": 318.28098958331975,
      "v": 127
    },
    {
      "midi": 81,
      "hit": false,
      "t": 173303.99882812443,
      "d": 370.36333333334187,
      "v": 92
    },
    {
      "midi": 74,
      "hit": false,
      "t": 173309.7857552083,
      "d": 2256.9015624999884,
      "v": 64
    },
    {
      "midi": 78,
      "hit": false,
      "t": 173315.57268229162,
      "d": 2251.114635416656,
      "v": 81
    },
    {
      "midi": 81,
      "hit": false,
      "t": 173315.57268229162,
      "d": 2271.3688802083198,
      "v": 65
    },
    {
      "midi": 66,
      "hit": false,
      "t": 173327.146536458,
      "d": 4016.1273958333186,
      "v": 78
    },
    {
      "midi": 50,
      "hit": false,
      "t": 173327.146536458,
      "d": 4033.4881770833163,
      "v": 86
    },
    {
      "midi": 62,
      "hit": false,
      "t": 173327.146536458,
      "d": 4033.4881770833163,
      "v": 84
    },
    {
      "midi": 57,
      "hit": false,
      "t": 173330.03999999966,
      "d": 4094.250911458308,
      "v": 98
    },
    {
      "midi": 80,
      "hit": false,
      "t": 173645.4275260411,
      "d": 150.4601041666756,
      "v": 84
    },
    {
      "midi": 78,
      "hit": false,
      "t": 173790.10070312445,
      "d": 1209.467760416679,
      "v": 81
    },
    {
      "midi": 78,
      "hit": false,
      "t": 175265.76710937446,
      "d": 260.4117187499942,
      "v": 100
    },
    {
      "midi": 81,
      "hit": false,
      "t": 175549.32653645778,
      "d": 225.69015624999884,
      "v": 97
    },
    {
      "midi": 81,
      "hit": false,
      "t": 175844.45981770777,
      "d": 196.75552083333605,
      "v": 89
    },
    {
      "midi": 81,
      "hit": false,
      "t": 176122.23231770776,
      "d": 266.19864583332674,
      "v": 87
    },
    {
      "midi": 83,
      "hit": false,
      "t": 176382.64403645776,
      "d": 277.77249999999185,
      "v": 88
    },
    {
      "midi": 80,
      "hit": false,
      "t": 176671.9903906244,
      "d": 381.937187500007,
      "v": 93
    },
    {
      "midi": 78,
      "hit": false,
      "t": 177065.5014322911,
      "d": 370.36333333334187,
      "v": 93
    },
    {
      "midi": 76,
      "hit": false,
      "t": 177476.37325520776,
      "d": 1226.8285416666768,
      "v": 88
    },
    {
      "midi": 71,
      "hit": false,
      "t": 177765.71960937494,
      "d": 1863.3905208333163,
      "v": 60
    },
    {
      "midi": 76,
      "hit": false,
      "t": 177765.71960937494,
      "d": 1877.8578385416477,
      "v": 59
    },
    {
      "midi": 80,
      "hit": false,
      "t": 177768.6130729166,
      "d": 1814.2016406249895,
      "v": 60
    },
    {
      "midi": 59,
      "hit": false,
      "t": 177788.86731770798,
      "d": 1984.915989583329,
      "v": 82
    },
    {
      "midi": 56,
      "hit": false,
      "t": 177788.86731770798,
      "d": 2002.2767708333267,
      "v": 87
    },
    {
      "midi": 64,
      "hit": false,
      "t": 177791.76078124964,
      "d": 1953.087890625,
      "v": 82
    },
    {
      "midi": 52,
      "hit": false,
      "t": 177791.76078124964,
      "d": 2074.6133593749837,
      "v": 111
    },
    {
      "midi": 78,
      "hit": false,
      "t": 179432.35460937442,
      "d": 503.4626562499907,
      "v": 105
    },
    {
      "midi": 76,
      "hit": false,
      "t": 179976.32575520774,
      "d": 706.0051041666593,
      "v": 89
    },
    {
      "midi": 61,
      "hit": false,
      "t": 179990.7930729163,
      "d": 1918.3663281250047,
      "v": 88
    },
    {
      "midi": 64,
      "hit": false,
      "t": 179990.7930729163,
      "d": 1918.3663281250047,
      "v": 80
    },
    {
      "midi": 56,
      "hit": false,
      "t": 179990.7930729163,
      "d": 1953.087890625,
      "v": 99
    },
    {
      "midi": 73,
      "hit": false,
      "t": 180011.04731770826,
      "d": 1695.569635416672,
      "v": 63
    },
    {
      "midi": 76,
      "hit": false,
      "t": 180011.04731770826,
      "d": 1695.569635416672,
      "v": 59
    },
    {
      "midi": 80,
      "hit": false,
      "t": 180013.94078124993,
      "d": 1710.0369531250035,
      "v": 57
    },
    {
      "midi": 49,
      "hit": false,
      "t": 180028.40809895797,
      "d": 1944.4075000000012,
      "v": 96
    },
    {
      "midi": 76,
      "hit": false,
      "t": 181104.77653645774,
      "d": 277.77249999999185,
      "v": 104
    },
    {
      "midi": 78,
      "hit": false,
      "t": 181475.13986979105,
      "d": 205.43591145833489,
      "v": 123
    },
    {
      "midi": 80,
      "hit": false,
      "t": 181857.07705729106,
      "d": 214.11630208333372,
      "v": 127
    },
    {
      "midi": 81,
      "hit": false,
      "t": 182204.29268229107,
      "d": 312.4940624999872,
      "v": 90
    },
    {
      "midi": 78,
      "hit": false,
      "t": 182210.07960937492,
      "d": 3443.221614583337,
      "v": 64
    },
    {
      "midi": 74,
      "hit": false,
      "t": 182210.07960937492,
      "d": 3460.582395833335,
      "v": 54
    },
    {
      "midi": 66,
      "hit": false,
      "t": 182233.22731770796,
      "d": 1944.4075000000012,
      "v": 86
    },
    {
      "midi": 57,
      "hit": false,
      "t": 182233.22731770796,
      "d": 1973.342135416664,
      "v": 88
    },
    {
      "midi": 62,
      "hit": false,
      "t": 182236.12078124963,
      "d": 1883.6447656250093,
      "v": 83
    },
    {
      "midi": 50,
      "hit": false,
      "t": 182236.12078124963,
      "d": 2016.7440885416581,
      "v": 95
    },
    {
      "midi": 81,
      "hit": false,
      "t": 182244.80117187492,
      "d": 3425.8608333333395,
      "v": 59
    },
    {
      "midi": 80,
      "hit": false,
      "t": 182510.99981770772,
      "d": 156.24703125000815,
      "v": 75
    },
    {
      "midi": 78,
      "hit": false,
      "t": 182678.8207031244,
      "d": 1267.3370312500047,
      "v": 77
    },
    {
      "midi": 81,
      "hit": false,
      "t": 184438.04653645772,
      "d": 445.5933854166651,
      "v": 101
    },
    {
      "midi": 63,
      "hit": false,
      "t": 184455.40731770796,
      "d": 1825.7754947916546,
      "v": 96
    },
    {
      "midi": 59,
      "hit": false,
      "t": 184455.40731770796,
      "d": 1828.668958333321,
      "v": 88
    },
    {
      "midi": 57,
      "hit": false,
      "t": 184458.30078124962,
      "d": 1825.7754947916546,
      "v": 93
    },
    {
      "midi": 66,
      "hit": false,
      "t": 184458.30078124962,
      "d": 1846.0297395833186,
      "v": 94
    },
    {
      "midi": 81,
      "hit": false,
      "t": 184970.44382812438,
      "d": 289.34635416665697,
      "v": 89
    },
    {
      "midi": 83,
      "hit": false,
      "t": 185259.79018229104,
      "d": 167.82088541667326,
      "v": 86
    },
    {
      "midi": 80,
      "hit": false,
      "t": 185531.7757552077,
      "d": 399.29796875000466,
      "v": 105
    },
    {
      "midi": 78,
      "hit": false,
      "t": 185925.28679687437,
      "d": 410.87182291666977,
      "v": 105
    },
    {
      "midi": 76,
      "hit": false,
      "t": 186353.51940104103,
      "d": 1018.4991666666756,
      "v": 89
    },
    {
      "midi": 56,
      "hit": false,
      "t": 186642.86575520795,
      "d": 2065.932968749985,
      "v": 89
    },
    {
      "midi": 59,
      "hit": false,
      "t": 186651.54614583295,
      "d": 2005.170234374993,
      "v": 85
    },
    {
      "midi": 52,
      "hit": false,
      "t": 186651.54614583295,
      "d": 2016.7440885416581,
      "v": 91
    },
    {
      "midi": 64,
      "hit": false,
      "t": 186651.54614583295,
      "d": 2016.7440885416581,
      "v": 80
    },
    {
      "midi": 71,
      "hit": false,
      "t": 186660.22653645827,
      "d": 1712.9304166666698,
      "v": 67
    },
    {
      "midi": 76,
      "hit": false,
      "t": 186660.22653645827,
      "d": 1793.9473958333256,
      "v": 74
    },
    {
      "midi": 80,
      "hit": false,
      "t": 186660.22653645827,
      "d": 1793.9473958333256,
      "v": 68
    },
    {
      "midi": 80,
      "hit": false,
      "t": 188043.30210937437,
      "d": 775.4482291666791,
      "v": 96
    },
    {
      "midi": 56,
      "hit": false,
      "t": 188865.04575520795,
      "d": 1840.242812499986,
      "v": 94
    },
    {
      "midi": 49,
      "hit": false,
      "t": 188865.04575520795,
      "d": 1909.6859374999767,
      "v": 103
    },
    {
      "midi": 61,
      "hit": false,
      "t": 188870.83268229128,
      "d": 1950.1944270833046,
      "v": 84
    },
    {
      "midi": 80,
      "hit": false,
      "t": 188873.7261458327,
      "d": 234.37054687499767,
      "v": 81
    },
    {
      "midi": 64,
      "hit": false,
      "t": 188873.72614583294,
      "d": 1860.49705729165,
      "v": 80
    },
    {
      "midi": 76,
      "hit": false,
      "t": 188876.61960937493,
      "d": 1753.4389062499977,
      "v": 57
    },
    {
      "midi": 80,
      "hit": false,
      "t": 188876.61960937493,
      "d": 1788.160468749993,
      "v": 55
    },
    {
      "midi": 73,
      "hit": false,
      "t": 188879.5130729166,
      "d": 1750.5454427083314,
      "v": 57
    },
    {
      "midi": 76,
      "hit": false,
      "t": 189993.4965364577,
      "d": 306.70713541665464,
      "v": 97
    },
    {
      "midi": 78,
      "hit": false,
      "t": 190352.28601562436,
      "d": 231.4770833333314,
      "v": 109
    },
    {
      "midi": 80,
      "hit": false,
      "t": 190687.92778645767,
      "d": 295.1332812499895,
      "v": 123
    },
    {
      "midi": 81,
      "hit": false,
      "t": 191064.07804687432,
      "d": 329.85484374998487,
      "v": 104
    },
    {
      "midi": 74,
      "hit": false,
      "t": 191087.22575520826,
      "d": 2123.8022395833395,
      "v": 57
    },
    {
      "midi": 78,
      "hit": false,
      "t": 191087.22575520826,
      "d": 2141.163020833337,
      "v": 64
    },
    {
      "midi": 57,
      "hit": false,
      "t": 191104.5865364579,
      "d": 1996.4898437499942,
      "v": 85
    },
    {
      "midi": 62,
      "hit": false,
      "t": 191104.5865364579,
      "d": 2065.932968749985,
      "v": 84
    },
    {
      "midi": 50,
      "hit": false,
      "t": 191107.47999999957,
      "d": 1773.6931510416616,
      "v": 100
    },
    {
      "midi": 66,
      "hit": false,
      "t": 191107.47999999957,
      "d": 2149.843411458307,
      "v": 84
    },
    {
      "midi": 81,
      "hit": false,
      "t": 191121.94731770825,
      "d": 2106.441458333342,
      "v": 60
    },
    {
      "midi": 80,
      "hit": false,
      "t": 191364.99825520764,
      "d": 179.39473958333838,
      "v": 93
    },
    {
      "midi": 78,
      "hit": false,
      "t": 191521.24528645765,
      "d": 1082.1553645833337,
      "v": 92
    },
    {
      "midi": 78,
      "hit": false,
      "t": 193048.99403645765,
      "d": 75.23005208332324,
      "v": 77
    },
    {
      "midi": 50,
      "hit": false,
      "t": 193320.97960937454,
      "d": 1741.8650520833617,
      "v": 82
    },
    {
      "midi": 81,
      "hit": false,
      "t": 193326.76653645764,
      "d": 451.3803124999977,
      "v": 99
    },
    {
      "midi": 57,
      "hit": false,
      "t": 193483.01356770788,
      "d": 1533.5356770833605,
      "v": 95
    },
    {
      "midi": 62,
      "hit": false,
      "t": 193633.47367187456,
      "d": 1429.3709895833454,
      "v": 93
    },
    {
      "midi": 64,
      "hit": false,
      "t": 193778.1468489579,
      "d": 353.0025520833442,
      "v": 98
    },
    {
      "midi": 81,
      "hit": false,
      "t": 193870.73768229096,
      "d": 283.5594270833244,
      "v": 88
    },
    {
      "midi": 69,
      "hit": false,
      "t": 193917.0330989579,
      "d": 1128.4507812499942,
      "v": 103
    },
    {
      "midi": 66,
      "hit": false,
      "t": 194096.42783854125,
      "d": 949.0560416666558,
      "v": 103
    },
    {
      "midi": 83,
      "hit": false,
      "t": 194154.29710937428,
      "d": 222.79669270833256,
      "v": 87
    },
    {
      "midi": 80,
      "hit": false,
      "t": 194420.4957552076,
      "d": 283.5594270833244,
      "v": 96
    },
    {
      "midi": 78,
      "hit": false,
      "t": 194715.6290364576,
      "d": 399.29796875000466,
      "v": 93
    },
    {
      "midi": 76,
      "hit": false,
      "t": 195126.50085937427,
      "d": 300.9202083333221,
      "v": 91
    },
    {
      "midi": 68,
      "hit": false,
      "t": 195520.01190104123,
      "d": 2036.998333333322,
      "v": 78
    },
    {
      "midi": 76,
      "hit": false,
      "t": 195531.58575520758,
      "d": 989.5645312500128,
      "v": 84
    },
    {
      "midi": 76,
      "hit": false,
      "t": 195537.3726822916,
      "d": 2008.0636979166593,
      "v": 55
    },
    {
      "midi": 71,
      "hit": false,
      "t": 195540.26614583327,
      "d": 1999.3833072916605,
      "v": 55
    },
    {
      "midi": 80,
      "hit": false,
      "t": 195540.26614583327,
      "d": 2005.170234374993,
      "v": 53
    },
    {
      "midi": 59,
      "hit": false,
      "t": 195546.05307291623,
      "d": 1958.8748177083326,
      "v": 93
    },
    {
      "midi": 64,
      "hit": false,
      "t": 195546.05307291623,
      "d": 1976.2355989583302,
      "v": 81
    },
    {
      "midi": 52,
      "hit": false,
      "t": 195546.05307291623,
      "d": 2051.4656510416535,
      "v": 91
    },
    {
      "midi": 76,
      "hit": false,
      "t": 196932.02210937426,
      "d": 98.37776041665347,
      "v": 81
    },
    {
      "midi": 78,
      "hit": false,
      "t": 197215.58153645758,
      "d": 520.8234374999884,
      "v": 102
    },
    {
      "midi": 76,
      "hit": false,
      "t": 197759.5526822909,
      "d": 694.4312499999942,
      "v": 85
    },
    {
      "midi": 64,
      "hit": false,
      "t": 197771.1265364579,
      "d": 1886.5382291666465,
      "v": 80
    },
    {
      "midi": 73,
      "hit": false,
      "t": 197771.12653645827,
      "d": 1915.4728645833384,
      "v": 63
    },
    {
      "midi": 76,
      "hit": false,
      "t": 197774.01999999993,
      "d": 1929.9401822916698,
      "v": 59
    },
    {
      "midi": 80,
      "hit": false,
      "t": 197774.01999999993,
      "d": 1929.9401822916698,
      "v": 57
    },
    {
      "midi": 61,
      "hit": false,
      "t": 197800.06117187455,
      "d": 1822.8820312499884,
      "v": 96
    },
    {
      "midi": 68,
      "hit": false,
      "t": 197800.06117187455,
      "d": 1874.9643749999814,
      "v": 80
    },
    {
      "midi": 49,
      "hit": false,
      "t": 197802.95463541622,
      "d": 1912.579401041643,
      "v": 111
    },
    {
      "midi": 76,
      "hit": false,
      "t": 198876.42960937423,
      "d": 295.1332812499895,
      "v": 101
    },
    {
      "midi": 78,
      "hit": false,
      "t": 199246.79294270754,
      "d": 231.4770833333314,
      "v": 113
    },
    {
      "midi": 80,
      "hit": false,
      "t": 199594.00856770755,
      "d": 237.26401041666395,
      "v": 123
    },
    {
      "midi": 81,
      "hit": false,
      "t": 199970.15882812423,
      "d": 289.34635416665697,
      "v": 96
    },
    {
      "midi": 62,
      "hit": false,
      "t": 199987.51960937452,
      "d": 2332.1316145833116,
      "v": 90
    },
    {
      "midi": 81,
      "hit": false,
      "t": 200004.88039062492,
      "d": 2141.163020833337,
      "v": 65
    },
    {
      "midi": 74,
      "hit": false,
      "t": 200004.88039062492,
      "d": 2175.8845833333326,
      "v": 62
    },
    {
      "midi": 78,
      "hit": false,
      "t": 200004.88039062492,
      "d": 2210.606145833328,
      "v": 70
    },
    {
      "midi": 50,
      "hit": false,
      "t": 200010.66731770785,
      "d": 1828.668958333321,
      "v": 95
    },
    {
      "midi": 57,
      "hit": false,
      "t": 200010.66731770785,
      "d": 2274.262343749986,
      "v": 95
    },
    {
      "midi": 66,
      "hit": false,
      "t": 200010.66731770785,
      "d": 2702.4949479166535,
      "v": 86
    },
    {
      "midi": 80,
      "hit": false,
      "t": 200253.71825520755,
      "d": 130.20585937501164,
      "v": 92
    },
    {
      "midi": 78,
      "hit": false,
      "t": 200409.96528645756,
      "d": 1290.4847395833349,
      "v": 85
    },
    {
      "midi": 78,
      "hit": false,
      "t": 202070.81335937424,
      "d": 63.65619791665813,
      "v": 58
    },
    {
      "midi": 81,
      "hit": false,
      "t": 202203.9126822909,
      "d": 237.26401041666395,
      "v": 87
    },
    {
      "midi": 47,
      "hit": false,
      "t": 202209.6996093745,
      "d": 1805.5212499999907,
      "v": 81
    },
    {
      "midi": 54,
      "hit": false,
      "t": 202371.73356770782,
      "d": 1666.6350000000093,
      "v": 107
    },
    {
      "midi": 81,
      "hit": false,
      "t": 202493.25903645754,
      "d": 217.009765625,
      "v": 83
    },
    {
      "midi": 59,
      "hit": false,
      "t": 202522.1936718745,
      "d": 1493.0271875000035,
      "v": 107
    },
    {
      "midi": 61,
      "hit": false,
      "t": 202649.50606770784,
      "d": 729.1528124999895,
      "v": 99
    },
    {
      "midi": 81,
      "hit": false,
      "t": 202765.2446093742,
      "d": 260.4117187499942,
      "v": 79
    },
    {
      "midi": 78,
      "hit": false,
      "t": 202771.03153645826,
      "d": 624.9881250000035,
      "v": 68
    },
    {
      "midi": 83,
      "hit": false,
      "t": 202771.03153645826,
      "d": 659.7096874999988,
      "v": 54
    },
    {
      "midi": 63,
      "hit": false,
      "t": 202794.17924479116,
      "d": 1203.6808333333465,
      "v": 111
    },
    {
      "midi": 66,
      "hit": false,
      "t": 202944.63934895783,
      "d": 1041.6468750000058,
      "v": 117
    },
    {
      "midi": 83,
      "hit": false,
      "t": 203037.23018229086,
      "d": 248.83786458332906,
      "v": 83
    },
    {
      "midi": 80,
      "hit": false,
      "t": 203297.64190104086,
      "d": 312.4940624999872,
      "v": 89
    },
    {
      "midi": 78,
      "hit": false,
      "t": 203639.0705989575,
      "d": 434.01953125,
      "v": 94
    },
    {
      "midi": 76,
      "hit": false,
      "t": 204102.02476562417,
      "d": 1067.6880468750023,
      "v": 84
    },
    {
      "midi": 52,
      "hit": false,
      "t": 204431.8796093745,
      "d": 3330.3765364583232,
      "v": 100
    },
    {
      "midi": 59,
      "hit": false,
      "t": 204431.8796093745,
      "d": 3530.0255208333256,
      "v": 88
    },
    {
      "midi": 64,
      "hit": false,
      "t": 204431.8796093745,
      "d": 3530.0255208333256,
      "v": 85
    },
    {
      "midi": 56,
      "hit": false,
      "t": 204434.77307291617,
      "d": 3527.1320572916593,
      "v": 107
    },
    {
      "midi": 80,
      "hit": false,
      "t": 205172.6062760416,
      "d": 121.5254687499837,
      "v": 53
    },
    {
      "midi": 88,
      "hit": false,
      "t": 205172.6062760416,
      "d": 121.5254687499837,
      "v": 57
    },
    {
      "midi": 83,
      "hit": false,
      "t": 205201.54091145826,
      "d": 92.59083333332092,
      "v": 55
    },
    {
      "midi": 88,
      "hit": false,
      "t": 205571.90424479157,
      "d": 451.3803124999977,
      "v": 55
    },
    {
      "midi": 80,
      "hit": false,
      "t": 205571.90424479157,
      "d": 468.74109374999534,
      "v": 61
    },
    {
      "midi": 83,
      "hit": false,
      "t": 205574.79770833324,
      "d": 480.31494791666046,
      "v": 59
    },
    {
      "midi": 88,
      "hit": false,
      "t": 206112.98192708322,
      "d": 124.41893229167908,
      "v": 62
    },
    {
      "midi": 80,
      "hit": false,
      "t": 206115.8753906249,
      "d": 121.5254687500128,
      "v": 68
    },
    {
      "midi": 83,
      "hit": false,
      "t": 206115.8753906249,
      "d": 121.5254687500128,
      "v": 67
    },
    {
      "midi": 80,
      "hit": false,
      "t": 207354.27778645823,
      "d": 92.59083333332092,
      "v": 70
    },
    {
      "midi": 88,
      "hit": false,
      "t": 207354.27778645823,
      "d": 124.41893229164998,
      "v": 60
    },
    {
      "midi": 83,
      "hit": false,
      "t": 207360.06471354156,
      "d": 121.5254687499837,
      "v": 65
    },
    {
      "midi": 80,
      "hit": false,
      "t": 207782.51039062487,
      "d": 428.23260416666744,
      "v": 62
    },
    {
      "midi": 88,
      "hit": false,
      "t": 207782.51039062487,
      "d": 434.01953125,
      "v": 65
    },
    {
      "midi": 83,
      "hit": false,
      "t": 207782.51039062487,
      "d": 468.74109374999534,
      "v": 67
    },
    {
      "midi": 52,
      "hit": false,
      "t": 207932.97049479117,
      "d": 138.88625000001048,
      "v": 100
    },
    {
      "midi": 52,
      "hit": false,
      "t": 208216.52992187452,
      "d": 104.16468749998603,
      "v": 111
    },
    {
      "midi": 88,
      "hit": false,
      "t": 208314.90768229152,
      "d": 162.0339583333407,
      "v": 59
    },
    {
      "midi": 80,
      "hit": false,
      "t": 208320.69460937486,
      "d": 156.24703125000815,
      "v": 68
    },
    {
      "midi": 83,
      "hit": false,
      "t": 208320.69460937486,
      "d": 159.14049479167443,
      "v": 67
    },
    {
      "midi": 59,
      "hit": false,
      "t": 208335.16192708284,
      "d": 344.32216145831626,
      "v": 88
    },
    {
      "midi": 56,
      "hit": false,
      "t": 208338.0553906245,
      "d": 376.1502604166453,
      "v": 111
    },
    {
      "midi": 64,
      "hit": false,
      "t": 208338.0553906245,
      "d": 480.31494791663135,
      "v": 85
    },
    {
      "midi": 52,
      "hit": false,
      "t": 208627.40174479116,
      "d": 329.85484374995576,
      "v": 116
    },
    {
      "midi": 54,
      "hit": false,
      "t": 208910.96117187446,
      "d": 2239.5407812499907,
      "v": 103
    },
    {
      "midi": 57,
      "hit": false,
      "t": 208910.96117187446,
      "d": 2239.5407812499907,
      "v": 90
    },
    {
      "midi": 62,
      "hit": false,
      "t": 208910.96117187446,
      "d": 2239.5407812499907,
      "v": 83
    },
    {
      "midi": 78,
      "hit": false,
      "t": 209588.03164062486,
      "d": 115.73854166668025,
      "v": 63
    },
    {
      "midi": 86,
      "hit": false,
      "t": 209588.03164062486,
      "d": 121.5254687500128,
      "v": 60
    },
    {
      "midi": 81,
      "hit": false,
      "t": 209590.92510416653,
      "d": 112.84507812501397,
      "v": 72
    },
    {
      "midi": 86,
      "hit": false,
      "t": 209993.1165364582,
      "d": 457.16723958333023,
      "v": 74
    },
    {
      "midi": 78,
      "hit": false,
      "t": 209993.1165364582,
      "d": 471.6345572916616,
      "v": 70
    },
    {
      "midi": 81,
      "hit": false,
      "t": 209993.1165364582,
      "d": 474.5280208333279,
      "v": 90
    },
    {
      "midi": 81,
      "hit": false,
      "t": 210537.08768229152,
      "d": 115.73854166668025,
      "v": 85
    },
    {
      "midi": 78,
      "hit": false,
      "t": 210542.87460937485,
      "d": 109.95161458334769,
      "v": 68
    },
    {
      "midi": 86,
      "hit": false,
      "t": 210542.87460937485,
      "d": 109.95161458334769,
      "v": 77
    },
    {
      "midi": 54,
      "hit": false,
      "t": 211266.24049479113,
      "d": 156.24703125000815,
      "v": 89
    },
    {
      "midi": 57,
      "hit": false,
      "t": 211266.24049479113,
      "d": 170.71434895833954,
      "v": 90
    },
    {
      "midi": 62,
      "hit": false,
      "t": 211269.1339583328,
      "d": 153.35356770834187,
      "v": 84
    },
    {
      "midi": 54,
      "hit": false,
      "t": 211711.8338802078,
      "d": 891.1867708333302,
      "v": 99
    },
    {
      "midi": 57,
      "hit": false,
      "t": 211711.8338802078,
      "d": 905.6540885416616,
      "v": 88
    },
    {
      "midi": 62,
      "hit": false,
      "t": 211711.8338802078,
      "d": 954.8429687499884,
      "v": 83
    },
    {
      "midi": 78,
      "hit": false,
      "t": 211815.9985677082,
      "d": 144.67317708334303,
      "v": 70
    },
    {
      "midi": 86,
      "hit": false,
      "t": 211815.9985677082,
      "d": 144.67317708334303,
      "v": 74
    },
    {
      "midi": 81,
      "hit": false,
      "t": 211818.89203124985,
      "d": 141.77971354167676,
      "v": 81
    },
    {
      "midi": 78,
      "hit": false,
      "t": 212238.44424479152,
      "d": 457.16723958333023,
      "v": 77
    },
    {
      "midi": 86,
      "hit": false,
      "t": 212238.44424479152,
      "d": 457.16723958333023,
      "v": 81
    },
    {
      "midi": 81,
      "hit": false,
      "t": 212238.44424479152,
      "d": 480.31494791666046,
      "v": 108
    },
    {
      "midi": 78,
      "hit": false,
      "t": 212788.20231770817,
      "d": 127.31239583334536,
      "v": 68
    },
    {
      "midi": 81,
      "hit": false,
      "t": 212788.20231770817,
      "d": 127.31239583334536,
      "v": 95
    },
    {
      "midi": 86,
      "hit": false,
      "t": 212791.09578124984,
      "d": 124.41893229167908,
      "v": 77
    },
    {
      "midi": 52,
      "hit": false,
      "t": 213311.91921874945,
      "d": 2071.7198958333756,
      "v": 111
    },
    {
      "midi": 78,
      "hit": false,
      "t": 213320.59960937485,
      "d": 1218.1481510416488,
      "v": 91
    },
    {
      "midi": 83,
      "hit": false,
      "t": 213320.59960937485,
      "d": 1278.9108854166407,
      "v": 81
    },
    {
      "midi": 64,
      "hit": false,
      "t": 213337.96039062444,
      "d": 28.934635416662786,
      "v": 86
    },
    {
      "midi": 66,
      "hit": false,
      "t": 213337.96039062444,
      "d": 28.934635416662786,
      "v": 94
    },
    {
      "midi": 71,
      "hit": false,
      "t": 213337.96039062444,
      "d": 28.934635416662786,
      "v": 88
    },
    {
      "midi": 57,
      "hit": false,
      "t": 213337.96039062444,
      "d": 891.1867708333302,
      "v": 88
    },
    {
      "midi": 59,
      "hit": false,
      "t": 213340.8538541661,
      "d": 1125.557317708328,
      "v": 85
    },
    {
      "midi": 76,
      "hit": false,
      "t": 213355.32117187485,
      "d": 960.6298958333209,
      "v": 77
    },
    {
      "midi": 76,
      "hit": false,
      "t": 214454.83731770818,
      "d": 572.9057812499814,
      "v": 102
    },
    {
      "midi": 57,
      "hit": false,
      "t": 214616.8712760411,
      "d": 170.71434895833954,
      "v": 90
    },
    {
      "midi": 78,
      "hit": false,
      "t": 214628.44513020816,
      "d": 925.9083333333256,
      "v": 73
    },
    {
      "midi": 59,
      "hit": false,
      "t": 214761.54445312446,
      "d": 677.0704687500256,
      "v": 107
    },
    {
      "midi": 83,
      "hit": false,
      "t": 214796.26601562483,
      "d": 758.0874479166523,
      "v": 74
    },
    {
      "midi": 64,
      "hit": false,
      "t": 214929.36533854113,
      "d": 318.28098958334886,
      "v": 81
    },
    {
      "midi": 66,
      "hit": false,
      "t": 215045.1038802078,
      "d": 185.18166666667094,
      "v": 88
    },
    {
      "midi": 71,
      "hit": false,
      "t": 215166.62934895782,
      "d": 46.29541666666046,
      "v": 103
    },
    {
      "midi": 68,
      "hit": false,
      "t": 215571.71424479116,
      "d": 694.4312500000233,
      "v": 90
    },
    {
      "midi": 64,
      "hit": false,
      "t": 215571.71424479116,
      "d": 769.6613020833465,
      "v": 98
    },
    {
      "midi": 52,
      "hit": false,
      "t": 215571.71424479116,
      "d": 1695.569635416672,
      "v": 85
    },
    {
      "midi": 56,
      "hit": false,
      "t": 216115.6853906245,
      "d": 1186.3200520833198,
      "v": 84
    },
    {
      "midi": 59,
      "hit": false,
      "t": 216277.71934895785,
      "d": 989.5645312499837,
      "v": 111
    },
    {
      "midi": 66,
      "hit": false,
      "t": 216390.56442708283,
      "d": 228.58361979166511,
      "v": 89
    },
    {
      "midi": 71,
      "hit": false,
      "t": 216410.8186718745,
      "d": 1391.7559635416546,
      "v": 84
    },
    {
      "midi": 68,
      "hit": false,
      "t": 216543.91799479118,
      "d": 1365.714791666629,
      "v": 107
    },
    {
      "midi": 64,
      "hit": false,
      "t": 217296.2185156245,
      "d": 28.934635416662786,
      "v": 48
    },
    {
      "midi": 49,
      "hit": false,
      "t": 217793.89424479115,
      "d": 1649.2742187500116,
      "v": 84
    },
    {
      "midi": 56,
      "hit": false,
      "t": 217921.20664062447,
      "d": 1568.2572395833558,
      "v": 87
    },
    {
      "midi": 61,
      "hit": false,
      "t": 218077.45367187448,
      "d": 1273.1239583333663,
      "v": 92
    },
    {
      "midi": 64,
      "hit": false,
      "t": 218210.55299479116,
      "d": 1498.814114583336,
      "v": 85
    },
    {
      "midi": 68,
      "hit": false,
      "t": 218326.29153645784,
      "d": 1267.3370312499756,
      "v": 90
    },
    {
      "midi": 73,
      "hit": false,
      "t": 218488.32549479118,
      "d": 1105.3030729166348,
      "v": 111
    },
    {
      "midi": 50,
      "hit": false,
      "t": 219888.76184895783,
      "d": 3761.502604166628,
      "v": 85
    },
    {
      "midi": 74,
      "hit": false,
      "t": 219992.92653645814,
      "d": 1273.123958333308,
      "v": 59
    },
    {
      "midi": 57,
      "hit": false,
      "t": 220027.64809895784,
      "d": 3362.204635416623,
      "v": 107
    },
    {
      "midi": 78,
      "hit": false,
      "t": 220259.12518229146,
      "d": 2494.1655729166523,
      "v": 91
    },
    {
      "midi": 62,
      "hit": false,
      "t": 220288.05981770784,
      "d": 862.2521354166674,
      "v": 98
    },
    {
      "midi": 64,
      "hit": false,
      "t": 220415.37221354118,
      "d": 752.3005208333198,
      "v": 90
    },
    {
      "midi": 81,
      "hit": false,
      "t": 220548.47153645812,
      "d": 2141.163020833337,
      "v": 95
    },
    {
      "midi": 69,
      "hit": false,
      "t": 220710.50549479117,
      "d": 966.4168229166535,
      "v": 103
    },
    {
      "midi": 86,
      "hit": false,
      "t": 220826.2440364581,
      "d": 1955.9813541666663,
      "v": 58
    },
    {
      "midi": 66,
      "hit": false,
      "t": 221104.01653645784,
      "d": 538.184218749986,
      "v": 96
    },
    {
      "midi": 62,
      "hit": false,
      "t": 221647.98768229116,
      "d": 1362.8213281249627,
      "v": 88
    },
    {
      "midi": 88,
      "hit": false,
      "t": 222353.99278645782,
      "d": 115.73854166668025,
      "v": 91
    },
    {
      "midi": 93,
      "hit": false,
      "t": 222353.99278645782,
      "d": 190.9685937500035,
      "v": 90
    },
    {
      "midi": 90,
      "hit": false,
      "t": 222492.87903645783,
      "d": 69.44312499999069,
      "v": 103
    },
    {
      "midi": 81,
      "hit": false,
      "t": 222782.2253906245,
      "d": 104.16468749998603,
      "v": 81
    },
    {
      "midi": 76,
      "hit": false,
      "t": 222782.2253906245,
      "d": 185.18166666664183,
      "v": 93
    },
    {
      "midi": 81,
      "hit": false,
      "t": 222921.11164062447,
      "d": 46.29541666666046,
      "v": 61
    },
    {
      "midi": 78,
      "hit": false,
      "t": 222921.11164062447,
      "d": 72.33658854165697,
      "v": 96
    },
    {
      "midi": 69,
      "hit": false,
      "t": 223169.9495052078,
      "d": 1064.794583333307,
      "v": 84
    },
    {
      "midi": 64,
      "hit": false,
      "t": 223193.09721354113,
      "d": 162.0339583333407,
      "v": 90
    },
    {
      "midi": 66,
      "hit": false,
      "t": 223308.8357552078,
      "d": 940.3756510416279,
      "v": 103
    },
    {
      "midi": 62,
      "hit": false,
      "t": 223598.18210937447,
      "d": 596.0534895833116,
      "v": 88
    },
    {
      "midi": 57,
      "hit": false,
      "t": 224171.08789062445,
      "d": 335.6417708333174,
      "v": 93
    },
    {
      "midi": 76,
      "hit": false,
      "t": 224431.4996093748,
      "d": 1718.7173437500023,
      "v": 57
    },
    {
      "midi": 83,
      "hit": false,
      "t": 224431.4996093748,
      "d": 1718.7173437500023,
      "v": 59
    },
    {
      "midi": 80,
      "hit": false,
      "t": 224431.4996093748,
      "d": 1738.9715885416663,
      "v": 68
    },
    {
      "midi": 64,
      "hit": false,
      "t": 224437.28653645777,
      "d": 665.4966145833023,
      "v": 83
    },
    {
      "midi": 68,
      "hit": false,
      "t": 224437.28653645777,
      "d": 682.8573958333,
      "v": 83
    },
    {
      "midi": 52,
      "hit": false,
      "t": 224466.22117187444,
      "d": 1909.6859374999767,
      "v": 79
    },
    {
      "midi": 56,
      "hit": false,
      "t": 224726.63289062443,
      "d": 1672.4219270833128,
      "v": 90
    },
    {
      "midi": 59,
      "hit": false,
      "t": 225015.9792447911,
      "d": 1359.9278645833256,
      "v": 82
    },
    {
      "midi": 66,
      "hit": false,
      "t": 225282.1778906244,
      "d": 115.73854166668025,
      "v": 88
    },
    {
      "midi": 71,
      "hit": false,
      "t": 225282.1778906244,
      "d": 1504.6010416666686,
      "v": 84
    },
    {
      "midi": 68,
      "hit": false,
      "t": 225409.49028645776,
      "d": 1487.240260416671,
      "v": 86
    },
    {
      "midi": 64,
      "hit": false,
      "t": 225693.04971354108,
      "d": 1203.6808333333465,
      "v": 79
    },
    {
      "midi": 76,
      "hit": false,
      "t": 226543.72799479146,
      "d": 1834.4558854166535,
      "v": 45
    },
    {
      "midi": 80,
      "hit": false,
      "t": 226613.17111979146,
      "d": 1770.7996874999953,
      "v": 58
    },
    {
      "midi": 85,
      "hit": false,
      "t": 226636.3188281248,
      "d": 1782.3735416666605,
      "v": 58
    },
    {
      "midi": 49,
      "hit": false,
      "t": 226954.59981770776,
      "d": 1469.8794791666733,
      "v": 83
    },
    {
      "midi": 56,
      "hit": false,
      "t": 227081.9122135411,
      "d": 1258.6566406250058,
      "v": 107
    },
    {
      "midi": 61,
      "hit": false,
      "t": 227232.37231770778,
      "d": 653.9227604166663,
      "v": 92
    },
    {
      "midi": 63,
      "hit": false,
      "t": 227377.04549479112,
      "d": 121.5254687500128,
      "v": 75
    },
    {
      "midi": 64,
      "hit": false,
      "t": 227527.5055989578,
      "d": 185.18166666667094,
      "v": 74
    },
    {
      "midi": 68,
      "hit": false,
      "t": 227654.81799479114,
      "d": 923.0148697916302,
      "v": 89
    },
    {
      "midi": 64,
      "hit": false,
      "t": 227782.13039062446,
      "d": 46.29541666666046,
      "v": 54
    },
    {
      "midi": 64,
      "hit": false,
      "t": 227926.80356770777,
      "d": 636.5619791666686,
      "v": 81
    },
    {
      "midi": 61,
      "hit": false,
      "t": 228337.67539062444,
      "d": 283.5594270833244,
      "v": 88
    },
    {
      "midi": 56,
      "hit": false,
      "t": 228592.3001822911,
      "d": 141.77971354167676,
      "v": 90
    },
    {
      "midi": 50,
      "hit": false,
      "t": 228748.5472135411,
      "d": 1788.160468749993,
      "v": 82
    },
    {
      "midi": 57,
      "hit": false,
      "t": 228870.07268229112,
      "d": 1710.0369531249744,
      "v": 116
    },
    {
      "midi": 78,
      "hit": false,
      "t": 228893.22039062477,
      "d": 1851.8166666666802,
      "v": 61
    },
    {
      "midi": 86,
      "hit": false,
      "t": 228893.22039062477,
      "d": 1851.8166666666802,
      "v": 64
    },
    {
      "midi": 81,
      "hit": false,
      "t": 228893.22039062477,
      "d": 1886.5382291666756,
      "v": 72
    },
    {
      "midi": 62,
      "hit": false,
      "t": 229165.2059635411,
      "d": 1660.8480729166477,
      "v": 98
    },
    {
      "midi": 66,
      "hit": false,
      "t": 229304.09221354112,
      "d": 1655.061145833315,
      "v": 90
    },
    {
      "midi": 74,
      "hit": false,
      "t": 229587.65164062445,
      "d": 1371.5017187499907,
      "v": 90
    },
    {
      "midi": 85,
      "hit": false,
      "t": 231121.18731770813,
      "d": 1290.4847395833349,
      "v": 56
    },
    {
      "midi": 81,
      "hit": false,
      "t": 231121.18731770813,
      "d": 1307.8455208333326,
      "v": 62
    },
    {
      "midi": 78,
      "hit": false,
      "t": 231121.18731770813,
      "d": 1325.2063020833302,
      "v": 54
    },
    {
      "midi": 54,
      "hit": false,
      "t": 231138.54809895778,
      "d": 1683.995781250007,
      "v": 87
    },
    {
      "midi": 61,
      "hit": false,
      "t": 231271.64742187446,
      "d": 1533.5356770833314,
      "v": 111
    },
    {
      "midi": 66,
      "hit": false,
      "t": 231410.53367187447,
      "d": 179.39473958333838,
      "v": 99
    },
    {
      "midi": 68,
      "hit": false,
      "t": 231555.2068489578,
      "d": 133.09932291664882,
      "v": 92
    },
    {
      "midi": 73,
      "hit": false,
      "t": 231555.2068489578,
      "d": 1342.5670833332988,
      "v": 88
    },
    {
      "midi": 69,
      "hit": false,
      "t": 231717.24080729112,
      "d": 1105.303072916664,
      "v": 95
    },
    {
      "midi": 66,
      "hit": false,
      "t": 231879.27476562446,
      "d": 1047.4338020833093,
      "v": 107
    },
    {
      "midi": 85,
      "hit": false,
      "t": 233320.2196093748,
      "d": 306.70713541665464,
      "v": 66
    },
    {
      "midi": 73,
      "hit": false,
      "t": 233349.1542447911,
      "d": 324.0679166666523,
      "v": 124
    },
    {
      "midi": 81,
      "hit": false,
      "t": 233621.1398177081,
      "d": 321.17445312498603,
      "v": 67
    },
    {
      "midi": 69,
      "hit": false,
      "t": 233626.9267447911,
      "d": 370.36333333331277,
      "v": 116
    },
    {
      "midi": 66,
      "hit": false,
      "t": 233898.91231770776,
      "d": 300.9202083333221,
      "v": 99
    },
    {
      "midi": 78,
      "hit": false,
      "t": 233898.9123177081,
      "d": 225.69015624999884,
      "v": 54
    },
    {
      "midi": 86,
      "hit": false,
      "t": 234170.89789062476,
      "d": 324.0679166666523,
      "v": 65
    },
    {
      "midi": 74,
      "hit": false,
      "t": 234194.04559895775,
      "d": 329.85484374998487,
      "v": 103
    },
    {
      "midi": 73,
      "hit": false,
      "t": 234211.40638020774,
      "d": 31.828098958329065,
      "v": 59
    },
    {
      "midi": 83,
      "hit": false,
      "t": 234448.67039062476,
      "d": 306.70713541665464,
      "v": 56
    },
    {
      "midi": 71,
      "hit": false,
      "t": 234477.60502604107,
      "d": 387.72411458333954,
      "v": 93
    },
    {
      "midi": 79,
      "hit": false,
      "t": 234726.44289062475,
      "d": 295.1332812499895,
      "v": 48
    },
    {
      "midi": 67,
      "hit": false,
      "t": 234738.01674479106,
      "d": 381.9371875000361,
      "v": 95
    },
    {
      "midi": 88,
      "hit": false,
      "t": 234992.64153645808,
      "d": 347.21562499998254,
      "v": 64
    },
    {
      "midi": 76,
      "hit": false,
      "t": 235004.21539062442,
      "d": 335.6417708333465,
      "v": 116
    },
    {
      "midi": 84,
      "hit": false,
      "t": 235279.09442708307,
      "d": 300.9202083333221,
      "v": 52
    },
    {
      "midi": 72,
      "hit": false,
      "t": 235293.5617447911,
      "d": 318.28098958331975,
      "v": 100
    },
    {
      "midi": 81,
      "hit": false,
      "t": 235556.86692708306,
      "d": 321.17445312498603,
      "v": 48
    },
    {
      "midi": 69,
      "hit": false,
      "t": 235565.54731770777,
      "d": 358.78947916664765,
      "v": 111
    },
    {
      "midi": 90,
      "hit": false,
      "t": 235831.74596354138,
      "d": 318.28098958331975,
      "v": 77
    },
    {
      "midi": 78,
      "hit": false,
      "t": 235860.68059895776,
      "d": 318.28098958331975,
      "v": 124
    },
    {
      "midi": 86,
      "hit": false,
      "t": 236121.09231770804,
      "d": 306.70713541665464,
      "v": 48
    },
    {
      "midi": 74,
      "hit": false,
      "t": 236132.6661718744,
      "d": 549.7580729166511,
      "v": 100
    },
    {
      "midi": 83,
      "hit": false,
      "t": 236381.50403645803,
      "d": 318.28098958331975,
      "v": 43
    },
    {
      "midi": 71,
      "hit": false,
      "t": 236427.7994531244,
      "d": 295.1332812499895,
      "v": 107
    },
    {
      "midi": 88,
      "hit": false,
      "t": 236670.8503906247,
      "d": 312.4940624999872,
      "v": 58
    },
    {
      "midi": 79,
      "hit": false,
      "t": 236676.63731770773,
      "d": 312.4940624999872,
      "v": 107
    },
    {
      "midi": 76,
      "hit": false,
      "t": 236931.2621093744,
      "d": 300.9202083333221,
      "v": 93
    },
    {
      "midi": 84,
      "hit": false,
      "t": 236960.19674479135,
      "d": 274.8790364583256,
      "v": 43
    },
    {
      "midi": 81,
      "hit": false,
      "t": 237226.39539062438,
      "d": 300.9202083333221,
      "v": 93
    },
    {
      "midi": 90,
      "hit": false,
      "t": 237232.182317708,
      "d": 318.28098958331975,
      "v": 77
    },
    {
      "midi": 78,
      "hit": false,
      "t": 237481.02018229105,
      "d": 127.31239583331626,
      "v": 83
    },
    {
      "midi": 86,
      "hit": false,
      "t": 237521.52867187466,
      "d": 254.62479166666162,
      "v": 50
    },
    {
      "midi": 80,
      "hit": false,
      "t": 237779.0469270827,
      "d": 1756.332369791664,
      "v": 80
    },
    {
      "midi": 83,
      "hit": false,
      "t": 237781.94039062437,
      "d": 1753.4389062499977,
      "v": 72
    },
    {
      "midi": 76,
      "hit": false,
      "t": 237781.94039062437,
      "d": 1770.7996874999953,
      "v": 77
    },
    {
      "midi": 83,
      "hit": false,
      "t": 237793.51424479132,
      "d": 1741.8650520833326,
      "v": 72
    },
    {
      "midi": 88,
      "hit": false,
      "t": 237793.51424479132,
      "d": 1788.160468749993,
      "v": 56
    },
    {
      "midi": 64,
      "hit": false,
      "t": 237799.30117187416,
      "d": 1600.0853385416558,
      "v": 96
    },
    {
      "midi": 66,
      "hit": false,
      "t": 239355.98455729082,
      "d": 584.4796354166465,
      "v": 102
    },
    {
      "midi": 64,
      "hit": false,
      "t": 239952.03804687414,
      "d": 975.0972135416523,
      "v": 72
    },
    {
      "midi": 64,
      "hit": false,
      "t": 241045.76726562413,
      "d": 448.4868489583314,
      "v": 86
    },
    {
      "midi": 66,
      "hit": false,
      "t": 241450.85216145747,
      "d": 399.29796874997555,
      "v": 100
    },
    {
      "midi": 68,
      "hit": false,
      "t": 241803.8547135408,
      "d": 393.5110416666721,
      "v": 105
    },
    {
      "midi": 69,
      "hit": false,
      "t": 242208.93960937412,
      "d": 277.77249999999185,
      "v": 94
    },
    {
      "midi": 68,
      "hit": false,
      "t": 242440.41669270745,
      "d": 156.24703125000815,
      "v": 92
    },
    {
      "midi": 66,
      "hit": false,
      "t": 242602.4506510408,
      "d": 1805.5212499999907,
      "v": 85
    },
    {
      "midi": 69,
      "hit": false,
      "t": 244419.54575520745,
      "d": 381.937187500007,
      "v": 90
    },
    {
      "midi": 69,
      "hit": false,
      "t": 244836.20450520745,
      "d": 370.36333333334187,
      "v": 86
    },
    {
      "midi": 71,
      "hit": false,
      "t": 245212.35476562413,
      "d": 329.85484374998487,
      "v": 80
    },
    {
      "midi": 68,
      "hit": false,
      "t": 245536.42268229078,
      "d": 526.6103645833209,
      "v": 89
    },
    {
      "midi": 66,
      "hit": false,
      "t": 246074.60690104077,
      "d": 503.4626562499907,
      "v": 73
    },
    {
      "midi": 64,
      "hit": false,
      "t": 246607.00419270742,
      "d": 1290.4847395833349,
      "v": 74
    },
    {
      "midi": 64,
      "hit": false,
      "t": 248013.22747395743,
      "d": 387.72411458333954,
      "v": 81
    },
    {
      "midi": 66,
      "hit": false,
      "t": 248395.16466145744,
      "d": 428.23260416666744,
      "v": 93
    },
    {
      "midi": 64,
      "hit": false,
      "t": 248852.33190104077,
      "d": 1006.9253125000105,
      "v": 71
    },
    {
      "midi": 64,
      "hit": false,
      "t": 249986.56960937413,
      "d": 329.85484375001397,
      "v": 88
    },
    {
      "midi": 66,
      "hit": false,
      "t": 250391.65450520747,
      "d": 254.62479166666162,
      "v": 109
    },
    {
      "midi": 68,
      "hit": false,
      "t": 250750.4439843741,
      "d": 219.90322916666628,
      "v": 117
    },
    {
      "midi": 69,
      "hit": false,
      "t": 251132.38117187412,
      "d": 269.092109374993,
      "v": 104
    },
    {
      "midi": 68,
      "hit": false,
      "t": 251427.5144531241,
      "d": 190.9685937500035,
      "v": 92
    },
    {
      "midi": 66,
      "hit": false,
      "t": 251641.63075520744,
      "d": 1689.7827083333395,
      "v": 81
    },
    {
      "midi": 62,
      "hit": false,
      "t": 253325.62653645768,
      "d": 306.70713541665464,
      "v": 127
    },
    {
      "midi": 50,
      "hit": false,
      "t": 253325.62653645768,
      "d": 324.0679166666523,
      "v": 116
    },
    {
      "midi": 52,
      "hit": false,
      "t": 253759.64606770768,
      "d": 271.9855729166593,
      "v": 127
    },
    {
      "midi": 64,
      "hit": false,
      "t": 253759.64606770768,
      "d": 289.34635416665697,
      "v": 127
    },
    {
      "midi": 66,
      "hit": false,
      "t": 254182.09174479102,
      "d": 269.092109374993,
      "v": 127
    },
    {
      "midi": 54,
      "hit": false,
      "t": 254182.09174479102,
      "d": 286.4528906249907,
      "v": 127
    },
    {
      "midi": 68,
      "hit": false,
      "t": 254581.38971354102,
      "d": 225.69015624999884,
      "v": 124
    },
    {
      "midi": 56,
      "hit": false,
      "t": 254581.38971354102,
      "d": 240.15747395833023,
      "v": 127
    },
    {
      "midi": 57,
      "hit": false,
      "t": 254957.5399739577,
      "d": 300.9202083333221,
      "v": 127
    },
    {
      "midi": 69,
      "hit": false,
      "t": 254957.5399739577,
      "d": 300.9202083333221,
      "v": 127
    },
    {
      "midi": 71,
      "hit": false,
      "t": 255217.9516927077,
      "d": 300.9202083333221,
      "v": 103
    },
    {
      "midi": 59,
      "hit": false,
      "t": 255217.9516927077,
      "d": 1843.1362760416523,
      "v": 116
    },
    {
      "midi": 52,
      "hit": false,
      "t": 255475.46994791602,
      "d": 1588.5114843749907,
      "v": 93
    },
    {
      "midi": 80,
      "hit": false,
      "t": 255495.72419270797,
      "d": 1828.668958333321,
      "v": 58
    },
    {
      "midi": 76,
      "hit": false,
      "t": 255495.72419270797,
      "d": 1843.1362760416523,
      "v": 55
    },
    {
      "midi": 83,
      "hit": false,
      "t": 255498.61765624964,
      "d": 1843.1362760416523,
      "v": 51
    },
    {
      "midi": 80,
      "hit": false,
      "t": 255773.49669270744,
      "d": 1137.131171874993,
      "v": 81
    },
    {
      "midi": 66,
      "hit": false,
      "t": 256114.92539062435,
      "d": 295.1332812499895,
      "v": 99
    },
    {
      "midi": 71,
      "hit": false,
      "t": 256114.92539062435,
      "d": 1686.8892447916442,
      "v": 91
    },
    {
      "midi": 68,
      "hit": false,
      "t": 256381.12403645768,
      "d": 1417.7971354166511,
      "v": 99
    },
    {
      "midi": 64,
      "hit": false,
      "t": 256930.88210937433,
      "d": 870.9325260416663,
      "v": 83
    },
    {
      "midi": 76,
      "hit": false,
      "t": 256936.66903645743,
      "d": 312.4940624999872,
      "v": 87
    },
    {
      "midi": 78,
      "hit": false,
      "t": 257202.86768229076,
      "d": 543.9711458333186,
      "v": 105
    },
    {
      "midi": 49,
      "hit": false,
      "t": 257769.98653645767,
      "d": 1811.3081770833523,
      "v": 87
    },
    {
      "midi": 80,
      "hit": false,
      "t": 257769.98653645796,
      "d": 1857.6035937499837,
      "v": 66
    },
    {
      "midi": 76,
      "hit": false,
      "t": 257772.87999999907,
      "d": 940.375651041657,
      "v": 89
    },
    {
      "midi": 85,
      "hit": false,
      "t": 257772.87999999963,
      "d": 1837.3493489583198,
      "v": 63
    },
    {
      "midi": 76,
      "hit": false,
      "t": 257772.87999999963,
      "d": 1886.5382291666465,
      "v": 55
    },
    {
      "midi": 56,
      "hit": false,
      "t": 257920.44664062434,
      "d": 1782.3735416666896,
      "v": 111
    },
    {
      "midi": 64,
      "hit": false,
      "t": 258076.69367187435,
      "d": 1973.342135416664,
      "v": 93
    },
    {
      "midi": 68,
      "hit": false,
      "t": 258215.57992187436,
      "d": 1759.2258333333302,
      "v": 94
    },
    {
      "midi": 73,
      "hit": false,
      "t": 258493.35242187436,
      "d": 1423.5840625000128,
      "v": 117
    },
    {
      "midi": 76,
      "hit": false,
      "t": 258895.54385416573,
      "d": 338.5352343750128,
      "v": 106
    },
    {
      "midi": 78,
      "hit": false,
      "t": 259286.16143229074,
      "d": 248.83786458332906,
      "v": 113
    },
    {
      "midi": 80,
      "hit": false,
      "t": 259627.5901302074,
      "d": 318.28098958331975,
      "v": 127
    },
    {
      "midi": 50,
      "hit": false,
      "t": 259986.37960937436,
      "d": 3680.485625000001,
      "v": 81
    },
    {
      "midi": 81,
      "hit": false,
      "t": 259992.16653645795,
      "d": 2523.100208333344,
      "v": 55
    },
    {
      "midi": 78,
      "hit": false,
      "t": 259992.16653645795,
      "d": 2543.3544531250373,
      "v": 68
    },
    {
      "midi": 81,
      "hit": false,
      "t": 260003.74039062404,
      "d": 393.5110416666721,
      "v": 91
    },
    {
      "midi": 74,
      "hit": false,
      "t": 260021.10117187462,
      "d": 2491.272109374986,
      "v": 55
    },
    {
      "midi": 57,
      "hit": false,
      "t": 260154.200494791,
      "d": 3512.664739583357,
      "v": 98
    },
    {
      "midi": 62,
      "hit": false,
      "t": 260293.086744791,
      "d": 173.60781250000582,
      "v": 86
    },
    {
      "midi": 80,
      "hit": false,
      "t": 260350.95601562405,
      "d": 214.11630208333372,
      "v": 79
    },
    {
      "midi": 64,
      "hit": false,
      "t": 260431.97299479102,
      "d": 292.23981770832324,
      "v": 103
    },
    {
      "midi": 69,
      "hit": false,
      "t": 260431.97299479102,
      "d": 682.8573958333,
      "v": 95
    },
    {
      "midi": 78,
      "hit": false,
      "t": 260559.28539062405,
      "d": 1261.550104166672,
      "v": 81
    },
    {
      "midi": 66,
      "hit": false,
      "t": 260703.95856770768,
      "d": 341.42869791665,
      "v": 99
    },
    {
      "midi": 62,
      "hit": false,
      "t": 261114.83039062432,
      "d": 1759.2258333333011,
      "v": 86
    },
    {
      "midi": 81,
      "hit": false,
      "t": 262214.34653645736,
      "d": 335.6417708333465,
      "v": 99
    },
    {
      "midi": 88,
      "hit": false,
      "t": 262353.23278645764,
      "d": 153.35356770834187,
      "v": 82
    },
    {
      "midi": 93,
      "hit": false,
      "t": 262353.23278645764,
      "d": 170.71434895833954,
      "v": 80
    },
    {
      "midi": 90,
      "hit": false,
      "t": 262486.3321093743,
      "d": 81.01697916671401,
      "v": 103
    },
    {
      "midi": 81,
      "hit": false,
      "t": 262619.4314322907,
      "d": 376.1502604166744,
      "v": 97
    },
    {
      "midi": 81,
      "hit": false,
      "t": 262758.317682291,
      "d": 205.4359114583931,
      "v": 78
    },
    {
      "midi": 76,
      "hit": false,
      "t": 262781.4653906243,
      "d": 118.63200520834653,
      "v": 90
    },
    {
      "midi": 78,
      "hit": false,
      "t": 262914.564713541,
      "d": 86.80390625004657,
      "v": 103
    },
    {
      "midi": 80,
      "hit": false,
      "t": 262937.71242187434,
      "d": 28.934635416720994,
      "v": 75
    },
    {
      "midi": 83,
      "hit": false,
      "t": 263007.15554687404,
      "d": 315.3875260416535,
      "v": 86
    },
    {
      "midi": 64,
      "hit": false,
      "t": 263186.5502864577,
      "d": 156.24703124997905,
      "v": 88
    },
    {
      "midi": 69,
      "hit": false,
      "t": 263186.5502864577,
      "d": 1278.9108854166698,
      "v": 83
    },
    {
      "midi": 66,
      "hit": false,
      "t": 263319.64960937435,
      "d": 1122.6638541666907,
      "v": 117
    },
    {
      "midi": 80,
      "hit": false,
      "t": 263322.5430729157,
      "d": 355.8960156249814,
      "v": 102
    },
    {
      "midi": 62,
      "hit": false,
      "t": 263620.5698177077,
      "d": 844.8913541666698,
      "v": 121
    },
    {
      "midi": 78,
      "hit": false,
      "t": 263701.586796874,
      "d": 428.23260416666744,
      "v": 102
    },
    {
      "midi": 57,
      "hit": false,
      "t": 264066.16320312436,
      "d": 439.80645833333256,
      "v": 103
    },
    {
      "midi": 76,
      "hit": false,
      "t": 264141.39325520734,
      "d": 1521.9618229166954,
      "v": 94
    },
    {
      "midi": 80,
      "hit": false,
      "t": 264448.10039062466,
      "d": 1516.1748958333628,
      "v": 56
    },
    {
      "midi": 68,
      "hit": false,
      "t": 264453.8873177077,
      "d": 682.8573958333582,
      "v": 80
    },
    {
      "midi": 52,
      "hit": false,
      "t": 264453.8873177077,
      "d": 1759.2258333333302,
      "v": 81
    },
    {
      "midi": 76,
      "hit": false,
      "t": 264456.7807812497,
      "d": 1495.9206510416698,
      "v": 48
    },
    {
      "midi": 83,
      "hit": false,
      "t": 264456.7807812497,
      "d": 1530.6422135416651,
      "v": 48
    },
    {
      "midi": 64,
      "hit": false,
      "t": 264459.67424479104,
      "d": 659.7096875000279,
      "v": 85
    },
    {
      "midi": 59,
      "hit": false,
      "t": 264725.8728906244,
      "d": 1452.5186979166465,
      "v": 100
    },
    {
      "midi": 66,
      "hit": false,
      "t": 265159.8924218744,
      "d": 399.29796875000466,
      "v": 92
    },
    {
      "midi": 71,
      "hit": false,
      "t": 265159.8924218744,
      "d": 1550.8964583333,
      "v": 82
    },
    {
      "midi": 68,
      "hit": false,
      "t": 265570.76424479106,
      "d": 1140.0246354166302,
      "v": 81
    },
    {
      "midi": 64,
      "hit": false,
      "t": 265593.9119531244,
      "d": 1140.0246354166302,
      "v": 83
    },
    {
      "midi": 78,
      "hit": false,
      "t": 266091.5876822907,
      "d": 538.184218749986,
      "v": 109
    },
    {
      "midi": 76,
      "hit": false,
      "t": 266606.624192708,
      "d": 1516.1748958333046,
      "v": 51
    },
    {
      "midi": 80,
      "hit": false,
      "t": 266629.7719010413,
      "d": 1458.305624999979,
      "v": 64
    },
    {
      "midi": 76,
      "hit": false,
      "t": 266641.34575520735,
      "d": 972.203749999986,
      "v": 75
    },
    {
      "midi": 85,
      "hit": false,
      "t": 266658.706536458,
      "d": 1394.649427083321,
      "v": 68
    },
    {
      "midi": 49,
      "hit": false,
      "t": 266681.85424479103,
      "d": 1860.4970572916209,
      "v": 84
    },
    {
      "midi": 56,
      "hit": false,
      "t": 267104.29992187436,
      "d": 1498.814114583307,
      "v": 96
    },
    {
      "midi": 61,
      "hit": false,
      "t": 267254.760026041,
      "d": 1244.1893229166162,
      "v": 96
    },
    {
      "midi": 63,
      "hit": false,
      "t": 267387.85934895766,
      "d": 156.24703124997905,
      "v": 86
    },
    {
      "midi": 64,
      "hit": false,
      "t": 267526.74559895764,
      "d": 1209.467760416679,
      "v": 83
    },
    {
      "midi": 68,
      "hit": false,
      "t": 267665.6318489576,
      "d": 1053.2207291667,
      "v": 86
    },
    {
      "midi": 76,
      "hit": false,
      "t": 267758.22268229065,
      "d": 410.87182291666977,
      "v": 96
    },
    {
      "midi": 78,
      "hit": false,
      "t": 268145.946796874,
      "d": 370.36333333334187,
      "v": 88
    },
    {
      "midi": 80,
      "hit": false,
      "t": 268475.801640624,
      "d": 390.6175781250349,
      "v": 93
    },
    {
      "midi": 61,
      "hit": false,
      "t": 268626.261744791,
      "d": 159.14049479167443,
      "v": 74
    },
    {
      "midi": 50,
      "hit": false,
      "t": 268759.36106770765,
      "d": 1435.1579166667652,
      "v": 81
    },
    {
      "midi": 78,
      "hit": false,
      "t": 268857.73882812465,
      "d": 1767.9062239583582,
      "v": 53
    },
    {
      "midi": 81,
      "hit": false,
      "t": 268863.52575520735,
      "d": 370.36333333334187,
      "v": 84
    },
    {
      "midi": 57,
      "hit": false,
      "t": 268875.09960937436,
      "d": 1377.2886458333815,
      "v": 127
    },
    {
      "midi": 81,
      "hit": false,
      "t": 268880.886536458,
      "d": 1736.078125,
      "v": 55
    },
    {
      "midi": 86,
      "hit": false,
      "t": 268880.886536458,
      "d": 1750.5454427083605,
      "v": 51
    },
    {
      "midi": 62,
      "hit": false,
      "t": 269152.8721093744,
      "d": 324.0679166666814,
      "v": 98
    },
    {
      "midi": 80,
      "hit": false,
      "t": 269187.593671874,
      "d": 196.75552083330695,
      "v": 90
    },
    {
      "midi": 78,
      "hit": false,
      "t": 269378.562265624,
      "d": 1626.1265104166814,
      "v": 80
    },
    {
      "midi": 64,
      "hit": false,
      "t": 269424.85768229107,
      "d": 341.4286979166791,
      "v": 95
    },
    {
      "midi": 69,
      "hit": false,
      "t": 269424.85768229107,
      "d": 1105.3030729166348,
      "v": 95
    },
    {
      "midi": 66,
      "hit": false,
      "t": 269725.7778906244,
      "d": 763.8743749999558,
      "v": 92
    },
    {
      "midi": 62,
      "hit": false,
      "t": 269731.56481770775,
      "d": 711.7920312499627,
      "v": 98
    },
    {
      "midi": 81,
      "hit": false,
      "t": 270981.54106770735,
      "d": 321.17445312498603,
      "v": 97
    },
    {
      "midi": 54,
      "hit": false,
      "t": 271120.4273177077,
      "d": 208.32937499997206,
      "v": 90
    },
    {
      "midi": 61,
      "hit": false,
      "t": 271120.4273177077,
      "d": 237.26401041663485,
      "v": 96
    },
    {
      "midi": 78,
      "hit": false,
      "t": 271120.4273177077,
      "d": 943.269114583265,
      "v": 103
    },
    {
      "midi": 73,
      "hit": false,
      "t": 271270.88742187433,
      "d": 763.8743749999558,
      "v": 96
    },
    {
      "midi": 81,
      "hit": false,
      "t": 271369.2651822907,
      "d": 248.83786458335817,
      "v": 92
    },
    {
      "midi": 69,
      "hit": false,
      "t": 271415.56059895764,
      "d": 648.1358333333046,
      "v": 116
    },
    {
      "midi": 66,
      "hit": false,
      "t": 271554.4468489576,
      "d": 462.9541666666628,
      "v": 117
    },
    {
      "midi": 81,
      "hit": false,
      "t": 271670.18539062404,
      "d": 289.34635416668607,
      "v": 89
    },
    {
      "midi": 83,
      "hit": false,
      "t": 271959.53174479073,
      "d": 254.62479166669073,
      "v": 83
    },
    {
      "midi": 61,
      "hit": false,
      "t": 271959.53174479096,
      "d": 358.78947916661855,
      "v": 86
    },
    {
      "midi": 80,
      "hit": false,
      "t": 272225.7303906241,
      "d": 399.29796875000466,
      "v": 98
    },
    {
      "midi": 78,
      "hit": false,
      "t": 272231.5173177076,
      "d": 815.9567187499488,
      "v": 111
    },
    {
      "midi": 75,
      "hit": false,
      "t": 272364.61664062424,
      "d": 700.2181770832976,
      "v": 90
    },
    {
      "midi": 71,
      "hit": false,
      "t": 272509.28981770755,
      "d": 572.9057812499814,
      "v": 100
    },
    {
      "midi": 78,
      "hit": false,
      "t": 272639.49567708245,
      "d": 379.0437239583116,
      "v": 96
    },
    {
      "midi": 66,
      "hit": false,
      "t": 272648.17606770754,
      "d": 347.21562500001164,
      "v": 90
    },
    {
      "midi": 63,
      "hit": false,
      "t": 272925.94856770756,
      "d": 225.69015624996973,
      "v": 84
    },
    {
      "midi": 76,
      "hit": false,
      "t": 273030.1132552074,
      "d": 1481.4533333333093,
      "v": 91
    },
    {
      "midi": 80,
      "hit": false,
      "t": 273307.88575520803,
      "d": 1782.3735416667187,
      "v": 68
    },
    {
      "midi": 76,
      "hit": false,
      "t": 273310.7792187497,
      "d": 1762.1192968750256,
      "v": 57
    },
    {
      "midi": 83,
      "hit": false,
      "t": 273310.7792187497,
      "d": 1762.1192968750256,
      "v": 55
    },
    {
      "midi": 52,
      "hit": false,
      "t": 273608.80596354086,
      "d": 1510.387968749972,
      "v": 85
    },
    {
      "midi": 59,
      "hit": false,
      "t": 273741.9052864575,
      "d": 1319.4193749999977,
      "v": 95
    },
    {
      "midi": 64,
      "hit": false,
      "t": 273892.36539062415,
      "d": 925.9083333333256,
      "v": 88
    },
    {
      "midi": 66,
      "hit": false,
      "t": 274019.67778645747,
      "d": 173.60781249997672,
      "v": 92
    },
    {
      "midi": 68,
      "hit": false,
      "t": 274152.7771093741,
      "d": 196.75552083330695,
      "v": 86
    },
    {
      "midi": 71,
      "hit": false,
      "t": 274285.87643229077,
      "d": 1247.0827864583698,
      "v": 93
    },
    {
      "midi": 68,
      "hit": false,
      "t": 274575.22278645745,
      "d": 937.4821874999907,
      "v": 88
    },
    {
      "midi": 78,
      "hit": false,
      "t": 274974.5207552074,
      "d": 549.7580729166511,
      "v": 109
    },
    {
      "midi": 64,
      "hit": false,
      "t": 275287.0148177075,
      "d": 306.70713541668374,
      "v": 63
    },
    {
      "midi": 49,
      "hit": false,
      "t": 275483.7703385408,
      "d": 1892.3251562500373,
      "v": 94
    },
    {
      "midi": 76,
      "hit": false,
      "t": 275535.8526822907,
      "d": 908.5475520833279,
      "v": 83
    },
    {
      "midi": 76,
      "hit": false,
      "t": 275547.4265364581,
      "d": 1597.1918750000186,
      "v": 49
    },
    {
      "midi": 80,
      "hit": false,
      "t": 275547.4265364581,
      "d": 1605.8722656250466,
      "v": 62
    },
    {
      "midi": 85,
      "hit": false,
      "t": 275547.4265364581,
      "d": 1643.4872916667373,
      "v": 63
    },
    {
      "midi": 56,
      "hit": false,
      "t": 275616.8696614575,
      "d": 1828.668958333321,
      "v": 94
    },
    {
      "midi": 64,
      "hit": false,
      "t": 275819.4121093741,
      "d": 1701.3565625000047,
      "v": 85
    },
    {
      "midi": 73,
      "hit": false,
      "t": 276120.3323177075,
      "d": 1232.6154687500093,
      "v": 92
    },
    {
      "midi": 68,
      "hit": false,
      "t": 276120.3323177075,
      "d": 1267.3370312500047,
      "v": 89
    },
    {
      "midi": 76,
      "hit": false,
      "t": 276641.15575520735,
      "d": 462.9541666666628,
      "v": 96
    },
    {
      "midi": 78,
      "hit": false,
      "t": 277057.81450520735,
      "d": 312.4940625000163,
      "v": 105
    },
    {
      "midi": 80,
      "hit": false,
      "t": 277410.8170572907,
      "d": 341.4286979166791,
      "v": 109
    },
    {
      "midi": 78,
      "hit": false,
      "t": 277740.67190104147,
      "d": 1967.5552083333605,
      "v": 63
    },
    {
      "midi": 81,
      "hit": false,
      "t": 277740.67190104147,
      "d": 1967.5552083333605,
      "v": 67
    },
    {
      "midi": 86,
      "hit": false,
      "t": 277743.56536458316,
      "d": 1964.6617447916651,
      "v": 58
    },
    {
      "midi": 81,
      "hit": false,
      "t": 277786.9673177074,
      "d": 358.78947916667676,
      "v": 87
    },
    {
      "midi": 50,
      "hit": false,
      "t": 277914.27971354075,
      "d": 277.77249999996275,
      "v": 86
    },
    {
      "midi": 57,
      "hit": false,
      "t": 278030.0182552074,
      "d": 271.9855729166302,
      "v": 95
    },
    {
      "midi": 80,
      "hit": false,
      "t": 278122.6090885407,
      "d": 225.69015624996973,
      "v": 94
    },
    {
      "midi": 64,
      "hit": false,
      "t": 278197.83914062404,
      "d": 208.32937499997206,
      "v": 84
    },
    {
      "midi": 78,
      "hit": false,
      "t": 278342.51231770735,
      "d": 1249.976250000007,
      "v": 79
    },
    {
      "midi": 66,
      "hit": false,
      "t": 278348.2992447907,
      "d": 1591.4049479166279,
      "v": 99
    },
    {
      "midi": 74,
      "hit": false,
      "t": 278498.75934895733,
      "d": 1440.9448437499814,
      "v": 91
    },
    {
      "midi": 81,
      "hit": false,
      "t": 279968.63882812404,
      "d": 248.83786458335817,
      "v": 86
    },
    {
      "midi": 81,
      "hit": false,
      "t": 280269.5590364574,
      "d": 202.5424479166395,
      "v": 86
    },
    {
      "midi": 81,
      "hit": false,
      "t": 280547.33153645735,
      "d": 277.77250000002095,
      "v": 85
    },
    {
      "midi": 50,
      "hit": false,
      "t": 280819.317109374,
      "d": 1122.6638541666325,
      "v": 78
    },
    {
      "midi": 83,
      "hit": false,
      "t": 280836.67789062404,
      "d": 237.26401041669305,
      "v": 84
    },
    {
      "midi": 57,
      "hit": false,
      "t": 280981.3510677073,
      "d": 1047.4338020833093,
      "v": 95
    },
    {
      "midi": 80,
      "hit": false,
      "t": 281097.08960937406,
      "d": 347.21562500001164,
      "v": 93
    },
    {
      "midi": 64,
      "hit": false,
      "t": 281126.0242447906,
      "d": 170.71434895833954,
      "v": 86
    },
    {
      "midi": 66,
      "hit": false,
      "t": 281259.12356770725,
      "d": 960.6298958333209,
      "v": 103
    },
    {
      "midi": 78,
      "hit": false,
      "t": 281484.8137239574,
      "d": 434.01953125,
      "v": 98
    },
    {
      "midi": 74,
      "hit": false,
      "t": 281525.3222135406,
      "d": 711.7920312499627,
      "v": 95
    },
    {
      "midi": 80,
      "hit": false,
      "t": 282213.9665364582,
      "d": 1701.3565625000047,
      "v": 68
    },
    {
      "midi": 76,
      "hit": false,
      "t": 282213.9665364582,
      "d": 1718.7173437500023,
      "v": 51
    },
    {
      "midi": 83,
      "hit": false,
      "t": 282213.9665364582,
      "d": 1718.7173437500023,
      "v": 54
    },
    {
      "midi": 76,
      "hit": false,
      "t": 282228.4338541657,
      "d": 298.0267447916558,
      "v": 99
    },
    {
      "midi": 52,
      "hit": false,
      "t": 282474.37825520727,
      "d": 1487.2402604167,
      "v": 79
    },
    {
      "midi": 59,
      "hit": false,
      "t": 282639.3056770823,
      "d": 1287.5912760416977,
      "v": 103
    },
    {
      "midi": 66,
      "hit": false,
      "t": 282769.5115364573,
      "d": 283.5594270833535,
      "v": 94
    },
    {
      "midi": 71,
      "hit": false,
      "t": 282769.5115364573,
      "d": 1718.7173437500023,
      "v": 90
    },
    {
      "midi": 68,
      "hit": false,
      "t": 283070.43174479064,
      "d": 1417.7971354166511,
      "v": 96
    },
    {
      "midi": 64,
      "hit": false,
      "t": 283348.20424479066,
      "d": 1186.3200520832906,
      "v": 93
    },
    {
      "midi": 78,
      "hit": false,
      "t": 283869.0276822907,
      "d": 515.0365104166558,
      "v": 102
    },
    {
      "midi": 76,
      "hit": false,
      "t": 284412.998828124,
      "d": 917.2279427083558,
      "v": 75
    },
    {
      "midi": 80,
      "hit": false,
      "t": 284418.78575520817,
      "d": 1539.3226041666348,
      "v": 62
    },
    {
      "midi": 85,
      "hit": false,
      "t": 284418.78575520817,
      "d": 1574.0441666666302,
      "v": 63
    },
    {
      "midi": 49,
      "hit": false,
      "t": 284447.72039062396,
      "d": 1788.1604687498766,
      "v": 88
    },
    {
      "midi": 76,
      "hit": false,
      "t": 284447.72039062483,
      "d": 1493.0271874999744,
      "v": 55
    },
    {
      "midi": 56,
      "hit": false,
      "t": 284731.27981770725,
      "d": 1579.8310937499045,
      "v": 88
    },
    {
      "midi": 61,
      "hit": false,
      "t": 284887.52684895723,
      "d": 1307.8455208332743,
      "v": 103
    },
    {
      "midi": 64,
      "hit": false,
      "t": 285037.9869531239,
      "d": 1707.143489583279,
      "v": 85
    },
    {
      "midi": 68,
      "hit": false,
      "t": 285147.9385677072,
      "d": 1597.1918749999604,
      "v": 84
    },
    {
      "midi": 73,
      "hit": false,
      "t": 285281.03789062385,
      "d": 1481.4533333333093,
      "v": 117
    },
    {
      "midi": 76,
      "hit": false,
      "t": 285524.08882812405,
      "d": 254.62479166669073,
      "v": 113
    },
    {
      "midi": 78,
      "hit": false,
      "t": 285952.3214322907,
      "d": 167.82088541664416,
      "v": 127
    },
    {
      "midi": 80,
      "hit": false,
      "t": 286340.04554687405,
      "d": 156.24703124997905,
      "v": 123
    },
    {
      "midi": 86,
      "hit": false,
      "t": 286646.7526822915,
      "d": 1851.8166666667094,
      "v": 57
    },
    {
      "midi": 78,
      "hit": false,
      "t": 286646.7526822915,
      "d": 1857.603593750042,
      "v": 61
    },
    {
      "midi": 81,
      "hit": false,
      "t": 286649.6461458332,
      "d": 1866.2839843750116,
      "v": 62
    },
    {
      "midi": 81,
      "hit": false,
      "t": 286669.900390624,
      "d": 271.9855729166884,
      "v": 90
    },
    {
      "midi": 50,
      "hit": false,
      "t": 286681.4742447905,
      "d": 1973.3421354165184,
      "v": 84
    },
    {
      "midi": 80,
      "hit": false,
      "t": 286936.09903645737,
      "d": 133.09932291664882,
      "v": 90
    },
    {
      "midi": 57,
      "hit": false,
      "t": 286953.45981770713,
      "d": 1683.9957812498906,
      "v": 78
    },
    {
      "midi": 78,
      "hit": false,
      "t": 287083.6656770824,
      "d": 1623.233046874986,
      "v": 79
    },
    {
      "midi": 62,
      "hit": false,
      "t": 287127.0676302071,
      "d": 1348.3540104166023,
      "v": 81
    },
    {
      "midi": 66,
      "hit": false,
      "t": 287300.6754427071,
      "d": 185.18166666664183,
      "v": 81
    },
    {
      "midi": 69,
      "hit": false,
      "t": 287433.77476562373,
      "d": 425.33914062497206,
      "v": 91
    },
    {
      "midi": 74,
      "hit": false,
      "t": 287595.80872395705,
      "d": 341.4286979166791,
      "v": 91
    },
    {
      "midi": 62,
      "hit": false,
      "t": 288892.0803906237,
      "d": 347.21562500001164,
      "v": 91
    },
    {
      "midi": 50,
      "hit": false,
      "t": 288915.22809895704,
      "d": 306.70713541668374,
      "v": 85
    },
    {
      "midi": 64,
      "hit": false,
      "t": 289320.3129947904,
      "d": 237.26401041669305,
      "v": 100
    },
    {
      "midi": 52,
      "hit": false,
      "t": 289320.3129947904,
      "d": 263.30518229171867,
      "v": 86
    },
    {
      "midi": 66,
      "hit": false,
      "t": 289696.4632552071,
      "d": 271.9855729166884,
      "v": 107
    },
    {
      "midi": 54,
      "hit": false,
      "t": 289696.4632552071,
      "d": 324.0679166666814,
      "v": 117
    },
    {
      "midi": 68,
      "hit": false,
      "t": 290072.6135156238,
      "d": 300.9202083333512,
      "v": 99
    },
    {
      "midi": 56,
      "hit": false,
      "t": 290072.6135156238,
      "d": 326.9613802083768,
      "v": 117
    },
    {
      "midi": 57,
      "hit": false,
      "t": 290489.27226562385,
      "d": 295.1332812500186,
      "v": 103
    },
    {
      "midi": 69,
      "hit": false,
      "t": 290489.27226562385,
      "d": 295.1332812500186,
      "v": 103
    },
    {
      "midi": 59,
      "hit": false,
      "t": 290743.89705729054,
      "d": 1556.6833854166325,
      "v": 90
    },
    {
      "midi": 71,
      "hit": false,
      "t": 290749.68398437387,
      "d": 248.83786458329996,
      "v": 90
    },
    {
      "midi": 64,
      "hit": false,
      "t": 291027.45648437383,
      "d": 3402.7131250000093,
      "v": 91
    },
    {
      "midi": 52,
      "hit": false,
      "t": 291027.45648437383,
      "d": 3929.3234895833302,
      "v": 85
    },
    {
      "midi": 64,
      "hit": false,
      "t": 291033.24341145734,
      "d": 1770.7996874999953,
      "v": 87
    },
    {
      "midi": 71,
      "hit": false,
      "t": 291039.03033854155,
      "d": 2008.0636979166884,
      "v": 57
    },
    {
      "midi": 76,
      "hit": false,
      "t": 291039.03033854155,
      "d": 2054.359114583349,
      "v": 53
    },
    {
      "midi": 80,
      "hit": false,
      "t": 291041.92380208324,
      "d": 2051.4656510416535,
      "v": 53
    },
    {
      "midi": 66,
      "hit": false,
      "t": 292757.7476822907,
      "d": 590.266562499979,
      "v": 100
    },
    {
      "midi": 40,
      "hit": false,
      "t": 293284.3580468738,
      "d": 1996.4898437500233,
      "v": 81
    },
    {
      "midi": 64,
      "hit": false,
      "t": 293359.5880989573,
      "d": 966.4168229166535,
      "v": 69
    },
    {
      "midi": 61,
      "hit": false,
      "t": 293405.8835156249,
      "d": 1076.3684375000303,
      "v": 57
    },
    {
      "midi": 80,
      "hit": false,
      "t": 293405.8835156249,
      "d": 1955.9813541666954,
      "v": 49
    },
    {
      "midi": 76,
      "hit": false,
      "t": 293408.7769791666,
      "d": 1970.4486718749977,
      "v": 50
    },
    {
      "midi": 73,
      "hit": false,
      "t": 293446.3920052083,
      "d": 1863.3905208333163,
      "v": 54
    },
    {
      "midi": 64,
      "hit": false,
      "t": 294441.7434635406,
      "d": 474.5280208333279,
      "v": 75
    },
    {
      "midi": 66,
      "hit": false,
      "t": 294858.4022135406,
      "d": 399.29796875000466,
      "v": 109
    },
    {
      "midi": 68,
      "hit": false,
      "t": 295217.1916927073,
      "d": 399.29796875000466,
      "v": 105
    },
    {
      "midi": 38,
      "hit": false,
      "t": 295541.25960937387,
      "d": 2621.4779687499977,
      "v": 84
    },
    {
      "midi": 69,
      "hit": false,
      "t": 295610.702734374,
      "d": 364.5764062500093,
      "v": 90
    },
    {
      "midi": 74,
      "hit": false,
      "t": 295633.8504427083,
      "d": 1579.831093750021,
      "v": 54
    },
    {
      "midi": 78,
      "hit": false,
      "t": 295633.8504427083,
      "d": 1597.1918750000186,
      "v": 62
    },
    {
      "midi": 81,
      "hit": false,
      "t": 295639.6373697916,
      "d": 1591.404947916686,
      "v": 56
    },
    {
      "midi": 68,
      "hit": false,
      "t": 295946.3445052073,
      "d": 260.4117187500233,
      "v": 81
    },
    {
      "midi": 66,
      "hit": false,
      "t": 296200.969296874,
      "d": 3767.2895312500186,
      "v": 85
    },
    {
      "midi": 62,
      "hit": false,
      "t": 296953.2698177083,
      "d": 2196.1388281250256,
      "v": 51
    },
    {
      "midi": 69,
      "hit": false,
      "t": 297225.255390625,
      "d": 1869.1774479166488,
      "v": 77
    },
    {
      "midi": 76,
      "hit": false,
      "t": 297514.60174479167,
      "d": 335.6417708333465,
      "v": 60
    },
    {
      "midi": 78,
      "hit": false,
      "t": 297780.800390625,
      "d": 1747.651979166607,
      "v": 81
    },
    {
      "midi": 86,
      "hit": false,
      "t": 298064.3598177083,
      "d": 1412.0102083333186,
      "v": 81
    },
    {
      "midi": 64,
      "hit": false,
      "t": 299823.58565104165,
      "d": 4137.6528645833605,
      "v": 85
    },
    {
      "midi": 68,
      "hit": false,
      "t": 299962.4719010407,
      "d": 2384.2139583333046,
      "v": 79
    },
    {
      "midi": 76,
      "hit": false,
      "t": 299991.4065364583,
      "d": 4013.2339322917396,
      "v": 52
    },
    {
      "midi": 80,
      "hit": false,
      "t": 299991.4065364583,
      "d": 4088.463984375063,
      "v": 51
    },
    {
      "midi": 71,
      "hit": false,
      "t": 299994.3,
      "d": 3955.364661458356,
      "v": 53
    },
    {
      "midi": 52,
      "hit": false,
      "t": 299994.3,
      "d": 4137.6528645833605,
      "v": 102
    },
    {
      "midi": 40,
      "hit": false,
      "t": 300002.98039062385,
      "d": 3194.383749999979,
      "v": 91
    }
  ]
}