{
  "jsonPath": "Classical/Classical Era/Jan Ladislav Dussek/dussek-op46-4-1.json",
  "path": "Classical\\Classical Era\\Jan Ladislav Dussek\\Dussek Op46 4-1.mid",
  "name": "Dussek Op46 4-1",
  "difficulty": "Advanced",
  "bpm": 120,
  "notes": [
    {
      "midi": 72,
      "hit": false,
      "t": 0,
      "d": 250,
      "v": 127
    },
    {
      "midi": 76,
      "hit": false,
      "t": 250,
      "d": 750,
      "v": 127
    },
    {
      "midi": 60,
      "hit": false,
      "t": 250,
      "d": 250,
      "v": 127
    },
    {
      "midi": 64,
      "hit": false,
      "t": 500,
      "d": 250,
      "v": 127
    },
    {
      "midi": 67,
      "hit": false,
      "t": 750,
      "d": 250,
      "v": 127
    },
    {
      "midi": 77,
      "hit": false,
      "t": 1000,
      "d": 250,
      "v": 127
    },
    {
      "midi": 79,
      "hit": false,
      "t": 1000,
      "d": 250,
      "v": 127
    },
    {
      "midi": 59,
      "hit": false,
      "t": 1000,
      "d": 250,
      "v": 127
    },
    {
      "midi": 76,
      "hit": false,
      "t": 1250,
      "d": 250,
      "v": 127
    },
    {
      "midi": 62,
      "hit": false,
      "t": 1250,
      "d": 250,
      "v": 127
    },
    {
      "midi": 77,
      "hit": false,
      "t": 1500,
      "d": 250,
      "v": 127
    },
    {
      "midi": 67,
      "hit": false,
      "t": 1500,
      "d": 250,
      "v": 127
    },
    {
      "midi": 79,
      "hit": false,
      "t": 1750,
      "d": 500,
      "v": 127
    },
    {
      "midi": 60,
      "hit": false,
      "t": 1750,
      "d": 250,
      "v": 127
    },
    {
      "midi": 64,
      "hit": false,
      "t": 2000,
      "d": 250,
      "v": 127
    },
    {
      "midi": 76,
      "hit": false,
      "t": 2250,
      "d": 250,
      "v": 127
    },
    {
      "midi": 67,
      "hit": false,
      "t": 2250,
      "d": 250,
      "v": 127
    },
    {
      "midi": 72,
      "hit": false,
      "t": 2500,
      "d": 500,
      "v": 127
    },
    {
      "midi": 60,
      "hit": false,
      "t": 2500,
      "d": 250,
      "v": 127
    },
    {
      "midi": 64,
      "hit": false,
      "t": 2750,
      "d": 250,
      "v": 127
    },
    {
      "midi": 76,
      "hit": false,
      "t": 3000,
      "d": 250,
      "v": 127
    },
    {
      "midi": 67,
      "hit": false,
      "t": 3000,
      "d": 250,
      "v": 127
    },
    {
      "midi": 74,
      "hit": false,
      "t": 3250,
      "d": 250,
      "v": 127
    },
    {
      "midi": 65,
      "hit": false,
      "t": 3250,
      "d": 750,
      "v": 127
    },
    {
      "midi": 69,
      "hit": false,
      "t": 3250,
      "d": 750,
      "v": 127
    },
    {
      "midi": 77,
      "hit": false,
      "t": 3500,
      "d": 250,
      "v": 127
    },
    {
      "midi": 76,
      "hit": false,
      "t": 3750,
      "d": 250,
      "v": 127
    },
    {
      "midi": 74,
      "hit": false,
      "t": 4000,
      "d": 250,
      "v": 127
    },
    {
      "midi": 66,
      "hit": false,
      "t": 4000,
      "d": 500,
      "v": 127
    },
    {
      "midi": 69,
      "hit": false,
      "t": 4000,
      "d": 500,
      "v": 127
    },
    {
      "midi": 76,
      "hit": false,
      "t": 4250,
      "d": 250,
      "v": 127
    },
    {
      "midi": 72,
      "hit": false,
      "t": 4500,
      "d": 250,
      "v": 127
    },
    {
      "midi": 72,
      "hit": false,
      "t": 4750,
      "d": 750,
      "v": 127
    },
    {
      "midi": 76,
      "hit": false,
      "t": 4750,
      "d": 750,
      "v": 127
    },
    {
      "midi": 67,
      "hit": false,
      "t": 4750,
      "d": 250,
      "v": 127
    },
    {
      "midi": 67,
      "hit": false,
      "t": 5000,
      "d": 125,
      "v": 127
    },
    {
      "midi": 66,
      "hit": false,
      "t": 5125,
      "d": 125,
      "v": 127
    },
    {
      "midi": 67,
      "hit": false,
      "t": 5250,
      "d": 125,
      "v": 127
    },
    {
      "midi": 66,
      "hit": false,
      "t": 5375,
      "d": 125,
      "v": 127
    },
    {
      "midi": 71,
      "hit": false,
      "t": 5500,
      "d": 500,
      "v": 127
    },
    {
      "midi": 74,
      "hit": false,
      "t": 5500,
      "d": 500,
      "v": 127
    },
    {
      "midi": 67,
      "hit": false,
      "t": 5500,
      "d": 500,
      "v": 127
    },
    {
      "midi": 67,
      "hit": false,
      "t": 6000,
      "d": 250,
      "v": 127
    },
    {
      "midi": 72,
      "hit": false,
      "t": 6250,
      "d": 750,
      "v": 127
    },
    {
      "midi": 76,
      "hit": false,
      "t": 6250,
      "d": 750,
      "v": 127
    },
    {
      "midi": 48,
      "hit": false,
      "t": 6250,
      "d": 250,
      "v": 127
    },
    {
      "midi": 52,
      "hit": false,
      "t": 6500,
      "d": 250,
      "v": 127
    },
    {
      "midi": 55,
      "hit": false,
      "t": 6750,
      "d": 250,
      "v": 127
    },
    {
      "midi": 74,
      "hit": false,
      "t": 7000,
      "d": 250,
      "v": 127
    },
    {
      "midi": 77,
      "hit": false,
      "t": 7000,
      "d": 250,
      "v": 127
    },
    {
      "midi": 47,
      "hit": false,
      "t": 7000,
      "d": 250,
      "v": 127
    },
    {
      "midi": 76,
      "hit": false,
      "t": 7250,
      "d": 250,
      "v": 127
    },
    {
      "midi": 50,
      "hit": false,
      "t": 7250,
      "d": 250,
      "v": 127
    },
    {
      "midi": 77,
      "hit": false,
      "t": 7500,
      "d": 250,
      "v": 127
    },
    {
      "midi": 55,
      "hit": false,
      "t": 7500,
      "d": 250,
      "v": 127
    },
    {
      "midi": 79,
      "hit": false,
      "t": 7750,
      "d": 250,
      "v": 127
    },
    {
      "midi": 48,
      "hit": false,
      "t": 7750,
      "d": 250,
      "v": 127
    },
    {
      "midi": 76,
      "hit": false,
      "t": 8000,
      "d": 250,
      "v": 127
    },
    {
      "midi": 52,
      "hit": false,
      "t": 8000,
      "d": 250,
      "v": 127
    },
    {
      "midi": 72,
      "hit": false,
      "t": 8250,
      "d": 250,
      "v": 127
    },
    {
      "midi": 55,
      "hit": false,
      "t": 8250,
      "d": 250,
      "v": 127
    },
    {
      "midi": 72,
      "hit": false,
      "t": 8500,
      "d": 500,
      "v": 127
    },
    {
      "midi": 84,
      "hit": false,
      "t": 8500,
      "d": 500,
      "v": 127
    },
    {
      "midi": 52,
      "hit": false,
      "t": 8500,
      "d": 250,
      "v": 127
    },
    {
      "midi": 55,
      "hit": false,
      "t": 8750,
      "d": 250,
      "v": 127
    },
    {
      "midi": 82,
      "hit": false,
      "t": 9000,
      "d": 250,
      "v": 127
    },
    {
      "midi": 60,
      "hit": false,
      "t": 9000,
      "d": 250,
      "v": 127
    },
    {
      "midi": 81,
      "hit": false,
      "t": 9250,
      "d": 250,
      "v": 127
    },
    {
      "midi": 53,
      "hit": false,
      "t": 9250,
      "d": 250,
      "v": 127
    },
    {
      "midi": 77,
      "hit": false,
      "t": 9500,
      "d": 250,
      "v": 127
    },
    {
      "midi": 57,
      "hit": false,
      "t": 9500,
      "d": 250,
      "v": 127
    },
    {
      "midi": 76,
      "hit": false,
      "t": 9750,
      "d": 250,
      "v": 127
    },
    {
      "midi": 62,
      "hit": false,
      "t": 9750,
      "d": 250,
      "v": 127
    },
    {
      "midi": 74,
      "hit": false,
      "t": 10000,
      "d": 250,
      "v": 127
    },
    {
      "midi": 55,
      "hit": false,
      "t": 10000,
      "d": 250,
      "v": 127
    },
    {
      "midi": 72,
      "hit": false,
      "t": 10250,
      "d": 250,
      "v": 127
    },
    {
      "midi": 62,
      "hit": false,
      "t": 10250,
      "d": 250,
      "v": 127
    },
    {
      "midi": 71,
      "hit": false,
      "t": 10500,
      "d": 250,
      "v": 127
    },
    {
      "midi": 65,
      "hit": false,
      "t": 10500,
      "d": 250,
      "v": 127
    },
    {
      "midi": 72,
      "hit": false,
      "t": 10750,
      "d": 250,
      "v": 127
    },
    {
      "midi": 60,
      "hit": false,
      "t": 10750,
      "d": 250,
      "v": 127
    },
    {
      "midi": 64,
      "hit": false,
      "t": 10750,
      "d": 250,
      "v": 127
    },
    {
      "midi": 72,
      "hit": false,
      "t": 11000,
      "d": 250,
      "v": 127
    },
    {
      "midi": 60,
      "hit": false,
      "t": 11000,
      "d": 250,
      "v": 127
    },
    {
      "midi": 64,
      "hit": false,
      "t": 11000,
      "d": 250,
      "v": 127
    },
    {
      "midi": 72,
      "hit": false,
      "t": 11250,
      "d": 250,
      "v": 127
    },
    {
      "midi": 60,
      "hit": false,
      "t": 11250,
      "d": 250,
      "v": 127
    },
    {
      "midi": 64,
      "hit": false,
      "t": 11250,
      "d": 250,
      "v": 127
    },
    {
      "midi": 72,
      "hit": false,
      "t": 11500,
      "d": 500,
      "v": 127
    },
    {
      "midi": 60,
      "hit": false,
      "t": 11500,
      "d": 500,
      "v": 127
    },
    {
      "midi": 64,
      "hit": false,
      "t": 11500,
      "d": 500,
      "v": 127
    },
    {
      "midi": 67,
      "hit": false,
      "t": 12000,
      "d": 250,
      "v": 127
    },
    {
      "midi": 76,
      "hit": false,
      "t": 12250,
      "d": 750,
      "v": 127
    },
    {
      "midi": 79,
      "hit": false,
      "t": 12250,
      "d": 750,
      "v": 127
    },
    {
      "midi": 43,
      "hit": false,
      "t": 12250,
      "d": 250,
      "v": 127
    },
    {
      "midi": 55,
      "hit": false,
      "t": 12500,
      "d": 250,
      "v": 127
    },
    {
      "midi": 55,
      "hit": false,
      "t": 12750,
      "d": 250,
      "v": 127
    },
    {
      "midi": 76,
      "hit": false,
      "t": 13000,
      "d": 250,
      "v": 127
    },
    {
      "midi": 79,
      "hit": false,
      "t": 13000,
      "d": 250,
      "v": 127
    },
    {
      "midi": 55,
      "hit": false,
      "t": 13000,
      "d": 250,
      "v": 127
    },
    {
      "midi": 74,
      "hit": false,
      "t": 13250,
      "d": 250,
      "v": 127
    },
    {
      "midi": 78,
      "hit": false,
      "t": 13250,
      "d": 250,
      "v": 127
    },
    {
      "midi": 55,
      "hit": false,
      "t": 13250,
      "d": 250,
      "v": 127
    },
    {
      "midi": 72,
      "hit": false,
      "t": 13500,
      "d": 250,
      "v": 127
    },
    {
      "midi": 76,
      "hit": false,
      "t": 13500,
      "d": 250,
      "v": 127
    },
    {
      "midi": 55,
      "hit": false,
      "t": 13500,
      "d": 250,
      "v": 127
    },
    {
      "midi": 72,
      "hit": false,
      "t": 13750,
      "d": 250,
      "v": 127
    },
    {
      "midi": 76,
      "hit": false,
      "t": 13750,
      "d": 250,
      "v": 127
    },
    {
      "midi": 43,
      "hit": false,
      "t": 13750,
      "d": 250,
      "v": 127
    },
    {
      "midi": 71,
      "hit": false,
      "t": 14000,
      "d": 250,
      "v": 127
    },
    {
      "midi": 74,
      "hit": false,
      "t": 14000,
      "d": 250,
      "v": 127
    },
    {
      "midi": 55,
      "hit": false,
      "t": 14000,
      "d": 250,
      "v": 127
    },
    {
      "midi": 71,
      "hit": false,
      "t": 14250,
      "d": 250,
      "v": 127
    },
    {
      "midi": 74,
      "hit": false,
      "t": 14250,
      "d": 250,
      "v": 127
    },
    {
      "midi": 55,
      "hit": false,
      "t": 14250,
      "d": 250,
      "v": 127
    },
    {
      "midi": 71,
      "hit": false,
      "t": 14500,
      "d": 500,
      "v": 127
    },
    {
      "midi": 74,
      "hit": false,
      "t": 14500,
      "d": 500,
      "v": 127
    },
    {
      "midi": 55,
      "hit": false,
      "t": 14500,
      "d": 250,
      "v": 127
    },
    {
      "midi": 55,
      "hit": false,
      "t": 14750,
      "d": 250,
      "v": 127
    },
    {
      "midi": 75,
      "hit": false,
      "t": 15000,
      "d": 250,
      "v": 127
    },
    {
      "midi": 55,
      "hit": false,
      "t": 15000,
      "d": 250,
      "v": 127
    },
    {
      "midi": 72,
      "hit": false,
      "t": 15250,
      "d": 750,
      "v": 127
    },
    {
      "midi": 76,
      "hit": false,
      "t": 15250,
      "d": 750,
      "v": 127
    },
    {
      "midi": 43,
      "hit": false,
      "t": 15250,
      "d": 250,
      "v": 127
    },
    {
      "midi": 55,
      "hit": false,
      "t": 15500,
      "d": 250,
      "v": 127
    },
    {
      "midi": 55,
      "hit": false,
      "t": 15750,
      "d": 250,
      "v": 127
    },
    {
      "midi": 72,
      "hit": false,
      "t": 16000,
      "d": 250,
      "v": 127
    },
    {
      "midi": 76,
      "hit": false,
      "t": 16000,
      "d": 250,
      "v": 127
    },
    {
      "midi": 55,
      "hit": false,
      "t": 16000,
      "d": 250,
      "v": 127
    },
    {
      "midi": 71,
      "hit": false,
      "t": 16250,
      "d": 250,
      "v": 127
    },
    {
      "midi": 74,
      "hit": false,
      "t": 16250,
      "d": 250,
      "v": 127
    },
    {
      "midi": 55,
      "hit": false,
      "t": 16250,
      "d": 250,
      "v": 127
    },
    {
      "midi": 69,
      "hit": false,
      "t": 16500,
      "d": 250,
      "v": 127
    },
    {
      "midi": 72,
      "hit": false,
      "t": 16500,
      "d": 250,
      "v": 127
    },
    {
      "midi": 55,
      "hit": false,
      "t": 16500,
      "d": 250,
      "v": 127
    },
    {
      "midi": 69,
      "hit": false,
      "t": 16750,
      "d": 250,
      "v": 127
    },
    {
      "midi": 72,
      "hit": false,
      "t": 16750,
      "d": 250,
      "v": 127
    },
    {
      "midi": 43,
      "hit": false,
      "t": 16750,
      "d": 250,
      "v": 127
    },
    {
      "midi": 67,
      "hit": false,
      "t": 17000,
      "d": 250,
      "v": 127
    },
    {
      "midi": 71,
      "hit": false,
      "t": 17000,
      "d": 250,
      "v": 127
    },
    {
      "midi": 55,
      "hit": false,
      "t": 17000,
      "d": 250,
      "v": 127
    },
    {
      "midi": 67,
      "hit": false,
      "t": 17250,
      "d": 250,
      "v": 127
    },
    {
      "midi": 71,
      "hit": false,
      "t": 17250,
      "d": 250,
      "v": 127
    },
    {
      "midi": 55,
      "hit": false,
      "t": 17250,
      "d": 250,
      "v": 127
    },
    {
      "midi": 67,
      "hit": false,
      "t": 17500,
      "d": 500,
      "v": 127
    },
    {
      "midi": 71,
      "hit": false,
      "t": 17500,
      "d": 500,
      "v": 127
    },
    {
      "midi": 55,
      "hit": false,
      "t": 17500,
      "d": 250,
      "v": 127
    },
    {
      "midi": 55,
      "hit": false,
      "t": 17750,
      "d": 250,
      "v": 127
    },
    {
      "midi": 79,
      "hit": false,
      "t": 18000,
      "d": 250,
      "v": 127
    },
    {
      "midi": 55,
      "hit": false,
      "t": 18000,
      "d": 250,
      "v": 127
    },
    {
      "midi": 74,
      "hit": false,
      "t": 18250,
      "d": 250,
      "v": 127
    },
    {
      "midi": 67,
      "hit": false,
      "t": 18250,
      "d": 750,
      "v": 127
    },
    {
      "midi": 71,
      "hit": false,
      "t": 18250,
      "d": 750,
      "v": 127
    },
    {
      "midi": 74,
      "hit": false,
      "t": 18500,
      "d": 125,
      "v": 127
    },
    {
      "midi": 76,
      "hit": false,
      "t": 18625,
      "d": 125,
      "v": 127
    },
    {
      "midi": 74,
      "hit": false,
      "t": 18750,
      "d": 500,
      "v": 127
    },
    {
      "midi": 66,
      "hit": false,
      "t": 19000,
      "d": 500,
      "v": 127
    },
    {
      "midi": 69,
      "hit": false,
      "t": 19000,
      "d": 500,
      "v": 127
    },
    {
      "midi": 74,
      "hit": false,
      "t": 19250,
      "d": 125,
      "v": 127
    },
    {
      "midi": 76,
      "hit": false,
      "t": 19375,
      "d": 125,
      "v": 127
    },
    {
      "midi": 74,
      "hit": false,
      "t": 19500,
      "d": 250,
      "v": 127
    },
    {
      "midi": 86,
      "hit": false,
      "t": 19750,
      "d": 250,
      "v": 127
    },
    {
      "midi": 67,
      "hit": false,
      "t": 19750,
      "d": 750,
      "v": 127
    },
    {
      "midi": 71,
      "hit": false,
      "t": 19750,
      "d": 750,
      "v": 127
    },
    {
      "midi": 83,
      "hit": false,
      "t": 20000,
      "d": 250,
      "v": 127
    },
    {
      "midi": 79,
      "hit": false,
      "t": 20250,
      "d": 250,
      "v": 127
    },
    {
      "midi": 81,
      "hit": false,
      "t": 20500,
      "d": 250,
      "v": 127
    },
    {
      "midi": 62,
      "hit": false,
      "t": 20500,
      "d": 500,
      "v": 127
    },
    {
      "midi": 69,
      "hit": false,
      "t": 20500,
      "d": 500,
      "v": 127
    },
    {
      "midi": 72,
      "hit": false,
      "t": 20500,
      "d": 500,
      "v": 127
    },
    {
      "midi": 79,
      "hit": false,
      "t": 20750,
      "d": 125,
      "v": 127
    },
    {
      "midi": 78,
      "hit": false,
      "t": 20875,
      "d": 125,
      "v": 127
    },
    {
      "midi": 76,
      "hit": false,
      "t": 21000,
      "d": 125,
      "v": 127
    },
    {
      "midi": 74,
      "hit": false,
      "t": 21125,
      "d": 125,
      "v": 127
    },
    {
      "midi": 55,
      "hit": false,
      "t": 21250,
      "d": 750,
      "v": 127
    },
    {
      "midi": 59,
      "hit": false,
      "t": 21250,
      "d": 750,
      "v": 127
    },
    {
      "midi": 74,
      "hit": false,
      "t": 21500,
      "d": 125,
      "v": 127
    },
    {
      "midi": 76,
      "hit": false,
      "t": 21625,
      "d": 125,
      "v": 127
    },
    {
      "midi": 74,
      "hit": false,
      "t": 21750,
      "d": 500,
      "v": 127
    },
    {
      "midi": 54,
      "hit": false,
      "t": 22000,
      "d": 500,
      "v": 127
    },
    {
      "midi": 57,
      "hit": false,
      "t": 22000,
      "d": 500,
      "v": 127
    },
    {
      "midi": 60,
      "hit": false,
      "t": 22000,
      "d": 500,
      "v": 127
    },
    {
      "midi": 74,
      "hit": false,
      "t": 22250,
      "d": 125,
      "v": 127
    },
    {
      "midi": 76,
      "hit": false,
      "t": 22375,
      "d": 125,
      "v": 127
    },
    {
      "midi": 74,
      "hit": false,
      "t": 22500,
      "d": 250,
      "v": 127
    },
    {
      "midi": 86,
      "hit": false,
      "t": 22750,
      "d": 250,
      "v": 127
    },
    {
      "midi": 55,
      "hit": false,
      "t": 22750,
      "d": 750,
      "v": 127
    },
    {
      "midi": 59,
      "hit": false,
      "t": 22750,
      "d": 750,
      "v": 127
    },
    {
      "midi": 83,
      "hit": false,
      "t": 23000,
      "d": 250,
      "v": 127
    },
    {
      "midi": 79,
      "hit": false,
      "t": 23250,
      "d": 250,
      "v": 127
    },
    {
      "midi": 81,
      "hit": false,
      "t": 23500,
      "d": 250,
      "v": 127
    },
    {
      "midi": 50,
      "hit": false,
      "t": 23500,
      "d": 500,
      "v": 127
    },
    {
      "midi": 57,
      "hit": false,
      "t": 23500,
      "d": 500,
      "v": 127
    },
    {
      "midi": 60,
      "hit": false,
      "t": 23500,
      "d": 500,
      "v": 127
    },
    {
      "midi": 79,
      "hit": false,
      "t": 23750,
      "d": 125,
      "v": 127
    },
    {
      "midi": 78,
      "hit": false,
      "t": 23875,
      "d": 125,
      "v": 127
    },
    {
      "midi": 76,
      "hit": false,
      "t": 24000,
      "d": 125,
      "v": 127
    },
    {
      "midi": 74,
      "hit": false,
      "t": 24125,
      "d": 125,
      "v": 127
    },
    {
      "midi": 79,
      "hit": false,
      "t": 24250,
      "d": 250,
      "v": 127
    },
    {
      "midi": 47,
      "hit": false,
      "t": 24250,
      "d": 250,
      "v": 127
    },
    {
      "midi": 79,
      "hit": false,
      "t": 24500,
      "d": 250,
      "v": 127
    },
    {
      "midi": 50,
      "hit": false,
      "t": 24500,
      "d": 250,
      "v": 127
    },
    {
      "midi": 79,
      "hit": false,
      "t": 24750,
      "d": 250,
      "v": 127
    },
    {
      "midi": 55,
      "hit": false,
      "t": 24750,
      "d": 250,
      "v": 127
    },
    {
      "midi": 79,
      "hit": false,
      "t": 25000,
      "d": 250,
      "v": 127
    },
    {
      "midi": 47,
      "hit": false,
      "t": 25000,
      "d": 250,
      "v": 127
    },
    {
      "midi": 81,
      "hit": false,
      "t": 25250,
      "d": 250,
      "v": 127
    },
    {
      "midi": 50,
      "hit": false,
      "t": 25250,
      "d": 250,
      "v": 127
    },
    {
      "midi": 83,
      "hit": false,
      "t": 25500,
      "d": 250,
      "v": 127
    },
    {
      "midi": 55,
      "hit": false,
      "t": 25500,
      "d": 250,
      "v": 127
    },
    {
      "midi": 83,
      "hit": false,
      "t": 25750,
      "d": 250,
      "v": 127
    },
    {
      "midi": 48,
      "hit": false,
      "t": 25750,
      "d": 250,
      "v": 127
    },
    {
      "midi": 76,
      "hit": false,
      "t": 26000,
      "d": 250,
      "v": 127
    },
    {
      "midi": 52,
      "hit": false,
      "t": 26000,
      "d": 250,
      "v": 127
    },
    {
      "midi": 76,
      "hit": false,
      "t": 26250,
      "d": 250,
      "v": 127
    },
    {
      "midi": 55,
      "hit": false,
      "t": 26250,
      "d": 250,
      "v": 127
    },
    {
      "midi": 76,
      "hit": false,
      "t": 26500,
      "d": 250,
      "v": 127
    },
    {
      "midi": 47,
      "hit": false,
      "t": 26500,
      "d": 250,
      "v": 127
    },
    {
      "midi": 78,
      "hit": false,
      "t": 26750,
      "d": 250,
      "v": 127
    },
    {
      "midi": 50,
      "hit": false,
      "t": 26750,
      "d": 250,
      "v": 127
    },
    {
      "midi": 79,
      "hit": false,
      "t": 27000,
      "d": 250,
      "v": 127
    },
    {
      "midi": 55,
      "hit": false,
      "t": 27000,
      "d": 250,
      "v": 127
    },
    {
      "midi": 76,
      "hit": false,
      "t": 27250,
      "d": 250,
      "v": 127
    },
    {
      "midi": 79,
      "hit": false,
      "t": 27250,
      "d": 250,
      "v": 127
    },
    {
      "midi": 48,
      "hit": false,
      "t": 27250,
      "d": 750,
      "v": 127
    },
    {
      "midi": 74,
      "hit": false,
      "t": 27500,
      "d": 250,
      "v": 127
    },
    {
      "midi": 78,
      "hit": false,
      "t": 27500,
      "d": 250,
      "v": 127
    },
    {
      "midi": 72,
      "hit": false,
      "t": 27750,
      "d": 250,
      "v": 127
    },
    {
      "midi": 76,
      "hit": false,
      "t": 27750,
      "d": 250,
      "v": 127
    },
    {
      "midi": 72,
      "hit": false,
      "t": 28000,
      "d": 250,
      "v": 127
    },
    {
      "midi": 76,
      "hit": false,
      "t": 28000,
      "d": 250,
      "v": 127
    },
    {
      "midi": 50,
      "hit": false,
      "t": 28000,
      "d": 500,
      "v": 127
    },
    {
      "midi": 71,
      "hit": false,
      "t": 28250,
      "d": 250,
      "v": 127
    },
    {
      "midi": 74,
      "hit": false,
      "t": 28250,
      "d": 250,
      "v": 127
    },
    {
      "midi": 69,
      "hit": false,
      "t": 28500,
      "d": 250,
      "v": 127
    },
    {
      "midi": 72,
      "hit": false,
      "t": 28500,
      "d": 250,
      "v": 127
    },
    {
      "midi": 51,
      "hit": false,
      "t": 28500,
      "d": 250,
      "v": 127
    },
    {
      "midi": 69,
      "hit": false,
      "t": 28750,
      "d": 750,
      "v": 127
    },
    {
      "midi": 72,
      "hit": false,
      "t": 28750,
      "d": 750,
      "v": 127
    },
    {
      "midi": 52,
      "hit": false,
      "t": 28750,
      "d": 250,
      "v": 127
    },
    {
      "midi": 52,
      "hit": false,
      "t": 29000,
      "d": 125,
      "v": 127
    },
    {
      "midi": 51,
      "hit": false,
      "t": 29125,
      "d": 125,
      "v": 127
    },
    {
      "midi": 52,
      "hit": false,
      "t": 29250,
      "d": 125,
      "v": 127
    },
    {
      "midi": 51,
      "hit": false,
      "t": 29375,
      "d": 125,
      "v": 127
    },
    {
      "midi": 67,
      "hit": false,
      "t": 29500,
      "d": 500,
      "v": 127
    },
    {
      "midi": 71,
      "hit": false,
      "t": 29500,
      "d": 500,
      "v": 127
    },
    {
      "midi": 52,
      "hit": false,
      "t": 29500,
      "d": 500,
      "v": 127
    },
    {
      "midi": 74,
      "hit": false,
      "t": 30000,
      "d": 250,
      "v": 127
    },
    {
      "midi": 79,
      "hit": false,
      "t": 30250,
      "d": 250,
      "v": 127
    },
    {
      "midi": 47,
      "hit": false,
      "t": 30250,
      "d": 250,
      "v": 127
    },
    {
      "midi": 79,
      "hit": false,
      "t": 30500,
      "d": 250,
      "v": 127
    },
    {
      "midi": 50,
      "hit": false,
      "t": 30500,
      "d": 250,
      "v": 127
    },
    {
      "midi": 79,
      "hit": false,
      "t": 30750,
      "d": 250,
      "v": 127
    },
    {
      "midi": 55,
      "hit": false,
      "t": 30750,
      "d": 250,
      "v": 127
    },
    {
      "midi": 79,
      "hit": false,
      "t": 31000,
      "d": 250,
      "v": 127
    },
    {
      "midi": 47,
      "hit": false,
      "t": 31000,
      "d": 250,
      "v": 127
    },
    {
      "midi": 81,
      "hit": false,
      "t": 31250,
      "d": 250,
      "v": 127
    },
    {
      "midi": 50,
      "hit": false,
      "t": 31250,
      "d": 250,
      "v": 127
    },
    {
      "midi": 83,
      "hit": false,
      "t": 31500,
      "d": 250,
      "v": 127
    },
    {
      "midi": 55,
      "hit": false,
      "t": 31500,
      "d": 250,
      "v": 127
    },
    {
      "midi": 83,
      "hit": false,
      "t": 31750,
      "d": 250,
      "v": 127
    },
    {
      "midi": 48,
      "hit": false,
      "t": 31750,
      "d": 250,
      "v": 127
    },
    {
      "midi": 76,
      "hit": false,
      "t": 32000,
      "d": 250,
      "v": 127
    },
    {
      "midi": 52,
      "hit": false,
      "t": 32000,
      "d": 250,
      "v": 127
    },
    {
      "midi": 76,
      "hit": false,
      "t": 32250,
      "d": 250,
      "v": 127
    },
    {
      "midi": 55,
      "hit": false,
      "t": 32250,
      "d": 250,
      "v": 127
    },
    {
      "midi": 76,
      "hit": false,
      "t": 32500,
      "d": 250,
      "v": 127
    },
    {
      "midi": 47,
      "hit": false,
      "t": 32500,
      "d": 250,
      "v": 127
    },
    {
      "midi": 78,
      "hit": false,
      "t": 32750,
      "d": 250,
      "v": 127
    },
    {
      "midi": 50,
      "hit": false,
      "t": 32750,
      "d": 250,
      "v": 127
    },
    {
      "midi": 79,
      "hit": false,
      "t": 33000,
      "d": 250,
      "v": 127
    },
    {
      "midi": 55,
      "hit": false,
      "t": 33000,
      "d": 250,
      "v": 127
    },
    {
      "midi": 78,
      "hit": false,
      "t": 33250,
      "d": 250,
      "v": 127
    },
    {
      "midi": 50,
      "hit": false,
      "t": 33250,
      "d": 250,
      "v": 127
    },
    {
      "midi": 76,
      "hit": false,
      "t": 33500,
      "d": 250,
      "v": 127
    },
    {
      "midi": 57,
      "hit": false,
      "t": 33500,
      "d": 250,
      "v": 127
    },
    {
      "midi": 74,
      "hit": false,
      "t": 33750,
      "d": 250,
      "v": 127
    },
    {
      "midi": 60,
      "hit": false,
      "t": 33750,
      "d": 250,
      "v": 127
    },
    {
      "midi": 72,
      "hit": false,
      "t": 34000,
      "d": 250,
      "v": 127
    },
    {
      "midi": 50,
      "hit": false,
      "t": 34000,
      "d": 250,
      "v": 127
    },
    {
      "midi": 71,
      "hit": false,
      "t": 34250,
      "d": 250,
      "v": 127
    },
    {
      "midi": 57,
      "hit": false,
      "t": 34250,
      "d": 250,
      "v": 127
    },
    {
      "midi": 69,
      "hit": false,
      "t": 34500,
      "d": 250,
      "v": 127
    },
    {
      "midi": 60,
      "hit": false,
      "t": 34500,
      "d": 250,
      "v": 127
    },
    {
      "midi": 67,
      "hit": false,
      "t": 34750,
      "d": 250,
      "v": 127
    },
    {
      "midi": 55,
      "hit": false,
      "t": 34750,
      "d": 750,
      "v": 127
    },
    {
      "midi": 59,
      "hit": false,
      "t": 34750,
      "d": 750,
      "v": 127
    },
    {
      "midi": 79,
      "hit": false,
      "t": 35000,
      "d": 250,
      "v": 127
    },
    {
      "midi": 79,
      "hit": false,
      "t": 35250,
      "d": 250,
      "v": 127
    },
    {
      "midi": 78,
      "hit": false,
      "t": 35500,
      "d": 250,
      "v": 127
    },
    {
      "midi": 55,
      "hit": false,
      "t": 35500,
      "d": 500,
      "v": 127
    },
    {
      "midi": 60,
      "hit": false,
      "t": 35500,
      "d": 500,
      "v": 127
    },
    {
      "midi": 76,
      "hit": false,
      "t": 35750,
      "d": 250,
      "v": 127
    },
    {
      "midi": 74,
      "hit": false,
      "t": 36000,
      "d": 500,
      "v": 127
    },
    {
      "midi": 55,
      "hit": false,
      "t": 36250,
      "d": 750,
      "v": 127
    },
    {
      "midi": 59,
      "hit": false,
      "t": 36250,
      "d": 750,
      "v": 127
    },
    {
      "midi": 79,
      "hit": false,
      "t": 36500,
      "d": 250,
      "v": 127
    },
    {
      "midi": 79,
      "hit": false,
      "t": 36750,
      "d": 250,
      "v": 127
    },
    {
      "midi": 78,
      "hit": false,
      "t": 37000,
      "d": 250,
      "v": 127
    },
    {
      "midi": 55,
      "hit": false,
      "t": 37000,
      "d": 500,
      "v": 127
    },
    {
      "midi": 60,
      "hit": false,
      "t": 37000,
      "d": 500,
      "v": 127
    },
    {
      "midi": 76,
      "hit": false,
      "t": 37250,
      "d": 250,
      "v": 127
    },
    {
      "midi": 74,
      "hit": false,
      "t": 37500,
      "d": 250,
      "v": 127
    },
    {
      "midi": 79,
      "hit": false,
      "t": 37750,
      "d": 250,
      "v": 127
    },
    {
      "midi": 55,
      "hit": false,
      "t": 37750,
      "d": 750,
      "v": 127
    },
    {
      "midi": 59,
      "hit": false,
      "t": 37750,
      "d": 750,
      "v": 127
    },
    {
      "midi": 81,
      "hit": false,
      "t": 38000,
      "d": 250,
      "v": 127
    },
    {
      "midi": 78,
      "hit": false,
      "t": 38250,
      "d": 250,
      "v": 127
    },
    {
      "midi": 79,
      "hit": false,
      "t": 38500,
      "d": 250,
      "v": 127
    },
    {
      "midi": 81,
      "hit": false,
      "t": 38750,
      "d": 250,
      "v": 127
    },
    {
      "midi": 78,
      "hit": false,
      "t": 39000,
      "d": 250,
      "v": 127
    },
    {
      "midi": 79,
      "hit": false,
      "t": 39250,
      "d": 250,
      "v": 127
    },
    {
      "midi": 81,
      "hit": false,
      "t": 39500,
      "d": 250,
      "v": 127
    },
    {
      "midi": 77,
      "hit": false,
      "t": 39750,
      "d": 250,
      "v": 127
    },
    {
      "midi": 76,
      "hit": false,
      "t": 40000,
      "d": 250,
      "v": 127
    },
    {
      "midi": 77,
      "hit": false,
      "t": 40250,
      "d": 250,
      "v": 127
    },
    {
      "midi": 74,
      "hit": false,
      "t": 40500,
      "d": 250,
      "v": 127
    },
    {
      "midi": 76,
      "hit": false,
      "t": 40750,
      "d": 750,
      "v": 127
    },
    {
      "midi": 60,
      "hit": false,
      "t": 40750,
      "d": 250,
      "v": 127
    },
    {
      "midi": 64,
      "hit": false,
      "t": 41000,
      "d": 250,
      "v": 127
    },
    {
      "midi": 67,
      "hit": false,
      "t": 41250,
      "d": 250,
      "v": 127
    },
    {
      "midi": 77,
      "hit": false,
      "t": 41500,
      "d": 250,
      "v": 127
    },
    {
      "midi": 79,
      "hit": false,
      "t": 41500,
      "d": 250,
      "v": 127
    },
    {
      "midi": 59,
      "hit": false,
      "t": 41500,
      "d": 250,
      "v": 127
    },
    {
      "midi": 76,
      "hit": false,
      "t": 41750,
      "d": 250,
      "v": 127
    },
    {
      "midi": 62,
      "hit": false,
      "t": 41750,
      "d": 250,
      "v": 127
    },
    {
      "midi": 77,
      "hit": false,
      "t": 42000,
      "d": 250,
      "v": 127
    },
    {
      "midi": 67,
      "hit": false,
      "t": 42000,
      "d": 250,
      "v": 127
    },
    {
      "midi": 79,
      "hit": false,
      "t": 42250,
      "d": 500,
      "v": 127
    },
    {
      "midi": 60,
      "hit": false,
      "t": 42250,
      "d": 250,
      "v": 127
    },
    {
      "midi": 64,
      "hit": false,
      "t": 42500,
      "d": 250,
      "v": 127
    },
    {
      "midi": 76,
      "hit": false,
      "t": 42750,
      "d": 250,
      "v": 127
    },
    {
      "midi": 67,
      "hit": false,
      "t": 42750,
      "d": 250,
      "v": 127
    },
    {
      "midi": 72,
      "hit": false,
      "t": 43000,
      "d": 500,
      "v": 127
    },
    {
      "midi": 60,
      "hit": false,
      "t": 43000,
      "d": 250,
      "v": 127
    },
    {
      "midi": 64,
      "hit": false,
      "t": 43250,
      "d": 250,
      "v": 127
    },
    {
      "midi": 76,
      "hit": false,
      "t": 43500,
      "d": 250,
      "v": 127
    },
    {
      "midi": 67,
      "hit": false,
      "t": 43500,
      "d": 250,
      "v": 127
    },
    {
      "midi": 74,
      "hit": false,
      "t": 43750,
      "d": 250,
      "v": 127
    },
    {
      "midi": 65,
      "hit": false,
      "t": 43750,
      "d": 750,
      "v": 127
    },
    {
      "midi": 69,
      "hit": false,
      "t": 43750,
      "d": 750,
      "v": 127
    },
    {
      "midi": 77,
      "hit": false,
      "t": 44000,
      "d": 250,
      "v": 127
    },
    {
      "midi": 76,
      "hit": false,
      "t": 44250,
      "d": 250,
      "v": 127
    },
    {
      "midi": 74,
      "hit": false,
      "t": 44500,
      "d": 250,
      "v": 127
    },
    {
      "midi": 66,
      "hit": false,
      "t": 44500,
      "d": 500,
      "v": 127
    },
    {
      "midi": 69,
      "hit": false,
      "t": 44500,
      "d": 500,
      "v": 127
    },
    {
      "midi": 76,
      "hit": false,
      "t": 44750,
      "d": 250,
      "v": 127
    },
    {
      "midi": 72,
      "hit": false,
      "t": 45000,
      "d": 250,
      "v": 127
    },
    {
      "midi": 72,
      "hit": false,
      "t": 45250,
      "d": 750,
      "v": 127
    },
    {
      "midi": 76,
      "hit": false,
      "t": 45250,
      "d": 750,
      "v": 127
    },
    {
      "midi": 67,
      "hit": false,
      "t": 45250,
      "d": 250,
      "v": 127
    },
    {
      "midi": 67,
      "hit": false,
      "t": 45500,
      "d": 125,
      "v": 127
    },
    {
      "midi": 66,
      "hit": false,
      "t": 45625,
      "d": 125,
      "v": 127
    },
    {
      "midi": 67,
      "hit": false,
      "t": 45750,
      "d": 125,
      "v": 127
    },
    {
      "midi": 66,
      "hit": false,
      "t": 45875,
      "d": 125,
      "v": 127
    },
    {
      "midi": 71,
      "hit": false,
      "t": 46000,
      "d": 500,
      "v": 127
    },
    {
      "midi": 74,
      "hit": false,
      "t": 46000,
      "d": 500,
      "v": 127
    },
    {
      "midi": 67,
      "hit": false,
      "t": 46000,
      "d": 500,
      "v": 127
    },
    {
      "midi": 67,
      "hit": false,
      "t": 46500,
      "d": 250,
      "v": 127
    },
    {
      "midi": 72,
      "hit": false,
      "t": 46750,
      "d": 750,
      "v": 127
    },
    {
      "midi": 76,
      "hit": false,
      "t": 46750,
      "d": 750,
      "v": 127
    },
    {
      "midi": 48,
      "hit": false,
      "t": 46750,
      "d": 250,
      "v": 127
    },
    {
      "midi": 52,
      "hit": false,
      "t": 47000,
      "d": 250,
      "v": 127
    },
    {
      "midi": 55,
      "hit": false,
      "t": 47250,
      "d": 250,
      "v": 127
    },
    {
      "midi": 74,
      "hit": false,
      "t": 47500,
      "d": 250,
      "v": 127
    },
    {
      "midi": 77,
      "hit": false,
      "t": 47500,
      "d": 250,
      "v": 127
    },
    {
      "midi": 47,
      "hit": false,
      "t": 47500,
      "d": 250,
      "v": 127
    },
    {
      "midi": 76,
      "hit": false,
      "t": 47750,
      "d": 250,
      "v": 127
    },
    {
      "midi": 50,
      "hit": false,
      "t": 47750,
      "d": 250,
      "v": 127
    },
    {
      "midi": 77,
      "hit": false,
      "t": 48000,
      "d": 250,
      "v": 127
    },
    {
      "midi": 55,
      "hit": false,
      "t": 48000,
      "d": 250,
      "v": 127
    },
    {
      "midi": 79,
      "hit": false,
      "t": 48250,
      "d": 250,
      "v": 127
    },
    {
      "midi": 48,
      "hit": false,
      "t": 48250,
      "d": 250,
      "v": 127
    },
    {
      "midi": 76,
      "hit": false,
      "t": 48500,
      "d": 250,
      "v": 127
    },
    {
      "midi": 52,
      "hit": false,
      "t": 48500,
      "d": 250,
      "v": 127
    },
    {
      "midi": 72,
      "hit": false,
      "t": 48750,
      "d": 250,
      "v": 127
    },
    {
      "midi": 55,
      "hit": false,
      "t": 48750,
      "d": 250,
      "v": 127
    },
    {
      "midi": 72,
      "hit": false,
      "t": 49000,
      "d": 500,
      "v": 127
    },
    {
      "midi": 84,
      "hit": false,
      "t": 49000,
      "d": 500,
      "v": 127
    },
    {
      "midi": 52,
      "hit": false,
      "t": 49000,
      "d": 250,
      "v": 127
    },
    {
      "midi": 55,
      "hit": false,
      "t": 49250,
      "d": 250,
      "v": 127
    },
    {
      "midi": 82,
      "hit": false,
      "t": 49500,
      "d": 250,
      "v": 127
    },
    {
      "midi": 60,
      "hit": false,
      "t": 49500,
      "d": 250,
      "v": 127
    },
    {
      "midi": 81,
      "hit": false,
      "t": 49750,
      "d": 250,
      "v": 127
    },
    {
      "midi": 53,
      "hit": false,
      "t": 49750,
      "d": 250,
      "v": 127
    },
    {
      "midi": 77,
      "hit": false,
      "t": 50000,
      "d": 250,
      "v": 127
    },
    {
      "midi": 57,
      "hit": false,
      "t": 50000,
      "d": 250,
      "v": 127
    },
    {
      "midi": 76,
      "hit": false,
      "t": 50250,
      "d": 250,
      "v": 127
    },
    {
      "midi": 62,
      "hit": false,
      "t": 50250,
      "d": 250,
      "v": 127
    },
    {
      "midi": 74,
      "hit": false,
      "t": 50500,
      "d": 250,
      "v": 127
    },
    {
      "midi": 55,
      "hit": false,
      "t": 50500,
      "d": 250,
      "v": 127
    },
    {
      "midi": 72,
      "hit": false,
      "t": 50750,
      "d": 250,
      "v": 127
    },
    {
      "midi": 62,
      "hit": false,
      "t": 50750,
      "d": 250,
      "v": 127
    },
    {
      "midi": 71,
      "hit": false,
      "t": 51000,
      "d": 250,
      "v": 127
    },
    {
      "midi": 65,
      "hit": false,
      "t": 51000,
      "d": 250,
      "v": 127
    },
    {
      "midi": 72,
      "hit": false,
      "t": 51250,
      "d": 250,
      "v": 127
    },
    {
      "midi": 60,
      "hit": false,
      "t": 51250,
      "d": 250,
      "v": 127
    },
    {
      "midi": 64,
      "hit": false,
      "t": 51250,
      "d": 250,
      "v": 127
    },
    {
      "midi": 72,
      "hit": false,
      "t": 51500,
      "d": 250,
      "v": 127
    },
    {
      "midi": 60,
      "hit": false,
      "t": 51500,
      "d": 250,
      "v": 127
    },
    {
      "midi": 64,
      "hit": false,
      "t": 51500,
      "d": 250,
      "v": 127
    },
    {
      "midi": 72,
      "hit": false,
      "t": 51750,
      "d": 250,
      "v": 127
    },
    {
      "midi": 60,
      "hit": false,
      "t": 51750,
      "d": 250,
      "v": 127
    },
    {
      "midi": 64,
      "hit": false,
      "t": 51750,
      "d": 250,
      "v": 127
    },
    {
      "midi": 72,
      "hit": false,
      "t": 52000,
      "d": 500,
      "v": 127
    },
    {
      "midi": 60,
      "hit": false,
      "t": 52000,
      "d": 500,
      "v": 127
    },
    {
      "midi": 64,
      "hit": false,
      "t": 52000,
      "d": 500,
      "v": 127
    }
  ]
}