{
  "jsonPath": "Classical/Classical Era/Jan Ladislav Dussek/dussek-op46-1-2.json",
  "path": "Classical\\Classical Era\\Jan Ladislav Dussek\\Dussek Op46 1-2.mid",
  "name": "Dussek Op46 1-2",
  "difficulty": "Intermediate",
  "bpm": 60,
  "notes": [
    {
      "midi": 67,
      "hit": false,
      "t": 0,
      "d": 500,
      "v": 127
    },
    {
      "midi": 72,
      "hit": false,
      "t": 500,
      "d": 250,
      "v": 127
    },
    {
      "midi": 72,
      "hit": false,
      "t": 750,
      "d": 250,
      "v": 127
    },
    {
      "midi": 71,
      "hit": false,
      "t": 1000,
      "d": 250,
      "v": 127
    },
    {
      "midi": 72,
      "hit": false,
      "t": 1250,
      "d": 250,
      "v": 127
    },
    {
      "midi": 76,
      "hit": false,
      "t": 1500,
      "d": 166.66666666666674,
      "v": 127
    },
    {
      "midi": 74,
      "hit": false,
      "t": 1666.6666666666667,
      "d": 166.66666666666674,
      "v": 127
    },
    {
      "midi": 72,
      "hit": false,
      "t": 1833.3333333333335,
      "d": 166.66666666666674,
      "v": 127
    },
    {
      "midi": 76,
      "hit": false,
      "t": 2000.0000000000002,
      "d": 166.66666666666674,
      "v": 127
    },
    {
      "midi": 74,
      "hit": false,
      "t": 2166.666666666667,
      "d": 166.66666666666652,
      "v": 127
    },
    {
      "midi": 72,
      "hit": false,
      "t": 2333.3333333333335,
      "d": 166.66666666666652,
      "v": 127
    },
    {
      "midi": 79,
      "hit": false,
      "t": 2500,
      "d": 250,
      "v": 127
    },
    {
      "midi": 79,
      "hit": false,
      "t": 2750,
      "d": 250,
      "v": 127
    },
    {
      "midi": 78,
      "hit": false,
      "t": 3000,
      "d": 250,
      "v": 127
    },
    {
      "midi": 79,
      "hit": false,
      "t": 3250,
      "d": 250,
      "v": 127
    },
    {
      "midi": 83,
      "hit": false,
      "t": 3500,
      "d": 166.66666666666652,
      "v": 127
    },
    {
      "midi": 81,
      "hit": false,
      "t": 3666.6666666666665,
      "d": 166.66666666666652,
      "v": 127
    },
    {
      "midi": 79,
      "hit": false,
      "t": 3833.333333333333,
      "d": 166.66666666666652,
      "v": 127
    },
    {
      "midi": 83,
      "hit": false,
      "t": 3999.9999999999995,
      "d": 166.66666666666652,
      "v": 127
    },
    {
      "midi": 81,
      "hit": false,
      "t": 4166.666666666666,
      "d": 166.66666666666697,
      "v": 127
    },
    {
      "midi": 79,
      "hit": false,
      "t": 4333.333333333333,
      "d": 166.66666666666697,
      "v": 127
    },
    {
      "midi": 84,
      "hit": false,
      "t": 4666.666666666667,
      "d": 166.66666666666697,
      "v": 127
    },
    {
      "midi": 79,
      "hit": false,
      "t": 4833.333333333334,
      "d": 166.66666666666697,
      "v": 127
    },
    {
      "midi": 76,
      "hit": false,
      "t": 5000.000000000001,
      "d": 166.66666666666697,
      "v": 127
    },
    {
      "midi": 79,
      "hit": false,
      "t": 5166.666666666668,
      "d": 166.66666666666697,
      "v": 127
    },
    {
      "midi": 76,
      "hit": false,
      "t": 5333.333333333335,
      "d": 166.66666666666697,
      "v": 127
    },
    {
      "midi": 77,
      "hit": false,
      "t": 5666.666666666669,
      "d": 166.66666666666697,
      "v": 127
    },
    {
      "midi": 74,
      "hit": false,
      "t": 5833.333333333336,
      "d": 166.66666666666697,
      "v": 127
    },
    {
      "midi": 76,
      "hit": false,
      "t": 6166.66666666667,
      "d": 166.66666666666697,
      "v": 127
    },
    {
      "midi": 72,
      "hit": false,
      "t": 6333.333333333337,
      "d": 166.66666666666697,
      "v": 127
    },
    {
      "midi": 74,
      "hit": false,
      "t": 6666.666666666671,
      "d": 166.66666666666697,
      "v": 127
    },
    {
      "midi": 71,
      "hit": false,
      "t": 6833.333333333338,
      "d": 166.66666666666697,
      "v": 127
    },
    {
      "midi": 76,
      "hit": false,
      "t": 7166.6666666666715,
      "d": 166.66666666666697,
      "v": 127
    },
    {
      "midi": 72,
      "hit": false,
      "t": 7333.3333333333385,
      "d": 166.66666666666697,
      "v": 127
    },
    {
      "midi": 71,
      "hit": false,
      "t": 7500.0000000000055,
      "d": 500,
      "v": 127
    },
    {
      "midi": 74,
      "hit": false,
      "t": 7500.0000000000055,
      "d": 500,
      "v": 127
    },
    {
      "midi": 67,
      "hit": false,
      "t": 8000.0000000000055,
      "d": 500,
      "v": 127
    },
    {
      "midi": 72,
      "hit": false,
      "t": 8500.000000000005,
      "d": 250,
      "v": 127
    },
    {
      "midi": 72,
      "hit": false,
      "t": 8750.000000000005,
      "d": 250,
      "v": 127
    },
    {
      "midi": 71,
      "hit": false,
      "t": 9000.000000000005,
      "d": 250,
      "v": 127
    },
    {
      "midi": 72,
      "hit": false,
      "t": 9250.000000000005,
      "d": 250,
      "v": 127
    },
    {
      "midi": 76,
      "hit": false,
      "t": 9500.000000000005,
      "d": 166.66666666666606,
      "v": 127
    },
    {
      "midi": 74,
      "hit": false,
      "t": 9666.666666666672,
      "d": 166.66666666666606,
      "v": 127
    },
    {
      "midi": 72,
      "hit": false,
      "t": 9833.333333333338,
      "d": 166.66666666666606,
      "v": 127
    },
    {
      "midi": 76,
      "hit": false,
      "t": 10000.000000000004,
      "d": 166.66666666666606,
      "v": 127
    },
    {
      "midi": 74,
      "hit": false,
      "t": 10166.66666666667,
      "d": 166.66666666666606,
      "v": 127
    },
    {
      "midi": 72,
      "hit": false,
      "t": 10333.333333333336,
      "d": 166.66666666666606,
      "v": 127
    },
    {
      "midi": 79,
      "hit": false,
      "t": 10500.000000000002,
      "d": 250,
      "v": 127
    },
    {
      "midi": 79,
      "hit": false,
      "t": 10750.000000000002,
      "d": 250,
      "v": 127
    },
    {
      "midi": 78,
      "hit": false,
      "t": 11000.000000000002,
      "d": 250,
      "v": 127
    },
    {
      "midi": 79,
      "hit": false,
      "t": 11250.000000000002,
      "d": 250,
      "v": 127
    },
    {
      "midi": 83,
      "hit": false,
      "t": 11500.000000000002,
      "d": 166.66666666666606,
      "v": 127
    },
    {
      "midi": 81,
      "hit": false,
      "t": 11666.666666666668,
      "d": 166.66666666666606,
      "v": 127
    },
    {
      "midi": 79,
      "hit": false,
      "t": 11833.333333333334,
      "d": 166.66666666666606,
      "v": 127
    },
    {
      "midi": 83,
      "hit": false,
      "t": 12000,
      "d": 166.66666666666606,
      "v": 127
    },
    {
      "midi": 81,
      "hit": false,
      "t": 12166.666666666666,
      "d": 166.66666666666606,
      "v": 127
    },
    {
      "midi": 79,
      "hit": false,
      "t": 12333.333333333332,
      "d": 166.66666666666606,
      "v": 127
    },
    {
      "midi": 84,
      "hit": false,
      "t": 12666.666666666664,
      "d": 166.66666666666606,
      "v": 127
    },
    {
      "midi": 79,
      "hit": false,
      "t": 12833.33333333333,
      "d": 166.66666666666606,
      "v": 127
    },
    {
      "midi": 76,
      "hit": false,
      "t": 12999.999999999996,
      "d": 166.66666666666606,
      "v": 127
    },
    {
      "midi": 79,
      "hit": false,
      "t": 13166.666666666662,
      "d": 166.66666666666606,
      "v": 127
    },
    {
      "midi": 76,
      "hit": false,
      "t": 13333.333333333328,
      "d": 166.66666666666606,
      "v": 127
    },
    {
      "midi": 79,
      "hit": false,
      "t": 13666.66666666666,
      "d": 166.66666666666606,
      "v": 127
    },
    {
      "midi": 76,
      "hit": false,
      "t": 13833.333333333327,
      "d": 166.66666666666606,
      "v": 127
    },
    {
      "midi": 77,
      "hit": false,
      "t": 14166.666666666659,
      "d": 166.66666666666606,
      "v": 127
    },
    {
      "midi": 74,
      "hit": false,
      "t": 14333.333333333325,
      "d": 166.66666666666606,
      "v": 127
    },
    {
      "midi": 72,
      "hit": false,
      "t": 14666.666666666657,
      "d": 166.66666666666606,
      "v": 127
    },
    {
      "midi": 76,
      "hit": false,
      "t": 14833.333333333323,
      "d": 166.66666666666606,
      "v": 127
    },
    {
      "midi": 72,
      "hit": false,
      "t": 15166.666666666655,
      "d": 166.66666666666606,
      "v": 127
    },
    {
      "midi": 76,
      "hit": false,
      "t": 15333.333333333321,
      "d": 166.66666666666606,
      "v": 127
    },
    {
      "midi": 72,
      "hit": false,
      "t": 15499.999999999987,
      "d": 500,
      "v": 127
    },
    {
      "midi": 76,
      "hit": false,
      "t": 15999.999999999987,
      "d": 499.9999999999982,
      "v": 127
    },
    {
      "midi": 74,
      "hit": false,
      "t": 16666.666666666653,
      "d": 166.66666666666788,
      "v": 127
    },
    {
      "midi": 76,
      "hit": false,
      "t": 16833.33333333332,
      "d": 166.66666666666788,
      "v": 127
    },
    {
      "midi": 77,
      "hit": false,
      "t": 16999.99999999999,
      "d": 166.66666666666788,
      "v": 127
    },
    {
      "midi": 79,
      "hit": false,
      "t": 17166.666666666657,
      "d": 166.66666666666788,
      "v": 127
    },
    {
      "midi": 77,
      "hit": false,
      "t": 17333.333333333325,
      "d": 166.66666666666788,
      "v": 127
    },
    {
      "midi": 76,
      "hit": false,
      "t": 17666.66666666666,
      "d": 166.66666666666788,
      "v": 127
    },
    {
      "midi": 77,
      "hit": false,
      "t": 17833.33333333333,
      "d": 166.66666666666788,
      "v": 127
    },
    {
      "midi": 79,
      "hit": false,
      "t": 17999.999999999996,
      "d": 166.66666666666788,
      "v": 127
    },
    {
      "midi": 81,
      "hit": false,
      "t": 18166.666666666664,
      "d": 166.66666666666788,
      "v": 127
    },
    {
      "midi": 79,
      "hit": false,
      "t": 18333.333333333332,
      "d": 166.66666666666788,
      "v": 127
    },
    {
      "midi": 71,
      "hit": false,
      "t": 18666.666666666668,
      "d": 166.66666666666788,
      "v": 127
    },
    {
      "midi": 72,
      "hit": false,
      "t": 18833.333333333336,
      "d": 166.66666666666788,
      "v": 127
    },
    {
      "midi": 74,
      "hit": false,
      "t": 19000.000000000004,
      "d": 166.66666666666788,
      "v": 127
    },
    {
      "midi": 76,
      "hit": false,
      "t": 19166.66666666667,
      "d": 166.66666666666788,
      "v": 127
    },
    {
      "midi": 74,
      "hit": false,
      "t": 19333.33333333334,
      "d": 166.66666666666788,
      "v": 127
    },
    {
      "midi": 72,
      "hit": false,
      "t": 19666.666666666675,
      "d": 166.66666666666788,
      "v": 127
    },
    {
      "midi": 74,
      "hit": false,
      "t": 19833.333333333343,
      "d": 166.66666666666788,
      "v": 127
    },
    {
      "midi": 76,
      "hit": false,
      "t": 20000.00000000001,
      "d": 166.66666666666788,
      "v": 127
    },
    {
      "midi": 77,
      "hit": false,
      "t": 20166.66666666668,
      "d": 166.66666666666788,
      "v": 127
    },
    {
      "midi": 76,
      "hit": false,
      "t": 20333.333333333347,
      "d": 166.66666666666788,
      "v": 127
    },
    {
      "midi": 74,
      "hit": false,
      "t": 20666.666666666682,
      "d": 166.66666666666788,
      "v": 127
    },
    {
      "midi": 76,
      "hit": false,
      "t": 20833.33333333335,
      "d": 166.66666666666788,
      "v": 127
    },
    {
      "midi": 77,
      "hit": false,
      "t": 21000.00000000002,
      "d": 166.66666666666788,
      "v": 127
    },
    {
      "midi": 79,
      "hit": false,
      "t": 21166.666666666686,
      "d": 166.66666666666788,
      "v": 127
    },
    {
      "midi": 77,
      "hit": false,
      "t": 21333.333333333354,
      "d": 166.66666666666788,
      "v": 127
    },
    {
      "midi": 76,
      "hit": false,
      "t": 21500.000000000022,
      "d": 166.66666666666788,
      "v": 127
    },
    {
      "midi": 79,
      "hit": false,
      "t": 21666.66666666669,
      "d": 166.66666666666788,
      "v": 127
    },
    {
      "midi": 77,
      "hit": false,
      "t": 21833.333333333358,
      "d": 166.66666666666788,
      "v": 127
    },
    {
      "midi": 76,
      "hit": false,
      "t": 22000.000000000025,
      "d": 166.66666666666788,
      "v": 127
    },
    {
      "midi": 74,
      "hit": false,
      "t": 22166.666666666693,
      "d": 166.66666666666788,
      "v": 127
    },
    {
      "midi": 72,
      "hit": false,
      "t": 22333.33333333336,
      "d": 166.66666666666788,
      "v": 127
    },
    {
      "midi": 74,
      "hit": false,
      "t": 22666.666666666697,
      "d": 166.66666666666788,
      "v": 127
    },
    {
      "midi": 71,
      "hit": false,
      "t": 22833.333333333365,
      "d": 166.66666666666788,
      "v": 127
    },
    {
      "midi": 76,
      "hit": false,
      "t": 23166.6666666667,
      "d": 166.66666666666788,
      "v": 127
    },
    {
      "midi": 72,
      "hit": false,
      "t": 23333.33333333337,
      "d": 166.66666666666788,
      "v": 127
    },
    {
      "midi": 71,
      "hit": false,
      "t": 23500.000000000036,
      "d": 500,
      "v": 127
    },
    {
      "midi": 74,
      "hit": false,
      "t": 23500.000000000036,
      "d": 500,
      "v": 127
    },
    {
      "midi": 67,
      "hit": false,
      "t": 24000.000000000036,
      "d": 500,
      "v": 127
    },
    {
      "midi": 72,
      "hit": false,
      "t": 24500.000000000036,
      "d": 250,
      "v": 127
    },
    {
      "midi": 72,
      "hit": false,
      "t": 24750.000000000036,
      "d": 250,
      "v": 127
    },
    {
      "midi": 71,
      "hit": false,
      "t": 25000.000000000036,
      "d": 250,
      "v": 127
    },
    {
      "midi": 72,
      "hit": false,
      "t": 25250.000000000036,
      "d": 250,
      "v": 127
    },
    {
      "midi": 76,
      "hit": false,
      "t": 25500.000000000036,
      "d": 166.66666666666788,
      "v": 127
    },
    {
      "midi": 74,
      "hit": false,
      "t": 25666.666666666704,
      "d": 166.66666666666788,
      "v": 127
    },
    {
      "midi": 72,
      "hit": false,
      "t": 25833.333333333372,
      "d": 166.66666666666788,
      "v": 127
    },
    {
      "midi": 76,
      "hit": false,
      "t": 26000.00000000004,
      "d": 166.66666666666788,
      "v": 127
    },
    {
      "midi": 74,
      "hit": false,
      "t": 26166.666666666708,
      "d": 166.66666666666788,
      "v": 127
    },
    {
      "midi": 72,
      "hit": false,
      "t": 26333.333333333376,
      "d": 166.66666666666788,
      "v": 127
    },
    {
      "midi": 79,
      "hit": false,
      "t": 26500.000000000044,
      "d": 250,
      "v": 127
    },
    {
      "midi": 79,
      "hit": false,
      "t": 26750.000000000044,
      "d": 250,
      "v": 127
    },
    {
      "midi": 78,
      "hit": false,
      "t": 27000.000000000044,
      "d": 250,
      "v": 127
    },
    {
      "midi": 79,
      "hit": false,
      "t": 27250.000000000044,
      "d": 250,
      "v": 127
    },
    {
      "midi": 83,
      "hit": false,
      "t": 27500.000000000044,
      "d": 166.66666666666788,
      "v": 127
    },
    {
      "midi": 81,
      "hit": false,
      "t": 27666.66666666671,
      "d": 166.66666666666788,
      "v": 127
    },
    {
      "midi": 79,
      "hit": false,
      "t": 27833.33333333338,
      "d": 166.66666666666788,
      "v": 127
    },
    {
      "midi": 83,
      "hit": false,
      "t": 28000.000000000047,
      "d": 166.66666666666788,
      "v": 127
    },
    {
      "midi": 81,
      "hit": false,
      "t": 28166.666666666715,
      "d": 166.66666666666788,
      "v": 127
    },
    {
      "midi": 79,
      "hit": false,
      "t": 28333.333333333383,
      "d": 166.66666666666788,
      "v": 127
    },
    {
      "midi": 84,
      "hit": false,
      "t": 28666.66666666672,
      "d": 166.66666666666788,
      "v": 127
    },
    {
      "midi": 79,
      "hit": false,
      "t": 28833.333333333387,
      "d": 166.66666666666788,
      "v": 127
    },
    {
      "midi": 76,
      "hit": false,
      "t": 29000.000000000055,
      "d": 166.66666666666788,
      "v": 127
    },
    {
      "midi": 79,
      "hit": false,
      "t": 29166.666666666722,
      "d": 166.66666666666788,
      "v": 127
    },
    {
      "midi": 76,
      "hit": false,
      "t": 29333.33333333339,
      "d": 166.66666666666788,
      "v": 127
    },
    {
      "midi": 79,
      "hit": false,
      "t": 29666.666666666726,
      "d": 166.66666666666788,
      "v": 127
    },
    {
      "midi": 76,
      "hit": false,
      "t": 29833.333333333394,
      "d": 166.66666666666788,
      "v": 127
    },
    {
      "midi": 77,
      "hit": false,
      "t": 30166.66666666673,
      "d": 166.66666666666788,
      "v": 127
    },
    {
      "midi": 74,
      "hit": false,
      "t": 30333.333333333398,
      "d": 166.66666666666788,
      "v": 127
    },
    {
      "midi": 72,
      "hit": false,
      "t": 30666.666666666733,
      "d": 166.66666666666788,
      "v": 127
    },
    {
      "midi": 76,
      "hit": false,
      "t": 30833.3333333334,
      "d": 166.66666666666788,
      "v": 127
    },
    {
      "midi": 72,
      "hit": false,
      "t": 31166.666666666737,
      "d": 166.66666666666788,
      "v": 127
    },
    {
      "midi": 76,
      "hit": false,
      "t": 31333.333333333405,
      "d": 166.66666666666788,
      "v": 127
    },
    {
      "midi": 72,
      "hit": false,
      "t": 31500.000000000073,
      "d": 500,
      "v": 127
    }
  ]
}