{
  "jsonPath": "Classical/Classical Era/Jan Ladislav Dussek/dussek-op46-5.json",
  "path": "Classical\\Classical Era\\Jan Ladislav Dussek\\Dussek Op46 5.mid",
  "name": "Dussek Op46 5",
  "difficulty": "Advanced",
  "bpm": 110.00011000011,
  "notes": [
    {
      "midi": 69,
      "hit": false,
      "t": 0,
      "d": 272.72700000000003,
      "v": 127
    },
    {
      "midi": 62,
      "hit": false,
      "t": 272.72700000000003,
      "d": 272.72700000000003,
      "v": 127
    },
    {
      "midi": 66,
      "hit": false,
      "t": 272.72700000000003,
      "d": 272.72700000000003,
      "v": 127
    },
    {
      "midi": 50,
      "hit": false,
      "t": 272.72700000000003,
      "d": 1363.635,
      "v": 127
    },
    {
      "midi": 57,
      "hit": false,
      "t": 545.4540000000001,
      "d": 272.727,
      "v": 127
    },
    {
      "midi": 62,
      "hit": false,
      "t": 818.181,
      "d": 272.7270000000001,
      "v": 127
    },
    {
      "midi": 66,
      "hit": false,
      "t": 818.181,
      "d": 272.7270000000001,
      "v": 127
    },
    {
      "midi": 57,
      "hit": false,
      "t": 1090.9080000000001,
      "d": 272.7270000000001,
      "v": 127
    },
    {
      "midi": 62,
      "hit": false,
      "t": 1363.6350000000002,
      "d": 272.7270000000001,
      "v": 127
    },
    {
      "midi": 66,
      "hit": false,
      "t": 1363.6350000000002,
      "d": 272.7270000000001,
      "v": 127
    },
    {
      "midi": 57,
      "hit": false,
      "t": 1636.3620000000003,
      "d": 272.7270000000001,
      "v": 127
    },
    {
      "midi": 50,
      "hit": false,
      "t": 1909.0890000000002,
      "d": 1363.635,
      "v": 127
    },
    {
      "midi": 66,
      "hit": false,
      "t": 1909.0890000000004,
      "d": 272.72699999999986,
      "v": 127
    },
    {
      "midi": 69,
      "hit": false,
      "t": 1909.0890000000004,
      "d": 272.72699999999986,
      "v": 127
    },
    {
      "midi": 57,
      "hit": false,
      "t": 2181.8160000000003,
      "d": 272.72699999999986,
      "v": 127
    },
    {
      "midi": 66,
      "hit": false,
      "t": 2454.543,
      "d": 272.72699999999986,
      "v": 127
    },
    {
      "midi": 69,
      "hit": false,
      "t": 2454.543,
      "d": 272.72699999999986,
      "v": 127
    },
    {
      "midi": 57,
      "hit": false,
      "t": 2727.27,
      "d": 272.72699999999986,
      "v": 127
    },
    {
      "midi": 65,
      "hit": false,
      "t": 2999.997,
      "d": 272.72699999999986,
      "v": 127
    },
    {
      "midi": 68,
      "hit": false,
      "t": 2999.997,
      "d": 272.72699999999986,
      "v": 127
    },
    {
      "midi": 57,
      "hit": false,
      "t": 3272.7239999999997,
      "d": 272.72699999999986,
      "v": 127
    },
    {
      "midi": 66,
      "hit": false,
      "t": 3545.4509999999996,
      "d": 272.72699999999986,
      "v": 127
    },
    {
      "midi": 69,
      "hit": false,
      "t": 3545.4509999999996,
      "d": 272.72699999999986,
      "v": 127
    },
    {
      "midi": 50,
      "hit": false,
      "t": 3545.451,
      "d": 1363.6350000000002,
      "v": 127
    },
    {
      "midi": 57,
      "hit": false,
      "t": 3818.1779999999994,
      "d": 272.72699999999986,
      "v": 127
    },
    {
      "midi": 66,
      "hit": false,
      "t": 4090.9049999999993,
      "d": 272.7270000000003,
      "v": 127
    },
    {
      "midi": 69,
      "hit": false,
      "t": 4090.9049999999993,
      "d": 272.7270000000003,
      "v": 127
    },
    {
      "midi": 57,
      "hit": false,
      "t": 4363.632,
      "d": 272.72699999999986,
      "v": 127
    },
    {
      "midi": 65,
      "hit": false,
      "t": 4636.3589999999995,
      "d": 272.72699999999986,
      "v": 127
    },
    {
      "midi": 68,
      "hit": false,
      "t": 4636.3589999999995,
      "d": 272.72699999999986,
      "v": 127
    },
    {
      "midi": 57,
      "hit": false,
      "t": 4909.085999999999,
      "d": 272.72699999999986,
      "v": 127
    },
    {
      "midi": 66,
      "hit": false,
      "t": 5181.812999999999,
      "d": 545.4539999999997,
      "v": 127
    },
    {
      "midi": 69,
      "hit": false,
      "t": 5181.812999999999,
      "d": 545.4539999999997,
      "v": 127
    },
    {
      "midi": 50,
      "hit": false,
      "t": 5181.813,
      "d": 1090.9080000000004,
      "v": 127
    },
    {
      "midi": 69,
      "hit": false,
      "t": 5999.993999999999,
      "d": 272.72699999999986,
      "v": 127
    },
    {
      "midi": 81,
      "hit": false,
      "t": 6272.720999999999,
      "d": 272.72699999999986,
      "v": 127
    },
    {
      "midi": 78,
      "hit": false,
      "t": 6545.4479999999985,
      "d": 272.72699999999986,
      "v": 127
    },
    {
      "midi": 74,
      "hit": false,
      "t": 6818.174999999998,
      "d": 545.4539999999997,
      "v": 127
    },
    {
      "midi": 66,
      "hit": false,
      "t": 6818.175,
      "d": 272.72699999999986,
      "v": 127
    },
    {
      "midi": 69,
      "hit": false,
      "t": 7090.902,
      "d": 272.72699999999986,
      "v": 127
    },
    {
      "midi": 74,
      "hit": false,
      "t": 7363.628999999998,
      "d": 545.4539999999997,
      "v": 127
    },
    {
      "midi": 66,
      "hit": false,
      "t": 7363.629,
      "d": 272.72699999999986,
      "v": 127
    },
    {
      "midi": 69,
      "hit": false,
      "t": 7636.356,
      "d": 272.72699999999986,
      "v": 127
    },
    {
      "midi": 78,
      "hit": false,
      "t": 7909.082999999998,
      "d": 136.36350000000039,
      "v": 127
    },
    {
      "midi": 67,
      "hit": false,
      "t": 7909.083,
      "d": 272.72699999999986,
      "v": 127
    },
    {
      "midi": 76,
      "hit": false,
      "t": 8045.446499999998,
      "d": 136.36350000000039,
      "v": 127
    },
    {
      "midi": 74,
      "hit": false,
      "t": 8181.809999999999,
      "d": 136.36350000000039,
      "v": 127
    },
    {
      "midi": 69,
      "hit": false,
      "t": 8181.8099999999995,
      "d": 272.72700000000077,
      "v": 127
    },
    {
      "midi": 76,
      "hit": false,
      "t": 8318.173499999999,
      "d": 136.36349999999948,
      "v": 127
    },
    {
      "midi": 74,
      "hit": false,
      "t": 8454.536999999998,
      "d": 545.4539999999997,
      "v": 127
    },
    {
      "midi": 66,
      "hit": false,
      "t": 8454.537,
      "d": 272.72700000000077,
      "v": 127
    },
    {
      "midi": 69,
      "hit": false,
      "t": 8727.264000000001,
      "d": 272.72700000000077,
      "v": 127
    },
    {
      "midi": 66,
      "hit": false,
      "t": 8999.991000000002,
      "d": 272.72700000000077,
      "v": 127
    },
    {
      "midi": 86,
      "hit": false,
      "t": 9272.717999999999,
      "d": 272.72700000000077,
      "v": 127
    },
    {
      "midi": 69,
      "hit": false,
      "t": 9272.718000000003,
      "d": 272.72700000000077,
      "v": 127
    },
    {
      "midi": 81,
      "hit": false,
      "t": 9545.445,
      "d": 272.72700000000077,
      "v": 127
    },
    {
      "midi": 66,
      "hit": false,
      "t": 9545.445000000003,
      "d": 272.72700000000077,
      "v": 127
    },
    {
      "midi": 78,
      "hit": false,
      "t": 9818.172,
      "d": 272.72700000000077,
      "v": 127
    },
    {
      "midi": 69,
      "hit": false,
      "t": 9818.172000000004,
      "d": 272.72700000000077,
      "v": 127
    },
    {
      "midi": 74,
      "hit": false,
      "t": 10090.899000000001,
      "d": 545.4539999999997,
      "v": 127
    },
    {
      "midi": 66,
      "hit": false,
      "t": 10090.899000000005,
      "d": 272.72700000000077,
      "v": 127
    },
    {
      "midi": 69,
      "hit": false,
      "t": 10363.626000000006,
      "d": 272.72700000000077,
      "v": 127
    },
    {
      "midi": 74,
      "hit": false,
      "t": 10636.353000000001,
      "d": 545.4539999999997,
      "v": 127
    },
    {
      "midi": 66,
      "hit": false,
      "t": 10636.353000000006,
      "d": 272.72700000000077,
      "v": 127
    },
    {
      "midi": 69,
      "hit": false,
      "t": 10909.080000000007,
      "d": 272.72700000000077,
      "v": 127
    },
    {
      "midi": 78,
      "hit": false,
      "t": 11181.807,
      "d": 136.36349999999948,
      "v": 127
    },
    {
      "midi": 67,
      "hit": false,
      "t": 11181.807000000008,
      "d": 272.72700000000077,
      "v": 127
    },
    {
      "midi": 76,
      "hit": false,
      "t": 11318.1705,
      "d": 136.36349999999948,
      "v": 127
    },
    {
      "midi": 74,
      "hit": false,
      "t": 11454.534,
      "d": 136.36349999999948,
      "v": 127
    },
    {
      "midi": 69,
      "hit": false,
      "t": 11454.534000000009,
      "d": 272.72700000000077,
      "v": 127
    },
    {
      "midi": 76,
      "hit": false,
      "t": 11590.8975,
      "d": 136.36349999999948,
      "v": 127
    },
    {
      "midi": 74,
      "hit": false,
      "t": 11727.260999999999,
      "d": 545.4539999999997,
      "v": 127
    },
    {
      "midi": 66,
      "hit": false,
      "t": 11727.26100000001,
      "d": 272.72700000000077,
      "v": 127
    },
    {
      "midi": 69,
      "hit": false,
      "t": 11999.98800000001,
      "d": 272.72700000000077,
      "v": 127
    },
    {
      "midi": 66,
      "hit": false,
      "t": 12272.715000000011,
      "d": 545.4539999999997,
      "v": 127
    },
    {
      "midi": 74,
      "hit": false,
      "t": 12545.442,
      "d": 272.72700000000077,
      "v": 127
    },
    {
      "midi": 78,
      "hit": false,
      "t": 12818.169,
      "d": 272.72700000000077,
      "v": 127
    },
    {
      "midi": 81,
      "hit": false,
      "t": 13090.896,
      "d": 272.72700000000077,
      "v": 127
    },
    {
      "midi": 76,
      "hit": false,
      "t": 13363.623000000001,
      "d": 545.4539999999997,
      "v": 127
    },
    {
      "midi": 79,
      "hit": false,
      "t": 13363.623000000001,
      "d": 545.4539999999997,
      "v": 127
    },
    {
      "midi": 61,
      "hit": false,
      "t": 13363.62300000001,
      "d": 545.4539999999997,
      "v": 127
    },
    {
      "midi": 74,
      "hit": false,
      "t": 13909.077000000001,
      "d": 545.4539999999997,
      "v": 127
    },
    {
      "midi": 78,
      "hit": false,
      "t": 13909.077000000001,
      "d": 545.4539999999997,
      "v": 127
    },
    {
      "midi": 62,
      "hit": false,
      "t": 13909.07700000001,
      "d": 545.4539999999997,
      "v": 127
    },
    {
      "midi": 78,
      "hit": false,
      "t": 14454.531,
      "d": 272.72700000000077,
      "v": 127
    },
    {
      "midi": 81,
      "hit": false,
      "t": 14454.531,
      "d": 272.72700000000077,
      "v": 127
    },
    {
      "midi": 78,
      "hit": false,
      "t": 14863.621500000001,
      "d": 136.36349999999948,
      "v": 127
    },
    {
      "midi": 81,
      "hit": false,
      "t": 14863.621500000001,
      "d": 136.36349999999948,
      "v": 127
    },
    {
      "midi": 76,
      "hit": false,
      "t": 14999.985,
      "d": 545.4539999999997,
      "v": 127
    },
    {
      "midi": 79,
      "hit": false,
      "t": 14999.985,
      "d": 545.4539999999997,
      "v": 127
    },
    {
      "midi": 61,
      "hit": false,
      "t": 14999.98500000001,
      "d": 545.4539999999997,
      "v": 127
    },
    {
      "midi": 74,
      "hit": false,
      "t": 15545.439,
      "d": 545.4539999999997,
      "v": 127
    },
    {
      "midi": 78,
      "hit": false,
      "t": 15545.439,
      "d": 545.4539999999997,
      "v": 127
    },
    {
      "midi": 62,
      "hit": false,
      "t": 15545.43900000001,
      "d": 545.4539999999997,
      "v": 127
    },
    {
      "midi": 81,
      "hit": false,
      "t": 16090.893,
      "d": 272.72700000000077,
      "v": 127
    },
    {
      "midi": 78,
      "hit": false,
      "t": 16363.62,
      "d": 272.72700000000077,
      "v": 127
    },
    {
      "midi": 73,
      "hit": false,
      "t": 16636.347,
      "d": 545.4540000000015,
      "v": 127
    },
    {
      "midi": 76,
      "hit": false,
      "t": 16636.347,
      "d": 545.4540000000015,
      "v": 127
    },
    {
      "midi": 57,
      "hit": false,
      "t": 16636.34700000001,
      "d": 545.4540000000015,
      "v": 127
    },
    {
      "midi": 73,
      "hit": false,
      "t": 17181.801000000003,
      "d": 545.4540000000015,
      "v": 127
    },
    {
      "midi": 76,
      "hit": false,
      "t": 17181.801000000003,
      "d": 545.4540000000015,
      "v": 127
    },
    {
      "midi": 57,
      "hit": false,
      "t": 17181.80100000001,
      "d": 545.4540000000015,
      "v": 127
    },
    {
      "midi": 74,
      "hit": false,
      "t": 17727.255000000005,
      "d": 272.72699999999895,
      "v": 127
    },
    {
      "midi": 78,
      "hit": false,
      "t": 17727.255000000005,
      "d": 272.72699999999895,
      "v": 127
    },
    {
      "midi": 56,
      "hit": false,
      "t": 17727.255000000012,
      "d": 272.72699999999895,
      "v": 127
    },
    {
      "midi": 73,
      "hit": false,
      "t": 18272.709000000003,
      "d": 1090.9079999999994,
      "v": 127
    },
    {
      "midi": 76,
      "hit": false,
      "t": 18272.709000000003,
      "d": 1090.9079999999994,
      "v": 127
    },
    {
      "midi": 57,
      "hit": false,
      "t": 18272.70900000001,
      "d": 545.4540000000015,
      "v": 127
    },
    {
      "midi": 45,
      "hit": false,
      "t": 18818.16300000001,
      "d": 545.4540000000015,
      "v": 127
    },
    {
      "midi": 76,
      "hit": false,
      "t": 19363.617000000002,
      "d": 272.72699999999895,
      "v": 127
    },
    {
      "midi": 76,
      "hit": false,
      "t": 19772.7075,
      "d": 136.36349999999948,
      "v": 127
    },
    {
      "midi": 76,
      "hit": false,
      "t": 19909.071,
      "d": 545.4540000000015,
      "v": 127
    },
    {
      "midi": 52,
      "hit": false,
      "t": 19909.071000000014,
      "d": 1363.6349999999984,
      "v": 127
    },
    {
      "midi": 57,
      "hit": false,
      "t": 19909.071000000014,
      "d": 1363.6349999999984,
      "v": 127
    },
    {
      "midi": 61,
      "hit": false,
      "t": 19909.071000000014,
      "d": 1363.6349999999984,
      "v": 127
    },
    {
      "midi": 69,
      "hit": false,
      "t": 20454.525,
      "d": 545.4540000000015,
      "v": 127
    },
    {
      "midi": 76,
      "hit": false,
      "t": 20999.979000000003,
      "d": 272.72699999999895,
      "v": 127
    },
    {
      "midi": 76,
      "hit": false,
      "t": 21409.0695,
      "d": 136.36349999999948,
      "v": 127
    },
    {
      "midi": 76,
      "hit": false,
      "t": 21545.433,
      "d": 545.4540000000015,
      "v": 127
    },
    {
      "midi": 52,
      "hit": false,
      "t": 21545.43300000001,
      "d": 1363.6349999999984,
      "v": 127
    },
    {
      "midi": 59,
      "hit": false,
      "t": 21545.43300000001,
      "d": 1363.6349999999984,
      "v": 127
    },
    {
      "midi": 62,
      "hit": false,
      "t": 21545.43300000001,
      "d": 1363.6349999999984,
      "v": 127
    },
    {
      "midi": 68,
      "hit": false,
      "t": 22090.887000000002,
      "d": 545.4540000000015,
      "v": 127
    },
    {
      "midi": 76,
      "hit": false,
      "t": 22636.341000000004,
      "d": 272.72699999999895,
      "v": 127
    },
    {
      "midi": 76,
      "hit": false,
      "t": 23045.431500000002,
      "d": 136.36349999999948,
      "v": 127
    },
    {
      "midi": 76,
      "hit": false,
      "t": 23181.795000000002,
      "d": 545.4540000000015,
      "v": 127
    },
    {
      "midi": 57,
      "hit": false,
      "t": 23181.79500000001,
      "d": 545.4540000000015,
      "v": 127
    },
    {
      "midi": 73,
      "hit": false,
      "t": 23727.249000000003,
      "d": 545.4540000000015,
      "v": 127
    },
    {
      "midi": 81,
      "hit": false,
      "t": 23727.249000000003,
      "d": 545.4540000000015,
      "v": 127
    },
    {
      "midi": 57,
      "hit": false,
      "t": 23727.24900000001,
      "d": 272.72699999999895,
      "v": 127
    },
    {
      "midi": 59,
      "hit": false,
      "t": 23999.97600000001,
      "d": 272.72699999999895,
      "v": 127
    },
    {
      "midi": 73,
      "hit": false,
      "t": 24272.703000000005,
      "d": 272.72699999999895,
      "v": 127
    },
    {
      "midi": 81,
      "hit": false,
      "t": 24272.703000000005,
      "d": 272.72699999999895,
      "v": 127
    },
    {
      "midi": 61,
      "hit": false,
      "t": 24272.70300000001,
      "d": 272.72699999999895,
      "v": 127
    },
    {
      "midi": 62,
      "hit": false,
      "t": 24545.430000000008,
      "d": 272.72699999999895,
      "v": 127
    },
    {
      "midi": 73,
      "hit": false,
      "t": 24818.157000000003,
      "d": 545.4540000000015,
      "v": 127
    },
    {
      "midi": 81,
      "hit": false,
      "t": 24818.157000000003,
      "d": 545.4540000000015,
      "v": 127
    },
    {
      "midi": 64,
      "hit": false,
      "t": 24818.157000000007,
      "d": 1090.9079999999994,
      "v": 127
    },
    {
      "midi": 71,
      "hit": false,
      "t": 25363.611000000004,
      "d": 545.4540000000015,
      "v": 127
    },
    {
      "midi": 80,
      "hit": false,
      "t": 25363.611000000004,
      "d": 545.4540000000015,
      "v": 127
    },
    {
      "midi": 76,
      "hit": false,
      "t": 25909.065000000006,
      "d": 272.72699999999895,
      "v": 127
    },
    {
      "midi": 76,
      "hit": false,
      "t": 26318.155500000004,
      "d": 136.36349999999948,
      "v": 127
    },
    {
      "midi": 76,
      "hit": false,
      "t": 26454.519000000004,
      "d": 545.4540000000015,
      "v": 127
    },
    {
      "midi": 52,
      "hit": false,
      "t": 26454.519000000008,
      "d": 1363.6349999999984,
      "v": 127
    },
    {
      "midi": 57,
      "hit": false,
      "t": 26454.519000000008,
      "d": 1363.6349999999984,
      "v": 127
    },
    {
      "midi": 60,
      "hit": false,
      "t": 26454.519000000008,
      "d": 1363.6349999999984,
      "v": 127
    },
    {
      "midi": 69,
      "hit": false,
      "t": 26999.973000000005,
      "d": 545.4540000000015,
      "v": 127
    },
    {
      "midi": 76,
      "hit": false,
      "t": 27545.427000000007,
      "d": 272.72699999999895,
      "v": 127
    },
    {
      "midi": 76,
      "hit": false,
      "t": 27954.517500000005,
      "d": 136.36349999999948,
      "v": 127
    },
    {
      "midi": 76,
      "hit": false,
      "t": 28090.881000000005,
      "d": 545.4540000000015,
      "v": 127
    },
    {
      "midi": 52,
      "hit": false,
      "t": 28090.881000000005,
      "d": 1363.6349999999984,
      "v": 127
    },
    {
      "midi": 59,
      "hit": false,
      "t": 28090.881000000005,
      "d": 1363.6349999999984,
      "v": 127
    },
    {
      "midi": 62,
      "hit": false,
      "t": 28090.881000000005,
      "d": 1363.6349999999984,
      "v": 127
    },
    {
      "midi": 68,
      "hit": false,
      "t": 28636.335000000006,
      "d": 545.4540000000015,
      "v": 127
    },
    {
      "midi": 76,
      "hit": false,
      "t": 29181.789000000008,
      "d": 272.72699999999895,
      "v": 127
    },
    {
      "midi": 76,
      "hit": false,
      "t": 29590.879500000006,
      "d": 136.36349999999948,
      "v": 127
    },
    {
      "midi": 57,
      "hit": false,
      "t": 29727.243000000002,
      "d": 545.4540000000015,
      "v": 127
    },
    {
      "midi": 60,
      "hit": false,
      "t": 29727.243000000002,
      "d": 545.4540000000015,
      "v": 127
    },
    {
      "midi": 76,
      "hit": false,
      "t": 29727.243000000006,
      "d": 545.4540000000015,
      "v": 127
    },
    {
      "midi": 57,
      "hit": false,
      "t": 30272.697000000004,
      "d": 272.72699999999895,
      "v": 127
    },
    {
      "midi": 72,
      "hit": false,
      "t": 30272.697000000007,
      "d": 545.4540000000015,
      "v": 127
    },
    {
      "midi": 81,
      "hit": false,
      "t": 30272.697000000007,
      "d": 545.4540000000015,
      "v": 127
    },
    {
      "midi": 59,
      "hit": false,
      "t": 30545.424000000003,
      "d": 272.72699999999895,
      "v": 127
    },
    {
      "midi": 60,
      "hit": false,
      "t": 30818.151,
      "d": 272.72699999999895,
      "v": 127
    },
    {
      "midi": 72,
      "hit": false,
      "t": 30818.15100000001,
      "d": 272.72699999999895,
      "v": 127
    },
    {
      "midi": 81,
      "hit": false,
      "t": 30818.15100000001,
      "d": 272.72699999999895,
      "v": 127
    },
    {
      "midi": 62,
      "hit": false,
      "t": 31090.878,
      "d": 272.72699999999895,
      "v": 127
    },
    {
      "midi": 64,
      "hit": false,
      "t": 31363.605,
      "d": 1090.9079999999994,
      "v": 127
    },
    {
      "midi": 73,
      "hit": false,
      "t": 31363.605000000007,
      "d": 545.4540000000015,
      "v": 127
    },
    {
      "midi": 81,
      "hit": false,
      "t": 31363.605000000007,
      "d": 545.4540000000015,
      "v": 127
    },
    {
      "midi": 71,
      "hit": false,
      "t": 31909.05900000001,
      "d": 545.4540000000015,
      "v": 127
    },
    {
      "midi": 80,
      "hit": false,
      "t": 31909.05900000001,
      "d": 545.4540000000015,
      "v": 127
    },
    {
      "midi": 76,
      "hit": false,
      "t": 32454.51300000001,
      "d": 272.72699999999895,
      "v": 127
    },
    {
      "midi": 41,
      "hit": false,
      "t": 32999.967,
      "d": 272.72699999999895,
      "v": 127
    },
    {
      "midi": 69,
      "hit": false,
      "t": 33136.33050000001,
      "d": 136.36349999999948,
      "v": 127
    },
    {
      "midi": 53,
      "hit": false,
      "t": 33272.693999999996,
      "d": 272.72699999999895,
      "v": 127
    },
    {
      "midi": 68,
      "hit": false,
      "t": 33272.69400000001,
      "d": 136.36349999999948,
      "v": 127
    },
    {
      "midi": 69,
      "hit": false,
      "t": 33409.05750000001,
      "d": 136.36349999999948,
      "v": 127
    },
    {
      "midi": 53,
      "hit": false,
      "t": 33545.420999999995,
      "d": 272.72699999999895,
      "v": 127
    },
    {
      "midi": 75,
      "hit": false,
      "t": 33545.42100000001,
      "d": 136.36349999999948,
      "v": 127
    },
    {
      "midi": 69,
      "hit": false,
      "t": 33681.78450000001,
      "d": 136.36349999999948,
      "v": 127
    },
    {
      "midi": 53,
      "hit": false,
      "t": 33818.147999999994,
      "d": 272.72699999999895,
      "v": 127
    },
    {
      "midi": 75,
      "hit": false,
      "t": 33818.14800000001,
      "d": 136.36349999999948,
      "v": 127
    },
    {
      "midi": 69,
      "hit": false,
      "t": 33954.51150000001,
      "d": 136.36349999999948,
      "v": 127
    },
    {
      "midi": 53,
      "hit": false,
      "t": 34090.87499999999,
      "d": 272.72699999999895,
      "v": 127
    },
    {
      "midi": 75,
      "hit": false,
      "t": 34090.87500000001,
      "d": 136.36349999999948,
      "v": 127
    },
    {
      "midi": 69,
      "hit": false,
      "t": 34227.23850000001,
      "d": 136.36349999999948,
      "v": 127
    },
    {
      "midi": 53,
      "hit": false,
      "t": 34363.60199999999,
      "d": 272.72699999999895,
      "v": 127
    },
    {
      "midi": 75,
      "hit": false,
      "t": 34363.602000000006,
      "d": 136.36349999999948,
      "v": 127
    },
    {
      "midi": 69,
      "hit": false,
      "t": 34499.965500000006,
      "d": 136.36349999999948,
      "v": 127
    },
    {
      "midi": 40,
      "hit": false,
      "t": 34636.32899999999,
      "d": 272.72699999999895,
      "v": 127
    },
    {
      "midi": 68,
      "hit": false,
      "t": 34636.329000000005,
      "d": 545.4539999999979,
      "v": 127
    },
    {
      "midi": 52,
      "hit": false,
      "t": 34909.05599999999,
      "d": 272.72699999999895,
      "v": 127
    },
    {
      "midi": 52,
      "hit": false,
      "t": 35181.78299999999,
      "d": 272.72699999999895,
      "v": 127
    },
    {
      "midi": 76,
      "hit": false,
      "t": 35181.783,
      "d": 136.36349999999948,
      "v": 127
    },
    {
      "midi": 78,
      "hit": false,
      "t": 35318.1465,
      "d": 136.36349999999948,
      "v": 127
    },
    {
      "midi": 52,
      "hit": false,
      "t": 35454.50999999999,
      "d": 272.72699999999895,
      "v": 127
    },
    {
      "midi": 80,
      "hit": false,
      "t": 35454.51,
      "d": 136.36349999999948,
      "v": 127
    },
    {
      "midi": 78,
      "hit": false,
      "t": 35590.8735,
      "d": 136.36349999999948,
      "v": 127
    },
    {
      "midi": 52,
      "hit": false,
      "t": 35727.23699999999,
      "d": 272.72699999999895,
      "v": 127
    },
    {
      "midi": 76,
      "hit": false,
      "t": 35727.237,
      "d": 272.72699999999895,
      "v": 127
    },
    {
      "midi": 52,
      "hit": false,
      "t": 35999.963999999985,
      "d": 272.72699999999895,
      "v": 127
    },
    {
      "midi": 41,
      "hit": false,
      "t": 36272.690999999984,
      "d": 272.72699999999895,
      "v": 127
    },
    {
      "midi": 69,
      "hit": false,
      "t": 36409.0545,
      "d": 136.36349999999948,
      "v": 127
    },
    {
      "midi": 53,
      "hit": false,
      "t": 36545.41799999998,
      "d": 272.72699999999895,
      "v": 127
    },
    {
      "midi": 68,
      "hit": false,
      "t": 36545.418,
      "d": 136.36349999999948,
      "v": 127
    },
    {
      "midi": 69,
      "hit": false,
      "t": 36681.7815,
      "d": 136.36349999999948,
      "v": 127
    },
    {
      "midi": 53,
      "hit": false,
      "t": 36818.14499999998,
      "d": 272.72699999999895,
      "v": 127
    },
    {
      "midi": 75,
      "hit": false,
      "t": 36818.145,
      "d": 136.36349999999948,
      "v": 127
    },
    {
      "midi": 69,
      "hit": false,
      "t": 36954.508499999996,
      "d": 136.36349999999948,
      "v": 127
    },
    {
      "midi": 53,
      "hit": false,
      "t": 37090.87199999998,
      "d": 272.72699999999895,
      "v": 127
    },
    {
      "midi": 75,
      "hit": false,
      "t": 37090.871999999996,
      "d": 136.36349999999948,
      "v": 127
    },
    {
      "midi": 69,
      "hit": false,
      "t": 37227.235499999995,
      "d": 136.36349999999948,
      "v": 127
    },
    {
      "midi": 53,
      "hit": false,
      "t": 37363.59899999998,
      "d": 272.72699999999895,
      "v": 127
    },
    {
      "midi": 75,
      "hit": false,
      "t": 37363.598999999995,
      "d": 136.36349999999948,
      "v": 127
    },
    {
      "midi": 69,
      "hit": false,
      "t": 37499.962499999994,
      "d": 136.36349999999948,
      "v": 127
    },
    {
      "midi": 53,
      "hit": false,
      "t": 37636.32599999998,
      "d": 272.72699999999895,
      "v": 127
    },
    {
      "midi": 75,
      "hit": false,
      "t": 37636.325999999994,
      "d": 136.36349999999948,
      "v": 127
    },
    {
      "midi": 69,
      "hit": false,
      "t": 37772.68949999999,
      "d": 136.36349999999948,
      "v": 127
    },
    {
      "midi": 52,
      "hit": false,
      "t": 37909.05299999998,
      "d": 1090.908000000003,
      "v": 127
    },
    {
      "midi": 68,
      "hit": false,
      "t": 37909.05299999999,
      "d": 545.4539999999979,
      "v": 127
    },
    {
      "midi": 64,
      "hit": false,
      "t": 38454.50699999999,
      "d": 545.4539999999979,
      "v": 127
    },
    {
      "midi": 76,
      "hit": false,
      "t": 38454.50699999999,
      "d": 545.4539999999979,
      "v": 127
    },
    {
      "midi": 76,
      "hit": false,
      "t": 38999.96099999999,
      "d": 272.72699999999895,
      "v": 127
    },
    {
      "midi": 73,
      "hit": false,
      "t": 39272.68799999999,
      "d": 272.72699999999895,
      "v": 127
    },
    {
      "midi": 49,
      "hit": false,
      "t": 39545.41499999998,
      "d": 136.36349999999948,
      "v": 127
    },
    {
      "midi": 69,
      "hit": false,
      "t": 39545.414999999986,
      "d": 545.4539999999979,
      "v": 127
    },
    {
      "midi": 57,
      "hit": false,
      "t": 39681.77849999998,
      "d": 136.36349999999948,
      "v": 127
    },
    {
      "midi": 56,
      "hit": false,
      "t": 39818.14199999998,
      "d": 136.36349999999948,
      "v": 127
    },
    {
      "midi": 57,
      "hit": false,
      "t": 39954.50549999998,
      "d": 136.36349999999948,
      "v": 127
    },
    {
      "midi": 49,
      "hit": false,
      "t": 40090.86899999998,
      "d": 545.4539999999979,
      "v": 127
    },
    {
      "midi": 81,
      "hit": false,
      "t": 40363.59599999998,
      "d": 136.36349999999948,
      "v": 127
    },
    {
      "midi": 80,
      "hit": false,
      "t": 40499.95949999998,
      "d": 136.36349999999948,
      "v": 127
    },
    {
      "midi": 81,
      "hit": false,
      "t": 40636.32299999998,
      "d": 272.72699999999895,
      "v": 127
    },
    {
      "midi": 81,
      "hit": false,
      "t": 40909.04999999998,
      "d": 272.72699999999895,
      "v": 127
    },
    {
      "midi": 50,
      "hit": false,
      "t": 41181.77699999997,
      "d": 136.36349999999948,
      "v": 127
    },
    {
      "midi": 81,
      "hit": false,
      "t": 41181.77699999998,
      "d": 545.4539999999979,
      "v": 127
    },
    {
      "midi": 57,
      "hit": false,
      "t": 41318.14049999997,
      "d": 136.36349999999948,
      "v": 127
    },
    {
      "midi": 56,
      "hit": false,
      "t": 41454.50399999997,
      "d": 136.36349999999948,
      "v": 127
    },
    {
      "midi": 57,
      "hit": false,
      "t": 41590.86749999997,
      "d": 136.36349999999948,
      "v": 127
    },
    {
      "midi": 50,
      "hit": false,
      "t": 41727.23099999997,
      "d": 545.4539999999979,
      "v": 127
    },
    {
      "midi": 71,
      "hit": false,
      "t": 41999.95799999998,
      "d": 136.36349999999948,
      "v": 127
    },
    {
      "midi": 73,
      "hit": false,
      "t": 42136.32149999998,
      "d": 136.36349999999948,
      "v": 127
    },
    {
      "midi": 76,
      "hit": false,
      "t": 42272.684999999976,
      "d": 136.36349999999948,
      "v": 127
    },
    {
      "midi": 74,
      "hit": false,
      "t": 42409.048499999975,
      "d": 136.36349999999948,
      "v": 127
    },
    {
      "midi": 73,
      "hit": false,
      "t": 42545.411999999975,
      "d": 136.36349999999948,
      "v": 127
    },
    {
      "midi": 71,
      "hit": false,
      "t": 42681.775499999974,
      "d": 136.36349999999948,
      "v": 127
    },
    {
      "midi": 52,
      "hit": false,
      "t": 42818.13899999997,
      "d": 136.36349999999948,
      "v": 127
    },
    {
      "midi": 73,
      "hit": false,
      "t": 42818.138999999974,
      "d": 545.4539999999979,
      "v": 127
    },
    {
      "midi": 57,
      "hit": false,
      "t": 42954.502499999966,
      "d": 136.36349999999948,
      "v": 127
    },
    {
      "midi": 56,
      "hit": false,
      "t": 43090.865999999965,
      "d": 136.36349999999948,
      "v": 127
    },
    {
      "midi": 57,
      "hit": false,
      "t": 43227.229499999965,
      "d": 136.36349999999948,
      "v": 127
    },
    {
      "midi": 52,
      "hit": false,
      "t": 43363.592999999964,
      "d": 545.4539999999979,
      "v": 127
    },
    {
      "midi": 81,
      "hit": false,
      "t": 43636.31999999997,
      "d": 136.36349999999948,
      "v": 127
    },
    {
      "midi": 80,
      "hit": false,
      "t": 43772.68349999997,
      "d": 136.36349999999948,
      "v": 127
    },
    {
      "midi": 81,
      "hit": false,
      "t": 43909.04699999997,
      "d": 272.72699999999895,
      "v": 127
    },
    {
      "midi": 81,
      "hit": false,
      "t": 44181.77399999997,
      "d": 272.72699999999895,
      "v": 127
    },
    {
      "midi": 54,
      "hit": false,
      "t": 44454.50099999996,
      "d": 136.36349999999948,
      "v": 127
    },
    {
      "midi": 81,
      "hit": false,
      "t": 44454.50099999997,
      "d": 545.4539999999979,
      "v": 127
    },
    {
      "midi": 57,
      "hit": false,
      "t": 44590.86449999996,
      "d": 136.36349999999948,
      "v": 127
    },
    {
      "midi": 56,
      "hit": false,
      "t": 44727.22799999996,
      "d": 136.36349999999948,
      "v": 127
    },
    {
      "midi": 57,
      "hit": false,
      "t": 44863.59149999996,
      "d": 136.36349999999948,
      "v": 127
    },
    {
      "midi": 54,
      "hit": false,
      "t": 44999.95499999996,
      "d": 545.4539999999979,
      "v": 127
    },
    {
      "midi": 74,
      "hit": false,
      "t": 45272.681999999964,
      "d": 136.36349999999948,
      "v": 127
    },
    {
      "midi": 76,
      "hit": false,
      "t": 45409.045499999964,
      "d": 136.36349999999948,
      "v": 127
    },
    {
      "midi": 79,
      "hit": false,
      "t": 45545.40899999996,
      "d": 136.36349999999948,
      "v": 127
    },
    {
      "midi": 78,
      "hit": false,
      "t": 45681.77249999996,
      "d": 136.36349999999948,
      "v": 127
    },
    {
      "midi": 76,
      "hit": false,
      "t": 45818.13599999996,
      "d": 136.36349999999948,
      "v": 127
    },
    {
      "midi": 74,
      "hit": false,
      "t": 45954.49949999996,
      "d": 136.36349999999948,
      "v": 127
    },
    {
      "midi": 49,
      "hit": false,
      "t": 46090.862999999954,
      "d": 272.72699999999895,
      "v": 127
    },
    {
      "midi": 76,
      "hit": false,
      "t": 46090.86299999996,
      "d": 818.1809999999969,
      "v": 127
    },
    {
      "midi": 57,
      "hit": false,
      "t": 46363.58999999995,
      "d": 272.72699999999895,
      "v": 127
    },
    {
      "midi": 49,
      "hit": false,
      "t": 46636.31699999995,
      "d": 272.72699999999895,
      "v": 127
    },
    {
      "midi": 57,
      "hit": false,
      "t": 46909.04399999995,
      "d": 272.72699999999895,
      "v": 127
    },
    {
      "midi": 78,
      "hit": false,
      "t": 46909.04399999996,
      "d": 272.72699999999895,
      "v": 127
    },
    {
      "midi": 49,
      "hit": false,
      "t": 47181.77099999995,
      "d": 272.72699999999895,
      "v": 127
    },
    {
      "midi": 80,
      "hit": false,
      "t": 47181.77099999996,
      "d": 272.72699999999895,
      "v": 127
    },
    {
      "midi": 57,
      "hit": false,
      "t": 47454.49799999995,
      "d": 272.72699999999895,
      "v": 127
    },
    {
      "midi": 81,
      "hit": false,
      "t": 47454.497999999956,
      "d": 272.72699999999895,
      "v": 127
    },
    {
      "midi": 50,
      "hit": false,
      "t": 47727.22499999995,
      "d": 272.72699999999895,
      "v": 127
    },
    {
      "midi": 79,
      "hit": false,
      "t": 47727.224999999955,
      "d": 272.72699999999895,
      "v": 127
    },
    {
      "midi": 57,
      "hit": false,
      "t": 47999.95199999995,
      "d": 272.72699999999895,
      "v": 127
    },
    {
      "midi": 78,
      "hit": false,
      "t": 47999.951999999954,
      "d": 272.72699999999895,
      "v": 127
    },
    {
      "midi": 50,
      "hit": false,
      "t": 48272.678999999946,
      "d": 272.72699999999895,
      "v": 127
    },
    {
      "midi": 76,
      "hit": false,
      "t": 48272.67899999995,
      "d": 272.72699999999895,
      "v": 127
    },
    {
      "midi": 57,
      "hit": false,
      "t": 48545.405999999944,
      "d": 272.72699999999895,
      "v": 127
    },
    {
      "midi": 74,
      "hit": false,
      "t": 48545.40599999995,
      "d": 272.72699999999895,
      "v": 127
    },
    {
      "midi": 50,
      "hit": false,
      "t": 48818.13299999994,
      "d": 272.72699999999895,
      "v": 127
    },
    {
      "midi": 73,
      "hit": false,
      "t": 48818.13299999995,
      "d": 272.72699999999895,
      "v": 127
    },
    {
      "midi": 57,
      "hit": false,
      "t": 49090.85999999994,
      "d": 272.72699999999895,
      "v": 127
    },
    {
      "midi": 71,
      "hit": false,
      "t": 49090.85999999995,
      "d": 272.72699999999895,
      "v": 127
    },
    {
      "midi": 52,
      "hit": false,
      "t": 49363.58699999994,
      "d": 272.72699999999895,
      "v": 127
    },
    {
      "midi": 57,
      "hit": false,
      "t": 49363.58699999994,
      "d": 272.72699999999895,
      "v": 127
    },
    {
      "midi": 76,
      "hit": false,
      "t": 49363.58699999995,
      "d": 818.1809999999969,
      "v": 127
    },
    {
      "midi": 52,
      "hit": false,
      "t": 49636.31399999994,
      "d": 272.72699999999895,
      "v": 127
    },
    {
      "midi": 57,
      "hit": false,
      "t": 49636.31399999994,
      "d": 272.72699999999895,
      "v": 127
    },
    {
      "midi": 52,
      "hit": false,
      "t": 49909.04099999994,
      "d": 272.72699999999895,
      "v": 127
    },
    {
      "midi": 57,
      "hit": false,
      "t": 49909.04099999994,
      "d": 272.72699999999895,
      "v": 127
    },
    {
      "midi": 52,
      "hit": false,
      "t": 50181.76799999994,
      "d": 272.72699999999895,
      "v": 127
    },
    {
      "midi": 57,
      "hit": false,
      "t": 50181.76799999994,
      "d": 272.72699999999895,
      "v": 127
    },
    {
      "midi": 73,
      "hit": false,
      "t": 50181.767999999945,
      "d": 136.36349999999948,
      "v": 127
    },
    {
      "midi": 69,
      "hit": false,
      "t": 50318.131499999945,
      "d": 136.36349999999948,
      "v": 127
    },
    {
      "midi": 52,
      "hit": false,
      "t": 50454.49499999994,
      "d": 272.72699999999895,
      "v": 127
    },
    {
      "midi": 56,
      "hit": false,
      "t": 50454.49499999994,
      "d": 272.72699999999895,
      "v": 127
    },
    {
      "midi": 71,
      "hit": false,
      "t": 50454.494999999944,
      "d": 272.72699999999895,
      "v": 127
    },
    {
      "midi": 52,
      "hit": false,
      "t": 50727.221999999936,
      "d": 272.72699999999895,
      "v": 127
    },
    {
      "midi": 56,
      "hit": false,
      "t": 50727.221999999936,
      "d": 272.72699999999895,
      "v": 127
    },
    {
      "midi": 57,
      "hit": false,
      "t": 50999.948999999935,
      "d": 272.72699999999895,
      "v": 127
    },
    {
      "midi": 69,
      "hit": false,
      "t": 50999.94899999994,
      "d": 545.4539999999979,
      "v": 127
    },
    {
      "midi": 57,
      "hit": false,
      "t": 51272.675999999934,
      "d": 272.72699999999895,
      "v": 127
    },
    {
      "midi": 57,
      "hit": false,
      "t": 51545.40299999993,
      "d": 272.72699999999895,
      "v": 127
    },
    {
      "midi": 73,
      "hit": false,
      "t": 51545.40299999994,
      "d": 136.36349999999948,
      "v": 127
    },
    {
      "midi": 79,
      "hit": false,
      "t": 51681.76649999994,
      "d": 136.36349999999948,
      "v": 127
    },
    {
      "midi": 57,
      "hit": false,
      "t": 51818.12999999993,
      "d": 272.72699999999895,
      "v": 127
    },
    {
      "midi": 73,
      "hit": false,
      "t": 51818.12999999994,
      "d": 136.36349999999948,
      "v": 127
    },
    {
      "midi": 79,
      "hit": false,
      "t": 51954.49349999994,
      "d": 136.36349999999948,
      "v": 127
    },
    {
      "midi": 57,
      "hit": false,
      "t": 52090.85699999993,
      "d": 272.72699999999895,
      "v": 127
    },
    {
      "midi": 73,
      "hit": false,
      "t": 52090.85699999994,
      "d": 136.36349999999948,
      "v": 127
    },
    {
      "midi": 79,
      "hit": false,
      "t": 52227.22049999994,
      "d": 136.36349999999948,
      "v": 127
    },
    {
      "midi": 57,
      "hit": false,
      "t": 52363.58399999993,
      "d": 272.72699999999895,
      "v": 127
    },
    {
      "midi": 73,
      "hit": false,
      "t": 52363.58399999994,
      "d": 136.36349999999948,
      "v": 127
    },
    {
      "midi": 79,
      "hit": false,
      "t": 52499.94749999994,
      "d": 136.36349999999948,
      "v": 127
    },
    {
      "midi": 45,
      "hit": false,
      "t": 52636.31099999993,
      "d": 272.72699999999895,
      "v": 127
    },
    {
      "midi": 74,
      "hit": false,
      "t": 52636.310999999936,
      "d": 545.4539999999979,
      "v": 127
    },
    {
      "midi": 78,
      "hit": false,
      "t": 52636.310999999936,
      "d": 545.4539999999979,
      "v": 127
    },
    {
      "midi": 57,
      "hit": false,
      "t": 52909.03799999993,
      "d": 272.72699999999895,
      "v": 127
    },
    {
      "midi": 57,
      "hit": false,
      "t": 53181.76499999993,
      "d": 272.72699999999895,
      "v": 127
    },
    {
      "midi": 71,
      "hit": false,
      "t": 53181.764999999934,
      "d": 545.4539999999979,
      "v": 127
    },
    {
      "midi": 80,
      "hit": false,
      "t": 53181.764999999934,
      "d": 545.4539999999979,
      "v": 127
    },
    {
      "midi": 57,
      "hit": false,
      "t": 53454.491999999926,
      "d": 272.72699999999895,
      "v": 127
    },
    {
      "midi": 57,
      "hit": false,
      "t": 53727.218999999925,
      "d": 272.72699999999895,
      "v": 127
    },
    {
      "midi": 71,
      "hit": false,
      "t": 53727.21899999993,
      "d": 272.72699999999895,
      "v": 127
    },
    {
      "midi": 80,
      "hit": false,
      "t": 53727.21899999993,
      "d": 272.72699999999895,
      "v": 127
    },
    {
      "midi": 57,
      "hit": false,
      "t": 53999.94599999992,
      "d": 272.72699999999895,
      "v": 127
    },
    {
      "midi": 45,
      "hit": false,
      "t": 54272.67299999992,
      "d": 272.72699999999895,
      "v": 127
    },
    {
      "midi": 73,
      "hit": false,
      "t": 54272.67299999993,
      "d": 545.4539999999979,
      "v": 127
    },
    {
      "midi": 81,
      "hit": false,
      "t": 54272.67299999993,
      "d": 545.4539999999979,
      "v": 127
    },
    {
      "midi": 57,
      "hit": false,
      "t": 54545.39999999992,
      "d": 272.72699999999895,
      "v": 127
    },
    {
      "midi": 57,
      "hit": false,
      "t": 54818.12699999992,
      "d": 272.72699999999895,
      "v": 127
    },
    {
      "midi": 73,
      "hit": false,
      "t": 54818.12699999993,
      "d": 136.36349999999948,
      "v": 127
    },
    {
      "midi": 79,
      "hit": false,
      "t": 54954.49049999993,
      "d": 136.36349999999948,
      "v": 127
    },
    {
      "midi": 57,
      "hit": false,
      "t": 55090.85399999992,
      "d": 272.72699999999895,
      "v": 127
    },
    {
      "midi": 73,
      "hit": false,
      "t": 55090.85399999993,
      "d": 136.36349999999948,
      "v": 127
    },
    {
      "midi": 79,
      "hit": false,
      "t": 55227.217499999926,
      "d": 136.36349999999948,
      "v": 127
    },
    {
      "midi": 57,
      "hit": false,
      "t": 55363.58099999992,
      "d": 272.72699999999895,
      "v": 127
    },
    {
      "midi": 73,
      "hit": false,
      "t": 55363.580999999926,
      "d": 136.36349999999948,
      "v": 127
    },
    {
      "midi": 79,
      "hit": false,
      "t": 55499.944499999925,
      "d": 136.36349999999948,
      "v": 127
    },
    {
      "midi": 57,
      "hit": false,
      "t": 55636.30799999992,
      "d": 272.72699999999895,
      "v": 127
    },
    {
      "midi": 73,
      "hit": false,
      "t": 55636.307999999925,
      "d": 136.36349999999948,
      "v": 127
    },
    {
      "midi": 79,
      "hit": false,
      "t": 55772.671499999924,
      "d": 136.36349999999948,
      "v": 127
    },
    {
      "midi": 45,
      "hit": false,
      "t": 55909.034999999916,
      "d": 272.72699999999895,
      "v": 127
    },
    {
      "midi": 74,
      "hit": false,
      "t": 55909.03499999992,
      "d": 545.4539999999979,
      "v": 127
    },
    {
      "midi": 78,
      "hit": false,
      "t": 55909.03499999992,
      "d": 545.4539999999979,
      "v": 127
    },
    {
      "midi": 57,
      "hit": false,
      "t": 56181.761999999915,
      "d": 272.72699999999895,
      "v": 127
    },
    {
      "midi": 57,
      "hit": false,
      "t": 56454.488999999914,
      "d": 272.72699999999895,
      "v": 127
    },
    {
      "midi": 71,
      "hit": false,
      "t": 56454.48899999992,
      "d": 545.4539999999979,
      "v": 127
    },
    {
      "midi": 80,
      "hit": false,
      "t": 56454.48899999992,
      "d": 545.4539999999979,
      "v": 127
    },
    {
      "midi": 57,
      "hit": false,
      "t": 56727.21599999991,
      "d": 272.72699999999895,
      "v": 127
    },
    {
      "midi": 57,
      "hit": false,
      "t": 56999.94299999991,
      "d": 272.72699999999895,
      "v": 127
    },
    {
      "midi": 71,
      "hit": false,
      "t": 56999.94299999992,
      "d": 272.72699999999895,
      "v": 127
    },
    {
      "midi": 80,
      "hit": false,
      "t": 56999.94299999992,
      "d": 272.72699999999895,
      "v": 127
    },
    {
      "midi": 57,
      "hit": false,
      "t": 57272.66999999991,
      "d": 272.72699999999895,
      "v": 127
    },
    {
      "midi": 45,
      "hit": false,
      "t": 57545.39699999991,
      "d": 272.72699999999895,
      "v": 127
    },
    {
      "midi": 73,
      "hit": false,
      "t": 57545.39699999992,
      "d": 545.4539999999979,
      "v": 127
    },
    {
      "midi": 81,
      "hit": false,
      "t": 57545.39699999992,
      "d": 545.4539999999979,
      "v": 127
    },
    {
      "midi": 57,
      "hit": false,
      "t": 57818.12399999991,
      "d": 272.72699999999895,
      "v": 127
    },
    {
      "midi": 52,
      "hit": false,
      "t": 58090.85099999991,
      "d": 272.72699999999895,
      "v": 127
    },
    {
      "midi": 73,
      "hit": false,
      "t": 58090.850999999915,
      "d": 545.4539999999979,
      "v": 127
    },
    {
      "midi": 81,
      "hit": false,
      "t": 58090.850999999915,
      "d": 545.4539999999979,
      "v": 127
    },
    {
      "midi": 57,
      "hit": false,
      "t": 58363.57799999991,
      "d": 272.72699999999895,
      "v": 127
    },
    {
      "midi": 49,
      "hit": false,
      "t": 58636.304999999906,
      "d": 272.72699999999895,
      "v": 127
    },
    {
      "midi": 73,
      "hit": false,
      "t": 58636.30499999991,
      "d": 272.72699999999895,
      "v": 127
    },
    {
      "midi": 81,
      "hit": false,
      "t": 58636.30499999991,
      "d": 272.72699999999895,
      "v": 127
    },
    {
      "midi": 52,
      "hit": false,
      "t": 58909.031999999905,
      "d": 272.72699999999895,
      "v": 127
    },
    {
      "midi": 45,
      "hit": false,
      "t": 59181.7589999999,
      "d": 545.4539999999979,
      "v": 127
    },
    {
      "midi": 73,
      "hit": false,
      "t": 59181.75899999991,
      "d": 1090.908000000003,
      "v": 127
    },
    {
      "midi": 81,
      "hit": false,
      "t": 59181.75899999991,
      "d": 1090.908000000003,
      "v": 127
    },
    {
      "midi": 57,
      "hit": false,
      "t": 59727.2129999999,
      "d": 545.4539999999979,
      "v": 127
    },
    {
      "midi": 76,
      "hit": false,
      "t": 60272.666999999914,
      "d": 272.72699999999895,
      "v": 127
    },
    {
      "midi": 57,
      "hit": false,
      "t": 60818.1209999999,
      "d": 1363.635000000002,
      "v": 127
    },
    {
      "midi": 69,
      "hit": false,
      "t": 60818.12099999991,
      "d": 272.72699999999895,
      "v": 127
    },
    {
      "midi": 73,
      "hit": false,
      "t": 60818.12099999991,
      "d": 272.72699999999895,
      "v": 127
    },
    {
      "midi": 64,
      "hit": false,
      "t": 61090.84799999991,
      "d": 272.72699999999895,
      "v": 127
    },
    {
      "midi": 69,
      "hit": false,
      "t": 61363.57499999991,
      "d": 272.72699999999895,
      "v": 127
    },
    {
      "midi": 73,
      "hit": false,
      "t": 61363.57499999991,
      "d": 272.72699999999895,
      "v": 127
    },
    {
      "midi": 64,
      "hit": false,
      "t": 61636.30199999991,
      "d": 272.72699999999895,
      "v": 127
    },
    {
      "midi": 71,
      "hit": false,
      "t": 61909.02899999991,
      "d": 272.72699999999895,
      "v": 127
    },
    {
      "midi": 74,
      "hit": false,
      "t": 61909.02899999991,
      "d": 272.72699999999895,
      "v": 127
    },
    {
      "midi": 64,
      "hit": false,
      "t": 62181.75599999991,
      "d": 272.72699999999895,
      "v": 127
    },
    {
      "midi": 57,
      "hit": false,
      "t": 62454.4829999999,
      "d": 1363.635000000002,
      "v": 127
    },
    {
      "midi": 73,
      "hit": false,
      "t": 62454.482999999906,
      "d": 272.72699999999895,
      "v": 127
    },
    {
      "midi": 76,
      "hit": false,
      "t": 62454.482999999906,
      "d": 272.72699999999895,
      "v": 127
    },
    {
      "midi": 64,
      "hit": false,
      "t": 62727.209999999905,
      "d": 272.72699999999895,
      "v": 127
    },
    {
      "midi": 73,
      "hit": false,
      "t": 62999.9369999999,
      "d": 272.72699999999895,
      "v": 127
    },
    {
      "midi": 76,
      "hit": false,
      "t": 62999.9369999999,
      "d": 272.72699999999895,
      "v": 127
    },
    {
      "midi": 64,
      "hit": false,
      "t": 63272.6639999999,
      "d": 272.72699999999895,
      "v": 127
    },
    {
      "midi": 72,
      "hit": false,
      "t": 63545.3909999999,
      "d": 272.72699999999895,
      "v": 127
    },
    {
      "midi": 75,
      "hit": false,
      "t": 63545.3909999999,
      "d": 272.72699999999895,
      "v": 127
    },
    {
      "midi": 64,
      "hit": false,
      "t": 63818.1179999999,
      "d": 272.72699999999895,
      "v": 127
    },
    {
      "midi": 73,
      "hit": false,
      "t": 64090.8449999999,
      "d": 272.72699999999895,
      "v": 127
    },
    {
      "midi": 76,
      "hit": false,
      "t": 64090.8449999999,
      "d": 272.72699999999895,
      "v": 127
    },
    {
      "midi": 57,
      "hit": false,
      "t": 64090.8449999999,
      "d": 1363.635000000002,
      "v": 127
    },
    {
      "midi": 64,
      "hit": false,
      "t": 64363.5719999999,
      "d": 272.72699999999895,
      "v": 127
    },
    {
      "midi": 73,
      "hit": false,
      "t": 64636.2989999999,
      "d": 272.72699999999895,
      "v": 127
    },
    {
      "midi": 76,
      "hit": false,
      "t": 64636.2989999999,
      "d": 272.72699999999895,
      "v": 127
    },
    {
      "midi": 64,
      "hit": false,
      "t": 64909.025999999896,
      "d": 272.72699999999895,
      "v": 127
    },
    {
      "midi": 72,
      "hit": false,
      "t": 65181.752999999895,
      "d": 272.72699999999895,
      "v": 127
    },
    {
      "midi": 75,
      "hit": false,
      "t": 65181.752999999895,
      "d": 272.72699999999895,
      "v": 127
    },
    {
      "midi": 64,
      "hit": false,
      "t": 65454.479999999894,
      "d": 272.72699999999895,
      "v": 127
    },
    {
      "midi": 73,
      "hit": false,
      "t": 65727.2069999999,
      "d": 545.4539999999979,
      "v": 127
    },
    {
      "midi": 76,
      "hit": false,
      "t": 65727.2069999999,
      "d": 545.4539999999979,
      "v": 127
    },
    {
      "midi": 57,
      "hit": false,
      "t": 65727.20699999991,
      "d": 545.4539999999979,
      "v": 127
    },
    {
      "midi": 45,
      "hit": false,
      "t": 66272.6609999999,
      "d": 545.4539999999979,
      "v": 127
    },
    {
      "midi": 76,
      "hit": false,
      "t": 66545.38799999989,
      "d": 272.72699999999895,
      "v": 127
    },
    {
      "midi": 88,
      "hit": false,
      "t": 66818.11499999989,
      "d": 272.72699999999895,
      "v": 127
    },
    {
      "midi": 85,
      "hit": false,
      "t": 67090.84199999989,
      "d": 272.72699999999895,
      "v": 127
    },
    {
      "midi": 81,
      "hit": false,
      "t": 67363.56899999989,
      "d": 545.4539999999979,
      "v": 127
    },
    {
      "midi": 73,
      "hit": false,
      "t": 67363.5689999999,
      "d": 272.72699999999895,
      "v": 127
    },
    {
      "midi": 76,
      "hit": false,
      "t": 67636.2959999999,
      "d": 272.72699999999895,
      "v": 127
    },
    {
      "midi": 81,
      "hit": false,
      "t": 67909.02299999988,
      "d": 545.4539999999979,
      "v": 127
    },
    {
      "midi": 73,
      "hit": false,
      "t": 67909.0229999999,
      "d": 272.72699999999895,
      "v": 127
    },
    {
      "midi": 76,
      "hit": false,
      "t": 68181.7499999999,
      "d": 272.72699999999895,
      "v": 127
    },
    {
      "midi": 85,
      "hit": false,
      "t": 68454.47699999988,
      "d": 136.36350000000675,
      "v": 127
    },
    {
      "midi": 74,
      "hit": false,
      "t": 68454.4769999999,
      "d": 272.72699999999895,
      "v": 127
    },
    {
      "midi": 83,
      "hit": false,
      "t": 68590.84049999989,
      "d": 136.36350000000675,
      "v": 127
    },
    {
      "midi": 81,
      "hit": false,
      "t": 68727.2039999999,
      "d": 136.36350000000675,
      "v": 127
    },
    {
      "midi": 76,
      "hit": false,
      "t": 68727.2039999999,
      "d": 272.72699999999895,
      "v": 127
    },
    {
      "midi": 83,
      "hit": false,
      "t": 68863.5674999999,
      "d": 136.36350000000675,
      "v": 127
    },
    {
      "midi": 73,
      "hit": false,
      "t": 68999.9309999999,
      "d": 272.72699999999895,
      "v": 127
    },
    {
      "midi": 85,
      "hit": false,
      "t": 68999.93099999991,
      "d": 545.4539999999979,
      "v": 127
    },
    {
      "midi": 76,
      "hit": false,
      "t": 69272.6579999999,
      "d": 272.72699999999895,
      "v": 127
    },
    {
      "midi": 73,
      "hit": false,
      "t": 69545.3849999999,
      "d": 272.72699999999895,
      "v": 127
    },
    {
      "midi": 76,
      "hit": false,
      "t": 69818.11199999989,
      "d": 272.72699999999895,
      "v": 127
    },
    {
      "midi": 81,
      "hit": false,
      "t": 69818.1119999999,
      "d": 272.72699999999895,
      "v": 127
    },
    {
      "midi": 73,
      "hit": false,
      "t": 70090.83899999989,
      "d": 272.72699999999895,
      "v": 127
    },
    {
      "midi": 88,
      "hit": false,
      "t": 70090.8389999999,
      "d": 272.72699999999895,
      "v": 127
    },
    {
      "midi": 76,
      "hit": false,
      "t": 70363.56599999989,
      "d": 272.72699999999895,
      "v": 127
    },
    {
      "midi": 81,
      "hit": false,
      "t": 70363.5659999999,
      "d": 272.72699999999895,
      "v": 127
    },
    {
      "midi": 73,
      "hit": false,
      "t": 70636.29299999989,
      "d": 272.72699999999895,
      "v": 127
    },
    {
      "midi": 81,
      "hit": false,
      "t": 70636.2929999999,
      "d": 545.4539999999979,
      "v": 127
    },
    {
      "midi": 76,
      "hit": false,
      "t": 70909.01999999989,
      "d": 272.72699999999895,
      "v": 127
    },
    {
      "midi": 73,
      "hit": false,
      "t": 71181.74699999989,
      "d": 272.72699999999895,
      "v": 127
    },
    {
      "midi": 81,
      "hit": false,
      "t": 71181.7469999999,
      "d": 545.4539999999979,
      "v": 127
    },
    {
      "midi": 76,
      "hit": false,
      "t": 71454.47399999989,
      "d": 272.72699999999895,
      "v": 127
    },
    {
      "midi": 74,
      "hit": false,
      "t": 71727.20099999988,
      "d": 272.72699999999895,
      "v": 127
    },
    {
      "midi": 85,
      "hit": false,
      "t": 71727.2009999999,
      "d": 136.36350000000675,
      "v": 127
    },
    {
      "midi": 83,
      "hit": false,
      "t": 71863.5644999999,
      "d": 136.36350000000675,
      "v": 127
    },
    {
      "midi": 76,
      "hit": false,
      "t": 71999.92799999988,
      "d": 272.72699999999895,
      "v": 127
    },
    {
      "midi": 81,
      "hit": false,
      "t": 71999.92799999991,
      "d": 136.36350000000675,
      "v": 127
    },
    {
      "midi": 83,
      "hit": false,
      "t": 72136.29149999992,
      "d": 136.36350000000675,
      "v": 127
    },
    {
      "midi": 73,
      "hit": false,
      "t": 72272.65499999988,
      "d": 272.72699999999895,
      "v": 127
    },
    {
      "midi": 81,
      "hit": false,
      "t": 72272.65499999993,
      "d": 545.4539999999979,
      "v": 127
    },
    {
      "midi": 76,
      "hit": false,
      "t": 72545.38199999988,
      "d": 272.72699999999895,
      "v": 127
    },
    {
      "midi": 73,
      "hit": false,
      "t": 72818.10899999988,
      "d": 545.4539999999979,
      "v": 127
    },
    {
      "midi": 80,
      "hit": false,
      "t": 73090.83599999992,
      "d": 272.72699999999895,
      "v": 127
    },
    {
      "midi": 81,
      "hit": false,
      "t": 73363.56299999992,
      "d": 272.72699999999895,
      "v": 127
    },
    {
      "midi": 78,
      "hit": false,
      "t": 73636.28999999992,
      "d": 272.72699999999895,
      "v": 127
    },
    {
      "midi": 66,
      "hit": false,
      "t": 73909.01699999988,
      "d": 272.72699999999895,
      "v": 127
    },
    {
      "midi": 74,
      "hit": false,
      "t": 73909.01699999992,
      "d": 545.4539999999979,
      "v": 127
    },
    {
      "midi": 69,
      "hit": false,
      "t": 74181.74399999988,
      "d": 272.72699999999895,
      "v": 127
    },
    {
      "midi": 66,
      "hit": false,
      "t": 74454.47099999987,
      "d": 272.72699999999895,
      "v": 127
    },
    {
      "midi": 74,
      "hit": false,
      "t": 74454.47099999992,
      "d": 545.4539999999979,
      "v": 127
    },
    {
      "midi": 69,
      "hit": false,
      "t": 74727.19799999987,
      "d": 272.72699999999895,
      "v": 127
    },
    {
      "midi": 67,
      "hit": false,
      "t": 74999.92499999987,
      "d": 272.72699999999895,
      "v": 127
    },
    {
      "midi": 78,
      "hit": false,
      "t": 74999.92499999992,
      "d": 136.36350000000675,
      "v": 127
    },
    {
      "midi": 76,
      "hit": false,
      "t": 75136.28849999992,
      "d": 136.36350000000675,
      "v": 127
    },
    {
      "midi": 69,
      "hit": false,
      "t": 75272.65199999987,
      "d": 272.72699999999895,
      "v": 127
    },
    {
      "midi": 74,
      "hit": false,
      "t": 75272.65199999993,
      "d": 136.36350000000675,
      "v": 127
    },
    {
      "midi": 76,
      "hit": false,
      "t": 75409.01549999994,
      "d": 136.36350000000675,
      "v": 127
    },
    {
      "midi": 66,
      "hit": false,
      "t": 75545.37899999987,
      "d": 272.72699999999895,
      "v": 127
    },
    {
      "midi": 74,
      "hit": false,
      "t": 75545.37899999994,
      "d": 545.4539999999979,
      "v": 127
    },
    {
      "midi": 69,
      "hit": false,
      "t": 75818.10599999987,
      "d": 272.72699999999895,
      "v": 127
    },
    {
      "midi": 66,
      "hit": false,
      "t": 76090.83299999987,
      "d": 272.72699999999895,
      "v": 127
    },
    {
      "midi": 69,
      "hit": false,
      "t": 76363.55999999987,
      "d": 272.72699999999895,
      "v": 127
    },
    {
      "midi": 86,
      "hit": false,
      "t": 76363.55999999994,
      "d": 272.72699999999895,
      "v": 127
    },
    {
      "midi": 66,
      "hit": false,
      "t": 76636.28699999987,
      "d": 272.72699999999895,
      "v": 127
    },
    {
      "midi": 81,
      "hit": false,
      "t": 76636.28699999994,
      "d": 272.72699999999895,
      "v": 127
    },
    {
      "midi": 69,
      "hit": false,
      "t": 76909.01399999986,
      "d": 272.72699999999895,
      "v": 127
    },
    {
      "midi": 78,
      "hit": false,
      "t": 76909.01399999994,
      "d": 272.72699999999895,
      "v": 127
    },
    {
      "midi": 66,
      "hit": false,
      "t": 77181.74099999986,
      "d": 272.72699999999895,
      "v": 127
    },
    {
      "midi": 74,
      "hit": false,
      "t": 77181.74099999994,
      "d": 545.4539999999979,
      "v": 127
    },
    {
      "midi": 69,
      "hit": false,
      "t": 77454.46799999986,
      "d": 272.72699999999895,
      "v": 127
    },
    {
      "midi": 66,
      "hit": false,
      "t": 77727.19499999986,
      "d": 272.72699999999895,
      "v": 127
    },
    {
      "midi": 74,
      "hit": false,
      "t": 77727.19499999993,
      "d": 545.4539999999979,
      "v": 127
    },
    {
      "midi": 69,
      "hit": false,
      "t": 77999.92199999986,
      "d": 272.72699999999895,
      "v": 127
    },
    {
      "midi": 67,
      "hit": false,
      "t": 78272.64899999986,
      "d": 272.72699999999895,
      "v": 127
    },
    {
      "midi": 78,
      "hit": false,
      "t": 78272.64899999993,
      "d": 136.36350000000675,
      "v": 127
    },
    {
      "midi": 76,
      "hit": false,
      "t": 78409.01249999994,
      "d": 136.36350000000675,
      "v": 127
    },
    {
      "midi": 69,
      "hit": false,
      "t": 78545.37599999986,
      "d": 272.72699999999895,
      "v": 127
    },
    {
      "midi": 74,
      "hit": false,
      "t": 78545.37599999995,
      "d": 136.36350000000675,
      "v": 127
    },
    {
      "midi": 76,
      "hit": false,
      "t": 78681.73949999995,
      "d": 136.36350000000675,
      "v": 127
    },
    {
      "midi": 66,
      "hit": false,
      "t": 78818.10299999986,
      "d": 272.72699999999895,
      "v": 127
    },
    {
      "midi": 74,
      "hit": false,
      "t": 78818.10299999996,
      "d": 545.4539999999979,
      "v": 127
    },
    {
      "midi": 69,
      "hit": false,
      "t": 79090.82999999986,
      "d": 272.72699999999895,
      "v": 127
    },
    {
      "midi": 66,
      "hit": false,
      "t": 79363.55699999986,
      "d": 545.4539999999979,
      "v": 127
    },
    {
      "midi": 74,
      "hit": false,
      "t": 79636.28399999996,
      "d": 272.72699999999895,
      "v": 127
    },
    {
      "midi": 78,
      "hit": false,
      "t": 79909.01099999995,
      "d": 272.72699999999895,
      "v": 127
    },
    {
      "midi": 81,
      "hit": false,
      "t": 80181.73799999995,
      "d": 272.72699999999895,
      "v": 127
    },
    {
      "midi": 54,
      "hit": false,
      "t": 80454.46499999985,
      "d": 272.72699999999895,
      "v": 127
    },
    {
      "midi": 86,
      "hit": false,
      "t": 80454.46499999995,
      "d": 545.4539999999979,
      "v": 127
    },
    {
      "midi": 62,
      "hit": false,
      "t": 80727.19199999985,
      "d": 272.72699999999895,
      "v": 127
    },
    {
      "midi": 54,
      "hit": false,
      "t": 80999.91899999985,
      "d": 272.72699999999895,
      "v": 127
    },
    {
      "midi": 74,
      "hit": false,
      "t": 80999.91899999995,
      "d": 272.72699999999895,
      "v": 127
    },
    {
      "midi": 62,
      "hit": false,
      "t": 81272.64599999985,
      "d": 272.72699999999895,
      "v": 127
    },
    {
      "midi": 86,
      "hit": false,
      "t": 81272.64599999995,
      "d": 272.72699999999895,
      "v": 127
    },
    {
      "midi": 54,
      "hit": false,
      "t": 81545.37299999985,
      "d": 272.72699999999895,
      "v": 127
    },
    {
      "midi": 86,
      "hit": false,
      "t": 81545.37299999995,
      "d": 272.72699999999895,
      "v": 127
    },
    {
      "midi": 62,
      "hit": false,
      "t": 81818.09999999985,
      "d": 272.72699999999895,
      "v": 127
    },
    {
      "midi": 86,
      "hit": false,
      "t": 81818.09999999995,
      "d": 272.72699999999895,
      "v": 127
    },
    {
      "midi": 55,
      "hit": false,
      "t": 82090.82699999984,
      "d": 272.72699999999895,
      "v": 127
    },
    {
      "midi": 86,
      "hit": false,
      "t": 82090.82699999995,
      "d": 272.72699999999895,
      "v": 127
    },
    {
      "midi": 62,
      "hit": false,
      "t": 82363.55399999984,
      "d": 272.72699999999895,
      "v": 127
    },
    {
      "midi": 83,
      "hit": false,
      "t": 82363.55399999995,
      "d": 272.72699999999895,
      "v": 127
    },
    {
      "midi": 59,
      "hit": false,
      "t": 82636.28099999984,
      "d": 272.72699999999895,
      "v": 127
    },
    {
      "midi": 81,
      "hit": false,
      "t": 82636.28099999994,
      "d": 272.72699999999895,
      "v": 127
    },
    {
      "midi": 62,
      "hit": false,
      "t": 82909.00799999984,
      "d": 272.72699999999895,
      "v": 127
    },
    {
      "midi": 79,
      "hit": false,
      "t": 82909.00799999994,
      "d": 272.72699999999895,
      "v": 127
    },
    {
      "midi": 55,
      "hit": false,
      "t": 83181.73499999984,
      "d": 272.72699999999895,
      "v": 127
    },
    {
      "midi": 78,
      "hit": false,
      "t": 83181.73499999994,
      "d": 272.72699999999895,
      "v": 127
    },
    {
      "midi": 62,
      "hit": false,
      "t": 83454.46199999984,
      "d": 272.72699999999895,
      "v": 127
    },
    {
      "midi": 79,
      "hit": false,
      "t": 83454.46199999994,
      "d": 272.72699999999895,
      "v": 127
    },
    {
      "midi": 57,
      "hit": false,
      "t": 83727.18899999984,
      "d": 272.72699999999895,
      "v": 127
    },
    {
      "midi": 78,
      "hit": false,
      "t": 83727.18899999994,
      "d": 272.72699999999895,
      "v": 127
    },
    {
      "midi": 62,
      "hit": false,
      "t": 83999.91599999984,
      "d": 272.72699999999895,
      "v": 127
    },
    {
      "midi": 60,
      "hit": false,
      "t": 84272.64299999984,
      "d": 272.72699999999895,
      "v": 127
    },
    {
      "midi": 78,
      "hit": false,
      "t": 84272.64299999994,
      "d": 272.72699999999895,
      "v": 127
    },
    {
      "midi": 79,
      "hit": false,
      "t": 84272.64299999994,
      "d": 272.72699999999895,
      "v": 127
    },
    {
      "midi": 62,
      "hit": false,
      "t": 84545.36999999984,
      "d": 272.72699999999895,
      "v": 127
    },
    {
      "midi": 76,
      "hit": false,
      "t": 84545.36999999994,
      "d": 272.72699999999895,
      "v": 127
    },
    {
      "midi": 57,
      "hit": false,
      "t": 84818.09699999983,
      "d": 272.72699999999895,
      "v": 127
    },
    {
      "midi": 78,
      "hit": false,
      "t": 84818.09699999994,
      "d": 272.72699999999895,
      "v": 127
    },
    {
      "midi": 62,
      "hit": false,
      "t": 85090.82399999983,
      "d": 272.72699999999895,
      "v": 127
    },
    {
      "midi": 59,
      "hit": false,
      "t": 85363.55099999983,
      "d": 272.72699999999895,
      "v": 127
    },
    {
      "midi": 83,
      "hit": false,
      "t": 85363.55099999993,
      "d": 545.4539999999979,
      "v": 127
    },
    {
      "midi": 62,
      "hit": false,
      "t": 85636.27799999983,
      "d": 272.72699999999895,
      "v": 127
    },
    {
      "midi": 59,
      "hit": false,
      "t": 85909.00499999983,
      "d": 545.4539999999979,
      "v": 127
    },
    {
      "midi": 82,
      "hit": false,
      "t": 86181.73199999993,
      "d": 272.72699999999895,
      "v": 127
    },
    {
      "midi": 83,
      "hit": false,
      "t": 86454.45899999993,
      "d": 272.72699999999895,
      "v": 127
    },
    {
      "midi": 82,
      "hit": false,
      "t": 86727.18599999993,
      "d": 272.72699999999895,
      "v": 127
    },
    {
      "midi": 51,
      "hit": false,
      "t": 86999.91299999983,
      "d": 272.72699999999895,
      "v": 127
    },
    {
      "midi": 83,
      "hit": false,
      "t": 86999.91299999993,
      "d": 545.4539999999979,
      "v": 127
    },
    {
      "midi": 59,
      "hit": false,
      "t": 87272.63999999982,
      "d": 272.72699999999895,
      "v": 127
    },
    {
      "midi": 51,
      "hit": false,
      "t": 87545.36699999982,
      "d": 272.72699999999895,
      "v": 127
    },
    {
      "midi": 71,
      "hit": false,
      "t": 87545.36699999993,
      "d": 272.72699999999895,
      "v": 127
    },
    {
      "midi": 59,
      "hit": false,
      "t": 87818.09399999982,
      "d": 272.72699999999895,
      "v": 127
    },
    {
      "midi": 83,
      "hit": false,
      "t": 87818.09399999992,
      "d": 272.72699999999895,
      "v": 127
    },
    {
      "midi": 51,
      "hit": false,
      "t": 88090.82099999982,
      "d": 272.72699999999895,
      "v": 127
    },
    {
      "midi": 83,
      "hit": false,
      "t": 88090.82099999992,
      "d": 272.72699999999895,
      "v": 127
    },
    {
      "midi": 59,
      "hit": false,
      "t": 88363.54799999982,
      "d": 272.72699999999895,
      "v": 127
    },
    {
      "midi": 83,
      "hit": false,
      "t": 88363.54799999992,
      "d": 272.72699999999895,
      "v": 127
    },
    {
      "midi": 52,
      "hit": false,
      "t": 88636.27499999982,
      "d": 272.72699999999895,
      "v": 127
    },
    {
      "midi": 83,
      "hit": false,
      "t": 88636.27499999992,
      "d": 272.72699999999895,
      "v": 127
    },
    {
      "midi": 59,
      "hit": false,
      "t": 88909.00199999982,
      "d": 272.72699999999895,
      "v": 127
    },
    {
      "midi": 79,
      "hit": false,
      "t": 88909.00199999992,
      "d": 272.72699999999895,
      "v": 127
    },
    {
      "midi": 52,
      "hit": false,
      "t": 89181.72899999982,
      "d": 272.72699999999895,
      "v": 127
    },
    {
      "midi": 78,
      "hit": false,
      "t": 89181.72899999992,
      "d": 272.72699999999895,
      "v": 127
    },
    {
      "midi": 59,
      "hit": false,
      "t": 89454.45599999982,
      "d": 272.72699999999895,
      "v": 127
    },
    {
      "midi": 76,
      "hit": false,
      "t": 89454.45599999992,
      "d": 272.72699999999895,
      "v": 127
    },
    {
      "midi": 52,
      "hit": false,
      "t": 89727.18299999982,
      "d": 272.72699999999895,
      "v": 127
    },
    {
      "midi": 75,
      "hit": false,
      "t": 89727.18299999992,
      "d": 272.72699999999895,
      "v": 127
    },
    {
      "midi": 59,
      "hit": false,
      "t": 89999.90999999981,
      "d": 272.72699999999895,
      "v": 127
    },
    {
      "midi": 76,
      "hit": false,
      "t": 89999.90999999992,
      "d": 272.72699999999895,
      "v": 127
    },
    {
      "midi": 54,
      "hit": false,
      "t": 90272.63699999981,
      "d": 272.72699999999895,
      "v": 127
    },
    {
      "midi": 75,
      "hit": false,
      "t": 90272.63699999992,
      "d": 545.4539999999979,
      "v": 127
    },
    {
      "midi": 59,
      "hit": false,
      "t": 90545.36399999981,
      "d": 272.72699999999895,
      "v": 127
    },
    {
      "midi": 54,
      "hit": false,
      "t": 90818.09099999981,
      "d": 272.72699999999895,
      "v": 127
    },
    {
      "midi": 75,
      "hit": false,
      "t": 90818.09099999991,
      "d": 272.72699999999895,
      "v": 127
    },
    {
      "midi": 59,
      "hit": false,
      "t": 91090.81799999981,
      "d": 272.72699999999895,
      "v": 127
    },
    {
      "midi": 73,
      "hit": false,
      "t": 91090.81799999991,
      "d": 272.72699999999895,
      "v": 127
    },
    {
      "midi": 54,
      "hit": false,
      "t": 91363.54499999981,
      "d": 272.72699999999895,
      "v": 127
    },
    {
      "midi": 75,
      "hit": false,
      "t": 91363.54499999991,
      "d": 272.72699999999895,
      "v": 127
    },
    {
      "midi": 59,
      "hit": false,
      "t": 91636.27199999981,
      "d": 272.72699999999895,
      "v": 127
    },
    {
      "midi": 55,
      "hit": false,
      "t": 91908.9989999998,
      "d": 272.72699999999895,
      "v": 127
    },
    {
      "midi": 76,
      "hit": false,
      "t": 91908.99899999991,
      "d": 545.4539999999979,
      "v": 127
    },
    {
      "midi": 59,
      "hit": false,
      "t": 92181.7259999998,
      "d": 272.72699999999895,
      "v": 127
    },
    {
      "midi": 55,
      "hit": false,
      "t": 92454.4529999998,
      "d": 545.4539999999979,
      "v": 127
    },
    {
      "midi": 75,
      "hit": false,
      "t": 92727.1799999999,
      "d": 272.72699999999895,
      "v": 127
    },
    {
      "midi": 76,
      "hit": false,
      "t": 92999.9069999999,
      "d": 272.72699999999895,
      "v": 127
    },
    {
      "midi": 78,
      "hit": false,
      "t": 93272.6339999999,
      "d": 272.72699999999895,
      "v": 127
    },
    {
      "midi": 61,
      "hit": false,
      "t": 93545.3609999998,
      "d": 545.4539999999979,
      "v": 127
    },
    {
      "midi": 76,
      "hit": false,
      "t": 93545.3609999999,
      "d": 545.4539999999979,
      "v": 127
    },
    {
      "midi": 79,
      "hit": false,
      "t": 93545.3609999999,
      "d": 545.4539999999979,
      "v": 127
    },
    {
      "midi": 62,
      "hit": false,
      "t": 94090.8149999998,
      "d": 545.4539999999979,
      "v": 127
    },
    {
      "midi": 74,
      "hit": false,
      "t": 94090.8149999999,
      "d": 545.4539999999979,
      "v": 127
    },
    {
      "midi": 78,
      "hit": false,
      "t": 94090.8149999999,
      "d": 545.4539999999979,
      "v": 127
    },
    {
      "midi": 78,
      "hit": false,
      "t": 94636.2689999999,
      "d": 272.72699999999895,
      "v": 127
    },
    {
      "midi": 81,
      "hit": false,
      "t": 94636.2689999999,
      "d": 272.72699999999895,
      "v": 127
    },
    {
      "midi": 78,
      "hit": false,
      "t": 95045.3594999999,
      "d": 136.36350000000675,
      "v": 127
    },
    {
      "midi": 81,
      "hit": false,
      "t": 95045.3594999999,
      "d": 136.36350000000675,
      "v": 127
    },
    {
      "midi": 61,
      "hit": false,
      "t": 95181.7229999998,
      "d": 545.4539999999979,
      "v": 127
    },
    {
      "midi": 76,
      "hit": false,
      "t": 95181.72299999991,
      "d": 545.4539999999979,
      "v": 127
    },
    {
      "midi": 79,
      "hit": false,
      "t": 95181.72299999991,
      "d": 545.4539999999979,
      "v": 127
    },
    {
      "midi": 62,
      "hit": false,
      "t": 95727.17699999979,
      "d": 545.4539999999979,
      "v": 127
    },
    {
      "midi": 74,
      "hit": false,
      "t": 95727.17699999991,
      "d": 545.4539999999979,
      "v": 127
    },
    {
      "midi": 78,
      "hit": false,
      "t": 95727.17699999991,
      "d": 545.4539999999979,
      "v": 127
    },
    {
      "midi": 81,
      "hit": false,
      "t": 96272.6309999999,
      "d": 272.72699999999895,
      "v": 127
    },
    {
      "midi": 78,
      "hit": false,
      "t": 96545.3579999999,
      "d": 272.72699999999895,
      "v": 127
    },
    {
      "midi": 57,
      "hit": false,
      "t": 96818.08499999979,
      "d": 545.4539999999979,
      "v": 127
    },
    {
      "midi": 73,
      "hit": false,
      "t": 96818.0849999999,
      "d": 545.4539999999979,
      "v": 127
    },
    {
      "midi": 76,
      "hit": false,
      "t": 96818.0849999999,
      "d": 545.4539999999979,
      "v": 127
    },
    {
      "midi": 57,
      "hit": false,
      "t": 97363.53899999979,
      "d": 545.4539999999979,
      "v": 127
    },
    {
      "midi": 73,
      "hit": false,
      "t": 97363.5389999999,
      "d": 545.4539999999979,
      "v": 127
    },
    {
      "midi": 76,
      "hit": false,
      "t": 97363.5389999999,
      "d": 545.4539999999979,
      "v": 127
    },
    {
      "midi": 56,
      "hit": false,
      "t": 97908.99299999978,
      "d": 272.72699999999895,
      "v": 127
    },
    {
      "midi": 74,
      "hit": false,
      "t": 97908.9929999999,
      "d": 272.72699999999895,
      "v": 127
    },
    {
      "midi": 78,
      "hit": false,
      "t": 97908.9929999999,
      "d": 272.72699999999895,
      "v": 127
    },
    {
      "midi": 57,
      "hit": false,
      "t": 98454.44699999978,
      "d": 545.4539999999979,
      "v": 127
    },
    {
      "midi": 73,
      "hit": false,
      "t": 98454.4469999999,
      "d": 1090.9079999999958,
      "v": 127
    },
    {
      "midi": 76,
      "hit": false,
      "t": 98454.4469999999,
      "d": 1090.9079999999958,
      "v": 127
    },
    {
      "midi": 45,
      "hit": false,
      "t": 98999.90099999978,
      "d": 545.4539999999979,
      "v": 127
    },
    {
      "midi": 69,
      "hit": false,
      "t": 99545.3549999999,
      "d": 272.72699999999895,
      "v": 127
    },
    {
      "midi": 66,
      "hit": false,
      "t": 99818.0819999999,
      "d": 272.72699999999895,
      "v": 127
    },
    {
      "midi": 57,
      "hit": false,
      "t": 100090.80899999978,
      "d": 272.72699999999895,
      "v": 127
    },
    {
      "midi": 61,
      "hit": false,
      "t": 100090.80899999989,
      "d": 272.72699999999895,
      "v": 127
    },
    {
      "midi": 64,
      "hit": false,
      "t": 100090.80899999989,
      "d": 272.72699999999895,
      "v": 127
    },
    {
      "midi": 57,
      "hit": false,
      "t": 100636.26299999977,
      "d": 272.72699999999895,
      "v": 127
    },
    {
      "midi": 61,
      "hit": false,
      "t": 100636.26299999989,
      "d": 272.72699999999895,
      "v": 127
    },
    {
      "midi": 64,
      "hit": false,
      "t": 100636.26299999989,
      "d": 272.72699999999895,
      "v": 127
    },
    {
      "midi": 50,
      "hit": false,
      "t": 101181.71699999977,
      "d": 272.72699999999895,
      "v": 127
    },
    {
      "midi": 62,
      "hit": false,
      "t": 101181.71699999989,
      "d": 272.72699999999895,
      "v": 127
    },
    {
      "midi": 66,
      "hit": false,
      "t": 101181.71699999989,
      "d": 272.72699999999895,
      "v": 127
    },
    {
      "midi": 57,
      "hit": false,
      "t": 101727.17099999977,
      "d": 1090.9079999999958,
      "v": 127
    },
    {
      "midi": 61,
      "hit": false,
      "t": 101727.17099999989,
      "d": 545.4539999999979,
      "v": 127
    },
    {
      "midi": 64,
      "hit": false,
      "t": 101727.17099999989,
      "d": 545.4539999999979,
      "v": 127
    },
    {
      "midi": 69,
      "hit": false,
      "t": 102272.62499999988,
      "d": 545.4539999999979,
      "v": 127
    },
    {
      "midi": 69,
      "hit": false,
      "t": 102818.07899999988,
      "d": 272.72699999999895,
      "v": 127
    },
    {
      "midi": 61,
      "hit": false,
      "t": 103363.53299999976,
      "d": 1090.9079999999958,
      "v": 127
    },
    {
      "midi": 69,
      "hit": false,
      "t": 103363.53299999988,
      "d": 545.4539999999979,
      "v": 127
    },
    {
      "midi": 64,
      "hit": false,
      "t": 103908.98699999988,
      "d": 545.4539999999979,
      "v": 127
    },
    {
      "midi": 67,
      "hit": false,
      "t": 104454.44099999988,
      "d": 272.72699999999895,
      "v": 127
    },
    {
      "midi": 50,
      "hit": false,
      "t": 104999.89499999976,
      "d": 1090.9079999999958,
      "v": 127
    },
    {
      "midi": 62,
      "hit": false,
      "t": 104999.89499999987,
      "d": 272.72699999999895,
      "v": 127
    },
    {
      "midi": 66,
      "hit": false,
      "t": 104999.89499999987,
      "d": 272.72699999999895,
      "v": 127
    },
    {
      "midi": 57,
      "hit": false,
      "t": 105272.62199999987,
      "d": 272.72699999999895,
      "v": 127
    },
    {
      "midi": 62,
      "hit": false,
      "t": 105545.34899999987,
      "d": 272.72699999999895,
      "v": 127
    },
    {
      "midi": 66,
      "hit": false,
      "t": 105545.34899999987,
      "d": 272.72699999999895,
      "v": 127
    },
    {
      "midi": 57,
      "hit": false,
      "t": 105818.07599999987,
      "d": 272.72699999999895,
      "v": 127
    },
    {
      "midi": 64,
      "hit": false,
      "t": 106090.80299999987,
      "d": 272.72699999999895,
      "v": 127
    },
    {
      "midi": 67,
      "hit": false,
      "t": 106090.80299999987,
      "d": 272.72699999999895,
      "v": 127
    },
    {
      "midi": 57,
      "hit": false,
      "t": 106363.52999999987,
      "d": 272.72699999999895,
      "v": 127
    },
    {
      "midi": 50,
      "hit": false,
      "t": 106636.25699999975,
      "d": 1363.6349999999948,
      "v": 127
    },
    {
      "midi": 66,
      "hit": false,
      "t": 106636.25699999987,
      "d": 272.72699999999895,
      "v": 127
    },
    {
      "midi": 69,
      "hit": false,
      "t": 106636.25699999987,
      "d": 272.72699999999895,
      "v": 127
    },
    {
      "midi": 57,
      "hit": false,
      "t": 106908.98399999987,
      "d": 272.72699999999895,
      "v": 127
    },
    {
      "midi": 66,
      "hit": false,
      "t": 107181.71099999986,
      "d": 272.72699999999895,
      "v": 127
    },
    {
      "midi": 69,
      "hit": false,
      "t": 107181.71099999986,
      "d": 272.72699999999895,
      "v": 127
    },
    {
      "midi": 57,
      "hit": false,
      "t": 107454.43799999986,
      "d": 272.72699999999895,
      "v": 127
    },
    {
      "midi": 65,
      "hit": false,
      "t": 107727.16499999986,
      "d": 272.72699999999895,
      "v": 127
    },
    {
      "midi": 68,
      "hit": false,
      "t": 107727.16499999986,
      "d": 272.72699999999895,
      "v": 127
    },
    {
      "midi": 57,
      "hit": false,
      "t": 107999.89199999986,
      "d": 272.72699999999895,
      "v": 127
    },
    {
      "midi": 50,
      "hit": false,
      "t": 108272.61899999974,
      "d": 1363.6349999999948,
      "v": 127
    },
    {
      "midi": 66,
      "hit": false,
      "t": 108272.61899999986,
      "d": 272.72699999999895,
      "v": 127
    },
    {
      "midi": 69,
      "hit": false,
      "t": 108272.61899999986,
      "d": 272.72699999999895,
      "v": 127
    },
    {
      "midi": 57,
      "hit": false,
      "t": 108545.34599999986,
      "d": 272.72699999999895,
      "v": 127
    },
    {
      "midi": 66,
      "hit": false,
      "t": 108818.07299999986,
      "d": 272.72699999999895,
      "v": 127
    },
    {
      "midi": 69,
      "hit": false,
      "t": 108818.07299999986,
      "d": 272.72699999999895,
      "v": 127
    },
    {
      "midi": 57,
      "hit": false,
      "t": 109090.79999999986,
      "d": 272.72699999999895,
      "v": 127
    },
    {
      "midi": 65,
      "hit": false,
      "t": 109363.52699999986,
      "d": 272.72699999999895,
      "v": 127
    },
    {
      "midi": 68,
      "hit": false,
      "t": 109363.52699999986,
      "d": 272.72699999999895,
      "v": 127
    },
    {
      "midi": 57,
      "hit": false,
      "t": 109636.25399999986,
      "d": 272.72699999999895,
      "v": 127
    },
    {
      "midi": 50,
      "hit": false,
      "t": 109908.98099999974,
      "d": 545.4539999999979,
      "v": 127
    },
    {
      "midi": 66,
      "hit": false,
      "t": 109908.98099999985,
      "d": 545.4539999999979,
      "v": 127
    },
    {
      "midi": 69,
      "hit": false,
      "t": 109908.98099999985,
      "d": 545.4539999999979,
      "v": 127
    },
    {
      "midi": 69,
      "hit": false,
      "t": 110727.16199999985,
      "d": 272.72699999999895,
      "v": 127
    },
    {
      "midi": 81,
      "hit": false,
      "t": 110999.88899999985,
      "d": 272.72699999999895,
      "v": 127
    },
    {
      "midi": 78,
      "hit": false,
      "t": 111272.61599999985,
      "d": 272.72699999999895,
      "v": 127
    },
    {
      "midi": 66,
      "hit": false,
      "t": 111545.34299999973,
      "d": 272.72699999999895,
      "v": 127
    },
    {
      "midi": 74,
      "hit": false,
      "t": 111545.34299999985,
      "d": 545.4539999999979,
      "v": 127
    },
    {
      "midi": 69,
      "hit": false,
      "t": 111818.06999999973,
      "d": 272.72699999999895,
      "v": 127
    },
    {
      "midi": 66,
      "hit": false,
      "t": 112090.79699999973,
      "d": 272.72699999999895,
      "v": 127
    },
    {
      "midi": 74,
      "hit": false,
      "t": 112090.79699999985,
      "d": 545.4539999999979,
      "v": 127
    },
    {
      "midi": 69,
      "hit": false,
      "t": 112363.52399999973,
      "d": 272.72699999999895,
      "v": 127
    },
    {
      "midi": 67,
      "hit": false,
      "t": 112636.25099999973,
      "d": 272.72699999999895,
      "v": 127
    },
    {
      "midi": 78,
      "hit": false,
      "t": 112636.25099999984,
      "d": 136.36350000000675,
      "v": 127
    },
    {
      "midi": 76,
      "hit": false,
      "t": 112772.61449999985,
      "d": 136.36350000000675,
      "v": 127
    },
    {
      "midi": 69,
      "hit": false,
      "t": 112908.97799999973,
      "d": 272.72699999999895,
      "v": 127
    },
    {
      "midi": 74,
      "hit": false,
      "t": 112908.97799999986,
      "d": 136.36350000000675,
      "v": 127
    },
    {
      "midi": 76,
      "hit": false,
      "t": 113045.34149999986,
      "d": 136.36350000000675,
      "v": 127
    },
    {
      "midi": 66,
      "hit": false,
      "t": 113181.70499999973,
      "d": 272.72699999999895,
      "v": 127
    },
    {
      "midi": 74,
      "hit": false,
      "t": 113181.70499999987,
      "d": 545.4539999999979,
      "v": 127
    },
    {
      "midi": 69,
      "hit": false,
      "t": 113454.43199999972,
      "d": 272.72699999999895,
      "v": 127
    },
    {
      "midi": 66,
      "hit": false,
      "t": 113727.15899999972,
      "d": 272.72699999999895,
      "v": 127
    },
    {
      "midi": 69,
      "hit": false,
      "t": 113999.88599999972,
      "d": 272.72699999999895,
      "v": 127
    },
    {
      "midi": 86,
      "hit": false,
      "t": 113999.88599999987,
      "d": 272.72699999999895,
      "v": 127
    },
    {
      "midi": 66,
      "hit": false,
      "t": 114272.61299999972,
      "d": 272.72699999999895,
      "v": 127
    },
    {
      "midi": 81,
      "hit": false,
      "t": 114272.61299999987,
      "d": 272.72699999999895,
      "v": 127
    },
    {
      "midi": 69,
      "hit": false,
      "t": 114545.33999999972,
      "d": 272.72699999999895,
      "v": 127
    },
    {
      "midi": 78,
      "hit": false,
      "t": 114545.33999999987,
      "d": 272.72699999999895,
      "v": 127
    },
    {
      "midi": 66,
      "hit": false,
      "t": 114818.06699999972,
      "d": 272.72699999999895,
      "v": 127
    },
    {
      "midi": 74,
      "hit": false,
      "t": 114818.06699999986,
      "d": 545.4539999999979,
      "v": 127
    },
    {
      "midi": 69,
      "hit": false,
      "t": 115090.79399999972,
      "d": 272.72699999999895,
      "v": 127
    },
    {
      "midi": 66,
      "hit": false,
      "t": 115363.52099999972,
      "d": 272.72699999999895,
      "v": 127
    },
    {
      "midi": 74,
      "hit": false,
      "t": 115363.52099999986,
      "d": 545.4539999999979,
      "v": 127
    },
    {
      "midi": 69,
      "hit": false,
      "t": 115636.24799999972,
      "d": 272.72699999999895,
      "v": 127
    },
    {
      "midi": 67,
      "hit": false,
      "t": 115908.97499999971,
      "d": 272.72699999999895,
      "v": 127
    },
    {
      "midi": 78,
      "hit": false,
      "t": 115908.97499999986,
      "d": 136.36350000000675,
      "v": 127
    },
    {
      "midi": 76,
      "hit": false,
      "t": 116045.33849999987,
      "d": 136.36350000000675,
      "v": 127
    },
    {
      "midi": 69,
      "hit": false,
      "t": 116181.70199999971,
      "d": 272.72699999999895,
      "v": 127
    },
    {
      "midi": 74,
      "hit": false,
      "t": 116181.70199999987,
      "d": 136.36350000000675,
      "v": 127
    },
    {
      "midi": 76,
      "hit": false,
      "t": 116318.06549999988,
      "d": 136.36350000000675,
      "v": 127
    },
    {
      "midi": 66,
      "hit": false,
      "t": 116454.42899999971,
      "d": 272.72699999999895,
      "v": 127
    },
    {
      "midi": 74,
      "hit": false,
      "t": 116454.42899999989,
      "d": 545.4539999999979,
      "v": 127
    },
    {
      "midi": 69,
      "hit": false,
      "t": 116727.15599999971,
      "d": 272.72699999999895,
      "v": 127
    },
    {
      "midi": 66,
      "hit": false,
      "t": 116999.88299999971,
      "d": 545.4539999999979,
      "v": 127
    },
    {
      "midi": 81,
      "hit": false,
      "t": 117545.33699999988,
      "d": 272.72699999999895,
      "v": 127
    },
    {
      "midi": 81,
      "hit": false,
      "t": 117954.42749999989,
      "d": 136.36350000000675,
      "v": 127
    },
    {
      "midi": 57,
      "hit": false,
      "t": 118090.7909999997,
      "d": 1363.6349999999948,
      "v": 127
    },
    {
      "midi": 62,
      "hit": false,
      "t": 118090.7909999997,
      "d": 1363.6349999999948,
      "v": 127
    },
    {
      "midi": 66,
      "hit": false,
      "t": 118090.7909999997,
      "d": 1363.6349999999948,
      "v": 127
    },
    {
      "midi": 81,
      "hit": false,
      "t": 118090.7909999999,
      "d": 545.4539999999979,
      "v": 127
    },
    {
      "midi": 74,
      "hit": false,
      "t": 118636.2449999999,
      "d": 545.4539999999979,
      "v": 127
    },
    {
      "midi": 81,
      "hit": false,
      "t": 119181.69899999989,
      "d": 272.72699999999895,
      "v": 127
    },
    {
      "midi": 81,
      "hit": false,
      "t": 119590.7894999999,
      "d": 136.36350000000675,
      "v": 127
    },
    {
      "midi": 57,
      "hit": false,
      "t": 119727.1529999997,
      "d": 1363.6349999999948,
      "v": 127
    },
    {
      "midi": 64,
      "hit": false,
      "t": 119727.1529999997,
      "d": 1363.6349999999948,
      "v": 127
    },
    {
      "midi": 67,
      "hit": false,
      "t": 119727.1529999997,
      "d": 1363.6349999999948,
      "v": 127
    },
    {
      "midi": 81,
      "hit": false,
      "t": 119727.1529999999,
      "d": 545.4539999999979,
      "v": 127
    },
    {
      "midi": 73,
      "hit": false,
      "t": 120272.6069999999,
      "d": 545.4539999999979,
      "v": 127
    },
    {
      "midi": 81,
      "hit": false,
      "t": 120818.0609999999,
      "d": 272.72699999999895,
      "v": 127
    },
    {
      "midi": 81,
      "hit": false,
      "t": 121227.1514999999,
      "d": 136.36350000000675,
      "v": 127
    },
    {
      "midi": 62,
      "hit": false,
      "t": 121363.5149999997,
      "d": 545.4539999999979,
      "v": 127
    },
    {
      "midi": 81,
      "hit": false,
      "t": 121363.51499999991,
      "d": 545.4539999999979,
      "v": 127
    },
    {
      "midi": 62,
      "hit": false,
      "t": 121908.96899999969,
      "d": 272.72699999999895,
      "v": 127
    },
    {
      "midi": 78,
      "hit": false,
      "t": 121908.96899999991,
      "d": 545.4539999999979,
      "v": 127
    },
    {
      "midi": 86,
      "hit": false,
      "t": 121908.96899999991,
      "d": 545.4539999999979,
      "v": 127
    },
    {
      "midi": 64,
      "hit": false,
      "t": 122181.69599999969,
      "d": 272.72699999999895,
      "v": 127
    },
    {
      "midi": 66,
      "hit": false,
      "t": 122454.42299999969,
      "d": 272.72699999999895,
      "v": 127
    },
    {
      "midi": 78,
      "hit": false,
      "t": 122454.42299999991,
      "d": 272.72699999999895,
      "v": 127
    },
    {
      "midi": 86,
      "hit": false,
      "t": 122454.42299999991,
      "d": 272.72699999999895,
      "v": 127
    },
    {
      "midi": 67,
      "hit": false,
      "t": 122727.14999999969,
      "d": 272.72699999999895,
      "v": 127
    },
    {
      "midi": 69,
      "hit": false,
      "t": 122999.87699999969,
      "d": 1363.6349999999948,
      "v": 127
    },
    {
      "midi": 78,
      "hit": false,
      "t": 122999.8769999999,
      "d": 545.4539999999979,
      "v": 127
    },
    {
      "midi": 86,
      "hit": false,
      "t": 122999.8769999999,
      "d": 545.4539999999979,
      "v": 127
    },
    {
      "midi": 76,
      "hit": false,
      "t": 123545.3309999999,
      "d": 545.4539999999979,
      "v": 127
    },
    {
      "midi": 85,
      "hit": false,
      "t": 123545.3309999999,
      "d": 545.4539999999979,
      "v": 127
    },
    {
      "midi": 81,
      "hit": false,
      "t": 124090.7849999999,
      "d": 272.72699999999895,
      "v": 127
    },
    {
      "midi": 81,
      "hit": false,
      "t": 124499.87549999991,
      "d": 136.36350000000675,
      "v": 127
    },
    {
      "midi": 57,
      "hit": false,
      "t": 124636.23899999968,
      "d": 1363.6349999999948,
      "v": 127
    },
    {
      "midi": 62,
      "hit": false,
      "t": 124636.23899999968,
      "d": 1363.6349999999948,
      "v": 127
    },
    {
      "midi": 65,
      "hit": false,
      "t": 124636.23899999968,
      "d": 1363.6349999999948,
      "v": 127
    },
    {
      "midi": 81,
      "hit": false,
      "t": 124636.23899999991,
      "d": 545.4539999999979,
      "v": 127
    },
    {
      "midi": 74,
      "hit": false,
      "t": 125181.69299999991,
      "d": 545.4539999999979,
      "v": 127
    },
    {
      "midi": 81,
      "hit": false,
      "t": 125727.14699999991,
      "d": 272.72699999999895,
      "v": 127
    },
    {
      "midi": 81,
      "hit": false,
      "t": 126136.23749999992,
      "d": 136.36350000000675,
      "v": 127
    },
    {
      "midi": 57,
      "hit": false,
      "t": 126272.60099999967,
      "d": 1363.6349999999948,
      "v": 127
    },
    {
      "midi": 64,
      "hit": false,
      "t": 126272.60099999967,
      "d": 1363.6349999999948,
      "v": 127
    },
    {
      "midi": 67,
      "hit": false,
      "t": 126272.60099999967,
      "d": 1363.6349999999948,
      "v": 127
    },
    {
      "midi": 81,
      "hit": false,
      "t": 126272.60099999992,
      "d": 545.4539999999979,
      "v": 127
    },
    {
      "midi": 73,
      "hit": false,
      "t": 126818.05499999992,
      "d": 545.4539999999979,
      "v": 127
    },
    {
      "midi": 81,
      "hit": false,
      "t": 127363.50899999992,
      "d": 272.72699999999895,
      "v": 127
    },
    {
      "midi": 81,
      "hit": false,
      "t": 127772.59949999992,
      "d": 136.36350000000675,
      "v": 127
    },
    {
      "midi": 62,
      "hit": false,
      "t": 127908.96299999967,
      "d": 545.4539999999979,
      "v": 127
    },
    {
      "midi": 81,
      "hit": false,
      "t": 127908.96299999993,
      "d": 545.4539999999979,
      "v": 127
    },
    {
      "midi": 62,
      "hit": false,
      "t": 128454.41699999967,
      "d": 272.72699999999895,
      "v": 127
    },
    {
      "midi": 77,
      "hit": false,
      "t": 128454.41699999993,
      "d": 545.4539999999979,
      "v": 127
    },
    {
      "midi": 86,
      "hit": false,
      "t": 128454.41699999993,
      "d": 545.4539999999979,
      "v": 127
    },
    {
      "midi": 64,
      "hit": false,
      "t": 128727.14399999967,
      "d": 272.72699999999895,
      "v": 127
    },
    {
      "midi": 65,
      "hit": false,
      "t": 128999.87099999966,
      "d": 272.72699999999895,
      "v": 127
    },
    {
      "midi": 77,
      "hit": false,
      "t": 128999.87099999993,
      "d": 272.72699999999895,
      "v": 127
    },
    {
      "midi": 86,
      "hit": false,
      "t": 128999.87099999993,
      "d": 272.72699999999895,
      "v": 127
    },
    {
      "midi": 67,
      "hit": false,
      "t": 129272.59799999966,
      "d": 272.72699999999895,
      "v": 127
    },
    {
      "midi": 69,
      "hit": false,
      "t": 129545.32499999966,
      "d": 545.4539999999979,
      "v": 127
    },
    {
      "midi": 76,
      "hit": false,
      "t": 129545.32499999992,
      "d": 545.4539999999979,
      "v": 127
    },
    {
      "midi": 85,
      "hit": false,
      "t": 129545.32499999992,
      "d": 545.4539999999979,
      "v": 127
    },
    {
      "midi": 57,
      "hit": false,
      "t": 130090.77899999966,
      "d": 272.72699999999895,
      "v": 127
    },
    {
      "midi": 59,
      "hit": false,
      "t": 130363.50599999966,
      "d": 272.72699999999895,
      "v": 127
    },
    {
      "midi": 57,
      "hit": false,
      "t": 130636.23299999966,
      "d": 272.72699999999895,
      "v": 127
    },
    {
      "midi": 55,
      "hit": false,
      "t": 130908.95999999966,
      "d": 272.72699999999895,
      "v": 127
    },
    {
      "midi": 54,
      "hit": false,
      "t": 131181.68699999966,
      "d": 136.36350000000675,
      "v": 127
    },
    {
      "midi": 74,
      "hit": false,
      "t": 131181.68699999992,
      "d": 545.4539999999979,
      "v": 127
    },
    {
      "midi": 62,
      "hit": false,
      "t": 131318.05049999966,
      "d": 136.36350000000675,
      "v": 127
    },
    {
      "midi": 61,
      "hit": false,
      "t": 131454.41399999967,
      "d": 136.36350000000675,
      "v": 127
    },
    {
      "midi": 62,
      "hit": false,
      "t": 131590.77749999968,
      "d": 136.36350000000675,
      "v": 127
    },
    {
      "midi": 54,
      "hit": false,
      "t": 131727.14099999968,
      "d": 545.4539999999979,
      "v": 127
    },
    {
      "midi": 86,
      "hit": false,
      "t": 131999.86799999993,
      "d": 136.36350000000675,
      "v": 127
    },
    {
      "midi": 85,
      "hit": false,
      "t": 132136.23149999994,
      "d": 136.36350000000675,
      "v": 127
    },
    {
      "midi": 86,
      "hit": false,
      "t": 132272.59499999994,
      "d": 272.7270000000135,
      "v": 127
    },
    {
      "midi": 86,
      "hit": false,
      "t": 132545.32199999996,
      "d": 272.7270000000135,
      "v": 127
    },
    {
      "midi": 55,
      "hit": false,
      "t": 132818.04899999968,
      "d": 136.36350000000675,
      "v": 127
    },
    {
      "midi": 86,
      "hit": false,
      "t": 132818.04899999997,
      "d": 545.4539999999979,
      "v": 127
    },
    {
      "midi": 62,
      "hit": false,
      "t": 132954.4124999997,
      "d": 136.36350000000675,
      "v": 127
    },
    {
      "midi": 61,
      "hit": false,
      "t": 133090.7759999997,
      "d": 136.36350000000675,
      "v": 127
    },
    {
      "midi": 62,
      "hit": false,
      "t": 133227.1394999997,
      "d": 136.36350000000675,
      "v": 127
    },
    {
      "midi": 55,
      "hit": false,
      "t": 133363.5029999997,
      "d": 545.4539999999979,
      "v": 127
    },
    {
      "midi": 76,
      "hit": false,
      "t": 133636.22999999998,
      "d": 136.36350000000675,
      "v": 127
    },
    {
      "midi": 78,
      "hit": false,
      "t": 133772.5935,
      "d": 136.36350000000675,
      "v": 127
    },
    {
      "midi": 81,
      "hit": false,
      "t": 133908.957,
      "d": 136.36350000000675,
      "v": 127
    },
    {
      "midi": 79,
      "hit": false,
      "t": 134045.3205,
      "d": 136.36350000000675,
      "v": 127
    },
    {
      "midi": 78,
      "hit": false,
      "t": 134181.684,
      "d": 136.36350000000675,
      "v": 127
    },
    {
      "midi": 76,
      "hit": false,
      "t": 134318.04750000002,
      "d": 136.36350000000675,
      "v": 127
    },
    {
      "midi": 57,
      "hit": false,
      "t": 134454.4109999997,
      "d": 136.36350000000675,
      "v": 127
    },
    {
      "midi": 78,
      "hit": false,
      "t": 134454.41100000002,
      "d": 545.4539999999979,
      "v": 127
    },
    {
      "midi": 62,
      "hit": false,
      "t": 134590.7744999997,
      "d": 136.36350000000675,
      "v": 127
    },
    {
      "midi": 61,
      "hit": false,
      "t": 134727.13799999972,
      "d": 136.36350000000675,
      "v": 127
    },
    {
      "midi": 62,
      "hit": false,
      "t": 134863.50149999972,
      "d": 136.36350000000675,
      "v": 127
    },
    {
      "midi": 57,
      "hit": false,
      "t": 134999.86499999973,
      "d": 545.4539999999979,
      "v": 127
    },
    {
      "midi": 86,
      "hit": false,
      "t": 135272.59200000003,
      "d": 136.36350000000675,
      "v": 127
    },
    {
      "midi": 85,
      "hit": false,
      "t": 135408.95550000004,
      "d": 136.36350000000675,
      "v": 127
    },
    {
      "midi": 86,
      "hit": false,
      "t": 135545.31900000005,
      "d": 272.7270000000135,
      "v": 127
    },
    {
      "midi": 86,
      "hit": false,
      "t": 135818.04600000006,
      "d": 272.7270000000135,
      "v": 127
    },
    {
      "midi": 59,
      "hit": false,
      "t": 136090.77299999972,
      "d": 136.36350000000675,
      "v": 127
    },
    {
      "midi": 86,
      "hit": false,
      "t": 136090.77300000007,
      "d": 545.4539999999979,
      "v": 127
    },
    {
      "midi": 62,
      "hit": false,
      "t": 136227.13649999973,
      "d": 136.36350000000675,
      "v": 127
    },
    {
      "midi": 61,
      "hit": false,
      "t": 136363.49999999974,
      "d": 136.36350000000675,
      "v": 127
    },
    {
      "midi": 62,
      "hit": false,
      "t": 136499.86349999974,
      "d": 136.36350000000675,
      "v": 127
    },
    {
      "midi": 59,
      "hit": false,
      "t": 136636.22699999975,
      "d": 545.4539999999979,
      "v": 127
    },
    {
      "midi": 79,
      "hit": false,
      "t": 136908.95400000009,
      "d": 136.36350000000675,
      "v": 127
    },
    {
      "midi": 81,
      "hit": false,
      "t": 137045.3175000001,
      "d": 136.36350000000675,
      "v": 127
    },
    {
      "midi": 84,
      "hit": false,
      "t": 137181.6810000001,
      "d": 136.36350000000675,
      "v": 127
    },
    {
      "midi": 83,
      "hit": false,
      "t": 137318.0445000001,
      "d": 136.36350000000675,
      "v": 127
    },
    {
      "midi": 81,
      "hit": false,
      "t": 137454.4080000001,
      "d": 136.36350000000675,
      "v": 127
    },
    {
      "midi": 79,
      "hit": false,
      "t": 137590.77150000012,
      "d": 136.36350000000675,
      "v": 127
    },
    {
      "midi": 54,
      "hit": false,
      "t": 137727.13499999975,
      "d": 272.7270000000135,
      "v": 127
    },
    {
      "midi": 81,
      "hit": false,
      "t": 137727.13500000013,
      "d": 818.1810000000114,
      "v": 127
    },
    {
      "midi": 62,
      "hit": false,
      "t": 137999.86199999976,
      "d": 272.7270000000135,
      "v": 127
    },
    {
      "midi": 57,
      "hit": false,
      "t": 138272.58899999977,
      "d": 272.7270000000135,
      "v": 127
    },
    {
      "midi": 62,
      "hit": false,
      "t": 138545.3159999998,
      "d": 272.7270000000135,
      "v": 127
    },
    {
      "midi": 83,
      "hit": false,
      "t": 138545.31600000014,
      "d": 272.7270000000135,
      "v": 127
    },
    {
      "midi": 54,
      "hit": false,
      "t": 138818.0429999998,
      "d": 272.7270000000135,
      "v": 127
    },
    {
      "midi": 85,
      "hit": false,
      "t": 138818.04300000015,
      "d": 272.7270000000135,
      "v": 127
    },
    {
      "midi": 62,
      "hit": false,
      "t": 139090.76999999981,
      "d": 272.7270000000135,
      "v": 127
    },
    {
      "midi": 86,
      "hit": false,
      "t": 139090.77000000016,
      "d": 272.7270000000135,
      "v": 127
    },
    {
      "midi": 55,
      "hit": false,
      "t": 139363.49699999983,
      "d": 272.7270000000135,
      "v": 127
    },
    {
      "midi": 85,
      "hit": false,
      "t": 139363.49700000018,
      "d": 272.7270000000135,
      "v": 127
    },
    {
      "midi": 62,
      "hit": false,
      "t": 139636.22399999984,
      "d": 272.7270000000135,
      "v": 127
    },
    {
      "midi": 83,
      "hit": false,
      "t": 139636.2240000002,
      "d": 272.7270000000135,
      "v": 127
    },
    {
      "midi": 55,
      "hit": false,
      "t": 139908.95099999986,
      "d": 272.7270000000135,
      "v": 127
    },
    {
      "midi": 81,
      "hit": false,
      "t": 139908.9510000002,
      "d": 272.7270000000135,
      "v": 127
    },
    {
      "midi": 62,
      "hit": false,
      "t": 140181.67799999987,
      "d": 272.7270000000135,
      "v": 127
    },
    {
      "midi": 79,
      "hit": false,
      "t": 140181.67800000022,
      "d": 272.7270000000135,
      "v": 127
    },
    {
      "midi": 55,
      "hit": false,
      "t": 140454.40499999988,
      "d": 272.7270000000135,
      "v": 127
    },
    {
      "midi": 78,
      "hit": false,
      "t": 140454.40500000023,
      "d": 272.7270000000135,
      "v": 127
    },
    {
      "midi": 62,
      "hit": false,
      "t": 140727.1319999999,
      "d": 272.7270000000135,
      "v": 127
    },
    {
      "midi": 76,
      "hit": false,
      "t": 140727.13200000025,
      "d": 272.7270000000135,
      "v": 127
    },
    {
      "midi": 57,
      "hit": false,
      "t": 140999.8589999999,
      "d": 272.7270000000135,
      "v": 127
    },
    {
      "midi": 62,
      "hit": false,
      "t": 140999.8589999999,
      "d": 272.7270000000135,
      "v": 127
    },
    {
      "midi": 81,
      "hit": false,
      "t": 140999.85900000026,
      "d": 818.1810000000114,
      "v": 127
    },
    {
      "midi": 57,
      "hit": false,
      "t": 141272.58599999992,
      "d": 272.7270000000135,
      "v": 127
    },
    {
      "midi": 62,
      "hit": false,
      "t": 141272.58599999992,
      "d": 272.7270000000135,
      "v": 127
    },
    {
      "midi": 57,
      "hit": false,
      "t": 141545.31299999994,
      "d": 272.7270000000135,
      "v": 127
    },
    {
      "midi": 62,
      "hit": false,
      "t": 141545.31299999994,
      "d": 272.7270000000135,
      "v": 127
    },
    {
      "midi": 57,
      "hit": false,
      "t": 141818.03999999995,
      "d": 272.7270000000135,
      "v": 127
    },
    {
      "midi": 62,
      "hit": false,
      "t": 141818.03999999995,
      "d": 272.7270000000135,
      "v": 127
    },
    {
      "midi": 78,
      "hit": false,
      "t": 141818.04000000027,
      "d": 136.36350000000675,
      "v": 127
    },
    {
      "midi": 74,
      "hit": false,
      "t": 141954.40350000028,
      "d": 136.36350000000675,
      "v": 127
    },
    {
      "midi": 57,
      "hit": false,
      "t": 142090.76699999996,
      "d": 272.7270000000135,
      "v": 127
    },
    {
      "midi": 62,
      "hit": false,
      "t": 142090.76699999996,
      "d": 272.7270000000135,
      "v": 127
    },
    {
      "midi": 76,
      "hit": false,
      "t": 142090.76700000028,
      "d": 272.7270000000135,
      "v": 127
    },
    {
      "midi": 57,
      "hit": false,
      "t": 142363.49399999998,
      "d": 272.7270000000135,
      "v": 127
    },
    {
      "midi": 62,
      "hit": false,
      "t": 142363.49399999998,
      "d": 272.7270000000135,
      "v": 127
    },
    {
      "midi": 62,
      "hit": false,
      "t": 142636.221,
      "d": 272.7270000000135,
      "v": 127
    },
    {
      "midi": 74,
      "hit": false,
      "t": 142636.2210000003,
      "d": 545.4539999999979,
      "v": 127
    },
    {
      "midi": 62,
      "hit": false,
      "t": 142908.948,
      "d": 272.7270000000135,
      "v": 127
    },
    {
      "midi": 62,
      "hit": false,
      "t": 143181.67500000002,
      "d": 272.7270000000135,
      "v": 127
    },
    {
      "midi": 78,
      "hit": false,
      "t": 143181.6750000003,
      "d": 136.36350000000675,
      "v": 127
    },
    {
      "midi": 84,
      "hit": false,
      "t": 143318.03850000032,
      "d": 136.36350000000675,
      "v": 127
    },
    {
      "midi": 62,
      "hit": false,
      "t": 143454.40200000003,
      "d": 272.7270000000135,
      "v": 127
    },
    {
      "midi": 78,
      "hit": false,
      "t": 143454.40200000032,
      "d": 136.36350000000675,
      "v": 127
    },
    {
      "midi": 84,
      "hit": false,
      "t": 143590.76550000033,
      "d": 136.36350000000675,
      "v": 127
    },
    {
      "midi": 62,
      "hit": false,
      "t": 143727.12900000004,
      "d": 272.7270000000135,
      "v": 127
    },
    {
      "midi": 78,
      "hit": false,
      "t": 143727.12900000034,
      "d": 136.36350000000675,
      "v": 127
    },
    {
      "midi": 84,
      "hit": false,
      "t": 143863.49250000034,
      "d": 136.36350000000675,
      "v": 127
    },
    {
      "midi": 62,
      "hit": false,
      "t": 143999.85600000006,
      "d": 272.7270000000135,
      "v": 127
    },
    {
      "midi": 78,
      "hit": false,
      "t": 143999.85600000035,
      "d": 136.36350000000675,
      "v": 127
    },
    {
      "midi": 84,
      "hit": false,
      "t": 144136.21950000036,
      "d": 136.36350000000675,
      "v": 127
    },
    {
      "midi": 62,
      "hit": false,
      "t": 144272.58300000007,
      "d": 272.7270000000135,
      "v": 127
    },
    {
      "midi": 79,
      "hit": false,
      "t": 144272.58300000036,
      "d": 545.4539999999979,
      "v": 127
    },
    {
      "midi": 83,
      "hit": false,
      "t": 144272.58300000036,
      "d": 545.4539999999979,
      "v": 127
    },
    {
      "midi": 62,
      "hit": false,
      "t": 144545.31000000008,
      "d": 272.7270000000135,
      "v": 127
    },
    {
      "midi": 62,
      "hit": false,
      "t": 144818.0370000001,
      "d": 272.7270000000135,
      "v": 127
    },
    {
      "midi": 76,
      "hit": false,
      "t": 144818.03700000036,
      "d": 545.4539999999979,
      "v": 127
    },
    {
      "midi": 85,
      "hit": false,
      "t": 144818.03700000036,
      "d": 545.4539999999979,
      "v": 127
    },
    {
      "midi": 62,
      "hit": false,
      "t": 145090.7640000001,
      "d": 272.7270000000135,
      "v": 127
    },
    {
      "midi": 62,
      "hit": false,
      "t": 145363.49100000013,
      "d": 272.7270000000135,
      "v": 127
    },
    {
      "midi": 76,
      "hit": false,
      "t": 145363.49100000036,
      "d": 272.7270000000135,
      "v": 127
    },
    {
      "midi": 85,
      "hit": false,
      "t": 145363.49100000036,
      "d": 272.7270000000135,
      "v": 127
    },
    {
      "midi": 62,
      "hit": false,
      "t": 145636.21800000014,
      "d": 272.7270000000135,
      "v": 127
    },
    {
      "midi": 62,
      "hit": false,
      "t": 145908.94500000015,
      "d": 272.7270000000135,
      "v": 127
    },
    {
      "midi": 78,
      "hit": false,
      "t": 145908.94500000039,
      "d": 545.4539999999979,
      "v": 127
    },
    {
      "midi": 86,
      "hit": false,
      "t": 145908.94500000039,
      "d": 545.4539999999979,
      "v": 127
    },
    {
      "midi": 50,
      "hit": false,
      "t": 146181.67200000017,
      "d": 272.7270000000135,
      "v": 127
    },
    {
      "midi": 50,
      "hit": false,
      "t": 146454.39900000018,
      "d": 272.7270000000135,
      "v": 127
    },
    {
      "midi": 78,
      "hit": false,
      "t": 146454.39900000038,
      "d": 136.36350000000675,
      "v": 127
    },
    {
      "midi": 84,
      "hit": false,
      "t": 146590.7625000004,
      "d": 136.36350000000675,
      "v": 127
    },
    {
      "midi": 50,
      "hit": false,
      "t": 146727.1260000002,
      "d": 272.7270000000135,
      "v": 127
    },
    {
      "midi": 78,
      "hit": false,
      "t": 146727.1260000004,
      "d": 136.36350000000675,
      "v": 127
    },
    {
      "midi": 84,
      "hit": false,
      "t": 146863.4895000004,
      "d": 136.36350000000675,
      "v": 127
    },
    {
      "midi": 50,
      "hit": false,
      "t": 146999.8530000002,
      "d": 272.7270000000135,
      "v": 127
    },
    {
      "midi": 78,
      "hit": false,
      "t": 146999.8530000004,
      "d": 136.36350000000675,
      "v": 127
    },
    {
      "midi": 84,
      "hit": false,
      "t": 147136.21650000042,
      "d": 136.36350000000675,
      "v": 127
    },
    {
      "midi": 50,
      "hit": false,
      "t": 147272.58000000022,
      "d": 272.7270000000135,
      "v": 127
    },
    {
      "midi": 78,
      "hit": false,
      "t": 147272.58000000042,
      "d": 136.36350000000675,
      "v": 127
    },
    {
      "midi": 84,
      "hit": false,
      "t": 147408.94350000043,
      "d": 136.36350000000675,
      "v": 127
    },
    {
      "midi": 50,
      "hit": false,
      "t": 147545.30700000023,
      "d": 272.7270000000135,
      "v": 127
    },
    {
      "midi": 79,
      "hit": false,
      "t": 147545.30700000044,
      "d": 545.4539999999979,
      "v": 127
    },
    {
      "midi": 83,
      "hit": false,
      "t": 147545.30700000044,
      "d": 545.4539999999979,
      "v": 127
    },
    {
      "midi": 50,
      "hit": false,
      "t": 147818.03400000025,
      "d": 272.7270000000135,
      "v": 127
    },
    {
      "midi": 50,
      "hit": false,
      "t": 148090.76100000026,
      "d": 272.7270000000135,
      "v": 127
    },
    {
      "midi": 76,
      "hit": false,
      "t": 148090.76100000044,
      "d": 545.4539999999979,
      "v": 127
    },
    {
      "midi": 85,
      "hit": false,
      "t": 148090.76100000044,
      "d": 545.4539999999979,
      "v": 127
    },
    {
      "midi": 50,
      "hit": false,
      "t": 148363.48800000027,
      "d": 272.7270000000135,
      "v": 127
    },
    {
      "midi": 50,
      "hit": false,
      "t": 148636.2150000003,
      "d": 272.7270000000135,
      "v": 127
    },
    {
      "midi": 76,
      "hit": false,
      "t": 148636.21500000043,
      "d": 272.7270000000135,
      "v": 127
    },
    {
      "midi": 85,
      "hit": false,
      "t": 148636.21500000043,
      "d": 272.7270000000135,
      "v": 127
    },
    {
      "midi": 50,
      "hit": false,
      "t": 148908.9420000003,
      "d": 272.7270000000135,
      "v": 127
    },
    {
      "midi": 50,
      "hit": false,
      "t": 149181.66900000031,
      "d": 272.7270000000135,
      "v": 127
    },
    {
      "midi": 78,
      "hit": false,
      "t": 149181.66900000046,
      "d": 545.4539999999979,
      "v": 127
    },
    {
      "midi": 86,
      "hit": false,
      "t": 149181.66900000046,
      "d": 545.4539999999979,
      "v": 127
    },
    {
      "midi": 62,
      "hit": false,
      "t": 149454.39600000033,
      "d": 272.7270000000135,
      "v": 127
    },
    {
      "midi": 57,
      "hit": false,
      "t": 149727.12300000034,
      "d": 272.7270000000135,
      "v": 127
    },
    {
      "midi": 78,
      "hit": false,
      "t": 149727.12300000046,
      "d": 545.4539999999979,
      "v": 127
    },
    {
      "midi": 86,
      "hit": false,
      "t": 149727.12300000046,
      "d": 545.4539999999979,
      "v": 127
    },
    {
      "midi": 62,
      "hit": false,
      "t": 149999.85000000036,
      "d": 272.7270000000135,
      "v": 127
    },
    {
      "midi": 54,
      "hit": false,
      "t": 150272.57700000037,
      "d": 272.7270000000135,
      "v": 127
    },
    {
      "midi": 78,
      "hit": false,
      "t": 150272.57700000046,
      "d": 272.7270000000135,
      "v": 127
    },
    {
      "midi": 86,
      "hit": false,
      "t": 150272.57700000046,
      "d": 272.7270000000135,
      "v": 127
    },
    {
      "midi": 57,
      "hit": false,
      "t": 150545.30400000038,
      "d": 272.7270000000135,
      "v": 127
    },
    {
      "midi": 50,
      "hit": false,
      "t": 150818.0310000004,
      "d": 545.4539999999979,
      "v": 127
    },
    {
      "midi": 78,
      "hit": false,
      "t": 150818.03100000048,
      "d": 1090.9079999999958,
      "v": 127
    },
    {
      "midi": 86,
      "hit": false,
      "t": 150818.03100000048,
      "d": 1090.9079999999958,
      "v": 127
    },
    {
      "midi": 62,
      "hit": false,
      "t": 151363.4850000004,
      "d": 545.4539999999979,
      "v": 127
    }
  ]
}