{
  "jsonPath": "Rock/Country Rock/David Ball/going-someplace-to-forget-album-version.json",
  "path": "Rock\\Country Rock\\David Ball\\Going Someplace To Forget (Album Version).mid",
  "name": "Going Someplace To Forget (Album Version)",
  "difficulty": "Advanced",
  "bpm": 88.00079787390072,
  "notes": [
    {
      "midi": 62,
      "hit": false,
      "t": 6325,
      "d": 8016.666666666666,
      "v": 74
    },
    {
      "midi": 67,
      "hit": false,
      "t": 6358.333333333333,
      "d": 7966.666666666667,
      "v": 77
    },
    {
      "midi": 31,
      "hit": false,
      "t": 6395,
      "d": 1600,
      "v": 100
    },
    {
      "midi": 43,
      "hit": false,
      "t": 6395,
      "d": 1600,
      "v": 97
    },
    {
      "midi": 69,
      "hit": false,
      "t": 6408.333333333333,
      "d": 136.66666666666697,
      "v": 85
    },
    {
      "midi": 43,
      "hit": false,
      "t": 6408.333333333333,
      "d": 1600,
      "v": 85
    },
    {
      "midi": 71,
      "hit": false,
      "t": 6525,
      "d": 7833.333333333332,
      "v": 91
    },
    {
      "midi": 59,
      "hit": false,
      "t": 7195,
      "d": 800,
      "v": 96
    },
    {
      "midi": 62,
      "hit": false,
      "t": 7195,
      "d": 800,
      "v": 93
    },
    {
      "midi": 67,
      "hit": false,
      "t": 7195,
      "d": 800,
      "v": 96
    },
    {
      "midi": 38,
      "hit": false,
      "t": 7995,
      "d": 1600,
      "v": 97
    },
    {
      "midi": 59,
      "hit": false,
      "t": 8795,
      "d": 800,
      "v": 93
    },
    {
      "midi": 62,
      "hit": false,
      "t": 8795,
      "d": 800,
      "v": 86
    },
    {
      "midi": 67,
      "hit": false,
      "t": 8795,
      "d": 800,
      "v": 90
    },
    {
      "midi": 31,
      "hit": false,
      "t": 9595,
      "d": 1600,
      "v": 95
    },
    {
      "midi": 43,
      "hit": false,
      "t": 9595,
      "d": 1600,
      "v": 96
    },
    {
      "midi": 67,
      "hit": false,
      "t": 10395,
      "d": 666.6666666666661,
      "v": 96
    },
    {
      "midi": 59,
      "hit": false,
      "t": 10395,
      "d": 800,
      "v": 94
    },
    {
      "midi": 62,
      "hit": false,
      "t": 10395,
      "d": 800,
      "v": 92
    },
    {
      "midi": 38,
      "hit": false,
      "t": 11195,
      "d": 1600,
      "v": 93
    },
    {
      "midi": 67,
      "hit": false,
      "t": 11995,
      "d": 666.6666666666661,
      "v": 93
    },
    {
      "midi": 59,
      "hit": false,
      "t": 11995,
      "d": 800,
      "v": 92
    },
    {
      "midi": 62,
      "hit": false,
      "t": 11995,
      "d": 800,
      "v": 91
    },
    {
      "midi": 31,
      "hit": false,
      "t": 12795,
      "d": 1600,
      "v": 89
    },
    {
      "midi": 43,
      "hit": false,
      "t": 12795,
      "d": 1600,
      "v": 84
    },
    {
      "midi": 59,
      "hit": false,
      "t": 13595,
      "d": 800,
      "v": 86
    },
    {
      "midi": 62,
      "hit": false,
      "t": 13595,
      "d": 800,
      "v": 89
    },
    {
      "midi": 67,
      "hit": false,
      "t": 13595,
      "d": 800,
      "v": 88
    },
    {
      "midi": 38,
      "hit": false,
      "t": 14395,
      "d": 1600,
      "v": 81
    },
    {
      "midi": 59,
      "hit": false,
      "t": 15195,
      "d": 800,
      "v": 84
    },
    {
      "midi": 62,
      "hit": false,
      "t": 15195,
      "d": 800,
      "v": 85
    },
    {
      "midi": 67,
      "hit": false,
      "t": 15195,
      "d": 800,
      "v": 86
    },
    {
      "midi": 31,
      "hit": false,
      "t": 15995,
      "d": 1600,
      "v": 93
    },
    {
      "midi": 43,
      "hit": false,
      "t": 15995,
      "d": 1600,
      "v": 93
    },
    {
      "midi": 71,
      "hit": false,
      "t": 16795,
      "d": 666.6666666666679,
      "v": 93
    },
    {
      "midi": 74,
      "hit": false,
      "t": 16795,
      "d": 666.6666666666679,
      "v": 93
    },
    {
      "midi": 70,
      "hit": false,
      "t": 16808.333333333332,
      "d": 61.66666666666788,
      "v": 102
    },
    {
      "midi": 74,
      "hit": false,
      "t": 16808.333333333332,
      "d": 800,
      "v": 105
    },
    {
      "midi": 71,
      "hit": false,
      "t": 16850,
      "d": 758.3333333333321,
      "v": 103
    },
    {
      "midi": 70,
      "hit": false,
      "t": 17595,
      "d": 800,
      "v": 95
    },
    {
      "midi": 73,
      "hit": false,
      "t": 17595,
      "d": 800,
      "v": 89
    },
    {
      "midi": 70,
      "hit": false,
      "t": 17608.333333333332,
      "d": 733.3333333333321,
      "v": 95
    },
    {
      "midi": 73,
      "hit": false,
      "t": 17608.333333333332,
      "d": 766.6666666666642,
      "v": 103
    },
    {
      "midi": 69,
      "hit": false,
      "t": 18395,
      "d": 800,
      "v": 89
    },
    {
      "midi": 72,
      "hit": false,
      "t": 18395,
      "d": 800,
      "v": 93
    },
    {
      "midi": 72,
      "hit": false,
      "t": 18408.33333333333,
      "d": 733.3333333333321,
      "v": 96
    },
    {
      "midi": 69,
      "hit": false,
      "t": 18408.33333333333,
      "d": 750,
      "v": 103
    },
    {
      "midi": 67,
      "hit": false,
      "t": 19195,
      "d": 400,
      "v": 88
    },
    {
      "midi": 71,
      "hit": false,
      "t": 19195,
      "d": 400,
      "v": 88
    },
    {
      "midi": 31,
      "hit": false,
      "t": 19195,
      "d": 1600,
      "v": 88
    },
    {
      "midi": 43,
      "hit": false,
      "t": 19195,
      "d": 1600,
      "v": 88
    },
    {
      "midi": 71,
      "hit": false,
      "t": 19208.33333333333,
      "d": 1500,
      "v": 98
    },
    {
      "midi": 67,
      "hit": false,
      "t": 19208.33333333333,
      "d": 1516.6666666666679,
      "v": 89
    },
    {
      "midi": 59,
      "hit": false,
      "t": 19995,
      "d": 800,
      "v": 79
    },
    {
      "midi": 62,
      "hit": false,
      "t": 19995,
      "d": 800,
      "v": 79
    },
    {
      "midi": 67,
      "hit": false,
      "t": 19995,
      "d": 800,
      "v": 79
    },
    {
      "midi": 38,
      "hit": false,
      "t": 20795,
      "d": 1600,
      "v": 86
    },
    {
      "midi": 62,
      "hit": false,
      "t": 20808.33333333333,
      "d": 2400,
      "v": 78
    },
    {
      "midi": 67,
      "hit": false,
      "t": 20808.33333333333,
      "d": 2400,
      "v": 78
    },
    {
      "midi": 71,
      "hit": false,
      "t": 20808.33333333333,
      "d": 2400,
      "v": 78
    },
    {
      "midi": 59,
      "hit": false,
      "t": 21595,
      "d": 800,
      "v": 79
    },
    {
      "midi": 62,
      "hit": false,
      "t": 21595,
      "d": 800,
      "v": 79
    },
    {
      "midi": 67,
      "hit": false,
      "t": 21595,
      "d": 800,
      "v": 79
    },
    {
      "midi": 31,
      "hit": false,
      "t": 22395,
      "d": 1600,
      "v": 83
    },
    {
      "midi": 43,
      "hit": false,
      "t": 22395,
      "d": 1600,
      "v": 83
    },
    {
      "midi": 59,
      "hit": false,
      "t": 23195,
      "d": 800,
      "v": 81
    },
    {
      "midi": 62,
      "hit": false,
      "t": 23195,
      "d": 800,
      "v": 81
    },
    {
      "midi": 67,
      "hit": false,
      "t": 23195,
      "d": 800,
      "v": 81
    },
    {
      "midi": 74,
      "hit": false,
      "t": 23808.33333333333,
      "d": 158.33333333333212,
      "v": 90
    },
    {
      "midi": 71,
      "hit": false,
      "t": 23808.33333333333,
      "d": 163.33333333333212,
      "v": 69
    },
    {
      "midi": 38,
      "hit": false,
      "t": 23995,
      "d": 1600,
      "v": 77
    },
    {
      "midi": 71,
      "hit": false,
      "t": 24008.33333333333,
      "d": 933.3333333333321,
      "v": 84
    },
    {
      "midi": 74,
      "hit": false,
      "t": 24008.33333333333,
      "d": 933.3333333333321,
      "v": 87
    },
    {
      "midi": 59,
      "hit": false,
      "t": 24795,
      "d": 800,
      "v": 77
    },
    {
      "midi": 62,
      "hit": false,
      "t": 24795,
      "d": 800,
      "v": 77
    },
    {
      "midi": 67,
      "hit": false,
      "t": 24795,
      "d": 800,
      "v": 77
    },
    {
      "midi": 62,
      "hit": false,
      "t": 25074.999999999993,
      "d": 200,
      "v": 57
    },
    {
      "midi": 67,
      "hit": false,
      "t": 25074.999999999993,
      "d": 233.33333333333212,
      "v": 65
    },
    {
      "midi": 71,
      "hit": false,
      "t": 25074.999999999993,
      "d": 266.66666666666424,
      "v": 81
    },
    {
      "midi": 64,
      "hit": false,
      "t": 25341.666666666657,
      "d": 2120,
      "v": 88
    },
    {
      "midi": 60,
      "hit": false,
      "t": 25341.666666666657,
      "d": 2196.666666666668,
      "v": 92
    },
    {
      "midi": 67,
      "hit": false,
      "t": 25341.666666666657,
      "d": 2200,
      "v": 89
    },
    {
      "midi": 36,
      "hit": false,
      "t": 25595,
      "d": 1600,
      "v": 74
    },
    {
      "midi": 55,
      "hit": false,
      "t": 26395,
      "d": 800,
      "v": 72
    },
    {
      "midi": 60,
      "hit": false,
      "t": 26395,
      "d": 800,
      "v": 72
    },
    {
      "midi": 64,
      "hit": false,
      "t": 26395,
      "d": 800,
      "v": 72
    },
    {
      "midi": 43,
      "hit": false,
      "t": 27195,
      "d": 1600,
      "v": 79
    },
    {
      "midi": 67,
      "hit": false,
      "t": 27741.666666666657,
      "d": 188.33333333333212,
      "v": 88
    },
    {
      "midi": 55,
      "hit": false,
      "t": 27995,
      "d": 800,
      "v": 74
    },
    {
      "midi": 60,
      "hit": false,
      "t": 27995,
      "d": 800,
      "v": 74
    },
    {
      "midi": 64,
      "hit": false,
      "t": 27995,
      "d": 800,
      "v": 74
    },
    {
      "midi": 67,
      "hit": false,
      "t": 28008.33333333332,
      "d": 533.3333333333321,
      "v": 117
    },
    {
      "midi": 72,
      "hit": false,
      "t": 28008.33333333332,
      "d": 533.3333333333321,
      "v": 117
    },
    {
      "midi": 76,
      "hit": false,
      "t": 28008.33333333332,
      "d": 533.3333333333321,
      "v": 112
    },
    {
      "midi": 74,
      "hit": false,
      "t": 28541.666666666653,
      "d": 266.6666666666679,
      "v": 97
    },
    {
      "midi": 36,
      "hit": false,
      "t": 28795,
      "d": 1600,
      "v": 77
    },
    {
      "midi": 76,
      "hit": false,
      "t": 28808.33333333332,
      "d": 1600,
      "v": 100
    },
    {
      "midi": 55,
      "hit": false,
      "t": 29595,
      "d": 533.3333333333321,
      "v": 90
    },
    {
      "midi": 60,
      "hit": false,
      "t": 29595,
      "d": 533.3333333333321,
      "v": 90
    },
    {
      "midi": 64,
      "hit": false,
      "t": 29595,
      "d": 533.3333333333321,
      "v": 90
    },
    {
      "midi": 36,
      "hit": false,
      "t": 30395,
      "d": 800,
      "v": 108
    },
    {
      "midi": 55,
      "hit": false,
      "t": 30395,
      "d": 800,
      "v": 108
    },
    {
      "midi": 60,
      "hit": false,
      "t": 30395,
      "d": 800,
      "v": 108
    },
    {
      "midi": 64,
      "hit": false,
      "t": 30395,
      "d": 800,
      "v": 108
    },
    {
      "midi": 60,
      "hit": false,
      "t": 30408.33333333332,
      "d": 800,
      "v": 91
    },
    {
      "midi": 64,
      "hit": false,
      "t": 30408.33333333332,
      "d": 800,
      "v": 91
    },
    {
      "midi": 65,
      "hit": false,
      "t": 31195,
      "d": 533.3333333333321,
      "v": 122
    },
    {
      "midi": 37,
      "hit": false,
      "t": 31195,
      "d": 800,
      "v": 77
    },
    {
      "midi": 61,
      "hit": false,
      "t": 31208.33333333332,
      "d": 500,
      "v": 89
    },
    {
      "midi": 65,
      "hit": false,
      "t": 31208.33333333332,
      "d": 500,
      "v": 89
    },
    {
      "midi": 66,
      "hit": false,
      "t": 31728.333333333332,
      "d": 1066.6666666666679,
      "v": 117
    },
    {
      "midi": 62,
      "hit": false,
      "t": 31741.666666666653,
      "d": 2850.0000000000036,
      "v": 91
    },
    {
      "midi": 66,
      "hit": false,
      "t": 31741.666666666653,
      "d": 2933.3333333333394,
      "v": 91
    },
    {
      "midi": 38,
      "hit": false,
      "t": 31995,
      "d": 1600,
      "v": 90
    },
    {
      "midi": 57,
      "hit": false,
      "t": 32795,
      "d": 800,
      "v": 79
    },
    {
      "midi": 62,
      "hit": false,
      "t": 32795,
      "d": 800,
      "v": 79
    },
    {
      "midi": 66,
      "hit": false,
      "t": 32795,
      "d": 800,
      "v": 79
    },
    {
      "midi": 45,
      "hit": false,
      "t": 33595,
      "d": 1600,
      "v": 74
    },
    {
      "midi": 57,
      "hit": false,
      "t": 34395,
      "d": 800,
      "v": 72
    },
    {
      "midi": 62,
      "hit": false,
      "t": 34395,
      "d": 800,
      "v": 72
    },
    {
      "midi": 66,
      "hit": false,
      "t": 34395,
      "d": 800,
      "v": 72
    },
    {
      "midi": 62,
      "hit": false,
      "t": 34674.99999999999,
      "d": 266.66666666666424,
      "v": 96
    },
    {
      "midi": 61,
      "hit": false,
      "t": 34941.66666666666,
      "d": 266.66666666666424,
      "v": 96
    },
    {
      "midi": 38,
      "hit": false,
      "t": 35195,
      "d": 1600,
      "v": 79
    },
    {
      "midi": 60,
      "hit": false,
      "t": 35201.66666666666,
      "d": 1606.6666666666642,
      "v": 100
    },
    {
      "midi": 57,
      "hit": false,
      "t": 35995,
      "d": 800,
      "v": 79
    },
    {
      "midi": 62,
      "hit": false,
      "t": 35995,
      "d": 800,
      "v": 82
    },
    {
      "midi": 66,
      "hit": false,
      "t": 35995,
      "d": 800,
      "v": 78
    },
    {
      "midi": 45,
      "hit": false,
      "t": 36795,
      "d": 1600,
      "v": 72
    },
    {
      "midi": 59,
      "hit": false,
      "t": 36808.33333333332,
      "d": 1283.3333333333358,
      "v": 82
    },
    {
      "midi": 60,
      "hit": false,
      "t": 37595,
      "d": 800,
      "v": 81
    },
    {
      "midi": 66,
      "hit": false,
      "t": 37595,
      "d": 800,
      "v": 80
    },
    {
      "midi": 69,
      "hit": false,
      "t": 37595,
      "d": 800,
      "v": 92
    },
    {
      "midi": 58,
      "hit": false,
      "t": 38141.66666666666,
      "d": 233.33333333333576,
      "v": 116
    },
    {
      "midi": 43,
      "hit": false,
      "t": 38395,
      "d": 1600,
      "v": 77
    },
    {
      "midi": 59,
      "hit": false,
      "t": 38408.33333333333,
      "d": 1930,
      "v": 117
    },
    {
      "midi": 59,
      "hit": false,
      "t": 39195,
      "d": 800,
      "v": 77
    },
    {
      "midi": 62,
      "hit": false,
      "t": 39195,
      "d": 800,
      "v": 76
    },
    {
      "midi": 67,
      "hit": false,
      "t": 39195,
      "d": 800,
      "v": 79
    },
    {
      "midi": 38,
      "hit": false,
      "t": 39995,
      "d": 1600,
      "v": 79
    },
    {
      "midi": 69,
      "hit": false,
      "t": 40408.33333333333,
      "d": 136.66666666666424,
      "v": 104
    },
    {
      "midi": 55,
      "hit": false,
      "t": 40795,
      "d": 800,
      "v": 83
    },
    {
      "midi": 59,
      "hit": false,
      "t": 40795,
      "d": 800,
      "v": 82
    },
    {
      "midi": 62,
      "hit": false,
      "t": 40795,
      "d": 800,
      "v": 83
    },
    {
      "midi": 70,
      "hit": false,
      "t": 41074.99999999999,
      "d": 533.3333333333358,
      "v": 99
    },
    {
      "midi": 43,
      "hit": false,
      "t": 41595,
      "d": 1600,
      "v": 79
    },
    {
      "midi": 71,
      "hit": false,
      "t": 41608.33333333333,
      "d": 1733.3333333333358,
      "v": 100
    },
    {
      "midi": 55,
      "hit": false,
      "t": 42395,
      "d": 800,
      "v": 86
    },
    {
      "midi": 59,
      "hit": false,
      "t": 42395,
      "d": 800,
      "v": 82
    },
    {
      "midi": 62,
      "hit": false,
      "t": 42395,
      "d": 800,
      "v": 81
    },
    {
      "midi": 38,
      "hit": false,
      "t": 43195,
      "d": 1600,
      "v": 77
    },
    {
      "midi": 71,
      "hit": false,
      "t": 43608.33333333333,
      "d": 150,
      "v": 107
    },
    {
      "midi": 74,
      "hit": false,
      "t": 43608.33333333333,
      "d": 180,
      "v": 107
    },
    {
      "midi": 73,
      "hit": false,
      "t": 44274.99999999999,
      "d": 216.66666666666424,
      "v": 117
    },
    {
      "midi": 70,
      "hit": false,
      "t": 44274.99999999999,
      "d": 233.33333333332848,
      "v": 87
    },
    {
      "midi": 55,
      "hit": false,
      "t": 44528.333333333336,
      "d": 266.66666666666424,
      "v": 88
    },
    {
      "midi": 58,
      "hit": false,
      "t": 44528.333333333336,
      "d": 266.66666666666424,
      "v": 88
    },
    {
      "midi": 61,
      "hit": false,
      "t": 44528.333333333336,
      "d": 266.66666666666424,
      "v": 88
    },
    {
      "midi": 69,
      "hit": false,
      "t": 44541.66666666666,
      "d": 266.66666666666424,
      "v": 76
    },
    {
      "midi": 72,
      "hit": false,
      "t": 44541.66666666666,
      "d": 266.66666666666424,
      "v": 76
    },
    {
      "midi": 67,
      "hit": false,
      "t": 44795,
      "d": 400,
      "v": 88
    },
    {
      "midi": 71,
      "hit": false,
      "t": 44795,
      "d": 400,
      "v": 88
    },
    {
      "midi": 31,
      "hit": false,
      "t": 44795,
      "d": 1600,
      "v": 88
    },
    {
      "midi": 43,
      "hit": false,
      "t": 44795,
      "d": 1600,
      "v": 88
    },
    {
      "midi": 71,
      "hit": false,
      "t": 44808.33333333332,
      "d": 783.3333333333285,
      "v": 76
    },
    {
      "midi": 67,
      "hit": false,
      "t": 44824.999999999985,
      "d": 800,
      "v": 76
    },
    {
      "midi": 59,
      "hit": false,
      "t": 45595,
      "d": 800,
      "v": 79
    },
    {
      "midi": 62,
      "hit": false,
      "t": 45595,
      "d": 800,
      "v": 79
    },
    {
      "midi": 67,
      "hit": false,
      "t": 45595,
      "d": 800,
      "v": 79
    },
    {
      "midi": 38,
      "hit": false,
      "t": 46395,
      "d": 1600,
      "v": 86
    },
    {
      "midi": 59,
      "hit": false,
      "t": 47195,
      "d": 800,
      "v": 79
    },
    {
      "midi": 62,
      "hit": false,
      "t": 47195,
      "d": 800,
      "v": 79
    },
    {
      "midi": 67,
      "hit": false,
      "t": 47195,
      "d": 800,
      "v": 79
    },
    {
      "midi": 71,
      "hit": false,
      "t": 47474.999999999985,
      "d": 101.66666666666424,
      "v": 79
    },
    {
      "midi": 74,
      "hit": false,
      "t": 47474.999999999985,
      "d": 101.66666666666424,
      "v": 108
    },
    {
      "midi": 71,
      "hit": false,
      "t": 47741.66666666665,
      "d": 91.66666666666424,
      "v": 62
    },
    {
      "midi": 76,
      "hit": false,
      "t": 47741.66666666665,
      "d": 533.3333333333285,
      "v": 100
    },
    {
      "midi": 31,
      "hit": false,
      "t": 47995,
      "d": 1600,
      "v": 83
    },
    {
      "midi": 43,
      "hit": false,
      "t": 47995,
      "d": 1600,
      "v": 83
    },
    {
      "midi": 80,
      "hit": false,
      "t": 48259.99999999998,
      "d": 50,
      "v": 77
    },
    {
      "midi": 81,
      "hit": false,
      "t": 48291.66666666664,
      "d": 303.33333333333576,
      "v": 77
    },
    {
      "midi": 59,
      "hit": false,
      "t": 48795,
      "d": 800,
      "v": 81
    },
    {
      "midi": 62,
      "hit": false,
      "t": 48795,
      "d": 800,
      "v": 81
    },
    {
      "midi": 67,
      "hit": false,
      "t": 48795,
      "d": 800,
      "v": 81
    },
    {
      "midi": 80,
      "hit": false,
      "t": 48799.99999999998,
      "d": 50,
      "v": 89
    },
    {
      "midi": 81,
      "hit": false,
      "t": 48828.333333333314,
      "d": 510,
      "v": 85
    },
    {
      "midi": 62,
      "hit": false,
      "t": 49341.66666666665,
      "d": 1283.3333333333358,
      "v": 76
    },
    {
      "midi": 65,
      "hit": false,
      "t": 49341.66666666665,
      "d": 1333.3333333333358,
      "v": 90
    },
    {
      "midi": 79,
      "hit": false,
      "t": 49349.999999999985,
      "d": 1400,
      "v": 85
    },
    {
      "midi": 38,
      "hit": false,
      "t": 49595,
      "d": 1600,
      "v": 77
    },
    {
      "midi": 59,
      "hit": false,
      "t": 50395,
      "d": 800,
      "v": 77
    },
    {
      "midi": 62,
      "hit": false,
      "t": 50395,
      "d": 800,
      "v": 77
    },
    {
      "midi": 67,
      "hit": false,
      "t": 50395,
      "d": 800,
      "v": 77
    },
    {
      "midi": 62,
      "hit": false,
      "t": 50674.999999999985,
      "d": 268.3333333333285,
      "v": 99
    },
    {
      "midi": 63,
      "hit": false,
      "t": 50941.66666666665,
      "d": 250,
      "v": 88
    },
    {
      "midi": 36,
      "hit": false,
      "t": 51195,
      "d": 1600,
      "v": 74
    },
    {
      "midi": 64,
      "hit": false,
      "t": 51208.333333333314,
      "d": 2883.333333333343,
      "v": 88
    },
    {
      "midi": 55,
      "hit": false,
      "t": 51995,
      "d": 800,
      "v": 72
    },
    {
      "midi": 60,
      "hit": false,
      "t": 51995,
      "d": 800,
      "v": 72
    },
    {
      "midi": 64,
      "hit": false,
      "t": 51995,
      "d": 800,
      "v": 72
    },
    {
      "midi": 43,
      "hit": false,
      "t": 52795,
      "d": 1600,
      "v": 79
    },
    {
      "midi": 73,
      "hit": false,
      "t": 53049.99999999998,
      "d": 58.33333333333576,
      "v": 72
    },
    {
      "midi": 74,
      "hit": false,
      "t": 53103.333333333314,
      "d": 258.33333333333576,
      "v": 66
    },
    {
      "midi": 72,
      "hit": false,
      "t": 53346.66666666665,
      "d": 253.33333333333576,
      "v": 43
    },
    {
      "midi": 55,
      "hit": false,
      "t": 53595,
      "d": 800,
      "v": 74
    },
    {
      "midi": 60,
      "hit": false,
      "t": 53595,
      "d": 800,
      "v": 74
    },
    {
      "midi": 64,
      "hit": false,
      "t": 53595,
      "d": 800,
      "v": 74
    },
    {
      "midi": 71,
      "hit": false,
      "t": 53608.33333333332,
      "d": 245,
      "v": 59
    },
    {
      "midi": 74,
      "hit": false,
      "t": 53871.66666666666,
      "d": 253.33333333333576,
      "v": 63
    },
    {
      "midi": 67,
      "hit": false,
      "t": 54141.66666666666,
      "d": 1800,
      "v": 82
    },
    {
      "midi": 72,
      "hit": false,
      "t": 54141.66666666666,
      "d": 1800,
      "v": 88
    },
    {
      "midi": 36,
      "hit": false,
      "t": 54395,
      "d": 1600.0000000000073,
      "v": 77
    },
    {
      "midi": 55,
      "hit": false,
      "t": 55195,
      "d": 450,
      "v": 90
    },
    {
      "midi": 60,
      "hit": false,
      "t": 55195,
      "d": 533.3333333333358,
      "v": 90
    },
    {
      "midi": 64,
      "hit": false,
      "t": 55195,
      "d": 533.3333333333358,
      "v": 90
    },
    {
      "midi": 55,
      "hit": false,
      "t": 55728.333333333336,
      "d": 133.33333333333576,
      "v": 81
    },
    {
      "midi": 55,
      "hit": false,
      "t": 55995.00000000001,
      "d": 433.33333333333576,
      "v": 106
    },
    {
      "midi": 60,
      "hit": false,
      "t": 55995.00000000001,
      "d": 533.3333333333358,
      "v": 106
    },
    {
      "midi": 64,
      "hit": false,
      "t": 55995.00000000001,
      "d": 533.3333333333358,
      "v": 106
    },
    {
      "midi": 36,
      "hit": false,
      "t": 55995.00000000001,
      "d": 800.0000000000073,
      "v": 106
    },
    {
      "midi": 64,
      "hit": false,
      "t": 56008.33333333332,
      "d": 13.333333333335759,
      "v": 96
    },
    {
      "midi": 60,
      "hit": false,
      "t": 56008.33333333332,
      "d": 733.3333333333358,
      "v": 90
    },
    {
      "midi": 55,
      "hit": false,
      "t": 56528.33333333334,
      "d": 133.33333333333576,
      "v": 104
    },
    {
      "midi": 65,
      "hit": false,
      "t": 56795.000000000015,
      "d": 533.3333333333358,
      "v": 122
    },
    {
      "midi": 37,
      "hit": false,
      "t": 56795.000000000015,
      "d": 800,
      "v": 77
    },
    {
      "midi": 65,
      "hit": false,
      "t": 56808.33333333332,
      "d": 466.66666666666424,
      "v": 95
    },
    {
      "midi": 61,
      "hit": false,
      "t": 56808.33333333332,
      "d": 483.3333333333285,
      "v": 95
    },
    {
      "midi": 66,
      "hit": false,
      "t": 57328.33333333335,
      "d": 1000,
      "v": 117
    },
    {
      "midi": 66,
      "hit": false,
      "t": 57341.66666666665,
      "d": 2766.6666666666642,
      "v": 88
    },
    {
      "midi": 62,
      "hit": false,
      "t": 57341.66666666665,
      "d": 2801.6666666666642,
      "v": 84
    },
    {
      "midi": 38,
      "hit": false,
      "t": 57595.000000000015,
      "d": 1600,
      "v": 90
    },
    {
      "midi": 57,
      "hit": false,
      "t": 58395.000000000015,
      "d": 800,
      "v": 79
    },
    {
      "midi": 62,
      "hit": false,
      "t": 58395.000000000015,
      "d": 800,
      "v": 79
    },
    {
      "midi": 66,
      "hit": false,
      "t": 58395.000000000015,
      "d": 800,
      "v": 79
    },
    {
      "midi": 45,
      "hit": false,
      "t": 59195.000000000015,
      "d": 1600,
      "v": 74
    },
    {
      "midi": 57,
      "hit": false,
      "t": 59995.000000000015,
      "d": 800,
      "v": 72
    },
    {
      "midi": 62,
      "hit": false,
      "t": 59995.000000000015,
      "d": 800,
      "v": 72
    },
    {
      "midi": 66,
      "hit": false,
      "t": 59995.000000000015,
      "d": 800,
      "v": 72
    },
    {
      "midi": 62,
      "hit": false,
      "t": 60274.99999999998,
      "d": 200,
      "v": 90
    },
    {
      "midi": 61,
      "hit": false,
      "t": 60541.66666666664,
      "d": 216.66666666666424,
      "v": 98
    },
    {
      "midi": 60,
      "hit": false,
      "t": 60795.000000000015,
      "d": 1333.3333333333358,
      "v": 82
    },
    {
      "midi": 38,
      "hit": false,
      "t": 60795.000000000015,
      "d": 1600,
      "v": 79
    },
    {
      "midi": 60,
      "hit": false,
      "t": 60808.33333333331,
      "d": 1516.6666666666715,
      "v": 88
    },
    {
      "midi": 74,
      "hit": false,
      "t": 61208.33333333331,
      "d": 563.3333333333358,
      "v": 69
    },
    {
      "midi": 81,
      "hit": false,
      "t": 61208.33333333331,
      "d": 563.3333333333358,
      "v": 59
    },
    {
      "midi": 69,
      "hit": false,
      "t": 61328.33333333335,
      "d": 800,
      "v": 95
    },
    {
      "midi": 72,
      "hit": false,
      "t": 61874.99999999998,
      "d": 388.33333333333576,
      "v": 69
    },
    {
      "midi": 79,
      "hit": false,
      "t": 61874.99999999998,
      "d": 408.33333333333576,
      "v": 63
    },
    {
      "midi": 57,
      "hit": false,
      "t": 62128.33333333335,
      "d": 1600,
      "v": 75
    },
    {
      "midi": 45,
      "hit": false,
      "t": 62395.000000000015,
      "d": 1600,
      "v": 72
    },
    {
      "midi": 57,
      "hit": false,
      "t": 62408.333333333314,
      "d": 966.6666666666642,
      "v": 90
    },
    {
      "midi": 66,
      "hit": false,
      "t": 62928.33333333335,
      "d": 966.6666666666642,
      "v": 93
    },
    {
      "midi": 57,
      "hit": false,
      "t": 63474.99999999998,
      "d": 200,
      "v": 78
    },
    {
      "midi": 58,
      "hit": false,
      "t": 63728.33333333335,
      "d": 266.66666666666424,
      "v": 92
    },
    {
      "midi": 58,
      "hit": false,
      "t": 63741.66666666664,
      "d": 166.66666666666424,
      "v": 109
    },
    {
      "midi": 59,
      "hit": false,
      "t": 63995.000000000015,
      "d": 533.3333333333358,
      "v": 79
    },
    {
      "midi": 43,
      "hit": false,
      "t": 63995.000000000015,
      "d": 1600,
      "v": 77
    },
    {
      "midi": 59,
      "hit": false,
      "t": 64008.33333333331,
      "d": 2500.0000000000073,
      "v": 115
    },
    {
      "midi": 62,
      "hit": false,
      "t": 64528.33333333335,
      "d": 800,
      "v": 91
    },
    {
      "midi": 67,
      "hit": false,
      "t": 64528.33333333335,
      "d": 800,
      "v": 104
    },
    {
      "midi": 59,
      "hit": false,
      "t": 65328.33333333335,
      "d": 699.9999999999927,
      "v": 90
    },
    {
      "midi": 38,
      "hit": false,
      "t": 65595.00000000001,
      "d": 1600.0000000000146,
      "v": 79
    },
    {
      "midi": 59,
      "hit": false,
      "t": 66128.33333333334,
      "d": 166.66666666667152,
      "v": 88
    },
    {
      "midi": 62,
      "hit": false,
      "t": 66395.00000000001,
      "d": 381.6666666666715,
      "v": 121
    },
    {
      "midi": 67,
      "hit": false,
      "t": 66395.00000000001,
      "d": 401.6666666666715,
      "v": 115
    },
    {
      "midi": 55,
      "hit": false,
      "t": 66395.00000000001,
      "d": 800.0000000000146,
      "v": 83
    },
    {
      "midi": 59,
      "hit": false,
      "t": 66395.00000000001,
      "d": 800.0000000000146,
      "v": 82
    },
    {
      "midi": 67,
      "hit": false,
      "t": 66674.99999999999,
      "d": 266.6666666666715,
      "v": 84
    },
    {
      "midi": 66,
      "hit": false,
      "t": 66928.33333333336,
      "d": 266.6666666666715,
      "v": 119
    },
    {
      "midi": 62,
      "hit": false,
      "t": 66928.33333333336,
      "d": 275,
      "v": 106
    },
    {
      "midi": 66,
      "hit": false,
      "t": 66941.66666666666,
      "d": 266.6666666666715,
      "v": 88
    },
    {
      "midi": 65,
      "hit": false,
      "t": 67195.00000000003,
      "d": 473.3333333333285,
      "v": 94
    },
    {
      "midi": 43,
      "hit": false,
      "t": 67195.00000000003,
      "d": 1599.9999999999854,
      "v": 79
    },
    {
      "midi": 65,
      "hit": false,
      "t": 67208.33333333333,
      "d": 1600,
      "v": 107
    },
    {
      "midi": 59,
      "hit": false,
      "t": 67728.33333333336,
      "d": 115,
      "v": 100
    },
    {
      "midi": 59,
      "hit": false,
      "t": 67995.00000000003,
      "d": 733.3333333333285,
      "v": 127
    },
    {
      "midi": 62,
      "hit": false,
      "t": 67995.00000000003,
      "d": 766.666666666657,
      "v": 127
    },
    {
      "midi": 67,
      "hit": false,
      "t": 67995.00000000003,
      "d": 799.9999999999854,
      "v": 127
    },
    {
      "midi": 66,
      "hit": false,
      "t": 68795.00000000001,
      "d": 733.3333333333285,
      "v": 127
    },
    {
      "midi": 60,
      "hit": false,
      "t": 68795.00000000001,
      "d": 750,
      "v": 127
    },
    {
      "midi": 62,
      "hit": false,
      "t": 68795.00000000001,
      "d": 766.6666666666715,
      "v": 127
    },
    {
      "midi": 38,
      "hit": false,
      "t": 68795.00000000001,
      "d": 1550,
      "v": 77
    },
    {
      "midi": 60,
      "hit": false,
      "t": 68808.33333333333,
      "d": 800,
      "v": 110
    },
    {
      "midi": 62,
      "hit": false,
      "t": 68808.33333333333,
      "d": 1516.6666666666715,
      "v": 100
    },
    {
      "midi": 59,
      "hit": false,
      "t": 69595.00000000001,
      "d": 733.3333333333285,
      "v": 127
    },
    {
      "midi": 62,
      "hit": false,
      "t": 69595.00000000001,
      "d": 733.3333333333285,
      "v": 116
    },
    {
      "midi": 65,
      "hit": false,
      "t": 69595.00000000001,
      "d": 733.3333333333285,
      "v": 122
    },
    {
      "midi": 59,
      "hit": false,
      "t": 69608.33333333333,
      "d": 800,
      "v": 110
    },
    {
      "midi": 60,
      "hit": false,
      "t": 70395.00000000001,
      "d": 733.3333333333285,
      "v": 112
    },
    {
      "midi": 55,
      "hit": false,
      "t": 70395.00000000001,
      "d": 750,
      "v": 112
    },
    {
      "midi": 64,
      "hit": false,
      "t": 70395.00000000001,
      "d": 750,
      "v": 112
    },
    {
      "midi": 36,
      "hit": false,
      "t": 70395.00000000001,
      "d": 1533.3333333333285,
      "v": 112
    },
    {
      "midi": 60,
      "hit": false,
      "t": 70408.33333333333,
      "d": 733.3333333333285,
      "v": 88
    },
    {
      "midi": 64,
      "hit": false,
      "t": 70408.33333333333,
      "d": 733.3333333333285,
      "v": 88
    },
    {
      "midi": 67,
      "hit": false,
      "t": 70408.33333333333,
      "d": 733.3333333333285,
      "v": 99
    },
    {
      "midi": 60,
      "hit": false,
      "t": 71195.00000000001,
      "d": 1533.3333333333285,
      "v": 93
    },
    {
      "midi": 55,
      "hit": false,
      "t": 71195.00000000001,
      "d": 1550,
      "v": 94
    },
    {
      "midi": 64,
      "hit": false,
      "t": 71195.00000000001,
      "d": 1550,
      "v": 90
    },
    {
      "midi": 72,
      "hit": false,
      "t": 71208.33333333333,
      "d": 1500,
      "v": 98
    },
    {
      "midi": 64,
      "hit": false,
      "t": 71208.33333333333,
      "d": 1533.3333333333285,
      "v": 98
    },
    {
      "midi": 67,
      "hit": false,
      "t": 71208.33333333333,
      "d": 1550,
      "v": 98
    },
    {
      "midi": 43,
      "hit": false,
      "t": 71995.00000000001,
      "d": 1533.3333333333285,
      "v": 88
    },
    {
      "midi": 31,
      "hit": false,
      "t": 71995.00000000001,
      "d": 1610,
      "v": 91
    },
    {
      "midi": 55,
      "hit": false,
      "t": 72795.00000000001,
      "d": 483.3333333333285,
      "v": 88
    },
    {
      "midi": 64,
      "hit": false,
      "t": 72795.00000000001,
      "d": 483.3333333333285,
      "v": 86
    },
    {
      "midi": 60,
      "hit": false,
      "t": 72795.00000000001,
      "d": 500,
      "v": 90
    },
    {
      "midi": 67,
      "hit": false,
      "t": 72808.33333333333,
      "d": 683.3333333333285,
      "v": 89
    },
    {
      "midi": 72,
      "hit": false,
      "t": 72808.33333333333,
      "d": 716.666666666657,
      "v": 89
    },
    {
      "midi": 76,
      "hit": false,
      "t": 72808.33333333333,
      "d": 716.666666666657,
      "v": 89
    },
    {
      "midi": 67,
      "hit": false,
      "t": 73328.33333333334,
      "d": 1016.6666666666715,
      "v": 95
    },
    {
      "midi": 60,
      "hit": false,
      "t": 73328.33333333334,
      "d": 1033.333333333343,
      "v": 91
    },
    {
      "midi": 64,
      "hit": false,
      "t": 73328.33333333334,
      "d": 1033.333333333343,
      "v": 83
    },
    {
      "midi": 36,
      "hit": false,
      "t": 73595.00000000001,
      "d": 1483.3333333333285,
      "v": 99
    },
    {
      "midi": 72,
      "hit": false,
      "t": 73608.33333333331,
      "d": 1533.3333333333285,
      "v": 100
    },
    {
      "midi": 79,
      "hit": false,
      "t": 73608.33333333331,
      "d": 1533.3333333333285,
      "v": 100
    },
    {
      "midi": 76,
      "hit": false,
      "t": 73608.33333333331,
      "d": 1550,
      "v": 100
    },
    {
      "midi": 67,
      "hit": false,
      "t": 74395.00000000001,
      "d": 733.3333333333285,
      "v": 99
    },
    {
      "midi": 60,
      "hit": false,
      "t": 74395.00000000001,
      "d": 750,
      "v": 98
    },
    {
      "midi": 64,
      "hit": false,
      "t": 74395.00000000001,
      "d": 750,
      "v": 92
    },
    {
      "midi": 55,
      "hit": false,
      "t": 75195.00000000001,
      "d": 750,
      "v": 96
    },
    {
      "midi": 60,
      "hit": false,
      "t": 75195.00000000001,
      "d": 750,
      "v": 91
    },
    {
      "midi": 64,
      "hit": false,
      "t": 75195.00000000001,
      "d": 750,
      "v": 93
    },
    {
      "midi": 43,
      "hit": false,
      "t": 75195.00000000001,
      "d": 1516.6666666666715,
      "v": 100
    },
    {
      "midi": 67,
      "hit": false,
      "t": 75208.33333333331,
      "d": 766.6666666666715,
      "v": 91
    },
    {
      "midi": 72,
      "hit": false,
      "t": 75208.33333333331,
      "d": 766.6666666666715,
      "v": 91
    },
    {
      "midi": 76,
      "hit": false,
      "t": 75208.33333333331,
      "d": 766.6666666666715,
      "v": 91
    },
    {
      "midi": 55,
      "hit": false,
      "t": 75995.00000000001,
      "d": 733.333333333343,
      "v": 90
    },
    {
      "midi": 60,
      "hit": false,
      "t": 75995.00000000001,
      "d": 733.333333333343,
      "v": 94
    },
    {
      "midi": 63,
      "hit": false,
      "t": 75995.00000000001,
      "d": 750.0000000000146,
      "v": 102
    },
    {
      "midi": 72,
      "hit": false,
      "t": 76008.33333333331,
      "d": 700,
      "v": 96
    },
    {
      "midi": 75,
      "hit": false,
      "t": 76008.33333333331,
      "d": 750,
      "v": 96
    },
    {
      "midi": 67,
      "hit": false,
      "t": 76008.33333333331,
      "d": 766.6666666666715,
      "v": 96
    },
    {
      "midi": 55,
      "hit": false,
      "t": 76795.00000000003,
      "d": 666.6666666666715,
      "v": 87
    },
    {
      "midi": 59,
      "hit": false,
      "t": 76795.00000000003,
      "d": 666.6666666666715,
      "v": 90
    },
    {
      "midi": 62,
      "hit": false,
      "t": 76795.00000000003,
      "d": 666.6666666666715,
      "v": 81
    },
    {
      "midi": 31,
      "hit": false,
      "t": 76795.00000000003,
      "d": 1600,
      "v": 95
    },
    {
      "midi": 67,
      "hit": false,
      "t": 76808.33333333331,
      "d": 1516.6666666666715,
      "v": 85
    },
    {
      "midi": 74,
      "hit": false,
      "t": 76808.33333333331,
      "d": 1516.6666666666715,
      "v": 85
    },
    {
      "midi": 71,
      "hit": false,
      "t": 76808.33333333331,
      "d": 1550,
      "v": 85
    },
    {
      "midi": 55,
      "hit": false,
      "t": 77595.00000000003,
      "d": 1516.6666666666715,
      "v": 92
    },
    {
      "midi": 62,
      "hit": false,
      "t": 77595.00000000003,
      "d": 1533.333333333343,
      "v": 85
    },
    {
      "midi": 59,
      "hit": false,
      "t": 77595.00000000003,
      "d": 1550.0000000000146,
      "v": 95
    },
    {
      "midi": 38,
      "hit": false,
      "t": 78395.00000000003,
      "d": 1550.0000000000146,
      "v": 95
    },
    {
      "midi": 67,
      "hit": false,
      "t": 78408.33333333331,
      "d": 733.3333333333285,
      "v": 90
    },
    {
      "midi": 59,
      "hit": false,
      "t": 78408.33333333331,
      "d": 750,
      "v": 95
    },
    {
      "midi": 62,
      "hit": false,
      "t": 78408.33333333331,
      "d": 750,
      "v": 77
    },
    {
      "midi": 59,
      "hit": false,
      "t": 79195.00000000004,
      "d": 483.3333333333285,
      "v": 87
    },
    {
      "midi": 62,
      "hit": false,
      "t": 79195.00000000004,
      "d": 483.3333333333285,
      "v": 90
    },
    {
      "midi": 55,
      "hit": false,
      "t": 79195.00000000004,
      "d": 500,
      "v": 87
    },
    {
      "midi": 62,
      "hit": false,
      "t": 79208.33333333331,
      "d": 1266.6666666666715,
      "v": 78
    },
    {
      "midi": 67,
      "hit": false,
      "t": 79208.33333333331,
      "d": 1333.333333333343,
      "v": 89
    },
    {
      "midi": 71,
      "hit": false,
      "t": 79208.33333333331,
      "d": 1333.333333333343,
      "v": 86
    },
    {
      "midi": 59,
      "hit": false,
      "t": 79728.33333333337,
      "d": 933.333333333343,
      "v": 63
    },
    {
      "midi": 62,
      "hit": false,
      "t": 79728.33333333337,
      "d": 933.333333333343,
      "v": 55
    },
    {
      "midi": 67,
      "hit": false,
      "t": 79728.33333333337,
      "d": 933.333333333343,
      "v": 91
    },
    {
      "midi": 43,
      "hit": false,
      "t": 79995.00000000004,
      "d": 1550,
      "v": 75
    },
    {
      "midi": 31,
      "hit": false,
      "t": 79995.00000000004,
      "d": 1600,
      "v": 88
    },
    {
      "midi": 62,
      "hit": false,
      "t": 80541.66666666666,
      "d": 266.6666666666715,
      "v": 87
    },
    {
      "midi": 62,
      "hit": false,
      "t": 80795.00000000004,
      "d": 716.6666666666715,
      "v": 104
    },
    {
      "midi": 59,
      "hit": false,
      "t": 80795.00000000004,
      "d": 750,
      "v": 106
    },
    {
      "midi": 67,
      "hit": false,
      "t": 80795.00000000004,
      "d": 750,
      "v": 101
    },
    {
      "midi": 67,
      "hit": false,
      "t": 80808.33333333333,
      "d": 1333.3333333333285,
      "v": 98
    },
    {
      "midi": 71,
      "hit": false,
      "t": 80808.33333333333,
      "d": 1333.3333333333285,
      "v": 98
    },
    {
      "midi": 74,
      "hit": false,
      "t": 80808.33333333333,
      "d": 1333.3333333333285,
      "v": 98
    },
    {
      "midi": 62,
      "hit": false,
      "t": 81595.00000000004,
      "d": 733.3333333333285,
      "v": 106
    },
    {
      "midi": 66,
      "hit": false,
      "t": 81595.00000000004,
      "d": 733.3333333333285,
      "v": 104
    },
    {
      "midi": 59,
      "hit": false,
      "t": 81595.00000000004,
      "d": 750,
      "v": 100
    },
    {
      "midi": 38,
      "hit": false,
      "t": 81595.00000000004,
      "d": 1533.3333333333285,
      "v": 97
    },
    {
      "midi": 62,
      "hit": false,
      "t": 82141.66666666666,
      "d": 183.33333333332848,
      "v": 87
    },
    {
      "midi": 55,
      "hit": false,
      "t": 82395.00000000004,
      "d": 483.3333333333285,
      "v": 99
    },
    {
      "midi": 60,
      "hit": false,
      "t": 82395.00000000004,
      "d": 483.3333333333285,
      "v": 97
    },
    {
      "midi": 64,
      "hit": false,
      "t": 82395.00000000004,
      "d": 483.3333333333285,
      "v": 91
    },
    {
      "midi": 62,
      "hit": false,
      "t": 82408.33333333331,
      "d": 716.6666666666715,
      "v": 63
    },
    {
      "midi": 71,
      "hit": false,
      "t": 82408.33333333331,
      "d": 716.6666666666715,
      "v": 87
    },
    {
      "midi": 67,
      "hit": false,
      "t": 82408.33333333331,
      "d": 733.333333333343,
      "v": 90
    },
    {
      "midi": 57,
      "hit": false,
      "t": 82928.33333333337,
      "d": 866.6666666666715,
      "v": 95
    },
    {
      "midi": 62,
      "hit": false,
      "t": 82928.33333333337,
      "d": 933.333333333343,
      "v": 100
    },
    {
      "midi": 66,
      "hit": false,
      "t": 82928.33333333337,
      "d": 933.333333333343,
      "v": 103
    },
    {
      "midi": 38,
      "hit": false,
      "t": 83195.00000000004,
      "d": 1600,
      "v": 90
    },
    {
      "midi": 62,
      "hit": false,
      "t": 83208.33333333333,
      "d": 1866.6666666666715,
      "v": 93
    },
    {
      "midi": 66,
      "hit": false,
      "t": 83208.33333333333,
      "d": 1866.6666666666715,
      "v": 98
    },
    {
      "midi": 69,
      "hit": false,
      "t": 83208.33333333333,
      "d": 2100,
      "v": 100
    },
    {
      "midi": 66,
      "hit": false,
      "t": 83995.00000000004,
      "d": 1516.6666666666715,
      "v": 87
    },
    {
      "midi": 57,
      "hit": false,
      "t": 83995.00000000004,
      "d": 1550,
      "v": 95
    },
    {
      "midi": 62,
      "hit": false,
      "t": 83995.00000000004,
      "d": 1550,
      "v": 81
    },
    {
      "midi": 33,
      "hit": false,
      "t": 84795.00000000004,
      "d": 1600,
      "v": 103
    },
    {
      "midi": 62,
      "hit": false,
      "t": 85341.66666666666,
      "d": 800,
      "v": 96
    },
    {
      "midi": 66,
      "hit": false,
      "t": 85341.66666666666,
      "d": 800,
      "v": 96
    },
    {
      "midi": 74,
      "hit": false,
      "t": 85341.66666666666,
      "d": 800,
      "v": 96
    },
    {
      "midi": 57,
      "hit": false,
      "t": 85595.00000000004,
      "d": 1200,
      "v": 89
    },
    {
      "midi": 62,
      "hit": false,
      "t": 85595.00000000004,
      "d": 1200,
      "v": 95
    },
    {
      "midi": 66,
      "hit": false,
      "t": 85595.00000000004,
      "d": 1200,
      "v": 84
    },
    {
      "midi": 69,
      "hit": false,
      "t": 86141.66666666666,
      "d": 266.6666666666715,
      "v": 76
    },
    {
      "midi": 38,
      "hit": false,
      "t": 86395.00000000004,
      "d": 1599.9999999999854,
      "v": 99
    },
    {
      "midi": 72,
      "hit": false,
      "t": 86408.33333333333,
      "d": 533.3333333333285,
      "v": 103
    },
    {
      "midi": 76,
      "hit": false,
      "t": 86408.33333333333,
      "d": 533.3333333333285,
      "v": 103
    },
    {
      "midi": 62,
      "hit": false,
      "t": 86928.33333333337,
      "d": 83.33333333332848,
      "v": 101
    },
    {
      "midi": 62,
      "hit": false,
      "t": 87195.00000000003,
      "d": 581.6666666666715,
      "v": 98
    },
    {
      "midi": 66,
      "hit": false,
      "t": 87195.00000000003,
      "d": 626.6666666666715,
      "v": 111
    },
    {
      "midi": 72,
      "hit": false,
      "t": 87195.00000000003,
      "d": 646.6666666666715,
      "v": 117
    },
    {
      "midi": 72,
      "hit": false,
      "t": 87208.33333333333,
      "d": 716.6666666666715,
      "v": 87
    },
    {
      "midi": 76,
      "hit": false,
      "t": 87208.33333333333,
      "d": 733.333333333343,
      "v": 87
    },
    {
      "midi": 66,
      "hit": false,
      "t": 87995.00000000003,
      "d": 651.6666666666715,
      "v": 110
    },
    {
      "midi": 62,
      "hit": false,
      "t": 87995.00000000003,
      "d": 673.333333333343,
      "v": 96
    },
    {
      "midi": 71,
      "hit": false,
      "t": 87995.00000000003,
      "d": 693.333333333343,
      "v": 108
    },
    {
      "midi": 33,
      "hit": false,
      "t": 87995.00000000003,
      "d": 1600.0000000000146,
      "v": 111
    },
    {
      "midi": 71,
      "hit": false,
      "t": 88008.33333333334,
      "d": 700,
      "v": 87
    },
    {
      "midi": 74,
      "hit": false,
      "t": 88008.33333333334,
      "d": 800,
      "v": 87
    },
    {
      "midi": 62,
      "hit": false,
      "t": 88795.00000000004,
      "d": 483.3333333333285,
      "v": 90
    },
    {
      "midi": 66,
      "hit": false,
      "t": 88795.00000000004,
      "d": 483.3333333333285,
      "v": 109
    },
    {
      "midi": 69,
      "hit": false,
      "t": 88795.00000000004,
      "d": 500,
      "v": 110
    },
    {
      "midi": 69,
      "hit": false,
      "t": 88808.33333333334,
      "d": 683.3333333333285,
      "v": 94
    },
    {
      "midi": 72,
      "hit": false,
      "t": 88808.33333333334,
      "d": 683.3333333333285,
      "v": 94
    },
    {
      "midi": 62,
      "hit": false,
      "t": 89328.33333333337,
      "d": 533.333333333343,
      "v": 103
    },
    {
      "midi": 67,
      "hit": false,
      "t": 89328.33333333337,
      "d": 533.333333333343,
      "v": 115
    },
    {
      "midi": 71,
      "hit": false,
      "t": 89328.33333333337,
      "d": 533.333333333343,
      "v": 106
    },
    {
      "midi": 31,
      "hit": false,
      "t": 89595.00000000004,
      "d": 1600.0000000000146,
      "v": 99
    },
    {
      "midi": 43,
      "hit": false,
      "t": 89595.00000000004,
      "d": 1600.0000000000146,
      "v": 99
    },
    {
      "midi": 67,
      "hit": false,
      "t": 89608.33333333334,
      "d": 1333.3333333333285,
      "v": 96
    },
    {
      "midi": 71,
      "hit": false,
      "t": 89608.33333333334,
      "d": 1333.3333333333285,
      "v": 96
    },
    {
      "midi": 74,
      "hit": false,
      "t": 89608.33333333334,
      "d": 1333.3333333333285,
      "v": 96
    },
    {
      "midi": 67,
      "hit": false,
      "t": 90128.33333333339,
      "d": 160,
      "v": 106
    },
    {
      "midi": 70,
      "hit": false,
      "t": 90395.00000000006,
      "d": 73.33333333332848,
      "v": 98
    },
    {
      "midi": 74,
      "hit": false,
      "t": 90395.00000000006,
      "d": 410,
      "v": 115
    },
    {
      "midi": 71,
      "hit": false,
      "t": 90463.33333333339,
      "d": 330,
      "v": 99
    },
    {
      "midi": 62,
      "hit": false,
      "t": 90928.33333333339,
      "d": 130,
      "v": 97
    },
    {
      "midi": 62,
      "hit": false,
      "t": 90941.66666666667,
      "d": 266.6666666666715,
      "v": 74
    },
    {
      "midi": 74,
      "hit": false,
      "t": 91195.00000000006,
      "d": 400,
      "v": 127
    },
    {
      "midi": 69,
      "hit": false,
      "t": 91195.00000000006,
      "d": 426.6666666666715,
      "v": 122
    },
    {
      "midi": 38,
      "hit": false,
      "t": 91195.00000000006,
      "d": 1600.0000000000146,
      "v": 100
    },
    {
      "midi": 67,
      "hit": false,
      "t": 91208.33333333334,
      "d": 533.3333333333285,
      "v": 93
    },
    {
      "midi": 71,
      "hit": false,
      "t": 91208.33333333334,
      "d": 533.3333333333285,
      "v": 91
    },
    {
      "midi": 74,
      "hit": false,
      "t": 91208.33333333334,
      "d": 533.3333333333285,
      "v": 108
    },
    {
      "midi": 62,
      "hit": false,
      "t": 91728.3333333334,
      "d": 130,
      "v": 93
    },
    {
      "midi": 62,
      "hit": false,
      "t": 91741.66666666667,
      "d": 216.66666666667152,
      "v": 80
    },
    {
      "midi": 74,
      "hit": false,
      "t": 91995.00000000007,
      "d": 388.3333333333285,
      "v": 127
    },
    {
      "midi": 70,
      "hit": false,
      "t": 91995.00000000007,
      "d": 393.3333333333285,
      "v": 127
    },
    {
      "midi": 62,
      "hit": false,
      "t": 92008.33333333334,
      "d": 483.3333333333285,
      "v": 86
    },
    {
      "midi": 67,
      "hit": false,
      "t": 92008.33333333334,
      "d": 483.3333333333285,
      "v": 103
    },
    {
      "midi": 70,
      "hit": false,
      "t": 92008.33333333334,
      "d": 483.3333333333285,
      "v": 107
    },
    {
      "midi": 74,
      "hit": false,
      "t": 92528.3333333334,
      "d": 348.33333333334303,
      "v": 127
    },
    {
      "midi": 71,
      "hit": false,
      "t": 92528.3333333334,
      "d": 355.00000000001455,
      "v": 124
    },
    {
      "midi": 62,
      "hit": false,
      "t": 92541.66666666667,
      "d": 800,
      "v": 85
    },
    {
      "midi": 67,
      "hit": false,
      "t": 92541.66666666667,
      "d": 800,
      "v": 100
    },
    {
      "midi": 71,
      "hit": false,
      "t": 92541.66666666667,
      "d": 800,
      "v": 101
    },
    {
      "midi": 31,
      "hit": false,
      "t": 92795.00000000007,
      "d": 800.0000000000146,
      "v": 98
    },
    {
      "midi": 43,
      "hit": false,
      "t": 92795.00000000007,
      "d": 800.0000000000146,
      "v": 89
    },
    {
      "midi": 62,
      "hit": false,
      "t": 93328.33333333342,
      "d": 85,
      "v": 98
    },
    {
      "midi": 71,
      "hit": false,
      "t": 93595.00000000009,
      "d": 615,
      "v": 112
    },
    {
      "midi": 67,
      "hit": false,
      "t": 93595.00000000009,
      "d": 626.6666666666715,
      "v": 115
    },
    {
      "midi": 31,
      "hit": false,
      "t": 93595.00000000009,
      "d": 800,
      "v": 103
    },
    {
      "midi": 43,
      "hit": false,
      "t": 93595.00000000009,
      "d": 800,
      "v": 94
    },
    {
      "midi": 67,
      "hit": false,
      "t": 93608.33333333334,
      "d": 700,
      "v": 100
    },
    {
      "midi": 71,
      "hit": false,
      "t": 93608.33333333334,
      "d": 716.6666666666715,
      "v": 100
    },
    {
      "midi": 62,
      "hit": false,
      "t": 93608.33333333334,
      "d": 1533.3333333333285,
      "v": 100
    },
    {
      "midi": 70,
      "hit": false,
      "t": 94395.00000000009,
      "d": 635,
      "v": 124
    },
    {
      "midi": 60,
      "hit": false,
      "t": 94395.00000000009,
      "d": 641.6666666666715,
      "v": 119
    },
    {
      "midi": 66,
      "hit": false,
      "t": 94395.00000000009,
      "d": 641.6666666666715,
      "v": 119
    },
    {
      "midi": 33,
      "hit": false,
      "t": 94395.00000000009,
      "d": 800,
      "v": 111
    },
    {
      "midi": 66,
      "hit": false,
      "t": 94408.33333333334,
      "d": 683.3333333333285,
      "v": 96
    },
    {
      "midi": 70,
      "hit": false,
      "t": 94408.33333333334,
      "d": 700,
      "v": 96
    },
    {
      "midi": 65,
      "hit": false,
      "t": 95195.00000000009,
      "d": 615,
      "v": 115
    },
    {
      "midi": 69,
      "hit": false,
      "t": 95195.00000000009,
      "d": 615,
      "v": 118
    },
    {
      "midi": 59,
      "hit": false,
      "t": 95195.00000000009,
      "d": 650,
      "v": 90
    },
    {
      "midi": 35,
      "hit": false,
      "t": 95195.00000000009,
      "d": 800,
      "v": 107
    },
    {
      "midi": 69,
      "hit": false,
      "t": 95208.33333333334,
      "d": 700,
      "v": 94
    },
    {
      "midi": 62,
      "hit": false,
      "t": 95208.33333333334,
      "d": 750,
      "v": 94
    },
    {
      "midi": 65,
      "hit": false,
      "t": 95208.33333333334,
      "d": 750,
      "v": 94
    },
    {
      "midi": 55,
      "hit": false,
      "t": 95995.00000000009,
      "d": 733.3333333333285,
      "v": 112
    },
    {
      "midi": 60,
      "hit": false,
      "t": 95995.00000000009,
      "d": 733.3333333333285,
      "v": 112
    },
    {
      "midi": 64,
      "hit": false,
      "t": 95995.00000000009,
      "d": 733.3333333333285,
      "v": 112
    },
    {
      "midi": 36,
      "hit": false,
      "t": 95995.00000000009,
      "d": 1600,
      "v": 112
    },
    {
      "midi": 67,
      "hit": false,
      "t": 96008.33333333334,
      "d": 733.3333333333285,
      "v": 99
    },
    {
      "midi": 64,
      "hit": false,
      "t": 96008.33333333334,
      "d": 750,
      "v": 88
    },
    {
      "midi": 60,
      "hit": false,
      "t": 96008.33333333334,
      "d": 800,
      "v": 88
    },
    {
      "midi": 64,
      "hit": false,
      "t": 96795.00000000009,
      "d": 1516.6666666666715,
      "v": 90
    },
    {
      "midi": 60,
      "hit": false,
      "t": 96795.00000000009,
      "d": 1550,
      "v": 93
    },
    {
      "midi": 55,
      "hit": false,
      "t": 96795.00000000009,
      "d": 1566.6666666666715,
      "v": 94
    },
    {
      "midi": 64,
      "hit": false,
      "t": 96808.33333333334,
      "d": 1533.3333333333285,
      "v": 98
    },
    {
      "midi": 67,
      "hit": false,
      "t": 96808.33333333334,
      "d": 1533.3333333333285,
      "v": 98
    },
    {
      "midi": 72,
      "hit": false,
      "t": 96808.33333333334,
      "d": 1533.3333333333285,
      "v": 98
    },
    {
      "midi": 43,
      "hit": false,
      "t": 97595.00000000009,
      "d": 1600.0000000000146,
      "v": 88
    },
    {
      "midi": 31,
      "hit": false,
      "t": 97595.00000000009,
      "d": 1610.0000000000146,
      "v": 91
    },
    {
      "midi": 64,
      "hit": false,
      "t": 98395.00000000009,
      "d": 466.6666666666715,
      "v": 86
    },
    {
      "midi": 60,
      "hit": false,
      "t": 98395.00000000009,
      "d": 483.33333333334303,
      "v": 90
    },
    {
      "midi": 55,
      "hit": false,
      "t": 98395.00000000009,
      "d": 533.333333333343,
      "v": 88
    },
    {
      "midi": 72,
      "hit": false,
      "t": 98408.33333333334,
      "d": 716.6666666666715,
      "v": 93
    },
    {
      "midi": 67,
      "hit": false,
      "t": 98408.33333333334,
      "d": 733.333333333343,
      "v": 109
    },
    {
      "midi": 76,
      "hit": false,
      "t": 98408.33333333334,
      "d": 733.333333333343,
      "v": 99
    },
    {
      "midi": 64,
      "hit": false,
      "t": 98928.33333333343,
      "d": 1000,
      "v": 83
    },
    {
      "midi": 67,
      "hit": false,
      "t": 98928.33333333343,
      "d": 1016.6666666666715,
      "v": 95
    },
    {
      "midi": 60,
      "hit": false,
      "t": 98928.33333333343,
      "d": 1033.333333333343,
      "v": 91
    },
    {
      "midi": 36,
      "hit": false,
      "t": 99195.0000000001,
      "d": 1600,
      "v": 99
    },
    {
      "midi": 72,
      "hit": false,
      "t": 99208.33333333336,
      "d": 1600,
      "v": 100
    },
    {
      "midi": 76,
      "hit": false,
      "t": 99208.33333333336,
      "d": 1600,
      "v": 100
    },
    {
      "midi": 79,
      "hit": false,
      "t": 99208.33333333336,
      "d": 1600,
      "v": 100
    },
    {
      "midi": 60,
      "hit": false,
      "t": 99995.0000000001,
      "d": 700,
      "v": 98
    },
    {
      "midi": 64,
      "hit": false,
      "t": 99995.0000000001,
      "d": 733.3333333333285,
      "v": 92
    },
    {
      "midi": 67,
      "hit": false,
      "t": 99995.0000000001,
      "d": 750,
      "v": 99
    },
    {
      "midi": 55,
      "hit": false,
      "t": 100795.0000000001,
      "d": 733.3333333333285,
      "v": 96
    },
    {
      "midi": 60,
      "hit": false,
      "t": 100795.0000000001,
      "d": 750,
      "v": 91
    },
    {
      "midi": 64,
      "hit": false,
      "t": 100795.0000000001,
      "d": 750,
      "v": 93
    },
    {
      "midi": 43,
      "hit": false,
      "t": 100795.0000000001,
      "d": 1600,
      "v": 100
    },
    {
      "midi": 67,
      "hit": false,
      "t": 100808.33333333336,
      "d": 716.6666666666715,
      "v": 91
    },
    {
      "midi": 76,
      "hit": false,
      "t": 100808.33333333336,
      "d": 733.333333333343,
      "v": 91
    },
    {
      "midi": 72,
      "hit": false,
      "t": 100808.33333333336,
      "d": 750.0000000000146,
      "v": 91
    },
    {
      "midi": 55,
      "hit": false,
      "t": 101595.0000000001,
      "d": 750,
      "v": 90
    },
    {
      "midi": 60,
      "hit": false,
      "t": 101595.0000000001,
      "d": 766.6666666666715,
      "v": 94
    },
    {
      "midi": 63,
      "hit": false,
      "t": 101595.0000000001,
      "d": 766.6666666666715,
      "v": 102
    },
    {
      "midi": 67,
      "hit": false,
      "t": 101608.33333333337,
      "d": 716.6666666666715,
      "v": 96
    },
    {
      "midi": 72,
      "hit": false,
      "t": 101608.33333333337,
      "d": 766.6666666666715,
      "v": 96
    },
    {
      "midi": 75,
      "hit": false,
      "t": 101608.33333333337,
      "d": 766.6666666666715,
      "v": 96
    },
    {
      "midi": 55,
      "hit": false,
      "t": 102395.0000000001,
      "d": 666.6666666666715,
      "v": 87
    },
    {
      "midi": 59,
      "hit": false,
      "t": 102395.0000000001,
      "d": 666.6666666666715,
      "v": 90
    },
    {
      "midi": 62,
      "hit": false,
      "t": 102395.0000000001,
      "d": 666.6666666666715,
      "v": 81
    },
    {
      "midi": 31,
      "hit": false,
      "t": 102395.0000000001,
      "d": 1600,
      "v": 95
    },
    {
      "midi": 71,
      "hit": false,
      "t": 102408.33333333337,
      "d": 1533.3333333333285,
      "v": 85
    },
    {
      "midi": 67,
      "hit": false,
      "t": 102408.33333333337,
      "d": 1550,
      "v": 85
    },
    {
      "midi": 74,
      "hit": false,
      "t": 102408.33333333337,
      "d": 1550,
      "v": 85
    },
    {
      "midi": 62,
      "hit": false,
      "t": 103195.0000000001,
      "d": 1516.6666666666715,
      "v": 85
    },
    {
      "midi": 59,
      "hit": false,
      "t": 103195.0000000001,
      "d": 1533.333333333343,
      "v": 95
    },
    {
      "midi": 55,
      "hit": false,
      "t": 103195.0000000001,
      "d": 1550.0000000000146,
      "v": 92
    },
    {
      "midi": 38,
      "hit": false,
      "t": 103995.0000000001,
      "d": 1600.000000000029,
      "v": 95
    },
    {
      "midi": 59,
      "hit": false,
      "t": 104008.33333333337,
      "d": 716.6666666666715,
      "v": 95
    },
    {
      "midi": 67,
      "hit": false,
      "t": 104008.33333333337,
      "d": 733.333333333343,
      "v": 90
    },
    {
      "midi": 62,
      "hit": false,
      "t": 104008.33333333337,
      "d": 750.0000000000146,
      "v": 77
    },
    {
      "midi": 55,
      "hit": false,
      "t": 104795.00000000012,
      "d": 466.6666666666715,
      "v": 87
    },
    {
      "midi": 59,
      "hit": false,
      "t": 104795.00000000012,
      "d": 483.33333333334303,
      "v": 87
    },
    {
      "midi": 62,
      "hit": false,
      "t": 104795.00000000012,
      "d": 483.33333333334303,
      "v": 90
    },
    {
      "midi": 62,
      "hit": false,
      "t": 104808.33333333339,
      "d": 1216.6666666666715,
      "v": 78
    },
    {
      "midi": 67,
      "hit": false,
      "t": 104808.33333333339,
      "d": 1333.333333333343,
      "v": 89
    },
    {
      "midi": 71,
      "hit": false,
      "t": 104808.33333333339,
      "d": 1333.333333333343,
      "v": 86
    },
    {
      "midi": 59,
      "hit": false,
      "t": 105328.33333333346,
      "d": 933.333333333343,
      "v": 63
    },
    {
      "midi": 62,
      "hit": false,
      "t": 105328.33333333346,
      "d": 933.333333333343,
      "v": 55
    },
    {
      "midi": 67,
      "hit": false,
      "t": 105328.33333333346,
      "d": 933.333333333343,
      "v": 91
    },
    {
      "midi": 31,
      "hit": false,
      "t": 105595.00000000013,
      "d": 1600,
      "v": 88
    },
    {
      "midi": 43,
      "hit": false,
      "t": 105595.00000000013,
      "d": 1600,
      "v": 75
    },
    {
      "midi": 62,
      "hit": false,
      "t": 106141.66666666673,
      "d": 266.6666666666715,
      "v": 87
    },
    {
      "midi": 59,
      "hit": false,
      "t": 106395.00000000013,
      "d": 800,
      "v": 106
    },
    {
      "midi": 62,
      "hit": false,
      "t": 106395.00000000013,
      "d": 800,
      "v": 104
    },
    {
      "midi": 67,
      "hit": false,
      "t": 106395.00000000013,
      "d": 800,
      "v": 101
    },
    {
      "midi": 67,
      "hit": false,
      "t": 106408.3333333334,
      "d": 1333.3333333333285,
      "v": 98
    },
    {
      "midi": 71,
      "hit": false,
      "t": 106408.3333333334,
      "d": 1333.3333333333285,
      "v": 98
    },
    {
      "midi": 74,
      "hit": false,
      "t": 106408.3333333334,
      "d": 1333.3333333333285,
      "v": 98
    },
    {
      "midi": 59,
      "hit": false,
      "t": 107195.00000000013,
      "d": 800,
      "v": 100
    },
    {
      "midi": 62,
      "hit": false,
      "t": 107195.00000000013,
      "d": 800,
      "v": 106
    },
    {
      "midi": 66,
      "hit": false,
      "t": 107195.00000000013,
      "d": 800,
      "v": 104
    },
    {
      "midi": 38,
      "hit": false,
      "t": 107195.00000000013,
      "d": 1600,
      "v": 97
    },
    {
      "midi": 62,
      "hit": false,
      "t": 107741.66666666673,
      "d": 183.33333333332848,
      "v": 87
    },
    {
      "midi": 55,
      "hit": false,
      "t": 107995.00000000013,
      "d": 533.3333333333285,
      "v": 99
    },
    {
      "midi": 60,
      "hit": false,
      "t": 107995.00000000013,
      "d": 533.3333333333285,
      "v": 97
    },
    {
      "midi": 64,
      "hit": false,
      "t": 107995.00000000013,
      "d": 533.3333333333285,
      "v": 91
    },
    {
      "midi": 67,
      "hit": false,
      "t": 108008.33333333339,
      "d": 700,
      "v": 90
    },
    {
      "midi": 71,
      "hit": false,
      "t": 108008.33333333339,
      "d": 700,
      "v": 87
    },
    {
      "midi": 62,
      "hit": false,
      "t": 108008.33333333339,
      "d": 750,
      "v": 63
    },
    {
      "midi": 57,
      "hit": false,
      "t": 108528.33333333346,
      "d": 933.333333333343,
      "v": 95
    },
    {
      "midi": 62,
      "hit": false,
      "t": 108528.33333333346,
      "d": 933.333333333343,
      "v": 100
    },
    {
      "midi": 66,
      "hit": false,
      "t": 108528.33333333346,
      "d": 933.333333333343,
      "v": 103
    },
    {
      "midi": 38,
      "hit": false,
      "t": 108795.00000000013,
      "d": 1600,
      "v": 90
    },
    {
      "midi": 62,
      "hit": false,
      "t": 108808.33333333339,
      "d": 1866.6666666666715,
      "v": 93
    },
    {
      "midi": 66,
      "hit": false,
      "t": 108808.33333333339,
      "d": 1866.6666666666715,
      "v": 98
    },
    {
      "midi": 69,
      "hit": false,
      "t": 108808.33333333339,
      "d": 2033.333333333343,
      "v": 100
    },
    {
      "midi": 57,
      "hit": false,
      "t": 109595.00000000013,
      "d": 1550,
      "v": 95
    },
    {
      "midi": 62,
      "hit": false,
      "t": 109595.00000000013,
      "d": 1550,
      "v": 81
    },
    {
      "midi": 66,
      "hit": false,
      "t": 109595.00000000013,
      "d": 1550,
      "v": 87
    },
    {
      "midi": 33,
      "hit": false,
      "t": 110395.00000000013,
      "d": 1600,
      "v": 103
    },
    {
      "midi": 62,
      "hit": false,
      "t": 110941.66666666673,
      "d": 800,
      "v": 96
    },
    {
      "midi": 66,
      "hit": false,
      "t": 110941.66666666673,
      "d": 800,
      "v": 96
    },
    {
      "midi": 74,
      "hit": false,
      "t": 110941.66666666673,
      "d": 800,
      "v": 96
    },
    {
      "midi": 57,
      "hit": false,
      "t": 111195.00000000013,
      "d": 1200,
      "v": 89
    },
    {
      "midi": 62,
      "hit": false,
      "t": 111195.00000000013,
      "d": 1200,
      "v": 95
    },
    {
      "midi": 66,
      "hit": false,
      "t": 111195.00000000013,
      "d": 1200,
      "v": 84
    },
    {
      "midi": 69,
      "hit": false,
      "t": 111741.66666666673,
      "d": 200,
      "v": 76
    },
    {
      "midi": 38,
      "hit": false,
      "t": 111995.00000000013,
      "d": 1599.9999999999854,
      "v": 99
    },
    {
      "midi": 66,
      "hit": false,
      "t": 112008.3333333334,
      "d": 533.3333333333285,
      "v": 103
    },
    {
      "midi": 72,
      "hit": false,
      "t": 112008.3333333334,
      "d": 533.3333333333285,
      "v": 103
    },
    {
      "midi": 76,
      "hit": false,
      "t": 112008.3333333334,
      "d": 533.3333333333285,
      "v": 103
    },
    {
      "midi": 62,
      "hit": false,
      "t": 112528.33333333346,
      "d": 83.33333333332848,
      "v": 101
    },
    {
      "midi": 62,
      "hit": false,
      "t": 112795.00000000012,
      "d": 581.6666666666715,
      "v": 98
    },
    {
      "midi": 66,
      "hit": false,
      "t": 112795.00000000012,
      "d": 626.6666666666715,
      "v": 111
    },
    {
      "midi": 72,
      "hit": false,
      "t": 112795.00000000012,
      "d": 646.6666666666715,
      "v": 117
    },
    {
      "midi": 66,
      "hit": false,
      "t": 112808.3333333334,
      "d": 666.6666666666715,
      "v": 87
    },
    {
      "midi": 76,
      "hit": false,
      "t": 112808.3333333334,
      "d": 700,
      "v": 87
    },
    {
      "midi": 72,
      "hit": false,
      "t": 112808.3333333334,
      "d": 716.6666666666715,
      "v": 87
    },
    {
      "midi": 66,
      "hit": false,
      "t": 113595.00000000012,
      "d": 651.6666666666715,
      "v": 110
    },
    {
      "midi": 62,
      "hit": false,
      "t": 113595.00000000012,
      "d": 673.333333333343,
      "v": 96
    },
    {
      "midi": 71,
      "hit": false,
      "t": 113595.00000000012,
      "d": 693.333333333343,
      "v": 108
    },
    {
      "midi": 33,
      "hit": false,
      "t": 113595.00000000012,
      "d": 1600.0000000000146,
      "v": 111
    },
    {
      "midi": 71,
      "hit": false,
      "t": 113608.3333333334,
      "d": 700,
      "v": 87
    },
    {
      "midi": 74,
      "hit": false,
      "t": 113608.3333333334,
      "d": 700,
      "v": 87
    },
    {
      "midi": 66,
      "hit": false,
      "t": 113608.3333333334,
      "d": 716.6666666666715,
      "v": 87
    },
    {
      "midi": 62,
      "hit": false,
      "t": 114395.00000000013,
      "d": 500,
      "v": 90
    },
    {
      "midi": 66,
      "hit": false,
      "t": 114395.00000000013,
      "d": 533.3333333333285,
      "v": 109
    },
    {
      "midi": 69,
      "hit": false,
      "t": 114395.00000000013,
      "d": 533.3333333333285,
      "v": 110
    },
    {
      "midi": 69,
      "hit": false,
      "t": 114408.3333333334,
      "d": 700,
      "v": 94
    },
    {
      "midi": 66,
      "hit": false,
      "t": 114408.3333333334,
      "d": 733.3333333333285,
      "v": 94
    },
    {
      "midi": 72,
      "hit": false,
      "t": 114408.3333333334,
      "d": 750,
      "v": 94
    },
    {
      "midi": 67,
      "hit": false,
      "t": 114928.33333333346,
      "d": 1000,
      "v": 115
    },
    {
      "midi": 71,
      "hit": false,
      "t": 114928.33333333346,
      "d": 1016.6666666666715,
      "v": 106
    },
    {
      "midi": 62,
      "hit": false,
      "t": 114928.33333333346,
      "d": 1033.333333333343,
      "v": 103
    },
    {
      "midi": 43,
      "hit": false,
      "t": 115195.00000000013,
      "d": 1566.6666666666715,
      "v": 99
    },
    {
      "midi": 31,
      "hit": false,
      "t": 115195.00000000013,
      "d": 1600,
      "v": 99
    },
    {
      "midi": 71,
      "hit": false,
      "t": 115208.3333333334,
      "d": 1516.6666666666715,
      "v": 96
    },
    {
      "midi": 67,
      "hit": false,
      "t": 115208.3333333334,
      "d": 1533.333333333343,
      "v": 96
    },
    {
      "midi": 74,
      "hit": false,
      "t": 115208.3333333334,
      "d": 1550.0000000000146,
      "v": 96
    },
    {
      "midi": 59,
      "hit": false,
      "t": 115995.00000000013,
      "d": 1550,
      "v": 100
    },
    {
      "midi": 62,
      "hit": false,
      "t": 115995.00000000013,
      "d": 1550,
      "v": 79
    },
    {
      "midi": 67,
      "hit": false,
      "t": 115995.00000000013,
      "d": 1566.6666666666715,
      "v": 100
    },
    {
      "midi": 38,
      "hit": false,
      "t": 116795.00000000013,
      "d": 1616.6666666666715,
      "v": 100
    },
    {
      "midi": 71,
      "hit": false,
      "t": 116808.33333333342,
      "d": 2118.3333333333285,
      "v": 80
    },
    {
      "midi": 67,
      "hit": false,
      "t": 116808.33333333342,
      "d": 2125,
      "v": 83
    },
    {
      "midi": 62,
      "hit": false,
      "t": 116808.33333333342,
      "d": 2128.3333333333285,
      "v": 67
    },
    {
      "midi": 59,
      "hit": false,
      "t": 117595.00000000013,
      "d": 1466.6666666666715,
      "v": 91
    },
    {
      "midi": 62,
      "hit": false,
      "t": 117595.00000000013,
      "d": 1516.6666666666715,
      "v": 84
    },
    {
      "midi": 67,
      "hit": false,
      "t": 117595.00000000013,
      "d": 1550,
      "v": 97
    },
    {
      "midi": 31,
      "hit": false,
      "t": 118395.00000000013,
      "d": 800,
      "v": 98
    },
    {
      "midi": 43,
      "hit": false,
      "t": 118395.00000000013,
      "d": 800,
      "v": 89
    },
    {
      "midi": 31,
      "hit": false,
      "t": 119195.00000000013,
      "d": 800,
      "v": 103
    },
    {
      "midi": 43,
      "hit": false,
      "t": 119195.00000000013,
      "d": 800,
      "v": 94
    },
    {
      "midi": 74,
      "hit": false,
      "t": 119195.00000000013,
      "d": 800,
      "v": 122
    },
    {
      "midi": 62,
      "hit": false,
      "t": 119195.00000000013,
      "d": 2316.6666666666715,
      "v": 100
    },
    {
      "midi": 66,
      "hit": false,
      "t": 119195.00000000013,
      "d": 2350,
      "v": 115
    },
    {
      "midi": 74,
      "hit": false,
      "t": 119208.33333333342,
      "d": 800,
      "v": 112
    },
    {
      "midi": 33,
      "hit": false,
      "t": 119995.00000000013,
      "d": 800,
      "v": 111
    },
    {
      "midi": 73,
      "hit": false,
      "t": 119995.00000000013,
      "d": 800,
      "v": 119
    },
    {
      "midi": 73,
      "hit": false,
      "t": 120008.33333333342,
      "d": 800,
      "v": 117
    },
    {
      "midi": 35,
      "hit": false,
      "t": 120795.00000000013,
      "d": 800,
      "v": 107
    },
    {
      "midi": 72,
      "hit": false,
      "t": 120795.00000000013,
      "d": 800,
      "v": 124
    },
    {
      "midi": 72,
      "hit": false,
      "t": 120808.33333333342,
      "d": 800,
      "v": 116
    },
    {
      "midi": 67,
      "hit": false,
      "t": 121595.00000000013,
      "d": 400,
      "v": 88
    },
    {
      "midi": 71,
      "hit": false,
      "t": 121595.00000000013,
      "d": 400,
      "v": 88
    },
    {
      "midi": 31,
      "hit": false,
      "t": 121595.00000000013,
      "d": 1600,
      "v": 88
    },
    {
      "midi": 43,
      "hit": false,
      "t": 121595.00000000013,
      "d": 1600,
      "v": 88
    },
    {
      "midi": 71,
      "hit": false,
      "t": 121608.33333333342,
      "d": 1550,
      "v": 98
    },
    {
      "midi": 67,
      "hit": false,
      "t": 121608.33333333342,
      "d": 1566.6666666666715,
      "v": 89
    },
    {
      "midi": 59,
      "hit": false,
      "t": 122395.00000000013,
      "d": 800,
      "v": 79
    },
    {
      "midi": 62,
      "hit": false,
      "t": 122395.00000000013,
      "d": 800,
      "v": 79
    },
    {
      "midi": 67,
      "hit": false,
      "t": 122395.00000000013,
      "d": 800,
      "v": 79
    },
    {
      "midi": 38,
      "hit": false,
      "t": 123195.00000000013,
      "d": 1600,
      "v": 86
    },
    {
      "midi": 62,
      "hit": false,
      "t": 123208.33333333342,
      "d": 2400,
      "v": 78
    },
    {
      "midi": 67,
      "hit": false,
      "t": 123208.33333333342,
      "d": 2400,
      "v": 78
    },
    {
      "midi": 71,
      "hit": false,
      "t": 123208.33333333342,
      "d": 2400,
      "v": 78
    },
    {
      "midi": 59,
      "hit": false,
      "t": 123995.00000000013,
      "d": 800,
      "v": 79
    },
    {
      "midi": 62,
      "hit": false,
      "t": 123995.00000000013,
      "d": 800,
      "v": 79
    },
    {
      "midi": 67,
      "hit": false,
      "t": 123995.00000000013,
      "d": 800,
      "v": 79
    },
    {
      "midi": 31,
      "hit": false,
      "t": 124795.00000000013,
      "d": 1600,
      "v": 83
    },
    {
      "midi": 43,
      "hit": false,
      "t": 124795.00000000013,
      "d": 1600,
      "v": 83
    },
    {
      "midi": 59,
      "hit": false,
      "t": 125595.00000000013,
      "d": 800,
      "v": 81
    },
    {
      "midi": 62,
      "hit": false,
      "t": 125595.00000000013,
      "d": 800,
      "v": 81
    },
    {
      "midi": 67,
      "hit": false,
      "t": 125595.00000000013,
      "d": 800,
      "v": 81
    },
    {
      "midi": 74,
      "hit": false,
      "t": 126141.66666666674,
      "d": 158.33333333332848,
      "v": 90
    },
    {
      "midi": 71,
      "hit": false,
      "t": 126141.66666666674,
      "d": 163.33333333332848,
      "v": 69
    },
    {
      "midi": 38,
      "hit": false,
      "t": 126395.00000000013,
      "d": 1600.0000000000146,
      "v": 77
    },
    {
      "midi": 71,
      "hit": false,
      "t": 126408.3333333334,
      "d": 933.3333333333285,
      "v": 84
    },
    {
      "midi": 74,
      "hit": false,
      "t": 126408.3333333334,
      "d": 933.3333333333285,
      "v": 87
    },
    {
      "midi": 62,
      "hit": false,
      "t": 127461.6666666668,
      "d": 266.6666666666715,
      "v": 114
    },
    {
      "midi": 67,
      "hit": false,
      "t": 127475.00000000006,
      "d": 200,
      "v": 65
    },
    {
      "midi": 71,
      "hit": false,
      "t": 127475.00000000006,
      "d": 200,
      "v": 81
    },
    {
      "midi": 62,
      "hit": false,
      "t": 127475.00000000006,
      "d": 216.66666666667152,
      "v": 57
    },
    {
      "midi": 63,
      "hit": false,
      "t": 127728.33333333347,
      "d": 266.6666666666715,
      "v": 93
    },
    {
      "midi": 64,
      "hit": false,
      "t": 127741.66666666673,
      "d": 2120,
      "v": 88
    },
    {
      "midi": 60,
      "hit": false,
      "t": 127741.66666666673,
      "d": 2196.6666666666715,
      "v": 92
    },
    {
      "midi": 67,
      "hit": false,
      "t": 127741.66666666673,
      "d": 2200,
      "v": 89
    },
    {
      "midi": 64,
      "hit": false,
      "t": 127995.00000000015,
      "d": 766.6666666666715,
      "v": 87
    },
    {
      "midi": 36,
      "hit": false,
      "t": 127995.00000000015,
      "d": 1600,
      "v": 74
    },
    {
      "midi": 55,
      "hit": false,
      "t": 128795.00000000015,
      "d": 800,
      "v": 72
    },
    {
      "midi": 60,
      "hit": false,
      "t": 128795.00000000015,
      "d": 800,
      "v": 72
    },
    {
      "midi": 64,
      "hit": false,
      "t": 128795.00000000015,
      "d": 800,
      "v": 72
    },
    {
      "midi": 43,
      "hit": false,
      "t": 129595.00000000015,
      "d": 1599.999999999971,
      "v": 79
    },
    {
      "midi": 55,
      "hit": false,
      "t": 130128.33333333347,
      "d": 573.3333333333285,
      "v": 108
    },
    {
      "midi": 65,
      "hit": false,
      "t": 130141.66666666673,
      "d": 196.66666666667152,
      "v": 114
    },
    {
      "midi": 60,
      "hit": false,
      "t": 130395.00000000015,
      "d": 298.3333333333285,
      "v": 88
    },
    {
      "midi": 64,
      "hit": false,
      "t": 130395.00000000015,
      "d": 334.99999999998545,
      "v": 97
    },
    {
      "midi": 66,
      "hit": false,
      "t": 130675.00000000007,
      "d": 466.6666666666715,
      "v": 117
    },
    {
      "midi": 60,
      "hit": false,
      "t": 130928.33333333346,
      "d": 216.66666666665697,
      "v": 100
    },
    {
      "midi": 57,
      "hit": false,
      "t": 130928.33333333346,
      "d": 266.66666666665697,
      "v": 98
    },
    {
      "midi": 65,
      "hit": false,
      "t": 130928.33333333346,
      "d": 266.66666666665697,
      "v": 100
    },
    {
      "midi": 55,
      "hit": false,
      "t": 131195.00000000012,
      "d": 1500,
      "v": 97
    },
    {
      "midi": 60,
      "hit": false,
      "t": 131195.00000000012,
      "d": 1516.666666666657,
      "v": 90
    },
    {
      "midi": 64,
      "hit": false,
      "t": 131195.00000000012,
      "d": 1533.333333333314,
      "v": 90
    },
    {
      "midi": 36,
      "hit": false,
      "t": 131195.00000000012,
      "d": 1599.999999999971,
      "v": 77
    },
    {
      "midi": 67,
      "hit": false,
      "t": 131208.3333333334,
      "d": 1500,
      "v": 88
    },
    {
      "midi": 60,
      "hit": false,
      "t": 131208.3333333334,
      "d": 1516.666666666657,
      "v": 52
    },
    {
      "midi": 64,
      "hit": false,
      "t": 131208.3333333334,
      "d": 1550,
      "v": 82
    },
    {
      "midi": 55,
      "hit": false,
      "t": 132795.0000000001,
      "d": 433.33333333334303,
      "v": 108
    },
    {
      "midi": 36,
      "hit": false,
      "t": 132795.0000000001,
      "d": 800,
      "v": 108
    },
    {
      "midi": 60,
      "hit": false,
      "t": 132795.0000000001,
      "d": 800,
      "v": 108
    },
    {
      "midi": 64,
      "hit": false,
      "t": 132795.0000000001,
      "d": 800,
      "v": 108
    },
    {
      "midi": 60,
      "hit": false,
      "t": 132808.3333333334,
      "d": 700,
      "v": 91
    },
    {
      "midi": 64,
      "hit": false,
      "t": 132808.3333333334,
      "d": 750,
      "v": 91
    },
    {
      "midi": 55,
      "hit": false,
      "t": 133328.33333333343,
      "d": 799.9999999999709,
      "v": 122
    },
    {
      "midi": 61,
      "hit": false,
      "t": 133595.0000000001,
      "d": 466.66666666665697,
      "v": 122
    },
    {
      "midi": 65,
      "hit": false,
      "t": 133595.0000000001,
      "d": 533.3333333333139,
      "v": 122
    },
    {
      "midi": 37,
      "hit": false,
      "t": 133595.0000000001,
      "d": 799.9999999999709,
      "v": 77
    },
    {
      "midi": 61,
      "hit": false,
      "t": 133608.3333333334,
      "d": 483.33333333334303,
      "v": 89
    },
    {
      "midi": 65,
      "hit": false,
      "t": 133608.3333333334,
      "d": 483.33333333334303,
      "v": 89
    },
    {
      "midi": 57,
      "hit": false,
      "t": 134128.3333333334,
      "d": 983.3333333333139,
      "v": 107
    },
    {
      "midi": 62,
      "hit": false,
      "t": 134128.3333333334,
      "d": 999.9999999999709,
      "v": 107
    },
    {
      "midi": 66,
      "hit": false,
      "t": 134128.3333333334,
      "d": 1016.6666666666279,
      "v": 117
    },
    {
      "midi": 62,
      "hit": false,
      "t": 134141.66666666674,
      "d": 2816.666666666657,
      "v": 91
    },
    {
      "midi": 66,
      "hit": false,
      "t": 134141.66666666674,
      "d": 2933.333333333314,
      "v": 91
    },
    {
      "midi": 38,
      "hit": false,
      "t": 134395.00000000006,
      "d": 1599.999999999971,
      "v": 90
    },
    {
      "midi": 57,
      "hit": false,
      "t": 135195.00000000003,
      "d": 800,
      "v": 79
    },
    {
      "midi": 62,
      "hit": false,
      "t": 135195.00000000003,
      "d": 800,
      "v": 79
    },
    {
      "midi": 66,
      "hit": false,
      "t": 135195.00000000003,
      "d": 800,
      "v": 79
    },
    {
      "midi": 45,
      "hit": false,
      "t": 135995.00000000003,
      "d": 1600,
      "v": 74
    },
    {
      "midi": 62,
      "hit": false,
      "t": 137061.6666666667,
      "d": 260,
      "v": 114
    },
    {
      "midi": 62,
      "hit": false,
      "t": 137075.00000000006,
      "d": 200,
      "v": 96
    },
    {
      "midi": 61,
      "hit": false,
      "t": 137328.33333333334,
      "d": 263.33333333334303,
      "v": 102
    },
    {
      "midi": 61,
      "hit": false,
      "t": 137341.66666666672,
      "d": 233.33333333334303,
      "v": 96
    },
    {
      "midi": 38,
      "hit": false,
      "t": 137595.00000000003,
      "d": 1600,
      "v": 79
    },
    {
      "midi": 60,
      "hit": false,
      "t": 137595.00000000003,
      "d": 1600,
      "v": 101
    },
    {
      "midi": 57,
      "hit": false,
      "t": 137608.3333333334,
      "d": 2533.333333333343,
      "v": 78
    },
    {
      "midi": 60,
      "hit": false,
      "t": 137608.3333333334,
      "d": 2533.333333333343,
      "v": 100
    },
    {
      "midi": 66,
      "hit": false,
      "t": 137608.3333333334,
      "d": 2533.333333333343,
      "v": 89
    },
    {
      "midi": 62,
      "hit": false,
      "t": 138395.00000000003,
      "d": 800,
      "v": 82
    },
    {
      "midi": 66,
      "hit": false,
      "t": 138395.00000000003,
      "d": 800,
      "v": 78
    },
    {
      "midi": 45,
      "hit": false,
      "t": 139195.00000000003,
      "d": 1600,
      "v": 72
    },
    {
      "midi": 60,
      "hit": false,
      "t": 139995.00000000003,
      "d": 800,
      "v": 81
    },
    {
      "midi": 66,
      "hit": false,
      "t": 139995.00000000003,
      "d": 800,
      "v": 80
    },
    {
      "midi": 69,
      "hit": false,
      "t": 139995.00000000003,
      "d": 800,
      "v": 92
    },
    {
      "midi": 74,
      "hit": false,
      "t": 140275.0000000001,
      "d": 203.33333333334303,
      "v": 108
    },
    {
      "midi": 81,
      "hit": false,
      "t": 140541.66666666677,
      "d": 270,
      "v": 97
    },
    {
      "midi": 43,
      "hit": false,
      "t": 140795.00000000003,
      "d": 1600,
      "v": 77
    },
    {
      "midi": 79,
      "hit": false,
      "t": 140808.33333333343,
      "d": 2408.333333333343,
      "v": 116
    },
    {
      "midi": 62,
      "hit": false,
      "t": 141328.33333333337,
      "d": 750,
      "v": 110
    },
    {
      "midi": 59,
      "hit": false,
      "t": 141595.00000000003,
      "d": 533.333333333343,
      "v": 79
    },
    {
      "midi": 67,
      "hit": false,
      "t": 141595.00000000003,
      "d": 800,
      "v": 93
    },
    {
      "midi": 62,
      "hit": false,
      "t": 142128.33333333337,
      "d": 1583.333333333314,
      "v": 98
    },
    {
      "midi": 69,
      "hit": false,
      "t": 142395.00000000003,
      "d": 800,
      "v": 127
    },
    {
      "midi": 38,
      "hit": false,
      "t": 142395.00000000003,
      "d": 1599.999999999971,
      "v": 79
    },
    {
      "midi": 70,
      "hit": false,
      "t": 143195.00000000003,
      "d": 533.3333333333139,
      "v": 113
    },
    {
      "midi": 74,
      "hit": false,
      "t": 143475.00000000012,
      "d": 230,
      "v": 91
    },
    {
      "midi": 62,
      "hit": false,
      "t": 143728.33333333334,
      "d": 933.3333333333139,
      "v": 82
    },
    {
      "midi": 67,
      "hit": false,
      "t": 143728.33333333334,
      "d": 933.3333333333139,
      "v": 106
    },
    {
      "midi": 71,
      "hit": false,
      "t": 143728.33333333334,
      "d": 933.3333333333139,
      "v": 110
    },
    {
      "midi": 76,
      "hit": false,
      "t": 143741.66666666677,
      "d": 225,
      "v": 98
    },
    {
      "midi": 43,
      "hit": false,
      "t": 143995,
      "d": 800,
      "v": 93
    },
    {
      "midi": 74,
      "hit": false,
      "t": 144008.33333333343,
      "d": 745,
      "v": 97
    },
    {
      "midi": 62,
      "hit": false,
      "t": 144795,
      "d": 716.666666666657,
      "v": 106
    },
    {
      "midi": 38,
      "hit": false,
      "t": 144795,
      "d": 800,
      "v": 105
    },
    {
      "midi": 57,
      "hit": false,
      "t": 144795,
      "d": 2400,
      "v": 105
    },
    {
      "midi": 71,
      "hit": false,
      "t": 144808.33333333343,
      "d": 733.333333333343,
      "v": 107
    },
    {
      "midi": 74,
      "hit": false,
      "t": 144808.33333333343,
      "d": 750,
      "v": 107
    },
    {
      "midi": 61,
      "hit": false,
      "t": 145595,
      "d": 716.666666666657,
      "v": 123
    },
    {
      "midi": 40,
      "hit": false,
      "t": 145595,
      "d": 800,
      "v": 107
    },
    {
      "midi": 73,
      "hit": false,
      "t": 145608.33333333343,
      "d": 716.666666666657,
      "v": 117
    },
    {
      "midi": 70,
      "hit": false,
      "t": 145608.33333333343,
      "d": 733.3333333333139,
      "v": 87
    },
    {
      "midi": 60,
      "hit": false,
      "t": 146395,
      "d": 716.666666666657,
      "v": 105
    },
    {
      "midi": 42,
      "hit": false,
      "t": 146395,
      "d": 800,
      "v": 87
    },
    {
      "midi": 69,
      "hit": false,
      "t": 146408.3333333334,
      "d": 716.666666666657,
      "v": 76
    },
    {
      "midi": 72,
      "hit": false,
      "t": 146408.3333333334,
      "d": 733.3333333333139,
      "v": 76
    },
    {
      "midi": 67,
      "hit": false,
      "t": 147195,
      "d": 400,
      "v": 88
    },
    {
      "midi": 71,
      "hit": false,
      "t": 147195,
      "d": 400,
      "v": 88
    },
    {
      "midi": 31,
      "hit": false,
      "t": 147195,
      "d": 1600,
      "v": 88
    },
    {
      "midi": 43,
      "hit": false,
      "t": 147195,
      "d": 1600,
      "v": 88
    },
    {
      "midi": 71,
      "hit": false,
      "t": 147208.33333333337,
      "d": 1066.666666666657,
      "v": 84
    },
    {
      "midi": 67,
      "hit": false,
      "t": 147208.33333333337,
      "d": 3066.666666666686,
      "v": 83
    },
    {
      "midi": 59,
      "hit": false,
      "t": 147995,
      "d": 800,
      "v": 79
    },
    {
      "midi": 62,
      "hit": false,
      "t": 147995,
      "d": 800,
      "v": 79
    },
    {
      "midi": 67,
      "hit": false,
      "t": 147995,
      "d": 800,
      "v": 79
    },
    {
      "midi": 70,
      "hit": false,
      "t": 148275.00000000003,
      "d": 213.33333333334303,
      "v": 74
    },
    {
      "midi": 71,
      "hit": false,
      "t": 148541.66666666672,
      "d": 1733.333333333343,
      "v": 84
    },
    {
      "midi": 38,
      "hit": false,
      "t": 148795,
      "d": 1599.999999999971,
      "v": 86
    },
    {
      "midi": 55,
      "hit": false,
      "t": 149861.66666666666,
      "d": 265,
      "v": 124
    },
    {
      "midi": 54,
      "hit": false,
      "t": 150128.3333333333,
      "d": 221.66666666665697,
      "v": 102
    },
    {
      "midi": 31,
      "hit": false,
      "t": 150394.99999999997,
      "d": 1600,
      "v": 83
    },
    {
      "midi": 43,
      "hit": false,
      "t": 150394.99999999997,
      "d": 1600,
      "v": 83
    },
    {
      "midi": 53,
      "hit": false,
      "t": 150394.99999999997,
      "d": 1991.666666666657,
      "v": 108
    },
    {
      "midi": 67,
      "hit": false,
      "t": 150408.3333333334,
      "d": 1116.666666666657,
      "v": 74
    },
    {
      "midi": 59,
      "hit": false,
      "t": 150408.3333333334,
      "d": 1200,
      "v": 71
    },
    {
      "midi": 62,
      "hit": false,
      "t": 150408.3333333334,
      "d": 1200,
      "v": 68
    },
    {
      "midi": 67,
      "hit": false,
      "t": 151741.66666666674,
      "d": 1733.333333333314,
      "v": 91
    },
    {
      "midi": 38,
      "hit": false,
      "t": 151994.99999999997,
      "d": 1599.9999999999418,
      "v": 77
    },
    {
      "midi": 74,
      "hit": false,
      "t": 152008.3333333334,
      "d": 221.66666666665697,
      "v": 95
    },
    {
      "midi": 79,
      "hit": false,
      "t": 152008.3333333334,
      "d": 278.33333333331393,
      "v": 90
    },
    {
      "midi": 53,
      "hit": false,
      "t": 152528.33333333328,
      "d": 231.66666666665697,
      "v": 124
    },
    {
      "midi": 74,
      "hit": false,
      "t": 152541.66666666672,
      "d": 933.333333333343,
      "v": 104
    },
    {
      "midi": 79,
      "hit": false,
      "t": 152541.66666666672,
      "d": 933.333333333343,
      "v": 100
    },
    {
      "midi": 59,
      "hit": false,
      "t": 152794.99999999994,
      "d": 241.66666666665697,
      "v": 114
    },
    {
      "midi": 50,
      "hit": false,
      "t": 153061.6666666666,
      "d": 276.66666666665697,
      "v": 100
    },
    {
      "midi": 51,
      "hit": false,
      "t": 153328.33333333326,
      "d": 260,
      "v": 95
    },
    {
      "midi": 52,
      "hit": false,
      "t": 153594.9999999999,
      "d": 763.333333333343,
      "v": 95
    },
    {
      "midi": 36,
      "hit": false,
      "t": 153594.9999999999,
      "d": 1600,
      "v": 74
    },
    {
      "midi": 64,
      "hit": false,
      "t": 153608.3333333334,
      "d": 2000,
      "v": 68
    },
    {
      "midi": 67,
      "hit": false,
      "t": 153608.3333333334,
      "d": 2000,
      "v": 68
    },
    {
      "midi": 72,
      "hit": false,
      "t": 153608.3333333334,
      "d": 2000,
      "v": 68
    },
    {
      "midi": 55,
      "hit": false,
      "t": 154394.9999999999,
      "d": 800,
      "v": 72
    },
    {
      "midi": 60,
      "hit": false,
      "t": 154394.9999999999,
      "d": 800,
      "v": 72
    },
    {
      "midi": 64,
      "hit": false,
      "t": 154394.9999999999,
      "d": 800,
      "v": 72
    },
    {
      "midi": 43,
      "hit": false,
      "t": 155194.9999999999,
      "d": 1600,
      "v": 79
    },
    {
      "midi": 67,
      "hit": false,
      "t": 155741.66666666674,
      "d": 2210,
      "v": 75
    },
    {
      "midi": 55,
      "hit": false,
      "t": 155994.9999999999,
      "d": 800,
      "v": 74
    },
    {
      "midi": 60,
      "hit": false,
      "t": 155994.9999999999,
      "d": 800,
      "v": 74
    },
    {
      "midi": 64,
      "hit": false,
      "t": 155994.9999999999,
      "d": 800,
      "v": 74
    },
    {
      "midi": 74,
      "hit": false,
      "t": 156008.3333333334,
      "d": 350,
      "v": 93
    },
    {
      "midi": 72,
      "hit": false,
      "t": 156008.3333333334,
      "d": 2075,
      "v": 91
    },
    {
      "midi": 76,
      "hit": false,
      "t": 156541.66666666674,
      "d": 1610,
      "v": 90
    },
    {
      "midi": 36,
      "hit": false,
      "t": 156794.9999999999,
      "d": 1600,
      "v": 77
    },
    {
      "midi": 55,
      "hit": false,
      "t": 157594.9999999999,
      "d": 466.66666666665697,
      "v": 90
    },
    {
      "midi": 60,
      "hit": false,
      "t": 157594.9999999999,
      "d": 533.3333333333139,
      "v": 90
    },
    {
      "midi": 64,
      "hit": false,
      "t": 157594.9999999999,
      "d": 533.3333333333139,
      "v": 90
    },
    {
      "midi": 55,
      "hit": false,
      "t": 158128.33333333323,
      "d": 133.33333333334303,
      "v": 81
    },
    {
      "midi": 67,
      "hit": false,
      "t": 158141.66666666674,
      "d": 201.66666666665697,
      "v": 61
    },
    {
      "midi": 55,
      "hit": false,
      "t": 158394.9999999999,
      "d": 500,
      "v": 106
    },
    {
      "midi": 60,
      "hit": false,
      "t": 158394.9999999999,
      "d": 533.333333333343,
      "v": 106
    },
    {
      "midi": 64,
      "hit": false,
      "t": 158394.9999999999,
      "d": 533.333333333343,
      "v": 106
    },
    {
      "midi": 36,
      "hit": false,
      "t": 158394.9999999999,
      "d": 800,
      "v": 106
    },
    {
      "midi": 72,
      "hit": false,
      "t": 158408.3333333334,
      "d": 716.666666666657,
      "v": 90
    },
    {
      "midi": 76,
      "hit": false,
      "t": 158408.3333333334,
      "d": 716.666666666657,
      "v": 96
    },
    {
      "midi": 55,
      "hit": false,
      "t": 158928.33333333326,
      "d": 800,
      "v": 104
    },
    {
      "midi": 65,
      "hit": false,
      "t": 159194.9999999999,
      "d": 533.333333333343,
      "v": 122
    },
    {
      "midi": 37,
      "hit": false,
      "t": 159194.9999999999,
      "d": 800,
      "v": 77
    },
    {
      "midi": 73,
      "hit": false,
      "t": 159208.3333333334,
      "d": 466.66666666665697,
      "v": 95
    },
    {
      "midi": 77,
      "hit": false,
      "t": 159208.3333333334,
      "d": 483.33333333331393,
      "v": 95
    },
    {
      "midi": 57,
      "hit": false,
      "t": 159728.33333333326,
      "d": 1000,
      "v": 104
    },
    {
      "midi": 62,
      "hit": false,
      "t": 159728.33333333326,
      "d": 1000,
      "v": 95
    },
    {
      "midi": 66,
      "hit": false,
      "t": 159728.33333333326,
      "d": 1033.333333333343,
      "v": 117
    },
    {
      "midi": 78,
      "hit": false,
      "t": 159741.66666666672,
      "d": 2766.666666666657,
      "v": 88
    },
    {
      "midi": 74,
      "hit": false,
      "t": 159741.66666666672,
      "d": 2801.666666666657,
      "v": 84
    },
    {
      "midi": 38,
      "hit": false,
      "t": 159994.9999999999,
      "d": 1600.000000000029,
      "v": 90
    },
    {
      "midi": 57,
      "hit": false,
      "t": 160794.99999999994,
      "d": 800,
      "v": 79
    },
    {
      "midi": 62,
      "hit": false,
      "t": 160794.99999999994,
      "d": 800,
      "v": 79
    },
    {
      "midi": 66,
      "hit": false,
      "t": 160794.99999999994,
      "d": 800,
      "v": 79
    },
    {
      "midi": 45,
      "hit": false,
      "t": 161594.99999999994,
      "d": 1600,
      "v": 74
    },
    {
      "midi": 57,
      "hit": false,
      "t": 162394.99999999994,
      "d": 800,
      "v": 72
    },
    {
      "midi": 62,
      "hit": false,
      "t": 162394.99999999994,
      "d": 800,
      "v": 72
    },
    {
      "midi": 66,
      "hit": false,
      "t": 162394.99999999994,
      "d": 800,
      "v": 72
    },
    {
      "midi": 74,
      "hit": false,
      "t": 162675.00000000003,
      "d": 200,
      "v": 90
    },
    {
      "midi": 73,
      "hit": false,
      "t": 162941.6666666667,
      "d": 200,
      "v": 98
    },
    {
      "midi": 60,
      "hit": false,
      "t": 163194.99999999994,
      "d": 1333.333333333343,
      "v": 82
    },
    {
      "midi": 38,
      "hit": false,
      "t": 163194.99999999994,
      "d": 1600,
      "v": 79
    },
    {
      "midi": 72,
      "hit": false,
      "t": 163208.33333333334,
      "d": 2816.666666666686,
      "v": 90
    },
    {
      "midi": 69,
      "hit": false,
      "t": 163728.33333333328,
      "d": 800,
      "v": 95
    },
    {
      "midi": 81,
      "hit": false,
      "t": 163741.6666666667,
      "d": 2055,
      "v": 101
    },
    {
      "midi": 57,
      "hit": false,
      "t": 164528.33333333328,
      "d": 1600,
      "v": 75
    },
    {
      "midi": 45,
      "hit": false,
      "t": 164794.99999999994,
      "d": 1600,
      "v": 72
    },
    {
      "midi": 66,
      "hit": false,
      "t": 165328.33333333328,
      "d": 1066.666666666657,
      "v": 93
    },
    {
      "midi": 58,
      "hit": false,
      "t": 166128.33333333328,
      "d": 266.66666666665697,
      "v": 92
    },
    {
      "midi": 71,
      "hit": false,
      "t": 166141.6666666667,
      "d": 2035,
      "v": 86
    },
    {
      "midi": 79,
      "hit": false,
      "t": 166141.6666666667,
      "d": 2036.666666666657,
      "v": 100
    },
    {
      "midi": 59,
      "hit": false,
      "t": 166394.99999999994,
      "d": 533.333333333343,
      "v": 79
    },
    {
      "midi": 43,
      "hit": false,
      "t": 166394.99999999994,
      "d": 1600,
      "v": 77
    },
    {
      "midi": 62,
      "hit": false,
      "t": 166928.33333333328,
      "d": 800,
      "v": 91
    },
    {
      "midi": 67,
      "hit": false,
      "t": 166928.33333333328,
      "d": 800,
      "v": 104
    },
    {
      "midi": 59,
      "hit": false,
      "t": 167728.33333333328,
      "d": 750,
      "v": 90
    },
    {
      "midi": 38,
      "hit": false,
      "t": 167994.99999999994,
      "d": 1600,
      "v": 79
    },
    {
      "midi": 59,
      "hit": false,
      "t": 168528.33333333328,
      "d": 166.66666666665697,
      "v": 88
    },
    {
      "midi": 67,
      "hit": false,
      "t": 168541.6666666667,
      "d": 388.33333333334303,
      "v": 93
    },
    {
      "midi": 79,
      "hit": false,
      "t": 168541.6666666667,
      "d": 403.33333333334303,
      "v": 117
    },
    {
      "midi": 62,
      "hit": false,
      "t": 168794.99999999994,
      "d": 381.66666666665697,
      "v": 121
    },
    {
      "midi": 67,
      "hit": false,
      "t": 168794.99999999994,
      "d": 401.66666666665697,
      "v": 115
    },
    {
      "midi": 55,
      "hit": false,
      "t": 168794.99999999994,
      "d": 716.666666666657,
      "v": 83
    },
    {
      "midi": 59,
      "hit": false,
      "t": 168794.99999999994,
      "d": 716.666666666657,
      "v": 82
    },
    {
      "midi": 78,
      "hit": false,
      "t": 169075.00000000003,
      "d": 438.33333333334303,
      "v": 105
    },
    {
      "midi": 66,
      "hit": false,
      "t": 169075.00000000003,
      "d": 443.33333333334303,
      "v": 88
    },
    {
      "midi": 66,
      "hit": false,
      "t": 169328.33333333326,
      "d": 266.66666666668607,
      "v": 119
    },
    {
      "midi": 62,
      "hit": false,
      "t": 169328.33333333326,
      "d": 275.0000000000291,
      "v": 106
    },
    {
      "midi": 65,
      "hit": false,
      "t": 169594.99999999994,
      "d": 473.33333333334303,
      "v": 94
    },
    {
      "midi": 43,
      "hit": false,
      "t": 169594.99999999994,
      "d": 1600,
      "v": 79
    },
    {
      "midi": 65,
      "hit": false,
      "t": 169608.33333333337,
      "d": 2400,
      "v": 80
    },
    {
      "midi": 77,
      "hit": false,
      "t": 169608.33333333337,
      "d": 2400,
      "v": 104
    },
    {
      "midi": 59,
      "hit": false,
      "t": 170128.33333333328,
      "d": 115,
      "v": 100
    },
    {
      "midi": 62,
      "hit": false,
      "t": 170394.99999999994,
      "d": 766.666666666657,
      "v": 127
    },
    {
      "midi": 67,
      "hit": false,
      "t": 170394.99999999994,
      "d": 766.666666666657,
      "v": 127
    },
    {
      "midi": 59,
      "hit": false,
      "t": 170394.99999999994,
      "d": 800,
      "v": 127
    },
    {
      "midi": 62,
      "hit": false,
      "t": 171194.99999999994,
      "d": 716.666666666657,
      "v": 127
    },
    {
      "midi": 60,
      "hit": false,
      "t": 171194.99999999994,
      "d": 750,
      "v": 127
    },
    {
      "midi": 66,
      "hit": false,
      "t": 171194.99999999994,
      "d": 800,
      "v": 127
    },
    {
      "midi": 38,
      "hit": false,
      "t": 171194.99999999994,
      "d": 1600.000000000029,
      "v": 77
    },
    {
      "midi": 62,
      "hit": false,
      "t": 171994.99999999994,
      "d": 733.333333333343,
      "v": 116
    },
    {
      "midi": 65,
      "hit": false,
      "t": 171994.99999999994,
      "d": 733.333333333343,
      "v": 122
    },
    {
      "midi": 59,
      "hit": false,
      "t": 171994.99999999994,
      "d": 766.6666666666861,
      "v": 127
    },
    {
      "midi": 62,
      "hit": false,
      "t": 172008.33333333337,
      "d": 666.666666666657,
      "v": 83
    },
    {
      "midi": 67,
      "hit": false,
      "t": 172008.33333333337,
      "d": 666.666666666657,
      "v": 95
    },
    {
      "midi": 71,
      "hit": false,
      "t": 172008.33333333337,
      "d": 666.666666666657,
      "v": 97
    },
    {
      "midi": 64,
      "hit": false,
      "t": 172794.99999999997,
      "d": 700,
      "v": 112
    },
    {
      "midi": 60,
      "hit": false,
      "t": 172794.99999999997,
      "d": 733.333333333343,
      "v": 112
    },
    {
      "midi": 55,
      "hit": false,
      "t": 172794.99999999997,
      "d": 750,
      "v": 112
    },
    {
      "midi": 36,
      "hit": false,
      "t": 172794.99999999997,
      "d": 1600,
      "v": 112
    },
    {
      "midi": 60,
      "hit": false,
      "t": 172808.33333333337,
      "d": 733.333333333343,
      "v": 88
    },
    {
      "midi": 64,
      "hit": false,
      "t": 172808.33333333337,
      "d": 733.333333333343,
      "v": 88
    },
    {
      "midi": 67,
      "hit": false,
      "t": 172808.33333333337,
      "d": 733.333333333343,
      "v": 99
    },
    {
      "midi": 55,
      "hit": false,
      "t": 173594.99999999997,
      "d": 1516.666666666657,
      "v": 94
    },
    {
      "midi": 64,
      "hit": false,
      "t": 173594.99999999997,
      "d": 1516.666666666657,
      "v": 90
    },
    {
      "midi": 60,
      "hit": false,
      "t": 173594.99999999997,
      "d": 1550,
      "v": 93
    },
    {
      "midi": 64,
      "hit": false,
      "t": 173608.33333333337,
      "d": 1483.333333333343,
      "v": 98
    },
    {
      "midi": 72,
      "hit": false,
      "t": 173608.33333333337,
      "d": 1500,
      "v": 98
    },
    {
      "midi": 67,
      "hit": false,
      "t": 173608.33333333337,
      "d": 1516.666666666657,
      "v": 98
    },
    {
      "midi": 43,
      "hit": false,
      "t": 174394.99999999997,
      "d": 1599.999999999971,
      "v": 88
    },
    {
      "midi": 31,
      "hit": false,
      "t": 174394.99999999997,
      "d": 1609.999999999971,
      "v": 91
    },
    {
      "midi": 60,
      "hit": false,
      "t": 175194.99999999997,
      "d": 450,
      "v": 90
    },
    {
      "midi": 64,
      "hit": false,
      "t": 175194.99999999997,
      "d": 466.66666666665697,
      "v": 86
    },
    {
      "midi": 55,
      "hit": false,
      "t": 175194.99999999997,
      "d": 533.3333333333139,
      "v": 88
    },
    {
      "midi": 72,
      "hit": false,
      "t": 175208.33333333337,
      "d": 733.333333333343,
      "v": 89
    },
    {
      "midi": 67,
      "hit": false,
      "t": 175208.33333333337,
      "d": 750,
      "v": 89
    },
    {
      "midi": 76,
      "hit": false,
      "t": 175208.33333333337,
      "d": 750,
      "v": 89
    },
    {
      "midi": 60,
      "hit": false,
      "t": 175728.33333333328,
      "d": 1000,
      "v": 91
    },
    {
      "midi": 64,
      "hit": false,
      "t": 175728.33333333328,
      "d": 1016.666666666657,
      "v": 83
    },
    {
      "midi": 67,
      "hit": false,
      "t": 175728.33333333328,
      "d": 1033.333333333314,
      "v": 95
    },
    {
      "midi": 36,
      "hit": false,
      "t": 175994.99999999994,
      "d": 1600,
      "v": 99
    },
    {
      "midi": 76,
      "hit": false,
      "t": 176008.33333333337,
      "d": 1500,
      "v": 100
    },
    {
      "midi": 72,
      "hit": false,
      "t": 176008.33333333337,
      "d": 1516.666666666657,
      "v": 100
    },
    {
      "midi": 79,
      "hit": false,
      "t": 176008.33333333337,
      "d": 1600,
      "v": 100
    },
    {
      "midi": 60,
      "hit": false,
      "t": 176794.99999999994,
      "d": 750,
      "v": 98
    },
    {
      "midi": 64,
      "hit": false,
      "t": 176794.99999999994,
      "d": 750,
      "v": 92
    },
    {
      "midi": 67,
      "hit": false,
      "t": 176794.99999999994,
      "d": 800,
      "v": 99
    },
    {
      "midi": 60,
      "hit": false,
      "t": 177594.99999999994,
      "d": 716.666666666657,
      "v": 91
    },
    {
      "midi": 55,
      "hit": false,
      "t": 177594.99999999994,
      "d": 750,
      "v": 96
    },
    {
      "midi": 64,
      "hit": false,
      "t": 177594.99999999994,
      "d": 800,
      "v": 93
    },
    {
      "midi": 43,
      "hit": false,
      "t": 177594.99999999994,
      "d": 1600,
      "v": 100
    },
    {
      "midi": 72,
      "hit": false,
      "t": 177608.33333333337,
      "d": 700,
      "v": 100
    },
    {
      "midi": 67,
      "hit": false,
      "t": 177608.33333333337,
      "d": 716.666666666657,
      "v": 100
    },
    {
      "midi": 76,
      "hit": false,
      "t": 177608.33333333337,
      "d": 716.666666666657,
      "v": 100
    },
    {
      "midi": 55,
      "hit": false,
      "t": 178394.99999999994,
      "d": 750,
      "v": 90
    },
    {
      "midi": 60,
      "hit": false,
      "t": 178394.99999999994,
      "d": 800,
      "v": 94
    },
    {
      "midi": 63,
      "hit": false,
      "t": 178394.99999999994,
      "d": 800,
      "v": 102
    },
    {
      "midi": 72,
      "hit": false,
      "t": 178408.33333333337,
      "d": 700,
      "v": 105
    },
    {
      "midi": 75,
      "hit": false,
      "t": 178408.33333333337,
      "d": 716.666666666657,
      "v": 105
    },
    {
      "midi": 67,
      "hit": false,
      "t": 178408.33333333337,
      "d": 733.3333333333139,
      "v": 105
    },
    {
      "midi": 55,
      "hit": false,
      "t": 179194.99999999994,
      "d": 666.666666666657,
      "v": 87
    },
    {
      "midi": 59,
      "hit": false,
      "t": 179194.99999999994,
      "d": 666.666666666657,
      "v": 90
    },
    {
      "midi": 62,
      "hit": false,
      "t": 179194.99999999994,
      "d": 666.666666666657,
      "v": 81
    },
    {
      "midi": 31,
      "hit": false,
      "t": 179194.99999999994,
      "d": 1600,
      "v": 95
    },
    {
      "midi": 67,
      "hit": false,
      "t": 179208.33333333334,
      "d": 1516.666666666657,
      "v": 94
    },
    {
      "midi": 71,
      "hit": false,
      "t": 179208.33333333334,
      "d": 1533.333333333314,
      "v": 94
    },
    {
      "midi": 74,
      "hit": false,
      "t": 179208.33333333334,
      "d": 1549.999999999971,
      "v": 94
    },
    {
      "midi": 55,
      "hit": false,
      "t": 179994.99999999994,
      "d": 1533.333333333343,
      "v": 92
    },
    {
      "midi": 59,
      "hit": false,
      "t": 179994.99999999994,
      "d": 1533.333333333343,
      "v": 95
    },
    {
      "midi": 62,
      "hit": false,
      "t": 179994.99999999994,
      "d": 1550,
      "v": 85
    },
    {
      "midi": 38,
      "hit": false,
      "t": 180794.99999999994,
      "d": 1599.999999999971,
      "v": 95
    },
    {
      "midi": 62,
      "hit": false,
      "t": 180808.3333333333,
      "d": 700,
      "v": 77
    },
    {
      "midi": 59,
      "hit": false,
      "t": 180808.3333333333,
      "d": 716.666666666657,
      "v": 95
    },
    {
      "midi": 67,
      "hit": false,
      "t": 180808.3333333333,
      "d": 716.666666666657,
      "v": 90
    },
    {
      "midi": 62,
      "hit": false,
      "t": 181594.99999999994,
      "d": 500,
      "v": 90
    },
    {
      "midi": 59,
      "hit": false,
      "t": 181594.99999999994,
      "d": 516.666666666657,
      "v": 87
    },
    {
      "midi": 55,
      "hit": false,
      "t": 181594.99999999994,
      "d": 533.3333333333139,
      "v": 87
    },
    {
      "midi": 62,
      "hit": false,
      "t": 181608.3333333333,
      "d": 1250,
      "v": 78
    },
    {
      "midi": 67,
      "hit": false,
      "t": 181608.3333333333,
      "d": 1333.333333333343,
      "v": 89
    },
    {
      "midi": 71,
      "hit": false,
      "t": 181608.3333333333,
      "d": 1333.333333333343,
      "v": 86
    },
    {
      "midi": 59,
      "hit": false,
      "t": 182128.33333333326,
      "d": 933.3333333333139,
      "v": 63
    },
    {
      "midi": 62,
      "hit": false,
      "t": 182128.33333333326,
      "d": 933.3333333333139,
      "v": 55
    },
    {
      "midi": 67,
      "hit": false,
      "t": 182128.33333333326,
      "d": 933.3333333333139,
      "v": 91
    },
    {
      "midi": 31,
      "hit": false,
      "t": 182394.9999999999,
      "d": 1600,
      "v": 88
    },
    {
      "midi": 43,
      "hit": false,
      "t": 182394.9999999999,
      "d": 1600,
      "v": 75
    },
    {
      "midi": 62,
      "hit": false,
      "t": 182941.66666666666,
      "d": 200,
      "v": 87
    },
    {
      "midi": 59,
      "hit": false,
      "t": 183194.9999999999,
      "d": 750,
      "v": 106
    },
    {
      "midi": 62,
      "hit": false,
      "t": 183194.9999999999,
      "d": 750,
      "v": 104
    },
    {
      "midi": 67,
      "hit": false,
      "t": 183194.9999999999,
      "d": 800,
      "v": 101
    },
    {
      "midi": 67,
      "hit": false,
      "t": 183208.3333333333,
      "d": 1333.333333333343,
      "v": 98
    },
    {
      "midi": 71,
      "hit": false,
      "t": 183208.3333333333,
      "d": 1333.333333333343,
      "v": 98
    },
    {
      "midi": 74,
      "hit": false,
      "t": 183208.3333333333,
      "d": 1333.333333333343,
      "v": 98
    },
    {
      "midi": 59,
      "hit": false,
      "t": 183994.9999999999,
      "d": 800,
      "v": 100
    },
    {
      "midi": 62,
      "hit": false,
      "t": 183994.9999999999,
      "d": 800,
      "v": 106
    },
    {
      "midi": 66,
      "hit": false,
      "t": 183994.9999999999,
      "d": 800,
      "v": 104
    },
    {
      "midi": 38,
      "hit": false,
      "t": 183994.9999999999,
      "d": 1566.666666666686,
      "v": 97
    },
    {
      "midi": 62,
      "hit": false,
      "t": 184541.66666666666,
      "d": 150,
      "v": 87
    },
    {
      "midi": 55,
      "hit": false,
      "t": 184794.9999999999,
      "d": 533.333333333343,
      "v": 99
    },
    {
      "midi": 60,
      "hit": false,
      "t": 184794.9999999999,
      "d": 533.333333333343,
      "v": 97
    },
    {
      "midi": 64,
      "hit": false,
      "t": 184794.9999999999,
      "d": 533.333333333343,
      "v": 91
    },
    {
      "midi": 62,
      "hit": false,
      "t": 184808.3333333333,
      "d": 683.333333333343,
      "v": 63
    },
    {
      "midi": 67,
      "hit": false,
      "t": 184808.3333333333,
      "d": 750,
      "v": 90
    },
    {
      "midi": 71,
      "hit": false,
      "t": 184808.3333333333,
      "d": 766.666666666657,
      "v": 87
    },
    {
      "midi": 57,
      "hit": false,
      "t": 185328.33333333326,
      "d": 933.333333333343,
      "v": 95
    },
    {
      "midi": 62,
      "hit": false,
      "t": 185328.33333333326,
      "d": 933.333333333343,
      "v": 100
    },
    {
      "midi": 66,
      "hit": false,
      "t": 185328.33333333326,
      "d": 933.333333333343,
      "v": 103
    },
    {
      "midi": 38,
      "hit": false,
      "t": 185594.99999999994,
      "d": 1600,
      "v": 90
    },
    {
      "midi": 62,
      "hit": false,
      "t": 185608.3333333333,
      "d": 1866.666666666657,
      "v": 93
    },
    {
      "midi": 66,
      "hit": false,
      "t": 185608.3333333333,
      "d": 1866.666666666657,
      "v": 98
    },
    {
      "midi": 69,
      "hit": false,
      "t": 185608.3333333333,
      "d": 2133.333333333314,
      "v": 100
    },
    {
      "midi": 62,
      "hit": false,
      "t": 186394.99999999994,
      "d": 1500,
      "v": 81
    },
    {
      "midi": 57,
      "hit": false,
      "t": 186394.99999999994,
      "d": 1516.666666666657,
      "v": 95
    },
    {
      "midi": 66,
      "hit": false,
      "t": 186394.99999999994,
      "d": 1533.333333333314,
      "v": 87
    },
    {
      "midi": 33,
      "hit": false,
      "t": 187194.99999999994,
      "d": 1599.999999999971,
      "v": 103
    },
    {
      "midi": 62,
      "hit": false,
      "t": 187741.66666666663,
      "d": 800,
      "v": 96
    },
    {
      "midi": 66,
      "hit": false,
      "t": 187741.66666666663,
      "d": 800,
      "v": 96
    },
    {
      "midi": 74,
      "hit": false,
      "t": 187741.66666666663,
      "d": 800,
      "v": 96
    },
    {
      "midi": 57,
      "hit": false,
      "t": 187994.9999999999,
      "d": 1200,
      "v": 89
    },
    {
      "midi": 62,
      "hit": false,
      "t": 187994.9999999999,
      "d": 1200,
      "v": 95
    },
    {
      "midi": 66,
      "hit": false,
      "t": 187994.9999999999,
      "d": 1200,
      "v": 84
    },
    {
      "midi": 69,
      "hit": false,
      "t": 188541.66666666663,
      "d": 266.66666666665697,
      "v": 76
    },
    {
      "midi": 38,
      "hit": false,
      "t": 188794.9999999999,
      "d": 1516.666666666686,
      "v": 99
    },
    {
      "midi": 66,
      "hit": false,
      "t": 188808.33333333328,
      "d": 533.333333333343,
      "v": 103
    },
    {
      "midi": 72,
      "hit": false,
      "t": 188808.33333333328,
      "d": 533.333333333343,
      "v": 103
    },
    {
      "midi": 76,
      "hit": false,
      "t": 188808.33333333328,
      "d": 533.333333333343,
      "v": 103
    },
    {
      "midi": 62,
      "hit": false,
      "t": 189328.33333333326,
      "d": 83.33333333334303,
      "v": 101
    },
    {
      "midi": 62,
      "hit": false,
      "t": 189594.99999999994,
      "d": 581.666666666657,
      "v": 98
    },
    {
      "midi": 66,
      "hit": false,
      "t": 189594.99999999994,
      "d": 626.666666666657,
      "v": 111
    },
    {
      "midi": 72,
      "hit": false,
      "t": 189594.99999999994,
      "d": 646.666666666657,
      "v": 117
    },
    {
      "midi": 72,
      "hit": false,
      "t": 189608.33333333328,
      "d": 700,
      "v": 87
    },
    {
      "midi": 66,
      "hit": false,
      "t": 189608.33333333328,
      "d": 716.666666666657,
      "v": 87
    },
    {
      "midi": 76,
      "hit": false,
      "t": 189608.33333333328,
      "d": 733.3333333333139,
      "v": 87
    },
    {
      "midi": 66,
      "hit": false,
      "t": 190394.99999999994,
      "d": 651.666666666657,
      "v": 110
    },
    {
      "midi": 62,
      "hit": false,
      "t": 190394.99999999994,
      "d": 673.3333333333139,
      "v": 96
    },
    {
      "midi": 71,
      "hit": false,
      "t": 190394.99999999994,
      "d": 693.3333333333139,
      "v": 108
    },
    {
      "midi": 33,
      "hit": false,
      "t": 190394.99999999994,
      "d": 1599.999999999971,
      "v": 111
    },
    {
      "midi": 66,
      "hit": false,
      "t": 190408.33333333326,
      "d": 700,
      "v": 87
    },
    {
      "midi": 71,
      "hit": false,
      "t": 190408.33333333326,
      "d": 716.666666666657,
      "v": 87
    },
    {
      "midi": 74,
      "hit": false,
      "t": 190408.33333333326,
      "d": 766.666666666657,
      "v": 87
    },
    {
      "midi": 66,
      "hit": false,
      "t": 191194.9999999999,
      "d": 466.66666666665697,
      "v": 109
    },
    {
      "midi": 69,
      "hit": false,
      "t": 191194.9999999999,
      "d": 466.66666666665697,
      "v": 110
    },
    {
      "midi": 62,
      "hit": false,
      "t": 191194.9999999999,
      "d": 500,
      "v": 90
    },
    {
      "midi": 69,
      "hit": false,
      "t": 191208.33333333326,
      "d": 700,
      "v": 94
    },
    {
      "midi": 66,
      "hit": false,
      "t": 191208.33333333326,
      "d": 733.333333333343,
      "v": 94
    },
    {
      "midi": 72,
      "hit": false,
      "t": 191208.33333333326,
      "d": 750,
      "v": 94
    },
    {
      "midi": 62,
      "hit": false,
      "t": 191728.33333333326,
      "d": 533.3333333333139,
      "v": 103
    },
    {
      "midi": 67,
      "hit": false,
      "t": 191728.33333333326,
      "d": 533.3333333333139,
      "v": 115
    },
    {
      "midi": 71,
      "hit": false,
      "t": 191728.33333333326,
      "d": 533.3333333333139,
      "v": 106
    },
    {
      "midi": 31,
      "hit": false,
      "t": 191994.9999999999,
      "d": 1599.999999999971,
      "v": 99
    },
    {
      "midi": 43,
      "hit": false,
      "t": 191994.9999999999,
      "d": 1599.999999999971,
      "v": 99
    },
    {
      "midi": 62,
      "hit": false,
      "t": 192008.33333333326,
      "d": 666.666666666657,
      "v": 96
    },
    {
      "midi": 67,
      "hit": false,
      "t": 192008.33333333326,
      "d": 666.666666666657,
      "v": 96
    },
    {
      "midi": 71,
      "hit": false,
      "t": 192008.33333333326,
      "d": 666.666666666657,
      "v": 96
    },
    {
      "midi": 67,
      "hit": false,
      "t": 192528.33333333323,
      "d": 160,
      "v": 106
    },
    {
      "midi": 70,
      "hit": false,
      "t": 192794.99999999988,
      "d": 73.33333333334303,
      "v": 98
    },
    {
      "midi": 74,
      "hit": false,
      "t": 192794.99999999988,
      "d": 410,
      "v": 115
    },
    {
      "midi": 62,
      "hit": false,
      "t": 192808.33333333326,
      "d": 716.666666666657,
      "v": 104
    },
    {
      "midi": 59,
      "hit": false,
      "t": 192808.33333333326,
      "d": 733.3333333333139,
      "v": 104
    },
    {
      "midi": 67,
      "hit": false,
      "t": 192808.33333333326,
      "d": 749.9999999999709,
      "v": 104
    },
    {
      "midi": 71,
      "hit": false,
      "t": 192863.33333333323,
      "d": 330,
      "v": 99
    },
    {
      "midi": 62,
      "hit": false,
      "t": 193328.33333333323,
      "d": 130,
      "v": 97
    },
    {
      "midi": 74,
      "hit": false,
      "t": 193594.99999999988,
      "d": 400,
      "v": 127
    },
    {
      "midi": 69,
      "hit": false,
      "t": 193594.99999999988,
      "d": 426.66666666665697,
      "v": 122
    },
    {
      "midi": 38,
      "hit": false,
      "t": 193594.99999999988,
      "d": 1599.999999999971,
      "v": 100
    },
    {
      "midi": 60,
      "hit": false,
      "t": 193608.33333333323,
      "d": 666.666666666657,
      "v": 106
    },
    {
      "midi": 66,
      "hit": false,
      "t": 193608.33333333323,
      "d": 666.666666666657,
      "v": 106
    },
    {
      "midi": 69,
      "hit": false,
      "t": 193608.33333333323,
      "d": 666.666666666657,
      "v": 106
    },
    {
      "midi": 62,
      "hit": false,
      "t": 194128.3333333332,
      "d": 130,
      "v": 93
    },
    {
      "midi": 74,
      "hit": false,
      "t": 194394.99999999985,
      "d": 388.33333333334303,
      "v": 127
    },
    {
      "midi": 70,
      "hit": false,
      "t": 194394.99999999985,
      "d": 393.33333333334303,
      "v": 127
    },
    {
      "midi": 61,
      "hit": false,
      "t": 194408.33333333323,
      "d": 500,
      "v": 113
    },
    {
      "midi": 70,
      "hit": false,
      "t": 194408.33333333323,
      "d": 500,
      "v": 113
    },
    {
      "midi": 66,
      "hit": false,
      "t": 194408.33333333323,
      "d": 516.666666666657,
      "v": 113
    },
    {
      "midi": 74,
      "hit": false,
      "t": 194928.3333333332,
      "d": 348.33333333331393,
      "v": 127
    },
    {
      "midi": 71,
      "hit": false,
      "t": 194928.3333333332,
      "d": 354.9999999999709,
      "v": 124
    },
    {
      "midi": 62,
      "hit": false,
      "t": 194941.66666666654,
      "d": 800,
      "v": 117
    },
    {
      "midi": 67,
      "hit": false,
      "t": 194941.66666666654,
      "d": 800,
      "v": 117
    },
    {
      "midi": 71,
      "hit": false,
      "t": 194941.66666666654,
      "d": 800,
      "v": 117
    },
    {
      "midi": 43,
      "hit": false,
      "t": 195194.99999999985,
      "d": 766.666666666657,
      "v": 89
    },
    {
      "midi": 31,
      "hit": false,
      "t": 195194.99999999985,
      "d": 800,
      "v": 98
    },
    {
      "midi": 62,
      "hit": false,
      "t": 195728.33333333317,
      "d": 85,
      "v": 98
    },
    {
      "midi": 71,
      "hit": false,
      "t": 195994.99999999985,
      "d": 615,
      "v": 112
    },
    {
      "midi": 67,
      "hit": false,
      "t": 195994.99999999985,
      "d": 626.666666666657,
      "v": 115
    },
    {
      "midi": 31,
      "hit": false,
      "t": 195994.99999999985,
      "d": 800,
      "v": 103
    },
    {
      "midi": 43,
      "hit": false,
      "t": 195994.99999999985,
      "d": 800,
      "v": 94
    },
    {
      "midi": 79,
      "hit": false,
      "t": 196008.3333333332,
      "d": 733.333333333343,
      "v": 100
    },
    {
      "midi": 83,
      "hit": false,
      "t": 196008.3333333332,
      "d": 750,
      "v": 100
    },
    {
      "midi": 74,
      "hit": false,
      "t": 196008.3333333332,
      "d": 1533.333333333343,
      "v": 100
    },
    {
      "midi": 70,
      "hit": false,
      "t": 196794.99999999985,
      "d": 635,
      "v": 124
    },
    {
      "midi": 60,
      "hit": false,
      "t": 196794.99999999985,
      "d": 641.666666666657,
      "v": 119
    },
    {
      "midi": 66,
      "hit": false,
      "t": 196794.99999999985,
      "d": 641.666666666657,
      "v": 119
    },
    {
      "midi": 33,
      "hit": false,
      "t": 196794.99999999985,
      "d": 800,
      "v": 111
    },
    {
      "midi": 78,
      "hit": false,
      "t": 196808.3333333332,
      "d": 733.333333333343,
      "v": 96
    },
    {
      "midi": 82,
      "hit": false,
      "t": 196808.3333333332,
      "d": 766.6666666666861,
      "v": 96
    },
    {
      "midi": 65,
      "hit": false,
      "t": 197594.99999999985,
      "d": 615,
      "v": 115
    },
    {
      "midi": 69,
      "hit": false,
      "t": 197594.99999999985,
      "d": 615,
      "v": 118
    },
    {
      "midi": 59,
      "hit": false,
      "t": 197594.99999999985,
      "d": 650,
      "v": 90
    },
    {
      "midi": 35,
      "hit": false,
      "t": 197594.99999999985,
      "d": 800,
      "v": 107
    },
    {
      "midi": 81,
      "hit": false,
      "t": 197608.33333333323,
      "d": 700,
      "v": 94
    },
    {
      "midi": 74,
      "hit": false,
      "t": 197608.33333333323,
      "d": 750,
      "v": 94
    },
    {
      "midi": 77,
      "hit": false,
      "t": 197608.33333333323,
      "d": 750,
      "v": 94
    },
    {
      "midi": 55,
      "hit": false,
      "t": 198394.99999999985,
      "d": 700,
      "v": 112
    },
    {
      "midi": 60,
      "hit": false,
      "t": 198394.99999999985,
      "d": 750,
      "v": 112
    },
    {
      "midi": 64,
      "hit": false,
      "t": 198394.99999999985,
      "d": 766.666666666657,
      "v": 112
    },
    {
      "midi": 36,
      "hit": false,
      "t": 198394.99999999985,
      "d": 1600,
      "v": 112
    },
    {
      "midi": 72,
      "hit": false,
      "t": 198408.33333333323,
      "d": 666.666666666657,
      "v": 79
    },
    {
      "midi": 79,
      "hit": false,
      "t": 198408.33333333323,
      "d": 700,
      "v": 90
    },
    {
      "midi": 76,
      "hit": false,
      "t": 198408.33333333323,
      "d": 750,
      "v": 79
    },
    {
      "midi": 60,
      "hit": false,
      "t": 199194.99999999985,
      "d": 1483.333333333343,
      "v": 93
    },
    {
      "midi": 64,
      "hit": false,
      "t": 199194.99999999985,
      "d": 1533.333333333343,
      "v": 90
    },
    {
      "midi": 55,
      "hit": false,
      "t": 199194.99999999985,
      "d": 1566.666666666686,
      "v": 94
    },
    {
      "midi": 72,
      "hit": false,
      "t": 199208.33333333323,
      "d": 1516.666666666657,
      "v": 98
    },
    {
      "midi": 67,
      "hit": false,
      "t": 199208.33333333323,
      "d": 1533.333333333314,
      "v": 98
    },
    {
      "midi": 64,
      "hit": false,
      "t": 199208.33333333323,
      "d": 1599.999999999971,
      "v": 98
    },
    {
      "midi": 43,
      "hit": false,
      "t": 199994.99999999985,
      "d": 1600.000000000029,
      "v": 88
    },
    {
      "midi": 31,
      "hit": false,
      "t": 199994.99999999985,
      "d": 1610.000000000029,
      "v": 91
    },
    {
      "midi": 64,
      "hit": false,
      "t": 200794.99999999988,
      "d": 483.33333333334303,
      "v": 86
    },
    {
      "midi": 60,
      "hit": false,
      "t": 200794.99999999988,
      "d": 500,
      "v": 90
    },
    {
      "midi": 55,
      "hit": false,
      "t": 200794.99999999988,
      "d": 533.333333333343,
      "v": 88
    },
    {
      "midi": 76,
      "hit": false,
      "t": 200808.3333333332,
      "d": 683.333333333343,
      "v": 89
    },
    {
      "midi": 72,
      "hit": false,
      "t": 200808.3333333332,
      "d": 700,
      "v": 89
    },
    {
      "midi": 67,
      "hit": false,
      "t": 200808.3333333332,
      "d": 716.666666666657,
      "v": 89
    },
    {
      "midi": 60,
      "hit": false,
      "t": 201328.33333333323,
      "d": 983.3333333333139,
      "v": 91
    },
    {
      "midi": 64,
      "hit": false,
      "t": 201328.33333333323,
      "d": 999.9999999999709,
      "v": 83
    },
    {
      "midi": 67,
      "hit": false,
      "t": 201328.33333333323,
      "d": 1016.6666666666279,
      "v": 95
    },
    {
      "midi": 36,
      "hit": false,
      "t": 201594.99999999988,
      "d": 1599.999999999971,
      "v": 99
    },
    {
      "midi": 72,
      "hit": false,
      "t": 201608.3333333332,
      "d": 1433.333333333343,
      "v": 100
    },
    {
      "midi": 76,
      "hit": false,
      "t": 201608.3333333332,
      "d": 1516.666666666686,
      "v": 100
    },
    {
      "midi": 79,
      "hit": false,
      "t": 201608.3333333332,
      "d": 1600.000000000029,
      "v": 100
    },
    {
      "midi": 60,
      "hit": false,
      "t": 202394.99999999985,
      "d": 700,
      "v": 98
    },
    {
      "midi": 64,
      "hit": false,
      "t": 202394.99999999985,
      "d": 716.666666666657,
      "v": 92
    },
    {
      "midi": 67,
      "hit": false,
      "t": 202394.99999999985,
      "d": 716.666666666657,
      "v": 99
    },
    {
      "midi": 60,
      "hit": false,
      "t": 203194.99999999985,
      "d": 733.333333333343,
      "v": 91
    },
    {
      "midi": 55,
      "hit": false,
      "t": 203194.99999999985,
      "d": 750,
      "v": 96
    },
    {
      "midi": 64,
      "hit": false,
      "t": 203194.99999999985,
      "d": 800,
      "v": 93
    },
    {
      "midi": 43,
      "hit": false,
      "t": 203194.99999999985,
      "d": 1600,
      "v": 100
    },
    {
      "midi": 67,
      "hit": false,
      "t": 203208.33333333323,
      "d": 700,
      "v": 100
    },
    {
      "midi": 72,
      "hit": false,
      "t": 203208.33333333323,
      "d": 716.666666666657,
      "v": 100
    },
    {
      "midi": 76,
      "hit": false,
      "t": 203208.33333333323,
      "d": 716.666666666657,
      "v": 100
    },
    {
      "midi": 60,
      "hit": false,
      "t": 203994.99999999985,
      "d": 683.333333333343,
      "v": 94
    },
    {
      "midi": 55,
      "hit": false,
      "t": 203994.99999999985,
      "d": 733.333333333343,
      "v": 90
    },
    {
      "midi": 63,
      "hit": false,
      "t": 203994.99999999985,
      "d": 800,
      "v": 102
    },
    {
      "midi": 67,
      "hit": false,
      "t": 204008.33333333323,
      "d": 733.333333333343,
      "v": 105
    },
    {
      "midi": 75,
      "hit": false,
      "t": 204008.33333333323,
      "d": 733.333333333343,
      "v": 105
    },
    {
      "midi": 72,
      "hit": false,
      "t": 204008.33333333323,
      "d": 750,
      "v": 105
    },
    {
      "midi": 55,
      "hit": false,
      "t": 204794.99999999985,
      "d": 666.666666666657,
      "v": 87
    },
    {
      "midi": 59,
      "hit": false,
      "t": 204794.99999999985,
      "d": 666.666666666657,
      "v": 90
    },
    {
      "midi": 62,
      "hit": false,
      "t": 204794.99999999985,
      "d": 666.666666666657,
      "v": 81
    },
    {
      "midi": 31,
      "hit": false,
      "t": 204794.99999999985,
      "d": 1600,
      "v": 95
    },
    {
      "midi": 67,
      "hit": false,
      "t": 204808.33333333323,
      "d": 1533.333333333343,
      "v": 94
    },
    {
      "midi": 71,
      "hit": false,
      "t": 204808.33333333323,
      "d": 1533.333333333343,
      "v": 94
    },
    {
      "midi": 74,
      "hit": false,
      "t": 204808.33333333323,
      "d": 1550,
      "v": 94
    },
    {
      "midi": 59,
      "hit": false,
      "t": 205594.99999999985,
      "d": 1566.666666666657,
      "v": 95
    },
    {
      "midi": 62,
      "hit": false,
      "t": 205594.99999999985,
      "d": 1566.666666666657,
      "v": 85
    },
    {
      "midi": 55,
      "hit": false,
      "t": 205594.99999999985,
      "d": 1583.333333333314,
      "v": 92
    },
    {
      "midi": 38,
      "hit": false,
      "t": 206394.99999999985,
      "d": 1599.9999999999418,
      "v": 95
    },
    {
      "midi": 62,
      "hit": false,
      "t": 206408.33333333323,
      "d": 750,
      "v": 77
    },
    {
      "midi": 67,
      "hit": false,
      "t": 206408.33333333323,
      "d": 750,
      "v": 90
    },
    {
      "midi": 59,
      "hit": false,
      "t": 206408.33333333323,
      "d": 800,
      "v": 95
    },
    {
      "midi": 59,
      "hit": false,
      "t": 207194.99999999983,
      "d": 466.66666666665697,
      "v": 87
    },
    {
      "midi": 62,
      "hit": false,
      "t": 207194.99999999983,
      "d": 466.66666666665697,
      "v": 90
    },
    {
      "midi": 55,
      "hit": false,
      "t": 207194.99999999983,
      "d": 483.33333333331393,
      "v": 87
    },
    {
      "midi": 62,
      "hit": false,
      "t": 207208.33333333323,
      "d": 1216.666666666657,
      "v": 78
    },
    {
      "midi": 67,
      "hit": false,
      "t": 207208.33333333323,
      "d": 1333.333333333314,
      "v": 89
    },
    {
      "midi": 71,
      "hit": false,
      "t": 207208.33333333323,
      "d": 1333.333333333314,
      "v": 86
    },
    {
      "midi": 59,
      "hit": false,
      "t": 207728.33333333314,
      "d": 933.3333333333139,
      "v": 63
    },
    {
      "midi": 62,
      "hit": false,
      "t": 207728.33333333314,
      "d": 933.3333333333139,
      "v": 55
    },
    {
      "midi": 67,
      "hit": false,
      "t": 207728.33333333314,
      "d": 933.3333333333139,
      "v": 91
    },
    {
      "midi": 31,
      "hit": false,
      "t": 207994.9999999998,
      "d": 1600,
      "v": 88
    },
    {
      "midi": 43,
      "hit": false,
      "t": 207994.9999999998,
      "d": 1600,
      "v": 75
    },
    {
      "midi": 62,
      "hit": false,
      "t": 208541.66666666654,
      "d": 266.66666666665697,
      "v": 87
    },
    {
      "midi": 62,
      "hit": false,
      "t": 208794.9999999998,
      "d": 683.333333333343,
      "v": 104
    },
    {
      "midi": 59,
      "hit": false,
      "t": 208794.9999999998,
      "d": 700,
      "v": 106
    },
    {
      "midi": 67,
      "hit": false,
      "t": 208794.9999999998,
      "d": 750,
      "v": 101
    },
    {
      "midi": 67,
      "hit": false,
      "t": 208808.3333333332,
      "d": 1333.333333333343,
      "v": 98
    },
    {
      "midi": 71,
      "hit": false,
      "t": 208808.3333333332,
      "d": 1333.333333333343,
      "v": 98
    },
    {
      "midi": 74,
      "hit": false,
      "t": 208808.3333333332,
      "d": 1333.333333333343,
      "v": 98
    },
    {
      "midi": 59,
      "hit": false,
      "t": 209594.9999999998,
      "d": 800,
      "v": 100
    },
    {
      "midi": 62,
      "hit": false,
      "t": 209594.9999999998,
      "d": 800,
      "v": 106
    },
    {
      "midi": 66,
      "hit": false,
      "t": 209594.9999999998,
      "d": 800,
      "v": 104
    },
    {
      "midi": 38,
      "hit": false,
      "t": 209594.9999999998,
      "d": 1600,
      "v": 97
    },
    {
      "midi": 62,
      "hit": false,
      "t": 210141.66666666654,
      "d": 166.66666666665697,
      "v": 87
    },
    {
      "midi": 55,
      "hit": false,
      "t": 210394.9999999998,
      "d": 533.333333333343,
      "v": 99
    },
    {
      "midi": 60,
      "hit": false,
      "t": 210394.9999999998,
      "d": 533.333333333343,
      "v": 97
    },
    {
      "midi": 64,
      "hit": false,
      "t": 210394.9999999998,
      "d": 533.333333333343,
      "v": 91
    },
    {
      "midi": 67,
      "hit": false,
      "t": 210408.3333333332,
      "d": 716.666666666657,
      "v": 90
    },
    {
      "midi": 62,
      "hit": false,
      "t": 210408.3333333332,
      "d": 733.3333333333139,
      "v": 63
    },
    {
      "midi": 71,
      "hit": false,
      "t": 210408.3333333332,
      "d": 733.3333333333139,
      "v": 87
    },
    {
      "midi": 57,
      "hit": false,
      "t": 210928.33333333314,
      "d": 933.3333333333139,
      "v": 95
    },
    {
      "midi": 62,
      "hit": false,
      "t": 210928.33333333314,
      "d": 933.3333333333139,
      "v": 100
    },
    {
      "midi": 66,
      "hit": false,
      "t": 210928.33333333314,
      "d": 933.3333333333139,
      "v": 103
    },
    {
      "midi": 38,
      "hit": false,
      "t": 211194.9999999998,
      "d": 1600,
      "v": 90
    },
    {
      "midi": 62,
      "hit": false,
      "t": 211208.33333333317,
      "d": 1966.666666666657,
      "v": 93
    },
    {
      "midi": 66,
      "hit": false,
      "t": 211208.33333333317,
      "d": 1966.666666666657,
      "v": 98
    },
    {
      "midi": 69,
      "hit": false,
      "t": 211208.33333333317,
      "d": 2133.333333333314,
      "v": 100
    },
    {
      "midi": 62,
      "hit": false,
      "t": 211994.9999999998,
      "d": 1466.666666666657,
      "v": 81
    },
    {
      "midi": 66,
      "hit": false,
      "t": 211994.9999999998,
      "d": 1500,
      "v": 87
    },
    {
      "midi": 57,
      "hit": false,
      "t": 211994.9999999998,
      "d": 1516.666666666657,
      "v": 95
    },
    {
      "midi": 33,
      "hit": false,
      "t": 212794.9999999998,
      "d": 1600,
      "v": 103
    },
    {
      "midi": 62,
      "hit": false,
      "t": 213341.66666666648,
      "d": 800,
      "v": 96
    },
    {
      "midi": 66,
      "hit": false,
      "t": 213341.66666666648,
      "d": 800,
      "v": 96
    },
    {
      "midi": 74,
      "hit": false,
      "t": 213341.66666666648,
      "d": 800,
      "v": 96
    },
    {
      "midi": 57,
      "hit": false,
      "t": 213594.9999999998,
      "d": 1200,
      "v": 89
    },
    {
      "midi": 62,
      "hit": false,
      "t": 213594.9999999998,
      "d": 1200,
      "v": 95
    },
    {
      "midi": 66,
      "hit": false,
      "t": 213594.9999999998,
      "d": 1200,
      "v": 84
    },
    {
      "midi": 69,
      "hit": false,
      "t": 214141.66666666648,
      "d": 183.33333333334303,
      "v": 76
    },
    {
      "midi": 38,
      "hit": false,
      "t": 214394.9999999998,
      "d": 1600.000000000029,
      "v": 99
    },
    {
      "midi": 66,
      "hit": false,
      "t": 214408.33333333317,
      "d": 533.333333333343,
      "v": 103
    },
    {
      "midi": 72,
      "hit": false,
      "t": 214408.33333333317,
      "d": 533.333333333343,
      "v": 103
    },
    {
      "midi": 76,
      "hit": false,
      "t": 214408.33333333317,
      "d": 533.333333333343,
      "v": 103
    },
    {
      "midi": 62,
      "hit": false,
      "t": 214928.33333333314,
      "d": 83.33333333334303,
      "v": 101
    },
    {
      "midi": 62,
      "hit": false,
      "t": 215194.99999999983,
      "d": 581.666666666657,
      "v": 98
    },
    {
      "midi": 66,
      "hit": false,
      "t": 215194.99999999983,
      "d": 626.666666666657,
      "v": 111
    },
    {
      "midi": 72,
      "hit": false,
      "t": 215194.99999999983,
      "d": 646.666666666657,
      "v": 117
    },
    {
      "midi": 66,
      "hit": false,
      "t": 215208.33333333317,
      "d": 683.333333333343,
      "v": 87
    },
    {
      "midi": 72,
      "hit": false,
      "t": 215208.33333333317,
      "d": 733.333333333343,
      "v": 87
    },
    {
      "midi": 76,
      "hit": false,
      "t": 215208.33333333317,
      "d": 733.333333333343,
      "v": 87
    },
    {
      "midi": 66,
      "hit": false,
      "t": 215994.99999999983,
      "d": 651.666666666657,
      "v": 110
    },
    {
      "midi": 62,
      "hit": false,
      "t": 215994.99999999983,
      "d": 673.3333333333139,
      "v": 96
    },
    {
      "midi": 71,
      "hit": false,
      "t": 215994.99999999983,
      "d": 693.3333333333139,
      "v": 108
    },
    {
      "midi": 33,
      "hit": false,
      "t": 215994.99999999983,
      "d": 1599.9999999999418,
      "v": 111
    },
    {
      "midi": 66,
      "hit": false,
      "t": 216008.33333333317,
      "d": 716.666666666657,
      "v": 87
    },
    {
      "midi": 71,
      "hit": false,
      "t": 216008.33333333317,
      "d": 750,
      "v": 87
    },
    {
      "midi": 74,
      "hit": false,
      "t": 216008.33333333317,
      "d": 766.666666666657,
      "v": 87
    },
    {
      "midi": 62,
      "hit": false,
      "t": 216794.9999999998,
      "d": 466.66666666665697,
      "v": 90
    },
    {
      "midi": 66,
      "hit": false,
      "t": 216794.9999999998,
      "d": 483.33333333331393,
      "v": 109
    },
    {
      "midi": 69,
      "hit": false,
      "t": 216794.9999999998,
      "d": 499.9999999999709,
      "v": 110
    },
    {
      "midi": 66,
      "hit": false,
      "t": 216808.33333333317,
      "d": 700,
      "v": 94
    },
    {
      "midi": 69,
      "hit": false,
      "t": 216808.33333333317,
      "d": 716.666666666657,
      "v": 94
    },
    {
      "midi": 72,
      "hit": false,
      "t": 216808.33333333317,
      "d": 766.666666666657,
      "v": 94
    },
    {
      "midi": 62,
      "hit": false,
      "t": 217328.3333333331,
      "d": 533.3333333333139,
      "v": 103
    },
    {
      "midi": 67,
      "hit": false,
      "t": 217328.3333333331,
      "d": 533.3333333333139,
      "v": 115
    },
    {
      "midi": 71,
      "hit": false,
      "t": 217328.3333333331,
      "d": 533.3333333333139,
      "v": 106
    },
    {
      "midi": 31,
      "hit": false,
      "t": 217594.99999999977,
      "d": 1599.999999999971,
      "v": 99
    },
    {
      "midi": 43,
      "hit": false,
      "t": 217594.99999999977,
      "d": 1599.999999999971,
      "v": 99
    },
    {
      "midi": 62,
      "hit": false,
      "t": 217608.33333333317,
      "d": 666.666666666657,
      "v": 96
    },
    {
      "midi": 67,
      "hit": false,
      "t": 217608.33333333317,
      "d": 666.666666666657,
      "v": 96
    },
    {
      "midi": 71,
      "hit": false,
      "t": 217608.33333333317,
      "d": 666.666666666657,
      "v": 96
    },
    {
      "midi": 67,
      "hit": false,
      "t": 218128.33333333308,
      "d": 160,
      "v": 106
    },
    {
      "midi": 70,
      "hit": false,
      "t": 218394.99999999974,
      "d": 73.33333333334303,
      "v": 98
    },
    {
      "midi": 74,
      "hit": false,
      "t": 218394.99999999974,
      "d": 410,
      "v": 115
    },
    {
      "midi": 67,
      "hit": false,
      "t": 218408.33333333317,
      "d": 700,
      "v": 104
    },
    {
      "midi": 59,
      "hit": false,
      "t": 218408.33333333317,
      "d": 750,
      "v": 104
    },
    {
      "midi": 62,
      "hit": false,
      "t": 218408.33333333317,
      "d": 766.666666666657,
      "v": 104
    },
    {
      "midi": 71,
      "hit": false,
      "t": 218463.33333333308,
      "d": 330,
      "v": 99
    },
    {
      "midi": 62,
      "hit": false,
      "t": 218928.33333333308,
      "d": 130,
      "v": 97
    },
    {
      "midi": 74,
      "hit": false,
      "t": 219194.99999999974,
      "d": 400,
      "v": 127
    },
    {
      "midi": 69,
      "hit": false,
      "t": 219194.99999999974,
      "d": 426.66666666665697,
      "v": 122
    },
    {
      "midi": 38,
      "hit": false,
      "t": 219194.99999999974,
      "d": 1599.999999999971,
      "v": 100
    },
    {
      "midi": 60,
      "hit": false,
      "t": 219208.33333333317,
      "d": 666.666666666657,
      "v": 106
    },
    {
      "midi": 66,
      "hit": false,
      "t": 219208.33333333317,
      "d": 666.666666666657,
      "v": 106
    },
    {
      "midi": 69,
      "hit": false,
      "t": 219208.33333333317,
      "d": 666.666666666657,
      "v": 106
    },
    {
      "midi": 62,
      "hit": false,
      "t": 219728.33333333305,
      "d": 130,
      "v": 93
    },
    {
      "midi": 74,
      "hit": false,
      "t": 219994.9999999997,
      "d": 388.33333333334303,
      "v": 127
    },
    {
      "midi": 70,
      "hit": false,
      "t": 219994.9999999997,
      "d": 393.33333333334303,
      "v": 127
    },
    {
      "midi": 70,
      "hit": false,
      "t": 220008.33333333317,
      "d": 483.33333333334303,
      "v": 113
    },
    {
      "midi": 61,
      "hit": false,
      "t": 220008.33333333317,
      "d": 516.6666666666861,
      "v": 113
    },
    {
      "midi": 66,
      "hit": false,
      "t": 220008.33333333317,
      "d": 516.6666666666861,
      "v": 113
    },
    {
      "midi": 74,
      "hit": false,
      "t": 220528.33333333305,
      "d": 348.33333333331393,
      "v": 127
    },
    {
      "midi": 71,
      "hit": false,
      "t": 220528.33333333305,
      "d": 354.9999999999709,
      "v": 124
    },
    {
      "midi": 62,
      "hit": false,
      "t": 220541.6666666665,
      "d": 800,
      "v": 117
    },
    {
      "midi": 67,
      "hit": false,
      "t": 220541.6666666665,
      "d": 800,
      "v": 117
    },
    {
      "midi": 71,
      "hit": false,
      "t": 220541.6666666665,
      "d": 800,
      "v": 117
    },
    {
      "midi": 31,
      "hit": false,
      "t": 220794.9999999997,
      "d": 799.9999999999709,
      "v": 98
    },
    {
      "midi": 43,
      "hit": false,
      "t": 220794.9999999997,
      "d": 799.9999999999709,
      "v": 89
    },
    {
      "midi": 62,
      "hit": false,
      "t": 221328.33333333302,
      "d": 85,
      "v": 98
    },
    {
      "midi": 71,
      "hit": false,
      "t": 221594.99999999968,
      "d": 615,
      "v": 112
    },
    {
      "midi": 67,
      "hit": false,
      "t": 221594.99999999968,
      "d": 626.666666666657,
      "v": 115
    },
    {
      "midi": 31,
      "hit": false,
      "t": 221594.99999999968,
      "d": 800,
      "v": 103
    },
    {
      "midi": 43,
      "hit": false,
      "t": 221594.99999999968,
      "d": 800,
      "v": 94
    },
    {
      "midi": 79,
      "hit": false,
      "t": 221608.33333333317,
      "d": 733.333333333343,
      "v": 100
    },
    {
      "midi": 83,
      "hit": false,
      "t": 221608.33333333317,
      "d": 733.333333333343,
      "v": 100
    },
    {
      "midi": 74,
      "hit": false,
      "t": 221608.33333333317,
      "d": 1533.333333333343,
      "v": 100
    },
    {
      "midi": 70,
      "hit": false,
      "t": 222394.99999999968,
      "d": 635,
      "v": 124
    },
    {
      "midi": 60,
      "hit": false,
      "t": 222394.99999999968,
      "d": 641.666666666657,
      "v": 119
    },
    {
      "midi": 66,
      "hit": false,
      "t": 222394.99999999968,
      "d": 641.666666666657,
      "v": 119
    },
    {
      "midi": 33,
      "hit": false,
      "t": 222394.99999999968,
      "d": 800,
      "v": 111
    },
    {
      "midi": 78,
      "hit": false,
      "t": 222408.33333333317,
      "d": 733.333333333343,
      "v": 96
    },
    {
      "midi": 82,
      "hit": false,
      "t": 222408.33333333317,
      "d": 766.6666666666861,
      "v": 96
    },
    {
      "midi": 65,
      "hit": false,
      "t": 223194.99999999968,
      "d": 615,
      "v": 115
    },
    {
      "midi": 69,
      "hit": false,
      "t": 223194.99999999968,
      "d": 615,
      "v": 118
    },
    {
      "midi": 59,
      "hit": false,
      "t": 223194.99999999968,
      "d": 650,
      "v": 90
    },
    {
      "midi": 35,
      "hit": false,
      "t": 223194.99999999968,
      "d": 800,
      "v": 107
    },
    {
      "midi": 74,
      "hit": false,
      "t": 223208.3333333332,
      "d": 700,
      "v": 94
    },
    {
      "midi": 77,
      "hit": false,
      "t": 223208.3333333332,
      "d": 766.666666666657,
      "v": 94
    },
    {
      "midi": 81,
      "hit": false,
      "t": 223208.3333333332,
      "d": 766.666666666657,
      "v": 94
    },
    {
      "midi": 60,
      "hit": false,
      "t": 223994.99999999968,
      "d": 700,
      "v": 112
    },
    {
      "midi": 55,
      "hit": false,
      "t": 223994.99999999968,
      "d": 716.666666666657,
      "v": 112
    },
    {
      "midi": 64,
      "hit": false,
      "t": 223994.99999999968,
      "d": 750,
      "v": 112
    },
    {
      "midi": 36,
      "hit": false,
      "t": 223994.99999999968,
      "d": 1600,
      "v": 112
    },
    {
      "midi": 76,
      "hit": false,
      "t": 224008.3333333332,
      "d": 716.666666666657,
      "v": 79
    },
    {
      "midi": 79,
      "hit": false,
      "t": 224008.3333333332,
      "d": 716.666666666657,
      "v": 90
    },
    {
      "midi": 72,
      "hit": false,
      "t": 224008.3333333332,
      "d": 800,
      "v": 79
    },
    {
      "midi": 55,
      "hit": false,
      "t": 224794.99999999968,
      "d": 1533.333333333343,
      "v": 94
    },
    {
      "midi": 60,
      "hit": false,
      "t": 224794.99999999968,
      "d": 1533.333333333343,
      "v": 93
    },
    {
      "midi": 64,
      "hit": false,
      "t": 224794.99999999968,
      "d": 1566.666666666686,
      "v": 90
    },
    {
      "midi": 64,
      "hit": false,
      "t": 224808.3333333332,
      "d": 1416.666666666657,
      "v": 98
    },
    {
      "midi": 67,
      "hit": false,
      "t": 224808.3333333332,
      "d": 1450,
      "v": 98
    },
    {
      "midi": 72,
      "hit": false,
      "t": 224808.3333333332,
      "d": 1483.333333333343,
      "v": 98
    },
    {
      "midi": 43,
      "hit": false,
      "t": 225594.99999999968,
      "d": 1600,
      "v": 88
    },
    {
      "midi": 31,
      "hit": false,
      "t": 225594.99999999968,
      "d": 1610,
      "v": 91
    },
    {
      "midi": 64,
      "hit": false,
      "t": 226394.9999999997,
      "d": 466.66666666665697,
      "v": 86
    },
    {
      "midi": 60,
      "hit": false,
      "t": 226394.9999999997,
      "d": 483.33333333331393,
      "v": 90
    },
    {
      "midi": 55,
      "hit": false,
      "t": 226394.9999999997,
      "d": 533.3333333333139,
      "v": 88
    },
    {
      "midi": 67,
      "hit": false,
      "t": 226408.3333333332,
      "d": 683.333333333343,
      "v": 89
    },
    {
      "midi": 72,
      "hit": false,
      "t": 226408.3333333332,
      "d": 683.333333333343,
      "v": 89
    },
    {
      "midi": 76,
      "hit": false,
      "t": 226408.3333333332,
      "d": 700,
      "v": 89
    },
    {
      "midi": 60,
      "hit": false,
      "t": 226928.33333333302,
      "d": 983.3333333333139,
      "v": 91
    },
    {
      "midi": 64,
      "hit": false,
      "t": 226928.33333333302,
      "d": 1016.666666666657,
      "v": 83
    },
    {
      "midi": 67,
      "hit": false,
      "t": 226928.33333333302,
      "d": 1033.333333333314,
      "v": 95
    },
    {
      "midi": 36,
      "hit": false,
      "t": 227194.99999999968,
      "d": 1600,
      "v": 99
    },
    {
      "midi": 72,
      "hit": false,
      "t": 227208.3333333332,
      "d": 1516.666666666657,
      "v": 100
    },
    {
      "midi": 76,
      "hit": false,
      "t": 227208.3333333332,
      "d": 1566.666666666657,
      "v": 100
    },
    {
      "midi": 79,
      "hit": false,
      "t": 227208.3333333332,
      "d": 1600,
      "v": 100
    },
    {
      "midi": 60,
      "hit": false,
      "t": 227994.99999999968,
      "d": 750,
      "v": 98
    },
    {
      "midi": 64,
      "hit": false,
      "t": 227994.99999999968,
      "d": 750,
      "v": 92
    },
    {
      "midi": 67,
      "hit": false,
      "t": 227994.99999999968,
      "d": 800,
      "v": 99
    },
    {
      "midi": 55,
      "hit": false,
      "t": 228794.99999999968,
      "d": 716.666666666657,
      "v": 96
    },
    {
      "midi": 60,
      "hit": false,
      "t": 228794.99999999968,
      "d": 716.666666666657,
      "v": 91
    },
    {
      "midi": 64,
      "hit": false,
      "t": 228794.99999999968,
      "d": 800,
      "v": 93
    },
    {
      "midi": 43,
      "hit": false,
      "t": 228794.99999999968,
      "d": 1600,
      "v": 100
    },
    {
      "midi": 76,
      "hit": false,
      "t": 228808.3333333332,
      "d": 700,
      "v": 100
    },
    {
      "midi": 67,
      "hit": false,
      "t": 228808.3333333332,
      "d": 716.666666666657,
      "v": 100
    },
    {
      "midi": 72,
      "hit": false,
      "t": 228808.3333333332,
      "d": 733.3333333333139,
      "v": 100
    },
    {
      "midi": 55,
      "hit": false,
      "t": 229594.99999999968,
      "d": 683.333333333343,
      "v": 90
    },
    {
      "midi": 60,
      "hit": false,
      "t": 229594.99999999968,
      "d": 733.333333333343,
      "v": 94
    },
    {
      "midi": 63,
      "hit": false,
      "t": 229594.99999999968,
      "d": 733.333333333343,
      "v": 102
    },
    {
      "midi": 75,
      "hit": false,
      "t": 229608.33333333317,
      "d": 733.333333333343,
      "v": 105
    },
    {
      "midi": 72,
      "hit": false,
      "t": 229608.33333333317,
      "d": 750,
      "v": 105
    },
    {
      "midi": 67,
      "hit": false,
      "t": 229608.33333333317,
      "d": 766.666666666657,
      "v": 105
    },
    {
      "midi": 55,
      "hit": false,
      "t": 230394.99999999968,
      "d": 666.666666666657,
      "v": 87
    },
    {
      "midi": 59,
      "hit": false,
      "t": 230394.99999999968,
      "d": 666.666666666657,
      "v": 90
    },
    {
      "midi": 62,
      "hit": false,
      "t": 230394.99999999968,
      "d": 666.666666666657,
      "v": 81
    },
    {
      "midi": 31,
      "hit": false,
      "t": 230394.99999999968,
      "d": 1600,
      "v": 95
    },
    {
      "midi": 71,
      "hit": false,
      "t": 230408.33333333317,
      "d": 1483.333333333343,
      "v": 94
    },
    {
      "midi": 67,
      "hit": false,
      "t": 230408.33333333317,
      "d": 1500,
      "v": 94
    },
    {
      "midi": 74,
      "hit": false,
      "t": 230408.33333333317,
      "d": 1516.666666666657,
      "v": 94
    },
    {
      "midi": 55,
      "hit": false,
      "t": 231194.99999999968,
      "d": 1533.333333333343,
      "v": 92
    },
    {
      "midi": 59,
      "hit": false,
      "t": 231194.99999999968,
      "d": 1533.333333333343,
      "v": 95
    },
    {
      "midi": 62,
      "hit": false,
      "t": 231194.99999999968,
      "d": 1533.333333333343,
      "v": 85
    },
    {
      "midi": 38,
      "hit": false,
      "t": 231994.99999999968,
      "d": 1600,
      "v": 95
    },
    {
      "midi": 59,
      "hit": false,
      "t": 232008.33333333317,
      "d": 733.333333333343,
      "v": 95
    },
    {
      "midi": 62,
      "hit": false,
      "t": 232008.33333333317,
      "d": 750,
      "v": 77
    },
    {
      "midi": 67,
      "hit": false,
      "t": 232008.33333333317,
      "d": 750,
      "v": 90
    },
    {
      "midi": 55,
      "hit": false,
      "t": 232794.99999999968,
      "d": 466.66666666665697,
      "v": 87
    },
    {
      "midi": 59,
      "hit": false,
      "t": 232794.99999999968,
      "d": 466.66666666665697,
      "v": 87
    },
    {
      "midi": 62,
      "hit": false,
      "t": 232794.99999999968,
      "d": 500,
      "v": 90
    },
    {
      "midi": 62,
      "hit": false,
      "t": 232808.33333333317,
      "d": 1200,
      "v": 78
    },
    {
      "midi": 67,
      "hit": false,
      "t": 232808.33333333317,
      "d": 1333.333333333343,
      "v": 89
    },
    {
      "midi": 71,
      "hit": false,
      "t": 232808.33333333317,
      "d": 1333.333333333343,
      "v": 86
    },
    {
      "midi": 59,
      "hit": false,
      "t": 233328.33333333302,
      "d": 933.3333333333139,
      "v": 63
    },
    {
      "midi": 62,
      "hit": false,
      "t": 233328.33333333302,
      "d": 933.3333333333139,
      "v": 55
    },
    {
      "midi": 67,
      "hit": false,
      "t": 233328.33333333302,
      "d": 933.3333333333139,
      "v": 91
    },
    {
      "midi": 31,
      "hit": false,
      "t": 233594.99999999968,
      "d": 1599.999999999971,
      "v": 88
    },
    {
      "midi": 43,
      "hit": false,
      "t": 233594.99999999968,
      "d": 1599.999999999971,
      "v": 75
    },
    {
      "midi": 62,
      "hit": false,
      "t": 234141.6666666665,
      "d": 266.66666666665697,
      "v": 87
    },
    {
      "midi": 62,
      "hit": false,
      "t": 234394.99999999968,
      "d": 700,
      "v": 104
    },
    {
      "midi": 59,
      "hit": false,
      "t": 234394.99999999968,
      "d": 716.666666666657,
      "v": 106
    },
    {
      "midi": 67,
      "hit": false,
      "t": 234394.99999999968,
      "d": 733.3333333333139,
      "v": 101
    },
    {
      "midi": 67,
      "hit": false,
      "t": 234408.33333333317,
      "d": 1333.333333333343,
      "v": 98
    },
    {
      "midi": 71,
      "hit": false,
      "t": 234408.33333333317,
      "d": 1333.333333333343,
      "v": 98
    },
    {
      "midi": 74,
      "hit": false,
      "t": 234408.33333333317,
      "d": 1333.333333333343,
      "v": 98
    },
    {
      "midi": 59,
      "hit": false,
      "t": 235194.99999999965,
      "d": 800,
      "v": 100
    },
    {
      "midi": 62,
      "hit": false,
      "t": 235194.99999999965,
      "d": 800,
      "v": 106
    },
    {
      "midi": 66,
      "hit": false,
      "t": 235194.99999999965,
      "d": 800,
      "v": 104
    },
    {
      "midi": 38,
      "hit": false,
      "t": 235194.99999999965,
      "d": 1600,
      "v": 97
    },
    {
      "midi": 62,
      "hit": false,
      "t": 235741.6666666665,
      "d": 216.66666666665697,
      "v": 87
    },
    {
      "midi": 55,
      "hit": false,
      "t": 235994.99999999965,
      "d": 533.333333333343,
      "v": 99
    },
    {
      "midi": 60,
      "hit": false,
      "t": 235994.99999999965,
      "d": 533.333333333343,
      "v": 97
    },
    {
      "midi": 64,
      "hit": false,
      "t": 235994.99999999965,
      "d": 533.333333333343,
      "v": 91
    },
    {
      "midi": 67,
      "hit": false,
      "t": 236008.33333333317,
      "d": 666.666666666657,
      "v": 90
    },
    {
      "midi": 62,
      "hit": false,
      "t": 236008.33333333317,
      "d": 700,
      "v": 63
    },
    {
      "midi": 71,
      "hit": false,
      "t": 236008.33333333317,
      "d": 733.333333333343,
      "v": 87
    },
    {
      "midi": 57,
      "hit": false,
      "t": 236528.333333333,
      "d": 933.3333333333139,
      "v": 95
    },
    {
      "midi": 62,
      "hit": false,
      "t": 236528.333333333,
      "d": 933.3333333333139,
      "v": 100
    },
    {
      "midi": 66,
      "hit": false,
      "t": 236528.333333333,
      "d": 933.3333333333139,
      "v": 103
    },
    {
      "midi": 38,
      "hit": false,
      "t": 236794.99999999965,
      "d": 1600,
      "v": 90
    },
    {
      "midi": 62,
      "hit": false,
      "t": 236808.33333333317,
      "d": 1866.666666666657,
      "v": 93
    },
    {
      "midi": 66,
      "hit": false,
      "t": 236808.33333333317,
      "d": 1866.666666666657,
      "v": 98
    },
    {
      "midi": 69,
      "hit": false,
      "t": 236808.33333333317,
      "d": 2133.333333333314,
      "v": 100
    },
    {
      "midi": 66,
      "hit": false,
      "t": 237594.99999999965,
      "d": 1500,
      "v": 87
    },
    {
      "midi": 57,
      "hit": false,
      "t": 237594.99999999965,
      "d": 1516.666666666657,
      "v": 95
    },
    {
      "midi": 62,
      "hit": false,
      "t": 237594.99999999965,
      "d": 1533.333333333314,
      "v": 81
    },
    {
      "midi": 33,
      "hit": false,
      "t": 238394.99999999965,
      "d": 1599.999999999971,
      "v": 103
    },
    {
      "midi": 62,
      "hit": false,
      "t": 238941.66666666648,
      "d": 800,
      "v": 96
    },
    {
      "midi": 66,
      "hit": false,
      "t": 238941.66666666648,
      "d": 800,
      "v": 96
    },
    {
      "midi": 74,
      "hit": false,
      "t": 238941.66666666648,
      "d": 800,
      "v": 96
    },
    {
      "midi": 57,
      "hit": false,
      "t": 239194.99999999962,
      "d": 1200,
      "v": 89
    },
    {
      "midi": 62,
      "hit": false,
      "t": 239194.99999999962,
      "d": 1200,
      "v": 95
    },
    {
      "midi": 66,
      "hit": false,
      "t": 239194.99999999962,
      "d": 1200,
      "v": 84
    },
    {
      "midi": 69,
      "hit": false,
      "t": 239741.66666666648,
      "d": 266.66666666665697,
      "v": 76
    },
    {
      "midi": 38,
      "hit": false,
      "t": 239994.99999999962,
      "d": 1600.000000000029,
      "v": 99
    },
    {
      "midi": 66,
      "hit": false,
      "t": 240008.33333333314,
      "d": 533.333333333343,
      "v": 103
    },
    {
      "midi": 72,
      "hit": false,
      "t": 240008.33333333314,
      "d": 533.333333333343,
      "v": 103
    },
    {
      "midi": 76,
      "hit": false,
      "t": 240008.33333333314,
      "d": 533.333333333343,
      "v": 103
    },
    {
      "midi": 62,
      "hit": false,
      "t": 240528.33333333296,
      "d": 83.33333333334303,
      "v": 101
    },
    {
      "midi": 62,
      "hit": false,
      "t": 240794.99999999965,
      "d": 581.666666666657,
      "v": 98
    },
    {
      "midi": 66,
      "hit": false,
      "t": 240794.99999999965,
      "d": 626.666666666657,
      "v": 111
    },
    {
      "midi": 72,
      "hit": false,
      "t": 240794.99999999965,
      "d": 646.666666666657,
      "v": 117
    },
    {
      "midi": 72,
      "hit": false,
      "t": 240808.33333333314,
      "d": 716.666666666657,
      "v": 87
    },
    {
      "midi": 76,
      "hit": false,
      "t": 240808.33333333314,
      "d": 716.666666666657,
      "v": 87
    },
    {
      "midi": 66,
      "hit": false,
      "t": 240808.33333333314,
      "d": 733.3333333333139,
      "v": 87
    },
    {
      "midi": 66,
      "hit": false,
      "t": 241594.99999999965,
      "d": 651.666666666657,
      "v": 110
    },
    {
      "midi": 62,
      "hit": false,
      "t": 241594.99999999965,
      "d": 673.3333333333139,
      "v": 96
    },
    {
      "midi": 71,
      "hit": false,
      "t": 241594.99999999965,
      "d": 693.3333333333139,
      "v": 108
    },
    {
      "midi": 33,
      "hit": false,
      "t": 241594.99999999965,
      "d": 1599.9999999999418,
      "v": 111
    },
    {
      "midi": 66,
      "hit": false,
      "t": 241608.3333333331,
      "d": 716.666666666657,
      "v": 87
    },
    {
      "midi": 74,
      "hit": false,
      "t": 241608.3333333331,
      "d": 716.666666666657,
      "v": 87
    },
    {
      "midi": 71,
      "hit": false,
      "t": 241608.3333333331,
      "d": 733.3333333333139,
      "v": 87
    },
    {
      "midi": 62,
      "hit": false,
      "t": 242394.99999999962,
      "d": 416.66666666665697,
      "v": 90
    },
    {
      "midi": 66,
      "hit": false,
      "t": 242394.99999999962,
      "d": 433.33333333331393,
      "v": 109
    },
    {
      "midi": 69,
      "hit": false,
      "t": 242394.99999999962,
      "d": 533.3333333333139,
      "v": 110
    },
    {
      "midi": 69,
      "hit": false,
      "t": 242408.33333333308,
      "d": 683.333333333343,
      "v": 94
    },
    {
      "midi": 72,
      "hit": false,
      "t": 242408.33333333308,
      "d": 700,
      "v": 94
    },
    {
      "midi": 66,
      "hit": false,
      "t": 242408.33333333308,
      "d": 766.666666666657,
      "v": 94
    },
    {
      "midi": 62,
      "hit": false,
      "t": 242928.33333333294,
      "d": 533.3333333333139,
      "v": 103
    },
    {
      "midi": 67,
      "hit": false,
      "t": 242928.33333333294,
      "d": 533.3333333333139,
      "v": 115
    },
    {
      "midi": 71,
      "hit": false,
      "t": 242928.33333333294,
      "d": 533.3333333333139,
      "v": 106
    },
    {
      "midi": 31,
      "hit": false,
      "t": 243194.9999999996,
      "d": 1599.999999999971,
      "v": 99
    },
    {
      "midi": 43,
      "hit": false,
      "t": 243194.9999999996,
      "d": 1599.999999999971,
      "v": 99
    },
    {
      "midi": 62,
      "hit": false,
      "t": 243208.33333333308,
      "d": 666.666666666657,
      "v": 96
    },
    {
      "midi": 67,
      "hit": false,
      "t": 243208.33333333308,
      "d": 666.666666666657,
      "v": 96
    },
    {
      "midi": 71,
      "hit": false,
      "t": 243208.33333333308,
      "d": 666.666666666657,
      "v": 96
    },
    {
      "midi": 67,
      "hit": false,
      "t": 243728.3333333329,
      "d": 160,
      "v": 106
    },
    {
      "midi": 70,
      "hit": false,
      "t": 243994.99999999956,
      "d": 73.33333333334303,
      "v": 98
    },
    {
      "midi": 74,
      "hit": false,
      "t": 243994.99999999956,
      "d": 410,
      "v": 115
    },
    {
      "midi": 62,
      "hit": false,
      "t": 244008.33333333308,
      "d": 700,
      "v": 104
    },
    {
      "midi": 67,
      "hit": false,
      "t": 244008.33333333308,
      "d": 700,
      "v": 104
    },
    {
      "midi": 59,
      "hit": false,
      "t": 244008.33333333308,
      "d": 750,
      "v": 104
    },
    {
      "midi": 71,
      "hit": false,
      "t": 244063.3333333329,
      "d": 330,
      "v": 99
    },
    {
      "midi": 62,
      "hit": false,
      "t": 244528.3333333329,
      "d": 130,
      "v": 97
    },
    {
      "midi": 74,
      "hit": false,
      "t": 244794.99999999956,
      "d": 400,
      "v": 127
    },
    {
      "midi": 69,
      "hit": false,
      "t": 244794.99999999956,
      "d": 426.66666666665697,
      "v": 122
    },
    {
      "midi": 38,
      "hit": false,
      "t": 244794.99999999956,
      "d": 1599.999999999971,
      "v": 100
    },
    {
      "midi": 60,
      "hit": false,
      "t": 244808.33333333308,
      "d": 666.666666666657,
      "v": 106
    },
    {
      "midi": 66,
      "hit": false,
      "t": 244808.33333333308,
      "d": 666.666666666657,
      "v": 106
    },
    {
      "midi": 69,
      "hit": false,
      "t": 244808.33333333308,
      "d": 666.666666666657,
      "v": 106
    },
    {
      "midi": 62,
      "hit": false,
      "t": 245328.33333333288,
      "d": 130,
      "v": 93
    },
    {
      "midi": 74,
      "hit": false,
      "t": 245594.99999999953,
      "d": 388.33333333334303,
      "v": 127
    },
    {
      "midi": 70,
      "hit": false,
      "t": 245594.99999999953,
      "d": 393.33333333334303,
      "v": 127
    },
    {
      "midi": 70,
      "hit": false,
      "t": 245608.33333333308,
      "d": 466.66666666665697,
      "v": 113
    },
    {
      "midi": 61,
      "hit": false,
      "t": 245608.33333333308,
      "d": 483.33333333331393,
      "v": 113
    },
    {
      "midi": 66,
      "hit": false,
      "t": 245608.33333333308,
      "d": 499.9999999999709,
      "v": 113
    },
    {
      "midi": 74,
      "hit": false,
      "t": 246128.33333333288,
      "d": 348.33333333331393,
      "v": 127
    },
    {
      "midi": 71,
      "hit": false,
      "t": 246128.33333333288,
      "d": 354.9999999999709,
      "v": 124
    },
    {
      "midi": 62,
      "hit": false,
      "t": 246141.6666666664,
      "d": 800,
      "v": 117
    },
    {
      "midi": 67,
      "hit": false,
      "t": 246141.6666666664,
      "d": 800,
      "v": 117
    },
    {
      "midi": 71,
      "hit": false,
      "t": 246141.6666666664,
      "d": 800,
      "v": 117
    },
    {
      "midi": 43,
      "hit": false,
      "t": 246394.99999999953,
      "d": 749.9999999999709,
      "v": 89
    },
    {
      "midi": 31,
      "hit": false,
      "t": 246394.99999999953,
      "d": 799.9999999999709,
      "v": 98
    },
    {
      "midi": 62,
      "hit": false,
      "t": 246928.33333333285,
      "d": 85,
      "v": 98
    },
    {
      "midi": 71,
      "hit": false,
      "t": 247194.9999999995,
      "d": 615,
      "v": 112
    },
    {
      "midi": 67,
      "hit": false,
      "t": 247194.9999999995,
      "d": 626.666666666657,
      "v": 115
    },
    {
      "midi": 31,
      "hit": false,
      "t": 247194.9999999995,
      "d": 800,
      "v": 103
    },
    {
      "midi": 43,
      "hit": false,
      "t": 247194.9999999995,
      "d": 800,
      "v": 94
    },
    {
      "midi": 79,
      "hit": false,
      "t": 247208.33333333305,
      "d": 700,
      "v": 100
    },
    {
      "midi": 83,
      "hit": false,
      "t": 247208.33333333305,
      "d": 716.666666666657,
      "v": 100
    },
    {
      "midi": 74,
      "hit": false,
      "t": 247208.33333333305,
      "d": 1533.333333333314,
      "v": 100
    },
    {
      "midi": 70,
      "hit": false,
      "t": 247994.9999999995,
      "d": 635,
      "v": 124
    },
    {
      "midi": 60,
      "hit": false,
      "t": 247994.9999999995,
      "d": 641.666666666657,
      "v": 119
    },
    {
      "midi": 66,
      "hit": false,
      "t": 247994.9999999995,
      "d": 641.666666666657,
      "v": 119
    },
    {
      "midi": 33,
      "hit": false,
      "t": 247994.9999999995,
      "d": 800,
      "v": 111
    },
    {
      "midi": 82,
      "hit": false,
      "t": 248008.33333333305,
      "d": 716.666666666657,
      "v": 96
    },
    {
      "midi": 78,
      "hit": false,
      "t": 248008.33333333305,
      "d": 749.9999999999709,
      "v": 96
    },
    {
      "midi": 65,
      "hit": false,
      "t": 248794.9999999995,
      "d": 615,
      "v": 115
    },
    {
      "midi": 69,
      "hit": false,
      "t": 248794.9999999995,
      "d": 615,
      "v": 118
    },
    {
      "midi": 59,
      "hit": false,
      "t": 248794.9999999995,
      "d": 650,
      "v": 90
    },
    {
      "midi": 35,
      "hit": false,
      "t": 248794.9999999995,
      "d": 800,
      "v": 107
    },
    {
      "midi": 74,
      "hit": false,
      "t": 248808.33333333302,
      "d": 700,
      "v": 94
    },
    {
      "midi": 81,
      "hit": false,
      "t": 248808.33333333302,
      "d": 700,
      "v": 94
    },
    {
      "midi": 77,
      "hit": false,
      "t": 248808.33333333302,
      "d": 716.666666666657,
      "v": 94
    },
    {
      "midi": 55,
      "hit": false,
      "t": 249594.9999999995,
      "d": 750,
      "v": 112
    },
    {
      "midi": 60,
      "hit": false,
      "t": 249594.9999999995,
      "d": 766.666666666657,
      "v": 112
    },
    {
      "midi": 64,
      "hit": false,
      "t": 249594.9999999995,
      "d": 766.666666666657,
      "v": 112
    },
    {
      "midi": 36,
      "hit": false,
      "t": 249594.9999999995,
      "d": 1600,
      "v": 112
    },
    {
      "midi": 72,
      "hit": false,
      "t": 249608.33333333302,
      "d": 683.333333333343,
      "v": 79
    },
    {
      "midi": 76,
      "hit": false,
      "t": 249608.33333333302,
      "d": 716.6666666666861,
      "v": 79
    },
    {
      "midi": 79,
      "hit": false,
      "t": 249608.33333333302,
      "d": 750.0000000000291,
      "v": 90
    },
    {
      "midi": 55,
      "hit": false,
      "t": 250394.9999999995,
      "d": 1483.333333333343,
      "v": 94
    },
    {
      "midi": 64,
      "hit": false,
      "t": 250394.9999999995,
      "d": 1483.333333333343,
      "v": 90
    },
    {
      "midi": 60,
      "hit": false,
      "t": 250394.9999999995,
      "d": 1533.333333333343,
      "v": 93
    },
    {
      "midi": 64,
      "hit": false,
      "t": 250408.33333333305,
      "d": 1483.333333333343,
      "v": 98
    },
    {
      "midi": 72,
      "hit": false,
      "t": 250408.33333333305,
      "d": 1500,
      "v": 98
    },
    {
      "midi": 67,
      "hit": false,
      "t": 250408.33333333305,
      "d": 1516.666666666657,
      "v": 98
    },
    {
      "midi": 43,
      "hit": false,
      "t": 251194.9999999995,
      "d": 1599.999999999971,
      "v": 88
    },
    {
      "midi": 31,
      "hit": false,
      "t": 251194.9999999995,
      "d": 1609.999999999971,
      "v": 91
    },
    {
      "midi": 60,
      "hit": false,
      "t": 251994.9999999995,
      "d": 450,
      "v": 90
    },
    {
      "midi": 64,
      "hit": false,
      "t": 251994.9999999995,
      "d": 466.66666666665697,
      "v": 86
    },
    {
      "midi": 55,
      "hit": false,
      "t": 251994.9999999995,
      "d": 533.3333333333139,
      "v": 88
    },
    {
      "midi": 67,
      "hit": false,
      "t": 252008.33333333305,
      "d": 700,
      "v": 89
    },
    {
      "midi": 72,
      "hit": false,
      "t": 252008.33333333305,
      "d": 700,
      "v": 89
    },
    {
      "midi": 76,
      "hit": false,
      "t": 252008.33333333305,
      "d": 716.666666666657,
      "v": 89
    },
    {
      "midi": 64,
      "hit": false,
      "t": 252528.33333333282,
      "d": 1000,
      "v": 83
    },
    {
      "midi": 60,
      "hit": false,
      "t": 252528.33333333282,
      "d": 1016.666666666657,
      "v": 91
    },
    {
      "midi": 67,
      "hit": false,
      "t": 252528.33333333282,
      "d": 1016.666666666657,
      "v": 95
    },
    {
      "midi": 36,
      "hit": false,
      "t": 252794.99999999948,
      "d": 1600,
      "v": 99
    },
    {
      "midi": 72,
      "hit": false,
      "t": 252808.33333333305,
      "d": 1500,
      "v": 100
    },
    {
      "midi": 76,
      "hit": false,
      "t": 252808.33333333305,
      "d": 1500,
      "v": 100
    },
    {
      "midi": 79,
      "hit": false,
      "t": 252808.33333333305,
      "d": 1550,
      "v": 100
    },
    {
      "midi": 60,
      "hit": false,
      "t": 253594.99999999948,
      "d": 733.333333333343,
      "v": 98
    },
    {
      "midi": 64,
      "hit": false,
      "t": 253594.99999999948,
      "d": 733.333333333343,
      "v": 92
    },
    {
      "midi": 67,
      "hit": false,
      "t": 253594.99999999948,
      "d": 800,
      "v": 99
    },
    {
      "midi": 60,
      "hit": false,
      "t": 254394.99999999948,
      "d": 716.666666666657,
      "v": 91
    },
    {
      "midi": 64,
      "hit": false,
      "t": 254394.99999999948,
      "d": 716.666666666657,
      "v": 93
    },
    {
      "midi": 55,
      "hit": false,
      "t": 254394.99999999948,
      "d": 733.3333333333139,
      "v": 96
    },
    {
      "midi": 43,
      "hit": false,
      "t": 254394.99999999948,
      "d": 1599.999999999971,
      "v": 100
    },
    {
      "midi": 67,
      "hit": false,
      "t": 254408.33333333305,
      "d": 666.666666666657,
      "v": 100
    },
    {
      "midi": 72,
      "hit": false,
      "t": 254408.33333333305,
      "d": 683.3333333333139,
      "v": 100
    },
    {
      "midi": 76,
      "hit": false,
      "t": 254408.33333333305,
      "d": 749.9999999999709,
      "v": 100
    },
    {
      "midi": 55,
      "hit": false,
      "t": 255194.99999999945,
      "d": 700,
      "v": 90
    },
    {
      "midi": 60,
      "hit": false,
      "t": 255194.99999999945,
      "d": 700,
      "v": 94
    },
    {
      "midi": 63,
      "hit": false,
      "t": 255194.99999999945,
      "d": 700,
      "v": 102
    },
    {
      "midi": 67,
      "hit": false,
      "t": 255208.33333333302,
      "d": 650,
      "v": 105
    },
    {
      "midi": 72,
      "hit": false,
      "t": 255208.33333333302,
      "d": 716.666666666657,
      "v": 105
    },
    {
      "midi": 75,
      "hit": false,
      "t": 255208.33333333302,
      "d": 716.666666666657,
      "v": 105
    },
    {
      "midi": 55,
      "hit": false,
      "t": 255994.99999999945,
      "d": 666.666666666657,
      "v": 87
    },
    {
      "midi": 59,
      "hit": false,
      "t": 255994.99999999945,
      "d": 666.666666666657,
      "v": 90
    },
    {
      "midi": 62,
      "hit": false,
      "t": 255994.99999999945,
      "d": 666.666666666657,
      "v": 81
    },
    {
      "midi": 31,
      "hit": false,
      "t": 255994.99999999945,
      "d": 1600,
      "v": 95
    },
    {
      "midi": 67,
      "hit": false,
      "t": 256008.33333333302,
      "d": 1500,
      "v": 94
    },
    {
      "midi": 71,
      "hit": false,
      "t": 256008.33333333302,
      "d": 1550,
      "v": 94
    },
    {
      "midi": 74,
      "hit": false,
      "t": 256008.33333333302,
      "d": 1600,
      "v": 94
    },
    {
      "midi": 55,
      "hit": false,
      "t": 256794.99999999945,
      "d": 1500,
      "v": 92
    },
    {
      "midi": 59,
      "hit": false,
      "t": 256794.99999999945,
      "d": 1533.333333333343,
      "v": 95
    },
    {
      "midi": 62,
      "hit": false,
      "t": 256794.99999999945,
      "d": 1533.333333333343,
      "v": 85
    },
    {
      "midi": 38,
      "hit": false,
      "t": 257594.99999999945,
      "d": 1599.999999999971,
      "v": 95
    },
    {
      "midi": 59,
      "hit": false,
      "t": 257608.33333333302,
      "d": 716.666666666657,
      "v": 95
    },
    {
      "midi": 62,
      "hit": false,
      "t": 257608.33333333302,
      "d": 750,
      "v": 77
    },
    {
      "midi": 67,
      "hit": false,
      "t": 257608.33333333302,
      "d": 750,
      "v": 90
    },
    {
      "midi": 59,
      "hit": false,
      "t": 258394.99999999945,
      "d": 466.66666666665697,
      "v": 87
    },
    {
      "midi": 55,
      "hit": false,
      "t": 258394.99999999945,
      "d": 500,
      "v": 87
    },
    {
      "midi": 62,
      "hit": false,
      "t": 258394.99999999945,
      "d": 516.666666666657,
      "v": 90
    },
    {
      "midi": 62,
      "hit": false,
      "t": 258408.33333333302,
      "d": 1233.333333333343,
      "v": 78
    },
    {
      "midi": 67,
      "hit": false,
      "t": 258408.33333333302,
      "d": 1333.333333333343,
      "v": 89
    },
    {
      "midi": 71,
      "hit": false,
      "t": 258408.33333333302,
      "d": 1333.333333333343,
      "v": 86
    },
    {
      "midi": 59,
      "hit": false,
      "t": 258928.33333333276,
      "d": 933.3333333333139,
      "v": 63
    },
    {
      "midi": 62,
      "hit": false,
      "t": 258928.33333333276,
      "d": 933.3333333333139,
      "v": 55
    },
    {
      "midi": 67,
      "hit": false,
      "t": 258928.33333333276,
      "d": 933.3333333333139,
      "v": 91
    },
    {
      "midi": 43,
      "hit": false,
      "t": 259194.99999999942,
      "d": 1558.3333333333721,
      "v": 75
    },
    {
      "midi": 31,
      "hit": false,
      "t": 259194.99999999942,
      "d": 1600.000000000029,
      "v": 88
    },
    {
      "midi": 62,
      "hit": false,
      "t": 259741.66666666637,
      "d": 266.66666666665697,
      "v": 87
    },
    {
      "midi": 59,
      "hit": false,
      "t": 259994.99999999942,
      "d": 733.333333333343,
      "v": 106
    },
    {
      "midi": 67,
      "hit": false,
      "t": 259994.99999999942,
      "d": 741.6666666666861,
      "v": 101
    },
    {
      "midi": 62,
      "hit": false,
      "t": 259994.99999999942,
      "d": 750.0000000000291,
      "v": 104
    },
    {
      "midi": 67,
      "hit": false,
      "t": 260008.33333333302,
      "d": 1333.333333333343,
      "v": 98
    },
    {
      "midi": 71,
      "hit": false,
      "t": 260008.33333333302,
      "d": 1333.333333333343,
      "v": 98
    },
    {
      "midi": 74,
      "hit": false,
      "t": 260008.33333333302,
      "d": 1333.333333333343,
      "v": 98
    },
    {
      "midi": 59,
      "hit": false,
      "t": 260794.99999999945,
      "d": 800,
      "v": 100
    },
    {
      "midi": 62,
      "hit": false,
      "t": 260794.99999999945,
      "d": 800,
      "v": 106
    },
    {
      "midi": 66,
      "hit": false,
      "t": 260794.99999999945,
      "d": 800,
      "v": 104
    },
    {
      "midi": 38,
      "hit": false,
      "t": 260794.99999999945,
      "d": 1575.000000000029,
      "v": 97
    },
    {
      "midi": 62,
      "hit": false,
      "t": 261341.66666666637,
      "d": 166.66666666665697,
      "v": 87
    },
    {
      "midi": 55,
      "hit": false,
      "t": 261594.99999999945,
      "d": 533.333333333343,
      "v": 99
    },
    {
      "midi": 60,
      "hit": false,
      "t": 261594.99999999945,
      "d": 533.333333333343,
      "v": 97
    },
    {
      "midi": 64,
      "hit": false,
      "t": 261594.99999999945,
      "d": 533.333333333343,
      "v": 91
    },
    {
      "midi": 62,
      "hit": false,
      "t": 261608.33333333302,
      "d": 716.6666666666861,
      "v": 63
    },
    {
      "midi": 67,
      "hit": false,
      "t": 261608.33333333302,
      "d": 716.6666666666861,
      "v": 90
    },
    {
      "midi": 71,
      "hit": false,
      "t": 261608.33333333302,
      "d": 716.6666666666861,
      "v": 87
    },
    {
      "midi": 57,
      "hit": false,
      "t": 262128.3333333328,
      "d": 933.3333333333721,
      "v": 95
    },
    {
      "midi": 62,
      "hit": false,
      "t": 262128.3333333328,
      "d": 933.3333333333721,
      "v": 100
    },
    {
      "midi": 66,
      "hit": false,
      "t": 262128.3333333328,
      "d": 933.3333333333721,
      "v": 103
    },
    {
      "midi": 38,
      "hit": false,
      "t": 262394.9999999995,
      "d": 1600,
      "v": 90
    },
    {
      "midi": 62,
      "hit": false,
      "t": 262408.333333333,
      "d": 1866.666666666686,
      "v": 93
    },
    {
      "midi": 66,
      "hit": false,
      "t": 262408.333333333,
      "d": 1866.666666666686,
      "v": 98
    },
    {
      "midi": 69,
      "hit": false,
      "t": 262408.333333333,
      "d": 2133.333333333372,
      "v": 100
    },
    {
      "midi": 66,
      "hit": false,
      "t": 263194.9999999995,
      "d": 1516.666666666686,
      "v": 87
    },
    {
      "midi": 57,
      "hit": false,
      "t": 263194.9999999995,
      "d": 1533.3333333333721,
      "v": 95
    },
    {
      "midi": 62,
      "hit": false,
      "t": 263194.9999999995,
      "d": 1566.666666666686,
      "v": 81
    },
    {
      "midi": 33,
      "hit": false,
      "t": 263994.9999999995,
      "d": 1600,
      "v": 103
    },
    {
      "midi": 62,
      "hit": false,
      "t": 264541.6666666664,
      "d": 800,
      "v": 96
    },
    {
      "midi": 66,
      "hit": false,
      "t": 264541.6666666664,
      "d": 800,
      "v": 96
    },
    {
      "midi": 74,
      "hit": false,
      "t": 264541.6666666664,
      "d": 800,
      "v": 96
    },
    {
      "midi": 57,
      "hit": false,
      "t": 264794.9999999995,
      "d": 1200,
      "v": 89
    },
    {
      "midi": 62,
      "hit": false,
      "t": 264794.9999999995,
      "d": 1200,
      "v": 95
    },
    {
      "midi": 66,
      "hit": false,
      "t": 264794.9999999995,
      "d": 1200,
      "v": 84
    },
    {
      "midi": 69,
      "hit": false,
      "t": 265341.6666666664,
      "d": 266.66666666668607,
      "v": 76
    },
    {
      "midi": 38,
      "hit": false,
      "t": 265594.9999999995,
      "d": 1599.9999999999418,
      "v": 99
    },
    {
      "midi": 66,
      "hit": false,
      "t": 265608.3333333331,
      "d": 533.3333333333139,
      "v": 103
    },
    {
      "midi": 72,
      "hit": false,
      "t": 265608.3333333331,
      "d": 533.3333333333139,
      "v": 103
    },
    {
      "midi": 76,
      "hit": false,
      "t": 265608.3333333331,
      "d": 533.3333333333139,
      "v": 103
    },
    {
      "midi": 62,
      "hit": false,
      "t": 266128.3333333328,
      "d": 83.33333333331393,
      "v": 101
    },
    {
      "midi": 62,
      "hit": false,
      "t": 266394.9999999994,
      "d": 581.6666666666861,
      "v": 98
    },
    {
      "midi": 66,
      "hit": false,
      "t": 266394.9999999994,
      "d": 626.6666666666861,
      "v": 111
    },
    {
      "midi": 72,
      "hit": false,
      "t": 266394.9999999994,
      "d": 646.6666666666861,
      "v": 117
    },
    {
      "midi": 66,
      "hit": false,
      "t": 266408.3333333331,
      "d": 683.3333333333139,
      "v": 87
    },
    {
      "midi": 72,
      "hit": false,
      "t": 266408.3333333331,
      "d": 700,
      "v": 87
    },
    {
      "midi": 76,
      "hit": false,
      "t": 266408.3333333331,
      "d": 700,
      "v": 87
    },
    {
      "midi": 66,
      "hit": false,
      "t": 267194.9999999994,
      "d": 651.6666666666861,
      "v": 110
    },
    {
      "midi": 62,
      "hit": false,
      "t": 267194.9999999994,
      "d": 673.3333333333721,
      "v": 96
    },
    {
      "midi": 71,
      "hit": false,
      "t": 267194.9999999994,
      "d": 693.3333333333721,
      "v": 108
    },
    {
      "midi": 33,
      "hit": false,
      "t": 267194.9999999994,
      "d": 1600.0000000001164,
      "v": 111
    },
    {
      "midi": 74,
      "hit": false,
      "t": 267208.3333333331,
      "d": 700,
      "v": 87
    },
    {
      "midi": 71,
      "hit": false,
      "t": 267208.3333333331,
      "d": 733.3333333333139,
      "v": 87
    },
    {
      "midi": 66,
      "hit": false,
      "t": 267208.3333333331,
      "d": 750,
      "v": 87
    },
    {
      "midi": 62,
      "hit": false,
      "t": 267994.9999999995,
      "d": 433.33333333331393,
      "v": 90
    },
    {
      "midi": 66,
      "hit": false,
      "t": 267994.9999999995,
      "d": 450,
      "v": 109
    },
    {
      "midi": 69,
      "hit": false,
      "t": 267994.9999999995,
      "d": 466.66666666668607,
      "v": 110
    },
    {
      "midi": 66,
      "hit": false,
      "t": 268008.3333333331,
      "d": 633.3333333333139,
      "v": 83
    },
    {
      "midi": 69,
      "hit": false,
      "t": 268008.3333333331,
      "d": 716.6666666666279,
      "v": 83
    },
    {
      "midi": 72,
      "hit": false,
      "t": 268008.3333333331,
      "d": 716.6666666666279,
      "v": 83
    },
    {
      "midi": 62,
      "hit": false,
      "t": 268728.33333333285,
      "d": 533.3333333333721,
      "v": 103
    },
    {
      "midi": 67,
      "hit": false,
      "t": 268744.99999999953,
      "d": 533.3333333333721,
      "v": 115
    },
    {
      "midi": 71,
      "hit": false,
      "t": 268794.99999999953,
      "d": 533.3333333333721,
      "v": 106
    },
    {
      "midi": 31,
      "hit": false,
      "t": 268794.99999999953,
      "d": 1600.0000000000582,
      "v": 99
    },
    {
      "midi": 43,
      "hit": false,
      "t": 268794.99999999953,
      "d": 1600.0000000000582,
      "v": 99
    },
    {
      "midi": 71,
      "hit": false,
      "t": 268808.333333333,
      "d": 1466.666666666686,
      "v": 77
    },
    {
      "midi": 62,
      "hit": false,
      "t": 268808.333333333,
      "d": 1600,
      "v": 77
    },
    {
      "midi": 67,
      "hit": false,
      "t": 268808.333333333,
      "d": 1733.333333333314,
      "v": 77
    },
    {
      "midi": 73,
      "hit": false,
      "t": 269868.3333333329,
      "d": 56.66666666662786,
      "v": 113
    },
    {
      "midi": 74,
      "hit": false,
      "t": 269921.6666666662,
      "d": 320,
      "v": 111
    },
    {
      "midi": 79,
      "hit": false,
      "t": 270263.3333333329,
      "d": 320,
      "v": 79
    },
    {
      "midi": 67,
      "hit": false,
      "t": 270609.9999999996,
      "d": 375,
      "v": 97
    },
    {
      "midi": 70,
      "hit": false,
      "t": 270968.3333333329,
      "d": 375,
      "v": 121
    },
    {
      "midi": 63,
      "hit": false,
      "t": 270994.9999999996,
      "d": 1048.3333333333721,
      "v": 90
    },
    {
      "midi": 36,
      "hit": false,
      "t": 270999.9999999996,
      "d": 1020,
      "v": 73
    },
    {
      "midi": 69,
      "hit": false,
      "t": 271328.3333333329,
      "d": 326.66666666668607,
      "v": 105
    },
    {
      "midi": 67,
      "hit": false,
      "t": 271678.3333333329,
      "d": 300,
      "v": 88
    },
    {
      "midi": 55,
      "hit": false,
      "t": 272036.6666666663,
      "d": 1108.3333333332557,
      "v": 75
    },
    {
      "midi": 58,
      "hit": false,
      "t": 272038.33333333296,
      "d": 13.33333333331393,
      "v": 70
    },
    {
      "midi": 61,
      "hit": false,
      "t": 272054.9999999996,
      "d": 353.33333333331393,
      "v": 93
    },
    {
      "midi": 37,
      "hit": false,
      "t": 272068.3333333329,
      "d": 1189.9999999999418,
      "v": 82
    },
    {
      "midi": 60,
      "hit": false,
      "t": 272418.3333333329,
      "d": 403.33333333331393,
      "v": 85
    },
    {
      "midi": 58,
      "hit": false,
      "t": 272821.6666666662,
      "d": 346.66666666662786,
      "v": 101
    },
    {
      "midi": 38,
      "hit": false,
      "t": 273201.66666666616,
      "d": 400.0000000000582,
      "v": 55
    },
    {
      "midi": 54,
      "hit": false,
      "t": 273208.33333333285,
      "d": 201.66666666668607,
      "v": 109
    },
    {
      "midi": 50,
      "hit": false,
      "t": 273213.33333333285,
      "d": 271.66666666668607,
      "v": 79
    },
    {
      "midi": 32,
      "hit": false,
      "t": 274194.99999999953,
      "d": 681.6666666666279,
      "v": 91
    },
    {
      "midi": 63,
      "hit": false,
      "t": 274194.99999999953,
      "d": 746.6666666666279,
      "v": 93
    },
    {
      "midi": 58,
      "hit": false,
      "t": 274194.99999999953,
      "d": 763.3333333333139,
      "v": 113
    },
    {
      "midi": 51,
      "hit": false,
      "t": 274194.99999999953,
      "d": 791.6666666666279,
      "v": 93
    },
    {
      "midi": 54,
      "hit": false,
      "t": 274208.33333333285,
      "d": 686.6666666666279,
      "v": 85
    },
    {
      "midi": 50,
      "hit": false,
      "t": 274994.9999999995,
      "d": 3246.666666666686,
      "v": 69
    },
    {
      "midi": 55,
      "hit": false,
      "t": 274994.9999999995,
      "d": 3333.333333333372,
      "v": 63
    },
    {
      "midi": 57,
      "hit": false,
      "t": 274994.9999999995,
      "d": 3333.333333333372,
      "v": 90
    },
    {
      "midi": 31,
      "hit": false,
      "t": 274994.9999999995,
      "d": 3393.333333333372,
      "v": 92
    },
    {
      "midi": 43,
      "hit": false,
      "t": 274994.9999999995,
      "d": 3433.333333333372,
      "v": 87
    },
    {
      "midi": 62,
      "hit": false,
      "t": 274994.9999999995,
      "d": 3540.000000000058,
      "v": 73
    }
  ]
}