{
  "jsonPath": "Jazz/Jazz Trio/Vince Guaraldi Trio/linus-lucy.json",
  "path": "Jazz\\Jazz Trio\\Vince Guaraldi Trio\\Linus  Lucy.mid",
  "name": "Linus  Lucy",
  "difficulty": "Advanced",
  "bpm": 175.00007291669704,
  "notes": [
    {
      "midi": 32,
      "hit": false,
      "t": 1371.428,
      "d": 167.85707291666677,
      "v": 106
    },
    {
      "midi": 39,
      "hit": false,
      "t": 1542.8565000000003,
      "d": 167.85707291666677,
      "v": 106
    },
    {
      "midi": 44,
      "hit": false,
      "t": 1714.2850000000005,
      "d": 167.85707291666677,
      "v": 106
    },
    {
      "midi": 32,
      "hit": false,
      "t": 1885.7135000000007,
      "d": 167.85707291666677,
      "v": 106
    },
    {
      "midi": 39,
      "hit": false,
      "t": 2057.1420000000007,
      "d": 167.85707291666677,
      "v": 106
    },
    {
      "midi": 44,
      "hit": false,
      "t": 2228.5705000000007,
      "d": 339.28557291666675,
      "v": 106
    },
    {
      "midi": 32,
      "hit": false,
      "t": 2571.4275000000007,
      "d": 339.28557291666675,
      "v": 106
    },
    {
      "midi": 39,
      "hit": false,
      "t": 2914.2845000000007,
      "d": 167.85707291666677,
      "v": 106
    },
    {
      "midi": 41,
      "hit": false,
      "t": 3085.7130000000006,
      "d": 167.85707291666677,
      "v": 106
    },
    {
      "midi": 32,
      "hit": false,
      "t": 3257.1415000000006,
      "d": 167.85707291666677,
      "v": 106
    },
    {
      "midi": 39,
      "hit": false,
      "t": 3428.5700000000006,
      "d": 167.85707291666677,
      "v": 106
    },
    {
      "midi": 41,
      "hit": false,
      "t": 3599.9985000000006,
      "d": 339.28557291666675,
      "v": 106
    },
    {
      "midi": 32,
      "hit": false,
      "t": 3942.8555000000006,
      "d": 339.28557291666675,
      "v": 106
    },
    {
      "midi": 39,
      "hit": false,
      "t": 4285.712500000001,
      "d": 167.85707291666677,
      "v": 106
    },
    {
      "midi": 44,
      "hit": false,
      "t": 4457.1410000000005,
      "d": 167.85707291666677,
      "v": 106
    },
    {
      "midi": 32,
      "hit": false,
      "t": 4628.5695000000005,
      "d": 167.85707291666677,
      "v": 106
    },
    {
      "midi": 39,
      "hit": false,
      "t": 4799.9980000000005,
      "d": 167.85707291666677,
      "v": 106
    },
    {
      "midi": 44,
      "hit": false,
      "t": 4971.4265000000005,
      "d": 339.28557291666675,
      "v": 106
    },
    {
      "midi": 32,
      "hit": false,
      "t": 5314.2835000000005,
      "d": 339.28557291666675,
      "v": 106
    },
    {
      "midi": 39,
      "hit": false,
      "t": 5657.1405,
      "d": 167.85707291666677,
      "v": 106
    },
    {
      "midi": 41,
      "hit": false,
      "t": 5828.569,
      "d": 167.85707291666677,
      "v": 106
    },
    {
      "midi": 32,
      "hit": false,
      "t": 5999.9975,
      "d": 167.85707291666677,
      "v": 106
    },
    {
      "midi": 39,
      "hit": false,
      "t": 6171.426,
      "d": 167.85707291666677,
      "v": 106
    },
    {
      "midi": 41,
      "hit": false,
      "t": 6342.8545,
      "d": 339.28557291666675,
      "v": 106
    },
    {
      "midi": 60,
      "hit": false,
      "t": 6685.7115,
      "d": 339.28557291666675,
      "v": 100
    },
    {
      "midi": 68,
      "hit": false,
      "t": 6685.7115,
      "d": 339.28557291666675,
      "v": 100
    },
    {
      "midi": 32,
      "hit": false,
      "t": 6685.7115,
      "d": 339.28557291666675,
      "v": 106
    },
    {
      "midi": 63,
      "hit": false,
      "t": 7028.5685,
      "d": 167.85707291666677,
      "v": 100
    },
    {
      "midi": 70,
      "hit": false,
      "t": 7028.5685,
      "d": 167.85707291666677,
      "v": 100
    },
    {
      "midi": 39,
      "hit": false,
      "t": 7028.5685,
      "d": 167.85707291666677,
      "v": 106
    },
    {
      "midi": 68,
      "hit": false,
      "t": 7199.997,
      "d": 339.28557291666675,
      "v": 100
    },
    {
      "midi": 72,
      "hit": false,
      "t": 7199.997,
      "d": 339.28557291666675,
      "v": 100
    },
    {
      "midi": 44,
      "hit": false,
      "t": 7199.997,
      "d": 167.85707291666677,
      "v": 106
    },
    {
      "midi": 32,
      "hit": false,
      "t": 7371.4255,
      "d": 167.85707291666677,
      "v": 106
    },
    {
      "midi": 68,
      "hit": false,
      "t": 7542.854,
      "d": 167.85707291666677,
      "v": 100
    },
    {
      "midi": 72,
      "hit": false,
      "t": 7542.854,
      "d": 167.85707291666677,
      "v": 100
    },
    {
      "midi": 39,
      "hit": false,
      "t": 7542.854,
      "d": 167.85707291666677,
      "v": 106
    },
    {
      "midi": 63,
      "hit": false,
      "t": 7714.2825,
      "d": 167.85707291666677,
      "v": 100
    },
    {
      "midi": 70,
      "hit": false,
      "t": 7714.2825,
      "d": 167.85707291666677,
      "v": 100
    },
    {
      "midi": 44,
      "hit": false,
      "t": 7714.2825,
      "d": 339.28557291666675,
      "v": 106
    },
    {
      "midi": 60,
      "hit": false,
      "t": 7885.711,
      "d": 339.28557291666675,
      "v": 100
    },
    {
      "midi": 68,
      "hit": false,
      "t": 7885.711,
      "d": 339.28557291666675,
      "v": 100
    },
    {
      "midi": 32,
      "hit": false,
      "t": 8057.1395,
      "d": 339.28557291666675,
      "v": 106
    },
    {
      "midi": 63,
      "hit": false,
      "t": 8228.568000000001,
      "d": 510.7140729166658,
      "v": 100
    },
    {
      "midi": 70,
      "hit": false,
      "t": 8228.568000000001,
      "d": 510.7140729166658,
      "v": 100
    },
    {
      "midi": 39,
      "hit": false,
      "t": 8399.996500000001,
      "d": 167.85707291666586,
      "v": 106
    },
    {
      "midi": 41,
      "hit": false,
      "t": 8571.425000000001,
      "d": 167.85707291666586,
      "v": 106
    },
    {
      "midi": 60,
      "hit": false,
      "t": 8742.853500000001,
      "d": 682.1425729166658,
      "v": 100
    },
    {
      "midi": 68,
      "hit": false,
      "t": 8742.853500000001,
      "d": 682.1425729166658,
      "v": 100
    },
    {
      "midi": 32,
      "hit": false,
      "t": 8742.853500000001,
      "d": 167.85707291666586,
      "v": 106
    },
    {
      "midi": 39,
      "hit": false,
      "t": 8914.282000000001,
      "d": 167.85707291666586,
      "v": 106
    },
    {
      "midi": 41,
      "hit": false,
      "t": 9085.710500000001,
      "d": 339.28557291666584,
      "v": 106
    },
    {
      "midi": 60,
      "hit": false,
      "t": 9428.567500000001,
      "d": 339.28557291666584,
      "v": 100
    },
    {
      "midi": 68,
      "hit": false,
      "t": 9428.567500000001,
      "d": 339.28557291666584,
      "v": 100
    },
    {
      "midi": 32,
      "hit": false,
      "t": 9428.567500000001,
      "d": 339.28557291666584,
      "v": 106
    },
    {
      "midi": 63,
      "hit": false,
      "t": 9771.424500000001,
      "d": 167.85707291666586,
      "v": 100
    },
    {
      "midi": 70,
      "hit": false,
      "t": 9771.424500000001,
      "d": 167.85707291666586,
      "v": 100
    },
    {
      "midi": 39,
      "hit": false,
      "t": 9771.424500000001,
      "d": 167.85707291666586,
      "v": 106
    },
    {
      "midi": 68,
      "hit": false,
      "t": 9942.853000000001,
      "d": 339.28557291666584,
      "v": 100
    },
    {
      "midi": 72,
      "hit": false,
      "t": 9942.853000000001,
      "d": 339.28557291666584,
      "v": 100
    },
    {
      "midi": 44,
      "hit": false,
      "t": 9942.853000000001,
      "d": 167.85707291666586,
      "v": 106
    },
    {
      "midi": 32,
      "hit": false,
      "t": 10114.281500000001,
      "d": 167.85707291666586,
      "v": 106
    },
    {
      "midi": 68,
      "hit": false,
      "t": 10285.710000000001,
      "d": 1710.7135729166675,
      "v": 100
    },
    {
      "midi": 72,
      "hit": false,
      "t": 10285.710000000001,
      "d": 1710.7135729166675,
      "v": 100
    },
    {
      "midi": 39,
      "hit": false,
      "t": 10285.710000000001,
      "d": 167.85707291666586,
      "v": 106
    },
    {
      "midi": 44,
      "hit": false,
      "t": 10457.138500000001,
      "d": 339.28557291666584,
      "v": 106
    },
    {
      "midi": 32,
      "hit": false,
      "t": 10799.9955,
      "d": 339.28557291666584,
      "v": 106
    },
    {
      "midi": 39,
      "hit": false,
      "t": 11142.8525,
      "d": 167.85707291666586,
      "v": 106
    },
    {
      "midi": 41,
      "hit": false,
      "t": 11314.281,
      "d": 167.85707291666586,
      "v": 106
    },
    {
      "midi": 32,
      "hit": false,
      "t": 11485.7095,
      "d": 167.85707291666586,
      "v": 106
    },
    {
      "midi": 39,
      "hit": false,
      "t": 11657.138,
      "d": 167.85707291666586,
      "v": 106
    },
    {
      "midi": 41,
      "hit": false,
      "t": 11828.5665,
      "d": 339.28557291666584,
      "v": 106
    },
    {
      "midi": 32,
      "hit": false,
      "t": 12171.4235,
      "d": 339.28557291666584,
      "v": 106
    },
    {
      "midi": 60,
      "hit": false,
      "t": 12171.423500000003,
      "d": 339.28557291666584,
      "v": 100
    },
    {
      "midi": 68,
      "hit": false,
      "t": 12171.423500000003,
      "d": 339.28557291666584,
      "v": 100
    },
    {
      "midi": 39,
      "hit": false,
      "t": 12514.2805,
      "d": 167.85707291666586,
      "v": 106
    },
    {
      "midi": 63,
      "hit": false,
      "t": 12514.280500000003,
      "d": 167.85707291666586,
      "v": 100
    },
    {
      "midi": 70,
      "hit": false,
      "t": 12514.280500000003,
      "d": 167.85707291666586,
      "v": 100
    },
    {
      "midi": 44,
      "hit": false,
      "t": 12685.709,
      "d": 167.85707291666586,
      "v": 106
    },
    {
      "midi": 68,
      "hit": false,
      "t": 12685.709000000003,
      "d": 339.28557291666584,
      "v": 100
    },
    {
      "midi": 72,
      "hit": false,
      "t": 12685.709000000003,
      "d": 339.28557291666584,
      "v": 100
    },
    {
      "midi": 32,
      "hit": false,
      "t": 12857.1375,
      "d": 167.85707291666586,
      "v": 106
    },
    {
      "midi": 39,
      "hit": false,
      "t": 13028.566,
      "d": 167.85707291666586,
      "v": 106
    },
    {
      "midi": 68,
      "hit": false,
      "t": 13028.566000000003,
      "d": 167.85707291666586,
      "v": 100
    },
    {
      "midi": 72,
      "hit": false,
      "t": 13028.566000000003,
      "d": 167.85707291666586,
      "v": 100
    },
    {
      "midi": 44,
      "hit": false,
      "t": 13199.9945,
      "d": 339.28557291666584,
      "v": 106
    },
    {
      "midi": 63,
      "hit": false,
      "t": 13199.994500000003,
      "d": 167.85707291666586,
      "v": 100
    },
    {
      "midi": 70,
      "hit": false,
      "t": 13199.994500000003,
      "d": 167.85707291666586,
      "v": 100
    },
    {
      "midi": 60,
      "hit": false,
      "t": 13371.423000000003,
      "d": 339.28557291666584,
      "v": 100
    },
    {
      "midi": 68,
      "hit": false,
      "t": 13371.423000000003,
      "d": 339.28557291666584,
      "v": 100
    },
    {
      "midi": 32,
      "hit": false,
      "t": 13542.8515,
      "d": 339.28557291666584,
      "v": 106
    },
    {
      "midi": 63,
      "hit": false,
      "t": 13714.280000000002,
      "d": 510.7140729166658,
      "v": 100
    },
    {
      "midi": 70,
      "hit": false,
      "t": 13714.280000000002,
      "d": 510.7140729166658,
      "v": 100
    },
    {
      "midi": 39,
      "hit": false,
      "t": 13885.7085,
      "d": 167.85707291666586,
      "v": 106
    },
    {
      "midi": 41,
      "hit": false,
      "t": 14057.137,
      "d": 167.85707291666586,
      "v": 106
    },
    {
      "midi": 32,
      "hit": false,
      "t": 14228.5655,
      "d": 167.85707291666586,
      "v": 106
    },
    {
      "midi": 60,
      "hit": false,
      "t": 14228.565500000002,
      "d": 682.1425729166676,
      "v": 100
    },
    {
      "midi": 68,
      "hit": false,
      "t": 14228.565500000002,
      "d": 682.1425729166676,
      "v": 100
    },
    {
      "midi": 39,
      "hit": false,
      "t": 14399.994,
      "d": 167.85707291666586,
      "v": 106
    },
    {
      "midi": 41,
      "hit": false,
      "t": 14571.4225,
      "d": 339.28557291666584,
      "v": 106
    },
    {
      "midi": 35,
      "hit": false,
      "t": 14914.2795,
      "d": 339.28557291666584,
      "v": 106
    },
    {
      "midi": 63,
      "hit": false,
      "t": 14914.279500000004,
      "d": 682.1425729166658,
      "v": 100
    },
    {
      "midi": 68,
      "hit": false,
      "t": 14914.279500000004,
      "d": 682.1425729166658,
      "v": 100
    },
    {
      "midi": 42,
      "hit": false,
      "t": 15257.1365,
      "d": 167.85707291666586,
      "v": 106
    },
    {
      "midi": 47,
      "hit": false,
      "t": 15428.565,
      "d": 167.85707291666586,
      "v": 106
    },
    {
      "midi": 35,
      "hit": false,
      "t": 15599.9935,
      "d": 167.85707291666586,
      "v": 106
    },
    {
      "midi": 63,
      "hit": false,
      "t": 15599.993500000004,
      "d": 167.85707291666586,
      "v": 100
    },
    {
      "midi": 70,
      "hit": false,
      "t": 15599.993500000004,
      "d": 167.85707291666586,
      "v": 100
    },
    {
      "midi": 42,
      "hit": false,
      "t": 15771.422,
      "d": 167.85707291666586,
      "v": 106
    },
    {
      "midi": 63,
      "hit": false,
      "t": 15771.422000000004,
      "d": 1710.7135729166675,
      "v": 100
    },
    {
      "midi": 70,
      "hit": false,
      "t": 15771.422000000004,
      "d": 1710.7135729166675,
      "v": 100
    },
    {
      "midi": 47,
      "hit": false,
      "t": 15942.8505,
      "d": 339.28557291666584,
      "v": 106
    },
    {
      "midi": 35,
      "hit": false,
      "t": 16285.7075,
      "d": 339.28557291666584,
      "v": 106
    },
    {
      "midi": 42,
      "hit": false,
      "t": 16628.5645,
      "d": 167.85707291666768,
      "v": 106
    },
    {
      "midi": 44,
      "hit": false,
      "t": 16799.993000000002,
      "d": 167.85707291666768,
      "v": 106
    },
    {
      "midi": 35,
      "hit": false,
      "t": 16971.421500000004,
      "d": 167.85707291666768,
      "v": 106
    },
    {
      "midi": 42,
      "hit": false,
      "t": 17142.850000000006,
      "d": 167.85707291666768,
      "v": 106
    },
    {
      "midi": 44,
      "hit": false,
      "t": 17314.278500000008,
      "d": 339.28557291666584,
      "v": 106
    },
    {
      "midi": 60,
      "hit": false,
      "t": 17657.135500000004,
      "d": 682.1425729166658,
      "v": 100
    },
    {
      "midi": 68,
      "hit": false,
      "t": 17657.135500000004,
      "d": 682.1425729166658,
      "v": 100
    },
    {
      "midi": 32,
      "hit": false,
      "t": 17657.135500000008,
      "d": 339.28557291666584,
      "v": 106
    },
    {
      "midi": 39,
      "hit": false,
      "t": 17999.992500000008,
      "d": 167.85707291666768,
      "v": 106
    },
    {
      "midi": 44,
      "hit": false,
      "t": 18171.42100000001,
      "d": 167.85707291666768,
      "v": 106
    },
    {
      "midi": 63,
      "hit": false,
      "t": 18342.849500000004,
      "d": 167.85707291666768,
      "v": 100
    },
    {
      "midi": 70,
      "hit": false,
      "t": 18342.849500000004,
      "d": 167.85707291666768,
      "v": 100
    },
    {
      "midi": 32,
      "hit": false,
      "t": 18342.84950000001,
      "d": 167.85707291666768,
      "v": 106
    },
    {
      "midi": 63,
      "hit": false,
      "t": 18514.278000000006,
      "d": 1710.7135729166657,
      "v": 100
    },
    {
      "midi": 70,
      "hit": false,
      "t": 18514.278000000006,
      "d": 1710.7135729166657,
      "v": 100
    },
    {
      "midi": 39,
      "hit": false,
      "t": 18514.278000000013,
      "d": 167.85707291666768,
      "v": 106
    },
    {
      "midi": 44,
      "hit": false,
      "t": 18685.706500000015,
      "d": 339.28557291666584,
      "v": 106
    },
    {
      "midi": 32,
      "hit": false,
      "t": 19028.563500000015,
      "d": 339.28557291666584,
      "v": 106
    },
    {
      "midi": 39,
      "hit": false,
      "t": 19371.420500000015,
      "d": 167.85707291666768,
      "v": 106
    },
    {
      "midi": 41,
      "hit": false,
      "t": 19542.849000000017,
      "d": 167.85707291666768,
      "v": 106
    },
    {
      "midi": 32,
      "hit": false,
      "t": 19714.27750000002,
      "d": 167.85707291666768,
      "v": 106
    },
    {
      "midi": 39,
      "hit": false,
      "t": 19885.70600000002,
      "d": 167.85707291666768,
      "v": 106
    },
    {
      "midi": 41,
      "hit": false,
      "t": 20057.134500000022,
      "d": 339.28557291666584,
      "v": 106
    },
    {
      "midi": 60,
      "hit": false,
      "t": 20399.991500000004,
      "d": 339.28557291666584,
      "v": 100
    },
    {
      "midi": 68,
      "hit": false,
      "t": 20399.991500000004,
      "d": 339.28557291666584,
      "v": 100
    },
    {
      "midi": 32,
      "hit": false,
      "t": 20399.991500000022,
      "d": 339.28557291666584,
      "v": 106
    },
    {
      "midi": 63,
      "hit": false,
      "t": 20742.848500000004,
      "d": 167.85707291666768,
      "v": 100
    },
    {
      "midi": 70,
      "hit": false,
      "t": 20742.848500000004,
      "d": 167.85707291666768,
      "v": 100
    },
    {
      "midi": 39,
      "hit": false,
      "t": 20742.848500000022,
      "d": 167.85707291666768,
      "v": 106
    },
    {
      "midi": 68,
      "hit": false,
      "t": 20914.277000000006,
      "d": 339.28557291666584,
      "v": 100
    },
    {
      "midi": 72,
      "hit": false,
      "t": 20914.277000000006,
      "d": 339.28557291666584,
      "v": 100
    },
    {
      "midi": 44,
      "hit": false,
      "t": 20914.277000000024,
      "d": 167.85707291666768,
      "v": 106
    },
    {
      "midi": 32,
      "hit": false,
      "t": 21085.705500000025,
      "d": 167.85707291666768,
      "v": 106
    },
    {
      "midi": 68,
      "hit": false,
      "t": 21257.134000000005,
      "d": 167.85707291666768,
      "v": 100
    },
    {
      "midi": 72,
      "hit": false,
      "t": 21257.134000000005,
      "d": 167.85707291666768,
      "v": 100
    },
    {
      "midi": 39,
      "hit": false,
      "t": 21257.134000000027,
      "d": 167.85707291666768,
      "v": 106
    },
    {
      "midi": 63,
      "hit": false,
      "t": 21428.562500000007,
      "d": 167.85707291666768,
      "v": 100
    },
    {
      "midi": 70,
      "hit": false,
      "t": 21428.562500000007,
      "d": 167.85707291666768,
      "v": 100
    },
    {
      "midi": 44,
      "hit": false,
      "t": 21428.56250000003,
      "d": 339.28557291666584,
      "v": 106
    },
    {
      "midi": 60,
      "hit": false,
      "t": 21599.99100000001,
      "d": 339.28557291666584,
      "v": 100
    },
    {
      "midi": 68,
      "hit": false,
      "t": 21599.99100000001,
      "d": 339.28557291666584,
      "v": 100
    },
    {
      "midi": 32,
      "hit": false,
      "t": 21771.41950000003,
      "d": 339.28557291666584,
      "v": 106
    },
    {
      "midi": 63,
      "hit": false,
      "t": 21942.84800000001,
      "d": 510.71407291666765,
      "v": 100
    },
    {
      "midi": 70,
      "hit": false,
      "t": 21942.84800000001,
      "d": 510.71407291666765,
      "v": 100
    },
    {
      "midi": 39,
      "hit": false,
      "t": 22114.27650000003,
      "d": 167.85707291666768,
      "v": 106
    },
    {
      "midi": 41,
      "hit": false,
      "t": 22285.70500000003,
      "d": 167.85707291666768,
      "v": 106
    },
    {
      "midi": 60,
      "hit": false,
      "t": 22457.13350000001,
      "d": 682.1425729166658,
      "v": 100
    },
    {
      "midi": 68,
      "hit": false,
      "t": 22457.13350000001,
      "d": 682.1425729166658,
      "v": 100
    },
    {
      "midi": 32,
      "hit": false,
      "t": 22457.133500000033,
      "d": 167.85707291666768,
      "v": 106
    },
    {
      "midi": 39,
      "hit": false,
      "t": 22628.562000000034,
      "d": 167.85707291666768,
      "v": 106
    },
    {
      "midi": 41,
      "hit": false,
      "t": 22799.990500000036,
      "d": 339.28557291666584,
      "v": 106
    },
    {
      "midi": 60,
      "hit": false,
      "t": 23142.84750000001,
      "d": 339.28557291666584,
      "v": 100
    },
    {
      "midi": 68,
      "hit": false,
      "t": 23142.84750000001,
      "d": 339.28557291666584,
      "v": 100
    },
    {
      "midi": 32,
      "hit": false,
      "t": 23142.847500000036,
      "d": 339.28557291666584,
      "v": 106
    },
    {
      "midi": 63,
      "hit": false,
      "t": 23485.70450000001,
      "d": 167.85707291666768,
      "v": 100
    },
    {
      "midi": 70,
      "hit": false,
      "t": 23485.70450000001,
      "d": 167.85707291666768,
      "v": 100
    },
    {
      "midi": 39,
      "hit": false,
      "t": 23485.704500000036,
      "d": 167.85707291666768,
      "v": 106
    },
    {
      "midi": 68,
      "hit": false,
      "t": 23657.133000000013,
      "d": 339.28557291666584,
      "v": 100
    },
    {
      "midi": 72,
      "hit": false,
      "t": 23657.133000000013,
      "d": 339.28557291666584,
      "v": 100
    },
    {
      "midi": 44,
      "hit": false,
      "t": 23657.133000000038,
      "d": 167.85707291666768,
      "v": 106
    },
    {
      "midi": 32,
      "hit": false,
      "t": 23828.56150000004,
      "d": 167.85707291666768,
      "v": 106
    },
    {
      "midi": 68,
      "hit": false,
      "t": 23999.990000000013,
      "d": 1710.7135729166657,
      "v": 100
    },
    {
      "midi": 72,
      "hit": false,
      "t": 23999.990000000013,
      "d": 1710.7135729166657,
      "v": 100
    },
    {
      "midi": 39,
      "hit": false,
      "t": 23999.99000000004,
      "d": 167.85707291666768,
      "v": 106
    },
    {
      "midi": 44,
      "hit": false,
      "t": 24171.418500000043,
      "d": 339.28557291666584,
      "v": 106
    },
    {
      "midi": 32,
      "hit": false,
      "t": 24514.275500000043,
      "d": 339.28557291666584,
      "v": 106
    },
    {
      "midi": 39,
      "hit": false,
      "t": 24857.132500000043,
      "d": 167.85707291666768,
      "v": 106
    },
    {
      "midi": 41,
      "hit": false,
      "t": 25028.561000000045,
      "d": 167.85707291666768,
      "v": 106
    },
    {
      "midi": 32,
      "hit": false,
      "t": 25199.989500000047,
      "d": 167.85707291666768,
      "v": 106
    },
    {
      "midi": 39,
      "hit": false,
      "t": 25371.41800000005,
      "d": 167.85707291666768,
      "v": 106
    },
    {
      "midi": 41,
      "hit": false,
      "t": 25542.84650000005,
      "d": 339.28557291666584,
      "v": 106
    },
    {
      "midi": 60,
      "hit": false,
      "t": 25885.70350000001,
      "d": 339.28557291666584,
      "v": 100
    },
    {
      "midi": 68,
      "hit": false,
      "t": 25885.70350000001,
      "d": 339.28557291666584,
      "v": 100
    },
    {
      "midi": 32,
      "hit": false,
      "t": 25885.70350000005,
      "d": 339.28557291666584,
      "v": 106
    },
    {
      "midi": 63,
      "hit": false,
      "t": 26228.56050000001,
      "d": 167.85707291666768,
      "v": 100
    },
    {
      "midi": 70,
      "hit": false,
      "t": 26228.56050000001,
      "d": 167.85707291666768,
      "v": 100
    },
    {
      "midi": 39,
      "hit": false,
      "t": 26228.56050000005,
      "d": 167.85707291666768,
      "v": 106
    },
    {
      "midi": 68,
      "hit": false,
      "t": 26399.989000000012,
      "d": 339.28557291666584,
      "v": 100
    },
    {
      "midi": 72,
      "hit": false,
      "t": 26399.989000000012,
      "d": 339.28557291666584,
      "v": 100
    },
    {
      "midi": 44,
      "hit": false,
      "t": 26399.989000000052,
      "d": 167.85707291666768,
      "v": 106
    },
    {
      "midi": 32,
      "hit": false,
      "t": 26571.417500000054,
      "d": 167.85707291666768,
      "v": 106
    },
    {
      "midi": 68,
      "hit": false,
      "t": 26742.846000000012,
      "d": 167.85707291666768,
      "v": 100
    },
    {
      "midi": 72,
      "hit": false,
      "t": 26742.846000000012,
      "d": 167.85707291666768,
      "v": 100
    },
    {
      "midi": 39,
      "hit": false,
      "t": 26742.846000000056,
      "d": 167.85707291666768,
      "v": 106
    },
    {
      "midi": 63,
      "hit": false,
      "t": 26914.274500000014,
      "d": 167.85707291666768,
      "v": 100
    },
    {
      "midi": 70,
      "hit": false,
      "t": 26914.274500000014,
      "d": 167.85707291666768,
      "v": 100
    },
    {
      "midi": 44,
      "hit": false,
      "t": 26914.274500000058,
      "d": 339.28557291666584,
      "v": 106
    },
    {
      "midi": 60,
      "hit": false,
      "t": 27085.703000000016,
      "d": 339.28557291666584,
      "v": 100
    },
    {
      "midi": 68,
      "hit": false,
      "t": 27085.703000000016,
      "d": 339.28557291666584,
      "v": 100
    },
    {
      "midi": 32,
      "hit": false,
      "t": 27257.131500000058,
      "d": 339.28557291666584,
      "v": 106
    },
    {
      "midi": 63,
      "hit": false,
      "t": 27428.560000000016,
      "d": 510.71407291666765,
      "v": 100
    },
    {
      "midi": 70,
      "hit": false,
      "t": 27428.560000000016,
      "d": 510.71407291666765,
      "v": 100
    },
    {
      "midi": 39,
      "hit": false,
      "t": 27599.988500000058,
      "d": 167.85707291666768,
      "v": 106
    },
    {
      "midi": 41,
      "hit": false,
      "t": 27771.41700000006,
      "d": 167.85707291666768,
      "v": 106
    },
    {
      "midi": 60,
      "hit": false,
      "t": 27942.845500000018,
      "d": 682.1425729166658,
      "v": 100
    },
    {
      "midi": 68,
      "hit": false,
      "t": 27942.845500000018,
      "d": 682.1425729166658,
      "v": 100
    },
    {
      "midi": 32,
      "hit": false,
      "t": 27942.84550000006,
      "d": 167.85707291666768,
      "v": 106
    },
    {
      "midi": 39,
      "hit": false,
      "t": 28114.274000000063,
      "d": 167.85707291666768,
      "v": 106
    },
    {
      "midi": 41,
      "hit": false,
      "t": 28285.702500000065,
      "d": 339.28557291666584,
      "v": 106
    },
    {
      "midi": 63,
      "hit": false,
      "t": 28628.559500000018,
      "d": 682.1425729166658,
      "v": 100
    },
    {
      "midi": 68,
      "hit": false,
      "t": 28628.559500000018,
      "d": 682.1425729166658,
      "v": 100
    },
    {
      "midi": 35,
      "hit": false,
      "t": 28628.559500000065,
      "d": 339.28557291666584,
      "v": 106
    },
    {
      "midi": 42,
      "hit": false,
      "t": 28971.416500000065,
      "d": 167.85707291666768,
      "v": 106
    },
    {
      "midi": 47,
      "hit": false,
      "t": 29142.845000000067,
      "d": 167.85707291666768,
      "v": 106
    },
    {
      "midi": 63,
      "hit": false,
      "t": 29314.273500000018,
      "d": 167.85707291666768,
      "v": 100
    },
    {
      "midi": 70,
      "hit": false,
      "t": 29314.273500000018,
      "d": 167.85707291666768,
      "v": 100
    },
    {
      "midi": 35,
      "hit": false,
      "t": 29314.27350000007,
      "d": 167.85707291666768,
      "v": 106
    },
    {
      "midi": 63,
      "hit": false,
      "t": 29485.70200000002,
      "d": 1710.7135729166657,
      "v": 100
    },
    {
      "midi": 70,
      "hit": false,
      "t": 29485.70200000002,
      "d": 1710.7135729166657,
      "v": 100
    },
    {
      "midi": 42,
      "hit": false,
      "t": 29485.70200000007,
      "d": 167.85707291666768,
      "v": 106
    },
    {
      "midi": 47,
      "hit": false,
      "t": 29657.130500000072,
      "d": 339.28557291666584,
      "v": 106
    },
    {
      "midi": 35,
      "hit": false,
      "t": 29999.987500000072,
      "d": 339.28557291666584,
      "v": 106
    },
    {
      "midi": 42,
      "hit": false,
      "t": 30342.844500000072,
      "d": 167.85707291666768,
      "v": 106
    },
    {
      "midi": 44,
      "hit": false,
      "t": 30514.273000000074,
      "d": 167.85707291666768,
      "v": 106
    },
    {
      "midi": 35,
      "hit": false,
      "t": 30685.701500000076,
      "d": 167.85707291666768,
      "v": 106
    },
    {
      "midi": 42,
      "hit": false,
      "t": 30857.130000000077,
      "d": 167.85707291666768,
      "v": 106
    },
    {
      "midi": 44,
      "hit": false,
      "t": 31028.55850000008,
      "d": 339.28557291666584,
      "v": 106
    },
    {
      "midi": 60,
      "hit": false,
      "t": 31371.415500000017,
      "d": 682.1425729166658,
      "v": 100
    },
    {
      "midi": 68,
      "hit": false,
      "t": 31371.415500000017,
      "d": 682.1425729166658,
      "v": 100
    },
    {
      "midi": 32,
      "hit": false,
      "t": 31371.41550000008,
      "d": 339.28557291666584,
      "v": 106
    },
    {
      "midi": 39,
      "hit": false,
      "t": 31714.27250000008,
      "d": 167.85707291666768,
      "v": 106
    },
    {
      "midi": 44,
      "hit": false,
      "t": 31885.70100000008,
      "d": 167.85707291666768,
      "v": 106
    },
    {
      "midi": 63,
      "hit": false,
      "t": 32057.129500000017,
      "d": 167.85707291666768,
      "v": 100
    },
    {
      "midi": 70,
      "hit": false,
      "t": 32057.129500000017,
      "d": 167.85707291666768,
      "v": 100
    },
    {
      "midi": 32,
      "hit": false,
      "t": 32057.129500000083,
      "d": 167.85707291666768,
      "v": 106
    },
    {
      "midi": 63,
      "hit": false,
      "t": 32228.55800000002,
      "d": 1710.7135729166694,
      "v": 100
    },
    {
      "midi": 70,
      "hit": false,
      "t": 32228.55800000002,
      "d": 1710.7135729166694,
      "v": 100
    },
    {
      "midi": 39,
      "hit": false,
      "t": 32228.558000000085,
      "d": 167.85707291666768,
      "v": 106
    },
    {
      "midi": 44,
      "hit": false,
      "t": 32399.986500000086,
      "d": 339.28557291666584,
      "v": 106
    },
    {
      "midi": 32,
      "hit": false,
      "t": 32742.843500000086,
      "d": 339.28557291666584,
      "v": 106
    },
    {
      "midi": 39,
      "hit": false,
      "t": 33085.700500000086,
      "d": 167.85707291666768,
      "v": 106
    },
    {
      "midi": 41,
      "hit": false,
      "t": 33257.12900000009,
      "d": 167.85707291666768,
      "v": 106
    },
    {
      "midi": 32,
      "hit": false,
      "t": 33428.55750000009,
      "d": 167.85707291666768,
      "v": 106
    },
    {
      "midi": 39,
      "hit": false,
      "t": 33599.98600000009,
      "d": 167.85707291666768,
      "v": 106
    },
    {
      "midi": 41,
      "hit": false,
      "t": 33771.41450000009,
      "d": 339.2855729166695,
      "v": 106
    },
    {
      "midi": 68,
      "hit": false,
      "t": 34114.271500000024,
      "d": 167.85707291666768,
      "v": 100
    },
    {
      "midi": 32,
      "hit": false,
      "t": 34114.2715000001,
      "d": 167.85707291666768,
      "v": 106
    },
    {
      "midi": 49,
      "hit": false,
      "t": 34285.700000000026,
      "d": 167.85707291666768,
      "v": 100
    },
    {
      "midi": 73,
      "hit": false,
      "t": 34285.700000000026,
      "d": 167.85707291666768,
      "v": 100
    },
    {
      "midi": 77,
      "hit": false,
      "t": 34285.700000000026,
      "d": 167.85707291666768,
      "v": 100
    },
    {
      "midi": 80,
      "hit": false,
      "t": 34285.700000000026,
      "d": 167.85707291666768,
      "v": 100
    },
    {
      "midi": 85,
      "hit": false,
      "t": 34285.700000000026,
      "d": 167.85707291666768,
      "v": 100
    },
    {
      "midi": 37,
      "hit": false,
      "t": 34285.7000000001,
      "d": 167.85707291666768,
      "v": 106
    },
    {
      "midi": 49,
      "hit": false,
      "t": 34457.12850000003,
      "d": 167.85707291666768,
      "v": 100
    },
    {
      "midi": 73,
      "hit": false,
      "t": 34457.12850000003,
      "d": 167.85707291666768,
      "v": 100
    },
    {
      "midi": 77,
      "hit": false,
      "t": 34457.12850000003,
      "d": 167.85707291666768,
      "v": 100
    },
    {
      "midi": 80,
      "hit": false,
      "t": 34457.12850000003,
      "d": 167.85707291666768,
      "v": 100
    },
    {
      "midi": 85,
      "hit": false,
      "t": 34457.12850000003,
      "d": 167.85707291666768,
      "v": 100
    },
    {
      "midi": 37,
      "hit": false,
      "t": 34457.1285000001,
      "d": 167.85707291666768,
      "v": 106
    },
    {
      "midi": 49,
      "hit": false,
      "t": 34628.55700000003,
      "d": 167.85707291666768,
      "v": 100
    },
    {
      "midi": 73,
      "hit": false,
      "t": 34628.55700000003,
      "d": 167.85707291666768,
      "v": 100
    },
    {
      "midi": 77,
      "hit": false,
      "t": 34628.55700000003,
      "d": 167.85707291666768,
      "v": 100
    },
    {
      "midi": 80,
      "hit": false,
      "t": 34628.55700000003,
      "d": 167.85707291666768,
      "v": 100
    },
    {
      "midi": 85,
      "hit": false,
      "t": 34628.55700000003,
      "d": 167.85707291666768,
      "v": 100
    },
    {
      "midi": 37,
      "hit": false,
      "t": 34628.5570000001,
      "d": 167.85707291666768,
      "v": 106
    },
    {
      "midi": 51,
      "hit": false,
      "t": 34799.98550000003,
      "d": 167.85707291666768,
      "v": 100
    },
    {
      "midi": 75,
      "hit": false,
      "t": 34799.98550000003,
      "d": 167.85707291666768,
      "v": 100
    },
    {
      "midi": 80,
      "hit": false,
      "t": 34799.98550000003,
      "d": 167.85707291666768,
      "v": 100
    },
    {
      "midi": 87,
      "hit": false,
      "t": 34799.98550000003,
      "d": 167.85707291666768,
      "v": 100
    },
    {
      "midi": 39,
      "hit": false,
      "t": 34799.985500000104,
      "d": 167.85707291666768,
      "v": 106
    },
    {
      "midi": 75,
      "hit": false,
      "t": 35142.842500000035,
      "d": 167.85707291666768,
      "v": 100
    },
    {
      "midi": 80,
      "hit": false,
      "t": 35142.842500000035,
      "d": 167.85707291666768,
      "v": 100
    },
    {
      "midi": 77,
      "hit": false,
      "t": 35314.27100000004,
      "d": 167.85707291666768,
      "v": 100
    },
    {
      "midi": 77,
      "hit": false,
      "t": 35485.69950000004,
      "d": 167.85707291666768,
      "v": 100
    },
    {
      "midi": 80,
      "hit": false,
      "t": 35485.69950000004,
      "d": 167.85707291666768,
      "v": 100
    },
    {
      "midi": 75,
      "hit": false,
      "t": 35657.12800000004,
      "d": 167.85707291666768,
      "v": 100
    },
    {
      "midi": 80,
      "hit": false,
      "t": 35657.12800000004,
      "d": 167.85707291666768,
      "v": 100
    },
    {
      "midi": 77,
      "hit": false,
      "t": 35828.55650000004,
      "d": 167.85707291666768,
      "v": 100
    },
    {
      "midi": 77,
      "hit": false,
      "t": 35999.985000000044,
      "d": 167.85707291666768,
      "v": 100
    },
    {
      "midi": 80,
      "hit": false,
      "t": 35999.985000000044,
      "d": 167.85707291666768,
      "v": 100
    },
    {
      "midi": 75,
      "hit": false,
      "t": 36171.413500000046,
      "d": 167.85707291666768,
      "v": 100
    },
    {
      "midi": 80,
      "hit": false,
      "t": 36171.413500000046,
      "d": 167.85707291666768,
      "v": 100
    },
    {
      "midi": 77,
      "hit": false,
      "t": 36342.84200000005,
      "d": 167.85707291666768,
      "v": 100
    },
    {
      "midi": 80,
      "hit": false,
      "t": 36342.84200000005,
      "d": 167.85707291666768,
      "v": 100
    },
    {
      "midi": 77,
      "hit": false,
      "t": 36514.27050000005,
      "d": 167.85707291666768,
      "v": 100
    },
    {
      "midi": 80,
      "hit": false,
      "t": 36514.27050000005,
      "d": 167.85707291666768,
      "v": 100
    },
    {
      "midi": 75,
      "hit": false,
      "t": 36685.69900000005,
      "d": 339.2855729166695,
      "v": 100
    },
    {
      "midi": 80,
      "hit": false,
      "t": 36685.69900000005,
      "d": 339.2855729166695,
      "v": 100
    },
    {
      "midi": 53,
      "hit": false,
      "t": 36857.12750000005,
      "d": 167.85707291666768,
      "v": 100
    },
    {
      "midi": 41,
      "hit": false,
      "t": 36857.127500000104,
      "d": 167.85707291666768,
      "v": 106
    },
    {
      "midi": 49,
      "hit": false,
      "t": 37028.556000000055,
      "d": 167.85707291666768,
      "v": 100
    },
    {
      "midi": 73,
      "hit": false,
      "t": 37028.556000000055,
      "d": 167.85707291666768,
      "v": 100
    },
    {
      "midi": 77,
      "hit": false,
      "t": 37028.556000000055,
      "d": 167.85707291666768,
      "v": 100
    },
    {
      "midi": 80,
      "hit": false,
      "t": 37028.556000000055,
      "d": 167.85707291666768,
      "v": 100
    },
    {
      "midi": 85,
      "hit": false,
      "t": 37028.556000000055,
      "d": 167.85707291666768,
      "v": 100
    },
    {
      "midi": 37,
      "hit": false,
      "t": 37028.556000000106,
      "d": 167.85707291666768,
      "v": 106
    },
    {
      "midi": 49,
      "hit": false,
      "t": 37199.98450000006,
      "d": 167.85707291666768,
      "v": 100
    },
    {
      "midi": 73,
      "hit": false,
      "t": 37199.98450000006,
      "d": 167.85707291666768,
      "v": 100
    },
    {
      "midi": 77,
      "hit": false,
      "t": 37199.98450000006,
      "d": 167.85707291666768,
      "v": 100
    },
    {
      "midi": 80,
      "hit": false,
      "t": 37199.98450000006,
      "d": 167.85707291666768,
      "v": 100
    },
    {
      "midi": 85,
      "hit": false,
      "t": 37199.98450000006,
      "d": 167.85707291666768,
      "v": 100
    },
    {
      "midi": 37,
      "hit": false,
      "t": 37199.98450000011,
      "d": 167.85707291666768,
      "v": 106
    },
    {
      "midi": 49,
      "hit": false,
      "t": 37371.41300000006,
      "d": 167.85707291666768,
      "v": 100
    },
    {
      "midi": 73,
      "hit": false,
      "t": 37371.41300000006,
      "d": 167.85707291666768,
      "v": 100
    },
    {
      "midi": 77,
      "hit": false,
      "t": 37371.41300000006,
      "d": 167.85707291666768,
      "v": 100
    },
    {
      "midi": 80,
      "hit": false,
      "t": 37371.41300000006,
      "d": 167.85707291666768,
      "v": 100
    },
    {
      "midi": 85,
      "hit": false,
      "t": 37371.41300000006,
      "d": 167.85707291666768,
      "v": 100
    },
    {
      "midi": 37,
      "hit": false,
      "t": 37371.41300000011,
      "d": 167.85707291666768,
      "v": 106
    },
    {
      "midi": 51,
      "hit": false,
      "t": 37542.84150000006,
      "d": 167.85707291666768,
      "v": 100
    },
    {
      "midi": 75,
      "hit": false,
      "t": 37542.84150000006,
      "d": 167.85707291666768,
      "v": 100
    },
    {
      "midi": 80,
      "hit": false,
      "t": 37542.84150000006,
      "d": 167.85707291666768,
      "v": 100
    },
    {
      "midi": 87,
      "hit": false,
      "t": 37542.84150000006,
      "d": 167.85707291666768,
      "v": 100
    },
    {
      "midi": 39,
      "hit": false,
      "t": 37542.84150000011,
      "d": 167.85707291666768,
      "v": 106
    },
    {
      "midi": 75,
      "hit": false,
      "t": 37885.698500000064,
      "d": 167.85707291666768,
      "v": 100
    },
    {
      "midi": 80,
      "hit": false,
      "t": 37885.698500000064,
      "d": 167.85707291666768,
      "v": 100
    },
    {
      "midi": 77,
      "hit": false,
      "t": 38057.127000000066,
      "d": 167.85707291666768,
      "v": 100
    },
    {
      "midi": 77,
      "hit": false,
      "t": 38228.55550000007,
      "d": 167.85707291666768,
      "v": 100
    },
    {
      "midi": 80,
      "hit": false,
      "t": 38228.55550000007,
      "d": 167.85707291666768,
      "v": 100
    },
    {
      "midi": 75,
      "hit": false,
      "t": 38399.98400000007,
      "d": 167.85707291666768,
      "v": 100
    },
    {
      "midi": 80,
      "hit": false,
      "t": 38399.98400000007,
      "d": 167.85707291666768,
      "v": 100
    },
    {
      "midi": 77,
      "hit": false,
      "t": 38571.41250000007,
      "d": 167.85707291666768,
      "v": 100
    },
    {
      "midi": 77,
      "hit": false,
      "t": 38742.84100000007,
      "d": 167.85707291666768,
      "v": 100
    },
    {
      "midi": 80,
      "hit": false,
      "t": 38742.84100000007,
      "d": 167.85707291666768,
      "v": 100
    },
    {
      "midi": 75,
      "hit": false,
      "t": 38914.269500000075,
      "d": 167.85707291666768,
      "v": 100
    },
    {
      "midi": 80,
      "hit": false,
      "t": 38914.269500000075,
      "d": 167.85707291666768,
      "v": 100
    },
    {
      "midi": 77,
      "hit": false,
      "t": 39085.69800000008,
      "d": 167.85707291666768,
      "v": 100
    },
    {
      "midi": 80,
      "hit": false,
      "t": 39085.69800000008,
      "d": 167.85707291666768,
      "v": 100
    },
    {
      "midi": 77,
      "hit": false,
      "t": 39257.12650000008,
      "d": 167.85707291666768,
      "v": 100
    },
    {
      "midi": 80,
      "hit": false,
      "t": 39257.12650000008,
      "d": 167.85707291666768,
      "v": 100
    },
    {
      "midi": 75,
      "hit": false,
      "t": 39428.55500000008,
      "d": 339.2855729166695,
      "v": 100
    },
    {
      "midi": 80,
      "hit": false,
      "t": 39428.55500000008,
      "d": 339.2855729166695,
      "v": 100
    },
    {
      "midi": 53,
      "hit": false,
      "t": 39599.98350000008,
      "d": 167.85707291666768,
      "v": 100
    },
    {
      "midi": 41,
      "hit": false,
      "t": 39599.98350000011,
      "d": 167.85707291666768,
      "v": 106
    },
    {
      "midi": 49,
      "hit": false,
      "t": 39771.412000000084,
      "d": 167.85707291666768,
      "v": 100
    },
    {
      "midi": 73,
      "hit": false,
      "t": 39771.412000000084,
      "d": 167.85707291666768,
      "v": 100
    },
    {
      "midi": 77,
      "hit": false,
      "t": 39771.412000000084,
      "d": 167.85707291666768,
      "v": 100
    },
    {
      "midi": 80,
      "hit": false,
      "t": 39771.412000000084,
      "d": 167.85707291666768,
      "v": 100
    },
    {
      "midi": 85,
      "hit": false,
      "t": 39771.412000000084,
      "d": 167.85707291666768,
      "v": 100
    },
    {
      "midi": 37,
      "hit": false,
      "t": 39771.41200000011,
      "d": 167.85707291666768,
      "v": 106
    },
    {
      "midi": 49,
      "hit": false,
      "t": 39942.840500000086,
      "d": 167.85707291666768,
      "v": 100
    },
    {
      "midi": 73,
      "hit": false,
      "t": 39942.840500000086,
      "d": 167.85707291666768,
      "v": 100
    },
    {
      "midi": 77,
      "hit": false,
      "t": 39942.840500000086,
      "d": 167.85707291666768,
      "v": 100
    },
    {
      "midi": 80,
      "hit": false,
      "t": 39942.840500000086,
      "d": 167.85707291666768,
      "v": 100
    },
    {
      "midi": 85,
      "hit": false,
      "t": 39942.840500000086,
      "d": 167.85707291666768,
      "v": 100
    },
    {
      "midi": 37,
      "hit": false,
      "t": 39942.840500000115,
      "d": 167.85707291666768,
      "v": 106
    },
    {
      "midi": 49,
      "hit": false,
      "t": 40114.26900000009,
      "d": 167.85707291666768,
      "v": 100
    },
    {
      "midi": 73,
      "hit": false,
      "t": 40114.26900000009,
      "d": 167.85707291666768,
      "v": 100
    },
    {
      "midi": 77,
      "hit": false,
      "t": 40114.26900000009,
      "d": 167.85707291666768,
      "v": 100
    },
    {
      "midi": 80,
      "hit": false,
      "t": 40114.26900000009,
      "d": 167.85707291666768,
      "v": 100
    },
    {
      "midi": 85,
      "hit": false,
      "t": 40114.26900000009,
      "d": 167.85707291666768,
      "v": 100
    },
    {
      "midi": 37,
      "hit": false,
      "t": 40114.26900000012,
      "d": 167.85707291666768,
      "v": 106
    },
    {
      "midi": 51,
      "hit": false,
      "t": 40285.69750000009,
      "d": 167.85707291666768,
      "v": 100
    },
    {
      "midi": 75,
      "hit": false,
      "t": 40285.69750000009,
      "d": 167.85707291666768,
      "v": 100
    },
    {
      "midi": 80,
      "hit": false,
      "t": 40285.69750000009,
      "d": 167.85707291666768,
      "v": 100
    },
    {
      "midi": 87,
      "hit": false,
      "t": 40285.69750000009,
      "d": 167.85707291666768,
      "v": 100
    },
    {
      "midi": 39,
      "hit": false,
      "t": 40285.69750000012,
      "d": 167.85707291666768,
      "v": 106
    },
    {
      "midi": 75,
      "hit": false,
      "t": 40628.55450000009,
      "d": 167.85707291666768,
      "v": 100
    },
    {
      "midi": 80,
      "hit": false,
      "t": 40628.55450000009,
      "d": 167.85707291666768,
      "v": 100
    },
    {
      "midi": 77,
      "hit": false,
      "t": 40799.983000000095,
      "d": 167.85707291666768,
      "v": 100
    },
    {
      "midi": 77,
      "hit": false,
      "t": 40971.4115000001,
      "d": 167.85707291666768,
      "v": 100
    },
    {
      "midi": 80,
      "hit": false,
      "t": 40971.4115000001,
      "d": 167.85707291666768,
      "v": 100
    },
    {
      "midi": 75,
      "hit": false,
      "t": 41142.8400000001,
      "d": 167.85707291666768,
      "v": 100
    },
    {
      "midi": 80,
      "hit": false,
      "t": 41142.8400000001,
      "d": 167.85707291666768,
      "v": 100
    },
    {
      "midi": 77,
      "hit": false,
      "t": 41314.2685000001,
      "d": 167.85707291666768,
      "v": 100
    },
    {
      "midi": 77,
      "hit": false,
      "t": 41485.6970000001,
      "d": 167.85707291666768,
      "v": 100
    },
    {
      "midi": 80,
      "hit": false,
      "t": 41485.6970000001,
      "d": 167.85707291666768,
      "v": 100
    },
    {
      "midi": 75,
      "hit": false,
      "t": 41657.125500000104,
      "d": 167.85707291666768,
      "v": 100
    },
    {
      "midi": 80,
      "hit": false,
      "t": 41657.125500000104,
      "d": 167.85707291666768,
      "v": 100
    },
    {
      "midi": 77,
      "hit": false,
      "t": 41828.554000000106,
      "d": 167.85707291666768,
      "v": 100
    },
    {
      "midi": 80,
      "hit": false,
      "t": 41828.554000000106,
      "d": 167.85707291666768,
      "v": 100
    },
    {
      "midi": 77,
      "hit": false,
      "t": 41999.98250000011,
      "d": 167.85707291666768,
      "v": 100
    },
    {
      "midi": 80,
      "hit": false,
      "t": 41999.98250000011,
      "d": 167.85707291666768,
      "v": 100
    },
    {
      "midi": 75,
      "hit": false,
      "t": 42171.41100000011,
      "d": 339.2855729166695,
      "v": 100
    },
    {
      "midi": 80,
      "hit": false,
      "t": 42171.41100000011,
      "d": 339.2855729166695,
      "v": 100
    },
    {
      "midi": 39,
      "hit": false,
      "t": 42342.83950000012,
      "d": 167.85707291666768,
      "v": 106
    },
    {
      "midi": 63,
      "hit": false,
      "t": 42514.26800000011,
      "d": 2396.4275729166693,
      "v": 100
    },
    {
      "midi": 68,
      "hit": false,
      "t": 42514.26800000011,
      "d": 2396.4275729166693,
      "v": 100
    },
    {
      "midi": 32,
      "hit": false,
      "t": 42514.26800000012,
      "d": 167.85707291666768,
      "v": 106
    },
    {
      "midi": 39,
      "hit": false,
      "t": 42685.69650000012,
      "d": 167.85707291666768,
      "v": 106
    },
    {
      "midi": 44,
      "hit": false,
      "t": 42857.125000000124,
      "d": 167.85707291666768,
      "v": 106
    },
    {
      "midi": 32,
      "hit": false,
      "t": 43028.553500000125,
      "d": 167.85707291666768,
      "v": 106
    },
    {
      "midi": 39,
      "hit": false,
      "t": 43199.98200000013,
      "d": 167.85707291666768,
      "v": 106
    },
    {
      "midi": 44,
      "hit": false,
      "t": 43371.41050000013,
      "d": 339.2855729166695,
      "v": 106
    },
    {
      "midi": 32,
      "hit": false,
      "t": 43714.26750000013,
      "d": 339.2855729166695,
      "v": 106
    },
    {
      "midi": 39,
      "hit": false,
      "t": 44057.124500000136,
      "d": 167.85707291666768,
      "v": 106
    },
    {
      "midi": 41,
      "hit": false,
      "t": 44228.55300000014,
      "d": 167.85707291666768,
      "v": 106
    },
    {
      "midi": 32,
      "hit": false,
      "t": 44399.98150000014,
      "d": 167.85707291666768,
      "v": 106
    },
    {
      "midi": 39,
      "hit": false,
      "t": 44571.41000000014,
      "d": 167.85707291666768,
      "v": 106
    },
    {
      "midi": 41,
      "hit": false,
      "t": 44742.83850000014,
      "d": 339.2855729166695,
      "v": 106
    },
    {
      "midi": 60,
      "hit": false,
      "t": 45085.69550000012,
      "d": 339.2855729166695,
      "v": 100
    },
    {
      "midi": 68,
      "hit": false,
      "t": 45085.69550000012,
      "d": 339.2855729166695,
      "v": 100
    },
    {
      "midi": 32,
      "hit": false,
      "t": 45085.69550000015,
      "d": 339.2855729166695,
      "v": 106
    },
    {
      "midi": 63,
      "hit": false,
      "t": 45428.55250000012,
      "d": 167.85707291666768,
      "v": 100
    },
    {
      "midi": 70,
      "hit": false,
      "t": 45428.55250000012,
      "d": 167.85707291666768,
      "v": 100
    },
    {
      "midi": 39,
      "hit": false,
      "t": 45428.55250000015,
      "d": 167.85707291666768,
      "v": 106
    },
    {
      "midi": 68,
      "hit": false,
      "t": 45599.98100000012,
      "d": 339.2855729166695,
      "v": 100
    },
    {
      "midi": 72,
      "hit": false,
      "t": 45599.98100000012,
      "d": 339.2855729166695,
      "v": 100
    },
    {
      "midi": 44,
      "hit": false,
      "t": 45599.98100000015,
      "d": 167.85707291666768,
      "v": 106
    },
    {
      "midi": 32,
      "hit": false,
      "t": 45771.409500000154,
      "d": 167.85707291666768,
      "v": 106
    },
    {
      "midi": 68,
      "hit": false,
      "t": 45942.83800000013,
      "d": 167.85707291666768,
      "v": 100
    },
    {
      "midi": 72,
      "hit": false,
      "t": 45942.83800000013,
      "d": 167.85707291666768,
      "v": 100
    },
    {
      "midi": 39,
      "hit": false,
      "t": 45942.838000000156,
      "d": 167.85707291666768,
      "v": 106
    },
    {
      "midi": 63,
      "hit": false,
      "t": 46114.26650000013,
      "d": 167.85707291666768,
      "v": 100
    },
    {
      "midi": 70,
      "hit": false,
      "t": 46114.26650000013,
      "d": 167.85707291666768,
      "v": 100
    },
    {
      "midi": 44,
      "hit": false,
      "t": 46114.26650000016,
      "d": 339.2855729166695,
      "v": 106
    },
    {
      "midi": 60,
      "hit": false,
      "t": 46285.69500000013,
      "d": 339.2855729166695,
      "v": 100
    },
    {
      "midi": 68,
      "hit": false,
      "t": 46285.69500000013,
      "d": 339.2855729166695,
      "v": 100
    },
    {
      "midi": 32,
      "hit": false,
      "t": 46457.12350000016,
      "d": 339.2855729166695,
      "v": 106
    },
    {
      "midi": 63,
      "hit": false,
      "t": 46628.552000000134,
      "d": 510.714072916664,
      "v": 100
    },
    {
      "midi": 70,
      "hit": false,
      "t": 46628.552000000134,
      "d": 510.714072916664,
      "v": 100
    },
    {
      "midi": 39,
      "hit": false,
      "t": 46799.980500000165,
      "d": 167.85707291666768,
      "v": 106
    },
    {
      "midi": 41,
      "hit": false,
      "t": 46971.40900000017,
      "d": 167.85707291666768,
      "v": 106
    },
    {
      "midi": 60,
      "hit": false,
      "t": 47142.83750000013,
      "d": 682.1425729166658,
      "v": 100
    },
    {
      "midi": 68,
      "hit": false,
      "t": 47142.83750000013,
      "d": 682.1425729166658,
      "v": 100
    },
    {
      "midi": 32,
      "hit": false,
      "t": 47142.83750000017,
      "d": 167.85707291666768,
      "v": 106
    },
    {
      "midi": 39,
      "hit": false,
      "t": 47314.26600000017,
      "d": 167.85707291666768,
      "v": 106
    },
    {
      "midi": 41,
      "hit": false,
      "t": 47485.69450000017,
      "d": 339.2855729166695,
      "v": 106
    },
    {
      "midi": 60,
      "hit": false,
      "t": 47828.55150000013,
      "d": 339.2855729166695,
      "v": 100
    },
    {
      "midi": 68,
      "hit": false,
      "t": 47828.55150000013,
      "d": 339.2855729166695,
      "v": 100
    },
    {
      "midi": 32,
      "hit": false,
      "t": 47828.551500000176,
      "d": 339.2855729166695,
      "v": 106
    },
    {
      "midi": 63,
      "hit": false,
      "t": 48171.408500000136,
      "d": 167.85707291666768,
      "v": 100
    },
    {
      "midi": 70,
      "hit": false,
      "t": 48171.408500000136,
      "d": 167.85707291666768,
      "v": 100
    },
    {
      "midi": 39,
      "hit": false,
      "t": 48171.40850000018,
      "d": 167.85707291666768,
      "v": 106
    },
    {
      "midi": 68,
      "hit": false,
      "t": 48342.83700000014,
      "d": 339.2855729166695,
      "v": 100
    },
    {
      "midi": 72,
      "hit": false,
      "t": 48342.83700000014,
      "d": 339.2855729166695,
      "v": 100
    },
    {
      "midi": 44,
      "hit": false,
      "t": 48342.83700000018,
      "d": 167.85707291666768,
      "v": 106
    },
    {
      "midi": 32,
      "hit": false,
      "t": 48514.26550000018,
      "d": 167.85707291666768,
      "v": 106
    },
    {
      "midi": 68,
      "hit": false,
      "t": 48685.69400000014,
      "d": 1710.7135729166694,
      "v": 100
    },
    {
      "midi": 72,
      "hit": false,
      "t": 48685.69400000014,
      "d": 1710.7135729166694,
      "v": 100
    },
    {
      "midi": 39,
      "hit": false,
      "t": 48685.694000000185,
      "d": 167.85707291666768,
      "v": 106
    },
    {
      "midi": 44,
      "hit": false,
      "t": 48857.12250000019,
      "d": 339.2855729166695,
      "v": 106
    },
    {
      "midi": 32,
      "hit": false,
      "t": 49199.97950000019,
      "d": 339.2855729166695,
      "v": 106
    },
    {
      "midi": 39,
      "hit": false,
      "t": 49542.836500000194,
      "d": 167.85707291666768,
      "v": 106
    },
    {
      "midi": 41,
      "hit": false,
      "t": 49714.265000000196,
      "d": 167.85707291666768,
      "v": 106
    },
    {
      "midi": 32,
      "hit": false,
      "t": 49885.6935000002,
      "d": 167.85707291666768,
      "v": 106
    },
    {
      "midi": 39,
      "hit": false,
      "t": 50057.1220000002,
      "d": 167.85707291666768,
      "v": 106
    },
    {
      "midi": 41,
      "hit": false,
      "t": 50228.5505000002,
      "d": 339.2855729166695,
      "v": 106
    },
    {
      "midi": 60,
      "hit": false,
      "t": 50571.40750000015,
      "d": 339.2855729166695,
      "v": 100
    },
    {
      "midi": 68,
      "hit": false,
      "t": 50571.40750000015,
      "d": 339.2855729166695,
      "v": 100
    },
    {
      "midi": 32,
      "hit": false,
      "t": 50571.407500000205,
      "d": 339.2855729166695,
      "v": 106
    },
    {
      "midi": 63,
      "hit": false,
      "t": 50914.26450000015,
      "d": 167.85707291666768,
      "v": 100
    },
    {
      "midi": 70,
      "hit": false,
      "t": 50914.26450000015,
      "d": 167.85707291666768,
      "v": 100
    },
    {
      "midi": 39,
      "hit": false,
      "t": 50914.26450000021,
      "d": 167.85707291666768,
      "v": 106
    },
    {
      "midi": 68,
      "hit": false,
      "t": 51085.69300000015,
      "d": 339.2855729166695,
      "v": 100
    },
    {
      "midi": 72,
      "hit": false,
      "t": 51085.69300000015,
      "d": 339.2855729166695,
      "v": 100
    },
    {
      "midi": 44,
      "hit": false,
      "t": 51085.69300000021,
      "d": 167.85707291666768,
      "v": 106
    },
    {
      "midi": 32,
      "hit": false,
      "t": 51257.12150000021,
      "d": 167.85707291666768,
      "v": 106
    },
    {
      "midi": 68,
      "hit": false,
      "t": 51428.550000000156,
      "d": 167.85707291666768,
      "v": 100
    },
    {
      "midi": 72,
      "hit": false,
      "t": 51428.550000000156,
      "d": 167.85707291666768,
      "v": 100
    },
    {
      "midi": 39,
      "hit": false,
      "t": 51428.550000000214,
      "d": 167.85707291666768,
      "v": 106
    },
    {
      "midi": 63,
      "hit": false,
      "t": 51599.97850000016,
      "d": 167.85707291666768,
      "v": 100
    },
    {
      "midi": 70,
      "hit": false,
      "t": 51599.97850000016,
      "d": 167.85707291666768,
      "v": 100
    },
    {
      "midi": 44,
      "hit": false,
      "t": 51599.978500000216,
      "d": 339.2855729166695,
      "v": 106
    },
    {
      "midi": 60,
      "hit": false,
      "t": 51771.40700000016,
      "d": 339.2855729166695,
      "v": 100
    },
    {
      "midi": 68,
      "hit": false,
      "t": 51771.40700000016,
      "d": 339.2855729166695,
      "v": 100
    },
    {
      "midi": 32,
      "hit": false,
      "t": 51942.83550000022,
      "d": 339.2855729166695,
      "v": 106
    },
    {
      "midi": 63,
      "hit": false,
      "t": 52114.26400000016,
      "d": 510.714072916664,
      "v": 100
    },
    {
      "midi": 70,
      "hit": false,
      "t": 52114.26400000016,
      "d": 510.714072916664,
      "v": 100
    },
    {
      "midi": 39,
      "hit": false,
      "t": 52285.69250000022,
      "d": 167.85707291666768,
      "v": 106
    },
    {
      "midi": 41,
      "hit": false,
      "t": 52457.121000000225,
      "d": 167.85707291666768,
      "v": 106
    },
    {
      "midi": 60,
      "hit": false,
      "t": 52628.54950000016,
      "d": 682.1425729166658,
      "v": 100
    },
    {
      "midi": 68,
      "hit": false,
      "t": 52628.54950000016,
      "d": 682.1425729166658,
      "v": 100
    },
    {
      "midi": 32,
      "hit": false,
      "t": 52628.54950000023,
      "d": 167.85707291666768,
      "v": 106
    },
    {
      "midi": 39,
      "hit": false,
      "t": 52799.97800000023,
      "d": 167.85707291666768,
      "v": 106
    },
    {
      "midi": 41,
      "hit": false,
      "t": 52971.40650000023,
      "d": 339.2855729166695,
      "v": 106
    },
    {
      "midi": 63,
      "hit": false,
      "t": 53314.26350000016,
      "d": 682.1425729166658,
      "v": 100
    },
    {
      "midi": 68,
      "hit": false,
      "t": 53314.26350000016,
      "d": 682.1425729166658,
      "v": 100
    },
    {
      "midi": 35,
      "hit": false,
      "t": 53314.263500000234,
      "d": 339.2855729166695,
      "v": 106
    },
    {
      "midi": 42,
      "hit": false,
      "t": 53657.12050000024,
      "d": 167.85707291666768,
      "v": 106
    },
    {
      "midi": 47,
      "hit": false,
      "t": 53828.54900000024,
      "d": 167.85707291666768,
      "v": 106
    },
    {
      "midi": 63,
      "hit": false,
      "t": 53999.97750000016,
      "d": 167.85707291666768,
      "v": 100
    },
    {
      "midi": 70,
      "hit": false,
      "t": 53999.97750000016,
      "d": 167.85707291666768,
      "v": 100
    },
    {
      "midi": 35,
      "hit": false,
      "t": 53999.97750000024,
      "d": 167.85707291666768,
      "v": 106
    },
    {
      "midi": 63,
      "hit": false,
      "t": 54171.40600000016,
      "d": 1710.7135729166694,
      "v": 100
    },
    {
      "midi": 70,
      "hit": false,
      "t": 54171.40600000016,
      "d": 1710.7135729166694,
      "v": 100
    },
    {
      "midi": 42,
      "hit": false,
      "t": 54171.40600000024,
      "d": 167.85707291666768,
      "v": 106
    },
    {
      "midi": 47,
      "hit": false,
      "t": 54342.834500000245,
      "d": 339.2855729166695,
      "v": 106
    },
    {
      "midi": 35,
      "hit": false,
      "t": 54685.69150000025,
      "d": 339.2855729166695,
      "v": 106
    },
    {
      "midi": 42,
      "hit": false,
      "t": 55028.54850000025,
      "d": 167.85707291666768,
      "v": 106
    },
    {
      "midi": 44,
      "hit": false,
      "t": 55199.97700000025,
      "d": 167.85707291666768,
      "v": 106
    },
    {
      "midi": 35,
      "hit": false,
      "t": 55371.405500000255,
      "d": 167.85707291666768,
      "v": 106
    },
    {
      "midi": 42,
      "hit": false,
      "t": 55542.83400000026,
      "d": 167.85707291666768,
      "v": 106
    },
    {
      "midi": 44,
      "hit": false,
      "t": 55714.26250000026,
      "d": 339.2855729166695,
      "v": 106
    },
    {
      "midi": 60,
      "hit": false,
      "t": 56057.11950000017,
      "d": 682.1425729166658,
      "v": 100
    },
    {
      "midi": 68,
      "hit": false,
      "t": 56057.11950000017,
      "d": 682.1425729166658,
      "v": 100
    },
    {
      "midi": 32,
      "hit": false,
      "t": 56057.11950000026,
      "d": 339.2855729166695,
      "v": 106
    },
    {
      "midi": 39,
      "hit": false,
      "t": 56399.976500000266,
      "d": 167.85707291666768,
      "v": 106
    },
    {
      "midi": 44,
      "hit": false,
      "t": 56571.40500000027,
      "d": 167.85707291666768,
      "v": 106
    },
    {
      "midi": 63,
      "hit": false,
      "t": 56742.83350000017,
      "d": 167.85707291666768,
      "v": 100
    },
    {
      "midi": 70,
      "hit": false,
      "t": 56742.83350000017,
      "d": 167.85707291666768,
      "v": 100
    },
    {
      "midi": 32,
      "hit": false,
      "t": 56742.83350000027,
      "d": 167.85707291666768,
      "v": 106
    },
    {
      "midi": 63,
      "hit": false,
      "t": 56914.26200000017,
      "d": 1710.7135729166694,
      "v": 100
    },
    {
      "midi": 70,
      "hit": false,
      "t": 56914.26200000017,
      "d": 1710.7135729166694,
      "v": 100
    },
    {
      "midi": 39,
      "hit": false,
      "t": 56914.26200000027,
      "d": 167.85707291666768,
      "v": 106
    },
    {
      "midi": 44,
      "hit": false,
      "t": 57085.69050000027,
      "d": 339.2855729166695,
      "v": 106
    },
    {
      "midi": 32,
      "hit": false,
      "t": 57428.54750000028,
      "d": 339.2855729166695,
      "v": 106
    },
    {
      "midi": 39,
      "hit": false,
      "t": 57771.40450000028,
      "d": 167.85707291666768,
      "v": 106
    },
    {
      "midi": 41,
      "hit": false,
      "t": 57942.83300000028,
      "d": 167.85707291666768,
      "v": 106
    },
    {
      "midi": 32,
      "hit": false,
      "t": 58114.261500000284,
      "d": 167.85707291666768,
      "v": 106
    },
    {
      "midi": 39,
      "hit": false,
      "t": 58285.690000000286,
      "d": 167.85707291666768,
      "v": 106
    },
    {
      "midi": 41,
      "hit": false,
      "t": 58457.11850000029,
      "d": 339.2855729166695,
      "v": 106
    },
    {
      "midi": 63,
      "hit": false,
      "t": 58799.975500000175,
      "d": 682.1425729166658,
      "v": 100
    },
    {
      "midi": 68,
      "hit": false,
      "t": 58799.975500000175,
      "d": 682.1425729166658,
      "v": 100
    },
    {
      "midi": 35,
      "hit": false,
      "t": 58799.97550000029,
      "d": 339.2855729166695,
      "v": 106
    },
    {
      "midi": 42,
      "hit": false,
      "t": 59142.832500000295,
      "d": 167.85707291666768,
      "v": 106
    },
    {
      "midi": 47,
      "hit": false,
      "t": 59314.2610000003,
      "d": 167.85707291666768,
      "v": 106
    },
    {
      "midi": 63,
      "hit": false,
      "t": 59485.689500000175,
      "d": 167.85707291666768,
      "v": 100
    },
    {
      "midi": 70,
      "hit": false,
      "t": 59485.689500000175,
      "d": 167.85707291666768,
      "v": 100
    },
    {
      "midi": 35,
      "hit": false,
      "t": 59485.6895000003,
      "d": 167.85707291666768,
      "v": 106
    },
    {
      "midi": 63,
      "hit": false,
      "t": 59657.11800000018,
      "d": 1710.7135729166694,
      "v": 100
    },
    {
      "midi": 70,
      "hit": false,
      "t": 59657.11800000018,
      "d": 1710.7135729166694,
      "v": 100
    },
    {
      "midi": 42,
      "hit": false,
      "t": 59657.1180000003,
      "d": 167.85707291666768,
      "v": 106
    },
    {
      "midi": 47,
      "hit": false,
      "t": 59828.5465000003,
      "d": 339.2855729166695,
      "v": 106
    },
    {
      "midi": 35,
      "hit": false,
      "t": 60171.403500000306,
      "d": 339.2855729166695,
      "v": 106
    },
    {
      "midi": 42,
      "hit": false,
      "t": 60514.26050000031,
      "d": 167.85707291666768,
      "v": 106
    },
    {
      "midi": 44,
      "hit": false,
      "t": 60685.68900000031,
      "d": 167.85707291666768,
      "v": 106
    },
    {
      "midi": 35,
      "hit": false,
      "t": 60857.11750000031,
      "d": 167.85707291666768,
      "v": 106
    },
    {
      "midi": 42,
      "hit": false,
      "t": 61028.546000000315,
      "d": 167.85707291666768,
      "v": 106
    },
    {
      "midi": 44,
      "hit": false,
      "t": 61199.97450000032,
      "d": 339.2855729166695,
      "v": 106
    },
    {
      "midi": 60,
      "hit": false,
      "t": 61542.83150000018,
      "d": 682.1425729166658,
      "v": 100
    },
    {
      "midi": 68,
      "hit": false,
      "t": 61542.83150000018,
      "d": 682.1425729166658,
      "v": 100
    },
    {
      "midi": 32,
      "hit": false,
      "t": 61542.83150000032,
      "d": 339.2855729166695,
      "v": 106
    },
    {
      "midi": 39,
      "hit": false,
      "t": 61885.688500000324,
      "d": 167.85707291666768,
      "v": 106
    },
    {
      "midi": 44,
      "hit": false,
      "t": 62057.117000000326,
      "d": 167.85707291666768,
      "v": 106
    },
    {
      "midi": 63,
      "hit": false,
      "t": 62228.54550000018,
      "d": 167.85707291666768,
      "v": 100
    },
    {
      "midi": 70,
      "hit": false,
      "t": 62228.54550000018,
      "d": 167.85707291666768,
      "v": 100
    },
    {
      "midi": 32,
      "hit": false,
      "t": 62228.54550000033,
      "d": 167.85707291666768,
      "v": 106
    },
    {
      "midi": 63,
      "hit": false,
      "t": 62399.974000000184,
      "d": 2053.5705729166657,
      "v": 100
    },
    {
      "midi": 70,
      "hit": false,
      "t": 62399.974000000184,
      "d": 2053.5705729166657,
      "v": 100
    },
    {
      "midi": 39,
      "hit": false,
      "t": 62399.97400000033,
      "d": 167.85707291666768,
      "v": 106
    },
    {
      "midi": 44,
      "hit": false,
      "t": 62571.40250000033,
      "d": 339.2855729166695,
      "v": 106
    },
    {
      "midi": 32,
      "hit": false,
      "t": 62914.259500000335,
      "d": 339.2855729166695,
      "v": 106
    },
    {
      "midi": 39,
      "hit": false,
      "t": 63257.11650000034,
      "d": 167.85707291666768,
      "v": 106
    },
    {
      "midi": 41,
      "hit": false,
      "t": 63428.54500000034,
      "d": 167.85707291666768,
      "v": 106
    },
    {
      "midi": 32,
      "hit": false,
      "t": 63599.97350000034,
      "d": 167.85707291666768,
      "v": 106
    },
    {
      "midi": 39,
      "hit": false,
      "t": 63771.402000000344,
      "d": 167.85707291666768,
      "v": 106
    },
    {
      "midi": 41,
      "hit": false,
      "t": 63942.830500000346,
      "d": 339.2855729166695,
      "v": 106
    },
    {
      "midi": 32,
      "hit": false,
      "t": 64285.68750000035,
      "d": 167.85707291666768,
      "v": 106
    },
    {
      "midi": 75,
      "hit": false,
      "t": 65142.830000000184,
      "d": 339.2855729166695,
      "v": 100
    },
    {
      "midi": 56,
      "hit": false,
      "t": 65371.40133333352,
      "d": 110.71423958333617,
      "v": 100
    },
    {
      "midi": 62,
      "hit": false,
      "t": 65371.40133333352,
      "d": 110.71423958333617,
      "v": 100
    },
    {
      "midi": 66,
      "hit": false,
      "t": 65371.40133333352,
      "d": 110.71423958333617,
      "v": 100
    },
    {
      "midi": 75,
      "hit": false,
      "t": 65485.68700000019,
      "d": 339.2855729166695,
      "v": 100
    },
    {
      "midi": 55,
      "hit": false,
      "t": 65714.25833333352,
      "d": 110.71423958333617,
      "v": 100
    },
    {
      "midi": 61,
      "hit": false,
      "t": 65714.25833333352,
      "d": 110.71423958333617,
      "v": 100
    },
    {
      "midi": 65,
      "hit": false,
      "t": 65714.25833333352,
      "d": 110.71423958333617,
      "v": 100
    },
    {
      "midi": 79,
      "hit": false,
      "t": 65828.54400000018,
      "d": 339.2855729166622,
      "v": 100
    },
    {
      "midi": 39,
      "hit": false,
      "t": 65828.54400000034,
      "d": 339.2855729166622,
      "v": 106
    },
    {
      "midi": 79,
      "hit": false,
      "t": 66171.40100000017,
      "d": 339.28557291667676,
      "v": 100
    },
    {
      "midi": 43,
      "hit": false,
      "t": 66171.40100000033,
      "d": 339.2855729166622,
      "v": 106
    },
    {
      "midi": 55,
      "hit": false,
      "t": 66399.97233333351,
      "d": 110.71423958333617,
      "v": 100
    },
    {
      "midi": 61,
      "hit": false,
      "t": 66399.97233333351,
      "d": 110.71423958333617,
      "v": 100
    },
    {
      "midi": 65,
      "hit": false,
      "t": 66399.97233333351,
      "d": 110.71423958333617,
      "v": 100
    },
    {
      "midi": 75,
      "hit": false,
      "t": 66514.25800000018,
      "d": 224.99990624999919,
      "v": 100
    },
    {
      "midi": 44,
      "hit": false,
      "t": 66514.25800000032,
      "d": 339.2855729166622,
      "v": 106
    },
    {
      "midi": 70,
      "hit": false,
      "t": 66742.8293333335,
      "d": 110.71423958333617,
      "v": 100
    },
    {
      "midi": 67,
      "hit": false,
      "t": 66857.11500000017,
      "d": 339.28557291667676,
      "v": 100
    },
    {
      "midi": 45,
      "hit": false,
      "t": 66857.11500000031,
      "d": 339.2855729166622,
      "v": 106
    },
    {
      "midi": 55,
      "hit": false,
      "t": 67085.6863333335,
      "d": 110.71423958333617,
      "v": 100
    },
    {
      "midi": 61,
      "hit": false,
      "t": 67085.6863333335,
      "d": 110.71423958333617,
      "v": 100
    },
    {
      "midi": 65,
      "hit": false,
      "t": 67085.6863333335,
      "d": 110.71423958333617,
      "v": 100
    },
    {
      "midi": 70,
      "hit": false,
      "t": 67199.97200000017,
      "d": 224.99990624999919,
      "v": 100
    },
    {
      "midi": 46,
      "hit": false,
      "t": 67199.9720000003,
      "d": 224.99990624999919,
      "v": 106
    },
    {
      "midi": 61,
      "hit": false,
      "t": 67428.5433333335,
      "d": 110.71423958333617,
      "v": 100
    },
    {
      "midi": 65,
      "hit": false,
      "t": 67428.5433333335,
      "d": 110.71423958333617,
      "v": 100
    },
    {
      "midi": 55,
      "hit": false,
      "t": 67428.54333333363,
      "d": 110.71423958333617,
      "v": 106
    },
    {
      "midi": 47,
      "hit": false,
      "t": 67542.82900000029,
      "d": 339.2855729166622,
      "v": 106
    },
    {
      "midi": 55,
      "hit": false,
      "t": 67771.4003333335,
      "d": 110.71423958333617,
      "v": 100
    },
    {
      "midi": 61,
      "hit": false,
      "t": 67771.4003333335,
      "d": 110.71423958333617,
      "v": 100
    },
    {
      "midi": 65,
      "hit": false,
      "t": 67771.4003333335,
      "d": 110.71423958333617,
      "v": 100
    },
    {
      "midi": 75,
      "hit": false,
      "t": 67771.4003333335,
      "d": 110.71423958333617,
      "v": 100
    },
    {
      "midi": 79,
      "hit": false,
      "t": 67885.68600000016,
      "d": 224.99990624999919,
      "v": 100
    },
    {
      "midi": 48,
      "hit": false,
      "t": 67885.68600000028,
      "d": 339.2855729166622,
      "v": 106
    },
    {
      "midi": 75,
      "hit": false,
      "t": 68114.25733333349,
      "d": 110.71423958333617,
      "v": 100
    },
    {
      "midi": 51,
      "hit": false,
      "t": 68228.54300000027,
      "d": 339.2855729166622,
      "v": 106
    },
    {
      "midi": 53,
      "hit": false,
      "t": 68457.11433333349,
      "d": 110.71423958333617,
      "v": 100
    },
    {
      "midi": 59,
      "hit": false,
      "t": 68457.11433333349,
      "d": 110.71423958333617,
      "v": 100
    },
    {
      "midi": 63,
      "hit": false,
      "t": 68457.11433333349,
      "d": 110.71423958333617,
      "v": 100
    },
    {
      "midi": 77,
      "hit": false,
      "t": 68571.40000000015,
      "d": 339.2855729166622,
      "v": 100
    },
    {
      "midi": 49,
      "hit": false,
      "t": 68571.40000000026,
      "d": 339.2855729166622,
      "v": 106
    },
    {
      "midi": 77,
      "hit": false,
      "t": 68914.25700000014,
      "d": 339.28557291667676,
      "v": 100
    },
    {
      "midi": 49,
      "hit": false,
      "t": 68914.25700000025,
      "d": 339.2855729166622,
      "v": 106
    },
    {
      "midi": 53,
      "hit": false,
      "t": 69142.82833333348,
      "d": 110.71423958333617,
      "v": 100
    },
    {
      "midi": 59,
      "hit": false,
      "t": 69142.82833333348,
      "d": 110.71423958333617,
      "v": 100
    },
    {
      "midi": 63,
      "hit": false,
      "t": 69142.82833333348,
      "d": 110.71423958333617,
      "v": 100
    },
    {
      "midi": 73,
      "hit": false,
      "t": 69257.11400000015,
      "d": 224.99990624999919,
      "v": 100
    },
    {
      "midi": 47,
      "hit": false,
      "t": 69257.11400000023,
      "d": 339.2855729166622,
      "v": 106
    },
    {
      "midi": 68,
      "hit": false,
      "t": 69485.68533333347,
      "d": 110.71423958333617,
      "v": 100
    },
    {
      "midi": 46,
      "hit": false,
      "t": 69599.97100000022,
      "d": 339.2855729166622,
      "v": 106
    },
    {
      "midi": 53,
      "hit": false,
      "t": 69942.82800000014,
      "d": 339.2855729166622,
      "v": 100
    },
    {
      "midi": 59,
      "hit": false,
      "t": 69942.82800000014,
      "d": 339.2855729166622,
      "v": 100
    },
    {
      "midi": 63,
      "hit": false,
      "t": 69942.82800000014,
      "d": 339.2855729166622,
      "v": 100
    },
    {
      "midi": 44,
      "hit": false,
      "t": 69942.82800000021,
      "d": 339.2855729166622,
      "v": 106
    },
    {
      "midi": 46,
      "hit": false,
      "t": 70285.6850000002,
      "d": 339.2855729166622,
      "v": 106
    },
    {
      "midi": 53,
      "hit": false,
      "t": 70514.25633333347,
      "d": 110.71423958333617,
      "v": 100
    },
    {
      "midi": 59,
      "hit": false,
      "t": 70514.25633333347,
      "d": 110.71423958333617,
      "v": 100
    },
    {
      "midi": 63,
      "hit": false,
      "t": 70514.25633333347,
      "d": 110.71423958333617,
      "v": 100
    },
    {
      "midi": 72,
      "hit": false,
      "t": 70514.25633333347,
      "d": 110.71423958333617,
      "v": 100
    },
    {
      "midi": 75,
      "hit": false,
      "t": 70628.54200000013,
      "d": 110.71423958333617,
      "v": 100
    },
    {
      "midi": 41,
      "hit": false,
      "t": 70628.54200000019,
      "d": 339.2855729166622,
      "v": 106
    },
    {
      "midi": 76,
      "hit": false,
      "t": 70742.8276666668,
      "d": 110.71423958333617,
      "v": 100
    },
    {
      "midi": 77,
      "hit": false,
      "t": 70857.11333333346,
      "d": 110.71423958333617,
      "v": 100
    },
    {
      "midi": 78,
      "hit": false,
      "t": 70971.39900000012,
      "d": 110.71423958333617,
      "v": 100
    },
    {
      "midi": 37,
      "hit": false,
      "t": 70971.39900000018,
      "d": 339.2855729166622,
      "v": 106
    },
    {
      "midi": 79,
      "hit": false,
      "t": 71085.68466666678,
      "d": 110.71423958333617,
      "v": 100
    },
    {
      "midi": 52,
      "hit": false,
      "t": 71199.97033333345,
      "d": 110.71423958333617,
      "v": 100
    },
    {
      "midi": 58,
      "hit": false,
      "t": 71199.97033333345,
      "d": 110.71423958333617,
      "v": 100
    },
    {
      "midi": 62,
      "hit": false,
      "t": 71199.97033333345,
      "d": 110.71423958333617,
      "v": 100
    },
    {
      "midi": 72,
      "hit": false,
      "t": 71199.97033333345,
      "d": 110.71423958333617,
      "v": 100
    },
    {
      "midi": 75,
      "hit": false,
      "t": 71314.25600000011,
      "d": 110.71423958333617,
      "v": 100
    },
    {
      "midi": 36,
      "hit": false,
      "t": 71314.25600000017,
      "d": 339.2855729166622,
      "v": 106
    },
    {
      "midi": 76,
      "hit": false,
      "t": 71428.54166666677,
      "d": 567.8569062500028,
      "v": 100
    },
    {
      "midi": 36,
      "hit": false,
      "t": 71657.11300000016,
      "d": 339.2855729166622,
      "v": 106
    },
    {
      "midi": 52,
      "hit": false,
      "t": 71885.68433333344,
      "d": 110.71423958333617,
      "v": 100
    },
    {
      "midi": 58,
      "hit": false,
      "t": 71885.68433333344,
      "d": 110.71423958333617,
      "v": 100
    },
    {
      "midi": 62,
      "hit": false,
      "t": 71885.68433333344,
      "d": 110.71423958333617,
      "v": 100
    },
    {
      "midi": 77,
      "hit": false,
      "t": 71999.9700000001,
      "d": 224.99990624999919,
      "v": 100
    },
    {
      "midi": 40,
      "hit": false,
      "t": 71999.97000000015,
      "d": 339.2855729166622,
      "v": 106
    },
    {
      "midi": 72,
      "hit": false,
      "t": 72228.54133333343,
      "d": 110.71423958333617,
      "v": 100
    },
    {
      "midi": 68,
      "hit": false,
      "t": 72342.82700000009,
      "d": 339.28557291667676,
      "v": 100
    },
    {
      "midi": 36,
      "hit": false,
      "t": 72342.82700000014,
      "d": 339.2855729166622,
      "v": 106
    },
    {
      "midi": 53,
      "hit": false,
      "t": 72571.39833333343,
      "d": 110.71423958333617,
      "v": 100
    },
    {
      "midi": 59,
      "hit": false,
      "t": 72571.39833333343,
      "d": 110.71423958333617,
      "v": 100
    },
    {
      "midi": 63,
      "hit": false,
      "t": 72571.39833333343,
      "d": 110.71423958333617,
      "v": 100
    },
    {
      "midi": 73,
      "hit": false,
      "t": 72685.6840000001,
      "d": 339.2855729166622,
      "v": 100
    },
    {
      "midi": 37,
      "hit": false,
      "t": 72685.68400000012,
      "d": 339.2855729166622,
      "v": 106
    },
    {
      "midi": 70,
      "hit": false,
      "t": 73028.54100000008,
      "d": 224.99990624999919,
      "v": 100
    },
    {
      "midi": 41,
      "hit": false,
      "t": 73028.54100000011,
      "d": 339.2855729166622,
      "v": 106
    },
    {
      "midi": 71,
      "hit": false,
      "t": 73257.11233333341,
      "d": 110.71423958333617,
      "v": 100
    },
    {
      "midi": 82,
      "hit": false,
      "t": 73371.39800000007,
      "d": 224.99990624999919,
      "v": 100
    },
    {
      "midi": 44,
      "hit": false,
      "t": 73371.3980000001,
      "d": 339.2855729166622,
      "v": 106
    },
    {
      "midi": 53,
      "hit": false,
      "t": 73599.9693333334,
      "d": 110.71423958333617,
      "v": 100
    },
    {
      "midi": 59,
      "hit": false,
      "t": 73599.9693333334,
      "d": 110.71423958333617,
      "v": 100
    },
    {
      "midi": 63,
      "hit": false,
      "t": 73599.9693333334,
      "d": 110.71423958333617,
      "v": 100
    },
    {
      "midi": 80,
      "hit": false,
      "t": 73599.9693333334,
      "d": 110.71423958333617,
      "v": 100
    },
    {
      "midi": 67,
      "hit": false,
      "t": 73714.25500000006,
      "d": 224.99990624999919,
      "v": 100
    },
    {
      "midi": 49,
      "hit": false,
      "t": 73714.25500000009,
      "d": 339.2855729166622,
      "v": 106
    },
    {
      "midi": 55,
      "hit": false,
      "t": 73942.82633333339,
      "d": 110.71423958333617,
      "v": 100
    },
    {
      "midi": 61,
      "hit": false,
      "t": 73942.82633333339,
      "d": 110.71423958333617,
      "v": 100
    },
    {
      "midi": 65,
      "hit": false,
      "t": 73942.82633333339,
      "d": 110.71423958333617,
      "v": 100
    },
    {
      "midi": 70,
      "hit": false,
      "t": 73942.82633333339,
      "d": 110.71423958333617,
      "v": 100
    },
    {
      "midi": 75,
      "hit": false,
      "t": 74057.11200000005,
      "d": 224.99990624999919,
      "v": 100
    },
    {
      "midi": 51,
      "hit": false,
      "t": 74057.11200000008,
      "d": 339.2855729166622,
      "v": 106
    },
    {
      "midi": 79,
      "hit": false,
      "t": 74285.68333333338,
      "d": 224.99990624999919,
      "v": 100
    },
    {
      "midi": 50,
      "hit": false,
      "t": 74399.96900000007,
      "d": 339.2855729166622,
      "v": 106
    },
    {
      "midi": 75,
      "hit": false,
      "t": 74514.2546666667,
      "d": 224.99990624999919,
      "v": 100
    },
    {
      "midi": 55,
      "hit": false,
      "t": 74628.54033333337,
      "d": 110.71423958333617,
      "v": 100
    },
    {
      "midi": 61,
      "hit": false,
      "t": 74628.54033333337,
      "d": 110.71423958333617,
      "v": 100
    },
    {
      "midi": 65,
      "hit": false,
      "t": 74628.54033333337,
      "d": 110.71423958333617,
      "v": 100
    },
    {
      "midi": 79,
      "hit": false,
      "t": 74742.82600000003,
      "d": 682.1425729166804,
      "v": 100
    },
    {
      "midi": 49,
      "hit": false,
      "t": 74742.82600000006,
      "d": 339.2855729166622,
      "v": 106
    },
    {
      "midi": 55,
      "hit": false,
      "t": 74971.39733333337,
      "d": 110.71423958333617,
      "v": 100
    },
    {
      "midi": 61,
      "hit": false,
      "t": 74971.39733333337,
      "d": 110.71423958333617,
      "v": 100
    },
    {
      "midi": 65,
      "hit": false,
      "t": 74971.39733333337,
      "d": 110.71423958333617,
      "v": 100
    },
    {
      "midi": 48,
      "hit": false,
      "t": 75085.68300000005,
      "d": 339.2855729166622,
      "v": 106
    },
    {
      "midi": 56,
      "hit": false,
      "t": 75428.54000000004,
      "d": 339.2855729166622,
      "v": 100
    },
    {
      "midi": 62,
      "hit": false,
      "t": 75428.54000000004,
      "d": 339.2855729166622,
      "v": 100
    },
    {
      "midi": 66,
      "hit": false,
      "t": 75428.54000000004,
      "d": 339.2855729166622,
      "v": 100
    },
    {
      "midi": 47,
      "hit": false,
      "t": 75428.54000000004,
      "d": 339.2855729166622,
      "v": 106
    },
    {
      "midi": 46,
      "hit": false,
      "t": 75771.39700000003,
      "d": 339.2855729166622,
      "v": 106
    },
    {
      "midi": 56,
      "hit": false,
      "t": 75999.96833333337,
      "d": 110.71423958333617,
      "v": 100
    },
    {
      "midi": 62,
      "hit": false,
      "t": 75999.96833333337,
      "d": 110.71423958333617,
      "v": 100
    },
    {
      "midi": 66,
      "hit": false,
      "t": 75999.96833333337,
      "d": 110.71423958333617,
      "v": 100
    },
    {
      "midi": 44,
      "hit": false,
      "t": 76114.25400000002,
      "d": 339.2855729166622,
      "v": 106
    },
    {
      "midi": 77,
      "hit": false,
      "t": 76114.25400000003,
      "d": 110.71423958333617,
      "v": 100
    },
    {
      "midi": 82,
      "hit": false,
      "t": 76114.25400000003,
      "d": 682.1425729166513,
      "v": 100
    },
    {
      "midi": 78,
      "hit": false,
      "t": 76228.5396666667,
      "d": 110.71423958333617,
      "v": 100
    },
    {
      "midi": 56,
      "hit": false,
      "t": 76342.82533333336,
      "d": 339.2855729166622,
      "v": 100
    },
    {
      "midi": 62,
      "hit": false,
      "t": 76342.82533333336,
      "d": 339.2855729166622,
      "v": 100
    },
    {
      "midi": 66,
      "hit": false,
      "t": 76342.82533333336,
      "d": 339.2855729166622,
      "v": 100
    },
    {
      "midi": 79,
      "hit": false,
      "t": 76342.82533333336,
      "d": 453.5712395833252,
      "v": 100
    },
    {
      "midi": 43,
      "hit": false,
      "t": 76457.111,
      "d": 339.2855729166622,
      "v": 106
    },
    {
      "midi": 55,
      "hit": false,
      "t": 76685.68233333335,
      "d": 110.71423958333617,
      "v": 100
    },
    {
      "midi": 61,
      "hit": false,
      "t": 76685.68233333335,
      "d": 110.71423958333617,
      "v": 100
    },
    {
      "midi": 65,
      "hit": false,
      "t": 76685.68233333335,
      "d": 110.71423958333617,
      "v": 100
    },
    {
      "midi": 39,
      "hit": false,
      "t": 76799.968,
      "d": 339.2855729166622,
      "v": 106
    },
    {
      "midi": 79,
      "hit": false,
      "t": 76799.96800000001,
      "d": 339.2855729166622,
      "v": 100
    },
    {
      "midi": 82,
      "hit": false,
      "t": 76799.96800000001,
      "d": 339.2855729166622,
      "v": 100
    },
    {
      "midi": 41,
      "hit": false,
      "t": 77142.82499999998,
      "d": 339.2855729166622,
      "v": 106
    },
    {
      "midi": 77,
      "hit": false,
      "t": 77142.825,
      "d": 339.28557291667676,
      "v": 100
    },
    {
      "midi": 82,
      "hit": false,
      "t": 77142.825,
      "d": 339.28557291667676,
      "v": 100
    },
    {
      "midi": 55,
      "hit": false,
      "t": 77371.39633333334,
      "d": 110.71423958333617,
      "v": 100
    },
    {
      "midi": 61,
      "hit": false,
      "t": 77371.39633333334,
      "d": 110.71423958333617,
      "v": 100
    },
    {
      "midi": 65,
      "hit": false,
      "t": 77371.39633333334,
      "d": 110.71423958333617,
      "v": 100
    },
    {
      "midi": 43,
      "hit": false,
      "t": 77485.68199999997,
      "d": 339.2855729166622,
      "v": 106
    },
    {
      "midi": 77,
      "hit": false,
      "t": 77485.682,
      "d": 110.71423958333617,
      "v": 100
    },
    {
      "midi": 82,
      "hit": false,
      "t": 77485.682,
      "d": 682.1425729166658,
      "v": 100
    },
    {
      "midi": 78,
      "hit": false,
      "t": 77599.96766666666,
      "d": 53.57140625000466,
      "v": 100
    },
    {
      "midi": 79,
      "hit": false,
      "t": 77657.1105,
      "d": 510.7140729166713,
      "v": 100
    },
    {
      "midi": 39,
      "hit": false,
      "t": 77828.53899999996,
      "d": 339.2855729166622,
      "v": 106
    },
    {
      "midi": 55,
      "hit": false,
      "t": 78057.11033333333,
      "d": 110.71423958333617,
      "v": 100
    },
    {
      "midi": 61,
      "hit": false,
      "t": 78057.11033333333,
      "d": 110.71423958333617,
      "v": 100
    },
    {
      "midi": 65,
      "hit": false,
      "t": 78057.11033333333,
      "d": 110.71423958333617,
      "v": 100
    },
    {
      "midi": 41,
      "hit": false,
      "t": 78171.39599999995,
      "d": 339.2855729166622,
      "v": 106
    },
    {
      "midi": 79,
      "hit": false,
      "t": 78171.396,
      "d": 339.2855729166622,
      "v": 100
    },
    {
      "midi": 82,
      "hit": false,
      "t": 78171.396,
      "d": 339.2855729166622,
      "v": 100
    },
    {
      "midi": 38,
      "hit": false,
      "t": 78514.25299999994,
      "d": 339.2855729166622,
      "v": 106
    },
    {
      "midi": 77,
      "hit": false,
      "t": 78514.25299999998,
      "d": 224.99990624999919,
      "v": 100
    },
    {
      "midi": 82,
      "hit": false,
      "t": 78514.25299999998,
      "d": 224.99990624999919,
      "v": 100
    },
    {
      "midi": 77,
      "hit": false,
      "t": 78742.82433333331,
      "d": 110.71423958333617,
      "v": 100
    },
    {
      "midi": 82,
      "hit": false,
      "t": 78742.82433333331,
      "d": 339.2855729166622,
      "v": 100
    },
    {
      "midi": 39,
      "hit": false,
      "t": 78857.10999999993,
      "d": 339.2855729166622,
      "v": 106
    },
    {
      "midi": 78,
      "hit": false,
      "t": 78857.10999999997,
      "d": 167.85707291666768,
      "v": 100
    },
    {
      "midi": 79,
      "hit": false,
      "t": 79028.53849999997,
      "d": 53.57140625000466,
      "v": 100
    },
    {
      "midi": 55,
      "hit": false,
      "t": 79085.6813333333,
      "d": 110.71423958333617,
      "v": 100
    },
    {
      "midi": 61,
      "hit": false,
      "t": 79085.6813333333,
      "d": 110.71423958333617,
      "v": 100
    },
    {
      "midi": 65,
      "hit": false,
      "t": 79085.6813333333,
      "d": 110.71423958333617,
      "v": 100
    },
    {
      "midi": 77,
      "hit": false,
      "t": 79085.6813333333,
      "d": 110.71423958333617,
      "v": 100
    },
    {
      "midi": 40,
      "hit": false,
      "t": 79199.96699999992,
      "d": 339.2855729166622,
      "v": 106
    },
    {
      "midi": 75,
      "hit": false,
      "t": 79199.96699999996,
      "d": 224.99990624999919,
      "v": 100
    },
    {
      "midi": 53,
      "hit": false,
      "t": 79428.53833333329,
      "d": 110.71423958333617,
      "v": 100
    },
    {
      "midi": 59,
      "hit": false,
      "t": 79428.53833333329,
      "d": 110.71423958333617,
      "v": 100
    },
    {
      "midi": 63,
      "hit": false,
      "t": 79428.53833333329,
      "d": 110.71423958333617,
      "v": 100
    },
    {
      "midi": 73,
      "hit": false,
      "t": 79428.53833333329,
      "d": 110.71423958333617,
      "v": 100
    },
    {
      "midi": 37,
      "hit": false,
      "t": 79542.8239999999,
      "d": 339.2855729166622,
      "v": 106
    },
    {
      "midi": 70,
      "hit": false,
      "t": 79542.82399999995,
      "d": 224.99990624999919,
      "v": 100
    },
    {
      "midi": 71,
      "hit": false,
      "t": 79771.39533333328,
      "d": 110.71423958333617,
      "v": 100
    },
    {
      "midi": 41,
      "hit": false,
      "t": 79885.6809999999,
      "d": 339.2855729166622,
      "v": 106
    },
    {
      "midi": 82,
      "hit": false,
      "t": 79885.68099999994,
      "d": 224.99990624999919,
      "v": 100
    },
    {
      "midi": 53,
      "hit": false,
      "t": 80114.25233333326,
      "d": 110.71423958333617,
      "v": 100
    },
    {
      "midi": 59,
      "hit": false,
      "t": 80114.25233333326,
      "d": 110.71423958333617,
      "v": 100
    },
    {
      "midi": 63,
      "hit": false,
      "t": 80114.25233333326,
      "d": 110.71423958333617,
      "v": 100
    },
    {
      "midi": 80,
      "hit": false,
      "t": 80114.25233333326,
      "d": 110.71423958333617,
      "v": 100
    },
    {
      "midi": 42,
      "hit": false,
      "t": 80228.53799999988,
      "d": 339.2855729166622,
      "v": 106
    },
    {
      "midi": 75,
      "hit": false,
      "t": 80228.53799999993,
      "d": 110.71423958333617,
      "v": 100
    },
    {
      "midi": 72,
      "hit": false,
      "t": 80342.82366666659,
      "d": 110.71423958333617,
      "v": 100
    },
    {
      "midi": 68,
      "hit": false,
      "t": 80457.10933333325,
      "d": 339.2855729166622,
      "v": 100
    },
    {
      "midi": 43,
      "hit": false,
      "t": 80571.39499999987,
      "d": 339.2855729166622,
      "v": 106
    },
    {
      "midi": 53,
      "hit": false,
      "t": 80799.96633333324,
      "d": 110.71423958333617,
      "v": 100
    },
    {
      "midi": 59,
      "hit": false,
      "t": 80799.96633333324,
      "d": 110.71423958333617,
      "v": 100
    },
    {
      "midi": 63,
      "hit": false,
      "t": 80799.96633333324,
      "d": 110.71423958333617,
      "v": 100
    },
    {
      "midi": 73,
      "hit": false,
      "t": 80799.96633333324,
      "d": 110.71423958333617,
      "v": 100
    },
    {
      "midi": 44,
      "hit": false,
      "t": 80914.25199999986,
      "d": 339.2855729166622,
      "v": 106
    },
    {
      "midi": 68,
      "hit": false,
      "t": 81028.53766666658,
      "d": 110.71423958333617,
      "v": 100
    },
    {
      "midi": 73,
      "hit": false,
      "t": 81142.82333333325,
      "d": 110.71423958333617,
      "v": 100
    },
    {
      "midi": 45,
      "hit": false,
      "t": 81257.10899999985,
      "d": 339.2855729166622,
      "v": 106
    },
    {
      "midi": 77,
      "hit": false,
      "t": 81257.10899999991,
      "d": 110.71423958333617,
      "v": 100
    },
    {
      "midi": 80,
      "hit": false,
      "t": 81371.39466666657,
      "d": 110.71423958333617,
      "v": 100
    },
    {
      "midi": 85,
      "hit": false,
      "t": 81485.68033333324,
      "d": 110.71423958333617,
      "v": 100
    },
    {
      "midi": 46,
      "hit": false,
      "t": 81599.96599999984,
      "d": 339.2855729166622,
      "v": 106
    },
    {
      "midi": 89,
      "hit": false,
      "t": 81599.9659999999,
      "d": 110.71423958333617,
      "v": 100
    },
    {
      "midi": 85,
      "hit": false,
      "t": 81714.25166666656,
      "d": 110.71423958333617,
      "v": 100
    },
    {
      "midi": 53,
      "hit": false,
      "t": 81828.53733333322,
      "d": 110.71423958333617,
      "v": 100
    },
    {
      "midi": 59,
      "hit": false,
      "t": 81828.53733333322,
      "d": 110.71423958333617,
      "v": 100
    },
    {
      "midi": 63,
      "hit": false,
      "t": 81828.53733333322,
      "d": 110.71423958333617,
      "v": 100
    },
    {
      "midi": 80,
      "hit": false,
      "t": 81828.53733333322,
      "d": 110.71423958333617,
      "v": 100
    },
    {
      "midi": 47,
      "hit": false,
      "t": 81942.82299999983,
      "d": 339.2855729166622,
      "v": 106
    },
    {
      "midi": 77,
      "hit": false,
      "t": 81942.82299999989,
      "d": 110.71423958333617,
      "v": 100
    },
    {
      "midi": 76,
      "hit": false,
      "t": 82057.10866666655,
      "d": 53.57140625000466,
      "v": 100
    },
    {
      "midi": 77,
      "hit": false,
      "t": 82114.25149999988,
      "d": 110.71423958333617,
      "v": 100
    },
    {
      "midi": 52,
      "hit": false,
      "t": 82171.39433333321,
      "d": 110.71423958333617,
      "v": 100
    },
    {
      "midi": 58,
      "hit": false,
      "t": 82171.39433333321,
      "d": 110.71423958333617,
      "v": 100
    },
    {
      "midi": 62,
      "hit": false,
      "t": 82171.39433333321,
      "d": 110.71423958333617,
      "v": 100
    },
    {
      "midi": 78,
      "hit": false,
      "t": 82228.53716666655,
      "d": 53.57140625000466,
      "v": 100
    },
    {
      "midi": 48,
      "hit": false,
      "t": 82285.67999999982,
      "d": 339.2855729166622,
      "v": 106
    },
    {
      "midi": 79,
      "hit": false,
      "t": 82285.67999999988,
      "d": 224.99990624999919,
      "v": 100
    },
    {
      "midi": 75,
      "hit": false,
      "t": 82514.2513333332,
      "d": 110.71423958333617,
      "v": 100
    },
    {
      "midi": 43,
      "hit": false,
      "t": 82628.53699999981,
      "d": 339.2855729166622,
      "v": 106
    },
    {
      "midi": 75,
      "hit": false,
      "t": 82857.1083333332,
      "d": 110.71423958333617,
      "v": 100
    },
    {
      "midi": 79,
      "hit": false,
      "t": 82857.1083333332,
      "d": 453.5712395833398,
      "v": 100
    },
    {
      "midi": 36,
      "hit": false,
      "t": 82971.3939999998,
      "d": 339.2855729166622,
      "v": 106
    },
    {
      "midi": 76,
      "hit": false,
      "t": 82971.39399999987,
      "d": 339.28557291667676,
      "v": 100
    },
    {
      "midi": 52,
      "hit": false,
      "t": 83199.96533333321,
      "d": 110.71423958333617,
      "v": 100
    },
    {
      "midi": 58,
      "hit": false,
      "t": 83199.96533333321,
      "d": 110.71423958333617,
      "v": 100
    },
    {
      "midi": 62,
      "hit": false,
      "t": 83199.96533333321,
      "d": 110.71423958333617,
      "v": 100
    },
    {
      "midi": 44,
      "hit": false,
      "t": 83314.25099999979,
      "d": 339.2855729166622,
      "v": 106
    },
    {
      "midi": 72,
      "hit": false,
      "t": 83314.25099999987,
      "d": 224.99990624999919,
      "v": 100
    },
    {
      "midi": 53,
      "hit": false,
      "t": 83542.8223333332,
      "d": 110.71423958333617,
      "v": 100
    },
    {
      "midi": 59,
      "hit": false,
      "t": 83542.8223333332,
      "d": 110.71423958333617,
      "v": 100
    },
    {
      "midi": 63,
      "hit": false,
      "t": 83542.8223333332,
      "d": 110.71423958333617,
      "v": 100
    },
    {
      "midi": 68,
      "hit": false,
      "t": 83542.8223333332,
      "d": 110.71423958333617,
      "v": 100
    },
    {
      "midi": 49,
      "hit": false,
      "t": 83657.10799999977,
      "d": 339.2855729166622,
      "v": 106
    },
    {
      "midi": 65,
      "hit": false,
      "t": 83657.10799999986,
      "d": 339.2855729166622,
      "v": 100
    },
    {
      "midi": 44,
      "hit": false,
      "t": 83999.96499999976,
      "d": 339.2855729166622,
      "v": 106
    },
    {
      "midi": 77,
      "hit": false,
      "t": 83999.96499999985,
      "d": 224.99990624999919,
      "v": 100
    },
    {
      "midi": 75,
      "hit": false,
      "t": 84228.53633333318,
      "d": 110.71423958333617,
      "v": 100
    },
    {
      "midi": 37,
      "hit": false,
      "t": 84342.82199999975,
      "d": 339.2855729166622,
      "v": 106
    },
    {
      "midi": 73,
      "hit": false,
      "t": 84342.82199999984,
      "d": 224.99990624999919,
      "v": 100
    },
    {
      "midi": 53,
      "hit": false,
      "t": 84571.39333333317,
      "d": 110.71423958333617,
      "v": 100
    },
    {
      "midi": 59,
      "hit": false,
      "t": 84571.39333333317,
      "d": 110.71423958333617,
      "v": 100
    },
    {
      "midi": 63,
      "hit": false,
      "t": 84571.39333333317,
      "d": 110.71423958333617,
      "v": 100
    },
    {
      "midi": 68,
      "hit": false,
      "t": 84571.39333333317,
      "d": 110.71423958333617,
      "v": 100
    },
    {
      "midi": 45,
      "hit": false,
      "t": 84685.67899999974,
      "d": 339.2855729166622,
      "v": 106
    },
    {
      "midi": 74,
      "hit": false,
      "t": 84685.67899999983,
      "d": 224.99990624999919,
      "v": 100
    },
    {
      "midi": 54,
      "hit": false,
      "t": 84914.25033333316,
      "d": 110.71423958333617,
      "v": 100
    },
    {
      "midi": 60,
      "hit": false,
      "t": 84914.25033333316,
      "d": 110.71423958333617,
      "v": 100
    },
    {
      "midi": 64,
      "hit": false,
      "t": 84914.25033333316,
      "d": 110.71423958333617,
      "v": 100
    },
    {
      "midi": 78,
      "hit": false,
      "t": 84914.25033333316,
      "d": 110.71423958333617,
      "v": 100
    },
    {
      "midi": 50,
      "hit": false,
      "t": 85028.53599999973,
      "d": 339.2855729166622,
      "v": 106
    },
    {
      "midi": 81,
      "hit": false,
      "t": 85028.53599999982,
      "d": 339.2855729166622,
      "v": 100
    },
    {
      "midi": 45,
      "hit": false,
      "t": 85371.39299999972,
      "d": 339.2855729166622,
      "v": 106
    },
    {
      "midi": 78,
      "hit": false,
      "t": 85371.3929999998,
      "d": 224.99990624999919,
      "v": 100
    },
    {
      "midi": 74,
      "hit": false,
      "t": 85599.96433333313,
      "d": 110.71423958333617,
      "v": 100
    },
    {
      "midi": 38,
      "hit": false,
      "t": 85714.24999999971,
      "d": 339.2855729166622,
      "v": 106
    },
    {
      "midi": 69,
      "hit": false,
      "t": 85714.2499999998,
      "d": 224.99990624999919,
      "v": 100
    },
    {
      "midi": 54,
      "hit": false,
      "t": 85942.82133333312,
      "d": 110.71423958333617,
      "v": 100
    },
    {
      "midi": 60,
      "hit": false,
      "t": 85942.82133333312,
      "d": 110.71423958333617,
      "v": 100
    },
    {
      "midi": 64,
      "hit": false,
      "t": 85942.82133333312,
      "d": 110.71423958333617,
      "v": 100
    },
    {
      "midi": 70,
      "hit": false,
      "t": 85942.82133333312,
      "d": 110.71423958333617,
      "v": 100
    },
    {
      "midi": 46,
      "hit": false,
      "t": 86057.1069999997,
      "d": 339.2855729166622,
      "v": 106
    },
    {
      "midi": 75,
      "hit": false,
      "t": 86057.10699999979,
      "d": 224.99990624999919,
      "v": 100
    },
    {
      "midi": 55,
      "hit": false,
      "t": 86285.67833333311,
      "d": 110.71423958333617,
      "v": 100
    },
    {
      "midi": 61,
      "hit": false,
      "t": 86285.67833333311,
      "d": 110.71423958333617,
      "v": 100
    },
    {
      "midi": 65,
      "hit": false,
      "t": 86285.67833333311,
      "d": 110.71423958333617,
      "v": 100
    },
    {
      "midi": 79,
      "hit": false,
      "t": 86285.67833333311,
      "d": 110.71423958333617,
      "v": 100
    },
    {
      "midi": 51,
      "hit": false,
      "t": 86399.96399999969,
      "d": 339.2855729166622,
      "v": 106
    },
    {
      "midi": 77,
      "hit": false,
      "t": 86399.96399999977,
      "d": 224.99990624999919,
      "v": 100
    },
    {
      "midi": 75,
      "hit": false,
      "t": 86628.5353333331,
      "d": 110.71423958333617,
      "v": 100
    },
    {
      "midi": 46,
      "hit": false,
      "t": 86742.82099999968,
      "d": 339.2855729166622,
      "v": 106
    },
    {
      "midi": 70,
      "hit": false,
      "t": 86742.82099999976,
      "d": 224.99990624999919,
      "v": 100
    },
    {
      "midi": 55,
      "hit": false,
      "t": 86971.39233333309,
      "d": 110.71423958333617,
      "v": 100
    },
    {
      "midi": 61,
      "hit": false,
      "t": 86971.39233333309,
      "d": 110.71423958333617,
      "v": 100
    },
    {
      "midi": 65,
      "hit": false,
      "t": 86971.39233333309,
      "d": 110.71423958333617,
      "v": 100
    },
    {
      "midi": 67,
      "hit": false,
      "t": 86971.39233333309,
      "d": 110.71423958333617,
      "v": 100
    },
    {
      "midi": 39,
      "hit": false,
      "t": 87085.67799999967,
      "d": 339.2855729166622,
      "v": 106
    },
    {
      "midi": 75,
      "hit": false,
      "t": 87085.67799999975,
      "d": 224.99990624999919,
      "v": 100
    },
    {
      "midi": 70,
      "hit": false,
      "t": 87314.24933333308,
      "d": 110.71423958333617,
      "v": 100
    },
    {
      "midi": 46,
      "hit": false,
      "t": 87428.53499999965,
      "d": 167.85707291666768,
      "v": 106
    },
    {
      "midi": 67,
      "hit": false,
      "t": 87428.53499999974,
      "d": 339.2855729166622,
      "v": 100
    },
    {
      "midi": 39,
      "hit": false,
      "t": 87599.96349999965,
      "d": 167.85707291666768,
      "v": 106
    },
    {
      "midi": 32,
      "hit": false,
      "t": 87771.39199999964,
      "d": 167.85707291666768,
      "v": 106
    },
    {
      "midi": 60,
      "hit": false,
      "t": 87771.39199999973,
      "d": 167.85707291666768,
      "v": 100
    },
    {
      "midi": 68,
      "hit": false,
      "t": 87771.39199999973,
      "d": 167.85707291666768,
      "v": 100
    },
    {
      "midi": 39,
      "hit": false,
      "t": 87942.82049999964,
      "d": 167.85707291666768,
      "v": 106
    },
    {
      "midi": 63,
      "hit": false,
      "t": 87942.82049999973,
      "d": 167.85707291666768,
      "v": 100
    },
    {
      "midi": 70,
      "hit": false,
      "t": 87942.82049999973,
      "d": 167.85707291666768,
      "v": 100
    },
    {
      "midi": 44,
      "hit": false,
      "t": 88114.24899999963,
      "d": 167.85707291666768,
      "v": 106
    },
    {
      "midi": 68,
      "hit": false,
      "t": 88114.24899999972,
      "d": 339.2855729166622,
      "v": 100
    },
    {
      "midi": 72,
      "hit": false,
      "t": 88114.24899999972,
      "d": 339.2855729166622,
      "v": 100
    },
    {
      "midi": 32,
      "hit": false,
      "t": 88285.67749999963,
      "d": 167.85707291666768,
      "v": 106
    },
    {
      "midi": 39,
      "hit": false,
      "t": 88457.10599999962,
      "d": 167.85707291666768,
      "v": 106
    },
    {
      "midi": 68,
      "hit": false,
      "t": 88457.10599999971,
      "d": 167.85707291666768,
      "v": 100
    },
    {
      "midi": 72,
      "hit": false,
      "t": 88457.10599999971,
      "d": 167.85707291666768,
      "v": 100
    },
    {
      "midi": 44,
      "hit": false,
      "t": 88628.53449999962,
      "d": 339.2855729166622,
      "v": 106
    },
    {
      "midi": 63,
      "hit": false,
      "t": 88628.5344999997,
      "d": 167.85707291666768,
      "v": 100
    },
    {
      "midi": 70,
      "hit": false,
      "t": 88628.5344999997,
      "d": 167.85707291666768,
      "v": 100
    },
    {
      "midi": 60,
      "hit": false,
      "t": 88799.9629999997,
      "d": 339.2855729166622,
      "v": 100
    },
    {
      "midi": 68,
      "hit": false,
      "t": 88799.9629999997,
      "d": 339.2855729166622,
      "v": 100
    },
    {
      "midi": 32,
      "hit": false,
      "t": 88971.3914999996,
      "d": 339.2855729166622,
      "v": 106
    },
    {
      "midi": 63,
      "hit": false,
      "t": 89142.81999999969,
      "d": 510.7140729166713,
      "v": 100
    },
    {
      "midi": 70,
      "hit": false,
      "t": 89142.81999999969,
      "d": 510.7140729166713,
      "v": 100
    },
    {
      "midi": 39,
      "hit": false,
      "t": 89314.2484999996,
      "d": 167.85707291666768,
      "v": 106
    },
    {
      "midi": 41,
      "hit": false,
      "t": 89485.67699999959,
      "d": 167.85707291666768,
      "v": 106
    },
    {
      "midi": 32,
      "hit": false,
      "t": 89657.10549999958,
      "d": 167.85707291666768,
      "v": 106
    },
    {
      "midi": 60,
      "hit": false,
      "t": 89657.10549999968,
      "d": 682.1425729166658,
      "v": 100
    },
    {
      "midi": 68,
      "hit": false,
      "t": 89657.10549999968,
      "d": 682.1425729166658,
      "v": 100
    },
    {
      "midi": 39,
      "hit": false,
      "t": 89828.53399999958,
      "d": 167.85707291666768,
      "v": 106
    },
    {
      "midi": 41,
      "hit": false,
      "t": 89999.96249999957,
      "d": 339.2855729166622,
      "v": 106
    },
    {
      "midi": 32,
      "hit": false,
      "t": 90342.81949999956,
      "d": 339.2855729166622,
      "v": 106
    },
    {
      "midi": 60,
      "hit": false,
      "t": 90342.81949999968,
      "d": 339.2855729166622,
      "v": 100
    },
    {
      "midi": 68,
      "hit": false,
      "t": 90342.81949999968,
      "d": 339.2855729166622,
      "v": 100
    },
    {
      "midi": 39,
      "hit": false,
      "t": 90685.67649999955,
      "d": 167.85707291666768,
      "v": 106
    },
    {
      "midi": 63,
      "hit": false,
      "t": 90685.67649999967,
      "d": 167.85707291666768,
      "v": 100
    },
    {
      "midi": 70,
      "hit": false,
      "t": 90685.67649999967,
      "d": 167.85707291666768,
      "v": 100
    },
    {
      "midi": 44,
      "hit": false,
      "t": 90857.10499999954,
      "d": 167.85707291666768,
      "v": 106
    },
    {
      "midi": 68,
      "hit": false,
      "t": 90857.10499999966,
      "d": 339.2855729166622,
      "v": 100
    },
    {
      "midi": 72,
      "hit": false,
      "t": 90857.10499999966,
      "d": 339.2855729166622,
      "v": 100
    },
    {
      "midi": 32,
      "hit": false,
      "t": 91028.53349999954,
      "d": 167.85707291666768,
      "v": 106
    },
    {
      "midi": 39,
      "hit": false,
      "t": 91199.96199999953,
      "d": 167.85707291666768,
      "v": 106
    },
    {
      "midi": 68,
      "hit": false,
      "t": 91199.96199999965,
      "d": 1710.713572916662,
      "v": 100
    },
    {
      "midi": 72,
      "hit": false,
      "t": 91199.96199999965,
      "d": 1710.713572916662,
      "v": 100
    },
    {
      "midi": 44,
      "hit": false,
      "t": 91371.39049999953,
      "d": 339.2855729166622,
      "v": 106
    },
    {
      "midi": 32,
      "hit": false,
      "t": 91714.24749999952,
      "d": 339.2855729166622,
      "v": 106
    },
    {
      "midi": 39,
      "hit": false,
      "t": 92057.1044999995,
      "d": 167.85707291666768,
      "v": 106
    },
    {
      "midi": 41,
      "hit": false,
      "t": 92228.5329999995,
      "d": 167.85707291666768,
      "v": 106
    },
    {
      "midi": 32,
      "hit": false,
      "t": 92399.9614999995,
      "d": 167.85707291666768,
      "v": 106
    },
    {
      "midi": 39,
      "hit": false,
      "t": 92571.38999999949,
      "d": 167.85707291666768,
      "v": 106
    },
    {
      "midi": 41,
      "hit": false,
      "t": 92742.81849999948,
      "d": 339.2855729166622,
      "v": 106
    },
    {
      "midi": 32,
      "hit": false,
      "t": 93085.67549999947,
      "d": 339.2855729166622,
      "v": 106
    },
    {
      "midi": 60,
      "hit": false,
      "t": 93085.67549999965,
      "d": 339.2855729166622,
      "v": 100
    },
    {
      "midi": 68,
      "hit": false,
      "t": 93085.67549999965,
      "d": 339.2855729166622,
      "v": 100
    },
    {
      "midi": 39,
      "hit": false,
      "t": 93428.53249999946,
      "d": 167.85707291666768,
      "v": 106
    },
    {
      "midi": 63,
      "hit": false,
      "t": 93428.53249999964,
      "d": 167.85707291666768,
      "v": 100
    },
    {
      "midi": 70,
      "hit": false,
      "t": 93428.53249999964,
      "d": 167.85707291666768,
      "v": 100
    },
    {
      "midi": 44,
      "hit": false,
      "t": 93599.96099999946,
      "d": 167.85707291666768,
      "v": 106
    },
    {
      "midi": 68,
      "hit": false,
      "t": 93599.96099999963,
      "d": 339.2855729166622,
      "v": 100
    },
    {
      "midi": 72,
      "hit": false,
      "t": 93599.96099999963,
      "d": 339.2855729166622,
      "v": 100
    },
    {
      "midi": 32,
      "hit": false,
      "t": 93771.38949999945,
      "d": 167.85707291666768,
      "v": 106
    },
    {
      "midi": 39,
      "hit": false,
      "t": 93942.81799999945,
      "d": 167.85707291666768,
      "v": 106
    },
    {
      "midi": 68,
      "hit": false,
      "t": 93942.81799999962,
      "d": 167.85707291666768,
      "v": 100
    },
    {
      "midi": 72,
      "hit": false,
      "t": 93942.81799999962,
      "d": 167.85707291666768,
      "v": 100
    },
    {
      "midi": 44,
      "hit": false,
      "t": 94114.24649999944,
      "d": 339.2855729166622,
      "v": 106
    },
    {
      "midi": 63,
      "hit": false,
      "t": 94114.24649999962,
      "d": 167.85707291666768,
      "v": 100
    },
    {
      "midi": 70,
      "hit": false,
      "t": 94114.24649999962,
      "d": 167.85707291666768,
      "v": 100
    },
    {
      "midi": 60,
      "hit": false,
      "t": 94285.67499999961,
      "d": 339.2855729166622,
      "v": 100
    },
    {
      "midi": 68,
      "hit": false,
      "t": 94285.67499999961,
      "d": 339.2855729166622,
      "v": 100
    },
    {
      "midi": 32,
      "hit": false,
      "t": 94457.10349999943,
      "d": 339.2855729166622,
      "v": 106
    },
    {
      "midi": 63,
      "hit": false,
      "t": 94628.5319999996,
      "d": 510.7140729166713,
      "v": 100
    },
    {
      "midi": 70,
      "hit": false,
      "t": 94628.5319999996,
      "d": 510.7140729166713,
      "v": 100
    },
    {
      "midi": 39,
      "hit": false,
      "t": 94799.96049999942,
      "d": 167.85707291666768,
      "v": 106
    },
    {
      "midi": 41,
      "hit": false,
      "t": 94971.38899999941,
      "d": 167.85707291666768,
      "v": 106
    },
    {
      "midi": 32,
      "hit": false,
      "t": 95142.81749999941,
      "d": 167.85707291666768,
      "v": 106
    },
    {
      "midi": 60,
      "hit": false,
      "t": 95142.8174999996,
      "d": 682.1425729166658,
      "v": 100
    },
    {
      "midi": 68,
      "hit": false,
      "t": 95142.8174999996,
      "d": 682.1425729166658,
      "v": 100
    },
    {
      "midi": 39,
      "hit": false,
      "t": 95314.2459999994,
      "d": 167.85707291666768,
      "v": 106
    },
    {
      "midi": 41,
      "hit": false,
      "t": 95485.6744999994,
      "d": 339.2855729166622,
      "v": 106
    },
    {
      "midi": 35,
      "hit": false,
      "t": 95828.53149999939,
      "d": 339.2855729166622,
      "v": 106
    },
    {
      "midi": 63,
      "hit": false,
      "t": 95828.53149999959,
      "d": 682.1425729166658,
      "v": 100
    },
    {
      "midi": 68,
      "hit": false,
      "t": 95828.53149999959,
      "d": 682.1425729166658,
      "v": 100
    },
    {
      "midi": 42,
      "hit": false,
      "t": 96171.38849999938,
      "d": 167.85707291666768,
      "v": 106
    },
    {
      "midi": 47,
      "hit": false,
      "t": 96342.81699999937,
      "d": 167.85707291666768,
      "v": 106
    },
    {
      "midi": 35,
      "hit": false,
      "t": 96514.24549999936,
      "d": 167.85707291666768,
      "v": 106
    },
    {
      "midi": 63,
      "hit": false,
      "t": 96514.24549999958,
      "d": 167.85707291666768,
      "v": 100
    },
    {
      "midi": 70,
      "hit": false,
      "t": 96514.24549999958,
      "d": 167.85707291666768,
      "v": 100
    },
    {
      "midi": 42,
      "hit": false,
      "t": 96685.67399999936,
      "d": 167.85707291666768,
      "v": 106
    },
    {
      "midi": 63,
      "hit": false,
      "t": 96685.67399999958,
      "d": 1710.713572916662,
      "v": 100
    },
    {
      "midi": 70,
      "hit": false,
      "t": 96685.67399999958,
      "d": 1710.713572916662,
      "v": 100
    },
    {
      "midi": 47,
      "hit": false,
      "t": 96857.10249999935,
      "d": 339.2855729166622,
      "v": 106
    },
    {
      "midi": 35,
      "hit": false,
      "t": 97199.95949999934,
      "d": 339.2855729166622,
      "v": 106
    },
    {
      "midi": 42,
      "hit": false,
      "t": 97542.81649999933,
      "d": 167.85707291666768,
      "v": 106
    },
    {
      "midi": 44,
      "hit": false,
      "t": 97714.24499999933,
      "d": 167.85707291666768,
      "v": 106
    },
    {
      "midi": 35,
      "hit": false,
      "t": 97885.67349999932,
      "d": 167.85707291666768,
      "v": 106
    },
    {
      "midi": 42,
      "hit": false,
      "t": 98057.10199999932,
      "d": 167.85707291666768,
      "v": 106
    },
    {
      "midi": 44,
      "hit": false,
      "t": 98228.53049999931,
      "d": 339.2855729166622,
      "v": 106
    },
    {
      "midi": 32,
      "hit": false,
      "t": 98571.3874999993,
      "d": 339.2855729166622,
      "v": 106
    },
    {
      "midi": 60,
      "hit": false,
      "t": 98571.38749999958,
      "d": 682.1425729166658,
      "v": 100
    },
    {
      "midi": 68,
      "hit": false,
      "t": 98571.38749999958,
      "d": 682.1425729166658,
      "v": 100
    },
    {
      "midi": 39,
      "hit": false,
      "t": 98914.24449999929,
      "d": 167.85707291666768,
      "v": 106
    },
    {
      "midi": 44,
      "hit": false,
      "t": 99085.67299999928,
      "d": 167.85707291666768,
      "v": 106
    },
    {
      "midi": 32,
      "hit": false,
      "t": 99257.10149999928,
      "d": 167.85707291666768,
      "v": 106
    },
    {
      "midi": 63,
      "hit": false,
      "t": 99257.10149999957,
      "d": 167.85707291666768,
      "v": 100
    },
    {
      "midi": 70,
      "hit": false,
      "t": 99257.10149999957,
      "d": 167.85707291666768,
      "v": 100
    },
    {
      "midi": 39,
      "hit": false,
      "t": 99428.52999999927,
      "d": 167.85707291666768,
      "v": 106
    },
    {
      "midi": 63,
      "hit": false,
      "t": 99428.52999999956,
      "d": 1710.713572916662,
      "v": 100
    },
    {
      "midi": 70,
      "hit": false,
      "t": 99428.52999999956,
      "d": 1710.713572916662,
      "v": 100
    },
    {
      "midi": 44,
      "hit": false,
      "t": 99599.95849999927,
      "d": 339.2855729166622,
      "v": 106
    },
    {
      "midi": 32,
      "hit": false,
      "t": 99942.81549999925,
      "d": 339.2855729166622,
      "v": 106
    },
    {
      "midi": 39,
      "hit": false,
      "t": 100285.67249999924,
      "d": 167.85707291666768,
      "v": 106
    },
    {
      "midi": 41,
      "hit": false,
      "t": 100457.10099999924,
      "d": 167.85707291666768,
      "v": 106
    },
    {
      "midi": 32,
      "hit": false,
      "t": 100628.52949999923,
      "d": 167.85707291666768,
      "v": 106
    },
    {
      "midi": 39,
      "hit": false,
      "t": 100799.95799999923,
      "d": 167.85707291666768,
      "v": 106
    },
    {
      "midi": 41,
      "hit": false,
      "t": 100971.38649999922,
      "d": 339.2855729166622,
      "v": 106
    },
    {
      "midi": 35,
      "hit": false,
      "t": 101314.24349999921,
      "d": 339.2855729166622,
      "v": 106
    },
    {
      "midi": 63,
      "hit": false,
      "t": 101314.24349999956,
      "d": 682.1425729166658,
      "v": 100
    },
    {
      "midi": 68,
      "hit": false,
      "t": 101314.24349999956,
      "d": 682.1425729166658,
      "v": 100
    },
    {
      "midi": 42,
      "hit": false,
      "t": 101657.1004999992,
      "d": 167.85707291666768,
      "v": 106
    },
    {
      "midi": 47,
      "hit": false,
      "t": 101828.5289999992,
      "d": 167.85707291666768,
      "v": 106
    },
    {
      "midi": 35,
      "hit": false,
      "t": 101999.95749999919,
      "d": 167.85707291666768,
      "v": 106
    },
    {
      "midi": 63,
      "hit": false,
      "t": 101999.95749999955,
      "d": 167.85707291666768,
      "v": 100
    },
    {
      "midi": 70,
      "hit": false,
      "t": 101999.95749999955,
      "d": 167.85707291666768,
      "v": 100
    },
    {
      "midi": 42,
      "hit": false,
      "t": 102171.38599999918,
      "d": 167.85707291666768,
      "v": 106
    },
    {
      "midi": 63,
      "hit": false,
      "t": 102171.38599999955,
      "d": 1710.713572916662,
      "v": 100
    },
    {
      "midi": 70,
      "hit": false,
      "t": 102171.38599999955,
      "d": 1710.713572916662,
      "v": 100
    },
    {
      "midi": 47,
      "hit": false,
      "t": 102342.81449999918,
      "d": 339.2855729166622,
      "v": 106
    },
    {
      "midi": 35,
      "hit": false,
      "t": 102685.67149999917,
      "d": 339.2855729166622,
      "v": 106
    },
    {
      "midi": 42,
      "hit": false,
      "t": 103028.52849999916,
      "d": 167.85707291666768,
      "v": 106
    },
    {
      "midi": 44,
      "hit": false,
      "t": 103199.95699999915,
      "d": 167.85707291666768,
      "v": 106
    },
    {
      "midi": 35,
      "hit": false,
      "t": 103371.38549999915,
      "d": 167.85707291666768,
      "v": 106
    },
    {
      "midi": 42,
      "hit": false,
      "t": 103542.81399999914,
      "d": 167.85707291666768,
      "v": 106
    },
    {
      "midi": 44,
      "hit": false,
      "t": 103714.24249999913,
      "d": 339.2855729166622,
      "v": 106
    },
    {
      "midi": 32,
      "hit": false,
      "t": 104057.09949999912,
      "d": 339.2855729166622,
      "v": 106
    },
    {
      "midi": 60,
      "hit": false,
      "t": 104057.09949999955,
      "d": 682.1425729166658,
      "v": 100
    },
    {
      "midi": 68,
      "hit": false,
      "t": 104057.09949999955,
      "d": 682.1425729166658,
      "v": 100
    },
    {
      "midi": 39,
      "hit": false,
      "t": 104399.95649999911,
      "d": 167.85707291666768,
      "v": 106
    },
    {
      "midi": 44,
      "hit": false,
      "t": 104571.3849999991,
      "d": 167.85707291666768,
      "v": 106
    },
    {
      "midi": 32,
      "hit": false,
      "t": 104742.8134999991,
      "d": 167.85707291666768,
      "v": 106
    },
    {
      "midi": 63,
      "hit": false,
      "t": 104742.81349999954,
      "d": 167.85707291666768,
      "v": 100
    },
    {
      "midi": 70,
      "hit": false,
      "t": 104742.81349999954,
      "d": 167.85707291666768,
      "v": 100
    },
    {
      "midi": 39,
      "hit": false,
      "t": 104914.2419999991,
      "d": 167.85707291666768,
      "v": 106
    },
    {
      "midi": 63,
      "hit": false,
      "t": 104914.24199999953,
      "d": 2053.5705729166657,
      "v": 100
    },
    {
      "midi": 70,
      "hit": false,
      "t": 104914.24199999953,
      "d": 2053.5705729166657,
      "v": 100
    },
    {
      "midi": 44,
      "hit": false,
      "t": 105085.67049999909,
      "d": 339.2855729166622,
      "v": 106
    },
    {
      "midi": 32,
      "hit": false,
      "t": 105428.52749999908,
      "d": 339.2855729166622,
      "v": 106
    },
    {
      "midi": 39,
      "hit": false,
      "t": 105771.38449999907,
      "d": 167.85707291666768,
      "v": 106
    },
    {
      "midi": 41,
      "hit": false,
      "t": 105942.81299999906,
      "d": 167.85707291666768,
      "v": 106
    },
    {
      "midi": 32,
      "hit": false,
      "t": 106114.24149999906,
      "d": 167.85707291666768,
      "v": 106
    },
    {
      "midi": 39,
      "hit": false,
      "t": 106285.66999999905,
      "d": 167.85707291666768,
      "v": 106
    },
    {
      "midi": 41,
      "hit": false,
      "t": 106457.09849999905,
      "d": 339.2855729166622,
      "v": 106
    },
    {
      "midi": 32,
      "hit": false,
      "t": 106799.95549999904,
      "d": 339.2855729166622,
      "v": 106
    },
    {
      "midi": 39,
      "hit": false,
      "t": 107142.81249999903,
      "d": 167.85707291666768,
      "v": 106
    },
    {
      "midi": 44,
      "hit": false,
      "t": 107314.24099999902,
      "d": 167.85707291666768,
      "v": 106
    },
    {
      "midi": 32,
      "hit": false,
      "t": 107485.66949999901,
      "d": 167.85707291666768,
      "v": 106
    },
    {
      "midi": 39,
      "hit": false,
      "t": 107657.09799999901,
      "d": 167.85707291666768,
      "v": 106
    },
    {
      "midi": 44,
      "hit": false,
      "t": 107828.526499999,
      "d": 339.2855729166622,
      "v": 106
    },
    {
      "midi": 32,
      "hit": false,
      "t": 108171.38349999899,
      "d": 339.2855729166622,
      "v": 106
    },
    {
      "midi": 39,
      "hit": false,
      "t": 108514.24049999898,
      "d": 167.85707291666768,
      "v": 106
    },
    {
      "midi": 41,
      "hit": false,
      "t": 108685.66899999898,
      "d": 167.85707291666768,
      "v": 106
    },
    {
      "midi": 32,
      "hit": false,
      "t": 108857.09749999897,
      "d": 167.85707291666768,
      "v": 106
    },
    {
      "midi": 39,
      "hit": false,
      "t": 109028.52599999896,
      "d": 167.85707291666768,
      "v": 106
    },
    {
      "midi": 41,
      "hit": false,
      "t": 109199.95449999896,
      "d": 339.2855729166622,
      "v": 106
    },
    {
      "midi": 32,
      "hit": false,
      "t": 109542.81149999895,
      "d": 339.2855729166622,
      "v": 106
    },
    {
      "midi": 39,
      "hit": false,
      "t": 109885.66849999894,
      "d": 167.85707291666768,
      "v": 106
    },
    {
      "midi": 44,
      "hit": false,
      "t": 110057.09699999893,
      "d": 167.85707291666768,
      "v": 106
    },
    {
      "midi": 32,
      "hit": false,
      "t": 110228.52549999893,
      "d": 167.85707291666768,
      "v": 106
    },
    {
      "midi": 39,
      "hit": false,
      "t": 110399.95399999892,
      "d": 167.85707291666768,
      "v": 106
    },
    {
      "midi": 44,
      "hit": false,
      "t": 110571.38249999892,
      "d": 339.2855729166622,
      "v": 106
    },
    {
      "midi": 32,
      "hit": false,
      "t": 110914.2394999989,
      "d": 339.2855729166622,
      "v": 106
    },
    {
      "midi": 39,
      "hit": false,
      "t": 111257.0964999989,
      "d": 167.85707291666768,
      "v": 106
    },
    {
      "midi": 41,
      "hit": false,
      "t": 111428.52499999889,
      "d": 167.85707291666768,
      "v": 106
    },
    {
      "midi": 32,
      "hit": false,
      "t": 111599.95349999888,
      "d": 167.85707291666768,
      "v": 106
    },
    {
      "midi": 39,
      "hit": false,
      "t": 111771.38199999888,
      "d": 167.85707291666768,
      "v": 106
    },
    {
      "midi": 41,
      "hit": false,
      "t": 111942.81049999887,
      "d": 339.2855729166622,
      "v": 106
    },
    {
      "midi": 32,
      "hit": false,
      "t": 112285.66749999886,
      "d": 167.85707291666768,
      "v": 106
    },
    {
      "midi": 48,
      "hit": false,
      "t": 112628.52449999886,
      "d": 167.85707291666768,
      "v": 106
    },
    {
      "midi": 56,
      "hit": false,
      "t": 112628.52449999953,
      "d": 167.85707291666768,
      "v": 100
    },
    {
      "midi": 48,
      "hit": false,
      "t": 112628.52449999953,
      "d": 510.71407291665673,
      "v": 100
    },
    {
      "midi": 51,
      "hit": false,
      "t": 112799.95299999886,
      "d": 167.85707291666768,
      "v": 106
    },
    {
      "midi": 58,
      "hit": false,
      "t": 112799.95299999953,
      "d": 167.85707291666768,
      "v": 100
    },
    {
      "midi": 51,
      "hit": false,
      "t": 112799.95299999953,
      "d": 339.2855729166622,
      "v": 100
    },
    {
      "midi": 56,
      "hit": false,
      "t": 112971.38149999885,
      "d": 167.85707291666768,
      "v": 106
    },
    {
      "midi": 60,
      "hit": false,
      "t": 112971.38149999952,
      "d": 167.85707291666768,
      "v": 100
    },
    {
      "midi": 60,
      "hit": false,
      "t": 113142.80999999885,
      "d": 167.85707291666768,
      "v": 106
    },
    {
      "midi": 68,
      "hit": false,
      "t": 113142.80999999952,
      "d": 167.85707291666768,
      "v": 100
    },
    {
      "midi": 60,
      "hit": false,
      "t": 113142.80999999952,
      "d": 510.71407291665673,
      "v": 100
    },
    {
      "midi": 63,
      "hit": false,
      "t": 113314.23849999884,
      "d": 167.85707291666768,
      "v": 106
    },
    {
      "midi": 70,
      "hit": false,
      "t": 113314.23849999951,
      "d": 167.85707291666768,
      "v": 100
    },
    {
      "midi": 63,
      "hit": false,
      "t": 113314.23849999951,
      "d": 339.2855729166622,
      "v": 100
    },
    {
      "midi": 68,
      "hit": false,
      "t": 113485.66699999884,
      "d": 167.85707291666768,
      "v": 106
    },
    {
      "midi": 72,
      "hit": false,
      "t": 113485.6669999995,
      "d": 167.85707291666768,
      "v": 100
    },
    {
      "midi": 72,
      "hit": false,
      "t": 113657.09549999883,
      "d": 167.85707291666768,
      "v": 106
    },
    {
      "midi": 72,
      "hit": false,
      "t": 113657.0954999995,
      "d": 167.85707291666768,
      "v": 100
    },
    {
      "midi": 80,
      "hit": false,
      "t": 113657.0954999995,
      "d": 167.85707291666768,
      "v": 100
    },
    {
      "midi": 75,
      "hit": false,
      "t": 113828.52399999883,
      "d": 167.85707291666768,
      "v": 106
    },
    {
      "midi": 82,
      "hit": false,
      "t": 113828.5239999995,
      "d": 167.85707291666768,
      "v": 100
    },
    {
      "midi": 80,
      "hit": false,
      "t": 113999.95249999882,
      "d": 167.85707291666768,
      "v": 106
    },
    {
      "midi": 85,
      "hit": false,
      "t": 113999.95249999949,
      "d": 510.7140729166713,
      "v": 100
    },
    {
      "midi": 75,
      "hit": false,
      "t": 114171.38099999882,
      "d": 167.85707291666768,
      "v": 106
    },
    {
      "midi": 72,
      "hit": false,
      "t": 114342.80949999881,
      "d": 167.85707291666768,
      "v": 106
    },
    {
      "midi": 75,
      "hit": false,
      "t": 114514.2379999988,
      "d": 339.2855729166622,
      "v": 106
    },
    {
      "midi": 80,
      "hit": false,
      "t": 114514.23799999949,
      "d": 339.2855729166622,
      "v": 100
    },
    {
      "midi": 84,
      "hit": false,
      "t": 114514.23799999949,
      "d": 339.2855729166622,
      "v": 100
    },
    {
      "midi": 75,
      "hit": false,
      "t": 114857.09499999948,
      "d": 167.85707291666768,
      "v": 100
    },
    {
      "midi": 82,
      "hit": false,
      "t": 114857.09499999948,
      "d": 167.85707291666768,
      "v": 100
    },
    {
      "midi": 39,
      "hit": false,
      "t": 115028.5234999988,
      "d": 167.85707291666768,
      "v": 106
    },
    {
      "midi": 72,
      "hit": false,
      "t": 115028.52349999947,
      "d": 167.85707291666768,
      "v": 100
    },
    {
      "midi": 80,
      "hit": false,
      "t": 115028.52349999947,
      "d": 167.85707291666768,
      "v": 100
    },
    {
      "midi": 32,
      "hit": false,
      "t": 115199.9519999988,
      "d": 167.85707291666768,
      "v": 106
    },
    {
      "midi": 75,
      "hit": false,
      "t": 115199.95199999947,
      "d": 510.7140729166713,
      "v": 100
    },
    {
      "midi": 82,
      "hit": false,
      "t": 115199.95199999947,
      "d": 510.7140729166713,
      "v": 100
    },
    {
      "midi": 39,
      "hit": false,
      "t": 115371.38049999879,
      "d": 167.85707291666768,
      "v": 106
    },
    {
      "midi": 44,
      "hit": false,
      "t": 115542.80899999879,
      "d": 167.85707291666768,
      "v": 106
    },
    {
      "midi": 32,
      "hit": false,
      "t": 115714.23749999878,
      "d": 167.85707291666768,
      "v": 106
    },
    {
      "midi": 72,
      "hit": false,
      "t": 115714.23749999946,
      "d": 2053.5705729166657,
      "v": 100
    },
    {
      "midi": 80,
      "hit": false,
      "t": 115714.23749999946,
      "d": 2053.5705729166657,
      "v": 100
    },
    {
      "midi": 39,
      "hit": false,
      "t": 115885.66599999878,
      "d": 167.85707291666768,
      "v": 106
    },
    {
      "midi": 44,
      "hit": false,
      "t": 116057.09449999877,
      "d": 339.2855729166622,
      "v": 106
    },
    {
      "midi": 32,
      "hit": false,
      "t": 116399.95149999876,
      "d": 339.2855729166622,
      "v": 106
    },
    {
      "midi": 39,
      "hit": false,
      "t": 116742.80849999875,
      "d": 167.85707291666768,
      "v": 106
    },
    {
      "midi": 41,
      "hit": false,
      "t": 116914.23699999874,
      "d": 167.85707291666768,
      "v": 106
    },
    {
      "midi": 32,
      "hit": false,
      "t": 117085.66549999874,
      "d": 167.85707291666768,
      "v": 106
    },
    {
      "midi": 39,
      "hit": false,
      "t": 117257.09399999873,
      "d": 167.85707291666768,
      "v": 106
    },
    {
      "midi": 41,
      "hit": false,
      "t": 117428.52249999873,
      "d": 339.2855729166622,
      "v": 106
    },
    {
      "midi": 32,
      "hit": false,
      "t": 117771.37949999871,
      "d": 339.2855729166622,
      "v": 106
    },
    {
      "midi": 75,
      "hit": false,
      "t": 117771.37949999946,
      "d": 682.1425729166658,
      "v": 100
    },
    {
      "midi": 82,
      "hit": false,
      "t": 117771.37949999946,
      "d": 682.1425729166658,
      "v": 100
    },
    {
      "midi": 39,
      "hit": false,
      "t": 118114.2364999987,
      "d": 167.85707291666768,
      "v": 106
    },
    {
      "midi": 44,
      "hit": false,
      "t": 118285.6649999987,
      "d": 167.85707291666768,
      "v": 106
    },
    {
      "midi": 32,
      "hit": false,
      "t": 118457.0934999987,
      "d": 167.85707291666768,
      "v": 106
    },
    {
      "midi": 72,
      "hit": false,
      "t": 118457.09349999945,
      "d": 2053.5705729166657,
      "v": 100
    },
    {
      "midi": 80,
      "hit": false,
      "t": 118457.09349999945,
      "d": 2053.5705729166657,
      "v": 100
    },
    {
      "midi": 39,
      "hit": false,
      "t": 118628.52199999869,
      "d": 167.85707291666768,
      "v": 106
    },
    {
      "midi": 44,
      "hit": false,
      "t": 118799.95049999868,
      "d": 339.2855729166622,
      "v": 106
    },
    {
      "midi": 32,
      "hit": false,
      "t": 119142.80749999867,
      "d": 339.2855729166622,
      "v": 106
    },
    {
      "midi": 39,
      "hit": false,
      "t": 119485.66449999866,
      "d": 167.85707291666768,
      "v": 106
    },
    {
      "midi": 41,
      "hit": false,
      "t": 119657.09299999865,
      "d": 167.85707291666768,
      "v": 106
    },
    {
      "midi": 32,
      "hit": false,
      "t": 119828.52149999865,
      "d": 167.85707291666768,
      "v": 106
    },
    {
      "midi": 39,
      "hit": false,
      "t": 119999.94999999864,
      "d": 167.85707291666768,
      "v": 106
    },
    {
      "midi": 41,
      "hit": false,
      "t": 120171.37849999864,
      "d": 339.2855729166622,
      "v": 106
    },
    {
      "midi": 32,
      "hit": false,
      "t": 120514.23549999863,
      "d": 339.2855729166622,
      "v": 106
    },
    {
      "midi": 75,
      "hit": false,
      "t": 120514.23549999944,
      "d": 682.1425729166658,
      "v": 100
    },
    {
      "midi": 82,
      "hit": false,
      "t": 120514.23549999944,
      "d": 682.1425729166658,
      "v": 100
    },
    {
      "midi": 39,
      "hit": false,
      "t": 120857.09249999862,
      "d": 167.85707291666768,
      "v": 106
    },
    {
      "midi": 44,
      "hit": false,
      "t": 121028.52099999861,
      "d": 167.85707291666768,
      "v": 106
    },
    {
      "midi": 32,
      "hit": false,
      "t": 121199.9494999986,
      "d": 167.85707291666768,
      "v": 106
    },
    {
      "midi": 72,
      "hit": false,
      "t": 121199.94949999943,
      "d": 2224.99907291666,
      "v": 100
    },
    {
      "midi": 80,
      "hit": false,
      "t": 121199.94949999943,
      "d": 2224.99907291666,
      "v": 100
    },
    {
      "midi": 39,
      "hit": false,
      "t": 121371.3779999986,
      "d": 167.85707291666768,
      "v": 106
    },
    {
      "midi": 44,
      "hit": false,
      "t": 121542.8064999986,
      "d": 339.2855729166622,
      "v": 106
    },
    {
      "midi": 32,
      "hit": false,
      "t": 121885.66349999858,
      "d": 339.2855729166622,
      "v": 106
    },
    {
      "midi": 39,
      "hit": false,
      "t": 122228.52049999857,
      "d": 167.85707291666768,
      "v": 106
    },
    {
      "midi": 41,
      "hit": false,
      "t": 122399.94899999857,
      "d": 167.85707291666768,
      "v": 106
    },
    {
      "midi": 32,
      "hit": false,
      "t": 122571.37749999856,
      "d": 167.85707291666768,
      "v": 106
    },
    {
      "midi": 39,
      "hit": false,
      "t": 122742.80599999856,
      "d": 167.85707291666768,
      "v": 106
    },
    {
      "midi": 41,
      "hit": false,
      "t": 122914.23449999855,
      "d": 339.2855729166622,
      "v": 106
    },
    {
      "midi": 32,
      "hit": false,
      "t": 123257.09149999854,
      "d": 3596.42707291666,
      "v": 106
    }
  ]
}