{
  "jsonPath": "Jazz/Jazz Trio/Vince Guaraldi Trio/what-child-is-this.json",
  "path": "Jazz\\Jazz Trio\\Vince Guaraldi Trio\\What Child Is This.mid",
  "name": "What Child Is This",
  "difficulty": "Advanced",
  "bpm": 120,
  "notes": [
    {
      "midi": 55,
      "hit": false,
      "t": 1500,
      "d": 328.125,
      "v": 91
    },
    {
      "midi": 56,
      "hit": false,
      "t": 1500,
      "d": 328.125,
      "v": 91
    },
    {
      "midi": 60,
      "hit": false,
      "t": 1500,
      "d": 328.125,
      "v": 110
    },
    {
      "midi": 41,
      "hit": false,
      "t": 1500,
      "d": 1494.791666666667,
      "v": 110
    },
    {
      "midi": 56,
      "hit": false,
      "t": 1833.3333333333333,
      "d": 328.1249999999998,
      "v": 110
    },
    {
      "midi": 60,
      "hit": false,
      "t": 2166.6666666666665,
      "d": 161.45833333333348,
      "v": 110
    },
    {
      "midi": 65,
      "hit": false,
      "t": 2333.3333333333335,
      "d": 161.45833333333348,
      "v": 110
    },
    {
      "midi": 67,
      "hit": false,
      "t": 2500.0000000000005,
      "d": 119.79166666666652,
      "v": 110
    },
    {
      "midi": 65,
      "hit": false,
      "t": 2625.0000000000005,
      "d": 119.79166666666652,
      "v": 110
    },
    {
      "midi": 68,
      "hit": false,
      "t": 2750.0000000000005,
      "d": 119.79166666666652,
      "v": 110
    },
    {
      "midi": 73,
      "hit": false,
      "t": 2875.0000000000005,
      "d": 119.79166666666652,
      "v": 110
    },
    {
      "midi": 78,
      "hit": false,
      "t": 3000.0000000000005,
      "d": 119.79166666666652,
      "v": 110
    },
    {
      "midi": 49,
      "hit": false,
      "t": 3000.0000000000005,
      "d": 1494.7916666666656,
      "v": 110
    },
    {
      "midi": 68,
      "hit": false,
      "t": 3125.0000000000005,
      "d": 119.79166666666652,
      "v": 110
    },
    {
      "midi": 77,
      "hit": false,
      "t": 3250.0000000000005,
      "d": 119.79166666666652,
      "v": 110
    },
    {
      "midi": 73,
      "hit": false,
      "t": 3375.0000000000005,
      "d": 119.79166666666652,
      "v": 110
    },
    {
      "midi": 68,
      "hit": false,
      "t": 3500.0000000000005,
      "d": 119.79166666666652,
      "v": 110
    },
    {
      "midi": 65,
      "hit": false,
      "t": 3625.0000000000005,
      "d": 369.7916666666665,
      "v": 110
    },
    {
      "midi": 65,
      "hit": false,
      "t": 4000.0000000000005,
      "d": 244.79166666666652,
      "v": 110
    },
    {
      "midi": 62,
      "hit": false,
      "t": 4250,
      "d": 78.125,
      "v": 110
    },
    {
      "midi": 65,
      "hit": false,
      "t": 4333.333333333333,
      "d": 78.125,
      "v": 110
    },
    {
      "midi": 70,
      "hit": false,
      "t": 4416.666666666666,
      "d": 78.125,
      "v": 110
    },
    {
      "midi": 74,
      "hit": false,
      "t": 4499.999999999999,
      "d": 328.125,
      "v": 110
    },
    {
      "midi": 46,
      "hit": false,
      "t": 4499.999999999999,
      "d": 1494.7916666666642,
      "v": 110
    },
    {
      "midi": 75,
      "hit": false,
      "t": 4833.333333333332,
      "d": 161.45833333333303,
      "v": 110
    },
    {
      "midi": 74,
      "hit": false,
      "t": 4999.999999999998,
      "d": 119.79166666666697,
      "v": 110
    },
    {
      "midi": 70,
      "hit": false,
      "t": 5124.999999999998,
      "d": 119.79166666666697,
      "v": 110
    },
    {
      "midi": 65,
      "hit": false,
      "t": 5249.999999999998,
      "d": 119.79166666666697,
      "v": 110
    },
    {
      "midi": 62,
      "hit": false,
      "t": 5374.999999999998,
      "d": 453.125,
      "v": 110
    },
    {
      "midi": 64,
      "hit": false,
      "t": 5833.333333333331,
      "d": 36.45833333333303,
      "v": 110
    },
    {
      "midi": 65,
      "hit": false,
      "t": 5874.999999999997,
      "d": 36.45833333333303,
      "v": 110
    },
    {
      "midi": 66,
      "hit": false,
      "t": 5874.999999999997,
      "d": 36.45833333333303,
      "v": 110
    },
    {
      "midi": 67,
      "hit": false,
      "t": 5916.666666666663,
      "d": 953.1249999999991,
      "v": 110
    },
    {
      "midi": 48,
      "hit": false,
      "t": 5999.999999999996,
      "d": 1494.791666666666,
      "v": 110
    },
    {
      "midi": 58,
      "hit": false,
      "t": 5999.999999999996,
      "d": 1494.791666666666,
      "v": 91
    },
    {
      "midi": 64,
      "hit": false,
      "t": 6833.333333333329,
      "d": 328.125,
      "v": 110
    },
    {
      "midi": 60,
      "hit": false,
      "t": 7166.666666666662,
      "d": 328.125,
      "v": 110
    },
    {
      "midi": 55,
      "hit": false,
      "t": 7499.999999999995,
      "d": 328.125,
      "v": 91
    },
    {
      "midi": 56,
      "hit": false,
      "t": 7499.999999999995,
      "d": 328.125,
      "v": 110
    },
    {
      "midi": 41,
      "hit": false,
      "t": 7499.999999999995,
      "d": 1494.7916666666706,
      "v": 110
    },
    {
      "midi": 55,
      "hit": false,
      "t": 7833.3333333333285,
      "d": 328.125,
      "v": 110
    },
    {
      "midi": 60,
      "hit": false,
      "t": 8166.6666666666615,
      "d": 161.45833333333303,
      "v": 110
    },
    {
      "midi": 63,
      "hit": false,
      "t": 8333.333333333328,
      "d": 161.45833333333394,
      "v": 110
    },
    {
      "midi": 67,
      "hit": false,
      "t": 8499.999999999996,
      "d": 161.45833333333394,
      "v": 110
    },
    {
      "midi": 65,
      "hit": false,
      "t": 8666.666666666664,
      "d": 161.45833333333394,
      "v": 110
    },
    {
      "midi": 68,
      "hit": false,
      "t": 8833.333333333332,
      "d": 161.45833333333394,
      "v": 110
    },
    {
      "midi": 73,
      "hit": false,
      "t": 9000,
      "d": 161.45833333333394,
      "v": 110
    },
    {
      "midi": 49,
      "hit": false,
      "t": 9000,
      "d": 1494.791666666677,
      "v": 110
    },
    {
      "midi": 77,
      "hit": false,
      "t": 9166.666666666668,
      "d": 161.45833333333394,
      "v": 110
    },
    {
      "midi": 78,
      "hit": false,
      "t": 9333.333333333336,
      "d": 161.45833333333394,
      "v": 110
    },
    {
      "midi": 77,
      "hit": false,
      "t": 9500.000000000004,
      "d": 161.45833333333394,
      "v": 110
    },
    {
      "midi": 73,
      "hit": false,
      "t": 9666.666666666672,
      "d": 161.45833333333394,
      "v": 110
    },
    {
      "midi": 68,
      "hit": false,
      "t": 9833.33333333334,
      "d": 161.45833333333394,
      "v": 110
    },
    {
      "midi": 65,
      "hit": false,
      "t": 10000.000000000007,
      "d": 161.45833333333394,
      "v": 110
    },
    {
      "midi": 62,
      "hit": false,
      "t": 10166.666666666675,
      "d": 161.45833333333394,
      "v": 110
    },
    {
      "midi": 65,
      "hit": false,
      "t": 10333.333333333343,
      "d": 161.45833333333394,
      "v": 110
    },
    {
      "midi": 70,
      "hit": false,
      "t": 10500.000000000011,
      "d": 161.45833333333394,
      "v": 110
    },
    {
      "midi": 46,
      "hit": false,
      "t": 10500.000000000011,
      "d": 1494.791666666677,
      "v": 110
    },
    {
      "midi": 74,
      "hit": false,
      "t": 10666.666666666679,
      "d": 161.45833333333394,
      "v": 110
    },
    {
      "midi": 75,
      "hit": false,
      "t": 10833.333333333347,
      "d": 161.45833333333394,
      "v": 110
    },
    {
      "midi": 74,
      "hit": false,
      "t": 11000.000000000015,
      "d": 161.45833333333394,
      "v": 110
    },
    {
      "midi": 70,
      "hit": false,
      "t": 11166.666666666682,
      "d": 161.45833333333394,
      "v": 110
    },
    {
      "midi": 65,
      "hit": false,
      "t": 11333.33333333335,
      "d": 161.45833333333394,
      "v": 110
    },
    {
      "midi": 62,
      "hit": false,
      "t": 11500.000000000018,
      "d": 328.125,
      "v": 110
    },
    {
      "midi": 65,
      "hit": false,
      "t": 11833.333333333352,
      "d": 36.45833333333394,
      "v": 110
    },
    {
      "midi": 66,
      "hit": false,
      "t": 11875.00000000002,
      "d": 36.45833333333394,
      "v": 110
    },
    {
      "midi": 67,
      "hit": false,
      "t": 11875.00000000002,
      "d": 619.7916666666679,
      "v": 110
    },
    {
      "midi": 48,
      "hit": false,
      "t": 12000.000000000022,
      "d": 1494.7916666666697,
      "v": 110
    },
    {
      "midi": 58,
      "hit": false,
      "t": 12000.000000000022,
      "d": 1494.7916666666697,
      "v": 91
    },
    {
      "midi": 64,
      "hit": false,
      "t": 12500.000000000022,
      "d": 661.4583333333339,
      "v": 110
    },
    {
      "midi": 65,
      "hit": false,
      "t": 13166.66666666669,
      "d": 161.45833333333394,
      "v": 110
    },
    {
      "midi": 67,
      "hit": false,
      "t": 13333.333333333358,
      "d": 161.45833333333394,
      "v": 110
    },
    {
      "midi": 60,
      "hit": false,
      "t": 13500.000000000025,
      "d": 1328.125,
      "v": 91
    },
    {
      "midi": 63,
      "hit": false,
      "t": 13500.000000000025,
      "d": 1328.125,
      "v": 91
    },
    {
      "midi": 68,
      "hit": false,
      "t": 13500.000000000025,
      "d": 1328.125,
      "v": 110
    },
    {
      "midi": 53,
      "hit": false,
      "t": 13500.000000000025,
      "d": 1494.7916666666679,
      "v": 110
    },
    {
      "midi": 56,
      "hit": false,
      "t": 13500.000000000025,
      "d": 1494.7916666666679,
      "v": 91
    },
    {
      "midi": 70,
      "hit": false,
      "t": 14833.33333333336,
      "d": 161.45833333333394,
      "v": 110
    },
    {
      "midi": 46,
      "hit": false,
      "t": 15000.000000000027,
      "d": 828.125,
      "v": 110
    },
    {
      "midi": 56,
      "hit": false,
      "t": 15000.000000000027,
      "d": 828.125,
      "v": 91
    },
    {
      "midi": 62,
      "hit": false,
      "t": 15000.000000000027,
      "d": 828.125,
      "v": 91
    },
    {
      "midi": 67,
      "hit": false,
      "t": 15000.000000000027,
      "d": 828.125,
      "v": 91
    },
    {
      "midi": 72,
      "hit": false,
      "t": 15000.000000000027,
      "d": 828.125,
      "v": 110
    },
    {
      "midi": 66,
      "hit": false,
      "t": 15833.333333333361,
      "d": 328.125,
      "v": 91
    },
    {
      "midi": 70,
      "hit": false,
      "t": 15833.333333333361,
      "d": 328.125,
      "v": 91
    },
    {
      "midi": 74,
      "hit": false,
      "t": 15833.333333333361,
      "d": 328.125,
      "v": 110
    },
    {
      "midi": 62,
      "hit": false,
      "t": 15833.333333333361,
      "d": 494.7916666666679,
      "v": 91
    },
    {
      "midi": 46,
      "hit": false,
      "t": 15833.333333333361,
      "d": 661.4583333333358,
      "v": 110
    },
    {
      "midi": 56,
      "hit": false,
      "t": 15833.333333333361,
      "d": 661.4583333333358,
      "v": 91
    },
    {
      "midi": 65,
      "hit": false,
      "t": 16166.666666666695,
      "d": 328.1250000000018,
      "v": 91
    },
    {
      "midi": 72,
      "hit": false,
      "t": 16166.666666666695,
      "d": 328.1250000000018,
      "v": 110
    },
    {
      "midi": 60,
      "hit": false,
      "t": 16500.00000000003,
      "d": 1328.125,
      "v": 91
    },
    {
      "midi": 65,
      "hit": false,
      "t": 16500.00000000003,
      "d": 1328.125,
      "v": 91
    },
    {
      "midi": 67,
      "hit": false,
      "t": 16500.00000000003,
      "d": 1328.125,
      "v": 91
    },
    {
      "midi": 70,
      "hit": false,
      "t": 16500.00000000003,
      "d": 1328.125,
      "v": 110
    },
    {
      "midi": 39,
      "hit": false,
      "t": 16500.00000000003,
      "d": 1494.7916666666606,
      "v": 110
    },
    {
      "midi": 65,
      "hit": false,
      "t": 17833.33333333336,
      "d": 36.45833333333212,
      "v": 110
    },
    {
      "midi": 66,
      "hit": false,
      "t": 17875.000000000025,
      "d": 36.45833333333212,
      "v": 110
    },
    {
      "midi": 67,
      "hit": false,
      "t": 17875.000000000025,
      "d": 119.79166666666424,
      "v": 110
    },
    {
      "midi": 58,
      "hit": false,
      "t": 18000.000000000022,
      "d": 328.125,
      "v": 91
    },
    {
      "midi": 60,
      "hit": false,
      "t": 18000.000000000022,
      "d": 828.125,
      "v": 91
    },
    {
      "midi": 63,
      "hit": false,
      "t": 18000.000000000022,
      "d": 828.125,
      "v": 110
    },
    {
      "midi": 44,
      "hit": false,
      "t": 18000.000000000022,
      "d": 1494.7916666666642,
      "v": 110
    },
    {
      "midi": 56,
      "hit": false,
      "t": 18333.333333333354,
      "d": 1161.4583333333321,
      "v": 91
    },
    {
      "midi": 65,
      "hit": false,
      "t": 18833.333333333354,
      "d": 328.125,
      "v": 110
    },
    {
      "midi": 67,
      "hit": false,
      "t": 19166.666666666686,
      "d": 328.125,
      "v": 110
    },
    {
      "midi": 60,
      "hit": false,
      "t": 19500.00000000002,
      "d": 1328.1250000000036,
      "v": 91
    },
    {
      "midi": 65,
      "hit": false,
      "t": 19500.00000000002,
      "d": 1328.1250000000036,
      "v": 91
    },
    {
      "midi": 68,
      "hit": false,
      "t": 19500.00000000002,
      "d": 1328.1250000000036,
      "v": 110
    },
    {
      "midi": 37,
      "hit": false,
      "t": 19500.00000000002,
      "d": 1494.7916666666679,
      "v": 110
    },
    {
      "midi": 44,
      "hit": false,
      "t": 19541.666666666686,
      "d": 1453.125,
      "v": 91
    },
    {
      "midi": 65,
      "hit": false,
      "t": 20833.333333333354,
      "d": 161.45833333333212,
      "v": 110
    },
    {
      "midi": 53,
      "hit": false,
      "t": 21000.00000000002,
      "d": 36.45833333333212,
      "v": 91
    },
    {
      "midi": 43,
      "hit": false,
      "t": 21000.00000000002,
      "d": 828.125,
      "v": 110
    },
    {
      "midi": 56,
      "hit": false,
      "t": 21000.00000000002,
      "d": 828.125,
      "v": 91
    },
    {
      "midi": 60,
      "hit": false,
      "t": 21000.00000000002,
      "d": 828.125,
      "v": 91
    },
    {
      "midi": 65,
      "hit": false,
      "t": 21000.00000000002,
      "d": 828.125,
      "v": 110
    },
    {
      "midi": 43,
      "hit": false,
      "t": 21833.33333333335,
      "d": 328.125,
      "v": 110
    },
    {
      "midi": 53,
      "hit": false,
      "t": 21833.33333333335,
      "d": 328.125,
      "v": 91
    },
    {
      "midi": 59,
      "hit": false,
      "t": 21833.33333333335,
      "d": 328.125,
      "v": 91
    },
    {
      "midi": 63,
      "hit": false,
      "t": 21833.33333333335,
      "d": 328.125,
      "v": 110
    },
    {
      "midi": 56,
      "hit": false,
      "t": 22166.666666666682,
      "d": 328.125,
      "v": 110
    },
    {
      "midi": 65,
      "hit": false,
      "t": 22166.666666666682,
      "d": 328.125,
      "v": 110
    },
    {
      "midi": 60,
      "hit": false,
      "t": 22500.000000000015,
      "d": 744.7916666666679,
      "v": 91
    },
    {
      "midi": 67,
      "hit": false,
      "t": 22500.000000000015,
      "d": 744.7916666666679,
      "v": 110
    },
    {
      "midi": 48,
      "hit": false,
      "t": 22500.000000000015,
      "d": 2994.7916666666642,
      "v": 110
    },
    {
      "midi": 55,
      "hit": false,
      "t": 22500.000000000015,
      "d": 2994.7916666666642,
      "v": 91
    },
    {
      "midi": 60,
      "hit": false,
      "t": 23250.000000000015,
      "d": 119.79166666666788,
      "v": 110
    },
    {
      "midi": 60,
      "hit": false,
      "t": 23375.000000000015,
      "d": 328.125,
      "v": 110
    },
    {
      "midi": 60,
      "hit": false,
      "t": 23708.333333333347,
      "d": 161.45833333333212,
      "v": 110
    },
    {
      "midi": 60,
      "hit": false,
      "t": 23875.00000000001,
      "d": 119.79166666666788,
      "v": 110
    },
    {
      "midi": 60,
      "hit": false,
      "t": 24000.00000000001,
      "d": 994.7916666666679,
      "v": 110
    },
    {
      "midi": 65,
      "hit": false,
      "t": 25333.333333333347,
      "d": 161.45833333333212,
      "v": 110
    },
    {
      "midi": 60,
      "hit": false,
      "t": 25500.00000000001,
      "d": 1328.125,
      "v": 91
    },
    {
      "midi": 63,
      "hit": false,
      "t": 25500.00000000001,
      "d": 1328.125,
      "v": 91
    },
    {
      "midi": 68,
      "hit": false,
      "t": 25500.00000000001,
      "d": 1328.125,
      "v": 110
    },
    {
      "midi": 53,
      "hit": false,
      "t": 25500.00000000001,
      "d": 1494.7916666666642,
      "v": 110
    },
    {
      "midi": 56,
      "hit": false,
      "t": 25500.00000000001,
      "d": 1494.7916666666642,
      "v": 91
    },
    {
      "midi": 60,
      "hit": false,
      "t": 26833.333333333343,
      "d": 161.45833333333212,
      "v": 91
    },
    {
      "midi": 63,
      "hit": false,
      "t": 26833.333333333343,
      "d": 161.45833333333212,
      "v": 91
    },
    {
      "midi": 70,
      "hit": false,
      "t": 26833.333333333343,
      "d": 161.45833333333212,
      "v": 110
    },
    {
      "midi": 46,
      "hit": false,
      "t": 27000.000000000007,
      "d": 828.125,
      "v": 110
    },
    {
      "midi": 56,
      "hit": false,
      "t": 27000.000000000007,
      "d": 828.125,
      "v": 91
    },
    {
      "midi": 62,
      "hit": false,
      "t": 27000.000000000007,
      "d": 828.125,
      "v": 91
    },
    {
      "midi": 67,
      "hit": false,
      "t": 27000.000000000007,
      "d": 828.125,
      "v": 91
    },
    {
      "midi": 72,
      "hit": false,
      "t": 27000.000000000007,
      "d": 828.125,
      "v": 110
    },
    {
      "midi": 66,
      "hit": false,
      "t": 27833.33333333334,
      "d": 328.125,
      "v": 91
    },
    {
      "midi": 70,
      "hit": false,
      "t": 27833.33333333334,
      "d": 328.125,
      "v": 91
    },
    {
      "midi": 74,
      "hit": false,
      "t": 27833.33333333334,
      "d": 328.125,
      "v": 110
    },
    {
      "midi": 62,
      "hit": false,
      "t": 27833.33333333334,
      "d": 494.79166666666424,
      "v": 91
    },
    {
      "midi": 46,
      "hit": false,
      "t": 27833.33333333334,
      "d": 661.4583333333321,
      "v": 110
    },
    {
      "midi": 56,
      "hit": false,
      "t": 27833.33333333334,
      "d": 661.4583333333321,
      "v": 91
    },
    {
      "midi": 65,
      "hit": false,
      "t": 28166.66666666667,
      "d": 328.125,
      "v": 91
    },
    {
      "midi": 72,
      "hit": false,
      "t": 28166.66666666667,
      "d": 328.125,
      "v": 110
    },
    {
      "midi": 60,
      "hit": false,
      "t": 28500.000000000004,
      "d": 1328.125,
      "v": 91
    },
    {
      "midi": 65,
      "hit": false,
      "t": 28500.000000000004,
      "d": 1328.125,
      "v": 91
    },
    {
      "midi": 67,
      "hit": false,
      "t": 28500.000000000004,
      "d": 1328.125,
      "v": 91
    },
    {
      "midi": 70,
      "hit": false,
      "t": 28500.000000000004,
      "d": 1328.125,
      "v": 110
    },
    {
      "midi": 39,
      "hit": false,
      "t": 28500.000000000004,
      "d": 1494.7916666666606,
      "v": 110
    },
    {
      "midi": 65,
      "hit": false,
      "t": 29833.333333333336,
      "d": 36.45833333333212,
      "v": 110
    },
    {
      "midi": 66,
      "hit": false,
      "t": 29875,
      "d": 36.45833333333212,
      "v": 110
    },
    {
      "midi": 67,
      "hit": false,
      "t": 29875,
      "d": 119.79166666666424,
      "v": 110
    },
    {
      "midi": 58,
      "hit": false,
      "t": 29999.999999999996,
      "d": 328.125,
      "v": 91
    },
    {
      "midi": 60,
      "hit": false,
      "t": 29999.999999999996,
      "d": 828.125,
      "v": 91
    },
    {
      "midi": 63,
      "hit": false,
      "t": 29999.999999999996,
      "d": 828.125,
      "v": 110
    },
    {
      "midi": 44,
      "hit": false,
      "t": 29999.999999999996,
      "d": 1494.7916666666642,
      "v": 110
    },
    {
      "midi": 56,
      "hit": false,
      "t": 30333.33333333333,
      "d": 1161.4583333333321,
      "v": 91
    },
    {
      "midi": 65,
      "hit": false,
      "t": 30833.33333333333,
      "d": 328.125,
      "v": 110
    },
    {
      "midi": 67,
      "hit": false,
      "t": 31166.66666666666,
      "d": 328.125,
      "v": 110
    },
    {
      "midi": 60,
      "hit": false,
      "t": 31499.999999999993,
      "d": 828.1250000000036,
      "v": 91
    },
    {
      "midi": 65,
      "hit": false,
      "t": 31499.999999999993,
      "d": 828.1250000000036,
      "v": 91
    },
    {
      "midi": 68,
      "hit": false,
      "t": 31499.999999999993,
      "d": 828.1250000000036,
      "v": 110
    },
    {
      "midi": 37,
      "hit": false,
      "t": 31499.999999999993,
      "d": 1494.7916666666642,
      "v": 110
    },
    {
      "midi": 44,
      "hit": false,
      "t": 31541.66666666666,
      "d": 1453.1249999999964,
      "v": 91
    },
    {
      "midi": 53,
      "hit": false,
      "t": 31583.33333333333,
      "d": 1453.125,
      "v": 91
    },
    {
      "midi": 67,
      "hit": false,
      "t": 32333.33333333333,
      "d": 328.125,
      "v": 110
    },
    {
      "midi": 65,
      "hit": false,
      "t": 32666.66666666666,
      "d": 328.12499999999636,
      "v": 110
    },
    {
      "midi": 64,
      "hit": false,
      "t": 32999.99999999999,
      "d": 828.125,
      "v": 110
    },
    {
      "midi": 48,
      "hit": false,
      "t": 32999.99999999999,
      "d": 1494.7916666666715,
      "v": 110
    },
    {
      "midi": 58,
      "hit": false,
      "t": 32999.99999999999,
      "d": 1494.7916666666715,
      "v": 91
    },
    {
      "midi": 62,
      "hit": false,
      "t": 33833.33333333333,
      "d": 328.125,
      "v": 110
    },
    {
      "midi": 64,
      "hit": false,
      "t": 34166.666666666664,
      "d": 328.125,
      "v": 110
    },
    {
      "midi": 65,
      "hit": false,
      "t": 34500,
      "d": 328.125,
      "v": 110
    },
    {
      "midi": 41,
      "hit": false,
      "t": 34500,
      "d": 1494.7916666666933,
      "v": 110
    },
    {
      "midi": 55,
      "hit": false,
      "t": 34833.333333333336,
      "d": 328.125,
      "v": 110
    },
    {
      "midi": 60,
      "hit": false,
      "t": 35166.66666666667,
      "d": 161.45833333333576,
      "v": 110
    },
    {
      "midi": 63,
      "hit": false,
      "t": 35333.33333333334,
      "d": 161.45833333333576,
      "v": 110
    },
    {
      "midi": 67,
      "hit": false,
      "t": 35500.000000000015,
      "d": 161.45833333333576,
      "v": 110
    },
    {
      "midi": 65,
      "hit": false,
      "t": 35666.666666666686,
      "d": 161.45833333333576,
      "v": 110
    },
    {
      "midi": 68,
      "hit": false,
      "t": 35833.33333333336,
      "d": 161.45833333333576,
      "v": 110
    },
    {
      "midi": 73,
      "hit": false,
      "t": 36000.00000000003,
      "d": 161.45833333333576,
      "v": 110
    },
    {
      "midi": 49,
      "hit": false,
      "t": 36000.00000000003,
      "d": 1494.791666666708,
      "v": 110
    },
    {
      "midi": 77,
      "hit": false,
      "t": 36166.6666666667,
      "d": 161.45833333333576,
      "v": 110
    },
    {
      "midi": 78,
      "hit": false,
      "t": 36333.33333333337,
      "d": 161.45833333333576,
      "v": 110
    },
    {
      "midi": 77,
      "hit": false,
      "t": 36500.000000000044,
      "d": 161.45833333333576,
      "v": 110
    },
    {
      "midi": 73,
      "hit": false,
      "t": 36666.666666666715,
      "d": 161.45833333333576,
      "v": 110
    },
    {
      "midi": 68,
      "hit": false,
      "t": 36833.33333333339,
      "d": 161.45833333333576,
      "v": 110
    },
    {
      "midi": 65,
      "hit": false,
      "t": 37000.00000000006,
      "d": 161.45833333333576,
      "v": 110
    },
    {
      "midi": 62,
      "hit": false,
      "t": 37166.66666666673,
      "d": 161.45833333333576,
      "v": 110
    },
    {
      "midi": 65,
      "hit": false,
      "t": 37333.3333333334,
      "d": 161.45833333333576,
      "v": 110
    },
    {
      "midi": 70,
      "hit": false,
      "t": 37500.00000000007,
      "d": 161.45833333333576,
      "v": 110
    },
    {
      "midi": 46,
      "hit": false,
      "t": 37500.00000000007,
      "d": 1494.791666666708,
      "v": 110
    },
    {
      "midi": 74,
      "hit": false,
      "t": 37666.666666666744,
      "d": 161.45833333333576,
      "v": 110
    },
    {
      "midi": 75,
      "hit": false,
      "t": 37833.333333333416,
      "d": 161.45833333333576,
      "v": 110
    },
    {
      "midi": 74,
      "hit": false,
      "t": 38000.00000000009,
      "d": 161.45833333333576,
      "v": 110
    },
    {
      "midi": 70,
      "hit": false,
      "t": 38166.66666666676,
      "d": 161.45833333333576,
      "v": 110
    },
    {
      "midi": 65,
      "hit": false,
      "t": 38333.33333333343,
      "d": 161.45833333333576,
      "v": 110
    },
    {
      "midi": 62,
      "hit": false,
      "t": 38500.0000000001,
      "d": 328.125,
      "v": 110
    },
    {
      "midi": 65,
      "hit": false,
      "t": 38833.33333333344,
      "d": 36.45833333333576,
      "v": 110
    },
    {
      "midi": 66,
      "hit": false,
      "t": 38875.00000000011,
      "d": 36.45833333333576,
      "v": 110
    },
    {
      "midi": 67,
      "hit": false,
      "t": 38875.00000000011,
      "d": 619.7916666666715,
      "v": 110
    },
    {
      "midi": 48,
      "hit": false,
      "t": 39000.00000000012,
      "d": 1494.7916666666715,
      "v": 110
    },
    {
      "midi": 58,
      "hit": false,
      "t": 39000.00000000012,
      "d": 1494.7916666666715,
      "v": 91
    },
    {
      "midi": 64,
      "hit": false,
      "t": 39500.00000000012,
      "d": 328.125,
      "v": 110
    },
    {
      "midi": 65,
      "hit": false,
      "t": 39833.33333333345,
      "d": 328.125,
      "v": 110
    },
    {
      "midi": 67,
      "hit": false,
      "t": 40166.66666666679,
      "d": 328.125,
      "v": 110
    },
    {
      "midi": 68,
      "hit": false,
      "t": 40500.000000000124,
      "d": 328.125,
      "v": 110
    },
    {
      "midi": 41,
      "hit": false,
      "t": 40500.000000000124,
      "d": 1494.7916666666788,
      "v": 110
    },
    {
      "midi": 56,
      "hit": false,
      "t": 40833.33333333346,
      "d": 328.125,
      "v": 110
    },
    {
      "midi": 60,
      "hit": false,
      "t": 41166.666666666795,
      "d": 328.125,
      "v": 110
    },
    {
      "midi": 63,
      "hit": false,
      "t": 41500.00000000013,
      "d": 328.125,
      "v": 110
    },
    {
      "midi": 65,
      "hit": false,
      "t": 41833.33333333347,
      "d": 328.1250000000073,
      "v": 110
    },
    {
      "midi": 49,
      "hit": false,
      "t": 42000.00000000014,
      "d": 1494.7916666666788,
      "v": 110
    },
    {
      "midi": 68,
      "hit": false,
      "t": 42166.66666666681,
      "d": 328.125,
      "v": 110
    },
    {
      "midi": 73,
      "hit": false,
      "t": 42500.000000000146,
      "d": 328.125,
      "v": 91
    },
    {
      "midi": 78,
      "hit": false,
      "t": 42500.000000000146,
      "d": 328.125,
      "v": 110
    },
    {
      "midi": 73,
      "hit": false,
      "t": 42833.33333333348,
      "d": 328.125,
      "v": 91
    },
    {
      "midi": 77,
      "hit": false,
      "t": 42833.33333333348,
      "d": 328.125,
      "v": 110
    },
    {
      "midi": 68,
      "hit": false,
      "t": 43166.66666666682,
      "d": 328.125,
      "v": 91
    },
    {
      "midi": 73,
      "hit": false,
      "t": 43166.66666666682,
      "d": 328.125,
      "v": 110
    },
    {
      "midi": 46,
      "hit": false,
      "t": 43500.00000000015,
      "d": 1494.7916666666788,
      "v": 110
    },
    {
      "midi": 62,
      "hit": false,
      "t": 43833.33333333349,
      "d": 328.125,
      "v": 91
    },
    {
      "midi": 65,
      "hit": false,
      "t": 43833.33333333349,
      "d": 328.125,
      "v": 110
    },
    {
      "midi": 65,
      "hit": false,
      "t": 44166.666666666824,
      "d": 328.125,
      "v": 91
    },
    {
      "midi": 70,
      "hit": false,
      "t": 44166.666666666824,
      "d": 328.125,
      "v": 110
    },
    {
      "midi": 70,
      "hit": false,
      "t": 44500.00000000016,
      "d": 328.125,
      "v": 91
    },
    {
      "midi": 74,
      "hit": false,
      "t": 44500.00000000016,
      "d": 328.125,
      "v": 110
    },
    {
      "midi": 64,
      "hit": false,
      "t": 44833.333333333496,
      "d": 994.7916666666715,
      "v": 91
    },
    {
      "midi": 67,
      "hit": false,
      "t": 44833.333333333496,
      "d": 994.7916666666715,
      "v": 110
    },
    {
      "midi": 48,
      "hit": false,
      "t": 45000.00000000017,
      "d": 1494.7916666666715,
      "v": 110
    },
    {
      "midi": 58,
      "hit": false,
      "t": 45333.3333333335,
      "d": 1161.4583333333358,
      "v": 91
    },
    {
      "midi": 65,
      "hit": false,
      "t": 45833.3333333335,
      "d": 328.125,
      "v": 110
    },
    {
      "midi": 67,
      "hit": false,
      "t": 46166.66666666684,
      "d": 328.125,
      "v": 110
    },
    {
      "midi": 60,
      "hit": false,
      "t": 46500.000000000175,
      "d": 1328.125,
      "v": 91
    },
    {
      "midi": 63,
      "hit": false,
      "t": 46500.000000000175,
      "d": 1328.125,
      "v": 91
    },
    {
      "midi": 68,
      "hit": false,
      "t": 46500.000000000175,
      "d": 1328.125,
      "v": 110
    },
    {
      "midi": 53,
      "hit": false,
      "t": 46500.000000000175,
      "d": 1494.7916666666715,
      "v": 110
    },
    {
      "midi": 56,
      "hit": false,
      "t": 46500.000000000175,
      "d": 1494.7916666666715,
      "v": 91
    },
    {
      "midi": 70,
      "hit": false,
      "t": 47833.33333333351,
      "d": 161.45833333333576,
      "v": 110
    },
    {
      "midi": 46,
      "hit": false,
      "t": 48000.00000000018,
      "d": 828.125,
      "v": 110
    },
    {
      "midi": 56,
      "hit": false,
      "t": 48000.00000000018,
      "d": 828.125,
      "v": 91
    },
    {
      "midi": 62,
      "hit": false,
      "t": 48000.00000000018,
      "d": 828.125,
      "v": 91
    },
    {
      "midi": 67,
      "hit": false,
      "t": 48000.00000000018,
      "d": 828.125,
      "v": 91
    },
    {
      "midi": 72,
      "hit": false,
      "t": 48000.00000000018,
      "d": 828.125,
      "v": 110
    },
    {
      "midi": 66,
      "hit": false,
      "t": 48833.33333333352,
      "d": 328.125,
      "v": 91
    },
    {
      "midi": 70,
      "hit": false,
      "t": 48833.33333333352,
      "d": 328.125,
      "v": 91
    },
    {
      "midi": 74,
      "hit": false,
      "t": 48833.33333333352,
      "d": 328.125,
      "v": 110
    },
    {
      "midi": 62,
      "hit": false,
      "t": 48833.33333333352,
      "d": 494.7916666666715,
      "v": 91
    },
    {
      "midi": 46,
      "hit": false,
      "t": 48833.33333333352,
      "d": 661.4583333333358,
      "v": 110
    },
    {
      "midi": 56,
      "hit": false,
      "t": 48833.33333333352,
      "d": 661.4583333333358,
      "v": 91
    },
    {
      "midi": 65,
      "hit": false,
      "t": 49166.66666666685,
      "d": 328.125,
      "v": 91
    },
    {
      "midi": 72,
      "hit": false,
      "t": 49166.66666666685,
      "d": 328.125,
      "v": 110
    },
    {
      "midi": 60,
      "hit": false,
      "t": 49500.00000000019,
      "d": 1328.125,
      "v": 91
    },
    {
      "midi": 65,
      "hit": false,
      "t": 49500.00000000019,
      "d": 1328.125,
      "v": 91
    },
    {
      "midi": 67,
      "hit": false,
      "t": 49500.00000000019,
      "d": 1328.125,
      "v": 91
    },
    {
      "midi": 70,
      "hit": false,
      "t": 49500.00000000019,
      "d": 1328.125,
      "v": 110
    },
    {
      "midi": 39,
      "hit": false,
      "t": 49500.00000000019,
      "d": 1494.7916666666788,
      "v": 110
    },
    {
      "midi": 65,
      "hit": false,
      "t": 50833.333333333525,
      "d": 36.45833333333576,
      "v": 110
    },
    {
      "midi": 66,
      "hit": false,
      "t": 50875.0000000002,
      "d": 36.45833333333576,
      "v": 110
    },
    {
      "midi": 67,
      "hit": false,
      "t": 50875.0000000002,
      "d": 119.79166666667152,
      "v": 110
    },
    {
      "midi": 58,
      "hit": false,
      "t": 51000.000000000204,
      "d": 328.125,
      "v": 91
    },
    {
      "midi": 60,
      "hit": false,
      "t": 51000.000000000204,
      "d": 828.125,
      "v": 91
    },
    {
      "midi": 63,
      "hit": false,
      "t": 51000.000000000204,
      "d": 828.125,
      "v": 110
    },
    {
      "midi": 44,
      "hit": false,
      "t": 51000.000000000204,
      "d": 1494.7916666666715,
      "v": 110
    },
    {
      "midi": 56,
      "hit": false,
      "t": 51333.33333333354,
      "d": 1161.4583333333358,
      "v": 91
    },
    {
      "midi": 65,
      "hit": false,
      "t": 51833.33333333354,
      "d": 328.125,
      "v": 110
    },
    {
      "midi": 67,
      "hit": false,
      "t": 52166.666666666875,
      "d": 328.125,
      "v": 110
    },
    {
      "midi": 60,
      "hit": false,
      "t": 52500.00000000021,
      "d": 1328.1249999999927,
      "v": 91
    },
    {
      "midi": 65,
      "hit": false,
      "t": 52500.00000000021,
      "d": 1328.1249999999927,
      "v": 91
    },
    {
      "midi": 68,
      "hit": false,
      "t": 52500.00000000021,
      "d": 1328.1249999999927,
      "v": 110
    },
    {
      "midi": 37,
      "hit": false,
      "t": 52500.00000000021,
      "d": 1494.7916666666642,
      "v": 110
    },
    {
      "midi": 44,
      "hit": false,
      "t": 52541.666666666875,
      "d": 1453.125,
      "v": 91
    },
    {
      "midi": 65,
      "hit": false,
      "t": 53833.33333333354,
      "d": 161.45833333333576,
      "v": 110
    },
    {
      "midi": 53,
      "hit": false,
      "t": 54000.00000000021,
      "d": 36.45833333333576,
      "v": 91
    },
    {
      "midi": 43,
      "hit": false,
      "t": 54000.00000000021,
      "d": 828.125,
      "v": 110
    },
    {
      "midi": 56,
      "hit": false,
      "t": 54000.00000000021,
      "d": 828.125,
      "v": 91
    },
    {
      "midi": 60,
      "hit": false,
      "t": 54000.00000000021,
      "d": 828.125,
      "v": 91
    },
    {
      "midi": 65,
      "hit": false,
      "t": 54000.00000000021,
      "d": 828.125,
      "v": 110
    },
    {
      "midi": 43,
      "hit": false,
      "t": 54833.33333333355,
      "d": 328.125,
      "v": 110
    },
    {
      "midi": 53,
      "hit": false,
      "t": 54833.33333333355,
      "d": 328.125,
      "v": 91
    },
    {
      "midi": 59,
      "hit": false,
      "t": 54833.33333333355,
      "d": 328.125,
      "v": 91
    },
    {
      "midi": 63,
      "hit": false,
      "t": 54833.33333333355,
      "d": 328.125,
      "v": 110
    },
    {
      "midi": 56,
      "hit": false,
      "t": 55166.66666666688,
      "d": 328.125,
      "v": 110
    },
    {
      "midi": 65,
      "hit": false,
      "t": 55166.66666666688,
      "d": 328.125,
      "v": 110
    },
    {
      "midi": 60,
      "hit": false,
      "t": 55500.00000000022,
      "d": 744.7916666666642,
      "v": 91
    },
    {
      "midi": 67,
      "hit": false,
      "t": 55500.00000000022,
      "d": 744.7916666666642,
      "v": 110
    },
    {
      "midi": 48,
      "hit": false,
      "t": 55500.00000000022,
      "d": 2994.7916666666715,
      "v": 110
    },
    {
      "midi": 55,
      "hit": false,
      "t": 55500.00000000022,
      "d": 2994.7916666666715,
      "v": 91
    },
    {
      "midi": 60,
      "hit": false,
      "t": 56250.00000000022,
      "d": 119.79166666666424,
      "v": 110
    },
    {
      "midi": 60,
      "hit": false,
      "t": 56375.00000000022,
      "d": 328.125,
      "v": 110
    },
    {
      "midi": 60,
      "hit": false,
      "t": 56708.333333333554,
      "d": 161.45833333333576,
      "v": 110
    },
    {
      "midi": 60,
      "hit": false,
      "t": 56875.000000000226,
      "d": 119.79166666666424,
      "v": 110
    },
    {
      "midi": 60,
      "hit": false,
      "t": 57000.000000000226,
      "d": 994.7916666666642,
      "v": 110
    },
    {
      "midi": 65,
      "hit": false,
      "t": 58333.333333333554,
      "d": 161.45833333333576,
      "v": 110
    },
    {
      "midi": 60,
      "hit": false,
      "t": 58500.000000000226,
      "d": 1328.125,
      "v": 91
    },
    {
      "midi": 63,
      "hit": false,
      "t": 58500.000000000226,
      "d": 1328.125,
      "v": 91
    },
    {
      "midi": 68,
      "hit": false,
      "t": 58500.000000000226,
      "d": 1328.125,
      "v": 110
    },
    {
      "midi": 53,
      "hit": false,
      "t": 58500.000000000226,
      "d": 1494.7916666666715,
      "v": 110
    },
    {
      "midi": 56,
      "hit": false,
      "t": 58500.000000000226,
      "d": 1494.7916666666715,
      "v": 91
    },
    {
      "midi": 60,
      "hit": false,
      "t": 59833.33333333356,
      "d": 161.45833333333576,
      "v": 91
    },
    {
      "midi": 63,
      "hit": false,
      "t": 59833.33333333356,
      "d": 161.45833333333576,
      "v": 91
    },
    {
      "midi": 70,
      "hit": false,
      "t": 59833.33333333356,
      "d": 161.45833333333576,
      "v": 110
    },
    {
      "midi": 46,
      "hit": false,
      "t": 60000.00000000023,
      "d": 828.125,
      "v": 110
    },
    {
      "midi": 56,
      "hit": false,
      "t": 60000.00000000023,
      "d": 828.125,
      "v": 91
    },
    {
      "midi": 62,
      "hit": false,
      "t": 60000.00000000023,
      "d": 828.125,
      "v": 91
    },
    {
      "midi": 67,
      "hit": false,
      "t": 60000.00000000023,
      "d": 828.125,
      "v": 91
    },
    {
      "midi": 72,
      "hit": false,
      "t": 60000.00000000023,
      "d": 828.125,
      "v": 110
    },
    {
      "midi": 66,
      "hit": false,
      "t": 60833.33333333357,
      "d": 328.125,
      "v": 91
    },
    {
      "midi": 70,
      "hit": false,
      "t": 60833.33333333357,
      "d": 328.125,
      "v": 91
    },
    {
      "midi": 74,
      "hit": false,
      "t": 60833.33333333357,
      "d": 328.125,
      "v": 110
    },
    {
      "midi": 62,
      "hit": false,
      "t": 60833.33333333357,
      "d": 494.7916666666715,
      "v": 91
    },
    {
      "midi": 46,
      "hit": false,
      "t": 60833.33333333357,
      "d": 661.4583333333358,
      "v": 110
    },
    {
      "midi": 56,
      "hit": false,
      "t": 60833.33333333357,
      "d": 661.4583333333358,
      "v": 91
    },
    {
      "midi": 65,
      "hit": false,
      "t": 61166.666666666904,
      "d": 328.125,
      "v": 91
    },
    {
      "midi": 72,
      "hit": false,
      "t": 61166.666666666904,
      "d": 328.125,
      "v": 110
    },
    {
      "midi": 60,
      "hit": false,
      "t": 61500.00000000024,
      "d": 1328.125,
      "v": 91
    },
    {
      "midi": 65,
      "hit": false,
      "t": 61500.00000000024,
      "d": 1328.125,
      "v": 91
    },
    {
      "midi": 67,
      "hit": false,
      "t": 61500.00000000024,
      "d": 1328.125,
      "v": 91
    },
    {
      "midi": 70,
      "hit": false,
      "t": 61500.00000000024,
      "d": 1328.125,
      "v": 110
    },
    {
      "midi": 39,
      "hit": false,
      "t": 61500.00000000024,
      "d": 1494.7916666666788,
      "v": 110
    },
    {
      "midi": 65,
      "hit": false,
      "t": 62833.333333333576,
      "d": 36.45833333333576,
      "v": 110
    },
    {
      "midi": 66,
      "hit": false,
      "t": 62875.00000000025,
      "d": 36.45833333333576,
      "v": 110
    },
    {
      "midi": 67,
      "hit": false,
      "t": 62875.00000000025,
      "d": 119.79166666667152,
      "v": 110
    },
    {
      "midi": 58,
      "hit": false,
      "t": 63000.000000000255,
      "d": 328.125,
      "v": 91
    },
    {
      "midi": 60,
      "hit": false,
      "t": 63000.000000000255,
      "d": 828.125,
      "v": 91
    },
    {
      "midi": 63,
      "hit": false,
      "t": 63000.000000000255,
      "d": 828.125,
      "v": 110
    },
    {
      "midi": 44,
      "hit": false,
      "t": 63000.000000000255,
      "d": 1494.7916666666715,
      "v": 110
    },
    {
      "midi": 56,
      "hit": false,
      "t": 63333.33333333359,
      "d": 1161.4583333333358,
      "v": 91
    },
    {
      "midi": 65,
      "hit": false,
      "t": 63833.33333333359,
      "d": 328.125,
      "v": 110
    },
    {
      "midi": 67,
      "hit": false,
      "t": 64166.666666666926,
      "d": 328.125,
      "v": 110
    },
    {
      "midi": 60,
      "hit": false,
      "t": 64500.00000000026,
      "d": 828.1249999999927,
      "v": 91
    },
    {
      "midi": 65,
      "hit": false,
      "t": 64500.00000000026,
      "d": 828.1249999999927,
      "v": 91
    },
    {
      "midi": 68,
      "hit": false,
      "t": 64500.00000000026,
      "d": 828.1249999999927,
      "v": 110
    },
    {
      "midi": 37,
      "hit": false,
      "t": 64500.00000000026,
      "d": 1494.791666666657,
      "v": 110
    },
    {
      "midi": 44,
      "hit": false,
      "t": 64541.666666666926,
      "d": 1453.1249999999927,
      "v": 91
    },
    {
      "midi": 53,
      "hit": false,
      "t": 64583.33333333359,
      "d": 1453.1249999999854,
      "v": 91
    },
    {
      "midi": 67,
      "hit": false,
      "t": 65333.33333333359,
      "d": 328.125,
      "v": 110
    },
    {
      "midi": 65,
      "hit": false,
      "t": 65666.66666666692,
      "d": 328.125,
      "v": 110
    },
    {
      "midi": 64,
      "hit": false,
      "t": 66000.00000000025,
      "d": 828.125,
      "v": 110
    },
    {
      "midi": 48,
      "hit": false,
      "t": 66000.00000000025,
      "d": 1494.791666666657,
      "v": 110
    },
    {
      "midi": 58,
      "hit": false,
      "t": 66000.00000000025,
      "d": 1494.791666666657,
      "v": 91
    },
    {
      "midi": 62,
      "hit": false,
      "t": 66833.33333333358,
      "d": 328.125,
      "v": 110
    },
    {
      "midi": 64,
      "hit": false,
      "t": 67166.6666666669,
      "d": 328.125,
      "v": 110
    },
    {
      "midi": 65,
      "hit": false,
      "t": 67500.00000000023,
      "d": 328.125,
      "v": 110
    },
    {
      "midi": 41,
      "hit": false,
      "t": 67500.00000000023,
      "d": 1494.7916666666133,
      "v": 110
    },
    {
      "midi": 55,
      "hit": false,
      "t": 67833.33333333356,
      "d": 328.125,
      "v": 110
    },
    {
      "midi": 60,
      "hit": false,
      "t": 68166.66666666689,
      "d": 161.45833333332848,
      "v": 110
    },
    {
      "midi": 63,
      "hit": false,
      "t": 68333.33333333355,
      "d": 161.45833333332848,
      "v": 110
    },
    {
      "midi": 67,
      "hit": false,
      "t": 68500.0000000002,
      "d": 161.45833333332848,
      "v": 110
    },
    {
      "midi": 65,
      "hit": false,
      "t": 68666.66666666686,
      "d": 161.45833333332848,
      "v": 110
    },
    {
      "midi": 68,
      "hit": false,
      "t": 68833.33333333352,
      "d": 161.45833333332848,
      "v": 110
    },
    {
      "midi": 73,
      "hit": false,
      "t": 69000.00000000017,
      "d": 161.45833333332848,
      "v": 110
    },
    {
      "midi": 49,
      "hit": false,
      "t": 69000.00000000017,
      "d": 1494.7916666665842,
      "v": 110
    },
    {
      "midi": 77,
      "hit": false,
      "t": 69166.66666666683,
      "d": 161.45833333332848,
      "v": 110
    },
    {
      "midi": 78,
      "hit": false,
      "t": 69333.33333333349,
      "d": 161.45833333332848,
      "v": 110
    },
    {
      "midi": 77,
      "hit": false,
      "t": 69500.00000000015,
      "d": 161.45833333332848,
      "v": 110
    },
    {
      "midi": 73,
      "hit": false,
      "t": 69666.6666666668,
      "d": 161.45833333332848,
      "v": 110
    },
    {
      "midi": 68,
      "hit": false,
      "t": 69833.33333333346,
      "d": 161.45833333332848,
      "v": 110
    },
    {
      "midi": 65,
      "hit": false,
      "t": 70000.00000000012,
      "d": 161.45833333332848,
      "v": 110
    },
    {
      "midi": 62,
      "hit": false,
      "t": 70166.66666666677,
      "d": 161.45833333332848,
      "v": 110
    },
    {
      "midi": 65,
      "hit": false,
      "t": 70333.33333333343,
      "d": 161.45833333332848,
      "v": 110
    },
    {
      "midi": 70,
      "hit": false,
      "t": 70500.00000000009,
      "d": 161.45833333332848,
      "v": 110
    },
    {
      "midi": 46,
      "hit": false,
      "t": 70500.00000000009,
      "d": 1494.7916666665842,
      "v": 110
    },
    {
      "midi": 74,
      "hit": false,
      "t": 70666.66666666674,
      "d": 161.45833333332848,
      "v": 110
    },
    {
      "midi": 75,
      "hit": false,
      "t": 70833.3333333334,
      "d": 161.45833333332848,
      "v": 110
    },
    {
      "midi": 74,
      "hit": false,
      "t": 71000.00000000006,
      "d": 161.45833333332848,
      "v": 110
    },
    {
      "midi": 70,
      "hit": false,
      "t": 71166.66666666672,
      "d": 161.45833333332848,
      "v": 110
    },
    {
      "midi": 65,
      "hit": false,
      "t": 71333.33333333337,
      "d": 161.45833333332848,
      "v": 110
    },
    {
      "midi": 62,
      "hit": false,
      "t": 71500.00000000003,
      "d": 328.125,
      "v": 110
    },
    {
      "midi": 65,
      "hit": false,
      "t": 71833.33333333336,
      "d": 36.45833333332848,
      "v": 110
    },
    {
      "midi": 66,
      "hit": false,
      "t": 71875.00000000001,
      "d": 36.45833333332848,
      "v": 110
    },
    {
      "midi": 67,
      "hit": false,
      "t": 71875.00000000001,
      "d": 619.791666666657,
      "v": 110
    },
    {
      "midi": 48,
      "hit": false,
      "t": 72000,
      "d": 1494.791666666657,
      "v": 110
    },
    {
      "midi": 58,
      "hit": false,
      "t": 72000,
      "d": 1494.791666666657,
      "v": 91
    },
    {
      "midi": 64,
      "hit": false,
      "t": 72500,
      "d": 328.125,
      "v": 110
    },
    {
      "midi": 65,
      "hit": false,
      "t": 72833.33333333333,
      "d": 328.125,
      "v": 110
    },
    {
      "midi": 67,
      "hit": false,
      "t": 73166.66666666666,
      "d": 328.125,
      "v": 110
    },
    {
      "midi": 68,
      "hit": false,
      "t": 73499.99999999999,
      "d": 328.125,
      "v": 110
    },
    {
      "midi": 41,
      "hit": false,
      "t": 73499.99999999999,
      "d": 1494.7916666666424,
      "v": 110
    },
    {
      "midi": 56,
      "hit": false,
      "t": 73833.33333333331,
      "d": 328.125,
      "v": 110
    },
    {
      "midi": 60,
      "hit": false,
      "t": 74166.66666666664,
      "d": 328.125,
      "v": 110
    },
    {
      "midi": 63,
      "hit": false,
      "t": 74499.99999999997,
      "d": 328.125,
      "v": 110
    },
    {
      "midi": 65,
      "hit": false,
      "t": 74833.3333333333,
      "d": 328.12499999998545,
      "v": 110
    },
    {
      "midi": 49,
      "hit": false,
      "t": 74999.99999999996,
      "d": 1494.7916666666424,
      "v": 110
    },
    {
      "midi": 68,
      "hit": false,
      "t": 75166.66666666661,
      "d": 328.125,
      "v": 110
    },
    {
      "midi": 73,
      "hit": false,
      "t": 75499.99999999994,
      "d": 328.125,
      "v": 91
    },
    {
      "midi": 78,
      "hit": false,
      "t": 75499.99999999994,
      "d": 328.125,
      "v": 110
    },
    {
      "midi": 73,
      "hit": false,
      "t": 75833.33333333327,
      "d": 328.125,
      "v": 91
    },
    {
      "midi": 77,
      "hit": false,
      "t": 75833.33333333327,
      "d": 328.125,
      "v": 110
    },
    {
      "midi": 68,
      "hit": false,
      "t": 76166.6666666666,
      "d": 328.125,
      "v": 91
    },
    {
      "midi": 73,
      "hit": false,
      "t": 76166.6666666666,
      "d": 328.125,
      "v": 110
    },
    {
      "midi": 46,
      "hit": false,
      "t": 76499.99999999993,
      "d": 1494.7916666666424,
      "v": 110
    },
    {
      "midi": 62,
      "hit": false,
      "t": 76833.33333333326,
      "d": 328.125,
      "v": 91
    },
    {
      "midi": 65,
      "hit": false,
      "t": 76833.33333333326,
      "d": 328.125,
      "v": 110
    },
    {
      "midi": 65,
      "hit": false,
      "t": 77166.66666666658,
      "d": 328.125,
      "v": 91
    },
    {
      "midi": 70,
      "hit": false,
      "t": 77166.66666666658,
      "d": 328.125,
      "v": 110
    },
    {
      "midi": 70,
      "hit": false,
      "t": 77499.99999999991,
      "d": 328.125,
      "v": 91
    },
    {
      "midi": 74,
      "hit": false,
      "t": 77499.99999999991,
      "d": 328.125,
      "v": 110
    },
    {
      "midi": 64,
      "hit": false,
      "t": 77833.33333333324,
      "d": 1161.458333333314,
      "v": 91
    },
    {
      "midi": 67,
      "hit": false,
      "t": 77833.33333333324,
      "d": 1161.458333333314,
      "v": 110
    },
    {
      "midi": 48,
      "hit": false,
      "t": 77999.9999999999,
      "d": 1494.791666666657,
      "v": 110
    },
    {
      "midi": 58,
      "hit": false,
      "t": 78333.33333333323,
      "d": 1161.4583333333285,
      "v": 91
    },
    {
      "midi": 72,
      "hit": false,
      "t": 79333.33333333323,
      "d": 161.45833333332848,
      "v": 110
    },
    {
      "midi": 44,
      "hit": false,
      "t": 79499.99999999988,
      "d": 1494.7916666666715,
      "v": 110
    },
    {
      "midi": 75,
      "hit": false,
      "t": 79499.99999999988,
      "d": 1494.7916666666715,
      "v": 110
    },
    {
      "midi": 56,
      "hit": false,
      "t": 79999.99999999988,
      "d": 994.7916666666715,
      "v": 91
    },
    {
      "midi": 60,
      "hit": false,
      "t": 79999.99999999988,
      "d": 994.7916666666715,
      "v": 91
    },
    {
      "midi": 63,
      "hit": false,
      "t": 79999.99999999988,
      "d": 994.7916666666715,
      "v": 91
    },
    {
      "midi": 67,
      "hit": false,
      "t": 79999.99999999988,
      "d": 994.7916666666715,
      "v": 91
    },
    {
      "midi": 57,
      "hit": false,
      "t": 80999.99999999988,
      "d": 828.125,
      "v": 110
    },
    {
      "midi": 60,
      "hit": false,
      "t": 80999.99999999988,
      "d": 828.125,
      "v": 91
    },
    {
      "midi": 63,
      "hit": false,
      "t": 80999.99999999988,
      "d": 828.125,
      "v": 91
    },
    {
      "midi": 67,
      "hit": false,
      "t": 80999.99999999988,
      "d": 828.125,
      "v": 91
    },
    {
      "midi": 75,
      "hit": false,
      "t": 80999.99999999988,
      "d": 828.125,
      "v": 110
    },
    {
      "midi": 66,
      "hit": false,
      "t": 81833.33333333321,
      "d": 328.125,
      "v": 91
    },
    {
      "midi": 74,
      "hit": false,
      "t": 81833.33333333321,
      "d": 328.125,
      "v": 110
    },
    {
      "midi": 50,
      "hit": false,
      "t": 81833.33333333321,
      "d": 661.4583333333285,
      "v": 110
    },
    {
      "midi": 54,
      "hit": false,
      "t": 81833.33333333321,
      "d": 661.4583333333285,
      "v": 91
    },
    {
      "midi": 60,
      "hit": false,
      "t": 81833.33333333321,
      "d": 661.4583333333285,
      "v": 91
    },
    {
      "midi": 72,
      "hit": false,
      "t": 82166.66666666654,
      "d": 328.125,
      "v": 110
    },
    {
      "midi": 55,
      "hit": false,
      "t": 82499.99999999987,
      "d": 994.7916666666715,
      "v": 110
    },
    {
      "midi": 58,
      "hit": false,
      "t": 82499.99999999987,
      "d": 994.7916666666715,
      "v": 91
    },
    {
      "midi": 62,
      "hit": false,
      "t": 82499.99999999987,
      "d": 994.7916666666715,
      "v": 91
    },
    {
      "midi": 65,
      "hit": false,
      "t": 82499.99999999987,
      "d": 994.7916666666715,
      "v": 91
    },
    {
      "midi": 70,
      "hit": false,
      "t": 82499.99999999987,
      "d": 994.7916666666715,
      "v": 110
    },
    {
      "midi": 65,
      "hit": false,
      "t": 83499.99999999987,
      "d": 36.45833333332848,
      "v": 110
    },
    {
      "midi": 53,
      "hit": false,
      "t": 83499.99999999987,
      "d": 494.7916666666424,
      "v": 110
    },
    {
      "midi": 59,
      "hit": false,
      "t": 83499.99999999987,
      "d": 494.7916666666424,
      "v": 91
    },
    {
      "midi": 62,
      "hit": false,
      "t": 83499.99999999987,
      "d": 494.7916666666424,
      "v": 91
    },
    {
      "midi": 66,
      "hit": false,
      "t": 83541.66666666653,
      "d": 36.45833333332848,
      "v": 110
    },
    {
      "midi": 67,
      "hit": false,
      "t": 83583.33333333318,
      "d": 453.12499999998545,
      "v": 110
    },
    {
      "midi": 63,
      "hit": false,
      "t": 83999.99999999984,
      "d": 828.125,
      "v": 110
    },
    {
      "midi": 48,
      "hit": false,
      "t": 83999.99999999984,
      "d": 1494.791666666657,
      "v": 110
    },
    {
      "midi": 51,
      "hit": false,
      "t": 83999.99999999984,
      "d": 1494.791666666657,
      "v": 91
    },
    {
      "midi": 55,
      "hit": false,
      "t": 83999.99999999984,
      "d": 1494.791666666657,
      "v": 91
    },
    {
      "midi": 57,
      "hit": false,
      "t": 83999.99999999984,
      "d": 1494.791666666657,
      "v": 91
    },
    {
      "midi": 67,
      "hit": false,
      "t": 84833.33333333317,
      "d": 661.4583333333285,
      "v": 110
    },
    {
      "midi": 63,
      "hit": false,
      "t": 85499.99999999983,
      "d": 994.7916666666715,
      "v": 91
    },
    {
      "midi": 68,
      "hit": false,
      "t": 85499.99999999983,
      "d": 994.7916666666715,
      "v": 110
    },
    {
      "midi": 53,
      "hit": false,
      "t": 85499.99999999983,
      "d": 1494.7916666666715,
      "v": 110
    },
    {
      "midi": 56,
      "hit": false,
      "t": 85499.99999999983,
      "d": 1494.7916666666715,
      "v": 91
    },
    {
      "midi": 60,
      "hit": false,
      "t": 85499.99999999983,
      "d": 1494.7916666666715,
      "v": 91
    },
    {
      "midi": 65,
      "hit": false,
      "t": 86499.99999999983,
      "d": 494.7916666666715,
      "v": 110
    },
    {
      "midi": 60,
      "hit": false,
      "t": 86999.99999999983,
      "d": 828.125,
      "v": 91
    },
    {
      "midi": 62,
      "hit": false,
      "t": 86999.99999999983,
      "d": 828.125,
      "v": 91
    },
    {
      "midi": 65,
      "hit": false,
      "t": 86999.99999999983,
      "d": 828.125,
      "v": 110
    },
    {
      "midi": 46,
      "hit": false,
      "t": 86999.99999999983,
      "d": 1494.791666666657,
      "v": 110
    },
    {
      "midi": 56,
      "hit": false,
      "t": 86999.99999999983,
      "d": 1494.791666666657,
      "v": 91
    },
    {
      "midi": 58,
      "hit": false,
      "t": 87833.33333333315,
      "d": 494.7916666666715,
      "v": 91
    },
    {
      "midi": 63,
      "hit": false,
      "t": 87833.33333333315,
      "d": 494.7916666666715,
      "v": 110
    },
    {
      "midi": 65,
      "hit": false,
      "t": 88333.33333333315,
      "d": 161.45833333332848,
      "v": 110
    },
    {
      "midi": 67,
      "hit": false,
      "t": 88499.99999999981,
      "d": 994.7916666666715,
      "v": 110
    },
    {
      "midi": 48,
      "hit": false,
      "t": 88499.99999999981,
      "d": 1494.7916666666715,
      "v": 110
    },
    {
      "midi": 51,
      "hit": false,
      "t": 88499.99999999981,
      "d": 1494.7916666666715,
      "v": 91
    },
    {
      "midi": 55,
      "hit": false,
      "t": 88499.99999999981,
      "d": 1494.7916666666715,
      "v": 91
    },
    {
      "midi": 57,
      "hit": false,
      "t": 88499.99999999981,
      "d": 1494.7916666666715,
      "v": 91
    },
    {
      "midi": 60,
      "hit": false,
      "t": 89499.99999999981,
      "d": 494.7916666666715,
      "v": 110
    },
    {
      "midi": 36,
      "hit": false,
      "t": 89999.99999999981,
      "d": 328.125,
      "v": 110
    },
    {
      "midi": 60,
      "hit": false,
      "t": 89999.99999999981,
      "d": 994.791666666657,
      "v": 110
    },
    {
      "midi": 43,
      "hit": false,
      "t": 90333.33333333314,
      "d": 161.45833333332848,
      "v": 110
    },
    {
      "midi": 48,
      "hit": false,
      "t": 90499.9999999998,
      "d": 494.7916666666715,
      "v": 110
    },
    {
      "midi": 46,
      "hit": false,
      "t": 90999.9999999998,
      "d": 494.79166666665697,
      "v": 110
    },
    {
      "midi": 72,
      "hit": false,
      "t": 91333.33333333312,
      "d": 161.45833333332848,
      "v": 110
    },
    {
      "midi": 44,
      "hit": false,
      "t": 91499.99999999978,
      "d": 1161.4583333333285,
      "v": 110
    },
    {
      "midi": 75,
      "hit": false,
      "t": 91499.99999999978,
      "d": 1161.4583333333285,
      "v": 110
    },
    {
      "midi": 56,
      "hit": false,
      "t": 92666.66666666644,
      "d": 328.125,
      "v": 110
    },
    {
      "midi": 60,
      "hit": false,
      "t": 92666.66666666644,
      "d": 328.125,
      "v": 91
    },
    {
      "midi": 63,
      "hit": false,
      "t": 92666.66666666644,
      "d": 328.125,
      "v": 91
    },
    {
      "midi": 67,
      "hit": false,
      "t": 92666.66666666644,
      "d": 328.125,
      "v": 91
    },
    {
      "midi": 75,
      "hit": false,
      "t": 92666.66666666644,
      "d": 328.125,
      "v": 110
    },
    {
      "midi": 57,
      "hit": false,
      "t": 92999.99999999977,
      "d": 828.125,
      "v": 110
    },
    {
      "midi": 60,
      "hit": false,
      "t": 92999.99999999977,
      "d": 828.125,
      "v": 91
    },
    {
      "midi": 63,
      "hit": false,
      "t": 92999.99999999977,
      "d": 828.125,
      "v": 91
    },
    {
      "midi": 67,
      "hit": false,
      "t": 92999.99999999977,
      "d": 828.125,
      "v": 91
    },
    {
      "midi": 75,
      "hit": false,
      "t": 92999.99999999977,
      "d": 828.125,
      "v": 110
    },
    {
      "midi": 66,
      "hit": false,
      "t": 93833.3333333331,
      "d": 328.125,
      "v": 91
    },
    {
      "midi": 74,
      "hit": false,
      "t": 93833.3333333331,
      "d": 328.125,
      "v": 110
    },
    {
      "midi": 50,
      "hit": false,
      "t": 93833.3333333331,
      "d": 661.4583333333285,
      "v": 110
    },
    {
      "midi": 54,
      "hit": false,
      "t": 93833.3333333331,
      "d": 661.4583333333285,
      "v": 91
    },
    {
      "midi": 60,
      "hit": false,
      "t": 93833.3333333331,
      "d": 661.4583333333285,
      "v": 91
    },
    {
      "midi": 72,
      "hit": false,
      "t": 94166.66666666642,
      "d": 328.125,
      "v": 110
    },
    {
      "midi": 55,
      "hit": false,
      "t": 94499.99999999975,
      "d": 994.7916666666715,
      "v": 110
    },
    {
      "midi": 58,
      "hit": false,
      "t": 94499.99999999975,
      "d": 994.7916666666715,
      "v": 91
    },
    {
      "midi": 62,
      "hit": false,
      "t": 94499.99999999975,
      "d": 994.7916666666715,
      "v": 91
    },
    {
      "midi": 65,
      "hit": false,
      "t": 94499.99999999975,
      "d": 994.7916666666715,
      "v": 91
    },
    {
      "midi": 70,
      "hit": false,
      "t": 94499.99999999975,
      "d": 994.7916666666715,
      "v": 110
    },
    {
      "midi": 65,
      "hit": false,
      "t": 95499.99999999975,
      "d": 36.45833333332848,
      "v": 110
    },
    {
      "midi": 53,
      "hit": false,
      "t": 95499.99999999975,
      "d": 494.7916666666424,
      "v": 110
    },
    {
      "midi": 59,
      "hit": false,
      "t": 95499.99999999975,
      "d": 494.7916666666424,
      "v": 91
    },
    {
      "midi": 62,
      "hit": false,
      "t": 95499.99999999975,
      "d": 494.7916666666424,
      "v": 91
    },
    {
      "midi": 66,
      "hit": false,
      "t": 95541.66666666641,
      "d": 36.45833333332848,
      "v": 110
    },
    {
      "midi": 67,
      "hit": false,
      "t": 95583.33333333307,
      "d": 453.12499999998545,
      "v": 110
    },
    {
      "midi": 63,
      "hit": false,
      "t": 95999.99999999972,
      "d": 828.125,
      "v": 110
    },
    {
      "midi": 48,
      "hit": false,
      "t": 95999.99999999972,
      "d": 1494.791666666657,
      "v": 110
    },
    {
      "midi": 51,
      "hit": false,
      "t": 95999.99999999972,
      "d": 1494.791666666657,
      "v": 91
    },
    {
      "midi": 55,
      "hit": false,
      "t": 95999.99999999972,
      "d": 1494.791666666657,
      "v": 91
    },
    {
      "midi": 57,
      "hit": false,
      "t": 95999.99999999972,
      "d": 1494.791666666657,
      "v": 91
    },
    {
      "midi": 65,
      "hit": false,
      "t": 96833.33333333305,
      "d": 328.125,
      "v": 110
    },
    {
      "midi": 67,
      "hit": false,
      "t": 97166.66666666638,
      "d": 328.125,
      "v": 110
    },
    {
      "midi": 60,
      "hit": false,
      "t": 97499.99999999971,
      "d": 828.125,
      "v": 91
    },
    {
      "midi": 63,
      "hit": false,
      "t": 97499.99999999971,
      "d": 828.125,
      "v": 91
    },
    {
      "midi": 68,
      "hit": false,
      "t": 97499.99999999971,
      "d": 828.125,
      "v": 110
    },
    {
      "midi": 49,
      "hit": false,
      "t": 97499.99999999971,
      "d": 1494.791666666657,
      "v": 91
    },
    {
      "midi": 53,
      "hit": false,
      "t": 97499.99999999971,
      "d": 1494.791666666657,
      "v": 110
    },
    {
      "midi": 56,
      "hit": false,
      "t": 97499.99999999971,
      "d": 1494.791666666657,
      "v": 91
    },
    {
      "midi": 67,
      "hit": false,
      "t": 98333.33333333304,
      "d": 328.125,
      "v": 110
    },
    {
      "midi": 65,
      "hit": false,
      "t": 98666.66666666637,
      "d": 328.125,
      "v": 110
    },
    {
      "midi": 58,
      "hit": false,
      "t": 98999.9999999997,
      "d": 828.125,
      "v": 91
    },
    {
      "midi": 64,
      "hit": false,
      "t": 98999.9999999997,
      "d": 828.125,
      "v": 110
    },
    {
      "midi": 48,
      "hit": false,
      "t": 98999.9999999997,
      "d": 1494.791666666657,
      "v": 110
    },
    {
      "midi": 55,
      "hit": false,
      "t": 98999.9999999997,
      "d": 1494.791666666657,
      "v": 91
    },
    {
      "midi": 62,
      "hit": false,
      "t": 99833.33333333302,
      "d": 328.125,
      "v": 110
    },
    {
      "midi": 64,
      "hit": false,
      "t": 100166.66666666635,
      "d": 328.125,
      "v": 110
    },
    {
      "midi": 65,
      "hit": false,
      "t": 100499.99999999968,
      "d": 328.125,
      "v": 110
    },
    {
      "midi": 41,
      "hit": false,
      "t": 100499.99999999968,
      "d": 1494.7916666666133,
      "v": 110
    },
    {
      "midi": 55,
      "hit": false,
      "t": 100833.33333333301,
      "d": 328.125,
      "v": 110
    },
    {
      "midi": 56,
      "hit": false,
      "t": 101166.66666666634,
      "d": 161.45833333332848,
      "v": 110
    },
    {
      "midi": 60,
      "hit": false,
      "t": 101333.333333333,
      "d": 161.45833333332848,
      "v": 110
    },
    {
      "midi": 63,
      "hit": false,
      "t": 101499.99999999965,
      "d": 161.45833333332848,
      "v": 110
    },
    {
      "midi": 67,
      "hit": false,
      "t": 101666.66666666631,
      "d": 161.45833333332848,
      "v": 110
    },
    {
      "midi": 65,
      "hit": false,
      "t": 101833.33333333296,
      "d": 161.45833333332848,
      "v": 110
    },
    {
      "midi": 68,
      "hit": false,
      "t": 101999.99999999962,
      "d": 161.45833333332848,
      "v": 110
    },
    {
      "midi": 49,
      "hit": false,
      "t": 101999.99999999962,
      "d": 1494.7916666665988,
      "v": 110
    },
    {
      "midi": 73,
      "hit": false,
      "t": 102166.66666666628,
      "d": 161.45833333332848,
      "v": 110
    },
    {
      "midi": 78,
      "hit": false,
      "t": 102333.33333333294,
      "d": 161.45833333332848,
      "v": 110
    },
    {
      "midi": 77,
      "hit": false,
      "t": 102499.99999999959,
      "d": 161.45833333332848,
      "v": 110
    },
    {
      "midi": 73,
      "hit": false,
      "t": 102666.66666666625,
      "d": 161.45833333332848,
      "v": 110
    },
    {
      "midi": 68,
      "hit": false,
      "t": 102833.3333333329,
      "d": 161.45833333332848,
      "v": 110
    },
    {
      "midi": 65,
      "hit": false,
      "t": 102999.99999999956,
      "d": 328.125,
      "v": 110
    },
    {
      "midi": 62,
      "hit": false,
      "t": 103333.33333333289,
      "d": 494.79166666665697,
      "v": 110
    },
    {
      "midi": 46,
      "hit": false,
      "t": 103499.99999999955,
      "d": 1494.7916666666424,
      "v": 110
    },
    {
      "midi": 70,
      "hit": false,
      "t": 103833.33333333288,
      "d": 328.125,
      "v": 91
    },
    {
      "midi": 74,
      "hit": false,
      "t": 103833.33333333288,
      "d": 328.125,
      "v": 110
    },
    {
      "midi": 70,
      "hit": false,
      "t": 104166.6666666662,
      "d": 328.125,
      "v": 91
    },
    {
      "midi": 75,
      "hit": false,
      "t": 104166.6666666662,
      "d": 328.125,
      "v": 110
    },
    {
      "midi": 70,
      "hit": false,
      "t": 104499.99999999953,
      "d": 328.125,
      "v": 91
    },
    {
      "midi": 74,
      "hit": false,
      "t": 104499.99999999953,
      "d": 328.125,
      "v": 110
    },
    {
      "midi": 65,
      "hit": false,
      "t": 104833.33333333286,
      "d": 161.45833333332848,
      "v": 91
    },
    {
      "midi": 70,
      "hit": false,
      "t": 104833.33333333286,
      "d": 161.45833333332848,
      "v": 110
    },
    {
      "midi": 67,
      "hit": false,
      "t": 104999.99999999952,
      "d": 328.125,
      "v": 91
    },
    {
      "midi": 72,
      "hit": false,
      "t": 104999.99999999952,
      "d": 328.125,
      "v": 110
    },
    {
      "midi": 48,
      "hit": false,
      "t": 104999.99999999952,
      "d": 1494.791666666657,
      "v": 110
    },
    {
      "midi": 64,
      "hit": false,
      "t": 105333.33333333285,
      "d": 328.125,
      "v": 91
    },
    {
      "midi": 67,
      "hit": false,
      "t": 105333.33333333285,
      "d": 328.125,
      "v": 110
    },
    {
      "midi": 60,
      "hit": false,
      "t": 105666.66666666618,
      "d": 828.125,
      "v": 91
    },
    {
      "midi": 64,
      "hit": false,
      "t": 105666.66666666618,
      "d": 828.125,
      "v": 110
    },
    {
      "midi": 41,
      "hit": false,
      "t": 106499.9999999995,
      "d": 1494.7916666666715,
      "v": 110
    },
    {
      "midi": 56,
      "hit": false,
      "t": 107249.9999999995,
      "d": 119.79166666667152,
      "v": 110
    },
    {
      "midi": 60,
      "hit": false,
      "t": 107374.9999999995,
      "d": 119.79166666667152,
      "v": 110
    },
    {
      "midi": 63,
      "hit": false,
      "t": 107499.9999999995,
      "d": 119.79166666667152,
      "v": 110
    },
    {
      "midi": 67,
      "hit": false,
      "t": 107624.9999999995,
      "d": 119.79166666667152,
      "v": 110
    },
    {
      "midi": 65,
      "hit": false,
      "t": 107749.9999999995,
      "d": 119.79166666667152,
      "v": 110
    },
    {
      "midi": 68,
      "hit": false,
      "t": 107874.9999999995,
      "d": 119.79166666667152,
      "v": 110
    },
    {
      "midi": 73,
      "hit": false,
      "t": 107999.9999999995,
      "d": 161.45833333332848,
      "v": 110
    },
    {
      "midi": 49,
      "hit": false,
      "t": 107999.9999999995,
      "d": 1494.7916666666133,
      "v": 110
    },
    {
      "midi": 77,
      "hit": false,
      "t": 108166.66666666616,
      "d": 161.45833333332848,
      "v": 110
    },
    {
      "midi": 78,
      "hit": false,
      "t": 108333.33333333282,
      "d": 161.45833333332848,
      "v": 110
    },
    {
      "midi": 77,
      "hit": false,
      "t": 108499.99999999948,
      "d": 119.79166666667152,
      "v": 110
    },
    {
      "midi": 73,
      "hit": false,
      "t": 108624.99999999948,
      "d": 119.79166666667152,
      "v": 110
    },
    {
      "midi": 68,
      "hit": false,
      "t": 108749.99999999948,
      "d": 119.79166666667152,
      "v": 110
    },
    {
      "midi": 65,
      "hit": false,
      "t": 108874.99999999948,
      "d": 119.79166666667152,
      "v": 110
    },
    {
      "midi": 63,
      "hit": false,
      "t": 108999.99999999948,
      "d": 161.45833333332848,
      "v": 110
    },
    {
      "midi": 61,
      "hit": false,
      "t": 109166.66666666613,
      "d": 161.45833333332848,
      "v": 110
    },
    {
      "midi": 62,
      "hit": false,
      "t": 109333.33333333279,
      "d": 994.791666666657,
      "v": 110
    },
    {
      "midi": 46,
      "hit": false,
      "t": 109499.99999999945,
      "d": 1494.791666666657,
      "v": 110
    },
    {
      "midi": 63,
      "hit": false,
      "t": 110333.33333333278,
      "d": 328.125,
      "v": 110
    },
    {
      "midi": 64,
      "hit": false,
      "t": 110666.6666666661,
      "d": 328.125,
      "v": 110
    },
    {
      "midi": 67,
      "hit": false,
      "t": 110999.99999999943,
      "d": 828.125,
      "v": 110
    },
    {
      "midi": 48,
      "hit": false,
      "t": 110999.99999999943,
      "d": 1494.791666666657,
      "v": 110
    },
    {
      "midi": 72,
      "hit": false,
      "t": 111833.33333333276,
      "d": 328.125,
      "v": 110
    },
    {
      "midi": 70,
      "hit": false,
      "t": 112166.66666666609,
      "d": 328.125,
      "v": 110
    },
    {
      "midi": 41,
      "hit": false,
      "t": 112499.99999999942,
      "d": 828.125,
      "v": 110
    },
    {
      "midi": 68,
      "hit": false,
      "t": 112499.99999999942,
      "d": 828.125,
      "v": 110
    },
    {
      "midi": 79,
      "hit": false,
      "t": 113333.33333333275,
      "d": 328.125,
      "v": 126
    },
    {
      "midi": 56,
      "hit": false,
      "t": 113333.33333333275,
      "d": 661.4583333333285,
      "v": 127
    },
    {
      "midi": 60,
      "hit": false,
      "t": 113333.33333333275,
      "d": 661.4583333333285,
      "v": 114
    },
    {
      "midi": 62,
      "hit": false,
      "t": 113333.33333333275,
      "d": 661.4583333333285,
      "v": 114
    },
    {
      "midi": 67,
      "hit": false,
      "t": 113333.33333333275,
      "d": 661.4583333333285,
      "v": 114
    },
    {
      "midi": 77,
      "hit": false,
      "t": 113666.66666666607,
      "d": 328.125,
      "v": 110
    },
    {
      "midi": 49,
      "hit": false,
      "t": 113999.9999999994,
      "d": 1494.791666666657,
      "v": 110
    },
    {
      "midi": 68,
      "hit": false,
      "t": 114333.33333333273,
      "d": 328.125,
      "v": 110
    },
    {
      "midi": 77,
      "hit": false,
      "t": 114666.66666666606,
      "d": 328.125,
      "v": 110
    },
    {
      "midi": 73,
      "hit": false,
      "t": 114999.99999999939,
      "d": 494.7916666666715,
      "v": 110
    },
    {
      "midi": 62,
      "hit": false,
      "t": 115499.99999999939,
      "d": 828.125,
      "v": 91
    },
    {
      "midi": 65,
      "hit": false,
      "t": 115499.99999999939,
      "d": 828.125,
      "v": 110
    },
    {
      "midi": 46,
      "hit": false,
      "t": 115499.99999999939,
      "d": 1494.791666666657,
      "v": 110
    },
    {
      "midi": 53,
      "hit": false,
      "t": 115499.99999999939,
      "d": 1494.791666666657,
      "v": 91
    },
    {
      "midi": 74,
      "hit": false,
      "t": 116333.33333333272,
      "d": 328.125,
      "v": 110
    },
    {
      "midi": 72,
      "hit": false,
      "t": 116666.66666666605,
      "d": 328.125,
      "v": 110
    },
    {
      "midi": 67,
      "hit": false,
      "t": 116999.99999999937,
      "d": 328.125,
      "v": 110
    },
    {
      "midi": 48,
      "hit": false,
      "t": 116999.99999999937,
      "d": 994.791666666657,
      "v": 110
    },
    {
      "midi": 64,
      "hit": false,
      "t": 117333.3333333327,
      "d": 328.125,
      "v": 110
    },
    {
      "midi": 60,
      "hit": false,
      "t": 117666.66666666603,
      "d": 328.125,
      "v": 110
    },
    {
      "midi": 48,
      "hit": false,
      "t": 118333.3333333327,
      "d": 161.45833333332848,
      "v": 110
    },
    {
      "midi": 41,
      "hit": false,
      "t": 118499.99999999936,
      "d": 1494.7916666666424,
      "v": 110
    },
    {
      "midi": 56,
      "hit": false,
      "t": 118833.33333333269,
      "d": 328.125,
      "v": 91
    },
    {
      "midi": 60,
      "hit": false,
      "t": 118833.33333333269,
      "d": 328.125,
      "v": 110
    },
    {
      "midi": 63,
      "hit": false,
      "t": 119166.66666666602,
      "d": 328.125,
      "v": 110
    },
    {
      "midi": 67,
      "hit": false,
      "t": 119499.99999999935,
      "d": 328.125,
      "v": 110
    },
    {
      "midi": 65,
      "hit": false,
      "t": 119833.33333333267,
      "d": 161.45833333332848,
      "v": 110
    },
    {
      "midi": 68,
      "hit": false,
      "t": 119999.99999999933,
      "d": 161.45833333332848,
      "v": 110
    },
    {
      "midi": 49,
      "hit": false,
      "t": 119999.99999999933,
      "d": 1494.7916666665842,
      "v": 110
    },
    {
      "midi": 73,
      "hit": false,
      "t": 120166.66666666599,
      "d": 161.45833333332848,
      "v": 110
    },
    {
      "midi": 77,
      "hit": false,
      "t": 120333.33333333264,
      "d": 161.45833333332848,
      "v": 110
    },
    {
      "midi": 78,
      "hit": false,
      "t": 120499.9999999993,
      "d": 161.45833333332848,
      "v": 110
    },
    {
      "midi": 77,
      "hit": false,
      "t": 120666.66666666596,
      "d": 161.45833333332848,
      "v": 110
    },
    {
      "midi": 73,
      "hit": false,
      "t": 120833.33333333262,
      "d": 161.45833333332848,
      "v": 110
    },
    {
      "midi": 68,
      "hit": false,
      "t": 120999.99999999927,
      "d": 161.45833333332848,
      "v": 110
    },
    {
      "midi": 62,
      "hit": false,
      "t": 121166.66666666593,
      "d": 161.45833333332848,
      "v": 110
    },
    {
      "midi": 65,
      "hit": false,
      "t": 121333.33333333259,
      "d": 161.45833333332848,
      "v": 110
    },
    {
      "midi": 70,
      "hit": false,
      "t": 121499.99999999924,
      "d": 161.45833333332848,
      "v": 110
    },
    {
      "midi": 46,
      "hit": false,
      "t": 121499.99999999924,
      "d": 1494.7916666665842,
      "v": 110
    },
    {
      "midi": 74,
      "hit": false,
      "t": 121666.6666666659,
      "d": 161.45833333332848,
      "v": 110
    },
    {
      "midi": 75,
      "hit": false,
      "t": 121833.33333333256,
      "d": 161.45833333332848,
      "v": 110
    },
    {
      "midi": 74,
      "hit": false,
      "t": 121999.99999999921,
      "d": 161.45833333332848,
      "v": 110
    },
    {
      "midi": 70,
      "hit": false,
      "t": 122166.66666666587,
      "d": 161.45833333332848,
      "v": 110
    },
    {
      "midi": 65,
      "hit": false,
      "t": 122333.33333333253,
      "d": 161.45833333332848,
      "v": 110
    },
    {
      "midi": 62,
      "hit": false,
      "t": 122499.99999999919,
      "d": 328.125,
      "v": 110
    },
    {
      "midi": 65,
      "hit": false,
      "t": 122833.33333333251,
      "d": 36.45833333332848,
      "v": 110
    },
    {
      "midi": 66,
      "hit": false,
      "t": 122874.99999999917,
      "d": 36.45833333332848,
      "v": 110
    },
    {
      "midi": 67,
      "hit": false,
      "t": 122874.99999999917,
      "d": 619.791666666657,
      "v": 110
    },
    {
      "midi": 48,
      "hit": false,
      "t": 122999.99999999916,
      "d": 1494.7916666666715,
      "v": 110
    },
    {
      "midi": 65,
      "hit": false,
      "t": 123499.99999999916,
      "d": 119.79166666667152,
      "v": 110
    },
    {
      "midi": 67,
      "hit": false,
      "t": 123624.99999999916,
      "d": 119.79166666667152,
      "v": 110
    },
    {
      "midi": 65,
      "hit": false,
      "t": 123749.99999999916,
      "d": 119.79166666667152,
      "v": 110
    },
    {
      "midi": 60,
      "hit": false,
      "t": 123874.99999999916,
      "d": 119.79166666667152,
      "v": 110
    },
    {
      "midi": 58,
      "hit": false,
      "t": 123999.99999999916,
      "d": 494.7916666666715,
      "v": 110
    },
    {
      "midi": 56,
      "hit": false,
      "t": 124499.99999999916,
      "d": 161.45833333332848,
      "v": 110
    },
    {
      "midi": 41,
      "hit": false,
      "t": 124499.99999999916,
      "d": 1494.7916666665842,
      "v": 110
    },
    {
      "midi": 60,
      "hit": false,
      "t": 124666.66666666581,
      "d": 161.45833333332848,
      "v": 110
    },
    {
      "midi": 63,
      "hit": false,
      "t": 124833.33333333247,
      "d": 161.45833333332848,
      "v": 110
    },
    {
      "midi": 67,
      "hit": false,
      "t": 124999.99999999913,
      "d": 161.45833333332848,
      "v": 110
    },
    {
      "midi": 65,
      "hit": false,
      "t": 125166.66666666578,
      "d": 161.45833333332848,
      "v": 110
    },
    {
      "midi": 68,
      "hit": false,
      "t": 125333.33333333244,
      "d": 161.45833333332848,
      "v": 110
    },
    {
      "midi": 73,
      "hit": false,
      "t": 125499.9999999991,
      "d": 161.45833333332848,
      "v": 110
    },
    {
      "midi": 77,
      "hit": false,
      "t": 125666.66666666575,
      "d": 161.45833333332848,
      "v": 110
    },
    {
      "midi": 78,
      "hit": false,
      "t": 125833.33333333241,
      "d": 161.45833333332848,
      "v": 110
    },
    {
      "midi": 77,
      "hit": false,
      "t": 125999.99999999907,
      "d": 161.45833333332848,
      "v": 110
    },
    {
      "midi": 49,
      "hit": false,
      "t": 125999.99999999907,
      "d": 1494.7916666666279,
      "v": 110
    },
    {
      "midi": 73,
      "hit": false,
      "t": 126166.66666666573,
      "d": 161.45833333332848,
      "v": 110
    },
    {
      "midi": 68,
      "hit": false,
      "t": 126333.33333333238,
      "d": 161.45833333332848,
      "v": 110
    },
    {
      "midi": 65,
      "hit": false,
      "t": 126499.99999999904,
      "d": 828.125,
      "v": 110
    },
    {
      "midi": 62,
      "hit": false,
      "t": 127333.33333333237,
      "d": 161.45833333332848,
      "v": 110
    },
    {
      "midi": 65,
      "hit": false,
      "t": 127499.99999999903,
      "d": 161.45833333332848,
      "v": 110
    },
    {
      "midi": 46,
      "hit": false,
      "t": 127499.99999999903,
      "d": 1494.7916666665842,
      "v": 110
    },
    {
      "midi": 70,
      "hit": false,
      "t": 127666.66666666568,
      "d": 161.45833333332848,
      "v": 110
    },
    {
      "midi": 74,
      "hit": false,
      "t": 127833.33333333234,
      "d": 161.45833333332848,
      "v": 110
    },
    {
      "midi": 75,
      "hit": false,
      "t": 127999.999999999,
      "d": 161.45833333332848,
      "v": 110
    },
    {
      "midi": 74,
      "hit": false,
      "t": 128166.66666666565,
      "d": 161.45833333332848,
      "v": 110
    },
    {
      "midi": 70,
      "hit": false,
      "t": 128333.33333333231,
      "d": 161.45833333332848,
      "v": 110
    },
    {
      "midi": 65,
      "hit": false,
      "t": 128499.99999999897,
      "d": 161.45833333332848,
      "v": 110
    },
    {
      "midi": 62,
      "hit": false,
      "t": 128666.66666666562,
      "d": 161.45833333332848,
      "v": 110
    },
    {
      "midi": 72,
      "hit": false,
      "t": 128833.33333333228,
      "d": 161.45833333332848,
      "v": 110
    },
    {
      "midi": 67,
      "hit": false,
      "t": 128999.99999999894,
      "d": 328.125,
      "v": 110
    },
    {
      "midi": 48,
      "hit": false,
      "t": 128999.99999999894,
      "d": 1494.791666666657,
      "v": 110
    },
    {
      "midi": 58,
      "hit": false,
      "t": 128999.99999999894,
      "d": 1494.791666666657,
      "v": 91
    },
    {
      "midi": 64,
      "hit": false,
      "t": 129333.33333333227,
      "d": 161.45833333332848,
      "v": 110
    },
    {
      "midi": 65,
      "hit": false,
      "t": 129499.99999999892,
      "d": 494.7916666666715,
      "v": 110
    },
    {
      "midi": 67,
      "hit": false,
      "t": 129999.99999999892,
      "d": 494.7916666666715,
      "v": 110
    },
    {
      "midi": 41,
      "hit": false,
      "t": 130499.99999999892,
      "d": 328.125,
      "v": 110
    },
    {
      "midi": 55,
      "hit": false,
      "t": 130499.99999999892,
      "d": 328.125,
      "v": 91
    },
    {
      "midi": 56,
      "hit": false,
      "t": 130499.99999999892,
      "d": 328.125,
      "v": 91
    },
    {
      "midi": 60,
      "hit": false,
      "t": 130499.99999999892,
      "d": 328.125,
      "v": 110
    },
    {
      "midi": 41,
      "hit": false,
      "t": 131333.33333333227,
      "d": 8161.458333333343,
      "v": 110
    },
    {
      "midi": 48,
      "hit": false,
      "t": 131333.33333333227,
      "d": 8161.458333333343,
      "v": 91
    },
    {
      "midi": 56,
      "hit": false,
      "t": 131333.33333333227,
      "d": 8161.458333333343,
      "v": 91
    },
    {
      "midi": 60,
      "hit": false,
      "t": 131333.33333333227,
      "d": 8161.458333333343,
      "v": 91
    },
    {
      "midi": 62,
      "hit": false,
      "t": 131333.33333333227,
      "d": 8161.458333333343,
      "v": 91
    },
    {
      "midi": 67,
      "hit": false,
      "t": 131333.33333333227,
      "d": 8161.458333333343,
      "v": 110
    }
  ]
}