{
  "jsonPath": "Rock/Album Rock/Iron Maiden/wasting-love-live-1998-digital-remaster.json",
  "path": "Rock\\Album Rock\\Iron Maiden\\Wasting Love (Live) (1998 Digital Remaster).mid",
  "name": "Wasting Love (Live) (1998 Digital Remaster)",
  "difficulty": "Advanced",
  "bpm": 69.99998833333528,
  "notes": [
    {
      "midi": 40,
      "hit": false,
      "t": 8727.272,
      "d": 2204.5452708333323,
      "v": 127
    },
    {
      "midi": 64,
      "hit": false,
      "t": 8727.272,
      "d": 1741.4771276041665,
      "v": 127
    },
    {
      "midi": 67,
      "hit": false,
      "t": 8727.272,
      "d": 1664.7725885416658,
      "v": 127
    },
    {
      "midi": 66,
      "hit": false,
      "t": 10363.6355,
      "d": 323.8636093749992,
      "v": 127
    },
    {
      "midi": 69,
      "hit": false,
      "t": 10363.6355,
      "d": 281.2499765624998,
      "v": 127
    },
    {
      "midi": 67,
      "hit": false,
      "t": 10636.36275,
      "d": 295.45452083333294,
      "v": 127
    },
    {
      "midi": 71,
      "hit": false,
      "t": 10636.36275,
      "d": 315.34088281249933,
      "v": 127
    },
    {
      "midi": 36,
      "hit": false,
      "t": 10909.09,
      "d": 2227.2725416666653,
      "v": 127
    },
    {
      "midi": 60,
      "hit": false,
      "t": 10909.09,
      "d": 1059.6590026041667,
      "v": 127
    },
    {
      "midi": 64,
      "hit": false,
      "t": 10909.09,
      "d": 1045.4544583333336,
      "v": 127
    },
    {
      "midi": 69,
      "hit": false,
      "t": 11999.999,
      "d": 1090.9090000000087,
      "v": 127
    },
    {
      "midi": 72,
      "hit": false,
      "t": 11999.999,
      "d": 1090.9090000000087,
      "v": 127
    },
    {
      "midi": 38,
      "hit": false,
      "t": 13090.908,
      "d": 4454.545083333331,
      "v": 127
    },
    {
      "midi": 66,
      "hit": false,
      "t": 13090.908000000009,
      "d": 2213.067997395834,
      "v": 127
    },
    {
      "midi": 69,
      "hit": false,
      "t": 13090.908000000009,
      "d": 2306.8179895833346,
      "v": 127
    },
    {
      "midi": 71,
      "hit": false,
      "t": 15272.72600000001,
      "d": 326.70451822916584,
      "v": 127
    },
    {
      "midi": 74,
      "hit": false,
      "t": 15272.72600000001,
      "d": 346.59088020833406,
      "v": 127
    },
    {
      "midi": 69,
      "hit": false,
      "t": 15545.45325000001,
      "d": 295.45452083333294,
      "v": 127
    },
    {
      "midi": 72,
      "hit": false,
      "t": 15545.45325000001,
      "d": 258.5227057291668,
      "v": 127
    },
    {
      "midi": 67,
      "hit": false,
      "t": 15818.18050000001,
      "d": 298.29542968749956,
      "v": 127
    },
    {
      "midi": 71,
      "hit": false,
      "t": 15818.18050000001,
      "d": 284.0908854166664,
      "v": 127
    },
    {
      "midi": 66,
      "hit": false,
      "t": 16090.90775000001,
      "d": 335.2272447916657,
      "v": 127
    },
    {
      "midi": 69,
      "hit": false,
      "t": 16090.90775000001,
      "d": 321.0227005208326,
      "v": 127
    },
    {
      "midi": 67,
      "hit": false,
      "t": 16363.63500000001,
      "d": 306.81815624999945,
      "v": 127
    },
    {
      "midi": 71,
      "hit": false,
      "t": 16363.63500000001,
      "d": 343.7499713541656,
      "v": 127
    },
    {
      "midi": 66,
      "hit": false,
      "t": 16636.36225000001,
      "d": 312.49997395832906,
      "v": 127
    },
    {
      "midi": 69,
      "hit": false,
      "t": 16636.36225000001,
      "d": 323.8636093749956,
      "v": 127
    },
    {
      "midi": 64,
      "hit": false,
      "t": 16909.089500000006,
      "d": 278.40906770833317,
      "v": 127
    },
    {
      "midi": 67,
      "hit": false,
      "t": 16909.089500000006,
      "d": 286.93179427083305,
      "v": 127
    },
    {
      "midi": 62,
      "hit": false,
      "t": 17181.816750000005,
      "d": 352.2726979166655,
      "v": 127
    },
    {
      "midi": 66,
      "hit": false,
      "t": 17181.816750000005,
      "d": 321.0227005208326,
      "v": 127
    },
    {
      "midi": 40,
      "hit": false,
      "t": 17454.543999999998,
      "d": 2193.181635416666,
      "v": 127
    },
    {
      "midi": 64,
      "hit": false,
      "t": 17454.544000000005,
      "d": 1721.5907656249983,
      "v": 127
    },
    {
      "midi": 67,
      "hit": false,
      "t": 17454.544000000005,
      "d": 1687.4998593749988,
      "v": 127
    },
    {
      "midi": 66,
      "hit": false,
      "t": 19090.907500000005,
      "d": 363.636333333332,
      "v": 127
    },
    {
      "midi": 69,
      "hit": false,
      "t": 19090.907500000005,
      "d": 309.6590651041661,
      "v": 127
    },
    {
      "midi": 67,
      "hit": false,
      "t": 19363.634750000005,
      "d": 332.3863359374991,
      "v": 127
    },
    {
      "midi": 71,
      "hit": false,
      "t": 19363.634750000005,
      "d": 323.8636093749992,
      "v": 127
    },
    {
      "midi": 36,
      "hit": false,
      "t": 19636.361999999997,
      "d": 2215.908906249999,
      "v": 127
    },
    {
      "midi": 60,
      "hit": false,
      "t": 19636.362000000005,
      "d": 1079.5453645833331,
      "v": 127
    },
    {
      "midi": 64,
      "hit": false,
      "t": 19636.362000000005,
      "d": 1124.9999062499992,
      "v": 127
    },
    {
      "midi": 69,
      "hit": false,
      "t": 20727.271000000004,
      "d": 1090.9089999999924,
      "v": 127
    },
    {
      "midi": 72,
      "hit": false,
      "t": 20727.271000000004,
      "d": 1090.9089999999924,
      "v": 127
    },
    {
      "midi": 38,
      "hit": false,
      "t": 21818.179999999997,
      "d": 2295.4543541666644,
      "v": 127
    },
    {
      "midi": 66,
      "hit": false,
      "t": 21818.179999999997,
      "d": 2161.931638020833,
      "v": 127
    },
    {
      "midi": 69,
      "hit": false,
      "t": 21818.179999999997,
      "d": 2284.090718749998,
      "v": 127
    },
    {
      "midi": 47,
      "hit": false,
      "t": 23999.997999999996,
      "d": 329.54542708333247,
      "v": 127
    },
    {
      "midi": 71,
      "hit": false,
      "t": 23999.997999999996,
      "d": 332.3863359374991,
      "v": 127
    },
    {
      "midi": 74,
      "hit": false,
      "t": 23999.997999999996,
      "d": 332.3863359374991,
      "v": 127
    },
    {
      "midi": 45,
      "hit": false,
      "t": 24272.725249999996,
      "d": 318.18179166666596,
      "v": 127
    },
    {
      "midi": 69,
      "hit": false,
      "t": 24272.725249999996,
      "d": 335.2272447916657,
      "v": 127
    },
    {
      "midi": 72,
      "hit": false,
      "t": 24272.725249999996,
      "d": 292.6136119791663,
      "v": 127
    },
    {
      "midi": 43,
      "hit": false,
      "t": 24545.452499999996,
      "d": 329.54542708333247,
      "v": 127
    },
    {
      "midi": 67,
      "hit": false,
      "t": 24545.452499999996,
      "d": 292.6136119791663,
      "v": 127
    },
    {
      "midi": 71,
      "hit": false,
      "t": 24545.452499999996,
      "d": 235.79543489583375,
      "v": 127
    },
    {
      "midi": 42,
      "hit": false,
      "t": 24818.179749999996,
      "d": 318.18179166666596,
      "v": 127
    },
    {
      "midi": 66,
      "hit": false,
      "t": 24818.179749999996,
      "d": 355.1136067708321,
      "v": 127
    },
    {
      "midi": 69,
      "hit": false,
      "t": 24818.179749999996,
      "d": 312.4999739583327,
      "v": 127
    },
    {
      "midi": 43,
      "hit": false,
      "t": 25090.906999999996,
      "d": 284.0908854166664,
      "v": 127
    },
    {
      "midi": 67,
      "hit": false,
      "t": 25090.906999999996,
      "d": 303.9772473958328,
      "v": 127
    },
    {
      "midi": 71,
      "hit": false,
      "t": 25090.906999999996,
      "d": 332.3863359374991,
      "v": 127
    },
    {
      "midi": 42,
      "hit": false,
      "t": 25363.634249999996,
      "d": 272.7272499999999,
      "v": 127
    },
    {
      "midi": 66,
      "hit": false,
      "t": 25363.634249999996,
      "d": 292.6136119791663,
      "v": 127
    },
    {
      "midi": 69,
      "hit": false,
      "t": 25363.634249999996,
      "d": 275.56815885416654,
      "v": 127
    },
    {
      "midi": 40,
      "hit": false,
      "t": 25636.361499999995,
      "d": 318.18179166666596,
      "v": 127
    },
    {
      "midi": 64,
      "hit": false,
      "t": 25636.361499999995,
      "d": 309.6590651041661,
      "v": 127
    },
    {
      "midi": 67,
      "hit": false,
      "t": 25636.361499999995,
      "d": 292.6136119791663,
      "v": 127
    },
    {
      "midi": 38,
      "hit": false,
      "t": 25909.088749999995,
      "d": 363.636333333332,
      "v": 127
    },
    {
      "midi": 62,
      "hit": false,
      "t": 25909.088749999995,
      "d": 318.18179166666596,
      "v": 127
    },
    {
      "midi": 66,
      "hit": false,
      "t": 25909.088749999995,
      "d": 306.81815624999945,
      "v": 127
    },
    {
      "midi": 40,
      "hit": false,
      "t": 26181.815999999995,
      "d": 2181.8179999999993,
      "v": 127
    },
    {
      "midi": 64,
      "hit": false,
      "t": 26181.815999999995,
      "d": 1701.704403645832,
      "v": 127
    },
    {
      "midi": 67,
      "hit": false,
      "t": 26181.815999999995,
      "d": 1732.9544010416648,
      "v": 127
    },
    {
      "midi": 66,
      "hit": false,
      "t": 27818.179499999995,
      "d": 346.59088020833224,
      "v": 127
    },
    {
      "midi": 69,
      "hit": false,
      "t": 27818.179499999995,
      "d": 357.95451562499875,
      "v": 127
    },
    {
      "midi": 67,
      "hit": false,
      "t": 28090.906749999995,
      "d": 281.2499765624998,
      "v": 127
    },
    {
      "midi": 71,
      "hit": false,
      "t": 28090.906749999995,
      "d": 321.0227005208326,
      "v": 127
    },
    {
      "midi": 36,
      "hit": false,
      "t": 28363.633999999995,
      "d": 2181.8179999999993,
      "v": 127
    },
    {
      "midi": 60,
      "hit": false,
      "t": 28363.633999999995,
      "d": 1068.1817291666666,
      "v": 127
    },
    {
      "midi": 64,
      "hit": false,
      "t": 28363.633999999995,
      "d": 1090.9089999999997,
      "v": 127
    },
    {
      "midi": 69,
      "hit": false,
      "t": 29454.542999999994,
      "d": 1090.9089999999924,
      "v": 127
    },
    {
      "midi": 72,
      "hit": false,
      "t": 29454.542999999994,
      "d": 1090.9089999999924,
      "v": 127
    },
    {
      "midi": 66,
      "hit": false,
      "t": 30545.451999999987,
      "d": 2224.4316328125024,
      "v": 127
    },
    {
      "midi": 69,
      "hit": false,
      "t": 30545.451999999987,
      "d": 2255.6816302083353,
      "v": 127
    },
    {
      "midi": 38,
      "hit": false,
      "t": 30545.451999999994,
      "d": 2261.3634479166685,
      "v": 127
    },
    {
      "midi": 71,
      "hit": false,
      "t": 32727.269999999986,
      "d": 326.70451822916584,
      "v": 127
    },
    {
      "midi": 74,
      "hit": false,
      "t": 32727.269999999986,
      "d": 363.636333333332,
      "v": 127
    },
    {
      "midi": 47,
      "hit": false,
      "t": 32727.269999999993,
      "d": 329.54542708333247,
      "v": 127
    },
    {
      "midi": 69,
      "hit": false,
      "t": 32999.997249999986,
      "d": 303.9772473958292,
      "v": 127
    },
    {
      "midi": 72,
      "hit": false,
      "t": 32999.997249999986,
      "d": 289.77270312499604,
      "v": 127
    },
    {
      "midi": 45,
      "hit": false,
      "t": 32999.99724999999,
      "d": 295.4545208333293,
      "v": 127
    },
    {
      "midi": 67,
      "hit": false,
      "t": 33272.72449999998,
      "d": 267.045432291663,
      "v": 127
    },
    {
      "midi": 71,
      "hit": false,
      "t": 33272.72449999998,
      "d": 258.52270572916314,
      "v": 127
    },
    {
      "midi": 43,
      "hit": false,
      "t": 33272.72449999999,
      "d": 295.4545208333293,
      "v": 127
    },
    {
      "midi": 66,
      "hit": false,
      "t": 33545.45174999998,
      "d": 346.5908802083359,
      "v": 127
    },
    {
      "midi": 69,
      "hit": false,
      "t": 33545.45174999998,
      "d": 286.9317942708367,
      "v": 127
    },
    {
      "midi": 42,
      "hit": false,
      "t": 33545.451749999986,
      "d": 306.8181562499958,
      "v": 127
    },
    {
      "midi": 43,
      "hit": false,
      "t": 33818.17899999998,
      "d": 352.27269791666185,
      "v": 127
    },
    {
      "midi": 67,
      "hit": false,
      "t": 33818.17899999998,
      "d": 315.3408828124957,
      "v": 127
    },
    {
      "midi": 71,
      "hit": false,
      "t": 33818.17899999998,
      "d": 306.8181562499958,
      "v": 127
    },
    {
      "midi": 42,
      "hit": false,
      "t": 34090.90624999998,
      "d": 318.1817916666623,
      "v": 127
    },
    {
      "midi": 66,
      "hit": false,
      "t": 34090.90624999998,
      "d": 298.2954296874959,
      "v": 127
    },
    {
      "midi": 69,
      "hit": false,
      "t": 34090.90624999998,
      "d": 298.2954296874959,
      "v": 127
    },
    {
      "midi": 40,
      "hit": false,
      "t": 34363.633499999974,
      "d": 318.1817916666623,
      "v": 127
    },
    {
      "midi": 64,
      "hit": false,
      "t": 34363.633499999974,
      "d": 301.13633854166255,
      "v": 127
    },
    {
      "midi": 67,
      "hit": false,
      "t": 34363.633499999974,
      "d": 272.7272499999963,
      "v": 127
    },
    {
      "midi": 38,
      "hit": false,
      "t": 34636.36074999997,
      "d": 352.27269791666185,
      "v": 127
    },
    {
      "midi": 62,
      "hit": false,
      "t": 34636.36074999997,
      "d": 315.3408828124957,
      "v": 127
    },
    {
      "midi": 66,
      "hit": false,
      "t": 34636.36074999997,
      "d": 289.7727031250033,
      "v": 127
    },
    {
      "midi": 40,
      "hit": false,
      "t": 34909.08799999997,
      "d": 2193.181635416666,
      "v": 127
    },
    {
      "midi": 64,
      "hit": false,
      "t": 34909.08799999997,
      "d": 1690.3407682291654,
      "v": 127
    },
    {
      "midi": 67,
      "hit": false,
      "t": 34909.087999999974,
      "d": 1696.0225859374987,
      "v": 127
    },
    {
      "midi": 66,
      "hit": false,
      "t": 36545.45149999997,
      "d": 343.74997135416197,
      "v": 127
    },
    {
      "midi": 69,
      "hit": false,
      "t": 36545.451499999974,
      "d": 321.02270052082895,
      "v": 127
    },
    {
      "midi": 67,
      "hit": false,
      "t": 36818.17874999996,
      "d": 295.4545208333293,
      "v": 127
    },
    {
      "midi": 71,
      "hit": false,
      "t": 36818.17874999997,
      "d": 335.2272447916621,
      "v": 127
    },
    {
      "midi": 60,
      "hit": false,
      "t": 37090.90599999996,
      "d": 1102.2726354166662,
      "v": 127
    },
    {
      "midi": 36,
      "hit": false,
      "t": 37090.905999999966,
      "d": 2249.9998124999984,
      "v": 127
    },
    {
      "midi": 64,
      "hit": false,
      "t": 37090.905999999966,
      "d": 1105.1135442708328,
      "v": 127
    },
    {
      "midi": 69,
      "hit": false,
      "t": 38181.81499999996,
      "d": 1090.9089999999924,
      "v": 127
    },
    {
      "midi": 72,
      "hit": false,
      "t": 38181.814999999966,
      "d": 1090.9089999999924,
      "v": 127
    },
    {
      "midi": 66,
      "hit": false,
      "t": 39272.72399999995,
      "d": 2241.4770859374985,
      "v": 127
    },
    {
      "midi": 69,
      "hit": false,
      "t": 39272.72399999996,
      "d": 2249.9998124999984,
      "v": 127
    },
    {
      "midi": 38,
      "hit": false,
      "t": 39272.723999999966,
      "d": 2272.7270833333314,
      "v": 127
    },
    {
      "midi": 71,
      "hit": false,
      "t": 41454.54199999996,
      "d": 360.79542447916174,
      "v": 127
    },
    {
      "midi": 36,
      "hit": false,
      "t": 41454.541999999965,
      "d": 198.86361979166395,
      "v": 127
    },
    {
      "midi": 69,
      "hit": false,
      "t": 41727.269249999954,
      "d": 275.5681588541629,
      "v": 127
    },
    {
      "midi": 36,
      "hit": false,
      "t": 41727.26924999996,
      "d": 289.7727031250033,
      "v": 127
    },
    {
      "midi": 67,
      "hit": false,
      "t": 41999.99649999995,
      "d": 292.61361197916995,
      "v": 127
    },
    {
      "midi": 66,
      "hit": false,
      "t": 42272.723749999954,
      "d": 366.477242187495,
      "v": 127
    },
    {
      "midi": 67,
      "hit": false,
      "t": 42545.45099999995,
      "d": 284.0908854166628,
      "v": 127
    },
    {
      "midi": 38,
      "hit": false,
      "t": 42545.450999999965,
      "d": 238.63634374999674,
      "v": 127
    },
    {
      "midi": 66,
      "hit": false,
      "t": 42818.178249999946,
      "d": 306.8181562499958,
      "v": 127
    },
    {
      "midi": 38,
      "hit": false,
      "t": 42818.17824999996,
      "d": 360.795424479169,
      "v": 127
    },
    {
      "midi": 64,
      "hit": false,
      "t": 43090.90549999994,
      "d": 289.77270312499604,
      "v": 127
    },
    {
      "midi": 62,
      "hit": false,
      "t": 43363.63274999994,
      "d": 303.9772473958292,
      "v": 127
    },
    {
      "midi": 64,
      "hit": false,
      "t": 43636.359999999935,
      "d": 8781.24926822917,
      "v": 127
    },
    {
      "midi": 28,
      "hit": false,
      "t": 43636.359999999964,
      "d": 4505.681442708337,
      "v": 127
    },
    {
      "midi": 40,
      "hit": false,
      "t": 43636.36,
      "d": 4196.022377604146,
      "v": 127
    },
    {
      "midi": 47,
      "hit": false,
      "t": 43909.087250000004,
      "d": 389.2045130208353,
      "v": 127
    },
    {
      "midi": 54,
      "hit": false,
      "t": 44181.81450000001,
      "d": 818.1817499999961,
      "v": 127
    },
    {
      "midi": 47,
      "hit": false,
      "t": 44454.541750000004,
      "d": 340.9090625000026,
      "v": 127
    },
    {
      "midi": 55,
      "hit": false,
      "t": 44727.26900000001,
      "d": 1545.4544166666528,
      "v": 127
    },
    {
      "midi": 47,
      "hit": false,
      "t": 44999.996250000004,
      "d": 329.5454270833361,
      "v": 127
    },
    {
      "midi": 54,
      "hit": false,
      "t": 45272.72350000001,
      "d": 517.0454114583263,
      "v": 127
    },
    {
      "midi": 47,
      "hit": false,
      "t": 45545.45075,
      "d": 286.9317942708294,
      "v": 127
    },
    {
      "midi": 48,
      "hit": false,
      "t": 45818.178,
      "d": 2335.2270781249754,
      "v": 127
    },
    {
      "midi": 54,
      "hit": false,
      "t": 46090.905249999996,
      "d": 340.90906249999534,
      "v": 127
    },
    {
      "midi": 55,
      "hit": false,
      "t": 46363.63249999999,
      "d": 900.5681067708283,
      "v": 127
    },
    {
      "midi": 54,
      "hit": false,
      "t": 46636.35974999999,
      "d": 397.7272395833352,
      "v": 127
    },
    {
      "midi": 62,
      "hit": false,
      "t": 46909.08699999999,
      "d": 4221.590557291624,
      "v": 127
    },
    {
      "midi": 54,
      "hit": false,
      "t": 47181.81424999999,
      "d": 397.7272395833279,
      "v": 127
    },
    {
      "midi": 55,
      "hit": false,
      "t": 47454.541499999985,
      "d": 1511.3635104166533,
      "v": 127
    },
    {
      "midi": 54,
      "hit": false,
      "t": 47727.26874999998,
      "d": 480.1135963541601,
      "v": 127
    },
    {
      "midi": 40,
      "hit": false,
      "t": 47999.99599999998,
      "d": 4275.567825520804,
      "v": 127
    },
    {
      "midi": 47,
      "hit": false,
      "t": 48272.72324999997,
      "d": 326.7045182291695,
      "v": 127
    },
    {
      "midi": 54,
      "hit": false,
      "t": 48545.45049999998,
      "d": 892.0453802083211,
      "v": 127
    },
    {
      "midi": 47,
      "hit": false,
      "t": 48818.17774999997,
      "d": 355.1136067708285,
      "v": 127
    },
    {
      "midi": 55,
      "hit": false,
      "t": 49090.90499999997,
      "d": 1517.0453281249866,
      "v": 127
    },
    {
      "midi": 47,
      "hit": false,
      "t": 49363.632249999966,
      "d": 332.38633593749546,
      "v": 127
    },
    {
      "midi": 54,
      "hit": false,
      "t": 49636.35949999996,
      "d": 661.9317630208316,
      "v": 127
    },
    {
      "midi": 47,
      "hit": false,
      "t": 49909.08674999996,
      "d": 309.6590651041697,
      "v": 127
    },
    {
      "midi": 48,
      "hit": false,
      "t": 50181.81399999996,
      "d": 2366.4770755208156,
      "v": 127
    },
    {
      "midi": 54,
      "hit": false,
      "t": 50454.54124999996,
      "d": 392.04542187499464,
      "v": 127
    },
    {
      "midi": 55,
      "hit": false,
      "t": 50727.268499999955,
      "d": 2454.5452499999883,
      "v": 127
    },
    {
      "midi": 54,
      "hit": false,
      "t": 50999.99574999995,
      "d": 1636.3634999999922,
      "v": 127
    },
    {
      "midi": 52,
      "hit": false,
      "t": 50999.995749999965,
      "d": 332.38633593750274,
      "v": 127
    },
    {
      "midi": 62,
      "hit": false,
      "t": 51272.72299999995,
      "d": 4235.7951015624785,
      "v": 127
    },
    {
      "midi": 55,
      "hit": false,
      "t": 51272.72299999997,
      "d": 267.045432291663,
      "v": 127
    },
    {
      "midi": 52,
      "hit": false,
      "t": 51545.450249999965,
      "d": 335.22724479166936,
      "v": 127
    },
    {
      "midi": 50,
      "hit": false,
      "t": 52090.904749999965,
      "d": 198.86361979166395,
      "v": 127
    },
    {
      "midi": 40,
      "hit": false,
      "t": 52363.63199999995,
      "d": 4090.908749999966,
      "v": 127
    },
    {
      "midi": 52,
      "hit": false,
      "t": 52363.63199999996,
      "d": 3249.999729166666,
      "v": 127
    },
    {
      "midi": 47,
      "hit": false,
      "t": 52636.35924999994,
      "d": 346.5908802083359,
      "v": 127
    },
    {
      "midi": 54,
      "hit": false,
      "t": 52909.08649999995,
      "d": 832.3862942708292,
      "v": 127
    },
    {
      "midi": 47,
      "hit": false,
      "t": 53181.81374999994,
      "d": 392.0454218750019,
      "v": 127
    },
    {
      "midi": 55,
      "hit": false,
      "t": 53454.54099999995,
      "d": 1531.2498723958197,
      "v": 127
    },
    {
      "midi": 47,
      "hit": false,
      "t": 53727.26824999994,
      "d": 414.77269270832767,
      "v": 127
    },
    {
      "midi": 54,
      "hit": false,
      "t": 53999.99549999994,
      "d": 767.0453906249968,
      "v": 127
    },
    {
      "midi": 47,
      "hit": false,
      "t": 54272.722749999935,
      "d": 298.2954296875032,
      "v": 127
    },
    {
      "midi": 48,
      "hit": false,
      "t": 54545.44999999994,
      "d": 2275.567992187476,
      "v": 127
    },
    {
      "midi": 54,
      "hit": false,
      "t": 54818.177249999935,
      "d": 352.27269791666185,
      "v": 127
    },
    {
      "midi": 55,
      "hit": false,
      "t": 55090.90449999993,
      "d": 963.0681015624868,
      "v": 127
    },
    {
      "midi": 54,
      "hit": false,
      "t": 55363.63174999993,
      "d": 363.63633333332837,
      "v": 127
    },
    {
      "midi": 62,
      "hit": false,
      "t": 55636.358999999924,
      "d": 4227.272374999957,
      "v": 127
    },
    {
      "midi": 50,
      "hit": false,
      "t": 55636.35899999996,
      "d": 272.72725000000355,
      "v": 127
    },
    {
      "midi": 54,
      "hit": false,
      "t": 55909.08624999992,
      "d": 374.9999687499949,
      "v": 127
    },
    {
      "midi": 47,
      "hit": false,
      "t": 55909.086249999964,
      "d": 272.72725000000355,
      "v": 127
    },
    {
      "midi": 55,
      "hit": false,
      "t": 56181.81349999992,
      "d": 1539.7725989583196,
      "v": 127
    },
    {
      "midi": 54,
      "hit": false,
      "t": 56454.54074999991,
      "d": 724.4317578124974,
      "v": 127
    },
    {
      "midi": 45,
      "hit": false,
      "t": 56454.54074999997,
      "d": 272.72725000000355,
      "v": 127
    },
    {
      "midi": 40,
      "hit": false,
      "t": 56727.267999999916,
      "d": 4090.908749999966,
      "v": 127
    },
    {
      "midi": 40,
      "hit": false,
      "t": 56727.267999999975,
      "d": 4363.635999999999,
      "v": 127
    },
    {
      "midi": 47,
      "hit": false,
      "t": 56999.99524999991,
      "d": 321.02270052082895,
      "v": 127
    },
    {
      "midi": 54,
      "hit": false,
      "t": 57272.72249999991,
      "d": 857.9544739583216,
      "v": 127
    },
    {
      "midi": 47,
      "hit": false,
      "t": 57545.449749999905,
      "d": 329.54542708332883,
      "v": 127
    },
    {
      "midi": 55,
      "hit": false,
      "t": 57818.1769999999,
      "d": 1542.6135078124862,
      "v": 127
    },
    {
      "midi": 47,
      "hit": false,
      "t": 58090.9042499999,
      "d": 309.65906510416244,
      "v": 127
    },
    {
      "midi": 54,
      "hit": false,
      "t": 58363.631499999894,
      "d": 732.9544843749973,
      "v": 127
    },
    {
      "midi": 47,
      "hit": false,
      "t": 58636.35874999989,
      "d": 298.2954296875032,
      "v": 127
    },
    {
      "midi": 48,
      "hit": false,
      "t": 58909.085999999894,
      "d": 2232.9543593749913,
      "v": 127
    },
    {
      "midi": 54,
      "hit": false,
      "t": 59181.81324999989,
      "d": 352.27269791666185,
      "v": 127
    },
    {
      "midi": 55,
      "hit": false,
      "t": 59454.54049999989,
      "d": 2454.5452499999956,
      "v": 127
    },
    {
      "midi": 54,
      "hit": false,
      "t": 59727.26774999988,
      "d": 1636.3634999999995,
      "v": 127
    },
    {
      "midi": 62,
      "hit": false,
      "t": 59999.99499999988,
      "d": 4241.476919270819,
      "v": 127
    },
    {
      "midi": 40,
      "hit": false,
      "t": 61090.903999999886,
      "d": 4073.863296874966,
      "v": 127
    },
    {
      "midi": 28,
      "hit": false,
      "t": 61090.90399999997,
      "d": 4363.635999999999,
      "v": 127
    },
    {
      "midi": 47,
      "hit": false,
      "t": 61363.63124999988,
      "d": 323.86360937500285,
      "v": 127
    },
    {
      "midi": 54,
      "hit": false,
      "t": 61636.358499999886,
      "d": 903.4090156249949,
      "v": 127
    },
    {
      "midi": 47,
      "hit": false,
      "t": 61909.08574999988,
      "d": 332.38633593750274,
      "v": 127
    },
    {
      "midi": 55,
      "hit": false,
      "t": 62181.812999999886,
      "d": 1531.2498723958197,
      "v": 127
    },
    {
      "midi": 64,
      "hit": false,
      "t": 62181.81300000001,
      "d": 585.2272239583326,
      "v": 127
    },
    {
      "midi": 47,
      "hit": false,
      "t": 62454.54024999988,
      "d": 366.477242187495,
      "v": 127
    },
    {
      "midi": 54,
      "hit": false,
      "t": 62727.26749999988,
      "d": 704.545395833331,
      "v": 127
    },
    {
      "midi": 62,
      "hit": false,
      "t": 62727.26750000001,
      "d": 315.3408828124957,
      "v": 127
    },
    {
      "midi": 47,
      "hit": false,
      "t": 62999.994749999874,
      "d": 264.20452343750367,
      "v": 127
    },
    {
      "midi": 59,
      "hit": false,
      "t": 62999.994750000005,
      "d": 616.4772213541655,
      "v": 127
    },
    {
      "midi": 48,
      "hit": false,
      "t": 63272.72199999988,
      "d": 2249.9998124999765,
      "v": 127
    },
    {
      "midi": 54,
      "hit": false,
      "t": 63545.449249999874,
      "d": 357.9545156249951,
      "v": 127
    },
    {
      "midi": 57,
      "hit": false,
      "t": 63545.449250000005,
      "d": 1136.3635416666657,
      "v": 127
    },
    {
      "midi": 55,
      "hit": false,
      "t": 63818.17649999987,
      "d": 954.545374999987,
      "v": 127
    },
    {
      "midi": 54,
      "hit": false,
      "t": 64090.90374999987,
      "d": 363.63633333332837,
      "v": 127
    },
    {
      "midi": 62,
      "hit": false,
      "t": 64363.63099999986,
      "d": 4156.249653645791,
      "v": 127
    },
    {
      "midi": 54,
      "hit": false,
      "t": 64636.35824999986,
      "d": 340.90906249999534,
      "v": 127
    },
    {
      "midi": 55,
      "hit": false,
      "t": 64636.358250000005,
      "d": 338.0681536458287,
      "v": 127
    },
    {
      "midi": 55,
      "hit": false,
      "t": 64909.085499999856,
      "d": 1565.3407786458265,
      "v": 127
    },
    {
      "midi": 57,
      "hit": false,
      "t": 64909.0855,
      "d": 306.8181562499958,
      "v": 127
    },
    {
      "midi": 54,
      "hit": false,
      "t": 65181.81274999985,
      "d": 661.9317630208388,
      "v": 127
    },
    {
      "midi": 55,
      "hit": false,
      "t": 65181.81275,
      "d": 303.9772473958292,
      "v": 127
    },
    {
      "midi": 40,
      "hit": false,
      "t": 65454.539999999855,
      "d": 4147.7269270832985,
      "v": 127
    },
    {
      "midi": 28,
      "hit": false,
      "t": 65454.53999999997,
      "d": 4090.908749999995,
      "v": 127
    },
    {
      "midi": 59,
      "hit": false,
      "t": 65454.53999999999,
      "d": 321.02270052082895,
      "v": 127
    },
    {
      "midi": 47,
      "hit": false,
      "t": 65727.26724999986,
      "d": 329.54542708332883,
      "v": 127
    },
    {
      "midi": 57,
      "hit": false,
      "t": 65727.26724999999,
      "d": 164.77271354166442,
      "v": 127
    },
    {
      "midi": 54,
      "hit": false,
      "t": 65999.99449999986,
      "d": 846.5908385416551,
      "v": 127
    },
    {
      "midi": 57,
      "hit": false,
      "t": 65999.99449999999,
      "d": 741.4772109375044,
      "v": 127
    },
    {
      "midi": 47,
      "hit": false,
      "t": 66272.72174999985,
      "d": 329.54542708332883,
      "v": 127
    },
    {
      "midi": 55,
      "hit": false,
      "t": 66545.44899999985,
      "d": 1593.7498671874782,
      "v": 127
    },
    {
      "midi": 47,
      "hit": false,
      "t": 66818.17624999984,
      "d": 332.38633593749546,
      "v": 127
    },
    {
      "midi": 59,
      "hit": false,
      "t": 66818.17624999999,
      "d": 159.09089583333116,
      "v": 127
    },
    {
      "midi": 57,
      "hit": false,
      "t": 66954.53987499999,
      "d": 164.77271354166442,
      "v": 127
    },
    {
      "midi": 54,
      "hit": false,
      "t": 67090.90349999984,
      "d": 713.0681223958236,
      "v": 127
    },
    {
      "midi": 55,
      "hit": false,
      "t": 67090.90349999999,
      "d": 2392.0452552083298,
      "v": 127
    },
    {
      "midi": 47,
      "hit": false,
      "t": 67363.63074999984,
      "d": 292.61361197916267,
      "v": 127
    },
    {
      "midi": 48,
      "hit": false,
      "t": 67636.35799999983,
      "d": 2321.0225338541495,
      "v": 127
    },
    {
      "midi": 54,
      "hit": false,
      "t": 67909.08524999983,
      "d": 400.56814843749453,
      "v": 127
    },
    {
      "midi": 55,
      "hit": false,
      "t": 68181.81249999983,
      "d": 2454.545249999981,
      "v": 127
    },
    {
      "midi": 54,
      "hit": false,
      "t": 68454.53974999982,
      "d": 1636.3634999999922,
      "v": 127
    },
    {
      "midi": 62,
      "hit": false,
      "t": 68727.26699999982,
      "d": 4315.340549479122,
      "v": 127
    },
    {
      "midi": 40,
      "hit": false,
      "t": 69818.17599999982,
      "d": 4272.726916666608,
      "v": 127
    },
    {
      "midi": 28,
      "hit": false,
      "t": 69818.17599999996,
      "d": 4363.635999999999,
      "v": 127
    },
    {
      "midi": 47,
      "hit": false,
      "t": 70090.90324999981,
      "d": 366.477242187495,
      "v": 127
    },
    {
      "midi": 54,
      "hit": false,
      "t": 70363.63049999981,
      "d": 852.2726562499884,
      "v": 127
    },
    {
      "midi": 47,
      "hit": false,
      "t": 70636.3577499998,
      "d": 329.54542708332883,
      "v": 127
    },
    {
      "midi": 55,
      "hit": false,
      "t": 70909.0849999998,
      "d": 1531.2498723958124,
      "v": 127
    },
    {
      "midi": 64,
      "hit": false,
      "t": 70909.08499999998,
      "d": 616.4772213541728,
      "v": 127
    },
    {
      "midi": 47,
      "hit": false,
      "t": 71181.8122499998,
      "d": 329.54542708332883,
      "v": 127
    },
    {
      "midi": 54,
      "hit": false,
      "t": 71454.5394999998,
      "d": 676.1363072916574,
      "v": 127
    },
    {
      "midi": 62,
      "hit": false,
      "t": 71454.53949999998,
      "d": 289.77270312499604,
      "v": 127
    },
    {
      "midi": 47,
      "hit": false,
      "t": 71727.26674999979,
      "d": 284.0908854166628,
      "v": 127
    },
    {
      "midi": 59,
      "hit": false,
      "t": 71727.26674999998,
      "d": 607.9544947916584,
      "v": 127
    },
    {
      "midi": 48,
      "hit": false,
      "t": 71999.99399999979,
      "d": 2298.295263020802,
      "v": 127
    },
    {
      "midi": 54,
      "hit": false,
      "t": 72272.72124999978,
      "d": 363.63633333332837,
      "v": 127
    },
    {
      "midi": 57,
      "hit": false,
      "t": 72272.72124999997,
      "d": 278.40906770832953,
      "v": 127
    },
    {
      "midi": 55,
      "hit": false,
      "t": 72545.44849999978,
      "d": 911.9317421874875,
      "v": 127
    },
    {
      "midi": 55,
      "hit": false,
      "t": 72545.44849999997,
      "d": 749.9999375000043,
      "v": 127
    },
    {
      "midi": 54,
      "hit": false,
      "t": 72818.17574999978,
      "d": 355.1136067708285,
      "v": 127
    },
    {
      "midi": 62,
      "hit": false,
      "t": 73090.90299999977,
      "d": 4176.136015624943,
      "v": 127
    },
    {
      "midi": 54,
      "hit": false,
      "t": 73363.63024999977,
      "d": 380.68178645832813,
      "v": 127
    },
    {
      "midi": 55,
      "hit": false,
      "t": 73363.63024999997,
      "d": 306.8181562499958,
      "v": 127
    },
    {
      "midi": 55,
      "hit": false,
      "t": 73636.35749999977,
      "d": 1599.4316848958115,
      "v": 127
    },
    {
      "midi": 57,
      "hit": false,
      "t": 73636.35749999997,
      "d": 275.5681588541629,
      "v": 127
    },
    {
      "midi": 54,
      "hit": false,
      "t": 73909.08474999976,
      "d": 690.3408515624906,
      "v": 127
    },
    {
      "midi": 55,
      "hit": false,
      "t": 73909.08474999997,
      "d": 318.1817916666623,
      "v": 127
    },
    {
      "midi": 40,
      "hit": false,
      "t": 74181.81199999976,
      "d": 4247.158736979123,
      "v": 127
    },
    {
      "midi": 28,
      "hit": false,
      "t": 74181.81199999996,
      "d": 4227.2723750000005,
      "v": 127
    },
    {
      "midi": 59,
      "hit": false,
      "t": 74181.81199999996,
      "d": 434.65905468749406,
      "v": 127
    },
    {
      "midi": 47,
      "hit": false,
      "t": 74454.53924999975,
      "d": 340.90906249999534,
      "v": 127
    },
    {
      "midi": 62,
      "hit": false,
      "t": 74454.53924999996,
      "d": 818.1817500000034,
      "v": 127
    },
    {
      "midi": 54,
      "hit": false,
      "t": 74727.26649999975,
      "d": 863.6362916666549,
      "v": 127
    },
    {
      "midi": 47,
      "hit": false,
      "t": 74999.99374999975,
      "d": 377.8408776041615,
      "v": 127
    },
    {
      "midi": 55,
      "hit": false,
      "t": 75272.72099999974,
      "d": 1542.613507812479,
      "v": 127
    },
    {
      "midi": 59,
      "hit": false,
      "t": 75272.72099999996,
      "d": 2599.4316015624936,
      "v": 127
    },
    {
      "midi": 47,
      "hit": false,
      "t": 75545.44824999974,
      "d": 340.90906249999534,
      "v": 127
    },
    {
      "midi": 54,
      "hit": false,
      "t": 75818.17549999974,
      "d": 678.9772161458241,
      "v": 127
    },
    {
      "midi": 47,
      "hit": false,
      "t": 76090.90274999973,
      "d": 298.2954296874959,
      "v": 127
    },
    {
      "midi": 48,
      "hit": false,
      "t": 76363.62999999973,
      "d": 2116.4770963541523,
      "v": 127
    },
    {
      "midi": 54,
      "hit": false,
      "t": 76636.35724999972,
      "d": 366.477242187495,
      "v": 127
    },
    {
      "midi": 55,
      "hit": false,
      "t": 76909.08449999972,
      "d": 1909.0907499999885,
      "v": 127
    },
    {
      "midi": 54,
      "hit": false,
      "t": 77181.81174999972,
      "d": 1636.3634999999922,
      "v": 127
    },
    {
      "midi": 62,
      "hit": false,
      "t": 77454.53899999971,
      "d": 2181.8179999999847,
      "v": 127
    },
    {
      "midi": 45,
      "hit": false,
      "t": 78545.44799999971,
      "d": 2102.2725520833046,
      "v": 127
    },
    {
      "midi": 33,
      "hit": false,
      "t": 78545.44799999996,
      "d": 4363.635999999999,
      "v": 127
    },
    {
      "midi": 52,
      "hit": false,
      "t": 78818.17524999971,
      "d": 411.93178385416104,
      "v": 127
    },
    {
      "midi": 55,
      "hit": false,
      "t": 79090.9024999997,
      "d": 1034.0908229166525,
      "v": 127
    },
    {
      "midi": 52,
      "hit": false,
      "t": 79363.6297499997,
      "d": 482.95450520832674,
      "v": 127
    },
    {
      "midi": 60,
      "hit": false,
      "t": 79636.3569999997,
      "d": 2122.158914062471,
      "v": 127
    },
    {
      "midi": 67,
      "hit": false,
      "t": 79636.35699999996,
      "d": 1633.5225911458401,
      "v": 127
    },
    {
      "midi": 52,
      "hit": false,
      "t": 79909.0842499997,
      "d": 505.68177604165976,
      "v": 127
    },
    {
      "midi": 55,
      "hit": false,
      "t": 80181.81149999969,
      "d": 1002.8408255208196,
      "v": 127
    },
    {
      "midi": 52,
      "hit": false,
      "t": 80454.53874999969,
      "d": 522.7272291666595,
      "v": 127
    },
    {
      "midi": 45,
      "hit": false,
      "t": 80727.26599999968,
      "d": 2068.181645833305,
      "v": 127
    },
    {
      "midi": 54,
      "hit": false,
      "t": 80999.99324999968,
      "d": 448.8635989583272,
      "v": 127
    },
    {
      "midi": 55,
      "hit": false,
      "t": 81272.72049999968,
      "d": 963.0681015624868,
      "v": 127
    },
    {
      "midi": 64,
      "hit": false,
      "t": 81272.72049999997,
      "d": 363.63633333332837,
      "v": 127
    },
    {
      "midi": 54,
      "hit": false,
      "t": 81545.44774999967,
      "d": 474.43177864582685,
      "v": 127
    },
    {
      "midi": 62,
      "hit": false,
      "t": 81545.44774999996,
      "d": 2181.8179999999993,
      "v": 127
    },
    {
      "midi": 62,
      "hit": false,
      "t": 81818.17499999967,
      "d": 2187.4998177083035,
      "v": 127
    },
    {
      "midi": 54,
      "hit": false,
      "t": 82090.90224999966,
      "d": 434.65905468749406,
      "v": 127
    },
    {
      "midi": 55,
      "hit": false,
      "t": 82363.62949999966,
      "d": 982.9544635416532,
      "v": 127
    },
    {
      "midi": 54,
      "hit": false,
      "t": 82636.35674999966,
      "d": 457.3863255208271,
      "v": 127
    },
    {
      "midi": 45,
      "hit": false,
      "t": 82909.08399999965,
      "d": 2105.1134609374712,
      "v": 127
    },
    {
      "midi": 33,
      "hit": false,
      "t": 82909.08399999996,
      "d": 2999.9997500000027,
      "v": 127
    },
    {
      "midi": 52,
      "hit": false,
      "t": 83181.81124999965,
      "d": 423.29541927082755,
      "v": 127
    },
    {
      "midi": 55,
      "hit": false,
      "t": 83454.53849999965,
      "d": 985.7953723958199,
      "v": 127
    },
    {
      "midi": 52,
      "hit": false,
      "t": 83727.26574999964,
      "d": 451.70450781249383,
      "v": 127
    },
    {
      "midi": 60,
      "hit": false,
      "t": 83999.99299999964,
      "d": 2110.7952786458045,
      "v": 127
    },
    {
      "midi": 52,
      "hit": false,
      "t": 84272.72024999963,
      "d": 454.54541666666046,
      "v": 127
    },
    {
      "midi": 67,
      "hit": false,
      "t": 84272.72024999995,
      "d": 1374.9998854166624,
      "v": 127
    },
    {
      "midi": 55,
      "hit": false,
      "t": 84545.44749999963,
      "d": 1019.8862786458194,
      "v": 127
    },
    {
      "midi": 52,
      "hit": false,
      "t": 84818.17474999963,
      "d": 454.54541666666046,
      "v": 127
    },
    {
      "midi": 45,
      "hit": false,
      "t": 85090.90199999962,
      "d": 2170.4543645833037,
      "v": 127
    },
    {
      "midi": 54,
      "hit": false,
      "t": 85363.62924999962,
      "d": 471.5908697916602,
      "v": 127
    },
    {
      "midi": 55,
      "hit": false,
      "t": 85636.35649999962,
      "d": 1011.3635520833195,
      "v": 127
    },
    {
      "midi": 64,
      "hit": false,
      "t": 85636.35649999995,
      "d": 315.3408828124957,
      "v": 127
    },
    {
      "midi": 54,
      "hit": false,
      "t": 85909.08374999961,
      "d": 434.65905468749406,
      "v": 127
    },
    {
      "midi": 62,
      "hit": false,
      "t": 85909.08374999995,
      "d": 1053.9771848958335,
      "v": 127
    },
    {
      "midi": 33,
      "hit": false,
      "t": 85909.08374999996,
      "d": 272.7272499999963,
      "v": 127
    },
    {
      "midi": 62,
      "hit": false,
      "t": 86181.81099999961,
      "d": 2122.158914062471,
      "v": 127
    },
    {
      "midi": 35,
      "hit": false,
      "t": 86181.81099999996,
      "d": 1090.9089999999997,
      "v": 127
    },
    {
      "midi": 54,
      "hit": false,
      "t": 86454.5382499996,
      "d": 417.6136015624943,
      "v": 127
    },
    {
      "midi": 55,
      "hit": false,
      "t": 86727.2654999996,
      "d": 843.7499296874885,
      "v": 127
    },
    {
      "midi": 54,
      "hit": false,
      "t": 86999.9927499996,
      "d": 465.90905208332697,
      "v": 127
    },
    {
      "midi": 62,
      "hit": false,
      "t": 86999.99274999995,
      "d": 309.65906510416244,
      "v": 127
    },
    {
      "midi": 40,
      "hit": false,
      "t": 87272.7199999996,
      "d": 4196.022377604109,
      "v": 127
    },
    {
      "midi": 64,
      "hit": false,
      "t": 87272.71999999994,
      "d": 332.38633593749546,
      "v": 127
    },
    {
      "midi": 28,
      "hit": false,
      "t": 87272.71999999996,
      "d": 4090.9087500000023,
      "v": 127
    },
    {
      "midi": 47,
      "hit": false,
      "t": 87545.44724999959,
      "d": 389.204513020828,
      "v": 127
    },
    {
      "midi": 62,
      "hit": false,
      "t": 87545.44724999994,
      "d": 1181.8180833333317,
      "v": 127
    },
    {
      "midi": 54,
      "hit": false,
      "t": 87818.17449999959,
      "d": 818.1817499999888,
      "v": 127
    },
    {
      "midi": 47,
      "hit": false,
      "t": 88090.90174999958,
      "d": 340.90906249999534,
      "v": 127
    },
    {
      "midi": 55,
      "hit": false,
      "t": 88363.62899999958,
      "d": 1545.4544166666456,
      "v": 127
    },
    {
      "midi": 47,
      "hit": false,
      "t": 88636.35624999958,
      "d": 329.54542708332883,
      "v": 127
    },
    {
      "midi": 54,
      "hit": false,
      "t": 88909.08349999957,
      "d": 517.0454114583263,
      "v": 127
    },
    {
      "midi": 62,
      "hit": false,
      "t": 88909.08349999994,
      "d": 315.3408828124957,
      "v": 127
    },
    {
      "midi": 47,
      "hit": false,
      "t": 89181.81074999957,
      "d": 286.9317942708294,
      "v": 127
    },
    {
      "midi": 59,
      "hit": false,
      "t": 89181.81074999993,
      "d": 517.0454114583263,
      "v": 127
    },
    {
      "midi": 48,
      "hit": false,
      "t": 89454.53799999956,
      "d": 2335.227078124968,
      "v": 127
    },
    {
      "midi": 54,
      "hit": false,
      "t": 89727.26524999956,
      "d": 340.90906249999534,
      "v": 127
    },
    {
      "midi": 57,
      "hit": false,
      "t": 89727.26524999992,
      "d": 352.27269791666185,
      "v": 127
    },
    {
      "midi": 55,
      "hit": false,
      "t": 89999.99249999956,
      "d": 900.568106770821,
      "v": 127
    },
    {
      "midi": 55,
      "hit": false,
      "t": 89999.99249999992,
      "d": 1644.886226562492,
      "v": 127
    },
    {
      "midi": 54,
      "hit": false,
      "t": 90272.71974999955,
      "d": 397.7272395833279,
      "v": 127
    },
    {
      "midi": 62,
      "hit": false,
      "t": 90545.44699999955,
      "d": 4221.590557291609,
      "v": 127
    },
    {
      "midi": 54,
      "hit": false,
      "t": 90818.17424999955,
      "d": 397.7272395833279,
      "v": 127
    },
    {
      "midi": 55,
      "hit": false,
      "t": 91090.90149999954,
      "d": 1511.363510416646,
      "v": 127
    },
    {
      "midi": 54,
      "hit": false,
      "t": 91363.62874999954,
      "d": 480.1135963541601,
      "v": 127
    },
    {
      "midi": 40,
      "hit": false,
      "t": 91636.35599999953,
      "d": 4275.5678255207895,
      "v": 127
    },
    {
      "midi": 64,
      "hit": false,
      "t": 91636.35599999991,
      "d": 295.4545208333293,
      "v": 127
    },
    {
      "midi": 28,
      "hit": false,
      "t": 91636.35599999996,
      "d": 4363.635999999999,
      "v": 127
    },
    {
      "midi": 47,
      "hit": false,
      "t": 91909.08324999953,
      "d": 326.7045182291622,
      "v": 127
    },
    {
      "midi": 62,
      "hit": false,
      "t": 91909.08324999991,
      "d": 1244.3180781249976,
      "v": 127
    },
    {
      "midi": 54,
      "hit": false,
      "t": 92181.81049999953,
      "d": 892.0453802083211,
      "v": 127
    },
    {
      "midi": 47,
      "hit": false,
      "t": 92454.53774999952,
      "d": 355.1136067708285,
      "v": 127
    },
    {
      "midi": 55,
      "hit": false,
      "t": 92727.26499999952,
      "d": 1517.0453281249793,
      "v": 127
    },
    {
      "midi": 47,
      "hit": false,
      "t": 92999.99224999952,
      "d": 332.38633593749546,
      "v": 127
    },
    {
      "midi": 54,
      "hit": false,
      "t": 93272.71949999951,
      "d": 661.9317630208243,
      "v": 127
    },
    {
      "midi": 62,
      "hit": false,
      "t": 93272.7194999999,
      "d": 244.31816145833,
      "v": 127
    },
    {
      "midi": 47,
      "hit": false,
      "t": 93545.44674999951,
      "d": 309.65906510416244,
      "v": 127
    },
    {
      "midi": 59,
      "hit": false,
      "t": 93545.4467499999,
      "d": 599.431768229173,
      "v": 127
    },
    {
      "midi": 48,
      "hit": false,
      "t": 93818.1739999995,
      "d": 2366.4770755208156,
      "v": 127
    },
    {
      "midi": 54,
      "hit": false,
      "t": 94090.9012499995,
      "d": 392.04542187499464,
      "v": 127
    },
    {
      "midi": 57,
      "hit": false,
      "t": 94090.90124999991,
      "d": 443.18178124999395,
      "v": 127
    },
    {
      "midi": 55,
      "hit": false,
      "t": 94363.6284999995,
      "d": 2454.545249999981,
      "v": 127
    },
    {
      "midi": 55,
      "hit": false,
      "t": 94363.6284999999,
      "d": 1821.0225755208376,
      "v": 127
    },
    {
      "midi": 54,
      "hit": false,
      "t": 94636.3557499995,
      "d": 1636.3634999999922,
      "v": 127
    },
    {
      "midi": 62,
      "hit": false,
      "t": 94909.08299999949,
      "d": 4235.795101562457,
      "v": 127
    },
    {
      "midi": 40,
      "hit": false,
      "t": 95999.99199999949,
      "d": 4090.908749999944,
      "v": 127
    },
    {
      "midi": 28,
      "hit": false,
      "t": 95999.99199999995,
      "d": 4363.635999999999,
      "v": 127
    },
    {
      "midi": 47,
      "hit": false,
      "t": 96272.71924999949,
      "d": 346.5908802083286,
      "v": 127
    },
    {
      "midi": 54,
      "hit": false,
      "t": 96545.44649999948,
      "d": 832.386294270822,
      "v": 127
    },
    {
      "midi": 47,
      "hit": false,
      "t": 96818.17374999948,
      "d": 392.04542187499464,
      "v": 127
    },
    {
      "midi": 55,
      "hit": false,
      "t": 97090.90099999947,
      "d": 1531.2498723958124,
      "v": 127
    },
    {
      "midi": 64,
      "hit": false,
      "t": 97090.90099999991,
      "d": 619.3181302083394,
      "v": 127
    },
    {
      "midi": 47,
      "hit": false,
      "t": 97363.62824999947,
      "d": 414.77269270832767,
      "v": 127
    },
    {
      "midi": 54,
      "hit": false,
      "t": 97636.35549999947,
      "d": 767.0453906249895,
      "v": 127
    },
    {
      "midi": 62,
      "hit": false,
      "t": 97636.35549999992,
      "d": 519.8863203124929,
      "v": 127
    },
    {
      "midi": 47,
      "hit": false,
      "t": 97909.08274999946,
      "d": 298.2954296874959,
      "v": 127
    },
    {
      "midi": 48,
      "hit": false,
      "t": 98181.80999999946,
      "d": 2275.567992187469,
      "v": 127
    },
    {
      "midi": 59,
      "hit": false,
      "t": 98181.80999999991,
      "d": 363.63633333332837,
      "v": 127
    },
    {
      "midi": 54,
      "hit": false,
      "t": 98454.53724999946,
      "d": 352.27269791666185,
      "v": 127
    },
    {
      "midi": 57,
      "hit": false,
      "t": 98454.5372499999,
      "d": 1607.954411458326,
      "v": 127
    },
    {
      "midi": 55,
      "hit": false,
      "t": 98727.26449999945,
      "d": 963.0681015624868,
      "v": 127
    },
    {
      "midi": 54,
      "hit": false,
      "t": 98999.99174999945,
      "d": 363.63633333332837,
      "v": 127
    },
    {
      "midi": 62,
      "hit": false,
      "t": 99272.71899999944,
      "d": 4227.272374999942,
      "v": 127
    },
    {
      "midi": 54,
      "hit": false,
      "t": 99545.44624999944,
      "d": 374.9999687499949,
      "v": 127
    },
    {
      "midi": 55,
      "hit": false,
      "t": 99818.17349999944,
      "d": 1539.7725989583123,
      "v": 127
    },
    {
      "midi": 54,
      "hit": false,
      "t": 100090.90074999943,
      "d": 724.4317578124901,
      "v": 127
    },
    {
      "midi": 59,
      "hit": false,
      "t": 100090.9007499999,
      "d": 636.3635833333392,
      "v": 127
    },
    {
      "midi": 40,
      "hit": false,
      "t": 100363.62799999943,
      "d": 4090.9087499999587,
      "v": 127
    },
    {
      "midi": 28,
      "hit": false,
      "t": 100363.62799999995,
      "d": 4363.635999999999,
      "v": 127
    },
    {
      "midi": 47,
      "hit": false,
      "t": 100636.35524999943,
      "d": 321.02270052082895,
      "v": 127
    },
    {
      "midi": 57,
      "hit": false,
      "t": 100636.3552499999,
      "d": 247.15907031249662,
      "v": 127
    },
    {
      "midi": 54,
      "hit": false,
      "t": 100909.08249999942,
      "d": 857.9544739583216,
      "v": 127
    },
    {
      "midi": 57,
      "hit": false,
      "t": 100909.0824999999,
      "d": 843.749929687503,
      "v": 127
    },
    {
      "midi": 47,
      "hit": false,
      "t": 101181.80974999942,
      "d": 329.54542708332883,
      "v": 127
    },
    {
      "midi": 55,
      "hit": false,
      "t": 101454.53699999941,
      "d": 1542.613507812479,
      "v": 127
    },
    {
      "midi": 47,
      "hit": false,
      "t": 101727.26424999941,
      "d": 309.65906510416244,
      "v": 127
    },
    {
      "midi": 59,
      "hit": false,
      "t": 101727.2642499999,
      "d": 159.09089583333116,
      "v": 127
    },
    {
      "midi": 57,
      "hit": false,
      "t": 101863.6278749999,
      "d": 224.4317994791636,
      "v": 127
    },
    {
      "midi": 54,
      "hit": false,
      "t": 101999.9914999994,
      "d": 732.95448437499,
      "v": 127
    },
    {
      "midi": 55,
      "hit": false,
      "t": 101999.9914999999,
      "d": 2732.9543177083397,
      "v": 127
    },
    {
      "midi": 47,
      "hit": false,
      "t": 102272.7187499994,
      "d": 298.2954296874959,
      "v": 127
    },
    {
      "midi": 48,
      "hit": false,
      "t": 102545.4459999994,
      "d": 2232.954359374984,
      "v": 127
    },
    {
      "midi": 54,
      "hit": false,
      "t": 102818.1732499994,
      "d": 352.27269791666185,
      "v": 127
    },
    {
      "midi": 55,
      "hit": false,
      "t": 103090.90049999939,
      "d": 2454.545249999981,
      "v": 127
    },
    {
      "midi": 54,
      "hit": false,
      "t": 103363.62774999939,
      "d": 1636.3634999999922,
      "v": 127
    },
    {
      "midi": 62,
      "hit": false,
      "t": 103636.35499999938,
      "d": 4241.47691927079,
      "v": 127
    },
    {
      "midi": 40,
      "hit": false,
      "t": 104727.26399999938,
      "d": 4073.8632968749444,
      "v": 127
    },
    {
      "midi": 28,
      "hit": false,
      "t": 104727.26399999995,
      "d": 4363.635999999999,
      "v": 127
    },
    {
      "midi": 47,
      "hit": false,
      "t": 104999.99124999938,
      "d": 323.8636093749956,
      "v": 127
    },
    {
      "midi": 54,
      "hit": false,
      "t": 105272.71849999938,
      "d": 903.4090156249877,
      "v": 127
    },
    {
      "midi": 64,
      "hit": false,
      "t": 105272.71849999992,
      "d": 113.63635416666511,
      "v": 127
    },
    {
      "midi": 47,
      "hit": false,
      "t": 105545.44574999937,
      "d": 332.38633593749546,
      "v": 127
    },
    {
      "midi": 64,
      "hit": false,
      "t": 105545.44574999991,
      "d": 107.95453645833186,
      "v": 127
    },
    {
      "midi": 55,
      "hit": false,
      "t": 105818.17299999937,
      "d": 1531.2498723958124,
      "v": 127
    },
    {
      "midi": 64,
      "hit": false,
      "t": 105818.17299999991,
      "d": 562.4999531250069,
      "v": 127
    },
    {
      "midi": 47,
      "hit": false,
      "t": 106090.90024999937,
      "d": 366.477242187495,
      "v": 127
    },
    {
      "midi": 54,
      "hit": false,
      "t": 106363.62749999936,
      "d": 704.5453958333237,
      "v": 127
    },
    {
      "midi": 62,
      "hit": false,
      "t": 106363.62749999992,
      "d": 542.6135911458405,
      "v": 127
    },
    {
      "midi": 47,
      "hit": false,
      "t": 106636.35474999936,
      "d": 264.2045234374964,
      "v": 127
    },
    {
      "midi": 48,
      "hit": false,
      "t": 106909.08199999935,
      "d": 2249.9998124999693,
      "v": 127
    },
    {
      "midi": 59,
      "hit": false,
      "t": 106909.08199999992,
      "d": 326.7045182291622,
      "v": 127
    },
    {
      "midi": 54,
      "hit": false,
      "t": 107181.80924999935,
      "d": 357.9545156249951,
      "v": 127
    },
    {
      "midi": 57,
      "hit": false,
      "t": 107181.80924999992,
      "d": 1153.4089947916655,
      "v": 127
    },
    {
      "midi": 55,
      "hit": false,
      "t": 107454.53649999935,
      "d": 954.545374999987,
      "v": 127
    },
    {
      "midi": 54,
      "hit": false,
      "t": 107727.26374999934,
      "d": 363.63633333332837,
      "v": 127
    },
    {
      "midi": 62,
      "hit": false,
      "t": 107999.99099999934,
      "d": 4156.249653645777,
      "v": 127
    },
    {
      "midi": 54,
      "hit": false,
      "t": 108272.71824999934,
      "d": 340.90906249999534,
      "v": 127
    },
    {
      "midi": 55,
      "hit": false,
      "t": 108272.71824999992,
      "d": 323.8636093749956,
      "v": 127
    },
    {
      "midi": 55,
      "hit": false,
      "t": 108545.44549999933,
      "d": 1565.340778645812,
      "v": 127
    },
    {
      "midi": 57,
      "hit": false,
      "t": 108545.44549999991,
      "d": 338.0681536458287,
      "v": 127
    },
    {
      "midi": 54,
      "hit": false,
      "t": 108818.17274999933,
      "d": 661.9317630208243,
      "v": 127
    },
    {
      "midi": 55,
      "hit": false,
      "t": 108818.17274999991,
      "d": 340.90906249999534,
      "v": 127
    },
    {
      "midi": 40,
      "hit": false,
      "t": 109090.89999999932,
      "d": 4147.726927083291,
      "v": 127
    },
    {
      "midi": 59,
      "hit": false,
      "t": 109090.8999999999,
      "d": 818.1817500000034,
      "v": 127
    },
    {
      "midi": 28,
      "hit": false,
      "t": 109090.89999999995,
      "d": 4363.635999999999,
      "v": 127
    },
    {
      "midi": 47,
      "hit": false,
      "t": 109363.62724999932,
      "d": 329.54542708332883,
      "v": 127
    },
    {
      "midi": 54,
      "hit": false,
      "t": 109636.35449999932,
      "d": 846.5908385416551,
      "v": 127
    },
    {
      "midi": 47,
      "hit": false,
      "t": 109909.08174999931,
      "d": 329.54542708332883,
      "v": 127
    },
    {
      "midi": 62,
      "hit": false,
      "t": 109909.08174999991,
      "d": 383.52269531249476,
      "v": 127
    },
    {
      "midi": 55,
      "hit": false,
      "t": 110181.80899999931,
      "d": 1593.7498671874782,
      "v": 127
    },
    {
      "midi": 59,
      "hit": false,
      "t": 110181.8089999999,
      "d": 3221.5906406249997,
      "v": 127
    },
    {
      "midi": 47,
      "hit": false,
      "t": 110454.5362499993,
      "d": 332.38633593749546,
      "v": 127
    },
    {
      "midi": 54,
      "hit": false,
      "t": 110727.2634999993,
      "d": 713.0681223958236,
      "v": 127
    },
    {
      "midi": 47,
      "hit": false,
      "t": 110999.9907499993,
      "d": 292.61361197916267,
      "v": 127
    },
    {
      "midi": 48,
      "hit": false,
      "t": 111272.7179999993,
      "d": 2321.0225338541495,
      "v": 127
    },
    {
      "midi": 54,
      "hit": false,
      "t": 111545.44524999929,
      "d": 400.56814843749453,
      "v": 127
    },
    {
      "midi": 55,
      "hit": false,
      "t": 111818.17249999929,
      "d": 2181.8179999999847,
      "v": 127
    },
    {
      "midi": 54,
      "hit": false,
      "t": 112090.89974999928,
      "d": 1636.3634999999922,
      "v": 127
    },
    {
      "midi": 62,
      "hit": false,
      "t": 112363.62699999928,
      "d": 2181.8179999999847,
      "v": 127
    },
    {
      "midi": 45,
      "hit": false,
      "t": 113454.53599999928,
      "d": 2102.2725520833046,
      "v": 127
    },
    {
      "midi": 33,
      "hit": false,
      "t": 113454.53599999995,
      "d": 2999.9997500000027,
      "v": 127
    },
    {
      "midi": 52,
      "hit": false,
      "t": 113727.26324999928,
      "d": 411.93178385416104,
      "v": 127
    },
    {
      "midi": 55,
      "hit": false,
      "t": 113999.99049999927,
      "d": 1034.0908229166525,
      "v": 127
    },
    {
      "midi": 52,
      "hit": false,
      "t": 114272.71774999927,
      "d": 482.95450520832674,
      "v": 127
    },
    {
      "midi": 60,
      "hit": false,
      "t": 114545.44499999926,
      "d": 2122.158914062471,
      "v": 127
    },
    {
      "midi": 67,
      "hit": false,
      "t": 114545.4449999999,
      "d": 1349.4317057291628,
      "v": 127
    },
    {
      "midi": 52,
      "hit": false,
      "t": 114818.17224999926,
      "d": 505.68177604165976,
      "v": 127
    },
    {
      "midi": 55,
      "hit": false,
      "t": 115090.89949999926,
      "d": 1002.8408255208196,
      "v": 127
    },
    {
      "midi": 52,
      "hit": false,
      "t": 115363.62674999925,
      "d": 522.7272291666595,
      "v": 127
    },
    {
      "midi": 45,
      "hit": false,
      "t": 115636.35399999925,
      "d": 2068.181645833305,
      "v": 127
    },
    {
      "midi": 54,
      "hit": false,
      "t": 115909.08124999925,
      "d": 448.8635989583272,
      "v": 127
    },
    {
      "midi": 64,
      "hit": false,
      "t": 115909.0812499999,
      "d": 286.9317942708294,
      "v": 127
    },
    {
      "midi": 55,
      "hit": false,
      "t": 116181.80849999924,
      "d": 963.0681015624868,
      "v": 127
    },
    {
      "midi": 62,
      "hit": false,
      "t": 116181.8084999999,
      "d": 289.77270312499604,
      "v": 127
    },
    {
      "midi": 54,
      "hit": false,
      "t": 116454.53574999924,
      "d": 474.43177864582685,
      "v": 127
    },
    {
      "midi": 64,
      "hit": false,
      "t": 116454.5357499999,
      "d": 323.8636093749956,
      "v": 127
    },
    {
      "midi": 28,
      "hit": false,
      "t": 116454.53574999995,
      "d": 272.7272499999963,
      "v": 127
    },
    {
      "midi": 62,
      "hit": false,
      "t": 116727.26299999924,
      "d": 2187.4998177083035,
      "v": 127
    },
    {
      "midi": 62,
      "hit": false,
      "t": 116727.26299999989,
      "d": 1747.1589453125052,
      "v": 127
    },
    {
      "midi": 31,
      "hit": false,
      "t": 116727.26299999995,
      "d": 272.7272499999963,
      "v": 127
    },
    {
      "midi": 54,
      "hit": false,
      "t": 116999.99024999923,
      "d": 434.65905468749406,
      "v": 127
    },
    {
      "midi": 28,
      "hit": false,
      "t": 116999.99024999994,
      "d": 272.7272499999963,
      "v": 127
    },
    {
      "midi": 55,
      "hit": false,
      "t": 117272.71749999923,
      "d": 982.9544635416532,
      "v": 127
    },
    {
      "midi": 54,
      "hit": false,
      "t": 117545.44474999922,
      "d": 457.3863255208271,
      "v": 127
    },
    {
      "midi": 31,
      "hit": false,
      "t": 117545.44474999994,
      "d": 272.7272499999963,
      "v": 127
    },
    {
      "midi": 45,
      "hit": false,
      "t": 117818.17199999922,
      "d": 2105.1134609374712,
      "v": 127
    },
    {
      "midi": 33,
      "hit": false,
      "t": 117818.17199999993,
      "d": 3272.726999999999,
      "v": 127
    },
    {
      "midi": 52,
      "hit": false,
      "t": 118090.89924999922,
      "d": 423.29541927082755,
      "v": 127
    },
    {
      "midi": 55,
      "hit": false,
      "t": 118363.62649999921,
      "d": 985.7953723958199,
      "v": 127
    },
    {
      "midi": 52,
      "hit": false,
      "t": 118636.35374999921,
      "d": 451.70450781249383,
      "v": 127
    },
    {
      "midi": 60,
      "hit": false,
      "t": 118909.0809999992,
      "d": 2110.7952786458045,
      "v": 127
    },
    {
      "midi": 64,
      "hit": false,
      "t": 118909.08099999989,
      "d": 278.40906770832953,
      "v": 127
    },
    {
      "midi": 52,
      "hit": false,
      "t": 119181.8082499992,
      "d": 454.54541666666046,
      "v": 127
    },
    {
      "midi": 66,
      "hit": false,
      "t": 119181.80824999989,
      "d": 318.1817916666623,
      "v": 127
    },
    {
      "midi": 55,
      "hit": false,
      "t": 119454.5354999992,
      "d": 1019.8862786458194,
      "v": 127
    },
    {
      "midi": 67,
      "hit": false,
      "t": 119454.53549999988,
      "d": 278.40906770832953,
      "v": 127
    },
    {
      "midi": 52,
      "hit": false,
      "t": 119727.2627499992,
      "d": 454.54541666666046,
      "v": 127
    },
    {
      "midi": 69,
      "hit": false,
      "t": 119727.26274999988,
      "d": 917.6135598958354,
      "v": 127
    },
    {
      "midi": 45,
      "hit": false,
      "t": 119999.98999999919,
      "d": 2170.4543645833037,
      "v": 127
    },
    {
      "midi": 54,
      "hit": false,
      "t": 120272.71724999919,
      "d": 471.5908697916602,
      "v": 127
    },
    {
      "midi": 55,
      "hit": false,
      "t": 120545.44449999918,
      "d": 1011.3635520833195,
      "v": 127
    },
    {
      "midi": 67,
      "hit": false,
      "t": 120545.44449999988,
      "d": 585.2272239583253,
      "v": 127
    },
    {
      "midi": 54,
      "hit": false,
      "t": 120818.17174999918,
      "d": 434.65905468749406,
      "v": 127
    },
    {
      "midi": 62,
      "hit": false,
      "t": 121090.89899999918,
      "d": 2122.158914062471,
      "v": 127
    },
    {
      "midi": 66,
      "hit": false,
      "t": 121090.89899999987,
      "d": 343.74997135416197,
      "v": 127
    },
    {
      "midi": 35,
      "hit": false,
      "t": 121090.89899999993,
      "d": 1090.9089999999997,
      "v": 127
    },
    {
      "midi": 54,
      "hit": false,
      "t": 121363.62624999917,
      "d": 417.6136015624943,
      "v": 127
    },
    {
      "midi": 64,
      "hit": false,
      "t": 121363.62624999987,
      "d": 525.5681380208262,
      "v": 127
    },
    {
      "midi": 55,
      "hit": false,
      "t": 121636.35349999917,
      "d": 843.7499296874885,
      "v": 127
    },
    {
      "midi": 54,
      "hit": false,
      "t": 121909.08074999916,
      "d": 465.90905208332697,
      "v": 127
    },
    {
      "midi": 67,
      "hit": false,
      "t": 121909.08074999986,
      "d": 309.65906510416244,
      "v": 127
    },
    {
      "midi": 40,
      "hit": false,
      "t": 122181.80799999916,
      "d": 4073.8632968749444,
      "v": 127
    },
    {
      "midi": 66,
      "hit": false,
      "t": 122181.80799999986,
      "d": 3818.181500000006,
      "v": 127
    },
    {
      "midi": 28,
      "hit": false,
      "t": 122181.80799999993,
      "d": 4363.635999999999,
      "v": 127
    },
    {
      "midi": 47,
      "hit": false,
      "t": 122454.53524999916,
      "d": 323.8636093749956,
      "v": 127
    },
    {
      "midi": 54,
      "hit": false,
      "t": 122727.26249999915,
      "d": 903.4090156249877,
      "v": 127
    },
    {
      "midi": 47,
      "hit": false,
      "t": 122999.98974999915,
      "d": 332.38633593749546,
      "v": 127
    },
    {
      "midi": 55,
      "hit": false,
      "t": 123272.71699999915,
      "d": 1531.2498723958124,
      "v": 127
    },
    {
      "midi": 47,
      "hit": false,
      "t": 123545.44424999914,
      "d": 366.477242187495,
      "v": 127
    },
    {
      "midi": 54,
      "hit": false,
      "t": 123818.17149999914,
      "d": 704.5453958333237,
      "v": 127
    },
    {
      "midi": 47,
      "hit": false,
      "t": 124090.89874999913,
      "d": 264.2045234374964,
      "v": 127
    },
    {
      "midi": 48,
      "hit": false,
      "t": 124363.62599999913,
      "d": 2249.9998124999693,
      "v": 127
    },
    {
      "midi": 54,
      "hit": false,
      "t": 124636.35324999913,
      "d": 357.9545156249951,
      "v": 127
    },
    {
      "midi": 55,
      "hit": false,
      "t": 124909.08049999912,
      "d": 954.545374999987,
      "v": 127
    },
    {
      "midi": 54,
      "hit": false,
      "t": 125181.80774999912,
      "d": 363.63633333332837,
      "v": 127
    },
    {
      "midi": 62,
      "hit": false,
      "t": 125454.53499999912,
      "d": 4173.295106770776,
      "v": 127
    },
    {
      "midi": 54,
      "hit": false,
      "t": 125727.26224999911,
      "d": 340.90906249999534,
      "v": 127
    },
    {
      "midi": 55,
      "hit": false,
      "t": 125999.98949999911,
      "d": 1565.340778645812,
      "v": 127
    },
    {
      "midi": 62,
      "hit": false,
      "t": 125999.98949999987,
      "d": 545.4545000000071,
      "v": 127
    },
    {
      "midi": 54,
      "hit": false,
      "t": 126272.7167499991,
      "d": 661.9317630208243,
      "v": 127
    },
    {
      "midi": 40,
      "hit": false,
      "t": 126545.4439999991,
      "d": 4147.726927083291,
      "v": 127
    },
    {
      "midi": 64,
      "hit": false,
      "t": 126545.44399999987,
      "d": 4363.635999999999,
      "v": 127
    },
    {
      "midi": 28,
      "hit": false,
      "t": 126545.44399999993,
      "d": 4363.635999999999,
      "v": 127
    },
    {
      "midi": 47,
      "hit": false,
      "t": 126818.1712499991,
      "d": 329.54542708332883,
      "v": 127
    },
    {
      "midi": 54,
      "hit": false,
      "t": 127090.8984999991,
      "d": 846.5908385416551,
      "v": 127
    },
    {
      "midi": 47,
      "hit": false,
      "t": 127363.62574999909,
      "d": 329.54542708332883,
      "v": 127
    },
    {
      "midi": 55,
      "hit": false,
      "t": 127636.35299999909,
      "d": 1593.7498671874782,
      "v": 127
    },
    {
      "midi": 47,
      "hit": false,
      "t": 127909.08024999908,
      "d": 332.38633593749546,
      "v": 127
    },
    {
      "midi": 54,
      "hit": false,
      "t": 128181.80749999908,
      "d": 713.0681223958236,
      "v": 127
    },
    {
      "midi": 47,
      "hit": false,
      "t": 128454.53474999907,
      "d": 292.61361197916267,
      "v": 127
    },
    {
      "midi": 48,
      "hit": false,
      "t": 128727.26199999907,
      "d": 2321.0225338541495,
      "v": 127
    },
    {
      "midi": 54,
      "hit": false,
      "t": 128999.98924999907,
      "d": 400.56814843749453,
      "v": 127
    },
    {
      "midi": 55,
      "hit": false,
      "t": 129272.71649999906,
      "d": 1636.3634999999922,
      "v": 127
    },
    {
      "midi": 54,
      "hit": false,
      "t": 129545.44374999906,
      "d": 1363.636249999996,
      "v": 127
    },
    {
      "midi": 62,
      "hit": false,
      "t": 129818.17099999906,
      "d": 1090.9089999999997,
      "v": 127
    },
    {
      "midi": 40,
      "hit": false,
      "t": 130909.07999999993,
      "d": 2105.113460937486,
      "v": 127
    },
    {
      "midi": 40,
      "hit": false,
      "t": 130909.07999999996,
      "d": 1090.9090000000142,
      "v": 127
    },
    {
      "midi": 47,
      "hit": false,
      "t": 130909.07999999996,
      "d": 1090.9090000000142,
      "v": 127
    },
    {
      "midi": 52,
      "hit": false,
      "t": 130909.07999999996,
      "d": 1090.9090000000142,
      "v": 127
    },
    {
      "midi": 67,
      "hit": false,
      "t": 131999.98899999988,
      "d": 630.6817656249914,
      "v": 127
    },
    {
      "midi": 52,
      "hit": false,
      "t": 131999.98899999997,
      "d": 1090.9090000000142,
      "v": 127
    },
    {
      "midi": 59,
      "hit": false,
      "t": 131999.98899999997,
      "d": 1090.9090000000142,
      "v": 127
    },
    {
      "midi": 64,
      "hit": false,
      "t": 131999.98899999997,
      "d": 1090.9090000000142,
      "v": 127
    },
    {
      "midi": 66,
      "hit": false,
      "t": 132545.44349999988,
      "d": 622.159039062506,
      "v": 127
    },
    {
      "midi": 69,
      "hit": false,
      "t": 133090.89799999987,
      "d": 332.3863359375391,
      "v": 127
    },
    {
      "midi": 36,
      "hit": false,
      "t": 133090.89799999993,
      "d": 2133.522549479181,
      "v": 127
    },
    {
      "midi": 48,
      "hit": false,
      "t": 133090.898,
      "d": 1636.3635000000068,
      "v": 127
    },
    {
      "midi": 55,
      "hit": false,
      "t": 133090.898,
      "d": 1636.3635000000068,
      "v": 127
    },
    {
      "midi": 60,
      "hit": false,
      "t": 133090.898,
      "d": 1636.3635000000068,
      "v": 127
    },
    {
      "midi": 67,
      "hit": false,
      "t": 133363.6252499999,
      "d": 1258.5226223958598,
      "v": 127
    },
    {
      "midi": 67,
      "hit": false,
      "t": 134727.26149999994,
      "d": 153.4090781249979,
      "v": 127
    },
    {
      "midi": 48,
      "hit": false,
      "t": 134727.2615,
      "d": 272.7272499999963,
      "v": 127
    },
    {
      "midi": 55,
      "hit": false,
      "t": 134727.2615,
      "d": 272.7272499999963,
      "v": 127
    },
    {
      "midi": 60,
      "hit": false,
      "t": 134727.2615,
      "d": 272.7272499999963,
      "v": 127
    },
    {
      "midi": 67,
      "hit": false,
      "t": 134999.98874999993,
      "d": 127.8408984375128,
      "v": 127
    },
    {
      "midi": 48,
      "hit": false,
      "t": 134999.98875,
      "d": 272.7272499999963,
      "v": 127
    },
    {
      "midi": 55,
      "hit": false,
      "t": 134999.98875,
      "d": 272.7272499999963,
      "v": 127
    },
    {
      "midi": 60,
      "hit": false,
      "t": 134999.98875,
      "d": 272.7272499999963,
      "v": 127
    },
    {
      "midi": 38,
      "hit": false,
      "t": 135272.71599999996,
      "d": 2105.113460937515,
      "v": 127
    },
    {
      "midi": 67,
      "hit": false,
      "t": 135272.71599999996,
      "d": 795.4544791666558,
      "v": 127
    },
    {
      "midi": 50,
      "hit": false,
      "t": 135272.716,
      "d": 1636.3635000000068,
      "v": 127
    },
    {
      "midi": 57,
      "hit": false,
      "t": 135272.716,
      "d": 1636.3635000000068,
      "v": 127
    },
    {
      "midi": 62,
      "hit": false,
      "t": 135272.716,
      "d": 1636.3635000000068,
      "v": 127
    },
    {
      "midi": 64,
      "hit": false,
      "t": 136090.89774999995,
      "d": 193.1818020833307,
      "v": 127
    },
    {
      "midi": 64,
      "hit": false,
      "t": 136363.62499999994,
      "d": 1389.2044296874956,
      "v": 127
    },
    {
      "midi": 50,
      "hit": false,
      "t": 136909.0795,
      "d": 545.4544999999925,
      "v": 127
    },
    {
      "midi": 57,
      "hit": false,
      "t": 136909.0795,
      "d": 545.4544999999925,
      "v": 127
    },
    {
      "midi": 62,
      "hit": false,
      "t": 136909.0795,
      "d": 545.4544999999925,
      "v": 127
    },
    {
      "midi": 31,
      "hit": false,
      "t": 137454.53399999999,
      "d": 136.36362499999814,
      "v": 127
    },
    {
      "midi": 43,
      "hit": false,
      "t": 137454.53399999999,
      "d": 272.7272499999963,
      "v": 127
    },
    {
      "midi": 50,
      "hit": false,
      "t": 137454.53399999999,
      "d": 272.7272499999963,
      "v": 127
    },
    {
      "midi": 55,
      "hit": false,
      "t": 137454.53399999999,
      "d": 272.7272499999963,
      "v": 127
    },
    {
      "midi": 31,
      "hit": false,
      "t": 137727.26124999998,
      "d": 249.99997916666325,
      "v": 127
    },
    {
      "midi": 43,
      "hit": false,
      "t": 137727.26124999998,
      "d": 272.7272499999963,
      "v": 127
    },
    {
      "midi": 50,
      "hit": false,
      "t": 137727.26124999998,
      "d": 272.7272499999963,
      "v": 127
    },
    {
      "midi": 55,
      "hit": false,
      "t": 137727.26124999998,
      "d": 272.7272499999963,
      "v": 127
    },
    {
      "midi": 35,
      "hit": false,
      "t": 138545.44299999997,
      "d": 156.24998697917908,
      "v": 127
    },
    {
      "midi": 41,
      "hit": false,
      "t": 138545.44299999997,
      "d": 272.7272499999963,
      "v": 127
    },
    {
      "midi": 48,
      "hit": false,
      "t": 138545.44299999997,
      "d": 272.7272499999963,
      "v": 127
    },
    {
      "midi": 53,
      "hit": false,
      "t": 138545.44299999997,
      "d": 272.7272499999963,
      "v": 127
    },
    {
      "midi": 41,
      "hit": false,
      "t": 138818.17024999997,
      "d": 272.7272499999963,
      "v": 127
    },
    {
      "midi": 48,
      "hit": false,
      "t": 138818.17024999997,
      "d": 272.7272499999963,
      "v": 127
    },
    {
      "midi": 53,
      "hit": false,
      "t": 138818.17024999997,
      "d": 272.7272499999963,
      "v": 127
    },
    {
      "midi": 35,
      "hit": false,
      "t": 138818.17025,
      "d": 238.63634374999674,
      "v": 127
    },
    {
      "midi": 40,
      "hit": false,
      "t": 139636.35199999996,
      "d": 1090.9090000000142,
      "v": 127
    },
    {
      "midi": 47,
      "hit": false,
      "t": 139636.35199999996,
      "d": 1090.9090000000142,
      "v": 127
    },
    {
      "midi": 52,
      "hit": false,
      "t": 139636.35199999996,
      "d": 1090.9090000000142,
      "v": 127
    },
    {
      "midi": 40,
      "hit": false,
      "t": 139636.35199999998,
      "d": 2176.136182291666,
      "v": 127
    },
    {
      "midi": 67,
      "hit": false,
      "t": 140727.26099999994,
      "d": 579.5454062499921,
      "v": 127
    },
    {
      "midi": 52,
      "hit": false,
      "t": 140727.26099999997,
      "d": 1090.9090000000142,
      "v": 127
    },
    {
      "midi": 59,
      "hit": false,
      "t": 140727.26099999997,
      "d": 1090.9090000000142,
      "v": 127
    },
    {
      "midi": 64,
      "hit": false,
      "t": 140727.26099999997,
      "d": 1090.9090000000142,
      "v": 127
    },
    {
      "midi": 66,
      "hit": false,
      "t": 141272.71549999993,
      "d": 633.5226744791726,
      "v": 127
    },
    {
      "midi": 69,
      "hit": false,
      "t": 141818.16999999993,
      "d": 303.97724739587284,
      "v": 127
    },
    {
      "midi": 36,
      "hit": false,
      "t": 141818.16999999998,
      "d": 2170.454364583333,
      "v": 127
    },
    {
      "midi": 48,
      "hit": false,
      "t": 141818.16999999998,
      "d": 1636.3635000000068,
      "v": 127
    },
    {
      "midi": 55,
      "hit": false,
      "t": 141818.16999999998,
      "d": 1636.3635000000068,
      "v": 127
    },
    {
      "midi": 60,
      "hit": false,
      "t": 141818.16999999998,
      "d": 1636.3635000000068,
      "v": 127
    },
    {
      "midi": 67,
      "hit": false,
      "t": 142090.89724999995,
      "d": 1238.6362604166789,
      "v": 127
    },
    {
      "midi": 67,
      "hit": false,
      "t": 143454.53349999996,
      "d": 178.9772578125121,
      "v": 127
    },
    {
      "midi": 48,
      "hit": false,
      "t": 143454.5335,
      "d": 272.7272499999963,
      "v": 127
    },
    {
      "midi": 55,
      "hit": false,
      "t": 143454.5335,
      "d": 272.7272499999963,
      "v": 127
    },
    {
      "midi": 60,
      "hit": false,
      "t": 143454.5335,
      "d": 272.7272499999963,
      "v": 127
    },
    {
      "midi": 48,
      "hit": false,
      "t": 143727.26075,
      "d": 272.7272499999963,
      "v": 127
    },
    {
      "midi": 55,
      "hit": false,
      "t": 143727.26075,
      "d": 272.7272499999963,
      "v": 127
    },
    {
      "midi": 60,
      "hit": false,
      "t": 143727.26075,
      "d": 272.7272499999963,
      "v": 127
    },
    {
      "midi": 67,
      "hit": false,
      "t": 143727.26075,
      "d": 127.8408984375128,
      "v": 127
    },
    {
      "midi": 38,
      "hit": false,
      "t": 143999.98799999998,
      "d": 2207.3861796875135,
      "v": 127
    },
    {
      "midi": 50,
      "hit": false,
      "t": 143999.98799999998,
      "d": 1636.3635000000068,
      "v": 127
    },
    {
      "midi": 57,
      "hit": false,
      "t": 143999.98799999998,
      "d": 1636.3635000000068,
      "v": 127
    },
    {
      "midi": 62,
      "hit": false,
      "t": 143999.98799999998,
      "d": 1636.3635000000068,
      "v": 127
    },
    {
      "midi": 67,
      "hit": false,
      "t": 143999.988,
      "d": 872.1590182291693,
      "v": 127
    },
    {
      "midi": 64,
      "hit": false,
      "t": 144818.16975,
      "d": 196.02271093751187,
      "v": 127
    },
    {
      "midi": 64,
      "hit": false,
      "t": 145090.89700000003,
      "d": 2872.1588515625044,
      "v": 127
    },
    {
      "midi": 50,
      "hit": false,
      "t": 145636.3515,
      "d": 545.4544999999925,
      "v": 127
    },
    {
      "midi": 57,
      "hit": false,
      "t": 145636.3515,
      "d": 545.4544999999925,
      "v": 127
    },
    {
      "midi": 62,
      "hit": false,
      "t": 145636.3515,
      "d": 545.4544999999925,
      "v": 127
    },
    {
      "midi": 31,
      "hit": false,
      "t": 146181.80599999998,
      "d": 187.49998437502654,
      "v": 127
    },
    {
      "midi": 43,
      "hit": false,
      "t": 146181.80599999998,
      "d": 272.7272499999963,
      "v": 127
    },
    {
      "midi": 50,
      "hit": false,
      "t": 146181.80599999998,
      "d": 272.7272499999963,
      "v": 127
    },
    {
      "midi": 55,
      "hit": false,
      "t": 146181.80599999998,
      "d": 272.7272499999963,
      "v": 127
    },
    {
      "midi": 43,
      "hit": false,
      "t": 146454.53324999998,
      "d": 272.7272499999963,
      "v": 127
    },
    {
      "midi": 50,
      "hit": false,
      "t": 146454.53324999998,
      "d": 272.7272499999963,
      "v": 127
    },
    {
      "midi": 55,
      "hit": false,
      "t": 146454.53324999998,
      "d": 272.7272499999963,
      "v": 127
    },
    {
      "midi": 31,
      "hit": false,
      "t": 146454.53325,
      "d": 176.13634895833093,
      "v": 127
    },
    {
      "midi": 43,
      "hit": false,
      "t": 146727.26049999997,
      "d": 272.7272499999963,
      "v": 127
    },
    {
      "midi": 50,
      "hit": false,
      "t": 146727.26049999997,
      "d": 272.7272499999963,
      "v": 127
    },
    {
      "midi": 55,
      "hit": false,
      "t": 146727.26049999997,
      "d": 272.7272499999963,
      "v": 127
    },
    {
      "midi": 31,
      "hit": false,
      "t": 146727.2605,
      "d": 176.13634895833093,
      "v": 127
    },
    {
      "midi": 43,
      "hit": false,
      "t": 146999.98774999997,
      "d": 272.7272499999963,
      "v": 127
    },
    {
      "midi": 50,
      "hit": false,
      "t": 146999.98774999997,
      "d": 272.7272499999963,
      "v": 127
    },
    {
      "midi": 55,
      "hit": false,
      "t": 146999.98774999997,
      "d": 272.7272499999963,
      "v": 127
    },
    {
      "midi": 31,
      "hit": false,
      "t": 146999.98775,
      "d": 204.5454374999972,
      "v": 127
    },
    {
      "midi": 42,
      "hit": false,
      "t": 147272.71499999997,
      "d": 272.7272499999963,
      "v": 127
    },
    {
      "midi": 49,
      "hit": false,
      "t": 147272.71499999997,
      "d": 272.7272499999963,
      "v": 127
    },
    {
      "midi": 54,
      "hit": false,
      "t": 147272.71499999997,
      "d": 272.7272499999963,
      "v": 127
    },
    {
      "midi": 35,
      "hit": false,
      "t": 147272.715,
      "d": 161.93180468751234,
      "v": 127
    },
    {
      "midi": 42,
      "hit": false,
      "t": 147545.44224999996,
      "d": 272.7272499999963,
      "v": 127
    },
    {
      "midi": 49,
      "hit": false,
      "t": 147545.44224999996,
      "d": 272.7272499999963,
      "v": 127
    },
    {
      "midi": 54,
      "hit": false,
      "t": 147545.44224999996,
      "d": 272.7272499999963,
      "v": 127
    },
    {
      "midi": 35,
      "hit": false,
      "t": 147545.44225000002,
      "d": 164.77271354166442,
      "v": 127
    },
    {
      "midi": 42,
      "hit": false,
      "t": 147818.16949999996,
      "d": 272.7272499999963,
      "v": 127
    },
    {
      "midi": 49,
      "hit": false,
      "t": 147818.16949999996,
      "d": 272.7272499999963,
      "v": 127
    },
    {
      "midi": 54,
      "hit": false,
      "t": 147818.16949999996,
      "d": 272.7272499999963,
      "v": 127
    },
    {
      "midi": 35,
      "hit": false,
      "t": 147818.16950000002,
      "d": 161.93180468751234,
      "v": 127
    },
    {
      "midi": 42,
      "hit": false,
      "t": 148090.89674999996,
      "d": 272.7272499999963,
      "v": 127
    },
    {
      "midi": 49,
      "hit": false,
      "t": 148090.89674999996,
      "d": 272.7272499999963,
      "v": 127
    },
    {
      "midi": 54,
      "hit": false,
      "t": 148090.89674999996,
      "d": 272.7272499999963,
      "v": 127
    },
    {
      "midi": 35,
      "hit": false,
      "t": 148090.89675000004,
      "d": 261.36361458332976,
      "v": 127
    },
    {
      "midi": 40,
      "hit": false,
      "t": 148363.62399999995,
      "d": 1090.9090000000142,
      "v": 127
    },
    {
      "midi": 47,
      "hit": false,
      "t": 148363.62399999995,
      "d": 1090.9090000000142,
      "v": 127
    },
    {
      "midi": 52,
      "hit": false,
      "t": 148363.62399999995,
      "d": 1090.9090000000142,
      "v": 127
    },
    {
      "midi": 40,
      "hit": false,
      "t": 148363.62400000004,
      "d": 2048.2952838541532,
      "v": 127
    },
    {
      "midi": 71,
      "hit": false,
      "t": 148909.07850000003,
      "d": 545.4544999999925,
      "v": 127
    },
    {
      "midi": 52,
      "hit": false,
      "t": 149454.53299999997,
      "d": 1090.9090000000142,
      "v": 127
    },
    {
      "midi": 59,
      "hit": false,
      "t": 149454.53299999997,
      "d": 1090.9090000000142,
      "v": 127
    },
    {
      "midi": 64,
      "hit": false,
      "t": 149454.53299999997,
      "d": 1090.9090000000142,
      "v": 127
    },
    {
      "midi": 69,
      "hit": false,
      "t": 149454.53300000002,
      "d": 545.4544999999925,
      "v": 127
    },
    {
      "midi": 69,
      "hit": false,
      "t": 149999.98750000002,
      "d": 355.11360677084303,
      "v": 127
    },
    {
      "midi": 48,
      "hit": false,
      "t": 150545.44199999998,
      "d": 1636.3635000000068,
      "v": 127
    },
    {
      "midi": 55,
      "hit": false,
      "t": 150545.44199999998,
      "d": 1636.3635000000068,
      "v": 127
    },
    {
      "midi": 60,
      "hit": false,
      "t": 150545.44199999998,
      "d": 1636.3635000000068,
      "v": 127
    },
    {
      "midi": 36,
      "hit": false,
      "t": 150545.44200000004,
      "d": 2068.181645833334,
      "v": 127
    },
    {
      "midi": 69,
      "hit": false,
      "t": 150545.44200000004,
      "d": 272.7272499999963,
      "v": 127
    },
    {
      "midi": 67,
      "hit": false,
      "t": 150818.16925000004,
      "d": 1090.9090000000142,
      "v": 127
    },
    {
      "midi": 48,
      "hit": false,
      "t": 152181.8055,
      "d": 272.7272499999963,
      "v": 127
    },
    {
      "midi": 55,
      "hit": false,
      "t": 152181.8055,
      "d": 272.7272499999963,
      "v": 127
    },
    {
      "midi": 60,
      "hit": false,
      "t": 152181.8055,
      "d": 272.7272499999963,
      "v": 127
    },
    {
      "midi": 67,
      "hit": false,
      "t": 152181.80550000005,
      "d": 235.79543489584466,
      "v": 127
    },
    {
      "midi": 48,
      "hit": false,
      "t": 152454.53274999998,
      "d": 272.7272499999963,
      "v": 127
    },
    {
      "midi": 55,
      "hit": false,
      "t": 152454.53274999998,
      "d": 272.7272499999963,
      "v": 127
    },
    {
      "midi": 60,
      "hit": false,
      "t": 152454.53274999998,
      "d": 272.7272499999963,
      "v": 127
    },
    {
      "midi": 67,
      "hit": false,
      "t": 152454.53275000007,
      "d": 210.22725520833046,
      "v": 127
    },
    {
      "midi": 50,
      "hit": false,
      "t": 152727.25999999998,
      "d": 1636.3635000000068,
      "v": 127
    },
    {
      "midi": 57,
      "hit": false,
      "t": 152727.25999999998,
      "d": 1636.3635000000068,
      "v": 127
    },
    {
      "midi": 62,
      "hit": false,
      "t": 152727.25999999998,
      "d": 1636.3635000000068,
      "v": 127
    },
    {
      "midi": 38,
      "hit": false,
      "t": 152727.26000000004,
      "d": 2056.8180104166677,
      "v": 127
    },
    {
      "midi": 69,
      "hit": false,
      "t": 152727.26000000007,
      "d": 937.4999218749872,
      "v": 127
    },
    {
      "midi": 64,
      "hit": false,
      "t": 153545.44175000006,
      "d": 142.0454427083314,
      "v": 127
    },
    {
      "midi": 64,
      "hit": false,
      "t": 153818.16900000005,
      "d": 551.1363177083258,
      "v": 127
    },
    {
      "midi": 50,
      "hit": false,
      "t": 154363.6235,
      "d": 545.4544999999925,
      "v": 127
    },
    {
      "midi": 57,
      "hit": false,
      "t": 154363.6235,
      "d": 545.4544999999925,
      "v": 127
    },
    {
      "midi": 62,
      "hit": false,
      "t": 154363.6235,
      "d": 545.4544999999925,
      "v": 127
    },
    {
      "midi": 62,
      "hit": false,
      "t": 154363.62350000005,
      "d": 264.20452343751094,
      "v": 127
    },
    {
      "midi": 64,
      "hit": false,
      "t": 154636.35075000007,
      "d": 903.4090156249877,
      "v": 127
    },
    {
      "midi": 43,
      "hit": false,
      "t": 154909.07799999998,
      "d": 272.7272499999963,
      "v": 127
    },
    {
      "midi": 50,
      "hit": false,
      "t": 154909.07799999998,
      "d": 272.7272499999963,
      "v": 127
    },
    {
      "midi": 55,
      "hit": false,
      "t": 154909.07799999998,
      "d": 272.7272499999963,
      "v": 127
    },
    {
      "midi": 31,
      "hit": false,
      "t": 154909.07800000004,
      "d": 156.24998697917908,
      "v": 127
    },
    {
      "midi": 43,
      "hit": false,
      "t": 155181.80524999998,
      "d": 272.7272499999963,
      "v": 127
    },
    {
      "midi": 50,
      "hit": false,
      "t": 155181.80524999998,
      "d": 272.7272499999963,
      "v": 127
    },
    {
      "midi": 55,
      "hit": false,
      "t": 155181.80524999998,
      "d": 272.7272499999963,
      "v": 127
    },
    {
      "midi": 31,
      "hit": false,
      "t": 155181.80525000006,
      "d": 281.2499765625107,
      "v": 127
    },
    {
      "midi": 67,
      "hit": false,
      "t": 155454.53250000006,
      "d": 1252.8408046874974,
      "v": 127
    },
    {
      "midi": 47,
      "hit": false,
      "t": 155999.98699999996,
      "d": 272.7272499999963,
      "v": 127
    },
    {
      "midi": 54,
      "hit": false,
      "t": 155999.98699999996,
      "d": 272.7272499999963,
      "v": 127
    },
    {
      "midi": 59,
      "hit": false,
      "t": 155999.98699999996,
      "d": 272.7272499999963,
      "v": 127
    },
    {
      "midi": 35,
      "hit": false,
      "t": 155999.98700000008,
      "d": 150.56816927084583,
      "v": 127
    },
    {
      "midi": 47,
      "hit": false,
      "t": 156272.71424999996,
      "d": 272.7272499999963,
      "v": 127
    },
    {
      "midi": 54,
      "hit": false,
      "t": 156272.71424999996,
      "d": 272.7272499999963,
      "v": 127
    },
    {
      "midi": 59,
      "hit": false,
      "t": 156272.71424999996,
      "d": 272.7272499999963,
      "v": 127
    },
    {
      "midi": 35,
      "hit": false,
      "t": 156272.7142500001,
      "d": 232.95452604166348,
      "v": 127
    },
    {
      "midi": 40,
      "hit": false,
      "t": 157090.89599999995,
      "d": 1090.9090000000142,
      "v": 127
    },
    {
      "midi": 47,
      "hit": false,
      "t": 157090.89599999995,
      "d": 1090.9090000000142,
      "v": 127
    },
    {
      "midi": 52,
      "hit": false,
      "t": 157090.89599999995,
      "d": 1090.9090000000142,
      "v": 127
    },
    {
      "midi": 40,
      "hit": false,
      "t": 157090.8960000001,
      "d": 2076.7043723958195,
      "v": 127
    },
    {
      "midi": 52,
      "hit": false,
      "t": 158181.80499999996,
      "d": 1090.9090000000142,
      "v": 127
    },
    {
      "midi": 59,
      "hit": false,
      "t": 158181.80499999996,
      "d": 1090.9090000000142,
      "v": 127
    },
    {
      "midi": 64,
      "hit": false,
      "t": 158181.80499999996,
      "d": 1090.9090000000142,
      "v": 127
    },
    {
      "midi": 67,
      "hit": false,
      "t": 158181.80500000005,
      "d": 579.5454062499921,
      "v": 127
    },
    {
      "midi": 66,
      "hit": false,
      "t": 158727.25950000004,
      "d": 647.7272187499912,
      "v": 127
    },
    {
      "midi": 48,
      "hit": false,
      "t": 159272.71399999998,
      "d": 1636.3635000000068,
      "v": 127
    },
    {
      "midi": 55,
      "hit": false,
      "t": 159272.71399999998,
      "d": 1636.3635000000068,
      "v": 127
    },
    {
      "midi": 60,
      "hit": false,
      "t": 159272.71399999998,
      "d": 1636.3635000000068,
      "v": 127
    },
    {
      "midi": 67,
      "hit": false,
      "t": 159272.71400000004,
      "d": 210.22725520833046,
      "v": 127
    },
    {
      "midi": 36,
      "hit": false,
      "t": 159272.7140000001,
      "d": 2056.8180104166677,
      "v": 127
    },
    {
      "midi": 67,
      "hit": false,
      "t": 159545.44125000003,
      "d": 1329.545343750011,
      "v": 127
    },
    {
      "midi": 48,
      "hit": false,
      "t": 160909.07749999998,
      "d": 272.7272499999963,
      "v": 127
    },
    {
      "midi": 55,
      "hit": false,
      "t": 160909.07749999998,
      "d": 272.7272499999963,
      "v": 127
    },
    {
      "midi": 60,
      "hit": false,
      "t": 160909.07749999998,
      "d": 272.7272499999963,
      "v": 127
    },
    {
      "midi": 66,
      "hit": false,
      "t": 160909.07750000004,
      "d": 545.4544999999925,
      "v": 127
    },
    {
      "midi": 48,
      "hit": false,
      "t": 161181.80474999998,
      "d": 272.7272499999963,
      "v": 127
    },
    {
      "midi": 55,
      "hit": false,
      "t": 161181.80474999998,
      "d": 272.7272499999963,
      "v": 127
    },
    {
      "midi": 60,
      "hit": false,
      "t": 161181.80474999998,
      "d": 272.7272499999963,
      "v": 127
    },
    {
      "midi": 50,
      "hit": false,
      "t": 161454.53199999998,
      "d": 2181.8179999999993,
      "v": 127
    },
    {
      "midi": 57,
      "hit": false,
      "t": 161454.53199999998,
      "d": 2181.8179999999993,
      "v": 127
    },
    {
      "midi": 62,
      "hit": false,
      "t": 161454.53199999998,
      "d": 2181.8179999999993,
      "v": 127
    },
    {
      "midi": 67,
      "hit": false,
      "t": 161454.53200000004,
      "d": 2181.8179999999993,
      "v": 127
    },
    {
      "midi": 38,
      "hit": false,
      "t": 161454.5320000001,
      "d": 2215.908906249999,
      "v": 127
    },
    {
      "midi": 48,
      "hit": false,
      "t": 163636.34999999998,
      "d": 2181.8179999999993,
      "v": 127
    },
    {
      "midi": 55,
      "hit": false,
      "t": 163636.34999999998,
      "d": 2181.8179999999993,
      "v": 127
    },
    {
      "midi": 60,
      "hit": false,
      "t": 163636.34999999998,
      "d": 2181.8179999999993,
      "v": 127
    },
    {
      "midi": 64,
      "hit": false,
      "t": 163636.35000000003,
      "d": 2181.8179999999993,
      "v": 127
    },
    {
      "midi": 36,
      "hit": false,
      "t": 163636.3500000001,
      "d": 2142.0452760416665,
      "v": 127
    },
    {
      "midi": 50,
      "hit": false,
      "t": 165818.16799999907,
      "d": 926.1362864583207,
      "v": 127
    },
    {
      "midi": 54,
      "hit": false,
      "t": 166090.89524999907,
      "d": 1065.3408203125,
      "v": 127
    },
    {
      "midi": 55,
      "hit": false,
      "t": 166363.62249999907,
      "d": 985.7953723958635,
      "v": 127
    },
    {
      "midi": 48,
      "hit": false,
      "t": 166636.34974999906,
      "d": 1318.1817083333735,
      "v": 127
    },
    {
      "midi": 52,
      "hit": false,
      "t": 167181.80424999908,
      "d": 1869.3180260416702,
      "v": 127
    },
    {
      "midi": 55,
      "hit": false,
      "t": 167454.5314999991,
      "d": 1624.9998645833111,
      "v": 127
    },
    {
      "midi": 40,
      "hit": false,
      "t": 167999.9859999991,
      "d": 4204.545104166667,
      "v": 127
    },
    {
      "midi": 47,
      "hit": false,
      "t": 168545.4404999991,
      "d": 1704.5453124999767,
      "v": 127
    },
    {
      "midi": 52,
      "hit": false,
      "t": 169090.8949999991,
      "d": 1207.3862630208314,
      "v": 127
    },
    {
      "midi": 55,
      "hit": false,
      "t": 169124.9859062491,
      "d": 1187.4999010416795,
      "v": 127
    },
    {
      "midi": 62,
      "hit": false,
      "t": 169159.0768124991,
      "d": 1124.9999062499846,
      "v": 127
    },
    {
      "midi": 64,
      "hit": false,
      "t": 169193.1677187491,
      "d": 1028.4090052083193,
      "v": 127
    },
    {
      "midi": 50,
      "hit": false,
      "t": 170181.80399999907,
      "d": 863.636291666684,
      "v": 127
    },
    {
      "midi": 54,
      "hit": false,
      "t": 170454.5312499991,
      "d": 1122.1589973958326,
      "v": 127
    },
    {
      "midi": 55,
      "hit": false,
      "t": 170727.2584999991,
      "d": 1036.9317317708337,
      "v": 127
    },
    {
      "midi": 48,
      "hit": false,
      "t": 170999.9857499991,
      "d": 1343.7498880208586,
      "v": 127
    },
    {
      "midi": 55,
      "hit": false,
      "t": 171818.1674999991,
      "d": 1639.204408854188,
      "v": 127
    },
    {
      "midi": 40,
      "hit": false,
      "t": 172363.62199999913,
      "d": 4198.863286458363,
      "v": 127
    },
    {
      "midi": 47,
      "hit": false,
      "t": 172909.07649999912,
      "d": 1869.3180260416702,
      "v": 127
    },
    {
      "midi": 52,
      "hit": false,
      "t": 173454.53099999912,
      "d": 5.6818177083623596,
      "v": 127
    },
    {
      "midi": 55,
      "hit": false,
      "t": 173488.62190624914,
      "d": 1198.863536458317,
      "v": 127
    },
    {
      "midi": 62,
      "hit": false,
      "t": 173505.66735937414,
      "d": 1136.3635416666511,
      "v": 127
    },
    {
      "midi": 64,
      "hit": false,
      "t": 173539.75826562414,
      "d": 1068.181729166652,
      "v": 127
    },
    {
      "midi": 50,
      "hit": false,
      "t": 174545.43999999913,
      "d": 843.749929687503,
      "v": 127
    },
    {
      "midi": 54,
      "hit": false,
      "t": 174818.16724999913,
      "d": 1153.40899479168,
      "v": 127
    },
    {
      "midi": 55,
      "hit": false,
      "t": 175090.89449999912,
      "d": 1082.3862734375289,
      "v": 127
    },
    {
      "midi": 48,
      "hit": false,
      "t": 175363.62174999912,
      "d": 1451.7044244792196,
      "v": 127
    },
    {
      "midi": 55,
      "hit": false,
      "t": 176181.80349999917,
      "d": 1363.6362500000105,
      "v": 127
    },
    {
      "midi": 40,
      "hit": false,
      "t": 176727.25799999916,
      "d": 4090.9087500000314,
      "v": 127
    },
    {
      "midi": 47,
      "hit": false,
      "t": 177272.71249999918,
      "d": 1650.5680442708253,
      "v": 127
    },
    {
      "midi": 52,
      "hit": false,
      "t": 177818.16699999917,
      "d": 28.40908854166628,
      "v": 127
    },
    {
      "midi": 55,
      "hit": false,
      "t": 177835.21245312417,
      "d": 1090.9090000000142,
      "v": 127
    },
    {
      "midi": 62,
      "hit": false,
      "t": 177852.25790624917,
      "d": 1133.5226328125282,
      "v": 127
    },
    {
      "midi": 64,
      "hit": false,
      "t": 177869.30335937417,
      "d": 1099.4317265625286,
      "v": 127
    },
    {
      "midi": 50,
      "hit": false,
      "t": 178909.07599999916,
      "d": 971.5908281250449,
      "v": 127
    },
    {
      "midi": 54,
      "hit": false,
      "t": 179181.8032499992,
      "d": 1159.0908124999842,
      "v": 127
    },
    {
      "midi": 55,
      "hit": false,
      "t": 179454.5304999992,
      "d": 1039.7726406249858,
      "v": 127
    },
    {
      "midi": 48,
      "hit": false,
      "t": 179727.2577499992,
      "d": 1386.3635208333144,
      "v": 127
    },
    {
      "midi": 52,
      "hit": false,
      "t": 180272.7122499992,
      "d": 886.3635624999879,
      "v": 127
    },
    {
      "midi": 55,
      "hit": false,
      "t": 180545.4394999992,
      "d": 769.8862994791707,
      "v": 127
    },
    {
      "midi": 40,
      "hit": false,
      "t": 181090.89399999919,
      "d": 4073.86329687509,
      "v": 127
    },
    {
      "midi": 28,
      "hit": false,
      "t": 181090.8940000001,
      "d": 4363.635999999999,
      "v": 127
    },
    {
      "midi": 47,
      "hit": false,
      "t": 181363.6212499992,
      "d": 323.8636093749956,
      "v": 127
    },
    {
      "midi": 54,
      "hit": false,
      "t": 181636.3484999992,
      "d": 903.4090156250168,
      "v": 127
    },
    {
      "midi": 47,
      "hit": false,
      "t": 181909.0757499992,
      "d": 332.38633593751,
      "v": 127
    },
    {
      "midi": 55,
      "hit": false,
      "t": 182181.8029999992,
      "d": 1531.2498723959143,
      "v": 127
    },
    {
      "midi": 64,
      "hit": false,
      "t": 182181.80300000004,
      "d": 630.6817656249914,
      "v": 127
    },
    {
      "midi": 47,
      "hit": false,
      "t": 182454.53024999922,
      "d": 366.47724218750955,
      "v": 127
    },
    {
      "midi": 54,
      "hit": false,
      "t": 182727.25749999922,
      "d": 704.5453958333819,
      "v": 127
    },
    {
      "midi": 62,
      "hit": false,
      "t": 182727.25750000004,
      "d": 571.0226796875068,
      "v": 127
    },
    {
      "midi": 47,
      "hit": false,
      "t": 182999.98474999925,
      "d": 264.20452343751094,
      "v": 127
    },
    {
      "midi": 48,
      "hit": false,
      "t": 183272.71199999927,
      "d": 2249.9998124999984,
      "v": 127
    },
    {
      "midi": 59,
      "hit": false,
      "t": 183272.71200000003,
      "d": 355.11360677087214,
      "v": 127
    },
    {
      "midi": 54,
      "hit": false,
      "t": 183545.43924999927,
      "d": 357.9545156250242,
      "v": 127
    },
    {
      "midi": 57,
      "hit": false,
      "t": 183545.43925000005,
      "d": 1602.2725937500072,
      "v": 127
    },
    {
      "midi": 55,
      "hit": false,
      "t": 183818.1664999993,
      "d": 954.545374999987,
      "v": 127
    },
    {
      "midi": 54,
      "hit": false,
      "t": 184090.8937499993,
      "d": 363.63633333332837,
      "v": 127
    },
    {
      "midi": 62,
      "hit": false,
      "t": 184363.6209999993,
      "d": 4156.249653645966,
      "v": 127
    },
    {
      "midi": 54,
      "hit": false,
      "t": 184636.34824999928,
      "d": 340.90906249999534,
      "v": 127
    },
    {
      "midi": 55,
      "hit": false,
      "t": 184909.07549999928,
      "d": 1565.3407786458556,
      "v": 127
    },
    {
      "midi": 54,
      "hit": false,
      "t": 185181.80274999927,
      "d": 661.9317630208388,
      "v": 127
    },
    {
      "midi": 59,
      "hit": false,
      "t": 185181.80275000006,
      "d": 593.7499505208398,
      "v": 127
    },
    {
      "midi": 40,
      "hit": false,
      "t": 185454.52999999927,
      "d": 4147.72692708348,
      "v": 127
    },
    {
      "midi": 28,
      "hit": false,
      "t": 185454.5300000001,
      "d": 4363.635999999999,
      "v": 127
    },
    {
      "midi": 47,
      "hit": false,
      "t": 185727.25724999927,
      "d": 329.54542708335794,
      "v": 127
    },
    {
      "midi": 57,
      "hit": false,
      "t": 185727.25725000005,
      "d": 150.56816927084583,
      "v": 127
    },
    {
      "midi": 54,
      "hit": false,
      "t": 185999.9844999993,
      "d": 846.5908385416842,
      "v": 127
    },
    {
      "midi": 57,
      "hit": false,
      "t": 185999.98450000008,
      "d": 772.7272083333228,
      "v": 127
    },
    {
      "midi": 47,
      "hit": false,
      "t": 186272.7117499993,
      "d": 329.54542708335794,
      "v": 127
    },
    {
      "midi": 55,
      "hit": false,
      "t": 186545.4389999993,
      "d": 1593.749867187551,
      "v": 127
    },
    {
      "midi": 47,
      "hit": false,
      "t": 186818.1662499993,
      "d": 332.38633593751,
      "v": 127
    },
    {
      "midi": 59,
      "hit": false,
      "t": 186818.16625000007,
      "d": 156.24998697917908,
      "v": 127
    },
    {
      "midi": 57,
      "hit": false,
      "t": 186954.52987500007,
      "d": 207.3863463542075,
      "v": 127
    },
    {
      "midi": 54,
      "hit": false,
      "t": 187090.8934999993,
      "d": 713.0681223958672,
      "v": 127
    },
    {
      "midi": 55,
      "hit": false,
      "t": 187090.8935000001,
      "d": 2730.113408854173,
      "v": 127
    },
    {
      "midi": 47,
      "hit": false,
      "t": 187363.62074999933,
      "d": 292.6136119791772,
      "v": 127
    },
    {
      "midi": 48,
      "hit": false,
      "t": 187636.34799999933,
      "d": 2321.022533854266,
      "v": 127
    },
    {
      "midi": 54,
      "hit": false,
      "t": 187909.07524999935,
      "d": 400.5681484375382,
      "v": 127
    },
    {
      "midi": 55,
      "hit": false,
      "t": 188181.80249999938,
      "d": 2454.545250000083,
      "v": 127
    },
    {
      "midi": 54,
      "hit": false,
      "t": 188454.5297499994,
      "d": 1636.3635000000359,
      "v": 127
    },
    {
      "midi": 62,
      "hit": false,
      "t": 188727.25699999943,
      "d": 4315.34054947921,
      "v": 127
    },
    {
      "midi": 40,
      "hit": false,
      "t": 189818.16599999942,
      "d": 4272.726916666783,
      "v": 127
    },
    {
      "midi": 28,
      "hit": false,
      "t": 189818.16600000008,
      "d": 4363.635999999999,
      "v": 127
    },
    {
      "midi": 47,
      "hit": false,
      "t": 190090.89324999944,
      "d": 366.47724218750955,
      "v": 127
    },
    {
      "midi": 54,
      "hit": false,
      "t": 190363.62049999944,
      "d": 852.2726562500175,
      "v": 127
    },
    {
      "midi": 47,
      "hit": false,
      "t": 190636.34774999946,
      "d": 329.54542708332883,
      "v": 127
    },
    {
      "midi": 55,
      "hit": false,
      "t": 190909.07499999946,
      "d": 1531.249872395827,
      "v": 127
    },
    {
      "midi": 64,
      "hit": false,
      "t": 190909.0750000001,
      "d": 568.1817708333256,
      "v": 127
    },
    {
      "midi": 47,
      "hit": false,
      "t": 191181.80224999945,
      "d": 329.54542708332883,
      "v": 127
    },
    {
      "midi": 54,
      "hit": false,
      "t": 191454.52949999945,
      "d": 676.1363072916574,
      "v": 127
    },
    {
      "midi": 62,
      "hit": false,
      "t": 191454.5295000001,
      "d": 534.090864583326,
      "v": 127
    },
    {
      "midi": 47,
      "hit": false,
      "t": 191727.25674999945,
      "d": 284.0908854166628,
      "v": 127
    },
    {
      "midi": 48,
      "hit": false,
      "t": 191999.98399999944,
      "d": 2298.295263020933,
      "v": 127
    },
    {
      "midi": 59,
      "hit": false,
      "t": 191999.98400000008,
      "d": 269.8863411458442,
      "v": 127
    },
    {
      "midi": 54,
      "hit": false,
      "t": 192272.71124999944,
      "d": 363.63633333335747,
      "v": 127
    },
    {
      "midi": 57,
      "hit": false,
      "t": 192272.7112500001,
      "d": 1062.499911458348,
      "v": 127
    },
    {
      "midi": 55,
      "hit": false,
      "t": 192545.43849999947,
      "d": 911.9317421875603,
      "v": 127
    },
    {
      "midi": 54,
      "hit": false,
      "t": 192818.16574999946,
      "d": 355.11360677087214,
      "v": 127
    },
    {
      "midi": 62,
      "hit": false,
      "t": 193090.8929999995,
      "d": 4176.136015625205,
      "v": 127
    },
    {
      "midi": 54,
      "hit": false,
      "t": 193363.6202499995,
      "d": 380.68178645835724,
      "v": 127
    },
    {
      "midi": 55,
      "hit": false,
      "t": 193363.62025000012,
      "d": 258.5227057291777,
      "v": 127
    },
    {
      "midi": 55,
      "hit": false,
      "t": 193636.34749999954,
      "d": 1599.4316848958842,
      "v": 127
    },
    {
      "midi": 57,
      "hit": false,
      "t": 193636.34750000015,
      "d": 295.4545208333293,
      "v": 127
    },
    {
      "midi": 54,
      "hit": false,
      "t": 193909.07474999953,
      "d": 690.3408515625342,
      "v": 127
    },
    {
      "midi": 55,
      "hit": false,
      "t": 193909.07475000015,
      "d": 289.77270312499604,
      "v": 127
    },
    {
      "midi": 40,
      "hit": false,
      "t": 194181.80199999953,
      "d": 4247.158736979327,
      "v": 127
    },
    {
      "midi": 28,
      "hit": false,
      "t": 194181.80200000008,
      "d": 4363.635999999999,
      "v": 127
    },
    {
      "midi": 59,
      "hit": false,
      "t": 194181.80200000014,
      "d": 869.3181093749881,
      "v": 127
    },
    {
      "midi": 47,
      "hit": false,
      "t": 194454.52924999956,
      "d": 340.90906250002445,
      "v": 127
    },
    {
      "midi": 54,
      "hit": false,
      "t": 194727.25649999958,
      "d": 863.6362916667131,
      "v": 127
    },
    {
      "midi": 47,
      "hit": false,
      "t": 194999.98374999958,
      "d": 377.84087760420516,
      "v": 127
    },
    {
      "midi": 62,
      "hit": false,
      "t": 194999.98375000013,
      "d": 292.6136119791772,
      "v": 127
    },
    {
      "midi": 55,
      "hit": false,
      "t": 195272.7109999996,
      "d": 1542.6135078125517,
      "v": 127
    },
    {
      "midi": 59,
      "hit": false,
      "t": 195272.71100000013,
      "d": 3105.113377604168,
      "v": 127
    },
    {
      "midi": 47,
      "hit": false,
      "t": 195545.43824999963,
      "d": 340.90906249999534,
      "v": 127
    },
    {
      "midi": 54,
      "hit": false,
      "t": 195818.16549999962,
      "d": 678.9772161458386,
      "v": 127
    },
    {
      "midi": 47,
      "hit": false,
      "t": 196090.89274999962,
      "d": 298.2954296875105,
      "v": 127
    },
    {
      "midi": 48,
      "hit": false,
      "t": 196363.61999999962,
      "d": 2116.4770963542396,
      "v": 127
    },
    {
      "midi": 54,
      "hit": false,
      "t": 196636.34724999964,
      "d": 366.47724218753865,
      "v": 127
    },
    {
      "midi": 55,
      "hit": false,
      "t": 196909.07449999967,
      "d": 1909.0907500000321,
      "v": 127
    },
    {
      "midi": 54,
      "hit": false,
      "t": 197181.8017499997,
      "d": 1636.3635000000068,
      "v": 127
    },
    {
      "midi": 62,
      "hit": false,
      "t": 197454.5289999997,
      "d": 2181.8180000000284,
      "v": 127
    },
    {
      "midi": 45,
      "hit": false,
      "t": 198545.4379999997,
      "d": 2102.2725520833337,
      "v": 127
    },
    {
      "midi": 33,
      "hit": false,
      "t": 198545.43800000008,
      "d": 3272.7270000000135,
      "v": 127
    },
    {
      "midi": 52,
      "hit": false,
      "t": 198818.1652499997,
      "d": 411.9317838541756,
      "v": 127
    },
    {
      "midi": 55,
      "hit": false,
      "t": 199090.8924999997,
      "d": 1034.0908229166816,
      "v": 127
    },
    {
      "midi": 52,
      "hit": false,
      "t": 199363.61974999972,
      "d": 482.95450520832674,
      "v": 127
    },
    {
      "midi": 60,
      "hit": false,
      "t": 199636.34699999972,
      "d": 2122.1589140625147,
      "v": 127
    },
    {
      "midi": 67,
      "hit": false,
      "t": 199636.34700000013,
      "d": 1420.454427083343,
      "v": 127
    },
    {
      "midi": 52,
      "hit": false,
      "t": 199909.0742499997,
      "d": 505.68177604165976,
      "v": 127
    },
    {
      "midi": 55,
      "hit": false,
      "t": 200181.8014999997,
      "d": 1002.8408255208342,
      "v": 127
    },
    {
      "midi": 52,
      "hit": false,
      "t": 200454.5287499997,
      "d": 522.7272291666595,
      "v": 127
    },
    {
      "midi": 45,
      "hit": false,
      "t": 200727.2559999997,
      "d": 2068.1816458334506,
      "v": 127
    },
    {
      "midi": 54,
      "hit": false,
      "t": 200999.9832499997,
      "d": 448.8635989583563,
      "v": 127
    },
    {
      "midi": 64,
      "hit": false,
      "t": 200999.98325000014,
      "d": 306.8181562499958,
      "v": 127
    },
    {
      "midi": 55,
      "hit": false,
      "t": 201272.71049999972,
      "d": 963.0681015625596,
      "v": 127
    },
    {
      "midi": 62,
      "hit": false,
      "t": 201272.71050000013,
      "d": 318.1817916666623,
      "v": 127
    },
    {
      "midi": 54,
      "hit": false,
      "t": 201545.43774999972,
      "d": 474.4317786458705,
      "v": 127
    },
    {
      "midi": 64,
      "hit": false,
      "t": 201545.43775000013,
      "d": 298.2954296875105,
      "v": 127
    },
    {
      "midi": 62,
      "hit": false,
      "t": 201818.16499999975,
      "d": 2187.499817708449,
      "v": 127
    },
    {
      "midi": 28,
      "hit": false,
      "t": 201818.1650000001,
      "d": 1090.9090000000142,
      "v": 127
    },
    {
      "midi": 62,
      "hit": false,
      "t": 201818.16500000012,
      "d": 1758.5225807291863,
      "v": 127
    },
    {
      "midi": 54,
      "hit": false,
      "t": 202090.89224999977,
      "d": 434.6590546875377,
      "v": 127
    },
    {
      "midi": 55,
      "hit": false,
      "t": 202363.6194999998,
      "d": 982.9544635417114,
      "v": 127
    },
    {
      "midi": 54,
      "hit": false,
      "t": 202636.34674999982,
      "d": 457.38632552084164,
      "v": 127
    },
    {
      "midi": 45,
      "hit": false,
      "t": 202909.07399999982,
      "d": 2105.113460937602,
      "v": 127
    },
    {
      "midi": 33,
      "hit": false,
      "t": 202909.0740000001,
      "d": 3272.7270000000135,
      "v": 127
    },
    {
      "midi": 52,
      "hit": false,
      "t": 203181.80124999984,
      "d": 423.2954192708421,
      "v": 127
    },
    {
      "midi": 55,
      "hit": false,
      "t": 203454.52849999984,
      "d": 985.7953723958926,
      "v": 127
    },
    {
      "midi": 52,
      "hit": false,
      "t": 203727.25574999987,
      "d": 451.7045078125084,
      "v": 127
    },
    {
      "midi": 60,
      "hit": false,
      "t": 203999.98299999986,
      "d": 2110.7952786459355,
      "v": 127
    },
    {
      "midi": 64,
      "hit": false,
      "t": 203999.98300000015,
      "d": 306.8181562499958,
      "v": 127
    },
    {
      "midi": 52,
      "hit": false,
      "t": 204272.7102499999,
      "d": 454.54541666668956,
      "v": 127
    },
    {
      "midi": 66,
      "hit": false,
      "t": 204272.71025000015,
      "d": 323.8636093749956,
      "v": 127
    },
    {
      "midi": 55,
      "hit": false,
      "t": 204545.4374999999,
      "d": 1019.8862786458631,
      "v": 127
    },
    {
      "midi": 67,
      "hit": false,
      "t": 204545.43750000015,
      "d": 261.36361458332976,
      "v": 127
    },
    {
      "midi": 52,
      "hit": false,
      "t": 204818.1647499999,
      "d": 454.54541666668956,
      "v": 127
    },
    {
      "midi": 69,
      "hit": false,
      "t": 204818.16475000014,
      "d": 840.9090208333218,
      "v": 127
    },
    {
      "midi": 45,
      "hit": false,
      "t": 205090.89199999993,
      "d": 2170.45436458342,
      "v": 127
    },
    {
      "midi": 54,
      "hit": false,
      "t": 205363.61924999993,
      "d": 471.59086979168933,
      "v": 127
    },
    {
      "midi": 55,
      "hit": false,
      "t": 205636.34649999996,
      "d": 1011.3635520833777,
      "v": 127
    },
    {
      "midi": 67,
      "hit": false,
      "t": 205636.34650000013,
      "d": 571.0226796875068,
      "v": 127
    },
    {
      "midi": 54,
      "hit": false,
      "t": 205909.07374999995,
      "d": 434.6590546875377,
      "v": 127
    },
    {
      "midi": 62,
      "hit": false,
      "t": 206181.80099999998,
      "d": 2122.158914062602,
      "v": 127
    },
    {
      "midi": 35,
      "hit": false,
      "t": 206181.80100000012,
      "d": 1090.9090000000142,
      "v": 127
    },
    {
      "midi": 66,
      "hit": false,
      "t": 206181.80100000012,
      "d": 281.2499765625398,
      "v": 127
    },
    {
      "midi": 64,
      "hit": false,
      "t": 206318.16462500015,
      "d": 681.8181250000198,
      "v": 127
    },
    {
      "midi": 54,
      "hit": false,
      "t": 206454.52825,
      "d": 417.61360156250885,
      "v": 127
    },
    {
      "midi": 55,
      "hit": false,
      "t": 206727.2555,
      "d": 843.7499296875321,
      "v": 127
    },
    {
      "midi": 54,
      "hit": false,
      "t": 206999.98275000002,
      "d": 465.90905208332697,
      "v": 127
    },
    {
      "midi": 67,
      "hit": false,
      "t": 206999.98275000017,
      "d": 272.7272499999963,
      "v": 127
    },
    {
      "midi": 40,
      "hit": false,
      "t": 207272.71000000002,
      "d": 4196.022377604269,
      "v": 127
    },
    {
      "midi": 28,
      "hit": false,
      "t": 207272.71000000014,
      "d": 4363.635999999999,
      "v": 127
    },
    {
      "midi": 66,
      "hit": false,
      "t": 207272.71000000017,
      "d": 1499.9998750000086,
      "v": 127
    },
    {
      "midi": 47,
      "hit": false,
      "t": 207545.43725000002,
      "d": 389.2045130208717,
      "v": 127
    },
    {
      "midi": 54,
      "hit": false,
      "t": 207818.16450000004,
      "d": 818.181750000047,
      "v": 127
    },
    {
      "midi": 47,
      "hit": false,
      "t": 208090.89175000007,
      "d": 340.90906250002445,
      "v": 127
    },
    {
      "midi": 55,
      "hit": false,
      "t": 208363.6190000001,
      "d": 1545.4544166666747,
      "v": 127
    },
    {
      "midi": 47,
      "hit": false,
      "t": 208636.3462500001,
      "d": 329.54542708332883,
      "v": 127
    },
    {
      "midi": 54,
      "hit": false,
      "t": 208909.0735000001,
      "d": 517.0454114583263,
      "v": 127
    },
    {
      "midi": 67,
      "hit": false,
      "t": 208909.07350000017,
      "d": 244.31816145833,
      "v": 127
    },
    {
      "midi": 47,
      "hit": false,
      "t": 209181.80075000008,
      "d": 286.93179427084397,
      "v": 127
    },
    {
      "midi": 64,
      "hit": false,
      "t": 209181.80075000017,
      "d": 4417.613268229179,
      "v": 127
    },
    {
      "midi": 48,
      "hit": false,
      "t": 209454.52800000008,
      "d": 2335.2270781250554,
      "v": 127
    },
    {
      "midi": 54,
      "hit": false,
      "t": 209727.2552500001,
      "d": 340.90906249999534,
      "v": 127
    },
    {
      "midi": 55,
      "hit": false,
      "t": 209999.9825000001,
      "d": 900.5681067708356,
      "v": 127
    },
    {
      "midi": 54,
      "hit": false,
      "t": 210272.7097500001,
      "d": 397.7272395833279,
      "v": 127
    },
    {
      "midi": 62,
      "hit": false,
      "t": 210545.4370000001,
      "d": 4221.590557291813,
      "v": 127
    },
    {
      "midi": 54,
      "hit": false,
      "t": 210818.1642500001,
      "d": 397.727239583357,
      "v": 127
    },
    {
      "midi": 55,
      "hit": false,
      "t": 211090.8915000001,
      "d": 1511.3635104167333,
      "v": 127
    },
    {
      "midi": 54,
      "hit": false,
      "t": 211363.6187500001,
      "d": 480.11359635420376,
      "v": 127
    },
    {
      "midi": 28,
      "hit": false,
      "t": 211636.34600000014,
      "d": 4363.635999999999,
      "v": 127
    },
    {
      "midi": 40,
      "hit": false,
      "t": 211636.34600000014,
      "d": 4275.567825520935,
      "v": 127
    },
    {
      "midi": 47,
      "hit": false,
      "t": 211909.07325000016,
      "d": 326.70451822917676,
      "v": 127
    },
    {
      "midi": 54,
      "hit": false,
      "t": 212181.80050000016,
      "d": 892.0453802083794,
      "v": 127
    },
    {
      "midi": 47,
      "hit": false,
      "t": 212454.52775000018,
      "d": 355.11360677084303,
      "v": 127
    },
    {
      "midi": 55,
      "hit": false,
      "t": 212727.25500000018,
      "d": 1517.0453281250666,
      "v": 127
    },
    {
      "midi": 47,
      "hit": false,
      "t": 212999.9822500002,
      "d": 332.38633593751,
      "v": 127
    },
    {
      "midi": 54,
      "hit": false,
      "t": 213272.7095000002,
      "d": 661.931763020868,
      "v": 127
    },
    {
      "midi": 47,
      "hit": false,
      "t": 213545.43675000023,
      "d": 309.659065104177,
      "v": 127
    },
    {
      "midi": 48,
      "hit": false,
      "t": 213818.16400000022,
      "d": 2366.4770755208738,
      "v": 127
    },
    {
      "midi": 54,
      "hit": false,
      "t": 214090.89125000025,
      "d": 392.04542187499464,
      "v": 127
    },
    {
      "midi": 55,
      "hit": false,
      "t": 214363.61850000024,
      "d": 1909.0907500000321,
      "v": 127
    },
    {
      "midi": 54,
      "hit": false,
      "t": 214636.34575000024,
      "d": 1636.3635000000359,
      "v": 127
    },
    {
      "midi": 62,
      "hit": false,
      "t": 214909.07300000024,
      "d": 2181.8180000000575,
      "v": 127
    },
    {
      "midi": 33,
      "hit": false,
      "t": 215999.98200000013,
      "d": 2999.999749999988,
      "v": 127
    },
    {
      "midi": 45,
      "hit": false,
      "t": 215999.98200000025,
      "d": 2102.272552083363,
      "v": 127
    },
    {
      "midi": 52,
      "hit": false,
      "t": 216272.70925000028,
      "d": 411.9317838541756,
      "v": 127
    },
    {
      "midi": 55,
      "hit": false,
      "t": 216545.43650000027,
      "d": 1034.0908229166816,
      "v": 127
    },
    {
      "midi": 52,
      "hit": false,
      "t": 216818.1637500003,
      "d": 482.95450520832674,
      "v": 127
    },
    {
      "midi": 64,
      "hit": false,
      "t": 217090.89100000018,
      "d": 545.4544999999925,
      "v": 127
    },
    {
      "midi": 60,
      "hit": false,
      "t": 217090.8910000003,
      "d": 2122.1589140625147,
      "v": 127
    },
    {
      "midi": 52,
      "hit": false,
      "t": 217363.6182500003,
      "d": 505.68177604165976,
      "v": 127
    },
    {
      "midi": 67,
      "hit": false,
      "t": 217636.34550000017,
      "d": 414.77269270832767,
      "v": 127
    },
    {
      "midi": 55,
      "hit": false,
      "t": 217636.3455000003,
      "d": 1002.8408255208342,
      "v": 127
    },
    {
      "midi": 69,
      "hit": false,
      "t": 217909.07275000017,
      "d": 545.4544999999925,
      "v": 127
    },
    {
      "midi": 52,
      "hit": false,
      "t": 217909.07275000028,
      "d": 522.7272291666595,
      "v": 127
    },
    {
      "midi": 45,
      "hit": false,
      "t": 218181.80000000028,
      "d": 2068.1816458334506,
      "v": 127
    },
    {
      "midi": 67,
      "hit": false,
      "t": 218454.52725000016,
      "d": 1255.6817135416786,
      "v": 127
    },
    {
      "midi": 54,
      "hit": false,
      "t": 218454.52725000028,
      "d": 448.8635989583563,
      "v": 127
    },
    {
      "midi": 55,
      "hit": false,
      "t": 218727.2545000003,
      "d": 963.0681015625596,
      "v": 127
    },
    {
      "midi": 28,
      "hit": false,
      "t": 218999.98175000012,
      "d": 272.7272499999963,
      "v": 127
    },
    {
      "midi": 54,
      "hit": false,
      "t": 218999.9817500003,
      "d": 474.4317786458705,
      "v": 127
    },
    {
      "midi": 31,
      "hit": false,
      "t": 219272.70900000012,
      "d": 272.7272499999963,
      "v": 127
    },
    {
      "midi": 62,
      "hit": false,
      "t": 219272.70900000032,
      "d": 2187.499817708449,
      "v": 127
    },
    {
      "midi": 28,
      "hit": false,
      "t": 219545.43625000012,
      "d": 272.7272499999963,
      "v": 127
    },
    {
      "midi": 54,
      "hit": false,
      "t": 219545.43625000035,
      "d": 434.6590546875377,
      "v": 127
    },
    {
      "midi": 67,
      "hit": false,
      "t": 219818.16350000017,
      "d": 178.9772578125121,
      "v": 127
    },
    {
      "midi": 55,
      "hit": false,
      "t": 219818.16350000037,
      "d": 982.9544635417114,
      "v": 127
    },
    {
      "midi": 31,
      "hit": false,
      "t": 220090.8907500001,
      "d": 272.7272499999963,
      "v": 127
    },
    {
      "midi": 67,
      "hit": false,
      "t": 220090.8907500002,
      "d": 130.68180729166488,
      "v": 127
    },
    {
      "midi": 54,
      "hit": false,
      "t": 220090.8907500004,
      "d": 457.38632552084164,
      "v": 127
    },
    {
      "midi": 33,
      "hit": false,
      "t": 220363.6180000001,
      "d": 3272.7270000000135,
      "v": 127
    },
    {
      "midi": 67,
      "hit": false,
      "t": 220363.6180000002,
      "d": 852.2726562499884,
      "v": 127
    },
    {
      "midi": 45,
      "hit": false,
      "t": 220363.6180000004,
      "d": 2105.113460937602,
      "v": 127
    },
    {
      "midi": 52,
      "hit": false,
      "t": 220636.34525000042,
      "d": 423.2954192708421,
      "v": 127
    },
    {
      "midi": 55,
      "hit": false,
      "t": 220909.07250000042,
      "d": 985.7953723958926,
      "v": 127
    },
    {
      "midi": 66,
      "hit": false,
      "t": 221181.79975000018,
      "d": 170.45453124999767,
      "v": 127
    },
    {
      "midi": 52,
      "hit": false,
      "t": 221181.79975000044,
      "d": 451.7045078125084,
      "v": 127
    },
    {
      "midi": 66,
      "hit": false,
      "t": 221454.52700000018,
      "d": 596.5908593749919,
      "v": 127
    },
    {
      "midi": 60,
      "hit": false,
      "t": 221454.52700000044,
      "d": 2110.7952786459355,
      "v": 127
    },
    {
      "midi": 52,
      "hit": false,
      "t": 221727.25425000046,
      "d": 454.54541666668956,
      "v": 127
    },
    {
      "midi": 64,
      "hit": false,
      "t": 221999.98150000017,
      "d": 178.9772578125121,
      "v": 127
    },
    {
      "midi": 55,
      "hit": false,
      "t": 221999.9815000005,
      "d": 1019.8862786458631,
      "v": 127
    },
    {
      "midi": 64,
      "hit": false,
      "t": 222272.7087500002,
      "d": 1235.7953515624977,
      "v": 127
    },
    {
      "midi": 52,
      "hit": false,
      "t": 222272.7087500005,
      "d": 454.54541666668956,
      "v": 127
    },
    {
      "midi": 45,
      "hit": false,
      "t": 222545.4360000005,
      "d": 2170.45436458342,
      "v": 127
    },
    {
      "midi": 54,
      "hit": false,
      "t": 222818.1632500005,
      "d": 471.59086979168933,
      "v": 127
    },
    {
      "midi": 55,
      "hit": false,
      "t": 223090.89050000053,
      "d": 1011.3635520833777,
      "v": 127
    },
    {
      "midi": 54,
      "hit": false,
      "t": 223363.61775000053,
      "d": 434.6590546875377,
      "v": 127
    },
    {
      "midi": 35,
      "hit": false,
      "t": 223636.34500000012,
      "d": 1090.9090000000142,
      "v": 127
    },
    {
      "midi": 64,
      "hit": false,
      "t": 223636.3450000002,
      "d": 156.24998697917908,
      "v": 127
    },
    {
      "midi": 62,
      "hit": false,
      "t": 223636.34500000055,
      "d": 2122.158914062573,
      "v": 127
    },
    {
      "midi": 64,
      "hit": false,
      "t": 223909.07225000023,
      "d": 298.2954296875105,
      "v": 127
    },
    {
      "midi": 54,
      "hit": false,
      "t": 223909.07225000058,
      "d": 417.61360156250885,
      "v": 127
    },
    {
      "midi": 67,
      "hit": false,
      "t": 224181.79950000023,
      "d": 295.4545208333584,
      "v": 127
    },
    {
      "midi": 55,
      "hit": false,
      "t": 224181.79950000058,
      "d": 843.7499296875321,
      "v": 127
    },
    {
      "midi": 66,
      "hit": false,
      "t": 224454.52675000025,
      "d": 636.3635833333246,
      "v": 127
    },
    {
      "midi": 54,
      "hit": false,
      "t": 224454.5267500006,
      "d": 465.90905208332697,
      "v": 127
    },
    {
      "midi": 28,
      "hit": false,
      "t": 224727.25400000013,
      "d": 4363.635999999999,
      "v": 127
    },
    {
      "midi": 40,
      "hit": false,
      "t": 224727.2540000006,
      "d": 4073.863296875119,
      "v": 127
    },
    {
      "midi": 47,
      "hit": false,
      "t": 224999.9812500006,
      "d": 323.8636093750247,
      "v": 127
    },
    {
      "midi": 66,
      "hit": false,
      "t": 225272.70850000024,
      "d": 559.6590442708402,
      "v": 127
    },
    {
      "midi": 54,
      "hit": false,
      "t": 225272.70850000062,
      "d": 903.4090156250459,
      "v": 127
    },
    {
      "midi": 47,
      "hit": false,
      "t": 225545.43575000062,
      "d": 332.3863359375391,
      "v": 127
    },
    {
      "midi": 67,
      "hit": false,
      "t": 225818.16300000023,
      "d": 573.8635885416879,
      "v": 127
    },
    {
      "midi": 55,
      "hit": false,
      "t": 225818.16300000064,
      "d": 1531.2498723959143,
      "v": 127
    },
    {
      "midi": 47,
      "hit": false,
      "t": 226090.89025000067,
      "d": 366.47724218750955,
      "v": 127
    },
    {
      "midi": 64,
      "hit": false,
      "t": 226363.61750000025,
      "d": 167.6136223958456,
      "v": 127
    },
    {
      "midi": 54,
      "hit": false,
      "t": 226363.61750000066,
      "d": 704.5453958333819,
      "v": 127
    },
    {
      "midi": 64,
      "hit": false,
      "t": 226636.34475000028,
      "d": 545.4544999999925,
      "v": 127
    },
    {
      "midi": 47,
      "hit": false,
      "t": 226636.3447500007,
      "d": 264.20452343751094,
      "v": 127
    },
    {
      "midi": 48,
      "hit": false,
      "t": 226909.0720000007,
      "d": 2249.9998124999984,
      "v": 127
    },
    {
      "midi": 67,
      "hit": false,
      "t": 227181.79925000027,
      "d": 1079.5453645833477,
      "v": 127
    },
    {
      "midi": 54,
      "hit": false,
      "t": 227181.7992500007,
      "d": 357.9545156250242,
      "v": 127
    },
    {
      "midi": 55,
      "hit": false,
      "t": 227454.52650000073,
      "d": 954.545374999987,
      "v": 127
    },
    {
      "midi": 54,
      "hit": false,
      "t": 227727.25375000073,
      "d": 363.63633333332837,
      "v": 127
    },
    {
      "midi": 62,
      "hit": false,
      "t": 227999.98100000073,
      "d": 4173.2951067709655,
      "v": 127
    },
    {
      "midi": 54,
      "hit": false,
      "t": 228272.70825000072,
      "d": 340.90906249999534,
      "v": 127
    },
    {
      "midi": 64,
      "hit": false,
      "t": 228545.43550000028,
      "d": 156.24998697917908,
      "v": 127
    },
    {
      "midi": 55,
      "hit": false,
      "t": 228545.43550000072,
      "d": 1565.3407786458556,
      "v": 127
    },
    {
      "midi": 64,
      "hit": false,
      "t": 228818.1627500003,
      "d": 215.90907291666372,
      "v": 127
    },
    {
      "midi": 54,
      "hit": false,
      "t": 228818.16275000072,
      "d": 661.9317630208388,
      "v": 127
    },
    {
      "midi": 28,
      "hit": false,
      "t": 229090.89000000013,
      "d": 4363.635999999999,
      "v": 127
    },
    {
      "midi": 67,
      "hit": false,
      "t": 229090.8900000003,
      "d": 392.04542187499464,
      "v": 127
    },
    {
      "midi": 40,
      "hit": false,
      "t": 229090.8900000007,
      "d": 4147.72692708348,
      "v": 127
    },
    {
      "midi": 47,
      "hit": false,
      "t": 229363.6172500007,
      "d": 329.54542708335794,
      "v": 127
    },
    {
      "midi": 67,
      "hit": false,
      "t": 229636.3445000003,
      "d": 392.04542187499464,
      "v": 127
    },
    {
      "midi": 54,
      "hit": false,
      "t": 229636.34450000073,
      "d": 846.5908385416842,
      "v": 127
    },
    {
      "midi": 47,
      "hit": false,
      "t": 229909.07175000073,
      "d": 329.54542708335794,
      "v": 127
    },
    {
      "midi": 67,
      "hit": false,
      "t": 230181.7990000003,
      "d": 718.7499401041714,
      "v": 127
    },
    {
      "midi": 55,
      "hit": false,
      "t": 230181.79900000076,
      "d": 1593.749867187551,
      "v": 127
    },
    {
      "midi": 47,
      "hit": false,
      "t": 230454.52625000075,
      "d": 332.38633593751,
      "v": 127
    },
    {
      "midi": 54,
      "hit": false,
      "t": 230727.25350000075,
      "d": 713.0681223958672,
      "v": 127
    },
    {
      "midi": 67,
      "hit": false,
      "t": 230999.9807500003,
      "d": 252.84088802084443,
      "v": 127
    },
    {
      "midi": 47,
      "hit": false,
      "t": 230999.98075000077,
      "d": 292.6136119791772,
      "v": 127
    },
    {
      "midi": 69,
      "hit": false,
      "t": 231272.70800000033,
      "d": 869.3181093749881,
      "v": 127
    },
    {
      "midi": 48,
      "hit": false,
      "t": 231272.70800000077,
      "d": 2321.022533854266,
      "v": 127
    },
    {
      "midi": 54,
      "hit": false,
      "t": 231545.4352500008,
      "d": 400.5681484375382,
      "v": 127
    },
    {
      "midi": 55,
      "hit": false,
      "t": 231818.16250000082,
      "d": 1636.3635000000359,
      "v": 127
    },
    {
      "midi": 67,
      "hit": false,
      "t": 232090.88975000032,
      "d": 275.56815885417745,
      "v": 127
    },
    {
      "midi": 54,
      "hit": false,
      "t": 232090.88975000085,
      "d": 1636.3635000000359,
      "v": 127
    },
    {
      "midi": 71,
      "hit": false,
      "t": 232363.61700000032,
      "d": 517.0454114583554,
      "v": 127
    },
    {
      "midi": 62,
      "hit": false,
      "t": 232363.61700000087,
      "d": 1090.908999999985,
      "v": 127
    },
    {
      "midi": 69,
      "hit": false,
      "t": 232909.07150000034,
      "d": 323.8636093749956,
      "v": 127
    },
    {
      "midi": 67,
      "hit": false,
      "t": 233181.79875000034,
      "d": 1227.2726250000123,
      "v": 127
    },
    {
      "midi": 40,
      "hit": false,
      "t": 233454.52599999998,
      "d": 1090.9090000000142,
      "v": 127
    },
    {
      "midi": 47,
      "hit": false,
      "t": 233454.52599999998,
      "d": 1090.9090000000142,
      "v": 127
    },
    {
      "midi": 52,
      "hit": false,
      "t": 233454.52599999998,
      "d": 1090.9090000000142,
      "v": 127
    },
    {
      "midi": 40,
      "hit": false,
      "t": 233454.52600000013,
      "d": 2133.522549479181,
      "v": 127
    },
    {
      "midi": 52,
      "hit": false,
      "t": 234545.435,
      "d": 1090.9090000000142,
      "v": 127
    },
    {
      "midi": 59,
      "hit": false,
      "t": 234545.435,
      "d": 1090.9090000000142,
      "v": 127
    },
    {
      "midi": 64,
      "hit": false,
      "t": 234545.435,
      "d": 1090.9090000000142,
      "v": 127
    },
    {
      "midi": 67,
      "hit": false,
      "t": 234545.43500000035,
      "d": 514.2045026041742,
      "v": 127
    },
    {
      "midi": 66,
      "hit": false,
      "t": 235090.88950000037,
      "d": 519.8863203125075,
      "v": 127
    },
    {
      "midi": 48,
      "hit": false,
      "t": 235636.344,
      "d": 1636.3635000000068,
      "v": 127
    },
    {
      "midi": 55,
      "hit": false,
      "t": 235636.344,
      "d": 1636.3635000000068,
      "v": 127
    },
    {
      "midi": 60,
      "hit": false,
      "t": 235636.344,
      "d": 1636.3635000000068,
      "v": 127
    },
    {
      "midi": 36,
      "hit": false,
      "t": 235636.34400000016,
      "d": 2110.795278645819,
      "v": 127
    },
    {
      "midi": 69,
      "hit": false,
      "t": 235636.3440000004,
      "d": 545.4544999999925,
      "v": 127
    },
    {
      "midi": 67,
      "hit": false,
      "t": 236181.79850000038,
      "d": 818.1817499999888,
      "v": 127
    },
    {
      "midi": 48,
      "hit": false,
      "t": 237272.70750000002,
      "d": 272.7272499999963,
      "v": 127
    },
    {
      "midi": 55,
      "hit": false,
      "t": 237272.70750000002,
      "d": 272.7272499999963,
      "v": 127
    },
    {
      "midi": 60,
      "hit": false,
      "t": 237272.70750000002,
      "d": 272.7272499999963,
      "v": 127
    },
    {
      "midi": 67,
      "hit": false,
      "t": 237272.70750000037,
      "d": 187.49998437499744,
      "v": 127
    },
    {
      "midi": 48,
      "hit": false,
      "t": 237545.43475000001,
      "d": 272.7272499999963,
      "v": 127
    },
    {
      "midi": 55,
      "hit": false,
      "t": 237545.43475000001,
      "d": 272.7272499999963,
      "v": 127
    },
    {
      "midi": 60,
      "hit": false,
      "t": 237545.43475000001,
      "d": 272.7272499999963,
      "v": 127
    },
    {
      "midi": 67,
      "hit": false,
      "t": 237545.43475000036,
      "d": 161.93180468751234,
      "v": 127
    },
    {
      "midi": 50,
      "hit": false,
      "t": 237818.162,
      "d": 1636.3635000000068,
      "v": 127
    },
    {
      "midi": 57,
      "hit": false,
      "t": 237818.162,
      "d": 1636.3635000000068,
      "v": 127
    },
    {
      "midi": 62,
      "hit": false,
      "t": 237818.162,
      "d": 1636.3635000000068,
      "v": 127
    },
    {
      "midi": 38,
      "hit": false,
      "t": 237818.16200000016,
      "d": 2130.681640625,
      "v": 127
    },
    {
      "midi": 67,
      "hit": false,
      "t": 237818.1620000004,
      "d": 829.5453854166553,
      "v": 127
    },
    {
      "midi": 64,
      "hit": false,
      "t": 238636.34375000038,
      "d": 164.77271354166442,
      "v": 127
    },
    {
      "midi": 64,
      "hit": false,
      "t": 238909.07100000037,
      "d": 1883.5225703124888,
      "v": 127
    },
    {
      "midi": 50,
      "hit": false,
      "t": 239454.52550000002,
      "d": 545.4544999999925,
      "v": 127
    },
    {
      "midi": 57,
      "hit": false,
      "t": 239454.52550000002,
      "d": 545.4544999999925,
      "v": 127
    },
    {
      "midi": 62,
      "hit": false,
      "t": 239454.52550000002,
      "d": 545.4544999999925,
      "v": 127
    },
    {
      "midi": 43,
      "hit": false,
      "t": 239999.98,
      "d": 272.7272499999963,
      "v": 127
    },
    {
      "midi": 50,
      "hit": false,
      "t": 239999.98,
      "d": 272.7272499999963,
      "v": 127
    },
    {
      "midi": 55,
      "hit": false,
      "t": 239999.98,
      "d": 272.7272499999963,
      "v": 127
    },
    {
      "midi": 31,
      "hit": false,
      "t": 239999.98000000016,
      "d": 159.09089583333116,
      "v": 127
    },
    {
      "midi": 43,
      "hit": false,
      "t": 240272.70725,
      "d": 272.7272499999963,
      "v": 127
    },
    {
      "midi": 50,
      "hit": false,
      "t": 240272.70725,
      "d": 272.7272499999963,
      "v": 127
    },
    {
      "midi": 55,
      "hit": false,
      "t": 240272.70725,
      "d": 272.7272499999963,
      "v": 127
    },
    {
      "midi": 31,
      "hit": false,
      "t": 240272.70725000015,
      "d": 238.63634374999674,
      "v": 127
    },
    {
      "midi": 41,
      "hit": false,
      "t": 241090.889,
      "d": 272.7272499999963,
      "v": 127
    },
    {
      "midi": 48,
      "hit": false,
      "t": 241090.889,
      "d": 272.7272499999963,
      "v": 127
    },
    {
      "midi": 53,
      "hit": false,
      "t": 241090.889,
      "d": 272.7272499999963,
      "v": 127
    },
    {
      "midi": 35,
      "hit": false,
      "t": 241090.88900000014,
      "d": 159.09089583333116,
      "v": 127
    },
    {
      "midi": 41,
      "hit": false,
      "t": 241363.61625,
      "d": 272.7272499999963,
      "v": 127
    },
    {
      "midi": 48,
      "hit": false,
      "t": 241363.61625,
      "d": 272.7272499999963,
      "v": 127
    },
    {
      "midi": 53,
      "hit": false,
      "t": 241363.61625,
      "d": 272.7272499999963,
      "v": 127
    },
    {
      "midi": 35,
      "hit": false,
      "t": 241363.61625000014,
      "d": 221.59089062499697,
      "v": 127
    },
    {
      "midi": 40,
      "hit": false,
      "t": 242181.79799999998,
      "d": 1090.9090000000142,
      "v": 127
    },
    {
      "midi": 47,
      "hit": false,
      "t": 242181.79799999998,
      "d": 1090.9090000000142,
      "v": 127
    },
    {
      "midi": 52,
      "hit": false,
      "t": 242181.79799999998,
      "d": 1090.9090000000142,
      "v": 127
    },
    {
      "midi": 40,
      "hit": false,
      "t": 242181.79800000013,
      "d": 2090.908916666667,
      "v": 127
    },
    {
      "midi": 52,
      "hit": false,
      "t": 243272.707,
      "d": 1090.9090000000142,
      "v": 127
    },
    {
      "midi": 59,
      "hit": false,
      "t": 243272.707,
      "d": 1090.9090000000142,
      "v": 127
    },
    {
      "midi": 64,
      "hit": false,
      "t": 243272.707,
      "d": 1090.9090000000142,
      "v": 127
    },
    {
      "midi": 67,
      "hit": false,
      "t": 243272.70700000037,
      "d": 505.68177604165976,
      "v": 127
    },
    {
      "midi": 66,
      "hit": false,
      "t": 243818.16150000037,
      "d": 696.0226692708384,
      "v": 127
    },
    {
      "midi": 48,
      "hit": false,
      "t": 244363.616,
      "d": 1636.3635000000068,
      "v": 127
    },
    {
      "midi": 55,
      "hit": false,
      "t": 244363.616,
      "d": 1636.3635000000068,
      "v": 127
    },
    {
      "midi": 60,
      "hit": false,
      "t": 244363.616,
      "d": 1636.3635000000068,
      "v": 127
    },
    {
      "midi": 36,
      "hit": false,
      "t": 244363.61600000013,
      "d": 2139.2043671875144,
      "v": 127
    },
    {
      "midi": 69,
      "hit": false,
      "t": 244363.61600000036,
      "d": 292.6136119792063,
      "v": 127
    },
    {
      "midi": 67,
      "hit": false,
      "t": 244636.34325000038,
      "d": 1255.6817135416786,
      "v": 127
    },
    {
      "midi": 48,
      "hit": false,
      "t": 245999.97950000002,
      "d": 272.7272499999963,
      "v": 127
    },
    {
      "midi": 55,
      "hit": false,
      "t": 245999.97950000002,
      "d": 272.7272499999963,
      "v": 127
    },
    {
      "midi": 60,
      "hit": false,
      "t": 245999.97950000002,
      "d": 272.7272499999963,
      "v": 127
    },
    {
      "midi": 67,
      "hit": false,
      "t": 245999.9795000004,
      "d": 204.5454374999972,
      "v": 127
    },
    {
      "midi": 48,
      "hit": false,
      "t": 246272.70675,
      "d": 272.7272499999963,
      "v": 127
    },
    {
      "midi": 55,
      "hit": false,
      "t": 246272.70675,
      "d": 272.7272499999963,
      "v": 127
    },
    {
      "midi": 60,
      "hit": false,
      "t": 246272.70675,
      "d": 272.7272499999963,
      "v": 127
    },
    {
      "midi": 67,
      "hit": false,
      "t": 246272.7067500004,
      "d": 176.13634895833093,
      "v": 127
    },
    {
      "midi": 50,
      "hit": false,
      "t": 246545.434,
      "d": 1636.3635000000068,
      "v": 127
    },
    {
      "midi": 57,
      "hit": false,
      "t": 246545.434,
      "d": 1636.3635000000068,
      "v": 127
    },
    {
      "midi": 62,
      "hit": false,
      "t": 246545.434,
      "d": 1636.3635000000068,
      "v": 127
    },
    {
      "midi": 38,
      "hit": false,
      "t": 246545.43400000015,
      "d": 2156.249820312514,
      "v": 127
    },
    {
      "midi": 67,
      "hit": false,
      "t": 246545.4340000004,
      "d": 823.8635677083221,
      "v": 127
    },
    {
      "midi": 64,
      "hit": false,
      "t": 247363.61575000038,
      "d": 184.65907552084536,
      "v": 127
    },
    {
      "midi": 64,
      "hit": false,
      "t": 247636.3430000004,
      "d": 2312.499807291664,
      "v": 127
    },
    {
      "midi": 50,
      "hit": false,
      "t": 248181.79750000002,
      "d": 545.4544999999925,
      "v": 127
    },
    {
      "midi": 57,
      "hit": false,
      "t": 248181.79750000002,
      "d": 545.4544999999925,
      "v": 127
    },
    {
      "midi": 62,
      "hit": false,
      "t": 248181.79750000002,
      "d": 545.4544999999925,
      "v": 127
    },
    {
      "midi": 43,
      "hit": false,
      "t": 248727.252,
      "d": 272.7272499999963,
      "v": 127
    },
    {
      "midi": 50,
      "hit": false,
      "t": 248727.252,
      "d": 272.7272499999963,
      "v": 127
    },
    {
      "midi": 55,
      "hit": false,
      "t": 248727.252,
      "d": 272.7272499999963,
      "v": 127
    },
    {
      "midi": 31,
      "hit": false,
      "t": 248727.25200000018,
      "d": 130.68180729166488,
      "v": 127
    },
    {
      "midi": 43,
      "hit": false,
      "t": 248999.97925,
      "d": 272.7272499999963,
      "v": 127
    },
    {
      "midi": 50,
      "hit": false,
      "t": 248999.97925,
      "d": 272.7272499999963,
      "v": 127
    },
    {
      "midi": 55,
      "hit": false,
      "t": 248999.97925,
      "d": 272.7272499999963,
      "v": 127
    },
    {
      "midi": 31,
      "hit": false,
      "t": 248999.97925000018,
      "d": 116.4772630208463,
      "v": 127
    },
    {
      "midi": 43,
      "hit": false,
      "t": 249272.7065,
      "d": 272.7272499999963,
      "v": 127
    },
    {
      "midi": 50,
      "hit": false,
      "t": 249272.7065,
      "d": 272.7272499999963,
      "v": 127
    },
    {
      "midi": 55,
      "hit": false,
      "t": 249272.7065,
      "d": 272.7272499999963,
      "v": 127
    },
    {
      "midi": 31,
      "hit": false,
      "t": 249272.7065000002,
      "d": 130.68180729166488,
      "v": 127
    },
    {
      "midi": 43,
      "hit": false,
      "t": 249545.43375,
      "d": 272.7272499999963,
      "v": 127
    },
    {
      "midi": 50,
      "hit": false,
      "t": 249545.43375,
      "d": 272.7272499999963,
      "v": 127
    },
    {
      "midi": 55,
      "hit": false,
      "t": 249545.43375,
      "d": 272.7272499999963,
      "v": 127
    },
    {
      "midi": 31,
      "hit": false,
      "t": 249545.4337500002,
      "d": 170.45453124999767,
      "v": 127
    },
    {
      "midi": 42,
      "hit": false,
      "t": 249818.161,
      "d": 272.7272499999963,
      "v": 127
    },
    {
      "midi": 49,
      "hit": false,
      "t": 249818.161,
      "d": 272.7272499999963,
      "v": 127
    },
    {
      "midi": 54,
      "hit": false,
      "t": 249818.161,
      "d": 272.7272499999963,
      "v": 127
    },
    {
      "midi": 30,
      "hit": false,
      "t": 249818.1610000002,
      "d": 130.68180729166488,
      "v": 127
    },
    {
      "midi": 42,
      "hit": false,
      "t": 250090.88825,
      "d": 272.7272499999963,
      "v": 127
    },
    {
      "midi": 49,
      "hit": false,
      "t": 250090.88825,
      "d": 272.7272499999963,
      "v": 127
    },
    {
      "midi": 54,
      "hit": false,
      "t": 250090.88825,
      "d": 272.7272499999963,
      "v": 127
    },
    {
      "midi": 30,
      "hit": false,
      "t": 250090.8882500002,
      "d": 196.02271093751187,
      "v": 127
    },
    {
      "midi": 42,
      "hit": false,
      "t": 250363.61549999999,
      "d": 272.7272499999963,
      "v": 127
    },
    {
      "midi": 49,
      "hit": false,
      "t": 250363.61549999999,
      "d": 272.7272499999963,
      "v": 127
    },
    {
      "midi": 54,
      "hit": false,
      "t": 250363.61549999999,
      "d": 272.7272499999963,
      "v": 127
    },
    {
      "midi": 30,
      "hit": false,
      "t": 250363.61550000022,
      "d": 150.56816927084583,
      "v": 127
    },
    {
      "midi": 42,
      "hit": false,
      "t": 250636.34274999998,
      "d": 272.7272499999963,
      "v": 127
    },
    {
      "midi": 49,
      "hit": false,
      "t": 250636.34274999998,
      "d": 272.7272499999963,
      "v": 127
    },
    {
      "midi": 54,
      "hit": false,
      "t": 250636.34274999998,
      "d": 272.7272499999963,
      "v": 127
    },
    {
      "midi": 30,
      "hit": false,
      "t": 250636.34275000024,
      "d": 207.3863463541784,
      "v": 127
    },
    {
      "midi": 40,
      "hit": false,
      "t": 250909.06999999998,
      "d": 1090.9090000000142,
      "v": 127
    },
    {
      "midi": 47,
      "hit": false,
      "t": 250909.06999999998,
      "d": 1090.9090000000142,
      "v": 127
    },
    {
      "midi": 52,
      "hit": false,
      "t": 250909.06999999998,
      "d": 1090.9090000000142,
      "v": 127
    },
    {
      "midi": 40,
      "hit": false,
      "t": 250909.07000000027,
      "d": 2221.590723958332,
      "v": 127
    },
    {
      "midi": 52,
      "hit": false,
      "t": 251999.979,
      "d": 1090.9090000000142,
      "v": 127
    },
    {
      "midi": 59,
      "hit": false,
      "t": 251999.979,
      "d": 1090.9090000000142,
      "v": 127
    },
    {
      "midi": 64,
      "hit": false,
      "t": 251999.979,
      "d": 1090.9090000000142,
      "v": 127
    },
    {
      "midi": 71,
      "hit": false,
      "t": 251999.9790000004,
      "d": 562.4999531249923,
      "v": 127
    },
    {
      "midi": 69,
      "hit": false,
      "t": 252545.4335000004,
      "d": 531.249955729174,
      "v": 127
    },
    {
      "midi": 48,
      "hit": false,
      "t": 253090.888,
      "d": 1636.3635000000068,
      "v": 127
    },
    {
      "midi": 55,
      "hit": false,
      "t": 253090.888,
      "d": 1636.3635000000068,
      "v": 127
    },
    {
      "midi": 60,
      "hit": false,
      "t": 253090.888,
      "d": 1636.3635000000068,
      "v": 127
    },
    {
      "midi": 36,
      "hit": false,
      "t": 253090.88800000027,
      "d": 2252.8407213541795,
      "v": 127
    },
    {
      "midi": 69,
      "hit": false,
      "t": 253090.8880000004,
      "d": 374.9999687499949,
      "v": 127
    },
    {
      "midi": 67,
      "hit": false,
      "t": 253363.6152500004,
      "d": 1133.522632812499,
      "v": 127
    },
    {
      "midi": 48,
      "hit": false,
      "t": 254727.2515,
      "d": 272.7272499999963,
      "v": 127
    },
    {
      "midi": 55,
      "hit": false,
      "t": 254727.2515,
      "d": 272.7272499999963,
      "v": 127
    },
    {
      "midi": 60,
      "hit": false,
      "t": 254727.2515,
      "d": 272.7272499999963,
      "v": 127
    },
    {
      "midi": 67,
      "hit": false,
      "t": 254727.25150000042,
      "d": 187.49998437499744,
      "v": 127
    },
    {
      "midi": 48,
      "hit": false,
      "t": 254999.97875,
      "d": 272.7272499999963,
      "v": 127
    },
    {
      "midi": 55,
      "hit": false,
      "t": 254999.97875,
      "d": 272.7272499999963,
      "v": 127
    },
    {
      "midi": 60,
      "hit": false,
      "t": 254999.97875,
      "d": 272.7272499999963,
      "v": 127
    },
    {
      "midi": 67,
      "hit": false,
      "t": 254999.97875000042,
      "d": 267.045432291663,
      "v": 127
    },
    {
      "midi": 50,
      "hit": false,
      "t": 255272.706,
      "d": 1636.3635000000068,
      "v": 127
    },
    {
      "midi": 57,
      "hit": false,
      "t": 255272.706,
      "d": 1636.3635000000068,
      "v": 127
    },
    {
      "midi": 62,
      "hit": false,
      "t": 255272.706,
      "d": 1636.3635000000068,
      "v": 127
    },
    {
      "midi": 38,
      "hit": false,
      "t": 255272.70600000027,
      "d": 2093.7498255208484,
      "v": 127
    },
    {
      "midi": 69,
      "hit": false,
      "t": 255272.7060000004,
      "d": 778.409026041656,
      "v": 127
    },
    {
      "midi": 64,
      "hit": false,
      "t": 256090.8877500004,
      "d": 159.09089583333116,
      "v": 127
    },
    {
      "midi": 64,
      "hit": false,
      "t": 256363.6150000004,
      "d": 545.4544999999925,
      "v": 127
    },
    {
      "midi": 50,
      "hit": false,
      "t": 256909.0695,
      "d": 545.4544999999925,
      "v": 127
    },
    {
      "midi": 57,
      "hit": false,
      "t": 256909.0695,
      "d": 545.4544999999925,
      "v": 127
    },
    {
      "midi": 62,
      "hit": false,
      "t": 256909.0695,
      "d": 545.4544999999925,
      "v": 127
    },
    {
      "midi": 62,
      "hit": false,
      "t": 256909.0695000004,
      "d": 210.22725520833046,
      "v": 127
    },
    {
      "midi": 64,
      "hit": false,
      "t": 257181.7967500004,
      "d": 880.6817447916546,
      "v": 127
    },
    {
      "midi": 43,
      "hit": false,
      "t": 257454.524,
      "d": 272.7272499999963,
      "v": 127
    },
    {
      "midi": 50,
      "hit": false,
      "t": 257454.524,
      "d": 272.7272499999963,
      "v": 127
    },
    {
      "midi": 55,
      "hit": false,
      "t": 257454.524,
      "d": 272.7272499999963,
      "v": 127
    },
    {
      "midi": 31,
      "hit": false,
      "t": 257454.5240000003,
      "d": 156.24998697917908,
      "v": 127
    },
    {
      "midi": 43,
      "hit": false,
      "t": 257727.25125,
      "d": 272.7272499999963,
      "v": 127
    },
    {
      "midi": 50,
      "hit": false,
      "t": 257727.25125,
      "d": 272.7272499999963,
      "v": 127
    },
    {
      "midi": 55,
      "hit": false,
      "t": 257727.25125,
      "d": 272.7272499999963,
      "v": 127
    },
    {
      "midi": 31,
      "hit": false,
      "t": 257727.25125000032,
      "d": 278.40906770832953,
      "v": 127
    },
    {
      "midi": 67,
      "hit": false,
      "t": 257999.97850000038,
      "d": 647.7272187499912,
      "v": 127
    },
    {
      "midi": 50,
      "hit": false,
      "t": 258545.433,
      "d": 272.7272499999963,
      "v": 127
    },
    {
      "midi": 57,
      "hit": false,
      "t": 258545.433,
      "d": 272.7272499999963,
      "v": 127
    },
    {
      "midi": 62,
      "hit": false,
      "t": 258545.433,
      "d": 272.7272499999963,
      "v": 127
    },
    {
      "midi": 35,
      "hit": false,
      "t": 258545.4330000003,
      "d": 210.22725520833046,
      "v": 127
    },
    {
      "midi": 50,
      "hit": false,
      "t": 258818.16025,
      "d": 272.7272499999963,
      "v": 127
    },
    {
      "midi": 57,
      "hit": false,
      "t": 258818.16025,
      "d": 272.7272499999963,
      "v": 127
    },
    {
      "midi": 62,
      "hit": false,
      "t": 258818.16025,
      "d": 272.7272499999963,
      "v": 127
    },
    {
      "midi": 35,
      "hit": false,
      "t": 258818.1602500003,
      "d": 215.90907291666372,
      "v": 127
    },
    {
      "midi": 40,
      "hit": false,
      "t": 259636.34199999998,
      "d": 1090.9090000000142,
      "v": 127
    },
    {
      "midi": 47,
      "hit": false,
      "t": 259636.34199999998,
      "d": 1090.9090000000142,
      "v": 127
    },
    {
      "midi": 52,
      "hit": false,
      "t": 259636.34199999998,
      "d": 1090.9090000000142,
      "v": 127
    },
    {
      "midi": 40,
      "hit": false,
      "t": 259636.3420000003,
      "d": 2181.8179999999993,
      "v": 127
    },
    {
      "midi": 52,
      "hit": false,
      "t": 260727.251,
      "d": 1090.9090000000142,
      "v": 127
    },
    {
      "midi": 59,
      "hit": false,
      "t": 260727.251,
      "d": 1090.9090000000142,
      "v": 127
    },
    {
      "midi": 64,
      "hit": false,
      "t": 260727.251,
      "d": 1090.9090000000142,
      "v": 127
    },
    {
      "midi": 67,
      "hit": false,
      "t": 260727.25100000037,
      "d": 602.2726770833251,
      "v": 127
    },
    {
      "midi": 66,
      "hit": false,
      "t": 261272.70550000036,
      "d": 593.7499505208398,
      "v": 127
    },
    {
      "midi": 48,
      "hit": false,
      "t": 261818.16,
      "d": 1636.3635000000068,
      "v": 127
    },
    {
      "midi": 55,
      "hit": false,
      "t": 261818.16,
      "d": 1636.3635000000068,
      "v": 127
    },
    {
      "midi": 60,
      "hit": false,
      "t": 261818.16,
      "d": 1636.3635000000068,
      "v": 127
    },
    {
      "midi": 36,
      "hit": false,
      "t": 261818.1600000003,
      "d": 2161.9316380208184,
      "v": 127
    },
    {
      "midi": 67,
      "hit": false,
      "t": 261818.16000000035,
      "d": 238.63634375002584,
      "v": 127
    },
    {
      "midi": 67,
      "hit": false,
      "t": 262090.88725000038,
      "d": 1468.7498776041903,
      "v": 127
    },
    {
      "midi": 48,
      "hit": false,
      "t": 263454.5235,
      "d": 272.7272499999963,
      "v": 127
    },
    {
      "midi": 55,
      "hit": false,
      "t": 263454.5235,
      "d": 272.7272499999963,
      "v": 127
    },
    {
      "midi": 60,
      "hit": false,
      "t": 263454.5235,
      "d": 272.7272499999963,
      "v": 127
    },
    {
      "midi": 48,
      "hit": false,
      "t": 263727.25075,
      "d": 272.7272499999963,
      "v": 127
    },
    {
      "midi": 55,
      "hit": false,
      "t": 263727.25075,
      "d": 272.7272499999963,
      "v": 127
    },
    {
      "midi": 60,
      "hit": false,
      "t": 263727.25075,
      "d": 272.7272499999963,
      "v": 127
    },
    {
      "midi": 66,
      "hit": false,
      "t": 263727.2507500004,
      "d": 360.7954244791763,
      "v": 127
    },
    {
      "midi": 50,
      "hit": false,
      "t": 263999.978,
      "d": 2181.8180000000284,
      "v": 127
    },
    {
      "midi": 57,
      "hit": false,
      "t": 263999.978,
      "d": 2181.8180000000284,
      "v": 127
    },
    {
      "midi": 62,
      "hit": false,
      "t": 263999.978,
      "d": 2181.8180000000284,
      "v": 127
    },
    {
      "midi": 38,
      "hit": false,
      "t": 263999.9780000003,
      "d": 2167.6134557291516,
      "v": 127
    },
    {
      "midi": 67,
      "hit": false,
      "t": 263999.9780000004,
      "d": 2181.8180000000284,
      "v": 127
    },
    {
      "midi": 48,
      "hit": false,
      "t": 266181.79600000003,
      "d": 2181.8180000000284,
      "v": 127
    },
    {
      "midi": 55,
      "hit": false,
      "t": 266181.79600000003,
      "d": 2181.8180000000284,
      "v": 127
    },
    {
      "midi": 60,
      "hit": false,
      "t": 266181.79600000003,
      "d": 2181.8180000000284,
      "v": 127
    },
    {
      "midi": 36,
      "hit": false,
      "t": 266181.79600000026,
      "d": 2301.1361718749977,
      "v": 127
    },
    {
      "midi": 64,
      "hit": false,
      "t": 266181.79600000044,
      "d": 2181.8180000000284,
      "v": 127
    },
    {
      "midi": 50,
      "hit": false,
      "t": 268363.6140000009,
      "d": 926.1362864583498,
      "v": 127
    },
    {
      "midi": 54,
      "hit": false,
      "t": 268636.34125000087,
      "d": 1065.3408203125,
      "v": 127
    },
    {
      "midi": 55,
      "hit": false,
      "t": 268909.06850000087,
      "d": 985.7953723958344,
      "v": 127
    },
    {
      "midi": 48,
      "hit": false,
      "t": 269181.79575000086,
      "d": 1318.1817083333153,
      "v": 127
    },
    {
      "midi": 52,
      "hit": false,
      "t": 269727.25025000086,
      "d": 1869.3180260416702,
      "v": 127
    },
    {
      "midi": 55,
      "hit": false,
      "t": 269999.97750000085,
      "d": 1624.9998645833693,
      "v": 127
    },
    {
      "midi": 40,
      "hit": false,
      "t": 270545.43200000084,
      "d": 4204.545104166842,
      "v": 127
    },
    {
      "midi": 47,
      "hit": false,
      "t": 271090.88650000084,
      "d": 1704.5453125001513,
      "v": 127
    },
    {
      "midi": 52,
      "hit": false,
      "t": 271636.3410000009,
      "d": 1207.3862630209187,
      "v": 127
    },
    {
      "midi": 55,
      "hit": false,
      "t": 271653.3864531259,
      "d": 1187.4999010417378,
      "v": 127
    },
    {
      "midi": 62,
      "hit": false,
      "t": 271670.43190625095,
      "d": 1124.9999062500428,
      "v": 127
    },
    {
      "midi": 64,
      "hit": false,
      "t": 271687.477359376,
      "d": 1028.4090052083484,
      "v": 127
    },
    {
      "midi": 50,
      "hit": false,
      "t": 272727.250000001,
      "d": 863.6362916666549,
      "v": 127
    },
    {
      "midi": 54,
      "hit": false,
      "t": 272999.977250001,
      "d": 1122.1589973958326,
      "v": 127
    },
    {
      "midi": 55,
      "hit": false,
      "t": 273272.704500001,
      "d": 1036.9317317708628,
      "v": 127
    },
    {
      "midi": 48,
      "hit": false,
      "t": 273545.431750001,
      "d": 1343.7498880208586,
      "v": 127
    },
    {
      "midi": 55,
      "hit": false,
      "t": 274363.613500001,
      "d": 1639.2044088541297,
      "v": 127
    },
    {
      "midi": 40,
      "hit": false,
      "t": 274909.068000001,
      "d": 4198.86328645848,
      "v": 127
    },
    {
      "midi": 47,
      "hit": false,
      "t": 275454.522500001,
      "d": 1869.3180260417284,
      "v": 127
    },
    {
      "midi": 52,
      "hit": false,
      "t": 275999.977000001,
      "d": 5.681817708304152,
      "v": 127
    },
    {
      "midi": 55,
      "hit": false,
      "t": 276034.067906251,
      "d": 1198.8635364584043,
      "v": 127
    },
    {
      "midi": 62,
      "hit": false,
      "t": 276051.11335937603,
      "d": 1136.3635416667094,
      "v": 127
    },
    {
      "midi": 64,
      "hit": false,
      "t": 276068.15881250106,
      "d": 1068.181729166652,
      "v": 127
    },
    {
      "midi": 50,
      "hit": false,
      "t": 277090.88600000105,
      "d": 843.7499296875321,
      "v": 127
    },
    {
      "midi": 54,
      "hit": false,
      "t": 277363.6132500011,
      "d": 1153.40899479168,
      "v": 127
    },
    {
      "midi": 55,
      "hit": false,
      "t": 277636.3405000011,
      "d": 1082.3862734375289,
      "v": 127
    },
    {
      "midi": 48,
      "hit": false,
      "t": 277909.0677500011,
      "d": 1451.7044244792778,
      "v": 127
    },
    {
      "midi": 55,
      "hit": false,
      "t": 278727.24950000114,
      "d": 1363.6362500000396,
      "v": 127
    },
    {
      "midi": 40,
      "hit": false,
      "t": 279272.7040000012,
      "d": 4090.908750000177,
      "v": 127
    },
    {
      "midi": 47,
      "hit": false,
      "t": 279818.1585000012,
      "d": 1650.5680442709127,
      "v": 127
    },
    {
      "midi": 52,
      "hit": false,
      "t": 280363.6130000012,
      "d": 28.409088541695382,
      "v": 127
    },
    {
      "midi": 55,
      "hit": false,
      "t": 280397.70390625123,
      "d": 1090.9090000000433,
      "v": 127
    },
    {
      "midi": 62,
      "hit": false,
      "t": 280431.79481250123,
      "d": 1133.5226328125573,
      "v": 127
    },
    {
      "midi": 64,
      "hit": false,
      "t": 280448.84026562626,
      "d": 1099.4317265624995,
      "v": 127
    },
    {
      "midi": 50,
      "hit": false,
      "t": 281454.5220000013,
      "d": 971.5908281250158,
      "v": 127
    },
    {
      "midi": 54,
      "hit": false,
      "t": 281727.2492500013,
      "d": 1159.0908125000424,
      "v": 127
    },
    {
      "midi": 55,
      "hit": false,
      "t": 281999.97650000127,
      "d": 1039.772640625073,
      "v": 127
    },
    {
      "midi": 48,
      "hit": false,
      "t": 282272.70375000127,
      "d": 1386.3635208334308,
      "v": 127
    },
    {
      "midi": 52,
      "hit": false,
      "t": 282818.1582500013,
      "d": 886.3635625000461,
      "v": 127
    },
    {
      "midi": 55,
      "hit": false,
      "t": 283090.8855000014,
      "d": 769.8862994791707,
      "v": 127
    },
    {
      "midi": 67,
      "hit": false,
      "t": 283636.33999999997,
      "d": 1664.772588541673,
      "v": 127
    },
    {
      "midi": 64,
      "hit": false,
      "t": 283636.3400000001,
      "d": 1741.4771276041283,
      "v": 127
    },
    {
      "midi": 40,
      "hit": false,
      "t": 283636.34000000026,
      "d": 2204.5452708333614,
      "v": 127
    },
    {
      "midi": 69,
      "hit": false,
      "t": 285272.70349999995,
      "d": 281.2499765625689,
      "v": 127
    },
    {
      "midi": 66,
      "hit": false,
      "t": 285272.70350000006,
      "d": 323.8636093750247,
      "v": 127
    },
    {
      "midi": 71,
      "hit": false,
      "t": 285545.43075,
      "d": 315.34088281251024,
      "v": 127
    },
    {
      "midi": 67,
      "hit": false,
      "t": 285545.43075000006,
      "d": 295.4545208333875,
      "v": 127
    },
    {
      "midi": 64,
      "hit": false,
      "t": 285818.158,
      "d": 1045.454458333319,
      "v": 127
    },
    {
      "midi": 60,
      "hit": false,
      "t": 285818.1580000001,
      "d": 1059.6590026041376,
      "v": 127
    },
    {
      "midi": 36,
      "hit": false,
      "t": 285818.1580000003,
      "d": 2227.2725416666945,
      "v": 127
    },
    {
      "midi": 72,
      "hit": false,
      "t": 286909.067,
      "d": 1090.908999999985,
      "v": 127
    },
    {
      "midi": 69,
      "hit": false,
      "t": 286909.0670000001,
      "d": 1090.908999999985,
      "v": 127
    },
    {
      "midi": 69,
      "hit": false,
      "t": 287999.97599999997,
      "d": 2306.81798958336,
      "v": 127
    },
    {
      "midi": 66,
      "hit": false,
      "t": 287999.9760000001,
      "d": 2213.067997395876,
      "v": 127
    },
    {
      "midi": 38,
      "hit": false,
      "t": 287999.9760000003,
      "d": 4454.545083333331,
      "v": 127
    },
    {
      "midi": 74,
      "hit": false,
      "t": 290181.794,
      "d": 346.5908802083577,
      "v": 127
    },
    {
      "midi": 71,
      "hit": false,
      "t": 290181.7940000001,
      "d": 326.70451822917676,
      "v": 127
    },
    {
      "midi": 72,
      "hit": false,
      "t": 290454.52125,
      "d": 258.5227057291777,
      "v": 127
    },
    {
      "midi": 69,
      "hit": false,
      "t": 290454.5212500001,
      "d": 295.4545208333293,
      "v": 127
    },
    {
      "midi": 71,
      "hit": false,
      "t": 290727.2485,
      "d": 284.0908854166628,
      "v": 127
    },
    {
      "midi": 67,
      "hit": false,
      "t": 290727.2485000001,
      "d": 298.2954296874814,
      "v": 127
    },
    {
      "midi": 69,
      "hit": false,
      "t": 290999.97575,
      "d": 321.0227005208144,
      "v": 127
    },
    {
      "midi": 66,
      "hit": false,
      "t": 290999.9757500001,
      "d": 335.2272447916912,
      "v": 127
    },
    {
      "midi": 71,
      "hit": false,
      "t": 291272.703,
      "d": 343.7499713541474,
      "v": 127
    },
    {
      "midi": 67,
      "hit": false,
      "t": 291272.7030000001,
      "d": 306.818156250054,
      "v": 127
    },
    {
      "midi": 69,
      "hit": false,
      "t": 291545.43025,
      "d": 323.8636093750247,
      "v": 127
    },
    {
      "midi": 66,
      "hit": false,
      "t": 291545.43025000015,
      "d": 312.49997395835817,
      "v": 127
    },
    {
      "midi": 67,
      "hit": false,
      "t": 291818.1575,
      "d": 286.93179427087307,
      "v": 127
    },
    {
      "midi": 64,
      "hit": false,
      "t": 291818.15750000015,
      "d": 278.40906770841684,
      "v": 127
    },
    {
      "midi": 66,
      "hit": false,
      "t": 292090.88475,
      "d": 321.0227005208144,
      "v": 127
    },
    {
      "midi": 62,
      "hit": false,
      "t": 292090.8847500002,
      "d": 352.27269791672006,
      "v": 127
    },
    {
      "midi": 67,
      "hit": false,
      "t": 292363.612,
      "d": 1687.499859375006,
      "v": 127
    },
    {
      "midi": 64,
      "hit": false,
      "t": 292363.61200000026,
      "d": 1721.5907656250056,
      "v": 127
    },
    {
      "midi": 40,
      "hit": false,
      "t": 292363.6120000003,
      "d": 2193.1816354166367,
      "v": 127
    },
    {
      "midi": 69,
      "hit": false,
      "t": 293999.9755,
      "d": 309.6590651042061,
      "v": 127
    },
    {
      "midi": 66,
      "hit": false,
      "t": 293999.97550000023,
      "d": 363.6363333333866,
      "v": 127
    },
    {
      "midi": 71,
      "hit": false,
      "t": 294272.70275000005,
      "d": 323.8636093750247,
      "v": 127
    },
    {
      "midi": 67,
      "hit": false,
      "t": 294272.7027500003,
      "d": 332.3863359374809,
      "v": 127
    },
    {
      "midi": 64,
      "hit": false,
      "t": 294545.43000000005,
      "d": 1124.9999062500428,
      "v": 127
    },
    {
      "midi": 36,
      "hit": false,
      "t": 294545.4300000003,
      "d": 2215.908906250028,
      "v": 127
    },
    {
      "midi": 60,
      "hit": false,
      "t": 294545.4300000003,
      "d": 1079.5453645833186,
      "v": 127
    },
    {
      "midi": 72,
      "hit": false,
      "t": 295636.3390000001,
      "d": 1090.908999999985,
      "v": 127
    },
    {
      "midi": 69,
      "hit": false,
      "t": 295636.33900000027,
      "d": 1090.908999999985,
      "v": 127
    },
    {
      "midi": 69,
      "hit": false,
      "t": 296727.2480000001,
      "d": 2284.090718750027,
      "v": 127
    },
    {
      "midi": 66,
      "hit": false,
      "t": 296727.24800000025,
      "d": 2161.9316380208475,
      "v": 127
    },
    {
      "midi": 38,
      "hit": false,
      "t": 296727.2480000003,
      "d": 2295.4543541666935,
      "v": 127
    },
    {
      "midi": 74,
      "hit": false,
      "t": 298909.0660000001,
      "d": 332.3863359374809,
      "v": 127
    },
    {
      "midi": 71,
      "hit": false,
      "t": 298909.0660000003,
      "d": 332.3863359374809,
      "v": 127
    },
    {
      "midi": 47,
      "hit": false,
      "t": 298909.06600000034,
      "d": 329.54542708332883,
      "v": 127
    },
    {
      "midi": 72,
      "hit": false,
      "t": 299181.7932500001,
      "d": 292.6136119791772,
      "v": 127
    },
    {
      "midi": 69,
      "hit": false,
      "t": 299181.7932500003,
      "d": 335.2272447916912,
      "v": 127
    },
    {
      "midi": 45,
      "hit": false,
      "t": 299181.79325000034,
      "d": 318.1817916666623,
      "v": 127
    },
    {
      "midi": 71,
      "hit": false,
      "t": 299454.5205000001,
      "d": 255.6817968750256,
      "v": 127
    },
    {
      "midi": 67,
      "hit": false,
      "t": 299454.5205000003,
      "d": 292.61361197923543,
      "v": 127
    },
    {
      "midi": 43,
      "hit": false,
      "t": 299454.52050000033,
      "d": 329.54542708332883,
      "v": 127
    },
    {
      "midi": 69,
      "hit": false,
      "t": 299727.24775000016,
      "d": 312.49997395835817,
      "v": 127
    },
    {
      "midi": 42,
      "hit": false,
      "t": 299727.24775000033,
      "d": 318.1817916666623,
      "v": 127
    },
    {
      "midi": 66,
      "hit": false,
      "t": 299727.24775000033,
      "d": 355.11360677081393,
      "v": 127
    },
    {
      "midi": 71,
      "hit": false,
      "t": 299999.97500000015,
      "d": 332.3863359375391,
      "v": 127
    },
    {
      "midi": 43,
      "hit": false,
      "t": 299999.9750000003,
      "d": 284.0908854166628,
      "v": 127
    },
    {
      "midi": 67,
      "hit": false,
      "t": 299999.9750000003,
      "d": 303.97724739584373,
      "v": 127
    },
    {
      "midi": 69,
      "hit": false,
      "t": 300272.7022500002,
      "d": 275.56815885414835,
      "v": 127
    },
    {
      "midi": 42,
      "hit": false,
      "t": 300272.7022500003,
      "d": 272.7272499999963,
      "v": 127
    },
    {
      "midi": 66,
      "hit": false,
      "t": 300272.7022500003,
      "d": 292.61361197923543,
      "v": 127
    },
    {
      "midi": 67,
      "hit": false,
      "t": 300545.4295000002,
      "d": 292.6136119791772,
      "v": 127
    },
    {
      "midi": 40,
      "hit": false,
      "t": 300545.4295000003,
      "d": 318.1817916666623,
      "v": 127
    },
    {
      "midi": 64,
      "hit": false,
      "t": 300545.4295000004,
      "d": 309.6590651041479,
      "v": 127
    },
    {
      "midi": 66,
      "hit": false,
      "t": 300818.1567500002,
      "d": 306.8181562499958,
      "v": 127
    },
    {
      "midi": 38,
      "hit": false,
      "t": 300818.1567500003,
      "d": 363.63633333332837,
      "v": 127
    },
    {
      "midi": 62,
      "hit": false,
      "t": 300818.1567500004,
      "d": 318.1817916666623,
      "v": 127
    },
    {
      "midi": 67,
      "hit": false,
      "t": 301090.8840000002,
      "d": 1732.954401041672,
      "v": 127
    },
    {
      "midi": 40,
      "hit": false,
      "t": 301090.8840000003,
      "d": 2181.81799999997,
      "v": 127
    },
    {
      "midi": 64,
      "hit": false,
      "t": 301090.88400000037,
      "d": 1701.7044036458246,
      "v": 127
    },
    {
      "midi": 69,
      "hit": false,
      "t": 302727.2475000002,
      "d": 357.9545156250824,
      "v": 127
    },
    {
      "midi": 66,
      "hit": false,
      "t": 302727.24750000035,
      "d": 346.5908802083577,
      "v": 127
    },
    {
      "midi": 71,
      "hit": false,
      "t": 302999.9747500002,
      "d": 321.0227005208726,
      "v": 127
    },
    {
      "midi": 67,
      "hit": false,
      "t": 302999.97475000034,
      "d": 281.2499765625689,
      "v": 127
    },
    {
      "midi": 36,
      "hit": false,
      "t": 303272.7020000003,
      "d": 2181.8180000000284,
      "v": 127
    },
    {
      "midi": 64,
      "hit": false,
      "t": 303272.7020000003,
      "d": 1090.908999999985,
      "v": 127
    },
    {
      "midi": 60,
      "hit": false,
      "t": 303272.7020000004,
      "d": 1068.181729166652,
      "v": 127
    },
    {
      "midi": 72,
      "hit": false,
      "t": 304363.61100000027,
      "d": 1090.908999999985,
      "v": 127
    },
    {
      "midi": 69,
      "hit": false,
      "t": 304363.6110000004,
      "d": 1090.908999999985,
      "v": 127
    },
    {
      "midi": 69,
      "hit": false,
      "t": 305454.52000000025,
      "d": 2255.68163020839,
      "v": 127
    },
    {
      "midi": 38,
      "hit": false,
      "t": 305454.5200000003,
      "d": 2261.363447916694,
      "v": 127
    },
    {
      "midi": 66,
      "hit": false,
      "t": 305454.52000000037,
      "d": 2224.4316328125424,
      "v": 127
    },
    {
      "midi": 74,
      "hit": false,
      "t": 307636.3380000003,
      "d": 363.6363333333866,
      "v": 127
    },
    {
      "midi": 47,
      "hit": false,
      "t": 307636.33800000034,
      "d": 329.54542708332883,
      "v": 127
    },
    {
      "midi": 71,
      "hit": false,
      "t": 307636.3380000004,
      "d": 326.70451822917676,
      "v": 127
    },
    {
      "midi": 45,
      "hit": false,
      "t": 307909.06525000033,
      "d": 295.4545208333293,
      "v": 127
    },
    {
      "midi": 72,
      "hit": false,
      "t": 307909.06525000033,
      "d": 289.77270312502515,
      "v": 127
    },
    {
      "midi": 69,
      "hit": false,
      "t": 307909.0652500004,
      "d": 303.97724739584373,
      "v": 127
    },
    {
      "midi": 43,
      "hit": false,
      "t": 308181.79250000033,
      "d": 295.4545208333293,
      "v": 127
    },
    {
      "midi": 71,
      "hit": false,
      "t": 308181.79250000033,
      "d": 258.5227057291777,
      "v": 127
    },
    {
      "midi": 67,
      "hit": false,
      "t": 308181.7925000004,
      "d": 267.0454322916921,
      "v": 127
    },
    {
      "midi": 42,
      "hit": false,
      "t": 308454.5197500003,
      "d": 306.8181562499958,
      "v": 127
    },
    {
      "midi": 69,
      "hit": false,
      "t": 308454.5197500003,
      "d": 286.93179427081486,
      "v": 127
    },
    {
      "midi": 66,
      "hit": false,
      "t": 308454.51975000044,
      "d": 346.5908802083577,
      "v": 127
    },
    {
      "midi": 43,
      "hit": false,
      "t": 308727.2470000003,
      "d": 352.27269791666185,
      "v": 127
    },
    {
      "midi": 71,
      "hit": false,
      "t": 308727.2470000003,
      "d": 306.8181562499958,
      "v": 127
    },
    {
      "midi": 67,
      "hit": false,
      "t": 308727.24700000044,
      "d": 315.34088281256845,
      "v": 127
    },
    {
      "midi": 42,
      "hit": false,
      "t": 308999.9742500003,
      "d": 318.1817916666623,
      "v": 127
    },
    {
      "midi": 69,
      "hit": false,
      "t": 308999.9742500003,
      "d": 298.2954296875396,
      "v": 127
    },
    {
      "midi": 66,
      "hit": false,
      "t": 308999.9742500005,
      "d": 298.2954296875396,
      "v": 127
    },
    {
      "midi": 40,
      "hit": false,
      "t": 309272.7015000003,
      "d": 318.1817916666623,
      "v": 127
    },
    {
      "midi": 67,
      "hit": false,
      "t": 309272.7015000004,
      "d": 272.7272499999963,
      "v": 127
    },
    {
      "midi": 64,
      "hit": false,
      "t": 309272.70150000055,
      "d": 301.13633854169166,
      "v": 127
    },
    {
      "midi": 38,
      "hit": false,
      "t": 309545.4287500003,
      "d": 352.27269791666185,
      "v": 127
    },
    {
      "midi": 66,
      "hit": false,
      "t": 309545.42875000037,
      "d": 289.77270312502515,
      "v": 127
    },
    {
      "midi": 62,
      "hit": false,
      "t": 309545.42875000054,
      "d": 315.34088281256845,
      "v": 127
    },
    {
      "midi": 40,
      "hit": false,
      "t": 309818.1560000003,
      "d": 2193.1816354166367,
      "v": 127
    },
    {
      "midi": 67,
      "hit": false,
      "t": 309818.15600000037,
      "d": 1696.0225859375205,
      "v": 127
    },
    {
      "midi": 64,
      "hit": false,
      "t": 309818.1560000006,
      "d": 1690.3407682292163,
      "v": 127
    },
    {
      "midi": 69,
      "hit": false,
      "t": 311454.5195000004,
      "d": 321.0227005208144,
      "v": 127
    },
    {
      "midi": 66,
      "hit": false,
      "t": 311454.51950000064,
      "d": 343.7499713541474,
      "v": 127
    },
    {
      "midi": 71,
      "hit": false,
      "t": 311727.2467500004,
      "d": 335.2272447916912,
      "v": 127
    },
    {
      "midi": 67,
      "hit": false,
      "t": 311727.24675000063,
      "d": 295.4545208333293,
      "v": 127
    },
    {
      "midi": 36,
      "hit": false,
      "t": 311999.9740000003,
      "d": 2249.9998125000275,
      "v": 127
    },
    {
      "midi": 64,
      "hit": false,
      "t": 311999.9740000004,
      "d": 1105.113544270862,
      "v": 127
    },
    {
      "midi": 60,
      "hit": false,
      "t": 311999.9740000006,
      "d": 1102.2726354166516,
      "v": 127
    },
    {
      "midi": 72,
      "hit": false,
      "t": 313090.88300000044,
      "d": 1090.908999999985,
      "v": 127
    },
    {
      "midi": 69,
      "hit": false,
      "t": 313090.8830000006,
      "d": 1090.908999999985,
      "v": 127
    },
    {
      "midi": 38,
      "hit": false,
      "t": 314181.7920000003,
      "d": 2272.7270833333605,
      "v": 127
    },
    {
      "midi": 69,
      "hit": false,
      "t": 314181.7920000004,
      "d": 2249.9998125000275,
      "v": 127
    },
    {
      "midi": 66,
      "hit": false,
      "t": 314181.7920000006,
      "d": 2241.477085937513,
      "v": 127
    },
    {
      "midi": 36,
      "hit": false,
      "t": 316363.61000000034,
      "d": 198.86361979169305,
      "v": 127
    },
    {
      "midi": 60,
      "hit": false,
      "t": 316363.61000000045,
      "d": 272.7272499999963,
      "v": 127
    },
    {
      "midi": 67,
      "hit": false,
      "t": 316363.61000000045,
      "d": 272.7272499999963,
      "v": 127
    },
    {
      "midi": 48,
      "hit": false,
      "t": 316363.6100000006,
      "d": 272.7272499999963,
      "v": 127
    },
    {
      "midi": 55,
      "hit": false,
      "t": 316363.6100000006,
      "d": 272.7272499999963,
      "v": 127
    },
    {
      "midi": 60,
      "hit": false,
      "t": 316363.6100000006,
      "d": 272.7272499999963,
      "v": 127
    },
    {
      "midi": 36,
      "hit": false,
      "t": 316636.3372500004,
      "d": 289.77270312502515,
      "v": 127
    },
    {
      "midi": 60,
      "hit": false,
      "t": 316636.33725000045,
      "d": 272.7272499999963,
      "v": 127
    },
    {
      "midi": 67,
      "hit": false,
      "t": 316636.33725000045,
      "d": 272.7272499999963,
      "v": 127
    },
    {
      "midi": 48,
      "hit": false,
      "t": 316636.3372500006,
      "d": 272.7272499999963,
      "v": 127
    },
    {
      "midi": 55,
      "hit": false,
      "t": 316636.3372500006,
      "d": 272.7272499999963,
      "v": 127
    },
    {
      "midi": 60,
      "hit": false,
      "t": 316636.3372500006,
      "d": 272.7272499999963,
      "v": 127
    },
    {
      "midi": 38,
      "hit": false,
      "t": 317454.51900000044,
      "d": 238.63634374999674,
      "v": 127
    },
    {
      "midi": 62,
      "hit": false,
      "t": 317454.51900000044,
      "d": 272.7272499999963,
      "v": 127
    },
    {
      "midi": 69,
      "hit": false,
      "t": 317454.51900000044,
      "d": 272.7272499999963,
      "v": 127
    },
    {
      "midi": 50,
      "hit": false,
      "t": 317454.5190000006,
      "d": 272.7272499999963,
      "v": 127
    },
    {
      "midi": 57,
      "hit": false,
      "t": 317454.5190000006,
      "d": 272.7272499999963,
      "v": 127
    },
    {
      "midi": 62,
      "hit": false,
      "t": 317454.5190000006,
      "d": 272.7272499999963,
      "v": 127
    },
    {
      "midi": 38,
      "hit": false,
      "t": 317727.24625000043,
      "d": 360.7954244791763,
      "v": 127
    },
    {
      "midi": 62,
      "hit": false,
      "t": 317727.24625000043,
      "d": 272.7272499999963,
      "v": 127
    },
    {
      "midi": 69,
      "hit": false,
      "t": 317727.24625000043,
      "d": 272.7272499999963,
      "v": 127
    },
    {
      "midi": 50,
      "hit": false,
      "t": 317727.2462500006,
      "d": 272.7272499999963,
      "v": 127
    },
    {
      "midi": 57,
      "hit": false,
      "t": 317727.2462500006,
      "d": 272.7272499999963,
      "v": 127
    },
    {
      "midi": 62,
      "hit": false,
      "t": 317727.2462500006,
      "d": 272.7272499999963,
      "v": 127
    },
    {
      "midi": 28,
      "hit": false,
      "t": 318545.4280000004,
      "d": 136.36362499999814,
      "v": 127
    },
    {
      "midi": 40,
      "hit": false,
      "t": 318545.4280000004,
      "d": 136.36362499999814,
      "v": 127
    },
    {
      "midi": 35,
      "hit": false,
      "t": 318818.1552500004,
      "d": 136.36362499999814,
      "v": 127
    },
    {
      "midi": 47,
      "hit": false,
      "t": 318818.1552500004,
      "d": 136.36362499999814,
      "v": 127
    },
    {
      "midi": 42,
      "hit": false,
      "t": 319090.8825000004,
      "d": 136.36362499999814,
      "v": 127
    },
    {
      "midi": 54,
      "hit": false,
      "t": 319090.8825000004,
      "d": 136.36362499999814,
      "v": 127
    },
    {
      "midi": 35,
      "hit": false,
      "t": 319363.6097500004,
      "d": 136.36362499999814,
      "v": 127
    },
    {
      "midi": 47,
      "hit": false,
      "t": 319363.6097500004,
      "d": 136.36362499999814,
      "v": 127
    },
    {
      "midi": 43,
      "hit": false,
      "t": 319636.3370000004,
      "d": 136.36362499999814,
      "v": 127
    },
    {
      "midi": 55,
      "hit": false,
      "t": 319636.3370000004,
      "d": 136.36362499999814,
      "v": 127
    },
    {
      "midi": 42,
      "hit": false,
      "t": 319909.0642500004,
      "d": 136.36362499999814,
      "v": 127
    },
    {
      "midi": 54,
      "hit": false,
      "t": 319909.0642500004,
      "d": 136.36362499999814,
      "v": 127
    },
    {
      "midi": 35,
      "hit": false,
      "t": 320181.7915000004,
      "d": 136.36362499999814,
      "v": 127
    },
    {
      "midi": 47,
      "hit": false,
      "t": 320181.7915000004,
      "d": 136.36362499999814,
      "v": 127
    },
    {
      "midi": 36,
      "hit": false,
      "t": 320454.5187500004,
      "d": 136.36362499999814,
      "v": 127
    },
    {
      "midi": 48,
      "hit": false,
      "t": 320454.5187500004,
      "d": 136.36362499999814,
      "v": 127
    },
    {
      "midi": 42,
      "hit": false,
      "t": 320999.9732500004,
      "d": 136.36362499999814,
      "v": 127
    },
    {
      "midi": 54,
      "hit": false,
      "t": 320999.9732500004,
      "d": 136.36362499999814,
      "v": 127
    },
    {
      "midi": 43,
      "hit": false,
      "t": 321272.7005000004,
      "d": 136.36362499999814,
      "v": 127
    },
    {
      "midi": 55,
      "hit": false,
      "t": 321272.7005000004,
      "d": 136.36362499999814,
      "v": 127
    },
    {
      "midi": 42,
      "hit": false,
      "t": 321545.4277500004,
      "d": 136.36362499999814,
      "v": 127
    },
    {
      "midi": 54,
      "hit": false,
      "t": 321545.4277500004,
      "d": 136.36362499999814,
      "v": 127
    },
    {
      "midi": 50,
      "hit": false,
      "t": 321818.1550000004,
      "d": 545.4544999999925,
      "v": 127
    },
    {
      "midi": 62,
      "hit": false,
      "t": 321818.1550000004,
      "d": 545.4544999999925,
      "v": 127
    },
    {
      "midi": 28,
      "hit": false,
      "t": 322909.06400000036,
      "d": 136.36362499999814,
      "v": 127
    },
    {
      "midi": 40,
      "hit": false,
      "t": 322909.06400000036,
      "d": 136.36362499999814,
      "v": 127
    },
    {
      "midi": 35,
      "hit": false,
      "t": 323181.79125000036,
      "d": 136.36362499999814,
      "v": 127
    },
    {
      "midi": 47,
      "hit": false,
      "t": 323181.79125000036,
      "d": 136.36362499999814,
      "v": 127
    },
    {
      "midi": 42,
      "hit": false,
      "t": 323454.51850000035,
      "d": 136.36362499999814,
      "v": 127
    },
    {
      "midi": 54,
      "hit": false,
      "t": 323454.51850000035,
      "d": 136.36362499999814,
      "v": 127
    },
    {
      "midi": 35,
      "hit": false,
      "t": 323727.24575000035,
      "d": 136.36362499999814,
      "v": 127
    },
    {
      "midi": 47,
      "hit": false,
      "t": 323727.24575000035,
      "d": 136.36362499999814,
      "v": 127
    },
    {
      "midi": 43,
      "hit": false,
      "t": 323999.97300000035,
      "d": 136.36362499999814,
      "v": 127
    },
    {
      "midi": 55,
      "hit": false,
      "t": 323999.97300000035,
      "d": 136.36362499999814,
      "v": 127
    },
    {
      "midi": 42,
      "hit": false,
      "t": 324272.70025000034,
      "d": 136.36362499999814,
      "v": 127
    },
    {
      "midi": 54,
      "hit": false,
      "t": 324272.70025000034,
      "d": 136.36362499999814,
      "v": 127
    },
    {
      "midi": 35,
      "hit": false,
      "t": 324545.42750000034,
      "d": 136.36362499999814,
      "v": 127
    },
    {
      "midi": 47,
      "hit": false,
      "t": 324545.42750000034,
      "d": 136.36362499999814,
      "v": 127
    },
    {
      "midi": 36,
      "hit": false,
      "t": 324818.15475000034,
      "d": 136.36362499999814,
      "v": 127
    },
    {
      "midi": 48,
      "hit": false,
      "t": 324818.15475000034,
      "d": 136.36362499999814,
      "v": 127
    },
    {
      "midi": 42,
      "hit": false,
      "t": 325363.6092500003,
      "d": 136.36362499999814,
      "v": 127
    },
    {
      "midi": 54,
      "hit": false,
      "t": 325363.6092500003,
      "d": 136.36362499999814,
      "v": 127
    },
    {
      "midi": 43,
      "hit": false,
      "t": 325636.3365000003,
      "d": 136.36362499999814,
      "v": 127
    },
    {
      "midi": 55,
      "hit": false,
      "t": 325636.3365000003,
      "d": 136.36362499999814,
      "v": 127
    },
    {
      "midi": 42,
      "hit": false,
      "t": 325909.0637500003,
      "d": 136.36362499999814,
      "v": 127
    },
    {
      "midi": 54,
      "hit": false,
      "t": 325909.0637500003,
      "d": 136.36362499999814,
      "v": 127
    },
    {
      "midi": 50,
      "hit": false,
      "t": 326181.7910000003,
      "d": 545.4544999999925,
      "v": 127
    },
    {
      "midi": 62,
      "hit": false,
      "t": 326181.7910000003,
      "d": 545.4544999999925,
      "v": 127
    },
    {
      "midi": 28,
      "hit": false,
      "t": 327272.7000000003,
      "d": 136.36362499999814,
      "v": 127
    },
    {
      "midi": 40,
      "hit": false,
      "t": 327272.7000000003,
      "d": 136.36362499999814,
      "v": 127
    },
    {
      "midi": 35,
      "hit": false,
      "t": 327545.4272500003,
      "d": 136.36362499999814,
      "v": 127
    },
    {
      "midi": 47,
      "hit": false,
      "t": 327545.4272500003,
      "d": 136.36362499999814,
      "v": 127
    },
    {
      "midi": 42,
      "hit": false,
      "t": 327818.1545000003,
      "d": 136.36362499999814,
      "v": 127
    },
    {
      "midi": 54,
      "hit": false,
      "t": 327818.1545000003,
      "d": 136.36362499999814,
      "v": 127
    },
    {
      "midi": 35,
      "hit": false,
      "t": 328090.8817500003,
      "d": 136.36362499999814,
      "v": 127
    },
    {
      "midi": 47,
      "hit": false,
      "t": 328090.8817500003,
      "d": 136.36362499999814,
      "v": 127
    },
    {
      "midi": 43,
      "hit": false,
      "t": 328363.6090000003,
      "d": 136.36362499999814,
      "v": 127
    },
    {
      "midi": 55,
      "hit": false,
      "t": 328363.6090000003,
      "d": 136.36362499999814,
      "v": 127
    },
    {
      "midi": 42,
      "hit": false,
      "t": 328636.3362500003,
      "d": 136.36362499999814,
      "v": 127
    },
    {
      "midi": 54,
      "hit": false,
      "t": 328636.3362500003,
      "d": 136.36362499999814,
      "v": 127
    },
    {
      "midi": 35,
      "hit": false,
      "t": 328909.0635000003,
      "d": 136.36362499999814,
      "v": 127
    },
    {
      "midi": 47,
      "hit": false,
      "t": 328909.0635000003,
      "d": 136.36362499999814,
      "v": 127
    },
    {
      "midi": 36,
      "hit": false,
      "t": 329181.7907500003,
      "d": 136.36362499999814,
      "v": 127
    },
    {
      "midi": 48,
      "hit": false,
      "t": 329181.7907500003,
      "d": 136.36362499999814,
      "v": 127
    },
    {
      "midi": 42,
      "hit": false,
      "t": 329727.24525000027,
      "d": 136.36362499999814,
      "v": 127
    },
    {
      "midi": 54,
      "hit": false,
      "t": 329727.24525000027,
      "d": 136.36362499999814,
      "v": 127
    },
    {
      "midi": 43,
      "hit": false,
      "t": 329999.97250000027,
      "d": 136.36362499999814,
      "v": 127
    },
    {
      "midi": 55,
      "hit": false,
      "t": 329999.97250000027,
      "d": 136.36362499999814,
      "v": 127
    },
    {
      "midi": 42,
      "hit": false,
      "t": 330272.69975000026,
      "d": 136.36362499999814,
      "v": 127
    },
    {
      "midi": 54,
      "hit": false,
      "t": 330272.69975000026,
      "d": 136.36362499999814,
      "v": 127
    },
    {
      "midi": 50,
      "hit": false,
      "t": 330545.42700000026,
      "d": 545.4544999999925,
      "v": 127
    },
    {
      "midi": 62,
      "hit": false,
      "t": 330545.42700000026,
      "d": 545.4544999999925,
      "v": 127
    },
    {
      "midi": 28,
      "hit": false,
      "t": 331636.33600000024,
      "d": 136.36362499999814,
      "v": 127
    },
    {
      "midi": 40,
      "hit": false,
      "t": 331636.33600000024,
      "d": 136.36362499999814,
      "v": 127
    },
    {
      "midi": 35,
      "hit": false,
      "t": 331909.06325000024,
      "d": 136.36362499999814,
      "v": 127
    },
    {
      "midi": 47,
      "hit": false,
      "t": 331909.06325000024,
      "d": 136.36362499999814,
      "v": 127
    },
    {
      "midi": 42,
      "hit": false,
      "t": 332181.79050000024,
      "d": 136.36362499999814,
      "v": 127
    },
    {
      "midi": 54,
      "hit": false,
      "t": 332181.79050000024,
      "d": 136.36362499999814,
      "v": 127
    },
    {
      "midi": 35,
      "hit": false,
      "t": 332454.51775000023,
      "d": 136.36362499999814,
      "v": 127
    },
    {
      "midi": 47,
      "hit": false,
      "t": 332454.51775000023,
      "d": 136.36362499999814,
      "v": 127
    },
    {
      "midi": 43,
      "hit": false,
      "t": 332727.2450000002,
      "d": 136.36362499999814,
      "v": 127
    },
    {
      "midi": 55,
      "hit": false,
      "t": 332727.2450000002,
      "d": 136.36362499999814,
      "v": 127
    },
    {
      "midi": 42,
      "hit": false,
      "t": 332999.9722500002,
      "d": 136.36362499999814,
      "v": 127
    },
    {
      "midi": 54,
      "hit": false,
      "t": 332999.9722500002,
      "d": 136.36362499999814,
      "v": 127
    },
    {
      "midi": 35,
      "hit": false,
      "t": 333272.6995000002,
      "d": 136.36362499999814,
      "v": 127
    },
    {
      "midi": 47,
      "hit": false,
      "t": 333272.6995000002,
      "d": 136.36362499999814,
      "v": 127
    },
    {
      "midi": 36,
      "hit": false,
      "t": 333545.4267500002,
      "d": 136.36362499999814,
      "v": 127
    },
    {
      "midi": 48,
      "hit": false,
      "t": 333545.4267500002,
      "d": 136.36362499999814,
      "v": 127
    },
    {
      "midi": 42,
      "hit": false,
      "t": 334090.8812500002,
      "d": 136.36362499999814,
      "v": 127
    },
    {
      "midi": 54,
      "hit": false,
      "t": 334090.8812500002,
      "d": 136.36362499999814,
      "v": 127
    },
    {
      "midi": 43,
      "hit": false,
      "t": 334363.6085000002,
      "d": 136.36362499999814,
      "v": 127
    },
    {
      "midi": 55,
      "hit": false,
      "t": 334363.6085000002,
      "d": 136.36362499999814,
      "v": 127
    },
    {
      "midi": 42,
      "hit": false,
      "t": 334636.3357500002,
      "d": 136.36362499999814,
      "v": 127
    },
    {
      "midi": 54,
      "hit": false,
      "t": 334636.3357500002,
      "d": 136.36362499999814,
      "v": 127
    },
    {
      "midi": 50,
      "hit": false,
      "t": 334909.0630000002,
      "d": 545.4544999999925,
      "v": 127
    },
    {
      "midi": 62,
      "hit": false,
      "t": 334909.0630000002,
      "d": 545.4544999999925,
      "v": 127
    },
    {
      "midi": 40,
      "hit": false,
      "t": 335999.9720000002,
      "d": 196.02271093748277,
      "v": 127
    },
    {
      "midi": 69,
      "hit": false,
      "t": 335999.9720000002,
      "d": 545.4544999999925,
      "v": 127
    },
    {
      "midi": 74,
      "hit": false,
      "t": 335999.9720000002,
      "d": 545.4544999999925,
      "v": 127
    },
    {
      "midi": 40,
      "hit": false,
      "t": 335999.9720000006,
      "d": 136.36362499999814,
      "v": 127
    },
    {
      "midi": 40,
      "hit": false,
      "t": 336272.6992500002,
      "d": 119.31817187502747,
      "v": 127
    },
    {
      "midi": 40,
      "hit": false,
      "t": 336272.6992500006,
      "d": 136.36362499999814,
      "v": 127
    },
    {
      "midi": 67,
      "hit": false,
      "t": 336545.4265000002,
      "d": 272.7272499999963,
      "v": 127
    },
    {
      "midi": 40,
      "hit": false,
      "t": 336545.42650000023,
      "d": 130.68180729169399,
      "v": 127
    },
    {
      "midi": 40,
      "hit": false,
      "t": 336545.4265000006,
      "d": 136.36362499999814,
      "v": 127
    },
    {
      "midi": 64,
      "hit": false,
      "t": 336818.1537500002,
      "d": 272.7272499999963,
      "v": 127
    },
    {
      "midi": 40,
      "hit": false,
      "t": 336818.1537500003,
      "d": 133.52271614584606,
      "v": 127
    },
    {
      "midi": 40,
      "hit": false,
      "t": 336818.1537500006,
      "d": 136.36362499999814,
      "v": 127
    },
    {
      "midi": 67,
      "hit": false,
      "t": 337090.88100000017,
      "d": 1090.908999999985,
      "v": 127
    },
    {
      "midi": 40,
      "hit": false,
      "t": 337090.8810000003,
      "d": 1005.6817343750154,
      "v": 127
    },
    {
      "midi": 40,
      "hit": false,
      "t": 337090.8810000006,
      "d": 1090.908999999985,
      "v": 127
    },
    {
      "midi": 52,
      "hit": false,
      "t": 337090.8810000006,
      "d": 1090.908999999985,
      "v": 127
    },
    {
      "midi": 59,
      "hit": false,
      "t": 337090.8810000006,
      "d": 1090.908999999985,
      "v": 127
    },
    {
      "midi": 36,
      "hit": false,
      "t": 338181.7900000003,
      "d": 201.70452864584513,
      "v": 127
    },
    {
      "midi": 48,
      "hit": false,
      "t": 338181.79000000056,
      "d": 272.7272499999963,
      "v": 127
    },
    {
      "midi": 55,
      "hit": false,
      "t": 338181.79000000056,
      "d": 272.7272499999963,
      "v": 127
    },
    {
      "midi": 62,
      "hit": false,
      "t": 338454.51725000015,
      "d": 272.7272499999963,
      "v": 127
    },
    {
      "midi": 67,
      "hit": false,
      "t": 338454.51725000015,
      "d": 272.7272499999963,
      "v": 127
    },
    {
      "midi": 36,
      "hit": false,
      "t": 338454.5172500003,
      "d": 278.40906770835863,
      "v": 127
    },
    {
      "midi": 48,
      "hit": false,
      "t": 338454.51725000056,
      "d": 272.7272499999963,
      "v": 127
    },
    {
      "midi": 55,
      "hit": false,
      "t": 338454.51725000056,
      "d": 272.7272499999963,
      "v": 127
    },
    {
      "midi": 62,
      "hit": false,
      "t": 338727.24450000015,
      "d": 272.7272499999963,
      "v": 127
    },
    {
      "midi": 67,
      "hit": false,
      "t": 338727.24450000015,
      "d": 272.7272499999963,
      "v": 127
    },
    {
      "midi": 62,
      "hit": false,
      "t": 338999.97175000014,
      "d": 818.1817499999888,
      "v": 127
    },
    {
      "midi": 67,
      "hit": false,
      "t": 338999.97175000014,
      "d": 818.1817499999888,
      "v": 127
    },
    {
      "midi": 74,
      "hit": false,
      "t": 340090.8807500001,
      "d": 272.7272499999963,
      "v": 127
    },
    {
      "midi": 76,
      "hit": false,
      "t": 340363.6080000001,
      "d": 272.7272499999963,
      "v": 127
    },
    {
      "midi": 33,
      "hit": false,
      "t": 340363.60800000036,
      "d": 144.88635156251257,
      "v": 127
    },
    {
      "midi": 45,
      "hit": false,
      "t": 340363.60800000053,
      "d": 136.36362499999814,
      "v": 127
    },
    {
      "midi": 74,
      "hit": false,
      "t": 340636.3352500001,
      "d": 272.7272499999963,
      "v": 127
    },
    {
      "midi": 33,
      "hit": false,
      "t": 340636.33525000035,
      "d": 147.72726041666465,
      "v": 127
    },
    {
      "midi": 45,
      "hit": false,
      "t": 340636.3352500005,
      "d": 136.36362499999814,
      "v": 127
    },
    {
      "midi": 72,
      "hit": false,
      "t": 340909.0625000001,
      "d": 272.7272499999963,
      "v": 127
    },
    {
      "midi": 33,
      "hit": false,
      "t": 340909.06250000035,
      "d": 144.88635156251257,
      "v": 127
    },
    {
      "midi": 45,
      "hit": false,
      "t": 340909.0625000005,
      "d": 136.36362499999814,
      "v": 127
    },
    {
      "midi": 71,
      "hit": false,
      "t": 341181.7897500001,
      "d": 272.7272499999963,
      "v": 127
    },
    {
      "midi": 33,
      "hit": false,
      "t": 341181.78975000035,
      "d": 144.88635156251257,
      "v": 127
    },
    {
      "midi": 45,
      "hit": false,
      "t": 341181.7897500005,
      "d": 136.36362499999814,
      "v": 127
    },
    {
      "midi": 72,
      "hit": false,
      "t": 341454.5170000001,
      "d": 272.7272499999963,
      "v": 127
    },
    {
      "midi": 33,
      "hit": false,
      "t": 341454.51700000034,
      "d": 997.1590078125009,
      "v": 127
    },
    {
      "midi": 45,
      "hit": false,
      "t": 341454.5170000005,
      "d": 1090.908999999985,
      "v": 127
    },
    {
      "midi": 52,
      "hit": false,
      "t": 341454.5170000005,
      "d": 1090.908999999985,
      "v": 127
    },
    {
      "midi": 57,
      "hit": false,
      "t": 341454.5170000005,
      "d": 1090.908999999985,
      "v": 127
    },
    {
      "midi": 71,
      "hit": false,
      "t": 341727.2442500001,
      "d": 272.7272500000545,
      "v": 127
    },
    {
      "midi": 69,
      "hit": false,
      "t": 341999.97150000016,
      "d": 272.7272499999963,
      "v": 127
    },
    {
      "midi": 67,
      "hit": false,
      "t": 342272.69875000016,
      "d": 272.7272499999963,
      "v": 127
    },
    {
      "midi": 69,
      "hit": false,
      "t": 342545.42600000015,
      "d": 1363.6362499999814,
      "v": 127
    },
    {
      "midi": 38,
      "hit": false,
      "t": 342545.4260000003,
      "d": 147.72726041666465,
      "v": 127
    },
    {
      "midi": 50,
      "hit": false,
      "t": 342545.4260000005,
      "d": 272.7272499999963,
      "v": 127
    },
    {
      "midi": 57,
      "hit": false,
      "t": 342545.4260000005,
      "d": 272.7272499999963,
      "v": 127
    },
    {
      "midi": 38,
      "hit": false,
      "t": 342818.1532500003,
      "d": 247.15907031251118,
      "v": 127
    },
    {
      "midi": 50,
      "hit": false,
      "t": 342818.1532500005,
      "d": 272.7272499999963,
      "v": 127
    },
    {
      "midi": 57,
      "hit": false,
      "t": 342818.1532500005,
      "d": 272.7272499999963,
      "v": 127
    },
    {
      "midi": 35,
      "hit": false,
      "t": 343636.3350000003,
      "d": 156.24998697917908,
      "v": 127
    },
    {
      "midi": 47,
      "hit": false,
      "t": 343636.3350000005,
      "d": 272.7272499999963,
      "v": 127
    },
    {
      "midi": 54,
      "hit": false,
      "t": 343636.3350000005,
      "d": 272.7272499999963,
      "v": 127
    },
    {
      "midi": 71,
      "hit": false,
      "t": 343909.06225000013,
      "d": 272.7272499999963,
      "v": 127
    },
    {
      "midi": 35,
      "hit": false,
      "t": 343909.0622500003,
      "d": 275.56815885414835,
      "v": 127
    },
    {
      "midi": 47,
      "hit": false,
      "t": 343909.0622500005,
      "d": 272.7272499999963,
      "v": 127
    },
    {
      "midi": 54,
      "hit": false,
      "t": 343909.0622500005,
      "d": 272.7272499999963,
      "v": 127
    },
    {
      "midi": 71,
      "hit": false,
      "t": 344454.5167500001,
      "d": 272.7272499999963,
      "v": 127
    },
    {
      "midi": 79,
      "hit": false,
      "t": 344727.2440000001,
      "d": 272.7272499999963,
      "v": 127
    },
    {
      "midi": 40,
      "hit": false,
      "t": 344727.2440000003,
      "d": 136.36362499999814,
      "v": 127
    },
    {
      "midi": 40,
      "hit": false,
      "t": 344727.2440000005,
      "d": 136.36362499999814,
      "v": 127
    },
    {
      "midi": 71,
      "hit": false,
      "t": 344999.9712500001,
      "d": 272.7272499999963,
      "v": 127
    },
    {
      "midi": 40,
      "hit": false,
      "t": 344999.9712500003,
      "d": 122.15908072917955,
      "v": 127
    },
    {
      "midi": 40,
      "hit": false,
      "t": 344999.97125000047,
      "d": 136.36362499999814,
      "v": 127
    },
    {
      "midi": 78,
      "hit": false,
      "t": 345272.6985000001,
      "d": 272.7272499999963,
      "v": 127
    },
    {
      "midi": 40,
      "hit": false,
      "t": 345272.6985000003,
      "d": 110.79544531251304,
      "v": 127
    },
    {
      "midi": 40,
      "hit": false,
      "t": 345272.69850000046,
      "d": 136.36362499999814,
      "v": 127
    },
    {
      "midi": 71,
      "hit": false,
      "t": 345545.4257500001,
      "d": 272.7272499999963,
      "v": 127
    },
    {
      "midi": 40,
      "hit": false,
      "t": 345545.4257500003,
      "d": 122.15908072917955,
      "v": 127
    },
    {
      "midi": 40,
      "hit": false,
      "t": 345545.42575000046,
      "d": 136.36362499999814,
      "v": 127
    },
    {
      "midi": 76,
      "hit": false,
      "t": 345818.1530000001,
      "d": 272.7272499999963,
      "v": 127
    },
    {
      "midi": 40,
      "hit": false,
      "t": 345818.1530000003,
      "d": 1113.6362708333181,
      "v": 127
    },
    {
      "midi": 40,
      "hit": false,
      "t": 345818.15300000046,
      "d": 1090.908999999985,
      "v": 127
    },
    {
      "midi": 52,
      "hit": false,
      "t": 345818.15300000046,
      "d": 1090.908999999985,
      "v": 127
    },
    {
      "midi": 59,
      "hit": false,
      "t": 345818.15300000046,
      "d": 1090.908999999985,
      "v": 127
    },
    {
      "midi": 74,
      "hit": false,
      "t": 346090.8802500001,
      "d": 272.7272499999963,
      "v": 127
    },
    {
      "midi": 74,
      "hit": false,
      "t": 346636.3347500001,
      "d": 1090.908999999985,
      "v": 127
    },
    {
      "midi": 36,
      "hit": false,
      "t": 346909.06200000027,
      "d": 198.86361979169305,
      "v": 127
    },
    {
      "midi": 48,
      "hit": false,
      "t": 346909.06200000044,
      "d": 272.7272499999963,
      "v": 127
    },
    {
      "midi": 55,
      "hit": false,
      "t": 346909.06200000044,
      "d": 272.7272499999963,
      "v": 127
    },
    {
      "midi": 36,
      "hit": false,
      "t": 347181.7892500003,
      "d": 272.7272499999963,
      "v": 127
    },
    {
      "midi": 48,
      "hit": false,
      "t": 347181.78925000044,
      "d": 272.7272499999963,
      "v": 127
    },
    {
      "midi": 55,
      "hit": false,
      "t": 347181.78925000044,
      "d": 272.7272499999963,
      "v": 127
    },
    {
      "midi": 72,
      "hit": false,
      "t": 347727.2437500001,
      "d": 272.7272499999963,
      "v": 127
    },
    {
      "midi": 71,
      "hit": false,
      "t": 347999.9710000001,
      "d": 545.4544999999925,
      "v": 127
    },
    {
      "midi": 71,
      "hit": false,
      "t": 348818.15275000007,
      "d": 272.7272499999963,
      "v": 127
    },
    {
      "midi": 76,
      "hit": false,
      "t": 349090.88000000006,
      "d": 272.7272499999963,
      "v": 127
    },
    {
      "midi": 33,
      "hit": false,
      "t": 349090.8800000003,
      "d": 136.36362499999814,
      "v": 127
    },
    {
      "midi": 45,
      "hit": false,
      "t": 349090.8800000004,
      "d": 136.36362499999814,
      "v": 127
    },
    {
      "midi": 71,
      "hit": false,
      "t": 349363.60725000006,
      "d": 272.7272499999963,
      "v": 127
    },
    {
      "midi": 33,
      "hit": false,
      "t": 349363.6072500003,
      "d": 119.31817187502747,
      "v": 127
    },
    {
      "midi": 45,
      "hit": false,
      "t": 349363.6072500004,
      "d": 136.36362499999814,
      "v": 127
    },
    {
      "midi": 78,
      "hit": false,
      "t": 349636.33450000006,
      "d": 272.7272499999963,
      "v": 127
    },
    {
      "midi": 33,
      "hit": false,
      "t": 349636.33450000035,
      "d": 107.95453645836096,
      "v": 127
    },
    {
      "midi": 45,
      "hit": false,
      "t": 349636.3345000004,
      "d": 136.36362499999814,
      "v": 127
    },
    {
      "midi": 71,
      "hit": false,
      "t": 349909.06175000005,
      "d": 272.7272499999963,
      "v": 127
    },
    {
      "midi": 33,
      "hit": false,
      "t": 349909.0617500004,
      "d": 119.31817187502747,
      "v": 127
    },
    {
      "midi": 45,
      "hit": false,
      "t": 349909.0617500004,
      "d": 136.36362499999814,
      "v": 127
    },
    {
      "midi": 79,
      "hit": false,
      "t": 350181.78900000005,
      "d": 272.7272499999963,
      "v": 127
    },
    {
      "midi": 45,
      "hit": false,
      "t": 350181.7890000004,
      "d": 1090.908999999985,
      "v": 127
    },
    {
      "midi": 52,
      "hit": false,
      "t": 350181.7890000004,
      "d": 1090.908999999985,
      "v": 127
    },
    {
      "midi": 57,
      "hit": false,
      "t": 350181.7890000004,
      "d": 1090.908999999985,
      "v": 127
    },
    {
      "midi": 33,
      "hit": false,
      "t": 350181.78900000046,
      "d": 1136.3635416666511,
      "v": 127
    },
    {
      "midi": 71,
      "hit": false,
      "t": 350454.51625000004,
      "d": 272.7272499999963,
      "v": 127
    },
    {
      "midi": 78,
      "hit": false,
      "t": 350727.24350000004,
      "d": 272.7272499999963,
      "v": 127
    },
    {
      "midi": 71,
      "hit": false,
      "t": 350999.97075000004,
      "d": 272.7272499999963,
      "v": 127
    },
    {
      "midi": 79,
      "hit": false,
      "t": 351272.69800000003,
      "d": 272.7272499999963,
      "v": 127
    },
    {
      "midi": 50,
      "hit": false,
      "t": 351272.6980000004,
      "d": 272.7272499999963,
      "v": 127
    },
    {
      "midi": 57,
      "hit": false,
      "t": 351272.6980000004,
      "d": 272.7272499999963,
      "v": 127
    },
    {
      "midi": 38,
      "hit": false,
      "t": 351272.69800000044,
      "d": 133.52271614584606,
      "v": 127
    },
    {
      "midi": 71,
      "hit": false,
      "t": 351545.42525000003,
      "d": 272.7272499999963,
      "v": 127
    },
    {
      "midi": 50,
      "hit": false,
      "t": 351545.4252500004,
      "d": 272.7272499999963,
      "v": 127
    },
    {
      "midi": 57,
      "hit": false,
      "t": 351545.4252500004,
      "d": 272.7272499999963,
      "v": 127
    },
    {
      "midi": 38,
      "hit": false,
      "t": 351545.42525000044,
      "d": 261.36361458332976,
      "v": 127
    },
    {
      "midi": 81,
      "hit": false,
      "t": 351818.1525,
      "d": 272.7272499999963,
      "v": 127
    },
    {
      "midi": 71,
      "hit": false,
      "t": 352090.87975,
      "d": 272.7272499999963,
      "v": 127
    },
    {
      "midi": 83,
      "hit": false,
      "t": 352363.607,
      "d": 1090.908999999985,
      "v": 127
    },
    {
      "midi": 47,
      "hit": false,
      "t": 352363.60700000037,
      "d": 272.7272499999963,
      "v": 127
    },
    {
      "midi": 54,
      "hit": false,
      "t": 352363.60700000037,
      "d": 272.7272499999963,
      "v": 127
    },
    {
      "midi": 35,
      "hit": false,
      "t": 352363.6070000004,
      "d": 144.88635156251257,
      "v": 127
    },
    {
      "midi": 47,
      "hit": false,
      "t": 352636.33425000036,
      "d": 272.7272499999963,
      "v": 127
    },
    {
      "midi": 54,
      "hit": false,
      "t": 352636.33425000036,
      "d": 272.7272499999963,
      "v": 127
    },
    {
      "midi": 35,
      "hit": false,
      "t": 352636.3342500004,
      "d": 238.63634374999674,
      "v": 127
    },
    {
      "midi": 81,
      "hit": false,
      "t": 353454.516,
      "d": 545.4544999999925,
      "v": 127
    },
    {
      "midi": 40,
      "hit": false,
      "t": 353454.51600000035,
      "d": 136.36362499999814,
      "v": 127
    },
    {
      "midi": 40,
      "hit": false,
      "t": 353454.5160000004,
      "d": 119.31817187502747,
      "v": 127
    },
    {
      "midi": 40,
      "hit": false,
      "t": 353727.24325000035,
      "d": 136.36362499999814,
      "v": 127
    },
    {
      "midi": 40,
      "hit": false,
      "t": 353727.24325000047,
      "d": 124.99998958333163,
      "v": 127
    },
    {
      "midi": 79,
      "hit": false,
      "t": 353999.9705,
      "d": 272.7272499999963,
      "v": 127
    },
    {
      "midi": 40,
      "hit": false,
      "t": 353999.97050000035,
      "d": 136.36362499999814,
      "v": 127
    },
    {
      "midi": 40,
      "hit": false,
      "t": 353999.97050000046,
      "d": 136.36362499999814,
      "v": 127
    },
    {
      "midi": 76,
      "hit": false,
      "t": 354272.69775,
      "d": 272.7272499999963,
      "v": 127
    },
    {
      "midi": 40,
      "hit": false,
      "t": 354272.69775000034,
      "d": 136.36362499999814,
      "v": 127
    },
    {
      "midi": 40,
      "hit": false,
      "t": 354272.69775000046,
      "d": 139.2045338541502,
      "v": 127
    },
    {
      "midi": 79,
      "hit": false,
      "t": 354545.425,
      "d": 818.1817499999888,
      "v": 127
    },
    {
      "midi": 40,
      "hit": false,
      "t": 354545.42500000034,
      "d": 1090.908999999985,
      "v": 127
    },
    {
      "midi": 52,
      "hit": false,
      "t": 354545.42500000034,
      "d": 1090.908999999985,
      "v": 127
    },
    {
      "midi": 59,
      "hit": false,
      "t": 354545.42500000034,
      "d": 1090.908999999985,
      "v": 127
    },
    {
      "midi": 40,
      "hit": false,
      "t": 354545.42500000045,
      "d": 1017.0453697916819,
      "v": 127
    },
    {
      "midi": 81,
      "hit": false,
      "t": 355363.60675,
      "d": 818.1817499999888,
      "v": 127
    },
    {
      "midi": 48,
      "hit": false,
      "t": 355636.3340000003,
      "d": 272.7272499999963,
      "v": 127
    },
    {
      "midi": 55,
      "hit": false,
      "t": 355636.3340000003,
      "d": 272.7272499999963,
      "v": 127
    },
    {
      "midi": 36,
      "hit": false,
      "t": 355636.3340000005,
      "d": 167.6136223958456,
      "v": 127
    },
    {
      "midi": 48,
      "hit": false,
      "t": 355909.0612500003,
      "d": 272.7272499999963,
      "v": 127
    },
    {
      "midi": 55,
      "hit": false,
      "t": 355909.0612500003,
      "d": 272.7272499999963,
      "v": 127
    },
    {
      "midi": 36,
      "hit": false,
      "t": 355909.0612500005,
      "d": 258.5227057291777,
      "v": 127
    },
    {
      "midi": 79,
      "hit": false,
      "t": 356181.78849999997,
      "d": 272.7272499999963,
      "v": 127
    },
    {
      "midi": 78,
      "hit": false,
      "t": 356454.51574999996,
      "d": 272.7272499999963,
      "v": 127
    },
    {
      "midi": 74,
      "hit": false,
      "t": 356727.24299999996,
      "d": 818.1817499999888,
      "v": 127
    },
    {
      "midi": 81,
      "hit": false,
      "t": 357545.42474999995,
      "d": 818.1817499999888,
      "v": 127
    },
    {
      "midi": 45,
      "hit": false,
      "t": 357818.1520000003,
      "d": 136.36362499999814,
      "v": 127
    },
    {
      "midi": 33,
      "hit": false,
      "t": 357818.1520000005,
      "d": 142.0454427083605,
      "v": 127
    },
    {
      "midi": 45,
      "hit": false,
      "t": 358090.8792500003,
      "d": 136.36362499999814,
      "v": 127
    },
    {
      "midi": 33,
      "hit": false,
      "t": 358090.8792500006,
      "d": 110.79544531251304,
      "v": 127
    },
    {
      "midi": 79,
      "hit": false,
      "t": 358363.60649999994,
      "d": 272.7272499999963,
      "v": 127
    },
    {
      "midi": 45,
      "hit": false,
      "t": 358363.6065000003,
      "d": 136.36362499999814,
      "v": 127
    },
    {
      "midi": 33,
      "hit": false,
      "t": 358363.6065000006,
      "d": 130.68180729169399,
      "v": 127
    },
    {
      "midi": 78,
      "hit": false,
      "t": 358636.33374999993,
      "d": 272.7272499999963,
      "v": 127
    },
    {
      "midi": 45,
      "hit": false,
      "t": 358636.3337500003,
      "d": 136.36362499999814,
      "v": 127
    },
    {
      "midi": 33,
      "hit": false,
      "t": 358636.33375000063,
      "d": 127.8408984374837,
      "v": 127
    },
    {
      "midi": 79,
      "hit": false,
      "t": 358909.0609999999,
      "d": 272.7272499999963,
      "v": 127
    },
    {
      "midi": 45,
      "hit": false,
      "t": 358909.0610000003,
      "d": 1090.908999999985,
      "v": 127
    },
    {
      "midi": 52,
      "hit": false,
      "t": 358909.0610000003,
      "d": 1090.908999999985,
      "v": 127
    },
    {
      "midi": 57,
      "hit": false,
      "t": 358909.0610000003,
      "d": 1090.908999999985,
      "v": 127
    },
    {
      "midi": 33,
      "hit": false,
      "t": 358909.0610000006,
      "d": 1073.8635468750144,
      "v": 127
    },
    {
      "midi": 78,
      "hit": false,
      "t": 359181.7882499999,
      "d": 272.7272499999963,
      "v": 127
    },
    {
      "midi": 76,
      "hit": false,
      "t": 359454.5154999999,
      "d": 272.7272499999963,
      "v": 127
    },
    {
      "midi": 74,
      "hit": false,
      "t": 359727.2427499999,
      "d": 272.7272499999963,
      "v": 127
    },
    {
      "midi": 76,
      "hit": false,
      "t": 359999.9699999999,
      "d": 818.1817499999888,
      "v": 127
    },
    {
      "midi": 50,
      "hit": false,
      "t": 359999.97000000026,
      "d": 272.7272499999963,
      "v": 127
    },
    {
      "midi": 57,
      "hit": false,
      "t": 359999.97000000026,
      "d": 272.7272499999963,
      "v": 127
    },
    {
      "midi": 38,
      "hit": false,
      "t": 359999.97000000067,
      "d": 150.56816927081672,
      "v": 127
    },
    {
      "midi": 50,
      "hit": false,
      "t": 360272.69725000026,
      "d": 272.7272499999963,
      "v": 127
    },
    {
      "midi": 57,
      "hit": false,
      "t": 360272.69725000026,
      "d": 272.7272499999963,
      "v": 127
    },
    {
      "midi": 38,
      "hit": false,
      "t": 360272.69725000067,
      "d": 295.4545208333293,
      "v": 127
    },
    {
      "midi": 74,
      "hit": false,
      "t": 360818.1517499999,
      "d": 1090.908999999985,
      "v": 127
    },
    {
      "midi": 47,
      "hit": false,
      "t": 361090.87900000025,
      "d": 272.7272499999963,
      "v": 127
    },
    {
      "midi": 54,
      "hit": false,
      "t": 361090.87900000025,
      "d": 272.7272499999963,
      "v": 127
    },
    {
      "midi": 35,
      "hit": false,
      "t": 361090.87900000066,
      "d": 164.77271354169352,
      "v": 127
    },
    {
      "midi": 47,
      "hit": false,
      "t": 361363.60625000024,
      "d": 272.7272499999963,
      "v": 127
    },
    {
      "midi": 54,
      "hit": false,
      "t": 361363.60625000024,
      "d": 272.7272499999963,
      "v": 127
    },
    {
      "midi": 35,
      "hit": false,
      "t": 361363.6062500007,
      "d": 269.8863411458442,
      "v": 127
    },
    {
      "midi": 71,
      "hit": false,
      "t": 361909.0607499999,
      "d": 272.7272499999963,
      "v": 127
    },
    {
      "midi": 79,
      "hit": false,
      "t": 362181.7879999999,
      "d": 272.7272499999963,
      "v": 127
    },
    {
      "midi": 40,
      "hit": false,
      "t": 362181.78800000023,
      "d": 136.36362499999814,
      "v": 127
    },
    {
      "midi": 40,
      "hit": false,
      "t": 362181.7880000007,
      "d": 116.47726302081719,
      "v": 127
    },
    {
      "midi": 78,
      "hit": false,
      "t": 362454.5152499999,
      "d": 272.7272500000545,
      "v": 127
    },
    {
      "midi": 40,
      "hit": false,
      "t": 362454.51525000023,
      "d": 136.36362499999814,
      "v": 127
    },
    {
      "midi": 40,
      "hit": false,
      "t": 362454.5152500007,
      "d": 124.99998958333163,
      "v": 127
    },
    {
      "midi": 76,
      "hit": false,
      "t": 362727.24249999993,
      "d": 272.7272499999963,
      "v": 127
    },
    {
      "midi": 40,
      "hit": false,
      "t": 362727.2425000002,
      "d": 136.36362499999814,
      "v": 127
    },
    {
      "midi": 40,
      "hit": false,
      "t": 362727.2425000007,
      "d": 150.56816927081672,
      "v": 127
    },
    {
      "midi": 74,
      "hit": false,
      "t": 362999.96974999993,
      "d": 272.7272499999963,
      "v": 127
    },
    {
      "midi": 40,
      "hit": false,
      "t": 362999.9697500002,
      "d": 136.36362499999814,
      "v": 127
    },
    {
      "midi": 40,
      "hit": false,
      "t": 362999.9697500007,
      "d": 173.29544010414975,
      "v": 127
    },
    {
      "midi": 72,
      "hit": false,
      "t": 363272.6969999999,
      "d": 272.7272499999963,
      "v": 127
    },
    {
      "midi": 40,
      "hit": false,
      "t": 363272.6970000002,
      "d": 1090.908999999985,
      "v": 127
    },
    {
      "midi": 52,
      "hit": false,
      "t": 363272.6970000002,
      "d": 1090.908999999985,
      "v": 127
    },
    {
      "midi": 59,
      "hit": false,
      "t": 363272.6970000002,
      "d": 1090.908999999985,
      "v": 127
    },
    {
      "midi": 40,
      "hit": false,
      "t": 363272.6970000007,
      "d": 1019.886278645834,
      "v": 127
    },
    {
      "midi": 71,
      "hit": false,
      "t": 363545.4242499999,
      "d": 272.7272499999963,
      "v": 127
    },
    {
      "midi": 69,
      "hit": false,
      "t": 363818.1514999999,
      "d": 272.7272499999963,
      "v": 127
    },
    {
      "midi": 67,
      "hit": false,
      "t": 364090.8787499999,
      "d": 272.7272499999963,
      "v": 127
    },
    {
      "midi": 66,
      "hit": false,
      "t": 364363.6059999999,
      "d": 272.7272499999963,
      "v": 127
    },
    {
      "midi": 48,
      "hit": false,
      "t": 364363.6060000002,
      "d": 272.7272499999963,
      "v": 127
    },
    {
      "midi": 55,
      "hit": false,
      "t": 364363.6060000002,
      "d": 272.7272499999963,
      "v": 127
    },
    {
      "midi": 36,
      "hit": false,
      "t": 364363.60600000067,
      "d": 224.43179947917815,
      "v": 127
    },
    {
      "midi": 67,
      "hit": false,
      "t": 364636.3332499999,
      "d": 272.7272499999963,
      "v": 127
    },
    {
      "midi": 48,
      "hit": false,
      "t": 364636.3332500002,
      "d": 272.7272499999963,
      "v": 127
    },
    {
      "midi": 55,
      "hit": false,
      "t": 364636.3332500002,
      "d": 272.7272499999963,
      "v": 127
    },
    {
      "midi": 36,
      "hit": false,
      "t": 364636.33325000067,
      "d": 272.7272499999963,
      "v": 127
    },
    {
      "midi": 66,
      "hit": false,
      "t": 364909.0604999999,
      "d": 272.7272499999963,
      "v": 127
    },
    {
      "midi": 64,
      "hit": false,
      "t": 365181.7877499999,
      "d": 272.7272499999963,
      "v": 127
    },
    {
      "midi": 62,
      "hit": false,
      "t": 365454.5149999999,
      "d": 545.4544999999925,
      "v": 127
    },
    {
      "midi": 66,
      "hit": false,
      "t": 365999.9694999999,
      "d": 272.7272499999963,
      "v": 127
    },
    {
      "midi": 67,
      "hit": false,
      "t": 366272.6967499999,
      "d": 272.7272499999963,
      "v": 127
    },
    {
      "midi": 66,
      "hit": false,
      "t": 366545.4239999999,
      "d": 272.7272500000545,
      "v": 127
    },
    {
      "midi": 45,
      "hit": false,
      "t": 366545.4240000002,
      "d": 136.36362499999814,
      "v": 127
    },
    {
      "midi": 33,
      "hit": false,
      "t": 366545.42400000064,
      "d": 127.8408984374837,
      "v": 127
    },
    {
      "midi": 64,
      "hit": false,
      "t": 366818.15124999994,
      "d": 272.7272499999963,
      "v": 127
    },
    {
      "midi": 45,
      "hit": false,
      "t": 366818.15125000017,
      "d": 136.36362499999814,
      "v": 127
    },
    {
      "midi": 33,
      "hit": false,
      "t": 366818.15125000064,
      "d": 110.79544531251304,
      "v": 127
    },
    {
      "midi": 66,
      "hit": false,
      "t": 367090.87849999993,
      "d": 272.7272499999963,
      "v": 127
    },
    {
      "midi": 45,
      "hit": false,
      "t": 367090.87850000017,
      "d": 136.36362499999814,
      "v": 127
    },
    {
      "midi": 33,
      "hit": false,
      "t": 367090.87850000063,
      "d": 119.31817187502747,
      "v": 127
    },
    {
      "midi": 67,
      "hit": false,
      "t": 367363.60574999993,
      "d": 272.7272499999963,
      "v": 127
    },
    {
      "midi": 45,
      "hit": false,
      "t": 367363.60575000016,
      "d": 136.36362499999814,
      "v": 127
    },
    {
      "midi": 33,
      "hit": false,
      "t": 367363.6057500007,
      "d": 124.99998958333163,
      "v": 127
    },
    {
      "midi": 66,
      "hit": false,
      "t": 367636.3329999999,
      "d": 272.7272499999963,
      "v": 127
    },
    {
      "midi": 45,
      "hit": false,
      "t": 367636.33300000016,
      "d": 1090.908999999985,
      "v": 127
    },
    {
      "midi": 52,
      "hit": false,
      "t": 367636.33300000016,
      "d": 1090.908999999985,
      "v": 127
    },
    {
      "midi": 57,
      "hit": false,
      "t": 367636.33300000016,
      "d": 1090.908999999985,
      "v": 127
    },
    {
      "midi": 33,
      "hit": false,
      "t": 367636.3330000007,
      "d": 977.27264583332,
      "v": 127
    },
    {
      "midi": 64,
      "hit": false,
      "t": 367909.0602499999,
      "d": 272.7272499999963,
      "v": 127
    },
    {
      "midi": 66,
      "hit": false,
      "t": 368181.7874999999,
      "d": 272.7272499999963,
      "v": 127
    },
    {
      "midi": 67,
      "hit": false,
      "t": 368454.5147499999,
      "d": 272.7272499999963,
      "v": 127
    },
    {
      "midi": 66,
      "hit": false,
      "t": 368727.2419999999,
      "d": 272.7272500000545,
      "v": 127
    },
    {
      "midi": 50,
      "hit": false,
      "t": 368727.24200000014,
      "d": 272.7272499999963,
      "v": 127
    },
    {
      "midi": 57,
      "hit": false,
      "t": 368727.24200000014,
      "d": 272.7272499999963,
      "v": 127
    },
    {
      "midi": 38,
      "hit": false,
      "t": 368727.24200000067,
      "d": 156.24998697917908,
      "v": 127
    },
    {
      "midi": 64,
      "hit": false,
      "t": 368999.96924999997,
      "d": 272.7272499999963,
      "v": 127
    },
    {
      "midi": 50,
      "hit": false,
      "t": 368999.96925000014,
      "d": 272.7272499999963,
      "v": 127
    },
    {
      "midi": 57,
      "hit": false,
      "t": 368999.96925000014,
      "d": 272.7272499999963,
      "v": 127
    },
    {
      "midi": 38,
      "hit": false,
      "t": 368999.96925000066,
      "d": 332.3863359374809,
      "v": 127
    },
    {
      "midi": 66,
      "hit": false,
      "t": 369272.69649999996,
      "d": 272.7272499999963,
      "v": 127
    },
    {
      "midi": 67,
      "hit": false,
      "t": 369545.42374999996,
      "d": 272.7272499999963,
      "v": 127
    },
    {
      "midi": 71,
      "hit": false,
      "t": 369818.15099999995,
      "d": 3272.7269999999553,
      "v": 127
    },
    {
      "midi": 47,
      "hit": false,
      "t": 369818.1510000001,
      "d": 272.7272499999963,
      "v": 127
    },
    {
      "midi": 54,
      "hit": false,
      "t": 369818.1510000001,
      "d": 272.7272499999963,
      "v": 127
    },
    {
      "midi": 35,
      "hit": false,
      "t": 369818.15100000065,
      "d": 144.88635156251257,
      "v": 127
    },
    {
      "midi": 47,
      "hit": false,
      "t": 370090.8782500001,
      "d": 272.7272499999963,
      "v": 127
    },
    {
      "midi": 54,
      "hit": false,
      "t": 370090.8782500001,
      "d": 272.7272499999963,
      "v": 127
    },
    {
      "midi": 35,
      "hit": false,
      "t": 370090.87825000065,
      "d": 414.7726927083568,
      "v": 127
    },
    {
      "midi": 40,
      "hit": false,
      "t": 370909.0600000001,
      "d": 1090.908999999985,
      "v": 127
    },
    {
      "midi": 47,
      "hit": false,
      "t": 370909.0600000001,
      "d": 1090.908999999985,
      "v": 127
    },
    {
      "midi": 52,
      "hit": false,
      "t": 370909.0600000001,
      "d": 1090.908999999985,
      "v": 127
    },
    {
      "midi": 40,
      "hit": false,
      "t": 370909.0600000007,
      "d": 2164.7725468749995,
      "v": 127
    },
    {
      "midi": 52,
      "hit": false,
      "t": 371999.9690000001,
      "d": 1090.908999999985,
      "v": 127
    },
    {
      "midi": 59,
      "hit": false,
      "t": 371999.9690000001,
      "d": 1090.908999999985,
      "v": 127
    },
    {
      "midi": 64,
      "hit": false,
      "t": 371999.9690000001,
      "d": 1090.908999999985,
      "v": 127
    },
    {
      "midi": 67,
      "hit": false,
      "t": 371999.9690000005,
      "d": 553.977226562507,
      "v": 127
    },
    {
      "midi": 66,
      "hit": false,
      "t": 372545.4235000005,
      "d": 667.6135807291721,
      "v": 127
    },
    {
      "midi": 48,
      "hit": false,
      "t": 373090.8780000001,
      "d": 1636.3634999999776,
      "v": 127
    },
    {
      "midi": 55,
      "hit": false,
      "t": 373090.8780000001,
      "d": 1636.3634999999776,
      "v": 127
    },
    {
      "midi": 60,
      "hit": false,
      "t": 373090.8780000001,
      "d": 1636.3634999999776,
      "v": 127
    },
    {
      "midi": 36,
      "hit": false,
      "t": 373090.8780000007,
      "d": 2119.3180052083335,
      "v": 127
    },
    {
      "midi": 69,
      "hit": false,
      "t": 373227.2416250005,
      "d": 295.4545208333293,
      "v": 127
    },
    {
      "midi": 67,
      "hit": false,
      "t": 373363.6052500005,
      "d": 1301.1362552083447,
      "v": 127
    },
    {
      "midi": 48,
      "hit": false,
      "t": 374727.24150000006,
      "d": 272.7272499999963,
      "v": 127
    },
    {
      "midi": 55,
      "hit": false,
      "t": 374727.24150000006,
      "d": 272.7272499999963,
      "v": 127
    },
    {
      "midi": 60,
      "hit": false,
      "t": 374727.24150000006,
      "d": 272.7272499999963,
      "v": 127
    },
    {
      "midi": 48,
      "hit": false,
      "t": 374999.96875000006,
      "d": 272.7272499999963,
      "v": 127
    },
    {
      "midi": 55,
      "hit": false,
      "t": 374999.96875000006,
      "d": 272.7272499999963,
      "v": 127
    },
    {
      "midi": 60,
      "hit": false,
      "t": 374999.96875000006,
      "d": 272.7272499999963,
      "v": 127
    },
    {
      "midi": 67,
      "hit": false,
      "t": 374999.9687500005,
      "d": 14.204544270818587,
      "v": 127
    },
    {
      "midi": 50,
      "hit": false,
      "t": 375272.69600000005,
      "d": 1636.3634999999776,
      "v": 127
    },
    {
      "midi": 57,
      "hit": false,
      "t": 375272.69600000005,
      "d": 1636.3634999999776,
      "v": 127
    },
    {
      "midi": 62,
      "hit": false,
      "t": 375272.69600000005,
      "d": 1636.3634999999776,
      "v": 127
    },
    {
      "midi": 67,
      "hit": false,
      "t": 375272.6960000005,
      "d": 855.1135651041404,
      "v": 127
    },
    {
      "midi": 38,
      "hit": false,
      "t": 375272.69600000075,
      "d": 2122.1589140624856,
      "v": 127
    },
    {
      "midi": 64,
      "hit": false,
      "t": 376090.8777500005,
      "d": 178.9772578125121,
      "v": 127
    },
    {
      "midi": 64,
      "hit": false,
      "t": 376363.6050000005,
      "d": 2778.408859374991,
      "v": 127
    },
    {
      "midi": 50,
      "hit": false,
      "t": 376909.05950000003,
      "d": 545.4544999999925,
      "v": 127
    },
    {
      "midi": 57,
      "hit": false,
      "t": 376909.05950000003,
      "d": 545.4544999999925,
      "v": 127
    },
    {
      "midi": 62,
      "hit": false,
      "t": 376909.05950000003,
      "d": 545.4544999999925,
      "v": 127
    },
    {
      "midi": 43,
      "hit": false,
      "t": 377454.514,
      "d": 272.7272499999963,
      "v": 127
    },
    {
      "midi": 50,
      "hit": false,
      "t": 377454.514,
      "d": 272.7272499999963,
      "v": 127
    },
    {
      "midi": 55,
      "hit": false,
      "t": 377454.514,
      "d": 272.7272499999963,
      "v": 127
    },
    {
      "midi": 31,
      "hit": false,
      "t": 377454.5140000007,
      "d": 190.34089322917862,
      "v": 127
    },
    {
      "midi": 43,
      "hit": false,
      "t": 377727.24125,
      "d": 272.7272499999963,
      "v": 127
    },
    {
      "midi": 50,
      "hit": false,
      "t": 377727.24125,
      "d": 272.7272499999963,
      "v": 127
    },
    {
      "midi": 55,
      "hit": false,
      "t": 377727.24125,
      "d": 272.7272499999963,
      "v": 127
    },
    {
      "midi": 31,
      "hit": false,
      "t": 377727.2412500007,
      "d": 363.63633333332837,
      "v": 127
    },
    {
      "midi": 41,
      "hit": false,
      "t": 378545.423,
      "d": 272.7272499999963,
      "v": 127
    },
    {
      "midi": 48,
      "hit": false,
      "t": 378545.423,
      "d": 272.7272499999963,
      "v": 127
    },
    {
      "midi": 53,
      "hit": false,
      "t": 378545.423,
      "d": 272.7272499999963,
      "v": 127
    },
    {
      "midi": 35,
      "hit": false,
      "t": 378545.4230000007,
      "d": 178.9772578125121,
      "v": 127
    },
    {
      "midi": 41,
      "hit": false,
      "t": 378818.15025,
      "d": 272.7272499999963,
      "v": 127
    },
    {
      "midi": 48,
      "hit": false,
      "t": 378818.15025,
      "d": 272.7272499999963,
      "v": 127
    },
    {
      "midi": 53,
      "hit": false,
      "t": 378818.15025,
      "d": 272.7272499999963,
      "v": 127
    },
    {
      "midi": 35,
      "hit": false,
      "t": 378818.1502500007,
      "d": 261.36361458332976,
      "v": 127
    },
    {
      "midi": 40,
      "hit": false,
      "t": 379636.332,
      "d": 1090.908999999985,
      "v": 127
    },
    {
      "midi": 47,
      "hit": false,
      "t": 379636.332,
      "d": 1090.908999999985,
      "v": 127
    },
    {
      "midi": 52,
      "hit": false,
      "t": 379636.332,
      "d": 1090.908999999985,
      "v": 127
    },
    {
      "midi": 40,
      "hit": false,
      "t": 379636.3320000007,
      "d": 2178.977091145818,
      "v": 127
    },
    {
      "midi": 52,
      "hit": false,
      "t": 380727.241,
      "d": 1090.908999999985,
      "v": 127
    },
    {
      "midi": 59,
      "hit": false,
      "t": 380727.241,
      "d": 1090.908999999985,
      "v": 127
    },
    {
      "midi": 64,
      "hit": false,
      "t": 380727.241,
      "d": 1090.908999999985,
      "v": 127
    },
    {
      "midi": 67,
      "hit": false,
      "t": 380727.2410000005,
      "d": 548.2954088541446,
      "v": 127
    },
    {
      "midi": 66,
      "hit": false,
      "t": 381272.6955000005,
      "d": 650.5681276041432,
      "v": 127
    },
    {
      "midi": 48,
      "hit": false,
      "t": 381818.14999999997,
      "d": 1636.3634999999776,
      "v": 127
    },
    {
      "midi": 55,
      "hit": false,
      "t": 381818.14999999997,
      "d": 1636.3634999999776,
      "v": 127
    },
    {
      "midi": 60,
      "hit": false,
      "t": 381818.14999999997,
      "d": 1636.3634999999776,
      "v": 127
    },
    {
      "midi": 69,
      "hit": false,
      "t": 381818.1500000005,
      "d": 332.3863359374809,
      "v": 127
    },
    {
      "midi": 36,
      "hit": false,
      "t": 381818.15000000066,
      "d": 2142.0452760416665,
      "v": 127
    },
    {
      "midi": 67,
      "hit": false,
      "t": 382090.8772500005,
      "d": 1218.7498984374688,
      "v": 127
    },
    {
      "midi": 48,
      "hit": false,
      "t": 383454.51349999994,
      "d": 272.7272499999963,
      "v": 127
    },
    {
      "midi": 55,
      "hit": false,
      "t": 383454.51349999994,
      "d": 272.7272499999963,
      "v": 127
    },
    {
      "midi": 60,
      "hit": false,
      "t": 383454.51349999994,
      "d": 272.7272499999963,
      "v": 127
    },
    {
      "midi": 67,
      "hit": false,
      "t": 383454.51350000047,
      "d": 156.24998697917908,
      "v": 127
    },
    {
      "midi": 48,
      "hit": false,
      "t": 383727.24074999994,
      "d": 272.7272499999963,
      "v": 127
    },
    {
      "midi": 55,
      "hit": false,
      "t": 383727.24074999994,
      "d": 272.7272499999963,
      "v": 127
    },
    {
      "midi": 60,
      "hit": false,
      "t": 383727.24074999994,
      "d": 272.7272499999963,
      "v": 127
    },
    {
      "midi": 67,
      "hit": false,
      "t": 383727.24075000046,
      "d": 142.0454427083605,
      "v": 127
    },
    {
      "midi": 50,
      "hit": false,
      "t": 383999.96799999994,
      "d": 1636.3634999999776,
      "v": 127
    },
    {
      "midi": 57,
      "hit": false,
      "t": 383999.96799999994,
      "d": 1636.3634999999776,
      "v": 127
    },
    {
      "midi": 62,
      "hit": false,
      "t": 383999.96799999994,
      "d": 1636.3634999999776,
      "v": 127
    },
    {
      "midi": 67,
      "hit": false,
      "t": 383999.9680000005,
      "d": 894.8862890625023,
      "v": 127
    },
    {
      "midi": 38,
      "hit": false,
      "t": 383999.9680000007,
      "d": 2090.908916666638,
      "v": 127
    },
    {
      "midi": 64,
      "hit": false,
      "t": 384818.1497500005,
      "d": 173.29544010420796,
      "v": 127
    },
    {
      "midi": 64,
      "hit": false,
      "t": 385227.24062500056,
      "d": 3053.9770182291395,
      "v": 127
    },
    {
      "midi": 50,
      "hit": false,
      "t": 385636.3314999999,
      "d": 545.4544999999925,
      "v": 127
    },
    {
      "midi": 57,
      "hit": false,
      "t": 385636.3314999999,
      "d": 545.4544999999925,
      "v": 127
    },
    {
      "midi": 62,
      "hit": false,
      "t": 385636.3314999999,
      "d": 545.4544999999925,
      "v": 127
    },
    {
      "midi": 43,
      "hit": false,
      "t": 386181.7859999999,
      "d": 272.7272499999963,
      "v": 127
    },
    {
      "midi": 50,
      "hit": false,
      "t": 386181.7859999999,
      "d": 272.7272499999963,
      "v": 127
    },
    {
      "midi": 55,
      "hit": false,
      "t": 386181.7859999999,
      "d": 272.7272499999963,
      "v": 127
    },
    {
      "midi": 31,
      "hit": false,
      "t": 386181.78600000066,
      "d": 130.68180729169399,
      "v": 127
    },
    {
      "midi": 43,
      "hit": false,
      "t": 386454.5132499999,
      "d": 272.7272499999963,
      "v": 127
    },
    {
      "midi": 50,
      "hit": false,
      "t": 386454.5132499999,
      "d": 272.7272499999963,
      "v": 127
    },
    {
      "midi": 55,
      "hit": false,
      "t": 386454.5132499999,
      "d": 272.7272499999963,
      "v": 127
    },
    {
      "midi": 31,
      "hit": false,
      "t": 386454.5132500007,
      "d": 193.1818020833307,
      "v": 127
    },
    {
      "midi": 43,
      "hit": false,
      "t": 386727.2404999999,
      "d": 272.7272499999963,
      "v": 127
    },
    {
      "midi": 50,
      "hit": false,
      "t": 386727.2404999999,
      "d": 272.7272499999963,
      "v": 127
    },
    {
      "midi": 55,
      "hit": false,
      "t": 386727.2404999999,
      "d": 272.7272499999963,
      "v": 127
    },
    {
      "midi": 31,
      "hit": false,
      "t": 386727.2405000007,
      "d": 196.02271093748277,
      "v": 127
    },
    {
      "midi": 43,
      "hit": false,
      "t": 386999.9677499999,
      "d": 272.7272499999963,
      "v": 127
    },
    {
      "midi": 50,
      "hit": false,
      "t": 386999.9677499999,
      "d": 272.7272499999963,
      "v": 127
    },
    {
      "midi": 55,
      "hit": false,
      "t": 386999.9677499999,
      "d": 272.7272499999963,
      "v": 127
    },
    {
      "midi": 31,
      "hit": false,
      "t": 386999.9677500007,
      "d": 196.02271093748277,
      "v": 127
    },
    {
      "midi": 42,
      "hit": false,
      "t": 387272.6949999999,
      "d": 272.7272499999963,
      "v": 127
    },
    {
      "midi": 49,
      "hit": false,
      "t": 387272.6949999999,
      "d": 272.7272499999963,
      "v": 127
    },
    {
      "midi": 54,
      "hit": false,
      "t": 387272.6949999999,
      "d": 272.7272499999963,
      "v": 127
    },
    {
      "midi": 30,
      "hit": false,
      "t": 387272.6950000007,
      "d": 196.02271093748277,
      "v": 127
    },
    {
      "midi": 42,
      "hit": false,
      "t": 387545.4222499999,
      "d": 272.7272499999963,
      "v": 127
    },
    {
      "midi": 49,
      "hit": false,
      "t": 387545.4222499999,
      "d": 272.7272499999963,
      "v": 127
    },
    {
      "midi": 54,
      "hit": false,
      "t": 387545.4222499999,
      "d": 272.7272499999963,
      "v": 127
    },
    {
      "midi": 30,
      "hit": false,
      "t": 387545.4222500007,
      "d": 173.29544010414975,
      "v": 127
    },
    {
      "midi": 42,
      "hit": false,
      "t": 387818.1494999999,
      "d": 272.7272499999963,
      "v": 127
    },
    {
      "midi": 49,
      "hit": false,
      "t": 387818.1494999999,
      "d": 272.7272499999963,
      "v": 127
    },
    {
      "midi": 54,
      "hit": false,
      "t": 387818.1494999999,
      "d": 272.7272499999963,
      "v": 127
    },
    {
      "midi": 30,
      "hit": false,
      "t": 387818.1495000007,
      "d": 156.24998697917908,
      "v": 127
    },
    {
      "midi": 42,
      "hit": false,
      "t": 388090.8767499999,
      "d": 272.7272499999963,
      "v": 127
    },
    {
      "midi": 49,
      "hit": false,
      "t": 388090.8767499999,
      "d": 272.7272499999963,
      "v": 127
    },
    {
      "midi": 54,
      "hit": false,
      "t": 388090.8767499999,
      "d": 272.7272499999963,
      "v": 127
    },
    {
      "midi": 30,
      "hit": false,
      "t": 388090.8767500007,
      "d": 198.86361979169305,
      "v": 127
    },
    {
      "midi": 40,
      "hit": false,
      "t": 388363.6039999999,
      "d": 1090.908999999985,
      "v": 127
    },
    {
      "midi": 47,
      "hit": false,
      "t": 388363.6039999999,
      "d": 1090.908999999985,
      "v": 127
    },
    {
      "midi": 52,
      "hit": false,
      "t": 388363.6039999999,
      "d": 1090.908999999985,
      "v": 127
    },
    {
      "midi": 40,
      "hit": false,
      "t": 388363.60400000075,
      "d": 2167.6134557291516,
      "v": 127
    },
    {
      "midi": 71,
      "hit": false,
      "t": 388909.0585000005,
      "d": 545.4544999999925,
      "v": 127
    },
    {
      "midi": 52,
      "hit": false,
      "t": 389454.51299999986,
      "d": 1090.908999999985,
      "v": 127
    },
    {
      "midi": 59,
      "hit": false,
      "t": 389454.51299999986,
      "d": 1090.908999999985,
      "v": 127
    },
    {
      "midi": 64,
      "hit": false,
      "t": 389454.51299999986,
      "d": 1090.908999999985,
      "v": 127
    },
    {
      "midi": 69,
      "hit": false,
      "t": 389454.5130000005,
      "d": 545.4544999999925,
      "v": 127
    },
    {
      "midi": 69,
      "hit": false,
      "t": 389999.9675000005,
      "d": 411.9317838541465,
      "v": 127
    },
    {
      "midi": 48,
      "hit": false,
      "t": 390545.42199999985,
      "d": 1636.3634999999776,
      "v": 127
    },
    {
      "midi": 55,
      "hit": false,
      "t": 390545.42199999985,
      "d": 1636.3634999999776,
      "v": 127
    },
    {
      "midi": 60,
      "hit": false,
      "t": 390545.42199999985,
      "d": 1636.3634999999776,
      "v": 127
    },
    {
      "midi": 69,
      "hit": false,
      "t": 390545.4220000005,
      "d": 329.54542708332883,
      "v": 127
    },
    {
      "midi": 36,
      "hit": false,
      "t": 390545.4220000007,
      "d": 2196.022544270847,
      "v": 127
    },
    {
      "midi": 67,
      "hit": false,
      "t": 390818.1492500005,
      "d": 1232.9544427083456,
      "v": 127
    },
    {
      "midi": 48,
      "hit": false,
      "t": 392181.7854999998,
      "d": 272.7272499999963,
      "v": 127
    },
    {
      "midi": 55,
      "hit": false,
      "t": 392181.7854999998,
      "d": 272.7272499999963,
      "v": 127
    },
    {
      "midi": 60,
      "hit": false,
      "t": 392181.7854999998,
      "d": 272.7272499999963,
      "v": 127
    },
    {
      "midi": 67,
      "hit": false,
      "t": 392181.7855000005,
      "d": 153.409078125027,
      "v": 127
    },
    {
      "midi": 48,
      "hit": false,
      "t": 392454.5127499998,
      "d": 272.7272499999963,
      "v": 127
    },
    {
      "midi": 55,
      "hit": false,
      "t": 392454.5127499998,
      "d": 272.7272499999963,
      "v": 127
    },
    {
      "midi": 60,
      "hit": false,
      "t": 392454.5127499998,
      "d": 272.7272499999963,
      "v": 127
    },
    {
      "midi": 67,
      "hit": false,
      "t": 392454.5127500006,
      "d": 238.63634374999674,
      "v": 127
    },
    {
      "midi": 50,
      "hit": false,
      "t": 392727.2399999998,
      "d": 1636.3634999999776,
      "v": 127
    },
    {
      "midi": 57,
      "hit": false,
      "t": 392727.2399999998,
      "d": 1636.3634999999776,
      "v": 127
    },
    {
      "midi": 62,
      "hit": false,
      "t": 392727.2399999998,
      "d": 1636.3634999999776,
      "v": 127
    },
    {
      "midi": 69,
      "hit": false,
      "t": 392727.2400000006,
      "d": 747.1590286458377,
      "v": 127
    },
    {
      "midi": 38,
      "hit": false,
      "t": 392727.24000000075,
      "d": 2105.1134609374567,
      "v": 127
    },
    {
      "midi": 64,
      "hit": false,
      "t": 393545.42175000056,
      "d": 176.13634895836003,
      "v": 127
    },
    {
      "midi": 64,
      "hit": false,
      "t": 393818.1490000006,
      "d": 519.8863203125075,
      "v": 127
    },
    {
      "midi": 62,
      "hit": false,
      "t": 394227.2398750006,
      "d": 289.77270312502515,
      "v": 127
    },
    {
      "midi": 50,
      "hit": false,
      "t": 394363.6034999998,
      "d": 545.4544999999925,
      "v": 127
    },
    {
      "midi": 57,
      "hit": false,
      "t": 394363.6034999998,
      "d": 545.4544999999925,
      "v": 127
    },
    {
      "midi": 62,
      "hit": false,
      "t": 394363.6034999998,
      "d": 545.4544999999925,
      "v": 127
    },
    {
      "midi": 64,
      "hit": false,
      "t": 394499.9671250006,
      "d": 934.6590130208642,
      "v": 127
    },
    {
      "midi": 43,
      "hit": false,
      "t": 394909.0579999998,
      "d": 272.7272499999963,
      "v": 127
    },
    {
      "midi": 50,
      "hit": false,
      "t": 394909.0579999998,
      "d": 272.7272499999963,
      "v": 127
    },
    {
      "midi": 55,
      "hit": false,
      "t": 394909.0579999998,
      "d": 272.7272499999963,
      "v": 127
    },
    {
      "midi": 31,
      "hit": false,
      "t": 394909.0580000007,
      "d": 181.81816666666418,
      "v": 127
    },
    {
      "midi": 43,
      "hit": false,
      "t": 395181.7852499998,
      "d": 272.7272499999963,
      "v": 127
    },
    {
      "midi": 50,
      "hit": false,
      "t": 395181.7852499998,
      "d": 272.7272499999963,
      "v": 127
    },
    {
      "midi": 55,
      "hit": false,
      "t": 395181.7852499998,
      "d": 272.7272499999963,
      "v": 127
    },
    {
      "midi": 31,
      "hit": false,
      "t": 395181.7852500007,
      "d": 247.15907031251118,
      "v": 127
    },
    {
      "midi": 67,
      "hit": false,
      "t": 395454.51250000065,
      "d": 1042.613549479167,
      "v": 127
    },
    {
      "midi": 50,
      "hit": false,
      "t": 395999.9669999998,
      "d": 272.7272499999963,
      "v": 127
    },
    {
      "midi": 57,
      "hit": false,
      "t": 395999.9669999998,
      "d": 272.7272499999963,
      "v": 127
    },
    {
      "midi": 62,
      "hit": false,
      "t": 395999.9669999998,
      "d": 272.7272499999963,
      "v": 127
    },
    {
      "midi": 35,
      "hit": false,
      "t": 395999.9670000007,
      "d": 196.02271093748277,
      "v": 127
    },
    {
      "midi": 50,
      "hit": false,
      "t": 396272.69424999977,
      "d": 272.7272499999963,
      "v": 127
    },
    {
      "midi": 57,
      "hit": false,
      "t": 396272.69424999977,
      "d": 272.7272499999963,
      "v": 127
    },
    {
      "midi": 62,
      "hit": false,
      "t": 396272.69424999977,
      "d": 272.7272499999963,
      "v": 127
    },
    {
      "midi": 35,
      "hit": false,
      "t": 396272.6942500007,
      "d": 298.2954296874814,
      "v": 127
    },
    {
      "midi": 40,
      "hit": false,
      "t": 397090.87599999976,
      "d": 1090.908999999985,
      "v": 127
    },
    {
      "midi": 47,
      "hit": false,
      "t": 397090.87599999976,
      "d": 1090.908999999985,
      "v": 127
    },
    {
      "midi": 52,
      "hit": false,
      "t": 397090.87599999976,
      "d": 1090.908999999985,
      "v": 127
    },
    {
      "midi": 40,
      "hit": false,
      "t": 397090.8760000007,
      "d": 2176.136182291666,
      "v": 127
    },
    {
      "midi": 52,
      "hit": false,
      "t": 398181.78499999974,
      "d": 1090.908999999985,
      "v": 127
    },
    {
      "midi": 59,
      "hit": false,
      "t": 398181.78499999974,
      "d": 1090.908999999985,
      "v": 127
    },
    {
      "midi": 64,
      "hit": false,
      "t": 398181.78499999974,
      "d": 1090.908999999985,
      "v": 127
    },
    {
      "midi": 67,
      "hit": false,
      "t": 398181.7850000007,
      "d": 545.4544999999925,
      "v": 127
    },
    {
      "midi": 66,
      "hit": false,
      "t": 398727.23950000067,
      "d": 590.9090416666586,
      "v": 127
    },
    {
      "midi": 48,
      "hit": false,
      "t": 399272.6939999997,
      "d": 1636.3634999999776,
      "v": 127
    },
    {
      "midi": 55,
      "hit": false,
      "t": 399272.6939999997,
      "d": 1636.3634999999776,
      "v": 127
    },
    {
      "midi": 60,
      "hit": false,
      "t": 399272.6939999997,
      "d": 1636.3634999999776,
      "v": 127
    },
    {
      "midi": 67,
      "hit": false,
      "t": 399272.69400000066,
      "d": 230.1136171874823,
      "v": 127
    },
    {
      "midi": 36,
      "hit": false,
      "t": 399272.6940000007,
      "d": 2176.136182291666,
      "v": 127
    },
    {
      "midi": 67,
      "hit": false,
      "t": 399681.78487500065,
      "d": 1613.6362291666446,
      "v": 127
    },
    {
      "midi": 48,
      "hit": false,
      "t": 400909.0574999997,
      "d": 272.7272499999963,
      "v": 127
    },
    {
      "midi": 55,
      "hit": false,
      "t": 400909.0574999997,
      "d": 272.7272499999963,
      "v": 127
    },
    {
      "midi": 60,
      "hit": false,
      "t": 400909.0574999997,
      "d": 272.7272499999963,
      "v": 127
    },
    {
      "midi": 48,
      "hit": false,
      "t": 401181.7847499997,
      "d": 272.7272499999963,
      "v": 127
    },
    {
      "midi": 55,
      "hit": false,
      "t": 401181.7847499997,
      "d": 272.7272499999963,
      "v": 127
    },
    {
      "midi": 60,
      "hit": false,
      "t": 401181.7847499997,
      "d": 272.7272499999963,
      "v": 127
    },
    {
      "midi": 66,
      "hit": false,
      "t": 401181.78475000063,
      "d": 443.18178124999395,
      "v": 127
    },
    {
      "midi": 50,
      "hit": false,
      "t": 401454.5119999997,
      "d": 2181.8180000000284,
      "v": 127
    },
    {
      "midi": 57,
      "hit": false,
      "t": 401454.5119999997,
      "d": 2181.8180000000284,
      "v": 127
    },
    {
      "midi": 62,
      "hit": false,
      "t": 401454.5119999997,
      "d": 2181.8180000000284,
      "v": 127
    },
    {
      "midi": 38,
      "hit": false,
      "t": 401454.51200000074,
      "d": 2150.568002604181,
      "v": 127
    },
    {
      "midi": 67,
      "hit": false,
      "t": 401590.8756250006,
      "d": 2142.0452760416665,
      "v": 127
    },
    {
      "midi": 43,
      "hit": false,
      "t": 403636.3299999997,
      "d": 272.7272499999963,
      "v": 127
    },
    {
      "midi": 50,
      "hit": false,
      "t": 403636.3299999997,
      "d": 272.7272499999963,
      "v": 127
    },
    {
      "midi": 55,
      "hit": false,
      "t": 403636.3299999997,
      "d": 272.7272499999963,
      "v": 127
    },
    {
      "midi": 64,
      "hit": false,
      "t": 403636.3300000006,
      "d": 2428.9770703125396,
      "v": 127
    },
    {
      "midi": 31,
      "hit": false,
      "t": 403636.3300000008,
      "d": 170.45453124999767,
      "v": 127
    },
    {
      "midi": 43,
      "hit": false,
      "t": 403909.0572499997,
      "d": 272.7272499999963,
      "v": 127
    },
    {
      "midi": 50,
      "hit": false,
      "t": 403909.0572499997,
      "d": 272.7272499999963,
      "v": 127
    },
    {
      "midi": 55,
      "hit": false,
      "t": 403909.0572499997,
      "d": 272.7272499999963,
      "v": 127
    },
    {
      "midi": 31,
      "hit": false,
      "t": 403909.05725000077,
      "d": 176.13634895836003,
      "v": 127
    },
    {
      "midi": 43,
      "hit": false,
      "t": 404181.7844999997,
      "d": 272.7272499999963,
      "v": 127
    },
    {
      "midi": 50,
      "hit": false,
      "t": 404181.7844999997,
      "d": 272.7272499999963,
      "v": 127
    },
    {
      "midi": 55,
      "hit": false,
      "t": 404181.7844999997,
      "d": 272.7272499999963,
      "v": 127
    },
    {
      "midi": 31,
      "hit": false,
      "t": 404181.7845000008,
      "d": 170.45453124999767,
      "v": 127
    },
    {
      "midi": 43,
      "hit": false,
      "t": 404454.5117499997,
      "d": 272.7272499999963,
      "v": 127
    },
    {
      "midi": 50,
      "hit": false,
      "t": 404454.5117499997,
      "d": 272.7272499999963,
      "v": 127
    },
    {
      "midi": 55,
      "hit": false,
      "t": 404454.5117499997,
      "d": 272.7272499999963,
      "v": 127
    },
    {
      "midi": 31,
      "hit": false,
      "t": 404454.5117500008,
      "d": 227.27270833333023,
      "v": 127
    },
    {
      "midi": 47,
      "hit": false,
      "t": 404727.2389999997,
      "d": 272.7272499999963,
      "v": 127
    },
    {
      "midi": 54,
      "hit": false,
      "t": 404727.2389999997,
      "d": 272.7272499999963,
      "v": 127
    },
    {
      "midi": 59,
      "hit": false,
      "t": 404727.2389999997,
      "d": 272.7272499999963,
      "v": 127
    },
    {
      "midi": 35,
      "hit": false,
      "t": 404727.2390000008,
      "d": 150.56816927081672,
      "v": 127
    },
    {
      "midi": 47,
      "hit": false,
      "t": 404999.9662499997,
      "d": 272.7272499999963,
      "v": 127
    },
    {
      "midi": 54,
      "hit": false,
      "t": 404999.9662499997,
      "d": 272.7272499999963,
      "v": 127
    },
    {
      "midi": 59,
      "hit": false,
      "t": 404999.9662499997,
      "d": 272.7272499999963,
      "v": 127
    },
    {
      "midi": 35,
      "hit": false,
      "t": 404999.9662500008,
      "d": 150.56816927081672,
      "v": 127
    },
    {
      "midi": 47,
      "hit": false,
      "t": 405272.6934999997,
      "d": 272.7272499999963,
      "v": 127
    },
    {
      "midi": 54,
      "hit": false,
      "t": 405272.6934999997,
      "d": 272.7272499999963,
      "v": 127
    },
    {
      "midi": 59,
      "hit": false,
      "t": 405272.6934999997,
      "d": 272.7272499999963,
      "v": 127
    },
    {
      "midi": 35,
      "hit": false,
      "t": 405272.6935000008,
      "d": 127.8408984374837,
      "v": 127
    },
    {
      "midi": 47,
      "hit": false,
      "t": 405545.4207499997,
      "d": 272.7272499999963,
      "v": 127
    },
    {
      "midi": 54,
      "hit": false,
      "t": 405545.4207499997,
      "d": 272.7272499999963,
      "v": 127
    },
    {
      "midi": 59,
      "hit": false,
      "t": 405545.4207499997,
      "d": 272.7272499999963,
      "v": 127
    },
    {
      "midi": 35,
      "hit": false,
      "t": 405545.4207500008,
      "d": 170.45453124999767,
      "v": 127
    },
    {
      "midi": 40,
      "hit": false,
      "t": 405818.1479999997,
      "d": 1090.908999999985,
      "v": 127
    },
    {
      "midi": 47,
      "hit": false,
      "t": 405818.1479999997,
      "d": 1090.908999999985,
      "v": 127
    },
    {
      "midi": 52,
      "hit": false,
      "t": 405818.1479999997,
      "d": 1090.908999999985,
      "v": 127
    },
    {
      "midi": 40,
      "hit": false,
      "t": 405818.1480000008,
      "d": 2218.74981510418,
      "v": 127
    },
    {
      "midi": 52,
      "hit": false,
      "t": 406909.0569999997,
      "d": 1090.908999999985,
      "v": 127
    },
    {
      "midi": 59,
      "hit": false,
      "t": 406909.0569999997,
      "d": 1090.908999999985,
      "v": 127
    },
    {
      "midi": 64,
      "hit": false,
      "t": 406909.0569999997,
      "d": 1090.908999999985,
      "v": 127
    },
    {
      "midi": 67,
      "hit": false,
      "t": 406909.0570000006,
      "d": 528.4090468750219,
      "v": 127
    },
    {
      "midi": 66,
      "hit": false,
      "t": 407454.51150000066,
      "d": 607.9544947916875,
      "v": 127
    },
    {
      "midi": 48,
      "hit": false,
      "t": 407999.96599999967,
      "d": 1636.3634999999776,
      "v": 127
    },
    {
      "midi": 55,
      "hit": false,
      "t": 407999.96599999967,
      "d": 1636.3634999999776,
      "v": 127
    },
    {
      "midi": 60,
      "hit": false,
      "t": 407999.96599999967,
      "d": 1636.3634999999776,
      "v": 127
    },
    {
      "midi": 69,
      "hit": false,
      "t": 407999.96600000066,
      "d": 301.13633854174986,
      "v": 127
    },
    {
      "midi": 36,
      "hit": false,
      "t": 407999.96600000083,
      "d": 2034.0907395833055,
      "v": 127
    },
    {
      "midi": 67,
      "hit": false,
      "t": 408272.6932500007,
      "d": 1218.749898437527,
      "v": 127
    },
    {
      "midi": 48,
      "hit": false,
      "t": 409636.32949999964,
      "d": 272.7272499999963,
      "v": 127
    },
    {
      "midi": 55,
      "hit": false,
      "t": 409636.32949999964,
      "d": 272.7272499999963,
      "v": 127
    },
    {
      "midi": 60,
      "hit": false,
      "t": 409636.32949999964,
      "d": 272.7272499999963,
      "v": 127
    },
    {
      "midi": 67,
      "hit": false,
      "t": 409636.32950000075,
      "d": 142.0454427083605,
      "v": 127
    },
    {
      "midi": 48,
      "hit": false,
      "t": 409909.05674999964,
      "d": 272.7272499999963,
      "v": 127
    },
    {
      "midi": 55,
      "hit": false,
      "t": 409909.05674999964,
      "d": 272.7272499999963,
      "v": 127
    },
    {
      "midi": 60,
      "hit": false,
      "t": 409909.05674999964,
      "d": 272.7272499999963,
      "v": 127
    },
    {
      "midi": 67,
      "hit": false,
      "t": 409909.0567500008,
      "d": 119.31817187502747,
      "v": 127
    },
    {
      "midi": 50,
      "hit": false,
      "t": 410181.78399999964,
      "d": 1636.3634999999776,
      "v": 127
    },
    {
      "midi": 57,
      "hit": false,
      "t": 410181.78399999964,
      "d": 1636.3634999999776,
      "v": 127
    },
    {
      "midi": 62,
      "hit": false,
      "t": 410181.78399999964,
      "d": 1636.3634999999776,
      "v": 127
    },
    {
      "midi": 38,
      "hit": false,
      "t": 410181.7840000008,
      "d": 2201.7043619792094,
      "v": 127
    },
    {
      "midi": 67,
      "hit": false,
      "t": 410181.78400000086,
      "d": 798.2953880208079,
      "v": 127
    },
    {
      "midi": 64,
      "hit": false,
      "t": 410999.96575000085,
      "d": 201.70452864584513,
      "v": 127
    },
    {
      "midi": 83,
      "hit": false,
      "t": 411272.6929999999,
      "d": 1090.908999999985,
      "v": 127
    },
    {
      "midi": 64,
      "hit": false,
      "t": 411272.69300000084,
      "d": 3312.499723958317,
      "v": 127
    },
    {
      "midi": 50,
      "hit": false,
      "t": 411818.1474999996,
      "d": 545.4544999999925,
      "v": 127
    },
    {
      "midi": 57,
      "hit": false,
      "t": 411818.1474999996,
      "d": 545.4544999999925,
      "v": 127
    },
    {
      "midi": 62,
      "hit": false,
      "t": 411818.1474999996,
      "d": 545.4544999999925,
      "v": 127
    },
    {
      "midi": 43,
      "hit": false,
      "t": 412363.6019999996,
      "d": 272.7272499999963,
      "v": 127
    },
    {
      "midi": 50,
      "hit": false,
      "t": 412363.6019999996,
      "d": 272.7272499999963,
      "v": 127
    },
    {
      "midi": 55,
      "hit": false,
      "t": 412363.6019999996,
      "d": 272.7272499999963,
      "v": 127
    },
    {
      "midi": 83,
      "hit": false,
      "t": 412363.6019999999,
      "d": 1090.908999999985,
      "v": 127
    },
    {
      "midi": 31,
      "hit": false,
      "t": 412363.6020000008,
      "d": 181.81816666666418,
      "v": 127
    },
    {
      "midi": 43,
      "hit": false,
      "t": 412636.3292499996,
      "d": 272.7272499999963,
      "v": 127
    },
    {
      "midi": 50,
      "hit": false,
      "t": 412636.3292499996,
      "d": 272.7272499999963,
      "v": 127
    },
    {
      "midi": 55,
      "hit": false,
      "t": 412636.3292499996,
      "d": 272.7272499999963,
      "v": 127
    },
    {
      "midi": 31,
      "hit": false,
      "t": 412636.3292500008,
      "d": 340.90906249999534,
      "v": 127
    },
    {
      "midi": 41,
      "hit": false,
      "t": 413454.5109999996,
      "d": 272.7272499999963,
      "v": 127
    },
    {
      "midi": 48,
      "hit": false,
      "t": 413454.5109999996,
      "d": 272.7272499999963,
      "v": 127
    },
    {
      "midi": 53,
      "hit": false,
      "t": 413454.5109999996,
      "d": 272.7272499999963,
      "v": 127
    },
    {
      "midi": 83,
      "hit": false,
      "t": 413454.5109999999,
      "d": 1090.908999999985,
      "v": 127
    },
    {
      "midi": 35,
      "hit": false,
      "t": 413454.5110000008,
      "d": 196.02271093748277,
      "v": 127
    },
    {
      "midi": 41,
      "hit": false,
      "t": 413727.2382499996,
      "d": 272.7272499999963,
      "v": 127
    },
    {
      "midi": 48,
      "hit": false,
      "t": 413727.2382499996,
      "d": 272.7272499999963,
      "v": 127
    },
    {
      "midi": 53,
      "hit": false,
      "t": 413727.2382499996,
      "d": 272.7272499999963,
      "v": 127
    },
    {
      "midi": 35,
      "hit": false,
      "t": 413727.2382500008,
      "d": 261.36361458332976,
      "v": 127
    },
    {
      "midi": 40,
      "hit": false,
      "t": 414545.4199999996,
      "d": 1090.908999999985,
      "v": 127
    },
    {
      "midi": 47,
      "hit": false,
      "t": 414545.4199999996,
      "d": 1090.908999999985,
      "v": 127
    },
    {
      "midi": 52,
      "hit": false,
      "t": 414545.4199999996,
      "d": 1090.908999999985,
      "v": 127
    },
    {
      "midi": 81,
      "hit": false,
      "t": 414545.41999999987,
      "d": 545.4544999999925,
      "v": 127
    },
    {
      "midi": 40,
      "hit": false,
      "t": 414545.4200000008,
      "d": 2207.3861796875135,
      "v": 127
    },
    {
      "midi": 79,
      "hit": false,
      "t": 415090.87449999986,
      "d": 2727.272500000021,
      "v": 127
    },
    {
      "midi": 52,
      "hit": false,
      "t": 415636.32899999956,
      "d": 1090.908999999985,
      "v": 127
    },
    {
      "midi": 59,
      "hit": false,
      "t": 415636.32899999956,
      "d": 1090.908999999985,
      "v": 127
    },
    {
      "midi": 64,
      "hit": false,
      "t": 415636.32899999956,
      "d": 1090.908999999985,
      "v": 127
    },
    {
      "midi": 67,
      "hit": false,
      "t": 415636.32900000084,
      "d": 536.9317734374781,
      "v": 127
    },
    {
      "midi": 66,
      "hit": false,
      "t": 416181.78350000083,
      "d": 605.1135859374772,
      "v": 127
    },
    {
      "midi": 48,
      "hit": false,
      "t": 416727.23799999955,
      "d": 1636.3634999999776,
      "v": 127
    },
    {
      "midi": 55,
      "hit": false,
      "t": 416727.23799999955,
      "d": 1636.3634999999776,
      "v": 127
    },
    {
      "midi": 60,
      "hit": false,
      "t": 416727.23799999955,
      "d": 1636.3634999999776,
      "v": 127
    },
    {
      "midi": 36,
      "hit": false,
      "t": 416727.2380000008,
      "d": 2130.681640625,
      "v": 127
    },
    {
      "midi": 69,
      "hit": false,
      "t": 416727.2380000008,
      "d": 326.70451822917676,
      "v": 127
    },
    {
      "midi": 67,
      "hit": false,
      "t": 416999.9652500008,
      "d": 1207.3862630208605,
      "v": 127
    },
    {
      "midi": 76,
      "hit": false,
      "t": 417818.1469999999,
      "d": 272.7272499999963,
      "v": 127
    },
    {
      "midi": 76,
      "hit": false,
      "t": 418090.8742499999,
      "d": 545.4544999999925,
      "v": 127
    },
    {
      "midi": 48,
      "hit": false,
      "t": 418363.6014999995,
      "d": 272.7272499999963,
      "v": 127
    },
    {
      "midi": 55,
      "hit": false,
      "t": 418363.6014999995,
      "d": 272.7272499999963,
      "v": 127
    },
    {
      "midi": 60,
      "hit": false,
      "t": 418363.6014999995,
      "d": 272.7272499999963,
      "v": 127
    },
    {
      "midi": 67,
      "hit": false,
      "t": 418363.60150000086,
      "d": 159.09089583333116,
      "v": 127
    },
    {
      "midi": 48,
      "hit": false,
      "t": 418636.3287499995,
      "d": 272.7272499999963,
      "v": 127
    },
    {
      "midi": 55,
      "hit": false,
      "t": 418636.3287499995,
      "d": 272.7272499999963,
      "v": 127
    },
    {
      "midi": 60,
      "hit": false,
      "t": 418636.3287499995,
      "d": 272.7272499999963,
      "v": 127
    },
    {
      "midi": 79,
      "hit": false,
      "t": 418636.32874999987,
      "d": 272.7272499999963,
      "v": 127
    },
    {
      "midi": 67,
      "hit": false,
      "t": 418636.32875000086,
      "d": 127.8408984374837,
      "v": 127
    },
    {
      "midi": 50,
      "hit": false,
      "t": 418909.0559999995,
      "d": 1636.3634999999776,
      "v": 127
    },
    {
      "midi": 57,
      "hit": false,
      "t": 418909.0559999995,
      "d": 1636.3634999999776,
      "v": 127
    },
    {
      "midi": 62,
      "hit": false,
      "t": 418909.0559999995,
      "d": 1636.3634999999776,
      "v": 127
    },
    {
      "midi": 76,
      "hit": false,
      "t": 418909.05599999987,
      "d": 545.4544999999925,
      "v": 127
    },
    {
      "midi": 38,
      "hit": false,
      "t": 418909.05600000086,
      "d": 2088.068007812486,
      "v": 127
    },
    {
      "midi": 67,
      "hit": false,
      "t": 418909.05600000086,
      "d": 829.5453854166553,
      "v": 127
    },
    {
      "midi": 74,
      "hit": false,
      "t": 419454.51049999986,
      "d": 1363.6362499999814,
      "v": 127
    },
    {
      "midi": 64,
      "hit": false,
      "t": 419727.23775000084,
      "d": 241.47725260414882,
      "v": 127
    },
    {
      "midi": 64,
      "hit": false,
      "t": 419999.96500000084,
      "d": 3062.499744791654,
      "v": 127
    },
    {
      "midi": 50,
      "hit": false,
      "t": 420545.4194999995,
      "d": 545.4544999999925,
      "v": 127
    },
    {
      "midi": 57,
      "hit": false,
      "t": 420545.4194999995,
      "d": 545.4544999999925,
      "v": 127
    },
    {
      "midi": 62,
      "hit": false,
      "t": 420545.4194999995,
      "d": 545.4544999999925,
      "v": 127
    },
    {
      "midi": 71,
      "hit": false,
      "t": 420818.14674999984,
      "d": 1363.6362499999814,
      "v": 127
    },
    {
      "midi": 43,
      "hit": false,
      "t": 421090.8739999995,
      "d": 272.7272499999963,
      "v": 127
    },
    {
      "midi": 50,
      "hit": false,
      "t": 421090.8739999995,
      "d": 272.7272499999963,
      "v": 127
    },
    {
      "midi": 55,
      "hit": false,
      "t": 421090.8739999995,
      "d": 272.7272499999963,
      "v": 127
    },
    {
      "midi": 31,
      "hit": false,
      "t": 421090.8740000008,
      "d": 144.88635156251257,
      "v": 127
    },
    {
      "midi": 43,
      "hit": false,
      "t": 421363.6012499995,
      "d": 272.7272499999963,
      "v": 127
    },
    {
      "midi": 50,
      "hit": false,
      "t": 421363.6012499995,
      "d": 272.7272499999963,
      "v": 127
    },
    {
      "midi": 55,
      "hit": false,
      "t": 421363.6012499995,
      "d": 272.7272499999963,
      "v": 127
    },
    {
      "midi": 31,
      "hit": false,
      "t": 421363.6012500008,
      "d": 190.34089322917862,
      "v": 127
    },
    {
      "midi": 43,
      "hit": false,
      "t": 421636.3284999995,
      "d": 272.7272499999963,
      "v": 127
    },
    {
      "midi": 50,
      "hit": false,
      "t": 421636.3284999995,
      "d": 272.7272499999963,
      "v": 127
    },
    {
      "midi": 55,
      "hit": false,
      "t": 421636.3284999995,
      "d": 272.7272499999963,
      "v": 127
    },
    {
      "midi": 31,
      "hit": false,
      "t": 421636.3285000008,
      "d": 156.24998697917908,
      "v": 127
    },
    {
      "midi": 43,
      "hit": false,
      "t": 421909.0557499995,
      "d": 272.7272499999963,
      "v": 127
    },
    {
      "midi": 50,
      "hit": false,
      "t": 421909.0557499995,
      "d": 272.7272499999963,
      "v": 127
    },
    {
      "midi": 55,
      "hit": false,
      "t": 421909.0557499995,
      "d": 272.7272499999963,
      "v": 127
    },
    {
      "midi": 74,
      "hit": false,
      "t": 421909.0557499998,
      "d": 272.7272499999963,
      "v": 127
    },
    {
      "midi": 31,
      "hit": false,
      "t": 421909.0557500008,
      "d": 201.70452864584513,
      "v": 127
    },
    {
      "midi": 42,
      "hit": false,
      "t": 422181.7829999995,
      "d": 272.7272499999963,
      "v": 127
    },
    {
      "midi": 49,
      "hit": false,
      "t": 422181.7829999995,
      "d": 272.7272499999963,
      "v": 127
    },
    {
      "midi": 54,
      "hit": false,
      "t": 422181.7829999995,
      "d": 272.7272499999963,
      "v": 127
    },
    {
      "midi": 71,
      "hit": false,
      "t": 422181.7829999998,
      "d": 1090.908999999985,
      "v": 127
    },
    {
      "midi": 30,
      "hit": false,
      "t": 422181.7830000008,
      "d": 213.06816406251164,
      "v": 127
    },
    {
      "midi": 42,
      "hit": false,
      "t": 422454.51024999947,
      "d": 272.7272499999963,
      "v": 127
    },
    {
      "midi": 49,
      "hit": false,
      "t": 422454.51024999947,
      "d": 272.7272499999963,
      "v": 127
    },
    {
      "midi": 54,
      "hit": false,
      "t": 422454.51024999947,
      "d": 272.7272499999963,
      "v": 127
    },
    {
      "midi": 30,
      "hit": false,
      "t": 422454.5102500008,
      "d": 170.45453124999767,
      "v": 127
    },
    {
      "midi": 42,
      "hit": false,
      "t": 422727.23749999946,
      "d": 272.7272499999963,
      "v": 127
    },
    {
      "midi": 49,
      "hit": false,
      "t": 422727.23749999946,
      "d": 272.7272499999963,
      "v": 127
    },
    {
      "midi": 54,
      "hit": false,
      "t": 422727.23749999946,
      "d": 272.7272499999963,
      "v": 127
    },
    {
      "midi": 30,
      "hit": false,
      "t": 422727.2375000008,
      "d": 144.88635156251257,
      "v": 127
    },
    {
      "midi": 42,
      "hit": false,
      "t": 422999.96474999946,
      "d": 272.7272499999963,
      "v": 127
    },
    {
      "midi": 49,
      "hit": false,
      "t": 422999.96474999946,
      "d": 272.7272499999963,
      "v": 127
    },
    {
      "midi": 54,
      "hit": false,
      "t": 422999.96474999946,
      "d": 272.7272499999963,
      "v": 127
    },
    {
      "midi": 74,
      "hit": false,
      "t": 422999.9647499998,
      "d": 272.7272499999963,
      "v": 127
    },
    {
      "midi": 30,
      "hit": false,
      "t": 422999.9647500008,
      "d": 230.1136171874823,
      "v": 127
    },
    {
      "midi": 40,
      "hit": false,
      "t": 423272.69199999946,
      "d": 1090.908999999985,
      "v": 127
    },
    {
      "midi": 47,
      "hit": false,
      "t": 423272.69199999946,
      "d": 1090.908999999985,
      "v": 127
    },
    {
      "midi": 52,
      "hit": false,
      "t": 423272.69199999946,
      "d": 1090.908999999985,
      "v": 127
    },
    {
      "midi": 71,
      "hit": false,
      "t": 423272.6919999998,
      "d": 2181.8180000000284,
      "v": 127
    },
    {
      "midi": 40,
      "hit": false,
      "t": 423272.6920000008,
      "d": 2096.5907343750005,
      "v": 127
    },
    {
      "midi": 71,
      "hit": false,
      "t": 423818.14650000085,
      "d": 593.7499505208107,
      "v": 127
    },
    {
      "midi": 52,
      "hit": false,
      "t": 424363.60099999944,
      "d": 1090.908999999985,
      "v": 127
    },
    {
      "midi": 59,
      "hit": false,
      "t": 424363.60099999944,
      "d": 1090.908999999985,
      "v": 127
    },
    {
      "midi": 64,
      "hit": false,
      "t": 424363.60099999944,
      "d": 1090.908999999985,
      "v": 127
    },
    {
      "midi": 69,
      "hit": false,
      "t": 424363.60100000084,
      "d": 457.38632552081253,
      "v": 127
    },
    {
      "midi": 69,
      "hit": false,
      "t": 424909.05550000083,
      "d": 386.3636041666614,
      "v": 127
    },
    {
      "midi": 48,
      "hit": false,
      "t": 425454.5099999994,
      "d": 1636.3634999999776,
      "v": 127
    },
    {
      "midi": 55,
      "hit": false,
      "t": 425454.5099999994,
      "d": 1636.3634999999776,
      "v": 127
    },
    {
      "midi": 60,
      "hit": false,
      "t": 425454.5099999994,
      "d": 1636.3634999999776,
      "v": 127
    },
    {
      "midi": 36,
      "hit": false,
      "t": 425454.5100000008,
      "d": 2235.795268229209,
      "v": 127
    },
    {
      "midi": 69,
      "hit": false,
      "t": 425454.5100000008,
      "d": 275.56815885414835,
      "v": 127
    },
    {
      "midi": 67,
      "hit": false,
      "t": 425727.2372500008,
      "d": 1247.1589869791642,
      "v": 127
    },
    {
      "midi": 48,
      "hit": false,
      "t": 427090.8734999994,
      "d": 272.7272499999963,
      "v": 127
    },
    {
      "midi": 55,
      "hit": false,
      "t": 427090.8734999994,
      "d": 272.7272499999963,
      "v": 127
    },
    {
      "midi": 60,
      "hit": false,
      "t": 427090.8734999994,
      "d": 272.7272499999963,
      "v": 127
    },
    {
      "midi": 67,
      "hit": false,
      "t": 427090.8735000008,
      "d": 153.409078125027,
      "v": 127
    },
    {
      "midi": 48,
      "hit": false,
      "t": 427363.6007499994,
      "d": 272.7272499999963,
      "v": 127
    },
    {
      "midi": 55,
      "hit": false,
      "t": 427363.6007499994,
      "d": 272.7272499999963,
      "v": 127
    },
    {
      "midi": 60,
      "hit": false,
      "t": 427363.6007499994,
      "d": 272.7272499999963,
      "v": 127
    },
    {
      "midi": 67,
      "hit": false,
      "t": 427363.60075000086,
      "d": 284.0908854166628,
      "v": 127
    },
    {
      "midi": 50,
      "hit": false,
      "t": 427636.3279999994,
      "d": 1636.3634999999776,
      "v": 127
    },
    {
      "midi": 57,
      "hit": false,
      "t": 427636.3279999994,
      "d": 1636.3634999999776,
      "v": 127
    },
    {
      "midi": 62,
      "hit": false,
      "t": 427636.3279999994,
      "d": 1636.3634999999776,
      "v": 127
    },
    {
      "midi": 38,
      "hit": false,
      "t": 427636.32800000085,
      "d": 2099.4316432291525,
      "v": 127
    },
    {
      "midi": 69,
      "hit": false,
      "t": 427636.32800000085,
      "d": 758.5226640625042,
      "v": 127
    },
    {
      "midi": 64,
      "hit": false,
      "t": 428454.50975000084,
      "d": 187.49998437502654,
      "v": 127
    },
    {
      "midi": 64,
      "hit": false,
      "t": 428727.2370000009,
      "d": 528.4090468750219,
      "v": 127
    },
    {
      "midi": 50,
      "hit": false,
      "t": 429272.6914999994,
      "d": 545.4544999999925,
      "v": 127
    },
    {
      "midi": 57,
      "hit": false,
      "t": 429272.6914999994,
      "d": 545.4544999999925,
      "v": 127
    },
    {
      "midi": 62,
      "hit": false,
      "t": 429272.6914999994,
      "d": 545.4544999999925,
      "v": 127
    },
    {
      "midi": 62,
      "hit": false,
      "t": 429272.69150000095,
      "d": 218.7499817708158,
      "v": 127
    },
    {
      "midi": 64,
      "hit": false,
      "t": 429545.41875000094,
      "d": 874.9999270833214,
      "v": 127
    },
    {
      "midi": 43,
      "hit": false,
      "t": 429818.14599999937,
      "d": 272.7272499999963,
      "v": 127
    },
    {
      "midi": 50,
      "hit": false,
      "t": 429818.14599999937,
      "d": 272.7272499999963,
      "v": 127
    },
    {
      "midi": 55,
      "hit": false,
      "t": 429818.14599999937,
      "d": 272.7272499999963,
      "v": 127
    },
    {
      "midi": 31,
      "hit": false,
      "t": 429818.1460000008,
      "d": 221.59089062502608,
      "v": 127
    },
    {
      "midi": 43,
      "hit": false,
      "t": 430090.87324999936,
      "d": 272.7272499999963,
      "v": 127
    },
    {
      "midi": 50,
      "hit": false,
      "t": 430090.87324999936,
      "d": 272.7272499999963,
      "v": 127
    },
    {
      "midi": 55,
      "hit": false,
      "t": 430090.87324999936,
      "d": 272.7272499999963,
      "v": 127
    },
    {
      "midi": 31,
      "hit": false,
      "t": 430090.8732500009,
      "d": 272.7272499999963,
      "v": 127
    },
    {
      "midi": 67,
      "hit": false,
      "t": 430363.60050000093,
      "d": 1079.5453645833186,
      "v": 127
    },
    {
      "midi": 50,
      "hit": false,
      "t": 430909.05499999935,
      "d": 272.7272499999963,
      "v": 127
    },
    {
      "midi": 57,
      "hit": false,
      "t": 430909.05499999935,
      "d": 272.7272499999963,
      "v": 127
    },
    {
      "midi": 62,
      "hit": false,
      "t": 430909.05499999935,
      "d": 272.7272499999963,
      "v": 127
    },
    {
      "midi": 64,
      "hit": false,
      "t": 430909.0549999998,
      "d": 272.7272499999963,
      "v": 127
    },
    {
      "midi": 35,
      "hit": false,
      "t": 430909.05500000087,
      "d": 184.65907552081626,
      "v": 127
    },
    {
      "midi": 50,
      "hit": false,
      "t": 431181.78224999935,
      "d": 272.7272499999963,
      "v": 127
    },
    {
      "midi": 57,
      "hit": false,
      "t": 431181.78224999935,
      "d": 272.7272499999963,
      "v": 127
    },
    {
      "midi": 62,
      "hit": false,
      "t": 431181.78224999935,
      "d": 272.7272499999963,
      "v": 127
    },
    {
      "midi": 59,
      "hit": false,
      "t": 431181.7822499998,
      "d": 272.7272499999963,
      "v": 127
    },
    {
      "midi": 35,
      "hit": false,
      "t": 431181.78225000086,
      "d": 261.36361458332976,
      "v": 127
    },
    {
      "midi": 62,
      "hit": false,
      "t": 431454.5094999998,
      "d": 272.7272499999963,
      "v": 127
    },
    {
      "midi": 67,
      "hit": false,
      "t": 431727.2367499998,
      "d": 2454.5452500000247,
      "v": 127
    },
    {
      "midi": 40,
      "hit": false,
      "t": 431999.96399999934,
      "d": 1090.908999999985,
      "v": 127
    },
    {
      "midi": 47,
      "hit": false,
      "t": 431999.96399999934,
      "d": 1090.908999999985,
      "v": 127
    },
    {
      "midi": 52,
      "hit": false,
      "t": 431999.96399999934,
      "d": 1090.908999999985,
      "v": 127
    },
    {
      "midi": 40,
      "hit": false,
      "t": 431999.96400000085,
      "d": 2187.4998177083908,
      "v": 127
    },
    {
      "midi": 52,
      "hit": false,
      "t": 433090.8729999993,
      "d": 1090.908999999985,
      "v": 127
    },
    {
      "midi": 59,
      "hit": false,
      "t": 433090.8729999993,
      "d": 1090.908999999985,
      "v": 127
    },
    {
      "midi": 64,
      "hit": false,
      "t": 433090.8729999993,
      "d": 1090.908999999985,
      "v": 127
    },
    {
      "midi": 67,
      "hit": false,
      "t": 433090.8730000009,
      "d": 571.0226796874776,
      "v": 127
    },
    {
      "midi": 66,
      "hit": false,
      "t": 433636.3275000009,
      "d": 636.3635833333246,
      "v": 127
    },
    {
      "midi": 48,
      "hit": false,
      "t": 434181.7819999993,
      "d": 1636.3634999999776,
      "v": 127
    },
    {
      "midi": 55,
      "hit": false,
      "t": 434181.7819999993,
      "d": 1636.3634999999776,
      "v": 127
    },
    {
      "midi": 60,
      "hit": false,
      "t": 434181.7819999993,
      "d": 1636.3634999999776,
      "v": 127
    },
    {
      "midi": 66,
      "hit": false,
      "t": 434181.78199999983,
      "d": 2181.8180000000284,
      "v": 127
    },
    {
      "midi": 36,
      "hit": false,
      "t": 434181.7820000009,
      "d": 2164.7725468750577,
      "v": 127
    },
    {
      "midi": 67,
      "hit": false,
      "t": 434181.7820000009,
      "d": 230.1136171874823,
      "v": 127
    },
    {
      "midi": 67,
      "hit": false,
      "t": 434454.5092500009,
      "d": 1352.2726145833149,
      "v": 127
    },
    {
      "midi": 48,
      "hit": false,
      "t": 435818.1454999993,
      "d": 272.7272499999963,
      "v": 127
    },
    {
      "midi": 55,
      "hit": false,
      "t": 435818.1454999993,
      "d": 272.7272499999963,
      "v": 127
    },
    {
      "midi": 60,
      "hit": false,
      "t": 435818.1454999993,
      "d": 272.7272499999963,
      "v": 127
    },
    {
      "midi": 66,
      "hit": false,
      "t": 435818.14550000086,
      "d": 622.159039062506,
      "v": 127
    },
    {
      "midi": 48,
      "hit": false,
      "t": 436090.8727499993,
      "d": 272.7272499999963,
      "v": 127
    },
    {
      "midi": 55,
      "hit": false,
      "t": 436090.8727499993,
      "d": 272.7272499999963,
      "v": 127
    },
    {
      "midi": 60,
      "hit": false,
      "t": 436090.8727499993,
      "d": 272.7272499999963,
      "v": 127
    },
    {
      "midi": 50,
      "hit": false,
      "t": 436363.5999999993,
      "d": 2181.8180000000284,
      "v": 127
    },
    {
      "midi": 57,
      "hit": false,
      "t": 436363.5999999993,
      "d": 2181.8180000000284,
      "v": 127
    },
    {
      "midi": 62,
      "hit": false,
      "t": 436363.5999999993,
      "d": 2181.8180000000284,
      "v": 127
    },
    {
      "midi": 64,
      "hit": false,
      "t": 436363.59999999986,
      "d": 2181.8180000000284,
      "v": 127
    },
    {
      "midi": 38,
      "hit": false,
      "t": 436363.60000000097,
      "d": 2213.067997395876,
      "v": 127
    },
    {
      "midi": 67,
      "hit": false,
      "t": 436499.96362500085,
      "d": 2196.022544270847,
      "v": 127
    },
    {
      "midi": 48,
      "hit": false,
      "t": 438545.4179999993,
      "d": 2181.8180000000284,
      "v": 127
    },
    {
      "midi": 55,
      "hit": false,
      "t": 438545.4179999993,
      "d": 2181.8180000000284,
      "v": 127
    },
    {
      "midi": 60,
      "hit": false,
      "t": 438545.4179999993,
      "d": 2181.8180000000284,
      "v": 127
    },
    {
      "midi": 64,
      "hit": false,
      "t": 438545.4179999999,
      "d": 7636.363000000012,
      "v": 127
    },
    {
      "midi": 36,
      "hit": false,
      "t": 438545.418000001,
      "d": 2201.7043619792094,
      "v": 127
    },
    {
      "midi": 64,
      "hit": false,
      "t": 438681.7816250009,
      "d": 2258.5225390624837,
      "v": 127
    },
    {
      "midi": 38,
      "hit": false,
      "t": 440727.236000001,
      "d": 2181.8180000000284,
      "v": 127
    },
    {
      "midi": 50,
      "hit": false,
      "t": 440727.23600000143,
      "d": 926.1362864583498,
      "v": 127
    },
    {
      "midi": 54,
      "hit": false,
      "t": 440999.9632500014,
      "d": 1065.3408203125,
      "v": 127
    },
    {
      "midi": 55,
      "hit": false,
      "t": 441272.6905000014,
      "d": 985.7953723958344,
      "v": 127
    },
    {
      "midi": 48,
      "hit": false,
      "t": 441545.4177500014,
      "d": 1318.1817083333153,
      "v": 127
    },
    {
      "midi": 52,
      "hit": false,
      "t": 442090.8722500014,
      "d": 1869.3180260416702,
      "v": 127
    },
    {
      "midi": 55,
      "hit": false,
      "t": 442363.5995000014,
      "d": 1624.9998645833693,
      "v": 127
    },
    {
      "midi": 40,
      "hit": false,
      "t": 442909.05400000105,
      "d": 3272.7270000000135,
      "v": 127
    },
    {
      "midi": 40,
      "hit": false,
      "t": 442909.0540000014,
      "d": 3272.72700000013,
      "v": 127
    },
    {
      "midi": 47,
      "hit": false,
      "t": 443454.5085000014,
      "d": 2863.6361250001355,
      "v": 127
    },
    {
      "midi": 52,
      "hit": false,
      "t": 443999.96300000144,
      "d": 2045.4543750000885,
      "v": 127
    },
    {
      "midi": 55,
      "hit": false,
      "t": 444017.0084531265,
      "d": 2164.7725468750577,
      "v": 127
    },
    {
      "midi": 62,
      "hit": false,
      "t": 444034.0539062515,
      "d": 2011.3634687500307,
      "v": 127
    },
    {
      "midi": 64,
      "hit": false,
      "t": 444051.09935937653,
      "d": 2130.681640625,
      "v": 127
    }
  ]
}