{
  "jsonPath": "Unknown/Unknown/Hollywood Studio Orchestra/arthurs-theme.json",
  "path": "Unknown\\Unknown\\Hollywood Studio Orchestra\\Arthurs Theme.mid",
  "name": "Arthurs Theme",
  "difficulty": "Advanced",
  "bpm": 130.00041166797027,
  "notes": [
    {
      "midi": 65,
      "hit": false,
      "t": 3734.6035583333337,
      "d": 165.3840916666668,
      "v": 112
    },
    {
      "midi": 65,
      "hit": false,
      "t": 4030.756466666667,
      "d": 88.46125833333326,
      "v": 105
    },
    {
      "midi": 65,
      "hit": false,
      "t": 4199.9867,
      "d": 138.46110000000044,
      "v": 112
    },
    {
      "midi": 65,
      "hit": false,
      "t": 4492.293466666668,
      "d": 411.53715833333354,
      "v": 112
    },
    {
      "midi": 57,
      "hit": false,
      "t": 4934.599758333335,
      "d": 88.46125833333372,
      "v": 115
    },
    {
      "midi": 57,
      "hit": false,
      "t": 5138.445266666668,
      "d": 138.46110000000044,
      "v": 110
    },
    {
      "midi": 57,
      "hit": false,
      "t": 5442.290458333336,
      "d": 380.7680250000003,
      "v": 115
    },
    {
      "midi": 91,
      "hit": false,
      "t": 5561.52085,
      "d": 242.30692499999986,
      "v": 45
    },
    {
      "midi": 79,
      "hit": false,
      "t": 5565.366991666667,
      "d": 142.3072416666664,
      "v": 35
    },
    {
      "midi": 59,
      "hit": false,
      "t": 5565.366991666667,
      "d": 223.07621666666637,
      "v": 32
    },
    {
      "midi": 87,
      "hit": false,
      "t": 5569.213133333334,
      "d": 80.76897499999995,
      "v": 36
    },
    {
      "midi": 53,
      "hit": false,
      "t": 5573.0592750000005,
      "d": 215.3839333333326,
      "v": 52
    },
    {
      "midi": 88,
      "hit": false,
      "t": 5680.751241666667,
      "d": 161.5379499999999,
      "v": 46
    },
    {
      "midi": 59,
      "hit": false,
      "t": 5869.212183333336,
      "d": 1473.0722583333336,
      "v": 112
    },
    {
      "midi": 91,
      "hit": false,
      "t": 5899.981316666666,
      "d": 146.1533833333351,
      "v": 55
    },
    {
      "midi": 88,
      "hit": false,
      "t": 5911.519741666666,
      "d": 84.61511666666775,
      "v": 74
    },
    {
      "midi": 79,
      "hit": false,
      "t": 5915.365883333333,
      "d": 99.99968333333436,
      "v": 55
    },
    {
      "midi": 59,
      "hit": false,
      "t": 5915.365883333333,
      "d": 107.69196666666812,
      "v": 59
    },
    {
      "midi": 53,
      "hit": false,
      "t": 5923.058166666667,
      "d": 99.99968333333436,
      "v": 60
    },
    {
      "midi": 64,
      "hit": false,
      "t": 7403.822708333336,
      "d": 126.9226749999998,
      "v": 115
    },
    {
      "midi": 64,
      "hit": false,
      "t": 7699.975616666669,
      "d": 80.76897499999995,
      "v": 112
    },
    {
      "midi": 72,
      "hit": false,
      "t": 7746.129316666668,
      "d": 157.69180833333303,
      "v": 82
    },
    {
      "midi": 64,
      "hit": false,
      "t": 7888.436558333336,
      "d": 123.07653333333292,
      "v": 112
    },
    {
      "midi": 67,
      "hit": false,
      "t": 8165.358758333335,
      "d": 111.53810833333318,
      "v": 49
    },
    {
      "midi": 64,
      "hit": false,
      "t": 8176.897183333335,
      "d": 392.30644999999913,
      "v": 101
    },
    {
      "midi": 72,
      "hit": false,
      "t": 8307.666000000001,
      "d": 288.4606249999997,
      "v": 68
    },
    {
      "midi": 60,
      "hit": false,
      "t": 8634.588041666668,
      "d": 396.1525916666669,
      "v": 112
    },
    {
      "midi": 65,
      "hit": false,
      "t": 9088.432758333334,
      "d": 519.2291249999998,
      "v": 112
    },
    {
      "midi": 67,
      "hit": false,
      "t": 9134.586458333335,
      "d": 96.15354166666657,
      "v": 47
    },
    {
      "midi": 72,
      "hit": false,
      "t": 9253.816850000001,
      "d": 334.61432500000046,
      "v": 36
    },
    {
      "midi": 64,
      "hit": false,
      "t": 9565.354325,
      "d": 430.76786666666703,
      "v": 126
    },
    {
      "midi": 60,
      "hit": false,
      "t": 9715.353850000001,
      "d": 438.4601500000008,
      "v": 33
    },
    {
      "midi": 62,
      "hit": false,
      "t": 10011.506758333335,
      "d": 461.53700000000026,
      "v": 115
    },
    {
      "midi": 71,
      "hit": false,
      "t": 10180.736991666668,
      "d": 99.99968333333345,
      "v": 75
    },
    {
      "midi": 80,
      "hit": false,
      "t": 10180.736991666668,
      "d": 196.15322500000002,
      "v": 79
    },
    {
      "midi": 74,
      "hit": false,
      "t": 10207.659983333335,
      "d": 99.99968333333345,
      "v": 20
    },
    {
      "midi": 74,
      "hit": false,
      "t": 10473.043758333335,
      "d": 53.8459833333327,
      "v": 39
    },
    {
      "midi": 60,
      "hit": false,
      "t": 10473.043758333335,
      "d": 646.1517999999996,
      "v": 112
    },
    {
      "midi": 71,
      "hit": false,
      "t": 10526.889741666668,
      "d": 38.46141666666699,
      "v": 59
    },
    {
      "midi": 70,
      "hit": false,
      "t": 10646.120133333336,
      "d": 269.22991666666894,
      "v": 63
    },
    {
      "midi": 79,
      "hit": false,
      "t": 10649.966275000002,
      "d": 238.4607833333339,
      "v": 62
    },
    {
      "midi": 73,
      "hit": false,
      "t": 10649.966275000002,
      "d": 253.84535000000142,
      "v": 69
    },
    {
      "midi": 60,
      "hit": false,
      "t": 11007.657450000004,
      "d": 49.999841666665816,
      "v": 44
    },
    {
      "midi": 46,
      "hit": false,
      "t": 11088.426425000003,
      "d": 103.84582500000033,
      "v": 59
    },
    {
      "midi": 65,
      "hit": false,
      "t": 11092.27256666667,
      "d": 99.99968333333345,
      "v": 68
    },
    {
      "midi": 74,
      "hit": false,
      "t": 11092.27256666667,
      "d": 146.1533833333342,
      "v": 67
    },
    {
      "midi": 62,
      "hit": false,
      "t": 11096.118708333337,
      "d": 111.5381083333341,
      "v": 64
    },
    {
      "midi": 62,
      "hit": false,
      "t": 11134.580125000002,
      "d": 123.07653333333292,
      "v": 117
    },
    {
      "midi": 62,
      "hit": false,
      "t": 11407.656183333334,
      "d": 80.76897500000086,
      "v": 95
    },
    {
      "midi": 62,
      "hit": false,
      "t": 11576.886416666668,
      "d": 99.99968333333345,
      "v": 117
    },
    {
      "midi": 62,
      "hit": false,
      "t": 11842.270191666668,
      "d": 926.9201416666674,
      "v": 95
    },
    {
      "midi": 62,
      "hit": false,
      "t": 12038.423416666672,
      "d": 599.9981000000007,
      "v": 49
    },
    {
      "midi": 77,
      "hit": false,
      "t": 12046.115700000006,
      "d": 115.38425000000097,
      "v": 63
    },
    {
      "midi": 50,
      "hit": false,
      "t": 12046.115700000006,
      "d": 626.921091666667,
      "v": 54
    },
    {
      "midi": 86,
      "hit": false,
      "t": 12046.115700000006,
      "d": 699.9977833333342,
      "v": 75
    },
    {
      "midi": 74,
      "hit": false,
      "t": 12053.80798333334,
      "d": 696.1516416666673,
      "v": 67
    },
    {
      "midi": 53,
      "hit": false,
      "t": 12773.036475000003,
      "d": 196.15322500000002,
      "v": 120
    },
    {
      "midi": 50,
      "hit": false,
      "t": 12861.49773333334,
      "d": 61.53826666666646,
      "v": 30
    },
    {
      "midi": 40,
      "hit": false,
      "t": 12934.574425000008,
      "d": 103.84582500000033,
      "v": 59
    },
    {
      "midi": 64,
      "hit": false,
      "t": 12938.420566666675,
      "d": 99.99968333333345,
      "v": 68
    },
    {
      "midi": 71,
      "hit": false,
      "t": 12938.420566666675,
      "d": 146.1533833333342,
      "v": 67
    },
    {
      "midi": 62,
      "hit": false,
      "t": 12942.266708333342,
      "d": 111.5381083333341,
      "v": 64
    },
    {
      "midi": 52,
      "hit": false,
      "t": 12992.266550000002,
      "d": 1246.1499000000003,
      "v": 115
    },
    {
      "midi": 59,
      "hit": false,
      "t": 13884.571416666677,
      "d": 599.9981000000007,
      "v": 49
    },
    {
      "midi": 76,
      "hit": false,
      "t": 13892.26370000001,
      "d": 115.38425000000097,
      "v": 63
    },
    {
      "midi": 50,
      "hit": false,
      "t": 13892.26370000001,
      "d": 626.921091666667,
      "v": 54
    },
    {
      "midi": 83,
      "hit": false,
      "t": 13892.26370000001,
      "d": 699.9977833333342,
      "v": 75
    },
    {
      "midi": 71,
      "hit": false,
      "t": 13899.955983333344,
      "d": 696.1516416666673,
      "v": 67
    },
    {
      "midi": 62,
      "hit": false,
      "t": 14334.569991666669,
      "d": 288.4606249999997,
      "v": 101
    },
    {
      "midi": 50,
      "hit": false,
      "t": 14707.645733333346,
      "d": 61.53826666666646,
      "v": 30
    },
    {
      "midi": 45,
      "hit": false,
      "t": 14780.722425000013,
      "d": 65.38440833333516,
      "v": 38
    },
    {
      "midi": 57,
      "hit": false,
      "t": 14784.56856666668,
      "d": 80.76897500000086,
      "v": 51
    },
    {
      "midi": 52,
      "hit": false,
      "t": 14788.414708333346,
      "d": 88.46125833333463,
      "v": 48
    },
    {
      "midi": 61,
      "hit": false,
      "t": 14803.799275000014,
      "d": 65.38440833333334,
      "v": 51
    },
    {
      "midi": 62,
      "hit": false,
      "t": 14811.491558333335,
      "d": 219.2300749999995,
      "v": 99
    },
    {
      "midi": 60,
      "hit": false,
      "t": 15076.875333333335,
      "d": 173.07637500000055,
      "v": 97
    },
    {
      "midi": 61,
      "hit": false,
      "t": 15257.64399166667,
      "d": 246.15306666666584,
      "v": 126
    },
    {
      "midi": 64,
      "hit": false,
      "t": 15596.104458333335,
      "d": 2646.1454666666687,
      "v": 110
    },
    {
      "midi": 80,
      "hit": false,
      "t": 16619.17814166668,
      "d": 76.92283333333035,
      "v": 52
    },
    {
      "midi": 88,
      "hit": false,
      "t": 16623.024283333347,
      "d": 76.92283333333035,
      "v": 32
    },
    {
      "midi": 68,
      "hit": false,
      "t": 17076.86900000001,
      "d": 103.84582500000033,
      "v": 39
    },
    {
      "midi": 80,
      "hit": false,
      "t": 17092.253566666677,
      "d": 88.46125833333281,
      "v": 36
    },
    {
      "midi": 71,
      "hit": false,
      "t": 17092.253566666677,
      "d": 103.84582500000033,
      "v": 31
    },
    {
      "midi": 76,
      "hit": false,
      "t": 17096.099708333342,
      "d": 103.84582500000033,
      "v": 33
    },
    {
      "midi": 88,
      "hit": false,
      "t": 17103.791991666676,
      "d": 96.15354166666657,
      "v": 38
    },
    {
      "midi": 57,
      "hit": false,
      "t": 17542.252141666675,
      "d": 115.38424999999552,
      "v": 40
    },
    {
      "midi": 69,
      "hit": false,
      "t": 17542.252141666675,
      "d": 115.38424999999552,
      "v": 49
    },
    {
      "midi": 45,
      "hit": false,
      "t": 17561.482850000008,
      "d": 96.15354166666293,
      "v": 45
    },
    {
      "midi": 64,
      "hit": false,
      "t": 17565.328991666673,
      "d": 65.38440833333152,
      "v": 46
    },
    {
      "midi": 61,
      "hit": false,
      "t": 17569.175133333338,
      "d": 80.76897499999905,
      "v": 50
    },
    {
      "midi": 57,
      "hit": false,
      "t": 18003.78914166667,
      "d": 115.38424999999552,
      "v": 40
    },
    {
      "midi": 69,
      "hit": false,
      "t": 18003.78914166667,
      "d": 115.38424999999552,
      "v": 49
    },
    {
      "midi": 37,
      "hit": false,
      "t": 18023.019850000004,
      "d": 96.15354166666293,
      "v": 45
    },
    {
      "midi": 64,
      "hit": false,
      "t": 18026.86599166667,
      "d": 65.38440833333152,
      "v": 46
    },
    {
      "midi": 61,
      "hit": false,
      "t": 18030.712133333334,
      "d": 80.76897499999905,
      "v": 50
    },
    {
      "midi": 65,
      "hit": false,
      "t": 18530.710550000003,
      "d": 134.61495833333174,
      "v": 123
    },
    {
      "midi": 65,
      "hit": false,
      "t": 18807.63275,
      "d": 88.46125833333281,
      "v": 108
    },
    {
      "midi": 74,
      "hit": false,
      "t": 18823.01731666667,
      "d": 157.69180833333303,
      "v": 82
    },
    {
      "midi": 65,
      "hit": false,
      "t": 18988.401408333335,
      "d": 134.61495833333174,
      "v": 112
    },
    {
      "midi": 69,
      "hit": false,
      "t": 19242.246758333335,
      "d": 111.5381083333341,
      "v": 49
    },
    {
      "midi": 65,
      "hit": false,
      "t": 19269.16975,
      "d": 465.3831416666653,
      "v": 110
    },
    {
      "midi": 74,
      "hit": false,
      "t": 19384.554000000004,
      "d": 288.4606249999997,
      "v": 68
    },
    {
      "midi": 57,
      "hit": false,
      "t": 19723.014466666667,
      "d": 96.15354166666657,
      "v": 115
    },
    {
      "midi": 57,
      "hit": false,
      "t": 19907.629266666667,
      "d": 138.46110000000044,
      "v": 101
    },
    {
      "midi": 57,
      "hit": false,
      "t": 20196.089891666667,
      "d": 392.30645000000004,
      "v": 115
    },
    {
      "midi": 69,
      "hit": false,
      "t": 20211.474458333338,
      "d": 96.15354166666657,
      "v": 47
    },
    {
      "midi": 43,
      "hit": false,
      "t": 20319.166425000003,
      "d": 65.38440833333152,
      "v": 38
    },
    {
      "midi": 59,
      "hit": false,
      "t": 20323.012566666668,
      "d": 80.76897499999905,
      "v": 51
    },
    {
      "midi": 55,
      "hit": false,
      "t": 20326.858708333333,
      "d": 88.46125833333281,
      "v": 48
    },
    {
      "midi": 65,
      "hit": false,
      "t": 20342.243275,
      "d": 65.38440833333152,
      "v": 51
    },
    {
      "midi": 59,
      "hit": false,
      "t": 20646.088466666668,
      "d": 1465.3799749999998,
      "v": 120
    },
    {
      "midi": 64,
      "hit": false,
      "t": 22192.237416666667,
      "d": 249.99920833333454,
      "v": 42
    },
    {
      "midi": 72,
      "hit": false,
      "t": 22199.9297,
      "d": 257.6914916666683,
      "v": 37
    },
    {
      "midi": 64,
      "hit": false,
      "t": 22203.77584166667,
      "d": 119.23039166666786,
      "v": 123
    },
    {
      "midi": 64,
      "hit": false,
      "t": 22484.54418333334,
      "d": 76.92283333333398,
      "v": 108
    },
    {
      "midi": 65,
      "hit": false,
      "t": 22634.543708333335,
      "d": 273.0760583333322,
      "v": 59
    },
    {
      "midi": 72,
      "hit": false,
      "t": 22634.543708333335,
      "d": 284.614483333331,
      "v": 62
    },
    {
      "midi": 64,
      "hit": false,
      "t": 22669.15898333334,
      "d": 119.23039166666786,
      "v": 117
    },
    {
      "midi": 64,
      "hit": false,
      "t": 22946.08118333334,
      "d": 453.8447166666665,
      "v": 110
    },
    {
      "midi": 55,
      "hit": false,
      "t": 22961.46575,
      "d": 107.6919666666654,
      "v": 60
    },
    {
      "midi": 72,
      "hit": false,
      "t": 23088.388424999997,
      "d": 253.8453499999996,
      "v": 50
    },
    {
      "midi": 66,
      "hit": false,
      "t": 23096.08070833333,
      "d": 257.69149166666466,
      "v": 65
    },
    {
      "midi": 60,
      "hit": false,
      "t": 23411.464325000004,
      "d": 465.3831416666653,
      "v": 115
    },
    {
      "midi": 67,
      "hit": false,
      "t": 23430.69503333333,
      "d": 103.84582500000033,
      "v": 65
    },
    {
      "midi": 72,
      "hit": false,
      "t": 23430.69503333333,
      "d": 115.38424999999916,
      "v": 51
    },
    {
      "midi": 65,
      "hit": false,
      "t": 23869.155183333336,
      "d": 523.0752666666667,
      "v": 110
    },
    {
      "midi": 52,
      "hit": false,
      "t": 24003.77014166666,
      "d": 115.38424999999552,
      "v": 40
    },
    {
      "midi": 64,
      "hit": false,
      "t": 24003.77014166666,
      "d": 115.38424999999552,
      "v": 49
    },
    {
      "midi": 41,
      "hit": false,
      "t": 24023.000849999993,
      "d": 96.15354166666293,
      "v": 45
    },
    {
      "midi": 57,
      "hit": false,
      "t": 24026.846991666658,
      "d": 65.38440833333152,
      "v": 46
    },
    {
      "midi": 53,
      "hit": false,
      "t": 24030.693133333323,
      "d": 80.76897499999905,
      "v": 50
    },
    {
      "midi": 64,
      "hit": false,
      "t": 24346.076750000004,
      "d": 507.6906999999992,
      "v": 117
    },
    {
      "midi": 62,
      "hit": false,
      "t": 24815.306033333338,
      "d": 488.4599916666666,
      "v": 120
    },
    {
      "midi": 76,
      "hit": false,
      "t": 24938.382566666656,
      "d": 61.53826666666646,
      "v": 72
    },
    {
      "midi": 79,
      "hit": false,
      "t": 24938.382566666656,
      "d": 84.61511666666775,
      "v": 73
    },
    {
      "midi": 72,
      "hit": false,
      "t": 24953.767133333324,
      "d": 46.153699999998935,
      "v": 73
    },
    {
      "midi": 84,
      "hit": false,
      "t": 24953.767133333324,
      "d": 61.53826666666646,
      "v": 75
    },
    {
      "midi": 69,
      "hit": false,
      "t": 24957.61327499999,
      "d": 65.38440833333516,
      "v": 54
    },
    {
      "midi": 60,
      "hit": false,
      "t": 25288.381458333337,
      "d": 615.3826666666682,
      "v": 117
    },
    {
      "midi": 63,
      "hit": false,
      "t": 25880.68727499999,
      "d": 84.61511666666775,
      "v": 45
    },
    {
      "midi": 61,
      "hit": false,
      "t": 25888.379558333323,
      "d": 134.61495833333538,
      "v": 68
    },
    {
      "midi": 65,
      "hit": false,
      "t": 25888.379558333323,
      "d": 249.99920833333454,
      "v": 63
    },
    {
      "midi": 62,
      "hit": false,
      "t": 25896.07184166667,
      "d": 119.23039166666786,
      "v": 117
    },
    {
      "midi": 62,
      "hit": false,
      "t": 25965.302391666657,
      "d": 188.46094166666808,
      "v": 54
    },
    {
      "midi": 62,
      "hit": false,
      "t": 26169.147900000007,
      "d": 69.23055000000022,
      "v": 99
    },
    {
      "midi": 41,
      "hit": false,
      "t": 26211.455458333327,
      "d": 1480.7645416666674,
      "v": 53
    },
    {
      "midi": 62,
      "hit": false,
      "t": 26338.37813333334,
      "d": 126.92267500000162,
      "v": 110
    },
    {
      "midi": 62,
      "hit": false,
      "t": 26634.531041666673,
      "d": 434.6140083333339,
      "v": 110
    },
    {
      "midi": 53,
      "hit": false,
      "t": 27107.60646666667,
      "d": 246.15306666666584,
      "v": 120
    },
    {
      "midi": 52,
      "hit": false,
      "t": 27557.60504166667,
      "d": 1584.6103666666677,
      "v": 117
    },
    {
      "midi": 90,
      "hit": false,
      "t": 27715.296849999995,
      "d": 242.30692499999714,
      "v": 45
    },
    {
      "midi": 78,
      "hit": false,
      "t": 27719.14299166666,
      "d": 142.3072416666655,
      "v": 35
    },
    {
      "midi": 57,
      "hit": false,
      "t": 27719.14299166666,
      "d": 223.07621666666455,
      "v": 32
    },
    {
      "midi": 84,
      "hit": false,
      "t": 27722.989133333325,
      "d": 80.76897499999905,
      "v": 31
    },
    {
      "midi": 50,
      "hit": false,
      "t": 27726.83527499999,
      "d": 215.38393333333443,
      "v": 52
    },
    {
      "midi": 85,
      "hit": false,
      "t": 27834.52724166666,
      "d": 161.5379499999981,
      "v": 55
    },
    {
      "midi": 90,
      "hit": false,
      "t": 28053.75731666666,
      "d": 146.15338333333057,
      "v": 55
    },
    {
      "midi": 85,
      "hit": false,
      "t": 28065.295741666658,
      "d": 84.61511666666411,
      "v": 74
    },
    {
      "midi": 78,
      "hit": false,
      "t": 28069.141883333323,
      "d": 99.99968333333163,
      "v": 55
    },
    {
      "midi": 57,
      "hit": false,
      "t": 28069.141883333323,
      "d": 107.6919666666654,
      "v": 59
    },
    {
      "midi": 50,
      "hit": false,
      "t": 28076.834166666657,
      "d": 99.99968333333163,
      "v": 60
    },
    {
      "midi": 76,
      "hit": false,
      "t": 28619.140141666656,
      "d": 76.92283333333035,
      "v": 52
    },
    {
      "midi": 83,
      "hit": false,
      "t": 28622.98628333332,
      "d": 76.92283333333035,
      "v": 32
    },
    {
      "midi": 64,
      "hit": false,
      "t": 29076.830999999984,
      "d": 103.84582500000033,
      "v": 39
    },
    {
      "midi": 74,
      "hit": false,
      "t": 29092.21556666665,
      "d": 88.46125833333281,
      "v": 36
    },
    {
      "midi": 68,
      "hit": false,
      "t": 29092.21556666665,
      "d": 103.84582500000033,
      "v": 31
    },
    {
      "midi": 71,
      "hit": false,
      "t": 29096.061708333316,
      "d": 103.84582500000033,
      "v": 33
    },
    {
      "midi": 83,
      "hit": false,
      "t": 29103.75399166665,
      "d": 96.15354166666657,
      "v": 38
    },
    {
      "midi": 76,
      "hit": false,
      "t": 29111.446274999984,
      "d": 88.46125833333281,
      "v": 39
    },
    {
      "midi": 62,
      "hit": false,
      "t": 29422.983750000003,
      "d": 76.92283333333398,
      "v": 110
    },
    {
      "midi": 62,
      "hit": false,
      "t": 29599.90626666667,
      "d": 173.07637500000055,
      "v": 101
    },
    {
      "midi": 61,
      "hit": false,
      "t": 29888.36689166667,
      "d": 92.30740000000151,
      "v": 117
    },
    {
      "midi": 81,
      "hit": false,
      "t": 29899.90531666665,
      "d": 157.69180833333303,
      "v": 82
    },
    {
      "midi": 64,
      "hit": false,
      "t": 30076.827833333336,
      "d": 2965.3752250000034,
      "v": 110
    },
    {
      "midi": 73,
      "hit": false,
      "t": 30319.134758333315,
      "d": 111.5381083333341,
      "v": 49
    },
    {
      "midi": 81,
      "hit": false,
      "t": 30461.441999999985,
      "d": 288.4606249999997,
      "v": 68
    },
    {
      "midi": 73,
      "hit": false,
      "t": 31288.36245833332,
      "d": 96.15354166666657,
      "v": 47
    },
    {
      "midi": 45,
      "hit": false,
      "t": 31765.284024999986,
      "d": 34.61527500000011,
      "v": 43
    },
    {
      "midi": 71,
      "hit": false,
      "t": 31884.514416666654,
      "d": 69.23055000000022,
      "v": 55
    },
    {
      "midi": 76,
      "hit": false,
      "t": 31965.283391666653,
      "d": 207.69165000000066,
      "v": 52
    },
    {
      "midi": 71,
      "hit": false,
      "t": 32069.129216666654,
      "d": 142.30724166666914,
      "v": 43
    },
    {
      "midi": 64,
      "hit": false,
      "t": 32196.051891666655,
      "d": 111.5381083333341,
      "v": 55
    },
    {
      "midi": 57,
      "hit": false,
      "t": 32311.436141666654,
      "d": 115.38424999999552,
      "v": 40
    },
    {
      "midi": 69,
      "hit": false,
      "t": 32311.436141666654,
      "d": 115.38424999999552,
      "v": 49
    },
    {
      "midi": 45,
      "hit": false,
      "t": 32330.666849999987,
      "d": 96.15354166666293,
      "v": 45
    },
    {
      "midi": 64,
      "hit": false,
      "t": 32334.512991666652,
      "d": 65.38440833333152,
      "v": 46
    },
    {
      "midi": 61,
      "hit": false,
      "t": 32338.359133333317,
      "d": 80.76897499999905,
      "v": 50
    },
    {
      "midi": 57,
      "hit": false,
      "t": 32772.97314166665,
      "d": 115.38425000001007,
      "v": 40
    },
    {
      "midi": 69,
      "hit": false,
      "t": 32772.97314166665,
      "d": 115.38425000001007,
      "v": 49
    },
    {
      "midi": 37,
      "hit": false,
      "t": 32792.20384999998,
      "d": 96.15354166667385,
      "v": 45
    },
    {
      "midi": 64,
      "hit": false,
      "t": 32796.04999166665,
      "d": 65.3844083333388,
      "v": 46
    },
    {
      "midi": 61,
      "hit": false,
      "t": 32799.89613333332,
      "d": 80.76897500000632,
      "v": 50
    },
    {
      "midi": 65,
      "hit": false,
      "t": 33288.356125000006,
      "d": 130.76881666666304,
      "v": 115
    },
    {
      "midi": 77,
      "hit": false,
      "t": 33565.27832499999,
      "d": 146.15338333333057,
      "v": 76
    },
    {
      "midi": 81,
      "hit": false,
      "t": 33565.27832499999,
      "d": 161.5379499999981,
      "v": 64
    },
    {
      "midi": 65,
      "hit": false,
      "t": 33576.816750000005,
      "d": 73.07669166666892,
      "v": 95
    },
    {
      "midi": 76,
      "hit": false,
      "t": 33734.50855833332,
      "d": 138.46110000000044,
      "v": 44
    },
    {
      "midi": 80,
      "hit": false,
      "t": 33734.50855833332,
      "d": 146.15338333333057,
      "v": 50
    },
    {
      "midi": 65,
      "hit": false,
      "t": 33761.43155000001,
      "d": 146.15338333333057,
      "v": 110
    },
    {
      "midi": 77,
      "hit": false,
      "t": 34026.81532499998,
      "d": 138.46110000000044,
      "v": 83
    },
    {
      "midi": 81,
      "hit": false,
      "t": 34026.81532499998,
      "d": 161.5379499999981,
      "v": 64
    },
    {
      "midi": 65,
      "hit": false,
      "t": 34049.89217500001,
      "d": 607.6903833333345,
      "v": 112
    },
    {
      "midi": 76,
      "hit": false,
      "t": 34180.66099166665,
      "d": 307.6913333333214,
      "v": 50
    },
    {
      "midi": 80,
      "hit": false,
      "t": 34196.04555833331,
      "d": 269.2299166666635,
      "v": 71
    },
    {
      "midi": 77,
      "hit": false,
      "t": 34488.35232499997,
      "d": 138.46110000000044,
      "v": 85
    },
    {
      "midi": 81,
      "hit": false,
      "t": 34488.35232499997,
      "d": 161.5379499999981,
      "v": 66
    },
    {
      "midi": 57,
      "hit": false,
      "t": 34672.96712500001,
      "d": 146.15338333333057,
      "v": 112
    },
    {
      "midi": 77,
      "hit": false,
      "t": 34934.5047583333,
      "d": 130.76881666667032,
      "v": 80
    },
    {
      "midi": 81,
      "hit": false,
      "t": 34934.5047583333,
      "d": 142.30724166666914,
      "v": 61
    },
    {
      "midi": 57,
      "hit": false,
      "t": 34976.81231666668,
      "d": 392.3064500000037,
      "v": 120
    },
    {
      "midi": 76,
      "hit": false,
      "t": 35107.581133333304,
      "d": 123.07653333333292,
      "v": 69
    },
    {
      "midi": 43,
      "hit": false,
      "t": 35122.96569999997,
      "d": 1703.840758333332,
      "v": 36
    },
    {
      "midi": 83,
      "hit": false,
      "t": 35126.81184166664,
      "d": 1638.456349999993,
      "v": 51
    },
    {
      "midi": 65,
      "hit": false,
      "t": 35126.81184166664,
      "d": 1796.1481583333298,
      "v": 37
    },
    {
      "midi": 77,
      "hit": false,
      "t": 35253.734516666635,
      "d": 1530.764383333335,
      "v": 44
    },
    {
      "midi": 59,
      "hit": false,
      "t": 35411.426325000015,
      "d": 1415.3801333333322,
      "v": 120
    },
    {
      "midi": 55,
      "hit": false,
      "t": 36761.422050000016,
      "d": 115.38424999999552,
      "v": 52
    },
    {
      "midi": 64,
      "hit": false,
      "t": 36953.72913333334,
      "d": 161.5379499999981,
      "v": 115
    },
    {
      "midi": 64,
      "hit": false,
      "t": 37253.72818333334,
      "d": 69.23055000000022,
      "v": 103
    },
    {
      "midi": 80,
      "hit": false,
      "t": 37280.65117499997,
      "d": 88.46125833333645,
      "v": 104
    },
    {
      "midi": 64,
      "hit": false,
      "t": 37422.958416666675,
      "d": 142.30724166666914,
      "v": 105
    },
    {
      "midi": 81,
      "hit": false,
      "t": 37438.34298333331,
      "d": 130.76881666666304,
      "v": 73
    },
    {
      "midi": 64,
      "hit": false,
      "t": 37711.419041666675,
      "d": 449.9985749999978,
      "v": 108
    },
    {
      "midi": 75,
      "hit": false,
      "t": 37757.572741666634,
      "d": 65.38440833333152,
      "v": 70
    },
    {
      "midi": 69,
      "hit": false,
      "t": 37892.187699999966,
      "d": 123.07653333333292,
      "v": 49
    },
    {
      "midi": 60,
      "hit": false,
      "t": 38188.34060833334,
      "d": 438.460149999999,
      "v": 112
    },
    {
      "midi": 63,
      "hit": false,
      "t": 38215.26359999996,
      "d": 96.15354166666657,
      "v": 89
    },
    {
      "midi": 57,
      "hit": false,
      "t": 38338.340133333295,
      "d": 284.614483333331,
      "v": 52
    },
    {
      "midi": 65,
      "hit": false,
      "t": 38634.49304166667,
      "d": 469.229283333334,
      "v": 115
    },
    {
      "midi": 41,
      "hit": false,
      "t": 38780.64642499996,
      "d": 65.3844083333388,
      "v": 38
    },
    {
      "midi": 57,
      "hit": false,
      "t": 38784.49256666663,
      "d": 80.76897500000632,
      "v": 51
    },
    {
      "midi": 53,
      "hit": false,
      "t": 38788.3387083333,
      "d": 88.46125833333645,
      "v": 48
    },
    {
      "midi": 64,
      "hit": false,
      "t": 38803.72327499997,
      "d": 65.3844083333388,
      "v": 51
    },
    {
      "midi": 64,
      "hit": false,
      "t": 39115.26075,
      "d": 496.1522750000004,
      "v": 115
    },
    {
      "midi": 62,
      "hit": false,
      "t": 39572.95160833334,
      "d": 476.9215666666714,
      "v": 115
    },
    {
      "midi": 60,
      "hit": false,
      "t": 40030.64246666667,
      "d": 676.9209333333347,
      "v": 112
    },
    {
      "midi": 46,
      "hit": false,
      "t": 40626.79442499997,
      "d": 103.84582500000397,
      "v": 59
    },
    {
      "midi": 65,
      "hit": false,
      "t": 40630.64056666664,
      "d": 99.99968333333527,
      "v": 68
    },
    {
      "midi": 74,
      "hit": false,
      "t": 40630.64056666664,
      "d": 146.15338333333784,
      "v": 67
    },
    {
      "midi": 62,
      "hit": false,
      "t": 40634.48670833331,
      "d": 111.5381083333341,
      "v": 64
    },
    {
      "midi": 62,
      "hit": false,
      "t": 40657.56355833334,
      "d": 115.38424999999552,
      "v": 117
    },
    {
      "midi": 62,
      "hit": false,
      "t": 40957.56260833334,
      "d": 61.5382666666701,
      "v": 92
    },
    {
      "midi": 62,
      "hit": false,
      "t": 41119.100558333346,
      "d": 123.07653333333292,
      "v": 108
    },
    {
      "midi": 62,
      "hit": false,
      "t": 41422.94575000001,
      "d": 465.3831416666653,
      "v": 105
    },
    {
      "midi": 62,
      "hit": false,
      "t": 41576.791416666645,
      "d": 599.9980999999898,
      "v": 49
    },
    {
      "midi": 77,
      "hit": false,
      "t": 41584.483699999975,
      "d": 115.38424999999552,
      "v": 63
    },
    {
      "midi": 50,
      "hit": false,
      "t": 41584.483699999975,
      "d": 626.9210916666561,
      "v": 54
    },
    {
      "midi": 86,
      "hit": false,
      "t": 41584.483699999975,
      "d": 699.9977833333251,
      "v": 75
    },
    {
      "midi": 74,
      "hit": false,
      "t": 41592.175983333305,
      "d": 696.1516416666636,
      "v": 67
    },
    {
      "midi": 53,
      "hit": false,
      "t": 41911.40574166668,
      "d": 261.53763333333336,
      "v": 117
    },
    {
      "midi": 52,
      "hit": false,
      "t": 42372.94274166667,
      "d": 1434.6108416666684,
      "v": 115
    },
    {
      "midi": 50,
      "hit": false,
      "t": 42399.8657333333,
      "d": 61.5382666666701,
      "v": 30
    },
    {
      "midi": 78,
      "hit": false,
      "t": 42476.78856666664,
      "d": 257.69149166666466,
      "v": 87
    },
    {
      "midi": 74,
      "hit": false,
      "t": 42476.78856666664,
      "d": 261.53763333333336,
      "v": 90
    },
    {
      "midi": 47,
      "hit": false,
      "t": 42484.48084999997,
      "d": 223.0762166666682,
      "v": 74
    },
    {
      "midi": 74,
      "hit": false,
      "t": 42826.78745833331,
      "d": 53.8459833333327,
      "v": 43
    },
    {
      "midi": 78,
      "hit": false,
      "t": 42838.32588333331,
      "d": 61.5382666666701,
      "v": 43
    },
    {
      "midi": 47,
      "hit": false,
      "t": 42838.32588333331,
      "d": 69.23055000000022,
      "v": 42
    },
    {
      "midi": 40,
      "hit": false,
      "t": 43765.24602499998,
      "d": 34.61527499999647,
      "v": 43
    },
    {
      "midi": 68,
      "hit": false,
      "t": 43884.47641666664,
      "d": 69.23055000000022,
      "v": 55
    },
    {
      "midi": 74,
      "hit": false,
      "t": 43965.24539166664,
      "d": 207.6916499999934,
      "v": 52
    },
    {
      "midi": 68,
      "hit": false,
      "t": 44069.09121666664,
      "d": 142.30724166666187,
      "v": 43
    },
    {
      "midi": 62,
      "hit": false,
      "t": 44196.01389166663,
      "d": 111.5381083333341,
      "v": 55
    },
    {
      "midi": 62,
      "hit": false,
      "t": 44207.552316666675,
      "d": 73.07669166666892,
      "v": 112
    },
    {
      "midi": 72,
      "hit": false,
      "t": 44338.3211333333,
      "d": 123.07653333333292,
      "v": 69
    },
    {
      "midi": 45,
      "hit": false,
      "t": 44353.70569999997,
      "d": 1703.840758333332,
      "v": 36
    },
    {
      "midi": 81,
      "hit": false,
      "t": 44357.55184166664,
      "d": 1638.456349999993,
      "v": 51
    },
    {
      "midi": 61,
      "hit": false,
      "t": 44357.55184166664,
      "d": 1796.1481583333298,
      "v": 37
    },
    {
      "midi": 62,
      "hit": false,
      "t": 44369.09026666668,
      "d": 173.07637499999691,
      "v": 103
    },
    {
      "midi": 73,
      "hit": false,
      "t": 44484.47451666663,
      "d": 1530.764383333335,
      "v": 44
    },
    {
      "midi": 61,
      "hit": false,
      "t": 44669.08931666668,
      "d": 138.46110000000044,
      "v": 99
    },
    {
      "midi": 64,
      "hit": false,
      "t": 44846.011833333345,
      "d": 2838.452550000002,
      "v": 108
    },
    {
      "midi": 71,
      "hit": false,
      "t": 46176.776849999966,
      "d": 242.30692499999714,
      "v": 52
    },
    {
      "midi": 59,
      "hit": false,
      "t": 46530.6218833333,
      "d": 499.9984166666691,
      "v": 56
    },
    {
      "midi": 57,
      "hit": false,
      "t": 47080.62014166663,
      "d": 115.38425000001007,
      "v": 40
    },
    {
      "midi": 69,
      "hit": false,
      "t": 47080.62014166663,
      "d": 115.38425000001007,
      "v": 49
    },
    {
      "midi": 45,
      "hit": false,
      "t": 47099.850849999966,
      "d": 96.15354166667385,
      "v": 45
    },
    {
      "midi": 64,
      "hit": false,
      "t": 47103.696991666635,
      "d": 65.3844083333388,
      "v": 46
    },
    {
      "midi": 61,
      "hit": false,
      "t": 47107.5431333333,
      "d": 80.76897500000632,
      "v": 50
    },
    {
      "midi": 57,
      "hit": false,
      "t": 47542.15714166664,
      "d": 115.38425000001007,
      "v": 40
    },
    {
      "midi": 69,
      "hit": false,
      "t": 47542.15714166664,
      "d": 115.38425000001007,
      "v": 49
    },
    {
      "midi": 37,
      "hit": false,
      "t": 47561.38784999998,
      "d": 96.15354166667385,
      "v": 45
    },
    {
      "midi": 64,
      "hit": false,
      "t": 47565.233991666646,
      "d": 65.3844083333388,
      "v": 46
    },
    {
      "midi": 61,
      "hit": false,
      "t": 47569.080133333315,
      "d": 80.76897500000632,
      "v": 50
    },
    {
      "midi": 93,
      "hit": false,
      "t": 48022.92484999998,
      "d": 242.3069250000044,
      "v": 45
    },
    {
      "midi": 81,
      "hit": false,
      "t": 48026.77099166665,
      "d": 142.30724166666914,
      "v": 35
    },
    {
      "midi": 61,
      "hit": false,
      "t": 48026.77099166665,
      "d": 223.0762166666682,
      "v": 32
    },
    {
      "midi": 87,
      "hit": false,
      "t": 48030.61713333332,
      "d": 80.76897499999905,
      "v": 36
    },
    {
      "midi": 54,
      "hit": false,
      "t": 48034.46327499999,
      "d": 215.3839333333308,
      "v": 52
    },
    {
      "midi": 69,
      "hit": false,
      "t": 48057.540125000014,
      "d": 142.30724166666914,
      "v": 126
    },
    {
      "midi": 88,
      "hit": false,
      "t": 48142.15524166665,
      "d": 161.5379499999981,
      "v": 46
    },
    {
      "midi": 69,
      "hit": false,
      "t": 48346.000750000014,
      "d": 84.61511666666775,
      "v": 115
    },
    {
      "midi": 93,
      "hit": false,
      "t": 48361.38531666665,
      "d": 146.15338333333057,
      "v": 55
    },
    {
      "midi": 88,
      "hit": false,
      "t": 48372.92374166665,
      "d": 84.61511666666775,
      "v": 74
    },
    {
      "midi": 81,
      "hit": false,
      "t": 48376.76988333332,
      "d": 99.99968333333527,
      "v": 55
    },
    {
      "midi": 61,
      "hit": false,
      "t": 48376.76988333332,
      "d": 107.6919666666654,
      "v": 59
    },
    {
      "midi": 54,
      "hit": false,
      "t": 48384.46216666665,
      "d": 99.99968333333527,
      "v": 60
    },
    {
      "midi": 69,
      "hit": false,
      "t": 48526.76940833335,
      "d": 115.3842500000028,
      "v": 115
    },
    {
      "midi": 69,
      "hit": false,
      "t": 48795.99932500002,
      "d": 261.53763333333336,
      "v": 108
    },
    {
      "midi": 69,
      "hit": false,
      "t": 49238.30561666669,
      "d": 76.92283333333035,
      "v": 103
    },
    {
      "midi": 69,
      "hit": false,
      "t": 49419.07427500001,
      "d": 107.6919666666654,
      "v": 112
    },
    {
      "midi": 69,
      "hit": false,
      "t": 49703.688758333345,
      "d": 76.92283333333035,
      "v": 112
    },
    {
      "midi": 69,
      "hit": false,
      "t": 49888.30355833334,
      "d": 446.1524333333364,
      "v": 115
    },
    {
      "midi": 76,
      "hit": false,
      "t": 50207.53331666665,
      "d": 157.69180833333667,
      "v": 82
    },
    {
      "midi": 68,
      "hit": false,
      "t": 50349.840558333344,
      "d": 326.9220416666649,
      "v": 115
    },
    {
      "midi": 69,
      "hit": false,
      "t": 50353.68670000001,
      "d": 49.999841666664,
      "v": 68
    },
    {
      "midi": 71,
      "hit": false,
      "t": 50626.76275833332,
      "d": 111.5381083333341,
      "v": 49
    },
    {
      "midi": 76,
      "hit": false,
      "t": 50769.06999999999,
      "d": 288.4606249999997,
      "v": 68
    },
    {
      "midi": 68,
      "hit": false,
      "t": 50811.37755833334,
      "d": 423.07558333333145,
      "v": 120
    },
    {
      "midi": 66,
      "hit": false,
      "t": 51276.760700000006,
      "d": 430.76786666666885,
      "v": 117
    },
    {
      "midi": 71,
      "hit": false,
      "t": 51595.99045833333,
      "d": 96.15354166666657,
      "v": 47
    },
    {
      "midi": 64,
      "hit": false,
      "t": 51719.066991666674,
      "d": 746.1514833333349,
      "v": 117
    },
    {
      "midi": 81,
      "hit": false,
      "t": 52053.68131666666,
      "d": 157.69180833333667,
      "v": 82
    },
    {
      "midi": 61,
      "hit": false,
      "t": 52480.603041666676,
      "d": 2534.6073583333346,
      "v": 123
    },
    {
      "midi": 76,
      "hit": false,
      "t": 52503.67989166667,
      "d": 111.5381083333341,
      "v": 49
    },
    {
      "midi": 81,
      "hit": false,
      "t": 52634.44870833334,
      "d": 288.4606249999997,
      "v": 68
    },
    {
      "midi": 76,
      "hit": false,
      "t": 53442.138458333335,
      "d": 123.07653333333292,
      "v": 47
    },
    {
      "midi": 81,
      "hit": false,
      "t": 53565.21499166667,
      "d": 273.0760583333322,
      "v": 76
    },
    {
      "midi": 81,
      "hit": false,
      "t": 54022.90585,
      "d": 307.69133333333593,
      "v": 65
    },
    {
      "midi": 81,
      "hit": false,
      "t": 54488.288991666675,
      "d": 234.614641666667,
      "v": 72
    },
    {
      "midi": 76,
      "hit": false,
      "t": 54807.51875000001,
      "d": 130.76881666667032,
      "v": 64
    },
    {
      "midi": 73,
      "hit": false,
      "t": 54945.97985000001,
      "d": 234.614641666667,
      "v": 49
    },
    {
      "midi": 61,
      "hit": false,
      "t": 55222.90205000001,
      "d": 92.30739999999787,
      "v": 126
    },
    {
      "midi": 69,
      "hit": false,
      "t": 55253.67118333335,
      "d": 130.76881666667032,
      "v": 76
    },
    {
      "midi": 82,
      "hit": false,
      "t": 55388.286141666686,
      "d": 65.38440833333152,
      "v": 42
    },
    {
      "midi": 61,
      "hit": false,
      "t": 55411.362991666676,
      "d": 226.9223583333369,
      "v": 115
    },
    {
      "midi": 83,
      "hit": false,
      "t": 55411.36299166668,
      "d": 261.53763333333336,
      "v": 53
    },
    {
      "midi": 62,
      "hit": false,
      "t": 55703.669758333344,
      "d": 334.6143250000023,
      "v": 103
    },
    {
      "midi": 86,
      "hit": false,
      "t": 55730.59275000002,
      "d": 99.99968333333527,
      "v": 51
    },
    {
      "midi": 90,
      "hit": false,
      "t": 55849.82314166669,
      "d": 253.84535000000324,
      "v": 54
    },
    {
      "midi": 62,
      "hit": false,
      "t": 56138.28376666668,
      "d": 1953.8399666666664,
      "v": 112
    },
    {
      "midi": 89,
      "hit": false,
      "t": 56172.89904166669,
      "d": 115.38424999999552,
      "v": 43
    },
    {
      "midi": 83,
      "hit": false,
      "t": 56172.89904166669,
      "d": 896.1510083333269,
      "v": 49
    },
    {
      "midi": 57,
      "hit": false,
      "t": 56180.59132500002,
      "d": 773.0744750000013,
      "v": 26
    },
    {
      "midi": 62,
      "hit": false,
      "t": 56180.59132500002,
      "d": 876.920299999998,
      "v": 54
    },
    {
      "midi": 95,
      "hit": false,
      "t": 56180.59132500002,
      "d": 915.3817166666631,
      "v": 68
    },
    {
      "midi": 90,
      "hit": false,
      "t": 56319.05242500002,
      "d": 784.6128999999928,
      "v": 72
    },
    {
      "midi": 57,
      "hit": false,
      "t": 58476.737900000015,
      "d": 249.99920833333454,
      "v": 115
    },
    {
      "midi": 59,
      "hit": false,
      "t": 58653.66041666668,
      "d": 280.7683416666696,
      "v": 108
    },
    {
      "midi": 61,
      "hit": false,
      "t": 58949.81332500002,
      "d": 3299.9895499999984,
      "v": 112
    },
    {
      "midi": 76,
      "hit": false,
      "t": 59099.81285000002,
      "d": 242.30692499999714,
      "v": 52
    },
    {
      "midi": 64,
      "hit": false,
      "t": 59453.65788333335,
      "d": 499.9984166666691,
      "v": 56
    },
    {
      "midi": 75,
      "hit": false,
      "t": 60026.732991666686,
      "d": 99.99968333333527,
      "v": 75
    },
    {
      "midi": 84,
      "hit": false,
      "t": 60026.732991666686,
      "d": 196.15322500000184,
      "v": 79
    },
    {
      "midi": 78,
      "hit": false,
      "t": 60053.65598333335,
      "d": 99.99968333333527,
      "v": 20
    },
    {
      "midi": 78,
      "hit": false,
      "t": 60319.039758333354,
      "d": 53.8459833333327,
      "v": 39
    },
    {
      "midi": 75,
      "hit": false,
      "t": 60372.88574166669,
      "d": 38.46141666666517,
      "v": 59
    },
    {
      "midi": 74,
      "hit": false,
      "t": 60492.11613333335,
      "d": 269.22991666667076,
      "v": 63
    },
    {
      "midi": 83,
      "hit": false,
      "t": 60495.96227500002,
      "d": 238.4607833333357,
      "v": 62
    },
    {
      "midi": 77,
      "hit": false,
      "t": 60495.96227500002,
      "d": 253.84535000000324,
      "v": 69
    },
    {
      "midi": 64,
      "hit": false,
      "t": 60853.65345000002,
      "d": 49.999841666664,
      "v": 44
    },
    {
      "midi": 72,
      "hit": false,
      "t": 60953.65313333335,
      "d": 123.07653333333292,
      "v": 69
    },
    {
      "midi": 49,
      "hit": false,
      "t": 60969.037700000015,
      "d": 1703.840758333332,
      "v": 36
    },
    {
      "midi": 81,
      "hit": false,
      "t": 60972.883841666684,
      "d": 1638.456349999993,
      "v": 51
    },
    {
      "midi": 61,
      "hit": false,
      "t": 60972.883841666684,
      "d": 1796.1481583333298,
      "v": 37
    },
    {
      "midi": 73,
      "hit": false,
      "t": 61099.80651666668,
      "d": 1530.764383333335,
      "v": 44
    },
    {
      "midi": 69,
      "hit": false,
      "t": 62822.87798333335,
      "d": 119.23039166666422,
      "v": 117
    },
    {
      "midi": 69,
      "hit": false,
      "t": 63092.10790000001,
      "d": 73.07669166666892,
      "v": 105
    },
    {
      "midi": 88,
      "hit": false,
      "t": 63126.723175000014,
      "d": 119.23039166666422,
      "v": 76
    },
    {
      "midi": 81,
      "hit": false,
      "t": 63265.184275000014,
      "d": 173.07637499999691,
      "v": 26
    },
    {
      "midi": 69,
      "hit": false,
      "t": 63269.030416666676,
      "d": 115.3842500000028,
      "v": 108
    },
    {
      "midi": 69,
      "hit": false,
      "t": 63561.337183333344,
      "d": 319.22975833333476,
      "v": 115
    },
    {
      "midi": 69,
      "hit": false,
      "t": 63722.87513333334,
      "d": 99.99968333333527,
      "v": 56
    },
    {
      "midi": 78,
      "hit": false,
      "t": 63734.41355833334,
      "d": 73.07669166666892,
      "v": 67
    },
    {
      "midi": 73,
      "hit": false,
      "t": 63734.41355833334,
      "d": 99.99968333333527,
      "v": 58
    },
    {
      "midi": 88,
      "hit": false,
      "t": 63734.41355833334,
      "d": 111.5381083333341,
      "v": 63
    },
    {
      "midi": 69,
      "hit": false,
      "t": 64034.41260833335,
      "d": 69.23055000000022,
      "v": 112
    },
    {
      "midi": 69,
      "hit": false,
      "t": 64207.488983333344,
      "d": 107.6919666666654,
      "v": 110
    },
    {
      "midi": 69,
      "hit": false,
      "t": 64488.257325000006,
      "d": 69.23055000000022,
      "v": 112
    },
    {
      "midi": 75,
      "hit": false,
      "t": 64645.94913333334,
      "d": 123.07653333333292,
      "v": 69
    },
    {
      "midi": 38,
      "hit": false,
      "t": 64661.33370000001,
      "d": 1703.8407583333246,
      "v": 36
    },
    {
      "midi": 83,
      "hit": false,
      "t": 64665.17984166668,
      "d": 1638.4563500000004,
      "v": 51
    },
    {
      "midi": 64,
      "hit": false,
      "t": 64665.17984166668,
      "d": 1796.1481583333298,
      "v": 37
    },
    {
      "midi": 69,
      "hit": false,
      "t": 64672.87212500001,
      "d": 411.5371583333326,
      "v": 112
    },
    {
      "midi": 76,
      "hit": false,
      "t": 64792.10251666667,
      "d": 1530.764383333335,
      "v": 44
    },
    {
      "midi": 68,
      "hit": false,
      "t": 65126.716841666675,
      "d": 319.22975833333476,
      "v": 115
    },
    {
      "midi": 68,
      "hit": false,
      "t": 65584.40770000001,
      "d": 430.7678666666616,
      "v": 115
    },
    {
      "midi": 66,
      "hit": false,
      "t": 66042.09855833334,
      "d": 449.9985750000051,
      "v": 117
    },
    {
      "midi": 64,
      "hit": false,
      "t": 66503.63555833335,
      "d": 1453.8415499999974,
      "v": 117
    },
    {
      "midi": 73,
      "hit": false,
      "t": 66822.86531666668,
      "d": 157.6918083333294,
      "v": 82
    },
    {
      "midi": 68,
      "hit": false,
      "t": 67242.09475833335,
      "d": 111.5381083333341,
      "v": 49
    },
    {
      "midi": 73,
      "hit": false,
      "t": 67384.40200000002,
      "d": 288.460625000007,
      "v": 68
    },
    {
      "midi": 68,
      "hit": false,
      "t": 67911.32340833335,
      "d": 426.9217249999929,
      "v": 123
    },
    {
      "midi": 68,
      "hit": false,
      "t": 68211.32245833335,
      "d": 96.15354166667385,
      "v": 47
    },
    {
      "midi": 66,
      "hit": false,
      "t": 68349.78355833335,
      "d": 1311.5343083333282,
      "v": 120
    },
    {
      "midi": 42,
      "hit": false,
      "t": 68688.24402500002,
      "d": 34.61527500000375,
      "v": 43
    },
    {
      "midi": 71,
      "hit": false,
      "t": 68807.4744166667,
      "d": 69.23054999999295,
      "v": 55
    },
    {
      "midi": 76,
      "hit": false,
      "t": 68888.24339166669,
      "d": 207.6916499999934,
      "v": 52
    },
    {
      "midi": 71,
      "hit": false,
      "t": 68992.08921666669,
      "d": 142.3072416666546,
      "v": 43
    },
    {
      "midi": 64,
      "hit": false,
      "t": 69119.01189166668,
      "d": 111.5381083333341,
      "v": 55
    },
    {
      "midi": 76,
      "hit": false,
      "t": 69272.85755833334,
      "d": 242.30692499999714,
      "v": 67
    },
    {
      "midi": 42,
      "hit": false,
      "t": 69569.01046666667,
      "d": 103.8458249999967,
      "v": 50
    },
    {
      "midi": 85,
      "hit": false,
      "t": 69715.16385,
      "d": 161.5379499999981,
      "v": 67
    },
    {
      "midi": 73,
      "hit": false,
      "t": 69715.16385,
      "d": 234.61464166665974,
      "v": 63
    },
    {
      "midi": 61,
      "hit": false,
      "t": 70030.54746666669,
      "d": 1.92307083333435,
      "v": 127
    },
    {
      "midi": 62,
      "hit": false,
      "t": 70199.77770000002,
      "d": 269.2299166666635,
      "v": 110
    },
    {
      "midi": 74,
      "hit": false,
      "t": 70495.93060833332,
      "d": 153.84566666667524,
      "v": 79
    },
    {
      "midi": 78,
      "hit": false,
      "t": 70503.62289166666,
      "d": 153.84566666667524,
      "v": 70
    },
    {
      "midi": 62,
      "hit": false,
      "t": 70645.93013333336,
      "d": 153.8456666666607,
      "v": 110
    },
    {
      "midi": 74,
      "hit": false,
      "t": 70661.3147,
      "d": 184.61479999999574,
      "v": 58
    },
    {
      "midi": 77,
      "hit": false,
      "t": 70661.3147,
      "d": 192.30708333333314,
      "v": 57
    },
    {
      "midi": 74,
      "hit": false,
      "t": 70957.46760833333,
      "d": 176.92251666665834,
      "v": 72
    },
    {
      "midi": 78,
      "hit": false,
      "t": 70957.46760833333,
      "d": 184.61479999999574,
      "v": 74
    },
    {
      "midi": 62,
      "hit": false,
      "t": 70972.85217500002,
      "d": 365.38345833333733,
      "v": 105
    },
    {
      "midi": 77,
      "hit": false,
      "t": 71111.313275,
      "d": 284.6144833333383,
      "v": 42
    },
    {
      "midi": 74,
      "hit": false,
      "t": 71395.92775833333,
      "d": 196.15322500000184,
      "v": 85
    },
    {
      "midi": 78,
      "hit": false,
      "t": 71399.7739,
      "d": 192.30708333333314,
      "v": 86
    },
    {
      "midi": 64,
      "hit": false,
      "t": 71426.6968916667,
      "d": 323.0758999999962,
      "v": 120
    },
    {
      "midi": 71,
      "hit": false,
      "t": 71584.3887,
      "d": 284.6144833333383,
      "v": 64
    },
    {
      "midi": 66,
      "hit": false,
      "t": 71853.61861666669,
      "d": 1573.0719416666689,
      "v": 117
    },
    {
      "midi": 66,
      "hit": false,
      "t": 71872.849325,
      "d": 76.92283333333035,
      "v": 61
    },
    {
      "midi": 77,
      "hit": false,
      "t": 72026.69499166666,
      "d": 303.84519166666723,
      "v": 64
    },
    {
      "midi": 74,
      "hit": false,
      "t": 72034.387275,
      "d": 292.30676666666113,
      "v": 65
    },
    {
      "midi": 74,
      "hit": false,
      "t": 72330.54018333333,
      "d": 146.15338333333784,
      "v": 71
    },
    {
      "midi": 78,
      "hit": false,
      "t": 72338.23246666667,
      "d": 138.46110000000044,
      "v": 68
    },
    {
      "midi": 77,
      "hit": false,
      "t": 72503.61655833333,
      "d": 288.460625000007,
      "v": 75
    },
    {
      "midi": 74,
      "hit": false,
      "t": 72507.4627,
      "d": 276.9222000000009,
      "v": 63
    },
    {
      "midi": 74,
      "hit": false,
      "t": 72803.61560833335,
      "d": 388.46030833334953,
      "v": 77
    },
    {
      "midi": 78,
      "hit": false,
      "t": 72811.30789166669,
      "d": 369.22960000000603,
      "v": 74
    },
    {
      "midi": 61,
      "hit": false,
      "t": 73711.3050416667,
      "d": 146.15338333333784,
      "v": 126
    },
    {
      "midi": 35,
      "hit": false,
      "t": 73857.45842500003,
      "d": 65.38440833332425,
      "v": 38
    },
    {
      "midi": 57,
      "hit": false,
      "t": 73861.3045666667,
      "d": 80.7689749999845,
      "v": 51
    },
    {
      "midi": 54,
      "hit": false,
      "t": 73865.15070833337,
      "d": 88.4612583333219,
      "v": 48
    },
    {
      "midi": 62,
      "hit": false,
      "t": 73880.53527500003,
      "d": 65.38440833332425,
      "v": 51
    },
    {
      "midi": 62,
      "hit": false,
      "t": 73888.22755833337,
      "d": 311.53747500000463,
      "v": 99
    },
    {
      "midi": 62,
      "hit": false,
      "t": 74353.61070000003,
      "d": 161.5379499999981,
      "v": 105
    },
    {
      "midi": 62,
      "hit": false,
      "t": 74645.9174666667,
      "d": 465.3831416666653,
      "v": 105
    },
    {
      "midi": 64,
      "hit": false,
      "t": 75092.06990000003,
      "d": 384.6141666666663,
      "v": 123
    },
    {
      "midi": 66,
      "hit": false,
      "t": 75549.76075833336,
      "d": 557.6905416666705,
      "v": 120
    },
    {
      "midi": 61,
      "hit": false,
      "t": 76495.91160833336,
      "d": 153.8456666666607,
      "v": 115
    },
    {
      "midi": 62,
      "hit": false,
      "t": 76688.2186916667,
      "d": 269.2299166666635,
      "v": 95
    },
    {
      "midi": 61,
      "hit": false,
      "t": 76949.75632500002,
      "d": 149.99952500000654,
      "v": 112
    },
    {
      "midi": 57,
      "hit": false,
      "t": 77115.14041666669,
      "d": 146.15338333333784,
      "v": 115
    },
    {
      "midi": 57,
      "hit": false,
      "t": 77411.29332500004,
      "d": 3592.296316666674,
      "v": 110
    },
    {
      "midi": 66,
      "hit": false,
      "t": 77576.67741666669,
      "d": 249.99920833333454,
      "v": 42
    },
    {
      "midi": 74,
      "hit": false,
      "t": 77584.36970000002,
      "d": 257.6914916666574,
      "v": 37
    },
    {
      "midi": 67,
      "hit": false,
      "t": 78018.98370833336,
      "d": 273.0760583333322,
      "v": 59
    },
    {
      "midi": 74,
      "hit": false,
      "t": 78018.98370833336,
      "d": 284.6144833333383,
      "v": 62
    },
    {
      "midi": 57,
      "hit": false,
      "t": 78345.90575000002,
      "d": 107.6919666666654,
      "v": 60
    },
    {
      "midi": 74,
      "hit": false,
      "t": 78472.82842500001,
      "d": 253.84535000000324,
      "v": 50
    },
    {
      "midi": 68,
      "hit": false,
      "t": 78480.52070833335,
      "d": 257.69149166667194,
      "v": 65
    },
    {
      "midi": 69,
      "hit": false,
      "t": 78815.13503333335,
      "d": 103.8458249999967,
      "v": 65
    },
    {
      "midi": 74,
      "hit": false,
      "t": 78815.13503333335,
      "d": 115.3842500000028,
      "v": 51
    },
    {
      "midi": 76,
      "hit": false,
      "t": 79407.44085000003,
      "d": 242.30692499999714,
      "v": 52
    },
    {
      "midi": 64,
      "hit": false,
      "t": 79761.28588333336,
      "d": 499.9984166666691,
      "v": 56
    },
    {
      "midi": 49,
      "hit": false,
      "t": 80688.20602500002,
      "d": 34.61527500000375,
      "v": 43
    },
    {
      "midi": 69,
      "hit": false,
      "t": 80807.4364166667,
      "d": 69.23054999999295,
      "v": 55
    },
    {
      "midi": 73,
      "hit": false,
      "t": 80888.20539166669,
      "d": 207.6916499999934,
      "v": 52
    },
    {
      "midi": 69,
      "hit": false,
      "t": 80992.05121666669,
      "d": 142.3072416666546,
      "v": 43
    },
    {
      "midi": 61,
      "hit": false,
      "t": 81118.97389166668,
      "d": 111.5381083333341,
      "v": 55
    },
    {
      "midi": 81,
      "hit": false,
      "t": 81234.35814166669,
      "d": 76.92283333333035,
      "v": 52
    },
    {
      "midi": 86,
      "hit": false,
      "t": 81238.20428333335,
      "d": 76.92283333333035,
      "v": 32
    },
    {
      "midi": 69,
      "hit": false,
      "t": 81692.04900000001,
      "d": 103.8458249999967,
      "v": 39
    },
    {
      "midi": 77,
      "hit": false,
      "t": 81707.43356666667,
      "d": 88.46125833333645,
      "v": 36
    },
    {
      "midi": 72,
      "hit": false,
      "t": 81707.43356666667,
      "d": 103.8458249999967,
      "v": 31
    },
    {
      "midi": 74,
      "hit": false,
      "t": 81711.27970833334,
      "d": 103.8458249999967,
      "v": 33
    },
    {
      "midi": 86,
      "hit": false,
      "t": 81718.97199166668,
      "d": 96.1535416666593,
      "v": 38
    },
    {
      "midi": 81,
      "hit": false,
      "t": 81726.66427500002,
      "d": 88.4612583333219,
      "v": 39
    },
    {
      "midi": 72,
      "hit": false,
      "t": 82172.81670833334,
      "d": 223.07621666668274,
      "v": 23
    },
    {
      "midi": 69,
      "hit": false,
      "t": 82180.50899166668,
      "d": 207.69165000000794,
      "v": 30
    },
    {
      "midi": 77,
      "hit": false,
      "t": 82184.35513333335,
      "d": 223.07621666668274,
      "v": 19
    },
    {
      "midi": 74,
      "hit": false,
      "t": 82188.20127500001,
      "d": 207.69165000000794,
      "v": 19
    },
    {
      "midi": 81,
      "hit": false,
      "t": 82195.89355833335,
      "d": 211.53779166667664,
      "v": 40
    },
    {
      "midi": 86,
      "hit": false,
      "t": 82195.89355833335,
      "d": 211.53779166667664,
      "v": 23
    },
    {
      "midi": 74,
      "hit": false,
      "t": 82515.1233166667,
      "d": 73.07669166666165,
      "v": 51
    },
    {
      "midi": 69,
      "hit": false,
      "t": 82515.1233166667,
      "d": 76.92283333333035,
      "v": 51
    },
    {
      "midi": 72,
      "hit": false,
      "t": 82515.1233166667,
      "d": 76.92283333333035,
      "v": 41
    },
    {
      "midi": 77,
      "hit": false,
      "t": 82518.96945833336,
      "d": 65.38440833332425,
      "v": 47
    },
    {
      "midi": 81,
      "hit": false,
      "t": 82518.96945833336,
      "d": 88.4612583333219,
      "v": 45
    },
    {
      "midi": 86,
      "hit": false,
      "t": 82534.35402500002,
      "d": 73.07669166666165,
      "v": 26
    },
    {
      "midi": 43,
      "hit": false,
      "t": 83088.19842500002,
      "d": 65.38440833332425,
      "v": 38
    },
    {
      "midi": 59,
      "hit": false,
      "t": 83092.0445666667,
      "d": 80.7689749999845,
      "v": 51
    },
    {
      "midi": 55,
      "hit": false,
      "t": 83095.89070833336,
      "d": 88.4612583333219,
      "v": 48
    },
    {
      "midi": 65,
      "hit": false,
      "t": 83111.27527500002,
      "d": 65.38440833332425,
      "v": 51
    },
    {
      "midi": 75,
      "hit": false,
      "t": 84953.57713333335,
      "d": 123.07653333332564,
      "v": 69
    },
    {
      "midi": 48,
      "hit": false,
      "t": 84968.96170000001,
      "d": 1703.8407583333174,
      "v": 36
    },
    {
      "midi": 83,
      "hit": false,
      "t": 84972.80784166668,
      "d": 1638.456349999993,
      "v": 51
    },
    {
      "midi": 64,
      "hit": false,
      "t": 84972.80784166668,
      "d": 1796.1481583333225,
      "v": 37
    },
    {
      "midi": 76,
      "hit": false,
      "t": 85099.73051666668,
      "d": 1530.7643833333277,
      "v": 44
    },
    {
      "midi": 52,
      "hit": false,
      "t": 86772.80214166667,
      "d": 115.3842500000028,
      "v": 40
    },
    {
      "midi": 64,
      "hit": false,
      "t": 86772.80214166667,
      "d": 115.3842500000028,
      "v": 49
    },
    {
      "midi": 41,
      "hit": false,
      "t": 86792.03285,
      "d": 96.15354166667385,
      "v": 45
    },
    {
      "midi": 57,
      "hit": false,
      "t": 86795.87899166667,
      "d": 65.3844083333388,
      "v": 46
    },
    {
      "midi": 53,
      "hit": false,
      "t": 86799.72513333334,
      "d": 80.76897499999905,
      "v": 50
    },
    {
      "midi": 76,
      "hit": false,
      "t": 87707.41456666667,
      "d": 61.538266666655545,
      "v": 72
    },
    {
      "midi": 79,
      "hit": false,
      "t": 87707.41456666667,
      "d": 84.6151166666532,
      "v": 73
    },
    {
      "midi": 72,
      "hit": false,
      "t": 87722.79913333333,
      "d": 46.1536999999953,
      "v": 73
    },
    {
      "midi": 84,
      "hit": false,
      "t": 87722.79913333333,
      "d": 61.538266666655545,
      "v": 75
    },
    {
      "midi": 69,
      "hit": false,
      "t": 87726.645275,
      "d": 65.38440833332425,
      "v": 54
    },
    {
      "midi": 77,
      "hit": false,
      "t": 88618.95014166666,
      "d": 76.92283333333035,
      "v": 52
    },
    {
      "midi": 86,
      "hit": false,
      "t": 88622.79628333333,
      "d": 76.92283333333035,
      "v": 32
    },
    {
      "midi": 65,
      "hit": false,
      "t": 89076.64099999999,
      "d": 103.8458249999967,
      "v": 39
    },
    {
      "midi": 77,
      "hit": false,
      "t": 89092.02556666665,
      "d": 88.46125833333645,
      "v": 36
    },
    {
      "midi": 70,
      "hit": false,
      "t": 89092.02556666665,
      "d": 103.8458249999967,
      "v": 31
    },
    {
      "midi": 74,
      "hit": false,
      "t": 89095.87170833332,
      "d": 103.8458249999967,
      "v": 33
    },
    {
      "midi": 86,
      "hit": false,
      "t": 89103.56399166666,
      "d": 96.1535416666593,
      "v": 38
    },
    {
      "midi": 70,
      "hit": false,
      "t": 89557.40870833331,
      "d": 223.07621666668274,
      "v": 23
    },
    {
      "midi": 65,
      "hit": false,
      "t": 89565.10099166665,
      "d": 207.69165000000794,
      "v": 30
    },
    {
      "midi": 77,
      "hit": false,
      "t": 89568.94713333332,
      "d": 223.07621666668274,
      "v": 19
    },
    {
      "midi": 74,
      "hit": false,
      "t": 89572.79327499999,
      "d": 207.69165000000794,
      "v": 19
    },
    {
      "midi": 86,
      "hit": false,
      "t": 89580.48555833333,
      "d": 211.53779166667664,
      "v": 23
    },
    {
      "midi": 74,
      "hit": false,
      "t": 89899.71531666667,
      "d": 73.07669166666165,
      "v": 51
    },
    {
      "midi": 65,
      "hit": false,
      "t": 89899.71531666667,
      "d": 76.92283333333035,
      "v": 51
    },
    {
      "midi": 70,
      "hit": false,
      "t": 89899.71531666667,
      "d": 76.92283333333035,
      "v": 41
    },
    {
      "midi": 77,
      "hit": false,
      "t": 89903.56145833334,
      "d": 65.38440833332425,
      "v": 45
    },
    {
      "midi": 86,
      "hit": false,
      "t": 89918.946025,
      "d": 73.07669166666165,
      "v": 26
    },
    {
      "midi": 78,
      "hit": false,
      "t": 90465.09814166666,
      "d": 76.92283333333035,
      "v": 52
    },
    {
      "midi": 83,
      "hit": false,
      "t": 90468.94428333333,
      "d": 76.92283333333035,
      "v": 32
    },
    {
      "midi": 66,
      "hit": false,
      "t": 90922.78899999999,
      "d": 103.8458249999967,
      "v": 39
    },
    {
      "midi": 74,
      "hit": false,
      "t": 90938.17356666665,
      "d": 88.46125833333645,
      "v": 36
    },
    {
      "midi": 69,
      "hit": false,
      "t": 90938.17356666665,
      "d": 103.8458249999967,
      "v": 31
    },
    {
      "midi": 71,
      "hit": false,
      "t": 90942.01970833332,
      "d": 103.8458249999967,
      "v": 33
    },
    {
      "midi": 83,
      "hit": false,
      "t": 90949.71199166666,
      "d": 96.1535416666593,
      "v": 38
    },
    {
      "midi": 78,
      "hit": false,
      "t": 90957.404275,
      "d": 88.4612583333219,
      "v": 39
    },
    {
      "midi": 74,
      "hit": false,
      "t": 91426.63355833331,
      "d": 242.30692499999714,
      "v": 67
    },
    {
      "midi": 40,
      "hit": false,
      "t": 91722.78646666664,
      "d": 103.8458249999967,
      "v": 50
    },
    {
      "midi": 83,
      "hit": false,
      "t": 91868.93984999997,
      "d": 161.5379499999981,
      "v": 67
    },
    {
      "midi": 71,
      "hit": false,
      "t": 91868.93984999997,
      "d": 234.61464166665974,
      "v": 63
    },
    {
      "midi": 71,
      "hit": false,
      "t": 92342.01527499995,
      "d": 84.61511666666775,
      "v": 45
    },
    {
      "midi": 68,
      "hit": false,
      "t": 92349.70755833329,
      "d": 134.61495833333174,
      "v": 68
    },
    {
      "midi": 73,
      "hit": false,
      "t": 92349.70755833329,
      "d": 249.99920833333454,
      "v": 63
    },
    {
      "midi": 69,
      "hit": false,
      "t": 92426.63039166662,
      "d": 188.46094166666444,
      "v": 54
    },
    {
      "midi": 40,
      "hit": false,
      "t": 92672.78345833329,
      "d": 1480.7645416666637,
      "v": 53
    },
    {
      "midi": 80,
      "hit": false,
      "t": 94157.39414166662,
      "d": 76.92283333333035,
      "v": 52
    },
    {
      "midi": 88,
      "hit": false,
      "t": 94161.24028333329,
      "d": 76.92283333333035,
      "v": 32
    },
    {
      "midi": 68,
      "hit": false,
      "t": 94615.08499999995,
      "d": 103.8458249999967,
      "v": 39
    },
    {
      "midi": 80,
      "hit": false,
      "t": 94630.46956666661,
      "d": 88.46125833333645,
      "v": 36
    },
    {
      "midi": 71,
      "hit": false,
      "t": 94630.46956666661,
      "d": 103.8458249999967,
      "v": 31
    },
    {
      "midi": 76,
      "hit": false,
      "t": 94634.31570833328,
      "d": 103.8458249999967,
      "v": 33
    },
    {
      "midi": 88,
      "hit": false,
      "t": 94642.00799166661,
      "d": 96.1535416666593,
      "v": 38
    },
    {
      "midi": 57,
      "hit": false,
      "t": 95080.46814166661,
      "d": 115.3842500000028,
      "v": 40
    },
    {
      "midi": 69,
      "hit": false,
      "t": 95080.46814166661,
      "d": 115.3842500000028,
      "v": 49
    },
    {
      "midi": 45,
      "hit": false,
      "t": 95099.69884999994,
      "d": 96.15354166667385,
      "v": 45
    },
    {
      "midi": 64,
      "hit": false,
      "t": 95103.54499166661,
      "d": 65.3844083333388,
      "v": 46
    },
    {
      "midi": 61,
      "hit": false,
      "t": 95107.39113333328,
      "d": 80.76897499999905,
      "v": 50
    },
    {
      "midi": 57,
      "hit": false,
      "t": 95542.00514166661,
      "d": 115.3842500000028,
      "v": 40
    },
    {
      "midi": 69,
      "hit": false,
      "t": 95542.00514166661,
      "d": 115.3842500000028,
      "v": 49
    },
    {
      "midi": 37,
      "hit": false,
      "t": 95561.23584999994,
      "d": 96.15354166667385,
      "v": 45
    },
    {
      "midi": 64,
      "hit": false,
      "t": 95565.08199166661,
      "d": 65.3844083333388,
      "v": 46
    },
    {
      "midi": 61,
      "hit": false,
      "t": 95568.92813333328,
      "d": 80.76897499999905,
      "v": 50
    },
    {
      "midi": 86,
      "hit": false,
      "t": 96357.38717499995,
      "d": 119.2303916666715,
      "v": 76
    },
    {
      "midi": 81,
      "hit": false,
      "t": 96495.84827499995,
      "d": 173.0763750000042,
      "v": 26
    },
    {
      "midi": 69,
      "hit": false,
      "t": 96953.5391333333,
      "d": 99.999683333328,
      "v": 56
    },
    {
      "midi": 77,
      "hit": false,
      "t": 96965.0775583333,
      "d": 73.07669166666165,
      "v": 67
    },
    {
      "midi": 72,
      "hit": false,
      "t": 96965.0775583333,
      "d": 99.999683333328,
      "v": 58
    },
    {
      "midi": 86,
      "hit": false,
      "t": 96965.0775583333,
      "d": 111.5381083333341,
      "v": 63
    },
    {
      "midi": 64,
      "hit": false,
      "t": 97880.45927499997,
      "d": 84.61511666666775,
      "v": 45
    },
    {
      "midi": 67,
      "hit": false,
      "t": 97888.15155833331,
      "d": 249.99920833333454,
      "v": 63
    },
    {
      "midi": 65,
      "hit": false,
      "t": 97965.07439166664,
      "d": 188.46094166666444,
      "v": 54
    },
    {
      "midi": 38,
      "hit": false,
      "t": 98211.2274583333,
      "d": 1480.7645416666637,
      "v": 53
    },
    {
      "midi": 79,
      "hit": false,
      "t": 99695.83814166664,
      "d": 76.92283333333035,
      "v": 52
    },
    {
      "midi": 86,
      "hit": false,
      "t": 99699.6842833333,
      "d": 76.92283333333035,
      "v": 32
    },
    {
      "midi": 67,
      "hit": false,
      "t": 100153.52899999997,
      "d": 103.8458249999967,
      "v": 39
    },
    {
      "midi": 76,
      "hit": false,
      "t": 100168.91356666663,
      "d": 88.46125833333645,
      "v": 36
    },
    {
      "midi": 71,
      "hit": false,
      "t": 100168.91356666663,
      "d": 103.8458249999967,
      "v": 31
    },
    {
      "midi": 74,
      "hit": false,
      "t": 100172.7597083333,
      "d": 103.8458249999967,
      "v": 33
    },
    {
      "midi": 86,
      "hit": false,
      "t": 100180.45199166663,
      "d": 96.1535416666593,
      "v": 38
    },
    {
      "midi": 79,
      "hit": false,
      "t": 100188.14427499997,
      "d": 88.4612583333219,
      "v": 39
    },
    {
      "midi": 71,
      "hit": false,
      "t": 100634.29670833329,
      "d": 223.07621666668274,
      "v": 23
    },
    {
      "midi": 67,
      "hit": false,
      "t": 100641.98899166663,
      "d": 207.69165000000794,
      "v": 30
    },
    {
      "midi": 76,
      "hit": false,
      "t": 100645.8351333333,
      "d": 223.07621666668274,
      "v": 19
    },
    {
      "midi": 74,
      "hit": false,
      "t": 100649.68127499997,
      "d": 207.69165000000794,
      "v": 19
    },
    {
      "midi": 79,
      "hit": false,
      "t": 100657.3735583333,
      "d": 211.53779166667664,
      "v": 40
    },
    {
      "midi": 86,
      "hit": false,
      "t": 100657.3735583333,
      "d": 211.53779166667664,
      "v": 23
    },
    {
      "midi": 74,
      "hit": false,
      "t": 100976.60331666665,
      "d": 73.07669166666165,
      "v": 51
    },
    {
      "midi": 67,
      "hit": false,
      "t": 100976.60331666665,
      "d": 76.92283333333035,
      "v": 51
    },
    {
      "midi": 71,
      "hit": false,
      "t": 100976.60331666665,
      "d": 76.92283333333035,
      "v": 41
    },
    {
      "midi": 76,
      "hit": false,
      "t": 100980.44945833331,
      "d": 65.38440833332425,
      "v": 47
    },
    {
      "midi": 79,
      "hit": false,
      "t": 100980.44945833331,
      "d": 88.4612583333219,
      "v": 45
    },
    {
      "midi": 86,
      "hit": false,
      "t": 100995.83402499997,
      "d": 73.07669166666165,
      "v": 26
    },
    {
      "midi": 91,
      "hit": false,
      "t": 101561.21684999997,
      "d": 242.30692499999714,
      "v": 45
    },
    {
      "midi": 79,
      "hit": false,
      "t": 101565.06299166664,
      "d": 142.30724166666914,
      "v": 35
    },
    {
      "midi": 57,
      "hit": false,
      "t": 101565.06299166664,
      "d": 223.0762166666682,
      "v": 32
    },
    {
      "midi": 85,
      "hit": false,
      "t": 101568.9091333333,
      "d": 80.76897499999905,
      "v": 36
    },
    {
      "midi": 52,
      "hit": false,
      "t": 101572.75527499997,
      "d": 215.3839333333308,
      "v": 52
    },
    {
      "midi": 86,
      "hit": false,
      "t": 101680.44724166664,
      "d": 161.5379499999981,
      "v": 46
    },
    {
      "midi": 91,
      "hit": false,
      "t": 101899.67731666664,
      "d": 146.15338333333784,
      "v": 55
    },
    {
      "midi": 86,
      "hit": false,
      "t": 101911.21574166665,
      "d": 84.61511666666775,
      "v": 74
    },
    {
      "midi": 79,
      "hit": false,
      "t": 101915.06188333331,
      "d": 99.999683333328,
      "v": 55
    },
    {
      "midi": 57,
      "hit": false,
      "t": 101915.06188333331,
      "d": 107.6919666666654,
      "v": 59
    },
    {
      "midi": 52,
      "hit": false,
      "t": 101922.75416666665,
      "d": 99.999683333328,
      "v": 60
    },
    {
      "midi": 46,
      "hit": false,
      "t": 103395.82642499998,
      "d": 103.84582500001125,
      "v": 59
    },
    {
      "midi": 65,
      "hit": false,
      "t": 103399.67256666665,
      "d": 99.99968333334255,
      "v": 68
    },
    {
      "midi": 74,
      "hit": false,
      "t": 103399.67256666665,
      "d": 146.15338333333784,
      "v": 67
    },
    {
      "midi": 62,
      "hit": false,
      "t": 103403.51870833331,
      "d": 111.5381083333341,
      "v": 64
    },
    {
      "midi": 62,
      "hit": false,
      "t": 104345.82341666665,
      "d": 599.9981000000116,
      "v": 49
    },
    {
      "midi": 77,
      "hit": false,
      "t": 104353.51569999999,
      "d": 115.3842500000028,
      "v": 63
    },
    {
      "midi": 50,
      "hit": false,
      "t": 104353.51569999999,
      "d": 626.921091666678,
      "v": 54
    },
    {
      "midi": 86,
      "hit": false,
      "t": 104353.51569999999,
      "d": 699.9977833333396,
      "v": 75
    },
    {
      "midi": 74,
      "hit": false,
      "t": 104361.20798333333,
      "d": 696.1516416666709,
      "v": 67
    },
    {
      "midi": 50,
      "hit": false,
      "t": 105168.89773333333,
      "d": 61.5382666666701,
      "v": 30
    },
    {
      "midi": 74,
      "hit": false,
      "t": 105268.89741666667,
      "d": 65.3844083333388,
      "v": 41
    },
    {
      "midi": 83,
      "hit": false,
      "t": 105268.89741666667,
      "d": 88.46125833333645,
      "v": 62
    },
    {
      "midi": 71,
      "hit": false,
      "t": 105268.89741666667,
      "d": 92.30740000000515,
      "v": 57
    },
    {
      "midi": 66,
      "hit": false,
      "t": 105280.43584166668,
      "d": 80.76897499999905,
      "v": 50
    },
    {
      "midi": 76,
      "hit": false,
      "t": 106157.35614166668,
      "d": 76.92283333333035,
      "v": 52
    },
    {
      "midi": 83,
      "hit": false,
      "t": 106161.20228333335,
      "d": 76.92283333333035,
      "v": 32
    },
    {
      "midi": 64,
      "hit": false,
      "t": 106615.047,
      "d": 103.8458249999967,
      "v": 39
    },
    {
      "midi": 74,
      "hit": false,
      "t": 106630.43156666667,
      "d": 88.46125833333645,
      "v": 36
    },
    {
      "midi": 68,
      "hit": false,
      "t": 106630.43156666667,
      "d": 103.8458249999967,
      "v": 31
    },
    {
      "midi": 71,
      "hit": false,
      "t": 106634.27770833333,
      "d": 103.8458249999967,
      "v": 33
    },
    {
      "midi": 83,
      "hit": false,
      "t": 106641.96999166667,
      "d": 96.1535416666593,
      "v": 38
    },
    {
      "midi": 76,
      "hit": false,
      "t": 106649.66227500001,
      "d": 88.4612583333219,
      "v": 39
    },
    {
      "midi": 76,
      "hit": false,
      "t": 107099.66085,
      "d": 242.30692499999714,
      "v": 52
    },
    {
      "midi": 64,
      "hit": false,
      "t": 107453.50588333333,
      "d": 499.9984166666691,
      "v": 56
    },
    {
      "midi": 75,
      "hit": false,
      "t": 108026.58099166666,
      "d": 99.999683333328,
      "v": 75
    },
    {
      "midi": 84,
      "hit": false,
      "t": 108026.58099166666,
      "d": 196.1532249999873,
      "v": 79
    },
    {
      "midi": 78,
      "hit": false,
      "t": 108053.50398333333,
      "d": 99.999683333328,
      "v": 20
    },
    {
      "midi": 78,
      "hit": false,
      "t": 108318.88775833332,
      "d": 53.8459833333327,
      "v": 39
    },
    {
      "midi": 75,
      "hit": false,
      "t": 108372.73374166666,
      "d": 38.46141666667245,
      "v": 59
    },
    {
      "midi": 74,
      "hit": false,
      "t": 108491.96413333333,
      "d": 269.2299166666635,
      "v": 63
    },
    {
      "midi": 83,
      "hit": false,
      "t": 108495.810275,
      "d": 238.46078333332844,
      "v": 62
    },
    {
      "midi": 77,
      "hit": false,
      "t": 108495.810275,
      "d": 253.84534999998868,
      "v": 69
    },
    {
      "midi": 64,
      "hit": false,
      "t": 108853.50145,
      "d": 49.999841666664,
      "v": 44
    },
    {
      "midi": 45,
      "hit": false,
      "t": 109303.50002499999,
      "d": 34.61527500000375,
      "v": 43
    },
    {
      "midi": 71,
      "hit": false,
      "t": 109422.73041666666,
      "d": 69.23054999999295,
      "v": 55
    },
    {
      "midi": 76,
      "hit": false,
      "t": 109503.49939166666,
      "d": 207.6916499999934,
      "v": 52
    },
    {
      "midi": 71,
      "hit": false,
      "t": 109607.34521666665,
      "d": 142.3072416666546,
      "v": 43
    },
    {
      "midi": 64,
      "hit": false,
      "t": 109734.26789166665,
      "d": 111.5381083333341,
      "v": 55
    },
    {
      "midi": 57,
      "hit": false,
      "t": 109849.65214166665,
      "d": 115.3842500000028,
      "v": 40
    },
    {
      "midi": 69,
      "hit": false,
      "t": 109849.65214166665,
      "d": 115.3842500000028,
      "v": 49
    },
    {
      "midi": 45,
      "hit": false,
      "t": 109868.88284999998,
      "d": 96.15354166667385,
      "v": 45
    },
    {
      "midi": 64,
      "hit": false,
      "t": 109872.72899166665,
      "d": 65.3844083333388,
      "v": 46
    },
    {
      "midi": 61,
      "hit": false,
      "t": 109876.57513333332,
      "d": 80.76897499999905,
      "v": 50
    },
    {
      "midi": 57,
      "hit": false,
      "t": 110311.18914166665,
      "d": 115.3842500000028,
      "v": 40
    },
    {
      "midi": 69,
      "hit": false,
      "t": 110311.18914166665,
      "d": 115.3842500000028,
      "v": 49
    },
    {
      "midi": 37,
      "hit": false,
      "t": 110330.41984999998,
      "d": 96.15354166667385,
      "v": 45
    },
    {
      "midi": 64,
      "hit": false,
      "t": 110334.26599166665,
      "d": 65.3844083333388,
      "v": 46
    },
    {
      "midi": 61,
      "hit": false,
      "t": 110338.11213333331,
      "d": 80.76897499999905,
      "v": 50
    },
    {
      "midi": 38,
      "hit": false,
      "t": 110780.41842499998,
      "d": 65.38440833332425,
      "v": 38
    },
    {
      "midi": 61,
      "hit": false,
      "t": 110784.26456666665,
      "d": 80.7689749999845,
      "v": 51
    },
    {
      "midi": 57,
      "hit": false,
      "t": 110788.11070833332,
      "d": 88.4612583333219,
      "v": 48
    },
    {
      "midi": 66,
      "hit": false,
      "t": 110803.49527499998,
      "d": 65.38440833332425,
      "v": 51
    },
    {
      "midi": 75,
      "hit": false,
      "t": 112645.79713333331,
      "d": 123.07653333332564,
      "v": 69
    },
    {
      "midi": 38,
      "hit": false,
      "t": 112661.18169999997,
      "d": 1703.8407583333174,
      "v": 36
    },
    {
      "midi": 83,
      "hit": false,
      "t": 112665.02784166664,
      "d": 1638.456349999993,
      "v": 51
    },
    {
      "midi": 64,
      "hit": false,
      "t": 112665.02784166664,
      "d": 1796.1481583333225,
      "v": 37
    },
    {
      "midi": 76,
      "hit": false,
      "t": 112791.95051666663,
      "d": 1530.7643833333277,
      "v": 44
    },
    {
      "midi": 56,
      "hit": false,
      "t": 114465.02214166663,
      "d": 115.3842500000028,
      "v": 40
    },
    {
      "midi": 68,
      "hit": false,
      "t": 114465.02214166663,
      "d": 115.3842500000028,
      "v": 49
    },
    {
      "midi": 45,
      "hit": false,
      "t": 114484.25284999996,
      "d": 96.15354166667385,
      "v": 45
    },
    {
      "midi": 61,
      "hit": false,
      "t": 114488.09899166663,
      "d": 65.3844083333388,
      "v": 46
    },
    {
      "midi": 57,
      "hit": false,
      "t": 114491.9451333333,
      "d": 80.76897499999905,
      "v": 50
    },
    {
      "midi": 80,
      "hit": false,
      "t": 115399.63456666663,
      "d": 61.538266666655545,
      "v": 72
    },
    {
      "midi": 83,
      "hit": false,
      "t": 115399.63456666663,
      "d": 84.6151166666532,
      "v": 73
    },
    {
      "midi": 76,
      "hit": false,
      "t": 115415.01913333329,
      "d": 46.1536999999953,
      "v": 73
    },
    {
      "midi": 88,
      "hit": false,
      "t": 115415.01913333329,
      "d": 61.538266666655545,
      "v": 75
    },
    {
      "midi": 73,
      "hit": false,
      "t": 115418.86527499996,
      "d": 65.38440833332425,
      "v": 54
    },
    {
      "midi": 64,
      "hit": false,
      "t": 116307.32399999995,
      "d": 80.76897499999905,
      "v": 63
    },
    {
      "midi": 68,
      "hit": false,
      "t": 116322.70856666661,
      "d": 46.15370000000985,
      "v": 57
    },
    {
      "midi": 71,
      "hit": false,
      "t": 116322.70856666661,
      "d": 69.2305500000075,
      "v": 50
    },
    {
      "midi": 61,
      "hit": false,
      "t": 116326.55470833328,
      "d": 61.5382666666701,
      "v": 50
    },
    {
      "midi": 76,
      "hit": false,
      "t": 116330.40084999995,
      "d": 65.3844083333388,
      "v": 49
    },
    {
      "midi": 88,
      "hit": false,
      "t": 117111.16760833329,
      "d": 61.5382666666701,
      "v": 71
    },
    {
      "midi": 76,
      "hit": false,
      "t": 117111.16760833329,
      "d": 76.92283333333035,
      "v": 77
    },
    {
      "midi": 83,
      "hit": false,
      "t": 117111.16760833329,
      "d": 76.92283333333035,
      "v": 67
    },
    {
      "midi": 80,
      "hit": false,
      "t": 117118.85989166662,
      "d": 53.8459833333327,
      "v": 60
    },
    {
      "midi": 73,
      "hit": false,
      "t": 117130.39831666663,
      "d": 84.6151166666532,
      "v": 59
    },
    {
      "midi": 50,
      "hit": false,
      "t": 118157.31814166662,
      "d": 115.3842500000028,
      "v": 40
    },
    {
      "midi": 62,
      "hit": false,
      "t": 118157.31814166662,
      "d": 115.3842500000028,
      "v": 49
    },
    {
      "midi": 35,
      "hit": false,
      "t": 118176.54884999995,
      "d": 96.15354166667385,
      "v": 45
    },
    {
      "midi": 57,
      "hit": false,
      "t": 118180.39499166662,
      "d": 65.3844083333388,
      "v": 46
    },
    {
      "midi": 54,
      "hit": false,
      "t": 118184.24113333329,
      "d": 80.76897499999905,
      "v": 50
    },
    {
      "midi": 74,
      "hit": false,
      "t": 119091.93056666662,
      "d": 61.538266666655545,
      "v": 72
    },
    {
      "midi": 78,
      "hit": false,
      "t": 119091.93056666662,
      "d": 84.6151166666532,
      "v": 73
    },
    {
      "midi": 71,
      "hit": false,
      "t": 119107.31513333328,
      "d": 46.1536999999953,
      "v": 73
    },
    {
      "midi": 83,
      "hit": false,
      "t": 119107.31513333328,
      "d": 61.538266666655545,
      "v": 75
    },
    {
      "midi": 69,
      "hit": false,
      "t": 119111.16127499995,
      "d": 65.38440833332425,
      "v": 54
    },
    {
      "midi": 59,
      "hit": false,
      "t": 119999.61999999994,
      "d": 80.76897499999905,
      "v": 63
    },
    {
      "midi": 62,
      "hit": false,
      "t": 120015.0045666666,
      "d": 46.15370000000985,
      "v": 57
    },
    {
      "midi": 66,
      "hit": false,
      "t": 120015.0045666666,
      "d": 69.2305500000075,
      "v": 50
    },
    {
      "midi": 57,
      "hit": false,
      "t": 120018.85070833327,
      "d": 61.5382666666701,
      "v": 50
    },
    {
      "midi": 71,
      "hit": false,
      "t": 120022.69684999993,
      "d": 65.3844083333388,
      "v": 49
    },
    {
      "midi": 83,
      "hit": false,
      "t": 120803.46360833327,
      "d": 61.5382666666701,
      "v": 71
    },
    {
      "midi": 71,
      "hit": false,
      "t": 120803.46360833327,
      "d": 76.92283333333035,
      "v": 77
    },
    {
      "midi": 78,
      "hit": false,
      "t": 120803.46360833327,
      "d": 76.92283333333035,
      "v": 67
    },
    {
      "midi": 74,
      "hit": false,
      "t": 120811.15589166661,
      "d": 53.8459833333327,
      "v": 60
    },
    {
      "midi": 69,
      "hit": false,
      "t": 120822.69431666662,
      "d": 84.6151166666532,
      "v": 59
    },
    {
      "midi": 76,
      "hit": false,
      "t": 122207.3053166666,
      "d": 157.6918083333294,
      "v": 82
    },
    {
      "midi": 71,
      "hit": false,
      "t": 122626.53475833326,
      "d": 111.5381083333341,
      "v": 49
    },
    {
      "midi": 76,
      "hit": false,
      "t": 122768.84199999993,
      "d": 288.460625000007,
      "v": 68
    },
    {
      "midi": 71,
      "hit": false,
      "t": 123595.76245833327,
      "d": 96.15354166667385,
      "v": 47
    },
    {
      "midi": 61,
      "hit": false,
      "t": 123730.37741666661,
      "d": 249.99920833333454,
      "v": 42
    },
    {
      "midi": 69,
      "hit": false,
      "t": 123738.06969999995,
      "d": 257.6914916666574,
      "v": 37
    },
    {
      "midi": 62,
      "hit": false,
      "t": 124172.68370833328,
      "d": 273.0760583333322,
      "v": 59
    },
    {
      "midi": 69,
      "hit": false,
      "t": 124172.68370833328,
      "d": 284.6144833333383,
      "v": 62
    },
    {
      "midi": 52,
      "hit": false,
      "t": 124499.60574999994,
      "d": 107.6919666666654,
      "v": 60
    },
    {
      "midi": 69,
      "hit": false,
      "t": 124626.52842499994,
      "d": 253.84535000000324,
      "v": 50
    },
    {
      "midi": 63,
      "hit": false,
      "t": 124634.22070833328,
      "d": 257.69149166667194,
      "v": 65
    },
    {
      "midi": 64,
      "hit": false,
      "t": 124968.83503333328,
      "d": 103.8458249999967,
      "v": 65
    },
    {
      "midi": 69,
      "hit": false,
      "t": 124968.83503333328,
      "d": 115.3842500000028,
      "v": 51
    },
    {
      "midi": 50,
      "hit": false,
      "t": 125549.60242499995,
      "d": 103.84582500001125,
      "v": 59
    },
    {
      "midi": 69,
      "hit": false,
      "t": 125553.44856666662,
      "d": 99.99968333334255,
      "v": 68
    },
    {
      "midi": 76,
      "hit": false,
      "t": 125553.44856666662,
      "d": 146.15338333333784,
      "v": 67
    },
    {
      "midi": 66,
      "hit": false,
      "t": 125557.29470833328,
      "d": 111.5381083333341,
      "v": 64
    },
    {
      "midi": 62,
      "hit": false,
      "t": 126499.59941666662,
      "d": 599.9981000000116,
      "v": 49
    },
    {
      "midi": 81,
      "hit": false,
      "t": 126507.29169999996,
      "d": 115.3842500000028,
      "v": 63
    },
    {
      "midi": 54,
      "hit": false,
      "t": 126507.29169999996,
      "d": 626.921091666678,
      "v": 54
    },
    {
      "midi": 88,
      "hit": false,
      "t": 126507.29169999996,
      "d": 699.9977833333396,
      "v": 75
    },
    {
      "midi": 76,
      "hit": false,
      "t": 126514.9839833333,
      "d": 696.1516416666709,
      "v": 67
    },
    {
      "midi": 54,
      "hit": false,
      "t": 127322.6737333333,
      "d": 61.5382666666701,
      "v": 30
    },
    {
      "midi": 38,
      "hit": false,
      "t": 127395.75042499998,
      "d": 103.84582500001125,
      "v": 59
    },
    {
      "midi": 68,
      "hit": false,
      "t": 127399.59656666665,
      "d": 99.99968333334255,
      "v": 68
    },
    {
      "midi": 76,
      "hit": false,
      "t": 127399.59656666665,
      "d": 146.15338333333784,
      "v": 67
    },
    {
      "midi": 64,
      "hit": false,
      "t": 127403.44270833331,
      "d": 111.5381083333341,
      "v": 64
    },
    {
      "midi": 64,
      "hit": false,
      "t": 128345.74741666665,
      "d": 599.9981000000116,
      "v": 49
    },
    {
      "midi": 80,
      "hit": false,
      "t": 128353.43969999999,
      "d": 115.3842500000028,
      "v": 63
    },
    {
      "midi": 52,
      "hit": false,
      "t": 128353.43969999999,
      "d": 626.921091666678,
      "v": 54
    },
    {
      "midi": 88,
      "hit": false,
      "t": 128353.43969999999,
      "d": 699.9977833333396,
      "v": 75
    },
    {
      "midi": 76,
      "hit": false,
      "t": 128361.13198333333,
      "d": 696.1516416666709,
      "v": 67
    },
    {
      "midi": 52,
      "hit": false,
      "t": 129168.82173333333,
      "d": 61.5382666666701,
      "v": 30
    },
    {
      "midi": 52,
      "hit": false,
      "t": 129234.20614166667,
      "d": 115.3842500000028,
      "v": 40
    },
    {
      "midi": 64,
      "hit": false,
      "t": 129234.20614166667,
      "d": 115.3842500000028,
      "v": 49
    },
    {
      "midi": 37,
      "hit": false,
      "t": 129253.43685,
      "d": 96.15354166667385,
      "v": 45
    },
    {
      "midi": 59,
      "hit": false,
      "t": 129257.28299166667,
      "d": 65.3844083333388,
      "v": 46
    },
    {
      "midi": 56,
      "hit": false,
      "t": 129261.12913333334,
      "d": 80.76897499999905,
      "v": 50
    },
    {
      "midi": 76,
      "hit": false,
      "t": 130168.81856666667,
      "d": 61.538266666655545,
      "v": 72
    },
    {
      "midi": 80,
      "hit": false,
      "t": 130168.81856666667,
      "d": 84.6151166666532,
      "v": 73
    },
    {
      "midi": 73,
      "hit": false,
      "t": 130184.20313333333,
      "d": 46.1536999999953,
      "v": 73
    },
    {
      "midi": 85,
      "hit": false,
      "t": 130184.20313333333,
      "d": 61.538266666655545,
      "v": 75
    },
    {
      "midi": 71,
      "hit": false,
      "t": 130188.049275,
      "d": 65.38440833332425,
      "v": 54
    },
    {
      "midi": 80,
      "hit": false,
      "t": 131080.35414166664,
      "d": 76.9228333333449,
      "v": 52
    },
    {
      "midi": 85,
      "hit": false,
      "t": 131084.2002833333,
      "d": 76.9228333333449,
      "v": 32
    },
    {
      "midi": 68,
      "hit": false,
      "t": 131538.04499999998,
      "d": 103.8458250000258,
      "v": 39
    },
    {
      "midi": 76,
      "hit": false,
      "t": 131553.42956666666,
      "d": 88.461258333351,
      "v": 36
    },
    {
      "midi": 71,
      "hit": false,
      "t": 131553.42956666666,
      "d": 103.8458250000258,
      "v": 31
    },
    {
      "midi": 73,
      "hit": false,
      "t": 131557.27570833333,
      "d": 103.8458250000258,
      "v": 33
    },
    {
      "midi": 85,
      "hit": false,
      "t": 131564.96799166666,
      "d": 96.1535416666884,
      "v": 38
    },
    {
      "midi": 80,
      "hit": false,
      "t": 131572.660275,
      "d": 88.461258333351,
      "v": 39
    },
    {
      "midi": 73,
      "hit": false,
      "t": 132014.9665666667,
      "d": 257.6914916666865,
      "v": 87
    },
    {
      "midi": 70,
      "hit": false,
      "t": 132014.9665666667,
      "d": 261.5376333333552,
      "v": 90
    },
    {
      "midi": 37,
      "hit": false,
      "t": 132022.65885000004,
      "d": 223.0762166666682,
      "v": 74
    },
    {
      "midi": 70,
      "hit": false,
      "t": 132364.96545833338,
      "d": 53.8459833333327,
      "v": 43
    },
    {
      "midi": 73,
      "hit": false,
      "t": 132376.50388333338,
      "d": 61.5382666666701,
      "v": 43
    },
    {
      "midi": 37,
      "hit": false,
      "t": 132376.50388333338,
      "d": 69.2305500000075,
      "v": 42
    },
    {
      "midi": 61,
      "hit": false,
      "t": 132957.27127500006,
      "d": 84.6151166666823,
      "v": 45
    },
    {
      "midi": 62,
      "hit": false,
      "t": 132964.9635583334,
      "d": 134.6149583333463,
      "v": 68
    },
    {
      "midi": 66,
      "hit": false,
      "t": 132964.9635583334,
      "d": 249.9992083333491,
      "v": 63
    },
    {
      "midi": 54,
      "hit": false,
      "t": 133261.11646666675,
      "d": 1853.840283333324,
      "v": 73
    },
    {
      "midi": 50,
      "hit": false,
      "t": 136618.79814166675,
      "d": 115.3842500000319,
      "v": 40
    },
    {
      "midi": 62,
      "hit": false,
      "t": 136618.79814166675,
      "d": 115.3842500000319,
      "v": 49
    },
    {
      "midi": 35,
      "hit": false,
      "t": 136638.0288500001,
      "d": 96.1535416666884,
      "v": 45
    },
    {
      "midi": 57,
      "hit": false,
      "t": 136641.87499166676,
      "d": 65.3844083333388,
      "v": 46
    },
    {
      "midi": 54,
      "hit": false,
      "t": 136645.72113333343,
      "d": 80.7689750000136,
      "v": 50
    },
    {
      "midi": 74,
      "hit": false,
      "t": 137553.41056666677,
      "d": 61.5382666666701,
      "v": 72
    },
    {
      "midi": 78,
      "hit": false,
      "t": 137553.41056666677,
      "d": 84.6151166666823,
      "v": 73
    },
    {
      "midi": 71,
      "hit": false,
      "t": 137568.79513333345,
      "d": 46.1536999999953,
      "v": 73
    },
    {
      "midi": 83,
      "hit": false,
      "t": 137568.79513333345,
      "d": 61.5382666666701,
      "v": 75
    },
    {
      "midi": 69,
      "hit": false,
      "t": 137572.64127500012,
      "d": 65.3844083333388,
      "v": 54
    },
    {
      "midi": 59,
      "hit": false,
      "t": 138461.10000000012,
      "d": 80.7689750000136,
      "v": 63
    },
    {
      "midi": 62,
      "hit": false,
      "t": 138476.4845666668,
      "d": 46.1536999999953,
      "v": 57
    },
    {
      "midi": 66,
      "hit": false,
      "t": 138476.4845666668,
      "d": 69.2305500000075,
      "v": 50
    },
    {
      "midi": 57,
      "hit": false,
      "t": 138480.33070833347,
      "d": 61.5382666666701,
      "v": 50
    },
    {
      "midi": 71,
      "hit": false,
      "t": 138484.17685000013,
      "d": 65.3844083333388,
      "v": 49
    },
    {
      "midi": 83,
      "hit": false,
      "t": 139264.94360833347,
      "d": 61.5382666666701,
      "v": 71
    },
    {
      "midi": 71,
      "hit": false,
      "t": 139264.94360833347,
      "d": 76.9228333333449,
      "v": 77
    },
    {
      "midi": 78,
      "hit": false,
      "t": 139264.94360833347,
      "d": 76.9228333333449,
      "v": 67
    },
    {
      "midi": 74,
      "hit": false,
      "t": 139272.6358916668,
      "d": 53.8459833333327,
      "v": 60
    },
    {
      "midi": 69,
      "hit": false,
      "t": 139284.17431666682,
      "d": 84.6151166666823,
      "v": 59
    },
    {
      "midi": 77,
      "hit": false,
      "t": 140338.0171333335,
      "d": 123.0765333333402,
      "v": 69
    },
    {
      "midi": 45,
      "hit": false,
      "t": 140353.40170000016,
      "d": 1703.840758333361,
      "v": 36
    },
    {
      "midi": 86,
      "hit": false,
      "t": 140357.24784166683,
      "d": 1638.4563500000222,
      "v": 51
    },
    {
      "midi": 66,
      "hit": false,
      "t": 140357.24784166683,
      "d": 1796.1481583333516,
      "v": 37
    },
    {
      "midi": 78,
      "hit": false,
      "t": 140484.17051666684,
      "d": 1530.7643833333568,
      "v": 44
    },
    {
      "midi": 75,
      "hit": false,
      "t": 142184.1651333335,
      "d": 123.0765333333402,
      "v": 69
    },
    {
      "midi": 45,
      "hit": false,
      "t": 142199.54970000018,
      "d": 876.920299999998,
      "v": 58
    },
    {
      "midi": 49,
      "hit": false,
      "t": 142203.39584166685,
      "d": 873.0741583333293,
      "v": 48
    },
    {
      "midi": 81,
      "hit": false,
      "t": 142203.39584166685,
      "d": 873.0741583333293,
      "v": 51
    },
    {
      "midi": 76,
      "hit": false,
      "t": 142330.31851666686,
      "d": 746.1514833333204,
      "v": 44
    },
    {
      "midi": 76,
      "hit": false,
      "t": 143114.93141666683,
      "d": 65.3844083333388,
      "v": 41
    },
    {
      "midi": 85,
      "hit": false,
      "t": 143114.93141666683,
      "d": 88.461258333351,
      "v": 62
    },
    {
      "midi": 73,
      "hit": false,
      "t": 143114.93141666683,
      "d": 92.3074000000197,
      "v": 57
    },
    {
      "midi": 64,
      "hit": false,
      "t": 143126.46984166684,
      "d": 80.7689750000136,
      "v": 50
    },
    {
      "midi": 64,
      "hit": false,
      "t": 144034.1592750002,
      "d": 84.6151166666823,
      "v": 45
    },
    {
      "midi": 65,
      "hit": false,
      "t": 144041.85155833352,
      "d": 134.6149583333463,
      "v": 68
    },
    {
      "midi": 69,
      "hit": false,
      "t": 144041.85155833352,
      "d": 249.9992083333491,
      "v": 63
    },
    {
      "midi": 65,
      "hit": false,
      "t": 144068.77455000003,
      "d": 134.6149583333463,
      "v": 123
    },
    {
      "midi": 65,
      "hit": false,
      "t": 144345.69675000003,
      "d": 88.4612583333219,
      "v": 108
    },
    {
      "midi": 45,
      "hit": false,
      "t": 144364.92745833355,
      "d": 1480.7645416666637,
      "v": 53
    },
    {
      "midi": 65,
      "hit": false,
      "t": 144526.46540833334,
      "d": 134.6149583333463,
      "v": 112
    },
    {
      "midi": 65,
      "hit": false,
      "t": 144807.23375,
      "d": 465.3831416666799,
      "v": 110
    },
    {
      "midi": 57,
      "hit": false,
      "t": 145261.0784666667,
      "d": 96.1535416666593,
      "v": 115
    },
    {
      "midi": 57,
      "hit": false,
      "t": 145445.69326666667,
      "d": 138.4610999999859,
      "v": 101
    },
    {
      "midi": 57,
      "hit": false,
      "t": 145734.15389166665,
      "d": 392.3064500000037,
      "v": 115
    },
    {
      "midi": 43,
      "hit": false,
      "t": 145857.23042500022,
      "d": 65.3844083333388,
      "v": 38
    },
    {
      "midi": 59,
      "hit": false,
      "t": 145861.0765666669,
      "d": 80.7689750000136,
      "v": 51
    },
    {
      "midi": 55,
      "hit": false,
      "t": 145864.92270833356,
      "d": 88.461258333351,
      "v": 48
    },
    {
      "midi": 65,
      "hit": false,
      "t": 145880.30727500023,
      "d": 65.3844083333388,
      "v": 51
    },
    {
      "midi": 59,
      "hit": false,
      "t": 146184.15246666665,
      "d": 1465.379974999989,
      "v": 120
    },
    {
      "midi": 52,
      "hit": false,
      "t": 147695.6861416669,
      "d": 115.3842500000319,
      "v": 40
    },
    {
      "midi": 64,
      "hit": false,
      "t": 147695.6861416669,
      "d": 115.3842500000319,
      "v": 49
    },
    {
      "midi": 36,
      "hit": false,
      "t": 147714.91685000024,
      "d": 96.1535416666884,
      "v": 45
    },
    {
      "midi": 59,
      "hit": false,
      "t": 147718.7629916669,
      "d": 65.3844083333388,
      "v": 46
    },
    {
      "midi": 55,
      "hit": false,
      "t": 147722.60913333358,
      "d": 80.7689750000136,
      "v": 50
    },
    {
      "midi": 64,
      "hit": false,
      "t": 147741.83984166663,
      "d": 119.2303916666715,
      "v": 123
    },
    {
      "midi": 64,
      "hit": false,
      "t": 148022.6081833333,
      "d": 76.9228333333449,
      "v": 108
    },
    {
      "midi": 64,
      "hit": false,
      "t": 148207.2229833333,
      "d": 119.2303916666715,
      "v": 117
    },
    {
      "midi": 64,
      "hit": false,
      "t": 148484.1451833333,
      "d": 453.8447166666738,
      "v": 110
    },
    {
      "midi": 76,
      "hit": false,
      "t": 148630.29856666693,
      "d": 61.5382666666701,
      "v": 72
    },
    {
      "midi": 79,
      "hit": false,
      "t": 148630.29856666693,
      "d": 84.6151166666823,
      "v": 73
    },
    {
      "midi": 74,
      "hit": false,
      "t": 148645.6831333336,
      "d": 46.1536999999953,
      "v": 73
    },
    {
      "midi": 86,
      "hit": false,
      "t": 148645.6831333336,
      "d": 61.5382666666701,
      "v": 75
    },
    {
      "midi": 71,
      "hit": false,
      "t": 148649.52927500027,
      "d": 65.3844083333388,
      "v": 54
    },
    {
      "midi": 60,
      "hit": false,
      "t": 148949.528325,
      "d": 465.3831416666799,
      "v": 115
    },
    {
      "midi": 65,
      "hit": false,
      "t": 149407.21918333333,
      "d": 523.0752666666522,
      "v": 110
    },
    {
      "midi": 74,
      "hit": false,
      "t": 149568.7571333336,
      "d": 123.0765333333402,
      "v": 69
    },
    {
      "midi": 41,
      "hit": false,
      "t": 149584.14170000027,
      "d": 1703.840758333361,
      "v": 36
    },
    {
      "midi": 81,
      "hit": false,
      "t": 149587.98784166694,
      "d": 1638.4563500000222,
      "v": 51
    },
    {
      "midi": 64,
      "hit": false,
      "t": 149587.98784166694,
      "d": 1796.1481583333516,
      "v": 37
    },
    {
      "midi": 76,
      "hit": false,
      "t": 149714.91051666695,
      "d": 1530.7643833333568,
      "v": 44
    },
    {
      "midi": 64,
      "hit": false,
      "t": 149884.14075,
      "d": 507.69069999997737,
      "v": 117
    },
    {
      "midi": 62,
      "hit": false,
      "t": 150353.3700333333,
      "d": 488.459991666663,
      "v": 120
    },
    {
      "midi": 60,
      "hit": false,
      "t": 150826.4454583333,
      "d": 615.3826666666719,
      "v": 117
    },
    {
      "midi": 62,
      "hit": false,
      "t": 151434.13584166663,
      "d": 119.2303916666715,
      "v": 117
    },
    {
      "midi": 62,
      "hit": false,
      "t": 151707.21189999997,
      "d": 69.2305500000075,
      "v": 99
    },
    {
      "midi": 86,
      "hit": false,
      "t": 151741.8271750003,
      "d": 119.2303916666715,
      "v": 76
    },
    {
      "midi": 62,
      "hit": false,
      "t": 151876.4421333333,
      "d": 126.9226750000089,
      "v": 110
    },
    {
      "midi": 77,
      "hit": false,
      "t": 151880.28827500032,
      "d": 173.0763750000042,
      "v": 26
    },
    {
      "midi": 62,
      "hit": false,
      "t": 152172.59504166665,
      "d": 434.6140083333303,
      "v": 110
    },
    {
      "midi": 65,
      "hit": false,
      "t": 152337.97913333366,
      "d": 99.9996833333571,
      "v": 56
    },
    {
      "midi": 74,
      "hit": false,
      "t": 152349.51755833367,
      "d": 73.0766916666762,
      "v": 67
    },
    {
      "midi": 70,
      "hit": false,
      "t": 152349.51755833367,
      "d": 99.9996833333571,
      "v": 58
    },
    {
      "midi": 86,
      "hit": false,
      "t": 152349.51755833367,
      "d": 111.5381083333632,
      "v": 63
    },
    {
      "midi": 53,
      "hit": false,
      "t": 152645.67046666663,
      "d": 246.1530666666804,
      "v": 120
    },
    {
      "midi": 52,
      "hit": false,
      "t": 153095.66904166664,
      "d": 1584.6103666666604,
      "v": 117
    },
    {
      "midi": 78,
      "hit": false,
      "t": 153234.13014166703,
      "d": 76.9228333333449,
      "v": 52
    },
    {
      "midi": 83,
      "hit": false,
      "t": 153237.9762833337,
      "d": 76.9228333333449,
      "v": 32
    },
    {
      "midi": 66,
      "hit": false,
      "t": 153691.82100000037,
      "d": 103.8458250000258,
      "v": 39
    },
    {
      "midi": 74,
      "hit": false,
      "t": 153707.20556666705,
      "d": 88.461258333351,
      "v": 36
    },
    {
      "midi": 69,
      "hit": false,
      "t": 153707.20556666705,
      "d": 103.8458250000258,
      "v": 31
    },
    {
      "midi": 71,
      "hit": false,
      "t": 153711.05170833372,
      "d": 103.8458250000258,
      "v": 33
    },
    {
      "midi": 83,
      "hit": false,
      "t": 153718.74399166706,
      "d": 96.1535416666884,
      "v": 38
    },
    {
      "midi": 78,
      "hit": false,
      "t": 153726.4362750004,
      "d": 88.461258333351,
      "v": 39
    },
    {
      "midi": 88,
      "hit": false,
      "t": 154176.4348500004,
      "d": 242.3069250000408,
      "v": 45
    },
    {
      "midi": 76,
      "hit": false,
      "t": 154180.28099166707,
      "d": 142.3072416666837,
      "v": 35
    },
    {
      "midi": 56,
      "hit": false,
      "t": 154180.28099166707,
      "d": 223.0762166666973,
      "v": 32
    },
    {
      "midi": 84,
      "hit": false,
      "t": 154184.12713333374,
      "d": 80.7689750000136,
      "v": 31
    },
    {
      "midi": 50,
      "hit": false,
      "t": 154187.9732750004,
      "d": 215.3839333333599,
      "v": 52
    },
    {
      "midi": 85,
      "hit": false,
      "t": 154295.66524166707,
      "d": 161.5379500000272,
      "v": 55
    },
    {
      "midi": 88,
      "hit": false,
      "t": 154514.8953166671,
      "d": 146.1533833333815,
      "v": 55
    },
    {
      "midi": 85,
      "hit": false,
      "t": 154526.4337416671,
      "d": 84.6151166666823,
      "v": 74
    },
    {
      "midi": 76,
      "hit": false,
      "t": 154530.27988333377,
      "d": 99.9996833333571,
      "v": 55
    },
    {
      "midi": 56,
      "hit": false,
      "t": 154530.27988333377,
      "d": 107.6919666666945,
      "v": 59
    },
    {
      "midi": 50,
      "hit": false,
      "t": 154537.9721666671,
      "d": 99.9996833333571,
      "v": 60
    },
    {
      "midi": 62,
      "hit": false,
      "t": 154961.04774999997,
      "d": 76.9228333333449,
      "v": 110
    },
    {
      "midi": 76,
      "hit": false,
      "t": 155099.50885000048,
      "d": 334.6143250000023,
      "v": 36
    },
    {
      "midi": 62,
      "hit": false,
      "t": 155137.97026666664,
      "d": 173.0763750000042,
      "v": 101
    },
    {
      "midi": 61,
      "hit": false,
      "t": 155426.43089166665,
      "d": 92.3073999999906,
      "v": 117
    },
    {
      "midi": 64,
      "hit": false,
      "t": 155561.0458500005,
      "d": 438.460149999999,
      "v": 33
    },
    {
      "midi": 64,
      "hit": false,
      "t": 155614.8918333333,
      "d": 2965.375224999996,
      "v": 110
    },
    {
      "midi": 75,
      "hit": false,
      "t": 156026.42899166717,
      "d": 99.9996833333571,
      "v": 75
    },
    {
      "midi": 84,
      "hit": false,
      "t": 156026.42899166717,
      "d": 196.1532250000455,
      "v": 79
    },
    {
      "midi": 78,
      "hit": false,
      "t": 156053.35198333385,
      "d": 99.9996833333571,
      "v": 20
    },
    {
      "midi": 78,
      "hit": false,
      "t": 156318.73575833387,
      "d": 53.8459833333327,
      "v": 39
    },
    {
      "midi": 75,
      "hit": false,
      "t": 156372.5817416672,
      "d": 38.4614166666579,
      "v": 59
    },
    {
      "midi": 74,
      "hit": false,
      "t": 156491.81213333388,
      "d": 269.2299166666926,
      "v": 63
    },
    {
      "midi": 83,
      "hit": false,
      "t": 156495.65827500055,
      "d": 238.460783333343,
      "v": 62
    },
    {
      "midi": 77,
      "hit": false,
      "t": 156495.65827500055,
      "d": 253.8453500000178,
      "v": 69
    },
    {
      "midi": 64,
      "hit": false,
      "t": 156853.34945000056,
      "d": 49.999841666664,
      "v": 44
    },
    {
      "midi": 45,
      "hit": false,
      "t": 157303.34802500057,
      "d": 34.6152749999892,
      "v": 43
    },
    {
      "midi": 71,
      "hit": false,
      "t": 157422.5784166672,
      "d": 69.2305500000075,
      "v": 55
    },
    {
      "midi": 76,
      "hit": false,
      "t": 157503.34739166722,
      "d": 207.6916499999934,
      "v": 52
    },
    {
      "midi": 71,
      "hit": false,
      "t": 157607.19321666722,
      "d": 142.3072416666837,
      "v": 43
    },
    {
      "midi": 64,
      "hit": false,
      "t": 157734.11589166723,
      "d": 111.5381083333341,
      "v": 55
    },
    {
      "midi": 57,
      "hit": false,
      "t": 157849.50014166723,
      "d": 115.3842500000319,
      "v": 40
    },
    {
      "midi": 69,
      "hit": false,
      "t": 157849.50014166723,
      "d": 115.3842500000319,
      "v": 49
    },
    {
      "midi": 45,
      "hit": false,
      "t": 157868.73085000057,
      "d": 96.1535416666884,
      "v": 45
    },
    {
      "midi": 64,
      "hit": false,
      "t": 157872.57699166724,
      "d": 65.3844083333388,
      "v": 46
    },
    {
      "midi": 61,
      "hit": false,
      "t": 157876.4231333339,
      "d": 80.7689750000136,
      "v": 50
    },
    {
      "midi": 57,
      "hit": false,
      "t": 158311.03714166727,
      "d": 115.3842500000319,
      "v": 40
    },
    {
      "midi": 69,
      "hit": false,
      "t": 158311.03714166727,
      "d": 115.3842500000319,
      "v": 49
    },
    {
      "midi": 37,
      "hit": false,
      "t": 158330.26785000061,
      "d": 96.1535416666884,
      "v": 45
    },
    {
      "midi": 64,
      "hit": false,
      "t": 158334.11399166728,
      "d": 65.3844083333388,
      "v": 46
    },
    {
      "midi": 61,
      "hit": false,
      "t": 158337.96013333395,
      "d": 80.7689750000136,
      "v": 50
    },
    {
      "midi": 65,
      "hit": false,
      "t": 158826.42012499998,
      "d": 130.7688166666776,
      "v": 115
    },
    {
      "midi": 77,
      "hit": false,
      "t": 159103.34232500065,
      "d": 146.1533833333233,
      "v": 76
    },
    {
      "midi": 81,
      "hit": false,
      "t": 159103.34232500065,
      "d": 161.5379499999981,
      "v": 64
    },
    {
      "midi": 65,
      "hit": false,
      "t": 159114.88074999998,
      "d": 73.0766916666762,
      "v": 95
    },
    {
      "midi": 76,
      "hit": false,
      "t": 159272.57255833398,
      "d": 138.4610999999859,
      "v": 44
    },
    {
      "midi": 80,
      "hit": false,
      "t": 159272.57255833398,
      "d": 146.1533833333233,
      "v": 50
    },
    {
      "midi": 65,
      "hit": false,
      "t": 159299.49555,
      "d": 146.1533833333233,
      "v": 110
    },
    {
      "midi": 77,
      "hit": false,
      "t": 159564.87932500063,
      "d": 138.4610999999859,
      "v": 83
    },
    {
      "midi": 81,
      "hit": false,
      "t": 159564.87932500063,
      "d": 161.5379499999981,
      "v": 64
    },
    {
      "midi": 65,
      "hit": false,
      "t": 159587.95617499997,
      "d": 607.6903833333345,
      "v": 112
    },
    {
      "midi": 76,
      "hit": false,
      "t": 159718.7249916673,
      "d": 307.6913333333505,
      "v": 50
    },
    {
      "midi": 80,
      "hit": false,
      "t": 159734.10955833396,
      "d": 269.2299166666635,
      "v": 71
    },
    {
      "midi": 77,
      "hit": false,
      "t": 160026.41632500064,
      "d": 138.4610999999859,
      "v": 85
    },
    {
      "midi": 81,
      "hit": false,
      "t": 160026.41632500064,
      "d": 161.5379499999981,
      "v": 66
    },
    {
      "midi": 57,
      "hit": false,
      "t": 160211.03112499998,
      "d": 146.1533833333233,
      "v": 112
    },
    {
      "midi": 77,
      "hit": false,
      "t": 160472.56875833397,
      "d": 130.7688166666776,
      "v": 80
    },
    {
      "midi": 81,
      "hit": false,
      "t": 160472.56875833397,
      "d": 142.3072416666837,
      "v": 61
    },
    {
      "midi": 57,
      "hit": false,
      "t": 160514.87631666663,
      "d": 392.3064500000037,
      "v": 120
    },
    {
      "midi": 43,
      "hit": false,
      "t": 160626.41442500066,
      "d": 103.8458249999967,
      "v": 59
    },
    {
      "midi": 67,
      "hit": false,
      "t": 160630.26056666733,
      "d": 99.999683333328,
      "v": 68
    },
    {
      "midi": 74,
      "hit": false,
      "t": 160630.26056666733,
      "d": 146.1533833333233,
      "v": 67
    },
    {
      "midi": 65,
      "hit": false,
      "t": 160634.106708334,
      "d": 111.5381083333341,
      "v": 64
    },
    {
      "midi": 59,
      "hit": false,
      "t": 160949.49032499996,
      "d": 1415.380133333325,
      "v": 120
    },
    {
      "midi": 62,
      "hit": false,
      "t": 161576.4114166673,
      "d": 599.9980999999971,
      "v": 49
    },
    {
      "midi": 79,
      "hit": false,
      "t": 161584.10370000065,
      "d": 115.3842500000028,
      "v": 63
    },
    {
      "midi": 53,
      "hit": false,
      "t": 161584.10370000065,
      "d": 626.9210916666489,
      "v": 54
    },
    {
      "midi": 86,
      "hit": false,
      "t": 161584.10370000065,
      "d": 699.9977833333251,
      "v": 75
    },
    {
      "midi": 74,
      "hit": false,
      "t": 161591.79598333398,
      "d": 696.1516416666564,
      "v": 67
    },
    {
      "midi": 55,
      "hit": false,
      "t": 162299.48604999995,
      "d": 115.3842500000028,
      "v": 52
    },
    {
      "midi": 53,
      "hit": false,
      "t": 162399.48573333398,
      "d": 61.5382666666701,
      "v": 30
    },
    {
      "midi": 52,
      "hit": false,
      "t": 162464.8701416673,
      "d": 115.3842500000319,
      "v": 40
    },
    {
      "midi": 64,
      "hit": false,
      "t": 162464.8701416673,
      "d": 115.3842500000319,
      "v": 49
    },
    {
      "midi": 36,
      "hit": false,
      "t": 162484.10085000066,
      "d": 96.1535416666884,
      "v": 45
    },
    {
      "midi": 59,
      "hit": false,
      "t": 162487.94699166733,
      "d": 65.3844083333388,
      "v": 46
    },
    {
      "midi": 64,
      "hit": false,
      "t": 162491.7931333333,
      "d": 161.5379499999981,
      "v": 115
    },
    {
      "midi": 55,
      "hit": false,
      "t": 162491.793133334,
      "d": 80.7689750000136,
      "v": 50
    },
    {
      "midi": 64,
      "hit": false,
      "t": 162791.79218333328,
      "d": 69.2305500000075,
      "v": 103
    },
    {
      "midi": 64,
      "hit": false,
      "t": 162961.02241666662,
      "d": 142.3072416666546,
      "v": 105
    },
    {
      "midi": 64,
      "hit": false,
      "t": 163249.4830416666,
      "d": 449.9985750000051,
      "v": 108
    },
    {
      "midi": 76,
      "hit": false,
      "t": 163399.48256666734,
      "d": 61.5382666666701,
      "v": 72
    },
    {
      "midi": 79,
      "hit": false,
      "t": 163399.48256666734,
      "d": 84.6151166666823,
      "v": 73
    },
    {
      "midi": 74,
      "hit": false,
      "t": 163414.86713333402,
      "d": 46.1536999999953,
      "v": 73
    },
    {
      "midi": 86,
      "hit": false,
      "t": 163414.86713333402,
      "d": 61.5382666666701,
      "v": 75
    },
    {
      "midi": 71,
      "hit": false,
      "t": 163418.7132750007,
      "d": 65.3844083333388,
      "v": 54
    },
    {
      "midi": 60,
      "hit": false,
      "t": 163726.40460833328,
      "d": 438.460149999999,
      "v": 112
    },
    {
      "midi": 65,
      "hit": false,
      "t": 164172.55704166662,
      "d": 469.2292833333195,
      "v": 115
    },
    {
      "midi": 62,
      "hit": false,
      "t": 164341.78727500068,
      "d": 84.6151166666823,
      "v": 45
    },
    {
      "midi": 67,
      "hit": false,
      "t": 164349.47955833402,
      "d": 249.9992083333491,
      "v": 63
    },
    {
      "midi": 64,
      "hit": false,
      "t": 164426.40239166736,
      "d": 188.460941666679,
      "v": 54
    },
    {
      "midi": 64,
      "hit": false,
      "t": 164653.32474999994,
      "d": 496.1522750000004,
      "v": 115
    },
    {
      "midi": 36,
      "hit": false,
      "t": 164672.55545833404,
      "d": 1480.7645416666637,
      "v": 53
    },
    {
      "midi": 62,
      "hit": false,
      "t": 165111.01560833328,
      "d": 476.9215666666569,
      "v": 115
    },
    {
      "midi": 60,
      "hit": false,
      "t": 165568.7064666666,
      "d": 676.920933333342,
      "v": 112
    },
    {
      "midi": 73,
      "hit": false,
      "t": 166184.08913333403,
      "d": 123.0765333333402,
      "v": 69
    },
    {
      "midi": 62,
      "hit": false,
      "t": 166195.62755833328,
      "d": 115.3842500000028,
      "v": 117
    },
    {
      "midi": 46,
      "hit": false,
      "t": 166199.4737000007,
      "d": 1703.840758333361,
      "v": 36
    },
    {
      "midi": 82,
      "hit": false,
      "t": 166203.31984166737,
      "d": 1638.4563500000222,
      "v": 51
    },
    {
      "midi": 62,
      "hit": false,
      "t": 166203.31984166737,
      "d": 1796.1481583333516,
      "v": 37
    },
    {
      "midi": 74,
      "hit": false,
      "t": 166330.24251666738,
      "d": 1530.7643833333568,
      "v": 44
    },
    {
      "midi": 62,
      "hit": false,
      "t": 166495.6266083333,
      "d": 61.5382666666701,
      "v": 92
    },
    {
      "midi": 62,
      "hit": false,
      "t": 166657.1645583333,
      "d": 123.0765333333402,
      "v": 108
    },
    {
      "midi": 62,
      "hit": false,
      "t": 166961.00974999997,
      "d": 465.3831416666799,
      "v": 105
    },
    {
      "midi": 53,
      "hit": false,
      "t": 167449.46974166666,
      "d": 261.5376333333261,
      "v": 117
    },
    {
      "midi": 52,
      "hit": false,
      "t": 167911.00674166664,
      "d": 1434.6108416666684,
      "v": 115
    },
    {
      "midi": 75,
      "hit": false,
      "t": 168030.23713333404,
      "d": 123.0765333333402,
      "v": 69
    },
    {
      "midi": 40,
      "hit": false,
      "t": 168045.62170000072,
      "d": 876.920299999998,
      "v": 58
    },
    {
      "midi": 50,
      "hit": false,
      "t": 168049.46784166739,
      "d": 873.0741583333293,
      "v": 48
    },
    {
      "midi": 81,
      "hit": false,
      "t": 168049.46784166739,
      "d": 873.0741583333293,
      "v": 51
    },
    {
      "midi": 78,
      "hit": false,
      "t": 168176.3905166674,
      "d": 746.1514833333204,
      "v": 44
    },
    {
      "midi": 76,
      "hit": false,
      "t": 168926.38814166738,
      "d": 76.9228333333449,
      "v": 52
    },
    {
      "midi": 83,
      "hit": false,
      "t": 168930.23428333405,
      "d": 76.9228333333449,
      "v": 32
    },
    {
      "midi": 64,
      "hit": false,
      "t": 169384.07900000073,
      "d": 103.8458250000258,
      "v": 39
    },
    {
      "midi": 74,
      "hit": false,
      "t": 169399.4635666674,
      "d": 88.461258333351,
      "v": 36
    },
    {
      "midi": 68,
      "hit": false,
      "t": 169399.4635666674,
      "d": 103.8458250000258,
      "v": 31
    },
    {
      "midi": 71,
      "hit": false,
      "t": 169403.30970833407,
      "d": 103.8458250000258,
      "v": 33
    },
    {
      "midi": 83,
      "hit": false,
      "t": 169411.0019916674,
      "d": 96.1535416666884,
      "v": 38
    },
    {
      "midi": 76,
      "hit": false,
      "t": 169418.69427500074,
      "d": 88.461258333351,
      "v": 39
    },
    {
      "midi": 62,
      "hit": false,
      "t": 169745.61631666665,
      "d": 73.0766916666762,
      "v": 112
    },
    {
      "midi": 57,
      "hit": false,
      "t": 169849.46214166743,
      "d": 115.3842500000319,
      "v": 40
    },
    {
      "midi": 69,
      "hit": false,
      "t": 169849.46214166743,
      "d": 115.3842500000319,
      "v": 49
    },
    {
      "midi": 45,
      "hit": false,
      "t": 169868.69285000078,
      "d": 96.1535416666884,
      "v": 45
    },
    {
      "midi": 64,
      "hit": false,
      "t": 169872.53899166745,
      "d": 65.3844083333388,
      "v": 46
    },
    {
      "midi": 61,
      "hit": false,
      "t": 169876.38513333412,
      "d": 80.7689750000136,
      "v": 50
    },
    {
      "midi": 62,
      "hit": false,
      "t": 169907.15426666665,
      "d": 173.0763750000042,
      "v": 103
    },
    {
      "midi": 61,
      "hit": false,
      "t": 170207.15331666666,
      "d": 138.4610999999859,
      "v": 99
    },
    {
      "midi": 64,
      "hit": false,
      "t": 170384.0758333333,
      "d": 2838.4525499999872,
      "v": 108
    },
    {
      "midi": 81,
      "hit": false,
      "t": 170784.07456666746,
      "d": 61.5382666666701,
      "v": 72
    },
    {
      "midi": 85,
      "hit": false,
      "t": 170784.07456666746,
      "d": 84.6151166666823,
      "v": 73
    },
    {
      "midi": 93,
      "hit": false,
      "t": 170799.45913333414,
      "d": 61.5382666666701,
      "v": 75
    },
    {
      "midi": 76,
      "hit": false,
      "t": 170803.3052750008,
      "d": 65.3844083333388,
      "v": 54
    },
    {
      "midi": 79,
      "hit": false,
      "t": 171722.53313333413,
      "d": 123.0765333333402,
      "v": 69
    },
    {
      "midi": 33,
      "hit": false,
      "t": 171737.9177000008,
      "d": 876.920299999998,
      "v": 58
    },
    {
      "midi": 52,
      "hit": false,
      "t": 171741.76384166747,
      "d": 873.0741583333293,
      "v": 48
    },
    {
      "midi": 83,
      "hit": false,
      "t": 171741.76384166747,
      "d": 873.0741583333293,
      "v": 51
    },
    {
      "midi": 80,
      "hit": false,
      "t": 171868.68651666748,
      "d": 746.1514833333204,
      "v": 44
    },
    {
      "midi": 57,
      "hit": false,
      "t": 172618.68414166747,
      "d": 115.3842500000319,
      "v": 40
    },
    {
      "midi": 69,
      "hit": false,
      "t": 172618.68414166747,
      "d": 115.3842500000319,
      "v": 49
    },
    {
      "midi": 45,
      "hit": false,
      "t": 172637.91485000082,
      "d": 96.1535416666884,
      "v": 45
    },
    {
      "midi": 64,
      "hit": false,
      "t": 172641.76099166748,
      "d": 65.3844083333388,
      "v": 46
    },
    {
      "midi": 61,
      "hit": false,
      "t": 172645.60713333415,
      "d": 80.7689750000136,
      "v": 50
    },
    {
      "midi": 57,
      "hit": false,
      "t": 173080.2211416675,
      "d": 115.3842500000319,
      "v": 40
    },
    {
      "midi": 69,
      "hit": false,
      "t": 173080.2211416675,
      "d": 115.3842500000319,
      "v": 49
    },
    {
      "midi": 37,
      "hit": false,
      "t": 173099.45185000086,
      "d": 96.1535416666884,
      "v": 45
    },
    {
      "midi": 64,
      "hit": false,
      "t": 173103.29799166752,
      "d": 65.3844083333388,
      "v": 46
    },
    {
      "midi": 61,
      "hit": false,
      "t": 173107.1441333342,
      "d": 80.7689750000136,
      "v": 50
    },
    {
      "midi": 54,
      "hit": false,
      "t": 173541.75814166755,
      "d": 115.3842500000319,
      "v": 40
    },
    {
      "midi": 66,
      "hit": false,
      "t": 173541.75814166755,
      "d": 115.3842500000319,
      "v": 49
    },
    {
      "midi": 38,
      "hit": false,
      "t": 173560.9888500009,
      "d": 96.1535416666884,
      "v": 45
    },
    {
      "midi": 61,
      "hit": false,
      "t": 173564.83499166757,
      "d": 65.3844083333388,
      "v": 46
    },
    {
      "midi": 57,
      "hit": false,
      "t": 173568.68113333423,
      "d": 80.7689750000136,
      "v": 50
    },
    {
      "midi": 69,
      "hit": false,
      "t": 173595.60412499995,
      "d": 142.3072416666546,
      "v": 126
    },
    {
      "midi": 69,
      "hit": false,
      "t": 173884.06474999993,
      "d": 84.6151166666532,
      "v": 115
    },
    {
      "midi": 69,
      "hit": false,
      "t": 174064.83340833324,
      "d": 115.3842500000028,
      "v": 115
    },
    {
      "midi": 69,
      "hit": false,
      "t": 174334.0633249999,
      "d": 261.5376333333261,
      "v": 108
    },
    {
      "midi": 78,
      "hit": false,
      "t": 174476.37056666758,
      "d": 61.5382666666701,
      "v": 72
    },
    {
      "midi": 81,
      "hit": false,
      "t": 174476.37056666758,
      "d": 84.6151166666823,
      "v": 73
    },
    {
      "midi": 76,
      "hit": false,
      "t": 174491.75513333426,
      "d": 46.1536999999953,
      "v": 73
    },
    {
      "midi": 88,
      "hit": false,
      "t": 174491.75513333426,
      "d": 61.5382666666701,
      "v": 75
    },
    {
      "midi": 73,
      "hit": false,
      "t": 174495.60127500092,
      "d": 65.3844083333388,
      "v": 54
    },
    {
      "midi": 69,
      "hit": false,
      "t": 174776.36961666658,
      "d": 76.9228333333449,
      "v": 103
    },
    {
      "midi": 69,
      "hit": false,
      "t": 174957.13827499992,
      "d": 107.6919666666654,
      "v": 112
    },
    {
      "midi": 69,
      "hit": false,
      "t": 175241.75275833326,
      "d": 76.9228333333449,
      "v": 112
    },
    {
      "midi": 71,
      "hit": false,
      "t": 175407.13685000094,
      "d": 242.3069250000117,
      "v": 52
    },
    {
      "midi": 69,
      "hit": false,
      "t": 175426.36755833327,
      "d": 446.1524333333364,
      "v": 115
    },
    {
      "midi": 59,
      "hit": false,
      "t": 175760.9818833343,
      "d": 499.9984166666691,
      "v": 56
    },
    {
      "midi": 68,
      "hit": false,
      "t": 175887.90455833328,
      "d": 326.9220416666649,
      "v": 115
    },
    {
      "midi": 69,
      "hit": false,
      "t": 175891.75069999995,
      "d": 49.999841666664,
      "v": 68
    },
    {
      "midi": 70,
      "hit": false,
      "t": 176334.05699166763,
      "d": 99.9996833333571,
      "v": 75
    },
    {
      "midi": 79,
      "hit": false,
      "t": 176334.05699166763,
      "d": 196.1532250000455,
      "v": 79
    },
    {
      "midi": 68,
      "hit": false,
      "t": 176349.4415583333,
      "d": 423.0755833333242,
      "v": 120
    },
    {
      "midi": 73,
      "hit": false,
      "t": 176360.9799833343,
      "d": 99.9996833333571,
      "v": 20
    },
    {
      "midi": 73,
      "hit": false,
      "t": 176626.36375833434,
      "d": 53.8459833333327,
      "v": 39
    },
    {
      "midi": 70,
      "hit": false,
      "t": 176680.20974166767,
      "d": 38.4614166666579,
      "v": 59
    },
    {
      "midi": 69,
      "hit": false,
      "t": 176799.44013333434,
      "d": 269.2299166666926,
      "v": 63
    },
    {
      "midi": 78,
      "hit": false,
      "t": 176803.286275001,
      "d": 238.460783333343,
      "v": 62
    },
    {
      "midi": 72,
      "hit": false,
      "t": 176803.286275001,
      "d": 253.8453500000178,
      "v": 69
    },
    {
      "midi": 66,
      "hit": false,
      "t": 176814.82469999994,
      "d": 430.7678666666616,
      "v": 117
    },
    {
      "midi": 59,
      "hit": false,
      "t": 177160.97745000102,
      "d": 49.999841666664,
      "v": 44
    },
    {
      "midi": 64,
      "hit": false,
      "t": 177257.1309916666,
      "d": 746.1514833333204,
      "v": 117
    },
    {
      "midi": 57,
      "hit": false,
      "t": 177568.6684666677,
      "d": 88.461258333351,
      "v": 79
    },
    {
      "midi": 61,
      "hit": false,
      "t": 177568.6684666677,
      "d": 115.3842500000319,
      "v": 85
    },
    {
      "midi": 52,
      "hit": false,
      "t": 177580.2068916677,
      "d": 76.9228333333449,
      "v": 59
    },
    {
      "midi": 55,
      "hit": false,
      "t": 177587.89917500105,
      "d": 49.999841666664,
      "v": 78
    },
    {
      "midi": 61,
      "hit": false,
      "t": 178018.6670416666,
      "d": 2534.6073583333346,
      "v": 123
    },
    {
      "midi": 61,
      "hit": false,
      "t": 178157.12814166772,
      "d": 115.3842500000319,
      "v": 65
    },
    {
      "midi": 57,
      "hit": false,
      "t": 178176.35885000107,
      "d": 65.3844083333388,
      "v": 47
    },
    {
      "midi": 55,
      "hit": false,
      "t": 178176.35885000107,
      "d": 84.6151166666823,
      "v": 72
    },
    {
      "midi": 52,
      "hit": false,
      "t": 178176.35885000107,
      "d": 96.1535416666884,
      "v": 42
    },
    {
      "midi": 61,
      "hit": false,
      "t": 178926.35647500108,
      "d": 142.3072416667128,
      "v": 73
    },
    {
      "midi": 52,
      "hit": false,
      "t": 178945.58718333443,
      "d": 103.8458250000258,
      "v": 47
    },
    {
      "midi": 57,
      "hit": false,
      "t": 178953.27946666777,
      "d": 69.2305500000075,
      "v": 40
    },
    {
      "midi": 55,
      "hit": false,
      "t": 178953.27946666777,
      "d": 76.9228333333449,
      "v": 54
    },
    {
      "midi": 76,
      "hit": false,
      "t": 179387.89347500112,
      "d": 180.7686583333416,
      "v": 93
    },
    {
      "midi": 73,
      "hit": false,
      "t": 179395.58575833446,
      "d": 184.6148000000103,
      "v": 86
    },
    {
      "midi": 72,
      "hit": false,
      "t": 179541.7391416678,
      "d": 123.0765333333402,
      "v": 75
    },
    {
      "midi": 75,
      "hit": false,
      "t": 179541.7391416678,
      "d": 142.3072416666837,
      "v": 74
    },
    {
      "midi": 76,
      "hit": false,
      "t": 179849.43047500114,
      "d": 230.7685000000056,
      "v": 82
    },
    {
      "midi": 73,
      "hit": false,
      "t": 179849.43047500114,
      "d": 315.3836166666588,
      "v": 81
    },
    {
      "midi": 72,
      "hit": false,
      "t": 180022.50685000114,
      "d": 142.3072416666546,
      "v": 80
    },
    {
      "midi": 75,
      "hit": false,
      "t": 180022.50685000114,
      "d": 153.8456666666607,
      "v": 56
    },
    {
      "midi": 76,
      "hit": false,
      "t": 180330.19818333446,
      "d": 134.6149583333463,
      "v": 92
    },
    {
      "midi": 73,
      "hit": false,
      "t": 180337.8904666678,
      "d": 134.6149583333463,
      "v": 82
    },
    {
      "midi": 61,
      "hit": false,
      "t": 180760.96604999993,
      "d": 92.3073999999906,
      "v": 126
    },
    {
      "midi": 47,
      "hit": false,
      "t": 180934.04242500116,
      "d": 103.8458249999967,
      "v": 59
    },
    {
      "midi": 66,
      "hit": false,
      "t": 180937.88856666783,
      "d": 99.999683333328,
      "v": 68
    },
    {
      "midi": 71,
      "hit": false,
      "t": 180937.88856666783,
      "d": 146.1533833333233,
      "v": 67
    },
    {
      "midi": 62,
      "hit": false,
      "t": 180941.7347083345,
      "d": 111.5381083333341,
      "v": 64
    },
    {
      "midi": 61,
      "hit": false,
      "t": 180949.42699166658,
      "d": 226.9223583333369,
      "v": 115
    },
    {
      "midi": 62,
      "hit": false,
      "t": 181241.73375833326,
      "d": 334.6143250000023,
      "v": 103
    },
    {
      "midi": 62,
      "hit": false,
      "t": 181676.3477666666,
      "d": 1953.839966666681,
      "v": 112
    },
    {
      "midi": 59,
      "hit": false,
      "t": 181884.0394166678,
      "d": 599.9980999999971,
      "v": 49
    },
    {
      "midi": 79,
      "hit": false,
      "t": 181891.73170000114,
      "d": 115.3842500000028,
      "v": 63
    },
    {
      "midi": 50,
      "hit": false,
      "t": 181891.73170000114,
      "d": 626.9210916666489,
      "v": 54
    },
    {
      "midi": 83,
      "hit": false,
      "t": 181891.73170000114,
      "d": 699.9977833333251,
      "v": 75
    },
    {
      "midi": 71,
      "hit": false,
      "t": 181899.42398333448,
      "d": 696.1516416666564,
      "v": 67
    },
    {
      "midi": 81,
      "hit": false,
      "t": 182003.26980833447,
      "d": 473.0754249999882,
      "v": 51
    },
    {
      "midi": 50,
      "hit": false,
      "t": 182707.11373333447,
      "d": 342.3066083333397,
      "v": 30
    },
    {
      "midi": 57,
      "hit": false,
      "t": 182807.1134166678,
      "d": 238.460783333343,
      "v": 42
    },
    {
      "midi": 78,
      "hit": false,
      "t": 182807.1134166678,
      "d": 238.460783333343,
      "v": 51
    },
    {
      "midi": 83,
      "hit": false,
      "t": 182822.49798333447,
      "d": 223.0762166666682,
      "v": 50
    },
    {
      "midi": 71,
      "hit": false,
      "t": 182830.1902666678,
      "d": 219.2300749999995,
      "v": 48
    },
    {
      "midi": 71,
      "hit": false,
      "t": 183149.42002500113,
      "d": 69.2305500000075,
      "v": 72
    },
    {
      "midi": 83,
      "hit": false,
      "t": 183153.2661666678,
      "d": 73.0766916666762,
      "v": 63
    },
    {
      "midi": 78,
      "hit": false,
      "t": 183157.11230833447,
      "d": 61.5382666666701,
      "v": 66
    },
    {
      "midi": 57,
      "hit": false,
      "t": 183168.65073333448,
      "d": 69.2305500000075,
      "v": 44
    },
    {
      "midi": 50,
      "hit": false,
      "t": 183172.49687500115,
      "d": 65.3844083333388,
      "v": 36
    },
    {
      "midi": 83,
      "hit": false,
      "t": 183714.80285000114,
      "d": 92.3074000000197,
      "v": 74
    },
    {
      "midi": 71,
      "hit": false,
      "t": 183722.49513333448,
      "d": 76.9228333333449,
      "v": 62
    },
    {
      "midi": 78,
      "hit": false,
      "t": 183722.49513333448,
      "d": 76.9228333333449,
      "v": 69
    },
    {
      "midi": 57,
      "hit": false,
      "t": 183726.34127500115,
      "d": 80.7689750000136,
      "v": 42
    },
    {
      "midi": 50,
      "hit": false,
      "t": 183730.18741666782,
      "d": 80.7689750000136,
      "v": 36
    },
    {
      "midi": 57,
      "hit": false,
      "t": 184014.80189999993,
      "d": 249.9992083333491,
      "v": 115
    },
    {
      "midi": 59,
      "hit": false,
      "t": 184191.7244166666,
      "d": 280.7683416666696,
      "v": 108
    },
    {
      "midi": 61,
      "hit": false,
      "t": 184487.87732499995,
      "d": 3299.9895499999984,
      "v": 112
    },
    {
      "midi": 88,
      "hit": false,
      "t": 184637.87685000116,
      "d": 242.3069250000408,
      "v": 45
    },
    {
      "midi": 76,
      "hit": false,
      "t": 184641.72299166783,
      "d": 142.3072416666837,
      "v": 35
    },
    {
      "midi": 56,
      "hit": false,
      "t": 184641.72299166783,
      "d": 223.0762166666973,
      "v": 32
    },
    {
      "midi": 82,
      "hit": false,
      "t": 184645.5691333345,
      "d": 80.7689750000136,
      "v": 36
    },
    {
      "midi": 49,
      "hit": false,
      "t": 184649.41527500117,
      "d": 215.3839333333599,
      "v": 52
    },
    {
      "midi": 83,
      "hit": false,
      "t": 184757.10724166784,
      "d": 161.5379500000272,
      "v": 46
    },
    {
      "midi": 88,
      "hit": false,
      "t": 184976.33731666786,
      "d": 146.1533833333815,
      "v": 55
    },
    {
      "midi": 83,
      "hit": false,
      "t": 184987.87574166787,
      "d": 84.6151166666823,
      "v": 74
    },
    {
      "midi": 76,
      "hit": false,
      "t": 184991.72188333454,
      "d": 99.9996833333571,
      "v": 55
    },
    {
      "midi": 56,
      "hit": false,
      "t": 184991.72188333454,
      "d": 107.6919666666945,
      "v": 59
    },
    {
      "midi": 49,
      "hit": false,
      "t": 184999.41416666788,
      "d": 99.9996833333571,
      "v": 60
    },
    {
      "midi": 76,
      "hit": false,
      "t": 186464.79414166792,
      "d": 76.9228333333449,
      "v": 52
    },
    {
      "midi": 85,
      "hit": false,
      "t": 186468.6402833346,
      "d": 76.9228333333449,
      "v": 32
    },
    {
      "midi": 64,
      "hit": false,
      "t": 186922.48500000127,
      "d": 103.8458250000258,
      "v": 39
    },
    {
      "midi": 76,
      "hit": false,
      "t": 186937.86956666794,
      "d": 88.461258333351,
      "v": 36
    },
    {
      "midi": 69,
      "hit": false,
      "t": 186937.86956666794,
      "d": 103.8458250000258,
      "v": 31
    },
    {
      "midi": 73,
      "hit": false,
      "t": 186941.7157083346,
      "d": 103.8458250000258,
      "v": 33
    },
    {
      "midi": 85,
      "hit": false,
      "t": 186949.40799166795,
      "d": 96.1535416666884,
      "v": 38
    },
    {
      "midi": 69,
      "hit": false,
      "t": 187403.25270833465,
      "d": 223.0762166666973,
      "v": 23
    },
    {
      "midi": 64,
      "hit": false,
      "t": 187410.944991668,
      "d": 207.6916500000225,
      "v": 30
    },
    {
      "midi": 76,
      "hit": false,
      "t": 187414.79113333466,
      "d": 223.0762166666973,
      "v": 19
    },
    {
      "midi": 73,
      "hit": false,
      "t": 187418.63727500133,
      "d": 207.6916500000225,
      "v": 19
    },
    {
      "midi": 85,
      "hit": false,
      "t": 187426.32955833466,
      "d": 211.5377916666912,
      "v": 23
    },
    {
      "midi": 73,
      "hit": false,
      "t": 187745.55931666802,
      "d": 73.0766916666762,
      "v": 51
    },
    {
      "midi": 64,
      "hit": false,
      "t": 187745.55931666802,
      "d": 76.9228333333449,
      "v": 51
    },
    {
      "midi": 69,
      "hit": false,
      "t": 187745.55931666802,
      "d": 76.9228333333449,
      "v": 41
    },
    {
      "midi": 76,
      "hit": false,
      "t": 187749.4054583347,
      "d": 65.3844083333388,
      "v": 45
    },
    {
      "midi": 85,
      "hit": false,
      "t": 187764.79002500136,
      "d": 73.0766916666762,
      "v": 26
    },
    {
      "midi": 54,
      "hit": false,
      "t": 188310.94214166803,
      "d": 115.3842500000319,
      "v": 40
    },
    {
      "midi": 66,
      "hit": false,
      "t": 188310.94214166803,
      "d": 115.3842500000319,
      "v": 49
    },
    {
      "midi": 38,
      "hit": false,
      "t": 188330.17285000137,
      "d": 96.1535416666884,
      "v": 45
    },
    {
      "midi": 61,
      "hit": false,
      "t": 188334.01899166804,
      "d": 65.3844083333388,
      "v": 46
    },
    {
      "midi": 57,
      "hit": false,
      "t": 188337.8651333347,
      "d": 80.7689750000136,
      "v": 50
    },
    {
      "midi": 69,
      "hit": false,
      "t": 188360.9419833333,
      "d": 119.2303916666715,
      "v": 117
    },
    {
      "midi": 69,
      "hit": false,
      "t": 188630.17189999996,
      "d": 73.0766916666762,
      "v": 105
    },
    {
      "midi": 69,
      "hit": false,
      "t": 188807.09441666663,
      "d": 115.3842500000028,
      "v": 108
    },
    {
      "midi": 69,
      "hit": false,
      "t": 189099.4011833333,
      "d": 319.2297583333275,
      "v": 115
    },
    {
      "midi": 78,
      "hit": false,
      "t": 189245.55456666806,
      "d": 61.5382666666701,
      "v": 72
    },
    {
      "midi": 81,
      "hit": false,
      "t": 189245.55456666806,
      "d": 84.6151166666823,
      "v": 73
    },
    {
      "midi": 76,
      "hit": false,
      "t": 189260.93913333473,
      "d": 46.1536999999953,
      "v": 73
    },
    {
      "midi": 88,
      "hit": false,
      "t": 189260.93913333473,
      "d": 61.5382666666701,
      "v": 75
    },
    {
      "midi": 73,
      "hit": false,
      "t": 189264.7852750014,
      "d": 65.3844083333388,
      "v": 54
    },
    {
      "midi": 69,
      "hit": false,
      "t": 189572.4766083333,
      "d": 69.2305500000075,
      "v": 112
    },
    {
      "midi": 69,
      "hit": false,
      "t": 189745.5529833333,
      "d": 107.6919666666654,
      "v": 110
    },
    {
      "midi": 69,
      "hit": false,
      "t": 190026.32132499997,
      "d": 69.2305500000075,
      "v": 112
    },
    {
      "midi": 38,
      "hit": false,
      "t": 190164.7824250014,
      "d": 65.3844083333388,
      "v": 38
    },
    {
      "midi": 59,
      "hit": false,
      "t": 190168.62856666808,
      "d": 80.7689750000136,
      "v": 51
    },
    {
      "midi": 56,
      "hit": false,
      "t": 190172.47470833475,
      "d": 88.461258333351,
      "v": 48
    },
    {
      "midi": 64,
      "hit": false,
      "t": 190187.85927500142,
      "d": 65.3844083333388,
      "v": 51
    },
    {
      "midi": 69,
      "hit": false,
      "t": 190210.93612499998,
      "d": 411.5371583333472,
      "v": 112
    },
    {
      "midi": 68,
      "hit": false,
      "t": 190664.78084166665,
      "d": 319.2297583333275,
      "v": 115
    },
    {
      "midi": 68,
      "hit": false,
      "t": 191122.47169999997,
      "d": 430.7678666666616,
      "v": 115
    },
    {
      "midi": 66,
      "hit": false,
      "t": 191580.1625583333,
      "d": 449.9985750000051,
      "v": 117
    },
    {
      "midi": 92,
      "hit": false,
      "t": 192022.46885000143,
      "d": 242.3069250000408,
      "v": 45
    },
    {
      "midi": 80,
      "hit": false,
      "t": 192026.3149916681,
      "d": 142.3072416666837,
      "v": 35
    },
    {
      "midi": 59,
      "hit": false,
      "t": 192026.3149916681,
      "d": 223.0762166666973,
      "v": 32
    },
    {
      "midi": 86,
      "hit": false,
      "t": 192030.16113333477,
      "d": 80.7689750000136,
      "v": 36
    },
    {
      "midi": 52,
      "hit": false,
      "t": 192034.00727500144,
      "d": 215.3839333333599,
      "v": 52
    },
    {
      "midi": 64,
      "hit": false,
      "t": 192041.69955833332,
      "d": 1453.8415499999828,
      "v": 117
    },
    {
      "midi": 87,
      "hit": false,
      "t": 192141.6992416681,
      "d": 161.5379500000272,
      "v": 46
    },
    {
      "midi": 92,
      "hit": false,
      "t": 192360.92931666813,
      "d": 146.1533833333815,
      "v": 55
    },
    {
      "midi": 87,
      "hit": false,
      "t": 192372.46774166814,
      "d": 84.6151166666823,
      "v": 74
    },
    {
      "midi": 80,
      "hit": false,
      "t": 192376.3138833348,
      "d": 99.9996833333571,
      "v": 55
    },
    {
      "midi": 59,
      "hit": false,
      "t": 192376.3138833348,
      "d": 107.6919666666945,
      "v": 59
    },
    {
      "midi": 52,
      "hit": false,
      "t": 192384.00616666814,
      "d": 99.9996833333571,
      "v": 60
    },
    {
      "midi": 68,
      "hit": false,
      "t": 193449.3874083333,
      "d": 426.9217249999929,
      "v": 123
    },
    {
      "midi": 92,
      "hit": false,
      "t": 193868.6168500015,
      "d": 242.3069250000408,
      "v": 45
    },
    {
      "midi": 80,
      "hit": false,
      "t": 193872.46299166817,
      "d": 142.3072416666837,
      "v": 35
    },
    {
      "midi": 59,
      "hit": false,
      "t": 193872.46299166817,
      "d": 223.0762166666973,
      "v": 32
    },
    {
      "midi": 86,
      "hit": false,
      "t": 193876.30913333484,
      "d": 80.7689750000136,
      "v": 31
    },
    {
      "midi": 52,
      "hit": false,
      "t": 193880.1552750015,
      "d": 215.3839333333599,
      "v": 52
    },
    {
      "midi": 66,
      "hit": false,
      "t": 193887.8475583333,
      "d": 1311.5343083333282,
      "v": 120
    },
    {
      "midi": 86,
      "hit": false,
      "t": 193987.84724166818,
      "d": 161.5379500000272,
      "v": 55
    },
    {
      "midi": 92,
      "hit": false,
      "t": 194207.0773166682,
      "d": 146.1533833333815,
      "v": 55
    },
    {
      "midi": 86,
      "hit": false,
      "t": 194218.6157416682,
      "d": 84.6151166666823,
      "v": 74
    },
    {
      "midi": 80,
      "hit": false,
      "t": 194222.46188333488,
      "d": 99.9996833333571,
      "v": 55
    },
    {
      "midi": 59,
      "hit": false,
      "t": 194222.46188333488,
      "d": 107.6919666666945,
      "v": 59
    },
    {
      "midi": 52,
      "hit": false,
      "t": 194230.15416666822,
      "d": 99.9996833333571,
      "v": 60
    },
    {
      "midi": 78,
      "hit": false,
      "t": 194772.46014166824,
      "d": 76.9228333333449,
      "v": 52
    },
    {
      "midi": 85,
      "hit": false,
      "t": 194776.3062833349,
      "d": 76.9228333333449,
      "v": 32
    },
    {
      "midi": 66,
      "hit": false,
      "t": 195230.15100000158,
      "d": 103.8458250000258,
      "v": 39
    },
    {
      "midi": 76,
      "hit": false,
      "t": 195245.53556666826,
      "d": 88.461258333351,
      "v": 36
    },
    {
      "midi": 70,
      "hit": false,
      "t": 195245.53556666826,
      "d": 103.8458250000258,
      "v": 31
    },
    {
      "midi": 73,
      "hit": false,
      "t": 195249.38170833493,
      "d": 103.8458250000258,
      "v": 33
    },
    {
      "midi": 85,
      "hit": false,
      "t": 195257.07399166827,
      "d": 96.1535416666884,
      "v": 38
    },
    {
      "midi": 78,
      "hit": false,
      "t": 195264.7662750016,
      "d": 88.461258333351,
      "v": 39
    },
    {
      "midi": 74,
      "hit": false,
      "t": 196033.99460833496,
      "d": 153.8456666666607,
      "v": 79
    },
    {
      "midi": 78,
      "hit": false,
      "t": 196041.6868916683,
      "d": 153.8456666666607,
      "v": 70
    },
    {
      "midi": 74,
      "hit": false,
      "t": 196199.37870000163,
      "d": 184.6148000000103,
      "v": 58
    },
    {
      "midi": 77,
      "hit": false,
      "t": 196199.37870000163,
      "d": 192.3070833333477,
      "v": 57
    },
    {
      "midi": 74,
      "hit": false,
      "t": 196495.53160833498,
      "d": 176.9225166666729,
      "v": 72
    },
    {
      "midi": 78,
      "hit": false,
      "t": 196495.53160833498,
      "d": 184.6148000000103,
      "v": 74
    },
    {
      "midi": 77,
      "hit": false,
      "t": 196649.37727500164,
      "d": 284.6144833333383,
      "v": 42
    },
    {
      "midi": 74,
      "hit": false,
      "t": 196933.99175833497,
      "d": 196.1532250000164,
      "v": 85
    },
    {
      "midi": 78,
      "hit": false,
      "t": 196937.83790000164,
      "d": 192.3070833333477,
      "v": 86
    },
    {
      "midi": 71,
      "hit": false,
      "t": 197122.45270000165,
      "d": 284.6144833333383,
      "v": 64
    },
    {
      "midi": 66,
      "hit": false,
      "t": 197410.91332500166,
      "d": 76.9228333333449,
      "v": 61
    },
    {
      "midi": 77,
      "hit": false,
      "t": 197564.75899166835,
      "d": 303.8451916666818,
      "v": 64
    },
    {
      "midi": 74,
      "hit": false,
      "t": 197572.4512750017,
      "d": 292.3067666666757,
      "v": 65
    },
    {
      "midi": 74,
      "hit": false,
      "t": 197868.60418333503,
      "d": 146.1533833333233,
      "v": 71
    },
    {
      "midi": 78,
      "hit": false,
      "t": 197876.29646666837,
      "d": 138.4610999999859,
      "v": 68
    },
    {
      "midi": 77,
      "hit": false,
      "t": 198041.68055833504,
      "d": 288.460625000007,
      "v": 75
    },
    {
      "midi": 74,
      "hit": false,
      "t": 198045.5267000017,
      "d": 276.9222000000009,
      "v": 63
    },
    {
      "midi": 74,
      "hit": false,
      "t": 198341.67960833505,
      "d": 388.460308333335,
      "v": 77
    },
    {
      "midi": 78,
      "hit": false,
      "t": 198349.3718916684,
      "d": 369.2295999999915,
      "v": 74
    },
    {
      "midi": 74,
      "hit": false,
      "t": 199726.29060833505,
      "d": 153.8456666666607,
      "v": 79
    },
    {
      "midi": 78,
      "hit": false,
      "t": 199733.9828916684,
      "d": 153.8456666666607,
      "v": 70
    },
    {
      "midi": 74,
      "hit": false,
      "t": 199891.67470000172,
      "d": 184.6148000000103,
      "v": 58
    },
    {
      "midi": 77,
      "hit": false,
      "t": 199891.67470000172,
      "d": 192.3070833333477,
      "v": 57
    },
    {
      "midi": 74,
      "hit": false,
      "t": 200187.82760833506,
      "d": 176.9225166666729,
      "v": 72
    },
    {
      "midi": 78,
      "hit": false,
      "t": 200187.82760833506,
      "d": 184.6148000000103,
      "v": 74
    },
    {
      "midi": 77,
      "hit": false,
      "t": 200341.67327500173,
      "d": 284.6144833333383,
      "v": 42
    },
    {
      "midi": 74,
      "hit": false,
      "t": 200626.28775833506,
      "d": 196.1532250000164,
      "v": 85
    },
    {
      "midi": 78,
      "hit": false,
      "t": 200630.13390000173,
      "d": 192.3070833333477,
      "v": 86
    },
    {
      "midi": 71,
      "hit": false,
      "t": 200814.74870000174,
      "d": 284.6144833333383,
      "v": 64
    },
    {
      "midi": 66,
      "hit": false,
      "t": 201103.20932500175,
      "d": 76.9228333333449,
      "v": 61
    },
    {
      "midi": 77,
      "hit": false,
      "t": 201257.05499166844,
      "d": 303.8451916666818,
      "v": 64
    },
    {
      "midi": 74,
      "hit": false,
      "t": 201264.74727500178,
      "d": 292.3067666666757,
      "v": 65
    },
    {
      "midi": 74,
      "hit": false,
      "t": 201560.90018333512,
      "d": 146.1533833333233,
      "v": 71
    },
    {
      "midi": 78,
      "hit": false,
      "t": 201568.59246666846,
      "d": 138.4610999999859,
      "v": 68
    },
    {
      "midi": 77,
      "hit": false,
      "t": 201733.97655833513,
      "d": 288.460625000007,
      "v": 75
    },
    {
      "midi": 74,
      "hit": false,
      "t": 201737.8227000018,
      "d": 276.9222000000009,
      "v": 63
    },
    {
      "midi": 74,
      "hit": false,
      "t": 202033.97560833514,
      "d": 388.460308333335,
      "v": 77
    },
    {
      "midi": 78,
      "hit": false,
      "t": 202041.66789166848,
      "d": 369.2295999999915,
      "v": 74
    },
    {
      "midi": 45,
      "hit": false,
      "t": 203087.8184250018,
      "d": 65.3844083333388,
      "v": 38
    },
    {
      "midi": 62,
      "hit": false,
      "t": 203091.66456666848,
      "d": 80.7689750000136,
      "v": 51
    },
    {
      "midi": 57,
      "hit": false,
      "t": 203095.51070833515,
      "d": 88.461258333351,
      "v": 48
    },
    {
      "midi": 66,
      "hit": false,
      "t": 203110.89527500182,
      "d": 65.3844083333388,
      "v": 51
    },
    {
      "midi": 73,
      "hit": false,
      "t": 204964.73555833517,
      "d": 242.3069250000117,
      "v": 67
    },
    {
      "midi": 45,
      "hit": false,
      "t": 205260.88846666852,
      "d": 103.8458249999967,
      "v": 50
    },
    {
      "midi": 85,
      "hit": false,
      "t": 205407.04185000184,
      "d": 161.5379499999981,
      "v": 67
    },
    {
      "midi": 73,
      "hit": false,
      "t": 205407.04185000184,
      "d": 234.6146416666743,
      "v": 63
    },
    {
      "midi": 88,
      "hit": false,
      "t": 205868.57885000185,
      "d": 242.3069250000408,
      "v": 45
    },
    {
      "midi": 76,
      "hit": false,
      "t": 205872.42499166852,
      "d": 142.3072416666837,
      "v": 35
    },
    {
      "midi": 57,
      "hit": false,
      "t": 205872.42499166852,
      "d": 223.0762166666973,
      "v": 32
    },
    {
      "midi": 86,
      "hit": false,
      "t": 205876.2711333352,
      "d": 80.7689750000136,
      "v": 31
    },
    {
      "midi": 49,
      "hit": false,
      "t": 205880.11727500186,
      "d": 215.3839333333599,
      "v": 52
    },
    {
      "midi": 86,
      "hit": false,
      "t": 205987.80924166852,
      "d": 161.5379500000272,
      "v": 55
    },
    {
      "midi": 88,
      "hit": false,
      "t": 206207.03931666855,
      "d": 146.1533833333815,
      "v": 55
    },
    {
      "midi": 86,
      "hit": false,
      "t": 206218.57774166856,
      "d": 84.6151166666823,
      "v": 74
    },
    {
      "midi": 76,
      "hit": false,
      "t": 206222.42388333523,
      "d": 99.9996833333571,
      "v": 55
    },
    {
      "midi": 57,
      "hit": false,
      "t": 206222.42388333523,
      "d": 107.6919666666945,
      "v": 59
    },
    {
      "midi": 49,
      "hit": false,
      "t": 206230.11616666857,
      "d": 99.9996833333571,
      "v": 60
    },
    {
      "midi": 63,
      "hit": false,
      "t": 206780.11442500193,
      "d": 84.6151166666532,
      "v": 76
    },
    {
      "midi": 64,
      "hit": false,
      "t": 206822.42198333525,
      "d": 365.3834583333228,
      "v": 79
    },
    {
      "midi": 52,
      "hit": false,
      "t": 207137.8056000019,
      "d": 346.1527500000084,
      "v": 80
    },
    {
      "midi": 86,
      "hit": false,
      "t": 207745.49598333525,
      "d": 153.8456666666607,
      "v": 76
    },
    {
      "midi": 71,
      "hit": false,
      "t": 207745.49598333525,
      "d": 161.5379499999981,
      "v": 85
    },
    {
      "midi": 93,
      "hit": false,
      "t": 207753.18826666859,
      "d": 161.5379499999981,
      "v": 76
    },
    {
      "midi": 87,
      "hit": false,
      "t": 208633.95470833525,
      "d": 126.9226750000089,
      "v": 92
    },
    {
      "midi": 72,
      "hit": false,
      "t": 208633.95470833525,
      "d": 153.8456666666898,
      "v": 90
    },
    {
      "midi": 93,
      "hit": false,
      "t": 208645.49313333526,
      "d": 169.2302333333646,
      "v": 76
    },
    {
      "midi": 73,
      "hit": false,
      "t": 209407.02918333528,
      "d": 1053.8428166666708,
      "v": 84
    },
    {
      "midi": 88,
      "hit": false,
      "t": 209407.02918333528,
      "d": 1053.8428166666708,
      "v": 85
    },
    {
      "midi": 93,
      "hit": false,
      "t": 209410.87532500195,
      "d": 1049.9966750000021,
      "v": 76
    }
  ]
}