{
  "jsonPath": "Pop/New Wave Pop/Terry Hall/from-dawn-to-distraction.json",
  "path": "Pop\\New Wave Pop\\Terry Hall\\From Dawn To Distraction.mid",
  "name": "From Dawn To Distraction",
  "difficulty": "Intermediate",
  "bpm": 118.00245445105259,
  "notes": [
    {
      "midi": 38,
      "hit": false,
      "t": 4067.7160000000003,
      "d": 6302.841197916667,
      "v": 88
    },
    {
      "midi": 62,
      "hit": false,
      "t": 5084.645,
      "d": 1377.0913541666669,
      "v": 65
    },
    {
      "midi": 65,
      "hit": false,
      "t": 5084.645,
      "d": 1387.6843645833333,
      "v": 80
    },
    {
      "midi": 69,
      "hit": false,
      "t": 5084.645,
      "d": 1387.6843645833333,
      "v": 69
    },
    {
      "midi": 50,
      "hit": false,
      "t": 6090.980989583334,
      "d": 1165.2311458333324,
      "v": 62
    },
    {
      "midi": 67,
      "hit": false,
      "t": 6599.445489583333,
      "d": 1355.9053333333331,
      "v": 67
    },
    {
      "midi": 64,
      "hit": false,
      "t": 6599.445489583333,
      "d": 1419.4633958333334,
      "v": 69
    },
    {
      "midi": 50,
      "hit": false,
      "t": 7616.374489583333,
      "d": 932.184916666667,
      "v": 58
    },
    {
      "midi": 65,
      "hit": false,
      "t": 8135.432,
      "d": 1377.0913541666678,
      "v": 72
    },
    {
      "midi": 62,
      "hit": false,
      "t": 8135.432,
      "d": 1387.684364583335,
      "v": 62
    },
    {
      "midi": 69,
      "hit": false,
      "t": 8146.025010416666,
      "d": 1366.4983437500014,
      "v": 69
    },
    {
      "midi": 50,
      "hit": false,
      "t": 9152.361,
      "d": 2796.5547499999993,
      "v": 70
    },
    {
      "midi": 64,
      "hit": false,
      "t": 9660.8255,
      "d": 1377.0913541666669,
      "v": 70
    },
    {
      "midi": 67,
      "hit": false,
      "t": 9660.8255,
      "d": 1387.6843645833342,
      "v": 66
    },
    {
      "midi": 38,
      "hit": false,
      "t": 10667.161489583334,
      "d": 1440.649416666667,
      "v": 70
    },
    {
      "midi": 65,
      "hit": false,
      "t": 11186.219000000001,
      "d": 953.3709374999999,
      "v": 78
    },
    {
      "midi": 62,
      "hit": false,
      "t": 11186.219000000001,
      "d": 995.7429791666673,
      "v": 66
    },
    {
      "midi": 43,
      "hit": false,
      "t": 12203.148000000001,
      "d": 1694.8816666666662,
      "v": 85
    },
    {
      "midi": 53,
      "hit": false,
      "t": 13220.077000000001,
      "d": 1302.9402812499993,
      "v": 62
    },
    {
      "midi": 62,
      "hit": false,
      "t": 13220.077000000001,
      "d": 1313.5332916666666,
      "v": 66
    },
    {
      "midi": 58,
      "hit": false,
      "t": 13220.077000000001,
      "d": 1377.0913541666669,
      "v": 77
    },
    {
      "midi": 43,
      "hit": false,
      "t": 14226.412989583334,
      "d": 1186.4171666666662,
      "v": 66
    },
    {
      "midi": 57,
      "hit": false,
      "t": 14734.877489583334,
      "d": 1186.4171666666662,
      "v": 62
    },
    {
      "midi": 53,
      "hit": false,
      "t": 14734.877489583334,
      "d": 1334.7193124999994,
      "v": 58
    },
    {
      "midi": 60,
      "hit": false,
      "t": 14734.877489583334,
      "d": 1440.6494166666653,
      "v": 66
    },
    {
      "midi": 43,
      "hit": false,
      "t": 15751.806489583334,
      "d": 4533.808458333329,
      "v": 69
    },
    {
      "midi": 52,
      "hit": false,
      "t": 16270.864,
      "d": 3675.7746145833316,
      "v": 66
    },
    {
      "midi": 55,
      "hit": false,
      "t": 16270.864,
      "d": 3707.5536458333318,
      "v": 80
    },
    {
      "midi": 58,
      "hit": false,
      "t": 16270.864,
      "d": 3749.9256874999974,
      "v": 59
    },
    {
      "midi": 45,
      "hit": false,
      "t": 20338.579999999998,
      "d": 3336.7982812500013,
      "v": 62
    },
    {
      "midi": 57,
      "hit": false,
      "t": 20836.45148958333,
      "d": 3389.763333333336,
      "v": 61
    },
    {
      "midi": 61,
      "hit": false,
      "t": 21344.91598958333,
      "d": 2944.856895833338,
      "v": 67
    },
    {
      "midi": 67,
      "hit": false,
      "t": 21853.38048958333,
      "d": 974.5569583333345,
      "v": 67
    },
    {
      "midi": 65,
      "hit": false,
      "t": 22870.30948958333,
      "d": 1355.9053333333359,
      "v": 75
    },
    {
      "midi": 45,
      "hit": false,
      "t": 23897.8315,
      "d": 1239.382218750001,
      "v": 68
    },
    {
      "midi": 64,
      "hit": false,
      "t": 24406.296000000002,
      "d": 1747.8467187499991,
      "v": 58
    },
    {
      "midi": 55,
      "hit": false,
      "t": 24406.296000000002,
      "d": 3993.5649270833346,
      "v": 66
    },
    {
      "midi": 61,
      "hit": false,
      "t": 24406.296000000002,
      "d": 4110.088041666666,
      "v": 63
    },
    {
      "midi": 45,
      "hit": false,
      "t": 25423.225000000002,
      "d": 1271.1612499999974,
      "v": 61
    },
    {
      "midi": 65,
      "hit": false,
      "t": 25931.6895,
      "d": 1430.0564062500016,
      "v": 75
    },
    {
      "midi": 45,
      "hit": false,
      "t": 26948.6185,
      "d": 1451.2424270833362,
      "v": 60
    },
    {
      "midi": 64,
      "hit": false,
      "t": 27457.083000000002,
      "d": 1016.9290000000001,
      "v": 69
    },
    {
      "midi": 38,
      "hit": false,
      "t": 28474.012000000002,
      "d": 8082.466947916662,
      "v": 64
    },
    {
      "midi": 65,
      "hit": false,
      "t": 29480.347989583333,
      "d": 1387.6843645833324,
      "v": 74
    },
    {
      "midi": 69,
      "hit": false,
      "t": 29490.941,
      "d": 1387.6843645833324,
      "v": 72
    },
    {
      "midi": 50,
      "hit": false,
      "t": 30507.87,
      "d": 1175.824156249997,
      "v": 56
    },
    {
      "midi": 64,
      "hit": false,
      "t": 31005.74148958333,
      "d": 1430.056406249998,
      "v": 73
    },
    {
      "midi": 67,
      "hit": false,
      "t": 31016.334499999997,
      "d": 1430.056406249998,
      "v": 73
    },
    {
      "midi": 50,
      "hit": false,
      "t": 32022.670489583328,
      "d": 1694.8816666666644,
      "v": 65
    },
    {
      "midi": 62,
      "hit": false,
      "t": 32541.727999999996,
      "d": 1716.067687499999,
      "v": 67
    },
    {
      "midi": 65,
      "hit": false,
      "t": 32541.727999999996,
      "d": 1726.6606979166681,
      "v": 72
    },
    {
      "midi": 50,
      "hit": false,
      "t": 34067.121499999994,
      "d": 2499.95045833334,
      "v": 66
    },
    {
      "midi": 65,
      "hit": false,
      "t": 34575.585999999996,
      "d": 455.4994479166635,
      "v": 71
    },
    {
      "midi": 64,
      "hit": false,
      "t": 35073.45748958333,
      "d": 1440.649416666667,
      "v": 74
    },
    {
      "midi": 50,
      "hit": false,
      "t": 36609.444,
      "d": 7997.722864583346,
      "v": 66
    },
    {
      "midi": 65,
      "hit": false,
      "t": 37626.37300000001,
      "d": 1324.1263020833358,
      "v": 79
    },
    {
      "midi": 69,
      "hit": false,
      "t": 37626.37300000001,
      "d": 1345.3123229166667,
      "v": 74
    },
    {
      "midi": 64,
      "hit": false,
      "t": 39141.17348958334,
      "d": 1461.835437499998,
      "v": 70
    },
    {
      "midi": 67,
      "hit": false,
      "t": 39151.76650000001,
      "d": 1430.056406249998,
      "v": 71
    },
    {
      "midi": 62,
      "hit": false,
      "t": 40677.16000000001,
      "d": 2150.3811145833315,
      "v": 71
    },
    {
      "midi": 65,
      "hit": false,
      "t": 40677.16000000001,
      "d": 2150.3811145833315,
      "v": 76
    },
    {
      "midi": 60,
      "hit": false,
      "t": 43208.889489583344,
      "d": 1366.498343750005,
      "v": 79
    },
    {
      "midi": 64,
      "hit": false,
      "t": 43208.889489583344,
      "d": 1398.2773750000051,
      "v": 74
    },
    {
      "midi": 55,
      "hit": false,
      "t": 43219.48250000001,
      "d": 1292.3472708333356,
      "v": 83
    },
    {
      "midi": 53,
      "hit": false,
      "t": 44744.87600000002,
      "d": 3792.2977291666684,
      "v": 78
    },
    {
      "midi": 62,
      "hit": false,
      "t": 44744.87600000002,
      "d": 3802.8907395833376,
      "v": 68
    },
    {
      "midi": 58,
      "hit": false,
      "t": 44744.87600000002,
      "d": 3919.413854166669,
      "v": 54
    },
    {
      "midi": 43,
      "hit": false,
      "t": 44744.87600000002,
      "d": 7817.6416874999995,
      "v": 72
    },
    {
      "midi": 52,
      "hit": false,
      "t": 48823.18501041669,
      "d": 3135.531083333335,
      "v": 68
    },
    {
      "midi": 55,
      "hit": false,
      "t": 48823.18501041669,
      "d": 3188.496135416666,
      "v": 61
    },
    {
      "midi": 58,
      "hit": false,
      "t": 48823.18501041669,
      "d": 3209.682156249997,
      "v": 44
    },
    {
      "midi": 62,
      "hit": false,
      "t": 48823.18501041669,
      "d": 3230.868177083328,
      "v": 62
    },
    {
      "midi": 62,
      "hit": false,
      "t": 52880.30800000002,
      "d": 3930.006864583338,
      "v": 68
    },
    {
      "midi": 55,
      "hit": false,
      "t": 52880.30800000002,
      "d": 7711.711583333345,
      "v": 65
    },
    {
      "midi": 45,
      "hit": false,
      "t": 52880.30800000002,
      "d": 8093.059958333339,
      "v": 58
    },
    {
      "midi": 57,
      "hit": false,
      "t": 52890.90101041669,
      "d": 7690.525562500006,
      "v": 67
    },
    {
      "midi": 61,
      "hit": false,
      "t": 56948.02400000003,
      "d": 3665.181604166668,
      "v": 66
    },
    {
      "midi": 38,
      "hit": false,
      "t": 61026.33301041669,
      "d": 7838.8277083333305,
      "v": 78
    },
    {
      "midi": 57,
      "hit": false,
      "t": 61524.20450000002,
      "d": 932.1849166666652,
      "v": 68
    },
    {
      "midi": 62,
      "hit": false,
      "t": 62032.66900000002,
      "d": 476.68546874999447,
      "v": 73
    },
    {
      "midi": 65,
      "hit": false,
      "t": 62541.13350000002,
      "d": 910.9988958333342,
      "v": 74
    },
    {
      "midi": 69,
      "hit": false,
      "t": 62541.13350000002,
      "d": 921.5919062500034,
      "v": 78
    },
    {
      "midi": 64,
      "hit": false,
      "t": 63547.46948958335,
      "d": 1483.0214583333363,
      "v": 76
    },
    {
      "midi": 67,
      "hit": false,
      "t": 63558.06250000002,
      "d": 1461.835437499998,
      "v": 74
    },
    {
      "midi": 62,
      "hit": false,
      "t": 65094.04901041669,
      "d": 1737.2537083333227,
      "v": 69
    },
    {
      "midi": 65,
      "hit": false,
      "t": 65094.04901041669,
      "d": 1758.439729166661,
      "v": 79
    },
    {
      "midi": 50,
      "hit": false,
      "t": 66598.25648958335,
      "d": 2298.6832604166702,
      "v": 63
    },
    {
      "midi": 62,
      "hit": false,
      "t": 67106.72098958335,
      "d": 497.87148958334,
      "v": 75
    },
    {
      "midi": 65,
      "hit": false,
      "t": 67106.72098958335,
      "d": 519.0575104166637,
      "v": 79
    },
    {
      "midi": 64,
      "hit": false,
      "t": 67615.18548958335,
      "d": 1292.3472708333284,
      "v": 75
    },
    {
      "midi": 50,
      "hit": false,
      "t": 69151.17200000002,
      "d": 7987.1298541666765,
      "v": 66
    },
    {
      "midi": 65,
      "hit": false,
      "t": 70168.10100000002,
      "d": 1324.1263020833285,
      "v": 75
    },
    {
      "midi": 69,
      "hit": false,
      "t": 70168.10100000002,
      "d": 1345.3123229166667,
      "v": 74
    },
    {
      "midi": 64,
      "hit": false,
      "t": 71682.90148958335,
      "d": 1461.8354375000054,
      "v": 70
    },
    {
      "midi": 67,
      "hit": false,
      "t": 71693.49450000002,
      "d": 1430.0564062500052,
      "v": 71
    },
    {
      "midi": 65,
      "hit": false,
      "t": 73218.88800000002,
      "d": 2139.7881041666697,
      "v": 76
    },
    {
      "midi": 62,
      "hit": false,
      "t": 73218.88800000002,
      "d": 2150.3811145833315,
      "v": 71
    },
    {
      "midi": 60,
      "hit": false,
      "t": 75750.61748958335,
      "d": 1366.498343750005,
      "v": 83
    },
    {
      "midi": 55,
      "hit": false,
      "t": 75761.21050000002,
      "d": 1302.9402812500048,
      "v": 83
    },
    {
      "midi": 64,
      "hit": false,
      "t": 75761.21050000002,
      "d": 1387.6843645833433,
      "v": 74
    },
    {
      "midi": 53,
      "hit": false,
      "t": 77286.60400000002,
      "d": 3792.297729166661,
      "v": 78
    },
    {
      "midi": 62,
      "hit": false,
      "t": 77286.60400000002,
      "d": 3802.890739583323,
      "v": 68
    },
    {
      "midi": 58,
      "hit": false,
      "t": 77286.60400000002,
      "d": 3919.4138541666616,
      "v": 54
    },
    {
      "midi": 43,
      "hit": false,
      "t": 77286.60400000002,
      "d": 7807.048677083338,
      "v": 72
    },
    {
      "midi": 52,
      "hit": false,
      "t": 81354.32000000002,
      "d": 3146.124093749997,
      "v": 68
    },
    {
      "midi": 55,
      "hit": false,
      "t": 81354.32000000002,
      "d": 3199.0891458333354,
      "v": 61
    },
    {
      "midi": 58,
      "hit": false,
      "t": 81354.32000000002,
      "d": 3220.2751666666736,
      "v": 44
    },
    {
      "midi": 62,
      "hit": false,
      "t": 81354.32000000002,
      "d": 3252.0541979166737,
      "v": 62
    },
    {
      "midi": 62,
      "hit": false,
      "t": 85422.03600000002,
      "d": 3930.006864583338,
      "v": 68
    },
    {
      "midi": 57,
      "hit": false,
      "t": 85422.03600000002,
      "d": 7701.118572916661,
      "v": 55
    },
    {
      "midi": 55,
      "hit": false,
      "t": 85422.03600000002,
      "d": 7711.711583333323,
      "v": 65
    },
    {
      "midi": 45,
      "hit": false,
      "t": 85422.03600000002,
      "d": 8093.059958333324,
      "v": 58
    },
    {
      "midi": 61,
      "hit": false,
      "t": 89489.75200000002,
      "d": 3665.1816041666607,
      "v": 66
    },
    {
      "midi": 38,
      "hit": false,
      "t": 93568.06101041668,
      "d": 7849.420718750014,
      "v": 67
    },
    {
      "midi": 57,
      "hit": false,
      "t": 94065.93250000002,
      "d": 932.1849166666652,
      "v": 68
    },
    {
      "midi": 62,
      "hit": false,
      "t": 94574.39700000003,
      "d": 476.68546875000175,
      "v": 73
    },
    {
      "midi": 65,
      "hit": false,
      "t": 95082.86150000003,
      "d": 889.8128749999887,
      "v": 74
    },
    {
      "midi": 69,
      "hit": false,
      "t": 95093.45451041669,
      "d": 900.4058854166651,
      "v": 78
    },
    {
      "midi": 67,
      "hit": false,
      "t": 96089.19748958336,
      "d": 1472.4284479166672,
      "v": 74
    },
    {
      "midi": 64,
      "hit": false,
      "t": 96089.19748958336,
      "d": 1483.021458333329,
      "v": 76
    },
    {
      "midi": 62,
      "hit": false,
      "t": 97625.18400000002,
      "d": 1737.2537083333445,
      "v": 69
    },
    {
      "midi": 65,
      "hit": false,
      "t": 97625.18400000002,
      "d": 1747.8467187500064,
      "v": 79
    },
    {
      "midi": 50,
      "hit": false,
      "t": 99150.57750000003,
      "d": 2288.0902500000084,
      "v": 63
    },
    {
      "midi": 62,
      "hit": false,
      "t": 99659.04200000003,
      "d": 487.2784791666636,
      "v": 75
    },
    {
      "midi": 62,
      "hit": false,
      "t": 101692.90000000004,
      "d": 2245.718208333332,
      "v": 63
    },
    {
      "midi": 53,
      "hit": false,
      "t": 101692.90000000004,
      "d": 2266.90422916667,
      "v": 66
    },
    {
      "midi": 58,
      "hit": false,
      "t": 101692.90000000004,
      "d": 2277.497239583332,
      "v": 69
    },
    {
      "midi": 43,
      "hit": false,
      "t": 101692.90000000004,
      "d": 3887.634822916647,
      "v": 72
    },
    {
      "midi": 58,
      "hit": false,
      "t": 104224.62948958337,
      "d": 1324.126302083314,
      "v": 77
    },
    {
      "midi": 53,
      "hit": false,
      "t": 104235.22250000003,
      "d": 1260.5682395833282,
      "v": 67
    },
    {
      "midi": 62,
      "hit": false,
      "t": 104235.22250000003,
      "d": 1271.16124999999,
      "v": 69
    },
    {
      "midi": 55,
      "hit": false,
      "t": 105760.61600000002,
      "d": 3728.739666666661,
      "v": 59
    },
    {
      "midi": 61,
      "hit": false,
      "t": 105760.61600000002,
      "d": 3781.7047187499993,
      "v": 77
    },
    {
      "midi": 64,
      "hit": false,
      "t": 105771.20901041669,
      "d": 3739.3326770833373,
      "v": 67
    },
    {
      "midi": 45,
      "hit": false,
      "t": 105771.20901041669,
      "d": 3887.634822916676,
      "v": 54
    },
    {
      "midi": 50,
      "hit": false,
      "t": 109838.9250104167,
      "d": 815.6618020833266,
      "v": 54
    },
    {
      "midi": 57,
      "hit": false,
      "t": 109838.9250104167,
      "d": 1207.6031875000044,
      "v": 62
    },
    {
      "midi": 62,
      "hit": false,
      "t": 109838.9250104167,
      "d": 1239.3822187500045,
      "v": 72
    },
    {
      "midi": 65,
      "hit": false,
      "t": 109838.9250104167,
      "d": 1239.3822187500045,
      "v": 62
    },
    {
      "midi": 50,
      "hit": false,
      "t": 110834.66798958337,
      "d": 4830.412750000018,
      "v": 66
    },
    {
      "midi": 65,
      "hit": false,
      "t": 111353.72550000004,
      "d": 858.0338437500031,
      "v": 78
    },
    {
      "midi": 69,
      "hit": false,
      "t": 111353.72550000004,
      "d": 879.2198645833414,
      "v": 67
    },
    {
      "midi": 64,
      "hit": false,
      "t": 112360.06148958339,
      "d": 1451.242427083329,
      "v": 75
    },
    {
      "midi": 67,
      "hit": false,
      "t": 112360.06148958339,
      "d": 1451.242427083329,
      "v": 80
    },
    {
      "midi": 62,
      "hit": false,
      "t": 113906.64101041672,
      "d": 2002.0789687500073,
      "v": 73
    },
    {
      "midi": 65,
      "hit": false,
      "t": 113906.64101041672,
      "d": 2245.7182083333464,
      "v": 74
    },
    {
      "midi": 50,
      "hit": false,
      "t": 115929.90600000006,
      "d": 2002.0789687499928,
      "v": 64
    },
    {
      "midi": 64,
      "hit": false,
      "t": 116438.37050000006,
      "d": 1260.5682395833282,
      "v": 71
    },
    {
      "midi": 60,
      "hit": false,
      "t": 116438.37050000006,
      "d": 1281.7542604166665,
      "v": 63
    },
    {
      "midi": 55,
      "hit": false,
      "t": 116438.37050000006,
      "d": 1387.6843645833287,
      "v": 73
    },
    {
      "midi": 53,
      "hit": false,
      "t": 117963.76400000005,
      "d": 3749.925687499999,
      "v": 63
    },
    {
      "midi": 62,
      "hit": false,
      "t": 117963.76400000005,
      "d": 3781.7047187499993,
      "v": 60
    },
    {
      "midi": 58,
      "hit": false,
      "t": 117963.76400000005,
      "d": 3792.297729166661,
      "v": 59
    },
    {
      "midi": 43,
      "hit": false,
      "t": 117963.76400000005,
      "d": 3855.8557916666614,
      "v": 65
    },
    {
      "midi": 61,
      "hit": false,
      "t": 122031.48000000005,
      "d": 3845.2627812499995,
      "v": 69
    },
    {
      "midi": 55,
      "hit": false,
      "t": 122042.07301041672,
      "d": 3771.1117083333374,
      "v": 62
    },
    {
      "midi": 64,
      "hit": false,
      "t": 122042.07301041672,
      "d": 3792.2977291666757,
      "v": 67
    },
    {
      "midi": 45,
      "hit": false,
      "t": 122042.07301041672,
      "d": 3845.2627812499995,
      "v": 58
    },
    {
      "midi": 50,
      "hit": false,
      "t": 126099.19600000005,
      "d": 815.6618020833266,
      "v": 60
    },
    {
      "midi": 57,
      "hit": false,
      "t": 126099.19600000005,
      "d": 1154.638135416666,
      "v": 62
    },
    {
      "midi": 62,
      "hit": false,
      "t": 126099.19600000005,
      "d": 1207.6031875000044,
      "v": 75
    },
    {
      "midi": 65,
      "hit": false,
      "t": 126099.19600000005,
      "d": 1218.1961979166663,
      "v": 62
    },
    {
      "midi": 50,
      "hit": false,
      "t": 127105.53198958338,
      "d": 3940.599875,
      "v": 67
    },
    {
      "midi": 65,
      "hit": false,
      "t": 127624.58950000006,
      "d": 752.1037395833264,
      "v": 67
    },
    {
      "midi": 69,
      "hit": false,
      "t": 127624.58950000006,
      "d": 773.2897604166646,
      "v": 67
    },
    {
      "midi": 67,
      "hit": false,
      "t": 128630.92548958339,
      "d": 1408.870385416667,
      "v": 73
    },
    {
      "midi": 64,
      "hit": false,
      "t": 128641.51850000005,
      "d": 1377.0913541666669,
      "v": 75
    },
    {
      "midi": 65,
      "hit": false,
      "t": 130166.91200000005,
      "d": 1853.776822916654,
      "v": 76
    },
    {
      "midi": 62,
      "hit": false,
      "t": 130166.91200000005,
      "d": 1864.369833333316,
      "v": 75
    },
    {
      "midi": 50,
      "hit": false,
      "t": 131183.84100000004,
      "d": 286.0112812499865,
      "v": 55
    },
    {
      "midi": 62,
      "hit": false,
      "t": 132200.77000000005,
      "d": 264.8252604166628,
      "v": 66
    },
    {
      "midi": 65,
      "hit": false,
      "t": 132200.77000000005,
      "d": 391.94138541666325,
      "v": 62
    },
    {
      "midi": 50,
      "hit": false,
      "t": 132200.77000000005,
      "d": 1790.2187604166684,
      "v": 78
    },
    {
      "midi": 53,
      "hit": false,
      "t": 132709.23450000005,
      "d": 233.04622916667722,
      "v": 60
    },
    {
      "midi": 55,
      "hit": false,
      "t": 132709.23450000005,
      "d": 1313.533291666652,
      "v": 63
    },
    {
      "midi": 64,
      "hit": false,
      "t": 132709.23450000005,
      "d": 1313.533291666652,
      "v": 66
    },
    {
      "midi": 60,
      "hit": false,
      "t": 132709.23450000005,
      "d": 1345.3123229166376,
      "v": 72
    },
    {
      "midi": 53,
      "hit": false,
      "t": 134234.62800000003,
      "d": 3781.7047187499993,
      "v": 66
    },
    {
      "midi": 62,
      "hit": false,
      "t": 134234.62800000003,
      "d": 3824.076760416676,
      "v": 67
    },
    {
      "midi": 58,
      "hit": false,
      "t": 134234.62800000003,
      "d": 3845.2627812499995,
      "v": 86
    },
    {
      "midi": 43,
      "hit": false,
      "t": 134234.62800000003,
      "d": 3887.634822916676,
      "v": 74
    },
    {
      "midi": 64,
      "hit": false,
      "t": 138302.34400000004,
      "d": 2171.5671354166698,
      "v": 66
    },
    {
      "midi": 61,
      "hit": false,
      "t": 138302.34400000004,
      "d": 2235.12519791667,
      "v": 81
    },
    {
      "midi": 55,
      "hit": false,
      "t": 138312.9370104167,
      "d": 2171.5671354166698,
      "v": 62
    },
    {
      "midi": 45,
      "hit": false,
      "t": 138312.9370104167,
      "d": 3877.041812500014,
      "v": 57
    },
    {
      "midi": 55,
      "hit": false,
      "t": 140834.0734895834,
      "d": 1207.6031875000044,
      "v": 66
    },
    {
      "midi": 61,
      "hit": false,
      "t": 140834.0734895834,
      "d": 1239.38221874999,
      "v": 71
    },
    {
      "midi": 64,
      "hit": false,
      "t": 140844.66650000005,
      "d": 1271.1612500000047,
      "v": 66
    },
    {
      "midi": 57,
      "hit": false,
      "t": 142370.06000000006,
      "d": 3601.6235416666605,
      "v": 73
    },
    {
      "midi": 50,
      "hit": false,
      "t": 142370.06000000006,
      "d": 3866.4488020833232,
      "v": 58
    },
    {
      "midi": 62,
      "hit": false,
      "t": 142380.65301041672,
      "d": 3739.332677083323,
      "v": 83
    },
    {
      "midi": 65,
      "hit": false,
      "t": 142380.65301041672,
      "d": 3792.297729166661,
      "v": 79
    },
    {
      "midi": 58,
      "hit": false,
      "t": 146437.77600000004,
      "d": 3972.37890625,
      "v": 63
    },
    {
      "midi": 67,
      "hit": false,
      "t": 146437.77600000004,
      "d": 4014.7509479166474,
      "v": 63
    },
    {
      "midi": 62,
      "hit": false,
      "t": 146448.3690104167,
      "d": 2807.147760416672,
      "v": 74
    },
    {
      "midi": 43,
      "hit": false,
      "t": 146448.3690104167,
      "d": 4004.1579374999856,
      "v": 72
    },
    {
      "midi": 62,
      "hit": false,
      "t": 149488.56300000005,
      "d": 942.7779270833125,
      "v": 73
    },
    {
      "midi": 65,
      "hit": false,
      "t": 150505.49200000003,
      "d": 3506.2864479166747,
      "v": 73
    },
    {
      "midi": 62,
      "hit": false,
      "t": 150505.49200000003,
      "d": 3569.844510416675,
      "v": 74
    },
    {
      "midi": 58,
      "hit": false,
      "t": 150505.49200000003,
      "d": 3622.8095625000133,
      "v": 63
    },
    {
      "midi": 46,
      "hit": false,
      "t": 150516.0850104167,
      "d": 3739.332677083352,
      "v": 79
    },
    {
      "midi": 55,
      "hit": false,
      "t": 154573.20800000004,
      "d": 3887.634822916676,
      "v": 69
    },
    {
      "midi": 61,
      "hit": false,
      "t": 154573.20800000004,
      "d": 3887.634822916676,
      "v": 75
    },
    {
      "midi": 64,
      "hit": false,
      "t": 154573.20800000004,
      "d": 3930.0068645833526,
      "v": 82
    },
    {
      "midi": 45,
      "hit": false,
      "t": 154573.20800000004,
      "d": 4035.9369687500293,
      "v": 66
    },
    {
      "midi": 50,
      "hit": false,
      "t": 158651.51701041675,
      "d": 7807.048677083309,
      "v": 74
    },
    {
      "midi": 57,
      "hit": false,
      "t": 159149.3885000001,
      "d": 582.615572916664,
      "v": 70
    },
    {
      "midi": 62,
      "hit": false,
      "t": 159657.8530000001,
      "d": 381.3483750000014,
      "v": 75
    },
    {
      "midi": 65,
      "hit": false,
      "t": 160176.91051041675,
      "d": 847.4408333333267,
      "v": 75
    },
    {
      "midi": 69,
      "hit": false,
      "t": 160176.91051041675,
      "d": 868.6268541666504,
      "v": 59
    },
    {
      "midi": 64,
      "hit": false,
      "t": 161183.24650000007,
      "d": 1408.870385416667,
      "v": 78
    },
    {
      "midi": 67,
      "hit": false,
      "t": 161183.24650000007,
      "d": 1430.0564062499907,
      "v": 82
    },
    {
      "midi": 62,
      "hit": false,
      "t": 162708.64000000004,
      "d": 1843.1838125000068,
      "v": 76
    },
    {
      "midi": 65,
      "hit": false,
      "t": 162708.64000000004,
      "d": 1843.1838125000068,
      "v": 83
    },
    {
      "midi": 65,
      "hit": false,
      "t": 164731.9049895834,
      "d": 444.90643750000163,
      "v": 87
    },
    {
      "midi": 64,
      "hit": false,
      "t": 165240.3694895834,
      "d": 1271.1612500000047,
      "v": 79
    },
    {
      "midi": 50,
      "hit": false,
      "t": 166776.35600000006,
      "d": 7987.129854166618,
      "v": 66
    },
    {
      "midi": 65,
      "hit": false,
      "t": 167793.28500000006,
      "d": 1324.126302083343,
      "v": 75
    },
    {
      "midi": 69,
      "hit": false,
      "t": 167793.28500000006,
      "d": 1345.3123229166667,
      "v": 74
    },
    {
      "midi": 64,
      "hit": false,
      "t": 169308.0854895834,
      "d": 1472.428447916638,
      "v": 70
    },
    {
      "midi": 67,
      "hit": false,
      "t": 169318.67850000007,
      "d": 1430.0564062499907,
      "v": 71
    },
    {
      "midi": 65,
      "hit": false,
      "t": 170844.07200000004,
      "d": 2139.788104166655,
      "v": 76
    },
    {
      "midi": 62,
      "hit": false,
      "t": 170844.07200000004,
      "d": 2150.381114583317,
      "v": 71
    },
    {
      "midi": 60,
      "hit": false,
      "t": 173375.80148958336,
      "d": 1366.4983437499905,
      "v": 83
    },
    {
      "midi": 55,
      "hit": false,
      "t": 173386.39450000002,
      "d": 1302.9402812499902,
      "v": 83
    },
    {
      "midi": 64,
      "hit": false,
      "t": 173386.39450000002,
      "d": 1387.6843645833142,
      "v": 74
    },
    {
      "midi": 43,
      "hit": false,
      "t": 174911.788,
      "d": 7817.64168749997,
      "v": 72
    },
    {
      "midi": 53,
      "hit": false,
      "t": 174922.38101041666,
      "d": 3781.7047187499993,
      "v": 78
    },
    {
      "midi": 62,
      "hit": false,
      "t": 174922.38101041666,
      "d": 3792.297729166661,
      "v": 68
    },
    {
      "midi": 58,
      "hit": false,
      "t": 174922.38101041666,
      "d": 3908.8208437499998,
      "v": 54
    },
    {
      "midi": 52,
      "hit": false,
      "t": 178979.504,
      "d": 3135.531083333335,
      "v": 68
    },
    {
      "midi": 55,
      "hit": false,
      "t": 178979.504,
      "d": 3209.682156249997,
      "v": 61
    },
    {
      "midi": 58,
      "hit": false,
      "t": 178979.504,
      "d": 3220.275166666659,
      "v": 59
    },
    {
      "midi": 62,
      "hit": false,
      "t": 178979.504,
      "d": 3241.4611874999828,
      "v": 71
    },
    {
      "midi": 62,
      "hit": false,
      "t": 183047.21999999997,
      "d": 3930.0068645833235,
      "v": 68
    },
    {
      "midi": 57,
      "hit": false,
      "t": 183047.21999999997,
      "d": 7701.118572916661,
      "v": 67
    },
    {
      "midi": 55,
      "hit": false,
      "t": 183047.21999999997,
      "d": 7722.304593749985,
      "v": 65
    },
    {
      "midi": 45,
      "hit": false,
      "t": 183047.21999999997,
      "d": 8093.059958333295,
      "v": 58
    },
    {
      "midi": 61,
      "hit": false,
      "t": 187114.93599999996,
      "d": 3675.7746145833225,
      "v": 66
    },
    {
      "midi": 38,
      "hit": false,
      "t": 191182.65199999994,
      "d": 7860.013729166647,
      "v": 63
    },
    {
      "midi": 57,
      "hit": false,
      "t": 191691.11649999995,
      "d": 932.1849166666798,
      "v": 68
    },
    {
      "midi": 62,
      "hit": false,
      "t": 192199.58099999995,
      "d": 476.6854687500163,
      "v": 73
    },
    {
      "midi": 65,
      "hit": false,
      "t": 192708.04549999995,
      "d": 900.4058854166651,
      "v": 74
    },
    {
      "midi": 69,
      "hit": false,
      "t": 192708.04549999995,
      "d": 921.5919062499888,
      "v": 78
    },
    {
      "midi": 67,
      "hit": false,
      "t": 193714.38148958326,
      "d": 1472.4284479166672,
      "v": 74
    },
    {
      "midi": 64,
      "hit": false,
      "t": 193714.38148958326,
      "d": 1483.021458333329,
      "v": 76
    },
    {
      "midi": 62,
      "hit": false,
      "t": 195250.36799999993,
      "d": 1737.25370833333,
      "v": 69
    },
    {
      "midi": 65,
      "hit": false,
      "t": 195250.36799999993,
      "d": 1758.4397291666537,
      "v": 79
    },
    {
      "midi": 50,
      "hit": false,
      "t": 196775.76149999994,
      "d": 2288.0902499999793,
      "v": 63
    },
    {
      "midi": 62,
      "hit": false,
      "t": 197284.2259999999,
      "d": 487.27847916667815,
      "v": 75
    },
    {
      "midi": 65,
      "hit": false,
      "t": 197284.2259999999,
      "d": 508.46450000000186,
      "v": 79
    },
    {
      "midi": 64,
      "hit": false,
      "t": 197782.09748958325,
      "d": 1292.3472708333284,
      "v": 79
    },
    {
      "midi": 50,
      "hit": false,
      "t": 199318.08399999992,
      "d": 7987.129854166618,
      "v": 66
    },
    {
      "midi": 65,
      "hit": false,
      "t": 200335.01299999992,
      "d": 1324.126302083343,
      "v": 75
    },
    {
      "midi": 69,
      "hit": false,
      "t": 200335.01299999992,
      "d": 1345.3123229166667,
      "v": 74
    },
    {
      "midi": 67,
      "hit": false,
      "t": 201849.81348958326,
      "d": 1440.6494166666525,
      "v": 71
    },
    {
      "midi": 64,
      "hit": false,
      "t": 201849.81348958326,
      "d": 1472.428447916638,
      "v": 70
    },
    {
      "midi": 65,
      "hit": false,
      "t": 203396.39301041656,
      "d": 2129.1950937499932,
      "v": 76
    },
    {
      "midi": 62,
      "hit": false,
      "t": 203396.39301041656,
      "d": 2139.788104166655,
      "v": 71
    },
    {
      "midi": 60,
      "hit": false,
      "t": 205917.52948958322,
      "d": 1366.4983437499905,
      "v": 75
    },
    {
      "midi": 55,
      "hit": false,
      "t": 205928.12249999988,
      "d": 1292.3472708333284,
      "v": 83
    },
    {
      "midi": 64,
      "hit": false,
      "t": 205928.12249999988,
      "d": 1387.6843645833142,
      "v": 74
    },
    {
      "midi": 43,
      "hit": false,
      "t": 207453.51599999986,
      "d": 7817.64168749997,
      "v": 67
    },
    {
      "midi": 53,
      "hit": false,
      "t": 207464.10901041652,
      "d": 3781.7047187499993,
      "v": 67
    },
    {
      "midi": 62,
      "hit": false,
      "t": 207464.10901041652,
      "d": 3792.297729166661,
      "v": 68
    },
    {
      "midi": 58,
      "hit": false,
      "t": 207464.10901041652,
      "d": 3908.8208437499998,
      "v": 67
    },
    {
      "midi": 52,
      "hit": false,
      "t": 211521.23199999984,
      "d": 3135.531083333335,
      "v": 68
    },
    {
      "midi": 55,
      "hit": false,
      "t": 211521.23199999984,
      "d": 3199.0891458333354,
      "v": 61
    },
    {
      "midi": 58,
      "hit": false,
      "t": 211521.23199999984,
      "d": 3220.275166666659,
      "v": 63
    },
    {
      "midi": 62,
      "hit": false,
      "t": 211521.23199999984,
      "d": 3241.4611874999828,
      "v": 62
    },
    {
      "midi": 62,
      "hit": false,
      "t": 215588.94799999983,
      "d": 3930.0068645833235,
      "v": 68
    },
    {
      "midi": 55,
      "hit": false,
      "t": 215588.94799999983,
      "d": 7711.711583333323,
      "v": 65
    },
    {
      "midi": 45,
      "hit": false,
      "t": 215588.94799999983,
      "d": 8093.059958333324,
      "v": 58
    },
    {
      "midi": 57,
      "hit": false,
      "t": 215599.5410104165,
      "d": 7690.525562499999,
      "v": 67
    },
    {
      "midi": 61,
      "hit": false,
      "t": 219667.25701041648,
      "d": 3654.588593749999,
      "v": 66
    },
    {
      "midi": 38,
      "hit": false,
      "t": 223724.37999999983,
      "d": 7849.420718749985,
      "v": 63
    },
    {
      "midi": 57,
      "hit": false,
      "t": 224222.25148958317,
      "d": 942.7779270833416,
      "v": 68
    },
    {
      "midi": 62,
      "hit": false,
      "t": 224730.71598958317,
      "d": 487.27847916667815,
      "v": 73
    },
    {
      "midi": 65,
      "hit": false,
      "t": 225249.77349999984,
      "d": 900.4058854166651,
      "v": 74
    },
    {
      "midi": 69,
      "hit": false,
      "t": 225249.77349999984,
      "d": 921.5919062499888,
      "v": 78
    },
    {
      "midi": 64,
      "hit": false,
      "t": 226256.10948958315,
      "d": 1483.021458333329,
      "v": 76
    },
    {
      "midi": 67,
      "hit": false,
      "t": 226266.7024999998,
      "d": 1472.4284479166672,
      "v": 74
    },
    {
      "midi": 62,
      "hit": false,
      "t": 227792.09599999982,
      "d": 1747.8467187499919,
      "v": 69
    },
    {
      "midi": 65,
      "hit": false,
      "t": 227792.09599999982,
      "d": 1758.4397291666537,
      "v": 79
    },
    {
      "midi": 50,
      "hit": false,
      "t": 229317.48949999982,
      "d": 2288.0902499999793,
      "v": 63
    },
    {
      "midi": 62,
      "hit": false,
      "t": 229825.9539999998,
      "d": 497.87148958334,
      "v": 75
    },
    {
      "midi": 62,
      "hit": false,
      "t": 231859.8119999998,
      "d": 2245.718208333332,
      "v": 63
    },
    {
      "midi": 53,
      "hit": false,
      "t": 231859.8119999998,
      "d": 2266.9042291666556,
      "v": 66
    },
    {
      "midi": 58,
      "hit": false,
      "t": 231859.8119999998,
      "d": 2266.9042291666556,
      "v": 69
    },
    {
      "midi": 43,
      "hit": false,
      "t": 231859.8119999998,
      "d": 3877.041812499956,
      "v": 72
    },
    {
      "midi": 53,
      "hit": false,
      "t": 234402.13449999978,
      "d": 1260.5682395833428,
      "v": 67
    },
    {
      "midi": 62,
      "hit": false,
      "t": 234402.13449999978,
      "d": 1281.7542604166665,
      "v": 69
    },
    {
      "midi": 58,
      "hit": false,
      "t": 234402.13449999978,
      "d": 1313.533291666652,
      "v": 77
    },
    {
      "midi": 61,
      "hit": false,
      "t": 235927.52799999976,
      "d": 3781.7047187499993,
      "v": 77
    },
    {
      "midi": 55,
      "hit": false,
      "t": 235938.12101041642,
      "d": 3718.146656249999,
      "v": 71
    },
    {
      "midi": 64,
      "hit": false,
      "t": 235938.12101041642,
      "d": 3728.739666666661,
      "v": 67
    },
    {
      "midi": 45,
      "hit": false,
      "t": 235938.12101041642,
      "d": 3887.634822916676,
      "v": 67
    },
    {
      "midi": 50,
      "hit": false,
      "t": 239995.24399999977,
      "d": 826.254812500003,
      "v": 54
    },
    {
      "midi": 57,
      "hit": false,
      "t": 239995.24399999977,
      "d": 1218.1961979166663,
      "v": 62
    },
    {
      "midi": 65,
      "hit": false,
      "t": 240005.83701041644,
      "d": 1228.7892083333281,
      "v": 62
    },
    {
      "midi": 62,
      "hit": false,
      "t": 240005.83701041644,
      "d": 1239.38221874999,
      "v": 72
    },
    {
      "midi": 50,
      "hit": false,
      "t": 241012.17299999978,
      "d": 4819.819739583298,
      "v": 66
    },
    {
      "midi": 65,
      "hit": false,
      "t": 241520.63749999975,
      "d": 868.6268541666795,
      "v": 78
    },
    {
      "midi": 69,
      "hit": false,
      "t": 241520.63749999975,
      "d": 879.2198645833414,
      "v": 67
    },
    {
      "midi": 64,
      "hit": false,
      "t": 242526.9734895831,
      "d": 1451.2424270833144,
      "v": 75
    },
    {
      "midi": 67,
      "hit": false,
      "t": 242537.56649999975,
      "d": 1440.6494166666525,
      "v": 80
    },
    {
      "midi": 62,
      "hit": false,
      "t": 244062.95999999973,
      "d": 2002.0789687500219,
      "v": 73
    },
    {
      "midi": 65,
      "hit": false,
      "t": 244062.95999999973,
      "d": 2256.311218750023,
      "v": 74
    },
    {
      "midi": 50,
      "hit": false,
      "t": 246086.22498958308,
      "d": 2002.0789687499637,
      "v": 64
    },
    {
      "midi": 55,
      "hit": false,
      "t": 246594.68948958308,
      "d": 1398.277374999976,
      "v": 73
    },
    {
      "midi": 64,
      "hit": false,
      "t": 246605.28249999974,
      "d": 1260.5682395833428,
      "v": 79
    },
    {
      "midi": 60,
      "hit": false,
      "t": 246605.28249999974,
      "d": 1292.3472708333284,
      "v": 67
    },
    {
      "midi": 53,
      "hit": false,
      "t": 248130.67599999972,
      "d": 3739.332677083323,
      "v": 63
    },
    {
      "midi": 62,
      "hit": false,
      "t": 248130.67599999972,
      "d": 3781.7047187499993,
      "v": 60
    },
    {
      "midi": 58,
      "hit": false,
      "t": 248130.67599999972,
      "d": 3792.297729166661,
      "v": 63
    },
    {
      "midi": 43,
      "hit": false,
      "t": 248130.67599999972,
      "d": 3855.8557916666614,
      "v": 65
    },
    {
      "midi": 61,
      "hit": false,
      "t": 252198.3919999997,
      "d": 3834.6697708333086,
      "v": 69
    },
    {
      "midi": 55,
      "hit": false,
      "t": 252208.98501041636,
      "d": 3781.7047187499993,
      "v": 62
    },
    {
      "midi": 64,
      "hit": false,
      "t": 252208.98501041636,
      "d": 3792.297729166661,
      "v": 62
    },
    {
      "midi": 45,
      "hit": false,
      "t": 252208.98501041636,
      "d": 3845.2627812499704,
      "v": 58
    },
    {
      "midi": 50,
      "hit": false,
      "t": 256266.10799999966,
      "d": 815.6618020833412,
      "v": 60
    },
    {
      "midi": 62,
      "hit": false,
      "t": 256266.10799999966,
      "d": 1197.0101770833135,
      "v": 73
    },
    {
      "midi": 57,
      "hit": false,
      "t": 256276.70101041632,
      "d": 1154.638135416666,
      "v": 62
    },
    {
      "midi": 65,
      "hit": false,
      "t": 256276.70101041632,
      "d": 1197.0101770833135,
      "v": 62
    },
    {
      "midi": 50,
      "hit": false,
      "t": 257283.03699999966,
      "d": 3930.0068645833235,
      "v": 67
    },
    {
      "midi": 65,
      "hit": false,
      "t": 257791.50149999963,
      "d": 752.1037395833409,
      "v": 63
    },
    {
      "midi": 69,
      "hit": false,
      "t": 257791.50149999963,
      "d": 773.2897604166646,
      "v": 67
    },
    {
      "midi": 67,
      "hit": false,
      "t": 258797.83748958298,
      "d": 1408.870385416667,
      "v": 73
    },
    {
      "midi": 64,
      "hit": false,
      "t": 258808.43049999964,
      "d": 1387.6843645833433,
      "v": 75
    },
    {
      "midi": 65,
      "hit": false,
      "t": 260333.82399999964,
      "d": 1853.7768229166686,
      "v": 76
    },
    {
      "midi": 62,
      "hit": false,
      "t": 260333.82399999964,
      "d": 1874.9628437499923,
      "v": 75
    },
    {
      "midi": 50,
      "hit": false,
      "t": 261340.159989583,
      "d": 296.60429166667745,
      "v": 55
    },
    {
      "midi": 62,
      "hit": false,
      "t": 262357.08898958296,
      "d": 264.8252604166628,
      "v": 66
    },
    {
      "midi": 65,
      "hit": false,
      "t": 262367.6819999996,
      "d": 402.5343958333251,
      "v": 62
    },
    {
      "midi": 50,
      "hit": false,
      "t": 262367.6819999996,
      "d": 1790.2187604166684,
      "v": 55
    },
    {
      "midi": 53,
      "hit": false,
      "t": 262876.1464999996,
      "d": 233.04622916667722,
      "v": 60
    },
    {
      "midi": 55,
      "hit": false,
      "t": 262876.1464999996,
      "d": 1324.126302083314,
      "v": 63
    },
    {
      "midi": 64,
      "hit": false,
      "t": 262876.1464999996,
      "d": 1324.126302083314,
      "v": 66
    },
    {
      "midi": 60,
      "hit": false,
      "t": 262876.1464999996,
      "d": 1345.3123229166376,
      "v": 72
    },
    {
      "midi": 53,
      "hit": false,
      "t": 264412.13301041623,
      "d": 3771.1117083333083,
      "v": 66
    },
    {
      "midi": 62,
      "hit": false,
      "t": 264412.13301041623,
      "d": 3802.890739583294,
      "v": 80
    },
    {
      "midi": 58,
      "hit": false,
      "t": 264412.13301041623,
      "d": 3834.6697708332795,
      "v": 86
    },
    {
      "midi": 43,
      "hit": false,
      "t": 264412.13301041623,
      "d": 3866.448802083265,
      "v": 74
    },
    {
      "midi": 64,
      "hit": false,
      "t": 268469.25599999947,
      "d": 2182.1601458333316,
      "v": 66
    },
    {
      "midi": 55,
      "hit": false,
      "t": 268469.25599999947,
      "d": 2192.7531562499935,
      "v": 62
    },
    {
      "midi": 61,
      "hit": false,
      "t": 268469.25599999947,
      "d": 2235.125197916641,
      "v": 81
    },
    {
      "midi": 45,
      "hit": false,
      "t": 268469.25599999947,
      "d": 3887.6348229165887,
      "v": 57
    },
    {
      "midi": 55,
      "hit": false,
      "t": 271011.5784999994,
      "d": 1207.6031874999753,
      "v": 66
    },
    {
      "midi": 61,
      "hit": false,
      "t": 271011.5784999994,
      "d": 1228.789208333299,
      "v": 71
    },
    {
      "midi": 64,
      "hit": false,
      "t": 271011.5784999994,
      "d": 1271.1612499999464,
      "v": 66
    },
    {
      "midi": 57,
      "hit": false,
      "t": 272547.56501041603,
      "d": 3601.6235416666605,
      "v": 73
    },
    {
      "midi": 62,
      "hit": false,
      "t": 272547.56501041603,
      "d": 3749.9256874999846,
      "v": 83
    },
    {
      "midi": 65,
      "hit": false,
      "t": 272547.56501041603,
      "d": 3792.297729166632,
      "v": 79
    },
    {
      "midi": 50,
      "hit": false,
      "t": 272547.56501041603,
      "d": 3866.4488020833232,
      "v": 58
    },
    {
      "midi": 62,
      "hit": false,
      "t": 276604.6879999993,
      "d": 2807.147760416672,
      "v": 74
    },
    {
      "midi": 58,
      "hit": false,
      "t": 276604.6879999993,
      "d": 3972.37890625,
      "v": 63
    },
    {
      "midi": 43,
      "hit": false,
      "t": 276604.6879999993,
      "d": 4004.1579374999856,
      "v": 72
    },
    {
      "midi": 67,
      "hit": false,
      "t": 276604.6879999993,
      "d": 4004.1579374999856,
      "v": 64
    },
    {
      "midi": 62,
      "hit": false,
      "t": 279655.47499999934,
      "d": 932.1849166666507,
      "v": 73
    },
    {
      "midi": 62,
      "hit": false,
      "t": 280672.4039999993,
      "d": 3569.8445104166167,
      "v": 74
    },
    {
      "midi": 65,
      "hit": false,
      "t": 280682.99701041594,
      "d": 3495.6934374999837,
      "v": 73
    },
    {
      "midi": 58,
      "hit": false,
      "t": 280682.99701041594,
      "d": 3612.216552083264,
      "v": 71
    },
    {
      "midi": 46,
      "hit": false,
      "t": 280682.99701041594,
      "d": 3749.9256874999264,
      "v": 79
    },
    {
      "midi": 61,
      "hit": false,
      "t": 284740.1199999992,
      "d": 3887.634822916647,
      "v": 75
    },
    {
      "midi": 45,
      "hit": false,
      "t": 284740.1199999992,
      "d": 4046.529979166633,
      "v": 66
    },
    {
      "midi": 55,
      "hit": false,
      "t": 284750.71301041584,
      "d": 3866.4488020833232,
      "v": 69
    },
    {
      "midi": 64,
      "hit": false,
      "t": 284750.71301041584,
      "d": 3919.4138541666325,
      "v": 71
    },
    {
      "midi": 50,
      "hit": false,
      "t": 288807.83599999914,
      "d": 7807.0486770832795,
      "v": 74
    },
    {
      "midi": 57,
      "hit": false,
      "t": 289305.7074895825,
      "d": 593.2085833333549,
      "v": 70
    },
    {
      "midi": 62,
      "hit": false,
      "t": 289824.76499999914,
      "d": 391.94138541666325,
      "v": 71
    },
    {
      "midi": 65,
      "hit": false,
      "t": 290333.22949999914,
      "d": 868.6268541666795,
      "v": 79
    },
    {
      "midi": 69,
      "hit": false,
      "t": 290333.22949999914,
      "d": 879.2198645833414,
      "v": 79
    },
    {
      "midi": 64,
      "hit": false,
      "t": 291350.15849999915,
      "d": 1408.870385416667,
      "v": 78
    },
    {
      "midi": 67,
      "hit": false,
      "t": 291350.15849999915,
      "d": 1419.4633958333288,
      "v": 82
    },
    {
      "midi": 62,
      "hit": false,
      "t": 292875.55199999915,
      "d": 1843.1838124999776,
      "v": 76
    },
    {
      "midi": 65,
      "hit": false,
      "t": 292875.55199999915,
      "d": 1843.1838124999776,
      "v": 83
    },
    {
      "midi": 65,
      "hit": false,
      "t": 294909.4099999991,
      "d": 423.7204166666488,
      "v": 71
    },
    {
      "midi": 64,
      "hit": false,
      "t": 295407.28148958244,
      "d": 1271.1612499999464,
      "v": 71
    },
    {
      "midi": 52,
      "hit": false,
      "t": 362037.3170104157,
      "d": 7976.536843749869,
      "v": 66
    },
    {
      "midi": 67,
      "hit": false,
      "t": 363043.65299999906,
      "d": 1324.126302083314,
      "v": 71
    },
    {
      "midi": 71,
      "hit": false,
      "t": 363043.65299999906,
      "d": 1345.3123229166376,
      "v": 74
    },
    {
      "midi": 66,
      "hit": false,
      "t": 364558.45348958235,
      "d": 1472.428447916638,
      "v": 70
    },
    {
      "midi": 69,
      "hit": false,
      "t": 364569.046499999,
      "d": 1430.0564062499907,
      "v": 71
    },
    {
      "midi": 67,
      "hit": false,
      "t": 366094.43999999895,
      "d": 2139.788104166684,
      "v": 76
    },
    {
      "midi": 64,
      "hit": false,
      "t": 366094.43999999895,
      "d": 2150.381114583346,
      "v": 71
    },
    {
      "midi": 62,
      "hit": false,
      "t": 368636.76249999896,
      "d": 1355.9053333332995,
      "v": 79
    },
    {
      "midi": 66,
      "hit": false,
      "t": 368636.76249999896,
      "d": 1387.684364583285,
      "v": 74
    },
    {
      "midi": 57,
      "hit": false,
      "t": 368647.3555104156,
      "d": 1292.3472708333284,
      "v": 83
    },
    {
      "midi": 60,
      "hit": false,
      "t": 370172.7490104156,
      "d": 3908.820843750029,
      "v": 71
    },
    {
      "midi": 45,
      "hit": false,
      "t": 370172.7490104156,
      "d": 7796.455666666618,
      "v": 72
    },
    {
      "midi": 55,
      "hit": false,
      "t": 370183.34202083223,
      "d": 3781.7047187500284,
      "v": 78
    },
    {
      "midi": 64,
      "hit": false,
      "t": 370183.34202083223,
      "d": 3781.7047187500284,
      "v": 68
    },
    {
      "midi": 54,
      "hit": false,
      "t": 374229.8719999989,
      "d": 3135.531083333306,
      "v": 68
    },
    {
      "midi": 57,
      "hit": false,
      "t": 374229.8719999989,
      "d": 3199.089145833277,
      "v": 61
    },
    {
      "midi": 60,
      "hit": false,
      "t": 374229.8719999989,
      "d": 3220.275166666601,
      "v": 75
    },
    {
      "midi": 64,
      "hit": false,
      "t": 374229.8719999989,
      "d": 3241.4611874999246,
      "v": 62
    },
    {
      "midi": 64,
      "hit": false,
      "t": 378297.5879999989,
      "d": 3930.0068645833526,
      "v": 68
    },
    {
      "midi": 59,
      "hit": false,
      "t": 378308.18101041554,
      "d": 7690.525562499999,
      "v": 75
    },
    {
      "midi": 57,
      "hit": false,
      "t": 378308.18101041554,
      "d": 7711.711583333323,
      "v": 65
    },
    {
      "midi": 47,
      "hit": false,
      "t": 378308.18101041554,
      "d": 8082.466947916662,
      "v": 58
    },
    {
      "midi": 63,
      "hit": false,
      "t": 382365.3039999989,
      "d": 3675.7746145832934,
      "v": 66
    },
    {
      "midi": 40,
      "hit": false,
      "t": 386443.6130104155,
      "d": 7849.420718749927,
      "v": 78
    },
    {
      "midi": 59,
      "hit": false,
      "t": 386930.8914895822,
      "d": 942.7779270833125,
      "v": 68
    },
    {
      "midi": 64,
      "hit": false,
      "t": 387449.94899999886,
      "d": 476.6854687499581,
      "v": 73
    },
    {
      "midi": 67,
      "hit": false,
      "t": 387958.4134999988,
      "d": 900.4058854166651,
      "v": 74
    },
    {
      "midi": 71,
      "hit": false,
      "t": 387958.4134999988,
      "d": 921.5919062499888,
      "v": 78
    },
    {
      "midi": 69,
      "hit": false,
      "t": 388964.74948958214,
      "d": 1472.428447916638,
      "v": 74
    },
    {
      "midi": 66,
      "hit": false,
      "t": 388964.74948958214,
      "d": 1483.0214583333,
      "v": 76
    },
    {
      "midi": 64,
      "hit": false,
      "t": 390500.73599999875,
      "d": 1747.846718750021,
      "v": 69
    },
    {
      "midi": 67,
      "hit": false,
      "t": 390500.73599999875,
      "d": 1758.4397291666828,
      "v": 79
    },
    {
      "midi": 52,
      "hit": false,
      "t": 392026.12949999876,
      "d": 2298.6832604166702,
      "v": 63
    },
    {
      "midi": 64,
      "hit": false,
      "t": 392534.59399999876,
      "d": 487.27847916667815,
      "v": 75
    },
    {
      "midi": 67,
      "hit": false,
      "t": 392534.59399999876,
      "d": 508.46450000000186,
      "v": 79
    },
    {
      "midi": 66,
      "hit": false,
      "t": 393032.4654895821,
      "d": 1292.3472708333284,
      "v": 83
    },
    {
      "midi": 52,
      "hit": false,
      "t": 394568.45199999877,
      "d": 7987.129854166531,
      "v": 66
    },
    {
      "midi": 67,
      "hit": false,
      "t": 395574.7879895821,
      "d": 1324.126302083314,
      "v": 63
    },
    {
      "midi": 71,
      "hit": false,
      "t": 395574.7879895821,
      "d": 1355.9053333332995,
      "v": 74
    },
    {
      "midi": 69,
      "hit": false,
      "t": 397100.18148958206,
      "d": 1440.6494166666525,
      "v": 71
    },
    {
      "midi": 66,
      "hit": false,
      "t": 397100.18148958206,
      "d": 1472.428447916638,
      "v": 70
    },
    {
      "midi": 67,
      "hit": false,
      "t": 398636.16799999867,
      "d": 2139.788104166684,
      "v": 76
    },
    {
      "midi": 64,
      "hit": false,
      "t": 398636.16799999867,
      "d": 2150.381114583346,
      "v": 71
    },
    {
      "midi": 57,
      "hit": false,
      "t": 401178.4904999987,
      "d": 1302.9402812499902,
      "v": 83
    },
    {
      "midi": 62,
      "hit": false,
      "t": 401178.4904999987,
      "d": 1355.9053333332995,
      "v": 79
    },
    {
      "midi": 66,
      "hit": false,
      "t": 401178.4904999987,
      "d": 1387.684364583285,
      "v": 74
    },
    {
      "midi": 55,
      "hit": false,
      "t": 402714.4770104153,
      "d": 3781.7047187500284,
      "v": 78
    },
    {
      "midi": 64,
      "hit": false,
      "t": 402714.4770104153,
      "d": 3792.2977291666903,
      "v": 68
    },
    {
      "midi": 60,
      "hit": false,
      "t": 402714.4770104153,
      "d": 3908.820843750029,
      "v": 54
    },
    {
      "midi": 45,
      "hit": false,
      "t": 402714.4770104153,
      "d": 7796.455666666618,
      "v": 55
    },
    {
      "midi": 60,
      "hit": false,
      "t": 406771.59999999864,
      "d": 3220.275166666601,
      "v": 44
    },
    {
      "midi": 64,
      "hit": false,
      "t": 406771.59999999864,
      "d": 3241.4611874999246,
      "v": 62
    },
    {
      "midi": 54,
      "hit": false,
      "t": 406782.1930104153,
      "d": 3124.938072916644,
      "v": 68
    },
    {
      "midi": 57,
      "hit": false,
      "t": 406782.1930104153,
      "d": 3188.4961354166153,
      "v": 61
    },
    {
      "midi": 64,
      "hit": false,
      "t": 410849.90901041526,
      "d": 3919.4138541666907,
      "v": 68
    },
    {
      "midi": 59,
      "hit": false,
      "t": 410849.90901041526,
      "d": 7690.525562499999,
      "v": 51
    },
    {
      "midi": 57,
      "hit": false,
      "t": 410849.90901041526,
      "d": 7711.711583333323,
      "v": 65
    },
    {
      "midi": 47,
      "hit": false,
      "t": 410849.90901041526,
      "d": 8082.466947916662,
      "v": 58
    },
    {
      "midi": 63,
      "hit": false,
      "t": 414917.6250104153,
      "d": 3665.1816041666316,
      "v": 66
    },
    {
      "midi": 40,
      "hit": false,
      "t": 418974.74799999857,
      "d": 7849.420718749927,
      "v": 67
    },
    {
      "midi": 59,
      "hit": false,
      "t": 419472.6194895819,
      "d": 942.7779270833125,
      "v": 68
    },
    {
      "midi": 64,
      "hit": false,
      "t": 419991.67699999857,
      "d": 466.09245833329624,
      "v": 73
    },
    {
      "midi": 67,
      "hit": false,
      "t": 420510.7345104152,
      "d": 889.8128750000033,
      "v": 74
    },
    {
      "midi": 71,
      "hit": false,
      "t": 420510.7345104152,
      "d": 910.998895833327,
      "v": 78
    },
    {
      "midi": 66,
      "hit": false,
      "t": 421506.47748958186,
      "d": 1483.0214583333,
      "v": 76
    },
    {
      "midi": 69,
      "hit": false,
      "t": 421517.0704999985,
      "d": 1461.8354374999763,
      "v": 74
    },
    {
      "midi": 64,
      "hit": false,
      "t": 423042.46399999846,
      "d": 1747.846718750021,
      "v": 69
    },
    {
      "midi": 67,
      "hit": false,
      "t": 423042.46399999846,
      "d": 1758.4397291666828,
      "v": 79
    },
    {
      "midi": 52,
      "hit": false,
      "t": 424567.85749999847,
      "d": 2288.0902500000084,
      "v": 63
    },
    {
      "midi": 64,
      "hit": false,
      "t": 425076.3219999985,
      "d": 487.27847916667815,
      "v": 75
    },
    {
      "midi": 64,
      "hit": false,
      "t": 427110.1799999985,
      "d": 2245.7182083333028,
      "v": 63
    },
    {
      "midi": 60,
      "hit": false,
      "t": 427110.1799999985,
      "d": 2277.4972395832883,
      "v": 69
    },
    {
      "midi": 55,
      "hit": false,
      "t": 427120.77301041514,
      "d": 2256.3112187499646,
      "v": 66
    },
    {
      "midi": 45,
      "hit": false,
      "t": 427120.77301041514,
      "d": 3866.448802083265,
      "v": 72
    },
    {
      "midi": 55,
      "hit": false,
      "t": 429652.50249999843,
      "d": 1260.5682395833428,
      "v": 67
    },
    {
      "midi": 64,
      "hit": false,
      "t": 429652.50249999843,
      "d": 1281.7542604166665,
      "v": 69
    },
    {
      "midi": 60,
      "hit": false,
      "t": 429652.50249999843,
      "d": 1313.533291666652,
      "v": 59
    },
    {
      "midi": 57,
      "hit": false,
      "t": 431188.4890104151,
      "d": 3718.146656249999,
      "v": 67
    },
    {
      "midi": 66,
      "hit": false,
      "t": 431188.4890104151,
      "d": 3739.332677083323,
      "v": 59
    },
    {
      "midi": 63,
      "hit": false,
      "t": 431188.4890104151,
      "d": 3771.1117083333083,
      "v": 77
    },
    {
      "midi": 47,
      "hit": false,
      "t": 431188.4890104151,
      "d": 3887.634822916647,
      "v": 54
    },
    {
      "midi": 52,
      "hit": false,
      "t": 435245.6119999984,
      "d": 826.2548124999739,
      "v": 54
    },
    {
      "midi": 59,
      "hit": false,
      "t": 435245.6119999984,
      "d": 1218.1961979166372,
      "v": 62
    },
    {
      "midi": 64,
      "hit": false,
      "t": 435256.20501041505,
      "d": 1239.3822187499609,
      "v": 72
    },
    {
      "midi": 67,
      "hit": false,
      "t": 435256.20501041505,
      "d": 1239.3822187499609,
      "v": 62
    },
    {
      "midi": 52,
      "hit": false,
      "t": 436262.54099999834,
      "d": 4819.819739583356,
      "v": 66
    },
    {
      "midi": 67,
      "hit": false,
      "t": 436781.598510415,
      "d": 847.4408333333558,
      "v": 78
    },
    {
      "midi": 71,
      "hit": false,
      "t": 436781.598510415,
      "d": 858.0338437500177,
      "v": 67
    },
    {
      "midi": 66,
      "hit": false,
      "t": 437777.3414895817,
      "d": 1451.2424270833144,
      "v": 75
    },
    {
      "midi": 69,
      "hit": false,
      "t": 437787.93449999834,
      "d": 1440.6494166666525,
      "v": 80
    },
    {
      "midi": 64,
      "hit": false,
      "t": 439313.32799999835,
      "d": 2002.0789687500219,
      "v": 73
    },
    {
      "midi": 67,
      "hit": false,
      "t": 439313.32799999835,
      "d": 2245.718208333361,
      "v": 74
    },
    {
      "midi": 52,
      "hit": false,
      "t": 441336.5929895817,
      "d": 2002.0789687500219,
      "v": 64
    },
    {
      "midi": 57,
      "hit": false,
      "t": 441845.0574895817,
      "d": 1398.2773750000051,
      "v": 73
    },
    {
      "midi": 66,
      "hit": false,
      "t": 441855.65049999836,
      "d": 1260.5682395833428,
      "v": 75
    },
    {
      "midi": 62,
      "hit": false,
      "t": 441855.65049999836,
      "d": 1281.7542604166665,
      "v": 71
    },
    {
      "midi": 55,
      "hit": false,
      "t": 443391.637010415,
      "d": 3739.332677083323,
      "v": 63
    },
    {
      "midi": 64,
      "hit": false,
      "t": 443391.637010415,
      "d": 3760.5186979166465,
      "v": 60
    },
    {
      "midi": 60,
      "hit": false,
      "t": 443391.637010415,
      "d": 3781.70471874997,
      "v": 75
    },
    {
      "midi": 45,
      "hit": false,
      "t": 443391.637010415,
      "d": 3845.2627812499413,
      "v": 65
    },
    {
      "midi": 57,
      "hit": false,
      "t": 447459.353010415,
      "d": 3771.1117083333083,
      "v": 62
    },
    {
      "midi": 66,
      "hit": false,
      "t": 447459.353010415,
      "d": 3792.297729166632,
      "v": 62
    },
    {
      "midi": 63,
      "hit": false,
      "t": 447459.353010415,
      "d": 3834.6697708332795,
      "v": 69
    },
    {
      "midi": 47,
      "hit": false,
      "t": 447459.353010415,
      "d": 3845.2627812499413,
      "v": 59
    },
    {
      "midi": 64,
      "hit": false,
      "t": 451516.4759999983,
      "d": 1197.0101770833135,
      "v": 63
    },
    {
      "midi": 52,
      "hit": false,
      "t": 451527.06901041494,
      "d": 794.4757812499884,
      "v": 60
    },
    {
      "midi": 59,
      "hit": false,
      "t": 451527.06901041494,
      "d": 1154.638135416666,
      "v": 62
    },
    {
      "midi": 67,
      "hit": false,
      "t": 451527.06901041494,
      "d": 1197.0101770833135,
      "v": 62
    },
    {
      "midi": 52,
      "hit": false,
      "t": 452533.4049999983,
      "d": 3930.0068645832944,
      "v": 67
    },
    {
      "midi": 67,
      "hit": false,
      "t": 453041.8694999982,
      "d": 752.1037395833409,
      "v": 71
    },
    {
      "midi": 71,
      "hit": false,
      "t": 453041.8694999982,
      "d": 773.2897604166646,
      "v": 67
    },
    {
      "midi": 69,
      "hit": false,
      "t": 454048.20548958157,
      "d": 1408.870385416667,
      "v": 73
    },
    {
      "midi": 66,
      "hit": false,
      "t": 454058.7984999982,
      "d": 1387.6843645833433,
      "v": 75
    },
    {
      "midi": 67,
      "hit": false,
      "t": 455584.19199999823,
      "d": 1853.7768229166395,
      "v": 76
    },
    {
      "midi": 64,
      "hit": false,
      "t": 455584.19199999823,
      "d": 1874.9628437499632,
      "v": 75
    },
    {
      "midi": 52,
      "hit": false,
      "t": 456590.5279895816,
      "d": 296.60429166664835,
      "v": 75
    },
    {
      "midi": 64,
      "hit": false,
      "t": 457618.0499999982,
      "d": 254.23225000000093,
      "v": 66
    },
    {
      "midi": 67,
      "hit": false,
      "t": 457618.0499999982,
      "d": 391.94138541666325,
      "v": 62
    },
    {
      "midi": 52,
      "hit": false,
      "t": 457618.0499999982,
      "d": 1790.2187604166684,
      "v": 78
    },
    {
      "midi": 57,
      "hit": false,
      "t": 458126.5144999982,
      "d": 1313.533291666652,
      "v": 63
    },
    {
      "midi": 66,
      "hit": false,
      "t": 458126.5144999982,
      "d": 1313.533291666652,
      "v": 66
    },
    {
      "midi": 62,
      "hit": false,
      "t": 458126.5144999982,
      "d": 1345.3123229166376,
      "v": 72
    },
    {
      "midi": 55,
      "hit": false,
      "t": 458137.10751041485,
      "d": 211.8602083333535,
      "v": 60
    },
    {
      "midi": 55,
      "hit": false,
      "t": 459651.90799999813,
      "d": 3792.2977291666903,
      "v": 66
    },
    {
      "midi": 64,
      "hit": false,
      "t": 459651.90799999813,
      "d": 3813.483750000014,
      "v": 80
    },
    {
      "midi": 45,
      "hit": false,
      "t": 459651.90799999813,
      "d": 3877.041812499985,
      "v": 74
    },
    {
      "midi": 60,
      "hit": false,
      "t": 459662.5010104148,
      "d": 3834.6697708333377,
      "v": 86
    },
    {
      "midi": 66,
      "hit": false,
      "t": 463719.6239999981,
      "d": 2182.1601458333316,
      "v": 66
    },
    {
      "midi": 57,
      "hit": false,
      "t": 463719.6239999981,
      "d": 2192.7531562499935,
      "v": 62
    },
    {
      "midi": 63,
      "hit": false,
      "t": 463719.6239999981,
      "d": 2235.125197916641,
      "v": 81
    },
    {
      "midi": 47,
      "hit": false,
      "t": 463719.6239999981,
      "d": 3887.6348229165887,
      "v": 57
    },
    {
      "midi": 57,
      "hit": false,
      "t": 466261.94649999804,
      "d": 1197.0101770833135,
      "v": 66
    },
    {
      "midi": 63,
      "hit": false,
      "t": 466261.94649999804,
      "d": 1228.789208333299,
      "v": 71
    },
    {
      "midi": 66,
      "hit": false,
      "t": 466261.94649999804,
      "d": 1271.1612499999464,
      "v": 66
    },
    {
      "midi": 52,
      "hit": false,
      "t": 467787.339999998,
      "d": 3877.041812499985,
      "v": 58
    },
    {
      "midi": 59,
      "hit": false,
      "t": 467797.93301041465,
      "d": 3601.6235416666605,
      "v": 73
    },
    {
      "midi": 64,
      "hit": false,
      "t": 467797.93301041465,
      "d": 3739.332677083323,
      "v": 83
    },
    {
      "midi": 67,
      "hit": false,
      "t": 467797.93301041465,
      "d": 3792.297729166632,
      "v": 79
    },
    {
      "midi": 64,
      "hit": false,
      "t": 471855.05599999795,
      "d": 2817.740770833334,
      "v": 74
    },
    {
      "midi": 60,
      "hit": false,
      "t": 471855.05599999795,
      "d": 3972.37890625,
      "v": 63
    },
    {
      "midi": 45,
      "hit": false,
      "t": 471855.05599999795,
      "d": 4014.7509479166474,
      "v": 72
    },
    {
      "midi": 69,
      "hit": false,
      "t": 471855.05599999795,
      "d": 4014.7509479166474,
      "v": 64
    },
    {
      "midi": 64,
      "hit": false,
      "t": 474905.84299999796,
      "d": 942.7779270833125,
      "v": 73
    },
    {
      "midi": 67,
      "hit": false,
      "t": 475933.36501041456,
      "d": 3495.6934374999837,
      "v": 73
    },
    {
      "midi": 64,
      "hit": false,
      "t": 475933.36501041456,
      "d": 3559.251499999955,
      "v": 74
    },
    {
      "midi": 60,
      "hit": false,
      "t": 475933.36501041456,
      "d": 3601.6235416666023,
      "v": 59
    },
    {
      "midi": 48,
      "hit": false,
      "t": 475943.9580208312,
      "d": 3739.3326770832646,
      "v": 79
    },
    {
      "midi": 57,
      "hit": false,
      "t": 480001.08101041446,
      "d": 3866.4488020833232,
      "v": 69
    },
    {
      "midi": 63,
      "hit": false,
      "t": 480001.08101041446,
      "d": 3877.041812499985,
      "v": 75
    },
    {
      "midi": 66,
      "hit": false,
      "t": 480001.08101041446,
      "d": 3919.4138541666325,
      "v": 82
    },
    {
      "midi": 47,
      "hit": false,
      "t": 480001.08101041446,
      "d": 4035.936968749971,
      "v": 66
    },
    {
      "midi": 52,
      "hit": false,
      "t": 484058.20399999776,
      "d": 7807.0486770832795,
      "v": 74
    },
    {
      "midi": 59,
      "hit": false,
      "t": 484556.0754895811,
      "d": 582.6155729166348,
      "v": 70
    },
    {
      "midi": 64,
      "hit": false,
      "t": 485075.13299999776,
      "d": 391.94138541666325,
      "v": 90
    },
    {
      "midi": 67,
      "hit": false,
      "t": 485583.59749999776,
      "d": 868.6268541666795,
      "v": 99
    },
    {
      "midi": 71,
      "hit": false,
      "t": 485583.59749999776,
      "d": 879.2198645833414,
      "v": 85
    },
    {
      "midi": 66,
      "hit": false,
      "t": 486600.52649999777,
      "d": 1408.870385416667,
      "v": 78
    },
    {
      "midi": 69,
      "hit": false,
      "t": 486600.52649999777,
      "d": 1430.0564062499907,
      "v": 82
    },
    {
      "midi": 64,
      "hit": false,
      "t": 488125.9199999978,
      "d": 1832.5908020833158,
      "v": 76
    },
    {
      "midi": 67,
      "hit": false,
      "t": 488125.9199999978,
      "d": 1832.5908020833158,
      "v": 83
    },
    {
      "midi": 67,
      "hit": false,
      "t": 490149.18498958106,
      "d": 434.31342708331067,
      "v": 97
    },
    {
      "midi": 66,
      "hit": false,
      "t": 490657.64948958106,
      "d": 1271.1612499999464,
      "v": 88
    }
  ]
}