{
  "jsonPath": "World/Classic Schlager/Wolfgang Petry/sehnsucht-nach-dir.json",
  "path": "World\\Classic Schlager\\Wolfgang Petry\\Sehnsucht nach Dir.mid",
  "name": "Sehnsucht nach Dir",
  "difficulty": "Advanced",
  "bpm": 170.00201169047168,
  "notes": [
    {
      "midi": 53,
      "hit": false,
      "t": 2810.6285052083335,
      "d": 2740.7763906249997,
      "v": 97
    },
    {
      "midi": 65,
      "hit": false,
      "t": 2810.6285052083335,
      "d": 2742.6146041666666,
      "v": 94
    },
    {
      "midi": 60,
      "hit": false,
      "t": 2810.6285052083335,
      "d": 2746.2910312500003,
      "v": 104
    },
    {
      "midi": 57,
      "hit": false,
      "t": 2810.6285052083335,
      "d": 2749.967458333334,
      "v": 97
    },
    {
      "midi": 57,
      "hit": false,
      "t": 5634.124505208334,
      "d": 1189.324161458333,
      "v": 104
    },
    {
      "midi": 60,
      "hit": false,
      "t": 5634.124505208334,
      "d": 1189.324161458333,
      "v": 106
    },
    {
      "midi": 65,
      "hit": false,
      "t": 5634.124505208334,
      "d": 1211.3827239583334,
      "v": 94
    },
    {
      "midi": 53,
      "hit": false,
      "t": 5634.124505208334,
      "d": 1220.5737916666667,
      "v": 92
    },
    {
      "midi": 57,
      "hit": false,
      "t": 7045.872505208334,
      "d": 1249.9852083333335,
      "v": 104
    },
    {
      "midi": 60,
      "hit": false,
      "t": 7045.872505208334,
      "d": 1283.073052083333,
      "v": 104
    },
    {
      "midi": 64,
      "hit": false,
      "t": 7045.872505208334,
      "d": 1312.484468749999,
      "v": 100
    },
    {
      "midi": 45,
      "hit": false,
      "t": 7045.872505208334,
      "d": 1354.7633802083328,
      "v": 95
    },
    {
      "midi": 53,
      "hit": false,
      "t": 8457.620505208333,
      "d": 1275.7201979166657,
      "v": 104
    },
    {
      "midi": 58,
      "hit": false,
      "t": 8457.620505208333,
      "d": 1295.9405468749992,
      "v": 87
    },
    {
      "midi": 62,
      "hit": false,
      "t": 8457.620505208333,
      "d": 1299.616973958333,
      "v": 103
    },
    {
      "midi": 46,
      "hit": false,
      "t": 8457.620505208333,
      "d": 1351.0869531249991,
      "v": 87
    },
    {
      "midi": 57,
      "hit": false,
      "t": 9869.368505208333,
      "d": 1205.8680833333328,
      "v": 105
    },
    {
      "midi": 53,
      "hit": false,
      "t": 9869.368505208333,
      "d": 1215.059151041667,
      "v": 101
    },
    {
      "midi": 60,
      "hit": false,
      "t": 9869.368505208333,
      "d": 1259.1762760416677,
      "v": 100
    },
    {
      "midi": 41,
      "hit": false,
      "t": 9869.368505208333,
      "d": 1338.2194583333348,
      "v": 91
    },
    {
      "midi": 53,
      "hit": false,
      "t": 11281.116505208334,
      "d": 1264.6909166666665,
      "v": 101
    },
    {
      "midi": 57,
      "hit": false,
      "t": 11281.116505208334,
      "d": 1284.911265625,
      "v": 104
    },
    {
      "midi": 62,
      "hit": false,
      "t": 11281.116505208334,
      "d": 1334.5430312499993,
      "v": 98
    },
    {
      "midi": 50,
      "hit": false,
      "t": 11281.116505208334,
      "d": 1349.2487395833323,
      "v": 101
    },
    {
      "midi": 52,
      "hit": false,
      "t": 12692.864505208334,
      "d": 1277.5584114583326,
      "v": 103
    },
    {
      "midi": 60,
      "hit": false,
      "t": 12692.864505208334,
      "d": 1295.9405468749992,
      "v": 97
    },
    {
      "midi": 57,
      "hit": false,
      "t": 12692.864505208334,
      "d": 1303.2934010416666,
      "v": 96
    },
    {
      "midi": 45,
      "hit": false,
      "t": 12692.864505208334,
      "d": 1343.7340989583336,
      "v": 95
    },
    {
      "midi": 50,
      "hit": false,
      "t": 14104.612505208333,
      "d": 1275.7201979166675,
      "v": 100
    },
    {
      "midi": 55,
      "hit": false,
      "t": 14104.612505208333,
      "d": 1294.1023333333342,
      "v": 102
    },
    {
      "midi": 43,
      "hit": false,
      "t": 14104.612505208333,
      "d": 1345.5723125000004,
      "v": 99
    },
    {
      "midi": 58,
      "hit": false,
      "t": 14104.612505208333,
      "d": 1358.4398072916665,
      "v": 82
    },
    {
      "midi": 55,
      "hit": false,
      "t": 15516.360505208333,
      "d": 1314.3226822916658,
      "v": 105
    },
    {
      "midi": 52,
      "hit": false,
      "t": 15516.360505208333,
      "d": 1317.9991093749995,
      "v": 104
    },
    {
      "midi": 60,
      "hit": false,
      "t": 15516.360505208333,
      "d": 1336.381244791668,
      "v": 102
    },
    {
      "midi": 48,
      "hit": false,
      "t": 15516.360505208333,
      "d": 1367.6308750000026,
      "v": 94
    },
    {
      "midi": 57,
      "hit": false,
      "t": 16928.108505208336,
      "d": 1227.9266458333332,
      "v": 91
    },
    {
      "midi": 62,
      "hit": false,
      "t": 16928.108505208336,
      "d": 1251.8234218750003,
      "v": 100
    },
    {
      "midi": 65,
      "hit": false,
      "t": 16928.108505208336,
      "d": 1255.499848958334,
      "v": 98
    },
    {
      "midi": 50,
      "hit": false,
      "t": 16928.108505208336,
      "d": 1310.6462552083358,
      "v": 97
    },
    {
      "midi": 57,
      "hit": false,
      "t": 18339.85650520834,
      "d": 1268.3673437500001,
      "v": 95
    },
    {
      "midi": 60,
      "hit": false,
      "t": 18339.85650520834,
      "d": 1270.2055572916652,
      "v": 102
    },
    {
      "midi": 64,
      "hit": false,
      "t": 18339.85650520834,
      "d": 1279.3966249999976,
      "v": 95
    },
    {
      "midi": 45,
      "hit": false,
      "t": 18339.85650520834,
      "d": 1347.4105260416654,
      "v": 89
    },
    {
      "midi": 62,
      "hit": false,
      "t": 19751.60450520834,
      "d": 1251.8234218750003,
      "v": 99
    },
    {
      "midi": 53,
      "hit": false,
      "t": 19751.60450520834,
      "d": 1259.1762760416677,
      "v": 98
    },
    {
      "midi": 58,
      "hit": false,
      "t": 19751.60450520834,
      "d": 1266.5291302083351,
      "v": 87
    },
    {
      "midi": 46,
      "hit": false,
      "t": 19751.60450520834,
      "d": 1290.4259062500023,
      "v": 87
    },
    {
      "midi": 57,
      "hit": false,
      "t": 21163.352505208342,
      "d": 1248.1469947916667,
      "v": 102
    },
    {
      "midi": 53,
      "hit": false,
      "t": 21163.352505208342,
      "d": 1262.8527031250014,
      "v": 102
    },
    {
      "midi": 60,
      "hit": false,
      "t": 21163.352505208342,
      "d": 1283.073052083335,
      "v": 100
    },
    {
      "midi": 41,
      "hit": false,
      "t": 21163.352505208342,
      "d": 1321.6755364583332,
      "v": 87
    },
    {
      "midi": 53,
      "hit": false,
      "t": 22575.100505208342,
      "d": 1295.940546875001,
      "v": 97
    },
    {
      "midi": 62,
      "hit": false,
      "t": 22575.100505208342,
      "d": 1295.940546875001,
      "v": 89
    },
    {
      "midi": 46,
      "hit": false,
      "t": 22575.100505208342,
      "d": 1305.1316145833334,
      "v": 88
    },
    {
      "midi": 58,
      "hit": false,
      "t": 22575.100505208342,
      "d": 1321.6755364583332,
      "v": 87
    },
    {
      "midi": 60,
      "hit": false,
      "t": 23986.84850520834,
      "d": 1163.589171874999,
      "v": 93
    },
    {
      "midi": 57,
      "hit": false,
      "t": 23986.84850520834,
      "d": 1220.5737916666658,
      "v": 98
    },
    {
      "midi": 53,
      "hit": false,
      "t": 23986.84850520834,
      "d": 1227.9266458333332,
      "v": 97
    },
    {
      "midi": 41,
      "hit": false,
      "t": 23986.84850520834,
      "d": 1336.381244791668,
      "v": 91
    },
    {
      "midi": 55,
      "hit": false,
      "t": 25398.59650520834,
      "d": 2838.201708333334,
      "v": 104
    },
    {
      "midi": 48,
      "hit": false,
      "t": 25398.59650520834,
      "d": 2845.5545625000013,
      "v": 99
    },
    {
      "midi": 52,
      "hit": false,
      "t": 25398.59650520834,
      "d": 2851.069203125,
      "v": 104
    },
    {
      "midi": 60,
      "hit": false,
      "t": 28222.09250520834,
      "d": 33.08784374999959,
      "v": 94
    },
    {
      "midi": 53,
      "hit": false,
      "t": 28222.09250520834,
      "d": 1249.9852083333317,
      "v": 101
    },
    {
      "midi": 57,
      "hit": false,
      "t": 28222.09250520834,
      "d": 1268.3673437500001,
      "v": 103
    },
    {
      "midi": 41,
      "hit": false,
      "t": 28222.09250520834,
      "d": 1279.3966250000012,
      "v": 97
    },
    {
      "midi": 58,
      "hit": false,
      "t": 29633.84050520834,
      "d": 1222.4120052083344,
      "v": 86
    },
    {
      "midi": 53,
      "hit": false,
      "t": 29633.84050520834,
      "d": 1257.3380625000027,
      "v": 104
    },
    {
      "midi": 46,
      "hit": false,
      "t": 29633.84050520834,
      "d": 1281.23483854167,
      "v": 85
    },
    {
      "midi": 62,
      "hit": false,
      "t": 29633.84050520834,
      "d": 1286.7494791666686,
      "v": 102
    },
    {
      "midi": 55,
      "hit": false,
      "t": 31045.588505208343,
      "d": 1246.3087812500016,
      "v": 97
    },
    {
      "midi": 58,
      "hit": false,
      "t": 31045.588505208343,
      "d": 1257.3380625000027,
      "v": 87
    },
    {
      "midi": 62,
      "hit": false,
      "t": 31045.588505208343,
      "d": 1281.23483854167,
      "v": 102
    },
    {
      "midi": 43,
      "hit": false,
      "t": 31045.588505208343,
      "d": 1297.7787604166697,
      "v": 95
    },
    {
      "midi": 55,
      "hit": false,
      "t": 32457.336505208346,
      "d": 1220.5737916666694,
      "v": 101
    },
    {
      "midi": 60,
      "hit": false,
      "t": 32457.336505208346,
      "d": 1224.2502187499995,
      "v": 101
    },
    {
      "midi": 64,
      "hit": false,
      "t": 32457.336505208346,
      "d": 1238.9559270833342,
      "v": 99
    },
    {
      "midi": 48,
      "hit": false,
      "t": 32457.336505208346,
      "d": 1242.6323541666643,
      "v": 105
    },
    {
      "midi": 57,
      "hit": false,
      "t": 33869.084505208346,
      "d": 1249.9852083333317,
      "v": 103
    },
    {
      "midi": 60,
      "hit": false,
      "t": 33869.084505208346,
      "d": 1253.6616354166617,
      "v": 110
    },
    {
      "midi": 64,
      "hit": false,
      "t": 33869.084505208346,
      "d": 1268.3673437499965,
      "v": 104
    },
    {
      "midi": 45,
      "hit": false,
      "t": 33869.084505208346,
      "d": 1272.0437708333266,
      "v": 97
    },
    {
      "midi": 57,
      "hit": false,
      "t": 35280.83250520834,
      "d": 1284.911265625,
      "v": 105
    },
    {
      "midi": 62,
      "hit": false,
      "t": 35280.83250520834,
      "d": 1288.58769270833,
      "v": 102
    },
    {
      "midi": 65,
      "hit": false,
      "t": 35280.83250520834,
      "d": 1340.0576718749944,
      "v": 97
    },
    {
      "midi": 50,
      "hit": false,
      "t": 35280.83250520834,
      "d": 1343.7340989583245,
      "v": 97
    },
    {
      "midi": 58,
      "hit": false,
      "t": 36692.58050520833,
      "d": 1226.0884322916681,
      "v": 80
    },
    {
      "midi": 53,
      "hit": false,
      "t": 36692.58050520833,
      "d": 1248.1469947916703,
      "v": 102
    },
    {
      "midi": 46,
      "hit": false,
      "t": 36692.58050520833,
      "d": 1277.5584114583398,
      "v": 94
    },
    {
      "midi": 62,
      "hit": false,
      "t": 36692.58050520833,
      "d": 1277.5584114583398,
      "v": 101
    },
    {
      "midi": 52,
      "hit": false,
      "t": 38104.32850520834,
      "d": 1235.279499999997,
      "v": 103
    },
    {
      "midi": 55,
      "hit": false,
      "t": 38104.32850520834,
      "d": 1237.1177135416656,
      "v": 109
    },
    {
      "midi": 60,
      "hit": false,
      "t": 38104.32850520834,
      "d": 1264.6909166666665,
      "v": 87
    },
    {
      "midi": 48,
      "hit": false,
      "t": 38104.32850520834,
      "d": 1268.3673437499965,
      "v": 96
    },
    {
      "midi": 53,
      "hit": false,
      "t": 39516.07650520834,
      "d": 1275.720197916664,
      "v": 99
    },
    {
      "midi": 57,
      "hit": false,
      "t": 39516.07650520834,
      "d": 1294.1023333333287,
      "v": 117
    },
    {
      "midi": 41,
      "hit": false,
      "t": 39516.07650520834,
      "d": 1310.6462552083321,
      "v": 86
    },
    {
      "midi": 60,
      "hit": false,
      "t": 39516.07650520834,
      "d": 1312.4844687500008,
      "v": 106
    },
    {
      "midi": 58,
      "hit": false,
      "t": 40927.82450520834,
      "d": 1194.83880208333,
      "v": 94
    },
    {
      "midi": 46,
      "hit": false,
      "t": 40927.82450520834,
      "d": 1209.5445104166647,
      "v": 90
    },
    {
      "midi": 53,
      "hit": false,
      "t": 40927.82450520834,
      "d": 1215.0591510416634,
      "v": 112
    },
    {
      "midi": 62,
      "hit": false,
      "t": 40927.82450520834,
      "d": 1218.7355781249935,
      "v": 94
    },
    {
      "midi": 55,
      "hit": false,
      "t": 42339.57250520833,
      "d": 1319.8373229166682,
      "v": 100
    },
    {
      "midi": 58,
      "hit": false,
      "t": 42339.57250520833,
      "d": 1349.2487395833377,
      "v": 103
    },
    {
      "midi": 62,
      "hit": false,
      "t": 42339.57250520833,
      "d": 1365.7926614583412,
      "v": 105
    },
    {
      "midi": 43,
      "hit": false,
      "t": 42339.57250520833,
      "d": 1415.424427083337,
      "v": 83
    },
    {
      "midi": 60,
      "hit": false,
      "t": 43751.320505208336,
      "d": 1277.5584114583326,
      "v": 104
    },
    {
      "midi": 55,
      "hit": false,
      "t": 43751.320505208336,
      "d": 1279.3966250000012,
      "v": 103
    },
    {
      "midi": 64,
      "hit": false,
      "t": 43751.320505208336,
      "d": 1288.5876927083373,
      "v": 106
    },
    {
      "midi": 48,
      "hit": false,
      "t": 43751.320505208336,
      "d": 1294.102333333336,
      "v": 97
    },
    {
      "midi": 57,
      "hit": false,
      "t": 45163.068505208335,
      "d": 1255.4998489583304,
      "v": 109
    },
    {
      "midi": 60,
      "hit": false,
      "t": 45163.068505208335,
      "d": 1272.0437708333338,
      "v": 109
    },
    {
      "midi": 64,
      "hit": false,
      "t": 45163.068505208335,
      "d": 1301.4551875000034,
      "v": 102
    },
    {
      "midi": 45,
      "hit": false,
      "t": 45163.068505208335,
      "d": 1323.5137500000055,
      "v": 95
    },
    {
      "midi": 57,
      "hit": false,
      "t": 46574.81650520834,
      "d": 1259.1762760416677,
      "v": 103
    },
    {
      "midi": 62,
      "hit": false,
      "t": 46574.81650520834,
      "d": 1270.2055572916652,
      "v": 105
    },
    {
      "midi": 65,
      "hit": false,
      "t": 46574.81650520834,
      "d": 1349.2487395833305,
      "v": 104
    },
    {
      "midi": 50,
      "hit": false,
      "t": 46574.81650520834,
      "d": 1354.7633802083292,
      "v": 89
    },
    {
      "midi": 53,
      "hit": false,
      "t": 47986.564505208335,
      "d": 577.1990520833351,
      "v": 112
    },
    {
      "midi": 58,
      "hit": false,
      "t": 47986.564505208335,
      "d": 582.7136927083338,
      "v": 110
    },
    {
      "midi": 46,
      "hit": false,
      "t": 47986.564505208335,
      "d": 604.772255208336,
      "v": 91
    },
    {
      "midi": 62,
      "hit": false,
      "t": 47986.564505208335,
      "d": 613.963322916672,
      "v": 107
    },
    {
      "midi": 64,
      "hit": false,
      "t": 48692.43850520834,
      "d": 599.25761458333,
      "v": 98
    },
    {
      "midi": 55,
      "hit": false,
      "t": 48692.43850520834,
      "d": 619.4779635416635,
      "v": 114
    },
    {
      "midi": 60,
      "hit": false,
      "t": 48692.43850520834,
      "d": 628.6690312499995,
      "v": 111
    },
    {
      "midi": 48,
      "hit": false,
      "t": 48692.43850520834,
      "d": 661.7568749999991,
      "v": 97
    },
    {
      "midi": 60,
      "hit": false,
      "t": 49398.312505208334,
      "d": 1284.911265625,
      "v": 104
    },
    {
      "midi": 57,
      "hit": false,
      "t": 49398.312505208334,
      "d": 1295.9405468749974,
      "v": 118
    },
    {
      "midi": 65,
      "hit": false,
      "t": 49398.312505208334,
      "d": 1301.455187499996,
      "v": 111
    },
    {
      "midi": 41,
      "hit": false,
      "t": 49398.312505208334,
      "d": 1338.219458333333,
      "v": 96
    },
    {
      "midi": 53,
      "hit": false,
      "t": 50810.060505208334,
      "d": 1249.9852083333317,
      "v": 101
    },
    {
      "midi": 57,
      "hit": false,
      "t": 50810.060505208334,
      "d": 1268.3673437499965,
      "v": 103
    },
    {
      "midi": 60,
      "hit": false,
      "t": 50810.060505208334,
      "d": 1277.5584114583326,
      "v": 94
    },
    {
      "midi": 41,
      "hit": false,
      "t": 50810.060505208334,
      "d": 1279.3966250000012,
      "v": 97
    },
    {
      "midi": 58,
      "hit": false,
      "t": 52221.80850520833,
      "d": 1222.4120052083308,
      "v": 86
    },
    {
      "midi": 53,
      "hit": false,
      "t": 52221.80850520833,
      "d": 1257.338062499999,
      "v": 104
    },
    {
      "midi": 46,
      "hit": false,
      "t": 52221.80850520833,
      "d": 1281.2348385416626,
      "v": 85
    },
    {
      "midi": 62,
      "hit": false,
      "t": 52221.80850520833,
      "d": 1286.7494791666613,
      "v": 102
    },
    {
      "midi": 55,
      "hit": false,
      "t": 53633.556505208326,
      "d": 1246.3087812500016,
      "v": 97
    },
    {
      "midi": 58,
      "hit": false,
      "t": 53633.556505208326,
      "d": 1257.338062499999,
      "v": 87
    },
    {
      "midi": 62,
      "hit": false,
      "t": 53633.556505208326,
      "d": 1281.2348385416626,
      "v": 102
    },
    {
      "midi": 43,
      "hit": false,
      "t": 53633.556505208326,
      "d": 1297.778760416666,
      "v": 95
    },
    {
      "midi": 55,
      "hit": false,
      "t": 55045.304505208325,
      "d": 1220.5737916666694,
      "v": 101
    },
    {
      "midi": 60,
      "hit": false,
      "t": 55045.304505208325,
      "d": 1224.2502187499995,
      "v": 101
    },
    {
      "midi": 64,
      "hit": false,
      "t": 55045.304505208325,
      "d": 1238.9559270833342,
      "v": 99
    },
    {
      "midi": 48,
      "hit": false,
      "t": 55045.304505208325,
      "d": 1242.6323541666643,
      "v": 105
    },
    {
      "midi": 57,
      "hit": false,
      "t": 56457.052505208325,
      "d": 1249.9852083333317,
      "v": 103
    },
    {
      "midi": 60,
      "hit": false,
      "t": 56457.052505208325,
      "d": 1253.6616354166617,
      "v": 110
    },
    {
      "midi": 64,
      "hit": false,
      "t": 56457.052505208325,
      "d": 1268.3673437499965,
      "v": 104
    },
    {
      "midi": 45,
      "hit": false,
      "t": 56457.052505208325,
      "d": 1272.0437708333266,
      "v": 97
    },
    {
      "midi": 57,
      "hit": false,
      "t": 57868.80050520832,
      "d": 1284.911265625,
      "v": 105
    },
    {
      "midi": 62,
      "hit": false,
      "t": 57868.80050520832,
      "d": 1288.58769270833,
      "v": 102
    },
    {
      "midi": 65,
      "hit": false,
      "t": 57868.80050520832,
      "d": 1340.0576718749944,
      "v": 97
    },
    {
      "midi": 50,
      "hit": false,
      "t": 57868.80050520832,
      "d": 1343.7340989583245,
      "v": 97
    },
    {
      "midi": 58,
      "hit": false,
      "t": 59280.54850520831,
      "d": 1226.0884322916681,
      "v": 80
    },
    {
      "midi": 53,
      "hit": false,
      "t": 59280.54850520831,
      "d": 1248.1469947916703,
      "v": 102
    },
    {
      "midi": 46,
      "hit": false,
      "t": 59280.54850520831,
      "d": 1277.5584114583398,
      "v": 94
    },
    {
      "midi": 62,
      "hit": false,
      "t": 59280.54850520831,
      "d": 1277.5584114583398,
      "v": 101
    },
    {
      "midi": 52,
      "hit": false,
      "t": 60692.29650520832,
      "d": 1235.279499999997,
      "v": 103
    },
    {
      "midi": 55,
      "hit": false,
      "t": 60692.29650520832,
      "d": 1237.1177135416656,
      "v": 109
    },
    {
      "midi": 60,
      "hit": false,
      "t": 60692.29650520832,
      "d": 1264.6909166666665,
      "v": 87
    },
    {
      "midi": 48,
      "hit": false,
      "t": 60692.29650520832,
      "d": 1268.3673437499965,
      "v": 96
    },
    {
      "midi": 53,
      "hit": false,
      "t": 62104.044505208316,
      "d": 1275.720197916664,
      "v": 99
    },
    {
      "midi": 57,
      "hit": false,
      "t": 62104.044505208316,
      "d": 1294.1023333333287,
      "v": 117
    },
    {
      "midi": 41,
      "hit": false,
      "t": 62104.044505208316,
      "d": 1310.6462552083321,
      "v": 86
    },
    {
      "midi": 60,
      "hit": false,
      "t": 62104.044505208316,
      "d": 1312.4844687500008,
      "v": 106
    },
    {
      "midi": 58,
      "hit": false,
      "t": 63515.792505208316,
      "d": 1194.83880208333,
      "v": 94
    },
    {
      "midi": 46,
      "hit": false,
      "t": 63515.792505208316,
      "d": 1209.5445104166647,
      "v": 90
    },
    {
      "midi": 53,
      "hit": false,
      "t": 63515.792505208316,
      "d": 1215.0591510416634,
      "v": 112
    },
    {
      "midi": 62,
      "hit": false,
      "t": 63515.792505208316,
      "d": 1218.7355781249935,
      "v": 94
    },
    {
      "midi": 55,
      "hit": false,
      "t": 64927.54050520831,
      "d": 1319.837322916661,
      "v": 100
    },
    {
      "midi": 58,
      "hit": false,
      "t": 64927.54050520831,
      "d": 1349.2487395833305,
      "v": 103
    },
    {
      "midi": 62,
      "hit": false,
      "t": 64927.54050520831,
      "d": 1365.7926614583266,
      "v": 105
    },
    {
      "midi": 43,
      "hit": false,
      "t": 64927.54050520831,
      "d": 1415.4244270833296,
      "v": 83
    },
    {
      "midi": 60,
      "hit": false,
      "t": 66339.2885052083,
      "d": 1277.5584114583326,
      "v": 104
    },
    {
      "midi": 55,
      "hit": false,
      "t": 66339.2885052083,
      "d": 1279.396624999994,
      "v": 103
    },
    {
      "midi": 64,
      "hit": false,
      "t": 66339.2885052083,
      "d": 1288.58769270833,
      "v": 106
    },
    {
      "midi": 48,
      "hit": false,
      "t": 66339.2885052083,
      "d": 1294.1023333333287,
      "v": 97
    },
    {
      "midi": 57,
      "hit": false,
      "t": 67751.03650520829,
      "d": 1255.4998489583377,
      "v": 109
    },
    {
      "midi": 60,
      "hit": false,
      "t": 67751.03650520829,
      "d": 1272.0437708333338,
      "v": 109
    },
    {
      "midi": 64,
      "hit": false,
      "t": 67751.03650520829,
      "d": 1301.4551875000034,
      "v": 102
    },
    {
      "midi": 45,
      "hit": false,
      "t": 67751.03650520829,
      "d": 1323.5137499999983,
      "v": 95
    },
    {
      "midi": 57,
      "hit": false,
      "t": 69162.78450520828,
      "d": 1259.1762760416605,
      "v": 103
    },
    {
      "midi": 62,
      "hit": false,
      "t": 69162.78450520828,
      "d": 1270.205557291658,
      "v": 105
    },
    {
      "midi": 65,
      "hit": false,
      "t": 69162.78450520828,
      "d": 1349.2487395833305,
      "v": 104
    },
    {
      "midi": 50,
      "hit": false,
      "t": 69162.78450520828,
      "d": 1354.7633802083292,
      "v": 89
    },
    {
      "midi": 53,
      "hit": false,
      "t": 70574.53250520828,
      "d": 577.1990520833351,
      "v": 112
    },
    {
      "midi": 58,
      "hit": false,
      "t": 70574.53250520828,
      "d": 582.7136927083338,
      "v": 110
    },
    {
      "midi": 46,
      "hit": false,
      "t": 70574.53250520828,
      "d": 604.7722552083287,
      "v": 91
    },
    {
      "midi": 62,
      "hit": false,
      "t": 70574.53250520828,
      "d": 613.9633229166648,
      "v": 107
    },
    {
      "midi": 64,
      "hit": false,
      "t": 71280.40650520827,
      "d": 599.25761458333,
      "v": 98
    },
    {
      "midi": 55,
      "hit": false,
      "t": 71280.40650520827,
      "d": 619.4779635416635,
      "v": 114
    },
    {
      "midi": 60,
      "hit": false,
      "t": 71280.40650520827,
      "d": 628.6690312499995,
      "v": 111
    },
    {
      "midi": 48,
      "hit": false,
      "t": 71280.40650520827,
      "d": 661.7568750000064,
      "v": 97
    },
    {
      "midi": 60,
      "hit": false,
      "t": 71986.28050520828,
      "d": 1284.9112656249927,
      "v": 104
    },
    {
      "midi": 57,
      "hit": false,
      "t": 71986.28050520828,
      "d": 1295.94054687499,
      "v": 118
    },
    {
      "midi": 65,
      "hit": false,
      "t": 71986.28050520828,
      "d": 1301.4551874999888,
      "v": 111
    },
    {
      "midi": 41,
      "hit": false,
      "t": 71986.28050520828,
      "d": 1338.2194583333185,
      "v": 96
    },
    {
      "midi": 57,
      "hit": false,
      "t": 73398.02850520828,
      "d": 1189.3241614583385,
      "v": 104
    },
    {
      "midi": 60,
      "hit": false,
      "t": 73398.02850520828,
      "d": 1189.3241614583385,
      "v": 106
    },
    {
      "midi": 65,
      "hit": false,
      "t": 73398.02850520828,
      "d": 1211.3827239583334,
      "v": 94
    },
    {
      "midi": 53,
      "hit": false,
      "t": 73398.02850520828,
      "d": 1220.5737916666694,
      "v": 92
    },
    {
      "midi": 57,
      "hit": false,
      "t": 74809.77650520828,
      "d": 1249.9852083333244,
      "v": 104
    },
    {
      "midi": 60,
      "hit": false,
      "t": 74809.77650520828,
      "d": 1283.0730520833313,
      "v": 104
    },
    {
      "midi": 45,
      "hit": false,
      "t": 74809.77650520828,
      "d": 1354.7633802083292,
      "v": 95
    },
    {
      "midi": 64,
      "hit": false,
      "t": 74811.61471874994,
      "d": 1310.6462552083394,
      "v": 100
    },
    {
      "midi": 53,
      "hit": false,
      "t": 76221.52450520828,
      "d": 1275.7201979166566,
      "v": 104
    },
    {
      "midi": 58,
      "hit": false,
      "t": 76221.52450520828,
      "d": 1295.94054687499,
      "v": 87
    },
    {
      "midi": 46,
      "hit": false,
      "t": 76221.52450520828,
      "d": 1351.0869531249919,
      "v": 87
    },
    {
      "midi": 62,
      "hit": false,
      "t": 76223.36271874994,
      "d": 1297.778760416666,
      "v": 103
    },
    {
      "midi": 57,
      "hit": false,
      "t": 77633.27250520827,
      "d": 1205.8680833333347,
      "v": 105
    },
    {
      "midi": 53,
      "hit": false,
      "t": 77633.27250520827,
      "d": 1215.0591510416707,
      "v": 101
    },
    {
      "midi": 60,
      "hit": false,
      "t": 77633.27250520827,
      "d": 1259.176276041675,
      "v": 100
    },
    {
      "midi": 41,
      "hit": false,
      "t": 77633.27250520827,
      "d": 1338.2194583333476,
      "v": 91
    },
    {
      "midi": 53,
      "hit": false,
      "t": 79045.02050520829,
      "d": 1264.6909166666737,
      "v": 101
    },
    {
      "midi": 57,
      "hit": false,
      "t": 79045.02050520829,
      "d": 1284.9112656250072,
      "v": 104
    },
    {
      "midi": 62,
      "hit": false,
      "t": 79045.02050520829,
      "d": 1334.5430312500102,
      "v": 98
    },
    {
      "midi": 50,
      "hit": false,
      "t": 79045.02050520829,
      "d": 1349.248739583345,
      "v": 101
    },
    {
      "midi": 52,
      "hit": false,
      "t": 80456.7685052083,
      "d": 1277.5584114583326,
      "v": 103
    },
    {
      "midi": 60,
      "hit": false,
      "t": 80456.7685052083,
      "d": 1295.9405468750047,
      "v": 97
    },
    {
      "midi": 57,
      "hit": false,
      "t": 80456.7685052083,
      "d": 1303.2934010416648,
      "v": 96
    },
    {
      "midi": 45,
      "hit": false,
      "t": 80456.7685052083,
      "d": 1345.5723124999931,
      "v": 95
    },
    {
      "midi": 50,
      "hit": false,
      "t": 81868.51650520829,
      "d": 1275.7201979166712,
      "v": 100
    },
    {
      "midi": 55,
      "hit": false,
      "t": 81868.51650520829,
      "d": 1294.1023333333433,
      "v": 102
    },
    {
      "midi": 43,
      "hit": false,
      "t": 81868.51650520829,
      "d": 1345.5723125000077,
      "v": 99
    },
    {
      "midi": 58,
      "hit": false,
      "t": 81868.51650520829,
      "d": 1358.439807291681,
      "v": 82
    },
    {
      "midi": 55,
      "hit": false,
      "t": 83280.26450520831,
      "d": 1314.3226822916622,
      "v": 105
    },
    {
      "midi": 60,
      "hit": false,
      "t": 83280.26450520831,
      "d": 1336.3812447916716,
      "v": 102
    },
    {
      "midi": 48,
      "hit": false,
      "t": 83280.26450520831,
      "d": 1369.4690885416785,
      "v": 94
    },
    {
      "midi": 52,
      "hit": false,
      "t": 83282.10271874997,
      "d": 1316.1608958333381,
      "v": 104
    },
    {
      "midi": 57,
      "hit": false,
      "t": 84692.01250520832,
      "d": 1227.9266458333295,
      "v": 91
    },
    {
      "midi": 62,
      "hit": false,
      "t": 84692.01250520832,
      "d": 1251.8234218750003,
      "v": 100
    },
    {
      "midi": 65,
      "hit": false,
      "t": 84692.01250520832,
      "d": 1255.4998489583377,
      "v": 98
    },
    {
      "midi": 50,
      "hit": false,
      "t": 84692.01250520832,
      "d": 1310.6462552083394,
      "v": 97
    },
    {
      "midi": 57,
      "hit": false,
      "t": 86103.76050520832,
      "d": 1268.3673437499965,
      "v": 95
    },
    {
      "midi": 60,
      "hit": false,
      "t": 86103.76050520832,
      "d": 1270.205557291658,
      "v": 102
    },
    {
      "midi": 64,
      "hit": false,
      "t": 86103.76050520832,
      "d": 1279.396624999994,
      "v": 95
    },
    {
      "midi": 45,
      "hit": false,
      "t": 86103.76050520832,
      "d": 1345.5723124999931,
      "v": 89
    },
    {
      "midi": 62,
      "hit": false,
      "t": 87515.50850520832,
      "d": 1251.8234218750003,
      "v": 99
    },
    {
      "midi": 53,
      "hit": false,
      "t": 87515.50850520832,
      "d": 1259.1762760416605,
      "v": 98
    },
    {
      "midi": 58,
      "hit": false,
      "t": 87515.50850520832,
      "d": 1264.6909166666592,
      "v": 87
    },
    {
      "midi": 46,
      "hit": false,
      "t": 87515.50850520832,
      "d": 1290.4259062499914,
      "v": 87
    },
    {
      "midi": 57,
      "hit": false,
      "t": 88927.25650520831,
      "d": 1248.146994791663,
      "v": 102
    },
    {
      "midi": 53,
      "hit": false,
      "t": 88927.25650520831,
      "d": 1262.8527031249978,
      "v": 102
    },
    {
      "midi": 60,
      "hit": false,
      "t": 88927.25650520831,
      "d": 1283.0730520833313,
      "v": 100
    },
    {
      "midi": 41,
      "hit": false,
      "t": 88927.25650520831,
      "d": 1321.6755364583369,
      "v": 87
    },
    {
      "midi": 53,
      "hit": false,
      "t": 90339.00450520832,
      "d": 1295.9405468750047,
      "v": 97
    },
    {
      "midi": 62,
      "hit": false,
      "t": 90339.00450520832,
      "d": 1295.9405468750047,
      "v": 89
    },
    {
      "midi": 46,
      "hit": false,
      "t": 90339.00450520832,
      "d": 1305.1316145833407,
      "v": 88
    },
    {
      "midi": 58,
      "hit": false,
      "t": 90339.00450520832,
      "d": 1321.6755364583369,
      "v": 87
    },
    {
      "midi": 60,
      "hit": false,
      "t": 91750.75250520832,
      "d": 1163.5891718750063,
      "v": 93
    },
    {
      "midi": 57,
      "hit": false,
      "t": 91750.75250520832,
      "d": 1220.5737916666694,
      "v": 98
    },
    {
      "midi": 53,
      "hit": false,
      "t": 91750.75250520832,
      "d": 1227.9266458333295,
      "v": 97
    },
    {
      "midi": 41,
      "hit": false,
      "t": 91750.75250520832,
      "d": 1336.381244791657,
      "v": 91
    },
    {
      "midi": 55,
      "hit": false,
      "t": 93162.50050520831,
      "d": 2838.201708333334,
      "v": 104
    },
    {
      "midi": 48,
      "hit": false,
      "t": 93162.50050520831,
      "d": 2845.554562499994,
      "v": 99
    },
    {
      "midi": 52,
      "hit": false,
      "t": 93162.50050520831,
      "d": 2851.069203124993,
      "v": 104
    },
    {
      "midi": 60,
      "hit": false,
      "t": 95985.99650520831,
      "d": 33.08784374999232,
      "v": 94
    },
    {
      "midi": 53,
      "hit": false,
      "t": 95985.99650520831,
      "d": 1249.9852083333244,
      "v": 101
    },
    {
      "midi": 57,
      "hit": false,
      "t": 95985.99650520831,
      "d": 1268.3673437499965,
      "v": 103
    },
    {
      "midi": 41,
      "hit": false,
      "t": 95987.83471874997,
      "d": 1277.5584114583326,
      "v": 97
    },
    {
      "midi": 58,
      "hit": false,
      "t": 97397.7445052083,
      "d": 1222.4120052083308,
      "v": 86
    },
    {
      "midi": 53,
      "hit": false,
      "t": 97397.7445052083,
      "d": 1257.338062499999,
      "v": 104
    },
    {
      "midi": 46,
      "hit": false,
      "t": 97397.7445052083,
      "d": 1281.23483854167,
      "v": 85
    },
    {
      "midi": 62,
      "hit": false,
      "t": 97397.7445052083,
      "d": 1286.7494791666686,
      "v": 102
    },
    {
      "midi": 55,
      "hit": false,
      "t": 98809.49250520831,
      "d": 1246.3087812500016,
      "v": 97
    },
    {
      "midi": 58,
      "hit": false,
      "t": 98809.49250520831,
      "d": 1257.338062499999,
      "v": 87
    },
    {
      "midi": 62,
      "hit": false,
      "t": 98809.49250520831,
      "d": 1281.23483854167,
      "v": 102
    },
    {
      "midi": 43,
      "hit": false,
      "t": 98809.49250520831,
      "d": 1297.778760416666,
      "v": 95
    },
    {
      "midi": 55,
      "hit": false,
      "t": 100221.2405052083,
      "d": 1220.5737916666694,
      "v": 101
    },
    {
      "midi": 60,
      "hit": false,
      "t": 100221.2405052083,
      "d": 1224.2502187500068,
      "v": 101
    },
    {
      "midi": 64,
      "hit": false,
      "t": 100221.2405052083,
      "d": 1238.9559270833415,
      "v": 99
    },
    {
      "midi": 48,
      "hit": false,
      "t": 100221.2405052083,
      "d": 1242.6323541666789,
      "v": 105
    },
    {
      "midi": 57,
      "hit": false,
      "t": 101632.98850520831,
      "d": 1249.985208333339,
      "v": 103
    },
    {
      "midi": 60,
      "hit": false,
      "t": 101632.98850520831,
      "d": 1253.6616354166763,
      "v": 110
    },
    {
      "midi": 64,
      "hit": false,
      "t": 101632.98850520831,
      "d": 1268.367343750011,
      "v": 104
    },
    {
      "midi": 45,
      "hit": false,
      "t": 101632.98850520831,
      "d": 1272.0437708333484,
      "v": 97
    },
    {
      "midi": 57,
      "hit": false,
      "t": 103044.73650520833,
      "d": 1284.9112656250072,
      "v": 105
    },
    {
      "midi": 62,
      "hit": false,
      "t": 103044.73650520833,
      "d": 1288.5876927083445,
      "v": 102
    },
    {
      "midi": 65,
      "hit": false,
      "t": 103044.73650520833,
      "d": 1340.057671875009,
      "v": 97
    },
    {
      "midi": 50,
      "hit": false,
      "t": 103044.73650520833,
      "d": 1343.7340989583463,
      "v": 97
    },
    {
      "midi": 58,
      "hit": false,
      "t": 104456.48450520834,
      "d": 1226.0884322916681,
      "v": 80
    },
    {
      "midi": 53,
      "hit": false,
      "t": 104456.48450520834,
      "d": 1248.146994791663,
      "v": 102
    },
    {
      "midi": 62,
      "hit": false,
      "t": 104456.48450520834,
      "d": 1277.5584114583326,
      "v": 101
    },
    {
      "midi": 46,
      "hit": false,
      "t": 104458.32271875,
      "d": 1275.7201979166712,
      "v": 94
    },
    {
      "midi": 52,
      "hit": false,
      "t": 105868.23250520833,
      "d": 1235.2794999999896,
      "v": 103
    },
    {
      "midi": 55,
      "hit": false,
      "t": 105868.23250520833,
      "d": 1237.117713541651,
      "v": 109
    },
    {
      "midi": 60,
      "hit": false,
      "t": 105868.23250520833,
      "d": 1264.6909166666446,
      "v": 87
    },
    {
      "midi": 48,
      "hit": false,
      "t": 105870.07071875,
      "d": 1266.5291302083206,
      "v": 96
    },
    {
      "midi": 53,
      "hit": false,
      "t": 107279.98050520831,
      "d": 1275.7201979166712,
      "v": 99
    },
    {
      "midi": 57,
      "hit": false,
      "t": 107279.98050520831,
      "d": 1294.1023333333433,
      "v": 117
    },
    {
      "midi": 41,
      "hit": false,
      "t": 107279.98050520831,
      "d": 1310.6462552083394,
      "v": 86
    },
    {
      "midi": 60,
      "hit": false,
      "t": 107279.98050520831,
      "d": 1312.4844687500008,
      "v": 106
    },
    {
      "midi": 58,
      "hit": false,
      "t": 108691.72850520832,
      "d": 1194.8388020833372,
      "v": 94
    },
    {
      "midi": 46,
      "hit": false,
      "t": 108691.72850520832,
      "d": 1209.544510416672,
      "v": 90
    },
    {
      "midi": 53,
      "hit": false,
      "t": 108691.72850520832,
      "d": 1215.0591510416707,
      "v": 112
    },
    {
      "midi": 62,
      "hit": false,
      "t": 108691.72850520832,
      "d": 1218.735578125008,
      "v": 94
    },
    {
      "midi": 55,
      "hit": false,
      "t": 110103.47650520832,
      "d": 1319.837322916661,
      "v": 100
    },
    {
      "midi": 58,
      "hit": false,
      "t": 110103.47650520832,
      "d": 1349.2487395833305,
      "v": 103
    },
    {
      "midi": 62,
      "hit": false,
      "t": 110103.47650520832,
      "d": 1365.7926614583266,
      "v": 105
    },
    {
      "midi": 43,
      "hit": false,
      "t": 110103.47650520832,
      "d": 1415.4244270833296,
      "v": 83
    },
    {
      "midi": 60,
      "hit": false,
      "t": 111515.22450520832,
      "d": 1277.5584114583326,
      "v": 104
    },
    {
      "midi": 55,
      "hit": false,
      "t": 111515.22450520832,
      "d": 1279.396624999994,
      "v": 103
    },
    {
      "midi": 64,
      "hit": false,
      "t": 111515.22450520832,
      "d": 1288.58769270833,
      "v": 106
    },
    {
      "midi": 48,
      "hit": false,
      "t": 111515.22450520832,
      "d": 1294.1023333333287,
      "v": 97
    },
    {
      "midi": 60,
      "hit": false,
      "t": 112926.97250520831,
      "d": 1272.0437708333193,
      "v": 109
    },
    {
      "midi": 64,
      "hit": false,
      "t": 112926.97250520831,
      "d": 1301.4551874999888,
      "v": 102
    },
    {
      "midi": 45,
      "hit": false,
      "t": 112926.97250520831,
      "d": 1323.5137499999837,
      "v": 95
    },
    {
      "midi": 57,
      "hit": false,
      "t": 112928.81071874997,
      "d": 1253.6616354166617,
      "v": 109
    },
    {
      "midi": 57,
      "hit": false,
      "t": 114338.72050520829,
      "d": 1259.1762760416605,
      "v": 103
    },
    {
      "midi": 62,
      "hit": false,
      "t": 114338.72050520829,
      "d": 1270.205557291658,
      "v": 105
    },
    {
      "midi": 65,
      "hit": false,
      "t": 114338.72050520829,
      "d": 1349.2487395833305,
      "v": 104
    },
    {
      "midi": 50,
      "hit": false,
      "t": 114338.72050520829,
      "d": 1354.7633802083292,
      "v": 89
    },
    {
      "midi": 53,
      "hit": false,
      "t": 115750.46850520828,
      "d": 577.1990520833351,
      "v": 112
    },
    {
      "midi": 58,
      "hit": false,
      "t": 115750.46850520828,
      "d": 582.7136927083338,
      "v": 110
    },
    {
      "midi": 46,
      "hit": false,
      "t": 115750.46850520828,
      "d": 604.7722552083287,
      "v": 91
    },
    {
      "midi": 62,
      "hit": false,
      "t": 115750.46850520828,
      "d": 613.9633229166648,
      "v": 107
    },
    {
      "midi": 64,
      "hit": false,
      "t": 116456.34250520827,
      "d": 599.25761458333,
      "v": 98
    },
    {
      "midi": 55,
      "hit": false,
      "t": 116456.34250520827,
      "d": 619.4779635416635,
      "v": 114
    },
    {
      "midi": 60,
      "hit": false,
      "t": 116456.34250520827,
      "d": 628.6690312499995,
      "v": 111
    },
    {
      "midi": 48,
      "hit": false,
      "t": 116456.34250520827,
      "d": 661.7568750000064,
      "v": 97
    },
    {
      "midi": 41,
      "hit": false,
      "t": 117162.21650520829,
      "d": 613.9633229166648,
      "v": 96
    },
    {
      "midi": 57,
      "hit": false,
      "t": 117162.21650520829,
      "d": 613.9633229166648,
      "v": 118
    },
    {
      "midi": 60,
      "hit": false,
      "t": 117162.21650520829,
      "d": 613.9633229166648,
      "v": 104
    },
    {
      "midi": 65,
      "hit": false,
      "t": 117162.21650520829,
      "d": 613.9633229166648,
      "v": 111
    },
    {
      "midi": 38,
      "hit": false,
      "t": 117868.09050520828,
      "d": 613.9633229166648,
      "v": 96
    },
    {
      "midi": 57,
      "hit": false,
      "t": 117868.09050520828,
      "d": 613.9633229166648,
      "v": 118
    },
    {
      "midi": 66,
      "hit": false,
      "t": 117868.09050520828,
      "d": 613.9633229166648,
      "v": 111
    },
    {
      "midi": 62,
      "hit": false,
      "t": 117869.92871874994,
      "d": 612.1251093750034,
      "v": 104
    },
    {
      "midi": 59,
      "hit": false,
      "t": 118573.96450520828,
      "d": 1189.3241614583385,
      "v": 104
    },
    {
      "midi": 62,
      "hit": false,
      "t": 118573.96450520828,
      "d": 1189.3241614583385,
      "v": 106
    },
    {
      "midi": 67,
      "hit": false,
      "t": 118573.96450520828,
      "d": 1211.3827239583334,
      "v": 94
    },
    {
      "midi": 55,
      "hit": false,
      "t": 118573.96450520828,
      "d": 1220.5737916666694,
      "v": 92
    },
    {
      "midi": 59,
      "hit": false,
      "t": 119985.71250520828,
      "d": 1251.8234218750003,
      "v": 104
    },
    {
      "midi": 62,
      "hit": false,
      "t": 119985.71250520828,
      "d": 1283.0730520833313,
      "v": 104
    },
    {
      "midi": 66,
      "hit": false,
      "t": 119985.71250520828,
      "d": 1312.4844687500008,
      "v": 100
    },
    {
      "midi": 47,
      "hit": false,
      "t": 119985.71250520828,
      "d": 1354.7633802083292,
      "v": 95
    },
    {
      "midi": 55,
      "hit": false,
      "t": 121397.46050520828,
      "d": 1275.7201979166712,
      "v": 104
    },
    {
      "midi": 60,
      "hit": false,
      "t": 121397.46050520828,
      "d": 1295.9405468750047,
      "v": 87
    },
    {
      "midi": 64,
      "hit": false,
      "t": 121397.46050520828,
      "d": 1299.616973958342,
      "v": 103
    },
    {
      "midi": 48,
      "hit": false,
      "t": 121397.46050520828,
      "d": 1351.0869531250064,
      "v": 87
    },
    {
      "midi": 59,
      "hit": false,
      "t": 122809.20850520828,
      "d": 1205.8680833333347,
      "v": 105
    },
    {
      "midi": 55,
      "hit": false,
      "t": 122809.20850520828,
      "d": 1215.0591510416707,
      "v": 101
    },
    {
      "midi": 62,
      "hit": false,
      "t": 122809.20850520828,
      "d": 1259.176276041675,
      "v": 100
    },
    {
      "midi": 43,
      "hit": false,
      "t": 122809.20850520828,
      "d": 1338.2194583333476,
      "v": 91
    },
    {
      "midi": 55,
      "hit": false,
      "t": 124220.9565052083,
      "d": 1264.6909166666737,
      "v": 101
    },
    {
      "midi": 59,
      "hit": false,
      "t": 124220.9565052083,
      "d": 1284.9112656250072,
      "v": 104
    },
    {
      "midi": 64,
      "hit": false,
      "t": 124220.9565052083,
      "d": 1334.5430312500102,
      "v": 98
    },
    {
      "midi": 52,
      "hit": false,
      "t": 124220.9565052083,
      "d": 1349.248739583345,
      "v": 101
    },
    {
      "midi": 54,
      "hit": false,
      "t": 125632.70450520831,
      "d": 1277.5584114583326,
      "v": 103
    },
    {
      "midi": 62,
      "hit": false,
      "t": 125632.70450520831,
      "d": 1295.9405468750047,
      "v": 97
    },
    {
      "midi": 59,
      "hit": false,
      "t": 125632.70450520831,
      "d": 1303.2934010416648,
      "v": 96
    },
    {
      "midi": 47,
      "hit": false,
      "t": 125632.70450520831,
      "d": 1345.5723124999931,
      "v": 95
    },
    {
      "midi": 52,
      "hit": false,
      "t": 127044.4525052083,
      "d": 1275.7201979166712,
      "v": 100
    },
    {
      "midi": 57,
      "hit": false,
      "t": 127044.4525052083,
      "d": 1294.1023333333433,
      "v": 102
    },
    {
      "midi": 45,
      "hit": false,
      "t": 127044.4525052083,
      "d": 1345.5723125000077,
      "v": 99
    },
    {
      "midi": 60,
      "hit": false,
      "t": 127044.4525052083,
      "d": 1358.439807291681,
      "v": 82
    },
    {
      "midi": 57,
      "hit": false,
      "t": 128456.20050520833,
      "d": 1314.3226822916622,
      "v": 105
    },
    {
      "midi": 54,
      "hit": false,
      "t": 128456.20050520833,
      "d": 1317.9991093749995,
      "v": 104
    },
    {
      "midi": 62,
      "hit": false,
      "t": 128456.20050520833,
      "d": 1336.3812447916716,
      "v": 102
    },
    {
      "midi": 50,
      "hit": false,
      "t": 128456.20050520833,
      "d": 1367.6308750000026,
      "v": 94
    },
    {
      "midi": 59,
      "hit": false,
      "t": 129867.94850520833,
      "d": 1227.9266458333295,
      "v": 91
    },
    {
      "midi": 64,
      "hit": false,
      "t": 129867.94850520833,
      "d": 1251.8234218749858,
      "v": 100
    },
    {
      "midi": 67,
      "hit": false,
      "t": 129867.94850520833,
      "d": 1255.4998489583086,
      "v": 98
    },
    {
      "midi": 52,
      "hit": false,
      "t": 129867.94850520833,
      "d": 1310.6462552082958,
      "v": 97
    },
    {
      "midi": 62,
      "hit": false,
      "t": 131279.6965052083,
      "d": 1268.3673437499965,
      "v": 102
    },
    {
      "midi": 59,
      "hit": false,
      "t": 131279.6965052083,
      "d": 1270.205557291658,
      "v": 95
    },
    {
      "midi": 66,
      "hit": false,
      "t": 131279.6965052083,
      "d": 1279.396624999994,
      "v": 95
    },
    {
      "midi": 47,
      "hit": false,
      "t": 131279.6965052083,
      "d": 1347.410526041669,
      "v": 89
    },
    {
      "midi": 64,
      "hit": false,
      "t": 132691.4445052083,
      "d": 1251.8234218749858,
      "v": 99
    },
    {
      "midi": 55,
      "hit": false,
      "t": 132691.4445052083,
      "d": 1259.1762760416605,
      "v": 98
    },
    {
      "midi": 60,
      "hit": false,
      "t": 132691.4445052083,
      "d": 1264.6909166666737,
      "v": 87
    },
    {
      "midi": 48,
      "hit": false,
      "t": 132693.28271874995,
      "d": 1288.587692708359,
      "v": 87
    },
    {
      "midi": 59,
      "hit": false,
      "t": 134103.1925052083,
      "d": 1248.146994791663,
      "v": 102
    },
    {
      "midi": 55,
      "hit": false,
      "t": 134103.1925052083,
      "d": 1262.8527031249832,
      "v": 102
    },
    {
      "midi": 62,
      "hit": false,
      "t": 134103.1925052083,
      "d": 1283.0730520833167,
      "v": 100
    },
    {
      "midi": 43,
      "hit": false,
      "t": 134103.1925052083,
      "d": 1321.6755364583223,
      "v": 87
    },
    {
      "midi": 55,
      "hit": false,
      "t": 135514.9405052083,
      "d": 1295.9405468750047,
      "v": 97
    },
    {
      "midi": 64,
      "hit": false,
      "t": 135514.9405052083,
      "d": 1295.9405468750047,
      "v": 89
    },
    {
      "midi": 48,
      "hit": false,
      "t": 135514.9405052083,
      "d": 1305.1316145833407,
      "v": 88
    },
    {
      "midi": 60,
      "hit": false,
      "t": 135514.9405052083,
      "d": 1321.6755364583514,
      "v": 87
    },
    {
      "midi": 62,
      "hit": false,
      "t": 136926.68850520832,
      "d": 1163.5891718750063,
      "v": 93
    },
    {
      "midi": 59,
      "hit": false,
      "t": 136926.68850520832,
      "d": 1220.573791666684,
      "v": 98
    },
    {
      "midi": 55,
      "hit": false,
      "t": 136926.68850520832,
      "d": 1227.9266458333586,
      "v": 97
    },
    {
      "midi": 43,
      "hit": false,
      "t": 136926.68850520832,
      "d": 1336.3812447917007,
      "v": 91
    },
    {
      "midi": 57,
      "hit": false,
      "t": 138338.43650520834,
      "d": 2838.201708333334,
      "v": 104
    },
    {
      "midi": 50,
      "hit": false,
      "t": 138338.43650520834,
      "d": 2845.5545625000086,
      "v": 99
    },
    {
      "midi": 54,
      "hit": false,
      "t": 138338.43650520834,
      "d": 2851.069203125022,
      "v": 104
    },
    {
      "midi": 62,
      "hit": false,
      "t": 141161.93250520836,
      "d": 33.08784375002142,
      "v": 94
    },
    {
      "midi": 55,
      "hit": false,
      "t": 141161.93250520836,
      "d": 1249.9852083333535,
      "v": 101
    },
    {
      "midi": 59,
      "hit": false,
      "t": 141161.93250520836,
      "d": 1268.3673437500256,
      "v": 103
    },
    {
      "midi": 43,
      "hit": false,
      "t": 141161.93250520836,
      "d": 1279.396625000023,
      "v": 97
    },
    {
      "midi": 60,
      "hit": false,
      "t": 142573.68050520838,
      "d": 1222.4120052083454,
      "v": 86
    },
    {
      "midi": 55,
      "hit": false,
      "t": 142573.68050520838,
      "d": 1257.338062499999,
      "v": 104
    },
    {
      "midi": 48,
      "hit": false,
      "t": 142573.68050520838,
      "d": 1281.2348385416553,
      "v": 85
    },
    {
      "midi": 64,
      "hit": false,
      "t": 142573.68050520838,
      "d": 1286.7494791666686,
      "v": 102
    },
    {
      "midi": 57,
      "hit": false,
      "t": 143985.42850520837,
      "d": 1246.3087812500016,
      "v": 97
    },
    {
      "midi": 60,
      "hit": false,
      "t": 143985.42850520837,
      "d": 1257.338062499999,
      "v": 87
    },
    {
      "midi": 64,
      "hit": false,
      "t": 143985.42850520837,
      "d": 1281.2348385416553,
      "v": 102
    },
    {
      "midi": 45,
      "hit": false,
      "t": 143985.42850520837,
      "d": 1297.778760416666,
      "v": 95
    },
    {
      "midi": 57,
      "hit": false,
      "t": 145397.17650520836,
      "d": 1220.5737916666549,
      "v": 101
    },
    {
      "midi": 62,
      "hit": false,
      "t": 145397.17650520836,
      "d": 1224.2502187499776,
      "v": 101
    },
    {
      "midi": 66,
      "hit": false,
      "t": 145397.17650520836,
      "d": 1238.9559270832979,
      "v": 99
    },
    {
      "midi": 50,
      "hit": false,
      "t": 145397.17650520836,
      "d": 1242.6323541666206,
      "v": 105
    },
    {
      "midi": 59,
      "hit": false,
      "t": 146808.92450520833,
      "d": 1249.9852083333244,
      "v": 103
    },
    {
      "midi": 62,
      "hit": false,
      "t": 146808.92450520833,
      "d": 1253.6616354166472,
      "v": 110
    },
    {
      "midi": 66,
      "hit": false,
      "t": 146808.92450520833,
      "d": 1268.3673437499674,
      "v": 104
    },
    {
      "midi": 47,
      "hit": false,
      "t": 146808.92450520833,
      "d": 1272.0437708332902,
      "v": 97
    },
    {
      "midi": 59,
      "hit": false,
      "t": 148220.6725052083,
      "d": 1284.9112656250072,
      "v": 105
    },
    {
      "midi": 64,
      "hit": false,
      "t": 148220.6725052083,
      "d": 1288.58769270833,
      "v": 102
    },
    {
      "midi": 67,
      "hit": false,
      "t": 148220.6725052083,
      "d": 1340.0576718749944,
      "v": 97
    },
    {
      "midi": 52,
      "hit": false,
      "t": 148220.6725052083,
      "d": 1343.7340989583172,
      "v": 97
    },
    {
      "midi": 60,
      "hit": false,
      "t": 149632.42050520828,
      "d": 1226.0884322916681,
      "v": 80
    },
    {
      "midi": 55,
      "hit": false,
      "t": 149632.42050520828,
      "d": 1248.146994791663,
      "v": 102
    },
    {
      "midi": 48,
      "hit": false,
      "t": 149632.42050520828,
      "d": 1277.5584114583326,
      "v": 94
    },
    {
      "midi": 64,
      "hit": false,
      "t": 149632.42050520828,
      "d": 1277.5584114583326,
      "v": 101
    },
    {
      "midi": 54,
      "hit": false,
      "t": 151044.16850520828,
      "d": 1235.2795000000042,
      "v": 103
    },
    {
      "midi": 57,
      "hit": false,
      "t": 151044.16850520828,
      "d": 1237.1177135416656,
      "v": 109
    },
    {
      "midi": 62,
      "hit": false,
      "t": 151044.16850520828,
      "d": 1264.6909166666737,
      "v": 87
    },
    {
      "midi": 50,
      "hit": false,
      "t": 151044.16850520828,
      "d": 1268.3673437499965,
      "v": 96
    },
    {
      "midi": 55,
      "hit": false,
      "t": 152455.91650520827,
      "d": 1275.7201979166712,
      "v": 99
    },
    {
      "midi": 59,
      "hit": false,
      "t": 152455.91650520827,
      "d": 1294.1023333333433,
      "v": 117
    },
    {
      "midi": 43,
      "hit": false,
      "t": 152455.91650520827,
      "d": 1310.646255208354,
      "v": 86
    },
    {
      "midi": 62,
      "hit": false,
      "t": 152455.91650520827,
      "d": 1312.4844687500154,
      "v": 106
    },
    {
      "midi": 60,
      "hit": false,
      "t": 153867.6645052083,
      "d": 1194.8388020833372,
      "v": 94
    },
    {
      "midi": 48,
      "hit": false,
      "t": 153867.6645052083,
      "d": 1209.5445104166574,
      "v": 90
    },
    {
      "midi": 55,
      "hit": false,
      "t": 153867.6645052083,
      "d": 1215.0591510416707,
      "v": 112
    },
    {
      "midi": 64,
      "hit": false,
      "t": 153867.6645052083,
      "d": 1218.7355781249935,
      "v": 94
    },
    {
      "midi": 57,
      "hit": false,
      "t": 155279.41250520828,
      "d": 1319.837322916661,
      "v": 100
    },
    {
      "midi": 60,
      "hit": false,
      "t": 155279.41250520828,
      "d": 1349.2487395833305,
      "v": 103
    },
    {
      "midi": 64,
      "hit": false,
      "t": 155279.41250520828,
      "d": 1365.7926614583412,
      "v": 105
    },
    {
      "midi": 45,
      "hit": false,
      "t": 155279.41250520828,
      "d": 1415.4244270833442,
      "v": 83
    },
    {
      "midi": 62,
      "hit": false,
      "t": 156691.1605052083,
      "d": 1277.5584114583326,
      "v": 104
    },
    {
      "midi": 57,
      "hit": false,
      "t": 156691.1605052083,
      "d": 1279.396624999994,
      "v": 103
    },
    {
      "midi": 66,
      "hit": false,
      "t": 156691.1605052083,
      "d": 1288.58769270833,
      "v": 106
    },
    {
      "midi": 50,
      "hit": false,
      "t": 156691.1605052083,
      "d": 1294.1023333333433,
      "v": 97
    },
    {
      "midi": 59,
      "hit": false,
      "t": 158102.90850520832,
      "d": 1255.4998489583377,
      "v": 109
    },
    {
      "midi": 62,
      "hit": false,
      "t": 158102.90850520832,
      "d": 1272.0437708333484,
      "v": 109
    },
    {
      "midi": 66,
      "hit": false,
      "t": 158102.90850520832,
      "d": 1301.455187500018,
      "v": 102
    },
    {
      "midi": 47,
      "hit": false,
      "t": 158102.90850520832,
      "d": 1323.5137500000128,
      "v": 95
    },
    {
      "midi": 59,
      "hit": false,
      "t": 159514.65650520835,
      "d": 1259.1762760416605,
      "v": 103
    },
    {
      "midi": 64,
      "hit": false,
      "t": 159514.65650520835,
      "d": 1270.205557291658,
      "v": 105
    },
    {
      "midi": 67,
      "hit": false,
      "t": 159514.65650520835,
      "d": 1349.2487395833305,
      "v": 104
    },
    {
      "midi": 52,
      "hit": false,
      "t": 159514.65650520835,
      "d": 1354.7633802083437,
      "v": 89
    },
    {
      "midi": 55,
      "hit": false,
      "t": 160926.40450520837,
      "d": 577.1990520833351,
      "v": 112
    },
    {
      "midi": 60,
      "hit": false,
      "t": 160926.40450520837,
      "d": 582.7136927083484,
      "v": 110
    },
    {
      "midi": 48,
      "hit": false,
      "t": 160926.40450520837,
      "d": 604.7722552083433,
      "v": 91
    },
    {
      "midi": 64,
      "hit": false,
      "t": 160926.40450520837,
      "d": 613.9633229166793,
      "v": 107
    },
    {
      "midi": 66,
      "hit": false,
      "t": 161632.27850520838,
      "d": 599.25761458333,
      "v": 98
    },
    {
      "midi": 57,
      "hit": false,
      "t": 161632.27850520838,
      "d": 619.4779635416635,
      "v": 114
    },
    {
      "midi": 62,
      "hit": false,
      "t": 161632.27850520838,
      "d": 628.6690312499995,
      "v": 111
    },
    {
      "midi": 50,
      "hit": false,
      "t": 161632.27850520838,
      "d": 661.7568749999919,
      "v": 97
    },
    {
      "midi": 62,
      "hit": false,
      "t": 162338.15250520836,
      "d": 1284.9112656250072,
      "v": 104
    },
    {
      "midi": 59,
      "hit": false,
      "t": 162338.15250520836,
      "d": 1295.9405468750047,
      "v": 118
    },
    {
      "midi": 67,
      "hit": false,
      "t": 162338.15250520836,
      "d": 1301.455187500018,
      "v": 111
    },
    {
      "midi": 43,
      "hit": false,
      "t": 162339.99071875002,
      "d": 1336.3812447917007,
      "v": 96
    },
    {
      "midi": 55,
      "hit": false,
      "t": 163749.90050520838,
      "d": 1249.9852083333244,
      "v": 101
    },
    {
      "midi": 59,
      "hit": false,
      "t": 163749.90050520838,
      "d": 1268.3673437499965,
      "v": 103
    },
    {
      "midi": 62,
      "hit": false,
      "t": 163749.90050520838,
      "d": 1277.5584114583326,
      "v": 94
    },
    {
      "midi": 43,
      "hit": false,
      "t": 163749.90050520838,
      "d": 1279.396624999994,
      "v": 97
    },
    {
      "midi": 60,
      "hit": false,
      "t": 165161.64850520837,
      "d": 1222.4120052083454,
      "v": 86
    },
    {
      "midi": 55,
      "hit": false,
      "t": 165161.64850520837,
      "d": 1257.338062499999,
      "v": 104
    },
    {
      "midi": 48,
      "hit": false,
      "t": 165161.64850520837,
      "d": 1281.2348385416553,
      "v": 85
    },
    {
      "midi": 64,
      "hit": false,
      "t": 165161.64850520837,
      "d": 1286.7494791666686,
      "v": 102
    },
    {
      "midi": 57,
      "hit": false,
      "t": 166573.39650520837,
      "d": 1246.3087812500016,
      "v": 97
    },
    {
      "midi": 60,
      "hit": false,
      "t": 166573.39650520837,
      "d": 1257.338062499999,
      "v": 87
    },
    {
      "midi": 64,
      "hit": false,
      "t": 166573.39650520837,
      "d": 1281.2348385416553,
      "v": 102
    },
    {
      "midi": 45,
      "hit": false,
      "t": 166573.39650520837,
      "d": 1297.778760416666,
      "v": 95
    },
    {
      "midi": 57,
      "hit": false,
      "t": 167985.14450520836,
      "d": 1220.5737916666549,
      "v": 101
    },
    {
      "midi": 62,
      "hit": false,
      "t": 167985.14450520836,
      "d": 1224.2502187499776,
      "v": 101
    },
    {
      "midi": 66,
      "hit": false,
      "t": 167985.14450520836,
      "d": 1238.9559270832979,
      "v": 99
    },
    {
      "midi": 50,
      "hit": false,
      "t": 167985.14450520836,
      "d": 1242.6323541666206,
      "v": 105
    },
    {
      "midi": 59,
      "hit": false,
      "t": 169396.89250520832,
      "d": 1249.9852083333244,
      "v": 103
    },
    {
      "midi": 62,
      "hit": false,
      "t": 169396.89250520832,
      "d": 1253.6616354166472,
      "v": 110
    },
    {
      "midi": 66,
      "hit": false,
      "t": 169396.89250520832,
      "d": 1268.3673437499674,
      "v": 104
    },
    {
      "midi": 47,
      "hit": false,
      "t": 169398.73071874998,
      "d": 1270.2055572916288,
      "v": 97
    },
    {
      "midi": 59,
      "hit": false,
      "t": 170808.64050520828,
      "d": 1284.9112656250072,
      "v": 105
    },
    {
      "midi": 64,
      "hit": false,
      "t": 170808.64050520828,
      "d": 1288.58769270833,
      "v": 102
    },
    {
      "midi": 67,
      "hit": false,
      "t": 170808.64050520828,
      "d": 1340.0576718749944,
      "v": 97
    },
    {
      "midi": 52,
      "hit": false,
      "t": 170808.64050520828,
      "d": 1343.7340989583172,
      "v": 97
    },
    {
      "midi": 60,
      "hit": false,
      "t": 172220.38850520828,
      "d": 1226.0884322916681,
      "v": 80
    },
    {
      "midi": 55,
      "hit": false,
      "t": 172220.38850520828,
      "d": 1248.146994791663,
      "v": 102
    },
    {
      "midi": 48,
      "hit": false,
      "t": 172220.38850520828,
      "d": 1277.5584114583326,
      "v": 94
    },
    {
      "midi": 64,
      "hit": false,
      "t": 172220.38850520828,
      "d": 1277.5584114583326,
      "v": 101
    },
    {
      "midi": 54,
      "hit": false,
      "t": 173632.13650520827,
      "d": 1235.2795000000042,
      "v": 103
    },
    {
      "midi": 57,
      "hit": false,
      "t": 173632.13650520827,
      "d": 1237.1177135416656,
      "v": 109
    },
    {
      "midi": 62,
      "hit": false,
      "t": 173632.13650520827,
      "d": 1264.6909166666737,
      "v": 87
    },
    {
      "midi": 50,
      "hit": false,
      "t": 173632.13650520827,
      "d": 1268.3673437499965,
      "v": 96
    },
    {
      "midi": 55,
      "hit": false,
      "t": 175043.88450520826,
      "d": 1275.7201979166712,
      "v": 99
    },
    {
      "midi": 59,
      "hit": false,
      "t": 175043.88450520826,
      "d": 1294.1023333333433,
      "v": 117
    },
    {
      "midi": 43,
      "hit": false,
      "t": 175043.88450520826,
      "d": 1310.646255208354,
      "v": 86
    },
    {
      "midi": 62,
      "hit": false,
      "t": 175043.88450520826,
      "d": 1312.4844687500154,
      "v": 106
    },
    {
      "midi": 60,
      "hit": false,
      "t": 176455.63250520828,
      "d": 1194.8388020833372,
      "v": 94
    },
    {
      "midi": 48,
      "hit": false,
      "t": 176455.63250520828,
      "d": 1209.5445104166574,
      "v": 90
    },
    {
      "midi": 55,
      "hit": false,
      "t": 176455.63250520828,
      "d": 1215.0591510416707,
      "v": 112
    },
    {
      "midi": 64,
      "hit": false,
      "t": 176455.63250520828,
      "d": 1218.7355781249935,
      "v": 94
    },
    {
      "midi": 57,
      "hit": false,
      "t": 177867.38050520828,
      "d": 1319.837322916661,
      "v": 100
    },
    {
      "midi": 60,
      "hit": false,
      "t": 177867.38050520828,
      "d": 1349.2487395833305,
      "v": 103
    },
    {
      "midi": 64,
      "hit": false,
      "t": 177867.38050520828,
      "d": 1365.7926614583412,
      "v": 105
    },
    {
      "midi": 45,
      "hit": false,
      "t": 177867.38050520828,
      "d": 1415.4244270833442,
      "v": 83
    },
    {
      "midi": 62,
      "hit": false,
      "t": 179279.1285052083,
      "d": 1277.5584114583326,
      "v": 104
    },
    {
      "midi": 57,
      "hit": false,
      "t": 179279.1285052083,
      "d": 1279.396624999994,
      "v": 103
    },
    {
      "midi": 66,
      "hit": false,
      "t": 179279.1285052083,
      "d": 1288.58769270833,
      "v": 106
    },
    {
      "midi": 50,
      "hit": false,
      "t": 179279.1285052083,
      "d": 1294.1023333333433,
      "v": 97
    },
    {
      "midi": 59,
      "hit": false,
      "t": 180690.87650520832,
      "d": 1255.4998489583377,
      "v": 109
    },
    {
      "midi": 62,
      "hit": false,
      "t": 180690.87650520832,
      "d": 1272.0437708333484,
      "v": 109
    },
    {
      "midi": 66,
      "hit": false,
      "t": 180690.87650520832,
      "d": 1301.455187500018,
      "v": 102
    },
    {
      "midi": 47,
      "hit": false,
      "t": 180690.87650520832,
      "d": 1323.5137500000128,
      "v": 95
    },
    {
      "midi": 59,
      "hit": false,
      "t": 182102.62450520834,
      "d": 1259.1762760416605,
      "v": 103
    },
    {
      "midi": 64,
      "hit": false,
      "t": 182102.62450520834,
      "d": 1270.205557291658,
      "v": 105
    },
    {
      "midi": 67,
      "hit": false,
      "t": 182102.62450520834,
      "d": 1349.2487395833305,
      "v": 104
    },
    {
      "midi": 52,
      "hit": false,
      "t": 182102.62450520834,
      "d": 1354.7633802083437,
      "v": 89
    },
    {
      "midi": 55,
      "hit": false,
      "t": 183514.37250520836,
      "d": 577.1990520833351,
      "v": 112
    },
    {
      "midi": 60,
      "hit": false,
      "t": 183514.37250520836,
      "d": 582.7136927083484,
      "v": 110
    },
    {
      "midi": 64,
      "hit": false,
      "t": 183514.37250520836,
      "d": 613.9633229166793,
      "v": 107
    },
    {
      "midi": 48,
      "hit": false,
      "t": 183516.21071875002,
      "d": 602.9340416666819,
      "v": 91
    },
    {
      "midi": 66,
      "hit": false,
      "t": 184220.24650520837,
      "d": 599.25761458333,
      "v": 98
    },
    {
      "midi": 57,
      "hit": false,
      "t": 184220.24650520837,
      "d": 619.4779635416635,
      "v": 114
    },
    {
      "midi": 62,
      "hit": false,
      "t": 184220.24650520837,
      "d": 628.6690312499995,
      "v": 111
    },
    {
      "midi": 50,
      "hit": false,
      "t": 184222.08471875003,
      "d": 659.9186614583305,
      "v": 97
    },
    {
      "midi": 62,
      "hit": false,
      "t": 184926.12050520835,
      "d": 1284.9112656250072,
      "v": 104
    },
    {
      "midi": 59,
      "hit": false,
      "t": 184926.12050520835,
      "d": 1295.9405468750047,
      "v": 118
    },
    {
      "midi": 67,
      "hit": false,
      "t": 184926.12050520835,
      "d": 1301.455187500018,
      "v": 111
    },
    {
      "midi": 43,
      "hit": false,
      "t": 184926.12050520835,
      "d": 1338.2194583333621,
      "v": 96
    },
    {
      "midi": 55,
      "hit": false,
      "t": 186337.86850520837,
      "d": 1249.9852083333244,
      "v": 101
    },
    {
      "midi": 59,
      "hit": false,
      "t": 186337.86850520837,
      "d": 1268.3673437499965,
      "v": 103
    },
    {
      "midi": 62,
      "hit": false,
      "t": 186337.86850520837,
      "d": 1277.5584114583326,
      "v": 94
    },
    {
      "midi": 43,
      "hit": false,
      "t": 186337.86850520837,
      "d": 1279.396624999994,
      "v": 97
    },
    {
      "midi": 60,
      "hit": false,
      "t": 187749.61650520837,
      "d": 1222.4120052083454,
      "v": 86
    },
    {
      "midi": 55,
      "hit": false,
      "t": 187749.61650520837,
      "d": 1257.338062499999,
      "v": 104
    },
    {
      "midi": 48,
      "hit": false,
      "t": 187749.61650520837,
      "d": 1281.2348385416553,
      "v": 85
    },
    {
      "midi": 64,
      "hit": false,
      "t": 187749.61650520837,
      "d": 1286.7494791666686,
      "v": 102
    },
    {
      "midi": 57,
      "hit": false,
      "t": 189161.36450520836,
      "d": 1246.3087812500016,
      "v": 97
    },
    {
      "midi": 60,
      "hit": false,
      "t": 189161.36450520836,
      "d": 1257.338062499999,
      "v": 87
    },
    {
      "midi": 64,
      "hit": false,
      "t": 189161.36450520836,
      "d": 1281.2348385416553,
      "v": 102
    },
    {
      "midi": 45,
      "hit": false,
      "t": 189161.36450520836,
      "d": 1297.778760416666,
      "v": 95
    },
    {
      "midi": 57,
      "hit": false,
      "t": 190573.11250520835,
      "d": 1220.5737916666549,
      "v": 101
    },
    {
      "midi": 62,
      "hit": false,
      "t": 190573.11250520835,
      "d": 1224.2502187499776,
      "v": 101
    },
    {
      "midi": 66,
      "hit": false,
      "t": 190573.11250520835,
      "d": 1238.9559270832979,
      "v": 99
    },
    {
      "midi": 50,
      "hit": false,
      "t": 190573.11250520835,
      "d": 1242.6323541666206,
      "v": 105
    },
    {
      "midi": 59,
      "hit": false,
      "t": 191984.86050520831,
      "d": 1249.9852083333244,
      "v": 103
    },
    {
      "midi": 62,
      "hit": false,
      "t": 191984.86050520831,
      "d": 1253.6616354166472,
      "v": 110
    },
    {
      "midi": 66,
      "hit": false,
      "t": 191984.86050520831,
      "d": 1268.3673437499674,
      "v": 104
    },
    {
      "midi": 47,
      "hit": false,
      "t": 191984.86050520831,
      "d": 1272.0437708332902,
      "v": 97
    },
    {
      "midi": 59,
      "hit": false,
      "t": 193396.60850520828,
      "d": 1284.9112656250072,
      "v": 105
    },
    {
      "midi": 64,
      "hit": false,
      "t": 193396.60850520828,
      "d": 1288.58769270833,
      "v": 102
    },
    {
      "midi": 67,
      "hit": false,
      "t": 193396.60850520828,
      "d": 1340.0576718749944,
      "v": 97
    },
    {
      "midi": 52,
      "hit": false,
      "t": 193396.60850520828,
      "d": 1343.7340989583172,
      "v": 97
    },
    {
      "midi": 60,
      "hit": false,
      "t": 194808.35650520827,
      "d": 1226.0884322916681,
      "v": 80
    },
    {
      "midi": 55,
      "hit": false,
      "t": 194808.35650520827,
      "d": 1248.146994791663,
      "v": 102
    },
    {
      "midi": 48,
      "hit": false,
      "t": 194808.35650520827,
      "d": 1277.5584114583326,
      "v": 94
    },
    {
      "midi": 64,
      "hit": false,
      "t": 194808.35650520827,
      "d": 1277.5584114583326,
      "v": 101
    },
    {
      "midi": 54,
      "hit": false,
      "t": 196220.10450520826,
      "d": 1235.2795000000042,
      "v": 103
    },
    {
      "midi": 57,
      "hit": false,
      "t": 196220.10450520826,
      "d": 1237.1177135416656,
      "v": 109
    },
    {
      "midi": 62,
      "hit": false,
      "t": 196220.10450520826,
      "d": 1264.6909166666737,
      "v": 87
    },
    {
      "midi": 50,
      "hit": false,
      "t": 196221.94271874992,
      "d": 1266.5291302083351,
      "v": 96
    },
    {
      "midi": 55,
      "hit": false,
      "t": 197631.85250520826,
      "d": 1275.7201979166712,
      "v": 99
    },
    {
      "midi": 59,
      "hit": false,
      "t": 197631.85250520826,
      "d": 1294.1023333333433,
      "v": 117
    },
    {
      "midi": 62,
      "hit": false,
      "t": 197631.85250520826,
      "d": 1312.4844687500154,
      "v": 106
    },
    {
      "midi": 43,
      "hit": false,
      "t": 197633.69071874992,
      "d": 1308.8080416666926,
      "v": 86
    },
    {
      "midi": 60,
      "hit": false,
      "t": 199043.60050520828,
      "d": 1194.8388020833372,
      "v": 94
    },
    {
      "midi": 48,
      "hit": false,
      "t": 199043.60050520828,
      "d": 1209.5445104166574,
      "v": 90
    },
    {
      "midi": 55,
      "hit": false,
      "t": 199043.60050520828,
      "d": 1215.0591510416707,
      "v": 112
    },
    {
      "midi": 64,
      "hit": false,
      "t": 199043.60050520828,
      "d": 1218.7355781249935,
      "v": 94
    },
    {
      "midi": 57,
      "hit": false,
      "t": 200455.34850520827,
      "d": 1319.837322916661,
      "v": 100
    },
    {
      "midi": 60,
      "hit": false,
      "t": 200455.34850520827,
      "d": 1349.2487395833305,
      "v": 103
    },
    {
      "midi": 64,
      "hit": false,
      "t": 200455.34850520827,
      "d": 1365.7926614583412,
      "v": 105
    },
    {
      "midi": 45,
      "hit": false,
      "t": 200455.34850520827,
      "d": 1415.4244270833442,
      "v": 83
    },
    {
      "midi": 62,
      "hit": false,
      "t": 201867.0965052083,
      "d": 1277.5584114583326,
      "v": 104
    },
    {
      "midi": 57,
      "hit": false,
      "t": 201867.0965052083,
      "d": 1279.396624999994,
      "v": 103
    },
    {
      "midi": 66,
      "hit": false,
      "t": 201867.0965052083,
      "d": 1288.58769270833,
      "v": 106
    },
    {
      "midi": 50,
      "hit": false,
      "t": 201867.0965052083,
      "d": 1294.1023333333433,
      "v": 97
    },
    {
      "midi": 59,
      "hit": false,
      "t": 203278.8445052083,
      "d": 1255.4998489583377,
      "v": 109
    },
    {
      "midi": 62,
      "hit": false,
      "t": 203278.8445052083,
      "d": 1272.0437708333484,
      "v": 109
    },
    {
      "midi": 66,
      "hit": false,
      "t": 203278.8445052083,
      "d": 1301.455187500018,
      "v": 102
    },
    {
      "midi": 47,
      "hit": false,
      "t": 203278.8445052083,
      "d": 1323.5137500000128,
      "v": 95
    },
    {
      "midi": 59,
      "hit": false,
      "t": 204690.59250520833,
      "d": 1259.1762760416605,
      "v": 103
    },
    {
      "midi": 64,
      "hit": false,
      "t": 204690.59250520833,
      "d": 1270.205557291658,
      "v": 105
    },
    {
      "midi": 67,
      "hit": false,
      "t": 204690.59250520833,
      "d": 1349.2487395833305,
      "v": 104
    },
    {
      "midi": 52,
      "hit": false,
      "t": 204690.59250520833,
      "d": 1354.7633802083437,
      "v": 89
    },
    {
      "midi": 55,
      "hit": false,
      "t": 206102.34050520835,
      "d": 577.1990520833351,
      "v": 112
    },
    {
      "midi": 60,
      "hit": false,
      "t": 206102.34050520835,
      "d": 582.7136927083484,
      "v": 110
    },
    {
      "midi": 48,
      "hit": false,
      "t": 206102.34050520835,
      "d": 604.7722552083433,
      "v": 91
    },
    {
      "midi": 64,
      "hit": false,
      "t": 206102.34050520835,
      "d": 613.9633229166793,
      "v": 107
    },
    {
      "midi": 66,
      "hit": false,
      "t": 206808.21450520837,
      "d": 599.25761458333,
      "v": 98
    },
    {
      "midi": 57,
      "hit": false,
      "t": 206808.21450520837,
      "d": 619.4779635416635,
      "v": 114
    },
    {
      "midi": 62,
      "hit": false,
      "t": 206808.21450520837,
      "d": 628.6690312499995,
      "v": 111
    },
    {
      "midi": 50,
      "hit": false,
      "t": 206808.21450520837,
      "d": 661.7568749999919,
      "v": 97
    },
    {
      "midi": 62,
      "hit": false,
      "t": 207514.08850520835,
      "d": 1284.9112656250072,
      "v": 104
    },
    {
      "midi": 59,
      "hit": false,
      "t": 207514.08850520835,
      "d": 1295.9405468750047,
      "v": 118
    },
    {
      "midi": 67,
      "hit": false,
      "t": 207514.08850520835,
      "d": 1301.455187500018,
      "v": 111
    },
    {
      "midi": 43,
      "hit": false,
      "t": 207515.92671875,
      "d": 1336.3812447917007,
      "v": 96
    },
    {
      "midi": 62,
      "hit": false,
      "t": 208925.83650520837,
      "d": 215.0709843749937,
      "v": 127
    },
    {
      "midi": 59,
      "hit": false,
      "t": 208925.83650520837,
      "d": 226.10026562499115,
      "v": 119
    },
    {
      "midi": 67,
      "hit": false,
      "t": 208925.83650520837,
      "d": 226.10026562499115,
      "v": 106
    }
  ]
}