{
  "jsonPath": "Country/Classic Country Pop/Dolly Parton/satin-sheets.json",
  "path": "Country\\Classic Country Pop\\Dolly Parton\\Satin Sheets.mid",
  "name": "Satin Sheets",
  "difficulty": "Advanced",
  "bpm": 89.9999550000225,
  "notes": [
    {
      "midi": 66,
      "hit": false,
      "t": 5333.332,
      "d": 2569.443802083333,
      "v": 123
    },
    {
      "midi": 38,
      "hit": false,
      "t": 5333.332,
      "d": 2583.3326875000002,
      "v": 114
    },
    {
      "midi": 62,
      "hit": false,
      "t": 5333.332,
      "d": 2590.277130208334,
      "v": 116
    },
    {
      "midi": 69,
      "hit": false,
      "t": 5333.332,
      "d": 2604.166015625001,
      "v": 118
    },
    {
      "midi": 61,
      "hit": false,
      "t": 10666.664,
      "d": 1861.1106458333343,
      "v": 121
    },
    {
      "midi": 57,
      "hit": false,
      "t": 10666.664,
      "d": 1874.9995312500014,
      "v": 116
    },
    {
      "midi": 64,
      "hit": false,
      "t": 10666.664,
      "d": 1888.8884166666685,
      "v": 119
    },
    {
      "midi": 45,
      "hit": false,
      "t": 10666.664,
      "d": 1930.555072916668,
      "v": 115
    },
    {
      "midi": 38,
      "hit": false,
      "t": 10666.664,
      "d": 2583.3326875000002,
      "v": 114
    },
    {
      "midi": 45,
      "hit": false,
      "t": 15999.996,
      "d": 1930.555072916668,
      "v": 115
    },
    {
      "midi": 66,
      "hit": false,
      "t": 15999.996000000001,
      "d": 3673.6101927083346,
      "v": 124
    },
    {
      "midi": 69,
      "hit": false,
      "t": 15999.996000000001,
      "d": 3687.499078125,
      "v": 119
    },
    {
      "midi": 62,
      "hit": false,
      "t": 15999.996000000001,
      "d": 3701.387963541665,
      "v": 117
    },
    {
      "midi": 38,
      "hit": false,
      "t": 15999.996000000001,
      "d": 4076.3878697916643,
      "v": 116
    },
    {
      "midi": 45,
      "hit": false,
      "t": 21333.327999999998,
      "d": 1937.4995156250006,
      "v": 123
    },
    {
      "midi": 61,
      "hit": false,
      "t": 21333.327999999998,
      "d": 2041.6661562500012,
      "v": 120
    },
    {
      "midi": 57,
      "hit": false,
      "t": 21333.327999999998,
      "d": 2048.610598958334,
      "v": 114
    },
    {
      "midi": 64,
      "hit": false,
      "t": 21333.327999999998,
      "d": 2062.499484374999,
      "v": 118
    },
    {
      "midi": 45,
      "hit": false,
      "t": 21333.327999999998,
      "d": 4076.387869791666,
      "v": 116
    },
    {
      "midi": 38,
      "hit": false,
      "t": 26666.659999999996,
      "d": 6340.276192708334,
      "v": 114
    },
    {
      "midi": 50,
      "hit": false,
      "t": 26666.659999999996,
      "d": 6465.276161458336,
      "v": 114
    },
    {
      "midi": 54,
      "hit": false,
      "t": 26666.659999999996,
      "d": 6493.053932291667,
      "v": 112
    },
    {
      "midi": 57,
      "hit": false,
      "t": 26666.659999999996,
      "d": 6645.831671874999,
      "v": 115
    },
    {
      "midi": 45,
      "hit": false,
      "t": 26666.659999999996,
      "d": 1937.4995156250006,
      "v": 123
    },
    {
      "midi": 38,
      "hit": false,
      "t": 31999.992,
      "d": 6340.276192708334,
      "v": 114
    },
    {
      "midi": 57,
      "hit": false,
      "t": 35999.991,
      "d": 243.05549479166802,
      "v": 117
    },
    {
      "midi": 54,
      "hit": false,
      "t": 35999.991,
      "d": 249.9999375000043,
      "v": 119
    },
    {
      "midi": 38,
      "hit": false,
      "t": 35999.991,
      "d": 256.9443802083406,
      "v": 112
    },
    {
      "midi": 52,
      "hit": false,
      "t": 35999.991,
      "d": 312.499921875009,
      "v": 116
    },
    {
      "midi": 59,
      "hit": false,
      "t": 37333.32400000001,
      "d": 8847.22001041667,
      "v": 121
    },
    {
      "midi": 62,
      "hit": false,
      "t": 37333.32400000001,
      "d": 8881.942223958336,
      "v": 119
    },
    {
      "midi": 43,
      "hit": false,
      "t": 37333.32400000001,
      "d": 8909.719994791667,
      "v": 114
    },
    {
      "midi": 55,
      "hit": false,
      "t": 37333.32400000001,
      "d": 8909.719994791667,
      "v": 117
    },
    {
      "midi": 38,
      "hit": false,
      "t": 41333.323000000004,
      "d": 256.9443802083333,
      "v": 112
    },
    {
      "midi": 43,
      "hit": false,
      "t": 42666.656,
      "d": 8909.719994791667,
      "v": 114
    },
    {
      "midi": 55,
      "hit": false,
      "t": 46666.655000000006,
      "d": 159.72218229166901,
      "v": 111
    },
    {
      "midi": 59,
      "hit": false,
      "t": 46666.655000000006,
      "d": 173.6110677083343,
      "v": 112
    },
    {
      "midi": 62,
      "hit": false,
      "t": 46666.655000000006,
      "d": 180.5555104166706,
      "v": 112
    },
    {
      "midi": 43,
      "hit": false,
      "t": 46666.655000000006,
      "d": 319.44436458333803,
      "v": 111
    },
    {
      "midi": 45,
      "hit": false,
      "t": 47999.98800000001,
      "d": 4111.11008333334,
      "v": 112
    },
    {
      "midi": 64,
      "hit": false,
      "t": 47999.98800000001,
      "d": 4555.554416666673,
      "v": 114
    },
    {
      "midi": 61,
      "hit": false,
      "t": 47999.98800000001,
      "d": 4673.609942708339,
      "v": 114
    },
    {
      "midi": 57,
      "hit": false,
      "t": 47999.98800000001,
      "d": 5166.665375000004,
      "v": 112
    },
    {
      "midi": 43,
      "hit": false,
      "t": 51999.987,
      "d": 319.44436458333075,
      "v": 111
    },
    {
      "midi": 45,
      "hit": false,
      "t": 53333.32,
      "d": 4111.11008333334,
      "v": 112
    },
    {
      "midi": 61,
      "hit": false,
      "t": 55333.31950000001,
      "d": 124.99996875000215,
      "v": 107
    },
    {
      "midi": 57,
      "hit": false,
      "t": 55333.31950000001,
      "d": 694.4442708333372,
      "v": 108
    },
    {
      "midi": 45,
      "hit": false,
      "t": 55333.31950000001,
      "d": 1354.1663281250076,
      "v": 114
    },
    {
      "midi": 69,
      "hit": false,
      "t": 55333.31950000001,
      "d": 2013.8883854166706,
      "v": 114
    },
    {
      "midi": 64,
      "hit": false,
      "t": 56666.65250000002,
      "d": 569.4443020833351,
      "v": 114
    },
    {
      "midi": 57,
      "hit": false,
      "t": 57333.31900000002,
      "d": 124.99996875000215,
      "v": 116
    },
    {
      "midi": 50,
      "hit": false,
      "t": 58666.65200000002,
      "d": 2944.4437083333323,
      "v": 116
    },
    {
      "midi": 54,
      "hit": false,
      "t": 58666.65200000002,
      "d": 3006.9436927083298,
      "v": 117
    },
    {
      "midi": 57,
      "hit": false,
      "t": 58666.65200000002,
      "d": 3034.7214635416603,
      "v": 117
    },
    {
      "midi": 38,
      "hit": false,
      "t": 58666.65200000002,
      "d": 3590.27688020833,
      "v": 114
    },
    {
      "midi": 45,
      "hit": false,
      "t": 60666.65150000001,
      "d": 1354.1663281250003,
      "v": 114
    },
    {
      "midi": 45,
      "hit": false,
      "t": 63999.984000000004,
      "d": 3590.2768802083374,
      "v": 114
    },
    {
      "midi": 45,
      "hit": false,
      "t": 63999.98400000001,
      "d": 1437.4996406249993,
      "v": 121
    },
    {
      "midi": 62,
      "hit": false,
      "t": 67333.31650000002,
      "d": 243.05549479166802,
      "v": 119
    },
    {
      "midi": 64,
      "hit": false,
      "t": 67333.31650000002,
      "d": 249.9999375000043,
      "v": 114
    },
    {
      "midi": 45,
      "hit": false,
      "t": 67333.31650000002,
      "d": 659.7220572916704,
      "v": 109
    },
    {
      "midi": 61,
      "hit": false,
      "t": 67999.98300000002,
      "d": 402.77767708332976,
      "v": 115
    },
    {
      "midi": 59,
      "hit": false,
      "t": 68666.64950000001,
      "d": 62.49998437499744,
      "v": 112
    },
    {
      "midi": 57,
      "hit": false,
      "t": 68666.64950000001,
      "d": 111.11108333333686,
      "v": 113
    },
    {
      "midi": 50,
      "hit": false,
      "t": 69333.31600000002,
      "d": 1430.5551979166776,
      "v": 118
    },
    {
      "midi": 57,
      "hit": false,
      "t": 69333.31600000002,
      "d": 1444.4440833333501,
      "v": 117
    },
    {
      "midi": 54,
      "hit": false,
      "t": 69333.31600000002,
      "d": 1472.2218541666807,
      "v": 120
    },
    {
      "midi": 45,
      "hit": false,
      "t": 69333.31600000002,
      "d": 1437.4996406249993,
      "v": 121
    },
    {
      "midi": 38,
      "hit": false,
      "t": 70666.64900000003,
      "d": 854.1664531250135,
      "v": 111
    },
    {
      "midi": 45,
      "hit": false,
      "t": 71333.31550000004,
      "d": 631.9442864583398,
      "v": 105
    },
    {
      "midi": 69,
      "hit": false,
      "t": 71999.98200000005,
      "d": 166.66662499999802,
      "v": 111
    },
    {
      "midi": 62,
      "hit": false,
      "t": 71999.98200000005,
      "d": 277.7777083333349,
      "v": 117
    },
    {
      "midi": 45,
      "hit": false,
      "t": 72666.64850000002,
      "d": 659.7220572916704,
      "v": 109
    },
    {
      "midi": 64,
      "hit": false,
      "t": 74666.64800000004,
      "d": 472.22210416667804,
      "v": 113
    },
    {
      "midi": 69,
      "hit": false,
      "t": 74666.64800000004,
      "d": 1277.7774583333376,
      "v": 117
    },
    {
      "midi": 38,
      "hit": false,
      "t": 74666.64800000004,
      "d": 1513.8885104166693,
      "v": 115
    },
    {
      "midi": 64,
      "hit": false,
      "t": 75333.31450000005,
      "d": 437.4998906249966,
      "v": 100
    },
    {
      "midi": 38,
      "hit": false,
      "t": 75999.98100000003,
      "d": 854.1664531250135,
      "v": 111
    },
    {
      "midi": 45,
      "hit": false,
      "t": 75999.98100000004,
      "d": 374.9999062499992,
      "v": 113
    },
    {
      "midi": 64,
      "hit": false,
      "t": 76666.64750000004,
      "d": 243.05549479166802,
      "v": 110
    },
    {
      "midi": 45,
      "hit": false,
      "t": 76666.64750000004,
      "d": 631.9442864583398,
      "v": 105
    },
    {
      "midi": 64,
      "hit": false,
      "t": 77333.31400000004,
      "d": 791.6664687500015,
      "v": 111
    },
    {
      "midi": 69,
      "hit": false,
      "t": 77333.31400000004,
      "d": 958.3330937499995,
      "v": 113
    },
    {
      "midi": 66,
      "hit": false,
      "t": 77999.98050000005,
      "d": 402.77767708332976,
      "v": 119
    },
    {
      "midi": 62,
      "hit": false,
      "t": 78666.64700000004,
      "d": 145.83329687500373,
      "v": 119
    },
    {
      "midi": 59,
      "hit": false,
      "t": 79999.98000000004,
      "d": 541.6665312499972,
      "v": 117
    },
    {
      "midi": 55,
      "hit": false,
      "t": 79999.98000000004,
      "d": 555.5554166666698,
      "v": 114
    },
    {
      "midi": 62,
      "hit": false,
      "t": 79999.98000000004,
      "d": 555.5554166666698,
      "v": 115
    },
    {
      "midi": 43,
      "hit": false,
      "t": 79999.98000000004,
      "d": 1499.9996249999967,
      "v": 112
    },
    {
      "midi": 43,
      "hit": false,
      "t": 81333.31300000005,
      "d": 180.5555104166706,
      "v": 113
    },
    {
      "midi": 74,
      "hit": false,
      "t": 83999.97900000004,
      "d": 138.88885416666744,
      "v": 115
    },
    {
      "midi": 67,
      "hit": false,
      "t": 83999.97900000004,
      "d": 270.8332656249986,
      "v": 117
    },
    {
      "midi": 64,
      "hit": false,
      "t": 85333.31200000003,
      "d": 555.5554166666698,
      "v": 112
    },
    {
      "midi": 71,
      "hit": false,
      "t": 85333.31200000003,
      "d": 909.7219947916747,
      "v": 114
    },
    {
      "midi": 40,
      "hit": false,
      "t": 85333.31200000003,
      "d": 1916.6661875000136,
      "v": 116
    },
    {
      "midi": 40,
      "hit": false,
      "t": 85333.31200000006,
      "d": 1499.9996249999967,
      "v": 112
    },
    {
      "midi": 68,
      "hit": false,
      "t": 85999.97850000004,
      "d": 513.8887604166666,
      "v": 117
    },
    {
      "midi": 47,
      "hit": false,
      "t": 86666.64500000005,
      "d": 458.33321875000547,
      "v": 109
    },
    {
      "midi": 71,
      "hit": false,
      "t": 87333.31150000005,
      "d": 69.44442708333372,
      "v": 110
    },
    {
      "midi": 76,
      "hit": false,
      "t": 87333.31150000005,
      "d": 319.44436458333803,
      "v": 115
    },
    {
      "midi": 55,
      "hit": false,
      "t": 90666.64400000006,
      "d": 979.1664218750084,
      "v": 114
    },
    {
      "midi": 43,
      "hit": false,
      "t": 90666.64400000006,
      "d": 1916.666187499999,
      "v": 116
    },
    {
      "midi": 62,
      "hit": false,
      "t": 91333.31050000007,
      "d": 499.9998750000086,
      "v": 111
    },
    {
      "midi": 47,
      "hit": false,
      "t": 91999.97700000006,
      "d": 458.33321875000547,
      "v": 109
    },
    {
      "midi": 74,
      "hit": false,
      "t": 91999.97700000007,
      "d": 131.94441145833116,
      "v": 113
    },
    {
      "midi": 69,
      "hit": false,
      "t": 91999.97700000007,
      "d": 374.9999062499992,
      "v": 113
    },
    {
      "midi": 55,
      "hit": false,
      "t": 91999.97700000007,
      "d": 2187.4994531249977,
      "v": 100
    },
    {
      "midi": 74,
      "hit": false,
      "t": 92666.64350000006,
      "d": 465.2776614583272,
      "v": 111
    },
    {
      "midi": 67,
      "hit": false,
      "t": 92666.64350000006,
      "d": 1055.5552916666638,
      "v": 115
    },
    {
      "midi": 62,
      "hit": false,
      "t": 93999.97650000006,
      "d": 486.11098958333605,
      "v": 111
    },
    {
      "midi": 57,
      "hit": false,
      "t": 95999.97600000007,
      "d": 3083.3325624999707,
      "v": 113
    },
    {
      "midi": 64,
      "hit": false,
      "t": 96666.64250000006,
      "d": 611.1109583333309,
      "v": 114
    },
    {
      "midi": 71,
      "hit": false,
      "t": 97333.30900000005,
      "d": 229.16660937499546,
      "v": 114
    },
    {
      "midi": 76,
      "hit": false,
      "t": 97333.30900000005,
      "d": 388.8887916666572,
      "v": 116
    },
    {
      "midi": 76,
      "hit": false,
      "t": 97999.97550000004,
      "d": 1243.0552447916562,
      "v": 114
    },
    {
      "midi": 69,
      "hit": false,
      "t": 97999.97550000004,
      "d": 1249.9996874999924,
      "v": 118
    },
    {
      "midi": 50,
      "hit": false,
      "t": 101333.30800000005,
      "d": 2104.166140625006,
      "v": 117
    },
    {
      "midi": 57,
      "hit": false,
      "t": 101999.97450000005,
      "d": 1305.5552291666681,
      "v": 113
    },
    {
      "midi": 64,
      "hit": false,
      "t": 102666.64100000006,
      "d": 826.3886822916538,
      "v": 117
    },
    {
      "midi": 69,
      "hit": false,
      "t": 103333.30750000005,
      "d": 458.3332187499909,
      "v": 113
    },
    {
      "midi": 69,
      "hit": false,
      "t": 103999.97400000005,
      "d": 111.11108333333686,
      "v": 103
    },
    {
      "midi": 66,
      "hit": false,
      "t": 103999.97400000005,
      "d": 798.6109114583378,
      "v": 121
    },
    {
      "midi": 64,
      "hit": false,
      "t": 105333.30700000004,
      "d": 305.55547916666546,
      "v": 117
    },
    {
      "midi": 69,
      "hit": false,
      "t": 105999.97350000004,
      "d": 1055.5552916666784,
      "v": 114
    },
    {
      "midi": 62,
      "hit": false,
      "t": 105999.97350000004,
      "d": 1652.7773645833513,
      "v": 119
    },
    {
      "midi": 62,
      "hit": false,
      "t": 109333.30600000004,
      "d": 451.3887760416692,
      "v": 125
    },
    {
      "midi": 64,
      "hit": false,
      "t": 109999.97250000005,
      "d": 194.4443958333286,
      "v": 119
    },
    {
      "midi": 66,
      "hit": false,
      "t": 110666.63900000004,
      "d": 145.83329687500373,
      "v": 121
    },
    {
      "midi": 67,
      "hit": false,
      "t": 111333.30550000005,
      "d": 152.77773958334,
      "v": 123
    },
    {
      "midi": 57,
      "hit": false,
      "t": 111999.97200000005,
      "d": 2166.6661250000325,
      "v": 115
    },
    {
      "midi": 64,
      "hit": false,
      "t": 112666.63850000006,
      "d": 597.2220729166729,
      "v": 114
    },
    {
      "midi": 74,
      "hit": false,
      "t": 113333.30500000007,
      "d": 208.33328125000116,
      "v": 117
    },
    {
      "midi": 76,
      "hit": false,
      "t": 113333.30500000007,
      "d": 312.49992187500175,
      "v": 113
    },
    {
      "midi": 71,
      "hit": false,
      "t": 113333.30500000007,
      "d": 347.2221354166686,
      "v": 117
    },
    {
      "midi": 73,
      "hit": false,
      "t": 113999.97150000007,
      "d": 2166.6661250000034,
      "v": 121
    },
    {
      "midi": 69,
      "hit": false,
      "t": 113999.97150000007,
      "d": 2194.443895833334,
      "v": 118
    },
    {
      "midi": 76,
      "hit": false,
      "t": 113999.97150000007,
      "d": 2472.221604166669,
      "v": 112
    },
    {
      "midi": 57,
      "hit": false,
      "t": 115999.97100000008,
      "d": 645.8331718749978,
      "v": 116
    },
    {
      "midi": 64,
      "hit": false,
      "t": 116999.97075000008,
      "d": 361.1110208333266,
      "v": 118
    },
    {
      "midi": 57,
      "hit": false,
      "t": 117333.30400000008,
      "d": 194.4443958333286,
      "v": 109
    },
    {
      "midi": 71,
      "hit": false,
      "t": 117333.30400000008,
      "d": 791.666468749987,
      "v": 118
    },
    {
      "midi": 76,
      "hit": false,
      "t": 117333.30400000008,
      "d": 791.666468749987,
      "v": 113
    },
    {
      "midi": 57,
      "hit": false,
      "t": 117999.97050000007,
      "d": 145.83329687498917,
      "v": 110
    },
    {
      "midi": 64,
      "hit": false,
      "t": 117999.97050000007,
      "d": 708.3331562499952,
      "v": 118
    },
    {
      "midi": 71,
      "hit": false,
      "t": 118666.63700000006,
      "d": 138.88885416666744,
      "v": 114
    },
    {
      "midi": 73,
      "hit": false,
      "t": 118666.63700000006,
      "d": 263.8888229166623,
      "v": 124
    },
    {
      "midi": 76,
      "hit": false,
      "t": 118666.63700000006,
      "d": 451.3887760416692,
      "v": 113
    },
    {
      "midi": 76,
      "hit": false,
      "t": 119333.30350000007,
      "d": 791.6664687500015,
      "v": 114
    },
    {
      "midi": 69,
      "hit": false,
      "t": 119333.30350000007,
      "d": 888.8886666666658,
      "v": 123
    },
    {
      "midi": 66,
      "hit": false,
      "t": 122666.63600000007,
      "d": 437.4998906249966,
      "v": 119
    },
    {
      "midi": 62,
      "hit": false,
      "t": 122666.63600000007,
      "d": 465.2776614583272,
      "v": 119
    },
    {
      "midi": 69,
      "hit": false,
      "t": 122666.63600000007,
      "d": 486.1109895833215,
      "v": 119
    },
    {
      "midi": 50,
      "hit": false,
      "t": 122666.63600000007,
      "d": 874.9997812499932,
      "v": 117
    },
    {
      "midi": 57,
      "hit": false,
      "t": 123333.30250000006,
      "d": 437.4998906249966,
      "v": 112
    },
    {
      "midi": 81,
      "hit": false,
      "t": 124666.63550000006,
      "d": 777.777583333329,
      "v": 112
    },
    {
      "midi": 76,
      "hit": false,
      "t": 124666.63550000006,
      "d": 986.1108645833301,
      "v": 117
    },
    {
      "midi": 74,
      "hit": false,
      "t": 125999.96850000006,
      "d": 131.94441145833116,
      "v": 119
    },
    {
      "midi": 50,
      "hit": false,
      "t": 126666.63500000005,
      "d": 1173.610817708337,
      "v": 113
    },
    {
      "midi": 67,
      "hit": false,
      "t": 127333.30150000006,
      "d": 249.9999375000043,
      "v": 117
    },
    {
      "midi": 69,
      "hit": false,
      "t": 127333.30150000006,
      "d": 354.1665781250049,
      "v": 114
    },
    {
      "midi": 62,
      "hit": false,
      "t": 127333.30150000006,
      "d": 381.94434895833547,
      "v": 114
    },
    {
      "midi": 50,
      "hit": false,
      "t": 127999.96800000005,
      "d": 2361.110520833332,
      "v": 112
    },
    {
      "midi": 62,
      "hit": false,
      "t": 127999.96800000005,
      "d": 2374.9994062500045,
      "v": 118
    },
    {
      "midi": 66,
      "hit": false,
      "t": 127999.96800000005,
      "d": 2395.832734374999,
      "v": 124
    },
    {
      "midi": 69,
      "hit": false,
      "t": 127999.96800000005,
      "d": 2423.6105052083294,
      "v": 117
    },
    {
      "midi": 57,
      "hit": false,
      "t": 130333.30075000005,
      "d": 368.0554635416629,
      "v": 113
    },
    {
      "midi": 62,
      "hit": false,
      "t": 130666.63400000005,
      "d": 819.4442395833321,
      "v": 120
    },
    {
      "midi": 69,
      "hit": false,
      "t": 130666.63400000005,
      "d": 868.055338541657,
      "v": 118
    },
    {
      "midi": 50,
      "hit": false,
      "t": 131333.30050000004,
      "d": 763.8886979166709,
      "v": 114
    },
    {
      "midi": 69,
      "hit": false,
      "t": 131999.96700000003,
      "d": 402.77767708335887,
      "v": 114
    },
    {
      "midi": 62,
      "hit": false,
      "t": 131999.96700000003,
      "d": 736.1109270833549,
      "v": 119
    },
    {
      "midi": 69,
      "hit": false,
      "t": 132666.63350000005,
      "d": 76.38886979167,
      "v": 106
    },
    {
      "midi": 66,
      "hit": false,
      "t": 132666.63350000005,
      "d": 145.83329687500373,
      "v": 119
    },
    {
      "midi": 54,
      "hit": false,
      "t": 133333.30000000005,
      "d": 729.1664843749895,
      "v": 115
    },
    {
      "midi": 61,
      "hit": false,
      "t": 133999.96650000004,
      "d": 1465.2774114583735,
      "v": 114
    },
    {
      "midi": 66,
      "hit": false,
      "t": 134666.63300000006,
      "d": 1972.2217291666893,
      "v": 117
    },
    {
      "midi": 70,
      "hit": false,
      "t": 135333.29950000008,
      "d": 1569.4440520833596,
      "v": 117
    },
    {
      "midi": 54,
      "hit": false,
      "t": 136666.6325000001,
      "d": 763.8886979167,
      "v": 109
    },
    {
      "midi": 61,
      "hit": false,
      "t": 137333.29900000012,
      "d": 749.9998125000275,
      "v": 113
    },
    {
      "midi": 66,
      "hit": false,
      "t": 137999.96550000014,
      "d": 1131.9441614583484,
      "v": 116
    },
    {
      "midi": 70,
      "hit": false,
      "t": 139333.29850000015,
      "d": 499.9998750000086,
      "v": 115
    },
    {
      "midi": 78,
      "hit": false,
      "t": 139999.96500000017,
      "d": 256.94438020832604,
      "v": 112
    },
    {
      "midi": 78,
      "hit": false,
      "t": 140666.63150000016,
      "d": 2104.1661406249914,
      "v": 111
    },
    {
      "midi": 73,
      "hit": false,
      "t": 141999.96450000018,
      "d": 819.444239583303,
      "v": 107
    },
    {
      "midi": 70,
      "hit": false,
      "t": 142666.63100000017,
      "d": 229.1666093749809,
      "v": 119
    },
    {
      "midi": 67,
      "hit": false,
      "t": 143999.96400000015,
      "d": 791.666468749987,
      "v": 111
    },
    {
      "midi": 74,
      "hit": false,
      "t": 143999.96400000015,
      "d": 1118.0552760416467,
      "v": 115
    },
    {
      "midi": 55,
      "hit": false,
      "t": 143999.96400000015,
      "d": 2451.38827604166,
      "v": 115
    },
    {
      "midi": 69,
      "hit": false,
      "t": 145333.29700000014,
      "d": 333.33324999999604,
      "v": 119
    },
    {
      "midi": 71,
      "hit": false,
      "t": 145333.29700000014,
      "d": 347.2221354166686,
      "v": 120
    },
    {
      "midi": 74,
      "hit": false,
      "t": 145333.29700000014,
      "d": 791.6664687500161,
      "v": 116
    },
    {
      "midi": 55,
      "hit": false,
      "t": 146666.63000000015,
      "d": 1291.6663437499956,
      "v": 111
    },
    {
      "midi": 67,
      "hit": false,
      "t": 146666.63000000015,
      "d": 1305.5552291666681,
      "v": 120
    },
    {
      "midi": 74,
      "hit": false,
      "t": 146666.63000000015,
      "d": 1340.2774427083496,
      "v": 115
    },
    {
      "midi": 62,
      "hit": false,
      "t": 147999.96300000016,
      "d": 291.66659375000745,
      "v": 118
    },
    {
      "midi": 74,
      "hit": false,
      "t": 149333.29600000018,
      "d": 881.9442239583295,
      "v": 123
    },
    {
      "midi": 69,
      "hit": false,
      "t": 149333.29600000018,
      "d": 972.2219791666721,
      "v": 117
    },
    {
      "midi": 76,
      "hit": false,
      "t": 149333.29600000018,
      "d": 1006.9441927083244,
      "v": 119
    },
    {
      "midi": 57,
      "hit": false,
      "t": 149333.29600000018,
      "d": 3506.9435677083093,
      "v": 114
    },
    {
      "midi": 76,
      "hit": false,
      "t": 150666.62900000016,
      "d": 173.61106770831975,
      "v": 114
    },
    {
      "midi": 73,
      "hit": false,
      "t": 150666.62900000016,
      "d": 458.3332187499909,
      "v": 124
    },
    {
      "midi": 76,
      "hit": false,
      "t": 150999.96225000016,
      "d": 152.77773958334,
      "v": 104
    },
    {
      "midi": 71,
      "hit": false,
      "t": 151333.29550000015,
      "d": 631.9442864583398,
      "v": 118
    },
    {
      "midi": 76,
      "hit": false,
      "t": 151333.29550000015,
      "d": 930.5553229166835,
      "v": 113
    },
    {
      "midi": 64,
      "hit": false,
      "t": 152666.62850000017,
      "d": 243.05549479165347,
      "v": 114
    },
    {
      "midi": 76,
      "hit": false,
      "t": 152999.96175000016,
      "d": 48.611098958324874,
      "v": 109
    },
    {
      "midi": 69,
      "hit": false,
      "t": 152999.96175000016,
      "d": 465.2776614583272,
      "v": 118
    },
    {
      "midi": 73,
      "hit": false,
      "t": 153333.29500000016,
      "d": 402.77767708332976,
      "v": 121
    },
    {
      "midi": 76,
      "hit": false,
      "t": 153999.96150000015,
      "d": 138.88885416666744,
      "v": 118
    },
    {
      "midi": 50,
      "hit": false,
      "t": 154666.62800000017,
      "d": 874.9997812499932,
      "v": 115
    },
    {
      "midi": 57,
      "hit": false,
      "t": 155333.29450000016,
      "d": 611.1109583333309,
      "v": 112
    },
    {
      "midi": 50,
      "hit": false,
      "t": 155999.96100000016,
      "d": 354.1665781250049,
      "v": 102
    },
    {
      "midi": 62,
      "hit": false,
      "t": 155999.96100000016,
      "d": 736.1109270833258,
      "v": 118
    },
    {
      "midi": 69,
      "hit": false,
      "t": 155999.96100000016,
      "d": 791.666468749987,
      "v": 114
    },
    {
      "midi": 50,
      "hit": false,
      "t": 156666.62750000015,
      "d": 1749.9995625000156,
      "v": 112
    },
    {
      "midi": 57,
      "hit": false,
      "t": 157333.29400000014,
      "d": 777.7775833333435,
      "v": 111
    },
    {
      "midi": 50,
      "hit": false,
      "t": 158666.62700000015,
      "d": 2840.277067708317,
      "v": 110
    },
    {
      "midi": 88,
      "hit": false,
      "t": 159333.29350000015,
      "d": 402.77767708332976,
      "v": 114
    },
    {
      "midi": 93,
      "hit": false,
      "t": 159333.29350000015,
      "d": 597.2220729166584,
      "v": 115
    },
    {
      "midi": 90,
      "hit": false,
      "t": 159666.62675000014,
      "d": 291.66659375000745,
      "v": 124
    },
    {
      "midi": 86,
      "hit": false,
      "t": 159999.96000000014,
      "d": 222.22216666667373,
      "v": 123
    },
    {
      "midi": 57,
      "hit": false,
      "t": 161333.29300000015,
      "d": 270.8332656249986,
      "v": 118
    },
    {
      "midi": 76,
      "hit": false,
      "t": 161333.29300000015,
      "d": 493.05543229167233,
      "v": 114
    },
    {
      "midi": 78,
      "hit": false,
      "t": 161666.62625000015,
      "d": 131.94441145833116,
      "v": 116
    },
    {
      "midi": 81,
      "hit": false,
      "t": 161666.62625000015,
      "d": 458.3332187499909,
      "v": 109
    },
    {
      "midi": 50,
      "hit": false,
      "t": 161666.62625000015,
      "d": 2270.832765625004,
      "v": 102
    },
    {
      "midi": 78,
      "hit": false,
      "t": 161999.95950000014,
      "d": 277.7777083333349,
      "v": 110
    },
    {
      "midi": 74,
      "hit": false,
      "t": 162666.62600000013,
      "d": 277.7777083333349,
      "v": 121
    },
    {
      "midi": 57,
      "hit": false,
      "t": 163999.95900000015,
      "d": 180.55551041665603,
      "v": 118
    },
    {
      "midi": 55,
      "hit": false,
      "t": 165333.29200000013,
      "d": 583.3331874999858,
      "v": 116
    },
    {
      "midi": 62,
      "hit": false,
      "t": 165666.62525000013,
      "d": 486.11098958333605,
      "v": 112
    },
    {
      "midi": 67,
      "hit": false,
      "t": 165999.95850000012,
      "d": 597.2220729166875,
      "v": 112
    },
    {
      "midi": 71,
      "hit": false,
      "t": 166666.62500000015,
      "d": 256.94438020832604,
      "v": 119
    },
    {
      "midi": 67,
      "hit": false,
      "t": 166666.62500000015,
      "d": 298.61103645831463,
      "v": 112
    },
    {
      "midi": 55,
      "hit": false,
      "t": 168666.62450000012,
      "d": 486.11098958333605,
      "v": 113
    },
    {
      "midi": 62,
      "hit": false,
      "t": 168999.95775000012,
      "d": 347.2221354166686,
      "v": 116
    },
    {
      "midi": 74,
      "hit": false,
      "t": 169333.2910000001,
      "d": 48.611098958324874,
      "v": 109
    },
    {
      "midi": 71,
      "hit": false,
      "t": 169333.2910000001,
      "d": 97.22219791664975,
      "v": 110
    },
    {
      "midi": 67,
      "hit": false,
      "t": 169333.2910000001,
      "d": 430.5554479166458,
      "v": 105
    },
    {
      "midi": 79,
      "hit": false,
      "t": 169333.2910000001,
      "d": 791.666468749987,
      "v": 115
    },
    {
      "midi": 74,
      "hit": false,
      "t": 169999.9575000001,
      "d": 409.72211979166605,
      "v": 115
    },
    {
      "midi": 62,
      "hit": false,
      "t": 170333.2907500001,
      "d": 291.66659375000745,
      "v": 112
    },
    {
      "midi": 74,
      "hit": false,
      "t": 170666.6240000001,
      "d": 687.4998281250009,
      "v": 112
    },
    {
      "midi": 69,
      "hit": false,
      "t": 170666.6240000001,
      "d": 791.666468749987,
      "v": 120
    },
    {
      "midi": 62,
      "hit": false,
      "t": 171333.2905000001,
      "d": 270.8332656249986,
      "v": 116
    },
    {
      "midi": 62,
      "hit": false,
      "t": 171666.6237500001,
      "d": 277.7777083333349,
      "v": 113
    },
    {
      "midi": 74,
      "hit": false,
      "t": 171999.95700000008,
      "d": 138.88885416666744,
      "v": 113
    },
    {
      "midi": 71,
      "hit": false,
      "t": 171999.95700000008,
      "d": 673.6109427083284,
      "v": 121
    },
    {
      "midi": 62,
      "hit": false,
      "t": 172666.62350000007,
      "d": 291.66659375000745,
      "v": 116
    },
    {
      "midi": 55,
      "hit": false,
      "t": 172999.95675000007,
      "d": 333.33325000002515,
      "v": 113
    },
    {
      "midi": 74,
      "hit": false,
      "t": 172999.95675000007,
      "d": 1131.9441614583484,
      "v": 114
    },
    {
      "midi": 67,
      "hit": false,
      "t": 172999.95675000007,
      "d": 1256.9441302083433,
      "v": 123
    },
    {
      "midi": 55,
      "hit": false,
      "t": 173999.9565000001,
      "d": 722.2220416666532,
      "v": 117
    },
    {
      "midi": 62,
      "hit": false,
      "t": 174666.62300000008,
      "d": 229.1666093749809,
      "v": 116
    },
    {
      "midi": 67,
      "hit": false,
      "t": 175333.28950000007,
      "d": 180.55551041665603,
      "v": 118
    },
    {
      "midi": 62,
      "hit": false,
      "t": 175999.95600000006,
      "d": 965.2775364583358,
      "v": 117
    },
    {
      "midi": 50,
      "hit": false,
      "t": 175999.95600000006,
      "d": 993.055307291681,
      "v": 115
    },
    {
      "midi": 69,
      "hit": false,
      "t": 175999.95600000006,
      "d": 993.055307291681,
      "v": 116
    },
    {
      "midi": 57,
      "hit": false,
      "t": 176666.62250000006,
      "d": 812.4997968750249,
      "v": 111
    },
    {
      "midi": 62,
      "hit": false,
      "t": 177333.28900000008,
      "d": 2027.7772708333505,
      "v": 113
    },
    {
      "midi": 50,
      "hit": false,
      "t": 179333.28850000008,
      "d": 666.6665000000212,
      "v": 111
    },
    {
      "midi": 57,
      "hit": false,
      "t": 179999.9550000001,
      "d": 208.33328125000116,
      "v": 112
    },
    {
      "midi": 57,
      "hit": false,
      "t": 181333.2880000001,
      "d": 2340.2771927083377,
      "v": 109
    },
    {
      "midi": 76,
      "hit": false,
      "t": 181333.2880000001,
      "d": 2381.9438489583263,
      "v": 113
    },
    {
      "midi": 73,
      "hit": false,
      "t": 181333.2880000001,
      "d": 2416.6660624999786,
      "v": 112
    },
    {
      "midi": 69,
      "hit": false,
      "t": 181333.2880000001,
      "d": 2451.388276041631,
      "v": 112
    },
    {
      "midi": 66,
      "hit": false,
      "t": 186666.62000000005,
      "d": 2569.4438020833477,
      "v": 123
    },
    {
      "midi": 38,
      "hit": false,
      "t": 186666.62000000005,
      "d": 2583.3326875000203,
      "v": 114
    },
    {
      "midi": 62,
      "hit": false,
      "t": 186666.62000000005,
      "d": 2590.2771302083565,
      "v": 116
    },
    {
      "midi": 69,
      "hit": false,
      "t": 186666.62000000005,
      "d": 2604.166015625029,
      "v": 118
    },
    {
      "midi": 61,
      "hit": false,
      "t": 191999.9520000001,
      "d": 1861.110645833338,
      "v": 121
    },
    {
      "midi": 57,
      "hit": false,
      "t": 191999.9520000001,
      "d": 1874.9995312500105,
      "v": 116
    },
    {
      "midi": 64,
      "hit": false,
      "t": 191999.9520000001,
      "d": 1888.888416666683,
      "v": 119
    },
    {
      "midi": 45,
      "hit": false,
      "t": 191999.9520000001,
      "d": 1930.5550729166716,
      "v": 115
    },
    {
      "midi": 38,
      "hit": false,
      "t": 191999.95200000014,
      "d": 2583.3326875000203,
      "v": 114
    },
    {
      "midi": 66,
      "hit": false,
      "t": 197333.2840000001,
      "d": 3673.610192708322,
      "v": 124
    },
    {
      "midi": 69,
      "hit": false,
      "t": 197333.2840000001,
      "d": 3687.4990781249944,
      "v": 119
    },
    {
      "midi": 62,
      "hit": false,
      "t": 197333.2840000001,
      "d": 3701.387963541667,
      "v": 117
    },
    {
      "midi": 38,
      "hit": false,
      "t": 197333.2840000001,
      "d": 4076.3878697916807,
      "v": 116
    },
    {
      "midi": 45,
      "hit": false,
      "t": 197333.28400000016,
      "d": 1930.5550729166716,
      "v": 115
    },
    {
      "midi": 45,
      "hit": false,
      "t": 202666.61600000013,
      "d": 1937.499515625008,
      "v": 123
    },
    {
      "midi": 61,
      "hit": false,
      "t": 202666.61600000013,
      "d": 2041.666156249994,
      "v": 120
    },
    {
      "midi": 57,
      "hit": false,
      "t": 202666.61600000013,
      "d": 2048.6105989583302,
      "v": 114
    },
    {
      "midi": 64,
      "hit": false,
      "t": 202666.61600000013,
      "d": 2062.499484375003,
      "v": 118
    },
    {
      "midi": 38,
      "hit": false,
      "t": 202666.61600000015,
      "d": 4076.3878697916516,
      "v": 116
    },
    {
      "midi": 38,
      "hit": false,
      "t": 207999.94800000012,
      "d": 6340.276192708319,
      "v": 114
    },
    {
      "midi": 50,
      "hit": false,
      "t": 207999.94800000012,
      "d": 6465.276161458314,
      "v": 114
    },
    {
      "midi": 54,
      "hit": false,
      "t": 207999.94800000012,
      "d": 6493.053932291659,
      "v": 112
    },
    {
      "midi": 57,
      "hit": false,
      "t": 207999.94800000012,
      "d": 6645.831671874999,
      "v": 115
    },
    {
      "midi": 45,
      "hit": false,
      "t": 207999.94800000015,
      "d": 1937.499515625008,
      "v": 123
    },
    {
      "midi": 38,
      "hit": false,
      "t": 213333.28000000014,
      "d": 6340.276192708319,
      "v": 114
    },
    {
      "midi": 57,
      "hit": false,
      "t": 217333.27900000013,
      "d": 243.05549479165347,
      "v": 117
    },
    {
      "midi": 54,
      "hit": false,
      "t": 217333.27900000013,
      "d": 249.99993749998976,
      "v": 119
    },
    {
      "midi": 38,
      "hit": false,
      "t": 217333.27900000013,
      "d": 256.94438020832604,
      "v": 112
    },
    {
      "midi": 52,
      "hit": false,
      "t": 217333.27900000013,
      "d": 312.4999218749872,
      "v": 116
    },
    {
      "midi": 59,
      "hit": false,
      "t": 218666.6120000001,
      "d": 8847.22001041667,
      "v": 121
    },
    {
      "midi": 62,
      "hit": false,
      "t": 218666.6120000001,
      "d": 8881.942223958322,
      "v": 119
    },
    {
      "midi": 43,
      "hit": false,
      "t": 218666.6120000001,
      "d": 8909.719994791667,
      "v": 114
    },
    {
      "midi": 55,
      "hit": false,
      "t": 218666.6120000001,
      "d": 8909.719994791667,
      "v": 117
    },
    {
      "midi": 38,
      "hit": false,
      "t": 222666.61100000015,
      "d": 256.94438020832604,
      "v": 112
    },
    {
      "midi": 43,
      "hit": false,
      "t": 223999.94400000013,
      "d": 8909.719994791667,
      "v": 114
    },
    {
      "midi": 55,
      "hit": false,
      "t": 227999.94300000012,
      "d": 159.7221822916763,
      "v": 111
    },
    {
      "midi": 59,
      "hit": false,
      "t": 227999.94300000012,
      "d": 173.61106770834886,
      "v": 112
    },
    {
      "midi": 62,
      "hit": false,
      "t": 227999.94300000012,
      "d": 180.55551041668514,
      "v": 112
    },
    {
      "midi": 43,
      "hit": false,
      "t": 227999.94300000012,
      "d": 319.4443645833526,
      "v": 111
    },
    {
      "midi": 45,
      "hit": false,
      "t": 229333.27600000013,
      "d": 4111.110083333304,
      "v": 112
    },
    {
      "midi": 64,
      "hit": false,
      "t": 229333.27600000013,
      "d": 4555.554416666651,
      "v": 114
    },
    {
      "midi": 61,
      "hit": false,
      "t": 229333.27600000013,
      "d": 4673.60994270831,
      "v": 114
    },
    {
      "midi": 57,
      "hit": false,
      "t": 229333.27600000013,
      "d": 5166.665374999982,
      "v": 112
    },
    {
      "midi": 43,
      "hit": false,
      "t": 233333.27500000014,
      "d": 319.4443645833235,
      "v": 111
    },
    {
      "midi": 45,
      "hit": false,
      "t": 234666.60800000012,
      "d": 4111.110083333304,
      "v": 112
    },
    {
      "midi": 61,
      "hit": false,
      "t": 236666.6075000001,
      "d": 124.99996874999488,
      "v": 107
    },
    {
      "midi": 57,
      "hit": false,
      "t": 236666.6075000001,
      "d": 694.4442708333372,
      "v": 108
    },
    {
      "midi": 45,
      "hit": false,
      "t": 236666.6075000001,
      "d": 1354.1663281250221,
      "v": 114
    },
    {
      "midi": 69,
      "hit": false,
      "t": 236666.6075000001,
      "d": 2013.888385416707,
      "v": 114
    },
    {
      "midi": 64,
      "hit": false,
      "t": 237999.9405000001,
      "d": 569.4443020833423,
      "v": 114
    },
    {
      "midi": 57,
      "hit": false,
      "t": 238666.60700000013,
      "d": 124.99996874999488,
      "v": 116
    },
    {
      "midi": 50,
      "hit": false,
      "t": 239999.94000000012,
      "d": 2944.4437083333323,
      "v": 116
    },
    {
      "midi": 54,
      "hit": false,
      "t": 239999.94000000012,
      "d": 3006.9436927083298,
      "v": 117
    },
    {
      "midi": 57,
      "hit": false,
      "t": 239999.94000000012,
      "d": 3034.721463541675,
      "v": 117
    },
    {
      "midi": 38,
      "hit": false,
      "t": 239999.94000000012,
      "d": 3590.2768802083447,
      "v": 114
    },
    {
      "midi": 45,
      "hit": false,
      "t": 241999.9395000001,
      "d": 1354.166328124993,
      "v": 114
    },
    {
      "midi": 38,
      "hit": false,
      "t": 245333.27200000008,
      "d": 3590.2768802083156,
      "v": 114
    },
    {
      "midi": 45,
      "hit": false,
      "t": 245333.2720000001,
      "d": 1437.4996406249993,
      "v": 121
    },
    {
      "midi": 62,
      "hit": false,
      "t": 248666.6045000001,
      "d": 243.05549479165347,
      "v": 119
    },
    {
      "midi": 64,
      "hit": false,
      "t": 248666.6045000001,
      "d": 249.99993749998976,
      "v": 114
    },
    {
      "midi": 45,
      "hit": false,
      "t": 248666.6045000001,
      "d": 659.7220572916558,
      "v": 109
    },
    {
      "midi": 61,
      "hit": false,
      "t": 249333.2710000001,
      "d": 402.77767708332976,
      "v": 115
    },
    {
      "midi": 59,
      "hit": false,
      "t": 249999.9375000001,
      "d": 62.49998437499744,
      "v": 112
    },
    {
      "midi": 57,
      "hit": false,
      "t": 249999.9375000001,
      "d": 111.11108333332231,
      "v": 113
    },
    {
      "midi": 45,
      "hit": false,
      "t": 250666.60400000005,
      "d": 1437.4996406249993,
      "v": 121
    },
    {
      "midi": 50,
      "hit": false,
      "t": 250666.60400000008,
      "d": 1430.5551979166921,
      "v": 118
    },
    {
      "midi": 57,
      "hit": false,
      "t": 250666.60400000008,
      "d": 1444.4440833333647,
      "v": 117
    },
    {
      "midi": 54,
      "hit": false,
      "t": 250666.60400000008,
      "d": 1472.2218541667098,
      "v": 120
    },
    {
      "midi": 38,
      "hit": false,
      "t": 251999.9370000001,
      "d": 854.1664531250135,
      "v": 111
    },
    {
      "midi": 45,
      "hit": false,
      "t": 252666.6035000001,
      "d": 631.9442864583398,
      "v": 105
    },
    {
      "midi": 69,
      "hit": false,
      "t": 253333.2700000001,
      "d": 166.66662500001257,
      "v": 111
    },
    {
      "midi": 62,
      "hit": false,
      "t": 253333.2700000001,
      "d": 277.7777083333349,
      "v": 117
    },
    {
      "midi": 45,
      "hit": false,
      "t": 253999.93650000004,
      "d": 659.7220572916558,
      "v": 109
    },
    {
      "midi": 64,
      "hit": false,
      "t": 255999.9360000001,
      "d": 472.2221041666344,
      "v": 113
    },
    {
      "midi": 69,
      "hit": false,
      "t": 255999.9360000001,
      "d": 1277.777458333294,
      "v": 117
    },
    {
      "midi": 38,
      "hit": false,
      "t": 255999.9360000001,
      "d": 1513.888510416611,
      "v": 115
    },
    {
      "midi": 64,
      "hit": false,
      "t": 256666.60250000007,
      "d": 437.4998906250112,
      "v": 100
    },
    {
      "midi": 38,
      "hit": false,
      "t": 257333.26900000003,
      "d": 854.1664531249844,
      "v": 111
    },
    {
      "midi": 45,
      "hit": false,
      "t": 257333.26900000006,
      "d": 374.99990624998463,
      "v": 113
    },
    {
      "midi": 45,
      "hit": false,
      "t": 257999.93550000002,
      "d": 631.9442864583398,
      "v": 105
    },
    {
      "midi": 64,
      "hit": false,
      "t": 257999.93550000005,
      "d": 243.05549479165347,
      "v": 110
    },
    {
      "midi": 64,
      "hit": false,
      "t": 258666.60200000004,
      "d": 791.666468749987,
      "v": 111
    },
    {
      "midi": 69,
      "hit": false,
      "t": 258666.60200000004,
      "d": 958.3330937499995,
      "v": 113
    },
    {
      "midi": 66,
      "hit": false,
      "t": 259333.26850000003,
      "d": 402.77767708332976,
      "v": 119
    },
    {
      "midi": 62,
      "hit": false,
      "t": 259999.93500000003,
      "d": 145.83329687500373,
      "v": 119
    },
    {
      "midi": 59,
      "hit": false,
      "t": 261333.26800000004,
      "d": 541.6665312500263,
      "v": 117
    },
    {
      "midi": 55,
      "hit": false,
      "t": 261333.26800000004,
      "d": 555.5554166666989,
      "v": 114
    },
    {
      "midi": 62,
      "hit": false,
      "t": 261333.26800000004,
      "d": 555.5554166666989,
      "v": 115
    },
    {
      "midi": 43,
      "hit": false,
      "t": 261333.26800000004,
      "d": 1499.999625000055,
      "v": 112
    },
    {
      "midi": 38,
      "hit": false,
      "t": 261333.26800000004,
      "d": 1513.8885104166693,
      "v": 115
    },
    {
      "midi": 45,
      "hit": false,
      "t": 262666.601,
      "d": 374.99990625004284,
      "v": 113
    },
    {
      "midi": 74,
      "hit": false,
      "t": 265333.2670000001,
      "d": 138.88885416666744,
      "v": 115
    },
    {
      "midi": 67,
      "hit": false,
      "t": 265333.2670000001,
      "d": 270.8332656249986,
      "v": 117
    },
    {
      "midi": 64,
      "hit": false,
      "t": 266666.6000000001,
      "d": 555.5554166666698,
      "v": 112
    },
    {
      "midi": 71,
      "hit": false,
      "t": 266666.6000000001,
      "d": 909.7219947916456,
      "v": 114
    },
    {
      "midi": 40,
      "hit": false,
      "t": 266666.6000000001,
      "d": 1916.666187499999,
      "v": 116
    },
    {
      "midi": 43,
      "hit": false,
      "t": 266666.6000000001,
      "d": 1499.9996249999967,
      "v": 112
    },
    {
      "midi": 68,
      "hit": false,
      "t": 267333.2665000001,
      "d": 513.8887604166521,
      "v": 117
    },
    {
      "midi": 47,
      "hit": false,
      "t": 267999.9330000001,
      "d": 458.33321875002,
      "v": 109
    },
    {
      "midi": 71,
      "hit": false,
      "t": 268666.59950000007,
      "d": 69.44442708330462,
      "v": 110
    },
    {
      "midi": 76,
      "hit": false,
      "t": 268666.59950000007,
      "d": 319.4443645832944,
      "v": 115
    },
    {
      "midi": 55,
      "hit": false,
      "t": 271999.932,
      "d": 979.1664218750084,
      "v": 114
    },
    {
      "midi": 40,
      "hit": false,
      "t": 271999.9320000001,
      "d": 1916.666187499999,
      "v": 116
    },
    {
      "midi": 62,
      "hit": false,
      "t": 272666.59849999996,
      "d": 499.9998750000377,
      "v": 111
    },
    {
      "midi": 74,
      "hit": false,
      "t": 273333.265,
      "d": 131.94441145833116,
      "v": 113
    },
    {
      "midi": 69,
      "hit": false,
      "t": 273333.265,
      "d": 374.99990624998463,
      "v": 113
    },
    {
      "midi": 55,
      "hit": false,
      "t": 273333.265,
      "d": 2187.499453125056,
      "v": 100
    },
    {
      "midi": 47,
      "hit": false,
      "t": 273333.2650000001,
      "d": 458.33321875002,
      "v": 109
    },
    {
      "midi": 74,
      "hit": false,
      "t": 273999.9315,
      "d": 465.2776614583563,
      "v": 111
    },
    {
      "midi": 67,
      "hit": false,
      "t": 273999.9315,
      "d": 1055.5552916667075,
      "v": 115
    },
    {
      "midi": 62,
      "hit": false,
      "t": 275333.26450000005,
      "d": 486.11098958336515,
      "v": 111
    },
    {
      "midi": 57,
      "hit": false,
      "t": 277333.2640000001,
      "d": 3083.332562500029,
      "v": 113
    },
    {
      "midi": 64,
      "hit": false,
      "t": 277999.9305000001,
      "d": 611.11095833336,
      "v": 114
    },
    {
      "midi": 71,
      "hit": false,
      "t": 278666.5970000001,
      "d": 229.1666093749809,
      "v": 114
    },
    {
      "midi": 76,
      "hit": false,
      "t": 278666.5970000001,
      "d": 388.8887916666572,
      "v": 116
    },
    {
      "midi": 76,
      "hit": false,
      "t": 279333.2635000001,
      "d": 1243.0552447916707,
      "v": 114
    },
    {
      "midi": 69,
      "hit": false,
      "t": 279333.2635000001,
      "d": 1249.999687500007,
      "v": 118
    },
    {
      "midi": 50,
      "hit": false,
      "t": 282666.59600000014,
      "d": 2104.1661406249623,
      "v": 117
    },
    {
      "midi": 57,
      "hit": false,
      "t": 283333.2625000001,
      "d": 1305.555229166639,
      "v": 113
    },
    {
      "midi": 64,
      "hit": false,
      "t": 283999.9290000001,
      "d": 826.3886822916684,
      "v": 117
    },
    {
      "midi": 69,
      "hit": false,
      "t": 284666.5955000001,
      "d": 458.33321875002,
      "v": 113
    },
    {
      "midi": 69,
      "hit": false,
      "t": 285333.2620000001,
      "d": 111.11108333332231,
      "v": 103
    },
    {
      "midi": 66,
      "hit": false,
      "t": 285333.2620000001,
      "d": 798.6109114583232,
      "v": 121
    },
    {
      "midi": 64,
      "hit": false,
      "t": 286666.5950000001,
      "d": 305.55547916668,
      "v": 117
    },
    {
      "midi": 69,
      "hit": false,
      "t": 287333.2615000001,
      "d": 1055.5552916666493,
      "v": 114
    },
    {
      "midi": 62,
      "hit": false,
      "t": 287333.2615000001,
      "d": 1652.7773645833367,
      "v": 119
    },
    {
      "midi": 62,
      "hit": false,
      "t": 290666.5940000001,
      "d": 451.38877604168374,
      "v": 125
    },
    {
      "midi": 64,
      "hit": false,
      "t": 291333.2605000001,
      "d": 194.4443958333577,
      "v": 119
    },
    {
      "midi": 66,
      "hit": false,
      "t": 291999.92700000014,
      "d": 145.83329687500373,
      "v": 121
    },
    {
      "midi": 67,
      "hit": false,
      "t": 292666.59350000013,
      "d": 152.77773958334,
      "v": 123
    },
    {
      "midi": 57,
      "hit": false,
      "t": 293333.2600000002,
      "d": 2166.666124999989,
      "v": 115
    },
    {
      "midi": 64,
      "hit": false,
      "t": 293999.9265000002,
      "d": 597.2220729166875,
      "v": 114
    },
    {
      "midi": 74,
      "hit": false,
      "t": 294666.59300000017,
      "d": 208.33328124997206,
      "v": 117
    },
    {
      "midi": 76,
      "hit": false,
      "t": 294666.59300000017,
      "d": 312.4999218749581,
      "v": 113
    },
    {
      "midi": 71,
      "hit": false,
      "t": 294666.59300000017,
      "d": 347.2221354166395,
      "v": 117
    },
    {
      "midi": 73,
      "hit": false,
      "t": 295333.25950000016,
      "d": 2166.666125000047,
      "v": 121
    },
    {
      "midi": 69,
      "hit": false,
      "t": 295333.25950000016,
      "d": 2194.443895833392,
      "v": 118
    },
    {
      "midi": 76,
      "hit": false,
      "t": 295333.25950000016,
      "d": 2472.221604166727,
      "v": 112
    },
    {
      "midi": 57,
      "hit": false,
      "t": 297333.2590000002,
      "d": 645.8331718750414,
      "v": 116
    },
    {
      "midi": 64,
      "hit": false,
      "t": 298333.2587500002,
      "d": 361.1110208333703,
      "v": 118
    },
    {
      "midi": 57,
      "hit": false,
      "t": 298666.59200000024,
      "d": 194.4443958333577,
      "v": 109
    },
    {
      "midi": 71,
      "hit": false,
      "t": 298666.59200000024,
      "d": 791.6664687500452,
      "v": 118
    },
    {
      "midi": 76,
      "hit": false,
      "t": 298666.59200000024,
      "d": 791.6664687500452,
      "v": 113
    },
    {
      "midi": 57,
      "hit": false,
      "t": 299333.2585000003,
      "d": 145.83329687500373,
      "v": 110
    },
    {
      "midi": 64,
      "hit": false,
      "t": 299333.2585000003,
      "d": 708.3331562500098,
      "v": 118
    },
    {
      "midi": 71,
      "hit": false,
      "t": 299999.9250000003,
      "d": 138.88885416666744,
      "v": 114
    },
    {
      "midi": 73,
      "hit": false,
      "t": 299999.9250000003,
      "d": 263.8888229166623,
      "v": 124
    },
    {
      "midi": 76,
      "hit": false,
      "t": 299999.9250000003,
      "d": 451.38877604168374,
      "v": 113
    },
    {
      "midi": 76,
      "hit": false,
      "t": 300666.5915000003,
      "d": 791.666468749987,
      "v": 114
    },
    {
      "midi": 69,
      "hit": false,
      "t": 300666.5915000003,
      "d": 888.8886666666367,
      "v": 123
    },
    {
      "midi": 66,
      "hit": false,
      "t": 303999.92400000023,
      "d": 437.4998906250112,
      "v": 119
    },
    {
      "midi": 62,
      "hit": false,
      "t": 303999.92400000023,
      "d": 465.2776614583563,
      "v": 119
    },
    {
      "midi": 69,
      "hit": false,
      "t": 303999.92400000023,
      "d": 486.11098958336515,
      "v": 119
    },
    {
      "midi": 50,
      "hit": false,
      "t": 303999.92400000023,
      "d": 874.9997812500224,
      "v": 117
    },
    {
      "midi": 57,
      "hit": false,
      "t": 304666.5905000003,
      "d": 437.49989062495297,
      "v": 112
    },
    {
      "midi": 81,
      "hit": false,
      "t": 305999.9235000002,
      "d": 777.7775833333144,
      "v": 112
    },
    {
      "midi": 76,
      "hit": false,
      "t": 305999.9235000002,
      "d": 986.1108645832865,
      "v": 117
    },
    {
      "midi": 74,
      "hit": false,
      "t": 307333.25650000013,
      "d": 131.94441145833116,
      "v": 119
    },
    {
      "midi": 50,
      "hit": false,
      "t": 307999.9230000001,
      "d": 1173.6108177083079,
      "v": 113
    },
    {
      "midi": 67,
      "hit": false,
      "t": 308666.5895000001,
      "d": 249.99993749998976,
      "v": 117
    },
    {
      "midi": 69,
      "hit": false,
      "t": 308666.5895000001,
      "d": 354.1665781249758,
      "v": 114
    },
    {
      "midi": 62,
      "hit": false,
      "t": 308666.5895000001,
      "d": 381.9443489583209,
      "v": 114
    },
    {
      "midi": 50,
      "hit": false,
      "t": 309333.2560000001,
      "d": 2361.1105208333465,
      "v": 112
    },
    {
      "midi": 62,
      "hit": false,
      "t": 309333.2560000001,
      "d": 2374.999406250019,
      "v": 118
    },
    {
      "midi": 66,
      "hit": false,
      "t": 309333.2560000001,
      "d": 2395.832734375028,
      "v": 124
    },
    {
      "midi": 69,
      "hit": false,
      "t": 309333.2560000001,
      "d": 2423.610505208373,
      "v": 117
    },
    {
      "midi": 57,
      "hit": false,
      "t": 311666.5887500001,
      "d": 368.05546354170656,
      "v": 113
    },
    {
      "midi": 62,
      "hit": false,
      "t": 311999.92200000014,
      "d": 819.4442395833321,
      "v": 120
    },
    {
      "midi": 69,
      "hit": false,
      "t": 311999.92200000014,
      "d": 868.0553385416861,
      "v": 118
    },
    {
      "midi": 50,
      "hit": false,
      "t": 312666.5885000001,
      "d": 763.8886979167,
      "v": 114
    },
    {
      "midi": 69,
      "hit": false,
      "t": 313333.2550000002,
      "d": 402.77767708332976,
      "v": 114
    },
    {
      "midi": 62,
      "hit": false,
      "t": 313333.2550000002,
      "d": 736.1109270832967,
      "v": 119
    },
    {
      "midi": 69,
      "hit": false,
      "t": 313999.9215000002,
      "d": 76.3888697916409,
      "v": 106
    },
    {
      "midi": 66,
      "hit": false,
      "t": 313999.9215000002,
      "d": 145.83329687494552,
      "v": 119
    },
    {
      "midi": 54,
      "hit": false,
      "t": 314666.5880000001,
      "d": 729.1664843750186,
      "v": 115
    },
    {
      "midi": 61,
      "hit": false,
      "t": 315333.2545000001,
      "d": 1465.2774114583153,
      "v": 114
    },
    {
      "midi": 66,
      "hit": false,
      "t": 315999.9210000001,
      "d": 1972.2217291666311,
      "v": 117
    },
    {
      "midi": 70,
      "hit": false,
      "t": 316666.5875000001,
      "d": 1569.4440520833014,
      "v": 117
    },
    {
      "midi": 54,
      "hit": false,
      "t": 317999.92050000007,
      "d": 763.8886979166418,
      "v": 109
    },
    {
      "midi": 61,
      "hit": false,
      "t": 318666.58700000006,
      "d": 749.9998124999693,
      "v": 113
    },
    {
      "midi": 66,
      "hit": false,
      "t": 319333.25350000005,
      "d": 1131.9441614582902,
      "v": 116
    },
    {
      "midi": 70,
      "hit": false,
      "t": 320666.58650000003,
      "d": 499.9998749999795,
      "v": 115
    },
    {
      "midi": 78,
      "hit": false,
      "t": 321333.253,
      "d": 256.94438020832604,
      "v": 112
    },
    {
      "midi": 78,
      "hit": false,
      "t": 321999.9195,
      "d": 2104.1661406249623,
      "v": 111
    },
    {
      "midi": 73,
      "hit": false,
      "t": 323333.2525,
      "d": 819.4442395833321,
      "v": 107
    },
    {
      "midi": 70,
      "hit": false,
      "t": 323999.919,
      "d": 229.1666093749809,
      "v": 119
    },
    {
      "midi": 67,
      "hit": false,
      "t": 325333.252,
      "d": 791.6664687500452,
      "v": 111
    },
    {
      "midi": 74,
      "hit": false,
      "t": 325333.252,
      "d": 1118.055276041734,
      "v": 115
    },
    {
      "midi": 55,
      "hit": false,
      "t": 325333.252,
      "d": 2451.3882760417764,
      "v": 115
    },
    {
      "midi": 69,
      "hit": false,
      "t": 326666.585,
      "d": 333.33325000002515,
      "v": 119
    },
    {
      "midi": 71,
      "hit": false,
      "t": 326666.585,
      "d": 347.2221354166977,
      "v": 120
    },
    {
      "midi": 74,
      "hit": false,
      "t": 326666.585,
      "d": 791.6664687500452,
      "v": 116
    },
    {
      "midi": 55,
      "hit": false,
      "t": 327999.9180000001,
      "d": 1291.6663437499665,
      "v": 111
    },
    {
      "midi": 67,
      "hit": false,
      "t": 327999.9180000001,
      "d": 1305.555229166639,
      "v": 120
    },
    {
      "midi": 74,
      "hit": false,
      "t": 327999.9180000001,
      "d": 1340.2774427083205,
      "v": 115
    },
    {
      "midi": 62,
      "hit": false,
      "t": 329333.2510000001,
      "d": 291.66659375000745,
      "v": 118
    },
    {
      "midi": 74,
      "hit": false,
      "t": 330666.58400000015,
      "d": 881.9442239583004,
      "v": 123
    },
    {
      "midi": 69,
      "hit": false,
      "t": 330666.58400000015,
      "d": 972.2219791666139,
      "v": 117
    },
    {
      "midi": 76,
      "hit": false,
      "t": 330666.58400000015,
      "d": 1006.9441927082953,
      "v": 119
    },
    {
      "midi": 57,
      "hit": false,
      "t": 330666.58400000015,
      "d": 3506.9435677083675,
      "v": 114
    },
    {
      "midi": 76,
      "hit": false,
      "t": 331999.91700000013,
      "d": 173.61106770834886,
      "v": 114
    },
    {
      "midi": 73,
      "hit": false,
      "t": 331999.91700000013,
      "d": 458.33321875002,
      "v": 124
    },
    {
      "midi": 76,
      "hit": false,
      "t": 332333.25025000016,
      "d": 152.77773958334,
      "v": 104
    },
    {
      "midi": 71,
      "hit": false,
      "t": 332666.5835000002,
      "d": 631.9442864583107,
      "v": 118
    },
    {
      "midi": 76,
      "hit": false,
      "t": 332666.5835000002,
      "d": 930.5553229166544,
      "v": 113
    },
    {
      "midi": 64,
      "hit": false,
      "t": 333999.91650000017,
      "d": 243.05549479165347,
      "v": 114
    },
    {
      "midi": 76,
      "hit": false,
      "t": 334333.24975000013,
      "d": 48.61109895835398,
      "v": 109
    },
    {
      "midi": 69,
      "hit": false,
      "t": 334333.24975000013,
      "d": 465.2776614583563,
      "v": 118
    },
    {
      "midi": 73,
      "hit": false,
      "t": 334666.58300000016,
      "d": 402.77767708332976,
      "v": 121
    },
    {
      "midi": 76,
      "hit": false,
      "t": 335333.24950000015,
      "d": 138.88885416666744,
      "v": 118
    },
    {
      "midi": 50,
      "hit": false,
      "t": 335999.91600000014,
      "d": 874.9997812499641,
      "v": 115
    },
    {
      "midi": 57,
      "hit": false,
      "t": 336666.58250000014,
      "d": 611.1109583333018,
      "v": 112
    },
    {
      "midi": 50,
      "hit": false,
      "t": 337333.2490000001,
      "d": 354.1665781249758,
      "v": 102
    },
    {
      "midi": 62,
      "hit": false,
      "t": 337333.2490000001,
      "d": 736.1109270832967,
      "v": 118
    },
    {
      "midi": 69,
      "hit": false,
      "t": 337333.2490000001,
      "d": 791.666468749987,
      "v": 114
    },
    {
      "midi": 50,
      "hit": false,
      "t": 337999.9155000001,
      "d": 1749.9995624999865,
      "v": 112
    },
    {
      "midi": 57,
      "hit": false,
      "t": 338666.5820000001,
      "d": 777.7775833333144,
      "v": 111
    },
    {
      "midi": 50,
      "hit": false,
      "t": 339999.9150000001,
      "d": 2840.2770677083754,
      "v": 110
    },
    {
      "midi": 88,
      "hit": false,
      "t": 340666.5815000001,
      "d": 402.77767708332976,
      "v": 114
    },
    {
      "midi": 93,
      "hit": false,
      "t": 340666.5815000001,
      "d": 597.2220729166875,
      "v": 115
    },
    {
      "midi": 90,
      "hit": false,
      "t": 340999.9147500001,
      "d": 291.66659375000745,
      "v": 124
    },
    {
      "midi": 86,
      "hit": false,
      "t": 341333.24800000014,
      "d": 222.22216666664463,
      "v": 123
    },
    {
      "midi": 57,
      "hit": false,
      "t": 342666.5810000001,
      "d": 270.8332656249986,
      "v": 118
    },
    {
      "midi": 76,
      "hit": false,
      "t": 342666.5810000001,
      "d": 493.05543229170144,
      "v": 114
    },
    {
      "midi": 78,
      "hit": false,
      "t": 342999.91425000015,
      "d": 131.94441145833116,
      "v": 116
    },
    {
      "midi": 81,
      "hit": false,
      "t": 342999.91425000015,
      "d": 458.33321875002,
      "v": 109
    },
    {
      "midi": 50,
      "hit": false,
      "t": 342999.91425000015,
      "d": 2270.832765625033,
      "v": 102
    },
    {
      "midi": 78,
      "hit": false,
      "t": 343333.2475000002,
      "d": 277.7777083333349,
      "v": 110
    },
    {
      "midi": 74,
      "hit": false,
      "t": 343999.91400000016,
      "d": 277.7777083333349,
      "v": 121
    },
    {
      "midi": 57,
      "hit": false,
      "t": 345333.2470000002,
      "d": 180.55551041668514,
      "v": 118
    },
    {
      "midi": 55,
      "hit": false,
      "t": 346666.58000000025,
      "d": 583.3331875000149,
      "v": 116
    },
    {
      "midi": 62,
      "hit": false,
      "t": 346999.9132500003,
      "d": 486.11098958330695,
      "v": 112
    },
    {
      "midi": 67,
      "hit": false,
      "t": 347333.24650000024,
      "d": 597.2220729166875,
      "v": 112
    },
    {
      "midi": 71,
      "hit": false,
      "t": 347999.91300000023,
      "d": 256.94438020832604,
      "v": 119
    },
    {
      "midi": 67,
      "hit": false,
      "t": 347999.91300000023,
      "d": 298.61103645834373,
      "v": 112
    },
    {
      "midi": 55,
      "hit": false,
      "t": 349999.91250000027,
      "d": 486.11098958336515,
      "v": 113
    },
    {
      "midi": 62,
      "hit": false,
      "t": 350333.2457500003,
      "d": 347.2221354166977,
      "v": 116
    },
    {
      "midi": 74,
      "hit": false,
      "t": 350666.5790000003,
      "d": 48.61109895835398,
      "v": 109
    },
    {
      "midi": 71,
      "hit": false,
      "t": 350666.5790000003,
      "d": 97.22219791670796,
      "v": 110
    },
    {
      "midi": 67,
      "hit": false,
      "t": 350666.5790000003,
      "d": 430.5554479167331,
      "v": 105
    },
    {
      "midi": 79,
      "hit": false,
      "t": 350666.5790000003,
      "d": 791.6664687500452,
      "v": 115
    },
    {
      "midi": 74,
      "hit": false,
      "t": 351333.24550000037,
      "d": 409.72211979160784,
      "v": 115
    },
    {
      "midi": 62,
      "hit": false,
      "t": 351666.57875000034,
      "d": 291.66659374994924,
      "v": 112
    },
    {
      "midi": 74,
      "hit": false,
      "t": 351999.9120000003,
      "d": 687.4998281250009,
      "v": 112
    },
    {
      "midi": 69,
      "hit": false,
      "t": 351999.9120000003,
      "d": 791.666468749987,
      "v": 120
    },
    {
      "midi": 62,
      "hit": false,
      "t": 352666.5785000003,
      "d": 270.8332656249986,
      "v": 116
    },
    {
      "midi": 62,
      "hit": false,
      "t": 352999.9117500003,
      "d": 277.7777083333349,
      "v": 113
    },
    {
      "midi": 74,
      "hit": false,
      "t": 353333.24500000034,
      "d": 138.88885416666744,
      "v": 113
    },
    {
      "midi": 71,
      "hit": false,
      "t": 353333.24500000034,
      "d": 673.6109427083284,
      "v": 121
    },
    {
      "midi": 62,
      "hit": false,
      "t": 353999.91150000034,
      "d": 291.66659375000745,
      "v": 116
    },
    {
      "midi": 55,
      "hit": false,
      "t": 354333.24475000036,
      "d": 333.33324999996694,
      "v": 113
    },
    {
      "midi": 74,
      "hit": false,
      "t": 354333.24475000036,
      "d": 1131.9441614582902,
      "v": 114
    },
    {
      "midi": 67,
      "hit": false,
      "t": 354333.24475000036,
      "d": 1256.944130208285,
      "v": 123
    },
    {
      "midi": 55,
      "hit": false,
      "t": 355333.2445000003,
      "d": 722.2220416666823,
      "v": 117
    },
    {
      "midi": 62,
      "hit": false,
      "t": 355999.9110000003,
      "d": 229.16660937503912,
      "v": 116
    },
    {
      "midi": 67,
      "hit": false,
      "t": 356666.57750000036,
      "d": 180.55551041668514,
      "v": 118
    },
    {
      "midi": 62,
      "hit": false,
      "t": 357333.24400000036,
      "d": 965.2775364583358,
      "v": 117
    },
    {
      "midi": 50,
      "hit": false,
      "t": 357333.24400000036,
      "d": 993.055307291681,
      "v": 115
    },
    {
      "midi": 69,
      "hit": false,
      "t": 357333.24400000036,
      "d": 993.055307291681,
      "v": 116
    },
    {
      "midi": 57,
      "hit": false,
      "t": 357999.91050000035,
      "d": 812.499796875054,
      "v": 111
    },
    {
      "midi": 62,
      "hit": false,
      "t": 358666.5770000004,
      "d": 2027.7772708333214,
      "v": 113
    },
    {
      "midi": 50,
      "hit": false,
      "t": 360666.5765000004,
      "d": 666.6664999999921,
      "v": 111
    },
    {
      "midi": 57,
      "hit": false,
      "t": 361333.24300000037,
      "d": 208.33328124997206,
      "v": 112
    },
    {
      "midi": 57,
      "hit": false,
      "t": 362666.57600000035,
      "d": 2340.2771927082795,
      "v": 109
    },
    {
      "midi": 76,
      "hit": false,
      "t": 362666.57600000035,
      "d": 2381.943848958297,
      "v": 113
    },
    {
      "midi": 73,
      "hit": false,
      "t": 362666.57600000035,
      "d": 2416.6660624999786,
      "v": 112
    },
    {
      "midi": 69,
      "hit": false,
      "t": 362666.57600000035,
      "d": 2451.38827604166,
      "v": 112
    },
    {
      "midi": 50,
      "hit": false,
      "t": 367999.90800000035,
      "d": 1694.4440208332962,
      "v": 114
    },
    {
      "midi": 57,
      "hit": false,
      "t": 368666.57450000034,
      "d": 874.9997812499641,
      "v": 108
    },
    {
      "midi": 69,
      "hit": false,
      "t": 369333.24100000033,
      "d": 548.6109739583335,
      "v": 114
    },
    {
      "midi": 66,
      "hit": false,
      "t": 369333.24100000033,
      "d": 597.2220729166875,
      "v": 115
    },
    {
      "midi": 62,
      "hit": false,
      "t": 369333.24100000033,
      "d": 1145.833046875021,
      "v": 116
    },
    {
      "midi": 57,
      "hit": false,
      "t": 369999.9075000003,
      "d": 305.55547916668,
      "v": 107
    },
    {
      "midi": 67,
      "hit": false,
      "t": 370666.5740000004,
      "d": 381.9443489583209,
      "v": 119
    },
    {
      "midi": 71,
      "hit": false,
      "t": 370666.5740000004,
      "d": 381.9443489583209,
      "v": 118
    },
    {
      "midi": 62,
      "hit": false,
      "t": 370666.5740000004,
      "d": 430.5554479166749,
      "v": 114
    },
    {
      "midi": 57,
      "hit": false,
      "t": 371333.24050000036,
      "d": 694.4442708333372,
      "v": 105
    },
    {
      "midi": 71,
      "hit": false,
      "t": 371999.90700000036,
      "d": 624.9998437500326,
      "v": 121
    },
    {
      "midi": 67,
      "hit": false,
      "t": 371999.90700000036,
      "d": 659.722057291714,
      "v": 123
    },
    {
      "midi": 62,
      "hit": false,
      "t": 371999.90700000036,
      "d": 687.4998281250591,
      "v": 117
    },
    {
      "midi": 57,
      "hit": false,
      "t": 372666.5735000004,
      "d": 611.11095833336,
      "v": 115
    },
    {
      "midi": 62,
      "hit": false,
      "t": 373333.24000000046,
      "d": 749.9998124999693,
      "v": 116
    },
    {
      "midi": 66,
      "hit": false,
      "t": 373333.24000000046,
      "d": 881.9442239583004,
      "v": 121
    },
    {
      "midi": 50,
      "hit": false,
      "t": 373333.24000000046,
      "d": 888.8886666666367,
      "v": 112
    },
    {
      "midi": 69,
      "hit": false,
      "t": 373333.24000000046,
      "d": 888.8886666666367,
      "v": 119
    },
    {
      "midi": 57,
      "hit": false,
      "t": 373999.90650000045,
      "d": 715.2775989583461,
      "v": 116
    },
    {
      "midi": 69,
      "hit": false,
      "t": 374666.57300000044,
      "d": 805.5553541666595,
      "v": 114
    },
    {
      "midi": 64,
      "hit": false,
      "t": 374666.57300000044,
      "d": 819.4442395833321,
      "v": 113
    },
    {
      "midi": 57,
      "hit": false,
      "t": 375333.23950000043,
      "d": 652.7776145833195,
      "v": 117
    },
    {
      "midi": 64,
      "hit": false,
      "t": 375999.9060000004,
      "d": 770.8331406249781,
      "v": 117
    },
    {
      "midi": 69,
      "hit": false,
      "t": 375999.9060000004,
      "d": 784.7220260416507,
      "v": 117
    },
    {
      "midi": 57,
      "hit": false,
      "t": 376666.5725000004,
      "d": 388.8887916666572,
      "v": 118
    },
    {
      "midi": 66,
      "hit": false,
      "t": 376999.9057500004,
      "d": 152.77773958334,
      "v": 124
    },
    {
      "midi": 69,
      "hit": false,
      "t": 376999.9057500004,
      "d": 152.77773958334,
      "v": 121
    },
    {
      "midi": 64,
      "hit": false,
      "t": 376999.9057500004,
      "d": 180.55551041668514,
      "v": 119
    },
    {
      "midi": 66,
      "hit": false,
      "t": 377333.2390000004,
      "d": 444.44433333334746,
      "v": 125
    },
    {
      "midi": 64,
      "hit": false,
      "t": 377333.2390000004,
      "d": 479.16654687502887,
      "v": 121
    },
    {
      "midi": 69,
      "hit": false,
      "t": 377333.2390000004,
      "d": 479.16654687502887,
      "v": 124
    },
    {
      "midi": 57,
      "hit": false,
      "t": 377666.57225000043,
      "d": 381.9443489583791,
      "v": 120
    },
    {
      "midi": 66,
      "hit": false,
      "t": 377999.90550000046,
      "d": 284.72215104167117,
      "v": 125
    },
    {
      "midi": 64,
      "hit": false,
      "t": 377999.90550000046,
      "d": 305.55547916668,
      "v": 120
    },
    {
      "midi": 69,
      "hit": false,
      "t": 377999.90550000046,
      "d": 333.33325000002515,
      "v": 121
    },
    {
      "midi": 62,
      "hit": false,
      "t": 378666.5720000005,
      "d": 937.4997656249907,
      "v": 120
    },
    {
      "midi": 66,
      "hit": false,
      "t": 378666.5720000005,
      "d": 1006.9441927083535,
      "v": 123
    },
    {
      "midi": 69,
      "hit": false,
      "t": 378666.5720000005,
      "d": 1013.8886354166898,
      "v": 121
    },
    {
      "midi": 50,
      "hit": false,
      "t": 378666.5720000005,
      "d": 1083.3330624999944,
      "v": 115
    },
    {
      "midi": 57,
      "hit": false,
      "t": 379666.5717500005,
      "d": 854.1664531249553,
      "v": 114
    },
    {
      "midi": 50,
      "hit": false,
      "t": 380666.5715000005,
      "d": 479.16654687502887,
      "v": 113
    },
    {
      "midi": 57,
      "hit": false,
      "t": 380999.9047500005,
      "d": 222.22216666664463,
      "v": 117
    },
    {
      "midi": 74,
      "hit": false,
      "t": 381333.2380000005,
      "d": 458.33321875002,
      "v": 122
    },
    {
      "midi": 81,
      "hit": false,
      "t": 381333.2380000005,
      "d": 638.8887291667052,
      "v": 114
    },
    {
      "midi": 62,
      "hit": false,
      "t": 381999.9045000005,
      "d": 1916.6661875000573,
      "v": 112
    },
    {
      "midi": 78,
      "hit": false,
      "t": 382666.5710000005,
      "d": 124.99996874999488,
      "v": 115
    },
    {
      "midi": 74,
      "hit": false,
      "t": 382666.5710000005,
      "d": 159.7221822916763,
      "v": 118
    },
    {
      "midi": 81,
      "hit": false,
      "t": 382666.5710000005,
      "d": 166.66662500001257,
      "v": 115
    },
    {
      "midi": 79,
      "hit": false,
      "t": 382999.90425000055,
      "d": 111.11108333332231,
      "v": 119
    },
    {
      "midi": 74,
      "hit": false,
      "t": 382999.90425000055,
      "d": 173.61106770834886,
      "v": 111
    },
    {
      "midi": 81,
      "hit": false,
      "t": 382999.90425000055,
      "d": 222.22216666670283,
      "v": 113
    },
    {
      "midi": 81,
      "hit": false,
      "t": 383333.23750000057,
      "d": 124.99996874999488,
      "v": 113
    },
    {
      "midi": 78,
      "hit": false,
      "t": 383333.23750000057,
      "d": 423.6110052083386,
      "v": 125
    },
    {
      "midi": 76,
      "hit": false,
      "t": 383999.90400000056,
      "d": 770.8331406249781,
      "v": 122
    },
    {
      "midi": 81,
      "hit": false,
      "t": 383999.90400000056,
      "d": 819.4442395833321,
      "v": 120
    },
    {
      "midi": 62,
      "hit": false,
      "t": 383999.90400000056,
      "d": 2638.888229166623,
      "v": 111
    },
    {
      "midi": 78,
      "hit": false,
      "t": 384666.57050000055,
      "d": 305.55547916668,
      "v": 125
    },
    {
      "midi": 74,
      "hit": false,
      "t": 385333.23700000055,
      "d": 624.9998437499744,
      "v": 123
    },
    {
      "midi": 81,
      "hit": false,
      "t": 385333.23700000055,
      "d": 624.9998437499744,
      "v": 113
    },
    {
      "midi": 69,
      "hit": false,
      "t": 385999.90350000054,
      "d": 513.8887604166521,
      "v": 114
    },
    {
      "midi": 72,
      "hit": false,
      "t": 386666.57000000053,
      "d": 1118.0552760416758,
      "v": 124
    },
    {
      "midi": 71,
      "hit": false,
      "t": 387999.9030000005,
      "d": 284.72215104167117,
      "v": 126
    },
    {
      "midi": 69,
      "hit": false,
      "t": 388333.23625000054,
      "d": 111.11108333332231,
      "v": 123
    },
    {
      "midi": 67,
      "hit": false,
      "t": 388666.5695000005,
      "d": 208.33328124997206,
      "v": 122
    },
    {
      "midi": 74,
      "hit": false,
      "t": 389333.2360000005,
      "d": 111.11108333332231,
      "v": 120
    },
    {
      "midi": 67,
      "hit": false,
      "t": 389333.2360000005,
      "d": 659.7220572916558,
      "v": 121
    },
    {
      "midi": 71,
      "hit": false,
      "t": 389333.2360000005,
      "d": 659.7220572916558,
      "v": 123
    },
    {
      "midi": 55,
      "hit": false,
      "t": 389333.2360000005,
      "d": 798.6109114583232,
      "v": 117
    },
    {
      "midi": 74,
      "hit": false,
      "t": 389666.56925000047,
      "d": 354.166578125034,
      "v": 107
    },
    {
      "midi": 62,
      "hit": false,
      "t": 389999.9025000005,
      "d": 409.72211979166605,
      "v": 115
    },
    {
      "midi": 79,
      "hit": false,
      "t": 390666.5690000005,
      "d": 173.61106770834886,
      "v": 117
    },
    {
      "midi": 86,
      "hit": false,
      "t": 390666.5690000005,
      "d": 319.4443645833526,
      "v": 113
    },
    {
      "midi": 86,
      "hit": false,
      "t": 391333.2355000005,
      "d": 111.11108333332231,
      "v": 118
    },
    {
      "midi": 81,
      "hit": false,
      "t": 391333.2355000005,
      "d": 159.7221822916763,
      "v": 122
    },
    {
      "midi": 67,
      "hit": false,
      "t": 392666.56850000046,
      "d": 347.2221354166395,
      "v": 116
    },
    {
      "midi": 74,
      "hit": false,
      "t": 392666.56850000046,
      "d": 527.7776458333246,
      "v": 115
    },
    {
      "midi": 55,
      "hit": false,
      "t": 392666.56850000046,
      "d": 805.5553541666595,
      "v": 110
    },
    {
      "midi": 62,
      "hit": false,
      "t": 393333.23500000045,
      "d": 236.1110520833172,
      "v": 113
    },
    {
      "midi": 69,
      "hit": false,
      "t": 393666.5682500004,
      "d": 243.05549479165347,
      "v": 123
    },
    {
      "midi": 74,
      "hit": false,
      "t": 393666.5682500004,
      "d": 347.2221354166395,
      "v": 117
    },
    {
      "midi": 55,
      "hit": false,
      "t": 394666.5680000004,
      "d": 1319.4441145833116,
      "v": 114
    },
    {
      "midi": 74,
      "hit": false,
      "t": 394666.5680000004,
      "d": 1652.7773645833367,
      "v": 119
    },
    {
      "midi": 71,
      "hit": false,
      "t": 394666.5680000004,
      "d": 1708.332906250027,
      "v": 123
    },
    {
      "midi": 67,
      "hit": false,
      "t": 394666.5680000004,
      "d": 1749.9995625000447,
      "v": 118
    },
    {
      "midi": 67,
      "hit": false,
      "t": 397333.2340000004,
      "d": 701.3887135416735,
      "v": 125
    },
    {
      "midi": 66,
      "hit": false,
      "t": 397999.9005000004,
      "d": 576.3887447916786,
      "v": 124
    },
    {
      "midi": 64,
      "hit": false,
      "t": 398666.5670000004,
      "d": 249.99993749998976,
      "v": 124
    },
    {
      "midi": 62,
      "hit": false,
      "t": 399999.9000000004,
      "d": 868.0553385416279,
      "v": 121
    },
    {
      "midi": 66,
      "hit": false,
      "t": 399999.9000000004,
      "d": 902.7775520833093,
      "v": 125
    },
    {
      "midi": 69,
      "hit": false,
      "t": 399999.9000000004,
      "d": 909.7219947916456,
      "v": 121
    },
    {
      "midi": 50,
      "hit": false,
      "t": 399999.9000000004,
      "d": 2097.221697916626,
      "v": 117
    },
    {
      "midi": 57,
      "hit": false,
      "t": 401999.89950000035,
      "d": 249.99993749998976,
      "v": 113
    },
    {
      "midi": 81,
      "hit": false,
      "t": 402333.2327500003,
      "d": 124.99996874999488,
      "v": 112
    },
    {
      "midi": 74,
      "hit": false,
      "t": 402333.2327500003,
      "d": 131.94441145833116,
      "v": 117
    },
    {
      "midi": 74,
      "hit": false,
      "t": 402666.56600000034,
      "d": 513.8887604166521,
      "v": 119
    },
    {
      "midi": 81,
      "hit": false,
      "t": 402666.56600000034,
      "d": 687.4998281250009,
      "v": 118
    },
    {
      "midi": 57,
      "hit": false,
      "t": 403333.23250000033,
      "d": 305.55547916668,
      "v": 111
    },
    {
      "midi": 50,
      "hit": false,
      "t": 403333.23250000033,
      "d": 416.6665625000023,
      "v": 100
    },
    {
      "midi": 76,
      "hit": false,
      "t": 403999.8990000003,
      "d": 277.7777083333349,
      "v": 114
    },
    {
      "midi": 81,
      "hit": false,
      "t": 403999.8990000003,
      "d": 569.4443020833423,
      "v": 114
    },
    {
      "midi": 74,
      "hit": false,
      "t": 404666.5655000003,
      "d": 118.0555260416586,
      "v": 114
    },
    {
      "midi": 61,
      "hit": false,
      "t": 405333.2320000003,
      "d": 1958.3328437499586,
      "v": 113
    },
    {
      "midi": 57,
      "hit": false,
      "t": 405333.2320000003,
      "d": 2013.8883854166488,
      "v": 114
    },
    {
      "midi": 64,
      "hit": false,
      "t": 405333.2320000003,
      "d": 2111.1105833332986,
      "v": 113
    },
    {
      "midi": 45,
      "hit": false,
      "t": 407333.2315000003,
      "d": 618.0554010416381,
      "v": 111
    },
    {
      "midi": 52,
      "hit": false,
      "t": 407666.56475000025,
      "d": 347.2221354166977,
      "v": 108
    },
    {
      "midi": 59,
      "hit": false,
      "t": 407999.8980000003,
      "d": 847.2220104166772,
      "v": 117
    },
    {
      "midi": 59,
      "hit": false,
      "t": 409333.23100000026,
      "d": 104.16664062498603,
      "v": 117
    },
    {
      "midi": 57,
      "hit": false,
      "t": 409333.23100000026,
      "d": 208.33328124997206,
      "v": 117
    },
    {
      "midi": 55,
      "hit": false,
      "t": 410666.56400000025,
      "d": 652.7776145833777,
      "v": 118
    },
    {
      "midi": 59,
      "hit": false,
      "t": 410666.56400000025,
      "d": 666.6665000000503,
      "v": 123
    },
    {
      "midi": 62,
      "hit": false,
      "t": 410666.56400000025,
      "d": 694.4442708333954,
      "v": 118
    },
    {
      "midi": 43,
      "hit": false,
      "t": 410666.56400000025,
      "d": 1972.2217291667475,
      "v": 116
    },
    {
      "midi": 50,
      "hit": false,
      "t": 411333.2305000003,
      "d": 694.4442708333372,
      "v": 109
    },
    {
      "midi": 67,
      "hit": false,
      "t": 411999.8970000003,
      "d": 493.05543229170144,
      "v": 112
    },
    {
      "midi": 45,
      "hit": false,
      "t": 412666.56349999976,
      "d": 618.0554010416381,
      "v": 111
    },
    {
      "midi": 50,
      "hit": false,
      "t": 412666.56350000034,
      "d": 1027.7775208333042,
      "v": 111
    },
    {
      "midi": 43,
      "hit": false,
      "t": 413333.23000000033,
      "d": 458.3332187499618,
      "v": 100
    },
    {
      "midi": 69,
      "hit": false,
      "t": 413333.23000000033,
      "d": 916.6664374999236,
      "v": 118
    },
    {
      "midi": 74,
      "hit": false,
      "t": 413333.23000000033,
      "d": 944.4442083332688,
      "v": 116
    },
    {
      "midi": 50,
      "hit": false,
      "t": 413999.89650000026,
      "d": 694.4442708333372,
      "v": 110
    },
    {
      "midi": 69,
      "hit": false,
      "t": 414666.56300000026,
      "d": 638.8887291667052,
      "v": 121
    },
    {
      "midi": 74,
      "hit": false,
      "t": 414666.56300000026,
      "d": 666.6665000000503,
      "v": 124
    },
    {
      "midi": 50,
      "hit": false,
      "t": 415333.2295000003,
      "d": 506.9443177083158,
      "v": 113
    },
    {
      "midi": 43,
      "hit": false,
      "t": 415999.8959999997,
      "d": 1972.2217291666893,
      "v": 116
    },
    {
      "midi": 43,
      "hit": false,
      "t": 415999.8960000003,
      "d": 1444.4440833333065,
      "v": 112
    },
    {
      "midi": 74,
      "hit": false,
      "t": 415999.8960000003,
      "d": 2715.2770989583223,
      "v": 123
    },
    {
      "midi": 67,
      "hit": false,
      "t": 415999.8960000003,
      "d": 2763.8881979166763,
      "v": 123
    },
    {
      "midi": 71,
      "hit": false,
      "t": 415999.8960000003,
      "d": 2770.8326406250126,
      "v": 125
    },
    {
      "midi": 43,
      "hit": false,
      "t": 418666.56199999974,
      "d": 458.33321875002,
      "v": 100
    },
    {
      "midi": 43,
      "hit": false,
      "t": 418666.56200000027,
      "d": 708.333156250068,
      "v": 114
    },
    {
      "midi": 50,
      "hit": false,
      "t": 419333.2285000003,
      "d": 527.7776458333246,
      "v": 117
    },
    {
      "midi": 67,
      "hit": false,
      "t": 419999.8950000003,
      "d": 201.38883854169399,
      "v": 122
    },
    {
      "midi": 38,
      "hit": false,
      "t": 421333.22799999977,
      "d": 5333.331999999995,
      "v": 112
    },
    {
      "midi": 62,
      "hit": false,
      "t": 421333.22800000035,
      "d": 5333.332000000053,
      "v": 117
    },
    {
      "midi": 66,
      "hit": false,
      "t": 421333.22800000035,
      "d": 5333.332000000053,
      "v": 119
    },
    {
      "midi": 69,
      "hit": false,
      "t": 421666.5612500004,
      "d": 4999.998750000028,
      "v": 118
    }
  ]
}