{
  "jsonPath": "Unknown/Unknown/The Jack Stafford Foundation/intonatio-gravis.json",
  "path": "Unknown\\Unknown\\The Jack Stafford Foundation\\Intonatio gravis.mid",
  "name": "Intonatio gravis",
  "difficulty": "Advanced",
  "bpm": 68.0000725334107,
  "notes": [
    {
      "midi": 43,
      "hit": false,
      "t": 3529.4080000000004,
      "d": 404.41133333333346,
      "v": 101
    },
    {
      "midi": 62,
      "hit": false,
      "t": 3529.4080000000004,
      "d": 1989.8875833333323,
      "v": 101
    },
    {
      "midi": 71,
      "hit": false,
      "t": 3529.4080000000004,
      "d": 2196.6888333333327,
      "v": 101
    },
    {
      "midi": 67,
      "hit": false,
      "t": 3529.4080000000004,
      "d": 2224.262333333332,
      "v": 101
    },
    {
      "midi": 50,
      "hit": false,
      "t": 3970.5840000000003,
      "d": 450.36716666666644,
      "v": 101
    },
    {
      "midi": 57,
      "hit": false,
      "t": 4411.76,
      "d": 431.984833333333,
      "v": 101
    },
    {
      "midi": 59,
      "hit": false,
      "t": 4852.936,
      "d": 2164.5197500000004,
      "v": 101
    },
    {
      "midi": 62,
      "hit": false,
      "t": 5735.288,
      "d": 1093.748833333333,
      "v": 102
    },
    {
      "midi": 67,
      "hit": false,
      "t": 6176.463999999999,
      "d": 781.2491666666674,
      "v": 102
    },
    {
      "midi": 71,
      "hit": false,
      "t": 6617.639999999999,
      "d": 271.1394166666669,
      "v": 103
    },
    {
      "midi": 57,
      "hit": false,
      "t": 7058.816,
      "d": 873.1608333333334,
      "v": 103
    },
    {
      "midi": 64,
      "hit": false,
      "t": 7058.816,
      "d": 1773.895166666668,
      "v": 103
    },
    {
      "midi": 69,
      "hit": false,
      "t": 7058.816,
      "d": 2481.6150000000007,
      "v": 103
    },
    {
      "midi": 66,
      "hit": false,
      "t": 7058.816,
      "d": 2693.011833333335,
      "v": 103
    },
    {
      "midi": 61,
      "hit": false,
      "t": 7941.168,
      "d": 827.2049999999999,
      "v": 103
    },
    {
      "midi": 62,
      "hit": false,
      "t": 8823.52,
      "d": 1727.9393333333337,
      "v": 103
    },
    {
      "midi": 69,
      "hit": false,
      "t": 9705.872000000001,
      "d": 845.5873333333329,
      "v": 109
    },
    {
      "midi": 59,
      "hit": false,
      "t": 10588.224,
      "d": 2054.2257499999996,
      "v": 104
    },
    {
      "midi": 67,
      "hit": false,
      "t": 10588.224,
      "d": 2058.8213333333333,
      "v": 104
    },
    {
      "midi": 62,
      "hit": false,
      "t": 10588.224,
      "d": 2095.5859999999993,
      "v": 104
    },
    {
      "midi": 52,
      "hit": false,
      "t": 10588.224,
      "d": 3446.687499999998,
      "v": 104
    },
    {
      "midi": 66,
      "hit": false,
      "t": 12794.104,
      "d": 454.9627499999988,
      "v": 104
    },
    {
      "midi": 62,
      "hit": false,
      "t": 13235.279999999999,
      "d": 399.81574999999975,
      "v": 105
    },
    {
      "midi": 59,
      "hit": false,
      "t": 13676.455999999998,
      "d": 3855.6944166666653,
      "v": 105
    },
    {
      "midi": 62,
      "hit": false,
      "t": 14117.631999999998,
      "d": 3396.1360833333347,
      "v": 105
    },
    {
      "midi": 55,
      "hit": false,
      "t": 14117.631999999998,
      "d": 3400.7316666666666,
      "v": 105
    },
    {
      "midi": 64,
      "hit": false,
      "t": 14117.631999999998,
      "d": 3405.3272499999985,
      "v": 105
    },
    {
      "midi": 45,
      "hit": false,
      "t": 14117.631999999998,
      "d": 3414.518416666666,
      "v": 105
    },
    {
      "midi": 57,
      "hit": false,
      "t": 17647.039999999997,
      "d": 3290.437666666665,
      "v": 92
    },
    {
      "midi": 62,
      "hit": false,
      "t": 17647.039999999997,
      "d": 3299.6288333333323,
      "v": 92
    },
    {
      "midi": 59,
      "hit": false,
      "t": 17647.039999999997,
      "d": 3318.011166666667,
      "v": 92
    },
    {
      "midi": 50,
      "hit": false,
      "t": 17647.039999999997,
      "d": 3373.158166666668,
      "v": 92
    },
    {
      "midi": 55,
      "hit": false,
      "t": 17647.039999999997,
      "d": 3373.158166666668,
      "v": 92
    },
    {
      "midi": 54,
      "hit": false,
      "t": 21176.448,
      "d": 3322.606749999999,
      "v": 94
    },
    {
      "midi": 62,
      "hit": false,
      "t": 21176.448,
      "d": 3336.3934999999983,
      "v": 94
    },
    {
      "midi": 57,
      "hit": false,
      "t": 21176.448,
      "d": 3340.98908333333,
      "v": 94
    },
    {
      "midi": 50,
      "hit": false,
      "t": 21176.448,
      "d": 3363.966999999997,
      "v": 94
    },
    {
      "midi": 62,
      "hit": false,
      "t": 24705.855999999996,
      "d": 3428.305166666665,
      "v": 94
    },
    {
      "midi": 59,
      "hit": false,
      "t": 24705.855999999996,
      "d": 3451.283083333332,
      "v": 94
    },
    {
      "midi": 55,
      "hit": false,
      "t": 24705.855999999996,
      "d": 3465.069833333331,
      "v": 94
    },
    {
      "midi": 52,
      "hit": false,
      "t": 24705.855999999996,
      "d": 3474.2609999999986,
      "v": 94
    },
    {
      "midi": 57,
      "hit": false,
      "t": 28235.263999999996,
      "d": 1695.7702500000014,
      "v": 95
    },
    {
      "midi": 59,
      "hit": false,
      "t": 28235.263999999996,
      "d": 1695.7702500000014,
      "v": 95
    },
    {
      "midi": 66,
      "hit": false,
      "t": 28235.263999999996,
      "d": 1695.7702500000014,
      "v": 95
    },
    {
      "midi": 62,
      "hit": false,
      "t": 28235.263999999996,
      "d": 1700.3658333333333,
      "v": 95
    },
    {
      "midi": 54,
      "hit": false,
      "t": 29999.967999999997,
      "d": 818.0138333333343,
      "v": 83
    },
    {
      "midi": 74,
      "hit": false,
      "t": 29999.967999999997,
      "d": 818.0138333333343,
      "v": 96
    },
    {
      "midi": 59,
      "hit": false,
      "t": 29999.967999999997,
      "d": 886.9475833333345,
      "v": 83
    },
    {
      "midi": 62,
      "hit": false,
      "t": 29999.967999999997,
      "d": 886.9475833333345,
      "v": 83
    },
    {
      "midi": 71,
      "hit": false,
      "t": 29999.967999999997,
      "d": 886.9475833333345,
      "v": 96
    },
    {
      "midi": 57,
      "hit": false,
      "t": 30882.32,
      "d": 822.6094166666662,
      "v": 80
    },
    {
      "midi": 61,
      "hit": false,
      "t": 30882.32,
      "d": 822.6094166666662,
      "v": 80
    },
    {
      "midi": 69,
      "hit": false,
      "t": 30882.32,
      "d": 822.6094166666662,
      "v": 96
    },
    {
      "midi": 52,
      "hit": false,
      "t": 30882.32,
      "d": 831.8005833333336,
      "v": 80
    },
    {
      "midi": 73,
      "hit": false,
      "t": 30882.32,
      "d": 831.8005833333336,
      "v": 96
    },
    {
      "midi": 69,
      "hit": false,
      "t": 31764.672,
      "d": 3019.29825,
      "v": 96
    },
    {
      "midi": 57,
      "hit": false,
      "t": 31764.672,
      "d": 3290.437666666665,
      "v": 92
    },
    {
      "midi": 62,
      "hit": false,
      "t": 31764.672,
      "d": 3299.6288333333287,
      "v": 92
    },
    {
      "midi": 59,
      "hit": false,
      "t": 31764.672,
      "d": 3318.0111666666635,
      "v": 92
    },
    {
      "midi": 50,
      "hit": false,
      "t": 31764.672,
      "d": 3373.1581666666607,
      "v": 92
    },
    {
      "midi": 55,
      "hit": false,
      "t": 31764.672,
      "d": 3373.1581666666607,
      "v": 92
    },
    {
      "midi": 54,
      "hit": false,
      "t": 35294.079999999994,
      "d": 3322.6067500000063,
      "v": 94
    },
    {
      "midi": 62,
      "hit": false,
      "t": 35294.079999999994,
      "d": 3336.3935000000056,
      "v": 94
    },
    {
      "midi": 57,
      "hit": false,
      "t": 35294.079999999994,
      "d": 3340.989083333341,
      "v": 94
    },
    {
      "midi": 50,
      "hit": false,
      "t": 35294.079999999994,
      "d": 3363.967000000004,
      "v": 94
    },
    {
      "midi": 62,
      "hit": false,
      "t": 38823.488,
      "d": 3428.3051666666724,
      "v": 94
    },
    {
      "midi": 59,
      "hit": false,
      "t": 38823.488,
      "d": 3451.2830833333355,
      "v": 94
    },
    {
      "midi": 55,
      "hit": false,
      "t": 38823.488,
      "d": 3465.069833333335,
      "v": 94
    },
    {
      "midi": 52,
      "hit": false,
      "t": 38823.488,
      "d": 3474.2609999999986,
      "v": 94
    },
    {
      "midi": 55,
      "hit": false,
      "t": 42352.89599999999,
      "d": 1626.8364999999976,
      "v": 90
    },
    {
      "midi": 62,
      "hit": false,
      "t": 42352.89599999999,
      "d": 1718.7481666666645,
      "v": 90
    },
    {
      "midi": 59,
      "hit": false,
      "t": 42352.89599999999,
      "d": 1750.9172499999986,
      "v": 90
    },
    {
      "midi": 52,
      "hit": false,
      "t": 42352.89599999999,
      "d": 1755.5128333333341,
      "v": 90
    },
    {
      "midi": 61,
      "hit": false,
      "t": 44117.59999999999,
      "d": 1576.285083333336,
      "v": 86
    },
    {
      "midi": 52,
      "hit": false,
      "t": 44117.59999999999,
      "d": 1590.0718333333352,
      "v": 86
    },
    {
      "midi": 57,
      "hit": false,
      "t": 44117.59999999999,
      "d": 1590.0718333333352,
      "v": 86
    },
    {
      "midi": 66,
      "hit": false,
      "t": 45882.304,
      "d": 2444.8503333333356,
      "v": 102
    },
    {
      "midi": 62,
      "hit": false,
      "t": 45882.304,
      "d": 2527.5708333333387,
      "v": 102
    },
    {
      "midi": 57,
      "hit": false,
      "t": 45882.304,
      "d": 2532.166416666674,
      "v": 102
    },
    {
      "midi": 57,
      "hit": false,
      "t": 48529.36,
      "d": 703.1242500000008,
      "v": 102
    },
    {
      "midi": 61,
      "hit": false,
      "t": 48529.36,
      "d": 712.3154166666645,
      "v": 102
    },
    {
      "midi": 64,
      "hit": false,
      "t": 48529.36,
      "d": 813.4182499999952,
      "v": 102
    },
    {
      "midi": 62,
      "hit": false,
      "t": 49411.71199999999,
      "d": 3377.7537500000035,
      "v": 102
    },
    {
      "midi": 66,
      "hit": false,
      "t": 49411.71199999999,
      "d": 3377.7537500000035,
      "v": 102
    },
    {
      "midi": 59,
      "hit": false,
      "t": 49411.71199999999,
      "d": 3382.349333333339,
      "v": 102
    },
    {
      "midi": 69,
      "hit": false,
      "t": 52058.768,
      "d": 744.4844999999987,
      "v": 102
    },
    {
      "midi": 59,
      "hit": false,
      "t": 52941.119999999995,
      "d": 2481.6150000000052,
      "v": 102
    },
    {
      "midi": 67,
      "hit": false,
      "t": 52941.119999999995,
      "d": 2536.7620000000024,
      "v": 102
    },
    {
      "midi": 62,
      "hit": false,
      "t": 52941.119999999995,
      "d": 2568.9310833333366,
      "v": 102
    },
    {
      "midi": 57,
      "hit": false,
      "t": 55588.176,
      "d": 749.0800833333342,
      "v": 102
    },
    {
      "midi": 62,
      "hit": false,
      "t": 55588.176,
      "d": 767.462416666669,
      "v": 102
    },
    {
      "midi": 66,
      "hit": false,
      "t": 55588.176,
      "d": 804.2270833333387,
      "v": 102
    },
    {
      "midi": 67,
      "hit": false,
      "t": 56470.528000000006,
      "d": 1507.3513333333394,
      "v": 102
    },
    {
      "midi": 59,
      "hit": false,
      "t": 56470.528000000006,
      "d": 1636.027666666676,
      "v": 102
    },
    {
      "midi": 62,
      "hit": false,
      "t": 56470.528000000006,
      "d": 1640.6232500000115,
      "v": 102
    },
    {
      "midi": 55,
      "hit": false,
      "t": 58235.23200000002,
      "d": 1659.005583333339,
      "v": 102
    },
    {
      "midi": 64,
      "hit": false,
      "t": 58235.23200000002,
      "d": 1659.005583333339,
      "v": 102
    },
    {
      "midi": 62,
      "hit": false,
      "t": 58235.23200000002,
      "d": 1681.983500000002,
      "v": 102
    },
    {
      "midi": 59,
      "hit": false,
      "t": 58235.23200000002,
      "d": 1686.5790833333376,
      "v": 102
    },
    {
      "midi": 62,
      "hit": false,
      "t": 59999.93600000002,
      "d": 2628.6736666666693,
      "v": 102
    },
    {
      "midi": 64,
      "hit": false,
      "t": 59999.93600000002,
      "d": 2628.6736666666693,
      "v": 102
    },
    {
      "midi": 66,
      "hit": false,
      "t": 59999.93600000002,
      "d": 2628.6736666666693,
      "v": 102
    },
    {
      "midi": 69,
      "hit": false,
      "t": 59999.93600000002,
      "d": 2628.6736666666693,
      "v": 102
    },
    {
      "midi": 61,
      "hit": false,
      "t": 62646.99200000003,
      "d": 716.9110000000001,
      "v": 102
    },
    {
      "midi": 57,
      "hit": false,
      "t": 62646.99200000003,
      "d": 744.4844999999987,
      "v": 102
    },
    {
      "midi": 64,
      "hit": false,
      "t": 62646.99200000003,
      "d": 873.1608333333352,
      "v": 102
    },
    {
      "midi": 59,
      "hit": false,
      "t": 63529.34400000003,
      "d": 2545.9531666666735,
      "v": 102
    },
    {
      "midi": 66,
      "hit": false,
      "t": 63529.34400000003,
      "d": 2656.2471666666825,
      "v": 102
    },
    {
      "midi": 62,
      "hit": false,
      "t": 63529.34400000003,
      "d": 2665.4383333333535,
      "v": 102
    },
    {
      "midi": 69,
      "hit": false,
      "t": 66176.40000000004,
      "d": 831.8005833333445,
      "v": 102
    },
    {
      "midi": 59,
      "hit": false,
      "t": 67058.75200000005,
      "d": 2481.6150000000052,
      "v": 102
    },
    {
      "midi": 67,
      "hit": false,
      "t": 67058.75200000005,
      "d": 2536.7620000000024,
      "v": 102
    },
    {
      "midi": 62,
      "hit": false,
      "t": 67058.75200000005,
      "d": 2568.9310833333293,
      "v": 102
    },
    {
      "midi": 57,
      "hit": false,
      "t": 69705.80800000005,
      "d": 749.0800833333342,
      "v": 102
    },
    {
      "midi": 62,
      "hit": false,
      "t": 69705.80800000005,
      "d": 767.4624166666617,
      "v": 102
    },
    {
      "midi": 66,
      "hit": false,
      "t": 69705.80800000005,
      "d": 804.2270833333314,
      "v": 102
    },
    {
      "midi": 67,
      "hit": false,
      "t": 70588.16000000005,
      "d": 1507.3513333333394,
      "v": 102
    },
    {
      "midi": 59,
      "hit": false,
      "t": 70588.16000000005,
      "d": 1636.027666666676,
      "v": 102
    },
    {
      "midi": 62,
      "hit": false,
      "t": 70588.16000000005,
      "d": 1640.6232500000042,
      "v": 102
    },
    {
      "midi": 55,
      "hit": false,
      "t": 72352.86400000005,
      "d": 1659.0055833333317,
      "v": 102
    },
    {
      "midi": 64,
      "hit": false,
      "t": 72352.86400000005,
      "d": 1659.0055833333317,
      "v": 102
    },
    {
      "midi": 62,
      "hit": false,
      "t": 72352.86400000005,
      "d": 1681.983500000002,
      "v": 102
    },
    {
      "midi": 59,
      "hit": false,
      "t": 72352.86400000005,
      "d": 1686.5790833333303,
      "v": 102
    },
    {
      "midi": 57,
      "hit": false,
      "t": 74117.56800000004,
      "d": 3290.437666666665,
      "v": 92
    },
    {
      "midi": 62,
      "hit": false,
      "t": 74117.56800000004,
      "d": 3299.628833333336,
      "v": 92
    },
    {
      "midi": 59,
      "hit": false,
      "t": 74117.56800000004,
      "d": 3318.0111666666635,
      "v": 92
    },
    {
      "midi": 50,
      "hit": false,
      "t": 74117.56800000004,
      "d": 3373.1581666666607,
      "v": 92
    },
    {
      "midi": 55,
      "hit": false,
      "t": 74117.56800000004,
      "d": 3373.1581666666607,
      "v": 92
    },
    {
      "midi": 54,
      "hit": false,
      "t": 77646.97600000004,
      "d": 3322.6067500000063,
      "v": 94
    },
    {
      "midi": 62,
      "hit": false,
      "t": 77646.97600000004,
      "d": 3336.3935000000056,
      "v": 94
    },
    {
      "midi": 57,
      "hit": false,
      "t": 77646.97600000004,
      "d": 3340.989083333334,
      "v": 94
    },
    {
      "midi": 50,
      "hit": false,
      "t": 77646.97600000004,
      "d": 3363.967000000004,
      "v": 94
    },
    {
      "midi": 62,
      "hit": false,
      "t": 81176.38400000005,
      "d": 3428.3051666666724,
      "v": 94
    },
    {
      "midi": 59,
      "hit": false,
      "t": 81176.38400000005,
      "d": 3451.283083333343,
      "v": 94
    },
    {
      "midi": 55,
      "hit": false,
      "t": 81176.38400000005,
      "d": 3465.069833333342,
      "v": 94
    },
    {
      "midi": 52,
      "hit": false,
      "t": 81176.38400000005,
      "d": 3474.261000000013,
      "v": 94
    },
    {
      "midi": 57,
      "hit": false,
      "t": 84705.79200000006,
      "d": 1695.7702500000014,
      "v": 95
    },
    {
      "midi": 59,
      "hit": false,
      "t": 84705.79200000006,
      "d": 1695.7702500000014,
      "v": 95
    },
    {
      "midi": 66,
      "hit": false,
      "t": 84705.79200000006,
      "d": 1695.7702500000014,
      "v": 95
    },
    {
      "midi": 62,
      "hit": false,
      "t": 84705.79200000006,
      "d": 1700.3658333333296,
      "v": 95
    },
    {
      "midi": 54,
      "hit": false,
      "t": 86470.49600000006,
      "d": 818.0138333333307,
      "v": 83
    },
    {
      "midi": 74,
      "hit": false,
      "t": 86470.49600000006,
      "d": 818.0138333333307,
      "v": 96
    },
    {
      "midi": 59,
      "hit": false,
      "t": 86470.49600000006,
      "d": 886.9475833333272,
      "v": 83
    },
    {
      "midi": 62,
      "hit": false,
      "t": 86470.49600000006,
      "d": 886.9475833333272,
      "v": 83
    },
    {
      "midi": 71,
      "hit": false,
      "t": 86470.49600000006,
      "d": 886.9475833333272,
      "v": 96
    },
    {
      "midi": 57,
      "hit": false,
      "t": 87352.84800000006,
      "d": 822.609416666659,
      "v": 80
    },
    {
      "midi": 61,
      "hit": false,
      "t": 87352.84800000006,
      "d": 822.609416666659,
      "v": 80
    },
    {
      "midi": 69,
      "hit": false,
      "t": 87352.84800000006,
      "d": 822.609416666659,
      "v": 96
    },
    {
      "midi": 52,
      "hit": false,
      "t": 87352.84800000006,
      "d": 831.80058333333,
      "v": 80
    },
    {
      "midi": 73,
      "hit": false,
      "t": 87352.84800000006,
      "d": 831.80058333333,
      "v": 96
    },
    {
      "midi": 69,
      "hit": false,
      "t": 88235.20000000006,
      "d": 3019.298250000007,
      "v": 96
    },
    {
      "midi": 57,
      "hit": false,
      "t": 88235.20000000006,
      "d": 3290.4376666666794,
      "v": 92
    },
    {
      "midi": 62,
      "hit": false,
      "t": 88235.20000000006,
      "d": 3299.6288333333505,
      "v": 92
    },
    {
      "midi": 59,
      "hit": false,
      "t": 88235.20000000006,
      "d": 3318.011166666678,
      "v": 92
    },
    {
      "midi": 50,
      "hit": false,
      "t": 88235.20000000006,
      "d": 3373.1581666666752,
      "v": 92
    },
    {
      "midi": 55,
      "hit": false,
      "t": 88235.20000000006,
      "d": 3373.1581666666752,
      "v": 92
    },
    {
      "midi": 54,
      "hit": false,
      "t": 91764.60800000007,
      "d": 3322.6067500000063,
      "v": 94
    },
    {
      "midi": 62,
      "hit": false,
      "t": 91764.60800000007,
      "d": 3336.3935000000056,
      "v": 94
    },
    {
      "midi": 57,
      "hit": false,
      "t": 91764.60800000007,
      "d": 3340.989083333334,
      "v": 94
    },
    {
      "midi": 50,
      "hit": false,
      "t": 91764.60800000007,
      "d": 3363.967000000004,
      "v": 94
    },
    {
      "midi": 62,
      "hit": false,
      "t": 95294.01600000008,
      "d": 1567.0939166666649,
      "v": 94
    },
    {
      "midi": 52,
      "hit": false,
      "t": 95294.01600000008,
      "d": 1580.8806666666642,
      "v": 94
    },
    {
      "midi": 59,
      "hit": false,
      "t": 95294.01600000008,
      "d": 1594.6674166666635,
      "v": 94
    },
    {
      "midi": 55,
      "hit": false,
      "t": 95294.01600000008,
      "d": 1608.4541666666628,
      "v": 94
    },
    {
      "midi": 54,
      "hit": false,
      "t": 97058.72000000007,
      "d": 1456.7999166666705,
      "v": 94
    },
    {
      "midi": 58,
      "hit": false,
      "t": 97058.72000000007,
      "d": 1548.7115833333373,
      "v": 94
    },
    {
      "midi": 61,
      "hit": false,
      "t": 97058.72000000007,
      "d": 1590.0718333333352,
      "v": 94
    },
    {
      "midi": 64,
      "hit": false,
      "t": 97058.72000000007,
      "d": 1649.8144166666752,
      "v": 94
    },
    {
      "midi": 54,
      "hit": false,
      "t": 98602.83600000008,
      "d": 211.39683333333232,
      "v": 60
    },
    {
      "midi": 55,
      "hit": false,
      "t": 98823.42400000009,
      "d": 1681.983500000002,
      "v": 94
    },
    {
      "midi": 57,
      "hit": false,
      "t": 98823.42400000009,
      "d": 1695.7702500000014,
      "v": 94
    },
    {
      "midi": 62,
      "hit": false,
      "t": 98823.42400000009,
      "d": 1695.7702500000014,
      "v": 94
    },
    {
      "midi": 64,
      "hit": false,
      "t": 100588.12800000008,
      "d": 1475.182249999998,
      "v": 94
    },
    {
      "midi": 55,
      "hit": false,
      "t": 100588.12800000008,
      "d": 1525.733666666667,
      "v": 94
    },
    {
      "midi": 62,
      "hit": false,
      "t": 100588.12800000008,
      "d": 1580.8806666666642,
      "v": 94
    },
    {
      "midi": 59,
      "hit": false,
      "t": 100588.12800000008,
      "d": 1659.0055833333317,
      "v": 94
    },
    {
      "midi": 66,
      "hit": false,
      "t": 102352.83200000008,
      "d": 1571.6894999999931,
      "v": 95
    },
    {
      "midi": 63,
      "hit": false,
      "t": 102352.83200000008,
      "d": 1576.2850833333214,
      "v": 95
    },
    {
      "midi": 54,
      "hit": false,
      "t": 102352.83200000008,
      "d": 1590.0718333333207,
      "v": 95
    },
    {
      "midi": 59,
      "hit": false,
      "t": 102352.83200000008,
      "d": 1613.049749999991,
      "v": 95
    },
    {
      "midi": 68,
      "hit": false,
      "t": 104117.53600000008,
      "d": 2444.8503333333356,
      "v": 102
    },
    {
      "midi": 64,
      "hit": false,
      "t": 104117.53600000008,
      "d": 2527.5708333333314,
      "v": 102
    },
    {
      "midi": 59,
      "hit": false,
      "t": 104117.53600000008,
      "d": 2532.1664166666596,
      "v": 102
    },
    {
      "midi": 59,
      "hit": false,
      "t": 106764.59200000008,
      "d": 703.124250000008,
      "v": 102
    },
    {
      "midi": 63,
      "hit": false,
      "t": 106764.59200000008,
      "d": 712.3154166666791,
      "v": 102
    },
    {
      "midi": 66,
      "hit": false,
      "t": 106764.59200000008,
      "d": 813.418250000017,
      "v": 102
    },
    {
      "midi": 64,
      "hit": false,
      "t": 107646.94400000009,
      "d": 3377.7537500000035,
      "v": 102
    },
    {
      "midi": 68,
      "hit": false,
      "t": 107646.94400000009,
      "d": 3377.7537500000035,
      "v": 102
    },
    {
      "midi": 61,
      "hit": false,
      "t": 107646.94400000009,
      "d": 3382.3493333333317,
      "v": 102
    },
    {
      "midi": 71,
      "hit": false,
      "t": 110294.00000000009,
      "d": 744.4845000000059,
      "v": 102
    },
    {
      "midi": 61,
      "hit": false,
      "t": 111176.35200000009,
      "d": 2481.6150000000052,
      "v": 102
    },
    {
      "midi": 69,
      "hit": false,
      "t": 111176.35200000009,
      "d": 2536.7620000000024,
      "v": 102
    },
    {
      "midi": 64,
      "hit": false,
      "t": 111176.35200000009,
      "d": 2568.9310833333293,
      "v": 102
    },
    {
      "midi": 59,
      "hit": false,
      "t": 113823.40800000008,
      "d": 749.0800833333342,
      "v": 102
    },
    {
      "midi": 64,
      "hit": false,
      "t": 113823.40800000008,
      "d": 767.4624166666617,
      "v": 102
    },
    {
      "midi": 68,
      "hit": false,
      "t": 113823.40800000008,
      "d": 804.2270833333314,
      "v": 102
    },
    {
      "midi": 69,
      "hit": false,
      "t": 114705.76000000008,
      "d": 1507.3513333333394,
      "v": 102
    },
    {
      "midi": 61,
      "hit": false,
      "t": 114705.76000000008,
      "d": 1636.027666666676,
      "v": 102
    },
    {
      "midi": 64,
      "hit": false,
      "t": 114705.76000000008,
      "d": 1640.6232500000042,
      "v": 102
    },
    {
      "midi": 57,
      "hit": false,
      "t": 116470.46400000008,
      "d": 1659.0055833333317,
      "v": 102
    },
    {
      "midi": 66,
      "hit": false,
      "t": 116470.46400000008,
      "d": 1659.0055833333317,
      "v": 102
    },
    {
      "midi": 64,
      "hit": false,
      "t": 116470.46400000008,
      "d": 1681.983500000002,
      "v": 102
    },
    {
      "midi": 61,
      "hit": false,
      "t": 116470.46400000008,
      "d": 1686.5790833333303,
      "v": 102
    },
    {
      "midi": 64,
      "hit": false,
      "t": 118235.16800000008,
      "d": 2628.6736666666693,
      "v": 102
    },
    {
      "midi": 66,
      "hit": false,
      "t": 118235.16800000008,
      "d": 2628.6736666666693,
      "v": 102
    },
    {
      "midi": 68,
      "hit": false,
      "t": 118235.16800000008,
      "d": 2628.6736666666693,
      "v": 102
    },
    {
      "midi": 71,
      "hit": false,
      "t": 118235.16800000008,
      "d": 2628.6736666666693,
      "v": 102
    },
    {
      "midi": 63,
      "hit": false,
      "t": 120882.22400000007,
      "d": 716.9110000000073,
      "v": 102
    },
    {
      "midi": 59,
      "hit": false,
      "t": 120882.22400000007,
      "d": 744.4845000000059,
      "v": 102
    },
    {
      "midi": 66,
      "hit": false,
      "t": 120882.22400000007,
      "d": 873.1608333333425,
      "v": 102
    },
    {
      "midi": 61,
      "hit": false,
      "t": 121764.57600000009,
      "d": 2545.9531666666735,
      "v": 102
    },
    {
      "midi": 68,
      "hit": false,
      "t": 121764.57600000009,
      "d": 2656.2471666666825,
      "v": 102
    },
    {
      "midi": 64,
      "hit": false,
      "t": 121764.57600000009,
      "d": 2665.4383333333535,
      "v": 102
    },
    {
      "midi": 71,
      "hit": false,
      "t": 124411.6320000001,
      "d": 831.8005833333445,
      "v": 102
    },
    {
      "midi": 61,
      "hit": false,
      "t": 125293.98400000011,
      "d": 2481.6150000000052,
      "v": 102
    },
    {
      "midi": 69,
      "hit": false,
      "t": 125293.98400000011,
      "d": 2536.7620000000024,
      "v": 102
    },
    {
      "midi": 64,
      "hit": false,
      "t": 125293.98400000011,
      "d": 2568.9310833333293,
      "v": 102
    },
    {
      "midi": 59,
      "hit": false,
      "t": 127941.04000000011,
      "d": 749.0800833333342,
      "v": 102
    },
    {
      "midi": 64,
      "hit": false,
      "t": 127941.04000000011,
      "d": 767.4624166666617,
      "v": 102
    },
    {
      "midi": 68,
      "hit": false,
      "t": 127941.04000000011,
      "d": 804.2270833333314,
      "v": 102
    },
    {
      "midi": 69,
      "hit": false,
      "t": 128823.39200000011,
      "d": 1507.3513333333394,
      "v": 102
    },
    {
      "midi": 61,
      "hit": false,
      "t": 128823.39200000011,
      "d": 1636.027666666676,
      "v": 102
    },
    {
      "midi": 64,
      "hit": false,
      "t": 128823.39200000011,
      "d": 1640.6232500000042,
      "v": 102
    },
    {
      "midi": 61,
      "hit": false,
      "t": 130588.0960000001,
      "d": 753.675666666677,
      "v": 102
    },
    {
      "midi": 64,
      "hit": false,
      "t": 130588.0960000001,
      "d": 753.675666666677,
      "v": 102
    },
    {
      "midi": 69,
      "hit": false,
      "t": 130588.0960000001,
      "d": 753.675666666677,
      "v": 102
    },
    {
      "midi": 60,
      "hit": false,
      "t": 131470.44800000012,
      "d": 749.0800833333342,
      "v": 102
    },
    {
      "midi": 63,
      "hit": false,
      "t": 131470.44800000012,
      "d": 767.4624166666763,
      "v": 102
    },
    {
      "midi": 68,
      "hit": false,
      "t": 131470.44800000012,
      "d": 804.2270833333314,
      "v": 102
    },
    {
      "midi": 61,
      "hit": false,
      "t": 132352.8000000001,
      "d": 2238.049083333317,
      "v": 103
    },
    {
      "midi": 68,
      "hit": false,
      "t": 132352.8000000001,
      "d": 2348.3430833333114,
      "v": 103
    },
    {
      "midi": 64,
      "hit": false,
      "t": 132352.8000000001,
      "d": 3253.6729999999516,
      "v": 103
    },
    {
      "midi": 61,
      "hit": false,
      "t": 134779.26800000007,
      "d": 882.3519999999844,
      "v": 64
    },
    {
      "midi": 68,
      "hit": false,
      "t": 134999.85600000006,
      "d": 799.6314999999886,
      "v": 103
    },
    {
      "midi": 60,
      "hit": false,
      "t": 135882.20800000004,
      "d": 2265.6225833333156,
      "v": 103
    },
    {
      "midi": 63,
      "hit": false,
      "t": 135882.20800000004,
      "d": 2408.0856666666514,
      "v": 103
    },
    {
      "midi": 68,
      "hit": false,
      "t": 135882.20800000004,
      "d": 2656.247166666639,
      "v": 103
    },
    {
      "midi": 64,
      "hit": false,
      "t": 139411.616,
      "d": 1539.5204166666663,
      "v": 104
    },
    {
      "midi": 61,
      "hit": false,
      "t": 139411.616,
      "d": 1640.6232500000042,
      "v": 104
    },
    {
      "midi": 57,
      "hit": false,
      "t": 139411.616,
      "d": 1704.961416666658,
      "v": 104
    },
    {
      "midi": 58,
      "hit": false,
      "t": 141176.32,
      "d": 1677.3879166666593,
      "v": 104
    },
    {
      "midi": 66,
      "hit": false,
      "t": 141176.32,
      "d": 1677.3879166666593,
      "v": 104
    },
    {
      "midi": 61,
      "hit": false,
      "t": 141176.32,
      "d": 1691.1746666666586,
      "v": 104
    },
    {
      "midi": 61,
      "hit": false,
      "t": 142941.024,
      "d": 1594.6674166666635,
      "v": 105
    },
    {
      "midi": 66,
      "hit": false,
      "t": 142941.024,
      "d": 1594.6674166666635,
      "v": 105
    },
    {
      "midi": 57,
      "hit": false,
      "t": 142941.024,
      "d": 1599.2630000000063,
      "v": 105
    },
    {
      "midi": 64,
      "hit": false,
      "t": 142941.024,
      "d": 1603.858583333349,
      "v": 105
    },
    {
      "midi": 67,
      "hit": false,
      "t": 144705.72800000003,
      "d": 1617.6453333333193,
      "v": 105
    },
    {
      "midi": 60,
      "hit": false,
      "t": 144705.72800000003,
      "d": 1626.8364999999758,
      "v": 105
    },
    {
      "midi": 64,
      "hit": false,
      "t": 144705.72800000003,
      "d": 1631.4320833333186,
      "v": 105
    },
    {
      "midi": 71,
      "hit": false,
      "t": 146470.43200000003,
      "d": 2444.8503333333356,
      "v": 102
    },
    {
      "midi": 67,
      "hit": false,
      "t": 146470.43200000003,
      "d": 2527.5708333333314,
      "v": 102
    },
    {
      "midi": 62,
      "hit": false,
      "t": 146470.43200000003,
      "d": 2532.166416666674,
      "v": 102
    },
    {
      "midi": 62,
      "hit": false,
      "t": 149117.48800000004,
      "d": 703.1242499999935,
      "v": 102
    },
    {
      "midi": 66,
      "hit": false,
      "t": 149117.48800000004,
      "d": 712.31541666665,
      "v": 102
    },
    {
      "midi": 69,
      "hit": false,
      "t": 149117.48800000004,
      "d": 813.4182499999879,
      "v": 102
    },
    {
      "midi": 67,
      "hit": false,
      "t": 149999.84000000003,
      "d": 3377.7537499999744,
      "v": 102
    },
    {
      "midi": 71,
      "hit": false,
      "t": 149999.84000000003,
      "d": 3377.7537499999744,
      "v": 102
    },
    {
      "midi": 64,
      "hit": false,
      "t": 149999.84000000003,
      "d": 3382.349333333317,
      "v": 102
    },
    {
      "midi": 74,
      "hit": false,
      "t": 152646.896,
      "d": 744.4844999999914,
      "v": 102
    },
    {
      "midi": 64,
      "hit": false,
      "t": 153529.248,
      "d": 2481.6149999999907,
      "v": 102
    },
    {
      "midi": 72,
      "hit": false,
      "t": 153529.248,
      "d": 2536.761999999988,
      "v": 102
    },
    {
      "midi": 67,
      "hit": false,
      "t": 153529.248,
      "d": 2568.9310833333293,
      "v": 102
    },
    {
      "midi": 62,
      "hit": false,
      "t": 156176.30399999997,
      "d": 749.0800833333342,
      "v": 102
    },
    {
      "midi": 67,
      "hit": false,
      "t": 156176.30399999997,
      "d": 767.4624166666763,
      "v": 102
    },
    {
      "midi": 71,
      "hit": false,
      "t": 156176.30399999997,
      "d": 804.2270833333314,
      "v": 102
    },
    {
      "midi": 72,
      "hit": false,
      "t": 157058.65599999996,
      "d": 1507.3513333333249,
      "v": 102
    },
    {
      "midi": 64,
      "hit": false,
      "t": 157058.65599999996,
      "d": 1636.0276666666614,
      "v": 102
    },
    {
      "midi": 67,
      "hit": false,
      "t": 157058.65599999996,
      "d": 1640.6232500000042,
      "v": 102
    },
    {
      "midi": 60,
      "hit": false,
      "t": 158823.35999999996,
      "d": 1659.0055833333172,
      "v": 102
    },
    {
      "midi": 69,
      "hit": false,
      "t": 158823.35999999996,
      "d": 1659.0055833333172,
      "v": 102
    },
    {
      "midi": 67,
      "hit": false,
      "t": 158823.35999999996,
      "d": 1681.983499999973,
      "v": 102
    },
    {
      "midi": 64,
      "hit": false,
      "t": 158823.35999999996,
      "d": 1686.5790833333158,
      "v": 102
    },
    {
      "midi": 67,
      "hit": false,
      "t": 160588.06399999993,
      "d": 2628.6736666666693,
      "v": 102
    },
    {
      "midi": 69,
      "hit": false,
      "t": 160588.06399999993,
      "d": 2628.6736666666693,
      "v": 102
    },
    {
      "midi": 71,
      "hit": false,
      "t": 160588.06399999993,
      "d": 2628.6736666666693,
      "v": 102
    },
    {
      "midi": 74,
      "hit": false,
      "t": 160588.06399999993,
      "d": 2628.6736666666693,
      "v": 102
    },
    {
      "midi": 66,
      "hit": false,
      "t": 163235.11999999994,
      "d": 716.9109999999928,
      "v": 102
    },
    {
      "midi": 62,
      "hit": false,
      "t": 163235.11999999994,
      "d": 744.4844999999914,
      "v": 102
    },
    {
      "midi": 69,
      "hit": false,
      "t": 163235.11999999994,
      "d": 873.1608333333279,
      "v": 102
    },
    {
      "midi": 64,
      "hit": false,
      "t": 164117.47199999992,
      "d": 2545.9531666666444,
      "v": 102
    },
    {
      "midi": 71,
      "hit": false,
      "t": 164117.47199999992,
      "d": 2656.247166666639,
      "v": 102
    },
    {
      "midi": 67,
      "hit": false,
      "t": 164117.47199999992,
      "d": 2665.4383333332953,
      "v": 102
    },
    {
      "midi": 74,
      "hit": false,
      "t": 166764.5279999999,
      "d": 831.8005833333009,
      "v": 102
    },
    {
      "midi": 64,
      "hit": false,
      "t": 167646.87999999986,
      "d": 2481.6149999999907,
      "v": 102
    },
    {
      "midi": 72,
      "hit": false,
      "t": 167646.87999999986,
      "d": 2536.761999999988,
      "v": 102
    },
    {
      "midi": 67,
      "hit": false,
      "t": 167646.87999999986,
      "d": 2568.9310833333293,
      "v": 102
    },
    {
      "midi": 62,
      "hit": false,
      "t": 170293.93599999984,
      "d": 749.0800833333342,
      "v": 102
    },
    {
      "midi": 67,
      "hit": false,
      "t": 170293.93599999984,
      "d": 767.4624166666763,
      "v": 102
    },
    {
      "midi": 71,
      "hit": false,
      "t": 170293.93599999984,
      "d": 804.2270833333314,
      "v": 102
    },
    {
      "midi": 72,
      "hit": false,
      "t": 171176.28799999983,
      "d": 1507.3513333333249,
      "v": 102
    },
    {
      "midi": 64,
      "hit": false,
      "t": 171176.28799999983,
      "d": 1636.0276666666614,
      "v": 102
    },
    {
      "midi": 67,
      "hit": false,
      "t": 171176.28799999983,
      "d": 1640.6232500000042,
      "v": 102
    },
    {
      "midi": 60,
      "hit": false,
      "t": 172940.99199999982,
      "d": 1659.0055833333172,
      "v": 102
    },
    {
      "midi": 69,
      "hit": false,
      "t": 172940.99199999982,
      "d": 1659.0055833333172,
      "v": 102
    },
    {
      "midi": 67,
      "hit": false,
      "t": 172940.99199999982,
      "d": 1681.983499999973,
      "v": 102
    },
    {
      "midi": 64,
      "hit": false,
      "t": 172940.99199999982,
      "d": 1686.5790833333158,
      "v": 102
    },
    {
      "midi": 71,
      "hit": false,
      "t": 174705.6959999998,
      "d": 2444.8503333333356,
      "v": 102
    },
    {
      "midi": 67,
      "hit": false,
      "t": 174705.6959999998,
      "d": 2527.5708333333314,
      "v": 102
    },
    {
      "midi": 62,
      "hit": false,
      "t": 174705.6959999998,
      "d": 2532.166416666674,
      "v": 102
    },
    {
      "midi": 62,
      "hit": false,
      "t": 177352.7519999998,
      "d": 703.1242499999935,
      "v": 102
    },
    {
      "midi": 66,
      "hit": false,
      "t": 177352.7519999998,
      "d": 712.31541666665,
      "v": 102
    },
    {
      "midi": 69,
      "hit": false,
      "t": 177352.7519999998,
      "d": 813.4182499999879,
      "v": 102
    },
    {
      "midi": 67,
      "hit": false,
      "t": 178235.1039999998,
      "d": 3377.7537499999744,
      "v": 102
    },
    {
      "midi": 71,
      "hit": false,
      "t": 178235.1039999998,
      "d": 3377.7537499999744,
      "v": 102
    },
    {
      "midi": 64,
      "hit": false,
      "t": 178235.1039999998,
      "d": 3382.349333333317,
      "v": 102
    },
    {
      "midi": 74,
      "hit": false,
      "t": 180882.15999999977,
      "d": 744.4844999999914,
      "v": 102
    },
    {
      "midi": 64,
      "hit": false,
      "t": 181764.51199999976,
      "d": 2481.6149999999907,
      "v": 102
    },
    {
      "midi": 72,
      "hit": false,
      "t": 181764.51199999976,
      "d": 2536.761999999988,
      "v": 102
    },
    {
      "midi": 67,
      "hit": false,
      "t": 181764.51199999976,
      "d": 2568.9310833333293,
      "v": 102
    },
    {
      "midi": 62,
      "hit": false,
      "t": 184411.56799999974,
      "d": 749.0800833333342,
      "v": 102
    },
    {
      "midi": 67,
      "hit": false,
      "t": 184411.56799999974,
      "d": 767.4624166666763,
      "v": 102
    },
    {
      "midi": 71,
      "hit": false,
      "t": 184411.56799999974,
      "d": 804.2270833333314,
      "v": 102
    },
    {
      "midi": 72,
      "hit": false,
      "t": 185293.91999999972,
      "d": 1507.3513333333249,
      "v": 102
    },
    {
      "midi": 64,
      "hit": false,
      "t": 185293.91999999972,
      "d": 1636.0276666666614,
      "v": 102
    },
    {
      "midi": 67,
      "hit": false,
      "t": 185293.91999999972,
      "d": 1640.6232500000042,
      "v": 102
    },
    {
      "midi": 60,
      "hit": false,
      "t": 187058.62399999972,
      "d": 1659.0055833333172,
      "v": 102
    },
    {
      "midi": 69,
      "hit": false,
      "t": 187058.62399999972,
      "d": 1659.0055833333172,
      "v": 102
    },
    {
      "midi": 67,
      "hit": false,
      "t": 187058.62399999972,
      "d": 1681.983499999973,
      "v": 102
    },
    {
      "midi": 64,
      "hit": false,
      "t": 187058.62399999972,
      "d": 1686.5790833333158,
      "v": 102
    },
    {
      "midi": 67,
      "hit": false,
      "t": 188823.3279999997,
      "d": 2628.6736666666693,
      "v": 102
    },
    {
      "midi": 69,
      "hit": false,
      "t": 188823.3279999997,
      "d": 2628.6736666666693,
      "v": 102
    },
    {
      "midi": 71,
      "hit": false,
      "t": 188823.3279999997,
      "d": 2628.6736666666693,
      "v": 102
    },
    {
      "midi": 74,
      "hit": false,
      "t": 188823.3279999997,
      "d": 2628.6736666666693,
      "v": 102
    },
    {
      "midi": 66,
      "hit": false,
      "t": 191470.3839999997,
      "d": 716.9109999999928,
      "v": 102
    },
    {
      "midi": 62,
      "hit": false,
      "t": 191470.3839999997,
      "d": 744.4844999999914,
      "v": 102
    },
    {
      "midi": 69,
      "hit": false,
      "t": 191470.3839999997,
      "d": 873.1608333333279,
      "v": 102
    },
    {
      "midi": 64,
      "hit": false,
      "t": 192352.73599999968,
      "d": 2545.9531666666444,
      "v": 102
    },
    {
      "midi": 71,
      "hit": false,
      "t": 192352.73599999968,
      "d": 2656.247166666639,
      "v": 102
    },
    {
      "midi": 67,
      "hit": false,
      "t": 192352.73599999968,
      "d": 2665.4383333332953,
      "v": 102
    },
    {
      "midi": 74,
      "hit": false,
      "t": 194999.79199999967,
      "d": 831.8005833333009,
      "v": 102
    },
    {
      "midi": 64,
      "hit": false,
      "t": 195882.14399999962,
      "d": 2481.6149999999907,
      "v": 102
    },
    {
      "midi": 72,
      "hit": false,
      "t": 195882.14399999962,
      "d": 2536.761999999988,
      "v": 102
    },
    {
      "midi": 67,
      "hit": false,
      "t": 195882.14399999962,
      "d": 2568.9310833333293,
      "v": 102
    },
    {
      "midi": 62,
      "hit": false,
      "t": 198529.1999999996,
      "d": 749.0800833333342,
      "v": 102
    },
    {
      "midi": 67,
      "hit": false,
      "t": 198529.1999999996,
      "d": 767.4624166666763,
      "v": 102
    },
    {
      "midi": 71,
      "hit": false,
      "t": 198529.1999999996,
      "d": 804.2270833333314,
      "v": 102
    },
    {
      "midi": 72,
      "hit": false,
      "t": 199411.5519999996,
      "d": 1507.3513333333249,
      "v": 102
    },
    {
      "midi": 64,
      "hit": false,
      "t": 199411.5519999996,
      "d": 1636.0276666666614,
      "v": 102
    },
    {
      "midi": 67,
      "hit": false,
      "t": 199411.5519999996,
      "d": 1640.6232500000042,
      "v": 102
    },
    {
      "midi": 60,
      "hit": false,
      "t": 201176.2559999996,
      "d": 1659.0055833333172,
      "v": 102
    },
    {
      "midi": 69,
      "hit": false,
      "t": 201176.2559999996,
      "d": 1659.0055833333172,
      "v": 102
    },
    {
      "midi": 67,
      "hit": false,
      "t": 201176.2559999996,
      "d": 1681.983499999973,
      "v": 102
    },
    {
      "midi": 64,
      "hit": false,
      "t": 201176.2559999996,
      "d": 1686.5790833333158,
      "v": 102
    },
    {
      "midi": 60,
      "hit": false,
      "t": 202940.95999999956,
      "d": 597.4258333333128,
      "v": 106
    },
    {
      "midi": 67,
      "hit": false,
      "t": 203823.31199999954,
      "d": 579.0434999999998,
      "v": 106
    },
    {
      "midi": 72,
      "hit": false,
      "t": 204705.66399999955,
      "d": 652.5728333333391,
      "v": 103
    },
    {
      "midi": 76,
      "hit": false,
      "t": 205588.01599999957,
      "d": 496.32300000000396,
      "v": 102
    },
    {
      "midi": 62,
      "hit": false,
      "t": 206295.7358333329,
      "d": 1842.82891666668,
      "v": 50
    },
    {
      "midi": 67,
      "hit": false,
      "t": 206378.4563333329,
      "d": 955.8813333333237,
      "v": 74
    },
    {
      "midi": 69,
      "hit": false,
      "t": 206424.41216666624,
      "d": 1727.9393333333428,
      "v": 86
    },
    {
      "midi": 74,
      "hit": false,
      "t": 206470.36799999958,
      "d": 1663.60116666666,
      "v": 102
    },
    {
      "midi": 66,
      "hit": false,
      "t": 207352.71999999956,
      "d": 836.3961666666728,
      "v": 97
    },
    {
      "midi": 67,
      "hit": false,
      "t": 208235.07199999958,
      "d": 1089.153250000003,
      "v": 102
    },
    {
      "midi": 62,
      "hit": false,
      "t": 209338.01199999958,
      "d": 248.16149999998743,
      "v": 82
    },
    {
      "midi": 67,
      "hit": false,
      "t": 209558.59999999957,
      "d": 215.99241666667513,
      "v": 90
    },
    {
      "midi": 74,
      "hit": false,
      "t": 209779.1879999996,
      "d": 202.20566666667582,
      "v": 95
    },
    {
      "midi": 72,
      "hit": false,
      "t": 209999.7759999996,
      "d": 110.29399999999441,
      "v": 96
    },
    {
      "midi": 64,
      "hit": false,
      "t": 209999.7759999996,
      "d": 3446.687499999971,
      "v": 96
    },
    {
      "midi": 67,
      "hit": false,
      "t": 209999.7759999996,
      "d": 3451.2830833333137,
      "v": 96
    },
    {
      "midi": 72,
      "hit": false,
      "t": 210220.3639999996,
      "d": 206.80124999998952,
      "v": 98
    },
    {
      "midi": 76,
      "hit": false,
      "t": 210440.95199999958,
      "d": 220.58799999998882,
      "v": 102
    },
    {
      "midi": 81,
      "hit": false,
      "t": 210661.53999999957,
      "d": 2752.754416666663,
      "v": 102
    },
    {
      "midi": 72,
      "hit": false,
      "t": 211764.47999999957,
      "d": 712.3154166666791,
      "v": 90
    },
    {
      "midi": 76,
      "hit": false,
      "t": 211764.47999999957,
      "d": 818.0138333333598,
      "v": 90
    },
    {
      "midi": 76,
      "hit": false,
      "t": 212646.8319999996,
      "d": 615.8081666666549,
      "v": 92
    },
    {
      "midi": 79,
      "hit": false,
      "t": 212646.8319999996,
      "d": 652.57283333331,
      "v": 92
    },
    {
      "midi": 76,
      "hit": false,
      "t": 213418.88999999958,
      "d": 1796.8730833333102,
      "v": 76
    },
    {
      "midi": 79,
      "hit": false,
      "t": 213474.03699999957,
      "d": 1727.9393333333137,
      "v": 87
    },
    {
      "midi": 84,
      "hit": false,
      "t": 213529.18399999957,
      "d": 1649.8144166666607,
      "v": 93
    },
    {
      "midi": 62,
      "hit": false,
      "t": 216916.12891666623,
      "d": 6897.970583333314,
      "v": 68
    },
    {
      "midi": 69,
      "hit": false,
      "t": 216975.87149999957,
      "d": 6847.41916666663,
      "v": 78
    },
    {
      "midi": 71,
      "hit": false,
      "t": 217053.99641666622,
      "d": 6732.529583333351,
      "v": 71
    },
    {
      "midi": 55,
      "hit": false,
      "t": 217053.99641666622,
      "d": 6741.720750000008,
      "v": 78
    },
    {
      "midi": 43,
      "hit": false,
      "t": 217053.99641666622,
      "d": 6750.911916666664,
      "v": 90
    }
  ]
}