{
  "jsonPath": "World/Bhangra/Bally Sagoo/sajna-kahe-bhool-gaye.json",
  "path": "World\\Bhangra\\Bally Sagoo\\Sajna Kahe Bhool Gaye.mid",
  "name": "Sajna Kahe Bhool Gaye",
  "difficulty": "Advanced",
  "bpm": 105.000105000105,
  "notes": [
    {
      "midi": 47,
      "hit": false,
      "t": 4571.424000000001,
      "d": 119.04749999999967,
      "v": 104
    },
    {
      "midi": 66,
      "hit": false,
      "t": 4571.424000000001,
      "d": 127.9760624999999,
      "v": 90
    },
    {
      "midi": 75,
      "hit": false,
      "t": 4571.424000000001,
      "d": 139.8808124999996,
      "v": 100
    },
    {
      "midi": 71,
      "hit": false,
      "t": 4571.424000000001,
      "d": 160.7141249999995,
      "v": 103
    },
    {
      "midi": 47,
      "hit": false,
      "t": 4857.138000000001,
      "d": 145.83318750000035,
      "v": 100
    },
    {
      "midi": 66,
      "hit": false,
      "t": 4857.138000000001,
      "d": 169.64268750000065,
      "v": 88
    },
    {
      "midi": 75,
      "hit": false,
      "t": 4857.138000000001,
      "d": 172.61887500000103,
      "v": 84
    },
    {
      "midi": 71,
      "hit": false,
      "t": 4857.138000000001,
      "d": 214.28550000000087,
      "v": 81
    },
    {
      "midi": 47,
      "hit": false,
      "t": 5142.852000000002,
      "d": 145.83318750000035,
      "v": 105
    },
    {
      "midi": 66,
      "hit": false,
      "t": 5142.852000000002,
      "d": 178.57124999999996,
      "v": 85
    },
    {
      "midi": 73,
      "hit": false,
      "t": 5142.852000000002,
      "d": 184.5236249999998,
      "v": 96
    },
    {
      "midi": 70,
      "hit": false,
      "t": 5142.852000000002,
      "d": 196.4283749999995,
      "v": 88
    },
    {
      "midi": 66,
      "hit": false,
      "t": 5428.566000000002,
      "d": 181.54743750000034,
      "v": 83
    },
    {
      "midi": 47,
      "hit": false,
      "t": 5428.566000000002,
      "d": 190.47600000000057,
      "v": 103
    },
    {
      "midi": 75,
      "hit": false,
      "t": 5428.566000000002,
      "d": 196.42837500000041,
      "v": 92
    },
    {
      "midi": 71,
      "hit": false,
      "t": 5428.566000000002,
      "d": 220.2378750000007,
      "v": 93
    },
    {
      "midi": 47,
      "hit": false,
      "t": 5999.994000000002,
      "d": 190.47599999999966,
      "v": 98
    },
    {
      "midi": 66,
      "hit": false,
      "t": 5999.994000000002,
      "d": 211.30931249999958,
      "v": 93
    },
    {
      "midi": 73,
      "hit": false,
      "t": 5999.994000000002,
      "d": 214.28549999999996,
      "v": 99
    },
    {
      "midi": 70,
      "hit": false,
      "t": 5999.994000000002,
      "d": 244.0473750000001,
      "v": 100
    },
    {
      "midi": 47,
      "hit": false,
      "t": 6571.422000000002,
      "d": 205.35693749999973,
      "v": 85
    },
    {
      "midi": 71,
      "hit": false,
      "t": 6571.422000000002,
      "d": 217.26168749999943,
      "v": 100
    },
    {
      "midi": 75,
      "hit": false,
      "t": 6571.422000000002,
      "d": 220.2378749999998,
      "v": 96
    },
    {
      "midi": 66,
      "hit": false,
      "t": 6571.422000000002,
      "d": 247.02356249999957,
      "v": 88
    },
    {
      "midi": 47,
      "hit": false,
      "t": 7142.850000000002,
      "d": 181.54743750000034,
      "v": 100
    },
    {
      "midi": 66,
      "hit": false,
      "t": 7142.850000000002,
      "d": 199.4045625000008,
      "v": 92
    },
    {
      "midi": 73,
      "hit": false,
      "t": 7142.850000000002,
      "d": 208.33312500000102,
      "v": 105
    },
    {
      "midi": 70,
      "hit": false,
      "t": 7142.850000000002,
      "d": 220.2378750000007,
      "v": 102
    },
    {
      "midi": 47,
      "hit": false,
      "t": 7714.278000000003,
      "d": 151.7855625000002,
      "v": 102
    },
    {
      "midi": 75,
      "hit": false,
      "t": 7714.278000000003,
      "d": 172.61887500000012,
      "v": 92
    },
    {
      "midi": 66,
      "hit": false,
      "t": 7714.278000000003,
      "d": 178.57124999999996,
      "v": 85
    },
    {
      "midi": 71,
      "hit": false,
      "t": 7714.278000000003,
      "d": 205.35693749999973,
      "v": 92
    },
    {
      "midi": 66,
      "hit": false,
      "t": 7999.992000000003,
      "d": 1005.9513749999996,
      "v": 106
    },
    {
      "midi": 47,
      "hit": false,
      "t": 7999.992000000003,
      "d": 1008.9275625,
      "v": 107
    },
    {
      "midi": 75,
      "hit": false,
      "t": 7999.992000000003,
      "d": 1053.5703750000002,
      "v": 95
    },
    {
      "midi": 71,
      "hit": false,
      "t": 7999.992000000003,
      "d": 1062.4989374999996,
      "v": 99
    },
    {
      "midi": 47,
      "hit": false,
      "t": 9142.848000000002,
      "d": 116.0713125000002,
      "v": 103
    },
    {
      "midi": 66,
      "hit": false,
      "t": 9142.848000000002,
      "d": 119.04750000000058,
      "v": 95
    },
    {
      "midi": 75,
      "hit": false,
      "t": 9142.848000000002,
      "d": 172.61887500000012,
      "v": 92
    },
    {
      "midi": 71,
      "hit": false,
      "t": 9142.848000000002,
      "d": 196.4283749999995,
      "v": 96
    },
    {
      "midi": 47,
      "hit": false,
      "t": 9428.562000000002,
      "d": 101.19037500000013,
      "v": 102
    },
    {
      "midi": 66,
      "hit": false,
      "t": 9428.562000000002,
      "d": 113.09512499999983,
      "v": 86
    },
    {
      "midi": 71,
      "hit": false,
      "t": 9428.562000000002,
      "d": 119.04750000000058,
      "v": 80
    },
    {
      "midi": 75,
      "hit": false,
      "t": 9428.562000000002,
      "d": 119.04750000000058,
      "v": 84
    },
    {
      "midi": 66,
      "hit": false,
      "t": 9714.276000000002,
      "d": 154.76174999999967,
      "v": 85
    },
    {
      "midi": 47,
      "hit": false,
      "t": 9714.276000000002,
      "d": 157.73793750000004,
      "v": 99
    },
    {
      "midi": 73,
      "hit": false,
      "t": 9714.276000000002,
      "d": 157.73793750000004,
      "v": 102
    },
    {
      "midi": 70,
      "hit": false,
      "t": 9714.276000000002,
      "d": 190.47600000000057,
      "v": 87
    },
    {
      "midi": 47,
      "hit": false,
      "t": 9999.990000000002,
      "d": 178.57125000000087,
      "v": 101
    },
    {
      "midi": 75,
      "hit": false,
      "t": 9999.990000000002,
      "d": 184.52362500000163,
      "v": 103
    },
    {
      "midi": 66,
      "hit": false,
      "t": 9999.990000000002,
      "d": 193.45218750000095,
      "v": 86
    },
    {
      "midi": 71,
      "hit": false,
      "t": 9999.990000000002,
      "d": 220.2378750000007,
      "v": 90
    },
    {
      "midi": 47,
      "hit": false,
      "t": 10571.418000000001,
      "d": 145.83318750000035,
      "v": 97
    },
    {
      "midi": 66,
      "hit": false,
      "t": 10571.418000000001,
      "d": 172.61887500000012,
      "v": 83
    },
    {
      "midi": 70,
      "hit": false,
      "t": 10571.418000000001,
      "d": 187.4998125000002,
      "v": 99
    },
    {
      "midi": 73,
      "hit": false,
      "t": 10571.418000000001,
      "d": 199.40456249999988,
      "v": 96
    },
    {
      "midi": 75,
      "hit": false,
      "t": 11142.846000000001,
      "d": 1976.1885000000002,
      "v": 101
    },
    {
      "midi": 71,
      "hit": false,
      "t": 11142.846000000001,
      "d": 2020.8313125000004,
      "v": 103
    },
    {
      "midi": 66,
      "hit": false,
      "t": 11142.846000000001,
      "d": 2119.0455,
      "v": 88
    },
    {
      "midi": 47,
      "hit": false,
      "t": 11142.846000000001,
      "d": 2458.3308749999997,
      "v": 102
    },
    {
      "midi": 47,
      "hit": false,
      "t": 13714.272,
      "d": 1979.1646875000006,
      "v": 93
    },
    {
      "midi": 58,
      "hit": false,
      "t": 13714.272,
      "d": 2127.9740625000013,
      "v": 88
    },
    {
      "midi": 66,
      "hit": false,
      "t": 13714.272,
      "d": 2127.9740625000013,
      "v": 92
    },
    {
      "midi": 63,
      "hit": false,
      "t": 13714.272,
      "d": 4499.9955000000045,
      "v": 84
    },
    {
      "midi": 51,
      "hit": false,
      "t": 15714.270000000002,
      "d": 258.9283125000002,
      "v": 67
    },
    {
      "midi": 59,
      "hit": false,
      "t": 15999.984000000002,
      "d": 2190.474000000004,
      "v": 92
    },
    {
      "midi": 66,
      "hit": false,
      "t": 15999.984000000002,
      "d": 2244.0453750000033,
      "v": 88
    },
    {
      "midi": 44,
      "hit": false,
      "t": 15999.984000000002,
      "d": 2291.6643750000057,
      "v": 100
    },
    {
      "midi": 61,
      "hit": false,
      "t": 18285.696000000007,
      "d": 3148.806375,
      "v": 96
    },
    {
      "midi": 66,
      "hit": false,
      "t": 18285.696000000007,
      "d": 3199.4015624999993,
      "v": 86
    },
    {
      "midi": 51,
      "hit": false,
      "t": 18285.696000000007,
      "d": 4556.543062500001,
      "v": 95
    },
    {
      "midi": 70,
      "hit": false,
      "t": 19714.266000000007,
      "d": 1699.4030625000014,
      "v": 87
    },
    {
      "midi": 39,
      "hit": false,
      "t": 20571.408000000007,
      "d": 1270.8320625000015,
      "v": 64
    },
    {
      "midi": 73,
      "hit": false,
      "t": 21428.550000000007,
      "d": 98.21418750000157,
      "v": 75
    },
    {
      "midi": 70,
      "hit": false,
      "t": 21571.407000000007,
      "d": 77.38087499999892,
      "v": 82
    },
    {
      "midi": 66,
      "hit": false,
      "t": 21571.407000000007,
      "d": 110.11893749999945,
      "v": 82
    },
    {
      "midi": 61,
      "hit": false,
      "t": 21714.264000000006,
      "d": 148.80937500000073,
      "v": 73
    },
    {
      "midi": 44,
      "hit": false,
      "t": 22857.120000000006,
      "d": 1119.0465000000004,
      "v": 91
    },
    {
      "midi": 66,
      "hit": false,
      "t": 22857.120000000006,
      "d": 1145.8321875000001,
      "v": 91
    },
    {
      "midi": 63,
      "hit": false,
      "t": 22857.120000000006,
      "d": 1160.7131249999984,
      "v": 90
    },
    {
      "midi": 59,
      "hit": false,
      "t": 22857.120000000006,
      "d": 1184.5226249999978,
      "v": 82
    },
    {
      "midi": 61,
      "hit": false,
      "t": 23999.976000000006,
      "d": 1110.1179374999992,
      "v": 92
    },
    {
      "midi": 65,
      "hit": false,
      "t": 23999.976000000006,
      "d": 1145.8321875000001,
      "v": 86
    },
    {
      "midi": 49,
      "hit": false,
      "t": 23999.976000000006,
      "d": 1154.7607500000013,
      "v": 99
    },
    {
      "midi": 58,
      "hit": false,
      "t": 25142.832000000006,
      "d": 937.4990625000028,
      "v": 87
    },
    {
      "midi": 61,
      "hit": false,
      "t": 25142.832000000006,
      "d": 988.0942500000019,
      "v": 82
    },
    {
      "midi": 66,
      "hit": false,
      "t": 25142.832000000006,
      "d": 1023.8085000000028,
      "v": 85
    },
    {
      "midi": 42,
      "hit": false,
      "t": 25142.832000000006,
      "d": 1074.403687500002,
      "v": 98
    },
    {
      "midi": 59,
      "hit": false,
      "t": 26285.68800000001,
      "d": 1107.1417500000025,
      "v": 90
    },
    {
      "midi": 63,
      "hit": false,
      "t": 26285.68800000001,
      "d": 1357.1415000000052,
      "v": 87
    },
    {
      "midi": 66,
      "hit": false,
      "t": 26285.68800000001,
      "d": 1357.1415000000052,
      "v": 82
    },
    {
      "midi": 47,
      "hit": false,
      "t": 26285.68800000001,
      "d": 1845.2362500000054,
      "v": 92
    },
    {
      "midi": 58,
      "hit": false,
      "t": 27714.258000000016,
      "d": 431.54718749999665,
      "v": 100
    },
    {
      "midi": 66,
      "hit": false,
      "t": 27714.258000000016,
      "d": 461.3090624999968,
      "v": 85
    },
    {
      "midi": 61,
      "hit": false,
      "t": 27714.258000000016,
      "d": 473.2138124999983,
      "v": 98
    },
    {
      "midi": 63,
      "hit": false,
      "t": 28285.686000000016,
      "d": 2139.878812499999,
      "v": 92
    },
    {
      "midi": 59,
      "hit": false,
      "t": 28285.686000000016,
      "d": 2142.8549999999996,
      "v": 99
    },
    {
      "midi": 47,
      "hit": false,
      "t": 28285.686000000016,
      "d": 2145.8311875,
      "v": 100
    },
    {
      "midi": 66,
      "hit": false,
      "t": 28285.686000000016,
      "d": 2163.6883124999986,
      "v": 91
    },
    {
      "midi": 70,
      "hit": false,
      "t": 30857.112000000016,
      "d": 1443.450937499998,
      "v": 92
    },
    {
      "midi": 66,
      "hit": false,
      "t": 30857.112000000016,
      "d": 2044.6408124999944,
      "v": 96
    },
    {
      "midi": 63,
      "hit": false,
      "t": 30857.112000000016,
      "d": 2113.093124999992,
      "v": 87
    },
    {
      "midi": 47,
      "hit": false,
      "t": 30857.112000000016,
      "d": 2208.3311249999897,
      "v": 92
    },
    {
      "midi": 73,
      "hit": false,
      "t": 32285.682000000015,
      "d": 782.7373124999867,
      "v": 96
    },
    {
      "midi": 66,
      "hit": false,
      "t": 33142.824,
      "d": 1416.6652499999982,
      "v": 92
    },
    {
      "midi": 63,
      "hit": false,
      "t": 33142.824,
      "d": 1446.427125000002,
      "v": 84
    },
    {
      "midi": 59,
      "hit": false,
      "t": 33142.824,
      "d": 1806.5458125000005,
      "v": 88
    },
    {
      "midi": 44,
      "hit": false,
      "t": 33142.824,
      "d": 2160.712124999998,
      "v": 94
    },
    {
      "midi": 56,
      "hit": false,
      "t": 34285.68,
      "d": 529.7613750000019,
      "v": 78
    },
    {
      "midi": 70,
      "hit": false,
      "t": 34571.394,
      "d": 351.190125000001,
      "v": 82
    },
    {
      "midi": 68,
      "hit": false,
      "t": 34857.108,
      "d": 499.9994999999981,
      "v": 97
    },
    {
      "midi": 66,
      "hit": false,
      "t": 35428.536,
      "d": 880.9515000000029,
      "v": 89
    },
    {
      "midi": 70,
      "hit": false,
      "t": 35428.536,
      "d": 1553.569875000001,
      "v": 80
    },
    {
      "midi": 39,
      "hit": false,
      "t": 35428.536,
      "d": 3999.995999999999,
      "v": 89
    },
    {
      "midi": 61,
      "hit": false,
      "t": 36285.678,
      "d": 613.0946249999979,
      "v": 77
    },
    {
      "midi": 63,
      "hit": false,
      "t": 36857.106,
      "d": 65.47612500000105,
      "v": 72
    },
    {
      "midi": 82,
      "hit": false,
      "t": 37714.248,
      "d": 148.80937500000437,
      "v": 77
    },
    {
      "midi": 73,
      "hit": false,
      "t": 37857.105,
      "d": 119.04750000000058,
      "v": 69
    },
    {
      "midi": 70,
      "hit": false,
      "t": 38142.819,
      "d": 95.23799999999756,
      "v": 80
    },
    {
      "midi": 44,
      "hit": false,
      "t": 39999.96,
      "d": 1148.8083750000005,
      "v": 94
    },
    {
      "midi": 66,
      "hit": false,
      "t": 39999.96,
      "d": 1160.713125000002,
      "v": 96
    },
    {
      "midi": 63,
      "hit": false,
      "t": 39999.96,
      "d": 1175.5940625000003,
      "v": 89
    },
    {
      "midi": 59,
      "hit": false,
      "t": 39999.96,
      "d": 1187.4988125000018,
      "v": 80
    },
    {
      "midi": 65,
      "hit": false,
      "t": 41142.816,
      "d": 1071.4275000000052,
      "v": 82
    },
    {
      "midi": 49,
      "hit": false,
      "t": 41142.816,
      "d": 1107.1417500000025,
      "v": 96
    },
    {
      "midi": 61,
      "hit": false,
      "t": 41142.816,
      "d": 2133.9264374999984,
      "v": 92
    },
    {
      "midi": 42,
      "hit": false,
      "t": 42285.672,
      "d": 1142.8559999999998,
      "v": 127
    },
    {
      "midi": 70,
      "hit": false,
      "t": 42285.672,
      "d": 1184.5226249999978,
      "v": 87
    },
    {
      "midi": 66,
      "hit": false,
      "t": 42285.672,
      "d": 4577.376375,
      "v": 79
    },
    {
      "midi": 47,
      "hit": false,
      "t": 43428.528,
      "d": 2008.926562499997,
      "v": 88
    },
    {
      "midi": 59,
      "hit": false,
      "t": 43428.528,
      "d": 2133.9264374999984,
      "v": 78
    },
    {
      "midi": 63,
      "hit": false,
      "t": 43428.528,
      "d": 3464.2822499999966,
      "v": 77
    },
    {
      "midi": 51,
      "hit": false,
      "t": 45428.526,
      "d": 235.11881249999715,
      "v": 65
    },
    {
      "midi": 44,
      "hit": false,
      "t": 45714.24,
      "d": 1116.0703125,
      "v": 99
    },
    {
      "midi": 59,
      "hit": false,
      "t": 45714.24,
      "d": 1175.5940625000003,
      "v": 88
    },
    {
      "midi": 65,
      "hit": false,
      "t": 46857.096,
      "d": 1142.8559999999998,
      "v": 79
    },
    {
      "midi": 49,
      "hit": false,
      "t": 46857.096,
      "d": 1151.7845624999973,
      "v": 95
    },
    {
      "midi": 61,
      "hit": false,
      "t": 46857.096,
      "d": 2261.9024999999965,
      "v": 90
    },
    {
      "midi": 58,
      "hit": false,
      "t": 47999.952,
      "d": 1020.8323124999952,
      "v": 84
    },
    {
      "midi": 42,
      "hit": false,
      "t": 47999.952,
      "d": 1122.0226874999935,
      "v": 96
    },
    {
      "midi": 66,
      "hit": false,
      "t": 47999.952,
      "d": 2494.0451249999896,
      "v": 82
    },
    {
      "midi": 59,
      "hit": false,
      "t": 49142.80799999999,
      "d": 1110.1179374999992,
      "v": 88
    },
    {
      "midi": 47,
      "hit": false,
      "t": 49142.80799999999,
      "d": 1309.5224999999991,
      "v": 96
    },
    {
      "midi": 63,
      "hit": false,
      "t": 49142.80799999999,
      "d": 1383.9271874999977,
      "v": 82
    },
    {
      "midi": 47,
      "hit": false,
      "t": 50571.37799999999,
      "d": 434.52337499999703,
      "v": 90
    },
    {
      "midi": 58,
      "hit": false,
      "t": 50571.37799999999,
      "d": 449.4043124999953,
      "v": 100
    },
    {
      "midi": 61,
      "hit": false,
      "t": 50571.37799999999,
      "d": 467.26143749999756,
      "v": 101
    },
    {
      "midi": 66,
      "hit": false,
      "t": 50571.37799999999,
      "d": 508.9280624999956,
      "v": 62
    },
    {
      "midi": 66,
      "hit": false,
      "t": 51142.80599999998,
      "d": 1110.1179375000065,
      "v": 92
    },
    {
      "midi": 63,
      "hit": false,
      "t": 51142.80599999998,
      "d": 1738.09350000001,
      "v": 92
    },
    {
      "midi": 59,
      "hit": false,
      "t": 51142.80599999998,
      "d": 2113.093125000014,
      "v": 100
    },
    {
      "midi": 47,
      "hit": false,
      "t": 51142.80599999998,
      "d": 2508.9260625000097,
      "v": 114
    },
    {
      "midi": 71,
      "hit": false,
      "t": 52285.66199999999,
      "d": 601.1898750000037,
      "v": 107
    },
    {
      "midi": 66,
      "hit": false,
      "t": 52857.08999999999,
      "d": 321.4282500000045,
      "v": 89
    },
    {
      "midi": 63,
      "hit": false,
      "t": 53142.804,
      "d": 116.07131249999657,
      "v": 80
    },
    {
      "midi": 52,
      "hit": false,
      "t": 53714.23199999999,
      "d": 1961.3075625000056,
      "v": 85
    },
    {
      "midi": 62,
      "hit": false,
      "t": 53714.23199999999,
      "d": 3065.473125000004,
      "v": 95
    },
    {
      "midi": 66,
      "hit": false,
      "t": 53714.23199999999,
      "d": 3083.3302500000063,
      "v": 96
    },
    {
      "midi": 59,
      "hit": false,
      "t": 55142.80199999999,
      "d": 1595.2365000000063,
      "v": 101
    },
    {
      "midi": 40,
      "hit": false,
      "t": 55714.229999999996,
      "d": 2622.0211875000095,
      "v": 102
    },
    {
      "midi": 62,
      "hit": false,
      "t": 56857.085999999996,
      "d": 1395.8319375000065,
      "v": 94
    },
    {
      "midi": 66,
      "hit": false,
      "t": 56857.085999999996,
      "d": 3580.353562500015,
      "v": 82
    },
    {
      "midi": 59,
      "hit": false,
      "t": 57428.513999999996,
      "d": 693.4516875000045,
      "v": 50
    },
    {
      "midi": 45,
      "hit": false,
      "t": 58285.656,
      "d": 1955.3551875000048,
      "v": 99
    },
    {
      "midi": 57,
      "hit": false,
      "t": 58285.656,
      "d": 2098.2121875000084,
      "v": 94
    },
    {
      "midi": 60,
      "hit": false,
      "t": 58285.656,
      "d": 2223.21206250001,
      "v": 93
    },
    {
      "midi": 47,
      "hit": false,
      "t": 60285.65400000001,
      "d": 184.52362500000163,
      "v": 72
    },
    {
      "midi": 68,
      "hit": false,
      "t": 60571.36800000001,
      "d": 1428.5699999999997,
      "v": 88
    },
    {
      "midi": 40,
      "hit": false,
      "t": 60571.36800000001,
      "d": 1741.0696874999994,
      "v": 96
    },
    {
      "midi": 59,
      "hit": false,
      "t": 60571.36800000001,
      "d": 1809.5219999999972,
      "v": 83
    },
    {
      "midi": 64,
      "hit": false,
      "t": 60571.36800000001,
      "d": 2217.2596874999945,
      "v": 82
    },
    {
      "midi": 71,
      "hit": false,
      "t": 61999.93800000001,
      "d": 321.4282499999972,
      "v": 93
    },
    {
      "midi": 68,
      "hit": false,
      "t": 62285.65200000001,
      "d": 526.7851874999906,
      "v": 92
    },
    {
      "midi": 59,
      "hit": false,
      "t": 62571.36600000001,
      "d": 220.23787499999162,
      "v": 75
    },
    {
      "midi": 44,
      "hit": false,
      "t": 62857.08,
      "d": 1086.3084375000035,
      "v": 105
    },
    {
      "midi": 59,
      "hit": false,
      "t": 62857.08,
      "d": 1261.9035000000003,
      "v": 90
    },
    {
      "midi": 63,
      "hit": false,
      "t": 62857.08,
      "d": 2145.8311875,
      "v": 84
    },
    {
      "midi": 66,
      "hit": false,
      "t": 62857.08,
      "d": 2220.2358749999985,
      "v": 92
    },
    {
      "midi": 44,
      "hit": false,
      "t": 64142.793000000005,
      "d": 556.5470624999944,
      "v": 92
    },
    {
      "midi": 59,
      "hit": false,
      "t": 64285.65000000001,
      "d": 383.92818749999424,
      "v": 80
    },
    {
      "midi": 56,
      "hit": false,
      "t": 64571.36400000001,
      "d": 68.45231249999779,
      "v": 87
    },
    {
      "midi": 59,
      "hit": false,
      "t": 64857.078,
      "d": 208.33312499999738,
      "v": 64
    },
    {
      "midi": 40,
      "hit": false,
      "t": 65142.792,
      "d": 952.3800000000047,
      "v": 111
    },
    {
      "midi": 59,
      "hit": false,
      "t": 65142.792,
      "d": 1035.7132500000153,
      "v": 96
    },
    {
      "midi": 68,
      "hit": false,
      "t": 65142.792,
      "d": 1080.35606250001,
      "v": 92
    },
    {
      "midi": 64,
      "hit": false,
      "t": 65142.792,
      "d": 1095.2370000000083,
      "v": 96
    },
    {
      "midi": 47,
      "hit": false,
      "t": 66142.79100000001,
      "d": 104.16656250000233,
      "v": 29
    },
    {
      "midi": 61,
      "hit": false,
      "t": 66285.64800000002,
      "d": 1068.451312499994,
      "v": 94
    },
    {
      "midi": 66,
      "hit": false,
      "t": 66285.64800000002,
      "d": 1068.451312499994,
      "v": 86
    },
    {
      "midi": 70,
      "hit": false,
      "t": 66285.64800000002,
      "d": 1089.2846250000002,
      "v": 94
    },
    {
      "midi": 42,
      "hit": false,
      "t": 66285.64800000002,
      "d": 1104.1655624999985,
      "v": 114
    },
    {
      "midi": 71,
      "hit": false,
      "t": 67428.50400000002,
      "d": 842.2610624999943,
      "v": 92
    },
    {
      "midi": 63,
      "hit": false,
      "t": 67428.50400000002,
      "d": 883.9276874999923,
      "v": 86
    },
    {
      "midi": 66,
      "hit": false,
      "t": 67428.50400000002,
      "d": 898.8086249999906,
      "v": 82
    },
    {
      "midi": 47,
      "hit": false,
      "t": 67428.50400000002,
      "d": 2270.8310625000013,
      "v": 104
    },
    {
      "midi": 59,
      "hit": false,
      "t": 68285.64600000001,
      "d": 937.4990625000064,
      "v": 108
    },
    {
      "midi": 63,
      "hit": false,
      "t": 68857.07400000001,
      "d": 389.88056250000955,
      "v": 105
    },
    {
      "midi": 66,
      "hit": false,
      "t": 69142.78800000002,
      "d": 517.8566250000003,
      "v": 111
    },
    {
      "midi": 46,
      "hit": false,
      "t": 69714.21600000001,
      "d": 1145.8321874999965,
      "v": 99
    },
    {
      "midi": 68,
      "hit": false,
      "t": 69714.21600000001,
      "d": 1151.78456249999,
      "v": 87
    },
    {
      "midi": 64,
      "hit": false,
      "t": 69714.21600000001,
      "d": 1166.6654999999882,
      "v": 103
    },
    {
      "midi": 58,
      "hit": false,
      "t": 69714.21600000001,
      "d": 2175.5930624999746,
      "v": 92
    },
    {
      "midi": 63,
      "hit": false,
      "t": 70857.07200000001,
      "d": 1026.7846874999814,
      "v": 78
    },
    {
      "midi": 67,
      "hit": false,
      "t": 70857.07200000001,
      "d": 1041.6656249999796,
      "v": 90
    },
    {
      "midi": 51,
      "hit": false,
      "t": 70857.07200000001,
      "d": 1095.2369999999792,
      "v": 93
    },
    {
      "midi": 52,
      "hit": false,
      "t": 71999.928,
      "d": 2229.1644374999887,
      "v": 105
    },
    {
      "midi": 66,
      "hit": false,
      "t": 71999.928,
      "d": 2538.6879374999844,
      "v": 86
    },
    {
      "midi": 62,
      "hit": false,
      "t": 71999.928,
      "d": 2952.3779999999824,
      "v": 88
    },
    {
      "midi": 71,
      "hit": false,
      "t": 72857.06999999999,
      "d": 3604.1630624999816,
      "v": 101
    },
    {
      "midi": 40,
      "hit": false,
      "t": 74285.63999999998,
      "d": 1854.164812499992,
      "v": 91
    },
    {
      "midi": 59,
      "hit": false,
      "t": 74571.35399999998,
      "d": 678.570749999999,
      "v": 78
    },
    {
      "midi": 62,
      "hit": false,
      "t": 75142.78199999998,
      "d": 1062.4989375000005,
      "v": 96
    },
    {
      "midi": 66,
      "hit": false,
      "t": 75142.78199999998,
      "d": 2538.687937499999,
      "v": 105
    },
    {
      "midi": 59,
      "hit": false,
      "t": 75571.35299999997,
      "d": 636.9041250000009,
      "v": 72
    },
    {
      "midi": 64,
      "hit": false,
      "t": 76571.35199999997,
      "d": 1044.6418125000055,
      "v": 98
    },
    {
      "midi": 69,
      "hit": false,
      "t": 76571.35199999997,
      "d": 1089.2846250000002,
      "v": 95
    },
    {
      "midi": 60,
      "hit": false,
      "t": 76571.35199999997,
      "d": 1116.0703125,
      "v": 107
    },
    {
      "midi": 40,
      "hit": false,
      "t": 76571.35199999997,
      "d": 2166.6645000000135,
      "v": 105
    },
    {
      "midi": 60,
      "hit": false,
      "t": 77999.92199999998,
      "d": 520.8328124999971,
      "v": 100
    },
    {
      "midi": 66,
      "hit": false,
      "t": 77999.92199999998,
      "d": 547.6184999999969,
      "v": 101
    },
    {
      "midi": 57,
      "hit": false,
      "t": 77999.92199999998,
      "d": 571.4279999999999,
      "v": 94
    },
    {
      "midi": 68,
      "hit": false,
      "t": 78857.06399999998,
      "d": 833.3324999999895,
      "v": 100
    },
    {
      "midi": 59,
      "hit": false,
      "t": 78857.06399999998,
      "d": 1449.4033124999987,
      "v": 92
    },
    {
      "midi": 40,
      "hit": false,
      "t": 78857.06399999998,
      "d": 1619.0459999999875,
      "v": 107
    },
    {
      "midi": 64,
      "hit": false,
      "t": 78857.06399999998,
      "d": 2154.759749999983,
      "v": 106
    },
    {
      "midi": 71,
      "hit": false,
      "t": 79714.20599999998,
      "d": 610.1184375000012,
      "v": 98
    },
    {
      "midi": 68,
      "hit": false,
      "t": 80285.63399999998,
      "d": 809.522999999972,
      "v": 95
    },
    {
      "midi": 59,
      "hit": false,
      "t": 80571.34799999997,
      "d": 517.8566249999858,
      "v": 82
    },
    {
      "midi": 44,
      "hit": false,
      "t": 81142.77599999995,
      "d": 812.4991874999978,
      "v": 105
    },
    {
      "midi": 66,
      "hit": false,
      "t": 81142.77599999995,
      "d": 1401.7843124999927,
      "v": 91
    },
    {
      "midi": 59,
      "hit": false,
      "t": 81142.77599999995,
      "d": 2157.735937499994,
      "v": 92
    },
    {
      "midi": 63,
      "hit": false,
      "t": 81142.77599999995,
      "d": 2178.569249999986,
      "v": 86
    },
    {
      "midi": 56,
      "hit": false,
      "t": 81999.91799999995,
      "d": 898.8086250000051,
      "v": 110
    },
    {
      "midi": 71,
      "hit": false,
      "t": 82571.34599999995,
      "d": 773.8087499999965,
      "v": 98
    },
    {
      "midi": 44,
      "hit": false,
      "t": 82857.05999999995,
      "d": 68.45231249999779,
      "v": 87
    },
    {
      "midi": 66,
      "hit": false,
      "t": 83142.77399999995,
      "d": 282.7378124999959,
      "v": 81
    },
    {
      "midi": 59,
      "hit": false,
      "t": 83428.48799999994,
      "d": 1020.8323125000024,
      "v": 104
    },
    {
      "midi": 64,
      "hit": false,
      "t": 83428.48799999994,
      "d": 1086.3084375000035,
      "v": 104
    },
    {
      "midi": 68,
      "hit": false,
      "t": 83428.48799999994,
      "d": 1092.260812499997,
      "v": 100
    },
    {
      "midi": 40,
      "hit": false,
      "t": 83428.48799999994,
      "d": 1157.736937499998,
      "v": 118
    },
    {
      "midi": 52,
      "hit": false,
      "t": 83999.91599999994,
      "d": 544.6423125000001,
      "v": 95
    },
    {
      "midi": 61,
      "hit": false,
      "t": 84571.34399999994,
      "d": 1041.6656249999942,
      "v": 101
    },
    {
      "midi": 70,
      "hit": false,
      "t": 84571.34399999994,
      "d": 1044.641812499991,
      "v": 95
    },
    {
      "midi": 66,
      "hit": false,
      "t": 84571.34399999994,
      "d": 1053.5703749999957,
      "v": 83
    },
    {
      "midi": 42,
      "hit": false,
      "t": 84571.34399999994,
      "d": 1107.1417499999952,
      "v": 104
    },
    {
      "midi": 63,
      "hit": false,
      "t": 85714.19999999994,
      "d": 794.6420624999882,
      "v": 89
    },
    {
      "midi": 66,
      "hit": false,
      "t": 85714.19999999994,
      "d": 833.3324999999895,
      "v": 96
    },
    {
      "midi": 47,
      "hit": false,
      "t": 85714.19999999994,
      "d": 2124.9978749999864,
      "v": 116
    },
    {
      "midi": 71,
      "hit": false,
      "t": 85714.19999999994,
      "d": 2133.926437499991,
      "v": 99
    },
    {
      "midi": 64,
      "hit": false,
      "t": 86571.34199999993,
      "d": 407.73768750000454,
      "v": 103
    },
    {
      "midi": 59,
      "hit": false,
      "t": 86571.34199999993,
      "d": 1261.9035000000003,
      "v": 111
    },
    {
      "midi": 63,
      "hit": false,
      "t": 87142.76999999993,
      "d": 755.9516250000015,
      "v": 97
    },
    {
      "midi": 66,
      "hit": false,
      "t": 87142.76999999993,
      "d": 761.903999999995,
      "v": 101
    },
    {
      "midi": 63,
      "hit": false,
      "t": 87999.91199999992,
      "d": 2047.6169999999984,
      "v": 95
    },
    {
      "midi": 61,
      "hit": false,
      "t": 87999.91199999992,
      "d": 2068.4503125000047,
      "v": 100
    },
    {
      "midi": 66,
      "hit": false,
      "t": 87999.91199999992,
      "d": 2068.4503125000047,
      "v": 102
    },
    {
      "midi": 39,
      "hit": false,
      "t": 88142.76899999993,
      "d": 1282.736812499992,
      "v": 99
    },
    {
      "midi": 51,
      "hit": false,
      "t": 89428.48199999992,
      "d": 830.3563125000073,
      "v": 100
    },
    {
      "midi": 44,
      "hit": false,
      "t": 90285.62399999992,
      "d": 1068.451312499994,
      "v": 100
    },
    {
      "midi": 59,
      "hit": false,
      "t": 90285.62399999992,
      "d": 1208.3321250000008,
      "v": 92
    },
    {
      "midi": 63,
      "hit": false,
      "t": 90285.62399999992,
      "d": 1249.9987499999988,
      "v": 92
    },
    {
      "midi": 66,
      "hit": false,
      "t": 90285.62399999992,
      "d": 1279.7606249999953,
      "v": 96
    },
    {
      "midi": 56,
      "hit": false,
      "t": 91428.47999999992,
      "d": 517.8566249999858,
      "v": 92
    },
    {
      "midi": 71,
      "hit": false,
      "t": 91714.19399999992,
      "d": 702.3802499999729,
      "v": 99
    },
    {
      "midi": 63,
      "hit": false,
      "t": 91714.19399999992,
      "d": 788.6896874999657,
      "v": 92
    },
    {
      "midi": 66,
      "hit": false,
      "t": 91714.19399999992,
      "d": 839.2848749999685,
      "v": 102
    },
    {
      "midi": 44,
      "hit": false,
      "t": 91999.90799999991,
      "d": 56.547562499996275,
      "v": 80
    },
    {
      "midi": 59,
      "hit": false,
      "t": 92285.6219999999,
      "d": 130.95224999998754,
      "v": 45
    },
    {
      "midi": 59,
      "hit": false,
      "t": 92571.33599999988,
      "d": 2169.6406874999957,
      "v": 97
    },
    {
      "midi": 68,
      "hit": false,
      "t": 92571.33599999988,
      "d": 2178.5692500000005,
      "v": 95
    },
    {
      "midi": 64,
      "hit": false,
      "t": 92571.33599999988,
      "d": 2190.474000000002,
      "v": 104
    },
    {
      "midi": 49,
      "hit": false,
      "t": 92571.33599999988,
      "d": 2211.3073125000083,
      "v": 104
    },
    {
      "midi": 67,
      "hit": false,
      "t": 94857.0479999999,
      "d": 3952.376999999993,
      "v": 98
    },
    {
      "midi": 64,
      "hit": false,
      "t": 94857.0479999999,
      "d": 3997.019812499988,
      "v": 93
    },
    {
      "midi": 47,
      "hit": false,
      "t": 94857.0479999999,
      "d": 4035.710249999989,
      "v": 106
    },
    {
      "midi": 59,
      "hit": false,
      "t": 94857.0479999999,
      "d": 4047.6149999999907,
      "v": 96
    },
    {
      "midi": 62,
      "hit": false,
      "t": 94857.0479999999,
      "d": 4047.6149999999907,
      "v": 92
    },
    {
      "midi": 66,
      "hit": false,
      "t": 99428.47199999988,
      "d": 2172.6168749999924,
      "v": 99
    },
    {
      "midi": 47,
      "hit": false,
      "t": 99428.47199999988,
      "d": 2214.2834999999905,
      "v": 102
    },
    {
      "midi": 58,
      "hit": false,
      "t": 99428.47199999988,
      "d": 2223.212062499995,
      "v": 102
    },
    {
      "midi": 63,
      "hit": false,
      "t": 99428.47199999988,
      "d": 2244.0453750000015,
      "v": 92
    },
    {
      "midi": 44,
      "hit": false,
      "t": 101714.18399999988,
      "d": 1059.5227500000037,
      "v": 97
    },
    {
      "midi": 59,
      "hit": false,
      "t": 101714.18399999988,
      "d": 1211.3083124999976,
      "v": 88
    },
    {
      "midi": 66,
      "hit": false,
      "t": 101714.18399999988,
      "d": 1300.5939375000016,
      "v": 85
    },
    {
      "midi": 63,
      "hit": false,
      "t": 101714.18399999988,
      "d": 1303.5701249999984,
      "v": 74
    },
    {
      "midi": 56,
      "hit": false,
      "t": 102857.03999999988,
      "d": 514.8804374999891,
      "v": 80
    },
    {
      "midi": 71,
      "hit": false,
      "t": 103142.75399999987,
      "d": 404.76149999999325,
      "v": 96
    },
    {
      "midi": 63,
      "hit": false,
      "t": 103142.75399999987,
      "d": 806.5468124999898,
      "v": 97
    },
    {
      "midi": 66,
      "hit": false,
      "t": 103428.46799999986,
      "d": 1880.9504999999917,
      "v": 83
    },
    {
      "midi": 61,
      "hit": false,
      "t": 103999.89599999986,
      "d": 1184.5226249999978,
      "v": 92
    },
    {
      "midi": 70,
      "hit": false,
      "t": 103999.89599999986,
      "d": 1309.5224999999919,
      "v": 83
    },
    {
      "midi": 39,
      "hit": false,
      "t": 103999.89599999986,
      "d": 4086.3054374999774,
      "v": 91
    },
    {
      "midi": 82,
      "hit": false,
      "t": 105999.89399999985,
      "d": 119.04750000000058,
      "v": 113
    },
    {
      "midi": 78,
      "hit": false,
      "t": 106142.75099999986,
      "d": 122.02368749999732,
      "v": 92
    },
    {
      "midi": 80,
      "hit": false,
      "t": 106285.60799999986,
      "d": 71.42849999999453,
      "v": 91
    },
    {
      "midi": 73,
      "hit": false,
      "t": 106428.46499999985,
      "d": 89.28562500000407,
      "v": 74
    },
    {
      "midi": 70,
      "hit": false,
      "t": 106571.32199999985,
      "d": 86.30943749999278,
      "v": 92
    },
    {
      "midi": 66,
      "hit": false,
      "t": 106714.17899999984,
      "d": 1842.260062500005,
      "v": 88
    },
    {
      "midi": 63,
      "hit": false,
      "t": 107714.17799999984,
      "d": 764.8801875000063,
      "v": 56
    },
    {
      "midi": 44,
      "hit": false,
      "t": 108571.31999999985,
      "d": 1068.451312499994,
      "v": 103
    },
    {
      "midi": 59,
      "hit": false,
      "t": 108571.31999999985,
      "d": 1113.0941249999887,
      "v": 86
    },
    {
      "midi": 63,
      "hit": false,
      "t": 108571.31999999985,
      "d": 1127.975062499987,
      "v": 82
    },
    {
      "midi": 61,
      "hit": false,
      "t": 109714.17599999983,
      "d": 1098.213187500005,
      "v": 89
    },
    {
      "midi": 65,
      "hit": false,
      "t": 109714.17599999983,
      "d": 1107.1417500000098,
      "v": 92
    },
    {
      "midi": 49,
      "hit": false,
      "t": 109714.17599999983,
      "d": 1175.5940625000076,
      "v": 97
    },
    {
      "midi": 61,
      "hit": false,
      "t": 110857.03199999985,
      "d": 1014.8799374999944,
      "v": 88
    },
    {
      "midi": 70,
      "hit": false,
      "t": 110857.03199999985,
      "d": 1026.784687499996,
      "v": 88
    },
    {
      "midi": 66,
      "hit": false,
      "t": 110857.03199999985,
      "d": 1050.594187499999,
      "v": 97
    },
    {
      "midi": 42,
      "hit": false,
      "t": 110857.03199999985,
      "d": 1071.4275000000052,
      "v": 99
    },
    {
      "midi": 66,
      "hit": false,
      "t": 111999.88799999985,
      "d": 830.3563125000073,
      "v": 79
    },
    {
      "midi": 63,
      "hit": false,
      "t": 111999.88799999985,
      "d": 863.0943750000006,
      "v": 87
    },
    {
      "midi": 71,
      "hit": false,
      "t": 111999.88799999985,
      "d": 1407.7366875000007,
      "v": 91
    },
    {
      "midi": 47,
      "hit": false,
      "t": 111999.88799999985,
      "d": 2211.307312500023,
      "v": 101
    },
    {
      "midi": 59,
      "hit": false,
      "t": 112857.02999999985,
      "d": 1363.0938750000205,
      "v": 98
    },
    {
      "midi": 63,
      "hit": false,
      "t": 113428.45799999985,
      "d": 836.3086875000154,
      "v": 112
    },
    {
      "midi": 64,
      "hit": false,
      "t": 113714.17199999986,
      "d": 318.452062500015,
      "v": 103
    },
    {
      "midi": 66,
      "hit": false,
      "t": 113999.88599999987,
      "d": 208.33312500000466,
      "v": 93
    },
    {
      "midi": 44,
      "hit": false,
      "t": 114285.59999999987,
      "d": 505.95187499999884,
      "v": 107
    },
    {
      "midi": 59,
      "hit": false,
      "t": 114285.59999999987,
      "d": 985.1180624999979,
      "v": 75
    },
    {
      "midi": 68,
      "hit": false,
      "t": 114285.59999999987,
      "d": 1020.8323124999879,
      "v": 99
    },
    {
      "midi": 63,
      "hit": false,
      "t": 114285.59999999987,
      "d": 1059.5227499999892,
      "v": 78
    },
    {
      "midi": 56,
      "hit": false,
      "t": 114857.02799999987,
      "d": 461.3090624999895,
      "v": 78
    },
    {
      "midi": 65,
      "hit": false,
      "t": 115428.45599999986,
      "d": 1029.7608750000072,
      "v": 92
    },
    {
      "midi": 61,
      "hit": false,
      "t": 115428.45599999986,
      "d": 1062.4989375000005,
      "v": 91
    },
    {
      "midi": 49,
      "hit": false,
      "t": 115428.45599999986,
      "d": 1113.0941250000033,
      "v": 108
    },
    {
      "midi": 68,
      "hit": false,
      "t": 115428.45599999986,
      "d": 1113.0941250000033,
      "v": 90
    },
    {
      "midi": 61,
      "hit": false,
      "t": 116571.31199999986,
      "d": 937.4990625000064,
      "v": 92
    },
    {
      "midi": 70,
      "hit": false,
      "t": 116571.31199999986,
      "d": 1071.4275000000052,
      "v": 96
    },
    {
      "midi": 54,
      "hit": false,
      "t": 116571.31199999986,
      "d": 1101.1893750000017,
      "v": 110
    },
    {
      "midi": 66,
      "hit": false,
      "t": 116571.31199999986,
      "d": 2377.973812500015,
      "v": 96
    },
    {
      "midi": 63,
      "hit": false,
      "t": 117714.16799999986,
      "d": 1122.022687500008,
      "v": 91
    },
    {
      "midi": 71,
      "hit": false,
      "t": 117714.16799999986,
      "d": 1199.4035625000106,
      "v": 99
    },
    {
      "midi": 47,
      "hit": false,
      "t": 117714.16799999986,
      "d": 1238.0940000000119,
      "v": 108
    },
    {
      "midi": 47,
      "hit": false,
      "t": 119142.73799999987,
      "d": 357.14250000000175,
      "v": 112
    },
    {
      "midi": 61,
      "hit": false,
      "t": 119142.73799999987,
      "d": 398.80912499999977,
      "v": 94
    },
    {
      "midi": 70,
      "hit": false,
      "t": 119142.73799999987,
      "d": 443.45193749999453,
      "v": 113
    },
    {
      "midi": 66,
      "hit": false,
      "t": 119142.73799999987,
      "d": 479.16618749999907,
      "v": 105
    },
    {
      "midi": 71,
      "hit": false,
      "t": 119714.16599999987,
      "d": 1758.9268124999944,
      "v": 104
    },
    {
      "midi": 63,
      "hit": false,
      "t": 119714.16599999987,
      "d": 2327.3786249999976,
      "v": 101
    },
    {
      "midi": 66,
      "hit": false,
      "t": 119714.16599999987,
      "d": 2508.9260625000024,
      "v": 107
    },
    {
      "midi": 47,
      "hit": false,
      "t": 119714.16599999987,
      "d": 2574.4021875000035,
      "v": 114
    },
    {
      "midi": 70,
      "hit": false,
      "t": 121428.44999999987,
      "d": 431.547187499993,
      "v": 109
    },
    {
      "midi": 71,
      "hit": false,
      "t": 121857.02099999986,
      "d": 392.8567500000063,
      "v": 88
    },
    {
      "midi": 62,
      "hit": false,
      "t": 122285.59199999987,
      "d": 2937.4970624999987,
      "v": 96
    },
    {
      "midi": 68,
      "hit": false,
      "t": 122285.59199999987,
      "d": 3089.2826249999925,
      "v": 96
    },
    {
      "midi": 52,
      "hit": false,
      "t": 122285.59199999987,
      "d": 3092.2588124999893,
      "v": 110
    },
    {
      "midi": 66,
      "hit": false,
      "t": 125428.44599999987,
      "d": 574.4041874999966,
      "v": 96
    },
    {
      "midi": 62,
      "hit": false,
      "t": 125428.44599999987,
      "d": 1455.3556874999922,
      "v": 100
    },
    {
      "midi": 40,
      "hit": false,
      "t": 125428.44599999987,
      "d": 3675.591562499976,
      "v": 104
    },
    {
      "midi": 71,
      "hit": false,
      "t": 125999.87399999987,
      "d": 666.6659999999974,
      "v": 103
    },
    {
      "midi": 64,
      "hit": false,
      "t": 126857.01599999986,
      "d": 1491.0699374999967,
      "v": 93
    },
    {
      "midi": 66,
      "hit": false,
      "t": 126857.01599999986,
      "d": 2157.7359374999796,
      "v": 86
    },
    {
      "midi": 60,
      "hit": false,
      "t": 127714.15799999985,
      "d": 1336.3081874999916,
      "v": 94
    },
    {
      "midi": 57,
      "hit": false,
      "t": 128285.58599999985,
      "d": 613.0946249999979,
      "v": 76
    },
    {
      "midi": 68,
      "hit": false,
      "t": 129142.72799999984,
      "d": 1494.046125000008,
      "v": 83
    },
    {
      "midi": 64,
      "hit": false,
      "t": 129142.72799999984,
      "d": 1970.2361250000104,
      "v": 85
    },
    {
      "midi": 52,
      "hit": false,
      "t": 129142.72799999984,
      "d": 2241.069187500005,
      "v": 98
    },
    {
      "midi": 59,
      "hit": false,
      "t": 129142.72799999984,
      "d": 3580.3535625000222,
      "v": 90
    },
    {
      "midi": 40,
      "hit": false,
      "t": 130571.29799999985,
      "d": 270.8330624999944,
      "v": 102
    },
    {
      "midi": 71,
      "hit": false,
      "t": 130571.29799999985,
      "d": 541.6661250000034,
      "v": 92
    },
    {
      "midi": 44,
      "hit": false,
      "t": 131428.43999999986,
      "d": 1547.6175000000221,
      "v": 99
    },
    {
      "midi": 66,
      "hit": false,
      "t": 131428.43999999986,
      "d": 1586.3079375000088,
      "v": 103
    },
    {
      "midi": 63,
      "hit": false,
      "t": 131428.43999999986,
      "d": 2190.4739999999874,
      "v": 92
    },
    {
      "midi": 56,
      "hit": false,
      "t": 132571.29599999986,
      "d": 535.7137499999953,
      "v": 82
    },
    {
      "midi": 59,
      "hit": false,
      "t": 132857.00999999986,
      "d": 770.8325624999707,
      "v": 82
    },
    {
      "midi": 59,
      "hit": false,
      "t": 133714.15199999983,
      "d": 1023.8085000000137,
      "v": 92
    },
    {
      "midi": 68,
      "hit": false,
      "t": 133714.15199999983,
      "d": 1107.1417500000098,
      "v": 84
    },
    {
      "midi": 64,
      "hit": false,
      "t": 133714.15199999983,
      "d": 1116.0703125,
      "v": 94
    },
    {
      "midi": 40,
      "hit": false,
      "t": 133714.15199999983,
      "d": 1145.8321874999965,
      "v": 103
    },
    {
      "midi": 61,
      "hit": false,
      "t": 134857.00799999983,
      "d": 1008.9275625000009,
      "v": 92
    },
    {
      "midi": 66,
      "hit": false,
      "t": 134857.00799999983,
      "d": 1029.7608750000072,
      "v": 90
    },
    {
      "midi": 70,
      "hit": false,
      "t": 134857.00799999983,
      "d": 1041.6656249999942,
      "v": 96
    },
    {
      "midi": 42,
      "hit": false,
      "t": 134857.00799999983,
      "d": 1065.4751249999972,
      "v": 100
    },
    {
      "midi": 66,
      "hit": false,
      "t": 135999.86399999983,
      "d": 845.2372500000056,
      "v": 83
    },
    {
      "midi": 71,
      "hit": false,
      "t": 135999.86399999983,
      "d": 869.0467499999795,
      "v": 92
    },
    {
      "midi": 63,
      "hit": false,
      "t": 135999.86399999983,
      "d": 964.2847499999916,
      "v": 87
    },
    {
      "midi": 47,
      "hit": false,
      "t": 135999.86399999983,
      "d": 2249.9977499999804,
      "v": 103
    },
    {
      "midi": 59,
      "hit": false,
      "t": 136857.00599999982,
      "d": 1148.8083749999932,
      "v": 101
    },
    {
      "midi": 63,
      "hit": false,
      "t": 137428.4339999998,
      "d": 675.5945625000168,
      "v": 103
    },
    {
      "midi": 64,
      "hit": false,
      "t": 137714.1479999998,
      "d": 380.9520000000193,
      "v": 95
    },
    {
      "midi": 66,
      "hit": false,
      "t": 137999.86199999982,
      "d": 238.09500000000116,
      "v": 84
    },
    {
      "midi": 68,
      "hit": false,
      "t": 138285.5759999998,
      "d": 1122.0226875000226,
      "v": 88
    },
    {
      "midi": 46,
      "hit": false,
      "t": 138285.5759999998,
      "d": 1148.8083750000224,
      "v": 100
    },
    {
      "midi": 64,
      "hit": false,
      "t": 138285.5759999998,
      "d": 1172.6178750000254,
      "v": 96
    },
    {
      "midi": 58,
      "hit": false,
      "t": 138857.0039999998,
      "d": 470.23762500000885,
      "v": 59
    },
    {
      "midi": 58,
      "hit": false,
      "t": 139428.43199999983,
      "d": 1035.7132500000007,
      "v": 83
    },
    {
      "midi": 67,
      "hit": false,
      "t": 139428.43199999983,
      "d": 1044.641812499991,
      "v": 88
    },
    {
      "midi": 63,
      "hit": false,
      "t": 139428.43199999983,
      "d": 1086.3084375000035,
      "v": 77
    },
    {
      "midi": 51,
      "hit": false,
      "t": 139428.43199999983,
      "d": 1089.2846250000002,
      "v": 103
    },
    {
      "midi": 62,
      "hit": false,
      "t": 140571.28799999983,
      "d": 1830.3553125000035,
      "v": 84
    },
    {
      "midi": 66,
      "hit": false,
      "t": 140571.28799999983,
      "d": 1863.0933749999967,
      "v": 89
    },
    {
      "midi": 52,
      "hit": false,
      "t": 140571.28799999983,
      "d": 4508.92406249998,
      "v": 108
    },
    {
      "midi": 40,
      "hit": false,
      "t": 141428.42999999982,
      "d": 3220.2348749999946,
      "v": 96
    },
    {
      "midi": 71,
      "hit": false,
      "t": 141999.85799999983,
      "d": 446.4281249999767,
      "v": 90
    },
    {
      "midi": 83,
      "hit": false,
      "t": 143142.7139999998,
      "d": 145.8331874999858,
      "v": 103
    },
    {
      "midi": 78,
      "hit": false,
      "t": 143285.5709999998,
      "d": 119.04749999998603,
      "v": 82
    },
    {
      "midi": 74,
      "hit": false,
      "t": 143428.42799999978,
      "d": 83.33324999999604,
      "v": 90
    },
    {
      "midi": 71,
      "hit": false,
      "t": 143999.85599999977,
      "d": 586.3089375000272,
      "v": 73
    },
    {
      "midi": 66,
      "hit": false,
      "t": 144571.28399999978,
      "d": 62.49993750001886,
      "v": 85
    },
    {
      "midi": 60,
      "hit": false,
      "t": 145142.7119999998,
      "d": 1297.617750000005,
      "v": 82
    },
    {
      "midi": 64,
      "hit": false,
      "t": 145142.7119999998,
      "d": 1315.4748750000144,
      "v": 97
    },
    {
      "midi": 66,
      "hit": false,
      "t": 145142.7119999998,
      "d": 1413.6890625000233,
      "v": 90
    },
    {
      "midi": 40,
      "hit": false,
      "t": 145142.7119999998,
      "d": 2247.021562500042,
      "v": 99
    },
    {
      "midi": 64,
      "hit": false,
      "t": 146571.28199999983,
      "d": 747.0230624999967,
      "v": 100
    },
    {
      "midi": 60,
      "hit": false,
      "t": 146571.28199999983,
      "d": 764.8801875000063,
      "v": 101
    },
    {
      "midi": 69,
      "hit": false,
      "t": 146571.28199999983,
      "d": 782.7373125000158,
      "v": 92
    },
    {
      "midi": 68,
      "hit": false,
      "t": 147428.42399999982,
      "d": 869.0467499999795,
      "v": 91
    },
    {
      "midi": 59,
      "hit": false,
      "t": 147428.42399999982,
      "d": 1497.0223124999902,
      "v": 98
    },
    {
      "midi": 64,
      "hit": false,
      "t": 147428.42399999982,
      "d": 1851.1886249999807,
      "v": 101
    },
    {
      "midi": 52,
      "hit": false,
      "t": 147428.42399999982,
      "d": 2235.1168124999967,
      "v": 98
    },
    {
      "midi": 71,
      "hit": false,
      "t": 148285.56599999982,
      "d": 1071.4274999999907,
      "v": 107
    },
    {
      "midi": 68,
      "hit": false,
      "t": 148856.9939999998,
      "d": 791.665875000006,
      "v": 107
    },
    {
      "midi": 44,
      "hit": false,
      "t": 149714.13599999982,
      "d": 1086.3084375000035,
      "v": 110
    },
    {
      "midi": 63,
      "hit": false,
      "t": 149714.13599999982,
      "d": 1238.0939999999828,
      "v": 94
    },
    {
      "midi": 71,
      "hit": false,
      "t": 149714.13599999982,
      "d": 1410.7128749999683,
      "v": 95
    },
    {
      "midi": 66,
      "hit": false,
      "t": 149714.13599999982,
      "d": 2220.235874999984,
      "v": 103
    },
    {
      "midi": 56,
      "hit": false,
      "t": 150856.99199999982,
      "d": 514.8804374999891,
      "v": 100
    },
    {
      "midi": 73,
      "hit": false,
      "t": 151142.7059999998,
      "d": 458.3328750000219,
      "v": 92
    },
    {
      "midi": 63,
      "hit": false,
      "t": 151142.7059999998,
      "d": 601.1898750000109,
      "v": 91
    },
    {
      "midi": 71,
      "hit": false,
      "t": 151571.27699999983,
      "d": 285.7139999999781,
      "v": 81
    },
    {
      "midi": 47,
      "hit": false,
      "t": 151856.9909999998,
      "d": 98.21418750000885,
      "v": 54
    },
    {
      "midi": 68,
      "hit": false,
      "t": 151999.84799999982,
      "d": 1095.2370000000228,
      "v": 101
    },
    {
      "midi": 71,
      "hit": false,
      "t": 151999.84799999982,
      "d": 1098.2131875000196,
      "v": 95
    },
    {
      "midi": 40,
      "hit": false,
      "t": 151999.84799999982,
      "d": 1217.2606875000347,
      "v": 118
    },
    {
      "midi": 66,
      "hit": false,
      "t": 151999.84799999982,
      "d": 3666.663000000088,
      "v": 89
    },
    {
      "midi": 52,
      "hit": false,
      "t": 152571.27599999984,
      "d": 529.7613750000019,
      "v": 91
    },
    {
      "midi": 61,
      "hit": false,
      "t": 153142.70399999985,
      "d": 782.7373125000158,
      "v": 108
    },
    {
      "midi": 70,
      "hit": false,
      "t": 153142.70399999985,
      "d": 1011.9037500000268,
      "v": 88
    },
    {
      "midi": 42,
      "hit": false,
      "t": 153285.56099999987,
      "d": 1029.7608750000072,
      "v": 104
    },
    {
      "midi": 71,
      "hit": false,
      "t": 154285.55999999988,
      "d": 809.5230000000156,
      "v": 90
    },
    {
      "midi": 47,
      "hit": false,
      "t": 154285.55999999988,
      "d": 1764.879187500046,
      "v": 110
    },
    {
      "midi": 63,
      "hit": false,
      "t": 154285.55999999988,
      "d": 1806.5458125000587,
      "v": 92
    },
    {
      "midi": 75,
      "hit": false,
      "t": 155142.7019999999,
      "d": 479.16618749999907,
      "v": 99
    },
    {
      "midi": 73,
      "hit": false,
      "t": 155714.12999999992,
      "d": 336.30918750001,
      "v": 75
    },
    {
      "midi": 71,
      "hit": false,
      "t": 155999.84399999992,
      "d": 476.1900000000023,
      "v": 81
    },
    {
      "midi": 41,
      "hit": false,
      "t": 156571.27199999994,
      "d": 122.02368750001187,
      "v": 95
    },
    {
      "midi": 39,
      "hit": false,
      "t": 156571.27199999994,
      "d": 818.4515625000058,
      "v": 94
    },
    {
      "midi": 70,
      "hit": false,
      "t": 156571.27199999994,
      "d": 1267.8558750000084,
      "v": 96
    },
    {
      "midi": 73,
      "hit": false,
      "t": 156571.27199999994,
      "d": 1967.259937499999,
      "v": 92
    },
    {
      "midi": 66,
      "hit": false,
      "t": 157428.41399999993,
      "d": 761.9040000000095,
      "v": 94
    },
    {
      "midi": 51,
      "hit": false,
      "t": 157428.41399999993,
      "d": 1404.760500000004,
      "v": 107
    },
    {
      "midi": 70,
      "hit": false,
      "t": 157999.84199999995,
      "d": 678.5707499999844,
      "v": 85
    },
    {
      "midi": 66,
      "hit": false,
      "t": 158571.26999999993,
      "d": 211.3093125000014,
      "v": 56
    },
    {
      "midi": 66,
      "hit": false,
      "t": 158856.98399999994,
      "d": 711.3088125000068,
      "v": 89
    },
    {
      "midi": 71,
      "hit": false,
      "t": 158856.98399999994,
      "d": 752.9754375000193,
      "v": 96
    },
    {
      "midi": 75,
      "hit": false,
      "t": 158856.98399999994,
      "d": 788.6896875000093,
      "v": 87
    },
    {
      "midi": 44,
      "hit": false,
      "t": 158856.98399999994,
      "d": 925.594312500034,
      "v": 103
    },
    {
      "midi": 78,
      "hit": false,
      "t": 159714.12599999996,
      "d": 744.046875,
      "v": 90
    },
    {
      "midi": 71,
      "hit": false,
      "t": 159714.12599999996,
      "d": 922.618124999979,
      "v": 104
    },
    {
      "midi": 66,
      "hit": false,
      "t": 159714.12599999996,
      "d": 943.4514374999853,
      "v": 106
    },
    {
      "midi": 44,
      "hit": false,
      "t": 159999.83999999997,
      "d": 229.16643750001094,
      "v": 84
    },
    {
      "midi": 56,
      "hit": false,
      "t": 160285.55399999997,
      "d": 38.69043749998673,
      "v": 69
    },
    {
      "midi": 75,
      "hit": false,
      "t": 160571.26799999995,
      "d": 71.42849999997998,
      "v": 89
    },
    {
      "midi": 71,
      "hit": false,
      "t": 161142.69599999994,
      "d": 1041.6656250000233,
      "v": 96
    },
    {
      "midi": 68,
      "hit": false,
      "t": 161142.69599999994,
      "d": 1607.1412500000151,
      "v": 101
    },
    {
      "midi": 64,
      "hit": false,
      "t": 161142.69599999994,
      "d": 1809.5220000000263,
      "v": 93
    },
    {
      "midi": 49,
      "hit": false,
      "t": 161142.69599999994,
      "d": 2297.6167500000156,
      "v": 110
    },
    {
      "midi": 59,
      "hit": false,
      "t": 161999.83799999996,
      "d": 1363.0938750000205,
      "v": 81
    },
    {
      "midi": 59,
      "hit": false,
      "t": 163428.40799999997,
      "d": 1949.4028124999895,
      "v": 102
    },
    {
      "midi": 64,
      "hit": false,
      "t": 163428.40799999997,
      "d": 2014.878937499976,
      "v": 101
    },
    {
      "midi": 67,
      "hit": false,
      "t": 163428.40799999997,
      "d": 2038.688437499979,
      "v": 100
    },
    {
      "midi": 62,
      "hit": false,
      "t": 163428.40799999997,
      "d": 2086.307437499985,
      "v": 96
    },
    {
      "midi": 47,
      "hit": false,
      "t": 163428.40799999997,
      "d": 4360.114687499998,
      "v": 106
    },
    {
      "midi": 47,
      "hit": false,
      "t": 167999.83199999997,
      "d": 1717.2601874999818,
      "v": 95
    },
    {
      "midi": 58,
      "hit": false,
      "t": 167999.83199999997,
      "d": 1880.9504999999772,
      "v": 83
    },
    {
      "midi": 70,
      "hit": false,
      "t": 167999.83199999997,
      "d": 2098.212187499972,
      "v": 92
    },
    {
      "midi": 63,
      "hit": false,
      "t": 167999.83199999997,
      "d": 2163.6883124999586,
      "v": 76
    },
    {
      "midi": 66,
      "hit": false,
      "t": 168856.97399999996,
      "d": 1431.5461874999746,
      "v": 90
    },
    {
      "midi": 59,
      "hit": false,
      "t": 170285.54399999994,
      "d": 886.9038749999891,
      "v": 85
    },
    {
      "midi": 63,
      "hit": false,
      "t": 170285.54399999994,
      "d": 937.4990624999919,
      "v": 84
    },
    {
      "midi": 44,
      "hit": false,
      "t": 170285.54399999994,
      "d": 1380.951000000001,
      "v": 92
    },
    {
      "midi": 71,
      "hit": false,
      "t": 171142.68599999993,
      "d": 1244.0463750000054,
      "v": 95
    },
    {
      "midi": 56,
      "hit": false,
      "t": 171714.11399999994,
      "d": 127.97606250000536,
      "v": 60
    },
    {
      "midi": 66,
      "hit": false,
      "t": 171714.11399999994,
      "d": 818.4515625000058,
      "v": 75
    },
    {
      "midi": 63,
      "hit": false,
      "t": 171999.82799999995,
      "d": 297.6187499999942,
      "v": 63
    },
    {
      "midi": 46,
      "hit": false,
      "t": 172285.54199999996,
      "d": 151.78556249997928,
      "v": 39
    },
    {
      "midi": 66,
      "hit": false,
      "t": 172571.25599999994,
      "d": 1255.9511249999923,
      "v": 51
    },
    {
      "midi": 61,
      "hit": false,
      "t": 172571.25599999994,
      "d": 1830.3553125000035,
      "v": 69
    },
    {
      "midi": 39,
      "hit": false,
      "t": 172571.25599999994,
      "d": 1833.3315000000002,
      "v": 94
    },
    {
      "midi": 70,
      "hit": false,
      "t": 172571.25599999994,
      "d": 1925.5933124999865,
      "v": 80
    },
    {
      "midi": 51,
      "hit": false,
      "t": 173428.39799999993,
      "d": 1122.0226874999935,
      "v": 64
    },
    {
      "midi": 39,
      "hit": false,
      "t": 174571.25399999993,
      "d": 35.71424999998999,
      "v": 84
    },
    {
      "midi": 61,
      "hit": false,
      "t": 174571.25399999993,
      "d": 41.66662499998347,
      "v": 88
    },
    {
      "midi": 65,
      "hit": false,
      "t": 174571.25399999993,
      "d": 50.59518749997369,
      "v": 78
    },
    {
      "midi": 68,
      "hit": false,
      "t": 174571.25399999993,
      "d": 62.49993749996065,
      "v": 78
    },
    {
      "midi": 70,
      "hit": false,
      "t": 175142.68199999988,
      "d": 312.4996874999779,
      "v": 92
    },
    {
      "midi": 39,
      "hit": false,
      "t": 175142.68199999988,
      "d": 1071.4274999999907,
      "v": 90
    },
    {
      "midi": 61,
      "hit": false,
      "t": 175142.68199999988,
      "d": 1181.5464374999865,
      "v": 72
    },
    {
      "midi": 66,
      "hit": false,
      "t": 175142.68199999988,
      "d": 1473.2128124999872,
      "v": 85
    },
    {
      "midi": 73,
      "hit": false,
      "t": 175428.39599999986,
      "d": 291.6663750000007,
      "v": 92
    },
    {
      "midi": 70,
      "hit": false,
      "t": 175714.10999999987,
      "d": 913.6895624999888,
      "v": 92
    },
    {
      "midi": 51,
      "hit": false,
      "t": 176285.53799999988,
      "d": 886.90387499996,
      "v": 94
    },
    {
      "midi": 61,
      "hit": false,
      "t": 176571.25199999986,
      "d": 431.547187499993,
      "v": 38
    },
    {
      "midi": 59,
      "hit": false,
      "t": 177142.67999999985,
      "d": 970.2371249999851,
      "v": 90
    },
    {
      "midi": 44,
      "hit": false,
      "t": 177142.67999999985,
      "d": 1038.6894374999974,
      "v": 105
    },
    {
      "midi": 66,
      "hit": false,
      "t": 177142.67999999985,
      "d": 1077.3798749999842,
      "v": 81
    },
    {
      "midi": 63,
      "hit": false,
      "t": 177142.67999999985,
      "d": 1095.2369999999937,
      "v": 85
    },
    {
      "midi": 61,
      "hit": false,
      "t": 178285.53599999985,
      "d": 1047.6179999999877,
      "v": 88
    },
    {
      "midi": 65,
      "hit": false,
      "t": 178285.53599999985,
      "d": 1113.0941249999742,
      "v": 78
    },
    {
      "midi": 68,
      "hit": false,
      "t": 178285.53599999985,
      "d": 1133.9274374999804,
      "v": 74
    },
    {
      "midi": 49,
      "hit": false,
      "t": 178285.53599999985,
      "d": 1151.7845624999609,
      "v": 106
    },
    {
      "midi": 61,
      "hit": false,
      "t": 179428.39199999982,
      "d": 1020.8323124999879,
      "v": 97
    },
    {
      "midi": 66,
      "hit": false,
      "t": 179428.39199999982,
      "d": 1023.8084999999846,
      "v": 90
    },
    {
      "midi": 70,
      "hit": false,
      "t": 179428.39199999982,
      "d": 1035.7132499999716,
      "v": 87
    },
    {
      "midi": 42,
      "hit": false,
      "t": 179428.39199999982,
      "d": 1068.4513124999648,
      "v": 111
    },
    {
      "midi": 71,
      "hit": false,
      "t": 180571.2479999998,
      "d": 1383.9271875000268,
      "v": 89
    },
    {
      "midi": 66,
      "hit": false,
      "t": 180571.2479999998,
      "d": 1407.7366875000298,
      "v": 90
    },
    {
      "midi": 63,
      "hit": false,
      "t": 180571.2479999998,
      "d": 1425.5938125000393,
      "v": 78
    },
    {
      "midi": 47,
      "hit": false,
      "t": 180571.2479999998,
      "d": 2214.2835000000196,
      "v": 97
    },
    {
      "midi": 59,
      "hit": false,
      "t": 181999.81799999982,
      "d": 2014.8789375000342,
      "v": 121
    },
    {
      "midi": 63,
      "hit": false,
      "t": 182428.38899999982,
      "d": 1592.2603125000314,
      "v": 87
    },
    {
      "midi": 66,
      "hit": false,
      "t": 182856.95999999982,
      "d": 1053.5703750000102,
      "v": 88
    },
    {
      "midi": 44,
      "hit": false,
      "t": 182856.95999999982,
      "d": 1101.1893750000163,
      "v": 100
    },
    {
      "midi": 61,
      "hit": false,
      "t": 183999.81599999985,
      "d": 1053.5703750000102,
      "v": 97
    },
    {
      "midi": 65,
      "hit": false,
      "t": 183999.81599999985,
      "d": 1065.4751249999972,
      "v": 92
    },
    {
      "midi": 49,
      "hit": false,
      "t": 183999.81599999985,
      "d": 1098.2131874999905,
      "v": 103
    },
    {
      "midi": 58,
      "hit": false,
      "t": 185142.67199999985,
      "d": 895.8324375000084,
      "v": 97
    },
    {
      "midi": 66,
      "hit": false,
      "t": 185142.67199999985,
      "d": 1029.7608750000072,
      "v": 82
    },
    {
      "midi": 61,
      "hit": false,
      "t": 185142.67199999985,
      "d": 1038.6894374999974,
      "v": 95
    },
    {
      "midi": 42,
      "hit": false,
      "t": 185142.67199999985,
      "d": 1074.4036874999874,
      "v": 111
    },
    {
      "midi": 59,
      "hit": false,
      "t": 186285.52799999985,
      "d": 199.40456250001444,
      "v": 101
    },
    {
      "midi": 66,
      "hit": false,
      "t": 186285.52799999985,
      "d": 208.33312500000466,
      "v": 103
    },
    {
      "midi": 63,
      "hit": false,
      "t": 186285.52799999985,
      "d": 226.1902500000142,
      "v": 97
    },
    {
      "midi": 47,
      "hit": false,
      "t": 186285.52799999985,
      "d": 4514.876437499857,
      "v": 104
    },
    {
      "midi": 59,
      "hit": false,
      "t": 186571.24199999985,
      "d": 184.52362500000163,
      "v": 87
    },
    {
      "midi": 66,
      "hit": false,
      "t": 186571.24199999985,
      "d": 220.23787499999162,
      "v": 74
    },
    {
      "midi": 63,
      "hit": false,
      "t": 186571.24199999985,
      "d": 247.02356249999139,
      "v": 85
    },
    {
      "midi": 58,
      "hit": false,
      "t": 186856.95599999983,
      "d": 223.21406249998836,
      "v": 92
    },
    {
      "midi": 61,
      "hit": false,
      "t": 186856.95599999983,
      "d": 223.21406249998836,
      "v": 96
    },
    {
      "midi": 66,
      "hit": false,
      "t": 186856.95599999983,
      "d": 261.9044999999751,
      "v": 75
    },
    {
      "midi": 59,
      "hit": false,
      "t": 187142.6699999998,
      "d": 172.61887499998556,
      "v": 104
    },
    {
      "midi": 63,
      "hit": false,
      "t": 187142.6699999998,
      "d": 202.38074999998207,
      "v": 92
    },
    {
      "midi": 66,
      "hit": false,
      "t": 187142.6699999998,
      "d": 205.3569374999788,
      "v": 96
    },
    {
      "midi": 61,
      "hit": false,
      "t": 187714.0979999998,
      "d": 223.21406249998836,
      "v": 98
    },
    {
      "midi": 66,
      "hit": false,
      "t": 187714.0979999998,
      "d": 247.02356249999139,
      "v": 96
    },
    {
      "midi": 58,
      "hit": false,
      "t": 187714.0979999998,
      "d": 249.99974999998813,
      "v": 95
    },
    {
      "midi": 59,
      "hit": false,
      "t": 188285.52599999978,
      "d": 241.0711874999979,
      "v": 96
    },
    {
      "midi": 63,
      "hit": false,
      "t": 188285.52599999978,
      "d": 252.97593749998487,
      "v": 94
    },
    {
      "midi": 66,
      "hit": false,
      "t": 188285.52599999978,
      "d": 255.9521249999816,
      "v": 100
    },
    {
      "midi": 58,
      "hit": false,
      "t": 188856.95399999977,
      "d": 258.92831250000745,
      "v": 99
    },
    {
      "midi": 61,
      "hit": false,
      "t": 188856.95399999977,
      "d": 258.92831250000745,
      "v": 97
    },
    {
      "midi": 66,
      "hit": false,
      "t": 188856.95399999977,
      "d": 270.8330624999944,
      "v": 96
    },
    {
      "midi": 59,
      "hit": false,
      "t": 189428.38199999975,
      "d": 166.66649999999208,
      "v": 90
    },
    {
      "midi": 63,
      "hit": false,
      "t": 189428.38199999975,
      "d": 178.57124999997905,
      "v": 77
    },
    {
      "midi": 66,
      "hit": false,
      "t": 189428.38199999975,
      "d": 190.475999999966,
      "v": 90
    },
    {
      "midi": 59,
      "hit": false,
      "t": 189714.09599999973,
      "d": 1044.641812499991,
      "v": 98
    },
    {
      "midi": 63,
      "hit": false,
      "t": 189714.09599999973,
      "d": 1050.5941874999844,
      "v": 97
    },
    {
      "midi": 66,
      "hit": false,
      "t": 189714.09599999973,
      "d": 1053.5703749999811,
      "v": 99
    },
    {
      "midi": 61,
      "hit": false,
      "t": 190856.9519999997,
      "d": 1041.6656249999942,
      "v": 94
    },
    {
      "midi": 66,
      "hit": false,
      "t": 190856.9519999997,
      "d": 1041.6656249999942,
      "v": 92
    },
    {
      "midi": 44,
      "hit": false,
      "t": 190856.9519999997,
      "d": 1089.2846250000002,
      "v": 103
    },
    {
      "midi": 63,
      "hit": false,
      "t": 190856.9519999997,
      "d": 1101.1893749999872,
      "v": 84
    },
    {
      "midi": 61,
      "hit": false,
      "t": 191999.8079999997,
      "d": 1077.3798750000133,
      "v": 96
    },
    {
      "midi": 65,
      "hit": false,
      "t": 191999.8079999997,
      "d": 1092.260812500026,
      "v": 92
    },
    {
      "midi": 49,
      "hit": false,
      "t": 191999.8079999997,
      "d": 1148.8083750000224,
      "v": 107
    },
    {
      "midi": 58,
      "hit": false,
      "t": 193142.66399999973,
      "d": 970.2371249999851,
      "v": 92
    },
    {
      "midi": 61,
      "hit": false,
      "t": 193142.66399999973,
      "d": 1050.5941874999844,
      "v": 85
    },
    {
      "midi": 66,
      "hit": false,
      "t": 193142.66399999973,
      "d": 1065.4751249999972,
      "v": 83
    },
    {
      "midi": 42,
      "hit": false,
      "t": 193142.66399999973,
      "d": 1124.9988749999902,
      "v": 104
    },
    {
      "midi": 47,
      "hit": false,
      "t": 194285.51999999973,
      "d": 1794.6410625000135,
      "v": 105
    },
    {
      "midi": 59,
      "hit": false,
      "t": 194285.51999999973,
      "d": 2169.6406875000393,
      "v": 93
    },
    {
      "midi": 63,
      "hit": false,
      "t": 194285.51999999973,
      "d": 2193.4501875000424,
      "v": 89
    },
    {
      "midi": 66,
      "hit": false,
      "t": 194285.51999999973,
      "d": 2229.1644375000324,
      "v": 91
    },
    {
      "midi": 71,
      "hit": false,
      "t": 195142.66199999972,
      "d": 285.7140000000072,
      "v": 110
    },
    {
      "midi": 73,
      "hit": false,
      "t": 195714.08999999973,
      "d": 672.61837500002,
      "v": 98
    },
    {
      "midi": 59,
      "hit": false,
      "t": 196571.23199999976,
      "d": 1014.8799374999944,
      "v": 96
    },
    {
      "midi": 66,
      "hit": false,
      "t": 196571.23199999976,
      "d": 1151.78456249999,
      "v": 77
    },
    {
      "midi": 63,
      "hit": false,
      "t": 196571.23199999976,
      "d": 1154.7607499999867,
      "v": 78
    },
    {
      "midi": 61,
      "hit": false,
      "t": 197714.08799999976,
      "d": 1038.6894374999974,
      "v": 86
    },
    {
      "midi": 65,
      "hit": false,
      "t": 197714.08799999976,
      "d": 1092.260812499997,
      "v": 94
    },
    {
      "midi": 49,
      "hit": false,
      "t": 197714.08799999976,
      "d": 1110.1179375000065,
      "v": 94
    },
    {
      "midi": 66,
      "hit": false,
      "t": 198856.94399999976,
      "d": 407.73768749999,
      "v": 85
    },
    {
      "midi": 70,
      "hit": false,
      "t": 198856.94399999976,
      "d": 419.64243749997695,
      "v": 92
    },
    {
      "midi": 61,
      "hit": false,
      "t": 198856.94399999976,
      "d": 1077.3798749999842,
      "v": 87
    },
    {
      "midi": 42,
      "hit": false,
      "t": 198856.94399999976,
      "d": 1110.1179374999774,
      "v": 108
    },
    {
      "midi": 71,
      "hit": false,
      "t": 199285.51499999972,
      "d": 369.04725000000326,
      "v": 95
    },
    {
      "midi": 73,
      "hit": false,
      "t": 199571.22899999973,
      "d": 315.4758750000037,
      "v": 94
    },
    {
      "midi": 66,
      "hit": false,
      "t": 199999.79999999973,
      "d": 520.8328125000116,
      "v": 88
    },
    {
      "midi": 71,
      "hit": false,
      "t": 199999.79999999973,
      "d": 538.6899375000212,
      "v": 85
    },
    {
      "midi": 47,
      "hit": false,
      "t": 199999.79999999973,
      "d": 1288.6891875000147,
      "v": 106
    },
    {
      "midi": 63,
      "hit": false,
      "t": 200142.65699999972,
      "d": 229.16643750001094,
      "v": 57
    },
    {
      "midi": 61,
      "hit": false,
      "t": 200571.22799999974,
      "d": 187.49981249999837,
      "v": 89
    },
    {
      "midi": 70,
      "hit": false,
      "t": 200571.22799999974,
      "d": 264.88068750000093,
      "v": 89
    },
    {
      "midi": 66,
      "hit": false,
      "t": 200571.22799999974,
      "d": 505.95187499999884,
      "v": 72
    },
    {
      "midi": 63,
      "hit": false,
      "t": 200856.94199999975,
      "d": 110.11893749999581,
      "v": 94
    },
    {
      "midi": 71,
      "hit": false,
      "t": 200856.94199999975,
      "d": 166.66649999999208,
      "v": 94
    },
    {
      "midi": 61,
      "hit": false,
      "t": 201428.36999999973,
      "d": 208.33312500000466,
      "v": 93
    },
    {
      "midi": 66,
      "hit": false,
      "t": 201428.36999999973,
      "d": 276.785437500017,
      "v": 103
    },
    {
      "midi": 70,
      "hit": false,
      "t": 201428.36999999973,
      "d": 318.45206250002957,
      "v": 88
    },
    {
      "midi": 47,
      "hit": false,
      "t": 201428.36999999973,
      "d": 3044.6398125000414,
      "v": 107
    },
    {
      "midi": 66,
      "hit": false,
      "t": 201999.79799999978,
      "d": 220.23787499999162,
      "v": 92
    },
    {
      "midi": 71,
      "hit": false,
      "t": 201999.79799999978,
      "d": 247.02356249999139,
      "v": 95
    },
    {
      "midi": 63,
      "hit": false,
      "t": 201999.79799999978,
      "d": 252.97593749998487,
      "v": 92
    },
    {
      "midi": 61,
      "hit": false,
      "t": 202571.22599999976,
      "d": 226.1902500000142,
      "v": 94
    },
    {
      "midi": 66,
      "hit": false,
      "t": 202571.22599999976,
      "d": 264.88068750000093,
      "v": 103
    },
    {
      "midi": 70,
      "hit": false,
      "t": 202571.22599999976,
      "d": 288.69018750000396,
      "v": 92
    },
    {
      "midi": 63,
      "hit": false,
      "t": 203142.65399999978,
      "d": 190.4759999999951,
      "v": 92
    },
    {
      "midi": 71,
      "hit": false,
      "t": 203142.65399999978,
      "d": 196.4283749999886,
      "v": 79
    },
    {
      "midi": 66,
      "hit": false,
      "t": 203142.65399999978,
      "d": 217.26168749999488,
      "v": 87
    },
    {
      "midi": 71,
      "hit": false,
      "t": 203428.36799999978,
      "d": 964.2847499999916,
      "v": 98
    },
    {
      "midi": 63,
      "hit": false,
      "t": 203428.36799999978,
      "d": 1014.8799374999944,
      "v": 96
    },
    {
      "midi": 66,
      "hit": false,
      "t": 203428.36799999978,
      "d": 1047.6179999999877,
      "v": 103
    },
    {
      "midi": 63,
      "hit": false,
      "t": 204571.22399999978,
      "d": 717.2611875000002,
      "v": 90
    },
    {
      "midi": 71,
      "hit": false,
      "t": 204571.22399999978,
      "d": 1032.737062500004,
      "v": 96
    },
    {
      "midi": 44,
      "hit": false,
      "t": 204571.22399999978,
      "d": 1104.165562500013,
      "v": 103
    },
    {
      "midi": 66,
      "hit": false,
      "t": 204571.22399999978,
      "d": 1184.5226250000123,
      "v": 86
    },
    {
      "midi": 65,
      "hit": false,
      "t": 205714.07999999978,
      "d": 1002.9751875000075,
      "v": 76
    },
    {
      "midi": 61,
      "hit": false,
      "t": 205714.07999999978,
      "d": 1086.3084375000035,
      "v": 87
    },
    {
      "midi": 49,
      "hit": false,
      "t": 205714.07999999978,
      "d": 1145.8321874999965,
      "v": 102
    },
    {
      "midi": 68,
      "hit": false,
      "t": 205714.07999999978,
      "d": 1172.6178749999963,
      "v": 77
    },
    {
      "midi": 61,
      "hit": false,
      "t": 206856.93599999978,
      "d": 883.9276874999923,
      "v": 80
    },
    {
      "midi": 70,
      "hit": false,
      "t": 206856.93599999978,
      "d": 1077.3798749999842,
      "v": 84
    },
    {
      "midi": 42,
      "hit": false,
      "t": 206856.93599999978,
      "d": 1107.1417499999807,
      "v": 93
    },
    {
      "midi": 66,
      "hit": false,
      "t": 206856.93599999978,
      "d": 4291.662374999956,
      "v": 89
    },
    {
      "midi": 71,
      "hit": false,
      "t": 207999.79199999975,
      "d": 836.3086875000154,
      "v": 90
    },
    {
      "midi": 63,
      "hit": false,
      "t": 207999.79199999975,
      "d": 2127.974062500027,
      "v": 84
    },
    {
      "midi": 47,
      "hit": false,
      "t": 207999.79199999975,
      "d": 2220.235875000013,
      "v": 106
    },
    {
      "midi": 75,
      "hit": false,
      "t": 208856.93399999978,
      "d": 1276.7844374999986,
      "v": 92
    },
    {
      "midi": 63,
      "hit": false,
      "t": 210285.50399999975,
      "d": 1005.9513749999751,
      "v": 84
    },
    {
      "midi": 56,
      "hit": false,
      "t": 210285.50399999975,
      "d": 1098.2131874999614,
      "v": 99
    },
    {
      "midi": 71,
      "hit": false,
      "t": 210285.50399999975,
      "d": 1148.8083749999641,
      "v": 86
    },
    {
      "midi": 65,
      "hit": false,
      "t": 211428.35999999972,
      "d": 1041.6656249999942,
      "v": 90
    },
    {
      "midi": 61,
      "hit": false,
      "t": 211428.35999999972,
      "d": 1059.5227500000037,
      "v": 90
    },
    {
      "midi": 49,
      "hit": false,
      "t": 211428.35999999972,
      "d": 1110.1179375000065,
      "v": 103
    },
    {
      "midi": 68,
      "hit": false,
      "t": 211428.35999999972,
      "d": 1151.78456249999,
      "v": 87
    },
    {
      "midi": 61,
      "hit": false,
      "t": 212571.21599999972,
      "d": 693.4516874999972,
      "v": 96
    },
    {
      "midi": 66,
      "hit": false,
      "t": 212571.21599999972,
      "d": 782.7373124999867,
      "v": 88
    },
    {
      "midi": 70,
      "hit": false,
      "t": 212571.21599999972,
      "d": 800.5944374999963,
      "v": 92
    },
    {
      "midi": 54,
      "hit": false,
      "t": 212571.21599999972,
      "d": 1148.8083749999932,
      "v": 92
    },
    {
      "midi": 66,
      "hit": false,
      "t": 213714.07199999972,
      "d": 184.52362500000163,
      "v": 87
    },
    {
      "midi": 71,
      "hit": false,
      "t": 213714.07199999972,
      "d": 208.33312500000466,
      "v": 98
    },
    {
      "midi": 75,
      "hit": false,
      "t": 213714.07199999972,
      "d": 422.6186250000028,
      "v": 96
    },
    {
      "midi": 47,
      "hit": false,
      "t": 213714.07199999972,
      "d": 2482.140374999959,
      "v": 101
    },
    {
      "midi": 66,
      "hit": false,
      "t": 213999.78599999973,
      "d": 187.49981249999837,
      "v": 88
    },
    {
      "midi": 71,
      "hit": false,
      "t": 213999.78599999973,
      "d": 294.64256249999744,
      "v": 88
    },
    {
      "midi": 66,
      "hit": false,
      "t": 214285.49999999974,
      "d": 178.57124999997905,
      "v": 88
    },
    {
      "midi": 73,
      "hit": false,
      "t": 214285.49999999974,
      "d": 184.52362499997253,
      "v": 90
    },
    {
      "midi": 70,
      "hit": false,
      "t": 214285.49999999974,
      "d": 220.23787499996251,
      "v": 92
    },
    {
      "midi": 66,
      "hit": false,
      "t": 214571.2139999997,
      "d": 184.52362500000163,
      "v": 80
    },
    {
      "midi": 75,
      "hit": false,
      "t": 214571.2139999997,
      "d": 190.4759999999951,
      "v": 92
    },
    {
      "midi": 71,
      "hit": false,
      "t": 214571.2139999997,
      "d": 208.33312500000466,
      "v": 96
    },
    {
      "midi": 66,
      "hit": false,
      "t": 215142.6419999997,
      "d": 196.4283749999886,
      "v": 96
    },
    {
      "midi": 73,
      "hit": false,
      "t": 215142.6419999997,
      "d": 208.33312499997555,
      "v": 96
    },
    {
      "midi": 70,
      "hit": false,
      "t": 215142.6419999997,
      "d": 238.09499999997206,
      "v": 96
    },
    {
      "midi": 75,
      "hit": false,
      "t": 215714.0699999997,
      "d": 151.78556250000838,
      "v": 97
    },
    {
      "midi": 66,
      "hit": false,
      "t": 215714.0699999997,
      "d": 178.57125000000815,
      "v": 87
    },
    {
      "midi": 71,
      "hit": false,
      "t": 215714.0699999997,
      "d": 312.499687500007,
      "v": 96
    },
    {
      "midi": 73,
      "hit": false,
      "t": 216285.49799999967,
      "d": 199.40456250001444,
      "v": 105
    },
    {
      "midi": 66,
      "hit": false,
      "t": 216285.49799999967,
      "d": 276.785437500017,
      "v": 92
    },
    {
      "midi": 70,
      "hit": false,
      "t": 216285.49799999967,
      "d": 345.23775000002934,
      "v": 100
    },
    {
      "midi": 59,
      "hit": false,
      "t": 216285.49799999967,
      "d": 1166.665500000061,
      "v": 102
    },
    {
      "midi": 66,
      "hit": false,
      "t": 216856.92599999972,
      "d": 154.76175000000512,
      "v": 80
    },
    {
      "midi": 75,
      "hit": false,
      "t": 216856.92599999972,
      "d": 172.61887500001467,
      "v": 86
    },
    {
      "midi": 71,
      "hit": false,
      "t": 216856.92599999972,
      "d": 184.52362500000163,
      "v": 90
    },
    {
      "midi": 66,
      "hit": false,
      "t": 217142.63999999972,
      "d": 1041.6656250000233,
      "v": 90
    },
    {
      "midi": 75,
      "hit": false,
      "t": 217142.63999999972,
      "d": 1080.35606250001,
      "v": 96
    },
    {
      "midi": 71,
      "hit": false,
      "t": 217142.63999999972,
      "d": 1086.3084375000035,
      "v": 99
    },
    {
      "midi": 54,
      "hit": false,
      "t": 217428.35399999973,
      "d": 288.69018750000396,
      "v": 98
    },
    {
      "midi": 59,
      "hit": false,
      "t": 217714.06799999974,
      "d": 535.7137499999953,
      "v": 111
    },
    {
      "midi": 75,
      "hit": false,
      "t": 218285.49599999972,
      "d": 714.2850000000326,
      "v": 94
    },
    {
      "midi": 71,
      "hit": false,
      "t": 218285.49599999972,
      "d": 723.2135625000228,
      "v": 99
    },
    {
      "midi": 56,
      "hit": false,
      "t": 218285.49599999972,
      "d": 809.5230000000156,
      "v": 103
    },
    {
      "midi": 66,
      "hit": false,
      "t": 218285.49599999972,
      "d": 851.1896250000282,
      "v": 88
    },
    {
      "midi": 44,
      "hit": false,
      "t": 218856.92399999974,
      "d": 101.19037500000559,
      "v": 80
    },
    {
      "midi": 65,
      "hit": false,
      "t": 219428.35199999975,
      "d": 997.022812500014,
      "v": 84
    },
    {
      "midi": 61,
      "hit": false,
      "t": 219428.35199999975,
      "d": 1035.7132500000007,
      "v": 80
    },
    {
      "midi": 49,
      "hit": false,
      "t": 219428.35199999975,
      "d": 1089.2846250000002,
      "v": 105
    },
    {
      "midi": 68,
      "hit": false,
      "t": 219428.35199999975,
      "d": 1095.2369999999937,
      "v": 84
    },
    {
      "midi": 70,
      "hit": false,
      "t": 220571.20799999975,
      "d": 991.0704374999914,
      "v": 97
    },
    {
      "midi": 61,
      "hit": false,
      "t": 220571.20799999975,
      "d": 1047.6179999999877,
      "v": 94
    },
    {
      "midi": 54,
      "hit": false,
      "t": 220571.20799999975,
      "d": 1145.8321874999965,
      "v": 96
    },
    {
      "midi": 66,
      "hit": false,
      "t": 220571.20799999975,
      "d": 2601.187874999974,
      "v": 101
    },
    {
      "midi": 59,
      "hit": false,
      "t": 221714.06399999975,
      "d": 2142.8549999999814,
      "v": 88
    },
    {
      "midi": 63,
      "hit": false,
      "t": 221714.06399999975,
      "d": 2154.7597499999683,
      "v": 82
    },
    {
      "midi": 47,
      "hit": false,
      "t": 221856.92099999974,
      "d": 2163.6883124999586,
      "v": 106
    },
    {
      "midi": 68,
      "hit": false,
      "t": 223142.63399999973,
      "d": 791.665874999977,
      "v": 109
    },
    {
      "midi": 56,
      "hit": false,
      "t": 223999.7759999997,
      "d": 693.4516874999681,
      "v": 103
    },
    {
      "midi": 63,
      "hit": false,
      "t": 223999.7759999997,
      "d": 836.3086874999572,
      "v": 88
    },
    {
      "midi": 71,
      "hit": false,
      "t": 223999.7759999997,
      "d": 976.1894999999495,
      "v": 97
    },
    {
      "midi": 59,
      "hit": false,
      "t": 223999.7759999997,
      "d": 1026.7846874999523,
      "v": 102
    },
    {
      "midi": 66,
      "hit": false,
      "t": 223999.7759999997,
      "d": 1089.284624999942,
      "v": 51
    },
    {
      "midi": 44,
      "hit": false,
      "t": 224571.20399999968,
      "d": 83.33324999999604,
      "v": 73
    },
    {
      "midi": 65,
      "hit": false,
      "t": 225142.63199999963,
      "d": 1014.8799374999944,
      "v": 89
    },
    {
      "midi": 61,
      "hit": false,
      "t": 225142.63199999963,
      "d": 1023.8084999999846,
      "v": 101
    },
    {
      "midi": 68,
      "hit": false,
      "t": 225142.63199999963,
      "d": 1074.4036874999874,
      "v": 83
    },
    {
      "midi": 49,
      "hit": false,
      "t": 225142.63199999963,
      "d": 1101.1893749999872,
      "v": 107
    },
    {
      "midi": 61,
      "hit": false,
      "t": 226285.48799999963,
      "d": 791.665875000006,
      "v": 95
    },
    {
      "midi": 70,
      "hit": false,
      "t": 226285.48799999963,
      "d": 1017.8561250000203,
      "v": 99
    },
    {
      "midi": 66,
      "hit": false,
      "t": 226285.48799999963,
      "d": 1098.2131875000196,
      "v": 96
    },
    {
      "midi": 54,
      "hit": false,
      "t": 226285.48799999963,
      "d": 1130.9512500000128,
      "v": 97
    },
    {
      "midi": 66,
      "hit": false,
      "t": 227428.34399999963,
      "d": 211.3093124999723,
      "v": 67
    },
    {
      "midi": 63,
      "hit": false,
      "t": 227571.20099999962,
      "d": 62.499937499989755,
      "v": 87
    },
    {
      "midi": 71,
      "hit": false,
      "t": 227571.20099999962,
      "d": 130.952249999973,
      "v": 90
    },
    {
      "midi": 47,
      "hit": false,
      "t": 227571.20099999962,
      "d": 2874.997124999936,
      "v": 97
    },
    {
      "midi": 63,
      "hit": false,
      "t": 227714.05799999958,
      "d": 145.8331874999858,
      "v": 72
    },
    {
      "midi": 71,
      "hit": false,
      "t": 227714.05799999958,
      "d": 193.45218749999185,
      "v": 76
    },
    {
      "midi": 66,
      "hit": false,
      "t": 227714.05799999958,
      "d": 199.40456249998533,
      "v": 88
    },
    {
      "midi": 61,
      "hit": false,
      "t": 227999.77199999956,
      "d": 160.7141249999986,
      "v": 86
    },
    {
      "midi": 70,
      "hit": false,
      "t": 227999.77199999956,
      "d": 235.11881250000442,
      "v": 88
    },
    {
      "midi": 66,
      "hit": false,
      "t": 227999.77199999956,
      "d": 488.0947500000184,
      "v": 83
    },
    {
      "midi": 63,
      "hit": false,
      "t": 228285.48599999957,
      "d": 160.7141249999986,
      "v": 84
    },
    {
      "midi": 71,
      "hit": false,
      "t": 228285.48599999957,
      "d": 220.23787500002072,
      "v": 86
    },
    {
      "midi": 61,
      "hit": false,
      "t": 228856.91399999958,
      "d": 181.5474375000049,
      "v": 88
    },
    {
      "midi": 66,
      "hit": false,
      "t": 228856.91399999958,
      "d": 244.04737499999464,
      "v": 92
    },
    {
      "midi": 70,
      "hit": false,
      "t": 228856.91399999958,
      "d": 244.04737499999464,
      "v": 86
    },
    {
      "midi": 63,
      "hit": false,
      "t": 229428.34199999957,
      "d": 217.26168749999488,
      "v": 80
    },
    {
      "midi": 66,
      "hit": false,
      "t": 229428.34199999957,
      "d": 252.97593749998487,
      "v": 88
    },
    {
      "midi": 71,
      "hit": false,
      "t": 229428.34199999957,
      "d": 264.8806874999718,
      "v": 88
    },
    {
      "midi": 61,
      "hit": false,
      "t": 229999.76999999955,
      "d": 264.88068750000093,
      "v": 75
    },
    {
      "midi": 66,
      "hit": false,
      "t": 229999.76999999955,
      "d": 342.2615625000035,
      "v": 87
    },
    {
      "midi": 70,
      "hit": false,
      "t": 229999.76999999955,
      "d": 363.0948750000098,
      "v": 81
    },
    {
      "midi": 63,
      "hit": false,
      "t": 230571.19799999957,
      "d": 148.80937500001164,
      "v": 77
    },
    {
      "midi": 47,
      "hit": false,
      "t": 230571.19799999957,
      "d": 154.76175000000512,
      "v": 85
    },
    {
      "midi": 71,
      "hit": false,
      "t": 230571.19799999957,
      "d": 199.40456250001444,
      "v": 82
    },
    {
      "midi": 66,
      "hit": false,
      "t": 230571.19799999957,
      "d": 255.9521250000107,
      "v": 80
    },
    {
      "midi": 63,
      "hit": false,
      "t": 230856.91199999957,
      "d": 562.4994374999951,
      "v": 78
    },
    {
      "midi": 71,
      "hit": false,
      "t": 230856.91199999957,
      "d": 592.2613124999916,
      "v": 91
    },
    {
      "midi": 66,
      "hit": false,
      "t": 230856.91199999957,
      "d": 604.1660624999786,
      "v": 72
    },
    {
      "midi": 47,
      "hit": false,
      "t": 230856.91199999957,
      "d": 1008.9275624999718,
      "v": 96
    },
    {
      "midi": 66,
      "hit": false,
      "t": 231999.76799999955,
      "d": 172.61887499998556,
      "v": 86
    },
    {
      "midi": 75,
      "hit": false,
      "t": 231999.76799999955,
      "d": 199.40456249998533,
      "v": 99
    },
    {
      "midi": 71,
      "hit": false,
      "t": 231999.76799999955,
      "d": 202.38074999998207,
      "v": 99
    },
    {
      "midi": 47,
      "hit": false,
      "t": 231999.76799999955,
      "d": 1101.1893749999872,
      "v": 99
    },
    {
      "midi": 75,
      "hit": false,
      "t": 232285.48199999952,
      "d": 145.8331874999858,
      "v": 84
    },
    {
      "midi": 66,
      "hit": false,
      "t": 232285.48199999952,
      "d": 172.61887499998556,
      "v": 82
    },
    {
      "midi": 71,
      "hit": false,
      "t": 232285.48199999952,
      "d": 244.04737499999464,
      "v": 85
    },
    {
      "midi": 66,
      "hit": false,
      "t": 232571.19599999953,
      "d": 157.73793750000186,
      "v": 79
    },
    {
      "midi": 73,
      "hit": false,
      "t": 232571.19599999953,
      "d": 181.5474375000049,
      "v": 85
    },
    {
      "midi": 70,
      "hit": false,
      "t": 232571.19599999953,
      "d": 214.28549999999814,
      "v": 83
    },
    {
      "midi": 66,
      "hit": false,
      "t": 232856.90999999954,
      "d": 154.76175000000512,
      "v": 88
    },
    {
      "midi": 75,
      "hit": false,
      "t": 232856.90999999954,
      "d": 157.73793750000186,
      "v": 88
    },
    {
      "midi": 71,
      "hit": false,
      "t": 232856.90999999954,
      "d": 160.7141249999986,
      "v": 93
    },
    {
      "midi": 66,
      "hit": false,
      "t": 233428.33799999952,
      "d": 181.5474375000049,
      "v": 86
    },
    {
      "midi": 73,
      "hit": false,
      "t": 233428.33799999952,
      "d": 193.45218749999185,
      "v": 96
    },
    {
      "midi": 47,
      "hit": false,
      "t": 233428.33799999952,
      "d": 196.4283749999886,
      "v": 99
    },
    {
      "midi": 70,
      "hit": false,
      "t": 233428.33799999952,
      "d": 211.3093125000014,
      "v": 100
    },
    {
      "midi": 75,
      "hit": false,
      "t": 233999.76599999954,
      "d": 1833.3315000000002,
      "v": 107
    },
    {
      "midi": 59,
      "hit": false,
      "t": 233999.76599999954,
      "d": 1848.212437500013,
      "v": 105
    },
    {
      "midi": 71,
      "hit": false,
      "t": 233999.76599999954,
      "d": 1857.1410000000033,
      "v": 105
    },
    {
      "midi": 66,
      "hit": false,
      "t": 233999.76599999954,
      "d": 1869.0457499999902,
      "v": 92
    },
    {
      "midi": 47,
      "hit": false,
      "t": 235142.62199999954,
      "d": 809.5229999999865,
      "v": 90
    }
  ]
}