{
  "jsonPath": "Animes/Hand Maid May MIDI Collection/jump.json",
  "path": "Animes\\Hand Maid May MIDI Collection\\Jump.mid",
  "name": "Jump",
  "difficulty": "Advanced",
  "bpm": 140.00014000014,
  "notes": [
    {
      "midi": 83,
      "hit": false,
      "t": 5139.280575000001,
      "d": 107.14274999999998,
      "v": 100
    },
    {
      "midi": 71,
      "hit": false,
      "t": 5139.280575000001,
      "d": 107.14274999999998,
      "v": 100
    },
    {
      "midi": 71,
      "hit": false,
      "t": 5139.280575000001,
      "d": 107.14274999999998,
      "v": 100
    },
    {
      "midi": 30,
      "hit": false,
      "t": 5139.280575000001,
      "d": 385.71389999999974,
      "v": 115
    },
    {
      "midi": 64,
      "hit": false,
      "t": 5139.280575000001,
      "d": 1285.7129999999997,
      "v": 100
    },
    {
      "midi": 59,
      "hit": false,
      "t": 5139.280575000001,
      "d": 1285.7129999999997,
      "v": 100
    },
    {
      "midi": 56,
      "hit": false,
      "t": 5139.280575000001,
      "d": 1285.7129999999997,
      "v": 100
    },
    {
      "midi": 64,
      "hit": false,
      "t": 5139.280575000001,
      "d": 1285.7129999999997,
      "v": 69
    },
    {
      "midi": 61,
      "hit": false,
      "t": 5139.280575000001,
      "d": 1285.7129999999997,
      "v": 69
    },
    {
      "midi": 82,
      "hit": false,
      "t": 5246.423325000001,
      "d": 107.14274999999998,
      "v": 100
    },
    {
      "midi": 70,
      "hit": false,
      "t": 5246.423325000001,
      "d": 107.14274999999998,
      "v": 100
    },
    {
      "midi": 80,
      "hit": false,
      "t": 5353.566075000001,
      "d": 107.14274999999998,
      "v": 100
    },
    {
      "midi": 68,
      "hit": false,
      "t": 5353.566075000001,
      "d": 107.14274999999998,
      "v": 100
    },
    {
      "midi": 68,
      "hit": false,
      "t": 5353.566075000001,
      "d": 107.14274999999998,
      "v": 100
    },
    {
      "midi": 82,
      "hit": false,
      "t": 5460.708825000001,
      "d": 107.14274999999998,
      "v": 100
    },
    {
      "midi": 70,
      "hit": false,
      "t": 5460.708825000001,
      "d": 107.14274999999998,
      "v": 100
    },
    {
      "midi": 83,
      "hit": false,
      "t": 5567.851575000001,
      "d": 107.14274999999998,
      "v": 100
    },
    {
      "midi": 71,
      "hit": false,
      "t": 5567.851575000001,
      "d": 107.14274999999998,
      "v": 100
    },
    {
      "midi": 71,
      "hit": false,
      "t": 5567.851575000001,
      "d": 107.14274999999998,
      "v": 100
    },
    {
      "midi": 30,
      "hit": false,
      "t": 5567.851575000001,
      "d": 385.71389999999974,
      "v": 115
    },
    {
      "midi": 85,
      "hit": false,
      "t": 5674.994325000001,
      "d": 107.14274999999998,
      "v": 100
    },
    {
      "midi": 73,
      "hit": false,
      "t": 5674.994325000001,
      "d": 107.14274999999998,
      "v": 100
    },
    {
      "midi": 87,
      "hit": false,
      "t": 5782.137075000001,
      "d": 107.14274999999998,
      "v": 100
    },
    {
      "midi": 75,
      "hit": false,
      "t": 5782.137075000001,
      "d": 107.14274999999998,
      "v": 100
    },
    {
      "midi": 75,
      "hit": false,
      "t": 5782.137075000001,
      "d": 107.14274999999998,
      "v": 100
    },
    {
      "midi": 85,
      "hit": false,
      "t": 5889.2798250000005,
      "d": 107.14274999999998,
      "v": 100
    },
    {
      "midi": 73,
      "hit": false,
      "t": 5889.2798250000005,
      "d": 107.14274999999998,
      "v": 100
    },
    {
      "midi": 83,
      "hit": false,
      "t": 5996.4225750000005,
      "d": 107.14274999999998,
      "v": 100
    },
    {
      "midi": 71,
      "hit": false,
      "t": 5996.4225750000005,
      "d": 107.14274999999998,
      "v": 100
    },
    {
      "midi": 71,
      "hit": false,
      "t": 5996.4225750000005,
      "d": 107.14274999999998,
      "v": 100
    },
    {
      "midi": 30,
      "hit": false,
      "t": 5996.4225750000005,
      "d": 192.85695000000032,
      "v": 115
    },
    {
      "midi": 85,
      "hit": false,
      "t": 6103.5653250000005,
      "d": 107.14274999999998,
      "v": 100
    },
    {
      "midi": 73,
      "hit": false,
      "t": 6103.5653250000005,
      "d": 107.14274999999998,
      "v": 100
    },
    {
      "midi": 87,
      "hit": false,
      "t": 6210.7080750000005,
      "d": 107.14274999999998,
      "v": 100
    },
    {
      "midi": 75,
      "hit": false,
      "t": 6210.7080750000005,
      "d": 107.14274999999998,
      "v": 100
    },
    {
      "midi": 68,
      "hit": false,
      "t": 6210.7080750000005,
      "d": 107.14274999999998,
      "v": 100
    },
    {
      "midi": 37,
      "hit": false,
      "t": 6210.7080750000005,
      "d": 192.85695000000032,
      "v": 115
    },
    {
      "midi": 88,
      "hit": false,
      "t": 6317.850825,
      "d": 107.14274999999998,
      "v": 100
    },
    {
      "midi": 76,
      "hit": false,
      "t": 6317.850825,
      "d": 107.14274999999998,
      "v": 100
    },
    {
      "midi": 90,
      "hit": false,
      "t": 6424.993575,
      "d": 107.14274999999998,
      "v": 100
    },
    {
      "midi": 78,
      "hit": false,
      "t": 6424.993575,
      "d": 107.14274999999998,
      "v": 100
    },
    {
      "midi": 71,
      "hit": false,
      "t": 6424.993575,
      "d": 107.14274999999998,
      "v": 100
    },
    {
      "midi": 42,
      "hit": false,
      "t": 6424.993575,
      "d": 192.85695000000032,
      "v": 115
    },
    {
      "midi": 92,
      "hit": false,
      "t": 6532.136325,
      "d": 107.14274999999998,
      "v": 100
    },
    {
      "midi": 80,
      "hit": false,
      "t": 6532.136325,
      "d": 107.14274999999998,
      "v": 100
    },
    {
      "midi": 93,
      "hit": false,
      "t": 6639.279075,
      "d": 642.8564999999999,
      "v": 100
    },
    {
      "midi": 81,
      "hit": false,
      "t": 6639.279075,
      "d": 642.8564999999999,
      "v": 100
    },
    {
      "midi": 45,
      "hit": false,
      "t": 6639.279075,
      "d": 642.8564999999999,
      "v": 100
    },
    {
      "midi": 33,
      "hit": false,
      "t": 6639.279075,
      "d": 642.8564999999999,
      "v": 115
    },
    {
      "midi": 12,
      "hit": false,
      "t": 6639.279075,
      "d": 53.571375000000444,
      "v": 110
    },
    {
      "midi": 57,
      "hit": false,
      "t": 6639.279075,
      "d": 53.571375000000444,
      "v": 110
    },
    {
      "midi": 61,
      "hit": false,
      "t": 6639.279075,
      "d": 428.5709999999999,
      "v": 100
    },
    {
      "midi": 69,
      "hit": false,
      "t": 6639.279075,
      "d": 428.5709999999999,
      "v": 100
    },
    {
      "midi": 66,
      "hit": false,
      "t": 6639.279075,
      "d": 428.5709999999999,
      "v": 100
    },
    {
      "midi": 57,
      "hit": false,
      "t": 6639.279075,
      "d": 428.5709999999999,
      "v": 100
    },
    {
      "midi": 69,
      "hit": false,
      "t": 6639.279075,
      "d": 642.8564999999999,
      "v": 69
    },
    {
      "midi": 64,
      "hit": false,
      "t": 6639.279075,
      "d": 642.8564999999999,
      "v": 69
    },
    {
      "midi": 45,
      "hit": false,
      "t": 6639.279075000001,
      "d": 642.8564999999999,
      "v": 100
    },
    {
      "midi": 30,
      "hit": false,
      "t": 7282.135575000001,
      "d": 35.71424999999999,
      "v": 110
    },
    {
      "midi": 30,
      "hit": false,
      "t": 7389.278325000001,
      "d": 35.71424999999999,
      "v": 110
    },
    {
      "midi": 91,
      "hit": false,
      "t": 7496.421075,
      "d": 1071.4274999999998,
      "v": 100
    },
    {
      "midi": 79,
      "hit": false,
      "t": 7496.421075,
      "d": 1071.4274999999998,
      "v": 100
    },
    {
      "midi": 42,
      "hit": false,
      "t": 7496.421075,
      "d": 1071.4274999999998,
      "v": 100
    },
    {
      "midi": 30,
      "hit": false,
      "t": 7496.421075,
      "d": 1071.4274999999998,
      "v": 115
    },
    {
      "midi": 70,
      "hit": false,
      "t": 7496.421075,
      "d": 1071.4274999999998,
      "v": 100
    },
    {
      "midi": 61,
      "hit": false,
      "t": 7496.421075,
      "d": 1071.4274999999998,
      "v": 100
    },
    {
      "midi": 58,
      "hit": false,
      "t": 7496.421075,
      "d": 1071.4274999999998,
      "v": 100
    },
    {
      "midi": 64,
      "hit": false,
      "t": 7496.421075,
      "d": 1071.4274999999998,
      "v": 100
    },
    {
      "midi": 70,
      "hit": false,
      "t": 7496.421075,
      "d": 1071.4274999999998,
      "v": 69
    },
    {
      "midi": 64,
      "hit": false,
      "t": 7496.421075,
      "d": 1071.4274999999998,
      "v": 69
    },
    {
      "midi": 42,
      "hit": false,
      "t": 7496.421075000001,
      "d": 1071.4275000000007,
      "v": 100
    },
    {
      "midi": 57,
      "hit": false,
      "t": 7496.421075000001,
      "d": 53.571375000000444,
      "v": 110
    },
    {
      "midi": 12,
      "hit": false,
      "t": 7496.421075000001,
      "d": 53.571375000000444,
      "v": 110
    },
    {
      "midi": 80,
      "hit": false,
      "t": 8139.277575,
      "d": 53.571374999999534,
      "v": 127
    },
    {
      "midi": 87,
      "hit": false,
      "t": 8567.848575,
      "d": 1714.2839999999997,
      "v": 80
    },
    {
      "midi": 75,
      "hit": false,
      "t": 8567.848575,
      "d": 1714.2839999999997,
      "v": 80
    },
    {
      "midi": 47,
      "hit": false,
      "t": 8567.848575,
      "d": 1714.2839999999997,
      "v": 100
    },
    {
      "midi": 87,
      "hit": false,
      "t": 8567.848575,
      "d": 214.28549999999996,
      "v": 110
    },
    {
      "midi": 71,
      "hit": false,
      "t": 8567.848575,
      "d": 1714.2839999999997,
      "v": 110
    },
    {
      "midi": 66,
      "hit": false,
      "t": 8567.848575,
      "d": 1714.2839999999997,
      "v": 110
    },
    {
      "midi": 63,
      "hit": false,
      "t": 8567.848575,
      "d": 1714.2839999999997,
      "v": 110
    },
    {
      "midi": 35,
      "hit": false,
      "t": 8567.848575,
      "d": 385.71390000000065,
      "v": 115
    },
    {
      "midi": 66,
      "hit": false,
      "t": 8567.848575,
      "d": 857.1419999999998,
      "v": 100
    },
    {
      "midi": 54,
      "hit": false,
      "t": 8567.848575,
      "d": 857.1419999999998,
      "v": 100
    },
    {
      "midi": 59,
      "hit": false,
      "t": 8567.848575,
      "d": 857.1419999999998,
      "v": 100
    },
    {
      "midi": 63,
      "hit": false,
      "t": 8567.848575,
      "d": 857.1419999999998,
      "v": 100
    },
    {
      "midi": 47,
      "hit": false,
      "t": 8567.848575000002,
      "d": 1714.2839999999997,
      "v": 100
    },
    {
      "midi": 83,
      "hit": false,
      "t": 8567.848575000002,
      "d": 192.85694999999942,
      "v": 90
    },
    {
      "midi": 78,
      "hit": false,
      "t": 8567.848575000002,
      "d": 192.85694999999942,
      "v": 127
    },
    {
      "midi": 12,
      "hit": false,
      "t": 8567.848575000002,
      "d": 53.571374999999534,
      "v": 110
    },
    {
      "midi": 57,
      "hit": false,
      "t": 8567.848575000002,
      "d": 53.571374999999534,
      "v": 110
    },
    {
      "midi": 42,
      "hit": false,
      "t": 8567.848575000002,
      "d": 53.571374999999534,
      "v": 100
    },
    {
      "midi": 78,
      "hit": false,
      "t": 8782.134075000002,
      "d": 192.85694999999942,
      "v": 127
    },
    {
      "midi": 83,
      "hit": false,
      "t": 8782.134075000002,
      "d": 192.85694999999942,
      "v": 90
    },
    {
      "midi": 42,
      "hit": false,
      "t": 8782.134075000002,
      "d": 53.571374999999534,
      "v": 100
    },
    {
      "midi": 70,
      "hit": false,
      "t": 8782.134075000002,
      "d": 53.571374999999534,
      "v": 100
    },
    {
      "midi": 35,
      "hit": false,
      "t": 8996.419575,
      "d": 192.85694999999942,
      "v": 115
    },
    {
      "midi": 80,
      "hit": false,
      "t": 8996.419575000002,
      "d": 192.85694999999942,
      "v": 127
    },
    {
      "midi": 85,
      "hit": false,
      "t": 8996.419575000002,
      "d": 192.85694999999942,
      "v": 90
    },
    {
      "midi": 12,
      "hit": false,
      "t": 8996.419575000002,
      "d": 53.571374999999534,
      "v": 110
    },
    {
      "midi": 42,
      "hit": false,
      "t": 8996.419575000002,
      "d": 53.571374999999534,
      "v": 100
    },
    {
      "midi": 117,
      "hit": false,
      "t": 8996.419575000002,
      "d": 53.571374999999534,
      "v": 110
    },
    {
      "midi": 42,
      "hit": false,
      "t": 9103.562325,
      "d": 53.571374999999534,
      "v": 100
    },
    {
      "midi": 30,
      "hit": false,
      "t": 9210.705075,
      "d": 192.85694999999942,
      "v": 115
    },
    {
      "midi": 42,
      "hit": false,
      "t": 9210.705075,
      "d": 53.571374999999534,
      "v": 100
    },
    {
      "midi": 70,
      "hit": false,
      "t": 9210.705075,
      "d": 53.571374999999534,
      "v": 100
    },
    {
      "midi": 32,
      "hit": false,
      "t": 9424.990575,
      "d": 192.85694999999942,
      "v": 115
    },
    {
      "midi": 12,
      "hit": false,
      "t": 9424.990575,
      "d": 53.571374999999534,
      "v": 110
    },
    {
      "midi": 42,
      "hit": false,
      "t": 9424.990575,
      "d": 53.571374999999534,
      "v": 100
    },
    {
      "midi": 83,
      "hit": false,
      "t": 9424.990575000002,
      "d": 192.85694999999942,
      "v": 127
    },
    {
      "midi": 87,
      "hit": false,
      "t": 9424.990575000002,
      "d": 192.85694999999942,
      "v": 90
    },
    {
      "midi": 35,
      "hit": false,
      "t": 9639.276075,
      "d": 385.71390000000065,
      "v": 115
    },
    {
      "midi": 42,
      "hit": false,
      "t": 9639.276075,
      "d": 53.571374999999534,
      "v": 100
    },
    {
      "midi": 70,
      "hit": false,
      "t": 9639.276075,
      "d": 53.571374999999534,
      "v": 100
    },
    {
      "midi": 12,
      "hit": false,
      "t": 9853.561575,
      "d": 53.571374999999534,
      "v": 110
    },
    {
      "midi": 42,
      "hit": false,
      "t": 9853.561575,
      "d": 53.571374999999534,
      "v": 100
    },
    {
      "midi": 117,
      "hit": false,
      "t": 9853.561575,
      "d": 53.571374999999534,
      "v": 110
    },
    {
      "midi": 78,
      "hit": false,
      "t": 9853.561575000002,
      "d": 192.85694999999942,
      "v": 127
    },
    {
      "midi": 83,
      "hit": false,
      "t": 9853.561575000002,
      "d": 192.85694999999942,
      "v": 90
    },
    {
      "midi": 42,
      "hit": false,
      "t": 9960.704324999999,
      "d": 53.571374999999534,
      "v": 100
    },
    {
      "midi": 42,
      "hit": false,
      "t": 10067.847074999998,
      "d": 53.571374999999534,
      "v": 100
    },
    {
      "midi": 70,
      "hit": false,
      "t": 10067.847074999998,
      "d": 53.571374999999534,
      "v": 100
    },
    {
      "midi": 34,
      "hit": false,
      "t": 10067.847075,
      "d": 385.71390000000065,
      "v": 115
    },
    {
      "midi": 83,
      "hit": false,
      "t": 10067.847075000001,
      "d": 192.85694999999942,
      "v": 90
    },
    {
      "midi": 78,
      "hit": false,
      "t": 10067.847075000001,
      "d": 192.85694999999942,
      "v": 127
    },
    {
      "midi": 12,
      "hit": false,
      "t": 10282.132574999998,
      "d": 53.571374999999534,
      "v": 110
    },
    {
      "midi": 42,
      "hit": false,
      "t": 10282.132574999998,
      "d": 53.571374999999534,
      "v": 100
    },
    {
      "midi": 85,
      "hit": false,
      "t": 10282.132575,
      "d": 857.1419999999998,
      "v": 80
    },
    {
      "midi": 73,
      "hit": false,
      "t": 10282.132575,
      "d": 857.1419999999998,
      "v": 80
    },
    {
      "midi": 46,
      "hit": false,
      "t": 10282.132575,
      "d": 1714.2839999999997,
      "v": 100
    },
    {
      "midi": 85,
      "hit": false,
      "t": 10282.132575,
      "d": 214.28549999999996,
      "v": 110
    },
    {
      "midi": 70,
      "hit": false,
      "t": 10282.132575,
      "d": 857.1419999999998,
      "v": 110
    },
    {
      "midi": 66,
      "hit": false,
      "t": 10282.132575,
      "d": 857.1419999999998,
      "v": 110
    },
    {
      "midi": 61,
      "hit": false,
      "t": 10282.132575,
      "d": 857.1419999999998,
      "v": 110
    },
    {
      "midi": 58,
      "hit": false,
      "t": 10282.132575,
      "d": 857.1419999999998,
      "v": 100
    },
    {
      "midi": 61,
      "hit": false,
      "t": 10282.132575,
      "d": 857.1419999999998,
      "v": 100
    },
    {
      "midi": 66,
      "hit": false,
      "t": 10282.132575,
      "d": 1714.2839999999997,
      "v": 100
    },
    {
      "midi": 54,
      "hit": false,
      "t": 10282.132575,
      "d": 1714.2839999999997,
      "v": 100
    },
    {
      "midi": 46,
      "hit": false,
      "t": 10282.132575000001,
      "d": 1714.2839999999997,
      "v": 100
    },
    {
      "midi": 80,
      "hit": false,
      "t": 10282.132575000001,
      "d": 192.85694999999942,
      "v": 127
    },
    {
      "midi": 85,
      "hit": false,
      "t": 10282.132575000001,
      "d": 192.85694999999942,
      "v": 90
    },
    {
      "midi": 70,
      "hit": false,
      "t": 10496.418074999998,
      "d": 53.571374999999534,
      "v": 100
    },
    {
      "midi": 42,
      "hit": false,
      "t": 10496.418074999998,
      "d": 53.571374999999534,
      "v": 100
    },
    {
      "midi": 30,
      "hit": false,
      "t": 10496.418075,
      "d": 192.85694999999942,
      "v": 115
    },
    {
      "midi": 78,
      "hit": false,
      "t": 10496.418075000001,
      "d": 385.71390000000065,
      "v": 127
    },
    {
      "midi": 83,
      "hit": false,
      "t": 10496.418075000001,
      "d": 385.71390000000065,
      "v": 90
    },
    {
      "midi": 12,
      "hit": false,
      "t": 10710.703574999998,
      "d": 53.571374999999534,
      "v": 110
    },
    {
      "midi": 42,
      "hit": false,
      "t": 10710.703574999998,
      "d": 53.571374999999534,
      "v": 100
    },
    {
      "midi": 117,
      "hit": false,
      "t": 10710.703574999998,
      "d": 53.571374999999534,
      "v": 110
    },
    {
      "midi": 32,
      "hit": false,
      "t": 10710.703575,
      "d": 192.85694999999942,
      "v": 115
    },
    {
      "midi": 42,
      "hit": false,
      "t": 10817.846324999997,
      "d": 53.571374999999534,
      "v": 100
    },
    {
      "midi": 42,
      "hit": false,
      "t": 10924.989074999996,
      "d": 53.571374999999534,
      "v": 100
    },
    {
      "midi": 70,
      "hit": false,
      "t": 10924.989074999996,
      "d": 53.571374999999534,
      "v": 100
    },
    {
      "midi": 34,
      "hit": false,
      "t": 10924.989075,
      "d": 385.71390000000065,
      "v": 115
    },
    {
      "midi": 75,
      "hit": false,
      "t": 10924.989075000001,
      "d": 385.71390000000065,
      "v": 127
    },
    {
      "midi": 78,
      "hit": false,
      "t": 10924.989075000001,
      "d": 385.71390000000065,
      "v": 90
    },
    {
      "midi": 12,
      "hit": false,
      "t": 11139.274574999996,
      "d": 53.571374999999534,
      "v": 110
    },
    {
      "midi": 42,
      "hit": false,
      "t": 11139.274574999996,
      "d": 53.571374999999534,
      "v": 100
    },
    {
      "midi": 90,
      "hit": false,
      "t": 11139.274575,
      "d": 857.1419999999998,
      "v": 80
    },
    {
      "midi": 78,
      "hit": false,
      "t": 11139.274575,
      "d": 857.1419999999998,
      "v": 80
    },
    {
      "midi": 90,
      "hit": false,
      "t": 11139.274575,
      "d": 214.28549999999996,
      "v": 110
    },
    {
      "midi": 73,
      "hit": false,
      "t": 11139.274575,
      "d": 857.1419999999998,
      "v": 110
    },
    {
      "midi": 68,
      "hit": false,
      "t": 11139.274575,
      "d": 857.1419999999998,
      "v": 110
    },
    {
      "midi": 64,
      "hit": false,
      "t": 11139.274575,
      "d": 857.1419999999998,
      "v": 110
    },
    {
      "midi": 61,
      "hit": false,
      "t": 11139.274575,
      "d": 857.1419999999998,
      "v": 100
    },
    {
      "midi": 64,
      "hit": false,
      "t": 11139.274575,
      "d": 857.1419999999998,
      "v": 100
    },
    {
      "midi": 42,
      "hit": false,
      "t": 11353.560074999996,
      "d": 53.571374999999534,
      "v": 100
    },
    {
      "midi": 70,
      "hit": false,
      "t": 11353.560074999996,
      "d": 53.571374999999534,
      "v": 100
    },
    {
      "midi": 30,
      "hit": false,
      "t": 11353.560075,
      "d": 192.85694999999942,
      "v": 115
    },
    {
      "midi": 80,
      "hit": false,
      "t": 11353.560075,
      "d": 53.571374999999534,
      "v": 110
    },
    {
      "midi": 73,
      "hit": false,
      "t": 11353.560075000001,
      "d": 192.85694999999942,
      "v": 127
    },
    {
      "midi": 76,
      "hit": false,
      "t": 11353.560075000001,
      "d": 192.85694999999942,
      "v": 90
    },
    {
      "midi": 12,
      "hit": false,
      "t": 11567.845574999996,
      "d": 53.571374999999534,
      "v": 110
    },
    {
      "midi": 42,
      "hit": false,
      "t": 11567.845574999996,
      "d": 53.571374999999534,
      "v": 100
    },
    {
      "midi": 117,
      "hit": false,
      "t": 11567.845574999996,
      "d": 53.571374999999534,
      "v": 110
    },
    {
      "midi": 32,
      "hit": false,
      "t": 11567.845575,
      "d": 192.85694999999942,
      "v": 115
    },
    {
      "midi": 80,
      "hit": false,
      "t": 11567.845575,
      "d": 53.571374999999534,
      "v": 110
    },
    {
      "midi": 73,
      "hit": false,
      "t": 11567.845575000001,
      "d": 192.85694999999942,
      "v": 127
    },
    {
      "midi": 76,
      "hit": false,
      "t": 11567.845575000001,
      "d": 192.85694999999942,
      "v": 90
    },
    {
      "midi": 42,
      "hit": false,
      "t": 11674.988324999995,
      "d": 53.571374999999534,
      "v": 100
    },
    {
      "midi": 42,
      "hit": false,
      "t": 11782.131074999994,
      "d": 53.571374999999534,
      "v": 100
    },
    {
      "midi": 70,
      "hit": false,
      "t": 11782.131074999994,
      "d": 53.571374999999534,
      "v": 100
    },
    {
      "midi": 34,
      "hit": false,
      "t": 11782.131075,
      "d": 192.85694999999942,
      "v": 115
    },
    {
      "midi": 71,
      "hit": false,
      "t": 11782.131075000001,
      "d": 192.85694999999942,
      "v": 127
    },
    {
      "midi": 75,
      "hit": false,
      "t": 11782.131075000001,
      "d": 192.85694999999942,
      "v": 90
    },
    {
      "midi": 12,
      "hit": false,
      "t": 11996.416574999994,
      "d": 53.571374999999534,
      "v": 110
    },
    {
      "midi": 42,
      "hit": false,
      "t": 11996.416574999994,
      "d": 53.571374999999534,
      "v": 100
    },
    {
      "midi": 87,
      "hit": false,
      "t": 11996.416575,
      "d": 1714.2839999999997,
      "v": 80
    },
    {
      "midi": 75,
      "hit": false,
      "t": 11996.416575,
      "d": 1714.2839999999997,
      "v": 80
    },
    {
      "midi": 44,
      "hit": false,
      "t": 11996.416575,
      "d": 1714.2839999999997,
      "v": 100
    },
    {
      "midi": 87,
      "hit": false,
      "t": 11996.416575,
      "d": 214.28549999999996,
      "v": 110
    },
    {
      "midi": 71,
      "hit": false,
      "t": 11996.416575,
      "d": 1714.2839999999997,
      "v": 110
    },
    {
      "midi": 66,
      "hit": false,
      "t": 11996.416575,
      "d": 1714.2839999999997,
      "v": 110
    },
    {
      "midi": 63,
      "hit": false,
      "t": 11996.416575,
      "d": 1714.2839999999997,
      "v": 110
    },
    {
      "midi": 32,
      "hit": false,
      "t": 11996.416575,
      "d": 385.71390000000065,
      "v": 115
    },
    {
      "midi": 56,
      "hit": false,
      "t": 11996.416575,
      "d": 857.1419999999998,
      "v": 100
    },
    {
      "midi": 59,
      "hit": false,
      "t": 11996.416575,
      "d": 857.1419999999998,
      "v": 100
    },
    {
      "midi": 63,
      "hit": false,
      "t": 11996.416575,
      "d": 857.1419999999998,
      "v": 100
    },
    {
      "midi": 66,
      "hit": false,
      "t": 11996.416575,
      "d": 857.1419999999998,
      "v": 100
    },
    {
      "midi": 44,
      "hit": false,
      "t": 11996.416575000001,
      "d": 1714.2839999999997,
      "v": 100
    },
    {
      "midi": 78,
      "hit": false,
      "t": 11996.416575000001,
      "d": 192.85694999999942,
      "v": 127
    },
    {
      "midi": 83,
      "hit": false,
      "t": 11996.416575000001,
      "d": 192.85694999999942,
      "v": 90
    },
    {
      "midi": 42,
      "hit": false,
      "t": 12210.702074999994,
      "d": 53.571374999999534,
      "v": 100
    },
    {
      "midi": 70,
      "hit": false,
      "t": 12210.702074999994,
      "d": 53.571374999999534,
      "v": 100
    },
    {
      "midi": 78,
      "hit": false,
      "t": 12210.702075000001,
      "d": 192.85694999999942,
      "v": 127
    },
    {
      "midi": 83,
      "hit": false,
      "t": 12210.702075000001,
      "d": 192.85694999999942,
      "v": 90
    },
    {
      "midi": 12,
      "hit": false,
      "t": 12424.987574999994,
      "d": 53.571374999999534,
      "v": 110
    },
    {
      "midi": 42,
      "hit": false,
      "t": 12424.987574999994,
      "d": 53.571374999999534,
      "v": 100
    },
    {
      "midi": 117,
      "hit": false,
      "t": 12424.987574999994,
      "d": 53.571374999999534,
      "v": 110
    },
    {
      "midi": 32,
      "hit": false,
      "t": 12424.987575,
      "d": 192.85694999999942,
      "v": 115
    },
    {
      "midi": 80,
      "hit": false,
      "t": 12424.987575000001,
      "d": 192.85694999999942,
      "v": 127
    },
    {
      "midi": 85,
      "hit": false,
      "t": 12424.987575000001,
      "d": 192.85694999999942,
      "v": 90
    },
    {
      "midi": 42,
      "hit": false,
      "t": 12532.130324999993,
      "d": 53.571374999999534,
      "v": 100
    },
    {
      "midi": 42,
      "hit": false,
      "t": 12639.273074999992,
      "d": 53.571374999999534,
      "v": 100
    },
    {
      "midi": 70,
      "hit": false,
      "t": 12639.273074999992,
      "d": 53.571374999999534,
      "v": 100
    },
    {
      "midi": 27,
      "hit": false,
      "t": 12639.273075,
      "d": 192.85694999999942,
      "v": 115
    },
    {
      "midi": 80,
      "hit": false,
      "t": 12639.273075000001,
      "d": 192.85694999999942,
      "v": 127
    },
    {
      "midi": 85,
      "hit": false,
      "t": 12639.273075000001,
      "d": 192.85694999999942,
      "v": 90
    },
    {
      "midi": 12,
      "hit": false,
      "t": 12853.558574999992,
      "d": 53.571374999999534,
      "v": 110
    },
    {
      "midi": 42,
      "hit": false,
      "t": 12853.558574999992,
      "d": 53.571374999999534,
      "v": 100
    },
    {
      "midi": 30,
      "hit": false,
      "t": 12853.558575,
      "d": 192.85694999999942,
      "v": 115
    },
    {
      "midi": 87,
      "hit": false,
      "t": 12853.558575000001,
      "d": 192.85694999999942,
      "v": 90
    },
    {
      "midi": 83,
      "hit": false,
      "t": 12853.558575000001,
      "d": 192.85694999999942,
      "v": 127
    },
    {
      "midi": 42,
      "hit": false,
      "t": 13067.844074999992,
      "d": 53.571374999999534,
      "v": 100
    },
    {
      "midi": 70,
      "hit": false,
      "t": 13067.844074999992,
      "d": 53.571374999999534,
      "v": 100
    },
    {
      "midi": 32,
      "hit": false,
      "t": 13067.844074999999,
      "d": 385.71390000000065,
      "v": 115
    },
    {
      "midi": 12,
      "hit": false,
      "t": 13282.129574999992,
      "d": 53.571374999999534,
      "v": 110
    },
    {
      "midi": 42,
      "hit": false,
      "t": 13282.129574999992,
      "d": 53.571374999999534,
      "v": 100
    },
    {
      "midi": 117,
      "hit": false,
      "t": 13282.129574999992,
      "d": 53.571374999999534,
      "v": 110
    },
    {
      "midi": 78,
      "hit": false,
      "t": 13282.129575,
      "d": 192.85694999999942,
      "v": 127
    },
    {
      "midi": 83,
      "hit": false,
      "t": 13282.129575,
      "d": 192.85694999999942,
      "v": 90
    },
    {
      "midi": 42,
      "hit": false,
      "t": 13389.27232499999,
      "d": 53.571374999999534,
      "v": 100
    },
    {
      "midi": 42,
      "hit": false,
      "t": 13496.41507499999,
      "d": 53.571374999999534,
      "v": 100
    },
    {
      "midi": 70,
      "hit": false,
      "t": 13496.41507499999,
      "d": 53.571374999999534,
      "v": 100
    },
    {
      "midi": 30,
      "hit": false,
      "t": 13496.415074999999,
      "d": 385.71390000000065,
      "v": 115
    },
    {
      "midi": 78,
      "hit": false,
      "t": 13496.415075,
      "d": 192.85694999999942,
      "v": 127
    },
    {
      "midi": 83,
      "hit": false,
      "t": 13496.415075,
      "d": 192.85694999999942,
      "v": 90
    },
    {
      "midi": 12,
      "hit": false,
      "t": 13710.70057499999,
      "d": 53.571374999999534,
      "v": 110
    },
    {
      "midi": 42,
      "hit": false,
      "t": 13710.70057499999,
      "d": 53.571374999999534,
      "v": 100
    },
    {
      "midi": 88,
      "hit": false,
      "t": 13710.700574999999,
      "d": 857.1419999999998,
      "v": 80
    },
    {
      "midi": 76,
      "hit": false,
      "t": 13710.700574999999,
      "d": 857.1419999999998,
      "v": 80
    },
    {
      "midi": 42,
      "hit": false,
      "t": 13710.700574999999,
      "d": 214.28549999999996,
      "v": 100
    },
    {
      "midi": 88,
      "hit": false,
      "t": 13710.700574999999,
      "d": 214.28549999999996,
      "v": 110
    },
    {
      "midi": 69,
      "hit": false,
      "t": 13710.700574999999,
      "d": 857.1419999999998,
      "v": 110
    },
    {
      "midi": 64,
      "hit": false,
      "t": 13710.700574999999,
      "d": 857.1419999999998,
      "v": 110
    },
    {
      "midi": 61,
      "hit": false,
      "t": 13710.700574999999,
      "d": 857.1419999999998,
      "v": 110
    },
    {
      "midi": 66,
      "hit": false,
      "t": 13710.700574999999,
      "d": 857.1419999999998,
      "v": 100
    },
    {
      "midi": 61,
      "hit": false,
      "t": 13710.700574999999,
      "d": 857.1419999999998,
      "v": 100
    },
    {
      "midi": 57,
      "hit": false,
      "t": 13710.700574999999,
      "d": 857.1419999999998,
      "v": 100
    },
    {
      "midi": 42,
      "hit": false,
      "t": 13710.700575,
      "d": 214.28549999999996,
      "v": 100
    },
    {
      "midi": 80,
      "hit": false,
      "t": 13710.700575,
      "d": 192.85694999999942,
      "v": 127
    },
    {
      "midi": 85,
      "hit": false,
      "t": 13710.700575,
      "d": 192.85694999999942,
      "v": 90
    },
    {
      "midi": 70,
      "hit": false,
      "t": 13924.98607499999,
      "d": 53.571374999999534,
      "v": 100
    },
    {
      "midi": 42,
      "hit": false,
      "t": 13924.98607499999,
      "d": 53.571374999999534,
      "v": 100
    },
    {
      "midi": 45,
      "hit": false,
      "t": 13924.986074999999,
      "d": 214.28549999999996,
      "v": 100
    },
    {
      "midi": 34,
      "hit": false,
      "t": 13924.986074999999,
      "d": 192.85694999999942,
      "v": 115
    },
    {
      "midi": 45,
      "hit": false,
      "t": 13924.986075,
      "d": 214.28549999999996,
      "v": 100
    },
    {
      "midi": 78,
      "hit": false,
      "t": 13924.986075,
      "d": 385.71390000000065,
      "v": 127
    },
    {
      "midi": 83,
      "hit": false,
      "t": 13924.986075,
      "d": 385.71390000000065,
      "v": 90
    },
    {
      "midi": 12,
      "hit": false,
      "t": 14139.27157499999,
      "d": 53.571374999999534,
      "v": 110
    },
    {
      "midi": 42,
      "hit": false,
      "t": 14139.27157499999,
      "d": 53.571374999999534,
      "v": 100
    },
    {
      "midi": 117,
      "hit": false,
      "t": 14139.27157499999,
      "d": 53.571374999999534,
      "v": 110
    },
    {
      "midi": 49,
      "hit": false,
      "t": 14139.271574999999,
      "d": 214.28549999999996,
      "v": 100
    },
    {
      "midi": 37,
      "hit": false,
      "t": 14139.271574999999,
      "d": 192.85694999999942,
      "v": 115
    },
    {
      "midi": 49,
      "hit": false,
      "t": 14139.271575,
      "d": 214.28549999999996,
      "v": 100
    },
    {
      "midi": 42,
      "hit": false,
      "t": 14246.414324999989,
      "d": 53.571374999999534,
      "v": 100
    },
    {
      "midi": 42,
      "hit": false,
      "t": 14353.557074999988,
      "d": 53.571374999999534,
      "v": 100
    },
    {
      "midi": 70,
      "hit": false,
      "t": 14353.557074999988,
      "d": 53.571374999999534,
      "v": 100
    },
    {
      "midi": 47,
      "hit": false,
      "t": 14353.557074999999,
      "d": 428.5709999999999,
      "v": 100
    },
    {
      "midi": 35,
      "hit": false,
      "t": 14353.557074999999,
      "d": 385.71390000000065,
      "v": 115
    },
    {
      "midi": 47,
      "hit": false,
      "t": 14353.557075,
      "d": 428.5709999999999,
      "v": 100
    },
    {
      "midi": 75,
      "hit": false,
      "t": 14353.557075,
      "d": 385.71390000000065,
      "v": 127
    },
    {
      "midi": 78,
      "hit": false,
      "t": 14353.557075,
      "d": 385.71390000000065,
      "v": 90
    },
    {
      "midi": 12,
      "hit": false,
      "t": 14567.842574999988,
      "d": 53.571374999999534,
      "v": 110
    },
    {
      "midi": 42,
      "hit": false,
      "t": 14567.842574999988,
      "d": 53.571374999999534,
      "v": 100
    },
    {
      "midi": 87,
      "hit": false,
      "t": 14567.842574999999,
      "d": 428.5709999999999,
      "v": 80
    },
    {
      "midi": 75,
      "hit": false,
      "t": 14567.842574999999,
      "d": 428.5709999999999,
      "v": 80
    },
    {
      "midi": 87,
      "hit": false,
      "t": 14567.842574999999,
      "d": 214.28549999999996,
      "v": 110
    },
    {
      "midi": 73,
      "hit": false,
      "t": 14567.842574999999,
      "d": 857.1419999999998,
      "v": 110
    },
    {
      "midi": 66,
      "hit": false,
      "t": 14567.842574999999,
      "d": 857.1419999999998,
      "v": 110
    },
    {
      "midi": 63,
      "hit": false,
      "t": 14567.842574999999,
      "d": 857.1419999999998,
      "v": 110
    },
    {
      "midi": 63,
      "hit": false,
      "t": 14567.842574999999,
      "d": 857.1419999999998,
      "v": 100
    },
    {
      "midi": 59,
      "hit": false,
      "t": 14567.842574999999,
      "d": 857.1419999999998,
      "v": 100
    },
    {
      "midi": 66,
      "hit": false,
      "t": 14567.842574999999,
      "d": 857.1419999999998,
      "v": 100
    },
    {
      "midi": 42,
      "hit": false,
      "t": 14782.128074999988,
      "d": 53.571374999999534,
      "v": 100
    },
    {
      "midi": 70,
      "hit": false,
      "t": 14782.128074999988,
      "d": 53.571374999999534,
      "v": 100
    },
    {
      "midi": 45,
      "hit": false,
      "t": 14782.128074999999,
      "d": 642.8564999999999,
      "v": 100
    },
    {
      "midi": 33,
      "hit": false,
      "t": 14782.128074999999,
      "d": 385.71390000000065,
      "v": 115
    },
    {
      "midi": 80,
      "hit": false,
      "t": 14782.128074999999,
      "d": 53.571374999999534,
      "v": 110
    },
    {
      "midi": 45,
      "hit": false,
      "t": 14782.128075,
      "d": 642.8564999999999,
      "v": 100
    },
    {
      "midi": 73,
      "hit": false,
      "t": 14782.128075,
      "d": 192.85694999999942,
      "v": 127
    },
    {
      "midi": 76,
      "hit": false,
      "t": 14782.128075,
      "d": 192.85694999999942,
      "v": 90
    },
    {
      "midi": 12,
      "hit": false,
      "t": 14996.413574999988,
      "d": 53.571374999999534,
      "v": 110
    },
    {
      "midi": 42,
      "hit": false,
      "t": 14996.413574999988,
      "d": 53.571374999999534,
      "v": 100
    },
    {
      "midi": 117,
      "hit": false,
      "t": 14996.413574999988,
      "d": 53.571374999999534,
      "v": 110
    },
    {
      "midi": 88,
      "hit": false,
      "t": 14996.413574999999,
      "d": 428.5709999999999,
      "v": 80
    },
    {
      "midi": 76,
      "hit": false,
      "t": 14996.413574999999,
      "d": 428.5709999999999,
      "v": 80
    },
    {
      "midi": 88,
      "hit": false,
      "t": 14996.413574999999,
      "d": 214.28549999999996,
      "v": 110
    },
    {
      "midi": 80,
      "hit": false,
      "t": 14996.413574999999,
      "d": 53.571374999999534,
      "v": 110
    },
    {
      "midi": 73,
      "hit": false,
      "t": 14996.413575,
      "d": 192.85694999999942,
      "v": 127
    },
    {
      "midi": 76,
      "hit": false,
      "t": 14996.413575,
      "d": 192.85694999999942,
      "v": 90
    },
    {
      "midi": 42,
      "hit": false,
      "t": 15103.556324999987,
      "d": 53.571374999999534,
      "v": 100
    },
    {
      "midi": 42,
      "hit": false,
      "t": 15210.699074999986,
      "d": 53.571374999999534,
      "v": 100
    },
    {
      "midi": 70,
      "hit": false,
      "t": 15210.699074999986,
      "d": 53.571374999999534,
      "v": 100
    },
    {
      "midi": 30,
      "hit": false,
      "t": 15210.699074999999,
      "d": 192.85694999999942,
      "v": 115
    },
    {
      "midi": 71,
      "hit": false,
      "t": 15210.699075,
      "d": 192.85694999999942,
      "v": 127
    },
    {
      "midi": 75,
      "hit": false,
      "t": 15210.699075,
      "d": 192.85694999999942,
      "v": 90
    },
    {
      "midi": 12,
      "hit": false,
      "t": 15424.984574999986,
      "d": 53.571374999999534,
      "v": 110
    },
    {
      "midi": 42,
      "hit": false,
      "t": 15424.984574999986,
      "d": 53.571374999999534,
      "v": 100
    },
    {
      "midi": 90,
      "hit": false,
      "t": 15424.984574999999,
      "d": 2785.7115000000013,
      "v": 80
    },
    {
      "midi": 78,
      "hit": false,
      "t": 15424.984574999999,
      "d": 2785.7115000000013,
      "v": 80
    },
    {
      "midi": 40,
      "hit": false,
      "t": 15424.984574999999,
      "d": 1678.5697499999987,
      "v": 100
    },
    {
      "midi": 90,
      "hit": false,
      "t": 15424.984574999999,
      "d": 214.28549999999996,
      "v": 110
    },
    {
      "midi": 28,
      "hit": false,
      "t": 15424.984574999999,
      "d": 385.71390000000065,
      "v": 115
    },
    {
      "midi": 68,
      "hit": false,
      "t": 15424.984574999999,
      "d": 535.7137500000008,
      "v": 100
    },
    {
      "midi": 64,
      "hit": false,
      "t": 15424.984574999999,
      "d": 535.7137500000008,
      "v": 100
    },
    {
      "midi": 59,
      "hit": false,
      "t": 15424.984574999999,
      "d": 535.7137500000008,
      "v": 100
    },
    {
      "midi": 40,
      "hit": false,
      "t": 15424.984575,
      "d": 1678.5697500000006,
      "v": 100
    },
    {
      "midi": 78,
      "hit": false,
      "t": 15424.984575,
      "d": 578.5708500000001,
      "v": 127
    },
    {
      "midi": 42,
      "hit": false,
      "t": 15639.270074999986,
      "d": 53.571374999999534,
      "v": 100
    },
    {
      "midi": 70,
      "hit": false,
      "t": 15639.270074999986,
      "d": 53.571374999999534,
      "v": 100
    },
    {
      "midi": 12,
      "hit": false,
      "t": 15853.555574999986,
      "d": 53.571374999999534,
      "v": 110
    },
    {
      "midi": 42,
      "hit": false,
      "t": 15853.555574999986,
      "d": 53.571374999999534,
      "v": 100
    },
    {
      "midi": 117,
      "hit": false,
      "t": 15853.555574999986,
      "d": 53.571374999999534,
      "v": 110
    },
    {
      "midi": 28,
      "hit": false,
      "t": 15853.555574999998,
      "d": 385.71390000000065,
      "v": 115
    },
    {
      "midi": 42,
      "hit": false,
      "t": 15960.698324999985,
      "d": 53.571374999999534,
      "v": 100
    },
    {
      "midi": 42,
      "hit": false,
      "t": 16067.841074999984,
      "d": 53.571374999999534,
      "v": 100
    },
    {
      "midi": 70,
      "hit": false,
      "t": 16067.841074999984,
      "d": 53.571374999999534,
      "v": 100
    },
    {
      "midi": 76,
      "hit": false,
      "t": 16067.841075,
      "d": 192.85694999999942,
      "v": 127
    },
    {
      "midi": 68,
      "hit": false,
      "t": 16071.412499999999,
      "d": 107.14275000000089,
      "v": 100
    },
    {
      "midi": 64,
      "hit": false,
      "t": 16071.412499999999,
      "d": 107.14275000000089,
      "v": 100
    },
    {
      "midi": 59,
      "hit": false,
      "t": 16071.412499999999,
      "d": 107.14275000000089,
      "v": 100
    },
    {
      "midi": 12,
      "hit": false,
      "t": 16282.126574999984,
      "d": 53.571374999999534,
      "v": 110
    },
    {
      "midi": 42,
      "hit": false,
      "t": 16282.126574999984,
      "d": 53.571374999999534,
      "v": 100
    },
    {
      "midi": 28,
      "hit": false,
      "t": 16282.126574999998,
      "d": 192.85695000000123,
      "v": 115
    },
    {
      "midi": 75,
      "hit": false,
      "t": 16282.126575,
      "d": 385.71390000000065,
      "v": 127
    },
    {
      "midi": 42,
      "hit": false,
      "t": 16496.412074999982,
      "d": 53.571374999999534,
      "v": 100
    },
    {
      "midi": 70,
      "hit": false,
      "t": 16496.412074999982,
      "d": 53.571374999999534,
      "v": 100
    },
    {
      "midi": 39,
      "hit": false,
      "t": 16496.412075,
      "d": 192.85695000000123,
      "v": 115
    },
    {
      "midi": 59,
      "hit": false,
      "t": 16496.412075,
      "d": 642.8565000000017,
      "v": 100
    },
    {
      "midi": 64,
      "hit": false,
      "t": 16496.412075,
      "d": 642.8565000000017,
      "v": 100
    },
    {
      "midi": 68,
      "hit": false,
      "t": 16496.412075,
      "d": 642.8565000000017,
      "v": 100
    },
    {
      "midi": 12,
      "hit": false,
      "t": 16710.69757499998,
      "d": 53.571374999999534,
      "v": 110
    },
    {
      "midi": 42,
      "hit": false,
      "t": 16710.69757499998,
      "d": 53.571374999999534,
      "v": 100
    },
    {
      "midi": 117,
      "hit": false,
      "t": 16710.69757499998,
      "d": 53.571374999999534,
      "v": 110
    },
    {
      "midi": 76,
      "hit": false,
      "t": 16710.697575000002,
      "d": 385.71389999999883,
      "v": 127
    },
    {
      "midi": 40,
      "hit": false,
      "t": 16710.697575000002,
      "d": 385.71389999999883,
      "v": 115
    },
    {
      "midi": 42,
      "hit": false,
      "t": 16817.84032499998,
      "d": 53.571374999999534,
      "v": 100
    },
    {
      "midi": 42,
      "hit": false,
      "t": 16924.98307499998,
      "d": 53.571374999999534,
      "v": 100
    },
    {
      "midi": 70,
      "hit": false,
      "t": 16924.98307499998,
      "d": 53.571374999999534,
      "v": 100
    },
    {
      "midi": 12,
      "hit": false,
      "t": 17139.268574999976,
      "d": 53.571374999999534,
      "v": 110
    },
    {
      "midi": 42,
      "hit": false,
      "t": 17139.268574999976,
      "d": 53.571374999999534,
      "v": 100
    },
    {
      "midi": 39,
      "hit": false,
      "t": 17139.268575,
      "d": 428.5709999999999,
      "v": 100
    },
    {
      "midi": 39,
      "hit": false,
      "t": 17139.268575000002,
      "d": 428.5709999999999,
      "v": 100
    },
    {
      "midi": 78,
      "hit": false,
      "t": 17139.268575000002,
      "d": 192.85695000000123,
      "v": 127
    },
    {
      "midi": 39,
      "hit": false,
      "t": 17139.268575000002,
      "d": 385.71389999999883,
      "v": 115
    },
    {
      "midi": 63,
      "hit": false,
      "t": 17139.268575000002,
      "d": 428.5709999999999,
      "v": 100
    },
    {
      "midi": 58,
      "hit": false,
      "t": 17139.268575000002,
      "d": 428.5709999999999,
      "v": 100
    },
    {
      "midi": 66,
      "hit": false,
      "t": 17139.268575000002,
      "d": 428.5709999999999,
      "v": 100
    },
    {
      "midi": 70,
      "hit": false,
      "t": 17353.554074999975,
      "d": 53.571374999999534,
      "v": 100
    },
    {
      "midi": 42,
      "hit": false,
      "t": 17353.554074999975,
      "d": 53.571374999999534,
      "v": 100
    },
    {
      "midi": 80,
      "hit": false,
      "t": 17353.554075000004,
      "d": 192.85695000000123,
      "v": 127
    },
    {
      "midi": 12,
      "hit": false,
      "t": 17567.839574999973,
      "d": 53.571374999999534,
      "v": 110
    },
    {
      "midi": 42,
      "hit": false,
      "t": 17567.839574999973,
      "d": 53.571374999999534,
      "v": 100
    },
    {
      "midi": 117,
      "hit": false,
      "t": 17567.839574999973,
      "d": 53.571374999999534,
      "v": 110
    },
    {
      "midi": 30,
      "hit": false,
      "t": 17567.839575,
      "d": 192.85695000000123,
      "v": 115
    },
    {
      "midi": 82,
      "hit": false,
      "t": 17567.839575000005,
      "d": 192.85695000000123,
      "v": 127
    },
    {
      "midi": 42,
      "hit": false,
      "t": 17674.98232499997,
      "d": 53.571374999999534,
      "v": 100
    },
    {
      "midi": 42,
      "hit": false,
      "t": 17782.12507499997,
      "d": 53.571374999999534,
      "v": 100
    },
    {
      "midi": 70,
      "hit": false,
      "t": 17782.12507499997,
      "d": 53.571374999999534,
      "v": 100
    },
    {
      "midi": 44,
      "hit": false,
      "t": 17782.125075,
      "d": 385.71389999999883,
      "v": 100
    },
    {
      "midi": 44,
      "hit": false,
      "t": 17782.125075000004,
      "d": 385.71389999999883,
      "v": 100
    },
    {
      "midi": 32,
      "hit": false,
      "t": 17782.125075000004,
      "d": 385.71389999999883,
      "v": 115
    },
    {
      "midi": 63,
      "hit": false,
      "t": 17782.125075000004,
      "d": 428.5709999999999,
      "v": 100
    },
    {
      "midi": 59,
      "hit": false,
      "t": 17782.125075000004,
      "d": 428.5709999999999,
      "v": 100
    },
    {
      "midi": 56,
      "hit": false,
      "t": 17782.125075000004,
      "d": 428.5709999999999,
      "v": 100
    },
    {
      "midi": 83,
      "hit": false,
      "t": 17782.125075000007,
      "d": 192.85695000000123,
      "v": 127
    },
    {
      "midi": 12,
      "hit": false,
      "t": 17996.41057499997,
      "d": 53.571374999999534,
      "v": 110
    },
    {
      "midi": 42,
      "hit": false,
      "t": 17996.41057499997,
      "d": 53.571374999999534,
      "v": 100
    },
    {
      "midi": 42,
      "hit": false,
      "t": 18210.696074999967,
      "d": 53.571374999999534,
      "v": 100
    },
    {
      "midi": 70,
      "hit": false,
      "t": 18210.696074999967,
      "d": 53.571374999999534,
      "v": 100
    },
    {
      "midi": 88,
      "hit": false,
      "t": 18210.696075,
      "d": 214.28550000000178,
      "v": 80
    },
    {
      "midi": 76,
      "hit": false,
      "t": 18210.696075,
      "d": 214.28550000000178,
      "v": 80
    },
    {
      "midi": 44,
      "hit": false,
      "t": 18210.696075,
      "d": 192.85695000000123,
      "v": 100
    },
    {
      "midi": 88,
      "hit": false,
      "t": 18210.696075,
      "d": 214.28550000000178,
      "v": 110
    },
    {
      "midi": 44,
      "hit": false,
      "t": 18210.696075000003,
      "d": 192.85695000000123,
      "v": 100
    },
    {
      "midi": 30,
      "hit": false,
      "t": 18210.696075000003,
      "d": 192.85695000000123,
      "v": 115
    },
    {
      "midi": 63,
      "hit": false,
      "t": 18210.696075000003,
      "d": 107.14274999999907,
      "v": 100
    },
    {
      "midi": 59,
      "hit": false,
      "t": 18210.696075000003,
      "d": 107.14274999999907,
      "v": 100
    },
    {
      "midi": 56,
      "hit": false,
      "t": 18210.696075000003,
      "d": 107.14274999999907,
      "v": 100
    },
    {
      "midi": 12,
      "hit": false,
      "t": 18424.981574999965,
      "d": 53.571374999999534,
      "v": 110
    },
    {
      "midi": 42,
      "hit": false,
      "t": 18424.981574999965,
      "d": 53.571374999999534,
      "v": 100
    },
    {
      "midi": 117,
      "hit": false,
      "t": 18424.981574999965,
      "d": 53.571374999999534,
      "v": 110
    },
    {
      "midi": 87,
      "hit": false,
      "t": 18424.981575,
      "d": 214.28550000000178,
      "v": 80
    },
    {
      "midi": 75,
      "hit": false,
      "t": 18424.981575,
      "d": 214.28550000000178,
      "v": 80
    },
    {
      "midi": 44,
      "hit": false,
      "t": 18424.981575,
      "d": 53.571374999999534,
      "v": 100
    },
    {
      "midi": 87,
      "hit": false,
      "t": 18424.981575,
      "d": 214.28550000000178,
      "v": 110
    },
    {
      "midi": 44,
      "hit": false,
      "t": 18424.981575000005,
      "d": 53.571374999999534,
      "v": 100
    },
    {
      "midi": 32,
      "hit": false,
      "t": 18424.981575000005,
      "d": 192.85695000000123,
      "v": 115
    },
    {
      "midi": 42,
      "hit": false,
      "t": 18532.124324999964,
      "d": 53.571374999999534,
      "v": 100
    },
    {
      "midi": 42,
      "hit": false,
      "t": 18639.267074999963,
      "d": 53.571374999999534,
      "v": 100
    },
    {
      "midi": 70,
      "hit": false,
      "t": 18639.267074999963,
      "d": 53.571374999999534,
      "v": 100
    },
    {
      "midi": 44,
      "hit": false,
      "t": 18639.267075,
      "d": 53.571374999999534,
      "v": 100
    },
    {
      "midi": 85,
      "hit": false,
      "t": 18639.267075000003,
      "d": 214.28550000000178,
      "v": 80
    },
    {
      "midi": 73,
      "hit": false,
      "t": 18639.267075000003,
      "d": 214.28550000000178,
      "v": 80
    },
    {
      "midi": 44,
      "hit": false,
      "t": 18639.267075000003,
      "d": 53.571374999999534,
      "v": 100
    },
    {
      "midi": 85,
      "hit": false,
      "t": 18639.267075000003,
      "d": 214.28550000000178,
      "v": 110
    },
    {
      "midi": 63,
      "hit": false,
      "t": 18639.267075000003,
      "d": 214.28550000000178,
      "v": 100
    },
    {
      "midi": 59,
      "hit": false,
      "t": 18639.267075000003,
      "d": 214.28550000000178,
      "v": 100
    },
    {
      "midi": 56,
      "hit": false,
      "t": 18639.267075000003,
      "d": 214.28550000000178,
      "v": 100
    },
    {
      "midi": 71,
      "hit": false,
      "t": 18639.267075000007,
      "d": 192.85695000000123,
      "v": 127
    },
    {
      "midi": 35,
      "hit": false,
      "t": 18639.267075000007,
      "d": 192.85695000000123,
      "v": 115
    },
    {
      "midi": 12,
      "hit": false,
      "t": 18853.55257499996,
      "d": 53.571374999999534,
      "v": 110
    },
    {
      "midi": 42,
      "hit": false,
      "t": 18853.55257499996,
      "d": 53.571374999999534,
      "v": 100
    },
    {
      "midi": 44,
      "hit": false,
      "t": 18853.552574999998,
      "d": 1678.5697499999987,
      "v": 100
    },
    {
      "midi": 68,
      "hit": false,
      "t": 18853.552574999998,
      "d": 1714.2839999999997,
      "v": 110
    },
    {
      "midi": 71,
      "hit": false,
      "t": 18853.552574999998,
      "d": 1714.2839999999997,
      "v": 110
    },
    {
      "midi": 64,
      "hit": false,
      "t": 18853.552574999998,
      "d": 1714.2839999999997,
      "v": 110
    },
    {
      "midi": 44,
      "hit": false,
      "t": 18853.552575,
      "d": 1678.5697499999987,
      "v": 100
    },
    {
      "midi": 83,
      "hit": false,
      "t": 18853.552575000005,
      "d": 1285.7129999999997,
      "v": 80
    },
    {
      "midi": 71,
      "hit": false,
      "t": 18853.552575000005,
      "d": 1285.7129999999997,
      "v": 80
    },
    {
      "midi": 83,
      "hit": false,
      "t": 18853.552575000005,
      "d": 214.28550000000178,
      "v": 110
    },
    {
      "midi": 64,
      "hit": false,
      "t": 18853.552575000005,
      "d": 1714.2839999999997,
      "v": 100
    },
    {
      "midi": 59,
      "hit": false,
      "t": 18853.552575000005,
      "d": 1714.2839999999997,
      "v": 100
    },
    {
      "midi": 56,
      "hit": false,
      "t": 18853.552575000005,
      "d": 1714.2839999999997,
      "v": 100
    },
    {
      "midi": 75,
      "hit": false,
      "t": 18853.55257500001,
      "d": 385.71389999999883,
      "v": 127
    },
    {
      "midi": 37,
      "hit": false,
      "t": 18853.55257500001,
      "d": 385.71389999999883,
      "v": 115
    },
    {
      "midi": 42,
      "hit": false,
      "t": 19067.83807499996,
      "d": 53.571374999999534,
      "v": 100
    },
    {
      "midi": 70,
      "hit": false,
      "t": 19067.83807499996,
      "d": 53.571374999999534,
      "v": 100
    },
    {
      "midi": 12,
      "hit": false,
      "t": 19282.123574999958,
      "d": 53.571374999999534,
      "v": 110
    },
    {
      "midi": 42,
      "hit": false,
      "t": 19282.123574999958,
      "d": 53.571374999999534,
      "v": 100
    },
    {
      "midi": 117,
      "hit": false,
      "t": 19282.123574999958,
      "d": 53.571374999999534,
      "v": 110
    },
    {
      "midi": 73,
      "hit": false,
      "t": 19282.12357500001,
      "d": 385.71389999999883,
      "v": 127
    },
    {
      "midi": 37,
      "hit": false,
      "t": 19282.12357500001,
      "d": 192.85695000000123,
      "v": 115
    },
    {
      "midi": 42,
      "hit": false,
      "t": 19389.266324999957,
      "d": 53.571374999999534,
      "v": 100
    },
    {
      "midi": 42,
      "hit": false,
      "t": 19496.409074999956,
      "d": 53.571374999999534,
      "v": 100
    },
    {
      "midi": 70,
      "hit": false,
      "t": 19496.409074999956,
      "d": 53.571374999999534,
      "v": 100
    },
    {
      "midi": 32,
      "hit": false,
      "t": 19496.40907500001,
      "d": 192.85695000000123,
      "v": 115
    },
    {
      "midi": 12,
      "hit": false,
      "t": 19710.694574999954,
      "d": 53.571374999999534,
      "v": 110
    },
    {
      "midi": 42,
      "hit": false,
      "t": 19710.694574999954,
      "d": 53.571374999999534,
      "v": 100
    },
    {
      "midi": 71,
      "hit": false,
      "t": 19710.69457500001,
      "d": 385.71389999999883,
      "v": 127
    },
    {
      "midi": 35,
      "hit": false,
      "t": 19710.694575000012,
      "d": 192.85695000000123,
      "v": 115
    },
    {
      "midi": 42,
      "hit": false,
      "t": 19924.980074999952,
      "d": 53.571374999999534,
      "v": 100
    },
    {
      "midi": 70,
      "hit": false,
      "t": 19924.980074999952,
      "d": 53.571374999999534,
      "v": 100
    },
    {
      "midi": 37,
      "hit": false,
      "t": 19924.980075000014,
      "d": 385.71389999999883,
      "v": 115
    },
    {
      "midi": 12,
      "hit": false,
      "t": 20139.26557499995,
      "d": 53.571374999999534,
      "v": 110
    },
    {
      "midi": 42,
      "hit": false,
      "t": 20139.26557499995,
      "d": 53.571374999999534,
      "v": 100
    },
    {
      "midi": 117,
      "hit": false,
      "t": 20139.26557499995,
      "d": 53.571374999999534,
      "v": 110
    },
    {
      "midi": 83,
      "hit": false,
      "t": 20139.265575000005,
      "d": 71.4285000000018,
      "v": 80
    },
    {
      "midi": 71,
      "hit": false,
      "t": 20139.265575000005,
      "d": 71.4285000000018,
      "v": 80
    },
    {
      "midi": 73,
      "hit": false,
      "t": 20139.26557500001,
      "d": 385.71389999999883,
      "v": 127
    },
    {
      "midi": 85,
      "hit": false,
      "t": 20210.694075000007,
      "d": 71.4285000000018,
      "v": 80
    },
    {
      "midi": 73,
      "hit": false,
      "t": 20210.694075000007,
      "d": 71.4285000000018,
      "v": 80
    },
    {
      "midi": 42,
      "hit": false,
      "t": 20246.40832499995,
      "d": 53.571374999999534,
      "v": 100
    },
    {
      "midi": 87,
      "hit": false,
      "t": 20282.12257500001,
      "d": 71.4285000000018,
      "v": 80
    },
    {
      "midi": 75,
      "hit": false,
      "t": 20282.12257500001,
      "d": 71.4285000000018,
      "v": 80
    },
    {
      "midi": 42,
      "hit": false,
      "t": 20353.55107499995,
      "d": 53.571374999999534,
      "v": 100
    },
    {
      "midi": 70,
      "hit": false,
      "t": 20353.55107499995,
      "d": 53.571374999999534,
      "v": 100
    },
    {
      "midi": 90,
      "hit": false,
      "t": 20353.55107500001,
      "d": 71.4285000000018,
      "v": 80
    },
    {
      "midi": 78,
      "hit": false,
      "t": 20353.55107500001,
      "d": 71.4285000000018,
      "v": 80
    },
    {
      "midi": 32,
      "hit": false,
      "t": 20353.551075000014,
      "d": 192.85695000000123,
      "v": 115
    },
    {
      "midi": 92,
      "hit": false,
      "t": 20424.979575000012,
      "d": 71.4285000000018,
      "v": 80
    },
    {
      "midi": 80,
      "hit": false,
      "t": 20424.979575000012,
      "d": 71.4285000000018,
      "v": 80
    },
    {
      "midi": 94,
      "hit": false,
      "t": 20496.408075000014,
      "d": 71.4285000000018,
      "v": 80
    },
    {
      "midi": 82,
      "hit": false,
      "t": 20496.408075000014,
      "d": 71.4285000000018,
      "v": 80
    },
    {
      "midi": 12,
      "hit": false,
      "t": 20567.836574999947,
      "d": 53.571374999999534,
      "v": 110
    },
    {
      "midi": 42,
      "hit": false,
      "t": 20567.836574999947,
      "d": 53.571374999999534,
      "v": 100
    },
    {
      "midi": 57,
      "hit": false,
      "t": 20567.836574999947,
      "d": 53.571374999999534,
      "v": 110
    },
    {
      "midi": 40,
      "hit": false,
      "t": 20567.836574999998,
      "d": 814.2848999999987,
      "v": 100
    },
    {
      "midi": 74,
      "hit": false,
      "t": 20567.836574999998,
      "d": 857.1419999999998,
      "v": 110
    },
    {
      "midi": 71,
      "hit": false,
      "t": 20567.836574999998,
      "d": 857.1419999999998,
      "v": 110
    },
    {
      "midi": 64,
      "hit": false,
      "t": 20567.836574999998,
      "d": 857.1419999999998,
      "v": 110
    },
    {
      "midi": 40,
      "hit": false,
      "t": 20567.836575,
      "d": 814.2848999999987,
      "v": 100
    },
    {
      "midi": 59,
      "hit": false,
      "t": 20567.836575000005,
      "d": 857.1419999999998,
      "v": 100
    },
    {
      "midi": 64,
      "hit": false,
      "t": 20567.836575000005,
      "d": 857.1419999999998,
      "v": 100
    },
    {
      "midi": 56,
      "hit": false,
      "t": 20567.836575000005,
      "d": 857.1419999999998,
      "v": 100
    },
    {
      "midi": 95,
      "hit": false,
      "t": 20567.83657500001,
      "d": 214.28550000000178,
      "v": 110
    },
    {
      "midi": 78,
      "hit": false,
      "t": 20567.83657500001,
      "d": 385.71389999999883,
      "v": 127
    },
    {
      "midi": 81,
      "hit": false,
      "t": 20567.83657500001,
      "d": 385.71389999999883,
      "v": 90
    },
    {
      "midi": 95,
      "hit": false,
      "t": 20567.836575000016,
      "d": 857.1419999999998,
      "v": 80
    },
    {
      "midi": 83,
      "hit": false,
      "t": 20567.836575000016,
      "d": 857.1419999999998,
      "v": 80
    },
    {
      "midi": 40,
      "hit": false,
      "t": 20567.836575000016,
      "d": 192.85695000000123,
      "v": 115
    },
    {
      "midi": 70,
      "hit": false,
      "t": 20782.122074999945,
      "d": 53.571374999999534,
      "v": 100
    },
    {
      "midi": 42,
      "hit": false,
      "t": 20782.122074999945,
      "d": 53.571374999999534,
      "v": 100
    },
    {
      "midi": 28,
      "hit": false,
      "t": 20782.122075000018,
      "d": 192.85695000000123,
      "v": 115
    },
    {
      "midi": 12,
      "hit": false,
      "t": 20996.407574999943,
      "d": 53.571374999999534,
      "v": 110
    },
    {
      "midi": 42,
      "hit": false,
      "t": 20996.407574999943,
      "d": 53.571374999999534,
      "v": 100
    },
    {
      "midi": 117,
      "hit": false,
      "t": 20996.407574999943,
      "d": 53.571374999999534,
      "v": 110
    },
    {
      "midi": 76,
      "hit": false,
      "t": 20996.40757500001,
      "d": 385.71389999999883,
      "v": 127
    },
    {
      "midi": 79,
      "hit": false,
      "t": 20996.40757500001,
      "d": 385.71389999999883,
      "v": 90
    },
    {
      "midi": 35,
      "hit": false,
      "t": 20996.40757500002,
      "d": 192.85695000000123,
      "v": 115
    },
    {
      "midi": 42,
      "hit": false,
      "t": 21103.550324999942,
      "d": 53.571374999999534,
      "v": 100
    },
    {
      "midi": 42,
      "hit": false,
      "t": 21210.69307499994,
      "d": 53.571374999999534,
      "v": 100
    },
    {
      "midi": 70,
      "hit": false,
      "t": 21210.69307499994,
      "d": 53.571374999999534,
      "v": 100
    },
    {
      "midi": 40,
      "hit": false,
      "t": 21210.69307500002,
      "d": 192.85695000000123,
      "v": 115
    },
    {
      "midi": 12,
      "hit": false,
      "t": 21424.978574999943,
      "d": 53.571374999999534,
      "v": 110
    },
    {
      "midi": 42,
      "hit": false,
      "t": 21424.978574999943,
      "d": 53.571374999999534,
      "v": 100
    },
    {
      "midi": 57,
      "hit": false,
      "t": 21424.978574999943,
      "d": 53.571374999999534,
      "v": 110
    },
    {
      "midi": 42,
      "hit": false,
      "t": 21424.978574999997,
      "d": 814.2848999999987,
      "v": 100
    },
    {
      "midi": 73,
      "hit": false,
      "t": 21424.978574999997,
      "d": 857.1419999999998,
      "v": 110
    },
    {
      "midi": 76,
      "hit": false,
      "t": 21424.978574999997,
      "d": 857.1419999999998,
      "v": 110
    },
    {
      "midi": 66,
      "hit": false,
      "t": 21424.978574999997,
      "d": 857.1419999999998,
      "v": 110
    },
    {
      "midi": 42,
      "hit": false,
      "t": 21424.978575,
      "d": 814.2848999999987,
      "v": 100
    },
    {
      "midi": 54,
      "hit": false,
      "t": 21424.978575000005,
      "d": 857.1419999999998,
      "v": 100
    },
    {
      "midi": 61,
      "hit": false,
      "t": 21424.978575000005,
      "d": 857.1419999999998,
      "v": 100
    },
    {
      "midi": 64,
      "hit": false,
      "t": 21424.978575000005,
      "d": 857.1419999999998,
      "v": 100
    },
    {
      "midi": 75,
      "hit": false,
      "t": 21424.97857500001,
      "d": 385.71389999999883,
      "v": 127
    },
    {
      "midi": 78,
      "hit": false,
      "t": 21424.97857500001,
      "d": 385.71389999999883,
      "v": 90
    },
    {
      "midi": 93,
      "hit": false,
      "t": 21424.978575000012,
      "d": 214.28550000000178,
      "v": 110
    },
    {
      "midi": 93,
      "hit": false,
      "t": 21424.978575000016,
      "d": 857.1419999999998,
      "v": 80
    },
    {
      "midi": 81,
      "hit": false,
      "t": 21424.978575000016,
      "d": 857.1419999999998,
      "v": 80
    },
    {
      "midi": 42,
      "hit": false,
      "t": 21424.978575000023,
      "d": 192.85695000000123,
      "v": 115
    },
    {
      "midi": 42,
      "hit": false,
      "t": 21639.26407499994,
      "d": 53.571374999999534,
      "v": 100
    },
    {
      "midi": 70,
      "hit": false,
      "t": 21639.26407499994,
      "d": 53.571374999999534,
      "v": 100
    },
    {
      "midi": 30,
      "hit": false,
      "t": 21639.264075000025,
      "d": 192.85695000000123,
      "v": 115
    },
    {
      "midi": 12,
      "hit": false,
      "t": 21853.54957499994,
      "d": 53.571374999999534,
      "v": 110
    },
    {
      "midi": 42,
      "hit": false,
      "t": 21853.54957499994,
      "d": 53.571374999999534,
      "v": 100
    },
    {
      "midi": 117,
      "hit": false,
      "t": 21853.54957499994,
      "d": 53.571374999999534,
      "v": 110
    },
    {
      "midi": 80,
      "hit": false,
      "t": 21853.549574999997,
      "d": 53.571374999999534,
      "v": 110
    },
    {
      "midi": 73,
      "hit": false,
      "t": 21853.54957500001,
      "d": 385.71389999999883,
      "v": 127
    },
    {
      "midi": 76,
      "hit": false,
      "t": 21853.54957500001,
      "d": 385.71389999999883,
      "v": 90
    },
    {
      "midi": 34,
      "hit": false,
      "t": 21853.549575000026,
      "d": 385.71389999999883,
      "v": 115
    },
    {
      "midi": 42,
      "hit": false,
      "t": 21960.692324999938,
      "d": 53.571374999999534,
      "v": 100
    },
    {
      "midi": 42,
      "hit": false,
      "t": 22067.835074999937,
      "d": 53.571374999999534,
      "v": 100
    },
    {
      "midi": 70,
      "hit": false,
      "t": 22067.835074999937,
      "d": 53.571374999999534,
      "v": 100
    },
    {
      "midi": 12,
      "hit": false,
      "t": 22282.120574999935,
      "d": 53.571374999999534,
      "v": 110
    },
    {
      "midi": 57,
      "hit": false,
      "t": 22282.120574999935,
      "d": 53.571374999999534,
      "v": 110
    },
    {
      "midi": 42,
      "hit": false,
      "t": 22282.120574999935,
      "d": 53.571374999999534,
      "v": 100
    },
    {
      "midi": 47,
      "hit": false,
      "t": 22282.120574999997,
      "d": 1678.5697499999987,
      "v": 100
    },
    {
      "midi": 47,
      "hit": false,
      "t": 22282.120575,
      "d": 1678.5697499999987,
      "v": 100
    },
    {
      "midi": 78,
      "hit": false,
      "t": 22282.120575,
      "d": 53.571374999999534,
      "v": 90
    },
    {
      "midi": 83,
      "hit": false,
      "t": 22282.120575,
      "d": 53.571374999999534,
      "v": 90
    },
    {
      "midi": 63,
      "hit": false,
      "t": 22282.120575000004,
      "d": 1714.2839999999997,
      "v": 100
    },
    {
      "midi": 59,
      "hit": false,
      "t": 22282.120575000004,
      "d": 1714.2839999999997,
      "v": 100
    },
    {
      "midi": 66,
      "hit": false,
      "t": 22282.120575000004,
      "d": 1714.2839999999997,
      "v": 100
    },
    {
      "midi": 71,
      "hit": false,
      "t": 22282.120575000008,
      "d": 1499.9985000000015,
      "v": 127
    },
    {
      "midi": 75,
      "hit": false,
      "t": 22282.120575000008,
      "d": 1499.9985000000015,
      "v": 90
    },
    {
      "midi": 90,
      "hit": false,
      "t": 22282.120575000015,
      "d": 8142.849000000002,
      "v": 80
    },
    {
      "midi": 78,
      "hit": false,
      "t": 22282.120575000015,
      "d": 8142.849000000002,
      "v": 80
    },
    {
      "midi": 35,
      "hit": false,
      "t": 22282.120575000026,
      "d": 385.71389999999883,
      "v": 115
    },
    {
      "midi": 78,
      "hit": false,
      "t": 22389.263325,
      "d": 53.571374999995896,
      "v": 90
    },
    {
      "midi": 83,
      "hit": false,
      "t": 22389.263325,
      "d": 53.571374999995896,
      "v": 90
    },
    {
      "midi": 42,
      "hit": false,
      "t": 22496.406074999933,
      "d": 53.571374999999534,
      "v": 100
    },
    {
      "midi": 70,
      "hit": false,
      "t": 22496.406074999933,
      "d": 53.571374999999534,
      "v": 100
    },
    {
      "midi": 78,
      "hit": false,
      "t": 22496.406075000003,
      "d": 53.571374999999534,
      "v": 90
    },
    {
      "midi": 83,
      "hit": false,
      "t": 22496.406075000003,
      "d": 53.571374999999534,
      "v": 90
    },
    {
      "midi": 78,
      "hit": false,
      "t": 22603.548824999998,
      "d": 53.571374999999534,
      "v": 90
    },
    {
      "midi": 83,
      "hit": false,
      "t": 22603.548824999998,
      "d": 53.571374999999534,
      "v": 90
    },
    {
      "midi": 12,
      "hit": false,
      "t": 22710.69157499993,
      "d": 53.571374999999534,
      "v": 110
    },
    {
      "midi": 42,
      "hit": false,
      "t": 22710.69157499993,
      "d": 53.571374999999534,
      "v": 100
    },
    {
      "midi": 117,
      "hit": false,
      "t": 22710.69157499993,
      "d": 53.571374999999534,
      "v": 110
    },
    {
      "midi": 83,
      "hit": false,
      "t": 22710.691575,
      "d": 53.571374999999534,
      "v": 90
    },
    {
      "midi": 78,
      "hit": false,
      "t": 22710.691575,
      "d": 53.571374999999534,
      "v": 90
    },
    {
      "midi": 35,
      "hit": false,
      "t": 22710.691575000026,
      "d": 289.28542500000185,
      "v": 115
    },
    {
      "midi": 42,
      "hit": false,
      "t": 22817.83432499993,
      "d": 53.571374999999534,
      "v": 100
    },
    {
      "midi": 78,
      "hit": false,
      "t": 22817.834324999996,
      "d": 53.571374999999534,
      "v": 90
    },
    {
      "midi": 83,
      "hit": false,
      "t": 22817.834324999996,
      "d": 53.571374999999534,
      "v": 90
    },
    {
      "midi": 42,
      "hit": false,
      "t": 22924.97707499993,
      "d": 53.571374999999534,
      "v": 100
    },
    {
      "midi": 70,
      "hit": false,
      "t": 22924.97707499993,
      "d": 53.571374999999534,
      "v": 100
    },
    {
      "midi": 78,
      "hit": false,
      "t": 22924.977075000003,
      "d": 53.571374999999534,
      "v": 90
    },
    {
      "midi": 83,
      "hit": false,
      "t": 22924.977075000003,
      "d": 53.571374999999534,
      "v": 90
    },
    {
      "midi": 66,
      "hit": false,
      "t": 22924.977075000003,
      "d": 107.14274999999907,
      "v": 115
    },
    {
      "midi": 75,
      "hit": false,
      "t": 22924.977075000003,
      "d": 107.14274999999907,
      "v": 115
    },
    {
      "midi": 87,
      "hit": false,
      "t": 22924.977075000013,
      "d": 107.14274999999907,
      "v": 80
    },
    {
      "midi": 78,
      "hit": false,
      "t": 23032.119824999998,
      "d": 53.571374999999534,
      "v": 90
    },
    {
      "midi": 83,
      "hit": false,
      "t": 23032.119824999998,
      "d": 53.571374999999534,
      "v": 90
    },
    {
      "midi": 30,
      "hit": false,
      "t": 23032.119825000027,
      "d": 96.42847500000062,
      "v": 115
    },
    {
      "midi": 12,
      "hit": false,
      "t": 23139.262574999928,
      "d": 53.571374999999534,
      "v": 110
    },
    {
      "midi": 42,
      "hit": false,
      "t": 23139.262574999928,
      "d": 53.571374999999534,
      "v": 100
    },
    {
      "midi": 78,
      "hit": false,
      "t": 23139.262575,
      "d": 53.571374999999534,
      "v": 90
    },
    {
      "midi": 83,
      "hit": false,
      "t": 23139.262575,
      "d": 53.571374999999534,
      "v": 90
    },
    {
      "midi": 68,
      "hit": false,
      "t": 23139.262575,
      "d": 107.14274999999907,
      "v": 115
    },
    {
      "midi": 76,
      "hit": false,
      "t": 23139.262575,
      "d": 107.14274999999907,
      "v": 115
    },
    {
      "midi": 88,
      "hit": false,
      "t": 23139.26257500001,
      "d": 107.14274999999907,
      "v": 80
    },
    {
      "midi": 32,
      "hit": false,
      "t": 23139.262575000026,
      "d": 192.85695000000123,
      "v": 115
    },
    {
      "midi": 78,
      "hit": false,
      "t": 23246.405324999992,
      "d": 53.571374999999534,
      "v": 90
    },
    {
      "midi": 83,
      "hit": false,
      "t": 23246.405324999992,
      "d": 53.571374999999534,
      "v": 90
    },
    {
      "midi": 42,
      "hit": false,
      "t": 23353.548074999926,
      "d": 53.571374999999534,
      "v": 100
    },
    {
      "midi": 70,
      "hit": false,
      "t": 23353.548074999926,
      "d": 53.571374999999534,
      "v": 100
    },
    {
      "midi": 78,
      "hit": false,
      "t": 23353.548075,
      "d": 53.571374999999534,
      "v": 90
    },
    {
      "midi": 83,
      "hit": false,
      "t": 23353.548075,
      "d": 53.571374999999534,
      "v": 90
    },
    {
      "midi": 69,
      "hit": false,
      "t": 23353.548075,
      "d": 107.14274999999907,
      "v": 115
    },
    {
      "midi": 78,
      "hit": false,
      "t": 23353.548075,
      "d": 107.14274999999907,
      "v": 115
    },
    {
      "midi": 90,
      "hit": false,
      "t": 23353.54807500001,
      "d": 107.14274999999907,
      "v": 80
    },
    {
      "midi": 35,
      "hit": false,
      "t": 23353.548075000028,
      "d": 192.85695000000123,
      "v": 115
    },
    {
      "midi": 78,
      "hit": false,
      "t": 23460.69082499999,
      "d": 53.571374999999534,
      "v": 90
    },
    {
      "midi": 83,
      "hit": false,
      "t": 23460.69082499999,
      "d": 53.571374999999534,
      "v": 90
    },
    {
      "midi": 12,
      "hit": false,
      "t": 23567.833574999924,
      "d": 53.571374999999534,
      "v": 110
    },
    {
      "midi": 42,
      "hit": false,
      "t": 23567.833574999924,
      "d": 53.571374999999534,
      "v": 100
    },
    {
      "midi": 117,
      "hit": false,
      "t": 23567.833574999924,
      "d": 53.571374999999534,
      "v": 110
    },
    {
      "midi": 78,
      "hit": false,
      "t": 23567.833575,
      "d": 53.571374999999534,
      "v": 90
    },
    {
      "midi": 83,
      "hit": false,
      "t": 23567.833575,
      "d": 53.571374999999534,
      "v": 90
    },
    {
      "midi": 30,
      "hit": false,
      "t": 23567.83357500003,
      "d": 385.71389999999883,
      "v": 115
    },
    {
      "midi": 42,
      "hit": false,
      "t": 23674.976324999923,
      "d": 53.571374999999534,
      "v": 100
    },
    {
      "midi": 78,
      "hit": false,
      "t": 23674.97632499999,
      "d": 53.571374999999534,
      "v": 90
    },
    {
      "midi": 83,
      "hit": false,
      "t": 23674.97632499999,
      "d": 53.571374999999534,
      "v": 90
    },
    {
      "midi": 42,
      "hit": false,
      "t": 23782.119074999922,
      "d": 53.571374999999534,
      "v": 100
    },
    {
      "midi": 70,
      "hit": false,
      "t": 23782.119074999922,
      "d": 53.571374999999534,
      "v": 100
    },
    {
      "midi": 78,
      "hit": false,
      "t": 23782.119075,
      "d": 53.571374999999534,
      "v": 90
    },
    {
      "midi": 83,
      "hit": false,
      "t": 23782.119075,
      "d": 53.571374999999534,
      "v": 90
    },
    {
      "midi": 71,
      "hit": false,
      "t": 23782.119075,
      "d": 107.14274999999907,
      "v": 115
    },
    {
      "midi": 80,
      "hit": false,
      "t": 23782.119075,
      "d": 107.14274999999907,
      "v": 115
    },
    {
      "midi": 92,
      "hit": false,
      "t": 23782.11907500001,
      "d": 107.14274999999907,
      "v": 80
    },
    {
      "midi": 78,
      "hit": false,
      "t": 23889.26182499999,
      "d": 53.571374999999534,
      "v": 90
    },
    {
      "midi": 83,
      "hit": false,
      "t": 23889.26182499999,
      "d": 53.571374999999534,
      "v": 90
    },
    {
      "midi": 12,
      "hit": false,
      "t": 23996.40457499992,
      "d": 53.571374999999534,
      "v": 110
    },
    {
      "midi": 42,
      "hit": false,
      "t": 23996.40457499992,
      "d": 53.571374999999534,
      "v": 100
    },
    {
      "midi": 40,
      "hit": false,
      "t": 23996.404574999997,
      "d": 1678.5697499999987,
      "v": 100
    },
    {
      "midi": 40,
      "hit": false,
      "t": 23996.404575,
      "d": 1678.5697499999987,
      "v": 100
    },
    {
      "midi": 78,
      "hit": false,
      "t": 23996.404575,
      "d": 53.571374999999534,
      "v": 90
    },
    {
      "midi": 83,
      "hit": false,
      "t": 23996.404575,
      "d": 53.571374999999534,
      "v": 90
    },
    {
      "midi": 64,
      "hit": false,
      "t": 23996.404575000004,
      "d": 1714.2839999999997,
      "v": 100
    },
    {
      "midi": 59,
      "hit": false,
      "t": 23996.404575000004,
      "d": 1714.2839999999997,
      "v": 100
    },
    {
      "midi": 68,
      "hit": false,
      "t": 23996.404575000004,
      "d": 1714.2839999999997,
      "v": 100
    },
    {
      "midi": 28,
      "hit": false,
      "t": 23996.40457500003,
      "d": 578.5708500000001,
      "v": 115
    },
    {
      "midi": 78,
      "hit": false,
      "t": 24103.547324999992,
      "d": 53.571374999999534,
      "v": 90
    },
    {
      "midi": 83,
      "hit": false,
      "t": 24103.547324999992,
      "d": 53.571374999999534,
      "v": 90
    },
    {
      "midi": 70,
      "hit": false,
      "t": 24210.69007499992,
      "d": 53.571374999999534,
      "v": 100
    },
    {
      "midi": 42,
      "hit": false,
      "t": 24210.69007499992,
      "d": 53.571374999999534,
      "v": 100
    },
    {
      "midi": 78,
      "hit": false,
      "t": 24210.690075,
      "d": 53.571374999999534,
      "v": 90
    },
    {
      "midi": 83,
      "hit": false,
      "t": 24210.690075,
      "d": 53.571374999999534,
      "v": 90
    },
    {
      "midi": 69,
      "hit": false,
      "t": 24210.690075,
      "d": 107.14274999999907,
      "v": 115
    },
    {
      "midi": 78,
      "hit": false,
      "t": 24210.690075,
      "d": 107.14274999999907,
      "v": 115
    },
    {
      "midi": 90,
      "hit": false,
      "t": 24210.69007500001,
      "d": 107.14274999999907,
      "v": 80
    },
    {
      "midi": 78,
      "hit": false,
      "t": 24317.832824999994,
      "d": 53.571374999999534,
      "v": 90
    },
    {
      "midi": 83,
      "hit": false,
      "t": 24317.832824999994,
      "d": 53.571374999999534,
      "v": 90
    },
    {
      "midi": 12,
      "hit": false,
      "t": 24424.975574999917,
      "d": 53.571374999999534,
      "v": 110
    },
    {
      "midi": 42,
      "hit": false,
      "t": 24424.975574999917,
      "d": 53.571374999999534,
      "v": 100
    },
    {
      "midi": 117,
      "hit": false,
      "t": 24424.975574999917,
      "d": 53.571374999999534,
      "v": 110
    },
    {
      "midi": 78,
      "hit": false,
      "t": 24424.975574999997,
      "d": 53.571374999999534,
      "v": 90
    },
    {
      "midi": 83,
      "hit": false,
      "t": 24424.975574999997,
      "d": 53.571374999999534,
      "v": 90
    },
    {
      "midi": 42,
      "hit": false,
      "t": 24532.118324999916,
      "d": 53.571374999999534,
      "v": 100
    },
    {
      "midi": 78,
      "hit": false,
      "t": 24532.118324999996,
      "d": 53.571374999999534,
      "v": 90
    },
    {
      "midi": 83,
      "hit": false,
      "t": 24532.118324999996,
      "d": 53.571374999999534,
      "v": 90
    },
    {
      "midi": 42,
      "hit": false,
      "t": 24639.261074999915,
      "d": 53.571374999999534,
      "v": 100
    },
    {
      "midi": 70,
      "hit": false,
      "t": 24639.261074999915,
      "d": 53.571374999999534,
      "v": 100
    },
    {
      "midi": 78,
      "hit": false,
      "t": 24639.261075,
      "d": 53.571374999999534,
      "v": 90
    },
    {
      "midi": 83,
      "hit": false,
      "t": 24639.261075,
      "d": 53.571374999999534,
      "v": 90
    },
    {
      "midi": 68,
      "hit": false,
      "t": 24639.261075,
      "d": 107.14274999999907,
      "v": 115
    },
    {
      "midi": 76,
      "hit": false,
      "t": 24639.261075,
      "d": 107.14274999999907,
      "v": 115
    },
    {
      "midi": 88,
      "hit": false,
      "t": 24639.26107500001,
      "d": 107.14274999999907,
      "v": 80
    },
    {
      "midi": 28,
      "hit": false,
      "t": 24639.26107500003,
      "d": 385.71389999999883,
      "v": 115
    },
    {
      "midi": 78,
      "hit": false,
      "t": 24746.403824999994,
      "d": 53.571374999999534,
      "v": 90
    },
    {
      "midi": 83,
      "hit": false,
      "t": 24746.403824999994,
      "d": 53.571374999999534,
      "v": 90
    },
    {
      "midi": 12,
      "hit": false,
      "t": 24853.546574999913,
      "d": 53.571374999999534,
      "v": 110
    },
    {
      "midi": 42,
      "hit": false,
      "t": 24853.546574999913,
      "d": 53.571374999999534,
      "v": 100
    },
    {
      "midi": 78,
      "hit": false,
      "t": 24853.546574999997,
      "d": 53.571374999999534,
      "v": 90
    },
    {
      "midi": 83,
      "hit": false,
      "t": 24853.546574999997,
      "d": 53.571374999999534,
      "v": 90
    },
    {
      "midi": 78,
      "hit": false,
      "t": 24960.689324999992,
      "d": 53.571374999999534,
      "v": 90
    },
    {
      "midi": 83,
      "hit": false,
      "t": 24960.689324999992,
      "d": 53.571374999999534,
      "v": 90
    },
    {
      "midi": 42,
      "hit": false,
      "t": 25067.83207499991,
      "d": 53.571374999999534,
      "v": 100
    },
    {
      "midi": 70,
      "hit": false,
      "t": 25067.83207499991,
      "d": 53.571374999999534,
      "v": 100
    },
    {
      "midi": 78,
      "hit": false,
      "t": 25067.832075,
      "d": 53.571374999999534,
      "v": 90
    },
    {
      "midi": 83,
      "hit": false,
      "t": 25067.832075,
      "d": 53.571374999999534,
      "v": 90
    },
    {
      "midi": 69,
      "hit": false,
      "t": 25067.832075,
      "d": 107.14274999999907,
      "v": 115
    },
    {
      "midi": 78,
      "hit": false,
      "t": 25067.832075,
      "d": 107.14274999999907,
      "v": 115
    },
    {
      "midi": 90,
      "hit": false,
      "t": 25067.83207500001,
      "d": 107.14274999999907,
      "v": 80
    },
    {
      "midi": 35,
      "hit": false,
      "t": 25067.83207500003,
      "d": 192.85695000000123,
      "v": 115
    },
    {
      "midi": 78,
      "hit": false,
      "t": 25174.97482499999,
      "d": 53.571374999999534,
      "v": 90
    },
    {
      "midi": 83,
      "hit": false,
      "t": 25174.97482499999,
      "d": 53.571374999999534,
      "v": 90
    },
    {
      "midi": 12,
      "hit": false,
      "t": 25282.11757499991,
      "d": 53.571374999999534,
      "v": 110
    },
    {
      "midi": 42,
      "hit": false,
      "t": 25282.11757499991,
      "d": 53.571374999999534,
      "v": 100
    },
    {
      "midi": 117,
      "hit": false,
      "t": 25282.11757499991,
      "d": 53.571374999999534,
      "v": 110
    },
    {
      "midi": 78,
      "hit": false,
      "t": 25282.117574999997,
      "d": 53.571374999999534,
      "v": 90
    },
    {
      "midi": 83,
      "hit": false,
      "t": 25282.117574999997,
      "d": 53.571374999999534,
      "v": 90
    },
    {
      "midi": 68,
      "hit": false,
      "t": 25282.117574999997,
      "d": 107.14274999999907,
      "v": 115
    },
    {
      "midi": 76,
      "hit": false,
      "t": 25282.117574999997,
      "d": 107.14274999999907,
      "v": 115
    },
    {
      "midi": 88,
      "hit": false,
      "t": 25282.117575000007,
      "d": 107.14274999999907,
      "v": 80
    },
    {
      "midi": 30,
      "hit": false,
      "t": 25282.117575000033,
      "d": 192.85695000000123,
      "v": 115
    },
    {
      "midi": 42,
      "hit": false,
      "t": 25389.26032499991,
      "d": 53.571374999999534,
      "v": 100
    },
    {
      "midi": 83,
      "hit": false,
      "t": 25389.26032499999,
      "d": 53.571374999999534,
      "v": 90
    },
    {
      "midi": 78,
      "hit": false,
      "t": 25389.26032499999,
      "d": 53.571374999999534,
      "v": 90
    },
    {
      "midi": 42,
      "hit": false,
      "t": 25496.403074999907,
      "d": 53.571374999999534,
      "v": 100
    },
    {
      "midi": 70,
      "hit": false,
      "t": 25496.403074999907,
      "d": 53.571374999999534,
      "v": 100
    },
    {
      "midi": 78,
      "hit": false,
      "t": 25496.403074999995,
      "d": 53.571374999999534,
      "v": 90
    },
    {
      "midi": 83,
      "hit": false,
      "t": 25496.403074999995,
      "d": 53.571374999999534,
      "v": 90
    },
    {
      "midi": 68,
      "hit": false,
      "t": 25496.403074999995,
      "d": 107.14274999999907,
      "v": 115
    },
    {
      "midi": 76,
      "hit": false,
      "t": 25496.403074999995,
      "d": 107.14274999999907,
      "v": 115
    },
    {
      "midi": 88,
      "hit": false,
      "t": 25496.403075000006,
      "d": 107.14274999999907,
      "v": 80
    },
    {
      "midi": 32,
      "hit": false,
      "t": 25496.403075000035,
      "d": 192.85695000000123,
      "v": 115
    },
    {
      "midi": 78,
      "hit": false,
      "t": 25603.545824999987,
      "d": 53.571374999999534,
      "v": 90
    },
    {
      "midi": 83,
      "hit": false,
      "t": 25603.545824999987,
      "d": 53.571374999999534,
      "v": 90
    },
    {
      "midi": 12,
      "hit": false,
      "t": 25710.688574999906,
      "d": 53.571374999999534,
      "v": 110
    },
    {
      "midi": 42,
      "hit": false,
      "t": 25710.688574999906,
      "d": 53.571374999999534,
      "v": 100
    },
    {
      "midi": 47,
      "hit": false,
      "t": 25710.688574999996,
      "d": 1499.9985000000015,
      "v": 100
    },
    {
      "midi": 83,
      "hit": false,
      "t": 25710.688574999996,
      "d": 53.571374999999534,
      "v": 90
    },
    {
      "midi": 78,
      "hit": false,
      "t": 25710.688574999996,
      "d": 53.571374999999534,
      "v": 90
    },
    {
      "midi": 47,
      "hit": false,
      "t": 25710.688575,
      "d": 1499.9985000000015,
      "v": 100
    },
    {
      "midi": 66,
      "hit": false,
      "t": 25710.688575000004,
      "d": 1499.9985000000015,
      "v": 100
    },
    {
      "midi": 63,
      "hit": false,
      "t": 25710.688575000004,
      "d": 1499.9985000000015,
      "v": 100
    },
    {
      "midi": 59,
      "hit": false,
      "t": 25710.688575000004,
      "d": 1499.9985000000015,
      "v": 100
    },
    {
      "midi": 35,
      "hit": false,
      "t": 25710.688575000037,
      "d": 385.71389999999883,
      "v": 115
    },
    {
      "midi": 78,
      "hit": false,
      "t": 25817.831324999985,
      "d": 53.571374999999534,
      "v": 90
    },
    {
      "midi": 83,
      "hit": false,
      "t": 25817.831324999985,
      "d": 53.571374999999534,
      "v": 90
    },
    {
      "midi": 42,
      "hit": false,
      "t": 25924.974074999904,
      "d": 53.571374999999534,
      "v": 100
    },
    {
      "midi": 70,
      "hit": false,
      "t": 25924.974074999904,
      "d": 53.571374999999534,
      "v": 100
    },
    {
      "midi": 83,
      "hit": false,
      "t": 25924.974074999995,
      "d": 53.571374999999534,
      "v": 90
    },
    {
      "midi": 78,
      "hit": false,
      "t": 25924.974074999995,
      "d": 53.571374999999534,
      "v": 90
    },
    {
      "midi": 66,
      "hit": false,
      "t": 25924.974074999995,
      "d": 107.14274999999907,
      "v": 115
    },
    {
      "midi": 75,
      "hit": false,
      "t": 25924.974074999995,
      "d": 107.14274999999907,
      "v": 115
    },
    {
      "midi": 87,
      "hit": false,
      "t": 25924.974075000006,
      "d": 107.14274999999907,
      "v": 80
    },
    {
      "midi": 78,
      "hit": false,
      "t": 26032.116824999983,
      "d": 53.571374999999534,
      "v": 90
    },
    {
      "midi": 83,
      "hit": false,
      "t": 26032.116824999983,
      "d": 53.571374999999534,
      "v": 90
    },
    {
      "midi": 12,
      "hit": false,
      "t": 26139.2595749999,
      "d": 53.571374999999534,
      "v": 110
    },
    {
      "midi": 42,
      "hit": false,
      "t": 26139.2595749999,
      "d": 53.571374999999534,
      "v": 100
    },
    {
      "midi": 117,
      "hit": false,
      "t": 26139.2595749999,
      "d": 53.571374999999534,
      "v": 110
    },
    {
      "midi": 83,
      "hit": false,
      "t": 26139.259574999993,
      "d": 53.571374999999534,
      "v": 90
    },
    {
      "midi": 78,
      "hit": false,
      "t": 26139.259574999993,
      "d": 53.571374999999534,
      "v": 90
    },
    {
      "midi": 35,
      "hit": false,
      "t": 26139.259575000036,
      "d": 289.2854249999982,
      "v": 115
    },
    {
      "midi": 42,
      "hit": false,
      "t": 26246.4023249999,
      "d": 53.571374999999534,
      "v": 100
    },
    {
      "midi": 78,
      "hit": false,
      "t": 26246.402324999985,
      "d": 53.571374999999534,
      "v": 90
    },
    {
      "midi": 83,
      "hit": false,
      "t": 26246.402324999985,
      "d": 53.571374999999534,
      "v": 90
    },
    {
      "midi": 42,
      "hit": false,
      "t": 26353.5450749999,
      "d": 53.571374999999534,
      "v": 100
    },
    {
      "midi": 70,
      "hit": false,
      "t": 26353.5450749999,
      "d": 53.571374999999534,
      "v": 100
    },
    {
      "midi": 83,
      "hit": false,
      "t": 26353.54507499999,
      "d": 53.571374999999534,
      "v": 90
    },
    {
      "midi": 78,
      "hit": false,
      "t": 26353.54507499999,
      "d": 53.571374999999534,
      "v": 90
    },
    {
      "midi": 78,
      "hit": false,
      "t": 26460.68782499998,
      "d": 53.571374999999534,
      "v": 90
    },
    {
      "midi": 83,
      "hit": false,
      "t": 26460.68782499998,
      "d": 53.571374999999534,
      "v": 90
    },
    {
      "midi": 30,
      "hit": false,
      "t": 26460.687825000034,
      "d": 96.42847500000062,
      "v": 115
    },
    {
      "midi": 12,
      "hit": false,
      "t": 26567.830574999898,
      "d": 53.571374999999534,
      "v": 110
    },
    {
      "midi": 42,
      "hit": false,
      "t": 26567.830574999898,
      "d": 53.571374999999534,
      "v": 100
    },
    {
      "midi": 83,
      "hit": false,
      "t": 26567.83057499999,
      "d": 53.571374999999534,
      "v": 90
    },
    {
      "midi": 78,
      "hit": false,
      "t": 26567.83057499999,
      "d": 53.571374999999534,
      "v": 90
    },
    {
      "midi": 32,
      "hit": false,
      "t": 26567.830575000033,
      "d": 192.85695000000123,
      "v": 115
    },
    {
      "midi": 78,
      "hit": false,
      "t": 26674.973324999977,
      "d": 53.571374999999534,
      "v": 90
    },
    {
      "midi": 83,
      "hit": false,
      "t": 26674.973324999977,
      "d": 53.571374999999534,
      "v": 90
    },
    {
      "midi": 42,
      "hit": false,
      "t": 26782.116074999896,
      "d": 53.571374999999534,
      "v": 100
    },
    {
      "midi": 70,
      "hit": false,
      "t": 26782.116074999896,
      "d": 53.571374999999534,
      "v": 100
    },
    {
      "midi": 83,
      "hit": false,
      "t": 26782.11607499999,
      "d": 53.571374999995896,
      "v": 90
    },
    {
      "midi": 78,
      "hit": false,
      "t": 26782.11607499999,
      "d": 53.571374999995896,
      "v": 90
    },
    {
      "midi": 35,
      "hit": false,
      "t": 26782.116075000034,
      "d": 192.85695000000123,
      "v": 115
    },
    {
      "midi": 78,
      "hit": false,
      "t": 26889.25882499998,
      "d": 53.571374999999534,
      "v": 90
    },
    {
      "midi": 83,
      "hit": false,
      "t": 26889.25882499998,
      "d": 53.571374999999534,
      "v": 90
    },
    {
      "midi": 12,
      "hit": false,
      "t": 26996.401574999894,
      "d": 53.571374999999534,
      "v": 110
    },
    {
      "midi": 42,
      "hit": false,
      "t": 26996.401574999894,
      "d": 53.571374999999534,
      "v": 100
    },
    {
      "midi": 117,
      "hit": false,
      "t": 26996.401574999894,
      "d": 53.571374999999534,
      "v": 110
    },
    {
      "midi": 83,
      "hit": false,
      "t": 26996.40157499999,
      "d": 53.571374999999534,
      "v": 90
    },
    {
      "midi": 78,
      "hit": false,
      "t": 26996.40157499999,
      "d": 53.571374999999534,
      "v": 90
    },
    {
      "midi": 30,
      "hit": false,
      "t": 26996.401575000036,
      "d": 192.85695000000123,
      "v": 115
    },
    {
      "midi": 42,
      "hit": false,
      "t": 27103.544324999893,
      "d": 53.571374999999534,
      "v": 100
    },
    {
      "midi": 78,
      "hit": false,
      "t": 27103.544324999977,
      "d": 53.571374999999534,
      "v": 90
    },
    {
      "midi": 83,
      "hit": false,
      "t": 27103.544324999977,
      "d": 53.571374999999534,
      "v": 90
    },
    {
      "midi": 42,
      "hit": false,
      "t": 27210.687074999893,
      "d": 53.571374999999534,
      "v": 100
    },
    {
      "midi": 70,
      "hit": false,
      "t": 27210.687074999893,
      "d": 53.571374999999534,
      "v": 100
    },
    {
      "midi": 83,
      "hit": false,
      "t": 27210.68707499999,
      "d": 53.571374999999534,
      "v": 90
    },
    {
      "midi": 78,
      "hit": false,
      "t": 27210.68707499999,
      "d": 53.571374999999534,
      "v": 90
    },
    {
      "midi": 69,
      "hit": false,
      "t": 27210.687074999994,
      "d": 107.14274999999907,
      "v": 115
    },
    {
      "midi": 74,
      "hit": false,
      "t": 27210.687074999994,
      "d": 107.14274999999907,
      "v": 115
    },
    {
      "midi": 50,
      "hit": false,
      "t": 27210.687074999998,
      "d": 428.5709999999999,
      "v": 100
    },
    {
      "midi": 50,
      "hit": false,
      "t": 27210.687075,
      "d": 428.5709999999999,
      "v": 100
    },
    {
      "midi": 86,
      "hit": false,
      "t": 27210.687075000005,
      "d": 214.28550000000178,
      "v": 110
    },
    {
      "midi": 57,
      "hit": false,
      "t": 27210.687075000005,
      "d": 857.1419999999998,
      "v": 100
    },
    {
      "midi": 66,
      "hit": false,
      "t": 27210.687075000005,
      "d": 857.1419999999998,
      "v": 100
    },
    {
      "midi": 62,
      "hit": false,
      "t": 27210.687075000005,
      "d": 857.1419999999998,
      "v": 100
    },
    {
      "midi": 38,
      "hit": false,
      "t": 27210.687075000038,
      "d": 385.71389999999883,
      "v": 115
    },
    {
      "midi": 78,
      "hit": false,
      "t": 27317.829824999975,
      "d": 53.571374999999534,
      "v": 90
    },
    {
      "midi": 83,
      "hit": false,
      "t": 27317.829824999975,
      "d": 53.571374999999534,
      "v": 90
    },
    {
      "midi": 12,
      "hit": false,
      "t": 27424.97257499989,
      "d": 53.571374999999534,
      "v": 110
    },
    {
      "midi": 42,
      "hit": false,
      "t": 27424.97257499989,
      "d": 53.571374999999534,
      "v": 100
    },
    {
      "midi": 83,
      "hit": false,
      "t": 27424.97257499999,
      "d": 53.571374999999534,
      "v": 90
    },
    {
      "midi": 78,
      "hit": false,
      "t": 27424.97257499999,
      "d": 53.571374999999534,
      "v": 90
    },
    {
      "midi": 78,
      "hit": false,
      "t": 27532.115324999973,
      "d": 53.571374999999534,
      "v": 90
    },
    {
      "midi": 83,
      "hit": false,
      "t": 27532.115324999973,
      "d": 53.571374999999534,
      "v": 90
    },
    {
      "midi": 70,
      "hit": false,
      "t": 27639.25807499989,
      "d": 53.571374999999534,
      "v": 100
    },
    {
      "midi": 42,
      "hit": false,
      "t": 27639.25807499989,
      "d": 53.571374999999534,
      "v": 100
    },
    {
      "midi": 83,
      "hit": false,
      "t": 27639.25807499999,
      "d": 53.571374999999534,
      "v": 90
    },
    {
      "midi": 78,
      "hit": false,
      "t": 27639.25807499999,
      "d": 53.571374999999534,
      "v": 90
    },
    {
      "midi": 50,
      "hit": false,
      "t": 27639.258074999998,
      "d": 107.14274999999907,
      "v": 100
    },
    {
      "midi": 50,
      "hit": false,
      "t": 27639.258075,
      "d": 107.14274999999907,
      "v": 100
    },
    {
      "midi": 33,
      "hit": false,
      "t": 27639.258075000038,
      "d": 192.85695000000123,
      "v": 115
    },
    {
      "midi": 78,
      "hit": false,
      "t": 27746.40082499997,
      "d": 53.571374999999534,
      "v": 90
    },
    {
      "midi": 83,
      "hit": false,
      "t": 27746.40082499997,
      "d": 53.571374999999534,
      "v": 90
    },
    {
      "midi": 12,
      "hit": false,
      "t": 27853.543574999887,
      "d": 53.571374999999534,
      "v": 110
    },
    {
      "midi": 42,
      "hit": false,
      "t": 27853.543574999887,
      "d": 53.571374999999534,
      "v": 100
    },
    {
      "midi": 117,
      "hit": false,
      "t": 27853.543574999887,
      "d": 53.571374999999534,
      "v": 110
    },
    {
      "midi": 83,
      "hit": false,
      "t": 27853.54357499999,
      "d": 53.571374999999534,
      "v": 90
    },
    {
      "midi": 78,
      "hit": false,
      "t": 27853.54357499999,
      "d": 53.571374999999534,
      "v": 90
    },
    {
      "midi": 50,
      "hit": false,
      "t": 27853.543574999996,
      "d": 107.14274999999907,
      "v": 100
    },
    {
      "midi": 50,
      "hit": false,
      "t": 27853.543575,
      "d": 107.14274999999907,
      "v": 100
    },
    {
      "midi": 38,
      "hit": false,
      "t": 27853.54357500004,
      "d": 192.85695000000123,
      "v": 115
    },
    {
      "midi": 42,
      "hit": false,
      "t": 27960.686324999886,
      "d": 53.571374999999534,
      "v": 100
    },
    {
      "midi": 78,
      "hit": false,
      "t": 27960.686324999973,
      "d": 53.571374999999534,
      "v": 90
    },
    {
      "midi": 83,
      "hit": false,
      "t": 27960.686324999973,
      "d": 53.571374999999534,
      "v": 90
    },
    {
      "midi": 42,
      "hit": false,
      "t": 28067.829074999885,
      "d": 53.571374999999534,
      "v": 100
    },
    {
      "midi": 70,
      "hit": false,
      "t": 28067.829074999885,
      "d": 53.571374999999534,
      "v": 100
    },
    {
      "midi": 83,
      "hit": false,
      "t": 28067.829074999987,
      "d": 53.571374999999534,
      "v": 90
    },
    {
      "midi": 78,
      "hit": false,
      "t": 28067.829074999987,
      "d": 53.571374999999534,
      "v": 90
    },
    {
      "midi": 52,
      "hit": false,
      "t": 28067.829074999994,
      "d": 2357.1405000000013,
      "v": 100
    },
    {
      "midi": 71,
      "hit": false,
      "t": 28067.829074999994,
      "d": 107.14274999999907,
      "v": 115
    },
    {
      "midi": 76,
      "hit": false,
      "t": 28067.829074999994,
      "d": 107.14274999999907,
      "v": 115
    },
    {
      "midi": 52,
      "hit": false,
      "t": 28067.829074999998,
      "d": 2357.1405000000013,
      "v": 100
    },
    {
      "midi": 59,
      "hit": false,
      "t": 28067.829075000005,
      "d": 2357.1405000000013,
      "v": 100
    },
    {
      "midi": 68,
      "hit": false,
      "t": 28067.829075000005,
      "d": 2357.1405000000013,
      "v": 100
    },
    {
      "midi": 64,
      "hit": false,
      "t": 28067.829075000005,
      "d": 2357.1405000000013,
      "v": 100
    },
    {
      "midi": 88,
      "hit": false,
      "t": 28067.82907500001,
      "d": 214.28550000000178,
      "v": 110
    },
    {
      "midi": 40,
      "hit": false,
      "t": 28067.82907500004,
      "d": 2357.1405000000013,
      "v": 115
    },
    {
      "midi": 78,
      "hit": false,
      "t": 28174.971824999968,
      "d": 53.571374999999534,
      "v": 90
    },
    {
      "midi": 83,
      "hit": false,
      "t": 28174.971824999968,
      "d": 53.571374999999534,
      "v": 90
    },
    {
      "midi": 12,
      "hit": false,
      "t": 28282.114574999883,
      "d": 53.571374999999534,
      "v": 110
    },
    {
      "midi": 42,
      "hit": false,
      "t": 28282.114574999883,
      "d": 53.571374999999534,
      "v": 100
    },
    {
      "midi": 83,
      "hit": false,
      "t": 28282.114574999985,
      "d": 53.571374999999534,
      "v": 90
    },
    {
      "midi": 78,
      "hit": false,
      "t": 28282.114574999985,
      "d": 53.571374999999534,
      "v": 90
    },
    {
      "midi": 78,
      "hit": false,
      "t": 28389.257324999966,
      "d": 53.571374999999534,
      "v": 90
    },
    {
      "midi": 83,
      "hit": false,
      "t": 28389.257324999966,
      "d": 53.571374999999534,
      "v": 90
    },
    {
      "midi": 42,
      "hit": false,
      "t": 28496.40007499988,
      "d": 53.571374999999534,
      "v": 100
    },
    {
      "midi": 70,
      "hit": false,
      "t": 28496.40007499988,
      "d": 53.571374999999534,
      "v": 100
    },
    {
      "midi": 83,
      "hit": false,
      "t": 28496.400074999983,
      "d": 53.571374999999534,
      "v": 90
    },
    {
      "midi": 78,
      "hit": false,
      "t": 28496.400074999983,
      "d": 53.571374999999534,
      "v": 90
    },
    {
      "midi": 78,
      "hit": false,
      "t": 28603.542824999968,
      "d": 53.571374999999534,
      "v": 90
    },
    {
      "midi": 83,
      "hit": false,
      "t": 28603.542824999968,
      "d": 53.571374999999534,
      "v": 90
    },
    {
      "midi": 12,
      "hit": false,
      "t": 28710.68557499988,
      "d": 53.571374999999534,
      "v": 110
    },
    {
      "midi": 42,
      "hit": false,
      "t": 28710.68557499988,
      "d": 53.571374999999534,
      "v": 100
    },
    {
      "midi": 117,
      "hit": false,
      "t": 28710.68557499988,
      "d": 53.571374999999534,
      "v": 110
    },
    {
      "midi": 83,
      "hit": false,
      "t": 28710.68557499998,
      "d": 53.571374999999534,
      "v": 90
    },
    {
      "midi": 78,
      "hit": false,
      "t": 28710.68557499998,
      "d": 53.571374999999534,
      "v": 90
    },
    {
      "midi": 42,
      "hit": false,
      "t": 28817.82832499988,
      "d": 53.571374999999534,
      "v": 100
    },
    {
      "midi": 83,
      "hit": false,
      "t": 28817.828324999966,
      "d": 53.571374999999534,
      "v": 90
    },
    {
      "midi": 78,
      "hit": false,
      "t": 28817.828324999966,
      "d": 53.571374999999534,
      "v": 90
    },
    {
      "midi": 42,
      "hit": false,
      "t": 28924.971074999878,
      "d": 53.571374999999534,
      "v": 100
    },
    {
      "midi": 70,
      "hit": false,
      "t": 28924.971074999878,
      "d": 53.571374999999534,
      "v": 100
    },
    {
      "midi": 83,
      "hit": false,
      "t": 28924.971074999983,
      "d": 53.571374999999534,
      "v": 90
    },
    {
      "midi": 78,
      "hit": false,
      "t": 28924.971074999983,
      "d": 53.571374999999534,
      "v": 90
    },
    {
      "midi": 78,
      "hit": false,
      "t": 29032.113824999964,
      "d": 53.571374999999534,
      "v": 90
    },
    {
      "midi": 83,
      "hit": false,
      "t": 29032.113824999964,
      "d": 53.571374999999534,
      "v": 90
    },
    {
      "midi": 78,
      "hit": false,
      "t": 29139.25657499998,
      "d": 53.571374999995896,
      "v": 90
    },
    {
      "midi": 83,
      "hit": false,
      "t": 29139.25657499998,
      "d": 53.571374999995896,
      "v": 90
    },
    {
      "midi": 78,
      "hit": false,
      "t": 29246.39932499996,
      "d": 53.571374999995896,
      "v": 90
    },
    {
      "midi": 83,
      "hit": false,
      "t": 29246.39932499996,
      "d": 53.571374999995896,
      "v": 90
    },
    {
      "midi": 78,
      "hit": false,
      "t": 29353.542074999972,
      "d": 53.571374999995896,
      "v": 90
    },
    {
      "midi": 83,
      "hit": false,
      "t": 29353.542074999972,
      "d": 53.571374999995896,
      "v": 90
    },
    {
      "midi": 78,
      "hit": false,
      "t": 29460.684824999953,
      "d": 53.571374999995896,
      "v": 90
    },
    {
      "midi": 83,
      "hit": false,
      "t": 29460.684824999953,
      "d": 53.571374999995896,
      "v": 90
    },
    {
      "midi": 78,
      "hit": false,
      "t": 29567.82757499996,
      "d": 53.571374999995896,
      "v": 90
    },
    {
      "midi": 83,
      "hit": false,
      "t": 29567.82757499996,
      "d": 53.571374999995896,
      "v": 90
    },
    {
      "midi": 78,
      "hit": false,
      "t": 29674.970324999944,
      "d": 53.571374999995896,
      "v": 90
    },
    {
      "midi": 83,
      "hit": false,
      "t": 29674.970324999944,
      "d": 53.571374999995896,
      "v": 90
    },
    {
      "midi": 78,
      "hit": false,
      "t": 29782.113074999954,
      "d": 53.571374999995896,
      "v": 90
    },
    {
      "midi": 83,
      "hit": false,
      "t": 29782.113074999954,
      "d": 53.571374999995896,
      "v": 90
    },
    {
      "midi": 78,
      "hit": false,
      "t": 29889.25582499994,
      "d": 53.571374999995896,
      "v": 90
    },
    {
      "midi": 83,
      "hit": false,
      "t": 29889.25582499994,
      "d": 53.571374999995896,
      "v": 90
    },
    {
      "midi": 78,
      "hit": false,
      "t": 29996.39857499994,
      "d": 53.571374999999534,
      "v": 90
    },
    {
      "midi": 83,
      "hit": false,
      "t": 29996.39857499994,
      "d": 53.571374999999534,
      "v": 90
    },
    {
      "midi": 78,
      "hit": false,
      "t": 30103.54132499993,
      "d": 53.571374999995896,
      "v": 90
    },
    {
      "midi": 83,
      "hit": false,
      "t": 30103.54132499993,
      "d": 53.571374999995896,
      "v": 90
    },
    {
      "midi": 30,
      "hit": false,
      "t": 30210.684074999877,
      "d": 35.7142500000009,
      "v": 109
    },
    {
      "midi": 78,
      "hit": false,
      "t": 30210.684074999932,
      "d": 53.571374999995896,
      "v": 90
    },
    {
      "midi": 83,
      "hit": false,
      "t": 30210.684074999932,
      "d": 53.571374999995896,
      "v": 90
    },
    {
      "midi": 30,
      "hit": false,
      "t": 30317.82682499988,
      "d": 35.7142500000009,
      "v": 109
    },
    {
      "midi": 78,
      "hit": false,
      "t": 30317.826824999913,
      "d": 53.571374999999534,
      "v": 90
    },
    {
      "midi": 83,
      "hit": false,
      "t": 30317.826824999913,
      "d": 53.571374999999534,
      "v": 90
    },
    {
      "midi": 80,
      "hit": false,
      "t": 30424.969574999996,
      "d": 53.571374999999534,
      "v": 110
    },
    {
      "midi": 54,
      "hit": false,
      "t": 30792.826349999996,
      "d": 3324.996675000002,
      "v": 100
    },
    {
      "midi": 54,
      "hit": false,
      "t": 30792.82635,
      "d": 1071.427499999998,
      "v": 100
    },
    {
      "midi": 59,
      "hit": false,
      "t": 30817.826324999998,
      "d": 1071.427499999998,
      "v": 100
    },
    {
      "midi": 59,
      "hit": false,
      "t": 30828.540599999997,
      "d": 3324.9966749999985,
      "v": 100
    },
    {
      "midi": 12,
      "hit": false,
      "t": 30853.540574999883,
      "d": 53.571374999999534,
      "v": 110
    },
    {
      "midi": 57,
      "hit": false,
      "t": 30853.540574999883,
      "d": 53.571374999999534,
      "v": 110
    },
    {
      "midi": 42,
      "hit": false,
      "t": 30853.540574999883,
      "d": 53.571374999999534,
      "v": 100
    },
    {
      "midi": 63,
      "hit": false,
      "t": 30853.540574999995,
      "d": 3324.9966749999985,
      "v": 100
    },
    {
      "midi": 75,
      "hit": false,
      "t": 30853.540574999995,
      "d": 3324.9966749999985,
      "v": 100
    },
    {
      "midi": 63,
      "hit": false,
      "t": 30853.540575,
      "d": 1071.4274999999943,
      "v": 100
    },
    {
      "midi": 54,
      "hit": false,
      "t": 30853.540575000006,
      "d": 3428.5679999999993,
      "v": 100
    },
    {
      "midi": 63,
      "hit": false,
      "t": 30853.540575000006,
      "d": 3428.5679999999993,
      "v": 100
    },
    {
      "midi": 59,
      "hit": false,
      "t": 30853.540575000006,
      "d": 3428.5679999999993,
      "v": 100
    },
    {
      "midi": 35,
      "hit": false,
      "t": 30853.540575000043,
      "d": 385.71389999999883,
      "v": 115
    },
    {
      "midi": 66,
      "hit": false,
      "t": 30878.540549999998,
      "d": 1021.4275499999967,
      "v": 100
    },
    {
      "midi": 66,
      "hit": false,
      "t": 30889.254824999996,
      "d": 3324.996674999995,
      "v": 100
    },
    {
      "midi": 71,
      "hit": false,
      "t": 30924.969074999997,
      "d": 3324.9966749999985,
      "v": 100
    },
    {
      "midi": 42,
      "hit": false,
      "t": 31067.82607499988,
      "d": 53.571374999999534,
      "v": 100
    },
    {
      "midi": 70,
      "hit": false,
      "t": 31067.82607499988,
      "d": 53.571374999999534,
      "v": 100
    },
    {
      "midi": 12,
      "hit": false,
      "t": 31282.11157499988,
      "d": 53.571374999999534,
      "v": 110
    },
    {
      "midi": 42,
      "hit": false,
      "t": 31282.11157499988,
      "d": 53.571374999999534,
      "v": 100
    },
    {
      "midi": 117,
      "hit": false,
      "t": 31282.11157499988,
      "d": 53.571374999999534,
      "v": 110
    },
    {
      "midi": 78,
      "hit": false,
      "t": 31282.11157500001,
      "d": 174.99982499999896,
      "v": 127
    },
    {
      "midi": 35,
      "hit": false,
      "t": 31282.111575000043,
      "d": 192.85695000000123,
      "v": 115
    },
    {
      "midi": 42,
      "hit": false,
      "t": 31389.254324999878,
      "d": 53.571374999999534,
      "v": 100
    },
    {
      "midi": 42,
      "hit": false,
      "t": 31496.397074999877,
      "d": 53.571374999999534,
      "v": 100
    },
    {
      "midi": 70,
      "hit": false,
      "t": 31496.397074999877,
      "d": 53.571374999999534,
      "v": 100
    },
    {
      "midi": 78,
      "hit": false,
      "t": 31496.397075000008,
      "d": 174.99982499999896,
      "v": 127
    },
    {
      "midi": 12,
      "hit": false,
      "t": 31710.682574999875,
      "d": 53.571374999999534,
      "v": 110
    },
    {
      "midi": 42,
      "hit": false,
      "t": 31710.682574999875,
      "d": 53.571374999999534,
      "v": 100
    },
    {
      "midi": 78,
      "hit": false,
      "t": 31710.682575000006,
      "d": 174.99982499999896,
      "v": 127
    },
    {
      "midi": 42,
      "hit": false,
      "t": 31924.968074999873,
      "d": 53.571374999999534,
      "v": 100
    },
    {
      "midi": 70,
      "hit": false,
      "t": 31924.968074999873,
      "d": 53.571374999999534,
      "v": 100
    },
    {
      "midi": 71,
      "hit": false,
      "t": 31924.968074999993,
      "d": 10.714274999998452,
      "v": 96
    },
    {
      "midi": 59,
      "hit": false,
      "t": 31924.968074999993,
      "d": 107.14274999999907,
      "v": 96
    },
    {
      "midi": 63,
      "hit": false,
      "t": 31924.968074999993,
      "d": 107.14274999999907,
      "v": 96
    },
    {
      "midi": 54,
      "hit": false,
      "t": 31924.968074999993,
      "d": 107.14274999999907,
      "v": 96
    },
    {
      "midi": 66,
      "hit": false,
      "t": 31924.968074999993,
      "d": 107.14274999999907,
      "v": 96
    },
    {
      "midi": 78,
      "hit": false,
      "t": 31924.968075000004,
      "d": 174.99982499999896,
      "v": 127
    },
    {
      "midi": 30,
      "hit": false,
      "t": 31924.968075000044,
      "d": 192.85695000000123,
      "v": 115
    },
    {
      "midi": 12,
      "hit": false,
      "t": 32139.25357499987,
      "d": 53.571374999999534,
      "v": 110
    },
    {
      "midi": 42,
      "hit": false,
      "t": 32139.25357499987,
      "d": 53.571374999999534,
      "v": 100
    },
    {
      "midi": 117,
      "hit": false,
      "t": 32139.25357499987,
      "d": 53.571374999999534,
      "v": 110
    },
    {
      "midi": 78,
      "hit": false,
      "t": 32139.253575000002,
      "d": 174.99982499999896,
      "v": 127
    },
    {
      "midi": 32,
      "hit": false,
      "t": 32139.253575000046,
      "d": 192.85695000000123,
      "v": 115
    },
    {
      "midi": 42,
      "hit": false,
      "t": 32246.39632499987,
      "d": 53.571374999999534,
      "v": 100
    },
    {
      "midi": 42,
      "hit": false,
      "t": 32353.53907499987,
      "d": 53.571374999999534,
      "v": 100
    },
    {
      "midi": 70,
      "hit": false,
      "t": 32353.53907499987,
      "d": 53.571374999999534,
      "v": 100
    },
    {
      "midi": 71,
      "hit": false,
      "t": 32353.539074999993,
      "d": 428.57100000000355,
      "v": 96
    },
    {
      "midi": 63,
      "hit": false,
      "t": 32353.539074999993,
      "d": 428.57100000000355,
      "v": 96
    },
    {
      "midi": 54,
      "hit": false,
      "t": 32353.539074999993,
      "d": 428.57100000000355,
      "v": 96
    },
    {
      "midi": 59,
      "hit": false,
      "t": 32353.539074999993,
      "d": 428.57100000000355,
      "v": 96
    },
    {
      "midi": 66,
      "hit": false,
      "t": 32353.539074999993,
      "d": 428.57100000000355,
      "v": 96
    },
    {
      "midi": 80,
      "hit": false,
      "t": 32353.539075,
      "d": 385.71389999999883,
      "v": 127
    },
    {
      "midi": 35,
      "hit": false,
      "t": 32353.539075000048,
      "d": 192.85695000000123,
      "v": 115
    },
    {
      "midi": 12,
      "hit": false,
      "t": 32567.824574999868,
      "d": 53.571374999999534,
      "v": 110
    },
    {
      "midi": 42,
      "hit": false,
      "t": 32567.824574999868,
      "d": 53.571374999999534,
      "v": 100
    },
    {
      "midi": 70,
      "hit": false,
      "t": 32782.110074999866,
      "d": 53.571374999999534,
      "v": 100
    },
    {
      "midi": 42,
      "hit": false,
      "t": 32782.110074999866,
      "d": 53.571374999999534,
      "v": 100
    },
    {
      "midi": 66,
      "hit": false,
      "t": 32782.110075,
      "d": 107.14274999999907,
      "v": 96
    },
    {
      "midi": 63,
      "hit": false,
      "t": 32782.110075,
      "d": 107.14274999999907,
      "v": 96
    },
    {
      "midi": 54,
      "hit": false,
      "t": 32782.110075,
      "d": 107.14274999999907,
      "v": 96
    },
    {
      "midi": 59,
      "hit": false,
      "t": 32782.110075,
      "d": 107.14274999999907,
      "v": 96
    },
    {
      "midi": 71,
      "hit": false,
      "t": 32782.110075,
      "d": 107.14274999999907,
      "v": 96
    },
    {
      "midi": 78,
      "hit": false,
      "t": 32782.110075,
      "d": 346.4282250000033,
      "v": 127
    },
    {
      "midi": 30,
      "hit": false,
      "t": 32782.11007500005,
      "d": 192.85695000000123,
      "v": 115
    },
    {
      "midi": 12,
      "hit": false,
      "t": 32996.395574999864,
      "d": 53.571374999999534,
      "v": 110
    },
    {
      "midi": 42,
      "hit": false,
      "t": 32996.395574999864,
      "d": 53.571374999999534,
      "v": 100
    },
    {
      "midi": 117,
      "hit": false,
      "t": 32996.395574999864,
      "d": 53.571374999999534,
      "v": 110
    },
    {
      "midi": 32,
      "hit": false,
      "t": 32996.395575000046,
      "d": 192.85695000000123,
      "v": 115
    },
    {
      "midi": 42,
      "hit": false,
      "t": 33103.53832499986,
      "d": 53.571374999999534,
      "v": 100
    },
    {
      "midi": 42,
      "hit": false,
      "t": 33210.68107499986,
      "d": 53.571374999999534,
      "v": 100
    },
    {
      "midi": 70,
      "hit": false,
      "t": 33210.68107499986,
      "d": 53.571374999999534,
      "v": 100
    },
    {
      "midi": 71,
      "hit": false,
      "t": 33210.68107499999,
      "d": 428.57100000000355,
      "v": 96
    },
    {
      "midi": 63,
      "hit": false,
      "t": 33210.68107499999,
      "d": 428.57100000000355,
      "v": 96
    },
    {
      "midi": 54,
      "hit": false,
      "t": 33210.68107499999,
      "d": 428.57100000000355,
      "v": 96
    },
    {
      "midi": 59,
      "hit": false,
      "t": 33210.68107499999,
      "d": 428.57100000000355,
      "v": 96
    },
    {
      "midi": 66,
      "hit": false,
      "t": 33210.68107499999,
      "d": 428.57100000000355,
      "v": 96
    },
    {
      "midi": 78,
      "hit": false,
      "t": 33210.681075,
      "d": 174.99982499999896,
      "v": 127
    },
    {
      "midi": 35,
      "hit": false,
      "t": 33210.681075000044,
      "d": 192.85695000000123,
      "v": 115
    },
    {
      "midi": 12,
      "hit": false,
      "t": 33424.96657499986,
      "d": 53.571374999999534,
      "v": 110
    },
    {
      "midi": 42,
      "hit": false,
      "t": 33424.96657499986,
      "d": 53.571374999999534,
      "v": 100
    },
    {
      "midi": 42,
      "hit": false,
      "t": 33639.25207499986,
      "d": 53.571374999999534,
      "v": 100
    },
    {
      "midi": 70,
      "hit": false,
      "t": 33639.25207499986,
      "d": 53.571374999999534,
      "v": 100
    },
    {
      "midi": 71,
      "hit": false,
      "t": 33639.252075,
      "d": 192.85695000000123,
      "v": 74
    },
    {
      "midi": 63,
      "hit": false,
      "t": 33639.252075,
      "d": 192.85695000000123,
      "v": 74
    },
    {
      "midi": 54,
      "hit": false,
      "t": 33639.252075,
      "d": 192.85695000000123,
      "v": 74
    },
    {
      "midi": 59,
      "hit": false,
      "t": 33639.252075,
      "d": 192.85695000000123,
      "v": 74
    },
    {
      "midi": 66,
      "hit": false,
      "t": 33639.252075,
      "d": 192.85695000000123,
      "v": 74
    },
    {
      "midi": 75,
      "hit": false,
      "t": 33639.252075,
      "d": 174.99982499999896,
      "v": 127
    },
    {
      "midi": 30,
      "hit": false,
      "t": 33639.25207500005,
      "d": 192.85695000000123,
      "v": 115
    },
    {
      "midi": 12,
      "hit": false,
      "t": 33853.53757499986,
      "d": 53.571374999999534,
      "v": 110
    },
    {
      "midi": 42,
      "hit": false,
      "t": 33853.53757499986,
      "d": 53.571374999999534,
      "v": 100
    },
    {
      "midi": 117,
      "hit": false,
      "t": 33853.53757499986,
      "d": 53.571374999999534,
      "v": 110
    },
    {
      "midi": 66,
      "hit": false,
      "t": 33853.537574999995,
      "d": 192.85695000000123,
      "v": 90
    },
    {
      "midi": 59,
      "hit": false,
      "t": 33853.537574999995,
      "d": 192.85695000000123,
      "v": 90
    },
    {
      "midi": 71,
      "hit": false,
      "t": 33853.537574999995,
      "d": 192.85695000000123,
      "v": 90
    },
    {
      "midi": 54,
      "hit": false,
      "t": 33853.537574999995,
      "d": 192.85695000000123,
      "v": 90
    },
    {
      "midi": 63,
      "hit": false,
      "t": 33853.537574999995,
      "d": 192.85695000000123,
      "v": 90
    },
    {
      "midi": 75,
      "hit": false,
      "t": 33853.537574999995,
      "d": 174.99982499999896,
      "v": 127
    },
    {
      "midi": 32,
      "hit": false,
      "t": 33853.537575000046,
      "d": 192.85695000000123,
      "v": 115
    },
    {
      "midi": 42,
      "hit": false,
      "t": 33960.680324999856,
      "d": 53.571374999999534,
      "v": 100
    },
    {
      "midi": 42,
      "hit": false,
      "t": 34067.823074999855,
      "d": 53.571374999999534,
      "v": 100
    },
    {
      "midi": 70,
      "hit": false,
      "t": 34067.823074999855,
      "d": 53.571374999999534,
      "v": 100
    },
    {
      "midi": 66,
      "hit": false,
      "t": 34067.82307499999,
      "d": 192.85695000000123,
      "v": 96
    },
    {
      "midi": 63,
      "hit": false,
      "t": 34067.82307499999,
      "d": 192.85695000000123,
      "v": 96
    },
    {
      "midi": 59,
      "hit": false,
      "t": 34067.82307499999,
      "d": 192.85695000000123,
      "v": 96
    },
    {
      "midi": 71,
      "hit": false,
      "t": 34067.82307499999,
      "d": 192.85695000000123,
      "v": 96
    },
    {
      "midi": 54,
      "hit": false,
      "t": 34067.82307499999,
      "d": 192.85695000000123,
      "v": 96
    },
    {
      "midi": 75,
      "hit": false,
      "t": 34067.82307499999,
      "d": 174.99982499999896,
      "v": 127
    },
    {
      "midi": 35,
      "hit": false,
      "t": 34067.823075000044,
      "d": 192.85695000000123,
      "v": 115
    },
    {
      "midi": 57,
      "hit": false,
      "t": 34232.10862499999,
      "d": 1453.5699749999912,
      "v": 100
    },
    {
      "midi": 57,
      "hit": false,
      "t": 34246.394324999994,
      "d": 1039.2846749999953,
      "v": 100
    },
    {
      "midi": 61,
      "hit": false,
      "t": 34257.10859999999,
      "d": 1453.5699749999912,
      "v": 100
    },
    {
      "midi": 61,
      "hit": false,
      "t": 34271.39429999999,
      "d": 1039.2846749999953,
      "v": 100
    },
    {
      "midi": 12,
      "hit": false,
      "t": 34282.10857499985,
      "d": 53.571374999999534,
      "v": 110
    },
    {
      "midi": 42,
      "hit": false,
      "t": 34282.10857499985,
      "d": 53.571374999999534,
      "v": 100
    },
    {
      "midi": 64,
      "hit": false,
      "t": 34282.10857499999,
      "d": 1453.5699749999912,
      "v": 100
    },
    {
      "midi": 73,
      "hit": false,
      "t": 34282.10857499999,
      "d": 1453.5699749999912,
      "v": 100
    },
    {
      "midi": 76,
      "hit": false,
      "t": 34282.10857499999,
      "d": 385.71390000000247,
      "v": 127
    },
    {
      "midi": 61,
      "hit": false,
      "t": 34282.108575000006,
      "d": 1499.9985000000015,
      "v": 100
    },
    {
      "midi": 57,
      "hit": false,
      "t": 34282.108575000006,
      "d": 1499.9985000000015,
      "v": 100
    },
    {
      "midi": 64,
      "hit": false,
      "t": 34282.108575000006,
      "d": 1499.9985000000015,
      "v": 100
    },
    {
      "midi": 33,
      "hit": false,
      "t": 34282.10857500004,
      "d": 385.71390000000247,
      "v": 115
    },
    {
      "midi": 64,
      "hit": false,
      "t": 34296.39427499999,
      "d": 1003.5704249999981,
      "v": 100
    },
    {
      "midi": 69,
      "hit": false,
      "t": 34303.53712499999,
      "d": 1453.5699749999912,
      "v": 100
    },
    {
      "midi": 69,
      "hit": false,
      "t": 34307.10854999999,
      "d": 1039.2846749999953,
      "v": 100
    },
    {
      "midi": 73,
      "hit": false,
      "t": 34328.53709999999,
      "d": 1024.998974999995,
      "v": 100
    },
    {
      "midi": 42,
      "hit": false,
      "t": 34496.39407499985,
      "d": 53.571374999999534,
      "v": 100
    },
    {
      "midi": 70,
      "hit": false,
      "t": 34496.39407499985,
      "d": 53.571374999999534,
      "v": 100
    },
    {
      "midi": 12,
      "hit": false,
      "t": 34710.67957499985,
      "d": 53.571374999999534,
      "v": 110
    },
    {
      "midi": 42,
      "hit": false,
      "t": 34710.67957499985,
      "d": 53.571374999999534,
      "v": 100
    },
    {
      "midi": 117,
      "hit": false,
      "t": 34710.67957499985,
      "d": 53.571374999999534,
      "v": 110
    },
    {
      "midi": 75,
      "hit": false,
      "t": 34710.679574999995,
      "d": 385.71390000000247,
      "v": 127
    },
    {
      "midi": 42,
      "hit": false,
      "t": 34817.82232499985,
      "d": 53.571374999999534,
      "v": 100
    },
    {
      "midi": 42,
      "hit": false,
      "t": 34924.96507499985,
      "d": 53.571374999999534,
      "v": 100
    },
    {
      "midi": 70,
      "hit": false,
      "t": 34924.96507499985,
      "d": 53.571374999999534,
      "v": 100
    },
    {
      "midi": 28,
      "hit": false,
      "t": 34924.965075000044,
      "d": 192.85695000000123,
      "v": 115
    },
    {
      "midi": 12,
      "hit": false,
      "t": 35139.250574999845,
      "d": 53.571374999999534,
      "v": 110
    },
    {
      "midi": 42,
      "hit": false,
      "t": 35139.250574999845,
      "d": 53.571374999999534,
      "v": 100
    },
    {
      "midi": 73,
      "hit": false,
      "t": 35139.250575,
      "d": 174.99982499999896,
      "v": 127
    },
    {
      "midi": 30,
      "hit": false,
      "t": 35139.25057500004,
      "d": 192.85695000000123,
      "v": 115
    },
    {
      "midi": 42,
      "hit": false,
      "t": 35353.53607499984,
      "d": 53.571374999999534,
      "v": 100
    },
    {
      "midi": 70,
      "hit": false,
      "t": 35353.53607499984,
      "d": 53.571374999999534,
      "v": 100
    },
    {
      "midi": 73,
      "hit": false,
      "t": 35353.53607499998,
      "d": 107.14274999999907,
      "v": 96
    },
    {
      "midi": 64,
      "hit": false,
      "t": 35353.53607499998,
      "d": 107.14274999999907,
      "v": 96
    },
    {
      "midi": 57,
      "hit": false,
      "t": 35353.53607499998,
      "d": 107.14274999999907,
      "v": 96
    },
    {
      "midi": 61,
      "hit": false,
      "t": 35353.53607499998,
      "d": 107.14274999999907,
      "v": 96
    },
    {
      "midi": 69,
      "hit": false,
      "t": 35353.53607499998,
      "d": 107.14274999999907,
      "v": 96
    },
    {
      "midi": 73,
      "hit": false,
      "t": 35353.536074999996,
      "d": 174.99982499999896,
      "v": 127
    },
    {
      "midi": 33,
      "hit": false,
      "t": 35353.53607500004,
      "d": 192.85695000000123,
      "v": 115
    },
    {
      "midi": 12,
      "hit": false,
      "t": 35567.82157499984,
      "d": 53.571374999999534,
      "v": 110
    },
    {
      "midi": 42,
      "hit": false,
      "t": 35567.82157499984,
      "d": 53.571374999999534,
      "v": 100
    },
    {
      "midi": 117,
      "hit": false,
      "t": 35567.82157499984,
      "d": 53.571374999999534,
      "v": 110
    },
    {
      "midi": 30,
      "hit": false,
      "t": 35567.82157500004,
      "d": 192.85695000000123,
      "v": 115
    },
    {
      "midi": 42,
      "hit": false,
      "t": 35674.96432499984,
      "d": 53.571374999999534,
      "v": 100
    },
    {
      "midi": 42,
      "hit": false,
      "t": 35782.10707499984,
      "d": 53.571374999999534,
      "v": 100
    },
    {
      "midi": 70,
      "hit": false,
      "t": 35782.10707499984,
      "d": 53.571374999999534,
      "v": 100
    },
    {
      "midi": 64,
      "hit": false,
      "t": 35782.10707499998,
      "d": 1871.4267000000036,
      "v": 100
    },
    {
      "midi": 68,
      "hit": false,
      "t": 35782.10707499998,
      "d": 1871.4267000000036,
      "v": 100
    },
    {
      "midi": 71,
      "hit": false,
      "t": 35782.10707499998,
      "d": 1871.4267000000036,
      "v": 100
    },
    {
      "midi": 56,
      "hit": false,
      "t": 35782.10707499998,
      "d": 1871.4267000000036,
      "v": 100
    },
    {
      "midi": 59,
      "hit": false,
      "t": 35782.10707499998,
      "d": 1871.4267000000036,
      "v": 100
    },
    {
      "midi": 64,
      "hit": false,
      "t": 35782.10707499998,
      "d": 428.57100000000355,
      "v": 100
    },
    {
      "midi": 68,
      "hit": false,
      "t": 35782.10707499998,
      "d": 428.57100000000355,
      "v": 100
    },
    {
      "midi": 71,
      "hit": false,
      "t": 35782.10707499998,
      "d": 428.57100000000355,
      "v": 100
    },
    {
      "midi": 59,
      "hit": false,
      "t": 35782.10707499998,
      "d": 1867.8552749999944,
      "v": 100
    },
    {
      "midi": 56,
      "hit": false,
      "t": 35782.10707499998,
      "d": 1867.8552749999944,
      "v": 100
    },
    {
      "midi": 73,
      "hit": false,
      "t": 35782.10707499999,
      "d": 385.71390000000247,
      "v": 127
    },
    {
      "midi": 56,
      "hit": false,
      "t": 35782.10707500001,
      "d": 857.1419999999998,
      "v": 100
    },
    {
      "midi": 64,
      "hit": false,
      "t": 35782.10707500001,
      "d": 857.1419999999998,
      "v": 100
    },
    {
      "midi": 59,
      "hit": false,
      "t": 35782.10707500001,
      "d": 857.1419999999998,
      "v": 100
    },
    {
      "midi": 28,
      "hit": false,
      "t": 35782.107075000036,
      "d": 385.71390000000247,
      "v": 115
    },
    {
      "midi": 12,
      "hit": false,
      "t": 35996.39257499984,
      "d": 53.571374999999534,
      "v": 110
    },
    {
      "midi": 42,
      "hit": false,
      "t": 35996.39257499984,
      "d": 53.571374999999534,
      "v": 100
    },
    {
      "midi": 70,
      "hit": false,
      "t": 36210.678074999836,
      "d": 53.571374999999534,
      "v": 100
    },
    {
      "midi": 42,
      "hit": false,
      "t": 36210.678074999836,
      "d": 53.571374999999534,
      "v": 100
    },
    {
      "midi": 68,
      "hit": false,
      "t": 36210.67807499998,
      "d": 214.28549999999814,
      "v": 100
    },
    {
      "midi": 64,
      "hit": false,
      "t": 36210.67807499998,
      "d": 214.28549999999814,
      "v": 100
    },
    {
      "midi": 71,
      "hit": false,
      "t": 36210.67807499998,
      "d": 1439.2842749999909,
      "v": 100
    },
    {
      "midi": 71,
      "hit": false,
      "t": 36210.678074999996,
      "d": 174.99982499999896,
      "v": 127
    },
    {
      "midi": 28,
      "hit": false,
      "t": 36210.67807500004,
      "d": 192.85695000000123,
      "v": 115
    },
    {
      "midi": 12,
      "hit": false,
      "t": 36424.963574999834,
      "d": 53.571374999999534,
      "v": 110
    },
    {
      "midi": 42,
      "hit": false,
      "t": 36424.963574999834,
      "d": 53.571374999999534,
      "v": 100
    },
    {
      "midi": 117,
      "hit": false,
      "t": 36424.963574999834,
      "d": 53.571374999999534,
      "v": 110
    },
    {
      "midi": 69,
      "hit": false,
      "t": 36424.96357499998,
      "d": 214.28549999999814,
      "v": 100
    },
    {
      "midi": 66,
      "hit": false,
      "t": 36424.96357499998,
      "d": 214.28549999999814,
      "v": 100
    },
    {
      "midi": 42,
      "hit": false,
      "t": 36532.10632499983,
      "d": 53.571374999999534,
      "v": 100
    },
    {
      "midi": 42,
      "hit": false,
      "t": 36639.24907499983,
      "d": 53.571374999999534,
      "v": 100
    },
    {
      "midi": 70,
      "hit": false,
      "t": 36639.24907499983,
      "d": 53.571374999999534,
      "v": 100
    },
    {
      "midi": 68,
      "hit": false,
      "t": 36639.24907499998,
      "d": 214.28549999999814,
      "v": 100
    },
    {
      "midi": 64,
      "hit": false,
      "t": 36639.24907499998,
      "d": 214.28549999999814,
      "v": 100
    },
    {
      "midi": 68,
      "hit": false,
      "t": 36639.24907500001,
      "d": 1071.427499999998,
      "v": 100
    },
    {
      "midi": 56,
      "hit": false,
      "t": 36639.24907500001,
      "d": 1071.427499999998,
      "v": 100
    },
    {
      "midi": 59,
      "hit": false,
      "t": 36639.24907500001,
      "d": 1071.427499999998,
      "v": 100
    },
    {
      "midi": 64,
      "hit": false,
      "t": 36639.24907500001,
      "d": 1071.427499999998,
      "v": 100
    },
    {
      "midi": 28,
      "hit": false,
      "t": 36639.24907500004,
      "d": 385.71390000000247,
      "v": 115
    },
    {
      "midi": 12,
      "hit": false,
      "t": 36853.53457499983,
      "d": 53.571374999999534,
      "v": 110
    },
    {
      "midi": 42,
      "hit": false,
      "t": 36853.53457499983,
      "d": 53.571374999999534,
      "v": 100
    },
    {
      "midi": 69,
      "hit": false,
      "t": 36853.534574999976,
      "d": 214.28549999999814,
      "v": 100
    },
    {
      "midi": 66,
      "hit": false,
      "t": 36853.534574999976,
      "d": 214.28549999999814,
      "v": 100
    },
    {
      "midi": 42,
      "hit": false,
      "t": 37067.82007499983,
      "d": 53.571374999999534,
      "v": 100
    },
    {
      "midi": 70,
      "hit": false,
      "t": 37067.82007499983,
      "d": 53.571374999999534,
      "v": 100
    },
    {
      "midi": 64,
      "hit": false,
      "t": 37067.820074999974,
      "d": 571.4279999999999,
      "v": 100
    },
    {
      "midi": 68,
      "hit": false,
      "t": 37067.820074999974,
      "d": 592.8565499999968,
      "v": 100
    },
    {
      "midi": 27,
      "hit": false,
      "t": 37067.82007500005,
      "d": 192.85695000000123,
      "v": 115
    },
    {
      "midi": 12,
      "hit": false,
      "t": 37282.10557499983,
      "d": 53.571374999999534,
      "v": 110
    },
    {
      "midi": 42,
      "hit": false,
      "t": 37282.10557499983,
      "d": 53.571374999999534,
      "v": 100
    },
    {
      "midi": 117,
      "hit": false,
      "t": 37282.10557499983,
      "d": 53.571374999999534,
      "v": 110
    },
    {
      "midi": 28,
      "hit": false,
      "t": 37282.105575000045,
      "d": 192.85695000000123,
      "v": 115
    },
    {
      "midi": 42,
      "hit": false,
      "t": 37389.248324999826,
      "d": 53.571374999999534,
      "v": 100
    },
    {
      "midi": 42,
      "hit": false,
      "t": 37496.391074999825,
      "d": 53.571374999999534,
      "v": 100
    },
    {
      "midi": 70,
      "hit": false,
      "t": 37496.391074999825,
      "d": 53.571374999999534,
      "v": 100
    },
    {
      "midi": 30,
      "hit": false,
      "t": 37496.39107500004,
      "d": 192.85695000000123,
      "v": 115
    },
    {
      "midi": 117,
      "hit": false,
      "t": 37603.533824999824,
      "d": 53.571374999999534,
      "v": 100
    },
    {
      "midi": 54,
      "hit": false,
      "t": 37649.96234999997,
      "d": 1071.4274999999907,
      "v": 100
    },
    {
      "midi": 54,
      "hit": false,
      "t": 37660.67662499998,
      "d": 3324.996674999995,
      "v": 100
    },
    {
      "midi": 59,
      "hit": false,
      "t": 37674.96232499997,
      "d": 1071.4274999999907,
      "v": 100
    },
    {
      "midi": 59,
      "hit": false,
      "t": 37674.96232499998,
      "d": 3324.996674999995,
      "v": 100
    },
    {
      "midi": 12,
      "hit": false,
      "t": 37710.67657499982,
      "d": 53.571374999999534,
      "v": 110
    },
    {
      "midi": 42,
      "hit": false,
      "t": 37710.67657499982,
      "d": 53.571374999999534,
      "v": 100
    },
    {
      "midi": 63,
      "hit": false,
      "t": 37710.67657499997,
      "d": 1071.4274999999907,
      "v": 100
    },
    {
      "midi": 63,
      "hit": false,
      "t": 37710.676574999976,
      "d": 3324.996674999995,
      "v": 100
    },
    {
      "midi": 75,
      "hit": false,
      "t": 37710.676574999976,
      "d": 3324.996674999995,
      "v": 100
    },
    {
      "midi": 54,
      "hit": false,
      "t": 37710.676575000005,
      "d": 3428.5679999999993,
      "v": 100
    },
    {
      "midi": 63,
      "hit": false,
      "t": 37710.676575000005,
      "d": 3428.5679999999993,
      "v": 100
    },
    {
      "midi": 59,
      "hit": false,
      "t": 37710.676575000005,
      "d": 3428.5679999999993,
      "v": 100
    },
    {
      "midi": 35,
      "hit": false,
      "t": 37710.67657500004,
      "d": 385.71390000000247,
      "v": 115
    },
    {
      "midi": 66,
      "hit": false,
      "t": 37724.962274999976,
      "d": 3324.996674999995,
      "v": 100
    },
    {
      "midi": 66,
      "hit": false,
      "t": 37735.67654999997,
      "d": 1021.4275499999931,
      "v": 100
    },
    {
      "midi": 71,
      "hit": false,
      "t": 37735.676549999975,
      "d": 3324.996674999995,
      "v": 100
    },
    {
      "midi": 42,
      "hit": false,
      "t": 37924.96207499982,
      "d": 53.571374999999534,
      "v": 100
    },
    {
      "midi": 70,
      "hit": false,
      "t": 37924.96207499982,
      "d": 53.571374999999534,
      "v": 100
    },
    {
      "midi": 12,
      "hit": false,
      "t": 38139.24757499982,
      "d": 53.571374999999534,
      "v": 110
    },
    {
      "midi": 42,
      "hit": false,
      "t": 38139.24757499982,
      "d": 53.571374999999534,
      "v": 100
    },
    {
      "midi": 117,
      "hit": false,
      "t": 38139.24757499982,
      "d": 53.571374999999534,
      "v": 110
    },
    {
      "midi": 78,
      "hit": false,
      "t": 38139.247574999994,
      "d": 174.99982499999896,
      "v": 127
    },
    {
      "midi": 35,
      "hit": false,
      "t": 38139.247575000045,
      "d": 192.85695000000123,
      "v": 115
    },
    {
      "midi": 42,
      "hit": false,
      "t": 38246.39032499982,
      "d": 53.571374999999534,
      "v": 100
    },
    {
      "midi": 42,
      "hit": false,
      "t": 38353.53307499982,
      "d": 53.571374999999534,
      "v": 100
    },
    {
      "midi": 70,
      "hit": false,
      "t": 38353.53307499982,
      "d": 53.571374999999534,
      "v": 100
    },
    {
      "midi": 78,
      "hit": false,
      "t": 38353.53307499999,
      "d": 174.99982499999896,
      "v": 127
    },
    {
      "midi": 12,
      "hit": false,
      "t": 38567.818574999816,
      "d": 53.571374999999534,
      "v": 110
    },
    {
      "midi": 42,
      "hit": false,
      "t": 38567.818574999816,
      "d": 53.571374999999534,
      "v": 100
    },
    {
      "midi": 78,
      "hit": false,
      "t": 38567.81857499999,
      "d": 174.99982499999896,
      "v": 127
    },
    {
      "midi": 42,
      "hit": false,
      "t": 38782.104074999814,
      "d": 53.571374999999534,
      "v": 100
    },
    {
      "midi": 70,
      "hit": false,
      "t": 38782.104074999814,
      "d": 53.571374999999534,
      "v": 100
    },
    {
      "midi": 71,
      "hit": false,
      "t": 38782.10407499996,
      "d": 10.714274999998452,
      "v": 96
    },
    {
      "midi": 59,
      "hit": false,
      "t": 38782.10407499996,
      "d": 107.14274999999907,
      "v": 96
    },
    {
      "midi": 63,
      "hit": false,
      "t": 38782.10407499996,
      "d": 107.14274999999907,
      "v": 96
    },
    {
      "midi": 54,
      "hit": false,
      "t": 38782.10407499996,
      "d": 107.14274999999907,
      "v": 96
    },
    {
      "midi": 66,
      "hit": false,
      "t": 38782.10407499996,
      "d": 107.14274999999907,
      "v": 96
    },
    {
      "midi": 78,
      "hit": false,
      "t": 38782.10407499999,
      "d": 174.99982499999896,
      "v": 127
    },
    {
      "midi": 30,
      "hit": false,
      "t": 38782.10407500005,
      "d": 192.85695000000123,
      "v": 115
    },
    {
      "midi": 12,
      "hit": false,
      "t": 38996.38957499981,
      "d": 53.571374999999534,
      "v": 110
    },
    {
      "midi": 42,
      "hit": false,
      "t": 38996.38957499981,
      "d": 53.571374999999534,
      "v": 100
    },
    {
      "midi": 117,
      "hit": false,
      "t": 38996.38957499981,
      "d": 53.571374999999534,
      "v": 110
    },
    {
      "midi": 78,
      "hit": false,
      "t": 38996.38957499999,
      "d": 174.99982499999896,
      "v": 127
    },
    {
      "midi": 32,
      "hit": false,
      "t": 38996.389575000045,
      "d": 192.85695000000123,
      "v": 115
    },
    {
      "midi": 42,
      "hit": false,
      "t": 39103.53232499981,
      "d": 53.571374999999534,
      "v": 100
    },
    {
      "midi": 42,
      "hit": false,
      "t": 39210.67507499981,
      "d": 53.571374999999534,
      "v": 100
    },
    {
      "midi": 70,
      "hit": false,
      "t": 39210.67507499981,
      "d": 53.571374999999534,
      "v": 100
    },
    {
      "midi": 71,
      "hit": false,
      "t": 39210.675074999956,
      "d": 428.57100000000355,
      "v": 96
    },
    {
      "midi": 63,
      "hit": false,
      "t": 39210.675074999956,
      "d": 428.57100000000355,
      "v": 96
    },
    {
      "midi": 54,
      "hit": false,
      "t": 39210.675074999956,
      "d": 428.57100000000355,
      "v": 96
    },
    {
      "midi": 59,
      "hit": false,
      "t": 39210.675074999956,
      "d": 428.57100000000355,
      "v": 96
    },
    {
      "midi": 66,
      "hit": false,
      "t": 39210.675074999956,
      "d": 428.57100000000355,
      "v": 96
    },
    {
      "midi": 80,
      "hit": false,
      "t": 39210.675074999985,
      "d": 385.71390000000247,
      "v": 127
    },
    {
      "midi": 35,
      "hit": false,
      "t": 39210.67507500004,
      "d": 192.85695000000123,
      "v": 115
    },
    {
      "midi": 12,
      "hit": false,
      "t": 39424.96057499981,
      "d": 53.571374999999534,
      "v": 110
    },
    {
      "midi": 42,
      "hit": false,
      "t": 39424.96057499981,
      "d": 53.571374999999534,
      "v": 100
    },
    {
      "midi": 70,
      "hit": false,
      "t": 39639.246074999806,
      "d": 53.571374999999534,
      "v": 100
    },
    {
      "midi": 42,
      "hit": false,
      "t": 39639.246074999806,
      "d": 53.571374999999534,
      "v": 100
    },
    {
      "midi": 66,
      "hit": false,
      "t": 39639.24607499996,
      "d": 107.14274999999907,
      "v": 96
    },
    {
      "midi": 63,
      "hit": false,
      "t": 39639.24607499996,
      "d": 107.14274999999907,
      "v": 96
    },
    {
      "midi": 54,
      "hit": false,
      "t": 39639.24607499996,
      "d": 107.14274999999907,
      "v": 96
    },
    {
      "midi": 59,
      "hit": false,
      "t": 39639.24607499996,
      "d": 107.14274999999907,
      "v": 96
    },
    {
      "midi": 71,
      "hit": false,
      "t": 39639.24607499996,
      "d": 107.14274999999907,
      "v": 96
    },
    {
      "midi": 78,
      "hit": false,
      "t": 39639.24607499999,
      "d": 346.4282250000033,
      "v": 127
    },
    {
      "midi": 30,
      "hit": false,
      "t": 39639.24607500005,
      "d": 192.85695000000123,
      "v": 115
    },
    {
      "midi": 12,
      "hit": false,
      "t": 39853.531574999804,
      "d": 53.571374999999534,
      "v": 110
    },
    {
      "midi": 42,
      "hit": false,
      "t": 39853.531574999804,
      "d": 53.571374999999534,
      "v": 100
    },
    {
      "midi": 117,
      "hit": false,
      "t": 39853.531574999804,
      "d": 53.571374999999534,
      "v": 110
    },
    {
      "midi": 32,
      "hit": false,
      "t": 39853.531575000045,
      "d": 192.85695000000123,
      "v": 115
    },
    {
      "midi": 42,
      "hit": false,
      "t": 39960.6743249998,
      "d": 53.571374999999534,
      "v": 100
    },
    {
      "midi": 42,
      "hit": false,
      "t": 40067.8170749998,
      "d": 53.571374999999534,
      "v": 100
    },
    {
      "midi": 70,
      "hit": false,
      "t": 40067.8170749998,
      "d": 53.571374999999534,
      "v": 100
    },
    {
      "midi": 71,
      "hit": false,
      "t": 40067.817074999955,
      "d": 428.57100000000355,
      "v": 96
    },
    {
      "midi": 63,
      "hit": false,
      "t": 40067.817074999955,
      "d": 428.57100000000355,
      "v": 96
    },
    {
      "midi": 54,
      "hit": false,
      "t": 40067.817074999955,
      "d": 428.57100000000355,
      "v": 96
    },
    {
      "midi": 59,
      "hit": false,
      "t": 40067.817074999955,
      "d": 428.57100000000355,
      "v": 96
    },
    {
      "midi": 66,
      "hit": false,
      "t": 40067.817074999955,
      "d": 428.57100000000355,
      "v": 96
    },
    {
      "midi": 78,
      "hit": false,
      "t": 40067.81707499999,
      "d": 174.99982499999896,
      "v": 127
    },
    {
      "midi": 35,
      "hit": false,
      "t": 40067.81707500004,
      "d": 192.85695000000123,
      "v": 115
    },
    {
      "midi": 12,
      "hit": false,
      "t": 40282.1025749998,
      "d": 53.571374999999534,
      "v": 110
    },
    {
      "midi": 42,
      "hit": false,
      "t": 40282.1025749998,
      "d": 53.571374999999534,
      "v": 100
    },
    {
      "midi": 42,
      "hit": false,
      "t": 40496.3880749998,
      "d": 53.571374999999534,
      "v": 100
    },
    {
      "midi": 70,
      "hit": false,
      "t": 40496.3880749998,
      "d": 53.571374999999534,
      "v": 100
    },
    {
      "midi": 71,
      "hit": false,
      "t": 40496.38807499996,
      "d": 192.85695000000123,
      "v": 74
    },
    {
      "midi": 63,
      "hit": false,
      "t": 40496.38807499996,
      "d": 192.85695000000123,
      "v": 74
    },
    {
      "midi": 54,
      "hit": false,
      "t": 40496.38807499996,
      "d": 192.85695000000123,
      "v": 74
    },
    {
      "midi": 59,
      "hit": false,
      "t": 40496.38807499996,
      "d": 192.85695000000123,
      "v": 74
    },
    {
      "midi": 66,
      "hit": false,
      "t": 40496.38807499996,
      "d": 192.85695000000123,
      "v": 74
    },
    {
      "midi": 75,
      "hit": false,
      "t": 40496.38807499999,
      "d": 174.99982499999896,
      "v": 127
    },
    {
      "midi": 30,
      "hit": false,
      "t": 40496.388075000046,
      "d": 192.85695000000123,
      "v": 115
    },
    {
      "midi": 12,
      "hit": false,
      "t": 40710.6735749998,
      "d": 53.571374999999534,
      "v": 110
    },
    {
      "midi": 42,
      "hit": false,
      "t": 40710.6735749998,
      "d": 53.571374999999534,
      "v": 100
    },
    {
      "midi": 117,
      "hit": false,
      "t": 40710.6735749998,
      "d": 53.571374999999534,
      "v": 110
    },
    {
      "midi": 66,
      "hit": false,
      "t": 40710.67357499996,
      "d": 192.85695000000123,
      "v": 90
    },
    {
      "midi": 59,
      "hit": false,
      "t": 40710.67357499996,
      "d": 192.85695000000123,
      "v": 90
    },
    {
      "midi": 71,
      "hit": false,
      "t": 40710.67357499996,
      "d": 192.85695000000123,
      "v": 90
    },
    {
      "midi": 54,
      "hit": false,
      "t": 40710.67357499996,
      "d": 192.85695000000123,
      "v": 90
    },
    {
      "midi": 63,
      "hit": false,
      "t": 40710.67357499996,
      "d": 192.85695000000123,
      "v": 90
    },
    {
      "midi": 75,
      "hit": false,
      "t": 40710.673574999986,
      "d": 174.99982499999896,
      "v": 127
    },
    {
      "midi": 32,
      "hit": false,
      "t": 40710.673575000044,
      "d": 192.85695000000123,
      "v": 115
    },
    {
      "midi": 42,
      "hit": false,
      "t": 40817.816324999796,
      "d": 53.571374999999534,
      "v": 100
    },
    {
      "midi": 42,
      "hit": false,
      "t": 40924.959074999795,
      "d": 53.571374999999534,
      "v": 100
    },
    {
      "midi": 70,
      "hit": false,
      "t": 40924.959074999795,
      "d": 53.571374999999534,
      "v": 100
    },
    {
      "midi": 66,
      "hit": false,
      "t": 40924.959074999955,
      "d": 192.85695000000123,
      "v": 96
    },
    {
      "midi": 63,
      "hit": false,
      "t": 40924.959074999955,
      "d": 192.85695000000123,
      "v": 96
    },
    {
      "midi": 59,
      "hit": false,
      "t": 40924.959074999955,
      "d": 192.85695000000123,
      "v": 96
    },
    {
      "midi": 71,
      "hit": false,
      "t": 40924.959074999955,
      "d": 192.85695000000123,
      "v": 96
    },
    {
      "midi": 54,
      "hit": false,
      "t": 40924.959074999955,
      "d": 192.85695000000123,
      "v": 96
    },
    {
      "midi": 75,
      "hit": false,
      "t": 40924.959074999984,
      "d": 174.99982499999896,
      "v": 127
    },
    {
      "midi": 35,
      "hit": false,
      "t": 40924.95907500004,
      "d": 192.85695000000123,
      "v": 115
    },
    {
      "midi": 57,
      "hit": false,
      "t": 41103.530324999956,
      "d": 1039.2846749999953,
      "v": 100
    },
    {
      "midi": 57,
      "hit": false,
      "t": 41114.24459999997,
      "d": 1453.5699749999985,
      "v": 100
    },
    {
      "midi": 61,
      "hit": false,
      "t": 41128.530299999955,
      "d": 1039.2846749999953,
      "v": 100
    },
    {
      "midi": 12,
      "hit": false,
      "t": 41139.24457499979,
      "d": 53.571374999999534,
      "v": 110
    },
    {
      "midi": 42,
      "hit": false,
      "t": 41139.24457499979,
      "d": 53.571374999999534,
      "v": 100
    },
    {
      "midi": 73,
      "hit": false,
      "t": 41139.24457499997,
      "d": 1453.5699749999985,
      "v": 100
    },
    {
      "midi": 61,
      "hit": false,
      "t": 41139.24457499997,
      "d": 1453.5699749999985,
      "v": 100
    },
    {
      "midi": 76,
      "hit": false,
      "t": 41139.24457499998,
      "d": 385.71390000000247,
      "v": 127
    },
    {
      "midi": 61,
      "hit": false,
      "t": 41139.244575000004,
      "d": 1499.9985000000015,
      "v": 100
    },
    {
      "midi": 57,
      "hit": false,
      "t": 41139.244575000004,
      "d": 1499.9985000000015,
      "v": 100
    },
    {
      "midi": 64,
      "hit": false,
      "t": 41139.244575000004,
      "d": 1499.9985000000015,
      "v": 100
    },
    {
      "midi": 33,
      "hit": false,
      "t": 41139.24457500004,
      "d": 385.71390000000247,
      "v": 115
    },
    {
      "midi": 64,
      "hit": false,
      "t": 41153.530274999954,
      "d": 1003.5704249999981,
      "v": 100
    },
    {
      "midi": 69,
      "hit": false,
      "t": 41164.24454999995,
      "d": 1039.2846749999953,
      "v": 100
    },
    {
      "midi": 64,
      "hit": false,
      "t": 41164.24454999997,
      "d": 1453.5699749999985,
      "v": 100
    },
    {
      "midi": 69,
      "hit": false,
      "t": 41164.24454999997,
      "d": 1453.5699749999985,
      "v": 100
    },
    {
      "midi": 73,
      "hit": false,
      "t": 41185.67309999995,
      "d": 1024.998974999995,
      "v": 100
    },
    {
      "midi": 42,
      "hit": false,
      "t": 41353.53007499979,
      "d": 53.571374999999534,
      "v": 100
    },
    {
      "midi": 70,
      "hit": false,
      "t": 41353.53007499979,
      "d": 53.571374999999534,
      "v": 100
    },
    {
      "midi": 12,
      "hit": false,
      "t": 41567.81557499979,
      "d": 53.571374999999534,
      "v": 110
    },
    {
      "midi": 42,
      "hit": false,
      "t": 41567.81557499979,
      "d": 53.571374999999534,
      "v": 100
    },
    {
      "midi": 117,
      "hit": false,
      "t": 41567.81557499979,
      "d": 53.571374999999534,
      "v": 110
    },
    {
      "midi": 75,
      "hit": false,
      "t": 41567.815574999986,
      "d": 385.71390000000247,
      "v": 127
    },
    {
      "midi": 42,
      "hit": false,
      "t": 41674.95832499979,
      "d": 53.571374999999534,
      "v": 100
    },
    {
      "midi": 42,
      "hit": false,
      "t": 41782.10107499979,
      "d": 53.571374999999534,
      "v": 100
    },
    {
      "midi": 70,
      "hit": false,
      "t": 41782.10107499979,
      "d": 53.571374999999534,
      "v": 100
    },
    {
      "midi": 28,
      "hit": false,
      "t": 41782.10107500004,
      "d": 192.85695000000123,
      "v": 115
    },
    {
      "midi": 12,
      "hit": false,
      "t": 41996.386574999786,
      "d": 53.571374999999534,
      "v": 110
    },
    {
      "midi": 42,
      "hit": false,
      "t": 41996.386574999786,
      "d": 53.571374999999534,
      "v": 100
    },
    {
      "midi": 73,
      "hit": false,
      "t": 41996.38657499999,
      "d": 174.99982499999896,
      "v": 127
    },
    {
      "midi": 30,
      "hit": false,
      "t": 41996.38657500004,
      "d": 192.85695000000123,
      "v": 115
    },
    {
      "midi": 42,
      "hit": false,
      "t": 42210.672074999784,
      "d": 53.571374999999534,
      "v": 100
    },
    {
      "midi": 70,
      "hit": false,
      "t": 42210.672074999784,
      "d": 53.571374999999534,
      "v": 100
    },
    {
      "midi": 73,
      "hit": false,
      "t": 42210.672074999944,
      "d": 107.14274999999907,
      "v": 96
    },
    {
      "midi": 64,
      "hit": false,
      "t": 42210.672074999944,
      "d": 107.14274999999907,
      "v": 96
    },
    {
      "midi": 57,
      "hit": false,
      "t": 42210.672074999944,
      "d": 107.14274999999907,
      "v": 96
    },
    {
      "midi": 61,
      "hit": false,
      "t": 42210.672074999944,
      "d": 107.14274999999907,
      "v": 96
    },
    {
      "midi": 69,
      "hit": false,
      "t": 42210.672074999944,
      "d": 107.14274999999907,
      "v": 96
    },
    {
      "midi": 73,
      "hit": false,
      "t": 42210.67207499999,
      "d": 174.99982499999896,
      "v": 127
    },
    {
      "midi": 33,
      "hit": false,
      "t": 42210.67207500004,
      "d": 192.85695000000123,
      "v": 115
    },
    {
      "midi": 12,
      "hit": false,
      "t": 42424.95757499978,
      "d": 53.571374999999534,
      "v": 110
    },
    {
      "midi": 42,
      "hit": false,
      "t": 42424.95757499978,
      "d": 53.571374999999534,
      "v": 100
    },
    {
      "midi": 117,
      "hit": false,
      "t": 42424.95757499978,
      "d": 53.571374999999534,
      "v": 110
    },
    {
      "midi": 30,
      "hit": false,
      "t": 42424.95757500004,
      "d": 192.85695000000123,
      "v": 115
    },
    {
      "midi": 42,
      "hit": false,
      "t": 42532.10032499978,
      "d": 53.571374999999534,
      "v": 100
    },
    {
      "midi": 42,
      "hit": false,
      "t": 42639.24307499978,
      "d": 53.571374999999534,
      "v": 100
    },
    {
      "midi": 70,
      "hit": false,
      "t": 42639.24307499978,
      "d": 53.571374999999534,
      "v": 100
    },
    {
      "midi": 64,
      "hit": false,
      "t": 42639.24307499994,
      "d": 428.57100000000355,
      "v": 100
    },
    {
      "midi": 68,
      "hit": false,
      "t": 42639.24307499994,
      "d": 428.57100000000355,
      "v": 100
    },
    {
      "midi": 71,
      "hit": false,
      "t": 42639.24307499994,
      "d": 428.57100000000355,
      "v": 100
    },
    {
      "midi": 59,
      "hit": false,
      "t": 42639.24307499994,
      "d": 1928.5694999999978,
      "v": 100
    },
    {
      "midi": 56,
      "hit": false,
      "t": 42639.24307499994,
      "d": 1928.5694999999978,
      "v": 100
    },
    {
      "midi": 64,
      "hit": false,
      "t": 42639.24307499996,
      "d": 857.1419999999998,
      "v": 100
    },
    {
      "midi": 68,
      "hit": false,
      "t": 42639.24307499996,
      "d": 857.1419999999998,
      "v": 100
    },
    {
      "midi": 73,
      "hit": false,
      "t": 42639.24307499996,
      "d": 857.1419999999998,
      "v": 100
    },
    {
      "midi": 56,
      "hit": false,
      "t": 42639.24307499996,
      "d": 857.1419999999998,
      "v": 100
    },
    {
      "midi": 59,
      "hit": false,
      "t": 42639.24307499996,
      "d": 857.1419999999998,
      "v": 100
    },
    {
      "midi": 73,
      "hit": false,
      "t": 42639.243074999984,
      "d": 385.71390000000247,
      "v": 127
    },
    {
      "midi": 56,
      "hit": false,
      "t": 42639.243075000006,
      "d": 1928.5694999999978,
      "v": 100
    },
    {
      "midi": 64,
      "hit": false,
      "t": 42639.243075000006,
      "d": 1928.5694999999978,
      "v": 100
    },
    {
      "midi": 59,
      "hit": false,
      "t": 42639.243075000006,
      "d": 1928.5694999999978,
      "v": 100
    },
    {
      "midi": 28,
      "hit": false,
      "t": 42639.243075000035,
      "d": 385.71390000000247,
      "v": 115
    },
    {
      "midi": 12,
      "hit": false,
      "t": 42853.52857499978,
      "d": 53.571374999999534,
      "v": 110
    },
    {
      "midi": 42,
      "hit": false,
      "t": 42853.52857499978,
      "d": 53.571374999999534,
      "v": 100
    },
    {
      "midi": 70,
      "hit": false,
      "t": 43067.81407499978,
      "d": 53.571374999999534,
      "v": 100
    },
    {
      "midi": 42,
      "hit": false,
      "t": 43067.81407499978,
      "d": 53.571374999999534,
      "v": 100
    },
    {
      "midi": 68,
      "hit": false,
      "t": 43067.814074999944,
      "d": 214.28549999999814,
      "v": 100
    },
    {
      "midi": 64,
      "hit": false,
      "t": 43067.814074999944,
      "d": 214.28549999999814,
      "v": 100
    },
    {
      "midi": 71,
      "hit": false,
      "t": 43067.814074999944,
      "d": 1499.9984999999942,
      "v": 100
    },
    {
      "midi": 71,
      "hit": false,
      "t": 43067.81407499999,
      "d": 174.99982499999896,
      "v": 127
    },
    {
      "midi": 28,
      "hit": false,
      "t": 43067.81407500004,
      "d": 192.85695000000123,
      "v": 115
    },
    {
      "midi": 12,
      "hit": false,
      "t": 43282.099574999775,
      "d": 53.571374999999534,
      "v": 110
    },
    {
      "midi": 42,
      "hit": false,
      "t": 43282.099574999775,
      "d": 53.571374999999534,
      "v": 100
    },
    {
      "midi": 117,
      "hit": false,
      "t": 43282.099574999775,
      "d": 53.571374999999534,
      "v": 110
    },
    {
      "midi": 69,
      "hit": false,
      "t": 43282.09957499994,
      "d": 214.28549999999814,
      "v": 100
    },
    {
      "midi": 66,
      "hit": false,
      "t": 43282.09957499994,
      "d": 214.28549999999814,
      "v": 100
    },
    {
      "midi": 42,
      "hit": false,
      "t": 43389.242324999774,
      "d": 53.571374999999534,
      "v": 100
    },
    {
      "midi": 42,
      "hit": false,
      "t": 43496.38507499977,
      "d": 53.571374999999534,
      "v": 100
    },
    {
      "midi": 70,
      "hit": false,
      "t": 43496.38507499977,
      "d": 53.571374999999534,
      "v": 100
    },
    {
      "midi": 68,
      "hit": false,
      "t": 43496.38507499994,
      "d": 214.28549999999814,
      "v": 100
    },
    {
      "midi": 64,
      "hit": false,
      "t": 43496.38507499994,
      "d": 214.28549999999814,
      "v": 100
    },
    {
      "midi": 71,
      "hit": false,
      "t": 43496.38507499996,
      "d": 428.57100000000355,
      "v": 85
    },
    {
      "midi": 64,
      "hit": false,
      "t": 43496.38507499996,
      "d": 428.57100000000355,
      "v": 85
    },
    {
      "midi": 56,
      "hit": false,
      "t": 43496.38507499996,
      "d": 428.57100000000355,
      "v": 85
    },
    {
      "midi": 59,
      "hit": false,
      "t": 43496.38507499996,
      "d": 428.57100000000355,
      "v": 85
    },
    {
      "midi": 68,
      "hit": false,
      "t": 43496.38507499996,
      "d": 428.57100000000355,
      "v": 85
    },
    {
      "midi": 28,
      "hit": false,
      "t": 43496.38507500004,
      "d": 385.71390000000247,
      "v": 115
    },
    {
      "midi": 117,
      "hit": false,
      "t": 43603.52782499977,
      "d": 53.571374999999534,
      "v": 100
    },
    {
      "midi": 12,
      "hit": false,
      "t": 43710.67057499977,
      "d": 53.571374999999534,
      "v": 110
    },
    {
      "midi": 42,
      "hit": false,
      "t": 43710.67057499977,
      "d": 53.571374999999534,
      "v": 100
    },
    {
      "midi": 69,
      "hit": false,
      "t": 43710.67057499994,
      "d": 214.28549999999814,
      "v": 100
    },
    {
      "midi": 66,
      "hit": false,
      "t": 43710.67057499994,
      "d": 214.28549999999814,
      "v": 100
    },
    {
      "midi": 71,
      "hit": false,
      "t": 43710.67057499999,
      "d": 174.99982499999896,
      "v": 127
    },
    {
      "midi": 117,
      "hit": false,
      "t": 43817.81332499977,
      "d": 53.571374999999534,
      "v": 66
    },
    {
      "midi": 30,
      "hit": false,
      "t": 43924.95607499977,
      "d": 35.714249999997264,
      "v": 90
    },
    {
      "midi": 42,
      "hit": false,
      "t": 43924.95607499977,
      "d": 53.571374999999534,
      "v": 100
    },
    {
      "midi": 117,
      "hit": false,
      "t": 43924.95607499977,
      "d": 53.571374999999534,
      "v": 71
    },
    {
      "midi": 70,
      "hit": false,
      "t": 43924.95607499977,
      "d": 53.571374999999534,
      "v": 100
    },
    {
      "midi": 68,
      "hit": false,
      "t": 43924.95607499994,
      "d": 642.8565000000017,
      "v": 100
    },
    {
      "midi": 64,
      "hit": false,
      "t": 43924.95607499994,
      "d": 642.8565000000017,
      "v": 100
    },
    {
      "midi": 71,
      "hit": false,
      "t": 43924.956074999965,
      "d": 610.7136749999991,
      "v": 103
    },
    {
      "midi": 64,
      "hit": false,
      "t": 43924.956074999965,
      "d": 610.7136749999991,
      "v": 103
    },
    {
      "midi": 56,
      "hit": false,
      "t": 43924.956074999965,
      "d": 610.7136749999991,
      "v": 103
    },
    {
      "midi": 59,
      "hit": false,
      "t": 43924.956074999965,
      "d": 610.7136749999991,
      "v": 103
    },
    {
      "midi": 68,
      "hit": false,
      "t": 43924.956074999965,
      "d": 610.7136749999991,
      "v": 103
    },
    {
      "midi": 71,
      "hit": false,
      "t": 43924.95607499999,
      "d": 174.99982499999896,
      "v": 127
    },
    {
      "midi": 28,
      "hit": false,
      "t": 43924.956075000046,
      "d": 192.85695000000123,
      "v": 115
    },
    {
      "midi": 30,
      "hit": false,
      "t": 44032.09882499977,
      "d": 35.714249999997264,
      "v": 100
    },
    {
      "midi": 117,
      "hit": false,
      "t": 44032.09882499977,
      "d": 53.571374999999534,
      "v": 77
    },
    {
      "midi": 42,
      "hit": false,
      "t": 44139.24157499977,
      "d": 53.571374999999534,
      "v": 100
    },
    {
      "midi": 12,
      "hit": false,
      "t": 44139.24157499977,
      "d": 53.571374999999534,
      "v": 110
    },
    {
      "midi": 73,
      "hit": false,
      "t": 44139.241574999985,
      "d": 174.99982499999896,
      "v": 127
    },
    {
      "midi": 80,
      "hit": false,
      "t": 44139.24157499999,
      "d": 53.571374999999534,
      "v": 110
    },
    {
      "midi": 28,
      "hit": false,
      "t": 44139.241575000044,
      "d": 192.85695000000123,
      "v": 115
    },
    {
      "midi": 117,
      "hit": false,
      "t": 44246.384324999766,
      "d": 53.571374999999534,
      "v": 87
    },
    {
      "midi": 42,
      "hit": false,
      "t": 44246.384324999766,
      "d": 53.571374999999534,
      "v": 100
    },
    {
      "midi": 117,
      "hit": false,
      "t": 44353.527074999765,
      "d": 53.571374999999534,
      "v": 92
    },
    {
      "midi": 42,
      "hit": false,
      "t": 44353.527074999765,
      "d": 53.571374999999534,
      "v": 100
    },
    {
      "midi": 70,
      "hit": false,
      "t": 44353.527074999765,
      "d": 53.571374999999534,
      "v": 100
    },
    {
      "midi": 71,
      "hit": false,
      "t": 44353.52707499998,
      "d": 174.99982499999896,
      "v": 127
    },
    {
      "midi": 40,
      "hit": false,
      "t": 44353.52707500004,
      "d": 192.85695000000123,
      "v": 115
    },
    {
      "midi": 117,
      "hit": false,
      "t": 44460.669824999764,
      "d": 53.571374999999534,
      "v": 98
    },
    {
      "midi": 12,
      "hit": false,
      "t": 44567.81257499976,
      "d": 53.571374999999534,
      "v": 110
    },
    {
      "midi": 42,
      "hit": false,
      "t": 44567.81257499976,
      "d": 53.571374999999534,
      "v": 100
    },
    {
      "midi": 57,
      "hit": false,
      "t": 44567.81257499976,
      "d": 53.571374999999534,
      "v": 110
    },
    {
      "midi": 78,
      "hit": false,
      "t": 44567.812574999916,
      "d": 53.571374999999534,
      "v": 90
    },
    {
      "midi": 83,
      "hit": false,
      "t": 44567.812574999916,
      "d": 53.571374999999534,
      "v": 90
    },
    {
      "midi": 38,
      "hit": false,
      "t": 44567.81257499994,
      "d": 857.1419999999998,
      "v": 100
    },
    {
      "midi": 50,
      "hit": false,
      "t": 44567.81257499997,
      "d": 857.1419999999998,
      "v": 100
    },
    {
      "midi": 78,
      "hit": false,
      "t": 44567.81257499998,
      "d": 385.71390000000247,
      "v": 100
    },
    {
      "midi": 74,
      "hit": false,
      "t": 44567.81257499998,
      "d": 385.71390000000247,
      "v": 127
    },
    {
      "midi": 74,
      "hit": false,
      "t": 44567.812575,
      "d": 385.71390000000247,
      "v": 100
    },
    {
      "midi": 57,
      "hit": false,
      "t": 44567.812575,
      "d": 857.1419999999998,
      "v": 100
    },
    {
      "midi": 62,
      "hit": false,
      "t": 44567.812575,
      "d": 857.1419999999998,
      "v": 100
    },
    {
      "midi": 54,
      "hit": false,
      "t": 44567.812575,
      "d": 857.1419999999998,
      "v": 100
    },
    {
      "midi": 38,
      "hit": false,
      "t": 44567.81257500004,
      "d": 385.71390000000247,
      "v": 115
    },
    {
      "midi": 78,
      "hit": false,
      "t": 44674.955324999915,
      "d": 53.57137500000681,
      "v": 90
    },
    {
      "midi": 83,
      "hit": false,
      "t": 44674.955324999915,
      "d": 53.57137500000681,
      "v": 90
    },
    {
      "midi": 42,
      "hit": false,
      "t": 44782.09807499976,
      "d": 53.571374999999534,
      "v": 100
    },
    {
      "midi": 70,
      "hit": false,
      "t": 44782.09807499976,
      "d": 53.571374999999534,
      "v": 100
    },
    {
      "midi": 78,
      "hit": false,
      "t": 44782.098074999914,
      "d": 53.571374999999534,
      "v": 90
    },
    {
      "midi": 83,
      "hit": false,
      "t": 44782.098074999914,
      "d": 53.571374999999534,
      "v": 90
    },
    {
      "midi": 78,
      "hit": false,
      "t": 44889.24082499992,
      "d": 53.571374999999534,
      "v": 90
    },
    {
      "midi": 83,
      "hit": false,
      "t": 44889.24082499992,
      "d": 53.571374999999534,
      "v": 90
    },
    {
      "midi": 12,
      "hit": false,
      "t": 44996.38357499976,
      "d": 53.571374999999534,
      "v": 110
    },
    {
      "midi": 42,
      "hit": false,
      "t": 44996.38357499976,
      "d": 53.571374999999534,
      "v": 100
    },
    {
      "midi": 117,
      "hit": false,
      "t": 44996.38357499976,
      "d": 53.571374999999534,
      "v": 110
    },
    {
      "midi": 83,
      "hit": false,
      "t": 44996.38357499991,
      "d": 53.571374999999534,
      "v": 90
    },
    {
      "midi": 78,
      "hit": false,
      "t": 44996.38357499991,
      "d": 53.571374999999534,
      "v": 90
    },
    {
      "midi": 73,
      "hit": false,
      "t": 44996.383574999985,
      "d": 385.71390000000247,
      "v": 127
    },
    {
      "midi": 76,
      "hit": false,
      "t": 44996.383574999985,
      "d": 385.71390000000247,
      "v": 100
    },
    {
      "midi": 73,
      "hit": false,
      "t": 44996.38357500001,
      "d": 385.71390000000247,
      "v": 100
    },
    {
      "midi": 38,
      "hit": false,
      "t": 44996.38357500004,
      "d": 289.28542500000185,
      "v": 115
    },
    {
      "midi": 42,
      "hit": false,
      "t": 45103.52632499976,
      "d": 53.571374999999534,
      "v": 100
    },
    {
      "midi": 78,
      "hit": false,
      "t": 45103.52632499992,
      "d": 53.571374999999534,
      "v": 90
    },
    {
      "midi": 83,
      "hit": false,
      "t": 45103.52632499992,
      "d": 53.571374999999534,
      "v": 90
    },
    {
      "midi": 42,
      "hit": false,
      "t": 45210.66907499976,
      "d": 53.571374999999534,
      "v": 100
    },
    {
      "midi": 70,
      "hit": false,
      "t": 45210.66907499976,
      "d": 53.571374999999534,
      "v": 100
    },
    {
      "midi": 78,
      "hit": false,
      "t": 45210.66907499991,
      "d": 53.571374999999534,
      "v": 90
    },
    {
      "midi": 83,
      "hit": false,
      "t": 45210.66907499991,
      "d": 53.571374999999534,
      "v": 90
    },
    {
      "midi": 78,
      "hit": false,
      "t": 45317.81182499992,
      "d": 53.571374999999534,
      "v": 90
    },
    {
      "midi": 83,
      "hit": false,
      "t": 45317.81182499992,
      "d": 53.571374999999534,
      "v": 90
    },
    {
      "midi": 33,
      "hit": false,
      "t": 45317.81182500005,
      "d": 96.42847500000062,
      "v": 115
    },
    {
      "midi": 12,
      "hit": false,
      "t": 45424.954574999756,
      "d": 53.571374999999534,
      "v": 110
    },
    {
      "midi": 42,
      "hit": false,
      "t": 45424.954574999756,
      "d": 53.571374999999534,
      "v": 100
    },
    {
      "midi": 78,
      "hit": false,
      "t": 45424.95457499991,
      "d": 53.571374999999534,
      "v": 90
    },
    {
      "midi": 83,
      "hit": false,
      "t": 45424.95457499991,
      "d": 53.571374999999534,
      "v": 90
    },
    {
      "midi": 40,
      "hit": false,
      "t": 45424.95457499994,
      "d": 642.8565000000017,
      "v": 100
    },
    {
      "midi": 52,
      "hit": false,
      "t": 45424.95457499997,
      "d": 642.8565000000017,
      "v": 100
    },
    {
      "midi": 71,
      "hit": false,
      "t": 45424.95457499999,
      "d": 107.14274999999907,
      "v": 127
    },
    {
      "midi": 75,
      "hit": false,
      "t": 45424.95457499999,
      "d": 107.14274999999907,
      "v": 100
    },
    {
      "midi": 64,
      "hit": false,
      "t": 45424.954575,
      "d": 642.8565000000017,
      "v": 100
    },
    {
      "midi": 59,
      "hit": false,
      "t": 45424.954575,
      "d": 642.8565000000017,
      "v": 100
    },
    {
      "midi": 56,
      "hit": false,
      "t": 45424.954575,
      "d": 642.8565000000017,
      "v": 100
    },
    {
      "midi": 71,
      "hit": false,
      "t": 45424.95457500001,
      "d": 96.42847500000062,
      "v": 100
    },
    {
      "midi": 40,
      "hit": false,
      "t": 45424.95457500005,
      "d": 192.85695000000123,
      "v": 115
    },
    {
      "midi": 78,
      "hit": false,
      "t": 45532.09732499992,
      "d": 53.571374999999534,
      "v": 90
    },
    {
      "midi": 83,
      "hit": false,
      "t": 45532.09732499992,
      "d": 53.571374999999534,
      "v": 90
    },
    {
      "midi": 42,
      "hit": false,
      "t": 45639.240074999754,
      "d": 53.571374999999534,
      "v": 100
    },
    {
      "midi": 70,
      "hit": false,
      "t": 45639.240074999754,
      "d": 53.571374999999534,
      "v": 100
    },
    {
      "midi": 78,
      "hit": false,
      "t": 45639.24007499991,
      "d": 53.571374999999534,
      "v": 90
    },
    {
      "midi": 83,
      "hit": false,
      "t": 45639.24007499991,
      "d": 53.571374999999534,
      "v": 90
    },
    {
      "midi": 73,
      "hit": false,
      "t": 45639.24007499999,
      "d": 385.71390000000247,
      "v": 127
    },
    {
      "midi": 76,
      "hit": false,
      "t": 45639.24007499999,
      "d": 385.71390000000247,
      "v": 100
    },
    {
      "midi": 73,
      "hit": false,
      "t": 45639.24007500001,
      "d": 385.71390000000247,
      "v": 100
    },
    {
      "midi": 40,
      "hit": false,
      "t": 45639.240075000045,
      "d": 192.85695000000123,
      "v": 115
    },
    {
      "midi": 78,
      "hit": false,
      "t": 45746.38282499992,
      "d": 53.571374999999534,
      "v": 90
    },
    {
      "midi": 83,
      "hit": false,
      "t": 45746.38282499992,
      "d": 53.571374999999534,
      "v": 90
    },
    {
      "midi": 12,
      "hit": false,
      "t": 45853.52557499975,
      "d": 53.571374999999534,
      "v": 110
    },
    {
      "midi": 42,
      "hit": false,
      "t": 45853.52557499975,
      "d": 53.571374999999534,
      "v": 100
    },
    {
      "midi": 117,
      "hit": false,
      "t": 45853.52557499975,
      "d": 53.571374999999534,
      "v": 110
    },
    {
      "midi": 78,
      "hit": false,
      "t": 45853.525574999905,
      "d": 53.571374999999534,
      "v": 90
    },
    {
      "midi": 83,
      "hit": false,
      "t": 45853.525574999905,
      "d": 53.571374999999534,
      "v": 90
    },
    {
      "midi": 30,
      "hit": false,
      "t": 45853.52557500004,
      "d": 192.85695000000123,
      "v": 115
    },
    {
      "midi": 42,
      "hit": false,
      "t": 45960.66832499975,
      "d": 53.571374999999534,
      "v": 100
    },
    {
      "midi": 78,
      "hit": false,
      "t": 45960.66832499992,
      "d": 53.571374999999534,
      "v": 90
    },
    {
      "midi": 83,
      "hit": false,
      "t": 45960.66832499992,
      "d": 53.571374999999534,
      "v": 90
    },
    {
      "midi": 42,
      "hit": false,
      "t": 46067.81107499975,
      "d": 53.571374999999534,
      "v": 100
    },
    {
      "midi": 70,
      "hit": false,
      "t": 46067.81107499975,
      "d": 53.571374999999534,
      "v": 100
    },
    {
      "midi": 78,
      "hit": false,
      "t": 46067.8110749999,
      "d": 53.571374999999534,
      "v": 90
    },
    {
      "midi": 83,
      "hit": false,
      "t": 46067.8110749999,
      "d": 53.571374999999534,
      "v": 90
    },
    {
      "midi": 35,
      "hit": false,
      "t": 46067.81107499994,
      "d": 1928.5694999999978,
      "v": 100
    },
    {
      "midi": 47,
      "hit": false,
      "t": 46067.81107499997,
      "d": 1928.5694999999978,
      "v": 100
    },
    {
      "midi": 71,
      "hit": false,
      "t": 46067.81107499999,
      "d": 174.99982499999896,
      "v": 127
    },
    {
      "midi": 75,
      "hit": false,
      "t": 46067.81107499999,
      "d": 174.99982499999896,
      "v": 100
    },
    {
      "midi": 63,
      "hit": false,
      "t": 46067.811075000005,
      "d": 1928.5694999999978,
      "v": 100
    },
    {
      "midi": 59,
      "hit": false,
      "t": 46067.811075000005,
      "d": 1928.5694999999978,
      "v": 100
    },
    {
      "midi": 54,
      "hit": false,
      "t": 46067.811075000005,
      "d": 1928.5694999999978,
      "v": 100
    },
    {
      "midi": 71,
      "hit": false,
      "t": 46067.81107500001,
      "d": 174.99982499999896,
      "v": 100
    },
    {
      "midi": 35,
      "hit": false,
      "t": 46067.81107500004,
      "d": 385.71390000000247,
      "v": 115
    },
    {
      "midi": 78,
      "hit": false,
      "t": 46174.95382499992,
      "d": 53.571374999999534,
      "v": 90
    },
    {
      "midi": 83,
      "hit": false,
      "t": 46174.95382499992,
      "d": 53.571374999999534,
      "v": 90
    },
    {
      "midi": 12,
      "hit": false,
      "t": 46282.09657499975,
      "d": 53.571374999999534,
      "v": 110
    },
    {
      "midi": 42,
      "hit": false,
      "t": 46282.09657499975,
      "d": 53.571374999999534,
      "v": 100
    },
    {
      "midi": 78,
      "hit": false,
      "t": 46282.0965749999,
      "d": 53.571374999999534,
      "v": 90
    },
    {
      "midi": 83,
      "hit": false,
      "t": 46282.0965749999,
      "d": 53.571374999999534,
      "v": 90
    },
    {
      "midi": 78,
      "hit": false,
      "t": 46389.239324999915,
      "d": 53.571374999999534,
      "v": 90
    },
    {
      "midi": 83,
      "hit": false,
      "t": 46389.239324999915,
      "d": 53.571374999999534,
      "v": 90
    },
    {
      "midi": 30,
      "hit": false,
      "t": 46496.38207499975,
      "d": 35.714249999997264,
      "v": 90
    },
    {
      "midi": 70,
      "hit": false,
      "t": 46496.38207499975,
      "d": 53.571374999999534,
      "v": 100
    },
    {
      "midi": 42,
      "hit": false,
      "t": 46496.38207499975,
      "d": 53.571374999999534,
      "v": 100
    },
    {
      "midi": 78,
      "hit": false,
      "t": 46496.3820749999,
      "d": 53.571374999999534,
      "v": 90
    },
    {
      "midi": 83,
      "hit": false,
      "t": 46496.3820749999,
      "d": 53.571374999999534,
      "v": 90
    },
    {
      "midi": 30,
      "hit": false,
      "t": 46496.382075000045,
      "d": 192.85695000000123,
      "v": 115
    },
    {
      "midi": 30,
      "hit": false,
      "t": 46603.524824999746,
      "d": 35.714249999997264,
      "v": 100
    },
    {
      "midi": 78,
      "hit": false,
      "t": 46603.52482499991,
      "d": 53.571374999999534,
      "v": 90
    },
    {
      "midi": 83,
      "hit": false,
      "t": 46603.52482499991,
      "d": 53.571374999999534,
      "v": 90
    },
    {
      "midi": 12,
      "hit": false,
      "t": 46710.667574999745,
      "d": 53.571374999999534,
      "v": 110
    },
    {
      "midi": 42,
      "hit": false,
      "t": 46710.667574999745,
      "d": 53.571374999999534,
      "v": 100
    },
    {
      "midi": 117,
      "hit": false,
      "t": 46710.667574999745,
      "d": 53.571374999999534,
      "v": 110
    },
    {
      "midi": 78,
      "hit": false,
      "t": 46710.6675749999,
      "d": 53.571374999999534,
      "v": 90
    },
    {
      "midi": 83,
      "hit": false,
      "t": 46710.6675749999,
      "d": 53.571374999999534,
      "v": 90
    },
    {
      "midi": 80,
      "hit": false,
      "t": 46710.66757499999,
      "d": 53.571374999999534,
      "v": 110
    },
    {
      "midi": 71,
      "hit": false,
      "t": 46710.667575,
      "d": 174.99982499999896,
      "v": 127
    },
    {
      "midi": 59,
      "hit": false,
      "t": 46710.667575,
      "d": 174.99982499999896,
      "v": 127
    },
    {
      "midi": 32,
      "hit": false,
      "t": 46710.66757500004,
      "d": 192.85695000000123,
      "v": 115
    },
    {
      "midi": 42,
      "hit": false,
      "t": 46817.810324999744,
      "d": 53.571374999999534,
      "v": 100
    },
    {
      "midi": 78,
      "hit": false,
      "t": 46817.81032499991,
      "d": 53.571374999999534,
      "v": 90
    },
    {
      "midi": 83,
      "hit": false,
      "t": 46817.81032499991,
      "d": 53.571374999999534,
      "v": 90
    },
    {
      "midi": 42,
      "hit": false,
      "t": 46924.95307499974,
      "d": 53.571374999999534,
      "v": 100
    },
    {
      "midi": 70,
      "hit": false,
      "t": 46924.95307499974,
      "d": 53.571374999999534,
      "v": 100
    },
    {
      "midi": 78,
      "hit": false,
      "t": 46924.953074999896,
      "d": 53.571374999999534,
      "v": 90
    },
    {
      "midi": 83,
      "hit": false,
      "t": 46924.953074999896,
      "d": 53.571374999999534,
      "v": 90
    },
    {
      "midi": 80,
      "hit": false,
      "t": 46924.95307499999,
      "d": 53.571374999999534,
      "v": 110
    },
    {
      "midi": 71,
      "hit": false,
      "t": 46924.953075,
      "d": 642.8565000000017,
      "v": 127
    },
    {
      "midi": 59,
      "hit": false,
      "t": 46924.953075,
      "d": 642.8565000000017,
      "v": 127
    },
    {
      "midi": 35,
      "hit": false,
      "t": 46924.95307500004,
      "d": 385.71390000000247,
      "v": 115
    },
    {
      "midi": 78,
      "hit": false,
      "t": 47032.09582499991,
      "d": 53.571374999999534,
      "v": 90
    },
    {
      "midi": 83,
      "hit": false,
      "t": 47032.09582499991,
      "d": 53.571374999999534,
      "v": 90
    },
    {
      "midi": 12,
      "hit": false,
      "t": 47139.23857499974,
      "d": 53.571374999999534,
      "v": 110
    },
    {
      "midi": 42,
      "hit": false,
      "t": 47139.23857499974,
      "d": 53.571374999999534,
      "v": 100
    },
    {
      "midi": 78,
      "hit": false,
      "t": 47139.238574999894,
      "d": 53.571374999999534,
      "v": 90
    },
    {
      "midi": 83,
      "hit": false,
      "t": 47139.238574999894,
      "d": 53.571374999999534,
      "v": 90
    },
    {
      "midi": 71,
      "hit": false,
      "t": 47139.23857499999,
      "d": 174.99982499999896,
      "v": 127
    },
    {
      "midi": 117,
      "hit": false,
      "t": 47246.38132499974,
      "d": 53.571374999999534,
      "v": 100
    },
    {
      "midi": 78,
      "hit": false,
      "t": 47246.38132499991,
      "d": 53.571374999999534,
      "v": 90
    },
    {
      "midi": 83,
      "hit": false,
      "t": 47246.38132499991,
      "d": 53.571374999999534,
      "v": 90
    },
    {
      "midi": 42,
      "hit": false,
      "t": 47353.52407499974,
      "d": 53.571374999999534,
      "v": 100
    },
    {
      "midi": 70,
      "hit": false,
      "t": 47353.52407499974,
      "d": 53.571374999999534,
      "v": 100
    },
    {
      "midi": 78,
      "hit": false,
      "t": 47353.52407499989,
      "d": 53.571374999999534,
      "v": 90
    },
    {
      "midi": 83,
      "hit": false,
      "t": 47353.52407499989,
      "d": 53.571374999999534,
      "v": 90
    },
    {
      "midi": 71,
      "hit": false,
      "t": 47353.52407499999,
      "d": 174.99982499999896,
      "v": 127
    },
    {
      "midi": 30,
      "hit": false,
      "t": 47353.524075000045,
      "d": 192.85695000000123,
      "v": 115
    },
    {
      "midi": 78,
      "hit": false,
      "t": 47460.666824999906,
      "d": 53.571374999999534,
      "v": 90
    },
    {
      "midi": 83,
      "hit": false,
      "t": 47460.666824999906,
      "d": 53.571374999999534,
      "v": 90
    },
    {
      "midi": 12,
      "hit": false,
      "t": 47567.80957499974,
      "d": 53.571374999999534,
      "v": 110
    },
    {
      "midi": 42,
      "hit": false,
      "t": 47567.80957499974,
      "d": 53.571374999999534,
      "v": 100
    },
    {
      "midi": 117,
      "hit": false,
      "t": 47567.80957499974,
      "d": 53.571374999999534,
      "v": 110
    },
    {
      "midi": 78,
      "hit": false,
      "t": 47567.80957499989,
      "d": 53.571374999999534,
      "v": 90
    },
    {
      "midi": 83,
      "hit": false,
      "t": 47567.80957499989,
      "d": 53.571374999999534,
      "v": 90
    },
    {
      "midi": 73,
      "hit": false,
      "t": 47567.809574999985,
      "d": 174.99982499999896,
      "v": 127
    },
    {
      "midi": 32,
      "hit": false,
      "t": 47567.80957500004,
      "d": 192.85695000000123,
      "v": 115
    },
    {
      "midi": 42,
      "hit": false,
      "t": 47674.95232499974,
      "d": 53.571374999999534,
      "v": 100
    },
    {
      "midi": 83,
      "hit": false,
      "t": 47674.952324999904,
      "d": 53.571374999999534,
      "v": 90
    },
    {
      "midi": 78,
      "hit": false,
      "t": 47674.952324999904,
      "d": 53.571374999999534,
      "v": 90
    },
    {
      "midi": 42,
      "hit": false,
      "t": 47782.095074999736,
      "d": 53.571374999999534,
      "v": 100
    },
    {
      "midi": 70,
      "hit": false,
      "t": 47782.095074999736,
      "d": 53.571374999999534,
      "v": 100
    },
    {
      "midi": 78,
      "hit": false,
      "t": 47782.09507499989,
      "d": 53.571374999999534,
      "v": 90
    },
    {
      "midi": 83,
      "hit": false,
      "t": 47782.09507499989,
      "d": 53.571374999999534,
      "v": 90
    },
    {
      "midi": 71,
      "hit": false,
      "t": 47782.09507499998,
      "d": 174.99982499999896,
      "v": 127
    },
    {
      "midi": 35,
      "hit": false,
      "t": 47782.09507500004,
      "d": 192.85695000000123,
      "v": 115
    },
    {
      "midi": 117,
      "hit": false,
      "t": 47889.237824999735,
      "d": 53.571374999999534,
      "v": 100
    },
    {
      "midi": 78,
      "hit": false,
      "t": 47889.2378249999,
      "d": 53.571374999999534,
      "v": 90
    },
    {
      "midi": 83,
      "hit": false,
      "t": 47889.2378249999,
      "d": 53.571374999999534,
      "v": 90
    },
    {
      "midi": 12,
      "hit": false,
      "t": 47996.380574999734,
      "d": 53.571374999999534,
      "v": 110
    },
    {
      "midi": 42,
      "hit": false,
      "t": 47996.380574999734,
      "d": 53.571374999999534,
      "v": 100
    },
    {
      "midi": 78,
      "hit": false,
      "t": 47996.38057499989,
      "d": 53.571374999999534,
      "v": 90
    },
    {
      "midi": 83,
      "hit": false,
      "t": 47996.38057499989,
      "d": 53.571374999999534,
      "v": 90
    },
    {
      "midi": 38,
      "hit": false,
      "t": 47996.38057499994,
      "d": 857.1419999999998,
      "v": 100
    },
    {
      "midi": 50,
      "hit": false,
      "t": 47996.38057499997,
      "d": 857.1419999999998,
      "v": 100
    },
    {
      "midi": 74,
      "hit": false,
      "t": 47996.38057499998,
      "d": 385.71390000000247,
      "v": 127
    },
    {
      "midi": 78,
      "hit": false,
      "t": 47996.38057499998,
      "d": 385.71390000000247,
      "v": 100
    },
    {
      "midi": 57,
      "hit": false,
      "t": 47996.380575,
      "d": 857.1419999999998,
      "v": 100
    },
    {
      "midi": 62,
      "hit": false,
      "t": 47996.380575,
      "d": 857.1419999999998,
      "v": 100
    },
    {
      "midi": 54,
      "hit": false,
      "t": 47996.380575,
      "d": 857.1419999999998,
      "v": 100
    },
    {
      "midi": 74,
      "hit": false,
      "t": 47996.38057500001,
      "d": 385.71390000000247,
      "v": 100
    },
    {
      "midi": 38,
      "hit": false,
      "t": 47996.38057500004,
      "d": 385.71390000000247,
      "v": 115
    },
    {
      "midi": 78,
      "hit": false,
      "t": 48103.5233249999,
      "d": 53.57137500000681,
      "v": 90
    },
    {
      "midi": 83,
      "hit": false,
      "t": 48103.5233249999,
      "d": 53.57137500000681,
      "v": 90
    },
    {
      "midi": 42,
      "hit": false,
      "t": 48210.66607499973,
      "d": 53.571374999999534,
      "v": 100
    },
    {
      "midi": 70,
      "hit": false,
      "t": 48210.66607499973,
      "d": 53.571374999999534,
      "v": 100
    },
    {
      "midi": 78,
      "hit": false,
      "t": 48210.666074999885,
      "d": 53.571374999999534,
      "v": 90
    },
    {
      "midi": 83,
      "hit": false,
      "t": 48210.666074999885,
      "d": 53.571374999999534,
      "v": 90
    },
    {
      "midi": 78,
      "hit": false,
      "t": 48317.808824999905,
      "d": 53.571374999999534,
      "v": 90
    },
    {
      "midi": 83,
      "hit": false,
      "t": 48317.808824999905,
      "d": 53.571374999999534,
      "v": 90
    },
    {
      "midi": 12,
      "hit": false,
      "t": 48424.95157499973,
      "d": 53.571374999999534,
      "v": 110
    },
    {
      "midi": 42,
      "hit": false,
      "t": 48424.95157499973,
      "d": 53.571374999999534,
      "v": 100
    },
    {
      "midi": 117,
      "hit": false,
      "t": 48424.95157499973,
      "d": 53.571374999999534,
      "v": 110
    },
    {
      "midi": 83,
      "hit": false,
      "t": 48424.95157499988,
      "d": 53.571374999999534,
      "v": 90
    },
    {
      "midi": 78,
      "hit": false,
      "t": 48424.95157499988,
      "d": 53.571374999999534,
      "v": 90
    },
    {
      "midi": 73,
      "hit": false,
      "t": 48424.951574999985,
      "d": 385.71390000000247,
      "v": 127
    },
    {
      "midi": 76,
      "hit": false,
      "t": 48424.951574999985,
      "d": 385.71390000000247,
      "v": 100
    },
    {
      "midi": 73,
      "hit": false,
      "t": 48424.951575000014,
      "d": 385.71390000000247,
      "v": 100
    },
    {
      "midi": 38,
      "hit": false,
      "t": 48424.95157500004,
      "d": 289.28542500000185,
      "v": 115
    },
    {
      "midi": 42,
      "hit": false,
      "t": 48532.09432499973,
      "d": 53.571374999999534,
      "v": 100
    },
    {
      "midi": 78,
      "hit": false,
      "t": 48532.0943249999,
      "d": 53.571374999999534,
      "v": 90
    },
    {
      "midi": 83,
      "hit": false,
      "t": 48532.0943249999,
      "d": 53.571374999999534,
      "v": 90
    },
    {
      "midi": 42,
      "hit": false,
      "t": 48639.23707499973,
      "d": 53.571374999999534,
      "v": 100
    },
    {
      "midi": 70,
      "hit": false,
      "t": 48639.23707499973,
      "d": 53.571374999999534,
      "v": 100
    },
    {
      "midi": 78,
      "hit": false,
      "t": 48639.23707499988,
      "d": 53.571374999999534,
      "v": 90
    },
    {
      "midi": 83,
      "hit": false,
      "t": 48639.23707499988,
      "d": 53.571374999999534,
      "v": 90
    },
    {
      "midi": 78,
      "hit": false,
      "t": 48746.3798249999,
      "d": 53.571374999999534,
      "v": 90
    },
    {
      "midi": 83,
      "hit": false,
      "t": 48746.3798249999,
      "d": 53.571374999999534,
      "v": 90
    },
    {
      "midi": 33,
      "hit": false,
      "t": 48746.37982500005,
      "d": 96.42847500000062,
      "v": 115
    },
    {
      "midi": 12,
      "hit": false,
      "t": 48853.522574999726,
      "d": 53.571374999999534,
      "v": 110
    },
    {
      "midi": 42,
      "hit": false,
      "t": 48853.522574999726,
      "d": 53.571374999999534,
      "v": 100
    },
    {
      "midi": 78,
      "hit": false,
      "t": 48853.52257499988,
      "d": 53.571374999999534,
      "v": 90
    },
    {
      "midi": 83,
      "hit": false,
      "t": 48853.52257499988,
      "d": 53.571374999999534,
      "v": 90
    },
    {
      "midi": 40,
      "hit": false,
      "t": 48853.52257499994,
      "d": 642.8565000000017,
      "v": 100
    },
    {
      "midi": 52,
      "hit": false,
      "t": 48853.522574999966,
      "d": 642.8565000000017,
      "v": 100
    },
    {
      "midi": 71,
      "hit": false,
      "t": 48853.52257499999,
      "d": 107.14274999999907,
      "v": 127
    },
    {
      "midi": 75,
      "hit": false,
      "t": 48853.52257499999,
      "d": 107.14274999999907,
      "v": 100
    },
    {
      "midi": 64,
      "hit": false,
      "t": 48853.522575,
      "d": 642.8565000000017,
      "v": 100
    },
    {
      "midi": 59,
      "hit": false,
      "t": 48853.522575,
      "d": 642.8565000000017,
      "v": 100
    },
    {
      "midi": 56,
      "hit": false,
      "t": 48853.522575,
      "d": 642.8565000000017,
      "v": 100
    },
    {
      "midi": 71,
      "hit": false,
      "t": 48853.52257500002,
      "d": 96.42847500000062,
      "v": 100
    },
    {
      "midi": 40,
      "hit": false,
      "t": 48853.522575000046,
      "d": 192.85695000000123,
      "v": 115
    },
    {
      "midi": 78,
      "hit": false,
      "t": 48960.66532499991,
      "d": 53.571374999999534,
      "v": 90
    },
    {
      "midi": 83,
      "hit": false,
      "t": 48960.66532499991,
      "d": 53.571374999999534,
      "v": 90
    },
    {
      "midi": 42,
      "hit": false,
      "t": 49067.808074999724,
      "d": 53.571374999999534,
      "v": 100
    },
    {
      "midi": 70,
      "hit": false,
      "t": 49067.808074999724,
      "d": 53.571374999999534,
      "v": 100
    },
    {
      "midi": 78,
      "hit": false,
      "t": 49067.80807499988,
      "d": 53.571374999999534,
      "v": 90
    },
    {
      "midi": 83,
      "hit": false,
      "t": 49067.80807499988,
      "d": 53.571374999999534,
      "v": 90
    },
    {
      "midi": 73,
      "hit": false,
      "t": 49067.808074999986,
      "d": 385.71390000000247,
      "v": 127
    },
    {
      "midi": 76,
      "hit": false,
      "t": 49067.808074999986,
      "d": 385.71390000000247,
      "v": 100
    },
    {
      "midi": 73,
      "hit": false,
      "t": 49067.808075000015,
      "d": 385.71390000000247,
      "v": 100
    },
    {
      "midi": 40,
      "hit": false,
      "t": 49067.808075000044,
      "d": 192.85695000000123,
      "v": 115
    },
    {
      "midi": 78,
      "hit": false,
      "t": 49174.950824999905,
      "d": 53.571374999999534,
      "v": 90
    },
    {
      "midi": 83,
      "hit": false,
      "t": 49174.950824999905,
      "d": 53.571374999999534,
      "v": 90
    },
    {
      "midi": 12,
      "hit": false,
      "t": 49282.09357499972,
      "d": 53.571374999999534,
      "v": 110
    },
    {
      "midi": 42,
      "hit": false,
      "t": 49282.09357499972,
      "d": 53.571374999999534,
      "v": 100
    },
    {
      "midi": 117,
      "hit": false,
      "t": 49282.09357499972,
      "d": 53.571374999999534,
      "v": 110
    },
    {
      "midi": 78,
      "hit": false,
      "t": 49282.093574999875,
      "d": 53.571374999999534,
      "v": 90
    },
    {
      "midi": 83,
      "hit": false,
      "t": 49282.093574999875,
      "d": 53.571374999999534,
      "v": 90
    },
    {
      "midi": 30,
      "hit": false,
      "t": 49282.09357500004,
      "d": 192.85695000000123,
      "v": 115
    },
    {
      "midi": 42,
      "hit": false,
      "t": 49389.23632499972,
      "d": 53.571374999999534,
      "v": 100
    },
    {
      "midi": 78,
      "hit": false,
      "t": 49389.2363249999,
      "d": 53.571374999999534,
      "v": 90
    },
    {
      "midi": 83,
      "hit": false,
      "t": 49389.2363249999,
      "d": 53.571374999999534,
      "v": 90
    },
    {
      "midi": 42,
      "hit": false,
      "t": 49496.37907499972,
      "d": 53.571374999999534,
      "v": 100
    },
    {
      "midi": 70,
      "hit": false,
      "t": 49496.37907499972,
      "d": 53.571374999999534,
      "v": 100
    },
    {
      "midi": 78,
      "hit": false,
      "t": 49496.37907499987,
      "d": 53.571374999999534,
      "v": 90
    },
    {
      "midi": 83,
      "hit": false,
      "t": 49496.37907499987,
      "d": 53.571374999999534,
      "v": 90
    },
    {
      "midi": 35,
      "hit": false,
      "t": 49496.37907499994,
      "d": 1928.5694999999978,
      "v": 100
    },
    {
      "midi": 47,
      "hit": false,
      "t": 49496.37907499997,
      "d": 1928.5694999999978,
      "v": 100
    },
    {
      "midi": 71,
      "hit": false,
      "t": 49496.37907499999,
      "d": 174.99982499999896,
      "v": 127
    },
    {
      "midi": 75,
      "hit": false,
      "t": 49496.37907499999,
      "d": 174.99982499999896,
      "v": 100
    },
    {
      "midi": 63,
      "hit": false,
      "t": 49496.379075000004,
      "d": 1928.5694999999978,
      "v": 100
    },
    {
      "midi": 59,
      "hit": false,
      "t": 49496.379075000004,
      "d": 1928.5694999999978,
      "v": 100
    },
    {
      "midi": 54,
      "hit": false,
      "t": 49496.379075000004,
      "d": 1928.5694999999978,
      "v": 100
    },
    {
      "midi": 71,
      "hit": false,
      "t": 49496.37907500002,
      "d": 174.99982499999896,
      "v": 100
    },
    {
      "midi": 35,
      "hit": false,
      "t": 49496.37907500004,
      "d": 385.71390000000247,
      "v": 115
    },
    {
      "midi": 78,
      "hit": false,
      "t": 49603.5218249999,
      "d": 53.571374999999534,
      "v": 90
    },
    {
      "midi": 83,
      "hit": false,
      "t": 49603.5218249999,
      "d": 53.571374999999534,
      "v": 90
    },
    {
      "midi": 12,
      "hit": false,
      "t": 49710.66457499972,
      "d": 53.571374999999534,
      "v": 110
    },
    {
      "midi": 42,
      "hit": false,
      "t": 49710.66457499972,
      "d": 53.571374999999534,
      "v": 100
    },
    {
      "midi": 78,
      "hit": false,
      "t": 49710.66457499987,
      "d": 53.571374999999534,
      "v": 90
    },
    {
      "midi": 83,
      "hit": false,
      "t": 49710.66457499987,
      "d": 53.571374999999534,
      "v": 90
    },
    {
      "midi": 78,
      "hit": false,
      "t": 49817.8073249999,
      "d": 53.571374999999534,
      "v": 90
    },
    {
      "midi": 83,
      "hit": false,
      "t": 49817.8073249999,
      "d": 53.571374999999534,
      "v": 90
    },
    {
      "midi": 30,
      "hit": false,
      "t": 49924.95007499972,
      "d": 35.714249999997264,
      "v": 90
    },
    {
      "midi": 70,
      "hit": false,
      "t": 49924.95007499972,
      "d": 53.571374999999534,
      "v": 100
    },
    {
      "midi": 42,
      "hit": false,
      "t": 49924.95007499972,
      "d": 53.571374999999534,
      "v": 100
    },
    {
      "midi": 78,
      "hit": false,
      "t": 49924.95007499987,
      "d": 53.571374999999534,
      "v": 90
    },
    {
      "midi": 83,
      "hit": false,
      "t": 49924.95007499987,
      "d": 53.571374999999534,
      "v": 90
    },
    {
      "midi": 30,
      "hit": false,
      "t": 49924.950075000044,
      "d": 192.85695000000123,
      "v": 115
    },
    {
      "midi": 30,
      "hit": false,
      "t": 50032.092824999716,
      "d": 35.714249999997264,
      "v": 100
    },
    {
      "midi": 78,
      "hit": false,
      "t": 50032.0928249999,
      "d": 53.571374999999534,
      "v": 90
    },
    {
      "midi": 83,
      "hit": false,
      "t": 50032.0928249999,
      "d": 53.571374999999534,
      "v": 90
    },
    {
      "midi": 12,
      "hit": false,
      "t": 50139.235574999715,
      "d": 53.571374999999534,
      "v": 110
    },
    {
      "midi": 42,
      "hit": false,
      "t": 50139.235574999715,
      "d": 53.571374999999534,
      "v": 100
    },
    {
      "midi": 117,
      "hit": false,
      "t": 50139.235574999715,
      "d": 53.571374999999534,
      "v": 110
    },
    {
      "midi": 78,
      "hit": false,
      "t": 50139.23557499987,
      "d": 53.571374999999534,
      "v": 90
    },
    {
      "midi": 83,
      "hit": false,
      "t": 50139.23557499987,
      "d": 53.571374999999534,
      "v": 90
    },
    {
      "midi": 80,
      "hit": false,
      "t": 50139.23557499999,
      "d": 53.571374999999534,
      "v": 110
    },
    {
      "midi": 71,
      "hit": false,
      "t": 50139.235575,
      "d": 174.99982499999896,
      "v": 127
    },
    {
      "midi": 59,
      "hit": false,
      "t": 50139.235575,
      "d": 174.99982499999896,
      "v": 127
    },
    {
      "midi": 32,
      "hit": false,
      "t": 50139.23557500004,
      "d": 192.85695000000123,
      "v": 115
    },
    {
      "midi": 42,
      "hit": false,
      "t": 50246.378324999714,
      "d": 53.571374999999534,
      "v": 100
    },
    {
      "midi": 78,
      "hit": false,
      "t": 50246.378324999896,
      "d": 53.571374999999534,
      "v": 90
    },
    {
      "midi": 83,
      "hit": false,
      "t": 50246.378324999896,
      "d": 53.571374999999534,
      "v": 90
    },
    {
      "midi": 42,
      "hit": false,
      "t": 50353.52107499971,
      "d": 53.571374999999534,
      "v": 100
    },
    {
      "midi": 70,
      "hit": false,
      "t": 50353.52107499971,
      "d": 53.571374999999534,
      "v": 100
    },
    {
      "midi": 78,
      "hit": false,
      "t": 50353.521074999866,
      "d": 53.571374999999534,
      "v": 90
    },
    {
      "midi": 83,
      "hit": false,
      "t": 50353.521074999866,
      "d": 53.571374999999534,
      "v": 90
    },
    {
      "midi": 80,
      "hit": false,
      "t": 50353.52107499999,
      "d": 53.571374999999534,
      "v": 110
    },
    {
      "midi": 71,
      "hit": false,
      "t": 50353.521075,
      "d": 642.8565000000017,
      "v": 127
    },
    {
      "midi": 59,
      "hit": false,
      "t": 50353.521075,
      "d": 642.8565000000017,
      "v": 127
    },
    {
      "midi": 35,
      "hit": false,
      "t": 50353.52107500004,
      "d": 385.71390000000247,
      "v": 115
    },
    {
      "midi": 78,
      "hit": false,
      "t": 50460.663824999894,
      "d": 53.571374999999534,
      "v": 90
    },
    {
      "midi": 83,
      "hit": false,
      "t": 50460.663824999894,
      "d": 53.571374999999534,
      "v": 90
    },
    {
      "midi": 12,
      "hit": false,
      "t": 50567.80657499971,
      "d": 53.571374999999534,
      "v": 110
    },
    {
      "midi": 42,
      "hit": false,
      "t": 50567.80657499971,
      "d": 53.571374999999534,
      "v": 100
    },
    {
      "midi": 78,
      "hit": false,
      "t": 50567.806574999864,
      "d": 53.571374999999534,
      "v": 90
    },
    {
      "midi": 83,
      "hit": false,
      "t": 50567.806574999864,
      "d": 53.571374999999534,
      "v": 90
    },
    {
      "midi": 71,
      "hit": false,
      "t": 50567.80657499999,
      "d": 174.99982499999896,
      "v": 127
    },
    {
      "midi": 78,
      "hit": false,
      "t": 50674.94932499989,
      "d": 53.571374999999534,
      "v": 90
    },
    {
      "midi": 83,
      "hit": false,
      "t": 50674.94932499989,
      "d": 53.571374999999534,
      "v": 90
    },
    {
      "midi": 42,
      "hit": false,
      "t": 50782.09207499971,
      "d": 53.571374999999534,
      "v": 100
    },
    {
      "midi": 70,
      "hit": false,
      "t": 50782.09207499971,
      "d": 53.571374999999534,
      "v": 100
    },
    {
      "midi": 78,
      "hit": false,
      "t": 50782.09207499986,
      "d": 53.571374999999534,
      "v": 90
    },
    {
      "midi": 83,
      "hit": false,
      "t": 50782.09207499986,
      "d": 53.571374999999534,
      "v": 90
    },
    {
      "midi": 71,
      "hit": false,
      "t": 50782.092074999986,
      "d": 174.99982499999896,
      "v": 127
    },
    {
      "midi": 30,
      "hit": false,
      "t": 50782.092075000044,
      "d": 192.85695000000123,
      "v": 115
    },
    {
      "midi": 78,
      "hit": false,
      "t": 50889.23482499989,
      "d": 53.571374999999534,
      "v": 90
    },
    {
      "midi": 83,
      "hit": false,
      "t": 50889.23482499989,
      "d": 53.571374999999534,
      "v": 90
    },
    {
      "midi": 12,
      "hit": false,
      "t": 50996.37757499971,
      "d": 53.571374999999534,
      "v": 110
    },
    {
      "midi": 42,
      "hit": false,
      "t": 50996.37757499971,
      "d": 53.571374999999534,
      "v": 100
    },
    {
      "midi": 117,
      "hit": false,
      "t": 50996.37757499971,
      "d": 53.571374999999534,
      "v": 110
    },
    {
      "midi": 78,
      "hit": false,
      "t": 50996.37757499986,
      "d": 53.571374999999534,
      "v": 90
    },
    {
      "midi": 83,
      "hit": false,
      "t": 50996.37757499986,
      "d": 53.571374999999534,
      "v": 90
    },
    {
      "midi": 73,
      "hit": false,
      "t": 50996.377574999984,
      "d": 174.99982499999896,
      "v": 127
    },
    {
      "midi": 32,
      "hit": false,
      "t": 50996.37757500004,
      "d": 192.85695000000123,
      "v": 115
    },
    {
      "midi": 42,
      "hit": false,
      "t": 51103.52032499971,
      "d": 53.571374999999534,
      "v": 100
    },
    {
      "midi": 83,
      "hit": false,
      "t": 51103.52032499989,
      "d": 53.571374999999534,
      "v": 90
    },
    {
      "midi": 78,
      "hit": false,
      "t": 51103.52032499989,
      "d": 53.571374999999534,
      "v": 90
    },
    {
      "midi": 42,
      "hit": false,
      "t": 51210.663074999706,
      "d": 53.571374999999534,
      "v": 100
    },
    {
      "midi": 70,
      "hit": false,
      "t": 51210.663074999706,
      "d": 53.571374999999534,
      "v": 100
    },
    {
      "midi": 78,
      "hit": false,
      "t": 51210.66307499986,
      "d": 53.571374999999534,
      "v": 90
    },
    {
      "midi": 83,
      "hit": false,
      "t": 51210.66307499986,
      "d": 53.571374999999534,
      "v": 90
    },
    {
      "midi": 71,
      "hit": false,
      "t": 51210.66307499998,
      "d": 174.99982499999896,
      "v": 127
    },
    {
      "midi": 35,
      "hit": false,
      "t": 51210.66307500004,
      "d": 192.85695000000123,
      "v": 115
    },
    {
      "midi": 117,
      "hit": false,
      "t": 51317.805824999705,
      "d": 53.571374999999534,
      "v": 100
    },
    {
      "midi": 78,
      "hit": false,
      "t": 51317.80582499989,
      "d": 53.571374999999534,
      "v": 90
    },
    {
      "midi": 83,
      "hit": false,
      "t": 51317.80582499989,
      "d": 53.571374999999534,
      "v": 90
    },
    {
      "midi": 12,
      "hit": false,
      "t": 51424.948574999704,
      "d": 53.571374999999534,
      "v": 110
    },
    {
      "midi": 57,
      "hit": false,
      "t": 51424.948574999704,
      "d": 53.571374999999534,
      "v": 110
    },
    {
      "midi": 42,
      "hit": false,
      "t": 51424.948574999704,
      "d": 53.571374999999534,
      "v": 100
    },
    {
      "midi": 78,
      "hit": false,
      "t": 51424.94857499986,
      "d": 53.571374999999534,
      "v": 90
    },
    {
      "midi": 83,
      "hit": false,
      "t": 51424.94857499986,
      "d": 53.571374999999534,
      "v": 90
    },
    {
      "midi": 38,
      "hit": false,
      "t": 51424.94857499994,
      "d": 1499.9985000000015,
      "v": 100
    },
    {
      "midi": 50,
      "hit": false,
      "t": 51424.948574999966,
      "d": 1499.9985000000015,
      "v": 100
    },
    {
      "midi": 74,
      "hit": false,
      "t": 51424.94857499998,
      "d": 385.71390000000247,
      "v": 127
    },
    {
      "midi": 78,
      "hit": false,
      "t": 51424.94857499998,
      "d": 385.71390000000247,
      "v": 100
    },
    {
      "midi": 62,
      "hit": false,
      "t": 51424.948575,
      "d": 1499.9985000000015,
      "v": 100
    },
    {
      "midi": 54,
      "hit": false,
      "t": 51424.948575,
      "d": 1499.9985000000015,
      "v": 100
    },
    {
      "midi": 66,
      "hit": false,
      "t": 51424.948575,
      "d": 1499.9985000000015,
      "v": 100
    },
    {
      "midi": 57,
      "hit": false,
      "t": 51424.948575,
      "d": 1499.9985000000015,
      "v": 100
    },
    {
      "midi": 69,
      "hit": false,
      "t": 51424.94857500002,
      "d": 1499.9985000000015,
      "v": 100
    },
    {
      "midi": 66,
      "hit": false,
      "t": 51424.94857500002,
      "d": 1499.9985000000015,
      "v": 100
    },
    {
      "midi": 62,
      "hit": false,
      "t": 51424.94857500002,
      "d": 1499.9985000000015,
      "v": 100
    },
    {
      "midi": 38,
      "hit": false,
      "t": 51424.94857500004,
      "d": 174.99982499999896,
      "v": 115
    },
    {
      "midi": 78,
      "hit": false,
      "t": 51532.091324999885,
      "d": 53.57137500000681,
      "v": 90
    },
    {
      "midi": 83,
      "hit": false,
      "t": 51532.091324999885,
      "d": 53.57137500000681,
      "v": 90
    },
    {
      "midi": 42,
      "hit": false,
      "t": 51639.2340749997,
      "d": 53.571374999999534,
      "v": 100
    },
    {
      "midi": 70,
      "hit": false,
      "t": 51639.2340749997,
      "d": 53.571374999999534,
      "v": 100
    },
    {
      "midi": 78,
      "hit": false,
      "t": 51639.234074999855,
      "d": 53.571374999999534,
      "v": 90
    },
    {
      "midi": 83,
      "hit": false,
      "t": 51639.234074999855,
      "d": 53.571374999999534,
      "v": 90
    },
    {
      "midi": 38,
      "hit": false,
      "t": 51639.23407500004,
      "d": 174.99982499999896,
      "v": 115
    },
    {
      "midi": 78,
      "hit": false,
      "t": 51746.37682499989,
      "d": 53.571374999999534,
      "v": 90
    },
    {
      "midi": 83,
      "hit": false,
      "t": 51746.37682499989,
      "d": 53.571374999999534,
      "v": 90
    },
    {
      "midi": 12,
      "hit": false,
      "t": 51853.5195749997,
      "d": 53.571374999999534,
      "v": 110
    },
    {
      "midi": 42,
      "hit": false,
      "t": 51853.5195749997,
      "d": 53.571374999999534,
      "v": 100
    },
    {
      "midi": 117,
      "hit": false,
      "t": 51853.5195749997,
      "d": 53.571374999999534,
      "v": 110
    },
    {
      "midi": 83,
      "hit": false,
      "t": 51853.51957499985,
      "d": 53.571374999999534,
      "v": 90
    },
    {
      "midi": 78,
      "hit": false,
      "t": 51853.51957499985,
      "d": 53.571374999999534,
      "v": 90
    },
    {
      "midi": 73,
      "hit": false,
      "t": 51853.519574999984,
      "d": 385.71390000000247,
      "v": 127
    },
    {
      "midi": 76,
      "hit": false,
      "t": 51853.519574999984,
      "d": 385.71390000000247,
      "v": 100
    },
    {
      "midi": 38,
      "hit": false,
      "t": 51853.519575000035,
      "d": 174.99982499999896,
      "v": 115
    },
    {
      "midi": 42,
      "hit": false,
      "t": 51960.6623249997,
      "d": 53.571374999999534,
      "v": 100
    },
    {
      "midi": 78,
      "hit": false,
      "t": 51960.66232499989,
      "d": 53.571374999999534,
      "v": 90
    },
    {
      "midi": 83,
      "hit": false,
      "t": 51960.66232499989,
      "d": 53.571374999999534,
      "v": 90
    },
    {
      "midi": 42,
      "hit": false,
      "t": 52067.8050749997,
      "d": 53.571374999999534,
      "v": 100
    },
    {
      "midi": 70,
      "hit": false,
      "t": 52067.8050749997,
      "d": 53.571374999999534,
      "v": 100
    },
    {
      "midi": 78,
      "hit": false,
      "t": 52067.80507499985,
      "d": 53.571374999999534,
      "v": 90
    },
    {
      "midi": 83,
      "hit": false,
      "t": 52067.80507499985,
      "d": 53.571374999999534,
      "v": 90
    },
    {
      "midi": 38,
      "hit": false,
      "t": 52067.80507500003,
      "d": 174.99982499999896,
      "v": 115
    },
    {
      "midi": 78,
      "hit": false,
      "t": 52174.94782499989,
      "d": 53.571374999999534,
      "v": 90
    },
    {
      "midi": 83,
      "hit": false,
      "t": 52174.94782499989,
      "d": 53.571374999999534,
      "v": 90
    },
    {
      "midi": 12,
      "hit": false,
      "t": 52282.0905749997,
      "d": 53.571374999999534,
      "v": 110
    },
    {
      "midi": 42,
      "hit": false,
      "t": 52282.0905749997,
      "d": 53.571374999999534,
      "v": 100
    },
    {
      "midi": 78,
      "hit": false,
      "t": 52282.09057499985,
      "d": 53.571374999999534,
      "v": 90
    },
    {
      "midi": 83,
      "hit": false,
      "t": 52282.09057499985,
      "d": 53.571374999999534,
      "v": 90
    },
    {
      "midi": 71,
      "hit": false,
      "t": 52282.09057499999,
      "d": 385.71390000000247,
      "v": 127
    },
    {
      "midi": 74,
      "hit": false,
      "t": 52282.09057499999,
      "d": 385.71390000000247,
      "v": 100
    },
    {
      "midi": 38,
      "hit": false,
      "t": 52282.09057500003,
      "d": 174.99982499999896,
      "v": 115
    },
    {
      "midi": 78,
      "hit": false,
      "t": 52389.23332499989,
      "d": 53.571374999999534,
      "v": 90
    },
    {
      "midi": 83,
      "hit": false,
      "t": 52389.23332499989,
      "d": 53.571374999999534,
      "v": 90
    },
    {
      "midi": 42,
      "hit": false,
      "t": 52496.376074999695,
      "d": 53.571374999999534,
      "v": 100
    },
    {
      "midi": 70,
      "hit": false,
      "t": 52496.376074999695,
      "d": 53.571374999999534,
      "v": 100
    },
    {
      "midi": 78,
      "hit": false,
      "t": 52496.37607499985,
      "d": 53.571374999999534,
      "v": 90
    },
    {
      "midi": 83,
      "hit": false,
      "t": 52496.37607499985,
      "d": 53.571374999999534,
      "v": 90
    },
    {
      "midi": 38,
      "hit": false,
      "t": 52496.37607500003,
      "d": 174.99982499999896,
      "v": 115
    },
    {
      "midi": 78,
      "hit": false,
      "t": 52603.51882499989,
      "d": 53.571374999999534,
      "v": 90
    },
    {
      "midi": 83,
      "hit": false,
      "t": 52603.51882499989,
      "d": 53.571374999999534,
      "v": 90
    },
    {
      "midi": 12,
      "hit": false,
      "t": 52710.66157499969,
      "d": 53.571374999999534,
      "v": 110
    },
    {
      "midi": 42,
      "hit": false,
      "t": 52710.66157499969,
      "d": 53.571374999999534,
      "v": 100
    },
    {
      "midi": 117,
      "hit": false,
      "t": 52710.66157499969,
      "d": 53.571374999999534,
      "v": 110
    },
    {
      "midi": 78,
      "hit": false,
      "t": 52710.661574999845,
      "d": 53.571374999999534,
      "v": 90
    },
    {
      "midi": 83,
      "hit": false,
      "t": 52710.661574999845,
      "d": 53.571374999999534,
      "v": 90
    },
    {
      "midi": 71,
      "hit": false,
      "t": 52710.66157499999,
      "d": 107.14274999999907,
      "v": 127
    },
    {
      "midi": 74,
      "hit": false,
      "t": 52710.66157499999,
      "d": 107.14274999999907,
      "v": 100
    },
    {
      "midi": 38,
      "hit": false,
      "t": 52710.66157500003,
      "d": 174.99982499999896,
      "v": 115
    },
    {
      "midi": 42,
      "hit": false,
      "t": 52817.80432499969,
      "d": 53.571374999999534,
      "v": 100
    },
    {
      "midi": 78,
      "hit": false,
      "t": 52817.80432499989,
      "d": 53.571374999999534,
      "v": 90
    },
    {
      "midi": 83,
      "hit": false,
      "t": 52817.80432499989,
      "d": 53.571374999999534,
      "v": 90
    },
    {
      "midi": 42,
      "hit": false,
      "t": 52924.94707499969,
      "d": 53.571374999999534,
      "v": 100
    },
    {
      "midi": 70,
      "hit": false,
      "t": 52924.94707499969,
      "d": 53.571374999999534,
      "v": 100
    },
    {
      "midi": 57,
      "hit": false,
      "t": 52924.94707499969,
      "d": 53.571374999999534,
      "v": 110
    },
    {
      "midi": 78,
      "hit": false,
      "t": 52924.94707499984,
      "d": 53.571374999999534,
      "v": 90
    },
    {
      "midi": 83,
      "hit": false,
      "t": 52924.94707499984,
      "d": 53.571374999999534,
      "v": 90
    },
    {
      "midi": 40,
      "hit": false,
      "t": 52924.94707499994,
      "d": 1285.7130000000034,
      "v": 100
    },
    {
      "midi": 52,
      "hit": false,
      "t": 52924.94707499997,
      "d": 1285.7130000000034,
      "v": 100
    },
    {
      "midi": 78,
      "hit": false,
      "t": 52924.94707499999,
      "d": 385.71390000000247,
      "v": 127
    },
    {
      "midi": 81,
      "hit": false,
      "t": 52924.94707499999,
      "d": 385.71390000000247,
      "v": 100
    },
    {
      "midi": 68,
      "hit": false,
      "t": 52924.947075000004,
      "d": 857.1419999999998,
      "v": 100
    },
    {
      "midi": 56,
      "hit": false,
      "t": 52924.947075000004,
      "d": 857.1419999999998,
      "v": 100
    },
    {
      "midi": 59,
      "hit": false,
      "t": 52924.947075000004,
      "d": 857.1419999999998,
      "v": 100
    },
    {
      "midi": 64,
      "hit": false,
      "t": 52924.947075000004,
      "d": 857.1419999999998,
      "v": 100
    },
    {
      "midi": 71,
      "hit": false,
      "t": 52924.94707500002,
      "d": 857.1419999999998,
      "v": 100
    },
    {
      "midi": 64,
      "hit": false,
      "t": 52924.94707500002,
      "d": 1714.2839999999997,
      "v": 100
    },
    {
      "midi": 68,
      "hit": false,
      "t": 52924.94707500002,
      "d": 1714.2839999999997,
      "v": 100
    },
    {
      "midi": 38,
      "hit": false,
      "t": 52924.947075000026,
      "d": 96.42847500000062,
      "v": 115
    },
    {
      "midi": 78,
      "hit": false,
      "t": 53032.089824999886,
      "d": 53.571374999999534,
      "v": 90
    },
    {
      "midi": 83,
      "hit": false,
      "t": 53032.089824999886,
      "d": 53.571374999999534,
      "v": 90
    },
    {
      "midi": 33,
      "hit": false,
      "t": 53032.089825000025,
      "d": 96.42847500000062,
      "v": 115
    },
    {
      "midi": 12,
      "hit": false,
      "t": 53139.23257499969,
      "d": 53.571374999999534,
      "v": 110
    },
    {
      "midi": 42,
      "hit": false,
      "t": 53139.23257499969,
      "d": 53.571374999999534,
      "v": 100
    },
    {
      "midi": 78,
      "hit": false,
      "t": 53139.23257499984,
      "d": 53.571374999999534,
      "v": 90
    },
    {
      "midi": 83,
      "hit": false,
      "t": 53139.23257499984,
      "d": 53.571374999999534,
      "v": 90
    },
    {
      "midi": 28,
      "hit": false,
      "t": 53139.232575000024,
      "d": 174.99982499999896,
      "v": 115
    },
    {
      "midi": 78,
      "hit": false,
      "t": 53246.375324999884,
      "d": 53.571374999999534,
      "v": 90
    },
    {
      "midi": 83,
      "hit": false,
      "t": 53246.375324999884,
      "d": 53.571374999999534,
      "v": 90
    },
    {
      "midi": 70,
      "hit": false,
      "t": 53353.51807499969,
      "d": 53.571374999999534,
      "v": 100
    },
    {
      "midi": 42,
      "hit": false,
      "t": 53353.51807499969,
      "d": 53.571374999999534,
      "v": 100
    },
    {
      "midi": 78,
      "hit": false,
      "t": 53353.51807499984,
      "d": 53.571374999999534,
      "v": 90
    },
    {
      "midi": 83,
      "hit": false,
      "t": 53353.51807499984,
      "d": 53.571374999999534,
      "v": 90
    },
    {
      "midi": 76,
      "hit": false,
      "t": 53353.51807499999,
      "d": 385.71390000000247,
      "v": 127
    },
    {
      "midi": 79,
      "hit": false,
      "t": 53353.51807499999,
      "d": 385.71390000000247,
      "v": 100
    },
    {
      "midi": 40,
      "hit": false,
      "t": 53353.51807500002,
      "d": 174.99982499999896,
      "v": 115
    },
    {
      "midi": 78,
      "hit": false,
      "t": 53460.66082499988,
      "d": 53.571374999999534,
      "v": 90
    },
    {
      "midi": 83,
      "hit": false,
      "t": 53460.66082499988,
      "d": 53.571374999999534,
      "v": 90
    },
    {
      "midi": 12,
      "hit": false,
      "t": 53567.803574999685,
      "d": 53.571374999999534,
      "v": 110
    },
    {
      "midi": 42,
      "hit": false,
      "t": 53567.803574999685,
      "d": 53.571374999999534,
      "v": 100
    },
    {
      "midi": 117,
      "hit": false,
      "t": 53567.803574999685,
      "d": 53.571374999999534,
      "v": 110
    },
    {
      "midi": 78,
      "hit": false,
      "t": 53567.80357499984,
      "d": 53.571374999999534,
      "v": 90
    },
    {
      "midi": 83,
      "hit": false,
      "t": 53567.80357499984,
      "d": 53.571374999999534,
      "v": 90
    },
    {
      "midi": 40,
      "hit": false,
      "t": 53567.80357500002,
      "d": 174.99982499999896,
      "v": 115
    },
    {
      "midi": 42,
      "hit": false,
      "t": 53674.946324999684,
      "d": 53.571374999999534,
      "v": 100
    },
    {
      "midi": 78,
      "hit": false,
      "t": 53674.94632499988,
      "d": 53.571374999999534,
      "v": 90
    },
    {
      "midi": 83,
      "hit": false,
      "t": 53674.94632499988,
      "d": 53.571374999999534,
      "v": 90
    },
    {
      "midi": 42,
      "hit": false,
      "t": 53782.08907499968,
      "d": 53.571374999999534,
      "v": 100
    },
    {
      "midi": 70,
      "hit": false,
      "t": 53782.08907499968,
      "d": 53.571374999999534,
      "v": 100
    },
    {
      "midi": 78,
      "hit": false,
      "t": 53782.089074999836,
      "d": 53.571374999999534,
      "v": 90
    },
    {
      "midi": 83,
      "hit": false,
      "t": 53782.089074999836,
      "d": 53.571374999999534,
      "v": 90
    },
    {
      "midi": 74,
      "hit": false,
      "t": 53782.089074999996,
      "d": 385.71390000000247,
      "v": 127
    },
    {
      "midi": 78,
      "hit": false,
      "t": 53782.089074999996,
      "d": 385.71390000000247,
      "v": 100
    },
    {
      "midi": 68,
      "hit": false,
      "t": 53782.089075,
      "d": 428.57100000000355,
      "v": 86
    },
    {
      "midi": 56,
      "hit": false,
      "t": 53782.089075,
      "d": 428.57100000000355,
      "v": 86
    },
    {
      "midi": 59,
      "hit": false,
      "t": 53782.089075,
      "d": 428.57100000000355,
      "v": 86
    },
    {
      "midi": 64,
      "hit": false,
      "t": 53782.089075,
      "d": 428.57100000000355,
      "v": 86
    },
    {
      "midi": 74,
      "hit": false,
      "t": 53782.08907500002,
      "d": 428.57100000000355,
      "v": 112
    },
    {
      "midi": 71,
      "hit": false,
      "t": 53782.08907500002,
      "d": 428.57100000000355,
      "v": 112
    },
    {
      "midi": 40,
      "hit": false,
      "t": 53782.08907500002,
      "d": 174.99982499999896,
      "v": 115
    },
    {
      "midi": 78,
      "hit": false,
      "t": 53889.23182499988,
      "d": 53.571374999999534,
      "v": 90
    },
    {
      "midi": 83,
      "hit": false,
      "t": 53889.23182499988,
      "d": 53.571374999999534,
      "v": 90
    },
    {
      "midi": 12,
      "hit": false,
      "t": 53996.37457499968,
      "d": 53.571374999999534,
      "v": 110
    },
    {
      "midi": 42,
      "hit": false,
      "t": 53996.37457499968,
      "d": 53.571374999999534,
      "v": 100
    },
    {
      "midi": 78,
      "hit": false,
      "t": 53996.374574999834,
      "d": 53.571374999999534,
      "v": 90
    },
    {
      "midi": 83,
      "hit": false,
      "t": 53996.374574999834,
      "d": 53.571374999999534,
      "v": 90
    },
    {
      "midi": 40,
      "hit": false,
      "t": 53996.374575000016,
      "d": 174.99982499999896,
      "v": 115
    },
    {
      "midi": 78,
      "hit": false,
      "t": 54103.51732499988,
      "d": 53.571374999999534,
      "v": 90
    },
    {
      "midi": 83,
      "hit": false,
      "t": 54103.51732499988,
      "d": 53.571374999999534,
      "v": 90
    },
    {
      "midi": 30,
      "hit": false,
      "t": 54210.66007499968,
      "d": 35.714249999997264,
      "v": 90
    },
    {
      "midi": 42,
      "hit": false,
      "t": 54210.66007499968,
      "d": 53.571374999999534,
      "v": 100
    },
    {
      "midi": 70,
      "hit": false,
      "t": 54210.66007499968,
      "d": 53.571374999999534,
      "v": 100
    },
    {
      "midi": 78,
      "hit": false,
      "t": 54210.66007499983,
      "d": 53.571374999999534,
      "v": 90
    },
    {
      "midi": 83,
      "hit": false,
      "t": 54210.66007499983,
      "d": 53.571374999999534,
      "v": 90
    },
    {
      "midi": 38,
      "hit": false,
      "t": 54210.66007499994,
      "d": 214.28549999999814,
      "v": 100
    },
    {
      "midi": 50,
      "hit": false,
      "t": 54210.66007499997,
      "d": 214.28549999999814,
      "v": 100
    },
    {
      "midi": 74,
      "hit": false,
      "t": 54210.660075,
      "d": 174.99982499999896,
      "v": 127
    },
    {
      "midi": 68,
      "hit": false,
      "t": 54210.66007500001,
      "d": 642.8565000000017,
      "v": 100
    },
    {
      "midi": 56,
      "hit": false,
      "t": 54210.66007500001,
      "d": 642.8565000000017,
      "v": 100
    },
    {
      "midi": 59,
      "hit": false,
      "t": 54210.66007500001,
      "d": 642.8565000000017,
      "v": 100
    },
    {
      "midi": 64,
      "hit": false,
      "t": 54210.66007500001,
      "d": 642.8565000000017,
      "v": 100
    },
    {
      "midi": 38,
      "hit": false,
      "t": 54210.660075000014,
      "d": 174.99982499999896,
      "v": 115
    },
    {
      "midi": 74,
      "hit": false,
      "t": 54210.66007500002,
      "d": 214.28549999999814,
      "v": 112
    },
    {
      "midi": 71,
      "hit": false,
      "t": 54210.66007500002,
      "d": 214.28549999999814,
      "v": 112
    },
    {
      "midi": 30,
      "hit": false,
      "t": 54317.80282499968,
      "d": 35.714249999997264,
      "v": 100
    },
    {
      "midi": 78,
      "hit": false,
      "t": 54317.802824999875,
      "d": 53.571374999999534,
      "v": 90
    },
    {
      "midi": 83,
      "hit": false,
      "t": 54317.802824999875,
      "d": 53.571374999999534,
      "v": 90
    },
    {
      "midi": 12,
      "hit": false,
      "t": 54424.94557499968,
      "d": 53.571374999999534,
      "v": 110
    },
    {
      "midi": 42,
      "hit": false,
      "t": 54424.94557499968,
      "d": 53.571374999999534,
      "v": 100
    },
    {
      "midi": 117,
      "hit": false,
      "t": 54424.94557499968,
      "d": 53.571374999999534,
      "v": 110
    },
    {
      "midi": 78,
      "hit": false,
      "t": 54424.94557499983,
      "d": 53.571374999999534,
      "v": 90
    },
    {
      "midi": 83,
      "hit": false,
      "t": 54424.94557499983,
      "d": 53.571374999999534,
      "v": 90
    },
    {
      "midi": 40,
      "hit": false,
      "t": 54424.94557499994,
      "d": 214.28549999999814,
      "v": 100
    },
    {
      "midi": 52,
      "hit": false,
      "t": 54424.94557499997,
      "d": 214.28549999999814,
      "v": 100
    },
    {
      "midi": 76,
      "hit": false,
      "t": 54424.945575,
      "d": 174.99982499999896,
      "v": 127
    },
    {
      "midi": 40,
      "hit": false,
      "t": 54424.94557500001,
      "d": 174.99982499999896,
      "v": 115
    },
    {
      "midi": 76,
      "hit": false,
      "t": 54424.94557500002,
      "d": 214.28549999999814,
      "v": 112
    },
    {
      "midi": 73,
      "hit": false,
      "t": 54424.94557500002,
      "d": 214.28549999999814,
      "v": 112
    },
    {
      "midi": 42,
      "hit": false,
      "t": 54532.08832499968,
      "d": 53.571374999999534,
      "v": 100
    },
    {
      "midi": 83,
      "hit": false,
      "t": 54532.08832499987,
      "d": 53.571374999999534,
      "v": 90
    },
    {
      "midi": 78,
      "hit": false,
      "t": 54532.08832499987,
      "d": 53.571374999999534,
      "v": 90
    },
    {
      "midi": 42,
      "hit": false,
      "t": 54639.231074999676,
      "d": 53.571374999999534,
      "v": 100
    },
    {
      "midi": 70,
      "hit": false,
      "t": 54639.231074999676,
      "d": 53.571374999999534,
      "v": 100
    },
    {
      "midi": 78,
      "hit": false,
      "t": 54639.23107499983,
      "d": 53.571374999999534,
      "v": 90
    },
    {
      "midi": 83,
      "hit": false,
      "t": 54639.23107499983,
      "d": 53.571374999999534,
      "v": 90
    },
    {
      "midi": 38,
      "hit": false,
      "t": 54639.23107499994,
      "d": 214.28549999999814,
      "v": 100
    },
    {
      "midi": 50,
      "hit": false,
      "t": 54639.23107499997,
      "d": 214.28549999999814,
      "v": 100
    },
    {
      "midi": 74,
      "hit": false,
      "t": 54639.231074999996,
      "d": 174.99982499999896,
      "v": 127
    },
    {
      "midi": 38,
      "hit": false,
      "t": 54639.23107500001,
      "d": 174.99982499999896,
      "v": 115
    },
    {
      "midi": 74,
      "hit": false,
      "t": 54639.23107500002,
      "d": 214.28549999999814,
      "v": 112
    },
    {
      "midi": 71,
      "hit": false,
      "t": 54639.23107500002,
      "d": 214.28549999999814,
      "v": 112
    },
    {
      "midi": 78,
      "hit": false,
      "t": 54746.37382499987,
      "d": 53.571374999999534,
      "v": 90
    },
    {
      "midi": 83,
      "hit": false,
      "t": 54746.37382499987,
      "d": 53.571374999999534,
      "v": 90
    },
    {
      "midi": 12,
      "hit": false,
      "t": 54853.516574999674,
      "d": 53.571374999999534,
      "v": 110
    },
    {
      "midi": 42,
      "hit": false,
      "t": 54853.516574999674,
      "d": 53.571374999999534,
      "v": 100
    },
    {
      "midi": 57,
      "hit": false,
      "t": 54853.516574999674,
      "d": 53.571374999999534,
      "v": 110
    },
    {
      "midi": 37,
      "hit": false,
      "t": 54853.516574999936,
      "d": 642.8565000000017,
      "v": 100
    },
    {
      "midi": 49,
      "hit": false,
      "t": 54853.516574999965,
      "d": 642.8565000000017,
      "v": 100
    },
    {
      "midi": 78,
      "hit": false,
      "t": 54853.516574999994,
      "d": 2571.4259999999995,
      "v": 127
    },
    {
      "midi": 37,
      "hit": false,
      "t": 54853.51657500001,
      "d": 192.85695000000123,
      "v": 115
    },
    {
      "midi": 56,
      "hit": false,
      "t": 54853.51657500001,
      "d": 642.8565000000017,
      "v": 100
    },
    {
      "midi": 61,
      "hit": false,
      "t": 54853.51657500001,
      "d": 642.8565000000017,
      "v": 100
    },
    {
      "midi": 64,
      "hit": false,
      "t": 54853.51657500001,
      "d": 642.8565000000017,
      "v": 100
    },
    {
      "midi": 73,
      "hit": false,
      "t": 54853.516575000016,
      "d": 642.8565000000017,
      "v": 112
    },
    {
      "midi": 68,
      "hit": false,
      "t": 54853.516575000016,
      "d": 642.8565000000017,
      "v": 112
    },
    {
      "midi": 64,
      "hit": false,
      "t": 54853.516575000016,
      "d": 642.8565000000017,
      "v": 112
    },
    {
      "midi": 42,
      "hit": false,
      "t": 55067.80207499967,
      "d": 53.571374999999534,
      "v": 100
    },
    {
      "midi": 70,
      "hit": false,
      "t": 55067.80207499967,
      "d": 53.571374999999534,
      "v": 100
    },
    {
      "midi": 36,
      "hit": false,
      "t": 55067.80207500001,
      "d": 192.85695000000123,
      "v": 115
    },
    {
      "midi": 12,
      "hit": false,
      "t": 55282.08757499967,
      "d": 53.571374999999534,
      "v": 110
    },
    {
      "midi": 42,
      "hit": false,
      "t": 55282.08757499967,
      "d": 53.571374999999534,
      "v": 100
    },
    {
      "midi": 117,
      "hit": false,
      "t": 55282.08757499967,
      "d": 53.571374999999534,
      "v": 110
    },
    {
      "midi": 80,
      "hit": false,
      "t": 55282.08757499999,
      "d": 53.571374999999534,
      "v": 110
    },
    {
      "midi": 35,
      "hit": false,
      "t": 55282.087575000005,
      "d": 192.85695000000123,
      "v": 115
    },
    {
      "midi": 83,
      "hit": false,
      "t": 55282.08757500001,
      "d": 214.28549999999814,
      "v": 118
    },
    {
      "midi": 42,
      "hit": false,
      "t": 55389.23032499967,
      "d": 53.571374999999534,
      "v": 100
    },
    {
      "midi": 12,
      "hit": false,
      "t": 55496.37307499967,
      "d": 53.571374999999534,
      "v": 110
    },
    {
      "midi": 42,
      "hit": false,
      "t": 55496.37307499967,
      "d": 53.571374999999534,
      "v": 100
    },
    {
      "midi": 70,
      "hit": false,
      "t": 55496.37307499967,
      "d": 53.571374999999534,
      "v": 100
    },
    {
      "midi": 39,
      "hit": false,
      "t": 55496.37307499994,
      "d": 857.1419999999998,
      "v": 100
    },
    {
      "midi": 51,
      "hit": false,
      "t": 55496.37307499997,
      "d": 857.1419999999998,
      "v": 100
    },
    {
      "midi": 39,
      "hit": false,
      "t": 55496.373075,
      "d": 385.71390000000247,
      "v": 115
    },
    {
      "midi": 58,
      "hit": false,
      "t": 55496.37307500001,
      "d": 857.1419999999998,
      "v": 100
    },
    {
      "midi": 63,
      "hit": false,
      "t": 55496.37307500001,
      "d": 857.1419999999998,
      "v": 100
    },
    {
      "midi": 66,
      "hit": false,
      "t": 55496.37307500001,
      "d": 857.1419999999998,
      "v": 100
    },
    {
      "midi": 74,
      "hit": false,
      "t": 55496.37307500001,
      "d": 214.28549999999814,
      "v": 118
    },
    {
      "midi": 70,
      "hit": false,
      "t": 55496.37307500002,
      "d": 857.1419999999998,
      "v": 113
    },
    {
      "midi": 75,
      "hit": false,
      "t": 55496.37307500002,
      "d": 857.1419999999998,
      "v": 113
    },
    {
      "midi": 66,
      "hit": false,
      "t": 55496.37307500002,
      "d": 857.1419999999998,
      "v": 113
    },
    {
      "midi": 42,
      "hit": false,
      "t": 55710.65857499967,
      "d": 53.571374999999534,
      "v": 100
    },
    {
      "midi": 42,
      "hit": false,
      "t": 55924.944074999665,
      "d": 53.571374999999534,
      "v": 100
    },
    {
      "midi": 70,
      "hit": false,
      "t": 55924.944074999665,
      "d": 53.571374999999534,
      "v": 100
    },
    {
      "midi": 38,
      "hit": false,
      "t": 55924.94407500001,
      "d": 192.85695000000123,
      "v": 115
    },
    {
      "midi": 68,
      "hit": false,
      "t": 55924.94407500001,
      "d": 214.28549999999814,
      "v": 118
    },
    {
      "midi": 12,
      "hit": false,
      "t": 56139.22957499967,
      "d": 53.571374999999534,
      "v": 110
    },
    {
      "midi": 57,
      "hit": false,
      "t": 56139.22957499967,
      "d": 53.571374999999534,
      "v": 110
    },
    {
      "midi": 117,
      "hit": false,
      "t": 56139.22957499967,
      "d": 53.571374999999534,
      "v": 110
    },
    {
      "midi": 42,
      "hit": false,
      "t": 56139.22957499967,
      "d": 53.571374999999534,
      "v": 100
    },
    {
      "midi": 37,
      "hit": false,
      "t": 56139.229575000005,
      "d": 192.85695000000123,
      "v": 115
    },
    {
      "midi": 83,
      "hit": false,
      "t": 56139.229575000005,
      "d": 214.28549999999814,
      "v": 118
    },
    {
      "midi": 42,
      "hit": false,
      "t": 56246.37232499967,
      "d": 53.571374999999534,
      "v": 100
    },
    {
      "midi": 42,
      "hit": false,
      "t": 56353.51507499967,
      "d": 53.571374999999534,
      "v": 100
    },
    {
      "midi": 12,
      "hit": false,
      "t": 56353.51507499967,
      "d": 53.571374999999534,
      "v": 110
    },
    {
      "midi": 57,
      "hit": false,
      "t": 56353.51507499967,
      "d": 53.571374999999534,
      "v": 110
    },
    {
      "midi": 70,
      "hit": false,
      "t": 56353.51507499967,
      "d": 53.571374999999534,
      "v": 100
    },
    {
      "midi": 40,
      "hit": false,
      "t": 56353.51507499994,
      "d": 1071.427499999998,
      "v": 100
    },
    {
      "midi": 52,
      "hit": false,
      "t": 56353.51507499997,
      "d": 1071.427499999998,
      "v": 100
    },
    {
      "midi": 40,
      "hit": false,
      "t": 56353.515075,
      "d": 1071.427499999998,
      "v": 115
    },
    {
      "midi": 74,
      "hit": false,
      "t": 56353.515075,
      "d": 214.28549999999814,
      "v": 118
    },
    {
      "midi": 59,
      "hit": false,
      "t": 56353.51507500001,
      "d": 1071.427499999998,
      "v": 100
    },
    {
      "midi": 64,
      "hit": false,
      "t": 56353.51507500001,
      "d": 1071.427499999998,
      "v": 100
    },
    {
      "midi": 67,
      "hit": false,
      "t": 56353.51507500001,
      "d": 1071.427499999998,
      "v": 100
    },
    {
      "midi": 76,
      "hit": false,
      "t": 56353.51507500002,
      "d": 1071.427499999998,
      "v": 113
    },
    {
      "midi": 71,
      "hit": false,
      "t": 56353.51507500002,
      "d": 1071.427499999998,
      "v": 113
    },
    {
      "midi": 67,
      "hit": false,
      "t": 56353.51507500002,
      "d": 1071.427499999998,
      "v": 113
    },
    {
      "midi": 30,
      "hit": false,
      "t": 57210.65707499967,
      "d": 35.714249999997264,
      "v": 79
    },
    {
      "midi": 117,
      "hit": false,
      "t": 57210.65707499967,
      "d": 53.571374999999534,
      "v": 79
    },
    {
      "midi": 117,
      "hit": false,
      "t": 57282.08557499967,
      "d": 53.571374999999534,
      "v": 91
    },
    {
      "midi": 30,
      "hit": false,
      "t": 57317.79982499967,
      "d": 35.71425000000454,
      "v": 97
    },
    {
      "midi": 117,
      "hit": false,
      "t": 57353.51407499967,
      "d": 53.571374999999534,
      "v": 103
    },
    {
      "midi": 12,
      "hit": false,
      "t": 57424.94257499967,
      "d": 53.571374999999534,
      "v": 110
    },
    {
      "midi": 80,
      "hit": false,
      "t": 57424.942574999994,
      "d": 53.571374999999534,
      "v": 110
    },
    {
      "midi": 71,
      "hit": false,
      "t": 57424.942575,
      "d": 214.28549999999814,
      "v": 127
    },
    {
      "midi": 59,
      "hit": false,
      "t": 57424.942575,
      "d": 214.28549999999814,
      "v": 127
    },
    {
      "midi": 33,
      "hit": false,
      "t": 57424.942575,
      "d": 192.85695000000123,
      "v": 115
    },
    {
      "midi": 71,
      "hit": false,
      "t": 57424.94257500002,
      "d": 107.14274999999907,
      "v": 100
    },
    {
      "midi": 59,
      "hit": false,
      "t": 57424.94257500002,
      "d": 107.14274999999907,
      "v": 100
    },
    {
      "midi": 73,
      "hit": false,
      "t": 57532.08532500002,
      "d": 107.14274999999907,
      "v": 100
    },
    {
      "midi": 61,
      "hit": false,
      "t": 57532.08532500002,
      "d": 107.14274999999907,
      "v": 100
    },
    {
      "midi": 74,
      "hit": false,
      "t": 57639.22807500002,
      "d": 107.14274999999907,
      "v": 100
    },
    {
      "midi": 62,
      "hit": false,
      "t": 57639.22807500002,
      "d": 107.14274999999907,
      "v": 100
    },
    {
      "midi": 76,
      "hit": false,
      "t": 57746.37082500002,
      "d": 107.14274999999907,
      "v": 100
    },
    {
      "midi": 64,
      "hit": false,
      "t": 57746.37082500002,
      "d": 107.14274999999907,
      "v": 100
    },
    {
      "midi": 12,
      "hit": false,
      "t": 57853.51357499967,
      "d": 53.571374999999534,
      "v": 110
    },
    {
      "midi": 80,
      "hit": false,
      "t": 57853.51357499999,
      "d": 53.571374999999534,
      "v": 110
    },
    {
      "midi": 71,
      "hit": false,
      "t": 57853.513575,
      "d": 428.57100000000355,
      "v": 127
    },
    {
      "midi": 59,
      "hit": false,
      "t": 57853.513575,
      "d": 428.57100000000355,
      "v": 127
    },
    {
      "midi": 45,
      "hit": false,
      "t": 57853.513575000004,
      "d": 428.5709999999817,
      "v": 115
    },
    {
      "midi": 78,
      "hit": false,
      "t": 57853.51357500002,
      "d": 71.4285000000018,
      "v": 100
    },
    {
      "midi": 66,
      "hit": false,
      "t": 57853.51357500002,
      "d": 71.4285000000018,
      "v": 100
    },
    {
      "midi": 80,
      "hit": false,
      "t": 57924.94207500002,
      "d": 71.4285000000018,
      "v": 100
    },
    {
      "midi": 68,
      "hit": false,
      "t": 57924.94207500002,
      "d": 71.4285000000018,
      "v": 100
    },
    {
      "midi": 82,
      "hit": false,
      "t": 57996.37057500002,
      "d": 71.4285000000018,
      "v": 100
    },
    {
      "midi": 70,
      "hit": false,
      "t": 57996.37057500002,
      "d": 71.4285000000018,
      "v": 100
    },
    {
      "midi": 83,
      "hit": false,
      "t": 58067.799075000024,
      "d": 71.4285000000018,
      "v": 100
    },
    {
      "midi": 71,
      "hit": false,
      "t": 58067.799075000024,
      "d": 71.4285000000018,
      "v": 100
    },
    {
      "midi": 85,
      "hit": false,
      "t": 58139.227575000026,
      "d": 71.4285000000018,
      "v": 100
    },
    {
      "midi": 73,
      "hit": false,
      "t": 58139.227575000026,
      "d": 71.4285000000018,
      "v": 100
    },
    {
      "midi": 86,
      "hit": false,
      "t": 58210.65607500003,
      "d": 71.4285000000018,
      "v": 100
    },
    {
      "midi": 74,
      "hit": false,
      "t": 58210.65607500003,
      "d": 71.4285000000018,
      "v": 100
    },
    {
      "midi": 12,
      "hit": false,
      "t": 58282.084574999666,
      "d": 53.571374999999534,
      "v": 110
    },
    {
      "midi": 57,
      "hit": false,
      "t": 58282.084574999666,
      "d": 53.571374999999534,
      "v": 110
    },
    {
      "midi": 42,
      "hit": false,
      "t": 58282.084574999666,
      "d": 53.571374999999534,
      "v": 100
    },
    {
      "midi": 47,
      "hit": false,
      "t": 58282.084574999935,
      "d": 1714.2839999999997,
      "v": 100
    },
    {
      "midi": 47,
      "hit": false,
      "t": 58282.084574999964,
      "d": 1714.2839999999997,
      "v": 100
    },
    {
      "midi": 35,
      "hit": false,
      "t": 58282.084574999986,
      "d": 385.71390000000247,
      "v": 115
    },
    {
      "midi": 83,
      "hit": false,
      "t": 58282.08457499999,
      "d": 192.85695000000123,
      "v": 90
    },
    {
      "midi": 78,
      "hit": false,
      "t": 58282.08457499999,
      "d": 192.85695000000123,
      "v": 127
    },
    {
      "midi": 66,
      "hit": false,
      "t": 58282.08457500001,
      "d": 857.1419999999998,
      "v": 100
    },
    {
      "midi": 54,
      "hit": false,
      "t": 58282.08457500001,
      "d": 857.1419999999998,
      "v": 100
    },
    {
      "midi": 59,
      "hit": false,
      "t": 58282.08457500001,
      "d": 857.1419999999998,
      "v": 100
    },
    {
      "midi": 63,
      "hit": false,
      "t": 58282.08457500001,
      "d": 857.1419999999998,
      "v": 100
    },
    {
      "midi": 87,
      "hit": false,
      "t": 58282.084575000015,
      "d": 214.28549999999814,
      "v": 110
    },
    {
      "midi": 71,
      "hit": false,
      "t": 58282.084575000015,
      "d": 1714.2839999999997,
      "v": 110
    },
    {
      "midi": 66,
      "hit": false,
      "t": 58282.084575000015,
      "d": 1714.2839999999997,
      "v": 110
    },
    {
      "midi": 63,
      "hit": false,
      "t": 58282.084575000015,
      "d": 1714.2839999999997,
      "v": 110
    },
    {
      "midi": 87,
      "hit": false,
      "t": 58282.08457500003,
      "d": 1714.2839999999997,
      "v": 80
    },
    {
      "midi": 75,
      "hit": false,
      "t": 58282.08457500003,
      "d": 1714.2839999999997,
      "v": 80
    },
    {
      "midi": 42,
      "hit": false,
      "t": 58496.370074999664,
      "d": 53.571374999999534,
      "v": 100
    },
    {
      "midi": 70,
      "hit": false,
      "t": 58496.370074999664,
      "d": 53.571374999999534,
      "v": 100
    },
    {
      "midi": 78,
      "hit": false,
      "t": 58496.37007499999,
      "d": 192.85695000000123,
      "v": 127
    },
    {
      "midi": 83,
      "hit": false,
      "t": 58496.37007499999,
      "d": 192.85695000000123,
      "v": 90
    },
    {
      "midi": 12,
      "hit": false,
      "t": 58710.65557499966,
      "d": 53.571374999999534,
      "v": 110
    },
    {
      "midi": 42,
      "hit": false,
      "t": 58710.65557499966,
      "d": 53.571374999999534,
      "v": 100
    },
    {
      "midi": 117,
      "hit": false,
      "t": 58710.65557499966,
      "d": 53.571374999999534,
      "v": 110
    },
    {
      "midi": 80,
      "hit": false,
      "t": 58710.65557499999,
      "d": 192.85695000000123,
      "v": 127
    },
    {
      "midi": 85,
      "hit": false,
      "t": 58710.65557499999,
      "d": 192.85695000000123,
      "v": 90
    },
    {
      "midi": 35,
      "hit": false,
      "t": 58710.65557499999,
      "d": 192.85695000000123,
      "v": 115
    },
    {
      "midi": 42,
      "hit": false,
      "t": 58817.79832499966,
      "d": 53.571374999999534,
      "v": 100
    },
    {
      "midi": 42,
      "hit": false,
      "t": 58924.94107499966,
      "d": 53.571374999999534,
      "v": 100
    },
    {
      "midi": 70,
      "hit": false,
      "t": 58924.94107499966,
      "d": 53.571374999999534,
      "v": 100
    },
    {
      "midi": 30,
      "hit": false,
      "t": 58924.94107499999,
      "d": 192.85695000000123,
      "v": 115
    },
    {
      "midi": 12,
      "hit": false,
      "t": 59139.22657499966,
      "d": 53.571374999999534,
      "v": 110
    },
    {
      "midi": 42,
      "hit": false,
      "t": 59139.22657499966,
      "d": 53.571374999999534,
      "v": 100
    },
    {
      "midi": 32,
      "hit": false,
      "t": 59139.226574999986,
      "d": 192.85695000000123,
      "v": 115
    },
    {
      "midi": 83,
      "hit": false,
      "t": 59139.22657499999,
      "d": 192.85695000000123,
      "v": 127
    },
    {
      "midi": 87,
      "hit": false,
      "t": 59139.22657499999,
      "d": 192.85695000000123,
      "v": 90
    },
    {
      "midi": 42,
      "hit": false,
      "t": 59353.51207499966,
      "d": 53.571374999999534,
      "v": 100
    },
    {
      "midi": 70,
      "hit": false,
      "t": 59353.51207499966,
      "d": 53.571374999999534,
      "v": 100
    },
    {
      "midi": 35,
      "hit": false,
      "t": 59353.512074999984,
      "d": 385.71390000000247,
      "v": 115
    },
    {
      "midi": 12,
      "hit": false,
      "t": 59567.797574999655,
      "d": 53.571374999999534,
      "v": 110
    },
    {
      "midi": 42,
      "hit": false,
      "t": 59567.797574999655,
      "d": 53.571374999999534,
      "v": 100
    },
    {
      "midi": 117,
      "hit": false,
      "t": 59567.797574999655,
      "d": 53.571374999999534,
      "v": 110
    },
    {
      "midi": 78,
      "hit": false,
      "t": 59567.797575,
      "d": 192.85695000000123,
      "v": 127
    },
    {
      "midi": 83,
      "hit": false,
      "t": 59567.797575,
      "d": 192.85695000000123,
      "v": 90
    },
    {
      "midi": 42,
      "hit": false,
      "t": 59674.940324999654,
      "d": 53.571374999999534,
      "v": 100
    },
    {
      "midi": 42,
      "hit": false,
      "t": 59782.08307499965,
      "d": 53.571374999999534,
      "v": 100
    },
    {
      "midi": 70,
      "hit": false,
      "t": 59782.08307499965,
      "d": 53.571374999999534,
      "v": 100
    },
    {
      "midi": 34,
      "hit": false,
      "t": 59782.08307499999,
      "d": 385.71390000000247,
      "v": 115
    },
    {
      "midi": 83,
      "hit": false,
      "t": 59782.083074999995,
      "d": 192.85695000000123,
      "v": 90
    },
    {
      "midi": 78,
      "hit": false,
      "t": 59782.083074999995,
      "d": 192.85695000000123,
      "v": 127
    },
    {
      "midi": 12,
      "hit": false,
      "t": 59996.36857499965,
      "d": 53.571374999999534,
      "v": 110
    },
    {
      "midi": 42,
      "hit": false,
      "t": 59996.36857499965,
      "d": 53.571374999999534,
      "v": 100
    },
    {
      "midi": 46,
      "hit": false,
      "t": 59996.368574999935,
      "d": 1714.2839999999997,
      "v": 100
    },
    {
      "midi": 46,
      "hit": false,
      "t": 59996.368574999964,
      "d": 1714.2839999999997,
      "v": 100
    },
    {
      "midi": 80,
      "hit": false,
      "t": 59996.36857499999,
      "d": 192.85695000000123,
      "v": 127
    },
    {
      "midi": 85,
      "hit": false,
      "t": 59996.36857499999,
      "d": 192.85695000000123,
      "v": 90
    },
    {
      "midi": 58,
      "hit": false,
      "t": 59996.36857500001,
      "d": 857.1419999999998,
      "v": 100
    },
    {
      "midi": 61,
      "hit": false,
      "t": 59996.36857500001,
      "d": 857.1419999999998,
      "v": 100
    },
    {
      "midi": 66,
      "hit": false,
      "t": 59996.36857500001,
      "d": 1714.2839999999997,
      "v": 100
    },
    {
      "midi": 54,
      "hit": false,
      "t": 59996.36857500001,
      "d": 1714.2839999999997,
      "v": 100
    },
    {
      "midi": 85,
      "hit": false,
      "t": 59996.368575000015,
      "d": 214.28549999999814,
      "v": 110
    },
    {
      "midi": 70,
      "hit": false,
      "t": 59996.368575000015,
      "d": 857.1419999999998,
      "v": 110
    },
    {
      "midi": 66,
      "hit": false,
      "t": 59996.368575000015,
      "d": 857.1419999999998,
      "v": 110
    },
    {
      "midi": 61,
      "hit": false,
      "t": 59996.368575000015,
      "d": 857.1419999999998,
      "v": 110
    },
    {
      "midi": 85,
      "hit": false,
      "t": 59996.36857500003,
      "d": 857.1419999999998,
      "v": 80
    },
    {
      "midi": 73,
      "hit": false,
      "t": 59996.36857500003,
      "d": 857.1419999999998,
      "v": 80
    },
    {
      "midi": 70,
      "hit": false,
      "t": 60210.65407499965,
      "d": 53.571374999999534,
      "v": 100
    },
    {
      "midi": 42,
      "hit": false,
      "t": 60210.65407499965,
      "d": 53.571374999999534,
      "v": 100
    },
    {
      "midi": 78,
      "hit": false,
      "t": 60210.65407499999,
      "d": 385.71390000000247,
      "v": 127
    },
    {
      "midi": 83,
      "hit": false,
      "t": 60210.65407499999,
      "d": 385.71390000000247,
      "v": 90
    },
    {
      "midi": 30,
      "hit": false,
      "t": 60210.65407499999,
      "d": 192.85695000000123,
      "v": 115
    },
    {
      "midi": 12,
      "hit": false,
      "t": 60424.93957499965,
      "d": 53.571374999999534,
      "v": 110
    },
    {
      "midi": 42,
      "hit": false,
      "t": 60424.93957499965,
      "d": 53.571374999999534,
      "v": 100
    },
    {
      "midi": 117,
      "hit": false,
      "t": 60424.93957499965,
      "d": 53.571374999999534,
      "v": 110
    },
    {
      "midi": 32,
      "hit": false,
      "t": 60424.93957499999,
      "d": 192.85695000000123,
      "v": 115
    },
    {
      "midi": 42,
      "hit": false,
      "t": 60532.08232499965,
      "d": 53.571374999999534,
      "v": 100
    },
    {
      "midi": 42,
      "hit": false,
      "t": 60639.225074999646,
      "d": 53.571374999999534,
      "v": 100
    },
    {
      "midi": 70,
      "hit": false,
      "t": 60639.225074999646,
      "d": 53.571374999999534,
      "v": 100
    },
    {
      "midi": 34,
      "hit": false,
      "t": 60639.22507499999,
      "d": 385.71390000000247,
      "v": 115
    },
    {
      "midi": 75,
      "hit": false,
      "t": 60639.225074999995,
      "d": 385.71390000000247,
      "v": 127
    },
    {
      "midi": 78,
      "hit": false,
      "t": 60639.225074999995,
      "d": 385.71390000000247,
      "v": 90
    },
    {
      "midi": 12,
      "hit": false,
      "t": 60853.510574999644,
      "d": 53.571374999999534,
      "v": 110
    },
    {
      "midi": 42,
      "hit": false,
      "t": 60853.510574999644,
      "d": 53.571374999999534,
      "v": 100
    },
    {
      "midi": 61,
      "hit": false,
      "t": 60853.51057500001,
      "d": 857.1419999999998,
      "v": 100
    },
    {
      "midi": 64,
      "hit": false,
      "t": 60853.51057500001,
      "d": 857.1419999999998,
      "v": 100
    },
    {
      "midi": 90,
      "hit": false,
      "t": 60853.510575000015,
      "d": 214.28549999999814,
      "v": 110
    },
    {
      "midi": 73,
      "hit": false,
      "t": 60853.510575000015,
      "d": 857.1419999999998,
      "v": 110
    },
    {
      "midi": 68,
      "hit": false,
      "t": 60853.510575000015,
      "d": 857.1419999999998,
      "v": 110
    },
    {
      "midi": 64,
      "hit": false,
      "t": 60853.510575000015,
      "d": 857.1419999999998,
      "v": 110
    },
    {
      "midi": 90,
      "hit": false,
      "t": 60853.51057500003,
      "d": 857.1419999999998,
      "v": 80
    },
    {
      "midi": 78,
      "hit": false,
      "t": 60853.51057500003,
      "d": 857.1419999999998,
      "v": 80
    },
    {
      "midi": 42,
      "hit": false,
      "t": 61067.79607499964,
      "d": 53.571374999999534,
      "v": 100
    },
    {
      "midi": 70,
      "hit": false,
      "t": 61067.79607499964,
      "d": 53.571374999999534,
      "v": 100
    },
    {
      "midi": 30,
      "hit": false,
      "t": 61067.79607499999,
      "d": 192.85695000000123,
      "v": 115
    },
    {
      "midi": 80,
      "hit": false,
      "t": 61067.79607499999,
      "d": 53.571374999999534,
      "v": 110
    },
    {
      "midi": 73,
      "hit": false,
      "t": 61067.796075,
      "d": 192.85695000000123,
      "v": 127
    },
    {
      "midi": 76,
      "hit": false,
      "t": 61067.796075,
      "d": 192.85695000000123,
      "v": 90
    },
    {
      "midi": 12,
      "hit": false,
      "t": 61282.08157499964,
      "d": 53.571374999999534,
      "v": 110
    },
    {
      "midi": 42,
      "hit": false,
      "t": 61282.08157499964,
      "d": 53.571374999999534,
      "v": 100
    },
    {
      "midi": 117,
      "hit": false,
      "t": 61282.08157499964,
      "d": 53.571374999999534,
      "v": 110
    },
    {
      "midi": 32,
      "hit": false,
      "t": 61282.08157499999,
      "d": 192.85695000000123,
      "v": 115
    },
    {
      "midi": 80,
      "hit": false,
      "t": 61282.08157499999,
      "d": 53.571374999999534,
      "v": 110
    },
    {
      "midi": 73,
      "hit": false,
      "t": 61282.081575,
      "d": 192.85695000000123,
      "v": 127
    },
    {
      "midi": 76,
      "hit": false,
      "t": 61282.081575,
      "d": 192.85695000000123,
      "v": 90
    },
    {
      "midi": 42,
      "hit": false,
      "t": 61389.22432499964,
      "d": 53.571374999999534,
      "v": 100
    },
    {
      "midi": 42,
      "hit": false,
      "t": 61496.36707499964,
      "d": 53.571374999999534,
      "v": 100
    },
    {
      "midi": 70,
      "hit": false,
      "t": 61496.36707499964,
      "d": 53.571374999999534,
      "v": 100
    },
    {
      "midi": 34,
      "hit": false,
      "t": 61496.36707499999,
      "d": 192.85695000000123,
      "v": 115
    },
    {
      "midi": 71,
      "hit": false,
      "t": 61496.367074999995,
      "d": 192.85695000000123,
      "v": 127
    },
    {
      "midi": 75,
      "hit": false,
      "t": 61496.367074999995,
      "d": 192.85695000000123,
      "v": 90
    },
    {
      "midi": 12,
      "hit": false,
      "t": 61710.652574999636,
      "d": 53.571374999999534,
      "v": 110
    },
    {
      "midi": 42,
      "hit": false,
      "t": 61710.652574999636,
      "d": 53.571374999999534,
      "v": 100
    },
    {
      "midi": 44,
      "hit": false,
      "t": 61710.652574999935,
      "d": 1714.2839999999997,
      "v": 100
    },
    {
      "midi": 44,
      "hit": false,
      "t": 61710.652574999964,
      "d": 1714.2839999999997,
      "v": 100
    },
    {
      "midi": 32,
      "hit": false,
      "t": 61710.652574999986,
      "d": 385.71390000000247,
      "v": 115
    },
    {
      "midi": 78,
      "hit": false,
      "t": 61710.65257499999,
      "d": 192.85695000000123,
      "v": 127
    },
    {
      "midi": 83,
      "hit": false,
      "t": 61710.65257499999,
      "d": 192.85695000000123,
      "v": 90
    },
    {
      "midi": 56,
      "hit": false,
      "t": 61710.65257500001,
      "d": 857.1419999999998,
      "v": 100
    },
    {
      "midi": 59,
      "hit": false,
      "t": 61710.65257500001,
      "d": 857.1419999999998,
      "v": 100
    },
    {
      "midi": 63,
      "hit": false,
      "t": 61710.65257500001,
      "d": 857.1419999999998,
      "v": 100
    },
    {
      "midi": 66,
      "hit": false,
      "t": 61710.65257500001,
      "d": 857.1419999999998,
      "v": 100
    },
    {
      "midi": 87,
      "hit": false,
      "t": 61710.652575000015,
      "d": 214.28549999999814,
      "v": 110
    },
    {
      "midi": 71,
      "hit": false,
      "t": 61710.652575000015,
      "d": 1714.2839999999997,
      "v": 110
    },
    {
      "midi": 66,
      "hit": false,
      "t": 61710.652575000015,
      "d": 1714.2839999999997,
      "v": 110
    },
    {
      "midi": 63,
      "hit": false,
      "t": 61710.652575000015,
      "d": 1714.2839999999997,
      "v": 110
    },
    {
      "midi": 87,
      "hit": false,
      "t": 61710.65257500003,
      "d": 1714.2839999999997,
      "v": 80
    },
    {
      "midi": 75,
      "hit": false,
      "t": 61710.65257500003,
      "d": 1714.2839999999997,
      "v": 80
    },
    {
      "midi": 42,
      "hit": false,
      "t": 61924.938074999634,
      "d": 53.571374999999534,
      "v": 100
    },
    {
      "midi": 70,
      "hit": false,
      "t": 61924.938074999634,
      "d": 53.571374999999534,
      "v": 100
    },
    {
      "midi": 78,
      "hit": false,
      "t": 61924.93807499999,
      "d": 192.85695000000123,
      "v": 127
    },
    {
      "midi": 83,
      "hit": false,
      "t": 61924.93807499999,
      "d": 192.85695000000123,
      "v": 90
    },
    {
      "midi": 12,
      "hit": false,
      "t": 62139.22357499963,
      "d": 53.571374999999534,
      "v": 110
    },
    {
      "midi": 42,
      "hit": false,
      "t": 62139.22357499963,
      "d": 53.571374999999534,
      "v": 100
    },
    {
      "midi": 117,
      "hit": false,
      "t": 62139.22357499963,
      "d": 53.571374999999534,
      "v": 110
    },
    {
      "midi": 80,
      "hit": false,
      "t": 62139.22357499999,
      "d": 192.85695000000123,
      "v": 127
    },
    {
      "midi": 85,
      "hit": false,
      "t": 62139.22357499999,
      "d": 192.85695000000123,
      "v": 90
    },
    {
      "midi": 32,
      "hit": false,
      "t": 62139.22357499999,
      "d": 192.85695000000123,
      "v": 115
    },
    {
      "midi": 42,
      "hit": false,
      "t": 62246.36632499963,
      "d": 53.571374999999534,
      "v": 100
    },
    {
      "midi": 42,
      "hit": false,
      "t": 62353.50907499963,
      "d": 53.571374999999534,
      "v": 100
    },
    {
      "midi": 70,
      "hit": false,
      "t": 62353.50907499963,
      "d": 53.571374999999534,
      "v": 100
    },
    {
      "midi": 80,
      "hit": false,
      "t": 62353.50907499999,
      "d": 192.85695000000123,
      "v": 127
    },
    {
      "midi": 85,
      "hit": false,
      "t": 62353.50907499999,
      "d": 192.85695000000123,
      "v": 90
    },
    {
      "midi": 27,
      "hit": false,
      "t": 62353.50907499999,
      "d": 192.85695000000123,
      "v": 115
    },
    {
      "midi": 12,
      "hit": false,
      "t": 62567.79457499963,
      "d": 53.571374999999534,
      "v": 110
    },
    {
      "midi": 42,
      "hit": false,
      "t": 62567.79457499963,
      "d": 53.571374999999534,
      "v": 100
    },
    {
      "midi": 87,
      "hit": false,
      "t": 62567.794574999985,
      "d": 192.85695000000123,
      "v": 90
    },
    {
      "midi": 83,
      "hit": false,
      "t": 62567.794574999985,
      "d": 192.85695000000123,
      "v": 127
    },
    {
      "midi": 30,
      "hit": false,
      "t": 62567.794574999985,
      "d": 192.85695000000123,
      "v": 115
    },
    {
      "midi": 42,
      "hit": false,
      "t": 62782.08007499963,
      "d": 53.571374999999534,
      "v": 100
    },
    {
      "midi": 70,
      "hit": false,
      "t": 62782.08007499963,
      "d": 53.571374999999534,
      "v": 100
    },
    {
      "midi": 32,
      "hit": false,
      "t": 62782.08007499998,
      "d": 385.71390000000247,
      "v": 115
    },
    {
      "midi": 12,
      "hit": false,
      "t": 62996.365574999625,
      "d": 53.571374999999534,
      "v": 110
    },
    {
      "midi": 42,
      "hit": false,
      "t": 62996.365574999625,
      "d": 53.571374999999534,
      "v": 100
    },
    {
      "midi": 117,
      "hit": false,
      "t": 62996.365574999625,
      "d": 53.571374999999534,
      "v": 110
    },
    {
      "midi": 78,
      "hit": false,
      "t": 62996.36557499999,
      "d": 192.85695000000123,
      "v": 127
    },
    {
      "midi": 83,
      "hit": false,
      "t": 62996.36557499999,
      "d": 192.85695000000123,
      "v": 90
    },
    {
      "midi": 42,
      "hit": false,
      "t": 63103.508324999624,
      "d": 53.571374999999534,
      "v": 100
    },
    {
      "midi": 42,
      "hit": false,
      "t": 63210.65107499962,
      "d": 53.571374999999534,
      "v": 100
    },
    {
      "midi": 70,
      "hit": false,
      "t": 63210.65107499962,
      "d": 53.571374999999534,
      "v": 100
    },
    {
      "midi": 78,
      "hit": false,
      "t": 63210.65107499999,
      "d": 192.85695000000123,
      "v": 127
    },
    {
      "midi": 83,
      "hit": false,
      "t": 63210.65107499999,
      "d": 192.85695000000123,
      "v": 90
    },
    {
      "midi": 30,
      "hit": false,
      "t": 63210.65107499999,
      "d": 385.71390000000247,
      "v": 115
    },
    {
      "midi": 12,
      "hit": false,
      "t": 63424.93657499962,
      "d": 53.571374999999534,
      "v": 110
    },
    {
      "midi": 42,
      "hit": false,
      "t": 63424.93657499962,
      "d": 53.571374999999534,
      "v": 100
    },
    {
      "midi": 42,
      "hit": false,
      "t": 63424.936574999934,
      "d": 214.28549999999814,
      "v": 100
    },
    {
      "midi": 42,
      "hit": false,
      "t": 63424.93657499996,
      "d": 214.28549999999814,
      "v": 100
    },
    {
      "midi": 80,
      "hit": false,
      "t": 63424.936574999985,
      "d": 192.85695000000123,
      "v": 127
    },
    {
      "midi": 85,
      "hit": false,
      "t": 63424.936574999985,
      "d": 192.85695000000123,
      "v": 90
    },
    {
      "midi": 66,
      "hit": false,
      "t": 63424.93657500001,
      "d": 857.1419999999998,
      "v": 100
    },
    {
      "midi": 61,
      "hit": false,
      "t": 63424.93657500001,
      "d": 857.1419999999998,
      "v": 100
    },
    {
      "midi": 57,
      "hit": false,
      "t": 63424.93657500001,
      "d": 857.1419999999998,
      "v": 100
    },
    {
      "midi": 88,
      "hit": false,
      "t": 63424.936575000014,
      "d": 214.28549999999814,
      "v": 110
    },
    {
      "midi": 69,
      "hit": false,
      "t": 63424.936575000014,
      "d": 857.1419999999998,
      "v": 110
    },
    {
      "midi": 64,
      "hit": false,
      "t": 63424.936575000014,
      "d": 857.1419999999998,
      "v": 110
    },
    {
      "midi": 61,
      "hit": false,
      "t": 63424.936575000014,
      "d": 857.1419999999998,
      "v": 110
    },
    {
      "midi": 88,
      "hit": false,
      "t": 63424.93657500003,
      "d": 857.1419999999998,
      "v": 80
    },
    {
      "midi": 76,
      "hit": false,
      "t": 63424.93657500003,
      "d": 857.1419999999998,
      "v": 80
    },
    {
      "midi": 70,
      "hit": false,
      "t": 63639.22207499962,
      "d": 53.571374999999534,
      "v": 100
    },
    {
      "midi": 42,
      "hit": false,
      "t": 63639.22207499962,
      "d": 53.571374999999534,
      "v": 100
    },
    {
      "midi": 45,
      "hit": false,
      "t": 63639.22207499993,
      "d": 214.28549999999814,
      "v": 100
    },
    {
      "midi": 45,
      "hit": false,
      "t": 63639.22207499996,
      "d": 214.28549999999814,
      "v": 100
    },
    {
      "midi": 78,
      "hit": false,
      "t": 63639.22207499998,
      "d": 385.71390000000247,
      "v": 127
    },
    {
      "midi": 83,
      "hit": false,
      "t": 63639.22207499998,
      "d": 385.71390000000247,
      "v": 90
    },
    {
      "midi": 34,
      "hit": false,
      "t": 63639.22207499999,
      "d": 192.85695000000123,
      "v": 115
    },
    {
      "midi": 12,
      "hit": false,
      "t": 63853.50757499962,
      "d": 53.571374999999534,
      "v": 110
    },
    {
      "midi": 42,
      "hit": false,
      "t": 63853.50757499962,
      "d": 53.571374999999534,
      "v": 100
    },
    {
      "midi": 117,
      "hit": false,
      "t": 63853.50757499962,
      "d": 53.571374999999534,
      "v": 110
    },
    {
      "midi": 49,
      "hit": false,
      "t": 63853.50757499993,
      "d": 214.28549999999814,
      "v": 100
    },
    {
      "midi": 49,
      "hit": false,
      "t": 63853.50757499996,
      "d": 214.28549999999814,
      "v": 100
    },
    {
      "midi": 37,
      "hit": false,
      "t": 63853.50757499999,
      "d": 192.85695000000123,
      "v": 115
    },
    {
      "midi": 42,
      "hit": false,
      "t": 63960.65032499962,
      "d": 53.571374999999534,
      "v": 100
    },
    {
      "midi": 42,
      "hit": false,
      "t": 64067.793074999616,
      "d": 53.571374999999534,
      "v": 100
    },
    {
      "midi": 70,
      "hit": false,
      "t": 64067.793074999616,
      "d": 53.571374999999534,
      "v": 100
    },
    {
      "midi": 47,
      "hit": false,
      "t": 64067.79307499993,
      "d": 428.57100000000355,
      "v": 100
    },
    {
      "midi": 47,
      "hit": false,
      "t": 64067.79307499996,
      "d": 428.57100000000355,
      "v": 100
    },
    {
      "midi": 75,
      "hit": false,
      "t": 64067.79307499999,
      "d": 385.71390000000247,
      "v": 127
    },
    {
      "midi": 78,
      "hit": false,
      "t": 64067.79307499999,
      "d": 385.71390000000247,
      "v": 90
    },
    {
      "midi": 35,
      "hit": false,
      "t": 64067.79307499999,
      "d": 385.71390000000247,
      "v": 115
    },
    {
      "midi": 12,
      "hit": false,
      "t": 64282.078574999614,
      "d": 53.571374999999534,
      "v": 110
    },
    {
      "midi": 42,
      "hit": false,
      "t": 64282.078574999614,
      "d": 53.571374999999534,
      "v": 100
    },
    {
      "midi": 63,
      "hit": false,
      "t": 64282.07857500001,
      "d": 857.1419999999998,
      "v": 100
    },
    {
      "midi": 59,
      "hit": false,
      "t": 64282.07857500001,
      "d": 857.1419999999998,
      "v": 100
    },
    {
      "midi": 66,
      "hit": false,
      "t": 64282.07857500001,
      "d": 857.1419999999998,
      "v": 100
    },
    {
      "midi": 87,
      "hit": false,
      "t": 64282.078575000014,
      "d": 214.28549999999814,
      "v": 110
    },
    {
      "midi": 73,
      "hit": false,
      "t": 64282.078575000014,
      "d": 857.1419999999998,
      "v": 110
    },
    {
      "midi": 66,
      "hit": false,
      "t": 64282.078575000014,
      "d": 857.1419999999998,
      "v": 110
    },
    {
      "midi": 63,
      "hit": false,
      "t": 64282.078575000014,
      "d": 857.1419999999998,
      "v": 110
    },
    {
      "midi": 87,
      "hit": false,
      "t": 64282.07857500003,
      "d": 428.57100000000355,
      "v": 80
    },
    {
      "midi": 75,
      "hit": false,
      "t": 64282.07857500003,
      "d": 428.57100000000355,
      "v": 80
    },
    {
      "midi": 117,
      "hit": false,
      "t": 64389.22132499961,
      "d": 53.571374999999534,
      "v": 100
    },
    {
      "midi": 42,
      "hit": false,
      "t": 64496.36407499961,
      "d": 53.571374999999534,
      "v": 100
    },
    {
      "midi": 70,
      "hit": false,
      "t": 64496.36407499961,
      "d": 53.571374999999534,
      "v": 100
    },
    {
      "midi": 45,
      "hit": false,
      "t": 64496.36407499993,
      "d": 642.8565000000017,
      "v": 100
    },
    {
      "midi": 45,
      "hit": false,
      "t": 64496.36407499996,
      "d": 642.8565000000017,
      "v": 100
    },
    {
      "midi": 73,
      "hit": false,
      "t": 64496.36407499999,
      "d": 192.85695000000123,
      "v": 127
    },
    {
      "midi": 76,
      "hit": false,
      "t": 64496.36407499999,
      "d": 192.85695000000123,
      "v": 90
    },
    {
      "midi": 33,
      "hit": false,
      "t": 64496.36407499999,
      "d": 385.71390000000247,
      "v": 115
    },
    {
      "midi": 80,
      "hit": false,
      "t": 64496.36407499999,
      "d": 53.571374999999534,
      "v": 110
    },
    {
      "midi": 12,
      "hit": false,
      "t": 64710.64957499961,
      "d": 53.571374999999534,
      "v": 110
    },
    {
      "midi": 42,
      "hit": false,
      "t": 64710.64957499961,
      "d": 53.571374999999534,
      "v": 100
    },
    {
      "midi": 117,
      "hit": false,
      "t": 64710.64957499961,
      "d": 53.571374999999534,
      "v": 110
    },
    {
      "midi": 73,
      "hit": false,
      "t": 64710.64957499999,
      "d": 192.85695000000123,
      "v": 127
    },
    {
      "midi": 76,
      "hit": false,
      "t": 64710.64957499999,
      "d": 192.85695000000123,
      "v": 90
    },
    {
      "midi": 80,
      "hit": false,
      "t": 64710.64957499999,
      "d": 53.571374999999534,
      "v": 110
    },
    {
      "midi": 88,
      "hit": false,
      "t": 64710.64957500001,
      "d": 214.28549999999814,
      "v": 110
    },
    {
      "midi": 88,
      "hit": false,
      "t": 64710.64957500003,
      "d": 428.57100000000355,
      "v": 80
    },
    {
      "midi": 76,
      "hit": false,
      "t": 64710.64957500003,
      "d": 428.57100000000355,
      "v": 80
    },
    {
      "midi": 42,
      "hit": false,
      "t": 64817.79232499961,
      "d": 53.571374999999534,
      "v": 100
    },
    {
      "midi": 42,
      "hit": false,
      "t": 64924.93507499961,
      "d": 53.571374999999534,
      "v": 100
    },
    {
      "midi": 70,
      "hit": false,
      "t": 64924.93507499961,
      "d": 53.571374999999534,
      "v": 100
    },
    {
      "midi": 71,
      "hit": false,
      "t": 64924.93507499999,
      "d": 192.85695000000123,
      "v": 127
    },
    {
      "midi": 75,
      "hit": false,
      "t": 64924.93507499999,
      "d": 192.85695000000123,
      "v": 90
    },
    {
      "midi": 30,
      "hit": false,
      "t": 64924.935074999994,
      "d": 192.85695000000123,
      "v": 115
    },
    {
      "midi": 117,
      "hit": false,
      "t": 65032.07782499961,
      "d": 53.571374999999534,
      "v": 100
    },
    {
      "midi": 12,
      "hit": false,
      "t": 65139.22057499961,
      "d": 53.571374999999534,
      "v": 110
    },
    {
      "midi": 57,
      "hit": false,
      "t": 65139.22057499961,
      "d": 53.571374999999534,
      "v": 110
    },
    {
      "midi": 42,
      "hit": false,
      "t": 65139.22057499961,
      "d": 53.571374999999534,
      "v": 100
    },
    {
      "midi": 40,
      "hit": false,
      "t": 65139.220574999934,
      "d": 1678.5697500000024,
      "v": 100
    },
    {
      "midi": 40,
      "hit": false,
      "t": 65139.22057499996,
      "d": 1678.5697500000024,
      "v": 100
    },
    {
      "midi": 78,
      "hit": false,
      "t": 65139.220574999985,
      "d": 578.5708500000037,
      "v": 127
    },
    {
      "midi": 28,
      "hit": false,
      "t": 65139.22057499999,
      "d": 385.71390000000247,
      "v": 115
    },
    {
      "midi": 90,
      "hit": false,
      "t": 65139.22057500001,
      "d": 214.28549999999814,
      "v": 110
    },
    {
      "midi": 68,
      "hit": false,
      "t": 65139.22057500001,
      "d": 642.8565000000017,
      "v": 100
    },
    {
      "midi": 64,
      "hit": false,
      "t": 65139.22057500001,
      "d": 642.8565000000017,
      "v": 100
    },
    {
      "midi": 59,
      "hit": false,
      "t": 65139.22057500001,
      "d": 642.8565000000017,
      "v": 100
    },
    {
      "midi": 90,
      "hit": false,
      "t": 65139.220575000036,
      "d": 2785.7114999999976,
      "v": 80
    },
    {
      "midi": 78,
      "hit": false,
      "t": 65139.220575000036,
      "d": 2785.7114999999976,
      "v": 80
    },
    {
      "midi": 42,
      "hit": false,
      "t": 65353.506074999605,
      "d": 53.571374999999534,
      "v": 100
    },
    {
      "midi": 70,
      "hit": false,
      "t": 65353.506074999605,
      "d": 53.571374999999534,
      "v": 100
    },
    {
      "midi": 12,
      "hit": false,
      "t": 65567.7915749996,
      "d": 53.571374999999534,
      "v": 110
    },
    {
      "midi": 42,
      "hit": false,
      "t": 65567.7915749996,
      "d": 53.571374999999534,
      "v": 100
    },
    {
      "midi": 117,
      "hit": false,
      "t": 65567.7915749996,
      "d": 53.571374999999534,
      "v": 110
    },
    {
      "midi": 28,
      "hit": false,
      "t": 65567.791575,
      "d": 385.71390000000247,
      "v": 115
    },
    {
      "midi": 42,
      "hit": false,
      "t": 65674.9343249996,
      "d": 53.571374999999534,
      "v": 100
    },
    {
      "midi": 42,
      "hit": false,
      "t": 65782.0770749996,
      "d": 53.571374999999534,
      "v": 100
    },
    {
      "midi": 70,
      "hit": false,
      "t": 65782.0770749996,
      "d": 53.571374999999534,
      "v": 100
    },
    {
      "midi": 76,
      "hit": false,
      "t": 65782.077075,
      "d": 192.85695000000123,
      "v": 127
    },
    {
      "midi": 59,
      "hit": false,
      "t": 65782.07707500001,
      "d": 107.14274999999907,
      "v": 100
    },
    {
      "midi": 64,
      "hit": false,
      "t": 65782.07707500001,
      "d": 107.14274999999907,
      "v": 100
    },
    {
      "midi": 68,
      "hit": false,
      "t": 65782.07707500001,
      "d": 107.14274999999907,
      "v": 100
    },
    {
      "midi": 12,
      "hit": false,
      "t": 65996.3625749996,
      "d": 53.571374999999534,
      "v": 110
    },
    {
      "midi": 42,
      "hit": false,
      "t": 65996.3625749996,
      "d": 53.571374999999534,
      "v": 100
    },
    {
      "midi": 75,
      "hit": false,
      "t": 65996.36257499999,
      "d": 385.71390000000247,
      "v": 127
    },
    {
      "midi": 28,
      "hit": false,
      "t": 65996.36257499999,
      "d": 192.85695000000123,
      "v": 115
    },
    {
      "midi": 42,
      "hit": false,
      "t": 66210.6480749996,
      "d": 53.571374999999534,
      "v": 100
    },
    {
      "midi": 70,
      "hit": false,
      "t": 66210.6480749996,
      "d": 53.571374999999534,
      "v": 100
    },
    {
      "midi": 39,
      "hit": false,
      "t": 66210.64807499999,
      "d": 192.85695000000123,
      "v": 115
    },
    {
      "midi": 59,
      "hit": false,
      "t": 66210.648075,
      "d": 642.8564999999944,
      "v": 100
    },
    {
      "midi": 64,
      "hit": false,
      "t": 66210.648075,
      "d": 642.8564999999944,
      "v": 100
    },
    {
      "midi": 68,
      "hit": false,
      "t": 66210.648075,
      "d": 642.8564999999944,
      "v": 100
    },
    {
      "midi": 12,
      "hit": false,
      "t": 66424.9335749996,
      "d": 53.571374999999534,
      "v": 110
    },
    {
      "midi": 42,
      "hit": false,
      "t": 66424.9335749996,
      "d": 53.571374999999534,
      "v": 100
    },
    {
      "midi": 117,
      "hit": false,
      "t": 66424.9335749996,
      "d": 53.571374999999534,
      "v": 110
    },
    {
      "midi": 76,
      "hit": false,
      "t": 66424.93357499999,
      "d": 192.85695000000123,
      "v": 127
    },
    {
      "midi": 40,
      "hit": false,
      "t": 66424.93357499999,
      "d": 385.71390000000247,
      "v": 115
    },
    {
      "midi": 42,
      "hit": false,
      "t": 66532.0763249996,
      "d": 53.571374999999534,
      "v": 100
    },
    {
      "midi": 42,
      "hit": false,
      "t": 66639.2190749996,
      "d": 53.571374999999534,
      "v": 100
    },
    {
      "midi": 70,
      "hit": false,
      "t": 66639.2190749996,
      "d": 53.571374999999534,
      "v": 100
    },
    {
      "midi": 76,
      "hit": false,
      "t": 66639.21907499999,
      "d": 192.85695000000123,
      "v": 127
    },
    {
      "midi": 12,
      "hit": false,
      "t": 66853.50457499959,
      "d": 53.571374999999534,
      "v": 110
    },
    {
      "midi": 42,
      "hit": false,
      "t": 66853.50457499959,
      "d": 53.571374999999534,
      "v": 100
    },
    {
      "midi": 39,
      "hit": false,
      "t": 66853.50457499994,
      "d": 628.5708000000013,
      "v": 100
    },
    {
      "midi": 39,
      "hit": false,
      "t": 66853.50457499997,
      "d": 628.5708000000013,
      "v": 100
    },
    {
      "midi": 78,
      "hit": false,
      "t": 66853.50457499998,
      "d": 192.85695000000123,
      "v": 127
    },
    {
      "midi": 39,
      "hit": false,
      "t": 66853.50457499998,
      "d": 385.71390000000247,
      "v": 115
    },
    {
      "midi": 63,
      "hit": false,
      "t": 66853.504575,
      "d": 428.5709999999963,
      "v": 100
    },
    {
      "midi": 58,
      "hit": false,
      "t": 66853.504575,
      "d": 428.5709999999963,
      "v": 100
    },
    {
      "midi": 66,
      "hit": false,
      "t": 66853.504575,
      "d": 428.5709999999963,
      "v": 100
    },
    {
      "midi": 70,
      "hit": false,
      "t": 67067.79007499959,
      "d": 53.571374999999534,
      "v": 100
    },
    {
      "midi": 42,
      "hit": false,
      "t": 67067.79007499959,
      "d": 53.571374999999534,
      "v": 100
    },
    {
      "midi": 73,
      "hit": false,
      "t": 67067.79007499998,
      "d": 192.85695000000123,
      "v": 127
    },
    {
      "midi": 12,
      "hit": false,
      "t": 67282.07557499959,
      "d": 53.571374999999534,
      "v": 110
    },
    {
      "midi": 42,
      "hit": false,
      "t": 67282.07557499959,
      "d": 53.571374999999534,
      "v": 100
    },
    {
      "midi": 117,
      "hit": false,
      "t": 67282.07557499959,
      "d": 53.571374999999534,
      "v": 110
    },
    {
      "midi": 75,
      "hit": false,
      "t": 67282.07557499998,
      "d": 192.85695000000123,
      "v": 127
    },
    {
      "midi": 30,
      "hit": false,
      "t": 67282.07557499998,
      "d": 192.85695000000123,
      "v": 115
    },
    {
      "midi": 42,
      "hit": false,
      "t": 67389.21832499959,
      "d": 53.571374999999534,
      "v": 100
    },
    {
      "midi": 42,
      "hit": false,
      "t": 67496.36107499959,
      "d": 53.571374999999534,
      "v": 100
    },
    {
      "midi": 70,
      "hit": false,
      "t": 67496.36107499959,
      "d": 53.571374999999534,
      "v": 100
    },
    {
      "midi": 44,
      "hit": false,
      "t": 67496.36107499994,
      "d": 1049.9989499999938,
      "v": 100
    },
    {
      "midi": 44,
      "hit": false,
      "t": 67496.36107499996,
      "d": 1049.9989499999938,
      "v": 100
    },
    {
      "midi": 71,
      "hit": false,
      "t": 67496.36107499998,
      "d": 192.85695000000123,
      "v": 127
    },
    {
      "midi": 32,
      "hit": false,
      "t": 67496.36107499998,
      "d": 385.71390000000247,
      "v": 115
    },
    {
      "midi": 63,
      "hit": false,
      "t": 67496.361075,
      "d": 428.5709999999963,
      "v": 100
    },
    {
      "midi": 59,
      "hit": false,
      "t": 67496.361075,
      "d": 428.5709999999963,
      "v": 100
    },
    {
      "midi": 56,
      "hit": false,
      "t": 67496.361075,
      "d": 428.5709999999963,
      "v": 100
    },
    {
      "midi": 12,
      "hit": false,
      "t": 67710.64657499958,
      "d": 53.571374999999534,
      "v": 110
    },
    {
      "midi": 42,
      "hit": false,
      "t": 67710.64657499958,
      "d": 53.571374999999534,
      "v": 100
    },
    {
      "midi": 42,
      "hit": false,
      "t": 67924.93207499958,
      "d": 53.571374999999534,
      "v": 100
    },
    {
      "midi": 70,
      "hit": false,
      "t": 67924.93207499958,
      "d": 53.571374999999534,
      "v": 100
    },
    {
      "midi": 30,
      "hit": false,
      "t": 67924.93207499998,
      "d": 192.85695000000123,
      "v": 115
    },
    {
      "midi": 63,
      "hit": false,
      "t": 67924.93207499999,
      "d": 107.14274999999907,
      "v": 100
    },
    {
      "midi": 59,
      "hit": false,
      "t": 67924.93207499999,
      "d": 107.14274999999907,
      "v": 100
    },
    {
      "midi": 56,
      "hit": false,
      "t": 67924.93207499999,
      "d": 107.14274999999907,
      "v": 100
    },
    {
      "midi": 88,
      "hit": false,
      "t": 67924.932075,
      "d": 214.28549999999814,
      "v": 110
    },
    {
      "midi": 88,
      "hit": false,
      "t": 67924.93207500003,
      "d": 214.28549999999814,
      "v": 80
    },
    {
      "midi": 76,
      "hit": false,
      "t": 67924.93207500003,
      "d": 214.28549999999814,
      "v": 80
    },
    {
      "midi": 12,
      "hit": false,
      "t": 68139.21757499958,
      "d": 53.571374999999534,
      "v": 110
    },
    {
      "midi": 42,
      "hit": false,
      "t": 68139.21757499958,
      "d": 53.571374999999534,
      "v": 100
    },
    {
      "midi": 117,
      "hit": false,
      "t": 68139.21757499958,
      "d": 53.571374999999534,
      "v": 110
    },
    {
      "midi": 32,
      "hit": false,
      "t": 68139.21757499997,
      "d": 192.85695000000123,
      "v": 115
    },
    {
      "midi": 87,
      "hit": false,
      "t": 68139.217575,
      "d": 214.28549999999814,
      "v": 110
    },
    {
      "midi": 87,
      "hit": false,
      "t": 68139.21757500003,
      "d": 214.28549999999814,
      "v": 80
    },
    {
      "midi": 75,
      "hit": false,
      "t": 68139.21757500003,
      "d": 214.28549999999814,
      "v": 80
    },
    {
      "midi": 42,
      "hit": false,
      "t": 68246.36032499958,
      "d": 53.571374999999534,
      "v": 100
    },
    {
      "midi": 42,
      "hit": false,
      "t": 68353.50307499958,
      "d": 53.571374999999534,
      "v": 100
    },
    {
      "midi": 70,
      "hit": false,
      "t": 68353.50307499958,
      "d": 53.571374999999534,
      "v": 100
    },
    {
      "midi": 35,
      "hit": false,
      "t": 68353.50307499997,
      "d": 192.85695000000123,
      "v": 115
    },
    {
      "midi": 68,
      "hit": false,
      "t": 68353.50307499999,
      "d": 192.85695000000123,
      "v": 127
    },
    {
      "midi": 63,
      "hit": false,
      "t": 68353.50307499999,
      "d": 214.28549999999814,
      "v": 100
    },
    {
      "midi": 59,
      "hit": false,
      "t": 68353.50307499999,
      "d": 214.28549999999814,
      "v": 100
    },
    {
      "midi": 56,
      "hit": false,
      "t": 68353.50307499999,
      "d": 214.28549999999814,
      "v": 100
    },
    {
      "midi": 85,
      "hit": false,
      "t": 68353.503075,
      "d": 214.28549999999814,
      "v": 110
    },
    {
      "midi": 85,
      "hit": false,
      "t": 68353.50307500003,
      "d": 214.28549999999814,
      "v": 80
    },
    {
      "midi": 73,
      "hit": false,
      "t": 68353.50307500003,
      "d": 214.28549999999814,
      "v": 80
    },
    {
      "midi": 12,
      "hit": false,
      "t": 68567.78857499958,
      "d": 53.571374999999534,
      "v": 110
    },
    {
      "midi": 42,
      "hit": false,
      "t": 68567.78857499958,
      "d": 53.571374999999534,
      "v": 100
    },
    {
      "midi": 49,
      "hit": false,
      "t": 68567.78857499993,
      "d": 1471.4271000000008,
      "v": 100
    },
    {
      "midi": 49,
      "hit": false,
      "t": 68567.78857499996,
      "d": 1471.4271000000008,
      "v": 100
    },
    {
      "midi": 37,
      "hit": false,
      "t": 68567.78857499997,
      "d": 385.71390000000247,
      "v": 115
    },
    {
      "midi": 71,
      "hit": false,
      "t": 68567.78857499998,
      "d": 385.71390000000247,
      "v": 127
    },
    {
      "midi": 64,
      "hit": false,
      "t": 68567.78857499998,
      "d": 1499.9985000000015,
      "v": 100
    },
    {
      "midi": 59,
      "hit": false,
      "t": 68567.78857499998,
      "d": 1499.9985000000015,
      "v": 100
    },
    {
      "midi": 56,
      "hit": false,
      "t": 68567.78857499998,
      "d": 1499.9985000000015,
      "v": 100
    },
    {
      "midi": 83,
      "hit": false,
      "t": 68567.788575,
      "d": 214.28549999999814,
      "v": 110
    },
    {
      "midi": 83,
      "hit": false,
      "t": 68567.78857500003,
      "d": 1499.9985000000015,
      "v": 80
    },
    {
      "midi": 71,
      "hit": false,
      "t": 68567.78857500003,
      "d": 1499.9985000000015,
      "v": 80
    },
    {
      "midi": 42,
      "hit": false,
      "t": 68782.07407499957,
      "d": 53.571374999999534,
      "v": 100
    },
    {
      "midi": 70,
      "hit": false,
      "t": 68782.07407499957,
      "d": 53.571374999999534,
      "v": 100
    },
    {
      "midi": 12,
      "hit": false,
      "t": 68996.35957499957,
      "d": 53.571374999999534,
      "v": 110
    },
    {
      "midi": 42,
      "hit": false,
      "t": 68996.35957499957,
      "d": 53.571374999999534,
      "v": 100
    },
    {
      "midi": 117,
      "hit": false,
      "t": 68996.35957499957,
      "d": 53.571374999999534,
      "v": 110
    },
    {
      "midi": 37,
      "hit": false,
      "t": 68996.35957499997,
      "d": 289.2854249999946,
      "v": 115
    },
    {
      "midi": 71,
      "hit": false,
      "t": 68996.35957499998,
      "d": 385.71390000000247,
      "v": 127
    },
    {
      "midi": 42,
      "hit": false,
      "t": 69103.50232499957,
      "d": 53.571374999999534,
      "v": 100
    },
    {
      "midi": 42,
      "hit": false,
      "t": 69210.64507499957,
      "d": 53.571374999999534,
      "v": 100
    },
    {
      "midi": 70,
      "hit": false,
      "t": 69210.64507499957,
      "d": 53.571374999999534,
      "v": 100
    },
    {
      "midi": 32,
      "hit": false,
      "t": 69317.78782499996,
      "d": 96.42847499999334,
      "v": 115
    },
    {
      "midi": 12,
      "hit": false,
      "t": 69424.93057499957,
      "d": 53.571374999999534,
      "v": 110
    },
    {
      "midi": 42,
      "hit": false,
      "t": 69424.93057499957,
      "d": 53.571374999999534,
      "v": 100
    },
    {
      "midi": 35,
      "hit": false,
      "t": 69424.93057499996,
      "d": 192.85695000000123,
      "v": 115
    },
    {
      "midi": 71,
      "hit": false,
      "t": 69424.93057499998,
      "d": 192.85695000000123,
      "v": 127
    },
    {
      "midi": 42,
      "hit": false,
      "t": 69639.21607499957,
      "d": 53.571374999999534,
      "v": 100
    },
    {
      "midi": 70,
      "hit": false,
      "t": 69639.21607499957,
      "d": 53.571374999999534,
      "v": 100
    },
    {
      "midi": 37,
      "hit": false,
      "t": 69639.21607499996,
      "d": 192.85695000000123,
      "v": 115
    },
    {
      "midi": 71,
      "hit": false,
      "t": 69639.21607499997,
      "d": 192.85695000000123,
      "v": 127
    },
    {
      "midi": 12,
      "hit": false,
      "t": 69853.50157499957,
      "d": 53.571374999999534,
      "v": 110
    },
    {
      "midi": 42,
      "hit": false,
      "t": 69853.50157499957,
      "d": 53.571374999999534,
      "v": 100
    },
    {
      "midi": 117,
      "hit": false,
      "t": 69853.50157499957,
      "d": 53.571374999999534,
      "v": 110
    },
    {
      "midi": 32,
      "hit": false,
      "t": 69853.50157499996,
      "d": 192.85695000000123,
      "v": 115
    },
    {
      "midi": 73,
      "hit": false,
      "t": 69853.50157499997,
      "d": 192.85695000000123,
      "v": 127
    },
    {
      "midi": 42,
      "hit": false,
      "t": 69960.64432499956,
      "d": 53.571374999999534,
      "v": 100
    },
    {
      "midi": 42,
      "hit": false,
      "t": 70067.78707499956,
      "d": 53.571374999999534,
      "v": 100
    },
    {
      "midi": 70,
      "hit": false,
      "t": 70067.78707499956,
      "d": 53.571374999999534,
      "v": 100
    },
    {
      "midi": 42,
      "hit": false,
      "t": 70067.78707499993,
      "d": 839.2848749999976,
      "v": 100
    },
    {
      "midi": 42,
      "hit": false,
      "t": 70067.78707499996,
      "d": 839.2848749999976,
      "v": 100
    },
    {
      "midi": 30,
      "hit": false,
      "t": 70067.78707499996,
      "d": 385.71390000000247,
      "v": 115
    },
    {
      "midi": 75,
      "hit": false,
      "t": 70067.78707499997,
      "d": 385.71390000000247,
      "v": 127
    },
    {
      "midi": 64,
      "hit": false,
      "t": 70067.78707499999,
      "d": 857.1420000000071,
      "v": 100
    },
    {
      "midi": 59,
      "hit": false,
      "t": 70067.78707499999,
      "d": 857.1420000000071,
      "v": 100
    },
    {
      "midi": 56,
      "hit": false,
      "t": 70067.78707499999,
      "d": 857.1420000000071,
      "v": 100
    },
    {
      "midi": 83,
      "hit": false,
      "t": 70067.787075,
      "d": 214.28549999999814,
      "v": 110
    },
    {
      "midi": 83,
      "hit": false,
      "t": 70067.78707500003,
      "d": 428.5709999999963,
      "v": 80
    },
    {
      "midi": 71,
      "hit": false,
      "t": 70067.78707500003,
      "d": 428.5709999999963,
      "v": 80
    },
    {
      "midi": 12,
      "hit": false,
      "t": 70282.07257499956,
      "d": 53.571374999999534,
      "v": 110
    },
    {
      "midi": 42,
      "hit": false,
      "t": 70282.07257499956,
      "d": 53.571374999999534,
      "v": 100
    },
    {
      "midi": 70,
      "hit": false,
      "t": 70496.35807499956,
      "d": 53.571374999999534,
      "v": 100
    },
    {
      "midi": 42,
      "hit": false,
      "t": 70496.35807499956,
      "d": 53.571374999999534,
      "v": 100
    },
    {
      "midi": 30,
      "hit": false,
      "t": 70496.35807499995,
      "d": 96.42847499999334,
      "v": 115
    },
    {
      "midi": 73,
      "hit": false,
      "t": 70496.35807499997,
      "d": 385.71390000000247,
      "v": 127
    },
    {
      "midi": 82,
      "hit": false,
      "t": 70496.358075,
      "d": 214.28549999999814,
      "v": 110
    },
    {
      "midi": 82,
      "hit": false,
      "t": 70496.35807500003,
      "d": 214.28549999999814,
      "v": 80
    },
    {
      "midi": 70,
      "hit": false,
      "t": 70496.35807500003,
      "d": 214.28549999999814,
      "v": 80
    },
    {
      "midi": 12,
      "hit": false,
      "t": 70710.64357499956,
      "d": 53.571374999999534,
      "v": 110
    },
    {
      "midi": 42,
      "hit": false,
      "t": 70710.64357499956,
      "d": 53.571374999999534,
      "v": 100
    },
    {
      "midi": 117,
      "hit": false,
      "t": 70710.64357499956,
      "d": 53.571374999999534,
      "v": 110
    },
    {
      "midi": 30,
      "hit": false,
      "t": 70710.64357499995,
      "d": 192.85695000000123,
      "v": 115
    },
    {
      "midi": 83,
      "hit": false,
      "t": 70710.643575,
      "d": 214.28549999999814,
      "v": 110
    },
    {
      "midi": 83,
      "hit": false,
      "t": 70710.64357500002,
      "d": 214.28549999999814,
      "v": 80
    },
    {
      "midi": 71,
      "hit": false,
      "t": 70710.64357500002,
      "d": 214.28549999999814,
      "v": 80
    },
    {
      "midi": 42,
      "hit": false,
      "t": 70817.78632499956,
      "d": 53.571374999999534,
      "v": 100
    },
    {
      "midi": 42,
      "hit": false,
      "t": 70924.92907499956,
      "d": 53.571374999999534,
      "v": 100
    },
    {
      "midi": 70,
      "hit": false,
      "t": 70924.92907499956,
      "d": 53.571374999999534,
      "v": 100
    },
    {
      "midi": 42,
      "hit": false,
      "t": 70924.92907499992,
      "d": 1049.9989499999938,
      "v": 100
    },
    {
      "midi": 42,
      "hit": false,
      "t": 70924.92907499995,
      "d": 1049.9989499999938,
      "v": 100
    },
    {
      "midi": 30,
      "hit": false,
      "t": 70924.92907499995,
      "d": 385.71390000000247,
      "v": 115
    },
    {
      "midi": 76,
      "hit": false,
      "t": 70924.92907499996,
      "d": 385.71390000000247,
      "v": 127
    },
    {
      "midi": 85,
      "hit": false,
      "t": 70924.929075,
      "d": 214.28549999999814,
      "v": 110
    },
    {
      "midi": 66,
      "hit": false,
      "t": 70924.929075,
      "d": 1071.4275000000052,
      "v": 100
    },
    {
      "midi": 61,
      "hit": false,
      "t": 70924.929075,
      "d": 1071.4275000000052,
      "v": 100
    },
    {
      "midi": 58,
      "hit": false,
      "t": 70924.929075,
      "d": 1071.4275000000052,
      "v": 100
    },
    {
      "midi": 85,
      "hit": false,
      "t": 70924.92907500002,
      "d": 749.9992499999935,
      "v": 80
    },
    {
      "midi": 73,
      "hit": false,
      "t": 70924.92907500002,
      "d": 749.9992499999935,
      "v": 80
    },
    {
      "midi": 117,
      "hit": false,
      "t": 71032.07182499956,
      "d": 53.571374999999534,
      "v": 100
    },
    {
      "midi": 12,
      "hit": false,
      "t": 71139.21457499955,
      "d": 53.571374999999534,
      "v": 110
    },
    {
      "midi": 42,
      "hit": false,
      "t": 71139.21457499955,
      "d": 53.571374999999534,
      "v": 100
    },
    {
      "midi": 117,
      "hit": false,
      "t": 71246.35732499955,
      "d": 53.571374999999534,
      "v": 66
    },
    {
      "midi": 30,
      "hit": false,
      "t": 71353.50007499955,
      "d": 35.71425000000454,
      "v": 100
    },
    {
      "midi": 70,
      "hit": false,
      "t": 71353.50007499955,
      "d": 53.571374999999534,
      "v": 100
    },
    {
      "midi": 42,
      "hit": false,
      "t": 71353.50007499955,
      "d": 53.571374999999534,
      "v": 100
    },
    {
      "midi": 117,
      "hit": false,
      "t": 71353.50007499955,
      "d": 53.571374999999534,
      "v": 71
    },
    {
      "midi": 30,
      "hit": false,
      "t": 71353.50007499995,
      "d": 192.85695000000123,
      "v": 115
    },
    {
      "midi": 75,
      "hit": false,
      "t": 71353.50007499996,
      "d": 385.71390000000247,
      "v": 127
    },
    {
      "midi": 30,
      "hit": false,
      "t": 71460.64282499955,
      "d": 35.71425000000454,
      "v": 100
    },
    {
      "midi": 117,
      "hit": false,
      "t": 71460.64282499955,
      "d": 53.571374999999534,
      "v": 77
    },
    {
      "midi": 12,
      "hit": false,
      "t": 71567.78557499955,
      "d": 53.571374999999534,
      "v": 110
    },
    {
      "midi": 42,
      "hit": false,
      "t": 71567.78557499955,
      "d": 53.571374999999534,
      "v": 100
    },
    {
      "midi": 32,
      "hit": false,
      "t": 71567.78557499994,
      "d": 96.42847499999334,
      "v": 115
    },
    {
      "midi": 80,
      "hit": false,
      "t": 71567.78557499999,
      "d": 53.571374999999534,
      "v": 110
    },
    {
      "midi": 117,
      "hit": false,
      "t": 71674.92832499955,
      "d": 53.571374999999534,
      "v": 87
    },
    {
      "midi": 42,
      "hit": false,
      "t": 71674.92832499955,
      "d": 53.571374999999534,
      "v": 100
    },
    {
      "midi": 30,
      "hit": false,
      "t": 71674.92832499994,
      "d": 96.42847499999334,
      "v": 115
    },
    {
      "midi": 82,
      "hit": false,
      "t": 71674.92832499999,
      "d": 107.14274999999907,
      "v": 110
    },
    {
      "midi": 82,
      "hit": false,
      "t": 71674.92832500002,
      "d": 107.14274999999907,
      "v": 80
    },
    {
      "midi": 70,
      "hit": false,
      "t": 71674.92832500002,
      "d": 107.14274999999907,
      "v": 80
    },
    {
      "midi": 117,
      "hit": false,
      "t": 71782.07107499955,
      "d": 53.571374999999534,
      "v": 92
    },
    {
      "midi": 42,
      "hit": false,
      "t": 71782.07107499955,
      "d": 53.571374999999534,
      "v": 100
    },
    {
      "midi": 70,
      "hit": false,
      "t": 71782.07107499955,
      "d": 53.571374999999534,
      "v": 100
    },
    {
      "midi": 32,
      "hit": false,
      "t": 71782.07107499994,
      "d": 96.42847499999334,
      "v": 115
    },
    {
      "midi": 83,
      "hit": false,
      "t": 71782.07107499999,
      "d": 107.14274999999907,
      "v": 110
    },
    {
      "midi": 83,
      "hit": false,
      "t": 71782.07107500001,
      "d": 107.14274999999907,
      "v": 80
    },
    {
      "midi": 71,
      "hit": false,
      "t": 71782.07107500001,
      "d": 107.14274999999907,
      "v": 80
    },
    {
      "midi": 117,
      "hit": false,
      "t": 71889.21382499955,
      "d": 53.571374999999534,
      "v": 98
    },
    {
      "midi": 34,
      "hit": false,
      "t": 71889.21382499994,
      "d": 96.42847499999334,
      "v": 115
    },
    {
      "midi": 85,
      "hit": false,
      "t": 71889.21382499998,
      "d": 107.14274999999907,
      "v": 110
    },
    {
      "midi": 85,
      "hit": false,
      "t": 71889.21382500001,
      "d": 107.14274999999907,
      "v": 80
    },
    {
      "midi": 73,
      "hit": false,
      "t": 71889.21382500001,
      "d": 107.14274999999907,
      "v": 80
    },
    {
      "midi": 12,
      "hit": false,
      "t": 71996.35657499955,
      "d": 53.571374999999534,
      "v": 110
    },
    {
      "midi": 57,
      "hit": false,
      "t": 71996.35657499955,
      "d": 53.571374999999534,
      "v": 110
    },
    {
      "midi": 42,
      "hit": false,
      "t": 71996.35657499955,
      "d": 53.571374999999534,
      "v": 100
    },
    {
      "midi": 47,
      "hit": false,
      "t": 71996.35657499991,
      "d": 1714.2839999999997,
      "v": 100
    },
    {
      "midi": 47,
      "hit": false,
      "t": 71996.35657499994,
      "d": 1714.2839999999997,
      "v": 100
    },
    {
      "midi": 35,
      "hit": false,
      "t": 71996.35657499994,
      "d": 385.71390000000247,
      "v": 115
    },
    {
      "midi": 83,
      "hit": false,
      "t": 71996.35657499997,
      "d": 192.85695000000123,
      "v": 90
    },
    {
      "midi": 78,
      "hit": false,
      "t": 71996.35657499997,
      "d": 192.85695000000123,
      "v": 127
    },
    {
      "midi": 87,
      "hit": false,
      "t": 71996.35657499998,
      "d": 214.28549999999814,
      "v": 110
    },
    {
      "midi": 66,
      "hit": false,
      "t": 71996.356575,
      "d": 857.1420000000071,
      "v": 100
    },
    {
      "midi": 54,
      "hit": false,
      "t": 71996.356575,
      "d": 857.1420000000071,
      "v": 100
    },
    {
      "midi": 59,
      "hit": false,
      "t": 71996.356575,
      "d": 857.1420000000071,
      "v": 100
    },
    {
      "midi": 63,
      "hit": false,
      "t": 71996.356575,
      "d": 857.1420000000071,
      "v": 100
    },
    {
      "midi": 87,
      "hit": false,
      "t": 71996.35657500001,
      "d": 1714.2839999999997,
      "v": 80
    },
    {
      "midi": 75,
      "hit": false,
      "t": 71996.35657500001,
      "d": 1714.2839999999997,
      "v": 80
    },
    {
      "midi": 71,
      "hit": false,
      "t": 71996.35657500001,
      "d": 1714.2839999999997,
      "v": 110
    },
    {
      "midi": 66,
      "hit": false,
      "t": 71996.35657500001,
      "d": 1714.2839999999997,
      "v": 110
    },
    {
      "midi": 63,
      "hit": false,
      "t": 71996.35657500001,
      "d": 1714.2839999999997,
      "v": 110
    },
    {
      "midi": 42,
      "hit": false,
      "t": 72210.64207499955,
      "d": 53.571374999999534,
      "v": 100
    },
    {
      "midi": 70,
      "hit": false,
      "t": 72210.64207499955,
      "d": 53.571374999999534,
      "v": 100
    },
    {
      "midi": 78,
      "hit": false,
      "t": 72210.64207499997,
      "d": 192.85695000000123,
      "v": 127
    },
    {
      "midi": 83,
      "hit": false,
      "t": 72210.64207499997,
      "d": 192.85695000000123,
      "v": 90
    },
    {
      "midi": 12,
      "hit": false,
      "t": 72424.92757499954,
      "d": 53.571374999999534,
      "v": 110
    },
    {
      "midi": 42,
      "hit": false,
      "t": 72424.92757499954,
      "d": 53.571374999999534,
      "v": 100
    },
    {
      "midi": 117,
      "hit": false,
      "t": 72424.92757499954,
      "d": 53.571374999999534,
      "v": 110
    },
    {
      "midi": 35,
      "hit": false,
      "t": 72424.92757499994,
      "d": 192.85695000000123,
      "v": 115
    },
    {
      "midi": 80,
      "hit": false,
      "t": 72424.92757499997,
      "d": 192.85695000000123,
      "v": 127
    },
    {
      "midi": 85,
      "hit": false,
      "t": 72424.92757499997,
      "d": 192.85695000000123,
      "v": 90
    },
    {
      "midi": 42,
      "hit": false,
      "t": 72532.07032499954,
      "d": 53.571374999999534,
      "v": 100
    },
    {
      "midi": 42,
      "hit": false,
      "t": 72639.21307499954,
      "d": 53.571374999999534,
      "v": 100
    },
    {
      "midi": 70,
      "hit": false,
      "t": 72639.21307499954,
      "d": 53.571374999999534,
      "v": 100
    },
    {
      "midi": 30,
      "hit": false,
      "t": 72639.21307499993,
      "d": 192.85695000000123,
      "v": 115
    },
    {
      "midi": 12,
      "hit": false,
      "t": 72853.49857499954,
      "d": 53.571374999999534,
      "v": 110
    },
    {
      "midi": 42,
      "hit": false,
      "t": 72853.49857499954,
      "d": 53.571374999999534,
      "v": 100
    },
    {
      "midi": 32,
      "hit": false,
      "t": 72853.49857499993,
      "d": 192.85695000000123,
      "v": 115
    },
    {
      "midi": 83,
      "hit": false,
      "t": 72853.49857499996,
      "d": 192.85695000000123,
      "v": 127
    },
    {
      "midi": 87,
      "hit": false,
      "t": 72853.49857499996,
      "d": 192.85695000000123,
      "v": 90
    },
    {
      "midi": 42,
      "hit": false,
      "t": 73067.78407499954,
      "d": 53.571374999999534,
      "v": 100
    },
    {
      "midi": 70,
      "hit": false,
      "t": 73067.78407499954,
      "d": 53.571374999999534,
      "v": 100
    },
    {
      "midi": 35,
      "hit": false,
      "t": 73067.78407499993,
      "d": 385.71390000000247,
      "v": 115
    },
    {
      "midi": 12,
      "hit": false,
      "t": 73282.06957499954,
      "d": 53.571374999999534,
      "v": 110
    },
    {
      "midi": 42,
      "hit": false,
      "t": 73282.06957499954,
      "d": 53.571374999999534,
      "v": 100
    },
    {
      "midi": 117,
      "hit": false,
      "t": 73282.06957499954,
      "d": 53.571374999999534,
      "v": 110
    },
    {
      "midi": 78,
      "hit": false,
      "t": 73282.06957499996,
      "d": 192.85695000000123,
      "v": 127
    },
    {
      "midi": 83,
      "hit": false,
      "t": 73282.06957499996,
      "d": 192.85695000000123,
      "v": 90
    },
    {
      "midi": 42,
      "hit": false,
      "t": 73389.21232499953,
      "d": 53.571374999999534,
      "v": 100
    },
    {
      "midi": 42,
      "hit": false,
      "t": 73496.35507499953,
      "d": 53.571374999999534,
      "v": 100
    },
    {
      "midi": 70,
      "hit": false,
      "t": 73496.35507499953,
      "d": 53.571374999999534,
      "v": 100
    },
    {
      "midi": 34,
      "hit": false,
      "t": 73496.35507499993,
      "d": 385.71390000000247,
      "v": 115
    },
    {
      "midi": 83,
      "hit": false,
      "t": 73496.35507499996,
      "d": 192.85695000000123,
      "v": 90
    },
    {
      "midi": 78,
      "hit": false,
      "t": 73496.35507499996,
      "d": 192.85695000000123,
      "v": 127
    },
    {
      "midi": 12,
      "hit": false,
      "t": 73710.64057499953,
      "d": 53.571374999999534,
      "v": 110
    },
    {
      "midi": 42,
      "hit": false,
      "t": 73710.64057499953,
      "d": 53.571374999999534,
      "v": 100
    },
    {
      "midi": 46,
      "hit": false,
      "t": 73710.64057499991,
      "d": 1714.2839999999997,
      "v": 100
    },
    {
      "midi": 46,
      "hit": false,
      "t": 73710.64057499994,
      "d": 1714.2839999999997,
      "v": 100
    },
    {
      "midi": 80,
      "hit": false,
      "t": 73710.64057499995,
      "d": 192.85695000000123,
      "v": 127
    },
    {
      "midi": 85,
      "hit": false,
      "t": 73710.64057499995,
      "d": 192.85695000000123,
      "v": 90
    },
    {
      "midi": 85,
      "hit": false,
      "t": 73710.64057499998,
      "d": 214.28549999999814,
      "v": 110
    },
    {
      "midi": 85,
      "hit": false,
      "t": 73710.64057500001,
      "d": 857.1420000000071,
      "v": 80
    },
    {
      "midi": 73,
      "hit": false,
      "t": 73710.64057500001,
      "d": 857.1420000000071,
      "v": 80
    },
    {
      "midi": 70,
      "hit": false,
      "t": 73710.64057500001,
      "d": 857.1420000000071,
      "v": 110
    },
    {
      "midi": 66,
      "hit": false,
      "t": 73710.64057500001,
      "d": 857.1420000000071,
      "v": 110
    },
    {
      "midi": 61,
      "hit": false,
      "t": 73710.64057500001,
      "d": 857.1420000000071,
      "v": 110
    },
    {
      "midi": 58,
      "hit": false,
      "t": 73710.64057500001,
      "d": 857.1420000000071,
      "v": 100
    },
    {
      "midi": 61,
      "hit": false,
      "t": 73710.64057500001,
      "d": 857.1420000000071,
      "v": 100
    },
    {
      "midi": 66,
      "hit": false,
      "t": 73710.64057500001,
      "d": 1714.2840000000142,
      "v": 100
    },
    {
      "midi": 54,
      "hit": false,
      "t": 73710.64057500001,
      "d": 1714.2840000000142,
      "v": 100
    },
    {
      "midi": 70,
      "hit": false,
      "t": 73924.92607499953,
      "d": 53.571374999999534,
      "v": 100
    },
    {
      "midi": 42,
      "hit": false,
      "t": 73924.92607499953,
      "d": 53.571374999999534,
      "v": 100
    },
    {
      "midi": 30,
      "hit": false,
      "t": 73924.92607499992,
      "d": 192.85695000000123,
      "v": 115
    },
    {
      "midi": 78,
      "hit": false,
      "t": 73924.92607499995,
      "d": 385.71390000000247,
      "v": 127
    },
    {
      "midi": 83,
      "hit": false,
      "t": 73924.92607499995,
      "d": 385.71390000000247,
      "v": 90
    },
    {
      "midi": 12,
      "hit": false,
      "t": 74139.21157499953,
      "d": 53.571374999999534,
      "v": 110
    },
    {
      "midi": 42,
      "hit": false,
      "t": 74139.21157499953,
      "d": 53.571374999999534,
      "v": 100
    },
    {
      "midi": 117,
      "hit": false,
      "t": 74139.21157499953,
      "d": 53.571374999999534,
      "v": 110
    },
    {
      "midi": 32,
      "hit": false,
      "t": 74139.21157499992,
      "d": 192.85695000000123,
      "v": 115
    },
    {
      "midi": 42,
      "hit": false,
      "t": 74246.35432499953,
      "d": 53.571374999999534,
      "v": 100
    },
    {
      "midi": 42,
      "hit": false,
      "t": 74353.49707499953,
      "d": 53.571374999999534,
      "v": 100
    },
    {
      "midi": 70,
      "hit": false,
      "t": 74353.49707499953,
      "d": 53.571374999999534,
      "v": 100
    },
    {
      "midi": 34,
      "hit": false,
      "t": 74353.49707499992,
      "d": 385.71390000000247,
      "v": 115
    },
    {
      "midi": 75,
      "hit": false,
      "t": 74353.49707499995,
      "d": 385.71390000000247,
      "v": 127
    },
    {
      "midi": 78,
      "hit": false,
      "t": 74353.49707499995,
      "d": 385.71390000000247,
      "v": 90
    },
    {
      "midi": 12,
      "hit": false,
      "t": 74567.78257499952,
      "d": 53.571374999999534,
      "v": 110
    },
    {
      "midi": 42,
      "hit": false,
      "t": 74567.78257499952,
      "d": 53.571374999999534,
      "v": 100
    },
    {
      "midi": 90,
      "hit": false,
      "t": 74567.78257499998,
      "d": 214.28549999999814,
      "v": 110
    },
    {
      "midi": 90,
      "hit": false,
      "t": 74567.78257500002,
      "d": 857.1420000000071,
      "v": 80
    },
    {
      "midi": 78,
      "hit": false,
      "t": 74567.78257500002,
      "d": 857.1420000000071,
      "v": 80
    },
    {
      "midi": 73,
      "hit": false,
      "t": 74567.78257500002,
      "d": 857.1420000000071,
      "v": 110
    },
    {
      "midi": 68,
      "hit": false,
      "t": 74567.78257500002,
      "d": 857.1420000000071,
      "v": 110
    },
    {
      "midi": 64,
      "hit": false,
      "t": 74567.78257500002,
      "d": 857.1420000000071,
      "v": 110
    },
    {
      "midi": 61,
      "hit": false,
      "t": 74567.78257500002,
      "d": 857.1420000000071,
      "v": 100
    },
    {
      "midi": 64,
      "hit": false,
      "t": 74567.78257500002,
      "d": 857.1420000000071,
      "v": 100
    },
    {
      "midi": 42,
      "hit": false,
      "t": 74782.06807499952,
      "d": 53.571374999999534,
      "v": 100
    },
    {
      "midi": 70,
      "hit": false,
      "t": 74782.06807499952,
      "d": 53.571374999999534,
      "v": 100
    },
    {
      "midi": 30,
      "hit": false,
      "t": 74782.06807499992,
      "d": 192.85695000000123,
      "v": 115
    },
    {
      "midi": 73,
      "hit": false,
      "t": 74782.06807499994,
      "d": 192.85695000000123,
      "v": 127
    },
    {
      "midi": 76,
      "hit": false,
      "t": 74782.06807499994,
      "d": 192.85695000000123,
      "v": 90
    },
    {
      "midi": 80,
      "hit": false,
      "t": 74782.06807499999,
      "d": 53.571374999999534,
      "v": 110
    },
    {
      "midi": 12,
      "hit": false,
      "t": 74996.35357499952,
      "d": 53.571374999999534,
      "v": 110
    },
    {
      "midi": 42,
      "hit": false,
      "t": 74996.35357499952,
      "d": 53.571374999999534,
      "v": 100
    },
    {
      "midi": 117,
      "hit": false,
      "t": 74996.35357499952,
      "d": 53.571374999999534,
      "v": 110
    },
    {
      "midi": 32,
      "hit": false,
      "t": 74996.35357499991,
      "d": 192.85695000000123,
      "v": 115
    },
    {
      "midi": 73,
      "hit": false,
      "t": 74996.35357499994,
      "d": 192.85695000000123,
      "v": 127
    },
    {
      "midi": 76,
      "hit": false,
      "t": 74996.35357499994,
      "d": 192.85695000000123,
      "v": 90
    },
    {
      "midi": 80,
      "hit": false,
      "t": 74996.35357499999,
      "d": 53.571374999999534,
      "v": 110
    },
    {
      "midi": 42,
      "hit": false,
      "t": 75103.49632499952,
      "d": 53.571374999999534,
      "v": 100
    },
    {
      "midi": 42,
      "hit": false,
      "t": 75210.63907499952,
      "d": 53.571374999999534,
      "v": 100
    },
    {
      "midi": 70,
      "hit": false,
      "t": 75210.63907499952,
      "d": 53.571374999999534,
      "v": 100
    },
    {
      "midi": 34,
      "hit": false,
      "t": 75210.63907499991,
      "d": 192.85695000000123,
      "v": 115
    },
    {
      "midi": 71,
      "hit": false,
      "t": 75210.63907499994,
      "d": 192.85695000000123,
      "v": 127
    },
    {
      "midi": 75,
      "hit": false,
      "t": 75210.63907499994,
      "d": 192.85695000000123,
      "v": 90
    },
    {
      "midi": 12,
      "hit": false,
      "t": 75424.92457499952,
      "d": 53.571374999999534,
      "v": 110
    },
    {
      "midi": 42,
      "hit": false,
      "t": 75424.92457499952,
      "d": 53.571374999999534,
      "v": 100
    },
    {
      "midi": 44,
      "hit": false,
      "t": 75424.92457499991,
      "d": 1714.2839999999997,
      "v": 100
    },
    {
      "midi": 32,
      "hit": false,
      "t": 75424.92457499991,
      "d": 385.71390000000247,
      "v": 115
    },
    {
      "midi": 44,
      "hit": false,
      "t": 75424.92457499994,
      "d": 1714.2839999999997,
      "v": 100
    },
    {
      "midi": 78,
      "hit": false,
      "t": 75424.92457499994,
      "d": 192.85695000000123,
      "v": 127
    },
    {
      "midi": 83,
      "hit": false,
      "t": 75424.92457499994,
      "d": 192.85695000000123,
      "v": 90
    },
    {
      "midi": 87,
      "hit": false,
      "t": 75424.92457499997,
      "d": 214.28549999999814,
      "v": 110
    },
    {
      "midi": 87,
      "hit": false,
      "t": 75424.92457500003,
      "d": 1714.2839999999997,
      "v": 80
    },
    {
      "midi": 75,
      "hit": false,
      "t": 75424.92457500003,
      "d": 1714.2839999999997,
      "v": 80
    },
    {
      "midi": 71,
      "hit": false,
      "t": 75424.92457500003,
      "d": 1714.2839999999997,
      "v": 110
    },
    {
      "midi": 66,
      "hit": false,
      "t": 75424.92457500003,
      "d": 1714.2839999999997,
      "v": 110
    },
    {
      "midi": 63,
      "hit": false,
      "t": 75424.92457500003,
      "d": 1714.2839999999997,
      "v": 110
    },
    {
      "midi": 56,
      "hit": false,
      "t": 75424.92457500003,
      "d": 857.1420000000071,
      "v": 100
    },
    {
      "midi": 59,
      "hit": false,
      "t": 75424.92457500003,
      "d": 857.1420000000071,
      "v": 100
    },
    {
      "midi": 63,
      "hit": false,
      "t": 75424.92457500003,
      "d": 857.1420000000071,
      "v": 100
    },
    {
      "midi": 66,
      "hit": false,
      "t": 75424.92457500003,
      "d": 857.1420000000071,
      "v": 100
    },
    {
      "midi": 42,
      "hit": false,
      "t": 75639.21007499952,
      "d": 53.571374999999534,
      "v": 100
    },
    {
      "midi": 70,
      "hit": false,
      "t": 75639.21007499952,
      "d": 53.571374999999534,
      "v": 100
    },
    {
      "midi": 78,
      "hit": false,
      "t": 75639.21007499994,
      "d": 192.85695000000123,
      "v": 127
    },
    {
      "midi": 83,
      "hit": false,
      "t": 75639.21007499994,
      "d": 192.85695000000123,
      "v": 90
    },
    {
      "midi": 12,
      "hit": false,
      "t": 75853.49557499951,
      "d": 53.571374999999534,
      "v": 110
    },
    {
      "midi": 42,
      "hit": false,
      "t": 75853.49557499951,
      "d": 53.571374999999534,
      "v": 100
    },
    {
      "midi": 117,
      "hit": false,
      "t": 75853.49557499951,
      "d": 53.571374999999534,
      "v": 110
    },
    {
      "midi": 32,
      "hit": false,
      "t": 75853.4955749999,
      "d": 192.85695000000123,
      "v": 115
    },
    {
      "midi": 80,
      "hit": false,
      "t": 75853.49557499994,
      "d": 192.85695000000123,
      "v": 127
    },
    {
      "midi": 85,
      "hit": false,
      "t": 75853.49557499994,
      "d": 192.85695000000123,
      "v": 90
    },
    {
      "midi": 42,
      "hit": false,
      "t": 75960.63832499951,
      "d": 53.571374999999534,
      "v": 100
    },
    {
      "midi": 42,
      "hit": false,
      "t": 76067.78107499951,
      "d": 53.571374999999534,
      "v": 100
    },
    {
      "midi": 70,
      "hit": false,
      "t": 76067.78107499951,
      "d": 53.571374999999534,
      "v": 100
    },
    {
      "midi": 27,
      "hit": false,
      "t": 76067.7810749999,
      "d": 192.85695000000123,
      "v": 115
    },
    {
      "midi": 80,
      "hit": false,
      "t": 76067.78107499993,
      "d": 192.85695000000123,
      "v": 127
    },
    {
      "midi": 85,
      "hit": false,
      "t": 76067.78107499993,
      "d": 192.85695000000123,
      "v": 90
    },
    {
      "midi": 12,
      "hit": false,
      "t": 76282.06657499951,
      "d": 53.571374999999534,
      "v": 110
    },
    {
      "midi": 42,
      "hit": false,
      "t": 76282.06657499951,
      "d": 53.571374999999534,
      "v": 100
    },
    {
      "midi": 30,
      "hit": false,
      "t": 76282.0665749999,
      "d": 192.85695000000123,
      "v": 115
    },
    {
      "midi": 87,
      "hit": false,
      "t": 76282.06657499993,
      "d": 192.85695000000123,
      "v": 90
    },
    {
      "midi": 83,
      "hit": false,
      "t": 76282.06657499993,
      "d": 192.85695000000123,
      "v": 127
    },
    {
      "midi": 42,
      "hit": false,
      "t": 76496.35207499951,
      "d": 53.571374999999534,
      "v": 100
    },
    {
      "midi": 70,
      "hit": false,
      "t": 76496.35207499951,
      "d": 53.571374999999534,
      "v": 100
    },
    {
      "midi": 32,
      "hit": false,
      "t": 76496.3520749999,
      "d": 385.71390000000247,
      "v": 115
    },
    {
      "midi": 12,
      "hit": false,
      "t": 76710.6375749995,
      "d": 53.571374999999534,
      "v": 110
    },
    {
      "midi": 42,
      "hit": false,
      "t": 76710.6375749995,
      "d": 53.571374999999534,
      "v": 100
    },
    {
      "midi": 117,
      "hit": false,
      "t": 76710.6375749995,
      "d": 53.571374999999534,
      "v": 110
    },
    {
      "midi": 78,
      "hit": false,
      "t": 76710.63757499993,
      "d": 192.85695000000123,
      "v": 127
    },
    {
      "midi": 83,
      "hit": false,
      "t": 76710.63757499993,
      "d": 192.85695000000123,
      "v": 90
    },
    {
      "midi": 42,
      "hit": false,
      "t": 76817.7803249995,
      "d": 53.571374999999534,
      "v": 100
    },
    {
      "midi": 42,
      "hit": false,
      "t": 76924.9230749995,
      "d": 53.571374999999534,
      "v": 100
    },
    {
      "midi": 70,
      "hit": false,
      "t": 76924.9230749995,
      "d": 53.571374999999534,
      "v": 100
    },
    {
      "midi": 30,
      "hit": false,
      "t": 76924.9230749999,
      "d": 385.71390000000247,
      "v": 115
    },
    {
      "midi": 78,
      "hit": false,
      "t": 76924.92307499993,
      "d": 192.85695000000123,
      "v": 127
    },
    {
      "midi": 83,
      "hit": false,
      "t": 76924.92307499993,
      "d": 192.85695000000123,
      "v": 90
    },
    {
      "midi": 12,
      "hit": false,
      "t": 77139.2085749995,
      "d": 53.571374999999534,
      "v": 110
    },
    {
      "midi": 42,
      "hit": false,
      "t": 77139.2085749995,
      "d": 53.571374999999534,
      "v": 100
    },
    {
      "midi": 42,
      "hit": false,
      "t": 77139.20857499991,
      "d": 214.28549999999814,
      "v": 100
    },
    {
      "midi": 80,
      "hit": false,
      "t": 77139.20857499992,
      "d": 192.85695000000123,
      "v": 127
    },
    {
      "midi": 85,
      "hit": false,
      "t": 77139.20857499992,
      "d": 192.85695000000123,
      "v": 90
    },
    {
      "midi": 42,
      "hit": false,
      "t": 77139.20857499994,
      "d": 214.28549999999814,
      "v": 100
    },
    {
      "midi": 88,
      "hit": false,
      "t": 77139.20857499997,
      "d": 214.28549999999814,
      "v": 110
    },
    {
      "midi": 88,
      "hit": false,
      "t": 77139.20857500003,
      "d": 857.1420000000071,
      "v": 80
    },
    {
      "midi": 76,
      "hit": false,
      "t": 77139.20857500003,
      "d": 857.1420000000071,
      "v": 80
    },
    {
      "midi": 69,
      "hit": false,
      "t": 77139.20857500003,
      "d": 857.1420000000071,
      "v": 110
    },
    {
      "midi": 64,
      "hit": false,
      "t": 77139.20857500003,
      "d": 857.1420000000071,
      "v": 110
    },
    {
      "midi": 61,
      "hit": false,
      "t": 77139.20857500003,
      "d": 857.1420000000071,
      "v": 110
    },
    {
      "midi": 66,
      "hit": false,
      "t": 77139.20857500004,
      "d": 857.1420000000071,
      "v": 100
    },
    {
      "midi": 61,
      "hit": false,
      "t": 77139.20857500004,
      "d": 857.1420000000071,
      "v": 100
    },
    {
      "midi": 57,
      "hit": false,
      "t": 77139.20857500004,
      "d": 857.1420000000071,
      "v": 100
    },
    {
      "midi": 70,
      "hit": false,
      "t": 77353.4940749995,
      "d": 53.571374999999534,
      "v": 100
    },
    {
      "midi": 42,
      "hit": false,
      "t": 77353.4940749995,
      "d": 53.571374999999534,
      "v": 100
    },
    {
      "midi": 34,
      "hit": false,
      "t": 77353.4940749999,
      "d": 192.85695000000123,
      "v": 115
    },
    {
      "midi": 45,
      "hit": false,
      "t": 77353.49407499991,
      "d": 214.28549999999814,
      "v": 100
    },
    {
      "midi": 78,
      "hit": false,
      "t": 77353.49407499992,
      "d": 385.71390000000247,
      "v": 127
    },
    {
      "midi": 83,
      "hit": false,
      "t": 77353.49407499992,
      "d": 385.71390000000247,
      "v": 90
    },
    {
      "midi": 45,
      "hit": false,
      "t": 77353.49407499994,
      "d": 214.28549999999814,
      "v": 100
    },
    {
      "midi": 12,
      "hit": false,
      "t": 77567.7795749995,
      "d": 53.571374999999534,
      "v": 110
    },
    {
      "midi": 42,
      "hit": false,
      "t": 77567.7795749995,
      "d": 53.571374999999534,
      "v": 100
    },
    {
      "midi": 117,
      "hit": false,
      "t": 77567.7795749995,
      "d": 53.571374999999534,
      "v": 110
    },
    {
      "midi": 37,
      "hit": false,
      "t": 77567.77957499989,
      "d": 192.85695000000123,
      "v": 115
    },
    {
      "midi": 49,
      "hit": false,
      "t": 77567.7795749999,
      "d": 214.28549999999814,
      "v": 100
    },
    {
      "midi": 49,
      "hit": false,
      "t": 77567.77957499993,
      "d": 214.28549999999814,
      "v": 100
    },
    {
      "midi": 42,
      "hit": false,
      "t": 77674.9223249995,
      "d": 53.571374999999534,
      "v": 100
    },
    {
      "midi": 42,
      "hit": false,
      "t": 77782.0650749995,
      "d": 53.571374999999534,
      "v": 100
    },
    {
      "midi": 70,
      "hit": false,
      "t": 77782.0650749995,
      "d": 53.571374999999534,
      "v": 100
    },
    {
      "midi": 35,
      "hit": false,
      "t": 77782.06507499989,
      "d": 385.71390000000247,
      "v": 115
    },
    {
      "midi": 47,
      "hit": false,
      "t": 77782.0650749999,
      "d": 428.5709999999963,
      "v": 100
    },
    {
      "midi": 75,
      "hit": false,
      "t": 77782.06507499992,
      "d": 385.71390000000247,
      "v": 127
    },
    {
      "midi": 78,
      "hit": false,
      "t": 77782.06507499992,
      "d": 385.71390000000247,
      "v": 90
    },
    {
      "midi": 47,
      "hit": false,
      "t": 77782.06507499993,
      "d": 428.5709999999963,
      "v": 100
    },
    {
      "midi": 12,
      "hit": false,
      "t": 77996.3505749995,
      "d": 53.571374999999534,
      "v": 110
    },
    {
      "midi": 42,
      "hit": false,
      "t": 77996.3505749995,
      "d": 53.571374999999534,
      "v": 100
    },
    {
      "midi": 87,
      "hit": false,
      "t": 77996.35057499996,
      "d": 214.28549999999814,
      "v": 110
    },
    {
      "midi": 87,
      "hit": false,
      "t": 77996.35057500003,
      "d": 428.5709999999963,
      "v": 80
    },
    {
      "midi": 75,
      "hit": false,
      "t": 77996.35057500003,
      "d": 428.5709999999963,
      "v": 80
    },
    {
      "midi": 73,
      "hit": false,
      "t": 77996.35057500003,
      "d": 857.1420000000071,
      "v": 110
    },
    {
      "midi": 66,
      "hit": false,
      "t": 77996.35057500003,
      "d": 857.1420000000071,
      "v": 110
    },
    {
      "midi": 63,
      "hit": false,
      "t": 77996.35057500003,
      "d": 857.1420000000071,
      "v": 110
    },
    {
      "midi": 63,
      "hit": false,
      "t": 77996.35057500005,
      "d": 857.1420000000071,
      "v": 100
    },
    {
      "midi": 59,
      "hit": false,
      "t": 77996.35057500005,
      "d": 857.1420000000071,
      "v": 100
    },
    {
      "midi": 66,
      "hit": false,
      "t": 77996.35057500005,
      "d": 857.1420000000071,
      "v": 100
    },
    {
      "midi": 42,
      "hit": false,
      "t": 78210.6360749995,
      "d": 53.571374999999534,
      "v": 100
    },
    {
      "midi": 70,
      "hit": false,
      "t": 78210.6360749995,
      "d": 53.571374999999534,
      "v": 100
    },
    {
      "midi": 33,
      "hit": false,
      "t": 78210.63607499989,
      "d": 385.71390000000247,
      "v": 115
    },
    {
      "midi": 45,
      "hit": false,
      "t": 78210.6360749999,
      "d": 642.8564999999944,
      "v": 100
    },
    {
      "midi": 73,
      "hit": false,
      "t": 78210.63607499991,
      "d": 192.85695000000123,
      "v": 127
    },
    {
      "midi": 76,
      "hit": false,
      "t": 78210.63607499991,
      "d": 192.85695000000123,
      "v": 90
    },
    {
      "midi": 45,
      "hit": false,
      "t": 78210.63607499993,
      "d": 642.8564999999944,
      "v": 100
    },
    {
      "midi": 80,
      "hit": false,
      "t": 78210.63607499999,
      "d": 53.571374999999534,
      "v": 110
    },
    {
      "midi": 12,
      "hit": false,
      "t": 78424.92157499949,
      "d": 53.571374999999534,
      "v": 110
    },
    {
      "midi": 42,
      "hit": false,
      "t": 78424.92157499949,
      "d": 53.571374999999534,
      "v": 100
    },
    {
      "midi": 117,
      "hit": false,
      "t": 78424.92157499949,
      "d": 53.571374999999534,
      "v": 110
    },
    {
      "midi": 73,
      "hit": false,
      "t": 78424.92157499991,
      "d": 192.85695000000123,
      "v": 127
    },
    {
      "midi": 76,
      "hit": false,
      "t": 78424.92157499991,
      "d": 192.85695000000123,
      "v": 90
    },
    {
      "midi": 88,
      "hit": false,
      "t": 78424.92157499996,
      "d": 214.28549999999814,
      "v": 110
    },
    {
      "midi": 80,
      "hit": false,
      "t": 78424.92157499999,
      "d": 53.571374999999534,
      "v": 110
    },
    {
      "midi": 88,
      "hit": false,
      "t": 78424.92157500003,
      "d": 428.5709999999963,
      "v": 80
    },
    {
      "midi": 76,
      "hit": false,
      "t": 78424.92157500003,
      "d": 428.5709999999963,
      "v": 80
    },
    {
      "midi": 42,
      "hit": false,
      "t": 78532.06432499949,
      "d": 53.571374999999534,
      "v": 100
    },
    {
      "midi": 42,
      "hit": false,
      "t": 78639.20707499949,
      "d": 53.571374999999534,
      "v": 100
    },
    {
      "midi": 70,
      "hit": false,
      "t": 78639.20707499949,
      "d": 53.571374999999534,
      "v": 100
    },
    {
      "midi": 30,
      "hit": false,
      "t": 78639.20707499988,
      "d": 192.85695000000123,
      "v": 115
    },
    {
      "midi": 71,
      "hit": false,
      "t": 78639.20707499991,
      "d": 192.85695000000123,
      "v": 127
    },
    {
      "midi": 75,
      "hit": false,
      "t": 78639.20707499991,
      "d": 192.85695000000123,
      "v": 90
    },
    {
      "midi": 12,
      "hit": false,
      "t": 78853.49257499949,
      "d": 53.571374999999534,
      "v": 110
    },
    {
      "midi": 42,
      "hit": false,
      "t": 78853.49257499949,
      "d": 53.571374999999534,
      "v": 100
    },
    {
      "midi": 28,
      "hit": false,
      "t": 78853.49257499988,
      "d": 385.71390000000247,
      "v": 115
    },
    {
      "midi": 40,
      "hit": false,
      "t": 78853.4925749999,
      "d": 1678.569749999995,
      "v": 100
    },
    {
      "midi": 78,
      "hit": false,
      "t": 78853.49257499991,
      "d": 578.5708500000037,
      "v": 127
    },
    {
      "midi": 40,
      "hit": false,
      "t": 78853.49257499992,
      "d": 1678.569749999995,
      "v": 100
    },
    {
      "midi": 90,
      "hit": false,
      "t": 78853.49257499995,
      "d": 214.28549999999814,
      "v": 110
    },
    {
      "midi": 90,
      "hit": false,
      "t": 78853.49257500003,
      "d": 2785.711500000005,
      "v": 80
    },
    {
      "midi": 78,
      "hit": false,
      "t": 78853.49257500003,
      "d": 2785.711500000005,
      "v": 80
    },
    {
      "midi": 68,
      "hit": false,
      "t": 78853.49257500005,
      "d": 428.5709999999963,
      "v": 100
    },
    {
      "midi": 64,
      "hit": false,
      "t": 78853.49257500005,
      "d": 428.5709999999963,
      "v": 100
    },
    {
      "midi": 59,
      "hit": false,
      "t": 78853.49257500005,
      "d": 428.5709999999963,
      "v": 100
    },
    {
      "midi": 42,
      "hit": false,
      "t": 79067.77807499949,
      "d": 53.571374999999534,
      "v": 100
    },
    {
      "midi": 70,
      "hit": false,
      "t": 79067.77807499949,
      "d": 53.571374999999534,
      "v": 100
    },
    {
      "midi": 12,
      "hit": false,
      "t": 79282.06357499948,
      "d": 53.571374999999534,
      "v": 110
    },
    {
      "midi": 42,
      "hit": false,
      "t": 79282.06357499948,
      "d": 53.571374999999534,
      "v": 100
    },
    {
      "midi": 117,
      "hit": false,
      "t": 79282.06357499948,
      "d": 53.571374999999534,
      "v": 110
    },
    {
      "midi": 28,
      "hit": false,
      "t": 79282.06357499988,
      "d": 385.71390000000247,
      "v": 115
    },
    {
      "midi": 42,
      "hit": false,
      "t": 79389.20632499948,
      "d": 53.571374999999534,
      "v": 100
    },
    {
      "midi": 42,
      "hit": false,
      "t": 79496.34907499948,
      "d": 53.571374999999534,
      "v": 100
    },
    {
      "midi": 70,
      "hit": false,
      "t": 79496.34907499948,
      "d": 53.571374999999534,
      "v": 100
    },
    {
      "midi": 76,
      "hit": false,
      "t": 79496.34907499992,
      "d": 192.85695000000123,
      "v": 127
    },
    {
      "midi": 68,
      "hit": false,
      "t": 79496.34907500005,
      "d": 107.14274999999907,
      "v": 100
    },
    {
      "midi": 64,
      "hit": false,
      "t": 79496.34907500005,
      "d": 107.14274999999907,
      "v": 100
    },
    {
      "midi": 59,
      "hit": false,
      "t": 79496.34907500005,
      "d": 107.14274999999907,
      "v": 100
    },
    {
      "midi": 12,
      "hit": false,
      "t": 79710.63457499948,
      "d": 53.571374999999534,
      "v": 110
    },
    {
      "midi": 42,
      "hit": false,
      "t": 79710.63457499948,
      "d": 53.571374999999534,
      "v": 100
    },
    {
      "midi": 28,
      "hit": false,
      "t": 79710.63457499987,
      "d": 192.85695000000123,
      "v": 115
    },
    {
      "midi": 75,
      "hit": false,
      "t": 79710.63457499992,
      "d": 385.71390000000247,
      "v": 127
    },
    {
      "midi": 42,
      "hit": false,
      "t": 79924.92007499948,
      "d": 53.571374999999534,
      "v": 100
    },
    {
      "midi": 70,
      "hit": false,
      "t": 79924.92007499948,
      "d": 53.571374999999534,
      "v": 100
    },
    {
      "midi": 39,
      "hit": false,
      "t": 79924.92007499987,
      "d": 192.85695000000123,
      "v": 115
    },
    {
      "midi": 59,
      "hit": false,
      "t": 79924.92007500005,
      "d": 642.8564999999944,
      "v": 100
    },
    {
      "midi": 64,
      "hit": false,
      "t": 79924.92007500005,
      "d": 642.8564999999944,
      "v": 100
    },
    {
      "midi": 68,
      "hit": false,
      "t": 79924.92007500005,
      "d": 642.8564999999944,
      "v": 100
    },
    {
      "midi": 12,
      "hit": false,
      "t": 80139.20557499948,
      "d": 53.571374999999534,
      "v": 110
    },
    {
      "midi": 42,
      "hit": false,
      "t": 80139.20557499948,
      "d": 53.571374999999534,
      "v": 100
    },
    {
      "midi": 117,
      "hit": false,
      "t": 80139.20557499948,
      "d": 53.571374999999534,
      "v": 110
    },
    {
      "midi": 40,
      "hit": false,
      "t": 80139.20557499987,
      "d": 385.71390000000247,
      "v": 115
    },
    {
      "midi": 76,
      "hit": false,
      "t": 80139.20557499991,
      "d": 385.71390000000247,
      "v": 127
    },
    {
      "midi": 42,
      "hit": false,
      "t": 80246.34832499948,
      "d": 53.571374999999534,
      "v": 100
    },
    {
      "midi": 42,
      "hit": false,
      "t": 80353.49107499947,
      "d": 53.571374999999534,
      "v": 100
    },
    {
      "midi": 70,
      "hit": false,
      "t": 80353.49107499947,
      "d": 53.571374999999534,
      "v": 100
    },
    {
      "midi": 12,
      "hit": false,
      "t": 80567.77657499947,
      "d": 53.571374999999534,
      "v": 110
    },
    {
      "midi": 42,
      "hit": false,
      "t": 80567.77657499947,
      "d": 53.571374999999534,
      "v": 100
    },
    {
      "midi": 39,
      "hit": false,
      "t": 80567.77657499987,
      "d": 385.71390000000247,
      "v": 115
    },
    {
      "midi": 39,
      "hit": false,
      "t": 80567.7765749999,
      "d": 428.5709999999963,
      "v": 100
    },
    {
      "midi": 78,
      "hit": false,
      "t": 80567.77657499991,
      "d": 192.85695000000123,
      "v": 127
    },
    {
      "midi": 39,
      "hit": false,
      "t": 80567.77657499992,
      "d": 428.5709999999963,
      "v": 100
    },
    {
      "midi": 63,
      "hit": false,
      "t": 80567.77657500004,
      "d": 428.5709999999963,
      "v": 100
    },
    {
      "midi": 58,
      "hit": false,
      "t": 80567.77657500004,
      "d": 428.5709999999963,
      "v": 100
    },
    {
      "midi": 66,
      "hit": false,
      "t": 80567.77657500004,
      "d": 428.5709999999963,
      "v": 100
    },
    {
      "midi": 70,
      "hit": false,
      "t": 80782.06207499947,
      "d": 53.571374999999534,
      "v": 100
    },
    {
      "midi": 42,
      "hit": false,
      "t": 80782.06207499947,
      "d": 53.571374999999534,
      "v": 100
    },
    {
      "midi": 80,
      "hit": false,
      "t": 80782.0620749999,
      "d": 192.85695000000123,
      "v": 127
    },
    {
      "midi": 12,
      "hit": false,
      "t": 80996.34757499947,
      "d": 53.571374999999534,
      "v": 110
    },
    {
      "midi": 42,
      "hit": false,
      "t": 80996.34757499947,
      "d": 53.571374999999534,
      "v": 100
    },
    {
      "midi": 117,
      "hit": false,
      "t": 80996.34757499947,
      "d": 53.571374999999534,
      "v": 110
    },
    {
      "midi": 30,
      "hit": false,
      "t": 80996.34757499986,
      "d": 192.85695000000123,
      "v": 115
    },
    {
      "midi": 82,
      "hit": false,
      "t": 80996.3475749999,
      "d": 192.85695000000123,
      "v": 127
    },
    {
      "midi": 42,
      "hit": false,
      "t": 81103.49032499947,
      "d": 53.571374999999534,
      "v": 100
    },
    {
      "midi": 42,
      "hit": false,
      "t": 81210.63307499947,
      "d": 53.571374999999534,
      "v": 100
    },
    {
      "midi": 70,
      "hit": false,
      "t": 81210.63307499947,
      "d": 53.571374999999534,
      "v": 100
    },
    {
      "midi": 32,
      "hit": false,
      "t": 81210.63307499986,
      "d": 385.71390000000247,
      "v": 115
    },
    {
      "midi": 44,
      "hit": false,
      "t": 81210.63307499989,
      "d": 385.71390000000247,
      "v": 100
    },
    {
      "midi": 83,
      "hit": false,
      "t": 81210.6330749999,
      "d": 192.85695000000123,
      "v": 127
    },
    {
      "midi": 44,
      "hit": false,
      "t": 81210.63307499992,
      "d": 385.71390000000247,
      "v": 100
    },
    {
      "midi": 63,
      "hit": false,
      "t": 81210.63307500003,
      "d": 1071.4275000000052,
      "v": 100
    },
    {
      "midi": 59,
      "hit": false,
      "t": 81210.63307500003,
      "d": 1071.4275000000052,
      "v": 100
    },
    {
      "midi": 56,
      "hit": false,
      "t": 81210.63307500003,
      "d": 1071.4275000000052,
      "v": 100
    },
    {
      "midi": 12,
      "hit": false,
      "t": 81424.91857499946,
      "d": 53.571374999999534,
      "v": 110
    },
    {
      "midi": 42,
      "hit": false,
      "t": 81424.91857499946,
      "d": 53.571374999999534,
      "v": 100
    },
    {
      "midi": 42,
      "hit": false,
      "t": 81639.20407499946,
      "d": 53.571374999999534,
      "v": 100
    },
    {
      "midi": 70,
      "hit": false,
      "t": 81639.20407499946,
      "d": 53.571374999999534,
      "v": 100
    },
    {
      "midi": 30,
      "hit": false,
      "t": 81639.20407499986,
      "d": 192.85695000000123,
      "v": 115
    },
    {
      "midi": 44,
      "hit": false,
      "t": 81639.20407499989,
      "d": 192.85695000000123,
      "v": 100
    },
    {
      "midi": 44,
      "hit": false,
      "t": 81639.20407499991,
      "d": 192.85695000000123,
      "v": 100
    },
    {
      "midi": 88,
      "hit": false,
      "t": 81639.20407499996,
      "d": 214.28549999999814,
      "v": 110
    },
    {
      "midi": 88,
      "hit": false,
      "t": 81639.20407500003,
      "d": 214.28549999999814,
      "v": 80
    },
    {
      "midi": 76,
      "hit": false,
      "t": 81639.20407500003,
      "d": 214.28549999999814,
      "v": 80
    },
    {
      "midi": 12,
      "hit": false,
      "t": 81853.48957499946,
      "d": 53.571374999999534,
      "v": 110
    },
    {
      "midi": 42,
      "hit": false,
      "t": 81853.48957499946,
      "d": 53.571374999999534,
      "v": 100
    },
    {
      "midi": 117,
      "hit": false,
      "t": 81853.48957499946,
      "d": 53.571374999999534,
      "v": 110
    },
    {
      "midi": 32,
      "hit": false,
      "t": 81853.48957499985,
      "d": 192.85695000000123,
      "v": 115
    },
    {
      "midi": 44,
      "hit": false,
      "t": 81853.48957499988,
      "d": 53.571374999999534,
      "v": 100
    },
    {
      "midi": 44,
      "hit": false,
      "t": 81853.48957499991,
      "d": 53.571374999999534,
      "v": 100
    },
    {
      "midi": 87,
      "hit": false,
      "t": 81853.48957499996,
      "d": 214.28549999999814,
      "v": 110
    },
    {
      "midi": 87,
      "hit": false,
      "t": 81853.48957500003,
      "d": 214.28549999999814,
      "v": 80
    },
    {
      "midi": 75,
      "hit": false,
      "t": 81853.48957500003,
      "d": 214.28549999999814,
      "v": 80
    },
    {
      "midi": 42,
      "hit": false,
      "t": 81960.63232499946,
      "d": 53.571374999999534,
      "v": 100
    },
    {
      "midi": 42,
      "hit": false,
      "t": 82067.77507499946,
      "d": 53.571374999999534,
      "v": 100
    },
    {
      "midi": 70,
      "hit": false,
      "t": 82067.77507499946,
      "d": 53.571374999999534,
      "v": 100
    },
    {
      "midi": 35,
      "hit": false,
      "t": 82067.77507499985,
      "d": 192.85695000000123,
      "v": 115
    },
    {
      "midi": 44,
      "hit": false,
      "t": 82067.77507499988,
      "d": 53.571374999999534,
      "v": 100
    },
    {
      "midi": 44,
      "hit": false,
      "t": 82067.77507499991,
      "d": 53.571374999999534,
      "v": 100
    },
    {
      "midi": 71,
      "hit": false,
      "t": 82067.77507499991,
      "d": 192.85695000000123,
      "v": 127
    },
    {
      "midi": 85,
      "hit": false,
      "t": 82067.77507499995,
      "d": 214.28549999999814,
      "v": 110
    },
    {
      "midi": 85,
      "hit": false,
      "t": 82067.77507500003,
      "d": 214.28549999999814,
      "v": 80
    },
    {
      "midi": 73,
      "hit": false,
      "t": 82067.77507500003,
      "d": 214.28549999999814,
      "v": 80
    },
    {
      "midi": 12,
      "hit": false,
      "t": 82282.06057499946,
      "d": 53.571374999999534,
      "v": 110
    },
    {
      "midi": 42,
      "hit": false,
      "t": 82282.06057499946,
      "d": 53.571374999999534,
      "v": 100
    },
    {
      "midi": 37,
      "hit": false,
      "t": 82282.06057499985,
      "d": 385.71390000000247,
      "v": 115
    },
    {
      "midi": 44,
      "hit": false,
      "t": 82282.06057499988,
      "d": 1678.569749999995,
      "v": 100
    },
    {
      "midi": 44,
      "hit": false,
      "t": 82282.06057499991,
      "d": 1678.569749999995,
      "v": 100
    },
    {
      "midi": 75,
      "hit": false,
      "t": 82282.06057499991,
      "d": 385.71390000000247,
      "v": 127
    },
    {
      "midi": 83,
      "hit": false,
      "t": 82282.06057499995,
      "d": 214.28549999999814,
      "v": 110
    },
    {
      "midi": 83,
      "hit": false,
      "t": 82282.06057500002,
      "d": 1285.7130000000034,
      "v": 80
    },
    {
      "midi": 71,
      "hit": false,
      "t": 82282.06057500002,
      "d": 1285.7130000000034,
      "v": 80
    },
    {
      "midi": 68,
      "hit": false,
      "t": 82282.06057500004,
      "d": 1714.2839999999997,
      "v": 110
    },
    {
      "midi": 71,
      "hit": false,
      "t": 82282.06057500004,
      "d": 1714.2839999999997,
      "v": 110
    },
    {
      "midi": 64,
      "hit": false,
      "t": 82282.06057500004,
      "d": 1714.2839999999997,
      "v": 110
    },
    {
      "midi": 64,
      "hit": false,
      "t": 82282.06057500004,
      "d": 1714.2839999999997,
      "v": 100
    },
    {
      "midi": 59,
      "hit": false,
      "t": 82282.06057500004,
      "d": 1714.2839999999997,
      "v": 100
    },
    {
      "midi": 56,
      "hit": false,
      "t": 82282.06057500004,
      "d": 1714.2839999999997,
      "v": 100
    },
    {
      "midi": 42,
      "hit": false,
      "t": 82496.34607499946,
      "d": 53.571374999999534,
      "v": 100
    },
    {
      "midi": 70,
      "hit": false,
      "t": 82496.34607499946,
      "d": 53.571374999999534,
      "v": 100
    },
    {
      "midi": 12,
      "hit": false,
      "t": 82710.63157499945,
      "d": 53.571374999999534,
      "v": 110
    },
    {
      "midi": 42,
      "hit": false,
      "t": 82710.63157499945,
      "d": 53.571374999999534,
      "v": 100
    },
    {
      "midi": 117,
      "hit": false,
      "t": 82710.63157499945,
      "d": 53.571374999999534,
      "v": 110
    },
    {
      "midi": 37,
      "hit": false,
      "t": 82710.63157499985,
      "d": 192.85695000000123,
      "v": 115
    },
    {
      "midi": 73,
      "hit": false,
      "t": 82710.6315749999,
      "d": 385.71390000000247,
      "v": 127
    },
    {
      "midi": 42,
      "hit": false,
      "t": 82817.77432499945,
      "d": 53.571374999999534,
      "v": 100
    },
    {
      "midi": 42,
      "hit": false,
      "t": 82924.91707499945,
      "d": 53.571374999999534,
      "v": 100
    },
    {
      "midi": 70,
      "hit": false,
      "t": 82924.91707499945,
      "d": 53.571374999999534,
      "v": 100
    },
    {
      "midi": 32,
      "hit": false,
      "t": 82924.91707499984,
      "d": 192.85695000000123,
      "v": 115
    },
    {
      "midi": 12,
      "hit": false,
      "t": 83139.20257499945,
      "d": 53.571374999999534,
      "v": 110
    },
    {
      "midi": 42,
      "hit": false,
      "t": 83139.20257499945,
      "d": 53.571374999999534,
      "v": 100
    },
    {
      "midi": 35,
      "hit": false,
      "t": 83139.20257499984,
      "d": 192.85695000000123,
      "v": 115
    },
    {
      "midi": 71,
      "hit": false,
      "t": 83139.2025749999,
      "d": 385.71390000000247,
      "v": 127
    },
    {
      "midi": 42,
      "hit": false,
      "t": 83353.48807499945,
      "d": 53.571374999999534,
      "v": 100
    },
    {
      "midi": 70,
      "hit": false,
      "t": 83353.48807499945,
      "d": 53.571374999999534,
      "v": 100
    },
    {
      "midi": 37,
      "hit": false,
      "t": 83353.48807499984,
      "d": 385.71390000000247,
      "v": 115
    },
    {
      "midi": 12,
      "hit": false,
      "t": 83567.77357499945,
      "d": 53.571374999999534,
      "v": 110
    },
    {
      "midi": 42,
      "hit": false,
      "t": 83567.77357499945,
      "d": 53.571374999999534,
      "v": 100
    },
    {
      "midi": 117,
      "hit": false,
      "t": 83567.77357499945,
      "d": 53.571374999999534,
      "v": 110
    },
    {
      "midi": 73,
      "hit": false,
      "t": 83567.7735749999,
      "d": 192.85695000000123,
      "v": 127
    },
    {
      "midi": 83,
      "hit": false,
      "t": 83567.77357500003,
      "d": 71.42849999999453,
      "v": 80
    },
    {
      "midi": 71,
      "hit": false,
      "t": 83567.77357500003,
      "d": 71.42849999999453,
      "v": 80
    },
    {
      "midi": 85,
      "hit": false,
      "t": 83639.20207500002,
      "d": 71.42849999999453,
      "v": 80
    },
    {
      "midi": 73,
      "hit": false,
      "t": 83639.20207500002,
      "d": 71.42849999999453,
      "v": 80
    },
    {
      "midi": 42,
      "hit": false,
      "t": 83674.91632499945,
      "d": 53.571374999999534,
      "v": 100
    },
    {
      "midi": 87,
      "hit": false,
      "t": 83710.63057500002,
      "d": 71.42849999999453,
      "v": 80
    },
    {
      "midi": 75,
      "hit": false,
      "t": 83710.63057500002,
      "d": 71.42849999999453,
      "v": 80
    },
    {
      "midi": 42,
      "hit": false,
      "t": 83782.05907499944,
      "d": 53.571374999999534,
      "v": 100
    },
    {
      "midi": 70,
      "hit": false,
      "t": 83782.05907499944,
      "d": 53.571374999999534,
      "v": 100
    },
    {
      "midi": 32,
      "hit": false,
      "t": 83782.05907499984,
      "d": 192.85695000000123,
      "v": 115
    },
    {
      "midi": 71,
      "hit": false,
      "t": 83782.0590749999,
      "d": 192.85695000000123,
      "v": 127
    },
    {
      "midi": 90,
      "hit": false,
      "t": 83782.05907500001,
      "d": 71.42849999999453,
      "v": 80
    },
    {
      "midi": 78,
      "hit": false,
      "t": 83782.05907500001,
      "d": 71.42849999999453,
      "v": 80
    },
    {
      "midi": 92,
      "hit": false,
      "t": 83853.487575,
      "d": 71.42849999999453,
      "v": 80
    },
    {
      "midi": 80,
      "hit": false,
      "t": 83853.487575,
      "d": 71.42849999999453,
      "v": 80
    },
    {
      "midi": 94,
      "hit": false,
      "t": 83924.916075,
      "d": 71.42849999999453,
      "v": 80
    },
    {
      "midi": 82,
      "hit": false,
      "t": 83924.916075,
      "d": 71.42849999999453,
      "v": 80
    },
    {
      "midi": 12,
      "hit": false,
      "t": 83996.34457499944,
      "d": 53.571374999999534,
      "v": 110
    },
    {
      "midi": 57,
      "hit": false,
      "t": 83996.34457499944,
      "d": 53.571374999999534,
      "v": 110
    },
    {
      "midi": 40,
      "hit": false,
      "t": 83996.34457499984,
      "d": 385.71390000000247,
      "v": 115
    },
    {
      "midi": 40,
      "hit": false,
      "t": 83996.34457499988,
      "d": 814.2848999999987,
      "v": 100
    },
    {
      "midi": 78,
      "hit": false,
      "t": 83996.3445749999,
      "d": 385.71390000000247,
      "v": 127
    },
    {
      "midi": 81,
      "hit": false,
      "t": 83996.3445749999,
      "d": 385.71390000000247,
      "v": 90
    },
    {
      "midi": 40,
      "hit": false,
      "t": 83996.34457499991,
      "d": 814.2848999999987,
      "v": 100
    },
    {
      "midi": 95,
      "hit": false,
      "t": 83996.34457499995,
      "d": 214.28549999999814,
      "v": 110
    },
    {
      "midi": 95,
      "hit": false,
      "t": 83996.344575,
      "d": 857.1420000000071,
      "v": 80
    },
    {
      "midi": 83,
      "hit": false,
      "t": 83996.344575,
      "d": 857.1420000000071,
      "v": 80
    },
    {
      "midi": 74,
      "hit": false,
      "t": 83996.34457500004,
      "d": 857.1420000000071,
      "v": 110
    },
    {
      "midi": 71,
      "hit": false,
      "t": 83996.34457500004,
      "d": 857.1420000000071,
      "v": 110
    },
    {
      "midi": 64,
      "hit": false,
      "t": 83996.34457500004,
      "d": 857.1420000000071,
      "v": 110
    },
    {
      "midi": 59,
      "hit": false,
      "t": 83996.34457500004,
      "d": 857.1420000000071,
      "v": 100
    },
    {
      "midi": 64,
      "hit": false,
      "t": 83996.34457500004,
      "d": 857.1420000000071,
      "v": 100
    },
    {
      "midi": 56,
      "hit": false,
      "t": 83996.34457500004,
      "d": 857.1420000000071,
      "v": 100
    },
    {
      "midi": 35,
      "hit": false,
      "t": 84424.91557499983,
      "d": 192.85695000000123,
      "v": 115
    },
    {
      "midi": 76,
      "hit": false,
      "t": 84424.91557499989,
      "d": 385.71390000000247,
      "v": 127
    },
    {
      "midi": 79,
      "hit": false,
      "t": 84424.91557499989,
      "d": 385.71390000000247,
      "v": 90
    },
    {
      "midi": 40,
      "hit": false,
      "t": 84639.20107499983,
      "d": 192.85695000000123,
      "v": 115
    },
    {
      "midi": 12,
      "hit": false,
      "t": 84853.48657499944,
      "d": 53.571374999999534,
      "v": 110
    },
    {
      "midi": 57,
      "hit": false,
      "t": 84853.48657499944,
      "d": 53.571374999999534,
      "v": 110
    },
    {
      "midi": 42,
      "hit": false,
      "t": 84853.48657499983,
      "d": 192.85695000000123,
      "v": 115
    },
    {
      "midi": 42,
      "hit": false,
      "t": 84853.48657499987,
      "d": 814.2848999999987,
      "v": 100
    },
    {
      "midi": 75,
      "hit": false,
      "t": 84853.48657499989,
      "d": 385.71390000000247,
      "v": 127
    },
    {
      "midi": 78,
      "hit": false,
      "t": 84853.48657499989,
      "d": 385.71390000000247,
      "v": 90
    },
    {
      "midi": 42,
      "hit": false,
      "t": 84853.4865749999,
      "d": 814.2848999999987,
      "v": 100
    },
    {
      "midi": 93,
      "hit": false,
      "t": 84853.48657499994,
      "d": 214.28549999999814,
      "v": 110
    },
    {
      "midi": 93,
      "hit": false,
      "t": 84853.486575,
      "d": 857.1420000000071,
      "v": 80
    },
    {
      "midi": 81,
      "hit": false,
      "t": 84853.486575,
      "d": 857.1420000000071,
      "v": 80
    },
    {
      "midi": 73,
      "hit": false,
      "t": 84853.48657500005,
      "d": 857.1420000000071,
      "v": 110
    },
    {
      "midi": 76,
      "hit": false,
      "t": 84853.48657500005,
      "d": 857.1420000000071,
      "v": 110
    },
    {
      "midi": 66,
      "hit": false,
      "t": 84853.48657500005,
      "d": 857.1420000000071,
      "v": 110
    },
    {
      "midi": 54,
      "hit": false,
      "t": 84853.48657500005,
      "d": 857.1420000000071,
      "v": 100
    },
    {
      "midi": 61,
      "hit": false,
      "t": 84853.48657500005,
      "d": 857.1420000000071,
      "v": 100
    },
    {
      "midi": 64,
      "hit": false,
      "t": 84853.48657500005,
      "d": 857.1420000000071,
      "v": 100
    },
    {
      "midi": 30,
      "hit": false,
      "t": 85067.77207499983,
      "d": 192.85695000000123,
      "v": 115
    },
    {
      "midi": 34,
      "hit": false,
      "t": 85282.05757499982,
      "d": 385.71390000000247,
      "v": 115
    },
    {
      "midi": 73,
      "hit": false,
      "t": 85282.05757499988,
      "d": 385.71390000000247,
      "v": 127
    },
    {
      "midi": 80,
      "hit": false,
      "t": 85282.05757499998,
      "d": 53.571374999999534,
      "v": 110
    },
    {
      "midi": 12,
      "hit": false,
      "t": 85710.62857499944,
      "d": 53.571374999999534,
      "v": 110
    },
    {
      "midi": 57,
      "hit": false,
      "t": 85710.62857499944,
      "d": 53.571374999999534,
      "v": 110
    },
    {
      "midi": 42,
      "hit": false,
      "t": 85710.62857499944,
      "d": 53.571374999999534,
      "v": 100
    },
    {
      "midi": 28,
      "hit": false,
      "t": 85710.62857499982,
      "d": 385.71390000000247,
      "v": 115
    },
    {
      "midi": 78,
      "hit": false,
      "t": 85710.62857499984,
      "d": 53.571374999999534,
      "v": 90
    },
    {
      "midi": 83,
      "hit": false,
      "t": 85710.62857499984,
      "d": 53.571374999999534,
      "v": 90
    },
    {
      "midi": 52,
      "hit": false,
      "t": 85710.62857499986,
      "d": 1678.569749999995,
      "v": 100
    },
    {
      "midi": 71,
      "hit": false,
      "t": 85710.62857499988,
      "d": 1714.2839999999997,
      "v": 127
    },
    {
      "midi": 52,
      "hit": false,
      "t": 85710.6285749999,
      "d": 1678.569749999995,
      "v": 100
    },
    {
      "midi": 90,
      "hit": false,
      "t": 85710.62857499994,
      "d": 214.28549999999814,
      "v": 110
    },
    {
      "midi": 90,
      "hit": false,
      "t": 85710.62857500001,
      "d": 1071.4275000000052,
      "v": 80
    },
    {
      "midi": 78,
      "hit": false,
      "t": 85710.62857500001,
      "d": 1071.4275000000052,
      "v": 80
    },
    {
      "midi": 62,
      "hit": false,
      "t": 85710.62857500005,
      "d": 1714.2839999999997,
      "v": 100
    },
    {
      "midi": 59,
      "hit": false,
      "t": 85710.62857500005,
      "d": 1714.2839999999997,
      "v": 100
    },
    {
      "midi": 55,
      "hit": false,
      "t": 85710.62857500005,
      "d": 1714.2839999999997,
      "v": 100
    },
    {
      "midi": 78,
      "hit": false,
      "t": 85817.77132499986,
      "d": 53.57137499998498,
      "v": 90
    },
    {
      "midi": 83,
      "hit": false,
      "t": 85817.77132499986,
      "d": 53.57137499998498,
      "v": 90
    },
    {
      "midi": 42,
      "hit": false,
      "t": 85924.91407499944,
      "d": 53.571374999999534,
      "v": 100
    },
    {
      "midi": 70,
      "hit": false,
      "t": 85924.91407499944,
      "d": 53.571374999999534,
      "v": 100
    },
    {
      "midi": 78,
      "hit": false,
      "t": 85924.91407499983,
      "d": 53.571374999999534,
      "v": 90
    },
    {
      "midi": 83,
      "hit": false,
      "t": 85924.91407499983,
      "d": 53.571374999999534,
      "v": 90
    },
    {
      "midi": 78,
      "hit": false,
      "t": 86032.05682499985,
      "d": 53.571374999999534,
      "v": 90
    },
    {
      "midi": 83,
      "hit": false,
      "t": 86032.05682499985,
      "d": 53.571374999999534,
      "v": 90
    },
    {
      "midi": 12,
      "hit": false,
      "t": 86139.19957499944,
      "d": 53.571374999999534,
      "v": 110
    },
    {
      "midi": 42,
      "hit": false,
      "t": 86139.19957499944,
      "d": 53.571374999999534,
      "v": 100
    },
    {
      "midi": 117,
      "hit": false,
      "t": 86139.19957499944,
      "d": 53.571374999999534,
      "v": 110
    },
    {
      "midi": 28,
      "hit": false,
      "t": 86139.19957499982,
      "d": 321.4282499999972,
      "v": 115
    },
    {
      "midi": 83,
      "hit": false,
      "t": 86139.19957499983,
      "d": 53.571374999999534,
      "v": 90
    },
    {
      "midi": 78,
      "hit": false,
      "t": 86139.19957499983,
      "d": 53.571374999999534,
      "v": 90
    },
    {
      "midi": 42,
      "hit": false,
      "t": 86246.34232499944,
      "d": 53.571374999999534,
      "v": 100
    },
    {
      "midi": 78,
      "hit": false,
      "t": 86246.34232499985,
      "d": 53.571374999999534,
      "v": 90
    },
    {
      "midi": 83,
      "hit": false,
      "t": 86246.34232499985,
      "d": 53.571374999999534,
      "v": 90
    },
    {
      "midi": 42,
      "hit": false,
      "t": 86353.48507499944,
      "d": 53.571374999999534,
      "v": 100
    },
    {
      "midi": 70,
      "hit": false,
      "t": 86353.48507499944,
      "d": 53.571374999999534,
      "v": 100
    },
    {
      "midi": 78,
      "hit": false,
      "t": 86353.48507499983,
      "d": 53.571374999999534,
      "v": 90
    },
    {
      "midi": 83,
      "hit": false,
      "t": 86353.48507499983,
      "d": 53.571374999999534,
      "v": 90
    },
    {
      "midi": 35,
      "hit": false,
      "t": 86460.62782499981,
      "d": 107.14274999999907,
      "v": 115
    },
    {
      "midi": 78,
      "hit": false,
      "t": 86460.62782499984,
      "d": 53.571374999999534,
      "v": 90
    },
    {
      "midi": 83,
      "hit": false,
      "t": 86460.62782499984,
      "d": 53.571374999999534,
      "v": 90
    },
    {
      "midi": 12,
      "hit": false,
      "t": 86567.77057499943,
      "d": 53.571374999999534,
      "v": 110
    },
    {
      "midi": 42,
      "hit": false,
      "t": 86567.77057499943,
      "d": 53.571374999999534,
      "v": 100
    },
    {
      "midi": 40,
      "hit": false,
      "t": 86567.77057499981,
      "d": 192.85695000000123,
      "v": 115
    },
    {
      "midi": 78,
      "hit": false,
      "t": 86567.77057499983,
      "d": 53.571374999999534,
      "v": 90
    },
    {
      "midi": 83,
      "hit": false,
      "t": 86567.77057499983,
      "d": 53.571374999999534,
      "v": 90
    },
    {
      "midi": 78,
      "hit": false,
      "t": 86674.91332499983,
      "d": 53.571374999999534,
      "v": 90
    },
    {
      "midi": 83,
      "hit": false,
      "t": 86674.91332499983,
      "d": 53.571374999999534,
      "v": 90
    },
    {
      "midi": 42,
      "hit": false,
      "t": 86782.05607499943,
      "d": 53.571374999999534,
      "v": 100
    },
    {
      "midi": 70,
      "hit": false,
      "t": 86782.05607499943,
      "d": 53.571374999999534,
      "v": 100
    },
    {
      "midi": 28,
      "hit": false,
      "t": 86782.05607499981,
      "d": 192.85695000000123,
      "v": 115
    },
    {
      "midi": 78,
      "hit": false,
      "t": 86782.05607499983,
      "d": 53.571374999999534,
      "v": 90
    },
    {
      "midi": 83,
      "hit": false,
      "t": 86782.05607499983,
      "d": 53.571374999999534,
      "v": 90
    },
    {
      "midi": 83,
      "hit": false,
      "t": 86782.05607499994,
      "d": 214.28549999999814,
      "v": 110
    },
    {
      "midi": 83,
      "hit": false,
      "t": 86782.05607500001,
      "d": 214.28549999999814,
      "v": 80
    },
    {
      "midi": 71,
      "hit": false,
      "t": 86782.05607500001,
      "d": 214.28549999999814,
      "v": 80
    },
    {
      "midi": 78,
      "hit": false,
      "t": 86889.19882499982,
      "d": 53.571374999999534,
      "v": 90
    },
    {
      "midi": 83,
      "hit": false,
      "t": 86889.19882499982,
      "d": 53.571374999999534,
      "v": 90
    },
    {
      "midi": 12,
      "hit": false,
      "t": 86996.34157499943,
      "d": 53.571374999999534,
      "v": 110
    },
    {
      "midi": 42,
      "hit": false,
      "t": 86996.34157499943,
      "d": 53.571374999999534,
      "v": 100
    },
    {
      "midi": 35,
      "hit": false,
      "t": 86996.34157499981,
      "d": 192.85695000000123,
      "v": 115
    },
    {
      "midi": 78,
      "hit": false,
      "t": 86996.34157499982,
      "d": 53.571374999999534,
      "v": 90
    },
    {
      "midi": 83,
      "hit": false,
      "t": 86996.34157499982,
      "d": 53.571374999999534,
      "v": 90
    },
    {
      "midi": 86,
      "hit": false,
      "t": 86996.34157499994,
      "d": 214.28549999999814,
      "v": 110
    },
    {
      "midi": 86,
      "hit": false,
      "t": 86996.34157500001,
      "d": 214.28549999999814,
      "v": 80
    },
    {
      "midi": 74,
      "hit": false,
      "t": 86996.34157500001,
      "d": 214.28549999999814,
      "v": 80
    },
    {
      "midi": 42,
      "hit": false,
      "t": 87103.48432499943,
      "d": 53.571374999999534,
      "v": 100
    },
    {
      "midi": 78,
      "hit": false,
      "t": 87103.48432499982,
      "d": 53.571374999999534,
      "v": 90
    },
    {
      "midi": 83,
      "hit": false,
      "t": 87103.48432499982,
      "d": 53.571374999999534,
      "v": 90
    },
    {
      "midi": 42,
      "hit": false,
      "t": 87210.62707499943,
      "d": 53.571374999999534,
      "v": 100
    },
    {
      "midi": 70,
      "hit": false,
      "t": 87210.62707499943,
      "d": 53.571374999999534,
      "v": 100
    },
    {
      "midi": 28,
      "hit": false,
      "t": 87210.62707499981,
      "d": 192.85695000000123,
      "v": 115
    },
    {
      "midi": 78,
      "hit": false,
      "t": 87210.62707499982,
      "d": 53.571374999999534,
      "v": 90
    },
    {
      "midi": 83,
      "hit": false,
      "t": 87210.62707499982,
      "d": 53.571374999999534,
      "v": 90
    },
    {
      "midi": 90,
      "hit": false,
      "t": 87210.62707499994,
      "d": 214.28549999999814,
      "v": 110
    },
    {
      "midi": 90,
      "hit": false,
      "t": 87210.62707500001,
      "d": 214.28549999999814,
      "v": 80
    },
    {
      "midi": 78,
      "hit": false,
      "t": 87210.62707500001,
      "d": 214.28549999999814,
      "v": 80
    },
    {
      "midi": 78,
      "hit": false,
      "t": 87317.76982499982,
      "d": 53.571374999999534,
      "v": 90
    },
    {
      "midi": 83,
      "hit": false,
      "t": 87317.76982499982,
      "d": 53.571374999999534,
      "v": 90
    },
    {
      "midi": 12,
      "hit": false,
      "t": 87424.91257499943,
      "d": 53.571374999999534,
      "v": 110
    },
    {
      "midi": 42,
      "hit": false,
      "t": 87424.91257499943,
      "d": 53.571374999999534,
      "v": 100
    },
    {
      "midi": 33,
      "hit": false,
      "t": 87424.9125749998,
      "d": 385.71390000000247,
      "v": 115
    },
    {
      "midi": 78,
      "hit": false,
      "t": 87424.91257499982,
      "d": 53.571374999999534,
      "v": 90
    },
    {
      "midi": 83,
      "hit": false,
      "t": 87424.91257499982,
      "d": 53.571374999999534,
      "v": 90
    },
    {
      "midi": 45,
      "hit": false,
      "t": 87424.91257499986,
      "d": 1678.569749999995,
      "v": 100
    },
    {
      "midi": 45,
      "hit": false,
      "t": 87424.9125749999,
      "d": 1678.569749999995,
      "v": 100
    },
    {
      "midi": 95,
      "hit": false,
      "t": 87424.91257499994,
      "d": 214.28549999999814,
      "v": 110
    },
    {
      "midi": 95,
      "hit": false,
      "t": 87424.91257500001,
      "d": 428.5709999999963,
      "v": 80
    },
    {
      "midi": 83,
      "hit": false,
      "t": 87424.91257500001,
      "d": 428.5709999999963,
      "v": 80
    },
    {
      "midi": 57,
      "hit": false,
      "t": 87424.91257500005,
      "d": 1714.2839999999997,
      "v": 100
    },
    {
      "midi": 61,
      "hit": false,
      "t": 87424.91257500005,
      "d": 1714.2839999999997,
      "v": 100
    },
    {
      "midi": 52,
      "hit": false,
      "t": 87424.91257500005,
      "d": 1714.2839999999997,
      "v": 100
    },
    {
      "midi": 78,
      "hit": false,
      "t": 87532.05532499982,
      "d": 53.571374999999534,
      "v": 90
    },
    {
      "midi": 83,
      "hit": false,
      "t": 87532.05532499982,
      "d": 53.571374999999534,
      "v": 90
    },
    {
      "midi": 70,
      "hit": false,
      "t": 87639.19807499943,
      "d": 53.571374999999534,
      "v": 100
    },
    {
      "midi": 42,
      "hit": false,
      "t": 87639.19807499943,
      "d": 53.571374999999534,
      "v": 100
    },
    {
      "midi": 78,
      "hit": false,
      "t": 87639.19807499982,
      "d": 53.571374999999534,
      "v": 90
    },
    {
      "midi": 83,
      "hit": false,
      "t": 87639.19807499982,
      "d": 53.571374999999534,
      "v": 90
    },
    {
      "midi": 78,
      "hit": false,
      "t": 87746.34082499982,
      "d": 53.571374999999534,
      "v": 90
    },
    {
      "midi": 83,
      "hit": false,
      "t": 87746.34082499982,
      "d": 53.571374999999534,
      "v": 90
    },
    {
      "midi": 12,
      "hit": false,
      "t": 87853.48357499942,
      "d": 53.571374999999534,
      "v": 110
    },
    {
      "midi": 42,
      "hit": false,
      "t": 87853.48357499942,
      "d": 53.571374999999534,
      "v": 100
    },
    {
      "midi": 33,
      "hit": false,
      "t": 87853.4835749998,
      "d": 321.4282499999972,
      "v": 115
    },
    {
      "midi": 78,
      "hit": false,
      "t": 87853.48357499982,
      "d": 53.571374999999534,
      "v": 90
    },
    {
      "midi": 83,
      "hit": false,
      "t": 87853.48357499982,
      "d": 53.571374999999534,
      "v": 90
    },
    {
      "midi": 93,
      "hit": false,
      "t": 87853.48357499993,
      "d": 214.28549999999814,
      "v": 110
    },
    {
      "midi": 93,
      "hit": false,
      "t": 87853.483575,
      "d": 428.5709999999963,
      "v": 80
    },
    {
      "midi": 81,
      "hit": false,
      "t": 87853.483575,
      "d": 428.5709999999963,
      "v": 80
    },
    {
      "midi": 42,
      "hit": false,
      "t": 87960.62632499942,
      "d": 53.571374999999534,
      "v": 100
    },
    {
      "midi": 78,
      "hit": false,
      "t": 87960.62632499982,
      "d": 53.571374999999534,
      "v": 90
    },
    {
      "midi": 83,
      "hit": false,
      "t": 87960.62632499982,
      "d": 53.571374999999534,
      "v": 90
    },
    {
      "midi": 42,
      "hit": false,
      "t": 88067.76907499942,
      "d": 53.571374999999534,
      "v": 100
    },
    {
      "midi": 70,
      "hit": false,
      "t": 88067.76907499942,
      "d": 53.571374999999534,
      "v": 100
    },
    {
      "midi": 78,
      "hit": false,
      "t": 88067.76907499981,
      "d": 53.571374999999534,
      "v": 90
    },
    {
      "midi": 83,
      "hit": false,
      "t": 88067.76907499981,
      "d": 53.571374999999534,
      "v": 90
    },
    {
      "midi": 28,
      "hit": false,
      "t": 88174.9118249998,
      "d": 107.14274999999907,
      "v": 115
    },
    {
      "midi": 78,
      "hit": false,
      "t": 88174.91182499981,
      "d": 53.571374999999534,
      "v": 90
    },
    {
      "midi": 83,
      "hit": false,
      "t": 88174.91182499981,
      "d": 53.571374999999534,
      "v": 90
    },
    {
      "midi": 12,
      "hit": false,
      "t": 88282.05457499942,
      "d": 53.571374999999534,
      "v": 110
    },
    {
      "midi": 42,
      "hit": false,
      "t": 88282.05457499942,
      "d": 53.571374999999534,
      "v": 100
    },
    {
      "midi": 33,
      "hit": false,
      "t": 88282.0545749998,
      "d": 192.85695000000123,
      "v": 115
    },
    {
      "midi": 78,
      "hit": false,
      "t": 88282.05457499981,
      "d": 53.571374999999534,
      "v": 90
    },
    {
      "midi": 83,
      "hit": false,
      "t": 88282.05457499981,
      "d": 53.571374999999534,
      "v": 90
    },
    {
      "midi": 91,
      "hit": false,
      "t": 88282.05457499993,
      "d": 214.28549999999814,
      "v": 110
    },
    {
      "midi": 91,
      "hit": false,
      "t": 88282.054575,
      "d": 428.5709999999963,
      "v": 80
    },
    {
      "midi": 79,
      "hit": false,
      "t": 88282.054575,
      "d": 428.5709999999963,
      "v": 80
    },
    {
      "midi": 78,
      "hit": false,
      "t": 88389.19732499981,
      "d": 53.571374999999534,
      "v": 90
    },
    {
      "midi": 83,
      "hit": false,
      "t": 88389.19732499981,
      "d": 53.571374999999534,
      "v": 90
    },
    {
      "midi": 42,
      "hit": false,
      "t": 88496.34007499942,
      "d": 53.571374999999534,
      "v": 100
    },
    {
      "midi": 70,
      "hit": false,
      "t": 88496.34007499942,
      "d": 53.571374999999534,
      "v": 100
    },
    {
      "midi": 28,
      "hit": false,
      "t": 88496.3400749998,
      "d": 192.85695000000123,
      "v": 115
    },
    {
      "midi": 78,
      "hit": false,
      "t": 88496.34007499981,
      "d": 53.571374999999534,
      "v": 90
    },
    {
      "midi": 83,
      "hit": false,
      "t": 88496.34007499981,
      "d": 53.571374999999534,
      "v": 90
    },
    {
      "midi": 78,
      "hit": false,
      "t": 88603.48282499981,
      "d": 53.571374999999534,
      "v": 90
    },
    {
      "midi": 83,
      "hit": false,
      "t": 88603.48282499981,
      "d": 53.571374999999534,
      "v": 90
    },
    {
      "midi": 12,
      "hit": false,
      "t": 88710.62557499942,
      "d": 53.571374999999534,
      "v": 110
    },
    {
      "midi": 42,
      "hit": false,
      "t": 88710.62557499942,
      "d": 53.571374999999534,
      "v": 100
    },
    {
      "midi": 33,
      "hit": false,
      "t": 88710.6255749998,
      "d": 192.85695000000123,
      "v": 115
    },
    {
      "midi": 78,
      "hit": false,
      "t": 88710.62557499981,
      "d": 53.571374999999534,
      "v": 90
    },
    {
      "midi": 83,
      "hit": false,
      "t": 88710.62557499981,
      "d": 53.571374999999534,
      "v": 90
    },
    {
      "midi": 93,
      "hit": false,
      "t": 88710.62557499993,
      "d": 214.28549999999814,
      "v": 110
    },
    {
      "midi": 93,
      "hit": false,
      "t": 88710.625575,
      "d": 428.5709999999963,
      "v": 80
    },
    {
      "midi": 81,
      "hit": false,
      "t": 88710.625575,
      "d": 428.5709999999963,
      "v": 80
    },
    {
      "midi": 42,
      "hit": false,
      "t": 88817.76832499942,
      "d": 53.571374999999534,
      "v": 100
    },
    {
      "midi": 83,
      "hit": false,
      "t": 88817.76832499981,
      "d": 53.571374999999534,
      "v": 90
    },
    {
      "midi": 78,
      "hit": false,
      "t": 88817.76832499981,
      "d": 53.571374999999534,
      "v": 90
    },
    {
      "midi": 42,
      "hit": false,
      "t": 88924.91107499941,
      "d": 53.571374999999534,
      "v": 100
    },
    {
      "midi": 70,
      "hit": false,
      "t": 88924.91107499941,
      "d": 53.571374999999534,
      "v": 100
    },
    {
      "midi": 28,
      "hit": false,
      "t": 88924.91107499979,
      "d": 192.85695000000123,
      "v": 115
    },
    {
      "midi": 78,
      "hit": false,
      "t": 88924.9110749998,
      "d": 53.571374999999534,
      "v": 90
    },
    {
      "midi": 83,
      "hit": false,
      "t": 88924.9110749998,
      "d": 53.571374999999534,
      "v": 90
    },
    {
      "midi": 78,
      "hit": false,
      "t": 89032.0538249998,
      "d": 53.571374999999534,
      "v": 90
    },
    {
      "midi": 83,
      "hit": false,
      "t": 89032.0538249998,
      "d": 53.571374999999534,
      "v": 90
    },
    {
      "midi": 12,
      "hit": false,
      "t": 89139.19657499941,
      "d": 53.571374999999534,
      "v": 110
    },
    {
      "midi": 57,
      "hit": false,
      "t": 89139.19657499941,
      "d": 53.571374999999534,
      "v": 110
    },
    {
      "midi": 35,
      "hit": false,
      "t": 89139.19657499979,
      "d": 192.85695000000123,
      "v": 115
    },
    {
      "midi": 83,
      "hit": false,
      "t": 89139.1965749998,
      "d": 53.571374999999534,
      "v": 90
    },
    {
      "midi": 78,
      "hit": false,
      "t": 89139.1965749998,
      "d": 53.571374999999534,
      "v": 90
    },
    {
      "midi": 47,
      "hit": false,
      "t": 89139.19657499986,
      "d": 214.28549999999814,
      "v": 100
    },
    {
      "midi": 47,
      "hit": false,
      "t": 89139.19657499989,
      "d": 192.85695000000123,
      "v": 100
    },
    {
      "midi": 90,
      "hit": false,
      "t": 89139.19657499992,
      "d": 214.28549999999814,
      "v": 110
    },
    {
      "midi": 90,
      "hit": false,
      "t": 89139.196575,
      "d": 214.28549999999814,
      "v": 80
    },
    {
      "midi": 78,
      "hit": false,
      "t": 89139.196575,
      "d": 214.28549999999814,
      "v": 80
    },
    {
      "midi": 63,
      "hit": false,
      "t": 89139.19657500005,
      "d": 214.28549999999814,
      "v": 100
    },
    {
      "midi": 59,
      "hit": false,
      "t": 89139.19657500005,
      "d": 214.28549999999814,
      "v": 100
    },
    {
      "midi": 54,
      "hit": false,
      "t": 89139.19657500005,
      "d": 214.28549999999814,
      "v": 100
    },
    {
      "midi": 78,
      "hit": false,
      "t": 89246.3393249998,
      "d": 53.571374999999534,
      "v": 90
    },
    {
      "midi": 83,
      "hit": false,
      "t": 89246.3393249998,
      "d": 53.571374999999534,
      "v": 90
    },
    {
      "midi": 83,
      "hit": false,
      "t": 89353.4820749998,
      "d": 53.571374999999534,
      "v": 90
    },
    {
      "midi": 78,
      "hit": false,
      "t": 89353.4820749998,
      "d": 53.571374999999534,
      "v": 90
    },
    {
      "midi": 91,
      "hit": false,
      "t": 89353.482075,
      "d": 214.28549999999814,
      "v": 110
    },
    {
      "midi": 78,
      "hit": false,
      "t": 89460.62482499979,
      "d": 53.571374999999534,
      "v": 90
    },
    {
      "midi": 83,
      "hit": false,
      "t": 89460.62482499979,
      "d": 53.571374999999534,
      "v": 90
    },
    {
      "midi": 12,
      "hit": false,
      "t": 89567.76757499941,
      "d": 53.571374999999534,
      "v": 110
    },
    {
      "midi": 83,
      "hit": false,
      "t": 89567.7675749998,
      "d": 53.57137499998498,
      "v": 90
    },
    {
      "midi": 78,
      "hit": false,
      "t": 89567.7675749998,
      "d": 53.57137499998498,
      "v": 90
    },
    {
      "midi": 91,
      "hit": false,
      "t": 89567.767575,
      "d": 214.28549999999814,
      "v": 110
    },
    {
      "midi": 78,
      "hit": false,
      "t": 89674.91032499979,
      "d": 53.571374999999534,
      "v": 90
    },
    {
      "midi": 83,
      "hit": false,
      "t": 89674.91032499979,
      "d": 53.571374999999534,
      "v": 90
    },
    {
      "midi": 57,
      "hit": false,
      "t": 89782.0530749994,
      "d": 53.571374999999534,
      "v": 110
    },
    {
      "midi": 83,
      "hit": false,
      "t": 89782.05307499977,
      "d": 53.57137499998498,
      "v": 90
    },
    {
      "midi": 78,
      "hit": false,
      "t": 89782.05307499977,
      "d": 53.57137499998498,
      "v": 90
    },
    {
      "midi": 35,
      "hit": false,
      "t": 89782.05307499979,
      "d": 192.85695000000123,
      "v": 115
    },
    {
      "midi": 47,
      "hit": false,
      "t": 89782.05307499986,
      "d": 214.28549999999814,
      "v": 100
    },
    {
      "midi": 47,
      "hit": false,
      "t": 89782.05307499989,
      "d": 192.85695000000123,
      "v": 100
    },
    {
      "midi": 90,
      "hit": false,
      "t": 89782.05307499992,
      "d": 214.28549999999814,
      "v": 110
    },
    {
      "midi": 90,
      "hit": false,
      "t": 89782.05307499999,
      "d": 214.28549999999814,
      "v": 80
    },
    {
      "midi": 78,
      "hit": false,
      "t": 89782.05307499999,
      "d": 214.28549999999814,
      "v": 80
    },
    {
      "midi": 59,
      "hit": false,
      "t": 89782.05307500005,
      "d": 214.28549999999814,
      "v": 100
    },
    {
      "midi": 63,
      "hit": false,
      "t": 89782.05307500005,
      "d": 214.28549999999814,
      "v": 100
    },
    {
      "midi": 54,
      "hit": false,
      "t": 89782.05307500005,
      "d": 214.28549999999814,
      "v": 100
    },
    {
      "midi": 78,
      "hit": false,
      "t": 89889.19582499977,
      "d": 53.571374999999534,
      "v": 90
    },
    {
      "midi": 83,
      "hit": false,
      "t": 89889.19582499977,
      "d": 53.571374999999534,
      "v": 90
    },
    {
      "midi": 12,
      "hit": false,
      "t": 89996.33857499942,
      "d": 53.571374999999534,
      "v": 110
    },
    {
      "midi": 83,
      "hit": false,
      "t": 89996.33857499974,
      "d": 53.571374999999534,
      "v": 90
    },
    {
      "midi": 78,
      "hit": false,
      "t": 89996.33857499974,
      "d": 53.571374999999534,
      "v": 90
    },
    {
      "midi": 80,
      "hit": false,
      "t": 89996.338575,
      "d": 214.28549999999814,
      "v": 110
    },
    {
      "midi": 78,
      "hit": false,
      "t": 90103.48132499975,
      "d": 53.571374999999534,
      "v": 90
    },
    {
      "midi": 83,
      "hit": false,
      "t": 90103.48132499975,
      "d": 53.571374999999534,
      "v": 90
    },
    {
      "midi": 83,
      "hit": false,
      "t": 90210.62407499974,
      "d": 53.57137499998498,
      "v": 90
    },
    {
      "midi": 78,
      "hit": false,
      "t": 90210.62407499974,
      "d": 53.57137499998498,
      "v": 90
    },
    {
      "midi": 80,
      "hit": false,
      "t": 90210.624075,
      "d": 214.28549999999814,
      "v": 110
    },
    {
      "midi": 78,
      "hit": false,
      "t": 90317.76682499975,
      "d": 53.57137499998498,
      "v": 90
    },
    {
      "midi": 83,
      "hit": false,
      "t": 90317.76682499975,
      "d": 53.57137499998498,
      "v": 90
    },
    {
      "midi": 12,
      "hit": false,
      "t": 90424.90957499942,
      "d": 53.571374999999534,
      "v": 110
    },
    {
      "midi": 57,
      "hit": false,
      "t": 90424.90957499942,
      "d": 53.571374999999534,
      "v": 110
    },
    {
      "midi": 83,
      "hit": false,
      "t": 90424.90957499972,
      "d": 53.571374999999534,
      "v": 90
    },
    {
      "midi": 78,
      "hit": false,
      "t": 90424.90957499972,
      "d": 53.571374999999534,
      "v": 90
    },
    {
      "midi": 35,
      "hit": false,
      "t": 90424.90957499978,
      "d": 5571.423000000403,
      "v": 115
    },
    {
      "midi": 47,
      "hit": false,
      "t": 90424.90957499985,
      "d": 5571.423000000461,
      "v": 100
    },
    {
      "midi": 47,
      "hit": false,
      "t": 90424.90957499988,
      "d": 5571.423000000461,
      "v": 100
    },
    {
      "midi": 35,
      "hit": false,
      "t": 90424.90957499988,
      "d": 5571.423000000461,
      "v": 100
    },
    {
      "midi": 90,
      "hit": false,
      "t": 90424.90957499991,
      "d": 214.28549999999814,
      "v": 110
    },
    {
      "midi": 90,
      "hit": false,
      "t": 90424.90957499998,
      "d": 5571.423000000461,
      "v": 80
    },
    {
      "midi": 78,
      "hit": false,
      "t": 90424.90957499998,
      "d": 5571.423000000548,
      "v": 80
    },
    {
      "midi": 78,
      "hit": false,
      "t": 90424.909575,
      "d": 214.28549999999814,
      "v": 110
    },
    {
      "midi": 63,
      "hit": false,
      "t": 90424.90957500004,
      "d": 5571.423000000432,
      "v": 100
    },
    {
      "midi": 59,
      "hit": false,
      "t": 90424.90957500004,
      "d": 5571.423000000432,
      "v": 100
    },
    {
      "midi": 54,
      "hit": false,
      "t": 90424.90957500004,
      "d": 5571.423000000432,
      "v": 100
    },
    {
      "midi": 78,
      "hit": false,
      "t": 90532.05232499973,
      "d": 53.571374999999534,
      "v": 90
    },
    {
      "midi": 83,
      "hit": false,
      "t": 90532.05232499973,
      "d": 53.571374999999534,
      "v": 90
    },
    {
      "midi": 83,
      "hit": false,
      "t": 90639.1950749997,
      "d": 53.571374999999534,
      "v": 90
    },
    {
      "midi": 78,
      "hit": false,
      "t": 90639.1950749997,
      "d": 53.571374999999534,
      "v": 90
    },
    {
      "midi": 78,
      "hit": false,
      "t": 90746.33782499972,
      "d": 53.571374999999534,
      "v": 90
    },
    {
      "midi": 83,
      "hit": false,
      "t": 90746.33782499972,
      "d": 53.571374999999534,
      "v": 90
    },
    {
      "midi": 83,
      "hit": false,
      "t": 90853.4805749997,
      "d": 53.571374999999534,
      "v": 90
    },
    {
      "midi": 78,
      "hit": false,
      "t": 90853.4805749997,
      "d": 53.571374999999534,
      "v": 90
    },
    {
      "midi": 78,
      "hit": false,
      "t": 90960.6233249997,
      "d": 53.571374999999534,
      "v": 90
    },
    {
      "midi": 83,
      "hit": false,
      "t": 90960.6233249997,
      "d": 53.571374999999534,
      "v": 90
    },
    {
      "midi": 83,
      "hit": false,
      "t": 91067.7660749997,
      "d": 53.571374999999534,
      "v": 90
    },
    {
      "midi": 78,
      "hit": false,
      "t": 91067.7660749997,
      "d": 53.571374999999534,
      "v": 90
    },
    {
      "midi": 78,
      "hit": false,
      "t": 91174.90882499969,
      "d": 53.57137499998498,
      "v": 90
    },
    {
      "midi": 83,
      "hit": false,
      "t": 91174.90882499969,
      "d": 53.57137499998498,
      "v": 90
    },
    {
      "midi": 83,
      "hit": false,
      "t": 91282.0515749997,
      "d": 53.571374999999534,
      "v": 90
    },
    {
      "midi": 78,
      "hit": false,
      "t": 91282.0515749997,
      "d": 53.571374999999534,
      "v": 90
    },
    {
      "midi": 78,
      "hit": false,
      "t": 91389.19432499965,
      "d": 53.571374999999534,
      "v": 90
    },
    {
      "midi": 83,
      "hit": false,
      "t": 91389.19432499965,
      "d": 53.571374999999534,
      "v": 90
    },
    {
      "midi": 83,
      "hit": false,
      "t": 91496.3370749997,
      "d": 53.571374999999534,
      "v": 90
    },
    {
      "midi": 78,
      "hit": false,
      "t": 91496.3370749997,
      "d": 53.571374999999534,
      "v": 90
    },
    {
      "midi": 78,
      "hit": false,
      "t": 91603.47982499964,
      "d": 53.571374999999534,
      "v": 90
    },
    {
      "midi": 83,
      "hit": false,
      "t": 91603.47982499964,
      "d": 53.571374999999534,
      "v": 90
    },
    {
      "midi": 83,
      "hit": false,
      "t": 91710.62257499968,
      "d": 53.57137499998498,
      "v": 90
    },
    {
      "midi": 78,
      "hit": false,
      "t": 91710.62257499968,
      "d": 53.57137499998498,
      "v": 90
    },
    {
      "midi": 78,
      "hit": false,
      "t": 91817.76532499962,
      "d": 53.571374999999534,
      "v": 90
    },
    {
      "midi": 83,
      "hit": false,
      "t": 91817.76532499962,
      "d": 53.571374999999534,
      "v": 90
    },
    {
      "midi": 83,
      "hit": false,
      "t": 91924.90807499966,
      "d": 53.571374999999534,
      "v": 90
    },
    {
      "midi": 78,
      "hit": false,
      "t": 91924.90807499966,
      "d": 53.571374999999534,
      "v": 90
    },
    {
      "midi": 78,
      "hit": false,
      "t": 92032.05082499962,
      "d": 53.57137499998498,
      "v": 90
    },
    {
      "midi": 83,
      "hit": false,
      "t": 92032.05082499962,
      "d": 53.57137499998498,
      "v": 90
    },
    {
      "midi": 83,
      "hit": false,
      "t": 92139.19357499966,
      "d": 53.571374999999534,
      "v": 90
    },
    {
      "midi": 78,
      "hit": false,
      "t": 92139.19357499966,
      "d": 53.571374999999534,
      "v": 90
    },
    {
      "midi": 83,
      "hit": false,
      "t": 92246.3363249996,
      "d": 53.571374999999534,
      "v": 90
    },
    {
      "midi": 78,
      "hit": false,
      "t": 92246.3363249996,
      "d": 53.571374999999534,
      "v": 90
    },
    {
      "midi": 83,
      "hit": false,
      "t": 92353.47907499966,
      "d": 53.571374999999534,
      "v": 90
    },
    {
      "midi": 78,
      "hit": false,
      "t": 92353.47907499966,
      "d": 53.571374999999534,
      "v": 90
    },
    {
      "midi": 78,
      "hit": false,
      "t": 92460.62182499959,
      "d": 53.571374999999534,
      "v": 90
    },
    {
      "midi": 83,
      "hit": false,
      "t": 92460.62182499959,
      "d": 53.571374999999534,
      "v": 90
    },
    {
      "midi": 78,
      "hit": false,
      "t": 92567.76457499966,
      "d": 53.571374999999534,
      "v": 90
    },
    {
      "midi": 83,
      "hit": false,
      "t": 92567.76457499966,
      "d": 53.571374999999534,
      "v": 90
    },
    {
      "midi": 78,
      "hit": false,
      "t": 92674.90732499957,
      "d": 53.571374999999534,
      "v": 90
    },
    {
      "midi": 83,
      "hit": false,
      "t": 92674.90732499957,
      "d": 53.571374999999534,
      "v": 90
    },
    {
      "midi": 78,
      "hit": false,
      "t": 92782.05007499966,
      "d": 53.571374999999534,
      "v": 90
    },
    {
      "midi": 83,
      "hit": false,
      "t": 92782.05007499966,
      "d": 53.571374999999534,
      "v": 90
    },
    {
      "midi": 78,
      "hit": false,
      "t": 92889.19282499955,
      "d": 53.57137499998498,
      "v": 90
    },
    {
      "midi": 83,
      "hit": false,
      "t": 92889.19282499955,
      "d": 53.57137499998498,
      "v": 90
    },
    {
      "midi": 78,
      "hit": false,
      "t": 92996.33557499966,
      "d": 53.571374999999534,
      "v": 90
    },
    {
      "midi": 83,
      "hit": false,
      "t": 92996.33557499966,
      "d": 53.571374999999534,
      "v": 90
    },
    {
      "midi": 78,
      "hit": false,
      "t": 93103.47832499952,
      "d": 53.571374999999534,
      "v": 90
    },
    {
      "midi": 83,
      "hit": false,
      "t": 93103.47832499952,
      "d": 53.571374999999534,
      "v": 90
    },
    {
      "midi": 78,
      "hit": false,
      "t": 93210.62107499965,
      "d": 53.571374999999534,
      "v": 90
    },
    {
      "midi": 83,
      "hit": false,
      "t": 93210.62107499965,
      "d": 53.571374999999534,
      "v": 90
    },
    {
      "midi": 78,
      "hit": false,
      "t": 93317.7638249995,
      "d": 53.571374999999534,
      "v": 90
    },
    {
      "midi": 83,
      "hit": false,
      "t": 93317.7638249995,
      "d": 53.571374999999534,
      "v": 90
    },
    {
      "midi": 78,
      "hit": false,
      "t": 93424.90657499965,
      "d": 53.571374999999534,
      "v": 90
    },
    {
      "midi": 83,
      "hit": false,
      "t": 93424.90657499965,
      "d": 53.571374999999534,
      "v": 90
    },
    {
      "midi": 78,
      "hit": false,
      "t": 93532.04932499949,
      "d": 53.571374999999534,
      "v": 90
    },
    {
      "midi": 83,
      "hit": false,
      "t": 93532.04932499949,
      "d": 53.571374999999534,
      "v": 90
    },
    {
      "midi": 78,
      "hit": false,
      "t": 93639.19207499965,
      "d": 53.571374999999534,
      "v": 90
    },
    {
      "midi": 83,
      "hit": false,
      "t": 93639.19207499965,
      "d": 53.571374999999534,
      "v": 90
    },
    {
      "midi": 78,
      "hit": false,
      "t": 93746.33482499949,
      "d": 53.57137499998498,
      "v": 90
    },
    {
      "midi": 83,
      "hit": false,
      "t": 93746.33482499949,
      "d": 53.57137499998498,
      "v": 90
    },
    {
      "midi": 78,
      "hit": false,
      "t": 93853.47757499963,
      "d": 53.571374999999534,
      "v": 90
    },
    {
      "midi": 83,
      "hit": false,
      "t": 93853.47757499963,
      "d": 53.571374999999534,
      "v": 90
    },
    {
      "midi": 83,
      "hit": false,
      "t": 93960.62032499947,
      "d": 53.571374999999534,
      "v": 90
    },
    {
      "midi": 78,
      "hit": false,
      "t": 93960.62032499947,
      "d": 53.571374999999534,
      "v": 90
    },
    {
      "midi": 78,
      "hit": false,
      "t": 94067.76307499963,
      "d": 53.571374999999534,
      "v": 90
    },
    {
      "midi": 83,
      "hit": false,
      "t": 94067.76307499963,
      "d": 53.571374999999534,
      "v": 90
    },
    {
      "midi": 78,
      "hit": false,
      "t": 94174.90582499946,
      "d": 53.571374999999534,
      "v": 90
    },
    {
      "midi": 83,
      "hit": false,
      "t": 94174.90582499946,
      "d": 53.571374999999534,
      "v": 90
    },
    {
      "midi": 78,
      "hit": false,
      "t": 94282.04857499963,
      "d": 53.571374999999534,
      "v": 90
    },
    {
      "midi": 83,
      "hit": false,
      "t": 94282.04857499963,
      "d": 53.571374999999534,
      "v": 90
    },
    {
      "midi": 78,
      "hit": false,
      "t": 94389.19132499944,
      "d": 53.571374999999534,
      "v": 90
    },
    {
      "midi": 83,
      "hit": false,
      "t": 94389.19132499944,
      "d": 53.571374999999534,
      "v": 90
    },
    {
      "midi": 78,
      "hit": false,
      "t": 94496.33407499963,
      "d": 53.571374999999534,
      "v": 90
    },
    {
      "midi": 83,
      "hit": false,
      "t": 94496.33407499963,
      "d": 53.571374999999534,
      "v": 90
    },
    {
      "midi": 78,
      "hit": false,
      "t": 94603.47682499942,
      "d": 53.57137499998498,
      "v": 90
    },
    {
      "midi": 83,
      "hit": false,
      "t": 94603.47682499942,
      "d": 53.57137499998498,
      "v": 90
    },
    {
      "midi": 78,
      "hit": false,
      "t": 94710.61957499961,
      "d": 53.571374999999534,
      "v": 90
    },
    {
      "midi": 83,
      "hit": false,
      "t": 94710.61957499961,
      "d": 53.571374999999534,
      "v": 90
    },
    {
      "midi": 78,
      "hit": false,
      "t": 94817.76232499939,
      "d": 53.571374999999534,
      "v": 90
    },
    {
      "midi": 83,
      "hit": false,
      "t": 94817.76232499939,
      "d": 53.571374999999534,
      "v": 90
    },
    {
      "midi": 78,
      "hit": false,
      "t": 94924.90507499961,
      "d": 53.57137499998498,
      "v": 90
    },
    {
      "midi": 83,
      "hit": false,
      "t": 94924.90507499961,
      "d": 53.57137499998498,
      "v": 90
    },
    {
      "midi": 78,
      "hit": false,
      "t": 95032.04782499938,
      "d": 53.571374999999534,
      "v": 90
    },
    {
      "midi": 83,
      "hit": false,
      "t": 95032.04782499938,
      "d": 53.571374999999534,
      "v": 90
    },
    {
      "midi": 78,
      "hit": false,
      "t": 95139.1905749996,
      "d": 53.571374999999534,
      "v": 90
    },
    {
      "midi": 83,
      "hit": false,
      "t": 95139.1905749996,
      "d": 53.571374999999534,
      "v": 90
    },
    {
      "midi": 78,
      "hit": false,
      "t": 95246.33332499936,
      "d": 53.571374999999534,
      "v": 90
    },
    {
      "midi": 83,
      "hit": false,
      "t": 95246.33332499936,
      "d": 53.571374999999534,
      "v": 90
    },
    {
      "midi": 78,
      "hit": false,
      "t": 95353.47607499959,
      "d": 53.571374999999534,
      "v": 90
    },
    {
      "midi": 83,
      "hit": false,
      "t": 95353.47607499959,
      "d": 53.571374999999534,
      "v": 90
    },
    {
      "midi": 78,
      "hit": false,
      "t": 95460.61882499936,
      "d": 53.57137499998498,
      "v": 90
    },
    {
      "midi": 83,
      "hit": false,
      "t": 95460.61882499936,
      "d": 53.57137499998498,
      "v": 90
    },
    {
      "midi": 78,
      "hit": false,
      "t": 95567.76157499957,
      "d": 53.571374999999534,
      "v": 90
    },
    {
      "midi": 83,
      "hit": false,
      "t": 95567.76157499957,
      "d": 53.571374999999534,
      "v": 90
    },
    {
      "midi": 83,
      "hit": false,
      "t": 95674.90432499934,
      "d": 53.571374999999534,
      "v": 90
    },
    {
      "midi": 78,
      "hit": false,
      "t": 95674.90432499934,
      "d": 53.571374999999534,
      "v": 90
    },
    {
      "midi": 78,
      "hit": false,
      "t": 95782.04707499959,
      "d": 53.571374999999534,
      "v": 90
    },
    {
      "midi": 83,
      "hit": false,
      "t": 95782.04707499959,
      "d": 53.571374999999534,
      "v": 90
    },
    {
      "midi": 78,
      "hit": false,
      "t": 95889.18982499932,
      "d": 53.571374999999534,
      "v": 90
    },
    {
      "midi": 83,
      "hit": false,
      "t": 95889.18982499932,
      "d": 53.571374999999534,
      "v": 90
    }
  ]
}