{
  "jsonPath": "Rock/Country Rock/Aaron Tippin/there-aint-nothin-wrong-with-the-radio.json",
  "path": "Rock\\Country Rock\\Aaron Tippin\\There Aint Nothin Wrong With The Radio.mid",
  "name": "There Aint Nothin Wrong With The Radio",
  "difficulty": "Advanced",
  "bpm": 132.000132000132,
  "notes": [
    {
      "midi": 61,
      "hit": false,
      "t": 8887.30171875,
      "d": 1040.7186562499992,
      "v": 92
    },
    {
      "midi": 52,
      "hit": false,
      "t": 8887.30171875,
      "d": 1064.3928749999995,
      "v": 90
    },
    {
      "midi": 64,
      "hit": false,
      "t": 8894.87746875,
      "d": 943.180875,
      "v": 100
    },
    {
      "midi": 57,
      "hit": false,
      "t": 8894.87746875,
      "d": 1039.7716874999987,
      "v": 100
    },
    {
      "midi": 64,
      "hit": false,
      "t": 10456.4289375,
      "d": 435.60562500000015,
      "v": 75
    },
    {
      "midi": 52,
      "hit": false,
      "t": 10460.2168125,
      "d": 442.23440624999967,
      "v": 72
    },
    {
      "midi": 56,
      "hit": false,
      "t": 10460.2168125,
      "d": 449.81015624999964,
      "v": 79
    },
    {
      "midi": 59,
      "hit": false,
      "t": 10460.2168125,
      "d": 449.81015624999964,
      "v": 76
    },
    {
      "midi": 61,
      "hit": false,
      "t": 11383.51134375,
      "d": 439.39350000000013,
      "v": 76
    },
    {
      "midi": 57,
      "hit": false,
      "t": 11383.51134375,
      "d": 456.438937500001,
      "v": 80
    },
    {
      "midi": 64,
      "hit": false,
      "t": 11383.51134375,
      "d": 477.2722500000018,
      "v": 72
    },
    {
      "midi": 52,
      "hit": false,
      "t": 11390.140125,
      "d": 453.59803125000144,
      "v": 64
    },
    {
      "midi": 64,
      "hit": false,
      "t": 12275.555906250001,
      "d": 278.40881249999984,
      "v": 73
    },
    {
      "midi": 52,
      "hit": false,
      "t": 12275.555906250001,
      "d": 288.82546874999935,
      "v": 70
    },
    {
      "midi": 56,
      "hit": false,
      "t": 12275.555906250001,
      "d": 367.4238749999986,
      "v": 66
    },
    {
      "midi": 59,
      "hit": false,
      "t": 12275.555906250001,
      "d": 405.30262499999844,
      "v": 70
    },
    {
      "midi": 52,
      "hit": false,
      "t": 12735.78271875,
      "d": 247.1588437499995,
      "v": 88
    },
    {
      "midi": 56,
      "hit": false,
      "t": 12735.78271875,
      "d": 257.575499999999,
      "v": 75
    },
    {
      "midi": 64,
      "hit": false,
      "t": 12735.78271875,
      "d": 257.575499999999,
      "v": 103
    },
    {
      "midi": 59,
      "hit": false,
      "t": 12735.78271875,
      "d": 281.2497187499994,
      "v": 82
    },
    {
      "midi": 54,
      "hit": false,
      "t": 14778.3943125,
      "d": 126.89381250000224,
      "v": 73
    },
    {
      "midi": 63,
      "hit": false,
      "t": 14795.439750000001,
      "d": 96.59081250000054,
      "v": 73
    },
    {
      "midi": 59,
      "hit": false,
      "t": 14795.439750000001,
      "d": 144.88621875000172,
      "v": 79
    },
    {
      "midi": 54,
      "hit": false,
      "t": 15001.878937500003,
      "d": 109.8483750000014,
      "v": 82
    },
    {
      "midi": 63,
      "hit": false,
      "t": 15022.712250000004,
      "d": 102.27262500000143,
      "v": 76
    },
    {
      "midi": 59,
      "hit": false,
      "t": 15022.712250000004,
      "d": 150.5680312500008,
      "v": 79
    },
    {
      "midi": 54,
      "hit": false,
      "t": 15228.204468750006,
      "d": 113.63624999999956,
      "v": 68
    },
    {
      "midi": 63,
      "hit": false,
      "t": 15238.621125000005,
      "d": 103.21959375000006,
      "v": 76
    },
    {
      "midi": 59,
      "hit": false,
      "t": 15238.621125000005,
      "d": 158.14378125000076,
      "v": 70
    },
    {
      "midi": 54,
      "hit": false,
      "t": 15447.901218750007,
      "d": 124.05290624999907,
      "v": 85
    },
    {
      "midi": 63,
      "hit": false,
      "t": 15454.530000000006,
      "d": 117.42412499999955,
      "v": 79
    },
    {
      "midi": 59,
      "hit": false,
      "t": 15458.317875000006,
      "d": 168.56043750000026,
      "v": 75
    },
    {
      "midi": 63,
      "hit": false,
      "t": 15681.802500000007,
      "d": 112.68928124999911,
      "v": 82
    },
    {
      "midi": 54,
      "hit": false,
      "t": 15681.802500000007,
      "d": 120.26503124999908,
      "v": 75
    },
    {
      "midi": 59,
      "hit": false,
      "t": 15684.643406250007,
      "d": 164.77256250000028,
      "v": 80
    },
    {
      "midi": 54,
      "hit": false,
      "t": 15911.915906250008,
      "d": 119.31806249999863,
      "v": 96
    },
    {
      "midi": 63,
      "hit": false,
      "t": 15911.915906250008,
      "d": 129.73471874999814,
      "v": 100
    },
    {
      "midi": 59,
      "hit": false,
      "t": 15918.544687500007,
      "d": 178.03012499999932,
      "v": 88
    },
    {
      "midi": 54,
      "hit": false,
      "t": 16131.612656250007,
      "d": 195.07556250000016,
      "v": 108
    },
    {
      "midi": 63,
      "hit": false,
      "t": 16131.612656250007,
      "d": 222.5376562500005,
      "v": 100
    },
    {
      "midi": 59,
      "hit": false,
      "t": 16131.612656250007,
      "d": 260.4164062500022,
      "v": 95
    },
    {
      "midi": 64,
      "hit": false,
      "t": 16835.21043750001,
      "d": 387.3102187500008,
      "v": 76
    },
    {
      "midi": 52,
      "hit": false,
      "t": 16835.21043750001,
      "d": 411.9314062500016,
      "v": 88
    },
    {
      "midi": 59,
      "hit": false,
      "t": 16835.21043750001,
      "d": 414.77231250000114,
      "v": 95
    },
    {
      "midi": 56,
      "hit": false,
      "t": 16838.05134375001,
      "d": 409.09050000000207,
      "v": 85
    },
    {
      "midi": 59,
      "hit": false,
      "t": 17744.30043750001,
      "d": 439.3935000000056,
      "v": 82
    },
    {
      "midi": 64,
      "hit": false,
      "t": 17748.08831250001,
      "d": 415.7192812500034,
      "v": 79
    },
    {
      "midi": 56,
      "hit": false,
      "t": 17751.876187500013,
      "d": 428.97684375000244,
      "v": 68
    },
    {
      "midi": 52,
      "hit": false,
      "t": 17758.504968750014,
      "d": 415.71928124999977,
      "v": 68
    },
    {
      "midi": 52,
      "hit": false,
      "t": 18650.549531250013,
      "d": 419.5071562500016,
      "v": 72
    },
    {
      "midi": 59,
      "hit": false,
      "t": 18650.549531250013,
      "d": 436.5525937500024,
      "v": 73
    },
    {
      "midi": 64,
      "hit": false,
      "t": 18650.549531250013,
      "d": 436.5525937500024,
      "v": 68
    },
    {
      "midi": 56,
      "hit": false,
      "t": 18658.125281250013,
      "d": 418.56018750000294,
      "v": 72
    },
    {
      "midi": 59,
      "hit": false,
      "t": 19547.328937500017,
      "d": 446.02228124999965,
      "v": 70
    },
    {
      "midi": 64,
      "hit": false,
      "t": 19557.745593750016,
      "d": 393.9389999999985,
      "v": 59
    },
    {
      "midi": 56,
      "hit": false,
      "t": 19557.745593750016,
      "d": 428.9768437499988,
      "v": 64
    },
    {
      "midi": 52,
      "hit": false,
      "t": 19571.003156250015,
      "d": 398.6738437499989,
      "v": 59
    },
    {
      "midi": 64,
      "hit": false,
      "t": 20470.62346875002,
      "d": 394.88596875000076,
      "v": 72
    },
    {
      "midi": 52,
      "hit": false,
      "t": 20477.25225000002,
      "d": 405.30262500000026,
      "v": 72
    },
    {
      "midi": 56,
      "hit": false,
      "t": 20477.25225000002,
      "d": 411.9314062500016,
      "v": 75
    },
    {
      "midi": 59,
      "hit": false,
      "t": 20477.25225000002,
      "d": 415.7192812500034,
      "v": 75
    },
    {
      "midi": 59,
      "hit": false,
      "t": 21370.24378125002,
      "d": 431.81774999999834,
      "v": 72
    },
    {
      "midi": 64,
      "hit": false,
      "t": 21373.08468750002,
      "d": 415.71928124999977,
      "v": 75
    },
    {
      "midi": 56,
      "hit": false,
      "t": 21373.08468750002,
      "d": 426.1359374999993,
      "v": 66
    },
    {
      "midi": 52,
      "hit": false,
      "t": 21383.50134375002,
      "d": 418.5601874999993,
      "v": 53
    },
    {
      "midi": 59,
      "hit": false,
      "t": 22279.333781250018,
      "d": 429.9238125000047,
      "v": 73
    },
    {
      "midi": 52,
      "hit": false,
      "t": 22283.12165625002,
      "d": 411.9314062500016,
      "v": 72
    },
    {
      "midi": 56,
      "hit": false,
      "t": 22283.12165625002,
      "d": 411.9314062500016,
      "v": 68
    },
    {
      "midi": 64,
      "hit": false,
      "t": 22289.75043750002,
      "d": 422.3480625000011,
      "v": 68
    },
    {
      "midi": 64,
      "hit": false,
      "t": 23178.95409375002,
      "d": 357.0072187500009,
      "v": 75
    },
    {
      "midi": 59,
      "hit": false,
      "t": 23182.741968750022,
      "d": 408.1435312499998,
      "v": 79
    },
    {
      "midi": 52,
      "hit": false,
      "t": 23182.741968750022,
      "d": 411.9314062500016,
      "v": 72
    },
    {
      "midi": 56,
      "hit": false,
      "t": 23182.741968750022,
      "d": 414.77231250000114,
      "v": 72
    },
    {
      "midi": 52,
      "hit": false,
      "t": 24085.203187500025,
      "d": 460.22681250000096,
      "v": 92
    },
    {
      "midi": 61,
      "hit": false,
      "t": 24085.203187500025,
      "d": 460.22681250000096,
      "v": 70
    },
    {
      "midi": 64,
      "hit": false,
      "t": 24085.203187500025,
      "d": 487.6889062500013,
      "v": 79
    },
    {
      "midi": 57,
      "hit": false,
      "t": 24092.778937500025,
      "d": 469.69650000000183,
      "v": 82
    },
    {
      "midi": 54,
      "hit": false,
      "t": 25001.868937500025,
      "d": 409.0904999999984,
      "v": 73
    },
    {
      "midi": 63,
      "hit": false,
      "t": 25001.868937500025,
      "d": 409.0904999999984,
      "v": 85
    },
    {
      "midi": 59,
      "hit": false,
      "t": 25001.868937500025,
      "d": 436.5525937499988,
      "v": 95
    },
    {
      "midi": 64,
      "hit": false,
      "t": 25915.693781250025,
      "d": 425.18896875000064,
      "v": 70
    },
    {
      "midi": 56,
      "hit": false,
      "t": 25918.534687500025,
      "d": 422.3480625000011,
      "v": 73
    },
    {
      "midi": 59,
      "hit": false,
      "t": 25918.534687500025,
      "d": 426.1359375000029,
      "v": 72
    },
    {
      "midi": 52,
      "hit": false,
      "t": 25918.534687500025,
      "d": 428.97684375000244,
      "v": 72
    },
    {
      "midi": 64,
      "hit": false,
      "t": 26814.367125000026,
      "d": 206.43918750000012,
      "v": 73
    },
    {
      "midi": 52,
      "hit": false,
      "t": 26814.367125000026,
      "d": 254.73459374999948,
      "v": 75
    },
    {
      "midi": 56,
      "hit": false,
      "t": 26818.155000000028,
      "d": 264.2042812499967,
      "v": 72
    },
    {
      "midi": 59,
      "hit": false,
      "t": 26818.155000000028,
      "d": 316.2875624999979,
      "v": 72
    },
    {
      "midi": 56,
      "hit": false,
      "t": 27267.965156250026,
      "d": 202.6513124999983,
      "v": 90
    },
    {
      "midi": 59,
      "hit": false,
      "t": 27267.965156250026,
      "d": 213.06796874999782,
      "v": 92
    },
    {
      "midi": 52,
      "hit": false,
      "t": 27267.965156250026,
      "d": 215.90887499999735,
      "v": 82
    },
    {
      "midi": 64,
      "hit": false,
      "t": 27267.965156250026,
      "d": 226.32553124999686,
      "v": 88
    },
    {
      "midi": 63,
      "hit": false,
      "t": 29090.880000000023,
      "d": 146.78015624999898,
      "v": 93
    },
    {
      "midi": 54,
      "hit": false,
      "t": 29090.880000000023,
      "d": 178.0301249999975,
      "v": 89
    },
    {
      "midi": 59,
      "hit": false,
      "t": 29090.880000000023,
      "d": 215.90887499999735,
      "v": 106
    },
    {
      "midi": 54,
      "hit": false,
      "t": 29539.74318750002,
      "d": 155.30287500000122,
      "v": 108
    },
    {
      "midi": 59,
      "hit": false,
      "t": 29539.74318750002,
      "d": 202.65131250000195,
      "v": 106
    },
    {
      "midi": 63,
      "hit": false,
      "t": 29547.31893750002,
      "d": 157.19681250000212,
      "v": 106
    },
    {
      "midi": 56,
      "hit": false,
      "t": 31373.07468750002,
      "d": 432.76471875000425,
      "v": 66
    },
    {
      "midi": 64,
      "hit": false,
      "t": 31376.86256250002,
      "d": 401.5147500000021,
      "v": 79
    },
    {
      "midi": 59,
      "hit": false,
      "t": 31376.86256250002,
      "d": 428.97684375000244,
      "v": 73
    },
    {
      "midi": 52,
      "hit": false,
      "t": 31380.650437500022,
      "d": 425.18896875000064,
      "v": 75
    },
    {
      "midi": 59,
      "hit": false,
      "t": 32286.899531250023,
      "d": 452.651062500001,
      "v": 72
    },
    {
      "midi": 64,
      "hit": false,
      "t": 32289.740437500022,
      "d": 422.3480625000011,
      "v": 72
    },
    {
      "midi": 56,
      "hit": false,
      "t": 32293.528312500024,
      "d": 435.60562500000015,
      "v": 70
    },
    {
      "midi": 52,
      "hit": false,
      "t": 32296.369218750024,
      "d": 446.9692500000019,
      "v": 73
    },
    {
      "midi": 59,
      "hit": false,
      "t": 33195.98953125002,
      "d": 426.1359375000029,
      "v": 76
    },
    {
      "midi": 64,
      "hit": false,
      "t": 33195.98953125002,
      "d": 432.76471875000425,
      "v": 76
    },
    {
      "midi": 52,
      "hit": false,
      "t": 33203.56528125003,
      "d": 418.5601874999993,
      "v": 72
    },
    {
      "midi": 56,
      "hit": false,
      "t": 33206.406187500026,
      "d": 405.3026249999966,
      "v": 68
    },
    {
      "midi": 59,
      "hit": false,
      "t": 34091.821968750024,
      "d": 449.8101562499942,
      "v": 72
    },
    {
      "midi": 64,
      "hit": false,
      "t": 34091.821968750024,
      "d": 457.3859062499978,
      "v": 79
    },
    {
      "midi": 56,
      "hit": false,
      "t": 34106.02650000002,
      "d": 435.6056249999965,
      "v": 70
    },
    {
      "midi": 52,
      "hit": false,
      "t": 34106.02650000002,
      "d": 439.3934999999983,
      "v": 68
    },
    {
      "midi": 64,
      "hit": false,
      "t": 35029.32103125002,
      "d": 391.09809374999895,
      "v": 76
    },
    {
      "midi": 52,
      "hit": false,
      "t": 35029.32103125002,
      "d": 405.3026250000039,
      "v": 85
    },
    {
      "midi": 59,
      "hit": false,
      "t": 35029.32103125002,
      "d": 409.0905000000057,
      "v": 77
    },
    {
      "midi": 56,
      "hit": false,
      "t": 35035.949812500025,
      "d": 394.88596875000076,
      "v": 79
    },
    {
      "midi": 64,
      "hit": false,
      "t": 35922.31256250003,
      "d": 422.3480625000011,
      "v": 79
    },
    {
      "midi": 59,
      "hit": false,
      "t": 35922.31256250003,
      "d": 442.2344062500051,
      "v": 75
    },
    {
      "midi": 52,
      "hit": false,
      "t": 35925.15346875003,
      "d": 419.5071562500016,
      "v": 83
    },
    {
      "midi": 56,
      "hit": false,
      "t": 35925.15346875003,
      "d": 429.9238125000047,
      "v": 84
    },
    {
      "midi": 64,
      "hit": false,
      "t": 36818.14500000004,
      "d": 425.18896875000064,
      "v": 80
    },
    {
      "midi": 59,
      "hit": false,
      "t": 36821.93287500004,
      "d": 439.3935000000056,
      "v": 75
    },
    {
      "midi": 52,
      "hit": false,
      "t": 36828.56165625004,
      "d": 425.18896875000064,
      "v": 68
    },
    {
      "midi": 56,
      "hit": false,
      "t": 36831.40256250004,
      "d": 415.71928124999977,
      "v": 68
    },
    {
      "midi": 64,
      "hit": false,
      "t": 37724.394093750045,
      "d": 353.21934375000274,
      "v": 75
    },
    {
      "midi": 59,
      "hit": false,
      "t": 37724.394093750045,
      "d": 380.6814375000031,
      "v": 79
    },
    {
      "midi": 52,
      "hit": false,
      "t": 37728.18196875005,
      "d": 397.7268750000003,
      "v": 75
    },
    {
      "midi": 56,
      "hit": false,
      "t": 37731.022875000046,
      "d": 388.2571874999994,
      "v": 75
    },
    {
      "midi": 61,
      "hit": false,
      "t": 38648.63559375005,
      "d": 497.15859374999854,
      "v": 76
    },
    {
      "midi": 64,
      "hit": false,
      "t": 38651.47650000005,
      "d": 470.64346875000047,
      "v": 76
    },
    {
      "midi": 57,
      "hit": false,
      "t": 38651.47650000005,
      "d": 532.1964375000025,
      "v": 86
    },
    {
      "midi": 63,
      "hit": false,
      "t": 39547.30893750005,
      "d": 422.3480625000011,
      "v": 82
    },
    {
      "midi": 54,
      "hit": false,
      "t": 39547.30893750005,
      "d": 429.9238125000047,
      "v": 76
    },
    {
      "midi": 59,
      "hit": false,
      "t": 39547.30893750005,
      "d": 449.81015625000146,
      "v": 92
    },
    {
      "midi": 64,
      "hit": false,
      "t": 40457.34590625005,
      "d": 435.6056250000038,
      "v": 72
    },
    {
      "midi": 59,
      "hit": false,
      "t": 40463.97468750005,
      "d": 439.3935000000056,
      "v": 72
    },
    {
      "midi": 52,
      "hit": false,
      "t": 40463.97468750005,
      "d": 446.9692500000092,
      "v": 77
    },
    {
      "midi": 56,
      "hit": false,
      "t": 40471.55043750005,
      "d": 421.40109374999884,
      "v": 66
    },
    {
      "midi": 64,
      "hit": false,
      "t": 41353.178343750056,
      "d": 257.5755000000063,
      "v": 70
    },
    {
      "midi": 59,
      "hit": false,
      "t": 41353.178343750056,
      "d": 374.052656250009,
      "v": 72
    },
    {
      "midi": 52,
      "hit": false,
      "t": 41356.96621875006,
      "d": 285.03759375000664,
      "v": 72
    },
    {
      "midi": 56,
      "hit": false,
      "t": 41363.59500000006,
      "d": 308.7118125000052,
      "v": 59
    },
    {
      "midi": 64,
      "hit": false,
      "t": 41813.40515625007,
      "d": 196.02253124999697,
      "v": 83
    },
    {
      "midi": 56,
      "hit": false,
      "t": 41813.40515625007,
      "d": 198.8634374999965,
      "v": 106
    },
    {
      "midi": 52,
      "hit": false,
      "t": 41813.40515625007,
      "d": 209.28009374999965,
      "v": 98
    },
    {
      "midi": 59,
      "hit": false,
      "t": 41813.40515625007,
      "d": 219.6967500000028,
      "v": 88
    },
    {
      "midi": 54,
      "hit": false,
      "t": 43636.32000000007,
      "d": 223.4846250000046,
      "v": 84
    },
    {
      "midi": 63,
      "hit": false,
      "t": 43640.107875000074,
      "d": 167.61346875000163,
      "v": 90
    },
    {
      "midi": 59,
      "hit": false,
      "t": 43640.107875000074,
      "d": 222.53765625000233,
      "v": 95
    },
    {
      "midi": 54,
      "hit": false,
      "t": 44103.17559375008,
      "d": 202.6513125000056,
      "v": 106
    },
    {
      "midi": 59,
      "hit": false,
      "t": 44103.17559375008,
      "d": 233.90128125000774,
      "v": 100
    },
    {
      "midi": 63,
      "hit": false,
      "t": 44109.80437500008,
      "d": 185.6058750000011,
      "v": 92
    },
    {
      "midi": 61,
      "hit": false,
      "t": 48631.580156250086,
      "d": 411.93140624999796,
      "v": 73
    },
    {
      "midi": 52,
      "hit": false,
      "t": 48634.421062500085,
      "d": 432.764718749997,
      "v": 80
    },
    {
      "midi": 64,
      "hit": false,
      "t": 48634.421062500085,
      "d": 439.3934999999983,
      "v": 80
    },
    {
      "midi": 57,
      "hit": false,
      "t": 48638.20893750009,
      "d": 411.93140624999796,
      "v": 75
    },
    {
      "midi": 64,
      "hit": false,
      "t": 49548.245906250086,
      "d": 435.6056249999965,
      "v": 72
    },
    {
      "midi": 61,
      "hit": false,
      "t": 49548.245906250086,
      "d": 446.02228124999965,
      "v": 68
    },
    {
      "midi": 52,
      "hit": false,
      "t": 49548.245906250086,
      "d": 449.81015625000146,
      "v": 79
    },
    {
      "midi": 57,
      "hit": false,
      "t": 49551.086812500085,
      "d": 449.81015625000146,
      "v": 75
    },
    {
      "midi": 64,
      "hit": false,
      "t": 50457.33590625009,
      "d": 426.1359375000029,
      "v": 75
    },
    {
      "midi": 61,
      "hit": false,
      "t": 50457.33590625009,
      "d": 443.1813750000001,
      "v": 73
    },
    {
      "midi": 52,
      "hit": false,
      "t": 50457.33590625009,
      "d": 449.81015625000146,
      "v": 83
    },
    {
      "midi": 57,
      "hit": false,
      "t": 50457.33590625009,
      "d": 453.59803125000326,
      "v": 85
    },
    {
      "midi": 64,
      "hit": false,
      "t": 51384.41831250009,
      "d": 326.7042187499974,
      "v": 70
    },
    {
      "midi": 61,
      "hit": false,
      "t": 51384.41831250009,
      "d": 363.6359999999986,
      "v": 76
    },
    {
      "midi": 57,
      "hit": false,
      "t": 51384.41831250009,
      "d": 384.4693124999976,
      "v": 77
    },
    {
      "midi": 52,
      "hit": false,
      "t": 51384.41831250009,
      "d": 388.2571874999994,
      "v": 77
    },
    {
      "midi": 64,
      "hit": false,
      "t": 52263.20531250009,
      "d": 415.71928124999977,
      "v": 73
    },
    {
      "midi": 59,
      "hit": false,
      "t": 52263.20531250009,
      "d": 432.76471875000425,
      "v": 75
    },
    {
      "midi": 56,
      "hit": false,
      "t": 52266.99318750009,
      "d": 418.5601874999993,
      "v": 72
    },
    {
      "midi": 52,
      "hit": false,
      "t": 52266.99318750009,
      "d": 460.2268125000046,
      "v": 76
    },
    {
      "midi": 64,
      "hit": false,
      "t": 53196.916500000094,
      "d": 392.0450625000012,
      "v": 70
    },
    {
      "midi": 52,
      "hit": false,
      "t": 53196.916500000094,
      "d": 415.71928124999977,
      "v": 77
    },
    {
      "midi": 59,
      "hit": false,
      "t": 53196.916500000094,
      "d": 419.5071562500016,
      "v": 72
    },
    {
      "midi": 56,
      "hit": false,
      "t": 53200.704375000096,
      "d": 405.3026249999966,
      "v": 79
    },
    {
      "midi": 64,
      "hit": false,
      "t": 54106.95346875009,
      "d": 428.9768437500097,
      "v": 76
    },
    {
      "midi": 59,
      "hit": false,
      "t": 54110.741343750095,
      "d": 418.5601875000066,
      "v": 72
    },
    {
      "midi": 52,
      "hit": false,
      "t": 54113.582250000094,
      "d": 422.3480625000084,
      "v": 75
    },
    {
      "midi": 56,
      "hit": false,
      "t": 54117.370125000096,
      "d": 401.5147500000021,
      "v": 80
    },
    {
      "midi": 64,
      "hit": false,
      "t": 54999.9450000001,
      "d": 342.8026874999996,
      "v": 70
    },
    {
      "midi": 59,
      "hit": false,
      "t": 54999.9450000001,
      "d": 387.31021874999715,
      "v": 72
    },
    {
      "midi": 52,
      "hit": false,
      "t": 55013.202562500104,
      "d": 377.8405312499963,
      "v": 70
    },
    {
      "midi": 56,
      "hit": false,
      "t": 55013.202562500104,
      "d": 377.8405312499963,
      "v": 77
    },
    {
      "midi": 64,
      "hit": false,
      "t": 55919.4516562501,
      "d": 398.67384375000256,
      "v": 75
    },
    {
      "midi": 52,
      "hit": false,
      "t": 55929.868312500104,
      "d": 394.88596875000076,
      "v": 70
    },
    {
      "midi": 61,
      "hit": false,
      "t": 55929.868312500104,
      "d": 394.88596875000076,
      "v": 75
    },
    {
      "midi": 57,
      "hit": false,
      "t": 55936.497093750106,
      "d": 401.5147500000021,
      "v": 72
    },
    {
      "midi": 61,
      "hit": false,
      "t": 56832.32953125011,
      "d": 422.3480625000011,
      "v": 68
    },
    {
      "midi": 64,
      "hit": false,
      "t": 56832.32953125011,
      "d": 426.1359375000029,
      "v": 72
    },
    {
      "midi": 57,
      "hit": false,
      "t": 56832.32953125011,
      "d": 436.55259375000605,
      "v": 70
    },
    {
      "midi": 52,
      "hit": false,
      "t": 56846.534062500104,
      "d": 408.14353125000343,
      "v": 59
    },
    {
      "midi": 64,
      "hit": false,
      "t": 57748.995281250114,
      "d": 426.1359375000102,
      "v": 73
    },
    {
      "midi": 61,
      "hit": false,
      "t": 57752.783156250116,
      "d": 398.67384375000256,
      "v": 70
    },
    {
      "midi": 57,
      "hit": false,
      "t": 57752.783156250116,
      "d": 405.3026250000039,
      "v": 79
    },
    {
      "midi": 52,
      "hit": false,
      "t": 57752.783156250116,
      "d": 411.93140625000524,
      "v": 75
    },
    {
      "midi": 64,
      "hit": false,
      "t": 58638.19893750012,
      "d": 354.16631249999773,
      "v": 76
    },
    {
      "midi": 52,
      "hit": false,
      "t": 58638.19893750012,
      "d": 374.99962499999674,
      "v": 80
    },
    {
      "midi": 57,
      "hit": false,
      "t": 58638.19893750012,
      "d": 422.34806249999383,
      "v": 80
    },
    {
      "midi": 61,
      "hit": false,
      "t": 58638.19893750012,
      "d": 436.5525937499915,
      "v": 72
    },
    {
      "midi": 42,
      "hit": false,
      "t": 59317.17553125011,
      "d": 247.15884375000314,
      "v": 108
    },
    {
      "midi": 44,
      "hit": false,
      "t": 59769.82659375011,
      "d": 244.3179375000036,
      "v": 106
    },
    {
      "midi": 45,
      "hit": false,
      "t": 60240.47006250011,
      "d": 274.6209375000035,
      "v": 98
    },
    {
      "midi": 46,
      "hit": false,
      "t": 60690.280218750115,
      "d": 106.06049999999959,
      "v": 108
    },
    {
      "midi": 63,
      "hit": false,
      "t": 60909.030000000115,
      "d": 247.15884375000314,
      "v": 80
    },
    {
      "midi": 54,
      "hit": false,
      "t": 60909.030000000115,
      "d": 249.99975000000268,
      "v": 79
    },
    {
      "midi": 59,
      "hit": false,
      "t": 60909.030000000115,
      "d": 311.5527187500047,
      "v": 85
    },
    {
      "midi": 54,
      "hit": false,
      "t": 61340.84775000012,
      "d": 274.6209375000035,
      "v": 82
    },
    {
      "midi": 59,
      "hit": false,
      "t": 61340.84775000012,
      "d": 322.91634375000285,
      "v": 85
    },
    {
      "midi": 63,
      "hit": false,
      "t": 61344.63562500012,
      "d": 274.6209375000035,
      "v": 79
    },
    {
      "midi": 54,
      "hit": false,
      "t": 61832.32453125012,
      "d": 253.7876249999972,
      "v": 95
    },
    {
      "midi": 63,
      "hit": false,
      "t": 61835.165437500116,
      "d": 254.73459374999948,
      "v": 80
    },
    {
      "midi": 59,
      "hit": false,
      "t": 61835.165437500116,
      "d": 388.2571874999994,
      "v": 80
    },
    {
      "midi": 63,
      "hit": false,
      "t": 62288.76346875011,
      "d": 181.8179999999993,
      "v": 98
    },
    {
      "midi": 54,
      "hit": false,
      "t": 62288.76346875011,
      "d": 185.6058750000011,
      "v": 88
    },
    {
      "midi": 59,
      "hit": false,
      "t": 62288.76346875011,
      "d": 198.86343750000378,
      "v": 92
    },
    {
      "midi": 54,
      "hit": false,
      "t": 62968.68703125012,
      "d": 82.38628125000105,
      "v": 82
    },
    {
      "midi": 63,
      "hit": false,
      "t": 62975.31581250012,
      "d": 86.17415625000285,
      "v": 89
    },
    {
      "midi": 59,
      "hit": false,
      "t": 62975.31581250012,
      "d": 150.56803125000442,
      "v": 98
    },
    {
      "midi": 54,
      "hit": false,
      "t": 63191.22468750012,
      "d": 86.17415625000285,
      "v": 88
    },
    {
      "midi": 63,
      "hit": false,
      "t": 63201.641343750125,
      "d": 92.80293749999691,
      "v": 84
    },
    {
      "midi": 59,
      "hit": false,
      "t": 63208.27012500013,
      "d": 147.7271249999976,
      "v": 77
    },
    {
      "midi": 54,
      "hit": false,
      "t": 63410.921437500125,
      "d": 89.96203125000466,
      "v": 84
    },
    {
      "midi": 63,
      "hit": false,
      "t": 63421.33809375013,
      "d": 86.17415625000285,
      "v": 79
    },
    {
      "midi": 59,
      "hit": false,
      "t": 63425.12596875013,
      "d": 147.7271249999976,
      "v": 88
    },
    {
      "midi": 54,
      "hit": false,
      "t": 63638.193937500124,
      "d": 82.38628125000105,
      "v": 95
    },
    {
      "midi": 63,
      "hit": false,
      "t": 63651.45150000013,
      "d": 75.75749999999971,
      "v": 86
    },
    {
      "midi": 59,
      "hit": false,
      "t": 63655.23937500013,
      "d": 133.52259374999994,
      "v": 88
    },
    {
      "midi": 54,
      "hit": false,
      "t": 63867.36037500013,
      "d": 69.12871875000565,
      "v": 76
    },
    {
      "midi": 63,
      "hit": false,
      "t": 63871.14825000013,
      "d": 75.75750000000698,
      "v": 82
    },
    {
      "midi": 59,
      "hit": false,
      "t": 63874.93612500013,
      "d": 175.18921875000524,
      "v": 72
    },
    {
      "midi": 54,
      "hit": false,
      "t": 64087.05712500014,
      "d": 92.80293750000419,
      "v": 84
    },
    {
      "midi": 63,
      "hit": false,
      "t": 64090.84500000014,
      "d": 99.43171875000553,
      "v": 85
    },
    {
      "midi": 57,
      "hit": false,
      "t": 64314.329625000144,
      "d": 782.1961874999979,
      "v": 83
    },
    {
      "midi": 64,
      "hit": false,
      "t": 64320.958406250145,
      "d": 758.5219687499994,
      "v": 88
    },
    {
      "midi": 61,
      "hit": false,
      "t": 64320.958406250145,
      "d": 785.9840624999997,
      "v": 84
    },
    {
      "midi": 61,
      "hit": false,
      "t": 65237.624156250145,
      "d": 147.7271250000049,
      "v": 79
    },
    {
      "midi": 64,
      "hit": false,
      "t": 65241.41203125015,
      "d": 1084.2792187500017,
      "v": 76
    },
    {
      "midi": 57,
      "hit": false,
      "t": 65248.04081250015,
      "d": 140.15137500000128,
      "v": 76
    },
    {
      "midi": 52,
      "hit": false,
      "t": 65478.15421875015,
      "d": 906.249093749997,
      "v": 73
    },
    {
      "midi": 59,
      "hit": false,
      "t": 65495.199656250144,
      "d": 868.370343750008,
      "v": 59
    },
    {
      "midi": 56,
      "hit": false,
      "t": 65505.61631250015,
      "d": 861.7415624999994,
      "v": 62
    },
    {
      "midi": 61,
      "hit": false,
      "t": 66837.05437500014,
      "d": 360.79509374999907,
      "v": 68
    },
    {
      "midi": 64,
      "hit": false,
      "t": 66837.05437500014,
      "d": 367.42387499999313,
      "v": 75
    },
    {
      "midi": 57,
      "hit": false,
      "t": 66840.84225000013,
      "d": 346.5905625000014,
      "v": 80
    },
    {
      "midi": 52,
      "hit": false,
      "t": 66840.84225000013,
      "d": 360.79509374999907,
      "v": 73
    },
    {
      "midi": 59,
      "hit": false,
      "t": 67730.04590625013,
      "d": 363.63599999998405,
      "v": 77
    },
    {
      "midi": 64,
      "hit": false,
      "t": 67733.83378125013,
      "d": 270.8330624999944,
      "v": 70
    },
    {
      "midi": 52,
      "hit": false,
      "t": 67733.83378125013,
      "d": 298.29515624999476,
      "v": 77
    },
    {
      "midi": 56,
      "hit": false,
      "t": 67733.83378125013,
      "d": 325.7572499999951,
      "v": 70
    },
    {
      "midi": 59,
      "hit": false,
      "t": 68169.43940625012,
      "d": 253.7876249999972,
      "v": 77
    },
    {
      "midi": 64,
      "hit": false,
      "t": 68169.43940625012,
      "d": 264.20428125000035,
      "v": 80
    },
    {
      "midi": 52,
      "hit": false,
      "t": 68173.22728125012,
      "d": 205.49221875000512,
      "v": 83
    },
    {
      "midi": 56,
      "hit": false,
      "t": 68173.22728125012,
      "d": 219.6967500000028,
      "v": 90
    },
    {
      "midi": 54,
      "hit": false,
      "t": 69999.93000000012,
      "d": 154.35590624999895,
      "v": 86
    },
    {
      "midi": 63,
      "hit": false,
      "t": 69999.93000000012,
      "d": 167.61346875000163,
      "v": 90
    },
    {
      "midi": 59,
      "hit": false,
      "t": 69999.93000000012,
      "d": 215.90887500000827,
      "v": 92
    },
    {
      "midi": 54,
      "hit": false,
      "t": 70448.79318750014,
      "d": 151.51499999999942,
      "v": 108
    },
    {
      "midi": 63,
      "hit": false,
      "t": 70448.79318750014,
      "d": 151.51499999999942,
      "v": 96
    },
    {
      "midi": 59,
      "hit": false,
      "t": 70448.79318750014,
      "d": 216.85584375000326,
      "v": 93
    },
    {
      "midi": 64,
      "hit": false,
      "t": 75001.81893750014,
      "d": 456.4389375000028,
      "v": 83
    },
    {
      "midi": 61,
      "hit": false,
      "t": 75001.81893750014,
      "d": 466.85559375000594,
      "v": 92
    },
    {
      "midi": 57,
      "hit": false,
      "t": 75001.81893750014,
      "d": 483.90103125000314,
      "v": 82
    },
    {
      "midi": 61,
      "hit": false,
      "t": 75904.28015625014,
      "d": 498.1055625000008,
      "v": 76
    },
    {
      "midi": 57,
      "hit": false,
      "t": 75908.06803125014,
      "d": 494.3176875000063,
      "v": 82
    },
    {
      "midi": 64,
      "hit": false,
      "t": 75908.06803125014,
      "d": 507.57525000000896,
      "v": 80
    },
    {
      "midi": 61,
      "hit": false,
      "t": 76844.62012500015,
      "d": 429.92381249999744,
      "v": 75
    },
    {
      "midi": 57,
      "hit": false,
      "t": 76848.40800000014,
      "d": 418.5601874999993,
      "v": 88
    },
    {
      "midi": 64,
      "hit": false,
      "t": 76848.40800000014,
      "d": 443.1813750000001,
      "v": 77
    },
    {
      "midi": 61,
      "hit": false,
      "t": 77737.61165625014,
      "d": 466.8555937499914,
      "v": 82
    },
    {
      "midi": 64,
      "hit": false,
      "t": 77737.61165625014,
      "d": 477.27224999999453,
      "v": 82
    },
    {
      "midi": 57,
      "hit": false,
      "t": 77741.39953125014,
      "d": 456.4389375000028,
      "v": 88
    },
    {
      "midi": 61,
      "hit": false,
      "t": 78647.64862500013,
      "d": 449.81015625000873,
      "v": 92
    },
    {
      "midi": 57,
      "hit": false,
      "t": 78650.48953125013,
      "d": 453.59803125000326,
      "v": 85
    },
    {
      "midi": 64,
      "hit": false,
      "t": 78658.06528125014,
      "d": 459.2798437500023,
      "v": 83
    },
    {
      "midi": 61,
      "hit": false,
      "t": 79560.52650000014,
      "d": 453.59803125000326,
      "v": 98
    },
    {
      "midi": 57,
      "hit": false,
      "t": 79560.52650000014,
      "d": 463.06771874999686,
      "v": 92
    },
    {
      "midi": 64,
      "hit": false,
      "t": 79570.94315625014,
      "d": 466.8555937499914,
      "v": 84
    },
    {
      "midi": 61,
      "hit": false,
      "t": 80462.98771875013,
      "d": 364.5829687499936,
      "v": 82
    },
    {
      "midi": 64,
      "hit": false,
      "t": 80466.77559375012,
      "d": 343.74965625000186,
      "v": 85
    },
    {
      "midi": 57,
      "hit": false,
      "t": 80466.77559375012,
      "d": 377.8405312499963,
      "v": 93
    },
    {
      "midi": 59,
      "hit": false,
      "t": 81149.54006250012,
      "d": 248.10581249999814,
      "v": 88
    },
    {
      "midi": 64,
      "hit": false,
      "t": 81149.54006250012,
      "d": 257.57549999999173,
      "v": 86
    },
    {
      "midi": 52,
      "hit": false,
      "t": 81149.54006250012,
      "d": 271.7800312499894,
      "v": 86
    },
    {
      "midi": 56,
      "hit": false,
      "t": 81153.32793750011,
      "d": 257.57549999999173,
      "v": 84
    },
    {
      "midi": 64,
      "hit": false,
      "t": 81589.8805312501,
      "d": 552.0827812500065,
      "v": 85
    },
    {
      "midi": 52,
      "hit": false,
      "t": 81589.8805312501,
      "d": 579.5448750000069,
      "v": 84
    },
    {
      "midi": 61,
      "hit": false,
      "t": 81589.8805312501,
      "d": 607.0069687500072,
      "v": 79
    },
    {
      "midi": 57,
      "hit": false,
      "t": 81589.8805312501,
      "d": 613.6357500000013,
      "v": 83
    },
    {
      "midi": 61,
      "hit": false,
      "t": 82272.6450000001,
      "d": 452.6510624999937,
      "v": 72
    },
    {
      "midi": 57,
      "hit": false,
      "t": 82272.6450000001,
      "d": 456.43893749998824,
      "v": 80
    },
    {
      "midi": 64,
      "hit": false,
      "t": 82272.6450000001,
      "d": 480.11315624999406,
      "v": 82
    },
    {
      "midi": 64,
      "hit": false,
      "t": 83185.5228750001,
      "d": 501.8934375000099,
      "v": 79
    },
    {
      "midi": 61,
      "hit": false,
      "t": 83193.0986250001,
      "d": 466.85559375000594,
      "v": 82
    },
    {
      "midi": 57,
      "hit": false,
      "t": 83195.9395312501,
      "d": 464.0146875000064,
      "v": 80
    },
    {
      "midi": 61,
      "hit": false,
      "t": 84091.77196875011,
      "d": 483.90103125000314,
      "v": 84
    },
    {
      "midi": 57,
      "hit": false,
      "t": 84091.77196875011,
      "d": 501.8934375000099,
      "v": 88
    },
    {
      "midi": 64,
      "hit": false,
      "t": 84091.77196875011,
      "d": 525.5676562500157,
      "v": 88
    },
    {
      "midi": 64,
      "hit": false,
      "t": 84991.39228125013,
      "d": 299.24212499998976,
      "v": 83
    },
    {
      "midi": 57,
      "hit": false,
      "t": 84991.39228125013,
      "d": 312.49968749999243,
      "v": 80
    },
    {
      "midi": 61,
      "hit": false,
      "t": 84995.18015625012,
      "d": 298.29515624999476,
      "v": 82
    },
    {
      "midi": 52,
      "hit": false,
      "t": 85455.40696875012,
      "d": 236.7421875,
      "v": 89
    },
    {
      "midi": 56,
      "hit": false,
      "t": 85455.40696875012,
      "d": 243.37096874999406,
      "v": 95
    },
    {
      "midi": 59,
      "hit": false,
      "t": 85455.40696875012,
      "d": 270.8330624999944,
      "v": 88
    },
    {
      "midi": 64,
      "hit": false,
      "t": 85455.40696875012,
      "d": 270.8330624999944,
      "v": 88
    },
    {
      "midi": 64,
      "hit": false,
      "t": 89562.4104375001,
      "d": 387.3102187500044,
      "v": 76
    },
    {
      "midi": 52,
      "hit": false,
      "t": 89562.4104375001,
      "d": 411.93140625000524,
      "v": 88
    },
    {
      "midi": 59,
      "hit": false,
      "t": 89562.4104375001,
      "d": 414.7723125000048,
      "v": 95
    },
    {
      "midi": 56,
      "hit": false,
      "t": 89565.2513437501,
      "d": 409.0905000000057,
      "v": 85
    },
    {
      "midi": 59,
      "hit": false,
      "t": 90471.50043750012,
      "d": 439.3934999999765,
      "v": 82
    },
    {
      "midi": 64,
      "hit": false,
      "t": 90475.28831250011,
      "d": 415.7192812499852,
      "v": 79
    },
    {
      "midi": 56,
      "hit": false,
      "t": 90479.0761875001,
      "d": 428.9768437499879,
      "v": 68
    },
    {
      "midi": 52,
      "hit": false,
      "t": 90485.7049687501,
      "d": 415.71928124999977,
      "v": 68
    },
    {
      "midi": 52,
      "hit": false,
      "t": 91377.7495312501,
      "d": 419.50715625000885,
      "v": 72
    },
    {
      "midi": 59,
      "hit": false,
      "t": 91377.7495312501,
      "d": 436.55259375000605,
      "v": 73
    },
    {
      "midi": 64,
      "hit": false,
      "t": 91377.7495312501,
      "d": 436.55259375000605,
      "v": 68
    },
    {
      "midi": 56,
      "hit": false,
      "t": 91385.3252812501,
      "d": 418.5601874999993,
      "v": 72
    },
    {
      "midi": 59,
      "hit": false,
      "t": 92274.5289375001,
      "d": 446.02228124999965,
      "v": 70
    },
    {
      "midi": 64,
      "hit": false,
      "t": 92284.9455937501,
      "d": 393.9389999999985,
      "v": 59
    },
    {
      "midi": 56,
      "hit": false,
      "t": 92284.9455937501,
      "d": 428.97684375000244,
      "v": 64
    },
    {
      "midi": 52,
      "hit": false,
      "t": 92298.2031562501,
      "d": 398.67384375000256,
      "v": 59
    },
    {
      "midi": 64,
      "hit": false,
      "t": 93197.8234687501,
      "d": 394.8859687499935,
      "v": 72
    },
    {
      "midi": 52,
      "hit": false,
      "t": 93204.45225000009,
      "d": 405.3026249999966,
      "v": 72
    },
    {
      "midi": 56,
      "hit": false,
      "t": 93204.45225000009,
      "d": 411.9314062499907,
      "v": 75
    },
    {
      "midi": 59,
      "hit": false,
      "t": 93204.45225000009,
      "d": 415.7192812499852,
      "v": 75
    },
    {
      "midi": 59,
      "hit": false,
      "t": 94097.44378125007,
      "d": 431.817750000002,
      "v": 72
    },
    {
      "midi": 64,
      "hit": false,
      "t": 94100.28468750007,
      "d": 415.71928124999977,
      "v": 75
    },
    {
      "midi": 56,
      "hit": false,
      "t": 94100.28468750007,
      "d": 426.1359375000029,
      "v": 66
    },
    {
      "midi": 52,
      "hit": false,
      "t": 94110.70134375007,
      "d": 418.5601874999993,
      "v": 53
    },
    {
      "midi": 59,
      "hit": false,
      "t": 95006.53378125007,
      "d": 429.9238124999829,
      "v": 73
    },
    {
      "midi": 52,
      "hit": false,
      "t": 95010.32165625006,
      "d": 411.9314062499907,
      "v": 72
    },
    {
      "midi": 56,
      "hit": false,
      "t": 95010.32165625006,
      "d": 411.9314062499907,
      "v": 68
    },
    {
      "midi": 64,
      "hit": false,
      "t": 95016.95043750005,
      "d": 422.34806249999383,
      "v": 68
    },
    {
      "midi": 64,
      "hit": false,
      "t": 95906.15409375005,
      "d": 357.00721874999,
      "v": 75
    },
    {
      "midi": 59,
      "hit": false,
      "t": 95909.94196875005,
      "d": 408.14353124999616,
      "v": 79
    },
    {
      "midi": 52,
      "hit": false,
      "t": 95909.94196875005,
      "d": 411.9314062499907,
      "v": 72
    },
    {
      "midi": 56,
      "hit": false,
      "t": 95909.94196875005,
      "d": 414.7723124999902,
      "v": 72
    },
    {
      "midi": 52,
      "hit": false,
      "t": 96812.40318750004,
      "d": 460.2268124999973,
      "v": 92
    },
    {
      "midi": 61,
      "hit": false,
      "t": 96812.40318750004,
      "d": 460.2268124999973,
      "v": 70
    },
    {
      "midi": 64,
      "hit": false,
      "t": 96812.40318750004,
      "d": 487.6889062499977,
      "v": 79
    },
    {
      "midi": 57,
      "hit": false,
      "t": 96819.97893750004,
      "d": 469.6964999999909,
      "v": 82
    },
    {
      "midi": 54,
      "hit": false,
      "t": 97729.06893750004,
      "d": 409.0905000000057,
      "v": 73
    },
    {
      "midi": 63,
      "hit": false,
      "t": 97729.06893750004,
      "d": 409.0905000000057,
      "v": 85
    },
    {
      "midi": 59,
      "hit": false,
      "t": 97729.06893750004,
      "d": 436.55259375000605,
      "v": 95
    },
    {
      "midi": 64,
      "hit": false,
      "t": 98642.89378125004,
      "d": 425.18896874999336,
      "v": 70
    },
    {
      "midi": 56,
      "hit": false,
      "t": 98645.73468750004,
      "d": 422.34806249999383,
      "v": 73
    },
    {
      "midi": 59,
      "hit": false,
      "t": 98645.73468750004,
      "d": 426.13593749998836,
      "v": 72
    },
    {
      "midi": 52,
      "hit": false,
      "t": 98645.73468750004,
      "d": 428.9768437499879,
      "v": 72
    },
    {
      "midi": 64,
      "hit": false,
      "t": 99541.56712500003,
      "d": 206.43918750000012,
      "v": 73
    },
    {
      "midi": 52,
      "hit": false,
      "t": 99541.56712500003,
      "d": 254.73459375000675,
      "v": 75
    },
    {
      "midi": 56,
      "hit": false,
      "t": 99545.35500000003,
      "d": 264.2042812500149,
      "v": 72
    },
    {
      "midi": 59,
      "hit": false,
      "t": 99545.35500000003,
      "d": 316.28756250001607,
      "v": 72
    },
    {
      "midi": 56,
      "hit": false,
      "t": 99995.16515625005,
      "d": 202.6513125000056,
      "v": 90
    },
    {
      "midi": 59,
      "hit": false,
      "t": 99995.16515625005,
      "d": 213.06796875000873,
      "v": 92
    },
    {
      "midi": 52,
      "hit": false,
      "t": 99995.16515625005,
      "d": 215.90887500000827,
      "v": 82
    },
    {
      "midi": 64,
      "hit": false,
      "t": 99995.16515625005,
      "d": 226.3255312500114,
      "v": 88
    },
    {
      "midi": 63,
      "hit": false,
      "t": 101818.08000000006,
      "d": 146.78015624999534,
      "v": 93
    },
    {
      "midi": 54,
      "hit": false,
      "t": 101818.08000000006,
      "d": 178.03012499999022,
      "v": 89
    },
    {
      "midi": 59,
      "hit": false,
      "t": 101818.08000000006,
      "d": 215.9088749999937,
      "v": 106
    },
    {
      "midi": 54,
      "hit": false,
      "t": 102266.94318750006,
      "d": 155.3028750000085,
      "v": 108
    },
    {
      "midi": 59,
      "hit": false,
      "t": 102266.94318750006,
      "d": 202.6513125000056,
      "v": 106
    },
    {
      "midi": 63,
      "hit": false,
      "t": 102274.51893750006,
      "d": 157.1968124999985,
      "v": 106
    },
    {
      "midi": 56,
      "hit": false,
      "t": 104100.27468750006,
      "d": 432.7647187499824,
      "v": 66
    },
    {
      "midi": 64,
      "hit": false,
      "t": 104104.06256250005,
      "d": 401.51474999998754,
      "v": 79
    },
    {
      "midi": 59,
      "hit": false,
      "t": 104104.06256250005,
      "d": 428.9768437499879,
      "v": 73
    },
    {
      "midi": 52,
      "hit": false,
      "t": 104107.85043750005,
      "d": 425.18896874999336,
      "v": 75
    },
    {
      "midi": 59,
      "hit": false,
      "t": 105014.09953125005,
      "d": 452.6510624999937,
      "v": 72
    },
    {
      "midi": 64,
      "hit": false,
      "t": 105016.94043750004,
      "d": 422.34806249999383,
      "v": 72
    },
    {
      "midi": 56,
      "hit": false,
      "t": 105020.72831250004,
      "d": 435.6056249999965,
      "v": 70
    },
    {
      "midi": 52,
      "hit": false,
      "t": 105023.56921875004,
      "d": 446.96924999999464,
      "v": 73
    },
    {
      "midi": 59,
      "hit": false,
      "t": 105923.18953125003,
      "d": 426.1359375000029,
      "v": 76
    },
    {
      "midi": 64,
      "hit": false,
      "t": 105923.18953125003,
      "d": 432.764718749997,
      "v": 76
    },
    {
      "midi": 52,
      "hit": false,
      "t": 105930.76528125003,
      "d": 418.5601874999993,
      "v": 72
    },
    {
      "midi": 56,
      "hit": false,
      "t": 105933.60618750003,
      "d": 405.3026249999966,
      "v": 68
    },
    {
      "midi": 59,
      "hit": false,
      "t": 106819.02196875002,
      "d": 449.8101562499942,
      "v": 72
    },
    {
      "midi": 64,
      "hit": false,
      "t": 106819.02196875002,
      "d": 457.38590624998324,
      "v": 79
    },
    {
      "midi": 56,
      "hit": false,
      "t": 106833.22650000002,
      "d": 435.6056249999965,
      "v": 70
    },
    {
      "midi": 52,
      "hit": false,
      "t": 106833.22650000002,
      "d": 439.39349999999104,
      "v": 68
    },
    {
      "midi": 64,
      "hit": false,
      "t": 107756.52103125,
      "d": 391.09809374999895,
      "v": 76
    },
    {
      "midi": 52,
      "hit": false,
      "t": 107756.52103125,
      "d": 405.3026249999966,
      "v": 85
    },
    {
      "midi": 59,
      "hit": false,
      "t": 107756.52103125,
      "d": 409.09049999999115,
      "v": 77
    },
    {
      "midi": 56,
      "hit": false,
      "t": 107763.14981249999,
      "d": 394.88596875000803,
      "v": 79
    },
    {
      "midi": 64,
      "hit": false,
      "t": 108649.5125625,
      "d": 422.34806249999383,
      "v": 79
    },
    {
      "midi": 59,
      "hit": false,
      "t": 108649.5125625,
      "d": 442.23440624999057,
      "v": 75
    },
    {
      "midi": 52,
      "hit": false,
      "t": 108652.35346874999,
      "d": 419.5071562499943,
      "v": 83
    },
    {
      "midi": 56,
      "hit": false,
      "t": 108652.35346874999,
      "d": 429.92381249999744,
      "v": 84
    },
    {
      "midi": 64,
      "hit": false,
      "t": 109545.34499999999,
      "d": 425.18896874999336,
      "v": 80
    },
    {
      "midi": 59,
      "hit": false,
      "t": 109549.13287499998,
      "d": 439.39349999999104,
      "v": 75
    },
    {
      "midi": 52,
      "hit": false,
      "t": 109555.76165624998,
      "d": 425.18896874999336,
      "v": 68
    },
    {
      "midi": 56,
      "hit": false,
      "t": 109558.60256249997,
      "d": 415.71928124999977,
      "v": 68
    },
    {
      "midi": 64,
      "hit": false,
      "t": 110451.59409374997,
      "d": 353.21934374999546,
      "v": 75
    },
    {
      "midi": 59,
      "hit": false,
      "t": 110451.59409374997,
      "d": 380.6814374999958,
      "v": 79
    },
    {
      "midi": 52,
      "hit": false,
      "t": 110455.38196874996,
      "d": 397.726874999993,
      "v": 75
    },
    {
      "midi": 56,
      "hit": false,
      "t": 110458.22287499996,
      "d": 388.2571874999994,
      "v": 75
    },
    {
      "midi": 61,
      "hit": false,
      "t": 111375.83559374996,
      "d": 497.1585937500058,
      "v": 76
    },
    {
      "midi": 64,
      "hit": false,
      "t": 111378.67649999996,
      "d": 470.64346875000047,
      "v": 76
    },
    {
      "midi": 57,
      "hit": false,
      "t": 111378.67649999996,
      "d": 532.1964375000098,
      "v": 86
    },
    {
      "midi": 63,
      "hit": false,
      "t": 112274.50893749997,
      "d": 422.34806249999383,
      "v": 82
    },
    {
      "midi": 54,
      "hit": false,
      "t": 112274.50893749997,
      "d": 429.92381249999744,
      "v": 76
    },
    {
      "midi": 59,
      "hit": false,
      "t": 112274.50893749997,
      "d": 449.8101562499942,
      "v": 92
    },
    {
      "midi": 64,
      "hit": false,
      "t": 113184.54590624996,
      "d": 435.6056249999965,
      "v": 72
    },
    {
      "midi": 59,
      "hit": false,
      "t": 113191.17468749995,
      "d": 439.3935000000056,
      "v": 72
    },
    {
      "midi": 52,
      "hit": false,
      "t": 113191.17468749995,
      "d": 446.9692500000092,
      "v": 77
    },
    {
      "midi": 56,
      "hit": false,
      "t": 113198.75043749996,
      "d": 421.40109374999884,
      "v": 66
    },
    {
      "midi": 64,
      "hit": false,
      "t": 114080.37834374997,
      "d": 257.57549999999173,
      "v": 70
    },
    {
      "midi": 59,
      "hit": false,
      "t": 114080.37834374997,
      "d": 374.0526562499872,
      "v": 72
    },
    {
      "midi": 52,
      "hit": false,
      "t": 114084.16621874996,
      "d": 285.0375937499921,
      "v": 72
    },
    {
      "midi": 56,
      "hit": false,
      "t": 114090.79499999995,
      "d": 308.7118124999979,
      "v": 59
    },
    {
      "midi": 64,
      "hit": false,
      "t": 114540.60515624995,
      "d": 196.02253124999697,
      "v": 83
    },
    {
      "midi": 56,
      "hit": false,
      "t": 114540.60515624995,
      "d": 198.8634374999965,
      "v": 106
    },
    {
      "midi": 52,
      "hit": false,
      "t": 114540.60515624995,
      "d": 209.28009374999965,
      "v": 98
    },
    {
      "midi": 59,
      "hit": false,
      "t": 114540.60515624995,
      "d": 219.6967500000028,
      "v": 88
    },
    {
      "midi": 54,
      "hit": false,
      "t": 116363.51999999995,
      "d": 223.48462499999732,
      "v": 84
    },
    {
      "midi": 63,
      "hit": false,
      "t": 116367.30787499994,
      "d": 167.61346875000163,
      "v": 90
    },
    {
      "midi": 59,
      "hit": false,
      "t": 116367.30787499994,
      "d": 222.53765625000233,
      "v": 95
    },
    {
      "midi": 54,
      "hit": false,
      "t": 116830.37559374994,
      "d": 202.65131249999104,
      "v": 106
    },
    {
      "midi": 59,
      "hit": false,
      "t": 116830.37559374994,
      "d": 233.9012812499859,
      "v": 100
    },
    {
      "midi": 63,
      "hit": false,
      "t": 116837.00437499993,
      "d": 185.60587499999383,
      "v": 92
    },
    {
      "midi": 61,
      "hit": false,
      "t": 121358.78015624992,
      "d": 411.9314062499907,
      "v": 73
    },
    {
      "midi": 52,
      "hit": false,
      "t": 121361.62106249992,
      "d": 432.7647187499824,
      "v": 80
    },
    {
      "midi": 64,
      "hit": false,
      "t": 121361.62106249992,
      "d": 439.3934999999765,
      "v": 80
    },
    {
      "midi": 57,
      "hit": false,
      "t": 121365.40893749992,
      "d": 411.9314062499907,
      "v": 75
    },
    {
      "midi": 64,
      "hit": false,
      "t": 122275.4459062499,
      "d": 435.6056249999965,
      "v": 72
    },
    {
      "midi": 61,
      "hit": false,
      "t": 122275.4459062499,
      "d": 446.02228124999965,
      "v": 68
    },
    {
      "midi": 52,
      "hit": false,
      "t": 122275.4459062499,
      "d": 449.8101562499942,
      "v": 79
    },
    {
      "midi": 57,
      "hit": false,
      "t": 122278.2868124999,
      "d": 449.8101562499942,
      "v": 75
    },
    {
      "midi": 64,
      "hit": false,
      "t": 123184.53590624989,
      "d": 426.1359375000029,
      "v": 75
    },
    {
      "midi": 61,
      "hit": false,
      "t": 123184.53590624989,
      "d": 443.1813750000001,
      "v": 73
    },
    {
      "midi": 52,
      "hit": false,
      "t": 123184.53590624989,
      "d": 449.8101562499942,
      "v": 83
    },
    {
      "midi": 57,
      "hit": false,
      "t": 123184.53590624989,
      "d": 453.5980312499887,
      "v": 85
    },
    {
      "midi": 64,
      "hit": false,
      "t": 124111.61831249988,
      "d": 326.70421875000466,
      "v": 70
    },
    {
      "midi": 61,
      "hit": false,
      "t": 124111.61831249988,
      "d": 363.6359999999986,
      "v": 76
    },
    {
      "midi": 57,
      "hit": false,
      "t": 124111.61831249988,
      "d": 384.4693125000049,
      "v": 77
    },
    {
      "midi": 52,
      "hit": false,
      "t": 124111.61831249988,
      "d": 388.2571874999994,
      "v": 77
    },
    {
      "midi": 64,
      "hit": false,
      "t": 124990.40531249988,
      "d": 415.71928124999977,
      "v": 73
    },
    {
      "midi": 59,
      "hit": false,
      "t": 124990.40531249988,
      "d": 432.764718749997,
      "v": 75
    },
    {
      "midi": 56,
      "hit": false,
      "t": 124994.19318749987,
      "d": 418.5601874999993,
      "v": 72
    },
    {
      "midi": 52,
      "hit": false,
      "t": 124994.19318749987,
      "d": 460.2268124999973,
      "v": 76
    },
    {
      "midi": 64,
      "hit": false,
      "t": 125924.11649999987,
      "d": 392.04506249999395,
      "v": 70
    },
    {
      "midi": 52,
      "hit": false,
      "t": 125924.11649999987,
      "d": 415.7192812499852,
      "v": 77
    },
    {
      "midi": 59,
      "hit": false,
      "t": 125924.11649999987,
      "d": 419.50715624997974,
      "v": 72
    },
    {
      "midi": 56,
      "hit": false,
      "t": 125927.90437499987,
      "d": 405.3026249999966,
      "v": 79
    },
    {
      "midi": 64,
      "hit": false,
      "t": 126834.15346874985,
      "d": 428.9768437499879,
      "v": 76
    },
    {
      "midi": 59,
      "hit": false,
      "t": 126837.94134374984,
      "d": 418.5601874999993,
      "v": 72
    },
    {
      "midi": 52,
      "hit": false,
      "t": 126840.78224999984,
      "d": 422.34806249999383,
      "v": 75
    },
    {
      "midi": 56,
      "hit": false,
      "t": 126844.57012499984,
      "d": 401.5147500000021,
      "v": 80
    },
    {
      "midi": 64,
      "hit": false,
      "t": 127727.14499999984,
      "d": 342.80268750000687,
      "v": 70
    },
    {
      "midi": 59,
      "hit": false,
      "t": 127727.14499999984,
      "d": 387.3102187500044,
      "v": 72
    },
    {
      "midi": 52,
      "hit": false,
      "t": 127740.40256249985,
      "d": 377.8405312499963,
      "v": 70
    },
    {
      "midi": 56,
      "hit": false,
      "t": 127740.40256249985,
      "d": 377.8405312499963,
      "v": 77
    },
    {
      "midi": 64,
      "hit": false,
      "t": 128646.65165624984,
      "d": 398.67384375000256,
      "v": 75
    },
    {
      "midi": 52,
      "hit": false,
      "t": 128657.06831249985,
      "d": 394.8859687499935,
      "v": 70
    },
    {
      "midi": 61,
      "hit": false,
      "t": 128657.06831249985,
      "d": 394.8859687499935,
      "v": 75
    },
    {
      "midi": 57,
      "hit": false,
      "t": 128663.69709374984,
      "d": 401.5147500000021,
      "v": 72
    },
    {
      "midi": 61,
      "hit": false,
      "t": 129559.52953124985,
      "d": 422.34806249999383,
      "v": 68
    },
    {
      "midi": 64,
      "hit": false,
      "t": 129559.52953124985,
      "d": 426.13593749998836,
      "v": 72
    },
    {
      "midi": 57,
      "hit": false,
      "t": 129559.52953124985,
      "d": 436.5525937499915,
      "v": 70
    },
    {
      "midi": 52,
      "hit": false,
      "t": 129573.73406249985,
      "d": 408.14353124999616,
      "v": 59
    },
    {
      "midi": 64,
      "hit": false,
      "t": 130476.19528124983,
      "d": 426.13593749998836,
      "v": 73
    },
    {
      "midi": 61,
      "hit": false,
      "t": 130479.98315624983,
      "d": 398.67384375000256,
      "v": 70
    },
    {
      "midi": 57,
      "hit": false,
      "t": 130479.98315624983,
      "d": 405.3026249999966,
      "v": 79
    },
    {
      "midi": 52,
      "hit": false,
      "t": 130479.98315624983,
      "d": 411.9314062499907,
      "v": 75
    },
    {
      "midi": 64,
      "hit": false,
      "t": 131365.39893749982,
      "d": 354.16631249999045,
      "v": 76
    },
    {
      "midi": 52,
      "hit": false,
      "t": 131365.39893749982,
      "d": 374.99962499999674,
      "v": 80
    },
    {
      "midi": 57,
      "hit": false,
      "t": 131365.39893749982,
      "d": 422.3480625000084,
      "v": 80
    },
    {
      "midi": 61,
      "hit": false,
      "t": 131365.39893749982,
      "d": 436.55259375000605,
      "v": 72
    },
    {
      "midi": 42,
      "hit": false,
      "t": 132044.37553124983,
      "d": 247.1588437499886,
      "v": 108
    },
    {
      "midi": 44,
      "hit": false,
      "t": 132497.02659374982,
      "d": 244.31793749998906,
      "v": 106
    },
    {
      "midi": 45,
      "hit": false,
      "t": 132967.67006249982,
      "d": 274.6209375000035,
      "v": 98
    },
    {
      "midi": 46,
      "hit": false,
      "t": 133417.4802187498,
      "d": 106.06049999999232,
      "v": 108
    },
    {
      "midi": 63,
      "hit": false,
      "t": 133636.2299999998,
      "d": 247.1588437499886,
      "v": 80
    },
    {
      "midi": 54,
      "hit": false,
      "t": 133636.2299999998,
      "d": 249.99974999998813,
      "v": 79
    },
    {
      "midi": 59,
      "hit": false,
      "t": 133636.2299999998,
      "d": 311.55271874999744,
      "v": 85
    },
    {
      "midi": 54,
      "hit": false,
      "t": 134068.0477499998,
      "d": 274.6209375000035,
      "v": 82
    },
    {
      "midi": 59,
      "hit": false,
      "t": 134068.0477499998,
      "d": 322.9163437500247,
      "v": 85
    },
    {
      "midi": 63,
      "hit": false,
      "t": 134071.8356249998,
      "d": 274.6209375000035,
      "v": 79
    },
    {
      "midi": 54,
      "hit": false,
      "t": 134559.52453124983,
      "d": 253.7876249999972,
      "v": 95
    },
    {
      "midi": 63,
      "hit": false,
      "t": 134562.36543749983,
      "d": 254.73459375000675,
      "v": 80
    },
    {
      "midi": 59,
      "hit": false,
      "t": 134562.36543749983,
      "d": 388.25718750001397,
      "v": 80
    },
    {
      "midi": 63,
      "hit": false,
      "t": 135015.96346874983,
      "d": 181.8179999999993,
      "v": 98
    },
    {
      "midi": 54,
      "hit": false,
      "t": 135015.96346874983,
      "d": 185.60587500000838,
      "v": 88
    },
    {
      "midi": 59,
      "hit": false,
      "t": 135015.96346874983,
      "d": 198.8634374999965,
      "v": 92
    },
    {
      "midi": 54,
      "hit": false,
      "t": 135695.88703124982,
      "d": 82.3862812500156,
      "v": 82
    },
    {
      "midi": 63,
      "hit": false,
      "t": 135702.51581249983,
      "d": 86.17415624999558,
      "v": 89
    },
    {
      "midi": 59,
      "hit": false,
      "t": 135702.51581249983,
      "d": 150.56803125000442,
      "v": 98
    },
    {
      "midi": 54,
      "hit": false,
      "t": 135918.42468749982,
      "d": 86.17415624999558,
      "v": 88
    },
    {
      "midi": 63,
      "hit": false,
      "t": 135928.8413437498,
      "d": 92.80293750000419,
      "v": 84
    },
    {
      "midi": 59,
      "hit": false,
      "t": 135935.47012499982,
      "d": 147.7271250000049,
      "v": 77
    },
    {
      "midi": 54,
      "hit": false,
      "t": 136138.12143749982,
      "d": 89.96203125000466,
      "v": 84
    },
    {
      "midi": 63,
      "hit": false,
      "t": 136148.5380937498,
      "d": 86.17415625002468,
      "v": 79
    },
    {
      "midi": 59,
      "hit": false,
      "t": 136152.32596874982,
      "d": 147.7271250000049,
      "v": 88
    },
    {
      "midi": 54,
      "hit": false,
      "t": 136365.39393749982,
      "d": 82.3862812499865,
      "v": 95
    },
    {
      "midi": 63,
      "hit": false,
      "t": 136378.6514999998,
      "d": 75.75750000000698,
      "v": 86
    },
    {
      "midi": 59,
      "hit": false,
      "t": 136382.4393749998,
      "d": 133.52259375000722,
      "v": 88
    },
    {
      "midi": 54,
      "hit": false,
      "t": 136594.56037499983,
      "d": 69.12871875002747,
      "v": 76
    },
    {
      "midi": 63,
      "hit": false,
      "t": 136598.34824999984,
      "d": 75.75750000000698,
      "v": 82
    },
    {
      "midi": 59,
      "hit": false,
      "t": 136602.13612499984,
      "d": 175.1892187499907,
      "v": 72
    },
    {
      "midi": 54,
      "hit": false,
      "t": 136814.25712499983,
      "d": 92.80293750000419,
      "v": 84
    },
    {
      "midi": 63,
      "hit": false,
      "t": 136818.04499999984,
      "d": 99.4317187499837,
      "v": 85
    },
    {
      "midi": 57,
      "hit": false,
      "t": 137041.52962499982,
      "d": 782.1961874999979,
      "v": 83
    },
    {
      "midi": 64,
      "hit": false,
      "t": 137048.15840624983,
      "d": 758.5219687499921,
      "v": 88
    },
    {
      "midi": 61,
      "hit": false,
      "t": 137048.15840624983,
      "d": 785.9840624999779,
      "v": 84
    },
    {
      "midi": 61,
      "hit": false,
      "t": 137964.82415624982,
      "d": 147.7271250000049,
      "v": 79
    },
    {
      "midi": 64,
      "hit": false,
      "t": 137968.61203124982,
      "d": 1084.2792187499872,
      "v": 76
    },
    {
      "midi": 57,
      "hit": false,
      "t": 137975.24081249983,
      "d": 140.15137499998673,
      "v": 76
    },
    {
      "midi": 52,
      "hit": false,
      "t": 138205.35421874982,
      "d": 906.249093749997,
      "v": 73
    },
    {
      "midi": 59,
      "hit": false,
      "t": 138222.39965624982,
      "d": 868.3703437499935,
      "v": 59
    },
    {
      "midi": 56,
      "hit": false,
      "t": 138232.8163124998,
      "d": 861.741562500014,
      "v": 62
    },
    {
      "midi": 61,
      "hit": false,
      "t": 139564.25437499981,
      "d": 360.79509374999907,
      "v": 68
    },
    {
      "midi": 64,
      "hit": false,
      "t": 139564.25437499981,
      "d": 367.4238750000077,
      "v": 75
    },
    {
      "midi": 57,
      "hit": false,
      "t": 139568.04224999982,
      "d": 346.5905625000014,
      "v": 80
    },
    {
      "midi": 52,
      "hit": false,
      "t": 139568.04224999982,
      "d": 360.79509374999907,
      "v": 73
    },
    {
      "midi": 59,
      "hit": false,
      "t": 140457.24590624982,
      "d": 363.6359999999695,
      "v": 77
    },
    {
      "midi": 64,
      "hit": false,
      "t": 140461.03378124983,
      "d": 270.8330624999944,
      "v": 70
    },
    {
      "midi": 52,
      "hit": false,
      "t": 140461.03378124983,
      "d": 298.2951562499802,
      "v": 77
    },
    {
      "midi": 56,
      "hit": false,
      "t": 140461.03378124983,
      "d": 325.757249999966,
      "v": 70
    },
    {
      "midi": 59,
      "hit": false,
      "t": 140896.6394062498,
      "d": 253.7876250000263,
      "v": 77
    },
    {
      "midi": 64,
      "hit": false,
      "t": 140896.6394062498,
      "d": 264.2042812500149,
      "v": 80
    },
    {
      "midi": 52,
      "hit": false,
      "t": 140900.4272812498,
      "d": 205.49221875000512,
      "v": 83
    },
    {
      "midi": 56,
      "hit": false,
      "t": 140900.4272812498,
      "d": 219.6967500000028,
      "v": 90
    },
    {
      "midi": 54,
      "hit": false,
      "t": 142727.1299999998,
      "d": 154.3559062500135,
      "v": 86
    },
    {
      "midi": 63,
      "hit": false,
      "t": 142727.1299999998,
      "d": 167.61346875000163,
      "v": 90
    },
    {
      "midi": 59,
      "hit": false,
      "t": 142727.1299999998,
      "d": 215.9088749999937,
      "v": 92
    },
    {
      "midi": 54,
      "hit": false,
      "t": 143175.9931874998,
      "d": 151.51500000001397,
      "v": 108
    },
    {
      "midi": 63,
      "hit": false,
      "t": 143175.9931874998,
      "d": 151.51500000001397,
      "v": 96
    },
    {
      "midi": 59,
      "hit": false,
      "t": 143175.9931874998,
      "d": 216.85584375000326,
      "v": 93
    },
    {
      "midi": 64,
      "hit": false,
      "t": 147274.4739374998,
      "d": 456.4389375000028,
      "v": 82
    },
    {
      "midi": 61,
      "hit": false,
      "t": 147274.4739374998,
      "d": 470.64346875000047,
      "v": 85
    },
    {
      "midi": 52,
      "hit": false,
      "t": 147274.4739374998,
      "d": 498.10556249998626,
      "v": 88
    },
    {
      "midi": 57,
      "hit": false,
      "t": 147278.2618124998,
      "d": 480.1131562499795,
      "v": 88
    },
    {
      "midi": 59,
      "hit": false,
      "t": 148184.51090624978,
      "d": 498.10556250001537,
      "v": 80
    },
    {
      "midi": 52,
      "hit": false,
      "t": 148184.51090624978,
      "d": 507.5752500000235,
      "v": 83
    },
    {
      "midi": 56,
      "hit": false,
      "t": 148184.51090624978,
      "d": 507.5752500000235,
      "v": 85
    },
    {
      "midi": 64,
      "hit": false,
      "t": 148184.51090624978,
      "d": 525.5676562500303,
      "v": 76
    },
    {
      "midi": 61,
      "hit": false,
      "t": 149073.7145624998,
      "d": 515.1509999999835,
      "v": 82
    },
    {
      "midi": 64,
      "hit": false,
      "t": 149073.7145624998,
      "d": 515.1509999999835,
      "v": 83
    },
    {
      "midi": 57,
      "hit": false,
      "t": 149084.1312187498,
      "d": 515.1509999999835,
      "v": 83
    },
    {
      "midi": 52,
      "hit": false,
      "t": 149084.1312187498,
      "d": 549.2418749999779,
      "v": 83
    },
    {
      "midi": 64,
      "hit": false,
      "t": 150000.79696874978,
      "d": 477.27224999998,
      "v": 79
    },
    {
      "midi": 52,
      "hit": false,
      "t": 150000.79696874978,
      "d": 515.1509999999835,
      "v": 96
    },
    {
      "midi": 56,
      "hit": false,
      "t": 150000.79696874978,
      "d": 515.1509999999835,
      "v": 95
    },
    {
      "midi": 59,
      "hit": false,
      "t": 150000.79696874978,
      "d": 515.1509999999835,
      "v": 79
    },
    {
      "midi": 56,
      "hit": false,
      "t": 150909.88696874978,
      "d": 219.6967500000028,
      "v": 108
    },
    {
      "midi": 52,
      "hit": false,
      "t": 150909.88696874978,
      "d": 230.11340624999139,
      "v": 108
    },
    {
      "midi": 59,
      "hit": false,
      "t": 150909.88696874978,
      "d": 244.31793749998906,
      "v": 107
    },
    {
      "midi": 64,
      "hit": false,
      "t": 150909.88696874978,
      "d": 271.78003124997485,
      "v": 106
    },
    {
      "midi": 54,
      "hit": false,
      "t": 152740.37756249975,
      "d": 143.9392499999958,
      "v": 104
    },
    {
      "midi": 63,
      "hit": false,
      "t": 152740.37756249975,
      "d": 143.9392499999958,
      "v": 88
    },
    {
      "midi": 59,
      "hit": false,
      "t": 152740.37756249975,
      "d": 175.1892187499907,
      "v": 92
    },
    {
      "midi": 63,
      "hit": false,
      "t": 153173.14228124975,
      "d": 150.56803125000442,
      "v": 77
    },
    {
      "midi": 54,
      "hit": false,
      "t": 153175.98318749975,
      "d": 124.05290624999907,
      "v": 83
    },
    {
      "midi": 59,
      "hit": false,
      "t": 153175.98318749975,
      "d": 196.02253124999697,
      "v": 83
    },
    {
      "midi": 59,
      "hit": false,
      "t": 153633.36909374973,
      "d": 1819.1269687500026,
      "v": 70
    },
    {
      "midi": 56,
      "hit": false,
      "t": 153636.20999999973,
      "d": 1792.6118437499972,
      "v": 68
    },
    {
      "midi": 52,
      "hit": false,
      "t": 153636.20999999973,
      "d": 1816.286062500003,
      "v": 100
    },
    {
      "midi": 64,
      "hit": false,
      "t": 153636.20999999973,
      "d": 1816.286062500003,
      "v": 75
    },
    {
      "midi": 59,
      "hit": false,
      "t": 160021.62028124972,
      "d": 3783.1401562500105,
      "v": 83
    },
    {
      "midi": 64,
      "hit": false,
      "t": 163408.92749999973,
      "d": 80.49234374999651,
      "v": 95
    },
    {
      "midi": 47,
      "hit": false,
      "t": 163408.92749999973,
      "d": 107.9544374999823,
      "v": 86
    },
    {
      "midi": 56,
      "hit": false,
      "t": 163408.92749999973,
      "d": 114.58321874999092,
      "v": 100
    },
    {
      "midi": 52,
      "hit": false,
      "t": 163408.92749999973,
      "d": 118.37109375,
      "v": 89
    }
  ]
}