{
  "jsonPath": "Soundtracks/Video Game Music/Xenogears/xenogears-twopieces.json",
  "path": "Soundtracks\\Video Game Music\\Xenogears\\Xenogears_TwoPieces.mid",
  "name": "Xenogears_TwoPieces",
  "difficulty": "Advanced",
  "bpm": 120,
  "notes": [
    {
      "midi": 55,
      "hit": false,
      "t": 0,
      "d": 369.7916666666667,
      "v": 110
    },
    {
      "midi": 41,
      "hit": false,
      "t": 0,
      "d": 3875,
      "v": 110
    },
    {
      "midi": 60,
      "hit": false,
      "t": 375,
      "d": 369.79166666666674,
      "v": 110
    },
    {
      "midi": 67,
      "hit": false,
      "t": 750.0000000000001,
      "d": 494.79166666666663,
      "v": 110
    },
    {
      "midi": 55,
      "hit": false,
      "t": 1250,
      "d": 244.79166666666674,
      "v": 110
    },
    {
      "midi": 60,
      "hit": false,
      "t": 1500,
      "d": 244.79166666666674,
      "v": 110
    },
    {
      "midi": 67,
      "hit": false,
      "t": 1750,
      "d": 244.79166666666674,
      "v": 110
    },
    {
      "midi": 55,
      "hit": false,
      "t": 2000,
      "d": 369.7916666666665,
      "v": 110
    },
    {
      "midi": 60,
      "hit": false,
      "t": 2375,
      "d": 369.7916666666665,
      "v": 110
    },
    {
      "midi": 67,
      "hit": false,
      "t": 2750,
      "d": 494.7916666666665,
      "v": 110
    },
    {
      "midi": 55,
      "hit": false,
      "t": 3250,
      "d": 244.79166666666652,
      "v": 110
    },
    {
      "midi": 60,
      "hit": false,
      "t": 3500,
      "d": 244.79166666666652,
      "v": 110
    },
    {
      "midi": 67,
      "hit": false,
      "t": 3750,
      "d": 244.79166666666652,
      "v": 110
    },
    {
      "midi": 55,
      "hit": false,
      "t": 4000,
      "d": 369.79166666666697,
      "v": 110
    },
    {
      "midi": 43,
      "hit": false,
      "t": 4000,
      "d": 1875,
      "v": 110
    },
    {
      "midi": 62,
      "hit": false,
      "t": 4375,
      "d": 369.79166666666697,
      "v": 110
    },
    {
      "midi": 67,
      "hit": false,
      "t": 4750,
      "d": 494.79166666666697,
      "v": 110
    },
    {
      "midi": 55,
      "hit": false,
      "t": 5250,
      "d": 244.79166666666697,
      "v": 110
    },
    {
      "midi": 62,
      "hit": false,
      "t": 5500,
      "d": 244.79166666666697,
      "v": 110
    },
    {
      "midi": 67,
      "hit": false,
      "t": 5750,
      "d": 244.79166666666697,
      "v": 110
    },
    {
      "midi": 55,
      "hit": false,
      "t": 6000,
      "d": 369.79166666666697,
      "v": 110
    },
    {
      "midi": 48,
      "hit": false,
      "t": 6000,
      "d": 875,
      "v": 110
    },
    {
      "midi": 53,
      "hit": false,
      "t": 6000,
      "d": 875,
      "v": 110
    },
    {
      "midi": 60,
      "hit": false,
      "t": 6375,
      "d": 369.79166666666697,
      "v": 110
    },
    {
      "midi": 67,
      "hit": false,
      "t": 6750,
      "d": 494.79166666666697,
      "v": 110
    },
    {
      "midi": 52,
      "hit": false,
      "t": 7000,
      "d": 875,
      "v": 110
    },
    {
      "midi": 55,
      "hit": false,
      "t": 7250,
      "d": 244.79166666666697,
      "v": 110
    },
    {
      "midi": 60,
      "hit": false,
      "t": 7500,
      "d": 244.79166666666697,
      "v": 110
    },
    {
      "midi": 67,
      "hit": false,
      "t": 7750,
      "d": 244.79166666666697,
      "v": 110
    },
    {
      "midi": 55,
      "hit": false,
      "t": 8000,
      "d": 369.79166666666606,
      "v": 110
    },
    {
      "midi": 41,
      "hit": false,
      "t": 8000,
      "d": 1875,
      "v": 110
    },
    {
      "midi": 48,
      "hit": false,
      "t": 8000,
      "d": 1875,
      "v": 110
    },
    {
      "midi": 60,
      "hit": false,
      "t": 8375,
      "d": 369.79166666666606,
      "v": 110
    },
    {
      "midi": 67,
      "hit": false,
      "t": 8750,
      "d": 494.79166666666606,
      "v": 110
    },
    {
      "midi": 55,
      "hit": false,
      "t": 9250,
      "d": 244.79166666666606,
      "v": 110
    },
    {
      "midi": 60,
      "hit": false,
      "t": 9500,
      "d": 244.79166666666606,
      "v": 110
    },
    {
      "midi": 67,
      "hit": false,
      "t": 9750,
      "d": 244.79166666666606,
      "v": 110
    },
    {
      "midi": 55,
      "hit": false,
      "t": 10000,
      "d": 369.79166666666606,
      "v": 110
    },
    {
      "midi": 43,
      "hit": false,
      "t": 10000,
      "d": 1875,
      "v": 110
    },
    {
      "midi": 50,
      "hit": false,
      "t": 10000,
      "d": 1875,
      "v": 110
    },
    {
      "midi": 62,
      "hit": false,
      "t": 10375,
      "d": 369.79166666666606,
      "v": 110
    },
    {
      "midi": 67,
      "hit": false,
      "t": 10750,
      "d": 494.79166666666606,
      "v": 110
    },
    {
      "midi": 55,
      "hit": false,
      "t": 11250,
      "d": 244.79166666666606,
      "v": 110
    },
    {
      "midi": 62,
      "hit": false,
      "t": 11500,
      "d": 244.79166666666606,
      "v": 110
    },
    {
      "midi": 67,
      "hit": false,
      "t": 11750,
      "d": 244.79166666666606,
      "v": 110
    },
    {
      "midi": 55,
      "hit": false,
      "t": 12000,
      "d": 369.79166666666606,
      "v": 110
    },
    {
      "midi": 45,
      "hit": false,
      "t": 12000,
      "d": 3875,
      "v": 110
    },
    {
      "midi": 52,
      "hit": false,
      "t": 12000,
      "d": 3875,
      "v": 110
    },
    {
      "midi": 60,
      "hit": false,
      "t": 12375,
      "d": 369.79166666666606,
      "v": 110
    },
    {
      "midi": 67,
      "hit": false,
      "t": 12750,
      "d": 494.79166666666606,
      "v": 110
    },
    {
      "midi": 55,
      "hit": false,
      "t": 13250,
      "d": 244.79166666666606,
      "v": 110
    },
    {
      "midi": 60,
      "hit": false,
      "t": 13500,
      "d": 244.79166666666606,
      "v": 110
    },
    {
      "midi": 67,
      "hit": false,
      "t": 13750,
      "d": 244.79166666666606,
      "v": 110
    },
    {
      "midi": 55,
      "hit": false,
      "t": 14000,
      "d": 369.79166666666606,
      "v": 110
    },
    {
      "midi": 60,
      "hit": false,
      "t": 14375,
      "d": 369.79166666666606,
      "v": 110
    },
    {
      "midi": 67,
      "hit": false,
      "t": 14750,
      "d": 494.79166666666606,
      "v": 110
    },
    {
      "midi": 55,
      "hit": false,
      "t": 15250,
      "d": 244.79166666666606,
      "v": 110
    },
    {
      "midi": 60,
      "hit": false,
      "t": 15500,
      "d": 244.79166666666606,
      "v": 110
    },
    {
      "midi": 67,
      "hit": false,
      "t": 15750,
      "d": 244.79166666666606,
      "v": 110
    },
    {
      "midi": 69,
      "hit": false,
      "t": 16000,
      "d": 1875,
      "v": 110
    },
    {
      "midi": 41,
      "hit": false,
      "t": 16000,
      "d": 369.79166666666606,
      "v": 110
    },
    {
      "midi": 48,
      "hit": false,
      "t": 16375,
      "d": 369.7916666666679,
      "v": 110
    },
    {
      "midi": 55,
      "hit": false,
      "t": 16750,
      "d": 494.7916666666679,
      "v": 110
    },
    {
      "midi": 48,
      "hit": false,
      "t": 17250,
      "d": 244.79166666666788,
      "v": 110
    },
    {
      "midi": 55,
      "hit": false,
      "t": 17500,
      "d": 244.79166666666788,
      "v": 110
    },
    {
      "midi": 48,
      "hit": false,
      "t": 17750,
      "d": 244.79166666666788,
      "v": 110
    },
    {
      "midi": 69,
      "hit": false,
      "t": 18000,
      "d": 666.6666666666679,
      "v": 110
    },
    {
      "midi": 41,
      "hit": false,
      "t": 18000,
      "d": 369.7916666666679,
      "v": 110
    },
    {
      "midi": 48,
      "hit": false,
      "t": 18375,
      "d": 369.7916666666679,
      "v": 110
    },
    {
      "midi": 71,
      "hit": false,
      "t": 18750,
      "d": 119.79166666666788,
      "v": 110
    },
    {
      "midi": 55,
      "hit": false,
      "t": 18750,
      "d": 494.7916666666679,
      "v": 110
    },
    {
      "midi": 69,
      "hit": false,
      "t": 18875,
      "d": 119.79166666666788,
      "v": 110
    },
    {
      "midi": 67,
      "hit": false,
      "t": 19000,
      "d": 416.6666666666679,
      "v": 110
    },
    {
      "midi": 48,
      "hit": false,
      "t": 19250,
      "d": 244.79166666666788,
      "v": 110
    },
    {
      "midi": 69,
      "hit": false,
      "t": 19500,
      "d": 416.6666666666679,
      "v": 110
    },
    {
      "midi": 55,
      "hit": false,
      "t": 19500,
      "d": 244.79166666666788,
      "v": 110
    },
    {
      "midi": 48,
      "hit": false,
      "t": 19750,
      "d": 244.79166666666788,
      "v": 110
    },
    {
      "midi": 72,
      "hit": false,
      "t": 20000,
      "d": 875,
      "v": 110
    },
    {
      "midi": 43,
      "hit": false,
      "t": 20000,
      "d": 369.7916666666679,
      "v": 110
    },
    {
      "midi": 50,
      "hit": false,
      "t": 20375,
      "d": 369.7916666666679,
      "v": 110
    },
    {
      "midi": 55,
      "hit": false,
      "t": 20750,
      "d": 494.7916666666679,
      "v": 110
    },
    {
      "midi": 74,
      "hit": false,
      "t": 21000,
      "d": 875,
      "v": 110
    },
    {
      "midi": 50,
      "hit": false,
      "t": 21250,
      "d": 244.79166666666788,
      "v": 110
    },
    {
      "midi": 55,
      "hit": false,
      "t": 21500,
      "d": 244.79166666666788,
      "v": 110
    },
    {
      "midi": 50,
      "hit": false,
      "t": 21750,
      "d": 244.79166666666788,
      "v": 110
    },
    {
      "midi": 77,
      "hit": false,
      "t": 22000,
      "d": 875,
      "v": 110
    },
    {
      "midi": 48,
      "hit": false,
      "t": 22000,
      "d": 369.7916666666679,
      "v": 110
    },
    {
      "midi": 55,
      "hit": false,
      "t": 22375,
      "d": 369.7916666666679,
      "v": 110
    },
    {
      "midi": 60,
      "hit": false,
      "t": 22750,
      "d": 494.7916666666679,
      "v": 110
    },
    {
      "midi": 76,
      "hit": false,
      "t": 23000,
      "d": 875,
      "v": 110
    },
    {
      "midi": 55,
      "hit": false,
      "t": 23250,
      "d": 244.79166666666788,
      "v": 110
    },
    {
      "midi": 60,
      "hit": false,
      "t": 23500,
      "d": 244.79166666666788,
      "v": 110
    },
    {
      "midi": 55,
      "hit": false,
      "t": 23750,
      "d": 244.79166666666788,
      "v": 110
    },
    {
      "midi": 69,
      "hit": false,
      "t": 24000,
      "d": 182.29166666666788,
      "v": 110
    },
    {
      "midi": 41,
      "hit": false,
      "t": 24000,
      "d": 369.7916666666679,
      "v": 110
    },
    {
      "midi": 67,
      "hit": false,
      "t": 24187.5,
      "d": 182.29166666666788,
      "v": 110
    },
    {
      "midi": 69,
      "hit": false,
      "t": 24375,
      "d": 1500,
      "v": 110
    },
    {
      "midi": 48,
      "hit": false,
      "t": 24375,
      "d": 369.7916666666679,
      "v": 110
    },
    {
      "midi": 55,
      "hit": false,
      "t": 24750,
      "d": 494.7916666666679,
      "v": 110
    },
    {
      "midi": 48,
      "hit": false,
      "t": 25250,
      "d": 244.79166666666788,
      "v": 110
    },
    {
      "midi": 55,
      "hit": false,
      "t": 25500,
      "d": 244.79166666666788,
      "v": 110
    },
    {
      "midi": 48,
      "hit": false,
      "t": 25750,
      "d": 244.79166666666788,
      "v": 110
    },
    {
      "midi": 72,
      "hit": false,
      "t": 26000,
      "d": 875,
      "v": 110
    },
    {
      "midi": 43,
      "hit": false,
      "t": 26000,
      "d": 369.7916666666679,
      "v": 110
    },
    {
      "midi": 50,
      "hit": false,
      "t": 26375,
      "d": 369.7916666666679,
      "v": 110
    },
    {
      "midi": 55,
      "hit": false,
      "t": 26750,
      "d": 494.7916666666679,
      "v": 110
    },
    {
      "midi": 71,
      "hit": false,
      "t": 27000,
      "d": 875,
      "v": 110
    },
    {
      "midi": 50,
      "hit": false,
      "t": 27250,
      "d": 244.79166666666788,
      "v": 110
    },
    {
      "midi": 55,
      "hit": false,
      "t": 27500,
      "d": 244.79166666666788,
      "v": 110
    },
    {
      "midi": 50,
      "hit": false,
      "t": 27750,
      "d": 244.79166666666788,
      "v": 110
    },
    {
      "midi": 72,
      "hit": false,
      "t": 28000,
      "d": 3875,
      "v": 110
    },
    {
      "midi": 48,
      "hit": false,
      "t": 28000,
      "d": 369.7916666666679,
      "v": 110
    },
    {
      "midi": 55,
      "hit": false,
      "t": 28375,
      "d": 369.7916666666679,
      "v": 110
    },
    {
      "midi": 60,
      "hit": false,
      "t": 28750,
      "d": 494.7916666666679,
      "v": 110
    },
    {
      "midi": 55,
      "hit": false,
      "t": 29250,
      "d": 244.79166666666788,
      "v": 110
    },
    {
      "midi": 60,
      "hit": false,
      "t": 29500,
      "d": 244.79166666666788,
      "v": 110
    },
    {
      "midi": 55,
      "hit": false,
      "t": 29750,
      "d": 244.79166666666788,
      "v": 110
    },
    {
      "midi": 48,
      "hit": false,
      "t": 30000,
      "d": 369.7916666666679,
      "v": 110
    },
    {
      "midi": 55,
      "hit": false,
      "t": 30375,
      "d": 369.7916666666679,
      "v": 110
    },
    {
      "midi": 60,
      "hit": false,
      "t": 30750,
      "d": 494.7916666666679,
      "v": 110
    },
    {
      "midi": 55,
      "hit": false,
      "t": 31250,
      "d": 244.79166666666788,
      "v": 110
    },
    {
      "midi": 60,
      "hit": false,
      "t": 31500,
      "d": 244.79166666666788,
      "v": 110
    },
    {
      "midi": 55,
      "hit": false,
      "t": 31750,
      "d": 244.79166666666788,
      "v": 110
    },
    {
      "midi": 57,
      "hit": false,
      "t": 32000,
      "d": 369.7916666666679,
      "v": 110
    },
    {
      "midi": 60,
      "hit": false,
      "t": 32000,
      "d": 369.7916666666679,
      "v": 110
    },
    {
      "midi": 67,
      "hit": false,
      "t": 32000,
      "d": 369.7916666666679,
      "v": 110
    },
    {
      "midi": 41,
      "hit": false,
      "t": 32000,
      "d": 875,
      "v": 110
    },
    {
      "midi": 67,
      "hit": false,
      "t": 32375,
      "d": 369.7916666666679,
      "v": 110
    },
    {
      "midi": 67,
      "hit": false,
      "t": 32750,
      "d": 244.79166666666424,
      "v": 110
    },
    {
      "midi": 67,
      "hit": false,
      "t": 33000,
      "d": 369.79166666666424,
      "v": 110
    },
    {
      "midi": 55,
      "hit": false,
      "t": 33250,
      "d": 244.79166666666424,
      "v": 110
    },
    {
      "midi": 65,
      "hit": false,
      "t": 33375,
      "d": 119.79166666666424,
      "v": 110
    },
    {
      "midi": 65,
      "hit": false,
      "t": 33500,
      "d": 244.79166666666424,
      "v": 110
    },
    {
      "midi": 60,
      "hit": false,
      "t": 33500,
      "d": 244.79166666666424,
      "v": 110
    },
    {
      "midi": 64,
      "hit": false,
      "t": 33750,
      "d": 244.79166666666424,
      "v": 110
    },
    {
      "midi": 55,
      "hit": false,
      "t": 33750,
      "d": 244.79166666666424,
      "v": 110
    },
    {
      "midi": 57,
      "hit": false,
      "t": 34000,
      "d": 875,
      "v": 110
    },
    {
      "midi": 62,
      "hit": false,
      "t": 34000,
      "d": 875,
      "v": 110
    },
    {
      "midi": 41,
      "hit": false,
      "t": 34000,
      "d": 1244.7916666666642,
      "v": 110
    },
    {
      "midi": 60,
      "hit": false,
      "t": 35250,
      "d": 244.79166666666424,
      "v": 110
    },
    {
      "midi": 55,
      "hit": false,
      "t": 35250,
      "d": 666.6666666666642,
      "v": 110
    },
    {
      "midi": 60,
      "hit": false,
      "t": 35500,
      "d": 244.79166666666424,
      "v": 110
    },
    {
      "midi": 62,
      "hit": false,
      "t": 35750,
      "d": 244.79166666666424,
      "v": 110
    },
    {
      "midi": 55,
      "hit": false,
      "t": 36000,
      "d": 666.6666666666642,
      "v": 110
    },
    {
      "midi": 60,
      "hit": false,
      "t": 36000,
      "d": 666.6666666666642,
      "v": 110
    },
    {
      "midi": 65,
      "hit": false,
      "t": 36000,
      "d": 666.6666666666642,
      "v": 110
    },
    {
      "midi": 36,
      "hit": false,
      "t": 36000,
      "d": 1875,
      "v": 110
    },
    {
      "midi": 48,
      "hit": false,
      "t": 36000,
      "d": 1875,
      "v": 110
    },
    {
      "midi": 64,
      "hit": false,
      "t": 36750,
      "d": 244.79166666666424,
      "v": 110
    },
    {
      "midi": 64,
      "hit": false,
      "t": 37000,
      "d": 416.66666666666424,
      "v": 110
    },
    {
      "midi": 55,
      "hit": false,
      "t": 37500,
      "d": 416.66666666666424,
      "v": 110
    },
    {
      "midi": 64,
      "hit": false,
      "t": 37500,
      "d": 416.66666666666424,
      "v": 110
    },
    {
      "midi": 55,
      "hit": false,
      "t": 38000,
      "d": 875,
      "v": 110
    },
    {
      "midi": 60,
      "hit": false,
      "t": 38000,
      "d": 875,
      "v": 110
    },
    {
      "midi": 64,
      "hit": false,
      "t": 38000,
      "d": 875,
      "v": 110
    },
    {
      "midi": 48,
      "hit": false,
      "t": 38000,
      "d": 1875,
      "v": 110
    },
    {
      "midi": 55,
      "hit": false,
      "t": 39000,
      "d": 369.79166666666424,
      "v": 110
    },
    {
      "midi": 60,
      "hit": false,
      "t": 39375,
      "d": 369.79166666666424,
      "v": 110
    },
    {
      "midi": 62,
      "hit": false,
      "t": 39750,
      "d": 244.79166666666424,
      "v": 110
    },
    {
      "midi": 57,
      "hit": false,
      "t": 40000,
      "d": 369.79166666666424,
      "v": 110
    },
    {
      "midi": 60,
      "hit": false,
      "t": 40000,
      "d": 369.79166666666424,
      "v": 110
    },
    {
      "midi": 67,
      "hit": false,
      "t": 40000,
      "d": 369.79166666666424,
      "v": 110
    },
    {
      "midi": 41,
      "hit": false,
      "t": 40000,
      "d": 875,
      "v": 110
    },
    {
      "midi": 67,
      "hit": false,
      "t": 40375,
      "d": 369.79166666666424,
      "v": 110
    },
    {
      "midi": 67,
      "hit": false,
      "t": 40750,
      "d": 244.79166666666424,
      "v": 110
    },
    {
      "midi": 67,
      "hit": false,
      "t": 41000,
      "d": 416.66666666666424,
      "v": 110
    },
    {
      "midi": 55,
      "hit": false,
      "t": 41250,
      "d": 244.79166666666424,
      "v": 110
    },
    {
      "midi": 60,
      "hit": false,
      "t": 41500,
      "d": 244.79166666666424,
      "v": 110
    },
    {
      "midi": 72,
      "hit": false,
      "t": 41750,
      "d": 244.79166666666424,
      "v": 110
    },
    {
      "midi": 55,
      "hit": false,
      "t": 41750,
      "d": 244.79166666666424,
      "v": 110
    },
    {
      "midi": 62,
      "hit": false,
      "t": 42000,
      "d": 369.79166666666424,
      "v": 110
    },
    {
      "midi": 72,
      "hit": false,
      "t": 42000,
      "d": 369.79166666666424,
      "v": 110
    },
    {
      "midi": 43,
      "hit": false,
      "t": 42000,
      "d": 875,
      "v": 110
    },
    {
      "midi": 55,
      "hit": false,
      "t": 42000,
      "d": 875,
      "v": 110
    },
    {
      "midi": 71,
      "hit": false,
      "t": 42375,
      "d": 369.79166666666424,
      "v": 110
    },
    {
      "midi": 67,
      "hit": false,
      "t": 42750,
      "d": 666.6666666666642,
      "v": 110
    },
    {
      "midi": 55,
      "hit": false,
      "t": 43250,
      "d": 244.79166666666424,
      "v": 110
    },
    {
      "midi": 67,
      "hit": false,
      "t": 43500,
      "d": 244.79166666666424,
      "v": 110
    },
    {
      "midi": 62,
      "hit": false,
      "t": 43500,
      "d": 244.79166666666424,
      "v": 110
    },
    {
      "midi": 64,
      "hit": false,
      "t": 43750,
      "d": 244.79166666666424,
      "v": 110
    },
    {
      "midi": 55,
      "hit": false,
      "t": 43750,
      "d": 244.79166666666424,
      "v": 110
    },
    {
      "midi": 60,
      "hit": false,
      "t": 44000,
      "d": 1375,
      "v": 110
    },
    {
      "midi": 64,
      "hit": false,
      "t": 44000,
      "d": 1375,
      "v": 110
    },
    {
      "midi": 69,
      "hit": false,
      "t": 44000,
      "d": 1375,
      "v": 110
    },
    {
      "midi": 45,
      "hit": false,
      "t": 44000,
      "d": 875,
      "v": 110
    },
    {
      "midi": 55,
      "hit": false,
      "t": 44000,
      "d": 875,
      "v": 110
    },
    {
      "midi": 55,
      "hit": false,
      "t": 45250,
      "d": 244.79166666666424,
      "v": 110
    },
    {
      "midi": 60,
      "hit": false,
      "t": 45500,
      "d": 244.79166666666424,
      "v": 110
    },
    {
      "midi": 67,
      "hit": false,
      "t": 45750,
      "d": 244.79166666666424,
      "v": 110
    },
    {
      "midi": 64,
      "hit": false,
      "t": 46000,
      "d": 416.66666666666424,
      "v": 110
    },
    {
      "midi": 45,
      "hit": false,
      "t": 46000,
      "d": 1875,
      "v": 110
    },
    {
      "midi": 52,
      "hit": false,
      "t": 46500,
      "d": 244.79166666666424,
      "v": 110
    },
    {
      "midi": 59,
      "hit": false,
      "t": 46750,
      "d": 244.79166666666424,
      "v": 110
    },
    {
      "midi": 60,
      "hit": false,
      "t": 47000,
      "d": 244.79166666666424,
      "v": 110
    },
    {
      "midi": 55,
      "hit": false,
      "t": 47250,
      "d": 244.79166666666424,
      "v": 110
    },
    {
      "midi": 60,
      "hit": false,
      "t": 47500,
      "d": 244.79166666666424,
      "v": 110
    },
    {
      "midi": 55,
      "hit": false,
      "t": 47750,
      "d": 244.79166666666424,
      "v": 110
    },
    {
      "midi": 62,
      "hit": false,
      "t": 47750,
      "d": 244.79166666666424,
      "v": 110
    },
    {
      "midi": 57,
      "hit": false,
      "t": 48000,
      "d": 369.79166666666424,
      "v": 110
    },
    {
      "midi": 60,
      "hit": false,
      "t": 48000,
      "d": 369.79166666666424,
      "v": 110
    },
    {
      "midi": 67,
      "hit": false,
      "t": 48000,
      "d": 369.79166666666424,
      "v": 110
    },
    {
      "midi": 41,
      "hit": false,
      "t": 48000,
      "d": 875,
      "v": 110
    },
    {
      "midi": 67,
      "hit": false,
      "t": 48375,
      "d": 369.79166666666424,
      "v": 110
    },
    {
      "midi": 67,
      "hit": false,
      "t": 48750,
      "d": 244.79166666666424,
      "v": 110
    },
    {
      "midi": 67,
      "hit": false,
      "t": 49000,
      "d": 369.79166666666424,
      "v": 110
    },
    {
      "midi": 55,
      "hit": false,
      "t": 49250,
      "d": 244.79166666666424,
      "v": 110
    },
    {
      "midi": 65,
      "hit": false,
      "t": 49375,
      "d": 119.79166666666424,
      "v": 110
    },
    {
      "midi": 65,
      "hit": false,
      "t": 49500,
      "d": 244.79166666666424,
      "v": 110
    },
    {
      "midi": 60,
      "hit": false,
      "t": 49500,
      "d": 244.79166666666424,
      "v": 110
    },
    {
      "midi": 64,
      "hit": false,
      "t": 49750,
      "d": 244.79166666666424,
      "v": 110
    },
    {
      "midi": 55,
      "hit": false,
      "t": 49750,
      "d": 244.79166666666424,
      "v": 110
    },
    {
      "midi": 57,
      "hit": false,
      "t": 50000,
      "d": 875,
      "v": 110
    },
    {
      "midi": 62,
      "hit": false,
      "t": 50000,
      "d": 875,
      "v": 110
    },
    {
      "midi": 41,
      "hit": false,
      "t": 50000,
      "d": 1244.7916666666642,
      "v": 110
    },
    {
      "midi": 60,
      "hit": false,
      "t": 51250,
      "d": 244.79166666666424,
      "v": 110
    },
    {
      "midi": 55,
      "hit": false,
      "t": 51250,
      "d": 666.6666666666642,
      "v": 110
    },
    {
      "midi": 60,
      "hit": false,
      "t": 51500,
      "d": 244.79166666666424,
      "v": 110
    },
    {
      "midi": 62,
      "hit": false,
      "t": 51750,
      "d": 244.79166666666424,
      "v": 110
    },
    {
      "midi": 55,
      "hit": false,
      "t": 52000,
      "d": 666.6666666666642,
      "v": 110
    },
    {
      "midi": 60,
      "hit": false,
      "t": 52000,
      "d": 666.6666666666642,
      "v": 110
    },
    {
      "midi": 65,
      "hit": false,
      "t": 52000,
      "d": 666.6666666666642,
      "v": 110
    },
    {
      "midi": 48,
      "hit": false,
      "t": 52000,
      "d": 1375,
      "v": 110
    },
    {
      "midi": 64,
      "hit": false,
      "t": 52750,
      "d": 244.79166666666424,
      "v": 110
    },
    {
      "midi": 64,
      "hit": false,
      "t": 53000,
      "d": 875,
      "v": 110
    },
    {
      "midi": 48,
      "hit": false,
      "t": 53750,
      "d": 244.79166666666424,
      "v": 110
    },
    {
      "midi": 55,
      "hit": false,
      "t": 54000,
      "d": 875,
      "v": 110
    },
    {
      "midi": 60,
      "hit": false,
      "t": 54000,
      "d": 875,
      "v": 110
    },
    {
      "midi": 64,
      "hit": false,
      "t": 54000,
      "d": 875,
      "v": 110
    },
    {
      "midi": 48,
      "hit": false,
      "t": 54000,
      "d": 875,
      "v": 110
    },
    {
      "midi": 59,
      "hit": false,
      "t": 55250,
      "d": 494.79166666666424,
      "v": 110
    },
    {
      "midi": 55,
      "hit": false,
      "t": 55250,
      "d": 494.79166666666424,
      "v": 110
    },
    {
      "midi": 60,
      "hit": false,
      "t": 55750,
      "d": 244.79166666666424,
      "v": 110
    },
    {
      "midi": 55,
      "hit": false,
      "t": 55750,
      "d": 244.79166666666424,
      "v": 110
    },
    {
      "midi": 57,
      "hit": false,
      "t": 56000,
      "d": 369.79166666666424,
      "v": 110
    },
    {
      "midi": 60,
      "hit": false,
      "t": 56000,
      "d": 369.79166666666424,
      "v": 110
    },
    {
      "midi": 41,
      "hit": false,
      "t": 56000,
      "d": 875,
      "v": 110
    },
    {
      "midi": 59,
      "hit": false,
      "t": 56375,
      "d": 369.79166666666424,
      "v": 110
    },
    {
      "midi": 60,
      "hit": false,
      "t": 56750,
      "d": 244.79166666666424,
      "v": 110
    },
    {
      "midi": 60,
      "hit": false,
      "t": 57000,
      "d": 369.79166666666424,
      "v": 110
    },
    {
      "midi": 45,
      "hit": false,
      "t": 57000,
      "d": 244.79166666666424,
      "v": 110
    },
    {
      "midi": 55,
      "hit": false,
      "t": 57250,
      "d": 244.79166666666424,
      "v": 110
    },
    {
      "midi": 67,
      "hit": false,
      "t": 57375,
      "d": 369.79166666666424,
      "v": 110
    },
    {
      "midi": 60,
      "hit": false,
      "t": 57500,
      "d": 244.79166666666424,
      "v": 110
    },
    {
      "midi": 64,
      "hit": false,
      "t": 57750,
      "d": 119.79166666666424,
      "v": 110
    },
    {
      "midi": 55,
      "hit": false,
      "t": 57750,
      "d": 244.79166666666424,
      "v": 110
    },
    {
      "midi": 62,
      "hit": false,
      "t": 57875,
      "d": 119.79166666666424,
      "v": 110
    },
    {
      "midi": 55,
      "hit": false,
      "t": 58000,
      "d": 244.79166666666424,
      "v": 110
    },
    {
      "midi": 59,
      "hit": false,
      "t": 58000,
      "d": 244.79166666666424,
      "v": 110
    },
    {
      "midi": 62,
      "hit": false,
      "t": 58000,
      "d": 244.79166666666424,
      "v": 110
    },
    {
      "midi": 43,
      "hit": false,
      "t": 58000,
      "d": 875,
      "v": 110
    },
    {
      "midi": 62,
      "hit": false,
      "t": 58250,
      "d": 494.79166666666424,
      "v": 110
    },
    {
      "midi": 62,
      "hit": false,
      "t": 58750,
      "d": 244.79166666666424,
      "v": 110
    },
    {
      "midi": 64,
      "hit": false,
      "t": 59000,
      "d": 416.66666666666424,
      "v": 110
    },
    {
      "midi": 62,
      "hit": false,
      "t": 59500,
      "d": 244.79166666666424,
      "v": 110
    },
    {
      "midi": 60,
      "hit": false,
      "t": 59750,
      "d": 244.79166666666424,
      "v": 110
    },
    {
      "midi": 55,
      "hit": false,
      "t": 60000,
      "d": 875,
      "v": 110
    },
    {
      "midi": 60,
      "hit": false,
      "t": 60000,
      "d": 875,
      "v": 110
    },
    {
      "midi": 48,
      "hit": false,
      "t": 60000,
      "d": 1375,
      "v": 110
    },
    {
      "midi": 55,
      "hit": false,
      "t": 61250,
      "d": 244.79166666666424,
      "v": 110
    },
    {
      "midi": 60,
      "hit": false,
      "t": 61500,
      "d": 244.79166666666424,
      "v": 110
    },
    {
      "midi": 67,
      "hit": false,
      "t": 61750,
      "d": 244.79166666666424,
      "v": 110
    },
    {
      "midi": 48,
      "hit": false,
      "t": 61750,
      "d": 244.79166666666424,
      "v": 110
    },
    {
      "midi": 48,
      "hit": false,
      "t": 62000,
      "d": 875,
      "v": 110
    },
    {
      "midi": 60,
      "hit": false,
      "t": 62000,
      "d": 875,
      "v": 110
    },
    {
      "midi": 60,
      "hit": false,
      "t": 63000,
      "d": 416.66666666666424,
      "v": 110
    },
    {
      "midi": 48,
      "hit": false,
      "t": 63000,
      "d": 416.66666666666424,
      "v": 110
    },
    {
      "midi": 52,
      "hit": false,
      "t": 63000,
      "d": 416.66666666666424,
      "v": 110
    },
    {
      "midi": 55,
      "hit": false,
      "t": 63000,
      "d": 416.66666666666424,
      "v": 110
    },
    {
      "midi": 72,
      "hit": false,
      "t": 63500,
      "d": 416.66666666666424,
      "v": 110
    },
    {
      "midi": 60,
      "hit": false,
      "t": 63500,
      "d": 416.66666666666424,
      "v": 110
    },
    {
      "midi": 64,
      "hit": false,
      "t": 63500,
      "d": 416.66666666666424,
      "v": 110
    },
    {
      "midi": 67,
      "hit": false,
      "t": 63500,
      "d": 416.66666666666424,
      "v": 110
    },
    {
      "midi": 67,
      "hit": false,
      "t": 64000,
      "d": 875,
      "v": 110
    },
    {
      "midi": 71,
      "hit": false,
      "t": 64000,
      "d": 875,
      "v": 110
    },
    {
      "midi": 45,
      "hit": false,
      "t": 64000,
      "d": 369.79166666666424,
      "v": 110
    },
    {
      "midi": 40,
      "hit": false,
      "t": 64375,
      "d": 369.79166666666424,
      "v": 110
    },
    {
      "midi": 33,
      "hit": false,
      "t": 64750,
      "d": 916.6666666666715,
      "v": 110
    },
    {
      "midi": 64,
      "hit": false,
      "t": 65000,
      "d": 666.6666666666715,
      "v": 110
    },
    {
      "midi": 72,
      "hit": false,
      "t": 65000,
      "d": 666.6666666666715,
      "v": 110
    },
    {
      "midi": 62,
      "hit": false,
      "t": 65750,
      "d": 244.79166666667152,
      "v": 110
    },
    {
      "midi": 71,
      "hit": false,
      "t": 65750,
      "d": 244.79166666667152,
      "v": 110
    },
    {
      "midi": 40,
      "hit": false,
      "t": 65750,
      "d": 244.79166666667152,
      "v": 110
    },
    {
      "midi": 62,
      "hit": false,
      "t": 66000,
      "d": 666.6666666666715,
      "v": 110
    },
    {
      "midi": 67,
      "hit": false,
      "t": 66000,
      "d": 666.6666666666715,
      "v": 110
    },
    {
      "midi": 71,
      "hit": false,
      "t": 66000,
      "d": 666.6666666666715,
      "v": 110
    },
    {
      "midi": 41,
      "hit": false,
      "t": 66000,
      "d": 666.6666666666715,
      "v": 110
    },
    {
      "midi": 69,
      "hit": false,
      "t": 66750,
      "d": 244.79166666667152,
      "v": 110
    },
    {
      "midi": 41,
      "hit": false,
      "t": 66750,
      "d": 494.7916666666715,
      "v": 110
    },
    {
      "midi": 60,
      "hit": false,
      "t": 67000,
      "d": 666.6666666666715,
      "v": 110
    },
    {
      "midi": 65,
      "hit": false,
      "t": 67000,
      "d": 666.6666666666715,
      "v": 110
    },
    {
      "midi": 69,
      "hit": false,
      "t": 67000,
      "d": 666.6666666666715,
      "v": 110
    },
    {
      "midi": 48,
      "hit": false,
      "t": 67250,
      "d": 244.79166666667152,
      "v": 110
    },
    {
      "midi": 41,
      "hit": false,
      "t": 67500,
      "d": 416.6666666666715,
      "v": 110
    },
    {
      "midi": 67,
      "hit": false,
      "t": 67750,
      "d": 244.79166666667152,
      "v": 110
    },
    {
      "midi": 60,
      "hit": false,
      "t": 68000,
      "d": 875,
      "v": 110
    },
    {
      "midi": 64,
      "hit": false,
      "t": 68000,
      "d": 875,
      "v": 110
    },
    {
      "midi": 67,
      "hit": false,
      "t": 68000,
      "d": 875,
      "v": 110
    },
    {
      "midi": 48,
      "hit": false,
      "t": 68000,
      "d": 875,
      "v": 110
    },
    {
      "midi": 55,
      "hit": false,
      "t": 69000,
      "d": 244.79166666667152,
      "v": 110
    },
    {
      "midi": 48,
      "hit": false,
      "t": 69000,
      "d": 416.6666666666715,
      "v": 110
    },
    {
      "midi": 60,
      "hit": false,
      "t": 69250,
      "d": 244.79166666667152,
      "v": 110
    },
    {
      "midi": 62,
      "hit": false,
      "t": 69500,
      "d": 244.79166666667152,
      "v": 110
    },
    {
      "midi": 64,
      "hit": false,
      "t": 69750,
      "d": 244.79166666667152,
      "v": 110
    },
    {
      "midi": 67,
      "hit": false,
      "t": 69750,
      "d": 244.79166666667152,
      "v": 110
    },
    {
      "midi": 48,
      "hit": false,
      "t": 69750,
      "d": 244.79166666667152,
      "v": 110
    },
    {
      "midi": 67,
      "hit": false,
      "t": 70000,
      "d": 369.7916666666715,
      "v": 110
    },
    {
      "midi": 55,
      "hit": false,
      "t": 70000,
      "d": 875,
      "v": 110
    },
    {
      "midi": 59,
      "hit": false,
      "t": 70000,
      "d": 875,
      "v": 110
    },
    {
      "midi": 62,
      "hit": false,
      "t": 70000,
      "d": 875,
      "v": 110
    },
    {
      "midi": 64,
      "hit": false,
      "t": 70375,
      "d": 369.7916666666715,
      "v": 110
    },
    {
      "midi": 62,
      "hit": false,
      "t": 70750,
      "d": 494.7916666666715,
      "v": 110
    },
    {
      "midi": 55,
      "hit": false,
      "t": 71000,
      "d": 875,
      "v": 110
    },
    {
      "midi": 59,
      "hit": false,
      "t": 71000,
      "d": 875,
      "v": 110
    },
    {
      "midi": 64,
      "hit": false,
      "t": 71250,
      "d": 119.79166666667152,
      "v": 110
    },
    {
      "midi": 62,
      "hit": false,
      "t": 71375,
      "d": 119.79166666667152,
      "v": 110
    },
    {
      "midi": 60,
      "hit": false,
      "t": 71500,
      "d": 244.79166666667152,
      "v": 110
    },
    {
      "midi": 59,
      "hit": false,
      "t": 71750,
      "d": 244.79166666667152,
      "v": 110
    },
    {
      "midi": 60,
      "hit": false,
      "t": 72000,
      "d": 875,
      "v": 110
    },
    {
      "midi": 45,
      "hit": false,
      "t": 72000,
      "d": 875,
      "v": 110
    },
    {
      "midi": 60,
      "hit": false,
      "t": 73000,
      "d": 416.6666666666715,
      "v": 110
    },
    {
      "midi": 64,
      "hit": false,
      "t": 73000,
      "d": 416.6666666666715,
      "v": 110
    },
    {
      "midi": 67,
      "hit": false,
      "t": 73000,
      "d": 416.6666666666715,
      "v": 110
    },
    {
      "midi": 52,
      "hit": false,
      "t": 73000,
      "d": 244.79166666667152,
      "v": 110
    },
    {
      "midi": 55,
      "hit": false,
      "t": 73250,
      "d": 244.79166666667152,
      "v": 110
    },
    {
      "midi": 67,
      "hit": false,
      "t": 73500,
      "d": 416.6666666666715,
      "v": 110
    },
    {
      "midi": 72,
      "hit": false,
      "t": 73500,
      "d": 416.6666666666715,
      "v": 110
    },
    {
      "midi": 60,
      "hit": false,
      "t": 73500,
      "d": 416.6666666666715,
      "v": 110
    },
    {
      "midi": 62,
      "hit": false,
      "t": 74000,
      "d": 875,
      "v": 110
    },
    {
      "midi": 67,
      "hit": false,
      "t": 74000,
      "d": 875,
      "v": 110
    },
    {
      "midi": 71,
      "hit": false,
      "t": 74000,
      "d": 875,
      "v": 110
    },
    {
      "midi": 47,
      "hit": false,
      "t": 74000,
      "d": 875,
      "v": 110
    },
    {
      "midi": 59,
      "hit": false,
      "t": 74000,
      "d": 875,
      "v": 110
    },
    {
      "midi": 60,
      "hit": false,
      "t": 75000,
      "d": 875,
      "v": 110
    },
    {
      "midi": 65,
      "hit": false,
      "t": 75000,
      "d": 875,
      "v": 110
    },
    {
      "midi": 69,
      "hit": false,
      "t": 75000,
      "d": 875,
      "v": 110
    },
    {
      "midi": 45,
      "hit": false,
      "t": 75000,
      "d": 875,
      "v": 110
    },
    {
      "midi": 57,
      "hit": false,
      "t": 75000,
      "d": 875,
      "v": 110
    },
    {
      "midi": 59,
      "hit": false,
      "t": 76000,
      "d": 875,
      "v": 110
    },
    {
      "midi": 62,
      "hit": false,
      "t": 76000,
      "d": 875,
      "v": 110
    },
    {
      "midi": 67,
      "hit": false,
      "t": 76000,
      "d": 875,
      "v": 110
    },
    {
      "midi": 43,
      "hit": false,
      "t": 76000,
      "d": 1875,
      "v": 110
    },
    {
      "midi": 55,
      "hit": false,
      "t": 76000,
      "d": 1875,
      "v": 110
    },
    {
      "midi": 55,
      "hit": false,
      "t": 77000,
      "d": 244.79166666667152,
      "v": 110
    },
    {
      "midi": 60,
      "hit": false,
      "t": 77250,
      "d": 244.79166666667152,
      "v": 110
    },
    {
      "midi": 62,
      "hit": false,
      "t": 77500,
      "d": 244.79166666667152,
      "v": 110
    },
    {
      "midi": 64,
      "hit": false,
      "t": 77750,
      "d": 244.79166666667152,
      "v": 110
    },
    {
      "midi": 67,
      "hit": false,
      "t": 77750,
      "d": 244.79166666667152,
      "v": 110
    },
    {
      "midi": 59,
      "hit": false,
      "t": 78000,
      "d": 369.7916666666715,
      "v": 110
    },
    {
      "midi": 62,
      "hit": false,
      "t": 78000,
      "d": 369.7916666666715,
      "v": 110
    },
    {
      "midi": 67,
      "hit": false,
      "t": 78000,
      "d": 369.7916666666715,
      "v": 110
    },
    {
      "midi": 43,
      "hit": false,
      "t": 78000,
      "d": 369.7916666666715,
      "v": 110
    },
    {
      "midi": 64,
      "hit": false,
      "t": 78375,
      "d": 369.7916666666715,
      "v": 110
    },
    {
      "midi": 50,
      "hit": false,
      "t": 78375,
      "d": 369.7916666666715,
      "v": 110
    },
    {
      "midi": 62,
      "hit": false,
      "t": 78750,
      "d": 244.79166666667152,
      "v": 110
    },
    {
      "midi": 57,
      "hit": false,
      "t": 78750,
      "d": 1125,
      "v": 110
    },
    {
      "midi": 59,
      "hit": false,
      "t": 79000,
      "d": 244.79166666667152,
      "v": 110
    },
    {
      "midi": 62,
      "hit": false,
      "t": 79000,
      "d": 244.79166666667152,
      "v": 110
    },
    {
      "midi": 64,
      "hit": false,
      "t": 79250,
      "d": 494.7916666666715,
      "v": 110
    },
    {
      "midi": 62,
      "hit": false,
      "t": 79750,
      "d": 119.79166666667152,
      "v": 110
    },
    {
      "midi": 60,
      "hit": false,
      "t": 79875,
      "d": 119.79166666667152,
      "v": 110
    },
    {
      "midi": 60,
      "hit": false,
      "t": 80000,
      "d": 875,
      "v": 110
    },
    {
      "midi": 45,
      "hit": false,
      "t": 80000,
      "d": 1875,
      "v": 110
    },
    {
      "midi": 60,
      "hit": false,
      "t": 81000,
      "d": 416.6666666666715,
      "v": 110
    },
    {
      "midi": 72,
      "hit": false,
      "t": 81500,
      "d": 416.6666666666715,
      "v": 110
    },
    {
      "midi": 62,
      "hit": false,
      "t": 82000,
      "d": 875,
      "v": 110
    },
    {
      "midi": 67,
      "hit": false,
      "t": 82000,
      "d": 875,
      "v": 110
    },
    {
      "midi": 71,
      "hit": false,
      "t": 82000,
      "d": 875,
      "v": 110
    },
    {
      "midi": 41,
      "hit": false,
      "t": 82000,
      "d": 369.7916666666715,
      "v": 110
    },
    {
      "midi": 48,
      "hit": false,
      "t": 82375,
      "d": 369.7916666666715,
      "v": 110
    },
    {
      "midi": 41,
      "hit": false,
      "t": 82750,
      "d": 244.79166666667152,
      "v": 110
    },
    {
      "midi": 60,
      "hit": false,
      "t": 83000,
      "d": 666.6666666666715,
      "v": 110
    },
    {
      "midi": 65,
      "hit": false,
      "t": 83000,
      "d": 666.6666666666715,
      "v": 110
    },
    {
      "midi": 69,
      "hit": false,
      "t": 83000,
      "d": 666.6666666666715,
      "v": 110
    },
    {
      "midi": 41,
      "hit": false,
      "t": 83000,
      "d": 666.6666666666715,
      "v": 110
    },
    {
      "midi": 67,
      "hit": false,
      "t": 83750,
      "d": 244.79166666667152,
      "v": 110
    },
    {
      "midi": 41,
      "hit": false,
      "t": 83750,
      "d": 244.79166666667152,
      "v": 110
    },
    {
      "midi": 60,
      "hit": false,
      "t": 84000,
      "d": 875,
      "v": 110
    },
    {
      "midi": 64,
      "hit": false,
      "t": 84000,
      "d": 875,
      "v": 110
    },
    {
      "midi": 67,
      "hit": false,
      "t": 84000,
      "d": 875,
      "v": 110
    },
    {
      "midi": 48,
      "hit": false,
      "t": 84000,
      "d": 369.7916666666715,
      "v": 110
    },
    {
      "midi": 43,
      "hit": false,
      "t": 84375,
      "d": 369.7916666666715,
      "v": 110
    },
    {
      "midi": 48,
      "hit": false,
      "t": 84750,
      "d": 666.6666666666715,
      "v": 110
    },
    {
      "midi": 65,
      "hit": false,
      "t": 85250,
      "d": 494.7916666666715,
      "v": 110
    },
    {
      "midi": 64,
      "hit": false,
      "t": 85750,
      "d": 244.79166666667152,
      "v": 110
    },
    {
      "midi": 48,
      "hit": false,
      "t": 85750,
      "d": 244.79166666667152,
      "v": 110
    },
    {
      "midi": 59,
      "hit": false,
      "t": 86000,
      "d": 875,
      "v": 110
    },
    {
      "midi": 62,
      "hit": false,
      "t": 86000,
      "d": 875,
      "v": 110
    },
    {
      "midi": 67,
      "hit": false,
      "t": 86000,
      "d": 875,
      "v": 110
    },
    {
      "midi": 43,
      "hit": false,
      "t": 86000,
      "d": 1875,
      "v": 110
    },
    {
      "midi": 60,
      "hit": false,
      "t": 87250,
      "d": 244.79166666667152,
      "v": 110
    },
    {
      "midi": 59,
      "hit": false,
      "t": 87500,
      "d": 416.6666666666715,
      "v": 110
    },
    {
      "midi": 57,
      "hit": false,
      "t": 88000,
      "d": 666.6666666666715,
      "v": 110
    },
    {
      "midi": 60,
      "hit": false,
      "t": 88000,
      "d": 666.6666666666715,
      "v": 110
    },
    {
      "midi": 67,
      "hit": false,
      "t": 88000,
      "d": 666.6666666666715,
      "v": 110
    },
    {
      "midi": 41,
      "hit": false,
      "t": 88000,
      "d": 1744.7916666666715,
      "v": 110
    },
    {
      "midi": 65,
      "hit": false,
      "t": 88750,
      "d": 244.79166666667152,
      "v": 110
    },
    {
      "midi": 64,
      "hit": false,
      "t": 89000,
      "d": 244.79166666667152,
      "v": 110
    },
    {
      "midi": 60,
      "hit": false,
      "t": 89250,
      "d": 666.6666666666715,
      "v": 110
    },
    {
      "midi": 55,
      "hit": false,
      "t": 89750,
      "d": 1125,
      "v": 110
    },
    {
      "midi": 60,
      "hit": false,
      "t": 91000,
      "d": 875,
      "v": 110
    },
    {
      "midi": 64,
      "hit": false,
      "t": 91250,
      "d": 494.7916666666715,
      "v": 110
    },
    {
      "midi": 62,
      "hit": false,
      "t": 91750,
      "d": 244.79166666667152,
      "v": 110
    },
    {
      "midi": 55,
      "hit": false,
      "t": 92000,
      "d": 1875,
      "v": 110
    },
    {
      "midi": 60,
      "hit": false,
      "t": 92000,
      "d": 1875,
      "v": 110
    },
    {
      "midi": 48,
      "hit": false,
      "t": 92000,
      "d": 369.7916666666715,
      "v": 110
    },
    {
      "midi": 43,
      "hit": false,
      "t": 92375,
      "d": 369.7916666666715,
      "v": 110
    },
    {
      "midi": 48,
      "hit": false,
      "t": 92750,
      "d": 1125,
      "v": 110
    },
    {
      "midi": 36,
      "hit": false,
      "t": 94000,
      "d": 369.7916666666715,
      "v": 110
    },
    {
      "midi": 55,
      "hit": false,
      "t": 94250,
      "d": 244.79166666667152,
      "v": 110
    },
    {
      "midi": 43,
      "hit": false,
      "t": 94375,
      "d": 369.7916666666715,
      "v": 110
    },
    {
      "midi": 60,
      "hit": false,
      "t": 94500,
      "d": 244.79166666667152,
      "v": 110
    },
    {
      "midi": 62,
      "hit": false,
      "t": 94750,
      "d": 244.79166666667152,
      "v": 110
    },
    {
      "midi": 36,
      "hit": false,
      "t": 94750,
      "d": 666.6666666666715,
      "v": 110
    },
    {
      "midi": 64,
      "hit": false,
      "t": 95000,
      "d": 369.7916666666715,
      "v": 110
    },
    {
      "midi": 67,
      "hit": false,
      "t": 95375,
      "d": 369.7916666666715,
      "v": 110
    },
    {
      "midi": 72,
      "hit": false,
      "t": 95750,
      "d": 244.79166666667152,
      "v": 110
    },
    {
      "midi": 40,
      "hit": false,
      "t": 95750,
      "d": 244.79166666667152,
      "v": 110
    },
    {
      "midi": 69,
      "hit": false,
      "t": 96000,
      "d": 1875,
      "v": 110
    },
    {
      "midi": 41,
      "hit": false,
      "t": 96000,
      "d": 369.7916666666715,
      "v": 110
    },
    {
      "midi": 48,
      "hit": false,
      "t": 96375,
      "d": 369.7916666666715,
      "v": 110
    },
    {
      "midi": 55,
      "hit": false,
      "t": 96750,
      "d": 494.7916666666715,
      "v": 110
    },
    {
      "midi": 48,
      "hit": false,
      "t": 97250,
      "d": 244.79166666667152,
      "v": 110
    },
    {
      "midi": 55,
      "hit": false,
      "t": 97500,
      "d": 244.79166666667152,
      "v": 110
    },
    {
      "midi": 48,
      "hit": false,
      "t": 97750,
      "d": 244.79166666667152,
      "v": 110
    },
    {
      "midi": 69,
      "hit": false,
      "t": 98000,
      "d": 666.6666666666715,
      "v": 110
    },
    {
      "midi": 41,
      "hit": false,
      "t": 98000,
      "d": 369.7916666666715,
      "v": 110
    },
    {
      "midi": 48,
      "hit": false,
      "t": 98375,
      "d": 369.7916666666715,
      "v": 110
    },
    {
      "midi": 71,
      "hit": false,
      "t": 98750,
      "d": 119.79166666667152,
      "v": 110
    },
    {
      "midi": 55,
      "hit": false,
      "t": 98750,
      "d": 494.7916666666715,
      "v": 110
    },
    {
      "midi": 69,
      "hit": false,
      "t": 98875,
      "d": 119.79166666667152,
      "v": 110
    },
    {
      "midi": 67,
      "hit": false,
      "t": 99000,
      "d": 416.6666666666715,
      "v": 110
    },
    {
      "midi": 48,
      "hit": false,
      "t": 99250,
      "d": 244.79166666667152,
      "v": 110
    },
    {
      "midi": 69,
      "hit": false,
      "t": 99500,
      "d": 416.6666666666715,
      "v": 110
    },
    {
      "midi": 55,
      "hit": false,
      "t": 99500,
      "d": 244.79166666667152,
      "v": 110
    },
    {
      "midi": 48,
      "hit": false,
      "t": 99750,
      "d": 244.79166666667152,
      "v": 110
    },
    {
      "midi": 72,
      "hit": false,
      "t": 100000,
      "d": 875,
      "v": 110
    },
    {
      "midi": 43,
      "hit": false,
      "t": 100000,
      "d": 369.7916666666715,
      "v": 110
    },
    {
      "midi": 50,
      "hit": false,
      "t": 100375,
      "d": 369.7916666666715,
      "v": 110
    },
    {
      "midi": 55,
      "hit": false,
      "t": 100750,
      "d": 494.7916666666715,
      "v": 110
    },
    {
      "midi": 74,
      "hit": false,
      "t": 101000,
      "d": 875,
      "v": 110
    },
    {
      "midi": 50,
      "hit": false,
      "t": 101250,
      "d": 244.79166666667152,
      "v": 110
    },
    {
      "midi": 55,
      "hit": false,
      "t": 101500,
      "d": 244.79166666667152,
      "v": 110
    },
    {
      "midi": 50,
      "hit": false,
      "t": 101750,
      "d": 244.79166666667152,
      "v": 110
    },
    {
      "midi": 77,
      "hit": false,
      "t": 102000,
      "d": 875,
      "v": 110
    },
    {
      "midi": 48,
      "hit": false,
      "t": 102000,
      "d": 369.7916666666715,
      "v": 110
    },
    {
      "midi": 55,
      "hit": false,
      "t": 102375,
      "d": 369.7916666666715,
      "v": 110
    },
    {
      "midi": 60,
      "hit": false,
      "t": 102750,
      "d": 494.7916666666715,
      "v": 110
    },
    {
      "midi": 76,
      "hit": false,
      "t": 103000,
      "d": 875,
      "v": 110
    },
    {
      "midi": 55,
      "hit": false,
      "t": 103250,
      "d": 244.79166666667152,
      "v": 110
    },
    {
      "midi": 60,
      "hit": false,
      "t": 103500,
      "d": 244.79166666667152,
      "v": 110
    },
    {
      "midi": 55,
      "hit": false,
      "t": 103750,
      "d": 244.79166666667152,
      "v": 110
    },
    {
      "midi": 69,
      "hit": false,
      "t": 104000,
      "d": 182.29166666667152,
      "v": 110
    },
    {
      "midi": 41,
      "hit": false,
      "t": 104000,
      "d": 369.7916666666715,
      "v": 110
    },
    {
      "midi": 67,
      "hit": false,
      "t": 104187.5,
      "d": 182.29166666667152,
      "v": 110
    },
    {
      "midi": 69,
      "hit": false,
      "t": 104375,
      "d": 1500,
      "v": 110
    },
    {
      "midi": 48,
      "hit": false,
      "t": 104375,
      "d": 369.7916666666715,
      "v": 110
    },
    {
      "midi": 55,
      "hit": false,
      "t": 104750,
      "d": 494.7916666666715,
      "v": 110
    },
    {
      "midi": 48,
      "hit": false,
      "t": 105250,
      "d": 244.79166666667152,
      "v": 110
    },
    {
      "midi": 55,
      "hit": false,
      "t": 105500,
      "d": 244.79166666667152,
      "v": 110
    },
    {
      "midi": 48,
      "hit": false,
      "t": 105750,
      "d": 244.79166666667152,
      "v": 110
    },
    {
      "midi": 72,
      "hit": false,
      "t": 106000,
      "d": 875,
      "v": 110
    },
    {
      "midi": 43,
      "hit": false,
      "t": 106000,
      "d": 369.7916666666715,
      "v": 110
    },
    {
      "midi": 50,
      "hit": false,
      "t": 106375,
      "d": 369.7916666666715,
      "v": 110
    },
    {
      "midi": 55,
      "hit": false,
      "t": 106750,
      "d": 494.7916666666715,
      "v": 110
    },
    {
      "midi": 71,
      "hit": false,
      "t": 107000,
      "d": 875,
      "v": 110
    },
    {
      "midi": 50,
      "hit": false,
      "t": 107250,
      "d": 244.79166666667152,
      "v": 110
    },
    {
      "midi": 55,
      "hit": false,
      "t": 107500,
      "d": 244.79166666667152,
      "v": 110
    },
    {
      "midi": 50,
      "hit": false,
      "t": 107750,
      "d": 244.79166666667152,
      "v": 110
    },
    {
      "midi": 72,
      "hit": false,
      "t": 108000,
      "d": 3875,
      "v": 110
    },
    {
      "midi": 48,
      "hit": false,
      "t": 108000,
      "d": 369.7916666666715,
      "v": 110
    },
    {
      "midi": 55,
      "hit": false,
      "t": 108375,
      "d": 369.7916666666715,
      "v": 110
    },
    {
      "midi": 60,
      "hit": false,
      "t": 108750,
      "d": 494.7916666666715,
      "v": 110
    },
    {
      "midi": 55,
      "hit": false,
      "t": 109250,
      "d": 244.79166666667152,
      "v": 110
    },
    {
      "midi": 60,
      "hit": false,
      "t": 109500,
      "d": 244.79166666667152,
      "v": 110
    },
    {
      "midi": 55,
      "hit": false,
      "t": 109750,
      "d": 244.79166666667152,
      "v": 110
    },
    {
      "midi": 48,
      "hit": false,
      "t": 110000,
      "d": 369.7916666666715,
      "v": 110
    },
    {
      "midi": 55,
      "hit": false,
      "t": 110375,
      "d": 369.7916666666715,
      "v": 110
    },
    {
      "midi": 60,
      "hit": false,
      "t": 110750,
      "d": 494.7916666666715,
      "v": 110
    },
    {
      "midi": 55,
      "hit": false,
      "t": 111250,
      "d": 244.79166666667152,
      "v": 110
    },
    {
      "midi": 60,
      "hit": false,
      "t": 111500,
      "d": 244.79166666667152,
      "v": 110
    },
    {
      "midi": 55,
      "hit": false,
      "t": 111750,
      "d": 244.79166666667152,
      "v": 110
    },
    {
      "midi": 57,
      "hit": false,
      "t": 112000,
      "d": 369.7916666666715,
      "v": 110
    },
    {
      "midi": 60,
      "hit": false,
      "t": 112000,
      "d": 369.7916666666715,
      "v": 110
    },
    {
      "midi": 67,
      "hit": false,
      "t": 112000,
      "d": 369.7916666666715,
      "v": 110
    },
    {
      "midi": 41,
      "hit": false,
      "t": 112000,
      "d": 875,
      "v": 110
    },
    {
      "midi": 67,
      "hit": false,
      "t": 112375,
      "d": 369.7916666666715,
      "v": 110
    },
    {
      "midi": 67,
      "hit": false,
      "t": 112750,
      "d": 244.79166666667152,
      "v": 110
    },
    {
      "midi": 67,
      "hit": false,
      "t": 113000,
      "d": 369.7916666666715,
      "v": 110
    },
    {
      "midi": 55,
      "hit": false,
      "t": 113250,
      "d": 244.79166666667152,
      "v": 110
    },
    {
      "midi": 65,
      "hit": false,
      "t": 113375,
      "d": 119.79166666667152,
      "v": 110
    },
    {
      "midi": 65,
      "hit": false,
      "t": 113500,
      "d": 244.79166666667152,
      "v": 110
    },
    {
      "midi": 60,
      "hit": false,
      "t": 113500,
      "d": 244.79166666667152,
      "v": 110
    },
    {
      "midi": 64,
      "hit": false,
      "t": 113750,
      "d": 244.79166666667152,
      "v": 110
    },
    {
      "midi": 55,
      "hit": false,
      "t": 113750,
      "d": 244.79166666667152,
      "v": 110
    },
    {
      "midi": 57,
      "hit": false,
      "t": 114000,
      "d": 875,
      "v": 110
    },
    {
      "midi": 62,
      "hit": false,
      "t": 114000,
      "d": 875,
      "v": 110
    },
    {
      "midi": 41,
      "hit": false,
      "t": 114000,
      "d": 1244.7916666666715,
      "v": 110
    },
    {
      "midi": 60,
      "hit": false,
      "t": 115250,
      "d": 244.79166666667152,
      "v": 110
    },
    {
      "midi": 55,
      "hit": false,
      "t": 115250,
      "d": 666.6666666666715,
      "v": 110
    },
    {
      "midi": 60,
      "hit": false,
      "t": 115500,
      "d": 244.79166666667152,
      "v": 110
    },
    {
      "midi": 62,
      "hit": false,
      "t": 115750,
      "d": 244.79166666667152,
      "v": 110
    },
    {
      "midi": 55,
      "hit": false,
      "t": 116000,
      "d": 666.6666666666715,
      "v": 110
    },
    {
      "midi": 60,
      "hit": false,
      "t": 116000,
      "d": 666.6666666666715,
      "v": 110
    },
    {
      "midi": 65,
      "hit": false,
      "t": 116000,
      "d": 666.6666666666715,
      "v": 110
    },
    {
      "midi": 36,
      "hit": false,
      "t": 116000,
      "d": 1875,
      "v": 110
    },
    {
      "midi": 48,
      "hit": false,
      "t": 116000,
      "d": 1875,
      "v": 110
    },
    {
      "midi": 64,
      "hit": false,
      "t": 116750,
      "d": 244.79166666667152,
      "v": 110
    },
    {
      "midi": 64,
      "hit": false,
      "t": 117000,
      "d": 416.6666666666715,
      "v": 110
    },
    {
      "midi": 55,
      "hit": false,
      "t": 117500,
      "d": 416.6666666666715,
      "v": 110
    },
    {
      "midi": 64,
      "hit": false,
      "t": 117500,
      "d": 416.6666666666715,
      "v": 110
    },
    {
      "midi": 55,
      "hit": false,
      "t": 118000,
      "d": 875,
      "v": 110
    },
    {
      "midi": 60,
      "hit": false,
      "t": 118000,
      "d": 875,
      "v": 110
    },
    {
      "midi": 64,
      "hit": false,
      "t": 118000,
      "d": 875,
      "v": 110
    },
    {
      "midi": 48,
      "hit": false,
      "t": 118000,
      "d": 1875,
      "v": 110
    },
    {
      "midi": 55,
      "hit": false,
      "t": 119000,
      "d": 369.7916666666715,
      "v": 110
    },
    {
      "midi": 60,
      "hit": false,
      "t": 119375,
      "d": 369.7916666666715,
      "v": 110
    },
    {
      "midi": 62,
      "hit": false,
      "t": 119750,
      "d": 244.79166666667152,
      "v": 110
    },
    {
      "midi": 57,
      "hit": false,
      "t": 120000,
      "d": 369.7916666666715,
      "v": 110
    },
    {
      "midi": 60,
      "hit": false,
      "t": 120000,
      "d": 369.7916666666715,
      "v": 110
    },
    {
      "midi": 67,
      "hit": false,
      "t": 120000,
      "d": 369.7916666666715,
      "v": 110
    },
    {
      "midi": 41,
      "hit": false,
      "t": 120000,
      "d": 875,
      "v": 110
    },
    {
      "midi": 67,
      "hit": false,
      "t": 120375,
      "d": 369.7916666666715,
      "v": 110
    },
    {
      "midi": 67,
      "hit": false,
      "t": 120750,
      "d": 244.79166666667152,
      "v": 110
    },
    {
      "midi": 67,
      "hit": false,
      "t": 121000,
      "d": 416.6666666666715,
      "v": 110
    },
    {
      "midi": 55,
      "hit": false,
      "t": 121250,
      "d": 244.79166666667152,
      "v": 110
    },
    {
      "midi": 60,
      "hit": false,
      "t": 121500,
      "d": 244.79166666667152,
      "v": 110
    },
    {
      "midi": 72,
      "hit": false,
      "t": 121750,
      "d": 244.79166666667152,
      "v": 110
    },
    {
      "midi": 55,
      "hit": false,
      "t": 121750,
      "d": 244.79166666667152,
      "v": 110
    },
    {
      "midi": 62,
      "hit": false,
      "t": 122000,
      "d": 369.7916666666715,
      "v": 110
    },
    {
      "midi": 72,
      "hit": false,
      "t": 122000,
      "d": 369.7916666666715,
      "v": 110
    },
    {
      "midi": 43,
      "hit": false,
      "t": 122000,
      "d": 875,
      "v": 110
    },
    {
      "midi": 55,
      "hit": false,
      "t": 122000,
      "d": 875,
      "v": 110
    },
    {
      "midi": 71,
      "hit": false,
      "t": 122375,
      "d": 369.7916666666715,
      "v": 110
    },
    {
      "midi": 67,
      "hit": false,
      "t": 122750,
      "d": 666.6666666666715,
      "v": 110
    },
    {
      "midi": 55,
      "hit": false,
      "t": 123250,
      "d": 244.79166666667152,
      "v": 110
    },
    {
      "midi": 67,
      "hit": false,
      "t": 123500,
      "d": 244.79166666667152,
      "v": 110
    },
    {
      "midi": 62,
      "hit": false,
      "t": 123500,
      "d": 244.79166666667152,
      "v": 110
    },
    {
      "midi": 64,
      "hit": false,
      "t": 123750,
      "d": 244.79166666667152,
      "v": 110
    },
    {
      "midi": 55,
      "hit": false,
      "t": 123750,
      "d": 244.79166666667152,
      "v": 110
    },
    {
      "midi": 60,
      "hit": false,
      "t": 124000,
      "d": 1375,
      "v": 110
    },
    {
      "midi": 64,
      "hit": false,
      "t": 124000,
      "d": 1375,
      "v": 110
    },
    {
      "midi": 69,
      "hit": false,
      "t": 124000,
      "d": 1375,
      "v": 110
    },
    {
      "midi": 45,
      "hit": false,
      "t": 124000,
      "d": 875,
      "v": 110
    },
    {
      "midi": 55,
      "hit": false,
      "t": 124000,
      "d": 875,
      "v": 110
    },
    {
      "midi": 55,
      "hit": false,
      "t": 125250,
      "d": 244.79166666667152,
      "v": 110
    },
    {
      "midi": 60,
      "hit": false,
      "t": 125500,
      "d": 244.79166666667152,
      "v": 110
    },
    {
      "midi": 67,
      "hit": false,
      "t": 125750,
      "d": 244.79166666667152,
      "v": 110
    },
    {
      "midi": 64,
      "hit": false,
      "t": 126000,
      "d": 416.6666666666715,
      "v": 110
    },
    {
      "midi": 45,
      "hit": false,
      "t": 126000,
      "d": 1875,
      "v": 110
    },
    {
      "midi": 52,
      "hit": false,
      "t": 126500,
      "d": 244.79166666667152,
      "v": 110
    },
    {
      "midi": 59,
      "hit": false,
      "t": 126750,
      "d": 244.79166666667152,
      "v": 110
    },
    {
      "midi": 60,
      "hit": false,
      "t": 127000,
      "d": 244.79166666667152,
      "v": 110
    },
    {
      "midi": 55,
      "hit": false,
      "t": 127250,
      "d": 244.79166666667152,
      "v": 110
    },
    {
      "midi": 60,
      "hit": false,
      "t": 127500,
      "d": 244.79166666667152,
      "v": 110
    },
    {
      "midi": 55,
      "hit": false,
      "t": 127750,
      "d": 244.79166666667152,
      "v": 110
    },
    {
      "midi": 62,
      "hit": false,
      "t": 127750,
      "d": 244.79166666667152,
      "v": 110
    },
    {
      "midi": 57,
      "hit": false,
      "t": 128000,
      "d": 369.7916666666715,
      "v": 110
    },
    {
      "midi": 60,
      "hit": false,
      "t": 128000,
      "d": 369.7916666666715,
      "v": 110
    },
    {
      "midi": 67,
      "hit": false,
      "t": 128000,
      "d": 369.7916666666715,
      "v": 110
    },
    {
      "midi": 41,
      "hit": false,
      "t": 128000,
      "d": 875,
      "v": 110
    },
    {
      "midi": 67,
      "hit": false,
      "t": 128375,
      "d": 369.7916666666715,
      "v": 110
    },
    {
      "midi": 67,
      "hit": false,
      "t": 128750,
      "d": 244.79166666667152,
      "v": 110
    },
    {
      "midi": 67,
      "hit": false,
      "t": 129000,
      "d": 369.7916666666715,
      "v": 110
    },
    {
      "midi": 55,
      "hit": false,
      "t": 129250,
      "d": 244.79166666667152,
      "v": 110
    },
    {
      "midi": 65,
      "hit": false,
      "t": 129375,
      "d": 119.79166666667152,
      "v": 110
    },
    {
      "midi": 65,
      "hit": false,
      "t": 129500,
      "d": 244.79166666667152,
      "v": 110
    },
    {
      "midi": 60,
      "hit": false,
      "t": 129500,
      "d": 244.79166666667152,
      "v": 110
    },
    {
      "midi": 64,
      "hit": false,
      "t": 129750,
      "d": 244.79166666667152,
      "v": 110
    },
    {
      "midi": 55,
      "hit": false,
      "t": 129750,
      "d": 244.79166666667152,
      "v": 110
    },
    {
      "midi": 57,
      "hit": false,
      "t": 130000,
      "d": 875,
      "v": 110
    },
    {
      "midi": 62,
      "hit": false,
      "t": 130000,
      "d": 875,
      "v": 110
    },
    {
      "midi": 41,
      "hit": false,
      "t": 130000,
      "d": 1244.791666666657,
      "v": 110
    },
    {
      "midi": 60,
      "hit": false,
      "t": 131250,
      "d": 244.79166666665697,
      "v": 110
    },
    {
      "midi": 55,
      "hit": false,
      "t": 131250,
      "d": 666.666666666657,
      "v": 110
    },
    {
      "midi": 60,
      "hit": false,
      "t": 131500,
      "d": 244.79166666665697,
      "v": 110
    },
    {
      "midi": 62,
      "hit": false,
      "t": 131750,
      "d": 244.79166666665697,
      "v": 110
    },
    {
      "midi": 55,
      "hit": false,
      "t": 132000,
      "d": 666.666666666657,
      "v": 110
    },
    {
      "midi": 60,
      "hit": false,
      "t": 132000,
      "d": 666.666666666657,
      "v": 110
    },
    {
      "midi": 65,
      "hit": false,
      "t": 132000,
      "d": 666.666666666657,
      "v": 110
    },
    {
      "midi": 48,
      "hit": false,
      "t": 132000,
      "d": 1375,
      "v": 110
    },
    {
      "midi": 64,
      "hit": false,
      "t": 132750,
      "d": 244.79166666665697,
      "v": 110
    },
    {
      "midi": 64,
      "hit": false,
      "t": 133000,
      "d": 875,
      "v": 110
    },
    {
      "midi": 48,
      "hit": false,
      "t": 133750,
      "d": 244.79166666665697,
      "v": 110
    },
    {
      "midi": 55,
      "hit": false,
      "t": 134000,
      "d": 875,
      "v": 110
    },
    {
      "midi": 60,
      "hit": false,
      "t": 134000,
      "d": 875,
      "v": 110
    },
    {
      "midi": 64,
      "hit": false,
      "t": 134000,
      "d": 875,
      "v": 110
    },
    {
      "midi": 48,
      "hit": false,
      "t": 134000,
      "d": 875,
      "v": 110
    },
    {
      "midi": 59,
      "hit": false,
      "t": 135250,
      "d": 494.79166666665697,
      "v": 110
    },
    {
      "midi": 55,
      "hit": false,
      "t": 135250,
      "d": 494.79166666665697,
      "v": 110
    },
    {
      "midi": 60,
      "hit": false,
      "t": 135750,
      "d": 244.79166666665697,
      "v": 110
    },
    {
      "midi": 55,
      "hit": false,
      "t": 135750,
      "d": 244.79166666665697,
      "v": 110
    },
    {
      "midi": 57,
      "hit": false,
      "t": 136000,
      "d": 369.79166666665697,
      "v": 110
    },
    {
      "midi": 60,
      "hit": false,
      "t": 136000,
      "d": 369.79166666665697,
      "v": 110
    },
    {
      "midi": 41,
      "hit": false,
      "t": 136000,
      "d": 875,
      "v": 110
    },
    {
      "midi": 59,
      "hit": false,
      "t": 136375,
      "d": 369.79166666665697,
      "v": 110
    },
    {
      "midi": 60,
      "hit": false,
      "t": 136750,
      "d": 244.79166666665697,
      "v": 110
    },
    {
      "midi": 60,
      "hit": false,
      "t": 137000,
      "d": 369.79166666665697,
      "v": 110
    },
    {
      "midi": 45,
      "hit": false,
      "t": 137000,
      "d": 244.79166666665697,
      "v": 110
    },
    {
      "midi": 55,
      "hit": false,
      "t": 137250,
      "d": 244.79166666665697,
      "v": 110
    },
    {
      "midi": 67,
      "hit": false,
      "t": 137375,
      "d": 369.79166666665697,
      "v": 110
    },
    {
      "midi": 60,
      "hit": false,
      "t": 137500,
      "d": 244.79166666665697,
      "v": 110
    },
    {
      "midi": 64,
      "hit": false,
      "t": 137750,
      "d": 119.79166666665697,
      "v": 110
    },
    {
      "midi": 55,
      "hit": false,
      "t": 137750,
      "d": 244.79166666665697,
      "v": 110
    },
    {
      "midi": 62,
      "hit": false,
      "t": 137875,
      "d": 119.79166666665697,
      "v": 110
    },
    {
      "midi": 55,
      "hit": false,
      "t": 138000,
      "d": 244.79166666665697,
      "v": 110
    },
    {
      "midi": 59,
      "hit": false,
      "t": 138000,
      "d": 244.79166666665697,
      "v": 110
    },
    {
      "midi": 62,
      "hit": false,
      "t": 138000,
      "d": 244.79166666665697,
      "v": 110
    },
    {
      "midi": 43,
      "hit": false,
      "t": 138000,
      "d": 875,
      "v": 110
    },
    {
      "midi": 62,
      "hit": false,
      "t": 138250,
      "d": 494.79166666665697,
      "v": 110
    },
    {
      "midi": 62,
      "hit": false,
      "t": 138750,
      "d": 244.79166666665697,
      "v": 110
    },
    {
      "midi": 64,
      "hit": false,
      "t": 139000,
      "d": 416.66666666665697,
      "v": 110
    },
    {
      "midi": 62,
      "hit": false,
      "t": 139500,
      "d": 244.79166666665697,
      "v": 110
    },
    {
      "midi": 60,
      "hit": false,
      "t": 139750,
      "d": 244.79166666665697,
      "v": 110
    },
    {
      "midi": 55,
      "hit": false,
      "t": 140000,
      "d": 875,
      "v": 110
    },
    {
      "midi": 60,
      "hit": false,
      "t": 140000,
      "d": 875,
      "v": 110
    },
    {
      "midi": 48,
      "hit": false,
      "t": 140000,
      "d": 1375,
      "v": 110
    },
    {
      "midi": 55,
      "hit": false,
      "t": 141250,
      "d": 244.79166666665697,
      "v": 110
    },
    {
      "midi": 60,
      "hit": false,
      "t": 141500,
      "d": 244.79166666665697,
      "v": 110
    },
    {
      "midi": 67,
      "hit": false,
      "t": 141750,
      "d": 244.79166666665697,
      "v": 110
    },
    {
      "midi": 48,
      "hit": false,
      "t": 141750,
      "d": 244.79166666665697,
      "v": 110
    },
    {
      "midi": 48,
      "hit": false,
      "t": 142000,
      "d": 875,
      "v": 110
    },
    {
      "midi": 60,
      "hit": false,
      "t": 142000,
      "d": 875,
      "v": 110
    },
    {
      "midi": 60,
      "hit": false,
      "t": 143000,
      "d": 416.66666666665697,
      "v": 110
    },
    {
      "midi": 48,
      "hit": false,
      "t": 143000,
      "d": 416.66666666665697,
      "v": 110
    },
    {
      "midi": 52,
      "hit": false,
      "t": 143000,
      "d": 416.66666666665697,
      "v": 110
    },
    {
      "midi": 55,
      "hit": false,
      "t": 143000,
      "d": 416.66666666665697,
      "v": 110
    },
    {
      "midi": 72,
      "hit": false,
      "t": 143500,
      "d": 416.66666666665697,
      "v": 110
    },
    {
      "midi": 60,
      "hit": false,
      "t": 143500,
      "d": 416.66666666665697,
      "v": 110
    },
    {
      "midi": 64,
      "hit": false,
      "t": 143500,
      "d": 416.66666666665697,
      "v": 110
    },
    {
      "midi": 67,
      "hit": false,
      "t": 143500,
      "d": 416.66666666665697,
      "v": 110
    },
    {
      "midi": 67,
      "hit": false,
      "t": 144000,
      "d": 875,
      "v": 110
    },
    {
      "midi": 71,
      "hit": false,
      "t": 144000,
      "d": 875,
      "v": 110
    },
    {
      "midi": 45,
      "hit": false,
      "t": 144000,
      "d": 369.79166666665697,
      "v": 110
    },
    {
      "midi": 40,
      "hit": false,
      "t": 144375,
      "d": 369.79166666665697,
      "v": 110
    },
    {
      "midi": 33,
      "hit": false,
      "t": 144750,
      "d": 916.666666666657,
      "v": 110
    },
    {
      "midi": 64,
      "hit": false,
      "t": 145000,
      "d": 666.666666666657,
      "v": 110
    },
    {
      "midi": 72,
      "hit": false,
      "t": 145000,
      "d": 666.666666666657,
      "v": 110
    },
    {
      "midi": 62,
      "hit": false,
      "t": 145750,
      "d": 244.79166666665697,
      "v": 110
    },
    {
      "midi": 71,
      "hit": false,
      "t": 145750,
      "d": 244.79166666665697,
      "v": 110
    },
    {
      "midi": 40,
      "hit": false,
      "t": 145750,
      "d": 244.79166666665697,
      "v": 110
    },
    {
      "midi": 62,
      "hit": false,
      "t": 146000,
      "d": 666.666666666657,
      "v": 110
    },
    {
      "midi": 67,
      "hit": false,
      "t": 146000,
      "d": 666.666666666657,
      "v": 110
    },
    {
      "midi": 71,
      "hit": false,
      "t": 146000,
      "d": 666.666666666657,
      "v": 110
    },
    {
      "midi": 41,
      "hit": false,
      "t": 146000,
      "d": 666.666666666657,
      "v": 110
    },
    {
      "midi": 69,
      "hit": false,
      "t": 146750,
      "d": 244.79166666665697,
      "v": 110
    },
    {
      "midi": 41,
      "hit": false,
      "t": 146750,
      "d": 494.79166666665697,
      "v": 110
    },
    {
      "midi": 60,
      "hit": false,
      "t": 147000,
      "d": 666.666666666657,
      "v": 110
    },
    {
      "midi": 65,
      "hit": false,
      "t": 147000,
      "d": 666.666666666657,
      "v": 110
    },
    {
      "midi": 69,
      "hit": false,
      "t": 147000,
      "d": 666.666666666657,
      "v": 110
    },
    {
      "midi": 48,
      "hit": false,
      "t": 147250,
      "d": 244.79166666665697,
      "v": 110
    },
    {
      "midi": 41,
      "hit": false,
      "t": 147500,
      "d": 416.66666666665697,
      "v": 110
    },
    {
      "midi": 67,
      "hit": false,
      "t": 147750,
      "d": 244.79166666665697,
      "v": 110
    },
    {
      "midi": 60,
      "hit": false,
      "t": 148000,
      "d": 875,
      "v": 110
    },
    {
      "midi": 64,
      "hit": false,
      "t": 148000,
      "d": 875,
      "v": 110
    },
    {
      "midi": 67,
      "hit": false,
      "t": 148000,
      "d": 875,
      "v": 110
    },
    {
      "midi": 48,
      "hit": false,
      "t": 148000,
      "d": 875,
      "v": 110
    },
    {
      "midi": 55,
      "hit": false,
      "t": 149000,
      "d": 244.79166666665697,
      "v": 110
    },
    {
      "midi": 48,
      "hit": false,
      "t": 149000,
      "d": 416.66666666665697,
      "v": 110
    },
    {
      "midi": 60,
      "hit": false,
      "t": 149250,
      "d": 244.79166666665697,
      "v": 110
    },
    {
      "midi": 62,
      "hit": false,
      "t": 149500,
      "d": 244.79166666665697,
      "v": 110
    },
    {
      "midi": 64,
      "hit": false,
      "t": 149750,
      "d": 244.79166666665697,
      "v": 110
    },
    {
      "midi": 67,
      "hit": false,
      "t": 149750,
      "d": 244.79166666665697,
      "v": 110
    },
    {
      "midi": 48,
      "hit": false,
      "t": 149750,
      "d": 244.79166666665697,
      "v": 110
    },
    {
      "midi": 67,
      "hit": false,
      "t": 150000,
      "d": 369.79166666665697,
      "v": 110
    },
    {
      "midi": 55,
      "hit": false,
      "t": 150000,
      "d": 875,
      "v": 110
    },
    {
      "midi": 59,
      "hit": false,
      "t": 150000,
      "d": 875,
      "v": 110
    },
    {
      "midi": 62,
      "hit": false,
      "t": 150000,
      "d": 875,
      "v": 110
    },
    {
      "midi": 64,
      "hit": false,
      "t": 150375,
      "d": 369.79166666665697,
      "v": 110
    },
    {
      "midi": 62,
      "hit": false,
      "t": 150750,
      "d": 494.79166666665697,
      "v": 110
    },
    {
      "midi": 55,
      "hit": false,
      "t": 151000,
      "d": 875,
      "v": 110
    },
    {
      "midi": 59,
      "hit": false,
      "t": 151000,
      "d": 875,
      "v": 110
    },
    {
      "midi": 64,
      "hit": false,
      "t": 151250,
      "d": 119.79166666665697,
      "v": 110
    },
    {
      "midi": 62,
      "hit": false,
      "t": 151375,
      "d": 119.79166666665697,
      "v": 110
    },
    {
      "midi": 60,
      "hit": false,
      "t": 151500,
      "d": 244.79166666665697,
      "v": 110
    },
    {
      "midi": 59,
      "hit": false,
      "t": 151750,
      "d": 244.79166666665697,
      "v": 110
    },
    {
      "midi": 60,
      "hit": false,
      "t": 152000,
      "d": 875,
      "v": 110
    },
    {
      "midi": 45,
      "hit": false,
      "t": 152000,
      "d": 875,
      "v": 110
    },
    {
      "midi": 60,
      "hit": false,
      "t": 153000,
      "d": 416.66666666665697,
      "v": 110
    },
    {
      "midi": 64,
      "hit": false,
      "t": 153000,
      "d": 416.66666666665697,
      "v": 110
    },
    {
      "midi": 67,
      "hit": false,
      "t": 153000,
      "d": 416.66666666665697,
      "v": 110
    },
    {
      "midi": 52,
      "hit": false,
      "t": 153000,
      "d": 244.79166666665697,
      "v": 110
    },
    {
      "midi": 55,
      "hit": false,
      "t": 153250,
      "d": 244.79166666665697,
      "v": 110
    },
    {
      "midi": 67,
      "hit": false,
      "t": 153500,
      "d": 416.66666666665697,
      "v": 110
    },
    {
      "midi": 72,
      "hit": false,
      "t": 153500,
      "d": 416.66666666665697,
      "v": 110
    },
    {
      "midi": 60,
      "hit": false,
      "t": 153500,
      "d": 416.66666666665697,
      "v": 110
    },
    {
      "midi": 62,
      "hit": false,
      "t": 154000,
      "d": 875,
      "v": 110
    },
    {
      "midi": 67,
      "hit": false,
      "t": 154000,
      "d": 875,
      "v": 110
    },
    {
      "midi": 71,
      "hit": false,
      "t": 154000,
      "d": 875,
      "v": 110
    },
    {
      "midi": 47,
      "hit": false,
      "t": 154000,
      "d": 875,
      "v": 110
    },
    {
      "midi": 59,
      "hit": false,
      "t": 154000,
      "d": 875,
      "v": 110
    },
    {
      "midi": 60,
      "hit": false,
      "t": 155000,
      "d": 875,
      "v": 110
    },
    {
      "midi": 65,
      "hit": false,
      "t": 155000,
      "d": 875,
      "v": 110
    },
    {
      "midi": 69,
      "hit": false,
      "t": 155000,
      "d": 875,
      "v": 110
    },
    {
      "midi": 45,
      "hit": false,
      "t": 155000,
      "d": 875,
      "v": 110
    },
    {
      "midi": 57,
      "hit": false,
      "t": 155000,
      "d": 875,
      "v": 110
    },
    {
      "midi": 59,
      "hit": false,
      "t": 156000,
      "d": 875,
      "v": 110
    },
    {
      "midi": 62,
      "hit": false,
      "t": 156000,
      "d": 875,
      "v": 110
    },
    {
      "midi": 67,
      "hit": false,
      "t": 156000,
      "d": 875,
      "v": 110
    },
    {
      "midi": 43,
      "hit": false,
      "t": 156000,
      "d": 1875,
      "v": 110
    },
    {
      "midi": 55,
      "hit": false,
      "t": 156000,
      "d": 1875,
      "v": 110
    },
    {
      "midi": 55,
      "hit": false,
      "t": 157000,
      "d": 244.79166666665697,
      "v": 110
    },
    {
      "midi": 60,
      "hit": false,
      "t": 157250,
      "d": 244.79166666665697,
      "v": 110
    },
    {
      "midi": 62,
      "hit": false,
      "t": 157500,
      "d": 244.79166666665697,
      "v": 110
    },
    {
      "midi": 64,
      "hit": false,
      "t": 157750,
      "d": 244.79166666665697,
      "v": 110
    },
    {
      "midi": 67,
      "hit": false,
      "t": 157750,
      "d": 244.79166666665697,
      "v": 110
    },
    {
      "midi": 59,
      "hit": false,
      "t": 158000,
      "d": 369.79166666665697,
      "v": 110
    },
    {
      "midi": 62,
      "hit": false,
      "t": 158000,
      "d": 369.79166666665697,
      "v": 110
    },
    {
      "midi": 67,
      "hit": false,
      "t": 158000,
      "d": 369.79166666665697,
      "v": 110
    },
    {
      "midi": 43,
      "hit": false,
      "t": 158000,
      "d": 369.79166666665697,
      "v": 110
    },
    {
      "midi": 64,
      "hit": false,
      "t": 158375,
      "d": 369.79166666665697,
      "v": 110
    },
    {
      "midi": 50,
      "hit": false,
      "t": 158375,
      "d": 369.79166666665697,
      "v": 110
    },
    {
      "midi": 62,
      "hit": false,
      "t": 158750,
      "d": 244.79166666665697,
      "v": 110
    },
    {
      "midi": 57,
      "hit": false,
      "t": 158750,
      "d": 1125,
      "v": 110
    },
    {
      "midi": 59,
      "hit": false,
      "t": 159000,
      "d": 244.79166666665697,
      "v": 110
    },
    {
      "midi": 62,
      "hit": false,
      "t": 159000,
      "d": 244.79166666665697,
      "v": 110
    },
    {
      "midi": 64,
      "hit": false,
      "t": 159250,
      "d": 494.79166666665697,
      "v": 110
    },
    {
      "midi": 62,
      "hit": false,
      "t": 159750,
      "d": 119.79166666665697,
      "v": 110
    },
    {
      "midi": 60,
      "hit": false,
      "t": 159875,
      "d": 119.79166666665697,
      "v": 110
    },
    {
      "midi": 60,
      "hit": false,
      "t": 160000,
      "d": 875,
      "v": 110
    },
    {
      "midi": 45,
      "hit": false,
      "t": 160000,
      "d": 1875,
      "v": 110
    },
    {
      "midi": 60,
      "hit": false,
      "t": 161000,
      "d": 416.66666666665697,
      "v": 110
    },
    {
      "midi": 72,
      "hit": false,
      "t": 161500,
      "d": 416.66666666665697,
      "v": 110
    },
    {
      "midi": 62,
      "hit": false,
      "t": 162000,
      "d": 875,
      "v": 110
    },
    {
      "midi": 67,
      "hit": false,
      "t": 162000,
      "d": 875,
      "v": 110
    },
    {
      "midi": 71,
      "hit": false,
      "t": 162000,
      "d": 875,
      "v": 110
    },
    {
      "midi": 41,
      "hit": false,
      "t": 162000,
      "d": 369.79166666665697,
      "v": 110
    },
    {
      "midi": 48,
      "hit": false,
      "t": 162375,
      "d": 369.79166666665697,
      "v": 110
    },
    {
      "midi": 41,
      "hit": false,
      "t": 162750,
      "d": 244.79166666665697,
      "v": 110
    },
    {
      "midi": 60,
      "hit": false,
      "t": 163000,
      "d": 666.666666666657,
      "v": 110
    },
    {
      "midi": 65,
      "hit": false,
      "t": 163000,
      "d": 666.666666666657,
      "v": 110
    },
    {
      "midi": 69,
      "hit": false,
      "t": 163000,
      "d": 666.666666666657,
      "v": 110
    },
    {
      "midi": 41,
      "hit": false,
      "t": 163000,
      "d": 666.666666666657,
      "v": 110
    },
    {
      "midi": 67,
      "hit": false,
      "t": 163750,
      "d": 244.79166666665697,
      "v": 110
    },
    {
      "midi": 41,
      "hit": false,
      "t": 163750,
      "d": 244.79166666665697,
      "v": 110
    },
    {
      "midi": 60,
      "hit": false,
      "t": 164000,
      "d": 875,
      "v": 110
    },
    {
      "midi": 64,
      "hit": false,
      "t": 164000,
      "d": 875,
      "v": 110
    },
    {
      "midi": 67,
      "hit": false,
      "t": 164000,
      "d": 875,
      "v": 110
    },
    {
      "midi": 48,
      "hit": false,
      "t": 164000,
      "d": 369.79166666665697,
      "v": 110
    },
    {
      "midi": 43,
      "hit": false,
      "t": 164375,
      "d": 369.79166666665697,
      "v": 110
    },
    {
      "midi": 48,
      "hit": false,
      "t": 164750,
      "d": 666.666666666657,
      "v": 110
    },
    {
      "midi": 65,
      "hit": false,
      "t": 165250,
      "d": 494.79166666665697,
      "v": 110
    },
    {
      "midi": 64,
      "hit": false,
      "t": 165750,
      "d": 244.79166666665697,
      "v": 110
    },
    {
      "midi": 48,
      "hit": false,
      "t": 165750,
      "d": 244.79166666665697,
      "v": 110
    },
    {
      "midi": 59,
      "hit": false,
      "t": 166000,
      "d": 875,
      "v": 110
    },
    {
      "midi": 62,
      "hit": false,
      "t": 166000,
      "d": 875,
      "v": 110
    },
    {
      "midi": 67,
      "hit": false,
      "t": 166000,
      "d": 875,
      "v": 110
    },
    {
      "midi": 43,
      "hit": false,
      "t": 166000,
      "d": 1875,
      "v": 110
    },
    {
      "midi": 60,
      "hit": false,
      "t": 167250,
      "d": 244.79166666665697,
      "v": 110
    },
    {
      "midi": 59,
      "hit": false,
      "t": 167500,
      "d": 416.66666666665697,
      "v": 110
    },
    {
      "midi": 57,
      "hit": false,
      "t": 168000,
      "d": 666.666666666657,
      "v": 110
    },
    {
      "midi": 60,
      "hit": false,
      "t": 168000,
      "d": 666.666666666657,
      "v": 110
    },
    {
      "midi": 67,
      "hit": false,
      "t": 168000,
      "d": 666.666666666657,
      "v": 110
    },
    {
      "midi": 41,
      "hit": false,
      "t": 168000,
      "d": 1744.791666666657,
      "v": 110
    },
    {
      "midi": 65,
      "hit": false,
      "t": 168750,
      "d": 244.79166666665697,
      "v": 110
    },
    {
      "midi": 64,
      "hit": false,
      "t": 169000,
      "d": 244.79166666665697,
      "v": 110
    },
    {
      "midi": 60,
      "hit": false,
      "t": 169250,
      "d": 666.666666666657,
      "v": 110
    },
    {
      "midi": 55,
      "hit": false,
      "t": 169750,
      "d": 1125,
      "v": 110
    },
    {
      "midi": 60,
      "hit": false,
      "t": 171000,
      "d": 875,
      "v": 110
    },
    {
      "midi": 64,
      "hit": false,
      "t": 171250,
      "d": 494.79166666665697,
      "v": 110
    },
    {
      "midi": 62,
      "hit": false,
      "t": 171750,
      "d": 244.79166666665697,
      "v": 110
    },
    {
      "midi": 60,
      "hit": false,
      "t": 172000,
      "d": 1875,
      "v": 110
    },
    {
      "midi": 64,
      "hit": false,
      "t": 172000,
      "d": 1875,
      "v": 110
    },
    {
      "midi": 48,
      "hit": false,
      "t": 172000,
      "d": 369.79166666665697,
      "v": 110
    },
    {
      "midi": 43,
      "hit": false,
      "t": 172375,
      "d": 369.79166666665697,
      "v": 110
    },
    {
      "midi": 48,
      "hit": false,
      "t": 172750,
      "d": 1125,
      "v": 110
    },
    {
      "midi": 67,
      "hit": false,
      "t": 174000,
      "d": 244.79166666665697,
      "v": 110
    },
    {
      "midi": 36,
      "hit": false,
      "t": 174000,
      "d": 369.79166666665697,
      "v": 110
    },
    {
      "midi": 55,
      "hit": false,
      "t": 174250,
      "d": 244.79166666665697,
      "v": 110
    },
    {
      "midi": 43,
      "hit": false,
      "t": 174375,
      "d": 369.79166666665697,
      "v": 110
    },
    {
      "midi": 60,
      "hit": false,
      "t": 174500,
      "d": 244.79166666665697,
      "v": 110
    },
    {
      "midi": 62,
      "hit": false,
      "t": 174750,
      "d": 244.79166666665697,
      "v": 110
    },
    {
      "midi": 36,
      "hit": false,
      "t": 174750,
      "d": 666.666666666657,
      "v": 110
    },
    {
      "midi": 64,
      "hit": false,
      "t": 175000,
      "d": 369.79166666665697,
      "v": 110
    },
    {
      "midi": 67,
      "hit": false,
      "t": 175375,
      "d": 119.79166666665697,
      "v": 110
    },
    {
      "midi": 72,
      "hit": false,
      "t": 175500,
      "d": 244.79166666665697,
      "v": 110
    },
    {
      "midi": 72,
      "hit": false,
      "t": 175750,
      "d": 244.79166666665697,
      "v": 110
    },
    {
      "midi": 40,
      "hit": false,
      "t": 175750,
      "d": 244.79166666665697,
      "v": 110
    },
    {
      "midi": 72,
      "hit": false,
      "t": 176000,
      "d": 666.666666666657,
      "v": 110
    },
    {
      "midi": 79,
      "hit": false,
      "t": 176000,
      "d": 666.666666666657,
      "v": 110
    },
    {
      "midi": 43,
      "hit": false,
      "t": 176000,
      "d": 1875,
      "v": 110
    },
    {
      "midi": 55,
      "hit": false,
      "t": 176000,
      "d": 1875,
      "v": 110
    },
    {
      "midi": 77,
      "hit": false,
      "t": 176750,
      "d": 119.79166666665697,
      "v": 110
    },
    {
      "midi": 75,
      "hit": false,
      "t": 176875,
      "d": 119.79166666665697,
      "v": 110
    },
    {
      "midi": 79,
      "hit": false,
      "t": 177000,
      "d": 875,
      "v": 110
    },
    {
      "midi": 75,
      "hit": false,
      "t": 178000,
      "d": 119.79166666665697,
      "v": 110
    },
    {
      "midi": 39,
      "hit": false,
      "t": 178000,
      "d": 1875,
      "v": 110
    },
    {
      "midi": 51,
      "hit": false,
      "t": 178000,
      "d": 1875,
      "v": 110
    },
    {
      "midi": 77,
      "hit": false,
      "t": 178125,
      "d": 119.79166666665697,
      "v": 110
    },
    {
      "midi": 79,
      "hit": false,
      "t": 178250,
      "d": 119.79166666665697,
      "v": 110
    },
    {
      "midi": 72,
      "hit": false,
      "t": 178375,
      "d": 1500,
      "v": 110
    },
    {
      "midi": 46,
      "hit": false,
      "t": 180000,
      "d": 1875,
      "v": 110
    },
    {
      "midi": 53,
      "hit": false,
      "t": 180000,
      "d": 1875,
      "v": 110
    },
    {
      "midi": 82,
      "hit": false,
      "t": 180500,
      "d": 119.79166666665697,
      "v": 110
    },
    {
      "midi": 80,
      "hit": false,
      "t": 180625,
      "d": 119.79166666665697,
      "v": 110
    },
    {
      "midi": 79,
      "hit": false,
      "t": 180750,
      "d": 119.79166666665697,
      "v": 110
    },
    {
      "midi": 77,
      "hit": false,
      "t": 180875,
      "d": 119.79166666665697,
      "v": 110
    },
    {
      "midi": 80,
      "hit": false,
      "t": 181000,
      "d": 244.79166666665697,
      "v": 110
    },
    {
      "midi": 79,
      "hit": false,
      "t": 181250,
      "d": 494.79166666665697,
      "v": 110
    },
    {
      "midi": 80,
      "hit": false,
      "t": 181750,
      "d": 119.79166666665697,
      "v": 110
    },
    {
      "midi": 82,
      "hit": false,
      "t": 181875,
      "d": 119.79166666665697,
      "v": 110
    },
    {
      "midi": 75,
      "hit": false,
      "t": 182000,
      "d": 1375,
      "v": 110
    },
    {
      "midi": 51,
      "hit": false,
      "t": 182000,
      "d": 875,
      "v": 110
    },
    {
      "midi": 56,
      "hit": false,
      "t": 182000,
      "d": 875,
      "v": 110
    },
    {
      "midi": 51,
      "hit": false,
      "t": 183000,
      "d": 875,
      "v": 110
    },
    {
      "midi": 55,
      "hit": false,
      "t": 183000,
      "d": 875,
      "v": 110
    },
    {
      "midi": 67,
      "hit": false,
      "t": 183500,
      "d": 119.79166666665697,
      "v": 110
    },
    {
      "midi": 65,
      "hit": false,
      "t": 183625,
      "d": 119.79166666665697,
      "v": 110
    },
    {
      "midi": 63,
      "hit": false,
      "t": 183750,
      "d": 119.79166666665697,
      "v": 110
    },
    {
      "midi": 65,
      "hit": false,
      "t": 183875,
      "d": 119.79166666665697,
      "v": 110
    },
    {
      "midi": 67,
      "hit": false,
      "t": 184000,
      "d": 1875,
      "v": 110
    },
    {
      "midi": 43,
      "hit": false,
      "t": 184000,
      "d": 1875,
      "v": 110
    },
    {
      "midi": 55,
      "hit": false,
      "t": 184000,
      "d": 1875,
      "v": 110
    },
    {
      "midi": 63,
      "hit": false,
      "t": 186000,
      "d": 875,
      "v": 110
    },
    {
      "midi": 65,
      "hit": false,
      "t": 186000,
      "d": 875,
      "v": 110
    },
    {
      "midi": 46,
      "hit": false,
      "t": 186000,
      "d": 1875,
      "v": 110
    },
    {
      "midi": 53,
      "hit": false,
      "t": 186000,
      "d": 1875,
      "v": 110
    },
    {
      "midi": 62,
      "hit": false,
      "t": 187000,
      "d": 119.79166666665697,
      "v": 110
    },
    {
      "midi": 65,
      "hit": false,
      "t": 187000,
      "d": 119.79166666665697,
      "v": 110
    },
    {
      "midi": 67,
      "hit": false,
      "t": 187125,
      "d": 119.79166666665697,
      "v": 110
    },
    {
      "midi": 70,
      "hit": false,
      "t": 187250,
      "d": 119.79166666665697,
      "v": 110
    },
    {
      "midi": 72,
      "hit": false,
      "t": 187375,
      "d": 244.79166666665697,
      "v": 110
    },
    {
      "midi": 75,
      "hit": false,
      "t": 187625,
      "d": 119.79166666665697,
      "v": 110
    },
    {
      "midi": 77,
      "hit": false,
      "t": 187750,
      "d": 244.79166666665697,
      "v": 110
    },
    {
      "midi": 79,
      "hit": false,
      "t": 188000,
      "d": 666.666666666657,
      "v": 110
    },
    {
      "midi": 48,
      "hit": false,
      "t": 188000,
      "d": 1875,
      "v": 110
    },
    {
      "midi": 55,
      "hit": false,
      "t": 188000,
      "d": 1875,
      "v": 110
    },
    {
      "midi": 77,
      "hit": false,
      "t": 188750,
      "d": 119.79166666665697,
      "v": 110
    },
    {
      "midi": 75,
      "hit": false,
      "t": 188875,
      "d": 119.79166666665697,
      "v": 110
    },
    {
      "midi": 79,
      "hit": false,
      "t": 189000,
      "d": 244.79166666665697,
      "v": 110
    },
    {
      "midi": 77,
      "hit": false,
      "t": 189250,
      "d": 119.79166666665697,
      "v": 110
    },
    {
      "midi": 75,
      "hit": false,
      "t": 189375,
      "d": 119.79166666665697,
      "v": 110
    },
    {
      "midi": 77,
      "hit": false,
      "t": 189500,
      "d": 416.66666666665697,
      "v": 110
    },
    {
      "midi": 75,
      "hit": false,
      "t": 190000,
      "d": 244.79166666665697,
      "v": 110
    },
    {
      "midi": 48,
      "hit": false,
      "t": 190000,
      "d": 1875,
      "v": 110
    },
    {
      "midi": 55,
      "hit": false,
      "t": 190000,
      "d": 1875,
      "v": 110
    },
    {
      "midi": 72,
      "hit": false,
      "t": 190250,
      "d": 666.666666666657,
      "v": 110
    },
    {
      "midi": 72,
      "hit": false,
      "t": 191000,
      "d": 416.66666666665697,
      "v": 110
    },
    {
      "midi": 70,
      "hit": false,
      "t": 191500,
      "d": 244.79166666665697,
      "v": 110
    },
    {
      "midi": 82,
      "hit": false,
      "t": 191750,
      "d": 119.79166666665697,
      "v": 110
    },
    {
      "midi": 80,
      "hit": false,
      "t": 191875,
      "d": 119.79166666665697,
      "v": 110
    },
    {
      "midi": 79,
      "hit": false,
      "t": 192000,
      "d": 119.79166666665697,
      "v": 110
    },
    {
      "midi": 43,
      "hit": false,
      "t": 192000,
      "d": 1875,
      "v": 110
    },
    {
      "midi": 55,
      "hit": false,
      "t": 192000,
      "d": 1875,
      "v": 110
    },
    {
      "midi": 77,
      "hit": false,
      "t": 192125,
      "d": 119.79166666665697,
      "v": 110
    },
    {
      "midi": 80,
      "hit": false,
      "t": 192250,
      "d": 494.79166666665697,
      "v": 110
    },
    {
      "midi": 79,
      "hit": false,
      "t": 192750,
      "d": 244.79166666665697,
      "v": 110
    },
    {
      "midi": 75,
      "hit": false,
      "t": 193000,
      "d": 244.79166666665697,
      "v": 110
    },
    {
      "midi": 70,
      "hit": false,
      "t": 193250,
      "d": 666.666666666657,
      "v": 110
    },
    {
      "midi": 43,
      "hit": false,
      "t": 194000,
      "d": 1875,
      "v": 110
    },
    {
      "midi": 55,
      "hit": false,
      "t": 194000,
      "d": 1875,
      "v": 110
    },
    {
      "midi": 82,
      "hit": false,
      "t": 194750,
      "d": 244.79166666665697,
      "v": 110
    },
    {
      "midi": 84,
      "hit": false,
      "t": 195000,
      "d": 369.79166666665697,
      "v": 110
    },
    {
      "midi": 84,
      "hit": false,
      "t": 195375,
      "d": 369.79166666665697,
      "v": 110
    },
    {
      "midi": 82,
      "hit": false,
      "t": 195750,
      "d": 244.79166666665697,
      "v": 110
    },
    {
      "midi": 80,
      "hit": false,
      "t": 196000,
      "d": 369.79166666665697,
      "v": 110
    },
    {
      "midi": 46,
      "hit": false,
      "t": 196000,
      "d": 1875,
      "v": 110
    },
    {
      "midi": 53,
      "hit": false,
      "t": 196000,
      "d": 1875,
      "v": 110
    },
    {
      "midi": 80,
      "hit": false,
      "t": 196375,
      "d": 369.79166666665697,
      "v": 110
    },
    {
      "midi": 80,
      "hit": false,
      "t": 196750,
      "d": 119.79166666665697,
      "v": 110
    },
    {
      "midi": 82,
      "hit": false,
      "t": 196875,
      "d": 119.79166666665697,
      "v": 110
    },
    {
      "midi": 79,
      "hit": false,
      "t": 197000,
      "d": 369.79166666665697,
      "v": 110
    },
    {
      "midi": 79,
      "hit": false,
      "t": 197375,
      "d": 369.79166666665697,
      "v": 110
    },
    {
      "midi": 79,
      "hit": false,
      "t": 197750,
      "d": 244.79166666665697,
      "v": 110
    },
    {
      "midi": 79,
      "hit": false,
      "t": 198000,
      "d": 875,
      "v": 110
    },
    {
      "midi": 51,
      "hit": false,
      "t": 198000,
      "d": 875,
      "v": 110
    },
    {
      "midi": 56,
      "hit": false,
      "t": 198000,
      "d": 875,
      "v": 110
    },
    {
      "midi": 51,
      "hit": false,
      "t": 199000,
      "d": 875,
      "v": 110
    },
    {
      "midi": 55,
      "hit": false,
      "t": 199000,
      "d": 875,
      "v": 110
    },
    {
      "midi": 75,
      "hit": false,
      "t": 199250,
      "d": 494.79166666665697,
      "v": 110
    },
    {
      "midi": 75,
      "hit": false,
      "t": 199750,
      "d": 119.79166666665697,
      "v": 110
    },
    {
      "midi": 75,
      "hit": false,
      "t": 199875,
      "d": 119.79166666665697,
      "v": 110
    },
    {
      "midi": 79,
      "hit": false,
      "t": 200000,
      "d": 666.666666666657,
      "v": 110
    },
    {
      "midi": 43,
      "hit": false,
      "t": 200000,
      "d": 1875,
      "v": 110
    },
    {
      "midi": 55,
      "hit": false,
      "t": 200000,
      "d": 1875,
      "v": 110
    },
    {
      "midi": 75,
      "hit": false,
      "t": 200750,
      "d": 244.79166666665697,
      "v": 110
    },
    {
      "midi": 80,
      "hit": false,
      "t": 201000,
      "d": 182.29166666665697,
      "v": 110
    },
    {
      "midi": 75,
      "hit": false,
      "t": 201187.5,
      "d": 182.29166666665697,
      "v": 110
    },
    {
      "midi": 81,
      "hit": false,
      "t": 201375,
      "d": 119.79166666665697,
      "v": 110
    },
    {
      "midi": 79,
      "hit": false,
      "t": 201500,
      "d": 182.29166666665697,
      "v": 110
    },
    {
      "midi": 82,
      "hit": false,
      "t": 201687.5,
      "d": 307.29166666665697,
      "v": 110
    },
    {
      "midi": 75,
      "hit": false,
      "t": 202000,
      "d": 666.666666666657,
      "v": 110
    },
    {
      "midi": 82,
      "hit": false,
      "t": 202000,
      "d": 666.666666666657,
      "v": 110
    },
    {
      "midi": 46,
      "hit": false,
      "t": 202000,
      "d": 1875,
      "v": 110
    },
    {
      "midi": 53,
      "hit": false,
      "t": 202000,
      "d": 1875,
      "v": 110
    },
    {
      "midi": 80,
      "hit": false,
      "t": 202750,
      "d": 119.79166666665697,
      "v": 110
    },
    {
      "midi": 82,
      "hit": false,
      "t": 202875,
      "d": 119.79166666665697,
      "v": 110
    },
    {
      "midi": 74,
      "hit": false,
      "t": 203000,
      "d": 666.666666666657,
      "v": 110
    },
    {
      "midi": 79,
      "hit": false,
      "t": 203000,
      "d": 666.666666666657,
      "v": 110
    },
    {
      "midi": 79,
      "hit": false,
      "t": 203750,
      "d": 244.79166666665697,
      "v": 110
    },
    {
      "midi": 63,
      "hit": false,
      "t": 204000,
      "d": 1375,
      "v": 110
    },
    {
      "midi": 72,
      "hit": false,
      "t": 204000,
      "d": 1375,
      "v": 110
    },
    {
      "midi": 48,
      "hit": false,
      "t": 204000,
      "d": 1875,
      "v": 110
    },
    {
      "midi": 55,
      "hit": false,
      "t": 204000,
      "d": 1875,
      "v": 110
    },
    {
      "midi": 72,
      "hit": false,
      "t": 205750,
      "d": 1125,
      "v": 110
    },
    {
      "midi": 48,
      "hit": false,
      "t": 206000,
      "d": 1875,
      "v": 110
    },
    {
      "midi": 55,
      "hit": false,
      "t": 206000,
      "d": 1875,
      "v": 110
    },
    {
      "midi": 75,
      "hit": false,
      "t": 207000,
      "d": 369.79166666665697,
      "v": 110
    },
    {
      "midi": 74,
      "hit": false,
      "t": 207375,
      "d": 369.79166666665697,
      "v": 110
    },
    {
      "midi": 70,
      "hit": false,
      "t": 207750,
      "d": 244.79166666665697,
      "v": 110
    },
    {
      "midi": 60,
      "hit": false,
      "t": 208000,
      "d": 1875,
      "v": 110
    },
    {
      "midi": 44,
      "hit": false,
      "t": 208000,
      "d": 875,
      "v": 110
    },
    {
      "midi": 51,
      "hit": false,
      "t": 208000,
      "d": 875,
      "v": 110
    },
    {
      "midi": 44,
      "hit": false,
      "t": 209000,
      "d": 666.666666666657,
      "v": 110
    },
    {
      "midi": 51,
      "hit": false,
      "t": 209750,
      "d": 244.79166666665697,
      "v": 110
    },
    {
      "midi": 60,
      "hit": false,
      "t": 210000,
      "d": 875,
      "v": 110
    },
    {
      "midi": 44,
      "hit": false,
      "t": 210000,
      "d": 875,
      "v": 110
    },
    {
      "midi": 51,
      "hit": false,
      "t": 210000,
      "d": 875,
      "v": 110
    },
    {
      "midi": 58,
      "hit": false,
      "t": 211000,
      "d": 416.66666666665697,
      "v": 110
    },
    {
      "midi": 51,
      "hit": false,
      "t": 211000,
      "d": 416.66666666665697,
      "v": 110
    },
    {
      "midi": 60,
      "hit": false,
      "t": 211500,
      "d": 416.66666666665697,
      "v": 110
    },
    {
      "midi": 56,
      "hit": false,
      "t": 211500,
      "d": 416.66666666665697,
      "v": 110
    },
    {
      "midi": 58,
      "hit": false,
      "t": 212000,
      "d": 875,
      "v": 110
    },
    {
      "midi": 63,
      "hit": false,
      "t": 212000,
      "d": 875,
      "v": 110
    },
    {
      "midi": 65,
      "hit": false,
      "t": 212000,
      "d": 875,
      "v": 110
    },
    {
      "midi": 46,
      "hit": false,
      "t": 212000,
      "d": 369.79166666665697,
      "v": 110
    },
    {
      "midi": 53,
      "hit": false,
      "t": 212375,
      "d": 369.79166666665697,
      "v": 110
    },
    {
      "midi": 46,
      "hit": false,
      "t": 212750,
      "d": 244.79166666665697,
      "v": 110
    },
    {
      "midi": 65,
      "hit": false,
      "t": 213000,
      "d": 875,
      "v": 110
    },
    {
      "midi": 46,
      "hit": false,
      "t": 213000,
      "d": 369.79166666665697,
      "v": 110
    },
    {
      "midi": 53,
      "hit": false,
      "t": 213375,
      "d": 369.79166666665697,
      "v": 110
    },
    {
      "midi": 41,
      "hit": false,
      "t": 213750,
      "d": 244.79166666665697,
      "v": 110
    },
    {
      "midi": 58,
      "hit": false,
      "t": 214000,
      "d": 875,
      "v": 110
    },
    {
      "midi": 63,
      "hit": false,
      "t": 214000,
      "d": 875,
      "v": 110
    },
    {
      "midi": 68,
      "hit": false,
      "t": 214000,
      "d": 875,
      "v": 110
    },
    {
      "midi": 39,
      "hit": false,
      "t": 214000,
      "d": 369.79166666665697,
      "v": 110
    },
    {
      "midi": 46,
      "hit": false,
      "t": 214375,
      "d": 369.79166666665697,
      "v": 110
    },
    {
      "midi": 39,
      "hit": false,
      "t": 214750,
      "d": 244.79166666665697,
      "v": 110
    },
    {
      "midi": 58,
      "hit": false,
      "t": 215000,
      "d": 666.666666666657,
      "v": 110
    },
    {
      "midi": 67,
      "hit": false,
      "t": 215000,
      "d": 666.666666666657,
      "v": 110
    },
    {
      "midi": 39,
      "hit": false,
      "t": 215000,
      "d": 666.666666666657,
      "v": 110
    },
    {
      "midi": 63,
      "hit": false,
      "t": 215750,
      "d": 119.79166666665697,
      "v": 110
    },
    {
      "midi": 41,
      "hit": false,
      "t": 215750,
      "d": 244.79166666665697,
      "v": 110
    },
    {
      "midi": 62,
      "hit": false,
      "t": 215875,
      "d": 119.79166666665697,
      "v": 110
    },
    {
      "midi": 60,
      "hit": false,
      "t": 216000,
      "d": 1744.791666666657,
      "v": 110
    },
    {
      "midi": 44,
      "hit": false,
      "t": 216000,
      "d": 1375,
      "v": 110
    },
    {
      "midi": 51,
      "hit": false,
      "t": 216000,
      "d": 1375,
      "v": 110
    },
    {
      "midi": 58,
      "hit": false,
      "t": 217750,
      "d": 119.79166666665697,
      "v": 110
    },
    {
      "midi": 44,
      "hit": false,
      "t": 217750,
      "d": 244.79166666665697,
      "v": 110
    },
    {
      "midi": 60,
      "hit": false,
      "t": 217875,
      "d": 119.79166666665697,
      "v": 110
    },
    {
      "midi": 58,
      "hit": false,
      "t": 218000,
      "d": 875,
      "v": 110
    },
    {
      "midi": 63,
      "hit": false,
      "t": 218000,
      "d": 875,
      "v": 110
    },
    {
      "midi": 46,
      "hit": false,
      "t": 218000,
      "d": 1375,
      "v": 110
    },
    {
      "midi": 65,
      "hit": false,
      "t": 219000,
      "d": 666.666666666657,
      "v": 110
    },
    {
      "midi": 63,
      "hit": false,
      "t": 219750,
      "d": 119.79166666665697,
      "v": 110
    },
    {
      "midi": 46,
      "hit": false,
      "t": 219750,
      "d": 244.79166666665697,
      "v": 110
    },
    {
      "midi": 65,
      "hit": false,
      "t": 219875,
      "d": 119.79166666665697,
      "v": 110
    },
    {
      "midi": 58,
      "hit": false,
      "t": 220000,
      "d": 2875,
      "v": 110
    },
    {
      "midi": 63,
      "hit": false,
      "t": 220000,
      "d": 2875,
      "v": 110
    },
    {
      "midi": 48,
      "hit": false,
      "t": 220000,
      "d": 3875,
      "v": 110
    },
    {
      "midi": 63,
      "hit": false,
      "t": 223000,
      "d": 416.66666666665697,
      "v": 110
    },
    {
      "midi": 62,
      "hit": false,
      "t": 223500,
      "d": 416.66666666665697,
      "v": 110
    },
    {
      "midi": 60,
      "hit": false,
      "t": 224000,
      "d": 1375,
      "v": 110
    },
    {
      "midi": 44,
      "hit": false,
      "t": 224000,
      "d": 1375,
      "v": 110
    },
    {
      "midi": 51,
      "hit": false,
      "t": 224000,
      "d": 1375,
      "v": 110
    },
    {
      "midi": 58,
      "hit": false,
      "t": 225750,
      "d": 244.79166666665697,
      "v": 110
    },
    {
      "midi": 51,
      "hit": false,
      "t": 225750,
      "d": 244.79166666665697,
      "v": 110
    },
    {
      "midi": 60,
      "hit": false,
      "t": 226000,
      "d": 875,
      "v": 110
    },
    {
      "midi": 63,
      "hit": false,
      "t": 226000,
      "d": 875,
      "v": 110
    },
    {
      "midi": 44,
      "hit": false,
      "t": 226000,
      "d": 1375,
      "v": 110
    },
    {
      "midi": 51,
      "hit": false,
      "t": 226000,
      "d": 1375,
      "v": 110
    },
    {
      "midi": 58,
      "hit": false,
      "t": 227000,
      "d": 416.66666666665697,
      "v": 110
    },
    {
      "midi": 60,
      "hit": false,
      "t": 227500,
      "d": 416.66666666665697,
      "v": 110
    },
    {
      "midi": 39,
      "hit": false,
      "t": 227500,
      "d": 416.66666666665697,
      "v": 110
    },
    {
      "midi": 51,
      "hit": false,
      "t": 227500,
      "d": 416.66666666665697,
      "v": 110
    },
    {
      "midi": 63,
      "hit": false,
      "t": 228000,
      "d": 875,
      "v": 110
    },
    {
      "midi": 46,
      "hit": false,
      "t": 228000,
      "d": 875,
      "v": 110
    },
    {
      "midi": 51,
      "hit": false,
      "t": 228000,
      "d": 875,
      "v": 110
    },
    {
      "midi": 53,
      "hit": false,
      "t": 228000,
      "d": 875,
      "v": 110
    },
    {
      "midi": 65,
      "hit": false,
      "t": 229000,
      "d": 875,
      "v": 110
    },
    {
      "midi": 53,
      "hit": false,
      "t": 229000,
      "d": 875,
      "v": 110
    },
    {
      "midi": 58,
      "hit": false,
      "t": 229000,
      "d": 875,
      "v": 110
    },
    {
      "midi": 68,
      "hit": false,
      "t": 230000,
      "d": 416.66666666665697,
      "v": 110
    },
    {
      "midi": 39,
      "hit": false,
      "t": 230000,
      "d": 369.79166666665697,
      "v": 110
    },
    {
      "midi": 46,
      "hit": false,
      "t": 230375,
      "d": 369.79166666665697,
      "v": 110
    },
    {
      "midi": 70,
      "hit": false,
      "t": 230500,
      "d": 416.66666666665697,
      "v": 110
    },
    {
      "midi": 51,
      "hit": false,
      "t": 230750,
      "d": 916.666666666657,
      "v": 110
    },
    {
      "midi": 67,
      "hit": false,
      "t": 231000,
      "d": 666.666666666657,
      "v": 110
    },
    {
      "midi": 58,
      "hit": false,
      "t": 231750,
      "d": 244.79166666665697,
      "v": 110
    },
    {
      "midi": 46,
      "hit": false,
      "t": 231750,
      "d": 244.79166666665697,
      "v": 110
    },
    {
      "midi": 63,
      "hit": false,
      "t": 232000,
      "d": 1875,
      "v": 110
    },
    {
      "midi": 48,
      "hit": false,
      "t": 232000,
      "d": 1875,
      "v": 110
    },
    {
      "midi": 51,
      "hit": false,
      "t": 232000,
      "d": 1875,
      "v": 110
    },
    {
      "midi": 55,
      "hit": false,
      "t": 232000,
      "d": 1875,
      "v": 110
    },
    {
      "midi": 65,
      "hit": false,
      "t": 234000,
      "d": 1244.791666666657,
      "v": 110
    },
    {
      "midi": 53,
      "hit": false,
      "t": 234000,
      "d": 875,
      "v": 110
    },
    {
      "midi": 55,
      "hit": false,
      "t": 234000,
      "d": 875,
      "v": 110
    },
    {
      "midi": 58,
      "hit": false,
      "t": 234000,
      "d": 875,
      "v": 110
    },
    {
      "midi": 50,
      "hit": false,
      "t": 235000,
      "d": 244.79166666665697,
      "v": 110
    },
    {
      "midi": 53,
      "hit": false,
      "t": 235000,
      "d": 244.79166666665697,
      "v": 110
    },
    {
      "midi": 67,
      "hit": false,
      "t": 235250,
      "d": 244.79166666665697,
      "v": 110
    },
    {
      "midi": 79,
      "hit": false,
      "t": 235250,
      "d": 244.79166666665697,
      "v": 110
    },
    {
      "midi": 55,
      "hit": false,
      "t": 235250,
      "d": 244.79166666665697,
      "v": 110
    },
    {
      "midi": 70,
      "hit": false,
      "t": 235500,
      "d": 416.66666666665697,
      "v": 110
    },
    {
      "midi": 82,
      "hit": false,
      "t": 235500,
      "d": 416.66666666665697,
      "v": 110
    },
    {
      "midi": 58,
      "hit": false,
      "t": 235500,
      "d": 244.79166666665697,
      "v": 110
    },
    {
      "midi": 48,
      "hit": false,
      "t": 235750,
      "d": 244.79166666665697,
      "v": 110
    },
    {
      "midi": 55,
      "hit": false,
      "t": 235750,
      "d": 244.79166666665697,
      "v": 110
    },
    {
      "midi": 63,
      "hit": false,
      "t": 235750,
      "d": 244.79166666665697,
      "v": 110
    },
    {
      "midi": 72,
      "hit": false,
      "t": 236000,
      "d": 1875,
      "v": 110
    },
    {
      "midi": 84,
      "hit": false,
      "t": 236000,
      "d": 1875,
      "v": 110
    },
    {
      "midi": 48,
      "hit": false,
      "t": 236000,
      "d": 1375,
      "v": 110
    },
    {
      "midi": 55,
      "hit": false,
      "t": 236000,
      "d": 1375,
      "v": 110
    },
    {
      "midi": 63,
      "hit": false,
      "t": 236000,
      "d": 1375,
      "v": 110
    },
    {
      "midi": 67,
      "hit": false,
      "t": 237750,
      "d": 494.79166666665697,
      "v": 110
    },
    {
      "midi": 75,
      "hit": false,
      "t": 237750,
      "d": 494.79166666665697,
      "v": 110
    },
    {
      "midi": 65,
      "hit": false,
      "t": 238250,
      "d": 494.79166666665697,
      "v": 110
    },
    {
      "midi": 74,
      "hit": false,
      "t": 238250,
      "d": 494.79166666665697,
      "v": 110
    },
    {
      "midi": 63,
      "hit": false,
      "t": 238750,
      "d": 1125,
      "v": 110
    },
    {
      "midi": 70,
      "hit": false,
      "t": 238750,
      "d": 1125,
      "v": 110
    },
    {
      "midi": 63,
      "hit": false,
      "t": 239000,
      "d": 416.66666666665697,
      "v": 110
    },
    {
      "midi": 62,
      "hit": false,
      "t": 239500,
      "d": 416.66666666665697,
      "v": 110
    },
    {
      "midi": 60,
      "hit": false,
      "t": 240000,
      "d": 2875,
      "v": 110
    },
    {
      "midi": 44,
      "hit": false,
      "t": 240000,
      "d": 1875,
      "v": 110
    },
    {
      "midi": 51,
      "hit": false,
      "t": 240000,
      "d": 1875,
      "v": 110
    },
    {
      "midi": 56,
      "hit": false,
      "t": 243000,
      "d": 416.66666666665697,
      "v": 110
    },
    {
      "midi": 60,
      "hit": false,
      "t": 243500,
      "d": 416.66666666665697,
      "v": 110
    },
    {
      "midi": 48,
      "hit": false,
      "t": 243500,
      "d": 416.66666666665697,
      "v": 110
    },
    {
      "midi": 63,
      "hit": false,
      "t": 244000,
      "d": 875,
      "v": 110
    },
    {
      "midi": 41,
      "hit": false,
      "t": 244000,
      "d": 875,
      "v": 110
    },
    {
      "midi": 46,
      "hit": false,
      "t": 244000,
      "d": 875,
      "v": 110
    },
    {
      "midi": 51,
      "hit": false,
      "t": 244000,
      "d": 875,
      "v": 110
    },
    {
      "midi": 65,
      "hit": false,
      "t": 245000,
      "d": 875,
      "v": 110
    },
    {
      "midi": 46,
      "hit": false,
      "t": 245000,
      "d": 875,
      "v": 110
    },
    {
      "midi": 51,
      "hit": false,
      "t": 245000,
      "d": 875,
      "v": 110
    },
    {
      "midi": 53,
      "hit": false,
      "t": 245000,
      "d": 875,
      "v": 110
    },
    {
      "midi": 68,
      "hit": false,
      "t": 246000,
      "d": 875,
      "v": 110
    },
    {
      "midi": 39,
      "hit": false,
      "t": 246000,
      "d": 369.79166666665697,
      "v": 110
    },
    {
      "midi": 46,
      "hit": false,
      "t": 246375,
      "d": 369.79166666665697,
      "v": 110
    },
    {
      "midi": 39,
      "hit": false,
      "t": 246750,
      "d": 916.666666666657,
      "v": 110
    },
    {
      "midi": 67,
      "hit": false,
      "t": 247000,
      "d": 666.666666666657,
      "v": 110
    },
    {
      "midi": 65,
      "hit": false,
      "t": 247750,
      "d": 244.79166666665697,
      "v": 110
    },
    {
      "midi": 39,
      "hit": false,
      "t": 247750,
      "d": 244.79166666665697,
      "v": 110
    },
    {
      "midi": 63,
      "hit": false,
      "t": 248000,
      "d": 1375,
      "v": 110
    },
    {
      "midi": 44,
      "hit": false,
      "t": 248000,
      "d": 875,
      "v": 110
    },
    {
      "midi": 51,
      "hit": false,
      "t": 248000,
      "d": 875,
      "v": 110
    },
    {
      "midi": 44,
      "hit": false,
      "t": 249000,
      "d": 244.79166666665697,
      "v": 110
    },
    {
      "midi": 44,
      "hit": false,
      "t": 249250,
      "d": 666.666666666657,
      "v": 110
    },
    {
      "midi": 63,
      "hit": false,
      "t": 249750,
      "d": 244.79166666665697,
      "v": 110
    },
    {
      "midi": 65,
      "hit": false,
      "t": 250000,
      "d": 875,
      "v": 110
    },
    {
      "midi": 46,
      "hit": false,
      "t": 250000,
      "d": 875,
      "v": 110
    },
    {
      "midi": 51,
      "hit": false,
      "t": 250000,
      "d": 875,
      "v": 110
    },
    {
      "midi": 41,
      "hit": false,
      "t": 251000,
      "d": 875,
      "v": 110
    },
    {
      "midi": 46,
      "hit": false,
      "t": 251000,
      "d": 875,
      "v": 110
    },
    {
      "midi": 50,
      "hit": false,
      "t": 251000,
      "d": 875,
      "v": 110
    },
    {
      "midi": 63,
      "hit": false,
      "t": 251250,
      "d": 494.79166666665697,
      "v": 110
    },
    {
      "midi": 65,
      "hit": false,
      "t": 251750,
      "d": 244.79166666665697,
      "v": 110
    },
    {
      "midi": 63,
      "hit": false,
      "t": 252000,
      "d": 875,
      "v": 110
    },
    {
      "midi": 67,
      "hit": false,
      "t": 252000,
      "d": 875,
      "v": 110
    },
    {
      "midi": 48,
      "hit": false,
      "t": 252000,
      "d": 369.79166666665697,
      "v": 110
    },
    {
      "midi": 48,
      "hit": false,
      "t": 252375,
      "d": 369.79166666665697,
      "v": 110
    },
    {
      "midi": 48,
      "hit": false,
      "t": 252750,
      "d": 1125,
      "v": 110
    },
    {
      "midi": 62,
      "hit": false,
      "t": 253250,
      "d": 244.79166666665697,
      "v": 110
    },
    {
      "midi": 64,
      "hit": false,
      "t": 253500,
      "d": 244.79166666665697,
      "v": 110
    },
    {
      "midi": 67,
      "hit": false,
      "t": 253750,
      "d": 244.79166666665697,
      "v": 110
    },
    {
      "midi": 72,
      "hit": false,
      "t": 254000,
      "d": 369.79166666665697,
      "v": 110
    },
    {
      "midi": 74,
      "hit": false,
      "t": 254375,
      "d": 369.79166666665697,
      "v": 110
    },
    {
      "midi": 76,
      "hit": false,
      "t": 254750,
      "d": 244.79166666665697,
      "v": 110
    },
    {
      "midi": 79,
      "hit": false,
      "t": 255000,
      "d": 369.79166666665697,
      "v": 110
    },
    {
      "midi": 84,
      "hit": false,
      "t": 255375,
      "d": 119.79166666665697,
      "v": 110
    },
    {
      "midi": 84,
      "hit": false,
      "t": 255500,
      "d": 244.79166666665697,
      "v": 110
    },
    {
      "midi": 86,
      "hit": false,
      "t": 255750,
      "d": 244.79166666665697,
      "v": 110
    },
    {
      "midi": 88,
      "hit": false,
      "t": 256000,
      "d": 1875,
      "v": 110
    },
    {
      "midi": 48,
      "hit": false,
      "t": 256000,
      "d": 244.79166666665697,
      "v": 110
    },
    {
      "midi": 55,
      "hit": false,
      "t": 256250,
      "d": 244.79166666665697,
      "v": 110
    },
    {
      "midi": 60,
      "hit": false,
      "t": 256500,
      "d": 244.79166666665697,
      "v": 110
    },
    {
      "midi": 62,
      "hit": false,
      "t": 256750,
      "d": 244.79166666665697,
      "v": 110
    },
    {
      "midi": 64,
      "hit": false,
      "t": 257000,
      "d": 244.79166666665697,
      "v": 110
    },
    {
      "midi": 60,
      "hit": false,
      "t": 257250,
      "d": 244.79166666665697,
      "v": 110
    },
    {
      "midi": 62,
      "hit": false,
      "t": 257500,
      "d": 244.79166666665697,
      "v": 110
    },
    {
      "midi": 60,
      "hit": false,
      "t": 257750,
      "d": 244.79166666665697,
      "v": 110
    },
    {
      "midi": 48,
      "hit": false,
      "t": 258000,
      "d": 1875,
      "v": 110
    },
    {
      "midi": 55,
      "hit": false,
      "t": 258250,
      "d": 244.79166666665697,
      "v": 110
    },
    {
      "midi": 60,
      "hit": false,
      "t": 258500,
      "d": 244.79166666665697,
      "v": 110
    },
    {
      "midi": 62,
      "hit": false,
      "t": 258750,
      "d": 244.79166666665697,
      "v": 110
    },
    {
      "midi": 64,
      "hit": false,
      "t": 259000,
      "d": 244.79166666665697,
      "v": 110
    },
    {
      "midi": 60,
      "hit": false,
      "t": 259250,
      "d": 244.79166666665697,
      "v": 110
    },
    {
      "midi": 62,
      "hit": false,
      "t": 259500,
      "d": 244.79166666665697,
      "v": 110
    },
    {
      "midi": 55,
      "hit": false,
      "t": 259750,
      "d": 244.79166666665697,
      "v": 110
    },
    {
      "midi": 48,
      "hit": false,
      "t": 260000,
      "d": 1875,
      "v": 110
    },
    {
      "midi": 55,
      "hit": false,
      "t": 260250,
      "d": 244.79166666665697,
      "v": 110
    },
    {
      "midi": 60,
      "hit": false,
      "t": 260500,
      "d": 244.79166666665697,
      "v": 110
    },
    {
      "midi": 62,
      "hit": false,
      "t": 260750,
      "d": 244.79166666665697,
      "v": 110
    },
    {
      "midi": 64,
      "hit": false,
      "t": 261000,
      "d": 244.79166666665697,
      "v": 110
    },
    {
      "midi": 60,
      "hit": false,
      "t": 261250,
      "d": 244.79166666665697,
      "v": 110
    },
    {
      "midi": 62,
      "hit": false,
      "t": 261500,
      "d": 244.79166666665697,
      "v": 110
    },
    {
      "midi": 55,
      "hit": false,
      "t": 261750,
      "d": 244.79166666665697,
      "v": 110
    },
    {
      "midi": 48,
      "hit": false,
      "t": 262000,
      "d": 1875,
      "v": 110
    },
    {
      "midi": 55,
      "hit": false,
      "t": 262250,
      "d": 244.79166666668607,
      "v": 110
    },
    {
      "midi": 60,
      "hit": false,
      "t": 262500,
      "d": 244.79166666668607,
      "v": 110
    },
    {
      "midi": 62,
      "hit": false,
      "t": 262750,
      "d": 244.79166666668607,
      "v": 110
    },
    {
      "midi": 64,
      "hit": false,
      "t": 263000,
      "d": 416.66666666668607,
      "v": 110
    },
    {
      "midi": 60,
      "hit": false,
      "t": 263500,
      "d": 416.66666666668607,
      "v": 110
    },
    {
      "midi": 64,
      "hit": false,
      "t": 264000,
      "d": 1375,
      "v": 110
    },
    {
      "midi": 72,
      "hit": false,
      "t": 264000,
      "d": 1375,
      "v": 110
    },
    {
      "midi": 45,
      "hit": false,
      "t": 264000,
      "d": 1875,
      "v": 110
    },
    {
      "midi": 64,
      "hit": false,
      "t": 265500,
      "d": 244.79166666668607,
      "v": 110
    },
    {
      "midi": 72,
      "hit": false,
      "t": 265500,
      "d": 244.79166666668607,
      "v": 110
    },
    {
      "midi": 71,
      "hit": false,
      "t": 265750,
      "d": 119.79166666668607,
      "v": 110
    },
    {
      "midi": 69,
      "hit": false,
      "t": 265875,
      "d": 119.79166666668607,
      "v": 110
    },
    {
      "midi": 62,
      "hit": false,
      "t": 266000,
      "d": 875,
      "v": 110
    },
    {
      "midi": 71,
      "hit": false,
      "t": 266000,
      "d": 875,
      "v": 110
    },
    {
      "midi": 41,
      "hit": false,
      "t": 266000,
      "d": 1875,
      "v": 110
    },
    {
      "midi": 60,
      "hit": false,
      "t": 267000,
      "d": 666.6666666666861,
      "v": 110
    },
    {
      "midi": 69,
      "hit": false,
      "t": 267000,
      "d": 666.6666666666861,
      "v": 110
    },
    {
      "midi": 67,
      "hit": false,
      "t": 267750,
      "d": 244.79166666668607,
      "v": 110
    },
    {
      "midi": 60,
      "hit": false,
      "t": 268000,
      "d": 1875,
      "v": 110
    },
    {
      "midi": 67,
      "hit": false,
      "t": 268000,
      "d": 1875,
      "v": 110
    },
    {
      "midi": 48,
      "hit": false,
      "t": 268000,
      "d": 1875,
      "v": 110
    },
    {
      "midi": 59,
      "hit": false,
      "t": 270000,
      "d": 416.66666666668607,
      "v": 110
    },
    {
      "midi": 67,
      "hit": false,
      "t": 270000,
      "d": 416.66666666668607,
      "v": 110
    },
    {
      "midi": 43,
      "hit": false,
      "t": 270000,
      "d": 1875,
      "v": 110
    },
    {
      "midi": 64,
      "hit": false,
      "t": 270500,
      "d": 244.79166666668607,
      "v": 110
    },
    {
      "midi": 62,
      "hit": false,
      "t": 270750,
      "d": 666.6666666666861,
      "v": 110
    },
    {
      "midi": 72,
      "hit": false,
      "t": 271500,
      "d": 244.79166666668607,
      "v": 110
    },
    {
      "midi": 71,
      "hit": false,
      "t": 271750,
      "d": 119.79166666668607,
      "v": 110
    },
    {
      "midi": 69,
      "hit": false,
      "t": 271875,
      "d": 119.79166666668607,
      "v": 110
    },
    {
      "midi": 64,
      "hit": false,
      "t": 272000,
      "d": 875,
      "v": 110
    },
    {
      "midi": 71,
      "hit": false,
      "t": 272000,
      "d": 875,
      "v": 110
    },
    {
      "midi": 45,
      "hit": false,
      "t": 272000,
      "d": 1875,
      "v": 110
    },
    {
      "midi": 72,
      "hit": false,
      "t": 273000,
      "d": 875,
      "v": 110
    },
    {
      "midi": 62,
      "hit": false,
      "t": 274000,
      "d": 875,
      "v": 110
    },
    {
      "midi": 71,
      "hit": false,
      "t": 274000,
      "d": 875,
      "v": 110
    },
    {
      "midi": 41,
      "hit": false,
      "t": 274000,
      "d": 1875,
      "v": 110
    },
    {
      "midi": 60,
      "hit": false,
      "t": 275000,
      "d": 666.6666666666861,
      "v": 110
    },
    {
      "midi": 69,
      "hit": false,
      "t": 275000,
      "d": 666.6666666666861,
      "v": 110
    },
    {
      "midi": 67,
      "hit": false,
      "t": 275750,
      "d": 244.79166666668607,
      "v": 110
    },
    {
      "midi": 60,
      "hit": false,
      "t": 276000,
      "d": 1375,
      "v": 110
    },
    {
      "midi": 67,
      "hit": false,
      "t": 276000,
      "d": 1375,
      "v": 110
    },
    {
      "midi": 48,
      "hit": false,
      "t": 276000,
      "d": 1875,
      "v": 110
    },
    {
      "midi": 64,
      "hit": false,
      "t": 277750,
      "d": 244.79166666668607,
      "v": 110
    },
    {
      "midi": 59,
      "hit": false,
      "t": 278000,
      "d": 875,
      "v": 110
    },
    {
      "midi": 62,
      "hit": false,
      "t": 278000,
      "d": 875,
      "v": 110
    },
    {
      "midi": 43,
      "hit": false,
      "t": 278000,
      "d": 1875,
      "v": 110
    },
    {
      "midi": 60,
      "hit": false,
      "t": 279000,
      "d": 416.66666666668607,
      "v": 110
    },
    {
      "midi": 72,
      "hit": false,
      "t": 279500,
      "d": 416.66666666668607,
      "v": 110
    },
    {
      "midi": 67,
      "hit": false,
      "t": 280000,
      "d": 875,
      "v": 110
    },
    {
      "midi": 71,
      "hit": false,
      "t": 280000,
      "d": 875,
      "v": 110
    },
    {
      "midi": 45,
      "hit": false,
      "t": 280000,
      "d": 369.79166666668607,
      "v": 110
    },
    {
      "midi": 40,
      "hit": false,
      "t": 280375,
      "d": 369.79166666668607,
      "v": 110
    },
    {
      "midi": 33,
      "hit": false,
      "t": 280750,
      "d": 916.6666666666861,
      "v": 110
    },
    {
      "midi": 64,
      "hit": false,
      "t": 281000,
      "d": 666.6666666666861,
      "v": 110
    },
    {
      "midi": 72,
      "hit": false,
      "t": 281000,
      "d": 666.6666666666861,
      "v": 110
    },
    {
      "midi": 62,
      "hit": false,
      "t": 281750,
      "d": 244.79166666668607,
      "v": 110
    },
    {
      "midi": 71,
      "hit": false,
      "t": 281750,
      "d": 244.79166666668607,
      "v": 110
    },
    {
      "midi": 40,
      "hit": false,
      "t": 281750,
      "d": 244.79166666668607,
      "v": 110
    },
    {
      "midi": 62,
      "hit": false,
      "t": 282000,
      "d": 666.6666666666861,
      "v": 110
    },
    {
      "midi": 67,
      "hit": false,
      "t": 282000,
      "d": 666.6666666666861,
      "v": 110
    },
    {
      "midi": 71,
      "hit": false,
      "t": 282000,
      "d": 666.6666666666861,
      "v": 110
    },
    {
      "midi": 41,
      "hit": false,
      "t": 282000,
      "d": 666.6666666666861,
      "v": 110
    },
    {
      "midi": 69,
      "hit": false,
      "t": 282750,
      "d": 244.79166666668607,
      "v": 110
    },
    {
      "midi": 41,
      "hit": false,
      "t": 282750,
      "d": 494.79166666668607,
      "v": 110
    },
    {
      "midi": 60,
      "hit": false,
      "t": 283000,
      "d": 666.6666666666861,
      "v": 110
    },
    {
      "midi": 65,
      "hit": false,
      "t": 283000,
      "d": 666.6666666666861,
      "v": 110
    },
    {
      "midi": 69,
      "hit": false,
      "t": 283000,
      "d": 666.6666666666861,
      "v": 110
    },
    {
      "midi": 48,
      "hit": false,
      "t": 283250,
      "d": 244.79166666668607,
      "v": 110
    },
    {
      "midi": 41,
      "hit": false,
      "t": 283500,
      "d": 416.66666666668607,
      "v": 110
    },
    {
      "midi": 67,
      "hit": false,
      "t": 283750,
      "d": 244.79166666668607,
      "v": 110
    },
    {
      "midi": 60,
      "hit": false,
      "t": 284000,
      "d": 875,
      "v": 110
    },
    {
      "midi": 64,
      "hit": false,
      "t": 284000,
      "d": 875,
      "v": 110
    },
    {
      "midi": 67,
      "hit": false,
      "t": 284000,
      "d": 875,
      "v": 110
    },
    {
      "midi": 48,
      "hit": false,
      "t": 284000,
      "d": 875,
      "v": 110
    },
    {
      "midi": 55,
      "hit": false,
      "t": 285000,
      "d": 244.79166666668607,
      "v": 110
    },
    {
      "midi": 48,
      "hit": false,
      "t": 285000,
      "d": 416.66666666668607,
      "v": 110
    },
    {
      "midi": 60,
      "hit": false,
      "t": 285250,
      "d": 244.79166666668607,
      "v": 110
    },
    {
      "midi": 62,
      "hit": false,
      "t": 285500,
      "d": 244.79166666668607,
      "v": 110
    },
    {
      "midi": 64,
      "hit": false,
      "t": 285750,
      "d": 244.79166666668607,
      "v": 110
    },
    {
      "midi": 67,
      "hit": false,
      "t": 285750,
      "d": 244.79166666668607,
      "v": 110
    },
    {
      "midi": 48,
      "hit": false,
      "t": 285750,
      "d": 244.79166666668607,
      "v": 110
    },
    {
      "midi": 67,
      "hit": false,
      "t": 286000,
      "d": 369.79166666668607,
      "v": 110
    },
    {
      "midi": 55,
      "hit": false,
      "t": 286000,
      "d": 875,
      "v": 110
    },
    {
      "midi": 59,
      "hit": false,
      "t": 286000,
      "d": 875,
      "v": 110
    },
    {
      "midi": 62,
      "hit": false,
      "t": 286000,
      "d": 875,
      "v": 110
    },
    {
      "midi": 64,
      "hit": false,
      "t": 286375,
      "d": 369.79166666668607,
      "v": 110
    },
    {
      "midi": 62,
      "hit": false,
      "t": 286750,
      "d": 494.79166666668607,
      "v": 110
    },
    {
      "midi": 55,
      "hit": false,
      "t": 287000,
      "d": 875,
      "v": 110
    },
    {
      "midi": 59,
      "hit": false,
      "t": 287000,
      "d": 875,
      "v": 110
    },
    {
      "midi": 64,
      "hit": false,
      "t": 287250,
      "d": 119.79166666668607,
      "v": 110
    },
    {
      "midi": 62,
      "hit": false,
      "t": 287375,
      "d": 119.79166666668607,
      "v": 110
    },
    {
      "midi": 60,
      "hit": false,
      "t": 287500,
      "d": 244.79166666668607,
      "v": 110
    },
    {
      "midi": 59,
      "hit": false,
      "t": 287750,
      "d": 244.79166666668607,
      "v": 110
    },
    {
      "midi": 60,
      "hit": false,
      "t": 288000,
      "d": 875,
      "v": 110
    },
    {
      "midi": 45,
      "hit": false,
      "t": 288000,
      "d": 875,
      "v": 110
    },
    {
      "midi": 60,
      "hit": false,
      "t": 289000,
      "d": 416.66666666668607,
      "v": 110
    },
    {
      "midi": 64,
      "hit": false,
      "t": 289000,
      "d": 416.66666666668607,
      "v": 110
    },
    {
      "midi": 67,
      "hit": false,
      "t": 289000,
      "d": 416.66666666668607,
      "v": 110
    },
    {
      "midi": 52,
      "hit": false,
      "t": 289000,
      "d": 244.79166666668607,
      "v": 110
    },
    {
      "midi": 55,
      "hit": false,
      "t": 289250,
      "d": 244.79166666668607,
      "v": 110
    },
    {
      "midi": 67,
      "hit": false,
      "t": 289500,
      "d": 416.66666666668607,
      "v": 110
    },
    {
      "midi": 72,
      "hit": false,
      "t": 289500,
      "d": 416.66666666668607,
      "v": 110
    },
    {
      "midi": 60,
      "hit": false,
      "t": 289500,
      "d": 416.66666666668607,
      "v": 110
    },
    {
      "midi": 62,
      "hit": false,
      "t": 290000,
      "d": 875,
      "v": 110
    },
    {
      "midi": 67,
      "hit": false,
      "t": 290000,
      "d": 875,
      "v": 110
    },
    {
      "midi": 71,
      "hit": false,
      "t": 290000,
      "d": 875,
      "v": 110
    },
    {
      "midi": 47,
      "hit": false,
      "t": 290000,
      "d": 875,
      "v": 110
    },
    {
      "midi": 59,
      "hit": false,
      "t": 290000,
      "d": 875,
      "v": 110
    },
    {
      "midi": 60,
      "hit": false,
      "t": 291000,
      "d": 875,
      "v": 110
    },
    {
      "midi": 65,
      "hit": false,
      "t": 291000,
      "d": 875,
      "v": 110
    },
    {
      "midi": 69,
      "hit": false,
      "t": 291000,
      "d": 875,
      "v": 110
    },
    {
      "midi": 45,
      "hit": false,
      "t": 291000,
      "d": 875,
      "v": 110
    },
    {
      "midi": 57,
      "hit": false,
      "t": 291000,
      "d": 875,
      "v": 110
    },
    {
      "midi": 59,
      "hit": false,
      "t": 292000,
      "d": 875,
      "v": 110
    },
    {
      "midi": 62,
      "hit": false,
      "t": 292000,
      "d": 875,
      "v": 110
    },
    {
      "midi": 67,
      "hit": false,
      "t": 292000,
      "d": 875,
      "v": 110
    },
    {
      "midi": 43,
      "hit": false,
      "t": 292000,
      "d": 1875,
      "v": 110
    },
    {
      "midi": 55,
      "hit": false,
      "t": 292000,
      "d": 1875,
      "v": 110
    },
    {
      "midi": 55,
      "hit": false,
      "t": 293000,
      "d": 244.79166666668607,
      "v": 110
    },
    {
      "midi": 60,
      "hit": false,
      "t": 293250,
      "d": 244.79166666668607,
      "v": 110
    },
    {
      "midi": 62,
      "hit": false,
      "t": 293500,
      "d": 244.79166666668607,
      "v": 110
    },
    {
      "midi": 64,
      "hit": false,
      "t": 293750,
      "d": 244.79166666668607,
      "v": 110
    },
    {
      "midi": 67,
      "hit": false,
      "t": 293750,
      "d": 244.79166666668607,
      "v": 110
    },
    {
      "midi": 59,
      "hit": false,
      "t": 294000,
      "d": 369.79166666668607,
      "v": 110
    },
    {
      "midi": 62,
      "hit": false,
      "t": 294000,
      "d": 369.79166666668607,
      "v": 110
    },
    {
      "midi": 67,
      "hit": false,
      "t": 294000,
      "d": 369.79166666668607,
      "v": 110
    },
    {
      "midi": 43,
      "hit": false,
      "t": 294000,
      "d": 369.79166666668607,
      "v": 110
    },
    {
      "midi": 64,
      "hit": false,
      "t": 294375,
      "d": 369.79166666668607,
      "v": 110
    },
    {
      "midi": 50,
      "hit": false,
      "t": 294375,
      "d": 369.79166666668607,
      "v": 110
    },
    {
      "midi": 62,
      "hit": false,
      "t": 294750,
      "d": 244.79166666668607,
      "v": 110
    },
    {
      "midi": 57,
      "hit": false,
      "t": 294750,
      "d": 1125,
      "v": 110
    },
    {
      "midi": 59,
      "hit": false,
      "t": 295000,
      "d": 244.79166666668607,
      "v": 110
    },
    {
      "midi": 62,
      "hit": false,
      "t": 295000,
      "d": 244.79166666668607,
      "v": 110
    },
    {
      "midi": 64,
      "hit": false,
      "t": 295250,
      "d": 494.79166666668607,
      "v": 110
    },
    {
      "midi": 62,
      "hit": false,
      "t": 295750,
      "d": 119.79166666668607,
      "v": 110
    },
    {
      "midi": 60,
      "hit": false,
      "t": 295875,
      "d": 119.79166666668607,
      "v": 110
    },
    {
      "midi": 60,
      "hit": false,
      "t": 296000,
      "d": 875,
      "v": 110
    },
    {
      "midi": 45,
      "hit": false,
      "t": 296000,
      "d": 1875,
      "v": 110
    },
    {
      "midi": 60,
      "hit": false,
      "t": 297000,
      "d": 416.66666666668607,
      "v": 110
    },
    {
      "midi": 72,
      "hit": false,
      "t": 297500,
      "d": 416.66666666668607,
      "v": 110
    },
    {
      "midi": 62,
      "hit": false,
      "t": 298000,
      "d": 875,
      "v": 110
    },
    {
      "midi": 67,
      "hit": false,
      "t": 298000,
      "d": 875,
      "v": 110
    },
    {
      "midi": 71,
      "hit": false,
      "t": 298000,
      "d": 875,
      "v": 110
    },
    {
      "midi": 41,
      "hit": false,
      "t": 298000,
      "d": 369.79166666668607,
      "v": 110
    },
    {
      "midi": 48,
      "hit": false,
      "t": 298375,
      "d": 369.79166666668607,
      "v": 110
    },
    {
      "midi": 41,
      "hit": false,
      "t": 298750,
      "d": 244.79166666668607,
      "v": 110
    },
    {
      "midi": 60,
      "hit": false,
      "t": 299000,
      "d": 666.6666666666861,
      "v": 110
    },
    {
      "midi": 65,
      "hit": false,
      "t": 299000,
      "d": 666.6666666666861,
      "v": 110
    },
    {
      "midi": 69,
      "hit": false,
      "t": 299000,
      "d": 666.6666666666861,
      "v": 110
    },
    {
      "midi": 41,
      "hit": false,
      "t": 299000,
      "d": 666.6666666666861,
      "v": 110
    },
    {
      "midi": 67,
      "hit": false,
      "t": 299750,
      "d": 244.79166666668607,
      "v": 110
    },
    {
      "midi": 41,
      "hit": false,
      "t": 299750,
      "d": 244.79166666668607,
      "v": 110
    },
    {
      "midi": 60,
      "hit": false,
      "t": 300000,
      "d": 875,
      "v": 110
    },
    {
      "midi": 64,
      "hit": false,
      "t": 300000,
      "d": 875,
      "v": 110
    },
    {
      "midi": 67,
      "hit": false,
      "t": 300000,
      "d": 875,
      "v": 110
    },
    {
      "midi": 48,
      "hit": false,
      "t": 300000,
      "d": 369.79166666668607,
      "v": 110
    },
    {
      "midi": 43,
      "hit": false,
      "t": 300375,
      "d": 369.79166666668607,
      "v": 110
    },
    {
      "midi": 48,
      "hit": false,
      "t": 300750,
      "d": 666.6666666666861,
      "v": 110
    },
    {
      "midi": 65,
      "hit": false,
      "t": 301250,
      "d": 494.79166666668607,
      "v": 110
    },
    {
      "midi": 64,
      "hit": false,
      "t": 301750,
      "d": 244.79166666668607,
      "v": 110
    },
    {
      "midi": 48,
      "hit": false,
      "t": 301750,
      "d": 244.79166666668607,
      "v": 110
    },
    {
      "midi": 59,
      "hit": false,
      "t": 302000,
      "d": 875,
      "v": 110
    },
    {
      "midi": 62,
      "hit": false,
      "t": 302000,
      "d": 875,
      "v": 110
    },
    {
      "midi": 67,
      "hit": false,
      "t": 302000,
      "d": 875,
      "v": 110
    },
    {
      "midi": 43,
      "hit": false,
      "t": 302000,
      "d": 1875,
      "v": 110
    },
    {
      "midi": 60,
      "hit": false,
      "t": 303250,
      "d": 244.79166666668607,
      "v": 110
    },
    {
      "midi": 59,
      "hit": false,
      "t": 303500,
      "d": 416.66666666668607,
      "v": 110
    },
    {
      "midi": 57,
      "hit": false,
      "t": 304000,
      "d": 369.79166666668607,
      "v": 110
    },
    {
      "midi": 60,
      "hit": false,
      "t": 304000,
      "d": 369.79166666668607,
      "v": 110
    },
    {
      "midi": 67,
      "hit": false,
      "t": 304000,
      "d": 369.79166666668607,
      "v": 110
    },
    {
      "midi": 41,
      "hit": false,
      "t": 304000,
      "d": 1375,
      "v": 110
    },
    {
      "midi": 65,
      "hit": false,
      "t": 304375,
      "d": 369.79166666668607,
      "v": 110
    },
    {
      "midi": 64,
      "hit": false,
      "t": 304750,
      "d": 494.79166666668607,
      "v": 110
    },
    {
      "midi": 60,
      "hit": false,
      "t": 305250,
      "d": 666.6666666666861,
      "v": 110
    },
    {
      "midi": 45,
      "hit": false,
      "t": 305750,
      "d": 119.79166666668607,
      "v": 110
    },
    {
      "midi": 47,
      "hit": false,
      "t": 305875,
      "d": 119.79166666668607,
      "v": 110
    },
    {
      "midi": 48,
      "hit": false,
      "t": 306000,
      "d": 1875,
      "v": 110
    },
    {
      "midi": 64,
      "hit": false,
      "t": 307250,
      "d": 494.79166666668607,
      "v": 110
    },
    {
      "midi": 62,
      "hit": false,
      "t": 307750,
      "d": 244.79166666668607,
      "v": 110
    },
    {
      "midi": 55,
      "hit": false,
      "t": 308000,
      "d": 3875,
      "v": 110
    },
    {
      "midi": 60,
      "hit": false,
      "t": 308000,
      "d": 3875,
      "v": 110
    },
    {
      "midi": 36,
      "hit": false,
      "t": 308000,
      "d": 3875,
      "v": 110
    },
    {
      "midi": 67,
      "hit": false,
      "t": 312000,
      "d": 369.79166666668607,
      "v": 110
    },
    {
      "midi": 65,
      "hit": false,
      "t": 312375,
      "d": 369.79166666668607,
      "v": 110
    },
    {
      "midi": 64,
      "hit": false,
      "t": 312750,
      "d": 244.79166666668607,
      "v": 110
    },
    {
      "midi": 60,
      "hit": false,
      "t": 313000,
      "d": 875,
      "v": 110
    },
    {
      "midi": 64,
      "hit": false,
      "t": 315000,
      "d": 416.66666666668607,
      "v": 110
    },
    {
      "midi": 62,
      "hit": false,
      "t": 315500,
      "d": 416.66666666668607,
      "v": 110
    },
    {
      "midi": 55,
      "hit": false,
      "t": 316000,
      "d": 2875,
      "v": 110
    },
    {
      "midi": 60,
      "hit": false,
      "t": 316000,
      "d": 2875,
      "v": 110
    },
    {
      "midi": 36,
      "hit": false,
      "t": 316000,
      "d": 3875,
      "v": 110
    },
    {
      "midi": 72,
      "hit": false,
      "t": 319000,
      "d": 244.79166666668607,
      "v": 110
    },
    {
      "midi": 74,
      "hit": false,
      "t": 319250,
      "d": 244.79166666668607,
      "v": 110
    },
    {
      "midi": 76,
      "hit": false,
      "t": 319500,
      "d": 244.79166666668607,
      "v": 110
    },
    {
      "midi": 79,
      "hit": false,
      "t": 319750,
      "d": 244.79166666668607,
      "v": 110
    },
    {
      "midi": 76,
      "hit": false,
      "t": 320000,
      "d": 57.29166666668607,
      "v": 110
    },
    {
      "midi": 36,
      "hit": false,
      "t": 320000,
      "d": 1875,
      "v": 110
    },
    {
      "midi": 79,
      "hit": false,
      "t": 320062.5,
      "d": 57.29166666668607,
      "v": 110
    },
    {
      "midi": 84,
      "hit": false,
      "t": 320125,
      "d": 1750,
      "v": 110
    }
  ]
}