{
  "jsonPath": "Soundtracks/Video Game Music/Xenogears/xenogears-knightoffire.json",
  "path": "Soundtracks\\Video Game Music\\Xenogears\\Xenogears_KnightofFire.mid",
  "name": "Xenogears_KnightofFire",
  "difficulty": "Advanced",
  "bpm": 120,
  "notes": [
    {
      "midi": 64,
      "hit": false,
      "t": 4.308359375,
      "d": 449.3618828125,
      "v": 61
    },
    {
      "midi": 66,
      "hit": false,
      "t": 4.308359375,
      "d": 449.3618828125,
      "v": 61
    },
    {
      "midi": 71,
      "hit": false,
      "t": 4.308359375,
      "d": 449.3618828125,
      "v": 61
    },
    {
      "midi": 76,
      "hit": false,
      "t": 4.308359375,
      "d": 449.3618828125,
      "v": 75
    },
    {
      "midi": 40,
      "hit": false,
      "t": 4.308359375,
      "d": 449.3618828125,
      "v": 60
    },
    {
      "midi": 47,
      "hit": false,
      "t": 4.308359375,
      "d": 449.3618828125,
      "v": 71
    },
    {
      "midi": 40,
      "hit": false,
      "t": 454.101078125,
      "d": 436.867640625,
      "v": 56
    },
    {
      "midi": 47,
      "hit": false,
      "t": 454.101078125,
      "d": 436.867640625,
      "v": 67
    },
    {
      "midi": 40,
      "hit": false,
      "t": 891.3995546875,
      "d": 436.86764062500004,
      "v": 58
    },
    {
      "midi": 47,
      "hit": false,
      "t": 891.3995546875,
      "d": 436.86764062500004,
      "v": 69
    },
    {
      "midi": 40,
      "hit": false,
      "t": 1328.69803125,
      "d": 204.2162343750001,
      "v": 56
    },
    {
      "midi": 47,
      "hit": false,
      "t": 1328.69803125,
      "d": 204.2162343750001,
      "v": 71
    },
    {
      "midi": 41,
      "hit": false,
      "t": 1546.2701796875,
      "d": 205.07790625000007,
      "v": 56
    },
    {
      "midi": 48,
      "hit": false,
      "t": 1546.2701796875,
      "d": 205.07790625000007,
      "v": 70
    },
    {
      "midi": 40,
      "hit": false,
      "t": 1766.42734375,
      "d": 451.94689843749984,
      "v": 60
    },
    {
      "midi": 47,
      "hit": false,
      "t": 1766.42734375,
      "d": 451.94689843749984,
      "v": 75
    },
    {
      "midi": 40,
      "hit": false,
      "t": 2218.805078125,
      "d": 204.2162343750001,
      "v": 56
    },
    {
      "midi": 47,
      "hit": false,
      "t": 2218.805078125,
      "d": 204.2162343750001,
      "v": 71
    },
    {
      "midi": 41,
      "hit": false,
      "t": 2436.3772265625,
      "d": 206.3704140625,
      "v": 56
    },
    {
      "midi": 48,
      "hit": false,
      "t": 2436.3772265625,
      "d": 206.3704140625,
      "v": 70
    },
    {
      "midi": 40,
      "hit": false,
      "t": 2656.1035546874996,
      "d": 206.3704140625,
      "v": 58
    },
    {
      "midi": 47,
      "hit": false,
      "t": 2656.1035546874996,
      "d": 206.3704140625,
      "v": 73
    },
    {
      "midi": 43,
      "hit": false,
      "t": 2875.8298828124994,
      "d": 204.2162343750001,
      "v": 56
    },
    {
      "midi": 50,
      "hit": false,
      "t": 2875.8298828124994,
      "d": 204.2162343750001,
      "v": 70
    },
    {
      "midi": 40,
      "hit": false,
      "t": 3093.4020312499993,
      "d": 204.2162343750001,
      "v": 56
    },
    {
      "midi": 47,
      "hit": false,
      "t": 3093.4020312499993,
      "d": 204.2162343750001,
      "v": 71
    },
    {
      "midi": 41,
      "hit": false,
      "t": 3310.974179687499,
      "d": 205.07790625000007,
      "v": 56
    },
    {
      "midi": 48,
      "hit": false,
      "t": 3310.974179687499,
      "d": 205.07790625000007,
      "v": 70
    },
    {
      "midi": 64,
      "hit": false,
      "t": 3531.1313437499994,
      "d": 451.94689843749984,
      "v": 61
    },
    {
      "midi": 66,
      "hit": false,
      "t": 3531.1313437499994,
      "d": 451.94689843749984,
      "v": 61
    },
    {
      "midi": 71,
      "hit": false,
      "t": 3531.1313437499994,
      "d": 451.94689843749984,
      "v": 61
    },
    {
      "midi": 76,
      "hit": false,
      "t": 3531.1313437499994,
      "d": 451.94689843749984,
      "v": 75
    },
    {
      "midi": 40,
      "hit": false,
      "t": 3531.1313437499994,
      "d": 451.94689843749984,
      "v": 60
    },
    {
      "midi": 47,
      "hit": false,
      "t": 3531.1313437499994,
      "d": 451.94689843749984,
      "v": 75
    },
    {
      "midi": 40,
      "hit": false,
      "t": 3983.509078124999,
      "d": 436.8676406249997,
      "v": 56
    },
    {
      "midi": 47,
      "hit": false,
      "t": 3983.509078124999,
      "d": 436.8676406249997,
      "v": 67
    },
    {
      "midi": 40,
      "hit": false,
      "t": 4420.807554687499,
      "d": 436.8676406249997,
      "v": 58
    },
    {
      "midi": 47,
      "hit": false,
      "t": 4420.807554687499,
      "d": 436.8676406249997,
      "v": 69
    },
    {
      "midi": 40,
      "hit": false,
      "t": 4858.1060312499985,
      "d": 204.21623437499966,
      "v": 56
    },
    {
      "midi": 47,
      "hit": false,
      "t": 4858.1060312499985,
      "d": 204.21623437499966,
      "v": 71
    },
    {
      "midi": 41,
      "hit": false,
      "t": 5075.678179687498,
      "d": 205.07790624999961,
      "v": 56
    },
    {
      "midi": 48,
      "hit": false,
      "t": 5075.678179687498,
      "d": 205.07790624999961,
      "v": 70
    },
    {
      "midi": 40,
      "hit": false,
      "t": 5295.835343749998,
      "d": 451.94689843749984,
      "v": 60
    },
    {
      "midi": 47,
      "hit": false,
      "t": 5295.835343749998,
      "d": 451.94689843749984,
      "v": 75
    },
    {
      "midi": 40,
      "hit": false,
      "t": 5748.213078124998,
      "d": 204.21623437499966,
      "v": 56
    },
    {
      "midi": 47,
      "hit": false,
      "t": 5748.213078124998,
      "d": 204.21623437499966,
      "v": 71
    },
    {
      "midi": 41,
      "hit": false,
      "t": 5965.785226562498,
      "d": 206.37041406250046,
      "v": 56
    },
    {
      "midi": 48,
      "hit": false,
      "t": 5965.785226562498,
      "d": 206.37041406250046,
      "v": 70
    },
    {
      "midi": 40,
      "hit": false,
      "t": 6185.511554687499,
      "d": 206.37041406249955,
      "v": 58
    },
    {
      "midi": 47,
      "hit": false,
      "t": 6185.511554687499,
      "d": 206.37041406249955,
      "v": 73
    },
    {
      "midi": 43,
      "hit": false,
      "t": 6405.237882812498,
      "d": 204.21623437499966,
      "v": 56
    },
    {
      "midi": 50,
      "hit": false,
      "t": 6405.237882812498,
      "d": 204.21623437499966,
      "v": 70
    },
    {
      "midi": 40,
      "hit": false,
      "t": 6622.810031249998,
      "d": 204.21623437499966,
      "v": 56
    },
    {
      "midi": 47,
      "hit": false,
      "t": 6622.810031249998,
      "d": 204.21623437499966,
      "v": 71
    },
    {
      "midi": 41,
      "hit": false,
      "t": 6840.382179687498,
      "d": 205.07790624999961,
      "v": 56
    },
    {
      "midi": 48,
      "hit": false,
      "t": 6840.382179687498,
      "d": 205.07790624999961,
      "v": 70
    },
    {
      "midi": 40,
      "hit": false,
      "t": 7060.539343749998,
      "d": 451.94689843749984,
      "v": 60
    },
    {
      "midi": 47,
      "hit": false,
      "t": 7060.539343749998,
      "d": 451.94689843749984,
      "v": 75
    },
    {
      "midi": 76,
      "hit": false,
      "t": 7294.052421874998,
      "d": 86.59802343750016,
      "v": 52
    },
    {
      "midi": 76,
      "hit": false,
      "t": 7401.330570312498,
      "d": 117.6182109374995,
      "v": 52
    },
    {
      "midi": 83,
      "hit": false,
      "t": 7512.917078124998,
      "d": 204.21623437499966,
      "v": 65
    },
    {
      "midi": 40,
      "hit": false,
      "t": 7512.917078124998,
      "d": 436.8676406250006,
      "v": 56
    },
    {
      "midi": 47,
      "hit": false,
      "t": 7512.917078124998,
      "d": 436.8676406250006,
      "v": 67
    },
    {
      "midi": 76,
      "hit": false,
      "t": 7730.489226562498,
      "d": 206.37041406250046,
      "v": 64
    },
    {
      "midi": 81,
      "hit": false,
      "t": 7950.215554687498,
      "d": 206.37041406249955,
      "v": 67
    },
    {
      "midi": 40,
      "hit": false,
      "t": 7950.215554687498,
      "d": 436.8676406249997,
      "v": 58
    },
    {
      "midi": 47,
      "hit": false,
      "t": 7950.215554687498,
      "d": 436.8676406249997,
      "v": 69
    },
    {
      "midi": 74,
      "hit": false,
      "t": 8169.941882812498,
      "d": 204.21623437500057,
      "v": 64
    },
    {
      "midi": 79,
      "hit": false,
      "t": 8387.514031249999,
      "d": 204.21623437500057,
      "v": 65
    },
    {
      "midi": 40,
      "hit": false,
      "t": 8387.514031249999,
      "d": 435.57513281250067,
      "v": 56
    },
    {
      "midi": 47,
      "hit": false,
      "t": 8387.514031249999,
      "d": 435.57513281250067,
      "v": 67
    },
    {
      "midi": 72,
      "hit": false,
      "t": 8605.0861796875,
      "d": 205.07790625000052,
      "v": 64
    },
    {
      "midi": 71,
      "hit": false,
      "t": 8825.24334375,
      "d": 220.15716406250067,
      "v": 69
    },
    {
      "midi": 40,
      "hit": false,
      "t": 8825.24334375,
      "d": 451.94689843750166,
      "v": 60
    },
    {
      "midi": 47,
      "hit": false,
      "t": 8825.24334375,
      "d": 451.94689843750166,
      "v": 71
    },
    {
      "midi": 64,
      "hit": false,
      "t": 9058.756421875001,
      "d": 86.59802343750016,
      "v": 52
    },
    {
      "midi": 64,
      "hit": false,
      "t": 9166.034570312502,
      "d": 90.90638281249994,
      "v": 52
    },
    {
      "midi": 64,
      "hit": false,
      "t": 9277.621078125003,
      "d": 117.18737499999952,
      "v": 53
    },
    {
      "midi": 40,
      "hit": false,
      "t": 9277.621078125003,
      "d": 436.8676406249997,
      "v": 56
    },
    {
      "midi": 47,
      "hit": false,
      "t": 9277.621078125003,
      "d": 436.8676406249997,
      "v": 67
    },
    {
      "midi": 71,
      "hit": false,
      "t": 9388.776750000003,
      "d": 199.90787499999897,
      "v": 64
    },
    {
      "midi": 64,
      "hit": false,
      "t": 9602.040539062502,
      "d": 212.83295312500195,
      "v": 64
    },
    {
      "midi": 40,
      "hit": false,
      "t": 9714.919554687503,
      "d": 436.8676406250015,
      "v": 58
    },
    {
      "midi": 47,
      "hit": false,
      "t": 9714.919554687503,
      "d": 436.8676406250015,
      "v": 69
    },
    {
      "midi": 69,
      "hit": false,
      "t": 9828.229406250004,
      "d": 199.9078750000008,
      "v": 64
    },
    {
      "midi": 62,
      "hit": false,
      "t": 10041.493195312505,
      "d": 208.09375781250128,
      "v": 64
    },
    {
      "midi": 40,
      "hit": false,
      "t": 10152.218031250006,
      "d": 204.21623437500057,
      "v": 56
    },
    {
      "midi": 47,
      "hit": false,
      "t": 10152.218031250006,
      "d": 204.21623437500057,
      "v": 71
    },
    {
      "midi": 67,
      "hit": false,
      "t": 10262.942867187507,
      "d": 200.33871093749985,
      "v": 64
    },
    {
      "midi": 41,
      "hit": false,
      "t": 10369.790179687507,
      "d": 205.07790625000052,
      "v": 56
    },
    {
      "midi": 48,
      "hit": false,
      "t": 10369.790179687507,
      "d": 205.07790625000052,
      "v": 70
    },
    {
      "midi": 60,
      "hit": false,
      "t": 10476.637492187507,
      "d": 104.69313281250106,
      "v": 64
    },
    {
      "midi": 59,
      "hit": false,
      "t": 10589.947343750007,
      "d": 451.94689843749984,
      "v": 69
    },
    {
      "midi": 40,
      "hit": false,
      "t": 10589.947343750007,
      "d": 451.94689843749984,
      "v": 60
    },
    {
      "midi": 47,
      "hit": false,
      "t": 10589.947343750007,
      "d": 451.94689843749984,
      "v": 75
    },
    {
      "midi": 40,
      "hit": false,
      "t": 11042.325078125008,
      "d": 204.21623437500057,
      "v": 56
    },
    {
      "midi": 47,
      "hit": false,
      "t": 11042.325078125008,
      "d": 204.21623437500057,
      "v": 71
    },
    {
      "midi": 41,
      "hit": false,
      "t": 11259.897226562509,
      "d": 206.37041406249955,
      "v": 56
    },
    {
      "midi": 48,
      "hit": false,
      "t": 11259.897226562509,
      "d": 206.37041406249955,
      "v": 70
    },
    {
      "midi": 40,
      "hit": false,
      "t": 11479.623554687509,
      "d": 206.37041406249955,
      "v": 58
    },
    {
      "midi": 47,
      "hit": false,
      "t": 11479.623554687509,
      "d": 206.37041406249955,
      "v": 73
    },
    {
      "midi": 43,
      "hit": false,
      "t": 11699.349882812508,
      "d": 204.21623437500057,
      "v": 56
    },
    {
      "midi": 50,
      "hit": false,
      "t": 11699.349882812508,
      "d": 204.21623437500057,
      "v": 70
    },
    {
      "midi": 40,
      "hit": false,
      "t": 11916.92203125001,
      "d": 204.21623437500057,
      "v": 56
    },
    {
      "midi": 47,
      "hit": false,
      "t": 11916.92203125001,
      "d": 204.21623437500057,
      "v": 71
    },
    {
      "midi": 41,
      "hit": false,
      "t": 12134.49417968751,
      "d": 205.07790625000052,
      "v": 56
    },
    {
      "midi": 48,
      "hit": false,
      "t": 12134.49417968751,
      "d": 205.07790625000052,
      "v": 70
    },
    {
      "midi": 40,
      "hit": false,
      "t": 12354.65134375001,
      "d": 451.94689843750166,
      "v": 60
    },
    {
      "midi": 47,
      "hit": false,
      "t": 12354.65134375001,
      "d": 451.94689843750166,
      "v": 75
    },
    {
      "midi": 76,
      "hit": false,
      "t": 12588.164421875012,
      "d": 86.59802343750016,
      "v": 52
    },
    {
      "midi": 76,
      "hit": false,
      "t": 12695.442570312513,
      "d": 117.61821093750041,
      "v": 52
    },
    {
      "midi": 83,
      "hit": false,
      "t": 12807.029078125013,
      "d": 204.21623437500057,
      "v": 65
    },
    {
      "midi": 40,
      "hit": false,
      "t": 12807.029078125013,
      "d": 436.8676406249997,
      "v": 56
    },
    {
      "midi": 47,
      "hit": false,
      "t": 12807.029078125013,
      "d": 436.8676406249997,
      "v": 67
    },
    {
      "midi": 76,
      "hit": false,
      "t": 13024.601226562514,
      "d": 206.37041406249955,
      "v": 64
    },
    {
      "midi": 86,
      "hit": false,
      "t": 13244.327554687514,
      "d": 206.37041406249955,
      "v": 67
    },
    {
      "midi": 40,
      "hit": false,
      "t": 13244.327554687514,
      "d": 436.8676406249997,
      "v": 58
    },
    {
      "midi": 47,
      "hit": false,
      "t": 13244.327554687514,
      "d": 436.8676406249997,
      "v": 69
    },
    {
      "midi": 81,
      "hit": false,
      "t": 13464.053882812514,
      "d": 204.21623437500057,
      "v": 64
    },
    {
      "midi": 81,
      "hit": false,
      "t": 13681.626031250014,
      "d": 204.21623437500057,
      "v": 65
    },
    {
      "midi": 40,
      "hit": false,
      "t": 13681.626031250014,
      "d": 435.57513281250067,
      "v": 56
    },
    {
      "midi": 47,
      "hit": false,
      "t": 13681.626031250014,
      "d": 435.57513281250067,
      "v": 67
    },
    {
      "midi": 83,
      "hit": false,
      "t": 13899.198179687515,
      "d": 205.07790625000052,
      "v": 64
    },
    {
      "midi": 76,
      "hit": false,
      "t": 14119.355343750016,
      "d": 220.15716406250067,
      "v": 69
    },
    {
      "midi": 40,
      "hit": false,
      "t": 14119.355343750016,
      "d": 451.94689843750166,
      "v": 60
    },
    {
      "midi": 47,
      "hit": false,
      "t": 14119.355343750016,
      "d": 451.94689843750166,
      "v": 71
    },
    {
      "midi": 64,
      "hit": false,
      "t": 14352.868421875017,
      "d": 86.59802343750016,
      "v": 52
    },
    {
      "midi": 64,
      "hit": false,
      "t": 14460.146570312518,
      "d": 90.90638281249994,
      "v": 52
    },
    {
      "midi": 64,
      "hit": false,
      "t": 14571.733078125018,
      "d": 117.18737499999952,
      "v": 53
    },
    {
      "midi": 40,
      "hit": false,
      "t": 14571.733078125018,
      "d": 436.8676406249997,
      "v": 56
    },
    {
      "midi": 47,
      "hit": false,
      "t": 14571.733078125018,
      "d": 436.8676406249997,
      "v": 67
    },
    {
      "midi": 71,
      "hit": false,
      "t": 14682.888750000018,
      "d": 199.90787499999897,
      "v": 64
    },
    {
      "midi": 64,
      "hit": false,
      "t": 14896.152539062517,
      "d": 212.83295312500195,
      "v": 64
    },
    {
      "midi": 40,
      "hit": false,
      "t": 15009.031554687519,
      "d": 436.8676406250015,
      "v": 58
    },
    {
      "midi": 47,
      "hit": false,
      "t": 15009.031554687519,
      "d": 436.8676406250015,
      "v": 69
    },
    {
      "midi": 69,
      "hit": false,
      "t": 15122.34140625002,
      "d": 199.9078750000008,
      "v": 64
    },
    {
      "midi": 62,
      "hit": false,
      "t": 15335.60519531252,
      "d": 103.83146093749929,
      "v": 64
    },
    {
      "midi": 64,
      "hit": false,
      "t": 15446.330031250021,
      "d": 204.21623437500057,
      "v": 65
    },
    {
      "midi": 40,
      "hit": false,
      "t": 15446.330031250021,
      "d": 435.57513281250067,
      "v": 56
    },
    {
      "midi": 47,
      "hit": false,
      "t": 15446.330031250021,
      "d": 435.57513281250067,
      "v": 67
    },
    {
      "midi": 69,
      "hit": false,
      "t": 15663.902179687522,
      "d": 205.07790625000052,
      "v": 64
    },
    {
      "midi": 41,
      "hit": false,
      "t": 15882.336000000023,
      "d": 441.1759999999995,
      "v": 64
    },
    {
      "midi": 48,
      "hit": false,
      "t": 15882.336000000023,
      "d": 441.1759999999995,
      "v": 64
    },
    {
      "midi": 64,
      "hit": false,
      "t": 15882.336000000023,
      "d": 882.3520000000008,
      "v": 64
    },
    {
      "midi": 71,
      "hit": false,
      "t": 15882.336000000023,
      "d": 882.3520000000008,
      "v": 64
    },
    {
      "midi": 41,
      "hit": false,
      "t": 16323.512000000022,
      "d": 441.1760000000013,
      "v": 64
    },
    {
      "midi": 48,
      "hit": false,
      "t": 16323.512000000022,
      "d": 441.1760000000013,
      "v": 64
    },
    {
      "midi": 41,
      "hit": false,
      "t": 16764.688000000024,
      "d": 441.1759999999995,
      "v": 64
    },
    {
      "midi": 48,
      "hit": false,
      "t": 16764.688000000024,
      "d": 441.1759999999995,
      "v": 64
    },
    {
      "midi": 62,
      "hit": false,
      "t": 16764.688000000024,
      "d": 882.351999999999,
      "v": 64
    },
    {
      "midi": 69,
      "hit": false,
      "t": 16764.688000000024,
      "d": 882.351999999999,
      "v": 64
    },
    {
      "midi": 41,
      "hit": false,
      "t": 17205.864000000023,
      "d": 441.1759999999995,
      "v": 64
    },
    {
      "midi": 48,
      "hit": false,
      "t": 17205.864000000023,
      "d": 441.1759999999995,
      "v": 64
    },
    {
      "midi": 41,
      "hit": false,
      "t": 17647.040000000023,
      "d": 441.1759999999995,
      "v": 64
    },
    {
      "midi": 48,
      "hit": false,
      "t": 17647.040000000023,
      "d": 441.1759999999995,
      "v": 64
    },
    {
      "midi": 67,
      "hit": false,
      "t": 17647.040000000023,
      "d": 882.351999999999,
      "v": 64
    },
    {
      "midi": 72,
      "hit": false,
      "t": 17647.040000000023,
      "d": 882.351999999999,
      "v": 64
    },
    {
      "midi": 41,
      "hit": false,
      "t": 18088.216000000022,
      "d": 441.1759999999995,
      "v": 64
    },
    {
      "midi": 48,
      "hit": false,
      "t": 18088.216000000022,
      "d": 441.1759999999995,
      "v": 64
    },
    {
      "midi": 41,
      "hit": false,
      "t": 18529.39200000002,
      "d": 441.1759999999995,
      "v": 64
    },
    {
      "midi": 48,
      "hit": false,
      "t": 18529.39200000002,
      "d": 441.1759999999995,
      "v": 64
    },
    {
      "midi": 69,
      "hit": false,
      "t": 18529.39200000002,
      "d": 882.351999999999,
      "v": 64
    },
    {
      "midi": 74,
      "hit": false,
      "t": 18529.39200000002,
      "d": 882.351999999999,
      "v": 64
    },
    {
      "midi": 41,
      "hit": false,
      "t": 18970.56800000002,
      "d": 441.1759999999995,
      "v": 64
    },
    {
      "midi": 48,
      "hit": false,
      "t": 18970.56800000002,
      "d": 441.1759999999995,
      "v": 64
    },
    {
      "midi": 40,
      "hit": false,
      "t": 19411.74400000002,
      "d": 441.1759999999995,
      "v": 64
    },
    {
      "midi": 47,
      "hit": false,
      "t": 19411.74400000002,
      "d": 441.1759999999995,
      "v": 64
    },
    {
      "midi": 66,
      "hit": false,
      "t": 19411.74400000002,
      "d": 1764.703999999998,
      "v": 64
    },
    {
      "midi": 71,
      "hit": false,
      "t": 19411.74400000002,
      "d": 1764.703999999998,
      "v": 64
    },
    {
      "midi": 40,
      "hit": false,
      "t": 19852.92000000002,
      "d": 441.1759999999995,
      "v": 64
    },
    {
      "midi": 47,
      "hit": false,
      "t": 19852.92000000002,
      "d": 441.1759999999995,
      "v": 64
    },
    {
      "midi": 40,
      "hit": false,
      "t": 20294.09600000002,
      "d": 441.1759999999995,
      "v": 64
    },
    {
      "midi": 47,
      "hit": false,
      "t": 20294.09600000002,
      "d": 441.1759999999995,
      "v": 64
    },
    {
      "midi": 40,
      "hit": false,
      "t": 20735.27200000002,
      "d": 220.58799999999974,
      "v": 64
    },
    {
      "midi": 47,
      "hit": false,
      "t": 20735.27200000002,
      "d": 220.58799999999974,
      "v": 64
    },
    {
      "midi": 41,
      "hit": false,
      "t": 20955.86000000002,
      "d": 220.58799999999974,
      "v": 64
    },
    {
      "midi": 48,
      "hit": false,
      "t": 20955.86000000002,
      "d": 220.58799999999974,
      "v": 64
    },
    {
      "midi": 40,
      "hit": false,
      "t": 21176.44800000002,
      "d": 441.1759999999995,
      "v": 64
    },
    {
      "midi": 47,
      "hit": false,
      "t": 21176.44800000002,
      "d": 441.1759999999995,
      "v": 64
    },
    {
      "midi": 40,
      "hit": false,
      "t": 21617.624000000018,
      "d": 220.58799999999974,
      "v": 64
    },
    {
      "midi": 47,
      "hit": false,
      "t": 21617.624000000018,
      "d": 220.58799999999974,
      "v": 64
    },
    {
      "midi": 41,
      "hit": false,
      "t": 21838.212000000018,
      "d": 220.58799999999974,
      "v": 64
    },
    {
      "midi": 48,
      "hit": false,
      "t": 21838.212000000018,
      "d": 220.58799999999974,
      "v": 64
    },
    {
      "midi": 40,
      "hit": false,
      "t": 22058.800000000017,
      "d": 220.58799999999974,
      "v": 64
    },
    {
      "midi": 47,
      "hit": false,
      "t": 22058.800000000017,
      "d": 220.58799999999974,
      "v": 64
    },
    {
      "midi": 43,
      "hit": false,
      "t": 22279.388000000017,
      "d": 220.58799999999974,
      "v": 64
    },
    {
      "midi": 50,
      "hit": false,
      "t": 22279.388000000017,
      "d": 220.58799999999974,
      "v": 64
    },
    {
      "midi": 40,
      "hit": false,
      "t": 22499.976000000017,
      "d": 220.58799999999974,
      "v": 64
    },
    {
      "midi": 47,
      "hit": false,
      "t": 22499.976000000017,
      "d": 220.58799999999974,
      "v": 64
    },
    {
      "midi": 41,
      "hit": false,
      "t": 22720.564000000017,
      "d": 220.58799999999974,
      "v": 64
    },
    {
      "midi": 48,
      "hit": false,
      "t": 22720.564000000017,
      "d": 220.58799999999974,
      "v": 64
    },
    {
      "midi": 40,
      "hit": false,
      "t": 22941.152000000016,
      "d": 441.1760000000031,
      "v": 64
    },
    {
      "midi": 47,
      "hit": false,
      "t": 22941.152000000016,
      "d": 441.1760000000031,
      "v": 64
    },
    {
      "midi": 76,
      "hit": false,
      "t": 23161.740000000016,
      "d": 110.29400000000169,
      "v": 64
    },
    {
      "midi": 76,
      "hit": false,
      "t": 23272.034000000018,
      "d": 110.29400000000169,
      "v": 64
    },
    {
      "midi": 83,
      "hit": false,
      "t": 23382.32800000002,
      "d": 220.58799999999974,
      "v": 64
    },
    {
      "midi": 40,
      "hit": false,
      "t": 23382.32800000002,
      "d": 441.1759999999995,
      "v": 64
    },
    {
      "midi": 47,
      "hit": false,
      "t": 23382.32800000002,
      "d": 441.1759999999995,
      "v": 64
    },
    {
      "midi": 76,
      "hit": false,
      "t": 23602.91600000002,
      "d": 220.58799999999974,
      "v": 64
    },
    {
      "midi": 81,
      "hit": false,
      "t": 23823.50400000002,
      "d": 220.58799999999974,
      "v": 64
    },
    {
      "midi": 40,
      "hit": false,
      "t": 23823.50400000002,
      "d": 441.1759999999995,
      "v": 64
    },
    {
      "midi": 47,
      "hit": false,
      "t": 23823.50400000002,
      "d": 441.1759999999995,
      "v": 64
    },
    {
      "midi": 74,
      "hit": false,
      "t": 24044.09200000002,
      "d": 220.58799999999974,
      "v": 64
    },
    {
      "midi": 79,
      "hit": false,
      "t": 24264.68000000002,
      "d": 220.58799999999974,
      "v": 64
    },
    {
      "midi": 40,
      "hit": false,
      "t": 24264.68000000002,
      "d": 441.1759999999995,
      "v": 64
    },
    {
      "midi": 47,
      "hit": false,
      "t": 24264.68000000002,
      "d": 441.1759999999995,
      "v": 64
    },
    {
      "midi": 72,
      "hit": false,
      "t": 24485.26800000002,
      "d": 220.58799999999974,
      "v": 64
    },
    {
      "midi": 71,
      "hit": false,
      "t": 24705.856000000018,
      "d": 220.58799999999974,
      "v": 64
    },
    {
      "midi": 40,
      "hit": false,
      "t": 24705.856000000018,
      "d": 441.1760000000031,
      "v": 64
    },
    {
      "midi": 47,
      "hit": false,
      "t": 24705.856000000018,
      "d": 441.1760000000031,
      "v": 64
    },
    {
      "midi": 64,
      "hit": false,
      "t": 24926.444000000018,
      "d": 110.29400000000169,
      "v": 64
    },
    {
      "midi": 64,
      "hit": false,
      "t": 25036.73800000002,
      "d": 110.29400000000169,
      "v": 64
    },
    {
      "midi": 64,
      "hit": false,
      "t": 25147.03200000002,
      "d": 110.29400000000169,
      "v": 64
    },
    {
      "midi": 40,
      "hit": false,
      "t": 25147.03200000002,
      "d": 441.1760000000031,
      "v": 64
    },
    {
      "midi": 47,
      "hit": false,
      "t": 25147.03200000002,
      "d": 441.1760000000031,
      "v": 64
    },
    {
      "midi": 71,
      "hit": false,
      "t": 25257.326000000023,
      "d": 220.58799999999974,
      "v": 64
    },
    {
      "midi": 64,
      "hit": false,
      "t": 25477.914000000022,
      "d": 220.58800000000338,
      "v": 64
    },
    {
      "midi": 40,
      "hit": false,
      "t": 25588.208000000024,
      "d": 441.1760000000031,
      "v": 64
    },
    {
      "midi": 47,
      "hit": false,
      "t": 25588.208000000024,
      "d": 441.1760000000031,
      "v": 64
    },
    {
      "midi": 69,
      "hit": false,
      "t": 25698.502000000026,
      "d": 220.58799999999974,
      "v": 64
    },
    {
      "midi": 62,
      "hit": false,
      "t": 25919.090000000026,
      "d": 220.58800000000338,
      "v": 64
    },
    {
      "midi": 40,
      "hit": false,
      "t": 26029.384000000027,
      "d": 441.1760000000031,
      "v": 64
    },
    {
      "midi": 47,
      "hit": false,
      "t": 26029.384000000027,
      "d": 441.1760000000031,
      "v": 64
    },
    {
      "midi": 67,
      "hit": false,
      "t": 26139.67800000003,
      "d": 110.29400000000169,
      "v": 64
    },
    {
      "midi": 60,
      "hit": false,
      "t": 26249.97200000003,
      "d": 220.58799999999974,
      "v": 64
    },
    {
      "midi": 59,
      "hit": false,
      "t": 26470.56000000003,
      "d": 220.58799999999974,
      "v": 64
    },
    {
      "midi": 40,
      "hit": false,
      "t": 26470.56000000003,
      "d": 441.1760000000031,
      "v": 64
    },
    {
      "midi": 47,
      "hit": false,
      "t": 26470.56000000003,
      "d": 441.1760000000031,
      "v": 64
    },
    {
      "midi": 64,
      "hit": false,
      "t": 26691.14800000003,
      "d": 110.29400000000169,
      "v": 64
    },
    {
      "midi": 64,
      "hit": false,
      "t": 26801.442000000032,
      "d": 110.29400000000169,
      "v": 64
    },
    {
      "midi": 71,
      "hit": false,
      "t": 26911.736000000034,
      "d": 220.58799999999974,
      "v": 64
    },
    {
      "midi": 40,
      "hit": false,
      "t": 26911.736000000034,
      "d": 220.58799999999974,
      "v": 64
    },
    {
      "midi": 47,
      "hit": false,
      "t": 26911.736000000034,
      "d": 220.58799999999974,
      "v": 64
    },
    {
      "midi": 64,
      "hit": false,
      "t": 27132.324000000033,
      "d": 220.58799999999974,
      "v": 64
    },
    {
      "midi": 41,
      "hit": false,
      "t": 27132.324000000033,
      "d": 220.58799999999974,
      "v": 64
    },
    {
      "midi": 48,
      "hit": false,
      "t": 27132.324000000033,
      "d": 220.58799999999974,
      "v": 64
    },
    {
      "midi": 69,
      "hit": false,
      "t": 27352.912000000033,
      "d": 220.58799999999974,
      "v": 64
    },
    {
      "midi": 40,
      "hit": false,
      "t": 27352.912000000033,
      "d": 220.58799999999974,
      "v": 64
    },
    {
      "midi": 47,
      "hit": false,
      "t": 27352.912000000033,
      "d": 220.58799999999974,
      "v": 64
    },
    {
      "midi": 62,
      "hit": false,
      "t": 27573.500000000033,
      "d": 220.58799999999974,
      "v": 64
    },
    {
      "midi": 43,
      "hit": false,
      "t": 27573.500000000033,
      "d": 220.58799999999974,
      "v": 64
    },
    {
      "midi": 50,
      "hit": false,
      "t": 27573.500000000033,
      "d": 220.58799999999974,
      "v": 64
    },
    {
      "midi": 64,
      "hit": false,
      "t": 27794.088000000032,
      "d": 220.58799999999974,
      "v": 64
    },
    {
      "midi": 40,
      "hit": false,
      "t": 27794.088000000032,
      "d": 220.58799999999974,
      "v": 64
    },
    {
      "midi": 47,
      "hit": false,
      "t": 27794.088000000032,
      "d": 220.58799999999974,
      "v": 64
    },
    {
      "midi": 69,
      "hit": false,
      "t": 28014.676000000032,
      "d": 220.58799999999974,
      "v": 64
    },
    {
      "midi": 41,
      "hit": false,
      "t": 28014.676000000032,
      "d": 220.58799999999974,
      "v": 64
    },
    {
      "midi": 48,
      "hit": false,
      "t": 28014.676000000032,
      "d": 220.58799999999974,
      "v": 64
    },
    {
      "midi": 41,
      "hit": false,
      "t": 28235.264000000032,
      "d": 441.1759999999995,
      "v": 64
    },
    {
      "midi": 48,
      "hit": false,
      "t": 28235.264000000032,
      "d": 441.1759999999995,
      "v": 64
    },
    {
      "midi": 64,
      "hit": false,
      "t": 28235.264000000032,
      "d": 882.351999999999,
      "v": 64
    },
    {
      "midi": 71,
      "hit": false,
      "t": 28235.264000000032,
      "d": 882.351999999999,
      "v": 64
    },
    {
      "midi": 41,
      "hit": false,
      "t": 28676.44000000003,
      "d": 441.1759999999995,
      "v": 64
    },
    {
      "midi": 48,
      "hit": false,
      "t": 28676.44000000003,
      "d": 441.1759999999995,
      "v": 64
    },
    {
      "midi": 41,
      "hit": false,
      "t": 29117.61600000003,
      "d": 441.1759999999995,
      "v": 64
    },
    {
      "midi": 48,
      "hit": false,
      "t": 29117.61600000003,
      "d": 441.1759999999995,
      "v": 64
    },
    {
      "midi": 62,
      "hit": false,
      "t": 29117.61600000003,
      "d": 882.351999999999,
      "v": 64
    },
    {
      "midi": 69,
      "hit": false,
      "t": 29117.61600000003,
      "d": 882.351999999999,
      "v": 64
    },
    {
      "midi": 41,
      "hit": false,
      "t": 29558.79200000003,
      "d": 441.1759999999995,
      "v": 64
    },
    {
      "midi": 48,
      "hit": false,
      "t": 29558.79200000003,
      "d": 441.1759999999995,
      "v": 64
    },
    {
      "midi": 41,
      "hit": false,
      "t": 29999.96800000003,
      "d": 441.1759999999995,
      "v": 64
    },
    {
      "midi": 48,
      "hit": false,
      "t": 29999.96800000003,
      "d": 441.1759999999995,
      "v": 64
    },
    {
      "midi": 67,
      "hit": false,
      "t": 29999.96800000003,
      "d": 882.351999999999,
      "v": 64
    },
    {
      "midi": 72,
      "hit": false,
      "t": 29999.96800000003,
      "d": 882.351999999999,
      "v": 64
    },
    {
      "midi": 41,
      "hit": false,
      "t": 30441.14400000003,
      "d": 441.1759999999995,
      "v": 64
    },
    {
      "midi": 48,
      "hit": false,
      "t": 30441.14400000003,
      "d": 441.1759999999995,
      "v": 64
    },
    {
      "midi": 41,
      "hit": false,
      "t": 30882.32000000003,
      "d": 441.1759999999995,
      "v": 64
    },
    {
      "midi": 48,
      "hit": false,
      "t": 30882.32000000003,
      "d": 441.1759999999995,
      "v": 64
    },
    {
      "midi": 69,
      "hit": false,
      "t": 30882.32000000003,
      "d": 882.351999999999,
      "v": 64
    },
    {
      "midi": 74,
      "hit": false,
      "t": 30882.32000000003,
      "d": 882.351999999999,
      "v": 64
    },
    {
      "midi": 41,
      "hit": false,
      "t": 31323.49600000003,
      "d": 441.1759999999995,
      "v": 64
    },
    {
      "midi": 48,
      "hit": false,
      "t": 31323.49600000003,
      "d": 441.1759999999995,
      "v": 64
    },
    {
      "midi": 40,
      "hit": false,
      "t": 31764.672000000028,
      "d": 441.1759999999995,
      "v": 64
    },
    {
      "midi": 47,
      "hit": false,
      "t": 31764.672000000028,
      "d": 441.1759999999995,
      "v": 64
    },
    {
      "midi": 66,
      "hit": false,
      "t": 31764.672000000028,
      "d": 1764.7040000000052,
      "v": 64
    },
    {
      "midi": 71,
      "hit": false,
      "t": 31764.672000000028,
      "d": 1764.7040000000052,
      "v": 64
    },
    {
      "midi": 76,
      "hit": false,
      "t": 31764.672000000028,
      "d": 1764.7040000000052,
      "v": 64
    },
    {
      "midi": 40,
      "hit": false,
      "t": 32205.848000000027,
      "d": 441.1759999999995,
      "v": 64
    },
    {
      "midi": 47,
      "hit": false,
      "t": 32205.848000000027,
      "d": 441.1759999999995,
      "v": 64
    },
    {
      "midi": 40,
      "hit": false,
      "t": 32647.024000000027,
      "d": 441.1759999999995,
      "v": 64
    },
    {
      "midi": 47,
      "hit": false,
      "t": 32647.024000000027,
      "d": 441.1759999999995,
      "v": 64
    },
    {
      "midi": 40,
      "hit": false,
      "t": 33088.200000000026,
      "d": 220.58800000000338,
      "v": 64
    },
    {
      "midi": 47,
      "hit": false,
      "t": 33088.200000000026,
      "d": 220.58800000000338,
      "v": 64
    },
    {
      "midi": 41,
      "hit": false,
      "t": 33308.78800000003,
      "d": 220.58800000000338,
      "v": 64
    },
    {
      "midi": 48,
      "hit": false,
      "t": 33308.78800000003,
      "d": 220.58800000000338,
      "v": 64
    },
    {
      "midi": 40,
      "hit": false,
      "t": 33529.37600000003,
      "d": 441.1759999999995,
      "v": 64
    },
    {
      "midi": 47,
      "hit": false,
      "t": 33529.37600000003,
      "d": 441.1759999999995,
      "v": 64
    },
    {
      "midi": 40,
      "hit": false,
      "t": 33970.55200000003,
      "d": 220.58800000000338,
      "v": 64
    },
    {
      "midi": 47,
      "hit": false,
      "t": 33970.55200000003,
      "d": 220.58800000000338,
      "v": 64
    },
    {
      "midi": 41,
      "hit": false,
      "t": 34191.140000000036,
      "d": 220.58800000000338,
      "v": 64
    },
    {
      "midi": 48,
      "hit": false,
      "t": 34191.140000000036,
      "d": 220.58800000000338,
      "v": 64
    },
    {
      "midi": 40,
      "hit": false,
      "t": 34411.72800000004,
      "d": 220.58800000000338,
      "v": 64
    },
    {
      "midi": 47,
      "hit": false,
      "t": 34411.72800000004,
      "d": 220.58800000000338,
      "v": 64
    },
    {
      "midi": 43,
      "hit": false,
      "t": 34632.31600000004,
      "d": 220.58800000000338,
      "v": 64
    },
    {
      "midi": 50,
      "hit": false,
      "t": 34632.31600000004,
      "d": 220.58800000000338,
      "v": 64
    },
    {
      "midi": 40,
      "hit": false,
      "t": 34852.904000000046,
      "d": 220.58800000000338,
      "v": 64
    },
    {
      "midi": 47,
      "hit": false,
      "t": 34852.904000000046,
      "d": 220.58800000000338,
      "v": 64
    },
    {
      "midi": 41,
      "hit": false,
      "t": 35073.49200000005,
      "d": 220.58800000000338,
      "v": 64
    },
    {
      "midi": 48,
      "hit": false,
      "t": 35073.49200000005,
      "d": 220.58800000000338,
      "v": 64
    },
    {
      "midi": 37,
      "hit": false,
      "t": 35294.08000000005,
      "d": 882.3520000000135,
      "v": 64
    },
    {
      "midi": 64,
      "hit": false,
      "t": 35514.668000000056,
      "d": 220.58800000000338,
      "v": 64
    },
    {
      "midi": 63,
      "hit": false,
      "t": 35735.25600000006,
      "d": 220.58800000000338,
      "v": 64
    },
    {
      "midi": 56,
      "hit": false,
      "t": 35955.84400000006,
      "d": 220.58800000000338,
      "v": 64
    },
    {
      "midi": 67,
      "hit": false,
      "t": 36176.432000000066,
      "d": 220.58800000000338,
      "v": 64
    },
    {
      "midi": 40,
      "hit": false,
      "t": 36176.432000000066,
      "d": 441.17600000000675,
      "v": 64
    },
    {
      "midi": 66,
      "hit": false,
      "t": 36397.02000000007,
      "d": 220.58800000000338,
      "v": 64
    },
    {
      "midi": 59,
      "hit": false,
      "t": 36617.60800000007,
      "d": 220.58800000000338,
      "v": 64
    },
    {
      "midi": 42,
      "hit": false,
      "t": 36617.60800000007,
      "d": 882.3520000000135,
      "v": 64
    },
    {
      "midi": 69,
      "hit": false,
      "t": 36838.196000000076,
      "d": 220.58800000000338,
      "v": 64
    },
    {
      "midi": 68,
      "hit": false,
      "t": 37058.78400000008,
      "d": 220.58800000000338,
      "v": 64
    },
    {
      "midi": 61,
      "hit": false,
      "t": 37279.37200000008,
      "d": 220.58800000000338,
      "v": 64
    },
    {
      "midi": 70,
      "hit": false,
      "t": 37499.96000000009,
      "d": 220.58800000000338,
      "v": 64
    },
    {
      "midi": 43,
      "hit": false,
      "t": 37499.96000000009,
      "d": 441.17600000000675,
      "v": 64
    },
    {
      "midi": 69,
      "hit": false,
      "t": 37720.54800000009,
      "d": 882.3520000000062,
      "v": 64
    },
    {
      "midi": 42,
      "hit": false,
      "t": 37941.13600000009,
      "d": 882.3520000000062,
      "v": 64
    },
    {
      "midi": 60,
      "hit": false,
      "t": 38823.4880000001,
      "d": 1764.703999999998,
      "v": 64
    },
    {
      "midi": 68,
      "hit": false,
      "t": 38823.4880000001,
      "d": 1764.703999999998,
      "v": 64
    },
    {
      "midi": 42,
      "hit": false,
      "t": 38823.4880000001,
      "d": 1764.703999999998,
      "v": 64
    },
    {
      "midi": 51,
      "hit": false,
      "t": 38823.4880000001,
      "d": 1764.703999999998,
      "v": 64
    },
    {
      "midi": 65,
      "hit": false,
      "t": 40588.1920000001,
      "d": 220.58800000000338,
      "v": 64
    },
    {
      "midi": 67,
      "hit": false,
      "t": 40808.7800000001,
      "d": 220.58800000000338,
      "v": 64
    },
    {
      "midi": 72,
      "hit": false,
      "t": 41029.368000000104,
      "d": 220.58800000000338,
      "v": 64
    },
    {
      "midi": 77,
      "hit": false,
      "t": 41249.95600000011,
      "d": 220.58800000000338,
      "v": 64
    },
    {
      "midi": 79,
      "hit": false,
      "t": 41470.54400000011,
      "d": 220.58800000000338,
      "v": 64
    },
    {
      "midi": 72,
      "hit": false,
      "t": 41691.132000000114,
      "d": 220.58800000000338,
      "v": 64
    },
    {
      "midi": 80,
      "hit": false,
      "t": 41911.72000000012,
      "d": 220.58800000000338,
      "v": 64
    },
    {
      "midi": 72,
      "hit": false,
      "t": 42132.30800000012,
      "d": 220.58800000000338,
      "v": 64
    },
    {
      "midi": 79,
      "hit": false,
      "t": 42352.896000000124,
      "d": 220.58800000000338,
      "v": 64
    },
    {
      "midi": 70,
      "hit": false,
      "t": 42573.48400000013,
      "d": 220.58800000000338,
      "v": 64
    },
    {
      "midi": 77,
      "hit": false,
      "t": 42794.07200000013,
      "d": 220.58800000000338,
      "v": 64
    },
    {
      "midi": 68,
      "hit": false,
      "t": 43014.660000000134,
      "d": 220.58800000000338,
      "v": 64
    },
    {
      "midi": 75,
      "hit": false,
      "t": 43235.24800000014,
      "d": 220.58800000000338,
      "v": 64
    },
    {
      "midi": 67,
      "hit": false,
      "t": 43455.83600000014,
      "d": 220.58800000000338,
      "v": 64
    },
    {
      "midi": 72,
      "hit": false,
      "t": 43676.424000000145,
      "d": 220.58800000000338,
      "v": 64
    },
    {
      "midi": 65,
      "hit": false,
      "t": 43897.01200000015,
      "d": 220.58800000000338,
      "v": 64
    },
    {
      "midi": 65,
      "hit": false,
      "t": 44117.60000000015,
      "d": 220.58800000000338,
      "v": 64
    },
    {
      "midi": 67,
      "hit": false,
      "t": 44338.188000000155,
      "d": 220.58800000000338,
      "v": 64
    },
    {
      "midi": 72,
      "hit": false,
      "t": 44558.77600000016,
      "d": 220.58800000000338,
      "v": 64
    },
    {
      "midi": 77,
      "hit": false,
      "t": 44779.36400000016,
      "d": 220.58800000000338,
      "v": 64
    },
    {
      "midi": 79,
      "hit": false,
      "t": 44999.952000000165,
      "d": 220.58800000000338,
      "v": 64
    },
    {
      "midi": 72,
      "hit": false,
      "t": 45220.54000000017,
      "d": 220.58800000000338,
      "v": 64
    },
    {
      "midi": 80,
      "hit": false,
      "t": 45441.12800000017,
      "d": 220.58800000000338,
      "v": 64
    },
    {
      "midi": 72,
      "hit": false,
      "t": 45661.716000000175,
      "d": 220.58800000000338,
      "v": 64
    },
    {
      "midi": 79,
      "hit": false,
      "t": 45882.30400000018,
      "d": 220.58800000000338,
      "v": 64
    },
    {
      "midi": 70,
      "hit": false,
      "t": 46102.89200000018,
      "d": 220.58800000000338,
      "v": 64
    },
    {
      "midi": 77,
      "hit": false,
      "t": 46323.480000000185,
      "d": 220.58800000000338,
      "v": 64
    },
    {
      "midi": 68,
      "hit": false,
      "t": 46544.06800000019,
      "d": 220.58800000000338,
      "v": 64
    },
    {
      "midi": 75,
      "hit": false,
      "t": 46764.65600000019,
      "d": 220.58800000000338,
      "v": 64
    },
    {
      "midi": 67,
      "hit": false,
      "t": 46985.244000000195,
      "d": 220.58800000000338,
      "v": 64
    },
    {
      "midi": 72,
      "hit": false,
      "t": 47205.8320000002,
      "d": 220.58800000000338,
      "v": 64
    },
    {
      "midi": 65,
      "hit": false,
      "t": 47426.4200000002,
      "d": 220.58800000000338,
      "v": 64
    },
    {
      "midi": 40,
      "hit": false,
      "t": 47647.008000000205,
      "d": 441.1759999999995,
      "v": 64
    },
    {
      "midi": 64,
      "hit": false,
      "t": 47647.008000000205,
      "d": 1985.292000000023,
      "v": 64
    },
    {
      "midi": 40,
      "hit": false,
      "t": 48088.184000000205,
      "d": 220.58800000000338,
      "v": 64
    },
    {
      "midi": 43,
      "hit": false,
      "t": 48308.77200000021,
      "d": 220.58800000000338,
      "v": 64
    },
    {
      "midi": 40,
      "hit": false,
      "t": 48529.36000000021,
      "d": 220.58800000000338,
      "v": 64
    },
    {
      "midi": 45,
      "hit": false,
      "t": 48749.948000000215,
      "d": 220.58800000000338,
      "v": 64
    },
    {
      "midi": 40,
      "hit": false,
      "t": 48970.53600000022,
      "d": 220.58800000000338,
      "v": 64
    },
    {
      "midi": 38,
      "hit": false,
      "t": 49191.12400000022,
      "d": 220.58800000000338,
      "v": 64
    },
    {
      "midi": 40,
      "hit": false,
      "t": 49411.712000000225,
      "d": 441.17600000000675,
      "v": 64
    },
    {
      "midi": 69,
      "hit": false,
      "t": 49632.30000000023,
      "d": 220.58800000000338,
      "v": 64
    },
    {
      "midi": 74,
      "hit": false,
      "t": 49852.88800000023,
      "d": 441.1759999999995,
      "v": 64
    },
    {
      "midi": 40,
      "hit": false,
      "t": 49852.88800000023,
      "d": 441.1759999999995,
      "v": 64
    },
    {
      "midi": 71,
      "hit": false,
      "t": 50294.06400000023,
      "d": 441.1759999999995,
      "v": 64
    },
    {
      "midi": 40,
      "hit": false,
      "t": 50294.06400000023,
      "d": 441.1759999999995,
      "v": 64
    },
    {
      "midi": 72,
      "hit": false,
      "t": 50735.24000000023,
      "d": 441.1759999999995,
      "v": 64
    },
    {
      "midi": 40,
      "hit": false,
      "t": 50735.24000000023,
      "d": 441.1759999999995,
      "v": 64
    },
    {
      "midi": 71,
      "hit": false,
      "t": 51176.41600000023,
      "d": 220.58800000000338,
      "v": 64
    },
    {
      "midi": 40,
      "hit": false,
      "t": 51176.41600000023,
      "d": 441.17600000000675,
      "v": 64
    },
    {
      "midi": 69,
      "hit": false,
      "t": 51397.004000000234,
      "d": 220.58800000000338,
      "v": 64
    },
    {
      "midi": 40,
      "hit": false,
      "t": 51617.59200000024,
      "d": 220.58800000000338,
      "v": 64
    },
    {
      "midi": 71,
      "hit": false,
      "t": 51617.59200000024,
      "d": 1764.7040000000197,
      "v": 64
    },
    {
      "midi": 43,
      "hit": false,
      "t": 51838.18000000024,
      "d": 220.58800000000338,
      "v": 64
    },
    {
      "midi": 40,
      "hit": false,
      "t": 52058.768000000244,
      "d": 220.58800000000338,
      "v": 64
    },
    {
      "midi": 45,
      "hit": false,
      "t": 52279.35600000025,
      "d": 220.58800000000338,
      "v": 64
    },
    {
      "midi": 40,
      "hit": false,
      "t": 52499.94400000025,
      "d": 220.58800000000338,
      "v": 64
    },
    {
      "midi": 38,
      "hit": false,
      "t": 52720.532000000254,
      "d": 220.58800000000338,
      "v": 64
    },
    {
      "midi": 40,
      "hit": false,
      "t": 52941.12000000026,
      "d": 441.1759999999995,
      "v": 64
    },
    {
      "midi": 65,
      "hit": false,
      "t": 53382.29600000026,
      "d": 441.1759999999995,
      "v": 64
    },
    {
      "midi": 72,
      "hit": false,
      "t": 53382.29600000026,
      "d": 441.1759999999995,
      "v": 64
    },
    {
      "midi": 41,
      "hit": false,
      "t": 53382.29600000026,
      "d": 441.1759999999995,
      "v": 64
    },
    {
      "midi": 65,
      "hit": false,
      "t": 53823.472000000256,
      "d": 441.1759999999995,
      "v": 64
    },
    {
      "midi": 72,
      "hit": false,
      "t": 53823.472000000256,
      "d": 441.1759999999995,
      "v": 64
    },
    {
      "midi": 41,
      "hit": false,
      "t": 53823.472000000256,
      "d": 441.1759999999995,
      "v": 64
    },
    {
      "midi": 38,
      "hit": false,
      "t": 54264.648000000256,
      "d": 110.29400000000169,
      "v": 64
    },
    {
      "midi": 41,
      "hit": false,
      "t": 54374.94200000026,
      "d": 110.29400000000169,
      "v": 64
    },
    {
      "midi": 69,
      "hit": false,
      "t": 54485.23600000026,
      "d": 110.29400000000169,
      "v": 64
    },
    {
      "midi": 72,
      "hit": false,
      "t": 54595.53000000026,
      "d": 110.29400000000169,
      "v": 64
    },
    {
      "midi": 64,
      "hit": false,
      "t": 54705.82400000026,
      "d": 441.1759999999995,
      "v": 64
    },
    {
      "midi": 71,
      "hit": false,
      "t": 54705.82400000026,
      "d": 441.1759999999995,
      "v": 64
    },
    {
      "midi": 40,
      "hit": false,
      "t": 54705.82400000026,
      "d": 441.1759999999995,
      "v": 64
    },
    {
      "midi": 64,
      "hit": false,
      "t": 55147.00000000026,
      "d": 441.1759999999995,
      "v": 64
    },
    {
      "midi": 71,
      "hit": false,
      "t": 55147.00000000026,
      "d": 441.1759999999995,
      "v": 64
    },
    {
      "midi": 40,
      "hit": false,
      "t": 55147.00000000026,
      "d": 441.1759999999995,
      "v": 64
    },
    {
      "midi": 64,
      "hit": false,
      "t": 55588.17600000026,
      "d": 441.1759999999995,
      "v": 64
    },
    {
      "midi": 71,
      "hit": false,
      "t": 55588.17600000026,
      "d": 441.1759999999995,
      "v": 64
    },
    {
      "midi": 40,
      "hit": false,
      "t": 55588.17600000026,
      "d": 441.1759999999995,
      "v": 64
    },
    {
      "midi": 59,
      "hit": false,
      "t": 56470.52800000026,
      "d": 220.58800000000338,
      "v": 64
    },
    {
      "midi": 40,
      "hit": false,
      "t": 56470.52800000026,
      "d": 441.17600000000675,
      "v": 64
    },
    {
      "midi": 64,
      "hit": false,
      "t": 56691.116000000264,
      "d": 220.58800000000338,
      "v": 64
    },
    {
      "midi": 69,
      "hit": false,
      "t": 56911.70400000027,
      "d": 220.58800000000338,
      "v": 64
    },
    {
      "midi": 40,
      "hit": false,
      "t": 56911.70400000027,
      "d": 441.17600000000675,
      "v": 64
    },
    {
      "midi": 74,
      "hit": false,
      "t": 57132.29200000027,
      "d": 220.58800000000338,
      "v": 64
    },
    {
      "midi": 76,
      "hit": false,
      "t": 57352.880000000274,
      "d": 220.58800000000338,
      "v": 64
    },
    {
      "midi": 40,
      "hit": false,
      "t": 57352.880000000274,
      "d": 441.17600000000675,
      "v": 64
    },
    {
      "midi": 74,
      "hit": false,
      "t": 57573.46800000028,
      "d": 441.17600000000675,
      "v": 64
    },
    {
      "midi": 40,
      "hit": false,
      "t": 57794.05600000028,
      "d": 441.17600000000675,
      "v": 64
    },
    {
      "midi": 67,
      "hit": false,
      "t": 58014.644000000284,
      "d": 220.58800000000338,
      "v": 64
    },
    {
      "midi": 40,
      "hit": false,
      "t": 58235.23200000029,
      "d": 441.1759999999995,
      "v": 64
    },
    {
      "midi": 66,
      "hit": false,
      "t": 58235.23200000029,
      "d": 882.351999999999,
      "v": 64
    },
    {
      "midi": 40,
      "hit": false,
      "t": 58676.40800000029,
      "d": 441.1759999999995,
      "v": 64
    },
    {
      "midi": 40,
      "hit": false,
      "t": 59117.584000000286,
      "d": 441.1759999999995,
      "v": 64
    },
    {
      "midi": 72,
      "hit": false,
      "t": 59117.584000000286,
      "d": 882.351999999999,
      "v": 64
    },
    {
      "midi": 40,
      "hit": false,
      "t": 59558.760000000286,
      "d": 441.1759999999995,
      "v": 64
    },
    {
      "midi": 39,
      "hit": false,
      "t": 59999.936000000285,
      "d": 441.1759999999995,
      "v": 64
    },
    {
      "midi": 71,
      "hit": false,
      "t": 59999.936000000285,
      "d": 882.351999999999,
      "v": 64
    },
    {
      "midi": 39,
      "hit": false,
      "t": 60441.112000000285,
      "d": 441.1759999999995,
      "v": 64
    },
    {
      "midi": 66,
      "hit": false,
      "t": 60882.288000000284,
      "d": 441.1759999999995,
      "v": 64
    },
    {
      "midi": 39,
      "hit": false,
      "t": 60882.288000000284,
      "d": 441.1759999999995,
      "v": 64
    },
    {
      "midi": 67,
      "hit": false,
      "t": 61323.464000000284,
      "d": 110.29400000000169,
      "v": 64
    },
    {
      "midi": 39,
      "hit": false,
      "t": 61323.464000000284,
      "d": 441.17600000000675,
      "v": 64
    },
    {
      "midi": 68,
      "hit": false,
      "t": 61433.758000000285,
      "d": 110.29400000000169,
      "v": 64
    },
    {
      "midi": 38,
      "hit": false,
      "t": 61764.64000000029,
      "d": 441.1759999999995,
      "v": 64
    },
    {
      "midi": 69,
      "hit": false,
      "t": 61764.64000000029,
      "d": 882.351999999999,
      "v": 64
    },
    {
      "midi": 38,
      "hit": false,
      "t": 62205.81600000029,
      "d": 441.1759999999995,
      "v": 64
    },
    {
      "midi": 62,
      "hit": false,
      "t": 62646.99200000029,
      "d": 441.1759999999995,
      "v": 64
    },
    {
      "midi": 38,
      "hit": false,
      "t": 62646.99200000029,
      "d": 441.1759999999995,
      "v": 64
    },
    {
      "midi": 60,
      "hit": false,
      "t": 63088.16800000029,
      "d": 441.1759999999995,
      "v": 64
    },
    {
      "midi": 38,
      "hit": false,
      "t": 63088.16800000029,
      "d": 441.1759999999995,
      "v": 64
    },
    {
      "midi": 59,
      "hit": false,
      "t": 63529.34400000029,
      "d": 441.1759999999995,
      "v": 64
    },
    {
      "midi": 41,
      "hit": false,
      "t": 63529.34400000029,
      "d": 441.1759999999995,
      "v": 64
    },
    {
      "midi": 41,
      "hit": false,
      "t": 63970.52000000029,
      "d": 441.1759999999995,
      "v": 64
    },
    {
      "midi": 57,
      "hit": false,
      "t": 63970.52000000029,
      "d": 882.351999999999,
      "v": 64
    },
    {
      "midi": 41,
      "hit": false,
      "t": 64411.69600000029,
      "d": 441.1759999999995,
      "v": 64
    },
    {
      "midi": 41,
      "hit": false,
      "t": 64852.87200000029,
      "d": 441.1759999999995,
      "v": 64
    },
    {
      "midi": 64,
      "hit": false,
      "t": 64852.87200000029,
      "d": 882.3520000000062,
      "v": 64
    },
    {
      "midi": 41,
      "hit": false,
      "t": 65294.048000000286,
      "d": 441.17600000000675,
      "v": 64
    },
    {
      "midi": 62,
      "hit": false,
      "t": 65735.2240000003,
      "d": 441.17600000000675,
      "v": 64
    },
    {
      "midi": 41,
      "hit": false,
      "t": 65735.2240000003,
      "d": 441.17600000000675,
      "v": 64
    },
    {
      "midi": 67,
      "hit": false,
      "t": 66176.4000000003,
      "d": 441.17600000000675,
      "v": 64
    },
    {
      "midi": 41,
      "hit": false,
      "t": 66176.4000000003,
      "d": 441.17600000000675,
      "v": 64
    },
    {
      "midi": 69,
      "hit": false,
      "t": 66617.5760000003,
      "d": 441.17600000000675,
      "v": 64
    },
    {
      "midi": 41,
      "hit": false,
      "t": 66617.5760000003,
      "d": 441.17600000000675,
      "v": 64
    },
    {
      "midi": 47,
      "hit": false,
      "t": 67058.75200000031,
      "d": 441.17600000000675,
      "v": 64
    },
    {
      "midi": 59,
      "hit": false,
      "t": 67058.75200000031,
      "d": 1764.704000000027,
      "v": 64
    },
    {
      "midi": 64,
      "hit": false,
      "t": 67058.75200000031,
      "d": 1764.704000000027,
      "v": 64
    },
    {
      "midi": 66,
      "hit": false,
      "t": 67058.75200000031,
      "d": 1764.704000000027,
      "v": 64
    },
    {
      "midi": 47,
      "hit": false,
      "t": 67499.92800000032,
      "d": 441.17600000000675,
      "v": 64
    },
    {
      "midi": 47,
      "hit": false,
      "t": 67941.10400000033,
      "d": 441.17600000000675,
      "v": 64
    },
    {
      "midi": 47,
      "hit": false,
      "t": 68382.28000000033,
      "d": 441.17600000000675,
      "v": 64
    },
    {
      "midi": 47,
      "hit": false,
      "t": 68823.45600000034,
      "d": 220.58800000000338,
      "v": 64
    },
    {
      "midi": 59,
      "hit": false,
      "t": 68823.45600000034,
      "d": 1764.704000000027,
      "v": 64
    },
    {
      "midi": 63,
      "hit": false,
      "t": 68823.45600000034,
      "d": 1764.704000000027,
      "v": 64
    },
    {
      "midi": 66,
      "hit": false,
      "t": 68823.45600000034,
      "d": 1764.704000000027,
      "v": 64
    },
    {
      "midi": 47,
      "hit": false,
      "t": 69044.04400000034,
      "d": 220.58800000000338,
      "v": 64
    },
    {
      "midi": 47,
      "hit": false,
      "t": 69264.63200000035,
      "d": 441.17600000000675,
      "v": 64
    },
    {
      "midi": 47,
      "hit": false,
      "t": 69705.80800000035,
      "d": 441.17600000000675,
      "v": 64
    },
    {
      "midi": 47,
      "hit": false,
      "t": 70146.98400000036,
      "d": 441.17600000000675,
      "v": 64
    }
  ]
}