{
  "jsonPath": "Latin/Latin Pop/Jeanette/top-of-the-world.json",
  "path": "Latin\\Latin Pop\\Jeanette\\Top Of The World.mid",
  "name": "Top Of The World",
  "difficulty": "Advanced",
  "bpm": 192.99989385005838,
  "notes": [
    {
      "midi": 55,
      "hit": false,
      "t": 0,
      "d": 129.53375,
      "v": 115
    },
    {
      "midi": 60,
      "hit": false,
      "t": 0,
      "d": 129.53375,
      "v": 115
    },
    {
      "midi": 64,
      "hit": false,
      "t": 0,
      "d": 129.53375,
      "v": 115
    },
    {
      "midi": 48,
      "hit": false,
      "t": 155.4405,
      "d": 155.4405,
      "v": 105
    },
    {
      "midi": 55,
      "hit": false,
      "t": 310.881,
      "d": 155.44050000000004,
      "v": 110
    },
    {
      "midi": 60,
      "hit": false,
      "t": 466.3215,
      "d": 155.44050000000004,
      "v": 105
    },
    {
      "midi": 57,
      "hit": false,
      "t": 621.7620000000001,
      "d": 544.04175,
      "v": 120
    },
    {
      "midi": 60,
      "hit": false,
      "t": 621.7620000000001,
      "d": 544.04175,
      "v": 120
    },
    {
      "midi": 65,
      "hit": false,
      "t": 621.7620000000001,
      "d": 544.04175,
      "v": 120
    },
    {
      "midi": 69,
      "hit": false,
      "t": 621.7620000000001,
      "d": 544.04175,
      "v": 120
    },
    {
      "midi": 55,
      "hit": false,
      "t": 1243.5240000000001,
      "d": 129.53375000000005,
      "v": 115
    },
    {
      "midi": 60,
      "hit": false,
      "t": 1243.5240000000001,
      "d": 129.53375000000005,
      "v": 115
    },
    {
      "midi": 64,
      "hit": false,
      "t": 1243.5240000000001,
      "d": 129.53375000000005,
      "v": 115
    },
    {
      "midi": 55,
      "hit": false,
      "t": 1554.4050000000002,
      "d": 129.53375000000005,
      "v": 115
    },
    {
      "midi": 60,
      "hit": false,
      "t": 1709.8455000000004,
      "d": 129.53375000000005,
      "v": 105
    },
    {
      "midi": 53,
      "hit": false,
      "t": 1865.2860000000005,
      "d": 129.53375000000005,
      "v": 115
    },
    {
      "midi": 57,
      "hit": false,
      "t": 1865.2860000000005,
      "d": 129.53375000000005,
      "v": 115
    },
    {
      "midi": 60,
      "hit": false,
      "t": 1865.2860000000005,
      "d": 129.53375000000005,
      "v": 115
    },
    {
      "midi": 65,
      "hit": false,
      "t": 1865.2860000000005,
      "d": 129.53375000000005,
      "v": 115
    },
    {
      "midi": 53,
      "hit": false,
      "t": 2020.7265000000007,
      "d": 155.44050000000016,
      "v": 105
    },
    {
      "midi": 57,
      "hit": false,
      "t": 2176.167000000001,
      "d": 155.44050000000016,
      "v": 110
    },
    {
      "midi": 60,
      "hit": false,
      "t": 2331.607500000001,
      "d": 155.44050000000016,
      "v": 105
    },
    {
      "midi": 55,
      "hit": false,
      "t": 2487.048000000001,
      "d": 129.53375000000005,
      "v": 115
    },
    {
      "midi": 60,
      "hit": false,
      "t": 2487.048000000001,
      "d": 129.53375000000005,
      "v": 115
    },
    {
      "midi": 64,
      "hit": false,
      "t": 2487.048000000001,
      "d": 129.53375000000005,
      "v": 115
    },
    {
      "midi": 48,
      "hit": false,
      "t": 2642.4885000000013,
      "d": 155.44050000000016,
      "v": 105
    },
    {
      "midi": 55,
      "hit": false,
      "t": 2797.9290000000015,
      "d": 155.44050000000016,
      "v": 110
    },
    {
      "midi": 60,
      "hit": false,
      "t": 2953.3695000000016,
      "d": 155.44050000000016,
      "v": 105
    },
    {
      "midi": 53,
      "hit": false,
      "t": 3108.8100000000018,
      "d": 544.0417499999999,
      "v": 120
    },
    {
      "midi": 57,
      "hit": false,
      "t": 3108.8100000000018,
      "d": 544.0417499999999,
      "v": 120
    },
    {
      "midi": 60,
      "hit": false,
      "t": 3108.8100000000018,
      "d": 544.0417499999999,
      "v": 120
    },
    {
      "midi": 65,
      "hit": false,
      "t": 3108.8100000000018,
      "d": 544.0417499999999,
      "v": 120
    },
    {
      "midi": 69,
      "hit": false,
      "t": 3108.8100000000018,
      "d": 544.0417499999999,
      "v": 120
    },
    {
      "midi": 55,
      "hit": false,
      "t": 3730.5720000000015,
      "d": 129.53375000000005,
      "v": 115
    },
    {
      "midi": 60,
      "hit": false,
      "t": 3730.5720000000015,
      "d": 129.53375000000005,
      "v": 115
    },
    {
      "midi": 64,
      "hit": false,
      "t": 3730.5720000000015,
      "d": 129.53375000000005,
      "v": 115
    },
    {
      "midi": 48,
      "hit": false,
      "t": 3886.0125000000016,
      "d": 155.44050000000016,
      "v": 105
    },
    {
      "midi": 55,
      "hit": false,
      "t": 4041.453000000002,
      "d": 155.44050000000016,
      "v": 110
    },
    {
      "midi": 60,
      "hit": false,
      "t": 4196.893500000002,
      "d": 155.4404999999997,
      "v": 105
    },
    {
      "midi": 55,
      "hit": false,
      "t": 4352.334000000002,
      "d": 129.5337499999996,
      "v": 115
    },
    {
      "midi": 59,
      "hit": false,
      "t": 4352.334000000002,
      "d": 129.5337499999996,
      "v": 115
    },
    {
      "midi": 62,
      "hit": false,
      "t": 4352.334000000002,
      "d": 129.5337499999996,
      "v": 115
    },
    {
      "midi": 55,
      "hit": false,
      "t": 4507.774500000001,
      "d": 155.4404999999997,
      "v": 115
    },
    {
      "midi": 55,
      "hit": false,
      "t": 4663.215000000001,
      "d": 155.4404999999997,
      "v": 105
    },
    {
      "midi": 55,
      "hit": false,
      "t": 4818.655500000001,
      "d": 129.5337499999996,
      "v": 110
    },
    {
      "midi": 59,
      "hit": false,
      "t": 4818.655500000001,
      "d": 129.5337499999996,
      "v": 110
    },
    {
      "midi": 62,
      "hit": false,
      "t": 4818.655500000001,
      "d": 129.5337499999996,
      "v": 110
    },
    {
      "midi": 67,
      "hit": false,
      "t": 4818.655500000001,
      "d": 129.5337499999996,
      "v": 110
    },
    {
      "midi": 55,
      "hit": false,
      "t": 4974.0960000000005,
      "d": 544.0417500000003,
      "v": 115
    },
    {
      "midi": 60,
      "hit": false,
      "t": 4974.0960000000005,
      "d": 544.0417500000003,
      "v": 115
    },
    {
      "midi": 64,
      "hit": false,
      "t": 4974.0960000000005,
      "d": 544.0417500000003,
      "v": 115
    },
    {
      "midi": 55,
      "hit": false,
      "t": 6217.620000000001,
      "d": 544.0417500000003,
      "v": 115
    },
    {
      "midi": 59,
      "hit": false,
      "t": 6217.620000000001,
      "d": 544.0417500000003,
      "v": 115
    },
    {
      "midi": 62,
      "hit": false,
      "t": 6217.620000000001,
      "d": 544.0417500000003,
      "v": 115
    },
    {
      "midi": 55,
      "hit": false,
      "t": 6994.822500000001,
      "d": 155.4404999999997,
      "v": 105
    },
    {
      "midi": 59,
      "hit": false,
      "t": 7150.263000000001,
      "d": 155.4404999999997,
      "v": 110
    },
    {
      "midi": 62,
      "hit": false,
      "t": 7305.7035000000005,
      "d": 155.4404999999997,
      "v": 115
    },
    {
      "midi": 55,
      "hit": false,
      "t": 7461.144,
      "d": 544.0417500000003,
      "v": 115
    },
    {
      "midi": 60,
      "hit": false,
      "t": 7461.144,
      "d": 544.0417500000003,
      "v": 115
    },
    {
      "midi": 64,
      "hit": false,
      "t": 7461.144,
      "d": 544.0417500000003,
      "v": 115
    },
    {
      "midi": 67,
      "hit": false,
      "t": 7461.144,
      "d": 544.0417500000003,
      "v": 115
    },
    {
      "midi": 55,
      "hit": false,
      "t": 8238.3465,
      "d": 155.4405000000006,
      "v": 105
    },
    {
      "midi": 60,
      "hit": false,
      "t": 8393.787,
      "d": 155.4405000000006,
      "v": 110
    },
    {
      "midi": 64,
      "hit": false,
      "t": 8549.2275,
      "d": 155.4405000000006,
      "v": 115
    },
    {
      "midi": 48,
      "hit": false,
      "t": 8704.668000000001,
      "d": 544.0417500000003,
      "v": 115
    },
    {
      "midi": 55,
      "hit": false,
      "t": 8704.668000000001,
      "d": 544.0417500000003,
      "v": 115
    },
    {
      "midi": 60,
      "hit": false,
      "t": 8704.668000000001,
      "d": 544.0417500000003,
      "v": 115
    },
    {
      "midi": 64,
      "hit": false,
      "t": 8704.668000000001,
      "d": 544.0417500000003,
      "v": 115
    },
    {
      "midi": 55,
      "hit": false,
      "t": 9948.192000000003,
      "d": 129.5337500000005,
      "v": 115
    },
    {
      "midi": 59,
      "hit": false,
      "t": 9948.192000000003,
      "d": 129.5337500000005,
      "v": 115
    },
    {
      "midi": 64,
      "hit": false,
      "t": 9948.192000000003,
      "d": 129.5337500000005,
      "v": 115
    },
    {
      "midi": 67,
      "hit": false,
      "t": 9948.192000000003,
      "d": 129.5337500000005,
      "v": 115
    },
    {
      "midi": 52,
      "hit": false,
      "t": 10103.632500000003,
      "d": 155.4405000000006,
      "v": 105
    },
    {
      "midi": 55,
      "hit": false,
      "t": 10259.073000000004,
      "d": 155.4405000000006,
      "v": 110
    },
    {
      "midi": 59,
      "hit": false,
      "t": 10414.513500000005,
      "d": 155.4405000000006,
      "v": 105
    },
    {
      "midi": 55,
      "hit": false,
      "t": 10569.954000000005,
      "d": 129.5337500000005,
      "v": 115
    },
    {
      "midi": 60,
      "hit": false,
      "t": 10569.954000000005,
      "d": 129.5337500000005,
      "v": 115
    },
    {
      "midi": 64,
      "hit": false,
      "t": 10569.954000000005,
      "d": 129.5337500000005,
      "v": 115
    },
    {
      "midi": 55,
      "hit": false,
      "t": 10880.835000000006,
      "d": 129.5337500000005,
      "v": 115
    },
    {
      "midi": 60,
      "hit": false,
      "t": 11036.275500000007,
      "d": 129.5337500000005,
      "v": 105
    },
    {
      "midi": 50,
      "hit": false,
      "t": 11191.716000000008,
      "d": 129.5337500000005,
      "v": 115
    },
    {
      "midi": 57,
      "hit": false,
      "t": 11191.716000000008,
      "d": 129.5337500000005,
      "v": 115
    },
    {
      "midi": 62,
      "hit": false,
      "t": 11191.716000000008,
      "d": 129.5337500000005,
      "v": 115
    },
    {
      "midi": 65,
      "hit": false,
      "t": 11191.716000000008,
      "d": 129.5337500000005,
      "v": 115
    },
    {
      "midi": 69,
      "hit": false,
      "t": 11191.716000000008,
      "d": 129.5337500000005,
      "v": 115
    },
    {
      "midi": 57,
      "hit": false,
      "t": 11502.597000000009,
      "d": 129.5337500000005,
      "v": 115
    },
    {
      "midi": 62,
      "hit": false,
      "t": 11658.03750000001,
      "d": 129.5337500000005,
      "v": 105
    },
    {
      "midi": 55,
      "hit": false,
      "t": 11813.47800000001,
      "d": 544.0417500000003,
      "v": 120
    },
    {
      "midi": 59,
      "hit": false,
      "t": 11813.47800000001,
      "d": 544.0417500000003,
      "v": 120
    },
    {
      "midi": 62,
      "hit": false,
      "t": 11813.47800000001,
      "d": 544.0417500000003,
      "v": 120
    },
    {
      "midi": 67,
      "hit": false,
      "t": 11813.47800000001,
      "d": 544.0417500000003,
      "v": 120
    },
    {
      "midi": 48,
      "hit": false,
      "t": 12435.24000000001,
      "d": 129.5337500000005,
      "v": 115
    },
    {
      "midi": 55,
      "hit": false,
      "t": 12435.24000000001,
      "d": 129.5337500000005,
      "v": 115
    },
    {
      "midi": 60,
      "hit": false,
      "t": 12435.24000000001,
      "d": 129.5337500000005,
      "v": 115
    },
    {
      "midi": 64,
      "hit": false,
      "t": 12435.24000000001,
      "d": 129.5337500000005,
      "v": 115
    },
    {
      "midi": 55,
      "hit": false,
      "t": 12746.121000000012,
      "d": 129.5337500000005,
      "v": 115
    },
    {
      "midi": 60,
      "hit": false,
      "t": 12901.561500000013,
      "d": 129.5337500000005,
      "v": 105
    },
    {
      "midi": 55,
      "hit": false,
      "t": 13057.002000000013,
      "d": 129.5337500000005,
      "v": 115
    },
    {
      "midi": 59,
      "hit": false,
      "t": 13057.002000000013,
      "d": 129.5337500000005,
      "v": 115
    },
    {
      "midi": 64,
      "hit": false,
      "t": 13057.002000000013,
      "d": 129.5337500000005,
      "v": 115
    },
    {
      "midi": 55,
      "hit": false,
      "t": 13367.883000000014,
      "d": 129.5337500000005,
      "v": 115
    },
    {
      "midi": 59,
      "hit": false,
      "t": 13523.323500000015,
      "d": 129.5337500000005,
      "v": 105
    },
    {
      "midi": 55,
      "hit": false,
      "t": 13678.764000000016,
      "d": 544.0417500000003,
      "v": 120
    },
    {
      "midi": 60,
      "hit": false,
      "t": 13678.764000000016,
      "d": 544.0417500000003,
      "v": 120
    },
    {
      "midi": 64,
      "hit": false,
      "t": 13678.764000000016,
      "d": 544.0417500000003,
      "v": 120
    },
    {
      "midi": 46,
      "hit": false,
      "t": 14300.526000000016,
      "d": 129.5337500000005,
      "v": 115
    },
    {
      "midi": 58,
      "hit": false,
      "t": 14300.526000000016,
      "d": 129.5337500000005,
      "v": 115
    },
    {
      "midi": 62,
      "hit": false,
      "t": 14300.526000000016,
      "d": 129.5337500000005,
      "v": 115
    },
    {
      "midi": 65,
      "hit": false,
      "t": 14300.526000000016,
      "d": 129.5337500000005,
      "v": 115
    },
    {
      "midi": 46,
      "hit": false,
      "t": 14455.966500000017,
      "d": 155.4405000000006,
      "v": 115
    },
    {
      "midi": 58,
      "hit": false,
      "t": 14611.407000000017,
      "d": 155.4405000000006,
      "v": 105
    },
    {
      "midi": 58,
      "hit": false,
      "t": 14766.847500000018,
      "d": 129.5337500000005,
      "v": 110
    },
    {
      "midi": 62,
      "hit": false,
      "t": 14766.847500000018,
      "d": 129.5337500000005,
      "v": 110
    },
    {
      "midi": 65,
      "hit": false,
      "t": 14766.847500000018,
      "d": 129.5337500000005,
      "v": 110
    },
    {
      "midi": 57,
      "hit": false,
      "t": 14922.288000000019,
      "d": 129.5337500000005,
      "v": 115
    },
    {
      "midi": 60,
      "hit": false,
      "t": 14922.288000000019,
      "d": 129.5337500000005,
      "v": 115
    },
    {
      "midi": 65,
      "hit": false,
      "t": 14922.288000000019,
      "d": 129.5337500000005,
      "v": 115
    },
    {
      "midi": 57,
      "hit": false,
      "t": 15233.16900000002,
      "d": 129.5337500000005,
      "v": 115
    },
    {
      "midi": 60,
      "hit": false,
      "t": 15388.60950000002,
      "d": 129.5337500000005,
      "v": 105
    },
    {
      "midi": 57,
      "hit": false,
      "t": 15544.050000000021,
      "d": 129.5337500000005,
      "v": 115
    },
    {
      "midi": 62,
      "hit": false,
      "t": 15544.050000000021,
      "d": 129.5337500000005,
      "v": 115
    },
    {
      "midi": 65,
      "hit": false,
      "t": 15544.050000000021,
      "d": 129.5337500000005,
      "v": 115
    },
    {
      "midi": 69,
      "hit": false,
      "t": 15544.050000000021,
      "d": 129.5337500000005,
      "v": 115
    },
    {
      "midi": 50,
      "hit": false,
      "t": 15699.490500000022,
      "d": 155.4405000000006,
      "v": 115
    },
    {
      "midi": 57,
      "hit": false,
      "t": 15854.931000000022,
      "d": 155.4405000000006,
      "v": 105
    },
    {
      "midi": 57,
      "hit": false,
      "t": 16010.371500000023,
      "d": 129.5337500000005,
      "v": 110
    },
    {
      "midi": 62,
      "hit": false,
      "t": 16010.371500000023,
      "d": 129.5337500000005,
      "v": 110
    },
    {
      "midi": 65,
      "hit": false,
      "t": 16010.371500000023,
      "d": 129.5337500000005,
      "v": 110
    },
    {
      "midi": 59,
      "hit": false,
      "t": 16165.812000000024,
      "d": 544.0417500000003,
      "v": 115
    },
    {
      "midi": 62,
      "hit": false,
      "t": 16165.812000000024,
      "d": 544.0417500000003,
      "v": 115
    },
    {
      "midi": 65,
      "hit": false,
      "t": 16165.812000000024,
      "d": 544.0417500000003,
      "v": 115
    },
    {
      "midi": 67,
      "hit": false,
      "t": 16165.812000000024,
      "d": 544.0417500000003,
      "v": 115
    },
    {
      "midi": 55,
      "hit": false,
      "t": 16943.014500000023,
      "d": 155.4405000000006,
      "v": 115
    },
    {
      "midi": 55,
      "hit": false,
      "t": 17098.455000000024,
      "d": 310.8810000000012,
      "v": 120
    },
    {
      "midi": 59,
      "hit": false,
      "t": 17098.455000000024,
      "d": 310.8810000000012,
      "v": 120
    },
    {
      "midi": 62,
      "hit": false,
      "t": 17098.455000000024,
      "d": 310.8810000000012,
      "v": 120
    },
    {
      "midi": 65,
      "hit": false,
      "t": 17098.455000000024,
      "d": 310.8810000000012,
      "v": 120
    },
    {
      "midi": 67,
      "hit": false,
      "t": 17098.455000000024,
      "d": 310.8810000000012,
      "v": 120
    },
    {
      "midi": 55,
      "hit": false,
      "t": 17409.336000000025,
      "d": 129.5337499999987,
      "v": 115
    },
    {
      "midi": 60,
      "hit": false,
      "t": 17409.336000000025,
      "d": 129.5337499999987,
      "v": 115
    },
    {
      "midi": 64,
      "hit": false,
      "t": 17409.336000000025,
      "d": 129.5337499999987,
      "v": 115
    },
    {
      "midi": 67,
      "hit": false,
      "t": 17409.336000000025,
      "d": 129.5337499999987,
      "v": 115
    },
    {
      "midi": 55,
      "hit": false,
      "t": 17720.217000000022,
      "d": 129.5337499999987,
      "v": 115
    },
    {
      "midi": 60,
      "hit": false,
      "t": 17875.65750000002,
      "d": 129.5337499999987,
      "v": 105
    },
    {
      "midi": 46,
      "hit": false,
      "t": 18031.098000000016,
      "d": 544.0417500000003,
      "v": 120
    },
    {
      "midi": 58,
      "hit": false,
      "t": 18031.098000000016,
      "d": 544.0417500000003,
      "v": 120
    },
    {
      "midi": 62,
      "hit": false,
      "t": 18031.098000000016,
      "d": 544.0417500000003,
      "v": 120
    },
    {
      "midi": 65,
      "hit": false,
      "t": 18031.098000000016,
      "d": 544.0417500000003,
      "v": 120
    },
    {
      "midi": 70,
      "hit": false,
      "t": 18031.098000000016,
      "d": 544.0417500000003,
      "v": 120
    },
    {
      "midi": 57,
      "hit": false,
      "t": 18652.860000000015,
      "d": 544.0417500000003,
      "v": 115
    },
    {
      "midi": 61,
      "hit": false,
      "t": 18652.860000000015,
      "d": 544.0417500000003,
      "v": 115
    },
    {
      "midi": 64,
      "hit": false,
      "t": 18652.860000000015,
      "d": 544.0417500000003,
      "v": 115
    },
    {
      "midi": 69,
      "hit": false,
      "t": 18652.860000000015,
      "d": 544.0417500000003,
      "v": 115
    },
    {
      "midi": 57,
      "hit": false,
      "t": 19430.062500000015,
      "d": 155.4405000000006,
      "v": 105
    },
    {
      "midi": 61,
      "hit": false,
      "t": 19585.503000000015,
      "d": 155.4405000000006,
      "v": 110
    },
    {
      "midi": 64,
      "hit": false,
      "t": 19740.943500000016,
      "d": 155.4405000000006,
      "v": 115
    },
    {
      "midi": 57,
      "hit": false,
      "t": 19896.384000000016,
      "d": 544.0417500000003,
      "v": 115
    },
    {
      "midi": 62,
      "hit": false,
      "t": 19896.384000000016,
      "d": 544.0417500000003,
      "v": 115
    },
    {
      "midi": 65,
      "hit": false,
      "t": 19896.384000000016,
      "d": 544.0417500000003,
      "v": 115
    },
    {
      "midi": 69,
      "hit": false,
      "t": 19896.384000000016,
      "d": 544.0417500000003,
      "v": 115
    },
    {
      "midi": 60,
      "hit": false,
      "t": 21139.908000000018,
      "d": 544.0417500000003,
      "v": 115
    },
    {
      "midi": 62,
      "hit": false,
      "t": 21139.908000000018,
      "d": 544.0417500000003,
      "v": 115
    },
    {
      "midi": 65,
      "hit": false,
      "t": 21139.908000000018,
      "d": 544.0417500000003,
      "v": 115
    },
    {
      "midi": 69,
      "hit": false,
      "t": 21139.908000000018,
      "d": 544.0417500000003,
      "v": 115
    },
    {
      "midi": 55,
      "hit": false,
      "t": 22383.43200000002,
      "d": 544.0417500000003,
      "v": 115
    },
    {
      "midi": 59,
      "hit": false,
      "t": 22383.43200000002,
      "d": 544.0417500000003,
      "v": 115
    },
    {
      "midi": 62,
      "hit": false,
      "t": 22383.43200000002,
      "d": 544.0417500000003,
      "v": 115
    },
    {
      "midi": 55,
      "hit": false,
      "t": 23626.95600000002,
      "d": 544.0417500000003,
      "v": 115
    },
    {
      "midi": 59,
      "hit": false,
      "t": 23626.95600000002,
      "d": 544.0417500000003,
      "v": 115
    },
    {
      "midi": 62,
      "hit": false,
      "t": 23626.95600000002,
      "d": 544.0417500000003,
      "v": 115
    },
    {
      "midi": 65,
      "hit": false,
      "t": 23626.95600000002,
      "d": 544.0417500000003,
      "v": 115
    },
    {
      "midi": 67,
      "hit": false,
      "t": 23626.95600000002,
      "d": 544.0417500000003,
      "v": 115
    },
    {
      "midi": 55,
      "hit": false,
      "t": 24870.48000000002,
      "d": 544.0417500000003,
      "v": 115
    },
    {
      "midi": 60,
      "hit": false,
      "t": 24870.48000000002,
      "d": 544.0417500000003,
      "v": 115
    },
    {
      "midi": 64,
      "hit": false,
      "t": 24870.48000000002,
      "d": 544.0417500000003,
      "v": 115
    },
    {
      "midi": 55,
      "hit": false,
      "t": 25647.68250000002,
      "d": 155.4405000000006,
      "v": 105
    },
    {
      "midi": 60,
      "hit": false,
      "t": 25803.12300000002,
      "d": 155.4405000000006,
      "v": 110
    },
    {
      "midi": 64,
      "hit": false,
      "t": 25958.563500000022,
      "d": 155.4405000000006,
      "v": 115
    },
    {
      "midi": 55,
      "hit": false,
      "t": 26114.004000000023,
      "d": 544.0417500000003,
      "v": 115
    },
    {
      "midi": 59,
      "hit": false,
      "t": 26114.004000000023,
      "d": 544.0417500000003,
      "v": 115
    },
    {
      "midi": 62,
      "hit": false,
      "t": 26114.004000000023,
      "d": 544.0417500000003,
      "v": 115
    },
    {
      "midi": 67,
      "hit": false,
      "t": 26114.004000000023,
      "d": 544.0417500000003,
      "v": 115
    },
    {
      "midi": 55,
      "hit": false,
      "t": 27357.528000000024,
      "d": 544.0417500000003,
      "v": 115
    },
    {
      "midi": 60,
      "hit": false,
      "t": 27357.528000000024,
      "d": 544.0417500000003,
      "v": 115
    },
    {
      "midi": 64,
      "hit": false,
      "t": 27357.528000000024,
      "d": 544.0417500000003,
      "v": 115
    },
    {
      "midi": 67,
      "hit": false,
      "t": 27357.528000000024,
      "d": 544.0417500000003,
      "v": 115
    },
    {
      "midi": 48,
      "hit": false,
      "t": 28134.730500000023,
      "d": 155.4405000000006,
      "v": 115
    },
    {
      "midi": 48,
      "hit": false,
      "t": 28290.171000000024,
      "d": 310.8810000000012,
      "v": 120
    },
    {
      "midi": 55,
      "hit": false,
      "t": 28290.171000000024,
      "d": 310.8810000000012,
      "v": 120
    },
    {
      "midi": 60,
      "hit": false,
      "t": 28290.171000000024,
      "d": 310.8810000000012,
      "v": 120
    },
    {
      "midi": 64,
      "hit": false,
      "t": 28290.171000000024,
      "d": 310.8810000000012,
      "v": 120
    },
    {
      "midi": 67,
      "hit": false,
      "t": 28290.171000000024,
      "d": 310.8810000000012,
      "v": 120
    },
    {
      "midi": 48,
      "hit": false,
      "t": 28601.052000000025,
      "d": 544.0417500000003,
      "v": 115
    },
    {
      "midi": 55,
      "hit": false,
      "t": 28601.052000000025,
      "d": 544.0417500000003,
      "v": 115
    },
    {
      "midi": 60,
      "hit": false,
      "t": 28601.052000000025,
      "d": 544.0417500000003,
      "v": 115
    },
    {
      "midi": 64,
      "hit": false,
      "t": 28601.052000000025,
      "d": 544.0417500000003,
      "v": 115
    },
    {
      "midi": 67,
      "hit": false,
      "t": 28601.052000000025,
      "d": 544.0417500000003,
      "v": 115
    },
    {
      "midi": 55,
      "hit": false,
      "t": 29378.254500000025,
      "d": 155.4405000000006,
      "v": 105
    },
    {
      "midi": 60,
      "hit": false,
      "t": 29533.695000000025,
      "d": 155.4405000000006,
      "v": 110
    },
    {
      "midi": 64,
      "hit": false,
      "t": 29689.135500000026,
      "d": 155.4405000000006,
      "v": 115
    },
    {
      "midi": 55,
      "hit": false,
      "t": 29844.576000000026,
      "d": 129.5337499999987,
      "v": 115
    },
    {
      "midi": 59,
      "hit": false,
      "t": 29844.576000000026,
      "d": 129.5337499999987,
      "v": 115
    },
    {
      "midi": 64,
      "hit": false,
      "t": 29844.576000000026,
      "d": 129.5337499999987,
      "v": 115
    },
    {
      "midi": 67,
      "hit": false,
      "t": 29844.576000000026,
      "d": 129.5337499999987,
      "v": 115
    },
    {
      "midi": 55,
      "hit": false,
      "t": 30155.457000000024,
      "d": 129.5337499999987,
      "v": 115
    },
    {
      "midi": 59,
      "hit": false,
      "t": 30310.89750000002,
      "d": 129.5337499999987,
      "v": 105
    },
    {
      "midi": 55,
      "hit": false,
      "t": 30466.338000000018,
      "d": 129.5337499999987,
      "v": 115
    },
    {
      "midi": 60,
      "hit": false,
      "t": 30466.338000000018,
      "d": 129.5337499999987,
      "v": 115
    },
    {
      "midi": 64,
      "hit": false,
      "t": 30466.338000000018,
      "d": 129.5337499999987,
      "v": 115
    },
    {
      "midi": 48,
      "hit": false,
      "t": 30621.778500000015,
      "d": 155.4405000000006,
      "v": 105
    },
    {
      "midi": 55,
      "hit": false,
      "t": 30777.219000000016,
      "d": 155.4405000000006,
      "v": 110
    },
    {
      "midi": 60,
      "hit": false,
      "t": 30932.659500000016,
      "d": 155.4405000000006,
      "v": 105
    },
    {
      "midi": 57,
      "hit": false,
      "t": 31088.100000000017,
      "d": 129.5337499999987,
      "v": 115
    },
    {
      "midi": 62,
      "hit": false,
      "t": 31088.100000000017,
      "d": 129.5337499999987,
      "v": 115
    },
    {
      "midi": 65,
      "hit": false,
      "t": 31088.100000000017,
      "d": 129.5337499999987,
      "v": 115
    },
    {
      "midi": 50,
      "hit": false,
      "t": 31243.540500000014,
      "d": 155.4405000000006,
      "v": 105
    },
    {
      "midi": 57,
      "hit": false,
      "t": 31398.981000000014,
      "d": 155.4405000000006,
      "v": 110
    },
    {
      "midi": 62,
      "hit": false,
      "t": 31554.421500000015,
      "d": 155.4405000000006,
      "v": 105
    },
    {
      "midi": 55,
      "hit": false,
      "t": 31709.862000000016,
      "d": 544.0417500000003,
      "v": 120
    },
    {
      "midi": 59,
      "hit": false,
      "t": 31709.862000000016,
      "d": 544.0417500000003,
      "v": 120
    },
    {
      "midi": 62,
      "hit": false,
      "t": 31709.862000000016,
      "d": 544.0417500000003,
      "v": 120
    },
    {
      "midi": 67,
      "hit": false,
      "t": 31709.862000000016,
      "d": 544.0417500000003,
      "v": 120
    },
    {
      "midi": 55,
      "hit": false,
      "t": 32331.624000000014,
      "d": 129.5337499999987,
      "v": 115
    },
    {
      "midi": 60,
      "hit": false,
      "t": 32331.624000000014,
      "d": 129.5337499999987,
      "v": 115
    },
    {
      "midi": 64,
      "hit": false,
      "t": 32331.624000000014,
      "d": 129.5337499999987,
      "v": 115
    },
    {
      "midi": 67,
      "hit": false,
      "t": 32331.624000000014,
      "d": 129.5337499999987,
      "v": 115
    },
    {
      "midi": 48,
      "hit": false,
      "t": 32487.06450000001,
      "d": 155.4405000000006,
      "v": 115
    },
    {
      "midi": 55,
      "hit": false,
      "t": 32642.505000000012,
      "d": 155.44049999999697,
      "v": 105
    },
    {
      "midi": 55,
      "hit": false,
      "t": 32797.94550000001,
      "d": 129.53375000000233,
      "v": 110
    },
    {
      "midi": 60,
      "hit": false,
      "t": 32797.94550000001,
      "d": 129.53375000000233,
      "v": 110
    },
    {
      "midi": 64,
      "hit": false,
      "t": 32797.94550000001,
      "d": 129.53375000000233,
      "v": 110
    },
    {
      "midi": 67,
      "hit": false,
      "t": 32797.94550000001,
      "d": 129.53375000000233,
      "v": 110
    },
    {
      "midi": 52,
      "hit": false,
      "t": 32953.38600000001,
      "d": 544.0417499999967,
      "v": 120
    },
    {
      "midi": 55,
      "hit": false,
      "t": 32953.38600000001,
      "d": 544.0417499999967,
      "v": 120
    },
    {
      "midi": 59,
      "hit": false,
      "t": 32953.38600000001,
      "d": 544.0417499999967,
      "v": 120
    },
    {
      "midi": 64,
      "hit": false,
      "t": 32953.38600000001,
      "d": 544.0417499999967,
      "v": 120
    },
    {
      "midi": 55,
      "hit": false,
      "t": 33575.14800000001,
      "d": 129.53375000000233,
      "v": 115
    },
    {
      "midi": 60,
      "hit": false,
      "t": 33575.14800000001,
      "d": 129.53375000000233,
      "v": 115
    },
    {
      "midi": 64,
      "hit": false,
      "t": 33575.14800000001,
      "d": 129.53375000000233,
      "v": 115
    },
    {
      "midi": 67,
      "hit": false,
      "t": 33575.14800000001,
      "d": 129.53375000000233,
      "v": 115
    },
    {
      "midi": 55,
      "hit": false,
      "t": 33886.02900000001,
      "d": 129.53375000000233,
      "v": 115
    },
    {
      "midi": 60,
      "hit": false,
      "t": 34041.469500000014,
      "d": 129.53375000000233,
      "v": 105
    },
    {
      "midi": 58,
      "hit": false,
      "t": 34196.91000000002,
      "d": 544.0417499999967,
      "v": 120
    },
    {
      "midi": 62,
      "hit": false,
      "t": 34196.91000000002,
      "d": 544.0417499999967,
      "v": 120
    },
    {
      "midi": 65,
      "hit": false,
      "t": 34196.91000000002,
      "d": 544.0417499999967,
      "v": 120
    },
    {
      "midi": 57,
      "hit": false,
      "t": 34818.67200000001,
      "d": 544.0417499999967,
      "v": 120
    },
    {
      "midi": 60,
      "hit": false,
      "t": 34818.67200000001,
      "d": 544.0417499999967,
      "v": 120
    },
    {
      "midi": 65,
      "hit": false,
      "t": 34818.67200000001,
      "d": 544.0417499999967,
      "v": 120
    },
    {
      "midi": 69,
      "hit": false,
      "t": 34818.67200000001,
      "d": 544.0417499999967,
      "v": 120
    },
    {
      "midi": 57,
      "hit": false,
      "t": 35440.43400000001,
      "d": 544.0417499999967,
      "v": 120
    },
    {
      "midi": 62,
      "hit": false,
      "t": 35440.43400000001,
      "d": 544.0417499999967,
      "v": 120
    },
    {
      "midi": 65,
      "hit": false,
      "t": 35440.43400000001,
      "d": 544.0417499999967,
      "v": 120
    },
    {
      "midi": 69,
      "hit": false,
      "t": 35440.43400000001,
      "d": 544.0417499999967,
      "v": 120
    },
    {
      "midi": 55,
      "hit": false,
      "t": 36062.196,
      "d": 544.0417499999967,
      "v": 115
    },
    {
      "midi": 59,
      "hit": false,
      "t": 36062.196,
      "d": 544.0417499999967,
      "v": 115
    },
    {
      "midi": 62,
      "hit": false,
      "t": 36062.196,
      "d": 544.0417499999967,
      "v": 115
    },
    {
      "midi": 55,
      "hit": false,
      "t": 36839.3985,
      "d": 155.44049999999697,
      "v": 105
    },
    {
      "midi": 59,
      "hit": false,
      "t": 36994.839,
      "d": 155.44049999999697,
      "v": 110
    },
    {
      "midi": 62,
      "hit": false,
      "t": 37150.2795,
      "d": 155.44049999999697,
      "v": 115
    },
    {
      "midi": 55,
      "hit": false,
      "t": 37305.719999999994,
      "d": 129.53375000000233,
      "v": 115
    },
    {
      "midi": 60,
      "hit": false,
      "t": 37305.719999999994,
      "d": 129.53375000000233,
      "v": 115
    },
    {
      "midi": 64,
      "hit": false,
      "t": 37305.719999999994,
      "d": 129.53375000000233,
      "v": 115
    },
    {
      "midi": 48,
      "hit": false,
      "t": 37461.1605,
      "d": 155.44049999999697,
      "v": 105
    },
    {
      "midi": 55,
      "hit": false,
      "t": 37616.600999999995,
      "d": 155.44049999999697,
      "v": 110
    },
    {
      "midi": 60,
      "hit": false,
      "t": 37772.04149999999,
      "d": 155.44049999999697,
      "v": 105
    },
    {
      "midi": 46,
      "hit": false,
      "t": 37927.48199999999,
      "d": 129.53375000000233,
      "v": 115
    },
    {
      "midi": 58,
      "hit": false,
      "t": 37927.48199999999,
      "d": 129.53375000000233,
      "v": 115
    },
    {
      "midi": 62,
      "hit": false,
      "t": 37927.48199999999,
      "d": 129.53375000000233,
      "v": 115
    },
    {
      "midi": 65,
      "hit": false,
      "t": 37927.48199999999,
      "d": 129.53375000000233,
      "v": 115
    },
    {
      "midi": 46,
      "hit": false,
      "t": 38082.92249999999,
      "d": 155.44049999999697,
      "v": 105
    },
    {
      "midi": 58,
      "hit": false,
      "t": 38238.36299999999,
      "d": 155.44049999999697,
      "v": 110
    },
    {
      "midi": 62,
      "hit": false,
      "t": 38393.80349999999,
      "d": 155.44049999999697,
      "v": 105
    },
    {
      "midi": 57,
      "hit": false,
      "t": 38549.243999999984,
      "d": 544.0417499999967,
      "v": 115
    },
    {
      "midi": 61,
      "hit": false,
      "t": 38549.243999999984,
      "d": 544.0417499999967,
      "v": 115
    },
    {
      "midi": 64,
      "hit": false,
      "t": 38549.243999999984,
      "d": 544.0417499999967,
      "v": 115
    },
    {
      "midi": 69,
      "hit": false,
      "t": 38549.243999999984,
      "d": 544.0417499999967,
      "v": 115
    },
    {
      "midi": 45,
      "hit": false,
      "t": 39326.446499999984,
      "d": 155.44049999999697,
      "v": 115
    },
    {
      "midi": 57,
      "hit": false,
      "t": 39481.88699999998,
      "d": 310.8810000000012,
      "v": 120
    },
    {
      "midi": 61,
      "hit": false,
      "t": 39481.88699999998,
      "d": 310.8810000000012,
      "v": 120
    },
    {
      "midi": 64,
      "hit": false,
      "t": 39481.88699999998,
      "d": 310.8810000000012,
      "v": 120
    },
    {
      "midi": 50,
      "hit": false,
      "t": 39792.76799999998,
      "d": 544.0417499999967,
      "v": 115
    },
    {
      "midi": 60,
      "hit": false,
      "t": 39792.76799999998,
      "d": 544.0417499999967,
      "v": 115
    },
    {
      "midi": 62,
      "hit": false,
      "t": 39792.76799999998,
      "d": 544.0417499999967,
      "v": 115
    },
    {
      "midi": 65,
      "hit": false,
      "t": 39792.76799999998,
      "d": 544.0417499999967,
      "v": 115
    },
    {
      "midi": 69,
      "hit": false,
      "t": 39792.76799999998,
      "d": 544.0417499999967,
      "v": 115
    },
    {
      "midi": 50,
      "hit": false,
      "t": 40569.97049999998,
      "d": 155.44049999999697,
      "v": 115
    },
    {
      "midi": 60,
      "hit": false,
      "t": 40725.41099999998,
      "d": 310.8810000000012,
      "v": 120
    },
    {
      "midi": 62,
      "hit": false,
      "t": 40725.41099999998,
      "d": 310.8810000000012,
      "v": 120
    },
    {
      "midi": 65,
      "hit": false,
      "t": 40725.41099999998,
      "d": 310.8810000000012,
      "v": 120
    },
    {
      "midi": 69,
      "hit": false,
      "t": 40725.41099999998,
      "d": 310.8810000000012,
      "v": 120
    },
    {
      "midi": 50,
      "hit": false,
      "t": 41036.29199999998,
      "d": 544.0417499999967,
      "v": 115
    },
    {
      "midi": 57,
      "hit": false,
      "t": 41036.29199999998,
      "d": 544.0417499999967,
      "v": 115
    },
    {
      "midi": 62,
      "hit": false,
      "t": 41036.29199999998,
      "d": 544.0417499999967,
      "v": 115
    },
    {
      "midi": 65,
      "hit": false,
      "t": 41036.29199999998,
      "d": 544.0417499999967,
      "v": 115
    },
    {
      "midi": 55,
      "hit": false,
      "t": 42279.81599999998,
      "d": 544.0417499999967,
      "v": 115
    },
    {
      "midi": 59,
      "hit": false,
      "t": 42279.81599999998,
      "d": 544.0417499999967,
      "v": 115
    },
    {
      "midi": 62,
      "hit": false,
      "t": 42279.81599999998,
      "d": 544.0417499999967,
      "v": 115
    },
    {
      "midi": 59,
      "hit": false,
      "t": 43523.339999999975,
      "d": 544.0417499999967,
      "v": 115
    },
    {
      "midi": 62,
      "hit": false,
      "t": 43523.339999999975,
      "d": 544.0417499999967,
      "v": 115
    },
    {
      "midi": 65,
      "hit": false,
      "t": 43523.339999999975,
      "d": 544.0417499999967,
      "v": 115
    },
    {
      "midi": 67,
      "hit": false,
      "t": 43523.339999999975,
      "d": 544.0417499999967,
      "v": 115
    },
    {
      "midi": 59,
      "hit": false,
      "t": 44300.542499999974,
      "d": 155.44049999999697,
      "v": 105
    },
    {
      "midi": 62,
      "hit": false,
      "t": 44455.98299999997,
      "d": 155.44049999999697,
      "v": 110
    },
    {
      "midi": 65,
      "hit": false,
      "t": 44611.42349999997,
      "d": 155.44049999999697,
      "v": 115
    },
    {
      "midi": 55,
      "hit": false,
      "t": 44766.863999999965,
      "d": 544.0417499999967,
      "v": 115
    },
    {
      "midi": 60,
      "hit": false,
      "t": 44766.863999999965,
      "d": 544.0417499999967,
      "v": 115
    },
    {
      "midi": 64,
      "hit": false,
      "t": 44766.863999999965,
      "d": 544.0417499999967,
      "v": 115
    },
    {
      "midi": 48,
      "hit": false,
      "t": 45544.066499999964,
      "d": 155.44049999999697,
      "v": 115
    },
    {
      "midi": 55,
      "hit": false,
      "t": 45699.50699999996,
      "d": 310.8810000000012,
      "v": 120
    },
    {
      "midi": 60,
      "hit": false,
      "t": 45699.50699999996,
      "d": 310.8810000000012,
      "v": 120
    },
    {
      "midi": 64,
      "hit": false,
      "t": 45699.50699999996,
      "d": 310.8810000000012,
      "v": 120
    },
    {
      "midi": 58,
      "hit": false,
      "t": 46010.38799999996,
      "d": 544.0417499999967,
      "v": 115
    },
    {
      "midi": 60,
      "hit": false,
      "t": 46010.38799999996,
      "d": 544.0417499999967,
      "v": 115
    },
    {
      "midi": 64,
      "hit": false,
      "t": 46010.38799999996,
      "d": 544.0417499999967,
      "v": 115
    },
    {
      "midi": 67,
      "hit": false,
      "t": 46010.38799999996,
      "d": 544.0417499999967,
      "v": 115
    },
    {
      "midi": 58,
      "hit": false,
      "t": 46787.59049999996,
      "d": 155.44049999999697,
      "v": 105
    },
    {
      "midi": 60,
      "hit": false,
      "t": 46943.03099999996,
      "d": 155.44049999999697,
      "v": 110
    },
    {
      "midi": 64,
      "hit": false,
      "t": 47098.471499999956,
      "d": 155.44049999999697,
      "v": 115
    },
    {
      "midi": 57,
      "hit": false,
      "t": 47253.91199999995,
      "d": 544.0417499999967,
      "v": 115
    },
    {
      "midi": 60,
      "hit": false,
      "t": 47253.91199999995,
      "d": 544.0417499999967,
      "v": 115
    },
    {
      "midi": 65,
      "hit": false,
      "t": 47253.91199999995,
      "d": 544.0417499999967,
      "v": 115
    },
    {
      "midi": 69,
      "hit": false,
      "t": 47253.91199999995,
      "d": 544.0417499999967,
      "v": 115
    },
    {
      "midi": 57,
      "hit": false,
      "t": 48497.43599999995,
      "d": 544.0417499999967,
      "v": 115
    },
    {
      "midi": 60,
      "hit": false,
      "t": 48497.43599999995,
      "d": 544.0417499999967,
      "v": 115
    },
    {
      "midi": 65,
      "hit": false,
      "t": 48497.43599999995,
      "d": 544.0417499999967,
      "v": 115
    },
    {
      "midi": 53,
      "hit": false,
      "t": 49274.63849999995,
      "d": 155.44049999999697,
      "v": 115
    },
    {
      "midi": 53,
      "hit": false,
      "t": 49430.07899999995,
      "d": 310.8810000000012,
      "v": 120
    },
    {
      "midi": 57,
      "hit": false,
      "t": 49430.07899999995,
      "d": 310.8810000000012,
      "v": 120
    },
    {
      "midi": 60,
      "hit": false,
      "t": 49430.07899999995,
      "d": 310.8810000000012,
      "v": 120
    },
    {
      "midi": 65,
      "hit": false,
      "t": 49430.07899999995,
      "d": 310.8810000000012,
      "v": 120
    },
    {
      "midi": 55,
      "hit": false,
      "t": 49740.95999999995,
      "d": 544.0417499999967,
      "v": 115
    },
    {
      "midi": 60,
      "hit": false,
      "t": 49740.95999999995,
      "d": 544.0417499999967,
      "v": 115
    },
    {
      "midi": 64,
      "hit": false,
      "t": 49740.95999999995,
      "d": 544.0417499999967,
      "v": 115
    },
    {
      "midi": 67,
      "hit": false,
      "t": 49740.95999999995,
      "d": 544.0417499999967,
      "v": 115
    },
    {
      "midi": 48,
      "hit": false,
      "t": 50518.16249999995,
      "d": 155.44049999999697,
      "v": 115
    },
    {
      "midi": 55,
      "hit": false,
      "t": 50673.602999999945,
      "d": 310.8810000000012,
      "v": 120
    },
    {
      "midi": 60,
      "hit": false,
      "t": 50673.602999999945,
      "d": 310.8810000000012,
      "v": 120
    },
    {
      "midi": 64,
      "hit": false,
      "t": 50673.602999999945,
      "d": 310.8810000000012,
      "v": 120
    },
    {
      "midi": 57,
      "hit": false,
      "t": 50984.483999999946,
      "d": 129.53375000000233,
      "v": 115
    },
    {
      "midi": 62,
      "hit": false,
      "t": 50984.483999999946,
      "d": 129.53375000000233,
      "v": 115
    },
    {
      "midi": 65,
      "hit": false,
      "t": 50984.483999999946,
      "d": 129.53375000000233,
      "v": 115
    },
    {
      "midi": 57,
      "hit": false,
      "t": 51295.36499999995,
      "d": 129.53375000000233,
      "v": 115
    },
    {
      "midi": 62,
      "hit": false,
      "t": 51450.80549999995,
      "d": 129.53375000000233,
      "v": 105
    },
    {
      "midi": 55,
      "hit": false,
      "t": 51606.245999999956,
      "d": 129.53375000000233,
      "v": 115
    },
    {
      "midi": 59,
      "hit": false,
      "t": 51606.245999999956,
      "d": 129.53375000000233,
      "v": 115
    },
    {
      "midi": 62,
      "hit": false,
      "t": 51606.245999999956,
      "d": 129.53375000000233,
      "v": 115
    },
    {
      "midi": 65,
      "hit": false,
      "t": 51606.245999999956,
      "d": 129.53375000000233,
      "v": 115
    },
    {
      "midi": 67,
      "hit": false,
      "t": 51606.245999999956,
      "d": 129.53375000000233,
      "v": 115
    },
    {
      "midi": 59,
      "hit": false,
      "t": 51917.12699999996,
      "d": 129.53375000000233,
      "v": 115
    },
    {
      "midi": 62,
      "hit": false,
      "t": 52072.56749999996,
      "d": 129.53375000000233,
      "v": 105
    },
    {
      "midi": 55,
      "hit": false,
      "t": 52228.007999999965,
      "d": 544.0417499999967,
      "v": 115
    },
    {
      "midi": 60,
      "hit": false,
      "t": 52228.007999999965,
      "d": 544.0417499999967,
      "v": 115
    },
    {
      "midi": 64,
      "hit": false,
      "t": 52228.007999999965,
      "d": 544.0417499999967,
      "v": 115
    },
    {
      "midi": 67,
      "hit": false,
      "t": 52228.007999999965,
      "d": 544.0417499999967,
      "v": 115
    },
    {
      "midi": 55,
      "hit": false,
      "t": 53005.210499999965,
      "d": 155.44049999999697,
      "v": 105
    },
    {
      "midi": 60,
      "hit": false,
      "t": 53160.65099999996,
      "d": 155.44049999999697,
      "v": 110
    },
    {
      "midi": 64,
      "hit": false,
      "t": 53316.09149999996,
      "d": 155.44049999999697,
      "v": 115
    },
    {
      "midi": 48,
      "hit": false,
      "t": 53471.531999999956,
      "d": 544.0417499999967,
      "v": 115
    },
    {
      "midi": 58,
      "hit": false,
      "t": 53471.531999999956,
      "d": 544.0417499999967,
      "v": 115
    },
    {
      "midi": 60,
      "hit": false,
      "t": 53471.531999999956,
      "d": 544.0417499999967,
      "v": 115
    },
    {
      "midi": 64,
      "hit": false,
      "t": 53471.531999999956,
      "d": 544.0417499999967,
      "v": 115
    },
    {
      "midi": 67,
      "hit": false,
      "t": 53471.531999999956,
      "d": 544.0417499999967,
      "v": 115
    },
    {
      "midi": 57,
      "hit": false,
      "t": 54715.05599999995,
      "d": 544.0417499999967,
      "v": 115
    },
    {
      "midi": 60,
      "hit": false,
      "t": 54715.05599999995,
      "d": 544.0417499999967,
      "v": 115
    },
    {
      "midi": 65,
      "hit": false,
      "t": 54715.05599999995,
      "d": 544.0417499999967,
      "v": 115
    },
    {
      "midi": 69,
      "hit": false,
      "t": 54715.05599999995,
      "d": 544.0417499999967,
      "v": 115
    },
    {
      "midi": 55,
      "hit": false,
      "t": 55958.57999999995,
      "d": 544.0417499999967,
      "v": 115
    },
    {
      "midi": 59,
      "hit": false,
      "t": 55958.57999999995,
      "d": 544.0417499999967,
      "v": 115
    },
    {
      "midi": 62,
      "hit": false,
      "t": 55958.57999999995,
      "d": 544.0417499999967,
      "v": 115
    },
    {
      "midi": 65,
      "hit": false,
      "t": 55958.57999999995,
      "d": 544.0417499999967,
      "v": 115
    },
    {
      "midi": 67,
      "hit": false,
      "t": 55958.57999999995,
      "d": 544.0417499999967,
      "v": 115
    },
    {
      "midi": 55,
      "hit": false,
      "t": 56735.78249999995,
      "d": 155.44049999999697,
      "v": 115
    },
    {
      "midi": 55,
      "hit": false,
      "t": 56891.22299999995,
      "d": 310.8810000000012,
      "v": 120
    },
    {
      "midi": 59,
      "hit": false,
      "t": 56891.22299999995,
      "d": 310.8810000000012,
      "v": 120
    },
    {
      "midi": 62,
      "hit": false,
      "t": 56891.22299999995,
      "d": 310.8810000000012,
      "v": 120
    },
    {
      "midi": 65,
      "hit": false,
      "t": 56891.22299999995,
      "d": 310.8810000000012,
      "v": 120
    },
    {
      "midi": 67,
      "hit": false,
      "t": 56891.22299999995,
      "d": 310.8810000000012,
      "v": 120
    },
    {
      "midi": 55,
      "hit": false,
      "t": 57202.10399999995,
      "d": 544.0417499999967,
      "v": 115
    },
    {
      "midi": 60,
      "hit": false,
      "t": 57202.10399999995,
      "d": 544.0417499999967,
      "v": 115
    },
    {
      "midi": 64,
      "hit": false,
      "t": 57202.10399999995,
      "d": 544.0417499999967,
      "v": 115
    },
    {
      "midi": 67,
      "hit": false,
      "t": 57202.10399999995,
      "d": 544.0417499999967,
      "v": 115
    },
    {
      "midi": 55,
      "hit": false,
      "t": 57979.30649999995,
      "d": 155.44049999999697,
      "v": 105
    },
    {
      "midi": 60,
      "hit": false,
      "t": 58134.746999999945,
      "d": 155.44049999999697,
      "v": 110
    },
    {
      "midi": 64,
      "hit": false,
      "t": 58290.18749999994,
      "d": 155.44049999999697,
      "v": 115
    },
    {
      "midi": 57,
      "hit": false,
      "t": 58445.62799999994,
      "d": 544.0417499999967,
      "v": 115
    },
    {
      "midi": 60,
      "hit": false,
      "t": 58445.62799999994,
      "d": 544.0417499999967,
      "v": 115
    },
    {
      "midi": 65,
      "hit": false,
      "t": 58445.62799999994,
      "d": 544.0417499999967,
      "v": 115
    },
    {
      "midi": 69,
      "hit": false,
      "t": 58445.62799999994,
      "d": 544.0417499999967,
      "v": 115
    },
    {
      "midi": 53,
      "hit": false,
      "t": 59222.83049999994,
      "d": 155.44049999999697,
      "v": 115
    },
    {
      "midi": 57,
      "hit": false,
      "t": 59378.270999999935,
      "d": 310.8810000000012,
      "v": 120
    },
    {
      "midi": 60,
      "hit": false,
      "t": 59378.270999999935,
      "d": 310.8810000000012,
      "v": 120
    },
    {
      "midi": 65,
      "hit": false,
      "t": 59378.270999999935,
      "d": 310.8810000000012,
      "v": 120
    },
    {
      "midi": 55,
      "hit": false,
      "t": 59689.15199999994,
      "d": 544.0417499999967,
      "v": 115
    },
    {
      "midi": 60,
      "hit": false,
      "t": 59689.15199999994,
      "d": 544.0417499999967,
      "v": 115
    },
    {
      "midi": 64,
      "hit": false,
      "t": 59689.15199999994,
      "d": 544.0417499999967,
      "v": 115
    },
    {
      "midi": 48,
      "hit": false,
      "t": 60466.354499999936,
      "d": 155.44049999999697,
      "v": 115
    },
    {
      "midi": 55,
      "hit": false,
      "t": 60621.79499999993,
      "d": 310.8810000000012,
      "v": 120
    },
    {
      "midi": 60,
      "hit": false,
      "t": 60621.79499999993,
      "d": 310.8810000000012,
      "v": 120
    },
    {
      "midi": 64,
      "hit": false,
      "t": 60621.79499999993,
      "d": 310.8810000000012,
      "v": 120
    },
    {
      "midi": 67,
      "hit": false,
      "t": 60621.79499999993,
      "d": 310.8810000000012,
      "v": 120
    },
    {
      "midi": 55,
      "hit": false,
      "t": 60932.675999999934,
      "d": 544.0417499999967,
      "v": 115
    },
    {
      "midi": 59,
      "hit": false,
      "t": 60932.675999999934,
      "d": 544.0417499999967,
      "v": 115
    },
    {
      "midi": 62,
      "hit": false,
      "t": 60932.675999999934,
      "d": 544.0417499999967,
      "v": 115
    },
    {
      "midi": 67,
      "hit": false,
      "t": 60932.675999999934,
      "d": 544.0417499999967,
      "v": 115
    },
    {
      "midi": 55,
      "hit": false,
      "t": 61709.87849999993,
      "d": 155.44049999999697,
      "v": 105
    },
    {
      "midi": 59,
      "hit": false,
      "t": 61865.31899999993,
      "d": 155.44049999999697,
      "v": 110
    },
    {
      "midi": 62,
      "hit": false,
      "t": 62020.75949999993,
      "d": 155.44049999999697,
      "v": 115
    },
    {
      "midi": 48,
      "hit": false,
      "t": 62176.199999999924,
      "d": 544.0417499999967,
      "v": 120
    },
    {
      "midi": 55,
      "hit": false,
      "t": 62176.199999999924,
      "d": 544.0417499999967,
      "v": 120
    },
    {
      "midi": 60,
      "hit": false,
      "t": 62176.199999999924,
      "d": 544.0417499999967,
      "v": 120
    },
    {
      "midi": 64,
      "hit": false,
      "t": 62176.199999999924,
      "d": 544.0417499999967,
      "v": 120
    },
    {
      "midi": 67,
      "hit": false,
      "t": 62176.199999999924,
      "d": 544.0417499999967,
      "v": 120
    },
    {
      "midi": 57,
      "hit": false,
      "t": 62797.96199999992,
      "d": 129.53375000000233,
      "v": 115
    },
    {
      "midi": 60,
      "hit": false,
      "t": 62797.96199999992,
      "d": 129.53375000000233,
      "v": 115
    },
    {
      "midi": 65,
      "hit": false,
      "t": 62797.96199999992,
      "d": 129.53375000000233,
      "v": 115
    },
    {
      "midi": 69,
      "hit": false,
      "t": 62797.96199999992,
      "d": 129.53375000000233,
      "v": 115
    },
    {
      "midi": 53,
      "hit": false,
      "t": 62953.402499999924,
      "d": 155.44049999999697,
      "v": 115
    },
    {
      "midi": 57,
      "hit": false,
      "t": 63108.84299999992,
      "d": 155.44049999999697,
      "v": 105
    },
    {
      "midi": 57,
      "hit": false,
      "t": 63264.28349999992,
      "d": 129.53375000000233,
      "v": 110
    },
    {
      "midi": 60,
      "hit": false,
      "t": 63264.28349999992,
      "d": 129.53375000000233,
      "v": 110
    },
    {
      "midi": 65,
      "hit": false,
      "t": 63264.28349999992,
      "d": 129.53375000000233,
      "v": 110
    },
    {
      "midi": 69,
      "hit": false,
      "t": 63264.28349999992,
      "d": 129.53375000000233,
      "v": 110
    },
    {
      "midi": 55,
      "hit": false,
      "t": 63419.72399999992,
      "d": 129.53375000000233,
      "v": 115
    },
    {
      "midi": 60,
      "hit": false,
      "t": 63419.72399999992,
      "d": 129.53375000000233,
      "v": 115
    },
    {
      "midi": 64,
      "hit": false,
      "t": 63419.72399999992,
      "d": 129.53375000000233,
      "v": 115
    },
    {
      "midi": 48,
      "hit": false,
      "t": 63575.164499999926,
      "d": 155.44049999999697,
      "v": 115
    },
    {
      "midi": 55,
      "hit": false,
      "t": 63730.60499999992,
      "d": 155.44049999999697,
      "v": 105
    },
    {
      "midi": 55,
      "hit": false,
      "t": 63886.04549999992,
      "d": 129.53375000000233,
      "v": 110
    },
    {
      "midi": 60,
      "hit": false,
      "t": 63886.04549999992,
      "d": 129.53375000000233,
      "v": 110
    },
    {
      "midi": 64,
      "hit": false,
      "t": 63886.04549999992,
      "d": 129.53375000000233,
      "v": 110
    },
    {
      "midi": 67,
      "hit": false,
      "t": 63886.04549999992,
      "d": 129.53375000000233,
      "v": 110
    },
    {
      "midi": 57,
      "hit": false,
      "t": 64041.485999999924,
      "d": 129.53375000000233,
      "v": 115
    },
    {
      "midi": 60,
      "hit": false,
      "t": 64041.485999999924,
      "d": 129.53375000000233,
      "v": 115
    },
    {
      "midi": 65,
      "hit": false,
      "t": 64041.485999999924,
      "d": 129.53375000000233,
      "v": 115
    },
    {
      "midi": 69,
      "hit": false,
      "t": 64041.485999999924,
      "d": 129.53375000000233,
      "v": 115
    },
    {
      "midi": 53,
      "hit": false,
      "t": 64196.92649999993,
      "d": 155.44049999999697,
      "v": 115
    },
    {
      "midi": 57,
      "hit": false,
      "t": 64352.366999999926,
      "d": 155.44049999999697,
      "v": 105
    },
    {
      "midi": 57,
      "hit": false,
      "t": 64507.80749999992,
      "d": 129.53375000000233,
      "v": 110
    },
    {
      "midi": 60,
      "hit": false,
      "t": 64507.80749999992,
      "d": 129.53375000000233,
      "v": 110
    },
    {
      "midi": 65,
      "hit": false,
      "t": 64507.80749999992,
      "d": 129.53375000000233,
      "v": 110
    },
    {
      "midi": 48,
      "hit": false,
      "t": 64663.24799999993,
      "d": 129.53375000000233,
      "v": 115
    },
    {
      "midi": 55,
      "hit": false,
      "t": 64663.24799999993,
      "d": 129.53375000000233,
      "v": 115
    },
    {
      "midi": 60,
      "hit": false,
      "t": 64663.24799999993,
      "d": 129.53375000000233,
      "v": 115
    },
    {
      "midi": 64,
      "hit": false,
      "t": 64663.24799999993,
      "d": 129.53375000000233,
      "v": 115
    },
    {
      "midi": 67,
      "hit": false,
      "t": 64663.24799999993,
      "d": 129.53375000000233,
      "v": 115
    },
    {
      "midi": 55,
      "hit": false,
      "t": 64974.12899999993,
      "d": 129.53375000000233,
      "v": 115
    },
    {
      "midi": 60,
      "hit": false,
      "t": 65129.56949999993,
      "d": 129.53375000000233,
      "v": 105
    },
    {
      "midi": 53,
      "hit": false,
      "t": 65285.00999999994,
      "d": 129.53375000000233,
      "v": 115
    },
    {
      "midi": 57,
      "hit": false,
      "t": 65285.00999999994,
      "d": 129.53375000000233,
      "v": 115
    },
    {
      "midi": 60,
      "hit": false,
      "t": 65285.00999999994,
      "d": 129.53375000000233,
      "v": 115
    },
    {
      "midi": 65,
      "hit": false,
      "t": 65285.00999999994,
      "d": 129.53375000000233,
      "v": 115
    },
    {
      "midi": 69,
      "hit": false,
      "t": 65285.00999999994,
      "d": 129.53375000000233,
      "v": 115
    },
    {
      "midi": 57,
      "hit": false,
      "t": 65595.89099999995,
      "d": 129.53375000000233,
      "v": 115
    },
    {
      "midi": 60,
      "hit": false,
      "t": 65751.33149999994,
      "d": 129.53375000000233,
      "v": 105
    },
    {
      "midi": 67,
      "hit": false,
      "t": 65906.77199999994,
      "d": 129.53375000000233,
      "v": 115
    },
    {
      "midi": 72,
      "hit": false,
      "t": 65906.77199999994,
      "d": 129.53375000000233,
      "v": 115
    },
    {
      "midi": 76,
      "hit": false,
      "t": 65906.77199999994,
      "d": 129.53375000000233,
      "v": 115
    },
    {
      "midi": 79,
      "hit": false,
      "t": 65906.77199999994,
      "d": 129.53375000000233,
      "v": 115
    },
    {
      "midi": 67,
      "hit": false,
      "t": 66217.65299999995,
      "d": 129.53375000000233,
      "v": 115
    },
    {
      "midi": 72,
      "hit": false,
      "t": 66373.09349999994,
      "d": 129.53375000000233,
      "v": 105
    },
    {
      "midi": 67,
      "hit": false,
      "t": 66528.53399999994,
      "d": 129.53375000000233,
      "v": 115
    },
    {
      "midi": 71,
      "hit": false,
      "t": 66528.53399999994,
      "d": 129.53375000000233,
      "v": 115
    },
    {
      "midi": 74,
      "hit": false,
      "t": 66528.53399999994,
      "d": 129.53375000000233,
      "v": 115
    },
    {
      "midi": 79,
      "hit": false,
      "t": 66528.53399999994,
      "d": 129.53375000000233,
      "v": 115
    },
    {
      "midi": 67,
      "hit": false,
      "t": 66839.41499999995,
      "d": 129.53375000000233,
      "v": 115
    },
    {
      "midi": 71,
      "hit": false,
      "t": 66994.85549999995,
      "d": 129.53375000000233,
      "v": 105
    },
    {
      "midi": 67,
      "hit": false,
      "t": 67150.29599999994,
      "d": 544.041750000004,
      "v": 115
    },
    {
      "midi": 72,
      "hit": false,
      "t": 67150.29599999994,
      "d": 544.041750000004,
      "v": 115
    },
    {
      "midi": 76,
      "hit": false,
      "t": 67150.29599999994,
      "d": 544.041750000004,
      "v": 115
    },
    {
      "midi": 67,
      "hit": false,
      "t": 67927.49849999994,
      "d": 155.44049999999697,
      "v": 105
    },
    {
      "midi": 72,
      "hit": false,
      "t": 68082.93899999994,
      "d": 155.44049999999697,
      "v": 110
    },
    {
      "midi": 76,
      "hit": false,
      "t": 68238.37949999994,
      "d": 155.44049999999697,
      "v": 115
    },
    {
      "midi": 67,
      "hit": false,
      "t": 68393.81999999993,
      "d": 544.041750000004,
      "v": 115
    },
    {
      "midi": 71,
      "hit": false,
      "t": 68393.81999999993,
      "d": 544.041750000004,
      "v": 115
    },
    {
      "midi": 74,
      "hit": false,
      "t": 68393.81999999993,
      "d": 544.041750000004,
      "v": 115
    },
    {
      "midi": 67,
      "hit": false,
      "t": 69171.02249999993,
      "d": 155.44049999999697,
      "v": 105
    },
    {
      "midi": 71,
      "hit": false,
      "t": 69326.46299999993,
      "d": 155.44049999999697,
      "v": 110
    },
    {
      "midi": 74,
      "hit": false,
      "t": 69481.90349999993,
      "d": 155.44049999999697,
      "v": 115
    },
    {
      "midi": 67,
      "hit": false,
      "t": 69637.34399999992,
      "d": 544.041750000004,
      "v": 115
    },
    {
      "midi": 72,
      "hit": false,
      "t": 69637.34399999992,
      "d": 544.041750000004,
      "v": 115
    },
    {
      "midi": 76,
      "hit": false,
      "t": 69637.34399999992,
      "d": 544.041750000004,
      "v": 115
    },
    {
      "midi": 60,
      "hit": false,
      "t": 70880.86799999993,
      "d": 544.041750000004,
      "v": 115
    },
    {
      "midi": 67,
      "hit": false,
      "t": 70880.86799999993,
      "d": 544.041750000004,
      "v": 115
    },
    {
      "midi": 72,
      "hit": false,
      "t": 70880.86799999993,
      "d": 544.041750000004,
      "v": 115
    },
    {
      "midi": 76,
      "hit": false,
      "t": 70880.86799999993,
      "d": 544.041750000004,
      "v": 115
    },
    {
      "midi": 60,
      "hit": false,
      "t": 71658.07049999993,
      "d": 155.44049999999697,
      "v": 115
    },
    {
      "midi": 60,
      "hit": false,
      "t": 71813.51099999993,
      "d": 310.88099999999395,
      "v": 120
    },
    {
      "midi": 67,
      "hit": false,
      "t": 71813.51099999993,
      "d": 310.88099999999395,
      "v": 120
    },
    {
      "midi": 72,
      "hit": false,
      "t": 71813.51099999993,
      "d": 310.88099999999395,
      "v": 120
    },
    {
      "midi": 76,
      "hit": false,
      "t": 71813.51099999993,
      "d": 310.88099999999395,
      "v": 120
    },
    {
      "midi": 67,
      "hit": false,
      "t": 72124.39199999992,
      "d": 129.53375000000233,
      "v": 115
    },
    {
      "midi": 71,
      "hit": false,
      "t": 72124.39199999992,
      "d": 129.53375000000233,
      "v": 115
    },
    {
      "midi": 76,
      "hit": false,
      "t": 72124.39199999992,
      "d": 129.53375000000233,
      "v": 115
    },
    {
      "midi": 79,
      "hit": false,
      "t": 72124.39199999992,
      "d": 129.53375000000233,
      "v": 115
    },
    {
      "midi": 64,
      "hit": false,
      "t": 72279.83249999992,
      "d": 155.44049999999697,
      "v": 105
    },
    {
      "midi": 67,
      "hit": false,
      "t": 72435.27299999991,
      "d": 155.44049999999697,
      "v": 110
    },
    {
      "midi": 71,
      "hit": false,
      "t": 72590.71349999991,
      "d": 155.44049999999697,
      "v": 105
    },
    {
      "midi": 60,
      "hit": false,
      "t": 72746.15399999991,
      "d": 129.53375000000233,
      "v": 115
    },
    {
      "midi": 67,
      "hit": false,
      "t": 72746.15399999991,
      "d": 129.53375000000233,
      "v": 115
    },
    {
      "midi": 72,
      "hit": false,
      "t": 72746.15399999991,
      "d": 129.53375000000233,
      "v": 115
    },
    {
      "midi": 76,
      "hit": false,
      "t": 72746.15399999991,
      "d": 129.53375000000233,
      "v": 115
    },
    {
      "midi": 79,
      "hit": false,
      "t": 72746.15399999991,
      "d": 129.53375000000233,
      "v": 115
    },
    {
      "midi": 60,
      "hit": false,
      "t": 72901.5944999999,
      "d": 155.44049999999697,
      "v": 115
    },
    {
      "midi": 67,
      "hit": false,
      "t": 73057.0349999999,
      "d": 155.44049999999697,
      "v": 105
    },
    {
      "midi": 67,
      "hit": false,
      "t": 73212.4754999999,
      "d": 129.53375000000233,
      "v": 110
    },
    {
      "midi": 72,
      "hit": false,
      "t": 73212.4754999999,
      "d": 129.53375000000233,
      "v": 110
    },
    {
      "midi": 76,
      "hit": false,
      "t": 73212.4754999999,
      "d": 129.53375000000233,
      "v": 110
    },
    {
      "midi": 69,
      "hit": false,
      "t": 73367.9159999999,
      "d": 129.53375000000233,
      "v": 115
    },
    {
      "midi": 74,
      "hit": false,
      "t": 73367.9159999999,
      "d": 129.53375000000233,
      "v": 115
    },
    {
      "midi": 77,
      "hit": false,
      "t": 73367.9159999999,
      "d": 129.53375000000233,
      "v": 115
    },
    {
      "midi": 69,
      "hit": false,
      "t": 73678.7969999999,
      "d": 129.53375000000233,
      "v": 115
    },
    {
      "midi": 74,
      "hit": false,
      "t": 73834.2374999999,
      "d": 129.53375000000233,
      "v": 105
    },
    {
      "midi": 67,
      "hit": false,
      "t": 73989.6779999999,
      "d": 129.53375000000233,
      "v": 115
    },
    {
      "midi": 71,
      "hit": false,
      "t": 73989.6779999999,
      "d": 129.53375000000233,
      "v": 115
    },
    {
      "midi": 74,
      "hit": false,
      "t": 73989.6779999999,
      "d": 129.53375000000233,
      "v": 115
    },
    {
      "midi": 79,
      "hit": false,
      "t": 73989.6779999999,
      "d": 129.53375000000233,
      "v": 115
    },
    {
      "midi": 67,
      "hit": false,
      "t": 74300.5589999999,
      "d": 129.53375000000233,
      "v": 115
    },
    {
      "midi": 71,
      "hit": false,
      "t": 74455.9994999999,
      "d": 129.53375000000233,
      "v": 105
    },
    {
      "midi": 67,
      "hit": false,
      "t": 74611.4399999999,
      "d": 129.53375000000233,
      "v": 115
    },
    {
      "midi": 72,
      "hit": false,
      "t": 74611.4399999999,
      "d": 129.53375000000233,
      "v": 115
    },
    {
      "midi": 76,
      "hit": false,
      "t": 74611.4399999999,
      "d": 129.53375000000233,
      "v": 115
    },
    {
      "midi": 79,
      "hit": false,
      "t": 74611.4399999999,
      "d": 129.53375000000233,
      "v": 115
    },
    {
      "midi": 60,
      "hit": false,
      "t": 74766.8804999999,
      "d": 155.44049999999697,
      "v": 115
    },
    {
      "midi": 67,
      "hit": false,
      "t": 74922.3209999999,
      "d": 155.44049999999697,
      "v": 105
    },
    {
      "midi": 67,
      "hit": false,
      "t": 75077.76149999989,
      "d": 129.53375000000233,
      "v": 110
    },
    {
      "midi": 72,
      "hit": false,
      "t": 75077.76149999989,
      "d": 129.53375000000233,
      "v": 110
    },
    {
      "midi": 76,
      "hit": false,
      "t": 75077.76149999989,
      "d": 129.53375000000233,
      "v": 110
    },
    {
      "midi": 67,
      "hit": false,
      "t": 75233.20199999989,
      "d": 544.041750000004,
      "v": 120
    },
    {
      "midi": 71,
      "hit": false,
      "t": 75233.20199999989,
      "d": 544.041750000004,
      "v": 120
    },
    {
      "midi": 76,
      "hit": false,
      "t": 75233.20199999989,
      "d": 544.041750000004,
      "v": 120
    },
    {
      "midi": 60,
      "hit": false,
      "t": 75854.96399999989,
      "d": 129.53375000000233,
      "v": 115
    },
    {
      "midi": 67,
      "hit": false,
      "t": 75854.96399999989,
      "d": 129.53375000000233,
      "v": 115
    },
    {
      "midi": 72,
      "hit": false,
      "t": 75854.96399999989,
      "d": 129.53375000000233,
      "v": 115
    },
    {
      "midi": 76,
      "hit": false,
      "t": 75854.96399999989,
      "d": 129.53375000000233,
      "v": 115
    },
    {
      "midi": 79,
      "hit": false,
      "t": 75854.96399999989,
      "d": 129.53375000000233,
      "v": 115
    },
    {
      "midi": 60,
      "hit": false,
      "t": 76010.40449999989,
      "d": 155.44049999999697,
      "v": 105
    },
    {
      "midi": 67,
      "hit": false,
      "t": 76165.84499999988,
      "d": 155.44049999999697,
      "v": 110
    },
    {
      "midi": 72,
      "hit": false,
      "t": 76321.28549999988,
      "d": 155.44049999999697,
      "v": 105
    },
    {
      "midi": 70,
      "hit": false,
      "t": 76476.72599999988,
      "d": 129.53375000000233,
      "v": 115
    },
    {
      "midi": 74,
      "hit": false,
      "t": 76476.72599999988,
      "d": 129.53375000000233,
      "v": 115
    },
    {
      "midi": 77,
      "hit": false,
      "t": 76476.72599999988,
      "d": 129.53375000000233,
      "v": 115
    },
    {
      "midi": 82,
      "hit": false,
      "t": 76476.72599999988,
      "d": 129.53375000000233,
      "v": 115
    },
    {
      "midi": 58,
      "hit": false,
      "t": 76632.16649999988,
      "d": 155.44049999999697,
      "v": 105
    },
    {
      "midi": 70,
      "hit": false,
      "t": 76787.60699999987,
      "d": 155.44049999999697,
      "v": 110
    },
    {
      "midi": 74,
      "hit": false,
      "t": 76943.04749999987,
      "d": 155.44049999999697,
      "v": 105
    },
    {
      "midi": 69,
      "hit": false,
      "t": 77098.48799999987,
      "d": 129.53375000000233,
      "v": 115
    },
    {
      "midi": 72,
      "hit": false,
      "t": 77098.48799999987,
      "d": 129.53375000000233,
      "v": 115
    },
    {
      "midi": 77,
      "hit": false,
      "t": 77098.48799999987,
      "d": 129.53375000000233,
      "v": 115
    },
    {
      "midi": 81,
      "hit": false,
      "t": 77098.48799999987,
      "d": 129.53375000000233,
      "v": 115
    },
    {
      "midi": 65,
      "hit": false,
      "t": 77253.92849999986,
      "d": 155.44049999999697,
      "v": 105
    },
    {
      "midi": 69,
      "hit": false,
      "t": 77409.36899999986,
      "d": 155.44049999999697,
      "v": 110
    },
    {
      "midi": 72,
      "hit": false,
      "t": 77564.80949999986,
      "d": 155.44049999999697,
      "v": 105
    },
    {
      "midi": 69,
      "hit": false,
      "t": 77720.24999999985,
      "d": 129.53375000000233,
      "v": 115
    },
    {
      "midi": 74,
      "hit": false,
      "t": 77720.24999999985,
      "d": 129.53375000000233,
      "v": 115
    },
    {
      "midi": 77,
      "hit": false,
      "t": 77720.24999999985,
      "d": 129.53375000000233,
      "v": 115
    },
    {
      "midi": 81,
      "hit": false,
      "t": 77720.24999999985,
      "d": 129.53375000000233,
      "v": 115
    },
    {
      "midi": 62,
      "hit": false,
      "t": 77875.69049999985,
      "d": 155.44049999999697,
      "v": 115
    },
    {
      "midi": 69,
      "hit": false,
      "t": 78031.13099999985,
      "d": 155.44049999999697,
      "v": 105
    },
    {
      "midi": 69,
      "hit": false,
      "t": 78186.57149999985,
      "d": 129.53375000000233,
      "v": 110
    },
    {
      "midi": 74,
      "hit": false,
      "t": 78186.57149999985,
      "d": 129.53375000000233,
      "v": 110
    },
    {
      "midi": 77,
      "hit": false,
      "t": 78186.57149999985,
      "d": 129.53375000000233,
      "v": 110
    },
    {
      "midi": 81,
      "hit": false,
      "t": 78186.57149999985,
      "d": 129.53375000000233,
      "v": 110
    },
    {
      "midi": 67,
      "hit": false,
      "t": 78342.01199999984,
      "d": 544.041750000004,
      "v": 115
    },
    {
      "midi": 71,
      "hit": false,
      "t": 78342.01199999984,
      "d": 544.041750000004,
      "v": 115
    },
    {
      "midi": 74,
      "hit": false,
      "t": 78342.01199999984,
      "d": 544.041750000004,
      "v": 115
    },
    {
      "midi": 77,
      "hit": false,
      "t": 78342.01199999984,
      "d": 544.041750000004,
      "v": 115
    },
    {
      "midi": 79,
      "hit": false,
      "t": 78342.01199999984,
      "d": 544.041750000004,
      "v": 115
    },
    {
      "midi": 60,
      "hit": false,
      "t": 79585.53599999985,
      "d": 129.53375000000233,
      "v": 115
    },
    {
      "midi": 67,
      "hit": false,
      "t": 79585.53599999985,
      "d": 129.53375000000233,
      "v": 115
    },
    {
      "midi": 72,
      "hit": false,
      "t": 79585.53599999985,
      "d": 129.53375000000233,
      "v": 115
    },
    {
      "midi": 76,
      "hit": false,
      "t": 79585.53599999985,
      "d": 129.53375000000233,
      "v": 115
    },
    {
      "midi": 67,
      "hit": false,
      "t": 79896.41699999986,
      "d": 129.53375000000233,
      "v": 115
    },
    {
      "midi": 72,
      "hit": false,
      "t": 80051.85749999985,
      "d": 129.53375000000233,
      "v": 105
    },
    {
      "midi": 70,
      "hit": false,
      "t": 80207.29799999985,
      "d": 129.53375000000233,
      "v": 115
    },
    {
      "midi": 74,
      "hit": false,
      "t": 80207.29799999985,
      "d": 129.53375000000233,
      "v": 115
    },
    {
      "midi": 77,
      "hit": false,
      "t": 80207.29799999985,
      "d": 129.53375000000233,
      "v": 115
    },
    {
      "midi": 82,
      "hit": false,
      "t": 80207.29799999985,
      "d": 129.53375000000233,
      "v": 115
    },
    {
      "midi": 58,
      "hit": false,
      "t": 80362.73849999985,
      "d": 155.44049999999697,
      "v": 115
    },
    {
      "midi": 70,
      "hit": false,
      "t": 80518.17899999984,
      "d": 155.44049999999697,
      "v": 105
    },
    {
      "midi": 58,
      "hit": false,
      "t": 80673.61949999984,
      "d": 129.53375000000233,
      "v": 110
    },
    {
      "midi": 70,
      "hit": false,
      "t": 80673.61949999984,
      "d": 129.53375000000233,
      "v": 110
    },
    {
      "midi": 74,
      "hit": false,
      "t": 80673.61949999984,
      "d": 129.53375000000233,
      "v": 110
    },
    {
      "midi": 77,
      "hit": false,
      "t": 80673.61949999984,
      "d": 129.53375000000233,
      "v": 110
    },
    {
      "midi": 69,
      "hit": false,
      "t": 80829.05999999984,
      "d": 544.041750000004,
      "v": 115
    },
    {
      "midi": 73,
      "hit": false,
      "t": 80829.05999999984,
      "d": 544.041750000004,
      "v": 115
    },
    {
      "midi": 76,
      "hit": false,
      "t": 80829.05999999984,
      "d": 544.041750000004,
      "v": 115
    },
    {
      "midi": 81,
      "hit": false,
      "t": 80829.05999999984,
      "d": 544.041750000004,
      "v": 115
    },
    {
      "midi": 69,
      "hit": false,
      "t": 81606.26249999984,
      "d": 155.44049999999697,
      "v": 105
    },
    {
      "midi": 73,
      "hit": false,
      "t": 81761.70299999983,
      "d": 155.44049999999697,
      "v": 110
    },
    {
      "midi": 76,
      "hit": false,
      "t": 81917.14349999983,
      "d": 155.44049999999697,
      "v": 115
    },
    {
      "midi": 62,
      "hit": false,
      "t": 82072.58399999983,
      "d": 544.041750000004,
      "v": 115
    },
    {
      "midi": 69,
      "hit": false,
      "t": 82072.58399999983,
      "d": 544.041750000004,
      "v": 115
    },
    {
      "midi": 74,
      "hit": false,
      "t": 82072.58399999983,
      "d": 544.041750000004,
      "v": 115
    },
    {
      "midi": 77,
      "hit": false,
      "t": 82072.58399999983,
      "d": 544.041750000004,
      "v": 115
    },
    {
      "midi": 62,
      "hit": false,
      "t": 82849.78649999983,
      "d": 155.44049999999697,
      "v": 115
    },
    {
      "midi": 69,
      "hit": false,
      "t": 83005.22699999982,
      "d": 310.88099999999395,
      "v": 120
    },
    {
      "midi": 74,
      "hit": false,
      "t": 83005.22699999982,
      "d": 310.88099999999395,
      "v": 120
    },
    {
      "midi": 77,
      "hit": false,
      "t": 83005.22699999982,
      "d": 310.88099999999395,
      "v": 120
    },
    {
      "midi": 72,
      "hit": false,
      "t": 83316.10799999982,
      "d": 544.041750000004,
      "v": 115
    },
    {
      "midi": 74,
      "hit": false,
      "t": 83316.10799999982,
      "d": 544.041750000004,
      "v": 115
    },
    {
      "midi": 77,
      "hit": false,
      "t": 83316.10799999982,
      "d": 544.041750000004,
      "v": 115
    },
    {
      "midi": 81,
      "hit": false,
      "t": 83316.10799999982,
      "d": 544.041750000004,
      "v": 115
    },
    {
      "midi": 72,
      "hit": false,
      "t": 84093.31049999982,
      "d": 155.44049999999697,
      "v": 105
    },
    {
      "midi": 74,
      "hit": false,
      "t": 84248.75099999981,
      "d": 155.44049999999697,
      "v": 110
    },
    {
      "midi": 77,
      "hit": false,
      "t": 84404.19149999981,
      "d": 155.44049999999697,
      "v": 115
    },
    {
      "midi": 67,
      "hit": false,
      "t": 84559.63199999981,
      "d": 544.041750000004,
      "v": 115
    },
    {
      "midi": 71,
      "hit": false,
      "t": 84559.63199999981,
      "d": 544.041750000004,
      "v": 115
    },
    {
      "midi": 74,
      "hit": false,
      "t": 84559.63199999981,
      "d": 544.041750000004,
      "v": 115
    },
    {
      "midi": 67,
      "hit": false,
      "t": 85336.83449999981,
      "d": 155.44049999999697,
      "v": 115
    },
    {
      "midi": 67,
      "hit": false,
      "t": 85492.2749999998,
      "d": 310.88099999999395,
      "v": 120
    },
    {
      "midi": 71,
      "hit": false,
      "t": 85492.2749999998,
      "d": 310.88099999999395,
      "v": 120
    },
    {
      "midi": 74,
      "hit": false,
      "t": 85492.2749999998,
      "d": 310.88099999999395,
      "v": 120
    },
    {
      "midi": 67,
      "hit": false,
      "t": 85803.1559999998,
      "d": 544.041750000004,
      "v": 115
    },
    {
      "midi": 71,
      "hit": false,
      "t": 85803.1559999998,
      "d": 544.041750000004,
      "v": 115
    },
    {
      "midi": 74,
      "hit": false,
      "t": 85803.1559999998,
      "d": 544.041750000004,
      "v": 115
    },
    {
      "midi": 77,
      "hit": false,
      "t": 85803.1559999998,
      "d": 544.041750000004,
      "v": 115
    },
    {
      "midi": 79,
      "hit": false,
      "t": 85803.1559999998,
      "d": 544.041750000004,
      "v": 115
    },
    {
      "midi": 71,
      "hit": false,
      "t": 86580.3584999998,
      "d": 155.44049999999697,
      "v": 105
    },
    {
      "midi": 74,
      "hit": false,
      "t": 86735.7989999998,
      "d": 155.44049999999697,
      "v": 110
    },
    {
      "midi": 77,
      "hit": false,
      "t": 86891.23949999979,
      "d": 155.44049999999697,
      "v": 115
    },
    {
      "midi": 60,
      "hit": false,
      "t": 87046.67999999979,
      "d": 544.041750000004,
      "v": 115
    },
    {
      "midi": 67,
      "hit": false,
      "t": 87046.67999999979,
      "d": 544.041750000004,
      "v": 115
    },
    {
      "midi": 72,
      "hit": false,
      "t": 87046.67999999979,
      "d": 544.041750000004,
      "v": 115
    },
    {
      "midi": 76,
      "hit": false,
      "t": 87046.67999999979,
      "d": 544.041750000004,
      "v": 115
    },
    {
      "midi": 79,
      "hit": false,
      "t": 87046.67999999979,
      "d": 544.041750000004,
      "v": 115
    },
    {
      "midi": 67,
      "hit": false,
      "t": 88290.2039999998,
      "d": 544.041750000004,
      "v": 115
    },
    {
      "midi": 71,
      "hit": false,
      "t": 88290.2039999998,
      "d": 544.041750000004,
      "v": 115
    },
    {
      "midi": 74,
      "hit": false,
      "t": 88290.2039999998,
      "d": 544.041750000004,
      "v": 115
    },
    {
      "midi": 67,
      "hit": false,
      "t": 89067.4064999998,
      "d": 155.44049999999697,
      "v": 105
    },
    {
      "midi": 71,
      "hit": false,
      "t": 89222.84699999979,
      "d": 155.44049999999697,
      "v": 110
    },
    {
      "midi": 74,
      "hit": false,
      "t": 89378.28749999979,
      "d": 155.44049999999697,
      "v": 115
    },
    {
      "midi": 67,
      "hit": false,
      "t": 89533.72799999978,
      "d": 544.041750000004,
      "v": 115
    },
    {
      "midi": 72,
      "hit": false,
      "t": 89533.72799999978,
      "d": 544.041750000004,
      "v": 115
    },
    {
      "midi": 76,
      "hit": false,
      "t": 89533.72799999978,
      "d": 544.041750000004,
      "v": 115
    },
    {
      "midi": 79,
      "hit": false,
      "t": 89533.72799999978,
      "d": 544.041750000004,
      "v": 115
    },
    {
      "midi": 60,
      "hit": false,
      "t": 90310.93049999978,
      "d": 155.44049999999697,
      "v": 115
    },
    {
      "midi": 67,
      "hit": false,
      "t": 90466.37099999978,
      "d": 310.88099999999395,
      "v": 120
    },
    {
      "midi": 72,
      "hit": false,
      "t": 90466.37099999978,
      "d": 310.88099999999395,
      "v": 120
    },
    {
      "midi": 76,
      "hit": false,
      "t": 90466.37099999978,
      "d": 310.88099999999395,
      "v": 120
    },
    {
      "midi": 60,
      "hit": false,
      "t": 90777.25199999977,
      "d": 544.041750000004,
      "v": 115
    },
    {
      "midi": 67,
      "hit": false,
      "t": 90777.25199999977,
      "d": 544.041750000004,
      "v": 115
    },
    {
      "midi": 72,
      "hit": false,
      "t": 90777.25199999977,
      "d": 544.041750000004,
      "v": 115
    },
    {
      "midi": 76,
      "hit": false,
      "t": 90777.25199999977,
      "d": 544.041750000004,
      "v": 115
    },
    {
      "midi": 79,
      "hit": false,
      "t": 90777.25199999977,
      "d": 544.041750000004,
      "v": 115
    },
    {
      "midi": 67,
      "hit": false,
      "t": 91554.45449999977,
      "d": 155.44049999999697,
      "v": 105
    },
    {
      "midi": 72,
      "hit": false,
      "t": 91709.89499999977,
      "d": 155.44049999999697,
      "v": 110
    },
    {
      "midi": 76,
      "hit": false,
      "t": 91865.33549999977,
      "d": 155.44049999999697,
      "v": 115
    },
    {
      "midi": 67,
      "hit": false,
      "t": 92020.77599999977,
      "d": 129.53375000000233,
      "v": 115
    },
    {
      "midi": 71,
      "hit": false,
      "t": 92020.77599999977,
      "d": 129.53375000000233,
      "v": 115
    },
    {
      "midi": 76,
      "hit": false,
      "t": 92020.77599999977,
      "d": 129.53375000000233,
      "v": 115
    },
    {
      "midi": 64,
      "hit": false,
      "t": 92176.21649999976,
      "d": 155.44049999999697,
      "v": 115
    },
    {
      "midi": 67,
      "hit": false,
      "t": 92331.65699999976,
      "d": 155.44049999999697,
      "v": 105
    },
    {
      "midi": 67,
      "hit": false,
      "t": 92487.09749999976,
      "d": 129.53375000000233,
      "v": 110
    },
    {
      "midi": 71,
      "hit": false,
      "t": 92487.09749999976,
      "d": 129.53375000000233,
      "v": 110
    },
    {
      "midi": 76,
      "hit": false,
      "t": 92487.09749999976,
      "d": 129.53375000000233,
      "v": 110
    },
    {
      "midi": 79,
      "hit": false,
      "t": 92487.09749999976,
      "d": 129.53375000000233,
      "v": 110
    },
    {
      "midi": 60,
      "hit": false,
      "t": 92642.53799999975,
      "d": 129.53375000000233,
      "v": 115
    },
    {
      "midi": 67,
      "hit": false,
      "t": 92642.53799999975,
      "d": 129.53375000000233,
      "v": 115
    },
    {
      "midi": 72,
      "hit": false,
      "t": 92642.53799999975,
      "d": 129.53375000000233,
      "v": 115
    },
    {
      "midi": 76,
      "hit": false,
      "t": 92642.53799999975,
      "d": 129.53375000000233,
      "v": 115
    },
    {
      "midi": 67,
      "hit": false,
      "t": 92953.41899999976,
      "d": 129.53375000000233,
      "v": 115
    },
    {
      "midi": 72,
      "hit": false,
      "t": 93108.85949999976,
      "d": 129.53375000000233,
      "v": 105
    },
    {
      "midi": 69,
      "hit": false,
      "t": 93264.29999999976,
      "d": 544.041750000004,
      "v": 120
    },
    {
      "midi": 74,
      "hit": false,
      "t": 93264.29999999976,
      "d": 544.041750000004,
      "v": 120
    },
    {
      "midi": 77,
      "hit": false,
      "t": 93264.29999999976,
      "d": 544.041750000004,
      "v": 120
    },
    {
      "midi": 67,
      "hit": false,
      "t": 93886.06199999976,
      "d": 129.53375000000233,
      "v": 115
    },
    {
      "midi": 71,
      "hit": false,
      "t": 93886.06199999976,
      "d": 129.53375000000233,
      "v": 115
    },
    {
      "midi": 74,
      "hit": false,
      "t": 93886.06199999976,
      "d": 129.53375000000233,
      "v": 115
    },
    {
      "midi": 79,
      "hit": false,
      "t": 93886.06199999976,
      "d": 129.53375000000233,
      "v": 115
    },
    {
      "midi": 67,
      "hit": false,
      "t": 94041.50249999975,
      "d": 155.44049999999697,
      "v": 115
    },
    {
      "midi": 67,
      "hit": false,
      "t": 94196.94299999975,
      "d": 155.44049999999697,
      "v": 105
    },
    {
      "midi": 67,
      "hit": false,
      "t": 94352.38349999975,
      "d": 129.53375000000233,
      "v": 110
    },
    {
      "midi": 71,
      "hit": false,
      "t": 94352.38349999975,
      "d": 129.53375000000233,
      "v": 110
    },
    {
      "midi": 74,
      "hit": false,
      "t": 94352.38349999975,
      "d": 129.53375000000233,
      "v": 110
    },
    {
      "midi": 79,
      "hit": false,
      "t": 94352.38349999975,
      "d": 129.53375000000233,
      "v": 110
    },
    {
      "midi": 67,
      "hit": false,
      "t": 94507.82399999975,
      "d": 129.53375000000233,
      "v": 115
    },
    {
      "midi": 72,
      "hit": false,
      "t": 94507.82399999975,
      "d": 129.53375000000233,
      "v": 115
    },
    {
      "midi": 76,
      "hit": false,
      "t": 94507.82399999975,
      "d": 129.53375000000233,
      "v": 115
    },
    {
      "midi": 79,
      "hit": false,
      "t": 94507.82399999975,
      "d": 129.53375000000233,
      "v": 115
    },
    {
      "midi": 67,
      "hit": false,
      "t": 94818.70499999975,
      "d": 129.53375000000233,
      "v": 115
    },
    {
      "midi": 72,
      "hit": false,
      "t": 94974.14549999975,
      "d": 129.53375000000233,
      "v": 105
    },
    {
      "midi": 64,
      "hit": false,
      "t": 95129.58599999975,
      "d": 129.53375000000233,
      "v": 115
    },
    {
      "midi": 67,
      "hit": false,
      "t": 95129.58599999975,
      "d": 129.53375000000233,
      "v": 115
    },
    {
      "midi": 71,
      "hit": false,
      "t": 95129.58599999975,
      "d": 129.53375000000233,
      "v": 115
    },
    {
      "midi": 76,
      "hit": false,
      "t": 95129.58599999975,
      "d": 129.53375000000233,
      "v": 115
    },
    {
      "midi": 64,
      "hit": false,
      "t": 95285.02649999975,
      "d": 155.44049999999697,
      "v": 115
    },
    {
      "midi": 67,
      "hit": false,
      "t": 95440.46699999974,
      "d": 155.44049999999697,
      "v": 105
    },
    {
      "midi": 64,
      "hit": false,
      "t": 95595.90749999974,
      "d": 129.53375000000233,
      "v": 110
    },
    {
      "midi": 67,
      "hit": false,
      "t": 95595.90749999974,
      "d": 129.53375000000233,
      "v": 110
    },
    {
      "midi": 71,
      "hit": false,
      "t": 95595.90749999974,
      "d": 129.53375000000233,
      "v": 110
    },
    {
      "midi": 76,
      "hit": false,
      "t": 95595.90749999974,
      "d": 129.53375000000233,
      "v": 110
    },
    {
      "midi": 79,
      "hit": false,
      "t": 95595.90749999974,
      "d": 129.53375000000233,
      "v": 110
    },
    {
      "midi": 67,
      "hit": false,
      "t": 95751.34799999974,
      "d": 544.041750000004,
      "v": 120
    },
    {
      "midi": 72,
      "hit": false,
      "t": 95751.34799999974,
      "d": 544.041750000004,
      "v": 120
    },
    {
      "midi": 76,
      "hit": false,
      "t": 95751.34799999974,
      "d": 544.041750000004,
      "v": 120
    },
    {
      "midi": 70,
      "hit": false,
      "t": 96373.10999999974,
      "d": 129.53375000000233,
      "v": 115
    },
    {
      "midi": 74,
      "hit": false,
      "t": 96373.10999999974,
      "d": 129.53375000000233,
      "v": 115
    },
    {
      "midi": 77,
      "hit": false,
      "t": 96373.10999999974,
      "d": 129.53375000000233,
      "v": 115
    },
    {
      "midi": 82,
      "hit": false,
      "t": 96373.10999999974,
      "d": 129.53375000000233,
      "v": 115
    },
    {
      "midi": 58,
      "hit": false,
      "t": 96528.55049999974,
      "d": 155.44049999999697,
      "v": 105
    },
    {
      "midi": 70,
      "hit": false,
      "t": 96683.99099999973,
      "d": 155.44049999999697,
      "v": 110
    },
    {
      "midi": 74,
      "hit": false,
      "t": 96839.43149999973,
      "d": 155.44049999999697,
      "v": 105
    },
    {
      "midi": 65,
      "hit": false,
      "t": 96994.87199999973,
      "d": 129.53375000000233,
      "v": 115
    },
    {
      "midi": 69,
      "hit": false,
      "t": 96994.87199999973,
      "d": 129.53375000000233,
      "v": 115
    },
    {
      "midi": 72,
      "hit": false,
      "t": 96994.87199999973,
      "d": 129.53375000000233,
      "v": 115
    },
    {
      "midi": 77,
      "hit": false,
      "t": 96994.87199999973,
      "d": 129.53375000000233,
      "v": 115
    },
    {
      "midi": 81,
      "hit": false,
      "t": 96994.87199999973,
      "d": 129.53375000000233,
      "v": 115
    },
    {
      "midi": 69,
      "hit": false,
      "t": 97305.75299999974,
      "d": 129.53375000000233,
      "v": 115
    },
    {
      "midi": 72,
      "hit": false,
      "t": 97461.19349999973,
      "d": 129.53375000000233,
      "v": 105
    },
    {
      "midi": 69,
      "hit": false,
      "t": 97616.63399999973,
      "d": 129.53375000000233,
      "v": 115
    },
    {
      "midi": 74,
      "hit": false,
      "t": 97616.63399999973,
      "d": 129.53375000000233,
      "v": 115
    },
    {
      "midi": 77,
      "hit": false,
      "t": 97616.63399999973,
      "d": 129.53375000000233,
      "v": 115
    },
    {
      "midi": 81,
      "hit": false,
      "t": 97616.63399999973,
      "d": 129.53375000000233,
      "v": 115
    },
    {
      "midi": 62,
      "hit": false,
      "t": 97772.07449999973,
      "d": 155.44049999999697,
      "v": 115
    },
    {
      "midi": 69,
      "hit": false,
      "t": 97927.51499999972,
      "d": 155.44049999999697,
      "v": 105
    },
    {
      "midi": 62,
      "hit": false,
      "t": 98082.95549999972,
      "d": 129.53375000000233,
      "v": 110
    },
    {
      "midi": 69,
      "hit": false,
      "t": 98082.95549999972,
      "d": 129.53375000000233,
      "v": 110
    },
    {
      "midi": 74,
      "hit": false,
      "t": 98082.95549999972,
      "d": 129.53375000000233,
      "v": 110
    },
    {
      "midi": 77,
      "hit": false,
      "t": 98082.95549999972,
      "d": 129.53375000000233,
      "v": 110
    },
    {
      "midi": 81,
      "hit": false,
      "t": 98082.95549999972,
      "d": 129.53375000000233,
      "v": 110
    },
    {
      "midi": 67,
      "hit": false,
      "t": 98238.39599999972,
      "d": 544.041750000004,
      "v": 115
    },
    {
      "midi": 71,
      "hit": false,
      "t": 98238.39599999972,
      "d": 544.041750000004,
      "v": 115
    },
    {
      "midi": 74,
      "hit": false,
      "t": 98238.39599999972,
      "d": 544.041750000004,
      "v": 115
    },
    {
      "midi": 79,
      "hit": false,
      "t": 98238.39599999972,
      "d": 544.041750000004,
      "v": 115
    },
    {
      "midi": 67,
      "hit": false,
      "t": 99481.91999999972,
      "d": 129.53375000000233,
      "v": 115
    },
    {
      "midi": 72,
      "hit": false,
      "t": 99481.91999999972,
      "d": 129.53375000000233,
      "v": 115
    },
    {
      "midi": 76,
      "hit": false,
      "t": 99481.91999999972,
      "d": 129.53375000000233,
      "v": 115
    },
    {
      "midi": 60,
      "hit": false,
      "t": 99637.36049999972,
      "d": 155.44049999999697,
      "v": 115
    },
    {
      "midi": 67,
      "hit": false,
      "t": 99792.80099999972,
      "d": 155.44049999999697,
      "v": 105
    },
    {
      "midi": 67,
      "hit": false,
      "t": 99948.24149999971,
      "d": 129.53375000000233,
      "v": 110
    },
    {
      "midi": 72,
      "hit": false,
      "t": 99948.24149999971,
      "d": 129.53375000000233,
      "v": 110
    },
    {
      "midi": 76,
      "hit": false,
      "t": 99948.24149999971,
      "d": 129.53375000000233,
      "v": 110
    },
    {
      "midi": 70,
      "hit": false,
      "t": 100103.68199999971,
      "d": 129.53375000000233,
      "v": 115
    },
    {
      "midi": 74,
      "hit": false,
      "t": 100103.68199999971,
      "d": 129.53375000000233,
      "v": 115
    },
    {
      "midi": 77,
      "hit": false,
      "t": 100103.68199999971,
      "d": 129.53375000000233,
      "v": 115
    },
    {
      "midi": 70,
      "hit": false,
      "t": 100414.56299999972,
      "d": 129.53375000000233,
      "v": 115
    },
    {
      "midi": 74,
      "hit": false,
      "t": 100570.00349999972,
      "d": 129.53375000000233,
      "v": 105
    },
    {
      "midi": 57,
      "hit": false,
      "t": 100725.44399999971,
      "d": 544.041750000004,
      "v": 115
    },
    {
      "midi": 69,
      "hit": false,
      "t": 100725.44399999971,
      "d": 544.041750000004,
      "v": 115
    },
    {
      "midi": 73,
      "hit": false,
      "t": 100725.44399999971,
      "d": 544.041750000004,
      "v": 115
    },
    {
      "midi": 76,
      "hit": false,
      "t": 100725.44399999971,
      "d": 544.041750000004,
      "v": 115
    },
    {
      "midi": 81,
      "hit": false,
      "t": 100725.44399999971,
      "d": 544.041750000004,
      "v": 115
    },
    {
      "midi": 72,
      "hit": false,
      "t": 101968.96799999972,
      "d": 544.041750000004,
      "v": 115
    },
    {
      "midi": 74,
      "hit": false,
      "t": 101968.96799999972,
      "d": 544.041750000004,
      "v": 115
    },
    {
      "midi": 77,
      "hit": false,
      "t": 101968.96799999972,
      "d": 544.041750000004,
      "v": 115
    },
    {
      "midi": 81,
      "hit": false,
      "t": 101968.96799999972,
      "d": 544.041750000004,
      "v": 115
    },
    {
      "midi": 62,
      "hit": false,
      "t": 103212.49199999972,
      "d": 544.041750000004,
      "v": 115
    },
    {
      "midi": 69,
      "hit": false,
      "t": 103212.49199999972,
      "d": 544.041750000004,
      "v": 115
    },
    {
      "midi": 74,
      "hit": false,
      "t": 103212.49199999972,
      "d": 544.041750000004,
      "v": 115
    },
    {
      "midi": 77,
      "hit": false,
      "t": 103212.49199999972,
      "d": 544.041750000004,
      "v": 115
    },
    {
      "midi": 67,
      "hit": false,
      "t": 104456.01599999973,
      "d": 544.041750000004,
      "v": 115
    },
    {
      "midi": 71,
      "hit": false,
      "t": 104456.01599999973,
      "d": 544.041750000004,
      "v": 115
    },
    {
      "midi": 74,
      "hit": false,
      "t": 104456.01599999973,
      "d": 544.041750000004,
      "v": 115
    },
    {
      "midi": 67,
      "hit": false,
      "t": 105233.21849999973,
      "d": 155.44049999999697,
      "v": 105
    },
    {
      "midi": 71,
      "hit": false,
      "t": 105388.65899999972,
      "d": 155.44049999999697,
      "v": 110
    },
    {
      "midi": 74,
      "hit": false,
      "t": 105544.09949999972,
      "d": 155.44049999999697,
      "v": 115
    },
    {
      "midi": 71,
      "hit": false,
      "t": 105699.53999999972,
      "d": 544.041750000004,
      "v": 115
    },
    {
      "midi": 74,
      "hit": false,
      "t": 105699.53999999972,
      "d": 544.041750000004,
      "v": 115
    },
    {
      "midi": 77,
      "hit": false,
      "t": 105699.53999999972,
      "d": 544.041750000004,
      "v": 115
    },
    {
      "midi": 79,
      "hit": false,
      "t": 105699.53999999972,
      "d": 544.041750000004,
      "v": 115
    },
    {
      "midi": 71,
      "hit": false,
      "t": 106476.74249999972,
      "d": 155.44049999999697,
      "v": 105
    },
    {
      "midi": 74,
      "hit": false,
      "t": 106632.18299999971,
      "d": 155.44049999999697,
      "v": 110
    },
    {
      "midi": 77,
      "hit": false,
      "t": 106787.62349999971,
      "d": 155.44049999999697,
      "v": 115
    },
    {
      "midi": 67,
      "hit": false,
      "t": 106943.06399999971,
      "d": 544.041750000004,
      "v": 115
    },
    {
      "midi": 72,
      "hit": false,
      "t": 106943.06399999971,
      "d": 544.041750000004,
      "v": 115
    },
    {
      "midi": 76,
      "hit": false,
      "t": 106943.06399999971,
      "d": 544.041750000004,
      "v": 115
    },
    {
      "midi": 79,
      "hit": false,
      "t": 106943.06399999971,
      "d": 544.041750000004,
      "v": 115
    },
    {
      "midi": 60,
      "hit": false,
      "t": 107720.2664999997,
      "d": 155.44049999999697,
      "v": 115
    },
    {
      "midi": 60,
      "hit": false,
      "t": 107875.7069999997,
      "d": 310.88099999999395,
      "v": 120
    },
    {
      "midi": 67,
      "hit": false,
      "t": 107875.7069999997,
      "d": 310.88099999999395,
      "v": 120
    },
    {
      "midi": 72,
      "hit": false,
      "t": 107875.7069999997,
      "d": 310.88099999999395,
      "v": 120
    },
    {
      "midi": 76,
      "hit": false,
      "t": 107875.7069999997,
      "d": 310.88099999999395,
      "v": 120
    },
    {
      "midi": 70,
      "hit": false,
      "t": 108186.5879999997,
      "d": 544.041750000004,
      "v": 115
    },
    {
      "midi": 72,
      "hit": false,
      "t": 108186.5879999997,
      "d": 544.041750000004,
      "v": 115
    },
    {
      "midi": 76,
      "hit": false,
      "t": 108186.5879999997,
      "d": 544.041750000004,
      "v": 115
    },
    {
      "midi": 79,
      "hit": false,
      "t": 108186.5879999997,
      "d": 544.041750000004,
      "v": 115
    },
    {
      "midi": 70,
      "hit": false,
      "t": 108963.7904999997,
      "d": 155.44049999999697,
      "v": 105
    },
    {
      "midi": 72,
      "hit": false,
      "t": 109119.2309999997,
      "d": 155.44049999999697,
      "v": 110
    },
    {
      "midi": 76,
      "hit": false,
      "t": 109274.67149999969,
      "d": 155.44049999999697,
      "v": 115
    },
    {
      "midi": 69,
      "hit": false,
      "t": 109430.11199999969,
      "d": 544.041750000004,
      "v": 115
    },
    {
      "midi": 72,
      "hit": false,
      "t": 109430.11199999969,
      "d": 544.041750000004,
      "v": 115
    },
    {
      "midi": 77,
      "hit": false,
      "t": 109430.11199999969,
      "d": 544.041750000004,
      "v": 115
    },
    {
      "midi": 65,
      "hit": false,
      "t": 110207.31449999969,
      "d": 155.44049999999697,
      "v": 115
    },
    {
      "midi": 65,
      "hit": false,
      "t": 110362.75499999968,
      "d": 310.88099999999395,
      "v": 120
    },
    {
      "midi": 69,
      "hit": false,
      "t": 110362.75499999968,
      "d": 310.88099999999395,
      "v": 120
    },
    {
      "midi": 72,
      "hit": false,
      "t": 110362.75499999968,
      "d": 310.88099999999395,
      "v": 120
    },
    {
      "midi": 77,
      "hit": false,
      "t": 110362.75499999968,
      "d": 310.88099999999395,
      "v": 120
    },
    {
      "midi": 69,
      "hit": false,
      "t": 110673.63599999968,
      "d": 544.041750000004,
      "v": 115
    },
    {
      "midi": 72,
      "hit": false,
      "t": 110673.63599999968,
      "d": 544.041750000004,
      "v": 115
    },
    {
      "midi": 77,
      "hit": false,
      "t": 110673.63599999968,
      "d": 544.041750000004,
      "v": 115
    },
    {
      "midi": 81,
      "hit": false,
      "t": 110673.63599999968,
      "d": 544.041750000004,
      "v": 115
    },
    {
      "midi": 65,
      "hit": false,
      "t": 111450.83849999968,
      "d": 155.44049999999697,
      "v": 115
    },
    {
      "midi": 69,
      "hit": false,
      "t": 111606.27899999967,
      "d": 310.88099999999395,
      "v": 120
    },
    {
      "midi": 72,
      "hit": false,
      "t": 111606.27899999967,
      "d": 310.88099999999395,
      "v": 120
    },
    {
      "midi": 77,
      "hit": false,
      "t": 111606.27899999967,
      "d": 310.88099999999395,
      "v": 120
    },
    {
      "midi": 67,
      "hit": false,
      "t": 111917.15999999967,
      "d": 544.041750000004,
      "v": 115
    },
    {
      "midi": 72,
      "hit": false,
      "t": 111917.15999999967,
      "d": 544.041750000004,
      "v": 115
    },
    {
      "midi": 76,
      "hit": false,
      "t": 111917.15999999967,
      "d": 544.041750000004,
      "v": 115
    },
    {
      "midi": 67,
      "hit": false,
      "t": 112694.36249999967,
      "d": 155.44049999999697,
      "v": 105
    },
    {
      "midi": 72,
      "hit": false,
      "t": 112849.80299999967,
      "d": 155.44049999999697,
      "v": 110
    },
    {
      "midi": 76,
      "hit": false,
      "t": 113005.24349999966,
      "d": 155.44049999999697,
      "v": 115
    },
    {
      "midi": 62,
      "hit": false,
      "t": 113160.68399999966,
      "d": 129.53375000000233,
      "v": 115
    },
    {
      "midi": 69,
      "hit": false,
      "t": 113160.68399999966,
      "d": 129.53375000000233,
      "v": 115
    },
    {
      "midi": 74,
      "hit": false,
      "t": 113160.68399999966,
      "d": 129.53375000000233,
      "v": 115
    },
    {
      "midi": 77,
      "hit": false,
      "t": 113160.68399999966,
      "d": 129.53375000000233,
      "v": 115
    },
    {
      "midi": 69,
      "hit": false,
      "t": 113471.56499999967,
      "d": 129.53375000000233,
      "v": 115
    },
    {
      "midi": 74,
      "hit": false,
      "t": 113627.00549999966,
      "d": 129.53375000000233,
      "v": 105
    },
    {
      "midi": 67,
      "hit": false,
      "t": 113782.44599999966,
      "d": 129.53375000000233,
      "v": 115
    },
    {
      "midi": 71,
      "hit": false,
      "t": 113782.44599999966,
      "d": 129.53375000000233,
      "v": 115
    },
    {
      "midi": 74,
      "hit": false,
      "t": 113782.44599999966,
      "d": 129.53375000000233,
      "v": 115
    },
    {
      "midi": 77,
      "hit": false,
      "t": 113782.44599999966,
      "d": 129.53375000000233,
      "v": 115
    },
    {
      "midi": 79,
      "hit": false,
      "t": 113782.44599999966,
      "d": 129.53375000000233,
      "v": 115
    },
    {
      "midi": 67,
      "hit": false,
      "t": 113937.88649999966,
      "d": 155.44049999999697,
      "v": 105
    },
    {
      "midi": 71,
      "hit": false,
      "t": 114093.32699999966,
      "d": 155.44049999999697,
      "v": 110
    },
    {
      "midi": 74,
      "hit": false,
      "t": 114248.76749999965,
      "d": 155.44049999999697,
      "v": 105
    },
    {
      "midi": 60,
      "hit": false,
      "t": 114404.20799999965,
      "d": 544.041750000004,
      "v": 115
    },
    {
      "midi": 67,
      "hit": false,
      "t": 114404.20799999965,
      "d": 544.041750000004,
      "v": 115
    },
    {
      "midi": 72,
      "hit": false,
      "t": 114404.20799999965,
      "d": 544.041750000004,
      "v": 115
    },
    {
      "midi": 76,
      "hit": false,
      "t": 114404.20799999965,
      "d": 544.041750000004,
      "v": 115
    },
    {
      "midi": 70,
      "hit": false,
      "t": 115647.73199999965,
      "d": 544.041750000004,
      "v": 115
    },
    {
      "midi": 72,
      "hit": false,
      "t": 115647.73199999965,
      "d": 544.041750000004,
      "v": 115
    },
    {
      "midi": 76,
      "hit": false,
      "t": 115647.73199999965,
      "d": 544.041750000004,
      "v": 115
    },
    {
      "midi": 79,
      "hit": false,
      "t": 115647.73199999965,
      "d": 544.041750000004,
      "v": 115
    },
    {
      "midi": 69,
      "hit": false,
      "t": 116891.25599999966,
      "d": 544.041750000004,
      "v": 115
    },
    {
      "midi": 72,
      "hit": false,
      "t": 116891.25599999966,
      "d": 544.041750000004,
      "v": 115
    },
    {
      "midi": 77,
      "hit": false,
      "t": 116891.25599999966,
      "d": 544.041750000004,
      "v": 115
    },
    {
      "midi": 71,
      "hit": false,
      "t": 118134.77999999966,
      "d": 544.041750000004,
      "v": 115
    },
    {
      "midi": 74,
      "hit": false,
      "t": 118134.77999999966,
      "d": 544.041750000004,
      "v": 115
    },
    {
      "midi": 77,
      "hit": false,
      "t": 118134.77999999966,
      "d": 544.041750000004,
      "v": 115
    },
    {
      "midi": 79,
      "hit": false,
      "t": 118134.77999999966,
      "d": 544.041750000004,
      "v": 115
    },
    {
      "midi": 67,
      "hit": false,
      "t": 119378.30399999967,
      "d": 544.041750000004,
      "v": 115
    },
    {
      "midi": 72,
      "hit": false,
      "t": 119378.30399999967,
      "d": 544.041750000004,
      "v": 115
    },
    {
      "midi": 76,
      "hit": false,
      "t": 119378.30399999967,
      "d": 544.041750000004,
      "v": 115
    },
    {
      "midi": 69,
      "hit": false,
      "t": 120621.82799999967,
      "d": 544.041750000004,
      "v": 115
    },
    {
      "midi": 72,
      "hit": false,
      "t": 120621.82799999967,
      "d": 544.041750000004,
      "v": 115
    },
    {
      "midi": 77,
      "hit": false,
      "t": 120621.82799999967,
      "d": 544.041750000004,
      "v": 115
    },
    {
      "midi": 67,
      "hit": false,
      "t": 121865.35199999968,
      "d": 544.041750000004,
      "v": 115
    },
    {
      "midi": 72,
      "hit": false,
      "t": 121865.35199999968,
      "d": 544.041750000004,
      "v": 115
    },
    {
      "midi": 76,
      "hit": false,
      "t": 121865.35199999968,
      "d": 544.041750000004,
      "v": 115
    },
    {
      "midi": 79,
      "hit": false,
      "t": 121865.35199999968,
      "d": 544.041750000004,
      "v": 115
    },
    {
      "midi": 67,
      "hit": false,
      "t": 123108.87599999968,
      "d": 544.041750000004,
      "v": 115
    },
    {
      "midi": 71,
      "hit": false,
      "t": 123108.87599999968,
      "d": 544.041750000004,
      "v": 115
    },
    {
      "midi": 74,
      "hit": false,
      "t": 123108.87599999968,
      "d": 544.041750000004,
      "v": 115
    },
    {
      "midi": 67,
      "hit": false,
      "t": 123886.07849999968,
      "d": 155.44049999999697,
      "v": 115
    },
    {
      "midi": 67,
      "hit": false,
      "t": 124041.51899999968,
      "d": 310.88099999999395,
      "v": 120
    },
    {
      "midi": 71,
      "hit": false,
      "t": 124041.51899999968,
      "d": 310.88099999999395,
      "v": 120
    },
    {
      "midi": 74,
      "hit": false,
      "t": 124041.51899999968,
      "d": 310.88099999999395,
      "v": 120
    },
    {
      "midi": 79,
      "hit": false,
      "t": 124041.51899999968,
      "d": 310.88099999999395,
      "v": 120
    },
    {
      "midi": 67,
      "hit": false,
      "t": 124352.39999999967,
      "d": 129.53375000000233,
      "v": 115
    },
    {
      "midi": 72,
      "hit": false,
      "t": 124352.39999999967,
      "d": 129.53375000000233,
      "v": 115
    },
    {
      "midi": 76,
      "hit": false,
      "t": 124352.39999999967,
      "d": 129.53375000000233,
      "v": 115
    },
    {
      "midi": 79,
      "hit": false,
      "t": 124352.39999999967,
      "d": 129.53375000000233,
      "v": 115
    },
    {
      "midi": 60,
      "hit": false,
      "t": 124507.84049999967,
      "d": 155.44049999999697,
      "v": 105
    },
    {
      "midi": 67,
      "hit": false,
      "t": 124663.28099999967,
      "d": 155.44049999999697,
      "v": 110
    },
    {
      "midi": 72,
      "hit": false,
      "t": 124818.72149999966,
      "d": 155.44049999999697,
      "v": 105
    },
    {
      "midi": 69,
      "hit": false,
      "t": 124974.16199999966,
      "d": 129.53375000000233,
      "v": 115
    },
    {
      "midi": 72,
      "hit": false,
      "t": 124974.16199999966,
      "d": 129.53375000000233,
      "v": 115
    },
    {
      "midi": 77,
      "hit": false,
      "t": 124974.16199999966,
      "d": 129.53375000000233,
      "v": 115
    },
    {
      "midi": 65,
      "hit": false,
      "t": 125129.60249999966,
      "d": 155.44049999999697,
      "v": 105
    },
    {
      "midi": 69,
      "hit": false,
      "t": 125285.04299999966,
      "d": 155.44049999999697,
      "v": 110
    },
    {
      "midi": 72,
      "hit": false,
      "t": 125440.48349999965,
      "d": 155.44049999999697,
      "v": 105
    },
    {
      "midi": 67,
      "hit": false,
      "t": 125595.92399999965,
      "d": 129.53375000000233,
      "v": 115
    },
    {
      "midi": 72,
      "hit": false,
      "t": 125595.92399999965,
      "d": 129.53375000000233,
      "v": 115
    },
    {
      "midi": 76,
      "hit": false,
      "t": 125595.92399999965,
      "d": 129.53375000000233,
      "v": 115
    },
    {
      "midi": 60,
      "hit": false,
      "t": 125751.36449999965,
      "d": 155.44049999999697,
      "v": 105
    },
    {
      "midi": 67,
      "hit": false,
      "t": 125906.80499999964,
      "d": 155.44049999999697,
      "v": 110
    },
    {
      "midi": 72,
      "hit": false,
      "t": 126062.24549999964,
      "d": 155.44049999999697,
      "v": 105
    },
    {
      "midi": 69,
      "hit": false,
      "t": 126217.68599999964,
      "d": 129.53375000000233,
      "v": 115
    },
    {
      "midi": 72,
      "hit": false,
      "t": 126217.68599999964,
      "d": 129.53375000000233,
      "v": 115
    },
    {
      "midi": 77,
      "hit": false,
      "t": 126217.68599999964,
      "d": 129.53375000000233,
      "v": 115
    },
    {
      "midi": 69,
      "hit": false,
      "t": 126528.56699999965,
      "d": 129.53375000000233,
      "v": 115
    },
    {
      "midi": 72,
      "hit": false,
      "t": 126684.00749999964,
      "d": 129.53375000000233,
      "v": 105
    },
    {
      "midi": 67,
      "hit": false,
      "t": 126839.44799999964,
      "d": 544.041750000004,
      "v": 115
    },
    {
      "midi": 72,
      "hit": false,
      "t": 126839.44799999964,
      "d": 544.041750000004,
      "v": 115
    },
    {
      "midi": 76,
      "hit": false,
      "t": 126839.44799999964,
      "d": 544.041750000004,
      "v": 115
    },
    {
      "midi": 60,
      "hit": false,
      "t": 127616.65049999964,
      "d": 155.44049999999697,
      "v": 115
    },
    {
      "midi": 60,
      "hit": false,
      "t": 127772.09099999964,
      "d": 310.88099999999395,
      "v": 120
    },
    {
      "midi": 67,
      "hit": false,
      "t": 127772.09099999964,
      "d": 310.88099999999395,
      "v": 120
    },
    {
      "midi": 72,
      "hit": false,
      "t": 127772.09099999964,
      "d": 310.88099999999395,
      "v": 120
    },
    {
      "midi": 76,
      "hit": false,
      "t": 127772.09099999964,
      "d": 310.88099999999395,
      "v": 120
    },
    {
      "midi": 67,
      "hit": false,
      "t": 128082.97199999963,
      "d": 544.041750000004,
      "v": 115
    },
    {
      "midi": 71,
      "hit": false,
      "t": 128082.97199999963,
      "d": 544.041750000004,
      "v": 115
    },
    {
      "midi": 74,
      "hit": false,
      "t": 128082.97199999963,
      "d": 544.041750000004,
      "v": 115
    },
    {
      "midi": 79,
      "hit": false,
      "t": 128082.97199999963,
      "d": 544.041750000004,
      "v": 115
    },
    {
      "midi": 67,
      "hit": false,
      "t": 128860.17449999963,
      "d": 155.44049999999697,
      "v": 105
    },
    {
      "midi": 71,
      "hit": false,
      "t": 129015.61499999963,
      "d": 155.44049999999697,
      "v": 110
    },
    {
      "midi": 74,
      "hit": false,
      "t": 129171.05549999962,
      "d": 155.44049999999697,
      "v": 115
    },
    {
      "midi": 60,
      "hit": false,
      "t": 129326.49599999962,
      "d": 544.041750000004,
      "v": 115
    },
    {
      "midi": 67,
      "hit": false,
      "t": 129326.49599999962,
      "d": 544.041750000004,
      "v": 115
    },
    {
      "midi": 72,
      "hit": false,
      "t": 129326.49599999962,
      "d": 544.041750000004,
      "v": 115
    },
    {
      "midi": 76,
      "hit": false,
      "t": 129326.49599999962,
      "d": 544.041750000004,
      "v": 115
    },
    {
      "midi": 67,
      "hit": false,
      "t": 130103.69849999962,
      "d": 155.44049999999697,
      "v": 105
    },
    {
      "midi": 72,
      "hit": false,
      "t": 130259.13899999962,
      "d": 155.44049999999697,
      "v": 110
    },
    {
      "midi": 76,
      "hit": false,
      "t": 130414.57949999961,
      "d": 155.44049999999697,
      "v": 115
    },
    {
      "midi": 67,
      "hit": false,
      "t": 130570.01999999961,
      "d": 2487.04800000001,
      "v": 125
    },
    {
      "midi": 72,
      "hit": false,
      "t": 130570.01999999961,
      "d": 2487.04800000001,
      "v": 125
    },
    {
      "midi": 76,
      "hit": false,
      "t": 130570.01999999961,
      "d": 2487.04800000001,
      "v": 125
    }
  ]
}