{
  "jsonPath": "Reggae/Reggae/Bob Marley/i-shot-the-sheriff.json",
  "path": "Reggae\\Reggae\\Bob Marley\\I Shot the Sheriff.mid",
  "name": "I Shot the Sheriff",
  "difficulty": "Advanced",
  "bpm": 192,
  "notes": [
    {
      "midi": 67,
      "hit": false,
      "t": 0,
      "d": 625,
      "v": 100
    },
    {
      "midi": 70,
      "hit": false,
      "t": 0,
      "d": 625,
      "v": 100
    },
    {
      "midi": 74,
      "hit": false,
      "t": 0,
      "d": 625,
      "v": 100
    },
    {
      "midi": 43,
      "hit": false,
      "t": 0,
      "d": 625,
      "v": 100
    },
    {
      "midi": 72,
      "hit": false,
      "t": 625,
      "d": 312.5,
      "v": 100
    },
    {
      "midi": 55,
      "hit": false,
      "t": 625,
      "d": 312.5,
      "v": 100
    },
    {
      "midi": 70,
      "hit": false,
      "t": 937.5,
      "d": 156.25,
      "v": 100
    },
    {
      "midi": 72,
      "hit": false,
      "t": 1093.75,
      "d": 468.75,
      "v": 100
    },
    {
      "midi": 43,
      "hit": false,
      "t": 1250,
      "d": 312.5,
      "v": 100
    },
    {
      "midi": 74,
      "hit": false,
      "t": 1562.5,
      "d": 312.5,
      "v": 100
    },
    {
      "midi": 43,
      "hit": false,
      "t": 1562.5,
      "d": 312.5,
      "v": 100
    },
    {
      "midi": 46,
      "hit": false,
      "t": 1875,
      "d": 312.5,
      "v": 100
    },
    {
      "midi": 43,
      "hit": false,
      "t": 2187.5,
      "d": 312.5,
      "v": 100
    },
    {
      "midi": 48,
      "hit": false,
      "t": 2500,
      "d": 625,
      "v": 100
    },
    {
      "midi": 63,
      "hit": false,
      "t": 3125,
      "d": 312.5,
      "v": 100
    },
    {
      "midi": 67,
      "hit": false,
      "t": 3125,
      "d": 312.5,
      "v": 100
    },
    {
      "midi": 60,
      "hit": false,
      "t": 3125,
      "d": 312.5,
      "v": 100
    },
    {
      "midi": 63,
      "hit": false,
      "t": 3437.5,
      "d": 312.5,
      "v": 100
    },
    {
      "midi": 67,
      "hit": false,
      "t": 3437.5,
      "d": 312.5,
      "v": 100
    },
    {
      "midi": 48,
      "hit": false,
      "t": 3437.5,
      "d": 312.5,
      "v": 100
    },
    {
      "midi": 63,
      "hit": false,
      "t": 3750,
      "d": 312.5,
      "v": 100
    },
    {
      "midi": 70,
      "hit": false,
      "t": 3750,
      "d": 312.5,
      "v": 100
    },
    {
      "midi": 48,
      "hit": false,
      "t": 3750,
      "d": 312.5,
      "v": 100
    },
    {
      "midi": 63,
      "hit": false,
      "t": 4062.5,
      "d": 312.5,
      "v": 100
    },
    {
      "midi": 70,
      "hit": false,
      "t": 4062.5,
      "d": 312.5,
      "v": 100
    },
    {
      "midi": 48,
      "hit": false,
      "t": 4062.5,
      "d": 312.5,
      "v": 100
    },
    {
      "midi": 72,
      "hit": false,
      "t": 4375,
      "d": 312.5,
      "v": 100
    },
    {
      "midi": 51,
      "hit": false,
      "t": 4375,
      "d": 312.5,
      "v": 100
    },
    {
      "midi": 70,
      "hit": false,
      "t": 4687.5,
      "d": 312.5,
      "v": 100
    },
    {
      "midi": 48,
      "hit": false,
      "t": 4687.5,
      "d": 312.5,
      "v": 100
    },
    {
      "midi": 74,
      "hit": false,
      "t": 5000,
      "d": 312.5,
      "v": 100
    },
    {
      "midi": 43,
      "hit": false,
      "t": 5000,
      "d": 625,
      "v": 100
    },
    {
      "midi": 67,
      "hit": false,
      "t": 5312.5,
      "d": 312.5,
      "v": 100
    },
    {
      "midi": 67,
      "hit": false,
      "t": 5625,
      "d": 312.5,
      "v": 100
    },
    {
      "midi": 55,
      "hit": false,
      "t": 5625,
      "d": 312.5,
      "v": 100
    },
    {
      "midi": 43,
      "hit": false,
      "t": 5937.5,
      "d": 312.5,
      "v": 100
    },
    {
      "midi": 43,
      "hit": false,
      "t": 6250,
      "d": 312.5,
      "v": 100
    },
    {
      "midi": 43,
      "hit": false,
      "t": 6562.5,
      "d": 312.5,
      "v": 100
    },
    {
      "midi": 46,
      "hit": false,
      "t": 6875,
      "d": 312.5,
      "v": 100
    },
    {
      "midi": 43,
      "hit": false,
      "t": 7187.5,
      "d": 312.5,
      "v": 100
    },
    {
      "midi": 43,
      "hit": false,
      "t": 7500,
      "d": 625,
      "v": 100
    },
    {
      "midi": 58,
      "hit": false,
      "t": 8125,
      "d": 156.25,
      "v": 100
    },
    {
      "midi": 67,
      "hit": false,
      "t": 8125,
      "d": 156.25,
      "v": 100
    },
    {
      "midi": 55,
      "hit": false,
      "t": 8125,
      "d": 156.25,
      "v": 100
    },
    {
      "midi": 43,
      "hit": false,
      "t": 8437.5,
      "d": 312.5,
      "v": 100
    },
    {
      "midi": 43,
      "hit": false,
      "t": 8750,
      "d": 312.5,
      "v": 100
    },
    {
      "midi": 43,
      "hit": false,
      "t": 9062.5,
      "d": 312.5,
      "v": 100
    },
    {
      "midi": 46,
      "hit": false,
      "t": 9375,
      "d": 312.5,
      "v": 100
    },
    {
      "midi": 43,
      "hit": false,
      "t": 9687.5,
      "d": 312.5,
      "v": 100
    },
    {
      "midi": 51,
      "hit": false,
      "t": 10000,
      "d": 1250,
      "v": 100
    },
    {
      "midi": 55,
      "hit": false,
      "t": 10000,
      "d": 1250,
      "v": 100
    },
    {
      "midi": 62,
      "hit": false,
      "t": 10000,
      "d": 1250,
      "v": 100
    },
    {
      "midi": 79,
      "hit": false,
      "t": 10625,
      "d": 312.5,
      "v": 100
    },
    {
      "midi": 79,
      "hit": false,
      "t": 10937.5,
      "d": 312.5,
      "v": 100
    },
    {
      "midi": 77,
      "hit": false,
      "t": 11250,
      "d": 625,
      "v": 100
    },
    {
      "midi": 50,
      "hit": false,
      "t": 11250,
      "d": 1250,
      "v": 100
    },
    {
      "midi": 53,
      "hit": false,
      "t": 11250,
      "d": 1250,
      "v": 100
    },
    {
      "midi": 60,
      "hit": false,
      "t": 11250,
      "d": 1250,
      "v": 100
    },
    {
      "midi": 74,
      "hit": false,
      "t": 11875,
      "d": 312.5,
      "v": 100
    },
    {
      "midi": 77,
      "hit": false,
      "t": 12187.5,
      "d": 312.5,
      "v": 100
    },
    {
      "midi": 70,
      "hit": false,
      "t": 12500,
      "d": 625,
      "v": 100
    },
    {
      "midi": 79,
      "hit": false,
      "t": 12500,
      "d": 625,
      "v": 100
    },
    {
      "midi": 43,
      "hit": false,
      "t": 12500,
      "d": 625,
      "v": 100
    },
    {
      "midi": 70,
      "hit": false,
      "t": 13125,
      "d": 625,
      "v": 100
    },
    {
      "midi": 74,
      "hit": false,
      "t": 13125,
      "d": 625,
      "v": 100
    },
    {
      "midi": 55,
      "hit": false,
      "t": 13125,
      "d": 312.5,
      "v": 100
    },
    {
      "midi": 43,
      "hit": false,
      "t": 13437.5,
      "d": 312.5,
      "v": 100
    },
    {
      "midi": 43,
      "hit": false,
      "t": 13750,
      "d": 312.5,
      "v": 100
    },
    {
      "midi": 43,
      "hit": false,
      "t": 14062.5,
      "d": 312.5,
      "v": 100
    },
    {
      "midi": 46,
      "hit": false,
      "t": 14375,
      "d": 312.5,
      "v": 100
    },
    {
      "midi": 74,
      "hit": false,
      "t": 14687.5,
      "d": 312.5,
      "v": 100
    },
    {
      "midi": 43,
      "hit": false,
      "t": 14687.5,
      "d": 312.5,
      "v": 100
    },
    {
      "midi": 79,
      "hit": false,
      "t": 15000,
      "d": 312.5,
      "v": 100
    },
    {
      "midi": 51,
      "hit": false,
      "t": 15000,
      "d": 1250,
      "v": 100
    },
    {
      "midi": 55,
      "hit": false,
      "t": 15000,
      "d": 1250,
      "v": 100
    },
    {
      "midi": 62,
      "hit": false,
      "t": 15000,
      "d": 1250,
      "v": 100
    },
    {
      "midi": 79,
      "hit": false,
      "t": 15312.5,
      "d": 625,
      "v": 100
    },
    {
      "midi": 79,
      "hit": false,
      "t": 15937.5,
      "d": 312.5,
      "v": 100
    },
    {
      "midi": 77,
      "hit": false,
      "t": 16250,
      "d": 625,
      "v": 100
    },
    {
      "midi": 50,
      "hit": false,
      "t": 16250,
      "d": 1250,
      "v": 100
    },
    {
      "midi": 53,
      "hit": false,
      "t": 16250,
      "d": 1250,
      "v": 100
    },
    {
      "midi": 60,
      "hit": false,
      "t": 16250,
      "d": 1250,
      "v": 100
    },
    {
      "midi": 77,
      "hit": false,
      "t": 16875,
      "d": 625,
      "v": 100
    },
    {
      "midi": 70,
      "hit": false,
      "t": 17500,
      "d": 625,
      "v": 100
    },
    {
      "midi": 74,
      "hit": false,
      "t": 17500,
      "d": 625,
      "v": 100
    },
    {
      "midi": 43,
      "hit": false,
      "t": 17500,
      "d": 625,
      "v": 100
    },
    {
      "midi": 55,
      "hit": false,
      "t": 18125,
      "d": 312.5,
      "v": 100
    },
    {
      "midi": 43,
      "hit": false,
      "t": 18437.5,
      "d": 312.5,
      "v": 100
    },
    {
      "midi": 43,
      "hit": false,
      "t": 18750,
      "d": 312.5,
      "v": 100
    },
    {
      "midi": 43,
      "hit": false,
      "t": 19062.5,
      "d": 312.5,
      "v": 100
    },
    {
      "midi": 46,
      "hit": false,
      "t": 19375,
      "d": 312.5,
      "v": 100
    },
    {
      "midi": 74,
      "hit": false,
      "t": 19687.5,
      "d": 312.5,
      "v": 100
    },
    {
      "midi": 43,
      "hit": false,
      "t": 19687.5,
      "d": 312.5,
      "v": 100
    },
    {
      "midi": 79,
      "hit": false,
      "t": 20000,
      "d": 312.5,
      "v": 100
    },
    {
      "midi": 51,
      "hit": false,
      "t": 20000,
      "d": 1250,
      "v": 100
    },
    {
      "midi": 55,
      "hit": false,
      "t": 20000,
      "d": 1250,
      "v": 100
    },
    {
      "midi": 62,
      "hit": false,
      "t": 20000,
      "d": 1250,
      "v": 100
    },
    {
      "midi": 79,
      "hit": false,
      "t": 20312.5,
      "d": 312.5,
      "v": 100
    },
    {
      "midi": 79,
      "hit": false,
      "t": 20625,
      "d": 312.5,
      "v": 100
    },
    {
      "midi": 79,
      "hit": false,
      "t": 20937.5,
      "d": 312.5,
      "v": 100
    },
    {
      "midi": 77,
      "hit": false,
      "t": 21250,
      "d": 312.5,
      "v": 100
    },
    {
      "midi": 50,
      "hit": false,
      "t": 21250,
      "d": 1250,
      "v": 100
    },
    {
      "midi": 53,
      "hit": false,
      "t": 21250,
      "d": 1250,
      "v": 100
    },
    {
      "midi": 60,
      "hit": false,
      "t": 21250,
      "d": 1250,
      "v": 100
    },
    {
      "midi": 74,
      "hit": false,
      "t": 21562.5,
      "d": 312.5,
      "v": 100
    },
    {
      "midi": 77,
      "hit": false,
      "t": 21875,
      "d": 625,
      "v": 100
    },
    {
      "midi": 79,
      "hit": false,
      "t": 22500,
      "d": 312.5,
      "v": 100
    },
    {
      "midi": 43,
      "hit": false,
      "t": 22500,
      "d": 625,
      "v": 100
    },
    {
      "midi": 74,
      "hit": false,
      "t": 22812.5,
      "d": 312.5,
      "v": 100
    },
    {
      "midi": 55,
      "hit": false,
      "t": 23125,
      "d": 312.5,
      "v": 100
    },
    {
      "midi": 43,
      "hit": false,
      "t": 23437.5,
      "d": 312.5,
      "v": 100
    },
    {
      "midi": 43,
      "hit": false,
      "t": 23750,
      "d": 312.5,
      "v": 100
    },
    {
      "midi": 43,
      "hit": false,
      "t": 24062.5,
      "d": 312.5,
      "v": 100
    },
    {
      "midi": 67,
      "hit": false,
      "t": 24375,
      "d": 312.5,
      "v": 100
    },
    {
      "midi": 46,
      "hit": false,
      "t": 24375,
      "d": 312.5,
      "v": 100
    },
    {
      "midi": 70,
      "hit": false,
      "t": 24687.5,
      "d": 312.5,
      "v": 100
    },
    {
      "midi": 43,
      "hit": false,
      "t": 24687.5,
      "d": 312.5,
      "v": 100
    },
    {
      "midi": 74,
      "hit": false,
      "t": 25000,
      "d": 312.5,
      "v": 100
    },
    {
      "midi": 51,
      "hit": false,
      "t": 25000,
      "d": 1250,
      "v": 100
    },
    {
      "midi": 55,
      "hit": false,
      "t": 25000,
      "d": 1250,
      "v": 100
    },
    {
      "midi": 62,
      "hit": false,
      "t": 25000,
      "d": 1250,
      "v": 100
    },
    {
      "midi": 75,
      "hit": false,
      "t": 25312.5,
      "d": 312.5,
      "v": 100
    },
    {
      "midi": 77,
      "hit": false,
      "t": 25625,
      "d": 312.5,
      "v": 100
    },
    {
      "midi": 75,
      "hit": false,
      "t": 25937.5,
      "d": 312.5,
      "v": 100
    },
    {
      "midi": 74,
      "hit": false,
      "t": 26250,
      "d": 312.5,
      "v": 100
    },
    {
      "midi": 50,
      "hit": false,
      "t": 26250,
      "d": 1250,
      "v": 100
    },
    {
      "midi": 53,
      "hit": false,
      "t": 26250,
      "d": 1250,
      "v": 100
    },
    {
      "midi": 60,
      "hit": false,
      "t": 26250,
      "d": 1250,
      "v": 100
    },
    {
      "midi": 72,
      "hit": false,
      "t": 26562.5,
      "d": 312.5,
      "v": 100
    },
    {
      "midi": 74,
      "hit": false,
      "t": 26875,
      "d": 625,
      "v": 100
    },
    {
      "midi": 72,
      "hit": false,
      "t": 27500,
      "d": 312.5,
      "v": 100
    },
    {
      "midi": 43,
      "hit": false,
      "t": 27500,
      "d": 625,
      "v": 100
    },
    {
      "midi": 70,
      "hit": false,
      "t": 27812.5,
      "d": 312.5,
      "v": 100
    },
    {
      "midi": 55,
      "hit": false,
      "t": 28125,
      "d": 312.5,
      "v": 100
    },
    {
      "midi": 43,
      "hit": false,
      "t": 28437.5,
      "d": 312.5,
      "v": 100
    },
    {
      "midi": 43,
      "hit": false,
      "t": 28750,
      "d": 312.5,
      "v": 100
    },
    {
      "midi": 43,
      "hit": false,
      "t": 29062.5,
      "d": 312.5,
      "v": 100
    },
    {
      "midi": 76,
      "hit": false,
      "t": 29375,
      "d": 312.5,
      "v": 100
    },
    {
      "midi": 46,
      "hit": false,
      "t": 29375,
      "d": 312.5,
      "v": 100
    },
    {
      "midi": 77,
      "hit": false,
      "t": 29687.5,
      "d": 312.5,
      "v": 100
    },
    {
      "midi": 43,
      "hit": false,
      "t": 29687.5,
      "d": 312.5,
      "v": 100
    },
    {
      "midi": 79,
      "hit": false,
      "t": 30000,
      "d": 312.5,
      "v": 100
    },
    {
      "midi": 51,
      "hit": false,
      "t": 30000,
      "d": 1250,
      "v": 100
    },
    {
      "midi": 55,
      "hit": false,
      "t": 30000,
      "d": 1250,
      "v": 100
    },
    {
      "midi": 62,
      "hit": false,
      "t": 30000,
      "d": 1250,
      "v": 100
    },
    {
      "midi": 74,
      "hit": false,
      "t": 30625,
      "d": 312.5,
      "v": 100
    },
    {
      "midi": 72,
      "hit": false,
      "t": 30937.5,
      "d": 312.5,
      "v": 100
    },
    {
      "midi": 72,
      "hit": false,
      "t": 31250,
      "d": 625,
      "v": 100
    },
    {
      "midi": 50,
      "hit": false,
      "t": 31250,
      "d": 1250,
      "v": 100
    },
    {
      "midi": 53,
      "hit": false,
      "t": 31250,
      "d": 1250,
      "v": 100
    },
    {
      "midi": 60,
      "hit": false,
      "t": 31250,
      "d": 1250,
      "v": 100
    },
    {
      "midi": 74,
      "hit": false,
      "t": 31875,
      "d": 625,
      "v": 100
    },
    {
      "midi": 72,
      "hit": false,
      "t": 32500,
      "d": 312.5,
      "v": 100
    },
    {
      "midi": 43,
      "hit": false,
      "t": 32500,
      "d": 625,
      "v": 100
    },
    {
      "midi": 70,
      "hit": false,
      "t": 32812.5,
      "d": 312.5,
      "v": 100
    },
    {
      "midi": 55,
      "hit": false,
      "t": 33125,
      "d": 312.5,
      "v": 100
    },
    {
      "midi": 43,
      "hit": false,
      "t": 33437.5,
      "d": 312.5,
      "v": 100
    },
    {
      "midi": 43,
      "hit": false,
      "t": 33750,
      "d": 312.5,
      "v": 100
    },
    {
      "midi": 79,
      "hit": false,
      "t": 33906.25,
      "d": 156.25,
      "v": 100
    },
    {
      "midi": 79,
      "hit": false,
      "t": 34062.5,
      "d": 312.5,
      "v": 100
    },
    {
      "midi": 79,
      "hit": false,
      "t": 34375,
      "d": 312.5,
      "v": 100
    },
    {
      "midi": 77,
      "hit": false,
      "t": 34687.5,
      "d": 312.5,
      "v": 100
    },
    {
      "midi": 79,
      "hit": false,
      "t": 35000,
      "d": 468.75,
      "v": 100
    },
    {
      "midi": 67,
      "hit": false,
      "t": 35000,
      "d": 468.75,
      "v": 100
    },
    {
      "midi": 77,
      "hit": false,
      "t": 35468.75,
      "d": 468.75,
      "v": 100
    },
    {
      "midi": 65,
      "hit": false,
      "t": 35468.75,
      "d": 468.75,
      "v": 100
    },
    {
      "midi": 74,
      "hit": false,
      "t": 35937.5,
      "d": 625,
      "v": 100
    },
    {
      "midi": 62,
      "hit": false,
      "t": 35937.5,
      "d": 625,
      "v": 100
    },
    {
      "midi": 72,
      "hit": false,
      "t": 36562.5,
      "d": 312.5,
      "v": 100
    },
    {
      "midi": 60,
      "hit": false,
      "t": 36562.5,
      "d": 312.5,
      "v": 100
    },
    {
      "midi": 70,
      "hit": false,
      "t": 36875,
      "d": 312.5,
      "v": 100
    },
    {
      "midi": 58,
      "hit": false,
      "t": 36875,
      "d": 312.5,
      "v": 100
    },
    {
      "midi": 74,
      "hit": false,
      "t": 37187.5,
      "d": 312.5,
      "v": 100
    },
    {
      "midi": 62,
      "hit": false,
      "t": 37187.5,
      "d": 312.5,
      "v": 100
    },
    {
      "midi": 72,
      "hit": false,
      "t": 37500,
      "d": 468.75,
      "v": 100
    },
    {
      "midi": 60,
      "hit": false,
      "t": 37500,
      "d": 468.75,
      "v": 100
    },
    {
      "midi": 70,
      "hit": false,
      "t": 37968.75,
      "d": 468.75,
      "v": 100
    },
    {
      "midi": 58,
      "hit": false,
      "t": 37968.75,
      "d": 468.75,
      "v": 100
    },
    {
      "midi": 67,
      "hit": false,
      "t": 38437.5,
      "d": 1562.5,
      "v": 100
    },
    {
      "midi": 55,
      "hit": false,
      "t": 38437.5,
      "d": 1562.5,
      "v": 100
    }
  ]
}