{
  "jsonPath": "Classical/Chinese Classical Performance/YUNDI/nocturnes-no-19-in-e-minor-op-72-no-1-posthumous.json",
  "path": "Classical\\Chinese Classical Performance\\YUNDI\\Nocturnes No 19 in E minor Op 72 No 1 (posthumous).mid",
  "name": "Nocturnes No 19 in E minor Op 72 No 1 (posthumous)",
  "difficulty": "Advanced",
  "bpm": 100,
  "notes": [
    {
      "midi": 40,
      "hit": false,
      "t": 530,
      "d": 385,
      "v": 48
    },
    {
      "midi": 47,
      "hit": false,
      "t": 890,
      "d": 85,
      "v": 40
    },
    {
      "midi": 55,
      "hit": false,
      "t": 1250,
      "d": 350,
      "v": 40
    },
    {
      "midi": 52,
      "hit": false,
      "t": 1580,
      "d": 100,
      "v": 47
    },
    {
      "midi": 60,
      "hit": false,
      "t": 1930,
      "d": 335,
      "v": 32
    },
    {
      "midi": 59,
      "hit": false,
      "t": 2240,
      "d": 50,
      "v": 42
    },
    {
      "midi": 40,
      "hit": false,
      "t": 2585,
      "d": 390,
      "v": 45
    },
    {
      "midi": 47,
      "hit": false,
      "t": 2930,
      "d": 85,
      "v": 39
    },
    {
      "midi": 55,
      "hit": false,
      "t": 3320,
      "d": 375,
      "v": 49
    },
    {
      "midi": 52,
      "hit": false,
      "t": 3695,
      "d": 360,
      "v": 42
    },
    {
      "midi": 60,
      "hit": false,
      "t": 4085,
      "d": 445,
      "v": 51
    },
    {
      "midi": 59,
      "hit": false,
      "t": 4515,
      "d": 55,
      "v": 44
    },
    {
      "midi": 71,
      "hit": false,
      "t": 4750,
      "d": 3630,
      "v": 49
    },
    {
      "midi": 40,
      "hit": false,
      "t": 5060,
      "d": 460,
      "v": 47
    },
    {
      "midi": 79,
      "hit": false,
      "t": 5060,
      "d": 2720,
      "v": 50
    },
    {
      "midi": 47,
      "hit": false,
      "t": 5430,
      "d": 100,
      "v": 39
    },
    {
      "midi": 55,
      "hit": false,
      "t": 5795,
      "d": 330,
      "v": 42
    },
    {
      "midi": 52,
      "hit": false,
      "t": 6140,
      "d": 210,
      "v": 32
    },
    {
      "midi": 60,
      "hit": false,
      "t": 6475,
      "d": 335,
      "v": 54
    },
    {
      "midi": 59,
      "hit": false,
      "t": 6795,
      "d": 55,
      "v": 41
    },
    {
      "midi": 40,
      "hit": false,
      "t": 7115,
      "d": 375,
      "v": 51
    },
    {
      "midi": 47,
      "hit": false,
      "t": 7450,
      "d": 80,
      "v": 43
    },
    {
      "midi": 55,
      "hit": false,
      "t": 7780,
      "d": 330,
      "v": 43
    },
    {
      "midi": 78,
      "hit": false,
      "t": 7780,
      "d": 1695,
      "v": 43
    },
    {
      "midi": 52,
      "hit": false,
      "t": 8115,
      "d": 335,
      "v": 40
    },
    {
      "midi": 60,
      "hit": false,
      "t": 8490,
      "d": 400,
      "v": 46
    },
    {
      "midi": 59,
      "hit": false,
      "t": 8850,
      "d": 60,
      "v": 43
    },
    {
      "midi": 76,
      "hit": false,
      "t": 9075,
      "d": 345,
      "v": 48
    },
    {
      "midi": 42,
      "hit": false,
      "t": 9380,
      "d": 415,
      "v": 45
    },
    {
      "midi": 75,
      "hit": false,
      "t": 9380,
      "d": 2695,
      "v": 45
    },
    {
      "midi": 47,
      "hit": false,
      "t": 9740,
      "d": 80,
      "v": 40
    },
    {
      "midi": 57,
      "hit": false,
      "t": 10075,
      "d": 305,
      "v": 52
    },
    {
      "midi": 54,
      "hit": false,
      "t": 10405,
      "d": 305,
      "v": 32
    },
    {
      "midi": 60,
      "hit": false,
      "t": 10725,
      "d": 335,
      "v": 52
    },
    {
      "midi": 59,
      "hit": false,
      "t": 11030,
      "d": 60,
      "v": 48
    },
    {
      "midi": 43,
      "hit": false,
      "t": 11335,
      "d": 625,
      "v": 48
    },
    {
      "midi": 47,
      "hit": false,
      "t": 11685,
      "d": 335,
      "v": 40
    },
    {
      "midi": 55,
      "hit": false,
      "t": 12020,
      "d": 390,
      "v": 39
    },
    {
      "midi": 76,
      "hit": false,
      "t": 12020,
      "d": 1360,
      "v": 51
    },
    {
      "midi": 52,
      "hit": false,
      "t": 12380,
      "d": 345,
      "v": 40
    },
    {
      "midi": 60,
      "hit": false,
      "t": 12740,
      "d": 390,
      "v": 51
    },
    {
      "midi": 59,
      "hit": false,
      "t": 13105,
      "d": 65,
      "v": 40
    },
    {
      "midi": 72,
      "hit": false,
      "t": 13340,
      "d": 400,
      "v": 45
    },
    {
      "midi": 39,
      "hit": false,
      "t": 13670,
      "d": 405,
      "v": 41
    },
    {
      "midi": 71,
      "hit": false,
      "t": 13670,
      "d": 1000,
      "v": 47
    },
    {
      "midi": 47,
      "hit": false,
      "t": 14030,
      "d": 70,
      "v": 42
    },
    {
      "midi": 57,
      "hit": false,
      "t": 14340,
      "d": 275,
      "v": 53
    },
    {
      "midi": 54,
      "hit": false,
      "t": 14655,
      "d": 335,
      "v": 35
    },
    {
      "midi": 60,
      "hit": false,
      "t": 14990,
      "d": 405,
      "v": 45
    },
    {
      "midi": 66,
      "hit": false,
      "t": 14990,
      "d": 530,
      "v": 44
    },
    {
      "midi": 59,
      "hit": false,
      "t": 15380,
      "d": 70,
      "v": 45
    },
    {
      "midi": 40,
      "hit": false,
      "t": 15825,
      "d": 415,
      "v": 47
    },
    {
      "midi": 69,
      "hit": false,
      "t": 15825,
      "d": 555,
      "v": 40
    },
    {
      "midi": 72,
      "hit": false,
      "t": 15825,
      "d": 595,
      "v": 40
    },
    {
      "midi": 47,
      "hit": false,
      "t": 16145,
      "d": 125,
      "v": 44
    },
    {
      "midi": 71,
      "hit": false,
      "t": 16340,
      "d": 165,
      "v": 48
    },
    {
      "midi": 67,
      "hit": false,
      "t": 16340,
      "d": 210,
      "v": 45
    },
    {
      "midi": 55,
      "hit": false,
      "t": 16490,
      "d": 320,
      "v": 42
    },
    {
      "midi": 66,
      "hit": false,
      "t": 16800,
      "d": 250,
      "v": 44
    },
    {
      "midi": 52,
      "hit": false,
      "t": 16800,
      "d": 260,
      "v": 46
    },
    {
      "midi": 69,
      "hit": false,
      "t": 16800,
      "d": 290,
      "v": 45
    },
    {
      "midi": 60,
      "hit": false,
      "t": 17115,
      "d": 365,
      "v": 42
    },
    {
      "midi": 67,
      "hit": false,
      "t": 17315,
      "d": 135,
      "v": 43
    },
    {
      "midi": 64,
      "hit": false,
      "t": 17315,
      "d": 220,
      "v": 46
    },
    {
      "midi": 59,
      "hit": false,
      "t": 17465,
      "d": 55,
      "v": 45
    },
    {
      "midi": 35,
      "hit": false,
      "t": 17855,
      "d": 305,
      "v": 31
    },
    {
      "midi": 63,
      "hit": false,
      "t": 17855,
      "d": 775,
      "v": 40
    },
    {
      "midi": 66,
      "hit": false,
      "t": 17855,
      "d": 815,
      "v": 42
    },
    {
      "midi": 47,
      "hit": false,
      "t": 18200,
      "d": 55,
      "v": 40
    },
    {
      "midi": 59,
      "hit": false,
      "t": 18535,
      "d": 345,
      "v": 40
    },
    {
      "midi": 58,
      "hit": false,
      "t": 18870,
      "d": 330,
      "v": 40
    },
    {
      "midi": 67,
      "hit": false,
      "t": 18870,
      "d": 610,
      "v": 55
    },
    {
      "midi": 64,
      "hit": false,
      "t": 18870,
      "d": 730,
      "v": 46
    },
    {
      "midi": 55,
      "hit": false,
      "t": 19230,
      "d": 335,
      "v": 41
    },
    {
      "midi": 46,
      "hit": false,
      "t": 19590,
      "d": 375,
      "v": 34
    },
    {
      "midi": 47,
      "hit": false,
      "t": 19980,
      "d": 330,
      "v": 46
    },
    {
      "midi": 63,
      "hit": false,
      "t": 19980,
      "d": 1860,
      "v": 36
    },
    {
      "midi": 66,
      "hit": false,
      "t": 19980,
      "d": 1875,
      "v": 41
    },
    {
      "midi": 35,
      "hit": false,
      "t": 20300,
      "d": 300,
      "v": 42
    },
    {
      "midi": 47,
      "hit": false,
      "t": 20630,
      "d": 130,
      "v": 37
    },
    {
      "midi": 51,
      "hit": false,
      "t": 20995,
      "d": 430,
      "v": 41
    },
    {
      "midi": 54,
      "hit": false,
      "t": 21370,
      "d": 440,
      "v": 33
    },
    {
      "midi": 59,
      "hit": false,
      "t": 21740,
      "d": 130,
      "v": 35
    },
    {
      "midi": 43,
      "hit": false,
      "t": 22300,
      "d": 415,
      "v": 33
    },
    {
      "midi": 62,
      "hit": false,
      "t": 22300,
      "d": 680,
      "v": 32
    },
    {
      "midi": 71,
      "hit": false,
      "t": 22300,
      "d": 710,
      "v": 39
    },
    {
      "midi": 50,
      "hit": false,
      "t": 22645,
      "d": 125,
      "v": 42
    },
    {
      "midi": 59,
      "hit": false,
      "t": 22965,
      "d": 365,
      "v": 52
    },
    {
      "midi": 65,
      "hit": false,
      "t": 23300,
      "d": 695,
      "v": 53
    },
    {
      "midi": 71,
      "hit": false,
      "t": 23300,
      "d": 1145,
      "v": 53
    },
    {
      "midi": 55,
      "hit": false,
      "t": 23300,
      "d": 1550,
      "v": 46
    },
    {
      "midi": 64,
      "hit": false,
      "t": 23650,
      "d": 320,
      "v": 53
    },
    {
      "midi": 62,
      "hit": false,
      "t": 23950,
      "d": 335,
      "v": 47
    },
    {
      "midi": 42,
      "hit": false,
      "t": 24270,
      "d": 965,
      "v": 47
    },
    {
      "midi": 66,
      "hit": false,
      "t": 24270,
      "d": 1310,
      "v": 54
    },
    {
      "midi": 54,
      "hit": false,
      "t": 24620,
      "d": 680,
      "v": 37
    },
    {
      "midi": 61,
      "hit": false,
      "t": 24925,
      "d": 590,
      "v": 57
    },
    {
      "midi": 64,
      "hit": false,
      "t": 25245,
      "d": 540,
      "v": 45
    },
    {
      "midi": 70,
      "hit": false,
      "t": 25245,
      "d": 735,
      "v": 50
    },
    {
      "midi": 73,
      "hit": false,
      "t": 25245,
      "d": 795,
      "v": 56
    },
    {
      "midi": 61,
      "hit": false,
      "t": 25565,
      "d": 305,
      "v": 38
    },
    {
      "midi": 54,
      "hit": false,
      "t": 25895,
      "d": 75,
      "v": 36
    },
    {
      "midi": 47,
      "hit": false,
      "t": 26270,
      "d": 470,
      "v": 53
    },
    {
      "midi": 71,
      "hit": false,
      "t": 26270,
      "d": 1390,
      "v": 53
    },
    {
      "midi": 74,
      "hit": false,
      "t": 26270,
      "d": 1450,
      "v": 56
    },
    {
      "midi": 54,
      "hit": false,
      "t": 26690,
      "d": 80,
      "v": 45
    },
    {
      "midi": 62,
      "hit": false,
      "t": 27025,
      "d": 290,
      "v": 52
    },
    {
      "midi": 59,
      "hit": false,
      "t": 27330,
      "d": 85,
      "v": 47
    },
    {
      "midi": 67,
      "hit": false,
      "t": 27635,
      "d": 330,
      "v": 46
    },
    {
      "midi": 66,
      "hit": false,
      "t": 27955,
      "d": 305,
      "v": 42
    },
    {
      "midi": 65,
      "hit": false,
      "t": 28275,
      "d": 410,
      "v": 56
    },
    {
      "midi": 74,
      "hit": false,
      "t": 28275,
      "d": 775,
      "v": 56
    },
    {
      "midi": 71,
      "hit": false,
      "t": 28275,
      "d": 790,
      "v": 56
    },
    {
      "midi": 62,
      "hit": false,
      "t": 28610,
      "d": 355,
      "v": 46
    },
    {
      "midi": 59,
      "hit": false,
      "t": 28925,
      "d": 100,
      "v": 56
    },
    {
      "midi": 56,
      "hit": false,
      "t": 29250,
      "d": 320,
      "v": 66
    },
    {
      "midi": 74,
      "hit": false,
      "t": 29250,
      "d": 690,
      "v": 54
    },
    {
      "midi": 71,
      "hit": false,
      "t": 29250,
      "d": 755,
      "v": 51
    },
    {
      "midi": 53,
      "hit": false,
      "t": 29550,
      "d": 295,
      "v": 55
    },
    {
      "midi": 41,
      "hit": false,
      "t": 29860,
      "d": 95,
      "v": 62
    },
    {
      "midi": 42,
      "hit": false,
      "t": 30220,
      "d": 345,
      "v": 59
    },
    {
      "midi": 71,
      "hit": false,
      "t": 30220,
      "d": 1650,
      "v": 56
    },
    {
      "midi": 73,
      "hit": false,
      "t": 30220,
      "d": 1695,
      "v": 68
    },
    {
      "midi": 54,
      "hit": false,
      "t": 30550,
      "d": 85,
      "v": 57
    },
    {
      "midi": 61,
      "hit": false,
      "t": 30870,
      "d": 305,
      "v": 59
    },
    {
      "midi": 64,
      "hit": false,
      "t": 31190,
      "d": 460,
      "v": 60
    },
    {
      "midi": 67,
      "hit": false,
      "t": 31525,
      "d": 320,
      "v": 46
    },
    {
      "midi": 66,
      "hit": false,
      "t": 31860,
      "d": 320,
      "v": 45
    },
    {
      "midi": 73,
      "hit": false,
      "t": 32190,
      "d": 1890,
      "v": 68
    },
    {
      "midi": 70,
      "hit": false,
      "t": 32190,
      "d": 1920,
      "v": 62
    },
    {
      "midi": 64,
      "hit": false,
      "t": 32205,
      "d": 430,
      "v": 59
    },
    {
      "midi": 61,
      "hit": false,
      "t": 32550,
      "d": 100,
      "v": 48
    },
    {
      "midi": 58,
      "hit": false,
      "t": 32900,
      "d": 445,
      "v": 60
    },
    {
      "midi": 54,
      "hit": false,
      "t": 33300,
      "d": 70,
      "v": 50
    },
    {
      "midi": 42,
      "hit": false,
      "t": 33745,
      "d": 55,
      "v": 54
    },
    {
      "midi": 30,
      "hit": false,
      "t": 34330,
      "d": 125,
      "v": 45
    },
    {
      "midi": 35,
      "hit": false,
      "t": 35080,
      "d": 460,
      "v": 53
    },
    {
      "midi": 71,
      "hit": false,
      "t": 35080,
      "d": 3935,
      "v": 57
    },
    {
      "midi": 47,
      "hit": false,
      "t": 35540,
      "d": 80,
      "v": 40
    },
    {
      "midi": 54,
      "hit": false,
      "t": 35905,
      "d": 330,
      "v": 39
    },
    {
      "midi": 57,
      "hit": false,
      "t": 36220,
      "d": 305,
      "v": 49
    },
    {
      "midi": 63,
      "hit": false,
      "t": 36220,
      "d": 780,
      "v": 45
    },
    {
      "midi": 60,
      "hit": false,
      "t": 36555,
      "d": 360,
      "v": 35
    },
    {
      "midi": 59,
      "hit": false,
      "t": 36915,
      "d": 320,
      "v": 47
    },
    {
      "midi": 55,
      "hit": false,
      "t": 37250,
      "d": 385,
      "v": 49
    },
    {
      "midi": 64,
      "hit": false,
      "t": 37250,
      "d": 625,
      "v": 54
    },
    {
      "midi": 60,
      "hit": false,
      "t": 37610,
      "d": 125,
      "v": 39
    },
    {
      "midi": 59,
      "hit": false,
      "t": 37985,
      "d": 110,
      "v": 46
    },
    {
      "midi": 54,
      "hit": false,
      "t": 38390,
      "d": 475,
      "v": 45
    },
    {
      "midi": 66,
      "hit": false,
      "t": 38390,
      "d": 595,
      "v": 46
    },
    {
      "midi": 60,
      "hit": false,
      "t": 38845,
      "d": 585,
      "v": 37
    },
    {
      "midi": 59,
      "hit": false,
      "t": 39385,
      "d": 85,
      "v": 52
    },
    {
      "midi": 67,
      "hit": false,
      "t": 40280,
      "d": 2650,
      "v": 48
    },
    {
      "midi": 79,
      "hit": false,
      "t": 40485,
      "d": 2405,
      "v": 52
    },
    {
      "midi": 40,
      "hit": false,
      "t": 40510,
      "d": 465,
      "v": 43
    },
    {
      "midi": 47,
      "hit": false,
      "t": 40930,
      "d": 70,
      "v": 37
    },
    {
      "midi": 55,
      "hit": false,
      "t": 41265,
      "d": 345,
      "v": 41
    },
    {
      "midi": 52,
      "hit": false,
      "t": 41600,
      "d": 290,
      "v": 46
    },
    {
      "midi": 60,
      "hit": false,
      "t": 41930,
      "d": 335,
      "v": 52
    },
    {
      "midi": 59,
      "hit": false,
      "t": 42250,
      "d": 55,
      "v": 41
    },
    {
      "midi": 40,
      "hit": false,
      "t": 42570,
      "d": 345,
      "v": 51
    },
    {
      "midi": 47,
      "hit": false,
      "t": 42880,
      "d": 95,
      "v": 45
    },
    {
      "midi": 55,
      "hit": false,
      "t": 43225,
      "d": 275,
      "v": 40
    },
    {
      "midi": 66,
      "hit": false,
      "t": 43225,
      "d": 610,
      "v": 42
    },
    {
      "midi": 78,
      "hit": false,
      "t": 43225,
      "d": 610,
      "v": 54
    },
    {
      "midi": 52,
      "hit": false,
      "t": 43555,
      "d": 265,
      "v": 42
    },
    {
      "midi": 60,
      "hit": false,
      "t": 43875,
      "d": 400,
      "v": 36
    },
    {
      "midi": 76,
      "hit": false,
      "t": 44085,
      "d": 195,
      "v": 52
    },
    {
      "midi": 64,
      "hit": false,
      "t": 44085,
      "d": 250,
      "v": 41
    },
    {
      "midi": 59,
      "hit": false,
      "t": 44265,
      "d": 55,
      "v": 42
    },
    {
      "midi": 42,
      "hit": false,
      "t": 44670,
      "d": 495,
      "v": 50
    },
    {
      "midi": 63,
      "hit": false,
      "t": 44670,
      "d": 2400,
      "v": 45
    },
    {
      "midi": 75,
      "hit": false,
      "t": 44670,
      "d": 2400,
      "v": 52
    },
    {
      "midi": 47,
      "hit": false,
      "t": 45100,
      "d": 80,
      "v": 47
    },
    {
      "midi": 57,
      "hit": false,
      "t": 45430,
      "d": 290,
      "v": 59
    },
    {
      "midi": 54,
      "hit": false,
      "t": 45750,
      "d": 290,
      "v": 45
    },
    {
      "midi": 60,
      "hit": false,
      "t": 46070,
      "d": 375,
      "v": 55
    },
    {
      "midi": 59,
      "hit": false,
      "t": 46420,
      "d": 55,
      "v": 46
    },
    {
      "midi": 43,
      "hit": false,
      "t": 46810,
      "d": 550,
      "v": 59
    },
    {
      "midi": 64,
      "hit": false,
      "t": 47280,
      "d": 75,
      "v": 53
    },
    {
      "midi": 76,
      "hit": false,
      "t": 47280,
      "d": 100,
      "v": 59
    },
    {
      "midi": 47,
      "hit": false,
      "t": 47280,
      "d": 245,
      "v": 48
    },
    {
      "midi": 66,
      "hit": false,
      "t": 47585,
      "d": 70,
      "v": 62
    },
    {
      "midi": 78,
      "hit": false,
      "t": 47585,
      "d": 70,
      "v": 65
    },
    {
      "midi": 55,
      "hit": false,
      "t": 47585,
      "d": 195,
      "v": 39
    },
    {
      "midi": 67,
      "hit": false,
      "t": 47850,
      "d": 85,
      "v": 48
    },
    {
      "midi": 79,
      "hit": false,
      "t": 47850,
      "d": 125,
      "v": 56
    },
    {
      "midi": 52,
      "hit": false,
      "t": 47850,
      "d": 235,
      "v": 53
    },
    {
      "midi": 69,
      "hit": false,
      "t": 48155,
      "d": 70,
      "v": 53
    },
    {
      "midi": 81,
      "hit": false,
      "t": 48155,
      "d": 80,
      "v": 63
    },
    {
      "midi": 60,
      "hit": false,
      "t": 48155,
      "d": 310,
      "v": 45
    },
    {
      "midi": 59,
      "hit": false,
      "t": 48450,
      "d": 60,
      "v": 47
    },
    {
      "midi": 71,
      "hit": false,
      "t": 48450,
      "d": 70,
      "v": 56
    },
    {
      "midi": 83,
      "hit": false,
      "t": 48450,
      "d": 95,
      "v": 57
    },
    {
      "midi": 39,
      "hit": false,
      "t": 48770,
      "d": 265,
      "v": 50
    },
    {
      "midi": 83,
      "hit": false,
      "t": 48770,
      "d": 860,
      "v": 62
    },
    {
      "midi": 71,
      "hit": false,
      "t": 48770,
      "d": 900,
      "v": 60
    },
    {
      "midi": 47,
      "hit": false,
      "t": 49070,
      "d": 60,
      "v": 53
    },
    {
      "midi": 57,
      "hit": false,
      "t": 49390,
      "d": 265,
      "v": 55
    },
    {
      "midi": 54,
      "hit": false,
      "t": 49680,
      "d": 230,
      "v": 39
    },
    {
      "midi": 71,
      "hit": false,
      "t": 49975,
      "d": 85,
      "v": 48
    },
    {
      "midi": 69,
      "hit": false,
      "t": 49975,
      "d": 110,
      "v": 54
    },
    {
      "midi": 60,
      "hit": false,
      "t": 49975,
      "d": 275,
      "v": 48
    },
    {
      "midi": 59,
      "hit": false,
      "t": 50265,
      "d": 70,
      "v": 54
    },
    {
      "midi": 71,
      "hit": false,
      "t": 50265,
      "d": 100,
      "v": 54
    },
    {
      "midi": 69,
      "hit": false,
      "t": 50265,
      "d": 115,
      "v": 55
    },
    {
      "midi": 40,
      "hit": false,
      "t": 50570,
      "d": 305,
      "v": 55
    },
    {
      "midi": 69,
      "hit": false,
      "t": 50570,
      "d": 390,
      "v": 54
    },
    {
      "midi": 71,
      "hit": false,
      "t": 50570,
      "d": 390,
      "v": 55
    },
    {
      "midi": 47,
      "hit": false,
      "t": 50880,
      "d": 70,
      "v": 45
    },
    {
      "midi": 68,
      "hit": false,
      "t": 50880,
      "d": 95,
      "v": 43
    },
    {
      "midi": 67,
      "hit": false,
      "t": 51170,
      "d": 80,
      "v": 56
    },
    {
      "midi": 71,
      "hit": false,
      "t": 51170,
      "d": 85,
      "v": 48
    },
    {
      "midi": 55,
      "hit": false,
      "t": 51170,
      "d": 140,
      "v": 48
    },
    {
      "midi": 52,
      "hit": false,
      "t": 51460,
      "d": 320,
      "v": 46
    },
    {
      "midi": 67,
      "hit": false,
      "t": 51460,
      "d": 335,
      "v": 62
    },
    {
      "midi": 71,
      "hit": false,
      "t": 51460,
      "d": 380,
      "v": 59
    },
    {
      "midi": 60,
      "hit": false,
      "t": 51770,
      "d": 290,
      "v": 40
    },
    {
      "midi": 69,
      "hit": false,
      "t": 51770,
      "d": 320,
      "v": 50
    },
    {
      "midi": 66,
      "hit": false,
      "t": 51770,
      "d": 370,
      "v": 39
    },
    {
      "midi": 59,
      "hit": false,
      "t": 52060,
      "d": 60,
      "v": 48
    },
    {
      "midi": 67,
      "hit": false,
      "t": 52060,
      "d": 70,
      "v": 45
    },
    {
      "midi": 64,
      "hit": false,
      "t": 52060,
      "d": 110,
      "v": 46
    },
    {
      "midi": 35,
      "hit": false,
      "t": 52365,
      "d": 335,
      "v": 39
    },
    {
      "midi": 63,
      "hit": false,
      "t": 52365,
      "d": 735,
      "v": 51
    },
    {
      "midi": 66,
      "hit": false,
      "t": 52365,
      "d": 775,
      "v": 49
    },
    {
      "midi": 47,
      "hit": false,
      "t": 52685,
      "d": 95,
      "v": 44
    },
    {
      "midi": 59,
      "hit": false,
      "t": 53060,
      "d": 400,
      "v": 46
    },
    {
      "midi": 64,
      "hit": false,
      "t": 53435,
      "d": 110,
      "v": 38
    },
    {
      "midi": 67,
      "hit": false,
      "t": 53435,
      "d": 460,
      "v": 52
    },
    {
      "midi": 58,
      "hit": false,
      "t": 53440,
      "d": 340,
      "v": 41
    },
    {
      "midi": 76,
      "hit": false,
      "t": 53800,
      "d": 105,
      "v": 42
    },
    {
      "midi": 55,
      "hit": false,
      "t": 53800,
      "d": 360,
      "v": 45
    },
    {
      "midi": 46,
      "hit": false,
      "t": 54185,
      "d": 55,
      "v": 39
    },
    {
      "midi": 67,
      "hit": false,
      "t": 54185,
      "d": 70,
      "v": 41
    },
    {
      "midi": 76,
      "hit": false,
      "t": 54185,
      "d": 125,
      "v": 40
    },
    {
      "midi": 47,
      "hit": false,
      "t": 54565,
      "d": 330,
      "v": 42
    },
    {
      "midi": 75,
      "hit": false,
      "t": 54565,
      "d": 2235,
      "v": 47
    },
    {
      "midi": 66,
      "hit": false,
      "t": 54565,
      "d": 2315,
      "v": 49
    },
    {
      "midi": 35,
      "hit": false,
      "t": 54910,
      "d": 330,
      "v": 44
    },
    {
      "midi": 47,
      "hit": false,
      "t": 55255,
      "d": 150,
      "v": 39
    },
    {
      "midi": 51,
      "hit": false,
      "t": 55685,
      "d": 570,
      "v": 39
    },
    {
      "midi": 54,
      "hit": false,
      "t": 56115,
      "d": 470,
      "v": 39
    },
    {
      "midi": 59,
      "hit": false,
      "t": 56560,
      "d": 110,
      "v": 39
    },
    {
      "midi": 47,
      "hit": false,
      "t": 57350,
      "d": 350,
      "v": 40
    },
    {
      "midi": 66,
      "hit": false,
      "t": 57350,
      "d": 695,
      "v": 36
    },
    {
      "midi": 74,
      "hit": false,
      "t": 57350,
      "d": 2110,
      "v": 41
    },
    {
      "midi": 35,
      "hit": false,
      "t": 57670,
      "d": 310,
      "v": 42
    },
    {
      "midi": 47,
      "hit": false,
      "t": 57990,
      "d": 110,
      "v": 40
    },
    {
      "midi": 50,
      "hit": false,
      "t": 58325,
      "d": 335,
      "v": 50
    },
    {
      "midi": 67,
      "hit": false,
      "t": 58330,
      "d": 605,
      "v": 46
    },
    {
      "midi": 55,
      "hit": false,
      "t": 58630,
      "d": 320,
      "v": 48
    },
    {
      "midi": 59,
      "hit": false,
      "t": 58950,
      "d": 125,
      "v": 46
    },
    {
      "midi": 65,
      "hit": false,
      "t": 58950,
      "d": 150,
      "v": 40
    },
    {
      "midi": 60,
      "hit": false,
      "t": 59280,
      "d": 380,
      "v": 46
    },
    {
      "midi": 64,
      "hit": false,
      "t": 59280,
      "d": 1645,
      "v": 45
    },
    {
      "midi": 59,
      "hit": false,
      "t": 59590,
      "d": 320,
      "v": 46
    },
    {
      "midi": 60,
      "hit": false,
      "t": 59920,
      "d": 990,
      "v": 36
    },
    {
      "midi": 55,
      "hit": false,
      "t": 60245,
      "d": 680,
      "v": 45
    },
    {
      "midi": 72,
      "hit": false,
      "t": 60255,
      "d": 1015,
      "v": 50
    },
    {
      "midi": 52,
      "hit": false,
      "t": 60590,
      "d": 375,
      "v": 33
    },
    {
      "midi": 48,
      "hit": false,
      "t": 60995,
      "d": 100,
      "v": 35
    },
    {
      "midi": 65,
      "hit": false,
      "t": 61535,
      "d": 555,
      "v": 37
    },
    {
      "midi": 43,
      "hit": false,
      "t": 61535,
      "d": 580,
      "v": 43
    },
    {
      "midi": 50,
      "hit": false,
      "t": 61840,
      "d": 305,
      "v": 30
    },
    {
      "midi": 71,
      "hit": false,
      "t": 61840,
      "d": 305,
      "v": 45
    },
    {
      "midi": 55,
      "hit": false,
      "t": 62145,
      "d": 195,
      "v": 41
    },
    {
      "midi": 69,
      "hit": false,
      "t": 62315,
      "d": 80,
      "v": 34
    },
    {
      "midi": 65,
      "hit": false,
      "t": 62315,
      "d": 250,
      "v": 37
    },
    {
      "midi": 71,
      "hit": false,
      "t": 62380,
      "d": 180,
      "v": 47
    },
    {
      "midi": 59,
      "hit": false,
      "t": 62495,
      "d": 275,
      "v": 40
    },
    {
      "midi": 69,
      "hit": false,
      "t": 62495,
      "d": 470,
      "v": 45
    },
    {
      "midi": 64,
      "hit": false,
      "t": 62785,
      "d": 320,
      "v": 45
    },
    {
      "midi": 67,
      "hit": false,
      "t": 62920,
      "d": 210,
      "v": 46
    },
    {
      "midi": 62,
      "hit": false,
      "t": 63080,
      "d": 80,
      "v": 45
    },
    {
      "midi": 67,
      "hit": false,
      "t": 63410,
      "d": 730,
      "v": 46
    },
    {
      "midi": 60,
      "hit": false,
      "t": 63410,
      "d": 750,
      "v": 45
    },
    {
      "midi": 64,
      "hit": false,
      "t": 63410,
      "d": 1165,
      "v": 33
    },
    {
      "midi": 48,
      "hit": false,
      "t": 63770,
      "d": 665,
      "v": 30
    },
    {
      "midi": 52,
      "hit": false,
      "t": 64075,
      "d": 445,
      "v": 43
    },
    {
      "midi": 67,
      "hit": false,
      "t": 64380,
      "d": 335,
      "v": 42
    },
    {
      "midi": 55,
      "hit": false,
      "t": 64400,
      "d": 315,
      "v": 47
    },
    {
      "midi": 60,
      "hit": false,
      "t": 64700,
      "d": 100,
      "v": 40
    },
    {
      "midi": 67,
      "hit": false,
      "t": 64870,
      "d": 220,
      "v": 46
    },
    {
      "midi": 64,
      "hit": false,
      "t": 65050,
      "d": 80,
      "v": 56
    },
    {
      "midi": 61,
      "hit": false,
      "t": 65480,
      "d": 600,
      "v": 46
    },
    {
      "midi": 67,
      "hit": false,
      "t": 65480,
      "d": 945,
      "v": 66
    },
    {
      "midi": 69,
      "hit": false,
      "t": 65480,
      "d": 945,
      "v": 66
    },
    {
      "midi": 49,
      "hit": false,
      "t": 65925,
      "d": 650,
      "v": 52
    },
    {
      "midi": 52,
      "hit": false,
      "t": 66245,
      "d": 250,
      "v": 56
    },
    {
      "midi": 57,
      "hit": false,
      "t": 66535,
      "d": 100,
      "v": 51
    },
    {
      "midi": 69,
      "hit": false,
      "t": 66535,
      "d": 265,
      "v": 49
    },
    {
      "midi": 67,
      "hit": false,
      "t": 66535,
      "d": 275,
      "v": 50
    },
    {
      "midi": 65,
      "hit": false,
      "t": 66870,
      "d": 140,
      "v": 41
    },
    {
      "midi": 67,
      "hit": false,
      "t": 67050,
      "d": 195,
      "v": 52
    },
    {
      "midi": 69,
      "hit": false,
      "t": 67050,
      "d": 195,
      "v": 52
    },
    {
      "midi": 64,
      "hit": false,
      "t": 67200,
      "d": 195,
      "v": 52
    },
    {
      "midi": 38,
      "hit": false,
      "t": 67510,
      "d": 315,
      "v": 55
    },
    {
      "midi": 69,
      "hit": false,
      "t": 67510,
      "d": 690,
      "v": 54
    },
    {
      "midi": 65,
      "hit": false,
      "t": 67510,
      "d": 720,
      "v": 52
    },
    {
      "midi": 50,
      "hit": false,
      "t": 67840,
      "d": 115,
      "v": 53
    },
    {
      "midi": 53,
      "hit": false,
      "t": 68120,
      "d": 360,
      "v": 55
    },
    {
      "midi": 57,
      "hit": false,
      "t": 68455,
      "d": 100,
      "v": 52
    },
    {
      "midi": 65,
      "hit": false,
      "t": 68455,
      "d": 245,
      "v": 47
    },
    {
      "midi": 69,
      "hit": false,
      "t": 68455,
      "d": 290,
      "v": 48
    },
    {
      "midi": 64,
      "hit": false,
      "t": 68730,
      "d": 295,
      "v": 55
    },
    {
      "midi": 65,
      "hit": false,
      "t": 68885,
      "d": 220,
      "v": 48
    },
    {
      "midi": 69,
      "hit": false,
      "t": 68900,
      "d": 190,
      "v": 56
    },
    {
      "midi": 62,
      "hit": false,
      "t": 69040,
      "d": 40,
      "v": 53
    },
    {
      "midi": 39,
      "hit": false,
      "t": 69370,
      "d": 330,
      "v": 62
    },
    {
      "midi": 69,
      "hit": false,
      "t": 69370,
      "d": 560,
      "v": 65
    },
    {
      "midi": 71,
      "hit": false,
      "t": 69370,
      "d": 595,
      "v": 68
    },
    {
      "midi": 51,
      "hit": false,
      "t": 69690,
      "d": 85,
      "v": 48
    },
    {
      "midi": 54,
      "hit": false,
      "t": 69980,
      "d": 115,
      "v": 63
    },
    {
      "midi": 69,
      "hit": false,
      "t": 70300,
      "d": 40,
      "v": 47
    },
    {
      "midi": 71,
      "hit": false,
      "t": 70300,
      "d": 40,
      "v": 47
    },
    {
      "midi": 59,
      "hit": false,
      "t": 70300,
      "d": 55,
      "v": 46
    },
    {
      "midi": 67,
      "hit": false,
      "t": 70610,
      "d": 250,
      "v": 54
    },
    {
      "midi": 69,
      "hit": false,
      "t": 70760,
      "d": 85,
      "v": 45
    },
    {
      "midi": 71,
      "hit": false,
      "t": 70760,
      "d": 135,
      "v": 55
    },
    {
      "midi": 66,
      "hit": false,
      "t": 70900,
      "d": 25,
      "v": 66
    },
    {
      "midi": 40,
      "hit": false,
      "t": 71270,
      "d": 390,
      "v": 63
    },
    {
      "midi": 71,
      "hit": false,
      "t": 71270,
      "d": 1150,
      "v": 51
    },
    {
      "midi": 67,
      "hit": false,
      "t": 71270,
      "d": 1625,
      "v": 47
    },
    {
      "midi": 47,
      "hit": false,
      "t": 71610,
      "d": 275,
      "v": 48
    },
    {
      "midi": 55,
      "hit": false,
      "t": 71915,
      "d": 150,
      "v": 47
    },
    {
      "midi": 59,
      "hit": false,
      "t": 72235,
      "d": 55,
      "v": 54
    },
    {
      "midi": 73,
      "hit": false,
      "t": 72235,
      "d": 665,
      "v": 47
    },
    {
      "midi": 66,
      "hit": false,
      "t": 72540,
      "d": 230,
      "v": 55
    },
    {
      "midi": 64,
      "hit": false,
      "t": 72830,
      "d": 70,
      "v": 49
    },
    {
      "midi": 42,
      "hit": false,
      "t": 73260,
      "d": 375,
      "v": 65
    },
    {
      "midi": 71,
      "hit": false,
      "t": 73260,
      "d": 1680,
      "v": 63
    },
    {
      "midi": 74,
      "hit": false,
      "t": 73260,
      "d": 1930,
      "v": 62
    },
    {
      "midi": 54,
      "hit": false,
      "t": 73610,
      "d": 70,
      "v": 53
    },
    {
      "midi": 62,
      "hit": false,
      "t": 73930,
      "d": 290,
      "v": 55
    },
    {
      "midi": 59,
      "hit": false,
      "t": 74230,
      "d": 70,
      "v": 57
    },
    {
      "midi": 67,
      "hit": false,
      "t": 74525,
      "d": 305,
      "v": 53
    },
    {
      "midi": 66,
      "hit": false,
      "t": 74815,
      "d": 55,
      "v": 54
    },
    {
      "midi": 42,
      "hit": false,
      "t": 75140,
      "d": 360,
      "v": 54
    },
    {
      "midi": 71,
      "hit": false,
      "t": 75140,
      "d": 945,
      "v": 52
    },
    {
      "midi": 73,
      "hit": false,
      "t": 75140,
      "d": 2440,
      "v": 65
    },
    {
      "midi": 54,
      "hit": false,
      "t": 75455,
      "d": 115,
      "v": 54
    },
    {
      "midi": 62,
      "hit": false,
      "t": 75805,
      "d": 305,
      "v": 55
    },
    {
      "midi": 61,
      "hit": false,
      "t": 76150,
      "d": 360,
      "v": 53
    },
    {
      "midi": 70,
      "hit": false,
      "t": 76150,
      "d": 1400,
      "v": 79
    },
    {
      "midi": 67,
      "hit": false,
      "t": 76510,
      "d": 430,
      "v": 62
    },
    {
      "midi": 66,
      "hit": false,
      "t": 76915,
      "d": 55,
      "v": 55
    },
    {
      "midi": 35,
      "hit": false,
      "t": 77570,
      "d": 330,
      "v": 55
    },
    {
      "midi": 69,
      "hit": false,
      "t": 77570,
      "d": 1635,
      "v": 47
    },
    {
      "midi": 75,
      "hit": false,
      "t": 77570,
      "d": 2055,
      "v": 51
    },
    {
      "midi": 47,
      "hit": false,
      "t": 77890,
      "d": 80,
      "v": 49
    },
    {
      "midi": 54,
      "hit": false,
      "t": 78210,
      "d": 175,
      "v": 56
    },
    {
      "midi": 59,
      "hit": false,
      "t": 78525,
      "d": 55,
      "v": 54
    },
    {
      "midi": 67,
      "hit": false,
      "t": 78845,
      "d": 305,
      "v": 49
    },
    {
      "midi": 66,
      "hit": false,
      "t": 79165,
      "d": 45,
      "v": 45
    },
    {
      "midi": 40,
      "hit": false,
      "t": 79515,
      "d": 495,
      "v": 49
    },
    {
      "midi": 76,
      "hit": false,
      "t": 79515,
      "d": 1555,
      "v": 45
    },
    {
      "midi": 67,
      "hit": false,
      "t": 79515,
      "d": 1745,
      "v": 40
    },
    {
      "midi": 47,
      "hit": false,
      "t": 79860,
      "d": 350,
      "v": 39
    },
    {
      "midi": 55,
      "hit": false,
      "t": 80195,
      "d": 385,
      "v": 37
    },
    {
      "midi": 59,
      "hit": false,
      "t": 80555,
      "d": 220,
      "v": 49
    },
    {
      "midi": 71,
      "hit": false,
      "t": 80555,
      "d": 540,
      "v": 45
    },
    {
      "midi": 66,
      "hit": false,
      "t": 80960,
      "d": 400,
      "v": 37
    },
    {
      "midi": 64,
      "hit": false,
      "t": 81375,
      "d": 835,
      "v": 44
    },
    {
      "midi": 42,
      "hit": false,
      "t": 82375,
      "d": 685,
      "v": 38
    },
    {
      "midi": 67,
      "hit": false,
      "t": 82375,
      "d": 1040,
      "v": 41
    },
    {
      "midi": 70,
      "hit": false,
      "t": 82375,
      "d": 2110,
      "v": 37
    },
    {
      "midi": 49,
      "hit": false,
      "t": 82850,
      "d": 330,
      "v": 41
    },
    {
      "midi": 52,
      "hit": false,
      "t": 83155,
      "d": 95,
      "v": 45
    },
    {
      "midi": 58,
      "hit": false,
      "t": 83470,
      "d": 310,
      "v": 37
    },
    {
      "midi": 66,
      "hit": false,
      "t": 83470,
      "d": 445,
      "v": 42
    },
    {
      "midi": 62,
      "hit": false,
      "t": 83780,
      "d": 360,
      "v": 40
    },
    {
      "midi": 61,
      "hit": false,
      "t": 84100,
      "d": 55,
      "v": 47
    },
    {
      "midi": 64,
      "hit": false,
      "t": 84100,
      "d": 165,
      "v": 41
    },
    {
      "midi": 42,
      "hit": false,
      "t": 84570,
      "d": 440,
      "v": 40
    },
    {
      "midi": 62,
      "hit": false,
      "t": 84570,
      "d": 1430,
      "v": 40
    },
    {
      "midi": 71,
      "hit": false,
      "t": 84570,
      "d": 1470,
      "v": 50
    },
    {
      "midi": 50,
      "hit": false,
      "t": 84905,
      "d": 305,
      "v": 49
    },
    {
      "midi": 54,
      "hit": false,
      "t": 85195,
      "d": 110,
      "v": 41
    },
    {
      "midi": 59,
      "hit": false,
      "t": 85515,
      "d": 390,
      "v": 50
    },
    {
      "midi": 58,
      "hit": false,
      "t": 85865,
      "d": 300,
      "v": 43
    },
    {
      "midi": 59,
      "hit": false,
      "t": 86170,
      "d": 95,
      "v": 47
    },
    {
      "midi": 42,
      "hit": false,
      "t": 86490,
      "d": 580,
      "v": 41
    },
    {
      "midi": 71,
      "hit": false,
      "t": 86490,
      "d": 1935,
      "v": 49
    },
    {
      "midi": 61,
      "hit": false,
      "t": 86490,
      "d": 3390,
      "v": 36
    },
    {
      "midi": 49,
      "hit": false,
      "t": 86820,
      "d": 275,
      "v": 34
    },
    {
      "midi": 53,
      "hit": false,
      "t": 87110,
      "d": 350,
      "v": 40
    },
    {
      "midi": 54,
      "hit": false,
      "t": 87450,
      "d": 290,
      "v": 42
    },
    {
      "midi": 57,
      "hit": false,
      "t": 87765,
      "d": 360,
      "v": 48
    },
    {
      "midi": 55,
      "hit": false,
      "t": 88085,
      "d": 55,
      "v": 45
    },
    {
      "midi": 42,
      "hit": false,
      "t": 88420,
      "d": 610,
      "v": 47
    },
    {
      "midi": 70,
      "hit": false,
      "t": 88420,
      "d": 1070,
      "v": 52
    },
    {
      "midi": 49,
      "hit": false,
      "t": 88755,
      "d": 330,
      "v": 39
    },
    {
      "midi": 53,
      "hit": false,
      "t": 89085,
      "d": 475,
      "v": 30
    },
    {
      "midi": 64,
      "hit": false,
      "t": 89490,
      "d": 1275,
      "v": 46
    },
    {
      "midi": 54,
      "hit": false,
      "t": 89505,
      "d": 430,
      "v": 35
    },
    {
      "midi": 53,
      "hit": false,
      "t": 89945,
      "d": 560,
      "v": 36
    },
    {
      "midi": 54,
      "hit": false,
      "t": 90515,
      "d": 125,
      "v": 29
    },
    {
      "midi": 35,
      "hit": false,
      "t": 91725,
      "d": 625,
      "v": 30
    },
    {
      "midi": 63,
      "hit": false,
      "t": 91725,
      "d": 3055,
      "v": 30
    },
    {
      "midi": 71,
      "hit": false,
      "t": 91725,
      "d": 3320,
      "v": 30
    },
    {
      "midi": 42,
      "hit": false,
      "t": 92295,
      "d": 125,
      "v": 31
    },
    {
      "midi": 54,
      "hit": false,
      "t": 92685,
      "d": 485,
      "v": 41
    },
    {
      "midi": 51,
      "hit": false,
      "t": 93020,
      "d": 415,
      "v": 42
    },
    {
      "midi": 49,
      "hit": false,
      "t": 93320,
      "d": 210,
      "v": 39
    },
    {
      "midi": 47,
      "hit": false,
      "t": 93615,
      "d": 95,
      "v": 40
    },
    {
      "midi": 35,
      "hit": false,
      "t": 93905,
      "d": 335,
      "v": 44
    },
    {
      "midi": 42,
      "hit": false,
      "t": 94210,
      "d": 85,
      "v": 36
    },
    {
      "midi": 54,
      "hit": false,
      "t": 94575,
      "d": 495,
      "v": 35
    },
    {
      "midi": 51,
      "hit": false,
      "t": 94935,
      "d": 525,
      "v": 40
    },
    {
      "midi": 49,
      "hit": false,
      "t": 95295,
      "d": 295,
      "v": 38
    },
    {
      "midi": 47,
      "hit": false,
      "t": 95670,
      "d": 110,
      "v": 39
    },
    {
      "midi": 35,
      "hit": false,
      "t": 96170,
      "d": 390,
      "v": 39
    },
    {
      "midi": 71,
      "hit": false,
      "t": 96170,
      "d": 1500,
      "v": 36
    },
    {
      "midi": 75,
      "hit": false,
      "t": 96170,
      "d": 1835,
      "v": 43
    },
    {
      "midi": 42,
      "hit": false,
      "t": 96505,
      "d": 70,
      "v": 38
    },
    {
      "midi": 54,
      "hit": false,
      "t": 96825,
      "d": 500,
      "v": 42
    },
    {
      "midi": 51,
      "hit": false,
      "t": 97155,
      "d": 265,
      "v": 30
    },
    {
      "midi": 49,
      "hit": false,
      "t": 97450,
      "d": 205,
      "v": 40
    },
    {
      "midi": 47,
      "hit": false,
      "t": 97755,
      "d": 100,
      "v": 39
    },
    {
      "midi": 69,
      "hit": false,
      "t": 97960,
      "d": 70,
      "v": 25
    },
    {
      "midi": 73,
      "hit": false,
      "t": 97960,
      "d": 70,
      "v": 41
    },
    {
      "midi": 35,
      "hit": false,
      "t": 98130,
      "d": 315,
      "v": 53
    },
    {
      "midi": 69,
      "hit": false,
      "t": 98130,
      "d": 1865,
      "v": 40
    },
    {
      "midi": 73,
      "hit": false,
      "t": 98130,
      "d": 1875,
      "v": 46
    },
    {
      "midi": 42,
      "hit": false,
      "t": 98395,
      "d": 65,
      "v": 40
    },
    {
      "midi": 54,
      "hit": false,
      "t": 98710,
      "d": 520,
      "v": 42
    },
    {
      "midi": 51,
      "hit": false,
      "t": 99035,
      "d": 470,
      "v": 42
    },
    {
      "midi": 49,
      "hit": false,
      "t": 99365,
      "d": 210,
      "v": 32
    },
    {
      "midi": 47,
      "hit": false,
      "t": 99700,
      "d": 95,
      "v": 40
    },
    {
      "midi": 71,
      "hit": false,
      "t": 99920,
      "d": 140,
      "v": 36
    },
    {
      "midi": 35,
      "hit": false,
      "t": 100230,
      "d": 360,
      "v": 36
    },
    {
      "midi": 71,
      "hit": false,
      "t": 100230,
      "d": 2745,
      "v": 48
    },
    {
      "midi": 68,
      "hit": false,
      "t": 100230,
      "d": 2820,
      "v": 47
    },
    {
      "midi": 47,
      "hit": false,
      "t": 100535,
      "d": 95,
      "v": 37
    },
    {
      "midi": 56,
      "hit": false,
      "t": 100840,
      "d": 305,
      "v": 45
    },
    {
      "midi": 52,
      "hit": false,
      "t": 101120,
      "d": 230,
      "v": 49
    },
    {
      "midi": 49,
      "hit": false,
      "t": 101435,
      "d": 210,
      "v": 37
    },
    {
      "midi": 47,
      "hit": false,
      "t": 101745,
      "d": 80,
      "v": 40
    },
    {
      "midi": 35,
      "hit": false,
      "t": 102060,
      "d": 280,
      "v": 43
    },
    {
      "midi": 47,
      "hit": false,
      "t": 102340,
      "d": 80,
      "v": 40
    },
    {
      "midi": 56,
      "hit": false,
      "t": 102645,
      "d": 320,
      "v": 51
    },
    {
      "midi": 52,
      "hit": false,
      "t": 102965,
      "d": 290,
      "v": 47
    },
    {
      "midi": 49,
      "hit": false,
      "t": 103315,
      "d": 190,
      "v": 47
    },
    {
      "midi": 69,
      "hit": false,
      "t": 103315,
      "d": 360,
      "v": 36
    },
    {
      "midi": 72,
      "hit": false,
      "t": 103315,
      "d": 455,
      "v": 46
    },
    {
      "midi": 47,
      "hit": false,
      "t": 103675,
      "d": 95,
      "v": 46
    },
    {
      "midi": 35,
      "hit": false,
      "t": 104065,
      "d": 345,
      "v": 43
    },
    {
      "midi": 73,
      "hit": false,
      "t": 104065,
      "d": 990,
      "v": 49
    },
    {
      "midi": 70,
      "hit": false,
      "t": 104065,
      "d": 1000,
      "v": 46
    },
    {
      "midi": 47,
      "hit": false,
      "t": 104380,
      "d": 115,
      "v": 39
    },
    {
      "midi": 55,
      "hit": false,
      "t": 104690,
      "d": 345,
      "v": 54
    },
    {
      "midi": 52,
      "hit": false,
      "t": 104980,
      "d": 250,
      "v": 45
    },
    {
      "midi": 49,
      "hit": false,
      "t": 105260,
      "d": 250,
      "v": 42
    },
    {
      "midi": 71,
      "hit": false,
      "t": 105410,
      "d": 210,
      "v": 49
    },
    {
      "midi": 75,
      "hit": false,
      "t": 105410,
      "d": 330,
      "v": 53
    },
    {
      "midi": 47,
      "hit": false,
      "t": 105560,
      "d": 100,
      "v": 40
    },
    {
      "midi": 76,
      "hit": false,
      "t": 105880,
      "d": 255,
      "v": 48
    },
    {
      "midi": 73,
      "hit": false,
      "t": 105880,
      "d": 260,
      "v": 49
    },
    {
      "midi": 35,
      "hit": false,
      "t": 105880,
      "d": 320,
      "v": 42
    },
    {
      "midi": 47,
      "hit": false,
      "t": 106160,
      "d": 110,
      "v": 45
    },
    {
      "midi": 78,
      "hit": false,
      "t": 106330,
      "d": 235,
      "v": 53
    },
    {
      "midi": 75,
      "hit": false,
      "t": 106330,
      "d": 260,
      "v": 56
    },
    {
      "midi": 55,
      "hit": false,
      "t": 106495,
      "d": 290,
      "v": 42
    },
    {
      "midi": 79,
      "hit": false,
      "t": 106740,
      "d": 390,
      "v": 59
    },
    {
      "midi": 76,
      "hit": false,
      "t": 106740,
      "d": 400,
      "v": 54
    },
    {
      "midi": 52,
      "hit": false,
      "t": 106740,
      "d": 415,
      "v": 48
    },
    {
      "midi": 49,
      "hit": false,
      "t": 107050,
      "d": 220,
      "v": 44
    },
    {
      "midi": 76,
      "hit": false,
      "t": 107275,
      "d": 205,
      "v": 54
    },
    {
      "midi": 79,
      "hit": false,
      "t": 107275,
      "d": 235,
      "v": 56
    },
    {
      "midi": 47,
      "hit": false,
      "t": 107350,
      "d": 205,
      "v": 49
    },
    {
      "midi": 35,
      "hit": false,
      "t": 107785,
      "d": 375,
      "v": 56
    },
    {
      "midi": 76,
      "hit": false,
      "t": 107785,
      "d": 915,
      "v": 39
    },
    {
      "midi": 79,
      "hit": false,
      "t": 107785,
      "d": 920,
      "v": 51
    },
    {
      "midi": 47,
      "hit": false,
      "t": 108105,
      "d": 110,
      "v": 37
    },
    {
      "midi": 54,
      "hit": false,
      "t": 108425,
      "d": 320,
      "v": 45
    },
    {
      "midi": 51,
      "hit": false,
      "t": 108715,
      "d": 315,
      "v": 46
    },
    {
      "midi": 78,
      "hit": false,
      "t": 108715,
      "d": 1975,
      "v": 43
    },
    {
      "midi": 75,
      "hit": false,
      "t": 108715,
      "d": 2015,
      "v": 46
    },
    {
      "midi": 49,
      "hit": false,
      "t": 109010,
      "d": 110,
      "v": 38
    },
    {
      "midi": 47,
      "hit": false,
      "t": 109300,
      "d": 95,
      "v": 44
    },
    {
      "midi": 35,
      "hit": false,
      "t": 109620,
      "d": 335,
      "v": 49
    },
    {
      "midi": 42,
      "hit": false,
      "t": 109910,
      "d": 70,
      "v": 37
    },
    {
      "midi": 54,
      "hit": false,
      "t": 110245,
      "d": 720,
      "v": 47
    },
    {
      "midi": 51,
      "hit": false,
      "t": 110590,
      "d": 375,
      "v": 36
    },
    {
      "midi": 49,
      "hit": false,
      "t": 110895,
      "d": 250,
      "v": 40
    },
    {
      "midi": 47,
      "hit": false,
      "t": 111260,
      "d": 110,
      "v": 53
    },
    {
      "midi": 35,
      "hit": false,
      "t": 111650,
      "d": 265,
      "v": 40
    },
    {
      "midi": 71,
      "hit": false,
      "t": 111650,
      "d": 1480,
      "v": 57
    },
    {
      "midi": 75,
      "hit": false,
      "t": 111650,
      "d": 1565,
      "v": 53
    },
    {
      "midi": 63,
      "hit": false,
      "t": 111650,
      "d": 1570,
      "v": 41
    },
    {
      "midi": 42,
      "hit": false,
      "t": 111910,
      "d": 60,
      "v": 41
    },
    {
      "midi": 54,
      "hit": false,
      "t": 112190,
      "d": 580,
      "v": 46
    },
    {
      "midi": 51,
      "hit": false,
      "t": 112495,
      "d": 335,
      "v": 38
    },
    {
      "midi": 49,
      "hit": false,
      "t": 112760,
      "d": 150,
      "v": 45
    },
    {
      "midi": 47,
      "hit": false,
      "t": 113040,
      "d": 95,
      "v": 50
    },
    {
      "midi": 35,
      "hit": false,
      "t": 113330,
      "d": 280,
      "v": 46
    },
    {
      "midi": 69,
      "hit": false,
      "t": 113330,
      "d": 890,
      "v": 54
    },
    {
      "midi": 63,
      "hit": false,
      "t": 113330,
      "d": 985,
      "v": 50
    },
    {
      "midi": 73,
      "hit": false,
      "t": 113330,
      "d": 990,
      "v": 55
    },
    {
      "midi": 42,
      "hit": false,
      "t": 113620,
      "d": 55,
      "v": 40
    },
    {
      "midi": 54,
      "hit": false,
      "t": 113900,
      "d": 580,
      "v": 45
    },
    {
      "midi": 51,
      "hit": false,
      "t": 114205,
      "d": 250,
      "v": 31
    },
    {
      "midi": 49,
      "hit": false,
      "t": 114455,
      "d": 125,
      "v": 45
    },
    {
      "midi": 69,
      "hit": false,
      "t": 114455,
      "d": 250,
      "v": 11
    },
    {
      "midi": 63,
      "hit": false,
      "t": 114455,
      "d": 375,
      "v": 40
    },
    {
      "midi": 71,
      "hit": false,
      "t": 114455,
      "d": 375,
      "v": 47
    },
    {
      "midi": 47,
      "hit": false,
      "t": 114705,
      "d": 110,
      "v": 49
    },
    {
      "midi": 35,
      "hit": false,
      "t": 115040,
      "d": 275,
      "v": 39
    },
    {
      "midi": 64,
      "hit": false,
      "t": 115040,
      "d": 2305,
      "v": 45
    },
    {
      "midi": 68,
      "hit": false,
      "t": 115040,
      "d": 2305,
      "v": 48
    },
    {
      "midi": 73,
      "hit": false,
      "t": 115040,
      "d": 2360,
      "v": 48
    },
    {
      "midi": 47,
      "hit": false,
      "t": 115300,
      "d": 85,
      "v": 41
    },
    {
      "midi": 56,
      "hit": false,
      "t": 115590,
      "d": 325,
      "v": 53
    },
    {
      "midi": 52,
      "hit": false,
      "t": 115875,
      "d": 215,
      "v": 52
    },
    {
      "midi": 71,
      "hit": false,
      "t": 115875,
      "d": 1495,
      "v": 47
    },
    {
      "midi": 49,
      "hit": false,
      "t": 116160,
      "d": 130,
      "v": 38
    },
    {
      "midi": 47,
      "hit": false,
      "t": 116415,
      "d": 85,
      "v": 48
    },
    {
      "midi": 35,
      "hit": false,
      "t": 116705,
      "d": 290,
      "v": 50
    },
    {
      "midi": 47,
      "hit": false,
      "t": 116985,
      "d": 70,
      "v": 40
    },
    {
      "midi": 56,
      "hit": false,
      "t": 117275,
      "d": 360,
      "v": 48
    },
    {
      "midi": 52,
      "hit": false,
      "t": 117565,
      "d": 180,
      "v": 50
    },
    {
      "midi": 71,
      "hit": false,
      "t": 117565,
      "d": 385,
      "v": 36
    },
    {
      "midi": 68,
      "hit": false,
      "t": 117565,
      "d": 395,
      "v": 46
    },
    {
      "midi": 64,
      "hit": false,
      "t": 117565,
      "d": 490,
      "v": 32
    },
    {
      "midi": 49,
      "hit": false,
      "t": 117845,
      "d": 150,
      "v": 40
    },
    {
      "midi": 47,
      "hit": false,
      "t": 118135,
      "d": 85,
      "v": 52
    },
    {
      "midi": 35,
      "hit": false,
      "t": 118440,
      "d": 330,
      "v": 45
    },
    {
      "midi": 67,
      "hit": false,
      "t": 118440,
      "d": 935,
      "v": 46
    },
    {
      "midi": 64,
      "hit": false,
      "t": 118440,
      "d": 975,
      "v": 46
    },
    {
      "midi": 70,
      "hit": false,
      "t": 118440,
      "d": 3240,
      "v": 45
    },
    {
      "midi": 47,
      "hit": false,
      "t": 118720,
      "d": 110,
      "v": 49
    },
    {
      "midi": 55,
      "hit": false,
      "t": 119055,
      "d": 360,
      "v": 44
    },
    {
      "midi": 52,
      "hit": false,
      "t": 119330,
      "d": 335,
      "v": 40
    },
    {
      "midi": 49,
      "hit": false,
      "t": 119620,
      "d": 320,
      "v": 48
    },
    {
      "midi": 66,
      "hit": false,
      "t": 119760,
      "d": 155,
      "v": 54
    },
    {
      "midi": 63,
      "hit": false,
      "t": 119760,
      "d": 210,
      "v": 39
    },
    {
      "midi": 47,
      "hit": false,
      "t": 119900,
      "d": 100,
      "v": 46
    },
    {
      "midi": 35,
      "hit": false,
      "t": 120190,
      "d": 350,
      "v": 50
    },
    {
      "midi": 67,
      "hit": false,
      "t": 120190,
      "d": 375,
      "v": 39
    },
    {
      "midi": 64,
      "hit": false,
      "t": 120190,
      "d": 390,
      "v": 35
    },
    {
      "midi": 47,
      "hit": false,
      "t": 120500,
      "d": 95,
      "v": 46
    },
    {
      "midi": 55,
      "hit": false,
      "t": 120700,
      "d": 290,
      "v": 50
    },
    {
      "midi": 63,
      "hit": false,
      "t": 120775,
      "d": 220,
      "v": 31
    },
    {
      "midi": 66,
      "hit": false,
      "t": 120775,
      "d": 220,
      "v": 40
    },
    {
      "midi": 52,
      "hit": false,
      "t": 121150,
      "d": 235,
      "v": 37
    },
    {
      "midi": 67,
      "hit": false,
      "t": 121150,
      "d": 235,
      "v": 39
    },
    {
      "midi": 64,
      "hit": false,
      "t": 121150,
      "d": 240,
      "v": 47
    },
    {
      "midi": 49,
      "hit": false,
      "t": 121375,
      "d": 275,
      "v": 45
    },
    {
      "midi": 67,
      "hit": false,
      "t": 121600,
      "d": 110,
      "v": 44
    },
    {
      "midi": 64,
      "hit": false,
      "t": 121600,
      "d": 150,
      "v": 40
    },
    {
      "midi": 47,
      "hit": false,
      "t": 121710,
      "d": 110,
      "v": 39
    },
    {
      "midi": 35,
      "hit": false,
      "t": 122040,
      "d": 320,
      "v": 51
    },
    {
      "midi": 64,
      "hit": false,
      "t": 122040,
      "d": 540,
      "v": 45
    },
    {
      "midi": 66,
      "hit": false,
      "t": 122040,
      "d": 3960,
      "v": 45
    },
    {
      "midi": 69,
      "hit": false,
      "t": 122040,
      "d": 4060,
      "v": 52
    },
    {
      "midi": 47,
      "hit": false,
      "t": 122335,
      "d": 110,
      "v": 46
    },
    {
      "midi": 54,
      "hit": false,
      "t": 122625,
      "d": 335,
      "v": 66
    },
    {
      "midi": 57,
      "hit": false,
      "t": 122915,
      "d": 290,
      "v": 56
    },
    {
      "midi": 63,
      "hit": false,
      "t": 122915,
      "d": 3030,
      "v": 51
    },
    {
      "midi": 60,
      "hit": false,
      "t": 123210,
      "d": 355,
      "v": 63
    },
    {
      "midi": 59,
      "hit": false,
      "t": 123515,
      "d": 135,
      "v": 49
    },
    {
      "midi": 57,
      "hit": false,
      "t": 123845,
      "d": 70,
      "v": 70
    },
    {
      "midi": 54,
      "hit": false,
      "t": 124190,
      "d": 70,
      "v": 79
    },
    {
      "midi": 51,
      "hit": false,
      "t": 124570,
      "d": 80,
      "v": 88
    },
    {
      "midi": 48,
      "hit": false,
      "t": 125085,
      "d": 85,
      "v": 66
    },
    {
      "midi": 47,
      "hit": false,
      "t": 125625,
      "d": 70,
      "v": 83
    },
    {
      "midi": 71,
      "hit": false,
      "t": 126415,
      "d": 265,
      "v": 65
    },
    {
      "midi": 35,
      "hit": false,
      "t": 126415,
      "d": 445,
      "v": 56
    },
    {
      "midi": 71,
      "hit": false,
      "t": 127335,
      "d": 3235,
      "v": 63
    },
    {
      "midi": 40,
      "hit": false,
      "t": 127710,
      "d": 640,
      "v": 55
    },
    {
      "midi": 79,
      "hit": false,
      "t": 127710,
      "d": 2670,
      "v": 52
    },
    {
      "midi": 47,
      "hit": false,
      "t": 128290,
      "d": 100,
      "v": 44
    },
    {
      "midi": 55,
      "hit": false,
      "t": 128640,
      "d": 305,
      "v": 47
    },
    {
      "midi": 52,
      "hit": false,
      "t": 128945,
      "d": 280,
      "v": 48
    },
    {
      "midi": 60,
      "hit": false,
      "t": 129265,
      "d": 320,
      "v": 45
    },
    {
      "midi": 59,
      "hit": false,
      "t": 129555,
      "d": 55,
      "v": 51
    },
    {
      "midi": 40,
      "hit": false,
      "t": 129860,
      "d": 320,
      "v": 55
    },
    {
      "midi": 47,
      "hit": false,
      "t": 130140,
      "d": 85,
      "v": 45
    },
    {
      "midi": 55,
      "hit": false,
      "t": 130460,
      "d": 250,
      "v": 51
    },
    {
      "midi": 52,
      "hit": false,
      "t": 130750,
      "d": 280,
      "v": 45
    },
    {
      "midi": 71,
      "hit": false,
      "t": 130765,
      "d": 70,
      "v": 47
    },
    {
      "midi": 71,
      "hit": false,
      "t": 130975,
      "d": 110,
      "v": 45
    },
    {
      "midi": 72,
      "hit": false,
      "t": 131040,
      "d": 185,
      "v": 55
    },
    {
      "midi": 60,
      "hit": false,
      "t": 131040,
      "d": 390,
      "v": 55
    },
    {
      "midi": 71,
      "hit": false,
      "t": 131170,
      "d": 110,
      "v": 51
    },
    {
      "midi": 70,
      "hit": false,
      "t": 131265,
      "d": 135,
      "v": 45
    },
    {
      "midi": 59,
      "hit": false,
      "t": 131420,
      "d": 70,
      "v": 55
    },
    {
      "midi": 71,
      "hit": false,
      "t": 131420,
      "d": 180,
      "v": 54
    },
    {
      "midi": 76,
      "hit": false,
      "t": 131600,
      "d": 260,
      "v": 60
    },
    {
      "midi": 42,
      "hit": false,
      "t": 131820,
      "d": 375,
      "v": 50
    },
    {
      "midi": 75,
      "hit": false,
      "t": 131820,
      "d": 2335,
      "v": 70
    },
    {
      "midi": 47,
      "hit": false,
      "t": 132155,
      "d": 70,
      "v": 46
    },
    {
      "midi": 57,
      "hit": false,
      "t": 132460,
      "d": 310,
      "v": 48
    },
    {
      "midi": 54,
      "hit": false,
      "t": 132750,
      "d": 265,
      "v": 39
    },
    {
      "midi": 60,
      "hit": false,
      "t": 133045,
      "d": 335,
      "v": 45
    },
    {
      "midi": 59,
      "hit": false,
      "t": 133335,
      "d": 70,
      "v": 53
    },
    {
      "midi": 43,
      "hit": false,
      "t": 133640,
      "d": 445,
      "v": 53
    },
    {
      "midi": 47,
      "hit": false,
      "t": 133960,
      "d": 265,
      "v": 45
    },
    {
      "midi": 55,
      "hit": false,
      "t": 134240,
      "d": 330,
      "v": 52
    },
    {
      "midi": 76,
      "hit": false,
      "t": 134570,
      "d": 125,
      "v": 52
    },
    {
      "midi": 52,
      "hit": false,
      "t": 134570,
      "d": 330,
      "v": 51
    },
    {
      "midi": 78,
      "hit": false,
      "t": 134685,
      "d": 195,
      "v": 52
    },
    {
      "midi": 76,
      "hit": false,
      "t": 134795,
      "d": 165,
      "v": 50
    },
    {
      "midi": 60,
      "hit": false,
      "t": 134905,
      "d": 335,
      "v": 46
    },
    {
      "midi": 75,
      "hit": false,
      "t": 134945,
      "d": 250,
      "v": 48
    },
    {
      "midi": 76,
      "hit": false,
      "t": 135115,
      "d": 165,
      "v": 45
    },
    {
      "midi": 59,
      "hit": false,
      "t": 135210,
      "d": 85,
      "v": 47
    },
    {
      "midi": 78,
      "hit": false,
      "t": 135240,
      "d": 180,
      "v": 53
    },
    {
      "midi": 79,
      "hit": false,
      "t": 135460,
      "d": 235,
      "v": 44
    },
    {
      "midi": 81,
      "hit": false,
      "t": 135750,
      "d": 180,
      "v": 51
    },
    {
      "midi": 39,
      "hit": false,
      "t": 136100,
      "d": 375,
      "v": 48
    },
    {
      "midi": 83,
      "hit": false,
      "t": 136100,
      "d": 1425,
      "v": 48
    },
    {
      "midi": 47,
      "hit": false,
      "t": 136490,
      "d": 55,
      "v": 46
    },
    {
      "midi": 57,
      "hit": false,
      "t": 136780,
      "d": 280,
      "v": 56
    },
    {
      "midi": 54,
      "hit": false,
      "t": 137060,
      "d": 250,
      "v": 37
    },
    {
      "midi": 60,
      "hit": false,
      "t": 137365,
      "d": 265,
      "v": 39
    },
    {
      "midi": 59,
      "hit": false,
      "t": 137640,
      "d": 45,
      "v": 40
    },
    {
      "midi": 40,
      "hit": false,
      "t": 137935,
      "d": 335,
      "v": 55
    },
    {
      "midi": 47,
      "hit": false,
      "t": 138230,
      "d": 80,
      "v": 49
    },
    {
      "midi": 55,
      "hit": false,
      "t": 138550,
      "d": 290,
      "v": 50
    },
    {
      "midi": 83,
      "hit": false,
      "t": 138840,
      "d": 125,
      "v": 45
    },
    {
      "midi": 52,
      "hit": false,
      "t": 138840,
      "d": 275,
      "v": 52
    },
    {
      "midi": 85,
      "hit": false,
      "t": 138950,
      "d": 180,
      "v": 52
    },
    {
      "midi": 83,
      "hit": false,
      "t": 139100,
      "d": 185,
      "v": 49
    },
    {
      "midi": 60,
      "hit": false,
      "t": 139100,
      "d": 235,
      "v": 52
    },
    {
      "midi": 82,
      "hit": false,
      "t": 139170,
      "d": 150,
      "v": 40
    },
    {
      "midi": 83,
      "hit": false,
      "t": 139285,
      "d": 120,
      "v": 54
    },
    {
      "midi": 59,
      "hit": false,
      "t": 139350,
      "d": 55,
      "v": 48
    },
    {
      "midi": 85,
      "hit": false,
      "t": 139350,
      "d": 120,
      "v": 54
    },
    {
      "midi": 86,
      "hit": false,
      "t": 139450,
      "d": 25,
      "v": 43
    },
    {
      "midi": 88,
      "hit": false,
      "t": 139500,
      "d": 25,
      "v": 43
    },
    {
      "midi": 90,
      "hit": false,
      "t": 139575,
      "d": 70,
      "v": 39
    },
    {
      "midi": 91,
      "hit": false,
      "t": 139650,
      "d": 115,
      "v": 50
    },
    {
      "midi": 78,
      "hit": false,
      "t": 139825,
      "d": 1015,
      "v": 52
    },
    {
      "midi": 35,
      "hit": false,
      "t": 139940,
      "d": 360,
      "v": 48
    },
    {
      "midi": 90,
      "hit": false,
      "t": 139940,
      "d": 830,
      "v": 59
    },
    {
      "midi": 47,
      "hit": false,
      "t": 140225,
      "d": 115,
      "v": 50
    },
    {
      "midi": 54,
      "hit": false,
      "t": 140645,
      "d": 390,
      "v": 47
    },
    {
      "midi": 55,
      "hit": false,
      "t": 141035,
      "d": 510,
      "v": 46
    },
    {
      "midi": 88,
      "hit": false,
      "t": 141170,
      "d": 310,
      "v": 59
    },
    {
      "midi": 85,
      "hit": false,
      "t": 141380,
      "d": 150,
      "v": 46
    },
    {
      "midi": 82,
      "hit": false,
      "t": 141480,
      "d": 95,
      "v": 56
    },
    {
      "midi": 46,
      "hit": false,
      "t": 141505,
      "d": 500,
      "v": 45
    },
    {
      "midi": 79,
      "hit": false,
      "t": 141530,
      "d": 70,
      "v": 66
    },
    {
      "midi": 76,
      "hit": false,
      "t": 141575,
      "d": 500,
      "v": 55
    },
    {
      "midi": 73,
      "hit": false,
      "t": 141660,
      "d": 225,
      "v": 55
    },
    {
      "midi": 70,
      "hit": false,
      "t": 141745,
      "d": 140,
      "v": 45
    },
    {
      "midi": 67,
      "hit": false,
      "t": 141825,
      "d": 140,
      "v": 45
    },
    {
      "midi": 58,
      "hit": false,
      "t": 141980,
      "d": 95,
      "v": 36
    },
    {
      "midi": 64,
      "hit": false,
      "t": 141980,
      "d": 140,
      "v": 41
    },
    {
      "midi": 59,
      "hit": false,
      "t": 142310,
      "d": 365,
      "v": 49
    },
    {
      "midi": 71,
      "hit": false,
      "t": 142310,
      "d": 1860,
      "v": 54
    },
    {
      "midi": 63,
      "hit": false,
      "t": 142310,
      "d": 1965,
      "v": 49
    },
    {
      "midi": 47,
      "hit": false,
      "t": 142660,
      "d": 65,
      "v": 47
    },
    {
      "midi": 46,
      "hit": false,
      "t": 142980,
      "d": 110,
      "v": 45
    },
    {
      "midi": 47,
      "hit": false,
      "t": 143350,
      "d": 910,
      "v": 47
    },
    {
      "midi": 51,
      "hit": false,
      "t": 143755,
      "d": 505,
      "v": 42
    },
    {
      "midi": 54,
      "hit": false,
      "t": 144200,
      "d": 80,
      "v": 38
    },
    {
      "midi": 43,
      "hit": false,
      "t": 145200,
      "d": 430,
      "v": 40
    },
    {
      "midi": 71,
      "hit": false,
      "t": 145300,
      "d": 600,
      "v": 50
    },
    {
      "midi": 50,
      "hit": false,
      "t": 145605,
      "d": 365,
      "v": 40
    },
    {
      "midi": 59,
      "hit": false,
      "t": 145980,
      "d": 10,
      "v": 48
    },
    {
      "midi": 62,
      "hit": false,
      "t": 145980,
      "d": 95,
      "v": 42
    },
    {
      "midi": 64,
      "hit": false,
      "t": 146035,
      "d": 95,
      "v": 63
    },
    {
      "midi": 66,
      "hit": false,
      "t": 146120,
      "d": 55,
      "v": 40
    },
    {
      "midi": 67,
      "hit": false,
      "t": 146200,
      "d": 125,
      "v": 60
    },
    {
      "midi": 69,
      "hit": false,
      "t": 146285,
      "d": 95,
      "v": 63
    },
    {
      "midi": 71,
      "hit": false,
      "t": 146325,
      "d": 255,
      "v": 57
    },
    {
      "midi": 55,
      "hit": false,
      "t": 146325,
      "d": 390,
      "v": 46
    },
    {
      "midi": 64,
      "hit": false,
      "t": 146685,
      "d": 380,
      "v": 44
    },
    {
      "midi": 71,
      "hit": false,
      "t": 146980,
      "d": 120,
      "v": 83
    },
    {
      "midi": 62,
      "hit": false,
      "t": 146980,
      "d": 800,
      "v": 53
    },
    {
      "midi": 42,
      "hit": false,
      "t": 147310,
      "d": 350,
      "v": 55
    },
    {
      "midi": 71,
      "hit": false,
      "t": 147310,
      "d": 365,
      "v": 83
    },
    {
      "midi": 54,
      "hit": false,
      "t": 147660,
      "d": 100,
      "v": 40
    },
    {
      "midi": 62,
      "hit": false,
      "t": 148090,
      "d": 95,
      "v": 55
    },
    {
      "midi": 64,
      "hit": false,
      "t": 148355,
      "d": 150,
      "v": 56
    },
    {
      "midi": 71,
      "hit": false,
      "t": 148440,
      "d": 180,
      "v": 51
    },
    {
      "midi": 70,
      "hit": false,
      "t": 148575,
      "d": 75,
      "v": 51
    },
    {
      "midi": 64,
      "hit": false,
      "t": 148590,
      "d": 220,
      "v": 17
    },
    {
      "midi": 68,
      "hit": false,
      "t": 148630,
      "d": 170,
      "v": 37
    },
    {
      "midi": 70,
      "hit": false,
      "t": 148745,
      "d": 95,
      "v": 40
    },
    {
      "midi": 61,
      "hit": false,
      "t": 148745,
      "d": 260,
      "v": 39
    },
    {
      "midi": 71,
      "hit": false,
      "t": 148825,
      "d": 85,
      "v": 40
    },
    {
      "midi": 73,
      "hit": false,
      "t": 148925,
      "d": 125,
      "v": 45
    },
    {
      "midi": 74,
      "hit": false,
      "t": 148995,
      "d": 95,
      "v": 63
    },
    {
      "midi": 54,
      "hit": false,
      "t": 149100,
      "d": 70,
      "v": 54
    },
    {
      "midi": 76,
      "hit": false,
      "t": 149100,
      "d": 95,
      "v": 63
    },
    {
      "midi": 78,
      "hit": false,
      "t": 149145,
      "d": 155,
      "v": 52
    },
    {
      "midi": 80,
      "hit": false,
      "t": 149260,
      "d": 165,
      "v": 49
    },
    {
      "midi": 82,
      "hit": false,
      "t": 149340,
      "d": 195,
      "v": 49
    },
    {
      "midi": 47,
      "hit": false,
      "t": 149465,
      "d": 375,
      "v": 54
    },
    {
      "midi": 83,
      "hit": false,
      "t": 149465,
      "d": 1615,
      "v": 59
    },
    {
      "midi": 54,
      "hit": false,
      "t": 149830,
      "d": 65,
      "v": 40
    },
    {
      "midi": 62,
      "hit": false,
      "t": 150150,
      "d": 360,
      "v": 46
    },
    {
      "midi": 59,
      "hit": false,
      "t": 150455,
      "d": 80,
      "v": 47
    },
    {
      "midi": 67,
      "hit": false,
      "t": 150775,
      "d": 330,
      "v": 45
    },
    {
      "midi": 66,
      "hit": false,
      "t": 151090,
      "d": 320,
      "v": 39
    },
    {
      "midi": 83,
      "hit": false,
      "t": 151440,
      "d": 195,
      "v": 55
    },
    {
      "midi": 65,
      "hit": false,
      "t": 151440,
      "d": 370,
      "v": 50
    },
    {
      "midi": 85,
      "hit": false,
      "t": 151645,
      "d": 100,
      "v": 52
    },
    {
      "midi": 83,
      "hit": false,
      "t": 151745,
      "d": 100,
      "v": 48
    },
    {
      "midi": 62,
      "hit": false,
      "t": 151745,
      "d": 290,
      "v": 45
    },
    {
      "midi": 85,
      "hit": false,
      "t": 151830,
      "d": 100,
      "v": 56
    },
    {
      "midi": 83,
      "hit": false,
      "t": 151910,
      "d": 100,
      "v": 50
    },
    {
      "midi": 85,
      "hit": false,
      "t": 151970,
      "d": 100,
      "v": 52
    },
    {
      "midi": 59,
      "hit": false,
      "t": 152040,
      "d": 70,
      "v": 52
    },
    {
      "midi": 83,
      "hit": false,
      "t": 152040,
      "d": 100,
      "v": 49
    },
    {
      "midi": 85,
      "hit": false,
      "t": 152120,
      "d": 100,
      "v": 52
    },
    {
      "midi": 83,
      "hit": false,
      "t": 152175,
      "d": 100,
      "v": 47
    },
    {
      "midi": 85,
      "hit": false,
      "t": 152245,
      "d": 100,
      "v": 53
    },
    {
      "midi": 56,
      "hit": false,
      "t": 152315,
      "d": 55,
      "v": 63
    },
    {
      "midi": 83,
      "hit": false,
      "t": 152315,
      "d": 100,
      "v": 54
    },
    {
      "midi": 83,
      "hit": false,
      "t": 152550,
      "d": 75,
      "v": 55
    },
    {
      "midi": 53,
      "hit": false,
      "t": 152590,
      "d": 55,
      "v": 63
    },
    {
      "midi": 85,
      "hit": false,
      "t": 152625,
      "d": 5,
      "v": 55
    },
    {
      "midi": 83,
      "hit": false,
      "t": 152690,
      "d": 55,
      "v": 55
    },
    {
      "midi": 85,
      "hit": false,
      "t": 152740,
      "d": 105,
      "v": 47
    },
    {
      "midi": 83,
      "hit": false,
      "t": 152825,
      "d": 170,
      "v": 55
    },
    {
      "midi": 41,
      "hit": false,
      "t": 152925,
      "d": 45,
      "v": 49
    },
    {
      "midi": 85,
      "hit": false,
      "t": 152925,
      "d": 110,
      "v": 45
    },
    {
      "midi": 83,
      "hit": false,
      "t": 153420,
      "d": 45,
      "v": 68
    },
    {
      "midi": 42,
      "hit": false,
      "t": 153420,
      "d": 815,
      "v": 68
    },
    {
      "midi": 85,
      "hit": false,
      "t": 153495,
      "d": 125,
      "v": 68
    },
    {
      "midi": 86,
      "hit": false,
      "t": 153610,
      "d": 65,
      "v": 46
    },
    {
      "midi": 85,
      "hit": false,
      "t": 153690,
      "d": 55,
      "v": 47
    },
    {
      "midi": 54,
      "hit": false,
      "t": 153695,
      "d": 95,
      "v": 52
    },
    {
      "midi": 86,
      "hit": false,
      "t": 153760,
      "d": 80,
      "v": 55
    },
    {
      "midi": 85,
      "hit": false,
      "t": 153840,
      "d": 75,
      "v": 62
    },
    {
      "midi": 86,
      "hit": false,
      "t": 153930,
      "d": 65,
      "v": 54
    },
    {
      "midi": 61,
      "hit": false,
      "t": 153970,
      "d": 235,
      "v": 54
    },
    {
      "midi": 85,
      "hit": false,
      "t": 154010,
      "d": 30,
      "v": 45
    },
    {
      "midi": 86,
      "hit": false,
      "t": 154065,
      "d": 70,
      "v": 47
    },
    {
      "midi": 85,
      "hit": false,
      "t": 154135,
      "d": 65,
      "v": 39
    },
    {
      "midi": 86,
      "hit": false,
      "t": 154205,
      "d": 85,
      "v": 54
    },
    {
      "midi": 64,
      "hit": false,
      "t": 154245,
      "d": 335,
      "v": 57
    },
    {
      "midi": 85,
      "hit": false,
      "t": 154290,
      "d": 40,
      "v": 43
    },
    {
      "midi": 86,
      "hit": false,
      "t": 154340,
      "d": 100,
      "v": 55
    },
    {
      "midi": 85,
      "hit": false,
      "t": 154430,
      "d": 65,
      "v": 49
    },
    {
      "midi": 86,
      "hit": false,
      "t": 154510,
      "d": 85,
      "v": 51
    },
    {
      "midi": 85,
      "hit": false,
      "t": 154580,
      "d": 85,
      "v": 54
    },
    {
      "midi": 67,
      "hit": false,
      "t": 154580,
      "d": 390,
      "v": 65
    },
    {
      "midi": 86,
      "hit": false,
      "t": 154675,
      "d": 110,
      "v": 53
    },
    {
      "midi": 85,
      "hit": false,
      "t": 154775,
      "d": 110,
      "v": 57
    },
    {
      "midi": 86,
      "hit": false,
      "t": 154900,
      "d": 95,
      "v": 53
    },
    {
      "midi": 66,
      "hit": false,
      "t": 154955,
      "d": 275,
      "v": 52
    },
    {
      "midi": 85,
      "hit": false,
      "t": 154980,
      "d": 85,
      "v": 55
    },
    {
      "midi": 86,
      "hit": false,
      "t": 155050,
      "d": 110,
      "v": 53
    },
    {
      "midi": 85,
      "hit": false,
      "t": 155150,
      "d": 80,
      "v": 60
    },
    {
      "midi": 86,
      "hit": false,
      "t": 155260,
      "d": 70,
      "v": 47
    },
    {
      "midi": 85,
      "hit": false,
      "t": 155330,
      "d": 70,
      "v": 59
    },
    {
      "midi": 86,
      "hit": false,
      "t": 155400,
      "d": 80,
      "v": 54
    },
    {
      "midi": 64,
      "hit": false,
      "t": 155400,
      "d": 460,
      "v": 53
    },
    {
      "midi": 85,
      "hit": false,
      "t": 155495,
      "d": 70,
      "v": 56
    },
    {
      "midi": 86,
      "hit": false,
      "t": 155565,
      "d": 85,
      "v": 53
    },
    {
      "midi": 85,
      "hit": false,
      "t": 155635,
      "d": 85,
      "v": 55
    },
    {
      "midi": 86,
      "hit": false,
      "t": 155730,
      "d": 90,
      "v": 52
    },
    {
      "midi": 61,
      "hit": false,
      "t": 155775,
      "d": 95,
      "v": 53
    },
    {
      "midi": 85,
      "hit": false,
      "t": 155820,
      "d": 65,
      "v": 54
    },
    {
      "midi": 86,
      "hit": false,
      "t": 155885,
      "d": 95,
      "v": 54
    },
    {
      "midi": 85,
      "hit": false,
      "t": 155970,
      "d": 70,
      "v": 45
    },
    {
      "midi": 86,
      "hit": false,
      "t": 156050,
      "d": 100,
      "v": 54
    },
    {
      "midi": 58,
      "hit": false,
      "t": 156080,
      "d": 65,
      "v": 53
    },
    {
      "midi": 86,
      "hit": false,
      "t": 156250,
      "d": 105,
      "v": 40
    },
    {
      "midi": 85,
      "hit": false,
      "t": 156375,
      "d": 10,
      "v": 45
    },
    {
      "midi": 84,
      "hit": false,
      "t": 156440,
      "d": 140,
      "v": 54
    },
    {
      "midi": 54,
      "hit": false,
      "t": 156440,
      "d": 420,
      "v": 56
    },
    {
      "midi": 85,
      "hit": false,
      "t": 156540,
      "d": 95,
      "v": 68
    },
    {
      "midi": 86,
      "hit": false,
      "t": 156660,
      "d": 130,
      "v": 54
    },
    {
      "midi": 87,
      "hit": false,
      "t": 156760,
      "d": 100,
      "v": 56
    },
    {
      "midi": 42,
      "hit": false,
      "t": 156800,
      "d": 90,
      "v": 46
    },
    {
      "midi": 88,
      "hit": false,
      "t": 156885,
      "d": 115,
      "v": 55
    },
    {
      "midi": 89,
      "hit": false,
      "t": 156970,
      "d": 95,
      "v": 45
    },
    {
      "midi": 90,
      "hit": false,
      "t": 157020,
      "d": 60,
      "v": 63
    },
    {
      "midi": 91,
      "hit": false,
      "t": 157120,
      "d": 130,
      "v": 48
    },
    {
      "midi": 92,
      "hit": false,
      "t": 157220,
      "d": 70,
      "v": 55
    },
    {
      "midi": 30,
      "hit": false,
      "t": 157220,
      "d": 815,
      "v": 51
    },
    {
      "midi": 93,
      "hit": false,
      "t": 157275,
      "d": 75,
      "v": 55
    },
    {
      "midi": 94,
      "hit": false,
      "t": 157350,
      "d": 75,
      "v": 55
    },
    {
      "midi": 35,
      "hit": false,
      "t": 157695,
      "d": 465,
      "v": 79
    },
    {
      "midi": 95,
      "hit": false,
      "t": 157695,
      "d": 1055,
      "v": 93
    },
    {
      "midi": 83,
      "hit": false,
      "t": 157695,
      "d": 1110,
      "v": 75
    },
    {
      "midi": 47,
      "hit": false,
      "t": 158160,
      "d": 70,
      "v": 59
    },
    {
      "midi": 54,
      "hit": false,
      "t": 158635,
      "d": 625,
      "v": 56
    },
    {
      "midi": 57,
      "hit": false,
      "t": 159190,
      "d": 330,
      "v": 55
    },
    {
      "midi": 63,
      "hit": false,
      "t": 159190,
      "d": 765,
      "v": 56
    },
    {
      "midi": 60,
      "hit": false,
      "t": 159525,
      "d": 420,
      "v": 56
    },
    {
      "midi": 59,
      "hit": false,
      "t": 159875,
      "d": 105,
      "v": 48
    },
    {
      "midi": 55,
      "hit": false,
      "t": 160190,
      "d": 375,
      "v": 55
    },
    {
      "midi": 64,
      "hit": false,
      "t": 160190,
      "d": 620,
      "v": 55
    },
    {
      "midi": 60,
      "hit": false,
      "t": 160540,
      "d": 390,
      "v": 47
    },
    {
      "midi": 59,
      "hit": false,
      "t": 160875,
      "d": 80,
      "v": 49
    },
    {
      "midi": 66,
      "hit": false,
      "t": 161220,
      "d": 375,
      "v": 57
    },
    {
      "midi": 54,
      "hit": false,
      "t": 161220,
      "d": 460,
      "v": 50
    },
    {
      "midi": 60,
      "hit": false,
      "t": 161620,
      "d": 545,
      "v": 44
    },
    {
      "midi": 59,
      "hit": false,
      "t": 162110,
      "d": 80,
      "v": 48
    },
    {
      "midi": 79,
      "hit": false,
      "t": 163300,
      "d": 2410,
      "v": 53
    },
    {
      "midi": 67,
      "hit": false,
      "t": 163300,
      "d": 2415,
      "v": 45
    },
    {
      "midi": 47,
      "hit": false,
      "t": 163970,
      "d": 70,
      "v": 45
    },
    {
      "midi": 55,
      "hit": false,
      "t": 164305,
      "d": 320,
      "v": 46
    },
    {
      "midi": 52,
      "hit": false,
      "t": 164625,
      "d": 250,
      "v": 46
    },
    {
      "midi": 60,
      "hit": false,
      "t": 164930,
      "d": 330,
      "v": 55
    },
    {
      "midi": 59,
      "hit": false,
      "t": 165220,
      "d": 70,
      "v": 57
    },
    {
      "midi": 40,
      "hit": false,
      "t": 165555,
      "d": 350,
      "v": 61
    },
    {
      "midi": 47,
      "hit": false,
      "t": 165860,
      "d": 70,
      "v": 41
    },
    {
      "midi": 55,
      "hit": false,
      "t": 166155,
      "d": 290,
      "v": 48
    },
    {
      "midi": 78,
      "hit": false,
      "t": 166155,
      "d": 455,
      "v": 56
    },
    {
      "midi": 66,
      "hit": false,
      "t": 166155,
      "d": 465,
      "v": 53
    },
    {
      "midi": 52,
      "hit": false,
      "t": 166470,
      "d": 210,
      "v": 42
    },
    {
      "midi": 60,
      "hit": false,
      "t": 166780,
      "d": 345,
      "v": 44
    },
    {
      "midi": 59,
      "hit": false,
      "t": 167070,
      "d": 80,
      "v": 49
    },
    {
      "midi": 64,
      "hit": false,
      "t": 167220,
      "d": 105,
      "v": 47
    },
    {
      "midi": 76,
      "hit": false,
      "t": 167220,
      "d": 110,
      "v": 47
    },
    {
      "midi": 42,
      "hit": false,
      "t": 167595,
      "d": 420,
      "v": 58
    },
    {
      "midi": 63,
      "hit": false,
      "t": 167595,
      "d": 2255,
      "v": 68
    },
    {
      "midi": 75,
      "hit": false,
      "t": 167595,
      "d": 2255,
      "v": 65
    },
    {
      "midi": 47,
      "hit": false,
      "t": 167930,
      "d": 85,
      "v": 42
    },
    {
      "midi": 57,
      "hit": false,
      "t": 168240,
      "d": 300,
      "v": 60
    },
    {
      "midi": 54,
      "hit": false,
      "t": 168530,
      "d": 265,
      "v": 41
    },
    {
      "midi": 60,
      "hit": false,
      "t": 168835,
      "d": 345,
      "v": 51
    },
    {
      "midi": 59,
      "hit": false,
      "t": 169140,
      "d": 65,
      "v": 53
    },
    {
      "midi": 40,
      "hit": false,
      "t": 169500,
      "d": 555,
      "v": 62
    },
    {
      "midi": 64,
      "hit": false,
      "t": 170030,
      "d": 70,
      "v": 55
    },
    {
      "midi": 47,
      "hit": false,
      "t": 170030,
      "d": 80,
      "v": 48
    },
    {
      "midi": 76,
      "hit": false,
      "t": 170030,
      "d": 110,
      "v": 56
    },
    {
      "midi": 78,
      "hit": false,
      "t": 170380,
      "d": 80,
      "v": 62
    },
    {
      "midi": 66,
      "hit": false,
      "t": 170380,
      "d": 95,
      "v": 56
    },
    {
      "midi": 55,
      "hit": false,
      "t": 170380,
      "d": 130,
      "v": 55
    },
    {
      "midi": 52,
      "hit": false,
      "t": 170625,
      "d": 235,
      "v": 56
    },
    {
      "midi": 67,
      "hit": false,
      "t": 170625,
      "d": 380,
      "v": 53
    },
    {
      "midi": 79,
      "hit": false,
      "t": 170625,
      "d": 555,
      "v": 45
    },
    {
      "midi": 60,
      "hit": false,
      "t": 170925,
      "d": 75,
      "v": 53
    },
    {
      "midi": 81,
      "hit": false,
      "t": 170925,
      "d": 225,
      "v": 66
    },
    {
      "midi": 69,
      "hit": false,
      "t": 170925,
      "d": 680,
      "v": 63
    },
    {
      "midi": 59,
      "hit": false,
      "t": 171300,
      "d": 55,
      "v": 55
    },
    {
      "midi": 71,
      "hit": false,
      "t": 171425,
      "d": 100,
      "v": 49
    },
    {
      "midi": 83,
      "hit": false,
      "t": 171425,
      "d": 100,
      "v": 54
    },
    {
      "midi": 71,
      "hit": false,
      "t": 171625,
      "d": 235,
      "v": 56
    },
    {
      "midi": 83,
      "hit": false,
      "t": 171625,
      "d": 235,
      "v": 56
    },
    {
      "midi": 39,
      "hit": false,
      "t": 171625,
      "d": 250,
      "v": 48
    },
    {
      "midi": 47,
      "hit": false,
      "t": 171930,
      "d": 75,
      "v": 47
    },
    {
      "midi": 71,
      "hit": false,
      "t": 171930,
      "d": 110,
      "v": 42
    },
    {
      "midi": 83,
      "hit": false,
      "t": 171930,
      "d": 135,
      "v": 55
    },
    {
      "midi": 71,
      "hit": false,
      "t": 172210,
      "d": 95,
      "v": 50
    },
    {
      "midi": 83,
      "hit": false,
      "t": 172210,
      "d": 110,
      "v": 56
    },
    {
      "midi": 57,
      "hit": false,
      "t": 172210,
      "d": 265,
      "v": 39
    },
    {
      "midi": 83,
      "hit": false,
      "t": 172505,
      "d": 100,
      "v": 56
    },
    {
      "midi": 71,
      "hit": false,
      "t": 172505,
      "d": 105,
      "v": 54
    },
    {
      "midi": 54,
      "hit": false,
      "t": 172505,
      "d": 165,
      "v": 38
    },
    {
      "midi": 69,
      "hit": false,
      "t": 172795,
      "d": 80,
      "v": 66
    },
    {
      "midi": 71,
      "hit": false,
      "t": 172795,
      "d": 85,
      "v": 51
    },
    {
      "midi": 60,
      "hit": false,
      "t": 172795,
      "d": 295,
      "v": 52
    },
    {
      "midi": 59,
      "hit": false,
      "t": 173070,
      "d": 55,
      "v": 56
    },
    {
      "midi": 71,
      "hit": false,
      "t": 173070,
      "d": 85,
      "v": 56
    },
    {
      "midi": 69,
      "hit": false,
      "t": 173070,
      "d": 95,
      "v": 63
    },
    {
      "midi": 40,
      "hit": false,
      "t": 173335,
      "d": 320,
      "v": 56
    },
    {
      "midi": 69,
      "hit": false,
      "t": 173335,
      "d": 365,
      "v": 56
    },
    {
      "midi": 71,
      "hit": false,
      "t": 173335,
      "d": 375,
      "v": 57
    },
    {
      "midi": 47,
      "hit": false,
      "t": 173615,
      "d": 65,
      "v": 48
    },
    {
      "midi": 68,
      "hit": false,
      "t": 173615,
      "d": 120,
      "v": 54
    },
    {
      "midi": 67,
      "hit": false,
      "t": 173910,
      "d": 90,
      "v": 63
    },
    {
      "midi": 71,
      "hit": false,
      "t": 173910,
      "d": 90,
      "v": 45
    },
    {
      "midi": 55,
      "hit": false,
      "t": 173910,
      "d": 235,
      "v": 47
    },
    {
      "midi": 52,
      "hit": false,
      "t": 174195,
      "d": 295,
      "v": 52
    },
    {
      "midi": 67,
      "hit": false,
      "t": 174195,
      "d": 335,
      "v": 59
    },
    {
      "midi": 71,
      "hit": false,
      "t": 174195,
      "d": 390,
      "v": 57
    },
    {
      "midi": 69,
      "hit": false,
      "t": 174490,
      "d": 275,
      "v": 48
    },
    {
      "midi": 60,
      "hit": false,
      "t": 174490,
      "d": 290,
      "v": 47
    },
    {
      "midi": 66,
      "hit": false,
      "t": 174490,
      "d": 360,
      "v": 48
    },
    {
      "midi": 67,
      "hit": false,
      "t": 174770,
      "d": 45,
      "v": 38
    },
    {
      "midi": 59,
      "hit": false,
      "t": 174770,
      "d": 60,
      "v": 50
    },
    {
      "midi": 64,
      "hit": false,
      "t": 174770,
      "d": 110,
      "v": 53
    },
    {
      "midi": 35,
      "hit": false,
      "t": 175075,
      "d": 290,
      "v": 42
    },
    {
      "midi": 63,
      "hit": false,
      "t": 175075,
      "d": 665,
      "v": 53
    },
    {
      "midi": 66,
      "hit": false,
      "t": 175075,
      "d": 720,
      "v": 54
    },
    {
      "midi": 47,
      "hit": false,
      "t": 175375,
      "d": 70,
      "v": 50
    },
    {
      "midi": 59,
      "hit": false,
      "t": 175710,
      "d": 345,
      "v": 46
    },
    {
      "midi": 58,
      "hit": false,
      "t": 176030,
      "d": 320,
      "v": 40
    },
    {
      "midi": 64,
      "hit": false,
      "t": 176030,
      "d": 720,
      "v": 54
    },
    {
      "midi": 76,
      "hit": false,
      "t": 176350,
      "d": 125,
      "v": 43
    },
    {
      "midi": 55,
      "hit": false,
      "t": 176350,
      "d": 305,
      "v": 45
    },
    {
      "midi": 67,
      "hit": false,
      "t": 176670,
      "d": 55,
      "v": 45
    },
    {
      "midi": 46,
      "hit": false,
      "t": 176670,
      "d": 70,
      "v": 45
    },
    {
      "midi": 76,
      "hit": false,
      "t": 176670,
      "d": 70,
      "v": 39
    },
    {
      "midi": 47,
      "hit": false,
      "t": 176990,
      "d": 330,
      "v": 46
    },
    {
      "midi": 66,
      "hit": false,
      "t": 176990,
      "d": 1870,
      "v": 55
    },
    {
      "midi": 75,
      "hit": false,
      "t": 176990,
      "d": 1960,
      "v": 56
    },
    {
      "midi": 35,
      "hit": false,
      "t": 177320,
      "d": 310,
      "v": 66
    },
    {
      "midi": 47,
      "hit": false,
      "t": 177670,
      "d": 85,
      "v": 50
    },
    {
      "midi": 51,
      "hit": false,
      "t": 178030,
      "d": 415,
      "v": 52
    },
    {
      "midi": 54,
      "hit": false,
      "t": 178395,
      "d": 470,
      "v": 42
    },
    {
      "midi": 59,
      "hit": false,
      "t": 178825,
      "d": 1075,
      "v": 40
    },
    {
      "midi": 60,
      "hit": false,
      "t": 179880,
      "d": 380,
      "v": 52
    },
    {
      "midi": 72,
      "hit": false,
      "t": 179880,
      "d": 2540,
      "v": 59
    },
    {
      "midi": 75,
      "hit": false,
      "t": 179880,
      "d": 2555,
      "v": 54
    },
    {
      "midi": 66,
      "hit": false,
      "t": 179880,
      "d": 2570,
      "v": 47
    },
    {
      "midi": 48,
      "hit": false,
      "t": 180225,
      "d": 95,
      "v": 55
    },
    {
      "midi": 47,
      "hit": false,
      "t": 180530,
      "d": 335,
      "v": 55
    },
    {
      "midi": 48,
      "hit": false,
      "t": 180825,
      "d": 305,
      "v": 54
    },
    {
      "midi": 50,
      "hit": false,
      "t": 181100,
      "d": 320,
      "v": 54
    },
    {
      "midi": 48,
      "hit": false,
      "t": 181380,
      "d": 70,
      "v": 52
    },
    {
      "midi": 47,
      "hit": false,
      "t": 181670,
      "d": 350,
      "v": 52
    },
    {
      "midi": 35,
      "hit": false,
      "t": 181990,
      "d": 290,
      "v": 66
    },
    {
      "midi": 47,
      "hit": false,
      "t": 182310,
      "d": 70,
      "v": 54
    },
    {
      "midi": 54,
      "hit": false,
      "t": 182615,
      "d": 320,
      "v": 70
    },
    {
      "midi": 66,
      "hit": false,
      "t": 182615,
      "d": 650,
      "v": 48
    },
    {
      "midi": 72,
      "hit": false,
      "t": 182615,
      "d": 655,
      "v": 63
    },
    {
      "midi": 75,
      "hit": false,
      "t": 182615,
      "d": 690,
      "v": 53
    },
    {
      "midi": 60,
      "hit": false,
      "t": 182935,
      "d": 335,
      "v": 63
    },
    {
      "midi": 59,
      "hit": false,
      "t": 183225,
      "d": 70,
      "v": 50
    },
    {
      "midi": 47,
      "hit": false,
      "t": 183670,
      "d": 360,
      "v": 60
    },
    {
      "midi": 67,
      "hit": false,
      "t": 183670,
      "d": 1555,
      "v": 42
    },
    {
      "midi": 76,
      "hit": false,
      "t": 183670,
      "d": 1555,
      "v": 40
    },
    {
      "midi": 64,
      "hit": false,
      "t": 183670,
      "d": 1570,
      "v": 40
    },
    {
      "midi": 35,
      "hit": false,
      "t": 183980,
      "d": 875,
      "v": 59
    },
    {
      "midi": 47,
      "hit": false,
      "t": 184270,
      "d": 530,
      "v": 66
    },
    {
      "midi": 52,
      "hit": false,
      "t": 184560,
      "d": 280,
      "v": 65
    },
    {
      "midi": 60,
      "hit": false,
      "t": 184865,
      "d": 535,
      "v": 40
    },
    {
      "midi": 59,
      "hit": false,
      "t": 185160,
      "d": 320,
      "v": 57
    },
    {
      "midi": 58,
      "hit": false,
      "t": 185435,
      "d": 310,
      "v": 56
    },
    {
      "midi": 67,
      "hit": false,
      "t": 185435,
      "d": 745,
      "v": 56
    },
    {
      "midi": 64,
      "hit": false,
      "t": 185435,
      "d": 750,
      "v": 45
    },
    {
      "midi": 76,
      "hit": false,
      "t": 185435,
      "d": 780,
      "v": 56
    },
    {
      "midi": 55,
      "hit": false,
      "t": 185760,
      "d": 330,
      "v": 54
    },
    {
      "midi": 52,
      "hit": false,
      "t": 186060,
      "d": 70,
      "v": 56
    },
    {
      "midi": 46,
      "hit": false,
      "t": 186375,
      "d": 405,
      "v": 59
    },
    {
      "midi": 67,
      "hit": false,
      "t": 186375,
      "d": 635,
      "v": 57
    },
    {
      "midi": 64,
      "hit": false,
      "t": 186375,
      "d": 640,
      "v": 56
    },
    {
      "midi": 76,
      "hit": false,
      "t": 186375,
      "d": 675,
      "v": 55
    },
    {
      "midi": 43,
      "hit": false,
      "t": 186700,
      "d": 320,
      "v": 56
    },
    {
      "midi": 34,
      "hit": false,
      "t": 187010,
      "d": 380,
      "v": 53
    },
    {
      "midi": 35,
      "hit": false,
      "t": 187380,
      "d": 335,
      "v": 56
    },
    {
      "midi": 71,
      "hit": false,
      "t": 187380,
      "d": 1345,
      "v": 49
    },
    {
      "midi": 67,
      "hit": false,
      "t": 187380,
      "d": 1620,
      "v": 35
    },
    {
      "midi": 79,
      "hit": false,
      "t": 187380,
      "d": 1835,
      "v": 35
    },
    {
      "midi": 47,
      "hit": false,
      "t": 187700,
      "d": 115,
      "v": 45
    },
    {
      "midi": 52,
      "hit": false,
      "t": 188065,
      "d": 385,
      "v": 50
    },
    {
      "midi": 55,
      "hit": false,
      "t": 188410,
      "d": 305,
      "v": 54
    },
    {
      "midi": 60,
      "hit": false,
      "t": 188745,
      "d": 385,
      "v": 42
    },
    {
      "midi": 59,
      "hit": false,
      "t": 189130,
      "d": 80,
      "v": 53
    },
    {
      "midi": 78,
      "hit": false,
      "t": 189130,
      "d": 295,
      "v": 46
    },
    {
      "midi": 76,
      "hit": false,
      "t": 189310,
      "d": 130,
      "v": 49
    },
    {
      "midi": 47,
      "hit": false,
      "t": 189645,
      "d": 430,
      "v": 52
    },
    {
      "midi": 71,
      "hit": false,
      "t": 189645,
      "d": 750,
      "v": 53
    },
    {
      "midi": 69,
      "hit": false,
      "t": 189645,
      "d": 815,
      "v": 52
    },
    {
      "midi": 76,
      "hit": false,
      "t": 189645,
      "d": 835,
      "v": 59
    },
    {
      "midi": 46,
      "hit": false,
      "t": 190020,
      "d": 335,
      "v": 45
    },
    {
      "midi": 47,
      "hit": false,
      "t": 190370,
      "d": 345,
      "v": 47
    },
    {
      "midi": 35,
      "hit": false,
      "t": 190715,
      "d": 405,
      "v": 52
    },
    {
      "midi": 69,
      "hit": false,
      "t": 190715,
      "d": 820,
      "v": 46
    },
    {
      "midi": 71,
      "hit": false,
      "t": 190715,
      "d": 820,
      "v": 47
    },
    {
      "midi": 75,
      "hit": false,
      "t": 190715,
      "d": 820,
      "v": 40
    },
    {
      "midi": 34,
      "hit": false,
      "t": 191080,
      "d": 430,
      "v": 41
    },
    {
      "midi": 35,
      "hit": false,
      "t": 191465,
      "d": 85,
      "v": 42
    },
    {
      "midi": 28,
      "hit": false,
      "t": 191815,
      "d": 860,
      "v": 74
    },
    {
      "midi": 40,
      "hit": false,
      "t": 192065,
      "d": 110,
      "v": 54
    },
    {
      "midi": 68,
      "hit": false,
      "t": 192065,
      "d": 3220,
      "v": 48
    },
    {
      "midi": 71,
      "hit": false,
      "t": 192065,
      "d": 3275,
      "v": 53
    },
    {
      "midi": 76,
      "hit": false,
      "t": 192065,
      "d": 3445,
      "v": 57
    },
    {
      "midi": 47,
      "hit": false,
      "t": 192465,
      "d": 295,
      "v": 53
    },
    {
      "midi": 59,
      "hit": false,
      "t": 192770,
      "d": 655,
      "v": 49
    },
    {
      "midi": 56,
      "hit": false,
      "t": 193105,
      "d": 570,
      "v": 36
    },
    {
      "midi": 54,
      "hit": false,
      "t": 193410,
      "d": 225,
      "v": 42
    },
    {
      "midi": 52,
      "hit": false,
      "t": 193745,
      "d": 115,
      "v": 46
    },
    {
      "midi": 40,
      "hit": false,
      "t": 194090,
      "d": 375,
      "v": 49
    },
    {
      "midi": 47,
      "hit": false,
      "t": 194425,
      "d": 85,
      "v": 47
    },
    {
      "midi": 59,
      "hit": false,
      "t": 194775,
      "d": 845,
      "v": 47
    },
    {
      "midi": 56,
      "hit": false,
      "t": 195150,
      "d": 1055,
      "v": 41
    },
    {
      "midi": 54,
      "hit": false,
      "t": 195595,
      "d": 680,
      "v": 38
    },
    {
      "midi": 52,
      "hit": false,
      "t": 196220,
      "d": 220,
      "v": 32
    },
    {
      "midi": 40,
      "hit": false,
      "t": 198000,
      "d": 1045,
      "v": 45
    },
    {
      "midi": 76,
      "hit": false,
      "t": 198000,
      "d": 1750,
      "v": 40
    },
    {
      "midi": 80,
      "hit": false,
      "t": 198000,
      "d": 2055,
      "v": 40
    },
    {
      "midi": 47,
      "hit": false,
      "t": 198620,
      "d": 70,
      "v": 46
    },
    {
      "midi": 59,
      "hit": false,
      "t": 199010,
      "d": 655,
      "v": 43
    },
    {
      "midi": 56,
      "hit": false,
      "t": 199330,
      "d": 540,
      "v": 40
    },
    {
      "midi": 54,
      "hit": false,
      "t": 199635,
      "d": 280,
      "v": 36
    },
    {
      "midi": 52,
      "hit": false,
      "t": 199940,
      "d": 85,
      "v": 47
    },
    {
      "midi": 40,
      "hit": false,
      "t": 200290,
      "d": 345,
      "v": 48
    },
    {
      "midi": 74,
      "hit": false,
      "t": 200290,
      "d": 2010,
      "v": 45
    },
    {
      "midi": 78,
      "hit": false,
      "t": 200290,
      "d": 2040,
      "v": 42
    },
    {
      "midi": 47,
      "hit": false,
      "t": 200595,
      "d": 85,
      "v": 40
    },
    {
      "midi": 59,
      "hit": false,
      "t": 200930,
      "d": 765,
      "v": 40
    },
    {
      "midi": 56,
      "hit": false,
      "t": 201290,
      "d": 625,
      "v": 32
    },
    {
      "midi": 54,
      "hit": false,
      "t": 201610,
      "d": 330,
      "v": 31
    },
    {
      "midi": 52,
      "hit": false,
      "t": 201970,
      "d": 125,
      "v": 40
    },
    {
      "midi": 76,
      "hit": false,
      "t": 202220,
      "d": 140,
      "v": 35
    },
    {
      "midi": 40,
      "hit": false,
      "t": 202580,
      "d": 930,
      "v": 50
    },
    {
      "midi": 76,
      "hit": false,
      "t": 202580,
      "d": 2555,
      "v": 47
    },
    {
      "midi": 73,
      "hit": false,
      "t": 202580,
      "d": 2620,
      "v": 40
    },
    {
      "midi": 52,
      "hit": false,
      "t": 202900,
      "d": 70,
      "v": 41
    },
    {
      "midi": 61,
      "hit": false,
      "t": 203180,
      "d": 345,
      "v": 45
    },
    {
      "midi": 57,
      "hit": false,
      "t": 203500,
      "d": 300,
      "v": 40
    },
    {
      "midi": 54,
      "hit": false,
      "t": 203760,
      "d": 320,
      "v": 40
    },
    {
      "midi": 52,
      "hit": false,
      "t": 204040,
      "d": 95,
      "v": 42
    },
    {
      "midi": 40,
      "hit": false,
      "t": 204345,
      "d": 605,
      "v": 63
    },
    {
      "midi": 52,
      "hit": false,
      "t": 204650,
      "d": 110,
      "v": 36
    },
    {
      "midi": 61,
      "hit": false,
      "t": 205030,
      "d": 290,
      "v": 49
    },
    {
      "midi": 57,
      "hit": false,
      "t": 205335,
      "d": 310,
      "v": 47
    },
    {
      "midi": 74,
      "hit": false,
      "t": 205335,
      "d": 525,
      "v": 37
    },
    {
      "midi": 77,
      "hit": false,
      "t": 205335,
      "d": 775,
      "v": 36
    },
    {
      "midi": 54,
      "hit": false,
      "t": 205650,
      "d": 280,
      "v": 38
    },
    {
      "midi": 52,
      "hit": false,
      "t": 206010,
      "d": 100,
      "v": 53
    },
    {
      "midi": 40,
      "hit": false,
      "t": 206430,
      "d": 345,
      "v": 40
    },
    {
      "midi": 75,
      "hit": false,
      "t": 206430,
      "d": 760,
      "v": 35
    },
    {
      "midi": 78,
      "hit": false,
      "t": 206430,
      "d": 915,
      "v": 49
    },
    {
      "midi": 52,
      "hit": false,
      "t": 206765,
      "d": 80,
      "v": 41
    },
    {
      "midi": 60,
      "hit": false,
      "t": 207055,
      "d": 390,
      "v": 51
    },
    {
      "midi": 57,
      "hit": false,
      "t": 207345,
      "d": 320,
      "v": 46
    },
    {
      "midi": 54,
      "hit": false,
      "t": 207625,
      "d": 320,
      "v": 39
    },
    {
      "midi": 76,
      "hit": false,
      "t": 207740,
      "d": 205,
      "v": 48
    },
    {
      "midi": 80,
      "hit": false,
      "t": 207740,
      "d": 370,
      "v": 46
    },
    {
      "midi": 52,
      "hit": false,
      "t": 207900,
      "d": 100,
      "v": 48
    },
    {
      "midi": 40,
      "hit": false,
      "t": 208195,
      "d": 275,
      "v": 55
    },
    {
      "midi": 81,
      "hit": false,
      "t": 208195,
      "d": 860,
      "v": 55
    },
    {
      "midi": 78,
      "hit": false,
      "t": 208195,
      "d": 880,
      "v": 52
    },
    {
      "midi": 52,
      "hit": false,
      "t": 208475,
      "d": 95,
      "v": 39
    },
    {
      "midi": 80,
      "hit": false,
      "t": 208640,
      "d": 250,
      "v": 63
    },
    {
      "midi": 83,
      "hit": false,
      "t": 208650,
      "d": 310,
      "v": 32
    },
    {
      "midi": 60,
      "hit": false,
      "t": 208790,
      "d": 290,
      "v": 43
    },
    {
      "midi": 57,
      "hit": false,
      "t": 209070,
      "d": 290,
      "v": 45
    },
    {
      "midi": 84,
      "hit": false,
      "t": 209070,
      "d": 330,
      "v": 53
    },
    {
      "midi": 81,
      "hit": false,
      "t": 209070,
      "d": 370,
      "v": 55
    },
    {
      "midi": 54,
      "hit": false,
      "t": 209405,
      "d": 330,
      "v": 38
    },
    {
      "midi": 84,
      "hit": false,
      "t": 209615,
      "d": 230,
      "v": 54
    },
    {
      "midi": 81,
      "hit": false,
      "t": 209615,
      "d": 260,
      "v": 47
    },
    {
      "midi": 52,
      "hit": false,
      "t": 209795,
      "d": 95,
      "v": 53
    },
    {
      "midi": 40,
      "hit": false,
      "t": 210170,
      "d": 525,
      "v": 57
    },
    {
      "midi": 84,
      "hit": false,
      "t": 210170,
      "d": 1045,
      "v": 44
    },
    {
      "midi": 81,
      "hit": false,
      "t": 210170,
      "d": 1085,
      "v": 43
    },
    {
      "midi": 47,
      "hit": false,
      "t": 210610,
      "d": 125,
      "v": 45
    },
    {
      "midi": 59,
      "hit": false,
      "t": 210930,
      "d": 475,
      "v": 42
    },
    {
      "midi": 56,
      "hit": false,
      "t": 211225,
      "d": 515,
      "v": 37
    },
    {
      "midi": 83,
      "hit": false,
      "t": 211235,
      "d": 1820,
      "v": 49
    },
    {
      "midi": 80,
      "hit": false,
      "t": 211235,
      "d": 1845,
      "v": 45
    },
    {
      "midi": 54,
      "hit": false,
      "t": 211545,
      "d": 290,
      "v": 32
    },
    {
      "midi": 52,
      "hit": false,
      "t": 211810,
      "d": 80,
      "v": 49
    },
    {
      "midi": 40,
      "hit": false,
      "t": 212085,
      "d": 320,
      "v": 47
    },
    {
      "midi": 47,
      "hit": false,
      "t": 212375,
      "d": 55,
      "v": 45
    },
    {
      "midi": 59,
      "hit": false,
      "t": 212680,
      "d": 820,
      "v": 50
    },
    {
      "midi": 56,
      "hit": false,
      "t": 212990,
      "d": 500,
      "v": 40
    },
    {
      "midi": 54,
      "hit": false,
      "t": 213310,
      "d": 315,
      "v": 39
    },
    {
      "midi": 52,
      "hit": false,
      "t": 213600,
      "d": 95,
      "v": 48
    },
    {
      "midi": 40,
      "hit": false,
      "t": 214000,
      "d": 1385,
      "v": 51
    },
    {
      "midi": 47,
      "hit": false,
      "t": 214295,
      "d": 65,
      "v": 45
    },
    {
      "midi": 59,
      "hit": false,
      "t": 214570,
      "d": 585,
      "v": 49
    },
    {
      "midi": 56,
      "hit": false,
      "t": 214820,
      "d": 320,
      "v": 54
    },
    {
      "midi": 68,
      "hit": false,
      "t": 214820,
      "d": 345,
      "v": 70
    },
    {
      "midi": 80,
      "hit": false,
      "t": 215100,
      "d": 115,
      "v": 53
    },
    {
      "midi": 76,
      "hit": false,
      "t": 215100,
      "d": 125,
      "v": 52
    },
    {
      "midi": 54,
      "hit": false,
      "t": 215100,
      "d": 150,
      "v": 49
    },
    {
      "midi": 52,
      "hit": false,
      "t": 215350,
      "d": 100,
      "v": 52
    },
    {
      "midi": 76,
      "hit": false,
      "t": 215350,
      "d": 120,
      "v": 49
    },
    {
      "midi": 80,
      "hit": false,
      "t": 215350,
      "d": 125,
      "v": 51
    },
    {
      "midi": 68,
      "hit": false,
      "t": 215350,
      "d": 135,
      "v": 56
    },
    {
      "midi": 40,
      "hit": false,
      "t": 215620,
      "d": 315,
      "v": 56
    },
    {
      "midi": 68,
      "hit": false,
      "t": 215620,
      "d": 560,
      "v": 52
    },
    {
      "midi": 76,
      "hit": false,
      "t": 215620,
      "d": 660,
      "v": 52
    },
    {
      "midi": 80,
      "hit": false,
      "t": 215620,
      "d": 930,
      "v": 51
    },
    {
      "midi": 47,
      "hit": false,
      "t": 215860,
      "d": 130,
      "v": 45
    },
    {
      "midi": 74,
      "hit": false,
      "t": 216170,
      "d": 260,
      "v": 48
    },
    {
      "midi": 78,
      "hit": false,
      "t": 216170,
      "d": 320,
      "v": 40
    },
    {
      "midi": 59,
      "hit": false,
      "t": 216170,
      "d": 620,
      "v": 47
    },
    {
      "midi": 56,
      "hit": false,
      "t": 216405,
      "d": 360,
      "v": 55
    },
    {
      "midi": 68,
      "hit": false,
      "t": 216405,
      "d": 405,
      "v": 62
    },
    {
      "midi": 78,
      "hit": false,
      "t": 216655,
      "d": 125,
      "v": 53
    },
    {
      "midi": 54,
      "hit": false,
      "t": 216655,
      "d": 140,
      "v": 47
    },
    {
      "midi": 74,
      "hit": false,
      "t": 216655,
      "d": 140,
      "v": 56
    },
    {
      "midi": 52,
      "hit": false,
      "t": 216920,
      "d": 80,
      "v": 42
    },
    {
      "midi": 74,
      "hit": false,
      "t": 216920,
      "d": 100,
      "v": 53
    },
    {
      "midi": 68,
      "hit": false,
      "t": 216920,
      "d": 125,
      "v": 40
    },
    {
      "midi": 78,
      "hit": false,
      "t": 216920,
      "d": 125,
      "v": 43
    },
    {
      "midi": 40,
      "hit": false,
      "t": 217170,
      "d": 250,
      "v": 56
    },
    {
      "midi": 73,
      "hit": false,
      "t": 217170,
      "d": 2165,
      "v": 55
    },
    {
      "midi": 69,
      "hit": false,
      "t": 217170,
      "d": 2190,
      "v": 55
    },
    {
      "midi": 78,
      "hit": false,
      "t": 217170,
      "d": 2235,
      "v": 49
    },
    {
      "midi": 52,
      "hit": false,
      "t": 217420,
      "d": 70,
      "v": 56
    },
    {
      "midi": 61,
      "hit": false,
      "t": 217685,
      "d": 235,
      "v": 55
    },
    {
      "midi": 76,
      "hit": false,
      "t": 217685,
      "d": 1705,
      "v": 50
    },
    {
      "midi": 57,
      "hit": false,
      "t": 217950,
      "d": 260,
      "v": 52
    },
    {
      "midi": 54,
      "hit": false,
      "t": 218210,
      "d": 155,
      "v": 46
    },
    {
      "midi": 52,
      "hit": false,
      "t": 218450,
      "d": 80,
      "v": 43
    },
    {
      "midi": 40,
      "hit": false,
      "t": 218710,
      "d": 270,
      "v": 45
    },
    {
      "midi": 52,
      "hit": false,
      "t": 219005,
      "d": 65,
      "v": 45
    },
    {
      "midi": 61,
      "hit": false,
      "t": 219295,
      "d": 305,
      "v": 40
    },
    {
      "midi": 57,
      "hit": false,
      "t": 219560,
      "d": 205,
      "v": 45
    },
    {
      "midi": 76,
      "hit": false,
      "t": 219560,
      "d": 430,
      "v": 46
    },
    {
      "midi": 69,
      "hit": false,
      "t": 219560,
      "d": 470,
      "v": 40
    },
    {
      "midi": 73,
      "hit": false,
      "t": 219570,
      "d": 420,
      "v": 48
    },
    {
      "midi": 54,
      "hit": false,
      "t": 219835,
      "d": 115,
      "v": 41
    },
    {
      "midi": 52,
      "hit": false,
      "t": 220100,
      "d": 85,
      "v": 45
    },
    {
      "midi": 40,
      "hit": false,
      "t": 220420,
      "d": 350,
      "v": 37
    },
    {
      "midi": 72,
      "hit": false,
      "t": 220420,
      "d": 1140,
      "v": 53
    },
    {
      "midi": 69,
      "hit": false,
      "t": 220420,
      "d": 1165,
      "v": 46
    },
    {
      "midi": 75,
      "hit": false,
      "t": 220420,
      "d": 3460,
      "v": 47
    },
    {
      "midi": 52,
      "hit": false,
      "t": 220700,
      "d": 110,
      "v": 36
    },
    {
      "midi": 60,
      "hit": false,
      "t": 221015,
      "d": 110,
      "v": 46
    },
    {
      "midi": 57,
      "hit": false,
      "t": 221280,
      "d": 155,
      "v": 40
    },
    {
      "midi": 54,
      "hit": false,
      "t": 221545,
      "d": 125,
      "v": 49
    },
    {
      "midi": 71,
      "hit": false,
      "t": 221730,
      "d": 65,
      "v": 47
    },
    {
      "midi": 68,
      "hit": false,
      "t": 221730,
      "d": 125,
      "v": 49
    },
    {
      "midi": 52,
      "hit": false,
      "t": 221800,
      "d": 125,
      "v": 49
    },
    {
      "midi": 72,
      "hit": false,
      "t": 222060,
      "d": 305,
      "v": 49
    },
    {
      "midi": 40,
      "hit": false,
      "t": 222060,
      "d": 740,
      "v": 52
    },
    {
      "midi": 52,
      "hit": false,
      "t": 222340,
      "d": 665,
      "v": 45
    },
    {
      "midi": 60,
      "hit": false,
      "t": 222475,
      "d": 360,
      "v": 35
    },
    {
      "midi": 68,
      "hit": false,
      "t": 222475,
      "d": 700,
      "v": 49
    },
    {
      "midi": 71,
      "hit": false,
      "t": 222475,
      "d": 795,
      "v": 53
    },
    {
      "midi": 69,
      "hit": false,
      "t": 222920,
      "d": 265,
      "v": 45
    },
    {
      "midi": 72,
      "hit": false,
      "t": 222920,
      "d": 305,
      "v": 53
    },
    {
      "midi": 57,
      "hit": false,
      "t": 222920,
      "d": 660,
      "v": 42
    },
    {
      "midi": 54,
      "hit": false,
      "t": 223210,
      "d": 250,
      "v": 33
    },
    {
      "midi": 72,
      "hit": false,
      "t": 223380,
      "d": 180,
      "v": 53
    },
    {
      "midi": 69,
      "hit": false,
      "t": 223380,
      "d": 210,
      "v": 47
    },
    {
      "midi": 52,
      "hit": false,
      "t": 223545,
      "d": 245,
      "v": 45
    },
    {
      "midi": 40,
      "hit": false,
      "t": 223935,
      "d": 335,
      "v": 49
    },
    {
      "midi": 71,
      "hit": false,
      "t": 223935,
      "d": 2575,
      "v": 51
    },
    {
      "midi": 76,
      "hit": false,
      "t": 223935,
      "d": 2610,
      "v": 65
    },
    {
      "midi": 68,
      "hit": false,
      "t": 223935,
      "d": 2695,
      "v": 45
    },
    {
      "midi": 47,
      "hit": false,
      "t": 224225,
      "d": 55,
      "v": 45
    },
    {
      "midi": 59,
      "hit": false,
      "t": 224505,
      "d": 665,
      "v": 52
    },
    {
      "midi": 56,
      "hit": false,
      "t": 224800,
      "d": 455,
      "v": 44
    },
    {
      "midi": 54,
      "hit": false,
      "t": 225090,
      "d": 210,
      "v": 29
    },
    {
      "midi": 52,
      "hit": false,
      "t": 225365,
      "d": 85,
      "v": 39
    },
    {
      "midi": 40,
      "hit": false,
      "t": 225645,
      "d": 305,
      "v": 54
    },
    {
      "midi": 47,
      "hit": false,
      "t": 225940,
      "d": 50,
      "v": 45
    },
    {
      "midi": 59,
      "hit": false,
      "t": 226240,
      "d": 655,
      "v": 49
    },
    {
      "midi": 56,
      "hit": false,
      "t": 226520,
      "d": 540,
      "v": 45
    },
    {
      "midi": 54,
      "hit": false,
      "t": 226810,
      "d": 350,
      "v": 41
    },
    {
      "midi": 52,
      "hit": false,
      "t": 227120,
      "d": 80,
      "v": 54
    },
    {
      "midi": 40,
      "hit": false,
      "t": 227420,
      "d": 295,
      "v": 52
    },
    {
      "midi": 66,
      "hit": false,
      "t": 227420,
      "d": 2630,
      "v": 55
    },
    {
      "midi": 69,
      "hit": false,
      "t": 227420,
      "d": 2655,
      "v": 54
    },
    {
      "midi": 63,
      "hit": false,
      "t": 227420,
      "d": 2680,
      "v": 47
    },
    {
      "midi": 52,
      "hit": false,
      "t": 227730,
      "d": 80,
      "v": 49
    },
    {
      "midi": 60,
      "hit": false,
      "t": 228010,
      "d": 385,
      "v": 54
    },
    {
      "midi": 57,
      "hit": false,
      "t": 228310,
      "d": 390,
      "v": 49
    },
    {
      "midi": 54,
      "hit": false,
      "t": 228620,
      "d": 205,
      "v": 38
    },
    {
      "midi": 51,
      "hit": false,
      "t": 228940,
      "d": 25,
      "v": 13
    },
    {
      "midi": 52,
      "hit": false,
      "t": 228940,
      "d": 90,
      "v": 39
    },
    {
      "midi": 40,
      "hit": false,
      "t": 229255,
      "d": 375,
      "v": 61
    },
    {
      "midi": 52,
      "hit": false,
      "t": 229620,
      "d": 65,
      "v": 29
    },
    {
      "midi": 60,
      "hit": false,
      "t": 229955,
      "d": 470,
      "v": 48
    },
    {
      "midi": 63,
      "hit": false,
      "t": 230270,
      "d": 445,
      "v": 39
    },
    {
      "midi": 57,
      "hit": false,
      "t": 230270,
      "d": 590,
      "v": 44
    },
    {
      "midi": 69,
      "hit": false,
      "t": 230270,
      "d": 640,
      "v": 31
    },
    {
      "midi": 66,
      "hit": false,
      "t": 230270,
      "d": 1180,
      "v": 47
    },
    {
      "midi": 54,
      "hit": false,
      "t": 230630,
      "d": 420,
      "v": 36
    },
    {
      "midi": 52,
      "hit": false,
      "t": 231020,
      "d": 100,
      "v": 53
    },
    {
      "midi": 69,
      "hit": false,
      "t": 231120,
      "d": 440,
      "v": 15
    },
    {
      "midi": 40,
      "hit": false,
      "t": 231510,
      "d": 1015,
      "v": 45
    },
    {
      "midi": 68,
      "hit": false,
      "t": 231510,
      "d": 4485,
      "v": 48
    },
    {
      "midi": 64,
      "hit": false,
      "t": 231510,
      "d": 4505,
      "v": 28
    },
    {
      "midi": 47,
      "hit": false,
      "t": 231870,
      "d": 70,
      "v": 45
    },
    {
      "midi": 59,
      "hit": false,
      "t": 232215,
      "d": 235,
      "v": 48
    },
    {
      "midi": 56,
      "hit": false,
      "t": 232550,
      "d": 555,
      "v": 36
    },
    {
      "midi": 54,
      "hit": false,
      "t": 232880,
      "d": 295,
      "v": 39
    },
    {
      "midi": 52,
      "hit": false,
      "t": 233215,
      "d": 85,
      "v": 45
    },
    {
      "midi": 40,
      "hit": false,
      "t": 233550,
      "d": 405,
      "v": 36
    },
    {
      "midi": 47,
      "hit": false,
      "t": 233910,
      "d": 70,
      "v": 43
    },
    {
      "midi": 59,
      "hit": false,
      "t": 234315,
      "d": 905,
      "v": 45
    },
    {
      "midi": 56,
      "hit": false,
      "t": 234730,
      "d": 1085,
      "v": 41
    },
    {
      "midi": 54,
      "hit": false,
      "t": 235220,
      "d": 680,
      "v": 40
    },
    {
      "midi": 52,
      "hit": false,
      "t": 235900,
      "d": 3290,
      "v": 45
    },
    {
      "midi": 40,
      "hit": false,
      "t": 237105,
      "d": 2055,
      "v": 58
    },
    {
      "midi": 56,
      "hit": false,
      "t": 237160,
      "d": 1915,
      "v": 36
    },
    {
      "midi": 59,
      "hit": false,
      "t": 237230,
      "d": 1615,
      "v": 45
    },
    {
      "midi": 64,
      "hit": false,
      "t": 237300,
      "d": 1940,
      "v": 58
    }
  ]
}