{
  "jsonPath": "Classical/Chinese Classical Performance/YUNDI/nocturnes-no-12-in-g-op-37-no-2.json",
  "path": "Classical\\Chinese Classical Performance\\YUNDI\\Nocturnes No 12 in G Op 37 No 2.mid",
  "name": "Nocturnes No 12 in G Op 37 No 2",
  "difficulty": "Advanced",
  "bpm": 120,
  "notes": [
    {
      "midi": 43,
      "hit": false,
      "t": 2135.416666666667,
      "d": 429.6875,
      "v": 33
    },
    {
      "midi": 50,
      "hit": false,
      "t": 2697.916666666667,
      "d": 283.8541666666665,
      "v": 34
    },
    {
      "midi": 59,
      "hit": false,
      "t": 3140.625,
      "d": 294.2708333333335,
      "v": 38
    },
    {
      "midi": 69,
      "hit": false,
      "t": 3570.3125,
      "d": 520.8333333333335,
      "v": 54
    },
    {
      "midi": 60,
      "hit": false,
      "t": 3578.125,
      "d": 450.5208333333335,
      "v": 32
    },
    {
      "midi": 66,
      "hit": false,
      "t": 3583.3333333333335,
      "d": 510.4166666666665,
      "v": 38
    },
    {
      "midi": 67,
      "hit": false,
      "t": 4109.375,
      "d": 75.52083333333394,
      "v": 36
    },
    {
      "midi": 59,
      "hit": false,
      "t": 4111.979166666667,
      "d": 335.9375,
      "v": 24
    },
    {
      "midi": 71,
      "hit": false,
      "t": 4114.583333333334,
      "d": 171.875,
      "v": 34
    },
    {
      "midi": 72,
      "hit": false,
      "t": 4348.958333333334,
      "d": 85.9375,
      "v": 61
    },
    {
      "midi": 69,
      "hit": false,
      "t": 4361.979166666667,
      "d": 80.72916666666697,
      "v": 49
    },
    {
      "midi": 70,
      "hit": false,
      "t": 4546.875,
      "d": 80.72916666666697,
      "v": 64
    },
    {
      "midi": 73,
      "hit": false,
      "t": 4546.875,
      "d": 179.6875000000009,
      "v": 57
    },
    {
      "midi": 50,
      "hit": false,
      "t": 4562.5,
      "d": 83.33333333333394,
      "v": 40
    },
    {
      "midi": 76,
      "hit": false,
      "t": 4736.979166666668,
      "d": 226.5624999999991,
      "v": 75
    },
    {
      "midi": 72,
      "hit": false,
      "t": 4757.812500000001,
      "d": 59.89583333333303,
      "v": 58
    },
    {
      "midi": 74,
      "hit": false,
      "t": 4942.708333333334,
      "d": 398.4374999999991,
      "v": 69
    },
    {
      "midi": 71,
      "hit": false,
      "t": 4963.541666666667,
      "d": 440.10416666666606,
      "v": 35
    },
    {
      "midi": 43,
      "hit": false,
      "t": 4986.979166666667,
      "d": 333.33333333333303,
      "v": 34
    },
    {
      "midi": 50,
      "hit": false,
      "t": 5382.8125,
      "d": 367.1875,
      "v": 41
    },
    {
      "midi": 59,
      "hit": false,
      "t": 5867.1875,
      "d": 421.875,
      "v": 38
    },
    {
      "midi": 69,
      "hit": false,
      "t": 6395.833333333333,
      "d": 570.3125,
      "v": 72
    },
    {
      "midi": 66,
      "hit": false,
      "t": 6406.25,
      "d": 554.6875,
      "v": 43
    },
    {
      "midi": 60,
      "hit": false,
      "t": 6447.916666666667,
      "d": 442.70833333333303,
      "v": 19
    },
    {
      "midi": 67,
      "hit": false,
      "t": 6958.333333333333,
      "d": 57.29166666666697,
      "v": 59
    },
    {
      "midi": 71,
      "hit": false,
      "t": 6968.75,
      "d": 164.0625,
      "v": 47
    },
    {
      "midi": 59,
      "hit": false,
      "t": 6976.5625,
      "d": 265.625,
      "v": 33
    },
    {
      "midi": 72,
      "hit": false,
      "t": 7203.125,
      "d": 171.875,
      "v": 78
    },
    {
      "midi": 69,
      "hit": false,
      "t": 7213.541666666667,
      "d": 72.91666666666606,
      "v": 63
    },
    {
      "midi": 73,
      "hit": false,
      "t": 7398.4375,
      "d": 184.89583333333303,
      "v": 75
    },
    {
      "midi": 70,
      "hit": false,
      "t": 7406.25,
      "d": 75.52083333333303,
      "v": 78
    },
    {
      "midi": 50,
      "hit": false,
      "t": 7427.083333333333,
      "d": 57.29166666666697,
      "v": 33
    },
    {
      "midi": 76,
      "hit": false,
      "t": 7614.583333333333,
      "d": 205.72916666666697,
      "v": 72
    },
    {
      "midi": 72,
      "hit": false,
      "t": 7630.208333333333,
      "d": 114.58333333333303,
      "v": 50
    },
    {
      "midi": 43,
      "hit": false,
      "t": 7854.166666666667,
      "d": 406.2500000000009,
      "v": 33
    },
    {
      "midi": 74,
      "hit": false,
      "t": 7875,
      "d": 96.35416666666697,
      "v": 58
    },
    {
      "midi": 71,
      "hit": false,
      "t": 7885.416666666667,
      "d": 49.47916666666697,
      "v": 36
    },
    {
      "midi": 84,
      "hit": false,
      "t": 8111.979166666667,
      "d": 39.0625,
      "v": 86
    },
    {
      "midi": 76,
      "hit": false,
      "t": 8145.833333333334,
      "d": 70.3125,
      "v": 43
    },
    {
      "midi": 74,
      "hit": false,
      "t": 8335.937500000002,
      "d": 190.10416666666606,
      "v": 74
    },
    {
      "midi": 83,
      "hit": false,
      "t": 8356.770833333336,
      "d": 57.29166666666606,
      "v": 37
    },
    {
      "midi": 50,
      "hit": false,
      "t": 8380.208333333336,
      "d": 182.29166666666424,
      "v": 39
    },
    {
      "midi": 78,
      "hit": false,
      "t": 8544.270833333334,
      "d": 111.97916666666606,
      "v": 72
    },
    {
      "midi": 72,
      "hit": false,
      "t": 8552.083333333334,
      "d": 96.35416666666606,
      "v": 74
    },
    {
      "midi": 79,
      "hit": false,
      "t": 8739.583333333334,
      "d": 140.625,
      "v": 79
    },
    {
      "midi": 71,
      "hit": false,
      "t": 8750,
      "d": 83.33333333333394,
      "v": 44
    },
    {
      "midi": 59,
      "hit": false,
      "t": 8750,
      "d": 239.58333333333394,
      "v": 46
    },
    {
      "midi": 76,
      "hit": false,
      "t": 8924.479166666668,
      "d": 161.45833333333212,
      "v": 83
    },
    {
      "midi": 72,
      "hit": false,
      "t": 8932.291666666668,
      "d": 54.6875,
      "v": 74
    },
    {
      "midi": 74,
      "hit": false,
      "t": 9132.8125,
      "d": 182.29166666666606,
      "v": 72
    },
    {
      "midi": 62,
      "hit": false,
      "t": 9145.833333333334,
      "d": 268.22916666666606,
      "v": 38
    },
    {
      "midi": 71,
      "hit": false,
      "t": 9148.4375,
      "d": 72.91666666666606,
      "v": 35
    },
    {
      "midi": 77,
      "hit": false,
      "t": 9320.3125,
      "d": 49.47916666666606,
      "v": 77
    },
    {
      "midi": 69,
      "hit": false,
      "t": 9328.125,
      "d": 93.75,
      "v": 52
    },
    {
      "midi": 76,
      "hit": false,
      "t": 9528.645833333334,
      "d": 65.10416666666606,
      "v": 62
    },
    {
      "midi": 52,
      "hit": false,
      "t": 9528.645833333334,
      "d": 138.02083333333212,
      "v": 50
    },
    {
      "midi": 68,
      "hit": false,
      "t": 9539.0625,
      "d": 117.1875,
      "v": 43
    },
    {
      "midi": 65,
      "hit": false,
      "t": 9731.770833333332,
      "d": 62.5,
      "v": 52
    },
    {
      "midi": 69,
      "hit": false,
      "t": 9736.979166666666,
      "d": 221.35416666666788,
      "v": 61
    },
    {
      "midi": 71,
      "hit": false,
      "t": 9953.125,
      "d": 234.375,
      "v": 46
    },
    {
      "midi": 40,
      "hit": false,
      "t": 9979.166666666668,
      "d": 153.64583333333212,
      "v": 38
    },
    {
      "midi": 64,
      "hit": false,
      "t": 9984.375000000002,
      "d": 57.29166666666606,
      "v": 38
    },
    {
      "midi": 72,
      "hit": false,
      "t": 10187.5,
      "d": 304.6875,
      "v": 61
    },
    {
      "midi": 62,
      "hit": false,
      "t": 10195.3125,
      "d": 78.125,
      "v": 41
    },
    {
      "midi": 64,
      "hit": false,
      "t": 10526.041666666666,
      "d": 763.0208333333321,
      "v": 56
    },
    {
      "midi": 60,
      "hit": false,
      "t": 10536.458333333332,
      "d": 552.0833333333321,
      "v": 30
    },
    {
      "midi": 45,
      "hit": false,
      "t": 10546.874999999998,
      "d": 421.875,
      "v": 41
    },
    {
      "midi": 52,
      "hit": false,
      "t": 11039.062499999998,
      "d": 289.0625,
      "v": 32
    },
    {
      "midi": 60,
      "hit": false,
      "t": 11526.041666666664,
      "d": 505.20833333333394,
      "v": 33
    },
    {
      "midi": 72,
      "hit": false,
      "t": 12083.333333333332,
      "d": 445.3124999999982,
      "v": 65
    },
    {
      "midi": 69,
      "hit": false,
      "t": 12101.562499999998,
      "d": 205.72916666666606,
      "v": 19
    },
    {
      "midi": 64,
      "hit": false,
      "t": 12117.187499999998,
      "d": 304.6874999999982,
      "v": 16
    },
    {
      "midi": 71,
      "hit": false,
      "t": 12531.249999999996,
      "d": 213.54166666666606,
      "v": 58
    },
    {
      "midi": 68,
      "hit": false,
      "t": 12554.687499999996,
      "d": 132.8125,
      "v": 28
    },
    {
      "midi": 62,
      "hit": false,
      "t": 12562.499999999996,
      "d": 299.47916666666606,
      "v": 32
    },
    {
      "midi": 72,
      "hit": false,
      "t": 12721.354166666662,
      "d": 213.54166666666606,
      "v": 77
    },
    {
      "midi": 69,
      "hit": false,
      "t": 12731.770833333328,
      "d": 213.54166666666606,
      "v": 77
    },
    {
      "midi": 74,
      "hit": false,
      "t": 12934.895833333328,
      "d": 182.29166666666606,
      "v": 76
    },
    {
      "midi": 71,
      "hit": false,
      "t": 12947.91666666666,
      "d": 49.47916666666606,
      "v": 41
    },
    {
      "midi": 52,
      "hit": false,
      "t": 12966.145833333327,
      "d": 91.14583333333394,
      "v": 30
    },
    {
      "midi": 77,
      "hit": false,
      "t": 13153.645833333328,
      "d": 403.64583333333576,
      "v": 63
    },
    {
      "midi": 68,
      "hit": false,
      "t": 13166.666666666662,
      "d": 98.95833333333394,
      "v": 32
    },
    {
      "midi": 45,
      "hit": false,
      "t": 13453.124999999996,
      "d": 458.33333333333394,
      "v": 28
    },
    {
      "midi": 76,
      "hit": false,
      "t": 13489.58333333333,
      "d": 588.5416666666679,
      "v": 63
    },
    {
      "midi": 72,
      "hit": false,
      "t": 13528.64583333333,
      "d": 593.7500000000018,
      "v": 29
    },
    {
      "midi": 52,
      "hit": false,
      "t": 13968.749999999998,
      "d": 257.8125,
      "v": 36
    },
    {
      "midi": 60,
      "hit": false,
      "t": 14411.458333333332,
      "d": 377.60416666666606,
      "v": 43
    },
    {
      "midi": 72,
      "hit": false,
      "t": 14809.895833333332,
      "d": 481.77083333333394,
      "v": 77
    },
    {
      "midi": 69,
      "hit": false,
      "t": 14820.312499999998,
      "d": 252.60416666666606,
      "v": 55
    },
    {
      "midi": 64,
      "hit": false,
      "t": 14838.541666666664,
      "d": 375,
      "v": 40
    },
    {
      "midi": 71,
      "hit": false,
      "t": 15265.624999999998,
      "d": 276.0416666666679,
      "v": 59
    },
    {
      "midi": 68,
      "hit": false,
      "t": 15270.833333333332,
      "d": 236.97916666666606,
      "v": 42
    },
    {
      "midi": 62,
      "hit": false,
      "t": 15294.270833333332,
      "d": 471.3541666666679,
      "v": 35
    },
    {
      "midi": 72,
      "hit": false,
      "t": 15520.833333333332,
      "d": 205.72916666666788,
      "v": 72
    },
    {
      "midi": 69,
      "hit": false,
      "t": 15549.479166666666,
      "d": 83.33333333333394,
      "v": 52
    },
    {
      "midi": 52,
      "hit": false,
      "t": 15736.979166666666,
      "d": 148.4375,
      "v": 39
    },
    {
      "midi": 74,
      "hit": false,
      "t": 15742.1875,
      "d": 62.5,
      "v": 71
    },
    {
      "midi": 71,
      "hit": false,
      "t": 15750,
      "d": 54.6875,
      "v": 48
    },
    {
      "midi": 68,
      "hit": false,
      "t": 15940.104166666666,
      "d": 111.97916666666788,
      "v": 62
    },
    {
      "midi": 77,
      "hit": false,
      "t": 15953.125,
      "d": 231.77083333333394,
      "v": 68
    },
    {
      "midi": 45,
      "hit": false,
      "t": 16203.125,
      "d": 473.9583333333321,
      "v": 41
    },
    {
      "midi": 76,
      "hit": false,
      "t": 16213.541666666666,
      "d": 125,
      "v": 73
    },
    {
      "midi": 72,
      "hit": false,
      "t": 16236.979166666666,
      "d": 54.6875,
      "v": 50
    },
    {
      "midi": 84,
      "hit": false,
      "t": 16468.75,
      "d": 46.875,
      "v": 78
    },
    {
      "midi": 76,
      "hit": false,
      "t": 16479.166666666668,
      "d": 98.95833333333212,
      "v": 51
    },
    {
      "midi": 83,
      "hit": false,
      "t": 16682.291666666664,
      "d": 114.58333333333576,
      "v": 60
    },
    {
      "midi": 74,
      "hit": false,
      "t": 16692.708333333332,
      "d": 96.35416666666788,
      "v": 53
    },
    {
      "midi": 52,
      "hit": false,
      "t": 16739.583333333332,
      "d": 158.85416666666788,
      "v": 38
    },
    {
      "midi": 80,
      "hit": false,
      "t": 16880.208333333332,
      "d": 140.625,
      "v": 72
    },
    {
      "midi": 71,
      "hit": false,
      "t": 16901.041666666668,
      "d": 59.89583333333212,
      "v": 28
    },
    {
      "midi": 72,
      "hit": false,
      "t": 17104.166666666664,
      "d": 65.10416666666424,
      "v": 59
    },
    {
      "midi": 81,
      "hit": false,
      "t": 17109.374999999996,
      "d": 174.47916666666424,
      "v": 66
    },
    {
      "midi": 64,
      "hit": false,
      "t": 17109.374999999996,
      "d": 330.72916666666424,
      "v": 60
    },
    {
      "midi": 74,
      "hit": false,
      "t": 17312.499999999993,
      "d": 57.29166666666788,
      "v": 67
    },
    {
      "midi": 77,
      "hit": false,
      "t": 17312.499999999993,
      "d": 187.5,
      "v": 78
    },
    {
      "midi": 72,
      "hit": false,
      "t": 17510.41666666666,
      "d": 85.93749999999636,
      "v": 73
    },
    {
      "midi": 76,
      "hit": false,
      "t": 17515.624999999993,
      "d": 156.24999999999636,
      "v": 83
    },
    {
      "midi": 60,
      "hit": false,
      "t": 17526.041666666657,
      "d": 156.25,
      "v": 44
    },
    {
      "midi": 79,
      "hit": false,
      "t": 17721.354166666657,
      "d": 54.6875,
      "v": 70
    },
    {
      "midi": 71,
      "hit": false,
      "t": 17729.166666666657,
      "d": 44.27083333333212,
      "v": 48
    },
    {
      "midi": 78,
      "hit": false,
      "t": 17953.12499999999,
      "d": 52.08333333333212,
      "v": 64
    },
    {
      "midi": 69,
      "hit": false,
      "t": 17953.12499999999,
      "d": 54.6875,
      "v": 63
    },
    {
      "midi": 50,
      "hit": false,
      "t": 17953.12499999999,
      "d": 283.85416666666424,
      "v": 46
    },
    {
      "midi": 71,
      "hit": false,
      "t": 18161.45833333332,
      "d": 153.64583333333212,
      "v": 55
    },
    {
      "midi": 67,
      "hit": false,
      "t": 18166.666666666653,
      "d": 85.9375,
      "v": 59
    },
    {
      "midi": 72,
      "hit": false,
      "t": 18338.541666666653,
      "d": 226.5625,
      "v": 64
    },
    {
      "midi": 66,
      "hit": false,
      "t": 18346.354166666653,
      "d": 65.10416666666788,
      "v": 55
    },
    {
      "midi": 38,
      "hit": false,
      "t": 18354.166666666653,
      "d": 122.39583333333212,
      "v": 39
    },
    {
      "midi": 74,
      "hit": false,
      "t": 18593.749999999985,
      "d": 302.0833333333321,
      "v": 50
    },
    {
      "midi": 62,
      "hit": false,
      "t": 18596.354166666653,
      "d": 145.83333333333212,
      "v": 24
    },
    {
      "midi": 43,
      "hit": false,
      "t": 18895.833333333318,
      "d": 489.5833333333321,
      "v": 30
    },
    {
      "midi": 71,
      "hit": false,
      "t": 18916.66666666665,
      "d": 1054.6875,
      "v": 38
    },
    {
      "midi": 67,
      "hit": false,
      "t": 18932.29166666665,
      "d": 1057.2916666666679,
      "v": 34
    },
    {
      "midi": 50,
      "hit": false,
      "t": 19374.99999999998,
      "d": 453.12500000000364,
      "v": 41
    },
    {
      "midi": 62,
      "hit": false,
      "t": 19919.270833333318,
      "d": 455.72916666666424,
      "v": 51
    },
    {
      "midi": 61,
      "hit": false,
      "t": 20361.97916666665,
      "d": 471.35416666666424,
      "v": 38
    },
    {
      "midi": 67,
      "hit": false,
      "t": 20679.68749999998,
      "d": 59.89583333333212,
      "v": 51
    },
    {
      "midi": 69,
      "hit": false,
      "t": 20794.270833333314,
      "d": 65.10416666666424,
      "v": 51
    },
    {
      "midi": 67,
      "hit": false,
      "t": 20838.541666666646,
      "d": 247.39583333333212,
      "v": 58
    },
    {
      "midi": 60,
      "hit": false,
      "t": 20869.791666666646,
      "d": 502.60416666666424,
      "v": 33
    },
    {
      "midi": 64,
      "hit": false,
      "t": 20877.604166666646,
      "d": 234.375,
      "v": 36
    },
    {
      "midi": 66,
      "hit": false,
      "t": 21085.937499999978,
      "d": 164.0625,
      "v": 52
    },
    {
      "midi": 53,
      "hit": false,
      "t": 21270.83333333331,
      "d": 398.4375,
      "v": 32
    },
    {
      "midi": 67,
      "hit": false,
      "t": 21281.249999999978,
      "d": 197.91666666666788,
      "v": 65
    },
    {
      "midi": 63,
      "hit": false,
      "t": 21289.062499999978,
      "d": 156.25,
      "v": 38
    },
    {
      "midi": 69,
      "hit": false,
      "t": 21484.374999999978,
      "d": 276.0416666666679,
      "v": 66
    },
    {
      "midi": 65,
      "hit": false,
      "t": 21520.83333333331,
      "d": 104.16666666666788,
      "v": 29
    },
    {
      "midi": 70,
      "hit": false,
      "t": 21710.937499999978,
      "d": 1049.4791666666679,
      "v": 66
    },
    {
      "midi": 46,
      "hit": false,
      "t": 21713.541666666646,
      "d": 447.9166666666679,
      "v": 42
    },
    {
      "midi": 62,
      "hit": false,
      "t": 21749.999999999978,
      "d": 427.08333333333576,
      "v": 33
    },
    {
      "midi": 53,
      "hit": false,
      "t": 22161.458333333314,
      "d": 429.6875,
      "v": 50
    },
    {
      "midi": 65,
      "hit": false,
      "t": 22591.145833333314,
      "d": 414.06249999999636,
      "v": 49
    },
    {
      "midi": 64,
      "hit": false,
      "t": 23036.45833333331,
      "d": 359.375,
      "v": 52
    },
    {
      "midi": 70,
      "hit": false,
      "t": 23335.937499999978,
      "d": 59.89583333333212,
      "v": 68
    },
    {
      "midi": 72,
      "hit": false,
      "t": 23403.64583333331,
      "d": 44.27083333333212,
      "v": 73
    },
    {
      "midi": 63,
      "hit": false,
      "t": 23442.70833333331,
      "d": 539.0625000000036,
      "v": 46
    },
    {
      "midi": 70,
      "hit": false,
      "t": 23463.541666666642,
      "d": 210.9375,
      "v": 88
    },
    {
      "midi": 67,
      "hit": false,
      "t": 23468.749999999975,
      "d": 195.3125,
      "v": 41
    },
    {
      "midi": 69,
      "hit": false,
      "t": 23674.479166666642,
      "d": 210.93750000000364,
      "v": 85
    },
    {
      "midi": 70,
      "hit": false,
      "t": 23872.39583333331,
      "d": 244.79166666667152,
      "v": 90
    },
    {
      "midi": 66,
      "hit": false,
      "t": 23882.812499999978,
      "d": 109.37500000000364,
      "v": 50
    },
    {
      "midi": 56,
      "hit": false,
      "t": 23895.833333333314,
      "d": 414.06250000000364,
      "v": 34
    },
    {
      "midi": 72,
      "hit": false,
      "t": 24101.56249999998,
      "d": 203.125,
      "v": 86
    },
    {
      "midi": 68,
      "hit": false,
      "t": 24104.16666666665,
      "d": 62.5,
      "v": 58
    },
    {
      "midi": 49,
      "hit": false,
      "t": 24348.958333333318,
      "d": 580.7291666666715,
      "v": 31
    },
    {
      "midi": 73,
      "hit": false,
      "t": 24385.41666666665,
      "d": 125,
      "v": 62
    },
    {
      "midi": 65,
      "hit": false,
      "t": 24395.833333333318,
      "d": 130.20833333333212,
      "v": 42
    },
    {
      "midi": 82,
      "hit": false,
      "t": 24697.91666666665,
      "d": 83.33333333333576,
      "v": 60
    },
    {
      "midi": 90,
      "hit": false,
      "t": 24708.333333333318,
      "d": 83.33333333333576,
      "v": 52
    },
    {
      "midi": 89,
      "hit": false,
      "t": 24908.854166666653,
      "d": 88.54166666667152,
      "v": 84
    },
    {
      "midi": 80,
      "hit": false,
      "t": 24919.27083333332,
      "d": 122.39583333333576,
      "v": 60
    },
    {
      "midi": 56,
      "hit": false,
      "t": 24947.916666666657,
      "d": 372.3958333333321,
      "v": 46
    },
    {
      "midi": 78,
      "hit": false,
      "t": 25098.958333333325,
      "d": 98.95833333333212,
      "v": 75
    },
    {
      "midi": 84,
      "hit": false,
      "t": 25119.791666666657,
      "d": 130.20833333333212,
      "v": 79
    },
    {
      "midi": 85,
      "hit": false,
      "t": 25296.87499999999,
      "d": 85.9375,
      "v": 79
    },
    {
      "midi": 68,
      "hit": false,
      "t": 25302.08333333332,
      "d": 281.25000000000364,
      "v": 55
    },
    {
      "midi": 77,
      "hit": false,
      "t": 25317.70833333332,
      "d": 98.95833333333576,
      "v": 75
    },
    {
      "midi": 82,
      "hit": false,
      "t": 25484.37499999999,
      "d": 109.37500000000364,
      "v": 90
    },
    {
      "midi": 78,
      "hit": false,
      "t": 25492.18749999999,
      "d": 65.10416666666788,
      "v": 64
    },
    {
      "midi": 80,
      "hit": false,
      "t": 25669.270833333325,
      "d": 114.58333333333212,
      "v": 76
    },
    {
      "midi": 65,
      "hit": false,
      "t": 25695.312499999993,
      "d": 75.52083333333212,
      "v": 55
    },
    {
      "midi": 77,
      "hit": false,
      "t": 25703.124999999993,
      "d": 72.91666666666424,
      "v": 44
    },
    {
      "midi": 65,
      "hit": false,
      "t": 25820.31249999999,
      "d": 208.33333333333212,
      "v": 14
    },
    {
      "midi": 83,
      "hit": false,
      "t": 25874.99999999999,
      "d": 203.125,
      "v": 62
    },
    {
      "midi": 75,
      "hit": false,
      "t": 25898.43749999999,
      "d": 67.70833333333212,
      "v": 38
    },
    {
      "midi": 82,
      "hit": false,
      "t": 26078.12499999999,
      "d": 49.47916666666788,
      "v": 79
    },
    {
      "midi": 74,
      "hit": false,
      "t": 26088.541666666657,
      "d": 52.08333333333212,
      "v": 61
    },
    {
      "midi": 56,
      "hit": false,
      "t": 26091.145833333325,
      "d": 117.18749999999636,
      "v": 41
    },
    {
      "midi": 75,
      "hit": false,
      "t": 26286.45833333332,
      "d": 151.04166666666788,
      "v": 65
    },
    {
      "midi": 71,
      "hit": false,
      "t": 26307.291666666653,
      "d": 49.47916666666788,
      "v": 43
    },
    {
      "midi": 58,
      "hit": false,
      "t": 26307.291666666653,
      "d": 67.70833333333576,
      "v": 40
    },
    {
      "midi": 77,
      "hit": false,
      "t": 26471.354166666657,
      "d": 244.79166666666424,
      "v": 75
    },
    {
      "midi": 46,
      "hit": false,
      "t": 26494.791666666657,
      "d": 236.97916666666424,
      "v": 67
    },
    {
      "midi": 70,
      "hit": false,
      "t": 26502.604166666657,
      "d": 75.52083333333212,
      "v": 62
    },
    {
      "midi": 78,
      "hit": false,
      "t": 26708.33333333332,
      "d": 255.20833333333576,
      "v": 67
    },
    {
      "midi": 68,
      "hit": false,
      "t": 26718.74999999999,
      "d": 62.5,
      "v": 46
    },
    {
      "midi": 51,
      "hit": false,
      "t": 26984.37499999999,
      "d": 492.1875,
      "v": 39
    },
    {
      "midi": 66,
      "hit": false,
      "t": 27015.62499999999,
      "d": 460.9375,
      "v": 35
    },
    {
      "midi": 70,
      "hit": false,
      "t": 27015.62499999999,
      "d": 789.0625,
      "v": 62
    },
    {
      "midi": 58,
      "hit": false,
      "t": 27494.791666666657,
      "d": 419.2708333333321,
      "v": 42
    },
    {
      "midi": 70,
      "hit": false,
      "t": 27953.12499999999,
      "d": 322.9166666666679,
      "v": 70
    },
    {
      "midi": 69,
      "hit": false,
      "t": 28356.770833333325,
      "d": 317.7083333333321,
      "v": 74
    },
    {
      "midi": 77,
      "hit": false,
      "t": 28697.916666666657,
      "d": 223.95833333332848,
      "v": 88
    },
    {
      "midi": 74,
      "hit": false,
      "t": 28703.12499999999,
      "d": 46.875,
      "v": 73
    },
    {
      "midi": 68,
      "hit": false,
      "t": 28708.33333333332,
      "d": 460.9374999999927,
      "v": 57
    },
    {
      "midi": 78,
      "hit": false,
      "t": 28895.83333333332,
      "d": 260.4166666666606,
      "v": 87
    },
    {
      "midi": 75,
      "hit": false,
      "t": 28916.666666666653,
      "d": 104.16666666666424,
      "v": 67
    },
    {
      "midi": 80,
      "hit": false,
      "t": 29088.54166666665,
      "d": 234.37499999999636,
      "v": 88
    },
    {
      "midi": 77,
      "hit": false,
      "t": 29109.37499999998,
      "d": 75.52083333333212,
      "v": 70
    },
    {
      "midi": 58,
      "hit": false,
      "t": 29122.395833333314,
      "d": 210.9375,
      "v": 51
    },
    {
      "midi": 83,
      "hit": false,
      "t": 29302.083333333314,
      "d": 265.62499999999636,
      "v": 75
    },
    {
      "midi": 74,
      "hit": false,
      "t": 29317.708333333314,
      "d": 125,
      "v": 65
    },
    {
      "midi": 51,
      "hit": false,
      "t": 29526.041666666646,
      "d": 395.83333333333576,
      "v": 46
    },
    {
      "midi": 82,
      "hit": false,
      "t": 29546.874999999978,
      "d": 838.5416666666715,
      "v": 79
    },
    {
      "midi": 78,
      "hit": false,
      "t": 29570.312499999978,
      "d": 815.1041666666715,
      "v": 48
    },
    {
      "midi": 58,
      "hit": false,
      "t": 29963.54166666665,
      "d": 440.1041666666679,
      "v": 41
    },
    {
      "midi": 70,
      "hit": false,
      "t": 30416.66666666665,
      "d": 388.0208333333321,
      "v": 53
    },
    {
      "midi": 78,
      "hit": false,
      "t": 30864.583333333314,
      "d": 484.37500000000364,
      "v": 75
    },
    {
      "midi": 75,
      "hit": false,
      "t": 30880.208333333314,
      "d": 361.9791666666679,
      "v": 56
    },
    {
      "midi": 69,
      "hit": false,
      "t": 30911.458333333314,
      "d": 395.83333333333576,
      "v": 36
    },
    {
      "midi": 77,
      "hit": false,
      "t": 31328.12499999998,
      "d": 226.56250000000364,
      "v": 76
    },
    {
      "midi": 74,
      "hit": false,
      "t": 31338.54166666665,
      "d": 57.29166666666788,
      "v": 37
    },
    {
      "midi": 68,
      "hit": false,
      "t": 31359.374999999985,
      "d": 562.4999999999964,
      "v": 44
    },
    {
      "midi": 78,
      "hit": false,
      "t": 31552.083333333318,
      "d": 252.60416666666788,
      "v": 78
    },
    {
      "midi": 75,
      "hit": false,
      "t": 31559.895833333318,
      "d": 72.91666666666788,
      "v": 52
    },
    {
      "midi": 80,
      "hit": false,
      "t": 31760.416666666653,
      "d": 203.12499999999636,
      "v": 75
    },
    {
      "midi": 77,
      "hit": false,
      "t": 31773.437499999985,
      "d": 65.10416666666424,
      "v": 55
    },
    {
      "midi": 58,
      "hit": false,
      "t": 31817.708333333318,
      "d": 192.70833333333212,
      "v": 37
    },
    {
      "midi": 83,
      "hit": false,
      "t": 31999.99999999998,
      "d": 179.6875,
      "v": 57
    },
    {
      "midi": 74,
      "hit": false,
      "t": 32010.41666666665,
      "d": 83.33333333333212,
      "v": 53
    },
    {
      "midi": 82,
      "hit": false,
      "t": 32203.12499999998,
      "d": 52.08333333333212,
      "v": 78
    },
    {
      "midi": 78,
      "hit": false,
      "t": 32208.333333333314,
      "d": 57.29166666666788,
      "v": 53
    },
    {
      "midi": 51,
      "hit": false,
      "t": 32242.18749999998,
      "d": 299.47916666666424,
      "v": 38
    },
    {
      "midi": 90,
      "hit": false,
      "t": 32395.833333333314,
      "d": 52.08333333333212,
      "v": 76
    },
    {
      "midi": 82,
      "hit": false,
      "t": 32401.041666666646,
      "d": 59.89583333333212,
      "v": 70
    },
    {
      "midi": 89,
      "hit": false,
      "t": 32588.541666666646,
      "d": 67.70833333333212,
      "v": 86
    },
    {
      "midi": 80,
      "hit": false,
      "t": 32596.354166666646,
      "d": 98.95833333333212,
      "v": 54
    },
    {
      "midi": 58,
      "hit": false,
      "t": 32635.416666666646,
      "d": 291.6666666666679,
      "v": 32
    },
    {
      "midi": 86,
      "hit": false,
      "t": 32789.06249999998,
      "d": 46.875,
      "v": 72
    },
    {
      "midi": 77,
      "hit": false,
      "t": 32789.06249999998,
      "d": 158.85416666667152,
      "v": 71
    },
    {
      "midi": 78,
      "hit": false,
      "t": 32992.187499999985,
      "d": 52.08333333333576,
      "v": 70
    },
    {
      "midi": 87,
      "hit": false,
      "t": 32994.79166666665,
      "d": 65.10416666667152,
      "v": 73
    },
    {
      "midi": 70,
      "hit": false,
      "t": 32999.999999999985,
      "d": 320.3125000000073,
      "v": 54
    },
    {
      "midi": 83,
      "hit": false,
      "t": 33190.10416666666,
      "d": 158.85416666667152,
      "v": 62
    },
    {
      "midi": 80,
      "hit": false,
      "t": 33203.12499999999,
      "d": 49.47916666666424,
      "v": 59
    },
    {
      "midi": 82,
      "hit": false,
      "t": 33406.24999999999,
      "d": 104.16666666665697,
      "v": 70
    },
    {
      "midi": 78,
      "hit": false,
      "t": 33416.66666666666,
      "d": 75.52083333332848,
      "v": 47
    },
    {
      "midi": 66,
      "hit": false,
      "t": 33419.27083333332,
      "d": 356.7708333333212,
      "v": 37
    },
    {
      "midi": 85,
      "hit": false,
      "t": 33645.833333333314,
      "d": 46.875,
      "v": 68
    },
    {
      "midi": 77,
      "hit": false,
      "t": 33658.85416666665,
      "d": 98.95833333332848,
      "v": 59
    },
    {
      "midi": 75,
      "hit": false,
      "t": 33864.58333333331,
      "d": 161.45833333333576,
      "v": 59
    },
    {
      "midi": 84,
      "hit": false,
      "t": 33869.79166666664,
      "d": 44.27083333333576,
      "v": 57
    },
    {
      "midi": 56,
      "hit": false,
      "t": 33890.62499999998,
      "d": 755.2083333333358,
      "v": 38
    },
    {
      "midi": 73,
      "hit": false,
      "t": 34057.29166666664,
      "d": 59.89583333333576,
      "v": 66
    },
    {
      "midi": 77,
      "hit": false,
      "t": 34070.31249999998,
      "d": 122.39583333333576,
      "v": 74
    },
    {
      "midi": 72,
      "hit": false,
      "t": 34270.833333333314,
      "d": 294.27083333333576,
      "v": 46
    },
    {
      "midi": 78,
      "hit": false,
      "t": 34276.04166666665,
      "d": 244.79166666667152,
      "v": 69
    },
    {
      "midi": 44,
      "hit": false,
      "t": 34312.499999999985,
      "d": 585.9375,
      "v": 40
    },
    {
      "midi": 68,
      "hit": false,
      "t": 34554.687499999985,
      "d": 393.22916666666424,
      "v": 52
    },
    {
      "midi": 80,
      "hit": false,
      "t": 34557.29166666665,
      "d": 325.52083333333576,
      "v": 51
    },
    {
      "midi": 77,
      "hit": false,
      "t": 34877.60416666665,
      "d": 638.0208333333358,
      "v": 64
    },
    {
      "midi": 73,
      "hit": false,
      "t": 34885.41666666665,
      "d": 903.6458333333358,
      "v": 41
    },
    {
      "midi": 49,
      "hit": false,
      "t": 34890.624999999985,
      "d": 567.7083333333358,
      "v": 35
    },
    {
      "midi": 56,
      "hit": false,
      "t": 35390.624999999985,
      "d": 544.2708333333358,
      "v": 56
    },
    {
      "midi": 68,
      "hit": false,
      "t": 35856.77083333332,
      "d": 390.625,
      "v": 60
    },
    {
      "midi": 77,
      "hit": false,
      "t": 36260.41666666666,
      "d": 395.83333333333576,
      "v": 95
    },
    {
      "midi": 73,
      "hit": false,
      "t": 36276.04166666666,
      "d": 403.64583333333576,
      "v": 61
    },
    {
      "midi": 65,
      "hit": false,
      "t": 36304.68749999999,
      "d": 385.41666666666424,
      "v": 49
    },
    {
      "midi": 78,
      "hit": false,
      "t": 36703.12499999999,
      "d": 161.45833333332848,
      "v": 79
    },
    {
      "midi": 70,
      "hit": false,
      "t": 36710.93749999999,
      "d": 65.10416666666424,
      "v": 63
    },
    {
      "midi": 56,
      "hit": false,
      "t": 36749.99999999999,
      "d": 356.7708333333285,
      "v": 44
    },
    {
      "midi": 73,
      "hit": false,
      "t": 36822.91666666666,
      "d": 135.41666666666424,
      "v": 2
    },
    {
      "midi": 77,
      "hit": false,
      "t": 36971.35416666666,
      "d": 101.5625,
      "v": 85
    },
    {
      "midi": 68,
      "hit": false,
      "t": 36976.56249999999,
      "d": 57.29166666666424,
      "v": 59
    },
    {
      "midi": 66,
      "hit": false,
      "t": 37169.27083333332,
      "d": 101.5625,
      "v": 63
    },
    {
      "midi": 75,
      "hit": false,
      "t": 37177.08333333332,
      "d": 98.95833333333576,
      "v": 76
    },
    {
      "midi": 49,
      "hit": false,
      "t": 37190.10416666666,
      "d": 65.10416666666424,
      "v": 52
    },
    {
      "midi": 65,
      "hit": false,
      "t": 37380.20833333332,
      "d": 49.47916666666424,
      "v": 63
    },
    {
      "midi": 73,
      "hit": false,
      "t": 37382.812499999985,
      "d": 70.3125,
      "v": 76
    },
    {
      "midi": 41,
      "hit": false,
      "t": 37591.14583333332,
      "d": 367.1874999999927,
      "v": 42
    },
    {
      "midi": 72,
      "hit": false,
      "t": 37598.95833333332,
      "d": 1312.5,
      "v": 83
    },
    {
      "midi": 63,
      "hit": false,
      "t": 37624.999999999985,
      "d": 591.1458333333358,
      "v": 43
    },
    {
      "midi": 69,
      "hit": false,
      "t": 37627.60416666665,
      "d": 549.4791666666715,
      "v": 59
    },
    {
      "midi": 53,
      "hit": false,
      "t": 38023.437499999985,
      "d": 125,
      "v": 62
    },
    {
      "midi": 53,
      "hit": false,
      "t": 38283.85416666666,
      "d": 161.45833333333576,
      "v": 6
    },
    {
      "midi": 65,
      "hit": false,
      "t": 38510.41666666666,
      "d": 197.91666666666424,
      "v": 63
    },
    {
      "midi": 70,
      "hit": false,
      "t": 38914.062499999985,
      "d": 549.4791666666642,
      "v": 76
    },
    {
      "midi": 65,
      "hit": false,
      "t": 38916.66666666665,
      "d": 500,
      "v": 45
    },
    {
      "midi": 58,
      "hit": false,
      "t": 38924.47916666665,
      "d": 789.0624999999927,
      "v": 46
    },
    {
      "midi": 61,
      "hit": false,
      "t": 38927.083333333314,
      "d": 317.70833333333576,
      "v": 46
    },
    {
      "midi": 63,
      "hit": false,
      "t": 39466.145833333314,
      "d": 153.64583333332848,
      "v": 42
    },
    {
      "midi": 46,
      "hit": false,
      "t": 39479.16666666665,
      "d": 401.04166666665697,
      "v": 38
    },
    {
      "midi": 72,
      "hit": false,
      "t": 39489.583333333314,
      "d": 236.97916666666424,
      "v": 50
    },
    {
      "midi": 70,
      "hit": false,
      "t": 39770.833333333314,
      "d": 166.66666666665697,
      "v": 57
    },
    {
      "midi": 61,
      "hit": false,
      "t": 39781.24999999998,
      "d": 65.10416666666424,
      "v": 50
    },
    {
      "midi": 58,
      "hit": false,
      "t": 40023.43749999997,
      "d": 98.95833333333576,
      "v": 54
    },
    {
      "midi": 67,
      "hit": false,
      "t": 40026.041666666635,
      "d": 101.56250000000728,
      "v": 42
    },
    {
      "midi": 48,
      "hit": false,
      "t": 40039.06249999997,
      "d": 135.41666666667152,
      "v": 31
    },
    {
      "midi": 64,
      "hit": false,
      "t": 40046.87499999997,
      "d": 62.5,
      "v": 38
    },
    {
      "midi": 60,
      "hit": false,
      "t": 40265.62499999998,
      "d": 57.29166666667152,
      "v": 50
    },
    {
      "midi": 69,
      "hit": false,
      "t": 40270.833333333314,
      "d": 216.14583333333576,
      "v": 48
    },
    {
      "midi": 41,
      "hit": false,
      "t": 40520.833333333314,
      "d": 385.41666666666424,
      "v": 33
    },
    {
      "midi": 65,
      "hit": false,
      "t": 40544.270833333314,
      "d": 716.1458333333358,
      "v": 44
    },
    {
      "midi": 57,
      "hit": false,
      "t": 40562.49999999998,
      "d": 385.4166666666715,
      "v": 35
    },
    {
      "midi": 48,
      "hit": false,
      "t": 40934.895833333314,
      "d": 367.1875,
      "v": 44
    },
    {
      "midi": 57,
      "hit": false,
      "t": 41429.68749999998,
      "d": 393.22916666666424,
      "v": 49
    },
    {
      "midi": 77,
      "hit": false,
      "t": 42020.83333333331,
      "d": 437.5,
      "v": 89
    },
    {
      "midi": 74,
      "hit": false,
      "t": 42046.87499999997,
      "d": 510.4166666666715,
      "v": 53
    },
    {
      "midi": 69,
      "hit": false,
      "t": 42049.479166666635,
      "d": 260.4166666666715,
      "v": 45
    },
    {
      "midi": 50,
      "hit": false,
      "t": 42065.104166666635,
      "d": 408.8541666666715,
      "v": 43
    },
    {
      "midi": 79,
      "hit": false,
      "t": 42460.93749999997,
      "d": 179.68750000000728,
      "v": 84
    },
    {
      "midi": 70,
      "hit": false,
      "t": 42468.74999999997,
      "d": 75.52083333333576,
      "v": 62
    },
    {
      "midi": 57,
      "hit": false,
      "t": 42507.81249999997,
      "d": 62.500000000007276,
      "v": 44
    },
    {
      "midi": 77,
      "hit": false,
      "t": 42669.270833333314,
      "d": 39.0625,
      "v": 89
    },
    {
      "midi": 69,
      "hit": false,
      "t": 42682.29166666665,
      "d": 44.27083333332848,
      "v": 74
    },
    {
      "midi": 76,
      "hit": false,
      "t": 42867.18749999998,
      "d": 182.29166666666424,
      "v": 88
    },
    {
      "midi": 67,
      "hit": false,
      "t": 42890.62499999998,
      "d": 62.5,
      "v": 56
    },
    {
      "midi": 74,
      "hit": false,
      "t": 43072.91666666664,
      "d": 67.70833333333576,
      "v": 87
    },
    {
      "midi": 65,
      "hit": false,
      "t": 43088.54166666664,
      "d": 62.5,
      "v": 67
    },
    {
      "midi": 72,
      "hit": false,
      "t": 43335.93749999998,
      "d": 1380.2083333333285,
      "v": 85
    },
    {
      "midi": 40,
      "hit": false,
      "t": 43343.74999999998,
      "d": 369.79166666666424,
      "v": 46
    },
    {
      "midi": 69,
      "hit": false,
      "t": 43354.16666666664,
      "d": 817.7083333333358,
      "v": 52
    },
    {
      "midi": 64,
      "hit": false,
      "t": 43356.77083333331,
      "d": 575.5208333333358,
      "v": 53
    },
    {
      "midi": 52,
      "hit": false,
      "t": 43807.29166666664,
      "d": 427.08333333333576,
      "v": 63
    },
    {
      "midi": 64,
      "hit": false,
      "t": 44273.43749999998,
      "d": 510.41666666666424,
      "v": 69
    },
    {
      "midi": 54,
      "hit": false,
      "t": 44713.54166666664,
      "d": 598.958333333343,
      "v": 54
    },
    {
      "midi": 63,
      "hit": false,
      "t": 44937.49999999998,
      "d": 190.10416666667152,
      "v": 64
    },
    {
      "midi": 71,
      "hit": false,
      "t": 44942.708333333314,
      "d": 247.39583333333576,
      "v": 69
    },
    {
      "midi": 72,
      "hit": false,
      "t": 45184.895833333314,
      "d": 210.93750000000728,
      "v": 89
    },
    {
      "midi": 64,
      "hit": false,
      "t": 45197.91666666665,
      "d": 52.08333333333576,
      "v": 56
    },
    {
      "midi": 52,
      "hit": false,
      "t": 45221.35416666665,
      "d": 700.520833333343,
      "v": 53
    },
    {
      "midi": 63,
      "hit": false,
      "t": 45432.29166666666,
      "d": 72.91666666666424,
      "v": 58
    },
    {
      "midi": 71,
      "hit": false,
      "t": 45434.89583333332,
      "d": 325.52083333333576,
      "v": 65
    },
    {
      "midi": 56,
      "hit": false,
      "t": 45557.29166666666,
      "d": 414.0625,
      "v": 50
    },
    {
      "midi": 74,
      "hit": false,
      "t": 45765.62499999999,
      "d": 156.25,
      "v": 72
    },
    {
      "midi": 65,
      "hit": false,
      "t": 45765.62499999999,
      "d": 375,
      "v": 56
    },
    {
      "midi": 62,
      "hit": false,
      "t": 45804.68749999999,
      "d": 158.85416666666424,
      "v": 44
    },
    {
      "midi": 72,
      "hit": false,
      "t": 46117.18749999999,
      "d": 325.52083333333576,
      "v": 67
    },
    {
      "midi": 64,
      "hit": false,
      "t": 46140.62499999999,
      "d": 93.75,
      "v": 44
    },
    {
      "midi": 45,
      "hit": false,
      "t": 46265.62499999999,
      "d": 317.70833333333576,
      "v": 45
    },
    {
      "midi": 69,
      "hit": false,
      "t": 46471.354166666664,
      "d": 195.3125,
      "v": 64
    },
    {
      "midi": 60,
      "hit": false,
      "t": 46489.58333333333,
      "d": 369.79166666666424,
      "v": 37
    },
    {
      "midi": 84,
      "hit": false,
      "t": 46744.791666666664,
      "d": 41.66666666666424,
      "v": 78
    },
    {
      "midi": 76,
      "hit": false,
      "t": 46752.604166666664,
      "d": 59.89583333332848,
      "v": 42
    },
    {
      "midi": 83,
      "hit": false,
      "t": 46966.14583333333,
      "d": 85.93750000000728,
      "v": 55
    },
    {
      "midi": 74,
      "hit": false,
      "t": 46979.166666666664,
      "d": 93.75000000000728,
      "v": 46
    },
    {
      "midi": 57,
      "hit": false,
      "t": 47015.625,
      "d": 130.20833333333576,
      "v": 41
    },
    {
      "midi": 80,
      "hit": false,
      "t": 47174.47916666667,
      "d": 114.58333333333576,
      "v": 61
    },
    {
      "midi": 71,
      "hit": false,
      "t": 47177.083333333336,
      "d": 52.08333333333576,
      "v": 50
    },
    {
      "midi": 81,
      "hit": false,
      "t": 47375.00000000001,
      "d": 140.625,
      "v": 78
    },
    {
      "midi": 72,
      "hit": false,
      "t": 47398.43750000001,
      "d": 59.89583333333576,
      "v": 48
    },
    {
      "midi": 64,
      "hit": false,
      "t": 47414.06250000001,
      "d": 122.39583333333576,
      "v": 53
    },
    {
      "midi": 74,
      "hit": false,
      "t": 47578.12500000001,
      "d": 54.6875,
      "v": 82
    },
    {
      "midi": 77,
      "hit": false,
      "t": 47578.12500000001,
      "d": 226.5625,
      "v": 84
    },
    {
      "midi": 72,
      "hit": false,
      "t": 47799.47916666667,
      "d": 62.5,
      "v": 77
    },
    {
      "midi": 50,
      "hit": false,
      "t": 47799.47916666667,
      "d": 492.1875,
      "v": 51
    },
    {
      "midi": 76,
      "hit": false,
      "t": 47804.68750000001,
      "d": 91.14583333332848,
      "v": 88
    },
    {
      "midi": 79,
      "hit": false,
      "t": 48002.60416666667,
      "d": 46.875,
      "v": 82
    },
    {
      "midi": 71,
      "hit": false,
      "t": 48007.81250000001,
      "d": 46.875,
      "v": 69
    },
    {
      "midi": 77,
      "hit": false,
      "t": 48197.91666666667,
      "d": 46.875,
      "v": 91
    },
    {
      "midi": 69,
      "hit": false,
      "t": 48210.93750000001,
      "d": 67.70833333332848,
      "v": 72
    },
    {
      "midi": 57,
      "hit": false,
      "t": 48236.97916666667,
      "d": 114.58333333333576,
      "v": 49
    },
    {
      "midi": 71,
      "hit": false,
      "t": 48395.83333333334,
      "d": 192.70833333333576,
      "v": 73
    },
    {
      "midi": 68,
      "hit": false,
      "t": 48403.64583333334,
      "d": 67.70833333333576,
      "v": 57
    },
    {
      "midi": 65,
      "hit": false,
      "t": 48588.54166666668,
      "d": 41.66666666666424,
      "v": 78
    },
    {
      "midi": 72,
      "hit": false,
      "t": 48604.16666666668,
      "d": 166.66666666666424,
      "v": 86
    },
    {
      "midi": 69,
      "hit": false,
      "t": 48632.81250000001,
      "d": 75.52083333333576,
      "v": 49
    },
    {
      "midi": 74,
      "hit": false,
      "t": 48828.12500000001,
      "d": 114.58333333334303,
      "v": 86
    },
    {
      "midi": 65,
      "hit": false,
      "t": 48833.33333333334,
      "d": 57.29166666667152,
      "v": 60
    },
    {
      "midi": 71,
      "hit": false,
      "t": 48846.35416666668,
      "d": 333.33333333333576,
      "v": 52
    },
    {
      "midi": 40,
      "hit": false,
      "t": 49125.000000000015,
      "d": 250,
      "v": 49
    },
    {
      "midi": 72,
      "hit": false,
      "t": 49166.66666666668,
      "d": 1098.9583333333285,
      "v": 54
    },
    {
      "midi": 76,
      "hit": false,
      "t": 49179.687500000015,
      "d": 1200.5208333333285,
      "v": 81
    },
    {
      "midi": 64,
      "hit": false,
      "t": 49190.10416666668,
      "d": 393.22916666666424,
      "v": 49
    },
    {
      "midi": 52,
      "hit": false,
      "t": 49708.33333333334,
      "d": 500,
      "v": 59
    },
    {
      "midi": 64,
      "hit": false,
      "t": 50187.50000000001,
      "d": 986.9791666666715,
      "v": 64
    },
    {
      "midi": 54,
      "hit": false,
      "t": 50593.75000000001,
      "d": 552.0833333333358,
      "v": 54
    },
    {
      "midi": 63,
      "hit": false,
      "t": 50822.91666666668,
      "d": 93.75,
      "v": 55
    },
    {
      "midi": 71,
      "hit": false,
      "t": 50822.91666666668,
      "d": 229.16666666666424,
      "v": 62
    },
    {
      "midi": 72,
      "hit": false,
      "t": 51065.10416666668,
      "d": 247.39583333333576,
      "v": 78
    },
    {
      "midi": 52,
      "hit": false,
      "t": 51096.35416666668,
      "d": 817.7083333333285,
      "v": 57
    },
    {
      "midi": 71,
      "hit": false,
      "t": 51338.54166666668,
      "d": 348.9583333333285,
      "v": 67
    },
    {
      "midi": 63,
      "hit": false,
      "t": 51341.14583333334,
      "d": 65.10416666666424,
      "v": 54
    },
    {
      "midi": 56,
      "hit": false,
      "t": 51502.60416666667,
      "d": 445.3125,
      "v": 46
    },
    {
      "midi": 74,
      "hit": false,
      "t": 51669.270833333336,
      "d": 356.77083333333576,
      "v": 51
    },
    {
      "midi": 65,
      "hit": false,
      "t": 51682.29166666667,
      "d": 122.39583333333576,
      "v": 40
    },
    {
      "midi": 62,
      "hit": false,
      "t": 51723.95833333334,
      "d": 174.47916666666424,
      "v": 45
    },
    {
      "midi": 72,
      "hit": false,
      "t": 52023.43750000001,
      "d": 132.81249999999272,
      "v": 62
    },
    {
      "midi": 64,
      "hit": false,
      "t": 52044.270833333336,
      "d": 114.58333333332848,
      "v": 36
    },
    {
      "midi": 45,
      "hit": false,
      "t": 52375,
      "d": 239.58333333332848,
      "v": 42
    },
    {
      "midi": 69,
      "hit": false,
      "t": 52437.5,
      "d": 174.47916666666424,
      "v": 54
    },
    {
      "midi": 60,
      "hit": false,
      "t": 52440.104166666664,
      "d": 98.95833333333576,
      "v": 49
    },
    {
      "midi": 84,
      "hit": false,
      "t": 52838.541666666664,
      "d": 52.08333333333576,
      "v": 66
    },
    {
      "midi": 76,
      "hit": false,
      "t": 52861.979166666664,
      "d": 91.14583333333576,
      "v": 51
    },
    {
      "midi": 74,
      "hit": false,
      "t": 53072.916666666664,
      "d": 67.70833333333576,
      "v": 67
    },
    {
      "midi": 83,
      "hit": false,
      "t": 53078.125,
      "d": 125,
      "v": 49
    },
    {
      "midi": 57,
      "hit": false,
      "t": 53106.770833333336,
      "d": 455.7291666666715,
      "v": 44
    },
    {
      "midi": 80,
      "hit": false,
      "t": 53265.625,
      "d": 143.22916666666424,
      "v": 66
    },
    {
      "midi": 71,
      "hit": false,
      "t": 53270.833333333336,
      "d": 57.29166666666424,
      "v": 45
    },
    {
      "midi": 72,
      "hit": false,
      "t": 53486.979166666664,
      "d": 54.687500000007276,
      "v": 66
    },
    {
      "midi": 81,
      "hit": false,
      "t": 53492.1875,
      "d": 166.66666666667152,
      "v": 71
    },
    {
      "midi": 64,
      "hit": false,
      "t": 53520.833333333336,
      "d": 119.79166666667152,
      "v": 46
    },
    {
      "midi": 77,
      "hit": false,
      "t": 53695.31250000001,
      "d": 200.52083333334303,
      "v": 80
    },
    {
      "midi": 74,
      "hit": false,
      "t": 53708.33333333334,
      "d": 52.08333333333576,
      "v": 61
    },
    {
      "midi": 72,
      "hit": false,
      "t": 53901.041666666686,
      "d": 65.10416666666424,
      "v": 63
    },
    {
      "midi": 76,
      "hit": false,
      "t": 53908.854166666686,
      "d": 169.27083333332848,
      "v": 80
    },
    {
      "midi": 50,
      "hit": false,
      "t": 53911.45833333335,
      "d": 541.6666666666642,
      "v": 42
    },
    {
      "midi": 71,
      "hit": false,
      "t": 54098.95833333335,
      "d": 59.89583333332848,
      "v": 46
    },
    {
      "midi": 79,
      "hit": false,
      "t": 54101.562500000015,
      "d": 46.875,
      "v": 65
    },
    {
      "midi": 77,
      "hit": false,
      "t": 54296.875000000015,
      "d": 46.875,
      "v": 75
    },
    {
      "midi": 69,
      "hit": false,
      "t": 54312.500000000015,
      "d": 52.08333333333576,
      "v": 51
    },
    {
      "midi": 57,
      "hit": false,
      "t": 54335.937500000015,
      "d": 158.85416666666424,
      "v": 40
    },
    {
      "midi": 68,
      "hit": false,
      "t": 54494.79166666668,
      "d": 59.89583333333576,
      "v": 73
    },
    {
      "midi": 71,
      "hit": false,
      "t": 54507.812500000015,
      "d": 75.52083333333576,
      "v": 61
    },
    {
      "midi": 72,
      "hit": false,
      "t": 54721.354166666686,
      "d": 213.54166666667152,
      "v": 83
    },
    {
      "midi": 65,
      "hit": false,
      "t": 54734.37500000002,
      "d": 52.08333333333576,
      "v": 52
    },
    {
      "midi": 69,
      "hit": false,
      "t": 54742.18750000002,
      "d": 62.5,
      "v": 62
    },
    {
      "midi": 74,
      "hit": false,
      "t": 54966.14583333336,
      "d": 382.8125,
      "v": 76
    },
    {
      "midi": 71,
      "hit": false,
      "t": 54984.37500000002,
      "d": 52.08333333333576,
      "v": 42
    },
    {
      "midi": 65,
      "hit": false,
      "t": 54992.18750000002,
      "d": 59.89583333333576,
      "v": 41
    },
    {
      "midi": 76,
      "hit": false,
      "t": 55320.31250000003,
      "d": 971.354166666657,
      "v": 70
    },
    {
      "midi": 72,
      "hit": false,
      "t": 55322.91666666669,
      "d": 999.9999999999927,
      "v": 56
    },
    {
      "midi": 40,
      "hit": false,
      "t": 55333.33333333336,
      "d": 187.5,
      "v": 40
    },
    {
      "midi": 64,
      "hit": false,
      "t": 55335.93750000002,
      "d": 348.95833333333576,
      "v": 27
    },
    {
      "midi": 52,
      "hit": false,
      "t": 55859.37500000002,
      "d": 406.25,
      "v": 46
    },
    {
      "midi": 64,
      "hit": false,
      "t": 56354.166666666686,
      "d": 588.5416666666642,
      "v": 37
    },
    {
      "midi": 54,
      "hit": false,
      "t": 56833.33333333335,
      "d": 643.2291666666642,
      "v": 34
    },
    {
      "midi": 71,
      "hit": false,
      "t": 57072.916666666686,
      "d": 200.52083333333576,
      "v": 43
    },
    {
      "midi": 63,
      "hit": false,
      "t": 57078.12500000002,
      "d": 83.33333333333576,
      "v": 31
    },
    {
      "midi": 64,
      "hit": false,
      "t": 57315.104166666686,
      "d": 57.29166666666424,
      "v": 35
    },
    {
      "midi": 72,
      "hit": false,
      "t": 57322.916666666686,
      "d": 200.52083333332848,
      "v": 50
    },
    {
      "midi": 52,
      "hit": false,
      "t": 57380.20833333335,
      "d": 822.916666666657,
      "v": 37
    },
    {
      "midi": 63,
      "hit": false,
      "t": 57578.125000000015,
      "d": 132.8125,
      "v": 42
    },
    {
      "midi": 71,
      "hit": false,
      "t": 57591.14583333335,
      "d": 361.97916666666424,
      "v": 38
    },
    {
      "midi": 56,
      "hit": false,
      "t": 57822.91666666668,
      "d": 408.85416666666424,
      "v": 26
    },
    {
      "midi": 65,
      "hit": false,
      "t": 57947.91666666668,
      "d": 161.45833333333576,
      "v": 37
    },
    {
      "midi": 74,
      "hit": false,
      "t": 57958.33333333335,
      "d": 356.7708333333285,
      "v": 34
    },
    {
      "midi": 62,
      "hit": false,
      "t": 57989.58333333335,
      "d": 187.49999999999272,
      "v": 27
    },
    {
      "midi": 72,
      "hit": false,
      "t": 58338.54166666668,
      "d": 57.29166666666424,
      "v": 52
    },
    {
      "midi": 64,
      "hit": false,
      "t": 58354.16666666668,
      "d": 98.95833333332848,
      "v": 31
    },
    {
      "midi": 45,
      "hit": false,
      "t": 58721.35416666667,
      "d": 1044.2708333333285,
      "v": 32
    },
    {
      "midi": 60,
      "hit": false,
      "t": 58835.93750000001,
      "d": 1513.0208333333285,
      "v": 31
    },
    {
      "midi": 69,
      "hit": false,
      "t": 58846.35416666667,
      "d": 1205.7291666666642,
      "v": 45
    },
    {
      "midi": 52,
      "hit": false,
      "t": 59328.125,
      "d": 429.6875,
      "v": 40
    },
    {
      "midi": 57,
      "hit": false,
      "t": 59890.625,
      "d": 302.08333333333576,
      "v": 42
    },
    {
      "midi": 52,
      "hit": false,
      "t": 60299.47916666667,
      "d": 380.2083333333285,
      "v": 52
    },
    {
      "midi": 64,
      "hit": false,
      "t": 60520.833333333336,
      "d": 49.47916666666424,
      "v": 55
    },
    {
      "midi": 66,
      "hit": false,
      "t": 60572.916666666664,
      "d": 59.89583333333576,
      "v": 69
    },
    {
      "midi": 60,
      "hit": false,
      "t": 60651.041666666664,
      "d": 229.16666666667152,
      "v": 61
    },
    {
      "midi": 64,
      "hit": false,
      "t": 60664.0625,
      "d": 239.58333333333576,
      "v": 81
    },
    {
      "midi": 45,
      "hit": false,
      "t": 60687.5,
      "d": 346.3541666666715,
      "v": 45
    },
    {
      "midi": 62,
      "hit": false,
      "t": 60872.395833333336,
      "d": 184.89583333333576,
      "v": 75
    },
    {
      "midi": 59,
      "hit": false,
      "t": 60875,
      "d": 208.33333333334303,
      "v": 58
    },
    {
      "midi": 60,
      "hit": false,
      "t": 61070.31250000001,
      "d": 138.02083333333576,
      "v": 61
    },
    {
      "midi": 64,
      "hit": false,
      "t": 61070.31250000001,
      "d": 221.35416666667152,
      "v": 71
    },
    {
      "midi": 38,
      "hit": false,
      "t": 61083.33333333334,
      "d": 132.8125,
      "v": 57
    },
    {
      "midi": 66,
      "hit": false,
      "t": 61260.41666666668,
      "d": 184.89583333333576,
      "v": 77
    },
    {
      "midi": 62,
      "hit": false,
      "t": 61289.062500000015,
      "d": 252.60416666666424,
      "v": 58
    },
    {
      "midi": 67,
      "hit": false,
      "t": 61510.41666666668,
      "d": 1140.6249999999927,
      "v": 76
    },
    {
      "midi": 59,
      "hit": false,
      "t": 61536.45833333334,
      "d": 1221.3541666666642,
      "v": 41
    },
    {
      "midi": 43,
      "hit": false,
      "t": 61549.47916666668,
      "d": 710.9374999999927,
      "v": 46
    },
    {
      "midi": 50,
      "hit": false,
      "t": 61921.87500000001,
      "d": 385.41666666666424,
      "v": 62
    },
    {
      "midi": 55,
      "hit": false,
      "t": 62351.56250000001,
      "d": 385.41666666666424,
      "v": 42
    },
    {
      "midi": 50,
      "hit": false,
      "t": 62815.10416666667,
      "d": 552.0833333333358,
      "v": 49
    },
    {
      "midi": 62,
      "hit": false,
      "t": 63125.00000000001,
      "d": 54.6875,
      "v": 47
    },
    {
      "midi": 64,
      "hit": false,
      "t": 63250.00000000001,
      "d": 70.3125,
      "v": 28
    },
    {
      "midi": 62,
      "hit": false,
      "t": 63273.43750000001,
      "d": 289.0624999999927,
      "v": 46
    },
    {
      "midi": 58,
      "hit": false,
      "t": 63281.25000000001,
      "d": 223.95833333332848,
      "v": 55
    },
    {
      "midi": 43,
      "hit": false,
      "t": 63286.45833333334,
      "d": 434.8958333333212,
      "v": 38
    },
    {
      "midi": 57,
      "hit": false,
      "t": 63570.3125,
      "d": 57.29166666666424,
      "v": 45
    },
    {
      "midi": 60,
      "hit": false,
      "t": 63578.125,
      "d": 203.125,
      "v": 51
    },
    {
      "midi": 58,
      "hit": false,
      "t": 63789.0625,
      "d": 75.52083333333576,
      "v": 70
    },
    {
      "midi": 62,
      "hit": false,
      "t": 63807.291666666664,
      "d": 156.25000000000728,
      "v": 54
    },
    {
      "midi": 36,
      "hit": false,
      "t": 63812.5,
      "d": 72.91666666667152,
      "v": 42
    },
    {
      "midi": 60,
      "hit": false,
      "t": 64007.81250000001,
      "d": 70.3125,
      "v": 54
    },
    {
      "midi": 64,
      "hit": false,
      "t": 64023.43750000001,
      "d": 242.1875,
      "v": 55
    },
    {
      "midi": 41,
      "hit": false,
      "t": 64239.58333333334,
      "d": 510.41666666665697,
      "v": 34
    },
    {
      "midi": 56,
      "hit": false,
      "t": 64265.62500000001,
      "d": 70.3125,
      "v": 54
    },
    {
      "midi": 65,
      "hit": false,
      "t": 64270.83333333334,
      "d": 83.33333333332848,
      "v": 67
    },
    {
      "midi": 80,
      "hit": false,
      "t": 64611.97916666667,
      "d": 67.70833333332848,
      "v": 70
    },
    {
      "midi": 72,
      "hit": false,
      "t": 64622.395833333336,
      "d": 75.52083333332848,
      "v": 46
    },
    {
      "midi": 70,
      "hit": false,
      "t": 64828.125,
      "d": 117.1875,
      "v": 78
    },
    {
      "midi": 79,
      "hit": false,
      "t": 64841.145833333336,
      "d": 78.125,
      "v": 73
    },
    {
      "midi": 53,
      "hit": false,
      "t": 64885.41666666667,
      "d": 348.9583333333285,
      "v": 43
    },
    {
      "midi": 67,
      "hit": false,
      "t": 65036.458333333336,
      "d": 46.875,
      "v": 66
    },
    {
      "midi": 76,
      "hit": false,
      "t": 65036.458333333336,
      "d": 109.375,
      "v": 89
    },
    {
      "midi": 68,
      "hit": false,
      "t": 65239.583333333336,
      "d": 62.499999999992724,
      "v": 66
    },
    {
      "midi": 77,
      "hit": false,
      "t": 65242.1875,
      "d": 104.16666666666424,
      "v": 83
    },
    {
      "midi": 60,
      "hit": false,
      "t": 65252.604166666664,
      "d": 117.1875,
      "v": 56
    },
    {
      "midi": 70,
      "hit": false,
      "t": 65416.666666666664,
      "d": 57.29166666666424,
      "v": 81
    },
    {
      "midi": 73,
      "hit": false,
      "t": 65434.89583333333,
      "d": 98.95833333333576,
      "v": 66
    },
    {
      "midi": 68,
      "hit": false,
      "t": 65630.20833333333,
      "d": 98.95833333332848,
      "v": 65
    },
    {
      "midi": 72,
      "hit": false,
      "t": 65632.8125,
      "d": 200.52083333332848,
      "v": 79
    },
    {
      "midi": 46,
      "hit": false,
      "t": 65661.45833333333,
      "d": 502.60416666665697,
      "v": 47
    },
    {
      "midi": 67,
      "hit": false,
      "t": 65833.33333333333,
      "d": 67.70833333334303,
      "v": 68
    },
    {
      "midi": 75,
      "hit": false,
      "t": 65835.9375,
      "d": 171.875,
      "v": 65
    },
    {
      "midi": 73,
      "hit": false,
      "t": 66031.25,
      "d": 70.31249999998545,
      "v": 66
    },
    {
      "midi": 65,
      "hit": false,
      "t": 66059.89583333333,
      "d": 65.10416666665697,
      "v": 46
    },
    {
      "midi": 53,
      "hit": false,
      "t": 66072.91666666666,
      "d": 250,
      "v": 34
    },
    {
      "midi": 67,
      "hit": false,
      "t": 66242.18749999999,
      "d": 106.77083333334303,
      "v": 79
    },
    {
      "midi": 64,
      "hit": false,
      "t": 66260.41666666666,
      "d": 54.6875,
      "v": 42
    },
    {
      "midi": 68,
      "hit": false,
      "t": 66447.91666666666,
      "d": 192.70833333332848,
      "v": 71
    },
    {
      "midi": 65,
      "hit": false,
      "t": 66453.12499999999,
      "d": 57.29166666667152,
      "v": 54
    },
    {
      "midi": 61,
      "hit": false,
      "t": 66486.97916666666,
      "d": 52.08333333332848,
      "v": 41
    },
    {
      "midi": 70,
      "hit": false,
      "t": 66679.68749999999,
      "d": 375.00000000001455,
      "v": 81
    },
    {
      "midi": 67,
      "hit": false,
      "t": 66729.16666666666,
      "d": 80.72916666667152,
      "v": 31
    },
    {
      "midi": 72,
      "hit": false,
      "t": 67026.04166666666,
      "d": 994.791666666657,
      "v": 78
    },
    {
      "midi": 36,
      "hit": false,
      "t": 67041.66666666666,
      "d": 200.52083333334303,
      "v": 30
    },
    {
      "midi": 68,
      "hit": false,
      "t": 67052.08333333333,
      "d": 1062.4999999999854,
      "v": 46
    },
    {
      "midi": 60,
      "hit": false,
      "t": 67098.95833333333,
      "d": 257.8125,
      "v": 8
    },
    {
      "midi": 48,
      "hit": false,
      "t": 67588.54166666666,
      "d": 380.2083333333285,
      "v": 57
    },
    {
      "midi": 60,
      "hit": false,
      "t": 68072.91666666664,
      "d": 476.5625,
      "v": 45
    },
    {
      "midi": 50,
      "hit": false,
      "t": 68552.08333333331,
      "d": 382.81250000001455,
      "v": 44
    },
    {
      "midi": 59,
      "hit": false,
      "t": 68783.85416666666,
      "d": 52.08333333332848,
      "v": 35
    },
    {
      "midi": 67,
      "hit": false,
      "t": 68783.85416666666,
      "d": 101.5625,
      "v": 47
    },
    {
      "midi": 68,
      "hit": false,
      "t": 69005.20833333333,
      "d": 203.12500000001455,
      "v": 55
    },
    {
      "midi": 60,
      "hit": false,
      "t": 69007.8125,
      "d": 75.52083333334303,
      "v": 49
    },
    {
      "midi": 48,
      "hit": false,
      "t": 69041.66666666667,
      "d": 104.16666666667152,
      "v": 33
    },
    {
      "midi": 67,
      "hit": false,
      "t": 69239.58333333334,
      "d": 328.12499999998545,
      "v": 65
    },
    {
      "midi": 59,
      "hit": false,
      "t": 69273.43750000001,
      "d": 59.89583333332848,
      "v": 30
    },
    {
      "midi": 48,
      "hit": false,
      "t": 69346.35416666667,
      "d": 372.3958333333285,
      "v": 2
    },
    {
      "midi": 52,
      "hit": false,
      "t": 69437.5,
      "d": 96.35416666667152,
      "v": 30
    },
    {
      "midi": 70,
      "hit": false,
      "t": 69559.89583333333,
      "d": 325.5208333333285,
      "v": 55
    },
    {
      "midi": 61,
      "hit": false,
      "t": 69578.125,
      "d": 205.72916666665697,
      "v": 32
    },
    {
      "midi": 58,
      "hit": false,
      "t": 69585.9375,
      "d": 161.45833333332848,
      "v": 52
    },
    {
      "midi": 68,
      "hit": false,
      "t": 69885.41666666666,
      "d": 330.7291666666715,
      "v": 49
    },
    {
      "midi": 60,
      "hit": false,
      "t": 69901.04166666666,
      "d": 114.58333333332848,
      "v": 37
    },
    {
      "midi": 41,
      "hit": false,
      "t": 70057.29166666666,
      "d": 380.20833333334303,
      "v": 29
    },
    {
      "midi": 65,
      "hit": false,
      "t": 70260.41666666666,
      "d": 85.9375,
      "v": 34
    },
    {
      "midi": 56,
      "hit": false,
      "t": 70307.29166666666,
      "d": 661.4583333333576,
      "v": 33
    },
    {
      "midi": 80,
      "hit": false,
      "t": 70565.10416666667,
      "d": 98.95833333332848,
      "v": 54
    },
    {
      "midi": 72,
      "hit": false,
      "t": 70596.35416666667,
      "d": 67.70833333332848,
      "v": 51
    },
    {
      "midi": 70,
      "hit": false,
      "t": 70796.875,
      "d": 78.12500000001455,
      "v": 64
    },
    {
      "midi": 79,
      "hit": false,
      "t": 70799.47916666667,
      "d": 85.93750000001455,
      "v": 70
    },
    {
      "midi": 53,
      "hit": false,
      "t": 70833.33333333334,
      "d": 88.54166666667152,
      "v": 39
    },
    {
      "midi": 76,
      "hit": false,
      "t": 71020.83333333334,
      "d": 195.3125,
      "v": 79
    },
    {
      "midi": 67,
      "hit": false,
      "t": 71033.85416666667,
      "d": 62.5,
      "v": 35
    },
    {
      "midi": 53,
      "hit": false,
      "t": 71059.89583333334,
      "d": 502.6041666666715,
      "v": 24
    },
    {
      "midi": 68,
      "hit": false,
      "t": 71234.37500000001,
      "d": 93.75000000001455,
      "v": 56
    },
    {
      "midi": 77,
      "hit": false,
      "t": 71236.97916666669,
      "d": 148.4375,
      "v": 78
    },
    {
      "midi": 60,
      "hit": false,
      "t": 71270.83333333336,
      "d": 70.3125,
      "v": 43
    },
    {
      "midi": 73,
      "hit": false,
      "t": 71432.29166666669,
      "d": 62.5,
      "v": 60
    },
    {
      "midi": 70,
      "hit": false,
      "t": 71437.50000000001,
      "d": 54.6875,
      "v": 66
    },
    {
      "midi": 68,
      "hit": false,
      "t": 71635.41666666669,
      "d": 67.70833333332848,
      "v": 62
    },
    {
      "midi": 72,
      "hit": false,
      "t": 71635.41666666669,
      "d": 80.72916666665697,
      "v": 69
    },
    {
      "midi": 46,
      "hit": false,
      "t": 71656.25000000001,
      "d": 677.083333333343,
      "v": 52
    },
    {
      "midi": 75,
      "hit": false,
      "t": 71835.93750000001,
      "d": 200.52083333332848,
      "v": 53
    },
    {
      "midi": 67,
      "hit": false,
      "t": 71841.14583333334,
      "d": 75.52083333332848,
      "v": 57
    },
    {
      "midi": 56,
      "hit": false,
      "t": 72046.87500000001,
      "d": 156.25,
      "v": 44
    },
    {
      "midi": 65,
      "hit": false,
      "t": 72049.47916666669,
      "d": 59.89583333332848,
      "v": 68
    },
    {
      "midi": 73,
      "hit": false,
      "t": 72062.50000000001,
      "d": 140.625,
      "v": 55
    },
    {
      "midi": 63,
      "hit": false,
      "t": 72281.25000000001,
      "d": 78.12500000001455,
      "v": 59
    },
    {
      "midi": 67,
      "hit": false,
      "t": 72299.47916666669,
      "d": 70.31250000001455,
      "v": 61
    },
    {
      "midi": 61,
      "hit": false,
      "t": 72559.89583333337,
      "d": 72.91666666667152,
      "v": 42
    },
    {
      "midi": 68,
      "hit": false,
      "t": 72559.89583333337,
      "d": 322.9166666666715,
      "v": 53
    },
    {
      "midi": 34,
      "hit": false,
      "t": 72609.37500000004,
      "d": 1421.875000000029,
      "v": 70
    },
    {
      "midi": 70,
      "hit": false,
      "t": 72851.56250000004,
      "d": 549.4791666666861,
      "v": 68
    },
    {
      "midi": 58,
      "hit": false,
      "t": 72856.77083333337,
      "d": 419.27083333334303,
      "v": 52
    },
    {
      "midi": 66,
      "hit": false,
      "t": 73260.41666666672,
      "d": 1807.291666666686,
      "v": 52
    },
    {
      "midi": 62,
      "hit": false,
      "t": 73286.45833333339,
      "d": 486.97916666668607,
      "v": 38
    },
    {
      "midi": 61,
      "hit": false,
      "t": 73770.8333333334,
      "d": 1239.5833333333285,
      "v": 36
    },
    {
      "midi": 33,
      "hit": false,
      "t": 74033.85416666674,
      "d": 351.56249999998545,
      "v": 37
    },
    {
      "midi": 54,
      "hit": false,
      "t": 74625.00000000006,
      "d": 419.27083333334303,
      "v": 41
    },
    {
      "midi": 51,
      "hit": false,
      "t": 75114.5833333334,
      "d": 406.25,
      "v": 44
    },
    {
      "midi": 63,
      "hit": false,
      "t": 75520.8333333334,
      "d": 231.77083333332848,
      "v": 54
    },
    {
      "midi": 60,
      "hit": false,
      "t": 75528.6458333334,
      "d": 62.5,
      "v": 46
    },
    {
      "midi": 44,
      "hit": false,
      "t": 75554.68750000007,
      "d": 1768.2291666666279,
      "v": 35
    },
    {
      "midi": 61,
      "hit": false,
      "t": 75770.8333333334,
      "d": 127.60416666667152,
      "v": 48
    },
    {
      "midi": 65,
      "hit": false,
      "t": 75770.8333333334,
      "d": 182.29166666667152,
      "v": 65
    },
    {
      "midi": 66,
      "hit": false,
      "t": 75997.3958333334,
      "d": 309.89583333331393,
      "v": 59
    },
    {
      "midi": 60,
      "hit": false,
      "t": 76010.41666666673,
      "d": 98.95833333332848,
      "v": 52
    },
    {
      "midi": 32,
      "hit": false,
      "t": 76039.06250000006,
      "d": 1450.520833333314,
      "v": 34
    },
    {
      "midi": 68,
      "hit": false,
      "t": 76265.62500000006,
      "d": 567.7083333333139,
      "v": 62
    },
    {
      "midi": 56,
      "hit": false,
      "t": 76270.83333333339,
      "d": 403.64583333331393,
      "v": 46
    },
    {
      "midi": 64,
      "hit": false,
      "t": 76677.08333333337,
      "d": 1763.020833333314,
      "v": 49
    },
    {
      "midi": 60,
      "hit": false,
      "t": 76690.1041666667,
      "d": 546.875,
      "v": 41
    },
    {
      "midi": 59,
      "hit": false,
      "t": 77216.14583333337,
      "d": 1281.2499999999854,
      "v": 31
    },
    {
      "midi": 31,
      "hit": false,
      "t": 77510.4166666667,
      "d": 260.41666666665697,
      "v": 31
    },
    {
      "midi": 52,
      "hit": false,
      "t": 78041.66666666669,
      "d": 369.7916666666715,
      "v": 37
    },
    {
      "midi": 49,
      "hit": false,
      "t": 78565.10416666669,
      "d": 583.333333333343,
      "v": 33
    },
    {
      "midi": 61,
      "hit": false,
      "t": 79028.64583333336,
      "d": 304.68749999998545,
      "v": 38
    },
    {
      "midi": 58,
      "hit": false,
      "t": 79033.85416666669,
      "d": 250,
      "v": 31
    },
    {
      "midi": 42,
      "hit": false,
      "t": 79044.27083333336,
      "d": 268.22916666665697,
      "v": 36
    },
    {
      "midi": 63,
      "hit": false,
      "t": 79312.50000000001,
      "d": 244.79166666667152,
      "v": 37
    },
    {
      "midi": 59,
      "hit": false,
      "t": 79343.75000000001,
      "d": 239.58333333334303,
      "v": 31
    },
    {
      "midi": 42,
      "hit": false,
      "t": 79390.62500000001,
      "d": 375.00000000001455,
      "v": 33
    },
    {
      "midi": 30,
      "hit": false,
      "t": 79674.4791666667,
      "d": 697.9166666666715,
      "v": 32
    },
    {
      "midi": 58,
      "hit": false,
      "t": 79679.68750000003,
      "d": 377.6041666666715,
      "v": 41
    },
    {
      "midi": 64,
      "hit": false,
      "t": 79697.9166666667,
      "d": 447.9166666666715,
      "v": 39
    },
    {
      "midi": 66,
      "hit": false,
      "t": 80067.70833333337,
      "d": 359.375,
      "v": 49
    },
    {
      "midi": 54,
      "hit": false,
      "t": 80088.5416666667,
      "d": 83.33333333334303,
      "v": 43
    },
    {
      "midi": 59,
      "hit": false,
      "t": 80908.8541666667,
      "d": 994.7916666666715,
      "v": 21
    },
    {
      "midi": 67,
      "hit": false,
      "t": 80908.8541666667,
      "d": 1101.5625,
      "v": 26
    },
    {
      "midi": 28,
      "hit": false,
      "t": 80919.27083333337,
      "d": 2320.3125,
      "v": 30
    },
    {
      "midi": 55,
      "hit": false,
      "t": 80929.68750000004,
      "d": 903.6458333333285,
      "v": 25
    },
    {
      "midi": 67,
      "hit": false,
      "t": 82403.64583333337,
      "d": 570.3125,
      "v": 42
    },
    {
      "midi": 69,
      "hit": false,
      "t": 83091.14583333337,
      "d": 432.2916666666715,
      "v": 32
    },
    {
      "midi": 67,
      "hit": false,
      "t": 83523.43750000004,
      "d": 877.604166666657,
      "v": 33
    },
    {
      "midi": 65,
      "hit": false,
      "t": 83536.45833333337,
      "d": 773.4375,
      "v": 26
    },
    {
      "midi": 26,
      "hit": false,
      "t": 83539.06250000004,
      "d": 2130.2083333333285,
      "v": 44
    },
    {
      "midi": 59,
      "hit": false,
      "t": 83544.27083333337,
      "d": 432.2916666666715,
      "v": 16
    },
    {
      "midi": 67,
      "hit": false,
      "t": 84674.4791666667,
      "d": 565.1041666666715,
      "v": 61
    },
    {
      "midi": 65,
      "hit": false,
      "t": 84677.08333333337,
      "d": 617.1875,
      "v": 47
    },
    {
      "midi": 59,
      "hit": false,
      "t": 84682.2916666667,
      "d": 338.5416666666715,
      "v": 36
    },
    {
      "midi": 69,
      "hit": false,
      "t": 85333.33333333337,
      "d": 72.91666666667152,
      "v": 68
    },
    {
      "midi": 67,
      "hit": false,
      "t": 85729.1666666667,
      "d": 656.25,
      "v": 65
    },
    {
      "midi": 60,
      "hit": false,
      "t": 85729.1666666667,
      "d": 718.75,
      "v": 44
    },
    {
      "midi": 64,
      "hit": false,
      "t": 85742.18750000003,
      "d": 674.4791666666715,
      "v": 41
    },
    {
      "midi": 24,
      "hit": false,
      "t": 85744.7916666667,
      "d": 656.25,
      "v": 37
    },
    {
      "midi": 55,
      "hit": false,
      "t": 86395.83333333337,
      "d": 171.875,
      "v": 43
    },
    {
      "midi": 67,
      "hit": false,
      "t": 86778.64583333337,
      "d": 148.4375,
      "v": 69
    },
    {
      "midi": 64,
      "hit": false,
      "t": 86791.6666666667,
      "d": 72.91666666667152,
      "v": 41
    },
    {
      "midi": 60,
      "hit": false,
      "t": 86794.27083333337,
      "d": 106.77083333332848,
      "v": 45
    },
    {
      "midi": 76,
      "hit": false,
      "t": 87390.62500000004,
      "d": 203.125,
      "v": 89
    },
    {
      "midi": 76,
      "hit": false,
      "t": 87796.87500000004,
      "d": 708.333333333343,
      "v": 79
    },
    {
      "midi": 65,
      "hit": false,
      "t": 87804.68750000004,
      "d": 1859.3750000000146,
      "v": 44
    },
    {
      "midi": 57,
      "hit": false,
      "t": 87804.68750000004,
      "d": 2067.708333333343,
      "v": 42
    },
    {
      "midi": 48,
      "hit": false,
      "t": 87804.68750000004,
      "d": 3601.5625000000146,
      "v": 35
    },
    {
      "midi": 74,
      "hit": false,
      "t": 88437.50000000004,
      "d": 359.375,
      "v": 63
    },
    {
      "midi": 72,
      "hit": false,
      "t": 88791.66666666672,
      "d": 708.3333333333285,
      "v": 65
    },
    {
      "midi": 69,
      "hit": false,
      "t": 89476.56250000004,
      "d": 526.0416666666861,
      "v": 49
    },
    {
      "midi": 67,
      "hit": false,
      "t": 89890.62500000006,
      "d": 861.979166666657,
      "v": 39
    },
    {
      "midi": 64,
      "hit": false,
      "t": 89901.04166666673,
      "d": 1200.5208333333285,
      "v": 27
    },
    {
      "midi": 55,
      "hit": false,
      "t": 89958.3333333334,
      "d": 1190.104166666657,
      "v": 7
    },
    {
      "midi": 67,
      "hit": false,
      "t": 90981.77083333339,
      "d": 653.645833333343,
      "v": 45
    },
    {
      "midi": 69,
      "hit": false,
      "t": 91677.0833333334,
      "d": 434.8958333333285,
      "v": 44
    },
    {
      "midi": 67,
      "hit": false,
      "t": 92122.3958333334,
      "d": 835.9374999999854,
      "v": 47
    },
    {
      "midi": 65,
      "hit": false,
      "t": 92140.62500000007,
      "d": 380.2083333333285,
      "v": 31
    },
    {
      "midi": 59,
      "hit": false,
      "t": 92153.6458333334,
      "d": 395.8333333333285,
      "v": 12
    },
    {
      "midi": 43,
      "hit": false,
      "t": 92156.25000000007,
      "d": 1546.8749999999854,
      "v": 16
    },
    {
      "midi": 31,
      "hit": false,
      "t": 92169.2708333334,
      "d": 1427.0833333333285,
      "v": 22
    },
    {
      "midi": 55,
      "hit": false,
      "t": 92838.54166666673,
      "d": 83.33333333332848,
      "v": 38
    },
    {
      "midi": 67,
      "hit": false,
      "t": 93260.41666666672,
      "d": 593.7500000000146,
      "v": 65
    },
    {
      "midi": 59,
      "hit": false,
      "t": 93302.08333333339,
      "d": 408.8541666666715,
      "v": 20
    },
    {
      "midi": 65,
      "hit": false,
      "t": 93328.12500000006,
      "d": 630.2083333333285,
      "v": 25
    },
    {
      "midi": 69,
      "hit": false,
      "t": 93898.43750000006,
      "d": 59.89583333332848,
      "v": 66
    },
    {
      "midi": 60,
      "hit": false,
      "t": 94302.08333333339,
      "d": 664.0625,
      "v": 39
    },
    {
      "midi": 67,
      "hit": false,
      "t": 94304.68750000006,
      "d": 710.9375,
      "v": 59
    },
    {
      "midi": 36,
      "hit": false,
      "t": 94320.31250000006,
      "d": 1031.25,
      "v": 31
    },
    {
      "midi": 64,
      "hit": false,
      "t": 94328.12500000006,
      "d": 606.7708333333285,
      "v": 38
    },
    {
      "midi": 48,
      "hit": false,
      "t": 94333.33333333339,
      "d": 906.2500000000146,
      "v": 25
    },
    {
      "midi": 55,
      "hit": false,
      "t": 94911.45833333339,
      "d": 184.89583333334303,
      "v": 55
    },
    {
      "midi": 67,
      "hit": false,
      "t": 95270.8333333334,
      "d": 164.06249999998545,
      "v": 71
    },
    {
      "midi": 60,
      "hit": false,
      "t": 95291.66666666673,
      "d": 88.54166666665697,
      "v": 47
    },
    {
      "midi": 64,
      "hit": false,
      "t": 95322.91666666673,
      "d": 80.72916666665697,
      "v": 36
    },
    {
      "midi": 72,
      "hit": false,
      "t": 95911.45833333339,
      "d": 192.70833333332848,
      "v": 88
    },
    {
      "midi": 72,
      "hit": false,
      "t": 96296.87500000004,
      "d": 502.6041666666424,
      "v": 77
    },
    {
      "midi": 60,
      "hit": false,
      "t": 96309.89583333337,
      "d": 1559.8958333332994,
      "v": 45
    },
    {
      "midi": 45,
      "hit": false,
      "t": 96322.9166666667,
      "d": 1749.9999999999563,
      "v": 42
    },
    {
      "midi": 64,
      "hit": false,
      "t": 96335.93750000003,
      "d": 1273.4374999999854,
      "v": 40
    },
    {
      "midi": 52,
      "hit": false,
      "t": 96341.14583333336,
      "d": 1656.249999999971,
      "v": 27
    },
    {
      "midi": 71,
      "hit": false,
      "t": 97031.25000000001,
      "d": 427.0833333333285,
      "v": 52
    },
    {
      "midi": 69,
      "hit": false,
      "t": 97421.87500000001,
      "d": 492.18749999998545,
      "v": 55
    },
    {
      "midi": 64,
      "hit": false,
      "t": 98106.77083333333,
      "d": 1596.3541666666715,
      "v": 50
    },
    {
      "midi": 68,
      "hit": false,
      "t": 98645.83333333333,
      "d": 1138.020833333343,
      "v": 31
    },
    {
      "midi": 71,
      "hit": false,
      "t": 98658.85416666666,
      "d": 1158.854166666686,
      "v": 31
    },
    {
      "midi": 59,
      "hit": false,
      "t": 98682.29166666666,
      "d": 973.958333333343,
      "v": 23
    },
    {
      "midi": 52,
      "hit": false,
      "t": 98697.91666666666,
      "d": 1679.6875000000146,
      "v": 22
    },
    {
      "midi": 40,
      "hit": false,
      "t": 98708.33333333333,
      "d": 1703.1250000000146,
      "v": 29
    },
    {
      "midi": 71,
      "hit": false,
      "t": 100083.33333333334,
      "d": 539.0625,
      "v": 50
    },
    {
      "midi": 73,
      "hit": false,
      "t": 100721.35416666667,
      "d": 132.8125,
      "v": 67
    },
    {
      "midi": 71,
      "hit": false,
      "t": 101229.16666666667,
      "d": 552.083333333343,
      "v": 53
    },
    {
      "midi": 63,
      "hit": false,
      "t": 101247.39583333334,
      "d": 604.1666666666715,
      "v": 29
    },
    {
      "midi": 69,
      "hit": false,
      "t": 101257.81250000001,
      "d": 421.875,
      "v": 43
    },
    {
      "midi": 35,
      "hit": false,
      "t": 101265.62500000001,
      "d": 1322.916666666686,
      "v": 24
    },
    {
      "midi": 47,
      "hit": false,
      "t": 101289.06250000001,
      "d": 1054.6875000000146,
      "v": 17
    },
    {
      "midi": 59,
      "hit": false,
      "t": 101885.41666666669,
      "d": 46.875,
      "v": 40
    },
    {
      "midi": 71,
      "hit": false,
      "t": 102244.79166666669,
      "d": 481.77083333334303,
      "v": 66
    },
    {
      "midi": 63,
      "hit": false,
      "t": 102247.39583333336,
      "d": 200.52083333334303,
      "v": 40
    },
    {
      "midi": 69,
      "hit": false,
      "t": 102265.62500000003,
      "d": 625,
      "v": 51
    },
    {
      "midi": 73,
      "hit": false,
      "t": 102828.12500000003,
      "d": 130.20833333332848,
      "v": 81
    },
    {
      "midi": 71,
      "hit": false,
      "t": 103208.33333333336,
      "d": 729.1666666666861,
      "v": 71
    },
    {
      "midi": 68,
      "hit": false,
      "t": 103231.77083333336,
      "d": 763.0208333333576,
      "v": 52
    },
    {
      "midi": 64,
      "hit": false,
      "t": 103239.58333333336,
      "d": 695.3125000000146,
      "v": 45
    },
    {
      "midi": 52,
      "hit": false,
      "t": 103255.20833333336,
      "d": 1122.3958333333576,
      "v": 30
    },
    {
      "midi": 40,
      "hit": false,
      "t": 103257.81250000003,
      "d": 1203.1250000000146,
      "v": 34
    },
    {
      "midi": 59,
      "hit": false,
      "t": 103833.33333333337,
      "d": 320.31250000001455,
      "v": 53
    },
    {
      "midi": 71,
      "hit": false,
      "t": 104276.04166666672,
      "d": 231.77083333332848,
      "v": 58
    },
    {
      "midi": 68,
      "hit": false,
      "t": 104294.27083333339,
      "d": 135.41666666665697,
      "v": 22
    },
    {
      "midi": 64,
      "hit": false,
      "t": 104315.10416666672,
      "d": 122.39583333332848,
      "v": 38
    },
    {
      "midi": 80,
      "hit": false,
      "t": 104919.27083333337,
      "d": 216.14583333332848,
      "v": 87
    },
    {
      "midi": 80,
      "hit": false,
      "t": 105354.1666666667,
      "d": 807.2916666666715,
      "v": 83
    },
    {
      "midi": 61,
      "hit": false,
      "t": 105369.7916666667,
      "d": 2166.666666666686,
      "v": 34
    },
    {
      "midi": 52,
      "hit": false,
      "t": 105375.00000000003,
      "d": 3531.250000000029,
      "v": 39
    },
    {
      "midi": 69,
      "hit": false,
      "t": 105377.6041666667,
      "d": 2239.5833333333576,
      "v": 42
    },
    {
      "midi": 78,
      "hit": false,
      "t": 106036.45833333337,
      "d": 406.25000000001455,
      "v": 57
    },
    {
      "midi": 76,
      "hit": false,
      "t": 106416.66666666672,
      "d": 723.958333333343,
      "v": 71
    },
    {
      "midi": 73,
      "hit": false,
      "t": 107072.91666666673,
      "d": 468.75,
      "v": 49
    },
    {
      "midi": 71,
      "hit": false,
      "t": 107515.62500000006,
      "d": 750,
      "v": 41
    },
    {
      "midi": 68,
      "hit": false,
      "t": 107539.06250000006,
      "d": 1317.7083333333285,
      "v": 31
    },
    {
      "midi": 59,
      "hit": false,
      "t": 107572.91666666673,
      "d": 1247.3958333333285,
      "v": 21
    },
    {
      "midi": 71,
      "hit": false,
      "t": 108625.00000000006,
      "d": 596.3541666666715,
      "v": 37
    },
    {
      "midi": 73,
      "hit": false,
      "t": 109213.54166666673,
      "d": 83.33333333332848,
      "v": 54
    },
    {
      "midi": 71,
      "hit": false,
      "t": 109609.37500000006,
      "d": 515.6249999999854,
      "v": 48
    },
    {
      "midi": 63,
      "hit": false,
      "t": 109625.00000000006,
      "d": 624.9999999999854,
      "v": 22
    },
    {
      "midi": 69,
      "hit": false,
      "t": 109632.81250000006,
      "d": 315.10416666665697,
      "v": 36
    },
    {
      "midi": 35,
      "hit": false,
      "t": 109645.83333333339,
      "d": 1276.041666666657,
      "v": 20
    },
    {
      "midi": 47,
      "hit": false,
      "t": 109658.85416666672,
      "d": 1375,
      "v": 16
    },
    {
      "midi": 59,
      "hit": false,
      "t": 110239.58333333337,
      "d": 49.47916666667152,
      "v": 35
    },
    {
      "midi": 63,
      "hit": false,
      "t": 110617.18750000004,
      "d": 343.75,
      "v": 36
    },
    {
      "midi": 71,
      "hit": false,
      "t": 110617.18750000004,
      "d": 455.7291666666715,
      "v": 48
    },
    {
      "midi": 69,
      "hit": false,
      "t": 110640.62500000004,
      "d": 552.0833333333285,
      "v": 35
    },
    {
      "midi": 73,
      "hit": false,
      "t": 111179.68750000004,
      "d": 98.95833333332848,
      "v": 62
    },
    {
      "midi": 71,
      "hit": false,
      "t": 111567.70833333337,
      "d": 528.6458333333285,
      "v": 52
    },
    {
      "midi": 68,
      "hit": false,
      "t": 111578.12500000004,
      "d": 682.291666666657,
      "v": 45
    },
    {
      "midi": 64,
      "hit": false,
      "t": 111588.54166666672,
      "d": 622.3958333333139,
      "v": 50
    },
    {
      "midi": 40,
      "hit": false,
      "t": 111596.35416666672,
      "d": 1664.0624999999854,
      "v": 31
    },
    {
      "midi": 52,
      "hit": false,
      "t": 111609.37500000004,
      "d": 1494.791666666657,
      "v": 29
    },
    {
      "midi": 59,
      "hit": false,
      "t": 112171.87500000003,
      "d": 54.6875,
      "v": 51
    },
    {
      "midi": 71,
      "hit": false,
      "t": 112539.06250000003,
      "d": 658.8541666666715,
      "v": 61
    },
    {
      "midi": 68,
      "hit": false,
      "t": 112552.08333333336,
      "d": 182.29166666667152,
      "v": 52
    },
    {
      "midi": 64,
      "hit": false,
      "t": 112562.50000000003,
      "d": 460.9375,
      "v": 49
    },
    {
      "midi": 73,
      "hit": false,
      "t": 113114.58333333337,
      "d": 450.52083333334303,
      "v": 81
    },
    {
      "midi": 42,
      "hit": false,
      "t": 113440.1041666667,
      "d": 2039.0625,
      "v": 70
    },
    {
      "midi": 54,
      "hit": false,
      "t": 113442.70833333337,
      "d": 1799.479166666657,
      "v": 62
    },
    {
      "midi": 74,
      "hit": false,
      "t": 113447.9166666667,
      "d": 739.583333333343,
      "v": 91
    },
    {
      "midi": 62,
      "hit": false,
      "t": 113458.33333333337,
      "d": 419.27083333334303,
      "v": 48
    },
    {
      "midi": 69,
      "hit": false,
      "t": 113460.93750000004,
      "d": 578.125,
      "v": 64
    },
    {
      "midi": 62,
      "hit": false,
      "t": 114015.62500000004,
      "d": 67.70833333332848,
      "v": 78
    },
    {
      "midi": 62,
      "hit": false,
      "t": 114231.77083333337,
      "d": 604.1666666666715,
      "v": 72
    },
    {
      "midi": 69,
      "hit": false,
      "t": 114335.93750000004,
      "d": 1335.9374999999854,
      "v": 87
    },
    {
      "midi": 74,
      "hit": false,
      "t": 114536.45833333337,
      "d": 406.25,
      "v": 87
    },
    {
      "midi": 73,
      "hit": false,
      "t": 115213.5416666667,
      "d": 177.08333333332848,
      "v": 73
    },
    {
      "midi": 61,
      "hit": false,
      "t": 115229.1666666667,
      "d": 93.75,
      "v": 47
    },
    {
      "midi": 73,
      "hit": false,
      "t": 115546.87500000003,
      "d": 710.9375,
      "v": 51
    },
    {
      "midi": 61,
      "hit": false,
      "t": 115565.1041666667,
      "d": 533.854166666657,
      "v": 37
    },
    {
      "midi": 68,
      "hit": false,
      "t": 115572.9166666667,
      "d": 1158.854166666657,
      "v": 43
    },
    {
      "midi": 41,
      "hit": false,
      "t": 115578.12500000003,
      "d": 403.6458333333285,
      "v": 34
    },
    {
      "midi": 53,
      "hit": false,
      "t": 115591.14583333336,
      "d": 585.9375,
      "v": 27
    },
    {
      "midi": 73,
      "hit": false,
      "t": 116645.83333333336,
      "d": 466.1458333333285,
      "v": 53
    },
    {
      "midi": 61,
      "hit": false,
      "t": 116656.25000000003,
      "d": 302.0833333333285,
      "v": 46
    },
    {
      "midi": 74,
      "hit": false,
      "t": 117216.14583333336,
      "d": 65.10416666665697,
      "v": 55
    },
    {
      "midi": 62,
      "hit": false,
      "t": 117244.79166666669,
      "d": 54.6875,
      "v": 20
    },
    {
      "midi": 74,
      "hit": false,
      "t": 117546.87500000001,
      "d": 494.79166666665697,
      "v": 57
    },
    {
      "midi": 62,
      "hit": false,
      "t": 117552.08333333334,
      "d": 375,
      "v": 52
    },
    {
      "midi": 42,
      "hit": false,
      "t": 117559.89583333334,
      "d": 286.4583333333285,
      "v": 25
    },
    {
      "midi": 69,
      "hit": false,
      "t": 117562.50000000001,
      "d": 1023.4375,
      "v": 39
    },
    {
      "midi": 54,
      "hit": false,
      "t": 117583.33333333334,
      "d": 1205.7291666666715,
      "v": 25
    },
    {
      "midi": 73,
      "hit": false,
      "t": 118065.10416666667,
      "d": 153.64583333334303,
      "v": 58
    },
    {
      "midi": 61,
      "hit": false,
      "t": 118083.33333333334,
      "d": 169.27083333334303,
      "v": 48
    },
    {
      "midi": 61,
      "hit": false,
      "t": 118369.79166666669,
      "d": 658.854166666657,
      "v": 57
    },
    {
      "midi": 73,
      "hit": false,
      "t": 118390.62500000001,
      "d": 867.1874999999709,
      "v": 73
    },
    {
      "midi": 78,
      "hit": false,
      "t": 118906.25000000001,
      "d": 148.43749999998545,
      "v": 66
    },
    {
      "midi": 66,
      "hit": false,
      "t": 118921.87500000001,
      "d": 127.60416666665697,
      "v": 62
    },
    {
      "midi": 78,
      "hit": false,
      "t": 119223.95833333333,
      "d": 468.75,
      "v": 69
    },
    {
      "midi": 68,
      "hit": false,
      "t": 119223.95833333333,
      "d": 1408.8541666666715,
      "v": 45
    },
    {
      "midi": 66,
      "hit": false,
      "t": 119229.16666666666,
      "d": 497.39583333334303,
      "v": 68
    },
    {
      "midi": 59,
      "hit": false,
      "t": 119260.41666666666,
      "d": 1263.020833333343,
      "v": 39
    },
    {
      "midi": 56,
      "hit": false,
      "t": 119260.41666666666,
      "d": 1343.75,
      "v": 36
    },
    {
      "midi": 71,
      "hit": false,
      "t": 119260.41666666666,
      "d": 1395.833333333343,
      "v": 36
    },
    {
      "midi": 77,
      "hit": false,
      "t": 119760.41666666667,
      "d": 156.25,
      "v": 76
    },
    {
      "midi": 65,
      "hit": false,
      "t": 119776.04166666667,
      "d": 125,
      "v": 75
    },
    {
      "midi": 77,
      "hit": false,
      "t": 120054.6875,
      "d": 567.7083333333285,
      "v": 46
    },
    {
      "midi": 65,
      "hit": false,
      "t": 120067.70833333333,
      "d": 505.2083333333285,
      "v": 76
    },
    {
      "midi": 74,
      "hit": false,
      "t": 120559.89583333333,
      "d": 177.08333333332848,
      "v": 83
    },
    {
      "midi": 62,
      "hit": false,
      "t": 120578.12499999999,
      "d": 114.58333333334303,
      "v": 67
    },
    {
      "midi": 74,
      "hit": false,
      "t": 120872.39583333333,
      "d": 575.520833333343,
      "v": 66
    },
    {
      "midi": 69,
      "hit": false,
      "t": 120885.41666666666,
      "d": 1041.6666666667006,
      "v": 66
    },
    {
      "midi": 54,
      "hit": false,
      "t": 120885.41666666666,
      "d": 1171.875000000029,
      "v": 55
    },
    {
      "midi": 62,
      "hit": false,
      "t": 120890.62499999999,
      "d": 466.1458333333576,
      "v": 63
    },
    {
      "midi": 57,
      "hit": false,
      "t": 120901.04166666666,
      "d": 1033.8541666667006,
      "v": 39
    },
    {
      "midi": 73,
      "hit": false,
      "t": 121338.54166666667,
      "d": 171.875,
      "v": 80
    },
    {
      "midi": 61,
      "hit": false,
      "t": 121338.54166666667,
      "d": 182.29166666667152,
      "v": 71
    },
    {
      "midi": 61,
      "hit": false,
      "t": 121617.18750000001,
      "d": 341.14583333334303,
      "v": 72
    },
    {
      "midi": 73,
      "hit": false,
      "t": 121619.79166666669,
      "d": 458.3333333333285,
      "v": 69
    },
    {
      "midi": 74,
      "hit": false,
      "t": 122091.14583333334,
      "d": 130.20833333334303,
      "v": 81
    },
    {
      "midi": 62,
      "hit": false,
      "t": 122101.56250000001,
      "d": 109.375,
      "v": 81
    },
    {
      "midi": 63,
      "hit": false,
      "t": 122390.62500000001,
      "d": 687.4999999999854,
      "v": 73
    },
    {
      "midi": 75,
      "hit": false,
      "t": 122390.62500000001,
      "d": 739.5833333333139,
      "v": 81
    },
    {
      "midi": 73,
      "hit": false,
      "t": 122395.83333333334,
      "d": 713.541666666657,
      "v": 63
    },
    {
      "midi": 70,
      "hit": false,
      "t": 122401.04166666667,
      "d": 1138.0208333333285,
      "v": 77
    },
    {
      "midi": 55,
      "hit": false,
      "t": 122408.85416666667,
      "d": 705.729166666657,
      "v": 74
    },
    {
      "midi": 43,
      "hit": false,
      "t": 122421.875,
      "d": 583.3333333333285,
      "v": 55
    },
    {
      "midi": 63,
      "hit": false,
      "t": 123354.16666666666,
      "d": 421.87500000001455,
      "v": 90
    },
    {
      "midi": 75,
      "hit": false,
      "t": 123356.77083333333,
      "d": 588.5416666666715,
      "v": 88
    },
    {
      "midi": 76,
      "hit": false,
      "t": 123851.5625,
      "d": 153.64583333332848,
      "v": 103
    },
    {
      "midi": 64,
      "hit": false,
      "t": 123859.375,
      "d": 41.66666666667152,
      "v": 101
    },
    {
      "midi": 64,
      "hit": false,
      "t": 124148.4375,
      "d": 309.89583333334303,
      "v": 90
    },
    {
      "midi": 76,
      "hit": false,
      "t": 124148.4375,
      "d": 473.9583333333285,
      "v": 106
    },
    {
      "midi": 71,
      "hit": false,
      "t": 124151.04166666667,
      "d": 914.0624999999854,
      "v": 78
    },
    {
      "midi": 44,
      "hit": false,
      "t": 124153.64583333334,
      "d": 348.9583333333285,
      "v": 83
    },
    {
      "midi": 56,
      "hit": false,
      "t": 124153.64583333334,
      "d": 1088.541666666657,
      "v": 83
    },
    {
      "midi": 63,
      "hit": false,
      "t": 124601.5625,
      "d": 122.39583333332848,
      "v": 81
    },
    {
      "midi": 75,
      "hit": false,
      "t": 124601.5625,
      "d": 187.5,
      "v": 93
    },
    {
      "midi": 63,
      "hit": false,
      "t": 124895.83333333333,
      "d": 606.770833333343,
      "v": 87
    },
    {
      "midi": 75,
      "hit": false,
      "t": 124895.83333333333,
      "d": 781.25,
      "v": 79
    },
    {
      "midi": 80,
      "hit": false,
      "t": 125328.125,
      "d": 182.29166666667152,
      "v": 97
    },
    {
      "midi": 68,
      "hit": false,
      "t": 125333.33333333333,
      "d": 143.22916666667152,
      "v": 81
    },
    {
      "midi": 58,
      "hit": false,
      "t": 125541.66666666667,
      "d": 3499.999999999971,
      "v": 58
    },
    {
      "midi": 61,
      "hit": false,
      "t": 125565.10416666667,
      "d": 3450.520833333314,
      "v": 65
    },
    {
      "midi": 80,
      "hit": false,
      "t": 125619.79166666667,
      "d": 578.1249999999854,
      "v": 82
    },
    {
      "midi": 73,
      "hit": false,
      "t": 125640.625,
      "d": 3374.9999999999854,
      "v": 66
    },
    {
      "midi": 70,
      "hit": false,
      "t": 125640.625,
      "d": 3492.187499999971,
      "v": 75
    },
    {
      "midi": 68,
      "hit": false,
      "t": 125645.83333333333,
      "d": 500,
      "v": 81
    },
    {
      "midi": 79,
      "hit": false,
      "t": 126203.12499999999,
      "d": 200.52083333332848,
      "v": 88
    },
    {
      "midi": 67,
      "hit": false,
      "t": 126213.54166666666,
      "d": 138.02083333332848,
      "v": 68
    },
    {
      "midi": 79,
      "hit": false,
      "t": 126515.62499999999,
      "d": 539.0625,
      "v": 67
    },
    {
      "midi": 67,
      "hit": false,
      "t": 126526.04166666666,
      "d": 432.29166666665697,
      "v": 75
    },
    {
      "midi": 78,
      "hit": false,
      "t": 126997.39583333331,
      "d": 169.27083333334303,
      "v": 70
    },
    {
      "midi": 66,
      "hit": false,
      "t": 126999.99999999999,
      "d": 135.41666666667152,
      "v": 59
    },
    {
      "midi": 66,
      "hit": false,
      "t": 127304.68749999999,
      "d": 455.72916666665697,
      "v": 55
    },
    {
      "midi": 78,
      "hit": false,
      "t": 127328.12499999999,
      "d": 546.875,
      "v": 57
    },
    {
      "midi": 77,
      "hit": false,
      "t": 127833.33333333331,
      "d": 143.22916666667152,
      "v": 61
    },
    {
      "midi": 65,
      "hit": false,
      "t": 127864.58333333331,
      "d": 109.375,
      "v": 39
    },
    {
      "midi": 65,
      "hit": false,
      "t": 128192.70833333331,
      "d": 328.12500000001455,
      "v": 33
    },
    {
      "midi": 77,
      "hit": false,
      "t": 128203.12499999999,
      "d": 640.625,
      "v": 42
    },
    {
      "midi": 64,
      "hit": false,
      "t": 128859.37499999999,
      "d": 190.10416666665697,
      "v": 36
    },
    {
      "midi": 76,
      "hit": false,
      "t": 128859.37499999999,
      "d": 523.4374999999854,
      "v": 37
    },
    {
      "midi": 77,
      "hit": false,
      "t": 129385.41666666664,
      "d": 549.479166666657,
      "v": 37
    },
    {
      "midi": 72,
      "hit": false,
      "t": 129398.43749999997,
      "d": 494.7916666666715,
      "v": 31
    },
    {
      "midi": 57,
      "hit": false,
      "t": 129406.24999999997,
      "d": 395.8333333333285,
      "v": 31
    },
    {
      "midi": 65,
      "hit": false,
      "t": 129406.24999999997,
      "d": 500,
      "v": 26
    },
    {
      "midi": 60,
      "hit": false,
      "t": 129408.85416666664,
      "d": 481.7708333333285,
      "v": 21
    },
    {
      "midi": 65,
      "hit": false,
      "t": 131408.85416666663,
      "d": 408.85416666665697,
      "v": 37
    },
    {
      "midi": 67,
      "hit": false,
      "t": 132166.66666666663,
      "d": 156.25,
      "v": 38
    },
    {
      "midi": 41,
      "hit": false,
      "t": 132656.24999999994,
      "d": 1604.166666666657,
      "v": 17
    },
    {
      "midi": 65,
      "hit": false,
      "t": 132671.87499999994,
      "d": 502.60416666665697,
      "v": 25
    },
    {
      "midi": 29,
      "hit": false,
      "t": 132674.4791666666,
      "d": 1411.458333333343,
      "v": 26
    },
    {
      "midi": 57,
      "hit": false,
      "t": 132677.08333333326,
      "d": 343.75,
      "v": 23
    },
    {
      "midi": 63,
      "hit": false,
      "t": 132682.2916666666,
      "d": 338.54166666665697,
      "v": 30
    },
    {
      "midi": 53,
      "hit": false,
      "t": 133372.39583333326,
      "d": 62.5,
      "v": 42
    },
    {
      "midi": 63,
      "hit": false,
      "t": 133697.9166666666,
      "d": 520.833333333343,
      "v": 32
    },
    {
      "midi": 65,
      "hit": false,
      "t": 133703.12499999994,
      "d": 354.16666666665697,
      "v": 51
    },
    {
      "midi": 57,
      "hit": false,
      "t": 133710.93749999994,
      "d": 549.479166666657,
      "v": 36
    },
    {
      "midi": 67,
      "hit": false,
      "t": 134348.95833333326,
      "d": 54.6875,
      "v": 59
    },
    {
      "midi": 62,
      "hit": false,
      "t": 134781.2499999999,
      "d": 625,
      "v": 31
    },
    {
      "midi": 65,
      "hit": false,
      "t": 134786.45833333326,
      "d": 742.1874999999709,
      "v": 53
    },
    {
      "midi": 46,
      "hit": false,
      "t": 134786.45833333326,
      "d": 1093.749999999971,
      "v": 26
    },
    {
      "midi": 58,
      "hit": false,
      "t": 134791.6666666666,
      "d": 734.3749999999709,
      "v": 51
    },
    {
      "midi": 34,
      "hit": false,
      "t": 134802.08333333326,
      "d": 981.7708333333139,
      "v": 32
    },
    {
      "midi": 53,
      "hit": false,
      "t": 135372.39583333326,
      "d": 260.41666666662786,
      "v": 47
    },
    {
      "midi": 65,
      "hit": false,
      "t": 135716.14583333323,
      "d": 231.77083333334303,
      "v": 67
    },
    {
      "midi": 62,
      "hit": false,
      "t": 135752.60416666657,
      "d": 98.95833333331393,
      "v": 38
    },
    {
      "midi": 58,
      "hit": false,
      "t": 135757.8124999999,
      "d": 83.33333333331393,
      "v": 37
    },
    {
      "midi": 74,
      "hit": false,
      "t": 136322.91666666657,
      "d": 234.375,
      "v": 83
    },
    {
      "midi": 74,
      "hit": false,
      "t": 136760.41666666657,
      "d": 765.625,
      "v": 61
    },
    {
      "midi": 63,
      "hit": false,
      "t": 136760.41666666657,
      "d": 1924.479166666657,
      "v": 28
    },
    {
      "midi": 55,
      "hit": false,
      "t": 136776.04166666657,
      "d": 2067.708333333314,
      "v": 35
    },
    {
      "midi": 46,
      "hit": false,
      "t": 136776.04166666657,
      "d": 3322.916666666657,
      "v": 44
    },
    {
      "midi": 72,
      "hit": false,
      "t": 137429.6874999999,
      "d": 341.14583333331393,
      "v": 60
    },
    {
      "midi": 70,
      "hit": false,
      "t": 137765.62499999988,
      "d": 630.208333333343,
      "v": 64
    },
    {
      "midi": 67,
      "hit": false,
      "t": 138380.20833333323,
      "d": 536.4583333333139,
      "v": 54
    },
    {
      "midi": 65,
      "hit": false,
      "t": 138822.91666666657,
      "d": 778.6458333333139,
      "v": 40
    },
    {
      "midi": 62,
      "hit": false,
      "t": 138833.33333333323,
      "d": 1221.354166666657,
      "v": 25
    },
    {
      "midi": 53,
      "hit": false,
      "t": 138867.18749999988,
      "d": 1143.229166666657,
      "v": 21
    },
    {
      "midi": 65,
      "hit": false,
      "t": 140010.41666666654,
      "d": 575.520833333343,
      "v": 43
    },
    {
      "midi": 67,
      "hit": false,
      "t": 140614.58333333323,
      "d": 140.625,
      "v": 39
    },
    {
      "midi": 65,
      "hit": false,
      "t": 141072.91666666657,
      "d": 544.2708333333139,
      "v": 45
    },
    {
      "midi": 29,
      "hit": false,
      "t": 141072.91666666657,
      "d": 1481.770833333314,
      "v": 26
    },
    {
      "midi": 63,
      "hit": false,
      "t": 141083.33333333323,
      "d": 760.416666666657,
      "v": 29
    },
    {
      "midi": 57,
      "hit": false,
      "t": 141091.14583333323,
      "d": 346.35416666665697,
      "v": 25
    },
    {
      "midi": 41,
      "hit": false,
      "t": 141106.77083333323,
      "d": 1497.395833333314,
      "v": 12
    },
    {
      "midi": 53,
      "hit": false,
      "t": 141664.06249999988,
      "d": 78.125,
      "v": 36
    },
    {
      "midi": 65,
      "hit": false,
      "t": 141997.39583333323,
      "d": 518.229166666657,
      "v": 58
    },
    {
      "midi": 63,
      "hit": false,
      "t": 141999.99999999988,
      "d": 695.3124999999709,
      "v": 54
    },
    {
      "midi": 57,
      "hit": false,
      "t": 142026.04166666654,
      "d": 421.875,
      "v": 29
    },
    {
      "midi": 67,
      "hit": false,
      "t": 142565.10416666654,
      "d": 80.72916666665697,
      "v": 60
    },
    {
      "midi": 58,
      "hit": false,
      "t": 142942.7083333332,
      "d": 770.833333333343,
      "v": 44
    },
    {
      "midi": 65,
      "hit": false,
      "t": 142942.7083333332,
      "d": 789.0625,
      "v": 50
    },
    {
      "midi": 46,
      "hit": false,
      "t": 142947.91666666654,
      "d": 1348.958333333343,
      "v": 49
    },
    {
      "midi": 34,
      "hit": false,
      "t": 142953.12499999988,
      "d": 1268.229166666657,
      "v": 44
    },
    {
      "midi": 62,
      "hit": false,
      "t": 142973.95833333323,
      "d": 723.9583333333139,
      "v": 21
    },
    {
      "midi": 53,
      "hit": false,
      "t": 143578.12499999988,
      "d": 333.33333333331393,
      "v": 46
    },
    {
      "midi": 65,
      "hit": false,
      "t": 143979.16666666654,
      "d": 276.04166666668607,
      "v": 54
    },
    {
      "midi": 58,
      "hit": false,
      "t": 143984.37499999988,
      "d": 190.10416666665697,
      "v": 45
    },
    {
      "midi": 62,
      "hit": false,
      "t": 144026.04166666654,
      "d": 200.52083333334303,
      "v": 33
    },
    {
      "midi": 70,
      "hit": false,
      "t": 144520.83333333323,
      "d": 135.41666666665697,
      "v": 85
    },
    {
      "midi": 70,
      "hit": false,
      "t": 144911.45833333323,
      "d": 515.6250000000291,
      "v": 57
    },
    {
      "midi": 58,
      "hit": false,
      "t": 144911.45833333323,
      "d": 1572.916666666686,
      "v": 30
    },
    {
      "midi": 43,
      "hit": false,
      "t": 144919.27083333323,
      "d": 1572.916666666686,
      "v": 22
    },
    {
      "midi": 55,
      "hit": false,
      "t": 144921.87499999988,
      "d": 1414.062500000029,
      "v": 23
    },
    {
      "midi": 62,
      "hit": false,
      "t": 144927.08333333323,
      "d": 1229.166666666686,
      "v": 31
    },
    {
      "midi": 50,
      "hit": false,
      "t": 144932.29166666657,
      "d": 1416.666666666686,
      "v": 31
    },
    {
      "midi": 69,
      "hit": false,
      "t": 145544.27083333326,
      "d": 432.29166666665697,
      "v": 59
    },
    {
      "midi": 67,
      "hit": false,
      "t": 145929.6874999999,
      "d": 515.625,
      "v": 46
    },
    {
      "midi": 62,
      "hit": false,
      "t": 146645.83333333326,
      "d": 1330.729166666657,
      "v": 39
    },
    {
      "midi": 66,
      "hit": false,
      "t": 147166.6666666666,
      "d": 877.604166666657,
      "v": 23
    },
    {
      "midi": 69,
      "hit": false,
      "t": 147169.27083333326,
      "d": 890.625,
      "v": 26
    },
    {
      "midi": 57,
      "hit": false,
      "t": 147182.2916666666,
      "d": 749.9999999999709,
      "v": 22
    },
    {
      "midi": 50,
      "hit": false,
      "t": 147200.52083333326,
      "d": 1388.020833333314,
      "v": 19
    },
    {
      "midi": 38,
      "hit": false,
      "t": 147234.3749999999,
      "d": 1549.479166666657,
      "v": 23
    },
    {
      "midi": 69,
      "hit": false,
      "t": 148148.4374999999,
      "d": 695.3125,
      "v": 69
    },
    {
      "midi": 71,
      "hit": false,
      "t": 148739.58333333323,
      "d": 145.83333333334303,
      "v": 64
    },
    {
      "midi": 61,
      "hit": false,
      "t": 149078.1249999999,
      "d": 552.083333333343,
      "v": 48
    },
    {
      "midi": 69,
      "hit": false,
      "t": 149078.1249999999,
      "d": 557.2916666666861,
      "v": 72
    },
    {
      "midi": 67,
      "hit": false,
      "t": 149078.1249999999,
      "d": 611.9791666666861,
      "v": 55
    },
    {
      "midi": 33,
      "hit": false,
      "t": 149083.33333333326,
      "d": 1252.604166666657,
      "v": 41
    },
    {
      "midi": 45,
      "hit": false,
      "t": 149085.9374999999,
      "d": 1351.5625,
      "v": 37
    },
    {
      "midi": 57,
      "hit": false,
      "t": 149640.62499999994,
      "d": 41.666666666656965,
      "v": 76
    },
    {
      "midi": 69,
      "hit": false,
      "t": 149958.33333333326,
      "d": 528.6458333333139,
      "v": 91
    },
    {
      "midi": 61,
      "hit": false,
      "t": 149973.95833333326,
      "d": 411.45833333331393,
      "v": 48
    },
    {
      "midi": 67,
      "hit": false,
      "t": 149981.77083333326,
      "d": 575.5208333333139,
      "v": 66
    },
    {
      "midi": 71,
      "hit": false,
      "t": 150492.1874999999,
      "d": 127.60416666665697,
      "v": 84
    },
    {
      "midi": 69,
      "hit": false,
      "t": 150809.89583333323,
      "d": 536.458333333343,
      "v": 90
    },
    {
      "midi": 38,
      "hit": false,
      "t": 150809.89583333323,
      "d": 1054.6875,
      "v": 49
    },
    {
      "midi": 50,
      "hit": false,
      "t": 150815.10416666657,
      "d": 632.8124999999709,
      "v": 51
    },
    {
      "midi": 62,
      "hit": false,
      "t": 150822.91666666657,
      "d": 591.1458333333139,
      "v": 64
    },
    {
      "midi": 66,
      "hit": false,
      "t": 150822.91666666657,
      "d": 648.4374999999709,
      "v": 65
    },
    {
      "midi": 57,
      "hit": false,
      "t": 151348.95833333323,
      "d": 302.08333333331393,
      "v": 79
    },
    {
      "midi": 69,
      "hit": false,
      "t": 151695.31249999988,
      "d": 169.27083333334303,
      "v": 92
    },
    {
      "midi": 66,
      "hit": false,
      "t": 151723.95833333323,
      "d": 158.85416666665697,
      "v": 50
    },
    {
      "midi": 62,
      "hit": false,
      "t": 151729.16666666657,
      "d": 62.5,
      "v": 51
    },
    {
      "midi": 78,
      "hit": false,
      "t": 152348.95833333323,
      "d": 265.625,
      "v": 97
    },
    {
      "midi": 78,
      "hit": false,
      "t": 152708.33333333323,
      "d": 817.7083333333139,
      "v": 72
    },
    {
      "midi": 59,
      "hit": false,
      "t": 152742.18749999988,
      "d": 1934.895833333343,
      "v": 33
    },
    {
      "midi": 67,
      "hit": false,
      "t": 152744.79166666654,
      "d": 2067.708333333343,
      "v": 56
    },
    {
      "midi": 50,
      "hit": false,
      "t": 152747.3958333332,
      "d": 3338.541666666686,
      "v": 39
    },
    {
      "midi": 76,
      "hit": false,
      "t": 153403.6458333332,
      "d": 356.77083333334303,
      "v": 73
    },
    {
      "midi": 74,
      "hit": false,
      "t": 153739.5833333332,
      "d": 744.7916666666861,
      "v": 56
    },
    {
      "midi": 71,
      "hit": false,
      "t": 154333.33333333323,
      "d": 377.60416666665697,
      "v": 41
    },
    {
      "midi": 69,
      "hit": false,
      "t": 154697.91666666657,
      "d": 874.9999999999709,
      "v": 47
    },
    {
      "midi": 66,
      "hit": false,
      "t": 154708.33333333323,
      "d": 1427.083333333314,
      "v": 25
    },
    {
      "midi": 57,
      "hit": false,
      "t": 154731.77083333323,
      "d": 1427.083333333314,
      "v": 29
    },
    {
      "midi": 69,
      "hit": false,
      "t": 155851.56249999988,
      "d": 510.41666666665697,
      "v": 43
    },
    {
      "midi": 71,
      "hit": false,
      "t": 156401.04166666654,
      "d": 52.083333333343035,
      "v": 34
    },
    {
      "midi": 45,
      "hit": false,
      "t": 156770.83333333323,
      "d": 1463.541666666657,
      "v": 24
    },
    {
      "midi": 69,
      "hit": false,
      "t": 156773.43749999988,
      "d": 679.6875000000291,
      "v": 35
    },
    {
      "midi": 61,
      "hit": false,
      "t": 156778.64583333323,
      "d": 630.2083333333721,
      "v": 40
    },
    {
      "midi": 67,
      "hit": false,
      "t": 156783.85416666657,
      "d": 640.6250000000291,
      "v": 34
    },
    {
      "midi": 33,
      "hit": false,
      "t": 156835.9374999999,
      "d": 1374.999999999971,
      "v": 27
    },
    {
      "midi": 57,
      "hit": false,
      "t": 157356.77083333326,
      "d": 70.3125,
      "v": 49
    },
    {
      "midi": 69,
      "hit": false,
      "t": 157721.35416666657,
      "d": 440.10416666665697,
      "v": 63
    },
    {
      "midi": 61,
      "hit": false,
      "t": 157729.16666666657,
      "d": 281.25,
      "v": 41
    },
    {
      "midi": 67,
      "hit": false,
      "t": 157739.58333333323,
      "d": 395.83333333334303,
      "v": 52
    },
    {
      "midi": 71,
      "hit": false,
      "t": 158249.99999999988,
      "d": 46.875,
      "v": 57
    },
    {
      "midi": 69,
      "hit": false,
      "t": 158583.33333333323,
      "d": 716.145833333343,
      "v": 67
    },
    {
      "midi": 62,
      "hit": false,
      "t": 158585.93749999988,
      "d": 664.0625000000291,
      "v": 51
    },
    {
      "midi": 66,
      "hit": false,
      "t": 158585.93749999988,
      "d": 710.9375000000291,
      "v": 47
    },
    {
      "midi": 50,
      "hit": false,
      "t": 158598.95833333323,
      "d": 1510.416666666686,
      "v": 52
    },
    {
      "midi": 38,
      "hit": false,
      "t": 158601.56249999988,
      "d": 1523.437500000029,
      "v": 53
    },
    {
      "midi": 57,
      "hit": false,
      "t": 159127.60416666657,
      "d": 125,
      "v": 68
    },
    {
      "midi": 69,
      "hit": false,
      "t": 159445.3124999999,
      "d": 632.8125,
      "v": 85
    },
    {
      "midi": 62,
      "hit": false,
      "t": 159447.91666666657,
      "d": 687.5,
      "v": 49
    },
    {
      "midi": 66,
      "hit": false,
      "t": 159458.33333333323,
      "d": 380.20833333334303,
      "v": 69
    },
    {
      "midi": 71,
      "hit": false,
      "t": 159976.5624999999,
      "d": 513.020833333343,
      "v": 81
    },
    {
      "midi": 60,
      "hit": false,
      "t": 160315.10416666657,
      "d": 468.7500000000291,
      "v": 60
    },
    {
      "midi": 72,
      "hit": false,
      "t": 160322.91666666657,
      "d": 817.7083333333721,
      "v": 89
    },
    {
      "midi": 40,
      "hit": false,
      "t": 160322.91666666657,
      "d": 2729.166666666657,
      "v": 75
    },
    {
      "midi": 67,
      "hit": false,
      "t": 160328.1249999999,
      "d": 718.7500000000291,
      "v": 61
    },
    {
      "midi": 52,
      "hit": false,
      "t": 160328.1249999999,
      "d": 2718.749999999971,
      "v": 68
    },
    {
      "midi": 60,
      "hit": false,
      "t": 160953.12499999994,
      "d": 91.14583333334303,
      "v": 77
    },
    {
      "midi": 60,
      "hit": false,
      "t": 161328.12499999994,
      "d": 708.3333333333139,
      "v": 75
    },
    {
      "midi": 67,
      "hit": false,
      "t": 161494.7916666666,
      "d": 838.541666666657,
      "v": 82
    },
    {
      "midi": 72,
      "hit": false,
      "t": 161822.9166666666,
      "d": 763.0208333333139,
      "v": 90
    },
    {
      "midi": 71,
      "hit": false,
      "t": 162721.35416666657,
      "d": 299.47916666665697,
      "v": 76
    },
    {
      "midi": 59,
      "hit": false,
      "t": 162747.39583333323,
      "d": 273.4375,
      "v": 41
    },
    {
      "midi": 71,
      "hit": false,
      "t": 163260.41666666657,
      "d": 1226.5625,
      "v": 64
    },
    {
      "midi": 38,
      "hit": false,
      "t": 163273.4374999999,
      "d": 591.1458333333139,
      "v": 59
    },
    {
      "midi": 59,
      "hit": false,
      "t": 163273.4374999999,
      "d": 747.3958333333139,
      "v": 38
    },
    {
      "midi": 67,
      "hit": false,
      "t": 163283.85416666657,
      "d": 843.75,
      "v": 43
    },
    {
      "midi": 50,
      "hit": false,
      "t": 163869.79166666657,
      "d": 1257.8125,
      "v": 56
    },
    {
      "midi": 59,
      "hit": false,
      "t": 164354.16666666657,
      "d": 395.83333333334303,
      "v": 54
    },
    {
      "midi": 69,
      "hit": false,
      "t": 164752.60416666657,
      "d": 419.27083333334303,
      "v": 77
    },
    {
      "midi": 66,
      "hit": false,
      "t": 164760.41666666657,
      "d": 317.70833333334303,
      "v": 50
    },
    {
      "midi": 60,
      "hit": false,
      "t": 164781.2499999999,
      "d": 429.6875,
      "v": 54
    },
    {
      "midi": 71,
      "hit": false,
      "t": 165174.47916666657,
      "d": 195.3125000000291,
      "v": 69
    },
    {
      "midi": 67,
      "hit": false,
      "t": 165187.4999999999,
      "d": 283.85416666665697,
      "v": 63
    },
    {
      "midi": 59,
      "hit": false,
      "t": 165216.14583333326,
      "d": 356.77083333331393,
      "v": 49
    },
    {
      "midi": 72,
      "hit": false,
      "t": 165403.64583333326,
      "d": 153.64583333331393,
      "v": 89
    },
    {
      "midi": 69,
      "hit": false,
      "t": 165414.0624999999,
      "d": 85.9375,
      "v": 64
    },
    {
      "midi": 70,
      "hit": false,
      "t": 165604.16666666657,
      "d": 62.5,
      "v": 84
    },
    {
      "midi": 73,
      "hit": false,
      "t": 165604.16666666657,
      "d": 127.60416666665697,
      "v": 79
    },
    {
      "midi": 50,
      "hit": false,
      "t": 165630.20833333323,
      "d": 140.625,
      "v": 53
    },
    {
      "midi": 72,
      "hit": false,
      "t": 165828.12499999988,
      "d": 250,
      "v": 79
    },
    {
      "midi": 76,
      "hit": false,
      "t": 165828.12499999988,
      "d": 437.5,
      "v": 89
    },
    {
      "midi": 74,
      "hit": false,
      "t": 166135.41666666654,
      "d": 434.89583333334303,
      "v": 79
    },
    {
      "midi": 71,
      "hit": false,
      "t": 166135.41666666654,
      "d": 489.58333333334303,
      "v": 54
    },
    {
      "midi": 38,
      "hit": false,
      "t": 166158.85416666654,
      "d": 427.08333333334303,
      "v": 48
    },
    {
      "midi": 50,
      "hit": false,
      "t": 166619.79166666654,
      "d": 1164.0625,
      "v": 59
    },
    {
      "midi": 59,
      "hit": false,
      "t": 167041.66666666654,
      "d": 364.58333333334303,
      "v": 55
    },
    {
      "midi": 69,
      "hit": false,
      "t": 167583.33333333323,
      "d": 320.3124999999709,
      "v": 76
    },
    {
      "midi": 66,
      "hit": false,
      "t": 167585.93749999988,
      "d": 294.27083333331393,
      "v": 49
    },
    {
      "midi": 60,
      "hit": false,
      "t": 167591.14583333323,
      "d": 416.66666666662786,
      "v": 57
    },
    {
      "midi": 67,
      "hit": false,
      "t": 167953.12499999985,
      "d": 49.479166666656965,
      "v": 63
    },
    {
      "midi": 71,
      "hit": false,
      "t": 167968.74999999985,
      "d": 85.9375,
      "v": 61
    },
    {
      "midi": 59,
      "hit": false,
      "t": 168015.62499999985,
      "d": 307.29166666665697,
      "v": 58
    },
    {
      "midi": 72,
      "hit": false,
      "t": 168166.6666666665,
      "d": 161.45833333334303,
      "v": 89
    },
    {
      "midi": 69,
      "hit": false,
      "t": 168182.2916666665,
      "d": 75.52083333334303,
      "v": 71
    },
    {
      "midi": 73,
      "hit": false,
      "t": 168354.1666666665,
      "d": 130.20833333331393,
      "v": 81
    },
    {
      "midi": 70,
      "hit": false,
      "t": 168364.58333333317,
      "d": 106.77083333331393,
      "v": 84
    },
    {
      "midi": 50,
      "hit": false,
      "t": 168398.43749999983,
      "d": 78.125,
      "v": 61
    },
    {
      "midi": 76,
      "hit": false,
      "t": 168565.10416666648,
      "d": 200.52083333334303,
      "v": 92
    },
    {
      "midi": 72,
      "hit": false,
      "t": 168570.31249999983,
      "d": 104.16666666665697,
      "v": 87
    },
    {
      "midi": 71,
      "hit": false,
      "t": 168802.08333333317,
      "d": 36.45833333331393,
      "v": 78
    },
    {
      "midi": 74,
      "hit": false,
      "t": 168804.68749999983,
      "d": 52.08333333331393,
      "v": 87
    },
    {
      "midi": 38,
      "hit": false,
      "t": 168820.31249999983,
      "d": 320.3124999999709,
      "v": 65
    },
    {
      "midi": 84,
      "hit": false,
      "t": 169023.4374999998,
      "d": 31.25,
      "v": 98
    },
    {
      "midi": 76,
      "hit": false,
      "t": 169039.0624999998,
      "d": 49.479166666656965,
      "v": 80
    },
    {
      "midi": 83,
      "hit": false,
      "t": 169213.54166666645,
      "d": 101.5624999999709,
      "v": 74
    },
    {
      "midi": 74,
      "hit": false,
      "t": 169216.1458333331,
      "d": 145.83333333331393,
      "v": 88
    },
    {
      "midi": 50,
      "hit": false,
      "t": 169234.37499999977,
      "d": 992.1875,
      "v": 74
    },
    {
      "midi": 78,
      "hit": false,
      "t": 169395.83333333308,
      "d": 125,
      "v": 82
    },
    {
      "midi": 72,
      "hit": false,
      "t": 169401.04166666642,
      "d": 101.5625,
      "v": 79
    },
    {
      "midi": 79,
      "hit": false,
      "t": 169588.54166666642,
      "d": 182.29166666665697,
      "v": 85
    },
    {
      "midi": 71,
      "hit": false,
      "t": 169591.14583333308,
      "d": 96.35416666665697,
      "v": 68
    },
    {
      "midi": 59,
      "hit": false,
      "t": 169606.77083333308,
      "d": 369.79166666668607,
      "v": 67
    },
    {
      "midi": 72,
      "hit": false,
      "t": 169770.83333333308,
      "d": 85.9375,
      "v": 90
    },
    {
      "midi": 76,
      "hit": false,
      "t": 169791.66666666642,
      "d": 171.875,
      "v": 57
    },
    {
      "midi": 74,
      "hit": false,
      "t": 169968.74999999977,
      "d": 210.9375,
      "v": 87
    },
    {
      "midi": 71,
      "hit": false,
      "t": 169971.35416666642,
      "d": 145.83333333334303,
      "v": 65
    },
    {
      "midi": 62,
      "hit": false,
      "t": 169971.35416666642,
      "d": 330.72916666668607,
      "v": 74
    },
    {
      "midi": 77,
      "hit": false,
      "t": 170156.24999999977,
      "d": 46.875,
      "v": 83
    },
    {
      "midi": 69,
      "hit": false,
      "t": 170164.06249999977,
      "d": 117.1875,
      "v": 78
    },
    {
      "midi": 76,
      "hit": false,
      "t": 170354.16666666645,
      "d": 65.10416666665697,
      "v": 74
    },
    {
      "midi": 68,
      "hit": false,
      "t": 170372.3958333331,
      "d": 119.79166666665697,
      "v": 55
    },
    {
      "midi": 59,
      "hit": false,
      "t": 170372.3958333331,
      "d": 330.72916666665697,
      "v": 56
    },
    {
      "midi": 65,
      "hit": false,
      "t": 170546.87499999977,
      "d": 78.125,
      "v": 78
    },
    {
      "midi": 69,
      "hit": false,
      "t": 170562.49999999977,
      "d": 223.95833333334303,
      "v": 80
    },
    {
      "midi": 64,
      "hit": false,
      "t": 170770.8333333331,
      "d": 197.91666666668607,
      "v": 64
    },
    {
      "midi": 71,
      "hit": false,
      "t": 170770.8333333331,
      "d": 197.91666666668607,
      "v": 64
    },
    {
      "midi": 50,
      "hit": false,
      "t": 170799.47916666645,
      "d": 171.875,
      "v": 58
    },
    {
      "midi": 62,
      "hit": false,
      "t": 171007.8124999998,
      "d": 294.27083333334303,
      "v": 69
    },
    {
      "midi": 72,
      "hit": false,
      "t": 171007.8124999998,
      "d": 294.27083333334303,
      "v": 69
    },
    {
      "midi": 38,
      "hit": false,
      "t": 171289.0624999998,
      "d": 255.20833333334303,
      "v": 51
    },
    {
      "midi": 60,
      "hit": false,
      "t": 171338.54166666648,
      "d": 270.83333333331393,
      "v": 57
    },
    {
      "midi": 64,
      "hit": false,
      "t": 171341.14583333314,
      "d": 885.416666666657,
      "v": 73
    },
    {
      "midi": 50,
      "hit": false,
      "t": 171838.54166666645,
      "d": 583.333333333343,
      "v": 64
    },
    {
      "midi": 60,
      "hit": false,
      "t": 172270.83333333314,
      "d": 377.60416666662786,
      "v": 74
    },
    {
      "midi": 72,
      "hit": false,
      "t": 172635.41666666645,
      "d": 351.5624999999709,
      "v": 100
    },
    {
      "midi": 69,
      "hit": false,
      "t": 172645.8333333331,
      "d": 182.29166666665697,
      "v": 78
    },
    {
      "midi": 64,
      "hit": false,
      "t": 172664.06249999977,
      "d": 304.6875,
      "v": 70
    },
    {
      "midi": 68,
      "hit": false,
      "t": 173010.41666666642,
      "d": 75.52083333334303,
      "v": 66
    },
    {
      "midi": 71,
      "hit": false,
      "t": 173010.41666666642,
      "d": 192.70833333334303,
      "v": 78
    },
    {
      "midi": 62,
      "hit": false,
      "t": 173026.04166666642,
      "d": 296.8750000000291,
      "v": 60
    },
    {
      "midi": 72,
      "hit": false,
      "t": 173208.3333333331,
      "d": 174.47916666668607,
      "v": 96
    },
    {
      "midi": 69,
      "hit": false,
      "t": 173213.54166666645,
      "d": 83.33333333334303,
      "v": 78
    },
    {
      "midi": 74,
      "hit": false,
      "t": 173398.4374999998,
      "d": 65.10416666665697,
      "v": 95
    },
    {
      "midi": 71,
      "hit": false,
      "t": 173401.04166666645,
      "d": 46.875,
      "v": 65
    },
    {
      "midi": 50,
      "hit": false,
      "t": 173406.2499999998,
      "d": 114.58333333331393,
      "v": 71
    },
    {
      "midi": 77,
      "hit": false,
      "t": 173601.56249999977,
      "d": 296.875,
      "v": 100
    },
    {
      "midi": 68,
      "hit": false,
      "t": 173604.16666666642,
      "d": 52.083333333343035,
      "v": 76
    },
    {
      "midi": 38,
      "hit": false,
      "t": 173804.68749999977,
      "d": 450.52083333334303,
      "v": 87
    },
    {
      "midi": 76,
      "hit": false,
      "t": 173872.3958333331,
      "d": 372.39583333334303,
      "v": 89
    },
    {
      "midi": 72,
      "hit": false,
      "t": 173880.2083333331,
      "d": 80.72916666665697,
      "v": 74
    },
    {
      "midi": 72,
      "hit": false,
      "t": 174072.91666666645,
      "d": 156.25,
      "v": 2
    },
    {
      "midi": 50,
      "hit": false,
      "t": 174252.60416666645,
      "d": 83.33333333331393,
      "v": 79
    },
    {
      "midi": 60,
      "hit": false,
      "t": 174611.97916666642,
      "d": 375,
      "v": 77
    },
    {
      "midi": 72,
      "hit": false,
      "t": 175020.83333333308,
      "d": 312.5,
      "v": 97
    },
    {
      "midi": 69,
      "hit": false,
      "t": 175023.43749999974,
      "d": 195.3125,
      "v": 75
    },
    {
      "midi": 64,
      "hit": false,
      "t": 175031.24999999974,
      "d": 375,
      "v": 62
    },
    {
      "midi": 68,
      "hit": false,
      "t": 175447.9166666664,
      "d": 59.895833333343035,
      "v": 73
    },
    {
      "midi": 71,
      "hit": false,
      "t": 175453.12499999974,
      "d": 208.33333333334303,
      "v": 81
    },
    {
      "midi": 62,
      "hit": false,
      "t": 175458.33333333308,
      "d": 317.70833333334303,
      "v": 56
    },
    {
      "midi": 72,
      "hit": false,
      "t": 175669.27083333308,
      "d": 135.41666666668607,
      "v": 94
    },
    {
      "midi": 69,
      "hit": false,
      "t": 175677.08333333308,
      "d": 62.5,
      "v": 79
    },
    {
      "midi": 74,
      "hit": false,
      "t": 175867.18749999977,
      "d": 44.270833333343035,
      "v": 93
    },
    {
      "midi": 50,
      "hit": false,
      "t": 175869.79166666642,
      "d": 54.6875,
      "v": 71
    },
    {
      "midi": 71,
      "hit": false,
      "t": 175882.81249999977,
      "d": 39.0625,
      "v": 57
    },
    {
      "midi": 77,
      "hit": false,
      "t": 176067.70833333308,
      "d": 197.91666666668607,
      "v": 100
    },
    {
      "midi": 68,
      "hit": false,
      "t": 176072.91666666642,
      "d": 44.270833333343035,
      "v": 74
    },
    {
      "midi": 38,
      "hit": false,
      "t": 176270.8333333331,
      "d": 114.58333333334303,
      "v": 68
    },
    {
      "midi": 72,
      "hit": false,
      "t": 176299.47916666645,
      "d": 36.458333333343035,
      "v": 92
    },
    {
      "midi": 76,
      "hit": false,
      "t": 176304.6874999998,
      "d": 62.5,
      "v": 94
    },
    {
      "midi": 84,
      "hit": false,
      "t": 176502.60416666645,
      "d": 31.25,
      "v": 102
    },
    {
      "midi": 76,
      "hit": false,
      "t": 176510.41666666645,
      "d": 52.083333333343035,
      "v": 83
    },
    {
      "midi": 83,
      "hit": false,
      "t": 176674.47916666645,
      "d": 101.5625,
      "v": 80
    },
    {
      "midi": 74,
      "hit": false,
      "t": 176684.8958333331,
      "d": 106.77083333334303,
      "v": 91
    },
    {
      "midi": 50,
      "hit": false,
      "t": 176708.3333333331,
      "d": 427.08333333337214,
      "v": 75
    },
    {
      "midi": 80,
      "hit": false,
      "t": 176851.5624999998,
      "d": 148.4375,
      "v": 88
    },
    {
      "midi": 71,
      "hit": false,
      "t": 176861.97916666645,
      "d": 85.9375,
      "v": 74
    },
    {
      "midi": 81,
      "hit": false,
      "t": 177041.66666666645,
      "d": 171.8750000000291,
      "v": 91
    },
    {
      "midi": 72,
      "hit": false,
      "t": 177062.4999999998,
      "d": 67.70833333334303,
      "v": 75
    },
    {
      "midi": 64,
      "hit": false,
      "t": 177083.33333333314,
      "d": 302.08333333334303,
      "v": 70
    },
    {
      "midi": 77,
      "hit": false,
      "t": 177247.39583333314,
      "d": 184.89583333334303,
      "v": 91
    },
    {
      "midi": 74,
      "hit": false,
      "t": 177252.60416666648,
      "d": 62.5,
      "v": 84
    },
    {
      "midi": 76,
      "hit": false,
      "t": 177460.93749999983,
      "d": 122.39583333331393,
      "v": 84
    },
    {
      "midi": 72,
      "hit": false,
      "t": 177463.54166666648,
      "d": 78.125,
      "v": 67
    },
    {
      "midi": 60,
      "hit": false,
      "t": 177466.14583333314,
      "d": 385.41666666668607,
      "v": 56
    },
    {
      "midi": 79,
      "hit": false,
      "t": 177666.66666666648,
      "d": 52.083333333343035,
      "v": 84
    },
    {
      "midi": 71,
      "hit": false,
      "t": 177687.49999999983,
      "d": 52.083333333343035,
      "v": 84
    },
    {
      "midi": 78,
      "hit": false,
      "t": 177890.62499999983,
      "d": 57.291666666656965,
      "v": 69
    },
    {
      "midi": 69,
      "hit": false,
      "t": 177898.43749999983,
      "d": 54.6875,
      "v": 67
    },
    {
      "midi": 50,
      "hit": false,
      "t": 177924.47916666648,
      "d": 158.85416666668607,
      "v": 52
    },
    {
      "midi": 71,
      "hit": false,
      "t": 178119.7916666665,
      "d": 145.83333333331393,
      "v": 61
    },
    {
      "midi": 67,
      "hit": false,
      "t": 178130.20833333317,
      "d": 114.58333333331393,
      "v": 58
    },
    {
      "midi": 50,
      "hit": false,
      "t": 178140.62499999983,
      "d": 93.75,
      "v": 23
    },
    {
      "midi": 72,
      "hit": false,
      "t": 178335.93749999983,
      "d": 268.22916666665697,
      "v": 71
    },
    {
      "midi": 66,
      "hit": false,
      "t": 178338.54166666648,
      "d": 80.72916666668607,
      "v": 47
    },
    {
      "midi": 38,
      "hit": false,
      "t": 178359.37499999983,
      "d": 166.66666666668607,
      "v": 45
    },
    {
      "midi": 62,
      "hit": false,
      "t": 178598.95833333317,
      "d": 234.3749999999709,
      "v": 46
    },
    {
      "midi": 74,
      "hit": false,
      "t": 178601.56249999983,
      "d": 432.29166666662786,
      "v": 69
    },
    {
      "midi": 43,
      "hit": false,
      "t": 178958.33333333314,
      "d": 627.6041666666279,
      "v": 42
    },
    {
      "midi": 71,
      "hit": false,
      "t": 178958.33333333314,
      "d": 645.8333333333139,
      "v": 56
    },
    {
      "midi": 67,
      "hit": false,
      "t": 178968.7499999998,
      "d": 742.1875,
      "v": 54
    },
    {
      "midi": 50,
      "hit": false,
      "t": 179458.3333333331,
      "d": 283.85416666668607,
      "v": 57
    },
    {
      "midi": 62,
      "hit": false,
      "t": 179947.91666666645,
      "d": 408.85416666665697,
      "v": 57
    },
    {
      "midi": 61,
      "hit": false,
      "t": 180356.7708333331,
      "d": 424.47916666665697,
      "v": 51
    },
    {
      "midi": 69,
      "hit": false,
      "t": 180687.49999999977,
      "d": 52.083333333343035,
      "v": 54
    },
    {
      "midi": 64,
      "hit": false,
      "t": 180747.3958333331,
      "d": 291.66666666665697,
      "v": 48
    },
    {
      "midi": 60,
      "hit": false,
      "t": 180755.2083333331,
      "d": 541.6666666666861,
      "v": 49
    },
    {
      "midi": 67,
      "hit": false,
      "t": 180765.62499999977,
      "d": 250,
      "v": 82
    },
    {
      "midi": 66,
      "hit": false,
      "t": 181020.8333333331,
      "d": 195.3125,
      "v": 75
    },
    {
      "midi": 63,
      "hit": false,
      "t": 181252.60416666645,
      "d": 213.54166666668607,
      "v": 46
    },
    {
      "midi": 67,
      "hit": false,
      "t": 181255.2083333331,
      "d": 218.7500000000291,
      "v": 70
    },
    {
      "midi": 53,
      "hit": false,
      "t": 181276.04166666645,
      "d": 273.4375,
      "v": 44
    },
    {
      "midi": 69,
      "hit": false,
      "t": 181471.35416666648,
      "d": 281.2499999999709,
      "v": 69
    },
    {
      "midi": 65,
      "hit": false,
      "t": 181492.1874999998,
      "d": 75.52083333331393,
      "v": 51
    },
    {
      "midi": 46,
      "hit": false,
      "t": 181703.12499999977,
      "d": 429.6875000000291,
      "v": 60
    },
    {
      "midi": 70,
      "hit": false,
      "t": 181716.1458333331,
      "d": 1166.666666666686,
      "v": 59
    },
    {
      "midi": 62,
      "hit": false,
      "t": 181736.97916666645,
      "d": 367.1875,
      "v": 31
    },
    {
      "midi": 53,
      "hit": false,
      "t": 182164.0624999998,
      "d": 481.77083333334303,
      "v": 54
    },
    {
      "midi": 65,
      "hit": false,
      "t": 182598.95833333314,
      "d": 434.89583333331393,
      "v": 63
    },
    {
      "midi": 64,
      "hit": false,
      "t": 183033.85416666645,
      "d": 367.1874999999709,
      "v": 36
    },
    {
      "midi": 70,
      "hit": false,
      "t": 183322.91666666642,
      "d": 62.5,
      "v": 55
    },
    {
      "midi": 72,
      "hit": false,
      "t": 183401.04166666642,
      "d": 57.291666666656965,
      "v": 61
    },
    {
      "midi": 70,
      "hit": false,
      "t": 183460.93749999974,
      "d": 247.39583333334303,
      "v": 77
    },
    {
      "midi": 63,
      "hit": false,
      "t": 183463.5416666664,
      "d": 507.8125,
      "v": 39
    },
    {
      "midi": 67,
      "hit": false,
      "t": 183486.9791666664,
      "d": 250.0000000000291,
      "v": 42
    },
    {
      "midi": 69,
      "hit": false,
      "t": 183713.54166666642,
      "d": 213.54166666665697,
      "v": 58
    },
    {
      "midi": 70,
      "hit": false,
      "t": 183953.12499999974,
      "d": 273.4375,
      "v": 73
    },
    {
      "midi": 66,
      "hit": false,
      "t": 183971.3541666664,
      "d": 98.95833333334303,
      "v": 45
    },
    {
      "midi": 56,
      "hit": false,
      "t": 184010.4166666664,
      "d": 447.91666666668607,
      "v": 30
    },
    {
      "midi": 68,
      "hit": false,
      "t": 184226.56249999974,
      "d": 75.52083333334303,
      "v": 49
    },
    {
      "midi": 72,
      "hit": false,
      "t": 184231.77083333308,
      "d": 213.54166666665697,
      "v": 70
    },
    {
      "midi": 49,
      "hit": false,
      "t": 184510.41666666642,
      "d": 643.2291666666861,
      "v": 35
    },
    {
      "midi": 73,
      "hit": false,
      "t": 184552.08333333308,
      "d": 75.52083333334303,
      "v": 59
    },
    {
      "midi": 65,
      "hit": false,
      "t": 184567.70833333308,
      "d": 59.895833333343035,
      "v": 29
    },
    {
      "midi": 90,
      "hit": false,
      "t": 184882.81249999977,
      "d": 127.60416666665697,
      "v": 61
    },
    {
      "midi": 82,
      "hit": false,
      "t": 184890.62499999977,
      "d": 72.91666666665697,
      "v": 59
    },
    {
      "midi": 80,
      "hit": false,
      "t": 185117.18749999977,
      "d": 190.10416666668607,
      "v": 64
    },
    {
      "midi": 89,
      "hit": false,
      "t": 185124.99999999977,
      "d": 91.14583333334303,
      "v": 65
    },
    {
      "midi": 56,
      "hit": false,
      "t": 185166.66666666645,
      "d": 661.4583333333721,
      "v": 40
    },
    {
      "midi": 78,
      "hit": false,
      "t": 185322.91666666645,
      "d": 80.72916666668607,
      "v": 56
    },
    {
      "midi": 84,
      "hit": false,
      "t": 185359.3749999998,
      "d": 65.10416666668607,
      "v": 67
    },
    {
      "midi": 68,
      "hit": false,
      "t": 185536.45833333314,
      "d": 296.8750000000291,
      "v": 54
    },
    {
      "midi": 85,
      "hit": false,
      "t": 185541.66666666648,
      "d": 54.6875,
      "v": 75
    },
    {
      "midi": 77,
      "hit": false,
      "t": 185559.89583333314,
      "d": 106.77083333334303,
      "v": 62
    },
    {
      "midi": 78,
      "hit": false,
      "t": 185736.97916666648,
      "d": 67.70833333334303,
      "v": 65
    },
    {
      "midi": 82,
      "hit": false,
      "t": 185739.58333333314,
      "d": 59.895833333343035,
      "v": 80
    },
    {
      "midi": 80,
      "hit": false,
      "t": 185932.2916666665,
      "d": 184.89583333337214,
      "v": 73
    },
    {
      "midi": 65,
      "hit": false,
      "t": 185953.12499999985,
      "d": 375.0000000000291,
      "v": 58
    },
    {
      "midi": 77,
      "hit": false,
      "t": 185958.3333333332,
      "d": 67.70833333334303,
      "v": 51
    },
    {
      "midi": 75,
      "hit": false,
      "t": 186140.62499999988,
      "d": 78.125,
      "v": 57
    },
    {
      "midi": 83,
      "hit": false,
      "t": 186153.64583333323,
      "d": 197.91666666665697,
      "v": 53
    },
    {
      "midi": 58,
      "hit": false,
      "t": 186356.77083333323,
      "d": 437.4999999999709,
      "v": 66
    },
    {
      "midi": 82,
      "hit": false,
      "t": 186361.97916666657,
      "d": 49.479166666656965,
      "v": 76
    },
    {
      "midi": 74,
      "hit": false,
      "t": 186385.41666666657,
      "d": 49.479166666656965,
      "v": 51
    },
    {
      "midi": 75,
      "hit": false,
      "t": 186578.12499999988,
      "d": 195.3124999999709,
      "v": 61
    },
    {
      "midi": 71,
      "hit": false,
      "t": 186596.35416666654,
      "d": 57.291666666656965,
      "v": 21
    },
    {
      "midi": 70,
      "hit": false,
      "t": 186794.2708333332,
      "d": 72.91666666665697,
      "v": 62
    },
    {
      "midi": 77,
      "hit": false,
      "t": 186794.2708333332,
      "d": 236.97916666665697,
      "v": 70
    },
    {
      "midi": 46,
      "hit": false,
      "t": 186820.31249999985,
      "d": 229.16666666665697,
      "v": 57
    },
    {
      "midi": 78,
      "hit": false,
      "t": 187033.8541666665,
      "d": 351.5625,
      "v": 57
    },
    {
      "midi": 68,
      "hit": false,
      "t": 187049.4791666665,
      "d": 70.3125,
      "v": 43
    },
    {
      "midi": 66,
      "hit": false,
      "t": 187351.56249999985,
      "d": 559.8958333333139,
      "v": 35
    },
    {
      "midi": 70,
      "hit": false,
      "t": 187359.37499999985,
      "d": 830.729166666657,
      "v": 60
    },
    {
      "midi": 51,
      "hit": false,
      "t": 187369.7916666665,
      "d": 565.104166666657,
      "v": 38
    },
    {
      "midi": 58,
      "hit": false,
      "t": 187903.64583333317,
      "d": 424.47916666668607,
      "v": 53
    },
    {
      "midi": 70,
      "hit": false,
      "t": 188341.1458333332,
      "d": 385.41666666665697,
      "v": 47
    },
    {
      "midi": 69,
      "hit": false,
      "t": 188765.62499999985,
      "d": 312.4999999999709,
      "v": 44
    },
    {
      "midi": 75,
      "hit": false,
      "t": 189052.08333333317,
      "d": 54.6875,
      "v": 48
    },
    {
      "midi": 77,
      "hit": false,
      "t": 189132.81249999983,
      "d": 54.6875,
      "v": 60
    },
    {
      "midi": 75,
      "hit": false,
      "t": 189190.10416666648,
      "d": 210.9374999999709,
      "v": 55
    },
    {
      "midi": 68,
      "hit": false,
      "t": 189192.70833333314,
      "d": 484.3750000000582,
      "v": 42
    },
    {
      "midi": 72,
      "hit": false,
      "t": 189218.7499999998,
      "d": 223.95833333334303,
      "v": 40
    },
    {
      "midi": 74,
      "hit": false,
      "t": 189421.8749999998,
      "d": 143.22916666668607,
      "v": 55
    },
    {
      "midi": 75,
      "hit": false,
      "t": 189578.12499999983,
      "d": 177.08333333337214,
      "v": 52
    },
    {
      "midi": 71,
      "hit": false,
      "t": 189606.77083333317,
      "d": 80.72916666668607,
      "v": 43
    },
    {
      "midi": 61,
      "hit": false,
      "t": 189640.62499999985,
      "d": 268.22916666668607,
      "v": 29
    },
    {
      "midi": 73,
      "hit": false,
      "t": 189783.85416666654,
      "d": 72.91666666665697,
      "v": 47
    },
    {
      "midi": 77,
      "hit": false,
      "t": 189791.66666666654,
      "d": 257.8125,
      "v": 67
    },
    {
      "midi": 54,
      "hit": false,
      "t": 190044.2708333332,
      "d": 492.1875,
      "v": 29
    },
    {
      "midi": 78,
      "hit": false,
      "t": 190059.8958333332,
      "d": 1255.208333333314,
      "v": 56
    },
    {
      "midi": 70,
      "hit": false,
      "t": 190072.91666666654,
      "d": 513.0208333333139,
      "v": 40
    },
    {
      "midi": 61,
      "hit": false,
      "t": 190552.0833333332,
      "d": 455.72916666665697,
      "v": 35
    },
    {
      "midi": 73,
      "hit": false,
      "t": 190979.1666666665,
      "d": 427.08333333334303,
      "v": 52
    },
    {
      "midi": 72,
      "hit": false,
      "t": 191458.3333333332,
      "d": 315.10416666665697,
      "v": 51
    },
    {
      "midi": 78,
      "hit": false,
      "t": 191697.9166666665,
      "d": 52.083333333343035,
      "v": 57
    },
    {
      "midi": 80,
      "hit": false,
      "t": 191765.62499999985,
      "d": 52.083333333343035,
      "v": 52
    },
    {
      "midi": 75,
      "hit": false,
      "t": 191833.3333333332,
      "d": 382.8125,
      "v": 28
    },
    {
      "midi": 78,
      "hit": false,
      "t": 191835.93749999985,
      "d": 231.77083333334303,
      "v": 62
    },
    {
      "midi": 71,
      "hit": false,
      "t": 191874.99999999985,
      "d": 645.8333333333139,
      "v": 27
    },
    {
      "midi": 77,
      "hit": false,
      "t": 192065.10416666654,
      "d": 96.35416666665697,
      "v": 64
    },
    {
      "midi": 78,
      "hit": false,
      "t": 192291.66666666654,
      "d": 229.16666666662786,
      "v": 50
    },
    {
      "midi": 74,
      "hit": false,
      "t": 192317.7083333332,
      "d": 111.97916666665697,
      "v": 42
    },
    {
      "midi": 64,
      "hit": false,
      "t": 192317.7083333332,
      "d": 289.0624999999418,
      "v": 32
    },
    {
      "midi": 80,
      "hit": false,
      "t": 192554.68749999983,
      "d": 190.10416666665697,
      "v": 46
    },
    {
      "midi": 76,
      "hit": false,
      "t": 192596.35416666648,
      "d": 80.72916666665697,
      "v": 33
    },
    {
      "midi": 57,
      "hit": false,
      "t": 192895.83333333314,
      "d": 664.0625,
      "v": 35
    },
    {
      "midi": 73,
      "hit": false,
      "t": 192903.64583333314,
      "d": 59.895833333343035,
      "v": 32
    },
    {
      "midi": 81,
      "hit": false,
      "t": 192911.45833333314,
      "d": 72.91666666668607,
      "v": 37
    },
    {
      "midi": 98,
      "hit": false,
      "t": 193320.31249999983,
      "d": 75.52083333331393,
      "v": 49
    },
    {
      "midi": 90,
      "hit": false,
      "t": 193338.54166666648,
      "d": 57.291666666656965,
      "v": 50
    },
    {
      "midi": 97,
      "hit": false,
      "t": 193593.7499999998,
      "d": 52.083333333343035,
      "v": 52
    },
    {
      "midi": 88,
      "hit": false,
      "t": 193601.5624999998,
      "d": 54.6875,
      "v": 42
    },
    {
      "midi": 64,
      "hit": false,
      "t": 193653.64583333314,
      "d": 93.75,
      "v": 27
    },
    {
      "midi": 92,
      "hit": false,
      "t": 193802.08333333314,
      "d": 72.91666666668607,
      "v": 52
    },
    {
      "midi": 86,
      "hit": false,
      "t": 193822.91666666648,
      "d": 72.91666666668607,
      "v": 52
    },
    {
      "midi": 93,
      "hit": false,
      "t": 194033.8541666665,
      "d": 75.52083333331393,
      "v": 44
    },
    {
      "midi": 85,
      "hit": false,
      "t": 194041.6666666665,
      "d": 75.52083333331393,
      "v": 32
    },
    {
      "midi": 76,
      "hit": false,
      "t": 194052.08333333317,
      "d": 294.27083333331393,
      "v": 47
    },
    {
      "midi": 90,
      "hit": false,
      "t": 194239.58333333317,
      "d": 132.8124999999709,
      "v": 68
    },
    {
      "midi": 86,
      "hit": false,
      "t": 194249.99999999983,
      "d": 132.8124999999709,
      "v": 68
    },
    {
      "midi": 85,
      "hit": false,
      "t": 194460.9374999998,
      "d": 54.6875,
      "v": 60
    },
    {
      "midi": 88,
      "hit": false,
      "t": 194468.7499999998,
      "d": 104.16666666668607,
      "v": 56
    },
    {
      "midi": 73,
      "hit": false,
      "t": 194492.1874999998,
      "d": 59.895833333343035,
      "v": 45
    },
    {
      "midi": 91,
      "hit": false,
      "t": 194669.27083333314,
      "d": 41.66666666668607,
      "v": 65
    },
    {
      "midi": 83,
      "hit": false,
      "t": 194690.10416666648,
      "d": 104.16666666668607,
      "v": 49
    },
    {
      "midi": 82,
      "hit": false,
      "t": 194877.6041666665,
      "d": 57.291666666656965,
      "v": 70
    },
    {
      "midi": 90,
      "hit": false,
      "t": 194877.6041666665,
      "d": 62.5,
      "v": 58
    },
    {
      "midi": 66,
      "hit": false,
      "t": 194895.83333333317,
      "d": 75.52083333334303,
      "v": 48
    },
    {
      "midi": 83,
      "hit": false,
      "t": 195083.33333333317,
      "d": 132.8125,
      "v": 62
    },
    {
      "midi": 79,
      "hit": false,
      "t": 195093.74999999983,
      "d": 62.5,
      "v": 39
    },
    {
      "midi": 85,
      "hit": false,
      "t": 195265.62499999983,
      "d": 169.27083333337214,
      "v": 66
    },
    {
      "midi": 78,
      "hit": false,
      "t": 195278.64583333317,
      "d": 72.91666666668607,
      "v": 44
    },
    {
      "midi": 54,
      "hit": false,
      "t": 195291.6666666665,
      "d": 67.70833333334303,
      "v": 38
    },
    {
      "midi": 86,
      "hit": false,
      "t": 195476.56249999985,
      "d": 54.6875,
      "v": 55
    },
    {
      "midi": 76,
      "hit": false,
      "t": 195486.9791666665,
      "d": 54.6875,
      "v": 55
    },
    {
      "midi": 78,
      "hit": false,
      "t": 195677.08333333317,
      "d": 83.33333333334303,
      "v": 62
    },
    {
      "midi": 47,
      "hit": false,
      "t": 195684.89583333317,
      "d": 375,
      "v": 37
    },
    {
      "midi": 74,
      "hit": false,
      "t": 195703.12499999985,
      "d": 156.25,
      "v": 49
    },
    {
      "midi": 86,
      "hit": false,
      "t": 195906.24999999985,
      "d": 151.04166666665697,
      "v": 74
    },
    {
      "midi": 78,
      "hit": false,
      "t": 195908.8541666665,
      "d": 57.291666666656965,
      "v": 57
    },
    {
      "midi": 76,
      "hit": false,
      "t": 196093.74999999983,
      "d": 46.875,
      "v": 58
    },
    {
      "midi": 85,
      "hit": false,
      "t": 196096.35416666648,
      "d": 39.0625,
      "v": 73
    },
    {
      "midi": 54,
      "hit": false,
      "t": 196096.35416666648,
      "d": 442.70833333331393,
      "v": 47
    },
    {
      "midi": 82,
      "hit": false,
      "t": 196283.85416666648,
      "d": 119.79166666665697,
      "v": 85
    },
    {
      "midi": 73,
      "hit": false,
      "t": 196302.08333333314,
      "d": 62.5,
      "v": 50
    },
    {
      "midi": 83,
      "hit": false,
      "t": 196492.1874999998,
      "d": 109.375,
      "v": 62
    },
    {
      "midi": 66,
      "hit": false,
      "t": 196499.9999999998,
      "d": 260.41666666668607,
      "v": 50
    },
    {
      "midi": 74,
      "hit": false,
      "t": 196520.83333333314,
      "d": 57.291666666656965,
      "v": 44
    },
    {
      "midi": 79,
      "hit": false,
      "t": 196684.89583333314,
      "d": 158.85416666668607,
      "v": 66
    },
    {
      "midi": 76,
      "hit": false,
      "t": 196713.54166666648,
      "d": 62.5,
      "v": 43
    },
    {
      "midi": 78,
      "hit": false,
      "t": 196885.41666666648,
      "d": 114.58333333331393,
      "v": 59
    },
    {
      "midi": 74,
      "hit": false,
      "t": 196895.83333333314,
      "d": 85.9375,
      "v": 51
    },
    {
      "midi": 59,
      "hit": false,
      "t": 196911.45833333314,
      "d": 88.54166666665697,
      "v": 40
    },
    {
      "midi": 81,
      "hit": false,
      "t": 197078.1249999998,
      "d": 187.5000000000291,
      "v": 69
    },
    {
      "midi": 59,
      "hit": false,
      "t": 197085.9374999998,
      "d": 166.66666666668607,
      "v": 4
    },
    {
      "midi": 73,
      "hit": false,
      "t": 197091.14583333314,
      "d": 54.6875,
      "v": 55
    },
    {
      "midi": 80,
      "hit": false,
      "t": 197286.45833333317,
      "d": 46.875000000029104,
      "v": 69
    },
    {
      "midi": 71,
      "hit": false,
      "t": 197307.2916666665,
      "d": 46.875000000029104,
      "v": 69
    },
    {
      "midi": 52,
      "hit": false,
      "t": 197328.12499999985,
      "d": 380.20833333334303,
      "v": 45
    },
    {
      "midi": 73,
      "hit": false,
      "t": 197510.41666666654,
      "d": 187.5,
      "v": 59
    },
    {
      "midi": 69,
      "hit": false,
      "t": 197520.8333333332,
      "d": 85.9375,
      "v": 54
    },
    {
      "midi": 68,
      "hit": false,
      "t": 197781.24999999985,
      "d": 252.60416666668607,
      "v": 38
    },
    {
      "midi": 74,
      "hit": false,
      "t": 197781.24999999985,
      "d": 312.5000000000291,
      "v": 45
    },
    {
      "midi": 40,
      "hit": false,
      "t": 197822.91666666654,
      "d": 1434.895833333314,
      "v": 35
    },
    {
      "midi": 76,
      "hit": false,
      "t": 198072.91666666654,
      "d": 510.41666666665697,
      "v": 50
    },
    {
      "midi": 64,
      "hit": false,
      "t": 198078.12499999988,
      "d": 307.29166666665697,
      "v": 30
    },
    {
      "midi": 72,
      "hit": false,
      "t": 198463.54166666654,
      "d": 1807.2916666666279,
      "v": 55
    },
    {
      "midi": 68,
      "hit": false,
      "t": 198466.1458333332,
      "d": 492.1875,
      "v": 41
    },
    {
      "midi": 67,
      "hit": false,
      "t": 198973.9583333332,
      "d": 1114.583333333314,
      "v": 33
    },
    {
      "midi": 39,
      "hit": false,
      "t": 199260.4166666665,
      "d": 393.22916666665697,
      "v": 42
    },
    {
      "midi": 55,
      "hit": false,
      "t": 199864.58333333317,
      "d": 408.85416666665697,
      "v": 38
    },
    {
      "midi": 54,
      "hit": false,
      "t": 200328.12499999983,
      "d": 596.354166666657,
      "v": 49
    },
    {
      "midi": 66,
      "hit": false,
      "t": 200822.91666666648,
      "d": 109.375,
      "v": 31
    },
    {
      "midi": 69,
      "hit": false,
      "t": 200828.12499999983,
      "d": 244.79166666665697,
      "v": 44
    },
    {
      "midi": 45,
      "hit": false,
      "t": 200859.37499999983,
      "d": 513.020833333343,
      "v": 59
    },
    {
      "midi": 71,
      "hit": false,
      "t": 201124.99999999983,
      "d": 161.45833333334303,
      "v": 56
    },
    {
      "midi": 67,
      "hit": false,
      "t": 201164.06249999983,
      "d": 164.0625,
      "v": 46
    },
    {
      "midi": 72,
      "hit": false,
      "t": 201395.83333333317,
      "d": 229.16666666665697,
      "v": 66
    },
    {
      "midi": 66,
      "hit": false,
      "t": 201414.06249999983,
      "d": 67.70833333334303,
      "v": 46
    },
    {
      "midi": 38,
      "hit": false,
      "t": 201502.6041666665,
      "d": 1302.083333333314,
      "v": 57
    },
    {
      "midi": 66,
      "hit": false,
      "t": 201606.77083333317,
      "d": 62.499999999970896,
      "v": 23
    },
    {
      "midi": 74,
      "hit": false,
      "t": 201632.81249999983,
      "d": 247.39583333331393,
      "v": 80
    },
    {
      "midi": 62,
      "hit": false,
      "t": 201658.85416666648,
      "d": 218.75,
      "v": 35
    },
    {
      "midi": 66,
      "hit": false,
      "t": 201924.47916666648,
      "d": 486.97916666665697,
      "v": 60
    },
    {
      "midi": 70,
      "hit": false,
      "t": 201929.68749999983,
      "d": 1731.770833333343,
      "v": 69
    },
    {
      "midi": 65,
      "hit": false,
      "t": 202401.04166666648,
      "d": 1192.708333333343,
      "v": 48
    },
    {
      "midi": 37,
      "hit": false,
      "t": 202776.04166666648,
      "d": 372.39583333334303,
      "v": 42
    },
    {
      "midi": 53,
      "hit": false,
      "t": 203315.10416666648,
      "d": 434.89583333334303,
      "v": 48
    },
    {
      "midi": 52,
      "hit": false,
      "t": 203856.77083333317,
      "d": 614.5833333333139,
      "v": 43
    },
    {
      "midi": 64,
      "hit": false,
      "t": 204312.49999999983,
      "d": 72.91666666665697,
      "v": 54
    },
    {
      "midi": 67,
      "hit": false,
      "t": 204315.10416666648,
      "d": 247.39583333334303,
      "v": 52
    },
    {
      "midi": 43,
      "hit": false,
      "t": 204335.93749999983,
      "d": 492.1875,
      "v": 41
    },
    {
      "midi": 69,
      "hit": false,
      "t": 204601.56249999983,
      "d": 109.375,
      "v": 57
    },
    {
      "midi": 65,
      "hit": false,
      "t": 204609.37499999983,
      "d": 98.95833333334303,
      "v": 55
    },
    {
      "midi": 70,
      "hit": false,
      "t": 204874.99999999983,
      "d": 369.79166666662786,
      "v": 64
    },
    {
      "midi": 64,
      "hit": false,
      "t": 204901.04166666648,
      "d": 286.45833333331393,
      "v": 43
    },
    {
      "midi": 36,
      "hit": false,
      "t": 204903.64583333314,
      "d": 1856.770833333343,
      "v": 38
    },
    {
      "midi": 72,
      "hit": false,
      "t": 205210.9374999998,
      "d": 526.041666666657,
      "v": 57
    },
    {
      "midi": 60,
      "hit": false,
      "t": 205255.2083333331,
      "d": 328.125,
      "v": 11
    },
    {
      "midi": 69,
      "hit": false,
      "t": 205697.91666666645,
      "d": 1822.916666666657,
      "v": 42
    },
    {
      "midi": 64,
      "hit": false,
      "t": 205716.1458333331,
      "d": 549.4791666666861,
      "v": 34
    },
    {
      "midi": 63,
      "hit": false,
      "t": 206302.08333333314,
      "d": 1132.812499999971,
      "v": 25
    },
    {
      "midi": 35,
      "hit": false,
      "t": 206817.70833333314,
      "d": 333.33333333331393,
      "v": 23
    },
    {
      "midi": 54,
      "hit": false,
      "t": 207499.99999999977,
      "d": 708.333333333343,
      "v": 19
    },
    {
      "midi": 59,
      "hit": false,
      "t": 208067.7083333331,
      "d": 885.416666666657,
      "v": 24
    },
    {
      "midi": 61,
      "hit": false,
      "t": 208856.7708333331,
      "d": 408.85416666665697,
      "v": 37
    },
    {
      "midi": 59,
      "hit": false,
      "t": 209270.8333333331,
      "d": 557.291666666657,
      "v": 28
    },
    {
      "midi": 47,
      "hit": false,
      "t": 209953.12499999977,
      "d": 638.0208333333139,
      "v": 34
    },
    {
      "midi": 59,
      "hit": false,
      "t": 210377.60416666642,
      "d": 552.0833333333139,
      "v": 36
    },
    {
      "midi": 61,
      "hit": false,
      "t": 211039.06249999974,
      "d": 151.04166666665697,
      "v": 43
    },
    {
      "midi": 40,
      "hit": false,
      "t": 211502.6041666664,
      "d": 1632.8125,
      "v": 39
    },
    {
      "midi": 56,
      "hit": false,
      "t": 211507.81249999974,
      "d": 924.4791666666861,
      "v": 37
    },
    {
      "midi": 59,
      "hit": false,
      "t": 211510.4166666664,
      "d": 924.4791666666861,
      "v": 42
    },
    {
      "midi": 28,
      "hit": false,
      "t": 211515.62499999974,
      "d": 1528.645833333314,
      "v": 42
    },
    {
      "midi": 52,
      "hit": false,
      "t": 211536.45833333308,
      "d": 898.4375,
      "v": 42
    },
    {
      "midi": 47,
      "hit": false,
      "t": 212231.77083333308,
      "d": 270.83333333334303,
      "v": 44
    },
    {
      "midi": 56,
      "hit": false,
      "t": 212716.14583333308,
      "d": 299.47916666665697,
      "v": 26
    },
    {
      "midi": 59,
      "hit": false,
      "t": 212718.74999999974,
      "d": 307.29166666665697,
      "v": 50
    },
    {
      "midi": 52,
      "hit": false,
      "t": 212731.77083333308,
      "d": 236.97916666665697,
      "v": 35
    },
    {
      "midi": 68,
      "hit": false,
      "t": 213367.18749999974,
      "d": 203.125,
      "v": 75
    },
    {
      "midi": 68,
      "hit": false,
      "t": 213789.06249999974,
      "d": 695.3125000000291,
      "v": 58
    },
    {
      "midi": 57,
      "hit": false,
      "t": 213791.6666666664,
      "d": 2072.9166666667443,
      "v": 51
    },
    {
      "midi": 49,
      "hit": false,
      "t": 213799.4791666664,
      "d": 2075.5208333334012,
      "v": 36
    },
    {
      "midi": 40,
      "hit": false,
      "t": 213820.31249999974,
      "d": 3742.187500000029,
      "v": 38
    },
    {
      "midi": 66,
      "hit": false,
      "t": 214398.43749999977,
      "d": 419.27083333334303,
      "v": 54
    },
    {
      "midi": 64,
      "hit": false,
      "t": 214786.4583333331,
      "d": 734.3750000000291,
      "v": 55
    },
    {
      "midi": 61,
      "hit": false,
      "t": 215429.6874999998,
      "d": 429.6875,
      "v": 42
    },
    {
      "midi": 59,
      "hit": false,
      "t": 215828.1249999998,
      "d": 1000,
      "v": 27
    },
    {
      "midi": 56,
      "hit": false,
      "t": 215833.33333333314,
      "d": 1544.270833333314,
      "v": 29
    },
    {
      "midi": 47,
      "hit": false,
      "t": 215856.77083333314,
      "d": 1979.1666666666279,
      "v": 21
    },
    {
      "midi": 59,
      "hit": false,
      "t": 217221.35416666645,
      "d": 322.91666666665697,
      "v": 35
    },
    {
      "midi": 61,
      "hit": false,
      "t": 217817.7083333331,
      "d": 111.97916666665697,
      "v": 50
    },
    {
      "midi": 51,
      "hit": false,
      "t": 218177.0833333331,
      "d": 671.8750000000291,
      "v": 30
    },
    {
      "midi": 57,
      "hit": false,
      "t": 218182.29166666645,
      "d": 429.6875,
      "v": 32
    },
    {
      "midi": 59,
      "hit": false,
      "t": 218184.8958333331,
      "d": 643.2291666666861,
      "v": 48
    },
    {
      "midi": 35,
      "hit": false,
      "t": 218192.7083333331,
      "d": 1635.4166666667152,
      "v": 35
    },
    {
      "midi": 47,
      "hit": false,
      "t": 218833.33333333314,
      "d": 57.291666666656965,
      "v": 22
    },
    {
      "midi": 51,
      "hit": false,
      "t": 219203.1249999998,
      "d": 268.22916666668607,
      "v": 28
    },
    {
      "midi": 59,
      "hit": false,
      "t": 219203.1249999998,
      "d": 460.9375000000291,
      "v": 36
    },
    {
      "midi": 57,
      "hit": false,
      "t": 219239.58333333314,
      "d": 518.2291666666861,
      "v": 28
    },
    {
      "midi": 61,
      "hit": false,
      "t": 219822.91666666648,
      "d": 72.91666666668607,
      "v": 53
    },
    {
      "midi": 59,
      "hit": false,
      "t": 220236.9791666665,
      "d": 773.4375000000291,
      "v": 45
    },
    {
      "midi": 56,
      "hit": false,
      "t": 220242.18749999985,
      "d": 781.2500000000291,
      "v": 34
    },
    {
      "midi": 52,
      "hit": false,
      "t": 220252.6041666665,
      "d": 726.5625000000291,
      "v": 48
    },
    {
      "midi": 28,
      "hit": false,
      "t": 220260.4166666665,
      "d": 981.770833333343,
      "v": 44
    },
    {
      "midi": 40,
      "hit": false,
      "t": 220294.27083333317,
      "d": 789.0625000000291,
      "v": 36
    },
    {
      "midi": 47,
      "hit": false,
      "t": 220843.74999999985,
      "d": 229.16666666668607,
      "v": 47
    },
    {
      "midi": 59,
      "hit": false,
      "t": 221244.7916666665,
      "d": 78.1249999999709,
      "v": 51
    },
    {
      "midi": 56,
      "hit": false,
      "t": 221255.20833333317,
      "d": 85.9375,
      "v": 41
    },
    {
      "midi": 52,
      "hit": false,
      "t": 221265.62499999983,
      "d": 62.5,
      "v": 40
    },
    {
      "midi": 64,
      "hit": false,
      "t": 221843.74999999983,
      "d": 234.375,
      "v": 42
    },
    {
      "midi": 37,
      "hit": false,
      "t": 221971.35416666648,
      "d": 2630.208333333372,
      "v": 43
    },
    {
      "midi": 44,
      "hit": false,
      "t": 222124.99999999983,
      "d": 2127.604166666686,
      "v": 41
    },
    {
      "midi": 52,
      "hit": false,
      "t": 222247.39583333317,
      "d": 1757.8125,
      "v": 50
    },
    {
      "midi": 56,
      "hit": false,
      "t": 222419.27083333317,
      "d": 1484.375,
      "v": 35
    },
    {
      "midi": 64,
      "hit": false,
      "t": 222440.1041666665,
      "d": 721.3541666666861,
      "v": 75
    },
    {
      "midi": 63,
      "hit": false,
      "t": 223083.3333333332,
      "d": 406.25,
      "v": 58
    },
    {
      "midi": 61,
      "hit": false,
      "t": 223489.5833333332,
      "d": 807.291666666657,
      "v": 61
    },
    {
      "midi": 56,
      "hit": false,
      "t": 224320.31249999985,
      "d": 1520.8333333333721,
      "v": 48
    },
    {
      "midi": 63,
      "hit": false,
      "t": 224755.2083333332,
      "d": 1083.3333333333721,
      "v": 37
    },
    {
      "midi": 44,
      "hit": false,
      "t": 224776.04166666654,
      "d": 1671.875000000029,
      "v": 23
    },
    {
      "midi": 51,
      "hit": false,
      "t": 224781.24999999988,
      "d": 997.395833333343,
      "v": 35
    },
    {
      "midi": 60,
      "hit": false,
      "t": 224786.45833333323,
      "d": 989.583333333343,
      "v": 37
    },
    {
      "midi": 32,
      "hit": false,
      "t": 224802.08333333323,
      "d": 2052.083333333343,
      "v": 21
    },
    {
      "midi": 63,
      "hit": false,
      "t": 226278.64583333323,
      "d": 708.333333333343,
      "v": 54
    },
    {
      "midi": 65,
      "hit": false,
      "t": 226901.04166666657,
      "d": 453.1249999999709,
      "v": 63
    },
    {
      "midi": 63,
      "hit": false,
      "t": 227255.20833333323,
      "d": 557.2916666666861,
      "v": 68
    },
    {
      "midi": 61,
      "hit": false,
      "t": 227270.83333333323,
      "d": 528.645833333343,
      "v": 56
    },
    {
      "midi": 27,
      "hit": false,
      "t": 227270.83333333323,
      "d": 1427.083333333314,
      "v": 60
    },
    {
      "midi": 55,
      "hit": false,
      "t": 227283.85416666657,
      "d": 377.60416666665697,
      "v": 35
    },
    {
      "midi": 39,
      "hit": false,
      "t": 227286.45833333323,
      "d": 1807.291666666657,
      "v": 37
    },
    {
      "midi": 51,
      "hit": false,
      "t": 227947.91666666657,
      "d": 114.58333333334303,
      "v": 55
    },
    {
      "midi": 63,
      "hit": false,
      "t": 228276.04166666657,
      "d": 523.4374999999709,
      "v": 70
    },
    {
      "midi": 61,
      "hit": false,
      "t": 228294.27083333323,
      "d": 666.666666666657,
      "v": 66
    },
    {
      "midi": 55,
      "hit": false,
      "t": 228296.87499999988,
      "d": 843.75,
      "v": 48
    },
    {
      "midi": 65,
      "hit": false,
      "t": 228869.79166666654,
      "d": 111.97916666668607,
      "v": 88
    },
    {
      "midi": 32,
      "hit": false,
      "t": 229221.35416666654,
      "d": 1273.4375,
      "v": 55
    },
    {
      "midi": 63,
      "hit": false,
      "t": 229239.5833333332,
      "d": 601.5625,
      "v": 77
    },
    {
      "midi": 44,
      "hit": false,
      "t": 229252.60416666654,
      "d": 1356.770833333343,
      "v": 42
    },
    {
      "midi": 56,
      "hit": false,
      "t": 229260.41666666654,
      "d": 601.5625,
      "v": 57
    },
    {
      "midi": 60,
      "hit": false,
      "t": 229270.8333333332,
      "d": 486.97916666665697,
      "v": 64
    },
    {
      "midi": 51,
      "hit": false,
      "t": 229789.06249999985,
      "d": 184.89583333334303,
      "v": 64
    },
    {
      "midi": 63,
      "hit": false,
      "t": 230208.3333333332,
      "d": 221.35416666668607,
      "v": 75
    },
    {
      "midi": 56,
      "hit": false,
      "t": 230229.16666666654,
      "d": 169.27083333334303,
      "v": 55
    },
    {
      "midi": 60,
      "hit": false,
      "t": 230255.2083333332,
      "d": 98.95833333334303,
      "v": 45
    },
    {
      "midi": 72,
      "hit": false,
      "t": 230799.47916666654,
      "d": 250,
      "v": 92
    },
    {
      "midi": 44,
      "hit": false,
      "t": 231078.12499999988,
      "d": 3476.5625,
      "v": 46
    },
    {
      "midi": 72,
      "hit": false,
      "t": 231164.06249999988,
      "d": 671.875,
      "v": 75
    },
    {
      "midi": 61,
      "hit": false,
      "t": 231171.87499999988,
      "d": 1843.75,
      "v": 67
    },
    {
      "midi": 53,
      "hit": false,
      "t": 231187.49999999988,
      "d": 1968.75,
      "v": 47
    },
    {
      "midi": 70,
      "hit": false,
      "t": 231749.99999999988,
      "d": 382.8125,
      "v": 84
    },
    {
      "midi": 68,
      "hit": false,
      "t": 232114.58333333323,
      "d": 651.041666666657,
      "v": 63
    },
    {
      "midi": 65,
      "hit": false,
      "t": 232718.74999999988,
      "d": 515.625,
      "v": 54
    },
    {
      "midi": 63,
      "hit": false,
      "t": 233122.39583333323,
      "d": 916.666666666657,
      "v": 41
    },
    {
      "midi": 51,
      "hit": false,
      "t": 233140.62499999988,
      "d": 1085.9375,
      "v": 35
    },
    {
      "midi": 60,
      "hit": false,
      "t": 233151.04166666654,
      "d": 1093.75,
      "v": 35
    },
    {
      "midi": 63,
      "hit": false,
      "t": 234197.91666666654,
      "d": 750.0000000000291,
      "v": 34
    },
    {
      "midi": 65,
      "hit": false,
      "t": 234841.14583333323,
      "d": 468.75,
      "v": 42
    },
    {
      "midi": 63,
      "hit": false,
      "t": 235302.08333333323,
      "d": 494.79166666665697,
      "v": 48
    },
    {
      "midi": 61,
      "hit": false,
      "t": 235304.68749999988,
      "d": 502.60416666665697,
      "v": 32
    },
    {
      "midi": 27,
      "hit": false,
      "t": 235328.12499999988,
      "d": 1611.9791666666279,
      "v": 25
    },
    {
      "midi": 39,
      "hit": false,
      "t": 235333.33333333323,
      "d": 1710.937499999971,
      "v": 18
    },
    {
      "midi": 55,
      "hit": false,
      "t": 235359.37499999988,
      "d": 343.75,
      "v": 25
    },
    {
      "midi": 51,
      "hit": false,
      "t": 235966.1458333332,
      "d": 57.291666666656965,
      "v": 54
    },
    {
      "midi": 63,
      "hit": false,
      "t": 236322.9166666665,
      "d": 523.4375,
      "v": 56
    },
    {
      "midi": 61,
      "hit": false,
      "t": 236338.5416666665,
      "d": 606.770833333343,
      "v": 52
    },
    {
      "midi": 55,
      "hit": false,
      "t": 236343.74999999985,
      "d": 864.583333333343,
      "v": 45
    },
    {
      "midi": 65,
      "hit": false,
      "t": 236919.27083333317,
      "d": 96.35416666668607,
      "v": 67
    },
    {
      "midi": 63,
      "hit": false,
      "t": 237278.6458333332,
      "d": 815.1041666666861,
      "v": 57
    },
    {
      "midi": 56,
      "hit": false,
      "t": 237296.87499999985,
      "d": 736.9791666666861,
      "v": 44
    },
    {
      "midi": 44,
      "hit": false,
      "t": 237302.0833333332,
      "d": 1802.0833333333721,
      "v": 48
    },
    {
      "midi": 32,
      "hit": false,
      "t": 237302.0833333332,
      "d": 1828.125000000029,
      "v": 55
    },
    {
      "midi": 60,
      "hit": false,
      "t": 237307.29166666654,
      "d": 734.375,
      "v": 52
    },
    {
      "midi": 51,
      "hit": false,
      "t": 237908.85416666654,
      "d": 101.5625,
      "v": 54
    },
    {
      "midi": 63,
      "hit": false,
      "t": 238270.83333333323,
      "d": 664.0625,
      "v": 80
    },
    {
      "midi": 56,
      "hit": false,
      "t": 238281.24999999988,
      "d": 369.79166666665697,
      "v": 54
    },
    {
      "midi": 60,
      "hit": false,
      "t": 238312.49999999988,
      "d": 507.8125,
      "v": 37
    },
    {
      "midi": 65,
      "hit": false,
      "t": 238872.39583333323,
      "d": 492.1874999999709,
      "v": 95
    },
    {
      "midi": 46,
      "hit": false,
      "t": 239249.99999999988,
      "d": 1906.249999999971,
      "v": 94
    },
    {
      "midi": 66,
      "hit": false,
      "t": 239260.41666666654,
      "d": 838.541666666657,
      "v": 79
    },
    {
      "midi": 34,
      "hit": false,
      "t": 239260.41666666654,
      "d": 2148.4375,
      "v": 84
    },
    {
      "midi": 54,
      "hit": false,
      "t": 239270.8333333332,
      "d": 473.95833333334303,
      "v": 35
    },
    {
      "midi": 61,
      "hit": false,
      "t": 239296.87499999985,
      "d": 664.0625000000291,
      "v": 51
    },
    {
      "midi": 54,
      "hit": false,
      "t": 239867.18749999988,
      "d": 78.125,
      "v": 79
    },
    {
      "midi": 54,
      "hit": false,
      "t": 240065.10416666654,
      "d": 763.0208333333139,
      "v": 70
    },
    {
      "midi": 61,
      "hit": false,
      "t": 240156.24999999985,
      "d": 1278.645833333343,
      "v": 76
    },
    {
      "midi": 66,
      "hit": false,
      "t": 240283.8541666665,
      "d": 619.7916666666861,
      "v": 76
    },
    {
      "midi": 65,
      "hit": false,
      "t": 240984.37499999985,
      "d": 130.20833333334303,
      "v": 71
    },
    {
      "midi": 53,
      "hit": false,
      "t": 240999.99999999985,
      "d": 132.8125,
      "v": 41
    },
    {
      "midi": 65,
      "hit": false,
      "t": 241328.12499999985,
      "d": 703.1250000000291,
      "v": 54
    },
    {
      "midi": 60,
      "hit": false,
      "t": 241333.3333333332,
      "d": 1231.7708333333721,
      "v": 56
    },
    {
      "midi": 53,
      "hit": false,
      "t": 241354.16666666654,
      "d": 578.125,
      "v": 27
    },
    {
      "midi": 33,
      "hit": false,
      "t": 241359.37499999988,
      "d": 479.16666666665697,
      "v": 44
    },
    {
      "midi": 45,
      "hit": false,
      "t": 241390.62499999988,
      "d": 1195.312500000029,
      "v": 30
    },
    {
      "midi": 65,
      "hit": false,
      "t": 242544.27083333323,
      "d": 351.5625000000291,
      "v": 52
    },
    {
      "midi": 53,
      "hit": false,
      "t": 242585.9374999999,
      "d": 367.1875,
      "v": 28
    },
    {
      "midi": 66,
      "hit": false,
      "t": 243130.20833333326,
      "d": 117.1875,
      "v": 53
    },
    {
      "midi": 54,
      "hit": false,
      "t": 243140.6249999999,
      "d": 85.9375,
      "v": 32
    },
    {
      "midi": 46,
      "hit": false,
      "t": 243440.1041666666,
      "d": 1138.020833333314,
      "v": 46
    },
    {
      "midi": 54,
      "hit": false,
      "t": 243442.70833333326,
      "d": 416.66666666668607,
      "v": 42
    },
    {
      "midi": 66,
      "hit": false,
      "t": 243458.33333333326,
      "d": 510.41666666668607,
      "v": 35
    },
    {
      "midi": 61,
      "hit": false,
      "t": 243458.33333333326,
      "d": 1140.625,
      "v": 42
    },
    {
      "midi": 34,
      "hit": false,
      "t": 243463.5416666666,
      "d": 1044.270833333314,
      "v": 44
    },
    {
      "midi": 65,
      "hit": false,
      "t": 244015.62499999994,
      "d": 153.64583333334303,
      "v": 60
    },
    {
      "midi": 53,
      "hit": false,
      "t": 244036.45833333328,
      "d": 132.8125,
      "v": 11
    },
    {
      "midi": 65,
      "hit": false,
      "t": 244304.68749999994,
      "d": 328.1249999999709,
      "v": 53
    },
    {
      "midi": 53,
      "hit": false,
      "t": 244322.9166666666,
      "d": 216.14583333331393,
      "v": 43
    },
    {
      "midi": 70,
      "hit": false,
      "t": 244807.29166666657,
      "d": 122.39583333334303,
      "v": 74
    },
    {
      "midi": 58,
      "hit": false,
      "t": 244828.1249999999,
      "d": 70.3125,
      "v": 58
    },
    {
      "midi": 70,
      "hit": false,
      "t": 245124.9999999999,
      "d": 554.6875,
      "v": 58
    },
    {
      "midi": 58,
      "hit": false,
      "t": 245140.6249999999,
      "d": 453.125,
      "v": 54
    },
    {
      "midi": 60,
      "hit": false,
      "t": 245140.6249999999,
      "d": 1398.4375,
      "v": 48
    },
    {
      "midi": 63,
      "hit": false,
      "t": 245156.2499999999,
      "d": 1471.354166666657,
      "v": 36
    },
    {
      "midi": 48,
      "hit": false,
      "t": 245171.8749999999,
      "d": 1213.541666666657,
      "v": 37
    },
    {
      "midi": 69,
      "hit": false,
      "t": 245674.47916666657,
      "d": 138.02083333334303,
      "v": 63
    },
    {
      "midi": 57,
      "hit": false,
      "t": 245708.33333333326,
      "d": 65.10416666665697,
      "v": 49
    },
    {
      "midi": 57,
      "hit": false,
      "t": 245986.97916666657,
      "d": 375,
      "v": 46
    },
    {
      "midi": 69,
      "hit": false,
      "t": 246010.41666666657,
      "d": 442.70833333334303,
      "v": 59
    },
    {
      "midi": 54,
      "hit": false,
      "t": 246497.39583333326,
      "d": 158.85416666665697,
      "v": 39
    },
    {
      "midi": 66,
      "hit": false,
      "t": 246499.9999999999,
      "d": 148.4375,
      "v": 46
    },
    {
      "midi": 61,
      "hit": false,
      "t": 246859.3749999999,
      "d": 1190.104166666657,
      "v": 47
    },
    {
      "midi": 54,
      "hit": false,
      "t": 246864.58333333326,
      "d": 458.33333333331393,
      "v": 38
    },
    {
      "midi": 66,
      "hit": false,
      "t": 246867.1874999999,
      "d": 536.4583333333139,
      "v": 48
    },
    {
      "midi": 49,
      "hit": false,
      "t": 246906.2499999999,
      "d": 1062.5,
      "v": 27
    },
    {
      "midi": 65,
      "hit": false,
      "t": 247361.97916666657,
      "d": 62.5,
      "v": 59
    },
    {
      "midi": 53,
      "hit": false,
      "t": 247385.41666666657,
      "d": 72.91666666665697,
      "v": 49
    },
    {
      "midi": 65,
      "hit": false,
      "t": 247635.41666666657,
      "d": 424.47916666665697,
      "v": 58
    },
    {
      "midi": 53,
      "hit": false,
      "t": 247648.4374999999,
      "d": 367.1875,
      "v": 55
    },
    {
      "midi": 66,
      "hit": false,
      "t": 248104.16666666657,
      "d": 98.95833333334303,
      "v": 58
    },
    {
      "midi": 54,
      "hit": false,
      "t": 248140.6249999999,
      "d": 54.6875,
      "v": 62
    },
    {
      "midi": 67,
      "hit": false,
      "t": 248427.08333333326,
      "d": 598.9583333333139,
      "v": 69
    },
    {
      "midi": 55,
      "hit": false,
      "t": 248434.89583333326,
      "d": 541.666666666657,
      "v": 59
    },
    {
      "midi": 62,
      "hit": false,
      "t": 248453.1249999999,
      "d": 966.1458333333139,
      "v": 42
    },
    {
      "midi": 65,
      "hit": false,
      "t": 248458.33333333326,
      "d": 432.29166666665697,
      "v": 44
    },
    {
      "midi": 35,
      "hit": false,
      "t": 248473.95833333326,
      "d": 348.95833333331393,
      "v": 42
    },
    {
      "midi": 47,
      "hit": false,
      "t": 248484.3749999999,
      "d": 510.41666666665697,
      "v": 39
    },
    {
      "midi": 67,
      "hit": false,
      "t": 249395.83333333323,
      "d": 468.75,
      "v": 60
    },
    {
      "midi": 55,
      "hit": false,
      "t": 249411.45833333323,
      "d": 390.625,
      "v": 58
    },
    {
      "midi": 68,
      "hit": false,
      "t": 249869.79166666657,
      "d": 119.79166666665697,
      "v": 67
    },
    {
      "midi": 56,
      "hit": false,
      "t": 249895.83333333323,
      "d": 52.083333333343035,
      "v": 67
    },
    {
      "midi": 56,
      "hit": false,
      "t": 250192.70833333323,
      "d": 421.8750000000291,
      "v": 57
    },
    {
      "midi": 68,
      "hit": false,
      "t": 250197.91666666657,
      "d": 453.1250000000291,
      "v": 73
    },
    {
      "midi": 63,
      "hit": false,
      "t": 250197.91666666657,
      "d": 1078.125000000029,
      "v": 54
    },
    {
      "midi": 48,
      "hit": false,
      "t": 250213.54166666657,
      "d": 1182.291666666686,
      "v": 78
    },
    {
      "midi": 36,
      "hit": false,
      "t": 250218.7499999999,
      "d": 346.35416666668607,
      "v": 70
    },
    {
      "midi": 67,
      "hit": false,
      "t": 250710.93749999994,
      "d": 148.4375,
      "v": 80
    },
    {
      "midi": 55,
      "hit": false,
      "t": 250718.74999999994,
      "d": 151.04166666665697,
      "v": 63
    },
    {
      "midi": 55,
      "hit": false,
      "t": 250994.7916666666,
      "d": 486.97916666665697,
      "v": 76
    },
    {
      "midi": 67,
      "hit": false,
      "t": 251007.81249999994,
      "d": 283.85416666665697,
      "v": 74
    },
    {
      "midi": 72,
      "hit": false,
      "t": 251442.70833333326,
      "d": 130.20833333334303,
      "v": 97
    },
    {
      "midi": 60,
      "hit": false,
      "t": 251453.1249999999,
      "d": 130.20833333334303,
      "v": 67
    },
    {
      "midi": 60,
      "hit": false,
      "t": 251760.4166666666,
      "d": 492.1875000000291,
      "v": 76
    },
    {
      "midi": 72,
      "hit": false,
      "t": 251760.4166666666,
      "d": 630.2083333333721,
      "v": 83
    },
    {
      "midi": 62,
      "hit": false,
      "t": 251765.62499999994,
      "d": 2945.312500000029,
      "v": 54
    },
    {
      "midi": 65,
      "hit": false,
      "t": 251770.83333333328,
      "d": 2815.104166666686,
      "v": 55
    },
    {
      "midi": 50,
      "hit": false,
      "t": 251789.06249999994,
      "d": 2802.083333333372,
      "v": 59
    },
    {
      "midi": 53,
      "hit": false,
      "t": 251791.6666666666,
      "d": 2742.187500000029,
      "v": 53
    },
    {
      "midi": 71,
      "hit": false,
      "t": 252317.70833333328,
      "d": 145.83333333334303,
      "v": 62
    },
    {
      "midi": 59,
      "hit": false,
      "t": 252322.91666666663,
      "d": 125,
      "v": 53
    },
    {
      "midi": 71,
      "hit": false,
      "t": 252585.93749999997,
      "d": 598.958333333343,
      "v": 46
    },
    {
      "midi": 59,
      "hit": false,
      "t": 252635.41666666663,
      "d": 419.27083333334303,
      "v": 50
    },
    {
      "midi": 70,
      "hit": false,
      "t": 253101.56249999997,
      "d": 169.27083333334303,
      "v": 65
    },
    {
      "midi": 58,
      "hit": false,
      "t": 253117.18749999997,
      "d": 143.22916666668607,
      "v": 43
    },
    {
      "midi": 58,
      "hit": false,
      "t": 253442.7083333333,
      "d": 335.9375,
      "v": 59
    },
    {
      "midi": 70,
      "hit": false,
      "t": 253453.12499999997,
      "d": 562.5,
      "v": 55
    },
    {
      "midi": 69,
      "hit": false,
      "t": 254028.6458333333,
      "d": 156.25,
      "v": 48
    },
    {
      "midi": 57,
      "hit": false,
      "t": 254059.8958333333,
      "d": 72.91666666665697,
      "v": 35
    },
    {
      "midi": 57,
      "hit": false,
      "t": 254356.7708333333,
      "d": 268.22916666665697,
      "v": 35
    },
    {
      "midi": 69,
      "hit": false,
      "t": 254367.18749999997,
      "d": 580.729166666657,
      "v": 32
    },
    {
      "midi": 68,
      "hit": false,
      "t": 254971.35416666663,
      "d": 255.20833333331393,
      "v": 42
    },
    {
      "midi": 56,
      "hit": false,
      "t": 254997.39583333328,
      "d": 148.4375,
      "v": 28
    },
    {
      "midi": 49,
      "hit": false,
      "t": 255523.43749999994,
      "d": 351.5625,
      "v": 25
    },
    {
      "midi": 52,
      "hit": false,
      "t": 255531.24999999994,
      "d": 343.75,
      "v": 30
    },
    {
      "midi": 57,
      "hit": false,
      "t": 255531.24999999994,
      "d": 354.16666666665697,
      "v": 28
    },
    {
      "midi": 64,
      "hit": false,
      "t": 255531.24999999994,
      "d": 648.4375,
      "v": 27
    },
    {
      "midi": 69,
      "hit": false,
      "t": 255531.24999999994,
      "d": 1000,
      "v": 36
    },
    {
      "midi": 69,
      "hit": false,
      "t": 257880.20833333328,
      "d": 596.354166666657,
      "v": 51
    },
    {
      "midi": 71,
      "hit": false,
      "t": 258526.0416666666,
      "d": 536.458333333343,
      "v": 30
    },
    {
      "midi": 67,
      "hit": false,
      "t": 259010.4166666666,
      "d": 276.04166666668607,
      "v": 20
    },
    {
      "midi": 69,
      "hit": false,
      "t": 259015.62499999994,
      "d": 283.85416666668607,
      "v": 39
    },
    {
      "midi": 61,
      "hit": false,
      "t": 259015.62499999994,
      "d": 375.0000000000291,
      "v": 33
    },
    {
      "midi": 33,
      "hit": false,
      "t": 259059.89583333328,
      "d": 283.85416666668607,
      "v": 34
    },
    {
      "midi": 57,
      "hit": false,
      "t": 259731.7708333333,
      "d": 247.39583333334303,
      "v": 39
    },
    {
      "midi": 61,
      "hit": false,
      "t": 260109.375,
      "d": 236.97916666668607,
      "v": 38
    },
    {
      "midi": 69,
      "hit": false,
      "t": 260114.58333333334,
      "d": 281.25,
      "v": 33
    },
    {
      "midi": 67,
      "hit": false,
      "t": 260122.39583333334,
      "d": 755.208333333343,
      "v": 36
    },
    {
      "midi": 71,
      "hit": false,
      "t": 260783.8541666667,
      "d": 106.77083333334303,
      "v": 30
    },
    {
      "midi": 69,
      "hit": false,
      "t": 261197.9166666667,
      "d": 591.145833333343,
      "v": 40
    },
    {
      "midi": 66,
      "hit": false,
      "t": 261197.9166666667,
      "d": 643.2291666666861,
      "v": 27
    },
    {
      "midi": 62,
      "hit": false,
      "t": 261221.3541666667,
      "d": 635.4166666666861,
      "v": 21
    },
    {
      "midi": 38,
      "hit": false,
      "t": 261257.81250000003,
      "d": 1057.291666666657,
      "v": 33
    },
    {
      "midi": 50,
      "hit": false,
      "t": 261260.4166666667,
      "d": 778.6458333333721,
      "v": 27
    },
    {
      "midi": 57,
      "hit": false,
      "t": 261789.06250000003,
      "d": 221.35416666668607,
      "v": 48
    },
    {
      "midi": 69,
      "hit": false,
      "t": 262130.2083333334,
      "d": 216.14583333328483,
      "v": 60
    },
    {
      "midi": 66,
      "hit": false,
      "t": 262153.6458333334,
      "d": 197.91666666662786,
      "v": 37
    },
    {
      "midi": 62,
      "hit": false,
      "t": 262174.4791666667,
      "d": 91.14583333331393,
      "v": 29
    },
    {
      "midi": 78,
      "hit": false,
      "t": 262921.875,
      "d": 174.47916666668607,
      "v": 58
    },
    {
      "midi": 78,
      "hit": false,
      "t": 263372.3958333334,
      "d": 796.8749999999418,
      "v": 58
    },
    {
      "midi": 59,
      "hit": false,
      "t": 263419.2708333334,
      "d": 2083.3333333332557,
      "v": 18
    },
    {
      "midi": 67,
      "hit": false,
      "t": 263434.8958333334,
      "d": 2210.9374999998836,
      "v": 28
    },
    {
      "midi": 50,
      "hit": false,
      "t": 263434.8958333334,
      "d": 3713.5416666665114,
      "v": 29
    },
    {
      "midi": 76,
      "hit": false,
      "t": 264078.125,
      "d": 354.16666666662786,
      "v": 44
    },
    {
      "midi": 74,
      "hit": false,
      "t": 264460.93749999994,
      "d": 757.8125,
      "v": 40
    },
    {
      "midi": 71,
      "hit": false,
      "t": 265153.64583333326,
      "d": 411.45833333337214,
      "v": 32
    },
    {
      "midi": 69,
      "hit": false,
      "t": 265572.9166666666,
      "d": 588.5416666666279,
      "v": 40
    },
    {
      "midi": 66,
      "hit": false,
      "t": 265601.56249999994,
      "d": 1351.5624999999418,
      "v": 28
    },
    {
      "midi": 57,
      "hit": false,
      "t": 265648.43749999994,
      "d": 1442.7083333332557,
      "v": 25
    },
    {
      "midi": 69,
      "hit": false,
      "t": 266854.16666666657,
      "d": 270.83333333331393,
      "v": 33
    },
    {
      "midi": 71,
      "hit": false,
      "t": 267453.1249999999,
      "d": 80.72916666668607,
      "v": 24
    },
    {
      "midi": 69,
      "hit": false,
      "t": 267859.3749999999,
      "d": 695.3125,
      "v": 39
    },
    {
      "midi": 45,
      "hit": false,
      "t": 267914.0624999999,
      "d": 1257.8124999999418,
      "v": 22
    },
    {
      "midi": 61,
      "hit": false,
      "t": 267916.66666666657,
      "d": 643.2291666666279,
      "v": 24
    },
    {
      "midi": 67,
      "hit": false,
      "t": 267929.6874999999,
      "d": 578.125,
      "v": 22
    },
    {
      "midi": 33,
      "hit": false,
      "t": 267937.4999999999,
      "d": 1385.4166666666279,
      "v": 24
    },
    {
      "midi": 57,
      "hit": false,
      "t": 268533.85416666657,
      "d": 62.49999999994179,
      "v": 25
    },
    {
      "midi": 61,
      "hit": false,
      "t": 268940.1041666665,
      "d": 200.52083333331393,
      "v": 32
    },
    {
      "midi": 69,
      "hit": false,
      "t": 268947.9166666665,
      "d": 364.58333333331393,
      "v": 52
    },
    {
      "midi": 67,
      "hit": false,
      "t": 268971.3541666665,
      "d": 289.0625,
      "v": 29
    },
    {
      "midi": 71,
      "hit": false,
      "t": 269528.6458333332,
      "d": 49.47916666668607,
      "v": 50
    },
    {
      "midi": 69,
      "hit": false,
      "t": 269895.8333333332,
      "d": 591.1458333333721,
      "v": 60
    },
    {
      "midi": 66,
      "hit": false,
      "t": 269906.2499999999,
      "d": 664.0625,
      "v": 32
    },
    {
      "midi": 62,
      "hit": false,
      "t": 269919.2708333332,
      "d": 606.7708333333721,
      "v": 30
    },
    {
      "midi": 50,
      "hit": false,
      "t": 269921.8749999999,
      "d": 786.4583333333139,
      "v": 33
    },
    {
      "midi": 38,
      "hit": false,
      "t": 269947.91666666657,
      "d": 783.8541666666279,
      "v": 30
    },
    {
      "midi": 57,
      "hit": false,
      "t": 270445.3124999999,
      "d": 117.1875,
      "v": 49
    },
    {
      "midi": 69,
      "hit": false,
      "t": 270817.7083333332,
      "d": 166.66666666668607,
      "v": 70
    },
    {
      "midi": 66,
      "hit": false,
      "t": 270843.7499999999,
      "d": 153.64583333331393,
      "v": 41
    },
    {
      "midi": 62,
      "hit": false,
      "t": 270861.97916666657,
      "d": 91.14583333331393,
      "v": 24
    },
    {
      "midi": 74,
      "hit": false,
      "t": 271442.7083333332,
      "d": 197.91666666668607,
      "v": 73
    },
    {
      "midi": 74,
      "hit": false,
      "t": 271843.7499999999,
      "d": 757.8125,
      "v": 67
    },
    {
      "midi": 66,
      "hit": false,
      "t": 271859.3749999999,
      "d": 1367.1875,
      "v": 33
    },
    {
      "midi": 62,
      "hit": false,
      "t": 271867.1874999999,
      "d": 1442.7083333333721,
      "v": 26
    },
    {
      "midi": 54,
      "hit": false,
      "t": 271869.79166666657,
      "d": 1382.8125,
      "v": 23
    },
    {
      "midi": 59,
      "hit": false,
      "t": 271877.60416666657,
      "d": 1460.9375,
      "v": 21
    },
    {
      "midi": 47,
      "hit": false,
      "t": 271914.0624999999,
      "d": 1486.979166666686,
      "v": 26
    },
    {
      "midi": 73,
      "hit": false,
      "t": 272549.47916666657,
      "d": 419.27083333331393,
      "v": 53
    },
    {
      "midi": 71,
      "hit": false,
      "t": 272937.4999999999,
      "d": 625,
      "v": 36
    },
    {
      "midi": 66,
      "hit": false,
      "t": 273648.4374999999,
      "d": 85.9375,
      "v": 29
    },
    {
      "midi": 54,
      "hit": false,
      "t": 274078.1249999999,
      "d": 1158.854166666686,
      "v": 25
    },
    {
      "midi": 42,
      "hit": false,
      "t": 274096.35416666657,
      "d": 1075.520833333314,
      "v": 25
    },
    {
      "midi": 61,
      "hit": false,
      "t": 274132.8124999999,
      "d": 62.5,
      "v": 33
    },
    {
      "midi": 61,
      "hit": false,
      "t": 274304.6874999999,
      "d": 98.95833333331393,
      "v": 48
    },
    {
      "midi": 66,
      "hit": false,
      "t": 274382.8124999999,
      "d": 75.52083333331393,
      "v": 41
    },
    {
      "midi": 70,
      "hit": false,
      "t": 274502.6041666665,
      "d": 312.5,
      "v": 59
    },
    {
      "midi": 61,
      "hit": false,
      "t": 274572.9166666665,
      "d": 640.6250000000582,
      "v": 2
    },
    {
      "midi": 73,
      "hit": false,
      "t": 274627.6041666665,
      "d": 721.3541666667443,
      "v": 49
    },
    {
      "midi": 73,
      "hit": false,
      "t": 275552.08333333326,
      "d": 395.83333333337214,
      "v": 68
    },
    {
      "midi": 61,
      "hit": false,
      "t": 275578.12499999994,
      "d": 62.5,
      "v": 44
    },
    {
      "midi": 75,
      "hit": false,
      "t": 276119.7916666666,
      "d": 96.35416666668607,
      "v": 70
    },
    {
      "midi": 63,
      "hit": false,
      "t": 276145.8333333333,
      "d": 130.20833333331393,
      "v": 58
    },
    {
      "midi": 73,
      "hit": false,
      "t": 276460.93749999994,
      "d": 645.8333333333139,
      "v": 66
    },
    {
      "midi": 61,
      "hit": false,
      "t": 276481.77083333326,
      "d": 354.16666666662786,
      "v": 49
    },
    {
      "midi": 65,
      "hit": false,
      "t": 276486.97916666657,
      "d": 572.9166666666861,
      "v": 51
    },
    {
      "midi": 71,
      "hit": false,
      "t": 276489.58333333326,
      "d": 562.5,
      "v": 50
    },
    {
      "midi": 49,
      "hit": false,
      "t": 276510.41666666657,
      "d": 528.6458333333139,
      "v": 27
    },
    {
      "midi": 61,
      "hit": false,
      "t": 277041.66666666657,
      "d": 49.47916666668607,
      "v": 52
    },
    {
      "midi": 73,
      "hit": false,
      "t": 277341.14583333326,
      "d": 458.33333333337214,
      "v": 74
    },
    {
      "midi": 65,
      "hit": false,
      "t": 277367.18749999994,
      "d": 388.02083333337214,
      "v": 62
    },
    {
      "midi": 61,
      "hit": false,
      "t": 277369.7916666666,
      "d": 338.54166666668607,
      "v": 55
    },
    {
      "midi": 71,
      "hit": false,
      "t": 277372.3958333333,
      "d": 403.64583333331393,
      "v": 53
    },
    {
      "midi": 75,
      "hit": false,
      "t": 277885.4166666666,
      "d": 135.41666666668607,
      "v": 78
    },
    {
      "midi": 63,
      "hit": false,
      "t": 277895.8333333333,
      "d": 156.25,
      "v": 68
    },
    {
      "midi": 61,
      "hit": false,
      "t": 278197.9166666666,
      "d": 385.41666666662786,
      "v": 70
    },
    {
      "midi": 73,
      "hit": false,
      "t": 278197.9166666666,
      "d": 583.3333333332557,
      "v": 84
    },
    {
      "midi": 66,
      "hit": false,
      "t": 278226.56249999994,
      "d": 518.2291666666279,
      "v": 53
    },
    {
      "midi": 70,
      "hit": false,
      "t": 278229.1666666666,
      "d": 429.6874999999418,
      "v": 61
    },
    {
      "midi": 54,
      "hit": false,
      "t": 278249.99999999994,
      "d": 721.3541666666279,
      "v": 37
    },
    {
      "midi": 61,
      "hit": false,
      "t": 278710.9374999999,
      "d": 151.04166666668607,
      "v": 51
    },
    {
      "midi": 73,
      "hit": false,
      "t": 279015.6249999999,
      "d": 171.875,
      "v": 83
    },
    {
      "midi": 66,
      "hit": false,
      "t": 279057.29166666657,
      "d": 54.6875,
      "v": 50
    },
    {
      "midi": 70,
      "hit": false,
      "t": 279067.70833333326,
      "d": 72.91666666662786,
      "v": 49
    },
    {
      "midi": 70,
      "hit": false,
      "t": 279445.3124999999,
      "d": 83.33333333331393,
      "v": 96
    },
    {
      "midi": 82,
      "hit": false,
      "t": 279523.4374999999,
      "d": 424.47916666656965,
      "v": 103
    },
    {
      "midi": 71,
      "hit": false,
      "t": 279658.8541666665,
      "d": 36.45833333331393,
      "v": 69
    },
    {
      "midi": 54,
      "hit": false,
      "t": 279731.77083333314,
      "d": 236.97916666662786,
      "v": 66
    },
    {
      "midi": 71,
      "hit": false,
      "t": 279807.29166666645,
      "d": 2231.770833333314,
      "v": 49
    },
    {
      "midi": 63,
      "hit": false,
      "t": 279851.56249999977,
      "d": 182.29166666668607,
      "v": 58
    },
    {
      "midi": 75,
      "hit": false,
      "t": 279963.54166666645,
      "d": 1252.604166666686,
      "v": 65
    },
    {
      "midi": 82,
      "hit": false,
      "t": 280085.93749999977,
      "d": 875,
      "v": 95
    },
    {
      "midi": 70,
      "hit": false,
      "t": 280119.79166666645,
      "d": 91.14583333331393,
      "v": 89
    },
    {
      "midi": 68,
      "hit": false,
      "t": 280796.87499999977,
      "d": 299.47916666668607,
      "v": 63
    },
    {
      "midi": 80,
      "hit": false,
      "t": 280804.68749999977,
      "d": 348.95833333337214,
      "v": 79
    },
    {
      "midi": 78,
      "hit": false,
      "t": 281151.04166666645,
      "d": 648.4375,
      "v": 73
    },
    {
      "midi": 66,
      "hit": false,
      "t": 281158.85416666645,
      "d": 500,
      "v": 52
    },
    {
      "midi": 75,
      "hit": false,
      "t": 281708.33333333314,
      "d": 335.9374999999418,
      "v": 57
    },
    {
      "midi": 63,
      "hit": false,
      "t": 281752.60416666645,
      "d": 234.375,
      "v": 39
    },
    {
      "midi": 73,
      "hit": false,
      "t": 282023.43749999977,
      "d": 638.0208333333139,
      "v": 52
    },
    {
      "midi": 61,
      "hit": false,
      "t": 282054.68749999977,
      "d": 528.6458333333139,
      "v": 39
    },
    {
      "midi": 70,
      "hit": false,
      "t": 282054.68749999977,
      "d": 1364.5833333332557,
      "v": 40
    },
    {
      "midi": 54,
      "hit": false,
      "t": 282078.12499999977,
      "d": 1101.5624999999418,
      "v": 23
    },
    {
      "midi": 73,
      "hit": false,
      "t": 282885.4166666664,
      "d": 609.3749999999418,
      "v": 60
    },
    {
      "midi": 61,
      "hit": false,
      "t": 282914.0624999997,
      "d": 234.375,
      "v": 35
    },
    {
      "midi": 75,
      "hit": false,
      "t": 283434.895833333,
      "d": 343.75,
      "v": 63
    },
    {
      "midi": 63,
      "hit": false,
      "t": 283458.333333333,
      "d": 62.5,
      "v": 60
    },
    {
      "midi": 73,
      "hit": false,
      "t": 283710.9374999997,
      "d": 692.7083333333139,
      "v": 82
    },
    {
      "midi": 65,
      "hit": false,
      "t": 283731.770833333,
      "d": 273.4375,
      "v": 64
    },
    {
      "midi": 71,
      "hit": false,
      "t": 283731.770833333,
      "d": 390.625,
      "v": 62
    },
    {
      "midi": 61,
      "hit": false,
      "t": 283736.97916666634,
      "d": 273.4375,
      "v": 54
    },
    {
      "midi": 49,
      "hit": false,
      "t": 283747.395833333,
      "d": 1101.5625000000582,
      "v": 50
    },
    {
      "midi": 61,
      "hit": false,
      "t": 284239.583333333,
      "d": 88.54166666668607,
      "v": 73
    },
    {
      "midi": 65,
      "hit": false,
      "t": 284552.083333333,
      "d": 411.45833333337214,
      "v": 76
    },
    {
      "midi": 73,
      "hit": false,
      "t": 284554.6874999997,
      "d": 466.14583333337214,
      "v": 81
    },
    {
      "midi": 71,
      "hit": false,
      "t": 284570.3124999997,
      "d": 388.02083333337214,
      "v": 60
    },
    {
      "midi": 61,
      "hit": false,
      "t": 284572.9166666664,
      "d": 312.5,
      "v": 75
    },
    {
      "midi": 75,
      "hit": false,
      "t": 285054.68749999977,
      "d": 125,
      "v": 81
    },
    {
      "midi": 63,
      "hit": false,
      "t": 285070.31249999977,
      "d": 125,
      "v": 78
    },
    {
      "midi": 73,
      "hit": false,
      "t": 285369.79166666645,
      "d": 666.6666666667443,
      "v": 80
    },
    {
      "midi": 61,
      "hit": false,
      "t": 285372.39583333314,
      "d": 354.1666666667443,
      "v": 68
    },
    {
      "midi": 54,
      "hit": false,
      "t": 285374.9999999998,
      "d": 1026.041666666686,
      "v": 87
    },
    {
      "midi": 70,
      "hit": false,
      "t": 285385.4166666665,
      "d": 500.0000000000582,
      "v": 75
    },
    {
      "midi": 66,
      "hit": false,
      "t": 285385.4166666665,
      "d": 604.1666666666861,
      "v": 56
    },
    {
      "midi": 42,
      "hit": false,
      "t": 285395.8333333332,
      "d": 377.60416666668607,
      "v": 60
    },
    {
      "midi": 61,
      "hit": false,
      "t": 285867.1874999999,
      "d": 117.1875,
      "v": 76
    },
    {
      "midi": 73,
      "hit": false,
      "t": 286135.4166666665,
      "d": 802.0833333333721,
      "v": 88
    },
    {
      "midi": 66,
      "hit": false,
      "t": 286140.6249999998,
      "d": 489.58333333337214,
      "v": 88
    },
    {
      "midi": 61,
      "hit": false,
      "t": 286148.4374999998,
      "d": 403.64583333337214,
      "v": 92
    },
    {
      "midi": 70,
      "hit": false,
      "t": 286164.0624999998,
      "d": 325.52083333337214,
      "v": 75
    },
    {
      "midi": 75,
      "hit": false,
      "t": 286640.6249999999,
      "d": 250,
      "v": 90
    },
    {
      "midi": 63,
      "hit": false,
      "t": 286666.66666666657,
      "d": 91.14583333331393,
      "v": 92
    },
    {
      "midi": 76,
      "hit": false,
      "t": 286953.1249999999,
      "d": 481.7708333332557,
      "v": 106
    },
    {
      "midi": 71,
      "hit": false,
      "t": 286953.1249999999,
      "d": 486.97916666656965,
      "v": 65
    },
    {
      "midi": 64,
      "hit": false,
      "t": 286958.3333333332,
      "d": 335.9375,
      "v": 89
    },
    {
      "midi": 56,
      "hit": false,
      "t": 286973.9583333332,
      "d": 1348.9583333333721,
      "v": 81
    },
    {
      "midi": 44,
      "hit": false,
      "t": 286981.7708333332,
      "d": 1804.6875000000582,
      "v": 90
    },
    {
      "midi": 64,
      "hit": false,
      "t": 287429.6874999998,
      "d": 67.70833333331393,
      "v": 87
    },
    {
      "midi": 64,
      "hit": false,
      "t": 287624.9999999998,
      "d": 901.0416666667443,
      "v": 76
    },
    {
      "midi": 71,
      "hit": false,
      "t": 287765.6249999998,
      "d": 1028.6458333334303,
      "v": 88
    },
    {
      "midi": 76,
      "hit": false,
      "t": 288028.6458333332,
      "d": 419.27083333337214,
      "v": 105
    },
    {
      "midi": 75,
      "hit": false,
      "t": 288765.6249999999,
      "d": 250.0000000000582,
      "v": 90
    },
    {
      "midi": 63,
      "hit": false,
      "t": 288776.04166666657,
      "d": 223.95833333337214,
      "v": 77
    },
    {
      "midi": 75,
      "hit": false,
      "t": 289221.3541666666,
      "d": 945.3125000001164,
      "v": 86
    },
    {
      "midi": 63,
      "hit": false,
      "t": 289223.9583333333,
      "d": 1059.8958333334303,
      "v": 78
    },
    {
      "midi": 71,
      "hit": false,
      "t": 289236.9791666666,
      "d": 786.4583333334303,
      "v": 66
    },
    {
      "midi": 30,
      "hit": false,
      "t": 289239.5833333333,
      "d": 520.8333333333721,
      "v": 79
    },
    {
      "midi": 42,
      "hit": false,
      "t": 289744.7916666667,
      "d": 96.35416666668607,
      "v": 78
    },
    {
      "midi": 53,
      "hit": false,
      "t": 290148.43750000006,
      "d": 299.47916666668607,
      "v": 88
    },
    {
      "midi": 73,
      "hit": false,
      "t": 290492.18750000006,
      "d": 52.08333333337214,
      "v": 78
    },
    {
      "midi": 61,
      "hit": false,
      "t": 290494.79166666674,
      "d": 145.83333333331393,
      "v": 77
    },
    {
      "midi": 70,
      "hit": false,
      "t": 290502.60416666674,
      "d": 54.6875,
      "v": 82
    },
    {
      "midi": 54,
      "hit": false,
      "t": 290505.20833333343,
      "d": 492.1874999999418,
      "v": 71
    },
    {
      "midi": 61,
      "hit": false,
      "t": 290739.5833333334,
      "d": 70.3125,
      "v": 63
    },
    {
      "midi": 63,
      "hit": false,
      "t": 290822.9166666667,
      "d": 85.9375,
      "v": 68
    },
    {
      "midi": 61,
      "hit": false,
      "t": 290885.4166666667,
      "d": 289.0625,
      "v": 79
    },
    {
      "midi": 58,
      "hit": false,
      "t": 290911.4583333334,
      "d": 380.20833333331393,
      "v": 67
    },
    {
      "midi": 42,
      "hit": false,
      "t": 290924.4791666667,
      "d": 309.89583333331393,
      "v": 59
    },
    {
      "midi": 60,
      "hit": false,
      "t": 291187.5,
      "d": 164.0625,
      "v": 83
    },
    {
      "midi": 61,
      "hit": false,
      "t": 291406.25,
      "d": 203.125,
      "v": 74
    },
    {
      "midi": 57,
      "hit": false,
      "t": 291421.875,
      "d": 117.1875,
      "v": 65
    },
    {
      "midi": 35,
      "hit": false,
      "t": 291437.5,
      "d": 145.83333333331393,
      "v": 64
    },
    {
      "midi": 63,
      "hit": false,
      "t": 291598.9583333333,
      "d": 242.1874999999418,
      "v": 72
    },
    {
      "midi": 59,
      "hit": false,
      "t": 291609.375,
      "d": 164.0625,
      "v": 66
    },
    {
      "midi": 28,
      "hit": false,
      "t": 291807.2916666666,
      "d": 145.83333333331393,
      "v": 77
    },
    {
      "midi": 56,
      "hit": false,
      "t": 291812.49999999994,
      "d": 346.35416666662786,
      "v": 65
    },
    {
      "midi": 64,
      "hit": false,
      "t": 291820.31249999994,
      "d": 799.4791666666279,
      "v": 84
    },
    {
      "midi": 47,
      "hit": false,
      "t": 292210.9374999999,
      "d": 421.875,
      "v": 65
    },
    {
      "midi": 59,
      "hit": false,
      "t": 292632.8124999999,
      "d": 375,
      "v": 68
    },
    {
      "midi": 58,
      "hit": false,
      "t": 293015.6249999999,
      "d": 312.4999999999418,
      "v": 74
    },
    {
      "midi": 64,
      "hit": false,
      "t": 293242.1874999998,
      "d": 44.27083333331393,
      "v": 59
    },
    {
      "midi": 66,
      "hit": false,
      "t": 293294.27083333314,
      "d": 138.02083333337214,
      "v": 66
    },
    {
      "midi": 64,
      "hit": false,
      "t": 293367.1874999998,
      "d": 250,
      "v": 71
    },
    {
      "midi": 61,
      "hit": false,
      "t": 293385.4166666665,
      "d": 390.625,
      "v": 59
    },
    {
      "midi": 57,
      "hit": false,
      "t": 293385.4166666665,
      "d": 447.91666666668607,
      "v": 54
    },
    {
      "midi": 63,
      "hit": false,
      "t": 293601.5624999998,
      "d": 156.25,
      "v": 75
    },
    {
      "midi": 64,
      "hit": false,
      "t": 293815.1041666665,
      "d": 234.375,
      "v": 74
    },
    {
      "midi": 60,
      "hit": false,
      "t": 293822.9166666665,
      "d": 101.5625,
      "v": 65
    },
    {
      "midi": 50,
      "hit": false,
      "t": 293841.1458333332,
      "d": 486.97916666656965,
      "v": 42
    },
    {
      "midi": 62,
      "hit": false,
      "t": 294057.2916666665,
      "d": 93.75,
      "v": 69
    },
    {
      "midi": 66,
      "hit": false,
      "t": 294057.2916666665,
      "d": 242.1874999999418,
      "v": 70
    },
    {
      "midi": 43,
      "hit": false,
      "t": 294265.6249999998,
      "d": 171.8749999999418,
      "v": 47
    },
    {
      "midi": 67,
      "hit": false,
      "t": 294328.12499999977,
      "d": 52.08333333331393,
      "v": 70
    },
    {
      "midi": 59,
      "hit": false,
      "t": 294341.1458333331,
      "d": 54.6875,
      "v": 53
    },
    {
      "midi": 84,
      "hit": false,
      "t": 294708.3333333331,
      "d": 88.54166666668607,
      "v": 84
    },
    {
      "midi": 76,
      "hit": false,
      "t": 294716.1458333331,
      "d": 106.77083333337214,
      "v": 74
    },
    {
      "midi": 83,
      "hit": false,
      "t": 294934.89583333314,
      "d": 80.72916666662786,
      "v": 72
    },
    {
      "midi": 74,
      "hit": false,
      "t": 294942.70833333314,
      "d": 143.22916666662786,
      "v": 73
    },
    {
      "midi": 50,
      "hit": false,
      "t": 294963.54166666645,
      "d": 937.5,
      "v": 51
    },
    {
      "midi": 72,
      "hit": false,
      "t": 295119.79166666645,
      "d": 106.77083333331393,
      "v": 80
    },
    {
      "midi": 78,
      "hit": false,
      "t": 295124.99999999977,
      "d": 98.95833333331393,
      "v": 73
    },
    {
      "midi": 71,
      "hit": false,
      "t": 295296.87499999977,
      "d": 125.00000000005821,
      "v": 71
    },
    {
      "midi": 79,
      "hit": false,
      "t": 295307.29166666645,
      "d": 169.27083333337214,
      "v": 78
    },
    {
      "midi": 59,
      "hit": false,
      "t": 295317.70833333314,
      "d": 307.29166666662786,
      "v": 47
    },
    {
      "midi": 72,
      "hit": false,
      "t": 295466.14583333314,
      "d": 83.33333333331393,
      "v": 87
    },
    {
      "midi": 76,
      "hit": false,
      "t": 295481.77083333314,
      "d": 158.85416666662786,
      "v": 83
    },
    {
      "midi": 74,
      "hit": false,
      "t": 295671.87499999977,
      "d": 184.89583333337214,
      "v": 83
    },
    {
      "midi": 71,
      "hit": false,
      "t": 295679.68749999977,
      "d": 122.39583333331393,
      "v": 57
    },
    {
      "midi": 62,
      "hit": false,
      "t": 295692.7083333331,
      "d": 208.33333333337214,
      "v": 48
    },
    {
      "midi": 77,
      "hit": false,
      "t": 295854.16666666645,
      "d": 49.47916666668607,
      "v": 80
    },
    {
      "midi": 69,
      "hit": false,
      "t": 295856.77083333314,
      "d": 91.14583333331393,
      "v": 68
    },
    {
      "midi": 52,
      "hit": false,
      "t": 296057.29166666645,
      "d": 226.5625,
      "v": 50
    },
    {
      "midi": 76,
      "hit": false,
      "t": 296065.10416666645,
      "d": 54.6875,
      "v": 62
    },
    {
      "midi": 68,
      "hit": false,
      "t": 296070.31249999977,
      "d": 96.35416666668607,
      "v": 51
    },
    {
      "midi": 65,
      "hit": false,
      "t": 296249.99999999977,
      "d": 59.89583333337214,
      "v": 58
    },
    {
      "midi": 69,
      "hit": false,
      "t": 296257.81249999977,
      "d": 210.9375000000582,
      "v": 63
    },
    {
      "midi": 71,
      "hit": false,
      "t": 296471.3541666665,
      "d": 226.5625000000582,
      "v": 54
    },
    {
      "midi": 40,
      "hit": false,
      "t": 296494.7916666665,
      "d": 114.58333333337214,
      "v": 41
    },
    {
      "midi": 64,
      "hit": false,
      "t": 296502.6041666665,
      "d": 54.6875,
      "v": 47
    },
    {
      "midi": 62,
      "hit": false,
      "t": 296718.7499999999,
      "d": 96.35416666668607,
      "v": 38
    },
    {
      "midi": 72,
      "hit": false,
      "t": 296718.7499999999,
      "d": 216.14583333337214,
      "v": 59
    },
    {
      "midi": 60,
      "hit": false,
      "t": 297033.85416666657,
      "d": 414.0625,
      "v": 34
    },
    {
      "midi": 64,
      "hit": false,
      "t": 297057.29166666657,
      "d": 708.3333333333139,
      "v": 57
    },
    {
      "midi": 45,
      "hit": false,
      "t": 297065.10416666657,
      "d": 408.85416666668607,
      "v": 37
    },
    {
      "midi": 52,
      "hit": false,
      "t": 297510.41666666657,
      "d": 304.6875,
      "v": 41
    },
    {
      "midi": 60,
      "hit": false,
      "t": 297945.3124999999,
      "d": 328.125,
      "v": 47
    },
    {
      "midi": 72,
      "hit": false,
      "t": 298307.29166666657,
      "d": 385.41666666662786,
      "v": 76
    },
    {
      "midi": 69,
      "hit": false,
      "t": 298328.1249999999,
      "d": 166.66666666662786,
      "v": 45
    },
    {
      "midi": 64,
      "hit": false,
      "t": 298333.3333333332,
      "d": 312.5,
      "v": 42
    },
    {
      "midi": 68,
      "hit": false,
      "t": 298708.3333333332,
      "d": 177.08333333337214,
      "v": 40
    },
    {
      "midi": 71,
      "hit": false,
      "t": 298718.7499999999,
      "d": 192.70833333331393,
      "v": 56
    },
    {
      "midi": 62,
      "hit": false,
      "t": 298726.5624999999,
      "d": 236.97916666662786,
      "v": 39
    },
    {
      "midi": 72,
      "hit": false,
      "t": 298916.6666666665,
      "d": 161.45833333337214,
      "v": 70
    },
    {
      "midi": 69,
      "hit": false,
      "t": 298937.4999999998,
      "d": 67.70833333337214,
      "v": 44
    },
    {
      "midi": 74,
      "hit": false,
      "t": 299127.60416666657,
      "d": 208.33333333331393,
      "v": 64
    },
    {
      "midi": 71,
      "hit": false,
      "t": 299135.41666666657,
      "d": 57.29166666668607,
      "v": 36
    },
    {
      "midi": 52,
      "hit": false,
      "t": 299158.85416666657,
      "d": 85.9375,
      "v": 34
    },
    {
      "midi": 68,
      "hit": false,
      "t": 299335.9374999999,
      "d": 80.72916666668607,
      "v": 46
    },
    {
      "midi": 77,
      "hit": false,
      "t": 299335.9374999999,
      "d": 330.72916666668607,
      "v": 63
    },
    {
      "midi": 45,
      "hit": false,
      "t": 299635.41666666657,
      "d": 359.3750000000582,
      "v": 38
    },
    {
      "midi": 76,
      "hit": false,
      "t": 299635.41666666657,
      "d": 393.2291666667443,
      "v": 57
    },
    {
      "midi": 72,
      "hit": false,
      "t": 299658.85416666657,
      "d": 330.72916666668607,
      "v": 31
    },
    {
      "midi": 52,
      "hit": false,
      "t": 300083.3333333333,
      "d": 335.9375,
      "v": 34
    },
    {
      "midi": 60,
      "hit": false,
      "t": 300515.625,
      "d": 361.97916666668607,
      "v": 25
    },
    {
      "midi": 72,
      "hit": false,
      "t": 300942.7083333334,
      "d": 403.64583333331393,
      "v": 68
    },
    {
      "midi": 64,
      "hit": false,
      "t": 300963.5416666667,
      "d": 354.16666666668607,
      "v": 40
    },
    {
      "midi": 69,
      "hit": false,
      "t": 300968.75,
      "d": 166.66666666668607,
      "v": 30
    },
    {
      "midi": 68,
      "hit": false,
      "t": 301348.9583333334,
      "d": 88.54166666668607,
      "v": 41
    },
    {
      "midi": 71,
      "hit": false,
      "t": 301351.56250000006,
      "d": 231.77083333331393,
      "v": 59
    },
    {
      "midi": 62,
      "hit": false,
      "t": 301463.54166666674,
      "d": 294.2708333332557,
      "v": 2
    },
    {
      "midi": 72,
      "hit": false,
      "t": 301578.12500000006,
      "d": 143.22916666662786,
      "v": 77
    },
    {
      "midi": 69,
      "hit": false,
      "t": 301627.6041666667,
      "d": 70.3125,
      "v": 28
    },
    {
      "midi": 74,
      "hit": false,
      "t": 301776.0416666667,
      "d": 52.08333333331393,
      "v": 78
    },
    {
      "midi": 52,
      "hit": false,
      "t": 301789.0625,
      "d": 169.27083333331393,
      "v": 41
    },
    {
      "midi": 71,
      "hit": false,
      "t": 301791.6666666667,
      "d": 49.47916666662786,
      "v": 35
    },
    {
      "midi": 68,
      "hit": false,
      "t": 301986.9791666666,
      "d": 62.5,
      "v": 64
    },
    {
      "midi": 77,
      "hit": false,
      "t": 301994.7916666666,
      "d": 203.125,
      "v": 77
    },
    {
      "midi": 76,
      "hit": false,
      "t": 302236.9791666666,
      "d": 46.87499999994179,
      "v": 80
    },
    {
      "midi": 72,
      "hit": false,
      "t": 302242.18749999994,
      "d": 46.87499999994179,
      "v": 65
    },
    {
      "midi": 45,
      "hit": false,
      "t": 302255.20833333326,
      "d": 346.35416666668607,
      "v": 42
    },
    {
      "midi": 84,
      "hit": false,
      "t": 302424.47916666657,
      "d": 33.85416666668607,
      "v": 96
    },
    {
      "midi": 76,
      "hit": false,
      "t": 302458.33333333326,
      "d": 57.29166666668607,
      "v": 46
    },
    {
      "midi": 83,
      "hit": false,
      "t": 302614.58333333326,
      "d": 93.75000000005821,
      "v": 75
    },
    {
      "midi": 74,
      "hit": false,
      "t": 302617.18749999994,
      "d": 80.72916666668607,
      "v": 79
    },
    {
      "midi": 52,
      "hit": false,
      "t": 302651.0416666666,
      "d": 145.83333333337214,
      "v": 51
    },
    {
      "midi": 80,
      "hit": false,
      "t": 302794.2708333333,
      "d": 117.18750000005821,
      "v": 79
    },
    {
      "midi": 71,
      "hit": false,
      "t": 302799.4791666667,
      "d": 49.47916666668607,
      "v": 60
    },
    {
      "midi": 81,
      "hit": false,
      "t": 302981.7708333334,
      "d": 140.6249999999418,
      "v": 80
    },
    {
      "midi": 72,
      "hit": false,
      "t": 302986.9791666667,
      "d": 59.89583333331393,
      "v": 70
    },
    {
      "midi": 64,
      "hit": false,
      "t": 303015.625,
      "d": 242.1875,
      "v": 63
    },
    {
      "midi": 77,
      "hit": false,
      "t": 303169.2708333333,
      "d": 192.70833333337214,
      "v": 81
    },
    {
      "midi": 74,
      "hit": false,
      "t": 303177.0833333333,
      "d": 49.47916666668607,
      "v": 71
    },
    {
      "midi": 72,
      "hit": false,
      "t": 303361.9791666667,
      "d": 67.70833333331393,
      "v": 71
    },
    {
      "midi": 76,
      "hit": false,
      "t": 303367.1875,
      "d": 57.29166666668607,
      "v": 86
    },
    {
      "midi": 60,
      "hit": false,
      "t": 303401.0416666667,
      "d": 244.79166666662786,
      "v": 21
    },
    {
      "midi": 71,
      "hit": false,
      "t": 303546.875,
      "d": 44.27083333331393,
      "v": 62
    },
    {
      "midi": 79,
      "hit": false,
      "t": 303546.875,
      "d": 46.875,
      "v": 65
    },
    {
      "midi": 78,
      "hit": false,
      "t": 303744.7916666666,
      "d": 52.08333333331393,
      "v": 69
    },
    {
      "midi": 69,
      "hit": false,
      "t": 303760.4166666666,
      "d": 49.47916666662786,
      "v": 59
    },
    {
      "midi": 50,
      "hit": false,
      "t": 303765.62499999994,
      "d": 85.9375,
      "v": 45
    },
    {
      "midi": 67,
      "hit": false,
      "t": 303958.33333333326,
      "d": 62.5,
      "v": 43
    },
    {
      "midi": 71,
      "hit": false,
      "t": 303958.33333333326,
      "d": 65.10416666668607,
      "v": 39
    },
    {
      "midi": 66,
      "hit": false,
      "t": 304140.62499999994,
      "d": 62.5,
      "v": 58
    },
    {
      "midi": 72,
      "hit": false,
      "t": 304151.0416666666,
      "d": 218.75,
      "v": 63
    },
    {
      "midi": 38,
      "hit": false,
      "t": 304187.49999999994,
      "d": 65.10416666668607,
      "v": 40
    },
    {
      "midi": 62,
      "hit": false,
      "t": 304377.6041666666,
      "d": 75.52083333331393,
      "v": 50
    },
    {
      "midi": 74,
      "hit": false,
      "t": 304390.62499999994,
      "d": 283.85416666668607,
      "v": 61
    },
    {
      "midi": 71,
      "hit": false,
      "t": 304713.5416666666,
      "d": 710.9375,
      "v": 49
    },
    {
      "midi": 43,
      "hit": false,
      "t": 304718.74999999994,
      "d": 460.9375,
      "v": 37
    },
    {
      "midi": 67,
      "hit": false,
      "t": 304742.18749999994,
      "d": 773.4375,
      "v": 38
    },
    {
      "midi": 50,
      "hit": false,
      "t": 305166.6666666666,
      "d": 375,
      "v": 50
    },
    {
      "midi": 62,
      "hit": false,
      "t": 305627.6041666666,
      "d": 382.8125,
      "v": 55
    },
    {
      "midi": 61,
      "hit": false,
      "t": 306010.4166666666,
      "d": 296.8750000000582,
      "v": 47
    },
    {
      "midi": 67,
      "hit": false,
      "t": 306184.8958333333,
      "d": 46.875,
      "v": 74
    },
    {
      "midi": 69,
      "hit": false,
      "t": 306289.0625,
      "d": 57.29166666668607,
      "v": 64
    },
    {
      "midi": 67,
      "hit": false,
      "t": 306317.7083333334,
      "d": 223.95833333331393,
      "v": 71
    },
    {
      "midi": 64,
      "hit": false,
      "t": 306333.3333333334,
      "d": 226.5625,
      "v": 59
    },
    {
      "midi": 60,
      "hit": false,
      "t": 306338.5416666667,
      "d": 348.95833333337214,
      "v": 50
    },
    {
      "midi": 66,
      "hit": false,
      "t": 306528.6458333334,
      "d": 190.10416666668607,
      "v": 73
    },
    {
      "midi": 67,
      "hit": false,
      "t": 306726.56250000006,
      "d": 221.35416666662786,
      "v": 81
    },
    {
      "midi": 53,
      "hit": false,
      "t": 306734.37500000006,
      "d": 257.8125,
      "v": 36
    },
    {
      "midi": 63,
      "hit": false,
      "t": 306739.5833333334,
      "d": 72.91666666668607,
      "v": 50
    },
    {
      "midi": 69,
      "hit": false,
      "t": 306942.7083333334,
      "d": 291.6666666667443,
      "v": 75
    },
    {
      "midi": 65,
      "hit": false,
      "t": 306958.3333333334,
      "d": 67.70833333337214,
      "v": 59
    },
    {
      "midi": 46,
      "hit": false,
      "t": 307140.62500000006,
      "d": 390.6250000000582,
      "v": 64
    },
    {
      "midi": 70,
      "hit": false,
      "t": 307208.33333333343,
      "d": 1278.645833333314,
      "v": 65
    },
    {
      "midi": 62,
      "hit": false,
      "t": 307218.7500000001,
      "d": 359.375,
      "v": 43
    },
    {
      "midi": 53,
      "hit": false,
      "t": 307578.1250000001,
      "d": 523.4375,
      "v": 56
    },
    {
      "midi": 65,
      "hit": false,
      "t": 308122.39583333343,
      "d": 393.22916666662786,
      "v": 60
    },
    {
      "midi": 64,
      "hit": false,
      "t": 308588.54166666674,
      "d": 307.29166666668607,
      "v": 53
    },
    {
      "midi": 70,
      "hit": false,
      "t": 308841.14583333343,
      "d": 59.89583333331393,
      "v": 60
    },
    {
      "midi": 72,
      "hit": false,
      "t": 308916.66666666674,
      "d": 49.47916666668607,
      "v": 66
    },
    {
      "midi": 70,
      "hit": false,
      "t": 308968.7500000001,
      "d": 244.79166666662786,
      "v": 83
    },
    {
      "midi": 63,
      "hit": false,
      "t": 308984.3750000001,
      "d": 304.6874999999418,
      "v": 41
    },
    {
      "midi": 67,
      "hit": false,
      "t": 308989.58333333343,
      "d": 239.58333333331393,
      "v": 49
    },
    {
      "midi": 69,
      "hit": false,
      "t": 309213.54166666674,
      "d": 203.125,
      "v": 71
    },
    {
      "midi": 70,
      "hit": false,
      "t": 309427.08333333343,
      "d": 156.2499999999418,
      "v": 85
    },
    {
      "midi": 66,
      "hit": false,
      "t": 309447.91666666674,
      "d": 83.33333333331393,
      "v": 48
    },
    {
      "midi": 56,
      "hit": false,
      "t": 309468.75000000006,
      "d": 325.5208333332557,
      "v": 37
    },
    {
      "midi": 68,
      "hit": false,
      "t": 309635.4166666667,
      "d": 67.70833333331393,
      "v": 54
    },
    {
      "midi": 72,
      "hit": false,
      "t": 309640.625,
      "d": 187.5,
      "v": 75
    },
    {
      "midi": 73,
      "hit": false,
      "t": 309859.375,
      "d": 244.79166666668607,
      "v": 60
    },
    {
      "midi": 49,
      "hit": false,
      "t": 309877.6041666667,
      "d": 351.5625,
      "v": 39
    },
    {
      "midi": 65,
      "hit": false,
      "t": 309882.8125,
      "d": 158.85416666668607,
      "v": 58
    },
    {
      "midi": 73,
      "hit": false,
      "t": 310221.3541666667,
      "d": 62.5,
      "v": 36
    },
    {
      "midi": 75,
      "hit": false,
      "t": 310286.4583333334,
      "d": 52.08333333331393,
      "v": 53
    },
    {
      "midi": 54,
      "hit": false,
      "t": 310356.7708333334,
      "d": 403.64583333337214,
      "v": 36
    },
    {
      "midi": 70,
      "hit": false,
      "t": 310359.37500000006,
      "d": 338.54166666668607,
      "v": 52
    },
    {
      "midi": 73,
      "hit": false,
      "t": 310380.2083333334,
      "d": 197.91666666668607,
      "v": 70
    },
    {
      "midi": 72,
      "hit": false,
      "t": 310611.97916666674,
      "d": 85.9375,
      "v": 69
    },
    {
      "midi": 73,
      "hit": false,
      "t": 310804.68750000006,
      "d": 205.72916666662786,
      "v": 64
    },
    {
      "midi": 69,
      "hit": false,
      "t": 310822.91666666674,
      "d": 83.33333333331393,
      "v": 45
    },
    {
      "midi": 47,
      "hit": false,
      "t": 310841.1458333334,
      "d": 468.7499999999418,
      "v": 43
    },
    {
      "midi": 75,
      "hit": false,
      "t": 311054.6875,
      "d": 283.85416666662786,
      "v": 52
    },
    {
      "midi": 71,
      "hit": false,
      "t": 311067.7083333333,
      "d": 78.125,
      "v": 38
    },
    {
      "midi": 68,
      "hit": false,
      "t": 311359.375,
      "d": 182.29166666668607,
      "v": 34
    },
    {
      "midi": 76,
      "hit": false,
      "t": 311369.7916666667,
      "d": 145.83333333331393,
      "v": 59
    },
    {
      "midi": 40,
      "hit": false,
      "t": 311372.3958333334,
      "d": 518.2291666666861,
      "v": 43
    },
    {
      "midi": 76,
      "hit": false,
      "t": 311783.8541666667,
      "d": 57.29166666668607,
      "v": 43
    },
    {
      "midi": 78,
      "hit": false,
      "t": 311859.37500000006,
      "d": 75.52083333331393,
      "v": 52
    },
    {
      "midi": 76,
      "hit": false,
      "t": 311947.9166666667,
      "d": 309.89583333337214,
      "v": 56
    },
    {
      "midi": 73,
      "hit": false,
      "t": 311971.3541666667,
      "d": 544.2708333333721,
      "v": 41
    },
    {
      "midi": 33,
      "hit": false,
      "t": 311994.7916666667,
      "d": 549.4791666666861,
      "v": 32
    },
    {
      "midi": 75,
      "hit": false,
      "t": 312273.43750000006,
      "d": 367.1875,
      "v": 45
    },
    {
      "midi": 72,
      "hit": false,
      "t": 312640.62500000006,
      "d": 528.6458333333139,
      "v": 34
    },
    {
      "midi": 26,
      "hit": false,
      "t": 312651.04166666674,
      "d": 1028.645833333314,
      "v": 31
    },
    {
      "midi": 76,
      "hit": false,
      "t": 312664.06250000006,
      "d": 455.72916666668607,
      "v": 45
    },
    {
      "midi": 78,
      "hit": false,
      "t": 313148.43750000006,
      "d": 1122.395833333314,
      "v": 35
    },
    {
      "midi": 74,
      "hit": false,
      "t": 313187.50000000006,
      "d": 320.3125,
      "v": 25
    },
    {
      "midi": 70,
      "hit": false,
      "t": 314132.81250000006,
      "d": 2804.687499999942,
      "v": 40
    },
    {
      "midi": 79,
      "hit": false,
      "t": 314132.81250000006,
      "d": 2893.229166666628,
      "v": 32
    },
    {
      "midi": 25,
      "hit": false,
      "t": 314135.41666666674,
      "d": 2184.8958333332557,
      "v": 34
    },
    {
      "midi": 76,
      "hit": false,
      "t": 314164.06250000006,
      "d": 2908.854166666628,
      "v": 32
    },
    {
      "midi": 58,
      "hit": false,
      "t": 318921.875,
      "d": 2437.5,
      "v": 68
    },
    {
      "midi": 49,
      "hit": false,
      "t": 321171.875,
      "d": 697.9166666666279,
      "v": 41
    },
    {
      "midi": 50,
      "hit": false,
      "t": 321786.4583333333,
      "d": 3750.000000000058,
      "v": 44
    },
    {
      "midi": 62,
      "hit": false,
      "t": 323861.9791666666,
      "d": 382.8125,
      "v": 36
    },
    {
      "midi": 64,
      "hit": false,
      "t": 324716.1458333333,
      "d": 424.47916666668607,
      "v": 48
    },
    {
      "midi": 60,
      "hit": false,
      "t": 325166.6666666667,
      "d": 661.4583333333721,
      "v": 31
    },
    {
      "midi": 62,
      "hit": false,
      "t": 325174.4791666667,
      "d": 739.5833333333721,
      "v": 35
    },
    {
      "midi": 54,
      "hit": false,
      "t": 325177.0833333334,
      "d": 713.5416666666861,
      "v": 23
    },
    {
      "midi": 38,
      "hit": false,
      "t": 325216.1458333334,
      "d": 1882.8125,
      "v": 28
    },
    {
      "midi": 50,
      "hit": false,
      "t": 325966.1458333334,
      "d": 856.7708333333139,
      "v": 41
    },
    {
      "midi": 62,
      "hit": false,
      "t": 326361.9791666667,
      "d": 679.6875,
      "v": 44
    },
    {
      "midi": 54,
      "hit": false,
      "t": 326364.5833333334,
      "d": 552.0833333333139,
      "v": 28
    },
    {
      "midi": 60,
      "hit": false,
      "t": 326364.5833333334,
      "d": 596.3541666666279,
      "v": 33
    },
    {
      "midi": 64,
      "hit": false,
      "t": 327208.3333333334,
      "d": 65.10416666668607,
      "v": 42
    },
    {
      "midi": 62,
      "hit": false,
      "t": 327786.4583333334,
      "d": 671.875,
      "v": 39
    },
    {
      "midi": 59,
      "hit": false,
      "t": 327791.6666666667,
      "d": 854.1666666666861,
      "v": 23
    },
    {
      "midi": 55,
      "hit": false,
      "t": 327807.2916666667,
      "d": 940.1041666666861,
      "v": 19
    },
    {
      "midi": 43,
      "hit": false,
      "t": 327809.8958333334,
      "d": 1966.145833333314,
      "v": 27
    },
    {
      "midi": 31,
      "hit": false,
      "t": 327809.8958333334,
      "d": 2023.4375,
      "v": 29
    },
    {
      "midi": 50,
      "hit": false,
      "t": 328697.9166666667,
      "d": 135.41666666668607,
      "v": 26
    },
    {
      "midi": 55,
      "hit": false,
      "t": 329307.2916666667,
      "d": 315.10416666668607,
      "v": 3
    },
    {
      "midi": 62,
      "hit": false,
      "t": 329315.1041666667,
      "d": 518.2291666666861,
      "v": 31
    },
    {
      "midi": 59,
      "hit": false,
      "t": 329317.7083333334,
      "d": 427.08333333331393,
      "v": 11
    },
    {
      "midi": 71,
      "hit": false,
      "t": 330421.87500000006,
      "d": 200.52083333331393,
      "v": 46
    },
    {
      "midi": 71,
      "hit": false,
      "t": 331156.25000000006,
      "d": 1158.854166666686,
      "v": 37
    },
    {
      "midi": 60,
      "hit": false,
      "t": 331182.29166666674,
      "d": 3278.645833333314,
      "v": 27
    },
    {
      "midi": 52,
      "hit": false,
      "t": 331182.29166666674,
      "d": 3401.041666666628,
      "v": 28
    },
    {
      "midi": 43,
      "hit": false,
      "t": 331182.29166666674,
      "d": 5690.10416666657,
      "v": 29
    },
    {
      "midi": 69,
      "hit": false,
      "t": 332221.35416666674,
      "d": 502.60416666668607,
      "v": 40
    },
    {
      "midi": 67,
      "hit": false,
      "t": 332734.3750000001,
      "d": 1453.1249999999418,
      "v": 37
    },
    {
      "midi": 64,
      "hit": false,
      "t": 334171.87500000006,
      "d": 736.9791666666279,
      "v": 22
    },
    {
      "midi": 50,
      "hit": false,
      "t": 334958.3333333334,
      "d": 1768.2291666666279,
      "v": 17
    },
    {
      "midi": 62,
      "hit": false,
      "t": 334973.9583333334,
      "d": 1861.9791666666279,
      "v": 17
    },
    {
      "midi": 59,
      "hit": false,
      "t": 334981.7708333334,
      "d": 1799.4791666666279,
      "v": 11
    },
    {
      "midi": 38,
      "hit": false,
      "t": 338364.5833333333,
      "d": 1856.7708333333721,
      "v": 14
    },
    {
      "midi": 54,
      "hit": false,
      "t": 338380.2083333333,
      "d": 1851.5625000000582,
      "v": 24
    },
    {
      "midi": 60,
      "hit": false,
      "t": 338382.8125,
      "d": 1877.604166666686,
      "v": 35
    },
    {
      "midi": 55,
      "hit": false,
      "t": 342708.3333333333,
      "d": 5651.041666666686,
      "v": 14
    },
    {
      "midi": 59,
      "hit": false,
      "t": 342716.1458333333,
      "d": 5643.229166666686,
      "v": 19
    },
    {
      "midi": 31,
      "hit": false,
      "t": 342721.3541666666,
      "d": 5549.479166666686,
      "v": 17
    },
    {
      "midi": 43,
      "hit": false,
      "t": 342723.9583333333,
      "d": 5401.041666666686,
      "v": 8
    },
    {
      "midi": 50,
      "hit": false,
      "t": 342726.5625,
      "d": 5546.875,
      "v": 12
    }
  ]
}