{
  "jsonPath": "Rock/Album Rock/Aerosmith/crazy.json",
  "path": "Rock\\Album Rock\\Aerosmith\\Crazy.mid",
  "name": "Crazy",
  "difficulty": "Advanced",
  "bpm": 90.00009000009,
  "notes": [
    {
      "midi": 57,
      "hit": false,
      "t": 0,
      "d": 222.222,
      "v": 41
    },
    {
      "midi": 73,
      "hit": false,
      "t": 0,
      "d": 888.888,
      "v": 27
    },
    {
      "midi": 76,
      "hit": false,
      "t": 0,
      "d": 888.888,
      "v": 27
    },
    {
      "midi": 49,
      "hit": false,
      "t": 0,
      "d": 444.444,
      "v": 64
    },
    {
      "midi": 64,
      "hit": false,
      "t": 333.333,
      "d": 222.22200000000004,
      "v": 41
    },
    {
      "midi": 69,
      "hit": false,
      "t": 666.666,
      "d": 222.2220000000001,
      "v": 41
    },
    {
      "midi": 71,
      "hit": false,
      "t": 833.3325000000001,
      "d": 111.1110000000001,
      "v": 41
    },
    {
      "midi": 73,
      "hit": false,
      "t": 999.9990000000003,
      "d": 222.22199999999998,
      "v": 41
    },
    {
      "midi": 76,
      "hit": false,
      "t": 999.9990000000003,
      "d": 222.22199999999998,
      "v": 41
    },
    {
      "midi": 71,
      "hit": false,
      "t": 1333.332,
      "d": 222.22199999999998,
      "v": 27
    },
    {
      "midi": 76,
      "hit": false,
      "t": 1333.332,
      "d": 222.22199999999998,
      "v": 27
    },
    {
      "midi": 71,
      "hit": false,
      "t": 1333.3320000000003,
      "d": 222.22199999999998,
      "v": 41
    },
    {
      "midi": 69,
      "hit": false,
      "t": 1666.6650000000002,
      "d": 222.22199999999998,
      "v": 27
    },
    {
      "midi": 69,
      "hit": false,
      "t": 1666.6650000000004,
      "d": 222.22199999999998,
      "v": 41
    },
    {
      "midi": 73,
      "hit": false,
      "t": 1999.9980000000003,
      "d": 888.8880000000001,
      "v": 27
    },
    {
      "midi": 76,
      "hit": false,
      "t": 1999.9980000000003,
      "d": 888.8880000000001,
      "v": 27
    },
    {
      "midi": 57,
      "hit": false,
      "t": 1999.9980000000005,
      "d": 222.2220000000002,
      "v": 41
    },
    {
      "midi": 61,
      "hit": false,
      "t": 2333.3310000000006,
      "d": 222.2220000000002,
      "v": 41
    },
    {
      "midi": 66,
      "hit": false,
      "t": 2666.6640000000007,
      "d": 222.22199999999975,
      "v": 41
    },
    {
      "midi": 71,
      "hit": false,
      "t": 2833.3305000000005,
      "d": 111.11099999999988,
      "v": 41
    },
    {
      "midi": 73,
      "hit": false,
      "t": 2999.9970000000003,
      "d": 222.2220000000002,
      "v": 41
    },
    {
      "midi": 76,
      "hit": false,
      "t": 2999.9970000000003,
      "d": 222.2220000000002,
      "v": 41
    },
    {
      "midi": 71,
      "hit": false,
      "t": 3333.3300000000004,
      "d": 222.2220000000002,
      "v": 41
    },
    {
      "midi": 71,
      "hit": false,
      "t": 3333.3300000000004,
      "d": 222.2220000000002,
      "v": 27
    },
    {
      "midi": 76,
      "hit": false,
      "t": 3333.3300000000004,
      "d": 222.2220000000002,
      "v": 27
    },
    {
      "midi": 69,
      "hit": false,
      "t": 3666.6630000000005,
      "d": 222.2220000000002,
      "v": 41
    },
    {
      "midi": 69,
      "hit": false,
      "t": 3666.6630000000005,
      "d": 222.2220000000002,
      "v": 27
    },
    {
      "midi": 62,
      "hit": false,
      "t": 3999.9960000000005,
      "d": 222.2220000000002,
      "v": 41
    },
    {
      "midi": 69,
      "hit": false,
      "t": 3999.9960000000005,
      "d": 888.8880000000004,
      "v": 27
    },
    {
      "midi": 74,
      "hit": false,
      "t": 3999.9960000000005,
      "d": 888.8880000000004,
      "v": 27
    },
    {
      "midi": 69,
      "hit": false,
      "t": 4333.329000000001,
      "d": 222.22199999999975,
      "v": 41
    },
    {
      "midi": 74,
      "hit": false,
      "t": 4666.662,
      "d": 222.22200000000066,
      "v": 41
    },
    {
      "midi": 76,
      "hit": false,
      "t": 4833.3285000000005,
      "d": 111.11100000000079,
      "v": 41
    },
    {
      "midi": 78,
      "hit": false,
      "t": 4999.995000000002,
      "d": 222.22199999999975,
      "v": 41
    },
    {
      "midi": 76,
      "hit": false,
      "t": 5333.328000000001,
      "d": 222.22199999999975,
      "v": 41
    },
    {
      "midi": 64,
      "hit": false,
      "t": 5333.328000000001,
      "d": 222.22199999999975,
      "v": 27
    },
    {
      "midi": 69,
      "hit": false,
      "t": 5333.328000000001,
      "d": 222.22199999999975,
      "v": 27
    },
    {
      "midi": 69,
      "hit": false,
      "t": 5666.661000000001,
      "d": 222.22199999999975,
      "v": 41
    },
    {
      "midi": 66,
      "hit": false,
      "t": 5666.661000000001,
      "d": 222.22199999999975,
      "v": 27
    },
    {
      "midi": 69,
      "hit": false,
      "t": 5666.661000000001,
      "d": 222.22199999999975,
      "v": 27
    },
    {
      "midi": 62,
      "hit": false,
      "t": 5999.994000000001,
      "d": 222.22199999999975,
      "v": 41
    },
    {
      "midi": 62,
      "hit": false,
      "t": 5999.994000000001,
      "d": 444.4440000000004,
      "v": 27
    },
    {
      "midi": 65,
      "hit": false,
      "t": 5999.994000000001,
      "d": 888.8879999999999,
      "v": 27
    },
    {
      "midi": 69,
      "hit": false,
      "t": 6333.327,
      "d": 222.22199999999975,
      "v": 41
    },
    {
      "midi": 74,
      "hit": false,
      "t": 6666.66,
      "d": 222.22200000000066,
      "v": 41
    },
    {
      "midi": 69,
      "hit": false,
      "t": 6666.660000000001,
      "d": 888.8879999999999,
      "v": 27
    },
    {
      "midi": 74,
      "hit": false,
      "t": 6666.660000000001,
      "d": 888.8879999999999,
      "v": 27
    },
    {
      "midi": 76,
      "hit": false,
      "t": 6833.3265,
      "d": 111.11100000000079,
      "v": 41
    },
    {
      "midi": 77,
      "hit": false,
      "t": 6999.993000000001,
      "d": 222.22199999999975,
      "v": 41
    },
    {
      "midi": 76,
      "hit": false,
      "t": 7333.326000000001,
      "d": 222.22199999999975,
      "v": 41
    },
    {
      "midi": 65,
      "hit": false,
      "t": 7333.326000000001,
      "d": 222.22199999999975,
      "v": 27
    },
    {
      "midi": 74,
      "hit": false,
      "t": 7666.659000000001,
      "d": 222.22199999999975,
      "v": 41
    },
    {
      "midi": 69,
      "hit": false,
      "t": 7666.659000000001,
      "d": 222.22199999999975,
      "v": 27
    },
    {
      "midi": 57,
      "hit": false,
      "t": 7999.992,
      "d": 222.22199999999975,
      "v": 41
    },
    {
      "midi": 73,
      "hit": false,
      "t": 7999.992,
      "d": 888.8880000000008,
      "v": 27
    },
    {
      "midi": 76,
      "hit": false,
      "t": 7999.992,
      "d": 888.8880000000008,
      "v": 27
    },
    {
      "midi": 64,
      "hit": false,
      "t": 8333.325,
      "d": 222.22199999999975,
      "v": 41
    },
    {
      "midi": 69,
      "hit": false,
      "t": 8666.658000000001,
      "d": 222.22199999999975,
      "v": 41
    },
    {
      "midi": 71,
      "hit": false,
      "t": 8833.3245,
      "d": 111.11100000000079,
      "v": 41
    },
    {
      "midi": 73,
      "hit": false,
      "t": 8999.991000000002,
      "d": 222.22199999999975,
      "v": 41
    },
    {
      "midi": 76,
      "hit": false,
      "t": 8999.991000000002,
      "d": 222.22199999999975,
      "v": 41
    },
    {
      "midi": 71,
      "hit": false,
      "t": 9333.324,
      "d": 222.22199999999975,
      "v": 27
    },
    {
      "midi": 76,
      "hit": false,
      "t": 9333.324,
      "d": 222.22199999999975,
      "v": 27
    },
    {
      "midi": 71,
      "hit": false,
      "t": 9333.324000000002,
      "d": 222.22199999999975,
      "v": 41
    },
    {
      "midi": 69,
      "hit": false,
      "t": 9666.657000000001,
      "d": 222.22199999999975,
      "v": 27
    },
    {
      "midi": 69,
      "hit": false,
      "t": 9666.657000000003,
      "d": 222.22199999999975,
      "v": 41
    },
    {
      "midi": 73,
      "hit": false,
      "t": 9999.990000000002,
      "d": 888.8880000000008,
      "v": 27
    },
    {
      "midi": 76,
      "hit": false,
      "t": 9999.990000000002,
      "d": 888.8880000000008,
      "v": 27
    },
    {
      "midi": 57,
      "hit": false,
      "t": 9999.990000000003,
      "d": 222.22199999999975,
      "v": 41
    },
    {
      "midi": 61,
      "hit": false,
      "t": 10333.323000000004,
      "d": 222.22199999999975,
      "v": 41
    },
    {
      "midi": 66,
      "hit": false,
      "t": 10666.656000000004,
      "d": 222.22199999999975,
      "v": 41
    },
    {
      "midi": 71,
      "hit": false,
      "t": 10833.322500000004,
      "d": 111.11100000000079,
      "v": 41
    },
    {
      "midi": 73,
      "hit": false,
      "t": 10999.989000000005,
      "d": 222.22199999999975,
      "v": 41
    },
    {
      "midi": 76,
      "hit": false,
      "t": 10999.989000000005,
      "d": 222.22199999999975,
      "v": 41
    },
    {
      "midi": 71,
      "hit": false,
      "t": 11333.322000000002,
      "d": 222.22199999999975,
      "v": 27
    },
    {
      "midi": 76,
      "hit": false,
      "t": 11333.322000000002,
      "d": 222.22199999999975,
      "v": 27
    },
    {
      "midi": 71,
      "hit": false,
      "t": 11333.322000000006,
      "d": 222.22199999999975,
      "v": 41
    },
    {
      "midi": 69,
      "hit": false,
      "t": 11666.655000000002,
      "d": 222.22199999999975,
      "v": 27
    },
    {
      "midi": 69,
      "hit": false,
      "t": 11666.655000000006,
      "d": 222.22199999999975,
      "v": 41
    },
    {
      "midi": 69,
      "hit": false,
      "t": 11999.988000000003,
      "d": 888.8880000000008,
      "v": 27
    },
    {
      "midi": 74,
      "hit": false,
      "t": 11999.988000000003,
      "d": 888.8880000000008,
      "v": 27
    },
    {
      "midi": 62,
      "hit": false,
      "t": 11999.988000000007,
      "d": 222.22199999999975,
      "v": 41
    },
    {
      "midi": 69,
      "hit": false,
      "t": 12333.321000000007,
      "d": 222.22199999999975,
      "v": 41
    },
    {
      "midi": 74,
      "hit": false,
      "t": 12666.654000000008,
      "d": 222.22199999999975,
      "v": 41
    },
    {
      "midi": 76,
      "hit": false,
      "t": 12833.320500000007,
      "d": 111.11100000000079,
      "v": 41
    },
    {
      "midi": 78,
      "hit": false,
      "t": 12999.987000000008,
      "d": 222.22199999999975,
      "v": 41
    },
    {
      "midi": 69,
      "hit": false,
      "t": 13333.320000000003,
      "d": 222.22199999999975,
      "v": 27
    },
    {
      "midi": 76,
      "hit": false,
      "t": 13333.320000000009,
      "d": 222.22199999999975,
      "v": 41
    },
    {
      "midi": 66,
      "hit": false,
      "t": 13666.653000000004,
      "d": 222.22199999999975,
      "v": 27
    },
    {
      "midi": 69,
      "hit": false,
      "t": 13666.65300000001,
      "d": 222.22199999999975,
      "v": 41
    },
    {
      "midi": 65,
      "hit": false,
      "t": 13999.986000000004,
      "d": 888.887999999999,
      "v": 27
    },
    {
      "midi": 62,
      "hit": false,
      "t": 13999.98600000001,
      "d": 222.22199999999975,
      "v": 41
    },
    {
      "midi": 69,
      "hit": false,
      "t": 14333.31900000001,
      "d": 222.22199999999975,
      "v": 41
    },
    {
      "midi": 69,
      "hit": false,
      "t": 14666.652000000004,
      "d": 888.887999999999,
      "v": 27
    },
    {
      "midi": 74,
      "hit": false,
      "t": 14666.652000000004,
      "d": 888.887999999999,
      "v": 27
    },
    {
      "midi": 74,
      "hit": false,
      "t": 14666.652000000011,
      "d": 222.22199999999975,
      "v": 41
    },
    {
      "midi": 76,
      "hit": false,
      "t": 14833.31850000001,
      "d": 111.11100000000079,
      "v": 41
    },
    {
      "midi": 77,
      "hit": false,
      "t": 14999.985000000011,
      "d": 222.22199999999975,
      "v": 41
    },
    {
      "midi": 76,
      "hit": false,
      "t": 15333.318000000012,
      "d": 222.22199999999975,
      "v": 41
    },
    {
      "midi": 74,
      "hit": false,
      "t": 15666.651000000013,
      "d": 222.22199999999975,
      "v": 41
    },
    {
      "midi": 57,
      "hit": false,
      "t": 15999.984000000013,
      "d": 222.22199999999975,
      "v": 41
    },
    {
      "midi": 64,
      "hit": false,
      "t": 16333.317000000014,
      "d": 222.22200000000157,
      "v": 41
    },
    {
      "midi": 69,
      "hit": false,
      "t": 16666.650000000016,
      "d": 222.22199999999793,
      "v": 41
    },
    {
      "midi": 72,
      "hit": false,
      "t": 16833.316500000015,
      "d": 111.11099999999715,
      "v": 41
    },
    {
      "midi": 73,
      "hit": false,
      "t": 16999.98300000001,
      "d": 222.22200000000157,
      "v": 41
    },
    {
      "midi": 73,
      "hit": false,
      "t": 17333.316000000003,
      "d": 111.11100000000079,
      "v": 39
    },
    {
      "midi": 69,
      "hit": false,
      "t": 17333.316000000013,
      "d": 222.22200000000157,
      "v": 41
    },
    {
      "midi": 71,
      "hit": false,
      "t": 17499.982500000002,
      "d": 111.11100000000079,
      "v": 39
    },
    {
      "midi": 73,
      "hit": false,
      "t": 17666.649,
      "d": 111.11100000000079,
      "v": 61
    },
    {
      "midi": 64,
      "hit": false,
      "t": 17666.649000000016,
      "d": 222.22200000000157,
      "v": 41
    },
    {
      "midi": 71,
      "hit": false,
      "t": 17833.3155,
      "d": 111.11100000000079,
      "v": 61
    },
    {
      "midi": 73,
      "hit": false,
      "t": 17999.982,
      "d": 111.11100000000079,
      "v": 61
    },
    {
      "midi": 62,
      "hit": false,
      "t": 17999.982000000018,
      "d": 222.22200000000157,
      "v": 41
    },
    {
      "midi": 71,
      "hit": false,
      "t": 18166.6485,
      "d": 111.11100000000079,
      "v": 61
    },
    {
      "midi": 73,
      "hit": false,
      "t": 18333.315,
      "d": 111.11100000000079,
      "v": 61
    },
    {
      "midi": 69,
      "hit": false,
      "t": 18333.31500000002,
      "d": 222.22200000000157,
      "v": 41
    },
    {
      "midi": 71,
      "hit": false,
      "t": 18499.981499999998,
      "d": 111.11100000000079,
      "v": 61
    },
    {
      "midi": 73,
      "hit": false,
      "t": 18666.647999999997,
      "d": 111.11100000000079,
      "v": 61
    },
    {
      "midi": 74,
      "hit": false,
      "t": 18666.648000000023,
      "d": 222.22199999999793,
      "v": 41
    },
    {
      "midi": 71,
      "hit": false,
      "t": 18833.314499999997,
      "d": 111.11100000000079,
      "v": 61
    },
    {
      "midi": 77,
      "hit": false,
      "t": 18833.314500000022,
      "d": 111.11099999999715,
      "v": 41
    },
    {
      "midi": 73,
      "hit": false,
      "t": 18999.980999999996,
      "d": 111.11100000000079,
      "v": 61
    },
    {
      "midi": 78,
      "hit": false,
      "t": 18999.981000000018,
      "d": 222.22200000000157,
      "v": 41
    },
    {
      "midi": 71,
      "hit": false,
      "t": 19166.647499999995,
      "d": 222.22199999999793,
      "v": 61
    },
    {
      "midi": 73,
      "hit": false,
      "t": 19333.313999999995,
      "d": 111.11099999999715,
      "v": 39
    },
    {
      "midi": 74,
      "hit": false,
      "t": 19333.31400000002,
      "d": 222.22200000000157,
      "v": 41
    },
    {
      "midi": 71,
      "hit": false,
      "t": 19499.98049999999,
      "d": 111.11100000000079,
      "v": 61
    },
    {
      "midi": 73,
      "hit": false,
      "t": 19666.64699999999,
      "d": 111.11100000000079,
      "v": 61
    },
    {
      "midi": 69,
      "hit": false,
      "t": 19666.647000000023,
      "d": 222.22200000000157,
      "v": 41
    },
    {
      "midi": 71,
      "hit": false,
      "t": 19833.31349999999,
      "d": 111.11100000000079,
      "v": 61
    },
    {
      "midi": 73,
      "hit": false,
      "t": 19999.97999999999,
      "d": 111.11100000000079,
      "v": 61
    },
    {
      "midi": 66,
      "hit": false,
      "t": 19999.980000000025,
      "d": 222.22200000000157,
      "v": 67
    },
    {
      "midi": 71,
      "hit": false,
      "t": 20166.646499999988,
      "d": 111.11100000000079,
      "v": 61
    },
    {
      "midi": 73,
      "hit": false,
      "t": 20333.312999999987,
      "d": 111.11100000000079,
      "v": 61
    },
    {
      "midi": 73,
      "hit": false,
      "t": 20333.313000000027,
      "d": 222.22200000000157,
      "v": 67
    },
    {
      "midi": 71,
      "hit": false,
      "t": 20499.979499999987,
      "d": 111.11100000000079,
      "v": 61
    },
    {
      "midi": 78,
      "hit": false,
      "t": 20666.64600000003,
      "d": 222.22199999999793,
      "v": 67
    },
    {
      "midi": 80,
      "hit": false,
      "t": 20833.31250000003,
      "d": 111.11099999999715,
      "v": 67
    },
    {
      "midi": 73,
      "hit": false,
      "t": 20999.97899999999,
      "d": 444.4439999999995,
      "v": 61
    },
    {
      "midi": 76,
      "hit": false,
      "t": 20999.97899999999,
      "d": 444.4439999999995,
      "v": 61
    },
    {
      "midi": 81,
      "hit": false,
      "t": 20999.979000000025,
      "d": 222.22200000000157,
      "v": 67
    },
    {
      "midi": 78,
      "hit": false,
      "t": 21333.312000000027,
      "d": 222.22200000000157,
      "v": 67
    },
    {
      "midi": 73,
      "hit": false,
      "t": 21666.64499999999,
      "d": 222.22200000000157,
      "v": 61
    },
    {
      "midi": 76,
      "hit": false,
      "t": 21666.64499999999,
      "d": 222.22200000000157,
      "v": 61
    },
    {
      "midi": 73,
      "hit": false,
      "t": 21666.64500000003,
      "d": 222.22200000000157,
      "v": 67
    },
    {
      "midi": 71,
      "hit": false,
      "t": 21999.977999999992,
      "d": 222.22200000000157,
      "v": 61
    },
    {
      "midi": 74,
      "hit": false,
      "t": 21999.977999999992,
      "d": 444.44400000000314,
      "v": 61
    },
    {
      "midi": 62,
      "hit": false,
      "t": 21999.978000000032,
      "d": 222.22200000000157,
      "v": 67
    },
    {
      "midi": 69,
      "hit": false,
      "t": 22333.310999999994,
      "d": 222.22200000000157,
      "v": 61
    },
    {
      "midi": 69,
      "hit": false,
      "t": 22333.311000000034,
      "d": 222.22200000000157,
      "v": 67
    },
    {
      "midi": 74,
      "hit": false,
      "t": 22666.644000000037,
      "d": 222.22199999999793,
      "v": 67
    },
    {
      "midi": 77,
      "hit": false,
      "t": 22833.310500000036,
      "d": 111.11099999999715,
      "v": 67
    },
    {
      "midi": 78,
      "hit": false,
      "t": 22999.97700000003,
      "d": 222.22200000000157,
      "v": 67
    },
    {
      "midi": 74,
      "hit": false,
      "t": 23333.310000000034,
      "d": 222.22200000000157,
      "v": 67
    },
    {
      "midi": 69,
      "hit": false,
      "t": 23666.643000000036,
      "d": 222.22200000000157,
      "v": 67
    },
    {
      "midi": 57,
      "hit": false,
      "t": 23999.97600000004,
      "d": 222.22200000000157,
      "v": 67
    },
    {
      "midi": 64,
      "hit": false,
      "t": 24333.30900000004,
      "d": 222.22200000000157,
      "v": 67
    },
    {
      "midi": 69,
      "hit": false,
      "t": 24666.642000000043,
      "d": 222.22199999999793,
      "v": 67
    },
    {
      "midi": 72,
      "hit": false,
      "t": 24833.308500000043,
      "d": 111.11099999999715,
      "v": 67
    },
    {
      "midi": 73,
      "hit": false,
      "t": 24999.974999999995,
      "d": 222.22200000000157,
      "v": 61
    },
    {
      "midi": 73,
      "hit": false,
      "t": 24999.97500000004,
      "d": 222.22200000000157,
      "v": 67
    },
    {
      "midi": 73,
      "hit": false,
      "t": 25333.307999999997,
      "d": 111.11100000000079,
      "v": 61
    },
    {
      "midi": 69,
      "hit": false,
      "t": 25333.30800000004,
      "d": 222.22200000000157,
      "v": 67
    },
    {
      "midi": 71,
      "hit": false,
      "t": 25499.974499999997,
      "d": 111.11100000000079,
      "v": 61
    },
    {
      "midi": 73,
      "hit": false,
      "t": 25666.640999999996,
      "d": 111.11100000000079,
      "v": 61
    },
    {
      "midi": 64,
      "hit": false,
      "t": 25666.641000000043,
      "d": 222.22200000000157,
      "v": 67
    },
    {
      "midi": 71,
      "hit": false,
      "t": 25833.307499999995,
      "d": 111.11100000000079,
      "v": 61
    },
    {
      "midi": 73,
      "hit": false,
      "t": 25999.973999999995,
      "d": 111.11100000000079,
      "v": 61
    },
    {
      "midi": 62,
      "hit": false,
      "t": 25999.974000000046,
      "d": 222.22200000000157,
      "v": 67
    },
    {
      "midi": 71,
      "hit": false,
      "t": 26166.640499999994,
      "d": 111.11100000000079,
      "v": 61
    },
    {
      "midi": 73,
      "hit": false,
      "t": 26333.306999999993,
      "d": 111.11100000000079,
      "v": 61
    },
    {
      "midi": 69,
      "hit": false,
      "t": 26333.307000000048,
      "d": 222.22200000000157,
      "v": 67
    },
    {
      "midi": 71,
      "hit": false,
      "t": 26499.973499999993,
      "d": 111.11100000000079,
      "v": 61
    },
    {
      "midi": 73,
      "hit": false,
      "t": 26666.639999999992,
      "d": 111.11100000000079,
      "v": 61
    },
    {
      "midi": 74,
      "hit": false,
      "t": 26666.64000000005,
      "d": 222.22199999999793,
      "v": 67
    },
    {
      "midi": 71,
      "hit": false,
      "t": 26833.30649999999,
      "d": 111.11100000000079,
      "v": 61
    },
    {
      "midi": 77,
      "hit": false,
      "t": 26833.30650000005,
      "d": 111.11099999999715,
      "v": 67
    },
    {
      "midi": 73,
      "hit": false,
      "t": 26999.97299999999,
      "d": 222.22200000000157,
      "v": 61
    },
    {
      "midi": 78,
      "hit": false,
      "t": 26999.973000000045,
      "d": 222.22200000000157,
      "v": 67
    },
    {
      "midi": 73,
      "hit": false,
      "t": 27333.305999999993,
      "d": 111.11100000000079,
      "v": 39
    },
    {
      "midi": 74,
      "hit": false,
      "t": 27333.306000000048,
      "d": 222.22200000000157,
      "v": 67
    },
    {
      "midi": 71,
      "hit": false,
      "t": 27499.972499999993,
      "d": 111.11100000000079,
      "v": 39
    },
    {
      "midi": 73,
      "hit": false,
      "t": 27666.638999999992,
      "d": 111.11100000000079,
      "v": 39
    },
    {
      "midi": 69,
      "hit": false,
      "t": 27666.63900000005,
      "d": 222.22200000000157,
      "v": 67
    },
    {
      "midi": 71,
      "hit": false,
      "t": 27833.30549999999,
      "d": 111.11100000000079,
      "v": 39
    },
    {
      "midi": 73,
      "hit": false,
      "t": 27999.97199999999,
      "d": 222.22200000000157,
      "v": 61
    },
    {
      "midi": 66,
      "hit": false,
      "t": 27999.972000000053,
      "d": 222.22200000000157,
      "v": 67
    },
    {
      "midi": 73,
      "hit": false,
      "t": 28333.304999999993,
      "d": 111.11100000000079,
      "v": 61
    },
    {
      "midi": 73,
      "hit": false,
      "t": 28333.305000000055,
      "d": 222.22200000000157,
      "v": 67
    },
    {
      "midi": 71,
      "hit": false,
      "t": 28499.971499999992,
      "d": 222.22200000000157,
      "v": 61
    },
    {
      "midi": 78,
      "hit": false,
      "t": 28666.638000000057,
      "d": 222.22199999999793,
      "v": 67
    },
    {
      "midi": 73,
      "hit": false,
      "t": 28833.304499999995,
      "d": 666.6660000000011,
      "v": 61
    },
    {
      "midi": 80,
      "hit": false,
      "t": 28833.304500000057,
      "d": 111.11099999999715,
      "v": 67
    },
    {
      "midi": 81,
      "hit": false,
      "t": 28999.971000000052,
      "d": 222.22200000000157,
      "v": 67
    },
    {
      "midi": 78,
      "hit": false,
      "t": 29333.304000000055,
      "d": 222.22200000000157,
      "v": 67
    },
    {
      "midi": 73,
      "hit": false,
      "t": 29666.636999999995,
      "d": 222.22200000000157,
      "v": 61
    },
    {
      "midi": 73,
      "hit": false,
      "t": 29666.637000000057,
      "d": 222.22200000000157,
      "v": 67
    },
    {
      "midi": 71,
      "hit": false,
      "t": 29999.969999999998,
      "d": 222.22200000000157,
      "v": 61
    },
    {
      "midi": 62,
      "hit": false,
      "t": 29999.97000000006,
      "d": 222.22200000000157,
      "v": 67
    },
    {
      "midi": 69,
      "hit": false,
      "t": 30333.303,
      "d": 222.22200000000157,
      "v": 61
    },
    {
      "midi": 69,
      "hit": false,
      "t": 30333.30300000006,
      "d": 222.22200000000157,
      "v": 67
    },
    {
      "midi": 74,
      "hit": false,
      "t": 30666.636000000064,
      "d": 222.22199999999793,
      "v": 67
    },
    {
      "midi": 77,
      "hit": false,
      "t": 30833.302500000063,
      "d": 111.11099999999715,
      "v": 67
    },
    {
      "midi": 74,
      "hit": false,
      "t": 30999.969,
      "d": 666.6660000000011,
      "v": 61
    },
    {
      "midi": 78,
      "hit": false,
      "t": 30999.96900000006,
      "d": 222.22200000000157,
      "v": 67
    },
    {
      "midi": 74,
      "hit": false,
      "t": 31333.30200000006,
      "d": 222.22200000000157,
      "v": 67
    },
    {
      "midi": 69,
      "hit": false,
      "t": 31666.635000000064,
      "d": 222.22200000000157,
      "v": 67
    },
    {
      "midi": 52,
      "hit": false,
      "t": 31999.968000000066,
      "d": 222.22200000000157,
      "v": 67
    },
    {
      "midi": 59,
      "hit": false,
      "t": 32333.30100000007,
      "d": 222.22200000000157,
      "v": 67
    },
    {
      "midi": 64,
      "hit": false,
      "t": 32666.63400000007,
      "d": 222.22200000000157,
      "v": 67
    },
    {
      "midi": 67,
      "hit": false,
      "t": 32833.30050000007,
      "d": 111.11100000000442,
      "v": 67
    },
    {
      "midi": 76,
      "hit": false,
      "t": 32999.967000000004,
      "d": 222.22200000000157,
      "v": 61
    },
    {
      "midi": 68,
      "hit": false,
      "t": 32999.96700000008,
      "d": 222.22200000000157,
      "v": 67
    },
    {
      "midi": 71,
      "hit": false,
      "t": 32999.96700000008,
      "d": 222.22200000000157,
      "v": 67
    },
    {
      "midi": 76,
      "hit": false,
      "t": 33333.3,
      "d": 222.22200000000157,
      "v": 61
    },
    {
      "midi": 64,
      "hit": false,
      "t": 33333.300000000076,
      "d": 222.22200000000157,
      "v": 67
    },
    {
      "midi": 76,
      "hit": false,
      "t": 33666.633,
      "d": 222.22200000000157,
      "v": 61
    },
    {
      "midi": 59,
      "hit": false,
      "t": 33666.633000000074,
      "d": 222.22200000000157,
      "v": 67
    },
    {
      "midi": 76,
      "hit": false,
      "t": 33999.966,
      "d": 111.11099999999715,
      "v": 61
    },
    {
      "midi": 78,
      "hit": false,
      "t": 33999.966,
      "d": 222.2219999999943,
      "v": 61
    },
    {
      "midi": 54,
      "hit": false,
      "t": 33999.96600000007,
      "d": 222.22200000000157,
      "v": 67
    },
    {
      "midi": 81,
      "hit": false,
      "t": 34333.29899999999,
      "d": 222.22200000000157,
      "v": 61
    },
    {
      "midi": 61,
      "hit": false,
      "t": 34333.29900000007,
      "d": 222.22200000000157,
      "v": 67
    },
    {
      "midi": 66,
      "hit": false,
      "t": 34666.63200000007,
      "d": 222.22200000000157,
      "v": 67
    },
    {
      "midi": 71,
      "hit": false,
      "t": 34833.29850000007,
      "d": 111.11100000000442,
      "v": 67
    },
    {
      "midi": 73,
      "hit": false,
      "t": 34999.96500000008,
      "d": 222.22200000000157,
      "v": 67
    },
    {
      "midi": 76,
      "hit": false,
      "t": 34999.96500000008,
      "d": 222.22200000000157,
      "v": 67
    },
    {
      "midi": 71,
      "hit": false,
      "t": 35333.298000000075,
      "d": 222.22200000000157,
      "v": 67
    },
    {
      "midi": 78,
      "hit": false,
      "t": 35666.630999999994,
      "d": 111.11099999999715,
      "v": 61
    },
    {
      "midi": 69,
      "hit": false,
      "t": 35666.631000000074,
      "d": 222.22200000000157,
      "v": 67
    },
    {
      "midi": 81,
      "hit": false,
      "t": 35833.29749999999,
      "d": 111.11099999999715,
      "v": 61
    },
    {
      "midi": 81,
      "hit": false,
      "t": 35999.96399999999,
      "d": 111.11099999999715,
      "v": 61
    },
    {
      "midi": 83,
      "hit": false,
      "t": 35999.96399999999,
      "d": 222.2219999999943,
      "v": 61
    },
    {
      "midi": 67,
      "hit": false,
      "t": 35999.96400000007,
      "d": 666.6659999999974,
      "v": 67
    },
    {
      "midi": 74,
      "hit": false,
      "t": 35999.96400000007,
      "d": 666.6659999999974,
      "v": 67
    },
    {
      "midi": 81,
      "hit": false,
      "t": 36333.296999999984,
      "d": 222.22200000000157,
      "v": 61
    },
    {
      "midi": 67,
      "hit": false,
      "t": 36999.96300000007,
      "d": 444.44400000000314,
      "v": 67
    },
    {
      "midi": 74,
      "hit": false,
      "t": 36999.96300000007,
      "d": 444.44400000000314,
      "v": 67
    },
    {
      "midi": 81,
      "hit": false,
      "t": 37666.628999999986,
      "d": 111.11099999999715,
      "v": 61
    },
    {
      "midi": 67,
      "hit": false,
      "t": 37666.62900000007,
      "d": 222.22200000000157,
      "v": 67
    },
    {
      "midi": 74,
      "hit": false,
      "t": 37666.62900000007,
      "d": 222.22200000000157,
      "v": 67
    },
    {
      "midi": 81,
      "hit": false,
      "t": 37833.295499999986,
      "d": 111.11099999999715,
      "v": 61
    },
    {
      "midi": 81,
      "hit": false,
      "t": 37999.961999999985,
      "d": 111.11099999999715,
      "v": 61
    },
    {
      "midi": 69,
      "hit": false,
      "t": 37999.96200000007,
      "d": 222.22200000000157,
      "v": 67
    },
    {
      "midi": 74,
      "hit": false,
      "t": 37999.96200000007,
      "d": 222.22200000000157,
      "v": 67
    },
    {
      "midi": 76,
      "hit": false,
      "t": 38166.628499999984,
      "d": 111.11099999999715,
      "v": 61
    },
    {
      "midi": 78,
      "hit": false,
      "t": 38333.294999999984,
      "d": 222.22200000000157,
      "v": 61
    },
    {
      "midi": 69,
      "hit": false,
      "t": 38333.29500000007,
      "d": 222.22200000000157,
      "v": 67
    },
    {
      "midi": 74,
      "hit": false,
      "t": 38333.29500000007,
      "d": 222.22200000000157,
      "v": 67
    },
    {
      "midi": 69,
      "hit": false,
      "t": 38666.62800000007,
      "d": 222.22200000000157,
      "v": 67
    },
    {
      "midi": 74,
      "hit": false,
      "t": 38666.62800000007,
      "d": 222.22200000000157,
      "v": 67
    },
    {
      "midi": 69,
      "hit": false,
      "t": 38999.96100000007,
      "d": 444.44400000000314,
      "v": 67
    },
    {
      "midi": 74,
      "hit": false,
      "t": 38999.96100000007,
      "d": 444.44400000000314,
      "v": 67
    },
    {
      "midi": 69,
      "hit": false,
      "t": 39666.62700000007,
      "d": 222.22200000000157,
      "v": 67
    },
    {
      "midi": 74,
      "hit": false,
      "t": 39666.62700000007,
      "d": 222.22200000000157,
      "v": 67
    },
    {
      "midi": 52,
      "hit": false,
      "t": 39999.96000000007,
      "d": 222.22200000000157,
      "v": 49
    },
    {
      "midi": 59,
      "hit": false,
      "t": 40333.29300000007,
      "d": 222.22200000000157,
      "v": 49
    },
    {
      "midi": 64,
      "hit": false,
      "t": 40666.62600000007,
      "d": 222.22200000000157,
      "v": 49
    },
    {
      "midi": 67,
      "hit": false,
      "t": 40833.29250000007,
      "d": 111.11100000000442,
      "v": 49
    },
    {
      "midi": 76,
      "hit": false,
      "t": 40999.95899999999,
      "d": 222.22200000000157,
      "v": 61
    },
    {
      "midi": 68,
      "hit": false,
      "t": 40999.959000000075,
      "d": 222.22200000000157,
      "v": 49
    },
    {
      "midi": 71,
      "hit": false,
      "t": 40999.959000000075,
      "d": 222.22200000000157,
      "v": 49
    },
    {
      "midi": 76,
      "hit": false,
      "t": 41333.29199999999,
      "d": 111.11099999999715,
      "v": 61
    },
    {
      "midi": 64,
      "hit": false,
      "t": 41333.292000000074,
      "d": 222.22200000000157,
      "v": 49
    },
    {
      "midi": 76,
      "hit": false,
      "t": 41499.958499999986,
      "d": 333.3329999999987,
      "v": 61
    },
    {
      "midi": 59,
      "hit": false,
      "t": 41666.62500000007,
      "d": 222.22200000000157,
      "v": 49
    },
    {
      "midi": 76,
      "hit": false,
      "t": 41999.957999999984,
      "d": 111.11099999999715,
      "v": 61
    },
    {
      "midi": 78,
      "hit": false,
      "t": 41999.957999999984,
      "d": 222.2219999999943,
      "v": 61
    },
    {
      "midi": 54,
      "hit": false,
      "t": 41999.95800000007,
      "d": 222.22200000000157,
      "v": 49
    },
    {
      "midi": 81,
      "hit": false,
      "t": 42333.290999999976,
      "d": 222.22200000000157,
      "v": 61
    },
    {
      "midi": 61,
      "hit": false,
      "t": 42333.29100000007,
      "d": 222.22200000000157,
      "v": 49
    },
    {
      "midi": 66,
      "hit": false,
      "t": 42666.62400000007,
      "d": 222.22200000000157,
      "v": 49
    },
    {
      "midi": 71,
      "hit": false,
      "t": 42833.29050000007,
      "d": 111.11100000000442,
      "v": 49
    },
    {
      "midi": 73,
      "hit": false,
      "t": 42999.957000000075,
      "d": 222.22200000000157,
      "v": 49
    },
    {
      "midi": 76,
      "hit": false,
      "t": 42999.957000000075,
      "d": 222.22200000000157,
      "v": 49
    },
    {
      "midi": 71,
      "hit": false,
      "t": 43333.29000000007,
      "d": 222.22200000000157,
      "v": 49
    },
    {
      "midi": 78,
      "hit": false,
      "t": 43666.62299999998,
      "d": 111.11099999999715,
      "v": 61
    },
    {
      "midi": 69,
      "hit": false,
      "t": 43666.62300000007,
      "d": 222.22200000000157,
      "v": 49
    },
    {
      "midi": 81,
      "hit": false,
      "t": 43833.28949999998,
      "d": 111.11099999999715,
      "v": 61
    },
    {
      "midi": 81,
      "hit": false,
      "t": 43999.95599999998,
      "d": 111.11099999999715,
      "v": 61
    },
    {
      "midi": 83,
      "hit": false,
      "t": 43999.95599999998,
      "d": 222.2219999999943,
      "v": 61
    },
    {
      "midi": 74,
      "hit": false,
      "t": 43999.95600000007,
      "d": 666.6659999999974,
      "v": 49
    },
    {
      "midi": 79,
      "hit": false,
      "t": 43999.95600000007,
      "d": 666.6659999999974,
      "v": 49
    },
    {
      "midi": 81,
      "hit": false,
      "t": 44333.28899999997,
      "d": 222.22200000000157,
      "v": 61
    },
    {
      "midi": 74,
      "hit": false,
      "t": 44999.95500000007,
      "d": 222.22200000000157,
      "v": 49
    },
    {
      "midi": 79,
      "hit": false,
      "t": 44999.95500000007,
      "d": 222.22200000000157,
      "v": 49
    },
    {
      "midi": 81,
      "hit": false,
      "t": 45333.28799999997,
      "d": 222.22200000000157,
      "v": 61
    },
    {
      "midi": 74,
      "hit": false,
      "t": 45333.288000000066,
      "d": 222.22200000000157,
      "v": 49
    },
    {
      "midi": 79,
      "hit": false,
      "t": 45333.288000000066,
      "d": 222.22200000000157,
      "v": 49
    },
    {
      "midi": 81,
      "hit": false,
      "t": 45666.62099999997,
      "d": 111.11099999999715,
      "v": 61
    },
    {
      "midi": 74,
      "hit": false,
      "t": 45666.621000000065,
      "d": 222.22200000000157,
      "v": 49
    },
    {
      "midi": 79,
      "hit": false,
      "t": 45666.621000000065,
      "d": 222.22200000000157,
      "v": 49
    },
    {
      "midi": 78,
      "hit": false,
      "t": 45833.28749999997,
      "d": 111.11099999999715,
      "v": 61
    },
    {
      "midi": 81,
      "hit": false,
      "t": 45999.95399999997,
      "d": 666.6659999999974,
      "v": 61
    },
    {
      "midi": 78,
      "hit": false,
      "t": 45999.95400000006,
      "d": 222.22200000000157,
      "v": 49
    },
    {
      "midi": 74,
      "hit": false,
      "t": 46333.28700000006,
      "d": 222.22200000000157,
      "v": 49
    },
    {
      "midi": 69,
      "hit": false,
      "t": 46666.62000000006,
      "d": 222.22200000000157,
      "v": 49
    },
    {
      "midi": 80,
      "hit": false,
      "t": 46999.95300000006,
      "d": 222.22200000000157,
      "v": 49
    },
    {
      "midi": 78,
      "hit": false,
      "t": 47333.285999999964,
      "d": 222.22200000000157,
      "v": 61
    },
    {
      "midi": 76,
      "hit": false,
      "t": 47333.28600000006,
      "d": 222.22200000000157,
      "v": 49
    },
    {
      "midi": 81,
      "hit": false,
      "t": 47666.61899999996,
      "d": 222.22200000000157,
      "v": 61
    },
    {
      "midi": 71,
      "hit": false,
      "t": 47666.61900000006,
      "d": 222.22200000000157,
      "v": 49
    },
    {
      "midi": 83,
      "hit": false,
      "t": 47999.95199999996,
      "d": 444.44400000000314,
      "v": 61
    },
    {
      "midi": 86,
      "hit": false,
      "t": 47999.95199999996,
      "d": 444.44400000000314,
      "v": 61
    },
    {
      "midi": 57,
      "hit": false,
      "t": 47999.952000000056,
      "d": 222.22200000000157,
      "v": 41
    },
    {
      "midi": 64,
      "hit": false,
      "t": 48333.285000000054,
      "d": 222.22200000000157,
      "v": 41
    },
    {
      "midi": 81,
      "hit": false,
      "t": 48666.617999999966,
      "d": 444.44400000000314,
      "v": 61
    },
    {
      "midi": 85,
      "hit": false,
      "t": 48666.617999999966,
      "d": 444.44400000000314,
      "v": 61
    },
    {
      "midi": 69,
      "hit": false,
      "t": 48666.61800000005,
      "d": 222.22200000000157,
      "v": 41
    },
    {
      "midi": 71,
      "hit": false,
      "t": 48833.28450000005,
      "d": 111.11100000000442,
      "v": 41
    },
    {
      "midi": 73,
      "hit": false,
      "t": 48999.95100000006,
      "d": 222.22200000000157,
      "v": 41
    },
    {
      "midi": 76,
      "hit": false,
      "t": 48999.95100000006,
      "d": 222.22200000000157,
      "v": 41
    },
    {
      "midi": 71,
      "hit": false,
      "t": 49333.28400000006,
      "d": 222.22200000000157,
      "v": 41
    },
    {
      "midi": 69,
      "hit": false,
      "t": 49666.61700000006,
      "d": 222.22200000000157,
      "v": 41
    },
    {
      "midi": 80,
      "hit": false,
      "t": 49999.94999999997,
      "d": 444.44400000000314,
      "v": 61
    },
    {
      "midi": 83,
      "hit": false,
      "t": 49999.94999999997,
      "d": 444.44400000000314,
      "v": 61
    },
    {
      "midi": 57,
      "hit": false,
      "t": 49999.950000000055,
      "d": 222.22200000000157,
      "v": 41
    },
    {
      "midi": 61,
      "hit": false,
      "t": 50333.283000000054,
      "d": 222.22200000000157,
      "v": 41
    },
    {
      "midi": 78,
      "hit": false,
      "t": 50666.61599999997,
      "d": 444.44400000000314,
      "v": 61
    },
    {
      "midi": 81,
      "hit": false,
      "t": 50666.61599999997,
      "d": 444.44400000000314,
      "v": 61
    },
    {
      "midi": 66,
      "hit": false,
      "t": 50666.61600000005,
      "d": 222.22200000000157,
      "v": 41
    },
    {
      "midi": 71,
      "hit": false,
      "t": 50833.28250000005,
      "d": 111.11100000000442,
      "v": 41
    },
    {
      "midi": 73,
      "hit": false,
      "t": 50999.94900000006,
      "d": 222.22200000000157,
      "v": 41
    },
    {
      "midi": 76,
      "hit": false,
      "t": 50999.94900000006,
      "d": 222.22200000000157,
      "v": 41
    },
    {
      "midi": 71,
      "hit": false,
      "t": 51333.28200000006,
      "d": 222.22200000000157,
      "v": 41
    },
    {
      "midi": 69,
      "hit": false,
      "t": 51666.615000000056,
      "d": 222.22200000000157,
      "v": 41
    },
    {
      "midi": 76,
      "hit": false,
      "t": 51999.947999999975,
      "d": 222.22200000000157,
      "v": 61
    },
    {
      "midi": 80,
      "hit": false,
      "t": 51999.947999999975,
      "d": 222.22200000000157,
      "v": 61
    },
    {
      "midi": 62,
      "hit": false,
      "t": 51999.948000000055,
      "d": 222.22200000000157,
      "v": 41
    },
    {
      "midi": 74,
      "hit": false,
      "t": 52333.28099999997,
      "d": 444.44400000000314,
      "v": 61
    },
    {
      "midi": 78,
      "hit": false,
      "t": 52333.28099999997,
      "d": 444.44400000000314,
      "v": 61
    },
    {
      "midi": 69,
      "hit": false,
      "t": 52333.28100000005,
      "d": 222.22200000000157,
      "v": 41
    },
    {
      "midi": 74,
      "hit": false,
      "t": 52666.61400000005,
      "d": 222.22200000000157,
      "v": 41
    },
    {
      "midi": 76,
      "hit": false,
      "t": 52833.28050000005,
      "d": 111.11100000000442,
      "v": 41
    },
    {
      "midi": 78,
      "hit": false,
      "t": 52999.94700000006,
      "d": 222.22200000000157,
      "v": 41
    },
    {
      "midi": 76,
      "hit": false,
      "t": 53333.27999999998,
      "d": 222.22200000000157,
      "v": 61
    },
    {
      "midi": 80,
      "hit": false,
      "t": 53333.27999999998,
      "d": 222.22200000000157,
      "v": 61
    },
    {
      "midi": 76,
      "hit": false,
      "t": 53333.28000000006,
      "d": 222.22200000000157,
      "v": 41
    },
    {
      "midi": 74,
      "hit": false,
      "t": 53666.612999999976,
      "d": 222.22200000000157,
      "v": 61
    },
    {
      "midi": 78,
      "hit": false,
      "t": 53666.612999999976,
      "d": 222.22200000000157,
      "v": 61
    },
    {
      "midi": 69,
      "hit": false,
      "t": 53666.613000000056,
      "d": 222.22200000000157,
      "v": 41
    },
    {
      "midi": 73,
      "hit": false,
      "t": 53999.945999999974,
      "d": 222.22200000000157,
      "v": 61
    },
    {
      "midi": 77,
      "hit": false,
      "t": 53999.945999999974,
      "d": 666.6659999999974,
      "v": 61
    },
    {
      "midi": 62,
      "hit": false,
      "t": 53999.946000000054,
      "d": 222.22200000000157,
      "v": 41
    },
    {
      "midi": 74,
      "hit": false,
      "t": 54333.27899999997,
      "d": 111.11099999999715,
      "v": 61
    },
    {
      "midi": 69,
      "hit": false,
      "t": 54333.27900000005,
      "d": 222.22200000000157,
      "v": 41
    },
    {
      "midi": 73,
      "hit": false,
      "t": 54499.94549999997,
      "d": 222.22200000000157,
      "v": 61
    },
    {
      "midi": 74,
      "hit": false,
      "t": 54666.61200000005,
      "d": 222.22200000000157,
      "v": 41
    },
    {
      "midi": 73,
      "hit": false,
      "t": 54833.27849999997,
      "d": 111.11099999999715,
      "v": 61
    },
    {
      "midi": 76,
      "hit": false,
      "t": 54833.27850000005,
      "d": 111.11100000000442,
      "v": 41
    },
    {
      "midi": 71,
      "hit": false,
      "t": 54999.94499999997,
      "d": 222.22200000000157,
      "v": 61
    },
    {
      "midi": 77,
      "hit": false,
      "t": 54999.94499999997,
      "d": 666.6659999999974,
      "v": 61
    },
    {
      "midi": 77,
      "hit": false,
      "t": 54999.94500000006,
      "d": 222.22200000000157,
      "v": 41
    },
    {
      "midi": 69,
      "hit": false,
      "t": 55333.27799999997,
      "d": 222.22200000000157,
      "v": 61
    },
    {
      "midi": 76,
      "hit": false,
      "t": 55333.27800000006,
      "d": 222.22200000000157,
      "v": 41
    },
    {
      "midi": 74,
      "hit": false,
      "t": 55666.611000000055,
      "d": 222.22200000000157,
      "v": 41
    },
    {
      "midi": 57,
      "hit": false,
      "t": 55999.944000000054,
      "d": 222.22200000000157,
      "v": 41
    },
    {
      "midi": 64,
      "hit": false,
      "t": 56333.27700000005,
      "d": 222.22200000000157,
      "v": 41
    },
    {
      "midi": 69,
      "hit": false,
      "t": 56666.61000000005,
      "d": 222.22200000000157,
      "v": 41
    },
    {
      "midi": 71,
      "hit": false,
      "t": 56833.27650000005,
      "d": 111.11100000000442,
      "v": 41
    },
    {
      "midi": 73,
      "hit": false,
      "t": 56999.94299999997,
      "d": 222.22200000000157,
      "v": 61
    },
    {
      "midi": 73,
      "hit": false,
      "t": 56999.94300000006,
      "d": 222.22200000000157,
      "v": 41
    },
    {
      "midi": 76,
      "hit": false,
      "t": 56999.94300000006,
      "d": 222.22200000000157,
      "v": 41
    },
    {
      "midi": 76,
      "hit": false,
      "t": 57333.27599999997,
      "d": 222.22200000000157,
      "v": 61
    },
    {
      "midi": 71,
      "hit": false,
      "t": 57333.276000000056,
      "d": 222.22200000000157,
      "v": 41
    },
    {
      "midi": 80,
      "hit": false,
      "t": 57666.60899999997,
      "d": 222.22200000000157,
      "v": 61
    },
    {
      "midi": 69,
      "hit": false,
      "t": 57666.609000000055,
      "d": 222.22200000000157,
      "v": 41
    },
    {
      "midi": 80,
      "hit": false,
      "t": 57999.941999999966,
      "d": 111.11099999999715,
      "v": 61
    },
    {
      "midi": 81,
      "hit": false,
      "t": 57999.941999999966,
      "d": 666.6659999999974,
      "v": 61
    },
    {
      "midi": 57,
      "hit": false,
      "t": 57999.942000000054,
      "d": 222.22200000000157,
      "v": 41
    },
    {
      "midi": 61,
      "hit": false,
      "t": 58333.27500000005,
      "d": 222.22200000000157,
      "v": 41
    },
    {
      "midi": 66,
      "hit": false,
      "t": 58666.60800000005,
      "d": 222.22200000000157,
      "v": 41
    },
    {
      "midi": 71,
      "hit": false,
      "t": 58833.27450000005,
      "d": 111.11100000000442,
      "v": 41
    },
    {
      "midi": 73,
      "hit": false,
      "t": 58999.94100000006,
      "d": 222.22200000000157,
      "v": 41
    },
    {
      "midi": 76,
      "hit": false,
      "t": 58999.94100000006,
      "d": 222.22200000000157,
      "v": 41
    },
    {
      "midi": 78,
      "hit": false,
      "t": 59333.27399999996,
      "d": 222.22200000000157,
      "v": 61
    },
    {
      "midi": 71,
      "hit": false,
      "t": 59333.274000000056,
      "d": 222.22200000000157,
      "v": 41
    },
    {
      "midi": 81,
      "hit": false,
      "t": 59666.60699999996,
      "d": 222.22200000000157,
      "v": 61
    },
    {
      "midi": 69,
      "hit": false,
      "t": 59666.607000000055,
      "d": 222.22200000000157,
      "v": 41
    },
    {
      "midi": 81,
      "hit": false,
      "t": 59999.93999999996,
      "d": 111.11099999999715,
      "v": 61
    },
    {
      "midi": 83,
      "hit": false,
      "t": 59999.93999999996,
      "d": 333.3329999999987,
      "v": 61
    },
    {
      "midi": 62,
      "hit": false,
      "t": 59999.94000000005,
      "d": 1333.3320000000022,
      "v": 67
    },
    {
      "midi": 81,
      "hit": false,
      "t": 60499.93949999996,
      "d": 166.66649999999936,
      "v": 61
    },
    {
      "midi": 81,
      "hit": false,
      "t": 61333.27199999995,
      "d": 222.22200000000157,
      "v": 61
    },
    {
      "midi": 83,
      "hit": false,
      "t": 61666.60499999995,
      "d": 222.22200000000157,
      "v": 61
    },
    {
      "midi": 83,
      "hit": false,
      "t": 61999.93799999995,
      "d": 111.11099999999715,
      "v": 61
    },
    {
      "midi": 85,
      "hit": false,
      "t": 61999.93799999995,
      "d": 444.44399999999587,
      "v": 61
    },
    {
      "midi": 64,
      "hit": false,
      "t": 61999.93800000005,
      "d": 1333.3320000000022,
      "v": 67
    },
    {
      "midi": 86,
      "hit": false,
      "t": 62666.60399999995,
      "d": 111.11099999999715,
      "v": 61
    },
    {
      "midi": 85,
      "hit": false,
      "t": 62833.27049999995,
      "d": 111.11099999999715,
      "v": 61
    },
    {
      "midi": 83,
      "hit": false,
      "t": 62999.93699999995,
      "d": 666.6659999999974,
      "v": 61
    },
    {
      "midi": 81,
      "hit": false,
      "t": 63666.602999999945,
      "d": 222.22200000000157,
      "v": 61
    },
    {
      "midi": 81,
      "hit": false,
      "t": 63999.93599999994,
      "d": 111.11099999999715,
      "v": 61
    },
    {
      "midi": 85,
      "hit": false,
      "t": 63999.93599999994,
      "d": 111.11099999999715,
      "v": 61
    },
    {
      "midi": 83,
      "hit": false,
      "t": 63999.93599999994,
      "d": 444.44399999999587,
      "v": 61
    },
    {
      "midi": 86,
      "hit": false,
      "t": 63999.93599999994,
      "d": 444.44399999999587,
      "v": 61
    },
    {
      "midi": 81,
      "hit": false,
      "t": 64666.60199999994,
      "d": 444.44400000000314,
      "v": 61
    },
    {
      "midi": 85,
      "hit": false,
      "t": 64666.60199999994,
      "d": 444.44400000000314,
      "v": 61
    },
    {
      "midi": 73,
      "hit": false,
      "t": 64999.935000000056,
      "d": 666.6659999999974,
      "v": 49
    },
    {
      "midi": 76,
      "hit": false,
      "t": 64999.935000000056,
      "d": 666.6659999999974,
      "v": 49
    },
    {
      "midi": 81,
      "hit": false,
      "t": 64999.935000000056,
      "d": 666.6659999999974,
      "v": 49
    },
    {
      "midi": 78,
      "hit": false,
      "t": 65999.93399999995,
      "d": 111.11100000000442,
      "v": 61
    },
    {
      "midi": 81,
      "hit": false,
      "t": 65999.93399999995,
      "d": 111.11100000000442,
      "v": 61
    },
    {
      "midi": 80,
      "hit": false,
      "t": 65999.93399999995,
      "d": 444.44400000000314,
      "v": 61
    },
    {
      "midi": 83,
      "hit": false,
      "t": 65999.93399999995,
      "d": 444.44400000000314,
      "v": 61
    },
    {
      "midi": 78,
      "hit": false,
      "t": 66666.59999999995,
      "d": 444.44400000000314,
      "v": 61
    },
    {
      "midi": 81,
      "hit": false,
      "t": 66666.59999999995,
      "d": 444.44400000000314,
      "v": 61
    },
    {
      "midi": 69,
      "hit": false,
      "t": 66999.93300000005,
      "d": 666.6659999999974,
      "v": 49
    },
    {
      "midi": 73,
      "hit": false,
      "t": 66999.93300000005,
      "d": 666.6659999999974,
      "v": 49
    },
    {
      "midi": 78,
      "hit": false,
      "t": 66999.93300000005,
      "d": 666.6659999999974,
      "v": 49
    },
    {
      "midi": 76,
      "hit": false,
      "t": 67999.93199999996,
      "d": 222.2219999999943,
      "v": 61
    },
    {
      "midi": 80,
      "hit": false,
      "t": 67999.93199999996,
      "d": 222.2219999999943,
      "v": 61
    },
    {
      "midi": 74,
      "hit": false,
      "t": 68333.26499999996,
      "d": 444.44400000000314,
      "v": 61
    },
    {
      "midi": 78,
      "hit": false,
      "t": 68333.26499999996,
      "d": 444.44400000000314,
      "v": 61
    },
    {
      "midi": 62,
      "hit": false,
      "t": 68999.93100000004,
      "d": 222.2219999999943,
      "v": 49
    },
    {
      "midi": 74,
      "hit": false,
      "t": 69333.26399999995,
      "d": 111.11100000000442,
      "v": 61
    },
    {
      "midi": 78,
      "hit": false,
      "t": 69333.26399999995,
      "d": 111.11100000000442,
      "v": 61
    },
    {
      "midi": 76,
      "hit": false,
      "t": 69333.26399999995,
      "d": 222.22200000000885,
      "v": 61
    },
    {
      "midi": 80,
      "hit": false,
      "t": 69333.26399999995,
      "d": 222.22200000000885,
      "v": 61
    },
    {
      "midi": 62,
      "hit": false,
      "t": 69333.26400000004,
      "d": 111.11100000000442,
      "v": 49
    },
    {
      "midi": 62,
      "hit": false,
      "t": 69499.93050000005,
      "d": 111.11100000000442,
      "v": 49
    },
    {
      "midi": 74,
      "hit": false,
      "t": 69666.59699999997,
      "d": 222.2219999999943,
      "v": 61
    },
    {
      "midi": 78,
      "hit": false,
      "t": 69666.59699999997,
      "d": 222.2219999999943,
      "v": 61
    },
    {
      "midi": 62,
      "hit": false,
      "t": 69666.59700000005,
      "d": 111.11100000000442,
      "v": 49
    },
    {
      "midi": 74,
      "hit": false,
      "t": 69833.26350000006,
      "d": 111.11100000000442,
      "v": 49
    },
    {
      "midi": 78,
      "hit": false,
      "t": 69833.26350000006,
      "d": 111.11100000000442,
      "v": 49
    },
    {
      "midi": 73,
      "hit": false,
      "t": 69999.92999999996,
      "d": 333.3329999999987,
      "v": 61
    },
    {
      "midi": 77,
      "hit": false,
      "t": 69999.92999999996,
      "d": 666.666000000012,
      "v": 61
    },
    {
      "midi": 62,
      "hit": false,
      "t": 69999.93000000007,
      "d": 666.6659999999974,
      "v": 49
    },
    {
      "midi": 77,
      "hit": false,
      "t": 69999.93000000007,
      "d": 666.6659999999974,
      "v": 49
    },
    {
      "midi": 81,
      "hit": false,
      "t": 69999.93000000007,
      "d": 666.6659999999974,
      "v": 49
    },
    {
      "midi": 74,
      "hit": false,
      "t": 70499.92949999997,
      "d": 111.11100000000442,
      "v": 61
    },
    {
      "midi": 73,
      "hit": false,
      "t": 70666.59599999998,
      "d": 222.2219999999943,
      "v": 61
    },
    {
      "midi": 71,
      "hit": false,
      "t": 70999.92899999997,
      "d": 222.2219999999943,
      "v": 61
    },
    {
      "midi": 77,
      "hit": false,
      "t": 70999.92899999997,
      "d": 666.6659999999974,
      "v": 61
    },
    {
      "midi": 86,
      "hit": false,
      "t": 70999.92900000006,
      "d": 222.2219999999943,
      "v": 49
    },
    {
      "midi": 69,
      "hit": false,
      "t": 71333.26199999997,
      "d": 222.2219999999943,
      "v": 61
    },
    {
      "midi": 81,
      "hit": false,
      "t": 71333.26200000006,
      "d": 222.2219999999943,
      "v": 49
    },
    {
      "midi": 77,
      "hit": false,
      "t": 71666.59500000006,
      "d": 222.2219999999943,
      "v": 49
    },
    {
      "midi": 59,
      "hit": false,
      "t": 71999.92800000006,
      "d": 222.2219999999943,
      "v": 67
    },
    {
      "midi": 66,
      "hit": false,
      "t": 72333.26100000006,
      "d": 222.2219999999943,
      "v": 67
    },
    {
      "midi": 71,
      "hit": false,
      "t": 72666.59400000006,
      "d": 222.2219999999943,
      "v": 67
    },
    {
      "midi": 78,
      "hit": false,
      "t": 72999.92699999997,
      "d": 222.2219999999943,
      "v": 61
    },
    {
      "midi": 74,
      "hit": false,
      "t": 72999.92700000005,
      "d": 222.2219999999943,
      "v": 67
    },
    {
      "midi": 81,
      "hit": false,
      "t": 73333.25999999997,
      "d": 111.11100000000442,
      "v": 61
    },
    {
      "midi": 71,
      "hit": false,
      "t": 73333.26000000005,
      "d": 222.2219999999943,
      "v": 67
    },
    {
      "midi": 81,
      "hit": false,
      "t": 73499.92649999997,
      "d": 333.3329999999987,
      "v": 61
    },
    {
      "midi": 66,
      "hit": false,
      "t": 73666.59300000005,
      "d": 222.2219999999943,
      "v": 67
    },
    {
      "midi": 80,
      "hit": false,
      "t": 73999.92599999998,
      "d": 166.66650000000664,
      "v": 61
    },
    {
      "midi": 52,
      "hit": false,
      "t": 73999.92600000005,
      "d": 222.2219999999943,
      "v": 67
    },
    {
      "midi": 78,
      "hit": false,
      "t": 74166.59249999998,
      "d": 166.66650000000664,
      "v": 61
    },
    {
      "midi": 76,
      "hit": false,
      "t": 74333.25899999999,
      "d": 222.2219999999943,
      "v": 61
    },
    {
      "midi": 59,
      "hit": false,
      "t": 74333.25900000005,
      "d": 222.2219999999943,
      "v": 67
    },
    {
      "midi": 64,
      "hit": false,
      "t": 74666.59200000005,
      "d": 222.22200000000885,
      "v": 67
    },
    {
      "midi": 67,
      "hit": false,
      "t": 74833.25850000005,
      "d": 111.11100000000442,
      "v": 67
    },
    {
      "midi": 68,
      "hit": false,
      "t": 74999.92500000006,
      "d": 222.2219999999943,
      "v": 67
    },
    {
      "midi": 71,
      "hit": false,
      "t": 74999.92500000006,
      "d": 222.2219999999943,
      "v": 67
    },
    {
      "midi": 85,
      "hit": false,
      "t": 75333.25799999999,
      "d": 111.11100000000442,
      "v": 61
    },
    {
      "midi": 64,
      "hit": false,
      "t": 75333.25800000006,
      "d": 222.2219999999943,
      "v": 67
    },
    {
      "midi": 83,
      "hit": false,
      "t": 75499.9245,
      "d": 111.11100000000442,
      "v": 61
    },
    {
      "midi": 85,
      "hit": false,
      "t": 75499.9245,
      "d": 333.3329999999987,
      "v": 61
    },
    {
      "midi": 59,
      "hit": false,
      "t": 75666.59100000006,
      "d": 222.2219999999943,
      "v": 67
    },
    {
      "midi": 61,
      "hit": false,
      "t": 75999.92400000006,
      "d": 222.2219999999943,
      "v": 67
    },
    {
      "midi": 61,
      "hit": false,
      "t": 76333.25700000006,
      "d": 222.2219999999943,
      "v": 67
    },
    {
      "midi": 68,
      "hit": false,
      "t": 76333.25700000006,
      "d": 222.2219999999943,
      "v": 67
    },
    {
      "midi": 73,
      "hit": false,
      "t": 76333.25700000006,
      "d": 222.2219999999943,
      "v": 67
    },
    {
      "midi": 73,
      "hit": false,
      "t": 76666.59,
      "d": 222.2219999999943,
      "v": 61
    },
    {
      "midi": 61,
      "hit": false,
      "t": 76666.59000000005,
      "d": 222.2219999999943,
      "v": 67
    },
    {
      "midi": 68,
      "hit": false,
      "t": 76666.59000000005,
      "d": 222.2219999999943,
      "v": 67
    },
    {
      "midi": 73,
      "hit": false,
      "t": 76666.59000000005,
      "d": 222.2219999999943,
      "v": 67
    },
    {
      "midi": 80,
      "hit": false,
      "t": 76999.923,
      "d": 222.2219999999943,
      "v": 61
    },
    {
      "midi": 77,
      "hit": false,
      "t": 76999.92300000005,
      "d": 222.2219999999943,
      "v": 67
    },
    {
      "midi": 83,
      "hit": false,
      "t": 77333.256,
      "d": 222.2219999999943,
      "v": 61
    },
    {
      "midi": 73,
      "hit": false,
      "t": 77333.25600000005,
      "d": 222.2219999999943,
      "v": 67
    },
    {
      "midi": 80,
      "hit": false,
      "t": 77666.58899999999,
      "d": 222.2219999999943,
      "v": 61
    },
    {
      "midi": 68,
      "hit": false,
      "t": 77666.58900000005,
      "d": 222.2219999999943,
      "v": 67
    },
    {
      "midi": 81,
      "hit": false,
      "t": 77999.92199999999,
      "d": 666.6659999999974,
      "v": 61
    },
    {
      "midi": 66,
      "hit": false,
      "t": 77999.92200000005,
      "d": 666.6659999999974,
      "v": 67
    },
    {
      "midi": 73,
      "hit": false,
      "t": 77999.92200000005,
      "d": 666.6659999999974,
      "v": 67
    },
    {
      "midi": 78,
      "hit": false,
      "t": 77999.92200000005,
      "d": 666.6659999999974,
      "v": 67
    },
    {
      "midi": 81,
      "hit": false,
      "t": 77999.92200000005,
      "d": 666.6659999999974,
      "v": 67
    },
    {
      "midi": 80,
      "hit": false,
      "t": 78999.92099999999,
      "d": 444.44400000000314,
      "v": 61
    },
    {
      "midi": 64,
      "hit": false,
      "t": 78999.92100000005,
      "d": 666.6659999999974,
      "v": 67
    },
    {
      "midi": 71,
      "hit": false,
      "t": 78999.92100000005,
      "d": 666.6659999999974,
      "v": 67
    },
    {
      "midi": 76,
      "hit": false,
      "t": 78999.92100000005,
      "d": 666.6659999999974,
      "v": 67
    },
    {
      "midi": 80,
      "hit": false,
      "t": 78999.92100000005,
      "d": 666.6659999999974,
      "v": 67
    },
    {
      "midi": 78,
      "hit": false,
      "t": 79666.58699999998,
      "d": 222.2219999999943,
      "v": 61
    },
    {
      "midi": 78,
      "hit": false,
      "t": 79999.91999999998,
      "d": 1333.3319999999949,
      "v": 61
    },
    {
      "midi": 62,
      "hit": false,
      "t": 79999.92000000004,
      "d": 1333.3319999999949,
      "v": 67
    },
    {
      "midi": 69,
      "hit": false,
      "t": 79999.92000000004,
      "d": 1333.3319999999949,
      "v": 67
    },
    {
      "midi": 74,
      "hit": false,
      "t": 79999.92000000004,
      "d": 1333.3319999999949,
      "v": 67
    },
    {
      "midi": 77,
      "hit": false,
      "t": 81999.91799999998,
      "d": 1333.3319999999949,
      "v": 61
    },
    {
      "midi": 62,
      "hit": false,
      "t": 81999.91800000003,
      "d": 1333.332000000024,
      "v": 67
    },
    {
      "midi": 69,
      "hit": false,
      "t": 82166.58450000004,
      "d": 1166.6655000000173,
      "v": 67
    },
    {
      "midi": 74,
      "hit": false,
      "t": 82333.25100000005,
      "d": 999.9990000000107,
      "v": 67
    },
    {
      "midi": 77,
      "hit": false,
      "t": 82499.91750000005,
      "d": 833.3325000000041,
      "v": 67
    },
    {
      "midi": 81,
      "hit": false,
      "t": 82666.58400000006,
      "d": 833.3325000000041,
      "v": 67
    },
    {
      "midi": 85,
      "hit": false,
      "t": 83999.91600000007,
      "d": 111.11100000000442,
      "v": 67
    },
    {
      "midi": 85,
      "hit": false,
      "t": 84166.58250000008,
      "d": 111.11100000000442,
      "v": 67
    },
    {
      "midi": 85,
      "hit": false,
      "t": 84333.24900000008,
      "d": 111.11100000000442,
      "v": 67
    },
    {
      "midi": 85,
      "hit": false,
      "t": 84499.91550000009,
      "d": 111.11100000000442,
      "v": 67
    },
    {
      "midi": 85,
      "hit": false,
      "t": 84666.5820000001,
      "d": 111.11100000000442,
      "v": 67
    },
    {
      "midi": 85,
      "hit": false,
      "t": 84833.2485000001,
      "d": 111.11100000000442,
      "v": 67
    },
    {
      "midi": 85,
      "hit": false,
      "t": 84999.91500000011,
      "d": 111.11100000000442,
      "v": 67
    },
    {
      "midi": 71,
      "hit": false,
      "t": 85166.58149999997,
      "d": 111.11100000000442,
      "v": 64
    },
    {
      "midi": 85,
      "hit": false,
      "t": 85166.58150000012,
      "d": 111.11100000000442,
      "v": 67
    },
    {
      "midi": 73,
      "hit": false,
      "t": 85333.24799999998,
      "d": 111.11100000000442,
      "v": 64
    },
    {
      "midi": 86,
      "hit": false,
      "t": 85333.24800000012,
      "d": 111.11100000000442,
      "v": 67
    },
    {
      "midi": 71,
      "hit": false,
      "t": 85499.91449999998,
      "d": 111.11100000000442,
      "v": 64
    },
    {
      "midi": 86,
      "hit": false,
      "t": 85499.91450000013,
      "d": 111.11100000000442,
      "v": 67
    },
    {
      "midi": 73,
      "hit": false,
      "t": 85666.58099999999,
      "d": 111.11100000000442,
      "v": 64
    },
    {
      "midi": 88,
      "hit": false,
      "t": 85666.58100000014,
      "d": 111.11100000000442,
      "v": 67
    },
    {
      "midi": 71,
      "hit": false,
      "t": 85833.2475,
      "d": 222.2219999999943,
      "v": 64
    },
    {
      "midi": 88,
      "hit": false,
      "t": 85833.24750000014,
      "d": 111.11100000000442,
      "v": 67
    },
    {
      "midi": 90,
      "hit": false,
      "t": 85999.91400000015,
      "d": 111.11100000000442,
      "v": 67
    },
    {
      "midi": 73,
      "hit": false,
      "t": 86166.5805,
      "d": 222.2219999999943,
      "v": 64
    },
    {
      "midi": 90,
      "hit": false,
      "t": 86166.58050000016,
      "d": 111.11100000000442,
      "v": 67
    },
    {
      "midi": 90,
      "hit": false,
      "t": 86333.24700000016,
      "d": 111.11100000000442,
      "v": 67
    },
    {
      "midi": 71,
      "hit": false,
      "t": 86499.9135,
      "d": 111.11100000000442,
      "v": 64
    },
    {
      "midi": 90,
      "hit": false,
      "t": 86499.91350000017,
      "d": 111.11100000000442,
      "v": 67
    },
    {
      "midi": 73,
      "hit": false,
      "t": 86666.58,
      "d": 111.11100000000442,
      "v": 64
    },
    {
      "midi": 90,
      "hit": false,
      "t": 86666.58000000018,
      "d": 111.11100000000442,
      "v": 67
    },
    {
      "midi": 71,
      "hit": false,
      "t": 86833.24650000001,
      "d": 111.11100000000442,
      "v": 64
    },
    {
      "midi": 90,
      "hit": false,
      "t": 86833.24650000018,
      "d": 111.11100000000442,
      "v": 67
    },
    {
      "midi": 73,
      "hit": false,
      "t": 86999.91300000002,
      "d": 111.11100000000442,
      "v": 64
    },
    {
      "midi": 90,
      "hit": false,
      "t": 86999.91300000019,
      "d": 111.11100000000442,
      "v": 67
    },
    {
      "midi": 71,
      "hit": false,
      "t": 87166.57950000002,
      "d": 222.2219999999943,
      "v": 64
    },
    {
      "midi": 90,
      "hit": false,
      "t": 87166.5795000002,
      "d": 111.11100000000442,
      "v": 67
    },
    {
      "midi": 88,
      "hit": false,
      "t": 87333.2460000002,
      "d": 111.11100000000442,
      "v": 67
    },
    {
      "midi": 73,
      "hit": false,
      "t": 87499.91250000002,
      "d": 222.2219999999943,
      "v": 64
    },
    {
      "midi": 88,
      "hit": false,
      "t": 87499.91250000021,
      "d": 111.11100000000442,
      "v": 67
    },
    {
      "midi": 86,
      "hit": false,
      "t": 87666.57900000022,
      "d": 111.11100000000442,
      "v": 67
    },
    {
      "midi": 71,
      "hit": false,
      "t": 87833.24550000002,
      "d": 111.11100000000442,
      "v": 64
    },
    {
      "midi": 86,
      "hit": false,
      "t": 87833.24550000022,
      "d": 111.11100000000442,
      "v": 67
    },
    {
      "midi": 73,
      "hit": false,
      "t": 87999.91200000003,
      "d": 111.11100000000442,
      "v": 64
    },
    {
      "midi": 85,
      "hit": false,
      "t": 87999.91200000023,
      "d": 111.11100000000442,
      "v": 67
    },
    {
      "midi": 71,
      "hit": false,
      "t": 88166.57850000003,
      "d": 111.11100000000442,
      "v": 64
    },
    {
      "midi": 85,
      "hit": false,
      "t": 88166.57850000024,
      "d": 111.11100000000442,
      "v": 67
    },
    {
      "midi": 73,
      "hit": false,
      "t": 88333.24500000004,
      "d": 111.11100000000442,
      "v": 64
    },
    {
      "midi": 85,
      "hit": false,
      "t": 88333.24500000024,
      "d": 111.11100000000442,
      "v": 67
    },
    {
      "midi": 71,
      "hit": false,
      "t": 88499.91150000005,
      "d": 111.11100000000442,
      "v": 64
    },
    {
      "midi": 85,
      "hit": false,
      "t": 88499.91150000025,
      "d": 111.11100000000442,
      "v": 67
    },
    {
      "midi": 73,
      "hit": false,
      "t": 88666.57800000005,
      "d": 111.11100000000442,
      "v": 64
    },
    {
      "midi": 85,
      "hit": false,
      "t": 88666.57800000026,
      "d": 111.11100000000442,
      "v": 67
    },
    {
      "midi": 71,
      "hit": false,
      "t": 88833.24450000006,
      "d": 111.11100000000442,
      "v": 64
    },
    {
      "midi": 85,
      "hit": false,
      "t": 88833.24450000026,
      "d": 111.11100000000442,
      "v": 67
    },
    {
      "midi": 81,
      "hit": false,
      "t": 88999.91100000027,
      "d": 111.11100000000442,
      "v": 67
    },
    {
      "midi": 81,
      "hit": false,
      "t": 89166.57750000028,
      "d": 111.11100000000442,
      "v": 67
    },
    {
      "midi": 73,
      "hit": false,
      "t": 89333.24400000006,
      "d": 333.3329999999987,
      "v": 64
    },
    {
      "midi": 81,
      "hit": false,
      "t": 89333.24400000028,
      "d": 111.11100000000442,
      "v": 67
    },
    {
      "midi": 81,
      "hit": false,
      "t": 89499.91050000029,
      "d": 111.11100000000442,
      "v": 67
    },
    {
      "midi": 81,
      "hit": false,
      "t": 89666.5770000003,
      "d": 111.11100000000442,
      "v": 67
    },
    {
      "midi": 73,
      "hit": false,
      "t": 89833.24350000007,
      "d": 111.11100000000442,
      "v": 64
    },
    {
      "midi": 81,
      "hit": false,
      "t": 89833.2435000003,
      "d": 111.11100000000442,
      "v": 67
    },
    {
      "midi": 71,
      "hit": false,
      "t": 89999.91000000008,
      "d": 222.2219999999943,
      "v": 64
    },
    {
      "midi": 74,
      "hit": false,
      "t": 89999.91000000031,
      "d": 111.11100000000442,
      "v": 67
    },
    {
      "midi": 74,
      "hit": false,
      "t": 90166.57650000032,
      "d": 111.11100000000442,
      "v": 67
    },
    {
      "midi": 69,
      "hit": false,
      "t": 90333.24300000007,
      "d": 222.2219999999943,
      "v": 64
    },
    {
      "midi": 74,
      "hit": false,
      "t": 90333.24300000032,
      "d": 111.11100000000442,
      "v": 67
    },
    {
      "midi": 74,
      "hit": false,
      "t": 90499.90950000033,
      "d": 111.11100000000442,
      "v": 67
    },
    {
      "midi": 74,
      "hit": false,
      "t": 90666.57600000034,
      "d": 111.11100000000442,
      "v": 67
    },
    {
      "midi": 74,
      "hit": false,
      "t": 90833.24250000034,
      "d": 111.11100000000442,
      "v": 67
    },
    {
      "midi": 74,
      "hit": false,
      "t": 90999.90900000035,
      "d": 111.11100000000442,
      "v": 67
    },
    {
      "midi": 74,
      "hit": false,
      "t": 91166.57550000036,
      "d": 111.11100000000442,
      "v": 67
    },
    {
      "midi": 74,
      "hit": false,
      "t": 91333.24200000036,
      "d": 111.11100000000442,
      "v": 67
    },
    {
      "midi": 74,
      "hit": false,
      "t": 91499.90850000037,
      "d": 111.11100000000442,
      "v": 67
    },
    {
      "midi": 74,
      "hit": false,
      "t": 91666.57500000038,
      "d": 111.11100000000442,
      "v": 67
    },
    {
      "midi": 74,
      "hit": false,
      "t": 91833.24150000038,
      "d": 111.11100000000442,
      "v": 67
    },
    {
      "midi": 76,
      "hit": false,
      "t": 91999.90800000007,
      "d": 111.11100000000442,
      "v": 64
    },
    {
      "midi": 88,
      "hit": false,
      "t": 91999.90800000039,
      "d": 111.11100000000442,
      "v": 67
    },
    {
      "midi": 83,
      "hit": false,
      "t": 92166.57450000008,
      "d": 111.11100000000442,
      "v": 64
    },
    {
      "midi": 85,
      "hit": false,
      "t": 92166.57450000008,
      "d": 333.3329999999987,
      "v": 64
    },
    {
      "midi": 88,
      "hit": false,
      "t": 92166.5745000004,
      "d": 111.11100000000442,
      "v": 67
    },
    {
      "midi": 88,
      "hit": false,
      "t": 92333.2410000004,
      "d": 111.11100000000442,
      "v": 67
    },
    {
      "midi": 88,
      "hit": false,
      "t": 92499.90750000041,
      "d": 111.11100000000442,
      "v": 67
    },
    {
      "midi": 81,
      "hit": false,
      "t": 92666.57400000008,
      "d": 222.2219999999943,
      "v": 64
    },
    {
      "midi": 88,
      "hit": false,
      "t": 92666.57400000042,
      "d": 111.11100000000442,
      "v": 67
    },
    {
      "midi": 88,
      "hit": false,
      "t": 92833.24050000042,
      "d": 111.11100000000442,
      "v": 67
    },
    {
      "midi": 88,
      "hit": false,
      "t": 92999.90700000043,
      "d": 111.11100000000442,
      "v": 67
    },
    {
      "midi": 88,
      "hit": false,
      "t": 93166.57350000044,
      "d": 111.11100000000442,
      "v": 67
    },
    {
      "midi": 81,
      "hit": false,
      "t": 93333.24000000008,
      "d": 222.2219999999943,
      "v": 64
    },
    {
      "midi": 88,
      "hit": false,
      "t": 93333.24000000044,
      "d": 111.11100000000442,
      "v": 67
    },
    {
      "midi": 88,
      "hit": false,
      "t": 93499.90650000045,
      "d": 111.11100000000442,
      "v": 67
    },
    {
      "midi": 78,
      "hit": false,
      "t": 93666.57300000008,
      "d": 222.2219999999943,
      "v": 64
    },
    {
      "midi": 86,
      "hit": false,
      "t": 93666.57300000046,
      "d": 111.11100000000442,
      "v": 67
    },
    {
      "midi": 90,
      "hit": false,
      "t": 93666.57300000046,
      "d": 111.11100000000442,
      "v": 67
    },
    {
      "midi": 86,
      "hit": false,
      "t": 93833.23950000046,
      "d": 111.11100000000442,
      "v": 67
    },
    {
      "midi": 90,
      "hit": false,
      "t": 93833.23950000046,
      "d": 111.11100000000442,
      "v": 67
    },
    {
      "midi": 81,
      "hit": false,
      "t": 93999.90600000008,
      "d": 111.11100000000442,
      "v": 64
    },
    {
      "midi": 88,
      "hit": false,
      "t": 93999.90600000047,
      "d": 111.11100000000442,
      "v": 67
    },
    {
      "midi": 92,
      "hit": false,
      "t": 93999.90600000047,
      "d": 111.11100000000442,
      "v": 67
    },
    {
      "midi": 79,
      "hit": false,
      "t": 94166.57250000008,
      "d": 111.11100000000442,
      "v": 64
    },
    {
      "midi": 88,
      "hit": false,
      "t": 94166.57250000047,
      "d": 111.11100000000442,
      "v": 67
    },
    {
      "midi": 92,
      "hit": false,
      "t": 94166.57250000047,
      "d": 111.11100000000442,
      "v": 67
    },
    {
      "midi": 81,
      "hit": false,
      "t": 94333.23900000009,
      "d": 111.11100000000442,
      "v": 64
    },
    {
      "midi": 93,
      "hit": false,
      "t": 94333.23900000048,
      "d": 111.11100000000442,
      "v": 67
    },
    {
      "midi": 79,
      "hit": false,
      "t": 94499.9055000001,
      "d": 111.11100000000442,
      "v": 64
    },
    {
      "midi": 93,
      "hit": false,
      "t": 94499.90550000049,
      "d": 111.11100000000442,
      "v": 67
    },
    {
      "midi": 81,
      "hit": false,
      "t": 94666.5720000001,
      "d": 111.11100000000442,
      "v": 64
    },
    {
      "midi": 93,
      "hit": false,
      "t": 94666.5720000005,
      "d": 111.11100000000442,
      "v": 67
    },
    {
      "midi": 78,
      "hit": false,
      "t": 94833.23850000011,
      "d": 111.11100000000442,
      "v": 64
    },
    {
      "midi": 93,
      "hit": false,
      "t": 94833.2385000005,
      "d": 111.11100000000442,
      "v": 67
    },
    {
      "midi": 81,
      "hit": false,
      "t": 94999.90500000012,
      "d": 111.11100000000442,
      "v": 64
    },
    {
      "midi": 93,
      "hit": false,
      "t": 94999.90500000051,
      "d": 111.11100000000442,
      "v": 67
    },
    {
      "midi": 78,
      "hit": false,
      "t": 95166.57150000012,
      "d": 111.11100000000442,
      "v": 64
    },
    {
      "midi": 93,
      "hit": false,
      "t": 95166.57150000051,
      "d": 111.11100000000442,
      "v": 67
    },
    {
      "midi": 81,
      "hit": false,
      "t": 95333.23800000013,
      "d": 111.11100000000442,
      "v": 64
    },
    {
      "midi": 95,
      "hit": false,
      "t": 95333.23800000052,
      "d": 111.11100000000442,
      "v": 67
    },
    {
      "midi": 81,
      "hit": false,
      "t": 95499.90450000014,
      "d": 111.11100000000442,
      "v": 64
    },
    {
      "midi": 95,
      "hit": false,
      "t": 95499.90450000053,
      "d": 111.11100000000442,
      "v": 67
    },
    {
      "midi": 81,
      "hit": false,
      "t": 95666.57100000014,
      "d": 111.11100000000442,
      "v": 64
    },
    {
      "midi": 97,
      "hit": false,
      "t": 95666.57100000053,
      "d": 111.11100000000442,
      "v": 67
    },
    {
      "midi": 85,
      "hit": false,
      "t": 95833.23750000015,
      "d": 388.88850000000093,
      "v": 64
    },
    {
      "midi": 97,
      "hit": false,
      "t": 95833.23750000054,
      "d": 111.11100000000442,
      "v": 67
    },
    {
      "midi": 97,
      "hit": false,
      "t": 95999.90400000055,
      "d": 111.11100000000442,
      "v": 67
    },
    {
      "midi": 97,
      "hit": false,
      "t": 96166.57050000055,
      "d": 111.11100000000442,
      "v": 67
    },
    {
      "midi": 97,
      "hit": false,
      "t": 96333.23700000056,
      "d": 111.11100000000442,
      "v": 67
    },
    {
      "midi": 97,
      "hit": false,
      "t": 96499.90350000057,
      "d": 111.11100000000442,
      "v": 67
    },
    {
      "midi": 81,
      "hit": false,
      "t": 96666.57000000015,
      "d": 111.11100000000442,
      "v": 64
    },
    {
      "midi": 97,
      "hit": false,
      "t": 96666.57000000057,
      "d": 111.11100000000442,
      "v": 67
    },
    {
      "midi": 78,
      "hit": false,
      "t": 96833.23650000016,
      "d": 111.11100000000442,
      "v": 64
    },
    {
      "midi": 97,
      "hit": false,
      "t": 96833.23650000058,
      "d": 111.11100000000442,
      "v": 67
    },
    {
      "midi": 78,
      "hit": false,
      "t": 96999.90300000017,
      "d": 111.11100000000442,
      "v": 64
    },
    {
      "midi": 81,
      "hit": false,
      "t": 96999.90300000017,
      "d": 444.44400000000314,
      "v": 64
    },
    {
      "midi": 93,
      "hit": false,
      "t": 96999.90300000059,
      "d": 111.11100000000442,
      "v": 67
    },
    {
      "midi": 93,
      "hit": false,
      "t": 97166.5695000006,
      "d": 111.11100000000442,
      "v": 67
    },
    {
      "midi": 93,
      "hit": false,
      "t": 97333.2360000006,
      "d": 111.11100000000442,
      "v": 67
    },
    {
      "midi": 93,
      "hit": false,
      "t": 97499.90250000061,
      "d": 111.11100000000442,
      "v": 67
    },
    {
      "midi": 81,
      "hit": false,
      "t": 97666.56900000016,
      "d": 222.2219999999943,
      "v": 64
    },
    {
      "midi": 93,
      "hit": false,
      "t": 97666.56900000061,
      "d": 111.11100000000442,
      "v": 67
    },
    {
      "midi": 93,
      "hit": false,
      "t": 97833.23550000062,
      "d": 111.11100000000442,
      "v": 67
    },
    {
      "midi": 78,
      "hit": false,
      "t": 97999.90200000016,
      "d": 111.11100000000442,
      "v": 64
    },
    {
      "midi": 90,
      "hit": false,
      "t": 97999.90200000063,
      "d": 111.11100000000442,
      "v": 67
    },
    {
      "midi": 81,
      "hit": false,
      "t": 98166.56850000017,
      "d": 111.11100000000442,
      "v": 64
    },
    {
      "midi": 90,
      "hit": false,
      "t": 98166.56850000063,
      "d": 111.11100000000442,
      "v": 67
    },
    {
      "midi": 90,
      "hit": false,
      "t": 98333.23500000064,
      "d": 111.11100000000442,
      "v": 67
    },
    {
      "midi": 90,
      "hit": false,
      "t": 98499.90150000065,
      "d": 111.11100000000442,
      "v": 67
    },
    {
      "midi": 90,
      "hit": false,
      "t": 98666.56800000065,
      "d": 111.11100000000442,
      "v": 67
    },
    {
      "midi": 90,
      "hit": false,
      "t": 98833.23450000066,
      "d": 111.11100000000442,
      "v": 67
    },
    {
      "midi": 90,
      "hit": false,
      "t": 98999.90100000067,
      "d": 111.11100000000442,
      "v": 67
    },
    {
      "midi": 90,
      "hit": false,
      "t": 99166.56750000067,
      "d": 111.11100000000442,
      "v": 67
    },
    {
      "midi": 90,
      "hit": false,
      "t": 99333.23400000068,
      "d": 111.11100000000442,
      "v": 67
    },
    {
      "midi": 90,
      "hit": false,
      "t": 99499.90050000069,
      "d": 111.11100000000442,
      "v": 67
    },
    {
      "midi": 90,
      "hit": false,
      "t": 99666.5670000007,
      "d": 111.11100000000442,
      "v": 67
    },
    {
      "midi": 90,
      "hit": false,
      "t": 99833.2335000007,
      "d": 111.11100000000442,
      "v": 67
    },
    {
      "midi": 88,
      "hit": false,
      "t": 99999.9000000007,
      "d": 111.11100000000442,
      "v": 67
    },
    {
      "midi": 88,
      "hit": false,
      "t": 100166.56650000071,
      "d": 111.11100000000442,
      "v": 67
    },
    {
      "midi": 88,
      "hit": false,
      "t": 100333.23300000072,
      "d": 111.11100000000442,
      "v": 67
    },
    {
      "midi": 88,
      "hit": false,
      "t": 100499.89950000073,
      "d": 111.11100000000442,
      "v": 67
    },
    {
      "midi": 88,
      "hit": false,
      "t": 100666.56600000073,
      "d": 111.11100000000442,
      "v": 67
    },
    {
      "midi": 88,
      "hit": false,
      "t": 100833.23250000074,
      "d": 111.11100000000442,
      "v": 67
    },
    {
      "midi": 76,
      "hit": false,
      "t": 100999.89900000018,
      "d": 222.2219999999943,
      "v": 64
    },
    {
      "midi": 88,
      "hit": false,
      "t": 100999.89900000075,
      "d": 222.2219999999943,
      "v": 67
    },
    {
      "midi": 76,
      "hit": false,
      "t": 101333.23200000018,
      "d": 222.2219999999943,
      "v": 64
    },
    {
      "midi": 85,
      "hit": false,
      "t": 101333.23200000075,
      "d": 222.2219999999943,
      "v": 67
    },
    {
      "midi": 76,
      "hit": false,
      "t": 101666.56500000018,
      "d": 222.2219999999943,
      "v": 64
    },
    {
      "midi": 85,
      "hit": false,
      "t": 101666.56500000074,
      "d": 222.2219999999943,
      "v": 67
    },
    {
      "midi": 78,
      "hit": false,
      "t": 101999.89800000018,
      "d": 222.2219999999943,
      "v": 64
    },
    {
      "midi": 85,
      "hit": false,
      "t": 101999.89800000074,
      "d": 666.6659999999974,
      "v": 67
    },
    {
      "midi": 81,
      "hit": false,
      "t": 102333.23100000017,
      "d": 222.2219999999943,
      "v": 64
    },
    {
      "midi": 78,
      "hit": false,
      "t": 103333.23000000017,
      "d": 111.11100000000442,
      "v": 64
    },
    {
      "midi": 85,
      "hit": false,
      "t": 103333.23000000074,
      "d": 222.2219999999943,
      "v": 67
    },
    {
      "midi": 81,
      "hit": false,
      "t": 103499.89650000018,
      "d": 111.11100000000442,
      "v": 64
    },
    {
      "midi": 81,
      "hit": false,
      "t": 103666.56300000018,
      "d": 111.11100000000442,
      "v": 64
    },
    {
      "midi": 85,
      "hit": false,
      "t": 103666.56300000074,
      "d": 222.2219999999943,
      "v": 67
    },
    {
      "midi": 78,
      "hit": false,
      "t": 103833.22950000019,
      "d": 111.11100000000442,
      "v": 64
    },
    {
      "midi": 81,
      "hit": false,
      "t": 103999.8960000002,
      "d": 111.11100000000442,
      "v": 64
    },
    {
      "midi": 83,
      "hit": false,
      "t": 103999.8960000002,
      "d": 222.22200000000885,
      "v": 64
    },
    {
      "midi": 83,
      "hit": false,
      "t": 103999.89600000074,
      "d": 666.6659999999974,
      "v": 67
    },
    {
      "midi": 81,
      "hit": false,
      "t": 104333.22900000021,
      "d": 222.2219999999943,
      "v": 64
    },
    {
      "midi": 81,
      "hit": false,
      "t": 105333.2280000002,
      "d": 222.2219999999943,
      "v": 64
    },
    {
      "midi": 83,
      "hit": false,
      "t": 105333.22800000073,
      "d": 222.2219999999943,
      "v": 67
    },
    {
      "midi": 81,
      "hit": false,
      "t": 105666.5610000002,
      "d": 222.2219999999943,
      "v": 64
    },
    {
      "midi": 83,
      "hit": false,
      "t": 105666.56100000073,
      "d": 222.2219999999943,
      "v": 67
    },
    {
      "midi": 81,
      "hit": false,
      "t": 105999.8940000002,
      "d": 111.11100000000442,
      "v": 64
    },
    {
      "midi": 81,
      "hit": false,
      "t": 105999.89400000073,
      "d": 666.6659999999974,
      "v": 67
    },
    {
      "midi": 76,
      "hit": false,
      "t": 106166.56050000021,
      "d": 111.11100000000442,
      "v": 64
    },
    {
      "midi": 78,
      "hit": false,
      "t": 106333.22700000022,
      "d": 222.2219999999943,
      "v": 64
    },
    {
      "midi": 81,
      "hit": false,
      "t": 106999.89300000072,
      "d": 666.6659999999974,
      "v": 67
    },
    {
      "midi": 83,
      "hit": false,
      "t": 107666.55900000021,
      "d": 222.2219999999943,
      "v": 64
    },
    {
      "midi": 84,
      "hit": false,
      "t": 108999.8910000002,
      "d": 222.2219999999943,
      "v": 64
    },
    {
      "midi": 88,
      "hit": false,
      "t": 108999.89100000072,
      "d": 444.44400000000314,
      "v": 67
    },
    {
      "midi": 83,
      "hit": false,
      "t": 109333.2240000002,
      "d": 222.2219999999943,
      "v": 64
    },
    {
      "midi": 81,
      "hit": false,
      "t": 109666.5570000002,
      "d": 111.11100000000442,
      "v": 64
    },
    {
      "midi": 83,
      "hit": false,
      "t": 109666.55700000071,
      "d": 222.2219999999943,
      "v": 67
    },
    {
      "midi": 78,
      "hit": false,
      "t": 109833.22350000021,
      "d": 111.11100000000442,
      "v": 64
    },
    {
      "midi": 81,
      "hit": false,
      "t": 109999.89000000022,
      "d": 111.11100000000442,
      "v": 64
    },
    {
      "midi": 85,
      "hit": false,
      "t": 109999.89000000071,
      "d": 666.6659999999974,
      "v": 67
    },
    {
      "midi": 83,
      "hit": false,
      "t": 110166.55650000022,
      "d": 111.11100000000442,
      "v": 64
    },
    {
      "midi": 85,
      "hit": false,
      "t": 110333.22300000023,
      "d": 222.2219999999943,
      "v": 64
    },
    {
      "midi": 85,
      "hit": false,
      "t": 111166.55550000022,
      "d": 222.2219999999943,
      "v": 64
    },
    {
      "midi": 85,
      "hit": false,
      "t": 111333.22200000071,
      "d": 222.2219999999943,
      "v": 67
    },
    {
      "midi": 81,
      "hit": false,
      "t": 111499.88850000022,
      "d": 111.11100000000442,
      "v": 64
    },
    {
      "midi": 78,
      "hit": false,
      "t": 111666.55500000023,
      "d": 222.2219999999943,
      "v": 64
    },
    {
      "midi": 85,
      "hit": false,
      "t": 111666.5550000007,
      "d": 222.2219999999943,
      "v": 67
    },
    {
      "midi": 85,
      "hit": false,
      "t": 111999.88800000022,
      "d": 111.11100000000442,
      "v": 64
    },
    {
      "midi": 83,
      "hit": false,
      "t": 111999.8880000007,
      "d": 666.6659999999974,
      "v": 67
    },
    {
      "midi": 83,
      "hit": false,
      "t": 112166.55450000023,
      "d": 111.11100000000442,
      "v": 64
    },
    {
      "midi": 81,
      "hit": false,
      "t": 112333.22100000024,
      "d": 111.11100000000442,
      "v": 64
    },
    {
      "midi": 78,
      "hit": false,
      "t": 112499.88750000024,
      "d": 222.2219999999943,
      "v": 64
    },
    {
      "midi": 85,
      "hit": false,
      "t": 112833.22050000024,
      "d": 111.11100000000442,
      "v": 64
    },
    {
      "midi": 83,
      "hit": false,
      "t": 112999.88700000025,
      "d": 222.2219999999943,
      "v": 64
    },
    {
      "midi": 81,
      "hit": false,
      "t": 113333.22000000025,
      "d": 111.11100000000442,
      "v": 64
    },
    {
      "midi": 83,
      "hit": false,
      "t": 113333.2200000007,
      "d": 222.2219999999943,
      "v": 67
    },
    {
      "midi": 78,
      "hit": false,
      "t": 113499.88650000026,
      "d": 111.11100000000442,
      "v": 64
    },
    {
      "midi": 81,
      "hit": false,
      "t": 113666.55300000026,
      "d": 222.2219999999943,
      "v": 64
    },
    {
      "midi": 83,
      "hit": false,
      "t": 113666.5530000007,
      "d": 222.2219999999943,
      "v": 67
    },
    {
      "midi": 81,
      "hit": false,
      "t": 113999.88600000026,
      "d": 111.11100000000442,
      "v": 64
    },
    {
      "midi": 81,
      "hit": false,
      "t": 113999.8860000007,
      "d": 111.11100000000442,
      "v": 67
    },
    {
      "midi": 81,
      "hit": false,
      "t": 114166.55250000027,
      "d": 222.2219999999943,
      "v": 64
    },
    {
      "midi": 81,
      "hit": false,
      "t": 114166.5525000007,
      "d": 111.11100000000442,
      "v": 67
    },
    {
      "midi": 81,
      "hit": false,
      "t": 114333.21900000071,
      "d": 111.11100000000442,
      "v": 67
    },
    {
      "midi": 83,
      "hit": false,
      "t": 114499.88550000027,
      "d": 111.11100000000442,
      "v": 64
    },
    {
      "midi": 81,
      "hit": false,
      "t": 114499.88550000072,
      "d": 111.11100000000442,
      "v": 67
    },
    {
      "midi": 85,
      "hit": false,
      "t": 114666.55200000027,
      "d": 444.44400000000314,
      "v": 64
    },
    {
      "midi": 81,
      "hit": false,
      "t": 114666.55200000072,
      "d": 111.11100000000442,
      "v": 67
    },
    {
      "midi": 81,
      "hit": false,
      "t": 114833.21850000073,
      "d": 111.11100000000442,
      "v": 67
    },
    {
      "midi": 83,
      "hit": false,
      "t": 114999.88500000074,
      "d": 111.11100000000442,
      "v": 67
    },
    {
      "midi": 83,
      "hit": false,
      "t": 115166.55150000074,
      "d": 111.11100000000442,
      "v": 67
    },
    {
      "midi": 78,
      "hit": false,
      "t": 115333.21800000027,
      "d": 222.2219999999943,
      "v": 64
    },
    {
      "midi": 83,
      "hit": false,
      "t": 115333.21800000075,
      "d": 111.11100000000442,
      "v": 67
    },
    {
      "midi": 83,
      "hit": false,
      "t": 115499.88450000076,
      "d": 111.11100000000442,
      "v": 67
    },
    {
      "midi": 81,
      "hit": false,
      "t": 115666.55100000027,
      "d": 222.2219999999943,
      "v": 64
    },
    {
      "midi": 83,
      "hit": false,
      "t": 115666.55100000076,
      "d": 111.11100000000442,
      "v": 67
    },
    {
      "midi": 83,
      "hit": false,
      "t": 115833.21750000077,
      "d": 111.11100000000442,
      "v": 67
    },
    {
      "midi": 81,
      "hit": false,
      "t": 115999.88400000027,
      "d": 111.11100000000442,
      "v": 61
    },
    {
      "midi": 85,
      "hit": false,
      "t": 115999.88400000027,
      "d": 111.11100000000442,
      "v": 61
    },
    {
      "midi": 83,
      "hit": false,
      "t": 115999.88400000027,
      "d": 444.44400000000314,
      "v": 61
    },
    {
      "midi": 86,
      "hit": false,
      "t": 115999.88400000027,
      "d": 444.44400000000314,
      "v": 61
    },
    {
      "midi": 57,
      "hit": false,
      "t": 115999.88400000078,
      "d": 222.2219999999943,
      "v": 41
    },
    {
      "midi": 64,
      "hit": false,
      "t": 116333.21700000078,
      "d": 222.2219999999943,
      "v": 41
    },
    {
      "midi": 81,
      "hit": false,
      "t": 116666.55000000026,
      "d": 444.44400000000314,
      "v": 61
    },
    {
      "midi": 85,
      "hit": false,
      "t": 116666.55000000026,
      "d": 444.44400000000314,
      "v": 61
    },
    {
      "midi": 69,
      "hit": false,
      "t": 116666.55000000077,
      "d": 222.22200000000885,
      "v": 41
    },
    {
      "midi": 71,
      "hit": false,
      "t": 116833.21650000078,
      "d": 111.11100000000442,
      "v": 41
    },
    {
      "midi": 73,
      "hit": false,
      "t": 116999.88300000079,
      "d": 222.2219999999943,
      "v": 41
    },
    {
      "midi": 76,
      "hit": false,
      "t": 116999.88300000079,
      "d": 222.2219999999943,
      "v": 41
    },
    {
      "midi": 71,
      "hit": false,
      "t": 117333.21600000079,
      "d": 222.2219999999943,
      "v": 41
    },
    {
      "midi": 69,
      "hit": false,
      "t": 117666.54900000078,
      "d": 222.2219999999943,
      "v": 41
    },
    {
      "midi": 78,
      "hit": false,
      "t": 117999.88200000027,
      "d": 111.11100000000442,
      "v": 61
    },
    {
      "midi": 81,
      "hit": false,
      "t": 117999.88200000027,
      "d": 111.11100000000442,
      "v": 61
    },
    {
      "midi": 80,
      "hit": false,
      "t": 117999.88200000027,
      "d": 444.44400000000314,
      "v": 61
    },
    {
      "midi": 83,
      "hit": false,
      "t": 117999.88200000027,
      "d": 444.44400000000314,
      "v": 61
    },
    {
      "midi": 57,
      "hit": false,
      "t": 117999.88200000078,
      "d": 222.2219999999943,
      "v": 41
    },
    {
      "midi": 61,
      "hit": false,
      "t": 118333.21500000078,
      "d": 222.2219999999943,
      "v": 41
    },
    {
      "midi": 78,
      "hit": false,
      "t": 118666.54800000027,
      "d": 444.44400000000314,
      "v": 61
    },
    {
      "midi": 81,
      "hit": false,
      "t": 118666.54800000027,
      "d": 444.44400000000314,
      "v": 61
    },
    {
      "midi": 66,
      "hit": false,
      "t": 118666.54800000078,
      "d": 222.22200000000885,
      "v": 41
    },
    {
      "midi": 71,
      "hit": false,
      "t": 118833.21450000079,
      "d": 111.11100000000442,
      "v": 41
    },
    {
      "midi": 73,
      "hit": false,
      "t": 118999.8810000008,
      "d": 222.2219999999943,
      "v": 41
    },
    {
      "midi": 76,
      "hit": false,
      "t": 118999.8810000008,
      "d": 222.2219999999943,
      "v": 41
    },
    {
      "midi": 71,
      "hit": false,
      "t": 119333.2140000008,
      "d": 222.2219999999943,
      "v": 41
    },
    {
      "midi": 69,
      "hit": false,
      "t": 119666.54700000079,
      "d": 222.2219999999943,
      "v": 41
    },
    {
      "midi": 76,
      "hit": false,
      "t": 119999.88000000028,
      "d": 222.2219999999943,
      "v": 61
    },
    {
      "midi": 80,
      "hit": false,
      "t": 119999.88000000028,
      "d": 222.2219999999943,
      "v": 61
    },
    {
      "midi": 62,
      "hit": false,
      "t": 119999.88000000079,
      "d": 222.2219999999943,
      "v": 41
    },
    {
      "midi": 74,
      "hit": false,
      "t": 120333.21300000028,
      "d": 444.44400000000314,
      "v": 61
    },
    {
      "midi": 78,
      "hit": false,
      "t": 120333.21300000028,
      "d": 444.44400000000314,
      "v": 61
    },
    {
      "midi": 69,
      "hit": false,
      "t": 120333.21300000079,
      "d": 222.2219999999943,
      "v": 41
    },
    {
      "midi": 74,
      "hit": false,
      "t": 120666.54600000079,
      "d": 222.22200000000885,
      "v": 41
    },
    {
      "midi": 76,
      "hit": false,
      "t": 120833.2125000008,
      "d": 111.11100000000442,
      "v": 41
    },
    {
      "midi": 78,
      "hit": false,
      "t": 120999.8790000008,
      "d": 222.2219999999943,
      "v": 41
    },
    {
      "midi": 74,
      "hit": false,
      "t": 121333.21200000028,
      "d": 111.11100000000442,
      "v": 61
    },
    {
      "midi": 78,
      "hit": false,
      "t": 121333.21200000028,
      "d": 111.11100000000442,
      "v": 61
    },
    {
      "midi": 76,
      "hit": false,
      "t": 121333.21200000028,
      "d": 222.22200000000885,
      "v": 61
    },
    {
      "midi": 80,
      "hit": false,
      "t": 121333.21200000028,
      "d": 222.22200000000885,
      "v": 61
    },
    {
      "midi": 76,
      "hit": false,
      "t": 121333.2120000008,
      "d": 222.2219999999943,
      "v": 41
    },
    {
      "midi": 74,
      "hit": false,
      "t": 121666.54500000029,
      "d": 222.2219999999943,
      "v": 61
    },
    {
      "midi": 78,
      "hit": false,
      "t": 121666.54500000029,
      "d": 222.2219999999943,
      "v": 61
    },
    {
      "midi": 69,
      "hit": false,
      "t": 121666.5450000008,
      "d": 222.2219999999943,
      "v": 41
    },
    {
      "midi": 73,
      "hit": false,
      "t": 121999.87800000029,
      "d": 333.3329999999987,
      "v": 61
    },
    {
      "midi": 77,
      "hit": false,
      "t": 121999.87800000029,
      "d": 666.666000000012,
      "v": 61
    },
    {
      "midi": 62,
      "hit": false,
      "t": 121999.8780000008,
      "d": 222.2219999999943,
      "v": 41
    },
    {
      "midi": 69,
      "hit": false,
      "t": 122333.2110000008,
      "d": 222.2219999999943,
      "v": 41
    },
    {
      "midi": 74,
      "hit": false,
      "t": 122499.8775000003,
      "d": 111.11100000000442,
      "v": 61
    },
    {
      "midi": 73,
      "hit": false,
      "t": 122666.5440000003,
      "d": 222.2219999999943,
      "v": 61
    },
    {
      "midi": 74,
      "hit": false,
      "t": 122666.5440000008,
      "d": 222.22200000000885,
      "v": 41
    },
    {
      "midi": 76,
      "hit": false,
      "t": 122833.2105000008,
      "d": 111.11100000000442,
      "v": 41
    },
    {
      "midi": 71,
      "hit": false,
      "t": 122999.8770000003,
      "d": 222.2219999999943,
      "v": 61
    },
    {
      "midi": 77,
      "hit": false,
      "t": 122999.8770000003,
      "d": 666.6659999999974,
      "v": 61
    },
    {
      "midi": 77,
      "hit": false,
      "t": 122999.87700000081,
      "d": 222.2219999999943,
      "v": 41
    },
    {
      "midi": 69,
      "hit": false,
      "t": 123333.2100000003,
      "d": 222.2219999999943,
      "v": 61
    },
    {
      "midi": 76,
      "hit": false,
      "t": 123333.2100000008,
      "d": 222.2219999999943,
      "v": 41
    },
    {
      "midi": 74,
      "hit": false,
      "t": 123666.5430000008,
      "d": 222.2219999999943,
      "v": 41
    },
    {
      "midi": 57,
      "hit": false,
      "t": 123999.8760000008,
      "d": 222.2219999999943,
      "v": 41
    },
    {
      "midi": 64,
      "hit": false,
      "t": 124333.2090000008,
      "d": 222.2219999999943,
      "v": 41
    },
    {
      "midi": 69,
      "hit": false,
      "t": 124666.5420000008,
      "d": 222.22200000000885,
      "v": 41
    },
    {
      "midi": 71,
      "hit": false,
      "t": 124833.20850000081,
      "d": 111.11100000000442,
      "v": 41
    },
    {
      "midi": 73,
      "hit": false,
      "t": 124999.87500000029,
      "d": 222.2219999999943,
      "v": 61
    },
    {
      "midi": 73,
      "hit": false,
      "t": 124999.87500000081,
      "d": 222.2219999999943,
      "v": 41
    },
    {
      "midi": 76,
      "hit": false,
      "t": 124999.87500000081,
      "d": 222.2219999999943,
      "v": 41
    },
    {
      "midi": 76,
      "hit": false,
      "t": 125333.20800000029,
      "d": 222.2219999999943,
      "v": 61
    },
    {
      "midi": 71,
      "hit": false,
      "t": 125333.20800000081,
      "d": 222.2219999999943,
      "v": 41
    },
    {
      "midi": 80,
      "hit": false,
      "t": 125666.54100000029,
      "d": 222.2219999999943,
      "v": 61
    },
    {
      "midi": 69,
      "hit": false,
      "t": 125666.54100000081,
      "d": 222.2219999999943,
      "v": 41
    },
    {
      "midi": 80,
      "hit": false,
      "t": 125999.87400000029,
      "d": 111.11100000000442,
      "v": 61
    },
    {
      "midi": 81,
      "hit": false,
      "t": 125999.87400000029,
      "d": 666.6659999999974,
      "v": 61
    },
    {
      "midi": 57,
      "hit": false,
      "t": 125999.87400000081,
      "d": 222.2219999999943,
      "v": 41
    },
    {
      "midi": 61,
      "hit": false,
      "t": 126333.20700000081,
      "d": 222.2219999999943,
      "v": 41
    },
    {
      "midi": 66,
      "hit": false,
      "t": 126666.54000000081,
      "d": 222.22200000000885,
      "v": 41
    },
    {
      "midi": 71,
      "hit": false,
      "t": 126833.20650000082,
      "d": 111.11100000000442,
      "v": 41
    },
    {
      "midi": 73,
      "hit": false,
      "t": 126999.87300000082,
      "d": 222.2219999999943,
      "v": 41
    },
    {
      "midi": 76,
      "hit": false,
      "t": 126999.87300000082,
      "d": 222.2219999999943,
      "v": 41
    },
    {
      "midi": 78,
      "hit": false,
      "t": 127333.20600000028,
      "d": 222.2219999999943,
      "v": 61
    },
    {
      "midi": 71,
      "hit": false,
      "t": 127333.20600000082,
      "d": 222.2219999999943,
      "v": 41
    },
    {
      "midi": 81,
      "hit": false,
      "t": 127666.53900000028,
      "d": 222.2219999999943,
      "v": 61
    },
    {
      "midi": 69,
      "hit": false,
      "t": 127666.53900000082,
      "d": 222.2219999999943,
      "v": 41
    },
    {
      "midi": 81,
      "hit": false,
      "t": 127999.87200000028,
      "d": 111.11100000000442,
      "v": 61
    },
    {
      "midi": 83,
      "hit": false,
      "t": 127999.87200000028,
      "d": 333.3329999999987,
      "v": 61
    },
    {
      "midi": 62,
      "hit": false,
      "t": 127999.87200000082,
      "d": 222.2219999999943,
      "v": 41
    },
    {
      "midi": 69,
      "hit": false,
      "t": 128333.20500000082,
      "d": 222.2219999999943,
      "v": 41
    },
    {
      "midi": 81,
      "hit": false,
      "t": 128499.87150000028,
      "d": 166.66650000000664,
      "v": 61
    },
    {
      "midi": 74,
      "hit": false,
      "t": 128666.53800000082,
      "d": 222.22200000000885,
      "v": 41
    },
    {
      "midi": 76,
      "hit": false,
      "t": 128833.20450000082,
      "d": 111.11100000000442,
      "v": 41
    },
    {
      "midi": 78,
      "hit": false,
      "t": 128999.87100000083,
      "d": 222.2219999999943,
      "v": 41
    },
    {
      "midi": 81,
      "hit": false,
      "t": 129333.20400000029,
      "d": 222.2219999999943,
      "v": 61
    },
    {
      "midi": 76,
      "hit": false,
      "t": 129333.20400000083,
      "d": 222.2219999999943,
      "v": 41
    },
    {
      "midi": 83,
      "hit": false,
      "t": 129666.53700000029,
      "d": 222.2219999999943,
      "v": 61
    },
    {
      "midi": 69,
      "hit": false,
      "t": 129666.53700000083,
      "d": 222.2219999999943,
      "v": 41
    },
    {
      "midi": 83,
      "hit": false,
      "t": 129999.87000000029,
      "d": 111.11100000000442,
      "v": 61
    },
    {
      "midi": 85,
      "hit": false,
      "t": 129999.87000000029,
      "d": 444.44400000000314,
      "v": 61
    },
    {
      "midi": 62,
      "hit": false,
      "t": 129999.87000000082,
      "d": 222.2219999999943,
      "v": 41
    },
    {
      "midi": 69,
      "hit": false,
      "t": 130333.20300000082,
      "d": 222.2219999999943,
      "v": 41
    },
    {
      "midi": 86,
      "hit": false,
      "t": 130666.53600000028,
      "d": 111.11100000000442,
      "v": 61
    },
    {
      "midi": 74,
      "hit": false,
      "t": 130666.53600000082,
      "d": 222.22200000000885,
      "v": 41
    },
    {
      "midi": 85,
      "hit": false,
      "t": 130833.20250000029,
      "d": 111.11100000000442,
      "v": 61
    },
    {
      "midi": 76,
      "hit": false,
      "t": 130833.20250000083,
      "d": 111.11100000000442,
      "v": 41
    },
    {
      "midi": 83,
      "hit": false,
      "t": 130999.8690000003,
      "d": 666.6659999999974,
      "v": 61
    },
    {
      "midi": 77,
      "hit": false,
      "t": 130999.86900000084,
      "d": 222.2219999999943,
      "v": 41
    },
    {
      "midi": 76,
      "hit": false,
      "t": 131333.20200000083,
      "d": 222.22200000000885,
      "v": 41
    },
    {
      "midi": 81,
      "hit": false,
      "t": 131666.5350000003,
      "d": 222.22200000000885,
      "v": 61
    },
    {
      "midi": 74,
      "hit": false,
      "t": 131666.53500000085,
      "d": 222.22200000000885,
      "v": 41
    },
    {
      "midi": 81,
      "hit": false,
      "t": 131999.8680000003,
      "d": 111.11100000000442,
      "v": 61
    },
    {
      "midi": 85,
      "hit": false,
      "t": 131999.8680000003,
      "d": 111.11100000000442,
      "v": 61
    },
    {
      "midi": 83,
      "hit": false,
      "t": 131999.8680000003,
      "d": 444.4440000000177,
      "v": 61
    },
    {
      "midi": 86,
      "hit": false,
      "t": 131999.8680000003,
      "d": 444.4440000000177,
      "v": 61
    },
    {
      "midi": 64,
      "hit": false,
      "t": 132333.20100000084,
      "d": 222.22200000000885,
      "v": 41
    },
    {
      "midi": 81,
      "hit": false,
      "t": 132666.53400000033,
      "d": 444.4439999999886,
      "v": 61
    },
    {
      "midi": 85,
      "hit": false,
      "t": 132666.53400000033,
      "d": 444.4439999999886,
      "v": 61
    },
    {
      "midi": 69,
      "hit": false,
      "t": 132666.53400000086,
      "d": 222.22199999997974,
      "v": 41
    },
    {
      "midi": 72,
      "hit": false,
      "t": 132833.20050000085,
      "d": 111.11099999997532,
      "v": 41
    },
    {
      "midi": 73,
      "hit": false,
      "t": 132999.8670000008,
      "d": 222.22200000000885,
      "v": 41
    },
    {
      "midi": 69,
      "hit": false,
      "t": 133333.20000000083,
      "d": 222.22200000000885,
      "v": 41
    },
    {
      "midi": 64,
      "hit": false,
      "t": 133666.53300000084,
      "d": 222.22200000000885,
      "v": 41
    },
    {
      "midi": 78,
      "hit": false,
      "t": 133999.86600000033,
      "d": 111.11100000000442,
      "v": 61
    },
    {
      "midi": 81,
      "hit": false,
      "t": 133999.86600000033,
      "d": 111.11100000000442,
      "v": 61
    },
    {
      "midi": 80,
      "hit": false,
      "t": 133999.86600000033,
      "d": 444.4440000000177,
      "v": 61
    },
    {
      "midi": 83,
      "hit": false,
      "t": 133999.86600000033,
      "d": 444.4440000000177,
      "v": 61
    },
    {
      "midi": 62,
      "hit": false,
      "t": 133999.86600000085,
      "d": 222.22200000000885,
      "v": 41
    },
    {
      "midi": 69,
      "hit": false,
      "t": 134333.19900000087,
      "d": 222.22200000000885,
      "v": 41
    },
    {
      "midi": 78,
      "hit": false,
      "t": 134666.53200000036,
      "d": 444.4439999999886,
      "v": 61
    },
    {
      "midi": 81,
      "hit": false,
      "t": 134666.53200000036,
      "d": 444.4439999999886,
      "v": 61
    },
    {
      "midi": 74,
      "hit": false,
      "t": 134666.53200000088,
      "d": 222.22199999997974,
      "v": 41
    },
    {
      "midi": 77,
      "hit": false,
      "t": 134833.19850000087,
      "d": 111.11099999997532,
      "v": 41
    },
    {
      "midi": 78,
      "hit": false,
      "t": 134999.86500000083,
      "d": 222.22200000000885,
      "v": 41
    },
    {
      "midi": 74,
      "hit": false,
      "t": 135333.19800000085,
      "d": 222.22200000000885,
      "v": 41
    },
    {
      "midi": 69,
      "hit": false,
      "t": 135666.53100000086,
      "d": 222.22200000000885,
      "v": 41
    },
    {
      "midi": 76,
      "hit": false,
      "t": 135999.86400000035,
      "d": 222.22200000000885,
      "v": 61
    },
    {
      "midi": 80,
      "hit": false,
      "t": 135999.86400000035,
      "d": 222.22200000000885,
      "v": 61
    },
    {
      "midi": 66,
      "hit": false,
      "t": 135999.86400000087,
      "d": 222.22200000000885,
      "v": 67
    },
    {
      "midi": 74,
      "hit": false,
      "t": 136333.19700000036,
      "d": 444.4439999999886,
      "v": 61
    },
    {
      "midi": 78,
      "hit": false,
      "t": 136333.19700000036,
      "d": 444.4439999999886,
      "v": 61
    },
    {
      "midi": 73,
      "hit": false,
      "t": 136333.1970000009,
      "d": 222.22200000000885,
      "v": 67
    },
    {
      "midi": 78,
      "hit": false,
      "t": 136666.5300000009,
      "d": 222.22199999997974,
      "v": 67
    },
    {
      "midi": 80,
      "hit": false,
      "t": 136833.1965000009,
      "d": 111.11099999997532,
      "v": 67
    },
    {
      "midi": 81,
      "hit": false,
      "t": 136999.86300000086,
      "d": 222.22200000000885,
      "v": 67
    },
    {
      "midi": 74,
      "hit": false,
      "t": 137333.19600000035,
      "d": 111.11100000000442,
      "v": 61
    },
    {
      "midi": 78,
      "hit": false,
      "t": 137333.19600000035,
      "d": 111.11100000000442,
      "v": 61
    },
    {
      "midi": 76,
      "hit": false,
      "t": 137333.19600000035,
      "d": 222.22200000000885,
      "v": 61
    },
    {
      "midi": 80,
      "hit": false,
      "t": 137333.19600000035,
      "d": 222.22200000000885,
      "v": 61
    },
    {
      "midi": 78,
      "hit": false,
      "t": 137333.19600000087,
      "d": 222.22200000000885,
      "v": 67
    },
    {
      "midi": 74,
      "hit": false,
      "t": 137666.52900000036,
      "d": 222.22200000000885,
      "v": 61
    },
    {
      "midi": 78,
      "hit": false,
      "t": 137666.52900000036,
      "d": 222.22200000000885,
      "v": 61
    },
    {
      "midi": 73,
      "hit": false,
      "t": 137666.52900000088,
      "d": 222.22200000000885,
      "v": 67
    },
    {
      "midi": 73,
      "hit": false,
      "t": 137999.86200000037,
      "d": 333.33300000001327,
      "v": 61
    },
    {
      "midi": 77,
      "hit": false,
      "t": 137999.86200000037,
      "d": 666.6659999999974,
      "v": 61
    },
    {
      "midi": 62,
      "hit": false,
      "t": 137999.8620000009,
      "d": 222.22200000000885,
      "v": 67
    },
    {
      "midi": 69,
      "hit": false,
      "t": 138333.1950000009,
      "d": 222.22200000000885,
      "v": 67
    },
    {
      "midi": 74,
      "hit": false,
      "t": 138499.86150000038,
      "d": 111.11100000000442,
      "v": 61
    },
    {
      "midi": 73,
      "hit": false,
      "t": 138666.52800000037,
      "d": 222.22200000000885,
      "v": 61
    },
    {
      "midi": 74,
      "hit": false,
      "t": 138666.52800000092,
      "d": 222.22199999997974,
      "v": 67
    },
    {
      "midi": 77,
      "hit": false,
      "t": 138833.19450000091,
      "d": 111.11099999997532,
      "v": 67
    },
    {
      "midi": 71,
      "hit": false,
      "t": 138999.86100000038,
      "d": 222.22200000000885,
      "v": 61
    },
    {
      "midi": 77,
      "hit": false,
      "t": 138999.86100000038,
      "d": 666.6660000000265,
      "v": 61
    },
    {
      "midi": 78,
      "hit": false,
      "t": 138999.86100000088,
      "d": 222.22200000000885,
      "v": 67
    },
    {
      "midi": 69,
      "hit": false,
      "t": 139333.1940000004,
      "d": 222.22200000000885,
      "v": 61
    },
    {
      "midi": 74,
      "hit": false,
      "t": 139333.1940000009,
      "d": 222.22200000000885,
      "v": 67
    },
    {
      "midi": 69,
      "hit": false,
      "t": 139666.5270000009,
      "d": 222.22200000000885,
      "v": 67
    },
    {
      "midi": 66,
      "hit": false,
      "t": 140333.1930000009,
      "d": 222.22200000000885,
      "v": 67
    },
    {
      "midi": 71,
      "hit": false,
      "t": 140666.52600000091,
      "d": 222.22200000000885,
      "v": 67
    },
    {
      "midi": 71,
      "hit": false,
      "t": 140999.8590000004,
      "d": 222.22200000000885,
      "v": 64
    },
    {
      "midi": 78,
      "hit": false,
      "t": 140999.8590000004,
      "d": 222.22200000000885,
      "v": 61
    },
    {
      "midi": 74,
      "hit": false,
      "t": 140999.85900000093,
      "d": 222.22200000000885,
      "v": 67
    },
    {
      "midi": 73,
      "hit": false,
      "t": 141333.19200000042,
      "d": 111.11100000000442,
      "v": 64
    },
    {
      "midi": 81,
      "hit": false,
      "t": 141333.19200000042,
      "d": 111.11100000000442,
      "v": 61
    },
    {
      "midi": 71,
      "hit": false,
      "t": 141333.19200000094,
      "d": 222.22200000000885,
      "v": 67
    },
    {
      "midi": 74,
      "hit": false,
      "t": 141499.8585000004,
      "d": 333.33300000001327,
      "v": 64
    },
    {
      "midi": 81,
      "hit": false,
      "t": 141499.8585000004,
      "d": 333.33300000001327,
      "v": 61
    },
    {
      "midi": 66,
      "hit": false,
      "t": 141666.52500000095,
      "d": 222.22200000000885,
      "v": 67
    },
    {
      "midi": 76,
      "hit": false,
      "t": 141999.85800000041,
      "d": 111.11100000000442,
      "v": 64
    },
    {
      "midi": 80,
      "hit": false,
      "t": 141999.85800000041,
      "d": 166.66649999999208,
      "v": 61
    },
    {
      "midi": 52,
      "hit": false,
      "t": 141999.85800000041,
      "d": 222.22199999997974,
      "v": 64
    },
    {
      "midi": 73,
      "hit": false,
      "t": 142166.5245000004,
      "d": 111.11099999997532,
      "v": 64
    },
    {
      "midi": 78,
      "hit": false,
      "t": 142166.5245000004,
      "d": 166.66649999996298,
      "v": 61
    },
    {
      "midi": 71,
      "hit": false,
      "t": 142333.19100000037,
      "d": 222.22200000000885,
      "v": 64
    },
    {
      "midi": 76,
      "hit": false,
      "t": 142333.19100000037,
      "d": 222.22200000000885,
      "v": 61
    },
    {
      "midi": 59,
      "hit": false,
      "t": 142333.19100000095,
      "d": 222.22200000000885,
      "v": 67
    },
    {
      "midi": 64,
      "hit": false,
      "t": 142666.52400000097,
      "d": 222.22199999997974,
      "v": 67
    },
    {
      "midi": 67,
      "hit": false,
      "t": 142833.19050000096,
      "d": 111.11099999997532,
      "v": 67
    },
    {
      "midi": 68,
      "hit": false,
      "t": 142999.85700000092,
      "d": 222.22200000000885,
      "v": 67
    },
    {
      "midi": 71,
      "hit": false,
      "t": 142999.85700000092,
      "d": 222.22200000000885,
      "v": 67
    },
    {
      "midi": 85,
      "hit": false,
      "t": 143333.19000000038,
      "d": 111.11100000000442,
      "v": 61
    },
    {
      "midi": 64,
      "hit": false,
      "t": 143333.19000000093,
      "d": 222.22200000000885,
      "v": 67
    },
    {
      "midi": 83,
      "hit": false,
      "t": 143499.85650000037,
      "d": 111.11100000000442,
      "v": 61
    },
    {
      "midi": 85,
      "hit": false,
      "t": 143499.85650000037,
      "d": 333.33300000001327,
      "v": 61
    },
    {
      "midi": 59,
      "hit": false,
      "t": 143666.52300000095,
      "d": 222.22200000000885,
      "v": 67
    },
    {
      "midi": 61,
      "hit": false,
      "t": 143999.85600000096,
      "d": 222.22200000000885,
      "v": 67
    },
    {
      "midi": 61,
      "hit": false,
      "t": 144333.18900000097,
      "d": 222.22200000000885,
      "v": 67
    },
    {
      "midi": 68,
      "hit": false,
      "t": 144333.18900000097,
      "d": 222.22200000000885,
      "v": 67
    },
    {
      "midi": 73,
      "hit": false,
      "t": 144333.18900000097,
      "d": 222.22200000000885,
      "v": 67
    },
    {
      "midi": 61,
      "hit": false,
      "t": 144666.522000001,
      "d": 222.22200000000885,
      "v": 67
    },
    {
      "midi": 68,
      "hit": false,
      "t": 144666.522000001,
      "d": 222.22200000000885,
      "v": 67
    },
    {
      "midi": 73,
      "hit": false,
      "t": 144666.522000001,
      "d": 222.22200000000885,
      "v": 67
    },
    {
      "midi": 78,
      "hit": false,
      "t": 144833.1885000004,
      "d": 111.11100000000442,
      "v": 64
    },
    {
      "midi": 73,
      "hit": false,
      "t": 144999.8550000004,
      "d": 222.22200000000885,
      "v": 64
    },
    {
      "midi": 80,
      "hit": false,
      "t": 144999.8550000004,
      "d": 222.22200000000885,
      "v": 61
    },
    {
      "midi": 77,
      "hit": false,
      "t": 144999.855000001,
      "d": 222.22200000000885,
      "v": 67
    },
    {
      "midi": 76,
      "hit": false,
      "t": 145333.1880000004,
      "d": 222.22200000000885,
      "v": 64
    },
    {
      "midi": 83,
      "hit": false,
      "t": 145333.1880000004,
      "d": 222.22200000000885,
      "v": 61
    },
    {
      "midi": 73,
      "hit": false,
      "t": 145333.188000001,
      "d": 222.22200000000885,
      "v": 67
    },
    {
      "midi": 77,
      "hit": false,
      "t": 145666.52100000042,
      "d": 222.22200000000885,
      "v": 64
    },
    {
      "midi": 80,
      "hit": false,
      "t": 145666.52100000042,
      "d": 222.22200000000885,
      "v": 61
    },
    {
      "midi": 68,
      "hit": false,
      "t": 145666.52100000103,
      "d": 222.22200000000885,
      "v": 67
    },
    {
      "midi": 73,
      "hit": false,
      "t": 145999.85400000043,
      "d": 666.6659999999974,
      "v": 64
    },
    {
      "midi": 78,
      "hit": false,
      "t": 145999.85400000043,
      "d": 666.6659999999974,
      "v": 64
    },
    {
      "midi": 81,
      "hit": false,
      "t": 145999.85400000043,
      "d": 666.6659999999974,
      "v": 61
    },
    {
      "midi": 66,
      "hit": false,
      "t": 145999.85400000104,
      "d": 666.6659999999974,
      "v": 67
    },
    {
      "midi": 73,
      "hit": false,
      "t": 145999.85400000104,
      "d": 666.6659999999974,
      "v": 67
    },
    {
      "midi": 78,
      "hit": false,
      "t": 145999.85400000104,
      "d": 666.6659999999974,
      "v": 67
    },
    {
      "midi": 81,
      "hit": false,
      "t": 145999.85400000104,
      "d": 666.6659999999974,
      "v": 67
    },
    {
      "midi": 71,
      "hit": false,
      "t": 146999.85300000044,
      "d": 444.4439999999886,
      "v": 64
    },
    {
      "midi": 76,
      "hit": false,
      "t": 146999.85300000044,
      "d": 444.4439999999886,
      "v": 64
    },
    {
      "midi": 80,
      "hit": false,
      "t": 146999.85300000044,
      "d": 444.4439999999886,
      "v": 61
    },
    {
      "midi": 64,
      "hit": false,
      "t": 146999.85300000105,
      "d": 666.6659999999974,
      "v": 67
    },
    {
      "midi": 71,
      "hit": false,
      "t": 146999.85300000105,
      "d": 666.6659999999974,
      "v": 67
    },
    {
      "midi": 76,
      "hit": false,
      "t": 146999.85300000105,
      "d": 666.6659999999974,
      "v": 67
    },
    {
      "midi": 80,
      "hit": false,
      "t": 146999.85300000105,
      "d": 666.6659999999974,
      "v": 67
    },
    {
      "midi": 69,
      "hit": false,
      "t": 147666.51900000044,
      "d": 222.22200000000885,
      "v": 64
    },
    {
      "midi": 74,
      "hit": false,
      "t": 147666.51900000044,
      "d": 222.22200000000885,
      "v": 64
    },
    {
      "midi": 78,
      "hit": false,
      "t": 147666.51900000044,
      "d": 222.22200000000885,
      "v": 61
    },
    {
      "midi": 78,
      "hit": false,
      "t": 147999.85200000045,
      "d": 1333.3319999999949,
      "v": 61
    },
    {
      "midi": 69,
      "hit": false,
      "t": 147999.85200000045,
      "d": 3333.329999999987,
      "v": 64
    },
    {
      "midi": 74,
      "hit": false,
      "t": 147999.85200000045,
      "d": 3333.329999999987,
      "v": 64
    },
    {
      "midi": 62,
      "hit": false,
      "t": 147999.85200000106,
      "d": 1333.3319999999949,
      "v": 67
    },
    {
      "midi": 69,
      "hit": false,
      "t": 147999.85200000106,
      "d": 1333.3319999999949,
      "v": 67
    },
    {
      "midi": 74,
      "hit": false,
      "t": 147999.85200000106,
      "d": 1333.3319999999949,
      "v": 67
    },
    {
      "midi": 77,
      "hit": false,
      "t": 149999.85000000044,
      "d": 1333.3319999999949,
      "v": 61
    },
    {
      "midi": 62,
      "hit": false,
      "t": 149999.85000000105,
      "d": 1333.3319999999658,
      "v": 67
    },
    {
      "midi": 69,
      "hit": false,
      "t": 150166.51650000105,
      "d": 1166.6654999999737,
      "v": 67
    },
    {
      "midi": 74,
      "hit": false,
      "t": 150333.18300000104,
      "d": 999.9989999999816,
      "v": 67
    },
    {
      "midi": 77,
      "hit": false,
      "t": 150499.84950000103,
      "d": 833.3324999999895,
      "v": 67
    },
    {
      "midi": 81,
      "hit": false,
      "t": 150666.51600000102,
      "d": 833.3324999999895,
      "v": 67
    },
    {
      "midi": 76,
      "hit": false,
      "t": 151999.84800000102,
      "d": 666.6659999999974,
      "v": 49
    },
    {
      "midi": 81,
      "hit": false,
      "t": 151999.84800000102,
      "d": 666.6659999999974,
      "v": 49
    },
    {
      "midi": 73,
      "hit": false,
      "t": 152666.51400000043,
      "d": 222.22200000000885,
      "v": 64
    },
    {
      "midi": 73,
      "hit": false,
      "t": 152999.84700000045,
      "d": 222.22200000000885,
      "v": 64
    },
    {
      "midi": 66,
      "hit": false,
      "t": 152999.84700000103,
      "d": 1333.3319999999949,
      "v": 49
    },
    {
      "midi": 69,
      "hit": false,
      "t": 152999.84700000103,
      "d": 1333.3319999999949,
      "v": 49
    },
    {
      "midi": 73,
      "hit": false,
      "t": 152999.84700000103,
      "d": 1333.3319999999949,
      "v": 49
    },
    {
      "midi": 78,
      "hit": false,
      "t": 152999.84700000103,
      "d": 1333.3319999999949,
      "v": 49
    },
    {
      "midi": 76,
      "hit": false,
      "t": 153333.18000000046,
      "d": 222.22200000000885,
      "v": 64
    },
    {
      "midi": 80,
      "hit": false,
      "t": 153666.51300000047,
      "d": 222.22200000000885,
      "v": 64
    },
    {
      "midi": 81,
      "hit": false,
      "t": 153999.84600000049,
      "d": 444.4439999999886,
      "v": 64
    },
    {
      "midi": 78,
      "hit": false,
      "t": 155333.17800000048,
      "d": 222.22200000000885,
      "v": 64
    },
    {
      "midi": 81,
      "hit": false,
      "t": 155666.5110000005,
      "d": 222.22200000000885,
      "v": 64
    },
    {
      "midi": 83,
      "hit": false,
      "t": 155999.8440000005,
      "d": 444.4439999999886,
      "v": 64
    },
    {
      "midi": 81,
      "hit": false,
      "t": 157333.1760000005,
      "d": 222.22200000000885,
      "v": 64
    },
    {
      "midi": 83,
      "hit": false,
      "t": 157666.50900000051,
      "d": 222.22200000000885,
      "v": 64
    },
    {
      "midi": 85,
      "hit": false,
      "t": 157999.84200000053,
      "d": 5555.549999999988,
      "v": 64
    },
    {
      "midi": 60,
      "hit": false,
      "t": 158333.17500000104,
      "d": 222.22200000000885,
      "v": 67
    },
    {
      "midi": 60,
      "hit": false,
      "t": 158666.50800000105,
      "d": 222.22200000000885,
      "v": 67
    },
    {
      "midi": 60,
      "hit": false,
      "t": 158999.84100000106,
      "d": 222.22200000000885,
      "v": 67
    },
    {
      "midi": 60,
      "hit": false,
      "t": 159333.17400000108,
      "d": 222.22200000000885,
      "v": 67
    },
    {
      "midi": 60,
      "hit": false,
      "t": 159666.5070000011,
      "d": 222.22200000000885,
      "v": 67
    },
    {
      "midi": 60,
      "hit": false,
      "t": 159999.8400000011,
      "d": 222.22200000000885,
      "v": 67
    },
    {
      "midi": 60,
      "hit": false,
      "t": 160333.17300000112,
      "d": 222.22200000000885,
      "v": 67
    },
    {
      "midi": 60,
      "hit": false,
      "t": 160666.50600000113,
      "d": 222.22200000000885,
      "v": 67
    },
    {
      "midi": 60,
      "hit": false,
      "t": 160999.83900000114,
      "d": 222.22200000000885,
      "v": 67
    },
    {
      "midi": 57,
      "hit": false,
      "t": 161333.17200000116,
      "d": 111.11100000000442,
      "v": 67
    },
    {
      "midi": 66,
      "hit": false,
      "t": 161499.83850000115,
      "d": 222.22200000000885,
      "v": 67
    },
    {
      "midi": 67,
      "hit": false,
      "t": 161833.17150000116,
      "d": 111.11100000000442,
      "v": 67
    },
    {
      "midi": 66,
      "hit": false,
      "t": 161999.83800000115,
      "d": 222.22200000000885,
      "v": 67
    },
    {
      "midi": 64,
      "hit": false,
      "t": 162333.17100000117,
      "d": 444.4439999999886,
      "v": 67
    },
    {
      "midi": 64,
      "hit": false,
      "t": 162999.83700000116,
      "d": 111.11100000000442,
      "v": 67
    },
    {
      "midi": 66,
      "hit": false,
      "t": 163166.50350000116,
      "d": 111.11100000000442,
      "v": 67
    },
    {
      "midi": 69,
      "hit": false,
      "t": 163333.17000000115,
      "d": 111.11100000000442,
      "v": 67
    },
    {
      "midi": 71,
      "hit": false,
      "t": 163499.83650000114,
      "d": 111.11100000000442,
      "v": 67
    },
    {
      "midi": 73,
      "hit": false,
      "t": 163666.50300000113,
      "d": 555.554999999993,
      "v": 67
    },
    {
      "midi": 73,
      "hit": false,
      "t": 164333.16900000113,
      "d": 777.7770000000019,
      "v": 67
    },
    {
      "midi": 71,
      "hit": false,
      "t": 165166.50150000112,
      "d": 111.11100000000442,
      "v": 67
    },
    {
      "midi": 69,
      "hit": false,
      "t": 165333.1680000011,
      "d": 111.11100000000442,
      "v": 67
    },
    {
      "midi": 71,
      "hit": false,
      "t": 165499.8345000011,
      "d": 111.11100000000442,
      "v": 67
    },
    {
      "midi": 69,
      "hit": false,
      "t": 165666.5010000011,
      "d": 222.22200000000885,
      "v": 67
    },
    {
      "midi": 69,
      "hit": false,
      "t": 165999.8340000011,
      "d": 222.22200000000885,
      "v": 67
    },
    {
      "midi": 78,
      "hit": false,
      "t": 166333.16700000112,
      "d": 111.11100000000442,
      "v": 67
    },
    {
      "midi": 72,
      "hit": false,
      "t": 166499.8335000011,
      "d": 333.33300000001327,
      "v": 67
    },
    {
      "midi": 73,
      "hit": false,
      "t": 166999.83300000112,
      "d": 111.11100000000442,
      "v": 67
    },
    {
      "midi": 76,
      "hit": false,
      "t": 167166.4995000011,
      "d": 277.7774999999965,
      "v": 67
    },
    {
      "midi": 78,
      "hit": false,
      "t": 167333.1660000011,
      "d": 444.4440000000177,
      "v": 67
    },
    {
      "midi": 85,
      "hit": false,
      "t": 168333.1650000011,
      "d": 666.6659999999974,
      "v": 67
    },
    {
      "midi": 81,
      "hit": false,
      "t": 169333.16400000112,
      "d": 111.11100000000442,
      "v": 67
    },
    {
      "midi": 76,
      "hit": false,
      "t": 169499.83050000112,
      "d": 111.11100000000442,
      "v": 67
    },
    {
      "midi": 84,
      "hit": false,
      "t": 169666.4970000011,
      "d": 111.11100000000442,
      "v": 67
    },
    {
      "midi": 86,
      "hit": false,
      "t": 169666.4970000011,
      "d": 444.4440000000177,
      "v": 67
    },
    {
      "midi": 85,
      "hit": false,
      "t": 170333.16300000114,
      "d": 222.22200000000885,
      "v": 67
    },
    {
      "midi": 83,
      "hit": false,
      "t": 170666.49600000115,
      "d": 222.22200000000885,
      "v": 67
    },
    {
      "midi": 81,
      "hit": false,
      "t": 170999.82900000116,
      "d": 222.22199999997974,
      "v": 67
    },
    {
      "midi": 76,
      "hit": false,
      "t": 171166.49550000115,
      "d": 111.11099999997532,
      "v": 67
    },
    {
      "midi": 78,
      "hit": false,
      "t": 171333.16200000112,
      "d": 111.11100000000442,
      "v": 67
    },
    {
      "midi": 81,
      "hit": false,
      "t": 171499.8285000011,
      "d": 111.11100000000442,
      "v": 67
    },
    {
      "midi": 81,
      "hit": false,
      "t": 171666.4950000011,
      "d": 111.11100000000442,
      "v": 67
    },
    {
      "midi": 81,
      "hit": false,
      "t": 171833.1615000011,
      "d": 111.11100000000442,
      "v": 67
    },
    {
      "midi": 76,
      "hit": false,
      "t": 171999.8280000011,
      "d": 111.11100000000442,
      "v": 67
    },
    {
      "midi": 78,
      "hit": false,
      "t": 172166.49450000108,
      "d": 111.11100000000442,
      "v": 67
    },
    {
      "midi": 81,
      "hit": false,
      "t": 172333.16100000107,
      "d": 111.11100000000442,
      "v": 67
    },
    {
      "midi": 81,
      "hit": false,
      "t": 172499.82750000106,
      "d": 111.11100000000442,
      "v": 67
    },
    {
      "midi": 76,
      "hit": false,
      "t": 172666.49400000105,
      "d": 111.11100000000442,
      "v": 67
    },
    {
      "midi": 78,
      "hit": false,
      "t": 172833.16050000105,
      "d": 111.11100000000442,
      "v": 67
    },
    {
      "midi": 81,
      "hit": false,
      "t": 172999.82700000104,
      "d": 111.11100000000442,
      "v": 67
    },
    {
      "midi": 81,
      "hit": false,
      "t": 173166.49350000103,
      "d": 111.11100000000442,
      "v": 67
    },
    {
      "midi": 76,
      "hit": false,
      "t": 173333.16000000102,
      "d": 111.11100000000442,
      "v": 67
    },
    {
      "midi": 78,
      "hit": false,
      "t": 173499.826500001,
      "d": 111.11100000000442,
      "v": 67
    },
    {
      "midi": 81,
      "hit": false,
      "t": 173666.493000001,
      "d": 111.11100000000442,
      "v": 67
    },
    {
      "midi": 81,
      "hit": false,
      "t": 173833.159500001,
      "d": 111.11100000000442,
      "v": 67
    },
    {
      "midi": 81,
      "hit": false,
      "t": 173999.826000001,
      "d": 111.11100000000442,
      "v": 67
    },
    {
      "midi": 86,
      "hit": false,
      "t": 173999.826000001,
      "d": 111.11100000000442,
      "v": 67
    },
    {
      "midi": 77,
      "hit": false,
      "t": 174166.49250000098,
      "d": 111.11100000000442,
      "v": 67
    },
    {
      "midi": 81,
      "hit": false,
      "t": 174333.15900000097,
      "d": 111.11100000000442,
      "v": 67
    },
    {
      "midi": 86,
      "hit": false,
      "t": 174333.15900000097,
      "d": 111.11100000000442,
      "v": 67
    },
    {
      "midi": 77,
      "hit": false,
      "t": 174499.82550000097,
      "d": 111.11100000000442,
      "v": 67
    },
    {
      "midi": 86,
      "hit": false,
      "t": 174666.49200000096,
      "d": 111.11100000000442,
      "v": 67
    },
    {
      "midi": 77,
      "hit": false,
      "t": 174833.15850000095,
      "d": 111.11100000000442,
      "v": 67
    },
    {
      "midi": 86,
      "hit": false,
      "t": 174999.82500000094,
      "d": 111.11100000000442,
      "v": 67
    },
    {
      "midi": 77,
      "hit": false,
      "t": 175166.49150000094,
      "d": 111.11100000000442,
      "v": 67
    },
    {
      "midi": 86,
      "hit": false,
      "t": 175333.15800000093,
      "d": 111.11100000000442,
      "v": 67
    },
    {
      "midi": 77,
      "hit": false,
      "t": 175499.82450000092,
      "d": 111.11100000000442,
      "v": 67
    },
    {
      "midi": 86,
      "hit": false,
      "t": 175666.4910000009,
      "d": 111.11100000000442,
      "v": 67
    },
    {
      "midi": 81,
      "hit": false,
      "t": 175833.1575000009,
      "d": 111.11100000000442,
      "v": 67
    },
    {
      "midi": 88,
      "hit": false,
      "t": 175999.8240000009,
      "d": 222.22200000000885,
      "v": 67
    },
    {
      "midi": 93,
      "hit": false,
      "t": 175999.8240000009,
      "d": 222.22200000000885,
      "v": 67
    },
    {
      "midi": 93,
      "hit": false,
      "t": 176333.1570000009,
      "d": 111.11100000000442,
      "v": 67
    },
    {
      "midi": 88,
      "hit": false,
      "t": 176499.8235000009,
      "d": 111.11100000000442,
      "v": 67
    },
    {
      "midi": 93,
      "hit": false,
      "t": 176666.4900000009,
      "d": 111.11100000000442,
      "v": 67
    },
    {
      "midi": 88,
      "hit": false,
      "t": 176833.15650000088,
      "d": 111.11100000000442,
      "v": 67
    },
    {
      "midi": 93,
      "hit": false,
      "t": 176999.82300000088,
      "d": 111.11100000000442,
      "v": 67
    },
    {
      "midi": 97,
      "hit": false,
      "t": 177166.48950000087,
      "d": 111.11100000000442,
      "v": 67
    },
    {
      "midi": 98,
      "hit": false,
      "t": 177333.15600000086,
      "d": 222.22200000000885,
      "v": 67
    },
    {
      "midi": 97,
      "hit": false,
      "t": 177666.48900000087,
      "d": 222.22200000000885,
      "v": 67
    },
    {
      "midi": 90,
      "hit": false,
      "t": 177999.8220000009,
      "d": 111.11100000000442,
      "v": 67
    },
    {
      "midi": 88,
      "hit": false,
      "t": 178166.48850000088,
      "d": 111.11100000000442,
      "v": 67
    },
    {
      "midi": 90,
      "hit": false,
      "t": 178333.15500000087,
      "d": 444.4439999999886,
      "v": 67
    },
    {
      "midi": 90,
      "hit": false,
      "t": 178999.82100000087,
      "d": 111.11100000000442,
      "v": 67
    },
    {
      "midi": 88,
      "hit": false,
      "t": 179166.48750000086,
      "d": 111.11100000000442,
      "v": 67
    },
    {
      "midi": 85,
      "hit": false,
      "t": 179333.15400000085,
      "d": 111.11100000000442,
      "v": 67
    },
    {
      "midi": 85,
      "hit": false,
      "t": 179499.82050000085,
      "d": 333.33300000001327,
      "v": 67
    },
    {
      "midi": 76,
      "hit": false,
      "t": 180333.15300000086,
      "d": 111.11100000000442,
      "v": 67
    },
    {
      "midi": 78,
      "hit": false,
      "t": 180499.81950000086,
      "d": 111.11100000000442,
      "v": 67
    },
    {
      "midi": 81,
      "hit": false,
      "t": 180666.48600000085,
      "d": 111.11100000000442,
      "v": 67
    },
    {
      "midi": 83,
      "hit": false,
      "t": 180833.15250000084,
      "d": 111.11100000000442,
      "v": 67
    },
    {
      "midi": 83,
      "hit": false,
      "t": 180999.81900000083,
      "d": 222.22200000000885,
      "v": 67
    },
    {
      "midi": 81,
      "hit": false,
      "t": 181333.15200000085,
      "d": 111.11100000000442,
      "v": 67
    },
    {
      "midi": 78,
      "hit": false,
      "t": 181499.81850000084,
      "d": 222.22200000000885,
      "v": 67
    },
    {
      "midi": 88,
      "hit": false,
      "t": 181833.15150000085,
      "d": 111.11100000000442,
      "v": 67
    },
    {
      "midi": 90,
      "hit": false,
      "t": 181999.81800000084,
      "d": 222.22200000000885,
      "v": 67
    },
    {
      "midi": 88,
      "hit": false,
      "t": 182333.15100000086,
      "d": 111.11100000000442,
      "v": 67
    },
    {
      "midi": 85,
      "hit": false,
      "t": 182499.81750000085,
      "d": 111.11100000000442,
      "v": 67
    },
    {
      "midi": 83,
      "hit": false,
      "t": 182666.48400000084,
      "d": 111.11100000000442,
      "v": 67
    },
    {
      "midi": 85,
      "hit": false,
      "t": 182833.15050000083,
      "d": 111.11100000000442,
      "v": 67
    },
    {
      "midi": 85,
      "hit": false,
      "t": 182999.81700000082,
      "d": 666.6659999999974,
      "v": 67
    },
    {
      "midi": 93,
      "hit": false,
      "t": 183999.81600000084,
      "d": 111.11100000000442,
      "v": 67
    },
    {
      "midi": 88,
      "hit": false,
      "t": 184166.48250000083,
      "d": 111.11100000000442,
      "v": 67
    },
    {
      "midi": 93,
      "hit": false,
      "t": 184333.14900000082,
      "d": 111.11100000000442,
      "v": 67
    },
    {
      "midi": 88,
      "hit": false,
      "t": 184499.8155000008,
      "d": 111.11100000000442,
      "v": 67
    },
    {
      "midi": 93,
      "hit": false,
      "t": 184666.4820000008,
      "d": 111.11100000000442,
      "v": 67
    },
    {
      "midi": 88,
      "hit": false,
      "t": 184833.1485000008,
      "d": 111.11100000000442,
      "v": 67
    },
    {
      "midi": 93,
      "hit": false,
      "t": 184999.8150000008,
      "d": 111.11100000000442,
      "v": 67
    },
    {
      "midi": 88,
      "hit": false,
      "t": 185166.48150000078,
      "d": 111.11100000000442,
      "v": 67
    },
    {
      "midi": 93,
      "hit": false,
      "t": 185333.14800000077,
      "d": 111.11100000000442,
      "v": 67
    },
    {
      "midi": 93,
      "hit": false,
      "t": 185499.81450000076,
      "d": 111.11100000000442,
      "v": 67
    },
    {
      "midi": 88,
      "hit": false,
      "t": 185666.48100000076,
      "d": 111.11100000000442,
      "v": 67
    },
    {
      "midi": 93,
      "hit": false,
      "t": 185833.14750000075,
      "d": 111.11100000000442,
      "v": 67
    },
    {
      "midi": 88,
      "hit": false,
      "t": 185999.81400000074,
      "d": 111.11100000000442,
      "v": 67
    },
    {
      "midi": 93,
      "hit": false,
      "t": 186166.48050000073,
      "d": 111.11100000000442,
      "v": 67
    },
    {
      "midi": 97,
      "hit": false,
      "t": 186333.14700000072,
      "d": 111.11100000000442,
      "v": 67
    },
    {
      "midi": 100,
      "hit": false,
      "t": 186499.81350000072,
      "d": 666.6659999999974,
      "v": 67
    },
    {
      "midi": 97,
      "hit": false,
      "t": 187499.81250000073,
      "d": 111.11100000000442,
      "v": 67
    },
    {
      "midi": 100,
      "hit": false,
      "t": 187499.81250000073,
      "d": 333.33300000001327,
      "v": 67
    },
    {
      "midi": 100,
      "hit": false,
      "t": 187999.81200000073,
      "d": 111.11100000000442,
      "v": 67
    },
    {
      "midi": 97,
      "hit": false,
      "t": 188166.47850000073,
      "d": 111.11100000000442,
      "v": 67
    },
    {
      "midi": 93,
      "hit": false,
      "t": 188333.14500000072,
      "d": 444.4439999999886,
      "v": 67
    },
    {
      "midi": 88,
      "hit": false,
      "t": 188999.81100000071,
      "d": 222.22200000000885,
      "v": 67
    },
    {
      "midi": 88,
      "hit": false,
      "t": 189333.14400000073,
      "d": 111.11100000000442,
      "v": 67
    },
    {
      "midi": 88,
      "hit": false,
      "t": 189499.81050000072,
      "d": 111.11100000000442,
      "v": 67
    },
    {
      "midi": 88,
      "hit": false,
      "t": 189666.4770000007,
      "d": 111.11100000000442,
      "v": 67
    },
    {
      "midi": 88,
      "hit": false,
      "t": 189833.1435000007,
      "d": 111.11100000000442,
      "v": 67
    },
    {
      "midi": 88,
      "hit": false,
      "t": 189999.8100000007,
      "d": 111.11100000000442,
      "v": 67
    },
    {
      "midi": 88,
      "hit": false,
      "t": 190166.4765000007,
      "d": 111.11100000000442,
      "v": 67
    },
    {
      "midi": 88,
      "hit": false,
      "t": 190333.14300000068,
      "d": 111.11100000000442,
      "v": 67
    },
    {
      "midi": 88,
      "hit": false,
      "t": 190499.80950000067,
      "d": 111.11100000000442,
      "v": 67
    },
    {
      "midi": 88,
      "hit": false,
      "t": 190666.47600000066,
      "d": 111.11100000000442,
      "v": 67
    },
    {
      "midi": 88,
      "hit": false,
      "t": 190833.14250000066,
      "d": 111.11100000000442,
      "v": 67
    },
    {
      "midi": 88,
      "hit": false,
      "t": 190999.80900000065,
      "d": 111.11100000000442,
      "v": 67
    },
    {
      "midi": 88,
      "hit": false,
      "t": 191166.47550000064,
      "d": 111.11100000000442,
      "v": 67
    },
    {
      "midi": 88,
      "hit": false,
      "t": 191333.14200000063,
      "d": 111.11100000000442,
      "v": 67
    },
    {
      "midi": 88,
      "hit": false,
      "t": 191499.80850000062,
      "d": 111.11100000000442,
      "v": 67
    },
    {
      "midi": 88,
      "hit": false,
      "t": 191666.47500000062,
      "d": 222.22200000000885,
      "v": 67
    },
    {
      "midi": 81,
      "hit": false,
      "t": 192999.80700000052,
      "d": 666.6659999999974,
      "v": 64
    },
    {
      "midi": 90,
      "hit": false,
      "t": 192999.8070000006,
      "d": 666.6659999999974,
      "v": 67
    },
    {
      "midi": 80,
      "hit": false,
      "t": 193999.80600000054,
      "d": 666.6659999999974,
      "v": 64
    },
    {
      "midi": 88,
      "hit": false,
      "t": 193999.80600000062,
      "d": 1444.4429999999993,
      "v": 67
    },
    {
      "midi": 76,
      "hit": false,
      "t": 194999.80500000055,
      "d": 222.22200000000885,
      "v": 64
    },
    {
      "midi": 76,
      "hit": false,
      "t": 195666.47100000054,
      "d": 222.22200000000885,
      "v": 64
    },
    {
      "midi": 85,
      "hit": false,
      "t": 195666.47100000063,
      "d": 222.22200000000885,
      "v": 67
    },
    {
      "midi": 78,
      "hit": false,
      "t": 195999.80400000056,
      "d": 666.6659999999974,
      "v": 64
    },
    {
      "midi": 86,
      "hit": false,
      "t": 195999.80400000064,
      "d": 1784.7204374999856,
      "v": 67
    },
    {
      "midi": 85,
      "hit": false,
      "t": 198999.80100000056,
      "d": 111.11100000000442,
      "v": 64
    },
    {
      "midi": 83,
      "hit": false,
      "t": 199166.46750000055,
      "d": 111.11100000000442,
      "v": 64
    },
    {
      "midi": 85,
      "hit": false,
      "t": 199166.46750000055,
      "d": 222.22200000000885,
      "v": 64
    },
    {
      "midi": 83,
      "hit": false,
      "t": 199499.80050000057,
      "d": 111.11100000000442,
      "v": 64
    },
    {
      "midi": 81,
      "hit": false,
      "t": 199666.46700000056,
      "d": 444.4439999999886,
      "v": 64
    },
    {
      "midi": 81,
      "hit": false,
      "t": 200999.79900000055,
      "d": 666.6659999999974,
      "v": 64
    },
    {
      "midi": 85,
      "hit": false,
      "t": 200999.79900000055,
      "d": 666.6659999999974,
      "v": 64
    },
    {
      "midi": 80,
      "hit": false,
      "t": 201999.79800000056,
      "d": 111.11100000000442,
      "v": 64
    },
    {
      "midi": 83,
      "hit": false,
      "t": 201999.79800000056,
      "d": 111.11100000000442,
      "v": 64
    },
    {
      "midi": 88,
      "hit": false,
      "t": 201999.79800000065,
      "d": 111.11100000000442,
      "v": 67
    },
    {
      "midi": 81,
      "hit": false,
      "t": 202166.46450000055,
      "d": 111.11100000000442,
      "v": 64
    },
    {
      "midi": 85,
      "hit": false,
      "t": 202166.46450000055,
      "d": 111.11100000000442,
      "v": 64
    },
    {
      "midi": 90,
      "hit": false,
      "t": 202166.46450000064,
      "d": 111.11100000000442,
      "v": 67
    },
    {
      "midi": 80,
      "hit": false,
      "t": 202333.13100000055,
      "d": 111.11100000000442,
      "v": 64
    },
    {
      "midi": 83,
      "hit": false,
      "t": 202333.13100000055,
      "d": 111.11100000000442,
      "v": 64
    },
    {
      "midi": 88,
      "hit": false,
      "t": 202333.13100000063,
      "d": 111.11100000000442,
      "v": 67
    },
    {
      "midi": 81,
      "hit": false,
      "t": 202499.79750000054,
      "d": 111.11100000000442,
      "v": 64
    },
    {
      "midi": 85,
      "hit": false,
      "t": 202499.79750000054,
      "d": 111.11100000000442,
      "v": 64
    },
    {
      "midi": 90,
      "hit": false,
      "t": 202499.79750000063,
      "d": 111.11100000000442,
      "v": 67
    },
    {
      "midi": 80,
      "hit": false,
      "t": 202666.46400000053,
      "d": 111.11100000000442,
      "v": 64
    },
    {
      "midi": 83,
      "hit": false,
      "t": 202666.46400000053,
      "d": 111.11100000000442,
      "v": 64
    },
    {
      "midi": 88,
      "hit": false,
      "t": 202666.46400000062,
      "d": 111.11100000000442,
      "v": 67
    },
    {
      "midi": 81,
      "hit": false,
      "t": 202833.13050000052,
      "d": 111.11100000000442,
      "v": 64
    },
    {
      "midi": 85,
      "hit": false,
      "t": 202833.13050000052,
      "d": 111.11100000000442,
      "v": 64
    },
    {
      "midi": 90,
      "hit": false,
      "t": 202833.1305000006,
      "d": 111.11100000000442,
      "v": 67
    },
    {
      "midi": 80,
      "hit": false,
      "t": 202999.79700000052,
      "d": 222.22200000000885,
      "v": 64
    },
    {
      "midi": 83,
      "hit": false,
      "t": 202999.79700000052,
      "d": 222.22200000000885,
      "v": 64
    },
    {
      "midi": 88,
      "hit": false,
      "t": 202999.7970000006,
      "d": 444.4439999999886,
      "v": 67
    },
    {
      "midi": 76,
      "hit": false,
      "t": 203333.13000000053,
      "d": 222.22200000000885,
      "v": 64
    },
    {
      "midi": 80,
      "hit": false,
      "t": 203333.13000000053,
      "d": 222.22200000000885,
      "v": 64
    },
    {
      "midi": 76,
      "hit": false,
      "t": 203666.46300000054,
      "d": 222.22200000000885,
      "v": 64
    },
    {
      "midi": 80,
      "hit": false,
      "t": 203666.46300000054,
      "d": 222.22200000000885,
      "v": 64
    },
    {
      "midi": 85,
      "hit": false,
      "t": 203666.4630000006,
      "d": 222.22200000000885,
      "v": 67
    },
    {
      "midi": 78,
      "hit": false,
      "t": 203999.79600000056,
      "d": 222.22200000000885,
      "v": 64
    },
    {
      "midi": 81,
      "hit": false,
      "t": 203999.79600000056,
      "d": 666.6660000000265,
      "v": 64
    },
    {
      "midi": 86,
      "hit": false,
      "t": 203999.7960000006,
      "d": 1333.3319999999949,
      "v": 67
    },
    {
      "midi": 79,
      "hit": false,
      "t": 204333.12900000057,
      "d": 222.22200000000885,
      "v": 64
    },
    {
      "midi": 80,
      "hit": false,
      "t": 204666.46200000058,
      "d": 222.22200000000885,
      "v": 64
    },
    {
      "midi": 78,
      "hit": false,
      "t": 204999.7950000006,
      "d": 666.6659999999974,
      "v": 64
    },
    {
      "midi": 81,
      "hit": false,
      "t": 204999.7950000006,
      "d": 666.6659999999974,
      "v": 64
    },
    {
      "midi": 83,
      "hit": false,
      "t": 205999.7940000006,
      "d": 444.4439999999886,
      "v": 61
    },
    {
      "midi": 86,
      "hit": false,
      "t": 205999.7940000006,
      "d": 444.4439999999886,
      "v": 61
    },
    {
      "midi": 81,
      "hit": false,
      "t": 206666.4600000006,
      "d": 444.4439999999886,
      "v": 61
    },
    {
      "midi": 85,
      "hit": false,
      "t": 206666.4600000006,
      "d": 444.4439999999886,
      "v": 61
    },
    {
      "midi": 80,
      "hit": false,
      "t": 207999.7920000006,
      "d": 444.4439999999886,
      "v": 61
    },
    {
      "midi": 83,
      "hit": false,
      "t": 207999.7920000006,
      "d": 444.4439999999886,
      "v": 61
    },
    {
      "midi": 78,
      "hit": false,
      "t": 208666.4580000006,
      "d": 444.4439999999886,
      "v": 61
    },
    {
      "midi": 81,
      "hit": false,
      "t": 208666.4580000006,
      "d": 444.4439999999886,
      "v": 61
    },
    {
      "midi": 76,
      "hit": false,
      "t": 209999.7900000006,
      "d": 222.22200000000885,
      "v": 61
    },
    {
      "midi": 80,
      "hit": false,
      "t": 209999.7900000006,
      "d": 222.22200000000885,
      "v": 61
    },
    {
      "midi": 74,
      "hit": false,
      "t": 210333.1230000006,
      "d": 444.4439999999886,
      "v": 61
    },
    {
      "midi": 78,
      "hit": false,
      "t": 210333.1230000006,
      "d": 444.4439999999886,
      "v": 61
    },
    {
      "midi": 76,
      "hit": false,
      "t": 211333.12200000059,
      "d": 222.22200000000885,
      "v": 61
    },
    {
      "midi": 80,
      "hit": false,
      "t": 211333.12200000059,
      "d": 222.22200000000885,
      "v": 61
    },
    {
      "midi": 74,
      "hit": false,
      "t": 211666.4550000006,
      "d": 222.22200000000885,
      "v": 61
    },
    {
      "midi": 78,
      "hit": false,
      "t": 211666.4550000006,
      "d": 222.22200000000885,
      "v": 61
    },
    {
      "midi": 73,
      "hit": false,
      "t": 211999.7880000006,
      "d": 222.22200000000885,
      "v": 61
    },
    {
      "midi": 77,
      "hit": false,
      "t": 211999.7880000006,
      "d": 666.6659999999974,
      "v": 61
    },
    {
      "midi": 74,
      "hit": false,
      "t": 212333.12100000062,
      "d": 111.11100000000442,
      "v": 61
    },
    {
      "midi": 73,
      "hit": false,
      "t": 212499.78750000062,
      "d": 222.22199999997974,
      "v": 61
    },
    {
      "midi": 73,
      "hit": false,
      "t": 212833.1205000006,
      "d": 111.11100000000442,
      "v": 61
    },
    {
      "midi": 71,
      "hit": false,
      "t": 212999.7870000006,
      "d": 222.22200000000885,
      "v": 61
    },
    {
      "midi": 77,
      "hit": false,
      "t": 212999.7870000006,
      "d": 666.6660000000265,
      "v": 61
    },
    {
      "midi": 69,
      "hit": false,
      "t": 213333.1200000006,
      "d": 222.22200000000885,
      "v": 61
    },
    {
      "midi": 73,
      "hit": false,
      "t": 214999.78500000061,
      "d": 222.22200000000885,
      "v": 61
    },
    {
      "midi": 76,
      "hit": false,
      "t": 215333.11800000063,
      "d": 222.22200000000885,
      "v": 61
    },
    {
      "midi": 80,
      "hit": false,
      "t": 215666.45100000064,
      "d": 222.22200000000885,
      "v": 61
    },
    {
      "midi": 80,
      "hit": false,
      "t": 215999.78400000065,
      "d": 111.11100000000442,
      "v": 61
    },
    {
      "midi": 81,
      "hit": false,
      "t": 215999.78400000065,
      "d": 666.6659999999974,
      "v": 61
    },
    {
      "midi": 78,
      "hit": false,
      "t": 217333.11600000065,
      "d": 222.22200000000885,
      "v": 61
    },
    {
      "midi": 81,
      "hit": false,
      "t": 217666.44900000066,
      "d": 222.22200000000885,
      "v": 61
    },
    {
      "midi": 62,
      "hit": false,
      "t": 217999.78200000062,
      "d": 222.22200000000885,
      "v": 49
    },
    {
      "midi": 69,
      "hit": false,
      "t": 217999.78200000062,
      "d": 222.22200000000885,
      "v": 49
    },
    {
      "midi": 74,
      "hit": false,
      "t": 217999.78200000062,
      "d": 222.22200000000885,
      "v": 49
    },
    {
      "midi": 81,
      "hit": false,
      "t": 217999.78200000068,
      "d": 111.11100000000442,
      "v": 61
    },
    {
      "midi": 83,
      "hit": false,
      "t": 217999.78200000068,
      "d": 333.33300000001327,
      "v": 61
    },
    {
      "midi": 62,
      "hit": false,
      "t": 218333.11500000063,
      "d": 111.11100000000442,
      "v": 49
    },
    {
      "midi": 69,
      "hit": false,
      "t": 218333.11500000063,
      "d": 111.11100000000442,
      "v": 49
    },
    {
      "midi": 74,
      "hit": false,
      "t": 218333.11500000063,
      "d": 111.11100000000442,
      "v": 49
    },
    {
      "midi": 62,
      "hit": false,
      "t": 218499.78150000062,
      "d": 111.11100000000442,
      "v": 49
    },
    {
      "midi": 69,
      "hit": false,
      "t": 218499.78150000062,
      "d": 111.11100000000442,
      "v": 49
    },
    {
      "midi": 74,
      "hit": false,
      "t": 218499.78150000062,
      "d": 111.11100000000442,
      "v": 49
    },
    {
      "midi": 81,
      "hit": false,
      "t": 218499.78150000068,
      "d": 166.66649999999208,
      "v": 61
    },
    {
      "midi": 62,
      "hit": false,
      "t": 218666.44800000062,
      "d": 111.11100000000442,
      "v": 49
    },
    {
      "midi": 69,
      "hit": false,
      "t": 218666.44800000062,
      "d": 111.11100000000442,
      "v": 49
    },
    {
      "midi": 74,
      "hit": false,
      "t": 218666.44800000062,
      "d": 111.11100000000442,
      "v": 49
    },
    {
      "midi": 62,
      "hit": false,
      "t": 218833.1145000006,
      "d": 111.11100000000442,
      "v": 49
    },
    {
      "midi": 69,
      "hit": false,
      "t": 218833.1145000006,
      "d": 111.11100000000442,
      "v": 49
    },
    {
      "midi": 74,
      "hit": false,
      "t": 218833.1145000006,
      "d": 111.11100000000442,
      "v": 49
    },
    {
      "midi": 62,
      "hit": false,
      "t": 218999.7810000006,
      "d": 222.22200000000885,
      "v": 49
    },
    {
      "midi": 69,
      "hit": false,
      "t": 218999.7810000006,
      "d": 222.22200000000885,
      "v": 49
    },
    {
      "midi": 74,
      "hit": false,
      "t": 218999.7810000006,
      "d": 222.22200000000885,
      "v": 49
    },
    {
      "midi": 62,
      "hit": false,
      "t": 219333.1140000006,
      "d": 111.11100000000442,
      "v": 49
    },
    {
      "midi": 69,
      "hit": false,
      "t": 219333.1140000006,
      "d": 111.11100000000442,
      "v": 49
    },
    {
      "midi": 74,
      "hit": false,
      "t": 219333.1140000006,
      "d": 111.11100000000442,
      "v": 49
    },
    {
      "midi": 81,
      "hit": false,
      "t": 219333.11400000067,
      "d": 222.22200000000885,
      "v": 61
    },
    {
      "midi": 62,
      "hit": false,
      "t": 219499.7805000006,
      "d": 111.11100000000442,
      "v": 49
    },
    {
      "midi": 69,
      "hit": false,
      "t": 219499.7805000006,
      "d": 111.11100000000442,
      "v": 49
    },
    {
      "midi": 74,
      "hit": false,
      "t": 219499.7805000006,
      "d": 111.11100000000442,
      "v": 49
    },
    {
      "midi": 62,
      "hit": false,
      "t": 219666.4470000006,
      "d": 111.11100000000442,
      "v": 49
    },
    {
      "midi": 69,
      "hit": false,
      "t": 219666.4470000006,
      "d": 111.11100000000442,
      "v": 49
    },
    {
      "midi": 74,
      "hit": false,
      "t": 219666.4470000006,
      "d": 111.11100000000442,
      "v": 49
    },
    {
      "midi": 83,
      "hit": false,
      "t": 219666.44700000068,
      "d": 222.22200000000885,
      "v": 61
    },
    {
      "midi": 62,
      "hit": false,
      "t": 219833.1135000006,
      "d": 111.11100000000442,
      "v": 49
    },
    {
      "midi": 69,
      "hit": false,
      "t": 219833.1135000006,
      "d": 111.11100000000442,
      "v": 49
    },
    {
      "midi": 74,
      "hit": false,
      "t": 219833.1135000006,
      "d": 111.11100000000442,
      "v": 49
    },
    {
      "midi": 64,
      "hit": false,
      "t": 219999.78000000058,
      "d": 222.22200000000885,
      "v": 49
    },
    {
      "midi": 71,
      "hit": false,
      "t": 219999.78000000058,
      "d": 222.22200000000885,
      "v": 49
    },
    {
      "midi": 76,
      "hit": false,
      "t": 219999.78000000058,
      "d": 222.22200000000885,
      "v": 49
    },
    {
      "midi": 83,
      "hit": false,
      "t": 219999.7800000007,
      "d": 111.11100000000442,
      "v": 61
    },
    {
      "midi": 85,
      "hit": false,
      "t": 219999.7800000007,
      "d": 444.4440000000177,
      "v": 61
    },
    {
      "midi": 64,
      "hit": false,
      "t": 220333.1130000006,
      "d": 111.11100000000442,
      "v": 49
    },
    {
      "midi": 71,
      "hit": false,
      "t": 220333.1130000006,
      "d": 111.11100000000442,
      "v": 49
    },
    {
      "midi": 76,
      "hit": false,
      "t": 220333.1130000006,
      "d": 111.11100000000442,
      "v": 49
    },
    {
      "midi": 64,
      "hit": false,
      "t": 220499.7795000006,
      "d": 111.11100000000442,
      "v": 49
    },
    {
      "midi": 71,
      "hit": false,
      "t": 220499.7795000006,
      "d": 111.11100000000442,
      "v": 49
    },
    {
      "midi": 76,
      "hit": false,
      "t": 220499.7795000006,
      "d": 111.11100000000442,
      "v": 49
    },
    {
      "midi": 64,
      "hit": false,
      "t": 220666.44600000058,
      "d": 111.11100000000442,
      "v": 49
    },
    {
      "midi": 71,
      "hit": false,
      "t": 220666.44600000058,
      "d": 111.11100000000442,
      "v": 49
    },
    {
      "midi": 76,
      "hit": false,
      "t": 220666.44600000058,
      "d": 111.11100000000442,
      "v": 49
    },
    {
      "midi": 86,
      "hit": false,
      "t": 220666.44600000072,
      "d": 111.11100000000442,
      "v": 61
    },
    {
      "midi": 64,
      "hit": false,
      "t": 220833.11250000057,
      "d": 111.11100000000442,
      "v": 49
    },
    {
      "midi": 71,
      "hit": false,
      "t": 220833.11250000057,
      "d": 111.11100000000442,
      "v": 49
    },
    {
      "midi": 76,
      "hit": false,
      "t": 220833.11250000057,
      "d": 111.11100000000442,
      "v": 49
    },
    {
      "midi": 85,
      "hit": false,
      "t": 220833.11250000072,
      "d": 111.11100000000442,
      "v": 61
    },
    {
      "midi": 64,
      "hit": false,
      "t": 220999.77900000056,
      "d": 222.22200000000885,
      "v": 49
    },
    {
      "midi": 71,
      "hit": false,
      "t": 220999.77900000056,
      "d": 222.22200000000885,
      "v": 49
    },
    {
      "midi": 76,
      "hit": false,
      "t": 220999.77900000056,
      "d": 222.22200000000885,
      "v": 49
    },
    {
      "midi": 83,
      "hit": false,
      "t": 220999.7790000007,
      "d": 666.6659999999974,
      "v": 61
    },
    {
      "midi": 64,
      "hit": false,
      "t": 221333.11200000058,
      "d": 111.11100000000442,
      "v": 49
    },
    {
      "midi": 71,
      "hit": false,
      "t": 221333.11200000058,
      "d": 111.11100000000442,
      "v": 49
    },
    {
      "midi": 76,
      "hit": false,
      "t": 221333.11200000058,
      "d": 111.11100000000442,
      "v": 49
    },
    {
      "midi": 64,
      "hit": false,
      "t": 221499.77850000057,
      "d": 111.11100000000442,
      "v": 49
    },
    {
      "midi": 71,
      "hit": false,
      "t": 221499.77850000057,
      "d": 111.11100000000442,
      "v": 49
    },
    {
      "midi": 76,
      "hit": false,
      "t": 221499.77850000057,
      "d": 111.11100000000442,
      "v": 49
    },
    {
      "midi": 64,
      "hit": false,
      "t": 221666.44500000056,
      "d": 111.11100000000442,
      "v": 49
    },
    {
      "midi": 71,
      "hit": false,
      "t": 221666.44500000056,
      "d": 111.11100000000442,
      "v": 49
    },
    {
      "midi": 76,
      "hit": false,
      "t": 221666.44500000056,
      "d": 111.11100000000442,
      "v": 49
    },
    {
      "midi": 81,
      "hit": false,
      "t": 221666.4450000007,
      "d": 222.22200000000885,
      "v": 61
    },
    {
      "midi": 64,
      "hit": false,
      "t": 221833.11150000055,
      "d": 111.11100000000442,
      "v": 49
    },
    {
      "midi": 71,
      "hit": false,
      "t": 221833.11150000055,
      "d": 111.11100000000442,
      "v": 49
    },
    {
      "midi": 76,
      "hit": false,
      "t": 221833.11150000055,
      "d": 111.11100000000442,
      "v": 49
    },
    {
      "midi": 57,
      "hit": false,
      "t": 221999.77800000054,
      "d": 222.22200000000885,
      "v": 41
    },
    {
      "midi": 81,
      "hit": false,
      "t": 221999.77800000072,
      "d": 111.11100000000442,
      "v": 61
    },
    {
      "midi": 85,
      "hit": false,
      "t": 221999.77800000072,
      "d": 111.11100000000442,
      "v": 61
    },
    {
      "midi": 83,
      "hit": false,
      "t": 221999.77800000072,
      "d": 444.4440000000177,
      "v": 61
    },
    {
      "midi": 86,
      "hit": false,
      "t": 221999.77800000072,
      "d": 444.4440000000177,
      "v": 61
    },
    {
      "midi": 64,
      "hit": false,
      "t": 222333.11100000056,
      "d": 222.22200000000885,
      "v": 41
    },
    {
      "midi": 69,
      "hit": false,
      "t": 222666.44400000057,
      "d": 222.22199999997974,
      "v": 41
    },
    {
      "midi": 81,
      "hit": false,
      "t": 222666.44400000075,
      "d": 444.4439999999886,
      "v": 61
    },
    {
      "midi": 85,
      "hit": false,
      "t": 222666.44400000075,
      "d": 444.4439999999886,
      "v": 61
    },
    {
      "midi": 71,
      "hit": false,
      "t": 222833.11050000056,
      "d": 111.11099999997532,
      "v": 41
    },
    {
      "midi": 73,
      "hit": false,
      "t": 222999.77700000053,
      "d": 222.22200000000885,
      "v": 41
    },
    {
      "midi": 76,
      "hit": false,
      "t": 222999.77700000053,
      "d": 222.22200000000885,
      "v": 41
    },
    {
      "midi": 71,
      "hit": false,
      "t": 223333.11000000054,
      "d": 222.22200000000885,
      "v": 41
    },
    {
      "midi": 69,
      "hit": false,
      "t": 223666.44300000055,
      "d": 222.22200000000885,
      "v": 41
    },
    {
      "midi": 57,
      "hit": false,
      "t": 223999.77600000057,
      "d": 222.22200000000885,
      "v": 41
    },
    {
      "midi": 78,
      "hit": false,
      "t": 223999.77600000074,
      "d": 111.11100000000442,
      "v": 61
    },
    {
      "midi": 81,
      "hit": false,
      "t": 223999.77600000074,
      "d": 111.11100000000442,
      "v": 61
    },
    {
      "midi": 80,
      "hit": false,
      "t": 223999.77600000074,
      "d": 444.4440000000177,
      "v": 61
    },
    {
      "midi": 83,
      "hit": false,
      "t": 223999.77600000074,
      "d": 444.4440000000177,
      "v": 61
    },
    {
      "midi": 61,
      "hit": false,
      "t": 224333.10900000058,
      "d": 222.22200000000885,
      "v": 41
    },
    {
      "midi": 66,
      "hit": false,
      "t": 224666.4420000006,
      "d": 222.22199999997974,
      "v": 41
    },
    {
      "midi": 78,
      "hit": false,
      "t": 224666.44200000077,
      "d": 444.4439999999886,
      "v": 61
    },
    {
      "midi": 81,
      "hit": false,
      "t": 224666.44200000077,
      "d": 444.4439999999886,
      "v": 61
    },
    {
      "midi": 71,
      "hit": false,
      "t": 224833.10850000058,
      "d": 111.11099999997532,
      "v": 41
    },
    {
      "midi": 73,
      "hit": false,
      "t": 224999.77500000055,
      "d": 222.22200000000885,
      "v": 41
    },
    {
      "midi": 76,
      "hit": false,
      "t": 224999.77500000055,
      "d": 222.22200000000885,
      "v": 41
    },
    {
      "midi": 71,
      "hit": false,
      "t": 225333.10800000056,
      "d": 222.22200000000885,
      "v": 41
    },
    {
      "midi": 69,
      "hit": false,
      "t": 225666.44100000057,
      "d": 222.22200000000885,
      "v": 41
    },
    {
      "midi": 62,
      "hit": false,
      "t": 225999.7740000006,
      "d": 222.22200000000885,
      "v": 41
    },
    {
      "midi": 76,
      "hit": false,
      "t": 225999.77400000076,
      "d": 222.22200000000885,
      "v": 61
    },
    {
      "midi": 80,
      "hit": false,
      "t": 225999.77400000076,
      "d": 222.22200000000885,
      "v": 61
    },
    {
      "midi": 69,
      "hit": false,
      "t": 226333.1070000006,
      "d": 222.22200000000885,
      "v": 41
    },
    {
      "midi": 74,
      "hit": false,
      "t": 226333.10700000077,
      "d": 444.4439999999886,
      "v": 61
    },
    {
      "midi": 78,
      "hit": false,
      "t": 226333.10700000077,
      "d": 444.4439999999886,
      "v": 61
    },
    {
      "midi": 74,
      "hit": false,
      "t": 226666.4400000006,
      "d": 222.22199999997974,
      "v": 41
    },
    {
      "midi": 76,
      "hit": false,
      "t": 226833.1065000006,
      "d": 111.11099999997532,
      "v": 41
    },
    {
      "midi": 78,
      "hit": false,
      "t": 226999.77300000057,
      "d": 222.22200000000885,
      "v": 41
    },
    {
      "midi": 76,
      "hit": false,
      "t": 227333.10600000058,
      "d": 222.22200000000885,
      "v": 41
    },
    {
      "midi": 74,
      "hit": false,
      "t": 227333.10600000076,
      "d": 111.11100000000442,
      "v": 61
    },
    {
      "midi": 78,
      "hit": false,
      "t": 227333.10600000076,
      "d": 111.11100000000442,
      "v": 61
    },
    {
      "midi": 76,
      "hit": false,
      "t": 227333.10600000076,
      "d": 222.22200000000885,
      "v": 61
    },
    {
      "midi": 80,
      "hit": false,
      "t": 227333.10600000076,
      "d": 222.22200000000885,
      "v": 61
    },
    {
      "midi": 69,
      "hit": false,
      "t": 227666.4390000006,
      "d": 222.22200000000885,
      "v": 41
    },
    {
      "midi": 74,
      "hit": false,
      "t": 227666.43900000077,
      "d": 222.22200000000885,
      "v": 61
    },
    {
      "midi": 78,
      "hit": false,
      "t": 227666.43900000077,
      "d": 222.22200000000885,
      "v": 61
    },
    {
      "midi": 62,
      "hit": false,
      "t": 227999.7720000006,
      "d": 222.22200000000885,
      "v": 41
    },
    {
      "midi": 73,
      "hit": false,
      "t": 227999.77200000078,
      "d": 333.33300000001327,
      "v": 61
    },
    {
      "midi": 77,
      "hit": false,
      "t": 227999.77200000078,
      "d": 666.6659999999974,
      "v": 61
    },
    {
      "midi": 69,
      "hit": false,
      "t": 228333.10500000062,
      "d": 222.22200000000885,
      "v": 41
    },
    {
      "midi": 74,
      "hit": false,
      "t": 228499.7715000008,
      "d": 111.11100000000442,
      "v": 61
    },
    {
      "midi": 74,
      "hit": false,
      "t": 228666.43800000063,
      "d": 222.22199999997974,
      "v": 41
    },
    {
      "midi": 73,
      "hit": false,
      "t": 228666.43800000078,
      "d": 222.22200000000885,
      "v": 61
    },
    {
      "midi": 76,
      "hit": false,
      "t": 228833.10450000063,
      "d": 111.11099999997532,
      "v": 41
    },
    {
      "midi": 77,
      "hit": false,
      "t": 228999.7710000006,
      "d": 222.22200000000885,
      "v": 41
    },
    {
      "midi": 71,
      "hit": false,
      "t": 228999.7710000008,
      "d": 222.22200000000885,
      "v": 61
    },
    {
      "midi": 77,
      "hit": false,
      "t": 228999.7710000008,
      "d": 666.6660000000265,
      "v": 61
    },
    {
      "midi": 76,
      "hit": false,
      "t": 229333.1040000006,
      "d": 222.22200000000885,
      "v": 41
    },
    {
      "midi": 69,
      "hit": false,
      "t": 229333.1040000008,
      "d": 222.22200000000885,
      "v": 61
    },
    {
      "midi": 74,
      "hit": false,
      "t": 229666.43700000062,
      "d": 222.22200000000885,
      "v": 41
    },
    {
      "midi": 57,
      "hit": false,
      "t": 229999.77000000063,
      "d": 222.22200000000885,
      "v": 41
    },
    {
      "midi": 64,
      "hit": false,
      "t": 230333.10300000064,
      "d": 222.22200000000885,
      "v": 41
    },
    {
      "midi": 69,
      "hit": false,
      "t": 230666.43600000066,
      "d": 222.22199999997974,
      "v": 41
    },
    {
      "midi": 71,
      "hit": false,
      "t": 230833.10250000065,
      "d": 111.11099999997532,
      "v": 41
    },
    {
      "midi": 73,
      "hit": false,
      "t": 230999.7690000006,
      "d": 222.22200000000885,
      "v": 41
    },
    {
      "midi": 76,
      "hit": false,
      "t": 230999.7690000006,
      "d": 222.22200000000885,
      "v": 41
    },
    {
      "midi": 73,
      "hit": false,
      "t": 230999.76900000082,
      "d": 222.22200000000885,
      "v": 64
    },
    {
      "midi": 71,
      "hit": false,
      "t": 231333.10200000062,
      "d": 222.22200000000885,
      "v": 41
    },
    {
      "midi": 76,
      "hit": false,
      "t": 231333.10200000083,
      "d": 222.22200000000885,
      "v": 64
    },
    {
      "midi": 69,
      "hit": false,
      "t": 231666.43500000064,
      "d": 222.22200000000885,
      "v": 41
    },
    {
      "midi": 80,
      "hit": false,
      "t": 231666.43500000084,
      "d": 222.22200000000885,
      "v": 64
    },
    {
      "midi": 57,
      "hit": false,
      "t": 231999.76800000065,
      "d": 222.22200000000885,
      "v": 41
    },
    {
      "midi": 81,
      "hit": false,
      "t": 231999.76800000085,
      "d": 444.4439999999886,
      "v": 64
    },
    {
      "midi": 61,
      "hit": false,
      "t": 232333.10100000066,
      "d": 222.22200000000885,
      "v": 41
    },
    {
      "midi": 66,
      "hit": false,
      "t": 232666.43400000068,
      "d": 222.22199999997974,
      "v": 41
    },
    {
      "midi": 71,
      "hit": false,
      "t": 232833.10050000067,
      "d": 111.11099999997532,
      "v": 41
    },
    {
      "midi": 73,
      "hit": false,
      "t": 232999.76700000063,
      "d": 222.22200000000885,
      "v": 41
    },
    {
      "midi": 76,
      "hit": false,
      "t": 232999.76700000063,
      "d": 222.22200000000885,
      "v": 41
    },
    {
      "midi": 71,
      "hit": false,
      "t": 233333.10000000065,
      "d": 222.22200000000885,
      "v": 41
    },
    {
      "midi": 78,
      "hit": false,
      "t": 233333.10000000085,
      "d": 222.22200000000885,
      "v": 64
    },
    {
      "midi": 69,
      "hit": false,
      "t": 233666.43300000066,
      "d": 222.22200000000885,
      "v": 41
    },
    {
      "midi": 81,
      "hit": false,
      "t": 233666.43300000086,
      "d": 222.22200000000885,
      "v": 64
    },
    {
      "midi": 62,
      "hit": false,
      "t": 233999.76600000067,
      "d": 222.22200000000885,
      "v": 49
    },
    {
      "midi": 83,
      "hit": false,
      "t": 233999.76600000088,
      "d": 444.4439999999886,
      "v": 64
    },
    {
      "midi": 62,
      "hit": false,
      "t": 234333.0990000007,
      "d": 222.22200000000885,
      "v": 49
    },
    {
      "midi": 69,
      "hit": false,
      "t": 234333.0990000007,
      "d": 222.22200000000885,
      "v": 49
    },
    {
      "midi": 74,
      "hit": false,
      "t": 234333.0990000007,
      "d": 222.22200000000885,
      "v": 49
    },
    {
      "midi": 78,
      "hit": false,
      "t": 234333.0990000007,
      "d": 222.22200000000885,
      "v": 49
    },
    {
      "midi": 62,
      "hit": false,
      "t": 234666.4320000007,
      "d": 111.11100000000442,
      "v": 49
    },
    {
      "midi": 69,
      "hit": false,
      "t": 234666.4320000007,
      "d": 111.11100000000442,
      "v": 49
    },
    {
      "midi": 74,
      "hit": false,
      "t": 234666.4320000007,
      "d": 111.11100000000442,
      "v": 49
    },
    {
      "midi": 78,
      "hit": false,
      "t": 234666.4320000007,
      "d": 111.11100000000442,
      "v": 49
    },
    {
      "midi": 62,
      "hit": false,
      "t": 234833.0985000007,
      "d": 111.11100000000442,
      "v": 49
    },
    {
      "midi": 69,
      "hit": false,
      "t": 234833.0985000007,
      "d": 111.11100000000442,
      "v": 49
    },
    {
      "midi": 74,
      "hit": false,
      "t": 234833.0985000007,
      "d": 111.11100000000442,
      "v": 49
    },
    {
      "midi": 78,
      "hit": false,
      "t": 234833.0985000007,
      "d": 111.11100000000442,
      "v": 49
    },
    {
      "midi": 62,
      "hit": false,
      "t": 234999.76500000068,
      "d": 222.22200000000885,
      "v": 49
    },
    {
      "midi": 62,
      "hit": false,
      "t": 235333.0980000007,
      "d": 222.22200000000885,
      "v": 49
    },
    {
      "midi": 69,
      "hit": false,
      "t": 235333.0980000007,
      "d": 222.22200000000885,
      "v": 49
    },
    {
      "midi": 74,
      "hit": false,
      "t": 235333.0980000007,
      "d": 222.22200000000885,
      "v": 49
    },
    {
      "midi": 78,
      "hit": false,
      "t": 235333.0980000007,
      "d": 222.22200000000885,
      "v": 49
    },
    {
      "midi": 81,
      "hit": false,
      "t": 235333.09800000087,
      "d": 222.22200000000885,
      "v": 64
    },
    {
      "midi": 62,
      "hit": false,
      "t": 235666.4310000007,
      "d": 111.11100000000442,
      "v": 49
    },
    {
      "midi": 69,
      "hit": false,
      "t": 235666.4310000007,
      "d": 111.11100000000442,
      "v": 49
    },
    {
      "midi": 74,
      "hit": false,
      "t": 235666.4310000007,
      "d": 111.11100000000442,
      "v": 49
    },
    {
      "midi": 78,
      "hit": false,
      "t": 235666.4310000007,
      "d": 111.11100000000442,
      "v": 49
    },
    {
      "midi": 83,
      "hit": false,
      "t": 235666.43100000088,
      "d": 222.22200000000885,
      "v": 64
    },
    {
      "midi": 62,
      "hit": false,
      "t": 235833.0975000007,
      "d": 111.11100000000442,
      "v": 49
    },
    {
      "midi": 69,
      "hit": false,
      "t": 235833.0975000007,
      "d": 111.11100000000442,
      "v": 49
    },
    {
      "midi": 74,
      "hit": false,
      "t": 235833.0975000007,
      "d": 111.11100000000442,
      "v": 49
    },
    {
      "midi": 78,
      "hit": false,
      "t": 235833.0975000007,
      "d": 111.11100000000442,
      "v": 49
    },
    {
      "midi": 68,
      "hit": false,
      "t": 235999.7640000007,
      "d": 222.22200000000885,
      "v": 49
    },
    {
      "midi": 85,
      "hit": false,
      "t": 235999.7640000009,
      "d": 666.6659999999974,
      "v": 64
    },
    {
      "midi": 71,
      "hit": false,
      "t": 236333.0970000007,
      "d": 222.22200000000885,
      "v": 49
    },
    {
      "midi": 76,
      "hit": false,
      "t": 236333.0970000007,
      "d": 222.22200000000885,
      "v": 49
    },
    {
      "midi": 71,
      "hit": false,
      "t": 236666.43000000072,
      "d": 222.22200000000885,
      "v": 49
    },
    {
      "midi": 76,
      "hit": false,
      "t": 236666.43000000072,
      "d": 222.22200000000885,
      "v": 49
    },
    {
      "midi": 68,
      "hit": false,
      "t": 236999.76300000073,
      "d": 222.22200000000885,
      "v": 49
    },
    {
      "midi": 85,
      "hit": false,
      "t": 236999.7630000009,
      "d": 666.6659999999974,
      "v": 64
    },
    {
      "midi": 71,
      "hit": false,
      "t": 237333.09600000075,
      "d": 111.11100000000442,
      "v": 49
    },
    {
      "midi": 76,
      "hit": false,
      "t": 237333.09600000075,
      "d": 111.11100000000442,
      "v": 49
    },
    {
      "midi": 71,
      "hit": false,
      "t": 237499.76250000074,
      "d": 111.11100000000442,
      "v": 49
    },
    {
      "midi": 76,
      "hit": false,
      "t": 237499.76250000074,
      "d": 111.11100000000442,
      "v": 49
    },
    {
      "midi": 71,
      "hit": false,
      "t": 237666.42900000073,
      "d": 111.11100000000442,
      "v": 49
    },
    {
      "midi": 76,
      "hit": false,
      "t": 237666.42900000073,
      "d": 111.11100000000442,
      "v": 49
    },
    {
      "midi": 71,
      "hit": false,
      "t": 237833.09550000072,
      "d": 111.11100000000442,
      "v": 49
    },
    {
      "midi": 76,
      "hit": false,
      "t": 237833.09550000072,
      "d": 111.11100000000442,
      "v": 49
    },
    {
      "midi": 88,
      "hit": false,
      "t": 238666.42800000092,
      "d": 444.4439999999886,
      "v": 64
    },
    {
      "midi": 90,
      "hit": false,
      "t": 239333.0940000009,
      "d": 222.22200000000885,
      "v": 64
    },
    {
      "midi": 92,
      "hit": false,
      "t": 239666.42700000093,
      "d": 222.22200000000885,
      "v": 64
    },
    {
      "midi": 95,
      "hit": false,
      "t": 239999.76000000094,
      "d": 444.4439999999886,
      "v": 64
    },
    {
      "midi": 93,
      "hit": false,
      "t": 240666.42600000094,
      "d": 444.4439999999886,
      "v": 64
    },
    {
      "midi": 92,
      "hit": false,
      "t": 241333.09200000094,
      "d": 222.22200000000885,
      "v": 64
    },
    {
      "midi": 93,
      "hit": false,
      "t": 241666.42500000095,
      "d": 222.22200000000885,
      "v": 64
    },
    {
      "midi": 90,
      "hit": false,
      "t": 241999.75800000096,
      "d": 1333.3319999999949,
      "v": 64
    },
    {
      "midi": 84,
      "hit": false,
      "t": 243999.75600000072,
      "d": 222.22200000000885,
      "v": 49
    },
    {
      "midi": 93,
      "hit": false,
      "t": 244333.08900000073,
      "d": 444.4439999999886,
      "v": 49
    },
    {
      "midi": 84,
      "hit": false,
      "t": 244833.0885000007,
      "d": 111.11100000000442,
      "v": 49
    },
    {
      "midi": 86,
      "hit": false,
      "t": 244999.7550000007,
      "d": 222.22200000000885,
      "v": 49
    },
    {
      "midi": 95,
      "hit": false,
      "t": 245333.08800000072,
      "d": 222.22200000000885,
      "v": 49
    },
    {
      "midi": 86,
      "hit": false,
      "t": 245666.42100000073,
      "d": 111.11100000000442,
      "v": 49
    },
    {
      "midi": 88,
      "hit": false,
      "t": 245833.08750000072,
      "d": 111.11100000000442,
      "v": 49
    },
    {
      "midi": 97,
      "hit": false,
      "t": 245999.7540000007,
      "d": 666.6659999999974,
      "v": 49
    },
    {
      "midi": 88,
      "hit": false,
      "t": 246666.42000000094,
      "d": 444.4439999999886,
      "v": 64
    },
    {
      "midi": 85,
      "hit": false,
      "t": 246999.75300000072,
      "d": 222.22200000000885,
      "v": 49
    },
    {
      "midi": 86,
      "hit": false,
      "t": 247333.08600000074,
      "d": 222.22200000000885,
      "v": 49
    },
    {
      "midi": 90,
      "hit": false,
      "t": 247333.08600000094,
      "d": 222.22200000000885,
      "v": 64
    },
    {
      "midi": 88,
      "hit": false,
      "t": 247666.41900000075,
      "d": 222.22200000000885,
      "v": 49
    },
    {
      "midi": 92,
      "hit": false,
      "t": 247666.41900000095,
      "d": 222.22200000000885,
      "v": 64
    },
    {
      "midi": 90,
      "hit": false,
      "t": 247999.75200000076,
      "d": 444.4439999999886,
      "v": 49
    },
    {
      "midi": 95,
      "hit": false,
      "t": 247999.75200000097,
      "d": 444.4439999999886,
      "v": 64
    },
    {
      "midi": 88,
      "hit": false,
      "t": 248666.41800000076,
      "d": 444.4439999999886,
      "v": 49
    },
    {
      "midi": 93,
      "hit": false,
      "t": 248666.41800000097,
      "d": 444.4439999999886,
      "v": 64
    },
    {
      "midi": 86,
      "hit": false,
      "t": 249333.08400000076,
      "d": 222.22200000000885,
      "v": 49
    },
    {
      "midi": 92,
      "hit": false,
      "t": 249333.08400000096,
      "d": 222.22200000000885,
      "v": 64
    },
    {
      "midi": 88,
      "hit": false,
      "t": 249666.41700000077,
      "d": 222.22200000000885,
      "v": 49
    },
    {
      "midi": 93,
      "hit": false,
      "t": 249666.41700000098,
      "d": 222.22200000000885,
      "v": 64
    },
    {
      "midi": 100,
      "hit": false,
      "t": 249999.7500000008,
      "d": 1333.3319999999949,
      "v": 49
    },
    {
      "midi": 100,
      "hit": false,
      "t": 249999.750000001,
      "d": 2673.608437499992,
      "v": 64
    },
    {
      "midi": 100,
      "hit": false,
      "t": 251999.74800000078,
      "d": 111.11100000000442,
      "v": 49
    },
    {
      "midi": 100,
      "hit": false,
      "t": 252166.41450000077,
      "d": 111.11100000000442,
      "v": 49
    },
    {
      "midi": 100,
      "hit": false,
      "t": 252333.08100000076,
      "d": 222.22200000000885,
      "v": 49
    },
    {
      "midi": 100,
      "hit": false,
      "t": 252666.41400000078,
      "d": 111.11100000000442,
      "v": 49
    },
    {
      "midi": 100,
      "hit": false,
      "t": 252833.08050000077,
      "d": 111.11100000000442,
      "v": 49
    },
    {
      "midi": 100,
      "hit": false,
      "t": 252999.74700000076,
      "d": 222.22200000000885,
      "v": 49
    },
    {
      "midi": 100,
      "hit": false,
      "t": 253333.08000000077,
      "d": 111.11100000000442,
      "v": 49
    },
    {
      "midi": 100,
      "hit": false,
      "t": 253499.74650000077,
      "d": 111.11100000000442,
      "v": 49
    },
    {
      "midi": 100,
      "hit": false,
      "t": 253666.41300000076,
      "d": 777.777000000031,
      "v": 49
    },
    {
      "midi": 57,
      "hit": false,
      "t": 253999.74600000077,
      "d": 222.22200000000885,
      "v": 41
    },
    {
      "midi": 64,
      "hit": false,
      "t": 254333.07900000078,
      "d": 222.22200000000885,
      "v": 41
    },
    {
      "midi": 69,
      "hit": false,
      "t": 254666.4120000008,
      "d": 222.22199999997974,
      "v": 41
    },
    {
      "midi": 71,
      "hit": false,
      "t": 254833.0785000008,
      "d": 111.11099999997532,
      "v": 41
    },
    {
      "midi": 73,
      "hit": false,
      "t": 254999.74500000075,
      "d": 222.22200000000885,
      "v": 41
    },
    {
      "midi": 76,
      "hit": false,
      "t": 254999.74500000075,
      "d": 222.22200000000885,
      "v": 41
    },
    {
      "midi": 71,
      "hit": false,
      "t": 255333.07800000077,
      "d": 222.22200000000885,
      "v": 41
    },
    {
      "midi": 75,
      "hit": false,
      "t": 255499.744500001,
      "d": 111.11100000000442,
      "v": 64
    },
    {
      "midi": 69,
      "hit": false,
      "t": 255666.41100000078,
      "d": 222.22200000000885,
      "v": 41
    },
    {
      "midi": 74,
      "hit": false,
      "t": 255666.41100000098,
      "d": 222.22200000000885,
      "v": 64
    },
    {
      "midi": 57,
      "hit": false,
      "t": 255999.7440000008,
      "d": 222.22200000000885,
      "v": 41
    },
    {
      "midi": 76,
      "hit": false,
      "t": 255999.744000001,
      "d": 111.11100000000442,
      "v": 64
    },
    {
      "midi": 73,
      "hit": false,
      "t": 256166.410500001,
      "d": 111.11100000000442,
      "v": 64
    },
    {
      "midi": 61,
      "hit": false,
      "t": 256333.0770000008,
      "d": 222.22200000000885,
      "v": 41
    },
    {
      "midi": 69,
      "hit": false,
      "t": 256333.07700000098,
      "d": 222.22200000000885,
      "v": 64
    },
    {
      "midi": 66,
      "hit": false,
      "t": 256666.41000000082,
      "d": 222.22199999997974,
      "v": 41
    },
    {
      "midi": 71,
      "hit": false,
      "t": 256833.0765000008,
      "d": 111.11099999997532,
      "v": 41
    },
    {
      "midi": 73,
      "hit": false,
      "t": 256999.74300000077,
      "d": 222.22200000000885,
      "v": 41
    },
    {
      "midi": 76,
      "hit": false,
      "t": 256999.74300000077,
      "d": 222.22200000000885,
      "v": 41
    },
    {
      "midi": 88,
      "hit": false,
      "t": 256999.74300000098,
      "d": 222.22200000000885,
      "v": 64
    },
    {
      "midi": 71,
      "hit": false,
      "t": 257333.0760000008,
      "d": 222.22200000000885,
      "v": 41
    },
    {
      "midi": 88,
      "hit": false,
      "t": 257333.076000001,
      "d": 222.22200000000885,
      "v": 64
    },
    {
      "midi": 69,
      "hit": false,
      "t": 257666.4090000008,
      "d": 222.22200000000885,
      "v": 41
    },
    {
      "midi": 86,
      "hit": false,
      "t": 257666.409000001,
      "d": 222.22200000000885,
      "v": 64
    },
    {
      "midi": 62,
      "hit": false,
      "t": 257999.7420000008,
      "d": 222.22200000000885,
      "v": 41
    },
    {
      "midi": 86,
      "hit": false,
      "t": 257999.74200000102,
      "d": 222.22200000000885,
      "v": 64
    },
    {
      "midi": 69,
      "hit": false,
      "t": 258333.07500000083,
      "d": 222.22200000000885,
      "v": 41
    },
    {
      "midi": 81,
      "hit": false,
      "t": 258333.07500000103,
      "d": 111.11100000000442,
      "v": 64
    },
    {
      "midi": 78,
      "hit": false,
      "t": 258499.74150000102,
      "d": 111.11100000000442,
      "v": 64
    },
    {
      "midi": 74,
      "hit": false,
      "t": 258666.40800000084,
      "d": 222.22199999997974,
      "v": 41
    },
    {
      "midi": 81,
      "hit": false,
      "t": 258666.408000001,
      "d": 222.22200000000885,
      "v": 64
    },
    {
      "midi": 76,
      "hit": false,
      "t": 258833.07450000083,
      "d": 111.11099999997532,
      "v": 41
    },
    {
      "midi": 78,
      "hit": false,
      "t": 258999.7410000008,
      "d": 222.22200000000885,
      "v": 41
    },
    {
      "midi": 85,
      "hit": false,
      "t": 258999.74100000103,
      "d": 222.22200000000885,
      "v": 64
    },
    {
      "midi": 76,
      "hit": false,
      "t": 259333.0740000008,
      "d": 222.22200000000885,
      "v": 41
    },
    {
      "midi": 83,
      "hit": false,
      "t": 259333.07400000104,
      "d": 111.11100000000442,
      "v": 64
    },
    {
      "midi": 81,
      "hit": false,
      "t": 259499.74050000103,
      "d": 222.22200000000885,
      "v": 64
    },
    {
      "midi": 69,
      "hit": false,
      "t": 259666.40700000082,
      "d": 222.22200000000885,
      "v": 41
    },
    {
      "midi": 79,
      "hit": false,
      "t": 259833.07350000105,
      "d": 111.11100000000442,
      "v": 64
    },
    {
      "midi": 62,
      "hit": false,
      "t": 259999.74000000083,
      "d": 222.22200000000885,
      "v": 41
    },
    {
      "midi": 74,
      "hit": false,
      "t": 259999.74000000104,
      "d": 222.22200000000885,
      "v": 64
    },
    {
      "midi": 69,
      "hit": false,
      "t": 260333.07300000085,
      "d": 222.22200000000885,
      "v": 41
    },
    {
      "midi": 72,
      "hit": false,
      "t": 260333.07300000105,
      "d": 111.11100000000442,
      "v": 64
    },
    {
      "midi": 74,
      "hit": false,
      "t": 260499.73950000104,
      "d": 222.22200000000885,
      "v": 64
    },
    {
      "midi": 74,
      "hit": false,
      "t": 260666.40600000086,
      "d": 222.22199999997974,
      "v": 41
    },
    {
      "midi": 76,
      "hit": false,
      "t": 260833.07250000085,
      "d": 111.11099999997532,
      "v": 41
    },
    {
      "midi": 76,
      "hit": false,
      "t": 260833.07250000106,
      "d": 111.11100000000442,
      "v": 64
    },
    {
      "midi": 77,
      "hit": false,
      "t": 260999.73900000082,
      "d": 222.22200000000885,
      "v": 41
    },
    {
      "midi": 72,
      "hit": false,
      "t": 260999.73900000105,
      "d": 222.22200000000885,
      "v": 64
    },
    {
      "midi": 76,
      "hit": false,
      "t": 261333.07200000083,
      "d": 222.22200000000885,
      "v": 41
    },
    {
      "midi": 69,
      "hit": false,
      "t": 261333.07200000106,
      "d": 222.22200000000885,
      "v": 64
    },
    {
      "midi": 74,
      "hit": false,
      "t": 261666.40500000084,
      "d": 222.22200000000885,
      "v": 41
    },
    {
      "midi": 57,
      "hit": false,
      "t": 261999.73800000086,
      "d": 222.22199999997974,
      "v": 49
    },
    {
      "midi": 64,
      "hit": false,
      "t": 262333.0710000008,
      "d": 222.22200000000885,
      "v": 49
    },
    {
      "midi": 69,
      "hit": false,
      "t": 262666.4040000008,
      "d": 222.22200000000885,
      "v": 49
    },
    {
      "midi": 71,
      "hit": false,
      "t": 262833.0705000008,
      "d": 111.11100000003353,
      "v": 49
    },
    {
      "midi": 73,
      "hit": false,
      "t": 262999.73700000084,
      "d": 222.22200000000885,
      "v": 49
    },
    {
      "midi": 76,
      "hit": false,
      "t": 262999.73700000084,
      "d": 222.22200000000885,
      "v": 49
    },
    {
      "midi": 71,
      "hit": false,
      "t": 263333.0700000008,
      "d": 222.22200000000885,
      "v": 49
    },
    {
      "midi": 69,
      "hit": false,
      "t": 263666.4030000008,
      "d": 222.22200000000885,
      "v": 49
    },
    {
      "midi": 57,
      "hit": false,
      "t": 263999.7360000008,
      "d": 222.22200000000885,
      "v": 49
    },
    {
      "midi": 61,
      "hit": false,
      "t": 264333.0690000008,
      "d": 222.22200000000885,
      "v": 48
    },
    {
      "midi": 66,
      "hit": false,
      "t": 264666.40200000076,
      "d": 222.22200000000885,
      "v": 48
    },
    {
      "midi": 71,
      "hit": false,
      "t": 264833.06850000075,
      "d": 111.11100000003353,
      "v": 48
    },
    {
      "midi": 73,
      "hit": false,
      "t": 264999.7350000008,
      "d": 222.22200000000885,
      "v": 48
    },
    {
      "midi": 76,
      "hit": false,
      "t": 264999.7350000008,
      "d": 222.22200000000885,
      "v": 48
    },
    {
      "midi": 71,
      "hit": false,
      "t": 265333.0680000008,
      "d": 222.22200000000885,
      "v": 48
    },
    {
      "midi": 69,
      "hit": false,
      "t": 265666.40100000077,
      "d": 222.22200000000885,
      "v": 47
    },
    {
      "midi": 62,
      "hit": false,
      "t": 265999.73400000075,
      "d": 222.22200000000885,
      "v": 47
    },
    {
      "midi": 62,
      "hit": false,
      "t": 266333.06700000074,
      "d": 222.22200000000885,
      "v": 47
    },
    {
      "midi": 69,
      "hit": false,
      "t": 266333.06700000074,
      "d": 222.22200000000885,
      "v": 47
    },
    {
      "midi": 74,
      "hit": false,
      "t": 266333.06700000074,
      "d": 222.22200000000885,
      "v": 47
    },
    {
      "midi": 78,
      "hit": false,
      "t": 266333.06700000074,
      "d": 222.22200000000885,
      "v": 47
    },
    {
      "midi": 62,
      "hit": false,
      "t": 266666.4000000007,
      "d": 111.11099999997532,
      "v": 46
    },
    {
      "midi": 69,
      "hit": false,
      "t": 266666.4000000007,
      "d": 111.11099999997532,
      "v": 46
    },
    {
      "midi": 74,
      "hit": false,
      "t": 266666.4000000007,
      "d": 111.11099999997532,
      "v": 46
    },
    {
      "midi": 78,
      "hit": false,
      "t": 266666.4000000007,
      "d": 111.11099999997532,
      "v": 46
    },
    {
      "midi": 62,
      "hit": false,
      "t": 266833.0665000007,
      "d": 111.11099999997532,
      "v": 46
    },
    {
      "midi": 69,
      "hit": false,
      "t": 266833.0665000007,
      "d": 111.11099999997532,
      "v": 46
    },
    {
      "midi": 74,
      "hit": false,
      "t": 266833.0665000007,
      "d": 111.11099999997532,
      "v": 46
    },
    {
      "midi": 78,
      "hit": false,
      "t": 266833.0665000007,
      "d": 111.11099999997532,
      "v": 46
    },
    {
      "midi": 62,
      "hit": false,
      "t": 266999.7330000007,
      "d": 222.22200000000885,
      "v": 46
    },
    {
      "midi": 62,
      "hit": false,
      "t": 267333.0660000007,
      "d": 222.22200000000885,
      "v": 46
    },
    {
      "midi": 69,
      "hit": false,
      "t": 267333.0660000007,
      "d": 222.22200000000885,
      "v": 46
    },
    {
      "midi": 74,
      "hit": false,
      "t": 267333.0660000007,
      "d": 222.22200000000885,
      "v": 46
    },
    {
      "midi": 78,
      "hit": false,
      "t": 267333.0660000007,
      "d": 222.22200000000885,
      "v": 46
    },
    {
      "midi": 62,
      "hit": false,
      "t": 267666.3990000007,
      "d": 111.11099999997532,
      "v": 46
    },
    {
      "midi": 69,
      "hit": false,
      "t": 267666.3990000007,
      "d": 111.11099999997532,
      "v": 46
    },
    {
      "midi": 74,
      "hit": false,
      "t": 267666.3990000007,
      "d": 111.11099999997532,
      "v": 46
    },
    {
      "midi": 78,
      "hit": false,
      "t": 267666.3990000007,
      "d": 111.11099999997532,
      "v": 46
    },
    {
      "midi": 62,
      "hit": false,
      "t": 267833.06550000067,
      "d": 111.11099999997532,
      "v": 46
    },
    {
      "midi": 69,
      "hit": false,
      "t": 267833.06550000067,
      "d": 111.11099999997532,
      "v": 46
    },
    {
      "midi": 74,
      "hit": false,
      "t": 267833.06550000067,
      "d": 111.11099999997532,
      "v": 46
    },
    {
      "midi": 78,
      "hit": false,
      "t": 267833.06550000067,
      "d": 111.11099999997532,
      "v": 46
    },
    {
      "midi": 68,
      "hit": false,
      "t": 267999.73200000066,
      "d": 222.22200000000885,
      "v": 46
    },
    {
      "midi": 71,
      "hit": false,
      "t": 268333.06500000064,
      "d": 222.22200000000885,
      "v": 46
    },
    {
      "midi": 76,
      "hit": false,
      "t": 268333.06500000064,
      "d": 222.22200000000885,
      "v": 46
    },
    {
      "midi": 71,
      "hit": false,
      "t": 268666.3980000006,
      "d": 222.22200000000885,
      "v": 46
    },
    {
      "midi": 76,
      "hit": false,
      "t": 268666.3980000006,
      "d": 222.22200000000885,
      "v": 46
    },
    {
      "midi": 68,
      "hit": false,
      "t": 268999.7310000006,
      "d": 222.22200000000885,
      "v": 45
    },
    {
      "midi": 71,
      "hit": false,
      "t": 269333.0640000006,
      "d": 111.11099999997532,
      "v": 45
    },
    {
      "midi": 76,
      "hit": false,
      "t": 269333.0640000006,
      "d": 111.11099999997532,
      "v": 45
    },
    {
      "midi": 71,
      "hit": false,
      "t": 269499.7305000006,
      "d": 111.11099999997532,
      "v": 45
    },
    {
      "midi": 76,
      "hit": false,
      "t": 269499.7305000006,
      "d": 111.11099999997532,
      "v": 45
    },
    {
      "midi": 71,
      "hit": false,
      "t": 269666.3970000006,
      "d": 111.11099999997532,
      "v": 45
    },
    {
      "midi": 76,
      "hit": false,
      "t": 269666.3970000006,
      "d": 111.11099999997532,
      "v": 45
    },
    {
      "midi": 71,
      "hit": false,
      "t": 269833.0635000006,
      "d": 111.11099999997532,
      "v": 45
    },
    {
      "midi": 76,
      "hit": false,
      "t": 269833.0635000006,
      "d": 111.11099999997532,
      "v": 45
    },
    {
      "midi": 57,
      "hit": false,
      "t": 269999.73000000056,
      "d": 222.22200000000885,
      "v": 44
    },
    {
      "midi": 64,
      "hit": false,
      "t": 270333.06300000055,
      "d": 222.22200000000885,
      "v": 44
    },
    {
      "midi": 69,
      "hit": false,
      "t": 270666.39600000053,
      "d": 222.22200000000885,
      "v": 44
    },
    {
      "midi": 71,
      "hit": false,
      "t": 270833.0625000005,
      "d": 111.11100000003353,
      "v": 44
    },
    {
      "midi": 73,
      "hit": false,
      "t": 270999.7290000006,
      "d": 222.22200000000885,
      "v": 43
    },
    {
      "midi": 76,
      "hit": false,
      "t": 270999.7290000006,
      "d": 222.22200000000885,
      "v": 43
    },
    {
      "midi": 71,
      "hit": false,
      "t": 271333.06200000056,
      "d": 222.22200000000885,
      "v": 43
    },
    {
      "midi": 69,
      "hit": false,
      "t": 271666.39500000054,
      "d": 222.22200000000885,
      "v": 43
    },
    {
      "midi": 57,
      "hit": false,
      "t": 271999.7280000005,
      "d": 222.22200000000885,
      "v": 43
    },
    {
      "midi": 61,
      "hit": false,
      "t": 272333.0610000005,
      "d": 222.22200000000885,
      "v": 42
    },
    {
      "midi": 66,
      "hit": false,
      "t": 272666.3940000005,
      "d": 222.22200000000885,
      "v": 42
    },
    {
      "midi": 71,
      "hit": false,
      "t": 272833.0605000005,
      "d": 111.11100000003353,
      "v": 42
    },
    {
      "midi": 73,
      "hit": false,
      "t": 272999.72700000054,
      "d": 222.22200000000885,
      "v": 42
    },
    {
      "midi": 76,
      "hit": false,
      "t": 272999.72700000054,
      "d": 222.22200000000885,
      "v": 42
    },
    {
      "midi": 71,
      "hit": false,
      "t": 273333.0600000005,
      "d": 222.22200000000885,
      "v": 42
    },
    {
      "midi": 69,
      "hit": false,
      "t": 273666.3930000005,
      "d": 222.22200000000885,
      "v": 42
    },
    {
      "midi": 78,
      "hit": false,
      "t": 274999.7250000005,
      "d": 666.6660000000265,
      "v": 41
    },
    {
      "midi": 81,
      "hit": false,
      "t": 274999.7250000005,
      "d": 666.6660000000265,
      "v": 41
    },
    {
      "midi": 86,
      "hit": false,
      "t": 274999.7250000005,
      "d": 666.6660000000265,
      "v": 41
    },
    {
      "midi": 76,
      "hit": false,
      "t": 278999.72100000054,
      "d": 999.9990000000107,
      "v": 38
    },
    {
      "midi": 85,
      "hit": false,
      "t": 279333.0540000005,
      "d": 666.6660000000265,
      "v": 38
    }
  ]
}