{
  "jsonPath": "Rock/Album Rock/Aerosmith/cryin.json",
  "path": "Rock\\Album Rock\\Aerosmith\\Cryin.mid",
  "name": "Cryin",
  "difficulty": "Advanced",
  "bpm": 102.0000510000255,
  "notes": [
    {
      "midi": 58,
      "hit": false,
      "t": 2647.0575000000003,
      "d": 196.07833333333338,
      "v": 93
    },
    {
      "midi": 65,
      "hit": false,
      "t": 2647.0575000000003,
      "d": 196.07833333333338,
      "v": 93
    },
    {
      "midi": 70,
      "hit": false,
      "t": 2647.0575000000003,
      "d": 196.07833333333338,
      "v": 93
    },
    {
      "midi": 60,
      "hit": false,
      "t": 2941.175,
      "d": 196.07833333333338,
      "v": 93
    },
    {
      "midi": 67,
      "hit": false,
      "t": 2941.175,
      "d": 196.07833333333338,
      "v": 93
    },
    {
      "midi": 72,
      "hit": false,
      "t": 2941.175,
      "d": 196.07833333333338,
      "v": 93
    },
    {
      "midi": 53,
      "hit": false,
      "t": 3235.2925,
      "d": 196.07833333333338,
      "v": 93
    },
    {
      "midi": 60,
      "hit": false,
      "t": 3235.2925,
      "d": 196.07833333333338,
      "v": 93
    },
    {
      "midi": 65,
      "hit": false,
      "t": 3235.2925,
      "d": 196.07833333333338,
      "v": 93
    },
    {
      "midi": 55,
      "hit": false,
      "t": 3529.4100000000003,
      "d": 196.07833333333338,
      "v": 90
    },
    {
      "midi": 62,
      "hit": false,
      "t": 3529.4100000000003,
      "d": 196.07833333333338,
      "v": 90
    },
    {
      "midi": 67,
      "hit": false,
      "t": 3529.4100000000003,
      "d": 196.07833333333338,
      "v": 90
    },
    {
      "midi": 74,
      "hit": false,
      "t": 3529.4100000000003,
      "d": 294.11749999999984,
      "v": 87
    },
    {
      "midi": 79,
      "hit": false,
      "t": 3529.4100000000003,
      "d": 294.11749999999984,
      "v": 87
    },
    {
      "midi": 55,
      "hit": false,
      "t": 3823.5275,
      "d": 196.07833333333338,
      "v": 90
    },
    {
      "midi": 62,
      "hit": false,
      "t": 3823.5275,
      "d": 196.07833333333338,
      "v": 90
    },
    {
      "midi": 67,
      "hit": false,
      "t": 3823.5275,
      "d": 196.07833333333338,
      "v": 90
    },
    {
      "midi": 74,
      "hit": false,
      "t": 3970.5862500000003,
      "d": 98.03916666666646,
      "v": 87
    },
    {
      "midi": 79,
      "hit": false,
      "t": 3970.5862500000003,
      "d": 98.03916666666646,
      "v": 87
    },
    {
      "midi": 55,
      "hit": false,
      "t": 4117.645,
      "d": 196.07833333333292,
      "v": 93
    },
    {
      "midi": 62,
      "hit": false,
      "t": 4117.645,
      "d": 196.07833333333292,
      "v": 93
    },
    {
      "midi": 67,
      "hit": false,
      "t": 4117.645,
      "d": 196.07833333333292,
      "v": 93
    },
    {
      "midi": 74,
      "hit": false,
      "t": 4117.645,
      "d": 196.07833333333292,
      "v": 84
    },
    {
      "midi": 79,
      "hit": false,
      "t": 4117.645,
      "d": 196.07833333333292,
      "v": 84
    },
    {
      "midi": 55,
      "hit": false,
      "t": 4411.7625,
      "d": 196.07833333333292,
      "v": 93
    },
    {
      "midi": 62,
      "hit": false,
      "t": 4411.7625,
      "d": 196.07833333333292,
      "v": 93
    },
    {
      "midi": 67,
      "hit": false,
      "t": 4411.7625,
      "d": 196.07833333333292,
      "v": 93
    },
    {
      "midi": 74,
      "hit": false,
      "t": 4411.7625,
      "d": 294.1175000000003,
      "v": 84
    },
    {
      "midi": 79,
      "hit": false,
      "t": 4411.7625,
      "d": 294.1175000000003,
      "v": 84
    },
    {
      "midi": 55,
      "hit": false,
      "t": 4705.88,
      "d": 196.07833333333292,
      "v": 90
    },
    {
      "midi": 62,
      "hit": false,
      "t": 4705.88,
      "d": 196.07833333333292,
      "v": 90
    },
    {
      "midi": 67,
      "hit": false,
      "t": 4705.88,
      "d": 196.07833333333292,
      "v": 90
    },
    {
      "midi": 74,
      "hit": false,
      "t": 4852.93875,
      "d": 98.03916666666646,
      "v": 87
    },
    {
      "midi": 79,
      "hit": false,
      "t": 4852.93875,
      "d": 98.03916666666646,
      "v": 87
    },
    {
      "midi": 55,
      "hit": false,
      "t": 4999.9974999999995,
      "d": 196.07833333333292,
      "v": 90
    },
    {
      "midi": 62,
      "hit": false,
      "t": 4999.9974999999995,
      "d": 196.07833333333292,
      "v": 90
    },
    {
      "midi": 67,
      "hit": false,
      "t": 4999.9974999999995,
      "d": 196.07833333333292,
      "v": 90
    },
    {
      "midi": 74,
      "hit": false,
      "t": 4999.9975,
      "d": 196.07833333333292,
      "v": 87
    },
    {
      "midi": 79,
      "hit": false,
      "t": 4999.9975,
      "d": 196.07833333333292,
      "v": 87
    },
    {
      "midi": 55,
      "hit": false,
      "t": 5294.114999999999,
      "d": 196.07833333333292,
      "v": 90
    },
    {
      "midi": 62,
      "hit": false,
      "t": 5294.114999999999,
      "d": 196.07833333333292,
      "v": 90
    },
    {
      "midi": 67,
      "hit": false,
      "t": 5294.114999999999,
      "d": 196.07833333333292,
      "v": 90
    },
    {
      "midi": 74,
      "hit": false,
      "t": 5294.115,
      "d": 196.07833333333292,
      "v": 84
    },
    {
      "midi": 79,
      "hit": false,
      "t": 5294.115,
      "d": 196.07833333333292,
      "v": 84
    },
    {
      "midi": 58,
      "hit": false,
      "t": 6176.4675,
      "d": 196.07833333333292,
      "v": 93
    },
    {
      "midi": 65,
      "hit": false,
      "t": 6176.4675,
      "d": 196.07833333333292,
      "v": 93
    },
    {
      "midi": 70,
      "hit": false,
      "t": 6176.4675,
      "d": 196.07833333333292,
      "v": 93
    },
    {
      "midi": 58,
      "hit": false,
      "t": 6176.4675,
      "d": 196.07833333333292,
      "v": 87
    },
    {
      "midi": 65,
      "hit": false,
      "t": 6176.4675,
      "d": 196.07833333333292,
      "v": 87
    },
    {
      "midi": 70,
      "hit": false,
      "t": 6176.4675,
      "d": 196.07833333333292,
      "v": 87
    },
    {
      "midi": 60,
      "hit": false,
      "t": 6470.584999999999,
      "d": 196.07833333333292,
      "v": 93
    },
    {
      "midi": 67,
      "hit": false,
      "t": 6470.584999999999,
      "d": 196.07833333333292,
      "v": 93
    },
    {
      "midi": 72,
      "hit": false,
      "t": 6470.584999999999,
      "d": 196.07833333333292,
      "v": 93
    },
    {
      "midi": 60,
      "hit": false,
      "t": 6470.584999999999,
      "d": 196.07833333333292,
      "v": 84
    },
    {
      "midi": 67,
      "hit": false,
      "t": 6470.584999999999,
      "d": 196.07833333333292,
      "v": 84
    },
    {
      "midi": 72,
      "hit": false,
      "t": 6470.584999999999,
      "d": 196.07833333333292,
      "v": 84
    },
    {
      "midi": 53,
      "hit": false,
      "t": 6764.7024999999985,
      "d": 196.07833333333292,
      "v": 93
    },
    {
      "midi": 60,
      "hit": false,
      "t": 6764.7024999999985,
      "d": 196.07833333333292,
      "v": 93
    },
    {
      "midi": 65,
      "hit": false,
      "t": 6764.7024999999985,
      "d": 196.07833333333292,
      "v": 93
    },
    {
      "midi": 53,
      "hit": false,
      "t": 6764.702499999999,
      "d": 196.07833333333292,
      "v": 87
    },
    {
      "midi": 60,
      "hit": false,
      "t": 6764.702499999999,
      "d": 196.07833333333292,
      "v": 87
    },
    {
      "midi": 65,
      "hit": false,
      "t": 6764.702499999999,
      "d": 196.07833333333292,
      "v": 87
    },
    {
      "midi": 55,
      "hit": false,
      "t": 7058.819999999999,
      "d": 196.07833333333292,
      "v": 90
    },
    {
      "midi": 62,
      "hit": false,
      "t": 7058.819999999999,
      "d": 196.07833333333292,
      "v": 90
    },
    {
      "midi": 67,
      "hit": false,
      "t": 7058.819999999999,
      "d": 196.07833333333292,
      "v": 90
    },
    {
      "midi": 74,
      "hit": false,
      "t": 7058.819999999999,
      "d": 294.1175000000003,
      "v": 87
    },
    {
      "midi": 79,
      "hit": false,
      "t": 7058.819999999999,
      "d": 294.1175000000003,
      "v": 87
    },
    {
      "midi": 55,
      "hit": false,
      "t": 7352.937499999998,
      "d": 196.07833333333292,
      "v": 90
    },
    {
      "midi": 62,
      "hit": false,
      "t": 7352.937499999998,
      "d": 196.07833333333292,
      "v": 90
    },
    {
      "midi": 67,
      "hit": false,
      "t": 7352.937499999998,
      "d": 196.07833333333292,
      "v": 90
    },
    {
      "midi": 74,
      "hit": false,
      "t": 7499.996249999999,
      "d": 98.03916666666646,
      "v": 87
    },
    {
      "midi": 79,
      "hit": false,
      "t": 7499.996249999999,
      "d": 98.03916666666646,
      "v": 87
    },
    {
      "midi": 55,
      "hit": false,
      "t": 7647.0549999999985,
      "d": 196.07833333333292,
      "v": 93
    },
    {
      "midi": 62,
      "hit": false,
      "t": 7647.0549999999985,
      "d": 196.07833333333292,
      "v": 93
    },
    {
      "midi": 67,
      "hit": false,
      "t": 7647.0549999999985,
      "d": 196.07833333333292,
      "v": 93
    },
    {
      "midi": 74,
      "hit": false,
      "t": 7647.0549999999985,
      "d": 196.07833333333292,
      "v": 84
    },
    {
      "midi": 79,
      "hit": false,
      "t": 7647.0549999999985,
      "d": 196.07833333333292,
      "v": 84
    },
    {
      "midi": 55,
      "hit": false,
      "t": 7941.172499999998,
      "d": 196.07833333333292,
      "v": 93
    },
    {
      "midi": 62,
      "hit": false,
      "t": 7941.172499999998,
      "d": 196.07833333333292,
      "v": 93
    },
    {
      "midi": 67,
      "hit": false,
      "t": 7941.172499999998,
      "d": 196.07833333333292,
      "v": 93
    },
    {
      "midi": 74,
      "hit": false,
      "t": 7941.172499999998,
      "d": 294.1174999999994,
      "v": 84
    },
    {
      "midi": 79,
      "hit": false,
      "t": 7941.172499999998,
      "d": 294.1174999999994,
      "v": 84
    },
    {
      "midi": 55,
      "hit": false,
      "t": 8235.289999999997,
      "d": 196.07833333333292,
      "v": 90
    },
    {
      "midi": 62,
      "hit": false,
      "t": 8235.289999999997,
      "d": 196.07833333333292,
      "v": 90
    },
    {
      "midi": 67,
      "hit": false,
      "t": 8235.289999999997,
      "d": 196.07833333333292,
      "v": 90
    },
    {
      "midi": 74,
      "hit": false,
      "t": 8382.34875,
      "d": 98.03916666666737,
      "v": 87
    },
    {
      "midi": 79,
      "hit": false,
      "t": 8382.34875,
      "d": 98.03916666666737,
      "v": 87
    },
    {
      "midi": 55,
      "hit": false,
      "t": 8529.407499999998,
      "d": 196.07833333333292,
      "v": 90
    },
    {
      "midi": 62,
      "hit": false,
      "t": 8529.407499999998,
      "d": 196.07833333333292,
      "v": 90
    },
    {
      "midi": 67,
      "hit": false,
      "t": 8529.407499999998,
      "d": 196.07833333333292,
      "v": 90
    },
    {
      "midi": 74,
      "hit": false,
      "t": 8529.4075,
      "d": 196.07833333333292,
      "v": 87
    },
    {
      "midi": 79,
      "hit": false,
      "t": 8529.4075,
      "d": 196.07833333333292,
      "v": 87
    },
    {
      "midi": 55,
      "hit": false,
      "t": 8823.524999999998,
      "d": 196.07833333333292,
      "v": 90
    },
    {
      "midi": 62,
      "hit": false,
      "t": 8823.524999999998,
      "d": 196.07833333333292,
      "v": 90
    },
    {
      "midi": 67,
      "hit": false,
      "t": 8823.524999999998,
      "d": 196.07833333333292,
      "v": 90
    },
    {
      "midi": 74,
      "hit": false,
      "t": 8823.524999999998,
      "d": 196.07833333333292,
      "v": 84
    },
    {
      "midi": 79,
      "hit": false,
      "t": 8823.524999999998,
      "d": 196.07833333333292,
      "v": 84
    },
    {
      "midi": 58,
      "hit": false,
      "t": 9705.877499999997,
      "d": 196.07833333333292,
      "v": 93
    },
    {
      "midi": 65,
      "hit": false,
      "t": 9705.877499999997,
      "d": 196.07833333333292,
      "v": 93
    },
    {
      "midi": 70,
      "hit": false,
      "t": 9705.877499999997,
      "d": 196.07833333333292,
      "v": 93
    },
    {
      "midi": 58,
      "hit": false,
      "t": 9705.877499999999,
      "d": 196.07833333333292,
      "v": 87
    },
    {
      "midi": 65,
      "hit": false,
      "t": 9705.877499999999,
      "d": 196.07833333333292,
      "v": 87
    },
    {
      "midi": 70,
      "hit": false,
      "t": 9705.877499999999,
      "d": 196.07833333333292,
      "v": 87
    },
    {
      "midi": 60,
      "hit": false,
      "t": 9999.994999999997,
      "d": 196.07833333333292,
      "v": 93
    },
    {
      "midi": 67,
      "hit": false,
      "t": 9999.994999999997,
      "d": 196.07833333333292,
      "v": 93
    },
    {
      "midi": 72,
      "hit": false,
      "t": 9999.994999999997,
      "d": 196.07833333333292,
      "v": 93
    },
    {
      "midi": 60,
      "hit": false,
      "t": 9999.994999999997,
      "d": 196.07833333333292,
      "v": 84
    },
    {
      "midi": 67,
      "hit": false,
      "t": 9999.994999999997,
      "d": 196.07833333333292,
      "v": 84
    },
    {
      "midi": 72,
      "hit": false,
      "t": 9999.994999999997,
      "d": 196.07833333333292,
      "v": 84
    },
    {
      "midi": 53,
      "hit": false,
      "t": 10294.112499999997,
      "d": 196.07833333333292,
      "v": 93
    },
    {
      "midi": 60,
      "hit": false,
      "t": 10294.112499999997,
      "d": 196.07833333333292,
      "v": 93
    },
    {
      "midi": 65,
      "hit": false,
      "t": 10294.112499999997,
      "d": 196.07833333333292,
      "v": 93
    },
    {
      "midi": 53,
      "hit": false,
      "t": 10294.112499999997,
      "d": 196.07833333333292,
      "v": 87
    },
    {
      "midi": 60,
      "hit": false,
      "t": 10294.112499999997,
      "d": 196.07833333333292,
      "v": 87
    },
    {
      "midi": 65,
      "hit": false,
      "t": 10294.112499999997,
      "d": 196.07833333333292,
      "v": 87
    },
    {
      "midi": 55,
      "hit": false,
      "t": 10588.229999999998,
      "d": 196.07833333333292,
      "v": 90
    },
    {
      "midi": 62,
      "hit": false,
      "t": 10588.229999999998,
      "d": 196.07833333333292,
      "v": 90
    },
    {
      "midi": 67,
      "hit": false,
      "t": 10588.229999999998,
      "d": 196.07833333333292,
      "v": 90
    },
    {
      "midi": 74,
      "hit": false,
      "t": 10588.229999999998,
      "d": 294.1175000000003,
      "v": 87
    },
    {
      "midi": 79,
      "hit": false,
      "t": 10588.229999999998,
      "d": 294.1175000000003,
      "v": 87
    },
    {
      "midi": 55,
      "hit": false,
      "t": 10882.347499999998,
      "d": 196.07833333333292,
      "v": 90
    },
    {
      "midi": 62,
      "hit": false,
      "t": 10882.347499999998,
      "d": 196.07833333333292,
      "v": 90
    },
    {
      "midi": 67,
      "hit": false,
      "t": 10882.347499999998,
      "d": 196.07833333333292,
      "v": 90
    },
    {
      "midi": 74,
      "hit": false,
      "t": 11029.406249999998,
      "d": 98.03916666666737,
      "v": 87
    },
    {
      "midi": 79,
      "hit": false,
      "t": 11029.406249999998,
      "d": 98.03916666666737,
      "v": 87
    },
    {
      "midi": 55,
      "hit": false,
      "t": 11176.464999999997,
      "d": 196.07833333333292,
      "v": 93
    },
    {
      "midi": 62,
      "hit": false,
      "t": 11176.464999999997,
      "d": 196.07833333333292,
      "v": 93
    },
    {
      "midi": 67,
      "hit": false,
      "t": 11176.464999999997,
      "d": 196.07833333333292,
      "v": 93
    },
    {
      "midi": 74,
      "hit": false,
      "t": 11176.464999999997,
      "d": 196.07833333333292,
      "v": 84
    },
    {
      "midi": 79,
      "hit": false,
      "t": 11176.464999999997,
      "d": 196.07833333333292,
      "v": 84
    },
    {
      "midi": 55,
      "hit": false,
      "t": 11470.582499999997,
      "d": 196.07833333333292,
      "v": 93
    },
    {
      "midi": 62,
      "hit": false,
      "t": 11470.582499999997,
      "d": 196.07833333333292,
      "v": 93
    },
    {
      "midi": 67,
      "hit": false,
      "t": 11470.582499999997,
      "d": 196.07833333333292,
      "v": 93
    },
    {
      "midi": 74,
      "hit": false,
      "t": 11470.582499999997,
      "d": 294.1175000000003,
      "v": 84
    },
    {
      "midi": 79,
      "hit": false,
      "t": 11470.582499999997,
      "d": 294.1175000000003,
      "v": 84
    },
    {
      "midi": 55,
      "hit": false,
      "t": 11764.699999999997,
      "d": 196.07833333333292,
      "v": 90
    },
    {
      "midi": 62,
      "hit": false,
      "t": 11764.699999999997,
      "d": 196.07833333333292,
      "v": 90
    },
    {
      "midi": 67,
      "hit": false,
      "t": 11764.699999999997,
      "d": 196.07833333333292,
      "v": 90
    },
    {
      "midi": 74,
      "hit": false,
      "t": 11911.758749999999,
      "d": 98.03916666666737,
      "v": 87
    },
    {
      "midi": 79,
      "hit": false,
      "t": 11911.758749999999,
      "d": 98.03916666666737,
      "v": 87
    },
    {
      "midi": 55,
      "hit": false,
      "t": 12058.817499999997,
      "d": 196.07833333333292,
      "v": 90
    },
    {
      "midi": 62,
      "hit": false,
      "t": 12058.817499999997,
      "d": 196.07833333333292,
      "v": 90
    },
    {
      "midi": 67,
      "hit": false,
      "t": 12058.817499999997,
      "d": 196.07833333333292,
      "v": 90
    },
    {
      "midi": 74,
      "hit": false,
      "t": 12058.8175,
      "d": 196.07833333333292,
      "v": 87
    },
    {
      "midi": 79,
      "hit": false,
      "t": 12058.8175,
      "d": 196.07833333333292,
      "v": 87
    },
    {
      "midi": 55,
      "hit": false,
      "t": 12352.934999999998,
      "d": 196.07833333333292,
      "v": 90
    },
    {
      "midi": 62,
      "hit": false,
      "t": 12352.934999999998,
      "d": 196.07833333333292,
      "v": 90
    },
    {
      "midi": 67,
      "hit": false,
      "t": 12352.934999999998,
      "d": 196.07833333333292,
      "v": 90
    },
    {
      "midi": 74,
      "hit": false,
      "t": 12352.934999999998,
      "d": 196.07833333333292,
      "v": 84
    },
    {
      "midi": 79,
      "hit": false,
      "t": 12352.934999999998,
      "d": 196.07833333333292,
      "v": 84
    },
    {
      "midi": 58,
      "hit": false,
      "t": 13235.287499999997,
      "d": 196.07833333333292,
      "v": 93
    },
    {
      "midi": 65,
      "hit": false,
      "t": 13235.287499999997,
      "d": 196.07833333333292,
      "v": 93
    },
    {
      "midi": 70,
      "hit": false,
      "t": 13235.287499999997,
      "d": 196.07833333333292,
      "v": 93
    },
    {
      "midi": 58,
      "hit": false,
      "t": 13235.287499999999,
      "d": 196.07833333333292,
      "v": 87
    },
    {
      "midi": 65,
      "hit": false,
      "t": 13235.287499999999,
      "d": 196.07833333333292,
      "v": 87
    },
    {
      "midi": 70,
      "hit": false,
      "t": 13235.287499999999,
      "d": 196.07833333333292,
      "v": 87
    },
    {
      "midi": 60,
      "hit": false,
      "t": 13529.404999999997,
      "d": 196.07833333333292,
      "v": 93
    },
    {
      "midi": 67,
      "hit": false,
      "t": 13529.404999999997,
      "d": 196.07833333333292,
      "v": 93
    },
    {
      "midi": 72,
      "hit": false,
      "t": 13529.404999999997,
      "d": 196.07833333333292,
      "v": 93
    },
    {
      "midi": 60,
      "hit": false,
      "t": 13529.404999999997,
      "d": 196.07833333333292,
      "v": 84
    },
    {
      "midi": 67,
      "hit": false,
      "t": 13529.404999999997,
      "d": 196.07833333333292,
      "v": 84
    },
    {
      "midi": 72,
      "hit": false,
      "t": 13529.404999999997,
      "d": 196.07833333333292,
      "v": 84
    },
    {
      "midi": 53,
      "hit": false,
      "t": 13823.522499999997,
      "d": 196.07833333333292,
      "v": 93
    },
    {
      "midi": 60,
      "hit": false,
      "t": 13823.522499999997,
      "d": 196.07833333333292,
      "v": 93
    },
    {
      "midi": 65,
      "hit": false,
      "t": 13823.522499999997,
      "d": 196.07833333333292,
      "v": 93
    },
    {
      "midi": 53,
      "hit": false,
      "t": 13823.522499999997,
      "d": 196.07833333333292,
      "v": 87
    },
    {
      "midi": 60,
      "hit": false,
      "t": 13823.522499999997,
      "d": 196.07833333333292,
      "v": 87
    },
    {
      "midi": 65,
      "hit": false,
      "t": 13823.522499999997,
      "d": 196.07833333333292,
      "v": 87
    },
    {
      "midi": 74,
      "hit": false,
      "t": 14117.639999999996,
      "d": 294.1175000000003,
      "v": 84
    },
    {
      "midi": 79,
      "hit": false,
      "t": 14117.639999999996,
      "d": 294.1175000000003,
      "v": 84
    },
    {
      "midi": 55,
      "hit": false,
      "t": 14117.639999999998,
      "d": 196.07833333333292,
      "v": 90
    },
    {
      "midi": 62,
      "hit": false,
      "t": 14117.639999999998,
      "d": 196.07833333333292,
      "v": 90
    },
    {
      "midi": 67,
      "hit": false,
      "t": 14117.639999999998,
      "d": 196.07833333333292,
      "v": 90
    },
    {
      "midi": 55,
      "hit": false,
      "t": 14411.757499999998,
      "d": 196.07833333333292,
      "v": 90
    },
    {
      "midi": 62,
      "hit": false,
      "t": 14411.757499999998,
      "d": 196.07833333333292,
      "v": 90
    },
    {
      "midi": 67,
      "hit": false,
      "t": 14411.757499999998,
      "d": 196.07833333333292,
      "v": 90
    },
    {
      "midi": 74,
      "hit": false,
      "t": 14558.816249999996,
      "d": 98.03916666666737,
      "v": 84
    },
    {
      "midi": 79,
      "hit": false,
      "t": 14558.816249999996,
      "d": 98.03916666666737,
      "v": 84
    },
    {
      "midi": 55,
      "hit": false,
      "t": 14705.874999999996,
      "d": 196.07833333333292,
      "v": 93
    },
    {
      "midi": 62,
      "hit": false,
      "t": 14705.874999999996,
      "d": 196.07833333333292,
      "v": 93
    },
    {
      "midi": 67,
      "hit": false,
      "t": 14705.874999999996,
      "d": 196.07833333333292,
      "v": 93
    },
    {
      "midi": 74,
      "hit": false,
      "t": 14705.874999999996,
      "d": 98.03916666666737,
      "v": 87
    },
    {
      "midi": 79,
      "hit": false,
      "t": 14705.874999999996,
      "d": 98.03916666666737,
      "v": 87
    },
    {
      "midi": 74,
      "hit": false,
      "t": 14852.933749999997,
      "d": 98.03916666666737,
      "v": 87
    },
    {
      "midi": 79,
      "hit": false,
      "t": 14852.933749999997,
      "d": 98.03916666666737,
      "v": 87
    },
    {
      "midi": 55,
      "hit": false,
      "t": 14999.992499999997,
      "d": 196.07833333333292,
      "v": 93
    },
    {
      "midi": 62,
      "hit": false,
      "t": 14999.992499999997,
      "d": 196.07833333333292,
      "v": 93
    },
    {
      "midi": 67,
      "hit": false,
      "t": 14999.992499999997,
      "d": 196.07833333333292,
      "v": 93
    },
    {
      "midi": 74,
      "hit": false,
      "t": 14999.992499999997,
      "d": 392.15666666666584,
      "v": 84
    },
    {
      "midi": 79,
      "hit": false,
      "t": 14999.992499999997,
      "d": 392.15666666666584,
      "v": 84
    },
    {
      "midi": 55,
      "hit": false,
      "t": 15294.109999999997,
      "d": 196.07833333333292,
      "v": 90
    },
    {
      "midi": 62,
      "hit": false,
      "t": 15294.109999999997,
      "d": 196.07833333333292,
      "v": 90
    },
    {
      "midi": 67,
      "hit": false,
      "t": 15294.109999999997,
      "d": 196.07833333333292,
      "v": 90
    },
    {
      "midi": 74,
      "hit": false,
      "t": 15588.227499999995,
      "d": 196.07833333333292,
      "v": 84
    },
    {
      "midi": 79,
      "hit": false,
      "t": 15588.227499999995,
      "d": 196.07833333333292,
      "v": 84
    },
    {
      "midi": 55,
      "hit": false,
      "t": 15588.227499999997,
      "d": 196.07833333333292,
      "v": 90
    },
    {
      "midi": 62,
      "hit": false,
      "t": 15588.227499999997,
      "d": 196.07833333333292,
      "v": 90
    },
    {
      "midi": 67,
      "hit": false,
      "t": 15588.227499999997,
      "d": 196.07833333333292,
      "v": 90
    },
    {
      "midi": 58,
      "hit": false,
      "t": 15882.344999999996,
      "d": 196.07833333333292,
      "v": 93
    },
    {
      "midi": 65,
      "hit": false,
      "t": 15882.344999999996,
      "d": 196.07833333333292,
      "v": 93
    },
    {
      "midi": 70,
      "hit": false,
      "t": 15882.344999999996,
      "d": 196.07833333333292,
      "v": 93
    },
    {
      "midi": 77,
      "hit": false,
      "t": 15882.344999999998,
      "d": 294.1175000000003,
      "v": 87
    },
    {
      "midi": 82,
      "hit": false,
      "t": 15882.344999999998,
      "d": 294.1175000000003,
      "v": 87
    },
    {
      "midi": 58,
      "hit": false,
      "t": 16176.462499999996,
      "d": 196.07833333333292,
      "v": 93
    },
    {
      "midi": 65,
      "hit": false,
      "t": 16176.462499999996,
      "d": 196.07833333333292,
      "v": 93
    },
    {
      "midi": 70,
      "hit": false,
      "t": 16176.462499999996,
      "d": 196.07833333333292,
      "v": 93
    },
    {
      "midi": 77,
      "hit": false,
      "t": 16323.521249999998,
      "d": 98.03916666666555,
      "v": 87
    },
    {
      "midi": 82,
      "hit": false,
      "t": 16323.521249999998,
      "d": 98.03916666666555,
      "v": 87
    },
    {
      "midi": 77,
      "hit": false,
      "t": 16470.579999999994,
      "d": 196.07833333333474,
      "v": 84
    },
    {
      "midi": 82,
      "hit": false,
      "t": 16470.579999999994,
      "d": 196.07833333333474,
      "v": 84
    },
    {
      "midi": 58,
      "hit": false,
      "t": 16470.579999999998,
      "d": 196.07833333333474,
      "v": 90
    },
    {
      "midi": 65,
      "hit": false,
      "t": 16470.579999999998,
      "d": 196.07833333333474,
      "v": 90
    },
    {
      "midi": 70,
      "hit": false,
      "t": 16470.579999999998,
      "d": 196.07833333333474,
      "v": 90
    },
    {
      "midi": 77,
      "hit": false,
      "t": 16764.697499999995,
      "d": 588.2350000000006,
      "v": 84
    },
    {
      "midi": 82,
      "hit": false,
      "t": 16764.697499999995,
      "d": 588.2350000000006,
      "v": 84
    },
    {
      "midi": 58,
      "hit": false,
      "t": 16764.6975,
      "d": 196.07833333333474,
      "v": 90
    },
    {
      "midi": 65,
      "hit": false,
      "t": 16764.6975,
      "d": 196.07833333333474,
      "v": 90
    },
    {
      "midi": 70,
      "hit": false,
      "t": 16764.6975,
      "d": 196.07833333333474,
      "v": 90
    },
    {
      "midi": 58,
      "hit": false,
      "t": 17058.814999999995,
      "d": 196.07833333333474,
      "v": 93
    },
    {
      "midi": 65,
      "hit": false,
      "t": 17058.814999999995,
      "d": 196.07833333333474,
      "v": 93
    },
    {
      "midi": 70,
      "hit": false,
      "t": 17058.814999999995,
      "d": 196.07833333333474,
      "v": 93
    },
    {
      "midi": 58,
      "hit": false,
      "t": 17352.932499999995,
      "d": 196.07833333333474,
      "v": 93
    },
    {
      "midi": 65,
      "hit": false,
      "t": 17352.932499999995,
      "d": 196.07833333333474,
      "v": 93
    },
    {
      "midi": 70,
      "hit": false,
      "t": 17352.932499999995,
      "d": 196.07833333333474,
      "v": 93
    },
    {
      "midi": 57,
      "hit": false,
      "t": 17647.049999999996,
      "d": 196.07833333333474,
      "v": 93
    },
    {
      "midi": 57,
      "hit": false,
      "t": 17647.049999999996,
      "d": 196.07833333333474,
      "v": 84
    },
    {
      "midi": 64,
      "hit": false,
      "t": 17941.167499999996,
      "d": 196.07833333333474,
      "v": 93
    },
    {
      "midi": 64,
      "hit": false,
      "t": 17941.167499999996,
      "d": 196.07833333333474,
      "v": 84
    },
    {
      "midi": 69,
      "hit": false,
      "t": 18235.284999999996,
      "d": 196.07833333333474,
      "v": 87
    },
    {
      "midi": 69,
      "hit": false,
      "t": 18235.285,
      "d": 196.07833333333474,
      "v": 90
    },
    {
      "midi": 76,
      "hit": false,
      "t": 18529.402499999997,
      "d": 196.07833333333474,
      "v": 87
    },
    {
      "midi": 76,
      "hit": false,
      "t": 18529.4025,
      "d": 196.07833333333474,
      "v": 90
    },
    {
      "midi": 73,
      "hit": false,
      "t": 18823.519999999997,
      "d": 196.07833333333474,
      "v": 93
    },
    {
      "midi": 73,
      "hit": false,
      "t": 18823.519999999997,
      "d": 196.07833333333474,
      "v": 84
    },
    {
      "midi": 69,
      "hit": false,
      "t": 19117.637499999997,
      "d": 196.07833333333474,
      "v": 93
    },
    {
      "midi": 62,
      "hit": false,
      "t": 19117.637499999997,
      "d": 196.07833333333474,
      "v": 84
    },
    {
      "midi": 64,
      "hit": false,
      "t": 19411.754999999997,
      "d": 196.07833333333474,
      "v": 87
    },
    {
      "midi": 52,
      "hit": false,
      "t": 19411.755,
      "d": 196.07833333333474,
      "v": 90
    },
    {
      "midi": 71,
      "hit": false,
      "t": 19705.872499999998,
      "d": 196.07833333333474,
      "v": 87
    },
    {
      "midi": 64,
      "hit": false,
      "t": 19705.8725,
      "d": 196.07833333333474,
      "v": 90
    },
    {
      "midi": 68,
      "hit": false,
      "t": 19999.989999999998,
      "d": 196.07833333333474,
      "v": 93
    },
    {
      "midi": 71,
      "hit": false,
      "t": 19999.989999999998,
      "d": 196.07833333333474,
      "v": 84
    },
    {
      "midi": 76,
      "hit": false,
      "t": 20294.1075,
      "d": 196.07833333333474,
      "v": 93
    },
    {
      "midi": 76,
      "hit": false,
      "t": 20294.1075,
      "d": 196.07833333333474,
      "v": 84
    },
    {
      "midi": 71,
      "hit": false,
      "t": 20588.225,
      "d": 196.07833333333474,
      "v": 87
    },
    {
      "midi": 71,
      "hit": false,
      "t": 20588.225000000002,
      "d": 196.07833333333474,
      "v": 90
    },
    {
      "midi": 67,
      "hit": false,
      "t": 20882.3425,
      "d": 196.07833333333474,
      "v": 87
    },
    {
      "midi": 67,
      "hit": false,
      "t": 20882.342500000002,
      "d": 196.07833333333474,
      "v": 90
    },
    {
      "midi": 54,
      "hit": false,
      "t": 21176.46,
      "d": 196.07833333333474,
      "v": 93
    },
    {
      "midi": 54,
      "hit": false,
      "t": 21176.46,
      "d": 196.07833333333474,
      "v": 84
    },
    {
      "midi": 66,
      "hit": false,
      "t": 21470.5775,
      "d": 196.07833333333474,
      "v": 93
    },
    {
      "midi": 61,
      "hit": false,
      "t": 21470.5775,
      "d": 196.07833333333474,
      "v": 84
    },
    {
      "midi": 66,
      "hit": false,
      "t": 21764.695,
      "d": 196.07833333333474,
      "v": 87
    },
    {
      "midi": 69,
      "hit": false,
      "t": 21764.695000000003,
      "d": 196.07833333333474,
      "v": 90
    },
    {
      "midi": 73,
      "hit": false,
      "t": 22058.8125,
      "d": 196.07833333333474,
      "v": 87
    },
    {
      "midi": 73,
      "hit": false,
      "t": 22058.812500000004,
      "d": 196.07833333333474,
      "v": 90
    },
    {
      "midi": 69,
      "hit": false,
      "t": 22352.93,
      "d": 196.07833333333474,
      "v": 93
    },
    {
      "midi": 69,
      "hit": false,
      "t": 22352.93,
      "d": 196.07833333333474,
      "v": 84
    },
    {
      "midi": 66,
      "hit": false,
      "t": 22647.0475,
      "d": 196.07833333333474,
      "v": 93
    },
    {
      "midi": 78,
      "hit": false,
      "t": 22647.0475,
      "d": 196.07833333333474,
      "v": 84
    },
    {
      "midi": 61,
      "hit": false,
      "t": 22941.165,
      "d": 196.07833333333474,
      "v": 87
    },
    {
      "midi": 61,
      "hit": false,
      "t": 22941.165000000005,
      "d": 196.07833333333474,
      "v": 90
    },
    {
      "midi": 68,
      "hit": false,
      "t": 23235.2825,
      "d": 196.07833333333474,
      "v": 87
    },
    {
      "midi": 68,
      "hit": false,
      "t": 23235.282500000005,
      "d": 196.07833333333474,
      "v": 90
    },
    {
      "midi": 73,
      "hit": false,
      "t": 23529.4,
      "d": 196.07833333333474,
      "v": 93
    },
    {
      "midi": 73,
      "hit": false,
      "t": 23529.4,
      "d": 196.07833333333474,
      "v": 84
    },
    {
      "midi": 76,
      "hit": false,
      "t": 23823.5175,
      "d": 196.07833333333474,
      "v": 93
    },
    {
      "midi": 76,
      "hit": false,
      "t": 23823.5175,
      "d": 196.07833333333474,
      "v": 84
    },
    {
      "midi": 73,
      "hit": false,
      "t": 24117.635000000002,
      "d": 196.07833333333474,
      "v": 87
    },
    {
      "midi": 73,
      "hit": false,
      "t": 24117.635000000006,
      "d": 196.07833333333474,
      "v": 90
    },
    {
      "midi": 80,
      "hit": false,
      "t": 24411.752500000002,
      "d": 196.07833333333474,
      "v": 87
    },
    {
      "midi": 68,
      "hit": false,
      "t": 24411.752500000006,
      "d": 196.07833333333474,
      "v": 90
    },
    {
      "midi": 62,
      "hit": false,
      "t": 24705.870000000003,
      "d": 196.07833333333474,
      "v": 93
    },
    {
      "midi": 62,
      "hit": false,
      "t": 24705.870000000003,
      "d": 196.07833333333474,
      "v": 84
    },
    {
      "midi": 69,
      "hit": false,
      "t": 24999.987500000003,
      "d": 196.07833333333474,
      "v": 93
    },
    {
      "midi": 69,
      "hit": false,
      "t": 24999.987500000003,
      "d": 196.07833333333474,
      "v": 84
    },
    {
      "midi": 74,
      "hit": false,
      "t": 25294.105000000003,
      "d": 196.07833333333474,
      "v": 87
    },
    {
      "midi": 74,
      "hit": false,
      "t": 25294.105000000007,
      "d": 196.07833333333474,
      "v": 90
    },
    {
      "midi": 78,
      "hit": false,
      "t": 25588.222500000003,
      "d": 196.07833333333474,
      "v": 87
    },
    {
      "midi": 78,
      "hit": false,
      "t": 25588.222500000007,
      "d": 196.07833333333474,
      "v": 90
    },
    {
      "midi": 74,
      "hit": false,
      "t": 25882.340000000004,
      "d": 196.07833333333474,
      "v": 93
    },
    {
      "midi": 74,
      "hit": false,
      "t": 25882.340000000004,
      "d": 196.07833333333474,
      "v": 84
    },
    {
      "midi": 69,
      "hit": false,
      "t": 26176.457500000004,
      "d": 196.07833333333474,
      "v": 93
    },
    {
      "midi": 68,
      "hit": false,
      "t": 26176.457500000004,
      "d": 196.07833333333474,
      "v": 84
    },
    {
      "midi": 57,
      "hit": false,
      "t": 26470.575000000004,
      "d": 196.07833333333474,
      "v": 87
    },
    {
      "midi": 57,
      "hit": false,
      "t": 26470.575000000008,
      "d": 196.07833333333474,
      "v": 90
    },
    {
      "midi": 64,
      "hit": false,
      "t": 26764.692500000005,
      "d": 196.07833333333474,
      "v": 87
    },
    {
      "midi": 69,
      "hit": false,
      "t": 26764.69250000001,
      "d": 196.07833333333474,
      "v": 90
    },
    {
      "midi": 73,
      "hit": false,
      "t": 27058.810000000005,
      "d": 196.07833333333474,
      "v": 93
    },
    {
      "midi": 69,
      "hit": false,
      "t": 27058.810000000005,
      "d": 196.07833333333474,
      "v": 84
    },
    {
      "midi": 76,
      "hit": false,
      "t": 27352.927500000005,
      "d": 196.07833333333474,
      "v": 93
    },
    {
      "midi": 76,
      "hit": false,
      "t": 27352.927500000005,
      "d": 196.07833333333474,
      "v": 84
    },
    {
      "midi": 69,
      "hit": false,
      "t": 27647.045000000006,
      "d": 196.07833333333474,
      "v": 87
    },
    {
      "midi": 73,
      "hit": false,
      "t": 27647.04500000001,
      "d": 196.07833333333474,
      "v": 90
    },
    {
      "midi": 64,
      "hit": false,
      "t": 27941.162500000006,
      "d": 196.07833333333474,
      "v": 87
    },
    {
      "midi": 67,
      "hit": false,
      "t": 27941.16250000001,
      "d": 196.07833333333474,
      "v": 90
    },
    {
      "midi": 52,
      "hit": false,
      "t": 28235.280000000006,
      "d": 196.07833333333474,
      "v": 93
    },
    {
      "midi": 64,
      "hit": false,
      "t": 28235.280000000006,
      "d": 196.07833333333474,
      "v": 84
    },
    {
      "midi": 64,
      "hit": false,
      "t": 28529.397500000006,
      "d": 196.07833333333474,
      "v": 93
    },
    {
      "midi": 71,
      "hit": false,
      "t": 28529.397500000006,
      "d": 196.07833333333474,
      "v": 84
    },
    {
      "midi": 71,
      "hit": false,
      "t": 28823.515000000007,
      "d": 196.07833333333474,
      "v": 87
    },
    {
      "midi": 68,
      "hit": false,
      "t": 28823.51500000001,
      "d": 196.07833333333474,
      "v": 90
    },
    {
      "midi": 76,
      "hit": false,
      "t": 29117.632500000007,
      "d": 196.07833333333474,
      "v": 87
    },
    {
      "midi": 76,
      "hit": false,
      "t": 29117.63250000001,
      "d": 196.07833333333474,
      "v": 90
    },
    {
      "midi": 71,
      "hit": false,
      "t": 29411.750000000007,
      "d": 196.07833333333474,
      "v": 93
    },
    {
      "midi": 71,
      "hit": false,
      "t": 29411.750000000007,
      "d": 196.07833333333474,
      "v": 84
    },
    {
      "midi": 68,
      "hit": false,
      "t": 29705.867500000008,
      "d": 196.07833333333474,
      "v": 93
    },
    {
      "midi": 71,
      "hit": false,
      "t": 29705.867500000008,
      "d": 196.07833333333474,
      "v": 84
    },
    {
      "midi": 52,
      "hit": false,
      "t": 29999.985000000008,
      "d": 196.07833333333474,
      "v": 87
    },
    {
      "midi": 52,
      "hit": false,
      "t": 29999.98500000001,
      "d": 196.07833333333474,
      "v": 90
    },
    {
      "midi": 71,
      "hit": false,
      "t": 30294.102500000008,
      "d": 196.07833333333474,
      "v": 87
    },
    {
      "midi": 64,
      "hit": false,
      "t": 30294.10250000001,
      "d": 196.07833333333474,
      "v": 90
    },
    {
      "midi": 68,
      "hit": false,
      "t": 30588.22000000001,
      "d": 196.07833333333474,
      "v": 93
    },
    {
      "midi": 71,
      "hit": false,
      "t": 30588.22000000001,
      "d": 196.07833333333474,
      "v": 84
    },
    {
      "midi": 76,
      "hit": false,
      "t": 30882.33750000001,
      "d": 196.07833333333474,
      "v": 93
    },
    {
      "midi": 76,
      "hit": false,
      "t": 30882.33750000001,
      "d": 196.07833333333474,
      "v": 84
    },
    {
      "midi": 71,
      "hit": false,
      "t": 31176.45500000001,
      "d": 196.07833333333474,
      "v": 87
    },
    {
      "midi": 71,
      "hit": false,
      "t": 31176.455000000013,
      "d": 196.07833333333474,
      "v": 90
    },
    {
      "midi": 67,
      "hit": false,
      "t": 31470.57250000001,
      "d": 196.07833333333474,
      "v": 87
    },
    {
      "midi": 67,
      "hit": false,
      "t": 31470.572500000013,
      "d": 196.07833333333474,
      "v": 90
    },
    {
      "midi": 57,
      "hit": false,
      "t": 31764.69000000001,
      "d": 196.07833333333474,
      "v": 93
    },
    {
      "midi": 57,
      "hit": false,
      "t": 31764.69000000001,
      "d": 196.07833333333474,
      "v": 84
    },
    {
      "midi": 64,
      "hit": false,
      "t": 32058.80750000001,
      "d": 196.07833333333474,
      "v": 93
    },
    {
      "midi": 64,
      "hit": false,
      "t": 32058.80750000001,
      "d": 196.07833333333474,
      "v": 84
    },
    {
      "midi": 69,
      "hit": false,
      "t": 32352.92500000001,
      "d": 196.07833333333474,
      "v": 87
    },
    {
      "midi": 69,
      "hit": false,
      "t": 32352.925000000014,
      "d": 196.07833333333474,
      "v": 90
    },
    {
      "midi": 76,
      "hit": false,
      "t": 32647.04250000001,
      "d": 196.0783333333311,
      "v": 87
    },
    {
      "midi": 76,
      "hit": false,
      "t": 32647.042500000014,
      "d": 196.07833333333474,
      "v": 90
    },
    {
      "midi": 73,
      "hit": false,
      "t": 32941.16000000001,
      "d": 196.0783333333311,
      "v": 93
    },
    {
      "midi": 73,
      "hit": false,
      "t": 32941.16000000001,
      "d": 196.0783333333311,
      "v": 84
    },
    {
      "midi": 69,
      "hit": false,
      "t": 33235.27750000001,
      "d": 196.0783333333311,
      "v": 93
    },
    {
      "midi": 62,
      "hit": false,
      "t": 33235.27750000001,
      "d": 196.0783333333311,
      "v": 84
    },
    {
      "midi": 64,
      "hit": false,
      "t": 33529.39500000001,
      "d": 196.0783333333311,
      "v": 87
    },
    {
      "midi": 52,
      "hit": false,
      "t": 33529.39500000002,
      "d": 196.0783333333311,
      "v": 90
    },
    {
      "midi": 71,
      "hit": false,
      "t": 33823.51250000001,
      "d": 196.0783333333311,
      "v": 87
    },
    {
      "midi": 64,
      "hit": false,
      "t": 33823.51250000002,
      "d": 196.0783333333311,
      "v": 90
    },
    {
      "midi": 68,
      "hit": false,
      "t": 34117.63000000001,
      "d": 196.0783333333311,
      "v": 93
    },
    {
      "midi": 71,
      "hit": false,
      "t": 34117.63000000001,
      "d": 196.0783333333311,
      "v": 84
    },
    {
      "midi": 76,
      "hit": false,
      "t": 34411.74750000001,
      "d": 196.0783333333311,
      "v": 93
    },
    {
      "midi": 76,
      "hit": false,
      "t": 34411.74750000001,
      "d": 196.0783333333311,
      "v": 84
    },
    {
      "midi": 71,
      "hit": false,
      "t": 34705.86500000001,
      "d": 196.0783333333311,
      "v": 87
    },
    {
      "midi": 71,
      "hit": false,
      "t": 34705.86500000002,
      "d": 196.0783333333311,
      "v": 90
    },
    {
      "midi": 67,
      "hit": false,
      "t": 34999.98250000001,
      "d": 196.0783333333311,
      "v": 87
    },
    {
      "midi": 67,
      "hit": false,
      "t": 34999.98250000002,
      "d": 196.0783333333311,
      "v": 90
    },
    {
      "midi": 54,
      "hit": false,
      "t": 35294.10000000001,
      "d": 196.0783333333311,
      "v": 93
    },
    {
      "midi": 66,
      "hit": false,
      "t": 35588.21750000001,
      "d": 196.0783333333311,
      "v": 93
    },
    {
      "midi": 61,
      "hit": false,
      "t": 35588.21750000001,
      "d": 196.0783333333311,
      "v": 84
    },
    {
      "midi": 66,
      "hit": false,
      "t": 35882.335000000014,
      "d": 196.0783333333311,
      "v": 87
    },
    {
      "midi": 69,
      "hit": false,
      "t": 35882.33500000002,
      "d": 196.0783333333311,
      "v": 90
    },
    {
      "midi": 73,
      "hit": false,
      "t": 36176.452500000014,
      "d": 196.0783333333311,
      "v": 87
    },
    {
      "midi": 73,
      "hit": false,
      "t": 36176.45250000002,
      "d": 196.0783333333311,
      "v": 90
    },
    {
      "midi": 69,
      "hit": false,
      "t": 36470.570000000014,
      "d": 196.0783333333311,
      "v": 93
    },
    {
      "midi": 69,
      "hit": false,
      "t": 36470.570000000014,
      "d": 196.0783333333311,
      "v": 84
    },
    {
      "midi": 66,
      "hit": false,
      "t": 36764.687500000015,
      "d": 196.0783333333311,
      "v": 93
    },
    {
      "midi": 78,
      "hit": false,
      "t": 36764.687500000015,
      "d": 196.0783333333311,
      "v": 84
    },
    {
      "midi": 61,
      "hit": false,
      "t": 37058.805000000015,
      "d": 196.0783333333311,
      "v": 87
    },
    {
      "midi": 61,
      "hit": false,
      "t": 37058.80500000002,
      "d": 196.0783333333311,
      "v": 90
    },
    {
      "midi": 68,
      "hit": false,
      "t": 37352.922500000015,
      "d": 196.0783333333311,
      "v": 87
    },
    {
      "midi": 68,
      "hit": false,
      "t": 37352.92250000002,
      "d": 196.0783333333311,
      "v": 90
    },
    {
      "midi": 73,
      "hit": false,
      "t": 37647.040000000015,
      "d": 196.0783333333311,
      "v": 93
    },
    {
      "midi": 73,
      "hit": false,
      "t": 37647.040000000015,
      "d": 196.0783333333311,
      "v": 84
    },
    {
      "midi": 76,
      "hit": false,
      "t": 37941.157500000016,
      "d": 196.0783333333311,
      "v": 93
    },
    {
      "midi": 76,
      "hit": false,
      "t": 37941.157500000016,
      "d": 196.0783333333311,
      "v": 84
    },
    {
      "midi": 73,
      "hit": false,
      "t": 38235.275000000016,
      "d": 196.0783333333311,
      "v": 87
    },
    {
      "midi": 73,
      "hit": false,
      "t": 38235.27500000002,
      "d": 196.0783333333311,
      "v": 90
    },
    {
      "midi": 80,
      "hit": false,
      "t": 38529.392500000016,
      "d": 196.0783333333311,
      "v": 87
    },
    {
      "midi": 68,
      "hit": false,
      "t": 38529.39250000002,
      "d": 196.0783333333311,
      "v": 90
    },
    {
      "midi": 62,
      "hit": false,
      "t": 38823.51000000002,
      "d": 196.0783333333311,
      "v": 93
    },
    {
      "midi": 62,
      "hit": false,
      "t": 38823.51000000002,
      "d": 196.0783333333311,
      "v": 84
    },
    {
      "midi": 69,
      "hit": false,
      "t": 39117.62750000002,
      "d": 196.0783333333311,
      "v": 93
    },
    {
      "midi": 69,
      "hit": false,
      "t": 39117.62750000002,
      "d": 196.0783333333311,
      "v": 84
    },
    {
      "midi": 74,
      "hit": false,
      "t": 39411.74500000002,
      "d": 196.0783333333311,
      "v": 87
    },
    {
      "midi": 74,
      "hit": false,
      "t": 39411.745000000024,
      "d": 196.0783333333311,
      "v": 90
    },
    {
      "midi": 78,
      "hit": false,
      "t": 39705.86250000002,
      "d": 196.0783333333311,
      "v": 87
    },
    {
      "midi": 78,
      "hit": false,
      "t": 39705.862500000025,
      "d": 196.0783333333311,
      "v": 90
    },
    {
      "midi": 74,
      "hit": false,
      "t": 39999.98000000002,
      "d": 196.0783333333311,
      "v": 93
    },
    {
      "midi": 74,
      "hit": false,
      "t": 39999.98000000002,
      "d": 196.0783333333311,
      "v": 84
    },
    {
      "midi": 69,
      "hit": false,
      "t": 40294.09750000002,
      "d": 196.0783333333311,
      "v": 93
    },
    {
      "midi": 67,
      "hit": false,
      "t": 40294.09750000002,
      "d": 196.0783333333311,
      "v": 84
    },
    {
      "midi": 57,
      "hit": false,
      "t": 40588.21500000002,
      "d": 196.0783333333311,
      "v": 87
    },
    {
      "midi": 57,
      "hit": false,
      "t": 40588.215000000026,
      "d": 196.0783333333311,
      "v": 90
    },
    {
      "midi": 64,
      "hit": false,
      "t": 40882.33250000002,
      "d": 196.0783333333311,
      "v": 87
    },
    {
      "midi": 69,
      "hit": false,
      "t": 40882.332500000026,
      "d": 196.0783333333311,
      "v": 90
    },
    {
      "midi": 73,
      "hit": false,
      "t": 41176.45000000002,
      "d": 196.0783333333311,
      "v": 93
    },
    {
      "midi": 69,
      "hit": false,
      "t": 41176.45000000002,
      "d": 196.0783333333311,
      "v": 84
    },
    {
      "midi": 76,
      "hit": false,
      "t": 41470.56750000002,
      "d": 196.0783333333311,
      "v": 93
    },
    {
      "midi": 76,
      "hit": false,
      "t": 41470.56750000002,
      "d": 196.0783333333311,
      "v": 84
    },
    {
      "midi": 69,
      "hit": false,
      "t": 41764.68500000002,
      "d": 196.0783333333311,
      "v": 87
    },
    {
      "midi": 73,
      "hit": false,
      "t": 41764.68500000003,
      "d": 196.0783333333311,
      "v": 90
    },
    {
      "midi": 64,
      "hit": false,
      "t": 42058.80250000002,
      "d": 196.0783333333311,
      "v": 87
    },
    {
      "midi": 67,
      "hit": false,
      "t": 42058.80250000003,
      "d": 196.0783333333311,
      "v": 90
    },
    {
      "midi": 52,
      "hit": false,
      "t": 42352.92000000002,
      "d": 196.0783333333311,
      "v": 93
    },
    {
      "midi": 59,
      "hit": false,
      "t": 42352.92000000002,
      "d": 1574.754114583331,
      "v": 87
    },
    {
      "midi": 64,
      "hit": false,
      "t": 42352.92000000002,
      "d": 196.0783333333311,
      "v": 84
    },
    {
      "midi": 80,
      "hit": false,
      "t": 42352.92000000002,
      "d": 1574.7541145833384,
      "v": 84
    },
    {
      "midi": 64,
      "hit": false,
      "t": 42647.03750000002,
      "d": 196.0783333333311,
      "v": 93
    },
    {
      "midi": 71,
      "hit": false,
      "t": 42647.03750000002,
      "d": 196.0783333333311,
      "v": 84
    },
    {
      "midi": 71,
      "hit": false,
      "t": 42941.15500000002,
      "d": 196.0783333333311,
      "v": 87
    },
    {
      "midi": 68,
      "hit": false,
      "t": 42941.15500000003,
      "d": 196.0783333333311,
      "v": 90
    },
    {
      "midi": 76,
      "hit": false,
      "t": 43235.27250000002,
      "d": 196.0783333333311,
      "v": 87
    },
    {
      "midi": 76,
      "hit": false,
      "t": 43235.27250000003,
      "d": 196.0783333333311,
      "v": 90
    },
    {
      "midi": 71,
      "hit": false,
      "t": 43529.39000000002,
      "d": 196.0783333333311,
      "v": 93
    },
    {
      "midi": 71,
      "hit": false,
      "t": 43529.39000000002,
      "d": 196.0783333333311,
      "v": 84
    },
    {
      "midi": 68,
      "hit": false,
      "t": 43823.50750000002,
      "d": 196.0783333333311,
      "v": 93
    },
    {
      "midi": 71,
      "hit": false,
      "t": 43823.50750000002,
      "d": 196.07833333333838,
      "v": 84
    },
    {
      "midi": 69,
      "hit": false,
      "t": 44117.625000000015,
      "d": 196.0783333333311,
      "v": 87
    },
    {
      "midi": 52,
      "hit": false,
      "t": 44117.62500000003,
      "d": 196.0783333333311,
      "v": 90
    },
    {
      "midi": 71,
      "hit": false,
      "t": 44411.742500000015,
      "d": 196.0783333333311,
      "v": 87
    },
    {
      "midi": 64,
      "hit": false,
      "t": 44411.74250000003,
      "d": 196.0783333333311,
      "v": 90
    },
    {
      "midi": 68,
      "hit": false,
      "t": 44705.86000000002,
      "d": 196.0783333333311,
      "v": 93
    },
    {
      "midi": 68,
      "hit": false,
      "t": 44705.86000000003,
      "d": 196.0783333333311,
      "v": 84
    },
    {
      "midi": 76,
      "hit": false,
      "t": 44999.97750000002,
      "d": 196.0783333333311,
      "v": 93
    },
    {
      "midi": 68,
      "hit": false,
      "t": 44999.97750000003,
      "d": 196.0783333333311,
      "v": 84
    },
    {
      "midi": 76,
      "hit": false,
      "t": 45294.095000000016,
      "d": 196.0783333333311,
      "v": 87
    },
    {
      "midi": 71,
      "hit": false,
      "t": 45294.09500000003,
      "d": 196.0783333333311,
      "v": 90
    },
    {
      "midi": 71,
      "hit": false,
      "t": 45588.212500000016,
      "d": 196.0783333333311,
      "v": 87
    },
    {
      "midi": 67,
      "hit": false,
      "t": 45588.21250000003,
      "d": 196.0783333333311,
      "v": 90
    },
    {
      "midi": 55,
      "hit": false,
      "t": 45882.330000000016,
      "d": 392.1566666666695,
      "v": 87
    },
    {
      "midi": 62,
      "hit": false,
      "t": 45882.330000000016,
      "d": 392.1566666666695,
      "v": 87
    },
    {
      "midi": 55,
      "hit": false,
      "t": 45882.33000000002,
      "d": 196.0783333333311,
      "v": 93
    },
    {
      "midi": 62,
      "hit": false,
      "t": 46176.447500000024,
      "d": 196.0783333333311,
      "v": 93
    },
    {
      "midi": 67,
      "hit": false,
      "t": 46470.56500000003,
      "d": 196.0783333333311,
      "v": 90
    },
    {
      "midi": 56,
      "hit": false,
      "t": 46470.56500000003,
      "d": 196.0783333333311,
      "v": 84
    },
    {
      "midi": 62,
      "hit": false,
      "t": 46470.56500000003,
      "d": 196.0783333333311,
      "v": 84
    },
    {
      "midi": 79,
      "hit": false,
      "t": 46764.68250000003,
      "d": 196.0783333333311,
      "v": 90
    },
    {
      "midi": 58,
      "hit": false,
      "t": 46764.68250000003,
      "d": 196.0783333333311,
      "v": 84
    },
    {
      "midi": 74,
      "hit": false,
      "t": 47058.800000000025,
      "d": 196.0783333333311,
      "v": 93
    },
    {
      "midi": 59,
      "hit": false,
      "t": 47058.80000000003,
      "d": 196.0783333333311,
      "v": 84
    },
    {
      "midi": 62,
      "hit": false,
      "t": 47352.91750000002,
      "d": 196.0783333333311,
      "v": 87
    },
    {
      "midi": 67,
      "hit": false,
      "t": 47352.917500000025,
      "d": 196.0783333333311,
      "v": 93
    },
    {
      "midi": 62,
      "hit": false,
      "t": 47647.03500000002,
      "d": 392.1566666666695,
      "v": 87
    },
    {
      "midi": 69,
      "hit": false,
      "t": 47647.03500000002,
      "d": 392.1566666666695,
      "v": 87
    },
    {
      "midi": 62,
      "hit": false,
      "t": 47647.03500000003,
      "d": 196.0783333333311,
      "v": 90
    },
    {
      "midi": 69,
      "hit": false,
      "t": 47941.15250000003,
      "d": 196.0783333333311,
      "v": 90
    },
    {
      "midi": 74,
      "hit": false,
      "t": 48235.270000000026,
      "d": 196.0783333333311,
      "v": 93
    },
    {
      "midi": 62,
      "hit": false,
      "t": 48235.27000000003,
      "d": 196.0783333333311,
      "v": 84
    },
    {
      "midi": 69,
      "hit": false,
      "t": 48235.27000000003,
      "d": 196.0783333333311,
      "v": 84
    },
    {
      "midi": 65,
      "hit": false,
      "t": 48529.38750000002,
      "d": 196.0783333333311,
      "v": 87
    },
    {
      "midi": 69,
      "hit": false,
      "t": 48529.38750000002,
      "d": 196.0783333333311,
      "v": 87
    },
    {
      "midi": 78,
      "hit": false,
      "t": 48529.387500000026,
      "d": 196.0783333333311,
      "v": 93
    },
    {
      "midi": 66,
      "hit": false,
      "t": 48823.50500000002,
      "d": 196.0783333333311,
      "v": 87
    },
    {
      "midi": 74,
      "hit": false,
      "t": 48823.505000000034,
      "d": 196.0783333333311,
      "v": 90
    },
    {
      "midi": 67,
      "hit": false,
      "t": 49117.622500000034,
      "d": 196.0783333333311,
      "v": 90
    },
    {
      "midi": 69,
      "hit": false,
      "t": 49117.622500000034,
      "d": 196.0783333333311,
      "v": 84
    },
    {
      "midi": 74,
      "hit": false,
      "t": 49117.622500000034,
      "d": 196.0783333333311,
      "v": 84
    },
    {
      "midi": 55,
      "hit": false,
      "t": 49411.74000000002,
      "d": 392.1566666666695,
      "v": 87
    },
    {
      "midi": 62,
      "hit": false,
      "t": 49411.74000000002,
      "d": 392.1566666666695,
      "v": 87
    },
    {
      "midi": 55,
      "hit": false,
      "t": 49411.74000000003,
      "d": 196.0783333333311,
      "v": 93
    },
    {
      "midi": 62,
      "hit": false,
      "t": 49705.85750000003,
      "d": 196.0783333333311,
      "v": 93
    },
    {
      "midi": 67,
      "hit": false,
      "t": 49999.975000000035,
      "d": 196.0783333333311,
      "v": 90
    },
    {
      "midi": 56,
      "hit": false,
      "t": 49999.975000000035,
      "d": 196.0783333333311,
      "v": 84
    },
    {
      "midi": 62,
      "hit": false,
      "t": 49999.975000000035,
      "d": 196.0783333333311,
      "v": 84
    },
    {
      "midi": 79,
      "hit": false,
      "t": 50294.092500000035,
      "d": 196.0783333333311,
      "v": 90
    },
    {
      "midi": 58,
      "hit": false,
      "t": 50294.092500000035,
      "d": 196.0783333333311,
      "v": 84
    },
    {
      "midi": 74,
      "hit": false,
      "t": 50588.21000000003,
      "d": 196.0783333333311,
      "v": 93
    },
    {
      "midi": 59,
      "hit": false,
      "t": 50588.210000000036,
      "d": 196.0783333333311,
      "v": 84
    },
    {
      "midi": 62,
      "hit": false,
      "t": 50882.32750000002,
      "d": 196.0783333333311,
      "v": 87
    },
    {
      "midi": 67,
      "hit": false,
      "t": 50882.32750000003,
      "d": 196.0783333333311,
      "v": 93
    },
    {
      "midi": 62,
      "hit": false,
      "t": 51176.44500000002,
      "d": 392.1566666666695,
      "v": 87
    },
    {
      "midi": 69,
      "hit": false,
      "t": 51176.44500000002,
      "d": 392.1566666666695,
      "v": 87
    },
    {
      "midi": 62,
      "hit": false,
      "t": 51176.445000000036,
      "d": 196.0783333333311,
      "v": 90
    },
    {
      "midi": 69,
      "hit": false,
      "t": 51470.56250000004,
      "d": 196.0783333333311,
      "v": 90
    },
    {
      "midi": 74,
      "hit": false,
      "t": 51764.68000000003,
      "d": 196.0783333333311,
      "v": 93
    },
    {
      "midi": 62,
      "hit": false,
      "t": 51764.68000000004,
      "d": 196.0783333333311,
      "v": 84
    },
    {
      "midi": 69,
      "hit": false,
      "t": 51764.68000000004,
      "d": 196.0783333333311,
      "v": 84
    },
    {
      "midi": 65,
      "hit": false,
      "t": 52058.79750000002,
      "d": 196.0783333333311,
      "v": 87
    },
    {
      "midi": 69,
      "hit": false,
      "t": 52058.79750000002,
      "d": 196.0783333333311,
      "v": 87
    },
    {
      "midi": 78,
      "hit": false,
      "t": 52058.79750000003,
      "d": 196.0783333333311,
      "v": 93
    },
    {
      "midi": 66,
      "hit": false,
      "t": 52352.91500000002,
      "d": 196.0783333333311,
      "v": 87
    },
    {
      "midi": 74,
      "hit": false,
      "t": 52352.91500000004,
      "d": 196.0783333333311,
      "v": 90
    },
    {
      "midi": 67,
      "hit": false,
      "t": 52647.03250000004,
      "d": 196.0783333333311,
      "v": 90
    },
    {
      "midi": 69,
      "hit": false,
      "t": 52647.03250000004,
      "d": 196.0783333333311,
      "v": 84
    },
    {
      "midi": 74,
      "hit": false,
      "t": 52647.03250000004,
      "d": 196.0783333333311,
      "v": 84
    },
    {
      "midi": 60,
      "hit": false,
      "t": 52941.15000000002,
      "d": 196.0783333333311,
      "v": 87
    },
    {
      "midi": 67,
      "hit": false,
      "t": 52941.15000000002,
      "d": 196.0783333333311,
      "v": 87
    },
    {
      "midi": 60,
      "hit": false,
      "t": 52941.15000000003,
      "d": 196.0783333333311,
      "v": 93
    },
    {
      "midi": 63,
      "hit": false,
      "t": 53235.26750000002,
      "d": 196.0783333333311,
      "v": 87
    },
    {
      "midi": 64,
      "hit": false,
      "t": 53235.26750000003,
      "d": 196.0783333333311,
      "v": 93
    },
    {
      "midi": 67,
      "hit": false,
      "t": 53529.38500000004,
      "d": 196.0783333333311,
      "v": 90
    },
    {
      "midi": 64,
      "hit": false,
      "t": 53529.38500000004,
      "d": 196.0783333333311,
      "v": 84
    },
    {
      "midi": 72,
      "hit": false,
      "t": 53823.50250000004,
      "d": 196.0783333333311,
      "v": 90
    },
    {
      "midi": 67,
      "hit": false,
      "t": 53823.50250000004,
      "d": 196.0783333333311,
      "v": 84
    },
    {
      "midi": 72,
      "hit": false,
      "t": 53823.50250000004,
      "d": 196.0783333333311,
      "v": 84
    },
    {
      "midi": 69,
      "hit": false,
      "t": 54117.620000000024,
      "d": 196.0783333333311,
      "v": 87
    },
    {
      "midi": 67,
      "hit": false,
      "t": 54117.62000000003,
      "d": 196.0783333333311,
      "v": 93
    },
    {
      "midi": 67,
      "hit": false,
      "t": 54411.737500000025,
      "d": 196.0783333333311,
      "v": 87
    },
    {
      "midi": 72,
      "hit": false,
      "t": 54411.737500000025,
      "d": 196.0783333333311,
      "v": 87
    },
    {
      "midi": 62,
      "hit": false,
      "t": 54411.73750000003,
      "d": 196.0783333333311,
      "v": 93
    },
    {
      "midi": 55,
      "hit": false,
      "t": 54705.85500000004,
      "d": 196.0783333333311,
      "v": 90
    },
    {
      "midi": 55,
      "hit": false,
      "t": 54705.85500000004,
      "d": 196.0783333333311,
      "v": 84
    },
    {
      "midi": 62,
      "hit": false,
      "t": 54705.85500000004,
      "d": 196.0783333333311,
      "v": 84
    },
    {
      "midi": 62,
      "hit": false,
      "t": 54999.97250000004,
      "d": 196.0783333333311,
      "v": 90
    },
    {
      "midi": 58,
      "hit": false,
      "t": 54999.97250000004,
      "d": 196.0783333333311,
      "v": 84
    },
    {
      "midi": 59,
      "hit": false,
      "t": 55294.090000000026,
      "d": 196.0783333333311,
      "v": 87
    },
    {
      "midi": 67,
      "hit": false,
      "t": 55294.09000000003,
      "d": 196.0783333333311,
      "v": 93
    },
    {
      "midi": 62,
      "hit": false,
      "t": 55588.207500000026,
      "d": 196.0783333333311,
      "v": 87
    },
    {
      "midi": 67,
      "hit": false,
      "t": 55588.207500000026,
      "d": 196.0783333333311,
      "v": 87
    },
    {
      "midi": 79,
      "hit": false,
      "t": 55588.20750000003,
      "d": 196.0783333333311,
      "v": 93
    },
    {
      "midi": 74,
      "hit": false,
      "t": 55882.32500000004,
      "d": 196.0783333333311,
      "v": 90
    },
    {
      "midi": 64,
      "hit": false,
      "t": 55882.32500000004,
      "d": 196.0783333333311,
      "v": 84
    },
    {
      "midi": 67,
      "hit": false,
      "t": 56176.44250000004,
      "d": 196.0783333333311,
      "v": 90
    },
    {
      "midi": 62,
      "hit": false,
      "t": 56176.44250000004,
      "d": 196.0783333333311,
      "v": 84
    },
    {
      "midi": 67,
      "hit": false,
      "t": 56176.44250000004,
      "d": 196.0783333333311,
      "v": 84
    },
    {
      "midi": 52,
      "hit": false,
      "t": 56470.56000000003,
      "d": 196.0783333333311,
      "v": 87
    },
    {
      "midi": 52,
      "hit": false,
      "t": 56470.560000000034,
      "d": 196.0783333333311,
      "v": 93
    },
    {
      "midi": 76,
      "hit": false,
      "t": 56764.67750000003,
      "d": 196.0783333333311,
      "v": 87
    },
    {
      "midi": 64,
      "hit": false,
      "t": 56764.677500000034,
      "d": 196.0783333333311,
      "v": 93
    },
    {
      "midi": 68,
      "hit": false,
      "t": 57058.79500000004,
      "d": 196.0783333333311,
      "v": 90
    },
    {
      "midi": 74,
      "hit": false,
      "t": 57058.79500000004,
      "d": 196.0783333333311,
      "v": 84
    },
    {
      "midi": 76,
      "hit": false,
      "t": 57352.91250000004,
      "d": 196.0783333333311,
      "v": 90
    },
    {
      "midi": 56,
      "hit": false,
      "t": 57352.91250000004,
      "d": 196.0783333333311,
      "v": 84
    },
    {
      "midi": 71,
      "hit": false,
      "t": 57647.03000000003,
      "d": 196.0783333333311,
      "v": 87
    },
    {
      "midi": 76,
      "hit": false,
      "t": 57647.03000000003,
      "d": 196.0783333333311,
      "v": 87
    },
    {
      "midi": 71,
      "hit": false,
      "t": 57647.030000000035,
      "d": 196.0783333333311,
      "v": 93
    },
    {
      "midi": 55,
      "hit": false,
      "t": 57941.14750000003,
      "d": 196.0783333333311,
      "v": 87
    },
    {
      "midi": 68,
      "hit": false,
      "t": 57941.147500000036,
      "d": 196.0783333333311,
      "v": 93
    },
    {
      "midi": 64,
      "hit": false,
      "t": 58235.26500000004,
      "d": 196.0783333333311,
      "v": 90
    },
    {
      "midi": 56,
      "hit": false,
      "t": 58235.26500000004,
      "d": 196.0783333333311,
      "v": 84
    },
    {
      "midi": 59,
      "hit": false,
      "t": 58529.38250000004,
      "d": 196.0783333333311,
      "v": 90
    },
    {
      "midi": 67,
      "hit": false,
      "t": 58529.38250000004,
      "d": 196.0783333333311,
      "v": 84
    },
    {
      "midi": 68,
      "hit": false,
      "t": 58823.50000000003,
      "d": 196.0783333333311,
      "v": 87
    },
    {
      "midi": 64,
      "hit": false,
      "t": 58823.50000000004,
      "d": 196.0783333333311,
      "v": 93
    },
    {
      "midi": 76,
      "hit": false,
      "t": 59117.61750000003,
      "d": 196.0783333333311,
      "v": 87
    },
    {
      "midi": 76,
      "hit": false,
      "t": 59117.61750000004,
      "d": 196.0783333333311,
      "v": 93
    },
    {
      "midi": 71,
      "hit": false,
      "t": 59411.735000000044,
      "d": 196.0783333333311,
      "v": 90
    },
    {
      "midi": 71,
      "hit": false,
      "t": 59411.735000000044,
      "d": 196.0783333333311,
      "v": 84
    },
    {
      "midi": 68,
      "hit": false,
      "t": 59705.852500000045,
      "d": 196.0783333333311,
      "v": 90
    },
    {
      "midi": 76,
      "hit": false,
      "t": 59705.852500000045,
      "d": 196.0783333333311,
      "v": 84
    },
    {
      "midi": 57,
      "hit": false,
      "t": 59999.97000000003,
      "d": 392.1566666666695,
      "v": 87
    },
    {
      "midi": 57,
      "hit": false,
      "t": 59999.97000000004,
      "d": 196.0783333333311,
      "v": 93
    },
    {
      "midi": 64,
      "hit": false,
      "t": 60294.08750000004,
      "d": 196.0783333333311,
      "v": 93
    },
    {
      "midi": 76,
      "hit": false,
      "t": 60588.20500000003,
      "d": 392.1566666666695,
      "v": 87
    },
    {
      "midi": 81,
      "hit": false,
      "t": 60588.20500000003,
      "d": 392.1566666666695,
      "v": 87
    },
    {
      "midi": 69,
      "hit": false,
      "t": 60588.205000000045,
      "d": 196.0783333333311,
      "v": 90
    },
    {
      "midi": 76,
      "hit": false,
      "t": 60882.322500000046,
      "d": 196.0783333333311,
      "v": 90
    },
    {
      "midi": 73,
      "hit": false,
      "t": 61176.44000000004,
      "d": 196.0783333333311,
      "v": 93
    },
    {
      "midi": 69,
      "hit": false,
      "t": 61176.440000000046,
      "d": 196.0783333333311,
      "v": 84
    },
    {
      "midi": 76,
      "hit": false,
      "t": 61176.440000000046,
      "d": 196.0783333333311,
      "v": 84
    },
    {
      "midi": 81,
      "hit": false,
      "t": 61176.440000000046,
      "d": 196.0783333333311,
      "v": 84
    },
    {
      "midi": 67,
      "hit": false,
      "t": 61470.55750000004,
      "d": 196.0783333333311,
      "v": 93
    },
    {
      "midi": 64,
      "hit": false,
      "t": 61470.557500000046,
      "d": 196.0783333333311,
      "v": 84
    },
    {
      "midi": 52,
      "hit": false,
      "t": 61764.67500000005,
      "d": 196.0783333333311,
      "v": 90
    },
    {
      "midi": 64,
      "hit": false,
      "t": 61764.67500000005,
      "d": 392.1566666666695,
      "v": 84
    },
    {
      "midi": 71,
      "hit": false,
      "t": 61764.67500000005,
      "d": 392.1566666666695,
      "v": 84
    },
    {
      "midi": 64,
      "hit": false,
      "t": 62058.79250000005,
      "d": 196.0783333333311,
      "v": 90
    },
    {
      "midi": 71,
      "hit": false,
      "t": 62352.91000000003,
      "d": 392.1566666666695,
      "v": 87
    },
    {
      "midi": 76,
      "hit": false,
      "t": 62352.91000000003,
      "d": 392.1566666666695,
      "v": 87
    },
    {
      "midi": 68,
      "hit": false,
      "t": 62352.91000000004,
      "d": 196.0783333333311,
      "v": 93
    },
    {
      "midi": 76,
      "hit": false,
      "t": 62647.02750000004,
      "d": 196.0783333333311,
      "v": 93
    },
    {
      "midi": 71,
      "hit": false,
      "t": 62941.14500000003,
      "d": 196.0783333333311,
      "v": 87
    },
    {
      "midi": 76,
      "hit": false,
      "t": 62941.14500000003,
      "d": 196.0783333333311,
      "v": 87
    },
    {
      "midi": 71,
      "hit": false,
      "t": 62941.14500000005,
      "d": 196.0783333333311,
      "v": 90
    },
    {
      "midi": 66,
      "hit": false,
      "t": 63235.26250000003,
      "d": 196.0783333333311,
      "v": 87
    },
    {
      "midi": 67,
      "hit": false,
      "t": 63235.26250000005,
      "d": 196.0783333333311,
      "v": 90
    },
    {
      "midi": 69,
      "hit": false,
      "t": 63529.380000000034,
      "d": 784.3133333333317,
      "v": 87
    },
    {
      "midi": 73,
      "hit": false,
      "t": 63529.380000000034,
      "d": 784.3133333333317,
      "v": 87
    },
    {
      "midi": 78,
      "hit": false,
      "t": 63529.380000000034,
      "d": 784.3133333333317,
      "v": 87
    },
    {
      "midi": 54,
      "hit": false,
      "t": 63529.38000000004,
      "d": 196.0783333333311,
      "v": 93
    },
    {
      "midi": 66,
      "hit": false,
      "t": 63823.49750000004,
      "d": 196.0783333333311,
      "v": 93
    },
    {
      "midi": 69,
      "hit": false,
      "t": 64117.61500000005,
      "d": 196.0783333333311,
      "v": 90
    },
    {
      "midi": 73,
      "hit": false,
      "t": 64411.73250000005,
      "d": 196.0783333333311,
      "v": 90
    },
    {
      "midi": 69,
      "hit": false,
      "t": 64705.85000000004,
      "d": 196.0783333333311,
      "v": 93
    },
    {
      "midi": 69,
      "hit": false,
      "t": 64705.85000000005,
      "d": 196.0783333333311,
      "v": 84
    },
    {
      "midi": 73,
      "hit": false,
      "t": 64705.85000000005,
      "d": 196.0783333333311,
      "v": 84
    },
    {
      "midi": 78,
      "hit": false,
      "t": 64705.85000000005,
      "d": 196.0783333333311,
      "v": 84
    },
    {
      "midi": 66,
      "hit": false,
      "t": 64999.96750000004,
      "d": 196.0783333333311,
      "v": 93
    },
    {
      "midi": 66,
      "hit": false,
      "t": 64999.96750000005,
      "d": 196.0783333333311,
      "v": 84
    },
    {
      "midi": 62,
      "hit": false,
      "t": 65294.085000000036,
      "d": 588.2350000000006,
      "v": 87
    },
    {
      "midi": 69,
      "hit": false,
      "t": 65294.085000000036,
      "d": 588.2350000000006,
      "v": 87
    },
    {
      "midi": 62,
      "hit": false,
      "t": 65294.08500000005,
      "d": 196.0783333333311,
      "v": 90
    },
    {
      "midi": 69,
      "hit": false,
      "t": 65588.20250000004,
      "d": 196.07833333333838,
      "v": 90
    },
    {
      "midi": 74,
      "hit": false,
      "t": 65882.32000000004,
      "d": 196.07833333333838,
      "v": 93
    },
    {
      "midi": 78,
      "hit": false,
      "t": 66176.43750000004,
      "d": 196.07833333333838,
      "v": 90
    },
    {
      "midi": 74,
      "hit": false,
      "t": 66176.43750000004,
      "d": 196.07833333333838,
      "v": 84
    },
    {
      "midi": 74,
      "hit": false,
      "t": 66470.55500000005,
      "d": 196.07833333333838,
      "v": 90
    },
    {
      "midi": 62,
      "hit": false,
      "t": 66470.55500000005,
      "d": 196.07833333333838,
      "v": 84
    },
    {
      "midi": 67,
      "hit": false,
      "t": 66764.67250000006,
      "d": 196.07833333333838,
      "v": 90
    },
    {
      "midi": 69,
      "hit": false,
      "t": 66764.67250000006,
      "d": 196.07833333333838,
      "v": 84
    },
    {
      "midi": 57,
      "hit": false,
      "t": 67058.79000000004,
      "d": 196.07833333333838,
      "v": 93
    },
    {
      "midi": 57,
      "hit": false,
      "t": 67058.79000000004,
      "d": 196.07833333333838,
      "v": 87
    },
    {
      "midi": 64,
      "hit": false,
      "t": 67352.90750000004,
      "d": 196.07833333333838,
      "v": 93
    },
    {
      "midi": 76,
      "hit": false,
      "t": 67352.90750000004,
      "d": 392.1566666666622,
      "v": 87
    },
    {
      "midi": 81,
      "hit": false,
      "t": 67352.90750000004,
      "d": 392.1566666666622,
      "v": 87
    },
    {
      "midi": 69,
      "hit": false,
      "t": 67647.02500000007,
      "d": 196.07833333333838,
      "v": 90
    },
    {
      "midi": 76,
      "hit": false,
      "t": 67941.14250000006,
      "d": 392.1566666666622,
      "v": 84
    },
    {
      "midi": 81,
      "hit": false,
      "t": 67941.14250000006,
      "d": 392.1566666666622,
      "v": 84
    },
    {
      "midi": 76,
      "hit": false,
      "t": 67941.14250000007,
      "d": 196.07833333333838,
      "v": 90
    },
    {
      "midi": 73,
      "hit": false,
      "t": 68235.26000000005,
      "d": 196.07833333333838,
      "v": 93
    },
    {
      "midi": 64,
      "hit": false,
      "t": 68529.37750000005,
      "d": 196.07833333333838,
      "v": 87
    },
    {
      "midi": 67,
      "hit": false,
      "t": 68529.37750000006,
      "d": 196.07833333333838,
      "v": 93
    },
    {
      "midi": 52,
      "hit": false,
      "t": 68823.49500000005,
      "d": 196.07833333333838,
      "v": 87
    },
    {
      "midi": 64,
      "hit": false,
      "t": 68823.49500000005,
      "d": 196.07833333333838,
      "v": 87
    },
    {
      "midi": 71,
      "hit": false,
      "t": 68823.49500000005,
      "d": 196.07833333333838,
      "v": 87
    },
    {
      "midi": 52,
      "hit": false,
      "t": 68823.49500000008,
      "d": 196.07833333333838,
      "v": 90
    },
    {
      "midi": 71,
      "hit": false,
      "t": 69117.61250000006,
      "d": 392.1566666666622,
      "v": 87
    },
    {
      "midi": 76,
      "hit": false,
      "t": 69117.61250000006,
      "d": 392.1566666666622,
      "v": 87
    },
    {
      "midi": 64,
      "hit": false,
      "t": 69117.61250000009,
      "d": 196.07833333333838,
      "v": 90
    },
    {
      "midi": 68,
      "hit": false,
      "t": 69411.73000000007,
      "d": 196.07833333333838,
      "v": 93
    },
    {
      "midi": 64,
      "hit": false,
      "t": 69705.84750000006,
      "d": 392.1566666666622,
      "v": 84
    },
    {
      "midi": 71,
      "hit": false,
      "t": 69705.84750000006,
      "d": 392.1566666666622,
      "v": 84
    },
    {
      "midi": 76,
      "hit": false,
      "t": 69705.84750000006,
      "d": 392.1566666666622,
      "v": 84
    },
    {
      "midi": 76,
      "hit": false,
      "t": 69705.84750000008,
      "d": 196.07833333333838,
      "v": 93
    },
    {
      "midi": 71,
      "hit": false,
      "t": 69999.9650000001,
      "d": 196.07833333333838,
      "v": 90
    },
    {
      "midi": 71,
      "hit": false,
      "t": 70294.08250000006,
      "d": 196.07833333333838,
      "v": 84
    },
    {
      "midi": 76,
      "hit": false,
      "t": 70294.08250000006,
      "d": 196.07833333333838,
      "v": 84
    },
    {
      "midi": 67,
      "hit": false,
      "t": 70294.0825000001,
      "d": 196.07833333333838,
      "v": 90
    },
    {
      "midi": 78,
      "hit": false,
      "t": 70588.20000000006,
      "d": 196.07833333333838,
      "v": 87
    },
    {
      "midi": 62,
      "hit": false,
      "t": 70588.20000000008,
      "d": 196.07833333333838,
      "v": 93
    },
    {
      "midi": 81,
      "hit": false,
      "t": 70882.31750000006,
      "d": 196.07833333333838,
      "v": 87
    },
    {
      "midi": 86,
      "hit": false,
      "t": 70882.31750000006,
      "d": 196.07833333333838,
      "v": 87
    },
    {
      "midi": 69,
      "hit": false,
      "t": 70882.31750000009,
      "d": 196.07833333333838,
      "v": 93
    },
    {
      "midi": 78,
      "hit": false,
      "t": 71176.43500000007,
      "d": 196.07833333333838,
      "v": 84
    },
    {
      "midi": 74,
      "hit": false,
      "t": 71176.43500000011,
      "d": 196.07833333333838,
      "v": 90
    },
    {
      "midi": 78,
      "hit": false,
      "t": 71470.55250000008,
      "d": 196.07833333333838,
      "v": 84
    },
    {
      "midi": 78,
      "hit": false,
      "t": 71470.55250000012,
      "d": 196.07833333333838,
      "v": 90
    },
    {
      "midi": 81,
      "hit": false,
      "t": 71764.67000000009,
      "d": 196.07833333333838,
      "v": 84
    },
    {
      "midi": 86,
      "hit": false,
      "t": 71764.67000000009,
      "d": 196.07833333333838,
      "v": 84
    },
    {
      "midi": 74,
      "hit": false,
      "t": 71764.6700000001,
      "d": 196.07833333333838,
      "v": 93
    },
    {
      "midi": 78,
      "hit": false,
      "t": 72058.78750000006,
      "d": 196.07833333333838,
      "v": 87
    },
    {
      "midi": 69,
      "hit": false,
      "t": 72058.78750000011,
      "d": 196.07833333333838,
      "v": 93
    },
    {
      "midi": 80,
      "hit": false,
      "t": 72352.90500000007,
      "d": 196.07833333333838,
      "v": 87
    },
    {
      "midi": 62,
      "hit": false,
      "t": 72352.90500000013,
      "d": 196.07833333333838,
      "v": 90
    },
    {
      "midi": 88,
      "hit": false,
      "t": 72647.0225000001,
      "d": 196.07833333333838,
      "v": 84
    },
    {
      "midi": 69,
      "hit": false,
      "t": 72647.02250000014,
      "d": 196.07833333333838,
      "v": 90
    },
    {
      "midi": 80,
      "hit": false,
      "t": 72941.1400000001,
      "d": 196.07833333333838,
      "v": 84
    },
    {
      "midi": 74,
      "hit": false,
      "t": 72941.14000000012,
      "d": 196.07833333333838,
      "v": 93
    },
    {
      "midi": 78,
      "hit": false,
      "t": 73235.25750000008,
      "d": 196.07833333333838,
      "v": 87
    },
    {
      "midi": 78,
      "hit": false,
      "t": 73235.25750000012,
      "d": 196.07833333333838,
      "v": 93
    },
    {
      "midi": 81,
      "hit": false,
      "t": 73529.37500000009,
      "d": 196.07833333333838,
      "v": 87
    },
    {
      "midi": 86,
      "hit": false,
      "t": 73529.37500000009,
      "d": 196.07833333333838,
      "v": 87
    },
    {
      "midi": 74,
      "hit": false,
      "t": 73529.37500000015,
      "d": 196.07833333333838,
      "v": 90
    },
    {
      "midi": 78,
      "hit": false,
      "t": 73823.4925000001,
      "d": 196.07833333333838,
      "v": 87
    },
    {
      "midi": 67,
      "hit": false,
      "t": 73823.49250000015,
      "d": 196.07833333333838,
      "v": 90
    },
    {
      "midi": 57,
      "hit": false,
      "t": 74117.6100000001,
      "d": 392.1566666666622,
      "v": 84
    },
    {
      "midi": 57,
      "hit": false,
      "t": 74117.61000000013,
      "d": 196.07833333333838,
      "v": 93
    },
    {
      "midi": 64,
      "hit": false,
      "t": 74411.72750000014,
      "d": 196.07833333333838,
      "v": 93
    },
    {
      "midi": 76,
      "hit": false,
      "t": 74705.8450000001,
      "d": 392.1566666666622,
      "v": 84
    },
    {
      "midi": 81,
      "hit": false,
      "t": 74705.8450000001,
      "d": 392.1566666666622,
      "v": 84
    },
    {
      "midi": 69,
      "hit": false,
      "t": 74705.84500000016,
      "d": 196.07833333333838,
      "v": 90
    },
    {
      "midi": 76,
      "hit": false,
      "t": 74999.96250000017,
      "d": 196.07833333333838,
      "v": 90
    },
    {
      "midi": 76,
      "hit": false,
      "t": 75294.0800000001,
      "d": 196.07833333333838,
      "v": 84
    },
    {
      "midi": 81,
      "hit": false,
      "t": 75294.0800000001,
      "d": 196.07833333333838,
      "v": 84
    },
    {
      "midi": 73,
      "hit": false,
      "t": 75294.08000000015,
      "d": 196.07833333333838,
      "v": 93
    },
    {
      "midi": 64,
      "hit": false,
      "t": 75588.1975000001,
      "d": 196.07833333333838,
      "v": 87
    },
    {
      "midi": 67,
      "hit": false,
      "t": 75588.19750000015,
      "d": 196.07833333333838,
      "v": 93
    },
    {
      "midi": 64,
      "hit": false,
      "t": 75882.3150000001,
      "d": 392.1566666666622,
      "v": 87
    },
    {
      "midi": 71,
      "hit": false,
      "t": 75882.3150000001,
      "d": 392.1566666666622,
      "v": 87
    },
    {
      "midi": 52,
      "hit": false,
      "t": 75882.31500000018,
      "d": 196.07833333333838,
      "v": 90
    },
    {
      "midi": 64,
      "hit": false,
      "t": 76176.43250000018,
      "d": 196.07833333333838,
      "v": 90
    },
    {
      "midi": 71,
      "hit": false,
      "t": 76470.5500000001,
      "d": 392.1566666666622,
      "v": 87
    },
    {
      "midi": 76,
      "hit": false,
      "t": 76470.5500000001,
      "d": 392.1566666666622,
      "v": 87
    },
    {
      "midi": 68,
      "hit": false,
      "t": 76470.55000000016,
      "d": 196.07833333333838,
      "v": 93
    },
    {
      "midi": 76,
      "hit": false,
      "t": 76764.66750000017,
      "d": 196.07833333333838,
      "v": 93
    },
    {
      "midi": 71,
      "hit": false,
      "t": 77058.7850000001,
      "d": 196.07833333333838,
      "v": 84
    },
    {
      "midi": 76,
      "hit": false,
      "t": 77058.7850000001,
      "d": 196.07833333333838,
      "v": 84
    },
    {
      "midi": 71,
      "hit": false,
      "t": 77058.78500000019,
      "d": 196.07833333333838,
      "v": 90
    },
    {
      "midi": 64,
      "hit": false,
      "t": 77352.90250000011,
      "d": 196.07833333333838,
      "v": 84
    },
    {
      "midi": 67,
      "hit": false,
      "t": 77352.9025000002,
      "d": 196.07833333333838,
      "v": 90
    },
    {
      "midi": 61,
      "hit": false,
      "t": 77647.02000000012,
      "d": 588.2350000000006,
      "v": 84
    },
    {
      "midi": 68,
      "hit": false,
      "t": 77647.02000000012,
      "d": 588.2350000000006,
      "v": 84
    },
    {
      "midi": 61,
      "hit": false,
      "t": 77647.02000000018,
      "d": 196.07833333333838,
      "v": 93
    },
    {
      "midi": 68,
      "hit": false,
      "t": 77941.13750000019,
      "d": 196.07833333333838,
      "v": 93
    },
    {
      "midi": 73,
      "hit": false,
      "t": 78235.25500000021,
      "d": 196.07833333333838,
      "v": 90
    },
    {
      "midi": 76,
      "hit": false,
      "t": 78529.3725000001,
      "d": 196.07833333333838,
      "v": 87
    },
    {
      "midi": 76,
      "hit": false,
      "t": 78529.37250000022,
      "d": 196.07833333333838,
      "v": 90
    },
    {
      "midi": 73,
      "hit": false,
      "t": 78823.4900000001,
      "d": 196.07833333333838,
      "v": 87
    },
    {
      "midi": 73,
      "hit": false,
      "t": 78823.4900000002,
      "d": 196.07833333333838,
      "v": 93
    },
    {
      "midi": 68,
      "hit": false,
      "t": 79117.60750000011,
      "d": 196.07833333333838,
      "v": 87
    },
    {
      "midi": 68,
      "hit": false,
      "t": 79117.6075000002,
      "d": 196.07833333333838,
      "v": 93
    },
    {
      "midi": 62,
      "hit": false,
      "t": 79411.72500000012,
      "d": 196.07833333333838,
      "v": 84
    },
    {
      "midi": 62,
      "hit": false,
      "t": 79411.72500000022,
      "d": 196.07833333333838,
      "v": 90
    },
    {
      "midi": 69,
      "hit": false,
      "t": 79705.84250000013,
      "d": 196.07833333333838,
      "v": 84
    },
    {
      "midi": 69,
      "hit": false,
      "t": 79705.84250000023,
      "d": 196.07833333333838,
      "v": 90
    },
    {
      "midi": 74,
      "hit": false,
      "t": 79999.96000000014,
      "d": 196.07833333333838,
      "v": 84
    },
    {
      "midi": 74,
      "hit": false,
      "t": 79999.96000000021,
      "d": 196.07833333333838,
      "v": 93
    },
    {
      "midi": 78,
      "hit": false,
      "t": 80294.07750000014,
      "d": 588.2350000000006,
      "v": 84
    },
    {
      "midi": 78,
      "hit": false,
      "t": 80294.07750000022,
      "d": 196.07833333333838,
      "v": 93
    },
    {
      "midi": 74,
      "hit": false,
      "t": 80588.19500000024,
      "d": 196.07833333333838,
      "v": 90
    },
    {
      "midi": 67,
      "hit": false,
      "t": 80882.31250000025,
      "d": 196.07833333333838,
      "v": 90
    },
    {
      "midi": 57,
      "hit": false,
      "t": 81176.43000000012,
      "d": 196.07833333333838,
      "v": 87
    },
    {
      "midi": 57,
      "hit": false,
      "t": 81176.43000000023,
      "d": 196.07833333333838,
      "v": 93
    },
    {
      "midi": 76,
      "hit": false,
      "t": 81470.54750000013,
      "d": 392.1566666666622,
      "v": 87
    },
    {
      "midi": 81,
      "hit": false,
      "t": 81470.54750000013,
      "d": 392.1566666666622,
      "v": 87
    },
    {
      "midi": 64,
      "hit": false,
      "t": 81470.54750000023,
      "d": 196.07833333333838,
      "v": 93
    },
    {
      "midi": 69,
      "hit": false,
      "t": 81764.66500000026,
      "d": 196.07833333333838,
      "v": 90
    },
    {
      "midi": 76,
      "hit": false,
      "t": 82058.78250000015,
      "d": 392.1566666666622,
      "v": 84
    },
    {
      "midi": 81,
      "hit": false,
      "t": 82058.78250000015,
      "d": 392.1566666666622,
      "v": 84
    },
    {
      "midi": 76,
      "hit": false,
      "t": 82058.78250000026,
      "d": 196.07833333333838,
      "v": 90
    },
    {
      "midi": 73,
      "hit": false,
      "t": 82352.90000000024,
      "d": 196.07833333333838,
      "v": 93
    },
    {
      "midi": 64,
      "hit": false,
      "t": 82647.01750000013,
      "d": 196.07833333333838,
      "v": 87
    },
    {
      "midi": 67,
      "hit": false,
      "t": 82647.01750000025,
      "d": 196.07833333333838,
      "v": 93
    },
    {
      "midi": 52,
      "hit": false,
      "t": 82941.13500000014,
      "d": 196.07833333333838,
      "v": 87
    },
    {
      "midi": 64,
      "hit": false,
      "t": 82941.13500000014,
      "d": 196.07833333333838,
      "v": 87
    },
    {
      "midi": 71,
      "hit": false,
      "t": 82941.13500000014,
      "d": 196.07833333333838,
      "v": 87
    },
    {
      "midi": 52,
      "hit": false,
      "t": 82941.13500000027,
      "d": 196.07833333333838,
      "v": 90
    },
    {
      "midi": 71,
      "hit": false,
      "t": 83235.25250000015,
      "d": 392.1566666666622,
      "v": 87
    },
    {
      "midi": 76,
      "hit": false,
      "t": 83235.25250000015,
      "d": 392.1566666666622,
      "v": 87
    },
    {
      "midi": 68,
      "hit": false,
      "t": 83235.25250000028,
      "d": 196.07833333333838,
      "v": 90
    },
    {
      "midi": 68,
      "hit": false,
      "t": 83529.37000000026,
      "d": 196.07833333333838,
      "v": 93
    },
    {
      "midi": 64,
      "hit": false,
      "t": 83823.48750000015,
      "d": 392.1566666666622,
      "v": 84
    },
    {
      "midi": 71,
      "hit": false,
      "t": 83823.48750000015,
      "d": 392.1566666666622,
      "v": 84
    },
    {
      "midi": 76,
      "hit": false,
      "t": 83823.48750000015,
      "d": 392.1566666666622,
      "v": 84
    },
    {
      "midi": 76,
      "hit": false,
      "t": 83823.48750000026,
      "d": 196.07833333333838,
      "v": 93
    },
    {
      "midi": 71,
      "hit": false,
      "t": 84117.60500000029,
      "d": 196.07833333333838,
      "v": 90
    },
    {
      "midi": 71,
      "hit": false,
      "t": 84411.72250000015,
      "d": 196.07833333333838,
      "v": 84
    },
    {
      "midi": 76,
      "hit": false,
      "t": 84411.72250000015,
      "d": 196.07833333333838,
      "v": 84
    },
    {
      "midi": 67,
      "hit": false,
      "t": 84411.7225000003,
      "d": 196.07833333333838,
      "v": 90
    },
    {
      "midi": 62,
      "hit": false,
      "t": 84705.84000000014,
      "d": 392.1566666666622,
      "v": 87
    },
    {
      "midi": 69,
      "hit": false,
      "t": 84705.84000000014,
      "d": 392.1566666666622,
      "v": 87
    },
    {
      "midi": 62,
      "hit": false,
      "t": 84705.84000000027,
      "d": 196.07833333333838,
      "v": 93
    },
    {
      "midi": 69,
      "hit": false,
      "t": 84999.95750000028,
      "d": 196.07833333333838,
      "v": 93
    },
    {
      "midi": 62,
      "hit": false,
      "t": 85294.07500000016,
      "d": 196.07833333333838,
      "v": 84
    },
    {
      "midi": 69,
      "hit": false,
      "t": 85294.07500000016,
      "d": 196.07833333333838,
      "v": 84
    },
    {
      "midi": 74,
      "hit": false,
      "t": 85294.0750000003,
      "d": 196.07833333333838,
      "v": 90
    },
    {
      "midi": 62,
      "hit": false,
      "t": 85588.19250000016,
      "d": 392.1566666666622,
      "v": 84
    },
    {
      "midi": 71,
      "hit": false,
      "t": 85588.19250000016,
      "d": 392.1566666666622,
      "v": 84
    },
    {
      "midi": 78,
      "hit": false,
      "t": 85588.19250000031,
      "d": 196.07833333333838,
      "v": 90
    },
    {
      "midi": 74,
      "hit": false,
      "t": 85882.31000000029,
      "d": 196.07833333333838,
      "v": 93
    },
    {
      "midi": 62,
      "hit": false,
      "t": 86176.42750000014,
      "d": 196.07833333333838,
      "v": 87
    },
    {
      "midi": 71,
      "hit": false,
      "t": 86176.42750000014,
      "d": 196.07833333333838,
      "v": 87
    },
    {
      "midi": 69,
      "hit": false,
      "t": 86176.4275000003,
      "d": 196.07833333333838,
      "v": 93
    },
    {
      "midi": 62,
      "hit": false,
      "t": 86470.54500000014,
      "d": 196.07833333333838,
      "v": 87
    },
    {
      "midi": 69,
      "hit": false,
      "t": 86470.54500000014,
      "d": 196.07833333333838,
      "v": 87
    },
    {
      "midi": 62,
      "hit": false,
      "t": 86470.54500000032,
      "d": 196.07833333333838,
      "v": 90
    },
    {
      "midi": 69,
      "hit": false,
      "t": 86470.54500000032,
      "d": 196.07833333333838,
      "v": 90
    },
    {
      "midi": 74,
      "hit": false,
      "t": 86470.54500000032,
      "d": 196.07833333333838,
      "v": 90
    },
    {
      "midi": 78,
      "hit": false,
      "t": 86470.54500000032,
      "d": 196.07833333333838,
      "v": 90
    },
    {
      "midi": 58,
      "hit": false,
      "t": 87352.89750000017,
      "d": 196.07833333333838,
      "v": 84
    },
    {
      "midi": 65,
      "hit": false,
      "t": 87352.89750000017,
      "d": 196.07833333333838,
      "v": 84
    },
    {
      "midi": 70,
      "hit": false,
      "t": 87352.89750000017,
      "d": 196.07833333333838,
      "v": 84
    },
    {
      "midi": 58,
      "hit": false,
      "t": 87352.8975000003,
      "d": 196.07833333333838,
      "v": 93
    },
    {
      "midi": 65,
      "hit": false,
      "t": 87352.8975000003,
      "d": 196.07833333333838,
      "v": 93
    },
    {
      "midi": 70,
      "hit": false,
      "t": 87352.8975000003,
      "d": 196.07833333333838,
      "v": 93
    },
    {
      "midi": 60,
      "hit": false,
      "t": 87647.01500000014,
      "d": 196.07833333333838,
      "v": 87
    },
    {
      "midi": 67,
      "hit": false,
      "t": 87647.01500000014,
      "d": 196.07833333333838,
      "v": 87
    },
    {
      "midi": 72,
      "hit": false,
      "t": 87647.01500000014,
      "d": 196.07833333333838,
      "v": 87
    },
    {
      "midi": 60,
      "hit": false,
      "t": 87647.01500000032,
      "d": 196.07833333333838,
      "v": 90
    },
    {
      "midi": 67,
      "hit": false,
      "t": 87647.01500000032,
      "d": 196.07833333333838,
      "v": 90
    },
    {
      "midi": 72,
      "hit": false,
      "t": 87647.01500000032,
      "d": 196.07833333333838,
      "v": 90
    },
    {
      "midi": 53,
      "hit": false,
      "t": 87941.13250000017,
      "d": 196.07833333333838,
      "v": 84
    },
    {
      "midi": 60,
      "hit": false,
      "t": 87941.13250000017,
      "d": 196.07833333333838,
      "v": 84
    },
    {
      "midi": 65,
      "hit": false,
      "t": 87941.13250000017,
      "d": 196.07833333333838,
      "v": 84
    },
    {
      "midi": 53,
      "hit": false,
      "t": 87941.1325000003,
      "d": 196.07833333333838,
      "v": 93
    },
    {
      "midi": 60,
      "hit": false,
      "t": 87941.1325000003,
      "d": 196.07833333333838,
      "v": 93
    },
    {
      "midi": 65,
      "hit": false,
      "t": 87941.1325000003,
      "d": 196.07833333333838,
      "v": 93
    },
    {
      "midi": 74,
      "hit": false,
      "t": 88235.25000000015,
      "d": 294.117499999993,
      "v": 87
    },
    {
      "midi": 79,
      "hit": false,
      "t": 88235.25000000015,
      "d": 294.117499999993,
      "v": 87
    },
    {
      "midi": 55,
      "hit": false,
      "t": 88235.25000000032,
      "d": 196.07833333333838,
      "v": 90
    },
    {
      "midi": 62,
      "hit": false,
      "t": 88235.25000000032,
      "d": 196.07833333333838,
      "v": 90
    },
    {
      "midi": 67,
      "hit": false,
      "t": 88235.25000000032,
      "d": 196.07833333333838,
      "v": 90
    },
    {
      "midi": 55,
      "hit": false,
      "t": 88529.36750000033,
      "d": 196.07833333333838,
      "v": 90
    },
    {
      "midi": 62,
      "hit": false,
      "t": 88529.36750000033,
      "d": 196.07833333333838,
      "v": 90
    },
    {
      "midi": 67,
      "hit": false,
      "t": 88529.36750000033,
      "d": 196.07833333333838,
      "v": 90
    },
    {
      "midi": 74,
      "hit": false,
      "t": 88676.42625000014,
      "d": 98.03916666666919,
      "v": 87
    },
    {
      "midi": 79,
      "hit": false,
      "t": 88676.42625000014,
      "d": 98.03916666666919,
      "v": 87
    },
    {
      "midi": 74,
      "hit": false,
      "t": 88823.48500000018,
      "d": 196.07833333333838,
      "v": 84
    },
    {
      "midi": 79,
      "hit": false,
      "t": 88823.48500000018,
      "d": 196.07833333333838,
      "v": 84
    },
    {
      "midi": 55,
      "hit": false,
      "t": 88823.4850000003,
      "d": 196.07833333333838,
      "v": 93
    },
    {
      "midi": 62,
      "hit": false,
      "t": 88823.4850000003,
      "d": 196.07833333333838,
      "v": 93
    },
    {
      "midi": 67,
      "hit": false,
      "t": 88823.4850000003,
      "d": 196.07833333333838,
      "v": 93
    },
    {
      "midi": 74,
      "hit": false,
      "t": 89117.60250000018,
      "d": 294.117499999993,
      "v": 84
    },
    {
      "midi": 79,
      "hit": false,
      "t": 89117.60250000018,
      "d": 294.117499999993,
      "v": 84
    },
    {
      "midi": 55,
      "hit": false,
      "t": 89117.60250000031,
      "d": 196.07833333333838,
      "v": 93
    },
    {
      "midi": 62,
      "hit": false,
      "t": 89117.60250000031,
      "d": 196.07833333333838,
      "v": 93
    },
    {
      "midi": 67,
      "hit": false,
      "t": 89117.60250000031,
      "d": 196.07833333333838,
      "v": 93
    },
    {
      "midi": 55,
      "hit": false,
      "t": 89411.72000000034,
      "d": 196.07833333333838,
      "v": 90
    },
    {
      "midi": 62,
      "hit": false,
      "t": 89411.72000000034,
      "d": 196.07833333333838,
      "v": 90
    },
    {
      "midi": 67,
      "hit": false,
      "t": 89411.72000000034,
      "d": 196.07833333333838,
      "v": 90
    },
    {
      "midi": 74,
      "hit": false,
      "t": 89558.77875000014,
      "d": 98.03916666666919,
      "v": 87
    },
    {
      "midi": 79,
      "hit": false,
      "t": 89558.77875000014,
      "d": 98.03916666666919,
      "v": 87
    },
    {
      "midi": 74,
      "hit": false,
      "t": 89705.83750000014,
      "d": 196.07833333333838,
      "v": 87
    },
    {
      "midi": 79,
      "hit": false,
      "t": 89705.83750000014,
      "d": 196.07833333333838,
      "v": 87
    },
    {
      "midi": 55,
      "hit": false,
      "t": 89705.83750000034,
      "d": 196.07833333333838,
      "v": 90
    },
    {
      "midi": 62,
      "hit": false,
      "t": 89705.83750000034,
      "d": 196.07833333333838,
      "v": 90
    },
    {
      "midi": 67,
      "hit": false,
      "t": 89705.83750000034,
      "d": 196.07833333333838,
      "v": 90
    },
    {
      "midi": 74,
      "hit": false,
      "t": 89999.95500000018,
      "d": 196.07833333333838,
      "v": 84
    },
    {
      "midi": 79,
      "hit": false,
      "t": 89999.95500000018,
      "d": 196.07833333333838,
      "v": 84
    },
    {
      "midi": 55,
      "hit": false,
      "t": 89999.95500000035,
      "d": 196.07833333333838,
      "v": 90
    },
    {
      "midi": 62,
      "hit": false,
      "t": 89999.95500000035,
      "d": 196.07833333333838,
      "v": 90
    },
    {
      "midi": 67,
      "hit": false,
      "t": 89999.95500000035,
      "d": 196.07833333333838,
      "v": 90
    },
    {
      "midi": 58,
      "hit": false,
      "t": 90882.30750000014,
      "d": 196.07833333333838,
      "v": 87
    },
    {
      "midi": 65,
      "hit": false,
      "t": 90882.30750000014,
      "d": 196.07833333333838,
      "v": 87
    },
    {
      "midi": 70,
      "hit": false,
      "t": 90882.30750000014,
      "d": 196.07833333333838,
      "v": 87
    },
    {
      "midi": 58,
      "hit": false,
      "t": 90882.30750000032,
      "d": 196.07833333333838,
      "v": 93
    },
    {
      "midi": 65,
      "hit": false,
      "t": 90882.30750000032,
      "d": 196.07833333333838,
      "v": 93
    },
    {
      "midi": 70,
      "hit": false,
      "t": 90882.30750000032,
      "d": 196.07833333333838,
      "v": 93
    },
    {
      "midi": 60,
      "hit": false,
      "t": 91176.42500000018,
      "d": 196.07833333333838,
      "v": 84
    },
    {
      "midi": 67,
      "hit": false,
      "t": 91176.42500000018,
      "d": 196.07833333333838,
      "v": 84
    },
    {
      "midi": 72,
      "hit": false,
      "t": 91176.42500000018,
      "d": 196.07833333333838,
      "v": 84
    },
    {
      "midi": 60,
      "hit": false,
      "t": 91176.42500000032,
      "d": 196.07833333333838,
      "v": 93
    },
    {
      "midi": 67,
      "hit": false,
      "t": 91176.42500000032,
      "d": 196.07833333333838,
      "v": 93
    },
    {
      "midi": 72,
      "hit": false,
      "t": 91176.42500000032,
      "d": 196.07833333333838,
      "v": 93
    },
    {
      "midi": 53,
      "hit": false,
      "t": 91470.54250000014,
      "d": 196.07833333333838,
      "v": 87
    },
    {
      "midi": 60,
      "hit": false,
      "t": 91470.54250000014,
      "d": 196.07833333333838,
      "v": 87
    },
    {
      "midi": 65,
      "hit": false,
      "t": 91470.54250000014,
      "d": 196.07833333333838,
      "v": 87
    },
    {
      "midi": 53,
      "hit": false,
      "t": 91470.54250000033,
      "d": 196.07833333333838,
      "v": 93
    },
    {
      "midi": 60,
      "hit": false,
      "t": 91470.54250000033,
      "d": 196.07833333333838,
      "v": 93
    },
    {
      "midi": 65,
      "hit": false,
      "t": 91470.54250000033,
      "d": 196.07833333333838,
      "v": 93
    },
    {
      "midi": 74,
      "hit": false,
      "t": 91764.66000000015,
      "d": 294.117499999993,
      "v": 87
    },
    {
      "midi": 79,
      "hit": false,
      "t": 91764.66000000015,
      "d": 294.117499999993,
      "v": 87
    },
    {
      "midi": 55,
      "hit": false,
      "t": 91764.66000000035,
      "d": 196.07833333333838,
      "v": 90
    },
    {
      "midi": 62,
      "hit": false,
      "t": 91764.66000000035,
      "d": 196.07833333333838,
      "v": 90
    },
    {
      "midi": 67,
      "hit": false,
      "t": 91764.66000000035,
      "d": 196.07833333333838,
      "v": 90
    },
    {
      "midi": 55,
      "hit": false,
      "t": 92058.77750000036,
      "d": 196.07833333333838,
      "v": 90
    },
    {
      "midi": 62,
      "hit": false,
      "t": 92058.77750000036,
      "d": 196.07833333333838,
      "v": 90
    },
    {
      "midi": 67,
      "hit": false,
      "t": 92058.77750000036,
      "d": 196.07833333333838,
      "v": 90
    },
    {
      "midi": 74,
      "hit": false,
      "t": 92205.83625000014,
      "d": 98.03916666666919,
      "v": 87
    },
    {
      "midi": 79,
      "hit": false,
      "t": 92205.83625000014,
      "d": 98.03916666666919,
      "v": 87
    },
    {
      "midi": 74,
      "hit": false,
      "t": 92352.89500000018,
      "d": 196.07833333333838,
      "v": 84
    },
    {
      "midi": 79,
      "hit": false,
      "t": 92352.89500000018,
      "d": 196.07833333333838,
      "v": 84
    },
    {
      "midi": 55,
      "hit": false,
      "t": 92352.89500000034,
      "d": 196.07833333333838,
      "v": 93
    },
    {
      "midi": 62,
      "hit": false,
      "t": 92352.89500000034,
      "d": 196.07833333333838,
      "v": 93
    },
    {
      "midi": 67,
      "hit": false,
      "t": 92352.89500000034,
      "d": 196.07833333333838,
      "v": 93
    },
    {
      "midi": 74,
      "hit": false,
      "t": 92647.01250000019,
      "d": 294.117499999993,
      "v": 84
    },
    {
      "midi": 79,
      "hit": false,
      "t": 92647.01250000019,
      "d": 294.117499999993,
      "v": 84
    },
    {
      "midi": 55,
      "hit": false,
      "t": 92647.01250000035,
      "d": 196.07833333333838,
      "v": 93
    },
    {
      "midi": 62,
      "hit": false,
      "t": 92647.01250000035,
      "d": 196.07833333333838,
      "v": 93
    },
    {
      "midi": 67,
      "hit": false,
      "t": 92647.01250000035,
      "d": 196.07833333333838,
      "v": 93
    },
    {
      "midi": 55,
      "hit": false,
      "t": 92941.13000000037,
      "d": 196.07833333333838,
      "v": 90
    },
    {
      "midi": 62,
      "hit": false,
      "t": 92941.13000000037,
      "d": 196.07833333333838,
      "v": 90
    },
    {
      "midi": 67,
      "hit": false,
      "t": 92941.13000000037,
      "d": 196.07833333333838,
      "v": 90
    },
    {
      "midi": 74,
      "hit": false,
      "t": 93088.18875000015,
      "d": 98.03916666666919,
      "v": 87
    },
    {
      "midi": 79,
      "hit": false,
      "t": 93088.18875000015,
      "d": 98.03916666666919,
      "v": 87
    },
    {
      "midi": 74,
      "hit": false,
      "t": 93235.24750000014,
      "d": 196.07833333333838,
      "v": 87
    },
    {
      "midi": 79,
      "hit": false,
      "t": 93235.24750000014,
      "d": 196.07833333333838,
      "v": 87
    },
    {
      "midi": 55,
      "hit": false,
      "t": 93235.24750000038,
      "d": 196.07833333333838,
      "v": 90
    },
    {
      "midi": 62,
      "hit": false,
      "t": 93235.24750000038,
      "d": 196.07833333333838,
      "v": 90
    },
    {
      "midi": 67,
      "hit": false,
      "t": 93235.24750000038,
      "d": 196.07833333333838,
      "v": 90
    },
    {
      "midi": 74,
      "hit": false,
      "t": 93529.36500000018,
      "d": 196.07833333333838,
      "v": 84
    },
    {
      "midi": 79,
      "hit": false,
      "t": 93529.36500000018,
      "d": 196.07833333333838,
      "v": 84
    },
    {
      "midi": 55,
      "hit": false,
      "t": 93529.36500000038,
      "d": 196.07833333333838,
      "v": 90
    },
    {
      "midi": 62,
      "hit": false,
      "t": 93529.36500000038,
      "d": 196.07833333333838,
      "v": 90
    },
    {
      "midi": 67,
      "hit": false,
      "t": 93529.36500000038,
      "d": 196.07833333333838,
      "v": 90
    },
    {
      "midi": 58,
      "hit": false,
      "t": 94411.71750000014,
      "d": 196.07833333333838,
      "v": 87
    },
    {
      "midi": 65,
      "hit": false,
      "t": 94411.71750000014,
      "d": 196.07833333333838,
      "v": 87
    },
    {
      "midi": 70,
      "hit": false,
      "t": 94411.71750000014,
      "d": 196.07833333333838,
      "v": 87
    },
    {
      "midi": 58,
      "hit": false,
      "t": 94411.71750000035,
      "d": 196.07833333333838,
      "v": 93
    },
    {
      "midi": 65,
      "hit": false,
      "t": 94411.71750000035,
      "d": 196.07833333333838,
      "v": 93
    },
    {
      "midi": 70,
      "hit": false,
      "t": 94411.71750000035,
      "d": 196.07833333333838,
      "v": 93
    },
    {
      "midi": 60,
      "hit": false,
      "t": 94705.83500000018,
      "d": 196.07833333333838,
      "v": 84
    },
    {
      "midi": 67,
      "hit": false,
      "t": 94705.83500000018,
      "d": 196.07833333333838,
      "v": 84
    },
    {
      "midi": 72,
      "hit": false,
      "t": 94705.83500000018,
      "d": 196.07833333333838,
      "v": 84
    },
    {
      "midi": 60,
      "hit": false,
      "t": 94705.83500000036,
      "d": 196.07833333333838,
      "v": 93
    },
    {
      "midi": 67,
      "hit": false,
      "t": 94705.83500000036,
      "d": 196.07833333333838,
      "v": 93
    },
    {
      "midi": 72,
      "hit": false,
      "t": 94705.83500000036,
      "d": 196.07833333333838,
      "v": 93
    },
    {
      "midi": 53,
      "hit": false,
      "t": 94999.95250000014,
      "d": 196.07833333333838,
      "v": 87
    },
    {
      "midi": 60,
      "hit": false,
      "t": 94999.95250000014,
      "d": 196.07833333333838,
      "v": 87
    },
    {
      "midi": 65,
      "hit": false,
      "t": 94999.95250000014,
      "d": 196.07833333333838,
      "v": 87
    },
    {
      "midi": 53,
      "hit": false,
      "t": 94999.95250000036,
      "d": 196.07833333333838,
      "v": 93
    },
    {
      "midi": 60,
      "hit": false,
      "t": 94999.95250000036,
      "d": 196.07833333333838,
      "v": 93
    },
    {
      "midi": 65,
      "hit": false,
      "t": 94999.95250000036,
      "d": 196.07833333333838,
      "v": 93
    },
    {
      "midi": 74,
      "hit": false,
      "t": 95294.07000000015,
      "d": 294.117499999993,
      "v": 87
    },
    {
      "midi": 79,
      "hit": false,
      "t": 95294.07000000015,
      "d": 294.117499999993,
      "v": 87
    },
    {
      "midi": 55,
      "hit": false,
      "t": 95294.07000000039,
      "d": 196.07833333333838,
      "v": 90
    },
    {
      "midi": 62,
      "hit": false,
      "t": 95294.07000000039,
      "d": 196.07833333333838,
      "v": 90
    },
    {
      "midi": 67,
      "hit": false,
      "t": 95294.07000000039,
      "d": 196.07833333333838,
      "v": 90
    },
    {
      "midi": 55,
      "hit": false,
      "t": 95588.1875000004,
      "d": 196.07833333333838,
      "v": 90
    },
    {
      "midi": 62,
      "hit": false,
      "t": 95588.1875000004,
      "d": 196.07833333333838,
      "v": 90
    },
    {
      "midi": 67,
      "hit": false,
      "t": 95588.1875000004,
      "d": 196.07833333333838,
      "v": 90
    },
    {
      "midi": 74,
      "hit": false,
      "t": 95735.24625000014,
      "d": 98.03916666666919,
      "v": 87
    },
    {
      "midi": 79,
      "hit": false,
      "t": 95735.24625000014,
      "d": 98.03916666666919,
      "v": 87
    },
    {
      "midi": 74,
      "hit": false,
      "t": 95882.30500000018,
      "d": 196.07833333333838,
      "v": 84
    },
    {
      "midi": 79,
      "hit": false,
      "t": 95882.30500000018,
      "d": 196.07833333333838,
      "v": 84
    },
    {
      "midi": 55,
      "hit": false,
      "t": 95882.30500000037,
      "d": 196.07833333333838,
      "v": 93
    },
    {
      "midi": 62,
      "hit": false,
      "t": 95882.30500000037,
      "d": 196.07833333333838,
      "v": 93
    },
    {
      "midi": 67,
      "hit": false,
      "t": 95882.30500000037,
      "d": 196.07833333333838,
      "v": 93
    },
    {
      "midi": 74,
      "hit": false,
      "t": 96176.42250000019,
      "d": 294.117499999993,
      "v": 84
    },
    {
      "midi": 79,
      "hit": false,
      "t": 96176.42250000019,
      "d": 294.117499999993,
      "v": 84
    },
    {
      "midi": 55,
      "hit": false,
      "t": 96176.42250000038,
      "d": 196.07833333333838,
      "v": 93
    },
    {
      "midi": 62,
      "hit": false,
      "t": 96176.42250000038,
      "d": 196.07833333333838,
      "v": 93
    },
    {
      "midi": 67,
      "hit": false,
      "t": 96176.42250000038,
      "d": 196.07833333333838,
      "v": 93
    },
    {
      "midi": 55,
      "hit": false,
      "t": 96470.5400000004,
      "d": 196.07833333333838,
      "v": 90
    },
    {
      "midi": 62,
      "hit": false,
      "t": 96470.5400000004,
      "d": 196.07833333333838,
      "v": 90
    },
    {
      "midi": 67,
      "hit": false,
      "t": 96470.5400000004,
      "d": 196.07833333333838,
      "v": 90
    },
    {
      "midi": 74,
      "hit": false,
      "t": 96617.59875000015,
      "d": 98.03916666666919,
      "v": 87
    },
    {
      "midi": 79,
      "hit": false,
      "t": 96617.59875000015,
      "d": 98.03916666666919,
      "v": 87
    },
    {
      "midi": 74,
      "hit": false,
      "t": 96764.65750000015,
      "d": 196.07833333333838,
      "v": 87
    },
    {
      "midi": 79,
      "hit": false,
      "t": 96764.65750000015,
      "d": 196.07833333333838,
      "v": 87
    },
    {
      "midi": 55,
      "hit": false,
      "t": 96764.65750000041,
      "d": 196.07833333333838,
      "v": 90
    },
    {
      "midi": 62,
      "hit": false,
      "t": 96764.65750000041,
      "d": 196.07833333333838,
      "v": 90
    },
    {
      "midi": 67,
      "hit": false,
      "t": 96764.65750000041,
      "d": 196.07833333333838,
      "v": 90
    },
    {
      "midi": 74,
      "hit": false,
      "t": 97058.77500000018,
      "d": 196.07833333333838,
      "v": 84
    },
    {
      "midi": 79,
      "hit": false,
      "t": 97058.77500000018,
      "d": 196.07833333333838,
      "v": 84
    },
    {
      "midi": 55,
      "hit": false,
      "t": 97058.77500000042,
      "d": 196.07833333333838,
      "v": 90
    },
    {
      "midi": 62,
      "hit": false,
      "t": 97058.77500000042,
      "d": 196.07833333333838,
      "v": 90
    },
    {
      "midi": 67,
      "hit": false,
      "t": 97058.77500000042,
      "d": 196.07833333333838,
      "v": 90
    },
    {
      "midi": 58,
      "hit": false,
      "t": 97941.12750000015,
      "d": 196.07833333333838,
      "v": 87
    },
    {
      "midi": 65,
      "hit": false,
      "t": 97941.12750000015,
      "d": 196.07833333333838,
      "v": 87
    },
    {
      "midi": 70,
      "hit": false,
      "t": 97941.12750000015,
      "d": 196.07833333333838,
      "v": 87
    },
    {
      "midi": 58,
      "hit": false,
      "t": 97941.12750000038,
      "d": 196.07833333333838,
      "v": 93
    },
    {
      "midi": 65,
      "hit": false,
      "t": 97941.12750000038,
      "d": 196.07833333333838,
      "v": 93
    },
    {
      "midi": 70,
      "hit": false,
      "t": 97941.12750000038,
      "d": 196.07833333333838,
      "v": 93
    },
    {
      "midi": 60,
      "hit": false,
      "t": 98235.24500000018,
      "d": 196.07833333333838,
      "v": 84
    },
    {
      "midi": 67,
      "hit": false,
      "t": 98235.24500000018,
      "d": 196.07833333333838,
      "v": 84
    },
    {
      "midi": 72,
      "hit": false,
      "t": 98235.24500000018,
      "d": 196.07833333333838,
      "v": 84
    },
    {
      "midi": 60,
      "hit": false,
      "t": 98235.24500000039,
      "d": 196.07833333333838,
      "v": 93
    },
    {
      "midi": 67,
      "hit": false,
      "t": 98235.24500000039,
      "d": 196.07833333333838,
      "v": 93
    },
    {
      "midi": 72,
      "hit": false,
      "t": 98235.24500000039,
      "d": 196.07833333333838,
      "v": 93
    },
    {
      "midi": 53,
      "hit": false,
      "t": 98529.36250000015,
      "d": 196.07833333333838,
      "v": 87
    },
    {
      "midi": 60,
      "hit": false,
      "t": 98529.36250000015,
      "d": 196.07833333333838,
      "v": 87
    },
    {
      "midi": 65,
      "hit": false,
      "t": 98529.36250000015,
      "d": 196.07833333333838,
      "v": 87
    },
    {
      "midi": 53,
      "hit": false,
      "t": 98529.3625000004,
      "d": 196.07833333333838,
      "v": 93
    },
    {
      "midi": 60,
      "hit": false,
      "t": 98529.3625000004,
      "d": 196.07833333333838,
      "v": 93
    },
    {
      "midi": 65,
      "hit": false,
      "t": 98529.3625000004,
      "d": 196.07833333333838,
      "v": 93
    },
    {
      "midi": 74,
      "hit": false,
      "t": 98823.48000000019,
      "d": 294.117499999993,
      "v": 84
    },
    {
      "midi": 79,
      "hit": false,
      "t": 98823.48000000019,
      "d": 294.117499999993,
      "v": 84
    },
    {
      "midi": 55,
      "hit": false,
      "t": 98823.48000000042,
      "d": 196.07833333333838,
      "v": 90
    },
    {
      "midi": 62,
      "hit": false,
      "t": 98823.48000000042,
      "d": 196.07833333333838,
      "v": 90
    },
    {
      "midi": 67,
      "hit": false,
      "t": 98823.48000000042,
      "d": 196.07833333333838,
      "v": 90
    },
    {
      "midi": 55,
      "hit": false,
      "t": 99117.59750000043,
      "d": 196.07833333333838,
      "v": 90
    },
    {
      "midi": 62,
      "hit": false,
      "t": 99117.59750000043,
      "d": 196.07833333333838,
      "v": 90
    },
    {
      "midi": 67,
      "hit": false,
      "t": 99117.59750000043,
      "d": 196.07833333333838,
      "v": 90
    },
    {
      "midi": 74,
      "hit": false,
      "t": 99264.65625000017,
      "d": 98.03916666666919,
      "v": 84
    },
    {
      "midi": 79,
      "hit": false,
      "t": 99264.65625000017,
      "d": 98.03916666666919,
      "v": 84
    },
    {
      "midi": 74,
      "hit": false,
      "t": 99411.71500000016,
      "d": 98.03916666666919,
      "v": 87
    },
    {
      "midi": 79,
      "hit": false,
      "t": 99411.71500000016,
      "d": 98.03916666666919,
      "v": 87
    },
    {
      "midi": 55,
      "hit": false,
      "t": 99411.7150000004,
      "d": 196.07833333333838,
      "v": 93
    },
    {
      "midi": 62,
      "hit": false,
      "t": 99411.7150000004,
      "d": 196.07833333333838,
      "v": 93
    },
    {
      "midi": 67,
      "hit": false,
      "t": 99411.7150000004,
      "d": 196.07833333333838,
      "v": 93
    },
    {
      "midi": 74,
      "hit": false,
      "t": 99558.77375000015,
      "d": 98.03916666666919,
      "v": 87
    },
    {
      "midi": 79,
      "hit": false,
      "t": 99558.77375000015,
      "d": 98.03916666666919,
      "v": 87
    },
    {
      "midi": 74,
      "hit": false,
      "t": 99705.83250000018,
      "d": 392.1566666666622,
      "v": 84
    },
    {
      "midi": 79,
      "hit": false,
      "t": 99705.83250000018,
      "d": 392.1566666666622,
      "v": 84
    },
    {
      "midi": 55,
      "hit": false,
      "t": 99705.83250000041,
      "d": 196.07833333333838,
      "v": 93
    },
    {
      "midi": 62,
      "hit": false,
      "t": 99705.83250000041,
      "d": 196.07833333333838,
      "v": 93
    },
    {
      "midi": 67,
      "hit": false,
      "t": 99705.83250000041,
      "d": 196.07833333333838,
      "v": 93
    },
    {
      "midi": 55,
      "hit": false,
      "t": 99999.95000000043,
      "d": 196.07833333333838,
      "v": 90
    },
    {
      "midi": 62,
      "hit": false,
      "t": 99999.95000000043,
      "d": 196.07833333333838,
      "v": 90
    },
    {
      "midi": 67,
      "hit": false,
      "t": 99999.95000000043,
      "d": 196.07833333333838,
      "v": 90
    },
    {
      "midi": 74,
      "hit": false,
      "t": 100294.06750000018,
      "d": 196.07833333333838,
      "v": 84
    },
    {
      "midi": 79,
      "hit": false,
      "t": 100294.06750000018,
      "d": 196.07833333333838,
      "v": 84
    },
    {
      "midi": 55,
      "hit": false,
      "t": 100294.06750000044,
      "d": 196.07833333333838,
      "v": 90
    },
    {
      "midi": 62,
      "hit": false,
      "t": 100294.06750000044,
      "d": 196.07833333333838,
      "v": 90
    },
    {
      "midi": 67,
      "hit": false,
      "t": 100294.06750000044,
      "d": 196.07833333333838,
      "v": 90
    },
    {
      "midi": 77,
      "hit": false,
      "t": 100588.18500000016,
      "d": 294.117499999993,
      "v": 87
    },
    {
      "midi": 82,
      "hit": false,
      "t": 100588.18500000016,
      "d": 294.117499999993,
      "v": 87
    },
    {
      "midi": 58,
      "hit": false,
      "t": 100588.18500000042,
      "d": 196.07833333333838,
      "v": 93
    },
    {
      "midi": 65,
      "hit": false,
      "t": 100588.18500000042,
      "d": 196.07833333333838,
      "v": 93
    },
    {
      "midi": 70,
      "hit": false,
      "t": 100588.18500000042,
      "d": 196.07833333333838,
      "v": 93
    },
    {
      "midi": 58,
      "hit": false,
      "t": 100882.30250000043,
      "d": 196.07833333333838,
      "v": 93
    },
    {
      "midi": 65,
      "hit": false,
      "t": 100882.30250000043,
      "d": 196.07833333333838,
      "v": 93
    },
    {
      "midi": 70,
      "hit": false,
      "t": 100882.30250000043,
      "d": 196.07833333333838,
      "v": 93
    },
    {
      "midi": 77,
      "hit": false,
      "t": 101029.36125000015,
      "d": 98.03916666666919,
      "v": 87
    },
    {
      "midi": 82,
      "hit": false,
      "t": 101029.36125000015,
      "d": 98.03916666666919,
      "v": 87
    },
    {
      "midi": 77,
      "hit": false,
      "t": 101176.42000000019,
      "d": 196.07833333333838,
      "v": 84
    },
    {
      "midi": 82,
      "hit": false,
      "t": 101176.42000000019,
      "d": 196.07833333333838,
      "v": 84
    },
    {
      "midi": 58,
      "hit": false,
      "t": 101176.42000000045,
      "d": 196.07833333333838,
      "v": 90
    },
    {
      "midi": 65,
      "hit": false,
      "t": 101176.42000000045,
      "d": 196.07833333333838,
      "v": 90
    },
    {
      "midi": 70,
      "hit": false,
      "t": 101176.42000000045,
      "d": 196.07833333333838,
      "v": 90
    },
    {
      "midi": 77,
      "hit": false,
      "t": 101470.5375000002,
      "d": 588.2350000000006,
      "v": 84
    },
    {
      "midi": 82,
      "hit": false,
      "t": 101470.5375000002,
      "d": 588.2350000000006,
      "v": 84
    },
    {
      "midi": 58,
      "hit": false,
      "t": 101470.53750000046,
      "d": 196.07833333333838,
      "v": 90
    },
    {
      "midi": 65,
      "hit": false,
      "t": 101470.53750000046,
      "d": 196.07833333333838,
      "v": 90
    },
    {
      "midi": 70,
      "hit": false,
      "t": 101470.53750000046,
      "d": 196.07833333333838,
      "v": 90
    },
    {
      "midi": 58,
      "hit": false,
      "t": 101764.65500000044,
      "d": 196.07833333333838,
      "v": 93
    },
    {
      "midi": 65,
      "hit": false,
      "t": 101764.65500000044,
      "d": 196.07833333333838,
      "v": 93
    },
    {
      "midi": 70,
      "hit": false,
      "t": 101764.65500000044,
      "d": 196.07833333333838,
      "v": 93
    },
    {
      "midi": 58,
      "hit": false,
      "t": 102058.77250000044,
      "d": 196.07833333333838,
      "v": 93
    },
    {
      "midi": 65,
      "hit": false,
      "t": 102058.77250000044,
      "d": 196.07833333333838,
      "v": 93
    },
    {
      "midi": 70,
      "hit": false,
      "t": 102058.77250000044,
      "d": 196.07833333333838,
      "v": 93
    },
    {
      "midi": 57,
      "hit": false,
      "t": 102352.89000000014,
      "d": 392.1566666666622,
      "v": 87
    },
    {
      "midi": 64,
      "hit": false,
      "t": 102352.89000000014,
      "d": 392.1566666666622,
      "v": 87
    },
    {
      "midi": 57,
      "hit": false,
      "t": 102352.89000000045,
      "d": 196.07833333333838,
      "v": 93
    },
    {
      "midi": 64,
      "hit": false,
      "t": 102647.00750000046,
      "d": 196.07833333333838,
      "v": 93
    },
    {
      "midi": 57,
      "hit": false,
      "t": 102941.12500000015,
      "d": 196.07833333333838,
      "v": 87
    },
    {
      "midi": 64,
      "hit": false,
      "t": 102941.12500000015,
      "d": 196.07833333333838,
      "v": 87
    },
    {
      "midi": 69,
      "hit": false,
      "t": 102941.12500000047,
      "d": 196.07833333333838,
      "v": 90
    },
    {
      "midi": 57,
      "hit": false,
      "t": 103235.2425000002,
      "d": 392.1566666666622,
      "v": 84
    },
    {
      "midi": 66,
      "hit": false,
      "t": 103235.2425000002,
      "d": 392.1566666666622,
      "v": 84
    },
    {
      "midi": 76,
      "hit": false,
      "t": 103235.24250000047,
      "d": 196.07833333333838,
      "v": 90
    },
    {
      "midi": 73,
      "hit": false,
      "t": 103529.36000000047,
      "d": 196.07833333333838,
      "v": 93
    },
    {
      "midi": 57,
      "hit": false,
      "t": 103823.4775000002,
      "d": 196.07833333333838,
      "v": 84
    },
    {
      "midi": 64,
      "hit": false,
      "t": 103823.4775000002,
      "d": 196.07833333333838,
      "v": 84
    },
    {
      "midi": 67,
      "hit": false,
      "t": 103823.47750000047,
      "d": 196.07833333333838,
      "v": 93
    },
    {
      "midi": 64,
      "hit": false,
      "t": 104117.59500000015,
      "d": 392.1566666666622,
      "v": 87
    },
    {
      "midi": 71,
      "hit": false,
      "t": 104117.59500000015,
      "d": 392.1566666666622,
      "v": 87
    },
    {
      "midi": 52,
      "hit": false,
      "t": 104117.59500000048,
      "d": 196.07833333333838,
      "v": 90
    },
    {
      "midi": 68,
      "hit": false,
      "t": 104117.59500000048,
      "d": 196.07833333333838,
      "v": 90
    },
    {
      "midi": 64,
      "hit": false,
      "t": 104411.71250000049,
      "d": 196.07833333333838,
      "v": 90
    },
    {
      "midi": 64,
      "hit": false,
      "t": 104705.83000000015,
      "d": 196.07833333333838,
      "v": 87
    },
    {
      "midi": 71,
      "hit": false,
      "t": 104705.83000000015,
      "d": 196.07833333333838,
      "v": 87
    },
    {
      "midi": 68,
      "hit": false,
      "t": 104705.83000000048,
      "d": 196.07833333333838,
      "v": 93
    },
    {
      "midi": 64,
      "hit": false,
      "t": 104999.9475000002,
      "d": 392.1566666666622,
      "v": 84
    },
    {
      "midi": 73,
      "hit": false,
      "t": 104999.9475000002,
      "d": 392.1566666666622,
      "v": 84
    },
    {
      "midi": 76,
      "hit": false,
      "t": 104999.94750000049,
      "d": 196.07833333333838,
      "v": 93
    },
    {
      "midi": 71,
      "hit": false,
      "t": 105294.0650000005,
      "d": 196.07833333333838,
      "v": 90
    },
    {
      "midi": 64,
      "hit": false,
      "t": 105588.1825000002,
      "d": 196.07833333333838,
      "v": 84
    },
    {
      "midi": 71,
      "hit": false,
      "t": 105588.1825000002,
      "d": 196.07833333333838,
      "v": 84
    },
    {
      "midi": 67,
      "hit": false,
      "t": 105588.1825000005,
      "d": 196.07833333333838,
      "v": 90
    },
    {
      "midi": 66,
      "hit": false,
      "t": 105882.30000000015,
      "d": 392.1566666666622,
      "v": 87
    },
    {
      "midi": 73,
      "hit": false,
      "t": 105882.30000000015,
      "d": 392.1566666666622,
      "v": 87
    },
    {
      "midi": 54,
      "hit": false,
      "t": 105882.3000000005,
      "d": 196.07833333333838,
      "v": 93
    },
    {
      "midi": 73,
      "hit": false,
      "t": 106176.4175000005,
      "d": 196.07833333333838,
      "v": 93
    },
    {
      "midi": 66,
      "hit": false,
      "t": 106470.53500000015,
      "d": 196.07833333333838,
      "v": 87
    },
    {
      "midi": 73,
      "hit": false,
      "t": 106470.53500000015,
      "d": 196.07833333333838,
      "v": 87
    },
    {
      "midi": 69,
      "hit": false,
      "t": 106470.53500000051,
      "d": 196.07833333333838,
      "v": 90
    },
    {
      "midi": 66,
      "hit": false,
      "t": 106764.6525000002,
      "d": 392.1566666666622,
      "v": 84
    },
    {
      "midi": 73,
      "hit": false,
      "t": 106764.6525000002,
      "d": 392.1566666666622,
      "v": 84
    },
    {
      "midi": 78,
      "hit": false,
      "t": 106764.65250000052,
      "d": 196.07833333333838,
      "v": 90
    },
    {
      "midi": 73,
      "hit": false,
      "t": 107058.77000000051,
      "d": 196.07833333333838,
      "v": 93
    },
    {
      "midi": 66,
      "hit": false,
      "t": 107352.8875000002,
      "d": 196.07833333333838,
      "v": 84
    },
    {
      "midi": 73,
      "hit": false,
      "t": 107352.8875000002,
      "d": 196.07833333333838,
      "v": 84
    },
    {
      "midi": 66,
      "hit": false,
      "t": 107352.88750000052,
      "d": 196.07833333333838,
      "v": 93
    },
    {
      "midi": 61,
      "hit": false,
      "t": 107647.00500000015,
      "d": 392.1566666666622,
      "v": 87
    },
    {
      "midi": 68,
      "hit": false,
      "t": 107647.00500000015,
      "d": 392.1566666666622,
      "v": 87
    },
    {
      "midi": 61,
      "hit": false,
      "t": 107647.00500000053,
      "d": 196.07833333333838,
      "v": 90
    },
    {
      "midi": 68,
      "hit": false,
      "t": 107941.12250000054,
      "d": 196.07833333333838,
      "v": 90
    },
    {
      "midi": 61,
      "hit": false,
      "t": 108235.24000000015,
      "d": 196.07833333333838,
      "v": 87
    },
    {
      "midi": 68,
      "hit": false,
      "t": 108235.24000000015,
      "d": 196.07833333333838,
      "v": 87
    },
    {
      "midi": 73,
      "hit": false,
      "t": 108235.24000000053,
      "d": 196.07833333333838,
      "v": 93
    },
    {
      "midi": 61,
      "hit": false,
      "t": 108529.3575000002,
      "d": 392.1566666666622,
      "v": 84
    },
    {
      "midi": 68,
      "hit": false,
      "t": 108529.3575000002,
      "d": 392.1566666666622,
      "v": 84
    },
    {
      "midi": 76,
      "hit": false,
      "t": 108529.35750000054,
      "d": 196.07833333333838,
      "v": 93
    },
    {
      "midi": 73,
      "hit": false,
      "t": 108823.47500000054,
      "d": 196.07833333333838,
      "v": 90
    },
    {
      "midi": 61,
      "hit": false,
      "t": 109117.5925000002,
      "d": 196.07833333333838,
      "v": 84
    },
    {
      "midi": 68,
      "hit": false,
      "t": 109117.5925000002,
      "d": 196.07833333333838,
      "v": 84
    },
    {
      "midi": 62,
      "hit": false,
      "t": 109117.59250000055,
      "d": 196.07833333333838,
      "v": 90
    },
    {
      "midi": 62,
      "hit": false,
      "t": 109411.71000000015,
      "d": 392.1566666666622,
      "v": 87
    },
    {
      "midi": 69,
      "hit": false,
      "t": 109411.71000000015,
      "d": 392.1566666666622,
      "v": 87
    },
    {
      "midi": 62,
      "hit": false,
      "t": 109411.71000000054,
      "d": 196.07833333333838,
      "v": 93
    },
    {
      "midi": 69,
      "hit": false,
      "t": 109705.82750000055,
      "d": 196.07833333333838,
      "v": 93
    },
    {
      "midi": 62,
      "hit": false,
      "t": 109999.94500000015,
      "d": 196.07833333333838,
      "v": 87
    },
    {
      "midi": 69,
      "hit": false,
      "t": 109999.94500000015,
      "d": 196.07833333333838,
      "v": 87
    },
    {
      "midi": 81,
      "hit": false,
      "t": 109999.94500000056,
      "d": 196.07833333333838,
      "v": 90
    },
    {
      "midi": 62,
      "hit": false,
      "t": 110294.0625000002,
      "d": 392.1566666666622,
      "v": 84
    },
    {
      "midi": 71,
      "hit": false,
      "t": 110294.0625000002,
      "d": 392.1566666666622,
      "v": 84
    },
    {
      "midi": 78,
      "hit": false,
      "t": 110294.06250000057,
      "d": 196.07833333333838,
      "v": 90
    },
    {
      "midi": 74,
      "hit": false,
      "t": 110588.18000000056,
      "d": 196.07833333333838,
      "v": 93
    },
    {
      "midi": 62,
      "hit": false,
      "t": 110882.2975000002,
      "d": 196.07833333333838,
      "v": 84
    },
    {
      "midi": 69,
      "hit": false,
      "t": 110882.2975000002,
      "d": 196.07833333333838,
      "v": 84
    },
    {
      "midi": 62,
      "hit": false,
      "t": 110882.29750000057,
      "d": 196.07833333333838,
      "v": 93
    },
    {
      "midi": 57,
      "hit": false,
      "t": 111176.41500000015,
      "d": 392.1566666666622,
      "v": 87
    },
    {
      "midi": 64,
      "hit": false,
      "t": 111176.41500000015,
      "d": 392.1566666666622,
      "v": 87
    },
    {
      "midi": 57,
      "hit": false,
      "t": 111176.41500000058,
      "d": 196.07833333333838,
      "v": 90
    },
    {
      "midi": 64,
      "hit": false,
      "t": 111470.53250000058,
      "d": 196.07833333333838,
      "v": 90
    },
    {
      "midi": 57,
      "hit": false,
      "t": 111764.65000000015,
      "d": 196.07833333333838,
      "v": 87
    },
    {
      "midi": 64,
      "hit": false,
      "t": 111764.65000000015,
      "d": 196.07833333333838,
      "v": 87
    },
    {
      "midi": 73,
      "hit": false,
      "t": 111764.65000000058,
      "d": 196.07833333333838,
      "v": 93
    },
    {
      "midi": 81,
      "hit": false,
      "t": 111764.65000000058,
      "d": 196.07833333333838,
      "v": 93
    },
    {
      "midi": 57,
      "hit": false,
      "t": 112058.7675000002,
      "d": 392.1566666666622,
      "v": 84
    },
    {
      "midi": 66,
      "hit": false,
      "t": 112058.7675000002,
      "d": 392.1566666666622,
      "v": 84
    },
    {
      "midi": 76,
      "hit": false,
      "t": 112058.76750000058,
      "d": 196.07833333333838,
      "v": 93
    },
    {
      "midi": 73,
      "hit": false,
      "t": 112352.88500000059,
      "d": 196.07833333333838,
      "v": 90
    },
    {
      "midi": 57,
      "hit": false,
      "t": 112647.0025000002,
      "d": 196.07833333333838,
      "v": 84
    },
    {
      "midi": 64,
      "hit": false,
      "t": 112647.0025000002,
      "d": 196.07833333333838,
      "v": 84
    },
    {
      "midi": 62,
      "hit": false,
      "t": 112647.0025000006,
      "d": 196.07833333333838,
      "v": 90
    },
    {
      "midi": 52,
      "hit": false,
      "t": 112941.12000000016,
      "d": 196.07833333333838,
      "v": 87
    },
    {
      "midi": 52,
      "hit": false,
      "t": 112941.12000000059,
      "d": 196.07833333333838,
      "v": 93
    },
    {
      "midi": 64,
      "hit": false,
      "t": 113235.23750000016,
      "d": 392.1566666666622,
      "v": 87
    },
    {
      "midi": 71,
      "hit": false,
      "t": 113235.23750000016,
      "d": 392.1566666666622,
      "v": 87
    },
    {
      "midi": 64,
      "hit": false,
      "t": 113235.2375000006,
      "d": 196.07833333333838,
      "v": 93
    },
    {
      "midi": 68,
      "hit": false,
      "t": 113529.3550000006,
      "d": 196.07833333333838,
      "v": 90
    },
    {
      "midi": 56,
      "hit": false,
      "t": 113823.4725000002,
      "d": 196.07833333333838,
      "v": 84
    },
    {
      "midi": 76,
      "hit": false,
      "t": 113823.47250000061,
      "d": 196.07833333333838,
      "v": 90
    },
    {
      "midi": 64,
      "hit": false,
      "t": 114117.59000000021,
      "d": 196.07833333333838,
      "v": 84
    },
    {
      "midi": 71,
      "hit": false,
      "t": 114117.59000000021,
      "d": 196.07833333333838,
      "v": 84
    },
    {
      "midi": 71,
      "hit": false,
      "t": 114117.59000000061,
      "d": 196.07833333333838,
      "v": 93
    },
    {
      "midi": 54,
      "hit": false,
      "t": 114411.70750000016,
      "d": 98.03916666666919,
      "v": 87
    },
    {
      "midi": 68,
      "hit": false,
      "t": 114411.70750000062,
      "d": 196.07833333333838,
      "v": 93
    },
    {
      "midi": 54,
      "hit": false,
      "t": 114558.76625000016,
      "d": 98.03916666666919,
      "v": 87
    },
    {
      "midi": 52,
      "hit": false,
      "t": 114705.82500000022,
      "d": 196.07833333333838,
      "v": 84
    },
    {
      "midi": 52,
      "hit": false,
      "t": 114705.82500000062,
      "d": 196.07833333333838,
      "v": 90
    },
    {
      "midi": 64,
      "hit": false,
      "t": 114999.94250000016,
      "d": 392.1566666666622,
      "v": 87
    },
    {
      "midi": 71,
      "hit": false,
      "t": 114999.94250000016,
      "d": 392.1566666666622,
      "v": 87
    },
    {
      "midi": 76,
      "hit": false,
      "t": 114999.94250000016,
      "d": 392.1566666666622,
      "v": 87
    },
    {
      "midi": 64,
      "hit": false,
      "t": 114999.94250000063,
      "d": 196.07833333333838,
      "v": 90
    },
    {
      "midi": 68,
      "hit": false,
      "t": 115294.06000000062,
      "d": 196.07833333333838,
      "v": 93
    },
    {
      "midi": 59,
      "hit": false,
      "t": 115588.17750000022,
      "d": 98.03916666666919,
      "v": 84
    },
    {
      "midi": 64,
      "hit": false,
      "t": 115588.17750000022,
      "d": 98.03916666666919,
      "v": 84
    },
    {
      "midi": 71,
      "hit": false,
      "t": 115588.17750000022,
      "d": 98.03916666666919,
      "v": 84
    },
    {
      "midi": 76,
      "hit": false,
      "t": 115588.17750000022,
      "d": 98.03916666666919,
      "v": 84
    },
    {
      "midi": 76,
      "hit": false,
      "t": 115588.17750000063,
      "d": 196.07833333333838,
      "v": 93
    },
    {
      "midi": 61,
      "hit": false,
      "t": 115735.23625000022,
      "d": 98.03916666666919,
      "v": 84
    },
    {
      "midi": 64,
      "hit": false,
      "t": 115882.29500000022,
      "d": 392.1566666666622,
      "v": 84
    },
    {
      "midi": 71,
      "hit": false,
      "t": 115882.29500000064,
      "d": 196.07833333333838,
      "v": 90
    },
    {
      "midi": 68,
      "hit": false,
      "t": 116176.41250000065,
      "d": 196.07833333333838,
      "v": 90
    },
    {
      "midi": 57,
      "hit": false,
      "t": 116470.53000000016,
      "d": 392.1566666666622,
      "v": 87
    },
    {
      "midi": 64,
      "hit": false,
      "t": 116470.53000000016,
      "d": 392.1566666666622,
      "v": 87
    },
    {
      "midi": 80,
      "hit": false,
      "t": 116470.53000000064,
      "d": 1176.4700000000012,
      "v": 93
    },
    {
      "midi": 83,
      "hit": false,
      "t": 116470.53000000064,
      "d": 1176.4700000000012,
      "v": 93
    },
    {
      "midi": 57,
      "hit": false,
      "t": 117058.76500000016,
      "d": 196.07833333333838,
      "v": 87
    },
    {
      "midi": 64,
      "hit": false,
      "t": 117058.76500000016,
      "d": 196.07833333333838,
      "v": 87
    },
    {
      "midi": 57,
      "hit": false,
      "t": 117352.88250000021,
      "d": 392.1566666666622,
      "v": 84
    },
    {
      "midi": 66,
      "hit": false,
      "t": 117352.88250000021,
      "d": 392.1566666666622,
      "v": 84
    },
    {
      "midi": 57,
      "hit": false,
      "t": 117941.11750000021,
      "d": 196.07833333333838,
      "v": 84
    },
    {
      "midi": 64,
      "hit": false,
      "t": 117941.11750000021,
      "d": 196.07833333333838,
      "v": 84
    },
    {
      "midi": 64,
      "hit": false,
      "t": 118235.23500000016,
      "d": 392.1566666666622,
      "v": 87
    },
    {
      "midi": 71,
      "hit": false,
      "t": 118235.23500000016,
      "d": 392.1566666666622,
      "v": 87
    },
    {
      "midi": 80,
      "hit": false,
      "t": 118235.23500000066,
      "d": 1176.4700000000012,
      "v": 90
    },
    {
      "midi": 83,
      "hit": false,
      "t": 118235.23500000066,
      "d": 1176.4700000000012,
      "v": 90
    },
    {
      "midi": 64,
      "hit": false,
      "t": 118823.47000000016,
      "d": 196.07833333333838,
      "v": 87
    },
    {
      "midi": 71,
      "hit": false,
      "t": 118823.47000000016,
      "d": 196.07833333333838,
      "v": 87
    },
    {
      "midi": 64,
      "hit": false,
      "t": 119117.58750000021,
      "d": 392.1566666666622,
      "v": 84
    },
    {
      "midi": 73,
      "hit": false,
      "t": 119117.58750000021,
      "d": 392.1566666666622,
      "v": 84
    },
    {
      "midi": 64,
      "hit": false,
      "t": 119705.82250000021,
      "d": 196.07833333333838,
      "v": 84
    },
    {
      "midi": 71,
      "hit": false,
      "t": 119705.82250000021,
      "d": 196.07833333333838,
      "v": 84
    },
    {
      "midi": 54,
      "hit": false,
      "t": 119999.94000000016,
      "d": 588.2350000000006,
      "v": 87
    },
    {
      "midi": 61,
      "hit": false,
      "t": 119999.94000000016,
      "d": 588.2350000000006,
      "v": 87
    },
    {
      "midi": 76,
      "hit": false,
      "t": 119999.94000000064,
      "d": 1176.4700000000012,
      "v": 93
    },
    {
      "midi": 80,
      "hit": false,
      "t": 119999.94000000064,
      "d": 1176.4700000000012,
      "v": 93
    },
    {
      "midi": 54,
      "hit": false,
      "t": 120882.29250000021,
      "d": 588.2350000000006,
      "v": 84
    },
    {
      "midi": 61,
      "hit": false,
      "t": 120882.29250000021,
      "d": 588.2350000000006,
      "v": 84
    },
    {
      "midi": 61,
      "hit": false,
      "t": 121764.64500000016,
      "d": 588.2350000000006,
      "v": 87
    },
    {
      "midi": 68,
      "hit": false,
      "t": 121764.64500000016,
      "d": 588.2350000000006,
      "v": 87
    },
    {
      "midi": 76,
      "hit": false,
      "t": 121764.64500000066,
      "d": 1176.4700000000012,
      "v": 90
    },
    {
      "midi": 80,
      "hit": false,
      "t": 121764.64500000066,
      "d": 1176.4700000000012,
      "v": 90
    },
    {
      "midi": 61,
      "hit": false,
      "t": 122646.99750000022,
      "d": 588.2350000000006,
      "v": 84
    },
    {
      "midi": 68,
      "hit": false,
      "t": 122646.99750000022,
      "d": 588.2350000000006,
      "v": 84
    },
    {
      "midi": 62,
      "hit": false,
      "t": 123529.35000000021,
      "d": 196.07833333333838,
      "v": 84
    },
    {
      "midi": 69,
      "hit": false,
      "t": 123529.35000000021,
      "d": 196.07833333333838,
      "v": 84
    },
    {
      "midi": 73,
      "hit": false,
      "t": 123529.35000000065,
      "d": 1176.4700000000012,
      "v": 93
    },
    {
      "midi": 76,
      "hit": false,
      "t": 123529.35000000065,
      "d": 1176.4700000000012,
      "v": 93
    },
    {
      "midi": 62,
      "hit": false,
      "t": 123823.46750000016,
      "d": 98.03916666666919,
      "v": 87
    },
    {
      "midi": 69,
      "hit": false,
      "t": 123823.46750000016,
      "d": 98.03916666666919,
      "v": 87
    },
    {
      "midi": 62,
      "hit": false,
      "t": 123970.52625000016,
      "d": 98.03916666666919,
      "v": 87
    },
    {
      "midi": 69,
      "hit": false,
      "t": 123970.52625000016,
      "d": 98.03916666666919,
      "v": 87
    },
    {
      "midi": 62,
      "hit": false,
      "t": 124117.58500000015,
      "d": 196.07833333333838,
      "v": 87
    },
    {
      "midi": 69,
      "hit": false,
      "t": 124117.58500000015,
      "d": 196.07833333333838,
      "v": 87
    },
    {
      "midi": 62,
      "hit": false,
      "t": 124411.70250000022,
      "d": 392.1566666666622,
      "v": 84
    },
    {
      "midi": 71,
      "hit": false,
      "t": 124411.70250000022,
      "d": 392.1566666666622,
      "v": 84
    },
    {
      "midi": 62,
      "hit": false,
      "t": 124999.93750000022,
      "d": 196.07833333333838,
      "v": 84
    },
    {
      "midi": 69,
      "hit": false,
      "t": 124999.93750000022,
      "d": 196.07833333333838,
      "v": 84
    },
    {
      "midi": 57,
      "hit": false,
      "t": 125294.05500000015,
      "d": 392.1566666666622,
      "v": 87
    },
    {
      "midi": 64,
      "hit": false,
      "t": 125294.05500000015,
      "d": 392.1566666666622,
      "v": 87
    },
    {
      "midi": 73,
      "hit": false,
      "t": 125294.05500000066,
      "d": 1176.4700000000012,
      "v": 90
    },
    {
      "midi": 76,
      "hit": false,
      "t": 125294.05500000066,
      "d": 1176.4700000000012,
      "v": 90
    },
    {
      "midi": 57,
      "hit": false,
      "t": 125882.29000000015,
      "d": 196.07833333333838,
      "v": 87
    },
    {
      "midi": 64,
      "hit": false,
      "t": 125882.29000000015,
      "d": 196.07833333333838,
      "v": 87
    },
    {
      "midi": 57,
      "hit": false,
      "t": 126176.40750000022,
      "d": 392.1566666666622,
      "v": 84
    },
    {
      "midi": 66,
      "hit": false,
      "t": 126176.40750000022,
      "d": 392.1566666666622,
      "v": 84
    },
    {
      "midi": 57,
      "hit": false,
      "t": 126764.64250000022,
      "d": 196.07833333333838,
      "v": 84
    },
    {
      "midi": 64,
      "hit": false,
      "t": 126764.64250000022,
      "d": 196.07833333333838,
      "v": 84
    },
    {
      "midi": 61,
      "hit": false,
      "t": 127058.76000000015,
      "d": 196.07833333333838,
      "v": 87
    },
    {
      "midi": 71,
      "hit": false,
      "t": 127058.76000000065,
      "d": 1574.7541145833384,
      "v": 93
    },
    {
      "midi": 76,
      "hit": false,
      "t": 127058.76000000065,
      "d": 1574.7541145833384,
      "v": 93
    },
    {
      "midi": 64,
      "hit": false,
      "t": 127352.87750000016,
      "d": 196.07833333333838,
      "v": 87
    },
    {
      "midi": 52,
      "hit": false,
      "t": 127646.99500000017,
      "d": 196.07833333333838,
      "v": 87
    },
    {
      "midi": 52,
      "hit": false,
      "t": 127941.11250000018,
      "d": 392.1566666666622,
      "v": 87
    },
    {
      "midi": 59,
      "hit": false,
      "t": 127941.11250000018,
      "d": 392.1566666666622,
      "v": 87
    },
    {
      "midi": 64,
      "hit": false,
      "t": 127941.11250000018,
      "d": 392.1566666666622,
      "v": 87
    },
    {
      "midi": 71,
      "hit": false,
      "t": 127941.11250000018,
      "d": 392.1566666666622,
      "v": 87
    },
    {
      "midi": 52,
      "hit": false,
      "t": 128529.34750000022,
      "d": 196.07833333333838,
      "v": 84
    },
    {
      "midi": 59,
      "hit": false,
      "t": 128529.34750000022,
      "d": 196.07833333333838,
      "v": 84
    },
    {
      "midi": 64,
      "hit": false,
      "t": 128529.34750000022,
      "d": 196.07833333333838,
      "v": 84
    },
    {
      "midi": 71,
      "hit": false,
      "t": 128529.34750000022,
      "d": 196.07833333333838,
      "v": 84
    },
    {
      "midi": 52,
      "hit": false,
      "t": 128823.46500000017,
      "d": 196.07833333333838,
      "v": 87
    },
    {
      "midi": 59,
      "hit": false,
      "t": 128823.46500000017,
      "d": 196.07833333333838,
      "v": 87
    },
    {
      "midi": 64,
      "hit": false,
      "t": 128823.46500000017,
      "d": 196.07833333333838,
      "v": 87
    },
    {
      "midi": 71,
      "hit": false,
      "t": 128823.46500000017,
      "d": 196.07833333333838,
      "v": 87
    },
    {
      "midi": 52,
      "hit": false,
      "t": 129117.58250000022,
      "d": 196.07833333333838,
      "v": 84
    },
    {
      "midi": 59,
      "hit": false,
      "t": 129117.58250000022,
      "d": 196.07833333333838,
      "v": 84
    },
    {
      "midi": 64,
      "hit": false,
      "t": 129117.58250000022,
      "d": 196.07833333333838,
      "v": 84
    },
    {
      "midi": 71,
      "hit": false,
      "t": 129117.58250000022,
      "d": 196.07833333333838,
      "v": 84
    },
    {
      "midi": 52,
      "hit": false,
      "t": 129411.70000000017,
      "d": 196.07833333333838,
      "v": 87
    },
    {
      "midi": 59,
      "hit": false,
      "t": 129411.70000000017,
      "d": 196.07833333333838,
      "v": 87
    },
    {
      "midi": 64,
      "hit": false,
      "t": 129411.70000000017,
      "d": 196.07833333333838,
      "v": 87
    },
    {
      "midi": 71,
      "hit": false,
      "t": 129411.70000000017,
      "d": 196.07833333333838,
      "v": 87
    },
    {
      "midi": 52,
      "hit": false,
      "t": 129705.81750000022,
      "d": 588.2350000000006,
      "v": 84
    },
    {
      "midi": 59,
      "hit": false,
      "t": 129705.81750000022,
      "d": 588.2350000000006,
      "v": 84
    },
    {
      "midi": 64,
      "hit": false,
      "t": 129705.81750000022,
      "d": 588.2350000000006,
      "v": 84
    },
    {
      "midi": 71,
      "hit": false,
      "t": 129705.81750000022,
      "d": 588.2350000000006,
      "v": 84
    },
    {
      "midi": 71,
      "hit": false,
      "t": 129705.81750000066,
      "d": 588.2350000000006,
      "v": 90
    },
    {
      "midi": 76,
      "hit": false,
      "t": 129705.81750000066,
      "d": 588.2350000000006,
      "v": 90
    },
    {
      "midi": 55,
      "hit": false,
      "t": 130588.17000000017,
      "d": 392.1566666666622,
      "v": 87
    },
    {
      "midi": 62,
      "hit": false,
      "t": 130588.17000000017,
      "d": 392.1566666666622,
      "v": 87
    },
    {
      "midi": 55,
      "hit": false,
      "t": 130588.17000000065,
      "d": 196.07833333333838,
      "v": 93
    },
    {
      "midi": 74,
      "hit": false,
      "t": 130588.17000000065,
      "d": 1176.469999999972,
      "v": 90
    },
    {
      "midi": 62,
      "hit": false,
      "t": 130882.28750000066,
      "d": 196.07833333332383,
      "v": 93
    },
    {
      "midi": 55,
      "hit": false,
      "t": 131176.40500000017,
      "d": 196.07833333333838,
      "v": 87
    },
    {
      "midi": 62,
      "hit": false,
      "t": 131176.40500000017,
      "d": 196.07833333333838,
      "v": 87
    },
    {
      "midi": 67,
      "hit": false,
      "t": 131176.40500000064,
      "d": 196.07833333333838,
      "v": 90
    },
    {
      "midi": 58,
      "hit": false,
      "t": 131470.52250000022,
      "d": 196.07833333333838,
      "v": 84
    },
    {
      "midi": 79,
      "hit": false,
      "t": 131470.52250000063,
      "d": 196.07833333333838,
      "v": 90
    },
    {
      "midi": 59,
      "hit": false,
      "t": 131764.64000000022,
      "d": 196.07833333333838,
      "v": 84
    },
    {
      "midi": 74,
      "hit": false,
      "t": 131764.64000000065,
      "d": 196.07833333333838,
      "v": 93
    },
    {
      "midi": 62,
      "hit": false,
      "t": 132058.7575000002,
      "d": 196.07833333333838,
      "v": 84
    },
    {
      "midi": 67,
      "hit": false,
      "t": 132058.75750000065,
      "d": 196.07833333333838,
      "v": 93
    },
    {
      "midi": 62,
      "hit": false,
      "t": 132352.8750000002,
      "d": 392.15666666667676,
      "v": 84
    },
    {
      "midi": 69,
      "hit": false,
      "t": 132352.8750000002,
      "d": 392.15666666667676,
      "v": 84
    },
    {
      "midi": 62,
      "hit": false,
      "t": 132352.8750000006,
      "d": 196.07833333333838,
      "v": 90
    },
    {
      "midi": 69,
      "hit": false,
      "t": 132646.9925000006,
      "d": 196.07833333333838,
      "v": 90
    },
    {
      "midi": 62,
      "hit": false,
      "t": 132941.1100000002,
      "d": 196.07833333333838,
      "v": 87
    },
    {
      "midi": 69,
      "hit": false,
      "t": 132941.1100000002,
      "d": 196.07833333333838,
      "v": 87
    },
    {
      "midi": 74,
      "hit": false,
      "t": 132941.11000000066,
      "d": 196.07833333333838,
      "v": 93
    },
    {
      "midi": 65,
      "hit": false,
      "t": 133235.22750000018,
      "d": 196.07833333333838,
      "v": 87
    },
    {
      "midi": 69,
      "hit": false,
      "t": 133235.22750000018,
      "d": 196.07833333333838,
      "v": 87
    },
    {
      "midi": 78,
      "hit": false,
      "t": 133235.22750000065,
      "d": 196.07833333333838,
      "v": 93
    },
    {
      "midi": 66,
      "hit": false,
      "t": 133529.34500000018,
      "d": 196.07833333333838,
      "v": 87
    },
    {
      "midi": 74,
      "hit": false,
      "t": 133529.3450000006,
      "d": 196.07833333333838,
      "v": 90
    },
    {
      "midi": 69,
      "hit": false,
      "t": 133823.46250000023,
      "d": 196.07833333333838,
      "v": 84
    },
    {
      "midi": 74,
      "hit": false,
      "t": 133823.46250000023,
      "d": 196.07833333333838,
      "v": 84
    },
    {
      "midi": 67,
      "hit": false,
      "t": 133823.4625000006,
      "d": 196.07833333333838,
      "v": 90
    },
    {
      "midi": 55,
      "hit": false,
      "t": 134117.58000000022,
      "d": 392.15666666667676,
      "v": 84
    },
    {
      "midi": 62,
      "hit": false,
      "t": 134117.58000000022,
      "d": 392.15666666667676,
      "v": 84
    },
    {
      "midi": 55,
      "hit": false,
      "t": 134117.58000000066,
      "d": 196.07833333333838,
      "v": 93
    },
    {
      "midi": 62,
      "hit": false,
      "t": 134411.69750000065,
      "d": 196.07833333333838,
      "v": 93
    },
    {
      "midi": 55,
      "hit": false,
      "t": 134705.81500000018,
      "d": 196.07833333333838,
      "v": 87
    },
    {
      "midi": 62,
      "hit": false,
      "t": 134705.81500000018,
      "d": 196.07833333333838,
      "v": 87
    },
    {
      "midi": 67,
      "hit": false,
      "t": 134705.8150000006,
      "d": 196.07833333333838,
      "v": 90
    },
    {
      "midi": 58,
      "hit": false,
      "t": 134999.93250000017,
      "d": 196.07833333333838,
      "v": 87
    },
    {
      "midi": 79,
      "hit": false,
      "t": 134999.9325000006,
      "d": 196.07833333333838,
      "v": 90
    },
    {
      "midi": 59,
      "hit": false,
      "t": 135294.05000000016,
      "d": 196.07833333333838,
      "v": 87
    },
    {
      "midi": 74,
      "hit": false,
      "t": 135294.05000000066,
      "d": 196.07833333333838,
      "v": 93
    },
    {
      "midi": 62,
      "hit": false,
      "t": 135588.16750000016,
      "d": 196.07833333333838,
      "v": 87
    },
    {
      "midi": 67,
      "hit": false,
      "t": 135588.16750000065,
      "d": 196.07833333333838,
      "v": 93
    },
    {
      "midi": 62,
      "hit": false,
      "t": 135882.28500000024,
      "d": 196.07833333333838,
      "v": 84
    },
    {
      "midi": 69,
      "hit": false,
      "t": 135882.28500000024,
      "d": 196.07833333333838,
      "v": 84
    },
    {
      "midi": 62,
      "hit": false,
      "t": 135882.28500000061,
      "d": 196.07833333333838,
      "v": 90
    },
    {
      "midi": 65,
      "hit": false,
      "t": 136176.40250000023,
      "d": 196.07833333333838,
      "v": 84
    },
    {
      "midi": 69,
      "hit": false,
      "t": 136176.4025000006,
      "d": 196.07833333333838,
      "v": 90
    },
    {
      "midi": 66,
      "hit": false,
      "t": 136470.52000000022,
      "d": 196.07833333333838,
      "v": 84
    },
    {
      "midi": 74,
      "hit": false,
      "t": 136470.52000000066,
      "d": 196.07833333333838,
      "v": 93
    },
    {
      "midi": 69,
      "hit": false,
      "t": 136764.63750000022,
      "d": 196.07833333333838,
      "v": 84
    },
    {
      "midi": 74,
      "hit": false,
      "t": 136764.63750000022,
      "d": 196.07833333333838,
      "v": 84
    },
    {
      "midi": 78,
      "hit": false,
      "t": 136764.63750000065,
      "d": 196.07833333333838,
      "v": 93
    },
    {
      "midi": 71,
      "hit": false,
      "t": 137058.75500000015,
      "d": 196.07833333333838,
      "v": 87
    },
    {
      "midi": 74,
      "hit": false,
      "t": 137058.75500000062,
      "d": 196.07833333333838,
      "v": 90
    },
    {
      "midi": 69,
      "hit": false,
      "t": 137352.87250000014,
      "d": 196.07833333333838,
      "v": 87
    },
    {
      "midi": 74,
      "hit": false,
      "t": 137352.87250000014,
      "d": 196.07833333333838,
      "v": 87
    },
    {
      "midi": 67,
      "hit": false,
      "t": 137352.8725000006,
      "d": 196.07833333333838,
      "v": 90
    },
    {
      "midi": 60,
      "hit": false,
      "t": 137646.99000000014,
      "d": 196.07833333333838,
      "v": 87
    },
    {
      "midi": 67,
      "hit": false,
      "t": 137646.99000000014,
      "d": 196.07833333333838,
      "v": 87
    },
    {
      "midi": 60,
      "hit": false,
      "t": 137646.99000000066,
      "d": 196.07833333333838,
      "v": 93
    },
    {
      "midi": 64,
      "hit": false,
      "t": 137941.10750000013,
      "d": 196.07833333333838,
      "v": 87
    },
    {
      "midi": 64,
      "hit": false,
      "t": 137941.10750000065,
      "d": 196.07833333333838,
      "v": 93
    },
    {
      "midi": 64,
      "hit": false,
      "t": 138235.22500000012,
      "d": 196.07833333333838,
      "v": 87
    },
    {
      "midi": 67,
      "hit": false,
      "t": 138235.22500000062,
      "d": 196.07833333333838,
      "v": 90
    },
    {
      "midi": 67,
      "hit": false,
      "t": 138529.34250000023,
      "d": 196.07833333333838,
      "v": 84
    },
    {
      "midi": 72,
      "hit": false,
      "t": 138529.34250000023,
      "d": 196.07833333333838,
      "v": 84
    },
    {
      "midi": 72,
      "hit": false,
      "t": 138529.3425000006,
      "d": 196.07833333333838,
      "v": 90
    },
    {
      "midi": 69,
      "hit": false,
      "t": 138823.46000000022,
      "d": 392.15666666667676,
      "v": 84
    },
    {
      "midi": 67,
      "hit": false,
      "t": 138823.46000000066,
      "d": 196.07833333333838,
      "v": 93
    },
    {
      "midi": 62,
      "hit": false,
      "t": 139117.57750000065,
      "d": 196.07833333333838,
      "v": 93
    },
    {
      "midi": 55,
      "hit": false,
      "t": 139411.69500000012,
      "d": 196.07833333333838,
      "v": 87
    },
    {
      "midi": 62,
      "hit": false,
      "t": 139411.69500000012,
      "d": 196.07833333333838,
      "v": 87
    },
    {
      "midi": 55,
      "hit": false,
      "t": 139411.69500000062,
      "d": 196.07833333333838,
      "v": 90
    },
    {
      "midi": 58,
      "hit": false,
      "t": 139705.81250000012,
      "d": 196.07833333333838,
      "v": 87
    },
    {
      "midi": 62,
      "hit": false,
      "t": 139705.8125000006,
      "d": 196.07833333333838,
      "v": 90
    },
    {
      "midi": 59,
      "hit": false,
      "t": 139999.9300000001,
      "d": 196.07833333333838,
      "v": 87
    },
    {
      "midi": 67,
      "hit": false,
      "t": 139999.93000000066,
      "d": 196.07833333333838,
      "v": 93
    },
    {
      "midi": 62,
      "hit": false,
      "t": 140294.04750000025,
      "d": 196.07833333333838,
      "v": 84
    },
    {
      "midi": 67,
      "hit": false,
      "t": 140294.04750000025,
      "d": 196.07833333333838,
      "v": 84
    },
    {
      "midi": 79,
      "hit": false,
      "t": 140294.04750000066,
      "d": 196.07833333333838,
      "v": 93
    },
    {
      "midi": 64,
      "hit": false,
      "t": 140588.16500000024,
      "d": 392.15666666667676,
      "v": 84
    },
    {
      "midi": 74,
      "hit": false,
      "t": 140588.16500000062,
      "d": 196.07833333333838,
      "v": 90
    },
    {
      "midi": 67,
      "hit": false,
      "t": 140882.2825000006,
      "d": 196.07833333333838,
      "v": 90
    },
    {
      "midi": 52,
      "hit": false,
      "t": 141176.4000000001,
      "d": 196.07833333333838,
      "v": 87
    },
    {
      "midi": 52,
      "hit": false,
      "t": 141176.40000000066,
      "d": 196.07833333333838,
      "v": 93
    },
    {
      "midi": 68,
      "hit": false,
      "t": 141470.5175000001,
      "d": 392.15666666667676,
      "v": 87
    },
    {
      "midi": 71,
      "hit": false,
      "t": 141470.5175000001,
      "d": 392.15666666667676,
      "v": 87
    },
    {
      "midi": 76,
      "hit": false,
      "t": 141470.5175000001,
      "d": 392.15666666667676,
      "v": 87
    },
    {
      "midi": 64,
      "hit": false,
      "t": 141470.51750000066,
      "d": 196.07833333333838,
      "v": 93
    },
    {
      "midi": 68,
      "hit": false,
      "t": 141764.63500000062,
      "d": 196.07833333333838,
      "v": 90
    },
    {
      "midi": 57,
      "hit": false,
      "t": 142058.75250000026,
      "d": 196.07833333333838,
      "v": 84
    },
    {
      "midi": 76,
      "hit": false,
      "t": 142058.7525000006,
      "d": 196.07833333333838,
      "v": 90
    },
    {
      "midi": 71,
      "hit": false,
      "t": 142352.87000000026,
      "d": 392.15666666667676,
      "v": 84
    },
    {
      "midi": 76,
      "hit": false,
      "t": 142352.87000000026,
      "d": 392.15666666667676,
      "v": 84
    },
    {
      "midi": 71,
      "hit": false,
      "t": 142352.87000000066,
      "d": 196.07833333333838,
      "v": 93
    },
    {
      "midi": 68,
      "hit": false,
      "t": 142646.98750000066,
      "d": 196.07833333333838,
      "v": 93
    },
    {
      "midi": 71,
      "hit": false,
      "t": 142941.10500000013,
      "d": 196.07833333333838,
      "v": 87
    },
    {
      "midi": 64,
      "hit": false,
      "t": 142941.10500000062,
      "d": 196.07833333333838,
      "v": 90
    },
    {
      "midi": 80,
      "hit": false,
      "t": 143235.22250000027,
      "d": 196.07833333333838,
      "v": 84
    },
    {
      "midi": 59,
      "hit": false,
      "t": 143235.22250000061,
      "d": 196.07833333333838,
      "v": 90
    },
    {
      "midi": 71,
      "hit": false,
      "t": 143529.34000000014,
      "d": 196.07833333333838,
      "v": 87
    },
    {
      "midi": 64,
      "hit": false,
      "t": 143529.34000000067,
      "d": 196.07833333333838,
      "v": 93
    },
    {
      "midi": 80,
      "hit": false,
      "t": 143823.45750000028,
      "d": 196.07833333333838,
      "v": 84
    },
    {
      "midi": 76,
      "hit": false,
      "t": 143823.45750000066,
      "d": 196.07833333333838,
      "v": 93
    },
    {
      "midi": 71,
      "hit": false,
      "t": 144117.57500000016,
      "d": 196.07833333333838,
      "v": 87
    },
    {
      "midi": 71,
      "hit": false,
      "t": 144117.57500000062,
      "d": 196.07833333333838,
      "v": 90
    },
    {
      "midi": 80,
      "hit": false,
      "t": 144411.6925000003,
      "d": 196.07833333333838,
      "v": 84
    },
    {
      "midi": 68,
      "hit": false,
      "t": 144411.69250000062,
      "d": 196.07833333333838,
      "v": 90
    },
    {
      "midi": 57,
      "hit": false,
      "t": 144705.81000000017,
      "d": 392.15666666667676,
      "v": 87
    },
    {
      "midi": 57,
      "hit": false,
      "t": 144705.81000000067,
      "d": 196.07833333333838,
      "v": 93
    },
    {
      "midi": 64,
      "hit": false,
      "t": 144999.92750000066,
      "d": 196.07833333333838,
      "v": 93
    },
    {
      "midi": 81,
      "hit": false,
      "t": 145294.0450000002,
      "d": 392.15666666667676,
      "v": 87
    },
    {
      "midi": 85,
      "hit": false,
      "t": 145294.0450000002,
      "d": 392.15666666667676,
      "v": 87
    },
    {
      "midi": 69,
      "hit": false,
      "t": 145294.04500000062,
      "d": 196.07833333333838,
      "v": 90
    },
    {
      "midi": 76,
      "hit": false,
      "t": 145588.16250000062,
      "d": 196.07833333333838,
      "v": 90
    },
    {
      "midi": 81,
      "hit": false,
      "t": 145882.2800000003,
      "d": 196.07833333333838,
      "v": 84
    },
    {
      "midi": 85,
      "hit": false,
      "t": 145882.2800000003,
      "d": 196.07833333333838,
      "v": 84
    },
    {
      "midi": 73,
      "hit": false,
      "t": 145882.28000000067,
      "d": 196.07833333333838,
      "v": 93
    },
    {
      "midi": 64,
      "hit": false,
      "t": 146176.39750000028,
      "d": 196.07833333333838,
      "v": 84
    },
    {
      "midi": 69,
      "hit": false,
      "t": 146176.39750000028,
      "d": 196.07833333333838,
      "v": 84
    },
    {
      "midi": 67,
      "hit": false,
      "t": 146176.39750000066,
      "d": 196.07833333333838,
      "v": 93
    },
    {
      "midi": 64,
      "hit": false,
      "t": 146470.5150000002,
      "d": 392.15666666667676,
      "v": 87
    },
    {
      "midi": 71,
      "hit": false,
      "t": 146470.5150000002,
      "d": 392.15666666667676,
      "v": 87
    },
    {
      "midi": 52,
      "hit": false,
      "t": 146470.51500000063,
      "d": 196.07833333333838,
      "v": 90
    },
    {
      "midi": 64,
      "hit": false,
      "t": 146764.63250000062,
      "d": 196.07833333333838,
      "v": 90
    },
    {
      "midi": 71,
      "hit": false,
      "t": 147058.7500000002,
      "d": 392.15666666667676,
      "v": 87
    },
    {
      "midi": 76,
      "hit": false,
      "t": 147058.7500000002,
      "d": 392.15666666667676,
      "v": 87
    },
    {
      "midi": 68,
      "hit": false,
      "t": 147058.75000000067,
      "d": 196.07833333333838,
      "v": 93
    },
    {
      "midi": 76,
      "hit": false,
      "t": 147352.86750000066,
      "d": 196.07833333333838,
      "v": 93
    },
    {
      "midi": 71,
      "hit": false,
      "t": 147646.98500000028,
      "d": 196.07833333333838,
      "v": 84
    },
    {
      "midi": 76,
      "hit": false,
      "t": 147646.98500000028,
      "d": 196.07833333333838,
      "v": 84
    },
    {
      "midi": 71,
      "hit": false,
      "t": 147646.98500000063,
      "d": 196.07833333333838,
      "v": 90
    },
    {
      "midi": 64,
      "hit": false,
      "t": 147941.10250000027,
      "d": 196.07833333333838,
      "v": 84
    },
    {
      "midi": 67,
      "hit": false,
      "t": 147941.10250000062,
      "d": 196.07833333333838,
      "v": 90
    },
    {
      "midi": 64,
      "hit": false,
      "t": 148235.22000000026,
      "d": 784.3133333333244,
      "v": 84
    },
    {
      "midi": 69,
      "hit": false,
      "t": 148235.22000000026,
      "d": 784.3133333333244,
      "v": 84
    },
    {
      "midi": 73,
      "hit": false,
      "t": 148235.22000000026,
      "d": 784.3133333333244,
      "v": 84
    },
    {
      "midi": 78,
      "hit": false,
      "t": 148235.22000000026,
      "d": 784.3133333333244,
      "v": 84
    },
    {
      "midi": 54,
      "hit": false,
      "t": 148235.22000000067,
      "d": 196.07833333333838,
      "v": 93
    },
    {
      "midi": 66,
      "hit": false,
      "t": 148529.33750000066,
      "d": 196.07833333333838,
      "v": 93
    },
    {
      "midi": 69,
      "hit": false,
      "t": 148823.45500000063,
      "d": 196.07833333333838,
      "v": 90
    },
    {
      "midi": 73,
      "hit": false,
      "t": 149117.57250000062,
      "d": 196.07833333333838,
      "v": 90
    },
    {
      "midi": 69,
      "hit": false,
      "t": 149411.6900000002,
      "d": 196.07833333333838,
      "v": 87
    },
    {
      "midi": 73,
      "hit": false,
      "t": 149411.6900000002,
      "d": 196.07833333333838,
      "v": 87
    },
    {
      "midi": 78,
      "hit": false,
      "t": 149411.6900000002,
      "d": 196.07833333333838,
      "v": 87
    },
    {
      "midi": 69,
      "hit": false,
      "t": 149411.69000000067,
      "d": 196.07833333333838,
      "v": 93
    },
    {
      "midi": 64,
      "hit": false,
      "t": 149705.80750000026,
      "d": 196.07833333333838,
      "v": 84
    },
    {
      "midi": 66,
      "hit": false,
      "t": 149705.80750000066,
      "d": 196.07833333333838,
      "v": 93
    },
    {
      "midi": 62,
      "hit": false,
      "t": 149999.92500000025,
      "d": 588.234999999986,
      "v": 84
    },
    {
      "midi": 62,
      "hit": false,
      "t": 149999.92500000063,
      "d": 196.07833333333838,
      "v": 90
    },
    {
      "midi": 69,
      "hit": false,
      "t": 150294.04250000062,
      "d": 196.07833333333838,
      "v": 90
    },
    {
      "midi": 74,
      "hit": false,
      "t": 150588.16000000067,
      "d": 196.07833333333838,
      "v": 93
    },
    {
      "midi": 78,
      "hit": false,
      "t": 150882.2775000002,
      "d": 196.07833333333838,
      "v": 87
    },
    {
      "midi": 78,
      "hit": false,
      "t": 150882.27750000064,
      "d": 196.07833333333838,
      "v": 90
    },
    {
      "midi": 74,
      "hit": false,
      "t": 151176.3950000002,
      "d": 196.07833333333838,
      "v": 87
    },
    {
      "midi": 74,
      "hit": false,
      "t": 151176.39500000063,
      "d": 196.07833333333838,
      "v": 90
    },
    {
      "midi": 69,
      "hit": false,
      "t": 151470.5125000002,
      "d": 196.07833333333838,
      "v": 87
    },
    {
      "midi": 67,
      "hit": false,
      "t": 151470.51250000062,
      "d": 196.07833333333838,
      "v": 90
    },
    {
      "midi": 57,
      "hit": false,
      "t": 151764.63000000024,
      "d": 196.07833333333838,
      "v": 84
    },
    {
      "midi": 57,
      "hit": false,
      "t": 151764.63000000067,
      "d": 196.07833333333838,
      "v": 93
    },
    {
      "midi": 76,
      "hit": false,
      "t": 152058.74750000023,
      "d": 392.15666666667676,
      "v": 84
    },
    {
      "midi": 81,
      "hit": false,
      "t": 152058.74750000023,
      "d": 392.15666666667676,
      "v": 84
    },
    {
      "midi": 64,
      "hit": false,
      "t": 152058.74750000067,
      "d": 196.07833333333838,
      "v": 93
    },
    {
      "midi": 69,
      "hit": false,
      "t": 152352.86500000063,
      "d": 196.07833333333838,
      "v": 90
    },
    {
      "midi": 76,
      "hit": false,
      "t": 152646.98250000025,
      "d": 392.15666666667676,
      "v": 84
    },
    {
      "midi": 81,
      "hit": false,
      "t": 152646.98250000025,
      "d": 392.15666666667676,
      "v": 84
    },
    {
      "midi": 76,
      "hit": false,
      "t": 152646.98250000062,
      "d": 196.07833333333838,
      "v": 90
    },
    {
      "midi": 73,
      "hit": false,
      "t": 152941.10000000068,
      "d": 196.07833333333838,
      "v": 93
    },
    {
      "midi": 64,
      "hit": false,
      "t": 153235.2175000002,
      "d": 196.07833333333838,
      "v": 87
    },
    {
      "midi": 67,
      "hit": false,
      "t": 153235.21750000067,
      "d": 196.07833333333838,
      "v": 93
    },
    {
      "midi": 64,
      "hit": false,
      "t": 153529.3350000002,
      "d": 196.07833333333838,
      "v": 87
    },
    {
      "midi": 52,
      "hit": false,
      "t": 153529.33500000063,
      "d": 196.07833333333838,
      "v": 90
    },
    {
      "midi": 71,
      "hit": false,
      "t": 153823.4525000002,
      "d": 196.07833333333838,
      "v": 87
    },
    {
      "midi": 64,
      "hit": false,
      "t": 153823.45250000063,
      "d": 196.07833333333838,
      "v": 90
    },
    {
      "midi": 76,
      "hit": false,
      "t": 154117.57000000018,
      "d": 196.07833333333838,
      "v": 87
    },
    {
      "midi": 68,
      "hit": false,
      "t": 154117.57000000068,
      "d": 196.07833333333838,
      "v": 93
    },
    {
      "midi": 80,
      "hit": false,
      "t": 154411.68750000017,
      "d": 196.07833333333838,
      "v": 87
    },
    {
      "midi": 76,
      "hit": false,
      "t": 154411.68750000067,
      "d": 196.07833333333838,
      "v": 93
    },
    {
      "midi": 64,
      "hit": false,
      "t": 154705.80500000017,
      "d": 196.07833333333838,
      "v": 87
    },
    {
      "midi": 71,
      "hit": false,
      "t": 154705.80500000017,
      "d": 196.07833333333838,
      "v": 87
    },
    {
      "midi": 76,
      "hit": false,
      "t": 154705.80500000017,
      "d": 196.07833333333838,
      "v": 87
    },
    {
      "midi": 71,
      "hit": false,
      "t": 154705.80500000063,
      "d": 196.07833333333838,
      "v": 90
    },
    {
      "midi": 64,
      "hit": false,
      "t": 154999.92250000025,
      "d": 196.07833333333838,
      "v": 84
    },
    {
      "midi": 71,
      "hit": false,
      "t": 154999.92250000025,
      "d": 196.07833333333838,
      "v": 84
    },
    {
      "midi": 76,
      "hit": false,
      "t": 154999.92250000025,
      "d": 196.07833333333838,
      "v": 84
    },
    {
      "midi": 67,
      "hit": false,
      "t": 154999.92250000063,
      "d": 196.07833333333838,
      "v": 90
    },
    {
      "midi": 78,
      "hit": false,
      "t": 155294.04000000018,
      "d": 196.07833333333838,
      "v": 87
    },
    {
      "midi": 62,
      "hit": false,
      "t": 155294.04000000068,
      "d": 196.07833333333838,
      "v": 93
    },
    {
      "midi": 86,
      "hit": false,
      "t": 155588.15750000026,
      "d": 196.07833333333838,
      "v": 84
    },
    {
      "midi": 69,
      "hit": false,
      "t": 155588.15750000067,
      "d": 196.07833333333838,
      "v": 93
    },
    {
      "midi": 78,
      "hit": false,
      "t": 155882.2750000002,
      "d": 196.07833333333838,
      "v": 87
    },
    {
      "midi": 74,
      "hit": false,
      "t": 155882.27500000063,
      "d": 196.07833333333838,
      "v": 90
    },
    {
      "midi": 79,
      "hit": false,
      "t": 156176.39250000028,
      "d": 196.07833333333838,
      "v": 84
    },
    {
      "midi": 78,
      "hit": false,
      "t": 156176.39250000063,
      "d": 196.07833333333838,
      "v": 90
    },
    {
      "midi": 88,
      "hit": false,
      "t": 156470.5100000002,
      "d": 196.07833333333838,
      "v": 87
    },
    {
      "midi": 74,
      "hit": false,
      "t": 156470.51000000068,
      "d": 196.07833333333838,
      "v": 93
    },
    {
      "midi": 79,
      "hit": false,
      "t": 156764.6275000003,
      "d": 196.07833333333838,
      "v": 84
    },
    {
      "midi": 69,
      "hit": false,
      "t": 156764.62750000067,
      "d": 196.07833333333838,
      "v": 93
    },
    {
      "midi": 76,
      "hit": false,
      "t": 157058.74500000023,
      "d": 196.07833333333838,
      "v": 87
    },
    {
      "midi": 62,
      "hit": false,
      "t": 157058.74500000064,
      "d": 196.07833333333838,
      "v": 90
    },
    {
      "midi": 78,
      "hit": false,
      "t": 157352.86250000022,
      "d": 196.07833333333838,
      "v": 87
    },
    {
      "midi": 69,
      "hit": false,
      "t": 157352.86250000063,
      "d": 196.07833333333838,
      "v": 90
    },
    {
      "midi": 76,
      "hit": false,
      "t": 157646.9800000003,
      "d": 392.15666666667676,
      "v": 84
    },
    {
      "midi": 81,
      "hit": false,
      "t": 157646.9800000003,
      "d": 392.15666666667676,
      "v": 84
    },
    {
      "midi": 74,
      "hit": false,
      "t": 157646.98000000068,
      "d": 196.07833333333838,
      "v": 93
    },
    {
      "midi": 78,
      "hit": false,
      "t": 157941.09750000067,
      "d": 196.07833333333838,
      "v": 93
    },
    {
      "midi": 74,
      "hit": false,
      "t": 158235.21500000032,
      "d": 196.07833333333838,
      "v": 84
    },
    {
      "midi": 74,
      "hit": false,
      "t": 158235.21500000064,
      "d": 196.07833333333838,
      "v": 90
    },
    {
      "midi": 76,
      "hit": false,
      "t": 158529.3325000003,
      "d": 196.07833333333838,
      "v": 84
    },
    {
      "midi": 67,
      "hit": false,
      "t": 158529.33250000063,
      "d": 196.07833333333838,
      "v": 90
    },
    {
      "midi": 57,
      "hit": false,
      "t": 158823.45000000022,
      "d": 392.15666666667676,
      "v": 87
    },
    {
      "midi": 57,
      "hit": false,
      "t": 158823.45000000068,
      "d": 196.07833333333838,
      "v": 93
    },
    {
      "midi": 64,
      "hit": false,
      "t": 159117.56750000067,
      "d": 196.07833333333838,
      "v": 93
    },
    {
      "midi": 76,
      "hit": false,
      "t": 159411.68500000023,
      "d": 784.3133333333244,
      "v": 87
    },
    {
      "midi": 81,
      "hit": false,
      "t": 159411.68500000023,
      "d": 784.3133333333244,
      "v": 87
    },
    {
      "midi": 69,
      "hit": false,
      "t": 159411.68500000064,
      "d": 196.07833333333838,
      "v": 90
    },
    {
      "midi": 76,
      "hit": false,
      "t": 159705.80250000063,
      "d": 196.07833333333838,
      "v": 90
    },
    {
      "midi": 73,
      "hit": false,
      "t": 159999.92000000068,
      "d": 196.07833333333838,
      "v": 93
    },
    {
      "midi": 67,
      "hit": false,
      "t": 160294.03750000068,
      "d": 196.07833333333838,
      "v": 93
    },
    {
      "midi": 64,
      "hit": false,
      "t": 160588.15500000032,
      "d": 392.15666666667676,
      "v": 84
    },
    {
      "midi": 71,
      "hit": false,
      "t": 160588.15500000032,
      "d": 392.15666666667676,
      "v": 84
    },
    {
      "midi": 52,
      "hit": false,
      "t": 160588.15500000064,
      "d": 196.07833333333838,
      "v": 90
    },
    {
      "midi": 64,
      "hit": false,
      "t": 160882.27250000063,
      "d": 196.07833333333838,
      "v": 90
    },
    {
      "midi": 71,
      "hit": false,
      "t": 161176.39000000033,
      "d": 392.15666666667676,
      "v": 84
    },
    {
      "midi": 76,
      "hit": false,
      "t": 161176.39000000033,
      "d": 392.15666666667676,
      "v": 84
    },
    {
      "midi": 68,
      "hit": false,
      "t": 161176.39000000068,
      "d": 196.07833333333838,
      "v": 93
    },
    {
      "midi": 76,
      "hit": false,
      "t": 161470.50750000068,
      "d": 196.07833333333838,
      "v": 93
    },
    {
      "midi": 71,
      "hit": false,
      "t": 161764.62500000023,
      "d": 392.15666666667676,
      "v": 87
    },
    {
      "midi": 76,
      "hit": false,
      "t": 161764.62500000023,
      "d": 392.15666666667676,
      "v": 87
    },
    {
      "midi": 71,
      "hit": false,
      "t": 161764.62500000064,
      "d": 196.07833333333838,
      "v": 90
    },
    {
      "midi": 67,
      "hit": false,
      "t": 162058.74250000063,
      "d": 196.07833333333838,
      "v": 90
    },
    {
      "midi": 61,
      "hit": false,
      "t": 162352.86000000034,
      "d": 588.234999999986,
      "v": 84
    },
    {
      "midi": 68,
      "hit": false,
      "t": 162352.86000000034,
      "d": 588.234999999986,
      "v": 84
    },
    {
      "midi": 73,
      "hit": false,
      "t": 162352.86000000034,
      "d": 588.234999999986,
      "v": 84
    },
    {
      "midi": 76,
      "hit": false,
      "t": 162352.86000000034,
      "d": 588.234999999986,
      "v": 84
    },
    {
      "midi": 61,
      "hit": false,
      "t": 162352.86000000068,
      "d": 196.07833333333838,
      "v": 93
    },
    {
      "midi": 68,
      "hit": false,
      "t": 162646.97750000068,
      "d": 196.07833333333838,
      "v": 93
    },
    {
      "midi": 73,
      "hit": false,
      "t": 162941.09500000064,
      "d": 196.07833333333838,
      "v": 90
    },
    {
      "midi": 76,
      "hit": false,
      "t": 163235.21250000026,
      "d": 196.07833333333838,
      "v": 87
    },
    {
      "midi": 76,
      "hit": false,
      "t": 163235.21250000063,
      "d": 196.07833333333838,
      "v": 90
    },
    {
      "midi": 73,
      "hit": false,
      "t": 163529.33000000025,
      "d": 196.07833333333838,
      "v": 87
    },
    {
      "midi": 73,
      "hit": false,
      "t": 163529.3300000007,
      "d": 196.07833333333838,
      "v": 93
    },
    {
      "midi": 68,
      "hit": false,
      "t": 163823.44750000033,
      "d": 196.07833333333838,
      "v": 84
    },
    {
      "midi": 68,
      "hit": false,
      "t": 163823.44750000068,
      "d": 196.07833333333838,
      "v": 93
    },
    {
      "midi": 62,
      "hit": false,
      "t": 164117.56500000032,
      "d": 196.07833333333838,
      "v": 84
    },
    {
      "midi": 62,
      "hit": false,
      "t": 164117.56500000064,
      "d": 196.07833333333838,
      "v": 90
    },
    {
      "midi": 69,
      "hit": false,
      "t": 164411.68250000026,
      "d": 196.07833333333838,
      "v": 87
    },
    {
      "midi": 69,
      "hit": false,
      "t": 164411.68250000064,
      "d": 196.07833333333838,
      "v": 90
    },
    {
      "midi": 74,
      "hit": false,
      "t": 164705.80000000025,
      "d": 196.07833333333838,
      "v": 87
    },
    {
      "midi": 74,
      "hit": false,
      "t": 164705.8000000007,
      "d": 196.07833333333838,
      "v": 93
    },
    {
      "midi": 78,
      "hit": false,
      "t": 164999.91750000033,
      "d": 196.07833333333838,
      "v": 84
    },
    {
      "midi": 78,
      "hit": false,
      "t": 164999.91750000068,
      "d": 196.07833333333838,
      "v": 93
    },
    {
      "midi": 74,
      "hit": false,
      "t": 165294.03500000032,
      "d": 196.07833333333838,
      "v": 84
    },
    {
      "midi": 74,
      "hit": false,
      "t": 165294.03500000064,
      "d": 196.07833333333838,
      "v": 90
    },
    {
      "midi": 69,
      "hit": false,
      "t": 165588.15250000032,
      "d": 196.07833333333838,
      "v": 84
    },
    {
      "midi": 67,
      "hit": false,
      "t": 165588.15250000064,
      "d": 196.07833333333838,
      "v": 90
    },
    {
      "midi": 57,
      "hit": false,
      "t": 165882.27000000025,
      "d": 392.15666666667676,
      "v": 87
    },
    {
      "midi": 57,
      "hit": false,
      "t": 165882.2700000007,
      "d": 196.07833333333838,
      "v": 93
    },
    {
      "midi": 64,
      "hit": false,
      "t": 166176.38750000068,
      "d": 196.07833333333838,
      "v": 93
    },
    {
      "midi": 76,
      "hit": false,
      "t": 166470.50500000027,
      "d": 392.15666666667676,
      "v": 87
    },
    {
      "midi": 81,
      "hit": false,
      "t": 166470.50500000027,
      "d": 392.15666666667676,
      "v": 87
    },
    {
      "midi": 69,
      "hit": false,
      "t": 166470.50500000064,
      "d": 196.07833333333838,
      "v": 90
    },
    {
      "midi": 76,
      "hit": false,
      "t": 166764.62250000064,
      "d": 196.07833333333838,
      "v": 90
    },
    {
      "midi": 76,
      "hit": false,
      "t": 167058.7400000003,
      "d": 196.07833333333838,
      "v": 84
    },
    {
      "midi": 81,
      "hit": false,
      "t": 167058.7400000003,
      "d": 196.07833333333838,
      "v": 84
    },
    {
      "midi": 73,
      "hit": false,
      "t": 167058.7400000007,
      "d": 196.07833333333838,
      "v": 93
    },
    {
      "midi": 64,
      "hit": false,
      "t": 167352.8575000003,
      "d": 196.07833333333838,
      "v": 84
    },
    {
      "midi": 67,
      "hit": false,
      "t": 167352.85750000068,
      "d": 196.07833333333838,
      "v": 93
    },
    {
      "midi": 64,
      "hit": false,
      "t": 167646.97500000027,
      "d": 392.15666666667676,
      "v": 87
    },
    {
      "midi": 71,
      "hit": false,
      "t": 167646.97500000027,
      "d": 392.15666666667676,
      "v": 87
    },
    {
      "midi": 52,
      "hit": false,
      "t": 167646.97500000065,
      "d": 196.07833333333838,
      "v": 90
    },
    {
      "midi": 68,
      "hit": false,
      "t": 167941.09250000064,
      "d": 196.07833333333838,
      "v": 90
    },
    {
      "midi": 71,
      "hit": false,
      "t": 168235.2100000003,
      "d": 392.15666666667676,
      "v": 84
    },
    {
      "midi": 76,
      "hit": false,
      "t": 168235.2100000003,
      "d": 392.15666666667676,
      "v": 84
    },
    {
      "midi": 68,
      "hit": false,
      "t": 168235.2100000007,
      "d": 196.07833333333838,
      "v": 93
    },
    {
      "midi": 76,
      "hit": false,
      "t": 168529.32750000068,
      "d": 196.07833333333838,
      "v": 93
    },
    {
      "midi": 71,
      "hit": false,
      "t": 168823.44500000027,
      "d": 196.07833333333838,
      "v": 87
    },
    {
      "midi": 76,
      "hit": false,
      "t": 168823.44500000027,
      "d": 196.07833333333838,
      "v": 87
    },
    {
      "midi": 71,
      "hit": false,
      "t": 168823.44500000065,
      "d": 196.07833333333838,
      "v": 90
    },
    {
      "midi": 64,
      "hit": false,
      "t": 169117.56250000032,
      "d": 196.07833333333838,
      "v": 84
    },
    {
      "midi": 67,
      "hit": false,
      "t": 169117.56250000064,
      "d": 196.07833333333838,
      "v": 90
    },
    {
      "midi": 62,
      "hit": false,
      "t": 169411.68000000028,
      "d": 196.07833333333838,
      "v": 87
    },
    {
      "midi": 69,
      "hit": false,
      "t": 169411.68000000028,
      "d": 196.07833333333838,
      "v": 87
    },
    {
      "midi": 62,
      "hit": false,
      "t": 169411.6800000007,
      "d": 196.07833333333838,
      "v": 93
    },
    {
      "midi": 62,
      "hit": false,
      "t": 169705.79750000034,
      "d": 196.07833333333838,
      "v": 84
    },
    {
      "midi": 69,
      "hit": false,
      "t": 169705.79750000034,
      "d": 196.07833333333838,
      "v": 84
    },
    {
      "midi": 69,
      "hit": false,
      "t": 169705.79750000068,
      "d": 196.07833333333838,
      "v": 93
    },
    {
      "midi": 62,
      "hit": false,
      "t": 169999.9150000003,
      "d": 196.07833333333838,
      "v": 87
    },
    {
      "midi": 69,
      "hit": false,
      "t": 169999.9150000003,
      "d": 196.07833333333838,
      "v": 87
    },
    {
      "midi": 74,
      "hit": false,
      "t": 169999.91500000065,
      "d": 196.07833333333838,
      "v": 90
    },
    {
      "midi": 62,
      "hit": false,
      "t": 170294.03250000035,
      "d": 196.07833333333838,
      "v": 84
    },
    {
      "midi": 71,
      "hit": false,
      "t": 170294.03250000035,
      "d": 196.07833333333838,
      "v": 84
    },
    {
      "midi": 78,
      "hit": false,
      "t": 170294.03250000064,
      "d": 196.07833333333838,
      "v": 90
    },
    {
      "midi": 62,
      "hit": false,
      "t": 170588.1500000003,
      "d": 196.07833333333838,
      "v": 87
    },
    {
      "midi": 71,
      "hit": false,
      "t": 170588.1500000003,
      "d": 196.07833333333838,
      "v": 87
    },
    {
      "midi": 74,
      "hit": false,
      "t": 170588.1500000007,
      "d": 196.07833333333838,
      "v": 93
    },
    {
      "midi": 62,
      "hit": false,
      "t": 170882.26750000037,
      "d": 196.07833333333838,
      "v": 84
    },
    {
      "midi": 71,
      "hit": false,
      "t": 170882.26750000037,
      "d": 196.07833333333838,
      "v": 84
    },
    {
      "midi": 69,
      "hit": false,
      "t": 170882.2675000007,
      "d": 196.07833333333838,
      "v": 93
    },
    {
      "midi": 62,
      "hit": false,
      "t": 171176.38500000033,
      "d": 196.07833333333838,
      "v": 87
    },
    {
      "midi": 69,
      "hit": false,
      "t": 171176.38500000033,
      "d": 196.07833333333838,
      "v": 87
    },
    {
      "midi": 62,
      "hit": false,
      "t": 171176.38500000065,
      "d": 196.07833333333838,
      "v": 90
    },
    {
      "midi": 69,
      "hit": false,
      "t": 171176.38500000065,
      "d": 196.07833333333838,
      "v": 90
    },
    {
      "midi": 74,
      "hit": false,
      "t": 171176.38500000065,
      "d": 196.07833333333838,
      "v": 90
    },
    {
      "midi": 78,
      "hit": false,
      "t": 171176.38500000065,
      "d": 196.07833333333838,
      "v": 90
    },
    {
      "midi": 62,
      "hit": false,
      "t": 171470.50250000038,
      "d": 196.07833333333838,
      "v": 84
    },
    {
      "midi": 69,
      "hit": false,
      "t": 171470.50250000038,
      "d": 196.07833333333838,
      "v": 84
    },
    {
      "midi": 62,
      "hit": false,
      "t": 171764.62000000034,
      "d": 196.07833333333838,
      "v": 87
    },
    {
      "midi": 69,
      "hit": false,
      "t": 171764.62000000034,
      "d": 196.07833333333838,
      "v": 87
    },
    {
      "midi": 58,
      "hit": false,
      "t": 172058.7375000004,
      "d": 196.07833333333838,
      "v": 84
    },
    {
      "midi": 65,
      "hit": false,
      "t": 172058.7375000004,
      "d": 196.07833333333838,
      "v": 84
    },
    {
      "midi": 70,
      "hit": false,
      "t": 172058.7375000004,
      "d": 196.07833333333838,
      "v": 84
    },
    {
      "midi": 58,
      "hit": false,
      "t": 172058.7375000007,
      "d": 196.07833333333838,
      "v": 93
    },
    {
      "midi": 65,
      "hit": false,
      "t": 172058.7375000007,
      "d": 196.07833333333838,
      "v": 93
    },
    {
      "midi": 70,
      "hit": false,
      "t": 172058.7375000007,
      "d": 196.07833333333838,
      "v": 93
    },
    {
      "midi": 60,
      "hit": false,
      "t": 172352.85500000036,
      "d": 196.07833333333838,
      "v": 87
    },
    {
      "midi": 67,
      "hit": false,
      "t": 172352.85500000036,
      "d": 196.07833333333838,
      "v": 87
    },
    {
      "midi": 72,
      "hit": false,
      "t": 172352.85500000036,
      "d": 196.07833333333838,
      "v": 87
    },
    {
      "midi": 60,
      "hit": false,
      "t": 172352.85500000065,
      "d": 196.07833333333838,
      "v": 90
    },
    {
      "midi": 67,
      "hit": false,
      "t": 172352.85500000065,
      "d": 196.07833333333838,
      "v": 90
    },
    {
      "midi": 72,
      "hit": false,
      "t": 172352.85500000065,
      "d": 196.07833333333838,
      "v": 90
    },
    {
      "midi": 53,
      "hit": false,
      "t": 172646.9725000004,
      "d": 196.07833333333838,
      "v": 84
    },
    {
      "midi": 60,
      "hit": false,
      "t": 172646.9725000004,
      "d": 196.07833333333838,
      "v": 84
    },
    {
      "midi": 65,
      "hit": false,
      "t": 172646.9725000004,
      "d": 196.07833333333838,
      "v": 84
    },
    {
      "midi": 53,
      "hit": false,
      "t": 172646.9725000007,
      "d": 196.07833333333838,
      "v": 93
    },
    {
      "midi": 60,
      "hit": false,
      "t": 172646.9725000007,
      "d": 196.07833333333838,
      "v": 93
    },
    {
      "midi": 65,
      "hit": false,
      "t": 172646.9725000007,
      "d": 196.07833333333838,
      "v": 93
    },
    {
      "midi": 74,
      "hit": false,
      "t": 172941.09000000037,
      "d": 294.117499999993,
      "v": 87
    },
    {
      "midi": 79,
      "hit": false,
      "t": 172941.09000000037,
      "d": 294.117499999993,
      "v": 87
    },
    {
      "midi": 55,
      "hit": false,
      "t": 172941.09000000067,
      "d": 196.07833333333838,
      "v": 90
    },
    {
      "midi": 62,
      "hit": false,
      "t": 172941.09000000067,
      "d": 196.07833333333838,
      "v": 90
    },
    {
      "midi": 67,
      "hit": false,
      "t": 172941.09000000067,
      "d": 196.07833333333838,
      "v": 90
    },
    {
      "midi": 55,
      "hit": false,
      "t": 173235.20750000066,
      "d": 196.07833333333838,
      "v": 90
    },
    {
      "midi": 62,
      "hit": false,
      "t": 173235.20750000066,
      "d": 196.07833333333838,
      "v": 90
    },
    {
      "midi": 67,
      "hit": false,
      "t": 173235.20750000066,
      "d": 196.07833333333838,
      "v": 90
    },
    {
      "midi": 74,
      "hit": false,
      "t": 173382.26625000036,
      "d": 98.03916666665464,
      "v": 87
    },
    {
      "midi": 79,
      "hit": false,
      "t": 173382.26625000036,
      "d": 98.03916666665464,
      "v": 87
    },
    {
      "midi": 74,
      "hit": false,
      "t": 173529.32500000042,
      "d": 196.07833333333838,
      "v": 84
    },
    {
      "midi": 79,
      "hit": false,
      "t": 173529.32500000042,
      "d": 196.07833333333838,
      "v": 84
    },
    {
      "midi": 55,
      "hit": false,
      "t": 173529.3250000007,
      "d": 196.07833333333838,
      "v": 93
    },
    {
      "midi": 62,
      "hit": false,
      "t": 173529.3250000007,
      "d": 196.07833333333838,
      "v": 93
    },
    {
      "midi": 67,
      "hit": false,
      "t": 173529.3250000007,
      "d": 196.07833333333838,
      "v": 93
    },
    {
      "midi": 74,
      "hit": false,
      "t": 173823.4425000004,
      "d": 294.117499999993,
      "v": 84
    },
    {
      "midi": 79,
      "hit": false,
      "t": 173823.4425000004,
      "d": 294.117499999993,
      "v": 84
    },
    {
      "midi": 55,
      "hit": false,
      "t": 173823.4425000007,
      "d": 196.07833333333838,
      "v": 93
    },
    {
      "midi": 62,
      "hit": false,
      "t": 173823.4425000007,
      "d": 196.07833333333838,
      "v": 93
    },
    {
      "midi": 67,
      "hit": false,
      "t": 173823.4425000007,
      "d": 196.07833333333838,
      "v": 93
    },
    {
      "midi": 55,
      "hit": false,
      "t": 174117.56000000067,
      "d": 196.07833333333838,
      "v": 90
    },
    {
      "midi": 62,
      "hit": false,
      "t": 174117.56000000067,
      "d": 196.07833333333838,
      "v": 90
    },
    {
      "midi": 67,
      "hit": false,
      "t": 174117.56000000067,
      "d": 196.07833333333838,
      "v": 90
    },
    {
      "midi": 74,
      "hit": false,
      "t": 174264.61875000034,
      "d": 98.03916666665464,
      "v": 87
    },
    {
      "midi": 79,
      "hit": false,
      "t": 174264.61875000034,
      "d": 98.03916666665464,
      "v": 87
    },
    {
      "midi": 74,
      "hit": false,
      "t": 174411.67750000034,
      "d": 196.07833333333838,
      "v": 87
    },
    {
      "midi": 79,
      "hit": false,
      "t": 174411.67750000034,
      "d": 196.07833333333838,
      "v": 87
    },
    {
      "midi": 55,
      "hit": false,
      "t": 174411.67750000066,
      "d": 196.07833333333838,
      "v": 90
    },
    {
      "midi": 62,
      "hit": false,
      "t": 174411.67750000066,
      "d": 196.07833333333838,
      "v": 90
    },
    {
      "midi": 67,
      "hit": false,
      "t": 174411.67750000066,
      "d": 196.07833333333838,
      "v": 90
    },
    {
      "midi": 74,
      "hit": false,
      "t": 174705.7950000004,
      "d": 196.07833333333838,
      "v": 84
    },
    {
      "midi": 79,
      "hit": false,
      "t": 174705.7950000004,
      "d": 196.07833333333838,
      "v": 84
    },
    {
      "midi": 55,
      "hit": false,
      "t": 174705.79500000065,
      "d": 196.07833333333838,
      "v": 90
    },
    {
      "midi": 62,
      "hit": false,
      "t": 174705.79500000065,
      "d": 196.07833333333838,
      "v": 90
    },
    {
      "midi": 67,
      "hit": false,
      "t": 174705.79500000065,
      "d": 196.07833333333838,
      "v": 90
    },
    {
      "midi": 58,
      "hit": false,
      "t": 175588.14750000034,
      "d": 196.07833333333838,
      "v": 87
    },
    {
      "midi": 65,
      "hit": false,
      "t": 175588.14750000034,
      "d": 196.07833333333838,
      "v": 87
    },
    {
      "midi": 70,
      "hit": false,
      "t": 175588.14750000034,
      "d": 196.07833333333838,
      "v": 87
    },
    {
      "midi": 58,
      "hit": false,
      "t": 175588.14750000072,
      "d": 196.07833333333838,
      "v": 93
    },
    {
      "midi": 65,
      "hit": false,
      "t": 175588.14750000072,
      "d": 196.07833333333838,
      "v": 93
    },
    {
      "midi": 70,
      "hit": false,
      "t": 175588.14750000072,
      "d": 196.07833333333838,
      "v": 93
    },
    {
      "midi": 60,
      "hit": false,
      "t": 175882.2650000004,
      "d": 196.07833333333838,
      "v": 84
    },
    {
      "midi": 67,
      "hit": false,
      "t": 175882.2650000004,
      "d": 196.07833333333838,
      "v": 84
    },
    {
      "midi": 72,
      "hit": false,
      "t": 175882.2650000004,
      "d": 196.07833333333838,
      "v": 84
    },
    {
      "midi": 60,
      "hit": false,
      "t": 175882.2650000007,
      "d": 196.07833333333838,
      "v": 93
    },
    {
      "midi": 67,
      "hit": false,
      "t": 175882.2650000007,
      "d": 196.07833333333838,
      "v": 93
    },
    {
      "midi": 72,
      "hit": false,
      "t": 175882.2650000007,
      "d": 196.07833333333838,
      "v": 93
    },
    {
      "midi": 53,
      "hit": false,
      "t": 176176.38250000036,
      "d": 196.07833333333838,
      "v": 87
    },
    {
      "midi": 60,
      "hit": false,
      "t": 176176.38250000036,
      "d": 196.07833333333838,
      "v": 87
    },
    {
      "midi": 65,
      "hit": false,
      "t": 176176.38250000036,
      "d": 196.07833333333838,
      "v": 87
    },
    {
      "midi": 53,
      "hit": false,
      "t": 176176.3825000007,
      "d": 196.07833333333838,
      "v": 93
    },
    {
      "midi": 60,
      "hit": false,
      "t": 176176.3825000007,
      "d": 196.07833333333838,
      "v": 93
    },
    {
      "midi": 65,
      "hit": false,
      "t": 176176.3825000007,
      "d": 196.07833333333838,
      "v": 93
    },
    {
      "midi": 74,
      "hit": false,
      "t": 176470.50000000035,
      "d": 294.117499999993,
      "v": 87
    },
    {
      "midi": 79,
      "hit": false,
      "t": 176470.50000000035,
      "d": 294.117499999993,
      "v": 87
    },
    {
      "midi": 55,
      "hit": false,
      "t": 176470.50000000067,
      "d": 196.07833333333838,
      "v": 90
    },
    {
      "midi": 62,
      "hit": false,
      "t": 176470.50000000067,
      "d": 196.07833333333838,
      "v": 90
    },
    {
      "midi": 67,
      "hit": false,
      "t": 176470.50000000067,
      "d": 196.07833333333838,
      "v": 90
    },
    {
      "midi": 55,
      "hit": false,
      "t": 176764.61750000066,
      "d": 196.07833333333838,
      "v": 90
    },
    {
      "midi": 62,
      "hit": false,
      "t": 176764.61750000066,
      "d": 196.07833333333838,
      "v": 90
    },
    {
      "midi": 67,
      "hit": false,
      "t": 176764.61750000066,
      "d": 196.07833333333838,
      "v": 90
    },
    {
      "midi": 74,
      "hit": false,
      "t": 176911.67625000034,
      "d": 98.03916666665464,
      "v": 87
    },
    {
      "midi": 79,
      "hit": false,
      "t": 176911.67625000034,
      "d": 98.03916666665464,
      "v": 87
    },
    {
      "midi": 74,
      "hit": false,
      "t": 177058.7350000004,
      "d": 196.07833333333838,
      "v": 84
    },
    {
      "midi": 79,
      "hit": false,
      "t": 177058.7350000004,
      "d": 196.07833333333838,
      "v": 84
    },
    {
      "midi": 55,
      "hit": false,
      "t": 177058.7350000007,
      "d": 196.07833333333838,
      "v": 93
    },
    {
      "midi": 62,
      "hit": false,
      "t": 177058.7350000007,
      "d": 196.07833333333838,
      "v": 93
    },
    {
      "midi": 67,
      "hit": false,
      "t": 177058.7350000007,
      "d": 196.07833333333838,
      "v": 93
    },
    {
      "midi": 74,
      "hit": false,
      "t": 177352.8525000004,
      "d": 294.117499999993,
      "v": 84
    },
    {
      "midi": 79,
      "hit": false,
      "t": 177352.8525000004,
      "d": 294.117499999993,
      "v": 84
    },
    {
      "midi": 55,
      "hit": false,
      "t": 177352.8525000007,
      "d": 196.07833333333838,
      "v": 93
    },
    {
      "midi": 62,
      "hit": false,
      "t": 177352.8525000007,
      "d": 196.07833333333838,
      "v": 93
    },
    {
      "midi": 67,
      "hit": false,
      "t": 177352.8525000007,
      "d": 196.07833333333838,
      "v": 93
    },
    {
      "midi": 55,
      "hit": false,
      "t": 177646.97000000067,
      "d": 196.07833333333838,
      "v": 90
    },
    {
      "midi": 62,
      "hit": false,
      "t": 177646.97000000067,
      "d": 196.07833333333838,
      "v": 90
    },
    {
      "midi": 67,
      "hit": false,
      "t": 177646.97000000067,
      "d": 196.07833333333838,
      "v": 90
    },
    {
      "midi": 74,
      "hit": false,
      "t": 177794.02875000032,
      "d": 98.03916666665464,
      "v": 87
    },
    {
      "midi": 79,
      "hit": false,
      "t": 177794.02875000032,
      "d": 98.03916666665464,
      "v": 87
    },
    {
      "midi": 74,
      "hit": false,
      "t": 177941.0875000003,
      "d": 196.07833333333838,
      "v": 87
    },
    {
      "midi": 79,
      "hit": false,
      "t": 177941.0875000003,
      "d": 196.07833333333838,
      "v": 87
    },
    {
      "midi": 55,
      "hit": false,
      "t": 177941.08750000066,
      "d": 196.07833333333838,
      "v": 90
    },
    {
      "midi": 62,
      "hit": false,
      "t": 177941.08750000066,
      "d": 196.07833333333838,
      "v": 90
    },
    {
      "midi": 67,
      "hit": false,
      "t": 177941.08750000066,
      "d": 196.07833333333838,
      "v": 90
    },
    {
      "midi": 74,
      "hit": false,
      "t": 178235.20500000037,
      "d": 196.07833333333838,
      "v": 84
    },
    {
      "midi": 79,
      "hit": false,
      "t": 178235.20500000037,
      "d": 196.07833333333838,
      "v": 84
    },
    {
      "midi": 55,
      "hit": false,
      "t": 178235.20500000066,
      "d": 196.07833333333838,
      "v": 90
    },
    {
      "midi": 62,
      "hit": false,
      "t": 178235.20500000066,
      "d": 196.07833333333838,
      "v": 90
    },
    {
      "midi": 67,
      "hit": false,
      "t": 178235.20500000066,
      "d": 196.07833333333838,
      "v": 90
    },
    {
      "midi": 58,
      "hit": false,
      "t": 179117.55750000032,
      "d": 196.07833333333838,
      "v": 87
    },
    {
      "midi": 65,
      "hit": false,
      "t": 179117.55750000032,
      "d": 196.07833333333838,
      "v": 87
    },
    {
      "midi": 70,
      "hit": false,
      "t": 179117.55750000032,
      "d": 196.07833333333838,
      "v": 87
    },
    {
      "midi": 58,
      "hit": false,
      "t": 179117.55750000072,
      "d": 196.07833333333838,
      "v": 93
    },
    {
      "midi": 65,
      "hit": false,
      "t": 179117.55750000072,
      "d": 196.07833333333838,
      "v": 93
    },
    {
      "midi": 70,
      "hit": false,
      "t": 179117.55750000072,
      "d": 196.07833333333838,
      "v": 93
    },
    {
      "midi": 60,
      "hit": false,
      "t": 179411.67500000037,
      "d": 196.07833333333838,
      "v": 84
    },
    {
      "midi": 67,
      "hit": false,
      "t": 179411.67500000037,
      "d": 196.07833333333838,
      "v": 84
    },
    {
      "midi": 72,
      "hit": false,
      "t": 179411.67500000037,
      "d": 196.07833333333838,
      "v": 84
    },
    {
      "midi": 60,
      "hit": false,
      "t": 179411.67500000072,
      "d": 196.07833333333838,
      "v": 93
    },
    {
      "midi": 67,
      "hit": false,
      "t": 179411.67500000072,
      "d": 196.07833333333838,
      "v": 93
    },
    {
      "midi": 72,
      "hit": false,
      "t": 179411.67500000072,
      "d": 196.07833333333838,
      "v": 93
    },
    {
      "midi": 53,
      "hit": false,
      "t": 179705.79250000033,
      "d": 196.07833333333838,
      "v": 87
    },
    {
      "midi": 60,
      "hit": false,
      "t": 179705.79250000033,
      "d": 196.07833333333838,
      "v": 87
    },
    {
      "midi": 65,
      "hit": false,
      "t": 179705.79250000033,
      "d": 196.07833333333838,
      "v": 87
    },
    {
      "midi": 53,
      "hit": false,
      "t": 179705.7925000007,
      "d": 196.07833333333838,
      "v": 93
    },
    {
      "midi": 60,
      "hit": false,
      "t": 179705.7925000007,
      "d": 196.07833333333838,
      "v": 93
    },
    {
      "midi": 65,
      "hit": false,
      "t": 179705.7925000007,
      "d": 196.07833333333838,
      "v": 93
    },
    {
      "midi": 74,
      "hit": false,
      "t": 179999.91000000032,
      "d": 294.117499999993,
      "v": 87
    },
    {
      "midi": 79,
      "hit": false,
      "t": 179999.91000000032,
      "d": 294.117499999993,
      "v": 87
    },
    {
      "midi": 55,
      "hit": false,
      "t": 179999.91000000067,
      "d": 196.07833333333838,
      "v": 90
    },
    {
      "midi": 62,
      "hit": false,
      "t": 179999.91000000067,
      "d": 196.07833333333838,
      "v": 90
    },
    {
      "midi": 67,
      "hit": false,
      "t": 179999.91000000067,
      "d": 196.07833333333838,
      "v": 90
    },
    {
      "midi": 55,
      "hit": false,
      "t": 180294.02750000067,
      "d": 196.07833333333838,
      "v": 90
    },
    {
      "midi": 62,
      "hit": false,
      "t": 180294.02750000067,
      "d": 196.07833333333838,
      "v": 90
    },
    {
      "midi": 67,
      "hit": false,
      "t": 180294.02750000067,
      "d": 196.07833333333838,
      "v": 90
    },
    {
      "midi": 74,
      "hit": false,
      "t": 180441.0862500003,
      "d": 98.03916666665464,
      "v": 87
    },
    {
      "midi": 79,
      "hit": false,
      "t": 180441.0862500003,
      "d": 98.03916666665464,
      "v": 87
    },
    {
      "midi": 74,
      "hit": false,
      "t": 180588.14500000037,
      "d": 196.07833333333838,
      "v": 84
    },
    {
      "midi": 79,
      "hit": false,
      "t": 180588.14500000037,
      "d": 196.07833333333838,
      "v": 84
    },
    {
      "midi": 55,
      "hit": false,
      "t": 180588.14500000072,
      "d": 196.07833333333838,
      "v": 93
    },
    {
      "midi": 62,
      "hit": false,
      "t": 180588.14500000072,
      "d": 196.07833333333838,
      "v": 93
    },
    {
      "midi": 67,
      "hit": false,
      "t": 180588.14500000072,
      "d": 196.07833333333838,
      "v": 93
    },
    {
      "midi": 74,
      "hit": false,
      "t": 180882.26250000036,
      "d": 294.117499999993,
      "v": 84
    },
    {
      "midi": 79,
      "hit": false,
      "t": 180882.26250000036,
      "d": 294.117499999993,
      "v": 84
    },
    {
      "midi": 55,
      "hit": false,
      "t": 180882.2625000007,
      "d": 196.07833333333838,
      "v": 93
    },
    {
      "midi": 62,
      "hit": false,
      "t": 180882.2625000007,
      "d": 196.07833333333838,
      "v": 93
    },
    {
      "midi": 67,
      "hit": false,
      "t": 180882.2625000007,
      "d": 196.07833333333838,
      "v": 93
    },
    {
      "midi": 55,
      "hit": false,
      "t": 181176.38000000067,
      "d": 196.07833333333838,
      "v": 90
    },
    {
      "midi": 62,
      "hit": false,
      "t": 181176.38000000067,
      "d": 196.07833333333838,
      "v": 90
    },
    {
      "midi": 67,
      "hit": false,
      "t": 181176.38000000067,
      "d": 196.07833333333838,
      "v": 90
    },
    {
      "midi": 74,
      "hit": false,
      "t": 181323.4387500003,
      "d": 98.03916666665464,
      "v": 87
    },
    {
      "midi": 79,
      "hit": false,
      "t": 181323.4387500003,
      "d": 98.03916666665464,
      "v": 87
    },
    {
      "midi": 74,
      "hit": false,
      "t": 181470.4975000003,
      "d": 196.07833333333838,
      "v": 87
    },
    {
      "midi": 79,
      "hit": false,
      "t": 181470.4975000003,
      "d": 196.07833333333838,
      "v": 87
    },
    {
      "midi": 55,
      "hit": false,
      "t": 181470.49750000067,
      "d": 196.07833333333838,
      "v": 90
    },
    {
      "midi": 62,
      "hit": false,
      "t": 181470.49750000067,
      "d": 196.07833333333838,
      "v": 90
    },
    {
      "midi": 67,
      "hit": false,
      "t": 181470.49750000067,
      "d": 196.07833333333838,
      "v": 90
    },
    {
      "midi": 74,
      "hit": false,
      "t": 181764.61500000034,
      "d": 196.07833333333838,
      "v": 84
    },
    {
      "midi": 79,
      "hit": false,
      "t": 181764.61500000034,
      "d": 196.07833333333838,
      "v": 84
    },
    {
      "midi": 55,
      "hit": false,
      "t": 181764.61500000066,
      "d": 196.07833333333838,
      "v": 90
    },
    {
      "midi": 62,
      "hit": false,
      "t": 181764.61500000066,
      "d": 196.07833333333838,
      "v": 90
    },
    {
      "midi": 67,
      "hit": false,
      "t": 181764.61500000066,
      "d": 196.07833333333838,
      "v": 90
    },
    {
      "midi": 58,
      "hit": false,
      "t": 182646.9675000003,
      "d": 196.07833333333838,
      "v": 87
    },
    {
      "midi": 65,
      "hit": false,
      "t": 182646.9675000003,
      "d": 196.07833333333838,
      "v": 87
    },
    {
      "midi": 70,
      "hit": false,
      "t": 182646.9675000003,
      "d": 196.07833333333838,
      "v": 87
    },
    {
      "midi": 58,
      "hit": false,
      "t": 182646.96750000073,
      "d": 196.07833333333838,
      "v": 93
    },
    {
      "midi": 65,
      "hit": false,
      "t": 182646.96750000073,
      "d": 196.07833333333838,
      "v": 93
    },
    {
      "midi": 70,
      "hit": false,
      "t": 182646.96750000073,
      "d": 196.07833333333838,
      "v": 93
    },
    {
      "midi": 60,
      "hit": false,
      "t": 182941.08500000034,
      "d": 196.07833333333838,
      "v": 84
    },
    {
      "midi": 67,
      "hit": false,
      "t": 182941.08500000034,
      "d": 196.07833333333838,
      "v": 84
    },
    {
      "midi": 72,
      "hit": false,
      "t": 182941.08500000034,
      "d": 196.07833333333838,
      "v": 84
    },
    {
      "midi": 60,
      "hit": false,
      "t": 182941.08500000072,
      "d": 196.07833333333838,
      "v": 93
    },
    {
      "midi": 67,
      "hit": false,
      "t": 182941.08500000072,
      "d": 196.07833333333838,
      "v": 93
    },
    {
      "midi": 72,
      "hit": false,
      "t": 182941.08500000072,
      "d": 196.07833333333838,
      "v": 93
    },
    {
      "midi": 53,
      "hit": false,
      "t": 183235.2025000003,
      "d": 196.07833333333838,
      "v": 87
    },
    {
      "midi": 60,
      "hit": false,
      "t": 183235.2025000003,
      "d": 196.07833333333838,
      "v": 87
    },
    {
      "midi": 65,
      "hit": false,
      "t": 183235.2025000003,
      "d": 196.07833333333838,
      "v": 87
    },
    {
      "midi": 53,
      "hit": false,
      "t": 183235.2025000007,
      "d": 196.07833333333838,
      "v": 93
    },
    {
      "midi": 60,
      "hit": false,
      "t": 183235.2025000007,
      "d": 196.07833333333838,
      "v": 93
    },
    {
      "midi": 65,
      "hit": false,
      "t": 183235.2025000007,
      "d": 196.07833333333838,
      "v": 93
    },
    {
      "midi": 74,
      "hit": false,
      "t": 183529.32000000036,
      "d": 294.117499999993,
      "v": 84
    },
    {
      "midi": 79,
      "hit": false,
      "t": 183529.32000000036,
      "d": 294.117499999993,
      "v": 84
    },
    {
      "midi": 55,
      "hit": false,
      "t": 183529.32000000068,
      "d": 196.07833333333838,
      "v": 90
    },
    {
      "midi": 62,
      "hit": false,
      "t": 183529.32000000068,
      "d": 196.07833333333838,
      "v": 90
    },
    {
      "midi": 67,
      "hit": false,
      "t": 183529.32000000068,
      "d": 196.07833333333838,
      "v": 90
    },
    {
      "midi": 55,
      "hit": false,
      "t": 183823.43750000067,
      "d": 196.07833333333838,
      "v": 90
    },
    {
      "midi": 62,
      "hit": false,
      "t": 183823.43750000067,
      "d": 196.07833333333838,
      "v": 90
    },
    {
      "midi": 67,
      "hit": false,
      "t": 183823.43750000067,
      "d": 196.07833333333838,
      "v": 90
    },
    {
      "midi": 74,
      "hit": false,
      "t": 183970.49625000035,
      "d": 98.03916666665464,
      "v": 84
    },
    {
      "midi": 79,
      "hit": false,
      "t": 183970.49625000035,
      "d": 98.03916666665464,
      "v": 84
    },
    {
      "midi": 74,
      "hit": false,
      "t": 184117.5550000003,
      "d": 98.03916666665464,
      "v": 87
    },
    {
      "midi": 79,
      "hit": false,
      "t": 184117.5550000003,
      "d": 98.03916666665464,
      "v": 87
    },
    {
      "midi": 55,
      "hit": false,
      "t": 184117.55500000072,
      "d": 196.07833333333838,
      "v": 93
    },
    {
      "midi": 62,
      "hit": false,
      "t": 184117.55500000072,
      "d": 196.07833333333838,
      "v": 93
    },
    {
      "midi": 67,
      "hit": false,
      "t": 184117.55500000072,
      "d": 196.07833333333838,
      "v": 93
    },
    {
      "midi": 74,
      "hit": false,
      "t": 184264.6137500003,
      "d": 98.03916666665464,
      "v": 87
    },
    {
      "midi": 79,
      "hit": false,
      "t": 184264.6137500003,
      "d": 98.03916666665464,
      "v": 87
    },
    {
      "midi": 74,
      "hit": false,
      "t": 184411.67250000034,
      "d": 392.15666666667676,
      "v": 84
    },
    {
      "midi": 79,
      "hit": false,
      "t": 184411.67250000034,
      "d": 392.15666666667676,
      "v": 84
    },
    {
      "midi": 55,
      "hit": false,
      "t": 184411.6725000007,
      "d": 196.07833333333838,
      "v": 93
    },
    {
      "midi": 62,
      "hit": false,
      "t": 184411.6725000007,
      "d": 196.07833333333838,
      "v": 93
    },
    {
      "midi": 67,
      "hit": false,
      "t": 184411.6725000007,
      "d": 196.07833333333838,
      "v": 93
    },
    {
      "midi": 55,
      "hit": false,
      "t": 184705.79000000068,
      "d": 196.07833333333838,
      "v": 90
    },
    {
      "midi": 62,
      "hit": false,
      "t": 184705.79000000068,
      "d": 196.07833333333838,
      "v": 90
    },
    {
      "midi": 67,
      "hit": false,
      "t": 184705.79000000068,
      "d": 196.07833333333838,
      "v": 90
    },
    {
      "midi": 74,
      "hit": false,
      "t": 184999.90750000035,
      "d": 196.07833333333838,
      "v": 84
    },
    {
      "midi": 79,
      "hit": false,
      "t": 184999.90750000035,
      "d": 196.07833333333838,
      "v": 84
    },
    {
      "midi": 55,
      "hit": false,
      "t": 184999.90750000067,
      "d": 196.07833333333838,
      "v": 90
    },
    {
      "midi": 62,
      "hit": false,
      "t": 184999.90750000067,
      "d": 196.07833333333838,
      "v": 90
    },
    {
      "midi": 67,
      "hit": false,
      "t": 184999.90750000067,
      "d": 196.07833333333838,
      "v": 90
    },
    {
      "midi": 77,
      "hit": false,
      "t": 185294.02500000029,
      "d": 294.117499999993,
      "v": 87
    },
    {
      "midi": 82,
      "hit": false,
      "t": 185294.02500000029,
      "d": 294.117499999993,
      "v": 87
    },
    {
      "midi": 58,
      "hit": false,
      "t": 185294.02500000072,
      "d": 196.07833333333838,
      "v": 93
    },
    {
      "midi": 65,
      "hit": false,
      "t": 185294.02500000072,
      "d": 196.07833333333838,
      "v": 93
    },
    {
      "midi": 70,
      "hit": false,
      "t": 185294.02500000072,
      "d": 196.07833333333838,
      "v": 93
    },
    {
      "midi": 58,
      "hit": false,
      "t": 185588.14250000071,
      "d": 196.07833333333838,
      "v": 93
    },
    {
      "midi": 65,
      "hit": false,
      "t": 185588.14250000071,
      "d": 196.07833333333838,
      "v": 93
    },
    {
      "midi": 70,
      "hit": false,
      "t": 185588.14250000071,
      "d": 196.07833333333838,
      "v": 93
    },
    {
      "midi": 77,
      "hit": false,
      "t": 185735.20125000027,
      "d": 98.03916666665464,
      "v": 87
    },
    {
      "midi": 82,
      "hit": false,
      "t": 185735.20125000027,
      "d": 98.03916666665464,
      "v": 87
    },
    {
      "midi": 77,
      "hit": false,
      "t": 185882.26000000036,
      "d": 196.07833333333838,
      "v": 84
    },
    {
      "midi": 82,
      "hit": false,
      "t": 185882.26000000036,
      "d": 196.07833333333838,
      "v": 84
    },
    {
      "midi": 58,
      "hit": false,
      "t": 185882.26000000068,
      "d": 196.07833333333838,
      "v": 90
    },
    {
      "midi": 65,
      "hit": false,
      "t": 185882.26000000068,
      "d": 196.07833333333838,
      "v": 90
    },
    {
      "midi": 70,
      "hit": false,
      "t": 185882.26000000068,
      "d": 196.07833333333838,
      "v": 90
    },
    {
      "midi": 77,
      "hit": false,
      "t": 186176.37750000035,
      "d": 588.234999999986,
      "v": 84
    },
    {
      "midi": 82,
      "hit": false,
      "t": 186176.37750000035,
      "d": 588.234999999986,
      "v": 84
    },
    {
      "midi": 58,
      "hit": false,
      "t": 186176.37750000067,
      "d": 196.07833333333838,
      "v": 90
    },
    {
      "midi": 65,
      "hit": false,
      "t": 186176.37750000067,
      "d": 196.07833333333838,
      "v": 90
    },
    {
      "midi": 70,
      "hit": false,
      "t": 186176.37750000067,
      "d": 196.07833333333838,
      "v": 90
    },
    {
      "midi": 58,
      "hit": false,
      "t": 186470.49500000072,
      "d": 196.07833333333838,
      "v": 93
    },
    {
      "midi": 65,
      "hit": false,
      "t": 186470.49500000072,
      "d": 196.07833333333838,
      "v": 93
    },
    {
      "midi": 70,
      "hit": false,
      "t": 186470.49500000072,
      "d": 196.07833333333838,
      "v": 93
    },
    {
      "midi": 58,
      "hit": false,
      "t": 186764.61250000072,
      "d": 196.07833333333838,
      "v": 93
    },
    {
      "midi": 65,
      "hit": false,
      "t": 186764.61250000072,
      "d": 196.07833333333838,
      "v": 93
    },
    {
      "midi": 70,
      "hit": false,
      "t": 186764.61250000072,
      "d": 196.07833333333838,
      "v": 93
    },
    {
      "midi": 57,
      "hit": false,
      "t": 187058.73000000033,
      "d": 392.15666666667676,
      "v": 84
    },
    {
      "midi": 64,
      "hit": false,
      "t": 187058.73000000033,
      "d": 392.15666666667676,
      "v": 84
    },
    {
      "midi": 57,
      "hit": false,
      "t": 187058.73000000068,
      "d": 196.07833333333838,
      "v": 90
    },
    {
      "midi": 64,
      "hit": false,
      "t": 187352.84750000073,
      "d": 196.07833333333838,
      "v": 93
    },
    {
      "midi": 57,
      "hit": false,
      "t": 187646.96500000035,
      "d": 196.07833333333838,
      "v": 84
    },
    {
      "midi": 64,
      "hit": false,
      "t": 187646.96500000035,
      "d": 196.07833333333838,
      "v": 84
    },
    {
      "midi": 69,
      "hit": false,
      "t": 187646.9650000007,
      "d": 196.07833333333838,
      "v": 90
    },
    {
      "midi": 57,
      "hit": false,
      "t": 187941.08250000025,
      "d": 392.15666666667676,
      "v": 87
    },
    {
      "midi": 66,
      "hit": false,
      "t": 187941.08250000025,
      "d": 392.15666666667676,
      "v": 87
    },
    {
      "midi": 76,
      "hit": false,
      "t": 187941.08250000075,
      "d": 196.07833333333838,
      "v": 93
    },
    {
      "midi": 73,
      "hit": false,
      "t": 188235.2000000007,
      "d": 196.07833333333838,
      "v": 90
    },
    {
      "midi": 57,
      "hit": false,
      "t": 188529.31750000027,
      "d": 196.07833333333838,
      "v": 87
    },
    {
      "midi": 66,
      "hit": false,
      "t": 188529.31750000027,
      "d": 196.07833333333838,
      "v": 87
    },
    {
      "midi": 67,
      "hit": false,
      "t": 188529.31750000076,
      "d": 196.07833333333838,
      "v": 93
    },
    {
      "midi": 64,
      "hit": false,
      "t": 188823.43500000035,
      "d": 392.15666666667676,
      "v": 84
    },
    {
      "midi": 71,
      "hit": false,
      "t": 188823.43500000035,
      "d": 392.15666666667676,
      "v": 84
    },
    {
      "midi": 52,
      "hit": false,
      "t": 188823.43500000073,
      "d": 196.07833333333838,
      "v": 90
    },
    {
      "midi": 68,
      "hit": false,
      "t": 188823.43500000073,
      "d": 196.07833333333838,
      "v": 90
    },
    {
      "midi": 64,
      "hit": false,
      "t": 189117.55250000078,
      "d": 196.07833333333838,
      "v": 93
    },
    {
      "midi": 64,
      "hit": false,
      "t": 189411.67000000036,
      "d": 196.07833333333838,
      "v": 84
    },
    {
      "midi": 71,
      "hit": false,
      "t": 189411.67000000036,
      "d": 196.07833333333838,
      "v": 84
    },
    {
      "midi": 68,
      "hit": false,
      "t": 189411.67000000074,
      "d": 196.07833333333838,
      "v": 90
    },
    {
      "midi": 64,
      "hit": false,
      "t": 189705.78750000027,
      "d": 392.15666666667676,
      "v": 87
    },
    {
      "midi": 73,
      "hit": false,
      "t": 189705.78750000027,
      "d": 392.15666666667676,
      "v": 87
    },
    {
      "midi": 76,
      "hit": false,
      "t": 189705.7875000008,
      "d": 196.07833333333838,
      "v": 93
    },
    {
      "midi": 71,
      "hit": false,
      "t": 189999.90500000076,
      "d": 196.07833333333838,
      "v": 90
    },
    {
      "midi": 64,
      "hit": false,
      "t": 190294.02250000028,
      "d": 196.07833333333838,
      "v": 87
    },
    {
      "midi": 73,
      "hit": false,
      "t": 190294.02250000028,
      "d": 196.07833333333838,
      "v": 87
    },
    {
      "midi": 67,
      "hit": false,
      "t": 190294.0225000008,
      "d": 196.07833333333838,
      "v": 93
    },
    {
      "midi": 66,
      "hit": false,
      "t": 190588.14000000036,
      "d": 392.15666666667676,
      "v": 84
    },
    {
      "midi": 73,
      "hit": false,
      "t": 190588.14000000036,
      "d": 392.15666666667676,
      "v": 84
    },
    {
      "midi": 54,
      "hit": false,
      "t": 190588.14000000077,
      "d": 196.07833333333838,
      "v": 90
    },
    {
      "midi": 73,
      "hit": false,
      "t": 190882.25750000082,
      "d": 196.07833333333838,
      "v": 93
    },
    {
      "midi": 66,
      "hit": false,
      "t": 191176.37500000038,
      "d": 196.07833333333838,
      "v": 84
    },
    {
      "midi": 73,
      "hit": false,
      "t": 191176.37500000038,
      "d": 196.07833333333838,
      "v": 84
    },
    {
      "midi": 69,
      "hit": false,
      "t": 191176.3750000008,
      "d": 196.07833333333838,
      "v": 90
    },
    {
      "midi": 66,
      "hit": false,
      "t": 191470.49250000028,
      "d": 392.15666666667676,
      "v": 87
    },
    {
      "midi": 73,
      "hit": false,
      "t": 191470.49250000028,
      "d": 392.15666666667676,
      "v": 87
    },
    {
      "midi": 78,
      "hit": false,
      "t": 191470.49250000084,
      "d": 196.07833333333838,
      "v": 93
    },
    {
      "midi": 73,
      "hit": false,
      "t": 191764.6100000008,
      "d": 196.07833333333838,
      "v": 90
    },
    {
      "midi": 66,
      "hit": false,
      "t": 192058.7275000003,
      "d": 196.07833333333838,
      "v": 87
    },
    {
      "midi": 73,
      "hit": false,
      "t": 192058.7275000003,
      "d": 196.07833333333838,
      "v": 87
    },
    {
      "midi": 66,
      "hit": false,
      "t": 192058.72750000085,
      "d": 196.07833333333838,
      "v": 93
    },
    {
      "midi": 61,
      "hit": false,
      "t": 192352.84500000038,
      "d": 392.15666666667676,
      "v": 84
    },
    {
      "midi": 68,
      "hit": false,
      "t": 192352.84500000038,
      "d": 392.15666666667676,
      "v": 84
    },
    {
      "midi": 61,
      "hit": false,
      "t": 192352.84500000082,
      "d": 196.07833333333838,
      "v": 90
    },
    {
      "midi": 68,
      "hit": false,
      "t": 192646.96250000087,
      "d": 196.07833333333838,
      "v": 93
    },
    {
      "midi": 61,
      "hit": false,
      "t": 192941.0800000004,
      "d": 196.07833333333838,
      "v": 84
    },
    {
      "midi": 68,
      "hit": false,
      "t": 192941.0800000004,
      "d": 196.07833333333838,
      "v": 84
    },
    {
      "midi": 73,
      "hit": false,
      "t": 192941.08000000083,
      "d": 196.07833333333838,
      "v": 90
    },
    {
      "midi": 61,
      "hit": false,
      "t": 193235.1975000003,
      "d": 392.15666666667676,
      "v": 87
    },
    {
      "midi": 68,
      "hit": false,
      "t": 193235.1975000003,
      "d": 392.15666666667676,
      "v": 87
    },
    {
      "midi": 76,
      "hit": false,
      "t": 193235.19750000088,
      "d": 196.07833333333838,
      "v": 93
    },
    {
      "midi": 73,
      "hit": false,
      "t": 193529.31500000085,
      "d": 196.07833333333838,
      "v": 90
    },
    {
      "midi": 61,
      "hit": false,
      "t": 193823.43250000032,
      "d": 196.07833333333838,
      "v": 87
    },
    {
      "midi": 68,
      "hit": false,
      "t": 193823.43250000032,
      "d": 196.07833333333838,
      "v": 87
    },
    {
      "midi": 62,
      "hit": false,
      "t": 193823.4325000009,
      "d": 196.07833333333838,
      "v": 93
    },
    {
      "midi": 62,
      "hit": false,
      "t": 194117.5500000004,
      "d": 392.15666666667676,
      "v": 84
    },
    {
      "midi": 69,
      "hit": false,
      "t": 194117.5500000004,
      "d": 392.15666666667676,
      "v": 84
    },
    {
      "midi": 62,
      "hit": false,
      "t": 194117.55000000086,
      "d": 196.07833333333838,
      "v": 90
    },
    {
      "midi": 69,
      "hit": false,
      "t": 194411.6675000009,
      "d": 196.07833333333838,
      "v": 93
    },
    {
      "midi": 62,
      "hit": false,
      "t": 194705.7850000004,
      "d": 196.07833333333838,
      "v": 84
    },
    {
      "midi": 69,
      "hit": false,
      "t": 194705.7850000004,
      "d": 196.07833333333838,
      "v": 84
    },
    {
      "midi": 81,
      "hit": false,
      "t": 194705.78500000088,
      "d": 196.07833333333838,
      "v": 90
    },
    {
      "midi": 62,
      "hit": false,
      "t": 194999.90250000032,
      "d": 392.15666666667676,
      "v": 87
    },
    {
      "midi": 71,
      "hit": false,
      "t": 194999.90250000032,
      "d": 392.15666666667676,
      "v": 87
    },
    {
      "midi": 78,
      "hit": false,
      "t": 194999.90250000093,
      "d": 196.07833333333838,
      "v": 93
    },
    {
      "midi": 74,
      "hit": false,
      "t": 195294.0200000009,
      "d": 196.07833333333838,
      "v": 90
    },
    {
      "midi": 62,
      "hit": false,
      "t": 195588.13750000033,
      "d": 196.07833333333838,
      "v": 87
    },
    {
      "midi": 69,
      "hit": false,
      "t": 195588.13750000033,
      "d": 196.07833333333838,
      "v": 87
    },
    {
      "midi": 62,
      "hit": false,
      "t": 195588.13750000094,
      "d": 196.07833333333838,
      "v": 93
    },
    {
      "midi": 57,
      "hit": false,
      "t": 195882.2550000004,
      "d": 392.15666666667676,
      "v": 84
    },
    {
      "midi": 64,
      "hit": false,
      "t": 195882.2550000004,
      "d": 392.15666666667676,
      "v": 84
    },
    {
      "midi": 57,
      "hit": false,
      "t": 195882.2550000009,
      "d": 196.07833333333838,
      "v": 90
    },
    {
      "midi": 64,
      "hit": false,
      "t": 196176.37250000096,
      "d": 196.07833333333838,
      "v": 93
    },
    {
      "midi": 57,
      "hit": false,
      "t": 196470.49000000043,
      "d": 196.07833333333838,
      "v": 84
    },
    {
      "midi": 64,
      "hit": false,
      "t": 196470.49000000043,
      "d": 196.07833333333838,
      "v": 84
    },
    {
      "midi": 73,
      "hit": false,
      "t": 196470.49000000092,
      "d": 196.07833333333838,
      "v": 90
    },
    {
      "midi": 81,
      "hit": false,
      "t": 196470.49000000092,
      "d": 196.07833333333838,
      "v": 90
    },
    {
      "midi": 57,
      "hit": false,
      "t": 196764.60750000033,
      "d": 392.15666666667676,
      "v": 87
    },
    {
      "midi": 66,
      "hit": false,
      "t": 196764.60750000033,
      "d": 392.15666666667676,
      "v": 87
    },
    {
      "midi": 76,
      "hit": false,
      "t": 196764.60750000097,
      "d": 196.07833333333838,
      "v": 93
    },
    {
      "midi": 73,
      "hit": false,
      "t": 197058.72500000094,
      "d": 196.07833333333838,
      "v": 90
    },
    {
      "midi": 57,
      "hit": false,
      "t": 197352.84250000035,
      "d": 196.07833333333838,
      "v": 87
    },
    {
      "midi": 66,
      "hit": false,
      "t": 197352.84250000035,
      "d": 196.07833333333838,
      "v": 87
    },
    {
      "midi": 62,
      "hit": false,
      "t": 197352.842500001,
      "d": 196.07833333333838,
      "v": 93
    },
    {
      "midi": 52,
      "hit": false,
      "t": 197646.96000000043,
      "d": 196.07833333333838,
      "v": 84
    },
    {
      "midi": 52,
      "hit": false,
      "t": 197646.96000000095,
      "d": 196.07833333333838,
      "v": 90
    },
    {
      "midi": 64,
      "hit": false,
      "t": 197941.07750000042,
      "d": 392.15666666667676,
      "v": 84
    },
    {
      "midi": 71,
      "hit": false,
      "t": 197941.07750000042,
      "d": 392.15666666667676,
      "v": 84
    },
    {
      "midi": 64,
      "hit": false,
      "t": 197941.077500001,
      "d": 196.07833333333838,
      "v": 93
    },
    {
      "midi": 68,
      "hit": false,
      "t": 198235.19500000097,
      "d": 196.07833333333838,
      "v": 90
    },
    {
      "midi": 56,
      "hit": false,
      "t": 198529.31250000035,
      "d": 196.07833333333838,
      "v": 87
    },
    {
      "midi": 76,
      "hit": false,
      "t": 198529.31250000102,
      "d": 196.07833333333838,
      "v": 93
    },
    {
      "midi": 64,
      "hit": false,
      "t": 198823.43000000034,
      "d": 196.07833333333838,
      "v": 87
    },
    {
      "midi": 71,
      "hit": false,
      "t": 198823.43000000034,
      "d": 196.07833333333838,
      "v": 87
    },
    {
      "midi": 71,
      "hit": false,
      "t": 198823.43000000098,
      "d": 196.07833333333838,
      "v": 90
    },
    {
      "midi": 54,
      "hit": false,
      "t": 199117.54750000042,
      "d": 98.03916666665464,
      "v": 84
    },
    {
      "midi": 68,
      "hit": false,
      "t": 199117.54750000103,
      "d": 196.07833333333838,
      "v": 93
    },
    {
      "midi": 54,
      "hit": false,
      "t": 199264.60625000042,
      "d": 98.03916666665464,
      "v": 84
    },
    {
      "midi": 52,
      "hit": false,
      "t": 199411.66500000036,
      "d": 196.07833333333838,
      "v": 87
    },
    {
      "midi": 52,
      "hit": false,
      "t": 199411.665000001,
      "d": 196.07833333333838,
      "v": 90
    },
    {
      "midi": 71,
      "hit": false,
      "t": 199705.78250000035,
      "d": 392.15666666667676,
      "v": 87
    },
    {
      "midi": 64,
      "hit": false,
      "t": 199705.7825000004,
      "d": 392.15666666667676,
      "v": 84
    },
    {
      "midi": 71,
      "hit": false,
      "t": 199705.7825000004,
      "d": 392.15666666667676,
      "v": 84
    },
    {
      "midi": 76,
      "hit": false,
      "t": 199705.7825000004,
      "d": 392.15666666667676,
      "v": 84
    },
    {
      "midi": 64,
      "hit": false,
      "t": 199705.78250000105,
      "d": 196.07833333333838,
      "v": 93
    },
    {
      "midi": 68,
      "hit": false,
      "t": 199999.900000001,
      "d": 196.07833333333838,
      "v": 90
    },
    {
      "midi": 59,
      "hit": false,
      "t": 200294.01750000037,
      "d": 98.03916666665464,
      "v": 87
    },
    {
      "midi": 64,
      "hit": false,
      "t": 200294.01750000037,
      "d": 98.03916666665464,
      "v": 87
    },
    {
      "midi": 71,
      "hit": false,
      "t": 200294.01750000037,
      "d": 98.03916666665464,
      "v": 87
    },
    {
      "midi": 76,
      "hit": false,
      "t": 200294.01750000037,
      "d": 98.03916666665464,
      "v": 87
    },
    {
      "midi": 71,
      "hit": false,
      "t": 200294.01750000042,
      "d": 98.03916666665464,
      "v": 84
    },
    {
      "midi": 76,
      "hit": false,
      "t": 200294.01750000106,
      "d": 196.07833333333838,
      "v": 93
    },
    {
      "midi": 61,
      "hit": false,
      "t": 200441.07625000042,
      "d": 98.03916666665464,
      "v": 84
    },
    {
      "midi": 64,
      "hit": false,
      "t": 200588.13500000036,
      "d": 392.15666666667676,
      "v": 87
    },
    {
      "midi": 71,
      "hit": false,
      "t": 200588.13500000103,
      "d": 196.07833333333838,
      "v": 90
    },
    {
      "midi": 68,
      "hit": false,
      "t": 200882.25250000108,
      "d": 196.07833333333838,
      "v": 93
    },
    {
      "midi": 57,
      "hit": false,
      "t": 201176.3700000004,
      "d": 392.15666666667676,
      "v": 84
    },
    {
      "midi": 64,
      "hit": false,
      "t": 201176.3700000004,
      "d": 392.15666666667676,
      "v": 84
    },
    {
      "midi": 57,
      "hit": false,
      "t": 201176.37000000107,
      "d": 196.07833333333838,
      "v": 93
    },
    {
      "midi": 64,
      "hit": false,
      "t": 201470.48750000107,
      "d": 196.07833333333838,
      "v": 93
    },
    {
      "midi": 57,
      "hit": false,
      "t": 201764.60500000042,
      "d": 196.07833333333838,
      "v": 84
    },
    {
      "midi": 64,
      "hit": false,
      "t": 201764.60500000042,
      "d": 196.07833333333838,
      "v": 84
    },
    {
      "midi": 69,
      "hit": false,
      "t": 201764.60500000103,
      "d": 196.07833333333838,
      "v": 90
    },
    {
      "midi": 57,
      "hit": false,
      "t": 202058.72250000038,
      "d": 392.15666666667676,
      "v": 87
    },
    {
      "midi": 66,
      "hit": false,
      "t": 202058.72250000038,
      "d": 392.15666666667676,
      "v": 87
    },
    {
      "midi": 76,
      "hit": false,
      "t": 202058.72250000102,
      "d": 196.07833333333838,
      "v": 90
    },
    {
      "midi": 73,
      "hit": false,
      "t": 202352.84000000107,
      "d": 196.07833333333838,
      "v": 93
    },
    {
      "midi": 57,
      "hit": false,
      "t": 202646.9575000004,
      "d": 196.07833333333838,
      "v": 87
    },
    {
      "midi": 64,
      "hit": false,
      "t": 202646.9575000004,
      "d": 196.07833333333838,
      "v": 87
    },
    {
      "midi": 69,
      "hit": false,
      "t": 202646.95750000107,
      "d": 196.07833333333838,
      "v": 93
    },
    {
      "midi": 64,
      "hit": false,
      "t": 202941.07500000042,
      "d": 392.15666666667676,
      "v": 84
    },
    {
      "midi": 71,
      "hit": false,
      "t": 202941.07500000042,
      "d": 392.15666666667676,
      "v": 84
    },
    {
      "midi": 52,
      "hit": false,
      "t": 202941.07500000103,
      "d": 196.07833333333838,
      "v": 90
    },
    {
      "midi": 64,
      "hit": false,
      "t": 203235.19250000102,
      "d": 196.07833333333838,
      "v": 90
    },
    {
      "midi": 64,
      "hit": false,
      "t": 203529.31000000043,
      "d": 196.07833333333838,
      "v": 84
    },
    {
      "midi": 71,
      "hit": false,
      "t": 203529.31000000043,
      "d": 196.07833333333838,
      "v": 84
    },
    {
      "midi": 68,
      "hit": false,
      "t": 203529.31000000107,
      "d": 196.07833333333838,
      "v": 93
    },
    {
      "midi": 64,
      "hit": false,
      "t": 203823.4275000004,
      "d": 392.15666666667676,
      "v": 87
    },
    {
      "midi": 73,
      "hit": false,
      "t": 203823.4275000004,
      "d": 392.15666666667676,
      "v": 87
    },
    {
      "midi": 76,
      "hit": false,
      "t": 203823.42750000107,
      "d": 196.07833333333838,
      "v": 93
    },
    {
      "midi": 71,
      "hit": false,
      "t": 204117.54500000103,
      "d": 196.07833333333838,
      "v": 90
    },
    {
      "midi": 64,
      "hit": false,
      "t": 204411.6625000004,
      "d": 196.07833333333838,
      "v": 87
    },
    {
      "midi": 73,
      "hit": false,
      "t": 204411.6625000004,
      "d": 196.07833333333838,
      "v": 87
    },
    {
      "midi": 67,
      "hit": false,
      "t": 204411.66250000102,
      "d": 196.07833333333838,
      "v": 90
    },
    {
      "midi": 54,
      "hit": false,
      "t": 204705.78000000044,
      "d": 588.234999999986,
      "v": 84
    },
    {
      "midi": 61,
      "hit": false,
      "t": 204705.78000000044,
      "d": 588.234999999986,
      "v": 84
    },
    {
      "midi": 54,
      "hit": false,
      "t": 204705.78000000108,
      "d": 196.07833333333838,
      "v": 93
    },
    {
      "midi": 66,
      "hit": false,
      "t": 204999.89750000107,
      "d": 196.07833333333838,
      "v": 93
    },
    {
      "midi": 69,
      "hit": false,
      "t": 205294.01500000103,
      "d": 196.07833333333838,
      "v": 90
    },
    {
      "midi": 54,
      "hit": false,
      "t": 205588.1325000004,
      "d": 588.234999999986,
      "v": 87
    },
    {
      "midi": 61,
      "hit": false,
      "t": 205588.1325000004,
      "d": 588.234999999986,
      "v": 87
    },
    {
      "midi": 73,
      "hit": false,
      "t": 205588.13250000103,
      "d": 196.07833333333838,
      "v": 90
    },
    {
      "midi": 69,
      "hit": false,
      "t": 205882.25000000108,
      "d": 196.07833333333838,
      "v": 93
    },
    {
      "midi": 66,
      "hit": false,
      "t": 206176.36750000107,
      "d": 196.07833333333838,
      "v": 93
    },
    {
      "midi": 61,
      "hit": false,
      "t": 206470.48500000042,
      "d": 588.234999999986,
      "v": 84
    },
    {
      "midi": 68,
      "hit": false,
      "t": 206470.48500000042,
      "d": 588.234999999986,
      "v": 84
    },
    {
      "midi": 61,
      "hit": false,
      "t": 206470.48500000103,
      "d": 196.07833333333838,
      "v": 90
    },
    {
      "midi": 68,
      "hit": false,
      "t": 206764.60250000103,
      "d": 196.07833333333838,
      "v": 90
    },
    {
      "midi": 73,
      "hit": false,
      "t": 207058.72000000108,
      "d": 196.07833333333838,
      "v": 93
    },
    {
      "midi": 61,
      "hit": false,
      "t": 207352.8375000004,
      "d": 588.234999999986,
      "v": 87
    },
    {
      "midi": 68,
      "hit": false,
      "t": 207352.8375000004,
      "d": 588.234999999986,
      "v": 87
    },
    {
      "midi": 76,
      "hit": false,
      "t": 207352.83750000107,
      "d": 196.07833333333838,
      "v": 93
    },
    {
      "midi": 73,
      "hit": false,
      "t": 207646.95500000103,
      "d": 196.07833333333838,
      "v": 90
    },
    {
      "midi": 68,
      "hit": false,
      "t": 207941.07250000103,
      "d": 196.07833333333838,
      "v": 90
    },
    {
      "midi": 62,
      "hit": false,
      "t": 208235.1900000004,
      "d": 196.07833333333838,
      "v": 84
    },
    {
      "midi": 69,
      "hit": false,
      "t": 208235.1900000004,
      "d": 196.07833333333838,
      "v": 84
    },
    {
      "midi": 62,
      "hit": false,
      "t": 208235.19000000108,
      "d": 196.07833333333838,
      "v": 93
    },
    {
      "midi": 62,
      "hit": false,
      "t": 208529.30750000037,
      "d": 98.03916666665464,
      "v": 87
    },
    {
      "midi": 69,
      "hit": false,
      "t": 208529.30750000037,
      "d": 98.03916666665464,
      "v": 87
    },
    {
      "midi": 69,
      "hit": false,
      "t": 208529.30750000107,
      "d": 196.07833333333838,
      "v": 93
    },
    {
      "midi": 62,
      "hit": false,
      "t": 208676.36625000037,
      "d": 98.03916666665464,
      "v": 87
    },
    {
      "midi": 69,
      "hit": false,
      "t": 208676.36625000037,
      "d": 98.03916666665464,
      "v": 87
    },
    {
      "midi": 62,
      "hit": false,
      "t": 208823.42500000042,
      "d": 196.07833333333838,
      "v": 84
    },
    {
      "midi": 69,
      "hit": false,
      "t": 208823.42500000042,
      "d": 196.07833333333838,
      "v": 84
    },
    {
      "midi": 74,
      "hit": false,
      "t": 208823.42500000104,
      "d": 196.07833333333838,
      "v": 90
    },
    {
      "midi": 62,
      "hit": false,
      "t": 209117.54250000036,
      "d": 392.15666666667676,
      "v": 87
    },
    {
      "midi": 71,
      "hit": false,
      "t": 209117.54250000036,
      "d": 392.15666666667676,
      "v": 87
    },
    {
      "midi": 78,
      "hit": false,
      "t": 209117.54250000103,
      "d": 196.07833333333838,
      "v": 90
    },
    {
      "midi": 74,
      "hit": false,
      "t": 209411.66000000108,
      "d": 196.07833333333838,
      "v": 93
    },
    {
      "midi": 62,
      "hit": false,
      "t": 209705.77750000037,
      "d": 196.07833333333838,
      "v": 87
    },
    {
      "midi": 69,
      "hit": false,
      "t": 209705.77750000037,
      "d": 196.07833333333838,
      "v": 87
    },
    {
      "midi": 69,
      "hit": false,
      "t": 209705.77750000107,
      "d": 196.07833333333838,
      "v": 93
    },
    {
      "midi": 57,
      "hit": false,
      "t": 209999.89500000043,
      "d": 392.15666666667676,
      "v": 84
    },
    {
      "midi": 64,
      "hit": false,
      "t": 209999.89500000043,
      "d": 392.15666666667676,
      "v": 84
    },
    {
      "midi": 57,
      "hit": false,
      "t": 209999.89500000104,
      "d": 196.07833333333838,
      "v": 90
    },
    {
      "midi": 69,
      "hit": false,
      "t": 210294.01250000103,
      "d": 196.07833333333838,
      "v": 90
    },
    {
      "midi": 57,
      "hit": false,
      "t": 210588.13000000044,
      "d": 196.07833333333838,
      "v": 84
    },
    {
      "midi": 64,
      "hit": false,
      "t": 210588.13000000044,
      "d": 196.07833333333838,
      "v": 84
    },
    {
      "midi": 73,
      "hit": false,
      "t": 210588.13000000108,
      "d": 196.07833333333838,
      "v": 93
    },
    {
      "midi": 57,
      "hit": false,
      "t": 210882.24750000038,
      "d": 392.15666666667676,
      "v": 87
    },
    {
      "midi": 66,
      "hit": false,
      "t": 210882.24750000038,
      "d": 392.15666666667676,
      "v": 87
    },
    {
      "midi": 76,
      "hit": false,
      "t": 210882.24750000107,
      "d": 196.07833333333838,
      "v": 93
    },
    {
      "midi": 73,
      "hit": false,
      "t": 211176.36500000104,
      "d": 196.07833333333838,
      "v": 90
    },
    {
      "midi": 57,
      "hit": false,
      "t": 211470.4825000004,
      "d": 196.07833333333838,
      "v": 87
    },
    {
      "midi": 64,
      "hit": false,
      "t": 211470.4825000004,
      "d": 196.07833333333838,
      "v": 87
    },
    {
      "midi": 67,
      "hit": false,
      "t": 211470.48250000103,
      "d": 196.07833333333838,
      "v": 90
    },
    {
      "midi": 61,
      "hit": false,
      "t": 211764.60000000044,
      "d": 196.07833333333838,
      "v": 84
    },
    {
      "midi": 52,
      "hit": false,
      "t": 211764.60000000108,
      "d": 196.07833333333838,
      "v": 93
    },
    {
      "midi": 64,
      "hit": false,
      "t": 212058.71750000044,
      "d": 196.07833333333838,
      "v": 84
    },
    {
      "midi": 64,
      "hit": false,
      "t": 212058.71750000108,
      "d": 196.07833333333838,
      "v": 93
    },
    {
      "midi": 52,
      "hit": false,
      "t": 212352.8350000004,
      "d": 196.07833333333838,
      "v": 87
    },
    {
      "midi": 68,
      "hit": false,
      "t": 212352.83500000104,
      "d": 196.07833333333838,
      "v": 90
    },
    {
      "midi": 52,
      "hit": false,
      "t": 212646.9525000004,
      "d": 392.15666666667676,
      "v": 87
    },
    {
      "midi": 59,
      "hit": false,
      "t": 212646.9525000004,
      "d": 392.15666666667676,
      "v": 87
    },
    {
      "midi": 64,
      "hit": false,
      "t": 212646.9525000004,
      "d": 392.15666666667676,
      "v": 87
    },
    {
      "midi": 71,
      "hit": false,
      "t": 212646.9525000004,
      "d": 392.15666666667676,
      "v": 87
    },
    {
      "midi": 76,
      "hit": false,
      "t": 212646.95250000103,
      "d": 196.07833333333838,
      "v": 90
    },
    {
      "midi": 71,
      "hit": false,
      "t": 212941.07000000108,
      "d": 196.07833333333838,
      "v": 93
    },
    {
      "midi": 52,
      "hit": false,
      "t": 213235.18750000044,
      "d": 196.07833333333838,
      "v": 84
    },
    {
      "midi": 59,
      "hit": false,
      "t": 213235.18750000044,
      "d": 196.07833333333838,
      "v": 84
    },
    {
      "midi": 64,
      "hit": false,
      "t": 213235.18750000044,
      "d": 196.07833333333838,
      "v": 84
    },
    {
      "midi": 71,
      "hit": false,
      "t": 213235.18750000044,
      "d": 196.07833333333838,
      "v": 84
    },
    {
      "midi": 68,
      "hit": false,
      "t": 213235.18750000108,
      "d": 196.07833333333838,
      "v": 93
    },
    {
      "midi": 52,
      "hit": false,
      "t": 213529.3050000004,
      "d": 196.07833333333838,
      "v": 87
    },
    {
      "midi": 59,
      "hit": false,
      "t": 213529.3050000004,
      "d": 196.07833333333838,
      "v": 87
    },
    {
      "midi": 64,
      "hit": false,
      "t": 213529.3050000004,
      "d": 196.07833333333838,
      "v": 87
    },
    {
      "midi": 71,
      "hit": false,
      "t": 213529.3050000004,
      "d": 196.07833333333838,
      "v": 87
    },
    {
      "midi": 52,
      "hit": false,
      "t": 213529.30500000104,
      "d": 196.07833333333838,
      "v": 90
    },
    {
      "midi": 52,
      "hit": false,
      "t": 213823.42250000045,
      "d": 196.07833333333838,
      "v": 84
    },
    {
      "midi": 59,
      "hit": false,
      "t": 213823.42250000045,
      "d": 196.07833333333838,
      "v": 84
    },
    {
      "midi": 64,
      "hit": false,
      "t": 213823.42250000045,
      "d": 196.07833333333838,
      "v": 84
    },
    {
      "midi": 71,
      "hit": false,
      "t": 213823.42250000045,
      "d": 196.07833333333838,
      "v": 84
    },
    {
      "midi": 64,
      "hit": false,
      "t": 213823.42250000103,
      "d": 196.07833333333838,
      "v": 90
    },
    {
      "midi": 52,
      "hit": false,
      "t": 214117.54000000042,
      "d": 196.07833333333838,
      "v": 87
    },
    {
      "midi": 59,
      "hit": false,
      "t": 214117.54000000042,
      "d": 196.07833333333838,
      "v": 87
    },
    {
      "midi": 64,
      "hit": false,
      "t": 214117.54000000042,
      "d": 196.07833333333838,
      "v": 87
    },
    {
      "midi": 71,
      "hit": false,
      "t": 214117.54000000042,
      "d": 196.07833333333838,
      "v": 87
    },
    {
      "midi": 68,
      "hit": false,
      "t": 214117.54000000108,
      "d": 196.07833333333838,
      "v": 93
    },
    {
      "midi": 52,
      "hit": false,
      "t": 214411.65750000047,
      "d": 588.234999999986,
      "v": 84
    },
    {
      "midi": 59,
      "hit": false,
      "t": 214411.65750000047,
      "d": 588.234999999986,
      "v": 84
    },
    {
      "midi": 64,
      "hit": false,
      "t": 214411.65750000047,
      "d": 588.234999999986,
      "v": 84
    },
    {
      "midi": 71,
      "hit": false,
      "t": 214411.65750000047,
      "d": 588.234999999986,
      "v": 84
    },
    {
      "midi": 76,
      "hit": false,
      "t": 214411.65750000108,
      "d": 196.07833333333838,
      "v": 93
    },
    {
      "midi": 71,
      "hit": false,
      "t": 214705.77500000104,
      "d": 196.07833333333838,
      "v": 90
    },
    {
      "midi": 67,
      "hit": false,
      "t": 214999.89250000103,
      "d": 196.07833333333838,
      "v": 90
    },
    {
      "midi": 55,
      "hit": false,
      "t": 215294.01000000042,
      "d": 392.15666666667676,
      "v": 87
    },
    {
      "midi": 62,
      "hit": false,
      "t": 215294.01000000042,
      "d": 392.15666666667676,
      "v": 87
    },
    {
      "midi": 74,
      "hit": false,
      "t": 215294.01000000103,
      "d": 1176.469999999972,
      "v": 90
    },
    {
      "midi": 55,
      "hit": false,
      "t": 215294.0100000011,
      "d": 196.07833333333838,
      "v": 93
    },
    {
      "midi": 62,
      "hit": false,
      "t": 215588.12750000108,
      "d": 196.07833333333838,
      "v": 93
    },
    {
      "midi": 55,
      "hit": false,
      "t": 215882.24500000043,
      "d": 196.07833333333838,
      "v": 87
    },
    {
      "midi": 62,
      "hit": false,
      "t": 215882.24500000043,
      "d": 196.07833333333838,
      "v": 87
    },
    {
      "midi": 67,
      "hit": false,
      "t": 215882.245000001,
      "d": 196.07833333333838,
      "v": 90
    },
    {
      "midi": 58,
      "hit": false,
      "t": 216176.36250000045,
      "d": 196.07833333333838,
      "v": 84
    },
    {
      "midi": 79,
      "hit": false,
      "t": 216176.362500001,
      "d": 196.07833333333838,
      "v": 90
    },
    {
      "midi": 59,
      "hit": false,
      "t": 216470.48000000045,
      "d": 196.07833333333838,
      "v": 84
    },
    {
      "midi": 74,
      "hit": false,
      "t": 216470.4800000011,
      "d": 196.07833333333838,
      "v": 93
    },
    {
      "midi": 62,
      "hit": false,
      "t": 216764.59750000044,
      "d": 196.07833333333838,
      "v": 84
    },
    {
      "midi": 67,
      "hit": false,
      "t": 216764.59750000108,
      "d": 196.07833333333838,
      "v": 93
    },
    {
      "midi": 62,
      "hit": false,
      "t": 217058.71500000043,
      "d": 392.15666666667676,
      "v": 84
    },
    {
      "midi": 69,
      "hit": false,
      "t": 217058.71500000043,
      "d": 392.15666666667676,
      "v": 84
    },
    {
      "midi": 62,
      "hit": false,
      "t": 217058.715000001,
      "d": 196.07833333333838,
      "v": 90
    },
    {
      "midi": 69,
      "hit": false,
      "t": 217352.83250000098,
      "d": 196.07833333333838,
      "v": 90
    },
    {
      "midi": 62,
      "hit": false,
      "t": 217646.95000000045,
      "d": 196.07833333333838,
      "v": 87
    },
    {
      "midi": 69,
      "hit": false,
      "t": 217646.95000000045,
      "d": 196.07833333333838,
      "v": 87
    },
    {
      "midi": 74,
      "hit": false,
      "t": 217646.9500000011,
      "d": 196.07833333333838,
      "v": 93
    },
    {
      "midi": 65,
      "hit": false,
      "t": 217941.06750000044,
      "d": 196.07833333333838,
      "v": 87
    },
    {
      "midi": 69,
      "hit": false,
      "t": 217941.06750000044,
      "d": 196.07833333333838,
      "v": 87
    },
    {
      "midi": 78,
      "hit": false,
      "t": 217941.06750000108,
      "d": 196.07833333333838,
      "v": 93
    },
    {
      "midi": 66,
      "hit": false,
      "t": 218235.18500000043,
      "d": 196.07833333333838,
      "v": 87
    },
    {
      "midi": 74,
      "hit": false,
      "t": 218235.185000001,
      "d": 196.07833333333838,
      "v": 90
    },
    {
      "midi": 69,
      "hit": false,
      "t": 218529.30250000046,
      "d": 196.07833333333838,
      "v": 84
    },
    {
      "midi": 74,
      "hit": false,
      "t": 218529.30250000046,
      "d": 196.07833333333838,
      "v": 84
    },
    {
      "midi": 67,
      "hit": false,
      "t": 218529.30250000098,
      "d": 196.07833333333838,
      "v": 90
    },
    {
      "midi": 55,
      "hit": false,
      "t": 218823.42000000045,
      "d": 392.15666666667676,
      "v": 84
    },
    {
      "midi": 62,
      "hit": false,
      "t": 218823.42000000045,
      "d": 392.15666666667676,
      "v": 84
    },
    {
      "midi": 55,
      "hit": false,
      "t": 218823.4200000011,
      "d": 196.07833333333838,
      "v": 93
    },
    {
      "midi": 62,
      "hit": false,
      "t": 219117.53750000108,
      "d": 196.07833333333838,
      "v": 93
    },
    {
      "midi": 55,
      "hit": false,
      "t": 219411.65500000044,
      "d": 196.07833333333838,
      "v": 87
    },
    {
      "midi": 62,
      "hit": false,
      "t": 219411.65500000044,
      "d": 196.07833333333838,
      "v": 87
    },
    {
      "midi": 67,
      "hit": false,
      "t": 219411.655000001,
      "d": 196.07833333333838,
      "v": 90
    },
    {
      "midi": 58,
      "hit": false,
      "t": 219705.77250000043,
      "d": 196.07833333333838,
      "v": 87
    },
    {
      "midi": 79,
      "hit": false,
      "t": 219705.77250000098,
      "d": 196.07833333333838,
      "v": 90
    },
    {
      "midi": 59,
      "hit": false,
      "t": 219999.89000000042,
      "d": 196.07833333333838,
      "v": 87
    },
    {
      "midi": 74,
      "hit": false,
      "t": 219999.8900000011,
      "d": 196.07833333333838,
      "v": 93
    },
    {
      "midi": 62,
      "hit": false,
      "t": 220294.0075000004,
      "d": 196.07833333333838,
      "v": 87
    },
    {
      "midi": 67,
      "hit": false,
      "t": 220294.00750000108,
      "d": 196.07833333333838,
      "v": 93
    },
    {
      "midi": 62,
      "hit": false,
      "t": 220588.12500000047,
      "d": 196.07833333333838,
      "v": 84
    },
    {
      "midi": 69,
      "hit": false,
      "t": 220588.12500000047,
      "d": 196.07833333333838,
      "v": 84
    },
    {
      "midi": 62,
      "hit": false,
      "t": 220588.125000001,
      "d": 196.07833333333838,
      "v": 90
    },
    {
      "midi": 65,
      "hit": false,
      "t": 220882.24250000046,
      "d": 196.07833333333838,
      "v": 84
    },
    {
      "midi": 69,
      "hit": false,
      "t": 220882.24250000098,
      "d": 196.07833333333838,
      "v": 90
    },
    {
      "midi": 66,
      "hit": false,
      "t": 221176.36000000045,
      "d": 196.07833333333838,
      "v": 84
    },
    {
      "midi": 74,
      "hit": false,
      "t": 221176.3600000011,
      "d": 196.07833333333838,
      "v": 93
    },
    {
      "midi": 69,
      "hit": false,
      "t": 221470.47750000044,
      "d": 196.07833333333838,
      "v": 84
    },
    {
      "midi": 74,
      "hit": false,
      "t": 221470.47750000044,
      "d": 196.07833333333838,
      "v": 84
    },
    {
      "midi": 78,
      "hit": false,
      "t": 221470.47750000108,
      "d": 196.07833333333838,
      "v": 93
    },
    {
      "midi": 71,
      "hit": false,
      "t": 221764.5950000004,
      "d": 196.07833333333838,
      "v": 87
    },
    {
      "midi": 74,
      "hit": false,
      "t": 221764.595000001,
      "d": 196.07833333333838,
      "v": 90
    },
    {
      "midi": 69,
      "hit": false,
      "t": 222058.7125000004,
      "d": 196.07833333333838,
      "v": 87
    },
    {
      "midi": 74,
      "hit": false,
      "t": 222058.7125000004,
      "d": 196.07833333333838,
      "v": 87
    },
    {
      "midi": 67,
      "hit": false,
      "t": 222058.71250000098,
      "d": 196.07833333333838,
      "v": 90
    },
    {
      "midi": 60,
      "hit": false,
      "t": 222352.8300000004,
      "d": 196.07833333333838,
      "v": 87
    },
    {
      "midi": 67,
      "hit": false,
      "t": 222352.8300000004,
      "d": 196.07833333333838,
      "v": 87
    },
    {
      "midi": 60,
      "hit": false,
      "t": 222352.8300000011,
      "d": 196.07833333333838,
      "v": 93
    },
    {
      "midi": 64,
      "hit": false,
      "t": 222646.9475000004,
      "d": 196.07833333333838,
      "v": 87
    },
    {
      "midi": 64,
      "hit": false,
      "t": 222646.9475000011,
      "d": 196.07833333333838,
      "v": 93
    },
    {
      "midi": 64,
      "hit": false,
      "t": 222941.06500000038,
      "d": 196.07833333333838,
      "v": 87
    },
    {
      "midi": 67,
      "hit": false,
      "t": 222941.065000001,
      "d": 196.07833333333838,
      "v": 90
    },
    {
      "midi": 67,
      "hit": false,
      "t": 223235.18250000046,
      "d": 196.07833333333838,
      "v": 84
    },
    {
      "midi": 72,
      "hit": false,
      "t": 223235.18250000046,
      "d": 196.07833333333838,
      "v": 84
    },
    {
      "midi": 72,
      "hit": false,
      "t": 223235.18250000098,
      "d": 196.07833333333838,
      "v": 90
    },
    {
      "midi": 69,
      "hit": false,
      "t": 223529.30000000045,
      "d": 392.15666666667676,
      "v": 84
    },
    {
      "midi": 67,
      "hit": false,
      "t": 223529.3000000011,
      "d": 196.07833333333838,
      "v": 93
    },
    {
      "midi": 62,
      "hit": false,
      "t": 223823.4175000011,
      "d": 196.07833333333838,
      "v": 93
    },
    {
      "midi": 55,
      "hit": false,
      "t": 224117.53500000038,
      "d": 196.07833333333838,
      "v": 87
    },
    {
      "midi": 62,
      "hit": false,
      "t": 224117.53500000038,
      "d": 196.07833333333838,
      "v": 87
    },
    {
      "midi": 55,
      "hit": false,
      "t": 224117.535000001,
      "d": 196.07833333333838,
      "v": 90
    },
    {
      "midi": 58,
      "hit": false,
      "t": 224411.65250000037,
      "d": 196.07833333333838,
      "v": 87
    },
    {
      "midi": 62,
      "hit": false,
      "t": 224411.652500001,
      "d": 196.07833333333838,
      "v": 90
    },
    {
      "midi": 59,
      "hit": false,
      "t": 224705.77000000037,
      "d": 196.07833333333838,
      "v": 87
    },
    {
      "midi": 67,
      "hit": false,
      "t": 224705.7700000011,
      "d": 196.07833333333838,
      "v": 93
    },
    {
      "midi": 62,
      "hit": false,
      "t": 224999.88750000048,
      "d": 196.07833333333838,
      "v": 84
    },
    {
      "midi": 67,
      "hit": false,
      "t": 224999.88750000048,
      "d": 196.07833333333838,
      "v": 84
    },
    {
      "midi": 79,
      "hit": false,
      "t": 224999.8875000011,
      "d": 196.07833333333838,
      "v": 93
    },
    {
      "midi": 64,
      "hit": false,
      "t": 225294.00500000047,
      "d": 392.15666666667676,
      "v": 84
    },
    {
      "midi": 74,
      "hit": false,
      "t": 225294.005000001,
      "d": 196.07833333333838,
      "v": 90
    },
    {
      "midi": 67,
      "hit": false,
      "t": 225588.122500001,
      "d": 196.07833333333838,
      "v": 90
    },
    {
      "midi": 52,
      "hit": false,
      "t": 225882.24000000037,
      "d": 196.07833333333838,
      "v": 87
    },
    {
      "midi": 52,
      "hit": false,
      "t": 225882.2400000011,
      "d": 196.07833333333838,
      "v": 93
    },
    {
      "midi": 68,
      "hit": false,
      "t": 226176.35750000036,
      "d": 392.15666666667676,
      "v": 87
    },
    {
      "midi": 71,
      "hit": false,
      "t": 226176.35750000036,
      "d": 392.15666666667676,
      "v": 87
    },
    {
      "midi": 76,
      "hit": false,
      "t": 226176.35750000036,
      "d": 392.15666666667676,
      "v": 87
    },
    {
      "midi": 64,
      "hit": false,
      "t": 226176.3575000011,
      "d": 196.07833333333838,
      "v": 93
    },
    {
      "midi": 68,
      "hit": false,
      "t": 226470.475000001,
      "d": 196.07833333333838,
      "v": 90
    },
    {
      "midi": 57,
      "hit": false,
      "t": 226764.5925000005,
      "d": 196.07833333333838,
      "v": 84
    },
    {
      "midi": 76,
      "hit": false,
      "t": 226764.592500001,
      "d": 196.07833333333838,
      "v": 90
    },
    {
      "midi": 71,
      "hit": false,
      "t": 227058.7100000005,
      "d": 392.15666666667676,
      "v": 84
    },
    {
      "midi": 76,
      "hit": false,
      "t": 227058.7100000005,
      "d": 392.15666666667676,
      "v": 84
    },
    {
      "midi": 71,
      "hit": false,
      "t": 227058.7100000011,
      "d": 196.07833333333838,
      "v": 93
    },
    {
      "midi": 68,
      "hit": false,
      "t": 227352.8275000011,
      "d": 196.07833333333838,
      "v": 93
    },
    {
      "midi": 71,
      "hit": false,
      "t": 227646.94500000039,
      "d": 196.07833333333838,
      "v": 87
    },
    {
      "midi": 64,
      "hit": false,
      "t": 227646.945000001,
      "d": 196.07833333333838,
      "v": 90
    },
    {
      "midi": 80,
      "hit": false,
      "t": 227941.0625000005,
      "d": 196.07833333333838,
      "v": 84
    },
    {
      "midi": 59,
      "hit": false,
      "t": 227941.062500001,
      "d": 196.07833333333838,
      "v": 90
    },
    {
      "midi": 71,
      "hit": false,
      "t": 228235.1800000004,
      "d": 196.07833333333838,
      "v": 87
    },
    {
      "midi": 64,
      "hit": false,
      "t": 228235.1800000011,
      "d": 196.07833333333838,
      "v": 93
    },
    {
      "midi": 80,
      "hit": false,
      "t": 228529.2975000005,
      "d": 196.07833333333838,
      "v": 84
    },
    {
      "midi": 76,
      "hit": false,
      "t": 228529.2975000011,
      "d": 196.07833333333838,
      "v": 93
    },
    {
      "midi": 71,
      "hit": false,
      "t": 228823.41500000042,
      "d": 196.07833333333838,
      "v": 87
    },
    {
      "midi": 71,
      "hit": false,
      "t": 228823.415000001,
      "d": 196.07833333333838,
      "v": 90
    },
    {
      "midi": 80,
      "hit": false,
      "t": 229117.53250000053,
      "d": 196.07833333333838,
      "v": 84
    },
    {
      "midi": 68,
      "hit": false,
      "t": 229117.532500001,
      "d": 196.07833333333838,
      "v": 90
    },
    {
      "midi": 57,
      "hit": false,
      "t": 229411.65000000043,
      "d": 392.15666666667676,
      "v": 87
    },
    {
      "midi": 57,
      "hit": false,
      "t": 229411.6500000011,
      "d": 196.07833333333838,
      "v": 93
    },
    {
      "midi": 64,
      "hit": false,
      "t": 229705.7675000011,
      "d": 196.07833333333838,
      "v": 93
    },
    {
      "midi": 81,
      "hit": false,
      "t": 229999.88500000045,
      "d": 392.15666666667676,
      "v": 87
    },
    {
      "midi": 85,
      "hit": false,
      "t": 229999.88500000045,
      "d": 392.15666666667676,
      "v": 87
    },
    {
      "midi": 69,
      "hit": false,
      "t": 229999.885000001,
      "d": 196.07833333333838,
      "v": 90
    },
    {
      "midi": 76,
      "hit": false,
      "t": 230294.002500001,
      "d": 196.07833333333838,
      "v": 90
    },
    {
      "midi": 81,
      "hit": false,
      "t": 230588.12000000052,
      "d": 196.07833333333838,
      "v": 84
    },
    {
      "midi": 85,
      "hit": false,
      "t": 230588.12000000052,
      "d": 196.07833333333838,
      "v": 84
    },
    {
      "midi": 73,
      "hit": false,
      "t": 230588.1200000011,
      "d": 196.07833333333838,
      "v": 93
    },
    {
      "midi": 64,
      "hit": false,
      "t": 230882.2375000005,
      "d": 196.07833333333838,
      "v": 84
    },
    {
      "midi": 69,
      "hit": false,
      "t": 230882.2375000005,
      "d": 196.07833333333838,
      "v": 84
    },
    {
      "midi": 67,
      "hit": false,
      "t": 230882.2375000011,
      "d": 196.07833333333838,
      "v": 93
    },
    {
      "midi": 64,
      "hit": false,
      "t": 231176.35500000045,
      "d": 392.15666666667676,
      "v": 87
    },
    {
      "midi": 71,
      "hit": false,
      "t": 231176.35500000045,
      "d": 392.15666666667676,
      "v": 87
    },
    {
      "midi": 52,
      "hit": false,
      "t": 231176.355000001,
      "d": 196.07833333333838,
      "v": 90
    },
    {
      "midi": 64,
      "hit": false,
      "t": 231470.472500001,
      "d": 196.07833333333838,
      "v": 90
    },
    {
      "midi": 71,
      "hit": false,
      "t": 231764.59000000046,
      "d": 392.15666666667676,
      "v": 87
    },
    {
      "midi": 76,
      "hit": false,
      "t": 231764.59000000046,
      "d": 392.15666666667676,
      "v": 87
    },
    {
      "midi": 68,
      "hit": false,
      "t": 231764.5900000011,
      "d": 196.07833333333838,
      "v": 93
    },
    {
      "midi": 76,
      "hit": false,
      "t": 232058.7075000011,
      "d": 196.07833333333838,
      "v": 93
    },
    {
      "midi": 71,
      "hit": false,
      "t": 232352.8250000005,
      "d": 196.07833333333838,
      "v": 84
    },
    {
      "midi": 76,
      "hit": false,
      "t": 232352.8250000005,
      "d": 196.07833333333838,
      "v": 84
    },
    {
      "midi": 71,
      "hit": false,
      "t": 232352.825000001,
      "d": 196.07833333333838,
      "v": 90
    },
    {
      "midi": 64,
      "hit": false,
      "t": 232646.9425000005,
      "d": 196.07833333333838,
      "v": 84
    },
    {
      "midi": 67,
      "hit": false,
      "t": 232646.942500001,
      "d": 196.07833333333838,
      "v": 90
    },
    {
      "midi": 64,
      "hit": false,
      "t": 232941.0600000005,
      "d": 784.3133333333244,
      "v": 84
    },
    {
      "midi": 69,
      "hit": false,
      "t": 232941.0600000005,
      "d": 784.3133333333244,
      "v": 84
    },
    {
      "midi": 73,
      "hit": false,
      "t": 232941.0600000005,
      "d": 784.3133333333244,
      "v": 84
    },
    {
      "midi": 78,
      "hit": false,
      "t": 232941.0600000005,
      "d": 784.3133333333244,
      "v": 84
    },
    {
      "midi": 54,
      "hit": false,
      "t": 232941.0600000011,
      "d": 196.07833333333838,
      "v": 93
    },
    {
      "midi": 66,
      "hit": false,
      "t": 233235.1775000011,
      "d": 196.07833333333838,
      "v": 93
    },
    {
      "midi": 69,
      "hit": false,
      "t": 233529.295000001,
      "d": 196.07833333333838,
      "v": 90
    },
    {
      "midi": 73,
      "hit": false,
      "t": 233823.412500001,
      "d": 196.07833333333838,
      "v": 90
    },
    {
      "midi": 69,
      "hit": false,
      "t": 234117.53000000046,
      "d": 196.07833333333838,
      "v": 87
    },
    {
      "midi": 73,
      "hit": false,
      "t": 234117.53000000046,
      "d": 196.07833333333838,
      "v": 87
    },
    {
      "midi": 78,
      "hit": false,
      "t": 234117.53000000046,
      "d": 196.07833333333838,
      "v": 87
    },
    {
      "midi": 69,
      "hit": false,
      "t": 234117.5300000011,
      "d": 196.07833333333838,
      "v": 93
    },
    {
      "midi": 64,
      "hit": false,
      "t": 234411.6475000005,
      "d": 196.07833333333838,
      "v": 84
    },
    {
      "midi": 66,
      "hit": false,
      "t": 234411.6475000011,
      "d": 196.07833333333838,
      "v": 93
    },
    {
      "midi": 62,
      "hit": false,
      "t": 234705.76500000048,
      "d": 588.234999999986,
      "v": 84
    },
    {
      "midi": 62,
      "hit": false,
      "t": 234705.765000001,
      "d": 196.07833333333838,
      "v": 90
    },
    {
      "midi": 69,
      "hit": false,
      "t": 234999.882500001,
      "d": 196.07833333333838,
      "v": 90
    },
    {
      "midi": 74,
      "hit": false,
      "t": 235294.0000000011,
      "d": 196.07833333333838,
      "v": 93
    },
    {
      "midi": 78,
      "hit": false,
      "t": 235588.11750000046,
      "d": 196.07833333333838,
      "v": 87
    },
    {
      "midi": 78,
      "hit": false,
      "t": 235588.117500001,
      "d": 196.07833333333838,
      "v": 90
    },
    {
      "midi": 74,
      "hit": false,
      "t": 235882.23500000045,
      "d": 196.07833333333838,
      "v": 87
    },
    {
      "midi": 74,
      "hit": false,
      "t": 235882.235000001,
      "d": 196.07833333333838,
      "v": 90
    },
    {
      "midi": 69,
      "hit": false,
      "t": 236176.35250000044,
      "d": 196.07833333333838,
      "v": 87
    },
    {
      "midi": 67,
      "hit": false,
      "t": 236176.352500001,
      "d": 196.07833333333838,
      "v": 90
    },
    {
      "midi": 57,
      "hit": false,
      "t": 236470.47000000047,
      "d": 196.07833333333838,
      "v": 84
    },
    {
      "midi": 57,
      "hit": false,
      "t": 236470.4700000011,
      "d": 196.07833333333838,
      "v": 93
    },
    {
      "midi": 76,
      "hit": false,
      "t": 236764.58750000046,
      "d": 392.15666666667676,
      "v": 84
    },
    {
      "midi": 81,
      "hit": false,
      "t": 236764.58750000046,
      "d": 392.15666666667676,
      "v": 84
    },
    {
      "midi": 64,
      "hit": false,
      "t": 236764.5875000011,
      "d": 196.07833333333838,
      "v": 93
    },
    {
      "midi": 69,
      "hit": false,
      "t": 237058.705000001,
      "d": 196.07833333333838,
      "v": 90
    },
    {
      "midi": 76,
      "hit": false,
      "t": 237352.82250000047,
      "d": 392.15666666667676,
      "v": 84
    },
    {
      "midi": 81,
      "hit": false,
      "t": 237352.82250000047,
      "d": 392.15666666667676,
      "v": 84
    },
    {
      "midi": 76,
      "hit": false,
      "t": 237352.822500001,
      "d": 196.07833333333838,
      "v": 90
    },
    {
      "midi": 73,
      "hit": false,
      "t": 237646.9400000011,
      "d": 196.07833333333838,
      "v": 93
    },
    {
      "midi": 64,
      "hit": false,
      "t": 237941.05750000046,
      "d": 196.07833333333838,
      "v": 87
    },
    {
      "midi": 67,
      "hit": false,
      "t": 237941.0575000011,
      "d": 196.07833333333838,
      "v": 93
    },
    {
      "midi": 64,
      "hit": false,
      "t": 238235.17500000045,
      "d": 196.07833333333838,
      "v": 87
    },
    {
      "midi": 52,
      "hit": false,
      "t": 238235.175000001,
      "d": 196.07833333333838,
      "v": 90
    },
    {
      "midi": 71,
      "hit": false,
      "t": 238529.29250000045,
      "d": 196.07833333333838,
      "v": 87
    },
    {
      "midi": 64,
      "hit": false,
      "t": 238529.292500001,
      "d": 196.07833333333838,
      "v": 90
    },
    {
      "midi": 76,
      "hit": false,
      "t": 238823.41000000044,
      "d": 196.07833333333838,
      "v": 87
    },
    {
      "midi": 68,
      "hit": false,
      "t": 238823.4100000011,
      "d": 196.07833333333838,
      "v": 93
    },
    {
      "midi": 80,
      "hit": false,
      "t": 239117.52750000043,
      "d": 196.07833333333838,
      "v": 87
    },
    {
      "midi": 76,
      "hit": false,
      "t": 239117.5275000011,
      "d": 196.07833333333838,
      "v": 93
    },
    {
      "midi": 64,
      "hit": false,
      "t": 239411.64500000043,
      "d": 196.07833333333838,
      "v": 87
    },
    {
      "midi": 71,
      "hit": false,
      "t": 239411.64500000043,
      "d": 196.07833333333838,
      "v": 87
    },
    {
      "midi": 76,
      "hit": false,
      "t": 239411.64500000043,
      "d": 196.07833333333838,
      "v": 87
    },
    {
      "midi": 71,
      "hit": false,
      "t": 239411.645000001,
      "d": 196.07833333333838,
      "v": 90
    },
    {
      "midi": 64,
      "hit": false,
      "t": 239705.76250000048,
      "d": 196.07833333333838,
      "v": 84
    },
    {
      "midi": 71,
      "hit": false,
      "t": 239705.76250000048,
      "d": 196.07833333333838,
      "v": 84
    },
    {
      "midi": 76,
      "hit": false,
      "t": 239705.76250000048,
      "d": 196.07833333333838,
      "v": 84
    },
    {
      "midi": 67,
      "hit": false,
      "t": 239705.762500001,
      "d": 196.07833333333838,
      "v": 90
    },
    {
      "midi": 78,
      "hit": false,
      "t": 239999.88000000044,
      "d": 196.07833333333838,
      "v": 87
    },
    {
      "midi": 62,
      "hit": false,
      "t": 239999.8800000011,
      "d": 196.07833333333838,
      "v": 93
    },
    {
      "midi": 86,
      "hit": false,
      "t": 240293.9975000005,
      "d": 196.07833333333838,
      "v": 84
    },
    {
      "midi": 69,
      "hit": false,
      "t": 240293.9975000011,
      "d": 196.07833333333838,
      "v": 93
    },
    {
      "midi": 78,
      "hit": false,
      "t": 240588.11500000046,
      "d": 196.07833333333838,
      "v": 87
    },
    {
      "midi": 74,
      "hit": false,
      "t": 240588.115000001,
      "d": 196.07833333333838,
      "v": 90
    },
    {
      "midi": 79,
      "hit": false,
      "t": 240882.2325000005,
      "d": 196.07833333333838,
      "v": 84
    },
    {
      "midi": 78,
      "hit": false,
      "t": 240882.232500001,
      "d": 196.07833333333838,
      "v": 90
    },
    {
      "midi": 88,
      "hit": false,
      "t": 241176.35000000047,
      "d": 196.07833333333838,
      "v": 87
    },
    {
      "midi": 74,
      "hit": false,
      "t": 241176.3500000011,
      "d": 196.07833333333838,
      "v": 93
    },
    {
      "midi": 79,
      "hit": false,
      "t": 241470.46750000052,
      "d": 196.07833333333838,
      "v": 84
    },
    {
      "midi": 69,
      "hit": false,
      "t": 241470.4675000011,
      "d": 196.07833333333838,
      "v": 93
    },
    {
      "midi": 76,
      "hit": false,
      "t": 241764.5850000005,
      "d": 196.07833333333838,
      "v": 87
    },
    {
      "midi": 62,
      "hit": false,
      "t": 241764.585000001,
      "d": 196.07833333333838,
      "v": 90
    },
    {
      "midi": 78,
      "hit": false,
      "t": 242058.70250000048,
      "d": 196.07833333333838,
      "v": 87
    },
    {
      "midi": 69,
      "hit": false,
      "t": 242058.702500001,
      "d": 196.07833333333838,
      "v": 90
    },
    {
      "midi": 76,
      "hit": false,
      "t": 242352.82000000053,
      "d": 392.15666666667676,
      "v": 84
    },
    {
      "midi": 81,
      "hit": false,
      "t": 242352.82000000053,
      "d": 392.15666666667676,
      "v": 84
    },
    {
      "midi": 74,
      "hit": false,
      "t": 242352.8200000011,
      "d": 196.07833333333838,
      "v": 93
    },
    {
      "midi": 78,
      "hit": false,
      "t": 242646.9375000011,
      "d": 196.07833333333838,
      "v": 93
    },
    {
      "midi": 74,
      "hit": false,
      "t": 242941.05500000055,
      "d": 196.07833333333838,
      "v": 84
    },
    {
      "midi": 74,
      "hit": false,
      "t": 242941.055000001,
      "d": 196.07833333333838,
      "v": 90
    },
    {
      "midi": 76,
      "hit": false,
      "t": 243235.17250000054,
      "d": 196.07833333333838,
      "v": 84
    },
    {
      "midi": 67,
      "hit": false,
      "t": 243235.172500001,
      "d": 196.07833333333838,
      "v": 90
    },
    {
      "midi": 57,
      "hit": false,
      "t": 243529.29000000047,
      "d": 392.15666666667676,
      "v": 87
    },
    {
      "midi": 57,
      "hit": false,
      "t": 243529.2900000011,
      "d": 196.07833333333838,
      "v": 93
    },
    {
      "midi": 64,
      "hit": false,
      "t": 243823.4075000011,
      "d": 196.07833333333838,
      "v": 93
    },
    {
      "midi": 76,
      "hit": false,
      "t": 244117.5250000005,
      "d": 784.3133333333244,
      "v": 87
    },
    {
      "midi": 81,
      "hit": false,
      "t": 244117.5250000005,
      "d": 784.3133333333244,
      "v": 87
    },
    {
      "midi": 69,
      "hit": false,
      "t": 244117.525000001,
      "d": 196.07833333333838,
      "v": 90
    },
    {
      "midi": 76,
      "hit": false,
      "t": 244411.642500001,
      "d": 196.07833333333838,
      "v": 90
    },
    {
      "midi": 73,
      "hit": false,
      "t": 244705.76000000112,
      "d": 196.07833333333838,
      "v": 93
    },
    {
      "midi": 67,
      "hit": false,
      "t": 244999.8775000011,
      "d": 196.07833333333838,
      "v": 93
    },
    {
      "midi": 64,
      "hit": false,
      "t": 245293.99500000055,
      "d": 392.15666666667676,
      "v": 84
    },
    {
      "midi": 71,
      "hit": false,
      "t": 245293.99500000055,
      "d": 392.15666666667676,
      "v": 84
    },
    {
      "midi": 52,
      "hit": false,
      "t": 245293.995000001,
      "d": 196.07833333333838,
      "v": 90
    },
    {
      "midi": 64,
      "hit": false,
      "t": 245588.112500001,
      "d": 196.07833333333838,
      "v": 90
    },
    {
      "midi": 71,
      "hit": false,
      "t": 245882.23000000056,
      "d": 392.15666666667676,
      "v": 84
    },
    {
      "midi": 76,
      "hit": false,
      "t": 245882.23000000056,
      "d": 392.15666666667676,
      "v": 84
    },
    {
      "midi": 68,
      "hit": false,
      "t": 245882.23000000112,
      "d": 196.07833333333838,
      "v": 93
    },
    {
      "midi": 76,
      "hit": false,
      "t": 246176.3475000011,
      "d": 196.07833333333838,
      "v": 93
    },
    {
      "midi": 71,
      "hit": false,
      "t": 246470.4650000005,
      "d": 392.15666666667676,
      "v": 87
    },
    {
      "midi": 76,
      "hit": false,
      "t": 246470.4650000005,
      "d": 392.15666666667676,
      "v": 87
    },
    {
      "midi": 71,
      "hit": false,
      "t": 246470.46500000102,
      "d": 196.07833333333838,
      "v": 90
    },
    {
      "midi": 67,
      "hit": false,
      "t": 246764.582500001,
      "d": 196.07833333333838,
      "v": 90
    },
    {
      "midi": 61,
      "hit": false,
      "t": 247058.70000000056,
      "d": 588.234999999986,
      "v": 84
    },
    {
      "midi": 68,
      "hit": false,
      "t": 247058.70000000056,
      "d": 588.234999999986,
      "v": 84
    },
    {
      "midi": 73,
      "hit": false,
      "t": 247058.70000000056,
      "d": 588.234999999986,
      "v": 84
    },
    {
      "midi": 76,
      "hit": false,
      "t": 247058.70000000056,
      "d": 588.234999999986,
      "v": 84
    },
    {
      "midi": 61,
      "hit": false,
      "t": 247058.70000000112,
      "d": 196.07833333333838,
      "v": 93
    },
    {
      "midi": 68,
      "hit": false,
      "t": 247352.8175000011,
      "d": 196.07833333333838,
      "v": 93
    },
    {
      "midi": 73,
      "hit": false,
      "t": 247646.93500000102,
      "d": 196.07833333333838,
      "v": 90
    },
    {
      "midi": 76,
      "hit": false,
      "t": 247941.05250000051,
      "d": 196.07833333333838,
      "v": 87
    },
    {
      "midi": 76,
      "hit": false,
      "t": 247941.052500001,
      "d": 196.07833333333838,
      "v": 90
    },
    {
      "midi": 73,
      "hit": false,
      "t": 248235.1700000005,
      "d": 196.07833333333838,
      "v": 87
    },
    {
      "midi": 73,
      "hit": false,
      "t": 248235.17000000112,
      "d": 196.07833333333838,
      "v": 93
    },
    {
      "midi": 68,
      "hit": false,
      "t": 248529.28750000056,
      "d": 196.07833333333838,
      "v": 84
    },
    {
      "midi": 68,
      "hit": false,
      "t": 248529.2875000011,
      "d": 196.07833333333838,
      "v": 93
    },
    {
      "midi": 62,
      "hit": false,
      "t": 248823.40500000055,
      "d": 196.07833333333838,
      "v": 84
    },
    {
      "midi": 62,
      "hit": false,
      "t": 248823.40500000102,
      "d": 196.07833333333838,
      "v": 90
    },
    {
      "midi": 69,
      "hit": false,
      "t": 249117.52250000052,
      "d": 196.07833333333838,
      "v": 87
    },
    {
      "midi": 69,
      "hit": false,
      "t": 249117.522500001,
      "d": 196.07833333333838,
      "v": 90
    },
    {
      "midi": 74,
      "hit": false,
      "t": 249411.6400000005,
      "d": 196.07833333333838,
      "v": 87
    },
    {
      "midi": 74,
      "hit": false,
      "t": 249411.64000000112,
      "d": 196.07833333333838,
      "v": 93
    },
    {
      "midi": 78,
      "hit": false,
      "t": 249705.75750000056,
      "d": 196.07833333333838,
      "v": 84
    },
    {
      "midi": 78,
      "hit": false,
      "t": 249705.7575000011,
      "d": 196.07833333333838,
      "v": 93
    },
    {
      "midi": 74,
      "hit": false,
      "t": 249999.87500000055,
      "d": 196.07833333333838,
      "v": 84
    },
    {
      "midi": 74,
      "hit": false,
      "t": 249999.87500000102,
      "d": 196.07833333333838,
      "v": 90
    },
    {
      "midi": 69,
      "hit": false,
      "t": 250293.99250000055,
      "d": 196.07833333333838,
      "v": 84
    },
    {
      "midi": 67,
      "hit": false,
      "t": 250293.992500001,
      "d": 196.07833333333838,
      "v": 90
    },
    {
      "midi": 57,
      "hit": false,
      "t": 250588.1100000005,
      "d": 392.15666666667676,
      "v": 87
    },
    {
      "midi": 57,
      "hit": false,
      "t": 250588.11000000112,
      "d": 196.07833333333838,
      "v": 93
    },
    {
      "midi": 64,
      "hit": false,
      "t": 250882.2275000011,
      "d": 196.07833333333838,
      "v": 93
    },
    {
      "midi": 76,
      "hit": false,
      "t": 251176.34500000053,
      "d": 392.15666666667676,
      "v": 87
    },
    {
      "midi": 81,
      "hit": false,
      "t": 251176.34500000053,
      "d": 392.15666666667676,
      "v": 87
    },
    {
      "midi": 69,
      "hit": false,
      "t": 251176.34500000102,
      "d": 196.07833333333838,
      "v": 90
    },
    {
      "midi": 76,
      "hit": false,
      "t": 251470.462500001,
      "d": 196.07833333333838,
      "v": 90
    },
    {
      "midi": 76,
      "hit": false,
      "t": 251764.58000000054,
      "d": 196.07833333333838,
      "v": 84
    },
    {
      "midi": 81,
      "hit": false,
      "t": 251764.58000000054,
      "d": 196.07833333333838,
      "v": 84
    },
    {
      "midi": 73,
      "hit": false,
      "t": 251764.58000000112,
      "d": 196.07833333333838,
      "v": 93
    },
    {
      "midi": 64,
      "hit": false,
      "t": 252058.69750000053,
      "d": 196.07833333333838,
      "v": 84
    },
    {
      "midi": 67,
      "hit": false,
      "t": 252058.69750000112,
      "d": 196.07833333333838,
      "v": 93
    },
    {
      "midi": 64,
      "hit": false,
      "t": 252352.81500000053,
      "d": 392.15666666667676,
      "v": 87
    },
    {
      "midi": 71,
      "hit": false,
      "t": 252352.81500000053,
      "d": 392.15666666667676,
      "v": 87
    },
    {
      "midi": 52,
      "hit": false,
      "t": 252352.81500000102,
      "d": 196.07833333333838,
      "v": 90
    },
    {
      "midi": 68,
      "hit": false,
      "t": 252646.932500001,
      "d": 196.07833333333838,
      "v": 90
    },
    {
      "midi": 71,
      "hit": false,
      "t": 252941.05000000054,
      "d": 392.15666666667676,
      "v": 84
    },
    {
      "midi": 76,
      "hit": false,
      "t": 252941.05000000054,
      "d": 392.15666666667676,
      "v": 84
    },
    {
      "midi": 68,
      "hit": false,
      "t": 252941.05000000112,
      "d": 196.07833333333838,
      "v": 93
    },
    {
      "midi": 76,
      "hit": false,
      "t": 253235.16750000112,
      "d": 196.07833333333838,
      "v": 93
    },
    {
      "midi": 71,
      "hit": false,
      "t": 253529.28500000053,
      "d": 196.07833333333838,
      "v": 87
    },
    {
      "midi": 76,
      "hit": false,
      "t": 253529.28500000053,
      "d": 196.07833333333838,
      "v": 87
    },
    {
      "midi": 71,
      "hit": false,
      "t": 253529.28500000102,
      "d": 196.07833333333838,
      "v": 90
    },
    {
      "midi": 64,
      "hit": false,
      "t": 253823.40250000055,
      "d": 196.07833333333838,
      "v": 84
    },
    {
      "midi": 67,
      "hit": false,
      "t": 253823.40250000102,
      "d": 196.07833333333838,
      "v": 90
    },
    {
      "midi": 62,
      "hit": false,
      "t": 254117.52000000054,
      "d": 196.07833333333838,
      "v": 87
    },
    {
      "midi": 69,
      "hit": false,
      "t": 254117.52000000054,
      "d": 196.07833333333838,
      "v": 87
    },
    {
      "midi": 62,
      "hit": false,
      "t": 254117.52000000112,
      "d": 196.07833333333838,
      "v": 93
    },
    {
      "midi": 62,
      "hit": false,
      "t": 254411.63750000056,
      "d": 196.07833333333838,
      "v": 84
    },
    {
      "midi": 69,
      "hit": false,
      "t": 254411.63750000056,
      "d": 196.07833333333838,
      "v": 84
    },
    {
      "midi": 69,
      "hit": false,
      "t": 254411.63750000112,
      "d": 196.07833333333838,
      "v": 93
    },
    {
      "midi": 62,
      "hit": false,
      "t": 254705.75500000056,
      "d": 196.07833333333838,
      "v": 87
    },
    {
      "midi": 69,
      "hit": false,
      "t": 254705.75500000056,
      "d": 196.07833333333838,
      "v": 87
    },
    {
      "midi": 74,
      "hit": false,
      "t": 254705.75500000102,
      "d": 196.07833333333838,
      "v": 90
    },
    {
      "midi": 62,
      "hit": false,
      "t": 254999.87250000058,
      "d": 196.07833333333838,
      "v": 84
    },
    {
      "midi": 71,
      "hit": false,
      "t": 254999.87250000058,
      "d": 196.07833333333838,
      "v": 84
    },
    {
      "midi": 78,
      "hit": false,
      "t": 254999.87250000102,
      "d": 196.07833333333838,
      "v": 90
    },
    {
      "midi": 62,
      "hit": false,
      "t": 255293.99000000057,
      "d": 196.07833333333838,
      "v": 87
    },
    {
      "midi": 71,
      "hit": false,
      "t": 255293.99000000057,
      "d": 196.07833333333838,
      "v": 87
    },
    {
      "midi": 74,
      "hit": false,
      "t": 255293.99000000113,
      "d": 196.07833333333838,
      "v": 93
    },
    {
      "midi": 62,
      "hit": false,
      "t": 255588.1075000006,
      "d": 196.07833333333838,
      "v": 84
    },
    {
      "midi": 71,
      "hit": false,
      "t": 255588.1075000006,
      "d": 196.07833333333838,
      "v": 84
    },
    {
      "midi": 69,
      "hit": false,
      "t": 255588.10750000112,
      "d": 196.07833333333838,
      "v": 93
    },
    {
      "midi": 62,
      "hit": false,
      "t": 255882.2250000006,
      "d": 196.07833333333838,
      "v": 87
    },
    {
      "midi": 69,
      "hit": false,
      "t": 255882.2250000006,
      "d": 196.07833333333838,
      "v": 87
    },
    {
      "midi": 62,
      "hit": false,
      "t": 255882.22500000102,
      "d": 196.07833333333838,
      "v": 90
    },
    {
      "midi": 69,
      "hit": false,
      "t": 255882.22500000102,
      "d": 196.07833333333838,
      "v": 90
    },
    {
      "midi": 74,
      "hit": false,
      "t": 255882.22500000102,
      "d": 196.07833333333838,
      "v": 90
    },
    {
      "midi": 78,
      "hit": false,
      "t": 255882.22500000102,
      "d": 196.07833333333838,
      "v": 90
    },
    {
      "midi": 62,
      "hit": false,
      "t": 256176.3425000006,
      "d": 196.07833333333838,
      "v": 84
    },
    {
      "midi": 69,
      "hit": false,
      "t": 256176.3425000006,
      "d": 196.07833333333838,
      "v": 84
    },
    {
      "midi": 62,
      "hit": false,
      "t": 256470.4600000006,
      "d": 196.07833333333838,
      "v": 87
    },
    {
      "midi": 69,
      "hit": false,
      "t": 256470.4600000006,
      "d": 196.07833333333838,
      "v": 87
    },
    {
      "midi": 58,
      "hit": false,
      "t": 256764.57750000063,
      "d": 196.07833333333838,
      "v": 84
    },
    {
      "midi": 65,
      "hit": false,
      "t": 256764.57750000063,
      "d": 196.07833333333838,
      "v": 84
    },
    {
      "midi": 70,
      "hit": false,
      "t": 256764.57750000063,
      "d": 196.07833333333838,
      "v": 84
    },
    {
      "midi": 58,
      "hit": false,
      "t": 256764.57750000112,
      "d": 196.07833333333838,
      "v": 93
    },
    {
      "midi": 65,
      "hit": false,
      "t": 256764.57750000112,
      "d": 196.07833333333838,
      "v": 93
    },
    {
      "midi": 70,
      "hit": false,
      "t": 256764.57750000112,
      "d": 196.07833333333838,
      "v": 93
    },
    {
      "midi": 60,
      "hit": false,
      "t": 257058.69500000062,
      "d": 196.07833333333838,
      "v": 87
    },
    {
      "midi": 67,
      "hit": false,
      "t": 257058.69500000062,
      "d": 196.07833333333838,
      "v": 87
    },
    {
      "midi": 72,
      "hit": false,
      "t": 257058.69500000062,
      "d": 196.07833333333838,
      "v": 87
    },
    {
      "midi": 60,
      "hit": false,
      "t": 257058.69500000103,
      "d": 196.07833333333838,
      "v": 90
    },
    {
      "midi": 67,
      "hit": false,
      "t": 257058.69500000103,
      "d": 196.07833333333838,
      "v": 90
    },
    {
      "midi": 72,
      "hit": false,
      "t": 257058.69500000103,
      "d": 196.07833333333838,
      "v": 90
    },
    {
      "midi": 53,
      "hit": false,
      "t": 257352.81250000064,
      "d": 196.07833333333838,
      "v": 84
    },
    {
      "midi": 60,
      "hit": false,
      "t": 257352.81250000064,
      "d": 196.07833333333838,
      "v": 84
    },
    {
      "midi": 65,
      "hit": false,
      "t": 257352.81250000064,
      "d": 196.07833333333838,
      "v": 84
    },
    {
      "midi": 53,
      "hit": false,
      "t": 257352.81250000114,
      "d": 196.07833333333838,
      "v": 93
    },
    {
      "midi": 60,
      "hit": false,
      "t": 257352.81250000114,
      "d": 196.07833333333838,
      "v": 93
    },
    {
      "midi": 65,
      "hit": false,
      "t": 257352.81250000114,
      "d": 196.07833333333838,
      "v": 93
    },
    {
      "midi": 74,
      "hit": false,
      "t": 257646.93000000063,
      "d": 294.117499999993,
      "v": 87
    },
    {
      "midi": 79,
      "hit": false,
      "t": 257646.93000000063,
      "d": 294.117499999993,
      "v": 87
    },
    {
      "midi": 55,
      "hit": false,
      "t": 257646.93000000104,
      "d": 196.07833333333838,
      "v": 90
    },
    {
      "midi": 62,
      "hit": false,
      "t": 257646.93000000104,
      "d": 196.07833333333838,
      "v": 90
    },
    {
      "midi": 67,
      "hit": false,
      "t": 257646.93000000104,
      "d": 196.07833333333838,
      "v": 90
    },
    {
      "midi": 55,
      "hit": false,
      "t": 257941.04750000103,
      "d": 196.07833333333838,
      "v": 90
    },
    {
      "midi": 62,
      "hit": false,
      "t": 257941.04750000103,
      "d": 196.07833333333838,
      "v": 90
    },
    {
      "midi": 67,
      "hit": false,
      "t": 257941.04750000103,
      "d": 196.07833333333838,
      "v": 90
    },
    {
      "midi": 74,
      "hit": false,
      "t": 258088.10625000062,
      "d": 98.03916666665464,
      "v": 87
    },
    {
      "midi": 79,
      "hit": false,
      "t": 258088.10625000062,
      "d": 98.03916666665464,
      "v": 87
    },
    {
      "midi": 74,
      "hit": false,
      "t": 258235.16500000065,
      "d": 196.07833333333838,
      "v": 84
    },
    {
      "midi": 79,
      "hit": false,
      "t": 258235.16500000065,
      "d": 196.07833333333838,
      "v": 84
    },
    {
      "midi": 55,
      "hit": false,
      "t": 258235.16500000114,
      "d": 196.07833333333838,
      "v": 93
    },
    {
      "midi": 62,
      "hit": false,
      "t": 258235.16500000114,
      "d": 196.07833333333838,
      "v": 93
    },
    {
      "midi": 67,
      "hit": false,
      "t": 258235.16500000114,
      "d": 196.07833333333838,
      "v": 93
    },
    {
      "midi": 74,
      "hit": false,
      "t": 258529.28250000064,
      "d": 294.117499999993,
      "v": 84
    },
    {
      "midi": 79,
      "hit": false,
      "t": 258529.28250000064,
      "d": 294.117499999993,
      "v": 84
    },
    {
      "midi": 55,
      "hit": false,
      "t": 258529.28250000114,
      "d": 196.07833333333838,
      "v": 93
    },
    {
      "midi": 62,
      "hit": false,
      "t": 258529.28250000114,
      "d": 196.07833333333838,
      "v": 93
    },
    {
      "midi": 67,
      "hit": false,
      "t": 258529.28250000114,
      "d": 196.07833333333838,
      "v": 93
    },
    {
      "midi": 55,
      "hit": false,
      "t": 258823.40000000104,
      "d": 196.07833333333838,
      "v": 90
    },
    {
      "midi": 62,
      "hit": false,
      "t": 258823.40000000104,
      "d": 196.07833333333838,
      "v": 90
    },
    {
      "midi": 67,
      "hit": false,
      "t": 258823.40000000104,
      "d": 196.07833333333838,
      "v": 90
    },
    {
      "midi": 74,
      "hit": false,
      "t": 258970.4587500006,
      "d": 98.03916666665464,
      "v": 87
    },
    {
      "midi": 79,
      "hit": false,
      "t": 258970.4587500006,
      "d": 98.03916666665464,
      "v": 87
    },
    {
      "midi": 74,
      "hit": false,
      "t": 259117.5175000006,
      "d": 196.07833333333838,
      "v": 87
    },
    {
      "midi": 79,
      "hit": false,
      "t": 259117.5175000006,
      "d": 196.07833333333838,
      "v": 87
    },
    {
      "midi": 55,
      "hit": false,
      "t": 259117.51750000103,
      "d": 196.07833333333838,
      "v": 90
    },
    {
      "midi": 62,
      "hit": false,
      "t": 259117.51750000103,
      "d": 196.07833333333838,
      "v": 90
    },
    {
      "midi": 67,
      "hit": false,
      "t": 259117.51750000103,
      "d": 196.07833333333838,
      "v": 90
    },
    {
      "midi": 74,
      "hit": false,
      "t": 259411.63500000062,
      "d": 196.07833333333838,
      "v": 84
    },
    {
      "midi": 79,
      "hit": false,
      "t": 259411.63500000062,
      "d": 196.07833333333838,
      "v": 84
    },
    {
      "midi": 55,
      "hit": false,
      "t": 259411.63500000103,
      "d": 196.07833333333838,
      "v": 90
    },
    {
      "midi": 62,
      "hit": false,
      "t": 259411.63500000103,
      "d": 196.07833333333838,
      "v": 90
    },
    {
      "midi": 67,
      "hit": false,
      "t": 259411.63500000103,
      "d": 196.07833333333838,
      "v": 90
    },
    {
      "midi": 58,
      "hit": false,
      "t": 260293.9875000006,
      "d": 196.07833333333838,
      "v": 87
    },
    {
      "midi": 65,
      "hit": false,
      "t": 260293.9875000006,
      "d": 196.07833333333838,
      "v": 87
    },
    {
      "midi": 70,
      "hit": false,
      "t": 260293.9875000006,
      "d": 196.07833333333838,
      "v": 87
    },
    {
      "midi": 58,
      "hit": false,
      "t": 260293.98750000115,
      "d": 196.07833333333838,
      "v": 93
    },
    {
      "midi": 65,
      "hit": false,
      "t": 260293.98750000115,
      "d": 196.07833333333838,
      "v": 93
    },
    {
      "midi": 70,
      "hit": false,
      "t": 260293.98750000115,
      "d": 196.07833333333838,
      "v": 93
    },
    {
      "midi": 60,
      "hit": false,
      "t": 260588.10500000062,
      "d": 196.07833333333838,
      "v": 84
    },
    {
      "midi": 67,
      "hit": false,
      "t": 260588.10500000062,
      "d": 196.07833333333838,
      "v": 84
    },
    {
      "midi": 72,
      "hit": false,
      "t": 260588.10500000062,
      "d": 196.07833333333838,
      "v": 84
    },
    {
      "midi": 60,
      "hit": false,
      "t": 260588.10500000115,
      "d": 196.07833333333838,
      "v": 93
    },
    {
      "midi": 67,
      "hit": false,
      "t": 260588.10500000115,
      "d": 196.07833333333838,
      "v": 93
    },
    {
      "midi": 72,
      "hit": false,
      "t": 260588.10500000115,
      "d": 196.07833333333838,
      "v": 93
    },
    {
      "midi": 53,
      "hit": false,
      "t": 260882.22250000061,
      "d": 196.07833333333838,
      "v": 87
    },
    {
      "midi": 60,
      "hit": false,
      "t": 260882.22250000061,
      "d": 196.07833333333838,
      "v": 87
    },
    {
      "midi": 65,
      "hit": false,
      "t": 260882.22250000061,
      "d": 196.07833333333838,
      "v": 87
    },
    {
      "midi": 53,
      "hit": false,
      "t": 260882.22250000114,
      "d": 196.07833333333838,
      "v": 93
    },
    {
      "midi": 60,
      "hit": false,
      "t": 260882.22250000114,
      "d": 196.07833333333838,
      "v": 93
    },
    {
      "midi": 65,
      "hit": false,
      "t": 260882.22250000114,
      "d": 196.07833333333838,
      "v": 93
    },
    {
      "midi": 74,
      "hit": false,
      "t": 261176.3400000006,
      "d": 294.117499999993,
      "v": 87
    },
    {
      "midi": 79,
      "hit": false,
      "t": 261176.3400000006,
      "d": 294.117499999993,
      "v": 87
    },
    {
      "midi": 55,
      "hit": false,
      "t": 261176.34000000104,
      "d": 196.07833333333838,
      "v": 90
    },
    {
      "midi": 62,
      "hit": false,
      "t": 261176.34000000104,
      "d": 196.07833333333838,
      "v": 90
    },
    {
      "midi": 67,
      "hit": false,
      "t": 261176.34000000104,
      "d": 196.07833333333838,
      "v": 90
    },
    {
      "midi": 55,
      "hit": false,
      "t": 261470.45750000104,
      "d": 196.07833333333838,
      "v": 90
    },
    {
      "midi": 62,
      "hit": false,
      "t": 261470.45750000104,
      "d": 196.07833333333838,
      "v": 90
    },
    {
      "midi": 67,
      "hit": false,
      "t": 261470.45750000104,
      "d": 196.07833333333838,
      "v": 90
    },
    {
      "midi": 74,
      "hit": false,
      "t": 261617.5162500006,
      "d": 98.03916666665464,
      "v": 87
    },
    {
      "midi": 79,
      "hit": false,
      "t": 261617.5162500006,
      "d": 98.03916666665464,
      "v": 87
    },
    {
      "midi": 74,
      "hit": false,
      "t": 261764.57500000062,
      "d": 196.07833333333838,
      "v": 84
    },
    {
      "midi": 79,
      "hit": false,
      "t": 261764.57500000062,
      "d": 196.07833333333838,
      "v": 84
    },
    {
      "midi": 55,
      "hit": false,
      "t": 261764.57500000115,
      "d": 196.07833333333838,
      "v": 93
    },
    {
      "midi": 62,
      "hit": false,
      "t": 261764.57500000115,
      "d": 196.07833333333838,
      "v": 93
    },
    {
      "midi": 67,
      "hit": false,
      "t": 261764.57500000115,
      "d": 196.07833333333838,
      "v": 93
    },
    {
      "midi": 74,
      "hit": false,
      "t": 262058.69250000062,
      "d": 294.1175000000221,
      "v": 84
    },
    {
      "midi": 79,
      "hit": false,
      "t": 262058.69250000062,
      "d": 294.1175000000221,
      "v": 84
    },
    {
      "midi": 55,
      "hit": false,
      "t": 262058.69250000114,
      "d": 196.07833333333838,
      "v": 93
    },
    {
      "midi": 62,
      "hit": false,
      "t": 262058.69250000114,
      "d": 196.07833333333838,
      "v": 93
    },
    {
      "midi": 67,
      "hit": false,
      "t": 262058.69250000114,
      "d": 196.07833333333838,
      "v": 93
    },
    {
      "midi": 55,
      "hit": false,
      "t": 262352.81000000105,
      "d": 196.07833333330927,
      "v": 90
    },
    {
      "midi": 62,
      "hit": false,
      "t": 262352.81000000105,
      "d": 196.07833333330927,
      "v": 90
    },
    {
      "midi": 67,
      "hit": false,
      "t": 262352.81000000105,
      "d": 196.07833333330927,
      "v": 90
    },
    {
      "midi": 74,
      "hit": false,
      "t": 262499.8687500006,
      "d": 98.03916666668374,
      "v": 87
    },
    {
      "midi": 79,
      "hit": false,
      "t": 262499.8687500006,
      "d": 98.03916666668374,
      "v": 87
    },
    {
      "midi": 74,
      "hit": false,
      "t": 262646.92750000063,
      "d": 196.07833333330927,
      "v": 87
    },
    {
      "midi": 79,
      "hit": false,
      "t": 262646.92750000063,
      "d": 196.07833333330927,
      "v": 87
    },
    {
      "midi": 55,
      "hit": false,
      "t": 262646.92750000104,
      "d": 196.07833333330927,
      "v": 90
    },
    {
      "midi": 62,
      "hit": false,
      "t": 262646.92750000104,
      "d": 196.07833333330927,
      "v": 90
    },
    {
      "midi": 67,
      "hit": false,
      "t": 262646.92750000104,
      "d": 196.07833333330927,
      "v": 90
    },
    {
      "midi": 74,
      "hit": false,
      "t": 262941.0450000006,
      "d": 196.07833333330927,
      "v": 84
    },
    {
      "midi": 79,
      "hit": false,
      "t": 262941.0450000006,
      "d": 196.07833333330927,
      "v": 84
    },
    {
      "midi": 55,
      "hit": false,
      "t": 262941.04500000103,
      "d": 196.07833333330927,
      "v": 90
    },
    {
      "midi": 62,
      "hit": false,
      "t": 262941.04500000103,
      "d": 196.07833333330927,
      "v": 90
    },
    {
      "midi": 67,
      "hit": false,
      "t": 262941.04500000103,
      "d": 196.07833333330927,
      "v": 90
    },
    {
      "midi": 58,
      "hit": false,
      "t": 263823.3975000006,
      "d": 196.07833333330927,
      "v": 87
    },
    {
      "midi": 65,
      "hit": false,
      "t": 263823.3975000006,
      "d": 196.07833333330927,
      "v": 87
    },
    {
      "midi": 70,
      "hit": false,
      "t": 263823.3975000006,
      "d": 196.07833333330927,
      "v": 87
    },
    {
      "midi": 58,
      "hit": false,
      "t": 263823.3975000011,
      "d": 196.07833333330927,
      "v": 93
    },
    {
      "midi": 65,
      "hit": false,
      "t": 263823.3975000011,
      "d": 196.07833333330927,
      "v": 93
    },
    {
      "midi": 70,
      "hit": false,
      "t": 263823.3975000011,
      "d": 196.07833333330927,
      "v": 93
    },
    {
      "midi": 60,
      "hit": false,
      "t": 264117.5150000006,
      "d": 196.07833333330927,
      "v": 84
    },
    {
      "midi": 67,
      "hit": false,
      "t": 264117.5150000006,
      "d": 196.07833333330927,
      "v": 84
    },
    {
      "midi": 72,
      "hit": false,
      "t": 264117.5150000006,
      "d": 196.07833333330927,
      "v": 84
    },
    {
      "midi": 60,
      "hit": false,
      "t": 264117.5150000011,
      "d": 196.07833333330927,
      "v": 93
    },
    {
      "midi": 67,
      "hit": false,
      "t": 264117.5150000011,
      "d": 196.07833333330927,
      "v": 93
    },
    {
      "midi": 72,
      "hit": false,
      "t": 264117.5150000011,
      "d": 196.07833333330927,
      "v": 93
    },
    {
      "midi": 53,
      "hit": false,
      "t": 264411.6325000006,
      "d": 196.07833333330927,
      "v": 87
    },
    {
      "midi": 60,
      "hit": false,
      "t": 264411.6325000006,
      "d": 196.07833333330927,
      "v": 87
    },
    {
      "midi": 65,
      "hit": false,
      "t": 264411.6325000006,
      "d": 196.07833333330927,
      "v": 87
    },
    {
      "midi": 53,
      "hit": false,
      "t": 264411.6325000011,
      "d": 196.07833333330927,
      "v": 93
    },
    {
      "midi": 60,
      "hit": false,
      "t": 264411.6325000011,
      "d": 196.07833333330927,
      "v": 93
    },
    {
      "midi": 65,
      "hit": false,
      "t": 264411.6325000011,
      "d": 196.07833333330927,
      "v": 93
    },
    {
      "midi": 74,
      "hit": false,
      "t": 264705.7500000006,
      "d": 294.117499999993,
      "v": 87
    },
    {
      "midi": 79,
      "hit": false,
      "t": 264705.7500000006,
      "d": 294.117499999993,
      "v": 87
    },
    {
      "midi": 55,
      "hit": false,
      "t": 264705.750000001,
      "d": 196.07833333330927,
      "v": 90
    },
    {
      "midi": 62,
      "hit": false,
      "t": 264705.750000001,
      "d": 196.07833333330927,
      "v": 90
    },
    {
      "midi": 67,
      "hit": false,
      "t": 264705.750000001,
      "d": 196.07833333330927,
      "v": 90
    },
    {
      "midi": 55,
      "hit": false,
      "t": 264999.867500001,
      "d": 196.07833333330927,
      "v": 90
    },
    {
      "midi": 62,
      "hit": false,
      "t": 264999.867500001,
      "d": 196.07833333330927,
      "v": 90
    },
    {
      "midi": 67,
      "hit": false,
      "t": 264999.867500001,
      "d": 196.07833333330927,
      "v": 90
    },
    {
      "midi": 74,
      "hit": false,
      "t": 265146.9262500006,
      "d": 98.03916666668374,
      "v": 87
    },
    {
      "midi": 79,
      "hit": false,
      "t": 265146.9262500006,
      "d": 98.03916666668374,
      "v": 87
    },
    {
      "midi": 74,
      "hit": false,
      "t": 265293.98500000057,
      "d": 196.07833333330927,
      "v": 84
    },
    {
      "midi": 79,
      "hit": false,
      "t": 265293.98500000057,
      "d": 196.07833333330927,
      "v": 84
    },
    {
      "midi": 55,
      "hit": false,
      "t": 265293.9850000011,
      "d": 196.07833333330927,
      "v": 93
    },
    {
      "midi": 62,
      "hit": false,
      "t": 265293.9850000011,
      "d": 196.07833333330927,
      "v": 93
    },
    {
      "midi": 67,
      "hit": false,
      "t": 265293.9850000011,
      "d": 196.07833333330927,
      "v": 93
    },
    {
      "midi": 74,
      "hit": false,
      "t": 265588.10250000056,
      "d": 294.117499999993,
      "v": 84
    },
    {
      "midi": 79,
      "hit": false,
      "t": 265588.10250000056,
      "d": 294.117499999993,
      "v": 84
    },
    {
      "midi": 55,
      "hit": false,
      "t": 265588.1025000011,
      "d": 196.07833333330927,
      "v": 93
    },
    {
      "midi": 62,
      "hit": false,
      "t": 265588.1025000011,
      "d": 196.07833333330927,
      "v": 93
    },
    {
      "midi": 67,
      "hit": false,
      "t": 265588.1025000011,
      "d": 196.07833333330927,
      "v": 93
    },
    {
      "midi": 55,
      "hit": false,
      "t": 265882.22000000096,
      "d": 196.07833333330927,
      "v": 90
    },
    {
      "midi": 62,
      "hit": false,
      "t": 265882.22000000096,
      "d": 196.07833333330927,
      "v": 90
    },
    {
      "midi": 67,
      "hit": false,
      "t": 265882.22000000096,
      "d": 196.07833333330927,
      "v": 90
    },
    {
      "midi": 74,
      "hit": false,
      "t": 266029.27875000064,
      "d": 98.03916666668374,
      "v": 87
    },
    {
      "midi": 79,
      "hit": false,
      "t": 266029.27875000064,
      "d": 98.03916666668374,
      "v": 87
    },
    {
      "midi": 74,
      "hit": false,
      "t": 266176.33750000066,
      "d": 196.07833333330927,
      "v": 87
    },
    {
      "midi": 79,
      "hit": false,
      "t": 266176.33750000066,
      "d": 196.07833333330927,
      "v": 87
    },
    {
      "midi": 55,
      "hit": false,
      "t": 266176.33750000095,
      "d": 196.07833333330927,
      "v": 90
    },
    {
      "midi": 62,
      "hit": false,
      "t": 266176.33750000095,
      "d": 196.07833333330927,
      "v": 90
    },
    {
      "midi": 67,
      "hit": false,
      "t": 266176.33750000095,
      "d": 196.07833333330927,
      "v": 90
    },
    {
      "midi": 74,
      "hit": false,
      "t": 266470.45500000054,
      "d": 196.07833333330927,
      "v": 84
    },
    {
      "midi": 79,
      "hit": false,
      "t": 266470.45500000054,
      "d": 196.07833333330927,
      "v": 84
    },
    {
      "midi": 55,
      "hit": false,
      "t": 266470.45500000095,
      "d": 196.07833333330927,
      "v": 90
    },
    {
      "midi": 62,
      "hit": false,
      "t": 266470.45500000095,
      "d": 196.07833333330927,
      "v": 90
    },
    {
      "midi": 67,
      "hit": false,
      "t": 266470.45500000095,
      "d": 196.07833333330927,
      "v": 90
    },
    {
      "midi": 58,
      "hit": false,
      "t": 267352.80750000064,
      "d": 196.07833333330927,
      "v": 87
    },
    {
      "midi": 65,
      "hit": false,
      "t": 267352.80750000064,
      "d": 196.07833333330927,
      "v": 87
    },
    {
      "midi": 70,
      "hit": false,
      "t": 267352.80750000064,
      "d": 196.07833333330927,
      "v": 87
    },
    {
      "midi": 58,
      "hit": false,
      "t": 267352.80750000104,
      "d": 196.07833333330927,
      "v": 93
    },
    {
      "midi": 65,
      "hit": false,
      "t": 267352.80750000104,
      "d": 196.07833333330927,
      "v": 93
    },
    {
      "midi": 70,
      "hit": false,
      "t": 267352.80750000104,
      "d": 196.07833333330927,
      "v": 93
    },
    {
      "midi": 60,
      "hit": false,
      "t": 267646.9250000005,
      "d": 196.07833333330927,
      "v": 84
    },
    {
      "midi": 67,
      "hit": false,
      "t": 267646.9250000005,
      "d": 196.07833333330927,
      "v": 84
    },
    {
      "midi": 72,
      "hit": false,
      "t": 267646.9250000005,
      "d": 196.07833333330927,
      "v": 84
    },
    {
      "midi": 60,
      "hit": false,
      "t": 267646.92500000104,
      "d": 196.07833333330927,
      "v": 93
    },
    {
      "midi": 67,
      "hit": false,
      "t": 267646.92500000104,
      "d": 196.07833333330927,
      "v": 93
    },
    {
      "midi": 72,
      "hit": false,
      "t": 267646.92500000104,
      "d": 196.07833333330927,
      "v": 93
    },
    {
      "midi": 53,
      "hit": false,
      "t": 267941.0425000006,
      "d": 196.07833333330927,
      "v": 87
    },
    {
      "midi": 60,
      "hit": false,
      "t": 267941.0425000006,
      "d": 196.07833333330927,
      "v": 87
    },
    {
      "midi": 65,
      "hit": false,
      "t": 267941.0425000006,
      "d": 196.07833333330927,
      "v": 87
    },
    {
      "midi": 53,
      "hit": false,
      "t": 267941.04250000103,
      "d": 196.07833333330927,
      "v": 93
    },
    {
      "midi": 60,
      "hit": false,
      "t": 267941.04250000103,
      "d": 196.07833333330927,
      "v": 93
    },
    {
      "midi": 65,
      "hit": false,
      "t": 267941.04250000103,
      "d": 196.07833333330927,
      "v": 93
    },
    {
      "midi": 74,
      "hit": false,
      "t": 268235.1600000005,
      "d": 294.117499999993,
      "v": 84
    },
    {
      "midi": 79,
      "hit": false,
      "t": 268235.1600000005,
      "d": 294.117499999993,
      "v": 84
    },
    {
      "midi": 55,
      "hit": false,
      "t": 268235.1600000009,
      "d": 196.07833333330927,
      "v": 90
    },
    {
      "midi": 62,
      "hit": false,
      "t": 268235.1600000009,
      "d": 196.07833333330927,
      "v": 90
    },
    {
      "midi": 67,
      "hit": false,
      "t": 268235.1600000009,
      "d": 196.07833333330927,
      "v": 90
    },
    {
      "midi": 55,
      "hit": false,
      "t": 268529.2775000009,
      "d": 196.07833333330927,
      "v": 90
    },
    {
      "midi": 62,
      "hit": false,
      "t": 268529.2775000009,
      "d": 196.07833333330927,
      "v": 90
    },
    {
      "midi": 67,
      "hit": false,
      "t": 268529.2775000009,
      "d": 196.07833333330927,
      "v": 90
    },
    {
      "midi": 74,
      "hit": false,
      "t": 268676.3362500005,
      "d": 98.03916666668374,
      "v": 84
    },
    {
      "midi": 79,
      "hit": false,
      "t": 268676.3362500005,
      "d": 98.03916666668374,
      "v": 84
    },
    {
      "midi": 74,
      "hit": false,
      "t": 268823.3950000006,
      "d": 98.03916666668374,
      "v": 87
    },
    {
      "midi": 79,
      "hit": false,
      "t": 268823.3950000006,
      "d": 98.03916666668374,
      "v": 87
    },
    {
      "midi": 55,
      "hit": false,
      "t": 268823.395000001,
      "d": 196.07833333330927,
      "v": 93
    },
    {
      "midi": 62,
      "hit": false,
      "t": 268823.395000001,
      "d": 196.07833333330927,
      "v": 93
    },
    {
      "midi": 67,
      "hit": false,
      "t": 268823.395000001,
      "d": 196.07833333330927,
      "v": 93
    },
    {
      "midi": 74,
      "hit": false,
      "t": 268970.4537500006,
      "d": 98.03916666668374,
      "v": 87
    },
    {
      "midi": 79,
      "hit": false,
      "t": 268970.4537500006,
      "d": 98.03916666668374,
      "v": 87
    },
    {
      "midi": 74,
      "hit": false,
      "t": 269117.51250000054,
      "d": 392.15666666667676,
      "v": 84
    },
    {
      "midi": 79,
      "hit": false,
      "t": 269117.51250000054,
      "d": 392.15666666667676,
      "v": 84
    },
    {
      "midi": 55,
      "hit": false,
      "t": 269117.512500001,
      "d": 196.07833333330927,
      "v": 93
    },
    {
      "midi": 62,
      "hit": false,
      "t": 269117.512500001,
      "d": 196.07833333330927,
      "v": 93
    },
    {
      "midi": 67,
      "hit": false,
      "t": 269117.512500001,
      "d": 196.07833333330927,
      "v": 93
    },
    {
      "midi": 55,
      "hit": false,
      "t": 269411.6300000009,
      "d": 196.07833333330927,
      "v": 90
    },
    {
      "midi": 62,
      "hit": false,
      "t": 269411.6300000009,
      "d": 196.07833333330927,
      "v": 90
    },
    {
      "midi": 67,
      "hit": false,
      "t": 269411.6300000009,
      "d": 196.07833333330927,
      "v": 90
    },
    {
      "midi": 74,
      "hit": false,
      "t": 269705.7475000005,
      "d": 196.07833333330927,
      "v": 84
    },
    {
      "midi": 79,
      "hit": false,
      "t": 269705.7475000005,
      "d": 196.07833333330927,
      "v": 84
    },
    {
      "midi": 55,
      "hit": false,
      "t": 269705.74750000087,
      "d": 196.07833333330927,
      "v": 90
    },
    {
      "midi": 62,
      "hit": false,
      "t": 269705.74750000087,
      "d": 196.07833333330927,
      "v": 90
    },
    {
      "midi": 67,
      "hit": false,
      "t": 269705.74750000087,
      "d": 196.07833333330927,
      "v": 90
    },
    {
      "midi": 77,
      "hit": false,
      "t": 269999.86500000063,
      "d": 294.117499999993,
      "v": 87
    },
    {
      "midi": 82,
      "hit": false,
      "t": 269999.86500000063,
      "d": 294.117499999993,
      "v": 87
    },
    {
      "midi": 58,
      "hit": false,
      "t": 269999.865000001,
      "d": 196.07833333330927,
      "v": 93
    },
    {
      "midi": 65,
      "hit": false,
      "t": 269999.865000001,
      "d": 196.07833333330927,
      "v": 93
    },
    {
      "midi": 70,
      "hit": false,
      "t": 269999.865000001,
      "d": 196.07833333330927,
      "v": 93
    },
    {
      "midi": 58,
      "hit": false,
      "t": 270293.982500001,
      "d": 196.07833333330927,
      "v": 93
    },
    {
      "midi": 65,
      "hit": false,
      "t": 270293.982500001,
      "d": 196.07833333330927,
      "v": 93
    },
    {
      "midi": 70,
      "hit": false,
      "t": 270293.982500001,
      "d": 196.07833333330927,
      "v": 93
    },
    {
      "midi": 77,
      "hit": false,
      "t": 270441.04125000065,
      "d": 98.03916666668374,
      "v": 87
    },
    {
      "midi": 82,
      "hit": false,
      "t": 270441.04125000065,
      "d": 98.03916666668374,
      "v": 87
    },
    {
      "midi": 77,
      "hit": false,
      "t": 270588.1000000005,
      "d": 196.07833333330927,
      "v": 84
    },
    {
      "midi": 82,
      "hit": false,
      "t": 270588.1000000005,
      "d": 196.07833333330927,
      "v": 84
    },
    {
      "midi": 58,
      "hit": false,
      "t": 270588.10000000085,
      "d": 196.07833333330927,
      "v": 90
    },
    {
      "midi": 65,
      "hit": false,
      "t": 270588.10000000085,
      "d": 196.07833333330927,
      "v": 90
    },
    {
      "midi": 70,
      "hit": false,
      "t": 270588.10000000085,
      "d": 196.07833333330927,
      "v": 90
    },
    {
      "midi": 77,
      "hit": false,
      "t": 270882.2175000005,
      "d": 588.234999999986,
      "v": 84
    },
    {
      "midi": 82,
      "hit": false,
      "t": 270882.2175000005,
      "d": 588.234999999986,
      "v": 84
    },
    {
      "midi": 58,
      "hit": false,
      "t": 270882.21750000084,
      "d": 196.07833333330927,
      "v": 90
    },
    {
      "midi": 65,
      "hit": false,
      "t": 270882.21750000084,
      "d": 196.07833333330927,
      "v": 90
    },
    {
      "midi": 70,
      "hit": false,
      "t": 270882.21750000084,
      "d": 196.07833333330927,
      "v": 90
    },
    {
      "midi": 58,
      "hit": false,
      "t": 271176.33500000095,
      "d": 196.07833333330927,
      "v": 93
    },
    {
      "midi": 65,
      "hit": false,
      "t": 271176.33500000095,
      "d": 196.07833333330927,
      "v": 93
    },
    {
      "midi": 70,
      "hit": false,
      "t": 271176.33500000095,
      "d": 196.07833333330927,
      "v": 93
    },
    {
      "midi": 58,
      "hit": false,
      "t": 271470.45250000095,
      "d": 196.07833333330927,
      "v": 93
    },
    {
      "midi": 65,
      "hit": false,
      "t": 271470.45250000095,
      "d": 196.07833333330927,
      "v": 93
    },
    {
      "midi": 70,
      "hit": false,
      "t": 271470.45250000095,
      "d": 196.07833333330927,
      "v": 93
    },
    {
      "midi": 57,
      "hit": false,
      "t": 271764.5700000005,
      "d": 392.15666666667676,
      "v": 84
    },
    {
      "midi": 64,
      "hit": false,
      "t": 271764.5700000005,
      "d": 392.15666666667676,
      "v": 84
    },
    {
      "midi": 57,
      "hit": false,
      "t": 271764.5700000008,
      "d": 196.07833333330927,
      "v": 90
    },
    {
      "midi": 64,
      "hit": false,
      "t": 272058.68750000093,
      "d": 196.07833333330927,
      "v": 93
    },
    {
      "midi": 57,
      "hit": false,
      "t": 272352.80500000046,
      "d": 196.07833333330927,
      "v": 84
    },
    {
      "midi": 64,
      "hit": false,
      "t": 272352.80500000046,
      "d": 196.07833333330927,
      "v": 84
    },
    {
      "midi": 69,
      "hit": false,
      "t": 272352.8050000008,
      "d": 196.07833333330927,
      "v": 90
    },
    {
      "midi": 57,
      "hit": false,
      "t": 272646.9225000007,
      "d": 392.15666666667676,
      "v": 87
    },
    {
      "midi": 66,
      "hit": false,
      "t": 272646.9225000007,
      "d": 392.15666666667676,
      "v": 87
    },
    {
      "midi": 76,
      "hit": false,
      "t": 272646.9225000009,
      "d": 196.07833333330927,
      "v": 93
    },
    {
      "midi": 73,
      "hit": false,
      "t": 272941.0400000008,
      "d": 196.07833333330927,
      "v": 90
    },
    {
      "midi": 57,
      "hit": false,
      "t": 273235.15750000067,
      "d": 196.07833333330927,
      "v": 87
    },
    {
      "midi": 66,
      "hit": false,
      "t": 273235.15750000067,
      "d": 196.07833333330927,
      "v": 87
    },
    {
      "midi": 67,
      "hit": false,
      "t": 273235.1575000009,
      "d": 196.07833333330927,
      "v": 93
    },
    {
      "midi": 64,
      "hit": false,
      "t": 273529.27500000043,
      "d": 392.15666666667676,
      "v": 84
    },
    {
      "midi": 71,
      "hit": false,
      "t": 273529.27500000043,
      "d": 392.15666666667676,
      "v": 84
    },
    {
      "midi": 52,
      "hit": false,
      "t": 273529.2750000008,
      "d": 196.07833333330927,
      "v": 90
    },
    {
      "midi": 68,
      "hit": false,
      "t": 273529.2750000008,
      "d": 196.07833333330927,
      "v": 90
    },
    {
      "midi": 64,
      "hit": false,
      "t": 273823.3925000009,
      "d": 196.07833333330927,
      "v": 93
    },
    {
      "midi": 64,
      "hit": false,
      "t": 274117.5100000004,
      "d": 196.07833333330927,
      "v": 84
    },
    {
      "midi": 71,
      "hit": false,
      "t": 274117.5100000004,
      "d": 196.07833333330927,
      "v": 84
    },
    {
      "midi": 68,
      "hit": false,
      "t": 274117.51000000077,
      "d": 196.07833333330927,
      "v": 90
    },
    {
      "midi": 64,
      "hit": false,
      "t": 274411.62750000064,
      "d": 392.15666666667676,
      "v": 87
    },
    {
      "midi": 73,
      "hit": false,
      "t": 274411.62750000064,
      "d": 392.15666666667676,
      "v": 87
    },
    {
      "midi": 76,
      "hit": false,
      "t": 274411.6275000009,
      "d": 196.07833333330927,
      "v": 93
    },
    {
      "midi": 71,
      "hit": false,
      "t": 274705.74500000075,
      "d": 196.07833333330927,
      "v": 90
    },
    {
      "midi": 64,
      "hit": false,
      "t": 274999.8625000006,
      "d": 196.07833333330927,
      "v": 87
    },
    {
      "midi": 73,
      "hit": false,
      "t": 274999.8625000006,
      "d": 196.07833333330927,
      "v": 87
    },
    {
      "midi": 67,
      "hit": false,
      "t": 274999.86250000086,
      "d": 196.07833333330927,
      "v": 93
    },
    {
      "midi": 66,
      "hit": false,
      "t": 275293.9800000004,
      "d": 392.15666666667676,
      "v": 84
    },
    {
      "midi": 73,
      "hit": false,
      "t": 275293.9800000004,
      "d": 392.15666666667676,
      "v": 84
    },
    {
      "midi": 54,
      "hit": false,
      "t": 275293.98000000074,
      "d": 196.07833333330927,
      "v": 90
    },
    {
      "midi": 73,
      "hit": false,
      "t": 275588.09750000085,
      "d": 196.07833333330927,
      "v": 93
    },
    {
      "midi": 66,
      "hit": false,
      "t": 275882.2150000004,
      "d": 196.07833333330927,
      "v": 84
    },
    {
      "midi": 73,
      "hit": false,
      "t": 275882.2150000004,
      "d": 196.07833333330927,
      "v": 84
    },
    {
      "midi": 69,
      "hit": false,
      "t": 275882.2150000007,
      "d": 196.07833333330927,
      "v": 90
    },
    {
      "midi": 66,
      "hit": false,
      "t": 276176.3325000006,
      "d": 392.15666666667676,
      "v": 87
    },
    {
      "midi": 73,
      "hit": false,
      "t": 276176.3325000006,
      "d": 392.15666666667676,
      "v": 87
    },
    {
      "midi": 78,
      "hit": false,
      "t": 276176.33250000083,
      "d": 196.07833333330927,
      "v": 93
    },
    {
      "midi": 73,
      "hit": false,
      "t": 276470.4500000007,
      "d": 196.07833333330927,
      "v": 90
    },
    {
      "midi": 66,
      "hit": false,
      "t": 276764.5675000006,
      "d": 196.07833333330927,
      "v": 87
    },
    {
      "midi": 73,
      "hit": false,
      "t": 276764.5675000006,
      "d": 196.07833333330927,
      "v": 87
    },
    {
      "midi": 66,
      "hit": false,
      "t": 276764.5675000008,
      "d": 196.07833333330927,
      "v": 93
    },
    {
      "midi": 61,
      "hit": false,
      "t": 277058.68500000035,
      "d": 392.15666666667676,
      "v": 84
    },
    {
      "midi": 68,
      "hit": false,
      "t": 277058.68500000035,
      "d": 392.15666666667676,
      "v": 84
    },
    {
      "midi": 61,
      "hit": false,
      "t": 277058.6850000007,
      "d": 196.07833333330927,
      "v": 90
    },
    {
      "midi": 68,
      "hit": false,
      "t": 277352.8025000008,
      "d": 196.07833333330927,
      "v": 93
    },
    {
      "midi": 61,
      "hit": false,
      "t": 277646.92000000033,
      "d": 196.07833333330927,
      "v": 84
    },
    {
      "midi": 68,
      "hit": false,
      "t": 277646.92000000033,
      "d": 196.07833333330927,
      "v": 84
    },
    {
      "midi": 73,
      "hit": false,
      "t": 277646.9200000007,
      "d": 196.07833333330927,
      "v": 90
    },
    {
      "midi": 61,
      "hit": false,
      "t": 277941.03750000056,
      "d": 392.15666666667676,
      "v": 87
    },
    {
      "midi": 68,
      "hit": false,
      "t": 277941.03750000056,
      "d": 392.15666666667676,
      "v": 87
    },
    {
      "midi": 76,
      "hit": false,
      "t": 277941.0375000008,
      "d": 196.07833333330927,
      "v": 93
    },
    {
      "midi": 73,
      "hit": false,
      "t": 278235.15500000067,
      "d": 196.07833333330927,
      "v": 90
    },
    {
      "midi": 61,
      "hit": false,
      "t": 278529.27250000054,
      "d": 196.07833333330927,
      "v": 87
    },
    {
      "midi": 68,
      "hit": false,
      "t": 278529.27250000054,
      "d": 196.07833333330927,
      "v": 87
    },
    {
      "midi": 62,
      "hit": false,
      "t": 278529.2725000008,
      "d": 196.07833333330927,
      "v": 93
    },
    {
      "midi": 62,
      "hit": false,
      "t": 278823.3900000003,
      "d": 392.15666666667676,
      "v": 84
    },
    {
      "midi": 69,
      "hit": false,
      "t": 278823.3900000003,
      "d": 392.15666666667676,
      "v": 84
    },
    {
      "midi": 62,
      "hit": false,
      "t": 278823.39000000065,
      "d": 196.07833333330927,
      "v": 90
    },
    {
      "midi": 69,
      "hit": false,
      "t": 279117.50750000076,
      "d": 196.07833333330927,
      "v": 93
    },
    {
      "midi": 62,
      "hit": false,
      "t": 279411.6250000003,
      "d": 196.07833333330927,
      "v": 84
    },
    {
      "midi": 69,
      "hit": false,
      "t": 279411.6250000003,
      "d": 196.07833333330927,
      "v": 84
    },
    {
      "midi": 81,
      "hit": false,
      "t": 279411.62500000064,
      "d": 196.07833333330927,
      "v": 90
    },
    {
      "midi": 62,
      "hit": false,
      "t": 279705.7425000005,
      "d": 392.15666666667676,
      "v": 87
    },
    {
      "midi": 71,
      "hit": false,
      "t": 279705.7425000005,
      "d": 392.15666666667676,
      "v": 87
    },
    {
      "midi": 78,
      "hit": false,
      "t": 279705.74250000075,
      "d": 196.07833333330927,
      "v": 93
    },
    {
      "midi": 74,
      "hit": false,
      "t": 279999.8600000006,
      "d": 196.07833333330927,
      "v": 90
    },
    {
      "midi": 62,
      "hit": false,
      "t": 280293.9775000005,
      "d": 196.07833333330927,
      "v": 87
    },
    {
      "midi": 69,
      "hit": false,
      "t": 280293.9775000005,
      "d": 196.07833333330927,
      "v": 87
    },
    {
      "midi": 62,
      "hit": false,
      "t": 280293.97750000074,
      "d": 196.07833333330927,
      "v": 93
    },
    {
      "midi": 57,
      "hit": false,
      "t": 280588.09500000026,
      "d": 392.15666666667676,
      "v": 84
    },
    {
      "midi": 64,
      "hit": false,
      "t": 280588.09500000026,
      "d": 392.15666666667676,
      "v": 84
    },
    {
      "midi": 57,
      "hit": false,
      "t": 280588.0950000006,
      "d": 196.07833333330927,
      "v": 90
    },
    {
      "midi": 64,
      "hit": false,
      "t": 280882.2125000007,
      "d": 196.07833333330927,
      "v": 93
    },
    {
      "midi": 57,
      "hit": false,
      "t": 281176.33000000025,
      "d": 196.07833333330927,
      "v": 84
    },
    {
      "midi": 64,
      "hit": false,
      "t": 281176.33000000025,
      "d": 196.07833333330927,
      "v": 84
    },
    {
      "midi": 73,
      "hit": false,
      "t": 281176.3300000006,
      "d": 196.07833333330927,
      "v": 90
    },
    {
      "midi": 81,
      "hit": false,
      "t": 281176.3300000006,
      "d": 196.07833333330927,
      "v": 90
    },
    {
      "midi": 57,
      "hit": false,
      "t": 281470.4475000005,
      "d": 392.15666666667676,
      "v": 87
    },
    {
      "midi": 66,
      "hit": false,
      "t": 281470.4475000005,
      "d": 392.15666666667676,
      "v": 87
    },
    {
      "midi": 76,
      "hit": false,
      "t": 281470.4475000007,
      "d": 196.07833333330927,
      "v": 93
    },
    {
      "midi": 73,
      "hit": false,
      "t": 281764.5650000006,
      "d": 196.07833333330927,
      "v": 90
    },
    {
      "midi": 57,
      "hit": false,
      "t": 282058.68250000046,
      "d": 196.07833333330927,
      "v": 87
    },
    {
      "midi": 66,
      "hit": false,
      "t": 282058.68250000046,
      "d": 196.07833333330927,
      "v": 87
    },
    {
      "midi": 62,
      "hit": false,
      "t": 282058.6825000007,
      "d": 196.07833333330927,
      "v": 93
    },
    {
      "midi": 52,
      "hit": false,
      "t": 282352.8000000002,
      "d": 196.07833333330927,
      "v": 84
    },
    {
      "midi": 52,
      "hit": false,
      "t": 282352.80000000057,
      "d": 196.07833333330927,
      "v": 90
    },
    {
      "midi": 64,
      "hit": false,
      "t": 282646.9175000002,
      "d": 392.15666666667676,
      "v": 84
    },
    {
      "midi": 71,
      "hit": false,
      "t": 282646.9175000002,
      "d": 392.15666666667676,
      "v": 84
    },
    {
      "midi": 64,
      "hit": false,
      "t": 282646.9175000007,
      "d": 196.07833333330927,
      "v": 93
    },
    {
      "midi": 68,
      "hit": false,
      "t": 282941.03500000056,
      "d": 196.07833333330927,
      "v": 90
    },
    {
      "midi": 56,
      "hit": false,
      "t": 283235.15250000043,
      "d": 196.07833333330927,
      "v": 87
    },
    {
      "midi": 76,
      "hit": false,
      "t": 283235.15250000067,
      "d": 196.07833333330927,
      "v": 93
    },
    {
      "midi": 64,
      "hit": false,
      "t": 283529.2700000004,
      "d": 196.07833333330927,
      "v": 87
    },
    {
      "midi": 71,
      "hit": false,
      "t": 283529.2700000004,
      "d": 196.07833333330927,
      "v": 87
    },
    {
      "midi": 71,
      "hit": false,
      "t": 283529.27000000054,
      "d": 196.07833333330927,
      "v": 90
    },
    {
      "midi": 54,
      "hit": false,
      "t": 283823.38750000024,
      "d": 98.03916666668374,
      "v": 84
    },
    {
      "midi": 68,
      "hit": false,
      "t": 283823.38750000065,
      "d": 196.07833333330927,
      "v": 93
    },
    {
      "midi": 54,
      "hit": false,
      "t": 283970.44625000027,
      "d": 98.03916666668374,
      "v": 84
    },
    {
      "midi": 52,
      "hit": false,
      "t": 284117.5050000004,
      "d": 196.07833333330927,
      "v": 87
    },
    {
      "midi": 52,
      "hit": false,
      "t": 284117.5050000005,
      "d": 196.07833333330927,
      "v": 90
    },
    {
      "midi": 64,
      "hit": false,
      "t": 284411.6225000003,
      "d": 392.15666666667676,
      "v": 84
    },
    {
      "midi": 71,
      "hit": false,
      "t": 284411.6225000003,
      "d": 392.15666666667676,
      "v": 84
    },
    {
      "midi": 76,
      "hit": false,
      "t": 284411.6225000003,
      "d": 392.15666666667676,
      "v": 84
    },
    {
      "midi": 71,
      "hit": false,
      "t": 284411.6225000004,
      "d": 392.15666666667676,
      "v": 87
    },
    {
      "midi": 64,
      "hit": false,
      "t": 284411.62250000064,
      "d": 196.07833333330927,
      "v": 93
    },
    {
      "midi": 68,
      "hit": false,
      "t": 284705.7400000005,
      "d": 196.07833333330927,
      "v": 90
    },
    {
      "midi": 71,
      "hit": false,
      "t": 284999.8575000003,
      "d": 98.03916666668374,
      "v": 84
    },
    {
      "midi": 59,
      "hit": false,
      "t": 284999.8575000004,
      "d": 98.03916666668374,
      "v": 87
    },
    {
      "midi": 64,
      "hit": false,
      "t": 284999.8575000004,
      "d": 98.03916666668374,
      "v": 87
    },
    {
      "midi": 71,
      "hit": false,
      "t": 284999.8575000004,
      "d": 98.03916666668374,
      "v": 87
    },
    {
      "midi": 76,
      "hit": false,
      "t": 284999.8575000004,
      "d": 98.03916666668374,
      "v": 87
    },
    {
      "midi": 76,
      "hit": false,
      "t": 284999.8575000006,
      "d": 196.07833333330927,
      "v": 93
    },
    {
      "midi": 61,
      "hit": false,
      "t": 285146.9162500003,
      "d": 98.03916666668374,
      "v": 84
    },
    {
      "midi": 64,
      "hit": false,
      "t": 285293.9750000004,
      "d": 392.15666666667676,
      "v": 87
    },
    {
      "midi": 71,
      "hit": false,
      "t": 285293.9750000005,
      "d": 196.07833333330927,
      "v": 90
    },
    {
      "midi": 68,
      "hit": false,
      "t": 285588.0925000006,
      "d": 196.07833333330927,
      "v": 93
    },
    {
      "midi": 57,
      "hit": false,
      "t": 285882.2100000003,
      "d": 392.15666666667676,
      "v": 84
    },
    {
      "midi": 64,
      "hit": false,
      "t": 285882.2100000003,
      "d": 392.15666666667676,
      "v": 84
    },
    {
      "midi": 57,
      "hit": false,
      "t": 285882.2100000006,
      "d": 196.07833333330927,
      "v": 93
    },
    {
      "midi": 64,
      "hit": false,
      "t": 286176.3275000006,
      "d": 196.07833333330927,
      "v": 93
    },
    {
      "midi": 57,
      "hit": false,
      "t": 286470.4450000003,
      "d": 196.07833333330927,
      "v": 84
    },
    {
      "midi": 64,
      "hit": false,
      "t": 286470.4450000003,
      "d": 196.07833333330927,
      "v": 84
    },
    {
      "midi": 69,
      "hit": false,
      "t": 286470.4450000005,
      "d": 196.07833333330927,
      "v": 90
    },
    {
      "midi": 57,
      "hit": false,
      "t": 286764.5625000004,
      "d": 392.15666666667676,
      "v": 87
    },
    {
      "midi": 66,
      "hit": false,
      "t": 286764.5625000004,
      "d": 392.15666666667676,
      "v": 87
    },
    {
      "midi": 76,
      "hit": false,
      "t": 286764.56250000047,
      "d": 196.07833333330927,
      "v": 90
    },
    {
      "midi": 73,
      "hit": false,
      "t": 287058.6800000006,
      "d": 196.07833333330927,
      "v": 93
    },
    {
      "midi": 57,
      "hit": false,
      "t": 287352.7975000004,
      "d": 196.07833333330927,
      "v": 87
    },
    {
      "midi": 64,
      "hit": false,
      "t": 287352.7975000004,
      "d": 196.07833333330927,
      "v": 87
    },
    {
      "midi": 69,
      "hit": false,
      "t": 287352.79750000057,
      "d": 196.07833333330927,
      "v": 93
    },
    {
      "midi": 64,
      "hit": false,
      "t": 287646.91500000027,
      "d": 392.15666666667676,
      "v": 84
    },
    {
      "midi": 71,
      "hit": false,
      "t": 287646.91500000027,
      "d": 392.15666666667676,
      "v": 84
    },
    {
      "midi": 52,
      "hit": false,
      "t": 287646.91500000044,
      "d": 196.07833333330927,
      "v": 90
    },
    {
      "midi": 64,
      "hit": false,
      "t": 287941.03250000044,
      "d": 196.07833333330927,
      "v": 90
    },
    {
      "midi": 64,
      "hit": false,
      "t": 288235.15000000026,
      "d": 196.07833333330927,
      "v": 84
    },
    {
      "midi": 71,
      "hit": false,
      "t": 288235.15000000026,
      "d": 196.07833333330927,
      "v": 84
    },
    {
      "midi": 68,
      "hit": false,
      "t": 288235.15000000055,
      "d": 196.07833333330927,
      "v": 93
    },
    {
      "midi": 64,
      "hit": false,
      "t": 288529.26750000037,
      "d": 392.15666666667676,
      "v": 87
    },
    {
      "midi": 73,
      "hit": false,
      "t": 288529.26750000037,
      "d": 392.15666666667676,
      "v": 87
    },
    {
      "midi": 76,
      "hit": false,
      "t": 288529.26750000054,
      "d": 196.07833333330927,
      "v": 93
    },
    {
      "midi": 71,
      "hit": false,
      "t": 288823.3850000004,
      "d": 196.07833333330927,
      "v": 90
    },
    {
      "midi": 64,
      "hit": false,
      "t": 289117.50250000035,
      "d": 196.07833333330927,
      "v": 87
    },
    {
      "midi": 73,
      "hit": false,
      "t": 289117.50250000035,
      "d": 196.07833333330927,
      "v": 87
    },
    {
      "midi": 67,
      "hit": false,
      "t": 289117.5025000004,
      "d": 196.07833333330927,
      "v": 90
    },
    {
      "midi": 54,
      "hit": false,
      "t": 289411.6200000002,
      "d": 588.234999999986,
      "v": 84
    },
    {
      "midi": 61,
      "hit": false,
      "t": 289411.6200000002,
      "d": 588.234999999986,
      "v": 84
    },
    {
      "midi": 54,
      "hit": false,
      "t": 289411.6200000005,
      "d": 196.07833333330927,
      "v": 93
    },
    {
      "midi": 66,
      "hit": false,
      "t": 289705.7375000005,
      "d": 196.07833333330927,
      "v": 93
    },
    {
      "midi": 69,
      "hit": false,
      "t": 289999.8550000004,
      "d": 196.07833333330927,
      "v": 90
    },
    {
      "midi": 54,
      "hit": false,
      "t": 290293.9725000003,
      "d": 588.234999999986,
      "v": 87
    },
    {
      "midi": 61,
      "hit": false,
      "t": 290293.9725000003,
      "d": 588.234999999986,
      "v": 87
    },
    {
      "midi": 73,
      "hit": false,
      "t": 290293.9725000004,
      "d": 196.07833333330927,
      "v": 90
    },
    {
      "midi": 69,
      "hit": false,
      "t": 290588.0900000005,
      "d": 196.07833333330927,
      "v": 93
    },
    {
      "midi": 66,
      "hit": false,
      "t": 290882.2075000005,
      "d": 196.07833333330927,
      "v": 93
    },
    {
      "midi": 61,
      "hit": false,
      "t": 291176.3250000002,
      "d": 588.234999999986,
      "v": 84
    },
    {
      "midi": 68,
      "hit": false,
      "t": 291176.3250000002,
      "d": 588.234999999986,
      "v": 84
    },
    {
      "midi": 61,
      "hit": false,
      "t": 291176.32500000036,
      "d": 196.07833333330927,
      "v": 90
    },
    {
      "midi": 68,
      "hit": false,
      "t": 291470.44250000035,
      "d": 196.07833333330927,
      "v": 90
    },
    {
      "midi": 73,
      "hit": false,
      "t": 291764.56000000046,
      "d": 196.07833333330927,
      "v": 93
    },
    {
      "midi": 61,
      "hit": false,
      "t": 292058.6775000003,
      "d": 588.234999999986,
      "v": 87
    },
    {
      "midi": 68,
      "hit": false,
      "t": 292058.6775000003,
      "d": 588.234999999986,
      "v": 87
    },
    {
      "midi": 76,
      "hit": false,
      "t": 292058.67750000046,
      "d": 196.07833333330927,
      "v": 93
    },
    {
      "midi": 73,
      "hit": false,
      "t": 292352.79500000033,
      "d": 196.07833333330927,
      "v": 90
    },
    {
      "midi": 68,
      "hit": false,
      "t": 292646.9125000003,
      "d": 196.07833333330927,
      "v": 90
    },
    {
      "midi": 62,
      "hit": false,
      "t": 292941.03000000014,
      "d": 196.07833333330927,
      "v": 84
    },
    {
      "midi": 69,
      "hit": false,
      "t": 292941.03000000014,
      "d": 196.07833333330927,
      "v": 84
    },
    {
      "midi": 62,
      "hit": false,
      "t": 292941.03000000044,
      "d": 196.07833333330927,
      "v": 93
    },
    {
      "midi": 62,
      "hit": false,
      "t": 293235.14750000025,
      "d": 98.03916666668374,
      "v": 87
    },
    {
      "midi": 69,
      "hit": false,
      "t": 293235.14750000025,
      "d": 98.03916666668374,
      "v": 87
    },
    {
      "midi": 69,
      "hit": false,
      "t": 293235.1475000004,
      "d": 196.07833333330927,
      "v": 93
    },
    {
      "midi": 62,
      "hit": false,
      "t": 293382.2062500003,
      "d": 98.03916666668374,
      "v": 87
    },
    {
      "midi": 69,
      "hit": false,
      "t": 293382.2062500003,
      "d": 98.03916666668374,
      "v": 87
    },
    {
      "midi": 62,
      "hit": false,
      "t": 293529.26500000013,
      "d": 196.07833333330927,
      "v": 84
    },
    {
      "midi": 69,
      "hit": false,
      "t": 293529.26500000013,
      "d": 196.07833333330927,
      "v": 84
    },
    {
      "midi": 74,
      "hit": false,
      "t": 293529.2650000003,
      "d": 196.07833333330927,
      "v": 90
    },
    {
      "midi": 78,
      "hit": false,
      "t": 293823.3825000003,
      "d": 196.07833333330927,
      "v": 90
    },
    {
      "midi": 62,
      "hit": false,
      "t": 293823.3825000003,
      "d": 392.15666666667676,
      "v": 87
    },
    {
      "midi": 71,
      "hit": false,
      "t": 293823.3825000003,
      "d": 392.15666666667676,
      "v": 87
    },
    {
      "midi": 74,
      "hit": false,
      "t": 294117.5000000004,
      "d": 196.07833333330927,
      "v": 93
    },
    {
      "midi": 62,
      "hit": false,
      "t": 294411.6175000003,
      "d": 196.07833333330927,
      "v": 87
    },
    {
      "midi": 69,
      "hit": false,
      "t": 294411.6175000003,
      "d": 196.07833333330927,
      "v": 87
    },
    {
      "midi": 69,
      "hit": false,
      "t": 294411.6175000004,
      "d": 196.07833333330927,
      "v": 93
    },
    {
      "midi": 57,
      "hit": false,
      "t": 294705.7350000001,
      "d": 392.15666666667676,
      "v": 84
    },
    {
      "midi": 64,
      "hit": false,
      "t": 294705.7350000001,
      "d": 392.15666666667676,
      "v": 84
    },
    {
      "midi": 57,
      "hit": false,
      "t": 294705.7350000003,
      "d": 196.07833333330927,
      "v": 90
    },
    {
      "midi": 69,
      "hit": false,
      "t": 294999.85250000027,
      "d": 196.07833333330927,
      "v": 90
    },
    {
      "midi": 57,
      "hit": false,
      "t": 295293.9700000001,
      "d": 196.07833333330927,
      "v": 84
    },
    {
      "midi": 64,
      "hit": false,
      "t": 295293.9700000001,
      "d": 196.07833333330927,
      "v": 84
    },
    {
      "midi": 73,
      "hit": false,
      "t": 295293.9700000004,
      "d": 196.07833333330927,
      "v": 93
    },
    {
      "midi": 57,
      "hit": false,
      "t": 295588.08750000026,
      "d": 392.15666666667676,
      "v": 87
    },
    {
      "midi": 66,
      "hit": false,
      "t": 295588.08750000026,
      "d": 392.15666666667676,
      "v": 87
    },
    {
      "midi": 76,
      "hit": false,
      "t": 295588.0875000004,
      "d": 196.07833333330927,
      "v": 93
    },
    {
      "midi": 73,
      "hit": false,
      "t": 295882.20500000025,
      "d": 196.07833333330927,
      "v": 90
    },
    {
      "midi": 67,
      "hit": false,
      "t": 296176.32250000024,
      "d": 196.07833333330927,
      "v": 90
    },
    {
      "midi": 57,
      "hit": false,
      "t": 296176.32250000024,
      "d": 196.07833333330927,
      "v": 87
    },
    {
      "midi": 64,
      "hit": false,
      "t": 296176.32250000024,
      "d": 196.07833333330927,
      "v": 87
    },
    {
      "midi": 61,
      "hit": false,
      "t": 296470.44000000006,
      "d": 196.07833333330927,
      "v": 84
    },
    {
      "midi": 52,
      "hit": false,
      "t": 296470.44000000035,
      "d": 196.07833333330927,
      "v": 93
    },
    {
      "midi": 64,
      "hit": false,
      "t": 296764.55750000005,
      "d": 196.07833333330927,
      "v": 84
    },
    {
      "midi": 64,
      "hit": false,
      "t": 296764.55750000034,
      "d": 196.07833333330927,
      "v": 93
    },
    {
      "midi": 68,
      "hit": false,
      "t": 297058.6750000002,
      "d": 196.07833333330927,
      "v": 90
    },
    {
      "midi": 52,
      "hit": false,
      "t": 297058.6750000002,
      "d": 196.07833333330927,
      "v": 87
    },
    {
      "midi": 76,
      "hit": false,
      "t": 297352.7925000002,
      "d": 196.07833333330927,
      "v": 90
    },
    {
      "midi": 52,
      "hit": false,
      "t": 297352.7925000002,
      "d": 392.15666666667676,
      "v": 87
    },
    {
      "midi": 59,
      "hit": false,
      "t": 297352.7925000002,
      "d": 392.15666666667676,
      "v": 87
    },
    {
      "midi": 64,
      "hit": false,
      "t": 297352.7925000002,
      "d": 392.15666666667676,
      "v": 87
    },
    {
      "midi": 71,
      "hit": false,
      "t": 297352.7925000002,
      "d": 392.15666666667676,
      "v": 87
    },
    {
      "midi": 71,
      "hit": false,
      "t": 297646.9100000003,
      "d": 196.07833333330927,
      "v": 93
    },
    {
      "midi": 52,
      "hit": false,
      "t": 297941.0275,
      "d": 196.07833333330927,
      "v": 84
    },
    {
      "midi": 59,
      "hit": false,
      "t": 297941.0275,
      "d": 196.07833333330927,
      "v": 84
    },
    {
      "midi": 64,
      "hit": false,
      "t": 297941.0275,
      "d": 196.07833333330927,
      "v": 84
    },
    {
      "midi": 71,
      "hit": false,
      "t": 297941.0275,
      "d": 196.07833333330927,
      "v": 84
    },
    {
      "midi": 68,
      "hit": false,
      "t": 297941.0275000003,
      "d": 196.07833333330927,
      "v": 93
    },
    {
      "midi": 52,
      "hit": false,
      "t": 298235.1450000002,
      "d": 196.07833333330927,
      "v": 90
    },
    {
      "midi": 52,
      "hit": false,
      "t": 298235.14500000025,
      "d": 196.07833333330927,
      "v": 87
    },
    {
      "midi": 59,
      "hit": false,
      "t": 298235.14500000025,
      "d": 196.07833333330927,
      "v": 87
    },
    {
      "midi": 64,
      "hit": false,
      "t": 298235.14500000025,
      "d": 196.07833333330927,
      "v": 87
    },
    {
      "midi": 71,
      "hit": false,
      "t": 298235.14500000025,
      "d": 196.07833333330927,
      "v": 87
    },
    {
      "midi": 52,
      "hit": false,
      "t": 298529.2625,
      "d": 196.07833333330927,
      "v": 84
    },
    {
      "midi": 59,
      "hit": false,
      "t": 298529.2625,
      "d": 196.07833333330927,
      "v": 84
    },
    {
      "midi": 64,
      "hit": false,
      "t": 298529.2625,
      "d": 196.07833333330927,
      "v": 84
    },
    {
      "midi": 71,
      "hit": false,
      "t": 298529.2625,
      "d": 196.07833333330927,
      "v": 84
    },
    {
      "midi": 64,
      "hit": false,
      "t": 298529.2625000002,
      "d": 196.07833333330927,
      "v": 90
    },
    {
      "midi": 52,
      "hit": false,
      "t": 298823.38000000024,
      "d": 196.07833333330927,
      "v": 87
    },
    {
      "midi": 59,
      "hit": false,
      "t": 298823.38000000024,
      "d": 196.07833333330927,
      "v": 87
    },
    {
      "midi": 64,
      "hit": false,
      "t": 298823.38000000024,
      "d": 196.07833333330927,
      "v": 87
    },
    {
      "midi": 71,
      "hit": false,
      "t": 298823.38000000024,
      "d": 196.07833333330927,
      "v": 87
    },
    {
      "midi": 68,
      "hit": false,
      "t": 298823.3800000003,
      "d": 196.07833333330927,
      "v": 93
    },
    {
      "midi": 52,
      "hit": false,
      "t": 299117.4975,
      "d": 588.234999999986,
      "v": 84
    },
    {
      "midi": 59,
      "hit": false,
      "t": 299117.4975,
      "d": 588.234999999986,
      "v": 84
    },
    {
      "midi": 64,
      "hit": false,
      "t": 299117.4975,
      "d": 588.234999999986,
      "v": 84
    },
    {
      "midi": 71,
      "hit": false,
      "t": 299117.4975,
      "d": 588.234999999986,
      "v": 84
    },
    {
      "midi": 76,
      "hit": false,
      "t": 299117.4975000003,
      "d": 196.07833333330927,
      "v": 93
    },
    {
      "midi": 71,
      "hit": false,
      "t": 299411.61500000017,
      "d": 196.07833333330927,
      "v": 90
    },
    {
      "midi": 67,
      "hit": false,
      "t": 299705.73250000016,
      "d": 196.07833333330927,
      "v": 90
    }
  ]
}