{
  "jsonPath": "Unknown/Unknown/Elmore James Jr/nora-mae.json",
  "path": "Unknown\\Unknown\\Elmore James Jr\\Nora Mae.mid",
  "name": "Nora Mae",
  "difficulty": "Advanced",
  "bpm": 89.00017206699933,
  "notes": [
    {
      "midi": 40,
      "hit": false,
      "t": 5393.248,
      "d": 4252.098520833333,
      "v": 57
    },
    {
      "midi": 56,
      "hit": false,
      "t": 5393.248,
      "d": 4283.699583333333,
      "v": 49
    },
    {
      "midi": 64,
      "hit": false,
      "t": 5617.966666666666,
      "d": 4101.115666666666,
      "v": 57
    },
    {
      "midi": 68,
      "hit": false,
      "t": 5842.685333333333,
      "d": 3834.2622499999998,
      "v": 60
    },
    {
      "midi": 71,
      "hit": false,
      "t": 6067.4039999999995,
      "d": 3623.588499999999,
      "v": 70
    },
    {
      "midi": 40,
      "hit": false,
      "t": 9887.621333333333,
      "d": 505.617000000002,
      "v": 49
    },
    {
      "midi": 68,
      "hit": false,
      "t": 10112.34,
      "d": 189.6063749999994,
      "v": 60
    },
    {
      "midi": 64,
      "hit": false,
      "t": 10112.34,
      "d": 217.69620833333283,
      "v": 54
    },
    {
      "midi": 56,
      "hit": false,
      "t": 10112.34,
      "d": 263.34218750000036,
      "v": 56
    },
    {
      "midi": 56,
      "hit": false,
      "t": 10786.496000000001,
      "d": 3820.217333333334,
      "v": 70
    },
    {
      "midi": 59,
      "hit": false,
      "t": 10786.496000000001,
      "d": 3820.217333333334,
      "v": 70
    },
    {
      "midi": 64,
      "hit": false,
      "t": 10786.496000000001,
      "d": 3820.217333333334,
      "v": 70
    },
    {
      "midi": 40,
      "hit": false,
      "t": 10786.496000000001,
      "d": 5284.399895833336,
      "v": 68
    },
    {
      "midi": 56,
      "hit": false,
      "t": 15280.869333333336,
      "d": 898.8746666666684,
      "v": 57
    },
    {
      "midi": 64,
      "hit": false,
      "t": 15505.588000000003,
      "d": 674.1560000000009,
      "v": 52
    },
    {
      "midi": 68,
      "hit": false,
      "t": 15955.025333333337,
      "d": 224.71866666666756,
      "v": 58
    },
    {
      "midi": 57,
      "hit": false,
      "t": 16179.744000000004,
      "d": 3820.217333333332,
      "v": 70
    },
    {
      "midi": 61,
      "hit": false,
      "t": 16179.744000000004,
      "d": 3820.217333333332,
      "v": 70
    },
    {
      "midi": 64,
      "hit": false,
      "t": 16179.744000000004,
      "d": 3820.217333333332,
      "v": 70
    },
    {
      "midi": 45,
      "hit": false,
      "t": 16179.744000000004,
      "d": 5284.399895833334,
      "v": 68
    },
    {
      "midi": 52,
      "hit": false,
      "t": 20674.117333333335,
      "d": 898.8746666666702,
      "v": 57
    },
    {
      "midi": 61,
      "hit": false,
      "t": 20898.836000000003,
      "d": 674.1560000000027,
      "v": 52
    },
    {
      "midi": 64,
      "hit": false,
      "t": 21348.273333333338,
      "d": 224.71866666666756,
      "v": 58
    },
    {
      "midi": 40,
      "hit": false,
      "t": 21572.992000000006,
      "d": 4252.098520833337,
      "v": 57
    },
    {
      "midi": 56,
      "hit": false,
      "t": 21572.992000000006,
      "d": 4283.6995833333385,
      "v": 49
    },
    {
      "midi": 64,
      "hit": false,
      "t": 21797.710666666673,
      "d": 4101.115666666668,
      "v": 57
    },
    {
      "midi": 68,
      "hit": false,
      "t": 22022.42933333334,
      "d": 3834.2622500000034,
      "v": 60
    },
    {
      "midi": 71,
      "hit": false,
      "t": 22247.14800000001,
      "d": 3623.5885000000017,
      "v": 70
    },
    {
      "midi": 40,
      "hit": false,
      "t": 26067.365333333342,
      "d": 505.61699999999837,
      "v": 49
    },
    {
      "midi": 68,
      "hit": false,
      "t": 26292.08400000001,
      "d": 189.6063749999994,
      "v": 60
    },
    {
      "midi": 64,
      "hit": false,
      "t": 26292.08400000001,
      "d": 217.69620833333101,
      "v": 54
    },
    {
      "midi": 56,
      "hit": false,
      "t": 26292.08400000001,
      "d": 263.34218749999854,
      "v": 56
    },
    {
      "midi": 47,
      "hit": false,
      "t": 27190.958666666673,
      "d": 2222.6080624999995,
      "v": 24
    },
    {
      "midi": 59,
      "hit": false,
      "t": 27415.67733333334,
      "d": 1867.973916666666,
      "v": 64
    },
    {
      "midi": 54,
      "hit": false,
      "t": 27415.67733333334,
      "d": 2050.5578333333324,
      "v": 74
    },
    {
      "midi": 63,
      "hit": false,
      "t": 27640.396000000008,
      "d": 1643.2552499999983,
      "v": 70
    },
    {
      "midi": 66,
      "hit": false,
      "t": 27640.396000000008,
      "d": 1773.1707291666644,
      "v": 68
    },
    {
      "midi": 57,
      "hit": false,
      "t": 29662.864000000005,
      "d": 2050.5578333333324,
      "v": 54
    },
    {
      "midi": 61,
      "hit": false,
      "t": 29662.864000000005,
      "d": 2176.962083333332,
      "v": 55
    },
    {
      "midi": 45,
      "hit": false,
      "t": 29662.864000000005,
      "d": 2696.624,
      "v": 56
    },
    {
      "midi": 64,
      "hit": false,
      "t": 29662.864000000005,
      "d": 2696.624,
      "v": 53
    },
    {
      "midi": 52,
      "hit": false,
      "t": 31685.332000000006,
      "d": 674.155999999999,
      "v": 78
    },
    {
      "midi": 57,
      "hit": false,
      "t": 31910.05066666667,
      "d": 449.4373333333351,
      "v": 63
    },
    {
      "midi": 61,
      "hit": false,
      "t": 32134.769333333337,
      "d": 182.58391666666648,
      "v": 58
    },
    {
      "midi": 59,
      "hit": false,
      "t": 32359.488000000005,
      "d": 2050.5578333333324,
      "v": 54
    },
    {
      "midi": 64,
      "hit": false,
      "t": 32359.488000000005,
      "d": 2176.962083333332,
      "v": 55
    },
    {
      "midi": 40,
      "hit": false,
      "t": 32359.488000000005,
      "d": 2696.6240000000034,
      "v": 56
    },
    {
      "midi": 68,
      "hit": false,
      "t": 32359.488000000005,
      "d": 2696.6240000000034,
      "v": 53
    },
    {
      "midi": 56,
      "hit": false,
      "t": 34381.956000000006,
      "d": 674.1560000000027,
      "v": 78
    },
    {
      "midi": 59,
      "hit": false,
      "t": 34606.67466666667,
      "d": 449.4373333333351,
      "v": 63
    },
    {
      "midi": 64,
      "hit": false,
      "t": 34831.39333333334,
      "d": 182.58391666667012,
      "v": 58
    },
    {
      "midi": 57,
      "hit": false,
      "t": 35056.11200000001,
      "d": 2050.5578333333324,
      "v": 54
    },
    {
      "midi": 59,
      "hit": false,
      "t": 35056.11200000001,
      "d": 2176.962083333332,
      "v": 55
    },
    {
      "midi": 47,
      "hit": false,
      "t": 35056.11200000001,
      "d": 2696.6240000000034,
      "v": 56
    },
    {
      "midi": 63,
      "hit": false,
      "t": 35056.11200000001,
      "d": 2696.6240000000034,
      "v": 53
    },
    {
      "midi": 66,
      "hit": false,
      "t": 35056.11200000001,
      "d": 2696.6240000000034,
      "v": 53
    },
    {
      "midi": 54,
      "hit": false,
      "t": 37078.58000000001,
      "d": 674.1560000000027,
      "v": 78
    },
    {
      "midi": 57,
      "hit": false,
      "t": 37303.29866666668,
      "d": 449.4373333333351,
      "v": 63
    },
    {
      "midi": 59,
      "hit": false,
      "t": 37528.017333333344,
      "d": 182.58391666667012,
      "v": 58
    },
    {
      "midi": 40,
      "hit": false,
      "t": 37752.73600000001,
      "d": 4252.098520833337,
      "v": 57
    },
    {
      "midi": 56,
      "hit": false,
      "t": 37752.73600000001,
      "d": 4283.699583333335,
      "v": 49
    },
    {
      "midi": 64,
      "hit": false,
      "t": 37977.45466666668,
      "d": 4101.115666666665,
      "v": 57
    },
    {
      "midi": 68,
      "hit": false,
      "t": 38202.17333333335,
      "d": 3834.2622499999998,
      "v": 60
    },
    {
      "midi": 71,
      "hit": false,
      "t": 38426.892000000014,
      "d": 3623.588499999998,
      "v": 70
    },
    {
      "midi": 40,
      "hit": false,
      "t": 42247.10933333334,
      "d": 505.61699999999837,
      "v": 49
    },
    {
      "midi": 68,
      "hit": false,
      "t": 42471.82800000001,
      "d": 189.60637500000303,
      "v": 60
    },
    {
      "midi": 64,
      "hit": false,
      "t": 42471.82800000001,
      "d": 217.69620833333465,
      "v": 54
    },
    {
      "midi": 56,
      "hit": false,
      "t": 42471.82800000001,
      "d": 263.34218749999854,
      "v": 56
    },
    {
      "midi": 56,
      "hit": false,
      "t": 43145.984000000004,
      "d": 3820.217333333334,
      "v": 70
    },
    {
      "midi": 59,
      "hit": false,
      "t": 43145.984000000004,
      "d": 3820.217333333334,
      "v": 70
    },
    {
      "midi": 64,
      "hit": false,
      "t": 43145.984000000004,
      "d": 3820.217333333334,
      "v": 70
    },
    {
      "midi": 40,
      "hit": false,
      "t": 43145.984000000004,
      "d": 5284.3998958333395,
      "v": 68
    },
    {
      "midi": 56,
      "hit": false,
      "t": 47640.35733333334,
      "d": 898.8746666666702,
      "v": 57
    },
    {
      "midi": 64,
      "hit": false,
      "t": 47865.07600000001,
      "d": 674.1560000000027,
      "v": 52
    },
    {
      "midi": 68,
      "hit": false,
      "t": 48314.51333333334,
      "d": 224.71866666666756,
      "v": 58
    },
    {
      "midi": 57,
      "hit": false,
      "t": 48539.23200000001,
      "d": 3820.217333333334,
      "v": 70
    },
    {
      "midi": 61,
      "hit": false,
      "t": 48539.23200000001,
      "d": 3820.217333333334,
      "v": 70
    },
    {
      "midi": 64,
      "hit": false,
      "t": 48539.23200000001,
      "d": 3820.217333333334,
      "v": 70
    },
    {
      "midi": 45,
      "hit": false,
      "t": 48539.23200000001,
      "d": 5284.3998958333395,
      "v": 68
    },
    {
      "midi": 52,
      "hit": false,
      "t": 53033.60533333335,
      "d": 898.8746666666702,
      "v": 57
    },
    {
      "midi": 61,
      "hit": false,
      "t": 53258.324000000015,
      "d": 674.1560000000027,
      "v": 52
    },
    {
      "midi": 64,
      "hit": false,
      "t": 53707.76133333335,
      "d": 224.71866666666756,
      "v": 58
    },
    {
      "midi": 40,
      "hit": false,
      "t": 53932.48000000002,
      "d": 4252.098520833337,
      "v": 57
    },
    {
      "midi": 56,
      "hit": false,
      "t": 53932.48000000002,
      "d": 4283.699583333335,
      "v": 49
    },
    {
      "midi": 64,
      "hit": false,
      "t": 54157.198666666685,
      "d": 4101.115666666665,
      "v": 57
    },
    {
      "midi": 68,
      "hit": false,
      "t": 54381.91733333335,
      "d": 3834.2622499999998,
      "v": 60
    },
    {
      "midi": 71,
      "hit": false,
      "t": 54606.63600000002,
      "d": 3623.588499999998,
      "v": 70
    },
    {
      "midi": 40,
      "hit": false,
      "t": 58426.85333333335,
      "d": 505.61699999999837,
      "v": 49
    },
    {
      "midi": 68,
      "hit": false,
      "t": 58651.572000000015,
      "d": 189.60637500000303,
      "v": 60
    },
    {
      "midi": 64,
      "hit": false,
      "t": 58651.572000000015,
      "d": 217.69620833333465,
      "v": 54
    },
    {
      "midi": 56,
      "hit": false,
      "t": 58651.572000000015,
      "d": 263.34218749999854,
      "v": 56
    },
    {
      "midi": 59,
      "hit": false,
      "t": 59325.72800000001,
      "d": 2050.5578333333324,
      "v": 54
    },
    {
      "midi": 63,
      "hit": false,
      "t": 59325.72800000001,
      "d": 2176.962083333332,
      "v": 55
    },
    {
      "midi": 47,
      "hit": false,
      "t": 59325.72800000001,
      "d": 2696.6240000000034,
      "v": 56
    },
    {
      "midi": 66,
      "hit": false,
      "t": 59325.72800000001,
      "d": 2696.6240000000034,
      "v": 53
    },
    {
      "midi": 54,
      "hit": false,
      "t": 61348.19600000001,
      "d": 674.1560000000027,
      "v": 78
    },
    {
      "midi": 59,
      "hit": false,
      "t": 61572.91466666668,
      "d": 449.4373333333351,
      "v": 63
    },
    {
      "midi": 63,
      "hit": false,
      "t": 61797.633333333346,
      "d": 182.58391666667012,
      "v": 58
    },
    {
      "midi": 57,
      "hit": false,
      "t": 62022.35200000001,
      "d": 2050.5578333333324,
      "v": 54
    },
    {
      "midi": 61,
      "hit": false,
      "t": 62022.35200000001,
      "d": 2176.962083333332,
      "v": 55
    },
    {
      "midi": 45,
      "hit": false,
      "t": 62022.35200000001,
      "d": 2696.6240000000034,
      "v": 56
    },
    {
      "midi": 64,
      "hit": false,
      "t": 62022.35200000001,
      "d": 2696.6240000000034,
      "v": 53
    },
    {
      "midi": 52,
      "hit": false,
      "t": 64044.820000000014,
      "d": 674.1560000000027,
      "v": 78
    },
    {
      "midi": 57,
      "hit": false,
      "t": 64269.53866666668,
      "d": 449.4373333333351,
      "v": 63
    },
    {
      "midi": 61,
      "hit": false,
      "t": 64494.25733333335,
      "d": 182.58391666667012,
      "v": 58
    },
    {
      "midi": 59,
      "hit": false,
      "t": 64718.97600000002,
      "d": 2050.5578333333324,
      "v": 54
    },
    {
      "midi": 64,
      "hit": false,
      "t": 64718.97600000002,
      "d": 2176.9620833333393,
      "v": 55
    },
    {
      "midi": 40,
      "hit": false,
      "t": 64718.97600000002,
      "d": 2696.6240000000034,
      "v": 56
    },
    {
      "midi": 68,
      "hit": false,
      "t": 64718.97600000002,
      "d": 2696.6240000000034,
      "v": 53
    },
    {
      "midi": 56,
      "hit": false,
      "t": 66741.44400000002,
      "d": 674.1560000000027,
      "v": 78
    },
    {
      "midi": 59,
      "hit": false,
      "t": 66966.16266666669,
      "d": 449.4373333333351,
      "v": 63
    },
    {
      "midi": 64,
      "hit": false,
      "t": 67190.88133333335,
      "d": 182.58391666667012,
      "v": 58
    },
    {
      "midi": 47,
      "hit": false,
      "t": 67640.31866666669,
      "d": 2222.608062500003,
      "v": 24
    },
    {
      "midi": 59,
      "hit": false,
      "t": 67865.03733333336,
      "d": 1867.9739166666695,
      "v": 64
    },
    {
      "midi": 57,
      "hit": false,
      "t": 67865.03733333336,
      "d": 2050.5578333333397,
      "v": 74
    },
    {
      "midi": 63,
      "hit": false,
      "t": 68089.75600000002,
      "d": 1643.255250000002,
      "v": 70
    },
    {
      "midi": 66,
      "hit": false,
      "t": 68089.75600000002,
      "d": 1773.170729166668,
      "v": 68
    },
    {
      "midi": 56,
      "hit": false,
      "t": 70112.22400000003,
      "d": 3820.217333333334,
      "v": 70
    },
    {
      "midi": 59,
      "hit": false,
      "t": 70112.22400000003,
      "d": 3820.217333333334,
      "v": 70
    },
    {
      "midi": 64,
      "hit": false,
      "t": 70112.22400000003,
      "d": 3820.217333333334,
      "v": 70
    },
    {
      "midi": 40,
      "hit": false,
      "t": 70112.22400000003,
      "d": 5284.3998958333395,
      "v": 68
    },
    {
      "midi": 56,
      "hit": false,
      "t": 74606.59733333337,
      "d": 898.8746666666702,
      "v": 57
    },
    {
      "midi": 64,
      "hit": false,
      "t": 74831.31600000004,
      "d": 674.1560000000027,
      "v": 52
    },
    {
      "midi": 68,
      "hit": false,
      "t": 75280.75333333337,
      "d": 224.71866666666756,
      "v": 58
    },
    {
      "midi": 56,
      "hit": false,
      "t": 75505.47200000004,
      "d": 3820.217333333334,
      "v": 70
    },
    {
      "midi": 59,
      "hit": false,
      "t": 75505.47200000004,
      "d": 3820.217333333334,
      "v": 70
    },
    {
      "midi": 64,
      "hit": false,
      "t": 75505.47200000004,
      "d": 3820.217333333334,
      "v": 70
    },
    {
      "midi": 40,
      "hit": false,
      "t": 75505.47200000004,
      "d": 5284.3998958333395,
      "v": 68
    },
    {
      "midi": 56,
      "hit": false,
      "t": 79999.84533333337,
      "d": 898.8746666666702,
      "v": 57
    },
    {
      "midi": 64,
      "hit": false,
      "t": 80224.56400000004,
      "d": 674.1560000000027,
      "v": 52
    },
    {
      "midi": 68,
      "hit": false,
      "t": 80674.00133333338,
      "d": 224.71866666666756,
      "v": 58
    },
    {
      "midi": 73,
      "hit": false,
      "t": 80898.72000000004,
      "d": 5393.248000000007,
      "v": 61
    },
    {
      "midi": 64,
      "hit": false,
      "t": 81123.43866666671,
      "d": 2033.0016875000147,
      "v": 62
    },
    {
      "midi": 57,
      "hit": false,
      "t": 81572.87600000005,
      "d": 1573.030666666673,
      "v": 51
    },
    {
      "midi": 52,
      "hit": false,
      "t": 83145.90666666672,
      "d": 3146.0613333333313,
      "v": 70
    },
    {
      "midi": 57,
      "hit": false,
      "t": 83370.62533333339,
      "d": 1896.0637500000012,
      "v": 66
    },
    {
      "midi": 64,
      "hit": false,
      "t": 83595.34400000006,
      "d": 2099.7150416666555,
      "v": 51
    },
    {
      "midi": 57,
      "hit": false,
      "t": 85617.81200000005,
      "d": 660.1110833333369,
      "v": 68
    },
    {
      "midi": 64,
      "hit": false,
      "t": 85842.53066666672,
      "d": 21.06737499999872,
      "v": 64
    },
    {
      "midi": 64,
      "hit": false,
      "t": 86067.24933333338,
      "d": 182.58391666667012,
      "v": 60
    },
    {
      "midi": 56,
      "hit": false,
      "t": 86291.96800000005,
      "d": 3820.217333333334,
      "v": 70
    },
    {
      "midi": 59,
      "hit": false,
      "t": 86291.96800000005,
      "d": 3820.217333333334,
      "v": 70
    },
    {
      "midi": 64,
      "hit": false,
      "t": 86291.96800000005,
      "d": 3820.217333333334,
      "v": 70
    },
    {
      "midi": 40,
      "hit": false,
      "t": 86291.96800000005,
      "d": 5284.3998958333395,
      "v": 68
    },
    {
      "midi": 56,
      "hit": false,
      "t": 90786.34133333339,
      "d": 898.8746666666702,
      "v": 57
    },
    {
      "midi": 64,
      "hit": false,
      "t": 91011.06000000006,
      "d": 674.1560000000027,
      "v": 52
    },
    {
      "midi": 68,
      "hit": false,
      "t": 91460.49733333339,
      "d": 224.71866666666756,
      "v": 58
    },
    {
      "midi": 47,
      "hit": false,
      "t": 91909.93466666673,
      "d": 2222.608062500003,
      "v": 24
    },
    {
      "midi": 59,
      "hit": false,
      "t": 92134.6533333334,
      "d": 1867.9739166666695,
      "v": 64
    },
    {
      "midi": 54,
      "hit": false,
      "t": 92134.6533333334,
      "d": 2050.5578333333397,
      "v": 74
    },
    {
      "midi": 63,
      "hit": false,
      "t": 92359.37200000006,
      "d": 1643.255250000002,
      "v": 70
    },
    {
      "midi": 66,
      "hit": false,
      "t": 92359.37200000006,
      "d": 1773.170729166668,
      "v": 68
    },
    {
      "midi": 45,
      "hit": false,
      "t": 94606.55866666674,
      "d": 2222.608062500003,
      "v": 24
    },
    {
      "midi": 57,
      "hit": false,
      "t": 94831.2773333334,
      "d": 1867.9739166666695,
      "v": 64
    },
    {
      "midi": 52,
      "hit": false,
      "t": 94831.2773333334,
      "d": 2050.5578333333397,
      "v": 74
    },
    {
      "midi": 61,
      "hit": false,
      "t": 95055.99600000007,
      "d": 1643.255250000002,
      "v": 70
    },
    {
      "midi": 64,
      "hit": false,
      "t": 95055.99600000007,
      "d": 1773.170729166668,
      "v": 68
    },
    {
      "midi": 59,
      "hit": false,
      "t": 97078.46400000008,
      "d": 2050.557833333325,
      "v": 54
    },
    {
      "midi": 64,
      "hit": false,
      "t": 97078.46400000008,
      "d": 2176.962083333332,
      "v": 55
    },
    {
      "midi": 40,
      "hit": false,
      "t": 97078.46400000008,
      "d": 2696.623999999996,
      "v": 56
    },
    {
      "midi": 68,
      "hit": false,
      "t": 97078.46400000008,
      "d": 2696.623999999996,
      "v": 53
    },
    {
      "midi": 56,
      "hit": false,
      "t": 99100.93200000007,
      "d": 674.1560000000027,
      "v": 78
    },
    {
      "midi": 59,
      "hit": false,
      "t": 99325.65066666674,
      "d": 449.4373333333351,
      "v": 63
    },
    {
      "midi": 64,
      "hit": false,
      "t": 99550.36933333341,
      "d": 182.58391666667012,
      "v": 58
    },
    {
      "midi": 57,
      "hit": false,
      "t": 99775.08800000008,
      "d": 2050.557833333325,
      "v": 54
    },
    {
      "midi": 59,
      "hit": false,
      "t": 99775.08800000008,
      "d": 2176.962083333332,
      "v": 55
    },
    {
      "midi": 47,
      "hit": false,
      "t": 99775.08800000008,
      "d": 2696.623999999996,
      "v": 56
    },
    {
      "midi": 63,
      "hit": false,
      "t": 99775.08800000008,
      "d": 2696.623999999996,
      "v": 53
    },
    {
      "midi": 66,
      "hit": false,
      "t": 99775.08800000008,
      "d": 2696.623999999996,
      "v": 53
    },
    {
      "midi": 54,
      "hit": false,
      "t": 101797.55600000007,
      "d": 674.1560000000027,
      "v": 78
    },
    {
      "midi": 57,
      "hit": false,
      "t": 102022.27466666674,
      "d": 449.4373333333351,
      "v": 63
    },
    {
      "midi": 59,
      "hit": false,
      "t": 102246.9933333334,
      "d": 182.58391666667012,
      "v": 58
    },
    {
      "midi": 56,
      "hit": false,
      "t": 102471.71200000007,
      "d": 3820.217333333334,
      "v": 70
    },
    {
      "midi": 59,
      "hit": false,
      "t": 102471.71200000007,
      "d": 3820.217333333334,
      "v": 70
    },
    {
      "midi": 64,
      "hit": false,
      "t": 102471.71200000007,
      "d": 3820.217333333334,
      "v": 70
    },
    {
      "midi": 40,
      "hit": false,
      "t": 102471.71200000007,
      "d": 5284.3998958333395,
      "v": 68
    },
    {
      "midi": 56,
      "hit": false,
      "t": 106966.08533333341,
      "d": 898.8746666666702,
      "v": 57
    },
    {
      "midi": 64,
      "hit": false,
      "t": 107190.80400000008,
      "d": 674.1560000000027,
      "v": 52
    },
    {
      "midi": 68,
      "hit": false,
      "t": 107640.24133333341,
      "d": 224.71866666666756,
      "v": 58
    },
    {
      "midi": 56,
      "hit": false,
      "t": 107864.96000000008,
      "d": 3820.217333333334,
      "v": 70
    },
    {
      "midi": 59,
      "hit": false,
      "t": 107864.96000000008,
      "d": 3820.217333333334,
      "v": 70
    },
    {
      "midi": 64,
      "hit": false,
      "t": 107864.96000000008,
      "d": 3820.217333333334,
      "v": 70
    },
    {
      "midi": 40,
      "hit": false,
      "t": 107864.96000000008,
      "d": 5284.3998958333395,
      "v": 68
    },
    {
      "midi": 56,
      "hit": false,
      "t": 112359.33333333342,
      "d": 898.8746666666702,
      "v": 57
    },
    {
      "midi": 64,
      "hit": false,
      "t": 112584.05200000008,
      "d": 674.1560000000027,
      "v": 52
    },
    {
      "midi": 68,
      "hit": false,
      "t": 113033.48933333342,
      "d": 224.71866666666756,
      "v": 58
    },
    {
      "midi": 57,
      "hit": false,
      "t": 113258.20800000009,
      "d": 3820.217333333334,
      "v": 70
    },
    {
      "midi": 61,
      "hit": false,
      "t": 113258.20800000009,
      "d": 3820.217333333334,
      "v": 70
    },
    {
      "midi": 64,
      "hit": false,
      "t": 113258.20800000009,
      "d": 3820.217333333334,
      "v": 70
    },
    {
      "midi": 45,
      "hit": false,
      "t": 113258.20800000009,
      "d": 5284.3998958333395,
      "v": 68
    },
    {
      "midi": 52,
      "hit": false,
      "t": 117752.58133333342,
      "d": 898.8746666666702,
      "v": 57
    },
    {
      "midi": 61,
      "hit": false,
      "t": 117977.30000000009,
      "d": 674.1560000000027,
      "v": 52
    },
    {
      "midi": 64,
      "hit": false,
      "t": 118426.73733333343,
      "d": 224.71866666666756,
      "v": 58
    },
    {
      "midi": 40,
      "hit": false,
      "t": 118651.4560000001,
      "d": 4252.0985208333295,
      "v": 57
    },
    {
      "midi": 56,
      "hit": false,
      "t": 118651.4560000001,
      "d": 4283.699583333335,
      "v": 49
    },
    {
      "midi": 64,
      "hit": false,
      "t": 118876.17466666676,
      "d": 4101.115666666665,
      "v": 57
    },
    {
      "midi": 68,
      "hit": false,
      "t": 119100.89333333343,
      "d": 3834.2622499999998,
      "v": 60
    },
    {
      "midi": 71,
      "hit": false,
      "t": 119325.6120000001,
      "d": 3623.588499999998,
      "v": 70
    },
    {
      "midi": 40,
      "hit": false,
      "t": 123145.82933333343,
      "d": 505.6170000000129,
      "v": 49
    },
    {
      "midi": 68,
      "hit": false,
      "t": 123370.5480000001,
      "d": 189.60637500000303,
      "v": 60
    },
    {
      "midi": 64,
      "hit": false,
      "t": 123370.5480000001,
      "d": 217.69620833333465,
      "v": 54
    },
    {
      "midi": 56,
      "hit": false,
      "t": 123370.5480000001,
      "d": 263.3421875000058,
      "v": 56
    },
    {
      "midi": 59,
      "hit": false,
      "t": 124044.70400000011,
      "d": 2050.557833333325,
      "v": 54
    },
    {
      "midi": 63,
      "hit": false,
      "t": 124044.70400000011,
      "d": 2176.962083333332,
      "v": 55
    },
    {
      "midi": 47,
      "hit": false,
      "t": 124044.70400000011,
      "d": 2696.623999999996,
      "v": 56
    },
    {
      "midi": 66,
      "hit": false,
      "t": 124044.70400000011,
      "d": 2696.623999999996,
      "v": 53
    },
    {
      "midi": 54,
      "hit": false,
      "t": 126067.17200000011,
      "d": 674.1560000000027,
      "v": 78
    },
    {
      "midi": 59,
      "hit": false,
      "t": 126291.89066666678,
      "d": 449.4373333333351,
      "v": 63
    },
    {
      "midi": 63,
      "hit": false,
      "t": 126516.60933333344,
      "d": 182.58391666667012,
      "v": 58
    },
    {
      "midi": 57,
      "hit": false,
      "t": 126741.32800000011,
      "d": 2050.557833333325,
      "v": 54
    },
    {
      "midi": 61,
      "hit": false,
      "t": 126741.32800000011,
      "d": 2176.962083333332,
      "v": 55
    },
    {
      "midi": 45,
      "hit": false,
      "t": 126741.32800000011,
      "d": 2696.623999999996,
      "v": 56
    },
    {
      "midi": 64,
      "hit": false,
      "t": 126741.32800000011,
      "d": 2696.623999999996,
      "v": 53
    },
    {
      "midi": 52,
      "hit": false,
      "t": 128763.7960000001,
      "d": 674.1560000000027,
      "v": 78
    },
    {
      "midi": 57,
      "hit": false,
      "t": 128988.51466666677,
      "d": 449.4373333333351,
      "v": 63
    },
    {
      "midi": 61,
      "hit": false,
      "t": 129213.23333333344,
      "d": 182.58391666667012,
      "v": 58
    },
    {
      "midi": 40,
      "hit": false,
      "t": 129662.67066666677,
      "d": 2222.608062500003,
      "v": 24
    },
    {
      "midi": 59,
      "hit": false,
      "t": 129887.38933333344,
      "d": 1867.9739166666695,
      "v": 64
    },
    {
      "midi": 56,
      "hit": false,
      "t": 129887.38933333344,
      "d": 2050.557833333325,
      "v": 74
    },
    {
      "midi": 64,
      "hit": false,
      "t": 130112.10800000011,
      "d": 1643.255250000002,
      "v": 70
    },
    {
      "midi": 68,
      "hit": false,
      "t": 130112.10800000011,
      "d": 1773.170729166668,
      "v": 68
    },
    {
      "midi": 47,
      "hit": false,
      "t": 132359.29466666677,
      "d": 2222.6080624999595,
      "v": 24
    },
    {
      "midi": 59,
      "hit": false,
      "t": 132584.01333333342,
      "d": 1867.9739166666404,
      "v": 64
    },
    {
      "midi": 57,
      "hit": false,
      "t": 132584.01333333342,
      "d": 2050.557833333296,
      "v": 74
    },
    {
      "midi": 63,
      "hit": false,
      "t": 132808.73200000008,
      "d": 1643.2552499999874,
      "v": 70
    },
    {
      "midi": 66,
      "hit": false,
      "t": 132808.73200000008,
      "d": 1773.1707291666535,
      "v": 68
    },
    {
      "midi": 76,
      "hit": false,
      "t": 134831.20000000004,
      "d": 5393.247999999963,
      "v": 61
    },
    {
      "midi": 68,
      "hit": false,
      "t": 135055.9186666667,
      "d": 2033.0016874999856,
      "v": 62
    },
    {
      "midi": 59,
      "hit": false,
      "t": 135505.35600000003,
      "d": 1573.0306666666584,
      "v": 51
    },
    {
      "midi": 56,
      "hit": false,
      "t": 137078.3866666667,
      "d": 3146.0613333333167,
      "v": 70
    },
    {
      "midi": 59,
      "hit": false,
      "t": 137303.10533333334,
      "d": 1896.063749999972,
      "v": 66
    },
    {
      "midi": 68,
      "hit": false,
      "t": 137527.824,
      "d": 2099.71504166667,
      "v": 51
    },
    {
      "midi": 59,
      "hit": false,
      "t": 139550.292,
      "d": 660.1110833333514,
      "v": 68
    },
    {
      "midi": 68,
      "hit": false,
      "t": 139775.01066666667,
      "d": 21.06737500001327,
      "v": 64
    },
    {
      "midi": 68,
      "hit": false,
      "t": 139999.72933333335,
      "d": 182.58391666665557,
      "v": 60
    },
    {
      "midi": 76,
      "hit": false,
      "t": 140224.448,
      "d": 5393.247999999963,
      "v": 61
    },
    {
      "midi": 68,
      "hit": false,
      "t": 140449.16666666666,
      "d": 2033.0016874999856,
      "v": 62
    },
    {
      "midi": 59,
      "hit": false,
      "t": 140898.604,
      "d": 1573.0306666666584,
      "v": 51
    },
    {
      "midi": 56,
      "hit": false,
      "t": 142471.63466666665,
      "d": 3146.0613333333167,
      "v": 70
    },
    {
      "midi": 59,
      "hit": false,
      "t": 142696.3533333333,
      "d": 1896.063749999972,
      "v": 66
    },
    {
      "midi": 68,
      "hit": false,
      "t": 142921.07199999996,
      "d": 2099.71504166667,
      "v": 51
    },
    {
      "midi": 59,
      "hit": false,
      "t": 144943.53999999995,
      "d": 660.1110833333514,
      "v": 68
    },
    {
      "midi": 68,
      "hit": false,
      "t": 145168.25866666663,
      "d": 21.06737500001327,
      "v": 64
    },
    {
      "midi": 68,
      "hit": false,
      "t": 145392.9773333333,
      "d": 182.58391666665557,
      "v": 60
    },
    {
      "midi": 73,
      "hit": false,
      "t": 145617.69599999997,
      "d": 5393.247999999963,
      "v": 61
    },
    {
      "midi": 64,
      "hit": false,
      "t": 145842.41466666662,
      "d": 2033.0016874999856,
      "v": 62
    },
    {
      "midi": 57,
      "hit": false,
      "t": 146291.85199999996,
      "d": 1573.0306666666584,
      "v": 51
    },
    {
      "midi": 52,
      "hit": false,
      "t": 147864.8826666666,
      "d": 3146.0613333333167,
      "v": 70
    },
    {
      "midi": 57,
      "hit": false,
      "t": 148089.60133333327,
      "d": 1896.063749999972,
      "v": 66
    },
    {
      "midi": 64,
      "hit": false,
      "t": 148314.31999999992,
      "d": 2099.71504166667,
      "v": 51
    },
    {
      "midi": 57,
      "hit": false,
      "t": 150336.7879999999,
      "d": 660.1110833333514,
      "v": 68
    },
    {
      "midi": 64,
      "hit": false,
      "t": 150561.5066666666,
      "d": 21.06737500001327,
      "v": 64
    },
    {
      "midi": 64,
      "hit": false,
      "t": 150786.22533333328,
      "d": 182.58391666665557,
      "v": 60
    },
    {
      "midi": 56,
      "hit": false,
      "t": 151010.94399999993,
      "d": 3820.217333333334,
      "v": 70
    },
    {
      "midi": 59,
      "hit": false,
      "t": 151010.94399999993,
      "d": 3820.217333333334,
      "v": 70
    },
    {
      "midi": 64,
      "hit": false,
      "t": 151010.94399999993,
      "d": 3820.217333333334,
      "v": 70
    },
    {
      "midi": 40,
      "hit": false,
      "t": 151010.94399999993,
      "d": 5284.39989583331,
      "v": 68
    },
    {
      "midi": 56,
      "hit": false,
      "t": 155505.31733333325,
      "d": 898.8746666666411,
      "v": 57
    },
    {
      "midi": 64,
      "hit": false,
      "t": 155730.0359999999,
      "d": 674.1559999999881,
      "v": 52
    },
    {
      "midi": 68,
      "hit": false,
      "t": 156179.47333333324,
      "d": 224.718666666653,
      "v": 58
    },
    {
      "midi": 47,
      "hit": false,
      "t": 156628.91066666655,
      "d": 2222.6080624999595,
      "v": 24
    },
    {
      "midi": 59,
      "hit": false,
      "t": 156853.6293333332,
      "d": 1867.9739166666404,
      "v": 64
    },
    {
      "midi": 54,
      "hit": false,
      "t": 156853.6293333332,
      "d": 2050.557833333296,
      "v": 74
    },
    {
      "midi": 63,
      "hit": false,
      "t": 157078.34799999985,
      "d": 1643.2552499999874,
      "v": 70
    },
    {
      "midi": 66,
      "hit": false,
      "t": 157078.34799999985,
      "d": 1773.1707291666535,
      "v": 68
    },
    {
      "midi": 57,
      "hit": false,
      "t": 159100.81599999982,
      "d": 2050.557833333325,
      "v": 54
    },
    {
      "midi": 61,
      "hit": false,
      "t": 159100.81599999982,
      "d": 2176.9620833333174,
      "v": 55
    },
    {
      "midi": 45,
      "hit": false,
      "t": 159100.81599999982,
      "d": 2696.6239999999525,
      "v": 56
    },
    {
      "midi": 64,
      "hit": false,
      "t": 159100.81599999982,
      "d": 2696.6239999999525,
      "v": 53
    },
    {
      "midi": 52,
      "hit": false,
      "t": 161123.2839999998,
      "d": 674.155999999959,
      "v": 78
    },
    {
      "midi": 57,
      "hit": false,
      "t": 161348.00266666646,
      "d": 449.437333333306,
      "v": 63
    },
    {
      "midi": 61,
      "hit": false,
      "t": 161572.72133333312,
      "d": 182.58391666665557,
      "v": 58
    },
    {
      "midi": 59,
      "hit": false,
      "t": 161797.43999999977,
      "d": 2050.557833333325,
      "v": 54
    },
    {
      "midi": 64,
      "hit": false,
      "t": 161797.43999999977,
      "d": 2176.9620833333174,
      "v": 55
    },
    {
      "midi": 40,
      "hit": false,
      "t": 161797.43999999977,
      "d": 2696.6239999999525,
      "v": 56
    },
    {
      "midi": 68,
      "hit": false,
      "t": 161797.43999999977,
      "d": 2696.6239999999525,
      "v": 53
    },
    {
      "midi": 56,
      "hit": false,
      "t": 163819.90799999976,
      "d": 674.155999999959,
      "v": 78
    },
    {
      "midi": 59,
      "hit": false,
      "t": 164044.62666666642,
      "d": 449.437333333306,
      "v": 63
    },
    {
      "midi": 64,
      "hit": false,
      "t": 164269.34533333307,
      "d": 182.58391666665557,
      "v": 58
    },
    {
      "midi": 59,
      "hit": false,
      "t": 164494.06399999972,
      "d": 2050.557833333325,
      "v": 54
    },
    {
      "midi": 64,
      "hit": false,
      "t": 164494.06399999972,
      "d": 2176.9620833333174,
      "v": 55
    },
    {
      "midi": 40,
      "hit": false,
      "t": 164494.06399999972,
      "d": 2696.6239999999525,
      "v": 56
    },
    {
      "midi": 68,
      "hit": false,
      "t": 164494.06399999972,
      "d": 2696.6239999999525,
      "v": 53
    },
    {
      "midi": 56,
      "hit": false,
      "t": 166516.53199999972,
      "d": 674.155999999959,
      "v": 78
    },
    {
      "midi": 59,
      "hit": false,
      "t": 166741.25066666637,
      "d": 449.437333333306,
      "v": 63
    },
    {
      "midi": 64,
      "hit": false,
      "t": 166965.96933333302,
      "d": 182.58391666665557,
      "v": 58
    },
    {
      "midi": 56,
      "hit": false,
      "t": 167190.68799999967,
      "d": 2840.5843958333426,
      "v": 51
    },
    {
      "midi": 59,
      "hit": false,
      "t": 167190.68799999967,
      "d": 3117.971500000014,
      "v": 52
    },
    {
      "midi": 64,
      "hit": false,
      "t": 167190.68799999967,
      "d": 3121.482729166688,
      "v": 57
    },
    {
      "midi": 68,
      "hit": false,
      "t": 167190.68799999967,
      "d": 3121.482729166688,
      "v": 60
    },
    {
      "midi": 56,
      "hit": false,
      "t": 170561.4679999997,
      "d": 172.05022916666348,
      "v": 91
    },
    {
      "midi": 59,
      "hit": false,
      "t": 170786.18666666636,
      "d": 245.78604166666628,
      "v": 66
    },
    {
      "midi": 64,
      "hit": false,
      "t": 171010.905333333,
      "d": 161.5165416666714,
      "v": 68
    },
    {
      "midi": 64,
      "hit": false,
      "t": 171235.6239999997,
      "d": 115.87056250000023,
      "v": 68
    },
    {
      "midi": 56,
      "hit": false,
      "t": 171235.6239999997,
      "d": 200.1400624999951,
      "v": 68
    },
    {
      "midi": 59,
      "hit": false,
      "t": 171235.6239999997,
      "d": 200.1400624999951,
      "v": 80
    },
    {
      "midi": 68,
      "hit": false,
      "t": 171235.6239999997,
      "d": 200.1400624999951,
      "v": 76
    }
  ]
}