{
  "jsonPath": "Soundtracks/Video Game Music/Mega Man X/mega-man-x-command-mission-redipsmovement.json",
  "path": "Soundtracks\\Video Game Music\\Mega Man X\\Mega_Man_X_Command_Mission_RedipsMovement.mid",
  "name": "Mega_Man_X_Command_Mission_RedipsMovement",
  "difficulty": "Advanced",
  "bpm": 90.00009000009,
  "notes": [
    {
      "midi": 49,
      "hit": false,
      "t": 0,
      "d": 499.9995,
      "v": 127
    },
    {
      "midi": 35,
      "hit": false,
      "t": 0,
      "d": 499.9995,
      "v": 127
    },
    {
      "midi": 44,
      "hit": false,
      "t": 0,
      "d": 499.9995,
      "v": 127
    },
    {
      "midi": 50,
      "hit": false,
      "t": 499.9995,
      "d": 499.9995,
      "v": 127
    },
    {
      "midi": 36,
      "hit": false,
      "t": 499.9995,
      "d": 499.9995,
      "v": 127
    },
    {
      "midi": 45,
      "hit": false,
      "t": 499.9995,
      "d": 499.9995,
      "v": 127
    },
    {
      "midi": 49,
      "hit": false,
      "t": 999.999,
      "d": 499.9995000000001,
      "v": 127
    },
    {
      "midi": 35,
      "hit": false,
      "t": 999.999,
      "d": 499.9995000000001,
      "v": 127
    },
    {
      "midi": 44,
      "hit": false,
      "t": 999.999,
      "d": 499.9995000000001,
      "v": 127
    },
    {
      "midi": 50,
      "hit": false,
      "t": 1499.9985000000001,
      "d": 499.9994999999999,
      "v": 127
    },
    {
      "midi": 36,
      "hit": false,
      "t": 1499.9985000000001,
      "d": 499.9994999999999,
      "v": 127
    },
    {
      "midi": 45,
      "hit": false,
      "t": 1499.9985000000001,
      "d": 499.9994999999999,
      "v": 127
    },
    {
      "midi": 47,
      "hit": false,
      "t": 1999.998,
      "d": 333.3330000000001,
      "v": 127
    },
    {
      "midi": 33,
      "hit": false,
      "t": 1999.998,
      "d": 333.3330000000001,
      "v": 127
    },
    {
      "midi": 42,
      "hit": false,
      "t": 1999.998,
      "d": 333.3330000000001,
      "v": 127
    },
    {
      "midi": 49,
      "hit": false,
      "t": 2333.331,
      "d": 499.9994999999999,
      "v": 127
    },
    {
      "midi": 35,
      "hit": false,
      "t": 2333.331,
      "d": 499.9994999999999,
      "v": 127
    },
    {
      "midi": 44,
      "hit": false,
      "t": 2333.331,
      "d": 499.9994999999999,
      "v": 127
    },
    {
      "midi": 50,
      "hit": false,
      "t": 2833.3305,
      "d": 499.9994999999999,
      "v": 127
    },
    {
      "midi": 36,
      "hit": false,
      "t": 2833.3305,
      "d": 499.9994999999999,
      "v": 127
    },
    {
      "midi": 45,
      "hit": false,
      "t": 2833.3305,
      "d": 499.9994999999999,
      "v": 127
    },
    {
      "midi": 49,
      "hit": false,
      "t": 3333.33,
      "d": 499.9994999999999,
      "v": 127
    },
    {
      "midi": 35,
      "hit": false,
      "t": 3333.33,
      "d": 499.9994999999999,
      "v": 127
    },
    {
      "midi": 44,
      "hit": false,
      "t": 3333.33,
      "d": 499.9994999999999,
      "v": 127
    },
    {
      "midi": 50,
      "hit": false,
      "t": 3833.3295,
      "d": 499.9994999999999,
      "v": 127
    },
    {
      "midi": 36,
      "hit": false,
      "t": 3833.3295,
      "d": 499.9994999999999,
      "v": 127
    },
    {
      "midi": 45,
      "hit": false,
      "t": 3833.3295,
      "d": 499.9994999999999,
      "v": 127
    },
    {
      "midi": 52,
      "hit": false,
      "t": 4333.329,
      "d": 333.33299999999963,
      "v": 127
    },
    {
      "midi": 38,
      "hit": false,
      "t": 4333.329,
      "d": 333.33299999999963,
      "v": 127
    },
    {
      "midi": 47,
      "hit": false,
      "t": 4333.329,
      "d": 333.33299999999963,
      "v": 127
    },
    {
      "midi": 49,
      "hit": false,
      "t": 4666.661999999999,
      "d": 499.9994999999999,
      "v": 127
    },
    {
      "midi": 35,
      "hit": false,
      "t": 4666.661999999999,
      "d": 499.9994999999999,
      "v": 127
    },
    {
      "midi": 44,
      "hit": false,
      "t": 4666.661999999999,
      "d": 499.9994999999999,
      "v": 127
    },
    {
      "midi": 50,
      "hit": false,
      "t": 5166.661499999999,
      "d": 499.9994999999999,
      "v": 127
    },
    {
      "midi": 36,
      "hit": false,
      "t": 5166.661499999999,
      "d": 499.9994999999999,
      "v": 127
    },
    {
      "midi": 45,
      "hit": false,
      "t": 5166.661499999999,
      "d": 499.9994999999999,
      "v": 127
    },
    {
      "midi": 49,
      "hit": false,
      "t": 5666.660999999999,
      "d": 499.9994999999999,
      "v": 127
    },
    {
      "midi": 35,
      "hit": false,
      "t": 5666.660999999999,
      "d": 499.9994999999999,
      "v": 127
    },
    {
      "midi": 44,
      "hit": false,
      "t": 5666.660999999999,
      "d": 499.9994999999999,
      "v": 127
    },
    {
      "midi": 50,
      "hit": false,
      "t": 6166.660499999999,
      "d": 499.9994999999999,
      "v": 127
    },
    {
      "midi": 36,
      "hit": false,
      "t": 6166.660499999999,
      "d": 499.9994999999999,
      "v": 127
    },
    {
      "midi": 45,
      "hit": false,
      "t": 6166.660499999999,
      "d": 499.9994999999999,
      "v": 127
    },
    {
      "midi": 47,
      "hit": false,
      "t": 6666.659999999999,
      "d": 333.33299999999963,
      "v": 127
    },
    {
      "midi": 33,
      "hit": false,
      "t": 6666.659999999999,
      "d": 333.33299999999963,
      "v": 127
    },
    {
      "midi": 42,
      "hit": false,
      "t": 6666.659999999999,
      "d": 333.33299999999963,
      "v": 127
    },
    {
      "midi": 49,
      "hit": false,
      "t": 6999.992999999999,
      "d": 499.9994999999999,
      "v": 127
    },
    {
      "midi": 35,
      "hit": false,
      "t": 6999.992999999999,
      "d": 499.9994999999999,
      "v": 127
    },
    {
      "midi": 44,
      "hit": false,
      "t": 6999.992999999999,
      "d": 499.9994999999999,
      "v": 127
    },
    {
      "midi": 50,
      "hit": false,
      "t": 7499.9924999999985,
      "d": 499.9994999999999,
      "v": 127
    },
    {
      "midi": 36,
      "hit": false,
      "t": 7499.9924999999985,
      "d": 499.9994999999999,
      "v": 127
    },
    {
      "midi": 45,
      "hit": false,
      "t": 7499.9924999999985,
      "d": 499.9994999999999,
      "v": 127
    },
    {
      "midi": 49,
      "hit": false,
      "t": 7999.991999999998,
      "d": 499.9994999999999,
      "v": 127
    },
    {
      "midi": 35,
      "hit": false,
      "t": 7999.991999999998,
      "d": 499.9994999999999,
      "v": 127
    },
    {
      "midi": 44,
      "hit": false,
      "t": 7999.991999999998,
      "d": 499.9994999999999,
      "v": 127
    },
    {
      "midi": 50,
      "hit": false,
      "t": 8499.991499999998,
      "d": 499.9994999999999,
      "v": 127
    },
    {
      "midi": 36,
      "hit": false,
      "t": 8499.991499999998,
      "d": 499.9994999999999,
      "v": 127
    },
    {
      "midi": 45,
      "hit": false,
      "t": 8499.991499999998,
      "d": 499.9994999999999,
      "v": 127
    },
    {
      "midi": 52,
      "hit": false,
      "t": 8999.990999999998,
      "d": 333.33300000000054,
      "v": 127
    },
    {
      "midi": 38,
      "hit": false,
      "t": 8999.990999999998,
      "d": 333.33300000000054,
      "v": 127
    },
    {
      "midi": 47,
      "hit": false,
      "t": 8999.990999999998,
      "d": 333.33300000000054,
      "v": 127
    },
    {
      "midi": 49,
      "hit": false,
      "t": 9333.323999999999,
      "d": 499.9994999999999,
      "v": 127
    },
    {
      "midi": 35,
      "hit": false,
      "t": 9333.323999999999,
      "d": 499.9994999999999,
      "v": 127
    },
    {
      "midi": 44,
      "hit": false,
      "t": 9333.323999999999,
      "d": 499.9994999999999,
      "v": 127
    },
    {
      "midi": 50,
      "hit": false,
      "t": 9833.323499999999,
      "d": 499.9994999999999,
      "v": 127
    },
    {
      "midi": 36,
      "hit": false,
      "t": 9833.323499999999,
      "d": 499.9994999999999,
      "v": 127
    },
    {
      "midi": 45,
      "hit": false,
      "t": 9833.323499999999,
      "d": 499.9994999999999,
      "v": 127
    },
    {
      "midi": 49,
      "hit": false,
      "t": 10333.322999999999,
      "d": 499.9994999999999,
      "v": 127
    },
    {
      "midi": 35,
      "hit": false,
      "t": 10333.322999999999,
      "d": 499.9994999999999,
      "v": 127
    },
    {
      "midi": 44,
      "hit": false,
      "t": 10333.322999999999,
      "d": 499.9994999999999,
      "v": 127
    },
    {
      "midi": 50,
      "hit": false,
      "t": 10833.322499999998,
      "d": 499.9994999999999,
      "v": 127
    },
    {
      "midi": 36,
      "hit": false,
      "t": 10833.322499999998,
      "d": 499.9994999999999,
      "v": 127
    },
    {
      "midi": 45,
      "hit": false,
      "t": 10833.322499999998,
      "d": 499.9994999999999,
      "v": 127
    },
    {
      "midi": 47,
      "hit": false,
      "t": 11333.321999999998,
      "d": 333.33300000000054,
      "v": 127
    },
    {
      "midi": 33,
      "hit": false,
      "t": 11333.321999999998,
      "d": 333.33300000000054,
      "v": 127
    },
    {
      "midi": 42,
      "hit": false,
      "t": 11333.321999999998,
      "d": 333.33300000000054,
      "v": 127
    },
    {
      "midi": 49,
      "hit": false,
      "t": 11666.654999999999,
      "d": 499.9994999999999,
      "v": 127
    },
    {
      "midi": 35,
      "hit": false,
      "t": 11666.654999999999,
      "d": 499.9994999999999,
      "v": 127
    },
    {
      "midi": 44,
      "hit": false,
      "t": 11666.654999999999,
      "d": 499.9994999999999,
      "v": 127
    },
    {
      "midi": 50,
      "hit": false,
      "t": 12166.654499999999,
      "d": 499.9994999999999,
      "v": 127
    },
    {
      "midi": 36,
      "hit": false,
      "t": 12166.654499999999,
      "d": 499.9994999999999,
      "v": 127
    },
    {
      "midi": 45,
      "hit": false,
      "t": 12166.654499999999,
      "d": 499.9994999999999,
      "v": 127
    },
    {
      "midi": 49,
      "hit": false,
      "t": 12666.653999999999,
      "d": 499.9994999999999,
      "v": 127
    },
    {
      "midi": 35,
      "hit": false,
      "t": 12666.653999999999,
      "d": 499.9994999999999,
      "v": 127
    },
    {
      "midi": 44,
      "hit": false,
      "t": 12666.653999999999,
      "d": 499.9994999999999,
      "v": 127
    },
    {
      "midi": 50,
      "hit": false,
      "t": 13166.653499999999,
      "d": 499.9994999999999,
      "v": 127
    },
    {
      "midi": 36,
      "hit": false,
      "t": 13166.653499999999,
      "d": 499.9994999999999,
      "v": 127
    },
    {
      "midi": 45,
      "hit": false,
      "t": 13166.653499999999,
      "d": 499.9994999999999,
      "v": 127
    },
    {
      "midi": 52,
      "hit": false,
      "t": 13666.652999999998,
      "d": 333.33300000000054,
      "v": 127
    },
    {
      "midi": 38,
      "hit": false,
      "t": 13666.652999999998,
      "d": 333.33300000000054,
      "v": 127
    },
    {
      "midi": 47,
      "hit": false,
      "t": 13666.652999999998,
      "d": 333.33300000000054,
      "v": 127
    },
    {
      "midi": 49,
      "hit": false,
      "t": 13999.985999999999,
      "d": 499.9994999999999,
      "v": 127
    },
    {
      "midi": 35,
      "hit": false,
      "t": 13999.985999999999,
      "d": 499.9994999999999,
      "v": 127
    },
    {
      "midi": 44,
      "hit": false,
      "t": 13999.985999999999,
      "d": 499.9994999999999,
      "v": 127
    },
    {
      "midi": 50,
      "hit": false,
      "t": 14499.985499999999,
      "d": 499.9994999999999,
      "v": 127
    },
    {
      "midi": 36,
      "hit": false,
      "t": 14499.985499999999,
      "d": 499.9994999999999,
      "v": 127
    },
    {
      "midi": 45,
      "hit": false,
      "t": 14499.985499999999,
      "d": 499.9994999999999,
      "v": 127
    },
    {
      "midi": 49,
      "hit": false,
      "t": 14999.984999999999,
      "d": 499.9994999999999,
      "v": 127
    },
    {
      "midi": 35,
      "hit": false,
      "t": 14999.984999999999,
      "d": 499.9994999999999,
      "v": 127
    },
    {
      "midi": 44,
      "hit": false,
      "t": 14999.984999999999,
      "d": 499.9994999999999,
      "v": 127
    },
    {
      "midi": 50,
      "hit": false,
      "t": 15499.984499999999,
      "d": 499.9994999999999,
      "v": 127
    },
    {
      "midi": 36,
      "hit": false,
      "t": 15499.984499999999,
      "d": 499.9994999999999,
      "v": 127
    },
    {
      "midi": 45,
      "hit": false,
      "t": 15499.984499999999,
      "d": 499.9994999999999,
      "v": 127
    },
    {
      "midi": 47,
      "hit": false,
      "t": 15999.983999999999,
      "d": 333.33300000000054,
      "v": 127
    },
    {
      "midi": 33,
      "hit": false,
      "t": 15999.983999999999,
      "d": 333.33300000000054,
      "v": 127
    },
    {
      "midi": 42,
      "hit": false,
      "t": 15999.983999999999,
      "d": 333.33300000000054,
      "v": 127
    },
    {
      "midi": 49,
      "hit": false,
      "t": 16333.317,
      "d": 499.9995000000017,
      "v": 127
    },
    {
      "midi": 35,
      "hit": false,
      "t": 16333.317,
      "d": 499.9995000000017,
      "v": 127
    },
    {
      "midi": 44,
      "hit": false,
      "t": 16333.317,
      "d": 499.9995000000017,
      "v": 127
    },
    {
      "midi": 50,
      "hit": false,
      "t": 16833.3165,
      "d": 499.9995000000017,
      "v": 127
    },
    {
      "midi": 36,
      "hit": false,
      "t": 16833.3165,
      "d": 499.9995000000017,
      "v": 127
    },
    {
      "midi": 45,
      "hit": false,
      "t": 16833.3165,
      "d": 499.9995000000017,
      "v": 127
    },
    {
      "midi": 49,
      "hit": false,
      "t": 17333.316000000003,
      "d": 499.9995000000017,
      "v": 127
    },
    {
      "midi": 35,
      "hit": false,
      "t": 17333.316000000003,
      "d": 499.9995000000017,
      "v": 127
    },
    {
      "midi": 44,
      "hit": false,
      "t": 17333.316000000003,
      "d": 499.9995000000017,
      "v": 127
    },
    {
      "midi": 50,
      "hit": false,
      "t": 17833.315500000004,
      "d": 499.9995000000017,
      "v": 127
    },
    {
      "midi": 36,
      "hit": false,
      "t": 17833.315500000004,
      "d": 499.9995000000017,
      "v": 127
    },
    {
      "midi": 45,
      "hit": false,
      "t": 17833.315500000004,
      "d": 499.9995000000017,
      "v": 127
    },
    {
      "midi": 52,
      "hit": false,
      "t": 18333.315000000006,
      "d": 333.3329999999987,
      "v": 127
    },
    {
      "midi": 38,
      "hit": false,
      "t": 18333.315000000006,
      "d": 333.3329999999987,
      "v": 127
    },
    {
      "midi": 47,
      "hit": false,
      "t": 18333.315000000006,
      "d": 333.3329999999987,
      "v": 127
    },
    {
      "midi": 56,
      "hit": false,
      "t": 18666.648,
      "d": 2333.3309999999983,
      "v": 127
    },
    {
      "midi": 52,
      "hit": false,
      "t": 18666.648,
      "d": 2333.3309999999983,
      "v": 127
    },
    {
      "midi": 49,
      "hit": false,
      "t": 18666.648000000005,
      "d": 499.9995000000017,
      "v": 127
    },
    {
      "midi": 35,
      "hit": false,
      "t": 18666.648000000005,
      "d": 499.9995000000017,
      "v": 127
    },
    {
      "midi": 44,
      "hit": false,
      "t": 18666.648000000005,
      "d": 499.9995000000017,
      "v": 127
    },
    {
      "midi": 50,
      "hit": false,
      "t": 19166.647500000006,
      "d": 499.9995000000017,
      "v": 127
    },
    {
      "midi": 36,
      "hit": false,
      "t": 19166.647500000006,
      "d": 499.9995000000017,
      "v": 127
    },
    {
      "midi": 45,
      "hit": false,
      "t": 19166.647500000006,
      "d": 499.9995000000017,
      "v": 127
    },
    {
      "midi": 49,
      "hit": false,
      "t": 19666.647000000008,
      "d": 499.9995000000017,
      "v": 127
    },
    {
      "midi": 35,
      "hit": false,
      "t": 19666.647000000008,
      "d": 499.9995000000017,
      "v": 127
    },
    {
      "midi": 44,
      "hit": false,
      "t": 19666.647000000008,
      "d": 499.9995000000017,
      "v": 127
    },
    {
      "midi": 50,
      "hit": false,
      "t": 20166.64650000001,
      "d": 499.9995000000017,
      "v": 127
    },
    {
      "midi": 36,
      "hit": false,
      "t": 20166.64650000001,
      "d": 499.9995000000017,
      "v": 127
    },
    {
      "midi": 45,
      "hit": false,
      "t": 20166.64650000001,
      "d": 499.9995000000017,
      "v": 127
    },
    {
      "midi": 47,
      "hit": false,
      "t": 20666.64600000001,
      "d": 333.3329999999987,
      "v": 127
    },
    {
      "midi": 33,
      "hit": false,
      "t": 20666.64600000001,
      "d": 333.3329999999987,
      "v": 127
    },
    {
      "midi": 42,
      "hit": false,
      "t": 20666.64600000001,
      "d": 333.3329999999987,
      "v": 127
    },
    {
      "midi": 57,
      "hit": false,
      "t": 20999.979,
      "d": 2333.3309999999983,
      "v": 127
    },
    {
      "midi": 53,
      "hit": false,
      "t": 20999.979,
      "d": 2333.3309999999983,
      "v": 127
    },
    {
      "midi": 49,
      "hit": false,
      "t": 20999.97900000001,
      "d": 499.9995000000017,
      "v": 127
    },
    {
      "midi": 35,
      "hit": false,
      "t": 20999.97900000001,
      "d": 499.9995000000017,
      "v": 127
    },
    {
      "midi": 44,
      "hit": false,
      "t": 20999.97900000001,
      "d": 499.9995000000017,
      "v": 127
    },
    {
      "midi": 50,
      "hit": false,
      "t": 21499.978500000012,
      "d": 499.9995000000017,
      "v": 127
    },
    {
      "midi": 36,
      "hit": false,
      "t": 21499.978500000012,
      "d": 499.9995000000017,
      "v": 127
    },
    {
      "midi": 45,
      "hit": false,
      "t": 21499.978500000012,
      "d": 499.9995000000017,
      "v": 127
    },
    {
      "midi": 49,
      "hit": false,
      "t": 21999.978000000014,
      "d": 499.9995000000017,
      "v": 127
    },
    {
      "midi": 35,
      "hit": false,
      "t": 21999.978000000014,
      "d": 499.9995000000017,
      "v": 127
    },
    {
      "midi": 44,
      "hit": false,
      "t": 21999.978000000014,
      "d": 499.9995000000017,
      "v": 127
    },
    {
      "midi": 50,
      "hit": false,
      "t": 22499.977500000015,
      "d": 499.9995000000017,
      "v": 127
    },
    {
      "midi": 36,
      "hit": false,
      "t": 22499.977500000015,
      "d": 499.9995000000017,
      "v": 127
    },
    {
      "midi": 45,
      "hit": false,
      "t": 22499.977500000015,
      "d": 499.9995000000017,
      "v": 127
    },
    {
      "midi": 52,
      "hit": false,
      "t": 22999.977000000017,
      "d": 333.3329999999987,
      "v": 127
    },
    {
      "midi": 38,
      "hit": false,
      "t": 22999.977000000017,
      "d": 333.3329999999987,
      "v": 127
    },
    {
      "midi": 47,
      "hit": false,
      "t": 22999.977000000017,
      "d": 333.3329999999987,
      "v": 127
    },
    {
      "midi": 59,
      "hit": false,
      "t": 23333.309999999998,
      "d": 2333.3309999999983,
      "v": 127
    },
    {
      "midi": 55,
      "hit": false,
      "t": 23333.309999999998,
      "d": 2333.3309999999983,
      "v": 127
    },
    {
      "midi": 49,
      "hit": false,
      "t": 23333.310000000016,
      "d": 499.9995000000017,
      "v": 127
    },
    {
      "midi": 35,
      "hit": false,
      "t": 23333.310000000016,
      "d": 499.9995000000017,
      "v": 127
    },
    {
      "midi": 44,
      "hit": false,
      "t": 23333.310000000016,
      "d": 499.9995000000017,
      "v": 127
    },
    {
      "midi": 50,
      "hit": false,
      "t": 23833.309500000018,
      "d": 499.9995000000017,
      "v": 127
    },
    {
      "midi": 36,
      "hit": false,
      "t": 23833.309500000018,
      "d": 499.9995000000017,
      "v": 127
    },
    {
      "midi": 45,
      "hit": false,
      "t": 23833.309500000018,
      "d": 499.9995000000017,
      "v": 127
    },
    {
      "midi": 49,
      "hit": false,
      "t": 24333.30900000002,
      "d": 499.9995000000017,
      "v": 127
    },
    {
      "midi": 35,
      "hit": false,
      "t": 24333.30900000002,
      "d": 499.9995000000017,
      "v": 127
    },
    {
      "midi": 44,
      "hit": false,
      "t": 24333.30900000002,
      "d": 499.9995000000017,
      "v": 127
    },
    {
      "midi": 50,
      "hit": false,
      "t": 24833.30850000002,
      "d": 499.9995000000017,
      "v": 127
    },
    {
      "midi": 36,
      "hit": false,
      "t": 24833.30850000002,
      "d": 499.9995000000017,
      "v": 127
    },
    {
      "midi": 45,
      "hit": false,
      "t": 24833.30850000002,
      "d": 499.9995000000017,
      "v": 127
    },
    {
      "midi": 47,
      "hit": false,
      "t": 25333.308000000023,
      "d": 333.3329999999987,
      "v": 127
    },
    {
      "midi": 33,
      "hit": false,
      "t": 25333.308000000023,
      "d": 333.3329999999987,
      "v": 127
    },
    {
      "midi": 42,
      "hit": false,
      "t": 25333.308000000023,
      "d": 333.3329999999987,
      "v": 127
    },
    {
      "midi": 57,
      "hit": false,
      "t": 25666.640999999996,
      "d": 2333.3309999999983,
      "v": 127
    },
    {
      "midi": 53,
      "hit": false,
      "t": 25666.640999999996,
      "d": 2333.3309999999983,
      "v": 127
    },
    {
      "midi": 49,
      "hit": false,
      "t": 25666.64100000002,
      "d": 499.9995000000017,
      "v": 127
    },
    {
      "midi": 35,
      "hit": false,
      "t": 25666.64100000002,
      "d": 499.9995000000017,
      "v": 127
    },
    {
      "midi": 44,
      "hit": false,
      "t": 25666.64100000002,
      "d": 499.9995000000017,
      "v": 127
    },
    {
      "midi": 50,
      "hit": false,
      "t": 26166.640500000023,
      "d": 499.9995000000017,
      "v": 127
    },
    {
      "midi": 36,
      "hit": false,
      "t": 26166.640500000023,
      "d": 499.9995000000017,
      "v": 127
    },
    {
      "midi": 45,
      "hit": false,
      "t": 26166.640500000023,
      "d": 499.9995000000017,
      "v": 127
    },
    {
      "midi": 49,
      "hit": false,
      "t": 26666.640000000025,
      "d": 499.9995000000017,
      "v": 127
    },
    {
      "midi": 35,
      "hit": false,
      "t": 26666.640000000025,
      "d": 499.9995000000017,
      "v": 127
    },
    {
      "midi": 44,
      "hit": false,
      "t": 26666.640000000025,
      "d": 499.9995000000017,
      "v": 127
    },
    {
      "midi": 50,
      "hit": false,
      "t": 27166.639500000027,
      "d": 499.9995000000017,
      "v": 127
    },
    {
      "midi": 36,
      "hit": false,
      "t": 27166.639500000027,
      "d": 499.9995000000017,
      "v": 127
    },
    {
      "midi": 45,
      "hit": false,
      "t": 27166.639500000027,
      "d": 499.9995000000017,
      "v": 127
    },
    {
      "midi": 52,
      "hit": false,
      "t": 27666.63900000003,
      "d": 333.3329999999987,
      "v": 127
    },
    {
      "midi": 38,
      "hit": false,
      "t": 27666.63900000003,
      "d": 333.3329999999987,
      "v": 127
    },
    {
      "midi": 47,
      "hit": false,
      "t": 27666.63900000003,
      "d": 333.3329999999987,
      "v": 127
    },
    {
      "midi": 56,
      "hit": false,
      "t": 27999.971999999994,
      "d": 2333.3309999999983,
      "v": 127
    },
    {
      "midi": 52,
      "hit": false,
      "t": 27999.971999999994,
      "d": 2333.3309999999983,
      "v": 127
    },
    {
      "midi": 49,
      "hit": false,
      "t": 27999.972000000027,
      "d": 499.9995000000017,
      "v": 127
    },
    {
      "midi": 35,
      "hit": false,
      "t": 27999.972000000027,
      "d": 499.9995000000017,
      "v": 127
    },
    {
      "midi": 44,
      "hit": false,
      "t": 27999.972000000027,
      "d": 499.9995000000017,
      "v": 127
    },
    {
      "midi": 50,
      "hit": false,
      "t": 28499.97150000003,
      "d": 499.9995000000017,
      "v": 127
    },
    {
      "midi": 36,
      "hit": false,
      "t": 28499.97150000003,
      "d": 499.9995000000017,
      "v": 127
    },
    {
      "midi": 45,
      "hit": false,
      "t": 28499.97150000003,
      "d": 499.9995000000017,
      "v": 127
    },
    {
      "midi": 49,
      "hit": false,
      "t": 28999.97100000003,
      "d": 499.9995000000017,
      "v": 127
    },
    {
      "midi": 35,
      "hit": false,
      "t": 28999.97100000003,
      "d": 499.9995000000017,
      "v": 127
    },
    {
      "midi": 44,
      "hit": false,
      "t": 28999.97100000003,
      "d": 499.9995000000017,
      "v": 127
    },
    {
      "midi": 50,
      "hit": false,
      "t": 29499.970500000032,
      "d": 499.9995000000017,
      "v": 127
    },
    {
      "midi": 36,
      "hit": false,
      "t": 29499.970500000032,
      "d": 499.9995000000017,
      "v": 127
    },
    {
      "midi": 45,
      "hit": false,
      "t": 29499.970500000032,
      "d": 499.9995000000017,
      "v": 127
    },
    {
      "midi": 47,
      "hit": false,
      "t": 29999.970000000034,
      "d": 333.3329999999987,
      "v": 127
    },
    {
      "midi": 33,
      "hit": false,
      "t": 29999.970000000034,
      "d": 333.3329999999987,
      "v": 127
    },
    {
      "midi": 42,
      "hit": false,
      "t": 29999.970000000034,
      "d": 333.3329999999987,
      "v": 127
    },
    {
      "midi": 57,
      "hit": false,
      "t": 30333.302999999993,
      "d": 2333.3309999999983,
      "v": 127
    },
    {
      "midi": 53,
      "hit": false,
      "t": 30333.302999999993,
      "d": 2333.3309999999983,
      "v": 127
    },
    {
      "midi": 49,
      "hit": false,
      "t": 30333.303000000033,
      "d": 499.9995000000017,
      "v": 127
    },
    {
      "midi": 35,
      "hit": false,
      "t": 30333.303000000033,
      "d": 499.9995000000017,
      "v": 127
    },
    {
      "midi": 44,
      "hit": false,
      "t": 30333.303000000033,
      "d": 499.9995000000017,
      "v": 127
    },
    {
      "midi": 50,
      "hit": false,
      "t": 30833.302500000034,
      "d": 499.9995000000017,
      "v": 127
    },
    {
      "midi": 36,
      "hit": false,
      "t": 30833.302500000034,
      "d": 499.9995000000017,
      "v": 127
    },
    {
      "midi": 45,
      "hit": false,
      "t": 30833.302500000034,
      "d": 499.9995000000017,
      "v": 127
    },
    {
      "midi": 49,
      "hit": false,
      "t": 31333.302000000036,
      "d": 499.9995000000017,
      "v": 127
    },
    {
      "midi": 35,
      "hit": false,
      "t": 31333.302000000036,
      "d": 499.9995000000017,
      "v": 127
    },
    {
      "midi": 44,
      "hit": false,
      "t": 31333.302000000036,
      "d": 499.9995000000017,
      "v": 127
    },
    {
      "midi": 50,
      "hit": false,
      "t": 31833.301500000038,
      "d": 499.9995000000017,
      "v": 127
    },
    {
      "midi": 36,
      "hit": false,
      "t": 31833.301500000038,
      "d": 499.9995000000017,
      "v": 127
    },
    {
      "midi": 45,
      "hit": false,
      "t": 31833.301500000038,
      "d": 499.9995000000017,
      "v": 127
    },
    {
      "midi": 52,
      "hit": false,
      "t": 32333.30100000004,
      "d": 333.3329999999987,
      "v": 127
    },
    {
      "midi": 38,
      "hit": false,
      "t": 32333.30100000004,
      "d": 333.3329999999987,
      "v": 127
    },
    {
      "midi": 47,
      "hit": false,
      "t": 32333.30100000004,
      "d": 333.3329999999987,
      "v": 127
    },
    {
      "midi": 59,
      "hit": false,
      "t": 32666.63399999999,
      "d": 2333.3309999999983,
      "v": 127
    },
    {
      "midi": 55,
      "hit": false,
      "t": 32666.63399999999,
      "d": 2333.3309999999983,
      "v": 127
    },
    {
      "midi": 49,
      "hit": false,
      "t": 32666.63400000004,
      "d": 499.9995000000017,
      "v": 127
    },
    {
      "midi": 35,
      "hit": false,
      "t": 32666.63400000004,
      "d": 499.9995000000017,
      "v": 127
    },
    {
      "midi": 44,
      "hit": false,
      "t": 32666.63400000004,
      "d": 499.9995000000017,
      "v": 127
    },
    {
      "midi": 50,
      "hit": false,
      "t": 33166.63350000004,
      "d": 499.9994999999981,
      "v": 127
    },
    {
      "midi": 36,
      "hit": false,
      "t": 33166.63350000004,
      "d": 499.9994999999981,
      "v": 127
    },
    {
      "midi": 45,
      "hit": false,
      "t": 33166.63350000004,
      "d": 499.9994999999981,
      "v": 127
    },
    {
      "midi": 49,
      "hit": false,
      "t": 33666.63300000004,
      "d": 499.9994999999981,
      "v": 127
    },
    {
      "midi": 35,
      "hit": false,
      "t": 33666.63300000004,
      "d": 499.9994999999981,
      "v": 127
    },
    {
      "midi": 44,
      "hit": false,
      "t": 33666.63300000004,
      "d": 499.9994999999981,
      "v": 127
    },
    {
      "midi": 50,
      "hit": false,
      "t": 34166.632500000036,
      "d": 499.9994999999981,
      "v": 127
    },
    {
      "midi": 36,
      "hit": false,
      "t": 34166.632500000036,
      "d": 499.9994999999981,
      "v": 127
    },
    {
      "midi": 45,
      "hit": false,
      "t": 34166.632500000036,
      "d": 499.9994999999981,
      "v": 127
    },
    {
      "midi": 47,
      "hit": false,
      "t": 34666.632000000034,
      "d": 333.3329999999987,
      "v": 127
    },
    {
      "midi": 33,
      "hit": false,
      "t": 34666.632000000034,
      "d": 333.3329999999987,
      "v": 127
    },
    {
      "midi": 42,
      "hit": false,
      "t": 34666.632000000034,
      "d": 333.3329999999987,
      "v": 127
    },
    {
      "midi": 57,
      "hit": false,
      "t": 34999.96499999999,
      "d": 2333.3309999999983,
      "v": 127
    },
    {
      "midi": 53,
      "hit": false,
      "t": 34999.96499999999,
      "d": 2333.3309999999983,
      "v": 127
    },
    {
      "midi": 49,
      "hit": false,
      "t": 34999.96500000003,
      "d": 499.9994999999981,
      "v": 127
    },
    {
      "midi": 35,
      "hit": false,
      "t": 34999.96500000003,
      "d": 499.9994999999981,
      "v": 127
    },
    {
      "midi": 44,
      "hit": false,
      "t": 34999.96500000003,
      "d": 499.9994999999981,
      "v": 127
    },
    {
      "midi": 50,
      "hit": false,
      "t": 35499.96450000003,
      "d": 499.9994999999981,
      "v": 127
    },
    {
      "midi": 36,
      "hit": false,
      "t": 35499.96450000003,
      "d": 499.9994999999981,
      "v": 127
    },
    {
      "midi": 45,
      "hit": false,
      "t": 35499.96450000003,
      "d": 499.9994999999981,
      "v": 127
    },
    {
      "midi": 49,
      "hit": false,
      "t": 35999.96400000003,
      "d": 499.9994999999981,
      "v": 127
    },
    {
      "midi": 35,
      "hit": false,
      "t": 35999.96400000003,
      "d": 499.9994999999981,
      "v": 127
    },
    {
      "midi": 44,
      "hit": false,
      "t": 35999.96400000003,
      "d": 499.9994999999981,
      "v": 127
    },
    {
      "midi": 50,
      "hit": false,
      "t": 36499.96350000003,
      "d": 499.9994999999981,
      "v": 127
    },
    {
      "midi": 36,
      "hit": false,
      "t": 36499.96350000003,
      "d": 499.9994999999981,
      "v": 127
    },
    {
      "midi": 45,
      "hit": false,
      "t": 36499.96350000003,
      "d": 499.9994999999981,
      "v": 127
    },
    {
      "midi": 52,
      "hit": false,
      "t": 36999.963000000025,
      "d": 333.3329999999987,
      "v": 127
    },
    {
      "midi": 38,
      "hit": false,
      "t": 36999.963000000025,
      "d": 333.3329999999987,
      "v": 127
    },
    {
      "midi": 47,
      "hit": false,
      "t": 36999.963000000025,
      "d": 333.3329999999987,
      "v": 127
    },
    {
      "midi": 56,
      "hit": false,
      "t": 37333.29599999999,
      "d": 499.9994999999981,
      "v": 127
    },
    {
      "midi": 49,
      "hit": false,
      "t": 37333.296000000024,
      "d": 499.9994999999981,
      "v": 127
    },
    {
      "midi": 35,
      "hit": false,
      "t": 37333.296000000024,
      "d": 499.9994999999981,
      "v": 127
    },
    {
      "midi": 44,
      "hit": false,
      "t": 37333.296000000024,
      "d": 499.9994999999981,
      "v": 127
    },
    {
      "midi": 57,
      "hit": false,
      "t": 37833.295499999986,
      "d": 499.9994999999981,
      "v": 127
    },
    {
      "midi": 50,
      "hit": false,
      "t": 37833.29550000002,
      "d": 499.9994999999981,
      "v": 127
    },
    {
      "midi": 36,
      "hit": false,
      "t": 37833.29550000002,
      "d": 499.9994999999981,
      "v": 127
    },
    {
      "midi": 45,
      "hit": false,
      "t": 37833.29550000002,
      "d": 499.9994999999981,
      "v": 127
    },
    {
      "midi": 56,
      "hit": false,
      "t": 38333.294999999984,
      "d": 499.9994999999981,
      "v": 127
    },
    {
      "midi": 49,
      "hit": false,
      "t": 38333.29500000002,
      "d": 499.9994999999981,
      "v": 127
    },
    {
      "midi": 35,
      "hit": false,
      "t": 38333.29500000002,
      "d": 499.9994999999981,
      "v": 127
    },
    {
      "midi": 44,
      "hit": false,
      "t": 38333.29500000002,
      "d": 499.9994999999981,
      "v": 127
    },
    {
      "midi": 57,
      "hit": false,
      "t": 38833.29449999998,
      "d": 499.9994999999981,
      "v": 127
    },
    {
      "midi": 50,
      "hit": false,
      "t": 38833.29450000002,
      "d": 499.9994999999981,
      "v": 127
    },
    {
      "midi": 36,
      "hit": false,
      "t": 38833.29450000002,
      "d": 499.9994999999981,
      "v": 127
    },
    {
      "midi": 45,
      "hit": false,
      "t": 38833.29450000002,
      "d": 499.9994999999981,
      "v": 127
    },
    {
      "midi": 54,
      "hit": false,
      "t": 39333.29399999998,
      "d": 333.3329999999987,
      "v": 127
    },
    {
      "midi": 47,
      "hit": false,
      "t": 39333.294000000016,
      "d": 333.3329999999987,
      "v": 127
    },
    {
      "midi": 33,
      "hit": false,
      "t": 39333.294000000016,
      "d": 333.3329999999987,
      "v": 127
    },
    {
      "midi": 42,
      "hit": false,
      "t": 39333.294000000016,
      "d": 333.3329999999987,
      "v": 127
    },
    {
      "midi": 56,
      "hit": false,
      "t": 39666.62699999998,
      "d": 499.9994999999981,
      "v": 127
    },
    {
      "midi": 49,
      "hit": false,
      "t": 39666.627000000015,
      "d": 499.9994999999981,
      "v": 127
    },
    {
      "midi": 35,
      "hit": false,
      "t": 39666.627000000015,
      "d": 499.9994999999981,
      "v": 127
    },
    {
      "midi": 44,
      "hit": false,
      "t": 39666.627000000015,
      "d": 499.9994999999981,
      "v": 127
    },
    {
      "midi": 57,
      "hit": false,
      "t": 40166.62649999998,
      "d": 499.9994999999981,
      "v": 127
    },
    {
      "midi": 50,
      "hit": false,
      "t": 40166.62650000001,
      "d": 499.9994999999981,
      "v": 127
    },
    {
      "midi": 36,
      "hit": false,
      "t": 40166.62650000001,
      "d": 499.9994999999981,
      "v": 127
    },
    {
      "midi": 45,
      "hit": false,
      "t": 40166.62650000001,
      "d": 499.9994999999981,
      "v": 127
    },
    {
      "midi": 56,
      "hit": false,
      "t": 40666.625999999975,
      "d": 499.9994999999981,
      "v": 127
    },
    {
      "midi": 49,
      "hit": false,
      "t": 40666.62600000001,
      "d": 499.9994999999981,
      "v": 127
    },
    {
      "midi": 35,
      "hit": false,
      "t": 40666.62600000001,
      "d": 499.9994999999981,
      "v": 127
    },
    {
      "midi": 44,
      "hit": false,
      "t": 40666.62600000001,
      "d": 499.9994999999981,
      "v": 127
    },
    {
      "midi": 57,
      "hit": false,
      "t": 41166.62549999997,
      "d": 499.9994999999981,
      "v": 127
    },
    {
      "midi": 50,
      "hit": false,
      "t": 41166.62550000001,
      "d": 499.9994999999981,
      "v": 127
    },
    {
      "midi": 36,
      "hit": false,
      "t": 41166.62550000001,
      "d": 499.9994999999981,
      "v": 127
    },
    {
      "midi": 45,
      "hit": false,
      "t": 41166.62550000001,
      "d": 499.9994999999981,
      "v": 127
    },
    {
      "midi": 59,
      "hit": false,
      "t": 41666.62499999997,
      "d": 333.3329999999987,
      "v": 127
    },
    {
      "midi": 47,
      "hit": false,
      "t": 41666.62500000001,
      "d": 333.3329999999987,
      "v": 127
    },
    {
      "midi": 33,
      "hit": false,
      "t": 41666.62500000001,
      "d": 333.3329999999987,
      "v": 127
    },
    {
      "midi": 42,
      "hit": false,
      "t": 41666.62500000001,
      "d": 333.3329999999987,
      "v": 127
    },
    {
      "midi": 56,
      "hit": false,
      "t": 41999.95799999997,
      "d": 499.9994999999981,
      "v": 127
    },
    {
      "midi": 49,
      "hit": false,
      "t": 41999.958000000006,
      "d": 499.9994999999981,
      "v": 127
    },
    {
      "midi": 35,
      "hit": false,
      "t": 41999.958000000006,
      "d": 499.9994999999981,
      "v": 127
    },
    {
      "midi": 44,
      "hit": false,
      "t": 41999.958000000006,
      "d": 499.9994999999981,
      "v": 127
    },
    {
      "midi": 57,
      "hit": false,
      "t": 42499.95749999997,
      "d": 499.9994999999981,
      "v": 127
    },
    {
      "midi": 50,
      "hit": false,
      "t": 42499.957500000004,
      "d": 499.9994999999981,
      "v": 127
    },
    {
      "midi": 36,
      "hit": false,
      "t": 42499.957500000004,
      "d": 499.9994999999981,
      "v": 127
    },
    {
      "midi": 45,
      "hit": false,
      "t": 42499.957500000004,
      "d": 499.9994999999981,
      "v": 127
    },
    {
      "midi": 56,
      "hit": false,
      "t": 42999.956999999966,
      "d": 499.9994999999981,
      "v": 127
    },
    {
      "midi": 49,
      "hit": false,
      "t": 42999.957,
      "d": 499.9994999999981,
      "v": 127
    },
    {
      "midi": 35,
      "hit": false,
      "t": 42999.957,
      "d": 499.9994999999981,
      "v": 127
    },
    {
      "midi": 44,
      "hit": false,
      "t": 42999.957,
      "d": 499.9994999999981,
      "v": 127
    },
    {
      "midi": 57,
      "hit": false,
      "t": 43499.956499999964,
      "d": 499.9994999999981,
      "v": 127
    },
    {
      "midi": 50,
      "hit": false,
      "t": 43499.9565,
      "d": 499.9994999999981,
      "v": 127
    },
    {
      "midi": 36,
      "hit": false,
      "t": 43499.9565,
      "d": 499.9994999999981,
      "v": 127
    },
    {
      "midi": 45,
      "hit": false,
      "t": 43499.9565,
      "d": 499.9994999999981,
      "v": 127
    },
    {
      "midi": 54,
      "hit": false,
      "t": 43999.95599999996,
      "d": 333.3329999999987,
      "v": 127
    },
    {
      "midi": 47,
      "hit": false,
      "t": 43999.956,
      "d": 333.3329999999987,
      "v": 127
    },
    {
      "midi": 33,
      "hit": false,
      "t": 43999.956,
      "d": 333.3329999999987,
      "v": 127
    },
    {
      "midi": 42,
      "hit": false,
      "t": 43999.956,
      "d": 333.3329999999987,
      "v": 127
    },
    {
      "midi": 56,
      "hit": false,
      "t": 44333.28899999996,
      "d": 499.9994999999981,
      "v": 127
    },
    {
      "midi": 49,
      "hit": false,
      "t": 44333.289,
      "d": 499.9994999999981,
      "v": 127
    },
    {
      "midi": 35,
      "hit": false,
      "t": 44333.289,
      "d": 499.9994999999981,
      "v": 127
    },
    {
      "midi": 44,
      "hit": false,
      "t": 44333.289,
      "d": 499.9994999999981,
      "v": 127
    },
    {
      "midi": 57,
      "hit": false,
      "t": 44833.28849999996,
      "d": 499.9994999999981,
      "v": 127
    },
    {
      "midi": 50,
      "hit": false,
      "t": 44833.288499999995,
      "d": 499.9994999999981,
      "v": 127
    },
    {
      "midi": 36,
      "hit": false,
      "t": 44833.288499999995,
      "d": 499.9994999999981,
      "v": 127
    },
    {
      "midi": 45,
      "hit": false,
      "t": 44833.288499999995,
      "d": 499.9994999999981,
      "v": 127
    },
    {
      "midi": 56,
      "hit": false,
      "t": 45333.28799999996,
      "d": 499.9994999999981,
      "v": 127
    },
    {
      "midi": 49,
      "hit": false,
      "t": 45333.28799999999,
      "d": 499.9994999999981,
      "v": 127
    },
    {
      "midi": 35,
      "hit": false,
      "t": 45333.28799999999,
      "d": 499.9994999999981,
      "v": 127
    },
    {
      "midi": 44,
      "hit": false,
      "t": 45333.28799999999,
      "d": 499.9994999999981,
      "v": 127
    },
    {
      "midi": 57,
      "hit": false,
      "t": 45833.287499999955,
      "d": 499.9994999999981,
      "v": 127
    },
    {
      "midi": 50,
      "hit": false,
      "t": 45833.28749999999,
      "d": 499.9994999999981,
      "v": 127
    },
    {
      "midi": 36,
      "hit": false,
      "t": 45833.28749999999,
      "d": 499.9994999999981,
      "v": 127
    },
    {
      "midi": 45,
      "hit": false,
      "t": 45833.28749999999,
      "d": 499.9994999999981,
      "v": 127
    },
    {
      "midi": 59,
      "hit": false,
      "t": 46333.28699999995,
      "d": 333.3329999999987,
      "v": 127
    },
    {
      "midi": 47,
      "hit": false,
      "t": 46333.28699999999,
      "d": 333.3329999999987,
      "v": 127
    },
    {
      "midi": 33,
      "hit": false,
      "t": 46333.28699999999,
      "d": 333.3329999999987,
      "v": 127
    },
    {
      "midi": 42,
      "hit": false,
      "t": 46333.28699999999,
      "d": 333.3329999999987,
      "v": 127
    },
    {
      "midi": 56,
      "hit": false,
      "t": 46666.61999999995,
      "d": 499.9994999999981,
      "v": 127
    },
    {
      "midi": 49,
      "hit": false,
      "t": 46666.61999999999,
      "d": 499.9994999999981,
      "v": 127
    },
    {
      "midi": 35,
      "hit": false,
      "t": 46666.61999999999,
      "d": 499.9994999999981,
      "v": 127
    },
    {
      "midi": 44,
      "hit": false,
      "t": 46666.61999999999,
      "d": 499.9994999999981,
      "v": 127
    },
    {
      "midi": 57,
      "hit": false,
      "t": 47166.61949999995,
      "d": 499.9994999999981,
      "v": 127
    },
    {
      "midi": 50,
      "hit": false,
      "t": 47166.619499999986,
      "d": 499.9994999999981,
      "v": 127
    },
    {
      "midi": 36,
      "hit": false,
      "t": 47166.619499999986,
      "d": 499.9994999999981,
      "v": 127
    },
    {
      "midi": 45,
      "hit": false,
      "t": 47166.619499999986,
      "d": 499.9994999999981,
      "v": 127
    },
    {
      "midi": 49,
      "hit": false,
      "t": 47666.618999999984,
      "d": 499.9994999999981,
      "v": 127
    },
    {
      "midi": 35,
      "hit": false,
      "t": 47666.618999999984,
      "d": 499.9994999999981,
      "v": 127
    },
    {
      "midi": 44,
      "hit": false,
      "t": 47666.618999999984,
      "d": 499.9994999999981,
      "v": 127
    },
    {
      "midi": 50,
      "hit": false,
      "t": 48166.61849999998,
      "d": 499.9994999999981,
      "v": 127
    },
    {
      "midi": 36,
      "hit": false,
      "t": 48166.61849999998,
      "d": 499.9994999999981,
      "v": 127
    },
    {
      "midi": 45,
      "hit": false,
      "t": 48166.61849999998,
      "d": 499.9994999999981,
      "v": 127
    },
    {
      "midi": 47,
      "hit": false,
      "t": 48666.61799999998,
      "d": 333.3329999999987,
      "v": 127
    },
    {
      "midi": 33,
      "hit": false,
      "t": 48666.61799999998,
      "d": 333.3329999999987,
      "v": 127
    },
    {
      "midi": 42,
      "hit": false,
      "t": 48666.61799999998,
      "d": 333.3329999999987,
      "v": 127
    },
    {
      "midi": 49,
      "hit": false,
      "t": 48999.95099999998,
      "d": 499.9994999999981,
      "v": 127
    },
    {
      "midi": 35,
      "hit": false,
      "t": 48999.95099999998,
      "d": 499.9994999999981,
      "v": 127
    },
    {
      "midi": 44,
      "hit": false,
      "t": 48999.95099999998,
      "d": 499.9994999999981,
      "v": 127
    },
    {
      "midi": 50,
      "hit": false,
      "t": 49499.95049999998,
      "d": 499.9994999999981,
      "v": 127
    },
    {
      "midi": 36,
      "hit": false,
      "t": 49499.95049999998,
      "d": 499.9994999999981,
      "v": 127
    },
    {
      "midi": 45,
      "hit": false,
      "t": 49499.95049999998,
      "d": 499.9994999999981,
      "v": 127
    },
    {
      "midi": 49,
      "hit": false,
      "t": 49999.949999999975,
      "d": 499.9994999999981,
      "v": 127
    },
    {
      "midi": 35,
      "hit": false,
      "t": 49999.949999999975,
      "d": 499.9994999999981,
      "v": 127
    },
    {
      "midi": 44,
      "hit": false,
      "t": 49999.949999999975,
      "d": 499.9994999999981,
      "v": 127
    },
    {
      "midi": 50,
      "hit": false,
      "t": 50499.94949999997,
      "d": 499.9994999999981,
      "v": 127
    },
    {
      "midi": 36,
      "hit": false,
      "t": 50499.94949999997,
      "d": 499.9994999999981,
      "v": 127
    },
    {
      "midi": 45,
      "hit": false,
      "t": 50499.94949999997,
      "d": 499.9994999999981,
      "v": 127
    },
    {
      "midi": 47,
      "hit": false,
      "t": 50999.94899999997,
      "d": 333.3329999999987,
      "v": 127
    },
    {
      "midi": 33,
      "hit": false,
      "t": 50999.94899999997,
      "d": 333.3329999999987,
      "v": 127
    },
    {
      "midi": 42,
      "hit": false,
      "t": 50999.94899999997,
      "d": 333.3329999999987,
      "v": 127
    },
    {
      "midi": 52,
      "hit": false,
      "t": 51333.28199999995,
      "d": 499.9994999999981,
      "v": 127
    },
    {
      "midi": 49,
      "hit": false,
      "t": 51333.28199999997,
      "d": 499.9994999999981,
      "v": 127
    },
    {
      "midi": 35,
      "hit": false,
      "t": 51333.28199999997,
      "d": 499.9994999999981,
      "v": 127
    },
    {
      "midi": 44,
      "hit": false,
      "t": 51333.28199999997,
      "d": 499.9994999999981,
      "v": 127
    },
    {
      "midi": 54,
      "hit": false,
      "t": 51833.28149999995,
      "d": 499.9994999999981,
      "v": 127
    },
    {
      "midi": 50,
      "hit": false,
      "t": 51833.28149999997,
      "d": 499.9994999999981,
      "v": 127
    },
    {
      "midi": 36,
      "hit": false,
      "t": 51833.28149999997,
      "d": 499.9994999999981,
      "v": 127
    },
    {
      "midi": 45,
      "hit": false,
      "t": 51833.28149999997,
      "d": 499.9994999999981,
      "v": 127
    },
    {
      "midi": 52,
      "hit": false,
      "t": 52333.280999999944,
      "d": 499.9994999999981,
      "v": 127
    },
    {
      "midi": 49,
      "hit": false,
      "t": 52333.280999999966,
      "d": 499.9994999999981,
      "v": 127
    },
    {
      "midi": 35,
      "hit": false,
      "t": 52333.280999999966,
      "d": 499.9994999999981,
      "v": 127
    },
    {
      "midi": 44,
      "hit": false,
      "t": 52333.280999999966,
      "d": 499.9994999999981,
      "v": 127
    },
    {
      "midi": 54,
      "hit": false,
      "t": 52833.28049999994,
      "d": 499.9994999999981,
      "v": 127
    },
    {
      "midi": 50,
      "hit": false,
      "t": 52833.280499999964,
      "d": 499.9994999999981,
      "v": 127
    },
    {
      "midi": 36,
      "hit": false,
      "t": 52833.280499999964,
      "d": 499.9994999999981,
      "v": 127
    },
    {
      "midi": 45,
      "hit": false,
      "t": 52833.280499999964,
      "d": 499.9994999999981,
      "v": 127
    },
    {
      "midi": 47,
      "hit": false,
      "t": 53333.27999999996,
      "d": 333.3329999999987,
      "v": 127
    },
    {
      "midi": 33,
      "hit": false,
      "t": 53333.27999999996,
      "d": 333.3329999999987,
      "v": 127
    },
    {
      "midi": 42,
      "hit": false,
      "t": 53333.27999999996,
      "d": 333.3329999999987,
      "v": 127
    },
    {
      "midi": 49,
      "hit": false,
      "t": 53666.61299999996,
      "d": 499.9994999999981,
      "v": 127
    },
    {
      "midi": 35,
      "hit": false,
      "t": 53666.61299999996,
      "d": 499.9994999999981,
      "v": 127
    },
    {
      "midi": 44,
      "hit": false,
      "t": 53666.61299999996,
      "d": 499.9994999999981,
      "v": 127
    },
    {
      "midi": 50,
      "hit": false,
      "t": 54166.61249999996,
      "d": 499.9994999999981,
      "v": 127
    },
    {
      "midi": 36,
      "hit": false,
      "t": 54166.61249999996,
      "d": 499.9994999999981,
      "v": 127
    },
    {
      "midi": 45,
      "hit": false,
      "t": 54166.61249999996,
      "d": 499.9994999999981,
      "v": 127
    },
    {
      "midi": 49,
      "hit": false,
      "t": 54666.61199999996,
      "d": 499.9994999999981,
      "v": 127
    },
    {
      "midi": 35,
      "hit": false,
      "t": 54666.61199999996,
      "d": 499.9994999999981,
      "v": 127
    },
    {
      "midi": 44,
      "hit": false,
      "t": 54666.61199999996,
      "d": 499.9994999999981,
      "v": 127
    },
    {
      "midi": 50,
      "hit": false,
      "t": 55166.611499999955,
      "d": 499.9994999999981,
      "v": 127
    },
    {
      "midi": 36,
      "hit": false,
      "t": 55166.611499999955,
      "d": 499.9994999999981,
      "v": 127
    },
    {
      "midi": 45,
      "hit": false,
      "t": 55166.611499999955,
      "d": 499.9994999999981,
      "v": 127
    },
    {
      "midi": 47,
      "hit": false,
      "t": 55666.61099999995,
      "d": 333.3329999999987,
      "v": 127
    },
    {
      "midi": 33,
      "hit": false,
      "t": 55666.61099999995,
      "d": 333.3329999999987,
      "v": 127
    },
    {
      "midi": 42,
      "hit": false,
      "t": 55666.61099999995,
      "d": 333.3329999999987,
      "v": 127
    },
    {
      "midi": 54,
      "hit": false,
      "t": 55999.94399999994,
      "d": 499.9994999999981,
      "v": 127
    },
    {
      "midi": 49,
      "hit": false,
      "t": 55999.94399999995,
      "d": 499.9994999999981,
      "v": 127
    },
    {
      "midi": 35,
      "hit": false,
      "t": 55999.94399999995,
      "d": 499.9994999999981,
      "v": 127
    },
    {
      "midi": 44,
      "hit": false,
      "t": 55999.94399999995,
      "d": 499.9994999999981,
      "v": 127
    },
    {
      "midi": 55,
      "hit": false,
      "t": 56499.943499999936,
      "d": 499.9994999999981,
      "v": 127
    },
    {
      "midi": 50,
      "hit": false,
      "t": 56499.94349999995,
      "d": 499.9994999999981,
      "v": 127
    },
    {
      "midi": 36,
      "hit": false,
      "t": 56499.94349999995,
      "d": 499.9994999999981,
      "v": 127
    },
    {
      "midi": 45,
      "hit": false,
      "t": 56499.94349999995,
      "d": 499.9994999999981,
      "v": 127
    },
    {
      "midi": 54,
      "hit": false,
      "t": 56999.942999999934,
      "d": 499.9994999999981,
      "v": 127
    },
    {
      "midi": 49,
      "hit": false,
      "t": 56999.94299999995,
      "d": 499.9994999999981,
      "v": 127
    },
    {
      "midi": 35,
      "hit": false,
      "t": 56999.94299999995,
      "d": 499.9994999999981,
      "v": 127
    },
    {
      "midi": 44,
      "hit": false,
      "t": 56999.94299999995,
      "d": 499.9994999999981,
      "v": 127
    },
    {
      "midi": 55,
      "hit": false,
      "t": 57499.94249999993,
      "d": 499.9994999999981,
      "v": 127
    },
    {
      "midi": 50,
      "hit": false,
      "t": 57499.94249999995,
      "d": 499.9994999999981,
      "v": 127
    },
    {
      "midi": 36,
      "hit": false,
      "t": 57499.94249999995,
      "d": 499.9994999999981,
      "v": 127
    },
    {
      "midi": 45,
      "hit": false,
      "t": 57499.94249999995,
      "d": 499.9994999999981,
      "v": 127
    },
    {
      "midi": 54,
      "hit": false,
      "t": 57999.94199999993,
      "d": 333.3329999999987,
      "v": 127
    },
    {
      "midi": 47,
      "hit": false,
      "t": 57999.941999999945,
      "d": 333.3329999999987,
      "v": 127
    },
    {
      "midi": 33,
      "hit": false,
      "t": 57999.941999999945,
      "d": 333.3329999999987,
      "v": 127
    },
    {
      "midi": 42,
      "hit": false,
      "t": 57999.941999999945,
      "d": 333.3329999999987,
      "v": 127
    },
    {
      "midi": 56,
      "hit": false,
      "t": 58333.27499999993,
      "d": 499.9994999999981,
      "v": 127
    },
    {
      "midi": 49,
      "hit": false,
      "t": 58333.27499999994,
      "d": 499.9994999999981,
      "v": 127
    },
    {
      "midi": 35,
      "hit": false,
      "t": 58333.27499999994,
      "d": 499.9994999999981,
      "v": 127
    },
    {
      "midi": 44,
      "hit": false,
      "t": 58333.27499999994,
      "d": 499.9994999999981,
      "v": 127
    },
    {
      "midi": 57,
      "hit": false,
      "t": 58833.27449999993,
      "d": 499.9994999999981,
      "v": 127
    },
    {
      "midi": 50,
      "hit": false,
      "t": 58833.27449999994,
      "d": 499.9994999999981,
      "v": 127
    },
    {
      "midi": 36,
      "hit": false,
      "t": 58833.27449999994,
      "d": 499.9994999999981,
      "v": 127
    },
    {
      "midi": 45,
      "hit": false,
      "t": 58833.27449999994,
      "d": 499.9994999999981,
      "v": 127
    },
    {
      "midi": 56,
      "hit": false,
      "t": 59333.273999999925,
      "d": 499.9994999999981,
      "v": 127
    },
    {
      "midi": 49,
      "hit": false,
      "t": 59333.27399999994,
      "d": 499.9994999999981,
      "v": 127
    },
    {
      "midi": 35,
      "hit": false,
      "t": 59333.27399999994,
      "d": 499.9994999999981,
      "v": 127
    },
    {
      "midi": 44,
      "hit": false,
      "t": 59333.27399999994,
      "d": 499.9994999999981,
      "v": 127
    },
    {
      "midi": 57,
      "hit": false,
      "t": 59833.27349999992,
      "d": 499.9994999999981,
      "v": 127
    },
    {
      "midi": 50,
      "hit": false,
      "t": 59833.27349999994,
      "d": 499.9994999999981,
      "v": 127
    },
    {
      "midi": 36,
      "hit": false,
      "t": 59833.27349999994,
      "d": 499.9994999999981,
      "v": 127
    },
    {
      "midi": 45,
      "hit": false,
      "t": 59833.27349999994,
      "d": 499.9994999999981,
      "v": 127
    },
    {
      "midi": 59,
      "hit": false,
      "t": 60333.27299999992,
      "d": 333.3329999999987,
      "v": 127
    },
    {
      "midi": 47,
      "hit": false,
      "t": 60333.272999999936,
      "d": 333.3329999999987,
      "v": 127
    },
    {
      "midi": 33,
      "hit": false,
      "t": 60333.272999999936,
      "d": 333.3329999999987,
      "v": 127
    },
    {
      "midi": 42,
      "hit": false,
      "t": 60333.272999999936,
      "d": 333.3329999999987,
      "v": 127
    },
    {
      "midi": 54,
      "hit": false,
      "t": 60666.60599999992,
      "d": 499.9994999999981,
      "v": 127
    },
    {
      "midi": 49,
      "hit": false,
      "t": 60666.605999999934,
      "d": 499.9994999999981,
      "v": 127
    },
    {
      "midi": 35,
      "hit": false,
      "t": 60666.605999999934,
      "d": 499.9994999999981,
      "v": 127
    },
    {
      "midi": 44,
      "hit": false,
      "t": 60666.605999999934,
      "d": 499.9994999999981,
      "v": 127
    },
    {
      "midi": 55,
      "hit": false,
      "t": 61166.60549999992,
      "d": 499.9994999999981,
      "v": 127
    },
    {
      "midi": 50,
      "hit": false,
      "t": 61166.60549999993,
      "d": 499.9994999999981,
      "v": 127
    },
    {
      "midi": 36,
      "hit": false,
      "t": 61166.60549999993,
      "d": 499.9994999999981,
      "v": 127
    },
    {
      "midi": 45,
      "hit": false,
      "t": 61166.60549999993,
      "d": 499.9994999999981,
      "v": 127
    },
    {
      "midi": 54,
      "hit": false,
      "t": 61666.604999999916,
      "d": 499.9994999999981,
      "v": 127
    },
    {
      "midi": 49,
      "hit": false,
      "t": 61666.60499999993,
      "d": 499.9994999999981,
      "v": 127
    },
    {
      "midi": 35,
      "hit": false,
      "t": 61666.60499999993,
      "d": 499.9994999999981,
      "v": 127
    },
    {
      "midi": 44,
      "hit": false,
      "t": 61666.60499999993,
      "d": 499.9994999999981,
      "v": 127
    },
    {
      "midi": 55,
      "hit": false,
      "t": 62166.604499999914,
      "d": 499.9994999999981,
      "v": 127
    },
    {
      "midi": 50,
      "hit": false,
      "t": 62166.60449999993,
      "d": 499.9994999999981,
      "v": 127
    },
    {
      "midi": 36,
      "hit": false,
      "t": 62166.60449999993,
      "d": 499.9994999999981,
      "v": 127
    },
    {
      "midi": 45,
      "hit": false,
      "t": 62166.60449999993,
      "d": 499.9994999999981,
      "v": 127
    },
    {
      "midi": 54,
      "hit": false,
      "t": 62666.60399999991,
      "d": 333.3329999999987,
      "v": 127
    },
    {
      "midi": 47,
      "hit": false,
      "t": 62666.60399999993,
      "d": 333.3329999999987,
      "v": 127
    },
    {
      "midi": 33,
      "hit": false,
      "t": 62666.60399999993,
      "d": 333.3329999999987,
      "v": 127
    },
    {
      "midi": 42,
      "hit": false,
      "t": 62666.60399999993,
      "d": 333.3329999999987,
      "v": 127
    },
    {
      "midi": 56,
      "hit": false,
      "t": 62999.93699999991,
      "d": 499.9994999999981,
      "v": 127
    },
    {
      "midi": 49,
      "hit": false,
      "t": 62999.936999999925,
      "d": 499.9994999999981,
      "v": 127
    },
    {
      "midi": 35,
      "hit": false,
      "t": 62999.936999999925,
      "d": 499.9994999999981,
      "v": 127
    },
    {
      "midi": 44,
      "hit": false,
      "t": 62999.936999999925,
      "d": 499.9994999999981,
      "v": 127
    },
    {
      "midi": 57,
      "hit": false,
      "t": 63499.93649999991,
      "d": 499.9994999999981,
      "v": 127
    },
    {
      "midi": 50,
      "hit": false,
      "t": 63499.93649999992,
      "d": 499.9994999999981,
      "v": 127
    },
    {
      "midi": 36,
      "hit": false,
      "t": 63499.93649999992,
      "d": 499.9994999999981,
      "v": 127
    },
    {
      "midi": 45,
      "hit": false,
      "t": 63499.93649999992,
      "d": 499.9994999999981,
      "v": 127
    },
    {
      "midi": 56,
      "hit": false,
      "t": 63999.93599999991,
      "d": 499.9994999999981,
      "v": 127
    },
    {
      "midi": 49,
      "hit": false,
      "t": 63999.93599999992,
      "d": 499.9994999999981,
      "v": 127
    },
    {
      "midi": 35,
      "hit": false,
      "t": 63999.93599999992,
      "d": 499.9994999999981,
      "v": 127
    },
    {
      "midi": 44,
      "hit": false,
      "t": 63999.93599999992,
      "d": 499.9994999999981,
      "v": 127
    },
    {
      "midi": 57,
      "hit": false,
      "t": 64499.935499999905,
      "d": 499.9994999999981,
      "v": 127
    },
    {
      "midi": 50,
      "hit": false,
      "t": 64499.93549999992,
      "d": 499.9994999999981,
      "v": 127
    },
    {
      "midi": 36,
      "hit": false,
      "t": 64499.93549999992,
      "d": 499.9994999999981,
      "v": 127
    },
    {
      "midi": 45,
      "hit": false,
      "t": 64499.93549999992,
      "d": 499.9994999999981,
      "v": 127
    },
    {
      "midi": 59,
      "hit": false,
      "t": 64999.9349999999,
      "d": 333.3329999999987,
      "v": 127
    },
    {
      "midi": 47,
      "hit": false,
      "t": 64999.93499999992,
      "d": 333.3329999999987,
      "v": 127
    },
    {
      "midi": 33,
      "hit": false,
      "t": 64999.93499999992,
      "d": 333.3329999999987,
      "v": 127
    },
    {
      "midi": 42,
      "hit": false,
      "t": 64999.93499999992,
      "d": 333.3329999999987,
      "v": 127
    },
    {
      "midi": 49,
      "hit": false,
      "t": 65333.2679999999,
      "d": 2333.3309999999983,
      "v": 127
    },
    {
      "midi": 49,
      "hit": false,
      "t": 65333.267999999916,
      "d": 499.9994999999981,
      "v": 127
    },
    {
      "midi": 35,
      "hit": false,
      "t": 65333.267999999916,
      "d": 499.9994999999981,
      "v": 127
    },
    {
      "midi": 44,
      "hit": false,
      "t": 65333.267999999916,
      "d": 499.9994999999981,
      "v": 127
    },
    {
      "midi": 44,
      "hit": false,
      "t": 65333.26799999998,
      "d": 2333.3310000000056,
      "v": 127
    },
    {
      "midi": 53,
      "hit": false,
      "t": 65333.268,
      "d": 2333.3310000000056,
      "v": 127
    },
    {
      "midi": 50,
      "hit": false,
      "t": 65833.26749999991,
      "d": 499.99950000000536,
      "v": 127
    },
    {
      "midi": 36,
      "hit": false,
      "t": 65833.26749999991,
      "d": 499.99950000000536,
      "v": 127
    },
    {
      "midi": 45,
      "hit": false,
      "t": 65833.26749999991,
      "d": 499.99950000000536,
      "v": 127
    },
    {
      "midi": 49,
      "hit": false,
      "t": 66333.26699999992,
      "d": 499.99950000000536,
      "v": 127
    },
    {
      "midi": 35,
      "hit": false,
      "t": 66333.26699999992,
      "d": 499.99950000000536,
      "v": 127
    },
    {
      "midi": 44,
      "hit": false,
      "t": 66333.26699999992,
      "d": 499.99950000000536,
      "v": 127
    },
    {
      "midi": 50,
      "hit": false,
      "t": 66833.26649999993,
      "d": 499.99950000000536,
      "v": 127
    },
    {
      "midi": 36,
      "hit": false,
      "t": 66833.26649999993,
      "d": 499.99950000000536,
      "v": 127
    },
    {
      "midi": 45,
      "hit": false,
      "t": 66833.26649999993,
      "d": 499.99950000000536,
      "v": 127
    },
    {
      "midi": 47,
      "hit": false,
      "t": 67333.26599999993,
      "d": 333.3329999999987,
      "v": 127
    },
    {
      "midi": 33,
      "hit": false,
      "t": 67333.26599999993,
      "d": 333.3329999999987,
      "v": 127
    },
    {
      "midi": 42,
      "hit": false,
      "t": 67333.26599999993,
      "d": 333.3329999999987,
      "v": 127
    },
    {
      "midi": 53,
      "hit": false,
      "t": 67666.5989999999,
      "d": 2333.3310000000056,
      "v": 127
    },
    {
      "midi": 49,
      "hit": false,
      "t": 67666.59899999993,
      "d": 499.99950000000536,
      "v": 127
    },
    {
      "midi": 35,
      "hit": false,
      "t": 67666.59899999993,
      "d": 499.99950000000536,
      "v": 127
    },
    {
      "midi": 44,
      "hit": false,
      "t": 67666.59899999993,
      "d": 499.99950000000536,
      "v": 127
    },
    {
      "midi": 49,
      "hit": false,
      "t": 67666.59899999999,
      "d": 2333.3310000000056,
      "v": 127
    },
    {
      "midi": 56,
      "hit": false,
      "t": 67666.599,
      "d": 2333.3310000000056,
      "v": 127
    },
    {
      "midi": 50,
      "hit": false,
      "t": 68166.59849999993,
      "d": 499.99950000000536,
      "v": 127
    },
    {
      "midi": 36,
      "hit": false,
      "t": 68166.59849999993,
      "d": 499.99950000000536,
      "v": 127
    },
    {
      "midi": 45,
      "hit": false,
      "t": 68166.59849999993,
      "d": 499.99950000000536,
      "v": 127
    },
    {
      "midi": 49,
      "hit": false,
      "t": 68666.59799999994,
      "d": 499.99950000000536,
      "v": 127
    },
    {
      "midi": 35,
      "hit": false,
      "t": 68666.59799999994,
      "d": 499.99950000000536,
      "v": 127
    },
    {
      "midi": 44,
      "hit": false,
      "t": 68666.59799999994,
      "d": 499.99950000000536,
      "v": 127
    },
    {
      "midi": 50,
      "hit": false,
      "t": 69166.59749999995,
      "d": 499.99950000000536,
      "v": 127
    },
    {
      "midi": 36,
      "hit": false,
      "t": 69166.59749999995,
      "d": 499.99950000000536,
      "v": 127
    },
    {
      "midi": 45,
      "hit": false,
      "t": 69166.59749999995,
      "d": 499.99950000000536,
      "v": 127
    },
    {
      "midi": 47,
      "hit": false,
      "t": 69666.59699999995,
      "d": 333.3329999999987,
      "v": 127
    },
    {
      "midi": 33,
      "hit": false,
      "t": 69666.59699999995,
      "d": 333.3329999999987,
      "v": 127
    },
    {
      "midi": 42,
      "hit": false,
      "t": 69666.59699999995,
      "d": 333.3329999999987,
      "v": 127
    },
    {
      "midi": 50,
      "hit": false,
      "t": 69999.9299999999,
      "d": 2333.3310000000056,
      "v": 127
    },
    {
      "midi": 49,
      "hit": false,
      "t": 69999.92999999995,
      "d": 499.99950000000536,
      "v": 127
    },
    {
      "midi": 35,
      "hit": false,
      "t": 69999.92999999995,
      "d": 499.99950000000536,
      "v": 127
    },
    {
      "midi": 44,
      "hit": false,
      "t": 69999.92999999995,
      "d": 499.99950000000536,
      "v": 127
    },
    {
      "midi": 45,
      "hit": false,
      "t": 69999.93,
      "d": 2333.3310000000056,
      "v": 127
    },
    {
      "midi": 54,
      "hit": false,
      "t": 69999.93000000001,
      "d": 2333.3310000000056,
      "v": 127
    },
    {
      "midi": 50,
      "hit": false,
      "t": 70499.92949999995,
      "d": 499.99950000000536,
      "v": 127
    },
    {
      "midi": 36,
      "hit": false,
      "t": 70499.92949999995,
      "d": 499.99950000000536,
      "v": 127
    },
    {
      "midi": 45,
      "hit": false,
      "t": 70499.92949999995,
      "d": 499.99950000000536,
      "v": 127
    },
    {
      "midi": 49,
      "hit": false,
      "t": 70999.92899999996,
      "d": 499.99950000000536,
      "v": 127
    },
    {
      "midi": 35,
      "hit": false,
      "t": 70999.92899999996,
      "d": 499.99950000000536,
      "v": 127
    },
    {
      "midi": 44,
      "hit": false,
      "t": 70999.92899999996,
      "d": 499.99950000000536,
      "v": 127
    },
    {
      "midi": 50,
      "hit": false,
      "t": 71499.92849999997,
      "d": 499.99950000000536,
      "v": 127
    },
    {
      "midi": 36,
      "hit": false,
      "t": 71499.92849999997,
      "d": 499.99950000000536,
      "v": 127
    },
    {
      "midi": 45,
      "hit": false,
      "t": 71499.92849999997,
      "d": 499.99950000000536,
      "v": 127
    },
    {
      "midi": 47,
      "hit": false,
      "t": 71999.92799999997,
      "d": 333.3329999999987,
      "v": 127
    },
    {
      "midi": 33,
      "hit": false,
      "t": 71999.92799999997,
      "d": 333.3329999999987,
      "v": 127
    },
    {
      "midi": 42,
      "hit": false,
      "t": 71999.92799999997,
      "d": 333.3329999999987,
      "v": 127
    },
    {
      "midi": 54,
      "hit": false,
      "t": 72333.26099999991,
      "d": 2333.3310000000056,
      "v": 127
    },
    {
      "midi": 49,
      "hit": false,
      "t": 72333.26099999997,
      "d": 499.99950000000536,
      "v": 127
    },
    {
      "midi": 35,
      "hit": false,
      "t": 72333.26099999997,
      "d": 499.99950000000536,
      "v": 127
    },
    {
      "midi": 44,
      "hit": false,
      "t": 72333.26099999997,
      "d": 499.99950000000536,
      "v": 127
    },
    {
      "midi": 50,
      "hit": false,
      "t": 72333.261,
      "d": 2333.3310000000056,
      "v": 127
    },
    {
      "midi": 57,
      "hit": false,
      "t": 72333.26100000001,
      "d": 2333.3310000000056,
      "v": 127
    },
    {
      "midi": 50,
      "hit": false,
      "t": 72833.26049999997,
      "d": 499.99950000000536,
      "v": 127
    },
    {
      "midi": 36,
      "hit": false,
      "t": 72833.26049999997,
      "d": 499.99950000000536,
      "v": 127
    },
    {
      "midi": 45,
      "hit": false,
      "t": 72833.26049999997,
      "d": 499.99950000000536,
      "v": 127
    },
    {
      "midi": 49,
      "hit": false,
      "t": 73333.25999999998,
      "d": 499.99950000000536,
      "v": 127
    },
    {
      "midi": 35,
      "hit": false,
      "t": 73333.25999999998,
      "d": 499.99950000000536,
      "v": 127
    },
    {
      "midi": 44,
      "hit": false,
      "t": 73333.25999999998,
      "d": 499.99950000000536,
      "v": 127
    },
    {
      "midi": 50,
      "hit": false,
      "t": 73833.25949999999,
      "d": 499.99950000000536,
      "v": 127
    },
    {
      "midi": 36,
      "hit": false,
      "t": 73833.25949999999,
      "d": 499.99950000000536,
      "v": 127
    },
    {
      "midi": 45,
      "hit": false,
      "t": 73833.25949999999,
      "d": 499.99950000000536,
      "v": 127
    },
    {
      "midi": 47,
      "hit": false,
      "t": 74333.25899999999,
      "d": 333.3329999999987,
      "v": 127
    },
    {
      "midi": 33,
      "hit": false,
      "t": 74333.25899999999,
      "d": 333.3329999999987,
      "v": 127
    },
    {
      "midi": 42,
      "hit": false,
      "t": 74333.25899999999,
      "d": 333.3329999999987,
      "v": 127
    }
  ]
}