{
  "jsonPath": "Soundtracks/Video Game Music/Mega Man X/mega-man-x-boss-select.json",
  "path": "Soundtracks\\Video Game Music\\Mega Man X\\Mega_Man_X_Boss_Select.mid",
  "name": "Mega_Man_X_Boss_Select",
  "difficulty": "Advanced",
  "bpm": 139.9998133335822,
  "notes": [
    {
      "midi": 60,
      "hit": false,
      "t": 4.185869140625,
      "d": 119.715857421875,
      "v": 61
    },
    {
      "midi": 63,
      "hit": false,
      "t": 4.185869140625,
      "d": 119.715857421875,
      "v": 61
    },
    {
      "midi": 72,
      "hit": false,
      "t": 4.185869140625,
      "d": 119.715857421875,
      "v": 71
    },
    {
      "midi": 36,
      "hit": false,
      "t": 4.185869140625,
      "d": 971.5402275390625,
      "v": 59
    },
    {
      "midi": 43,
      "hit": false,
      "t": 4.185869140625,
      "d": 971.5402275390625,
      "v": 61
    },
    {
      "midi": 48,
      "hit": false,
      "t": 4.185869140625,
      "d": 971.5402275390625,
      "v": 75
    },
    {
      "midi": 40,
      "hit": false,
      "t": 4.185869140625,
      "d": 977.81903125,
      "v": 60
    },
    {
      "midi": 60,
      "hit": false,
      "t": 124.3203134765625,
      "d": 79.531513671875,
      "v": 56
    },
    {
      "midi": 63,
      "hit": false,
      "t": 124.3203134765625,
      "d": 79.531513671875,
      "v": 56
    },
    {
      "midi": 72,
      "hit": false,
      "t": 124.3203134765625,
      "d": 79.531513671875,
      "v": 66
    },
    {
      "midi": 60,
      "hit": false,
      "t": 332.7765966796875,
      "d": 101.71662011718752,
      "v": 56
    },
    {
      "midi": 63,
      "hit": false,
      "t": 332.7765966796875,
      "d": 101.71662011718752,
      "v": 56
    },
    {
      "midi": 72,
      "hit": false,
      "t": 332.7765966796875,
      "d": 107.99542382812501,
      "v": 70
    },
    {
      "midi": 58,
      "hit": false,
      "t": 441.190607421875,
      "d": 198.41019726562496,
      "v": 57
    },
    {
      "midi": 62,
      "hit": false,
      "t": 441.190607421875,
      "d": 198.41019726562496,
      "v": 57
    },
    {
      "midi": 70,
      "hit": false,
      "t": 441.190607421875,
      "d": 210.96780468749995,
      "v": 71
    },
    {
      "midi": 72,
      "hit": false,
      "t": 652.5769990234375,
      "d": 847.2199140624999,
      "v": 70
    },
    {
      "midi": 63,
      "hit": false,
      "t": 652.5769990234375,
      "d": 847.2199140624999,
      "v": 56
    },
    {
      "midi": 60,
      "hit": false,
      "t": 652.5769990234375,
      "d": 847.2199140624999,
      "v": 56
    },
    {
      "midi": 48,
      "hit": false,
      "t": 964.4242499999999,
      "d": 107.15825000000007,
      "v": 64
    },
    {
      "midi": 55,
      "hit": false,
      "t": 964.4242499999999,
      "d": 107.15825000000007,
      "v": 64
    },
    {
      "midi": 36,
      "hit": false,
      "t": 976.14468359375,
      "d": 102.97238085937488,
      "v": 42
    },
    {
      "midi": 43,
      "hit": false,
      "t": 976.14468359375,
      "d": 102.97238085937488,
      "v": 58
    },
    {
      "midi": 48,
      "hit": false,
      "t": 1071.5825,
      "d": 107.15824999999995,
      "v": 64
    },
    {
      "midi": 55,
      "hit": false,
      "t": 1071.5825,
      "d": 107.15824999999995,
      "v": 64
    },
    {
      "midi": 36,
      "hit": false,
      "t": 1079.5356513671873,
      "d": 103.39096777343752,
      "v": 42
    },
    {
      "midi": 43,
      "hit": false,
      "t": 1079.5356513671873,
      "d": 103.39096777343752,
      "v": 54
    },
    {
      "midi": 48,
      "hit": false,
      "t": 1178.74075,
      "d": 107.15824999999995,
      "v": 64
    },
    {
      "midi": 55,
      "hit": false,
      "t": 1178.74075,
      "d": 107.15824999999995,
      "v": 64
    },
    {
      "midi": 36,
      "hit": false,
      "t": 1183.3452060546872,
      "d": 107.15824999999995,
      "v": 42
    },
    {
      "midi": 43,
      "hit": false,
      "t": 1183.3452060546872,
      "d": 107.15824999999995,
      "v": 54
    },
    {
      "midi": 48,
      "hit": false,
      "t": 1285.899,
      "d": 107.15824999999995,
      "v": 64
    },
    {
      "midi": 55,
      "hit": false,
      "t": 1285.899,
      "d": 107.15824999999995,
      "v": 64
    },
    {
      "midi": 43,
      "hit": false,
      "t": 1290.9220429687496,
      "d": 107.15824999999995,
      "v": 59
    },
    {
      "midi": 36,
      "hit": false,
      "t": 1290.9220429687496,
      "d": 113.43705371093733,
      "v": 43
    },
    {
      "midi": 47,
      "hit": false,
      "t": 1393.0572499999998,
      "d": 321.4747500000001,
      "v": 64
    },
    {
      "midi": 54,
      "hit": false,
      "t": 1393.0572499999998,
      "d": 321.4747500000001,
      "v": 64
    },
    {
      "midi": 35,
      "hit": false,
      "t": 1398.498879882812,
      "d": 315.6145332031249,
      "v": 54
    },
    {
      "midi": 42,
      "hit": false,
      "t": 1398.498879882812,
      "d": 315.6145332031249,
      "v": 70
    },
    {
      "midi": 34,
      "hit": false,
      "t": 1716.2063476562494,
      "d": 974.0517490234374,
      "v": 59
    },
    {
      "midi": 41,
      "hit": false,
      "t": 1716.2063476562494,
      "d": 974.0517490234374,
      "v": 61
    },
    {
      "midi": 46,
      "hit": false,
      "t": 1716.2063476562494,
      "d": 974.0517490234374,
      "v": 75
    },
    {
      "midi": 62,
      "hit": false,
      "t": 1716.2063476562498,
      "d": 122.2273789062499,
      "v": 61
    },
    {
      "midi": 65,
      "hit": false,
      "t": 1716.2063476562498,
      "d": 122.2273789062499,
      "v": 61
    },
    {
      "midi": 74,
      "hit": false,
      "t": 1716.2063476562498,
      "d": 122.2273789062499,
      "v": 75
    },
    {
      "midi": 62,
      "hit": false,
      "t": 1838.8523134765621,
      "d": 79.53151367187502,
      "v": 56
    },
    {
      "midi": 65,
      "hit": false,
      "t": 1838.8523134765621,
      "d": 79.53151367187502,
      "v": 56
    },
    {
      "midi": 74,
      "hit": false,
      "t": 1838.8523134765621,
      "d": 79.53151367187502,
      "v": 66
    },
    {
      "midi": 62,
      "hit": false,
      "t": 2047.308596679687,
      "d": 101.71662011718763,
      "v": 56
    },
    {
      "midi": 65,
      "hit": false,
      "t": 2047.308596679687,
      "d": 101.71662011718763,
      "v": 56
    },
    {
      "midi": 74,
      "hit": false,
      "t": 2047.308596679687,
      "d": 107.99542382812524,
      "v": 70
    },
    {
      "midi": 60,
      "hit": false,
      "t": 2155.7226074218747,
      "d": 198.4101972656249,
      "v": 57
    },
    {
      "midi": 63,
      "hit": false,
      "t": 2155.7226074218747,
      "d": 198.4101972656249,
      "v": 57
    },
    {
      "midi": 72,
      "hit": false,
      "t": 2155.7226074218747,
      "d": 210.96780468750012,
      "v": 71
    },
    {
      "midi": 74,
      "hit": false,
      "t": 2367.1089990234373,
      "d": 1061.5364140624997,
      "v": 70
    },
    {
      "midi": 65,
      "hit": false,
      "t": 2367.1089990234373,
      "d": 1061.5364140624997,
      "v": 56
    },
    {
      "midi": 62,
      "hit": false,
      "t": 2367.1089990234373,
      "d": 1061.5364140624997,
      "v": 56
    },
    {
      "midi": 46,
      "hit": false,
      "t": 2678.9562499999997,
      "d": 107.15824999999995,
      "v": 64
    },
    {
      "midi": 53,
      "hit": false,
      "t": 2678.9562499999997,
      "d": 107.15824999999995,
      "v": 64
    },
    {
      "midi": 34,
      "hit": false,
      "t": 2690.676683593749,
      "d": 102.97238085937488,
      "v": 42
    },
    {
      "midi": 41,
      "hit": false,
      "t": 2690.676683593749,
      "d": 102.97238085937488,
      "v": 58
    },
    {
      "midi": 46,
      "hit": false,
      "t": 2786.1144999999997,
      "d": 107.15824999999995,
      "v": 64
    },
    {
      "midi": 53,
      "hit": false,
      "t": 2786.1144999999997,
      "d": 107.15824999999995,
      "v": 64
    },
    {
      "midi": 34,
      "hit": false,
      "t": 2794.0676513671865,
      "d": 103.3909677734373,
      "v": 42
    },
    {
      "midi": 41,
      "hit": false,
      "t": 2794.0676513671865,
      "d": 103.3909677734373,
      "v": 54
    },
    {
      "midi": 46,
      "hit": false,
      "t": 2893.2727499999996,
      "d": 107.15824999999995,
      "v": 64
    },
    {
      "midi": 53,
      "hit": false,
      "t": 2893.2727499999996,
      "d": 107.15824999999995,
      "v": 64
    },
    {
      "midi": 34,
      "hit": false,
      "t": 2897.877206054686,
      "d": 107.15824999999995,
      "v": 42
    },
    {
      "midi": 41,
      "hit": false,
      "t": 2897.877206054686,
      "d": 107.15824999999995,
      "v": 54
    },
    {
      "midi": 46,
      "hit": false,
      "t": 3000.4309999999996,
      "d": 107.15824999999995,
      "v": 64
    },
    {
      "midi": 53,
      "hit": false,
      "t": 3000.4309999999996,
      "d": 107.15824999999995,
      "v": 64
    },
    {
      "midi": 41,
      "hit": false,
      "t": 3005.4540429687486,
      "d": 107.15824999999995,
      "v": 59
    },
    {
      "midi": 34,
      "hit": false,
      "t": 3005.4540429687486,
      "d": 113.43705371093756,
      "v": 43
    },
    {
      "midi": 45,
      "hit": false,
      "t": 3107.5892499999995,
      "d": 321.47474999999986,
      "v": 64
    },
    {
      "midi": 50,
      "hit": false,
      "t": 3107.5892499999995,
      "d": 321.47474999999986,
      "v": 64
    },
    {
      "midi": 33,
      "hit": false,
      "t": 3113.030879882811,
      "d": 315.6145332031251,
      "v": 53
    },
    {
      "midi": 38,
      "hit": false,
      "t": 3113.030879882811,
      "d": 315.6145332031251,
      "v": 69
    },
    {
      "midi": 42,
      "hit": false,
      "t": 3430.7383476562486,
      "d": 122.22737890625012,
      "v": 61
    },
    {
      "midi": 45,
      "hit": false,
      "t": 3430.7383476562486,
      "d": 122.22737890625012,
      "v": 61
    },
    {
      "midi": 54,
      "hit": false,
      "t": 3430.7383476562486,
      "d": 122.22737890625012,
      "v": 75
    },
    {
      "midi": 63,
      "hit": false,
      "t": 3430.7383476562495,
      "d": 122.22737890625012,
      "v": 61
    },
    {
      "midi": 66,
      "hit": false,
      "t": 3430.7383476562495,
      "d": 122.22737890625012,
      "v": 61
    },
    {
      "midi": 75,
      "hit": false,
      "t": 3430.7383476562495,
      "d": 122.22737890625012,
      "v": 75
    },
    {
      "midi": 42,
      "hit": false,
      "t": 3553.384313476561,
      "d": 79.53151367187502,
      "v": 56
    },
    {
      "midi": 45,
      "hit": false,
      "t": 3553.384313476561,
      "d": 79.53151367187502,
      "v": 56
    },
    {
      "midi": 54,
      "hit": false,
      "t": 3553.384313476561,
      "d": 79.53151367187502,
      "v": 66
    },
    {
      "midi": 63,
      "hit": false,
      "t": 3553.384313476562,
      "d": 79.53151367187502,
      "v": 44
    },
    {
      "midi": 66,
      "hit": false,
      "t": 3553.384313476562,
      "d": 79.53151367187502,
      "v": 44
    },
    {
      "midi": 75,
      "hit": false,
      "t": 3553.384313476562,
      "d": 79.53151367187502,
      "v": 54
    },
    {
      "midi": 42,
      "hit": false,
      "t": 3761.8405966796863,
      "d": 423.19137011718794,
      "v": 56
    },
    {
      "midi": 45,
      "hit": false,
      "t": 3761.8405966796863,
      "d": 423.19137011718794,
      "v": 56
    },
    {
      "midi": 54,
      "hit": false,
      "t": 3761.8405966796863,
      "d": 423.19137011718794,
      "v": 70
    },
    {
      "midi": 75,
      "hit": false,
      "t": 3761.840596679687,
      "d": 215.99084765625003,
      "v": 58
    },
    {
      "midi": 63,
      "hit": false,
      "t": 3761.840596679687,
      "d": 228.96704199218766,
      "v": 44
    },
    {
      "midi": 66,
      "hit": false,
      "t": 3761.840596679687,
      "d": 228.96704199218766,
      "v": 44
    },
    {
      "midi": 66,
      "hit": false,
      "t": 4295.120325195312,
      "d": 109.6697714843749,
      "v": 59
    },
    {
      "midi": 69,
      "hit": false,
      "t": 4295.120325195312,
      "d": 109.6697714843749,
      "v": 59
    },
    {
      "midi": 78,
      "hit": false,
      "t": 4295.120325195312,
      "d": 109.6697714843749,
      "v": 73
    },
    {
      "midi": 45,
      "hit": false,
      "t": 4295.120325195312,
      "d": 109.6697714843749,
      "v": 59
    },
    {
      "midi": 48,
      "hit": false,
      "t": 4295.120325195312,
      "d": 109.6697714843749,
      "v": 59
    },
    {
      "midi": 57,
      "hit": false,
      "t": 4295.120325195312,
      "d": 109.6697714843749,
      "v": 73
    },
    {
      "midi": 66,
      "hit": false,
      "t": 4405.20868359375,
      "d": 78.27575292968777,
      "v": 44
    },
    {
      "midi": 69,
      "hit": false,
      "t": 4405.20868359375,
      "d": 78.27575292968777,
      "v": 44
    },
    {
      "midi": 78,
      "hit": false,
      "t": 4405.20868359375,
      "d": 78.27575292968777,
      "v": 54
    },
    {
      "midi": 45,
      "hit": false,
      "t": 4405.20868359375,
      "d": 78.27575292968777,
      "v": 56
    },
    {
      "midi": 48,
      "hit": false,
      "t": 4405.20868359375,
      "d": 78.27575292968777,
      "v": 56
    },
    {
      "midi": 57,
      "hit": false,
      "t": 4405.20868359375,
      "d": 78.27575292968777,
      "v": 66
    },
    {
      "midi": 78,
      "hit": false,
      "t": 4612.409206054687,
      "d": 214.73508691406278,
      "v": 58
    },
    {
      "midi": 66,
      "hit": false,
      "t": 4612.409206054687,
      "d": 227.71128124999996,
      "v": 44
    },
    {
      "midi": 69,
      "hit": false,
      "t": 4612.409206054687,
      "d": 227.71128124999996,
      "v": 44
    },
    {
      "midi": 45,
      "hit": false,
      "t": 4612.409206054687,
      "d": 422.3541962890622,
      "v": 56
    },
    {
      "midi": 48,
      "hit": false,
      "t": 4612.409206054687,
      "d": 422.3541962890622,
      "v": 56
    },
    {
      "midi": 57,
      "hit": false,
      "t": 4612.409206054687,
      "d": 422.3541962890622,
      "v": 70
    },
    {
      "midi": 43,
      "hit": false,
      "t": 5145.270347656249,
      "d": 1712.4390654296876,
      "v": 56
    },
    {
      "midi": 50,
      "hit": false,
      "t": 5145.270347656249,
      "d": 1712.4390654296876,
      "v": 56
    },
    {
      "midi": 55,
      "hit": false,
      "t": 5145.270347656249,
      "d": 1712.4390654296876,
      "v": 70
    },
    {
      "midi": 67,
      "hit": false,
      "t": 5145.27034765625,
      "d": 213.89791308593794,
      "v": 61
    },
    {
      "midi": 71,
      "hit": false,
      "t": 5145.27034765625,
      "d": 213.89791308593794,
      "v": 61
    },
    {
      "midi": 79,
      "hit": false,
      "t": 5145.27034765625,
      "d": 226.45552050781316,
      "v": 75
    },
    {
      "midi": 65,
      "hit": false,
      "t": 5372.144455078126,
      "d": 199.66595800781215,
      "v": 56
    },
    {
      "midi": 69,
      "hit": false,
      "t": 5372.144455078126,
      "d": 199.66595800781215,
      "v": 56
    },
    {
      "midi": 77,
      "hit": false,
      "t": 5372.144455078126,
      "d": 212.22356542968737,
      "v": 70
    },
    {
      "midi": 63,
      "hit": false,
      "t": 5584.786607421876,
      "d": 101.29803320312476,
      "v": 57
    },
    {
      "midi": 67,
      "hit": false,
      "t": 5584.786607421876,
      "d": 101.29803320312476,
      "v": 57
    },
    {
      "midi": 75,
      "hit": false,
      "t": 5584.786607421876,
      "d": 107.57683691406237,
      "v": 71
    },
    {
      "midi": 65,
      "hit": false,
      "t": 5692.782031250002,
      "d": 96.69357714843773,
      "v": 56
    },
    {
      "midi": 68,
      "hit": false,
      "t": 5692.782031250002,
      "d": 96.69357714843773,
      "v": 56
    },
    {
      "midi": 77,
      "hit": false,
      "t": 5692.782031250002,
      "d": 102.97238085937533,
      "v": 70
    },
    {
      "midi": 66,
      "hit": false,
      "t": 5796.17299902344,
      "d": 97.11216406249969,
      "v": 56
    },
    {
      "midi": 69,
      "hit": false,
      "t": 5796.17299902344,
      "d": 97.11216406249969,
      "v": 56
    },
    {
      "midi": 78,
      "hit": false,
      "t": 5796.17299902344,
      "d": 103.3909677734373,
      "v": 70
    },
    {
      "midi": 67,
      "hit": false,
      "t": 5899.98255371094,
      "d": 957.7268593750005,
      "v": 56
    },
    {
      "midi": 71,
      "hit": false,
      "t": 5899.98255371094,
      "d": 957.7268593750005,
      "v": 56
    },
    {
      "midi": 79,
      "hit": false,
      "t": 5899.98255371094,
      "d": 957.7268593750005,
      "v": 70
    }
  ]
}