{
  "jsonPath": "Rap/Pop Rap/Jennifer Lopez/lets-get-loud.json",
  "path": "Rap\\Pop Rap\\Jennifer Lopez\\Lets Get Loud.mid",
  "name": "Lets Get Loud",
  "difficulty": "Advanced",
  "bpm": 132.000132000132,
  "notes": [
    {
      "midi": 60,
      "hit": false,
      "t": 16606.044,
      "d": 116.4771562499991,
      "v": 118
    },
    {
      "midi": 63,
      "hit": false,
      "t": 16606.044,
      "d": 129.73471874999814,
      "v": 118
    },
    {
      "midi": 67,
      "hit": false,
      "t": 16606.044,
      "d": 144.88621874999808,
      "v": 124
    },
    {
      "midi": 60,
      "hit": false,
      "t": 17060.589,
      "d": 178.97709374999977,
      "v": 121
    },
    {
      "midi": 63,
      "hit": false,
      "t": 17060.589,
      "d": 178.97709374999977,
      "v": 121
    },
    {
      "midi": 67,
      "hit": false,
      "t": 17060.589,
      "d": 189.39374999999927,
      "v": 124
    },
    {
      "midi": 60,
      "hit": false,
      "t": 17742.4065,
      "d": 186.55284374999974,
      "v": 121
    },
    {
      "midi": 63,
      "hit": false,
      "t": 17742.4065,
      "d": 195.07556249999834,
      "v": 121
    },
    {
      "midi": 68,
      "hit": false,
      "t": 17742.4065,
      "d": 212.12099999999919,
      "v": 121
    },
    {
      "midi": 62,
      "hit": false,
      "t": 18196.9515,
      "d": 101.32565624999916,
      "v": 118
    },
    {
      "midi": 67,
      "hit": false,
      "t": 18196.9515,
      "d": 125.94684374999997,
      "v": 118
    },
    {
      "midi": 59,
      "hit": false,
      "t": 18196.9515,
      "d": 173.2952812500007,
      "v": 121
    },
    {
      "midi": 62,
      "hit": false,
      "t": 18651.4965,
      "d": 108.90140624999913,
      "v": 121
    },
    {
      "midi": 67,
      "hit": false,
      "t": 18651.4965,
      "d": 143.93924999999945,
      "v": 124
    },
    {
      "midi": 59,
      "hit": false,
      "t": 18651.4965,
      "d": 163.82559374999983,
      "v": 124
    },
    {
      "midi": 59,
      "hit": false,
      "t": 19106.0415,
      "d": 77.65143750000061,
      "v": 110
    },
    {
      "midi": 62,
      "hit": false,
      "t": 19106.0415,
      "d": 82.38628125000105,
      "v": 112
    },
    {
      "midi": 68,
      "hit": false,
      "t": 19333.314000000002,
      "d": 316.2875625000015,
      "v": 121
    },
    {
      "midi": 62,
      "hit": false,
      "t": 19333.314000000002,
      "d": 317.23453125000015,
      "v": 116
    },
    {
      "midi": 59,
      "hit": false,
      "t": 19333.314000000002,
      "d": 342.8026874999996,
      "v": 116
    },
    {
      "midi": 62,
      "hit": false,
      "t": 19787.859,
      "d": 296.40121875000114,
      "v": 118
    },
    {
      "midi": 68,
      "hit": false,
      "t": 19787.859,
      "d": 299.24212500000067,
      "v": 116
    },
    {
      "midi": 59,
      "hit": false,
      "t": 19787.859,
      "d": 305.870906250002,
      "v": 118
    },
    {
      "midi": 60,
      "hit": false,
      "t": 20242.404000000002,
      "d": 116.4771562499991,
      "v": 118
    },
    {
      "midi": 63,
      "hit": false,
      "t": 20242.404000000002,
      "d": 129.73471874999814,
      "v": 118
    },
    {
      "midi": 67,
      "hit": false,
      "t": 20242.404000000002,
      "d": 144.88621874999808,
      "v": 124
    },
    {
      "midi": 60,
      "hit": false,
      "t": 20696.949,
      "d": 178.97709374999977,
      "v": 121
    },
    {
      "midi": 63,
      "hit": false,
      "t": 20696.949,
      "d": 178.97709374999977,
      "v": 121
    },
    {
      "midi": 67,
      "hit": false,
      "t": 20696.949,
      "d": 189.39374999999927,
      "v": 124
    },
    {
      "midi": 60,
      "hit": false,
      "t": 21378.7665,
      "d": 186.55284374999974,
      "v": 121
    },
    {
      "midi": 63,
      "hit": false,
      "t": 21378.7665,
      "d": 195.07556249999834,
      "v": 121
    },
    {
      "midi": 68,
      "hit": false,
      "t": 21378.7665,
      "d": 212.12099999999919,
      "v": 121
    },
    {
      "midi": 62,
      "hit": false,
      "t": 21833.3115,
      "d": 101.32565624999916,
      "v": 118
    },
    {
      "midi": 67,
      "hit": false,
      "t": 21833.3115,
      "d": 125.94684374999997,
      "v": 118
    },
    {
      "midi": 59,
      "hit": false,
      "t": 21833.3115,
      "d": 173.2952812500007,
      "v": 121
    },
    {
      "midi": 62,
      "hit": false,
      "t": 22287.8565,
      "d": 108.90140624999913,
      "v": 121
    },
    {
      "midi": 67,
      "hit": false,
      "t": 22287.8565,
      "d": 143.93924999999945,
      "v": 124
    },
    {
      "midi": 59,
      "hit": false,
      "t": 22287.8565,
      "d": 163.82559374999983,
      "v": 124
    },
    {
      "midi": 59,
      "hit": false,
      "t": 22742.4015,
      "d": 77.65143750000061,
      "v": 110
    },
    {
      "midi": 62,
      "hit": false,
      "t": 22742.4015,
      "d": 82.38628125000105,
      "v": 112
    },
    {
      "midi": 68,
      "hit": false,
      "t": 22969.674000000003,
      "d": 316.2875625000015,
      "v": 121
    },
    {
      "midi": 62,
      "hit": false,
      "t": 22969.674000000003,
      "d": 317.23453125000015,
      "v": 116
    },
    {
      "midi": 59,
      "hit": false,
      "t": 22969.674000000003,
      "d": 342.8026874999996,
      "v": 116
    },
    {
      "midi": 62,
      "hit": false,
      "t": 23424.219,
      "d": 296.40121875000114,
      "v": 118
    },
    {
      "midi": 68,
      "hit": false,
      "t": 23424.219,
      "d": 299.24212500000067,
      "v": 116
    },
    {
      "midi": 59,
      "hit": false,
      "t": 23424.219,
      "d": 305.870906250002,
      "v": 118
    },
    {
      "midi": 60,
      "hit": false,
      "t": 23878.764000000003,
      "d": 116.4771562499991,
      "v": 118
    },
    {
      "midi": 63,
      "hit": false,
      "t": 23878.764000000003,
      "d": 129.73471874999814,
      "v": 118
    },
    {
      "midi": 67,
      "hit": false,
      "t": 23878.764000000003,
      "d": 144.88621874999808,
      "v": 124
    },
    {
      "midi": 60,
      "hit": false,
      "t": 24333.309,
      "d": 178.97709374999977,
      "v": 121
    },
    {
      "midi": 63,
      "hit": false,
      "t": 24333.309,
      "d": 178.97709374999977,
      "v": 121
    },
    {
      "midi": 67,
      "hit": false,
      "t": 24333.309,
      "d": 189.39374999999927,
      "v": 124
    },
    {
      "midi": 60,
      "hit": false,
      "t": 25015.126500000002,
      "d": 186.55284374999974,
      "v": 121
    },
    {
      "midi": 63,
      "hit": false,
      "t": 25015.126500000002,
      "d": 195.07556249999834,
      "v": 121
    },
    {
      "midi": 68,
      "hit": false,
      "t": 25015.126500000002,
      "d": 212.12099999999919,
      "v": 121
    },
    {
      "midi": 62,
      "hit": false,
      "t": 25469.6715,
      "d": 101.32565624999916,
      "v": 118
    },
    {
      "midi": 67,
      "hit": false,
      "t": 25469.6715,
      "d": 125.94684374999997,
      "v": 118
    },
    {
      "midi": 59,
      "hit": false,
      "t": 25469.6715,
      "d": 173.2952812500007,
      "v": 121
    },
    {
      "midi": 62,
      "hit": false,
      "t": 25924.216500000002,
      "d": 108.90140624999913,
      "v": 121
    },
    {
      "midi": 67,
      "hit": false,
      "t": 25924.216500000002,
      "d": 143.93924999999945,
      "v": 124
    },
    {
      "midi": 59,
      "hit": false,
      "t": 25924.216500000002,
      "d": 163.82559374999983,
      "v": 124
    },
    {
      "midi": 59,
      "hit": false,
      "t": 26378.7615,
      "d": 77.65143750000061,
      "v": 110
    },
    {
      "midi": 62,
      "hit": false,
      "t": 26378.7615,
      "d": 82.38628125000105,
      "v": 112
    },
    {
      "midi": 68,
      "hit": false,
      "t": 26606.034000000003,
      "d": 316.2875625000015,
      "v": 121
    },
    {
      "midi": 62,
      "hit": false,
      "t": 26606.034000000003,
      "d": 317.23453125000015,
      "v": 116
    },
    {
      "midi": 59,
      "hit": false,
      "t": 26606.034000000003,
      "d": 342.8026874999996,
      "v": 116
    },
    {
      "midi": 62,
      "hit": false,
      "t": 27060.579,
      "d": 296.40121875000114,
      "v": 118
    },
    {
      "midi": 68,
      "hit": false,
      "t": 27060.579,
      "d": 299.24212500000067,
      "v": 116
    },
    {
      "midi": 59,
      "hit": false,
      "t": 27060.579,
      "d": 305.870906250002,
      "v": 118
    },
    {
      "midi": 60,
      "hit": false,
      "t": 27515.124000000003,
      "d": 116.4771562499991,
      "v": 118
    },
    {
      "midi": 63,
      "hit": false,
      "t": 27515.124000000003,
      "d": 129.73471874999814,
      "v": 118
    },
    {
      "midi": 67,
      "hit": false,
      "t": 27515.124000000003,
      "d": 144.88621874999808,
      "v": 124
    },
    {
      "midi": 60,
      "hit": false,
      "t": 27969.669,
      "d": 178.97709374999977,
      "v": 121
    },
    {
      "midi": 63,
      "hit": false,
      "t": 27969.669,
      "d": 178.97709374999977,
      "v": 121
    },
    {
      "midi": 67,
      "hit": false,
      "t": 27969.669,
      "d": 189.39374999999927,
      "v": 124
    },
    {
      "midi": 60,
      "hit": false,
      "t": 28651.486500000003,
      "d": 186.55284374999974,
      "v": 121
    },
    {
      "midi": 63,
      "hit": false,
      "t": 28651.486500000003,
      "d": 195.07556249999834,
      "v": 121
    },
    {
      "midi": 68,
      "hit": false,
      "t": 28651.486500000003,
      "d": 212.12099999999919,
      "v": 121
    },
    {
      "midi": 62,
      "hit": false,
      "t": 29106.0315,
      "d": 101.32565624999916,
      "v": 118
    },
    {
      "midi": 67,
      "hit": false,
      "t": 29106.0315,
      "d": 125.94684374999997,
      "v": 118
    },
    {
      "midi": 59,
      "hit": false,
      "t": 29106.0315,
      "d": 173.2952812500007,
      "v": 121
    },
    {
      "midi": 62,
      "hit": false,
      "t": 29560.576500000003,
      "d": 108.90140624999913,
      "v": 121
    },
    {
      "midi": 67,
      "hit": false,
      "t": 29560.576500000003,
      "d": 143.93924999999945,
      "v": 124
    },
    {
      "midi": 59,
      "hit": false,
      "t": 29560.576500000003,
      "d": 163.82559374999983,
      "v": 124
    },
    {
      "midi": 59,
      "hit": false,
      "t": 30015.1215,
      "d": 77.65143750000061,
      "v": 110
    },
    {
      "midi": 62,
      "hit": false,
      "t": 30015.1215,
      "d": 82.38628125000105,
      "v": 112
    },
    {
      "midi": 68,
      "hit": false,
      "t": 30242.394000000004,
      "d": 316.2875625000015,
      "v": 121
    },
    {
      "midi": 62,
      "hit": false,
      "t": 30242.394000000004,
      "d": 317.23453125000015,
      "v": 116
    },
    {
      "midi": 59,
      "hit": false,
      "t": 30242.394000000004,
      "d": 342.8026874999996,
      "v": 116
    },
    {
      "midi": 62,
      "hit": false,
      "t": 30696.939000000002,
      "d": 296.40121875000114,
      "v": 118
    },
    {
      "midi": 68,
      "hit": false,
      "t": 30696.939000000002,
      "d": 299.24212500000067,
      "v": 116
    },
    {
      "midi": 59,
      "hit": false,
      "t": 30696.939000000002,
      "d": 305.870906250002,
      "v": 118
    },
    {
      "midi": 60,
      "hit": false,
      "t": 31151.484000000004,
      "d": 116.4771562499991,
      "v": 118
    },
    {
      "midi": 63,
      "hit": false,
      "t": 31151.484000000004,
      "d": 129.73471874999814,
      "v": 118
    },
    {
      "midi": 67,
      "hit": false,
      "t": 31151.484000000004,
      "d": 144.88621874999808,
      "v": 124
    },
    {
      "midi": 60,
      "hit": false,
      "t": 31606.029000000002,
      "d": 178.97709374999977,
      "v": 121
    },
    {
      "midi": 63,
      "hit": false,
      "t": 31606.029000000002,
      "d": 178.97709374999977,
      "v": 121
    },
    {
      "midi": 67,
      "hit": false,
      "t": 31606.029000000002,
      "d": 189.39374999999927,
      "v": 124
    },
    {
      "midi": 60,
      "hit": false,
      "t": 32287.846500000003,
      "d": 186.55284374999974,
      "v": 121
    },
    {
      "midi": 63,
      "hit": false,
      "t": 32287.846500000003,
      "d": 195.07556249999834,
      "v": 121
    },
    {
      "midi": 68,
      "hit": false,
      "t": 32287.846500000003,
      "d": 212.12099999999919,
      "v": 121
    },
    {
      "midi": 62,
      "hit": false,
      "t": 32742.3915,
      "d": 101.32565624999916,
      "v": 118
    },
    {
      "midi": 67,
      "hit": false,
      "t": 32742.3915,
      "d": 125.94684374999997,
      "v": 118
    },
    {
      "midi": 59,
      "hit": false,
      "t": 32742.3915,
      "d": 173.29528124999706,
      "v": 121
    },
    {
      "midi": 62,
      "hit": false,
      "t": 33196.936499999996,
      "d": 108.90140624999913,
      "v": 121
    },
    {
      "midi": 67,
      "hit": false,
      "t": 33196.936499999996,
      "d": 143.9392499999958,
      "v": 124
    },
    {
      "midi": 59,
      "hit": false,
      "t": 33196.936499999996,
      "d": 163.82559374999255,
      "v": 124
    },
    {
      "midi": 59,
      "hit": false,
      "t": 33651.48149999999,
      "d": 77.65143749999697,
      "v": 110
    },
    {
      "midi": 62,
      "hit": false,
      "t": 33651.48149999999,
      "d": 82.38628124999377,
      "v": 112
    },
    {
      "midi": 68,
      "hit": false,
      "t": 33878.75399999998,
      "d": 316.2875625000015,
      "v": 121
    },
    {
      "midi": 62,
      "hit": false,
      "t": 33878.75399999998,
      "d": 317.2345312500038,
      "v": 116
    },
    {
      "midi": 59,
      "hit": false,
      "t": 33878.75399999998,
      "d": 342.80268750000687,
      "v": 116
    },
    {
      "midi": 62,
      "hit": false,
      "t": 34333.298999999985,
      "d": 296.4012187499975,
      "v": 118
    },
    {
      "midi": 68,
      "hit": false,
      "t": 34333.298999999985,
      "d": 299.24212499999703,
      "v": 116
    },
    {
      "midi": 59,
      "hit": false,
      "t": 34333.298999999985,
      "d": 305.87090624999837,
      "v": 118
    },
    {
      "midi": 60,
      "hit": false,
      "t": 34787.84399999998,
      "d": 116.47715625000274,
      "v": 118
    },
    {
      "midi": 63,
      "hit": false,
      "t": 34787.84399999998,
      "d": 129.7347187500054,
      "v": 118
    },
    {
      "midi": 67,
      "hit": false,
      "t": 34787.84399999998,
      "d": 144.88621875000536,
      "v": 124
    },
    {
      "midi": 60,
      "hit": false,
      "t": 35242.38899999999,
      "d": 178.97709374999977,
      "v": 121
    },
    {
      "midi": 63,
      "hit": false,
      "t": 35242.38899999999,
      "d": 178.97709374999977,
      "v": 121
    },
    {
      "midi": 67,
      "hit": false,
      "t": 35242.38899999999,
      "d": 189.3937500000029,
      "v": 124
    },
    {
      "midi": 60,
      "hit": false,
      "t": 35924.20649999999,
      "d": 186.55284375000338,
      "v": 121
    },
    {
      "midi": 63,
      "hit": false,
      "t": 35924.20649999999,
      "d": 195.07556250000198,
      "v": 121
    },
    {
      "midi": 68,
      "hit": false,
      "t": 35924.20649999999,
      "d": 212.12099999999919,
      "v": 121
    },
    {
      "midi": 62,
      "hit": false,
      "t": 36378.75149999999,
      "d": 101.3256562500028,
      "v": 118
    },
    {
      "midi": 67,
      "hit": false,
      "t": 36378.75149999999,
      "d": 125.94684375000361,
      "v": 118
    },
    {
      "midi": 59,
      "hit": false,
      "t": 36378.75149999999,
      "d": 173.2952812500007,
      "v": 121
    },
    {
      "midi": 62,
      "hit": false,
      "t": 36833.29649999999,
      "d": 108.90140624999913,
      "v": 121
    },
    {
      "midi": 67,
      "hit": false,
      "t": 36833.29649999999,
      "d": 143.9392499999958,
      "v": 124
    },
    {
      "midi": 59,
      "hit": false,
      "t": 36833.29649999999,
      "d": 163.82559374999255,
      "v": 124
    },
    {
      "midi": 59,
      "hit": false,
      "t": 37287.84149999998,
      "d": 77.65143749999697,
      "v": 110
    },
    {
      "midi": 62,
      "hit": false,
      "t": 37287.84149999998,
      "d": 82.38628124999377,
      "v": 112
    },
    {
      "midi": 68,
      "hit": false,
      "t": 37515.11399999997,
      "d": 316.2875625000015,
      "v": 121
    },
    {
      "midi": 62,
      "hit": false,
      "t": 37515.11399999997,
      "d": 317.2345312500038,
      "v": 116
    },
    {
      "midi": 59,
      "hit": false,
      "t": 37515.11399999997,
      "d": 342.80268750000687,
      "v": 116
    },
    {
      "midi": 62,
      "hit": false,
      "t": 37969.65899999998,
      "d": 296.4012187499975,
      "v": 118
    },
    {
      "midi": 68,
      "hit": false,
      "t": 37969.65899999998,
      "d": 299.24212499999703,
      "v": 116
    },
    {
      "midi": 59,
      "hit": false,
      "t": 37969.65899999998,
      "d": 305.87090624999837,
      "v": 118
    },
    {
      "midi": 67,
      "hit": false,
      "t": 38424.203999999976,
      "d": 460.2268124999973,
      "v": 107
    },
    {
      "midi": 63,
      "hit": false,
      "t": 38424.203999999976,
      "d": 462.1207499999946,
      "v": 94
    },
    {
      "midi": 69,
      "hit": false,
      "t": 38424.203999999976,
      "d": 466.8555937499914,
      "v": 107
    },
    {
      "midi": 60,
      "hit": false,
      "t": 38424.203999999976,
      "d": 471.5904374999882,
      "v": 103
    },
    {
      "midi": 77,
      "hit": false,
      "t": 38878.748999999974,
      "d": 148.6740937499926,
      "v": 100
    },
    {
      "midi": 75,
      "hit": false,
      "t": 38878.748999999974,
      "d": 169.50740624999162,
      "v": 98
    },
    {
      "midi": 67,
      "hit": false,
      "t": 39106.021499999966,
      "d": 403.40868749999936,
      "v": 102
    },
    {
      "midi": 69,
      "hit": false,
      "t": 39106.021499999966,
      "d": 406.2495937499989,
      "v": 103
    },
    {
      "midi": 63,
      "hit": false,
      "t": 39106.021499999966,
      "d": 453.598031249996,
      "v": 88
    },
    {
      "midi": 72,
      "hit": false,
      "t": 39560.566499999964,
      "d": 105.11353124999732,
      "v": 95
    },
    {
      "midi": 77,
      "hit": false,
      "t": 39560.566499999964,
      "d": 117.42412499999773,
      "v": 98
    },
    {
      "midi": 68,
      "hit": false,
      "t": 39560.566499999964,
      "d": 167.61346874999435,
      "v": 91
    },
    {
      "midi": 74,
      "hit": false,
      "t": 40015.111499999955,
      "d": 407.19656250000116,
      "v": 107
    },
    {
      "midi": 67,
      "hit": false,
      "t": 40015.111499999955,
      "d": 464.0146874999991,
      "v": 105
    },
    {
      "midi": 72,
      "hit": false,
      "t": 40015.111499999955,
      "d": 582.3857812499991,
      "v": 105
    },
    {
      "midi": 80,
      "hit": false,
      "t": 40469.656499999954,
      "d": 110.79534375000367,
      "v": 97
    },
    {
      "midi": 77,
      "hit": false,
      "t": 40469.656499999954,
      "d": 123.10593750000407,
      "v": 99
    },
    {
      "midi": 71,
      "hit": false,
      "t": 40924.20149999995,
      "d": 117.42412499999773,
      "v": 100
    },
    {
      "midi": 67,
      "hit": false,
      "t": 40924.20149999995,
      "d": 128.78774999999587,
      "v": 102
    },
    {
      "midi": 71,
      "hit": false,
      "t": 41151.47399999995,
      "d": 207.3861562500024,
      "v": 103
    },
    {
      "midi": 80,
      "hit": false,
      "t": 41151.47399999995,
      "d": 211.1740312500042,
      "v": 102
    },
    {
      "midi": 67,
      "hit": false,
      "t": 41151.47399999995,
      "d": 220.64371875000506,
      "v": 103
    },
    {
      "midi": 67,
      "hit": false,
      "t": 41378.74649999996,
      "d": 97.53778125000099,
      "v": 82
    },
    {
      "midi": 71,
      "hit": false,
      "t": 41378.74649999996,
      "d": 108.90140624999913,
      "v": 84
    },
    {
      "midi": 79,
      "hit": false,
      "t": 41378.74649999996,
      "d": 196.96949999999924,
      "v": 98
    },
    {
      "midi": 80,
      "hit": false,
      "t": 41606.01899999996,
      "d": 183.71193749999657,
      "v": 99
    },
    {
      "midi": 67,
      "hit": false,
      "t": 41606.01899999996,
      "d": 249.0527812500004,
      "v": 103
    },
    {
      "midi": 71,
      "hit": false,
      "t": 41606.01899999996,
      "d": 262.3103437500031,
      "v": 94
    },
    {
      "midi": 79,
      "hit": false,
      "t": 41833.291499999956,
      "d": 157.19681250000576,
      "v": 92
    },
    {
      "midi": 67,
      "hit": false,
      "t": 42060.56399999996,
      "d": 460.2268124999973,
      "v": 107
    },
    {
      "midi": 63,
      "hit": false,
      "t": 42060.56399999996,
      "d": 462.1207499999946,
      "v": 94
    },
    {
      "midi": 69,
      "hit": false,
      "t": 42060.56399999996,
      "d": 466.8555937499914,
      "v": 107
    },
    {
      "midi": 60,
      "hit": false,
      "t": 42060.56399999996,
      "d": 471.5904374999882,
      "v": 103
    },
    {
      "midi": 77,
      "hit": false,
      "t": 42515.10899999996,
      "d": 148.6740937499926,
      "v": 100
    },
    {
      "midi": 75,
      "hit": false,
      "t": 42515.10899999996,
      "d": 169.50740624999162,
      "v": 98
    },
    {
      "midi": 67,
      "hit": false,
      "t": 42742.38149999995,
      "d": 403.40868749999936,
      "v": 102
    },
    {
      "midi": 69,
      "hit": false,
      "t": 42742.38149999995,
      "d": 406.2495937499989,
      "v": 103
    },
    {
      "midi": 63,
      "hit": false,
      "t": 42742.38149999995,
      "d": 453.598031249996,
      "v": 88
    },
    {
      "midi": 72,
      "hit": false,
      "t": 43196.92649999995,
      "d": 105.11353124999732,
      "v": 95
    },
    {
      "midi": 77,
      "hit": false,
      "t": 43196.92649999995,
      "d": 117.42412499999773,
      "v": 98
    },
    {
      "midi": 68,
      "hit": false,
      "t": 43196.92649999995,
      "d": 167.61346874999435,
      "v": 91
    },
    {
      "midi": 71,
      "hit": false,
      "t": 43651.47149999994,
      "d": 116.47715625000274,
      "v": 107
    },
    {
      "midi": 67,
      "hit": false,
      "t": 43651.47149999994,
      "d": 134.4695625000022,
      "v": 107
    },
    {
      "midi": 67,
      "hit": false,
      "t": 44106.01649999995,
      "d": 134.4695625000022,
      "v": 107
    },
    {
      "midi": 71,
      "hit": false,
      "t": 44106.01649999995,
      "d": 140.15137500000128,
      "v": 105
    },
    {
      "midi": 71,
      "hit": false,
      "t": 44560.561499999945,
      "d": 115.53018750000047,
      "v": 103
    },
    {
      "midi": 67,
      "hit": false,
      "t": 44560.561499999945,
      "d": 144.88621874999808,
      "v": 102
    },
    {
      "midi": 74,
      "hit": false,
      "t": 44560.561499999945,
      "d": 155.30287500000122,
      "v": 105
    },
    {
      "midi": 80,
      "hit": false,
      "t": 44787.833999999944,
      "d": 358.9011562500018,
      "v": 105
    },
    {
      "midi": 71,
      "hit": false,
      "t": 44787.833999999944,
      "d": 388.2571874999994,
      "v": 102
    },
    {
      "midi": 68,
      "hit": false,
      "t": 44787.833999999944,
      "d": 443.1813750000001,
      "v": 103
    },
    {
      "midi": 79,
      "hit": false,
      "t": 45242.37899999994,
      "d": 279.3557812500003,
      "v": 100
    },
    {
      "midi": 71,
      "hit": false,
      "t": 45242.37899999994,
      "d": 281.24971874999756,
      "v": 100
    },
    {
      "midi": 67,
      "hit": false,
      "t": 45242.37899999994,
      "d": 309.6587812500002,
      "v": 99
    },
    {
      "midi": 67,
      "hit": false,
      "t": 45696.92399999994,
      "d": 460.2268124999973,
      "v": 107
    },
    {
      "midi": 63,
      "hit": false,
      "t": 45696.92399999994,
      "d": 462.1207499999946,
      "v": 94
    },
    {
      "midi": 69,
      "hit": false,
      "t": 45696.92399999994,
      "d": 466.8555937499914,
      "v": 107
    },
    {
      "midi": 60,
      "hit": false,
      "t": 45696.92399999994,
      "d": 471.5904374999882,
      "v": 103
    },
    {
      "midi": 77,
      "hit": false,
      "t": 46151.46899999994,
      "d": 148.6740937499926,
      "v": 100
    },
    {
      "midi": 75,
      "hit": false,
      "t": 46151.46899999994,
      "d": 169.50740624999162,
      "v": 98
    },
    {
      "midi": 67,
      "hit": false,
      "t": 46378.74149999993,
      "d": 403.40868749999936,
      "v": 102
    },
    {
      "midi": 69,
      "hit": false,
      "t": 46378.74149999993,
      "d": 406.2495937499989,
      "v": 103
    },
    {
      "midi": 63,
      "hit": false,
      "t": 46378.74149999993,
      "d": 453.598031249996,
      "v": 88
    },
    {
      "midi": 72,
      "hit": false,
      "t": 46833.28649999993,
      "d": 105.11353124999732,
      "v": 95
    },
    {
      "midi": 77,
      "hit": false,
      "t": 46833.28649999993,
      "d": 117.42412499999773,
      "v": 98
    },
    {
      "midi": 68,
      "hit": false,
      "t": 46833.28649999993,
      "d": 167.61346874999435,
      "v": 91
    },
    {
      "midi": 74,
      "hit": false,
      "t": 47287.83149999992,
      "d": 407.19656250000116,
      "v": 107
    },
    {
      "midi": 67,
      "hit": false,
      "t": 47287.83149999992,
      "d": 464.0146874999991,
      "v": 105
    },
    {
      "midi": 72,
      "hit": false,
      "t": 47287.83149999992,
      "d": 582.3857812499991,
      "v": 105
    },
    {
      "midi": 80,
      "hit": false,
      "t": 47742.37649999992,
      "d": 110.79534375000367,
      "v": 97
    },
    {
      "midi": 77,
      "hit": false,
      "t": 47742.37649999992,
      "d": 123.10593750000407,
      "v": 99
    },
    {
      "midi": 71,
      "hit": false,
      "t": 48196.92149999992,
      "d": 117.42412499999773,
      "v": 100
    },
    {
      "midi": 67,
      "hit": false,
      "t": 48196.92149999992,
      "d": 128.78774999999587,
      "v": 102
    },
    {
      "midi": 71,
      "hit": false,
      "t": 48424.193999999916,
      "d": 207.3861562500024,
      "v": 103
    },
    {
      "midi": 80,
      "hit": false,
      "t": 48424.193999999916,
      "d": 211.1740312500042,
      "v": 102
    },
    {
      "midi": 67,
      "hit": false,
      "t": 48424.193999999916,
      "d": 220.64371875000506,
      "v": 103
    },
    {
      "midi": 67,
      "hit": false,
      "t": 48651.46649999992,
      "d": 97.53778125000099,
      "v": 82
    },
    {
      "midi": 71,
      "hit": false,
      "t": 48651.46649999992,
      "d": 108.90140624999913,
      "v": 84
    },
    {
      "midi": 79,
      "hit": false,
      "t": 48651.46649999992,
      "d": 196.96949999999924,
      "v": 98
    },
    {
      "midi": 80,
      "hit": false,
      "t": 48878.73899999992,
      "d": 183.71193749999657,
      "v": 99
    },
    {
      "midi": 67,
      "hit": false,
      "t": 48878.73899999992,
      "d": 249.0527812500004,
      "v": 103
    },
    {
      "midi": 71,
      "hit": false,
      "t": 48878.73899999992,
      "d": 262.3103437500031,
      "v": 94
    },
    {
      "midi": 79,
      "hit": false,
      "t": 49106.01149999992,
      "d": 157.19681250000576,
      "v": 92
    },
    {
      "midi": 67,
      "hit": false,
      "t": 49333.28399999993,
      "d": 460.2268124999973,
      "v": 107
    },
    {
      "midi": 63,
      "hit": false,
      "t": 49333.28399999993,
      "d": 462.1207499999946,
      "v": 94
    },
    {
      "midi": 69,
      "hit": false,
      "t": 49333.28399999993,
      "d": 466.8555937499914,
      "v": 107
    },
    {
      "midi": 60,
      "hit": false,
      "t": 49333.28399999993,
      "d": 471.5904374999882,
      "v": 103
    },
    {
      "midi": 77,
      "hit": false,
      "t": 49787.828999999925,
      "d": 148.6740937499926,
      "v": 100
    },
    {
      "midi": 75,
      "hit": false,
      "t": 49787.828999999925,
      "d": 169.50740624999162,
      "v": 98
    },
    {
      "midi": 67,
      "hit": false,
      "t": 50015.10149999992,
      "d": 403.40868749999936,
      "v": 102
    },
    {
      "midi": 69,
      "hit": false,
      "t": 50015.10149999992,
      "d": 406.2495937499989,
      "v": 103
    },
    {
      "midi": 63,
      "hit": false,
      "t": 50015.10149999992,
      "d": 453.598031249996,
      "v": 88
    },
    {
      "midi": 72,
      "hit": false,
      "t": 50469.646499999915,
      "d": 105.11353124999732,
      "v": 95
    },
    {
      "midi": 77,
      "hit": false,
      "t": 50469.646499999915,
      "d": 117.42412499999773,
      "v": 98
    },
    {
      "midi": 68,
      "hit": false,
      "t": 50469.646499999915,
      "d": 167.61346874999435,
      "v": 91
    },
    {
      "midi": 77,
      "hit": false,
      "t": 50924.191499999906,
      "d": 392.9920312500035,
      "v": 105
    },
    {
      "midi": 74,
      "hit": false,
      "t": 50924.191499999906,
      "d": 404.35565625000163,
      "v": 105
    },
    {
      "midi": 68,
      "hit": false,
      "t": 51378.736499999904,
      "d": 192.23465625000244,
      "v": 91
    },
    {
      "midi": 65,
      "hit": false,
      "t": 51378.736499999904,
      "d": 203.59828125000058,
      "v": 95
    },
    {
      "midi": 77,
      "hit": false,
      "t": 51606.0089999999,
      "d": 159.09075000000303,
      "v": 97
    },
    {
      "midi": 74,
      "hit": false,
      "t": 51606.0089999999,
      "d": 167.61346875000163,
      "v": 100
    },
    {
      "midi": 77,
      "hit": false,
      "t": 51833.2814999999,
      "d": 173.2952812500007,
      "v": 82
    },
    {
      "midi": 80,
      "hit": false,
      "t": 51833.2814999999,
      "d": 176.13618750000023,
      "v": 97
    },
    {
      "midi": 74,
      "hit": false,
      "t": 52060.5539999999,
      "d": 129.73471874999814,
      "v": 107
    },
    {
      "midi": 71,
      "hit": false,
      "t": 52060.5539999999,
      "d": 194.1285937499997,
      "v": 105
    },
    {
      "midi": 77,
      "hit": false,
      "t": 52287.8264999999,
      "d": 134.4695625000022,
      "v": 102
    },
    {
      "midi": 74,
      "hit": false,
      "t": 52287.8264999999,
      "d": 139.204406249999,
      "v": 102
    },
    {
      "midi": 74,
      "hit": false,
      "t": 52515.0989999999,
      "d": 152.4619687500017,
      "v": 102
    },
    {
      "midi": 80,
      "hit": false,
      "t": 52515.0989999999,
      "d": 152.4619687500017,
      "v": 99
    },
    {
      "midi": 84,
      "hit": false,
      "t": 52742.3714999999,
      "d": 160.9846875000003,
      "v": 103
    },
    {
      "midi": 80,
      "hit": false,
      "t": 52742.3714999999,
      "d": 163.82559374999983,
      "v": 92
    },
    {
      "midi": 67,
      "hit": false,
      "t": 52969.6439999999,
      "d": 460.2268124999973,
      "v": 107
    },
    {
      "midi": 63,
      "hit": false,
      "t": 52969.6439999999,
      "d": 462.1207499999946,
      "v": 94
    },
    {
      "midi": 69,
      "hit": false,
      "t": 52969.6439999999,
      "d": 466.8555937499914,
      "v": 107
    },
    {
      "midi": 60,
      "hit": false,
      "t": 52969.6439999999,
      "d": 471.5904374999882,
      "v": 103
    },
    {
      "midi": 77,
      "hit": false,
      "t": 53424.1889999999,
      "d": 148.6740937499926,
      "v": 100
    },
    {
      "midi": 75,
      "hit": false,
      "t": 53424.1889999999,
      "d": 169.50740624999162,
      "v": 98
    },
    {
      "midi": 67,
      "hit": false,
      "t": 53651.46149999989,
      "d": 403.40868749999936,
      "v": 102
    },
    {
      "midi": 69,
      "hit": false,
      "t": 53651.46149999989,
      "d": 406.2495937499989,
      "v": 103
    },
    {
      "midi": 63,
      "hit": false,
      "t": 53651.46149999989,
      "d": 453.598031249996,
      "v": 88
    },
    {
      "midi": 72,
      "hit": false,
      "t": 54106.00649999989,
      "d": 105.11353124999732,
      "v": 95
    },
    {
      "midi": 77,
      "hit": false,
      "t": 54106.00649999989,
      "d": 117.42412499999773,
      "v": 98
    },
    {
      "midi": 68,
      "hit": false,
      "t": 54106.00649999989,
      "d": 167.61346874999435,
      "v": 91
    },
    {
      "midi": 74,
      "hit": false,
      "t": 54560.55149999988,
      "d": 407.19656250000116,
      "v": 107
    },
    {
      "midi": 67,
      "hit": false,
      "t": 54560.55149999988,
      "d": 464.0146874999991,
      "v": 105
    },
    {
      "midi": 72,
      "hit": false,
      "t": 54560.55149999988,
      "d": 582.3857812499991,
      "v": 105
    },
    {
      "midi": 80,
      "hit": false,
      "t": 55015.096499999876,
      "d": 110.79534375000367,
      "v": 97
    },
    {
      "midi": 77,
      "hit": false,
      "t": 55015.096499999876,
      "d": 123.10593750000407,
      "v": 99
    },
    {
      "midi": 71,
      "hit": false,
      "t": 55469.641499999874,
      "d": 117.42412499999773,
      "v": 100
    },
    {
      "midi": 67,
      "hit": false,
      "t": 55469.641499999874,
      "d": 128.78774999999587,
      "v": 102
    },
    {
      "midi": 71,
      "hit": false,
      "t": 55696.91399999987,
      "d": 207.3861562500024,
      "v": 103
    },
    {
      "midi": 80,
      "hit": false,
      "t": 55696.91399999987,
      "d": 211.1740312500042,
      "v": 102
    },
    {
      "midi": 67,
      "hit": false,
      "t": 55696.91399999987,
      "d": 220.64371875000506,
      "v": 103
    },
    {
      "midi": 67,
      "hit": false,
      "t": 55924.18649999988,
      "d": 97.53778125000099,
      "v": 82
    },
    {
      "midi": 71,
      "hit": false,
      "t": 55924.18649999988,
      "d": 108.90140624999913,
      "v": 84
    },
    {
      "midi": 79,
      "hit": false,
      "t": 55924.18649999988,
      "d": 196.96949999999924,
      "v": 98
    },
    {
      "midi": 80,
      "hit": false,
      "t": 56151.45899999988,
      "d": 183.71193749999657,
      "v": 99
    },
    {
      "midi": 67,
      "hit": false,
      "t": 56151.45899999988,
      "d": 249.0527812500004,
      "v": 103
    },
    {
      "midi": 71,
      "hit": false,
      "t": 56151.45899999988,
      "d": 262.3103437500031,
      "v": 94
    },
    {
      "midi": 79,
      "hit": false,
      "t": 56378.73149999988,
      "d": 157.19681250000576,
      "v": 92
    },
    {
      "midi": 67,
      "hit": false,
      "t": 56606.003999999884,
      "d": 460.2268124999973,
      "v": 107
    },
    {
      "midi": 63,
      "hit": false,
      "t": 56606.003999999884,
      "d": 462.1207499999946,
      "v": 94
    },
    {
      "midi": 69,
      "hit": false,
      "t": 56606.003999999884,
      "d": 466.8555937499914,
      "v": 107
    },
    {
      "midi": 60,
      "hit": false,
      "t": 56606.003999999884,
      "d": 471.5904374999882,
      "v": 103
    },
    {
      "midi": 77,
      "hit": false,
      "t": 57060.54899999988,
      "d": 148.6740937499926,
      "v": 100
    },
    {
      "midi": 75,
      "hit": false,
      "t": 57060.54899999988,
      "d": 169.50740624999162,
      "v": 98
    },
    {
      "midi": 67,
      "hit": false,
      "t": 57287.821499999875,
      "d": 403.40868749999936,
      "v": 102
    },
    {
      "midi": 69,
      "hit": false,
      "t": 57287.821499999875,
      "d": 406.2495937499989,
      "v": 103
    },
    {
      "midi": 63,
      "hit": false,
      "t": 57287.821499999875,
      "d": 453.598031249996,
      "v": 88
    },
    {
      "midi": 72,
      "hit": false,
      "t": 57742.36649999987,
      "d": 105.11353124999732,
      "v": 95
    },
    {
      "midi": 77,
      "hit": false,
      "t": 57742.36649999987,
      "d": 117.42412499999773,
      "v": 98
    },
    {
      "midi": 68,
      "hit": false,
      "t": 57742.36649999987,
      "d": 167.61346874999435,
      "v": 91
    },
    {
      "midi": 67,
      "hit": false,
      "t": 58196.911499999864,
      "d": 314.393624999997,
      "v": 103
    },
    {
      "midi": 55,
      "hit": false,
      "t": 58196.911499999864,
      "d": 704.5447500000009,
      "v": 102
    },
    {
      "midi": 67,
      "hit": false,
      "t": 58651.45649999986,
      "d": 205.49221874999785,
      "v": 105
    },
    {
      "midi": 71,
      "hit": false,
      "t": 58878.72899999986,
      "d": 194.12859375000698,
      "v": 107
    },
    {
      "midi": 74,
      "hit": false,
      "t": 59106.00149999987,
      "d": 160.9846875000003,
      "v": 105
    },
    {
      "midi": 77,
      "hit": false,
      "t": 59333.27399999987,
      "d": 223.48462499999732,
      "v": 100
    },
    {
      "midi": 77,
      "hit": false,
      "t": 59560.546499999866,
      "d": 223.48462499999732,
      "v": 102
    },
    {
      "midi": 80,
      "hit": false,
      "t": 59560.546499999866,
      "d": 223.48462499999732,
      "v": 103
    },
    {
      "midi": 75,
      "hit": false,
      "t": 59787.818999999865,
      "d": 223.48462499999732,
      "v": 97
    },
    {
      "midi": 79,
      "hit": false,
      "t": 59787.818999999865,
      "d": 223.48462499999732,
      "v": 102
    },
    {
      "midi": 74,
      "hit": false,
      "t": 60015.091499999864,
      "d": 223.48462499999732,
      "v": 102
    },
    {
      "midi": 77,
      "hit": false,
      "t": 60015.091499999864,
      "d": 223.48462499999732,
      "v": 99
    },
    {
      "midi": 67,
      "hit": false,
      "t": 60242.36399999986,
      "d": 460.2268124999973,
      "v": 107
    },
    {
      "midi": 63,
      "hit": false,
      "t": 60242.36399999986,
      "d": 462.1207499999946,
      "v": 94
    },
    {
      "midi": 69,
      "hit": false,
      "t": 60242.36399999986,
      "d": 466.8555937499914,
      "v": 107
    },
    {
      "midi": 60,
      "hit": false,
      "t": 60242.36399999986,
      "d": 471.5904374999882,
      "v": 103
    },
    {
      "midi": 77,
      "hit": false,
      "t": 60696.90899999986,
      "d": 148.6740937499926,
      "v": 100
    },
    {
      "midi": 75,
      "hit": false,
      "t": 60696.90899999986,
      "d": 169.50740624999162,
      "v": 98
    },
    {
      "midi": 67,
      "hit": false,
      "t": 60924.18149999985,
      "d": 403.40868749999936,
      "v": 102
    },
    {
      "midi": 69,
      "hit": false,
      "t": 60924.18149999985,
      "d": 406.2495937499989,
      "v": 103
    },
    {
      "midi": 63,
      "hit": false,
      "t": 60924.18149999985,
      "d": 453.598031249996,
      "v": 88
    },
    {
      "midi": 72,
      "hit": false,
      "t": 61378.72649999985,
      "d": 105.11353124999732,
      "v": 95
    },
    {
      "midi": 77,
      "hit": false,
      "t": 61378.72649999985,
      "d": 117.42412499999773,
      "v": 98
    },
    {
      "midi": 68,
      "hit": false,
      "t": 61378.72649999985,
      "d": 167.61346874999435,
      "v": 91
    },
    {
      "midi": 74,
      "hit": false,
      "t": 61833.27149999984,
      "d": 407.19656250000116,
      "v": 107
    },
    {
      "midi": 67,
      "hit": false,
      "t": 61833.27149999984,
      "d": 464.0146874999991,
      "v": 105
    },
    {
      "midi": 72,
      "hit": false,
      "t": 61833.27149999984,
      "d": 582.3857812499991,
      "v": 105
    },
    {
      "midi": 80,
      "hit": false,
      "t": 62287.81649999984,
      "d": 110.79534375000367,
      "v": 97
    },
    {
      "midi": 77,
      "hit": false,
      "t": 62287.81649999984,
      "d": 123.10593750000407,
      "v": 99
    },
    {
      "midi": 71,
      "hit": false,
      "t": 62742.36149999984,
      "d": 117.42412499999773,
      "v": 100
    },
    {
      "midi": 67,
      "hit": false,
      "t": 62742.36149999984,
      "d": 128.78774999999587,
      "v": 102
    },
    {
      "midi": 71,
      "hit": false,
      "t": 62969.63399999984,
      "d": 207.3861562500024,
      "v": 103
    },
    {
      "midi": 80,
      "hit": false,
      "t": 62969.63399999984,
      "d": 211.1740312500042,
      "v": 102
    },
    {
      "midi": 67,
      "hit": false,
      "t": 62969.63399999984,
      "d": 220.64371875000506,
      "v": 103
    },
    {
      "midi": 67,
      "hit": false,
      "t": 63196.906499999845,
      "d": 97.53778125000099,
      "v": 82
    },
    {
      "midi": 71,
      "hit": false,
      "t": 63196.906499999845,
      "d": 108.90140624999913,
      "v": 84
    },
    {
      "midi": 79,
      "hit": false,
      "t": 63196.906499999845,
      "d": 196.96949999999924,
      "v": 98
    },
    {
      "midi": 80,
      "hit": false,
      "t": 63424.178999999844,
      "d": 183.71193749999657,
      "v": 99
    },
    {
      "midi": 67,
      "hit": false,
      "t": 63424.178999999844,
      "d": 249.0527812500004,
      "v": 103
    },
    {
      "midi": 71,
      "hit": false,
      "t": 63424.178999999844,
      "d": 262.3103437500031,
      "v": 94
    },
    {
      "midi": 79,
      "hit": false,
      "t": 63651.45149999984,
      "d": 157.19681250000576,
      "v": 92
    },
    {
      "midi": 67,
      "hit": false,
      "t": 63878.72399999985,
      "d": 460.2268124999973,
      "v": 107
    },
    {
      "midi": 63,
      "hit": false,
      "t": 63878.72399999985,
      "d": 462.1207499999946,
      "v": 94
    },
    {
      "midi": 69,
      "hit": false,
      "t": 63878.72399999985,
      "d": 466.8555937499914,
      "v": 107
    },
    {
      "midi": 60,
      "hit": false,
      "t": 63878.72399999985,
      "d": 471.5904374999882,
      "v": 103
    },
    {
      "midi": 77,
      "hit": false,
      "t": 64333.26899999985,
      "d": 148.6740937499926,
      "v": 100
    },
    {
      "midi": 75,
      "hit": false,
      "t": 64333.26899999985,
      "d": 169.50740624999162,
      "v": 98
    },
    {
      "midi": 67,
      "hit": false,
      "t": 64560.54149999984,
      "d": 403.40868749999936,
      "v": 102
    },
    {
      "midi": 69,
      "hit": false,
      "t": 64560.54149999984,
      "d": 406.2495937499989,
      "v": 103
    },
    {
      "midi": 63,
      "hit": false,
      "t": 64560.54149999984,
      "d": 453.598031249996,
      "v": 88
    },
    {
      "midi": 72,
      "hit": false,
      "t": 65015.08649999984,
      "d": 105.11353124999732,
      "v": 95
    },
    {
      "midi": 77,
      "hit": false,
      "t": 65015.08649999984,
      "d": 117.42412499999773,
      "v": 98
    },
    {
      "midi": 68,
      "hit": false,
      "t": 65015.08649999984,
      "d": 167.61346874999435,
      "v": 91
    },
    {
      "midi": 77,
      "hit": false,
      "t": 65469.63149999983,
      "d": 392.9920312500035,
      "v": 105
    },
    {
      "midi": 74,
      "hit": false,
      "t": 65469.63149999983,
      "d": 404.35565625000163,
      "v": 105
    },
    {
      "midi": 91,
      "hit": false,
      "t": 65696.90399999983,
      "d": 85.22718750000058,
      "v": 107
    },
    {
      "midi": 79,
      "hit": false,
      "t": 65696.90399999983,
      "d": 104.16656250000233,
      "v": 105
    },
    {
      "midi": 79,
      "hit": false,
      "t": 65924.17649999983,
      "d": 38.82571874999849,
      "v": 98
    },
    {
      "midi": 91,
      "hit": false,
      "t": 65924.17649999983,
      "d": 58.71206249999523,
      "v": 98
    },
    {
      "midi": 68,
      "hit": false,
      "t": 65924.17649999983,
      "d": 192.23465625000244,
      "v": 91
    },
    {
      "midi": 65,
      "hit": false,
      "t": 65924.17649999983,
      "d": 203.59828125000058,
      "v": 95
    },
    {
      "midi": 91,
      "hit": false,
      "t": 66037.81274999982,
      "d": 89.96203125000466,
      "v": 99
    },
    {
      "midi": 79,
      "hit": false,
      "t": 66037.81274999982,
      "d": 96.59081249999872,
      "v": 102
    },
    {
      "midi": 77,
      "hit": false,
      "t": 66151.44899999982,
      "d": 159.09075000000303,
      "v": 97
    },
    {
      "midi": 74,
      "hit": false,
      "t": 66151.44899999982,
      "d": 167.61346875000163,
      "v": 100
    },
    {
      "midi": 91,
      "hit": false,
      "t": 66265.08524999981,
      "d": 59.65903125000477,
      "v": 98
    },
    {
      "midi": 79,
      "hit": false,
      "t": 66265.08524999981,
      "d": 207.38615625000966,
      "v": 95
    },
    {
      "midi": 91,
      "hit": false,
      "t": 66378.72149999983,
      "d": 92.80293750000419,
      "v": 95
    },
    {
      "midi": 77,
      "hit": false,
      "t": 66378.72149999983,
      "d": 173.2952812500007,
      "v": 82
    },
    {
      "midi": 80,
      "hit": false,
      "t": 66378.72149999983,
      "d": 176.13618750000023,
      "v": 97
    },
    {
      "midi": 89,
      "hit": false,
      "t": 66605.99399999983,
      "d": 316.2875625000015,
      "v": 100
    },
    {
      "midi": 77,
      "hit": false,
      "t": 66605.99399999983,
      "d": 358.90115624999453,
      "v": 102
    },
    {
      "midi": 80,
      "hit": false,
      "t": 67060.53899999983,
      "d": 179.92406249999476,
      "v": 85
    },
    {
      "midi": 92,
      "hit": false,
      "t": 67060.53899999983,
      "d": 193.18162499999744,
      "v": 91
    },
    {
      "midi": 89,
      "hit": false,
      "t": 67287.81149999982,
      "d": 102.27262499999779,
      "v": 89
    },
    {
      "midi": 77,
      "hit": false,
      "t": 67287.81149999982,
      "d": 142.99228125000081,
      "v": 94
    },
    {
      "midi": 67,
      "hit": false,
      "t": 67515.08399999983,
      "d": 460.2268124999973,
      "v": 107
    },
    {
      "midi": 63,
      "hit": false,
      "t": 67515.08399999983,
      "d": 462.12075000000186,
      "v": 94
    },
    {
      "midi": 69,
      "hit": false,
      "t": 67515.08399999983,
      "d": 466.85559375000594,
      "v": 107
    },
    {
      "midi": 60,
      "hit": false,
      "t": 67515.08399999983,
      "d": 471.59043750001,
      "v": 103
    },
    {
      "midi": 77,
      "hit": false,
      "t": 67969.62899999983,
      "d": 148.67409375001444,
      "v": 100
    },
    {
      "midi": 75,
      "hit": false,
      "t": 67969.62899999983,
      "d": 169.50740625002072,
      "v": 98
    },
    {
      "midi": 67,
      "hit": false,
      "t": 68196.90149999985,
      "d": 403.40868750000664,
      "v": 102
    },
    {
      "midi": 69,
      "hit": false,
      "t": 68196.90149999985,
      "d": 406.24959375000617,
      "v": 103
    },
    {
      "midi": 63,
      "hit": false,
      "t": 68196.90149999985,
      "d": 453.59803125000326,
      "v": 88
    },
    {
      "midi": 72,
      "hit": false,
      "t": 68651.44649999985,
      "d": 105.11353124999732,
      "v": 95
    },
    {
      "midi": 77,
      "hit": false,
      "t": 68651.44649999985,
      "d": 117.42412499999045,
      "v": 98
    },
    {
      "midi": 68,
      "hit": false,
      "t": 68651.44649999985,
      "d": 167.61346874998708,
      "v": 91
    },
    {
      "midi": 74,
      "hit": false,
      "t": 69105.99149999983,
      "d": 407.19656250000116,
      "v": 107
    },
    {
      "midi": 67,
      "hit": false,
      "t": 69105.99149999983,
      "d": 464.01468749999185,
      "v": 105
    },
    {
      "midi": 72,
      "hit": false,
      "t": 69105.99149999983,
      "d": 582.3857812499919,
      "v": 105
    },
    {
      "midi": 80,
      "hit": false,
      "t": 69560.53649999983,
      "d": 110.79534374999639,
      "v": 97
    },
    {
      "midi": 77,
      "hit": false,
      "t": 69560.53649999983,
      "d": 123.10593749998952,
      "v": 99
    },
    {
      "midi": 71,
      "hit": false,
      "t": 70015.08149999983,
      "d": 117.424125000005,
      "v": 100
    },
    {
      "midi": 67,
      "hit": false,
      "t": 70015.08149999983,
      "d": 128.78775000000314,
      "v": 102
    },
    {
      "midi": 71,
      "hit": false,
      "t": 70242.35399999983,
      "d": 207.3861562499951,
      "v": 103
    },
    {
      "midi": 80,
      "hit": false,
      "t": 70242.35399999983,
      "d": 211.17403124998964,
      "v": 102
    },
    {
      "midi": 67,
      "hit": false,
      "t": 70242.35399999983,
      "d": 220.64371874998324,
      "v": 103
    },
    {
      "midi": 67,
      "hit": false,
      "t": 70469.62649999981,
      "d": 97.53778124999371,
      "v": 82
    },
    {
      "midi": 71,
      "hit": false,
      "t": 70469.62649999981,
      "d": 108.90140624999185,
      "v": 84
    },
    {
      "midi": 79,
      "hit": false,
      "t": 70469.62649999981,
      "d": 196.96949999999197,
      "v": 98
    },
    {
      "midi": 80,
      "hit": false,
      "t": 70696.8989999998,
      "d": 183.71193750000384,
      "v": 99
    },
    {
      "midi": 67,
      "hit": false,
      "t": 70696.8989999998,
      "d": 249.05278125000768,
      "v": 103
    },
    {
      "midi": 71,
      "hit": false,
      "t": 70696.8989999998,
      "d": 262.31034375001036,
      "v": 94
    },
    {
      "midi": 79,
      "hit": false,
      "t": 70924.17149999981,
      "d": 157.1968124999985,
      "v": 92
    },
    {
      "midi": 67,
      "hit": false,
      "t": 71151.4439999998,
      "d": 460.2268124999973,
      "v": 107
    },
    {
      "midi": 63,
      "hit": false,
      "t": 71151.4439999998,
      "d": 462.12075000000186,
      "v": 94
    },
    {
      "midi": 69,
      "hit": false,
      "t": 71151.4439999998,
      "d": 466.85559375000594,
      "v": 107
    },
    {
      "midi": 60,
      "hit": false,
      "t": 71151.4439999998,
      "d": 471.59043750001,
      "v": 103
    },
    {
      "midi": 77,
      "hit": false,
      "t": 71605.9889999998,
      "d": 148.67409375001444,
      "v": 100
    },
    {
      "midi": 75,
      "hit": false,
      "t": 71605.9889999998,
      "d": 169.50740625002072,
      "v": 98
    },
    {
      "midi": 67,
      "hit": false,
      "t": 71833.26149999982,
      "d": 403.40868750000664,
      "v": 102
    },
    {
      "midi": 69,
      "hit": false,
      "t": 71833.26149999982,
      "d": 406.24959375000617,
      "v": 103
    },
    {
      "midi": 63,
      "hit": false,
      "t": 71833.26149999982,
      "d": 453.59803125000326,
      "v": 88
    },
    {
      "midi": 72,
      "hit": false,
      "t": 72287.80649999982,
      "d": 105.11353124999732,
      "v": 95
    },
    {
      "midi": 77,
      "hit": false,
      "t": 72287.80649999982,
      "d": 117.42412499999045,
      "v": 98
    },
    {
      "midi": 68,
      "hit": false,
      "t": 72287.80649999982,
      "d": 167.61346874998708,
      "v": 91
    },
    {
      "midi": 71,
      "hit": false,
      "t": 72742.3514999998,
      "d": 116.47715624999546,
      "v": 107
    },
    {
      "midi": 67,
      "hit": false,
      "t": 72742.3514999998,
      "d": 134.4695625000022,
      "v": 107
    },
    {
      "midi": 67,
      "hit": false,
      "t": 73196.8964999998,
      "d": 134.4695625000022,
      "v": 107
    },
    {
      "midi": 71,
      "hit": false,
      "t": 73196.8964999998,
      "d": 140.15137500000128,
      "v": 105
    },
    {
      "midi": 71,
      "hit": false,
      "t": 73651.4414999998,
      "d": 115.53018750000047,
      "v": 103
    },
    {
      "midi": 67,
      "hit": false,
      "t": 73651.4414999998,
      "d": 144.88621875000536,
      "v": 102
    },
    {
      "midi": 74,
      "hit": false,
      "t": 73651.4414999998,
      "d": 155.3028750000085,
      "v": 105
    },
    {
      "midi": 80,
      "hit": false,
      "t": 73878.7139999998,
      "d": 358.90115624999453,
      "v": 105
    },
    {
      "midi": 71,
      "hit": false,
      "t": 73878.7139999998,
      "d": 388.2571874999994,
      "v": 102
    },
    {
      "midi": 68,
      "hit": false,
      "t": 73878.7139999998,
      "d": 443.1813750000001,
      "v": 103
    },
    {
      "midi": 79,
      "hit": false,
      "t": 74333.2589999998,
      "d": 279.355781249993,
      "v": 100
    },
    {
      "midi": 71,
      "hit": false,
      "t": 74333.2589999998,
      "d": 281.24971874999756,
      "v": 100
    },
    {
      "midi": 67,
      "hit": false,
      "t": 74333.2589999998,
      "d": 309.6587812499929,
      "v": 99
    },
    {
      "midi": 67,
      "hit": false,
      "t": 74787.8039999998,
      "d": 460.2268124999973,
      "v": 107
    },
    {
      "midi": 63,
      "hit": false,
      "t": 74787.8039999998,
      "d": 462.12075000000186,
      "v": 94
    },
    {
      "midi": 69,
      "hit": false,
      "t": 74787.8039999998,
      "d": 466.85559375000594,
      "v": 107
    },
    {
      "midi": 60,
      "hit": false,
      "t": 74787.8039999998,
      "d": 471.59043750001,
      "v": 103
    },
    {
      "midi": 77,
      "hit": false,
      "t": 75242.3489999998,
      "d": 148.67409375001444,
      "v": 100
    },
    {
      "midi": 75,
      "hit": false,
      "t": 75242.3489999998,
      "d": 169.50740625002072,
      "v": 98
    },
    {
      "midi": 67,
      "hit": false,
      "t": 75469.62149999982,
      "d": 403.40868750000664,
      "v": 102
    },
    {
      "midi": 69,
      "hit": false,
      "t": 75469.62149999982,
      "d": 406.24959375000617,
      "v": 103
    },
    {
      "midi": 63,
      "hit": false,
      "t": 75469.62149999982,
      "d": 453.59803125000326,
      "v": 88
    },
    {
      "midi": 72,
      "hit": false,
      "t": 75924.16649999982,
      "d": 105.11353124999732,
      "v": 95
    },
    {
      "midi": 77,
      "hit": false,
      "t": 75924.16649999982,
      "d": 117.42412499999045,
      "v": 98
    },
    {
      "midi": 68,
      "hit": false,
      "t": 75924.16649999982,
      "d": 167.61346874998708,
      "v": 91
    },
    {
      "midi": 74,
      "hit": false,
      "t": 76378.7114999998,
      "d": 407.19656250000116,
      "v": 107
    },
    {
      "midi": 67,
      "hit": false,
      "t": 76378.7114999998,
      "d": 464.01468749999185,
      "v": 105
    },
    {
      "midi": 72,
      "hit": false,
      "t": 76378.7114999998,
      "d": 582.3857812499919,
      "v": 105
    },
    {
      "midi": 80,
      "hit": false,
      "t": 76833.2564999998,
      "d": 110.79534374999639,
      "v": 97
    },
    {
      "midi": 77,
      "hit": false,
      "t": 76833.2564999998,
      "d": 123.10593749998952,
      "v": 99
    },
    {
      "midi": 71,
      "hit": false,
      "t": 77287.8014999998,
      "d": 117.424125000005,
      "v": 100
    },
    {
      "midi": 67,
      "hit": false,
      "t": 77287.8014999998,
      "d": 128.78775000000314,
      "v": 102
    },
    {
      "midi": 71,
      "hit": false,
      "t": 77515.0739999998,
      "d": 207.3861562499951,
      "v": 103
    },
    {
      "midi": 80,
      "hit": false,
      "t": 77515.0739999998,
      "d": 211.17403124998964,
      "v": 102
    },
    {
      "midi": 67,
      "hit": false,
      "t": 77515.0739999998,
      "d": 220.64371874998324,
      "v": 103
    },
    {
      "midi": 67,
      "hit": false,
      "t": 77742.34649999978,
      "d": 97.53778124999371,
      "v": 82
    },
    {
      "midi": 71,
      "hit": false,
      "t": 77742.34649999978,
      "d": 108.90140624999185,
      "v": 84
    },
    {
      "midi": 79,
      "hit": false,
      "t": 77742.34649999978,
      "d": 196.96949999999197,
      "v": 98
    },
    {
      "midi": 80,
      "hit": false,
      "t": 77969.61899999977,
      "d": 183.71193750000384,
      "v": 99
    },
    {
      "midi": 67,
      "hit": false,
      "t": 77969.61899999977,
      "d": 249.05278125000768,
      "v": 103
    },
    {
      "midi": 71,
      "hit": false,
      "t": 77969.61899999977,
      "d": 262.31034375001036,
      "v": 94
    },
    {
      "midi": 79,
      "hit": false,
      "t": 78196.89149999978,
      "d": 157.1968124999985,
      "v": 92
    },
    {
      "midi": 67,
      "hit": false,
      "t": 82060.52399999977,
      "d": 460.2268124999973,
      "v": 107
    },
    {
      "midi": 63,
      "hit": false,
      "t": 82060.52399999977,
      "d": 462.12075000000186,
      "v": 94
    },
    {
      "midi": 69,
      "hit": false,
      "t": 82060.52399999977,
      "d": 466.85559375000594,
      "v": 107
    },
    {
      "midi": 60,
      "hit": false,
      "t": 82060.52399999977,
      "d": 471.59043750001,
      "v": 103
    },
    {
      "midi": 77,
      "hit": false,
      "t": 82515.06899999977,
      "d": 148.67409375001444,
      "v": 100
    },
    {
      "midi": 75,
      "hit": false,
      "t": 82515.06899999977,
      "d": 169.50740625002072,
      "v": 98
    },
    {
      "midi": 67,
      "hit": false,
      "t": 82742.34149999979,
      "d": 403.40868750000664,
      "v": 102
    },
    {
      "midi": 69,
      "hit": false,
      "t": 82742.34149999979,
      "d": 406.24959375000617,
      "v": 103
    },
    {
      "midi": 63,
      "hit": false,
      "t": 82742.34149999979,
      "d": 453.59803125000326,
      "v": 88
    },
    {
      "midi": 72,
      "hit": false,
      "t": 83196.88649999979,
      "d": 105.11353124999732,
      "v": 95
    },
    {
      "midi": 77,
      "hit": false,
      "t": 83196.88649999979,
      "d": 117.42412499999045,
      "v": 98
    },
    {
      "midi": 68,
      "hit": false,
      "t": 83196.88649999979,
      "d": 167.61346874998708,
      "v": 91
    },
    {
      "midi": 74,
      "hit": false,
      "t": 83651.43149999977,
      "d": 407.19656250000116,
      "v": 107
    },
    {
      "midi": 67,
      "hit": false,
      "t": 83651.43149999977,
      "d": 464.01468749999185,
      "v": 105
    },
    {
      "midi": 72,
      "hit": false,
      "t": 83651.43149999977,
      "d": 582.3857812499919,
      "v": 105
    },
    {
      "midi": 80,
      "hit": false,
      "t": 84105.97649999977,
      "d": 110.79534374999639,
      "v": 97
    },
    {
      "midi": 77,
      "hit": false,
      "t": 84105.97649999977,
      "d": 123.10593749998952,
      "v": 99
    },
    {
      "midi": 71,
      "hit": false,
      "t": 84560.52149999977,
      "d": 117.424125000005,
      "v": 100
    },
    {
      "midi": 67,
      "hit": false,
      "t": 84560.52149999977,
      "d": 128.78775000000314,
      "v": 102
    },
    {
      "midi": 71,
      "hit": false,
      "t": 84787.79399999978,
      "d": 207.3861562499951,
      "v": 103
    },
    {
      "midi": 80,
      "hit": false,
      "t": 84787.79399999978,
      "d": 211.17403124998964,
      "v": 102
    },
    {
      "midi": 67,
      "hit": false,
      "t": 84787.79399999978,
      "d": 220.64371874998324,
      "v": 103
    },
    {
      "midi": 67,
      "hit": false,
      "t": 85015.06649999975,
      "d": 97.53778124999371,
      "v": 82
    },
    {
      "midi": 71,
      "hit": false,
      "t": 85015.06649999975,
      "d": 108.90140624999185,
      "v": 84
    },
    {
      "midi": 79,
      "hit": false,
      "t": 85015.06649999975,
      "d": 196.96949999999197,
      "v": 98
    },
    {
      "midi": 80,
      "hit": false,
      "t": 85242.33899999975,
      "d": 183.71193750000384,
      "v": 99
    },
    {
      "midi": 67,
      "hit": false,
      "t": 85242.33899999975,
      "d": 249.05278125000768,
      "v": 103
    },
    {
      "midi": 71,
      "hit": false,
      "t": 85242.33899999975,
      "d": 262.31034375001036,
      "v": 94
    },
    {
      "midi": 79,
      "hit": false,
      "t": 85469.61149999975,
      "d": 157.1968124999985,
      "v": 92
    },
    {
      "midi": 67,
      "hit": false,
      "t": 85696.88399999974,
      "d": 460.2268124999973,
      "v": 107
    },
    {
      "midi": 63,
      "hit": false,
      "t": 85696.88399999974,
      "d": 462.12075000000186,
      "v": 94
    },
    {
      "midi": 69,
      "hit": false,
      "t": 85696.88399999974,
      "d": 466.85559375000594,
      "v": 107
    },
    {
      "midi": 60,
      "hit": false,
      "t": 85696.88399999974,
      "d": 471.59043750001,
      "v": 103
    },
    {
      "midi": 77,
      "hit": false,
      "t": 86151.42899999974,
      "d": 148.67409375001444,
      "v": 100
    },
    {
      "midi": 75,
      "hit": false,
      "t": 86151.42899999974,
      "d": 169.50740625002072,
      "v": 98
    },
    {
      "midi": 67,
      "hit": false,
      "t": 86378.70149999976,
      "d": 403.40868750000664,
      "v": 102
    },
    {
      "midi": 69,
      "hit": false,
      "t": 86378.70149999976,
      "d": 406.24959375000617,
      "v": 103
    },
    {
      "midi": 63,
      "hit": false,
      "t": 86378.70149999976,
      "d": 453.59803125000326,
      "v": 88
    },
    {
      "midi": 72,
      "hit": false,
      "t": 86833.24649999976,
      "d": 105.11353124999732,
      "v": 95
    },
    {
      "midi": 77,
      "hit": false,
      "t": 86833.24649999976,
      "d": 117.42412499999045,
      "v": 98
    },
    {
      "midi": 68,
      "hit": false,
      "t": 86833.24649999976,
      "d": 167.61346874998708,
      "v": 91
    },
    {
      "midi": 67,
      "hit": false,
      "t": 87287.79149999974,
      "d": 314.393624999997,
      "v": 103
    },
    {
      "midi": 55,
      "hit": false,
      "t": 87287.79149999974,
      "d": 704.5447500000009,
      "v": 102
    },
    {
      "midi": 67,
      "hit": false,
      "t": 87742.33649999974,
      "d": 205.49221875000512,
      "v": 105
    },
    {
      "midi": 71,
      "hit": false,
      "t": 87969.60899999975,
      "d": 194.12859374999243,
      "v": 107
    },
    {
      "midi": 74,
      "hit": false,
      "t": 88196.88149999974,
      "d": 160.98468749999302,
      "v": 105
    },
    {
      "midi": 77,
      "hit": false,
      "t": 88424.15399999973,
      "d": 223.48462499999732,
      "v": 100
    },
    {
      "midi": 77,
      "hit": false,
      "t": 88651.42649999972,
      "d": 223.48462499999732,
      "v": 102
    },
    {
      "midi": 80,
      "hit": false,
      "t": 88651.42649999972,
      "d": 223.48462499999732,
      "v": 103
    },
    {
      "midi": 75,
      "hit": false,
      "t": 88878.69899999972,
      "d": 223.48462499999732,
      "v": 97
    },
    {
      "midi": 79,
      "hit": false,
      "t": 88878.69899999972,
      "d": 223.48462499999732,
      "v": 102
    },
    {
      "midi": 74,
      "hit": false,
      "t": 89105.97149999971,
      "d": 223.48462499999732,
      "v": 102
    },
    {
      "midi": 77,
      "hit": false,
      "t": 89105.97149999971,
      "d": 223.48462499999732,
      "v": 99
    },
    {
      "midi": 67,
      "hit": false,
      "t": 89333.2439999997,
      "d": 460.2268124999973,
      "v": 107
    },
    {
      "midi": 63,
      "hit": false,
      "t": 89333.2439999997,
      "d": 462.12075000000186,
      "v": 94
    },
    {
      "midi": 69,
      "hit": false,
      "t": 89333.2439999997,
      "d": 466.85559375000594,
      "v": 107
    },
    {
      "midi": 60,
      "hit": false,
      "t": 89333.2439999997,
      "d": 471.59043750001,
      "v": 103
    },
    {
      "midi": 77,
      "hit": false,
      "t": 89787.7889999997,
      "d": 148.67409375001444,
      "v": 100
    },
    {
      "midi": 75,
      "hit": false,
      "t": 89787.7889999997,
      "d": 169.50740625002072,
      "v": 98
    },
    {
      "midi": 67,
      "hit": false,
      "t": 90015.06149999972,
      "d": 403.40868750000664,
      "v": 102
    },
    {
      "midi": 69,
      "hit": false,
      "t": 90015.06149999972,
      "d": 406.24959375000617,
      "v": 103
    },
    {
      "midi": 63,
      "hit": false,
      "t": 90015.06149999972,
      "d": 453.59803125000326,
      "v": 88
    },
    {
      "midi": 72,
      "hit": false,
      "t": 90469.60649999972,
      "d": 105.11353124999732,
      "v": 95
    },
    {
      "midi": 77,
      "hit": false,
      "t": 90469.60649999972,
      "d": 117.42412499999045,
      "v": 98
    },
    {
      "midi": 68,
      "hit": false,
      "t": 90469.60649999972,
      "d": 167.61346874998708,
      "v": 91
    },
    {
      "midi": 74,
      "hit": false,
      "t": 90924.1514999997,
      "d": 407.19656250000116,
      "v": 107
    },
    {
      "midi": 67,
      "hit": false,
      "t": 90924.1514999997,
      "d": 464.01468749999185,
      "v": 105
    },
    {
      "midi": 72,
      "hit": false,
      "t": 90924.1514999997,
      "d": 582.3857812499919,
      "v": 105
    },
    {
      "midi": 80,
      "hit": false,
      "t": 91378.6964999997,
      "d": 110.79534374999639,
      "v": 97
    },
    {
      "midi": 77,
      "hit": false,
      "t": 91378.6964999997,
      "d": 123.10593749998952,
      "v": 99
    },
    {
      "midi": 71,
      "hit": false,
      "t": 91833.2414999997,
      "d": 117.424125000005,
      "v": 100
    },
    {
      "midi": 67,
      "hit": false,
      "t": 91833.2414999997,
      "d": 128.78775000000314,
      "v": 102
    },
    {
      "midi": 71,
      "hit": false,
      "t": 92060.5139999997,
      "d": 207.3861562499951,
      "v": 103
    },
    {
      "midi": 80,
      "hit": false,
      "t": 92060.5139999997,
      "d": 211.17403124998964,
      "v": 102
    },
    {
      "midi": 67,
      "hit": false,
      "t": 92060.5139999997,
      "d": 220.64371874998324,
      "v": 103
    },
    {
      "midi": 67,
      "hit": false,
      "t": 92287.78649999968,
      "d": 97.53778124999371,
      "v": 82
    },
    {
      "midi": 71,
      "hit": false,
      "t": 92287.78649999968,
      "d": 108.90140624999185,
      "v": 84
    },
    {
      "midi": 79,
      "hit": false,
      "t": 92287.78649999968,
      "d": 196.96949999999197,
      "v": 98
    },
    {
      "midi": 80,
      "hit": false,
      "t": 92515.05899999967,
      "d": 183.71193750000384,
      "v": 99
    },
    {
      "midi": 67,
      "hit": false,
      "t": 92515.05899999967,
      "d": 249.05278125000768,
      "v": 103
    },
    {
      "midi": 71,
      "hit": false,
      "t": 92515.05899999967,
      "d": 262.31034375001036,
      "v": 94
    },
    {
      "midi": 79,
      "hit": false,
      "t": 92742.33149999968,
      "d": 157.1968124999985,
      "v": 92
    },
    {
      "midi": 67,
      "hit": false,
      "t": 92969.60399999967,
      "d": 460.2268124999973,
      "v": 107
    },
    {
      "midi": 63,
      "hit": false,
      "t": 92969.60399999967,
      "d": 462.12075000000186,
      "v": 94
    },
    {
      "midi": 69,
      "hit": false,
      "t": 92969.60399999967,
      "d": 466.85559375000594,
      "v": 107
    },
    {
      "midi": 60,
      "hit": false,
      "t": 92969.60399999967,
      "d": 471.59043750001,
      "v": 103
    },
    {
      "midi": 77,
      "hit": false,
      "t": 93424.14899999967,
      "d": 148.67409375001444,
      "v": 100
    },
    {
      "midi": 75,
      "hit": false,
      "t": 93424.14899999967,
      "d": 169.50740625002072,
      "v": 98
    },
    {
      "midi": 67,
      "hit": false,
      "t": 93651.42149999969,
      "d": 403.40868750000664,
      "v": 102
    },
    {
      "midi": 69,
      "hit": false,
      "t": 93651.42149999969,
      "d": 406.24959375000617,
      "v": 103
    },
    {
      "midi": 63,
      "hit": false,
      "t": 93651.42149999969,
      "d": 453.59803125000326,
      "v": 88
    },
    {
      "midi": 72,
      "hit": false,
      "t": 94105.96649999969,
      "d": 105.11353124999732,
      "v": 95
    },
    {
      "midi": 77,
      "hit": false,
      "t": 94105.96649999969,
      "d": 117.42412499999045,
      "v": 98
    },
    {
      "midi": 68,
      "hit": false,
      "t": 94105.96649999969,
      "d": 167.61346874998708,
      "v": 91
    },
    {
      "midi": 77,
      "hit": false,
      "t": 94560.51149999967,
      "d": 392.9920312500035,
      "v": 105
    },
    {
      "midi": 74,
      "hit": false,
      "t": 94560.51149999967,
      "d": 404.35565625000163,
      "v": 105
    },
    {
      "midi": 91,
      "hit": false,
      "t": 94787.78399999968,
      "d": 85.22718750000058,
      "v": 107
    },
    {
      "midi": 79,
      "hit": false,
      "t": 94787.78399999968,
      "d": 104.16656250000233,
      "v": 105
    },
    {
      "midi": 79,
      "hit": false,
      "t": 95015.05649999967,
      "d": 38.82571874999849,
      "v": 98
    },
    {
      "midi": 91,
      "hit": false,
      "t": 95015.05649999967,
      "d": 58.71206249999523,
      "v": 98
    },
    {
      "midi": 68,
      "hit": false,
      "t": 95015.05649999967,
      "d": 192.23465625000244,
      "v": 91
    },
    {
      "midi": 65,
      "hit": false,
      "t": 95015.05649999967,
      "d": 203.59828125000058,
      "v": 95
    },
    {
      "midi": 91,
      "hit": false,
      "t": 95128.69274999967,
      "d": 89.96203125000466,
      "v": 99
    },
    {
      "midi": 79,
      "hit": false,
      "t": 95128.69274999967,
      "d": 96.59081249999872,
      "v": 102
    },
    {
      "midi": 77,
      "hit": false,
      "t": 95242.32899999966,
      "d": 159.09075000000303,
      "v": 97
    },
    {
      "midi": 74,
      "hit": false,
      "t": 95242.32899999966,
      "d": 167.61346875000163,
      "v": 100
    },
    {
      "midi": 91,
      "hit": false,
      "t": 95355.96524999966,
      "d": 59.65903125000477,
      "v": 98
    },
    {
      "midi": 79,
      "hit": false,
      "t": 95355.96524999966,
      "d": 207.38615625000966,
      "v": 95
    },
    {
      "midi": 91,
      "hit": false,
      "t": 95469.60149999967,
      "d": 92.80293750000419,
      "v": 95
    },
    {
      "midi": 77,
      "hit": false,
      "t": 95469.60149999967,
      "d": 173.2952812500007,
      "v": 82
    },
    {
      "midi": 80,
      "hit": false,
      "t": 95469.60149999967,
      "d": 176.13618750000023,
      "v": 97
    },
    {
      "midi": 89,
      "hit": false,
      "t": 95696.87399999968,
      "d": 316.2875625000015,
      "v": 100
    },
    {
      "midi": 77,
      "hit": false,
      "t": 95696.87399999968,
      "d": 358.90115624999453,
      "v": 102
    },
    {
      "midi": 80,
      "hit": false,
      "t": 96151.41899999967,
      "d": 179.92406249999476,
      "v": 85
    },
    {
      "midi": 92,
      "hit": false,
      "t": 96151.41899999967,
      "d": 193.18162499999744,
      "v": 91
    },
    {
      "midi": 89,
      "hit": false,
      "t": 96378.69149999967,
      "d": 102.27262499999779,
      "v": 89
    },
    {
      "midi": 77,
      "hit": false,
      "t": 96378.69149999967,
      "d": 142.99228125000081,
      "v": 94
    },
    {
      "midi": 67,
      "hit": false,
      "t": 96605.96399999967,
      "d": 460.2268124999973,
      "v": 107
    },
    {
      "midi": 63,
      "hit": false,
      "t": 96605.96399999967,
      "d": 462.12075000000186,
      "v": 94
    },
    {
      "midi": 69,
      "hit": false,
      "t": 96605.96399999967,
      "d": 466.85559375000594,
      "v": 107
    },
    {
      "midi": 60,
      "hit": false,
      "t": 96605.96399999967,
      "d": 471.59043750001,
      "v": 103
    },
    {
      "midi": 77,
      "hit": false,
      "t": 97060.50899999967,
      "d": 148.67409375001444,
      "v": 100
    },
    {
      "midi": 75,
      "hit": false,
      "t": 97060.50899999967,
      "d": 169.50740625002072,
      "v": 98
    },
    {
      "midi": 67,
      "hit": false,
      "t": 97287.78149999969,
      "d": 403.40868750000664,
      "v": 102
    },
    {
      "midi": 69,
      "hit": false,
      "t": 97287.78149999969,
      "d": 406.24959375000617,
      "v": 103
    },
    {
      "midi": 63,
      "hit": false,
      "t": 97287.78149999969,
      "d": 453.59803125000326,
      "v": 88
    },
    {
      "midi": 72,
      "hit": false,
      "t": 97742.32649999969,
      "d": 105.11353124999732,
      "v": 95
    },
    {
      "midi": 77,
      "hit": false,
      "t": 97742.32649999969,
      "d": 117.42412499999045,
      "v": 98
    },
    {
      "midi": 68,
      "hit": false,
      "t": 97742.32649999969,
      "d": 167.61346874998708,
      "v": 91
    },
    {
      "midi": 74,
      "hit": false,
      "t": 98196.87149999967,
      "d": 407.19656250000116,
      "v": 107
    },
    {
      "midi": 67,
      "hit": false,
      "t": 98196.87149999967,
      "d": 464.01468749999185,
      "v": 105
    },
    {
      "midi": 72,
      "hit": false,
      "t": 98196.87149999967,
      "d": 582.3857812499919,
      "v": 105
    },
    {
      "midi": 80,
      "hit": false,
      "t": 98651.41649999967,
      "d": 110.79534374999639,
      "v": 97
    },
    {
      "midi": 77,
      "hit": false,
      "t": 98651.41649999967,
      "d": 123.10593749998952,
      "v": 99
    },
    {
      "midi": 71,
      "hit": false,
      "t": 99105.96149999967,
      "d": 117.424125000005,
      "v": 100
    },
    {
      "midi": 67,
      "hit": false,
      "t": 99105.96149999967,
      "d": 128.78775000000314,
      "v": 102
    },
    {
      "midi": 71,
      "hit": false,
      "t": 99333.23399999968,
      "d": 207.3861562499951,
      "v": 103
    },
    {
      "midi": 80,
      "hit": false,
      "t": 99333.23399999968,
      "d": 211.17403124998964,
      "v": 102
    },
    {
      "midi": 67,
      "hit": false,
      "t": 99333.23399999968,
      "d": 220.64371874998324,
      "v": 103
    },
    {
      "midi": 67,
      "hit": false,
      "t": 99560.50649999965,
      "d": 97.53778124999371,
      "v": 82
    },
    {
      "midi": 71,
      "hit": false,
      "t": 99560.50649999965,
      "d": 108.90140624999185,
      "v": 84
    },
    {
      "midi": 79,
      "hit": false,
      "t": 99560.50649999965,
      "d": 196.96949999999197,
      "v": 98
    },
    {
      "midi": 80,
      "hit": false,
      "t": 99787.77899999965,
      "d": 183.71193750000384,
      "v": 99
    },
    {
      "midi": 67,
      "hit": false,
      "t": 99787.77899999965,
      "d": 249.05278125000768,
      "v": 103
    },
    {
      "midi": 71,
      "hit": false,
      "t": 99787.77899999965,
      "d": 262.31034375001036,
      "v": 94
    },
    {
      "midi": 79,
      "hit": false,
      "t": 100015.05149999965,
      "d": 157.1968124999985,
      "v": 92
    },
    {
      "midi": 67,
      "hit": false,
      "t": 100242.32399999964,
      "d": 460.2268124999973,
      "v": 107
    },
    {
      "midi": 63,
      "hit": false,
      "t": 100242.32399999964,
      "d": 462.12075000000186,
      "v": 94
    },
    {
      "midi": 69,
      "hit": false,
      "t": 100242.32399999964,
      "d": 466.85559375000594,
      "v": 107
    },
    {
      "midi": 60,
      "hit": false,
      "t": 100242.32399999964,
      "d": 471.59043750001,
      "v": 103
    },
    {
      "midi": 77,
      "hit": false,
      "t": 100696.86899999964,
      "d": 148.67409375001444,
      "v": 100
    },
    {
      "midi": 75,
      "hit": false,
      "t": 100696.86899999964,
      "d": 169.50740625002072,
      "v": 98
    },
    {
      "midi": 67,
      "hit": false,
      "t": 100924.14149999966,
      "d": 403.40868750000664,
      "v": 102
    },
    {
      "midi": 69,
      "hit": false,
      "t": 100924.14149999966,
      "d": 406.24959375000617,
      "v": 103
    },
    {
      "midi": 63,
      "hit": false,
      "t": 100924.14149999966,
      "d": 453.59803125000326,
      "v": 88
    },
    {
      "midi": 72,
      "hit": false,
      "t": 101378.68649999966,
      "d": 105.11353124999732,
      "v": 95
    },
    {
      "midi": 77,
      "hit": false,
      "t": 101378.68649999966,
      "d": 117.42412499999045,
      "v": 98
    },
    {
      "midi": 68,
      "hit": false,
      "t": 101378.68649999966,
      "d": 167.61346874998708,
      "v": 91
    },
    {
      "midi": 67,
      "hit": false,
      "t": 101833.23149999965,
      "d": 314.393624999997,
      "v": 103
    },
    {
      "midi": 55,
      "hit": false,
      "t": 101833.23149999965,
      "d": 704.5447500000009,
      "v": 102
    },
    {
      "midi": 67,
      "hit": false,
      "t": 102287.77649999964,
      "d": 205.49221875000512,
      "v": 105
    },
    {
      "midi": 71,
      "hit": false,
      "t": 102515.04899999965,
      "d": 194.12859374999243,
      "v": 107
    },
    {
      "midi": 74,
      "hit": false,
      "t": 102742.32149999964,
      "d": 160.98468749999302,
      "v": 105
    },
    {
      "midi": 77,
      "hit": false,
      "t": 102969.59399999963,
      "d": 223.48462499999732,
      "v": 100
    },
    {
      "midi": 77,
      "hit": false,
      "t": 103196.86649999963,
      "d": 223.48462499999732,
      "v": 102
    },
    {
      "midi": 80,
      "hit": false,
      "t": 103196.86649999963,
      "d": 223.48462499999732,
      "v": 103
    },
    {
      "midi": 75,
      "hit": false,
      "t": 103424.13899999962,
      "d": 223.48462499999732,
      "v": 97
    },
    {
      "midi": 79,
      "hit": false,
      "t": 103424.13899999962,
      "d": 223.48462499999732,
      "v": 102
    },
    {
      "midi": 74,
      "hit": false,
      "t": 103651.41149999961,
      "d": 223.48462499999732,
      "v": 102
    },
    {
      "midi": 77,
      "hit": false,
      "t": 103651.41149999961,
      "d": 223.48462499999732,
      "v": 99
    },
    {
      "midi": 67,
      "hit": false,
      "t": 103878.6839999996,
      "d": 460.2268124999973,
      "v": 107
    },
    {
      "midi": 63,
      "hit": false,
      "t": 103878.6839999996,
      "d": 462.12075000000186,
      "v": 94
    },
    {
      "midi": 69,
      "hit": false,
      "t": 103878.6839999996,
      "d": 466.85559375000594,
      "v": 107
    },
    {
      "midi": 60,
      "hit": false,
      "t": 103878.6839999996,
      "d": 471.59043750001,
      "v": 103
    },
    {
      "midi": 77,
      "hit": false,
      "t": 104333.2289999996,
      "d": 148.67409375001444,
      "v": 100
    },
    {
      "midi": 75,
      "hit": false,
      "t": 104333.2289999996,
      "d": 169.50740625002072,
      "v": 98
    },
    {
      "midi": 67,
      "hit": false,
      "t": 104560.50149999962,
      "d": 403.40868750000664,
      "v": 102
    },
    {
      "midi": 69,
      "hit": false,
      "t": 104560.50149999962,
      "d": 406.24959375000617,
      "v": 103
    },
    {
      "midi": 63,
      "hit": false,
      "t": 104560.50149999962,
      "d": 453.59803125000326,
      "v": 88
    },
    {
      "midi": 72,
      "hit": false,
      "t": 105015.04649999962,
      "d": 105.11353124999732,
      "v": 95
    },
    {
      "midi": 77,
      "hit": false,
      "t": 105015.04649999962,
      "d": 117.42412499999045,
      "v": 98
    },
    {
      "midi": 68,
      "hit": false,
      "t": 105015.04649999962,
      "d": 167.61346874998708,
      "v": 91
    },
    {
      "midi": 74,
      "hit": false,
      "t": 105469.5914999996,
      "d": 407.19656250000116,
      "v": 107
    },
    {
      "midi": 67,
      "hit": false,
      "t": 105469.5914999996,
      "d": 464.01468749999185,
      "v": 105
    },
    {
      "midi": 72,
      "hit": false,
      "t": 105469.5914999996,
      "d": 582.3857812499919,
      "v": 105
    },
    {
      "midi": 80,
      "hit": false,
      "t": 105924.1364999996,
      "d": 110.79534374999639,
      "v": 97
    },
    {
      "midi": 77,
      "hit": false,
      "t": 105924.1364999996,
      "d": 123.10593749998952,
      "v": 99
    },
    {
      "midi": 71,
      "hit": false,
      "t": 106378.6814999996,
      "d": 117.424125000005,
      "v": 100
    },
    {
      "midi": 67,
      "hit": false,
      "t": 106378.6814999996,
      "d": 128.78775000000314,
      "v": 102
    },
    {
      "midi": 71,
      "hit": false,
      "t": 106605.9539999996,
      "d": 207.3861562499951,
      "v": 103
    },
    {
      "midi": 80,
      "hit": false,
      "t": 106605.9539999996,
      "d": 211.17403124998964,
      "v": 102
    },
    {
      "midi": 67,
      "hit": false,
      "t": 106605.9539999996,
      "d": 220.64371874998324,
      "v": 103
    },
    {
      "midi": 67,
      "hit": false,
      "t": 106833.22649999958,
      "d": 97.53778124999371,
      "v": 82
    },
    {
      "midi": 71,
      "hit": false,
      "t": 106833.22649999958,
      "d": 108.90140624999185,
      "v": 84
    },
    {
      "midi": 79,
      "hit": false,
      "t": 106833.22649999958,
      "d": 196.96949999999197,
      "v": 98
    },
    {
      "midi": 80,
      "hit": false,
      "t": 107060.49899999957,
      "d": 183.71193750000384,
      "v": 99
    },
    {
      "midi": 67,
      "hit": false,
      "t": 107060.49899999957,
      "d": 249.05278125000768,
      "v": 103
    },
    {
      "midi": 71,
      "hit": false,
      "t": 107060.49899999957,
      "d": 262.31034375001036,
      "v": 94
    },
    {
      "midi": 79,
      "hit": false,
      "t": 107287.77149999958,
      "d": 157.1968124999985,
      "v": 92
    },
    {
      "midi": 67,
      "hit": false,
      "t": 107515.04399999957,
      "d": 460.2268124999973,
      "v": 107
    },
    {
      "midi": 63,
      "hit": false,
      "t": 107515.04399999957,
      "d": 462.12075000000186,
      "v": 94
    },
    {
      "midi": 69,
      "hit": false,
      "t": 107515.04399999957,
      "d": 466.85559375000594,
      "v": 107
    },
    {
      "midi": 60,
      "hit": false,
      "t": 107515.04399999957,
      "d": 471.59043750001,
      "v": 103
    },
    {
      "midi": 77,
      "hit": false,
      "t": 107969.58899999957,
      "d": 148.67409375001444,
      "v": 100
    },
    {
      "midi": 75,
      "hit": false,
      "t": 107969.58899999957,
      "d": 169.50740625002072,
      "v": 98
    },
    {
      "midi": 67,
      "hit": false,
      "t": 108196.86149999959,
      "d": 403.40868750000664,
      "v": 102
    },
    {
      "midi": 69,
      "hit": false,
      "t": 108196.86149999959,
      "d": 406.24959375000617,
      "v": 103
    },
    {
      "midi": 63,
      "hit": false,
      "t": 108196.86149999959,
      "d": 453.59803125000326,
      "v": 88
    },
    {
      "midi": 72,
      "hit": false,
      "t": 108651.40649999959,
      "d": 105.11353124999732,
      "v": 95
    },
    {
      "midi": 77,
      "hit": false,
      "t": 108651.40649999959,
      "d": 117.42412499999045,
      "v": 98
    },
    {
      "midi": 68,
      "hit": false,
      "t": 108651.40649999959,
      "d": 167.61346874998708,
      "v": 91
    },
    {
      "midi": 77,
      "hit": false,
      "t": 109105.95149999957,
      "d": 392.9920312500035,
      "v": 105
    },
    {
      "midi": 74,
      "hit": false,
      "t": 109105.95149999957,
      "d": 404.35565625000163,
      "v": 105
    },
    {
      "midi": 91,
      "hit": false,
      "t": 109333.22399999958,
      "d": 85.22718750000058,
      "v": 107
    },
    {
      "midi": 79,
      "hit": false,
      "t": 109333.22399999958,
      "d": 104.16656250000233,
      "v": 105
    },
    {
      "midi": 79,
      "hit": false,
      "t": 109560.49649999957,
      "d": 38.82571874999849,
      "v": 98
    },
    {
      "midi": 91,
      "hit": false,
      "t": 109560.49649999957,
      "d": 58.71206249999523,
      "v": 98
    },
    {
      "midi": 68,
      "hit": false,
      "t": 109560.49649999957,
      "d": 192.23465625000244,
      "v": 91
    },
    {
      "midi": 65,
      "hit": false,
      "t": 109560.49649999957,
      "d": 203.59828125000058,
      "v": 95
    },
    {
      "midi": 91,
      "hit": false,
      "t": 109674.13274999957,
      "d": 89.96203125000466,
      "v": 99
    },
    {
      "midi": 79,
      "hit": false,
      "t": 109674.13274999957,
      "d": 96.59081249999872,
      "v": 102
    },
    {
      "midi": 77,
      "hit": false,
      "t": 109787.76899999956,
      "d": 159.09075000000303,
      "v": 97
    },
    {
      "midi": 74,
      "hit": false,
      "t": 109787.76899999956,
      "d": 167.61346875000163,
      "v": 100
    },
    {
      "midi": 91,
      "hit": false,
      "t": 109901.40524999956,
      "d": 59.65903125000477,
      "v": 98
    },
    {
      "midi": 79,
      "hit": false,
      "t": 109901.40524999956,
      "d": 207.38615625000966,
      "v": 95
    },
    {
      "midi": 91,
      "hit": false,
      "t": 110015.04149999957,
      "d": 92.80293750000419,
      "v": 95
    },
    {
      "midi": 77,
      "hit": false,
      "t": 110015.04149999957,
      "d": 173.2952812500007,
      "v": 82
    },
    {
      "midi": 80,
      "hit": false,
      "t": 110015.04149999957,
      "d": 176.13618750000023,
      "v": 97
    },
    {
      "midi": 50,
      "hit": false,
      "t": 110242.31399999958,
      "d": 272.72699999999895,
      "v": 121
    },
    {
      "midi": 65,
      "hit": false,
      "t": 110242.31399999958,
      "d": 280.30275000000256,
      "v": 124
    },
    {
      "midi": 68,
      "hit": false,
      "t": 110545.34399999958,
      "d": 241.47703125000407,
      "v": 121
    },
    {
      "midi": 53,
      "hit": false,
      "t": 110545.34399999958,
      "d": 249.99975000000268,
      "v": 114
    },
    {
      "midi": 65,
      "hit": false,
      "t": 110848.37399999957,
      "d": 143.9392499999958,
      "v": 109
    },
    {
      "midi": 50,
      "hit": false,
      "t": 110848.37399999957,
      "d": 171.40134374999616,
      "v": 114
    },
    {
      "midi": 60,
      "hit": false,
      "t": 111151.40399999957,
      "d": 450.7571250000037,
      "v": 105
    },
    {
      "midi": 72,
      "hit": false,
      "t": 111151.40399999957,
      "d": 450.7571250000037,
      "v": 109
    },
    {
      "midi": 63,
      "hit": false,
      "t": 111605.94899999957,
      "d": 223.48462499999732,
      "v": 103
    },
    {
      "midi": 75,
      "hit": false,
      "t": 111605.94899999957,
      "d": 223.48462499999732,
      "v": 105
    },
    {
      "midi": 67,
      "hit": false,
      "t": 111833.22149999956,
      "d": 526.5146249999962,
      "v": 107
    },
    {
      "midi": 79,
      "hit": false,
      "t": 111833.22149999956,
      "d": 526.5146249999962,
      "v": 107
    },
    {
      "midi": 68,
      "hit": false,
      "t": 112363.52399999955,
      "d": 299.2421250000043,
      "v": 103
    },
    {
      "midi": 80,
      "hit": false,
      "t": 112363.52399999955,
      "d": 299.2421250000043,
      "v": 107
    },
    {
      "midi": 65,
      "hit": false,
      "t": 112666.55399999955,
      "d": 299.2421250000043,
      "v": 102
    },
    {
      "midi": 77,
      "hit": false,
      "t": 112666.55399999955,
      "d": 299.2421250000043,
      "v": 99
    },
    {
      "midi": 67,
      "hit": false,
      "t": 112969.58399999955,
      "d": 299.2421250000043,
      "v": 103
    },
    {
      "midi": 79,
      "hit": false,
      "t": 112969.58399999955,
      "d": 299.2421250000043,
      "v": 107
    },
    {
      "midi": 62,
      "hit": false,
      "t": 113272.61399999955,
      "d": 299.2421250000043,
      "v": 107
    },
    {
      "midi": 74,
      "hit": false,
      "t": 113272.61399999955,
      "d": 299.2421250000043,
      "v": 103
    },
    {
      "midi": 65,
      "hit": false,
      "t": 113575.64399999955,
      "d": 299.2421250000043,
      "v": 103
    },
    {
      "midi": 77,
      "hit": false,
      "t": 113575.64399999955,
      "d": 299.2421250000043,
      "v": 103
    },
    {
      "midi": 65,
      "hit": false,
      "t": 113878.67399999955,
      "d": 450.7571250000037,
      "v": 103
    },
    {
      "midi": 80,
      "hit": false,
      "t": 113878.67399999955,
      "d": 450.7571250000037,
      "v": 99
    },
    {
      "midi": 62,
      "hit": false,
      "t": 114333.21899999955,
      "d": 223.48462499999732,
      "v": 105
    },
    {
      "midi": 77,
      "hit": false,
      "t": 114333.21899999955,
      "d": 223.48462499999732,
      "v": 107
    },
    {
      "midi": 65,
      "hit": false,
      "t": 114560.49149999954,
      "d": 223.48462499999732,
      "v": 99
    },
    {
      "midi": 80,
      "hit": false,
      "t": 114560.49149999954,
      "d": 223.48462499999732,
      "v": 103
    },
    {
      "midi": 63,
      "hit": false,
      "t": 114787.76399999953,
      "d": 411.93140625000524,
      "v": 107
    },
    {
      "midi": 79,
      "hit": false,
      "t": 114787.76399999953,
      "d": 414.7723125000048,
      "v": 107
    },
    {
      "midi": 75,
      "hit": false,
      "t": 115242.30899999953,
      "d": 209.28009374999965,
      "v": 99
    },
    {
      "midi": 60,
      "hit": false,
      "t": 115242.30899999953,
      "d": 220.6437187499978,
      "v": 100
    },
    {
      "midi": 56,
      "hit": false,
      "t": 115469.58149999952,
      "d": 398.67384375000256,
      "v": 84
    },
    {
      "midi": 72,
      "hit": false,
      "t": 115469.58149999952,
      "d": 424.24199999999837,
      "v": 100
    },
    {
      "midi": 68,
      "hit": false,
      "t": 115924.12649999952,
      "d": 432.764718749997,
      "v": 99
    },
    {
      "midi": 53,
      "hit": false,
      "t": 115924.12649999952,
      "d": 447.9162187500042,
      "v": 100
    },
    {
      "midi": 71,
      "hit": false,
      "t": 116378.67149999952,
      "d": 424.24199999999837,
      "v": 105
    },
    {
      "midi": 55,
      "hit": false,
      "t": 116378.67149999952,
      "d": 434.6586562500015,
      "v": 103
    },
    {
      "midi": 67,
      "hit": false,
      "t": 116833.21649999951,
      "d": 206.43918750000012,
      "v": 124
    },
    {
      "midi": 55,
      "hit": false,
      "t": 116833.21649999951,
      "d": 251.89368750000722,
      "v": 118
    },
    {
      "midi": 69,
      "hit": false,
      "t": 117060.48899999952,
      "d": 226.32553124999686,
      "v": 118
    },
    {
      "midi": 57,
      "hit": false,
      "t": 117060.48899999952,
      "d": 267.9921562499949,
      "v": 118
    },
    {
      "midi": 71,
      "hit": false,
      "t": 117287.76149999951,
      "d": 189.3937500000029,
      "v": 118
    },
    {
      "midi": 59,
      "hit": false,
      "t": 117287.76149999951,
      "d": 228.2194687500014,
      "v": 127
    },
    {
      "midi": 60,
      "hit": false,
      "t": 117515.03399999952,
      "d": 214.96190624999872,
      "v": 121
    },
    {
      "midi": 72,
      "hit": false,
      "t": 117515.03399999952,
      "d": 221.59068749999278,
      "v": 116
    },
    {
      "midi": 74,
      "hit": false,
      "t": 117742.30649999951,
      "d": 216.85584375000326,
      "v": 124
    },
    {
      "midi": 62,
      "hit": false,
      "t": 117742.30649999951,
      "d": 232.95431250000547,
      "v": 116
    },
    {
      "midi": 75,
      "hit": false,
      "t": 117969.57899999952,
      "d": 215.9088749999937,
      "v": 116
    },
    {
      "midi": 63,
      "hit": false,
      "t": 117969.57899999952,
      "d": 225.3785624999873,
      "v": 121
    },
    {
      "midi": 77,
      "hit": false,
      "t": 118196.85149999951,
      "d": 205.49221875000512,
      "v": 116
    },
    {
      "midi": 65,
      "hit": false,
      "t": 118196.85149999951,
      "d": 218.7497812500078,
      "v": 121
    },
    {
      "midi": 67,
      "hit": false,
      "t": 118424.12399999952,
      "d": 321.9693750000006,
      "v": 121
    },
    {
      "midi": 79,
      "hit": false,
      "t": 118424.12399999952,
      "d": 324.8102812500001,
      "v": 127
    },
    {
      "midi": 63,
      "hit": false,
      "t": 118727.15399999951,
      "d": 253.7876249999972,
      "v": 116
    },
    {
      "midi": 75,
      "hit": false,
      "t": 118727.15399999951,
      "d": 280.30275000000256,
      "v": 118
    },
    {
      "midi": 72,
      "hit": false,
      "t": 119030.18399999951,
      "d": 243.37096874999406,
      "v": 121
    },
    {
      "midi": 60,
      "hit": false,
      "t": 119030.18399999951,
      "d": 259.4694374999963,
      "v": 109
    },
    {
      "midi": 56,
      "hit": false,
      "t": 119333.21399999951,
      "d": 295.4542499999952,
      "v": 104
    },
    {
      "midi": 80,
      "hit": false,
      "t": 119333.21399999951,
      "d": 295.4542499999952,
      "v": 114
    },
    {
      "midi": 79,
      "hit": false,
      "t": 119636.24399999951,
      "d": 295.4542499999952,
      "v": 109
    },
    {
      "midi": 55,
      "hit": false,
      "t": 119636.24399999951,
      "d": 313.446656250002,
      "v": 102
    },
    {
      "midi": 77,
      "hit": false,
      "t": 119939.27399999951,
      "d": 220.6437187499978,
      "v": 97
    },
    {
      "midi": 53,
      "hit": false,
      "t": 119939.27399999951,
      "d": 222.53765625000233,
      "v": 92
    },
    {
      "midi": 74,
      "hit": false,
      "t": 120469.57649999952,
      "d": 398.67384375000256,
      "v": 118
    },
    {
      "midi": 62,
      "hit": false,
      "t": 120469.57649999952,
      "d": 414.7723125000048,
      "v": 116
    },
    {
      "midi": 72,
      "hit": false,
      "t": 120924.12149999951,
      "d": 196.96950000000652,
      "v": 112
    },
    {
      "midi": 60,
      "hit": false,
      "t": 120924.12149999951,
      "d": 269.8860937499994,
      "v": 114
    },
    {
      "midi": 71,
      "hit": false,
      "t": 121151.39399999952,
      "d": 377.8405312499963,
      "v": 114
    },
    {
      "midi": 59,
      "hit": false,
      "t": 121151.39399999952,
      "d": 397.726874999993,
      "v": 116
    },
    {
      "midi": 56,
      "hit": false,
      "t": 121605.93899999952,
      "d": 200.75737500000105,
      "v": 91
    },
    {
      "midi": 68,
      "hit": false,
      "t": 121605.93899999952,
      "d": 209.28009374999965,
      "v": 104
    },
    {
      "midi": 71,
      "hit": false,
      "t": 121833.21149999952,
      "d": 142.99228125000081,
      "v": 96
    },
    {
      "midi": 59,
      "hit": false,
      "t": 121833.21149999952,
      "d": 223.48462499999732,
      "v": 110
    },
    {
      "midi": 71,
      "hit": false,
      "t": 122060.48399999952,
      "d": 310.60575000000244,
      "v": 121
    },
    {
      "midi": 79,
      "hit": false,
      "t": 122194.95356249952,
      "d": 97.53778124999371,
      "v": 87
    },
    {
      "midi": 84,
      "hit": false,
      "t": 122301.01406249951,
      "d": 137.31046875000175,
      "v": 88
    },
    {
      "midi": 72,
      "hit": false,
      "t": 122363.51399999952,
      "d": 300.1890937499993,
      "v": 116
    },
    {
      "midi": 79,
      "hit": false,
      "t": 122540.59715624951,
      "d": 107.00746875000186,
      "v": 87
    },
    {
      "midi": 84,
      "hit": false,
      "t": 122631.50615624951,
      "d": 124.99987500000861,
      "v": 88
    },
    {
      "midi": 70,
      "hit": false,
      "t": 122666.54399999951,
      "d": 246.2118749999936,
      "v": 118
    },
    {
      "midi": 79,
      "hit": false,
      "t": 122848.36199999951,
      "d": 93.74990624998463,
      "v": 85
    },
    {
      "midi": 84,
      "hit": false,
      "t": 122938.3240312495,
      "d": 131.62865624998813,
      "v": 87
    },
    {
      "midi": 68,
      "hit": false,
      "t": 122969.5739999995,
      "d": 281.24971874999756,
      "v": 121
    },
    {
      "midi": 79,
      "hit": false,
      "t": 123178.8540937495,
      "d": 102.27262499999779,
      "v": 87
    },
    {
      "midi": 84,
      "hit": false,
      "t": 123268.8161249995,
      "d": 124.99987499999406,
      "v": 87
    },
    {
      "midi": 67,
      "hit": false,
      "t": 123272.6039999995,
      "d": 280.302749999988,
      "v": 118
    },
    {
      "midi": 79,
      "hit": false,
      "t": 123510.29315624949,
      "d": 108.90140624999185,
      "v": 88
    },
    {
      "midi": 65,
      "hit": false,
      "t": 123575.63399999948,
      "d": 242.42399999999907,
      "v": 114
    },
    {
      "midi": 84,
      "hit": false,
      "t": 123613.51274999949,
      "d": 115.53018750000047,
      "v": 88
    },
    {
      "midi": 64,
      "hit": false,
      "t": 123878.66399999948,
      "d": 249.05278124999313,
      "v": 116
    },
    {
      "midi": 76,
      "hit": false,
      "t": 123878.66399999948,
      "d": 274.62093749998894,
      "v": 124
    },
    {
      "midi": 75,
      "hit": false,
      "t": 124219.57274999947,
      "d": 246.2118749999936,
      "v": 114
    },
    {
      "midi": 63,
      "hit": false,
      "t": 124219.57274999947,
      "d": 269.8860937499994,
      "v": 114
    },
    {
      "midi": 62,
      "hit": false,
      "t": 124560.48149999947,
      "d": 255.68156250000175,
      "v": 118
    },
    {
      "midi": 74,
      "hit": false,
      "t": 124560.48149999947,
      "d": 255.68156250000175,
      "v": 118
    },
    {
      "midi": 73,
      "hit": false,
      "t": 124901.39024999947,
      "d": 320.07543749999604,
      "v": 121
    },
    {
      "midi": 61,
      "hit": false,
      "t": 124901.39024999947,
      "d": 365.52993750000314,
      "v": 116
    },
    {
      "midi": 72,
      "hit": false,
      "t": 125242.29899999948,
      "d": 285.98456250000163,
      "v": 118
    },
    {
      "midi": 60,
      "hit": false,
      "t": 125242.29899999948,
      "d": 309.65878125000745,
      "v": 116
    },
    {
      "midi": 71,
      "hit": false,
      "t": 125924.11649999948,
      "d": 120.26503125000454,
      "v": 114
    },
    {
      "midi": 59,
      "hit": false,
      "t": 125924.11649999948,
      "d": 209.28009374999965,
      "v": 118
    },
    {
      "midi": 72,
      "hit": false,
      "t": 126151.38899999949,
      "d": 127.8407812499936,
      "v": 112
    },
    {
      "midi": 60,
      "hit": false,
      "t": 126151.38899999949,
      "d": 186.55284374998882,
      "v": 118
    },
    {
      "midi": 75,
      "hit": false,
      "t": 126378.66149999948,
      "d": 137.31046875000175,
      "v": 110
    },
    {
      "midi": 63,
      "hit": false,
      "t": 126378.66149999948,
      "d": 168.56043749999662,
      "v": 107
    },
    {
      "midi": 72,
      "hit": false,
      "t": 126605.93399999947,
      "d": 149.62106249999488,
      "v": 114
    },
    {
      "midi": 60,
      "hit": false,
      "t": 126605.93399999947,
      "d": 226.32553124999686,
      "v": 112
    },
    {
      "midi": 74,
      "hit": false,
      "t": 126833.20649999946,
      "d": 148.67409374999988,
      "v": 114
    },
    {
      "midi": 62,
      "hit": false,
      "t": 126833.20649999946,
      "d": 226.32553124999686,
      "v": 114
    },
    {
      "midi": 74,
      "hit": false,
      "t": 127287.75149999946,
      "d": 151.51499999999942,
      "v": 112
    },
    {
      "midi": 62,
      "hit": false,
      "t": 127287.75149999946,
      "d": 173.2952812500007,
      "v": 110
    },
    {
      "midi": 74,
      "hit": false,
      "t": 127515.02399999947,
      "d": 222.53765625000233,
      "v": 121
    },
    {
      "midi": 62,
      "hit": false,
      "t": 127515.02399999947,
      "d": 334.27996875000827,
      "v": 118
    },
    {
      "midi": 75,
      "hit": false,
      "t": 127969.56899999948,
      "d": 173.2952812500007,
      "v": 124
    },
    {
      "midi": 63,
      "hit": false,
      "t": 127969.56899999948,
      "d": 207.3861562499951,
      "v": 118
    },
    {
      "midi": 77,
      "hit": false,
      "t": 128196.84149999947,
      "d": 144.88621875000536,
      "v": 118
    },
    {
      "midi": 65,
      "hit": false,
      "t": 128196.84149999947,
      "d": 168.56043750001118,
      "v": 118
    },
    {
      "midi": 77,
      "hit": false,
      "t": 128651.38649999948,
      "d": 178.03012500000477,
      "v": 121
    },
    {
      "midi": 65,
      "hit": false,
      "t": 128651.38649999948,
      "d": 209.28009374999965,
      "v": 116
    },
    {
      "midi": 78,
      "hit": false,
      "t": 128878.65899999949,
      "d": 177.08315624999523,
      "v": 118
    },
    {
      "midi": 66,
      "hit": false,
      "t": 128878.65899999949,
      "d": 196.02253124999697,
      "v": 121
    },
    {
      "midi": 79,
      "hit": false,
      "t": 129105.93149999948,
      "d": 148.67409374999988,
      "v": 118
    },
    {
      "midi": 67,
      "hit": false,
      "t": 129105.93149999948,
      "d": 165.7195312499971,
      "v": 121
    },
    {
      "midi": 67,
      "hit": false,
      "t": 129333.20399999947,
      "d": 453.59803125000326,
      "v": 127
    },
    {
      "midi": 79,
      "hit": false,
      "t": 129333.20399999947,
      "d": 457.3859062499978,
      "v": 127
    },
    {
      "midi": 75,
      "hit": false,
      "t": 129787.74899999947,
      "d": 190.3407187499979,
      "v": 109
    },
    {
      "midi": 63,
      "hit": false,
      "t": 129787.74899999947,
      "d": 230.11340624999139,
      "v": 114
    },
    {
      "midi": 72,
      "hit": false,
      "t": 130015.02149999946,
      "d": 133.52259374999267,
      "v": 110
    },
    {
      "midi": 60,
      "hit": false,
      "t": 130015.02149999946,
      "d": 170.4543749999866,
      "v": 114
    },
    {
      "midi": 80,
      "hit": false,
      "t": 130242.29399999946,
      "d": 316.2875625000015,
      "v": 118
    },
    {
      "midi": 68,
      "hit": false,
      "t": 130242.29399999946,
      "d": 339.96178125000733,
      "v": 116
    },
    {
      "midi": 79,
      "hit": false,
      "t": 130583.20274999946,
      "d": 296.4012187500048,
      "v": 121
    },
    {
      "midi": 67,
      "hit": false,
      "t": 130583.20274999946,
      "d": 298.2951562500093,
      "v": 116
    },
    {
      "midi": 77,
      "hit": false,
      "t": 130924.11149999946,
      "d": 152.46196875000896,
      "v": 100
    },
    {
      "midi": 65,
      "hit": false,
      "t": 130924.11149999946,
      "d": 159.09075000001758,
      "v": 101
    },
    {
      "midi": 67,
      "hit": false,
      "t": 131378.6564999995,
      "d": 193.18162499999744,
      "v": 121
    },
    {
      "midi": 55,
      "hit": false,
      "t": 131378.6564999995,
      "d": 232.95431249999092,
      "v": 116
    },
    {
      "midi": 68,
      "hit": false,
      "t": 131605.92899999948,
      "d": 338.0678437500028,
      "v": 124
    },
    {
      "midi": 56,
      "hit": false,
      "t": 131605.92899999948,
      "d": 405.3026250000112,
      "v": 124
    },
    {
      "midi": 69,
      "hit": false,
      "t": 132060.4739999995,
      "d": 187.49981249999837,
      "v": 124
    },
    {
      "midi": 57,
      "hit": false,
      "t": 132060.4739999995,
      "d": 308.7118124999979,
      "v": 121
    },
    {
      "midi": 81,
      "hit": false,
      "t": 132287.74649999948,
      "d": 197.91646875001607,
      "v": 109
    },
    {
      "midi": 71,
      "hit": false,
      "t": 132515.0189999995,
      "d": 170.45437500000116,
      "v": 118
    },
    {
      "midi": 59,
      "hit": false,
      "t": 132515.0189999995,
      "d": 250.94671874999767,
      "v": 112
    },
    {
      "midi": 83,
      "hit": false,
      "t": 132742.2914999995,
      "d": 109.8483750000014,
      "v": 112
    },
    {
      "midi": 67,
      "hit": false,
      "t": 132969.5639999995,
      "d": 161.93165625000256,
      "v": 121
    },
    {
      "midi": 60,
      "hit": false,
      "t": 132969.5639999995,
      "d": 168.56043750001118,
      "v": 121
    },
    {
      "midi": 55,
      "hit": false,
      "t": 132969.5639999995,
      "d": 177.08315625000978,
      "v": 121
    },
    {
      "midi": 63,
      "hit": false,
      "t": 132969.5639999995,
      "d": 189.39375000001746,
      "v": 118
    },
    {
      "midi": 48,
      "hit": false,
      "t": 132969.5639999995,
      "d": 210.22706250002375,
      "v": 116
    },
    {
      "midi": 67,
      "hit": false,
      "t": 147515.00399999952,
      "d": 460.2268125000119,
      "v": 107
    },
    {
      "midi": 63,
      "hit": false,
      "t": 147515.00399999952,
      "d": 462.12075000000186,
      "v": 94
    },
    {
      "midi": 69,
      "hit": false,
      "t": 147515.00399999952,
      "d": 466.8555937499914,
      "v": 107
    },
    {
      "midi": 60,
      "hit": false,
      "t": 147515.00399999952,
      "d": 471.5904374999809,
      "v": 103
    },
    {
      "midi": 77,
      "hit": false,
      "t": 147969.54899999953,
      "d": 148.67409374995623,
      "v": 100
    },
    {
      "midi": 75,
      "hit": false,
      "t": 147969.54899999953,
      "d": 169.50740624996251,
      "v": 98
    },
    {
      "midi": 67,
      "hit": false,
      "t": 148196.8214999995,
      "d": 403.4086874999921,
      "v": 102
    },
    {
      "midi": 69,
      "hit": false,
      "t": 148196.8214999995,
      "d": 406.2495937499916,
      "v": 103
    },
    {
      "midi": 63,
      "hit": false,
      "t": 148196.8214999995,
      "d": 453.59803125000326,
      "v": 88
    },
    {
      "midi": 72,
      "hit": false,
      "t": 148651.3664999995,
      "d": 105.11353125001187,
      "v": 95
    },
    {
      "midi": 77,
      "hit": false,
      "t": 148651.3664999995,
      "d": 117.42412500001956,
      "v": 98
    },
    {
      "midi": 68,
      "hit": false,
      "t": 148651.3664999995,
      "d": 167.61346875003073,
      "v": 91
    },
    {
      "midi": 74,
      "hit": false,
      "t": 149105.91149999955,
      "d": 407.19656250000116,
      "v": 107
    },
    {
      "midi": 67,
      "hit": false,
      "t": 149105.91149999955,
      "d": 464.01468750002095,
      "v": 105
    },
    {
      "midi": 72,
      "hit": false,
      "t": 149105.91149999955,
      "d": 582.385781250021,
      "v": 105
    },
    {
      "midi": 80,
      "hit": false,
      "t": 149560.45649999956,
      "d": 110.79534375001094,
      "v": 97
    },
    {
      "midi": 77,
      "hit": false,
      "t": 149560.45649999956,
      "d": 123.10593750001863,
      "v": 99
    },
    {
      "midi": 71,
      "hit": false,
      "t": 150015.00149999958,
      "d": 117.42412499999045,
      "v": 100
    },
    {
      "midi": 67,
      "hit": false,
      "t": 150015.00149999958,
      "d": 128.7877499999886,
      "v": 102
    },
    {
      "midi": 71,
      "hit": false,
      "t": 150242.27399999957,
      "d": 207.3861562499951,
      "v": 103
    },
    {
      "midi": 80,
      "hit": false,
      "t": 150242.27399999957,
      "d": 211.1740312500042,
      "v": 102
    },
    {
      "midi": 67,
      "hit": false,
      "t": 150242.27399999957,
      "d": 220.64371875001234,
      "v": 103
    },
    {
      "midi": 67,
      "hit": false,
      "t": 150469.5464999996,
      "d": 97.53778124999371,
      "v": 82
    },
    {
      "midi": 71,
      "hit": false,
      "t": 150469.5464999996,
      "d": 108.90140624999185,
      "v": 84
    },
    {
      "midi": 79,
      "hit": false,
      "t": 150469.5464999996,
      "d": 196.96949999997742,
      "v": 98
    },
    {
      "midi": 80,
      "hit": false,
      "t": 150696.81899999958,
      "d": 183.7119374999893,
      "v": 99
    },
    {
      "midi": 67,
      "hit": false,
      "t": 150696.81899999958,
      "d": 249.05278124997858,
      "v": 103
    },
    {
      "midi": 71,
      "hit": false,
      "t": 150696.81899999958,
      "d": 262.3103437499667,
      "v": 94
    },
    {
      "midi": 79,
      "hit": false,
      "t": 150924.09149999957,
      "d": 157.19681249998393,
      "v": 92
    },
    {
      "midi": 67,
      "hit": false,
      "t": 151151.36399999956,
      "d": 460.2268125000119,
      "v": 107
    },
    {
      "midi": 63,
      "hit": false,
      "t": 151151.36399999956,
      "d": 462.12075000000186,
      "v": 94
    },
    {
      "midi": 69,
      "hit": false,
      "t": 151151.36399999956,
      "d": 466.8555937499914,
      "v": 107
    },
    {
      "midi": 60,
      "hit": false,
      "t": 151151.36399999956,
      "d": 471.5904374999809,
      "v": 103
    },
    {
      "midi": 77,
      "hit": false,
      "t": 151605.90899999958,
      "d": 148.67409374995623,
      "v": 100
    },
    {
      "midi": 75,
      "hit": false,
      "t": 151605.90899999958,
      "d": 169.50740624996251,
      "v": 98
    },
    {
      "midi": 67,
      "hit": false,
      "t": 151833.18149999954,
      "d": 403.4086874999921,
      "v": 102
    },
    {
      "midi": 69,
      "hit": false,
      "t": 151833.18149999954,
      "d": 406.2495937499916,
      "v": 103
    },
    {
      "midi": 63,
      "hit": false,
      "t": 151833.18149999954,
      "d": 453.59803125000326,
      "v": 88
    },
    {
      "midi": 72,
      "hit": false,
      "t": 152287.72649999955,
      "d": 105.11353125001187,
      "v": 95
    },
    {
      "midi": 77,
      "hit": false,
      "t": 152287.72649999955,
      "d": 117.42412500001956,
      "v": 98
    },
    {
      "midi": 68,
      "hit": false,
      "t": 152287.72649999955,
      "d": 167.61346875003073,
      "v": 91
    },
    {
      "midi": 71,
      "hit": false,
      "t": 152742.2714999996,
      "d": 116.47715625001001,
      "v": 107
    },
    {
      "midi": 67,
      "hit": false,
      "t": 152742.2714999996,
      "d": 134.46956250001676,
      "v": 107
    },
    {
      "midi": 67,
      "hit": false,
      "t": 153196.8164999996,
      "d": 134.46956249998766,
      "v": 107
    },
    {
      "midi": 71,
      "hit": false,
      "t": 153196.8164999996,
      "d": 140.15137499998673,
      "v": 105
    },
    {
      "midi": 71,
      "hit": false,
      "t": 153651.3614999996,
      "d": 115.53018750000047,
      "v": 103
    },
    {
      "midi": 67,
      "hit": false,
      "t": 153651.3614999996,
      "d": 144.88621875000536,
      "v": 102
    },
    {
      "midi": 74,
      "hit": false,
      "t": 153651.3614999996,
      "d": 155.30287499999395,
      "v": 105
    },
    {
      "midi": 80,
      "hit": false,
      "t": 153878.63399999958,
      "d": 358.9011562500091,
      "v": 105
    },
    {
      "midi": 71,
      "hit": false,
      "t": 153878.63399999958,
      "d": 388.25718750001397,
      "v": 102
    },
    {
      "midi": 68,
      "hit": false,
      "t": 153878.63399999958,
      "d": 443.18137500001467,
      "v": 103
    },
    {
      "midi": 79,
      "hit": false,
      "t": 154333.1789999996,
      "d": 279.355781249993,
      "v": 100
    },
    {
      "midi": 71,
      "hit": false,
      "t": 154333.1789999996,
      "d": 281.249718749983,
      "v": 100
    },
    {
      "midi": 67,
      "hit": false,
      "t": 154333.1789999996,
      "d": 309.65878124997835,
      "v": 99
    },
    {
      "midi": 67,
      "hit": false,
      "t": 154787.72399999958,
      "d": 460.2268125000119,
      "v": 107
    },
    {
      "midi": 63,
      "hit": false,
      "t": 154787.72399999958,
      "d": 462.12075000000186,
      "v": 94
    },
    {
      "midi": 69,
      "hit": false,
      "t": 154787.72399999958,
      "d": 466.8555937499914,
      "v": 107
    },
    {
      "midi": 60,
      "hit": false,
      "t": 154787.72399999958,
      "d": 471.5904374999809,
      "v": 103
    },
    {
      "midi": 77,
      "hit": false,
      "t": 155242.2689999996,
      "d": 148.67409374995623,
      "v": 100
    },
    {
      "midi": 75,
      "hit": false,
      "t": 155242.2689999996,
      "d": 169.50740624996251,
      "v": 98
    },
    {
      "midi": 67,
      "hit": false,
      "t": 155469.54149999956,
      "d": 403.4086874999921,
      "v": 102
    },
    {
      "midi": 69,
      "hit": false,
      "t": 155469.54149999956,
      "d": 406.2495937499916,
      "v": 103
    },
    {
      "midi": 63,
      "hit": false,
      "t": 155469.54149999956,
      "d": 453.59803125000326,
      "v": 88
    },
    {
      "midi": 72,
      "hit": false,
      "t": 155924.08649999957,
      "d": 105.11353125001187,
      "v": 95
    },
    {
      "midi": 77,
      "hit": false,
      "t": 155924.08649999957,
      "d": 117.42412500001956,
      "v": 98
    },
    {
      "midi": 68,
      "hit": false,
      "t": 155924.08649999957,
      "d": 167.61346875003073,
      "v": 91
    },
    {
      "midi": 74,
      "hit": false,
      "t": 156378.6314999996,
      "d": 407.19656250000116,
      "v": 107
    },
    {
      "midi": 67,
      "hit": false,
      "t": 156378.6314999996,
      "d": 464.01468750002095,
      "v": 105
    },
    {
      "midi": 72,
      "hit": false,
      "t": 156378.6314999996,
      "d": 582.385781250021,
      "v": 105
    },
    {
      "midi": 80,
      "hit": false,
      "t": 156833.17649999962,
      "d": 110.79534375001094,
      "v": 97
    },
    {
      "midi": 77,
      "hit": false,
      "t": 156833.17649999962,
      "d": 123.10593750001863,
      "v": 99
    },
    {
      "midi": 71,
      "hit": false,
      "t": 157287.72149999964,
      "d": 117.42412499999045,
      "v": 100
    },
    {
      "midi": 67,
      "hit": false,
      "t": 157287.72149999964,
      "d": 128.7877499999886,
      "v": 102
    },
    {
      "midi": 71,
      "hit": false,
      "t": 157514.99399999963,
      "d": 207.3861562499951,
      "v": 103
    },
    {
      "midi": 80,
      "hit": false,
      "t": 157514.99399999963,
      "d": 211.1740312500042,
      "v": 102
    },
    {
      "midi": 67,
      "hit": false,
      "t": 157514.99399999963,
      "d": 220.64371875001234,
      "v": 103
    },
    {
      "midi": 67,
      "hit": false,
      "t": 157742.26649999965,
      "d": 97.53778124999371,
      "v": 82
    },
    {
      "midi": 71,
      "hit": false,
      "t": 157742.26649999965,
      "d": 108.90140624999185,
      "v": 84
    },
    {
      "midi": 79,
      "hit": false,
      "t": 157742.26649999965,
      "d": 196.96949999997742,
      "v": 98
    },
    {
      "midi": 80,
      "hit": false,
      "t": 157969.53899999964,
      "d": 183.7119374999893,
      "v": 99
    },
    {
      "midi": 67,
      "hit": false,
      "t": 157969.53899999964,
      "d": 249.05278124997858,
      "v": 103
    },
    {
      "midi": 71,
      "hit": false,
      "t": 157969.53899999964,
      "d": 262.3103437499667,
      "v": 94
    },
    {
      "midi": 79,
      "hit": false,
      "t": 158196.81149999963,
      "d": 157.19681249998393,
      "v": 92
    },
    {
      "midi": 67,
      "hit": false,
      "t": 158424.08399999962,
      "d": 460.2268125000119,
      "v": 107
    },
    {
      "midi": 63,
      "hit": false,
      "t": 158424.08399999962,
      "d": 462.12075000000186,
      "v": 94
    },
    {
      "midi": 69,
      "hit": false,
      "t": 158424.08399999962,
      "d": 466.8555937499914,
      "v": 107
    },
    {
      "midi": 60,
      "hit": false,
      "t": 158424.08399999962,
      "d": 471.5904374999809,
      "v": 103
    },
    {
      "midi": 77,
      "hit": false,
      "t": 158878.62899999964,
      "d": 148.67409374995623,
      "v": 100
    },
    {
      "midi": 75,
      "hit": false,
      "t": 158878.62899999964,
      "d": 169.50740624996251,
      "v": 98
    },
    {
      "midi": 67,
      "hit": false,
      "t": 159105.9014999996,
      "d": 403.4086874999921,
      "v": 102
    },
    {
      "midi": 69,
      "hit": false,
      "t": 159105.9014999996,
      "d": 406.2495937499916,
      "v": 103
    },
    {
      "midi": 63,
      "hit": false,
      "t": 159105.9014999996,
      "d": 453.59803125000326,
      "v": 88
    },
    {
      "midi": 72,
      "hit": false,
      "t": 159560.4464999996,
      "d": 105.11353125001187,
      "v": 95
    },
    {
      "midi": 77,
      "hit": false,
      "t": 159560.4464999996,
      "d": 117.42412500001956,
      "v": 98
    },
    {
      "midi": 68,
      "hit": false,
      "t": 159560.4464999996,
      "d": 167.61346875003073,
      "v": 91
    },
    {
      "midi": 71,
      "hit": false,
      "t": 160014.99149999965,
      "d": 116.47715625001001,
      "v": 107
    },
    {
      "midi": 67,
      "hit": false,
      "t": 160014.99149999965,
      "d": 134.46956250001676,
      "v": 107
    },
    {
      "midi": 67,
      "hit": false,
      "t": 160469.53649999967,
      "d": 134.46956249998766,
      "v": 107
    },
    {
      "midi": 71,
      "hit": false,
      "t": 160469.53649999967,
      "d": 140.15137499998673,
      "v": 105
    },
    {
      "midi": 71,
      "hit": false,
      "t": 160924.08149999965,
      "d": 115.53018750000047,
      "v": 103
    },
    {
      "midi": 67,
      "hit": false,
      "t": 160924.08149999965,
      "d": 144.88621875000536,
      "v": 102
    },
    {
      "midi": 74,
      "hit": false,
      "t": 160924.08149999965,
      "d": 155.30287499999395,
      "v": 105
    },
    {
      "midi": 80,
      "hit": false,
      "t": 161151.35399999964,
      "d": 358.9011562500091,
      "v": 105
    },
    {
      "midi": 71,
      "hit": false,
      "t": 161151.35399999964,
      "d": 388.25718750001397,
      "v": 102
    },
    {
      "midi": 68,
      "hit": false,
      "t": 161151.35399999964,
      "d": 443.18137500001467,
      "v": 103
    },
    {
      "midi": 79,
      "hit": false,
      "t": 161605.89899999966,
      "d": 279.355781249993,
      "v": 100
    },
    {
      "midi": 71,
      "hit": false,
      "t": 161605.89899999966,
      "d": 281.249718749983,
      "v": 100
    },
    {
      "midi": 67,
      "hit": false,
      "t": 161605.89899999966,
      "d": 309.65878124997835,
      "v": 99
    },
    {
      "midi": 67,
      "hit": false,
      "t": 162060.44399999964,
      "d": 460.2268125000119,
      "v": 107
    },
    {
      "midi": 63,
      "hit": false,
      "t": 162060.44399999964,
      "d": 462.12075000000186,
      "v": 94
    },
    {
      "midi": 69,
      "hit": false,
      "t": 162060.44399999964,
      "d": 466.8555937499914,
      "v": 107
    },
    {
      "midi": 60,
      "hit": false,
      "t": 162060.44399999964,
      "d": 471.5904374999809,
      "v": 103
    },
    {
      "midi": 77,
      "hit": false,
      "t": 162514.98899999965,
      "d": 148.67409374995623,
      "v": 100
    },
    {
      "midi": 75,
      "hit": false,
      "t": 162514.98899999965,
      "d": 169.50740624996251,
      "v": 98
    },
    {
      "midi": 67,
      "hit": false,
      "t": 162742.26149999961,
      "d": 403.4086874999921,
      "v": 102
    },
    {
      "midi": 69,
      "hit": false,
      "t": 162742.26149999961,
      "d": 406.2495937499916,
      "v": 103
    },
    {
      "midi": 63,
      "hit": false,
      "t": 162742.26149999961,
      "d": 453.59803125000326,
      "v": 88
    },
    {
      "midi": 72,
      "hit": false,
      "t": 163196.80649999963,
      "d": 105.11353125001187,
      "v": 95
    },
    {
      "midi": 77,
      "hit": false,
      "t": 163196.80649999963,
      "d": 117.42412500001956,
      "v": 98
    },
    {
      "midi": 68,
      "hit": false,
      "t": 163196.80649999963,
      "d": 167.61346875003073,
      "v": 91
    },
    {
      "midi": 74,
      "hit": false,
      "t": 163651.35149999967,
      "d": 407.19656250000116,
      "v": 107
    },
    {
      "midi": 67,
      "hit": false,
      "t": 163651.35149999967,
      "d": 464.01468750002095,
      "v": 105
    },
    {
      "midi": 72,
      "hit": false,
      "t": 163651.35149999967,
      "d": 582.385781250021,
      "v": 105
    },
    {
      "midi": 80,
      "hit": false,
      "t": 164105.89649999968,
      "d": 110.79534375001094,
      "v": 97
    },
    {
      "midi": 77,
      "hit": false,
      "t": 164105.89649999968,
      "d": 123.10593750001863,
      "v": 99
    },
    {
      "midi": 71,
      "hit": false,
      "t": 164560.4414999997,
      "d": 117.42412499999045,
      "v": 100
    },
    {
      "midi": 67,
      "hit": false,
      "t": 164560.4414999997,
      "d": 128.7877499999886,
      "v": 102
    },
    {
      "midi": 71,
      "hit": false,
      "t": 164787.7139999997,
      "d": 207.3861562499951,
      "v": 103
    },
    {
      "midi": 80,
      "hit": false,
      "t": 164787.7139999997,
      "d": 211.1740312500042,
      "v": 102
    },
    {
      "midi": 67,
      "hit": false,
      "t": 164787.7139999997,
      "d": 220.64371875001234,
      "v": 103
    },
    {
      "midi": 67,
      "hit": false,
      "t": 165014.9864999997,
      "d": 97.53778124999371,
      "v": 82
    },
    {
      "midi": 71,
      "hit": false,
      "t": 165014.9864999997,
      "d": 108.90140624999185,
      "v": 84
    },
    {
      "midi": 79,
      "hit": false,
      "t": 165014.9864999997,
      "d": 196.96949999997742,
      "v": 98
    },
    {
      "midi": 80,
      "hit": false,
      "t": 165242.2589999997,
      "d": 183.7119374999893,
      "v": 99
    },
    {
      "midi": 67,
      "hit": false,
      "t": 165242.2589999997,
      "d": 249.05278124997858,
      "v": 103
    },
    {
      "midi": 71,
      "hit": false,
      "t": 165242.2589999997,
      "d": 262.3103437499667,
      "v": 94
    },
    {
      "midi": 79,
      "hit": false,
      "t": 165469.5314999997,
      "d": 157.19681249998393,
      "v": 92
    },
    {
      "midi": 67,
      "hit": false,
      "t": 165696.80399999968,
      "d": 460.2268125000119,
      "v": 107
    },
    {
      "midi": 63,
      "hit": false,
      "t": 165696.80399999968,
      "d": 462.12075000000186,
      "v": 94
    },
    {
      "midi": 69,
      "hit": false,
      "t": 165696.80399999968,
      "d": 466.8555937499914,
      "v": 107
    },
    {
      "midi": 60,
      "hit": false,
      "t": 165696.80399999968,
      "d": 471.5904374999809,
      "v": 103
    },
    {
      "midi": 77,
      "hit": false,
      "t": 166151.3489999997,
      "d": 148.67409374995623,
      "v": 100
    },
    {
      "midi": 75,
      "hit": false,
      "t": 166151.3489999997,
      "d": 169.50740624996251,
      "v": 98
    },
    {
      "midi": 67,
      "hit": false,
      "t": 166378.62149999966,
      "d": 403.4086874999921,
      "v": 102
    },
    {
      "midi": 69,
      "hit": false,
      "t": 166378.62149999966,
      "d": 406.2495937499916,
      "v": 103
    },
    {
      "midi": 63,
      "hit": false,
      "t": 166378.62149999966,
      "d": 453.59803125000326,
      "v": 88
    },
    {
      "midi": 72,
      "hit": false,
      "t": 166833.16649999967,
      "d": 105.11353125001187,
      "v": 95
    },
    {
      "midi": 77,
      "hit": false,
      "t": 166833.16649999967,
      "d": 117.42412500001956,
      "v": 98
    },
    {
      "midi": 68,
      "hit": false,
      "t": 166833.16649999967,
      "d": 167.61346875003073,
      "v": 91
    },
    {
      "midi": 67,
      "hit": false,
      "t": 167287.7114999997,
      "d": 314.393624999997,
      "v": 103
    },
    {
      "midi": 55,
      "hit": false,
      "t": 167287.7114999997,
      "d": 704.5447499999718,
      "v": 102
    },
    {
      "midi": 67,
      "hit": false,
      "t": 167742.2564999997,
      "d": 205.49221875000512,
      "v": 105
    },
    {
      "midi": 71,
      "hit": false,
      "t": 167969.5289999997,
      "d": 194.12859375000698,
      "v": 107
    },
    {
      "midi": 74,
      "hit": false,
      "t": 168196.8014999997,
      "d": 160.98468749999302,
      "v": 105
    },
    {
      "midi": 77,
      "hit": false,
      "t": 168424.0739999997,
      "d": 223.48462500001187,
      "v": 100
    },
    {
      "midi": 77,
      "hit": false,
      "t": 168651.34649999972,
      "d": 223.48462500001187,
      "v": 102
    },
    {
      "midi": 80,
      "hit": false,
      "t": 168651.34649999972,
      "d": 223.48462500001187,
      "v": 103
    },
    {
      "midi": 75,
      "hit": false,
      "t": 168878.61899999974,
      "d": 223.48462500001187,
      "v": 97
    },
    {
      "midi": 79,
      "hit": false,
      "t": 168878.61899999974,
      "d": 223.48462500001187,
      "v": 102
    },
    {
      "midi": 74,
      "hit": false,
      "t": 169105.89149999977,
      "d": 223.48462500001187,
      "v": 102
    },
    {
      "midi": 77,
      "hit": false,
      "t": 169105.89149999977,
      "d": 223.48462500001187,
      "v": 99
    },
    {
      "midi": 67,
      "hit": false,
      "t": 169333.1639999998,
      "d": 460.2268125000119,
      "v": 107
    },
    {
      "midi": 63,
      "hit": false,
      "t": 169333.1639999998,
      "d": 462.12075000000186,
      "v": 94
    },
    {
      "midi": 69,
      "hit": false,
      "t": 169333.1639999998,
      "d": 466.8555937499914,
      "v": 107
    },
    {
      "midi": 60,
      "hit": false,
      "t": 169333.1639999998,
      "d": 471.5904374999809,
      "v": 103
    },
    {
      "midi": 77,
      "hit": false,
      "t": 169787.7089999998,
      "d": 148.67409374995623,
      "v": 100
    },
    {
      "midi": 75,
      "hit": false,
      "t": 169787.7089999998,
      "d": 169.50740624996251,
      "v": 98
    },
    {
      "midi": 67,
      "hit": false,
      "t": 170014.98149999976,
      "d": 403.4086874999921,
      "v": 102
    },
    {
      "midi": 69,
      "hit": false,
      "t": 170014.98149999976,
      "d": 406.2495937499916,
      "v": 103
    },
    {
      "midi": 63,
      "hit": false,
      "t": 170014.98149999976,
      "d": 453.59803125000326,
      "v": 88
    },
    {
      "midi": 72,
      "hit": false,
      "t": 170469.52649999977,
      "d": 105.11353125001187,
      "v": 95
    },
    {
      "midi": 77,
      "hit": false,
      "t": 170469.52649999977,
      "d": 117.42412500001956,
      "v": 98
    },
    {
      "midi": 68,
      "hit": false,
      "t": 170469.52649999977,
      "d": 167.61346875003073,
      "v": 91
    },
    {
      "midi": 74,
      "hit": false,
      "t": 170924.07149999982,
      "d": 407.19656250000116,
      "v": 107
    },
    {
      "midi": 67,
      "hit": false,
      "t": 170924.07149999982,
      "d": 464.01468750002095,
      "v": 105
    },
    {
      "midi": 72,
      "hit": false,
      "t": 170924.07149999982,
      "d": 582.385781250021,
      "v": 105
    },
    {
      "midi": 80,
      "hit": false,
      "t": 171378.61649999983,
      "d": 110.79534375001094,
      "v": 97
    },
    {
      "midi": 77,
      "hit": false,
      "t": 171378.61649999983,
      "d": 123.10593750001863,
      "v": 99
    },
    {
      "midi": 71,
      "hit": false,
      "t": 171833.16149999984,
      "d": 117.42412499999045,
      "v": 100
    },
    {
      "midi": 67,
      "hit": false,
      "t": 171833.16149999984,
      "d": 128.7877499999886,
      "v": 102
    },
    {
      "midi": 71,
      "hit": false,
      "t": 172060.43399999983,
      "d": 207.3861562499951,
      "v": 103
    },
    {
      "midi": 80,
      "hit": false,
      "t": 172060.43399999983,
      "d": 211.1740312500042,
      "v": 102
    },
    {
      "midi": 67,
      "hit": false,
      "t": 172060.43399999983,
      "d": 220.64371875001234,
      "v": 103
    },
    {
      "midi": 67,
      "hit": false,
      "t": 172287.70649999985,
      "d": 97.53778124999371,
      "v": 82
    },
    {
      "midi": 71,
      "hit": false,
      "t": 172287.70649999985,
      "d": 108.90140624999185,
      "v": 84
    },
    {
      "midi": 79,
      "hit": false,
      "t": 172287.70649999985,
      "d": 196.96949999997742,
      "v": 98
    },
    {
      "midi": 80,
      "hit": false,
      "t": 172514.97899999985,
      "d": 183.7119374999893,
      "v": 99
    },
    {
      "midi": 67,
      "hit": false,
      "t": 172514.97899999985,
      "d": 249.05278124997858,
      "v": 103
    },
    {
      "midi": 71,
      "hit": false,
      "t": 172514.97899999985,
      "d": 262.3103437499667,
      "v": 94
    },
    {
      "midi": 79,
      "hit": false,
      "t": 172742.25149999984,
      "d": 157.19681249998393,
      "v": 92
    },
    {
      "midi": 67,
      "hit": false,
      "t": 172969.52399999983,
      "d": 460.2268125000119,
      "v": 107
    },
    {
      "midi": 63,
      "hit": false,
      "t": 172969.52399999983,
      "d": 462.12075000000186,
      "v": 94
    },
    {
      "midi": 69,
      "hit": false,
      "t": 172969.52399999983,
      "d": 466.8555937499914,
      "v": 107
    },
    {
      "midi": 60,
      "hit": false,
      "t": 172969.52399999983,
      "d": 471.5904374999809,
      "v": 103
    },
    {
      "midi": 77,
      "hit": false,
      "t": 173424.06899999984,
      "d": 148.67409374995623,
      "v": 100
    },
    {
      "midi": 75,
      "hit": false,
      "t": 173424.06899999984,
      "d": 169.50740624996251,
      "v": 98
    },
    {
      "midi": 67,
      "hit": false,
      "t": 173651.3414999998,
      "d": 403.4086874999921,
      "v": 102
    },
    {
      "midi": 69,
      "hit": false,
      "t": 173651.3414999998,
      "d": 406.2495937499916,
      "v": 103
    },
    {
      "midi": 63,
      "hit": false,
      "t": 173651.3414999998,
      "d": 453.59803125000326,
      "v": 88
    },
    {
      "midi": 72,
      "hit": false,
      "t": 174105.88649999982,
      "d": 105.11353125001187,
      "v": 95
    },
    {
      "midi": 77,
      "hit": false,
      "t": 174105.88649999982,
      "d": 117.42412500001956,
      "v": 98
    },
    {
      "midi": 68,
      "hit": false,
      "t": 174105.88649999982,
      "d": 167.61346875003073,
      "v": 91
    },
    {
      "midi": 77,
      "hit": false,
      "t": 174560.43149999986,
      "d": 392.9920312499744,
      "v": 105
    },
    {
      "midi": 74,
      "hit": false,
      "t": 174560.43149999986,
      "d": 404.3556562499725,
      "v": 105
    },
    {
      "midi": 91,
      "hit": false,
      "t": 174787.70399999985,
      "d": 85.22718749998603,
      "v": 107
    },
    {
      "midi": 79,
      "hit": false,
      "t": 174787.70399999985,
      "d": 104.16656249997322,
      "v": 105
    },
    {
      "midi": 79,
      "hit": false,
      "t": 175014.97649999984,
      "d": 38.82571875001304,
      "v": 98
    },
    {
      "midi": 91,
      "hit": false,
      "t": 175014.97649999984,
      "d": 58.71206250000978,
      "v": 98
    },
    {
      "midi": 68,
      "hit": false,
      "t": 175014.97649999984,
      "d": 192.234656250017,
      "v": 91
    },
    {
      "midi": 65,
      "hit": false,
      "t": 175014.97649999984,
      "d": 203.59828125001513,
      "v": 95
    },
    {
      "midi": 91,
      "hit": false,
      "t": 175128.61274999985,
      "d": 89.96203125000466,
      "v": 99
    },
    {
      "midi": 79,
      "hit": false,
      "t": 175128.61274999985,
      "d": 96.59081250001327,
      "v": 102
    },
    {
      "midi": 77,
      "hit": false,
      "t": 175242.24899999987,
      "d": 159.09075000000303,
      "v": 97
    },
    {
      "midi": 74,
      "hit": false,
      "t": 175242.24899999987,
      "d": 167.61346875000163,
      "v": 100
    },
    {
      "midi": 91,
      "hit": false,
      "t": 175355.88524999988,
      "d": 59.65903124999022,
      "v": 98
    },
    {
      "midi": 79,
      "hit": false,
      "t": 175355.88524999988,
      "d": 207.3861562499951,
      "v": 95
    },
    {
      "midi": 91,
      "hit": false,
      "t": 175469.52149999986,
      "d": 92.80293750000419,
      "v": 95
    },
    {
      "midi": 77,
      "hit": false,
      "t": 175469.52149999986,
      "d": 173.2952812500007,
      "v": 82
    },
    {
      "midi": 80,
      "hit": false,
      "t": 175469.52149999986,
      "d": 176.13618750000023,
      "v": 97
    },
    {
      "midi": 89,
      "hit": false,
      "t": 175696.79399999985,
      "d": 316.28756249998696,
      "v": 100
    },
    {
      "midi": 77,
      "hit": false,
      "t": 175696.79399999985,
      "d": 358.90115624998,
      "v": 102
    },
    {
      "midi": 80,
      "hit": false,
      "t": 176151.33899999983,
      "d": 179.9240625000093,
      "v": 85
    },
    {
      "midi": 92,
      "hit": false,
      "t": 176151.33899999983,
      "d": 193.18162499999744,
      "v": 91
    },
    {
      "midi": 89,
      "hit": false,
      "t": 176378.61149999982,
      "d": 102.27262500001234,
      "v": 89
    },
    {
      "midi": 77,
      "hit": false,
      "t": 176378.61149999982,
      "d": 142.99228125001537,
      "v": 94
    },
    {
      "midi": 67,
      "hit": false,
      "t": 176605.88399999985,
      "d": 460.2268125000119,
      "v": 107
    },
    {
      "midi": 63,
      "hit": false,
      "t": 176605.88399999985,
      "d": 462.12075000000186,
      "v": 94
    },
    {
      "midi": 69,
      "hit": false,
      "t": 176605.88399999985,
      "d": 466.8555937499914,
      "v": 107
    },
    {
      "midi": 60,
      "hit": false,
      "t": 176605.88399999985,
      "d": 471.5904374999809,
      "v": 103
    },
    {
      "midi": 77,
      "hit": false,
      "t": 177060.42899999986,
      "d": 148.67409374995623,
      "v": 100
    },
    {
      "midi": 75,
      "hit": false,
      "t": 177060.42899999986,
      "d": 169.50740624996251,
      "v": 98
    },
    {
      "midi": 67,
      "hit": false,
      "t": 177287.70149999982,
      "d": 403.4086874999921,
      "v": 102
    },
    {
      "midi": 69,
      "hit": false,
      "t": 177287.70149999982,
      "d": 406.2495937499916,
      "v": 103
    },
    {
      "midi": 63,
      "hit": false,
      "t": 177287.70149999982,
      "d": 453.59803125000326,
      "v": 88
    },
    {
      "midi": 72,
      "hit": false,
      "t": 177742.24649999983,
      "d": 105.11353125001187,
      "v": 95
    },
    {
      "midi": 77,
      "hit": false,
      "t": 177742.24649999983,
      "d": 117.42412500001956,
      "v": 98
    },
    {
      "midi": 68,
      "hit": false,
      "t": 177742.24649999983,
      "d": 167.61346875003073,
      "v": 91
    },
    {
      "midi": 74,
      "hit": false,
      "t": 178196.79149999988,
      "d": 407.19656250000116,
      "v": 107
    },
    {
      "midi": 67,
      "hit": false,
      "t": 178196.79149999988,
      "d": 464.01468750002095,
      "v": 105
    },
    {
      "midi": 72,
      "hit": false,
      "t": 178196.79149999988,
      "d": 582.385781250021,
      "v": 105
    },
    {
      "midi": 80,
      "hit": false,
      "t": 178651.3364999999,
      "d": 110.79534375001094,
      "v": 97
    },
    {
      "midi": 77,
      "hit": false,
      "t": 178651.3364999999,
      "d": 123.10593750001863,
      "v": 99
    },
    {
      "midi": 71,
      "hit": false,
      "t": 179105.8814999999,
      "d": 117.42412499999045,
      "v": 100
    },
    {
      "midi": 67,
      "hit": false,
      "t": 179105.8814999999,
      "d": 128.7877499999886,
      "v": 102
    },
    {
      "midi": 71,
      "hit": false,
      "t": 179333.1539999999,
      "d": 207.3861562499951,
      "v": 103
    },
    {
      "midi": 80,
      "hit": false,
      "t": 179333.1539999999,
      "d": 211.1740312500042,
      "v": 102
    },
    {
      "midi": 67,
      "hit": false,
      "t": 179333.1539999999,
      "d": 220.64371875001234,
      "v": 103
    },
    {
      "midi": 67,
      "hit": false,
      "t": 179560.4264999999,
      "d": 97.53778124999371,
      "v": 82
    },
    {
      "midi": 71,
      "hit": false,
      "t": 179560.4264999999,
      "d": 108.90140624999185,
      "v": 84
    },
    {
      "midi": 79,
      "hit": false,
      "t": 179560.4264999999,
      "d": 196.96949999997742,
      "v": 98
    },
    {
      "midi": 80,
      "hit": false,
      "t": 179787.6989999999,
      "d": 183.7119374999893,
      "v": 99
    },
    {
      "midi": 67,
      "hit": false,
      "t": 179787.6989999999,
      "d": 249.05278124997858,
      "v": 103
    },
    {
      "midi": 71,
      "hit": false,
      "t": 179787.6989999999,
      "d": 262.3103437499667,
      "v": 94
    },
    {
      "midi": 79,
      "hit": false,
      "t": 180014.9714999999,
      "d": 157.19681249998393,
      "v": 92
    },
    {
      "midi": 67,
      "hit": false,
      "t": 180242.2439999999,
      "d": 460.2268125000119,
      "v": 107
    },
    {
      "midi": 63,
      "hit": false,
      "t": 180242.2439999999,
      "d": 462.12075000000186,
      "v": 94
    },
    {
      "midi": 69,
      "hit": false,
      "t": 180242.2439999999,
      "d": 466.8555937499914,
      "v": 107
    },
    {
      "midi": 60,
      "hit": false,
      "t": 180242.2439999999,
      "d": 471.5904374999809,
      "v": 103
    },
    {
      "midi": 77,
      "hit": false,
      "t": 180696.7889999999,
      "d": 148.67409374995623,
      "v": 100
    },
    {
      "midi": 75,
      "hit": false,
      "t": 180696.7889999999,
      "d": 169.50740624996251,
      "v": 98
    },
    {
      "midi": 67,
      "hit": false,
      "t": 180924.06149999987,
      "d": 403.4086874999921,
      "v": 102
    },
    {
      "midi": 69,
      "hit": false,
      "t": 180924.06149999987,
      "d": 406.2495937499916,
      "v": 103
    },
    {
      "midi": 63,
      "hit": false,
      "t": 180924.06149999987,
      "d": 453.59803125000326,
      "v": 88
    },
    {
      "midi": 72,
      "hit": false,
      "t": 181378.60649999988,
      "d": 105.11353125001187,
      "v": 95
    },
    {
      "midi": 77,
      "hit": false,
      "t": 181378.60649999988,
      "d": 117.42412500001956,
      "v": 98
    },
    {
      "midi": 68,
      "hit": false,
      "t": 181378.60649999988,
      "d": 167.61346875003073,
      "v": 91
    },
    {
      "midi": 67,
      "hit": false,
      "t": 181833.15149999992,
      "d": 314.393624999997,
      "v": 103
    },
    {
      "midi": 55,
      "hit": false,
      "t": 181833.15149999992,
      "d": 704.5447499999718,
      "v": 102
    },
    {
      "midi": 67,
      "hit": false,
      "t": 182287.6964999999,
      "d": 205.49221875000512,
      "v": 105
    },
    {
      "midi": 71,
      "hit": false,
      "t": 182514.9689999999,
      "d": 194.12859375000698,
      "v": 107
    },
    {
      "midi": 74,
      "hit": false,
      "t": 182742.24149999992,
      "d": 160.98468749999302,
      "v": 105
    },
    {
      "midi": 77,
      "hit": false,
      "t": 182969.5139999999,
      "d": 223.48462500001187,
      "v": 100
    },
    {
      "midi": 77,
      "hit": false,
      "t": 183196.78649999993,
      "d": 223.48462500001187,
      "v": 102
    },
    {
      "midi": 80,
      "hit": false,
      "t": 183196.78649999993,
      "d": 223.48462500001187,
      "v": 103
    },
    {
      "midi": 75,
      "hit": false,
      "t": 183424.05899999995,
      "d": 223.48462500001187,
      "v": 97
    },
    {
      "midi": 79,
      "hit": false,
      "t": 183424.05899999995,
      "d": 223.48462500001187,
      "v": 102
    },
    {
      "midi": 74,
      "hit": false,
      "t": 183651.33149999997,
      "d": 223.48462500001187,
      "v": 102
    },
    {
      "midi": 77,
      "hit": false,
      "t": 183651.33149999997,
      "d": 223.48462500001187,
      "v": 99
    },
    {
      "midi": 67,
      "hit": false,
      "t": 183878.604,
      "d": 460.2268125000119,
      "v": 107
    },
    {
      "midi": 63,
      "hit": false,
      "t": 183878.604,
      "d": 462.12075000000186,
      "v": 94
    },
    {
      "midi": 69,
      "hit": false,
      "t": 183878.604,
      "d": 466.8555937499914,
      "v": 107
    },
    {
      "midi": 60,
      "hit": false,
      "t": 183878.604,
      "d": 471.5904374999809,
      "v": 103
    },
    {
      "midi": 77,
      "hit": false,
      "t": 184333.149,
      "d": 148.67409374995623,
      "v": 100
    },
    {
      "midi": 75,
      "hit": false,
      "t": 184333.149,
      "d": 169.50740624996251,
      "v": 98
    },
    {
      "midi": 67,
      "hit": false,
      "t": 184560.42149999997,
      "d": 403.4086874999921,
      "v": 102
    },
    {
      "midi": 69,
      "hit": false,
      "t": 184560.42149999997,
      "d": 406.2495937499916,
      "v": 103
    },
    {
      "midi": 63,
      "hit": false,
      "t": 184560.42149999997,
      "d": 453.59803125000326,
      "v": 88
    },
    {
      "midi": 72,
      "hit": false,
      "t": 185014.96649999998,
      "d": 105.11353125001187,
      "v": 95
    },
    {
      "midi": 77,
      "hit": false,
      "t": 185014.96649999998,
      "d": 117.42412500001956,
      "v": 98
    },
    {
      "midi": 68,
      "hit": false,
      "t": 185014.96649999998,
      "d": 167.61346875003073,
      "v": 91
    },
    {
      "midi": 74,
      "hit": false,
      "t": 185469.51150000002,
      "d": 407.19656250000116,
      "v": 107
    },
    {
      "midi": 67,
      "hit": false,
      "t": 185469.51150000002,
      "d": 464.01468750002095,
      "v": 105
    },
    {
      "midi": 72,
      "hit": false,
      "t": 185469.51150000002,
      "d": 582.385781250021,
      "v": 105
    },
    {
      "midi": 80,
      "hit": false,
      "t": 185924.05650000004,
      "d": 110.79534375001094,
      "v": 97
    },
    {
      "midi": 77,
      "hit": false,
      "t": 185924.05650000004,
      "d": 123.10593750001863,
      "v": 99
    },
    {
      "midi": 71,
      "hit": false,
      "t": 186378.60150000005,
      "d": 117.42412499999045,
      "v": 100
    },
    {
      "midi": 67,
      "hit": false,
      "t": 186378.60150000005,
      "d": 128.7877499999886,
      "v": 102
    },
    {
      "midi": 71,
      "hit": false,
      "t": 186605.87400000004,
      "d": 207.3861562499951,
      "v": 103
    },
    {
      "midi": 80,
      "hit": false,
      "t": 186605.87400000004,
      "d": 211.1740312500042,
      "v": 102
    },
    {
      "midi": 67,
      "hit": false,
      "t": 186605.87400000004,
      "d": 220.64371875001234,
      "v": 103
    },
    {
      "midi": 67,
      "hit": false,
      "t": 186833.14650000006,
      "d": 97.53778124999371,
      "v": 82
    },
    {
      "midi": 71,
      "hit": false,
      "t": 186833.14650000006,
      "d": 108.90140624999185,
      "v": 84
    },
    {
      "midi": 79,
      "hit": false,
      "t": 186833.14650000006,
      "d": 196.96949999997742,
      "v": 98
    },
    {
      "midi": 80,
      "hit": false,
      "t": 187060.41900000005,
      "d": 183.7119374999893,
      "v": 99
    },
    {
      "midi": 67,
      "hit": false,
      "t": 187060.41900000005,
      "d": 249.05278124997858,
      "v": 103
    },
    {
      "midi": 71,
      "hit": false,
      "t": 187060.41900000005,
      "d": 262.3103437499667,
      "v": 94
    },
    {
      "midi": 79,
      "hit": false,
      "t": 187287.69150000004,
      "d": 157.19681249998393,
      "v": 92
    },
    {
      "midi": 67,
      "hit": false,
      "t": 187514.96400000004,
      "d": 460.2268125000119,
      "v": 107
    },
    {
      "midi": 63,
      "hit": false,
      "t": 187514.96400000004,
      "d": 462.12075000000186,
      "v": 94
    },
    {
      "midi": 69,
      "hit": false,
      "t": 187514.96400000004,
      "d": 466.8555937499914,
      "v": 107
    },
    {
      "midi": 60,
      "hit": false,
      "t": 187514.96400000004,
      "d": 471.5904374999809,
      "v": 103
    },
    {
      "midi": 77,
      "hit": false,
      "t": 187969.50900000005,
      "d": 148.67409374995623,
      "v": 100
    },
    {
      "midi": 75,
      "hit": false,
      "t": 187969.50900000005,
      "d": 169.50740624996251,
      "v": 98
    },
    {
      "midi": 67,
      "hit": false,
      "t": 188196.7815,
      "d": 403.4086874999921,
      "v": 102
    },
    {
      "midi": 69,
      "hit": false,
      "t": 188196.7815,
      "d": 406.2495937499916,
      "v": 103
    },
    {
      "midi": 63,
      "hit": false,
      "t": 188196.7815,
      "d": 453.59803125000326,
      "v": 88
    },
    {
      "midi": 72,
      "hit": false,
      "t": 188651.32650000002,
      "d": 105.11353125001187,
      "v": 95
    },
    {
      "midi": 77,
      "hit": false,
      "t": 188651.32650000002,
      "d": 117.42412500001956,
      "v": 98
    },
    {
      "midi": 68,
      "hit": false,
      "t": 188651.32650000002,
      "d": 167.61346875003073,
      "v": 91
    },
    {
      "midi": 77,
      "hit": false,
      "t": 189105.87150000007,
      "d": 392.9920312499744,
      "v": 105
    },
    {
      "midi": 74,
      "hit": false,
      "t": 189105.87150000007,
      "d": 404.3556562499725,
      "v": 105
    },
    {
      "midi": 91,
      "hit": false,
      "t": 189333.14400000006,
      "d": 85.22718749998603,
      "v": 107
    },
    {
      "midi": 79,
      "hit": false,
      "t": 189333.14400000006,
      "d": 104.16656249997322,
      "v": 105
    },
    {
      "midi": 79,
      "hit": false,
      "t": 189560.41650000005,
      "d": 38.82571875001304,
      "v": 98
    },
    {
      "midi": 91,
      "hit": false,
      "t": 189560.41650000005,
      "d": 58.71206250000978,
      "v": 98
    },
    {
      "midi": 68,
      "hit": false,
      "t": 189560.41650000005,
      "d": 192.234656250017,
      "v": 91
    },
    {
      "midi": 65,
      "hit": false,
      "t": 189560.41650000005,
      "d": 203.59828125001513,
      "v": 95
    },
    {
      "midi": 91,
      "hit": false,
      "t": 189674.05275000006,
      "d": 89.96203125000466,
      "v": 99
    },
    {
      "midi": 79,
      "hit": false,
      "t": 189674.05275000006,
      "d": 96.59081250001327,
      "v": 102
    },
    {
      "midi": 77,
      "hit": false,
      "t": 189787.68900000007,
      "d": 159.09075000000303,
      "v": 97
    },
    {
      "midi": 74,
      "hit": false,
      "t": 189787.68900000007,
      "d": 167.61346875000163,
      "v": 100
    },
    {
      "midi": 91,
      "hit": false,
      "t": 189901.32525000008,
      "d": 59.65903124999022,
      "v": 98
    },
    {
      "midi": 79,
      "hit": false,
      "t": 189901.32525000008,
      "d": 207.3861562499951,
      "v": 95
    },
    {
      "midi": 91,
      "hit": false,
      "t": 190014.96150000006,
      "d": 92.80293750000419,
      "v": 95
    },
    {
      "midi": 77,
      "hit": false,
      "t": 190014.96150000006,
      "d": 173.2952812500007,
      "v": 82
    },
    {
      "midi": 80,
      "hit": false,
      "t": 190014.96150000006,
      "d": 176.13618750000023,
      "v": 97
    },
    {
      "midi": 87,
      "hit": false,
      "t": 190014.96150000006,
      "d": 373.10568750000675,
      "v": 121
    },
    {
      "midi": 63,
      "hit": false,
      "t": 190014.96150000006,
      "d": 413.8253437500098,
      "v": 121
    },
    {
      "midi": 86,
      "hit": false,
      "t": 190469.50650000008,
      "d": 201.70434374999604,
      "v": 112
    },
    {
      "midi": 62,
      "hit": false,
      "t": 190469.50650000008,
      "d": 209.2800937499851,
      "v": 114
    },
    {
      "midi": 58,
      "hit": false,
      "t": 190696.77900000007,
      "d": 184.65890624999884,
      "v": 107
    },
    {
      "midi": 82,
      "hit": false,
      "t": 190696.77900000007,
      "d": 196.96950000000652,
      "v": 114
    },
    {
      "midi": 79,
      "hit": false,
      "t": 190924.0515000001,
      "d": 175.1892187499907,
      "v": 109
    },
    {
      "midi": 55,
      "hit": false,
      "t": 190924.0515000001,
      "d": 177.08315624998068,
      "v": 114
    },
    {
      "midi": 69,
      "hit": false,
      "t": 198424.04400000008,
      "d": 86.17415624999558,
      "v": 124
    },
    {
      "midi": 67,
      "hit": false,
      "t": 198424.04400000008,
      "d": 87.12112500000512,
      "v": 124
    },
    {
      "midi": 75,
      "hit": false,
      "t": 198424.04400000008,
      "d": 107.95443750001141,
      "v": 121
    },
    {
      "midi": 48,
      "hit": false,
      "t": 198424.04400000008,
      "d": 112.68928125000093,
      "v": 127
    },
    {
      "midi": 72,
      "hit": false,
      "t": 198424.04400000008,
      "d": 116.47715625001001,
      "v": 124
    },
    {
      "midi": 60,
      "hit": false,
      "t": 198424.04400000008,
      "d": 140.15137500001583,
      "v": 127
    },
    {
      "midi": 67,
      "hit": false,
      "t": 198651.3165000001,
      "d": 130.68168750000768,
      "v": 124
    },
    {
      "midi": 69,
      "hit": false,
      "t": 198651.3165000001,
      "d": 139.2044062500063,
      "v": 121
    },
    {
      "midi": 75,
      "hit": false,
      "t": 198651.3165000001,
      "d": 153.40893750000396,
      "v": 114
    },
    {
      "midi": 72,
      "hit": false,
      "t": 198651.3165000001,
      "d": 156.2498437500035,
      "v": 116
    },
    {
      "midi": 48,
      "hit": false,
      "t": 198651.3165000001,
      "d": 163.82559374999255,
      "v": 127
    },
    {
      "midi": 60,
      "hit": false,
      "t": 198651.3165000001,
      "d": 180.87103124998976,
      "v": 121
    },
    {
      "midi": 68,
      "hit": false,
      "t": 199333.13400000008,
      "d": 74.81053124999744,
      "v": 124
    },
    {
      "midi": 72,
      "hit": false,
      "t": 199333.13400000008,
      "d": 76.70446874998743,
      "v": 127
    },
    {
      "midi": 74,
      "hit": false,
      "t": 199333.13400000008,
      "d": 84.28021874997648,
      "v": 124
    },
    {
      "midi": 77,
      "hit": false,
      "t": 199333.13400000008,
      "d": 127.84078124997905,
      "v": 116
    },
    {
      "midi": 41,
      "hit": false,
      "t": 199333.13400000008,
      "d": 142.04531249997672,
      "v": 124
    },
    {
      "midi": 53,
      "hit": false,
      "t": 199333.13400000008,
      "d": 146.78015624996624,
      "v": 121
    },
    {
      "midi": 72,
      "hit": false,
      "t": 199560.40650000004,
      "d": 112.68928125000093,
      "v": 118
    },
    {
      "midi": 68,
      "hit": false,
      "t": 199560.40650000004,
      "d": 133.52259375000722,
      "v": 121
    },
    {
      "midi": 74,
      "hit": false,
      "t": 199560.40650000004,
      "d": 134.46956250001676,
      "v": 118
    },
    {
      "midi": 41,
      "hit": false,
      "t": 199560.40650000004,
      "d": 142.04531250000582,
      "v": 121
    },
    {
      "midi": 77,
      "hit": false,
      "t": 199560.40650000004,
      "d": 142.04531250000582,
      "v": 116
    },
    {
      "midi": 53,
      "hit": false,
      "t": 199560.40650000004,
      "d": 182.76496875000885,
      "v": 118
    },
    {
      "midi": 71,
      "hit": false,
      "t": 200242.22400000005,
      "d": 85.22718749998603,
      "v": 118
    },
    {
      "midi": 74,
      "hit": false,
      "t": 200242.22400000005,
      "d": 106.06049999999232,
      "v": 121
    },
    {
      "midi": 77,
      "hit": false,
      "t": 200242.22400000005,
      "d": 107.00746875000186,
      "v": 121
    },
    {
      "midi": 55,
      "hit": false,
      "t": 200242.22400000005,
      "d": 110.79534375001094,
      "v": 121
    },
    {
      "midi": 79,
      "hit": false,
      "t": 200242.22400000005,
      "d": 116.47715625001001,
      "v": 118
    },
    {
      "midi": 43,
      "hit": false,
      "t": 200242.22400000005,
      "d": 126.8938124999986,
      "v": 124
    },
    {
      "midi": 67,
      "hit": false,
      "t": 200242.22400000005,
      "d": 136.36350000000675,
      "v": 124
    },
    {
      "midi": 55,
      "hit": false,
      "t": 200469.49650000007,
      "d": 134.46956249998766,
      "v": 121
    },
    {
      "midi": 43,
      "hit": false,
      "t": 200469.49650000007,
      "d": 149.62106249999488,
      "v": 121
    },
    {
      "midi": 71,
      "hit": false,
      "t": 200469.49650000007,
      "d": 150.56803125000442,
      "v": 116
    },
    {
      "midi": 77,
      "hit": false,
      "t": 200469.49650000007,
      "d": 153.40893750000396,
      "v": 114
    },
    {
      "midi": 79,
      "hit": false,
      "t": 200469.49650000007,
      "d": 163.82559374999255,
      "v": 118
    },
    {
      "midi": 74,
      "hit": false,
      "t": 200469.49650000007,
      "d": 165.71953124998254,
      "v": 118
    },
    {
      "midi": 67,
      "hit": false,
      "t": 200469.49650000007,
      "d": 187.49981249996927,
      "v": 121
    },
    {
      "midi": 68,
      "hit": false,
      "t": 201151.31400000004,
      "d": 78.59840625000652,
      "v": 121
    },
    {
      "midi": 72,
      "hit": false,
      "t": 201151.31400000004,
      "d": 90.9090000000142,
      "v": 124
    },
    {
      "midi": 74,
      "hit": false,
      "t": 201151.31400000004,
      "d": 121.21200000002864,
      "v": 124
    },
    {
      "midi": 53,
      "hit": false,
      "t": 201151.31400000004,
      "d": 128.7877500000177,
      "v": 124
    },
    {
      "midi": 77,
      "hit": false,
      "t": 201151.31400000004,
      "d": 135.4165312500263,
      "v": 116
    },
    {
      "midi": 41,
      "hit": false,
      "t": 201151.31400000004,
      "d": 140.15137500001583,
      "v": 124
    },
    {
      "midi": 68,
      "hit": false,
      "t": 201378.58650000006,
      "d": 112.68928125000093,
      "v": 116
    },
    {
      "midi": 77,
      "hit": false,
      "t": 201378.58650000006,
      "d": 124.99987500000861,
      "v": 118
    },
    {
      "midi": 72,
      "hit": false,
      "t": 201378.58650000006,
      "d": 126.8938124999986,
      "v": 121
    },
    {
      "midi": 53,
      "hit": false,
      "t": 201378.58650000006,
      "d": 134.46956249998766,
      "v": 121
    },
    {
      "midi": 74,
      "hit": false,
      "t": 201378.58650000006,
      "d": 144.88621874997625,
      "v": 121
    },
    {
      "midi": 41,
      "hit": false,
      "t": 201378.58650000006,
      "d": 152.4619687499653,
      "v": 121
    },
    {
      "midi": 69,
      "hit": false,
      "t": 202060.40400000004,
      "d": 86.17415624999558,
      "v": 124
    },
    {
      "midi": 67,
      "hit": false,
      "t": 202060.40400000004,
      "d": 87.12112500000512,
      "v": 124
    },
    {
      "midi": 75,
      "hit": false,
      "t": 202060.40400000004,
      "d": 107.95443750001141,
      "v": 121
    },
    {
      "midi": 48,
      "hit": false,
      "t": 202060.40400000004,
      "d": 112.68928125000093,
      "v": 127
    },
    {
      "midi": 72,
      "hit": false,
      "t": 202060.40400000004,
      "d": 116.47715625001001,
      "v": 124
    },
    {
      "midi": 60,
      "hit": false,
      "t": 202060.40400000004,
      "d": 140.15137500001583,
      "v": 127
    },
    {
      "midi": 67,
      "hit": false,
      "t": 202287.67650000006,
      "d": 130.68168750000768,
      "v": 124
    },
    {
      "midi": 69,
      "hit": false,
      "t": 202287.67650000006,
      "d": 139.2044062500063,
      "v": 121
    },
    {
      "midi": 75,
      "hit": false,
      "t": 202287.67650000006,
      "d": 153.40893750000396,
      "v": 114
    },
    {
      "midi": 72,
      "hit": false,
      "t": 202287.67650000006,
      "d": 156.2498437500035,
      "v": 116
    },
    {
      "midi": 48,
      "hit": false,
      "t": 202287.67650000006,
      "d": 163.82559374999255,
      "v": 127
    },
    {
      "midi": 60,
      "hit": false,
      "t": 202287.67650000006,
      "d": 180.87103124998976,
      "v": 121
    },
    {
      "midi": 68,
      "hit": false,
      "t": 202969.49400000004,
      "d": 74.81053124999744,
      "v": 124
    },
    {
      "midi": 72,
      "hit": false,
      "t": 202969.49400000004,
      "d": 76.70446874998743,
      "v": 127
    },
    {
      "midi": 74,
      "hit": false,
      "t": 202969.49400000004,
      "d": 84.28021874997648,
      "v": 124
    },
    {
      "midi": 77,
      "hit": false,
      "t": 202969.49400000004,
      "d": 127.84078124997905,
      "v": 116
    },
    {
      "midi": 41,
      "hit": false,
      "t": 202969.49400000004,
      "d": 142.04531249997672,
      "v": 124
    },
    {
      "midi": 53,
      "hit": false,
      "t": 202969.49400000004,
      "d": 146.78015624996624,
      "v": 121
    },
    {
      "midi": 72,
      "hit": false,
      "t": 203196.7665,
      "d": 112.68928125000093,
      "v": 118
    },
    {
      "midi": 68,
      "hit": false,
      "t": 203196.7665,
      "d": 133.52259375000722,
      "v": 121
    },
    {
      "midi": 74,
      "hit": false,
      "t": 203196.7665,
      "d": 134.46956250001676,
      "v": 118
    },
    {
      "midi": 41,
      "hit": false,
      "t": 203196.7665,
      "d": 142.04531250000582,
      "v": 121
    },
    {
      "midi": 77,
      "hit": false,
      "t": 203196.7665,
      "d": 142.04531250000582,
      "v": 116
    },
    {
      "midi": 53,
      "hit": false,
      "t": 203196.7665,
      "d": 182.76496875000885,
      "v": 118
    },
    {
      "midi": 71,
      "hit": false,
      "t": 203878.584,
      "d": 85.22718749998603,
      "v": 118
    },
    {
      "midi": 74,
      "hit": false,
      "t": 203878.584,
      "d": 106.06049999999232,
      "v": 121
    },
    {
      "midi": 77,
      "hit": false,
      "t": 203878.584,
      "d": 107.00746875000186,
      "v": 121
    },
    {
      "midi": 55,
      "hit": false,
      "t": 203878.584,
      "d": 110.79534375001094,
      "v": 121
    },
    {
      "midi": 79,
      "hit": false,
      "t": 203878.584,
      "d": 116.47715625001001,
      "v": 118
    },
    {
      "midi": 43,
      "hit": false,
      "t": 203878.584,
      "d": 126.8938124999986,
      "v": 124
    },
    {
      "midi": 67,
      "hit": false,
      "t": 203878.584,
      "d": 136.36350000000675,
      "v": 124
    },
    {
      "midi": 55,
      "hit": false,
      "t": 204105.85650000002,
      "d": 134.46956249998766,
      "v": 121
    },
    {
      "midi": 43,
      "hit": false,
      "t": 204105.85650000002,
      "d": 149.62106249999488,
      "v": 121
    },
    {
      "midi": 71,
      "hit": false,
      "t": 204105.85650000002,
      "d": 150.56803125000442,
      "v": 116
    },
    {
      "midi": 77,
      "hit": false,
      "t": 204105.85650000002,
      "d": 153.40893750000396,
      "v": 114
    },
    {
      "midi": 79,
      "hit": false,
      "t": 204105.85650000002,
      "d": 163.82559374999255,
      "v": 118
    },
    {
      "midi": 74,
      "hit": false,
      "t": 204105.85650000002,
      "d": 165.71953124998254,
      "v": 118
    },
    {
      "midi": 67,
      "hit": false,
      "t": 204105.85650000002,
      "d": 187.49981249996927,
      "v": 121
    },
    {
      "midi": 48,
      "hit": false,
      "t": 205696.764,
      "d": 387.3102187500044,
      "v": 107
    },
    {
      "midi": 58,
      "hit": false,
      "t": 205696.764,
      "d": 392.04506249999395,
      "v": 105
    },
    {
      "midi": 57,
      "hit": false,
      "t": 206151.30899999998,
      "d": 117.42412499999045,
      "v": 107
    },
    {
      "midi": 67,
      "hit": false,
      "t": 206151.30899999998,
      "d": 126.8938124999986,
      "v": 107
    },
    {
      "midi": 63,
      "hit": false,
      "t": 206151.30899999998,
      "d": 140.15137499998673,
      "v": 105
    },
    {
      "midi": 57,
      "hit": false,
      "t": 206378.58149999997,
      "d": 431.8177499999874,
      "v": 107
    },
    {
      "midi": 48,
      "hit": false,
      "t": 206378.58149999997,
      "d": 454.5449999999837,
      "v": 103
    },
    {
      "midi": 56,
      "hit": false,
      "t": 206833.12649999995,
      "d": 116.47715625001001,
      "v": 102
    },
    {
      "midi": 62,
      "hit": false,
      "t": 206833.12649999995,
      "d": 137.3104687500163,
      "v": 105
    },
    {
      "midi": 65,
      "hit": false,
      "t": 206833.12649999995,
      "d": 144.88621875000536,
      "v": 99
    },
    {
      "midi": 60,
      "hit": false,
      "t": 206833.12649999995,
      "d": 153.40893750000396,
      "v": 103
    },
    {
      "midi": 55,
      "hit": false,
      "t": 207287.67149999997,
      "d": 448.86318750001374,
      "v": 105
    },
    {
      "midi": 60,
      "hit": false,
      "t": 207287.67149999997,
      "d": 453.59803125000326,
      "v": 107
    },
    {
      "midi": 65,
      "hit": false,
      "t": 207742.21649999998,
      "d": 125.94684374998906,
      "v": 109
    },
    {
      "midi": 59,
      "hit": false,
      "t": 207742.21649999998,
      "d": 140.15137499998673,
      "v": 109
    },
    {
      "midi": 68,
      "hit": false,
      "t": 207742.21649999998,
      "d": 151.51499999998487,
      "v": 103
    },
    {
      "midi": 59,
      "hit": false,
      "t": 208196.76149999996,
      "d": 442.2344062500051,
      "v": 107
    },
    {
      "midi": 55,
      "hit": false,
      "t": 208196.76149999996,
      "d": 477.2722500000091,
      "v": 102
    },
    {
      "midi": 67,
      "hit": false,
      "t": 208651.30649999998,
      "d": 357.00721874999,
      "v": 107
    },
    {
      "midi": 59,
      "hit": false,
      "t": 208651.30649999998,
      "d": 376.89356249998673,
      "v": 109
    },
    {
      "midi": 65,
      "hit": false,
      "t": 208651.30649999998,
      "d": 397.726874999993,
      "v": 107
    },
    {
      "midi": 59,
      "hit": false,
      "t": 209105.85149999996,
      "d": 123.10593749998952,
      "v": 102
    },
    {
      "midi": 55,
      "hit": false,
      "t": 209105.85149999996,
      "d": 125.94684374998906,
      "v": 100
    },
    {
      "midi": 58,
      "hit": false,
      "t": 209333.12399999995,
      "d": 405.3026250000112,
      "v": 102
    },
    {
      "midi": 48,
      "hit": false,
      "t": 209333.12399999995,
      "d": 411.9314062500198,
      "v": 105
    },
    {
      "midi": 67,
      "hit": false,
      "t": 209787.66899999997,
      "d": 121.21199999999953,
      "v": 105
    },
    {
      "midi": 63,
      "hit": false,
      "t": 209787.66899999997,
      "d": 123.10593749998952,
      "v": 94
    },
    {
      "midi": 57,
      "hit": false,
      "t": 209787.66899999997,
      "d": 128.7877499999886,
      "v": 107
    },
    {
      "midi": 74,
      "hit": false,
      "t": 210014.94149999996,
      "d": 434.65865624998696,
      "v": 105
    },
    {
      "midi": 69,
      "hit": false,
      "t": 210014.94149999996,
      "d": 801.1355624999851,
      "v": 103
    },
    {
      "midi": 72,
      "hit": false,
      "t": 210469.48649999994,
      "d": 374.99962499999674,
      "v": 98
    },
    {
      "midi": 79,
      "hit": false,
      "t": 210924.03149999992,
      "d": 407.19656250000116,
      "v": 107
    },
    {
      "midi": 67,
      "hit": false,
      "t": 210924.03149999992,
      "d": 449.8101562499942,
      "v": 105
    },
    {
      "midi": 55,
      "hit": false,
      "t": 210924.03149999992,
      "d": 963.0672187499586,
      "v": 99
    },
    {
      "midi": 74,
      "hit": false,
      "t": 211378.5764999999,
      "d": 187.49981249999837,
      "v": 100
    },
    {
      "midi": 62,
      "hit": false,
      "t": 211378.5764999999,
      "d": 195.07556249998743,
      "v": 100
    },
    {
      "midi": 77,
      "hit": false,
      "t": 211833.1214999999,
      "d": 567.2342812499846,
      "v": 99
    },
    {
      "midi": 89,
      "hit": false,
      "t": 211833.1214999999,
      "d": 841.8552187499881,
      "v": 102
    },
    {
      "midi": 80,
      "hit": false,
      "t": 212287.66649999988,
      "d": 450.7571250000037,
      "v": 85
    },
    {
      "midi": 68,
      "hit": false,
      "t": 212287.66649999988,
      "d": 488.6358750000072,
      "v": 91
    },
    {
      "midi": 74,
      "hit": false,
      "t": 212742.2114999999,
      "d": 139.2044062500063,
      "v": 94
    },
    {
      "midi": 86,
      "hit": false,
      "t": 212742.2114999999,
      "d": 156.2498437500035,
      "v": 103
    },
    {
      "midi": 48,
      "hit": false,
      "t": 212969.48399999988,
      "d": 387.3102187500044,
      "v": 107
    },
    {
      "midi": 58,
      "hit": false,
      "t": 212969.48399999988,
      "d": 392.04506249999395,
      "v": 105
    },
    {
      "midi": 57,
      "hit": false,
      "t": 213424.02899999986,
      "d": 117.42412499999045,
      "v": 107
    },
    {
      "midi": 67,
      "hit": false,
      "t": 213424.02899999986,
      "d": 126.8938124999986,
      "v": 107
    },
    {
      "midi": 63,
      "hit": false,
      "t": 213424.02899999986,
      "d": 140.15137499998673,
      "v": 105
    },
    {
      "midi": 57,
      "hit": false,
      "t": 213651.30149999986,
      "d": 431.8177499999874,
      "v": 107
    },
    {
      "midi": 48,
      "hit": false,
      "t": 213651.30149999986,
      "d": 454.5449999999837,
      "v": 103
    },
    {
      "midi": 56,
      "hit": false,
      "t": 214105.84649999984,
      "d": 116.47715625001001,
      "v": 102
    },
    {
      "midi": 62,
      "hit": false,
      "t": 214105.84649999984,
      "d": 137.3104687500163,
      "v": 105
    },
    {
      "midi": 65,
      "hit": false,
      "t": 214105.84649999984,
      "d": 144.88621875000536,
      "v": 99
    },
    {
      "midi": 60,
      "hit": false,
      "t": 214105.84649999984,
      "d": 153.40893750000396,
      "v": 103
    },
    {
      "midi": 55,
      "hit": false,
      "t": 214560.39149999985,
      "d": 448.86318750001374,
      "v": 105
    },
    {
      "midi": 60,
      "hit": false,
      "t": 214560.39149999985,
      "d": 453.59803125000326,
      "v": 107
    },
    {
      "midi": 65,
      "hit": false,
      "t": 215014.93649999987,
      "d": 125.94684374998906,
      "v": 109
    },
    {
      "midi": 59,
      "hit": false,
      "t": 215014.93649999987,
      "d": 140.15137499998673,
      "v": 109
    },
    {
      "midi": 68,
      "hit": false,
      "t": 215014.93649999987,
      "d": 151.51499999998487,
      "v": 103
    },
    {
      "midi": 59,
      "hit": false,
      "t": 215469.48149999985,
      "d": 442.2344062500051,
      "v": 107
    },
    {
      "midi": 55,
      "hit": false,
      "t": 215469.48149999985,
      "d": 477.2722500000091,
      "v": 102
    },
    {
      "midi": 67,
      "hit": false,
      "t": 215924.02649999986,
      "d": 357.00721874999,
      "v": 107
    },
    {
      "midi": 59,
      "hit": false,
      "t": 215924.02649999986,
      "d": 376.89356249998673,
      "v": 109
    },
    {
      "midi": 65,
      "hit": false,
      "t": 215924.02649999986,
      "d": 397.726874999993,
      "v": 107
    },
    {
      "midi": 59,
      "hit": false,
      "t": 216378.57149999985,
      "d": 123.10593749998952,
      "v": 102
    },
    {
      "midi": 55,
      "hit": false,
      "t": 216378.57149999985,
      "d": 125.94684374998906,
      "v": 100
    },
    {
      "midi": 58,
      "hit": false,
      "t": 216605.84399999984,
      "d": 405.3026250000112,
      "v": 102
    },
    {
      "midi": 48,
      "hit": false,
      "t": 216605.84399999984,
      "d": 411.9314062500198,
      "v": 105
    },
    {
      "midi": 67,
      "hit": false,
      "t": 217060.38899999985,
      "d": 121.21199999999953,
      "v": 105
    },
    {
      "midi": 63,
      "hit": false,
      "t": 217060.38899999985,
      "d": 123.10593749998952,
      "v": 94
    },
    {
      "midi": 57,
      "hit": false,
      "t": 217060.38899999985,
      "d": 128.7877499999886,
      "v": 107
    },
    {
      "midi": 74,
      "hit": false,
      "t": 217287.66149999984,
      "d": 434.65865624998696,
      "v": 105
    },
    {
      "midi": 69,
      "hit": false,
      "t": 217287.66149999984,
      "d": 801.1355624999851,
      "v": 103
    },
    {
      "midi": 72,
      "hit": false,
      "t": 217742.20649999983,
      "d": 374.99962499999674,
      "v": 98
    },
    {
      "midi": 79,
      "hit": false,
      "t": 218196.7514999998,
      "d": 407.19656250000116,
      "v": 107
    },
    {
      "midi": 67,
      "hit": false,
      "t": 218196.7514999998,
      "d": 449.8101562499942,
      "v": 105
    },
    {
      "midi": 55,
      "hit": false,
      "t": 218196.7514999998,
      "d": 963.0672187499586,
      "v": 99
    },
    {
      "midi": 74,
      "hit": false,
      "t": 218651.2964999998,
      "d": 187.49981249999837,
      "v": 100
    },
    {
      "midi": 62,
      "hit": false,
      "t": 218651.2964999998,
      "d": 195.07556249998743,
      "v": 100
    },
    {
      "midi": 77,
      "hit": false,
      "t": 219105.84149999978,
      "d": 567.2342812499846,
      "v": 99
    },
    {
      "midi": 89,
      "hit": false,
      "t": 219105.84149999978,
      "d": 841.8552187499881,
      "v": 102
    },
    {
      "midi": 80,
      "hit": false,
      "t": 219560.38649999976,
      "d": 450.7571250000037,
      "v": 85
    },
    {
      "midi": 68,
      "hit": false,
      "t": 219560.38649999976,
      "d": 488.6358750000072,
      "v": 91
    },
    {
      "midi": 74,
      "hit": false,
      "t": 220014.93149999977,
      "d": 139.2044062500063,
      "v": 94
    },
    {
      "midi": 86,
      "hit": false,
      "t": 220014.93149999977,
      "d": 156.2498437500035,
      "v": 103
    },
    {
      "midi": 67,
      "hit": false,
      "t": 220242.20399999977,
      "d": 460.2268125000119,
      "v": 107
    },
    {
      "midi": 63,
      "hit": false,
      "t": 220242.20399999977,
      "d": 462.12075000000186,
      "v": 94
    },
    {
      "midi": 69,
      "hit": false,
      "t": 220242.20399999977,
      "d": 466.8555937499914,
      "v": 107
    },
    {
      "midi": 60,
      "hit": false,
      "t": 220242.20399999977,
      "d": 471.5904374999809,
      "v": 103
    },
    {
      "midi": 77,
      "hit": false,
      "t": 220696.74899999978,
      "d": 148.67409374995623,
      "v": 100
    },
    {
      "midi": 75,
      "hit": false,
      "t": 220696.74899999978,
      "d": 169.50740624996251,
      "v": 98
    },
    {
      "midi": 67,
      "hit": false,
      "t": 220924.02149999974,
      "d": 403.4086874999921,
      "v": 102
    },
    {
      "midi": 69,
      "hit": false,
      "t": 220924.02149999974,
      "d": 406.2495937499916,
      "v": 103
    },
    {
      "midi": 63,
      "hit": false,
      "t": 220924.02149999974,
      "d": 453.59803125000326,
      "v": 88
    },
    {
      "midi": 72,
      "hit": false,
      "t": 221378.56649999975,
      "d": 105.11353125001187,
      "v": 95
    },
    {
      "midi": 77,
      "hit": false,
      "t": 221378.56649999975,
      "d": 117.42412500001956,
      "v": 98
    },
    {
      "midi": 68,
      "hit": false,
      "t": 221378.56649999975,
      "d": 167.61346875003073,
      "v": 91
    },
    {
      "midi": 74,
      "hit": false,
      "t": 221833.1114999998,
      "d": 407.19656250000116,
      "v": 107
    },
    {
      "midi": 67,
      "hit": false,
      "t": 221833.1114999998,
      "d": 464.01468750002095,
      "v": 105
    },
    {
      "midi": 72,
      "hit": false,
      "t": 221833.1114999998,
      "d": 582.385781250021,
      "v": 105
    },
    {
      "midi": 80,
      "hit": false,
      "t": 222287.6564999998,
      "d": 110.79534375001094,
      "v": 97
    },
    {
      "midi": 77,
      "hit": false,
      "t": 222287.6564999998,
      "d": 123.10593750001863,
      "v": 99
    },
    {
      "midi": 71,
      "hit": false,
      "t": 222742.20149999982,
      "d": 117.42412499999045,
      "v": 100
    },
    {
      "midi": 67,
      "hit": false,
      "t": 222742.20149999982,
      "d": 128.7877499999886,
      "v": 102
    },
    {
      "midi": 71,
      "hit": false,
      "t": 222969.4739999998,
      "d": 207.3861562499951,
      "v": 103
    },
    {
      "midi": 80,
      "hit": false,
      "t": 222969.4739999998,
      "d": 211.1740312500042,
      "v": 102
    },
    {
      "midi": 67,
      "hit": false,
      "t": 222969.4739999998,
      "d": 220.64371875001234,
      "v": 103
    },
    {
      "midi": 67,
      "hit": false,
      "t": 223196.74649999983,
      "d": 97.53778124999371,
      "v": 82
    },
    {
      "midi": 71,
      "hit": false,
      "t": 223196.74649999983,
      "d": 108.90140624999185,
      "v": 84
    },
    {
      "midi": 79,
      "hit": false,
      "t": 223196.74649999983,
      "d": 196.96949999997742,
      "v": 98
    },
    {
      "midi": 80,
      "hit": false,
      "t": 223424.01899999983,
      "d": 183.7119374999893,
      "v": 99
    },
    {
      "midi": 67,
      "hit": false,
      "t": 223424.01899999983,
      "d": 249.05278124997858,
      "v": 103
    },
    {
      "midi": 71,
      "hit": false,
      "t": 223424.01899999983,
      "d": 262.3103437499667,
      "v": 94
    },
    {
      "midi": 79,
      "hit": false,
      "t": 223651.29149999982,
      "d": 157.19681249998393,
      "v": 92
    },
    {
      "midi": 67,
      "hit": false,
      "t": 223878.5639999998,
      "d": 460.2268125000119,
      "v": 107
    },
    {
      "midi": 63,
      "hit": false,
      "t": 223878.5639999998,
      "d": 462.12075000000186,
      "v": 94
    },
    {
      "midi": 69,
      "hit": false,
      "t": 223878.5639999998,
      "d": 466.8555937499914,
      "v": 107
    },
    {
      "midi": 60,
      "hit": false,
      "t": 223878.5639999998,
      "d": 471.5904374999809,
      "v": 103
    },
    {
      "midi": 77,
      "hit": false,
      "t": 224333.10899999982,
      "d": 148.67409374995623,
      "v": 100
    },
    {
      "midi": 75,
      "hit": false,
      "t": 224333.10899999982,
      "d": 169.50740624996251,
      "v": 98
    },
    {
      "midi": 67,
      "hit": false,
      "t": 224560.38149999978,
      "d": 403.4086874999921,
      "v": 102
    },
    {
      "midi": 69,
      "hit": false,
      "t": 224560.38149999978,
      "d": 406.2495937499916,
      "v": 103
    },
    {
      "midi": 63,
      "hit": false,
      "t": 224560.38149999978,
      "d": 453.59803125000326,
      "v": 88
    },
    {
      "midi": 72,
      "hit": false,
      "t": 225014.9264999998,
      "d": 105.11353125001187,
      "v": 95
    },
    {
      "midi": 77,
      "hit": false,
      "t": 225014.9264999998,
      "d": 117.42412500001956,
      "v": 98
    },
    {
      "midi": 68,
      "hit": false,
      "t": 225014.9264999998,
      "d": 167.61346875003073,
      "v": 91
    },
    {
      "midi": 67,
      "hit": false,
      "t": 225469.47149999984,
      "d": 314.393624999997,
      "v": 103
    },
    {
      "midi": 55,
      "hit": false,
      "t": 225469.47149999984,
      "d": 704.5447499999718,
      "v": 102
    },
    {
      "midi": 67,
      "hit": false,
      "t": 225924.01649999982,
      "d": 205.49221875000512,
      "v": 105
    },
    {
      "midi": 71,
      "hit": false,
      "t": 226151.28899999982,
      "d": 194.12859375000698,
      "v": 107
    },
    {
      "midi": 74,
      "hit": false,
      "t": 226378.56149999984,
      "d": 160.98468749999302,
      "v": 105
    },
    {
      "midi": 77,
      "hit": false,
      "t": 226605.83399999983,
      "d": 223.48462500001187,
      "v": 100
    },
    {
      "midi": 77,
      "hit": false,
      "t": 226833.10649999985,
      "d": 223.48462500001187,
      "v": 102
    },
    {
      "midi": 80,
      "hit": false,
      "t": 226833.10649999985,
      "d": 223.48462500001187,
      "v": 103
    },
    {
      "midi": 75,
      "hit": false,
      "t": 227060.37899999987,
      "d": 223.48462500001187,
      "v": 97
    },
    {
      "midi": 79,
      "hit": false,
      "t": 227060.37899999987,
      "d": 223.48462500001187,
      "v": 102
    },
    {
      "midi": 74,
      "hit": false,
      "t": 227287.6514999999,
      "d": 223.48462500001187,
      "v": 102
    },
    {
      "midi": 77,
      "hit": false,
      "t": 227287.6514999999,
      "d": 223.48462500001187,
      "v": 99
    },
    {
      "midi": 67,
      "hit": false,
      "t": 227514.9239999999,
      "d": 460.2268125000119,
      "v": 107
    },
    {
      "midi": 63,
      "hit": false,
      "t": 227514.9239999999,
      "d": 462.12075000000186,
      "v": 94
    },
    {
      "midi": 69,
      "hit": false,
      "t": 227514.9239999999,
      "d": 466.8555937499914,
      "v": 107
    },
    {
      "midi": 60,
      "hit": false,
      "t": 227514.9239999999,
      "d": 471.5904374999809,
      "v": 103
    },
    {
      "midi": 77,
      "hit": false,
      "t": 227969.46899999992,
      "d": 148.67409374995623,
      "v": 100
    },
    {
      "midi": 75,
      "hit": false,
      "t": 227969.46899999992,
      "d": 169.50740624996251,
      "v": 98
    },
    {
      "midi": 67,
      "hit": false,
      "t": 228196.7414999999,
      "d": 403.4086874999921,
      "v": 102
    },
    {
      "midi": 69,
      "hit": false,
      "t": 228196.7414999999,
      "d": 406.2495937499916,
      "v": 103
    },
    {
      "midi": 63,
      "hit": false,
      "t": 228196.7414999999,
      "d": 453.59803125000326,
      "v": 88
    },
    {
      "midi": 72,
      "hit": false,
      "t": 228651.2864999999,
      "d": 105.11353125001187,
      "v": 95
    },
    {
      "midi": 77,
      "hit": false,
      "t": 228651.2864999999,
      "d": 117.42412500001956,
      "v": 98
    },
    {
      "midi": 68,
      "hit": false,
      "t": 228651.2864999999,
      "d": 167.61346875003073,
      "v": 91
    },
    {
      "midi": 74,
      "hit": false,
      "t": 229105.83149999994,
      "d": 407.19656250000116,
      "v": 107
    },
    {
      "midi": 67,
      "hit": false,
      "t": 229105.83149999994,
      "d": 464.01468750002095,
      "v": 105
    },
    {
      "midi": 72,
      "hit": false,
      "t": 229105.83149999994,
      "d": 582.385781250021,
      "v": 105
    },
    {
      "midi": 80,
      "hit": false,
      "t": 229560.37649999995,
      "d": 110.79534375001094,
      "v": 97
    },
    {
      "midi": 77,
      "hit": false,
      "t": 229560.37649999995,
      "d": 123.10593750001863,
      "v": 99
    },
    {
      "midi": 71,
      "hit": false,
      "t": 230014.92149999997,
      "d": 117.42412499999045,
      "v": 100
    },
    {
      "midi": 67,
      "hit": false,
      "t": 230014.92149999997,
      "d": 128.7877499999886,
      "v": 102
    },
    {
      "midi": 71,
      "hit": false,
      "t": 230242.19399999996,
      "d": 207.3861562499951,
      "v": 103
    },
    {
      "midi": 80,
      "hit": false,
      "t": 230242.19399999996,
      "d": 211.1740312500042,
      "v": 102
    },
    {
      "midi": 67,
      "hit": false,
      "t": 230242.19399999996,
      "d": 220.64371875001234,
      "v": 103
    },
    {
      "midi": 67,
      "hit": false,
      "t": 230469.46649999998,
      "d": 97.53778124999371,
      "v": 82
    },
    {
      "midi": 71,
      "hit": false,
      "t": 230469.46649999998,
      "d": 108.90140624999185,
      "v": 84
    },
    {
      "midi": 79,
      "hit": false,
      "t": 230469.46649999998,
      "d": 196.96949999997742,
      "v": 98
    },
    {
      "midi": 80,
      "hit": false,
      "t": 230696.73899999997,
      "d": 183.7119374999893,
      "v": 99
    },
    {
      "midi": 67,
      "hit": false,
      "t": 230696.73899999997,
      "d": 249.05278124997858,
      "v": 103
    },
    {
      "midi": 71,
      "hit": false,
      "t": 230696.73899999997,
      "d": 262.3103437499667,
      "v": 94
    },
    {
      "midi": 79,
      "hit": false,
      "t": 230924.01149999996,
      "d": 157.19681249998393,
      "v": 92
    },
    {
      "midi": 67,
      "hit": false,
      "t": 231151.28399999996,
      "d": 460.2268125000119,
      "v": 107
    },
    {
      "midi": 63,
      "hit": false,
      "t": 231151.28399999996,
      "d": 462.12075000000186,
      "v": 94
    },
    {
      "midi": 69,
      "hit": false,
      "t": 231151.28399999996,
      "d": 466.8555937499914,
      "v": 107
    },
    {
      "midi": 60,
      "hit": false,
      "t": 231151.28399999996,
      "d": 471.5904374999809,
      "v": 103
    },
    {
      "midi": 77,
      "hit": false,
      "t": 231605.82899999997,
      "d": 148.67409374995623,
      "v": 100
    },
    {
      "midi": 75,
      "hit": false,
      "t": 231605.82899999997,
      "d": 169.50740624996251,
      "v": 98
    },
    {
      "midi": 67,
      "hit": false,
      "t": 231833.10149999993,
      "d": 403.4086874999921,
      "v": 102
    },
    {
      "midi": 69,
      "hit": false,
      "t": 231833.10149999993,
      "d": 406.2495937499916,
      "v": 103
    },
    {
      "midi": 63,
      "hit": false,
      "t": 231833.10149999993,
      "d": 453.59803125000326,
      "v": 88
    },
    {
      "midi": 72,
      "hit": false,
      "t": 232287.64649999994,
      "d": 105.11353125001187,
      "v": 95
    },
    {
      "midi": 77,
      "hit": false,
      "t": 232287.64649999994,
      "d": 117.42412500001956,
      "v": 98
    },
    {
      "midi": 68,
      "hit": false,
      "t": 232287.64649999994,
      "d": 167.61346875003073,
      "v": 91
    },
    {
      "midi": 50,
      "hit": false,
      "t": 233878.55399999997,
      "d": 272.7270000000135,
      "v": 121
    },
    {
      "midi": 65,
      "hit": false,
      "t": 233878.55399999997,
      "d": 280.30275000000256,
      "v": 124
    },
    {
      "midi": 68,
      "hit": false,
      "t": 234181.58399999997,
      "d": 241.47703124998952,
      "v": 121
    },
    {
      "midi": 53,
      "hit": false,
      "t": 234181.58399999997,
      "d": 249.99974999998813,
      "v": 114
    },
    {
      "midi": 65,
      "hit": false,
      "t": 234484.61399999997,
      "d": 143.9392499999958,
      "v": 109
    },
    {
      "midi": 50,
      "hit": false,
      "t": 234484.61399999997,
      "d": 171.4013437499816,
      "v": 114
    },
    {
      "midi": 67,
      "hit": false,
      "t": 234787.64399999994,
      "d": 185.60587500000838,
      "v": 107
    },
    {
      "midi": 63,
      "hit": false,
      "t": 234787.64399999994,
      "d": 193.18162499999744,
      "v": 105
    },
    {
      "midi": 60,
      "hit": false,
      "t": 234787.64399999994,
      "d": 199.81040625000605,
      "v": 107
    },
    {
      "midi": 69,
      "hit": false,
      "t": 234787.64399999994,
      "d": 201.70434374999604,
      "v": 105
    },
    {
      "midi": 55,
      "hit": false,
      "t": 234787.64399999994,
      "d": 212.12099999998463,
      "v": 103
    },
    {
      "midi": 48,
      "hit": false,
      "t": 234787.64399999994,
      "d": 249.99974999998813,
      "v": 103
    }
  ]
}