{
  "jsonPath": "Country/Classic Country Pop/Willie Nelson/angel-flying-too-close-to-the-ground.json",
  "path": "Country\\Classic Country Pop\\Willie Nelson\\Angel Flying Too Close To The Ground.mid",
  "name": "Angel Flying Too Close To The Ground",
  "difficulty": "Advanced",
  "bpm": 72.00002880001152,
  "notes": [
    {
      "midi": 56,
      "hit": false,
      "t": 46153.840000000004,
      "d": 624.9999166666676,
      "v": 64
    },
    {
      "midi": 61,
      "hit": false,
      "t": 46153.840000000004,
      "d": 942.30756666667,
      "v": 64
    },
    {
      "midi": 64,
      "hit": false,
      "t": 46153.840000000004,
      "d": 1076.922933333335,
      "v": 64
    },
    {
      "midi": 56,
      "hit": false,
      "t": 46923.070666666674,
      "d": 3461.5380000000077,
      "v": 64
    },
    {
      "midi": 61,
      "hit": false,
      "t": 47307.68600000001,
      "d": 1999.9997333333376,
      "v": 64
    },
    {
      "midi": 64,
      "hit": false,
      "t": 49230.76266666668,
      "d": 548.0768500000049,
      "v": 64
    },
    {
      "midi": 61,
      "hit": false,
      "t": 49615.37800000001,
      "d": 769.23066666667,
      "v": 64
    },
    {
      "midi": 49,
      "hit": false,
      "t": 50384.60866666668,
      "d": 230.76920000000246,
      "v": 64
    },
    {
      "midi": 57,
      "hit": false,
      "t": 50769.22400000002,
      "d": 624.9999166666676,
      "v": 64
    },
    {
      "midi": 62,
      "hit": false,
      "t": 50769.22400000002,
      "d": 942.30756666667,
      "v": 64
    },
    {
      "midi": 66,
      "hit": false,
      "t": 50769.22400000002,
      "d": 1076.922933333335,
      "v": 64
    },
    {
      "midi": 57,
      "hit": false,
      "t": 51538.45466666669,
      "d": 3461.5380000000077,
      "v": 64
    },
    {
      "midi": 62,
      "hit": false,
      "t": 51923.07000000002,
      "d": 1999.9997333333376,
      "v": 64
    },
    {
      "midi": 66,
      "hit": false,
      "t": 53846.14666666669,
      "d": 548.0768500000049,
      "v": 64
    },
    {
      "midi": 62,
      "hit": false,
      "t": 54230.762000000024,
      "d": 769.23066666667,
      "v": 64
    },
    {
      "midi": 50,
      "hit": false,
      "t": 54999.992666666694,
      "d": 230.76920000000246,
      "v": 64
    },
    {
      "midi": 52,
      "hit": false,
      "t": 55384.60800000003,
      "d": 624.9999166666676,
      "v": 64
    },
    {
      "midi": 57,
      "hit": false,
      "t": 55384.60800000003,
      "d": 942.30756666667,
      "v": 64
    },
    {
      "midi": 61,
      "hit": false,
      "t": 55384.60800000003,
      "d": 1076.922933333335,
      "v": 64
    },
    {
      "midi": 52,
      "hit": false,
      "t": 56153.8386666667,
      "d": 3461.5380000000077,
      "v": 64
    },
    {
      "midi": 57,
      "hit": false,
      "t": 56538.454000000034,
      "d": 1999.9997333333376,
      "v": 64
    },
    {
      "midi": 61,
      "hit": false,
      "t": 58461.5306666667,
      "d": 548.0768500000049,
      "v": 64
    },
    {
      "midi": 57,
      "hit": false,
      "t": 58846.14600000004,
      "d": 769.23066666667,
      "v": 64
    },
    {
      "midi": 45,
      "hit": false,
      "t": 59615.37666666671,
      "d": 230.76920000000246,
      "v": 64
    },
    {
      "midi": 57,
      "hit": false,
      "t": 59999.99200000004,
      "d": 3759.6148833333427,
      "v": 64
    },
    {
      "midi": 59,
      "hit": false,
      "t": 60769.22266666671,
      "d": 3576.9226000000053,
      "v": 64
    },
    {
      "midi": 63,
      "hit": false,
      "t": 61153.83800000005,
      "d": 7048.075983333329,
      "v": 64
    },
    {
      "midi": 66,
      "hit": false,
      "t": 61923.06866666672,
      "d": 6278.845316666659,
      "v": 64
    },
    {
      "midi": 47,
      "hit": false,
      "t": 63076.914666666715,
      "d": 6067.3068833333455,
      "v": 64
    },
    {
      "midi": 54,
      "hit": false,
      "t": 63461.53000000005,
      "d": 5567.306950000006,
      "v": 64
    },
    {
      "midi": 57,
      "hit": false,
      "t": 64230.76066666672,
      "d": 3134.6149666666533,
      "v": 64
    },
    {
      "midi": 59,
      "hit": false,
      "t": 64615.37600000005,
      "d": 3201.922649999993,
      "v": 64
    },
    {
      "midi": 57,
      "hit": false,
      "t": 67692.29866666671,
      "d": 1374.9998166666774,
      "v": 64
    },
    {
      "midi": 59,
      "hit": false,
      "t": 68076.91400000005,
      "d": 884.6152666666749,
      "v": 64
    },
    {
      "midi": 63,
      "hit": false,
      "t": 68461.52933333338,
      "d": 432.69225000000733,
      "v": 64
    },
    {
      "midi": 66,
      "hit": false,
      "t": 68846.14466666672,
      "d": 173.07690000000002,
      "v": 64
    },
    {
      "midi": 56,
      "hit": false,
      "t": 69230.76000000005,
      "d": 2817.3073166666727,
      "v": 64
    },
    {
      "midi": 59,
      "hit": false,
      "t": 69230.76000000005,
      "d": 2817.3073166666727,
      "v": 64
    },
    {
      "midi": 64,
      "hit": false,
      "t": 69230.76000000005,
      "d": 2817.3073166666727,
      "v": 64
    },
    {
      "midi": 59,
      "hit": false,
      "t": 72307.68266666672,
      "d": 1076.922933333335,
      "v": 64
    },
    {
      "midi": 64,
      "hit": false,
      "t": 72692.29800000005,
      "d": 769.23066666667,
      "v": 64
    },
    {
      "midi": 68,
      "hit": false,
      "t": 73461.52866666672,
      "d": 336.53841666666267,
      "v": 64
    },
    {
      "midi": 56,
      "hit": false,
      "t": 73846.14400000006,
      "d": 1269.2306000000099,
      "v": 64
    },
    {
      "midi": 59,
      "hit": false,
      "t": 74615.37466666673,
      "d": 2519.230433333345,
      "v": 64
    },
    {
      "midi": 62,
      "hit": false,
      "t": 74999.99000000006,
      "d": 2086.5381833333377,
      "v": 64
    },
    {
      "midi": 64,
      "hit": false,
      "t": 75769.22066666673,
      "d": 1048.0767833333375,
      "v": 64
    },
    {
      "midi": 56,
      "hit": false,
      "t": 76923.06666666674,
      "d": 1201.9229166666773,
      "v": 64
    },
    {
      "midi": 59,
      "hit": false,
      "t": 77307.68200000007,
      "d": 817.3075833333423,
      "v": 64
    },
    {
      "midi": 62,
      "hit": false,
      "t": 78076.91266666674,
      "d": 211.53843333333498,
      "v": 64
    },
    {
      "midi": 69,
      "hit": false,
      "t": 78480.75876666674,
      "d": 1057.6921666666894,
      "v": 64
    },
    {
      "midi": 45,
      "hit": false,
      "t": 78480.75876666674,
      "d": 4384.61480000001,
      "v": 64
    },
    {
      "midi": 57,
      "hit": false,
      "t": 78490.37415000008,
      "d": 2480.76890000001,
      "v": 64
    },
    {
      "midi": 64,
      "hit": false,
      "t": 78499.98953333341,
      "d": 163.4615166666772,
      "v": 64
    },
    {
      "midi": 52,
      "hit": false,
      "t": 78509.60491666675,
      "d": 1663.4613166666677,
      "v": 64
    },
    {
      "midi": 66,
      "hit": false,
      "t": 78653.83566666675,
      "d": 846.1537333333399,
      "v": 64
    },
    {
      "midi": 69,
      "hit": false,
      "t": 79634.60476666676,
      "d": 682.6922166666627,
      "v": 64
    },
    {
      "midi": 64,
      "hit": false,
      "t": 79644.2201500001,
      "d": 682.6922166666627,
      "v": 64
    },
    {
      "midi": 52,
      "hit": false,
      "t": 80384.60466666675,
      "d": 2509.615049999993,
      "v": 64
    },
    {
      "midi": 64,
      "hit": false,
      "t": 80788.45076666675,
      "d": 2038.4612666666653,
      "v": 64
    },
    {
      "midi": 59,
      "hit": false,
      "t": 80798.06615000009,
      "d": 115.38460000000487,
      "v": 64
    },
    {
      "midi": 61,
      "hit": false,
      "t": 80932.68151666675,
      "d": 1086.538316666658,
      "v": 64
    },
    {
      "midi": 59,
      "hit": false,
      "t": 81509.60451666675,
      "d": 538.4614666666603,
      "v": 64
    },
    {
      "midi": 57,
      "hit": false,
      "t": 81942.29676666674,
      "d": 874.9998833333375,
      "v": 64
    },
    {
      "midi": 56,
      "hit": false,
      "t": 83076.91200000008,
      "d": 624.9999166666676,
      "v": 64
    },
    {
      "midi": 61,
      "hit": false,
      "t": 83076.91200000008,
      "d": 942.30756666667,
      "v": 64
    },
    {
      "midi": 64,
      "hit": false,
      "t": 83076.91200000008,
      "d": 1076.922933333335,
      "v": 64
    },
    {
      "midi": 56,
      "hit": false,
      "t": 83846.14266666675,
      "d": 3461.537999999986,
      "v": 64
    },
    {
      "midi": 61,
      "hit": false,
      "t": 84230.75800000009,
      "d": 1999.9997333333304,
      "v": 64
    },
    {
      "midi": 64,
      "hit": false,
      "t": 86153.83466666675,
      "d": 548.0768499999976,
      "v": 64
    },
    {
      "midi": 61,
      "hit": false,
      "t": 86538.45000000008,
      "d": 769.2306666666555,
      "v": 64
    },
    {
      "midi": 49,
      "hit": false,
      "t": 87307.68066666674,
      "d": 230.76919999999518,
      "v": 64
    },
    {
      "midi": 57,
      "hit": false,
      "t": 87692.29600000007,
      "d": 2817.3073166666727,
      "v": 64
    },
    {
      "midi": 62,
      "hit": false,
      "t": 87692.29600000007,
      "d": 2817.3073166666727,
      "v": 64
    },
    {
      "midi": 66,
      "hit": false,
      "t": 87692.29600000007,
      "d": 2817.3073166666727,
      "v": 64
    },
    {
      "midi": 57,
      "hit": false,
      "t": 90769.21866666674,
      "d": 1076.922933333335,
      "v": 64
    },
    {
      "midi": 62,
      "hit": false,
      "t": 91153.83400000008,
      "d": 769.23066666667,
      "v": 64
    },
    {
      "midi": 66,
      "hit": false,
      "t": 91923.06466666675,
      "d": 336.53841666666267,
      "v": 64
    },
    {
      "midi": 57,
      "hit": false,
      "t": 92307.68000000008,
      "d": 1230.769066666675,
      "v": 64
    },
    {
      "midi": 66,
      "hit": false,
      "t": 92307.68000000008,
      "d": 1230.769066666675,
      "v": 64
    },
    {
      "midi": 62,
      "hit": false,
      "t": 93461.52600000009,
      "d": 76.92306666666991,
      "v": 64
    },
    {
      "midi": 66,
      "hit": false,
      "t": 94230.75666666676,
      "d": 346.15380000000005,
      "v": 64
    },
    {
      "midi": 56,
      "hit": false,
      "t": 94615.37200000009,
      "d": 1153.846000000005,
      "v": 64
    },
    {
      "midi": 61,
      "hit": false,
      "t": 94615.37200000009,
      "d": 1153.846000000005,
      "v": 64
    },
    {
      "midi": 65,
      "hit": false,
      "t": 94615.37200000009,
      "d": 1153.846000000005,
      "v": 64
    },
    {
      "midi": 55,
      "hit": false,
      "t": 95769.2180000001,
      "d": 1153.846000000005,
      "v": 64
    },
    {
      "midi": 60,
      "hit": false,
      "t": 95769.2180000001,
      "d": 1153.846000000005,
      "v": 64
    },
    {
      "midi": 64,
      "hit": false,
      "t": 95769.2180000001,
      "d": 1153.846000000005,
      "v": 64
    },
    {
      "midi": 57,
      "hit": false,
      "t": 96923.0640000001,
      "d": 2913.461150000003,
      "v": 64
    },
    {
      "midi": 59,
      "hit": false,
      "t": 96923.0640000001,
      "d": 2913.461150000003,
      "v": 64
    },
    {
      "midi": 63,
      "hit": false,
      "t": 96923.0640000001,
      "d": 2913.461150000003,
      "v": 64
    },
    {
      "midi": 66,
      "hit": false,
      "t": 96923.0640000001,
      "d": 2913.461150000003,
      "v": 64
    },
    {
      "midi": 54,
      "hit": false,
      "t": 99999.98666666677,
      "d": 4999.9993333333405,
      "v": 64
    },
    {
      "midi": 59,
      "hit": false,
      "t": 100384.6020000001,
      "d": 4230.7686666666705,
      "v": 64
    },
    {
      "midi": 63,
      "hit": false,
      "t": 101153.83266666677,
      "d": 2999.9995999999956,
      "v": 64
    },
    {
      "midi": 66,
      "hit": false,
      "t": 103461.52466666677,
      "d": 2634.61503333335,
      "v": 64
    },
    {
      "midi": 63,
      "hit": false,
      "t": 104615.37066666677,
      "d": 1480.7690333333449,
      "v": 64
    },
    {
      "midi": 59,
      "hit": false,
      "t": 104999.9860000001,
      "d": 1038.4614000000001,
      "v": 64
    },
    {
      "midi": 54,
      "hit": false,
      "t": 105769.21666666678,
      "d": 317.30765000000247,
      "v": 64
    },
    {
      "midi": 59,
      "hit": false,
      "t": 106153.83200000011,
      "d": 1269.2306000000099,
      "v": 64
    },
    {
      "midi": 64,
      "hit": false,
      "t": 107307.67800000012,
      "d": 2086.5381833333377,
      "v": 64
    },
    {
      "midi": 68,
      "hit": false,
      "t": 108076.90866666679,
      "d": 1048.0767833333375,
      "v": 64
    },
    {
      "midi": 59,
      "hit": false,
      "t": 109230.75466666679,
      "d": 211.53843333333498,
      "v": 64
    },
    {
      "midi": 59,
      "hit": false,
      "t": 109615.37000000013,
      "d": 817.3075833333423,
      "v": 64
    },
    {
      "midi": 64,
      "hit": false,
      "t": 110384.6006666668,
      "d": 211.53843333333498,
      "v": 64
    },
    {
      "midi": 59,
      "hit": false,
      "t": 110769.21600000013,
      "d": 2817.3073166666727,
      "v": 64
    },
    {
      "midi": 62,
      "hit": false,
      "t": 110769.21600000013,
      "d": 2817.3073166666727,
      "v": 64
    },
    {
      "midi": 64,
      "hit": false,
      "t": 110769.21600000013,
      "d": 2817.3073166666727,
      "v": 64
    },
    {
      "midi": 68,
      "hit": false,
      "t": 110769.21600000013,
      "d": 2817.3073166666727,
      "v": 64
    },
    {
      "midi": 59,
      "hit": false,
      "t": 113846.13866666681,
      "d": 1076.922933333335,
      "v": 64
    },
    {
      "midi": 64,
      "hit": false,
      "t": 114230.75400000015,
      "d": 769.23066666667,
      "v": 64
    },
    {
      "midi": 68,
      "hit": false,
      "t": 114999.98466666682,
      "d": 336.53841666666267,
      "v": 64
    },
    {
      "midi": 57,
      "hit": false,
      "t": 115384.60000000015,
      "d": 2817.3073166666727,
      "v": 64
    },
    {
      "midi": 61,
      "hit": false,
      "t": 115384.60000000015,
      "d": 2817.3073166666727,
      "v": 64
    },
    {
      "midi": 64,
      "hit": false,
      "t": 115384.60000000015,
      "d": 2817.3073166666727,
      "v": 64
    },
    {
      "midi": 52,
      "hit": false,
      "t": 118461.52266666683,
      "d": 1076.922933333335,
      "v": 64
    },
    {
      "midi": 57,
      "hit": false,
      "t": 118846.13800000017,
      "d": 769.23066666667,
      "v": 64
    },
    {
      "midi": 61,
      "hit": false,
      "t": 119615.36866666684,
      "d": 336.53841666666267,
      "v": 64
    },
    {
      "midi": 52,
      "hit": false,
      "t": 119999.98400000017,
      "d": 624.9999166666676,
      "v": 64
    },
    {
      "midi": 55,
      "hit": false,
      "t": 119999.98400000017,
      "d": 942.30756666667,
      "v": 64
    },
    {
      "midi": 57,
      "hit": false,
      "t": 119999.98400000017,
      "d": 980.769100000005,
      "v": 64
    },
    {
      "midi": 61,
      "hit": false,
      "t": 119999.98400000017,
      "d": 1076.922933333335,
      "v": 64
    },
    {
      "midi": 52,
      "hit": false,
      "t": 120769.21466666684,
      "d": 3461.5380000000005,
      "v": 64
    },
    {
      "midi": 55,
      "hit": false,
      "t": 121153.83000000018,
      "d": 2067.3074166666775,
      "v": 64
    },
    {
      "midi": 57,
      "hit": false,
      "t": 121923.06066666685,
      "d": 1230.769066666675,
      "v": 64
    },
    {
      "midi": 61,
      "hit": false,
      "t": 123076.90666666685,
      "d": 548.0768499999976,
      "v": 64
    },
    {
      "midi": 57,
      "hit": false,
      "t": 123461.52200000019,
      "d": 769.2306666666555,
      "v": 64
    },
    {
      "midi": 45,
      "hit": false,
      "t": 124230.75266666684,
      "d": 230.76919999999518,
      "v": 64
    },
    {
      "midi": 57,
      "hit": false,
      "t": 124615.36800000018,
      "d": 1269.2306000000099,
      "v": 64
    },
    {
      "midi": 62,
      "hit": false,
      "t": 125769.21400000018,
      "d": 2086.5381833333377,
      "v": 64
    },
    {
      "midi": 66,
      "hit": false,
      "t": 126538.44466666685,
      "d": 1048.0767833333375,
      "v": 64
    },
    {
      "midi": 57,
      "hit": false,
      "t": 127692.29066666686,
      "d": 211.53843333333498,
      "v": 64
    },
    {
      "midi": 57,
      "hit": false,
      "t": 128076.90600000019,
      "d": 817.3075833333423,
      "v": 64
    },
    {
      "midi": 62,
      "hit": false,
      "t": 128846.13666666686,
      "d": 211.53843333333498,
      "v": 64
    },
    {
      "midi": 51,
      "hit": false,
      "t": 129230.7520000002,
      "d": 624.9999166666676,
      "v": 64
    },
    {
      "midi": 54,
      "hit": false,
      "t": 129230.7520000002,
      "d": 942.30756666667,
      "v": 64
    },
    {
      "midi": 57,
      "hit": false,
      "t": 129230.7520000002,
      "d": 980.769100000005,
      "v": 64
    },
    {
      "midi": 60,
      "hit": false,
      "t": 129230.7520000002,
      "d": 1076.922933333335,
      "v": 64
    },
    {
      "midi": 51,
      "hit": false,
      "t": 129999.98266666687,
      "d": 3461.538000000015,
      "v": 64
    },
    {
      "midi": 54,
      "hit": false,
      "t": 130384.5980000002,
      "d": 2067.3074166666775,
      "v": 64
    },
    {
      "midi": 57,
      "hit": false,
      "t": 131153.82866666687,
      "d": 1230.7690666666604,
      "v": 64
    },
    {
      "midi": 60,
      "hit": false,
      "t": 132307.67466666686,
      "d": 548.0768500000122,
      "v": 64
    },
    {
      "midi": 57,
      "hit": false,
      "t": 132692.2900000002,
      "d": 769.23066666667,
      "v": 64
    },
    {
      "midi": 45,
      "hit": false,
      "t": 133461.52066666688,
      "d": 230.76920000000973,
      "v": 64
    },
    {
      "midi": 52,
      "hit": false,
      "t": 133846.13600000023,
      "d": 624.999916666653,
      "v": 64
    },
    {
      "midi": 57,
      "hit": false,
      "t": 133846.13600000023,
      "d": 942.3075666666264,
      "v": 64
    },
    {
      "midi": 61,
      "hit": false,
      "t": 133846.13600000023,
      "d": 1076.9229333332914,
      "v": 64
    },
    {
      "midi": 52,
      "hit": false,
      "t": 134615.36666666687,
      "d": 3461.5380000000005,
      "v": 64
    },
    {
      "midi": 57,
      "hit": false,
      "t": 134999.9820000002,
      "d": 1999.9997333333304,
      "v": 64
    },
    {
      "midi": 61,
      "hit": false,
      "t": 136923.05866666685,
      "d": 548.0768500000122,
      "v": 64
    },
    {
      "midi": 57,
      "hit": false,
      "t": 137307.6740000002,
      "d": 769.23066666667,
      "v": 64
    },
    {
      "midi": 45,
      "hit": false,
      "t": 138076.90466666687,
      "d": 230.76920000000973,
      "v": 64
    },
    {
      "midi": 56,
      "hit": false,
      "t": 138461.52000000022,
      "d": 1269.2305999999808,
      "v": 64
    },
    {
      "midi": 59,
      "hit": false,
      "t": 139230.7506666669,
      "d": 2519.230433333316,
      "v": 64
    },
    {
      "midi": 62,
      "hit": false,
      "t": 139615.3660000002,
      "d": 2086.538183333323,
      "v": 64
    },
    {
      "midi": 64,
      "hit": false,
      "t": 140384.59666666688,
      "d": 1048.076783333323,
      "v": 64
    },
    {
      "midi": 56,
      "hit": false,
      "t": 141538.44266666687,
      "d": 1201.9229166666628,
      "v": 64
    },
    {
      "midi": 59,
      "hit": false,
      "t": 141923.0580000002,
      "d": 817.3075833333423,
      "v": 64
    },
    {
      "midi": 62,
      "hit": false,
      "t": 142692.28866666686,
      "d": 211.53843333333498,
      "v": 64
    },
    {
      "midi": 57,
      "hit": false,
      "t": 143076.90400000018,
      "d": 798.0768166666676,
      "v": 64
    },
    {
      "midi": 61,
      "hit": false,
      "t": 143076.90400000018,
      "d": 798.0768166666676,
      "v": 64
    },
    {
      "midi": 64,
      "hit": false,
      "t": 143076.90400000018,
      "d": 798.0768166666676,
      "v": 64
    },
    {
      "midi": 45,
      "hit": false,
      "t": 143846.13466666685,
      "d": 644.2306833333278,
      "v": 64
    },
    {
      "midi": 57,
      "hit": false,
      "t": 144230.75000000017,
      "d": 903.8460333333351,
      "v": 64
    },
    {
      "midi": 61,
      "hit": false,
      "t": 144230.75000000017,
      "d": 903.8460333333351,
      "v": 64
    },
    {
      "midi": 64,
      "hit": false,
      "t": 144230.75000000017,
      "d": 903.8460333333351,
      "v": 64
    },
    {
      "midi": 57,
      "hit": false,
      "t": 145384.59600000017,
      "d": 1798.0766833333473,
      "v": 64
    },
    {
      "midi": 62,
      "hit": false,
      "t": 145384.59600000017,
      "d": 1798.0766833333473,
      "v": 64
    },
    {
      "midi": 66,
      "hit": false,
      "t": 146923.0573333335,
      "d": 259.6153500000073,
      "v": 64
    },
    {
      "midi": 62,
      "hit": false,
      "t": 147307.67266666685,
      "d": 384.61533333332045,
      "v": 64
    },
    {
      "midi": 57,
      "hit": false,
      "t": 147692.28800000018,
      "d": 1798.0766833333473,
      "v": 64
    },
    {
      "midi": 64,
      "hit": false,
      "t": 147692.28800000018,
      "d": 1798.0766833333473,
      "v": 64
    },
    {
      "midi": 61,
      "hit": false,
      "t": 149230.74933333352,
      "d": 259.6153500000073,
      "v": 64
    },
    {
      "midi": 57,
      "hit": false,
      "t": 149615.36466666686,
      "d": 384.61533333332045,
      "v": 64
    },
    {
      "midi": 59,
      "hit": false,
      "t": 149999.98000000019,
      "d": 1798.0766833333473,
      "v": 64
    },
    {
      "midi": 62,
      "hit": false,
      "t": 149999.98000000019,
      "d": 1798.0766833333473,
      "v": 64
    },
    {
      "midi": 64,
      "hit": false,
      "t": 149999.98000000019,
      "d": 1798.0766833333473,
      "v": 64
    },
    {
      "midi": 68,
      "hit": false,
      "t": 151538.44133333353,
      "d": 259.6153500000073,
      "v": 64
    },
    {
      "midi": 62,
      "hit": false,
      "t": 151923.05666666687,
      "d": 384.61533333332045,
      "v": 64
    },
    {
      "midi": 57,
      "hit": false,
      "t": 152307.6720000002,
      "d": 2817.3073166666727,
      "v": 64
    },
    {
      "midi": 61,
      "hit": false,
      "t": 152307.6720000002,
      "d": 2817.3073166666727,
      "v": 64
    },
    {
      "midi": 64,
      "hit": false,
      "t": 152307.6720000002,
      "d": 2817.3073166666727,
      "v": 64
    },
    {
      "midi": 52,
      "hit": false,
      "t": 155384.59466666688,
      "d": 1076.9229333333205,
      "v": 64
    },
    {
      "midi": 57,
      "hit": false,
      "t": 155769.2100000002,
      "d": 769.23066666667,
      "v": 64
    },
    {
      "midi": 61,
      "hit": false,
      "t": 156538.44066666687,
      "d": 336.5384166666772,
      "v": 64
    },
    {
      "midi": 56,
      "hit": false,
      "t": 156923.05600000022,
      "d": 2817.3073166666727,
      "v": 64
    },
    {
      "midi": 61,
      "hit": false,
      "t": 156923.05600000022,
      "d": 2817.3073166666727,
      "v": 64
    },
    {
      "midi": 65,
      "hit": false,
      "t": 156923.05600000022,
      "d": 2817.3073166666727,
      "v": 64
    },
    {
      "midi": 56,
      "hit": false,
      "t": 159999.9786666669,
      "d": 1076.9229333333205,
      "v": 64
    },
    {
      "midi": 61,
      "hit": false,
      "t": 160384.59400000022,
      "d": 769.23066666667,
      "v": 64
    },
    {
      "midi": 65,
      "hit": false,
      "t": 161153.8246666669,
      "d": 336.5384166666772,
      "v": 64
    },
    {
      "midi": 57,
      "hit": false,
      "t": 161538.44000000024,
      "d": 624.999916666653,
      "v": 64
    },
    {
      "midi": 62,
      "hit": false,
      "t": 161538.44000000024,
      "d": 942.3075666666264,
      "v": 64
    },
    {
      "midi": 66,
      "hit": false,
      "t": 161538.44000000024,
      "d": 1076.9229333332914,
      "v": 64
    },
    {
      "midi": 57,
      "hit": false,
      "t": 162307.67066666688,
      "d": 3461.5380000000005,
      "v": 64
    },
    {
      "midi": 62,
      "hit": false,
      "t": 162692.2860000002,
      "d": 1999.9997333333304,
      "v": 64
    },
    {
      "midi": 66,
      "hit": false,
      "t": 164615.36266666686,
      "d": 548.0768500000122,
      "v": 64
    },
    {
      "midi": 62,
      "hit": false,
      "t": 164999.9780000002,
      "d": 769.23066666667,
      "v": 64
    },
    {
      "midi": 50,
      "hit": false,
      "t": 165769.20866666688,
      "d": 230.76920000000973,
      "v": 64
    },
    {
      "midi": 52,
      "hit": false,
      "t": 166153.82400000023,
      "d": 624.999916666653,
      "v": 64
    },
    {
      "midi": 57,
      "hit": false,
      "t": 166153.82400000023,
      "d": 942.3075666666264,
      "v": 64
    },
    {
      "midi": 61,
      "hit": false,
      "t": 166153.82400000023,
      "d": 1076.9229333332914,
      "v": 64
    },
    {
      "midi": 52,
      "hit": false,
      "t": 166923.05466666687,
      "d": 3461.5380000000005,
      "v": 64
    },
    {
      "midi": 57,
      "hit": false,
      "t": 167307.6700000002,
      "d": 1999.9997333333304,
      "v": 64
    },
    {
      "midi": 61,
      "hit": false,
      "t": 169230.74666666685,
      "d": 548.0768500000122,
      "v": 64
    },
    {
      "midi": 57,
      "hit": false,
      "t": 169615.3620000002,
      "d": 769.23066666667,
      "v": 64
    },
    {
      "midi": 45,
      "hit": false,
      "t": 170384.59266666687,
      "d": 230.76920000000973,
      "v": 64
    },
    {
      "midi": 57,
      "hit": false,
      "t": 170769.20800000022,
      "d": 624.999916666653,
      "v": 64
    },
    {
      "midi": 62,
      "hit": false,
      "t": 170769.20800000022,
      "d": 942.3075666666264,
      "v": 64
    },
    {
      "midi": 66,
      "hit": false,
      "t": 170769.20800000022,
      "d": 1076.9229333332914,
      "v": 64
    },
    {
      "midi": 57,
      "hit": false,
      "t": 171538.43866666686,
      "d": 3461.5380000000005,
      "v": 64
    },
    {
      "midi": 62,
      "hit": false,
      "t": 171923.05400000018,
      "d": 1999.9997333333304,
      "v": 64
    },
    {
      "midi": 66,
      "hit": false,
      "t": 173846.13066666684,
      "d": 548.0768500000122,
      "v": 64
    },
    {
      "midi": 62,
      "hit": false,
      "t": 174230.7460000002,
      "d": 769.23066666667,
      "v": 64
    },
    {
      "midi": 50,
      "hit": false,
      "t": 174999.97666666686,
      "d": 230.76920000000973,
      "v": 64
    },
    {
      "midi": 76,
      "hit": false,
      "t": 175403.82276666685,
      "d": 1057.6921666665876,
      "v": 64
    },
    {
      "midi": 52,
      "hit": false,
      "t": 175403.82276666685,
      "d": 4384.614799999836,
      "v": 64
    },
    {
      "midi": 64,
      "hit": false,
      "t": 175413.43815000018,
      "d": 2480.768899999879,
      "v": 64
    },
    {
      "midi": 71,
      "hit": false,
      "t": 175423.0535333335,
      "d": 163.46151666663354,
      "v": 64
    },
    {
      "midi": 59,
      "hit": false,
      "t": 175432.66891666682,
      "d": 1663.461316666624,
      "v": 64
    },
    {
      "midi": 73,
      "hit": false,
      "t": 175576.8996666668,
      "d": 846.1537333333108,
      "v": 64
    },
    {
      "midi": 76,
      "hit": false,
      "t": 176557.6687666668,
      "d": 682.6922166666482,
      "v": 64
    },
    {
      "midi": 71,
      "hit": false,
      "t": 176567.2841500001,
      "d": 682.6922166666482,
      "v": 64
    },
    {
      "midi": 59,
      "hit": false,
      "t": 177307.66866666675,
      "d": 2509.615049999935,
      "v": 64
    },
    {
      "midi": 71,
      "hit": false,
      "t": 177711.51476666675,
      "d": 2038.4612666666217,
      "v": 64
    },
    {
      "midi": 66,
      "hit": false,
      "t": 177721.13015000007,
      "d": 115.38459999999031,
      "v": 64
    },
    {
      "midi": 68,
      "hit": false,
      "t": 177855.74551666674,
      "d": 1086.5383166666434,
      "v": 64
    },
    {
      "midi": 66,
      "hit": false,
      "t": 178432.66851666672,
      "d": 538.4614666666603,
      "v": 64
    },
    {
      "midi": 64,
      "hit": false,
      "t": 178865.3607666667,
      "d": 874.9998833333375,
      "v": 64
    },
    {
      "midi": 61,
      "hit": false,
      "t": 179999.97600000002,
      "d": 1230.7690666666604,
      "v": 64
    },
    {
      "midi": 64,
      "hit": false,
      "t": 179999.97600000002,
      "d": 1230.7690666666604,
      "v": 64
    },
    {
      "midi": 57,
      "hit": false,
      "t": 181153.82200000001,
      "d": 76.92306666666991,
      "v": 64
    },
    {
      "midi": 61,
      "hit": false,
      "t": 181923.05266666668,
      "d": 346.15380000000005,
      "v": 64
    },
    {
      "midi": 61,
      "hit": false,
      "t": 182307.668,
      "d": 1230.7690666666604,
      "v": 64
    },
    {
      "midi": 64,
      "hit": false,
      "t": 182307.668,
      "d": 1230.7690666666604,
      "v": 64
    },
    {
      "midi": 67,
      "hit": false,
      "t": 182307.668,
      "d": 1230.7690666666604,
      "v": 64
    },
    {
      "midi": 70,
      "hit": false,
      "t": 182307.668,
      "d": 1230.7690666666604,
      "v": 64
    },
    {
      "midi": 55,
      "hit": false,
      "t": 183461.514,
      "d": 855.7691166666627,
      "v": 64
    },
    {
      "midi": 61,
      "hit": false,
      "t": 184230.74466666667,
      "d": 346.15380000000005,
      "v": 64
    },
    {
      "midi": 59,
      "hit": false,
      "t": 184615.36,
      "d": 2124.9997166666435,
      "v": 64
    },
    {
      "midi": 62,
      "hit": false,
      "t": 185769.20599999998,
      "d": 778.8460499999928,
      "v": 64
    },
    {
      "midi": 66,
      "hit": false,
      "t": 186538.43666666665,
      "d": 201.92304999998305,
      "v": 64
    },
    {
      "midi": 62,
      "hit": false,
      "t": 186923.05199999997,
      "d": 2124.9997166666435,
      "v": 64
    },
    {
      "midi": 64,
      "hit": false,
      "t": 187692.28266666664,
      "d": 1442.3074999999662,
      "v": 64
    },
    {
      "midi": 68,
      "hit": false,
      "t": 188076.89799999996,
      "d": 778.8460499999928,
      "v": 64
    },
    {
      "midi": 71,
      "hit": false,
      "t": 188846.12866666663,
      "d": 201.92304999998305,
      "v": 64
    },
    {
      "midi": 52,
      "hit": false,
      "t": 189230.74399999995,
      "d": 624.999916666653,
      "v": 64
    },
    {
      "midi": 57,
      "hit": false,
      "t": 189230.74399999995,
      "d": 942.3075666666264,
      "v": 64
    },
    {
      "midi": 61,
      "hit": false,
      "t": 189230.74399999995,
      "d": 1076.9229333332914,
      "v": 64
    },
    {
      "midi": 52,
      "hit": false,
      "t": 189999.9746666666,
      "d": 3461.5380000000005,
      "v": 64
    },
    {
      "midi": 57,
      "hit": false,
      "t": 190384.5899999999,
      "d": 1999.9997333333304,
      "v": 64
    },
    {
      "midi": 61,
      "hit": false,
      "t": 192307.66666666657,
      "d": 548.0768500000122,
      "v": 64
    },
    {
      "midi": 57,
      "hit": false,
      "t": 192692.28199999992,
      "d": 769.23066666667,
      "v": 64
    },
    {
      "midi": 45,
      "hit": false,
      "t": 193461.5126666666,
      "d": 230.76920000000973,
      "v": 64
    },
    {
      "midi": 56,
      "hit": false,
      "t": 193846.12799999994,
      "d": 624.999916666653,
      "v": 64
    },
    {
      "midi": 61,
      "hit": false,
      "t": 193846.12799999994,
      "d": 942.3075666666264,
      "v": 64
    },
    {
      "midi": 64,
      "hit": false,
      "t": 193846.12799999994,
      "d": 1076.9229333332914,
      "v": 64
    },
    {
      "midi": 56,
      "hit": false,
      "t": 194615.35866666658,
      "d": 3461.5380000000005,
      "v": 64
    },
    {
      "midi": 61,
      "hit": false,
      "t": 194999.9739999999,
      "d": 1999.9997333333304,
      "v": 64
    },
    {
      "midi": 64,
      "hit": false,
      "t": 196923.05066666656,
      "d": 548.0768500000122,
      "v": 64
    },
    {
      "midi": 61,
      "hit": false,
      "t": 197307.6659999999,
      "d": 769.23066666667,
      "v": 64
    },
    {
      "midi": 49,
      "hit": false,
      "t": 198076.89666666658,
      "d": 230.76920000000973,
      "v": 64
    },
    {
      "midi": 57,
      "hit": false,
      "t": 198461.51199999993,
      "d": 1269.2305999999808,
      "v": 64
    },
    {
      "midi": 62,
      "hit": false,
      "t": 199615.35799999992,
      "d": 2086.538183333323,
      "v": 64
    },
    {
      "midi": 66,
      "hit": false,
      "t": 200384.5886666666,
      "d": 1048.076783333323,
      "v": 64
    },
    {
      "midi": 57,
      "hit": false,
      "t": 201538.43466666658,
      "d": 211.53843333333498,
      "v": 64
    },
    {
      "midi": 57,
      "hit": false,
      "t": 201923.0499999999,
      "d": 817.3075833333423,
      "v": 64
    },
    {
      "midi": 62,
      "hit": false,
      "t": 202692.28066666657,
      "d": 211.53843333333498,
      "v": 64
    },
    {
      "midi": 69,
      "hit": false,
      "t": 203096.12676666657,
      "d": 1057.6921666665876,
      "v": 64
    },
    {
      "midi": 45,
      "hit": false,
      "t": 203096.12676666657,
      "d": 4384.614799999836,
      "v": 64
    },
    {
      "midi": 57,
      "hit": false,
      "t": 203105.7421499999,
      "d": 2480.768899999879,
      "v": 64
    },
    {
      "midi": 64,
      "hit": false,
      "t": 203115.3575333332,
      "d": 163.46151666663354,
      "v": 64
    },
    {
      "midi": 52,
      "hit": false,
      "t": 203124.97291666653,
      "d": 1663.461316666624,
      "v": 64
    },
    {
      "midi": 66,
      "hit": false,
      "t": 203269.20366666652,
      "d": 846.1537333333108,
      "v": 64
    },
    {
      "midi": 69,
      "hit": false,
      "t": 204249.9727666665,
      "d": 682.6922166666482,
      "v": 64
    },
    {
      "midi": 64,
      "hit": false,
      "t": 204259.58814999982,
      "d": 682.6922166666482,
      "v": 64
    },
    {
      "midi": 52,
      "hit": false,
      "t": 204999.97266666646,
      "d": 2509.615049999935,
      "v": 64
    },
    {
      "midi": 64,
      "hit": false,
      "t": 205403.81876666646,
      "d": 2038.4612666666217,
      "v": 64
    },
    {
      "midi": 59,
      "hit": false,
      "t": 205413.43414999978,
      "d": 115.38459999999031,
      "v": 64
    },
    {
      "midi": 61,
      "hit": false,
      "t": 205548.04951666645,
      "d": 1086.5383166666434,
      "v": 64
    },
    {
      "midi": 59,
      "hit": false,
      "t": 206124.97251666643,
      "d": 538.4614666666603,
      "v": 64
    },
    {
      "midi": 57,
      "hit": false,
      "t": 206557.66476666642,
      "d": 874.9998833333375,
      "v": 64
    },
    {
      "midi": 54,
      "hit": false,
      "t": 207692.27999999974,
      "d": 413.46148333334713,
      "v": 64
    },
    {
      "midi": 59,
      "hit": false,
      "t": 207692.27999999974,
      "d": 942.3075666666555,
      "v": 64
    },
    {
      "midi": 66,
      "hit": false,
      "t": 207692.27999999974,
      "d": 1836.5382166666677,
      "v": 64
    },
    {
      "midi": 47,
      "hit": false,
      "t": 207692.27999999974,
      "d": 8961.53726666671,
      "v": 64
    },
    {
      "midi": 54,
      "hit": false,
      "t": 208461.5106666664,
      "d": 2567.307349999988,
      "v": 64
    },
    {
      "midi": 59,
      "hit": false,
      "t": 208846.12599999973,
      "d": 2471.1535166666727,
      "v": 64
    },
    {
      "midi": 63,
      "hit": false,
      "t": 209615.3566666664,
      "d": 1826.922833333345,
      "v": 64
    },
    {
      "midi": 35,
      "hit": false,
      "t": 210769.2026666664,
      "d": 836.5383500000462,
      "v": 64
    },
    {
      "midi": 54,
      "hit": false,
      "t": 211153.81799999974,
      "d": 2105.768950000027,
      "v": 64
    },
    {
      "midi": 59,
      "hit": false,
      "t": 211538.4333333331,
      "d": 2144.2304833333474,
      "v": 64
    },
    {
      "midi": 63,
      "hit": false,
      "t": 211923.04866666644,
      "d": 4913.460883333348,
      "v": 64
    },
    {
      "midi": 66,
      "hit": false,
      "t": 212307.66399999976,
      "d": 4461.53786666668,
      "v": 64
    },
    {
      "midi": 35,
      "hit": false,
      "t": 213076.89466666643,
      "d": 3413.4610833333572,
      "v": 64
    },
    {
      "midi": 54,
      "hit": false,
      "t": 213461.50999999978,
      "d": 3374.9995500000077,
      "v": 64
    },
    {
      "midi": 57,
      "hit": false,
      "t": 214230.74066666645,
      "d": 2605.7688833333377,
      "v": 64
    },
    {
      "midi": 59,
      "hit": false,
      "t": 216923.04799999978,
      "d": 624.999916666653,
      "v": 64
    },
    {
      "midi": 64,
      "hit": false,
      "t": 216923.04799999978,
      "d": 942.3075666666264,
      "v": 64
    },
    {
      "midi": 68,
      "hit": false,
      "t": 216923.04799999978,
      "d": 1076.9229333332914,
      "v": 64
    },
    {
      "midi": 59,
      "hit": false,
      "t": 217692.27866666642,
      "d": 3461.5380000000005,
      "v": 64
    },
    {
      "midi": 64,
      "hit": false,
      "t": 218076.89399999974,
      "d": 1999.9997333333304,
      "v": 64
    },
    {
      "midi": 68,
      "hit": false,
      "t": 219999.9706666664,
      "d": 548.0768500000122,
      "v": 64
    },
    {
      "midi": 64,
      "hit": false,
      "t": 220384.58599999975,
      "d": 769.23066666667,
      "v": 64
    },
    {
      "midi": 52,
      "hit": false,
      "t": 221153.81666666642,
      "d": 230.76920000000973,
      "v": 64
    },
    {
      "midi": 59,
      "hit": false,
      "t": 221538.43199999977,
      "d": 624.999916666653,
      "v": 64
    },
    {
      "midi": 62,
      "hit": false,
      "t": 221538.43199999977,
      "d": 942.3075666666264,
      "v": 64
    },
    {
      "midi": 64,
      "hit": false,
      "t": 221538.43199999977,
      "d": 980.7690999999468,
      "v": 64
    },
    {
      "midi": 68,
      "hit": false,
      "t": 221538.43199999977,
      "d": 1076.9229333332914,
      "v": 64
    },
    {
      "midi": 59,
      "hit": false,
      "t": 222307.6626666664,
      "d": 3461.5380000000005,
      "v": 64
    },
    {
      "midi": 62,
      "hit": false,
      "t": 222692.27799999973,
      "d": 2067.3074166666775,
      "v": 64
    },
    {
      "midi": 64,
      "hit": false,
      "t": 223461.5086666664,
      "d": 1230.7690666666604,
      "v": 64
    },
    {
      "midi": 68,
      "hit": false,
      "t": 224615.3546666664,
      "d": 548.0768500000122,
      "v": 64
    },
    {
      "midi": 64,
      "hit": false,
      "t": 224999.96999999974,
      "d": 769.23066666667,
      "v": 64
    },
    {
      "midi": 52,
      "hit": false,
      "t": 225769.2006666664,
      "d": 230.76920000000973,
      "v": 64
    },
    {
      "midi": 69,
      "hit": false,
      "t": 226173.0467666664,
      "d": 1057.6921666665876,
      "v": 64
    },
    {
      "midi": 45,
      "hit": false,
      "t": 226173.0467666664,
      "d": 4384.614799999836,
      "v": 64
    },
    {
      "midi": 57,
      "hit": false,
      "t": 226182.66214999973,
      "d": 2480.768899999879,
      "v": 64
    },
    {
      "midi": 64,
      "hit": false,
      "t": 226192.27753333305,
      "d": 163.46151666663354,
      "v": 64
    },
    {
      "midi": 52,
      "hit": false,
      "t": 226201.89291666637,
      "d": 1663.461316666624,
      "v": 64
    },
    {
      "midi": 66,
      "hit": false,
      "t": 226346.12366666636,
      "d": 846.1537333333108,
      "v": 64
    },
    {
      "midi": 69,
      "hit": false,
      "t": 227326.89276666634,
      "d": 682.6922166666482,
      "v": 64
    },
    {
      "midi": 64,
      "hit": false,
      "t": 227336.50814999966,
      "d": 682.6922166666482,
      "v": 64
    },
    {
      "midi": 52,
      "hit": false,
      "t": 228076.8926666663,
      "d": 2509.615049999935,
      "v": 64
    },
    {
      "midi": 64,
      "hit": false,
      "t": 228480.7387666663,
      "d": 2038.4612666666217,
      "v": 64
    },
    {
      "midi": 59,
      "hit": false,
      "t": 228490.35414999962,
      "d": 115.38459999999031,
      "v": 64
    },
    {
      "midi": 61,
      "hit": false,
      "t": 228624.9695166663,
      "d": 1086.5383166666434,
      "v": 64
    },
    {
      "midi": 59,
      "hit": false,
      "t": 229201.89251666627,
      "d": 538.4614666666603,
      "v": 64
    },
    {
      "midi": 57,
      "hit": false,
      "t": 229634.58476666626,
      "d": 874.9998833333375,
      "v": 64
    },
    {
      "midi": 56,
      "hit": false,
      "t": 230769.19999999958,
      "d": 624.999916666653,
      "v": 64
    },
    {
      "midi": 61,
      "hit": false,
      "t": 230769.19999999958,
      "d": 942.3075666666264,
      "v": 64
    },
    {
      "midi": 65,
      "hit": false,
      "t": 230769.19999999958,
      "d": 1076.9229333332914,
      "v": 64
    },
    {
      "midi": 56,
      "hit": false,
      "t": 231538.43066666622,
      "d": 3461.5380000000005,
      "v": 64
    },
    {
      "midi": 61,
      "hit": false,
      "t": 231923.04599999954,
      "d": 1999.9997333333304,
      "v": 64
    },
    {
      "midi": 65,
      "hit": false,
      "t": 233846.1226666662,
      "d": 548.0768500000122,
      "v": 64
    },
    {
      "midi": 61,
      "hit": false,
      "t": 234230.73799999955,
      "d": 769.23066666667,
      "v": 64
    },
    {
      "midi": 49,
      "hit": false,
      "t": 234999.96866666622,
      "d": 230.76920000000973,
      "v": 64
    },
    {
      "midi": 57,
      "hit": false,
      "t": 235384.58399999957,
      "d": 2817.3073166666727,
      "v": 64
    },
    {
      "midi": 62,
      "hit": false,
      "t": 235384.58399999957,
      "d": 2817.3073166666727,
      "v": 64
    },
    {
      "midi": 66,
      "hit": false,
      "t": 235384.58399999957,
      "d": 2817.3073166666727,
      "v": 64
    },
    {
      "midi": 57,
      "hit": false,
      "t": 238461.50666666625,
      "d": 1076.9229333333205,
      "v": 64
    },
    {
      "midi": 62,
      "hit": false,
      "t": 238846.12199999957,
      "d": 769.23066666667,
      "v": 64
    },
    {
      "midi": 66,
      "hit": false,
      "t": 239615.35266666624,
      "d": 336.5384166666772,
      "v": 64
    },
    {
      "midi": 57,
      "hit": false,
      "t": 239999.9679999996,
      "d": 798.0768166666676,
      "v": 64
    },
    {
      "midi": 62,
      "hit": false,
      "t": 239999.9679999996,
      "d": 798.0768166666676,
      "v": 64
    },
    {
      "midi": 66,
      "hit": false,
      "t": 239999.9679999996,
      "d": 798.0768166666676,
      "v": 64
    },
    {
      "midi": 50,
      "hit": false,
      "t": 240769.19866666626,
      "d": 644.2306833333278,
      "v": 64
    },
    {
      "midi": 57,
      "hit": false,
      "t": 241153.81399999958,
      "d": 903.8460333333351,
      "v": 64
    },
    {
      "midi": 62,
      "hit": false,
      "t": 241153.81399999958,
      "d": 903.8460333333351,
      "v": 64
    },
    {
      "midi": 66,
      "hit": false,
      "t": 241153.81399999958,
      "d": 903.8460333333351,
      "v": 64
    },
    {
      "midi": 56,
      "hit": false,
      "t": 242307.65999999957,
      "d": 1153.8459999999905,
      "v": 64
    },
    {
      "midi": 61,
      "hit": false,
      "t": 242307.65999999957,
      "d": 1153.8459999999905,
      "v": 64
    },
    {
      "midi": 65,
      "hit": false,
      "t": 242307.65999999957,
      "d": 1153.8459999999905,
      "v": 64
    },
    {
      "midi": 55,
      "hit": false,
      "t": 243461.50599999956,
      "d": 1153.8459999999905,
      "v": 64
    },
    {
      "midi": 60,
      "hit": false,
      "t": 243461.50599999956,
      "d": 1153.8459999999905,
      "v": 64
    },
    {
      "midi": 64,
      "hit": false,
      "t": 243461.50599999956,
      "d": 1153.8459999999905,
      "v": 64
    },
    {
      "midi": 54,
      "hit": false,
      "t": 244615.35199999955,
      "d": 413.46148333334713,
      "v": 64
    },
    {
      "midi": 59,
      "hit": false,
      "t": 244615.35199999955,
      "d": 942.3075666666555,
      "v": 64
    },
    {
      "midi": 66,
      "hit": false,
      "t": 244615.35199999955,
      "d": 1836.5382166666677,
      "v": 64
    },
    {
      "midi": 47,
      "hit": false,
      "t": 244615.35199999955,
      "d": 8961.53726666671,
      "v": 64
    },
    {
      "midi": 54,
      "hit": false,
      "t": 245384.58266666622,
      "d": 2567.307349999988,
      "v": 64
    },
    {
      "midi": 59,
      "hit": false,
      "t": 245769.19799999954,
      "d": 2471.1535166666727,
      "v": 64
    },
    {
      "midi": 63,
      "hit": false,
      "t": 246538.4286666662,
      "d": 1826.922833333345,
      "v": 64
    },
    {
      "midi": 35,
      "hit": false,
      "t": 247692.2746666662,
      "d": 836.5383500000462,
      "v": 64
    },
    {
      "midi": 54,
      "hit": false,
      "t": 248076.88999999955,
      "d": 2105.768950000027,
      "v": 64
    },
    {
      "midi": 59,
      "hit": false,
      "t": 248461.5053333329,
      "d": 2144.2304833333474,
      "v": 64
    },
    {
      "midi": 63,
      "hit": false,
      "t": 248846.12066666625,
      "d": 4913.460883333348,
      "v": 64
    },
    {
      "midi": 66,
      "hit": false,
      "t": 249230.73599999957,
      "d": 4461.53786666668,
      "v": 64
    },
    {
      "midi": 35,
      "hit": false,
      "t": 249999.96666666624,
      "d": 3413.4610833333572,
      "v": 64
    },
    {
      "midi": 54,
      "hit": false,
      "t": 250384.5819999996,
      "d": 3374.9995500000077,
      "v": 64
    },
    {
      "midi": 57,
      "hit": false,
      "t": 251153.81266666626,
      "d": 2605.7688833333377,
      "v": 64
    },
    {
      "midi": 56,
      "hit": false,
      "t": 253846.1199999996,
      "d": 2817.3073166666727,
      "v": 64
    },
    {
      "midi": 59,
      "hit": false,
      "t": 253846.1199999996,
      "d": 2817.3073166666727,
      "v": 64
    },
    {
      "midi": 64,
      "hit": false,
      "t": 253846.1199999996,
      "d": 2817.3073166666727,
      "v": 64
    },
    {
      "midi": 59,
      "hit": false,
      "t": 256923.04266666627,
      "d": 1076.9229333333205,
      "v": 64
    },
    {
      "midi": 64,
      "hit": false,
      "t": 257307.6579999996,
      "d": 769.23066666667,
      "v": 64
    },
    {
      "midi": 68,
      "hit": false,
      "t": 258076.88866666626,
      "d": 336.5384166666772,
      "v": 64
    },
    {
      "midi": 68,
      "hit": false,
      "t": 258461.5039999996,
      "d": 586.5383833333326,
      "v": 64
    },
    {
      "midi": 62,
      "hit": false,
      "t": 258461.5039999996,
      "d": 2307.691999999981,
      "v": 64
    },
    {
      "midi": 52,
      "hit": false,
      "t": 258461.5039999996,
      "d": 4192.307133333234,
      "v": 64
    },
    {
      "midi": 76,
      "hit": false,
      "t": 258846.11933333293,
      "d": 576.9230000000098,
      "v": 64
    },
    {
      "midi": 68,
      "hit": false,
      "t": 259230.73466666628,
      "d": 163.46151666666265,
      "v": 64
    },
    {
      "midi": 66,
      "hit": false,
      "t": 259615.3499999996,
      "d": 471.1537833333132,
      "v": 64
    },
    {
      "midi": 59,
      "hit": false,
      "t": 259615.3499999996,
      "d": 3134.614966666588,
      "v": 64
    },
    {
      "midi": 74,
      "hit": false,
      "t": 259999.96533333292,
      "d": 490.38454999998794,
      "v": 64
    },
    {
      "midi": 66,
      "hit": false,
      "t": 260384.58066666624,
      "d": 182.6922833333374,
      "v": 64
    },
    {
      "midi": 64,
      "hit": false,
      "t": 260769.1959999996,
      "d": 471.1537833333132,
      "v": 64
    },
    {
      "midi": 73,
      "hit": false,
      "t": 261153.8113333329,
      "d": 221.1538166666578,
      "v": 64
    },
    {
      "midi": 64,
      "hit": false,
      "t": 261538.42666666623,
      "d": 144.2307499999879,
      "v": 64
    },
    {
      "midi": 62,
      "hit": false,
      "t": 261923.04199999955,
      "d": 509.6153166666627,
      "v": 64
    },
    {
      "midi": 71,
      "hit": false,
      "t": 262307.65733333287,
      "d": 326.9230333333253,
      "v": 64
    },
    {
      "midi": 62,
      "hit": false,
      "t": 262692.2726666662,
      "d": 269.23073333333014,
      "v": 64
    },
    {
      "midi": 69,
      "hit": false,
      "t": 263096.11876666616,
      "d": 1057.692166666733,
      "v": 64
    },
    {
      "midi": 45,
      "hit": false,
      "t": 263096.11876666616,
      "d": 4384.614800000098,
      "v": 64
    },
    {
      "midi": 57,
      "hit": false,
      "t": 263105.7341499995,
      "d": 2480.768900000083,
      "v": 64
    },
    {
      "midi": 64,
      "hit": false,
      "t": 263115.34953333286,
      "d": 163.46151666669175,
      "v": 64
    },
    {
      "midi": 52,
      "hit": false,
      "t": 263124.9649166662,
      "d": 1663.4613166667405,
      "v": 64
    },
    {
      "midi": 66,
      "hit": false,
      "t": 263269.1956666662,
      "d": 846.1537333333399,
      "v": 64
    },
    {
      "midi": 69,
      "hit": false,
      "t": 264249.96476666623,
      "d": 682.6922166667064,
      "v": 64
    },
    {
      "midi": 64,
      "hit": false,
      "t": 264259.5801499996,
      "d": 682.6922166667064,
      "v": 64
    },
    {
      "midi": 52,
      "hit": false,
      "t": 264999.9646666663,
      "d": 2509.615049999964,
      "v": 64
    },
    {
      "midi": 64,
      "hit": false,
      "t": 265403.81076666625,
      "d": 2038.4612666666508,
      "v": 64
    },
    {
      "midi": 59,
      "hit": false,
      "t": 265413.4261499996,
      "d": 115.38459999999031,
      "v": 64
    },
    {
      "midi": 61,
      "hit": false,
      "t": 265548.04151666624,
      "d": 1086.5383166666725,
      "v": 64
    },
    {
      "midi": 59,
      "hit": false,
      "t": 266124.96451666625,
      "d": 538.4614666666603,
      "v": 64
    },
    {
      "midi": 57,
      "hit": false,
      "t": 266557.6567666663,
      "d": 874.9998833332793,
      "v": 64
    },
    {
      "midi": 52,
      "hit": false,
      "t": 267692.2719999996,
      "d": 624.999916666653,
      "v": 64
    },
    {
      "midi": 55,
      "hit": false,
      "t": 267692.2719999996,
      "d": 942.3075666666264,
      "v": 64
    },
    {
      "midi": 57,
      "hit": false,
      "t": 267692.2719999996,
      "d": 980.7690999999759,
      "v": 64
    },
    {
      "midi": 61,
      "hit": false,
      "t": 267692.2719999996,
      "d": 1076.9229333333205,
      "v": 64
    },
    {
      "midi": 52,
      "hit": false,
      "t": 268461.50266666623,
      "d": 3461.5380000000005,
      "v": 64
    },
    {
      "midi": 55,
      "hit": false,
      "t": 268846.11799999955,
      "d": 2067.3074166666484,
      "v": 64
    },
    {
      "midi": 57,
      "hit": false,
      "t": 269615.3486666662,
      "d": 1230.7690666666604,
      "v": 64
    },
    {
      "midi": 61,
      "hit": false,
      "t": 270769.1946666662,
      "d": 548.0768500000122,
      "v": 64
    },
    {
      "midi": 57,
      "hit": false,
      "t": 271153.80999999953,
      "d": 769.2306666666991,
      "v": 64
    },
    {
      "midi": 45,
      "hit": false,
      "t": 271923.04066666623,
      "d": 230.76919999998063,
      "v": 64
    },
    {
      "midi": 74,
      "hit": false,
      "t": 272326.8867666662,
      "d": 1057.692166666733,
      "v": 64
    },
    {
      "midi": 50,
      "hit": false,
      "t": 272326.8867666662,
      "d": 4384.614800000098,
      "v": 64
    },
    {
      "midi": 62,
      "hit": false,
      "t": 272336.50214999955,
      "d": 2480.768900000083,
      "v": 64
    },
    {
      "midi": 69,
      "hit": false,
      "t": 272346.1175333329,
      "d": 163.46151666669175,
      "v": 64
    },
    {
      "midi": 57,
      "hit": false,
      "t": 272355.73291666625,
      "d": 1663.4613166667405,
      "v": 64
    },
    {
      "midi": 71,
      "hit": false,
      "t": 272499.96366666624,
      "d": 846.1537333333399,
      "v": 64
    },
    {
      "midi": 74,
      "hit": false,
      "t": 273480.7327666663,
      "d": 682.6922166667064,
      "v": 64
    },
    {
      "midi": 69,
      "hit": false,
      "t": 273490.3481499996,
      "d": 682.6922166667064,
      "v": 64
    },
    {
      "midi": 57,
      "hit": false,
      "t": 274230.7326666663,
      "d": 2509.615049999964,
      "v": 64
    },
    {
      "midi": 69,
      "hit": false,
      "t": 274634.5787666663,
      "d": 2038.4612666666508,
      "v": 64
    },
    {
      "midi": 64,
      "hit": false,
      "t": 274644.19414999965,
      "d": 115.38459999999031,
      "v": 64
    },
    {
      "midi": 66,
      "hit": false,
      "t": 274778.8095166663,
      "d": 1086.5383166666725,
      "v": 64
    },
    {
      "midi": 64,
      "hit": false,
      "t": 275355.7325166663,
      "d": 538.4614666666603,
      "v": 64
    },
    {
      "midi": 62,
      "hit": false,
      "t": 275788.4247666663,
      "d": 874.9998833332793,
      "v": 64
    },
    {
      "midi": 51,
      "hit": false,
      "t": 276923.03999999963,
      "d": 624.999916666653,
      "v": 64
    },
    {
      "midi": 54,
      "hit": false,
      "t": 276923.03999999963,
      "d": 942.3075666666264,
      "v": 64
    },
    {
      "midi": 57,
      "hit": false,
      "t": 276923.03999999963,
      "d": 980.7690999999759,
      "v": 64
    },
    {
      "midi": 60,
      "hit": false,
      "t": 276923.03999999963,
      "d": 1076.9229333333205,
      "v": 64
    },
    {
      "midi": 51,
      "hit": false,
      "t": 277692.27066666627,
      "d": 3461.5380000000005,
      "v": 64
    },
    {
      "midi": 54,
      "hit": false,
      "t": 278076.8859999996,
      "d": 2067.3074166666484,
      "v": 64
    },
    {
      "midi": 57,
      "hit": false,
      "t": 278846.11666666623,
      "d": 1230.7690666666604,
      "v": 64
    },
    {
      "midi": 60,
      "hit": false,
      "t": 279999.96266666625,
      "d": 548.0768500000122,
      "v": 64
    },
    {
      "midi": 57,
      "hit": false,
      "t": 280384.5779999996,
      "d": 769.2306666666991,
      "v": 64
    },
    {
      "midi": 45,
      "hit": false,
      "t": 281153.8086666663,
      "d": 230.76919999998063,
      "v": 64
    },
    {
      "midi": 52,
      "hit": false,
      "t": 281538.4239999996,
      "d": 624.999916666653,
      "v": 64
    },
    {
      "midi": 57,
      "hit": false,
      "t": 281538.4239999996,
      "d": 942.3075666666264,
      "v": 64
    },
    {
      "midi": 61,
      "hit": false,
      "t": 281538.4239999996,
      "d": 1076.9229333333205,
      "v": 64
    },
    {
      "midi": 52,
      "hit": false,
      "t": 282307.65466666623,
      "d": 3461.5380000000005,
      "v": 64
    },
    {
      "midi": 57,
      "hit": false,
      "t": 282692.26999999955,
      "d": 1999.9997333333013,
      "v": 64
    },
    {
      "midi": 61,
      "hit": false,
      "t": 284615.3466666662,
      "d": 548.0768500000122,
      "v": 64
    },
    {
      "midi": 57,
      "hit": false,
      "t": 284999.96199999953,
      "d": 769.2306666666991,
      "v": 64
    },
    {
      "midi": 45,
      "hit": false,
      "t": 285769.19266666623,
      "d": 230.76919999998063,
      "v": 64
    },
    {
      "midi": 59,
      "hit": false,
      "t": 286153.80799999955,
      "d": 624.999916666653,
      "v": 64
    },
    {
      "midi": 62,
      "hit": false,
      "t": 286153.80799999955,
      "d": 942.3075666666264,
      "v": 64
    },
    {
      "midi": 64,
      "hit": false,
      "t": 286153.80799999955,
      "d": 980.7690999999759,
      "v": 64
    },
    {
      "midi": 68,
      "hit": false,
      "t": 286153.80799999955,
      "d": 1076.9229333333205,
      "v": 64
    },
    {
      "midi": 59,
      "hit": false,
      "t": 286923.0386666662,
      "d": 3461.5380000000005,
      "v": 64
    },
    {
      "midi": 62,
      "hit": false,
      "t": 287307.6539999995,
      "d": 2067.3074166666484,
      "v": 64
    },
    {
      "midi": 64,
      "hit": false,
      "t": 288076.88466666616,
      "d": 1230.7690666666604,
      "v": 64
    },
    {
      "midi": 68,
      "hit": false,
      "t": 289230.7306666662,
      "d": 548.0768500000122,
      "v": 64
    },
    {
      "midi": 64,
      "hit": false,
      "t": 289615.3459999995,
      "d": 769.2306666666991,
      "v": 64
    },
    {
      "midi": 52,
      "hit": false,
      "t": 290384.5766666662,
      "d": 230.76919999998063,
      "v": 64
    },
    {
      "midi": 57,
      "hit": false,
      "t": 290769.1919999995,
      "d": 1798.0766833333182,
      "v": 64
    },
    {
      "midi": 64,
      "hit": false,
      "t": 290769.1919999995,
      "d": 1798.0766833333182,
      "v": 64
    },
    {
      "midi": 61,
      "hit": false,
      "t": 292307.65333333286,
      "d": 259.6153499999782,
      "v": 64
    },
    {
      "midi": 57,
      "hit": false,
      "t": 292692.2686666662,
      "d": 384.61533333332045,
      "v": 64
    },
    {
      "midi": 57,
      "hit": false,
      "t": 293076.8839999995,
      "d": 1230.7690666666604,
      "v": 64
    },
    {
      "midi": 66,
      "hit": false,
      "t": 293076.8839999995,
      "d": 1230.7690666666604,
      "v": 64
    },
    {
      "midi": 62,
      "hit": false,
      "t": 294230.7299999995,
      "d": 76.9230666666408,
      "v": 64
    },
    {
      "midi": 66,
      "hit": false,
      "t": 294999.96066666616,
      "d": 346.15379999997094,
      "v": 64
    },
    {
      "midi": 52,
      "hit": false,
      "t": 295384.5759999995,
      "d": 624.999916666653,
      "v": 64
    },
    {
      "midi": 57,
      "hit": false,
      "t": 295384.5759999995,
      "d": 942.3075666666264,
      "v": 64
    },
    {
      "midi": 61,
      "hit": false,
      "t": 295384.5759999995,
      "d": 1076.9229333333205,
      "v": 64
    },
    {
      "midi": 52,
      "hit": false,
      "t": 296153.8066666661,
      "d": 3461.5380000000005,
      "v": 64
    },
    {
      "midi": 57,
      "hit": false,
      "t": 296538.42199999944,
      "d": 1999.9997333333013,
      "v": 64
    },
    {
      "midi": 61,
      "hit": false,
      "t": 298461.4986666661,
      "d": 548.0768500000122,
      "v": 64
    },
    {
      "midi": 57,
      "hit": false,
      "t": 298846.1139999994,
      "d": 769.2306666666991,
      "v": 64
    },
    {
      "midi": 45,
      "hit": false,
      "t": 299615.3446666661,
      "d": 230.76919999998063,
      "v": 64
    },
    {
      "midi": 57,
      "hit": false,
      "t": 299999.95999999944,
      "d": 1269.2306000000099,
      "v": 64
    },
    {
      "midi": 61,
      "hit": false,
      "t": 301153.80599999946,
      "d": 2086.538183333294,
      "v": 64
    },
    {
      "midi": 64,
      "hit": false,
      "t": 301923.0366666661,
      "d": 1048.076783333323,
      "v": 64
    },
    {
      "midi": 57,
      "hit": false,
      "t": 303076.88266666606,
      "d": 211.53843333333498,
      "v": 64
    },
    {
      "midi": 57,
      "hit": false,
      "t": 303461.4979999994,
      "d": 817.3075833332841,
      "v": 64
    },
    {
      "midi": 61,
      "hit": false,
      "t": 304230.728666666,
      "d": 211.53843333333498,
      "v": 64
    },
    {
      "midi": 52,
      "hit": false,
      "t": 304615.34399999934,
      "d": 624.999916666653,
      "v": 64
    },
    {
      "midi": 55,
      "hit": false,
      "t": 304615.34399999934,
      "d": 942.3075666666264,
      "v": 64
    },
    {
      "midi": 57,
      "hit": false,
      "t": 304615.34399999934,
      "d": 980.7690999999759,
      "v": 64
    },
    {
      "midi": 61,
      "hit": false,
      "t": 304615.34399999934,
      "d": 1076.9229333333205,
      "v": 64
    },
    {
      "midi": 52,
      "hit": false,
      "t": 305384.574666666,
      "d": 3461.5380000000005,
      "v": 64
    },
    {
      "midi": 55,
      "hit": false,
      "t": 305769.1899999993,
      "d": 2067.3074166666484,
      "v": 64
    },
    {
      "midi": 57,
      "hit": false,
      "t": 306538.42066666594,
      "d": 1230.7690666666604,
      "v": 64
    },
    {
      "midi": 61,
      "hit": false,
      "t": 307692.26666666596,
      "d": 548.0768500000122,
      "v": 64
    },
    {
      "midi": 57,
      "hit": false,
      "t": 308076.8819999993,
      "d": 769.2306666666991,
      "v": 64
    },
    {
      "midi": 45,
      "hit": false,
      "t": 308846.112666666,
      "d": 230.76919999998063,
      "v": 64
    },
    {
      "midi": 57,
      "hit": false,
      "t": 309230.7279999993,
      "d": 2817.3073166666436,
      "v": 64
    },
    {
      "midi": 62,
      "hit": false,
      "t": 309230.7279999993,
      "d": 2817.3073166666436,
      "v": 64
    },
    {
      "midi": 66,
      "hit": false,
      "t": 309230.7279999993,
      "d": 2817.3073166666436,
      "v": 64
    },
    {
      "midi": 57,
      "hit": false,
      "t": 312307.6506666659,
      "d": 1076.9229333333205,
      "v": 64
    },
    {
      "midi": 62,
      "hit": false,
      "t": 312692.26599999925,
      "d": 769.2306666666409,
      "v": 64
    },
    {
      "midi": 66,
      "hit": false,
      "t": 313461.4966666659,
      "d": 336.5384166666772,
      "v": 64
    },
    {
      "midi": 60,
      "hit": false,
      "t": 313846.1119999992,
      "d": 2817.3073166666436,
      "v": 64
    },
    {
      "midi": 63,
      "hit": false,
      "t": 313846.1119999992,
      "d": 2817.3073166666436,
      "v": 64
    },
    {
      "midi": 66,
      "hit": false,
      "t": 313846.1119999992,
      "d": 2817.3073166666436,
      "v": 64
    },
    {
      "midi": 69,
      "hit": false,
      "t": 313846.1119999992,
      "d": 2817.3073166666436,
      "v": 64
    },
    {
      "midi": 51,
      "hit": false,
      "t": 316923.03466666583,
      "d": 1076.9229333333205,
      "v": 64
    },
    {
      "midi": 57,
      "hit": false,
      "t": 317307.64999999915,
      "d": 769.2306666666409,
      "v": 64
    },
    {
      "midi": 60,
      "hit": false,
      "t": 318076.8806666658,
      "d": 336.5384166666772,
      "v": 64
    },
    {
      "midi": 52,
      "hit": false,
      "t": 318461.4959999991,
      "d": 624.999916666653,
      "v": 64
    },
    {
      "midi": 57,
      "hit": false,
      "t": 318461.4959999991,
      "d": 942.3075666666264,
      "v": 64
    },
    {
      "midi": 61,
      "hit": false,
      "t": 318461.4959999991,
      "d": 1076.9229333333205,
      "v": 64
    },
    {
      "midi": 52,
      "hit": false,
      "t": 319230.72666666575,
      "d": 3461.5380000000005,
      "v": 64
    },
    {
      "midi": 57,
      "hit": false,
      "t": 319615.3419999991,
      "d": 1999.9997333333013,
      "v": 64
    },
    {
      "midi": 61,
      "hit": false,
      "t": 321538.41866666573,
      "d": 548.0768500000122,
      "v": 64
    },
    {
      "midi": 57,
      "hit": false,
      "t": 321923.03399999905,
      "d": 769.2306666666991,
      "v": 64
    },
    {
      "midi": 45,
      "hit": false,
      "t": 322692.26466666575,
      "d": 230.76919999998063,
      "v": 64
    },
    {
      "midi": 59,
      "hit": false,
      "t": 323076.8799999991,
      "d": 2817.3073166666436,
      "v": 64
    },
    {
      "midi": 62,
      "hit": false,
      "t": 323076.8799999991,
      "d": 2817.3073166666436,
      "v": 64
    },
    {
      "midi": 64,
      "hit": false,
      "t": 323076.8799999991,
      "d": 2817.3073166666436,
      "v": 64
    },
    {
      "midi": 68,
      "hit": false,
      "t": 323076.8799999991,
      "d": 2817.3073166666436,
      "v": 64
    },
    {
      "midi": 59,
      "hit": false,
      "t": 326153.8026666657,
      "d": 1076.9229333333205,
      "v": 64
    },
    {
      "midi": 64,
      "hit": false,
      "t": 326538.417999999,
      "d": 769.2306666666409,
      "v": 64
    },
    {
      "midi": 68,
      "hit": false,
      "t": 327307.64866666566,
      "d": 336.5384166666772,
      "v": 64
    },
    {
      "midi": 57,
      "hit": false,
      "t": 327692.263999999,
      "d": 624.999916666653,
      "v": 64
    },
    {
      "midi": 62,
      "hit": false,
      "t": 327692.263999999,
      "d": 942.3075666666264,
      "v": 64
    },
    {
      "midi": 66,
      "hit": false,
      "t": 327692.263999999,
      "d": 1076.9229333333205,
      "v": 64
    },
    {
      "midi": 57,
      "hit": false,
      "t": 328461.4946666656,
      "d": 3461.5380000000005,
      "v": 64
    },
    {
      "midi": 62,
      "hit": false,
      "t": 328846.10999999894,
      "d": 1999.9997333333013,
      "v": 64
    },
    {
      "midi": 66,
      "hit": false,
      "t": 330769.1866666656,
      "d": 548.0768500000122,
      "v": 64
    },
    {
      "midi": 62,
      "hit": false,
      "t": 331153.8019999989,
      "d": 769.2306666666991,
      "v": 64
    },
    {
      "midi": 50,
      "hit": false,
      "t": 331923.0326666656,
      "d": 230.76919999998063,
      "v": 64
    },
    {
      "midi": 57,
      "hit": false,
      "t": 332307.64799999894,
      "d": 4740.383983333304,
      "v": 64
    },
    {
      "midi": 61,
      "hit": false,
      "t": 332307.64799999894,
      "d": 4740.383983333304,
      "v": 64
    },
    {
      "midi": 64,
      "hit": false,
      "t": 332307.64799999894,
      "d": 4740.383983333304,
      "v": 64
    }
  ]
}