{
  "jsonPath": "Country/Arkansas Country/Johnny Cash/ring-of-fire.json",
  "path": "Country\\Arkansas Country\\Johnny Cash\\Ring Of Fire.mid",
  "name": "Ring Of Fire",
  "difficulty": "Advanced",
  "bpm": 227.8501201909384,
  "notes": [
    {
      "midi": 62,
      "hit": false,
      "t": 3524.24655,
      "d": 1055.5184249999993,
      "v": 95
    },
    {
      "midi": 43,
      "hit": false,
      "t": 3528.6353999999997,
      "d": 533.2452749999998,
      "v": 98
    },
    {
      "midi": 59,
      "hit": false,
      "t": 3528.6353999999997,
      "d": 858.0201750000001,
      "v": 98
    },
    {
      "midi": 55,
      "hit": false,
      "t": 3535.2186749999996,
      "d": 1011.6299249999997,
      "v": 100
    },
    {
      "midi": 55,
      "hit": false,
      "t": 4623.653474999999,
      "d": 471.801375,
      "v": 102
    },
    {
      "midi": 64,
      "hit": false,
      "t": 4623.653474999999,
      "d": 612.2445750000006,
      "v": 87
    },
    {
      "midi": 60,
      "hit": false,
      "t": 4625.847899999999,
      "d": 419.13517500000034,
      "v": 100
    },
    {
      "midi": 43,
      "hit": false,
      "t": 5200.787249999999,
      "d": 48.2773500000003,
      "v": 72
    },
    {
      "midi": 59,
      "hit": false,
      "t": 5488.256925,
      "d": 204.0815249999996,
      "v": 100
    },
    {
      "midi": 55,
      "hit": false,
      "t": 5488.256925,
      "d": 307.21949999999924,
      "v": 100
    },
    {
      "midi": 62,
      "hit": false,
      "t": 5488.256925,
      "d": 344.5247249999993,
      "v": 98
    },
    {
      "midi": 43,
      "hit": false,
      "t": 5797.670849999999,
      "d": 37.305225000000064,
      "v": 70
    },
    {
      "midi": 60,
      "hit": false,
      "t": 5927.141924999999,
      "d": 265.5254249999998,
      "v": 102
    },
    {
      "midi": 55,
      "hit": false,
      "t": 5927.141924999999,
      "d": 326.969325,
      "v": 102
    },
    {
      "midi": 64,
      "hit": false,
      "t": 5927.141924999999,
      "d": 414.74632500000007,
      "v": 98
    },
    {
      "midi": 62,
      "hit": false,
      "t": 6348.471524999999,
      "d": 1040.1574499999997,
      "v": 95
    },
    {
      "midi": 59,
      "hit": false,
      "t": 6352.860374999999,
      "d": 1044.5463,
      "v": 100
    },
    {
      "midi": 55,
      "hit": false,
      "t": 6355.054799999999,
      "d": 1037.963025,
      "v": 95
    },
    {
      "midi": 55,
      "hit": false,
      "t": 7504.933499999999,
      "d": 965.5470000000005,
      "v": 95
    },
    {
      "midi": 59,
      "hit": false,
      "t": 7504.933499999999,
      "d": 1022.6020500000013,
      "v": 100
    },
    {
      "midi": 62,
      "hit": false,
      "t": 7515.905624999999,
      "d": 961.1581500000011,
      "v": 102
    },
    {
      "midi": 57,
      "hit": false,
      "t": 8646.0345,
      "d": 588.1058999999987,
      "v": 98
    },
    {
      "midi": 54,
      "hit": false,
      "t": 8648.228925,
      "d": 445.46827499999927,
      "v": 98
    },
    {
      "midi": 62,
      "hit": false,
      "t": 8650.42335,
      "d": 506.9121749999995,
      "v": 93
    },
    {
      "midi": 55,
      "hit": false,
      "t": 9240.723675,
      "d": 59.24947500000053,
      "v": 88
    },
    {
      "midi": 62,
      "hit": false,
      "t": 9515.0268,
      "d": 357.6912749999992,
      "v": 95
    },
    {
      "midi": 55,
      "hit": false,
      "t": 9515.0268,
      "d": 370.85782499999914,
      "v": 91
    },
    {
      "midi": 59,
      "hit": false,
      "t": 9519.415649999999,
      "d": 373.05225000000064,
      "v": 93
    },
    {
      "midi": 62,
      "hit": false,
      "t": 9951.717375,
      "d": 342.3302999999996,
      "v": 89
    },
    {
      "midi": 55,
      "hit": false,
      "t": 9951.717375,
      "d": 355.49684999999954,
      "v": 89
    },
    {
      "midi": 59,
      "hit": false,
      "t": 9953.9118,
      "d": 359.8857000000007,
      "v": 85
    },
    {
      "midi": 55,
      "hit": false,
      "t": 10386.213525000001,
      "d": 1029.1853250000004,
      "v": 95
    },
    {
      "midi": 62,
      "hit": false,
      "t": 10386.213525000001,
      "d": 1057.7128500000017,
      "v": 95
    },
    {
      "midi": 59,
      "hit": false,
      "t": 10392.796800000002,
      "d": 1029.1853250000004,
      "v": 93
    },
    {
      "midi": 43,
      "hit": false,
      "t": 11566.814175000003,
      "d": 1011.6299249999993,
      "v": 82
    },
    {
      "midi": 67,
      "hit": false,
      "t": 11569.008600000003,
      "d": 1198.1560499999996,
      "v": 86
    },
    {
      "midi": 59,
      "hit": false,
      "t": 11569.008600000003,
      "d": 1220.1002999999982,
      "v": 99
    },
    {
      "midi": 62,
      "hit": false,
      "t": 11571.203025000003,
      "d": 1213.5170249999992,
      "v": 90
    },
    {
      "midi": 43,
      "hit": false,
      "t": 12701.331900000003,
      "d": 171.1651499999989,
      "v": 70
    },
    {
      "midi": 67,
      "hit": false,
      "t": 12865.913775,
      "d": 204.08152500000142,
      "v": 75
    },
    {
      "midi": 59,
      "hit": false,
      "t": 12872.497050000002,
      "d": 195.30382500000087,
      "v": 103
    },
    {
      "midi": 62,
      "hit": false,
      "t": 12876.885900000001,
      "d": 171.16515000000072,
      "v": 99
    },
    {
      "midi": 43,
      "hit": false,
      "t": 13012.940250000001,
      "d": 116.30452500000138,
      "v": 70
    },
    {
      "midi": 60,
      "hit": false,
      "t": 13302.604350000001,
      "d": 388.41322500000024,
      "v": 78
    },
    {
      "midi": 67,
      "hit": false,
      "t": 13304.798775000001,
      "d": 375.2466750000003,
      "v": 82
    },
    {
      "midi": 64,
      "hit": false,
      "t": 13309.187625,
      "d": 375.2466750000003,
      "v": 78
    },
    {
      "midi": 48,
      "hit": false,
      "t": 13317.965325000001,
      "d": 324.77490000000034,
      "v": 66
    },
    {
      "midi": 67,
      "hit": false,
      "t": 13890.71025,
      "d": 1090.6292250000024,
      "v": 82
    },
    {
      "midi": 59,
      "hit": false,
      "t": 13897.293525000001,
      "d": 1040.1574500000006,
      "v": 74
    },
    {
      "midi": 43,
      "hit": false,
      "t": 13901.682375,
      "d": 585.9114750000008,
      "v": 82
    },
    {
      "midi": 62,
      "hit": false,
      "t": 13908.265650000001,
      "d": 1062.101700000001,
      "v": 82
    },
    {
      "midi": 67,
      "hit": false,
      "t": 15040.588950000003,
      "d": 296.247374999999,
      "v": 70
    },
    {
      "midi": 60,
      "hit": false,
      "t": 15049.366650000004,
      "d": 283.0808249999991,
      "v": 78
    },
    {
      "midi": 48,
      "hit": false,
      "t": 15049.366650000004,
      "d": 500.3288999999986,
      "v": 65
    },
    {
      "midi": 64,
      "hit": false,
      "t": 15051.561075000003,
      "d": 263.33100000000013,
      "v": 90
    },
    {
      "midi": 43,
      "hit": false,
      "t": 15619.917150000003,
      "d": 228.22019999999975,
      "v": 82
    },
    {
      "midi": 62,
      "hit": false,
      "t": 15894.220275000003,
      "d": 70.22159999999894,
      "v": 74
    },
    {
      "midi": 55,
      "hit": false,
      "t": 15894.220275000003,
      "d": 72.41602499999863,
      "v": 70
    },
    {
      "midi": 59,
      "hit": false,
      "t": 15896.414700000003,
      "d": 65.83274999999958,
      "v": 74
    },
    {
      "midi": 43,
      "hit": false,
      "t": 15927.136650000002,
      "d": 94.36027499999909,
      "v": 66
    },
    {
      "midi": 55,
      "hit": false,
      "t": 16036.8579,
      "d": 147.02647499999875,
      "v": 78
    },
    {
      "midi": 62,
      "hit": false,
      "t": 16036.8579,
      "d": 157.998599999999,
      "v": 86
    },
    {
      "midi": 59,
      "hit": false,
      "t": 16041.24675,
      "d": 78.9992999999995,
      "v": 70
    },
    {
      "midi": 43,
      "hit": false,
      "t": 16164.134549999999,
      "d": 162.38745000000017,
      "v": 72
    },
    {
      "midi": 60,
      "hit": false,
      "t": 16322.13315,
      "d": 432.30172499999935,
      "v": 108
    },
    {
      "midi": 64,
      "hit": false,
      "t": 16322.13315,
      "d": 456.4403999999977,
      "v": 103
    },
    {
      "midi": 55,
      "hit": false,
      "t": 16322.13315,
      "d": 478.38464999999815,
      "v": 99
    },
    {
      "midi": 43,
      "hit": false,
      "t": 16473.548475,
      "d": 122.88780000000042,
      "v": 69
    },
    {
      "midi": 43,
      "hit": false,
      "t": 16750.046025,
      "d": 243.58117499999935,
      "v": 74
    },
    {
      "midi": 55,
      "hit": false,
      "t": 17046.2934,
      "d": 61.44390000000203,
      "v": 53
    },
    {
      "midi": 59,
      "hit": false,
      "t": 17050.682249999998,
      "d": 57.055050000002666,
      "v": 60
    },
    {
      "midi": 62,
      "hit": false,
      "t": 17052.876675,
      "d": 57.055050000002666,
      "v": 60
    },
    {
      "midi": 43,
      "hit": false,
      "t": 17059.45995,
      "d": 131.6655000000028,
      "v": 66
    },
    {
      "midi": 55,
      "hit": false,
      "t": 17195.514300000003,
      "d": 140.44320000000516,
      "v": 70
    },
    {
      "midi": 59,
      "hit": false,
      "t": 17197.708725000004,
      "d": 103.13797500000146,
      "v": 74
    },
    {
      "midi": 62,
      "hit": false,
      "t": 17199.903150000006,
      "d": 153.60975000000326,
      "v": 78
    },
    {
      "midi": 43,
      "hit": false,
      "t": 17329.374225000007,
      "d": 151.41532500000176,
      "v": 72
    },
    {
      "midi": 60,
      "hit": false,
      "t": 17489.567250000007,
      "d": 311.60835000000225,
      "v": 99
    },
    {
      "midi": 55,
      "hit": false,
      "t": 17489.567250000007,
      "d": 331.3581750000012,
      "v": 99
    },
    {
      "midi": 64,
      "hit": false,
      "t": 17493.956100000007,
      "d": 362.0801250000004,
      "v": 99
    },
    {
      "midi": 43,
      "hit": false,
      "t": 17634.39930000001,
      "d": 111.91567500000019,
      "v": 69
    },
    {
      "midi": 43,
      "hit": false,
      "t": 17906.50800000001,
      "d": 493.74562499999956,
      "v": 70
    },
    {
      "midi": 55,
      "hit": false,
      "t": 17915.285700000008,
      "d": 100.94354999999996,
      "v": 69
    },
    {
      "midi": 59,
      "hit": false,
      "t": 17924.063400000006,
      "d": 85.58257500000036,
      "v": 63
    },
    {
      "midi": 62,
      "hit": false,
      "t": 17924.063400000006,
      "d": 100.94354999999996,
      "v": 72
    },
    {
      "midi": 59,
      "hit": false,
      "t": 18198.366525000005,
      "d": 50.4717750000018,
      "v": 53
    },
    {
      "midi": 55,
      "hit": false,
      "t": 18198.366525000005,
      "d": 63.63832500000353,
      "v": 51
    },
    {
      "midi": 62,
      "hit": false,
      "t": 18198.366525000005,
      "d": 63.63832500000353,
      "v": 57
    },
    {
      "midi": 55,
      "hit": false,
      "t": 18358.55955000001,
      "d": 140.4431999999979,
      "v": 72
    },
    {
      "midi": 62,
      "hit": false,
      "t": 18362.94840000001,
      "d": 144.83204999999725,
      "v": 67
    },
    {
      "midi": 59,
      "hit": false,
      "t": 18365.14282500001,
      "d": 125.08222499999829,
      "v": 65
    },
    {
      "midi": 43,
      "hit": false,
      "t": 18520.947000000007,
      "d": 151.41532499999812,
      "v": 70
    },
    {
      "midi": 55,
      "hit": false,
      "t": 18659.195775000007,
      "d": 430.10729999999967,
      "v": 86
    },
    {
      "midi": 59,
      "hit": false,
      "t": 18663.584625000007,
      "d": 445.46827499999927,
      "v": 95
    },
    {
      "midi": 62,
      "hit": false,
      "t": 18663.584625000007,
      "d": 495.94005000000107,
      "v": 99
    },
    {
      "midi": 43,
      "hit": false,
      "t": 18799.638975000005,
      "d": 133.85992500000066,
      "v": 70
    },
    {
      "midi": 43,
      "hit": false,
      "t": 19067.358825000007,
      "d": 247.97002500000235,
      "v": 82
    },
    {
      "midi": 59,
      "hit": false,
      "t": 19343.85637500001,
      "d": 210.6648000000023,
      "v": 99
    },
    {
      "midi": 67,
      "hit": false,
      "t": 19343.85637500001,
      "d": 210.6648000000023,
      "v": 95
    },
    {
      "midi": 62,
      "hit": false,
      "t": 19346.05080000001,
      "d": 232.60904999999912,
      "v": 99
    },
    {
      "midi": 43,
      "hit": false,
      "t": 19365.80062500001,
      "d": 177.7484250000016,
      "v": 82
    },
    {
      "midi": 57,
      "hit": false,
      "t": 19629.131625000013,
      "d": 484.96792500000083,
      "v": 103
    },
    {
      "midi": 62,
      "hit": false,
      "t": 19635.714900000014,
      "d": 495.94005000000107,
      "v": 90
    },
    {
      "midi": 66,
      "hit": false,
      "t": 19635.714900000014,
      "d": 498.13447500000257,
      "v": 70
    },
    {
      "midi": 50,
      "hit": false,
      "t": 19646.687025000014,
      "d": 506.9121750000013,
      "v": 55
    },
    {
      "midi": 43,
      "hit": false,
      "t": 20193.098850000017,
      "d": 190.91497499999969,
      "v": 74
    },
    {
      "midi": 67,
      "hit": false,
      "t": 20465.207550000017,
      "d": 72.41602499999863,
      "v": 63
    },
    {
      "midi": 59,
      "hit": false,
      "t": 20467.40197500002,
      "d": 87.77699999999822,
      "v": 67
    },
    {
      "midi": 62,
      "hit": false,
      "t": 20476.179675000018,
      "d": 52.66619999999966,
      "v": 58
    },
    {
      "midi": 43,
      "hit": false,
      "t": 20548.595700000016,
      "d": 210.6648000000023,
      "v": 69
    },
    {
      "midi": 43,
      "hit": false,
      "t": 20831.676525000017,
      "d": 127.27664999999979,
      "v": 72
    },
    {
      "midi": 67,
      "hit": false,
      "t": 20928.231225000018,
      "d": 342.33030000000144,
      "v": 90
    },
    {
      "midi": 59,
      "hit": false,
      "t": 20937.008925000016,
      "d": 333.5526000000027,
      "v": 103
    },
    {
      "midi": 62,
      "hit": false,
      "t": 20937.008925000016,
      "d": 342.33030000000144,
      "v": 99
    },
    {
      "midi": 43,
      "hit": false,
      "t": 21081.840975000017,
      "d": 197.49825000000055,
      "v": 86
    },
    {
      "midi": 50,
      "hit": false,
      "t": 21347.366400000017,
      "d": 535.4397000000026,
      "v": 67
    },
    {
      "midi": 57,
      "hit": false,
      "t": 21351.755250000017,
      "d": 469.60695000000123,
      "v": 103
    },
    {
      "midi": 66,
      "hit": false,
      "t": 21353.949675000018,
      "d": 484.96792500000083,
      "v": 99
    },
    {
      "midi": 62,
      "hit": false,
      "t": 21356.14410000002,
      "d": 471.8013749999991,
      "v": 99
    },
    {
      "midi": 43,
      "hit": false,
      "t": 21922.30575000002,
      "d": 438.8849999999984,
      "v": 66
    },
    {
      "midi": 62,
      "hit": false,
      "t": 21955.222125000022,
      "d": 116.30452499999956,
      "v": 74
    },
    {
      "midi": 59,
      "hit": false,
      "t": 21955.222125000022,
      "d": 122.88780000000042,
      "v": 78
    },
    {
      "midi": 67,
      "hit": false,
      "t": 21957.416550000024,
      "d": 109.72124999999869,
      "v": 72
    },
    {
      "midi": 67,
      "hit": false,
      "t": 22225.13640000002,
      "d": 263.3309999999983,
      "v": 82
    },
    {
      "midi": 59,
      "hit": false,
      "t": 22229.52525000002,
      "d": 291.85852499999964,
      "v": 90
    },
    {
      "midi": 62,
      "hit": false,
      "t": 22229.52525000002,
      "d": 291.85852499999964,
      "v": 86
    },
    {
      "midi": 43,
      "hit": false,
      "t": 22499.43952500002,
      "d": 147.02647499999875,
      "v": 69
    },
    {
      "midi": 67,
      "hit": false,
      "t": 22670.604675000017,
      "d": 96.5547000000006,
      "v": 86
    },
    {
      "midi": 59,
      "hit": false,
      "t": 22672.79910000002,
      "d": 83.38814999999886,
      "v": 99
    },
    {
      "midi": 62,
      "hit": false,
      "t": 22677.187950000018,
      "d": 70.22160000000076,
      "v": 99
    },
    {
      "midi": 43,
      "hit": false,
      "t": 22791.298050000016,
      "d": 359.8856999999989,
      "v": 69
    },
    {
      "midi": 67,
      "hit": false,
      "t": 23109.489675000015,
      "d": 807.5484000000033,
      "v": 82
    },
    {
      "midi": 59,
      "hit": false,
      "t": 23113.878525000015,
      "d": 728.5491000000038,
      "v": 86
    },
    {
      "midi": 62,
      "hit": false,
      "t": 23120.461800000016,
      "d": 787.7985750000043,
      "v": 82
    },
    {
      "midi": 38,
      "hit": false,
      "t": 23370.626250000016,
      "d": 272.1087000000007,
      "v": 97
    },
    {
      "midi": 50,
      "hit": false,
      "t": 23372.820675000017,
      "d": 285.2752499999988,
      "v": 95
    },
    {
      "midi": 40,
      "hit": false,
      "t": 23660.290350000017,
      "d": 274.3031250000022,
      "v": 95
    },
    {
      "midi": 52,
      "hit": false,
      "t": 23662.48477500002,
      "d": 269.9142749999992,
      "v": 86
    },
    {
      "midi": 54,
      "hit": false,
      "t": 23943.37117500002,
      "d": 239.19232499999998,
      "v": 90
    },
    {
      "midi": 42,
      "hit": false,
      "t": 23943.37117500002,
      "d": 261.13657500000045,
      "v": 70
    },
    {
      "midi": 43,
      "hit": false,
      "t": 24228.646425000017,
      "d": 906.2975249999981,
      "v": 94
    },
    {
      "midi": 71,
      "hit": false,
      "t": 24228.646425000017,
      "d": 1189.378349999999,
      "v": 86
    },
    {
      "midi": 62,
      "hit": false,
      "t": 24228.646425000017,
      "d": 1206.9337500000001,
      "v": 90
    },
    {
      "midi": 67,
      "hit": false,
      "t": 24228.646425000017,
      "d": 1213.517025000001,
      "v": 83
    },
    {
      "midi": 43,
      "hit": false,
      "t": 25380.719550000016,
      "d": 138.24877500000366,
      "v": 67
    },
    {
      "midi": 67,
      "hit": false,
      "t": 25556.27355000002,
      "d": 234.80347500000062,
      "v": 94
    },
    {
      "midi": 71,
      "hit": false,
      "t": 25556.27355000002,
      "d": 348.9135750000023,
      "v": 101
    },
    {
      "midi": 62,
      "hit": false,
      "t": 25558.46797500002,
      "d": 315.9972000000016,
      "v": 104
    },
    {
      "midi": 43,
      "hit": false,
      "t": 25663.80037500002,
      "d": 140.44320000000153,
      "v": 70
    },
    {
      "midi": 48,
      "hit": false,
      "t": 25988.575275000025,
      "d": 298.4418000000005,
      "v": 80
    },
    {
      "midi": 64,
      "hit": false,
      "t": 25988.575275000025,
      "d": 333.5525999999991,
      "v": 94
    },
    {
      "midi": 72,
      "hit": false,
      "t": 25988.575275000025,
      "d": 399.38535000000047,
      "v": 83
    },
    {
      "midi": 67,
      "hit": false,
      "t": 25990.769700000026,
      "d": 419.13517499999944,
      "v": 90
    },
    {
      "midi": 43,
      "hit": false,
      "t": 26581.070025000026,
      "d": 188.72055000000182,
      "v": 73
    },
    {
      "midi": 43,
      "hit": false,
      "t": 26910.23377500003,
      "d": 57.05504999999903,
      "v": 75
    },
    {
      "midi": 62,
      "hit": false,
      "t": 26993.62192500003,
      "d": 182.13727499999732,
      "v": 82
    },
    {
      "midi": 67,
      "hit": false,
      "t": 26998.010775000028,
      "d": 173.35957499999859,
      "v": 80
    },
    {
      "midi": 71,
      "hit": false,
      "t": 27002.399625000027,
      "d": 164.58187499999985,
      "v": 83
    },
    {
      "midi": 43,
      "hit": false,
      "t": 27158.20380000003,
      "d": 155.80417499999749,
      "v": 77
    },
    {
      "midi": 62,
      "hit": false,
      "t": 27311.813550000024,
      "d": 315.9972000000016,
      "v": 108
    },
    {
      "midi": 67,
      "hit": false,
      "t": 27316.202400000027,
      "d": 184.33169999999882,
      "v": 101
    },
    {
      "midi": 71,
      "hit": false,
      "t": 27316.202400000027,
      "d": 340.1358749999963,
      "v": 108
    },
    {
      "midi": 43,
      "hit": false,
      "t": 27447.867900000027,
      "d": 204.08152499999778,
      "v": 70
    },
    {
      "midi": 48,
      "hit": false,
      "t": 27726.559875000024,
      "d": 517.8843000000015,
      "v": 70
    },
    {
      "midi": 67,
      "hit": false,
      "t": 27733.143150000025,
      "d": 484.96792500000083,
      "v": 83
    },
    {
      "midi": 64,
      "hit": false,
      "t": 27735.337575000027,
      "d": 445.46827499999927,
      "v": 90
    },
    {
      "midi": 72,
      "hit": false,
      "t": 27737.53200000003,
      "d": 438.8849999999984,
      "v": 77
    },
    {
      "midi": 43,
      "hit": false,
      "t": 28316.860200000025,
      "d": 204.08152500000142,
      "v": 77
    },
    {
      "midi": 67,
      "hit": false,
      "t": 28588.968900000025,
      "d": 46.08292500000243,
      "v": 70
    },
    {
      "midi": 62,
      "hit": false,
      "t": 28588.968900000025,
      "d": 61.44390000000203,
      "v": 67
    },
    {
      "midi": 71,
      "hit": false,
      "t": 28591.163325000027,
      "d": 52.66619999999966,
      "v": 68
    },
    {
      "midi": 43,
      "hit": false,
      "t": 28606.524300000026,
      "d": 94.36027500000273,
      "v": 64
    },
    {
      "midi": 62,
      "hit": false,
      "t": 28716.24555000003,
      "d": 162.38744999999835,
      "v": 83
    },
    {
      "midi": 71,
      "hit": false,
      "t": 28727.21767500003,
      "d": 166.77629999999772,
      "v": 80
    },
    {
      "midi": 67,
      "hit": false,
      "t": 28731.60652500003,
      "d": 138.24877500000002,
      "v": 70
    },
    {
      "midi": 43,
      "hit": false,
      "t": 28869.85530000003,
      "d": 144.83204999999725,
      "v": 80
    },
    {
      "midi": 68,
      "hit": false,
      "t": 29032.242750000027,
      "d": 50.4717750000018,
      "v": 83
    },
    {
      "midi": 64,
      "hit": false,
      "t": 29032.242750000027,
      "d": 340.1358750000036,
      "v": 94
    },
    {
      "midi": 69,
      "hit": false,
      "t": 29032.242750000027,
      "d": 370.8578250000028,
      "v": 108
    },
    {
      "midi": 72,
      "hit": false,
      "t": 29034.43717500003,
      "d": 375.24667500000214,
      "v": 104
    },
    {
      "midi": 43,
      "hit": false,
      "t": 29201.21347500003,
      "d": 74.61045000000013,
      "v": 66
    },
    {
      "midi": 43,
      "hit": false,
      "t": 29451.37792500003,
      "d": 76.80487500000163,
      "v": 63
    },
    {
      "midi": 62,
      "hit": false,
      "t": 29455.76677500003,
      "d": 94.36027500000273,
      "v": 74
    },
    {
      "midi": 67,
      "hit": false,
      "t": 29499.65527500003,
      "d": 41.69407500000307,
      "v": 53
    },
    {
      "midi": 43,
      "hit": false,
      "t": 29701.542375000034,
      "d": 96.55470000000423,
      "v": 70
    },
    {
      "midi": 67,
      "hit": false,
      "t": 29734.458750000034,
      "d": 46.08292500000243,
      "v": 64
    },
    {
      "midi": 62,
      "hit": false,
      "t": 29734.458750000034,
      "d": 63.63832500000353,
      "v": 67
    },
    {
      "midi": 71,
      "hit": false,
      "t": 29741.042025000035,
      "d": 57.055050000002666,
      "v": 59
    },
    {
      "midi": 62,
      "hit": false,
      "t": 29857.34655000004,
      "d": 149.22089999999662,
      "v": 83
    },
    {
      "midi": 71,
      "hit": false,
      "t": 29857.34655000004,
      "d": 162.38744999999835,
      "v": 72
    },
    {
      "midi": 67,
      "hit": false,
      "t": 29866.124250000037,
      "d": 133.85992499999702,
      "v": 80
    },
    {
      "midi": 43,
      "hit": false,
      "t": 29975.845500000036,
      "d": 182.13727500000095,
      "v": 80
    },
    {
      "midi": 68,
      "hit": false,
      "t": 30157.982775000037,
      "d": 63.63832500000353,
      "v": 108
    },
    {
      "midi": 64,
      "hit": false,
      "t": 30164.566050000038,
      "d": 335.7470250000006,
      "v": 94
    },
    {
      "midi": 72,
      "hit": false,
      "t": 30168.954900000037,
      "d": 370.8578250000028,
      "v": 97
    },
    {
      "midi": 69,
      "hit": false,
      "t": 30171.14932500004,
      "d": 366.4689749999998,
      "v": 108
    },
    {
      "midi": 43,
      "hit": false,
      "t": 30322.56465000004,
      "d": 98.74912499999846,
      "v": 74
    },
    {
      "midi": 62,
      "hit": false,
      "t": 30579.31237500004,
      "d": 232.60905000000275,
      "v": 97
    },
    {
      "midi": 71,
      "hit": false,
      "t": 30581.506800000043,
      "d": 362.0801250000004,
      "v": 80
    },
    {
      "midi": 43,
      "hit": false,
      "t": 30590.28450000004,
      "d": 1237.6556999999993,
      "v": 80
    },
    {
      "midi": 67,
      "hit": false,
      "t": 30592.478925000043,
      "d": 276.49755000000005,
      "v": 74
    },
    {
      "midi": 62,
      "hit": false,
      "t": 30886.531875000044,
      "d": 157.998599999999,
      "v": 74
    },
    {
      "midi": 67,
      "hit": false,
      "t": 31073.058000000045,
      "d": 61.44389999999839,
      "v": 52
    },
    {
      "midi": 55,
      "hit": false,
      "t": 31130.113050000044,
      "d": 105.33239999999932,
      "v": 65
    },
    {
      "midi": 71,
      "hit": false,
      "t": 31305.667050000044,
      "d": 68.02717499999926,
      "v": 83
    },
    {
      "midi": 67,
      "hit": false,
      "t": 31312.250325000045,
      "d": 46.082924999998795,
      "v": 70
    },
    {
      "midi": 62,
      "hit": false,
      "t": 31316.639175000044,
      "d": 103.13797499999782,
      "v": 80
    },
    {
      "midi": 55,
      "hit": false,
      "t": 31448.304675000043,
      "d": 362.08012499999677,
      "v": 58
    },
    {
      "midi": 57,
      "hit": false,
      "t": 31722.60780000004,
      "d": 302.8306499999999,
      "v": 94
    },
    {
      "midi": 66,
      "hit": false,
      "t": 31726.99665000004,
      "d": 254.55329999999958,
      "v": 77
    },
    {
      "midi": 50,
      "hit": false,
      "t": 31731.38550000004,
      "d": 287.4696750000003,
      "v": 103
    },
    {
      "midi": 62,
      "hit": false,
      "t": 31735.77435000004,
      "d": 215.05365000000165,
      "v": 94
    },
    {
      "midi": 62,
      "hit": false,
      "t": 32304.130425000043,
      "d": 197.49824999999691,
      "v": 61
    },
    {
      "midi": 55,
      "hit": false,
      "t": 32310.713700000044,
      "d": 166.77629999999772,
      "v": 55
    },
    {
      "midi": 59,
      "hit": false,
      "t": 32319.491400000043,
      "d": 221.63692499999888,
      "v": 69
    },
    {
      "midi": 43,
      "hit": false,
      "t": 32341.435650000043,
      "d": 283.0808249999973,
      "v": 52
    },
    {
      "midi": 64,
      "hit": false,
      "t": 32598.18337500004,
      "d": 193.10939999999755,
      "v": 94
    },
    {
      "midi": 55,
      "hit": false,
      "t": 32600.377800000042,
      "d": 219.44249999999374,
      "v": 94
    },
    {
      "midi": 60,
      "hit": false,
      "t": 32609.15550000004,
      "d": 232.60904999999548,
      "v": 94
    },
    {
      "midi": 62,
      "hit": false,
      "t": 32896.62517500004,
      "d": 188.72055000000546,
      "v": 62
    },
    {
      "midi": 55,
      "hit": false,
      "t": 32905.402875000036,
      "d": 166.776300000005,
      "v": 55
    },
    {
      "midi": 59,
      "hit": false,
      "t": 32914.180575000035,
      "d": 206.2759500000102,
      "v": 65
    },
    {
      "midi": 43,
      "hit": false,
      "t": 32927.34712500004,
      "d": 46.08292500000243,
      "v": 25
    },
    {
      "midi": 64,
      "hit": false,
      "t": 33159.95617500004,
      "d": 217.24807500000315,
      "v": 98
    },
    {
      "midi": 55,
      "hit": false,
      "t": 33162.150600000045,
      "d": 239.19232500000362,
      "v": 90
    },
    {
      "midi": 60,
      "hit": false,
      "t": 33164.345025000046,
      "d": 261.1365750000041,
      "v": 103
    },
    {
      "midi": 62,
      "hit": false,
      "t": 33475.95337500005,
      "d": 199.69267499999842,
      "v": 61
    },
    {
      "midi": 55,
      "hit": false,
      "t": 33497.89762500005,
      "d": 140.44320000000153,
      "v": 49
    },
    {
      "midi": 59,
      "hit": false,
      "t": 33500.09205000005,
      "d": 206.27594999999565,
      "v": 64
    },
    {
      "midi": 64,
      "hit": false,
      "t": 33745.867650000044,
      "d": 201.88709999999992,
      "v": 94
    },
    {
      "midi": 55,
      "hit": false,
      "t": 33750.25650000005,
      "d": 219.44249999999738,
      "v": 98
    },
    {
      "midi": 60,
      "hit": false,
      "t": 33750.25650000005,
      "d": 219.44249999999738,
      "v": 103
    },
    {
      "midi": 47,
      "hit": false,
      "t": 34026.75405000005,
      "d": 276.4975500000073,
      "v": 107
    },
    {
      "midi": 59,
      "hit": false,
      "t": 34042.11502500005,
      "d": 226.0257750000019,
      "v": 112
    },
    {
      "midi": 48,
      "hit": false,
      "t": 34305.446025000056,
      "d": 243.58117499999935,
      "v": 107
    },
    {
      "midi": 60,
      "hit": false,
      "t": 34318.61257500006,
      "d": 245.77560000000085,
      "v": 98
    },
    {
      "midi": 50,
      "hit": false,
      "t": 34638.99862500006,
      "d": 425.7184500000003,
      "v": 84
    },
    {
      "midi": 62,
      "hit": false,
      "t": 34915.49617500006,
      "d": 221.63692499999888,
      "v": 103
    },
    {
      "midi": 66,
      "hit": false,
      "t": 34915.49617500006,
      "d": 232.60904999999912,
      "v": 102
    },
    {
      "midi": 57,
      "hit": false,
      "t": 34917.69060000006,
      "d": 212.85922500000015,
      "v": 114
    },
    {
      "midi": 45,
      "hit": false,
      "t": 35198.577000000056,
      "d": 465.2181000000055,
      "v": 80
    },
    {
      "midi": 66,
      "hit": false,
      "t": 35479.46340000006,
      "d": 199.6926750000057,
      "v": 92
    },
    {
      "midi": 57,
      "hit": false,
      "t": 35481.65782500006,
      "d": 184.33170000000246,
      "v": 97
    },
    {
      "midi": 62,
      "hit": false,
      "t": 35483.85225000006,
      "d": 166.77629999999772,
      "v": 105
    },
    {
      "midi": 50,
      "hit": false,
      "t": 35782.29405000006,
      "d": 669.2996250000142,
      "v": 80
    },
    {
      "midi": 62,
      "hit": false,
      "t": 36052.208325000065,
      "d": 274.3031250000058,
      "v": 105
    },
    {
      "midi": 66,
      "hit": false,
      "t": 36052.208325000065,
      "d": 289.66410000000906,
      "v": 92
    },
    {
      "midi": 57,
      "hit": false,
      "t": 36056.59717500007,
      "d": 296.2473750000063,
      "v": 114
    },
    {
      "midi": 45,
      "hit": false,
      "t": 36313.34490000007,
      "d": 228.22020000001066,
      "v": 69
    },
    {
      "midi": 57,
      "hit": false,
      "t": 36609.59227500008,
      "d": 100.9435500000036,
      "v": 105
    },
    {
      "midi": 66,
      "hit": false,
      "t": 36609.59227500008,
      "d": 173.35957500000222,
      "v": 97
    },
    {
      "midi": 62,
      "hit": false,
      "t": 36613.981125000086,
      "d": 125.08222499999829,
      "v": 110
    },
    {
      "midi": 60,
      "hit": false,
      "t": 36929.978325000084,
      "d": 256.7477250000011,
      "v": 76
    },
    {
      "midi": 48,
      "hit": false,
      "t": 36932.172750000085,
      "d": 245.77560000000085,
      "v": 74
    },
    {
      "midi": 57,
      "hit": false,
      "t": 37191.11490000009,
      "d": 250.16444999999658,
      "v": 105
    },
    {
      "midi": 69,
      "hit": false,
      "t": 37191.11490000009,
      "d": 272.10869999999704,
      "v": 103
    },
    {
      "midi": 55,
      "hit": false,
      "t": 37482.973425000084,
      "d": 289.6640999999945,
      "v": 95
    },
    {
      "midi": 67,
      "hit": false,
      "t": 37489.55670000008,
      "d": 368.6634000000049,
      "v": 84
    },
    {
      "midi": 52,
      "hit": false,
      "t": 37794.58177500008,
      "d": 59.24947500000417,
      "v": 91
    },
    {
      "midi": 64,
      "hit": false,
      "t": 37803.35947500008,
      "d": 89.97142500001064,
      "v": 84
    },
    {
      "midi": 43,
      "hit": false,
      "t": 38099.60685000009,
      "d": 901.9086750000133,
      "v": 71
    },
    {
      "midi": 62,
      "hit": false,
      "t": 38371.71555000009,
      "d": 254.55330000000686,
      "v": 101
    },
    {
      "midi": 55,
      "hit": false,
      "t": 38382.68767500009,
      "d": 164.5818750000035,
      "v": 110
    },
    {
      "midi": 59,
      "hit": false,
      "t": 38384.88210000009,
      "d": 315.99720000000525,
      "v": 114
    },
    {
      "midi": 55,
      "hit": false,
      "t": 38672.3517750001,
      "d": 201.88709999999992,
      "v": 67
    },
    {
      "midi": 64,
      "hit": false,
      "t": 38678.935050000095,
      "d": 186.52612500000396,
      "v": 72
    },
    {
      "midi": 60,
      "hit": false,
      "t": 38689.907175000095,
      "d": 206.27595000000292,
      "v": 69
    },
    {
      "midi": 62,
      "hit": false,
      "t": 38929.0995000001,
      "d": 236.9979000000094,
      "v": 92
    },
    {
      "midi": 59,
      "hit": false,
      "t": 38931.2939250001,
      "d": 210.66480000000593,
      "v": 101
    },
    {
      "midi": 55,
      "hit": false,
      "t": 38933.4883500001,
      "d": 193.1094000000012,
      "v": 105
    },
    {
      "midi": 50,
      "hit": false,
      "t": 39240.70785000011,
      "d": 364.2745500000019,
      "v": 77
    },
    {
      "midi": 60,
      "hit": false,
      "t": 39536.95522500011,
      "d": 243.58117500000662,
      "v": 96
    },
    {
      "midi": 66,
      "hit": false,
      "t": 39539.14965000011,
      "d": 250.16445000000385,
      "v": 92
    },
    {
      "midi": 57,
      "hit": false,
      "t": 39541.34407500011,
      "d": 236.99790000000212,
      "v": 97
    },
    {
      "midi": 45,
      "hit": false,
      "t": 39826.61932500011,
      "d": 386.2188000000024,
      "v": 68
    },
    {
      "midi": 60,
      "hit": false,
      "t": 40107.50572500011,
      "d": 228.2202000000034,
      "v": 114
    },
    {
      "midi": 57,
      "hit": false,
      "t": 40109.70015000011,
      "d": 221.63692499999888,
      "v": 105
    },
    {
      "midi": 66,
      "hit": false,
      "t": 40109.70015000011,
      "d": 228.2202000000034,
      "v": 110
    },
    {
      "midi": 50,
      "hit": false,
      "t": 40403.75310000012,
      "d": 607.8557250000013,
      "v": 72
    },
    {
      "midi": 66,
      "hit": false,
      "t": 40691.22277500012,
      "d": 199.6926750000057,
      "v": 84
    },
    {
      "midi": 57,
      "hit": false,
      "t": 40695.61162500012,
      "d": 162.387450000002,
      "v": 105
    },
    {
      "midi": 60,
      "hit": false,
      "t": 40695.61162500012,
      "d": 164.5818750000035,
      "v": 101
    },
    {
      "midi": 45,
      "hit": false,
      "t": 40972.10917500012,
      "d": 333.55259999999544,
      "v": 68
    },
    {
      "midi": 66,
      "hit": false,
      "t": 41244.21787500012,
      "d": 254.55329999999958,
      "v": 110
    },
    {
      "midi": 69,
      "hit": false,
      "t": 41246.41230000012,
      "d": 228.2201999999961,
      "v": 105
    },
    {
      "midi": 60,
      "hit": false,
      "t": 41246.41230000012,
      "d": 252.35887499999808,
      "v": 114
    },
    {
      "midi": 48,
      "hit": false,
      "t": 41538.270825000116,
      "d": 359.8856999999989,
      "v": 80
    },
    {
      "midi": 67,
      "hit": false,
      "t": 41825.740500000116,
      "d": 287.4696750000003,
      "v": 105
    },
    {
      "midi": 64,
      "hit": false,
      "t": 41825.740500000116,
      "d": 289.6641000000018,
      "v": 101
    },
    {
      "midi": 60,
      "hit": false,
      "t": 41827.93492500012,
      "d": 283.0808249999973,
      "v": 114
    },
    {
      "midi": 48,
      "hit": false,
      "t": 42100.043625000115,
      "d": 96.5547000000006,
      "v": 72
    },
    {
      "midi": 67,
      "hit": false,
      "t": 42238.292400000115,
      "d": 263.3310000000056,
      "v": 97
    },
    {
      "midi": 60,
      "hit": false,
      "t": 42242.68125000012,
      "d": 272.1087000000043,
      "v": 105
    },
    {
      "midi": 64,
      "hit": false,
      "t": 42244.87567500012,
      "d": 331.3581750000012,
      "v": 105
    },
    {
      "midi": 48,
      "hit": false,
      "t": 42409.45755000012,
      "d": 208.47037499999715,
      "v": 59
    },
    {
      "midi": 43,
      "hit": false,
      "t": 42690.34395000012,
      "d": 893.1309749999928,
      "v": 74
    },
    {
      "midi": 62,
      "hit": false,
      "t": 42971.23035000012,
      "d": 215.05365000000165,
      "v": 80
    },
    {
      "midi": 55,
      "hit": false,
      "t": 42977.81362500012,
      "d": 195.3038250000027,
      "v": 76
    },
    {
      "midi": 59,
      "hit": false,
      "t": 42982.20247500012,
      "d": 241.38674999999785,
      "v": 76
    },
    {
      "midi": 55,
      "hit": false,
      "t": 43267.47772500012,
      "d": 221.63692499999888,
      "v": 101
    },
    {
      "midi": 60,
      "hit": false,
      "t": 43267.47772500012,
      "d": 269.91427499999554,
      "v": 107
    },
    {
      "midi": 64,
      "hit": false,
      "t": 43269.67215000012,
      "d": 228.2201999999961,
      "v": 95
    },
    {
      "midi": 55,
      "hit": false,
      "t": 43554.947400000114,
      "d": 186.52612499999668,
      "v": 65
    },
    {
      "midi": 59,
      "hit": false,
      "t": 43554.947400000114,
      "d": 188.72054999999818,
      "v": 84
    },
    {
      "midi": 62,
      "hit": false,
      "t": 43561.53067500011,
      "d": 204.08152500000142,
      "v": 74
    },
    {
      "midi": 43,
      "hit": false,
      "t": 43884.11115000011,
      "d": 337.94144999999844,
      "v": 64
    },
    {
      "midi": 67,
      "hit": false,
      "t": 44138.66445000011,
      "d": 219.44250000000466,
      "v": 88
    },
    {
      "midi": 62,
      "hit": false,
      "t": 44140.858875000114,
      "d": 210.66479999999865,
      "v": 97
    },
    {
      "midi": 59,
      "hit": false,
      "t": 44140.858875000114,
      "d": 215.05365000000165,
      "v": 97
    },
    {
      "midi": 38,
      "hit": false,
      "t": 44415.16200000012,
      "d": 408.16305000000284,
      "v": 64
    },
    {
      "midi": 67,
      "hit": false,
      "t": 44707.02052500012,
      "d": 212.85922500000015,
      "v": 88
    },
    {
      "midi": 62,
      "hit": false,
      "t": 44707.02052500012,
      "d": 217.24807500000315,
      "v": 93
    },
    {
      "midi": 59,
      "hit": false,
      "t": 44709.214950000125,
      "d": 217.24807500000315,
      "v": 84
    },
    {
      "midi": 43,
      "hit": false,
      "t": 45018.628875000126,
      "d": 465.21809999999823,
      "v": 67
    },
    {
      "midi": 59,
      "hit": false,
      "t": 45292.932000000124,
      "d": 226.0257750000019,
      "v": 84
    },
    {
      "midi": 67,
      "hit": false,
      "t": 45292.932000000124,
      "d": 226.0257750000019,
      "v": 80
    },
    {
      "midi": 62,
      "hit": false,
      "t": 45295.126425000126,
      "d": 230.4146249999976,
      "v": 88
    },
    {
      "midi": 38,
      "hit": false,
      "t": 45589.17937500012,
      "d": 140.44320000000153,
      "v": 70
    },
    {
      "midi": 67,
      "hit": false,
      "t": 45701.09505000012,
      "d": 452.0515500000038,
      "v": 93
    },
    {
      "midi": 59,
      "hit": false,
      "t": 45705.48390000012,
      "d": 436.69057500000054,
      "v": 101
    },
    {
      "midi": 62,
      "hit": false,
      "t": 45707.678325000124,
      "d": 465.21809999999823,
      "v": 101
    },
    {
      "midi": 43,
      "hit": false,
      "t": 46170.70200000012,
      "d": 331.3581750000085,
      "v": 70
    },
    {
      "midi": 62,
      "hit": false,
      "t": 46449.39397500012,
      "d": 267.7198500000013,
      "v": 88
    },
    {
      "midi": 67,
      "hit": false,
      "t": 46453.782825000126,
      "d": 223.83135000000038,
      "v": 80
    },
    {
      "midi": 59,
      "hit": false,
      "t": 46455.97725000013,
      "d": 254.55329999999958,
      "v": 84
    },
    {
      "midi": 38,
      "hit": false,
      "t": 46736.86365000012,
      "d": 348.91357500000595,
      "v": 97
    },
    {
      "midi": 66,
      "hit": false,
      "t": 47022.13890000012,
      "d": 219.44250000000466,
      "v": 93
    },
    {
      "midi": 57,
      "hit": false,
      "t": 47026.527750000125,
      "d": 199.69267499999842,
      "v": 97
    },
    {
      "midi": 62,
      "hit": false,
      "t": 47030.91660000013,
      "d": 188.72054999999818,
      "v": 97
    },
    {
      "midi": 43,
      "hit": false,
      "t": 47289.85875000012,
      "d": 359.8857000000062,
      "v": 70
    },
    {
      "midi": 62,
      "hit": false,
      "t": 47599.272675000124,
      "d": 221.63692500000616,
      "v": 101
    },
    {
      "midi": 59,
      "hit": false,
      "t": 47601.467100000125,
      "d": 206.27595000000292,
      "v": 93
    },
    {
      "midi": 67,
      "hit": false,
      "t": 47603.66152500013,
      "d": 204.08152500000142,
      "v": 97
    },
    {
      "midi": 38,
      "hit": false,
      "t": 47866.99252500013,
      "d": 405.96862499999406,
      "v": 72
    },
    {
      "midi": 67,
      "hit": false,
      "t": 48172.01760000013,
      "d": 241.38674999999785,
      "v": 84
    },
    {
      "midi": 62,
      "hit": false,
      "t": 48178.60087500013,
      "d": 226.0257750000019,
      "v": 97
    },
    {
      "midi": 59,
      "hit": false,
      "t": 48180.79530000013,
      "d": 221.63692499999888,
      "v": 93
    },
    {
      "midi": 43,
      "hit": false,
      "t": 48481.43152500013,
      "d": 324.774900000004,
      "v": 64
    },
    {
      "midi": 67,
      "hit": false,
      "t": 48749.15137500013,
      "d": 221.63692500000616,
      "v": 84
    },
    {
      "midi": 62,
      "hit": false,
      "t": 48751.345800000134,
      "d": 252.35887500000536,
      "v": 101
    },
    {
      "midi": 59,
      "hit": false,
      "t": 48753.540225000135,
      "d": 226.0257750000019,
      "v": 97
    },
    {
      "midi": 38,
      "hit": false,
      "t": 49051.982025000136,
      "d": 326.9693250000055,
      "v": 84
    },
    {
      "midi": 57,
      "hit": false,
      "t": 49341.64612500014,
      "d": 217.24807500000315,
      "v": 97
    },
    {
      "midi": 62,
      "hit": false,
      "t": 49343.84055000014,
      "d": 212.85922500000015,
      "v": 97
    },
    {
      "midi": 66,
      "hit": false,
      "t": 49343.84055000014,
      "d": 236.99790000000212,
      "v": 106
    },
    {
      "midi": 43,
      "hit": false,
      "t": 49600.58827500014,
      "d": 331.3581750000012,
      "v": 80
    },
    {
      "midi": 59,
      "hit": false,
      "t": 49907.80777500014,
      "d": 232.6090500000064,
      "v": 84
    },
    {
      "midi": 62,
      "hit": false,
      "t": 49907.80777500014,
      "d": 232.6090500000064,
      "v": 88
    },
    {
      "midi": 67,
      "hit": false,
      "t": 49910.00220000014,
      "d": 228.2202000000034,
      "v": 72
    },
    {
      "midi": 38,
      "hit": false,
      "t": 50177.72205000014,
      "d": 542.0229749999999,
      "v": 68
    },
    {
      "midi": 67,
      "hit": false,
      "t": 50495.91367500014,
      "d": 254.55329999999958,
      "v": 84
    },
    {
      "midi": 59,
      "hit": false,
      "t": 50500.302525000145,
      "d": 243.58117499999935,
      "v": 84
    },
    {
      "midi": 62,
      "hit": false,
      "t": 50500.302525000145,
      "d": 256.7477249999938,
      "v": 88
    },
    {
      "midi": 43,
      "hit": false,
      "t": 50792.16105000014,
      "d": 236.99790000000212,
      "v": 68
    },
    {
      "midi": 62,
      "hit": false,
      "t": 51062.07532500014,
      "d": 302.83064999999624,
      "v": 101
    },
    {
      "midi": 38,
      "hit": false,
      "t": 51068.65860000014,
      "d": 197.49824999999691,
      "v": 80
    },
    {
      "midi": 40,
      "hit": false,
      "t": 51318.82305000014,
      "d": 283.08082500000455,
      "v": 70
    },
    {
      "midi": 64,
      "hit": false,
      "t": 51345.15615000014,
      "d": 243.58117499999935,
      "v": 88
    },
    {
      "midi": 42,
      "hit": false,
      "t": 51597.51502500014,
      "d": 184.33170000000246,
      "v": 80
    },
    {
      "midi": 66,
      "hit": false,
      "t": 51604.09830000014,
      "d": 199.69267499999842,
      "v": 70
    },
    {
      "midi": 62,
      "hit": false,
      "t": 51988.122675000144,
      "d": 1055.518425000002,
      "v": 95
    },
    {
      "midi": 43,
      "hit": false,
      "t": 51990.317100000146,
      "d": 533.2452750000011,
      "v": 98
    },
    {
      "midi": 59,
      "hit": false,
      "t": 51992.51152500015,
      "d": 855.8257499999963,
      "v": 98
    },
    {
      "midi": 55,
      "hit": false,
      "t": 51996.90037500015,
      "d": 1013.8243499999953,
      "v": 100
    },
    {
      "midi": 55,
      "hit": false,
      "t": 53085.335175000146,
      "d": 471.80137500000274,
      "v": 102
    },
    {
      "midi": 64,
      "hit": false,
      "t": 53085.335175000146,
      "d": 612.2445750000043,
      "v": 87
    },
    {
      "midi": 60,
      "hit": false,
      "t": 53087.52960000015,
      "d": 419.1351750000031,
      "v": 100
    },
    {
      "midi": 43,
      "hit": false,
      "t": 53662.46895000015,
      "d": 48.277350000003935,
      "v": 72
    },
    {
      "midi": 59,
      "hit": false,
      "t": 53949.938625000155,
      "d": 204.08152500000142,
      "v": 100
    },
    {
      "midi": 55,
      "hit": false,
      "t": 53949.938625000155,
      "d": 309.41392500000075,
      "v": 100
    },
    {
      "midi": 62,
      "hit": false,
      "t": 53949.938625000155,
      "d": 344.52472500000295,
      "v": 98
    },
    {
      "midi": 43,
      "hit": false,
      "t": 54259.352550000156,
      "d": 35.1108000000022,
      "v": 70
    },
    {
      "midi": 60,
      "hit": false,
      "t": 54388.82362500016,
      "d": 265.5254249999998,
      "v": 102
    },
    {
      "midi": 55,
      "hit": false,
      "t": 54388.82362500016,
      "d": 329.1637499999997,
      "v": 102
    },
    {
      "midi": 64,
      "hit": false,
      "t": 54388.82362500016,
      "d": 414.74632500000007,
      "v": 98
    },
    {
      "midi": 62,
      "hit": false,
      "t": 54810.153225000155,
      "d": 1040.1574499999988,
      "v": 95
    },
    {
      "midi": 59,
      "hit": false,
      "t": 54812.347650000156,
      "d": 1046.7407250000033,
      "v": 100
    },
    {
      "midi": 55,
      "hit": false,
      "t": 54818.93092500015,
      "d": 1035.768600000003,
      "v": 95
    },
    {
      "midi": 55,
      "hit": false,
      "t": 55968.80962500016,
      "d": 965.5469999999987,
      "v": 95
    },
    {
      "midi": 59,
      "hit": false,
      "t": 55968.80962500016,
      "d": 1022.6020500000013,
      "v": 100
    },
    {
      "midi": 62,
      "hit": false,
      "t": 55977.58732500016,
      "d": 961.1581500000029,
      "v": 102
    },
    {
      "midi": 57,
      "hit": false,
      "t": 57107.71620000016,
      "d": 588.1059000000023,
      "v": 98
    },
    {
      "midi": 54,
      "hit": false,
      "t": 57109.910625000164,
      "d": 445.46827499999927,
      "v": 98
    },
    {
      "midi": 62,
      "hit": false,
      "t": 57112.105050000166,
      "d": 509.10659999999916,
      "v": 93
    },
    {
      "midi": 55,
      "hit": false,
      "t": 57702.40537500016,
      "d": 57.055050000002666,
      "v": 88
    },
    {
      "midi": 62,
      "hit": false,
      "t": 57976.70850000017,
      "d": 359.8856999999989,
      "v": 95
    },
    {
      "midi": 55,
      "hit": false,
      "t": 57976.70850000017,
      "d": 370.85782499999914,
      "v": 91
    },
    {
      "midi": 59,
      "hit": false,
      "t": 57983.291775000165,
      "d": 370.85782499999914,
      "v": 93
    },
    {
      "midi": 62,
      "hit": false,
      "t": 58413.39907500016,
      "d": 342.33030000000144,
      "v": 89
    },
    {
      "midi": 55,
      "hit": false,
      "t": 58415.59350000016,
      "d": 355.4968500000032,
      "v": 89
    },
    {
      "midi": 59,
      "hit": false,
      "t": 58415.59350000016,
      "d": 359.8857000000062,
      "v": 85
    },
    {
      "midi": 62,
      "hit": false,
      "t": 58845.700800000166,
      "d": 1059.9072750000123,
      "v": 95
    },
    {
      "midi": 55,
      "hit": false,
      "t": 58850.08965000017,
      "d": 1029.1853250000058,
      "v": 95
    },
    {
      "midi": 59,
      "hit": false,
      "t": 58854.47850000017,
      "d": 1029.1853250000058,
      "v": 93
    },
    {
      "midi": 62,
      "hit": false,
      "t": 60063.60667500018,
      "d": 1055.5184250000093,
      "v": 95
    },
    {
      "midi": 43,
      "hit": false,
      "t": 60067.99552500018,
      "d": 533.2452750000011,
      "v": 98
    },
    {
      "midi": 59,
      "hit": false,
      "t": 60067.99552500018,
      "d": 855.8257500000036,
      "v": 98
    },
    {
      "midi": 55,
      "hit": false,
      "t": 60072.38437500018,
      "d": 1013.8243500000026,
      "v": 100
    },
    {
      "midi": 55,
      "hit": false,
      "t": 61163.01360000019,
      "d": 471.80137500000274,
      "v": 102
    },
    {
      "midi": 64,
      "hit": false,
      "t": 61163.01360000019,
      "d": 610.0501500000028,
      "v": 87
    },
    {
      "midi": 60,
      "hit": false,
      "t": 61165.20802500019,
      "d": 419.1351750000031,
      "v": 100
    },
    {
      "midi": 43,
      "hit": false,
      "t": 61740.14737500019,
      "d": 48.277350000003935,
      "v": 72
    },
    {
      "midi": 59,
      "hit": false,
      "t": 62025.422625000196,
      "d": 204.08152500000142,
      "v": 100
    },
    {
      "midi": 55,
      "hit": false,
      "t": 62027.6170500002,
      "d": 307.21949999999924,
      "v": 100
    },
    {
      "midi": 62,
      "hit": false,
      "t": 62027.6170500002,
      "d": 342.33030000000144,
      "v": 98
    },
    {
      "midi": 43,
      "hit": false,
      "t": 62337.0309750002,
      "d": 35.1108000000022,
      "v": 70
    },
    {
      "midi": 55,
      "hit": false,
      "t": 62464.3076250002,
      "d": 329.1637499999997,
      "v": 102
    },
    {
      "midi": 64,
      "hit": false,
      "t": 62464.3076250002,
      "d": 414.74632500000007,
      "v": 98
    },
    {
      "midi": 60,
      "hit": false,
      "t": 62466.5020500002,
      "d": 265.5254249999998,
      "v": 102
    },
    {
      "midi": 62,
      "hit": false,
      "t": 62887.8316500002,
      "d": 1040.157450000006,
      "v": 95
    },
    {
      "midi": 59,
      "hit": false,
      "t": 62890.0260750002,
      "d": 1046.7407250000033,
      "v": 100
    },
    {
      "midi": 55,
      "hit": false,
      "t": 62894.4149250002,
      "d": 1035.768600000003,
      "v": 95
    },
    {
      "midi": 55,
      "hit": false,
      "t": 64044.2936250002,
      "d": 965.5469999999987,
      "v": 95
    },
    {
      "midi": 59,
      "hit": false,
      "t": 64044.2936250002,
      "d": 1022.602049999994,
      "v": 100
    },
    {
      "midi": 62,
      "hit": false,
      "t": 64055.2657500002,
      "d": 961.1581499999957,
      "v": 102
    },
    {
      "midi": 57,
      "hit": false,
      "t": 65185.3946250002,
      "d": 588.1059000000168,
      "v": 98
    },
    {
      "midi": 54,
      "hit": false,
      "t": 65187.5890500002,
      "d": 445.46827500000654,
      "v": 98
    },
    {
      "midi": 62,
      "hit": false,
      "t": 65187.5890500002,
      "d": 509.1066000000137,
      "v": 93
    },
    {
      "midi": 55,
      "hit": false,
      "t": 65780.08380000021,
      "d": 59.24947500000417,
      "v": 88
    },
    {
      "midi": 62,
      "hit": false,
      "t": 66054.38692500022,
      "d": 359.8856999999989,
      "v": 95
    },
    {
      "midi": 55,
      "hit": false,
      "t": 66054.38692500022,
      "d": 370.85782499999914,
      "v": 91
    },
    {
      "midi": 59,
      "hit": false,
      "t": 66058.77577500022,
      "d": 370.85782499999914,
      "v": 93
    },
    {
      "midi": 62,
      "hit": false,
      "t": 66491.07750000022,
      "d": 342.33030000000144,
      "v": 89
    },
    {
      "midi": 55,
      "hit": false,
      "t": 66491.07750000022,
      "d": 355.4968499999959,
      "v": 89
    },
    {
      "midi": 59,
      "hit": false,
      "t": 66493.27192500021,
      "d": 359.8856999999989,
      "v": 85
    },
    {
      "midi": 55,
      "hit": false,
      "t": 66925.57365000021,
      "d": 1029.1853249999986,
      "v": 95
    },
    {
      "midi": 62,
      "hit": false,
      "t": 66925.57365000021,
      "d": 1057.7128499999963,
      "v": 95
    },
    {
      "midi": 59,
      "hit": false,
      "t": 66932.1569250002,
      "d": 1029.1853249999986,
      "v": 93
    },
    {
      "midi": 50,
      "hit": false,
      "t": 68099.5910250002,
      "d": 425.71844999998575,
      "v": 84
    },
    {
      "midi": 62,
      "hit": false,
      "t": 68378.2830000002,
      "d": 221.63692499998433,
      "v": 103
    },
    {
      "midi": 66,
      "hit": false,
      "t": 68378.2830000002,
      "d": 232.60904999998456,
      "v": 102
    },
    {
      "midi": 57,
      "hit": false,
      "t": 68380.4774250002,
      "d": 212.85922499999288,
      "v": 114
    },
    {
      "midi": 45,
      "hit": false,
      "t": 68661.36382500018,
      "d": 463.02367499998945,
      "v": 80
    },
    {
      "midi": 66,
      "hit": false,
      "t": 68940.05580000018,
      "d": 199.69267499999842,
      "v": 92
    },
    {
      "midi": 57,
      "hit": false,
      "t": 68944.44465000018,
      "d": 184.33169999999518,
      "v": 97
    },
    {
      "midi": 62,
      "hit": false,
      "t": 68946.63907500017,
      "d": 166.77629999999772,
      "v": 105
    },
    {
      "midi": 50,
      "hit": false,
      "t": 69245.08087500017,
      "d": 669.2996249999851,
      "v": 80
    },
    {
      "midi": 62,
      "hit": false,
      "t": 69514.99515000018,
      "d": 274.30312499999127,
      "v": 105
    },
    {
      "midi": 66,
      "hit": false,
      "t": 69514.99515000018,
      "d": 287.4696749999857,
      "v": 92
    },
    {
      "midi": 57,
      "hit": false,
      "t": 69517.18957500017,
      "d": 298.44179999998596,
      "v": 114
    },
    {
      "midi": 45,
      "hit": false,
      "t": 69776.13172500017,
      "d": 228.22019999998156,
      "v": 69
    },
    {
      "midi": 66,
      "hit": false,
      "t": 70070.18467500016,
      "d": 175.55399999998917,
      "v": 97
    },
    {
      "midi": 57,
      "hit": false,
      "t": 70072.37910000015,
      "d": 100.94354999999632,
      "v": 105
    },
    {
      "midi": 62,
      "hit": false,
      "t": 70076.76795000015,
      "d": 125.08222499999101,
      "v": 110
    },
    {
      "midi": 60,
      "hit": false,
      "t": 70392.76515000014,
      "d": 256.7477249999938,
      "v": 76
    },
    {
      "midi": 48,
      "hit": false,
      "t": 70394.95957500013,
      "d": 245.77559999999357,
      "v": 74
    },
    {
      "midi": 57,
      "hit": false,
      "t": 70651.70730000013,
      "d": 250.16444999999658,
      "v": 105
    },
    {
      "midi": 69,
      "hit": false,
      "t": 70651.70730000013,
      "d": 272.10869999999704,
      "v": 103
    },
    {
      "midi": 55,
      "hit": false,
      "t": 70945.76025000012,
      "d": 287.4696750000003,
      "v": 95
    },
    {
      "midi": 67,
      "hit": false,
      "t": 70950.14910000013,
      "d": 370.8578250000137,
      "v": 84
    },
    {
      "midi": 52,
      "hit": false,
      "t": 71255.17417500012,
      "d": 57.05505000000994,
      "v": 91
    },
    {
      "midi": 64,
      "hit": false,
      "t": 71263.95187500013,
      "d": 92.16585000000487,
      "v": 84
    },
    {
      "midi": 43,
      "hit": false,
      "t": 71562.39367500014,
      "d": 901.9086749999842,
      "v": 71
    },
    {
      "midi": 62,
      "hit": false,
      "t": 71832.30795000015,
      "d": 254.55329999999958,
      "v": 101
    },
    {
      "midi": 55,
      "hit": false,
      "t": 71845.47450000014,
      "d": 164.5818750000035,
      "v": 110
    },
    {
      "midi": 59,
      "hit": false,
      "t": 71845.47450000014,
      "d": 315.9972000000125,
      "v": 114
    },
    {
      "midi": 55,
      "hit": false,
      "t": 72135.13860000015,
      "d": 199.69267499999842,
      "v": 67
    },
    {
      "midi": 64,
      "hit": false,
      "t": 72141.72187500015,
      "d": 186.52612500000396,
      "v": 72
    },
    {
      "midi": 60,
      "hit": false,
      "t": 72152.69400000015,
      "d": 206.27594999999565,
      "v": 69
    },
    {
      "midi": 62,
      "hit": false,
      "t": 72391.88632500015,
      "d": 236.99789999997301,
      "v": 92
    },
    {
      "midi": 59,
      "hit": false,
      "t": 72394.08075000014,
      "d": 210.6647999999841,
      "v": 101
    },
    {
      "midi": 55,
      "hit": false,
      "t": 72396.27517500013,
      "d": 190.9149749999924,
      "v": 105
    },
    {
      "midi": 50,
      "hit": false,
      "t": 72703.49467500011,
      "d": 364.2745500000019,
      "v": 77
    },
    {
      "midi": 60,
      "hit": false,
      "t": 72997.54762500011,
      "d": 245.77559999999357,
      "v": 96
    },
    {
      "midi": 66,
      "hit": false,
      "t": 72999.7420500001,
      "d": 250.16444999999658,
      "v": 92
    },
    {
      "midi": 57,
      "hit": false,
      "t": 73004.1309000001,
      "d": 236.99790000000212,
      "v": 97
    },
    {
      "midi": 45,
      "hit": false,
      "t": 73289.4061500001,
      "d": 386.2188000000024,
      "v": 68
    },
    {
      "midi": 60,
      "hit": false,
      "t": 73570.2925500001,
      "d": 228.2201999999961,
      "v": 114
    },
    {
      "midi": 66,
      "hit": false,
      "t": 73570.2925500001,
      "d": 228.2201999999961,
      "v": 110
    },
    {
      "midi": 57,
      "hit": false,
      "t": 73572.4869750001,
      "d": 221.63692499999888,
      "v": 105
    },
    {
      "midi": 50,
      "hit": false,
      "t": 73866.53992500009,
      "d": 607.8557250000013,
      "v": 72
    },
    {
      "midi": 66,
      "hit": false,
      "t": 74151.8151750001,
      "d": 199.69267499999842,
      "v": 84
    },
    {
      "midi": 57,
      "hit": false,
      "t": 74156.2040250001,
      "d": 162.38744999999471,
      "v": 105
    },
    {
      "midi": 60,
      "hit": false,
      "t": 74158.3984500001,
      "d": 164.5818750000035,
      "v": 101
    },
    {
      "midi": 45,
      "hit": false,
      "t": 74434.8960000001,
      "d": 333.55260000001,
      "v": 68
    },
    {
      "midi": 66,
      "hit": false,
      "t": 74704.8102750001,
      "d": 254.55330000001413,
      "v": 110
    },
    {
      "midi": 69,
      "hit": false,
      "t": 74709.1991250001,
      "d": 228.22020000001066,
      "v": 105
    },
    {
      "midi": 60,
      "hit": false,
      "t": 74709.1991250001,
      "d": 252.35887500000536,
      "v": 114
    },
    {
      "midi": 48,
      "hit": false,
      "t": 75001.0576500001,
      "d": 359.8856999999989,
      "v": 80
    },
    {
      "midi": 64,
      "hit": false,
      "t": 75288.5273250001,
      "d": 287.4696749999857,
      "v": 101
    },
    {
      "midi": 67,
      "hit": false,
      "t": 75288.5273250001,
      "d": 287.4696749999857,
      "v": 105
    },
    {
      "midi": 60,
      "hit": false,
      "t": 75290.7217500001,
      "d": 283.0808249999973,
      "v": 114
    },
    {
      "midi": 48,
      "hit": false,
      "t": 75560.6360250001,
      "d": 98.74912499998754,
      "v": 72
    },
    {
      "midi": 67,
      "hit": false,
      "t": 75698.88480000009,
      "d": 263.3310000000056,
      "v": 97
    },
    {
      "midi": 60,
      "hit": false,
      "t": 75703.27365000009,
      "d": 274.3031250000058,
      "v": 105
    },
    {
      "midi": 64,
      "hit": false,
      "t": 75707.6625000001,
      "d": 331.3581750000012,
      "v": 105
    },
    {
      "midi": 48,
      "hit": false,
      "t": 75872.2443750001,
      "d": 208.47037500000442,
      "v": 59
    },
    {
      "midi": 43,
      "hit": false,
      "t": 76153.1307750001,
      "d": 893.1309749999928,
      "v": 74
    },
    {
      "midi": 62,
      "hit": false,
      "t": 76434.0171750001,
      "d": 215.0536499999871,
      "v": 80
    },
    {
      "midi": 55,
      "hit": false,
      "t": 76440.6004500001,
      "d": 195.3038249999954,
      "v": 76
    },
    {
      "midi": 59,
      "hit": false,
      "t": 76442.7948750001,
      "d": 243.58117499999935,
      "v": 76
    },
    {
      "midi": 55,
      "hit": false,
      "t": 76728.0701250001,
      "d": 223.8313499999931,
      "v": 101
    },
    {
      "midi": 60,
      "hit": false,
      "t": 76728.0701250001,
      "d": 272.10869999999704,
      "v": 107
    },
    {
      "midi": 64,
      "hit": false,
      "t": 76730.2645500001,
      "d": 228.2201999999961,
      "v": 95
    },
    {
      "midi": 55,
      "hit": false,
      "t": 77017.7342250001,
      "d": 186.52612500000396,
      "v": 65
    },
    {
      "midi": 59,
      "hit": false,
      "t": 77017.7342250001,
      "d": 188.72054999999818,
      "v": 84
    },
    {
      "midi": 62,
      "hit": false,
      "t": 77024.31750000009,
      "d": 204.08152500000142,
      "v": 74
    },
    {
      "midi": 43,
      "hit": false,
      "t": 77344.7035500001,
      "d": 337.9414499999839,
      "v": 64
    },
    {
      "midi": 62,
      "hit": false,
      "t": 77601.45127500009,
      "d": 210.6647999999841,
      "v": 97
    },
    {
      "midi": 67,
      "hit": false,
      "t": 77601.45127500009,
      "d": 219.44249999997555,
      "v": 88
    },
    {
      "midi": 59,
      "hit": false,
      "t": 77603.64570000008,
      "d": 215.0536499999871,
      "v": 97
    },
    {
      "midi": 38,
      "hit": false,
      "t": 77875.75440000006,
      "d": 408.1630499999883,
      "v": 64
    },
    {
      "midi": 67,
      "hit": false,
      "t": 78169.80735000006,
      "d": 210.6647999999841,
      "v": 88
    },
    {
      "midi": 62,
      "hit": false,
      "t": 78169.80735000006,
      "d": 217.24807499998133,
      "v": 93
    },
    {
      "midi": 59,
      "hit": false,
      "t": 78172.00177500006,
      "d": 217.24807499998133,
      "v": 84
    },
    {
      "midi": 43,
      "hit": false,
      "t": 78481.41570000004,
      "d": 463.02367499998945,
      "v": 67
    },
    {
      "midi": 67,
      "hit": false,
      "t": 78753.52440000004,
      "d": 226.02577499998733,
      "v": 80
    },
    {
      "midi": 59,
      "hit": false,
      "t": 78755.71882500003,
      "d": 226.02577499998733,
      "v": 84
    },
    {
      "midi": 62,
      "hit": false,
      "t": 78757.91325000003,
      "d": 232.60904999999912,
      "v": 88
    },
    {
      "midi": 38,
      "hit": false,
      "t": 79051.96620000002,
      "d": 140.4431999999797,
      "v": 70
    },
    {
      "midi": 67,
      "hit": false,
      "t": 79163.88187500002,
      "d": 452.05154999997467,
      "v": 93
    },
    {
      "midi": 59,
      "hit": false,
      "t": 79166.07630000002,
      "d": 436.690574999986,
      "v": 101
    },
    {
      "midi": 62,
      "hit": false,
      "t": 79168.27072500001,
      "d": 467.4125249999779,
      "v": 101
    },
    {
      "midi": 43,
      "hit": false,
      "t": 79633.488825,
      "d": 331.35817499998666,
      "v": 70
    },
    {
      "midi": 62,
      "hit": false,
      "t": 79912.18079999999,
      "d": 267.71984999999404,
      "v": 88
    },
    {
      "midi": 67,
      "hit": false,
      "t": 79916.56964999999,
      "d": 223.8313499999931,
      "v": 80
    },
    {
      "midi": 59,
      "hit": false,
      "t": 79918.76407499998,
      "d": 254.55329999999958,
      "v": 84
    },
    {
      "midi": 38,
      "hit": false,
      "t": 80197.45604999998,
      "d": 348.9135749999987,
      "v": 97
    },
    {
      "midi": 66,
      "hit": false,
      "t": 80484.92572499998,
      "d": 219.44250000000466,
      "v": 93
    },
    {
      "midi": 57,
      "hit": false,
      "t": 80487.12014999997,
      "d": 201.8871000000072,
      "v": 97
    },
    {
      "midi": 62,
      "hit": false,
      "t": 80493.70342499997,
      "d": 186.52612500000396,
      "v": 97
    },
    {
      "midi": 43,
      "hit": false,
      "t": 80752.64557499999,
      "d": 359.8856999999989,
      "v": 70
    },
    {
      "midi": 62,
      "hit": false,
      "t": 81062.05949999999,
      "d": 221.63692499998433,
      "v": 101
    },
    {
      "midi": 67,
      "hit": false,
      "t": 81064.25392499998,
      "d": 204.08152500000142,
      "v": 97
    },
    {
      "midi": 59,
      "hit": false,
      "t": 81064.25392499998,
      "d": 206.27594999999565,
      "v": 93
    },
    {
      "midi": 38,
      "hit": false,
      "t": 81329.77934999997,
      "d": 405.9686250000086,
      "v": 72
    },
    {
      "midi": 67,
      "hit": false,
      "t": 81634.80442499997,
      "d": 239.1923250000109,
      "v": 84
    },
    {
      "midi": 62,
      "hit": false,
      "t": 81639.19327499997,
      "d": 226.0257750000019,
      "v": 97
    },
    {
      "midi": 59,
      "hit": false,
      "t": 81643.58212499997,
      "d": 221.63692499999888,
      "v": 93
    },
    {
      "midi": 43,
      "hit": false,
      "t": 81942.02392499997,
      "d": 324.77489999998943,
      "v": 64
    },
    {
      "midi": 67,
      "hit": false,
      "t": 82211.93819999998,
      "d": 221.63692499998433,
      "v": 84
    },
    {
      "midi": 62,
      "hit": false,
      "t": 82214.13262499997,
      "d": 252.3588749999908,
      "v": 101
    },
    {
      "midi": 59,
      "hit": false,
      "t": 82216.32704999996,
      "d": 223.8313499999931,
      "v": 97
    },
    {
      "midi": 38,
      "hit": false,
      "t": 82514.76884999996,
      "d": 326.96932499998366,
      "v": 84
    },
    {
      "midi": 57,
      "hit": false,
      "t": 82802.23852499996,
      "d": 217.24807499998133,
      "v": 97
    },
    {
      "midi": 66,
      "hit": false,
      "t": 82804.43294999996,
      "d": 236.99789999998757,
      "v": 106
    },
    {
      "midi": 62,
      "hit": false,
      "t": 82806.62737499995,
      "d": 212.85922499999288,
      "v": 97
    },
    {
      "midi": 43,
      "hit": false,
      "t": 83061.18067499995,
      "d": 331.3581750000012,
      "v": 80
    },
    {
      "midi": 62,
      "hit": false,
      "t": 83368.40017499996,
      "d": 232.60904999999912,
      "v": 88
    },
    {
      "midi": 59,
      "hit": false,
      "t": 83368.40017499996,
      "d": 234.80347499999334,
      "v": 84
    },
    {
      "midi": 67,
      "hit": false,
      "t": 83370.59459999995,
      "d": 230.4146250000049,
      "v": 72
    },
    {
      "midi": 38,
      "hit": false,
      "t": 83640.50887499996,
      "d": 542.0229749999999,
      "v": 68
    },
    {
      "midi": 67,
      "hit": false,
      "t": 83958.70049999996,
      "d": 254.55329999999958,
      "v": 84
    },
    {
      "midi": 59,
      "hit": false,
      "t": 83960.89492499996,
      "d": 243.58117499999935,
      "v": 84
    },
    {
      "midi": 62,
      "hit": false,
      "t": 83963.08934999995,
      "d": 254.55330000001413,
      "v": 88
    },
    {
      "midi": 43,
      "hit": false,
      "t": 84254.94787499997,
      "d": 236.99790000000212,
      "v": 68
    },
    {
      "midi": 62,
      "hit": false,
      "t": 84524.86214999997,
      "d": 302.8306500000035,
      "v": 101
    },
    {
      "midi": 38,
      "hit": false,
      "t": 84531.44542499997,
      "d": 197.4982500000042,
      "v": 80
    },
    {
      "midi": 40,
      "hit": false,
      "t": 84781.60987499998,
      "d": 283.0808249999973,
      "v": 70
    },
    {
      "midi": 64,
      "hit": false,
      "t": 84805.74854999997,
      "d": 243.58117499999935,
      "v": 88
    },
    {
      "midi": 42,
      "hit": false,
      "t": 85058.10742499998,
      "d": 184.33169999999518,
      "v": 80
    },
    {
      "midi": 66,
      "hit": false,
      "t": 85066.88512499997,
      "d": 199.69267499999842,
      "v": 70
    },
    {
      "midi": 43,
      "hit": false,
      "t": 85413.60427499998,
      "d": 1013.8243500000099,
      "v": 82
    },
    {
      "midi": 67,
      "hit": false,
      "t": 85415.79869999997,
      "d": 1200.3504750000138,
      "v": 86
    },
    {
      "midi": 59,
      "hit": false,
      "t": 85415.79869999997,
      "d": 1220.1003000000055,
      "v": 99
    },
    {
      "midi": 62,
      "hit": false,
      "t": 85420.18754999997,
      "d": 1213.5170250000083,
      "v": 90
    },
    {
      "midi": 43,
      "hit": false,
      "t": 86548.12199999999,
      "d": 171.16514999998617,
      "v": 70
    },
    {
      "midi": 67,
      "hit": false,
      "t": 86712.70387499998,
      "d": 204.08152499998687,
      "v": 75
    },
    {
      "midi": 59,
      "hit": false,
      "t": 86719.28714999997,
      "d": 197.49824999998964,
      "v": 103
    },
    {
      "midi": 62,
      "hit": false,
      "t": 86723.67599999998,
      "d": 171.16514999998617,
      "v": 99
    },
    {
      "midi": 43,
      "hit": false,
      "t": 86859.73034999997,
      "d": 118.49894999999378,
      "v": 70
    },
    {
      "midi": 60,
      "hit": false,
      "t": 87149.39444999996,
      "d": 388.41322500001115,
      "v": 78
    },
    {
      "midi": 67,
      "hit": false,
      "t": 87153.78329999997,
      "d": 373.0522500000079,
      "v": 82
    },
    {
      "midi": 64,
      "hit": false,
      "t": 87155.97772499996,
      "d": 375.2466750000167,
      "v": 78
    },
    {
      "midi": 48,
      "hit": false,
      "t": 87164.75542499997,
      "d": 324.774900000004,
      "v": 66
    },
    {
      "midi": 67,
      "hit": false,
      "t": 87737.50034999997,
      "d": 298.4418000000005,
      "v": 82
    },
    {
      "midi": 59,
      "hit": false,
      "t": 87744.08362499997,
      "d": 291.8585250000033,
      "v": 74
    },
    {
      "midi": 43,
      "hit": false,
      "t": 87746.27804999996,
      "d": 289.66410000000906,
      "v": 82
    },
    {
      "midi": 62,
      "hit": false,
      "t": 87755.05574999997,
      "d": 283.0808249999973,
      "v": 82
    }
  ]
}