{
  "jsonPath": "Unknown/Unknown/Tammy WynetteGeorge JonesGeorge Jones  Tammy Wynette/ive-seen-better-days.json",
  "path": "Unknown\\Unknown\\Tammy WynetteGeorge JonesGeorge Jones  Tammy Wynette\\Ive Seen Better Days.mid",
  "name": "Ive Seen Better Days",
  "difficulty": "Advanced",
  "bpm": 68.0000725334107,
  "notes": [
    {
      "midi": 57,
      "hit": false,
      "t": 0,
      "d": 882.3520000000001,
      "v": 100
    },
    {
      "midi": 64,
      "hit": false,
      "t": 441.17600000000004,
      "d": 441.17600000000004,
      "v": 100
    },
    {
      "midi": 69,
      "hit": false,
      "t": 772.0580000000001,
      "d": 110.29399999999998,
      "v": 100
    },
    {
      "midi": 72,
      "hit": false,
      "t": 772.0580000000001,
      "d": 110.29399999999998,
      "v": 100
    },
    {
      "midi": 72,
      "hit": false,
      "t": 882.3520000000001,
      "d": 551.4700000000003,
      "v": 100
    },
    {
      "midi": 76,
      "hit": false,
      "t": 882.3520000000001,
      "d": 882.3520000000003,
      "v": 100
    },
    {
      "midi": 64,
      "hit": false,
      "t": 1323.5280000000002,
      "d": 441.17600000000016,
      "v": 100
    },
    {
      "midi": 57,
      "hit": false,
      "t": 1764.7040000000004,
      "d": 441.17600000000016,
      "v": 100
    },
    {
      "midi": 69,
      "hit": false,
      "t": 1764.7040000000004,
      "d": 441.17600000000016,
      "v": 100
    },
    {
      "midi": 60,
      "hit": false,
      "t": 1985.2920000000004,
      "d": 220.5880000000002,
      "v": 100
    },
    {
      "midi": 64,
      "hit": false,
      "t": 2205.8800000000006,
      "d": 441.1760000000004,
      "v": 100
    },
    {
      "midi": 69,
      "hit": false,
      "t": 2426.4680000000008,
      "d": 220.5880000000002,
      "v": 100
    },
    {
      "midi": 72,
      "hit": false,
      "t": 2647.056000000001,
      "d": 441.17599999999993,
      "v": 100
    },
    {
      "midi": 76,
      "hit": false,
      "t": 2647.056000000001,
      "d": 441.17599999999993,
      "v": 100
    },
    {
      "midi": 64,
      "hit": false,
      "t": 3088.232000000001,
      "d": 441.17599999999993,
      "v": 100
    },
    {
      "midi": 52,
      "hit": false,
      "t": 3529.408000000001,
      "d": 882.3519999999994,
      "v": 100
    },
    {
      "midi": 64,
      "hit": false,
      "t": 3970.5840000000007,
      "d": 441.1759999999995,
      "v": 100
    },
    {
      "midi": 67,
      "hit": false,
      "t": 4301.466,
      "d": 110.29399999999987,
      "v": 100
    },
    {
      "midi": 71,
      "hit": false,
      "t": 4301.466,
      "d": 110.29399999999987,
      "v": 100
    },
    {
      "midi": 71,
      "hit": false,
      "t": 4411.76,
      "d": 551.4700000000003,
      "v": 100
    },
    {
      "midi": 76,
      "hit": false,
      "t": 4411.76,
      "d": 882.3519999999999,
      "v": 100
    },
    {
      "midi": 64,
      "hit": false,
      "t": 4852.936000000001,
      "d": 441.1759999999995,
      "v": 100
    },
    {
      "midi": 52,
      "hit": false,
      "t": 5294.112,
      "d": 441.1759999999995,
      "v": 100
    },
    {
      "midi": 64,
      "hit": false,
      "t": 5294.112,
      "d": 441.1759999999995,
      "v": 100
    },
    {
      "midi": 71,
      "hit": false,
      "t": 5294.112,
      "d": 441.1759999999995,
      "v": 100
    },
    {
      "midi": 59,
      "hit": false,
      "t": 5514.7,
      "d": 220.58799999999974,
      "v": 100
    },
    {
      "midi": 64,
      "hit": false,
      "t": 5735.288,
      "d": 441.1759999999995,
      "v": 100
    },
    {
      "midi": 67,
      "hit": false,
      "t": 5955.875999999999,
      "d": 220.58799999999974,
      "v": 100
    },
    {
      "midi": 71,
      "hit": false,
      "t": 6176.463999999999,
      "d": 441.1760000000004,
      "v": 100
    },
    {
      "midi": 76,
      "hit": false,
      "t": 6176.463999999999,
      "d": 441.1760000000004,
      "v": 100
    },
    {
      "midi": 64,
      "hit": false,
      "t": 6617.639999999999,
      "d": 441.1760000000004,
      "v": 100
    },
    {
      "midi": 57,
      "hit": false,
      "t": 7058.816,
      "d": 882.3519999999999,
      "v": 100
    },
    {
      "midi": 64,
      "hit": false,
      "t": 7499.992,
      "d": 441.1759999999995,
      "v": 100
    },
    {
      "midi": 69,
      "hit": false,
      "t": 7830.874,
      "d": 110.29399999999987,
      "v": 100
    },
    {
      "midi": 72,
      "hit": false,
      "t": 7830.874,
      "d": 110.29399999999987,
      "v": 100
    },
    {
      "midi": 72,
      "hit": false,
      "t": 7941.168,
      "d": 551.4699999999993,
      "v": 100
    },
    {
      "midi": 76,
      "hit": false,
      "t": 7941.168,
      "d": 882.351999999999,
      "v": 100
    },
    {
      "midi": 64,
      "hit": false,
      "t": 8382.344,
      "d": 441.1759999999995,
      "v": 100
    },
    {
      "midi": 59,
      "hit": false,
      "t": 8823.519999999999,
      "d": 441.1759999999995,
      "v": 100
    },
    {
      "midi": 63,
      "hit": false,
      "t": 8823.519999999999,
      "d": 441.1759999999995,
      "v": 100
    },
    {
      "midi": 66,
      "hit": false,
      "t": 8823.519999999999,
      "d": 441.1759999999995,
      "v": 100
    },
    {
      "midi": 71,
      "hit": false,
      "t": 8823.519999999999,
      "d": 441.1759999999995,
      "v": 100
    },
    {
      "midi": 54,
      "hit": false,
      "t": 9044.107999999998,
      "d": 220.58799999999974,
      "v": 100
    },
    {
      "midi": 59,
      "hit": false,
      "t": 9264.695999999998,
      "d": 220.58799999999974,
      "v": 100
    },
    {
      "midi": 63,
      "hit": false,
      "t": 9485.283999999998,
      "d": 220.58799999999974,
      "v": 100
    },
    {
      "midi": 71,
      "hit": false,
      "t": 9705.871999999998,
      "d": 441.1759999999995,
      "v": 100
    },
    {
      "midi": 75,
      "hit": false,
      "t": 9705.871999999998,
      "d": 441.1759999999995,
      "v": 100
    },
    {
      "midi": 63,
      "hit": false,
      "t": 10147.047999999997,
      "d": 441.1759999999995,
      "v": 100
    },
    {
      "midi": 52,
      "hit": false,
      "t": 10588.223999999997,
      "d": 882.351999999999,
      "v": 100
    },
    {
      "midi": 64,
      "hit": false,
      "t": 11029.399999999996,
      "d": 441.1759999999995,
      "v": 100
    },
    {
      "midi": 68,
      "hit": false,
      "t": 11360.281999999996,
      "d": 110.29399999999987,
      "v": 100
    },
    {
      "midi": 71,
      "hit": false,
      "t": 11360.281999999996,
      "d": 110.29399999999987,
      "v": 100
    },
    {
      "midi": 71,
      "hit": false,
      "t": 11470.575999999995,
      "d": 551.4699999999993,
      "v": 100
    },
    {
      "midi": 76,
      "hit": false,
      "t": 11470.575999999995,
      "d": 882.351999999999,
      "v": 100
    },
    {
      "midi": 64,
      "hit": false,
      "t": 11911.751999999995,
      "d": 441.1759999999995,
      "v": 100
    },
    {
      "midi": 52,
      "hit": false,
      "t": 12352.927999999994,
      "d": 441.1759999999995,
      "v": 100
    },
    {
      "midi": 68,
      "hit": false,
      "t": 12352.927999999994,
      "d": 441.1759999999995,
      "v": 100
    },
    {
      "midi": 59,
      "hit": false,
      "t": 12573.515999999994,
      "d": 220.58799999999974,
      "v": 100
    },
    {
      "midi": 64,
      "hit": false,
      "t": 12794.103999999994,
      "d": 441.1759999999995,
      "v": 100
    },
    {
      "midi": 68,
      "hit": false,
      "t": 13014.691999999994,
      "d": 220.58799999999974,
      "v": 100
    },
    {
      "midi": 71,
      "hit": false,
      "t": 13235.279999999993,
      "d": 441.1759999999995,
      "v": 100
    },
    {
      "midi": 76,
      "hit": false,
      "t": 13235.279999999993,
      "d": 441.1759999999995,
      "v": 100
    },
    {
      "midi": 64,
      "hit": false,
      "t": 13676.455999999993,
      "d": 441.1759999999995,
      "v": 100
    },
    {
      "midi": 76,
      "hit": false,
      "t": 14117.631999999992,
      "d": 220.58799999999974,
      "v": 100
    },
    {
      "midi": 52,
      "hit": false,
      "t": 14117.631999999992,
      "d": 882.351999999999,
      "v": 100
    },
    {
      "midi": 80,
      "hit": false,
      "t": 14338.219999999992,
      "d": 220.58799999999974,
      "v": 100
    },
    {
      "midi": 81,
      "hit": false,
      "t": 14558.807999999992,
      "d": 220.58799999999974,
      "v": 100
    },
    {
      "midi": 64,
      "hit": false,
      "t": 14558.807999999992,
      "d": 441.1759999999995,
      "v": 100
    },
    {
      "midi": 83,
      "hit": false,
      "t": 14779.395999999992,
      "d": 220.58799999999974,
      "v": 100
    },
    {
      "midi": 68,
      "hit": false,
      "t": 14889.689999999991,
      "d": 110.29399999999987,
      "v": 100
    },
    {
      "midi": 71,
      "hit": false,
      "t": 14889.689999999991,
      "d": 110.29399999999987,
      "v": 100
    },
    {
      "midi": 71,
      "hit": false,
      "t": 14999.983999999991,
      "d": 551.4699999999993,
      "v": 100
    },
    {
      "midi": 88,
      "hit": false,
      "t": 14999.983999999991,
      "d": 661.7639999999992,
      "v": 100
    },
    {
      "midi": 76,
      "hit": false,
      "t": 14999.983999999991,
      "d": 882.351999999999,
      "v": 100
    },
    {
      "midi": 64,
      "hit": false,
      "t": 15441.15999999999,
      "d": 441.1759999999995,
      "v": 100
    },
    {
      "midi": 76,
      "hit": false,
      "t": 15882.33599999999,
      "d": 220.58799999999974,
      "v": 100
    },
    {
      "midi": 52,
      "hit": false,
      "t": 15882.33599999999,
      "d": 441.1759999999995,
      "v": 100
    },
    {
      "midi": 68,
      "hit": false,
      "t": 15882.33599999999,
      "d": 441.1759999999995,
      "v": 100
    },
    {
      "midi": 59,
      "hit": false,
      "t": 16102.92399999999,
      "d": 220.58799999999974,
      "v": 100
    },
    {
      "midi": 80,
      "hit": false,
      "t": 16102.92399999999,
      "d": 220.58799999999974,
      "v": 100
    },
    {
      "midi": 81,
      "hit": false,
      "t": 16323.51199999999,
      "d": 220.58800000000156,
      "v": 100
    },
    {
      "midi": 64,
      "hit": false,
      "t": 16323.51199999999,
      "d": 441.1760000000013,
      "v": 100
    },
    {
      "midi": 68,
      "hit": false,
      "t": 16544.09999999999,
      "d": 220.58799999999974,
      "v": 100
    },
    {
      "midi": 83,
      "hit": false,
      "t": 16544.09999999999,
      "d": 220.58799999999974,
      "v": 100
    },
    {
      "midi": 88,
      "hit": false,
      "t": 16764.68799999999,
      "d": 220.58799999999974,
      "v": 100
    },
    {
      "midi": 71,
      "hit": false,
      "t": 16764.68799999999,
      "d": 441.1759999999995,
      "v": 100
    },
    {
      "midi": 76,
      "hit": false,
      "t": 16764.68799999999,
      "d": 441.1759999999995,
      "v": 100
    },
    {
      "midi": 80,
      "hit": false,
      "t": 16985.27599999999,
      "d": 220.58799999999974,
      "v": 100
    },
    {
      "midi": 83,
      "hit": false,
      "t": 17205.86399999999,
      "d": 220.58799999999974,
      "v": 100
    },
    {
      "midi": 64,
      "hit": false,
      "t": 17205.86399999999,
      "d": 441.1759999999995,
      "v": 100
    },
    {
      "midi": 76,
      "hit": false,
      "t": 17426.45199999999,
      "d": 220.58799999999974,
      "v": 100
    },
    {
      "midi": 57,
      "hit": false,
      "t": 17647.03999999999,
      "d": 882.351999999999,
      "v": 100
    },
    {
      "midi": 69,
      "hit": false,
      "t": 17647.03999999999,
      "d": 882.351999999999,
      "v": 100
    },
    {
      "midi": 72,
      "hit": false,
      "t": 17647.03999999999,
      "d": 882.351999999999,
      "v": 100
    },
    {
      "midi": 64,
      "hit": false,
      "t": 18088.21599999999,
      "d": 441.1759999999995,
      "v": 100
    },
    {
      "midi": 69,
      "hit": false,
      "t": 18529.39199999999,
      "d": 882.351999999999,
      "v": 100
    },
    {
      "midi": 72,
      "hit": false,
      "t": 18529.39199999999,
      "d": 882.351999999999,
      "v": 100
    },
    {
      "midi": 76,
      "hit": false,
      "t": 18529.39199999999,
      "d": 882.351999999999,
      "v": 100
    },
    {
      "midi": 64,
      "hit": false,
      "t": 18970.56799999999,
      "d": 441.1759999999995,
      "v": 100
    },
    {
      "midi": 72,
      "hit": false,
      "t": 18970.568,
      "d": 220.58799999999974,
      "v": 100
    },
    {
      "midi": 74,
      "hit": false,
      "t": 19191.156,
      "d": 220.58799999999974,
      "v": 100
    },
    {
      "midi": 57,
      "hit": false,
      "t": 19411.743999999988,
      "d": 441.1759999999995,
      "v": 100
    },
    {
      "midi": 69,
      "hit": false,
      "t": 19411.743999999988,
      "d": 441.1759999999995,
      "v": 100
    },
    {
      "midi": 76,
      "hit": false,
      "t": 19411.744,
      "d": 661.7639999999992,
      "v": 100
    },
    {
      "midi": 64,
      "hit": false,
      "t": 19852.919999999987,
      "d": 441.1759999999995,
      "v": 100
    },
    {
      "midi": 72,
      "hit": false,
      "t": 20294.095999999987,
      "d": 441.1759999999995,
      "v": 100
    },
    {
      "midi": 76,
      "hit": false,
      "t": 20294.095999999987,
      "d": 441.1759999999995,
      "v": 100
    },
    {
      "midi": 69,
      "hit": false,
      "t": 20294.095999999987,
      "d": 882.351999999999,
      "v": 100
    },
    {
      "midi": 64,
      "hit": false,
      "t": 20735.271999999986,
      "d": 441.1759999999995,
      "v": 100
    },
    {
      "midi": 69,
      "hit": false,
      "t": 20955.859999999997,
      "d": 220.58799999999974,
      "v": 100
    },
    {
      "midi": 52,
      "hit": false,
      "t": 21176.447999999986,
      "d": 882.351999999999,
      "v": 100
    },
    {
      "midi": 67,
      "hit": false,
      "t": 21176.447999999986,
      "d": 882.351999999999,
      "v": 100
    },
    {
      "midi": 71,
      "hit": false,
      "t": 21176.447999999986,
      "d": 882.351999999999,
      "v": 100
    },
    {
      "midi": 72,
      "hit": false,
      "t": 21176.447999999997,
      "d": 220.58799999999974,
      "v": 100
    },
    {
      "midi": 64,
      "hit": false,
      "t": 21617.623999999985,
      "d": 441.1759999999995,
      "v": 100
    },
    {
      "midi": 71,
      "hit": false,
      "t": 21617.623999999996,
      "d": 220.58799999999974,
      "v": 100
    },
    {
      "midi": 71,
      "hit": false,
      "t": 21838.211999999996,
      "d": 661.7639999999992,
      "v": 100
    },
    {
      "midi": 67,
      "hit": false,
      "t": 22058.799999999985,
      "d": 882.351999999999,
      "v": 100
    },
    {
      "midi": 71,
      "hit": false,
      "t": 22058.799999999985,
      "d": 882.351999999999,
      "v": 100
    },
    {
      "midi": 76,
      "hit": false,
      "t": 22058.799999999985,
      "d": 882.351999999999,
      "v": 100
    },
    {
      "midi": 64,
      "hit": false,
      "t": 22499.975999999984,
      "d": 441.1759999999995,
      "v": 100
    },
    {
      "midi": 52,
      "hit": false,
      "t": 22941.151999999984,
      "d": 882.351999999999,
      "v": 100
    },
    {
      "midi": 67,
      "hit": false,
      "t": 22941.151999999984,
      "d": 882.351999999999,
      "v": 100
    },
    {
      "midi": 64,
      "hit": false,
      "t": 23382.327999999983,
      "d": 441.1759999999995,
      "v": 100
    },
    {
      "midi": 67,
      "hit": false,
      "t": 23823.503999999983,
      "d": 882.351999999999,
      "v": 100
    },
    {
      "midi": 71,
      "hit": false,
      "t": 23823.503999999983,
      "d": 882.351999999999,
      "v": 100
    },
    {
      "midi": 76,
      "hit": false,
      "t": 23823.503999999983,
      "d": 882.351999999999,
      "v": 100
    },
    {
      "midi": 64,
      "hit": false,
      "t": 24264.679999999982,
      "d": 441.1759999999995,
      "v": 100
    },
    {
      "midi": 50,
      "hit": false,
      "t": 24705.85599999998,
      "d": 882.351999999999,
      "v": 100
    },
    {
      "midi": 65,
      "hit": false,
      "t": 24705.85599999998,
      "d": 882.351999999999,
      "v": 100
    },
    {
      "midi": 69,
      "hit": false,
      "t": 24705.85599999998,
      "d": 882.351999999999,
      "v": 100
    },
    {
      "midi": 62,
      "hit": false,
      "t": 25147.03199999998,
      "d": 441.1759999999995,
      "v": 100
    },
    {
      "midi": 65,
      "hit": false,
      "t": 25588.20799999998,
      "d": 882.351999999999,
      "v": 100
    },
    {
      "midi": 69,
      "hit": false,
      "t": 25588.20799999998,
      "d": 882.351999999999,
      "v": 100
    },
    {
      "midi": 74,
      "hit": false,
      "t": 25588.20799999998,
      "d": 882.351999999999,
      "v": 100
    },
    {
      "midi": 62,
      "hit": false,
      "t": 26029.38399999998,
      "d": 441.1759999999995,
      "v": 100
    },
    {
      "midi": 74,
      "hit": false,
      "t": 26029.383999999995,
      "d": 220.58799999999974,
      "v": 100
    },
    {
      "midi": 76,
      "hit": false,
      "t": 26249.971999999994,
      "d": 220.58799999999974,
      "v": 100
    },
    {
      "midi": 55,
      "hit": false,
      "t": 26470.55999999998,
      "d": 882.351999999999,
      "v": 100
    },
    {
      "midi": 67,
      "hit": false,
      "t": 26470.55999999998,
      "d": 882.351999999999,
      "v": 100
    },
    {
      "midi": 77,
      "hit": false,
      "t": 26470.559999999994,
      "d": 882.351999999999,
      "v": 100
    },
    {
      "midi": 62,
      "hit": false,
      "t": 26911.73599999998,
      "d": 441.1759999999995,
      "v": 100
    },
    {
      "midi": 67,
      "hit": false,
      "t": 27352.91199999998,
      "d": 882.351999999999,
      "v": 100
    },
    {
      "midi": 71,
      "hit": false,
      "t": 27352.91199999998,
      "d": 882.351999999999,
      "v": 100
    },
    {
      "midi": 74,
      "hit": false,
      "t": 27352.91199999998,
      "d": 882.351999999999,
      "v": 100
    },
    {
      "midi": 62,
      "hit": false,
      "t": 27794.087999999978,
      "d": 441.1759999999995,
      "v": 100
    },
    {
      "midi": 71,
      "hit": false,
      "t": 28014.675999999992,
      "d": 220.58799999999974,
      "v": 100
    },
    {
      "midi": 60,
      "hit": false,
      "t": 28235.263999999977,
      "d": 882.351999999999,
      "v": 100
    },
    {
      "midi": 67,
      "hit": false,
      "t": 28235.263999999977,
      "d": 882.351999999999,
      "v": 100
    },
    {
      "midi": 74,
      "hit": false,
      "t": 28235.263999999992,
      "d": 441.1759999999995,
      "v": 100
    },
    {
      "midi": 64,
      "hit": false,
      "t": 28676.439999999977,
      "d": 441.1759999999995,
      "v": 100
    },
    {
      "midi": 72,
      "hit": false,
      "t": 28676.43999999999,
      "d": 220.58799999999974,
      "v": 100
    },
    {
      "midi": 72,
      "hit": false,
      "t": 28897.02799999999,
      "d": 661.7639999999992,
      "v": 100
    },
    {
      "midi": 67,
      "hit": false,
      "t": 29117.615999999976,
      "d": 882.351999999999,
      "v": 100
    },
    {
      "midi": 72,
      "hit": false,
      "t": 29117.615999999976,
      "d": 882.351999999999,
      "v": 100
    },
    {
      "midi": 64,
      "hit": false,
      "t": 29558.791999999976,
      "d": 441.1759999999995,
      "v": 100
    },
    {
      "midi": 60,
      "hit": false,
      "t": 29999.967999999975,
      "d": 882.351999999999,
      "v": 100
    },
    {
      "midi": 67,
      "hit": false,
      "t": 29999.967999999975,
      "d": 882.351999999999,
      "v": 100
    },
    {
      "midi": 64,
      "hit": false,
      "t": 30441.143999999975,
      "d": 441.1759999999995,
      "v": 100
    },
    {
      "midi": 67,
      "hit": false,
      "t": 30882.319999999974,
      "d": 882.351999999999,
      "v": 100
    },
    {
      "midi": 72,
      "hit": false,
      "t": 30882.319999999974,
      "d": 882.351999999999,
      "v": 100
    },
    {
      "midi": 64,
      "hit": false,
      "t": 31323.495999999974,
      "d": 441.1759999999995,
      "v": 100
    },
    {
      "midi": 57,
      "hit": false,
      "t": 31764.671999999973,
      "d": 882.351999999999,
      "v": 100
    },
    {
      "midi": 64,
      "hit": false,
      "t": 31764.671999999973,
      "d": 882.351999999999,
      "v": 100
    },
    {
      "midi": 69,
      "hit": false,
      "t": 31764.671999999973,
      "d": 882.351999999999,
      "v": 100
    },
    {
      "midi": 73,
      "hit": false,
      "t": 31764.671999999973,
      "d": 882.351999999999,
      "v": 100
    },
    {
      "midi": 76,
      "hit": false,
      "t": 31764.67199999999,
      "d": 882.351999999999,
      "v": 100
    },
    {
      "midi": 61,
      "hit": false,
      "t": 32205.847999999973,
      "d": 441.1759999999995,
      "v": 100
    },
    {
      "midi": 73,
      "hit": false,
      "t": 32426.43599999999,
      "d": 220.58799999999974,
      "v": 100
    },
    {
      "midi": 69,
      "hit": false,
      "t": 32647.023999999972,
      "d": 882.3520000000026,
      "v": 100
    },
    {
      "midi": 73,
      "hit": false,
      "t": 32647.023999999972,
      "d": 882.3520000000026,
      "v": 100
    },
    {
      "midi": 76,
      "hit": false,
      "t": 32647.023999999972,
      "d": 882.3520000000026,
      "v": 100
    },
    {
      "midi": 73,
      "hit": false,
      "t": 32647.02399999999,
      "d": 882.351999999999,
      "v": 100
    },
    {
      "midi": 61,
      "hit": false,
      "t": 33088.199999999975,
      "d": 441.1759999999995,
      "v": 100
    },
    {
      "midi": 57,
      "hit": false,
      "t": 33529.375999999975,
      "d": 441.1759999999995,
      "v": 100
    },
    {
      "midi": 69,
      "hit": false,
      "t": 33529.375999999975,
      "d": 441.1759999999995,
      "v": 100
    },
    {
      "midi": 61,
      "hit": false,
      "t": 33970.551999999974,
      "d": 441.1759999999995,
      "v": 100
    },
    {
      "midi": 69,
      "hit": false,
      "t": 34191.13999999999,
      "d": 220.58800000000338,
      "v": 100
    },
    {
      "midi": 73,
      "hit": false,
      "t": 34411.727999999974,
      "d": 441.1759999999995,
      "v": 100
    },
    {
      "midi": 76,
      "hit": false,
      "t": 34411.727999999974,
      "d": 441.1759999999995,
      "v": 100
    },
    {
      "midi": 69,
      "hit": false,
      "t": 34411.727999999974,
      "d": 882.351999999999,
      "v": 100
    },
    {
      "midi": 76,
      "hit": false,
      "t": 34411.727999999996,
      "d": 441.1759999999995,
      "v": 100
    },
    {
      "midi": 61,
      "hit": false,
      "t": 34852.90399999997,
      "d": 441.1759999999995,
      "v": 100
    },
    {
      "midi": 73,
      "hit": false,
      "t": 34852.903999999995,
      "d": 441.1759999999995,
      "v": 100
    },
    {
      "midi": 50,
      "hit": false,
      "t": 35294.07999999997,
      "d": 882.351999999999,
      "v": 100
    },
    {
      "midi": 65,
      "hit": false,
      "t": 35294.07999999997,
      "d": 882.351999999999,
      "v": 100
    },
    {
      "midi": 69,
      "hit": false,
      "t": 35294.07999999997,
      "d": 882.351999999999,
      "v": 100
    },
    {
      "midi": 74,
      "hit": false,
      "t": 35294.079999999994,
      "d": 441.17600000000675,
      "v": 100
    },
    {
      "midi": 76,
      "hit": false,
      "t": 35514.668,
      "d": 220.58800000000338,
      "v": 100
    },
    {
      "midi": 62,
      "hit": false,
      "t": 35735.25599999997,
      "d": 441.1759999999995,
      "v": 100
    },
    {
      "midi": 77,
      "hit": false,
      "t": 35735.256,
      "d": 882.351999999999,
      "v": 100
    },
    {
      "midi": 65,
      "hit": false,
      "t": 36176.43199999997,
      "d": 882.351999999999,
      "v": 100
    },
    {
      "midi": 69,
      "hit": false,
      "t": 36176.43199999997,
      "d": 882.351999999999,
      "v": 100
    },
    {
      "midi": 74,
      "hit": false,
      "t": 36176.43199999997,
      "d": 882.351999999999,
      "v": 100
    },
    {
      "midi": 62,
      "hit": false,
      "t": 36617.60799999997,
      "d": 441.1759999999995,
      "v": 100
    },
    {
      "midi": 50,
      "hit": false,
      "t": 37058.78399999997,
      "d": 882.351999999999,
      "v": 100
    },
    {
      "midi": 65,
      "hit": false,
      "t": 37058.78399999997,
      "d": 882.351999999999,
      "v": 100
    },
    {
      "midi": 62,
      "hit": false,
      "t": 37499.95999999997,
      "d": 441.1759999999995,
      "v": 100
    },
    {
      "midi": 65,
      "hit": false,
      "t": 37941.13599999997,
      "d": 882.351999999999,
      "v": 100
    },
    {
      "midi": 69,
      "hit": false,
      "t": 37941.13599999997,
      "d": 882.351999999999,
      "v": 100
    },
    {
      "midi": 74,
      "hit": false,
      "t": 37941.13599999997,
      "d": 882.351999999999,
      "v": 100
    },
    {
      "midi": 62,
      "hit": false,
      "t": 38382.31199999997,
      "d": 441.1759999999995,
      "v": 100
    },
    {
      "midi": 55,
      "hit": false,
      "t": 38823.48799999997,
      "d": 882.351999999999,
      "v": 100
    },
    {
      "midi": 67,
      "hit": false,
      "t": 38823.48799999997,
      "d": 882.351999999999,
      "v": 100
    },
    {
      "midi": 71,
      "hit": false,
      "t": 38823.48799999997,
      "d": 882.351999999999,
      "v": 100
    },
    {
      "midi": 79,
      "hit": false,
      "t": 38823.488,
      "d": 441.1759999999995,
      "v": 100
    },
    {
      "midi": 62,
      "hit": false,
      "t": 39264.66399999997,
      "d": 441.1759999999995,
      "v": 100
    },
    {
      "midi": 74,
      "hit": false,
      "t": 39485.252,
      "d": 220.58800000000338,
      "v": 100
    },
    {
      "midi": 67,
      "hit": false,
      "t": 39705.83999999997,
      "d": 882.351999999999,
      "v": 100
    },
    {
      "midi": 71,
      "hit": false,
      "t": 39705.83999999997,
      "d": 882.351999999999,
      "v": 100
    },
    {
      "midi": 74,
      "hit": false,
      "t": 39705.83999999997,
      "d": 882.351999999999,
      "v": 100
    },
    {
      "midi": 74,
      "hit": false,
      "t": 39705.840000000004,
      "d": 220.58800000000338,
      "v": 100
    },
    {
      "midi": 62,
      "hit": false,
      "t": 40147.01599999997,
      "d": 441.1759999999995,
      "v": 100
    },
    {
      "midi": 55,
      "hit": false,
      "t": 40588.191999999966,
      "d": 882.351999999999,
      "v": 100
    },
    {
      "midi": 67,
      "hit": false,
      "t": 40588.191999999966,
      "d": 882.351999999999,
      "v": 100
    },
    {
      "midi": 62,
      "hit": false,
      "t": 41029.367999999966,
      "d": 441.1759999999995,
      "v": 100
    },
    {
      "midi": 67,
      "hit": false,
      "t": 41470.543999999965,
      "d": 882.351999999999,
      "v": 100
    },
    {
      "midi": 71,
      "hit": false,
      "t": 41470.543999999965,
      "d": 882.351999999999,
      "v": 100
    },
    {
      "midi": 74,
      "hit": false,
      "t": 41470.543999999965,
      "d": 882.351999999999,
      "v": 100
    },
    {
      "midi": 71,
      "hit": false,
      "t": 41470.54400000001,
      "d": 882.3520000000135,
      "v": 100
    },
    {
      "midi": 72,
      "hit": false,
      "t": 41691.13200000001,
      "d": 441.17600000000675,
      "v": 100
    },
    {
      "midi": 62,
      "hit": false,
      "t": 41911.719999999965,
      "d": 441.1759999999995,
      "v": 100
    },
    {
      "midi": 74,
      "hit": false,
      "t": 41911.720000000016,
      "d": 441.17600000000675,
      "v": 100
    },
    {
      "midi": 60,
      "hit": false,
      "t": 42352.895999999964,
      "d": 882.351999999999,
      "v": 100
    },
    {
      "midi": 67,
      "hit": false,
      "t": 42352.895999999964,
      "d": 882.351999999999,
      "v": 100
    },
    {
      "midi": 77,
      "hit": false,
      "t": 42352.89600000002,
      "d": 441.1759999999995,
      "v": 100
    },
    {
      "midi": 64,
      "hit": false,
      "t": 42794.071999999964,
      "d": 441.1759999999995,
      "v": 100
    },
    {
      "midi": 76,
      "hit": false,
      "t": 43014.660000000025,
      "d": 220.58800000000338,
      "v": 100
    },
    {
      "midi": 67,
      "hit": false,
      "t": 43235.24799999996,
      "d": 882.351999999999,
      "v": 100
    },
    {
      "midi": 72,
      "hit": false,
      "t": 43235.24799999996,
      "d": 882.351999999999,
      "v": 100
    },
    {
      "midi": 76,
      "hit": false,
      "t": 43235.24800000003,
      "d": 1764.703999999998,
      "v": 100
    },
    {
      "midi": 64,
      "hit": false,
      "t": 43676.42399999996,
      "d": 441.1759999999995,
      "v": 100
    },
    {
      "midi": 60,
      "hit": false,
      "t": 44117.59999999996,
      "d": 882.351999999999,
      "v": 100
    },
    {
      "midi": 67,
      "hit": false,
      "t": 44117.59999999996,
      "d": 882.351999999999,
      "v": 100
    },
    {
      "midi": 64,
      "hit": false,
      "t": 44558.77599999996,
      "d": 441.1759999999995,
      "v": 100
    },
    {
      "midi": 67,
      "hit": false,
      "t": 44999.95199999996,
      "d": 882.351999999999,
      "v": 100
    },
    {
      "midi": 72,
      "hit": false,
      "t": 44999.95199999996,
      "d": 882.351999999999,
      "v": 100
    },
    {
      "midi": 64,
      "hit": false,
      "t": 45441.12799999996,
      "d": 441.1759999999995,
      "v": 100
    },
    {
      "midi": 57,
      "hit": false,
      "t": 45882.30399999996,
      "d": 882.351999999999,
      "v": 100
    },
    {
      "midi": 64,
      "hit": false,
      "t": 45882.30399999996,
      "d": 882.351999999999,
      "v": 100
    },
    {
      "midi": 69,
      "hit": false,
      "t": 45882.30399999996,
      "d": 882.351999999999,
      "v": 100
    },
    {
      "midi": 73,
      "hit": false,
      "t": 45882.30399999996,
      "d": 882.351999999999,
      "v": 100
    },
    {
      "midi": 81,
      "hit": false,
      "t": 45882.304000000026,
      "d": 441.1759999999995,
      "v": 100
    },
    {
      "midi": 61,
      "hit": false,
      "t": 46323.47999999996,
      "d": 441.1759999999995,
      "v": 100
    },
    {
      "midi": 76,
      "hit": false,
      "t": 46544.06800000003,
      "d": 220.58800000000338,
      "v": 100
    },
    {
      "midi": 69,
      "hit": false,
      "t": 46764.65599999996,
      "d": 882.351999999999,
      "v": 100
    },
    {
      "midi": 73,
      "hit": false,
      "t": 46764.65599999996,
      "d": 882.351999999999,
      "v": 100
    },
    {
      "midi": 76,
      "hit": false,
      "t": 46764.65599999996,
      "d": 882.351999999999,
      "v": 100
    },
    {
      "midi": 76,
      "hit": false,
      "t": 46764.65600000003,
      "d": 1764.703999999998,
      "v": 100
    },
    {
      "midi": 61,
      "hit": false,
      "t": 47205.83199999996,
      "d": 441.1759999999995,
      "v": 100
    },
    {
      "midi": 57,
      "hit": false,
      "t": 47647.00799999996,
      "d": 441.1759999999995,
      "v": 100
    },
    {
      "midi": 69,
      "hit": false,
      "t": 47647.00799999996,
      "d": 441.1759999999995,
      "v": 100
    },
    {
      "midi": 61,
      "hit": false,
      "t": 48088.18399999996,
      "d": 441.1759999999995,
      "v": 100
    },
    {
      "midi": 73,
      "hit": false,
      "t": 48529.35999999996,
      "d": 441.1759999999995,
      "v": 100
    },
    {
      "midi": 76,
      "hit": false,
      "t": 48529.35999999996,
      "d": 441.1759999999995,
      "v": 100
    },
    {
      "midi": 69,
      "hit": false,
      "t": 48529.35999999996,
      "d": 882.351999999999,
      "v": 100
    },
    {
      "midi": 73,
      "hit": false,
      "t": 48529.36000000003,
      "d": 220.58800000000338,
      "v": 100
    },
    {
      "midi": 74,
      "hit": false,
      "t": 48749.94800000003,
      "d": 220.58800000000338,
      "v": 100
    },
    {
      "midi": 61,
      "hit": false,
      "t": 48970.53599999996,
      "d": 441.1759999999995,
      "v": 100
    },
    {
      "midi": 76,
      "hit": false,
      "t": 48970.53600000004,
      "d": 220.58800000000338,
      "v": 100
    },
    {
      "midi": 50,
      "hit": false,
      "t": 49411.711999999956,
      "d": 882.351999999999,
      "v": 100
    },
    {
      "midi": 65,
      "hit": false,
      "t": 49411.711999999956,
      "d": 882.351999999999,
      "v": 100
    },
    {
      "midi": 69,
      "hit": false,
      "t": 49411.711999999956,
      "d": 882.351999999999,
      "v": 100
    },
    {
      "midi": 79,
      "hit": false,
      "t": 49411.71200000004,
      "d": 441.1759999999995,
      "v": 100
    },
    {
      "midi": 62,
      "hit": false,
      "t": 49852.887999999955,
      "d": 441.1759999999995,
      "v": 100
    },
    {
      "midi": 77,
      "hit": false,
      "t": 50073.476000000046,
      "d": 220.58800000000338,
      "v": 100
    },
    {
      "midi": 65,
      "hit": false,
      "t": 50294.063999999955,
      "d": 882.351999999999,
      "v": 100
    },
    {
      "midi": 69,
      "hit": false,
      "t": 50294.063999999955,
      "d": 882.351999999999,
      "v": 100
    },
    {
      "midi": 74,
      "hit": false,
      "t": 50294.063999999955,
      "d": 882.351999999999,
      "v": 100
    },
    {
      "midi": 77,
      "hit": false,
      "t": 50294.06400000005,
      "d": 1764.703999999998,
      "v": 100
    },
    {
      "midi": 62,
      "hit": false,
      "t": 50735.239999999954,
      "d": 441.1759999999995,
      "v": 100
    },
    {
      "midi": 50,
      "hit": false,
      "t": 51176.415999999954,
      "d": 882.351999999999,
      "v": 100
    },
    {
      "midi": 65,
      "hit": false,
      "t": 51176.415999999954,
      "d": 882.351999999999,
      "v": 100
    },
    {
      "midi": 62,
      "hit": false,
      "t": 51617.59199999995,
      "d": 441.1759999999995,
      "v": 100
    },
    {
      "midi": 65,
      "hit": false,
      "t": 52058.76799999995,
      "d": 882.351999999999,
      "v": 100
    },
    {
      "midi": 69,
      "hit": false,
      "t": 52058.76799999995,
      "d": 882.351999999999,
      "v": 100
    },
    {
      "midi": 74,
      "hit": false,
      "t": 52058.76799999995,
      "d": 882.351999999999,
      "v": 100
    },
    {
      "midi": 62,
      "hit": false,
      "t": 52499.94399999995,
      "d": 441.1759999999995,
      "v": 100
    },
    {
      "midi": 59,
      "hit": false,
      "t": 52941.11999999995,
      "d": 441.1759999999995,
      "v": 100
    },
    {
      "midi": 63,
      "hit": false,
      "t": 52941.11999999995,
      "d": 441.1759999999995,
      "v": 100
    },
    {
      "midi": 66,
      "hit": false,
      "t": 52941.11999999995,
      "d": 441.1759999999995,
      "v": 100
    },
    {
      "midi": 71,
      "hit": false,
      "t": 52941.11999999995,
      "d": 441.1759999999995,
      "v": 100
    },
    {
      "midi": 83,
      "hit": false,
      "t": 52941.120000000046,
      "d": 441.1759999999995,
      "v": 100
    },
    {
      "midi": 63,
      "hit": false,
      "t": 53382.29599999995,
      "d": 441.1759999999995,
      "v": 100
    },
    {
      "midi": 78,
      "hit": false,
      "t": 53382.296000000046,
      "d": 441.1759999999995,
      "v": 100
    },
    {
      "midi": 66,
      "hit": false,
      "t": 53823.47199999995,
      "d": 441.1759999999995,
      "v": 100
    },
    {
      "midi": 71,
      "hit": false,
      "t": 53823.47199999995,
      "d": 441.1759999999995,
      "v": 100
    },
    {
      "midi": 75,
      "hit": false,
      "t": 53823.47199999995,
      "d": 441.1759999999995,
      "v": 100
    },
    {
      "midi": 78,
      "hit": false,
      "t": 53823.472000000045,
      "d": 1764.703999999998,
      "v": 100
    },
    {
      "midi": 63,
      "hit": false,
      "t": 54264.64799999995,
      "d": 441.1759999999995,
      "v": 100
    },
    {
      "midi": 59,
      "hit": false,
      "t": 54705.82399999995,
      "d": 441.1759999999995,
      "v": 100
    },
    {
      "midi": 66,
      "hit": false,
      "t": 54705.82399999995,
      "d": 441.1759999999995,
      "v": 100
    },
    {
      "midi": 63,
      "hit": false,
      "t": 55146.99999999995,
      "d": 441.1759999999995,
      "v": 100
    },
    {
      "midi": 66,
      "hit": false,
      "t": 55588.17599999995,
      "d": 441.1759999999995,
      "v": 100
    },
    {
      "midi": 71,
      "hit": false,
      "t": 55588.17599999995,
      "d": 441.1759999999995,
      "v": 100
    },
    {
      "midi": 75,
      "hit": false,
      "t": 55588.17599999995,
      "d": 441.1759999999995,
      "v": 100
    },
    {
      "midi": 81,
      "hit": false,
      "t": 55588.17600000004,
      "d": 441.1759999999995,
      "v": 100
    },
    {
      "midi": 63,
      "hit": false,
      "t": 56029.35199999995,
      "d": 441.1759999999995,
      "v": 100
    },
    {
      "midi": 83,
      "hit": false,
      "t": 56029.35200000004,
      "d": 441.1759999999995,
      "v": 100
    },
    {
      "midi": 52,
      "hit": false,
      "t": 56470.52799999995,
      "d": 441.1759999999995,
      "v": 100
    },
    {
      "midi": 64,
      "hit": false,
      "t": 56470.52799999995,
      "d": 441.1759999999995,
      "v": 100
    },
    {
      "midi": 68,
      "hit": false,
      "t": 56470.52799999995,
      "d": 441.1759999999995,
      "v": 100
    },
    {
      "midi": 71,
      "hit": false,
      "t": 56470.52799999995,
      "d": 441.1759999999995,
      "v": 100
    },
    {
      "midi": 80,
      "hit": false,
      "t": 56470.52800000004,
      "d": 2647.055999999997,
      "v": 100
    },
    {
      "midi": 64,
      "hit": false,
      "t": 56911.70399999995,
      "d": 441.1759999999995,
      "v": 100
    },
    {
      "midi": 68,
      "hit": false,
      "t": 57352.87999999995,
      "d": 441.1759999999995,
      "v": 100
    },
    {
      "midi": 71,
      "hit": false,
      "t": 57352.87999999995,
      "d": 441.1759999999995,
      "v": 100
    },
    {
      "midi": 76,
      "hit": false,
      "t": 57352.87999999995,
      "d": 441.1759999999995,
      "v": 100
    },
    {
      "midi": 64,
      "hit": false,
      "t": 57794.055999999946,
      "d": 441.1759999999995,
      "v": 100
    },
    {
      "midi": 52,
      "hit": false,
      "t": 58235.231999999945,
      "d": 441.1759999999995,
      "v": 100
    },
    {
      "midi": 59,
      "hit": false,
      "t": 58235.231999999945,
      "d": 441.1759999999995,
      "v": 100
    },
    {
      "midi": 64,
      "hit": false,
      "t": 58676.407999999945,
      "d": 441.1759999999995,
      "v": 100
    },
    {
      "midi": 68,
      "hit": false,
      "t": 59117.583999999944,
      "d": 441.1759999999995,
      "v": 100
    },
    {
      "midi": 71,
      "hit": false,
      "t": 59117.583999999944,
      "d": 441.1759999999995,
      "v": 100
    },
    {
      "midi": 76,
      "hit": false,
      "t": 59117.583999999944,
      "d": 441.1759999999995,
      "v": 100
    },
    {
      "midi": 64,
      "hit": false,
      "t": 59558.759999999944,
      "d": 441.1759999999995,
      "v": 100
    },
    {
      "midi": 52,
      "hit": false,
      "t": 59999.93599999994,
      "d": 441.1759999999995,
      "v": 100
    },
    {
      "midi": 64,
      "hit": false,
      "t": 59999.93599999994,
      "d": 441.1759999999995,
      "v": 100
    },
    {
      "midi": 68,
      "hit": false,
      "t": 59999.93599999994,
      "d": 441.1759999999995,
      "v": 100
    },
    {
      "midi": 71,
      "hit": false,
      "t": 59999.93599999994,
      "d": 441.1759999999995,
      "v": 100
    },
    {
      "midi": 64,
      "hit": false,
      "t": 60441.11199999994,
      "d": 441.1759999999995,
      "v": 100
    },
    {
      "midi": 68,
      "hit": false,
      "t": 60882.28799999994,
      "d": 441.1759999999995,
      "v": 100
    },
    {
      "midi": 71,
      "hit": false,
      "t": 60882.28799999994,
      "d": 441.1759999999995,
      "v": 100
    },
    {
      "midi": 76,
      "hit": false,
      "t": 60882.28799999994,
      "d": 441.1759999999995,
      "v": 100
    },
    {
      "midi": 64,
      "hit": false,
      "t": 61323.46399999994,
      "d": 441.1759999999995,
      "v": 100
    },
    {
      "midi": 52,
      "hit": false,
      "t": 61764.63999999994,
      "d": 441.1759999999995,
      "v": 100
    },
    {
      "midi": 59,
      "hit": false,
      "t": 61764.63999999994,
      "d": 441.1759999999995,
      "v": 100
    },
    {
      "midi": 64,
      "hit": false,
      "t": 62205.81599999994,
      "d": 441.1759999999995,
      "v": 100
    },
    {
      "midi": 68,
      "hit": false,
      "t": 62646.99199999994,
      "d": 441.1759999999995,
      "v": 100
    },
    {
      "midi": 71,
      "hit": false,
      "t": 62646.99199999994,
      "d": 441.1759999999995,
      "v": 100
    },
    {
      "midi": 76,
      "hit": false,
      "t": 62646.99199999994,
      "d": 441.1759999999995,
      "v": 100
    },
    {
      "midi": 64,
      "hit": false,
      "t": 63088.16799999994,
      "d": 441.1759999999995,
      "v": 100
    },
    {
      "midi": 76,
      "hit": false,
      "t": 63088.16800000004,
      "d": 441.1759999999995,
      "v": 100
    },
    {
      "midi": 57,
      "hit": false,
      "t": 63529.34399999994,
      "d": 441.1759999999995,
      "v": 100
    },
    {
      "midi": 64,
      "hit": false,
      "t": 63529.34399999994,
      "d": 441.1759999999995,
      "v": 100
    },
    {
      "midi": 69,
      "hit": false,
      "t": 63529.34399999994,
      "d": 441.1759999999995,
      "v": 100
    },
    {
      "midi": 73,
      "hit": false,
      "t": 63529.34399999994,
      "d": 441.1759999999995,
      "v": 100
    },
    {
      "midi": 81,
      "hit": false,
      "t": 63529.34400000004,
      "d": 441.1759999999995,
      "v": 100
    },
    {
      "midi": 64,
      "hit": false,
      "t": 63970.51999999994,
      "d": 441.1759999999995,
      "v": 100
    },
    {
      "midi": 81,
      "hit": false,
      "t": 63970.52000000004,
      "d": 441.1759999999995,
      "v": 100
    },
    {
      "midi": 69,
      "hit": false,
      "t": 64411.69599999994,
      "d": 441.1759999999995,
      "v": 100
    },
    {
      "midi": 73,
      "hit": false,
      "t": 64411.69599999994,
      "d": 441.1759999999995,
      "v": 100
    },
    {
      "midi": 81,
      "hit": false,
      "t": 64411.69600000004,
      "d": 882.351999999999,
      "v": 100
    },
    {
      "midi": 64,
      "hit": false,
      "t": 64852.87199999994,
      "d": 441.1759999999995,
      "v": 100
    },
    {
      "midi": 57,
      "hit": false,
      "t": 65294.04799999994,
      "d": 441.17600000000675,
      "v": 100
    },
    {
      "midi": 69,
      "hit": false,
      "t": 65294.04799999994,
      "d": 441.17600000000675,
      "v": 100
    },
    {
      "midi": 73,
      "hit": false,
      "t": 65294.04799999994,
      "d": 441.17600000000675,
      "v": 100
    },
    {
      "midi": 64,
      "hit": false,
      "t": 65735.22399999994,
      "d": 441.17600000000675,
      "v": 100
    },
    {
      "midi": 64,
      "hit": false,
      "t": 66176.39999999995,
      "d": 441.17600000000675,
      "v": 100
    },
    {
      "midi": 69,
      "hit": false,
      "t": 66176.39999999995,
      "d": 441.17600000000675,
      "v": 100
    },
    {
      "midi": 73,
      "hit": false,
      "t": 66176.39999999995,
      "d": 441.17600000000675,
      "v": 100
    },
    {
      "midi": 79,
      "hit": false,
      "t": 66176.40000000004,
      "d": 441.17600000000675,
      "v": 100
    },
    {
      "midi": 77,
      "hit": false,
      "t": 66396.98800000004,
      "d": 220.58800000000338,
      "v": 100
    },
    {
      "midi": 64,
      "hit": false,
      "t": 66617.57599999996,
      "d": 441.17600000000675,
      "v": 100
    },
    {
      "midi": 76,
      "hit": false,
      "t": 66617.57600000004,
      "d": 441.17600000000675,
      "v": 100
    },
    {
      "midi": 62,
      "hit": false,
      "t": 67058.75199999996,
      "d": 441.17600000000675,
      "v": 100
    },
    {
      "midi": 65,
      "hit": false,
      "t": 67058.75199999996,
      "d": 441.17600000000675,
      "v": 100
    },
    {
      "midi": 69,
      "hit": false,
      "t": 67058.75199999996,
      "d": 441.17600000000675,
      "v": 100
    },
    {
      "midi": 74,
      "hit": false,
      "t": 67058.75199999996,
      "d": 441.17600000000675,
      "v": 100
    },
    {
      "midi": 76,
      "hit": false,
      "t": 67058.75200000005,
      "d": 294.11733333332813,
      "v": 100
    },
    {
      "midi": 65,
      "hit": false,
      "t": 67499.92799999997,
      "d": 441.17600000000675,
      "v": 100
    },
    {
      "midi": 72,
      "hit": false,
      "t": 67720.51600000005,
      "d": 220.58800000000338,
      "v": 100
    },
    {
      "midi": 69,
      "hit": false,
      "t": 67941.10399999998,
      "d": 441.17600000000675,
      "v": 100
    },
    {
      "midi": 74,
      "hit": false,
      "t": 67941.10399999998,
      "d": 441.17600000000675,
      "v": 100
    },
    {
      "midi": 74,
      "hit": false,
      "t": 67941.10400000005,
      "d": 220.58800000000338,
      "v": 100
    },
    {
      "midi": 65,
      "hit": false,
      "t": 68382.27999999998,
      "d": 441.17600000000675,
      "v": 100
    },
    {
      "midi": 76,
      "hit": false,
      "t": 68382.28000000006,
      "d": 220.58800000000338,
      "v": 100
    },
    {
      "midi": 62,
      "hit": false,
      "t": 68823.45599999999,
      "d": 441.17600000000675,
      "v": 100
    },
    {
      "midi": 69,
      "hit": false,
      "t": 68823.45599999999,
      "d": 441.17600000000675,
      "v": 100
    },
    {
      "midi": 74,
      "hit": false,
      "t": 68823.45599999999,
      "d": 441.17600000000675,
      "v": 100
    },
    {
      "midi": 77,
      "hit": false,
      "t": 68823.45600000006,
      "d": 882.351999999999,
      "v": 100
    },
    {
      "midi": 65,
      "hit": false,
      "t": 69264.632,
      "d": 441.17600000000675,
      "v": 100
    },
    {
      "midi": 69,
      "hit": false,
      "t": 69705.808,
      "d": 441.17600000000675,
      "v": 100
    },
    {
      "midi": 74,
      "hit": false,
      "t": 69705.808,
      "d": 441.17600000000675,
      "v": 100
    },
    {
      "midi": 65,
      "hit": false,
      "t": 70146.98400000001,
      "d": 441.17600000000675,
      "v": 100
    },
    {
      "midi": 74,
      "hit": false,
      "t": 70367.57200000006,
      "d": 220.58800000000338,
      "v": 100
    },
    {
      "midi": 55,
      "hit": false,
      "t": 70588.16000000002,
      "d": 441.17600000000675,
      "v": 100
    },
    {
      "midi": 62,
      "hit": false,
      "t": 70588.16000000002,
      "d": 441.17600000000675,
      "v": 100
    },
    {
      "midi": 67,
      "hit": false,
      "t": 70588.16000000002,
      "d": 441.17600000000675,
      "v": 100
    },
    {
      "midi": 71,
      "hit": false,
      "t": 70588.16000000002,
      "d": 441.17600000000675,
      "v": 100
    },
    {
      "midi": 79,
      "hit": false,
      "t": 70588.16000000006,
      "d": 441.17600000000675,
      "v": 100
    },
    {
      "midi": 62,
      "hit": false,
      "t": 71029.33600000002,
      "d": 441.17600000000675,
      "v": 100
    },
    {
      "midi": 79,
      "hit": false,
      "t": 71029.33600000007,
      "d": 441.17600000000675,
      "v": 100
    },
    {
      "midi": 67,
      "hit": false,
      "t": 71470.51200000003,
      "d": 441.17600000000675,
      "v": 100
    },
    {
      "midi": 71,
      "hit": false,
      "t": 71470.51200000003,
      "d": 441.17600000000675,
      "v": 100
    },
    {
      "midi": 74,
      "hit": false,
      "t": 71470.51200000003,
      "d": 441.17600000000675,
      "v": 100
    },
    {
      "midi": 79,
      "hit": false,
      "t": 71470.51200000008,
      "d": 882.351999999999,
      "v": 100
    },
    {
      "midi": 62,
      "hit": false,
      "t": 71911.68800000004,
      "d": 441.17600000000675,
      "v": 100
    },
    {
      "midi": 55,
      "hit": false,
      "t": 72352.86400000005,
      "d": 441.17600000000675,
      "v": 100
    },
    {
      "midi": 67,
      "hit": false,
      "t": 72352.86400000005,
      "d": 441.17600000000675,
      "v": 100
    },
    {
      "midi": 71,
      "hit": false,
      "t": 72352.86400000005,
      "d": 441.17600000000675,
      "v": 100
    },
    {
      "midi": 62,
      "hit": false,
      "t": 72794.04000000005,
      "d": 441.17600000000675,
      "v": 100
    },
    {
      "midi": 67,
      "hit": false,
      "t": 73235.21600000006,
      "d": 441.17600000000675,
      "v": 100
    },
    {
      "midi": 71,
      "hit": false,
      "t": 73235.21600000006,
      "d": 441.17600000000675,
      "v": 100
    },
    {
      "midi": 74,
      "hit": false,
      "t": 73235.21600000006,
      "d": 441.17600000000675,
      "v": 100
    },
    {
      "midi": 71,
      "hit": false,
      "t": 73235.21600000007,
      "d": 220.58800000000338,
      "v": 100
    },
    {
      "midi": 72,
      "hit": false,
      "t": 73455.80400000008,
      "d": 220.58800000000338,
      "v": 100
    },
    {
      "midi": 62,
      "hit": false,
      "t": 73676.39200000007,
      "d": 441.17600000000675,
      "v": 100
    },
    {
      "midi": 74,
      "hit": false,
      "t": 73676.39200000008,
      "d": 220.58800000000338,
      "v": 100
    },
    {
      "midi": 60,
      "hit": false,
      "t": 74117.56800000007,
      "d": 441.17600000000675,
      "v": 100
    },
    {
      "midi": 64,
      "hit": false,
      "t": 74117.56800000007,
      "d": 441.17600000000675,
      "v": 100
    },
    {
      "midi": 67,
      "hit": false,
      "t": 74117.56800000007,
      "d": 441.17600000000675,
      "v": 100
    },
    {
      "midi": 72,
      "hit": false,
      "t": 74117.56800000007,
      "d": 441.17600000000675,
      "v": 100
    },
    {
      "midi": 77,
      "hit": false,
      "t": 74117.56800000009,
      "d": 441.17600000000675,
      "v": 100
    },
    {
      "midi": 64,
      "hit": false,
      "t": 74558.74400000008,
      "d": 441.17600000000675,
      "v": 100
    },
    {
      "midi": 76,
      "hit": false,
      "t": 74558.7440000001,
      "d": 441.17600000000675,
      "v": 100
    },
    {
      "midi": 67,
      "hit": false,
      "t": 74999.92000000009,
      "d": 441.17600000000675,
      "v": 100
    },
    {
      "midi": 72,
      "hit": false,
      "t": 74999.92000000009,
      "d": 441.17600000000675,
      "v": 100
    },
    {
      "midi": 76,
      "hit": false,
      "t": 74999.92000000009,
      "d": 441.17600000000675,
      "v": 100
    },
    {
      "midi": 76,
      "hit": false,
      "t": 74999.9200000001,
      "d": 220.58800000000338,
      "v": 100
    },
    {
      "midi": 64,
      "hit": false,
      "t": 75441.09600000009,
      "d": 441.17600000000675,
      "v": 100
    },
    {
      "midi": 74,
      "hit": false,
      "t": 75441.0960000001,
      "d": 441.17600000000675,
      "v": 100
    },
    {
      "midi": 60,
      "hit": false,
      "t": 75882.2720000001,
      "d": 441.17600000000675,
      "v": 100
    },
    {
      "midi": 72,
      "hit": false,
      "t": 75882.2720000001,
      "d": 441.17600000000675,
      "v": 100
    },
    {
      "midi": 76,
      "hit": false,
      "t": 75882.2720000001,
      "d": 441.17600000000675,
      "v": 100
    },
    {
      "midi": 76,
      "hit": false,
      "t": 75882.27200000011,
      "d": 882.351999999999,
      "v": 100
    },
    {
      "midi": 64,
      "hit": false,
      "t": 76323.4480000001,
      "d": 441.17600000000675,
      "v": 100
    },
    {
      "midi": 67,
      "hit": false,
      "t": 76764.62400000011,
      "d": 441.17600000000675,
      "v": 100
    },
    {
      "midi": 72,
      "hit": false,
      "t": 76764.62400000011,
      "d": 441.17600000000675,
      "v": 100
    },
    {
      "midi": 76,
      "hit": false,
      "t": 76764.62400000011,
      "d": 441.17600000000675,
      "v": 100
    },
    {
      "midi": 64,
      "hit": false,
      "t": 77205.80000000012,
      "d": 441.17600000000675,
      "v": 100
    },
    {
      "midi": 76,
      "hit": false,
      "t": 77426.38800000011,
      "d": 220.58800000000338,
      "v": 100
    },
    {
      "midi": 81,
      "hit": false,
      "t": 77646.97600000011,
      "d": 441.17600000000675,
      "v": 100
    },
    {
      "midi": 57,
      "hit": false,
      "t": 77646.97600000013,
      "d": 441.17600000000675,
      "v": 100
    },
    {
      "midi": 64,
      "hit": false,
      "t": 77646.97600000013,
      "d": 441.17600000000675,
      "v": 100
    },
    {
      "midi": 69,
      "hit": false,
      "t": 77646.97600000013,
      "d": 441.17600000000675,
      "v": 100
    },
    {
      "midi": 73,
      "hit": false,
      "t": 77646.97600000013,
      "d": 441.17600000000675,
      "v": 100
    },
    {
      "midi": 81,
      "hit": false,
      "t": 78088.15200000012,
      "d": 441.17600000000675,
      "v": 100
    },
    {
      "midi": 64,
      "hit": false,
      "t": 78088.15200000013,
      "d": 441.17600000000675,
      "v": 100
    },
    {
      "midi": 81,
      "hit": false,
      "t": 78529.32800000013,
      "d": 1323.5280000000057,
      "v": 100
    },
    {
      "midi": 69,
      "hit": false,
      "t": 78529.32800000014,
      "d": 441.17600000000675,
      "v": 100
    },
    {
      "midi": 73,
      "hit": false,
      "t": 78529.32800000014,
      "d": 441.17600000000675,
      "v": 100
    },
    {
      "midi": 64,
      "hit": false,
      "t": 78970.50400000015,
      "d": 441.17600000000675,
      "v": 100
    },
    {
      "midi": 57,
      "hit": false,
      "t": 79411.68000000015,
      "d": 441.17600000000675,
      "v": 100
    },
    {
      "midi": 69,
      "hit": false,
      "t": 79411.68000000015,
      "d": 441.17600000000675,
      "v": 100
    },
    {
      "midi": 73,
      "hit": false,
      "t": 79411.68000000015,
      "d": 441.17600000000675,
      "v": 100
    },
    {
      "midi": 64,
      "hit": false,
      "t": 79852.85600000016,
      "d": 441.17600000000675,
      "v": 100
    },
    {
      "midi": 79,
      "hit": false,
      "t": 80294.03200000014,
      "d": 220.58800000000338,
      "v": 100
    },
    {
      "midi": 64,
      "hit": false,
      "t": 80294.03200000017,
      "d": 441.17600000000675,
      "v": 100
    },
    {
      "midi": 69,
      "hit": false,
      "t": 80294.03200000017,
      "d": 441.17600000000675,
      "v": 100
    },
    {
      "midi": 73,
      "hit": false,
      "t": 80294.03200000017,
      "d": 441.17600000000675,
      "v": 100
    },
    {
      "midi": 77,
      "hit": false,
      "t": 80514.62000000014,
      "d": 220.58800000000338,
      "v": 100
    },
    {
      "midi": 76,
      "hit": false,
      "t": 80735.20800000014,
      "d": 220.58800000000338,
      "v": 100
    },
    {
      "midi": 64,
      "hit": false,
      "t": 80735.20800000017,
      "d": 441.17600000000675,
      "v": 100
    },
    {
      "midi": 74,
      "hit": false,
      "t": 81176.38400000015,
      "d": 661.7639999999956,
      "v": 100
    },
    {
      "midi": 62,
      "hit": false,
      "t": 81176.38400000018,
      "d": 441.17600000000675,
      "v": 100
    },
    {
      "midi": 65,
      "hit": false,
      "t": 81176.38400000018,
      "d": 441.17600000000675,
      "v": 100
    },
    {
      "midi": 69,
      "hit": false,
      "t": 81176.38400000018,
      "d": 441.17600000000675,
      "v": 100
    },
    {
      "midi": 74,
      "hit": false,
      "t": 81176.38400000018,
      "d": 441.17600000000675,
      "v": 100
    },
    {
      "midi": 65,
      "hit": false,
      "t": 81617.56000000019,
      "d": 441.17600000000675,
      "v": 100
    },
    {
      "midi": 72,
      "hit": false,
      "t": 81838.14800000015,
      "d": 220.58800000000338,
      "v": 100
    },
    {
      "midi": 74,
      "hit": false,
      "t": 82058.73600000015,
      "d": 661.7640000000101,
      "v": 100
    },
    {
      "midi": 69,
      "hit": false,
      "t": 82058.7360000002,
      "d": 441.17600000000675,
      "v": 100
    },
    {
      "midi": 74,
      "hit": false,
      "t": 82058.7360000002,
      "d": 441.17600000000675,
      "v": 100
    },
    {
      "midi": 76,
      "hit": false,
      "t": 82499.91200000016,
      "d": 220.58800000000338,
      "v": 100
    },
    {
      "midi": 65,
      "hit": false,
      "t": 82499.9120000002,
      "d": 441.17600000000675,
      "v": 100
    },
    {
      "midi": 77,
      "hit": false,
      "t": 82941.08800000016,
      "d": 882.351999999999,
      "v": 100
    },
    {
      "midi": 62,
      "hit": false,
      "t": 82941.0880000002,
      "d": 441.17600000000675,
      "v": 100
    },
    {
      "midi": 69,
      "hit": false,
      "t": 82941.0880000002,
      "d": 441.17600000000675,
      "v": 100
    },
    {
      "midi": 74,
      "hit": false,
      "t": 82941.0880000002,
      "d": 441.17600000000675,
      "v": 100
    },
    {
      "midi": 65,
      "hit": false,
      "t": 83382.26400000021,
      "d": 441.17600000000675,
      "v": 100
    },
    {
      "midi": 69,
      "hit": false,
      "t": 83823.44000000022,
      "d": 441.17600000000675,
      "v": 100
    },
    {
      "midi": 74,
      "hit": false,
      "t": 83823.44000000022,
      "d": 441.17600000000675,
      "v": 100
    },
    {
      "midi": 65,
      "hit": false,
      "t": 84264.61600000023,
      "d": 441.17600000000675,
      "v": 100
    },
    {
      "midi": 81,
      "hit": false,
      "t": 84485.20400000016,
      "d": 220.58800000000338,
      "v": 100
    },
    {
      "midi": 83,
      "hit": false,
      "t": 84705.79200000016,
      "d": 441.17600000000675,
      "v": 100
    },
    {
      "midi": 59,
      "hit": false,
      "t": 84705.79200000023,
      "d": 441.17600000000675,
      "v": 100
    },
    {
      "midi": 63,
      "hit": false,
      "t": 84705.79200000023,
      "d": 441.17600000000675,
      "v": 100
    },
    {
      "midi": 66,
      "hit": false,
      "t": 84705.79200000023,
      "d": 441.17600000000675,
      "v": 100
    },
    {
      "midi": 71,
      "hit": false,
      "t": 84705.79200000023,
      "d": 441.17600000000675,
      "v": 100
    },
    {
      "midi": 83,
      "hit": false,
      "t": 85146.96800000017,
      "d": 441.17600000000675,
      "v": 100
    },
    {
      "midi": 63,
      "hit": false,
      "t": 85146.96800000024,
      "d": 441.17600000000675,
      "v": 100
    },
    {
      "midi": 83,
      "hit": false,
      "t": 85588.14400000017,
      "d": 441.17600000000675,
      "v": 100
    },
    {
      "midi": 66,
      "hit": false,
      "t": 85588.14400000025,
      "d": 441.17600000000675,
      "v": 100
    },
    {
      "midi": 71,
      "hit": false,
      "t": 85588.14400000025,
      "d": 441.17600000000675,
      "v": 100
    },
    {
      "midi": 75,
      "hit": false,
      "t": 85588.14400000025,
      "d": 441.17600000000675,
      "v": 100
    },
    {
      "midi": 63,
      "hit": false,
      "t": 86029.32000000025,
      "d": 441.17600000000675,
      "v": 100
    },
    {
      "midi": 59,
      "hit": false,
      "t": 86470.49600000026,
      "d": 441.17600000000675,
      "v": 100
    },
    {
      "midi": 63,
      "hit": false,
      "t": 86470.49600000026,
      "d": 441.17600000000675,
      "v": 100
    },
    {
      "midi": 66,
      "hit": false,
      "t": 86470.49600000026,
      "d": 441.17600000000675,
      "v": 100
    },
    {
      "midi": 71,
      "hit": false,
      "t": 86470.49600000026,
      "d": 441.17600000000675,
      "v": 100
    },
    {
      "midi": 80,
      "hit": false,
      "t": 86911.67200000018,
      "d": 441.17600000000675,
      "v": 100
    },
    {
      "midi": 63,
      "hit": false,
      "t": 86911.67200000027,
      "d": 441.17600000000675,
      "v": 100
    },
    {
      "midi": 81,
      "hit": false,
      "t": 87352.84800000019,
      "d": 441.17600000000675,
      "v": 100
    },
    {
      "midi": 66,
      "hit": false,
      "t": 87352.84800000027,
      "d": 441.17600000000675,
      "v": 100
    },
    {
      "midi": 71,
      "hit": false,
      "t": 87352.84800000027,
      "d": 441.17600000000675,
      "v": 100
    },
    {
      "midi": 75,
      "hit": false,
      "t": 87352.84800000027,
      "d": 441.17600000000675,
      "v": 100
    },
    {
      "midi": 83,
      "hit": false,
      "t": 87794.0240000002,
      "d": 220.58800000000338,
      "v": 100
    },
    {
      "midi": 63,
      "hit": false,
      "t": 87794.02400000028,
      "d": 441.17600000000675,
      "v": 100
    },
    {
      "midi": 83,
      "hit": false,
      "t": 88235.2000000002,
      "d": 1764.703999999998,
      "v": 100
    },
    {
      "midi": 52,
      "hit": false,
      "t": 88235.20000000029,
      "d": 441.17600000000675,
      "v": 100
    },
    {
      "midi": 64,
      "hit": false,
      "t": 88235.20000000029,
      "d": 441.17600000000675,
      "v": 100
    },
    {
      "midi": 68,
      "hit": false,
      "t": 88235.20000000029,
      "d": 441.17600000000675,
      "v": 100
    },
    {
      "midi": 71,
      "hit": false,
      "t": 88235.20000000029,
      "d": 441.17600000000675,
      "v": 100
    },
    {
      "midi": 64,
      "hit": false,
      "t": 88676.3760000003,
      "d": 441.17600000000675,
      "v": 100
    },
    {
      "midi": 68,
      "hit": false,
      "t": 89117.5520000003,
      "d": 441.17600000000675,
      "v": 100
    },
    {
      "midi": 71,
      "hit": false,
      "t": 89117.5520000003,
      "d": 441.17600000000675,
      "v": 100
    },
    {
      "midi": 76,
      "hit": false,
      "t": 89117.5520000003,
      "d": 441.17600000000675,
      "v": 100
    },
    {
      "midi": 64,
      "hit": false,
      "t": 89558.72800000031,
      "d": 441.17600000000675,
      "v": 100
    },
    {
      "midi": 52,
      "hit": false,
      "t": 89999.90400000032,
      "d": 441.17600000000675,
      "v": 100
    },
    {
      "midi": 59,
      "hit": false,
      "t": 89999.90400000032,
      "d": 441.17600000000675,
      "v": 100
    },
    {
      "midi": 64,
      "hit": false,
      "t": 90441.08000000032,
      "d": 441.17600000000675,
      "v": 100
    },
    {
      "midi": 68,
      "hit": false,
      "t": 90882.25600000033,
      "d": 441.17600000000675,
      "v": 100
    },
    {
      "midi": 71,
      "hit": false,
      "t": 90882.25600000033,
      "d": 441.17600000000675,
      "v": 100
    },
    {
      "midi": 76,
      "hit": false,
      "t": 90882.25600000033,
      "d": 441.17600000000675,
      "v": 100
    },
    {
      "midi": 64,
      "hit": false,
      "t": 91323.43200000034,
      "d": 441.17600000000675,
      "v": 100
    },
    {
      "midi": 52,
      "hit": false,
      "t": 91764.60800000034,
      "d": 441.17600000000675,
      "v": 100
    },
    {
      "midi": 64,
      "hit": false,
      "t": 91764.60800000034,
      "d": 441.17600000000675,
      "v": 100
    },
    {
      "midi": 68,
      "hit": false,
      "t": 91764.60800000034,
      "d": 441.17600000000675,
      "v": 100
    },
    {
      "midi": 71,
      "hit": false,
      "t": 91764.60800000034,
      "d": 441.17600000000675,
      "v": 100
    },
    {
      "midi": 64,
      "hit": false,
      "t": 92205.78400000035,
      "d": 441.17600000000675,
      "v": 100
    },
    {
      "midi": 68,
      "hit": false,
      "t": 92646.96000000036,
      "d": 441.17600000000675,
      "v": 100
    },
    {
      "midi": 71,
      "hit": false,
      "t": 92646.96000000036,
      "d": 441.17600000000675,
      "v": 100
    },
    {
      "midi": 76,
      "hit": false,
      "t": 92646.96000000036,
      "d": 441.17600000000675,
      "v": 100
    },
    {
      "midi": 64,
      "hit": false,
      "t": 93088.13600000036,
      "d": 441.17600000000675,
      "v": 100
    },
    {
      "midi": 52,
      "hit": false,
      "t": 93529.31200000037,
      "d": 441.17600000000675,
      "v": 100
    },
    {
      "midi": 59,
      "hit": false,
      "t": 93529.31200000037,
      "d": 441.17600000000675,
      "v": 100
    },
    {
      "midi": 64,
      "hit": false,
      "t": 93970.48800000038,
      "d": 441.17600000000675,
      "v": 100
    },
    {
      "midi": 68,
      "hit": false,
      "t": 94411.66400000038,
      "d": 441.17600000000675,
      "v": 100
    },
    {
      "midi": 71,
      "hit": false,
      "t": 94411.66400000038,
      "d": 441.17600000000675,
      "v": 100
    },
    {
      "midi": 76,
      "hit": false,
      "t": 94411.66400000038,
      "d": 441.17600000000675,
      "v": 100
    },
    {
      "midi": 64,
      "hit": false,
      "t": 94852.84000000039,
      "d": 441.17600000000675,
      "v": 100
    },
    {
      "midi": 57,
      "hit": false,
      "t": 95294.0160000004,
      "d": 882.3520000000135,
      "v": 100
    },
    {
      "midi": 69,
      "hit": false,
      "t": 95294.0160000004,
      "d": 882.3520000000135,
      "v": 100
    },
    {
      "midi": 72,
      "hit": false,
      "t": 95294.0160000004,
      "d": 882.3520000000135,
      "v": 100
    },
    {
      "midi": 64,
      "hit": false,
      "t": 95735.1920000004,
      "d": 441.17600000000675,
      "v": 100
    },
    {
      "midi": 69,
      "hit": false,
      "t": 96176.36800000041,
      "d": 882.3520000000135,
      "v": 100
    },
    {
      "midi": 72,
      "hit": false,
      "t": 96176.36800000041,
      "d": 882.3520000000135,
      "v": 100
    },
    {
      "midi": 76,
      "hit": false,
      "t": 96176.36800000041,
      "d": 882.3520000000135,
      "v": 100
    },
    {
      "midi": 72,
      "hit": false,
      "t": 96617.5440000002,
      "d": 220.58800000000338,
      "v": 100
    },
    {
      "midi": 64,
      "hit": false,
      "t": 96617.54400000042,
      "d": 441.17600000000675,
      "v": 100
    },
    {
      "midi": 74,
      "hit": false,
      "t": 96838.1320000002,
      "d": 220.58800000000338,
      "v": 100
    },
    {
      "midi": 76,
      "hit": false,
      "t": 97058.7200000002,
      "d": 661.7639999999956,
      "v": 100
    },
    {
      "midi": 57,
      "hit": false,
      "t": 97058.72000000042,
      "d": 441.17600000000675,
      "v": 100
    },
    {
      "midi": 69,
      "hit": false,
      "t": 97058.72000000042,
      "d": 441.17600000000675,
      "v": 100
    },
    {
      "midi": 64,
      "hit": false,
      "t": 97499.89600000043,
      "d": 441.17600000000675,
      "v": 100
    },
    {
      "midi": 72,
      "hit": false,
      "t": 97941.07200000044,
      "d": 441.17600000000675,
      "v": 100
    },
    {
      "midi": 76,
      "hit": false,
      "t": 97941.07200000044,
      "d": 441.17600000000675,
      "v": 100
    },
    {
      "midi": 69,
      "hit": false,
      "t": 97941.07200000044,
      "d": 882.3520000000135,
      "v": 100
    },
    {
      "midi": 64,
      "hit": false,
      "t": 98382.24800000044,
      "d": 441.17600000000675,
      "v": 100
    },
    {
      "midi": 69,
      "hit": false,
      "t": 98602.8360000002,
      "d": 220.58800000000338,
      "v": 100
    },
    {
      "midi": 72,
      "hit": false,
      "t": 98823.4240000002,
      "d": 220.58800000000338,
      "v": 100
    },
    {
      "midi": 52,
      "hit": false,
      "t": 98823.42400000045,
      "d": 882.3520000000135,
      "v": 100
    },
    {
      "midi": 67,
      "hit": false,
      "t": 98823.42400000045,
      "d": 882.3520000000135,
      "v": 100
    },
    {
      "midi": 71,
      "hit": false,
      "t": 98823.42400000045,
      "d": 882.3520000000135,
      "v": 100
    },
    {
      "midi": 71,
      "hit": false,
      "t": 99264.60000000021,
      "d": 220.58800000000338,
      "v": 100
    },
    {
      "midi": 64,
      "hit": false,
      "t": 99264.60000000046,
      "d": 441.17600000000675,
      "v": 100
    },
    {
      "midi": 71,
      "hit": false,
      "t": 99485.18800000021,
      "d": 661.7639999999956,
      "v": 100
    },
    {
      "midi": 67,
      "hit": false,
      "t": 99705.77600000046,
      "d": 882.3520000000135,
      "v": 100
    },
    {
      "midi": 71,
      "hit": false,
      "t": 99705.77600000046,
      "d": 882.3520000000135,
      "v": 100
    },
    {
      "midi": 76,
      "hit": false,
      "t": 99705.77600000046,
      "d": 882.3520000000135,
      "v": 100
    },
    {
      "midi": 64,
      "hit": false,
      "t": 100146.95200000047,
      "d": 441.17600000000675,
      "v": 100
    },
    {
      "midi": 52,
      "hit": false,
      "t": 100588.12800000048,
      "d": 882.3520000000135,
      "v": 100
    },
    {
      "midi": 67,
      "hit": false,
      "t": 100588.12800000048,
      "d": 882.3520000000135,
      "v": 100
    },
    {
      "midi": 64,
      "hit": false,
      "t": 101029.30400000048,
      "d": 441.17600000000675,
      "v": 100
    },
    {
      "midi": 67,
      "hit": false,
      "t": 101470.48000000049,
      "d": 882.3520000000135,
      "v": 100
    },
    {
      "midi": 71,
      "hit": false,
      "t": 101470.48000000049,
      "d": 882.3520000000135,
      "v": 100
    },
    {
      "midi": 76,
      "hit": false,
      "t": 101470.48000000049,
      "d": 882.3520000000135,
      "v": 100
    },
    {
      "midi": 64,
      "hit": false,
      "t": 101911.6560000005,
      "d": 441.17600000000675,
      "v": 100
    },
    {
      "midi": 50,
      "hit": false,
      "t": 102352.8320000005,
      "d": 882.3520000000135,
      "v": 100
    },
    {
      "midi": 65,
      "hit": false,
      "t": 102352.8320000005,
      "d": 882.3520000000135,
      "v": 100
    },
    {
      "midi": 69,
      "hit": false,
      "t": 102352.8320000005,
      "d": 882.3520000000135,
      "v": 100
    },
    {
      "midi": 62,
      "hit": false,
      "t": 102794.00800000051,
      "d": 441.17600000000675,
      "v": 100
    },
    {
      "midi": 65,
      "hit": false,
      "t": 103235.18400000052,
      "d": 882.3520000000135,
      "v": 100
    },
    {
      "midi": 69,
      "hit": false,
      "t": 103235.18400000052,
      "d": 882.3520000000135,
      "v": 100
    },
    {
      "midi": 74,
      "hit": false,
      "t": 103235.18400000052,
      "d": 882.3520000000135,
      "v": 100
    },
    {
      "midi": 74,
      "hit": false,
      "t": 103676.3600000002,
      "d": 220.58800000000338,
      "v": 100
    },
    {
      "midi": 62,
      "hit": false,
      "t": 103676.36000000052,
      "d": 441.17600000000675,
      "v": 100
    },
    {
      "midi": 76,
      "hit": false,
      "t": 103896.94800000021,
      "d": 220.58800000000338,
      "v": 100
    },
    {
      "midi": 77,
      "hit": false,
      "t": 104117.53600000021,
      "d": 882.351999999999,
      "v": 100
    },
    {
      "midi": 55,
      "hit": false,
      "t": 104117.53600000053,
      "d": 882.3520000000135,
      "v": 100
    },
    {
      "midi": 67,
      "hit": false,
      "t": 104117.53600000053,
      "d": 882.3520000000135,
      "v": 100
    },
    {
      "midi": 62,
      "hit": false,
      "t": 104558.71200000054,
      "d": 441.17600000000675,
      "v": 100
    },
    {
      "midi": 67,
      "hit": false,
      "t": 104999.88800000054,
      "d": 882.3520000000135,
      "v": 100
    },
    {
      "midi": 71,
      "hit": false,
      "t": 104999.88800000054,
      "d": 882.3520000000135,
      "v": 100
    },
    {
      "midi": 74,
      "hit": false,
      "t": 104999.88800000054,
      "d": 882.3520000000135,
      "v": 100
    },
    {
      "midi": 62,
      "hit": false,
      "t": 105441.06400000055,
      "d": 441.17600000000675,
      "v": 100
    },
    {
      "midi": 71,
      "hit": false,
      "t": 105661.6520000002,
      "d": 220.58800000000338,
      "v": 100
    },
    {
      "midi": 74,
      "hit": false,
      "t": 105882.24000000021,
      "d": 441.17600000000675,
      "v": 100
    },
    {
      "midi": 60,
      "hit": false,
      "t": 105882.24000000056,
      "d": 882.3520000000135,
      "v": 100
    },
    {
      "midi": 67,
      "hit": false,
      "t": 105882.24000000056,
      "d": 882.3520000000135,
      "v": 100
    },
    {
      "midi": 72,
      "hit": false,
      "t": 106323.41600000022,
      "d": 220.58800000000338,
      "v": 100
    },
    {
      "midi": 64,
      "hit": false,
      "t": 106323.41600000056,
      "d": 441.17600000000675,
      "v": 100
    },
    {
      "midi": 72,
      "hit": false,
      "t": 106544.00400000022,
      "d": 661.7639999999956,
      "v": 100
    },
    {
      "midi": 67,
      "hit": false,
      "t": 106764.59200000057,
      "d": 882.3520000000135,
      "v": 100
    },
    {
      "midi": 72,
      "hit": false,
      "t": 106764.59200000057,
      "d": 882.3520000000135,
      "v": 100
    },
    {
      "midi": 64,
      "hit": false,
      "t": 107205.76800000058,
      "d": 441.17600000000675,
      "v": 100
    },
    {
      "midi": 60,
      "hit": false,
      "t": 107646.94400000059,
      "d": 882.3520000000135,
      "v": 100
    },
    {
      "midi": 67,
      "hit": false,
      "t": 107646.94400000059,
      "d": 882.3520000000135,
      "v": 100
    },
    {
      "midi": 64,
      "hit": false,
      "t": 108088.12000000059,
      "d": 441.17600000000675,
      "v": 100
    },
    {
      "midi": 67,
      "hit": false,
      "t": 108529.2960000006,
      "d": 882.3520000000135,
      "v": 100
    },
    {
      "midi": 72,
      "hit": false,
      "t": 108529.2960000006,
      "d": 882.3520000000135,
      "v": 100
    },
    {
      "midi": 64,
      "hit": false,
      "t": 108970.4720000006,
      "d": 441.17600000000675,
      "v": 100
    },
    {
      "midi": 76,
      "hit": false,
      "t": 109411.64800000022,
      "d": 882.351999999999,
      "v": 100
    },
    {
      "midi": 57,
      "hit": false,
      "t": 109411.64800000061,
      "d": 882.3520000000135,
      "v": 100
    },
    {
      "midi": 64,
      "hit": false,
      "t": 109411.64800000061,
      "d": 882.3520000000135,
      "v": 100
    },
    {
      "midi": 69,
      "hit": false,
      "t": 109411.64800000061,
      "d": 882.3520000000135,
      "v": 100
    },
    {
      "midi": 73,
      "hit": false,
      "t": 109411.64800000061,
      "d": 882.3520000000135,
      "v": 100
    },
    {
      "midi": 61,
      "hit": false,
      "t": 109852.82400000062,
      "d": 441.17600000000675,
      "v": 100
    },
    {
      "midi": 73,
      "hit": false,
      "t": 110073.41200000021,
      "d": 220.58800000000338,
      "v": 100
    },
    {
      "midi": 73,
      "hit": false,
      "t": 110294.00000000022,
      "d": 882.351999999999,
      "v": 100
    },
    {
      "midi": 69,
      "hit": false,
      "t": 110294.00000000063,
      "d": 882.3520000000135,
      "v": 100
    },
    {
      "midi": 73,
      "hit": false,
      "t": 110294.00000000063,
      "d": 882.3520000000135,
      "v": 100
    },
    {
      "midi": 76,
      "hit": false,
      "t": 110294.00000000063,
      "d": 882.3520000000135,
      "v": 100
    },
    {
      "midi": 61,
      "hit": false,
      "t": 110735.17600000063,
      "d": 441.17600000000675,
      "v": 100
    },
    {
      "midi": 57,
      "hit": false,
      "t": 111176.35200000064,
      "d": 441.17600000000675,
      "v": 100
    },
    {
      "midi": 69,
      "hit": false,
      "t": 111176.35200000064,
      "d": 441.17600000000675,
      "v": 100
    },
    {
      "midi": 61,
      "hit": false,
      "t": 111617.52800000065,
      "d": 441.17600000000675,
      "v": 100
    },
    {
      "midi": 69,
      "hit": false,
      "t": 111838.11600000021,
      "d": 220.58800000000338,
      "v": 100
    },
    {
      "midi": 76,
      "hit": false,
      "t": 112058.70400000022,
      "d": 441.17600000000675,
      "v": 100
    },
    {
      "midi": 73,
      "hit": false,
      "t": 112058.70400000065,
      "d": 441.17600000000675,
      "v": 100
    },
    {
      "midi": 76,
      "hit": false,
      "t": 112058.70400000065,
      "d": 441.17600000000675,
      "v": 100
    },
    {
      "midi": 69,
      "hit": false,
      "t": 112058.70400000065,
      "d": 882.3520000000135,
      "v": 100
    },
    {
      "midi": 73,
      "hit": false,
      "t": 112499.88000000022,
      "d": 441.17600000000675,
      "v": 100
    },
    {
      "midi": 61,
      "hit": false,
      "t": 112499.88000000066,
      "d": 441.17600000000675,
      "v": 100
    },
    {
      "midi": 74,
      "hit": false,
      "t": 112941.05600000023,
      "d": 441.17600000000675,
      "v": 100
    },
    {
      "midi": 50,
      "hit": false,
      "t": 112941.05600000067,
      "d": 882.3520000000135,
      "v": 100
    },
    {
      "midi": 65,
      "hit": false,
      "t": 112941.05600000067,
      "d": 882.3520000000135,
      "v": 100
    },
    {
      "midi": 69,
      "hit": false,
      "t": 112941.05600000067,
      "d": 882.3520000000135,
      "v": 100
    },
    {
      "midi": 76,
      "hit": false,
      "t": 113161.64400000023,
      "d": 220.58800000000338,
      "v": 100
    },
    {
      "midi": 77,
      "hit": false,
      "t": 113382.23200000024,
      "d": 882.351999999999,
      "v": 100
    },
    {
      "midi": 62,
      "hit": false,
      "t": 113382.23200000067,
      "d": 441.17600000000675,
      "v": 100
    },
    {
      "midi": 65,
      "hit": false,
      "t": 113823.40800000068,
      "d": 882.3520000000135,
      "v": 100
    },
    {
      "midi": 69,
      "hit": false,
      "t": 113823.40800000068,
      "d": 882.3520000000135,
      "v": 100
    },
    {
      "midi": 74,
      "hit": false,
      "t": 113823.40800000068,
      "d": 882.3520000000135,
      "v": 100
    },
    {
      "midi": 62,
      "hit": false,
      "t": 114264.58400000069,
      "d": 441.17600000000675,
      "v": 100
    },
    {
      "midi": 50,
      "hit": false,
      "t": 114705.7600000007,
      "d": 882.3520000000135,
      "v": 100
    },
    {
      "midi": 65,
      "hit": false,
      "t": 114705.7600000007,
      "d": 882.3520000000135,
      "v": 100
    },
    {
      "midi": 62,
      "hit": false,
      "t": 115146.9360000007,
      "d": 441.17600000000675,
      "v": 100
    },
    {
      "midi": 65,
      "hit": false,
      "t": 115588.1120000007,
      "d": 882.3520000000135,
      "v": 100
    },
    {
      "midi": 69,
      "hit": false,
      "t": 115588.1120000007,
      "d": 882.3520000000135,
      "v": 100
    },
    {
      "midi": 74,
      "hit": false,
      "t": 115588.1120000007,
      "d": 882.3520000000135,
      "v": 100
    },
    {
      "midi": 62,
      "hit": false,
      "t": 116029.28800000071,
      "d": 441.17600000000675,
      "v": 100
    },
    {
      "midi": 79,
      "hit": false,
      "t": 116470.46400000024,
      "d": 441.17600000000675,
      "v": 100
    },
    {
      "midi": 55,
      "hit": false,
      "t": 116470.46400000072,
      "d": 882.3520000000135,
      "v": 100
    },
    {
      "midi": 67,
      "hit": false,
      "t": 116470.46400000072,
      "d": 882.3520000000135,
      "v": 100
    },
    {
      "midi": 71,
      "hit": false,
      "t": 116470.46400000072,
      "d": 882.3520000000135,
      "v": 100
    },
    {
      "midi": 62,
      "hit": false,
      "t": 116911.64000000073,
      "d": 441.17600000000675,
      "v": 100
    },
    {
      "midi": 74,
      "hit": false,
      "t": 117132.22800000025,
      "d": 220.58800000000338,
      "v": 100
    },
    {
      "midi": 74,
      "hit": false,
      "t": 117352.81600000025,
      "d": 220.58800000000338,
      "v": 100
    },
    {
      "midi": 67,
      "hit": false,
      "t": 117352.81600000073,
      "d": 882.3520000000135,
      "v": 100
    },
    {
      "midi": 71,
      "hit": false,
      "t": 117352.81600000073,
      "d": 882.3520000000135,
      "v": 100
    },
    {
      "midi": 74,
      "hit": false,
      "t": 117352.81600000073,
      "d": 882.3520000000135,
      "v": 100
    },
    {
      "midi": 62,
      "hit": false,
      "t": 117793.99200000074,
      "d": 441.17600000000675,
      "v": 100
    },
    {
      "midi": 55,
      "hit": false,
      "t": 118235.16800000075,
      "d": 882.3520000000135,
      "v": 100
    },
    {
      "midi": 67,
      "hit": false,
      "t": 118235.16800000075,
      "d": 882.3520000000135,
      "v": 100
    },
    {
      "midi": 62,
      "hit": false,
      "t": 118676.34400000075,
      "d": 441.17600000000675,
      "v": 100
    },
    {
      "midi": 71,
      "hit": false,
      "t": 119117.52000000025,
      "d": 882.3520000000135,
      "v": 100
    },
    {
      "midi": 67,
      "hit": false,
      "t": 119117.52000000076,
      "d": 882.3520000000135,
      "v": 100
    },
    {
      "midi": 71,
      "hit": false,
      "t": 119117.52000000076,
      "d": 882.3520000000135,
      "v": 100
    },
    {
      "midi": 74,
      "hit": false,
      "t": 119117.52000000076,
      "d": 882.3520000000135,
      "v": 100
    },
    {
      "midi": 72,
      "hit": false,
      "t": 119338.10800000025,
      "d": 441.17600000000675,
      "v": 100
    },
    {
      "midi": 74,
      "hit": false,
      "t": 119558.69600000026,
      "d": 441.17600000000675,
      "v": 100
    },
    {
      "midi": 62,
      "hit": false,
      "t": 119558.69600000077,
      "d": 441.17600000000675,
      "v": 100
    },
    {
      "midi": 77,
      "hit": false,
      "t": 119999.87200000026,
      "d": 441.17600000000675,
      "v": 100
    },
    {
      "midi": 60,
      "hit": false,
      "t": 119999.87200000077,
      "d": 882.3520000000135,
      "v": 100
    },
    {
      "midi": 67,
      "hit": false,
      "t": 119999.87200000077,
      "d": 882.3520000000135,
      "v": 100
    },
    {
      "midi": 64,
      "hit": false,
      "t": 120441.04800000078,
      "d": 441.17600000000675,
      "v": 100
    },
    {
      "midi": 76,
      "hit": false,
      "t": 120661.63600000028,
      "d": 220.58800000000338,
      "v": 100
    },
    {
      "midi": 76,
      "hit": false,
      "t": 120882.22400000028,
      "d": 1764.703999999998,
      "v": 100
    },
    {
      "midi": 67,
      "hit": false,
      "t": 120882.22400000079,
      "d": 882.3520000000135,
      "v": 100
    },
    {
      "midi": 72,
      "hit": false,
      "t": 120882.22400000079,
      "d": 882.3520000000135,
      "v": 100
    },
    {
      "midi": 64,
      "hit": false,
      "t": 121323.4000000008,
      "d": 441.17600000000675,
      "v": 100
    },
    {
      "midi": 60,
      "hit": false,
      "t": 121764.5760000008,
      "d": 882.3520000000135,
      "v": 100
    },
    {
      "midi": 67,
      "hit": false,
      "t": 121764.5760000008,
      "d": 882.3520000000135,
      "v": 100
    },
    {
      "midi": 64,
      "hit": false,
      "t": 122205.75200000081,
      "d": 441.17600000000675,
      "v": 100
    },
    {
      "midi": 67,
      "hit": false,
      "t": 122646.92800000081,
      "d": 882.3520000000135,
      "v": 100
    },
    {
      "midi": 72,
      "hit": false,
      "t": 122646.92800000081,
      "d": 882.3520000000135,
      "v": 100
    },
    {
      "midi": 64,
      "hit": false,
      "t": 123088.10400000082,
      "d": 441.17600000000675,
      "v": 100
    },
    {
      "midi": 81,
      "hit": false,
      "t": 123529.28000000028,
      "d": 441.17600000000675,
      "v": 100
    },
    {
      "midi": 57,
      "hit": false,
      "t": 123529.28000000083,
      "d": 882.3520000000135,
      "v": 100
    },
    {
      "midi": 64,
      "hit": false,
      "t": 123529.28000000083,
      "d": 882.3520000000135,
      "v": 100
    },
    {
      "midi": 69,
      "hit": false,
      "t": 123529.28000000083,
      "d": 882.3520000000135,
      "v": 100
    },
    {
      "midi": 73,
      "hit": false,
      "t": 123529.28000000083,
      "d": 882.3520000000135,
      "v": 100
    },
    {
      "midi": 61,
      "hit": false,
      "t": 123970.45600000084,
      "d": 441.17600000000675,
      "v": 100
    },
    {
      "midi": 76,
      "hit": false,
      "t": 124191.04400000029,
      "d": 220.58800000000338,
      "v": 100
    },
    {
      "midi": 76,
      "hit": false,
      "t": 124411.63200000029,
      "d": 1764.703999999998,
      "v": 100
    },
    {
      "midi": 69,
      "hit": false,
      "t": 124411.63200000084,
      "d": 882.3520000000135,
      "v": 100
    },
    {
      "midi": 73,
      "hit": false,
      "t": 124411.63200000084,
      "d": 882.3520000000135,
      "v": 100
    },
    {
      "midi": 76,
      "hit": false,
      "t": 124411.63200000084,
      "d": 882.3520000000135,
      "v": 100
    },
    {
      "midi": 61,
      "hit": false,
      "t": 124852.80800000085,
      "d": 441.17600000000675,
      "v": 100
    },
    {
      "midi": 57,
      "hit": false,
      "t": 125293.98400000086,
      "d": 441.17600000000675,
      "v": 100
    },
    {
      "midi": 69,
      "hit": false,
      "t": 125293.98400000086,
      "d": 441.17600000000675,
      "v": 100
    },
    {
      "midi": 61,
      "hit": false,
      "t": 125735.16000000086,
      "d": 441.17600000000675,
      "v": 100
    },
    {
      "midi": 73,
      "hit": false,
      "t": 126176.33600000029,
      "d": 220.58800000000338,
      "v": 100
    },
    {
      "midi": 73,
      "hit": false,
      "t": 126176.33600000087,
      "d": 441.17600000000675,
      "v": 100
    },
    {
      "midi": 76,
      "hit": false,
      "t": 126176.33600000087,
      "d": 441.17600000000675,
      "v": 100
    },
    {
      "midi": 69,
      "hit": false,
      "t": 126176.33600000087,
      "d": 882.3520000000135,
      "v": 100
    },
    {
      "midi": 74,
      "hit": false,
      "t": 126396.92400000029,
      "d": 220.58800000000338,
      "v": 100
    },
    {
      "midi": 76,
      "hit": false,
      "t": 126617.5120000003,
      "d": 220.58800000000338,
      "v": 100
    },
    {
      "midi": 61,
      "hit": false,
      "t": 126617.51200000088,
      "d": 441.17600000000675,
      "v": 100
    },
    {
      "midi": 79,
      "hit": false,
      "t": 127058.6880000003,
      "d": 441.17600000000675,
      "v": 100
    },
    {
      "midi": 50,
      "hit": false,
      "t": 127058.68800000088,
      "d": 882.3520000000135,
      "v": 100
    },
    {
      "midi": 65,
      "hit": false,
      "t": 127058.68800000088,
      "d": 882.3520000000135,
      "v": 100
    },
    {
      "midi": 69,
      "hit": false,
      "t": 127058.68800000088,
      "d": 882.3520000000135,
      "v": 100
    },
    {
      "midi": 62,
      "hit": false,
      "t": 127499.86400000089,
      "d": 441.17600000000675,
      "v": 100
    },
    {
      "midi": 77,
      "hit": false,
      "t": 127720.45200000031,
      "d": 220.58800000000338,
      "v": 100
    },
    {
      "midi": 77,
      "hit": false,
      "t": 127941.04000000031,
      "d": 1764.703999999998,
      "v": 100
    },
    {
      "midi": 65,
      "hit": false,
      "t": 127941.0400000009,
      "d": 882.3520000000135,
      "v": 100
    },
    {
      "midi": 69,
      "hit": false,
      "t": 127941.0400000009,
      "d": 882.3520000000135,
      "v": 100
    },
    {
      "midi": 74,
      "hit": false,
      "t": 127941.0400000009,
      "d": 882.3520000000135,
      "v": 100
    },
    {
      "midi": 62,
      "hit": false,
      "t": 128382.2160000009,
      "d": 441.17600000000675,
      "v": 100
    },
    {
      "midi": 50,
      "hit": false,
      "t": 128823.39200000091,
      "d": 882.3520000000135,
      "v": 100
    },
    {
      "midi": 65,
      "hit": false,
      "t": 128823.39200000091,
      "d": 882.3520000000135,
      "v": 100
    },
    {
      "midi": 62,
      "hit": false,
      "t": 129264.56800000092,
      "d": 441.17600000000675,
      "v": 100
    },
    {
      "midi": 65,
      "hit": false,
      "t": 129705.74400000092,
      "d": 882.3520000000135,
      "v": 100
    },
    {
      "midi": 69,
      "hit": false,
      "t": 129705.74400000092,
      "d": 882.3520000000135,
      "v": 100
    },
    {
      "midi": 74,
      "hit": false,
      "t": 129705.74400000092,
      "d": 882.3520000000135,
      "v": 100
    },
    {
      "midi": 62,
      "hit": false,
      "t": 130146.92000000093,
      "d": 441.17600000000675,
      "v": 100
    },
    {
      "midi": 83,
      "hit": false,
      "t": 130588.09600000031,
      "d": 441.17600000000675,
      "v": 100
    },
    {
      "midi": 59,
      "hit": false,
      "t": 130588.09600000094,
      "d": 441.17600000000675,
      "v": 100
    },
    {
      "midi": 63,
      "hit": false,
      "t": 130588.09600000094,
      "d": 441.17600000000675,
      "v": 100
    },
    {
      "midi": 66,
      "hit": false,
      "t": 130588.09600000094,
      "d": 441.17600000000675,
      "v": 100
    },
    {
      "midi": 71,
      "hit": false,
      "t": 130588.09600000094,
      "d": 441.17600000000675,
      "v": 100
    },
    {
      "midi": 78,
      "hit": false,
      "t": 131029.27200000032,
      "d": 441.17600000000675,
      "v": 100
    },
    {
      "midi": 63,
      "hit": false,
      "t": 131029.27200000094,
      "d": 441.1759999999922,
      "v": 100
    },
    {
      "midi": 78,
      "hit": false,
      "t": 131470.44800000032,
      "d": 1764.703999999998,
      "v": 100
    },
    {
      "midi": 66,
      "hit": false,
      "t": 131470.44800000094,
      "d": 441.17600000000675,
      "v": 100
    },
    {
      "midi": 71,
      "hit": false,
      "t": 131470.44800000094,
      "d": 441.17600000000675,
      "v": 100
    },
    {
      "midi": 75,
      "hit": false,
      "t": 131470.44800000094,
      "d": 441.17600000000675,
      "v": 100
    },
    {
      "midi": 63,
      "hit": false,
      "t": 131911.62400000094,
      "d": 441.17600000000675,
      "v": 100
    },
    {
      "midi": 59,
      "hit": false,
      "t": 132352.80000000095,
      "d": 441.17600000000675,
      "v": 100
    },
    {
      "midi": 66,
      "hit": false,
      "t": 132352.80000000095,
      "d": 441.17600000000675,
      "v": 100
    },
    {
      "midi": 63,
      "hit": false,
      "t": 132793.97600000096,
      "d": 441.17600000000675,
      "v": 100
    },
    {
      "midi": 81,
      "hit": false,
      "t": 133235.15200000032,
      "d": 441.17600000000675,
      "v": 100
    },
    {
      "midi": 66,
      "hit": false,
      "t": 133235.15200000096,
      "d": 441.17600000000675,
      "v": 100
    },
    {
      "midi": 71,
      "hit": false,
      "t": 133235.15200000096,
      "d": 441.17600000000675,
      "v": 100
    },
    {
      "midi": 75,
      "hit": false,
      "t": 133235.15200000096,
      "d": 441.17600000000675,
      "v": 100
    },
    {
      "midi": 83,
      "hit": false,
      "t": 133676.32800000033,
      "d": 441.17600000000675,
      "v": 100
    },
    {
      "midi": 63,
      "hit": false,
      "t": 133676.32800000097,
      "d": 441.17600000000675,
      "v": 100
    },
    {
      "midi": 80,
      "hit": false,
      "t": 134117.50400000034,
      "d": 2647.0560000000114,
      "v": 100
    },
    {
      "midi": 52,
      "hit": false,
      "t": 134117.50400000098,
      "d": 441.17600000000675,
      "v": 100
    },
    {
      "midi": 64,
      "hit": false,
      "t": 134117.50400000098,
      "d": 441.17600000000675,
      "v": 100
    },
    {
      "midi": 68,
      "hit": false,
      "t": 134117.50400000098,
      "d": 441.17600000000675,
      "v": 100
    },
    {
      "midi": 71,
      "hit": false,
      "t": 134117.50400000098,
      "d": 441.17600000000675,
      "v": 100
    },
    {
      "midi": 64,
      "hit": false,
      "t": 134558.68000000098,
      "d": 441.17600000000675,
      "v": 100
    },
    {
      "midi": 68,
      "hit": false,
      "t": 134999.856000001,
      "d": 441.17600000000675,
      "v": 100
    },
    {
      "midi": 71,
      "hit": false,
      "t": 134999.856000001,
      "d": 441.17600000000675,
      "v": 100
    },
    {
      "midi": 76,
      "hit": false,
      "t": 134999.856000001,
      "d": 441.17600000000675,
      "v": 100
    },
    {
      "midi": 64,
      "hit": false,
      "t": 135441.032000001,
      "d": 441.17600000000675,
      "v": 100
    },
    {
      "midi": 52,
      "hit": false,
      "t": 135882.208000001,
      "d": 441.17600000000675,
      "v": 100
    },
    {
      "midi": 59,
      "hit": false,
      "t": 135882.208000001,
      "d": 441.17600000000675,
      "v": 100
    },
    {
      "midi": 64,
      "hit": false,
      "t": 136323.384000001,
      "d": 441.17600000000675,
      "v": 100
    },
    {
      "midi": 68,
      "hit": false,
      "t": 136764.56000000102,
      "d": 441.17600000000675,
      "v": 100
    },
    {
      "midi": 71,
      "hit": false,
      "t": 136764.56000000102,
      "d": 441.17600000000675,
      "v": 100
    },
    {
      "midi": 76,
      "hit": false,
      "t": 136764.56000000102,
      "d": 441.17600000000675,
      "v": 100
    },
    {
      "midi": 64,
      "hit": false,
      "t": 137205.73600000102,
      "d": 441.17600000000675,
      "v": 100
    },
    {
      "midi": 52,
      "hit": false,
      "t": 137646.91200000103,
      "d": 441.17600000000675,
      "v": 100
    },
    {
      "midi": 64,
      "hit": false,
      "t": 137646.91200000103,
      "d": 441.17600000000675,
      "v": 100
    },
    {
      "midi": 68,
      "hit": false,
      "t": 137646.91200000103,
      "d": 441.17600000000675,
      "v": 100
    },
    {
      "midi": 71,
      "hit": false,
      "t": 137646.91200000103,
      "d": 441.17600000000675,
      "v": 100
    },
    {
      "midi": 64,
      "hit": false,
      "t": 138088.08800000104,
      "d": 441.17600000000675,
      "v": 100
    },
    {
      "midi": 68,
      "hit": false,
      "t": 138529.26400000104,
      "d": 441.17600000000675,
      "v": 100
    },
    {
      "midi": 71,
      "hit": false,
      "t": 138529.26400000104,
      "d": 441.17600000000675,
      "v": 100
    },
    {
      "midi": 76,
      "hit": false,
      "t": 138529.26400000104,
      "d": 441.17600000000675,
      "v": 100
    },
    {
      "midi": 64,
      "hit": false,
      "t": 138970.44000000105,
      "d": 441.17600000000675,
      "v": 100
    },
    {
      "midi": 52,
      "hit": false,
      "t": 139411.61600000106,
      "d": 441.17600000000675,
      "v": 100
    },
    {
      "midi": 59,
      "hit": false,
      "t": 139411.61600000106,
      "d": 441.17600000000675,
      "v": 100
    },
    {
      "midi": 64,
      "hit": false,
      "t": 139852.79200000106,
      "d": 441.17600000000675,
      "v": 100
    },
    {
      "midi": 68,
      "hit": false,
      "t": 140293.96800000107,
      "d": 441.17600000000675,
      "v": 100
    },
    {
      "midi": 71,
      "hit": false,
      "t": 140293.96800000107,
      "d": 441.17600000000675,
      "v": 100
    },
    {
      "midi": 76,
      "hit": false,
      "t": 140293.96800000107,
      "d": 441.17600000000675,
      "v": 100
    },
    {
      "midi": 76,
      "hit": false,
      "t": 140735.14400000035,
      "d": 441.17600000000675,
      "v": 100
    },
    {
      "midi": 64,
      "hit": false,
      "t": 140735.14400000108,
      "d": 441.17600000000675,
      "v": 100
    },
    {
      "midi": 81,
      "hit": false,
      "t": 141176.32000000036,
      "d": 441.17600000000675,
      "v": 100
    },
    {
      "midi": 57,
      "hit": false,
      "t": 141176.32000000108,
      "d": 441.17600000000675,
      "v": 100
    },
    {
      "midi": 64,
      "hit": false,
      "t": 141176.32000000108,
      "d": 441.17600000000675,
      "v": 100
    },
    {
      "midi": 69,
      "hit": false,
      "t": 141176.32000000108,
      "d": 441.17600000000675,
      "v": 100
    },
    {
      "midi": 73,
      "hit": false,
      "t": 141176.32000000108,
      "d": 441.17600000000675,
      "v": 100
    },
    {
      "midi": 81,
      "hit": false,
      "t": 141617.49600000036,
      "d": 441.17600000000675,
      "v": 100
    },
    {
      "midi": 64,
      "hit": false,
      "t": 141617.4960000011,
      "d": 441.17600000000675,
      "v": 100
    },
    {
      "midi": 81,
      "hit": false,
      "t": 142058.67200000037,
      "d": 882.3520000000135,
      "v": 100
    },
    {
      "midi": 69,
      "hit": false,
      "t": 142058.6720000011,
      "d": 441.17600000000675,
      "v": 100
    },
    {
      "midi": 73,
      "hit": false,
      "t": 142058.6720000011,
      "d": 441.17600000000675,
      "v": 100
    },
    {
      "midi": 64,
      "hit": false,
      "t": 142499.8480000011,
      "d": 441.17600000000675,
      "v": 100
    },
    {
      "midi": 57,
      "hit": false,
      "t": 142941.0240000011,
      "d": 441.17600000000675,
      "v": 100
    },
    {
      "midi": 69,
      "hit": false,
      "t": 142941.0240000011,
      "d": 441.17600000000675,
      "v": 100
    },
    {
      "midi": 73,
      "hit": false,
      "t": 142941.0240000011,
      "d": 441.17600000000675,
      "v": 100
    },
    {
      "midi": 64,
      "hit": false,
      "t": 143382.20000000112,
      "d": 441.17600000000675,
      "v": 100
    },
    {
      "midi": 79,
      "hit": false,
      "t": 143823.3760000004,
      "d": 441.17599999997765,
      "v": 100
    },
    {
      "midi": 64,
      "hit": false,
      "t": 143823.37600000112,
      "d": 441.17600000000675,
      "v": 100
    },
    {
      "midi": 69,
      "hit": false,
      "t": 143823.37600000112,
      "d": 441.17600000000675,
      "v": 100
    },
    {
      "midi": 73,
      "hit": false,
      "t": 143823.37600000112,
      "d": 441.17600000000675,
      "v": 100
    },
    {
      "midi": 77,
      "hit": false,
      "t": 144043.9640000004,
      "d": 220.58799999998882,
      "v": 100
    },
    {
      "midi": 76,
      "hit": false,
      "t": 144264.55200000037,
      "d": 441.17600000000675,
      "v": 100
    },
    {
      "midi": 64,
      "hit": false,
      "t": 144264.55200000113,
      "d": 441.17600000000675,
      "v": 100
    },
    {
      "midi": 76,
      "hit": false,
      "t": 144705.72800000038,
      "d": 294.11733333332813,
      "v": 100
    },
    {
      "midi": 62,
      "hit": false,
      "t": 144705.72800000114,
      "d": 441.17600000000675,
      "v": 100
    },
    {
      "midi": 65,
      "hit": false,
      "t": 144705.72800000114,
      "d": 441.17600000000675,
      "v": 100
    },
    {
      "midi": 69,
      "hit": false,
      "t": 144705.72800000114,
      "d": 441.17600000000675,
      "v": 100
    },
    {
      "midi": 74,
      "hit": false,
      "t": 144705.72800000114,
      "d": 441.17600000000675,
      "v": 100
    },
    {
      "midi": 65,
      "hit": false,
      "t": 145146.90400000114,
      "d": 441.17600000000675,
      "v": 100
    },
    {
      "midi": 72,
      "hit": false,
      "t": 145367.49200000038,
      "d": 220.58799999998882,
      "v": 100
    },
    {
      "midi": 74,
      "hit": false,
      "t": 145588.08000000037,
      "d": 220.58799999998882,
      "v": 100
    },
    {
      "midi": 69,
      "hit": false,
      "t": 145588.08000000115,
      "d": 441.17600000000675,
      "v": 100
    },
    {
      "midi": 74,
      "hit": false,
      "t": 145588.08000000115,
      "d": 441.17600000000675,
      "v": 100
    },
    {
      "midi": 76,
      "hit": false,
      "t": 146029.25600000034,
      "d": 220.58799999998882,
      "v": 100
    },
    {
      "midi": 65,
      "hit": false,
      "t": 146029.25600000116,
      "d": 441.17600000000675,
      "v": 100
    },
    {
      "midi": 77,
      "hit": false,
      "t": 146470.43200000032,
      "d": 882.3520000000135,
      "v": 100
    },
    {
      "midi": 62,
      "hit": false,
      "t": 146470.43200000116,
      "d": 441.17600000000675,
      "v": 100
    },
    {
      "midi": 69,
      "hit": false,
      "t": 146470.43200000116,
      "d": 441.17600000000675,
      "v": 100
    },
    {
      "midi": 74,
      "hit": false,
      "t": 146470.43200000116,
      "d": 441.17600000000675,
      "v": 100
    },
    {
      "midi": 65,
      "hit": false,
      "t": 146911.60800000117,
      "d": 441.17600000000675,
      "v": 100
    },
    {
      "midi": 69,
      "hit": false,
      "t": 147352.78400000118,
      "d": 441.17600000000675,
      "v": 100
    },
    {
      "midi": 74,
      "hit": false,
      "t": 147352.78400000118,
      "d": 441.17600000000675,
      "v": 100
    },
    {
      "midi": 65,
      "hit": false,
      "t": 147793.96000000119,
      "d": 441.17600000000675,
      "v": 100
    },
    {
      "midi": 74,
      "hit": false,
      "t": 148014.54800000033,
      "d": 220.58799999998882,
      "v": 100
    },
    {
      "midi": 79,
      "hit": false,
      "t": 148235.13600000032,
      "d": 441.17600000000675,
      "v": 100
    },
    {
      "midi": 55,
      "hit": false,
      "t": 148235.1360000012,
      "d": 441.17600000000675,
      "v": 100
    },
    {
      "midi": 62,
      "hit": false,
      "t": 148235.1360000012,
      "d": 441.17600000000675,
      "v": 100
    },
    {
      "midi": 67,
      "hit": false,
      "t": 148235.1360000012,
      "d": 441.17600000000675,
      "v": 100
    },
    {
      "midi": 71,
      "hit": false,
      "t": 148235.1360000012,
      "d": 441.17600000000675,
      "v": 100
    },
    {
      "midi": 79,
      "hit": false,
      "t": 148676.31200000033,
      "d": 441.17600000000675,
      "v": 100
    },
    {
      "midi": 62,
      "hit": false,
      "t": 148676.3120000012,
      "d": 441.17600000000675,
      "v": 100
    },
    {
      "midi": 79,
      "hit": false,
      "t": 149117.48800000033,
      "d": 882.3520000000135,
      "v": 100
    },
    {
      "midi": 67,
      "hit": false,
      "t": 149117.4880000012,
      "d": 441.17600000000675,
      "v": 100
    },
    {
      "midi": 71,
      "hit": false,
      "t": 149117.4880000012,
      "d": 441.17600000000675,
      "v": 100
    },
    {
      "midi": 74,
      "hit": false,
      "t": 149117.4880000012,
      "d": 441.17600000000675,
      "v": 100
    },
    {
      "midi": 62,
      "hit": false,
      "t": 149558.6640000012,
      "d": 441.17600000000675,
      "v": 100
    },
    {
      "midi": 55,
      "hit": false,
      "t": 149999.84000000122,
      "d": 441.17600000000675,
      "v": 100
    },
    {
      "midi": 67,
      "hit": false,
      "t": 149999.84000000122,
      "d": 441.17600000000675,
      "v": 100
    },
    {
      "midi": 71,
      "hit": false,
      "t": 149999.84000000122,
      "d": 441.17600000000675,
      "v": 100
    },
    {
      "midi": 62,
      "hit": false,
      "t": 150441.01600000123,
      "d": 441.17600000000675,
      "v": 100
    },
    {
      "midi": 71,
      "hit": false,
      "t": 150882.19200000036,
      "d": 220.58799999998882,
      "v": 100
    },
    {
      "midi": 67,
      "hit": false,
      "t": 150882.19200000123,
      "d": 441.17600000000675,
      "v": 100
    },
    {
      "midi": 71,
      "hit": false,
      "t": 150882.19200000123,
      "d": 441.17600000000675,
      "v": 100
    },
    {
      "midi": 74,
      "hit": false,
      "t": 150882.19200000123,
      "d": 441.17600000000675,
      "v": 100
    },
    {
      "midi": 72,
      "hit": false,
      "t": 151102.78000000035,
      "d": 220.58799999998882,
      "v": 100
    },
    {
      "midi": 74,
      "hit": false,
      "t": 151323.36800000034,
      "d": 220.58799999998882,
      "v": 100
    },
    {
      "midi": 62,
      "hit": false,
      "t": 151323.36800000124,
      "d": 441.17600000000675,
      "v": 100
    },
    {
      "midi": 77,
      "hit": false,
      "t": 151764.54400000031,
      "d": 441.17600000000675,
      "v": 100
    },
    {
      "midi": 60,
      "hit": false,
      "t": 151764.54400000125,
      "d": 441.17600000000675,
      "v": 100
    },
    {
      "midi": 64,
      "hit": false,
      "t": 151764.54400000125,
      "d": 441.17600000000675,
      "v": 100
    },
    {
      "midi": 67,
      "hit": false,
      "t": 151764.54400000125,
      "d": 441.17600000000675,
      "v": 100
    },
    {
      "midi": 72,
      "hit": false,
      "t": 151764.54400000125,
      "d": 441.17600000000675,
      "v": 100
    },
    {
      "midi": 76,
      "hit": false,
      "t": 152205.72000000032,
      "d": 441.17600000000675,
      "v": 100
    },
    {
      "midi": 64,
      "hit": false,
      "t": 152205.72000000125,
      "d": 441.17600000000675,
      "v": 100
    },
    {
      "midi": 76,
      "hit": false,
      "t": 152646.89600000033,
      "d": 220.58799999998882,
      "v": 100
    },
    {
      "midi": 67,
      "hit": false,
      "t": 152646.89600000126,
      "d": 441.17600000000675,
      "v": 100
    },
    {
      "midi": 72,
      "hit": false,
      "t": 152646.89600000126,
      "d": 441.17600000000675,
      "v": 100
    },
    {
      "midi": 76,
      "hit": false,
      "t": 152646.89600000126,
      "d": 441.17600000000675,
      "v": 100
    },
    {
      "midi": 74,
      "hit": false,
      "t": 153088.0720000003,
      "d": 441.17600000000675,
      "v": 100
    },
    {
      "midi": 64,
      "hit": false,
      "t": 153088.07200000127,
      "d": 441.17600000000675,
      "v": 100
    },
    {
      "midi": 76,
      "hit": false,
      "t": 153529.2480000003,
      "d": 882.3520000000135,
      "v": 100
    },
    {
      "midi": 60,
      "hit": false,
      "t": 153529.24800000127,
      "d": 441.17600000000675,
      "v": 100
    },
    {
      "midi": 72,
      "hit": false,
      "t": 153529.24800000127,
      "d": 441.17600000000675,
      "v": 100
    },
    {
      "midi": 76,
      "hit": false,
      "t": 153529.24800000127,
      "d": 441.17600000000675,
      "v": 100
    },
    {
      "midi": 64,
      "hit": false,
      "t": 153970.42400000128,
      "d": 441.17600000000675,
      "v": 100
    },
    {
      "midi": 67,
      "hit": false,
      "t": 154411.6000000013,
      "d": 441.17600000000675,
      "v": 100
    },
    {
      "midi": 72,
      "hit": false,
      "t": 154411.6000000013,
      "d": 441.17600000000675,
      "v": 100
    },
    {
      "midi": 76,
      "hit": false,
      "t": 154411.6000000013,
      "d": 441.17600000000675,
      "v": 100
    },
    {
      "midi": 64,
      "hit": false,
      "t": 154852.7760000013,
      "d": 441.17600000000675,
      "v": 100
    },
    {
      "midi": 76,
      "hit": false,
      "t": 155073.36400000032,
      "d": 220.58799999998882,
      "v": 100
    },
    {
      "midi": 81,
      "hit": false,
      "t": 155293.9520000003,
      "d": 441.17600000000675,
      "v": 100
    },
    {
      "midi": 57,
      "hit": false,
      "t": 155293.9520000013,
      "d": 441.17600000000675,
      "v": 100
    },
    {
      "midi": 64,
      "hit": false,
      "t": 155293.9520000013,
      "d": 441.17600000000675,
      "v": 100
    },
    {
      "midi": 69,
      "hit": false,
      "t": 155293.9520000013,
      "d": 441.17600000000675,
      "v": 100
    },
    {
      "midi": 73,
      "hit": false,
      "t": 155293.9520000013,
      "d": 441.17600000000675,
      "v": 100
    },
    {
      "midi": 81,
      "hit": false,
      "t": 155735.12800000032,
      "d": 441.17600000000675,
      "v": 100
    },
    {
      "midi": 64,
      "hit": false,
      "t": 155735.1280000013,
      "d": 441.17600000000675,
      "v": 100
    },
    {
      "midi": 81,
      "hit": false,
      "t": 156176.30400000032,
      "d": 1323.5279999999912,
      "v": 100
    },
    {
      "midi": 69,
      "hit": false,
      "t": 156176.3040000013,
      "d": 441.17600000000675,
      "v": 100
    },
    {
      "midi": 73,
      "hit": false,
      "t": 156176.3040000013,
      "d": 441.17600000000675,
      "v": 100
    },
    {
      "midi": 64,
      "hit": false,
      "t": 156617.48000000132,
      "d": 441.17600000000675,
      "v": 100
    },
    {
      "midi": 57,
      "hit": false,
      "t": 157058.65600000133,
      "d": 441.17600000000675,
      "v": 100
    },
    {
      "midi": 69,
      "hit": false,
      "t": 157058.65600000133,
      "d": 441.17600000000675,
      "v": 100
    },
    {
      "midi": 73,
      "hit": false,
      "t": 157058.65600000133,
      "d": 441.17600000000675,
      "v": 100
    },
    {
      "midi": 64,
      "hit": false,
      "t": 157499.83200000133,
      "d": 441.17600000000675,
      "v": 100
    },
    {
      "midi": 79,
      "hit": false,
      "t": 157941.00800000032,
      "d": 220.58799999998882,
      "v": 100
    },
    {
      "midi": 64,
      "hit": false,
      "t": 157941.00800000134,
      "d": 441.17600000000675,
      "v": 100
    },
    {
      "midi": 69,
      "hit": false,
      "t": 157941.00800000134,
      "d": 441.17600000000675,
      "v": 100
    },
    {
      "midi": 73,
      "hit": false,
      "t": 157941.00800000134,
      "d": 441.17600000000675,
      "v": 100
    },
    {
      "midi": 77,
      "hit": false,
      "t": 158161.5960000003,
      "d": 220.58799999998882,
      "v": 100
    },
    {
      "midi": 76,
      "hit": false,
      "t": 158382.1840000003,
      "d": 220.58799999998882,
      "v": 100
    },
    {
      "midi": 64,
      "hit": false,
      "t": 158382.18400000135,
      "d": 441.17600000000675,
      "v": 100
    },
    {
      "midi": 74,
      "hit": false,
      "t": 158823.36000000028,
      "d": 661.7639999999956,
      "v": 100
    },
    {
      "midi": 62,
      "hit": false,
      "t": 158823.36000000135,
      "d": 441.17600000000675,
      "v": 100
    },
    {
      "midi": 65,
      "hit": false,
      "t": 158823.36000000135,
      "d": 441.17600000000675,
      "v": 100
    },
    {
      "midi": 69,
      "hit": false,
      "t": 158823.36000000135,
      "d": 441.17600000000675,
      "v": 100
    },
    {
      "midi": 74,
      "hit": false,
      "t": 158823.36000000135,
      "d": 441.17600000000675,
      "v": 100
    },
    {
      "midi": 65,
      "hit": false,
      "t": 159264.53600000136,
      "d": 441.17600000000675,
      "v": 100
    },
    {
      "midi": 72,
      "hit": false,
      "t": 159485.12400000027,
      "d": 220.58799999998882,
      "v": 100
    },
    {
      "midi": 74,
      "hit": false,
      "t": 159705.71200000026,
      "d": 661.7639999999956,
      "v": 100
    },
    {
      "midi": 69,
      "hit": false,
      "t": 159705.71200000137,
      "d": 441.17600000000675,
      "v": 100
    },
    {
      "midi": 74,
      "hit": false,
      "t": 159705.71200000137,
      "d": 441.17600000000675,
      "v": 100
    },
    {
      "midi": 76,
      "hit": false,
      "t": 160146.88800000027,
      "d": 220.58799999998882,
      "v": 100
    },
    {
      "midi": 65,
      "hit": false,
      "t": 160146.88800000137,
      "d": 441.17600000000675,
      "v": 100
    },
    {
      "midi": 77,
      "hit": false,
      "t": 160588.06400000025,
      "d": 882.3520000000135,
      "v": 100
    },
    {
      "midi": 62,
      "hit": false,
      "t": 160588.06400000138,
      "d": 441.17600000000675,
      "v": 100
    },
    {
      "midi": 69,
      "hit": false,
      "t": 160588.06400000138,
      "d": 441.17600000000675,
      "v": 100
    },
    {
      "midi": 74,
      "hit": false,
      "t": 160588.06400000138,
      "d": 441.17600000000675,
      "v": 100
    },
    {
      "midi": 65,
      "hit": false,
      "t": 161029.2400000014,
      "d": 441.17600000000675,
      "v": 100
    },
    {
      "midi": 69,
      "hit": false,
      "t": 161470.4160000014,
      "d": 441.17600000000675,
      "v": 100
    },
    {
      "midi": 74,
      "hit": false,
      "t": 161470.4160000014,
      "d": 441.17600000000675,
      "v": 100
    },
    {
      "midi": 65,
      "hit": false,
      "t": 161911.5920000014,
      "d": 441.17600000000675,
      "v": 100
    },
    {
      "midi": 81,
      "hit": false,
      "t": 162132.18000000025,
      "d": 220.58799999998882,
      "v": 100
    },
    {
      "midi": 83,
      "hit": false,
      "t": 162352.76800000024,
      "d": 441.17600000000675,
      "v": 100
    },
    {
      "midi": 59,
      "hit": false,
      "t": 162352.7680000014,
      "d": 441.17600000000675,
      "v": 100
    },
    {
      "midi": 63,
      "hit": false,
      "t": 162352.7680000014,
      "d": 441.17600000000675,
      "v": 100
    },
    {
      "midi": 66,
      "hit": false,
      "t": 162352.7680000014,
      "d": 441.17600000000675,
      "v": 100
    },
    {
      "midi": 71,
      "hit": false,
      "t": 162352.7680000014,
      "d": 441.17600000000675,
      "v": 100
    },
    {
      "midi": 83,
      "hit": false,
      "t": 162793.94400000025,
      "d": 441.17600000000675,
      "v": 100
    },
    {
      "midi": 63,
      "hit": false,
      "t": 162793.94400000141,
      "d": 441.17600000000675,
      "v": 100
    },
    {
      "midi": 83,
      "hit": false,
      "t": 163235.12000000026,
      "d": 441.17600000000675,
      "v": 100
    },
    {
      "midi": 66,
      "hit": false,
      "t": 163235.12000000142,
      "d": 441.17600000000675,
      "v": 100
    },
    {
      "midi": 71,
      "hit": false,
      "t": 163235.12000000142,
      "d": 441.17600000000675,
      "v": 100
    },
    {
      "midi": 75,
      "hit": false,
      "t": 163235.12000000142,
      "d": 441.17600000000675,
      "v": 100
    },
    {
      "midi": 63,
      "hit": false,
      "t": 163676.29600000143,
      "d": 441.17600000000675,
      "v": 100
    },
    {
      "midi": 59,
      "hit": false,
      "t": 164117.47200000143,
      "d": 441.17600000000675,
      "v": 100
    },
    {
      "midi": 63,
      "hit": false,
      "t": 164117.47200000143,
      "d": 441.17600000000675,
      "v": 100
    },
    {
      "midi": 66,
      "hit": false,
      "t": 164117.47200000143,
      "d": 441.17600000000675,
      "v": 100
    },
    {
      "midi": 71,
      "hit": false,
      "t": 164117.47200000143,
      "d": 441.17600000000675,
      "v": 100
    },
    {
      "midi": 80,
      "hit": false,
      "t": 164558.64800000028,
      "d": 441.17600000000675,
      "v": 100
    },
    {
      "midi": 63,
      "hit": false,
      "t": 164558.64800000144,
      "d": 441.17600000000675,
      "v": 100
    },
    {
      "midi": 81,
      "hit": false,
      "t": 164999.82400000028,
      "d": 441.17600000000675,
      "v": 100
    },
    {
      "midi": 66,
      "hit": false,
      "t": 164999.82400000145,
      "d": 441.17600000000675,
      "v": 100
    },
    {
      "midi": 71,
      "hit": false,
      "t": 164999.82400000145,
      "d": 441.17600000000675,
      "v": 100
    },
    {
      "midi": 75,
      "hit": false,
      "t": 164999.82400000145,
      "d": 441.17600000000675,
      "v": 100
    },
    {
      "midi": 83,
      "hit": false,
      "t": 165441.0000000003,
      "d": 220.58799999998882,
      "v": 100
    },
    {
      "midi": 63,
      "hit": false,
      "t": 165441.00000000146,
      "d": 441.17600000000675,
      "v": 100
    },
    {
      "midi": 83,
      "hit": false,
      "t": 165882.17600000027,
      "d": 1764.703999999998,
      "v": 100
    },
    {
      "midi": 52,
      "hit": false,
      "t": 165882.17600000146,
      "d": 441.17600000000675,
      "v": 100
    },
    {
      "midi": 64,
      "hit": false,
      "t": 165882.17600000146,
      "d": 441.17600000000675,
      "v": 100
    },
    {
      "midi": 68,
      "hit": false,
      "t": 165882.17600000146,
      "d": 441.17600000000675,
      "v": 100
    },
    {
      "midi": 71,
      "hit": false,
      "t": 165882.17600000146,
      "d": 441.17600000000675,
      "v": 100
    },
    {
      "midi": 64,
      "hit": false,
      "t": 166323.35200000147,
      "d": 441.17600000000675,
      "v": 100
    },
    {
      "midi": 68,
      "hit": false,
      "t": 166764.52800000148,
      "d": 441.17600000000675,
      "v": 100
    },
    {
      "midi": 71,
      "hit": false,
      "t": 166764.52800000148,
      "d": 441.17600000000675,
      "v": 100
    },
    {
      "midi": 76,
      "hit": false,
      "t": 166764.52800000148,
      "d": 441.17600000000675,
      "v": 100
    },
    {
      "midi": 64,
      "hit": false,
      "t": 167205.70400000148,
      "d": 441.17600000000675,
      "v": 100
    },
    {
      "midi": 52,
      "hit": false,
      "t": 167646.8800000015,
      "d": 441.17600000000675,
      "v": 100
    },
    {
      "midi": 59,
      "hit": false,
      "t": 167646.8800000015,
      "d": 441.17600000000675,
      "v": 100
    },
    {
      "midi": 64,
      "hit": false,
      "t": 168088.0560000015,
      "d": 441.17600000000675,
      "v": 100
    },
    {
      "midi": 68,
      "hit": false,
      "t": 168529.2320000015,
      "d": 441.17600000000675,
      "v": 100
    },
    {
      "midi": 71,
      "hit": false,
      "t": 168529.2320000015,
      "d": 441.17600000000675,
      "v": 100
    },
    {
      "midi": 76,
      "hit": false,
      "t": 168529.2320000015,
      "d": 441.17600000000675,
      "v": 100
    },
    {
      "midi": 64,
      "hit": false,
      "t": 168970.4080000015,
      "d": 441.17600000000675,
      "v": 100
    },
    {
      "midi": 52,
      "hit": false,
      "t": 169411.58400000152,
      "d": 441.17600000000675,
      "v": 100
    },
    {
      "midi": 64,
      "hit": false,
      "t": 169411.58400000152,
      "d": 441.17600000000675,
      "v": 100
    },
    {
      "midi": 68,
      "hit": false,
      "t": 169411.58400000152,
      "d": 441.17600000000675,
      "v": 100
    },
    {
      "midi": 71,
      "hit": false,
      "t": 169411.58400000152,
      "d": 441.17600000000675,
      "v": 100
    },
    {
      "midi": 64,
      "hit": false,
      "t": 169852.76000000152,
      "d": 441.17600000000675,
      "v": 100
    },
    {
      "midi": 68,
      "hit": false,
      "t": 170293.93600000153,
      "d": 441.17600000000675,
      "v": 100
    },
    {
      "midi": 71,
      "hit": false,
      "t": 170293.93600000153,
      "d": 441.17600000000675,
      "v": 100
    },
    {
      "midi": 76,
      "hit": false,
      "t": 170293.93600000153,
      "d": 441.17600000000675,
      "v": 100
    },
    {
      "midi": 64,
      "hit": false,
      "t": 170735.11200000154,
      "d": 441.17600000000675,
      "v": 100
    },
    {
      "midi": 52,
      "hit": false,
      "t": 171176.28800000154,
      "d": 441.17600000000675,
      "v": 100
    },
    {
      "midi": 59,
      "hit": false,
      "t": 171176.28800000154,
      "d": 441.17600000000675,
      "v": 100
    },
    {
      "midi": 64,
      "hit": false,
      "t": 171617.46400000155,
      "d": 441.17600000000675,
      "v": 100
    },
    {
      "midi": 68,
      "hit": false,
      "t": 172058.64000000156,
      "d": 441.17600000000675,
      "v": 100
    },
    {
      "midi": 71,
      "hit": false,
      "t": 172058.64000000156,
      "d": 441.17600000000675,
      "v": 100
    },
    {
      "midi": 76,
      "hit": false,
      "t": 172058.64000000156,
      "d": 441.17600000000675,
      "v": 100
    },
    {
      "midi": 64,
      "hit": false,
      "t": 172499.81600000156,
      "d": 441.17600000000675,
      "v": 100
    }
  ]
}