{
  "jsonPath": "Unknown/Unknown/Tammy WynetteGeorge JonesGeorge Jones  Tammy Wynette/touching-shoulders.json",
  "path": "Unknown\\Unknown\\Tammy WynetteGeorge JonesGeorge Jones  Tammy Wynette\\Touching Shoulders.mid",
  "name": "Touching Shoulders",
  "difficulty": "Advanced",
  "bpm": 104.00001386666851,
  "notes": [
    {
      "midi": 45,
      "hit": false,
      "t": 2307.692,
      "d": 1508.4132604166666,
      "v": 88
    },
    {
      "midi": 57,
      "hit": false,
      "t": 2884.615,
      "d": 841.3460416666667,
      "v": 83
    },
    {
      "midi": 61,
      "hit": false,
      "t": 2884.615,
      "d": 865.3845000000001,
      "v": 68
    },
    {
      "midi": 52,
      "hit": false,
      "t": 2884.615,
      "d": 889.4229583333336,
      "v": 70
    },
    {
      "midi": 45,
      "hit": false,
      "t": 4038.461,
      "d": 528.8460833333334,
      "v": 102
    },
    {
      "midi": 57,
      "hit": false,
      "t": 4038.461,
      "d": 697.1152916666665,
      "v": 87
    },
    {
      "midi": 52,
      "hit": false,
      "t": 4038.461,
      "d": 703.1249062499996,
      "v": 68
    },
    {
      "midi": 61,
      "hit": false,
      "t": 4038.461,
      "d": 745.1922083333334,
      "v": 68
    },
    {
      "midi": 38,
      "hit": false,
      "t": 4615.384,
      "d": 1388.2209687499999,
      "v": 92
    },
    {
      "midi": 57,
      "hit": false,
      "t": 5192.307,
      "d": 1033.6537083333333,
      "v": 93
    },
    {
      "midi": 62,
      "hit": false,
      "t": 5192.307,
      "d": 1063.7017812499998,
      "v": 83
    },
    {
      "midi": 54,
      "hit": false,
      "t": 5192.307,
      "d": 1075.721010416666,
      "v": 76
    },
    {
      "midi": 62,
      "hit": false,
      "t": 6346.152999999999,
      "d": 552.8845416666663,
      "v": 81
    },
    {
      "midi": 38,
      "hit": false,
      "t": 6346.152999999999,
      "d": 564.9037708333326,
      "v": 88
    },
    {
      "midi": 57,
      "hit": false,
      "t": 6346.152999999999,
      "d": 612.9806874999986,
      "v": 95
    },
    {
      "midi": 54,
      "hit": false,
      "t": 6346.152999999999,
      "d": 618.9903020833317,
      "v": 76
    },
    {
      "midi": 40,
      "hit": false,
      "t": 6923.075999999998,
      "d": 1027.6440937500001,
      "v": 96
    },
    {
      "midi": 52,
      "hit": false,
      "t": 7499.998999999998,
      "d": 847.3556562499998,
      "v": 79
    },
    {
      "midi": 57,
      "hit": false,
      "t": 7499.998999999998,
      "d": 871.3941145833323,
      "v": 93
    },
    {
      "midi": 61,
      "hit": false,
      "t": 7499.998999999998,
      "d": 949.5191041666658,
      "v": 68
    },
    {
      "midi": 40,
      "hit": false,
      "t": 8076.921999999999,
      "d": 901.4421874999989,
      "v": 90
    },
    {
      "midi": 61,
      "hit": false,
      "t": 8653.844999999998,
      "d": 336.5384166666663,
      "v": 79
    },
    {
      "midi": 57,
      "hit": false,
      "t": 8653.844999999998,
      "d": 348.5576458333326,
      "v": 97
    },
    {
      "midi": 52,
      "hit": false,
      "t": 8653.844999999998,
      "d": 372.5961041666651,
      "v": 79
    },
    {
      "midi": 40,
      "hit": false,
      "t": 9230.767999999996,
      "d": 264.4230416666669,
      "v": 98
    },
    {
      "midi": 59,
      "hit": false,
      "t": 9230.767999999996,
      "d": 288.46149999999943,
      "v": 64
    },
    {
      "midi": 56,
      "hit": false,
      "t": 9230.767999999996,
      "d": 312.49995833333196,
      "v": 72
    },
    {
      "midi": 52,
      "hit": false,
      "t": 9230.767999999996,
      "d": 318.509572916666,
      "v": 72
    },
    {
      "midi": 40,
      "hit": false,
      "t": 9807.690999999995,
      "d": 570.9133854166666,
      "v": 94
    },
    {
      "midi": 42,
      "hit": false,
      "t": 10384.613999999996,
      "d": 540.8653125000001,
      "v": 86
    },
    {
      "midi": 44,
      "hit": false,
      "t": 10955.527385416663,
      "d": 594.9518437499992,
      "v": 78
    },
    {
      "midi": 45,
      "hit": false,
      "t": 11538.459999999995,
      "d": 1911.0574374999978,
      "v": 88
    },
    {
      "midi": 57,
      "hit": false,
      "t": 12115.382999999994,
      "d": 847.3556562499998,
      "v": 97
    },
    {
      "midi": 61,
      "hit": false,
      "t": 12115.382999999994,
      "d": 925.4806458333333,
      "v": 70
    },
    {
      "midi": 52,
      "hit": false,
      "t": 12115.382999999994,
      "d": 949.5191041666658,
      "v": 76
    },
    {
      "midi": 57,
      "hit": false,
      "t": 13269.228999999994,
      "d": 895.4325729166649,
      "v": 66
    },
    {
      "midi": 61,
      "hit": false,
      "t": 13269.228999999994,
      "d": 913.4614166666652,
      "v": 52
    },
    {
      "midi": 52,
      "hit": false,
      "t": 13269.228999999994,
      "d": 949.5191041666658,
      "v": 52
    },
    {
      "midi": 45,
      "hit": false,
      "t": 13846.151999999993,
      "d": 1532.4517187499987,
      "v": 78
    },
    {
      "midi": 61,
      "hit": false,
      "t": 14423.074999999993,
      "d": 859.3748854166661,
      "v": 70
    },
    {
      "midi": 52,
      "hit": false,
      "t": 14423.074999999993,
      "d": 883.4133437499986,
      "v": 72
    },
    {
      "midi": 57,
      "hit": false,
      "t": 14423.074999999993,
      "d": 907.4518020833311,
      "v": 95
    },
    {
      "midi": 45,
      "hit": false,
      "t": 15576.920999999991,
      "d": 510.8172395833335,
      "v": 88
    },
    {
      "midi": 57,
      "hit": false,
      "t": 15576.920999999991,
      "d": 570.9133854166666,
      "v": 99
    },
    {
      "midi": 52,
      "hit": false,
      "t": 15576.920999999991,
      "d": 661.0576041666664,
      "v": 76
    },
    {
      "midi": 61,
      "hit": false,
      "t": 15576.920999999991,
      "d": 673.0768333333326,
      "v": 70
    },
    {
      "midi": 52,
      "hit": false,
      "t": 16724.75738541666,
      "d": 919.4710312499992,
      "v": 70
    },
    {
      "midi": 56,
      "hit": false,
      "t": 16742.786229166657,
      "d": 877.4037291666682,
      "v": 60
    },
    {
      "midi": 59,
      "hit": false,
      "t": 16748.79584374999,
      "d": 847.3556562500016,
      "v": 66
    },
    {
      "midi": 52,
      "hit": false,
      "t": 17884.61299999999,
      "d": 949.5191041666658,
      "v": 76
    },
    {
      "midi": 56,
      "hit": false,
      "t": 17884.61299999999,
      "d": 955.5287187499998,
      "v": 64
    },
    {
      "midi": 59,
      "hit": false,
      "t": 17884.61299999999,
      "d": 955.5287187499998,
      "v": 72
    },
    {
      "midi": 40,
      "hit": false,
      "t": 18455.526385416655,
      "d": 763.221052083336,
      "v": 82
    },
    {
      "midi": 56,
      "hit": false,
      "t": 19038.45899999999,
      "d": 841.346041666664,
      "v": 85
    },
    {
      "midi": 52,
      "hit": false,
      "t": 19038.45899999999,
      "d": 919.4710312499956,
      "v": 83
    },
    {
      "midi": 59,
      "hit": false,
      "t": 19038.45899999999,
      "d": 943.5094895833281,
      "v": 83
    },
    {
      "midi": 40,
      "hit": false,
      "t": 19609.372385416656,
      "d": 348.55764583333075,
      "v": 106
    },
    {
      "midi": 39,
      "hit": false,
      "t": 19993.987718749988,
      "d": 174.27882291666538,
      "v": 78
    },
    {
      "midi": 40,
      "hit": false,
      "t": 20186.29538541665,
      "d": 330.52880208333227,
      "v": 106
    },
    {
      "midi": 52,
      "hit": false,
      "t": 20192.304999999986,
      "d": 510.8172395833317,
      "v": 81
    },
    {
      "midi": 56,
      "hit": false,
      "t": 20192.304999999986,
      "d": 528.8460833333302,
      "v": 79
    },
    {
      "midi": 59,
      "hit": false,
      "t": 20192.304999999986,
      "d": 534.8556979166642,
      "v": 79
    },
    {
      "midi": 41,
      "hit": false,
      "t": 20570.910718749983,
      "d": 222.35573958333407,
      "v": 86
    },
    {
      "midi": 42,
      "hit": false,
      "t": 20763.21838541665,
      "d": 1075.721010416666,
      "v": 92
    },
    {
      "midi": 62,
      "hit": false,
      "t": 21346.150999999983,
      "d": 853.365270833332,
      "v": 56
    },
    {
      "midi": 59,
      "hit": false,
      "t": 21346.150999999983,
      "d": 883.4133437499986,
      "v": 85
    },
    {
      "midi": 54,
      "hit": false,
      "t": 21346.150999999983,
      "d": 1027.6440937499974,
      "v": 68
    },
    {
      "midi": 42,
      "hit": false,
      "t": 21923.073999999982,
      "d": 1033.6537083333315,
      "v": 55
    },
    {
      "midi": 59,
      "hit": false,
      "t": 22499.99699999998,
      "d": 618.9903020833335,
      "v": 79
    },
    {
      "midi": 62,
      "hit": false,
      "t": 22499.99699999998,
      "d": 631.0095312500016,
      "v": 76
    },
    {
      "midi": 54,
      "hit": false,
      "t": 22499.99699999998,
      "d": 649.0383750000001,
      "v": 68
    },
    {
      "midi": 40,
      "hit": false,
      "t": 23076.91999999998,
      "d": 1977.1631979166668,
      "v": 94
    },
    {
      "midi": 52,
      "hit": false,
      "t": 23647.83338541665,
      "d": 1051.6825520833336,
      "v": 68
    },
    {
      "midi": 56,
      "hit": false,
      "t": 23647.83338541665,
      "d": 1051.6825520833336,
      "v": 76
    },
    {
      "midi": 59,
      "hit": false,
      "t": 23647.83338541665,
      "d": 1051.6825520833336,
      "v": 68
    },
    {
      "midi": 52,
      "hit": false,
      "t": 24807.68899999998,
      "d": 540.8653124999983,
      "v": 76
    },
    {
      "midi": 56,
      "hit": false,
      "t": 24807.68899999998,
      "d": 552.8845416666663,
      "v": 79
    },
    {
      "midi": 59,
      "hit": false,
      "t": 24807.68899999998,
      "d": 582.9326145833329,
      "v": 79
    },
    {
      "midi": 52,
      "hit": false,
      "t": 25961.53499999998,
      "d": 865.3845000000001,
      "v": 74
    },
    {
      "midi": 57,
      "hit": false,
      "t": 25961.53499999998,
      "d": 907.4518020833348,
      "v": 87
    },
    {
      "midi": 61,
      "hit": false,
      "t": 25961.53499999998,
      "d": 949.5191041666694,
      "v": 62
    },
    {
      "midi": 61,
      "hit": false,
      "t": 27115.380999999983,
      "d": 534.8556979166679,
      "v": 64
    },
    {
      "midi": 57,
      "hit": false,
      "t": 27115.380999999983,
      "d": 552.8845416666663,
      "v": 93
    },
    {
      "midi": 52,
      "hit": false,
      "t": 27115.380999999983,
      "d": 631.009531249998,
      "v": 72
    },
    {
      "midi": 33,
      "hit": false,
      "t": 28269.22699999998,
      "d": 649.0383750000001,
      "v": 67
    },
    {
      "midi": 52,
      "hit": false,
      "t": 28269.22699999998,
      "d": 1400.2401979166643,
      "v": 68
    },
    {
      "midi": 57,
      "hit": false,
      "t": 28269.22699999998,
      "d": 1442.307499999999,
      "v": 89
    },
    {
      "midi": 61,
      "hit": false,
      "t": 28269.22699999998,
      "d": 1472.3555729166656,
      "v": 58
    },
    {
      "midi": 35,
      "hit": false,
      "t": 28846.14999999998,
      "d": 552.8845416666663,
      "v": 78
    },
    {
      "midi": 37,
      "hit": false,
      "t": 29423.07299999998,
      "d": 378.60571875000096,
      "v": 78
    },
    {
      "midi": 38,
      "hit": false,
      "t": 29999.99599999998,
      "d": 1087.7402395833305,
      "v": 78
    },
    {
      "midi": 54,
      "hit": false,
      "t": 30576.91899999998,
      "d": 889.4229583333326,
      "v": 70
    },
    {
      "midi": 62,
      "hit": false,
      "t": 30576.91899999998,
      "d": 913.4614166666652,
      "v": 79
    },
    {
      "midi": 57,
      "hit": false,
      "t": 30576.91899999998,
      "d": 931.4902604166637,
      "v": 93
    },
    {
      "midi": 45,
      "hit": false,
      "t": 31153.84199999998,
      "d": 901.4421874999971,
      "v": 63
    },
    {
      "midi": 54,
      "hit": false,
      "t": 31730.764999999978,
      "d": 889.4229583333326,
      "v": 68
    },
    {
      "midi": 62,
      "hit": false,
      "t": 31730.764999999978,
      "d": 913.4614166666652,
      "v": 76
    },
    {
      "midi": 57,
      "hit": false,
      "t": 31730.764999999978,
      "d": 949.5191041666658,
      "v": 85
    },
    {
      "midi": 38,
      "hit": false,
      "t": 32307.687999999976,
      "d": 1111.7786979166667,
      "v": 82
    },
    {
      "midi": 54,
      "hit": false,
      "t": 32884.610999999975,
      "d": 895.4325729166667,
      "v": 66
    },
    {
      "midi": 62,
      "hit": false,
      "t": 32884.610999999975,
      "d": 919.4710312500029,
      "v": 76
    },
    {
      "midi": 57,
      "hit": false,
      "t": 32884.610999999975,
      "d": 949.5191041666694,
      "v": 93
    },
    {
      "midi": 45,
      "hit": false,
      "t": 33467.54361458331,
      "d": 516.8268541666694,
      "v": 82
    },
    {
      "midi": 38,
      "hit": false,
      "t": 34038.45699999998,
      "d": 534.8556979166679,
      "v": 59
    },
    {
      "midi": 54,
      "hit": false,
      "t": 34038.45699999998,
      "d": 540.8653124999983,
      "v": 68
    },
    {
      "midi": 57,
      "hit": false,
      "t": 34038.45699999998,
      "d": 558.8941562499967,
      "v": 83
    },
    {
      "midi": 62,
      "hit": false,
      "t": 34038.45699999998,
      "d": 570.9133854166648,
      "v": 72
    },
    {
      "midi": 45,
      "hit": false,
      "t": 34615.379999999976,
      "d": 1105.7690833333327,
      "v": 86
    },
    {
      "midi": 57,
      "hit": false,
      "t": 35192.30299999998,
      "d": 913.4614166666652,
      "v": 87
    },
    {
      "midi": 52,
      "hit": false,
      "t": 35192.30299999998,
      "d": 937.4998750000013,
      "v": 74
    },
    {
      "midi": 61,
      "hit": false,
      "t": 35192.30299999998,
      "d": 943.5094895833317,
      "v": 62
    },
    {
      "midi": 40,
      "hit": false,
      "t": 35769.22599999997,
      "d": 955.5287187499998,
      "v": 70
    },
    {
      "midi": 57,
      "hit": false,
      "t": 36346.148999999976,
      "d": 643.0287604166588,
      "v": 83
    },
    {
      "midi": 61,
      "hit": false,
      "t": 36346.148999999976,
      "d": 679.0864479166557,
      "v": 62
    },
    {
      "midi": 52,
      "hit": false,
      "t": 36346.148999999976,
      "d": 709.1345208333223,
      "v": 72
    },
    {
      "midi": 45,
      "hit": false,
      "t": 36923.07199999997,
      "d": 889.422958333329,
      "v": 84
    },
    {
      "midi": 57,
      "hit": false,
      "t": 37499.994999999966,
      "d": 871.3941145833378,
      "v": 95
    },
    {
      "midi": 61,
      "hit": false,
      "t": 37499.994999999966,
      "d": 913.4614166666724,
      "v": 60
    },
    {
      "midi": 52,
      "hit": false,
      "t": 37499.994999999966,
      "d": 919.4710312500029,
      "v": 76
    },
    {
      "midi": 45,
      "hit": false,
      "t": 38076.91799999997,
      "d": 727.1633645833354,
      "v": 84
    },
    {
      "midi": 52,
      "hit": false,
      "t": 38653.84099999997,
      "d": 474.7595520833347,
      "v": 68
    },
    {
      "midi": 57,
      "hit": false,
      "t": 38653.84099999997,
      "d": 474.7595520833347,
      "v": 93
    },
    {
      "midi": 61,
      "hit": false,
      "t": 38653.84099999997,
      "d": 522.8364687499998,
      "v": 58
    },
    {
      "midi": 35,
      "hit": false,
      "t": 39230.763999999974,
      "d": 1135.8171562499992,
      "v": 67
    },
    {
      "midi": 59,
      "hit": false,
      "t": 39807.686999999976,
      "d": 919.4710312499956,
      "v": 79
    },
    {
      "midi": 63,
      "hit": false,
      "t": 39807.686999999976,
      "d": 925.480645833326,
      "v": 62
    },
    {
      "midi": 54,
      "hit": false,
      "t": 39807.686999999976,
      "d": 937.4998749999941,
      "v": 60
    },
    {
      "midi": 59,
      "hit": false,
      "t": 40961.53299999997,
      "d": 841.3460416666712,
      "v": 93
    },
    {
      "midi": 63,
      "hit": false,
      "t": 40961.53299999997,
      "d": 859.3748854166697,
      "v": 60
    },
    {
      "midi": 54,
      "hit": false,
      "t": 40961.53299999997,
      "d": 925.4806458333333,
      "v": 68
    },
    {
      "midi": 35,
      "hit": false,
      "t": 41538.45599999997,
      "d": 1316.1055937499987,
      "v": 74
    },
    {
      "midi": 59,
      "hit": false,
      "t": 42115.378999999964,
      "d": 853.3652708333393,
      "v": 93
    },
    {
      "midi": 63,
      "hit": false,
      "t": 42115.378999999964,
      "d": 883.4133437500059,
      "v": 64
    },
    {
      "midi": 54,
      "hit": false,
      "t": 42115.378999999964,
      "d": 895.432572916674,
      "v": 74
    },
    {
      "midi": 63,
      "hit": false,
      "t": 43269.22499999997,
      "d": 486.7787812500028,
      "v": 72
    },
    {
      "midi": 59,
      "hit": false,
      "t": 43269.22499999997,
      "d": 498.7980104166709,
      "v": 99
    },
    {
      "midi": 35,
      "hit": false,
      "t": 43269.22499999997,
      "d": 534.8556979166679,
      "v": 86
    },
    {
      "midi": 54,
      "hit": false,
      "t": 43269.22499999997,
      "d": 552.8845416666663,
      "v": 78
    },
    {
      "midi": 40,
      "hit": false,
      "t": 43846.14799999997,
      "d": 1868.9901354166723,
      "v": 94
    },
    {
      "midi": 56,
      "hit": false,
      "t": 44423.070999999974,
      "d": 847.3556562500016,
      "v": 76
    },
    {
      "midi": 52,
      "hit": false,
      "t": 44423.070999999974,
      "d": 919.4710312500029,
      "v": 68
    },
    {
      "midi": 59,
      "hit": false,
      "t": 44423.070999999974,
      "d": 943.509489583339,
      "v": 70
    },
    {
      "midi": 59,
      "hit": false,
      "t": 45576.91699999998,
      "d": 366.58648958332924,
      "v": 68
    },
    {
      "midi": 56,
      "hit": false,
      "t": 45576.91699999998,
      "d": 438.70186458333046,
      "v": 72
    },
    {
      "midi": 52,
      "hit": false,
      "t": 45576.91699999998,
      "d": 450.72109374999854,
      "v": 70
    },
    {
      "midi": 40,
      "hit": false,
      "t": 46153.839999999975,
      "d": 294.4711145833353,
      "v": 84
    },
    {
      "midi": 59,
      "hit": false,
      "t": 46153.839999999975,
      "d": 438.70186458333774,
      "v": 68
    },
    {
      "midi": 56,
      "hit": false,
      "t": 46153.839999999975,
      "d": 456.7307083333362,
      "v": 60
    },
    {
      "midi": 52,
      "hit": false,
      "t": 46153.839999999975,
      "d": 486.7787812500028,
      "v": 58
    },
    {
      "midi": 40,
      "hit": false,
      "t": 46730.76299999998,
      "d": 558.8941562499967,
      "v": 78
    },
    {
      "midi": 42,
      "hit": false,
      "t": 47307.68599999997,
      "d": 534.8556979166679,
      "v": 78
    },
    {
      "midi": 44,
      "hit": false,
      "t": 47878.59938541664,
      "d": 618.9903020833299,
      "v": 78
    },
    {
      "midi": 45,
      "hit": false,
      "t": 48461.53199999997,
      "d": 1977.1631979166632,
      "v": 86
    },
    {
      "midi": 57,
      "hit": false,
      "t": 49038.454999999965,
      "d": 895.4325729166667,
      "v": 89
    },
    {
      "midi": 61,
      "hit": false,
      "t": 49038.454999999965,
      "d": 907.4518020833348,
      "v": 56
    },
    {
      "midi": 52,
      "hit": false,
      "t": 49038.454999999965,
      "d": 913.4614166666652,
      "v": 76
    },
    {
      "midi": 52,
      "hit": false,
      "t": 50192.30099999996,
      "d": 859.3748854166697,
      "v": 72
    },
    {
      "midi": 57,
      "hit": false,
      "t": 50192.30099999996,
      "d": 895.4325729166667,
      "v": 89
    },
    {
      "midi": 61,
      "hit": false,
      "t": 50192.30099999996,
      "d": 925.4806458333333,
      "v": 68
    },
    {
      "midi": 45,
      "hit": false,
      "t": 50769.223999999966,
      "d": 1532.451718749995,
      "v": 90
    },
    {
      "midi": 57,
      "hit": false,
      "t": 51346.14699999996,
      "d": 853.365270833332,
      "v": 83
    },
    {
      "midi": 61,
      "hit": false,
      "t": 51346.14699999996,
      "d": 907.4518020833348,
      "v": 70
    },
    {
      "midi": 52,
      "hit": false,
      "t": 51346.14699999996,
      "d": 943.5094895833317,
      "v": 64
    },
    {
      "midi": 45,
      "hit": false,
      "t": 52499.99299999996,
      "d": 540.8653124999983,
      "v": 84
    },
    {
      "midi": 52,
      "hit": false,
      "t": 52499.99299999996,
      "d": 540.8653124999983,
      "v": 72
    },
    {
      "midi": 57,
      "hit": false,
      "t": 52499.99299999996,
      "d": 564.9037708333344,
      "v": 87
    },
    {
      "midi": 61,
      "hit": false,
      "t": 52499.99299999996,
      "d": 570.9133854166648,
      "v": 60
    },
    {
      "midi": 40,
      "hit": false,
      "t": 53076.915999999954,
      "d": 2109.374718750005,
      "v": 76
    },
    {
      "midi": 56,
      "hit": false,
      "t": 53653.838999999956,
      "d": 883.4133437499986,
      "v": 76
    },
    {
      "midi": 59,
      "hit": false,
      "t": 53653.838999999956,
      "d": 895.4325729166667,
      "v": 76
    },
    {
      "midi": 52,
      "hit": false,
      "t": 53653.838999999956,
      "d": 919.4710312500029,
      "v": 76
    },
    {
      "midi": 56,
      "hit": false,
      "t": 54807.68499999996,
      "d": 763.221052083325,
      "v": 56
    },
    {
      "midi": 59,
      "hit": false,
      "t": 54807.68499999996,
      "d": 781.2498958333235,
      "v": 66
    },
    {
      "midi": 52,
      "hit": false,
      "t": 54807.68499999996,
      "d": 799.278739583322,
      "v": 62
    },
    {
      "midi": 40,
      "hit": false,
      "t": 55384.60799999996,
      "d": 865.3844999999928,
      "v": 88
    },
    {
      "midi": 56,
      "hit": false,
      "t": 55961.53099999995,
      "d": 805.2883541666597,
      "v": 76
    },
    {
      "midi": 59,
      "hit": false,
      "t": 55961.53099999995,
      "d": 901.4421874999898,
      "v": 76
    },
    {
      "midi": 52,
      "hit": false,
      "t": 55961.53099999995,
      "d": 913.4614166666579,
      "v": 78
    },
    {
      "midi": 40,
      "hit": false,
      "t": 56538.45399999995,
      "d": 366.58648958332924,
      "v": 96
    },
    {
      "midi": 39,
      "hit": false,
      "t": 56917.059718749944,
      "d": 210.336510416666,
      "v": 69
    },
    {
      "midi": 40,
      "hit": false,
      "t": 57115.37699999994,
      "d": 378.6057187500046,
      "v": 86
    },
    {
      "midi": 52,
      "hit": false,
      "t": 57115.37699999994,
      "d": 522.836468750007,
      "v": 66
    },
    {
      "midi": 59,
      "hit": false,
      "t": 57115.37699999994,
      "d": 522.836468750007,
      "v": 76
    },
    {
      "midi": 56,
      "hit": false,
      "t": 57115.37699999994,
      "d": 528.8460833333374,
      "v": 68
    },
    {
      "midi": 41,
      "hit": false,
      "t": 57493.98271874995,
      "d": 240.38458333333256,
      "v": 59
    },
    {
      "midi": 42,
      "hit": false,
      "t": 57692.299999999945,
      "d": 2115.3843333333352,
      "v": 84
    },
    {
      "midi": 54,
      "hit": false,
      "t": 58269.22299999995,
      "d": 871.3941145833305,
      "v": 52
    },
    {
      "midi": 59,
      "hit": false,
      "t": 58269.22299999995,
      "d": 913.4614166666652,
      "v": 83
    },
    {
      "midi": 62,
      "hit": false,
      "t": 58269.22299999995,
      "d": 943.5094895833317,
      "v": 68
    },
    {
      "midi": 62,
      "hit": false,
      "t": 59423.068999999945,
      "d": 534.8556979166679,
      "v": 64
    },
    {
      "midi": 54,
      "hit": false,
      "t": 59423.068999999945,
      "d": 552.8845416666663,
      "v": 76
    },
    {
      "midi": 59,
      "hit": false,
      "t": 59423.068999999945,
      "d": 552.8845416666663,
      "v": 66
    },
    {
      "midi": 40,
      "hit": false,
      "t": 59999.99199999995,
      "d": 2157.4516354166626,
      "v": 80
    },
    {
      "midi": 56,
      "hit": false,
      "t": 60576.91499999995,
      "d": 913.4614166666652,
      "v": 52
    },
    {
      "midi": 52,
      "hit": false,
      "t": 60576.91499999995,
      "d": 919.4710312499956,
      "v": 48
    },
    {
      "midi": 59,
      "hit": false,
      "t": 60576.91499999995,
      "d": 925.480645833326,
      "v": 48
    },
    {
      "midi": 56,
      "hit": false,
      "t": 61730.76099999994,
      "d": 522.8364687499998,
      "v": 56
    },
    {
      "midi": 59,
      "hit": false,
      "t": 61730.76099999994,
      "d": 528.8460833333302,
      "v": 60
    },
    {
      "midi": 52,
      "hit": false,
      "t": 61730.76099999994,
      "d": 534.8556979166606,
      "v": 62
    },
    {
      "midi": 45,
      "hit": false,
      "t": 62307.683999999936,
      "d": 2662.2592604166566,
      "v": 70
    },
    {
      "midi": 57,
      "hit": false,
      "t": 62884.60699999994,
      "d": 685.0960625000007,
      "v": 79
    },
    {
      "midi": 61,
      "hit": false,
      "t": 62884.60699999994,
      "d": 727.1633645833354,
      "v": 52
    },
    {
      "midi": 52,
      "hit": false,
      "t": 62884.60699999994,
      "d": 805.288354166667,
      "v": 62
    },
    {
      "midi": 57,
      "hit": false,
      "t": 64038.452999999936,
      "d": 721.1537499999977,
      "v": 89
    },
    {
      "midi": 61,
      "hit": false,
      "t": 64038.452999999936,
      "d": 757.2114374999946,
      "v": 60
    },
    {
      "midi": 52,
      "hit": false,
      "t": 64038.452999999936,
      "d": 823.3171979166582,
      "v": 64
    },
    {
      "midi": 33,
      "hit": false,
      "t": 65192.298999999926,
      "d": 631.0095312499907,
      "v": 88
    },
    {
      "midi": 52,
      "hit": false,
      "t": 65192.298999999926,
      "d": 907.4518020833202,
      "v": 66
    },
    {
      "midi": 61,
      "hit": false,
      "t": 65192.298999999926,
      "d": 925.4806458333187,
      "v": 52
    },
    {
      "midi": 57,
      "hit": false,
      "t": 65192.298999999926,
      "d": 955.5287187499925,
      "v": 83
    },
    {
      "midi": 35,
      "hit": false,
      "t": 65769.22199999992,
      "d": 546.8749270833359,
      "v": 80
    },
    {
      "midi": 52,
      "hit": false,
      "t": 66346.14499999993,
      "d": 534.8556979166606,
      "v": 74
    },
    {
      "midi": 61,
      "hit": false,
      "t": 66346.14499999993,
      "d": 540.8653124999983,
      "v": 72
    },
    {
      "midi": 57,
      "hit": false,
      "t": 66346.14499999993,
      "d": 552.8845416666591,
      "v": 95
    },
    {
      "midi": 37,
      "hit": false,
      "t": 66346.14499999993,
      "d": 637.0191458333284,
      "v": 82
    },
    {
      "midi": 38,
      "hit": false,
      "t": 66923.06799999993,
      "d": 2109.3747187499976,
      "v": 78
    },
    {
      "midi": 54,
      "hit": false,
      "t": 67499.99099999992,
      "d": 895.432572916674,
      "v": 39
    },
    {
      "midi": 57,
      "hit": false,
      "t": 67499.99099999992,
      "d": 913.4614166666724,
      "v": 52
    },
    {
      "midi": 62,
      "hit": false,
      "t": 67499.99099999992,
      "d": 919.4710312500101,
      "v": 87
    },
    {
      "midi": 57,
      "hit": false,
      "t": 68653.83699999993,
      "d": 739.1825937499962,
      "v": 58
    },
    {
      "midi": 62,
      "hit": false,
      "t": 68653.83699999993,
      "d": 829.3268125000031,
      "v": 62
    },
    {
      "midi": 54,
      "hit": false,
      "t": 68653.83699999993,
      "d": 835.3364270833408,
      "v": 52
    },
    {
      "midi": 38,
      "hit": false,
      "t": 69224.75038541658,
      "d": 1454.3267291666853,
      "v": 86
    },
    {
      "midi": 57,
      "hit": false,
      "t": 69807.68299999993,
      "d": 889.4229583333363,
      "v": 93
    },
    {
      "midi": 54,
      "hit": false,
      "t": 69807.68299999993,
      "d": 919.4710312500101,
      "v": 68
    },
    {
      "midi": 62,
      "hit": false,
      "t": 69807.68299999993,
      "d": 931.4902604166709,
      "v": 72
    },
    {
      "midi": 57,
      "hit": false,
      "t": 70961.52899999994,
      "d": 486.7787812500028,
      "v": 87
    },
    {
      "midi": 62,
      "hit": false,
      "t": 70961.52899999994,
      "d": 498.7980104166636,
      "v": 87
    },
    {
      "midi": 38,
      "hit": false,
      "t": 70961.52899999994,
      "d": 516.8268541666621,
      "v": 86
    },
    {
      "midi": 54,
      "hit": false,
      "t": 70961.52899999994,
      "d": 546.8749270833359,
      "v": 72
    },
    {
      "midi": 45,
      "hit": false,
      "t": 71538.45199999995,
      "d": 2139.422791666657,
      "v": 86
    },
    {
      "midi": 57,
      "hit": false,
      "t": 72115.37499999994,
      "d": 847.3556562500016,
      "v": 83
    },
    {
      "midi": 52,
      "hit": false,
      "t": 72115.37499999994,
      "d": 895.432572916674,
      "v": 76
    },
    {
      "midi": 61,
      "hit": false,
      "t": 72115.37499999994,
      "d": 895.432572916674,
      "v": 58
    },
    {
      "midi": 57,
      "hit": false,
      "t": 73269.22099999995,
      "d": 372.59610416665964,
      "v": 83
    },
    {
      "midi": 52,
      "hit": false,
      "t": 73269.22099999995,
      "d": 384.61533333332045,
      "v": 66
    },
    {
      "midi": 61,
      "hit": false,
      "t": 73269.22099999995,
      "d": 480.76916666665056,
      "v": 62
    },
    {
      "midi": 38,
      "hit": false,
      "t": 73846.14399999993,
      "d": 1893.0285937500012,
      "v": 90
    },
    {
      "midi": 54,
      "hit": false,
      "t": 74423.06699999992,
      "d": 853.3652708333393,
      "v": 54
    },
    {
      "midi": 57,
      "hit": false,
      "t": 74423.06699999992,
      "d": 895.432572916674,
      "v": 79
    },
    {
      "midi": 62,
      "hit": false,
      "t": 74423.06699999992,
      "d": 913.4614166666724,
      "v": 68
    },
    {
      "midi": 62,
      "hit": false,
      "t": 75576.91299999993,
      "d": 528.8460833333374,
      "v": 72
    },
    {
      "midi": 57,
      "hit": false,
      "t": 75576.91299999993,
      "d": 534.8556979166751,
      "v": 83
    },
    {
      "midi": 54,
      "hit": false,
      "t": 75576.91299999993,
      "d": 552.8845416666736,
      "v": 68
    },
    {
      "midi": 40,
      "hit": false,
      "t": 76153.83599999994,
      "d": 1929.0862812499981,
      "v": 80
    },
    {
      "midi": 57,
      "hit": false,
      "t": 76730.75899999993,
      "d": 847.3556562500016,
      "v": 83
    },
    {
      "midi": 61,
      "hit": false,
      "t": 76730.75899999993,
      "d": 901.4421874999971,
      "v": 58
    },
    {
      "midi": 52,
      "hit": false,
      "t": 76730.75899999993,
      "d": 943.5094895833317,
      "v": 68
    },
    {
      "midi": 57,
      "hit": false,
      "t": 77884.60499999994,
      "d": 516.8268541666621,
      "v": 95
    },
    {
      "midi": 52,
      "hit": false,
      "t": 77884.60499999994,
      "d": 528.8460833333229,
      "v": 78
    },
    {
      "midi": 61,
      "hit": false,
      "t": 77884.60499999994,
      "d": 528.8460833333229,
      "v": 64
    },
    {
      "midi": 40,
      "hit": false,
      "t": 78461.52799999993,
      "d": 1520.4324895833415,
      "v": 80
    },
    {
      "midi": 59,
      "hit": false,
      "t": 79038.45099999993,
      "d": 805.288354166667,
      "v": 72
    },
    {
      "midi": 52,
      "hit": false,
      "t": 79038.45099999993,
      "d": 853.3652708333393,
      "v": 76
    },
    {
      "midi": 56,
      "hit": false,
      "t": 79038.45099999993,
      "d": 877.4037291666755,
      "v": 74
    },
    {
      "midi": 59,
      "hit": false,
      "t": 80192.29699999995,
      "d": 354.56726041666116,
      "v": 76
    },
    {
      "midi": 56,
      "hit": false,
      "t": 80192.29699999995,
      "d": 360.57687499999884,
      "v": 72
    },
    {
      "midi": 52,
      "hit": false,
      "t": 80192.29699999995,
      "d": 372.59610416665964,
      "v": 72
    },
    {
      "midi": 40,
      "hit": false,
      "t": 80192.29699999995,
      "d": 570.9133854166575,
      "v": 80
    },
    {
      "midi": 45,
      "hit": false,
      "t": 80769.21999999994,
      "d": 1027.6440937499865,
      "v": 80
    },
    {
      "midi": 52,
      "hit": false,
      "t": 81346.14299999994,
      "d": 258.41342708333104,
      "v": 83
    },
    {
      "midi": 57,
      "hit": false,
      "t": 81346.14299999994,
      "d": 270.43265624999185,
      "v": 74
    },
    {
      "midi": 61,
      "hit": false,
      "t": 81346.14299999994,
      "d": 270.43265624999185,
      "v": 56
    },
    {
      "midi": 38,
      "hit": false,
      "t": 81917.0563854166,
      "d": 1105.7690833333618,
      "v": 88
    },
    {
      "midi": 54,
      "hit": false,
      "t": 81923.06599999993,
      "d": 348.55764583333803,
      "v": 52
    },
    {
      "midi": 57,
      "hit": false,
      "t": 81929.07561458327,
      "d": 330.52880208333954,
      "v": 52
    },
    {
      "midi": 62,
      "hit": false,
      "t": 81929.07561458327,
      "d": 348.55764583333803,
      "v": 35
    },
    {
      "midi": 62,
      "hit": false,
      "t": 82499.98899999994,
      "d": 330.52880208333954,
      "v": 83
    },
    {
      "midi": 54,
      "hit": false,
      "t": 82499.98899999994,
      "d": 360.5768750000134,
      "v": 52
    },
    {
      "midi": 57,
      "hit": false,
      "t": 82499.98899999994,
      "d": 378.6057187500119,
      "v": 93
    },
    {
      "midi": 57,
      "hit": false,
      "t": 83076.91199999995,
      "d": 270.4326562500064,
      "v": 91
    },
    {
      "midi": 61,
      "hit": false,
      "t": 83076.91199999995,
      "d": 294.47111458334257,
      "v": 70
    },
    {
      "midi": 52,
      "hit": false,
      "t": 83076.91199999995,
      "d": 300.48072916668025,
      "v": 78
    },
    {
      "midi": 45,
      "hit": false,
      "t": 83076.91199999995,
      "d": 336.5384166666772,
      "v": 98
    },
    {
      "midi": 40,
      "hit": false,
      "t": 83653.83499999996,
      "d": 522.8364687499998,
      "v": 96
    },
    {
      "midi": 42,
      "hit": false,
      "t": 84230.75799999996,
      "d": 552.8845416666736,
      "v": 82
    },
    {
      "midi": 44,
      "hit": false,
      "t": 84801.67138541663,
      "d": 510.81723958333896,
      "v": 84
    },
    {
      "midi": 45,
      "hit": false,
      "t": 85384.60399999996,
      "d": 1977.163197916656,
      "v": 92
    },
    {
      "midi": 61,
      "hit": false,
      "t": 85961.52699999996,
      "d": 799.2787395833293,
      "v": 64
    },
    {
      "midi": 57,
      "hit": false,
      "t": 85961.52699999996,
      "d": 805.288354166667,
      "v": 89
    },
    {
      "midi": 52,
      "hit": false,
      "t": 85961.52699999996,
      "d": 877.4037291666609,
      "v": 62
    },
    {
      "midi": 52,
      "hit": false,
      "t": 87115.37299999995,
      "d": 474.759552083342,
      "v": 84
    },
    {
      "midi": 57,
      "hit": false,
      "t": 87115.37299999995,
      "d": 474.759552083342,
      "v": 85
    },
    {
      "midi": 61,
      "hit": false,
      "t": 87115.37299999995,
      "d": 480.76916666667967,
      "v": 79
    },
    {
      "midi": 37,
      "hit": false,
      "t": 87692.29599999996,
      "d": 1508.4132604166662,
      "v": 78
    },
    {
      "midi": 53,
      "hit": false,
      "t": 88269.21899999995,
      "d": 865.3845000000001,
      "v": 76
    },
    {
      "midi": 61,
      "hit": false,
      "t": 88269.21899999995,
      "d": 889.4229583333363,
      "v": 69
    },
    {
      "midi": 56,
      "hit": false,
      "t": 88269.21899999995,
      "d": 937.4998750000086,
      "v": 79
    },
    {
      "midi": 61,
      "hit": false,
      "t": 89423.06499999996,
      "d": 480.7691666666651,
      "v": 79
    },
    {
      "midi": 56,
      "hit": false,
      "t": 89423.06499999996,
      "d": 498.7980104166636,
      "v": 79
    },
    {
      "midi": 53,
      "hit": false,
      "t": 89423.06499999996,
      "d": 516.8268541666621,
      "v": 79
    },
    {
      "midi": 37,
      "hit": false,
      "t": 89423.06499999996,
      "d": 540.8653124999983,
      "v": 76
    },
    {
      "midi": 38,
      "hit": false,
      "t": 89999.98799999995,
      "d": 1947.1151249999966,
      "v": 104
    },
    {
      "midi": 57,
      "hit": false,
      "t": 90576.91099999995,
      "d": 751.2018229166715,
      "v": 97
    },
    {
      "midi": 62,
      "hit": false,
      "t": 90576.91099999995,
      "d": 823.3171979166655,
      "v": 72
    },
    {
      "midi": 54,
      "hit": false,
      "t": 90576.91099999995,
      "d": 847.3556562500016,
      "v": 72
    },
    {
      "midi": 57,
      "hit": false,
      "t": 91730.75699999995,
      "d": 769.2306666666555,
      "v": 93
    },
    {
      "midi": 62,
      "hit": false,
      "t": 91730.75699999995,
      "d": 769.2306666666555,
      "v": 78
    },
    {
      "midi": 54,
      "hit": false,
      "t": 91730.75699999995,
      "d": 817.3075833333278,
      "v": 81
    },
    {
      "midi": 38,
      "hit": false,
      "t": 92301.67038541661,
      "d": 871.3941145833378,
      "v": 82
    },
    {
      "midi": 62,
      "hit": false,
      "t": 92884.60299999994,
      "d": 516.8268541666766,
      "v": 93
    },
    {
      "midi": 54,
      "hit": false,
      "t": 92884.60299999994,
      "d": 552.8845416666736,
      "v": 87
    },
    {
      "midi": 57,
      "hit": false,
      "t": 92884.60299999994,
      "d": 588.9422291666706,
      "v": 95
    },
    {
      "midi": 61,
      "hit": false,
      "t": 93461.52599999995,
      "d": 516.8268541666621,
      "v": 87
    },
    {
      "midi": 37,
      "hit": false,
      "t": 93461.52599999995,
      "d": 534.8556979166606,
      "v": 74
    },
    {
      "midi": 59,
      "hit": false,
      "t": 94038.44899999995,
      "d": 516.8268541666621,
      "v": 95
    },
    {
      "midi": 35,
      "hit": false,
      "t": 94038.44899999995,
      "d": 540.8653124999983,
      "v": 88
    },
    {
      "midi": 33,
      "hit": false,
      "t": 94615.37199999994,
      "d": 1917.0670520833228,
      "v": 84
    },
    {
      "midi": 57,
      "hit": false,
      "t": 95192.29499999994,
      "d": 847.3556562500016,
      "v": 85
    },
    {
      "midi": 61,
      "hit": false,
      "t": 95192.29499999994,
      "d": 859.3748854166624,
      "v": 52
    },
    {
      "midi": 52,
      "hit": false,
      "t": 95192.29499999994,
      "d": 901.4421874999971,
      "v": 66
    },
    {
      "midi": 52,
      "hit": false,
      "t": 96346.14099999993,
      "d": 444.71147916666814,
      "v": 62
    },
    {
      "midi": 57,
      "hit": false,
      "t": 96346.14099999993,
      "d": 456.73070833332895,
      "v": 81
    },
    {
      "midi": 61,
      "hit": false,
      "t": 96346.14099999993,
      "d": 492.7883958333259,
      "v": 54
    },
    {
      "midi": 42,
      "hit": false,
      "t": 96917.05438541659,
      "d": 1352.163281250003,
      "v": 61
    },
    {
      "midi": 58,
      "hit": false,
      "t": 97499.98699999992,
      "d": 835.3364270833408,
      "v": 89
    },
    {
      "midi": 61,
      "hit": false,
      "t": 97499.98699999992,
      "d": 847.3556562500016,
      "v": 70
    },
    {
      "midi": 54,
      "hit": false,
      "t": 97499.98699999992,
      "d": 913.4614166666724,
      "v": 64
    },
    {
      "midi": 61,
      "hit": false,
      "t": 98653.83299999993,
      "d": 348.55764583333803,
      "v": 72
    },
    {
      "midi": 58,
      "hit": false,
      "t": 98653.83299999993,
      "d": 360.57687499999884,
      "v": 87
    },
    {
      "midi": 54,
      "hit": false,
      "t": 98653.83299999993,
      "d": 420.673020833332,
      "v": 76
    },
    {
      "midi": 42,
      "hit": false,
      "t": 98653.83299999993,
      "d": 558.8941562499967,
      "v": 80
    },
    {
      "midi": 35,
      "hit": false,
      "t": 99230.75599999992,
      "d": 2157.4516354166844,
      "v": 84
    },
    {
      "midi": 63,
      "hit": false,
      "t": 99801.6693854166,
      "d": 841.3460416666785,
      "v": 68
    },
    {
      "midi": 59,
      "hit": false,
      "t": 99807.67899999993,
      "d": 787.2595104166685,
      "v": 95
    },
    {
      "midi": 54,
      "hit": false,
      "t": 99807.67899999993,
      "d": 877.4037291666755,
      "v": 64
    },
    {
      "midi": 63,
      "hit": false,
      "t": 100961.52499999994,
      "d": 324.51918750000186,
      "v": 66
    },
    {
      "midi": 54,
      "hit": false,
      "t": 100961.52499999994,
      "d": 456.7307083333435,
      "v": 81
    },
    {
      "midi": 59,
      "hit": false,
      "t": 100961.52499999994,
      "d": 462.7403229166812,
      "v": 97
    },
    {
      "midi": 40,
      "hit": false,
      "t": 101538.44799999995,
      "d": 528.8460833333374,
      "v": 102
    },
    {
      "midi": 56,
      "hit": false,
      "t": 102115.37099999996,
      "d": 763.2210520833323,
      "v": 56
    },
    {
      "midi": 59,
      "hit": false,
      "t": 102115.37099999996,
      "d": 799.2787395833293,
      "v": 68
    },
    {
      "midi": 52,
      "hit": false,
      "t": 102115.37099999996,
      "d": 805.288354166667,
      "v": 62
    },
    {
      "midi": 40,
      "hit": false,
      "t": 102493.97671874995,
      "d": 264.4230416666687,
      "v": 80
    },
    {
      "midi": 42,
      "hit": false,
      "t": 102692.29399999995,
      "d": 564.9037708333344,
      "v": 74
    },
    {
      "midi": 56,
      "hit": false,
      "t": 103269.21699999995,
      "d": 450.7210937500058,
      "v": 81
    },
    {
      "midi": 59,
      "hit": false,
      "t": 103269.21699999995,
      "d": 474.759552083342,
      "v": 85
    },
    {
      "midi": 44,
      "hit": false,
      "t": 103269.21699999995,
      "d": 534.8556979166751,
      "v": 82
    },
    {
      "midi": 52,
      "hit": false,
      "t": 103269.21699999995,
      "d": 552.8845416666736,
      "v": 76
    },
    {
      "midi": 45,
      "hit": false,
      "t": 103846.13999999996,
      "d": 2277.6439270833507,
      "v": 78
    },
    {
      "midi": 61,
      "hit": false,
      "t": 104423.06299999995,
      "d": 853.3652708333393,
      "v": 78
    },
    {
      "midi": 57,
      "hit": false,
      "t": 104423.06299999995,
      "d": 877.4037291666755,
      "v": 97
    },
    {
      "midi": 52,
      "hit": false,
      "t": 104423.06299999995,
      "d": 925.4806458333478,
      "v": 79
    },
    {
      "midi": 57,
      "hit": false,
      "t": 105576.90899999997,
      "d": 528.8460833333374,
      "v": 93
    },
    {
      "midi": 52,
      "hit": false,
      "t": 105576.90899999997,
      "d": 546.8749270833359,
      "v": 78
    },
    {
      "midi": 61,
      "hit": false,
      "t": 105576.90899999997,
      "d": 552.8845416666736,
      "v": 64
    },
    {
      "midi": 37,
      "hit": false,
      "t": 106153.83199999998,
      "d": 1724.7593854166917,
      "v": 80
    },
    {
      "midi": 61,
      "hit": false,
      "t": 106724.74538541665,
      "d": 955.5287187500217,
      "v": 56
    },
    {
      "midi": 56,
      "hit": false,
      "t": 106730.75499999999,
      "d": 853.3652708333393,
      "v": 83
    },
    {
      "midi": 53,
      "hit": false,
      "t": 106730.75499999999,
      "d": 901.4421875000116,
      "v": 52
    },
    {
      "midi": 56,
      "hit": false,
      "t": 107884.60100000001,
      "d": 486.7787812500028,
      "v": 83
    },
    {
      "midi": 61,
      "hit": false,
      "t": 107884.60100000001,
      "d": 510.81723958333896,
      "v": 66
    },
    {
      "midi": 53,
      "hit": false,
      "t": 107884.60100000001,
      "d": 534.8556979166751,
      "v": 72
    },
    {
      "midi": 38,
      "hit": false,
      "t": 108461.52400000002,
      "d": 2091.3458749999845,
      "v": 86
    },
    {
      "midi": 57,
      "hit": false,
      "t": 109038.44700000001,
      "d": 799.2787395833293,
      "v": 95
    },
    {
      "midi": 62,
      "hit": false,
      "t": 109038.44700000001,
      "d": 853.3652708333248,
      "v": 74
    },
    {
      "midi": 54,
      "hit": false,
      "t": 109038.44700000001,
      "d": 913.4614166666579,
      "v": 72
    },
    {
      "midi": 57,
      "hit": false,
      "t": 110192.293,
      "d": 661.0576041666645,
      "v": 103
    },
    {
      "midi": 62,
      "hit": false,
      "t": 110192.293,
      "d": 685.0960625000007,
      "v": 93
    },
    {
      "midi": 54,
      "hit": false,
      "t": 110192.293,
      "d": 715.1441354166745,
      "v": 83
    },
    {
      "midi": 38,
      "hit": false,
      "t": 110769.216,
      "d": 919.4710312500101,
      "v": 98
    },
    {
      "midi": 54,
      "hit": false,
      "t": 111346.13900000001,
      "d": 540.8653124999983,
      "v": 83
    },
    {
      "midi": 62,
      "hit": false,
      "t": 111346.13900000001,
      "d": 540.8653124999983,
      "v": 83
    },
    {
      "midi": 57,
      "hit": false,
      "t": 111346.13900000001,
      "d": 552.8845416666591,
      "v": 99
    },
    {
      "midi": 37,
      "hit": false,
      "t": 111923.062,
      "d": 546.8749270833359,
      "v": 80
    },
    {
      "midi": 61,
      "hit": false,
      "t": 111923.062,
      "d": 558.8941562499967,
      "v": 83
    },
    {
      "midi": 59,
      "hit": false,
      "t": 112499.985,
      "d": 528.8460833333374,
      "v": 76
    },
    {
      "midi": 35,
      "hit": false,
      "t": 112499.985,
      "d": 558.8941562500113,
      "v": 88
    },
    {
      "midi": 33,
      "hit": false,
      "t": 113070.89838541667,
      "d": 1514.4228750000038,
      "v": 78
    },
    {
      "midi": 61,
      "hit": false,
      "t": 113653.831,
      "d": 709.1345208333369,
      "v": 60
    },
    {
      "midi": 57,
      "hit": false,
      "t": 113653.831,
      "d": 745.1922083333338,
      "v": 76
    },
    {
      "midi": 52,
      "hit": false,
      "t": 113653.831,
      "d": 841.346041666664,
      "v": 72
    },
    {
      "midi": 61,
      "hit": false,
      "t": 114807.67700000001,
      "d": 450.7210937500058,
      "v": 56
    },
    {
      "midi": 57,
      "hit": false,
      "t": 114807.67700000001,
      "d": 492.7883958333405,
      "v": 93
    },
    {
      "midi": 52,
      "hit": false,
      "t": 114807.67700000001,
      "d": 504.8076250000013,
      "v": 70
    },
    {
      "midi": 33,
      "hit": false,
      "t": 115192.29233333335,
      "d": 270.43265624999185,
      "v": 70
    },
    {
      "midi": 40,
      "hit": false,
      "t": 115384.6,
      "d": 2103.36510416666,
      "v": 78
    },
    {
      "midi": 56,
      "hit": false,
      "t": 115961.523,
      "d": 847.3556562500016,
      "v": 78
    },
    {
      "midi": 59,
      "hit": false,
      "t": 115961.523,
      "d": 847.3556562500016,
      "v": 70
    },
    {
      "midi": 52,
      "hit": false,
      "t": 115961.523,
      "d": 871.3941145833378,
      "v": 66
    },
    {
      "midi": 52,
      "hit": false,
      "t": 117115.369,
      "d": 426.6826354166551,
      "v": 72
    },
    {
      "midi": 56,
      "hit": false,
      "t": 117115.369,
      "d": 438.7018645833159,
      "v": 66
    },
    {
      "midi": 59,
      "hit": false,
      "t": 117115.369,
      "d": 444.7114791666536,
      "v": 76
    },
    {
      "midi": 37,
      "hit": false,
      "t": 117692.29199999999,
      "d": 2109.3747187499976,
      "v": 78
    },
    {
      "midi": 56,
      "hit": false,
      "t": 118269.21499999998,
      "d": 913.4614166666724,
      "v": 85
    },
    {
      "midi": 61,
      "hit": false,
      "t": 118269.21499999998,
      "d": 937.4998750000086,
      "v": 72
    },
    {
      "midi": 53,
      "hit": false,
      "t": 118269.21499999998,
      "d": 955.5287187500071,
      "v": 76
    },
    {
      "midi": 56,
      "hit": false,
      "t": 119423.06099999999,
      "d": 534.8556979166606,
      "v": 70
    },
    {
      "midi": 53,
      "hit": false,
      "t": 119423.06099999999,
      "d": 540.8653124999983,
      "v": 68
    },
    {
      "midi": 61,
      "hit": false,
      "t": 119423.06099999999,
      "d": 564.9037708333344,
      "v": 64
    },
    {
      "midi": 42,
      "hit": false,
      "t": 119999.98399999998,
      "d": 907.4518020833493,
      "v": 76
    },
    {
      "midi": 54,
      "hit": false,
      "t": 120570.89738541665,
      "d": 835.3364270833408,
      "v": 68
    },
    {
      "midi": 58,
      "hit": false,
      "t": 120576.90699999999,
      "d": 775.2402812500077,
      "v": 83
    },
    {
      "midi": 61,
      "hit": false,
      "t": 120576.90699999999,
      "d": 811.2979687500047,
      "v": 62
    },
    {
      "midi": 40,
      "hit": false,
      "t": 120955.51271875,
      "d": 228.3653541666572,
      "v": 86
    },
    {
      "midi": 42,
      "hit": false,
      "t": 121147.82038541666,
      "d": 426.68263541666965,
      "v": 59
    },
    {
      "midi": 40,
      "hit": false,
      "t": 121532.43571875,
      "d": 252.40381249999336,
      "v": 82
    },
    {
      "midi": 42,
      "hit": false,
      "t": 121730.753,
      "d": 378.6057187499973,
      "v": 74
    },
    {
      "midi": 61,
      "hit": false,
      "t": 121730.753,
      "d": 486.7787812500028,
      "v": 64
    },
    {
      "midi": 58,
      "hit": false,
      "t": 121730.753,
      "d": 504.8076250000013,
      "v": 76
    },
    {
      "midi": 54,
      "hit": false,
      "t": 121730.753,
      "d": 522.8364687499998,
      "v": 68
    },
    {
      "midi": 40,
      "hit": false,
      "t": 122109.35871875,
      "d": 240.38458333333256,
      "v": 90
    },
    {
      "midi": 38,
      "hit": false,
      "t": 122307.67599999999,
      "d": 2127.4035624999815,
      "v": 92
    },
    {
      "midi": 57,
      "hit": false,
      "t": 122884.59899999999,
      "d": 841.346041666664,
      "v": 103
    },
    {
      "midi": 62,
      "hit": false,
      "t": 122884.59899999999,
      "d": 943.5094895833317,
      "v": 87
    },
    {
      "midi": 54,
      "hit": false,
      "t": 122884.59899999999,
      "d": 1039.6633229166619,
      "v": 79
    },
    {
      "midi": 62,
      "hit": false,
      "t": 124038.44499999998,
      "d": 402.6441770833335,
      "v": 72
    },
    {
      "midi": 57,
      "hit": false,
      "t": 124038.44499999998,
      "d": 486.7787812500028,
      "v": 79
    },
    {
      "midi": 54,
      "hit": false,
      "t": 124038.44499999998,
      "d": 516.8268541666766,
      "v": 68
    },
    {
      "midi": 40,
      "hit": false,
      "t": 124615.36799999999,
      "d": 1893.0285937500012,
      "v": 84
    },
    {
      "midi": 56,
      "hit": false,
      "t": 125192.29099999998,
      "d": 907.4518020833348,
      "v": 68
    },
    {
      "midi": 52,
      "hit": false,
      "t": 125192.29099999998,
      "d": 913.4614166666724,
      "v": 62
    },
    {
      "midi": 59,
      "hit": false,
      "t": 125192.29099999998,
      "d": 925.4806458333333,
      "v": 74
    },
    {
      "midi": 59,
      "hit": false,
      "t": 126346.13699999999,
      "d": 378.6057187499973,
      "v": 60
    },
    {
      "midi": 56,
      "hit": false,
      "t": 126346.13699999999,
      "d": 456.73070833332895,
      "v": 56
    },
    {
      "midi": 52,
      "hit": false,
      "t": 126346.13699999999,
      "d": 474.75955208332743,
      "v": 76
    },
    {
      "midi": 45,
      "hit": false,
      "t": 126917.05038541665,
      "d": 1063.701781249998,
      "v": 86
    },
    {
      "midi": 61,
      "hit": false,
      "t": 127499.98299999998,
      "d": 480.7691666666651,
      "v": 60
    },
    {
      "midi": 52,
      "hit": false,
      "t": 127499.98299999998,
      "d": 504.8076250000013,
      "v": 64
    },
    {
      "midi": 57,
      "hit": false,
      "t": 127499.98299999998,
      "d": 504.8076250000013,
      "v": 81
    },
    {
      "midi": 38,
      "hit": false,
      "t": 128076.90599999997,
      "d": 1141.8267708333442,
      "v": 90
    },
    {
      "midi": 54,
      "hit": false,
      "t": 128647.81938541665,
      "d": 552.8845416666736,
      "v": 76
    },
    {
      "midi": 62,
      "hit": false,
      "t": 128653.82899999998,
      "d": 486.7787812500028,
      "v": 81
    },
    {
      "midi": 57,
      "hit": false,
      "t": 128653.82899999998,
      "d": 564.9037708333344,
      "v": 101
    },
    {
      "midi": 45,
      "hit": false,
      "t": 129230.75199999998,
      "d": 342.54803125000035,
      "v": 102
    },
    {
      "midi": 40,
      "hit": false,
      "t": 129807.67499999997,
      "d": 552.8845416666736,
      "v": 106
    },
    {
      "midi": 42,
      "hit": false,
      "t": 130384.59799999998,
      "d": 546.8749270833359,
      "v": 86
    },
    {
      "midi": 44,
      "hit": false,
      "t": 130961.521,
      "d": 588.9422291666706,
      "v": 90
    },
    {
      "midi": 45,
      "hit": false,
      "t": 131538.444,
      "d": 1033.6537083333533,
      "v": 86
    },
    {
      "midi": 57,
      "hit": false,
      "t": 132115.367,
      "d": 919.4710312499956,
      "v": 97
    },
    {
      "midi": 52,
      "hit": false,
      "t": 132115.367,
      "d": 949.5191041666549,
      "v": 79
    },
    {
      "midi": 61,
      "hit": false,
      "t": 132115.367,
      "d": 949.5191041666549,
      "v": 74
    },
    {
      "midi": 45,
      "hit": false,
      "t": 132692.29,
      "d": 1123.7979270833312,
      "v": 88
    },
    {
      "midi": 61,
      "hit": false,
      "t": 133269.213,
      "d": 540.8653125000128,
      "v": 72
    },
    {
      "midi": 57,
      "hit": false,
      "t": 133269.213,
      "d": 546.8749270833505,
      "v": 95
    },
    {
      "midi": 52,
      "hit": false,
      "t": 133269.213,
      "d": 564.9037708333635,
      "v": 79
    },
    {
      "midi": 37,
      "hit": false,
      "t": 133846.13600000003,
      "d": 937.4998750000086,
      "v": 82
    },
    {
      "midi": 56,
      "hit": false,
      "t": 134423.05900000004,
      "d": 865.3845000000147,
      "v": 87
    },
    {
      "midi": 53,
      "hit": false,
      "t": 134423.05900000004,
      "d": 919.4710312500247,
      "v": 79
    },
    {
      "midi": 61,
      "hit": false,
      "t": 134423.05900000004,
      "d": 943.5094895833463,
      "v": 72
    },
    {
      "midi": 37,
      "hit": false,
      "t": 134999.98200000005,
      "d": 1063.7017812500126,
      "v": 78
    },
    {
      "midi": 56,
      "hit": false,
      "t": 135576.90500000006,
      "d": 498.79801041667815,
      "v": 83
    },
    {
      "midi": 61,
      "hit": false,
      "t": 135576.90500000006,
      "d": 498.79801041667815,
      "v": 72
    },
    {
      "midi": 53,
      "hit": false,
      "t": 135576.90500000006,
      "d": 510.8172395833535,
      "v": 76
    },
    {
      "midi": 38,
      "hit": false,
      "t": 136147.81838541676,
      "d": 1033.6537083333533,
      "v": 84
    },
    {
      "midi": 57,
      "hit": false,
      "t": 136730.7510000001,
      "d": 949.519104166684,
      "v": 97
    },
    {
      "midi": 62,
      "hit": false,
      "t": 136730.7510000001,
      "d": 955.5287187500217,
      "v": 72
    },
    {
      "midi": 54,
      "hit": false,
      "t": 136730.7510000001,
      "d": 1039.663322916691,
      "v": 68
    },
    {
      "midi": 38,
      "hit": false,
      "t": 137307.67400000012,
      "d": 1051.6825520833372,
      "v": 80
    },
    {
      "midi": 57,
      "hit": false,
      "t": 137884.59700000013,
      "d": 703.1249062499846,
      "v": 95
    },
    {
      "midi": 62,
      "hit": false,
      "t": 137884.59700000013,
      "d": 733.1729791666439,
      "v": 85
    },
    {
      "midi": 54,
      "hit": false,
      "t": 137884.59700000013,
      "d": 799.2787395833002,
      "v": 83
    },
    {
      "midi": 38,
      "hit": false,
      "t": 138461.5200000001,
      "d": 871.3941145833232,
      "v": 84
    },
    {
      "midi": 62,
      "hit": false,
      "t": 139038.4430000001,
      "d": 528.8460833333374,
      "v": 64
    },
    {
      "midi": 54,
      "hit": false,
      "t": 139038.4430000001,
      "d": 540.8653125000128,
      "v": 74
    },
    {
      "midi": 57,
      "hit": false,
      "t": 139038.4430000001,
      "d": 631.0095312500198,
      "v": 95
    },
    {
      "midi": 38,
      "hit": false,
      "t": 139423.05833333344,
      "d": 252.40381250000792,
      "v": 86
    },
    {
      "midi": 37,
      "hit": false,
      "t": 139615.3660000001,
      "d": 546.8749270833505,
      "v": 86
    },
    {
      "midi": 61,
      "hit": false,
      "t": 139615.3660000001,
      "d": 558.8941562500258,
      "v": 85
    },
    {
      "midi": 35,
      "hit": false,
      "t": 140186.2793854168,
      "d": 564.9037708333344,
      "v": 100
    },
    {
      "midi": 59,
      "hit": false,
      "t": 140192.28900000014,
      "d": 450.7210937500058,
      "v": 87
    },
    {
      "midi": 33,
      "hit": false,
      "t": 140769.21200000015,
      "d": 2001.201656249992,
      "v": 86
    },
    {
      "midi": 57,
      "hit": false,
      "t": 141346.13500000015,
      "d": 709.1345208333223,
      "v": 66
    },
    {
      "midi": 61,
      "hit": false,
      "t": 141346.13500000015,
      "d": 787.2595104166539,
      "v": 58
    },
    {
      "midi": 52,
      "hit": false,
      "t": 141346.13500000015,
      "d": 823.3171979166509,
      "v": 60
    },
    {
      "midi": 61,
      "hit": false,
      "t": 142499.98100000015,
      "d": 420.6730208333174,
      "v": 76
    },
    {
      "midi": 57,
      "hit": false,
      "t": 142499.98100000015,
      "d": 444.71147916663904,
      "v": 97
    },
    {
      "midi": 52,
      "hit": false,
      "t": 142499.98100000015,
      "d": 522.8364687499707,
      "v": 72
    },
    {
      "midi": 40,
      "hit": false,
      "t": 143076.90400000013,
      "d": 1556.4901770833822,
      "v": 82
    },
    {
      "midi": 56,
      "hit": false,
      "t": 143653.82700000014,
      "d": 805.288354166667,
      "v": 76
    },
    {
      "midi": 59,
      "hit": false,
      "t": 143653.82700000014,
      "d": 823.31719791668,
      "v": 64
    },
    {
      "midi": 52,
      "hit": false,
      "t": 143653.82700000014,
      "d": 841.346041666693,
      "v": 60
    },
    {
      "midi": 50,
      "hit": false,
      "t": 144807.67300000018,
      "d": 378.6057187500119,
      "v": 79
    },
    {
      "midi": 59,
      "hit": false,
      "t": 144807.67300000018,
      "d": 420.6730208333465,
      "v": 76
    },
    {
      "midi": 56,
      "hit": false,
      "t": 144807.67300000018,
      "d": 462.7403229166812,
      "v": 85
    },
    {
      "midi": 38,
      "hit": false,
      "t": 144807.67300000018,
      "d": 558.8941562500258,
      "v": 100
    },
    {
      "midi": 37,
      "hit": false,
      "t": 145384.59600000022,
      "d": 1923.0766666666896,
      "v": 80
    },
    {
      "midi": 53,
      "hit": false,
      "t": 145961.51900000023,
      "d": 937.4998750000086,
      "v": 60
    },
    {
      "midi": 56,
      "hit": false,
      "t": 145961.51900000023,
      "d": 937.4998750000086,
      "v": 68
    },
    {
      "midi": 61,
      "hit": false,
      "t": 145961.51900000023,
      "d": 955.5287187500217,
      "v": 56
    },
    {
      "midi": 53,
      "hit": false,
      "t": 147115.36500000025,
      "d": 522.8364687499998,
      "v": 68
    },
    {
      "midi": 56,
      "hit": false,
      "t": 147115.36500000025,
      "d": 540.8653125000128,
      "v": 83
    },
    {
      "midi": 61,
      "hit": false,
      "t": 147115.36500000025,
      "d": 546.8749270833505,
      "v": 72
    },
    {
      "midi": 42,
      "hit": false,
      "t": 147692.28800000026,
      "d": 1057.692166666675,
      "v": 78
    },
    {
      "midi": 61,
      "hit": false,
      "t": 148263.20138541693,
      "d": 829.3268125000177,
      "v": 66
    },
    {
      "midi": 58,
      "hit": false,
      "t": 148263.20138541693,
      "d": 877.40372916669,
      "v": 83
    },
    {
      "midi": 54,
      "hit": false,
      "t": 148263.20138541693,
      "d": 883.4133437500277,
      "v": 70
    },
    {
      "midi": 42,
      "hit": false,
      "t": 148840.12438541694,
      "d": 1003.605635416694,
      "v": 74
    },
    {
      "midi": 61,
      "hit": false,
      "t": 149423.0570000003,
      "d": 444.71147916666814,
      "v": 72
    },
    {
      "midi": 54,
      "hit": false,
      "t": 149423.0570000003,
      "d": 510.8172395833244,
      "v": 76
    },
    {
      "midi": 58,
      "hit": false,
      "t": 149423.0570000003,
      "d": 522.8364687499998,
      "v": 89
    },
    {
      "midi": 38,
      "hit": false,
      "t": 149999.9800000003,
      "d": 1929.0862812500272,
      "v": 82
    },
    {
      "midi": 54,
      "hit": false,
      "t": 150576.9030000003,
      "d": 859.374885416677,
      "v": 78
    },
    {
      "midi": 57,
      "hit": false,
      "t": 150576.9030000003,
      "d": 937.4998750000086,
      "v": 99
    },
    {
      "midi": 62,
      "hit": false,
      "t": 150576.9030000003,
      "d": 955.5287187500217,
      "v": 72
    },
    {
      "midi": 54,
      "hit": false,
      "t": 151730.74900000033,
      "d": 534.855697916646,
      "v": 78
    },
    {
      "midi": 57,
      "hit": false,
      "t": 151730.74900000033,
      "d": 546.8749270833214,
      "v": 91
    },
    {
      "midi": 62,
      "hit": false,
      "t": 151730.74900000033,
      "d": 558.8941562499967,
      "v": 74
    },
    {
      "midi": 38,
      "hit": false,
      "t": 152115.36433333365,
      "d": 246.39419791669934,
      "v": 80
    },
    {
      "midi": 40,
      "hit": false,
      "t": 152307.67200000034,
      "d": 1448.317114583333,
      "v": 94
    },
    {
      "midi": 52,
      "hit": false,
      "t": 152884.59500000035,
      "d": 871.3941145833232,
      "v": 54
    },
    {
      "midi": 56,
      "hit": false,
      "t": 152884.59500000035,
      "d": 931.4902604166709,
      "v": 62
    },
    {
      "midi": 59,
      "hit": false,
      "t": 152884.59500000035,
      "d": 937.4998750000086,
      "v": 54
    },
    {
      "midi": 56,
      "hit": false,
      "t": 154038.44100000037,
      "d": 396.6345624999958,
      "v": 76
    },
    {
      "midi": 59,
      "hit": false,
      "t": 154038.44100000037,
      "d": 438.70186458333046,
      "v": 68
    },
    {
      "midi": 52,
      "hit": false,
      "t": 154038.44100000037,
      "d": 450.7210937500058,
      "v": 72
    },
    {
      "midi": 40,
      "hit": false,
      "t": 154038.44100000037,
      "d": 624.9999166666821,
      "v": 88
    },
    {
      "midi": 45,
      "hit": false,
      "t": 154615.36400000038,
      "d": 1033.6537083333533,
      "v": 80
    },
    {
      "midi": 57,
      "hit": false,
      "t": 155192.2870000004,
      "d": 450.7210937500058,
      "v": 76
    },
    {
      "midi": 52,
      "hit": false,
      "t": 155192.2870000004,
      "d": 462.7403229166812,
      "v": 62
    },
    {
      "midi": 61,
      "hit": false,
      "t": 155192.2870000004,
      "d": 516.8268541666912,
      "v": 56
    },
    {
      "midi": 38,
      "hit": false,
      "t": 155769.21000000043,
      "d": 1051.6825520833663,
      "v": 80
    },
    {
      "midi": 62,
      "hit": false,
      "t": 156346.13300000044,
      "d": 420.6730208333465,
      "v": 64
    },
    {
      "midi": 57,
      "hit": false,
      "t": 156346.13300000044,
      "d": 438.70186458335957,
      "v": 87
    },
    {
      "midi": 54,
      "hit": false,
      "t": 156346.13300000044,
      "d": 450.7210937500349,
      "v": 70
    },
    {
      "midi": 45,
      "hit": false,
      "t": 156923.05600000045,
      "d": 1093.7498541666719,
      "v": 84
    },
    {
      "midi": 61,
      "hit": false,
      "t": 157499.97900000046,
      "d": 294.47111458334257,
      "v": 62
    },
    {
      "midi": 57,
      "hit": false,
      "t": 157499.97900000046,
      "d": 324.51918750000186,
      "v": 91
    },
    {
      "midi": 52,
      "hit": false,
      "t": 157499.97900000046,
      "d": 366.5864895833365,
      "v": 76
    },
    {
      "midi": 52,
      "hit": false,
      "t": 158076.90200000047,
      "d": 342.5480312499858,
      "v": 42
    },
    {
      "midi": 59,
      "hit": false,
      "t": 158076.90200000047,
      "d": 342.5480312499858,
      "v": 64
    },
    {
      "midi": 56,
      "hit": false,
      "t": 158076.90200000047,
      "d": 348.5576458333235,
      "v": 45
    },
    {
      "midi": 47,
      "hit": false,
      "t": 158076.90200000047,
      "d": 456.7307083333144,
      "v": 86
    },
    {
      "midi": 59,
      "hit": false,
      "t": 158647.8153854171,
      "d": 312.4999583333265,
      "v": 79
    },
    {
      "midi": 56,
      "hit": false,
      "t": 158647.8153854171,
      "d": 324.51918750000186,
      "v": 81
    },
    {
      "midi": 52,
      "hit": false,
      "t": 158647.8153854171,
      "d": 330.52880208333954,
      "v": 78
    },
    {
      "midi": 40,
      "hit": false,
      "t": 158653.82500000045,
      "d": 546.8749270833214,
      "v": 94
    },
    {
      "midi": 45,
      "hit": false,
      "t": 159230.74800000043,
      "d": 2175.4804791666684,
      "v": 78
    },
    {
      "midi": 52,
      "hit": false,
      "t": 159230.74800000043,
      "d": 2223.5573958333116,
      "v": 79
    },
    {
      "midi": 61,
      "hit": false,
      "t": 159230.74800000043,
      "d": 2229.5670104166493,
      "v": 64
    },
    {
      "midi": 57,
      "hit": false,
      "t": 159236.75761458377,
      "d": 2193.5093229166523,
      "v": 56
    }
  ]
}