{
  "jsonPath": "Classical/Classical Era/Muzio Clementi/andante-in-b-flat.json",
  "path": "Classical\\Classical Era\\Muzio Clementi\\Andante in B Flat.mid",
  "name": "Andante in B Flat",
  "difficulty": "Advanced",
  "bpm": 120,
  "notes": [
    {
      "midi": 62,
      "hit": false,
      "t": 0,
      "d": 250,
      "v": 100
    },
    {
      "midi": 65,
      "hit": false,
      "t": 0,
      "d": 250,
      "v": 100
    },
    {
      "midi": 46,
      "hit": false,
      "t": 0,
      "d": 500,
      "v": 100
    },
    {
      "midi": 62,
      "hit": false,
      "t": 250,
      "d": 250,
      "v": 100
    },
    {
      "midi": 65,
      "hit": false,
      "t": 250,
      "d": 250,
      "v": 100
    },
    {
      "midi": 62,
      "hit": false,
      "t": 500,
      "d": 250,
      "v": 100
    },
    {
      "midi": 65,
      "hit": false,
      "t": 500,
      "d": 250,
      "v": 100
    },
    {
      "midi": 46,
      "hit": false,
      "t": 500,
      "d": 500,
      "v": 100
    },
    {
      "midi": 62,
      "hit": false,
      "t": 750,
      "d": 250,
      "v": 100
    },
    {
      "midi": 65,
      "hit": false,
      "t": 750,
      "d": 250,
      "v": 100
    },
    {
      "midi": 63,
      "hit": false,
      "t": 1000,
      "d": 250,
      "v": 100
    },
    {
      "midi": 69,
      "hit": false,
      "t": 1000,
      "d": 250,
      "v": 100
    },
    {
      "midi": 46,
      "hit": false,
      "t": 1000,
      "d": 500,
      "v": 100
    },
    {
      "midi": 67,
      "hit": false,
      "t": 1250,
      "d": 250,
      "v": 100
    },
    {
      "midi": 62,
      "hit": false,
      "t": 1500,
      "d": 500,
      "v": 100
    },
    {
      "midi": 65,
      "hit": false,
      "t": 1500,
      "d": 500,
      "v": 100
    },
    {
      "midi": 46,
      "hit": false,
      "t": 1500,
      "d": 500,
      "v": 100
    },
    {
      "midi": 70,
      "hit": false,
      "t": 2000,
      "d": 250,
      "v": 100
    },
    {
      "midi": 74,
      "hit": false,
      "t": 2000,
      "d": 250,
      "v": 100
    },
    {
      "midi": 46,
      "hit": false,
      "t": 2000,
      "d": 500,
      "v": 100
    },
    {
      "midi": 69,
      "hit": false,
      "t": 2250,
      "d": 250,
      "v": 100
    },
    {
      "midi": 72,
      "hit": false,
      "t": 2250,
      "d": 250,
      "v": 100
    },
    {
      "midi": 67,
      "hit": false,
      "t": 2500,
      "d": 250,
      "v": 100
    },
    {
      "midi": 70,
      "hit": false,
      "t": 2500,
      "d": 250,
      "v": 100
    },
    {
      "midi": 46,
      "hit": false,
      "t": 2500,
      "d": 500,
      "v": 100
    },
    {
      "midi": 65,
      "hit": false,
      "t": 2750,
      "d": 250,
      "v": 100
    },
    {
      "midi": 69,
      "hit": false,
      "t": 2750,
      "d": 250,
      "v": 100
    },
    {
      "midi": 63,
      "hit": false,
      "t": 3000,
      "d": 250,
      "v": 100
    },
    {
      "midi": 69,
      "hit": false,
      "t": 3000,
      "d": 250,
      "v": 100
    },
    {
      "midi": 46,
      "hit": false,
      "t": 3000,
      "d": 500,
      "v": 100
    },
    {
      "midi": 67,
      "hit": false,
      "t": 3250,
      "d": 250,
      "v": 100
    },
    {
      "midi": 62,
      "hit": false,
      "t": 3500,
      "d": 500,
      "v": 100
    },
    {
      "midi": 65,
      "hit": false,
      "t": 3500,
      "d": 500,
      "v": 100
    },
    {
      "midi": 46,
      "hit": false,
      "t": 3500,
      "d": 500,
      "v": 100
    },
    {
      "midi": 70,
      "hit": false,
      "t": 4000,
      "d": 250,
      "v": 100
    },
    {
      "midi": 62,
      "hit": false,
      "t": 4000,
      "d": 500,
      "v": 100
    },
    {
      "midi": 65,
      "hit": false,
      "t": 4000,
      "d": 500,
      "v": 100
    },
    {
      "midi": 70,
      "hit": false,
      "t": 4250,
      "d": 250,
      "v": 100
    },
    {
      "midi": 60,
      "hit": false,
      "t": 4500,
      "d": 500,
      "v": 100
    },
    {
      "midi": 65,
      "hit": false,
      "t": 4500,
      "d": 500,
      "v": 100
    },
    {
      "midi": 69,
      "hit": false,
      "t": 4750,
      "d": 250,
      "v": 100
    },
    {
      "midi": 72,
      "hit": false,
      "t": 5000,
      "d": 250,
      "v": 100
    },
    {
      "midi": 63,
      "hit": false,
      "t": 5000,
      "d": 500,
      "v": 100
    },
    {
      "midi": 65,
      "hit": false,
      "t": 5000,
      "d": 500,
      "v": 100
    },
    {
      "midi": 72,
      "hit": false,
      "t": 5250,
      "d": 250,
      "v": 100
    },
    {
      "midi": 62,
      "hit": false,
      "t": 5500,
      "d": 500,
      "v": 100
    },
    {
      "midi": 65,
      "hit": false,
      "t": 5500,
      "d": 500,
      "v": 100
    },
    {
      "midi": 70,
      "hit": false,
      "t": 5750,
      "d": 250,
      "v": 100
    },
    {
      "midi": 74,
      "hit": false,
      "t": 6000,
      "d": 250,
      "v": 100
    },
    {
      "midi": 57,
      "hit": false,
      "t": 6000,
      "d": 500,
      "v": 100
    },
    {
      "midi": 65,
      "hit": false,
      "t": 6000,
      "d": 500,
      "v": 100
    },
    {
      "midi": 72,
      "hit": false,
      "t": 6250,
      "d": 250,
      "v": 100
    },
    {
      "midi": 75,
      "hit": false,
      "t": 6500,
      "d": 250,
      "v": 100
    },
    {
      "midi": 58,
      "hit": false,
      "t": 6500,
      "d": 500,
      "v": 100
    },
    {
      "midi": 65,
      "hit": false,
      "t": 6500,
      "d": 500,
      "v": 100
    },
    {
      "midi": 74,
      "hit": false,
      "t": 6750,
      "d": 250,
      "v": 100
    },
    {
      "midi": 77,
      "hit": false,
      "t": 7000,
      "d": 375,
      "v": 100
    },
    {
      "midi": 53,
      "hit": false,
      "t": 7000,
      "d": 375,
      "v": 100
    },
    {
      "midi": 62,
      "hit": false,
      "t": 7000,
      "d": 375,
      "v": 100
    },
    {
      "midi": 74,
      "hit": false,
      "t": 7375,
      "d": 125,
      "v": 100
    },
    {
      "midi": 58,
      "hit": false,
      "t": 7375,
      "d": 125,
      "v": 100
    },
    {
      "midi": 72,
      "hit": false,
      "t": 7500,
      "d": 250,
      "v": 100
    },
    {
      "midi": 57,
      "hit": false,
      "t": 7500,
      "d": 250,
      "v": 100
    },
    {
      "midi": 62,
      "hit": false,
      "t": 8000,
      "d": 250,
      "v": 100
    },
    {
      "midi": 65,
      "hit": false,
      "t": 8000,
      "d": 250,
      "v": 100
    },
    {
      "midi": 46,
      "hit": false,
      "t": 8000,
      "d": 250,
      "v": 100
    },
    {
      "midi": 62,
      "hit": false,
      "t": 8250,
      "d": 250,
      "v": 100
    },
    {
      "midi": 65,
      "hit": false,
      "t": 8250,
      "d": 250,
      "v": 100
    },
    {
      "midi": 58,
      "hit": false,
      "t": 8250,
      "d": 250,
      "v": 100
    },
    {
      "midi": 62,
      "hit": false,
      "t": 8500,
      "d": 250,
      "v": 100
    },
    {
      "midi": 65,
      "hit": false,
      "t": 8500,
      "d": 250,
      "v": 100
    },
    {
      "midi": 46,
      "hit": false,
      "t": 8500,
      "d": 250,
      "v": 100
    },
    {
      "midi": 62,
      "hit": false,
      "t": 8750,
      "d": 250,
      "v": 100
    },
    {
      "midi": 65,
      "hit": false,
      "t": 8750,
      "d": 250,
      "v": 100
    },
    {
      "midi": 58,
      "hit": false,
      "t": 8750,
      "d": 250,
      "v": 100
    },
    {
      "midi": 63,
      "hit": false,
      "t": 9000,
      "d": 250,
      "v": 100
    },
    {
      "midi": 69,
      "hit": false,
      "t": 9000,
      "d": 250,
      "v": 100
    },
    {
      "midi": 46,
      "hit": false,
      "t": 9000,
      "d": 250,
      "v": 100
    },
    {
      "midi": 67,
      "hit": false,
      "t": 9250,
      "d": 250,
      "v": 100
    },
    {
      "midi": 58,
      "hit": false,
      "t": 9250,
      "d": 250,
      "v": 100
    },
    {
      "midi": 62,
      "hit": false,
      "t": 9500,
      "d": 500,
      "v": 100
    },
    {
      "midi": 65,
      "hit": false,
      "t": 9500,
      "d": 500,
      "v": 100
    },
    {
      "midi": 46,
      "hit": false,
      "t": 9500,
      "d": 250,
      "v": 100
    },
    {
      "midi": 58,
      "hit": false,
      "t": 9750,
      "d": 250,
      "v": 100
    },
    {
      "midi": 74,
      "hit": false,
      "t": 10000,
      "d": 250,
      "v": 100
    },
    {
      "midi": 77,
      "hit": false,
      "t": 10000,
      "d": 250,
      "v": 100
    },
    {
      "midi": 46,
      "hit": false,
      "t": 10000,
      "d": 250,
      "v": 100
    },
    {
      "midi": 73,
      "hit": false,
      "t": 10250,
      "d": 250,
      "v": 100
    },
    {
      "midi": 76,
      "hit": false,
      "t": 10250,
      "d": 250,
      "v": 100
    },
    {
      "midi": 58,
      "hit": false,
      "t": 10250,
      "d": 250,
      "v": 100
    },
    {
      "midi": 72,
      "hit": false,
      "t": 10500,
      "d": 250,
      "v": 100
    },
    {
      "midi": 75,
      "hit": false,
      "t": 10500,
      "d": 250,
      "v": 100
    },
    {
      "midi": 46,
      "hit": false,
      "t": 10500,
      "d": 250,
      "v": 100
    },
    {
      "midi": 70,
      "hit": false,
      "t": 10750,
      "d": 250,
      "v": 100
    },
    {
      "midi": 74,
      "hit": false,
      "t": 10750,
      "d": 250,
      "v": 100
    },
    {
      "midi": 58,
      "hit": false,
      "t": 10750,
      "d": 250,
      "v": 100
    },
    {
      "midi": 67,
      "hit": false,
      "t": 11000,
      "d": 250,
      "v": 100
    },
    {
      "midi": 71,
      "hit": false,
      "t": 11000,
      "d": 250,
      "v": 100
    },
    {
      "midi": 48,
      "hit": false,
      "t": 11000,
      "d": 250,
      "v": 100
    },
    {
      "midi": 72,
      "hit": false,
      "t": 11250,
      "d": 250,
      "v": 100
    },
    {
      "midi": 60,
      "hit": false,
      "t": 11250,
      "d": 250,
      "v": 100
    },
    {
      "midi": 67,
      "hit": false,
      "t": 11500,
      "d": 500,
      "v": 100
    },
    {
      "midi": 72,
      "hit": false,
      "t": 11500,
      "d": 500,
      "v": 100
    },
    {
      "midi": 48,
      "hit": false,
      "t": 11500,
      "d": 250,
      "v": 100
    },
    {
      "midi": 60,
      "hit": false,
      "t": 11750,
      "d": 250,
      "v": 100
    },
    {
      "midi": 75,
      "hit": false,
      "t": 12000,
      "d": 250,
      "v": 100
    },
    {
      "midi": 79,
      "hit": false,
      "t": 12000,
      "d": 250,
      "v": 100
    },
    {
      "midi": 69,
      "hit": false,
      "t": 12000,
      "d": 500,
      "v": 100
    },
    {
      "midi": 75,
      "hit": false,
      "t": 12250,
      "d": 250,
      "v": 100
    },
    {
      "midi": 79,
      "hit": false,
      "t": 12250,
      "d": 250,
      "v": 100
    },
    {
      "midi": 70,
      "hit": false,
      "t": 12500,
      "d": 500,
      "v": 100
    },
    {
      "midi": 74,
      "hit": false,
      "t": 12750,
      "d": 250,
      "v": 100
    },
    {
      "midi": 77,
      "hit": false,
      "t": 12750,
      "d": 250,
      "v": 100
    },
    {
      "midi": 72,
      "hit": false,
      "t": 13000,
      "d": 250,
      "v": 100
    },
    {
      "midi": 75,
      "hit": false,
      "t": 13000,
      "d": 250,
      "v": 100
    },
    {
      "midi": 66,
      "hit": false,
      "t": 13000,
      "d": 500,
      "v": 100
    },
    {
      "midi": 72,
      "hit": false,
      "t": 13250,
      "d": 250,
      "v": 100
    },
    {
      "midi": 75,
      "hit": false,
      "t": 13250,
      "d": 250,
      "v": 100
    },
    {
      "midi": 67,
      "hit": false,
      "t": 13500,
      "d": 500,
      "v": 100
    },
    {
      "midi": 70,
      "hit": false,
      "t": 13750,
      "d": 250,
      "v": 100
    },
    {
      "midi": 74,
      "hit": false,
      "t": 13750,
      "d": 250,
      "v": 100
    },
    {
      "midi": 67,
      "hit": false,
      "t": 14000,
      "d": 250,
      "v": 100
    },
    {
      "midi": 72,
      "hit": false,
      "t": 14000,
      "d": 250,
      "v": 100
    },
    {
      "midi": 51,
      "hit": false,
      "t": 14000,
      "d": 250,
      "v": 100
    },
    {
      "midi": 64,
      "hit": false,
      "t": 14000,
      "d": 250,
      "v": 100
    },
    {
      "midi": 67,
      "hit": false,
      "t": 14250,
      "d": 250,
      "v": 100
    },
    {
      "midi": 72,
      "hit": false,
      "t": 14250,
      "d": 250,
      "v": 100
    },
    {
      "midi": 51,
      "hit": false,
      "t": 14250,
      "d": 250,
      "v": 100
    },
    {
      "midi": 64,
      "hit": false,
      "t": 14250,
      "d": 250,
      "v": 100
    },
    {
      "midi": 63,
      "hit": false,
      "t": 14500,
      "d": 250,
      "v": 100
    },
    {
      "midi": 69,
      "hit": false,
      "t": 14500,
      "d": 250,
      "v": 100
    },
    {
      "midi": 53,
      "hit": false,
      "t": 14500,
      "d": 250,
      "v": 100
    },
    {
      "midi": 60,
      "hit": false,
      "t": 14500,
      "d": 250,
      "v": 100
    },
    {
      "midi": 63,
      "hit": false,
      "t": 14750,
      "d": 250,
      "v": 100
    },
    {
      "midi": 69,
      "hit": false,
      "t": 14750,
      "d": 250,
      "v": 100
    },
    {
      "midi": 53,
      "hit": false,
      "t": 14750,
      "d": 250,
      "v": 100
    },
    {
      "midi": 60,
      "hit": false,
      "t": 14750,
      "d": 250,
      "v": 100
    },
    {
      "midi": 62,
      "hit": false,
      "t": 15000,
      "d": 1000,
      "v": 100
    },
    {
      "midi": 70,
      "hit": false,
      "t": 15000,
      "d": 1000,
      "v": 100
    },
    {
      "midi": 46,
      "hit": false,
      "t": 15000,
      "d": 250,
      "v": 100
    },
    {
      "midi": 53,
      "hit": false,
      "t": 15250,
      "d": 250,
      "v": 100
    },
    {
      "midi": 58,
      "hit": false,
      "t": 15500,
      "d": 500,
      "v": 100
    },
    {
      "midi": 77,
      "hit": false,
      "t": 16000,
      "d": 125,
      "v": 100
    },
    {
      "midi": 76,
      "hit": false,
      "t": 16125,
      "d": 125,
      "v": 100
    },
    {
      "midi": 79,
      "hit": false,
      "t": 16250,
      "d": 125,
      "v": 100
    },
    {
      "midi": 77,
      "hit": false,
      "t": 16375,
      "d": 125,
      "v": 100
    },
    {
      "midi": 75,
      "hit": false,
      "t": 16500,
      "d": 125,
      "v": 100
    },
    {
      "midi": 74,
      "hit": false,
      "t": 16625,
      "d": 125,
      "v": 100
    },
    {
      "midi": 72,
      "hit": false,
      "t": 16750,
      "d": 125,
      "v": 100
    },
    {
      "midi": 70,
      "hit": false,
      "t": 16875,
      "d": 125,
      "v": 100
    },
    {
      "midi": 69,
      "hit": false,
      "t": 17000,
      "d": 375,
      "v": 100
    },
    {
      "midi": 63,
      "hit": false,
      "t": 17000,
      "d": 250,
      "v": 100
    },
    {
      "midi": 65,
      "hit": false,
      "t": 17250,
      "d": 250,
      "v": 100
    },
    {
      "midi": 70,
      "hit": false,
      "t": 17375,
      "d": 62.5,
      "v": 100
    },
    {
      "midi": 72,
      "hit": false,
      "t": 17437.5,
      "d": 62.5,
      "v": 100
    },
    {
      "midi": 70,
      "hit": false,
      "t": 17500,
      "d": 250,
      "v": 100
    },
    {
      "midi": 62,
      "hit": false,
      "t": 17500,
      "d": 250,
      "v": 100
    },
    {
      "midi": 65,
      "hit": false,
      "t": 17750,
      "d": 250,
      "v": 100
    },
    {
      "midi": 77,
      "hit": false,
      "t": 18000,
      "d": 125,
      "v": 100
    },
    {
      "midi": 76,
      "hit": false,
      "t": 18125,
      "d": 125,
      "v": 100
    },
    {
      "midi": 79,
      "hit": false,
      "t": 18250,
      "d": 125,
      "v": 100
    },
    {
      "midi": 77,
      "hit": false,
      "t": 18375,
      "d": 125,
      "v": 100
    },
    {
      "midi": 75,
      "hit": false,
      "t": 18500,
      "d": 125,
      "v": 100
    },
    {
      "midi": 74,
      "hit": false,
      "t": 18625,
      "d": 125,
      "v": 100
    },
    {
      "midi": 72,
      "hit": false,
      "t": 18750,
      "d": 125,
      "v": 100
    },
    {
      "midi": 71,
      "hit": false,
      "t": 18875,
      "d": 125,
      "v": 100
    },
    {
      "midi": 72,
      "hit": false,
      "t": 19000,
      "d": 375,
      "v": 100
    },
    {
      "midi": 57,
      "hit": false,
      "t": 19000,
      "d": 250,
      "v": 100
    },
    {
      "midi": 65,
      "hit": false,
      "t": 19250,
      "d": 250,
      "v": 100
    },
    {
      "midi": 74,
      "hit": false,
      "t": 19375,
      "d": 62.5,
      "v": 100
    },
    {
      "midi": 75,
      "hit": false,
      "t": 19437.5,
      "d": 62.5,
      "v": 100
    },
    {
      "midi": 74,
      "hit": false,
      "t": 19500,
      "d": 250,
      "v": 100
    },
    {
      "midi": 58,
      "hit": false,
      "t": 19500,
      "d": 250,
      "v": 100
    },
    {
      "midi": 65,
      "hit": false,
      "t": 19750,
      "d": 250,
      "v": 100
    },
    {
      "midi": 86,
      "hit": false,
      "t": 20000,
      "d": 125,
      "v": 100
    },
    {
      "midi": 82,
      "hit": false,
      "t": 20125,
      "d": 125,
      "v": 100
    },
    {
      "midi": 86,
      "hit": false,
      "t": 20250,
      "d": 125,
      "v": 100
    },
    {
      "midi": 76,
      "hit": false,
      "t": 20250,
      "d": 250,
      "v": 100
    },
    {
      "midi": 82,
      "hit": false,
      "t": 20375,
      "d": 125,
      "v": 100
    },
    {
      "midi": 81,
      "hit": false,
      "t": 20500,
      "d": 125,
      "v": 100
    },
    {
      "midi": 84,
      "hit": false,
      "t": 20625,
      "d": 125,
      "v": 100
    },
    {
      "midi": 81,
      "hit": false,
      "t": 20750,
      "d": 125,
      "v": 100
    },
    {
      "midi": 77,
      "hit": false,
      "t": 20750,
      "d": 250,
      "v": 100
    },
    {
      "midi": 84,
      "hit": false,
      "t": 20875,
      "d": 125,
      "v": 100
    },
    {
      "midi": 82,
      "hit": false,
      "t": 21000,
      "d": 125,
      "v": 100
    },
    {
      "midi": 79,
      "hit": false,
      "t": 21125,
      "d": 125,
      "v": 100
    },
    {
      "midi": 82,
      "hit": false,
      "t": 21250,
      "d": 125,
      "v": 100
    },
    {
      "midi": 73,
      "hit": false,
      "t": 21250,
      "d": 250,
      "v": 100
    },
    {
      "midi": 79,
      "hit": false,
      "t": 21375,
      "d": 125,
      "v": 100
    },
    {
      "midi": 77,
      "hit": false,
      "t": 21500,
      "d": 125,
      "v": 100
    },
    {
      "midi": 81,
      "hit": false,
      "t": 21625,
      "d": 125,
      "v": 100
    },
    {
      "midi": 77,
      "hit": false,
      "t": 21750,
      "d": 125,
      "v": 100
    },
    {
      "midi": 74,
      "hit": false,
      "t": 21750,
      "d": 250,
      "v": 100
    },
    {
      "midi": 81,
      "hit": false,
      "t": 21875,
      "d": 125,
      "v": 100
    },
    {
      "midi": 79,
      "hit": false,
      "t": 22000,
      "d": 125,
      "v": 100
    },
    {
      "midi": 58,
      "hit": false,
      "t": 22000,
      "d": 250,
      "v": 100
    },
    {
      "midi": 70,
      "hit": false,
      "t": 22000,
      "d": 250,
      "v": 100
    },
    {
      "midi": 74,
      "hit": false,
      "t": 22125,
      "d": 125,
      "v": 100
    },
    {
      "midi": 79,
      "hit": false,
      "t": 22250,
      "d": 125,
      "v": 100
    },
    {
      "midi": 58,
      "hit": false,
      "t": 22250,
      "d": 250,
      "v": 100
    },
    {
      "midi": 70,
      "hit": false,
      "t": 22250,
      "d": 250,
      "v": 100
    },
    {
      "midi": 74,
      "hit": false,
      "t": 22375,
      "d": 125,
      "v": 100
    },
    {
      "midi": 76,
      "hit": false,
      "t": 22500,
      "d": 125,
      "v": 100
    },
    {
      "midi": 60,
      "hit": false,
      "t": 22500,
      "d": 250,
      "v": 100
    },
    {
      "midi": 67,
      "hit": false,
      "t": 22500,
      "d": 250,
      "v": 100
    },
    {
      "midi": 70,
      "hit": false,
      "t": 22625,
      "d": 125,
      "v": 100
    },
    {
      "midi": 76,
      "hit": false,
      "t": 22750,
      "d": 125,
      "v": 100
    },
    {
      "midi": 60,
      "hit": false,
      "t": 22750,
      "d": 250,
      "v": 100
    },
    {
      "midi": 67,
      "hit": false,
      "t": 22750,
      "d": 250,
      "v": 100
    },
    {
      "midi": 70,
      "hit": false,
      "t": 22875,
      "d": 125,
      "v": 100
    },
    {
      "midi": 77,
      "hit": false,
      "t": 23000,
      "d": 125,
      "v": 100
    },
    {
      "midi": 62,
      "hit": false,
      "t": 23000,
      "d": 250,
      "v": 100
    },
    {
      "midi": 65,
      "hit": false,
      "t": 23000,
      "d": 250,
      "v": 100
    },
    {
      "midi": 69,
      "hit": false,
      "t": 23125,
      "d": 125,
      "v": 100
    },
    {
      "midi": 77,
      "hit": false,
      "t": 23250,
      "d": 125,
      "v": 100
    },
    {
      "midi": 62,
      "hit": false,
      "t": 23250,
      "d": 250,
      "v": 100
    },
    {
      "midi": 65,
      "hit": false,
      "t": 23250,
      "d": 250,
      "v": 100
    },
    {
      "midi": 69,
      "hit": false,
      "t": 23375,
      "d": 125,
      "v": 100
    },
    {
      "midi": 72,
      "hit": false,
      "t": 23500,
      "d": 125,
      "v": 100
    },
    {
      "midi": 57,
      "hit": false,
      "t": 23500,
      "d": 250,
      "v": 100
    },
    {
      "midi": 65,
      "hit": false,
      "t": 23625,
      "d": 125,
      "v": 100
    },
    {
      "midi": 73,
      "hit": false,
      "t": 23750,
      "d": 125,
      "v": 100
    },
    {
      "midi": 57,
      "hit": false,
      "t": 23750,
      "d": 250,
      "v": 100
    },
    {
      "midi": 65,
      "hit": false,
      "t": 23875,
      "d": 125,
      "v": 100
    },
    {
      "midi": 76,
      "hit": false,
      "t": 24000,
      "d": 125,
      "v": 100
    },
    {
      "midi": 46,
      "hit": false,
      "t": 24000,
      "d": 250,
      "v": 100
    },
    {
      "midi": 58,
      "hit": false,
      "t": 24000,
      "d": 250,
      "v": 100
    },
    {
      "midi": 74,
      "hit": false,
      "t": 24125,
      "d": 125,
      "v": 100
    },
    {
      "midi": 72,
      "hit": false,
      "t": 24250,
      "d": 125,
      "v": 100
    },
    {
      "midi": 46,
      "hit": false,
      "t": 24250,
      "d": 250,
      "v": 100
    },
    {
      "midi": 58,
      "hit": false,
      "t": 24250,
      "d": 250,
      "v": 100
    },
    {
      "midi": 70,
      "hit": false,
      "t": 24375,
      "d": 125,
      "v": 100
    },
    {
      "midi": 69,
      "hit": false,
      "t": 24500,
      "d": 125,
      "v": 100
    },
    {
      "midi": 48,
      "hit": false,
      "t": 24500,
      "d": 250,
      "v": 100
    },
    {
      "midi": 60,
      "hit": false,
      "t": 24500,
      "d": 250,
      "v": 100
    },
    {
      "midi": 67,
      "hit": false,
      "t": 24625,
      "d": 125,
      "v": 100
    },
    {
      "midi": 65,
      "hit": false,
      "t": 24750,
      "d": 125,
      "v": 100
    },
    {
      "midi": 48,
      "hit": false,
      "t": 24750,
      "d": 250,
      "v": 100
    },
    {
      "midi": 60,
      "hit": false,
      "t": 24750,
      "d": 250,
      "v": 100
    },
    {
      "midi": 64,
      "hit": false,
      "t": 24875,
      "d": 125,
      "v": 100
    },
    {
      "midi": 65,
      "hit": false,
      "t": 25000,
      "d": 125,
      "v": 100
    },
    {
      "midi": 41,
      "hit": false,
      "t": 25000,
      "d": 1000,
      "v": 100
    },
    {
      "midi": 53,
      "hit": false,
      "t": 25000,
      "d": 1000,
      "v": 100
    },
    {
      "midi": 64,
      "hit": false,
      "t": 25125,
      "d": 125,
      "v": 100
    },
    {
      "midi": 65,
      "hit": false,
      "t": 25250,
      "d": 125,
      "v": 100
    },
    {
      "midi": 64,
      "hit": false,
      "t": 25375,
      "d": 125,
      "v": 100
    },
    {
      "midi": 65,
      "hit": false,
      "t": 25500,
      "d": 125,
      "v": 100
    },
    {
      "midi": 64,
      "hit": false,
      "t": 25625,
      "d": 125,
      "v": 100
    },
    {
      "midi": 65,
      "hit": false,
      "t": 25750,
      "d": 125,
      "v": 100
    },
    {
      "midi": 64,
      "hit": false,
      "t": 25875,
      "d": 125,
      "v": 100
    },
    {
      "midi": 62,
      "hit": false,
      "t": 26000,
      "d": 250,
      "v": 100
    },
    {
      "midi": 65,
      "hit": false,
      "t": 26000,
      "d": 250,
      "v": 100
    },
    {
      "midi": 46,
      "hit": false,
      "t": 26000,
      "d": 500,
      "v": 100
    },
    {
      "midi": 62,
      "hit": false,
      "t": 26250,
      "d": 250,
      "v": 100
    },
    {
      "midi": 65,
      "hit": false,
      "t": 26250,
      "d": 250,
      "v": 100
    },
    {
      "midi": 62,
      "hit": false,
      "t": 26500,
      "d": 250,
      "v": 100
    },
    {
      "midi": 65,
      "hit": false,
      "t": 26500,
      "d": 250,
      "v": 100
    },
    {
      "midi": 46,
      "hit": false,
      "t": 26500,
      "d": 500,
      "v": 100
    },
    {
      "midi": 62,
      "hit": false,
      "t": 26750,
      "d": 250,
      "v": 100
    },
    {
      "midi": 65,
      "hit": false,
      "t": 26750,
      "d": 250,
      "v": 100
    },
    {
      "midi": 63,
      "hit": false,
      "t": 27000,
      "d": 250,
      "v": 100
    },
    {
      "midi": 69,
      "hit": false,
      "t": 27000,
      "d": 250,
      "v": 100
    },
    {
      "midi": 46,
      "hit": false,
      "t": 27000,
      "d": 500,
      "v": 100
    },
    {
      "midi": 67,
      "hit": false,
      "t": 27250,
      "d": 250,
      "v": 100
    },
    {
      "midi": 62,
      "hit": false,
      "t": 27500,
      "d": 500,
      "v": 100
    },
    {
      "midi": 65,
      "hit": false,
      "t": 27500,
      "d": 500,
      "v": 100
    },
    {
      "midi": 46,
      "hit": false,
      "t": 27500,
      "d": 500,
      "v": 100
    },
    {
      "midi": 70,
      "hit": false,
      "t": 28000,
      "d": 125,
      "v": 100
    },
    {
      "midi": 46,
      "hit": false,
      "t": 28000,
      "d": 500,
      "v": 100
    },
    {
      "midi": 74,
      "hit": false,
      "t": 28125,
      "d": 125,
      "v": 100
    },
    {
      "midi": 69,
      "hit": false,
      "t": 28250,
      "d": 125,
      "v": 100
    },
    {
      "midi": 72,
      "hit": false,
      "t": 28375,
      "d": 125,
      "v": 100
    },
    {
      "midi": 67,
      "hit": false,
      "t": 28500,
      "d": 125,
      "v": 100
    },
    {
      "midi": 46,
      "hit": false,
      "t": 28500,
      "d": 500,
      "v": 100
    },
    {
      "midi": 70,
      "hit": false,
      "t": 28625,
      "d": 125,
      "v": 100
    },
    {
      "midi": 65,
      "hit": false,
      "t": 28750,
      "d": 125,
      "v": 100
    },
    {
      "midi": 69,
      "hit": false,
      "t": 28875,
      "d": 125,
      "v": 100
    },
    {
      "midi": 63,
      "hit": false,
      "t": 29000,
      "d": 250,
      "v": 100
    },
    {
      "midi": 69,
      "hit": false,
      "t": 29000,
      "d": 250,
      "v": 100
    },
    {
      "midi": 46,
      "hit": false,
      "t": 29000,
      "d": 500,
      "v": 100
    },
    {
      "midi": 67,
      "hit": false,
      "t": 29250,
      "d": 250,
      "v": 100
    },
    {
      "midi": 62,
      "hit": false,
      "t": 29500,
      "d": 500,
      "v": 100
    },
    {
      "midi": 65,
      "hit": false,
      "t": 29500,
      "d": 500,
      "v": 100
    },
    {
      "midi": 46,
      "hit": false,
      "t": 29500,
      "d": 500,
      "v": 100
    },
    {
      "midi": 70,
      "hit": false,
      "t": 30000,
      "d": 250,
      "v": 100
    },
    {
      "midi": 62,
      "hit": false,
      "t": 30000,
      "d": 500,
      "v": 100
    },
    {
      "midi": 65,
      "hit": false,
      "t": 30000,
      "d": 500,
      "v": 100
    },
    {
      "midi": 70,
      "hit": false,
      "t": 30250,
      "d": 250,
      "v": 100
    },
    {
      "midi": 60,
      "hit": false,
      "t": 30500,
      "d": 500,
      "v": 100
    },
    {
      "midi": 65,
      "hit": false,
      "t": 30500,
      "d": 500,
      "v": 100
    },
    {
      "midi": 69,
      "hit": false,
      "t": 30687.5,
      "d": 62.5,
      "v": 100
    },
    {
      "midi": 70,
      "hit": false,
      "t": 30750,
      "d": 62.5,
      "v": 100
    },
    {
      "midi": 69,
      "hit": false,
      "t": 30812.5,
      "d": 62.5,
      "v": 100
    },
    {
      "midi": 67,
      "hit": false,
      "t": 30875,
      "d": 62.5,
      "v": 100
    },
    {
      "midi": 69,
      "hit": false,
      "t": 30937.5,
      "d": 62.5,
      "v": 100
    },
    {
      "midi": 72,
      "hit": false,
      "t": 31000,
      "d": 250,
      "v": 100
    },
    {
      "midi": 63,
      "hit": false,
      "t": 31000,
      "d": 500,
      "v": 100
    },
    {
      "midi": 65,
      "hit": false,
      "t": 31000,
      "d": 500,
      "v": 100
    },
    {
      "midi": 72,
      "hit": false,
      "t": 31250,
      "d": 250,
      "v": 100
    },
    {
      "midi": 62,
      "hit": false,
      "t": 31500,
      "d": 500,
      "v": 100
    },
    {
      "midi": 65,
      "hit": false,
      "t": 31500,
      "d": 500,
      "v": 100
    },
    {
      "midi": 70,
      "hit": false,
      "t": 31687.5,
      "d": 62.5,
      "v": 100
    },
    {
      "midi": 72,
      "hit": false,
      "t": 31750,
      "d": 62.5,
      "v": 100
    },
    {
      "midi": 70,
      "hit": false,
      "t": 31812.5,
      "d": 62.5,
      "v": 100
    },
    {
      "midi": 69,
      "hit": false,
      "t": 31875,
      "d": 62.5,
      "v": 100
    },
    {
      "midi": 70,
      "hit": false,
      "t": 31937.5,
      "d": 62.5,
      "v": 100
    },
    {
      "midi": 74,
      "hit": false,
      "t": 32000,
      "d": 250,
      "v": 100
    },
    {
      "midi": 57,
      "hit": false,
      "t": 32000,
      "d": 500,
      "v": 100
    },
    {
      "midi": 65,
      "hit": false,
      "t": 32000,
      "d": 500,
      "v": 100
    },
    {
      "midi": 72,
      "hit": false,
      "t": 32250,
      "d": 250,
      "v": 100
    },
    {
      "midi": 75,
      "hit": false,
      "t": 32500,
      "d": 250,
      "v": 100
    },
    {
      "midi": 58,
      "hit": false,
      "t": 32500,
      "d": 500,
      "v": 100
    },
    {
      "midi": 65,
      "hit": false,
      "t": 32500,
      "d": 500,
      "v": 100
    },
    {
      "midi": 74,
      "hit": false,
      "t": 32750,
      "d": 250,
      "v": 100
    },
    {
      "midi": 77,
      "hit": false,
      "t": 33000,
      "d": 375,
      "v": 100
    },
    {
      "midi": 53,
      "hit": false,
      "t": 33000,
      "d": 375,
      "v": 100
    },
    {
      "midi": 62,
      "hit": false,
      "t": 33000,
      "d": 375,
      "v": 100
    },
    {
      "midi": 74,
      "hit": false,
      "t": 33375,
      "d": 125,
      "v": 100
    },
    {
      "midi": 58,
      "hit": false,
      "t": 33375,
      "d": 125,
      "v": 100
    },
    {
      "midi": 72,
      "hit": false,
      "t": 33500,
      "d": 250,
      "v": 100
    },
    {
      "midi": 57,
      "hit": false,
      "t": 33500,
      "d": 250,
      "v": 100
    },
    {
      "midi": 62,
      "hit": false,
      "t": 34000,
      "d": 250,
      "v": 100
    },
    {
      "midi": 65,
      "hit": false,
      "t": 34000,
      "d": 250,
      "v": 100
    },
    {
      "midi": 46,
      "hit": false,
      "t": 34000,
      "d": 125,
      "v": 100
    },
    {
      "midi": 58,
      "hit": false,
      "t": 34125,
      "d": 125,
      "v": 100
    },
    {
      "midi": 62,
      "hit": false,
      "t": 34250,
      "d": 250,
      "v": 100
    },
    {
      "midi": 65,
      "hit": false,
      "t": 34250,
      "d": 250,
      "v": 100
    },
    {
      "midi": 46,
      "hit": false,
      "t": 34250,
      "d": 125,
      "v": 100
    },
    {
      "midi": 58,
      "hit": false,
      "t": 34375,
      "d": 125,
      "v": 100
    },
    {
      "midi": 62,
      "hit": false,
      "t": 34500,
      "d": 250,
      "v": 100
    },
    {
      "midi": 65,
      "hit": false,
      "t": 34500,
      "d": 250,
      "v": 100
    },
    {
      "midi": 46,
      "hit": false,
      "t": 34500,
      "d": 125,
      "v": 100
    },
    {
      "midi": 58,
      "hit": false,
      "t": 34625,
      "d": 125,
      "v": 100
    },
    {
      "midi": 62,
      "hit": false,
      "t": 34750,
      "d": 250,
      "v": 100
    },
    {
      "midi": 65,
      "hit": false,
      "t": 34750,
      "d": 250,
      "v": 100
    },
    {
      "midi": 46,
      "hit": false,
      "t": 34750,
      "d": 125,
      "v": 100
    },
    {
      "midi": 58,
      "hit": false,
      "t": 34875,
      "d": 125,
      "v": 100
    },
    {
      "midi": 63,
      "hit": false,
      "t": 35000,
      "d": 250,
      "v": 100
    },
    {
      "midi": 69,
      "hit": false,
      "t": 35000,
      "d": 250,
      "v": 100
    },
    {
      "midi": 46,
      "hit": false,
      "t": 35000,
      "d": 125,
      "v": 100
    },
    {
      "midi": 58,
      "hit": false,
      "t": 35125,
      "d": 125,
      "v": 100
    },
    {
      "midi": 67,
      "hit": false,
      "t": 35250,
      "d": 250,
      "v": 100
    },
    {
      "midi": 46,
      "hit": false,
      "t": 35250,
      "d": 125,
      "v": 100
    },
    {
      "midi": 58,
      "hit": false,
      "t": 35375,
      "d": 125,
      "v": 100
    },
    {
      "midi": 62,
      "hit": false,
      "t": 35500,
      "d": 500,
      "v": 100
    },
    {
      "midi": 65,
      "hit": false,
      "t": 35500,
      "d": 500,
      "v": 100
    },
    {
      "midi": 46,
      "hit": false,
      "t": 35500,
      "d": 125,
      "v": 100
    },
    {
      "midi": 58,
      "hit": false,
      "t": 35625,
      "d": 125,
      "v": 100
    },
    {
      "midi": 46,
      "hit": false,
      "t": 35750,
      "d": 125,
      "v": 100
    },
    {
      "midi": 58,
      "hit": false,
      "t": 35875,
      "d": 125,
      "v": 100
    },
    {
      "midi": 74,
      "hit": false,
      "t": 36000,
      "d": 250,
      "v": 100
    },
    {
      "midi": 77,
      "hit": false,
      "t": 36000,
      "d": 250,
      "v": 100
    },
    {
      "midi": 46,
      "hit": false,
      "t": 36000,
      "d": 125,
      "v": 100
    },
    {
      "midi": 58,
      "hit": false,
      "t": 36125,
      "d": 125,
      "v": 100
    },
    {
      "midi": 73,
      "hit": false,
      "t": 36250,
      "d": 250,
      "v": 100
    },
    {
      "midi": 76,
      "hit": false,
      "t": 36250,
      "d": 250,
      "v": 100
    },
    {
      "midi": 46,
      "hit": false,
      "t": 36250,
      "d": 125,
      "v": 100
    },
    {
      "midi": 58,
      "hit": false,
      "t": 36375,
      "d": 125,
      "v": 100
    },
    {
      "midi": 72,
      "hit": false,
      "t": 36500,
      "d": 250,
      "v": 100
    },
    {
      "midi": 75,
      "hit": false,
      "t": 36500,
      "d": 250,
      "v": 100
    },
    {
      "midi": 48,
      "hit": false,
      "t": 36500,
      "d": 125,
      "v": 100
    },
    {
      "midi": 60,
      "hit": false,
      "t": 36625,
      "d": 125,
      "v": 100
    },
    {
      "midi": 70,
      "hit": false,
      "t": 36750,
      "d": 250,
      "v": 100
    },
    {
      "midi": 74,
      "hit": false,
      "t": 36750,
      "d": 250,
      "v": 100
    },
    {
      "midi": 50,
      "hit": false,
      "t": 36750,
      "d": 125,
      "v": 100
    },
    {
      "midi": 62,
      "hit": false,
      "t": 36875,
      "d": 125,
      "v": 100
    },
    {
      "midi": 67,
      "hit": false,
      "t": 37000,
      "d": 250,
      "v": 100
    },
    {
      "midi": 71,
      "hit": false,
      "t": 37000,
      "d": 250,
      "v": 100
    },
    {
      "midi": 51,
      "hit": false,
      "t": 37000,
      "d": 125,
      "v": 100
    },
    {
      "midi": 63,
      "hit": false,
      "t": 37125,
      "d": 125,
      "v": 100
    },
    {
      "midi": 72,
      "hit": false,
      "t": 37250,
      "d": 250,
      "v": 100
    },
    {
      "midi": 51,
      "hit": false,
      "t": 37250,
      "d": 125,
      "v": 100
    },
    {
      "midi": 63,
      "hit": false,
      "t": 37375,
      "d": 125,
      "v": 100
    },
    {
      "midi": 67,
      "hit": false,
      "t": 37500,
      "d": 500,
      "v": 100
    },
    {
      "midi": 72,
      "hit": false,
      "t": 37500,
      "d": 500,
      "v": 100
    },
    {
      "midi": 51,
      "hit": false,
      "t": 37500,
      "d": 125,
      "v": 100
    },
    {
      "midi": 63,
      "hit": false,
      "t": 37625,
      "d": 125,
      "v": 100
    },
    {
      "midi": 51,
      "hit": false,
      "t": 37750,
      "d": 125,
      "v": 100
    },
    {
      "midi": 63,
      "hit": false,
      "t": 37875,
      "d": 125,
      "v": 100
    },
    {
      "midi": 79,
      "hit": false,
      "t": 38000,
      "d": 125,
      "v": 100
    },
    {
      "midi": 75,
      "hit": false,
      "t": 38125,
      "d": 125,
      "v": 100
    },
    {
      "midi": 79,
      "hit": false,
      "t": 38250,
      "d": 125,
      "v": 100
    },
    {
      "midi": 69,
      "hit": false,
      "t": 38250,
      "d": 250,
      "v": 100
    },
    {
      "midi": 75,
      "hit": false,
      "t": 38375,
      "d": 125,
      "v": 100
    },
    {
      "midi": 74,
      "hit": false,
      "t": 38500,
      "d": 125,
      "v": 100
    },
    {
      "midi": 77,
      "hit": false,
      "t": 38625,
      "d": 125,
      "v": 100
    },
    {
      "midi": 74,
      "hit": false,
      "t": 38750,
      "d": 125,
      "v": 100
    },
    {
      "midi": 70,
      "hit": false,
      "t": 38750,
      "d": 250,
      "v": 100
    },
    {
      "midi": 77,
      "hit": false,
      "t": 38875,
      "d": 125,
      "v": 100
    },
    {
      "midi": 75,
      "hit": false,
      "t": 39000,
      "d": 125,
      "v": 100
    },
    {
      "midi": 72,
      "hit": false,
      "t": 39125,
      "d": 125,
      "v": 100
    },
    {
      "midi": 75,
      "hit": false,
      "t": 39250,
      "d": 125,
      "v": 100
    },
    {
      "midi": 66,
      "hit": false,
      "t": 39250,
      "d": 250,
      "v": 100
    },
    {
      "midi": 72,
      "hit": false,
      "t": 39375,
      "d": 125,
      "v": 100
    },
    {
      "midi": 70,
      "hit": false,
      "t": 39500,
      "d": 125,
      "v": 100
    },
    {
      "midi": 74,
      "hit": false,
      "t": 39625,
      "d": 125,
      "v": 100
    },
    {
      "midi": 70,
      "hit": false,
      "t": 39750,
      "d": 125,
      "v": 100
    },
    {
      "midi": 67,
      "hit": false,
      "t": 39750,
      "d": 250,
      "v": 100
    },
    {
      "midi": 74,
      "hit": false,
      "t": 39875,
      "d": 125,
      "v": 100
    },
    {
      "midi": 72,
      "hit": false,
      "t": 40000,
      "d": 125,
      "v": 100
    },
    {
      "midi": 51,
      "hit": false,
      "t": 40000,
      "d": 250,
      "v": 100
    },
    {
      "midi": 63,
      "hit": false,
      "t": 40000,
      "d": 250,
      "v": 100
    },
    {
      "midi": 67,
      "hit": false,
      "t": 40125,
      "d": 125,
      "v": 100
    },
    {
      "midi": 72,
      "hit": false,
      "t": 40250,
      "d": 125,
      "v": 100
    },
    {
      "midi": 51,
      "hit": false,
      "t": 40250,
      "d": 250,
      "v": 100
    },
    {
      "midi": 63,
      "hit": false,
      "t": 40250,
      "d": 250,
      "v": 100
    },
    {
      "midi": 67,
      "hit": false,
      "t": 40375,
      "d": 125,
      "v": 100
    },
    {
      "midi": 69,
      "hit": false,
      "t": 40500,
      "d": 125,
      "v": 100
    },
    {
      "midi": 53,
      "hit": false,
      "t": 40500,
      "d": 250,
      "v": 100
    },
    {
      "midi": 60,
      "hit": false,
      "t": 40500,
      "d": 250,
      "v": 100
    },
    {
      "midi": 77,
      "hit": false,
      "t": 40625,
      "d": 125,
      "v": 100
    },
    {
      "midi": 69,
      "hit": false,
      "t": 40750,
      "d": 125,
      "v": 100
    },
    {
      "midi": 53,
      "hit": false,
      "t": 40750,
      "d": 250,
      "v": 100
    },
    {
      "midi": 60,
      "hit": false,
      "t": 40750,
      "d": 250,
      "v": 100
    },
    {
      "midi": 77,
      "hit": false,
      "t": 40875,
      "d": 125,
      "v": 100
    },
    {
      "midi": 75,
      "hit": false,
      "t": 41000,
      "d": 125,
      "v": 100
    },
    {
      "midi": 58,
      "hit": false,
      "t": 41000,
      "d": 500,
      "v": 100
    },
    {
      "midi": 62,
      "hit": false,
      "t": 41000,
      "d": 500,
      "v": 100
    },
    {
      "midi": 74,
      "hit": false,
      "t": 41125,
      "d": 125,
      "v": 100
    },
    {
      "midi": 82,
      "hit": false,
      "t": 41250,
      "d": 125,
      "v": 100
    },
    {
      "midi": 81,
      "hit": false,
      "t": 41375,
      "d": 125,
      "v": 100
    },
    {
      "midi": 79,
      "hit": false,
      "t": 41500,
      "d": 125,
      "v": 100
    },
    {
      "midi": 77,
      "hit": false,
      "t": 41625,
      "d": 125,
      "v": 100
    },
    {
      "midi": 75,
      "hit": false,
      "t": 41750,
      "d": 125,
      "v": 100
    },
    {
      "midi": 74,
      "hit": false,
      "t": 41875,
      "d": 125,
      "v": 100
    },
    {
      "midi": 72,
      "hit": false,
      "t": 42000,
      "d": 125,
      "v": 100
    },
    {
      "midi": 39,
      "hit": false,
      "t": 42000,
      "d": 125,
      "v": 100
    },
    {
      "midi": 67,
      "hit": false,
      "t": 42125,
      "d": 125,
      "v": 100
    },
    {
      "midi": 51,
      "hit": false,
      "t": 42125,
      "d": 125,
      "v": 100
    },
    {
      "midi": 72,
      "hit": false,
      "t": 42250,
      "d": 125,
      "v": 100
    },
    {
      "midi": 39,
      "hit": false,
      "t": 42250,
      "d": 125,
      "v": 100
    },
    {
      "midi": 67,
      "hit": false,
      "t": 42375,
      "d": 125,
      "v": 100
    },
    {
      "midi": 51,
      "hit": false,
      "t": 42375,
      "d": 125,
      "v": 100
    },
    {
      "midi": 69,
      "hit": false,
      "t": 42500,
      "d": 125,
      "v": 100
    },
    {
      "midi": 41,
      "hit": false,
      "t": 42500,
      "d": 125,
      "v": 100
    },
    {
      "midi": 77,
      "hit": false,
      "t": 42625,
      "d": 125,
      "v": 100
    },
    {
      "midi": 53,
      "hit": false,
      "t": 42625,
      "d": 125,
      "v": 100
    },
    {
      "midi": 69,
      "hit": false,
      "t": 42750,
      "d": 125,
      "v": 100
    },
    {
      "midi": 41,
      "hit": false,
      "t": 42750,
      "d": 125,
      "v": 100
    },
    {
      "midi": 77,
      "hit": false,
      "t": 42875,
      "d": 125,
      "v": 100
    },
    {
      "midi": 53,
      "hit": false,
      "t": 42875,
      "d": 125,
      "v": 100
    },
    {
      "midi": 75,
      "hit": false,
      "t": 43000,
      "d": 125,
      "v": 100
    },
    {
      "midi": 58,
      "hit": false,
      "t": 43000,
      "d": 500,
      "v": 100
    },
    {
      "midi": 62,
      "hit": false,
      "t": 43000,
      "d": 500,
      "v": 100
    },
    {
      "midi": 74,
      "hit": false,
      "t": 43125,
      "d": 125,
      "v": 100
    },
    {
      "midi": 86,
      "hit": false,
      "t": 43250,
      "d": 125,
      "v": 100
    },
    {
      "midi": 81,
      "hit": false,
      "t": 43375,
      "d": 125,
      "v": 100
    },
    {
      "midi": 84,
      "hit": false,
      "t": 43500,
      "d": 125,
      "v": 100
    },
    {
      "midi": 82,
      "hit": false,
      "t": 43625,
      "d": 125,
      "v": 100
    },
    {
      "midi": 77,
      "hit": false,
      "t": 43750,
      "d": 125,
      "v": 100
    },
    {
      "midi": 74,
      "hit": false,
      "t": 43875,
      "d": 125,
      "v": 100
    },
    {
      "midi": 67,
      "hit": false,
      "t": 44000,
      "d": 250,
      "v": 100
    },
    {
      "midi": 72,
      "hit": false,
      "t": 44000,
      "d": 250,
      "v": 100
    },
    {
      "midi": 39,
      "hit": false,
      "t": 44000,
      "d": 125,
      "v": 100
    },
    {
      "midi": 51,
      "hit": false,
      "t": 44125,
      "d": 125,
      "v": 100
    },
    {
      "midi": 67,
      "hit": false,
      "t": 44250,
      "d": 250,
      "v": 100
    },
    {
      "midi": 72,
      "hit": false,
      "t": 44250,
      "d": 250,
      "v": 100
    },
    {
      "midi": 39,
      "hit": false,
      "t": 44250,
      "d": 125,
      "v": 100
    },
    {
      "midi": 51,
      "hit": false,
      "t": 44375,
      "d": 125,
      "v": 100
    },
    {
      "midi": 63,
      "hit": false,
      "t": 44500,
      "d": 250,
      "v": 100
    },
    {
      "midi": 69,
      "hit": false,
      "t": 44500,
      "d": 250,
      "v": 100
    },
    {
      "midi": 41,
      "hit": false,
      "t": 44500,
      "d": 125,
      "v": 100
    },
    {
      "midi": 53,
      "hit": false,
      "t": 44625,
      "d": 125,
      "v": 100
    },
    {
      "midi": 63,
      "hit": false,
      "t": 44750,
      "d": 250,
      "v": 100
    },
    {
      "midi": 69,
      "hit": false,
      "t": 44750,
      "d": 250,
      "v": 100
    },
    {
      "midi": 41,
      "hit": false,
      "t": 44750,
      "d": 125,
      "v": 100
    },
    {
      "midi": 53,
      "hit": false,
      "t": 44875,
      "d": 125,
      "v": 100
    },
    {
      "midi": 62,
      "hit": false,
      "t": 45000,
      "d": 500,
      "v": 100
    },
    {
      "midi": 70,
      "hit": false,
      "t": 45000,
      "d": 500,
      "v": 100
    },
    {
      "midi": 34,
      "hit": false,
      "t": 45000,
      "d": 500,
      "v": 100
    },
    {
      "midi": 46,
      "hit": false,
      "t": 45000,
      "d": 500,
      "v": 100
    }
  ]
}