{
  "jsonPath": "Rock/Dutch Rock/Rene Froger/calling-out-your-name-ruby-the-missing.json",
  "path": "Rock\\Dutch Rock\\Rene Froger\\Calling Out Your Name (Ruby) The Missing.mid",
  "name": "Calling Out Your Name (Ruby) The Missing",
  "difficulty": "Advanced",
  "bpm": 130.0026650546336,
  "notes": [
    {
      "midi": 64,
      "hit": false,
      "t": 5538.348,
      "d": 1682.6578124999996,
      "v": 111
    },
    {
      "midi": 60,
      "hit": false,
      "t": 5538.348,
      "d": 1711.5033749999993,
      "v": 112
    },
    {
      "midi": 57,
      "hit": false,
      "t": 5538.348,
      "d": 1725.9261562499996,
      "v": 102
    },
    {
      "midi": 53,
      "hit": false,
      "t": 5538.348,
      "d": 1735.5413437499992,
      "v": 103
    },
    {
      "midi": 57,
      "hit": false,
      "t": 7365.233624999999,
      "d": 1749.9641249999986,
      "v": 102
    },
    {
      "midi": 59,
      "hit": false,
      "t": 7365.233624999999,
      "d": 1749.9641249999986,
      "v": 112
    },
    {
      "midi": 53,
      "hit": false,
      "t": 7370.041218749999,
      "d": 1740.348937499999,
      "v": 103
    },
    {
      "midi": 62,
      "hit": false,
      "t": 7374.8488124999985,
      "d": 1721.1185624999998,
      "v": 111
    },
    {
      "midi": 62,
      "hit": false,
      "t": 9225.772406249998,
      "d": 1711.5033750000002,
      "v": 112
    },
    {
      "midi": 59,
      "hit": false,
      "t": 9225.772406249998,
      "d": 1721.1185624999998,
      "v": 109
    },
    {
      "midi": 52,
      "hit": false,
      "t": 9225.772406249998,
      "d": 1735.5413437499992,
      "v": 103
    },
    {
      "midi": 55,
      "hit": false,
      "t": 9225.772406249998,
      "d": 1740.348937499999,
      "v": 102
    },
    {
      "midi": 55,
      "hit": false,
      "t": 11062.273218749997,
      "d": 1831.6932187499988,
      "v": 103
    },
    {
      "midi": 57,
      "hit": false,
      "t": 11062.273218749997,
      "d": 1836.5008124999986,
      "v": 112
    },
    {
      "midi": 45,
      "hit": false,
      "t": 11071.888406249996,
      "d": 1774.0020937499994,
      "v": 93
    },
    {
      "midi": 60,
      "hit": false,
      "t": 11071.888406249996,
      "d": 1807.6552499999998,
      "v": 112
    },
    {
      "midi": 52,
      "hit": false,
      "t": 11076.695999999996,
      "d": 1774.0020937499994,
      "v": 103
    },
    {
      "midi": 50,
      "hit": false,
      "t": 12922.811999999996,
      "d": 14.422781249999389,
      "v": 94
    },
    {
      "midi": 57,
      "hit": false,
      "t": 12922.811999999996,
      "d": 1490.3540625000005,
      "v": 102
    },
    {
      "midi": 53,
      "hit": false,
      "t": 12922.811999999996,
      "d": 1495.1616562500003,
      "v": 103
    },
    {
      "midi": 60,
      "hit": false,
      "t": 12922.811999999996,
      "d": 1495.1616562500003,
      "v": 112
    },
    {
      "midi": 64,
      "hit": false,
      "t": 12922.811999999996,
      "d": 1509.5844374999997,
      "v": 111
    },
    {
      "midi": 50,
      "hit": false,
      "t": 12937.234781249996,
      "d": 1317.2806875000006,
      "v": 94
    },
    {
      "midi": 57,
      "hit": false,
      "t": 14518.933124999996,
      "d": 1990.3438124999993,
      "v": 102
    },
    {
      "midi": 59,
      "hit": false,
      "t": 14518.933124999996,
      "d": 1990.3438124999993,
      "v": 112
    },
    {
      "midi": 53,
      "hit": false,
      "t": 14523.740718749996,
      "d": 1956.6906562500008,
      "v": 103
    },
    {
      "midi": 47,
      "hit": false,
      "t": 14528.548312499996,
      "d": 1884.5767500000002,
      "v": 94
    },
    {
      "midi": 62,
      "hit": false,
      "t": 14528.548312499996,
      "d": 1985.5362187499995,
      "v": 111
    },
    {
      "midi": 48,
      "hit": false,
      "t": 16605.428812499995,
      "d": 1471.1236874999995,
      "v": 93
    },
    {
      "midi": 62,
      "hit": false,
      "t": 16610.236406249995,
      "d": 1423.0477500000015,
      "v": 112
    },
    {
      "midi": 59,
      "hit": false,
      "t": 16610.236406249995,
      "d": 1456.7009062500001,
      "v": 109
    },
    {
      "midi": 52,
      "hit": false,
      "t": 16610.236406249995,
      "d": 1471.1236874999995,
      "v": 103
    },
    {
      "midi": 55,
      "hit": false,
      "t": 16610.236406249995,
      "d": 1499.9692499999983,
      "v": 102
    },
    {
      "midi": 57,
      "hit": false,
      "t": 18215.972718749992,
      "d": 2004.7665937499987,
      "v": 112
    },
    {
      "midi": 55,
      "hit": false,
      "t": 18215.972718749992,
      "d": 2048.034937499997,
      "v": 103
    },
    {
      "midi": 45,
      "hit": false,
      "t": 18225.58790624999,
      "d": 2014.3817812499983,
      "v": 93
    },
    {
      "midi": 60,
      "hit": false,
      "t": 18225.58790624999,
      "d": 2043.227343749997,
      "v": 112
    },
    {
      "midi": 52,
      "hit": false,
      "t": 18230.39549999999,
      "d": 2033.6121562499975,
      "v": 103
    },
    {
      "midi": 57,
      "hit": false,
      "t": 20307.275999999987,
      "d": 1490.3540624999987,
      "v": 102
    },
    {
      "midi": 53,
      "hit": false,
      "t": 20307.275999999987,
      "d": 1495.1616562499985,
      "v": 103
    },
    {
      "midi": 60,
      "hit": false,
      "t": 20307.275999999987,
      "d": 1495.1616562499985,
      "v": 112
    },
    {
      "midi": 64,
      "hit": false,
      "t": 20307.275999999987,
      "d": 1509.5844374999979,
      "v": 111
    },
    {
      "midi": 53,
      "hit": false,
      "t": 20528.425312500003,
      "d": 57.69112500000119,
      "v": 97
    },
    {
      "midi": 64,
      "hit": false,
      "t": 20528.425312500003,
      "d": 62.49871875000099,
      "v": 97
    },
    {
      "midi": 57,
      "hit": false,
      "t": 20533.232906250003,
      "d": 48.0759375000016,
      "v": 97
    },
    {
      "midi": 64,
      "hit": false,
      "t": 20985.146718750006,
      "d": 187.49615624999933,
      "v": 97
    },
    {
      "midi": 53,
      "hit": false,
      "t": 20989.954312500005,
      "d": 173.07337499999994,
      "v": 97
    },
    {
      "midi": 57,
      "hit": false,
      "t": 20989.954312500005,
      "d": 177.88096874999974,
      "v": 97
    },
    {
      "midi": 57,
      "hit": false,
      "t": 21451.483312500004,
      "d": 62.49871875000099,
      "v": 97
    },
    {
      "midi": 53,
      "hit": false,
      "t": 21456.290906250004,
      "d": 72.11390625000058,
      "v": 97
    },
    {
      "midi": 64,
      "hit": false,
      "t": 21456.290906250004,
      "d": 72.11390625000058,
      "v": 97
    },
    {
      "midi": 57,
      "hit": false,
      "t": 21903.397124999985,
      "d": 1990.3438124999993,
      "v": 102
    },
    {
      "midi": 59,
      "hit": false,
      "t": 21903.397124999985,
      "d": 1990.3438124999993,
      "v": 112
    },
    {
      "midi": 53,
      "hit": false,
      "t": 21908.204718749985,
      "d": 1956.6906562500008,
      "v": 103
    },
    {
      "midi": 62,
      "hit": false,
      "t": 21913.012312499985,
      "d": 1985.5362187499995,
      "v": 111
    },
    {
      "midi": 57,
      "hit": false,
      "t": 21917.819906250006,
      "d": 81.72909375000017,
      "v": 97
    },
    {
      "midi": 62,
      "hit": false,
      "t": 21922.627500000006,
      "d": 72.11390625000058,
      "v": 97
    },
    {
      "midi": 53,
      "hit": false,
      "t": 21927.435093750006,
      "d": 62.49871875000099,
      "v": 97
    },
    {
      "midi": 53,
      "hit": false,
      "t": 22374.541312500005,
      "d": 57.69112500000119,
      "v": 97
    },
    {
      "midi": 62,
      "hit": false,
      "t": 22374.541312500005,
      "d": 62.49871875000099,
      "v": 97
    },
    {
      "midi": 57,
      "hit": false,
      "t": 22379.348906250005,
      "d": 48.0759375000016,
      "v": 97
    },
    {
      "midi": 62,
      "hit": false,
      "t": 22831.262718750007,
      "d": 187.49615624999933,
      "v": 97
    },
    {
      "midi": 53,
      "hit": false,
      "t": 22836.070312500007,
      "d": 173.07337499999994,
      "v": 97
    },
    {
      "midi": 57,
      "hit": false,
      "t": 22836.070312500007,
      "d": 177.88096874999974,
      "v": 97
    },
    {
      "midi": 57,
      "hit": false,
      "t": 23297.599312500006,
      "d": 62.49871875000099,
      "v": 97
    },
    {
      "midi": 53,
      "hit": false,
      "t": 23302.406906250006,
      "d": 72.11390625000058,
      "v": 97
    },
    {
      "midi": 62,
      "hit": false,
      "t": 23302.406906250006,
      "d": 72.11390625000058,
      "v": 97
    },
    {
      "midi": 57,
      "hit": false,
      "t": 23763.935906250008,
      "d": 81.72909375000017,
      "v": 97
    },
    {
      "midi": 62,
      "hit": false,
      "t": 23768.743500000008,
      "d": 72.11390625000058,
      "v": 97
    },
    {
      "midi": 53,
      "hit": false,
      "t": 23773.551093750008,
      "d": 62.49871875000099,
      "v": 97
    },
    {
      "midi": 48,
      "hit": false,
      "t": 23989.892812499984,
      "d": 1471.1236874999995,
      "v": 93
    },
    {
      "midi": 62,
      "hit": false,
      "t": 23994.700406249984,
      "d": 1423.0477500000015,
      "v": 112
    },
    {
      "midi": 59,
      "hit": false,
      "t": 23994.700406249984,
      "d": 1456.7009062500001,
      "v": 109
    },
    {
      "midi": 52,
      "hit": false,
      "t": 23994.700406249984,
      "d": 1471.1236874999995,
      "v": 103
    },
    {
      "midi": 55,
      "hit": false,
      "t": 23994.700406249984,
      "d": 1499.9692499999983,
      "v": 102
    },
    {
      "midi": 55,
      "hit": false,
      "t": 24220.657312500007,
      "d": 57.69112500000119,
      "v": 97
    },
    {
      "midi": 62,
      "hit": false,
      "t": 24220.657312500007,
      "d": 62.49871875000099,
      "v": 97
    },
    {
      "midi": 59,
      "hit": false,
      "t": 24225.464906250007,
      "d": 48.0759375000016,
      "v": 97
    },
    {
      "midi": 62,
      "hit": false,
      "t": 24677.37871875001,
      "d": 187.49615624999933,
      "v": 97
    },
    {
      "midi": 55,
      "hit": false,
      "t": 24682.18631250001,
      "d": 173.07337499999994,
      "v": 97
    },
    {
      "midi": 59,
      "hit": false,
      "t": 24682.18631250001,
      "d": 177.88096874999974,
      "v": 97
    },
    {
      "midi": 59,
      "hit": false,
      "t": 25143.715312500008,
      "d": 62.49871875000099,
      "v": 97
    },
    {
      "midi": 55,
      "hit": false,
      "t": 25148.522906250008,
      "d": 72.11390625000058,
      "v": 97
    },
    {
      "midi": 62,
      "hit": false,
      "t": 25148.522906250008,
      "d": 72.11390625000058,
      "v": 97
    },
    {
      "midi": 57,
      "hit": false,
      "t": 25600.43671874998,
      "d": 2004.7665937499987,
      "v": 112
    },
    {
      "midi": 55,
      "hit": false,
      "t": 25600.43671874998,
      "d": 2048.034937499997,
      "v": 103
    },
    {
      "midi": 45,
      "hit": false,
      "t": 25610.05190624998,
      "d": 2014.3817812499983,
      "v": 93
    },
    {
      "midi": 60,
      "hit": false,
      "t": 25610.05190624998,
      "d": 2043.227343749997,
      "v": 112
    },
    {
      "midi": 59,
      "hit": false,
      "t": 25610.05190625001,
      "d": 81.72909375000017,
      "v": 97
    },
    {
      "midi": 52,
      "hit": false,
      "t": 25614.85949999998,
      "d": 2033.6121562499975,
      "v": 103
    },
    {
      "midi": 62,
      "hit": false,
      "t": 25614.85950000001,
      "d": 72.11390625000058,
      "v": 97
    },
    {
      "midi": 55,
      "hit": false,
      "t": 25619.66709375001,
      "d": 62.49871875000099,
      "v": 97
    },
    {
      "midi": 52,
      "hit": false,
      "t": 26066.77331250001,
      "d": 57.69112500000119,
      "v": 97
    },
    {
      "midi": 60,
      "hit": false,
      "t": 26066.77331250001,
      "d": 62.49871875000099,
      "v": 97
    },
    {
      "midi": 55,
      "hit": false,
      "t": 26071.58090625001,
      "d": 48.0759375000016,
      "v": 97
    },
    {
      "midi": 60,
      "hit": false,
      "t": 26523.49471875001,
      "d": 187.49615624999933,
      "v": 97
    },
    {
      "midi": 52,
      "hit": false,
      "t": 26528.30231250001,
      "d": 173.07337499999994,
      "v": 97
    },
    {
      "midi": 55,
      "hit": false,
      "t": 26528.30231250001,
      "d": 177.88096874999974,
      "v": 97
    },
    {
      "midi": 55,
      "hit": false,
      "t": 26989.83131250001,
      "d": 62.49871875000099,
      "v": 97
    },
    {
      "midi": 52,
      "hit": false,
      "t": 26994.63890625001,
      "d": 72.11390625000058,
      "v": 97
    },
    {
      "midi": 60,
      "hit": false,
      "t": 26994.63890625001,
      "d": 72.11390625000058,
      "v": 97
    },
    {
      "midi": 55,
      "hit": false,
      "t": 27456.16790625001,
      "d": 81.72909375000017,
      "v": 97
    },
    {
      "midi": 60,
      "hit": false,
      "t": 27460.97550000001,
      "d": 72.11390625000058,
      "v": 97
    },
    {
      "midi": 52,
      "hit": false,
      "t": 27465.78309375001,
      "d": 62.49871875000099,
      "v": 97
    },
    {
      "midi": 57,
      "hit": false,
      "t": 27691.739999999976,
      "d": 1490.3540624999987,
      "v": 102
    },
    {
      "midi": 53,
      "hit": false,
      "t": 27691.739999999976,
      "d": 1495.1616562499985,
      "v": 103
    },
    {
      "midi": 60,
      "hit": false,
      "t": 27691.739999999976,
      "d": 1495.1616562499985,
      "v": 112
    },
    {
      "midi": 64,
      "hit": false,
      "t": 27691.739999999976,
      "d": 1509.5844374999979,
      "v": 111
    },
    {
      "midi": 53,
      "hit": false,
      "t": 27912.88931250001,
      "d": 57.69112500000119,
      "v": 97
    },
    {
      "midi": 64,
      "hit": false,
      "t": 27912.88931250001,
      "d": 62.49871875000099,
      "v": 97
    },
    {
      "midi": 57,
      "hit": false,
      "t": 27917.69690625001,
      "d": 48.0759375000016,
      "v": 97
    },
    {
      "midi": 64,
      "hit": false,
      "t": 28369.610718750013,
      "d": 187.49615624999933,
      "v": 97
    },
    {
      "midi": 53,
      "hit": false,
      "t": 28374.418312500013,
      "d": 173.07337499999994,
      "v": 97
    },
    {
      "midi": 57,
      "hit": false,
      "t": 28374.418312500013,
      "d": 177.88096874999974,
      "v": 97
    },
    {
      "midi": 57,
      "hit": false,
      "t": 28835.94731250001,
      "d": 62.49871875000099,
      "v": 97
    },
    {
      "midi": 53,
      "hit": false,
      "t": 28840.75490625001,
      "d": 72.11390625000058,
      "v": 97
    },
    {
      "midi": 64,
      "hit": false,
      "t": 28840.75490625001,
      "d": 72.11390625000058,
      "v": 97
    },
    {
      "midi": 59,
      "hit": false,
      "t": 29287.861124999974,
      "d": 1100.9389687500006,
      "v": 112
    },
    {
      "midi": 57,
      "hit": false,
      "t": 29287.861124999974,
      "d": 1124.9769374999996,
      "v": 102
    },
    {
      "midi": 53,
      "hit": false,
      "t": 29292.668718749974,
      "d": 1091.323781250001,
      "v": 103
    },
    {
      "midi": 62,
      "hit": false,
      "t": 29297.476312499974,
      "d": 1072.0934062500019,
      "v": 111
    },
    {
      "midi": 57,
      "hit": false,
      "t": 29302.283906250013,
      "d": 81.72909375000017,
      "v": 97
    },
    {
      "midi": 64,
      "hit": false,
      "t": 29307.091500000013,
      "d": 72.11390625000058,
      "v": 97
    },
    {
      "midi": 53,
      "hit": false,
      "t": 29311.899093750013,
      "d": 62.49871875000099,
      "v": 97
    },
    {
      "midi": 53,
      "hit": false,
      "t": 29759.005312500012,
      "d": 57.69112500000119,
      "v": 97
    },
    {
      "midi": 62,
      "hit": false,
      "t": 29759.005312500012,
      "d": 62.49871875000099,
      "v": 97
    },
    {
      "midi": 57,
      "hit": false,
      "t": 29763.812906250012,
      "d": 48.0759375000016,
      "v": 97
    },
    {
      "midi": 62,
      "hit": false,
      "t": 30215.726718750015,
      "d": 187.49615624999933,
      "v": 97
    },
    {
      "midi": 53,
      "hit": false,
      "t": 30220.534312500014,
      "d": 173.07337499999994,
      "v": 97
    },
    {
      "midi": 57,
      "hit": false,
      "t": 30220.534312500014,
      "d": 177.88096874999974,
      "v": 97
    },
    {
      "midi": 59,
      "hit": false,
      "t": 30441.683624999972,
      "d": 860.5592812499999,
      "v": 112
    },
    {
      "midi": 57,
      "hit": false,
      "t": 30441.683624999972,
      "d": 908.6352187500015,
      "v": 102
    },
    {
      "midi": 53,
      "hit": false,
      "t": 30446.491218749972,
      "d": 899.0200312500019,
      "v": 103
    },
    {
      "midi": 62,
      "hit": false,
      "t": 30451.298812499972,
      "d": 831.7137187500011,
      "v": 111
    },
    {
      "midi": 57,
      "hit": false,
      "t": 30682.063312500013,
      "d": 62.49871875000099,
      "v": 97
    },
    {
      "midi": 53,
      "hit": false,
      "t": 30686.870906250013,
      "d": 72.11390625000058,
      "v": 97
    },
    {
      "midi": 62,
      "hit": false,
      "t": 30686.870906250013,
      "d": 72.11390625000058,
      "v": 97
    },
    {
      "midi": 57,
      "hit": false,
      "t": 31148.399906250015,
      "d": 81.72909375000017,
      "v": 97
    },
    {
      "midi": 62,
      "hit": false,
      "t": 31153.207500000015,
      "d": 72.11390625000058,
      "v": 97
    },
    {
      "midi": 53,
      "hit": false,
      "t": 31158.015093750015,
      "d": 62.49871875000099,
      "v": 97
    },
    {
      "midi": 55,
      "hit": false,
      "t": 31379.164406249973,
      "d": 3475.890281249998,
      "v": 102
    },
    {
      "midi": 59,
      "hit": false,
      "t": 31379.164406249973,
      "d": 3485.505468749998,
      "v": 109
    },
    {
      "midi": 52,
      "hit": false,
      "t": 31379.164406249973,
      "d": 3509.5434375000004,
      "v": 103
    },
    {
      "midi": 62,
      "hit": false,
      "t": 31379.164406249973,
      "d": 3586.464937499997,
      "v": 112
    },
    {
      "midi": 55,
      "hit": false,
      "t": 31605.121312500014,
      "d": 57.69112500000119,
      "v": 97
    },
    {
      "midi": 62,
      "hit": false,
      "t": 31605.121312500014,
      "d": 62.49871875000099,
      "v": 97
    },
    {
      "midi": 59,
      "hit": false,
      "t": 31609.928906250014,
      "d": 48.0759375000016,
      "v": 97
    },
    {
      "midi": 62,
      "hit": false,
      "t": 32061.842718750017,
      "d": 187.49615624999933,
      "v": 97
    },
    {
      "midi": 55,
      "hit": false,
      "t": 32066.650312500016,
      "d": 173.07337499999994,
      "v": 97
    },
    {
      "midi": 59,
      "hit": false,
      "t": 32066.650312500016,
      "d": 177.88096874999974,
      "v": 97
    },
    {
      "midi": 59,
      "hit": false,
      "t": 32528.179312500015,
      "d": 62.49871875000099,
      "v": 97
    },
    {
      "midi": 55,
      "hit": false,
      "t": 32532.986906250015,
      "d": 72.11390625000058,
      "v": 97
    },
    {
      "midi": 62,
      "hit": false,
      "t": 32532.986906250015,
      "d": 72.11390625000058,
      "v": 97
    },
    {
      "midi": 59,
      "hit": false,
      "t": 32994.51590625002,
      "d": 81.72909375001473,
      "v": 97
    },
    {
      "midi": 62,
      "hit": false,
      "t": 32999.32350000002,
      "d": 72.11390625000786,
      "v": 97
    },
    {
      "midi": 55,
      "hit": false,
      "t": 33004.131093750024,
      "d": 62.49871875000099,
      "v": 97
    },
    {
      "midi": 55,
      "hit": false,
      "t": 33451.23731250003,
      "d": 57.69112500000483,
      "v": 97
    },
    {
      "midi": 62,
      "hit": false,
      "t": 33451.23731250003,
      "d": 62.498718750008265,
      "v": 97
    },
    {
      "midi": 59,
      "hit": false,
      "t": 33456.044906250034,
      "d": 48.07593749999796,
      "v": 97
    },
    {
      "midi": 62,
      "hit": false,
      "t": 33907.95871875004,
      "d": 187.49615625001024,
      "v": 97
    },
    {
      "midi": 55,
      "hit": false,
      "t": 33912.76631250004,
      "d": 173.07337499999994,
      "v": 97
    },
    {
      "midi": 59,
      "hit": false,
      "t": 33912.76631250004,
      "d": 177.88096875000338,
      "v": 97
    },
    {
      "midi": 59,
      "hit": false,
      "t": 34374.29531250005,
      "d": 62.49871875000099,
      "v": 97
    },
    {
      "midi": 55,
      "hit": false,
      "t": 34379.10290625005,
      "d": 72.11390625000058,
      "v": 97
    },
    {
      "midi": 62,
      "hit": false,
      "t": 34379.10290625005,
      "d": 72.11390625000058,
      "v": 97
    },
    {
      "midi": 59,
      "hit": false,
      "t": 34840.631906250055,
      "d": 81.72909375001473,
      "v": 97
    },
    {
      "midi": 62,
      "hit": false,
      "t": 34845.43950000006,
      "d": 72.11390625000786,
      "v": 97
    },
    {
      "midi": 55,
      "hit": false,
      "t": 34850.24709375006,
      "d": 62.49871875000099,
      "v": 97
    },
    {
      "midi": 57,
      "hit": false,
      "t": 35076.20399999997,
      "d": 1490.3540625000023,
      "v": 102
    },
    {
      "midi": 53,
      "hit": false,
      "t": 35076.20399999997,
      "d": 1495.1616562500058,
      "v": 103
    },
    {
      "midi": 60,
      "hit": false,
      "t": 35076.20399999997,
      "d": 1495.1616562500058,
      "v": 112
    },
    {
      "midi": 64,
      "hit": false,
      "t": 35076.20399999997,
      "d": 1509.5844375000088,
      "v": 111
    },
    {
      "midi": 53,
      "hit": false,
      "t": 35297.35331250007,
      "d": 57.69112500000483,
      "v": 97
    },
    {
      "midi": 64,
      "hit": false,
      "t": 35297.35331250007,
      "d": 62.498718750008265,
      "v": 97
    },
    {
      "midi": 57,
      "hit": false,
      "t": 35302.16090625007,
      "d": 48.07593749999796,
      "v": 97
    },
    {
      "midi": 64,
      "hit": false,
      "t": 35754.074718750075,
      "d": 187.49615625001024,
      "v": 97
    },
    {
      "midi": 53,
      "hit": false,
      "t": 35758.88231250008,
      "d": 173.07337499999994,
      "v": 97
    },
    {
      "midi": 57,
      "hit": false,
      "t": 35758.88231250008,
      "d": 177.88096875000338,
      "v": 97
    },
    {
      "midi": 57,
      "hit": false,
      "t": 36220.41131250009,
      "d": 62.49871875000099,
      "v": 97
    },
    {
      "midi": 53,
      "hit": false,
      "t": 36225.21890625009,
      "d": 72.11390625000058,
      "v": 97
    },
    {
      "midi": 64,
      "hit": false,
      "t": 36225.21890625009,
      "d": 72.11390625000058,
      "v": 97
    },
    {
      "midi": 57,
      "hit": false,
      "t": 36672.32512499998,
      "d": 1990.343812500003,
      "v": 102
    },
    {
      "midi": 59,
      "hit": false,
      "t": 36672.32512499998,
      "d": 1990.343812500003,
      "v": 112
    },
    {
      "midi": 53,
      "hit": false,
      "t": 36677.132718749985,
      "d": 1956.6906562500008,
      "v": 103
    },
    {
      "midi": 62,
      "hit": false,
      "t": 36681.94031249999,
      "d": 1985.5362187499995,
      "v": 111
    },
    {
      "midi": 57,
      "hit": false,
      "t": 36686.74790625009,
      "d": 81.72909375001473,
      "v": 97
    },
    {
      "midi": 62,
      "hit": false,
      "t": 36691.5555000001,
      "d": 72.11390625000786,
      "v": 97
    },
    {
      "midi": 53,
      "hit": false,
      "t": 36696.3630937501,
      "d": 62.49871875000099,
      "v": 97
    },
    {
      "midi": 53,
      "hit": false,
      "t": 37143.46931250011,
      "d": 57.69112500000483,
      "v": 97
    },
    {
      "midi": 62,
      "hit": false,
      "t": 37143.46931250011,
      "d": 62.498718750008265,
      "v": 97
    },
    {
      "midi": 57,
      "hit": false,
      "t": 37148.27690625011,
      "d": 48.07593749999796,
      "v": 97
    },
    {
      "midi": 62,
      "hit": false,
      "t": 37600.19071875011,
      "d": 187.49615625001024,
      "v": 97
    },
    {
      "midi": 53,
      "hit": false,
      "t": 37604.998312500116,
      "d": 173.07337499999994,
      "v": 97
    },
    {
      "midi": 57,
      "hit": false,
      "t": 37604.998312500116,
      "d": 177.88096875000338,
      "v": 97
    },
    {
      "midi": 57,
      "hit": false,
      "t": 38066.527312500126,
      "d": 62.49871875000099,
      "v": 97
    },
    {
      "midi": 53,
      "hit": false,
      "t": 38071.33490625013,
      "d": 72.11390625000058,
      "v": 97
    },
    {
      "midi": 62,
      "hit": false,
      "t": 38071.33490625013,
      "d": 72.11390625000058,
      "v": 97
    },
    {
      "midi": 57,
      "hit": false,
      "t": 38532.86390625013,
      "d": 81.72909375001473,
      "v": 97
    },
    {
      "midi": 62,
      "hit": false,
      "t": 38537.671500000135,
      "d": 72.11390625000786,
      "v": 97
    },
    {
      "midi": 53,
      "hit": false,
      "t": 38542.47909375014,
      "d": 62.49871875000099,
      "v": 97
    },
    {
      "midi": 55,
      "hit": false,
      "t": 38763.62840624999,
      "d": 1730.7337499999994,
      "v": 102
    },
    {
      "midi": 59,
      "hit": false,
      "t": 38763.62840624999,
      "d": 1730.7337499999994,
      "v": 109
    },
    {
      "midi": 62,
      "hit": false,
      "t": 38763.62840624999,
      "d": 1754.771718750002,
      "v": 112
    },
    {
      "midi": 64,
      "hit": false,
      "t": 38763.62840624999,
      "d": 1778.8096875000047,
      "v": 112
    },
    {
      "midi": 55,
      "hit": false,
      "t": 38989.585312500145,
      "d": 57.69112500000483,
      "v": 97
    },
    {
      "midi": 62,
      "hit": false,
      "t": 38989.585312500145,
      "d": 62.498718750008265,
      "v": 97
    },
    {
      "midi": 59,
      "hit": false,
      "t": 38994.39290625015,
      "d": 48.07593749999796,
      "v": 97
    },
    {
      "midi": 62,
      "hit": false,
      "t": 39446.30671875015,
      "d": 187.49615625001024,
      "v": 97
    },
    {
      "midi": 55,
      "hit": false,
      "t": 39451.114312500154,
      "d": 173.07337499999994,
      "v": 97
    },
    {
      "midi": 59,
      "hit": false,
      "t": 39451.114312500154,
      "d": 177.88096875000338,
      "v": 97
    },
    {
      "midi": 59,
      "hit": false,
      "t": 39912.643312500164,
      "d": 62.49871875000099,
      "v": 97
    },
    {
      "midi": 55,
      "hit": false,
      "t": 39917.45090625017,
      "d": 72.11390625000058,
      "v": 97
    },
    {
      "midi": 62,
      "hit": false,
      "t": 39917.45090625017,
      "d": 72.11390625000058,
      "v": 97
    },
    {
      "midi": 59,
      "hit": false,
      "t": 40378.97990625017,
      "d": 81.72909375001473,
      "v": 97
    },
    {
      "midi": 62,
      "hit": false,
      "t": 40383.78750000017,
      "d": 72.11390625000786,
      "v": 97
    },
    {
      "midi": 55,
      "hit": false,
      "t": 40388.59509375018,
      "d": 62.49871875000099,
      "v": 97
    },
    {
      "midi": 60,
      "hit": false,
      "t": 40600.12921874999,
      "d": 1754.771718750002,
      "v": 112
    },
    {
      "midi": 57,
      "hit": false,
      "t": 40600.12921874999,
      "d": 1778.8096875000047,
      "v": 103
    },
    {
      "midi": 64,
      "hit": false,
      "t": 40609.74440624999,
      "d": 1778.8096875000047,
      "v": 112
    },
    {
      "midi": 55,
      "hit": false,
      "t": 40614.551999999996,
      "d": 1802.84765625,
      "v": 103
    },
    {
      "midi": 52,
      "hit": false,
      "t": 40835.70131250018,
      "d": 57.69112500000483,
      "v": 97
    },
    {
      "midi": 60,
      "hit": false,
      "t": 40835.70131250018,
      "d": 62.498718750008265,
      "v": 97
    },
    {
      "midi": 55,
      "hit": false,
      "t": 40840.50890625019,
      "d": 48.07593749999796,
      "v": 97
    },
    {
      "midi": 60,
      "hit": false,
      "t": 41292.42271875019,
      "d": 187.49615625001024,
      "v": 97
    },
    {
      "midi": 52,
      "hit": false,
      "t": 41297.23031250019,
      "d": 173.07337499999994,
      "v": 97
    },
    {
      "midi": 55,
      "hit": false,
      "t": 41297.23031250019,
      "d": 177.88096875000338,
      "v": 97
    },
    {
      "midi": 55,
      "hit": false,
      "t": 41758.7593125002,
      "d": 62.49871875000099,
      "v": 97
    },
    {
      "midi": 52,
      "hit": false,
      "t": 41763.566906250206,
      "d": 72.11390625000058,
      "v": 97
    },
    {
      "midi": 60,
      "hit": false,
      "t": 41763.566906250206,
      "d": 72.11390625000058,
      "v": 97
    },
    {
      "midi": 55,
      "hit": false,
      "t": 42225.09590625021,
      "d": 81.72909375001473,
      "v": 97
    },
    {
      "midi": 60,
      "hit": false,
      "t": 42229.90350000021,
      "d": 72.11390625000786,
      "v": 97
    },
    {
      "midi": 52,
      "hit": false,
      "t": 42234.711093750215,
      "d": 62.49871875000099,
      "v": 97
    },
    {
      "midi": 57,
      "hit": false,
      "t": 42460.668,
      "d": 1706.6957812499968,
      "v": 102
    },
    {
      "midi": 60,
      "hit": false,
      "t": 42460.668,
      "d": 1711.5033750000002,
      "v": 112
    },
    {
      "midi": 64,
      "hit": false,
      "t": 42460.668,
      "d": 1749.9641249999986,
      "v": 111
    },
    {
      "midi": 53,
      "hit": false,
      "t": 42460.668,
      "d": 1759.5793124999982,
      "v": 103
    },
    {
      "midi": 53,
      "hit": false,
      "t": 42681.81731250022,
      "d": 57.69112500000483,
      "v": 97
    },
    {
      "midi": 64,
      "hit": false,
      "t": 42681.81731250022,
      "d": 62.498718750008265,
      "v": 97
    },
    {
      "midi": 57,
      "hit": false,
      "t": 42686.624906250225,
      "d": 48.07593749999796,
      "v": 97
    },
    {
      "midi": 64,
      "hit": false,
      "t": 43138.53871875023,
      "d": 187.49615625001024,
      "v": 97
    },
    {
      "midi": 53,
      "hit": false,
      "t": 43143.34631250023,
      "d": 173.07337499999994,
      "v": 97
    },
    {
      "midi": 57,
      "hit": false,
      "t": 43143.34631250023,
      "d": 177.88096875000338,
      "v": 97
    },
    {
      "midi": 57,
      "hit": false,
      "t": 43604.87531250024,
      "d": 62.49871875000099,
      "v": 97
    },
    {
      "midi": 53,
      "hit": false,
      "t": 43609.682906250244,
      "d": 72.11390625000058,
      "v": 97
    },
    {
      "midi": 64,
      "hit": false,
      "t": 43609.682906250244,
      "d": 72.11390625000058,
      "v": 97
    },
    {
      "midi": 57,
      "hit": false,
      "t": 44071.211906250246,
      "d": 81.72909375001473,
      "v": 97
    },
    {
      "midi": 64,
      "hit": false,
      "t": 44076.01950000025,
      "d": 72.11390625000786,
      "v": 97
    },
    {
      "midi": 53,
      "hit": false,
      "t": 44080.82709375025,
      "d": 62.49871875000099,
      "v": 97
    },
    {
      "midi": 57,
      "hit": false,
      "t": 44287.55362499999,
      "d": 1754.7717187500093,
      "v": 102
    },
    {
      "midi": 59,
      "hit": false,
      "t": 44287.55362499999,
      "d": 1754.7717187500093,
      "v": 112
    },
    {
      "midi": 53,
      "hit": false,
      "t": 44292.36121875,
      "d": 1754.7717187500093,
      "v": 103
    },
    {
      "midi": 62,
      "hit": false,
      "t": 44297.1688125,
      "d": 1802.8476562500073,
      "v": 111
    },
    {
      "midi": 53,
      "hit": false,
      "t": 44527.93331250026,
      "d": 57.69112500000483,
      "v": 97
    },
    {
      "midi": 62,
      "hit": false,
      "t": 44527.93331250026,
      "d": 62.498718750008265,
      "v": 97
    },
    {
      "midi": 57,
      "hit": false,
      "t": 44532.74090625026,
      "d": 48.07593749999796,
      "v": 97
    },
    {
      "midi": 62,
      "hit": false,
      "t": 44984.654718750266,
      "d": 187.49615625001024,
      "v": 97
    },
    {
      "midi": 53,
      "hit": false,
      "t": 44989.46231250027,
      "d": 173.07337499999994,
      "v": 97
    },
    {
      "midi": 57,
      "hit": false,
      "t": 44989.46231250027,
      "d": 177.88096875000338,
      "v": 97
    },
    {
      "midi": 57,
      "hit": false,
      "t": 45450.99131250028,
      "d": 62.49871875000099,
      "v": 97
    },
    {
      "midi": 53,
      "hit": false,
      "t": 45455.79890625028,
      "d": 72.11390625000058,
      "v": 97
    },
    {
      "midi": 62,
      "hit": false,
      "t": 45455.79890625028,
      "d": 72.11390625000058,
      "v": 97
    },
    {
      "midi": 57,
      "hit": false,
      "t": 45917.327906250284,
      "d": 81.72909375001473,
      "v": 97
    },
    {
      "midi": 62,
      "hit": false,
      "t": 45922.13550000029,
      "d": 72.11390625000786,
      "v": 97
    },
    {
      "midi": 53,
      "hit": false,
      "t": 45926.94309375029,
      "d": 62.49871875000099,
      "v": 97
    },
    {
      "midi": 59,
      "hit": false,
      "t": 46148.092406250005,
      "d": 3475.890281250002,
      "v": 102
    },
    {
      "midi": 62,
      "hit": false,
      "t": 46148.092406250005,
      "d": 3485.5054687500015,
      "v": 109
    },
    {
      "midi": 55,
      "hit": false,
      "t": 46148.092406250005,
      "d": 3509.543437500004,
      "v": 103
    },
    {
      "midi": 64,
      "hit": false,
      "t": 46148.092406250005,
      "d": 3586.464937500001,
      "v": 112
    },
    {
      "midi": 55,
      "hit": false,
      "t": 46374.0493125003,
      "d": 57.69112500000483,
      "v": 97
    },
    {
      "midi": 62,
      "hit": false,
      "t": 46374.0493125003,
      "d": 62.498718750008265,
      "v": 97
    },
    {
      "midi": 59,
      "hit": false,
      "t": 46378.8569062503,
      "d": 48.07593749999796,
      "v": 97
    },
    {
      "midi": 62,
      "hit": false,
      "t": 46830.770718750304,
      "d": 187.49615625001024,
      "v": 97
    },
    {
      "midi": 55,
      "hit": false,
      "t": 46835.57831250031,
      "d": 173.07337499999994,
      "v": 97
    },
    {
      "midi": 59,
      "hit": false,
      "t": 46835.57831250031,
      "d": 177.88096875000338,
      "v": 97
    },
    {
      "midi": 59,
      "hit": false,
      "t": 47297.10731250032,
      "d": 62.49871875000099,
      "v": 97
    },
    {
      "midi": 55,
      "hit": false,
      "t": 47301.91490625032,
      "d": 72.11390625000058,
      "v": 97
    },
    {
      "midi": 62,
      "hit": false,
      "t": 47301.91490625032,
      "d": 72.11390625000058,
      "v": 97
    },
    {
      "midi": 59,
      "hit": false,
      "t": 47763.44390625032,
      "d": 81.72909375001473,
      "v": 97
    },
    {
      "midi": 62,
      "hit": false,
      "t": 47768.251500000326,
      "d": 72.11390625000786,
      "v": 97
    },
    {
      "midi": 55,
      "hit": false,
      "t": 47773.05909375033,
      "d": 62.49871875000099,
      "v": 97
    },
    {
      "midi": 55,
      "hit": false,
      "t": 48220.165312500336,
      "d": 57.69112500000483,
      "v": 97
    },
    {
      "midi": 60,
      "hit": false,
      "t": 48220.165312500336,
      "d": 62.498718750008265,
      "v": 97
    },
    {
      "midi": 57,
      "hit": false,
      "t": 48224.97290625034,
      "d": 48.07593749999796,
      "v": 97
    },
    {
      "midi": 60,
      "hit": false,
      "t": 48676.88671875034,
      "d": 187.49615625001024,
      "v": 97
    },
    {
      "midi": 55,
      "hit": false,
      "t": 48681.694312500345,
      "d": 173.07337499999994,
      "v": 97
    },
    {
      "midi": 57,
      "hit": false,
      "t": 48681.694312500345,
      "d": 177.88096875000338,
      "v": 97
    },
    {
      "midi": 57,
      "hit": false,
      "t": 49143.223312500355,
      "d": 62.49871875000099,
      "v": 97
    },
    {
      "midi": 55,
      "hit": false,
      "t": 49148.03090625036,
      "d": 72.11390625000058,
      "v": 97
    },
    {
      "midi": 60,
      "hit": false,
      "t": 49148.03090625036,
      "d": 72.11390625000058,
      "v": 97
    },
    {
      "midi": 57,
      "hit": false,
      "t": 49609.55990625036,
      "d": 81.72909375001473,
      "v": 97
    },
    {
      "midi": 60,
      "hit": false,
      "t": 49614.367500000364,
      "d": 72.11390625000786,
      "v": 97
    },
    {
      "midi": 55,
      "hit": false,
      "t": 49619.17509375037,
      "d": 62.49871875000099,
      "v": 97
    },
    {
      "midi": 57,
      "hit": false,
      "t": 49845.132000000005,
      "d": 1711.5033750000002,
      "v": 112
    },
    {
      "midi": 60,
      "hit": false,
      "t": 49845.132000000005,
      "d": 1749.9641249999986,
      "v": 111
    },
    {
      "midi": 53,
      "hit": false,
      "t": 49845.132000000005,
      "d": 1754.771718750002,
      "v": 102
    },
    {
      "midi": 53,
      "hit": false,
      "t": 50066.281312500374,
      "d": 57.69112500000483,
      "v": 97
    },
    {
      "midi": 60,
      "hit": false,
      "t": 50066.281312500374,
      "d": 62.498718750008265,
      "v": 97
    },
    {
      "midi": 57,
      "hit": false,
      "t": 50071.08890625038,
      "d": 48.07593749999796,
      "v": 97
    },
    {
      "midi": 60,
      "hit": false,
      "t": 50523.00271875038,
      "d": 187.49615625001024,
      "v": 97
    },
    {
      "midi": 53,
      "hit": false,
      "t": 50527.81031250038,
      "d": 173.07337499999994,
      "v": 97
    },
    {
      "midi": 57,
      "hit": false,
      "t": 50527.81031250038,
      "d": 177.88096875000338,
      "v": 97
    },
    {
      "midi": 57,
      "hit": false,
      "t": 50989.33931250039,
      "d": 62.49871875000099,
      "v": 97
    },
    {
      "midi": 53,
      "hit": false,
      "t": 50994.1469062504,
      "d": 72.11390625000058,
      "v": 97
    },
    {
      "midi": 60,
      "hit": false,
      "t": 50994.1469062504,
      "d": 72.11390625000058,
      "v": 97
    },
    {
      "midi": 57,
      "hit": false,
      "t": 51455.6759062504,
      "d": 81.72909375001473,
      "v": 97
    },
    {
      "midi": 60,
      "hit": false,
      "t": 51460.4835000004,
      "d": 72.11390625000786,
      "v": 97
    },
    {
      "midi": 53,
      "hit": false,
      "t": 51465.291093750406,
      "d": 62.49871875000099,
      "v": 97
    },
    {
      "midi": 60,
      "hit": false,
      "t": 51672.01762500001,
      "d": 649.025156249998,
      "v": 112
    },
    {
      "midi": 55,
      "hit": false,
      "t": 51672.01762500001,
      "d": 668.2555312499971,
      "v": 102
    },
    {
      "midi": 62,
      "hit": false,
      "t": 51681.63281250001,
      "d": 639.4099687499984,
      "v": 111
    },
    {
      "midi": 55,
      "hit": false,
      "t": 51912.39731250041,
      "d": 57.69112500000483,
      "v": 97
    },
    {
      "midi": 62,
      "hit": false,
      "t": 51912.39731250041,
      "d": 62.498718750008265,
      "v": 97
    },
    {
      "midi": 60,
      "hit": false,
      "t": 51917.204906250416,
      "d": 48.07593749999796,
      "v": 97
    },
    {
      "midi": 55,
      "hit": false,
      "t": 52364.31112500001,
      "d": 1052.8630312500027,
      "v": 102
    },
    {
      "midi": 59,
      "hit": false,
      "t": 52364.31112500001,
      "d": 1057.670625000006,
      "v": 112
    },
    {
      "midi": 62,
      "hit": false,
      "t": 52369.11871875042,
      "d": 187.49615625001024,
      "v": 97
    },
    {
      "midi": 62,
      "hit": false,
      "t": 52373.92631250001,
      "d": 1019.2098750000005,
      "v": 111
    },
    {
      "midi": 55,
      "hit": false,
      "t": 52373.92631250042,
      "d": 173.07337499999994,
      "v": 97
    },
    {
      "midi": 59,
      "hit": false,
      "t": 52373.92631250042,
      "d": 177.88096875000338,
      "v": 97
    },
    {
      "midi": 59,
      "hit": false,
      "t": 52835.45531250043,
      "d": 62.49871875000099,
      "v": 97
    },
    {
      "midi": 55,
      "hit": false,
      "t": 52840.262906250435,
      "d": 72.11390625000058,
      "v": 97
    },
    {
      "midi": 62,
      "hit": false,
      "t": 52840.262906250435,
      "d": 72.11390625000058,
      "v": 97
    },
    {
      "midi": 59,
      "hit": false,
      "t": 53301.79190625044,
      "d": 81.72909375001473,
      "v": 97
    },
    {
      "midi": 62,
      "hit": false,
      "t": 53306.59950000044,
      "d": 72.11390625000786,
      "v": 97
    },
    {
      "midi": 55,
      "hit": false,
      "t": 53311.407093750444,
      "d": 62.49871875000099,
      "v": 97
    },
    {
      "midi": 52,
      "hit": false,
      "t": 53532.55640625001,
      "d": 1730.7337499999994,
      "v": 102
    },
    {
      "midi": 55,
      "hit": false,
      "t": 53532.55640625001,
      "d": 1730.7337499999994,
      "v": 109
    },
    {
      "midi": 59,
      "hit": false,
      "t": 53532.55640625001,
      "d": 1754.771718750002,
      "v": 112
    },
    {
      "midi": 62,
      "hit": false,
      "t": 53532.55640625001,
      "d": 1778.8096875000047,
      "v": 112
    },
    {
      "midi": 55,
      "hit": false,
      "t": 53758.51331250045,
      "d": 57.69112500000483,
      "v": 97
    },
    {
      "midi": 62,
      "hit": false,
      "t": 53758.51331250045,
      "d": 62.498718750008265,
      "v": 97
    },
    {
      "midi": 59,
      "hit": false,
      "t": 53763.320906250454,
      "d": 48.07593749999796,
      "v": 97
    },
    {
      "midi": 62,
      "hit": false,
      "t": 54215.23471875046,
      "d": 187.49615625001024,
      "v": 97
    },
    {
      "midi": 55,
      "hit": false,
      "t": 54220.04231250046,
      "d": 173.07337499999994,
      "v": 97
    },
    {
      "midi": 59,
      "hit": false,
      "t": 54220.04231250046,
      "d": 177.88096875000338,
      "v": 97
    },
    {
      "midi": 59,
      "hit": false,
      "t": 54681.57131250047,
      "d": 62.49871875000099,
      "v": 97
    },
    {
      "midi": 55,
      "hit": false,
      "t": 54686.37890625047,
      "d": 72.11390625000058,
      "v": 97
    },
    {
      "midi": 62,
      "hit": false,
      "t": 54686.37890625047,
      "d": 72.11390625000058,
      "v": 97
    },
    {
      "midi": 59,
      "hit": false,
      "t": 55147.907906250475,
      "d": 81.72909375001473,
      "v": 97
    },
    {
      "midi": 62,
      "hit": false,
      "t": 55152.71550000048,
      "d": 72.11390625000786,
      "v": 97
    },
    {
      "midi": 55,
      "hit": false,
      "t": 55157.52309375048,
      "d": 62.49871875000099,
      "v": 97
    },
    {
      "midi": 60,
      "hit": false,
      "t": 55369.057218750015,
      "d": 1754.7717187500093,
      "v": 112
    },
    {
      "midi": 57,
      "hit": false,
      "t": 55369.057218750015,
      "d": 1778.809687500012,
      "v": 103
    },
    {
      "midi": 55,
      "hit": false,
      "t": 55373.86481250002,
      "d": 1730.7337500000067,
      "v": 102
    },
    {
      "midi": 64,
      "hit": false,
      "t": 55378.67240625002,
      "d": 1778.8096875000047,
      "v": 112
    },
    {
      "midi": 55,
      "hit": false,
      "t": 55604.62931250049,
      "d": 57.69112500000483,
      "v": 97
    },
    {
      "midi": 60,
      "hit": false,
      "t": 55604.62931250049,
      "d": 62.498718750008265,
      "v": 97
    },
    {
      "midi": 57,
      "hit": false,
      "t": 55609.43690625049,
      "d": 48.07593749999796,
      "v": 97
    },
    {
      "midi": 60,
      "hit": false,
      "t": 56061.350718750495,
      "d": 187.49615625001024,
      "v": 97
    },
    {
      "midi": 55,
      "hit": false,
      "t": 56066.1583125005,
      "d": 173.07337499999994,
      "v": 97
    },
    {
      "midi": 57,
      "hit": false,
      "t": 56066.1583125005,
      "d": 177.88096875000338,
      "v": 97
    },
    {
      "midi": 57,
      "hit": false,
      "t": 56527.68731250051,
      "d": 62.49871875000099,
      "v": 97
    },
    {
      "midi": 55,
      "hit": false,
      "t": 56532.49490625051,
      "d": 72.11390625000058,
      "v": 97
    },
    {
      "midi": 60,
      "hit": false,
      "t": 56532.49490625051,
      "d": 72.11390625000058,
      "v": 97
    },
    {
      "midi": 57,
      "hit": false,
      "t": 56994.02390625051,
      "d": 81.72909375001473,
      "v": 97
    },
    {
      "midi": 60,
      "hit": false,
      "t": 56998.83150000052,
      "d": 72.11390625000786,
      "v": 97
    },
    {
      "midi": 55,
      "hit": false,
      "t": 57003.63909375052,
      "d": 62.49871875000099,
      "v": 97
    },
    {
      "midi": 53,
      "hit": false,
      "t": 57229.59600000003,
      "d": 1706.6957812499968,
      "v": 102
    },
    {
      "midi": 57,
      "hit": false,
      "t": 57229.59600000003,
      "d": 1711.5033750000002,
      "v": 112
    },
    {
      "midi": 60,
      "hit": false,
      "t": 57229.59600000003,
      "d": 1749.9641249999986,
      "v": 111
    },
    {
      "midi": 53,
      "hit": false,
      "t": 57450.74531250053,
      "d": 57.69112500000483,
      "v": 97
    },
    {
      "midi": 60,
      "hit": false,
      "t": 57450.74531250053,
      "d": 62.498718750008265,
      "v": 97
    },
    {
      "midi": 57,
      "hit": false,
      "t": 57455.55290625053,
      "d": 48.07593749999796,
      "v": 97
    },
    {
      "midi": 60,
      "hit": false,
      "t": 57907.46671875053,
      "d": 187.49615625001024,
      "v": 97
    },
    {
      "midi": 53,
      "hit": false,
      "t": 57912.274312500536,
      "d": 173.07337499999994,
      "v": 97
    },
    {
      "midi": 57,
      "hit": false,
      "t": 57912.274312500536,
      "d": 177.88096875000338,
      "v": 97
    },
    {
      "midi": 57,
      "hit": false,
      "t": 58373.803312500546,
      "d": 62.49871875000099,
      "v": 97
    },
    {
      "midi": 53,
      "hit": false,
      "t": 58378.61090625055,
      "d": 72.11390625000058,
      "v": 97
    },
    {
      "midi": 60,
      "hit": false,
      "t": 58378.61090625055,
      "d": 72.11390625000058,
      "v": 97
    },
    {
      "midi": 57,
      "hit": false,
      "t": 58840.13990625055,
      "d": 81.72909375001473,
      "v": 97
    },
    {
      "midi": 60,
      "hit": false,
      "t": 58844.947500000555,
      "d": 72.11390625000786,
      "v": 97
    },
    {
      "midi": 53,
      "hit": false,
      "t": 58849.75509375056,
      "d": 62.49871875000099,
      "v": 97
    },
    {
      "midi": 57,
      "hit": false,
      "t": 59056.48162500002,
      "d": 1754.7717187500093,
      "v": 102
    },
    {
      "midi": 60,
      "hit": false,
      "t": 59056.48162500002,
      "d": 1754.7717187500093,
      "v": 112
    },
    {
      "midi": 53,
      "hit": false,
      "t": 59061.289218750026,
      "d": 1754.7717187500093,
      "v": 103
    },
    {
      "midi": 62,
      "hit": false,
      "t": 59066.09681250003,
      "d": 1802.8476562500073,
      "v": 111
    },
    {
      "midi": 53,
      "hit": false,
      "t": 59296.861312500565,
      "d": 57.69112500000483,
      "v": 97
    },
    {
      "midi": 62,
      "hit": false,
      "t": 59296.861312500565,
      "d": 62.498718750008265,
      "v": 97
    },
    {
      "midi": 57,
      "hit": false,
      "t": 59301.66890625057,
      "d": 48.07593749999796,
      "v": 97
    },
    {
      "midi": 62,
      "hit": false,
      "t": 59753.58271875057,
      "d": 187.49615625001024,
      "v": 97
    },
    {
      "midi": 53,
      "hit": false,
      "t": 59758.390312500575,
      "d": 173.07337499999994,
      "v": 97
    },
    {
      "midi": 57,
      "hit": false,
      "t": 59758.390312500575,
      "d": 177.88096875000338,
      "v": 97
    },
    {
      "midi": 57,
      "hit": false,
      "t": 60219.919312500584,
      "d": 62.49871875000099,
      "v": 97
    },
    {
      "midi": 53,
      "hit": false,
      "t": 60224.72690625059,
      "d": 72.11390625000058,
      "v": 97
    },
    {
      "midi": 62,
      "hit": false,
      "t": 60224.72690625059,
      "d": 72.11390625000058,
      "v": 97
    },
    {
      "midi": 57,
      "hit": false,
      "t": 60686.25590625059,
      "d": 81.72909375001473,
      "v": 97
    },
    {
      "midi": 62,
      "hit": false,
      "t": 60691.06350000059,
      "d": 72.11390625000786,
      "v": 97
    },
    {
      "midi": 53,
      "hit": false,
      "t": 60695.8710937506,
      "d": 62.49871875000099,
      "v": 97
    },
    {
      "midi": 55,
      "hit": false,
      "t": 60912.21281250004,
      "d": 1562.467968750003,
      "v": 102
    },
    {
      "midi": 53,
      "hit": false,
      "t": 60917.02040625004,
      "d": 1538.4300000000003,
      "v": 102
    },
    {
      "midi": 57,
      "hit": false,
      "t": 60917.02040625004,
      "d": 1538.4300000000003,
      "v": 109
    },
    {
      "midi": 60,
      "hit": false,
      "t": 60917.02040625004,
      "d": 1538.4300000000003,
      "v": 112
    },
    {
      "midi": 50,
      "hit": false,
      "t": 60917.02040625004,
      "d": 1562.467968750003,
      "v": 103
    },
    {
      "midi": 55,
      "hit": false,
      "t": 61142.9773125006,
      "d": 57.69112500000483,
      "v": 97
    },
    {
      "midi": 53,
      "hit": false,
      "t": 61142.9773125006,
      "d": 62.498718750008265,
      "v": 97
    },
    {
      "midi": 60,
      "hit": false,
      "t": 61147.78490625061,
      "d": 48.07593749999796,
      "v": 97
    },
    {
      "midi": 53,
      "hit": false,
      "t": 61599.69871875061,
      "d": 187.49615625001024,
      "v": 97
    },
    {
      "midi": 55,
      "hit": false,
      "t": 61604.50631250061,
      "d": 173.07337499999994,
      "v": 97
    },
    {
      "midi": 60,
      "hit": false,
      "t": 61604.50631250061,
      "d": 177.88096875000338,
      "v": 97
    },
    {
      "midi": 60,
      "hit": false,
      "t": 62066.03531250062,
      "d": 62.49871875000099,
      "v": 97
    },
    {
      "midi": 53,
      "hit": false,
      "t": 62070.842906250626,
      "d": 72.11390625000058,
      "v": 97
    },
    {
      "midi": 55,
      "hit": false,
      "t": 62070.842906250626,
      "d": 72.11390625000058,
      "v": 97
    },
    {
      "midi": 55,
      "hit": false,
      "t": 62517.94912500004,
      "d": 1874.9615625000079,
      "v": 102
    },
    {
      "midi": 59,
      "hit": false,
      "t": 62517.94912500004,
      "d": 1898.9995312500105,
      "v": 112
    },
    {
      "midi": 53,
      "hit": false,
      "t": 62522.756718750046,
      "d": 1898.9995312500105,
      "v": 103
    },
    {
      "midi": 62,
      "hit": false,
      "t": 62527.56431250005,
      "d": 1898.9995312500105,
      "v": 111
    },
    {
      "midi": 60,
      "hit": false,
      "t": 62532.37190625063,
      "d": 81.72909375001473,
      "v": 97
    },
    {
      "midi": 53,
      "hit": false,
      "t": 62537.17950000063,
      "d": 72.11390625000786,
      "v": 97
    },
    {
      "midi": 55,
      "hit": false,
      "t": 62541.987093750635,
      "d": 62.49871875000099,
      "v": 97
    },
    {
      "midi": 53,
      "hit": false,
      "t": 62989.09331250064,
      "d": 57.69112500000483,
      "v": 97
    },
    {
      "midi": 59,
      "hit": false,
      "t": 62989.09331250064,
      "d": 62.498718750008265,
      "v": 97
    },
    {
      "midi": 55,
      "hit": false,
      "t": 62993.900906250645,
      "d": 48.07593749999796,
      "v": 97
    },
    {
      "midi": 91,
      "hit": false,
      "t": 63224.66540625065,
      "d": 81.72909375000017,
      "v": 100
    },
    {
      "midi": 93,
      "hit": false,
      "t": 63316.00968750065,
      "d": 100.95946874999936,
      "v": 98
    },
    {
      "midi": 91,
      "hit": false,
      "t": 63416.96915625065,
      "d": 216.34171875000902,
      "v": 83
    },
    {
      "midi": 59,
      "hit": false,
      "t": 63445.81471875065,
      "d": 187.49615625001024,
      "v": 97
    },
    {
      "midi": 53,
      "hit": false,
      "t": 63450.62231250065,
      "d": 173.07337499999994,
      "v": 97
    },
    {
      "midi": 55,
      "hit": false,
      "t": 63450.62231250065,
      "d": 177.88096875000338,
      "v": 97
    },
    {
      "midi": 55,
      "hit": false,
      "t": 63912.15131250066,
      "d": 62.49871875000099,
      "v": 97
    },
    {
      "midi": 53,
      "hit": false,
      "t": 63916.958906250664,
      "d": 72.11390625000058,
      "v": 97
    },
    {
      "midi": 59,
      "hit": false,
      "t": 63916.958906250664,
      "d": 72.11390625000058,
      "v": 97
    },
    {
      "midi": 55,
      "hit": false,
      "t": 64378.487906250666,
      "d": 81.72909375001473,
      "v": 97
    },
    {
      "midi": 59,
      "hit": false,
      "t": 64383.29550000067,
      "d": 72.11390625000786,
      "v": 97
    },
    {
      "midi": 53,
      "hit": false,
      "t": 64388.10309375067,
      "d": 62.49871875000099,
      "v": 97
    },
    {
      "midi": 52,
      "hit": false,
      "t": 64614.06000000006,
      "d": 615.372000000003,
      "v": 103
    },
    {
      "midi": 55,
      "hit": false,
      "t": 64614.06000000006,
      "d": 629.794781250006,
      "v": 112
    },
    {
      "midi": 62,
      "hit": false,
      "t": 64618.86759375007,
      "d": 620.1795937499992,
      "v": 112
    },
    {
      "midi": 55,
      "hit": false,
      "t": 65306.35350000007,
      "d": 2860.518281249999,
      "v": 112
    },
    {
      "midi": 60,
      "hit": false,
      "t": 65306.35350000007,
      "d": 2870.1334687500057,
      "v": 112
    },
    {
      "midi": 52,
      "hit": false,
      "t": 65315.96868750007,
      "d": 2817.249937499997,
      "v": 102
    },
    {
      "midi": 52,
      "hit": false,
      "t": 68301.48440625008,
      "d": 610.5644062500069,
      "v": 102
    },
    {
      "midi": 55,
      "hit": false,
      "t": 68301.48440625008,
      "d": 610.5644062500069,
      "v": 112
    },
    {
      "midi": 59,
      "hit": false,
      "t": 68301.48440625008,
      "d": 610.5644062500069,
      "v": 112
    },
    {
      "midi": 52,
      "hit": false,
      "t": 68988.97031250008,
      "d": 860.5592812499963,
      "v": 103
    },
    {
      "midi": 55,
      "hit": false,
      "t": 68988.97031250008,
      "d": 879.7896562499955,
      "v": 112
    },
    {
      "midi": 60,
      "hit": false,
      "t": 68993.77790625008,
      "d": 889.4048437500023,
      "v": 112
    },
    {
      "midi": 62,
      "hit": false,
      "t": 69912.02831250009,
      "d": 2057.650125,
      "v": 112
    },
    {
      "midi": 55,
      "hit": false,
      "t": 69916.83590625008,
      "d": 2004.7665937499987,
      "v": 112
    },
    {
      "midi": 52,
      "hit": false,
      "t": 69916.83590625008,
      "d": 2023.996968749998,
      "v": 103
    },
    {
      "midi": 52,
      "hit": false,
      "t": 71998.52400000009,
      "d": 3485.505468749994,
      "v": 103
    },
    {
      "midi": 55,
      "hit": false,
      "t": 71998.52400000009,
      "d": 3485.505468749994,
      "v": 102
    },
    {
      "midi": 59,
      "hit": false,
      "t": 71998.52400000009,
      "d": 3485.505468749994,
      "v": 112
    },
    {
      "midi": 62,
      "hit": false,
      "t": 71998.52400000009,
      "d": 3485.505468749994,
      "v": 111
    },
    {
      "midi": 52,
      "hit": false,
      "t": 75690.75600000008,
      "d": 3485.505468749994,
      "v": 103
    },
    {
      "midi": 55,
      "hit": false,
      "t": 75690.75600000008,
      "d": 3485.505468749994,
      "v": 102
    },
    {
      "midi": 59,
      "hit": false,
      "t": 75690.75600000008,
      "d": 3485.505468749994,
      "v": 112
    },
    {
      "midi": 62,
      "hit": false,
      "t": 75690.75600000008,
      "d": 3485.505468749994,
      "v": 111
    },
    {
      "midi": 53,
      "hit": false,
      "t": 79382.98800000007,
      "d": 3485.505468749994,
      "v": 103
    },
    {
      "midi": 57,
      "hit": false,
      "t": 79382.98800000007,
      "d": 3485.505468749994,
      "v": 112
    },
    {
      "midi": 60,
      "hit": false,
      "t": 79387.79559375007,
      "d": 3485.505468749994,
      "v": 112
    },
    {
      "midi": 57,
      "hit": false,
      "t": 83070.41240625006,
      "d": 3485.505468749994,
      "v": 112
    },
    {
      "midi": 60,
      "hit": false,
      "t": 83070.41240625006,
      "d": 3485.505468749994,
      "v": 112
    },
    {
      "midi": 52,
      "hit": false,
      "t": 83070.41240625006,
      "d": 3557.6193749999948,
      "v": 102
    },
    {
      "midi": 55,
      "hit": false,
      "t": 83075.22000000006,
      "d": 3485.505468749994,
      "v": 102
    },
    {
      "midi": 55,
      "hit": false,
      "t": 86767.45200000006,
      "d": 1740.3489374999917,
      "v": 113
    },
    {
      "midi": 60,
      "hit": false,
      "t": 86767.45200000006,
      "d": 1740.3489374999917,
      "v": 112
    },
    {
      "midi": 50,
      "hit": false,
      "t": 86772.25959375006,
      "d": 1769.1944999999978,
      "v": 104
    },
    {
      "midi": 74,
      "hit": false,
      "t": 88599.14521875068,
      "d": 81.7290937499929,
      "v": 110
    },
    {
      "midi": 50,
      "hit": false,
      "t": 88613.56800000006,
      "d": 1774.002093749994,
      "v": 101
    },
    {
      "midi": 55,
      "hit": false,
      "t": 88618.37559375005,
      "d": 1735.5413437499956,
      "v": 112
    },
    {
      "midi": 59,
      "hit": false,
      "t": 88618.37559375005,
      "d": 1769.1944999999978,
      "v": 112
    },
    {
      "midi": 76,
      "hit": false,
      "t": 88709.71987500068,
      "d": 81.7290937499929,
      "v": 107
    },
    {
      "midi": 79,
      "hit": false,
      "t": 88815.48693750067,
      "d": 76.92149999999674,
      "v": 93
    },
    {
      "midi": 93,
      "hit": false,
      "t": 89065.48181250067,
      "d": 81.7290937499929,
      "v": 110
    },
    {
      "midi": 91,
      "hit": false,
      "t": 89171.24887500066,
      "d": 81.7290937499929,
      "v": 107
    },
    {
      "midi": 88,
      "hit": false,
      "t": 89281.82353125066,
      "d": 86.53668750000361,
      "v": 100
    },
    {
      "midi": 57,
      "hit": false,
      "t": 90459.68400000005,
      "d": 1490.3540625000023,
      "v": 102
    },
    {
      "midi": 53,
      "hit": false,
      "t": 90459.68400000005,
      "d": 1495.1616562499985,
      "v": 103
    },
    {
      "midi": 60,
      "hit": false,
      "t": 90459.68400000005,
      "d": 1495.1616562499985,
      "v": 112
    },
    {
      "midi": 64,
      "hit": false,
      "t": 90459.68400000005,
      "d": 1509.5844375000015,
      "v": 111
    },
    {
      "midi": 57,
      "hit": false,
      "t": 92055.80512500006,
      "d": 1990.3438124999957,
      "v": 102
    },
    {
      "midi": 59,
      "hit": false,
      "t": 92055.80512500006,
      "d": 1990.3438124999957,
      "v": 112
    },
    {
      "midi": 53,
      "hit": false,
      "t": 92060.61271875005,
      "d": 1956.6906562499935,
      "v": 103
    },
    {
      "midi": 62,
      "hit": false,
      "t": 92065.42031250005,
      "d": 1985.5362187499995,
      "v": 111
    },
    {
      "midi": 62,
      "hit": false,
      "t": 94147.10840625004,
      "d": 1423.047749999998,
      "v": 112
    },
    {
      "midi": 59,
      "hit": false,
      "t": 94147.10840625004,
      "d": 1456.7009062500001,
      "v": 109
    },
    {
      "midi": 52,
      "hit": false,
      "t": 94147.10840625004,
      "d": 1471.1236875000031,
      "v": 103
    },
    {
      "midi": 55,
      "hit": false,
      "t": 94147.10840625004,
      "d": 1499.9692500000092,
      "v": 102
    },
    {
      "midi": 57,
      "hit": false,
      "t": 95752.84471875006,
      "d": 2004.7665937499987,
      "v": 112
    },
    {
      "midi": 55,
      "hit": false,
      "t": 95752.84471875006,
      "d": 2048.0349374999932,
      "v": 103
    },
    {
      "midi": 60,
      "hit": false,
      "t": 95762.45990625006,
      "d": 2043.2273437499825,
      "v": 112
    },
    {
      "midi": 52,
      "hit": false,
      "t": 95767.26750000006,
      "d": 2033.6121562499902,
      "v": 103
    },
    {
      "midi": 57,
      "hit": false,
      "t": 97844.14800000004,
      "d": 1490.3540625000023,
      "v": 102
    },
    {
      "midi": 53,
      "hit": false,
      "t": 97844.14800000004,
      "d": 1495.1616562499985,
      "v": 103
    },
    {
      "midi": 60,
      "hit": false,
      "t": 97844.14800000004,
      "d": 1495.1616562499985,
      "v": 112
    },
    {
      "midi": 64,
      "hit": false,
      "t": 97844.14800000004,
      "d": 1509.5844375000015,
      "v": 111
    },
    {
      "midi": 57,
      "hit": false,
      "t": 99440.26912500005,
      "d": 1990.3438124999957,
      "v": 102
    },
    {
      "midi": 59,
      "hit": false,
      "t": 99440.26912500005,
      "d": 1990.3438124999957,
      "v": 112
    },
    {
      "midi": 53,
      "hit": false,
      "t": 99445.07671875005,
      "d": 1956.6906562499935,
      "v": 103
    },
    {
      "midi": 62,
      "hit": false,
      "t": 99449.88431250004,
      "d": 1985.5362187499995,
      "v": 111
    },
    {
      "midi": 62,
      "hit": false,
      "t": 101531.57240625004,
      "d": 1423.047749999998,
      "v": 112
    },
    {
      "midi": 59,
      "hit": false,
      "t": 101531.57240625004,
      "d": 1456.7009062500001,
      "v": 109
    },
    {
      "midi": 52,
      "hit": false,
      "t": 101531.57240625004,
      "d": 1471.1236875000031,
      "v": 103
    },
    {
      "midi": 55,
      "hit": false,
      "t": 101531.57240625004,
      "d": 1499.9692500000092,
      "v": 102
    },
    {
      "midi": 57,
      "hit": false,
      "t": 103137.30871875005,
      "d": 2004.7665937499987,
      "v": 112
    },
    {
      "midi": 55,
      "hit": false,
      "t": 103137.30871875005,
      "d": 2048.0349374999932,
      "v": 103
    },
    {
      "midi": 60,
      "hit": false,
      "t": 103146.92390625006,
      "d": 2043.2273437499825,
      "v": 112
    },
    {
      "midi": 52,
      "hit": false,
      "t": 103151.73150000005,
      "d": 2033.6121562499902,
      "v": 103
    },
    {
      "midi": 57,
      "hit": false,
      "t": 105228.61200000004,
      "d": 1490.3540625000023,
      "v": 102
    },
    {
      "midi": 53,
      "hit": false,
      "t": 105228.61200000004,
      "d": 1495.1616562499985,
      "v": 103
    },
    {
      "midi": 60,
      "hit": false,
      "t": 105228.61200000004,
      "d": 1495.1616562499985,
      "v": 112
    },
    {
      "midi": 64,
      "hit": false,
      "t": 105228.61200000004,
      "d": 1509.5844375000015,
      "v": 111
    },
    {
      "midi": 53,
      "hit": false,
      "t": 105449.76131250066,
      "d": 57.691124999997555,
      "v": 97
    },
    {
      "midi": 64,
      "hit": false,
      "t": 105449.76131250066,
      "d": 62.498718749993714,
      "v": 97
    },
    {
      "midi": 57,
      "hit": false,
      "t": 105454.56890625066,
      "d": 48.07593750000524,
      "v": 97
    },
    {
      "midi": 64,
      "hit": false,
      "t": 105906.48271875066,
      "d": 187.4961562499957,
      "v": 97
    },
    {
      "midi": 53,
      "hit": false,
      "t": 105911.29031250066,
      "d": 173.07337500000722,
      "v": 97
    },
    {
      "midi": 57,
      "hit": false,
      "t": 105911.29031250066,
      "d": 177.88096875000338,
      "v": 97
    },
    {
      "midi": 57,
      "hit": false,
      "t": 106372.81931250065,
      "d": 62.498718749993714,
      "v": 97
    },
    {
      "midi": 53,
      "hit": false,
      "t": 106377.62690625065,
      "d": 72.11390625000058,
      "v": 97
    },
    {
      "midi": 64,
      "hit": false,
      "t": 106377.62690625065,
      "d": 72.11390625000058,
      "v": 97
    },
    {
      "midi": 57,
      "hit": false,
      "t": 106824.73312500004,
      "d": 1990.3438124999957,
      "v": 102
    },
    {
      "midi": 59,
      "hit": false,
      "t": 106824.73312500004,
      "d": 1990.3438124999957,
      "v": 112
    },
    {
      "midi": 53,
      "hit": false,
      "t": 106829.54071875004,
      "d": 1956.6906562499935,
      "v": 103
    },
    {
      "midi": 62,
      "hit": false,
      "t": 106834.34831250003,
      "d": 1985.5362187499995,
      "v": 111
    },
    {
      "midi": 57,
      "hit": false,
      "t": 106839.15590625064,
      "d": 81.72909374997835,
      "v": 97
    },
    {
      "midi": 62,
      "hit": false,
      "t": 106843.96350000064,
      "d": 72.11390624998603,
      "v": 97
    },
    {
      "midi": 53,
      "hit": false,
      "t": 106848.77109375063,
      "d": 62.498718749993714,
      "v": 97
    },
    {
      "midi": 53,
      "hit": false,
      "t": 107295.87731250063,
      "d": 57.691124999997555,
      "v": 97
    },
    {
      "midi": 62,
      "hit": false,
      "t": 107295.87731250063,
      "d": 62.498718749993714,
      "v": 97
    },
    {
      "midi": 57,
      "hit": false,
      "t": 107300.68490625062,
      "d": 48.07593750000524,
      "v": 97
    },
    {
      "midi": 62,
      "hit": false,
      "t": 107752.59871875063,
      "d": 187.4961562499957,
      "v": 97
    },
    {
      "midi": 53,
      "hit": false,
      "t": 107757.40631250062,
      "d": 173.07337500000722,
      "v": 97
    },
    {
      "midi": 57,
      "hit": false,
      "t": 107757.40631250062,
      "d": 177.88096875000338,
      "v": 97
    },
    {
      "midi": 57,
      "hit": false,
      "t": 108218.93531250062,
      "d": 62.498718749993714,
      "v": 97
    },
    {
      "midi": 53,
      "hit": false,
      "t": 108223.74290625061,
      "d": 72.11390625000058,
      "v": 97
    },
    {
      "midi": 62,
      "hit": false,
      "t": 108223.74290625061,
      "d": 72.11390625000058,
      "v": 97
    },
    {
      "midi": 57,
      "hit": false,
      "t": 108685.27190625061,
      "d": 81.72909374997835,
      "v": 97
    },
    {
      "midi": 62,
      "hit": false,
      "t": 108690.0795000006,
      "d": 72.11390624998603,
      "v": 97
    },
    {
      "midi": 53,
      "hit": false,
      "t": 108694.8870937506,
      "d": 62.498718749993714,
      "v": 97
    },
    {
      "midi": 62,
      "hit": false,
      "t": 108916.03640625003,
      "d": 1423.047749999998,
      "v": 112
    },
    {
      "midi": 59,
      "hit": false,
      "t": 108916.03640625003,
      "d": 1456.7009062500001,
      "v": 109
    },
    {
      "midi": 52,
      "hit": false,
      "t": 108916.03640625003,
      "d": 1471.1236875000031,
      "v": 103
    },
    {
      "midi": 55,
      "hit": false,
      "t": 108916.03640625003,
      "d": 1499.9692500000092,
      "v": 102
    },
    {
      "midi": 55,
      "hit": false,
      "t": 109141.99331250059,
      "d": 57.691124999997555,
      "v": 97
    },
    {
      "midi": 62,
      "hit": false,
      "t": 109141.99331250059,
      "d": 62.498718749993714,
      "v": 97
    },
    {
      "midi": 59,
      "hit": false,
      "t": 109146.80090625059,
      "d": 48.07593750000524,
      "v": 97
    },
    {
      "midi": 62,
      "hit": false,
      "t": 109598.71471875059,
      "d": 187.4961562499957,
      "v": 97
    },
    {
      "midi": 55,
      "hit": false,
      "t": 109603.52231250059,
      "d": 173.07337500000722,
      "v": 97
    },
    {
      "midi": 59,
      "hit": false,
      "t": 109603.52231250059,
      "d": 177.88096875000338,
      "v": 97
    },
    {
      "midi": 59,
      "hit": false,
      "t": 110065.05131250058,
      "d": 62.498718749993714,
      "v": 97
    },
    {
      "midi": 55,
      "hit": false,
      "t": 110069.85890625058,
      "d": 72.11390625000058,
      "v": 97
    },
    {
      "midi": 62,
      "hit": false,
      "t": 110069.85890625058,
      "d": 72.11390625000058,
      "v": 97
    },
    {
      "midi": 57,
      "hit": false,
      "t": 110521.77271875004,
      "d": 2004.7665937499987,
      "v": 112
    },
    {
      "midi": 55,
      "hit": false,
      "t": 110521.77271875004,
      "d": 2048.0349374999932,
      "v": 103
    },
    {
      "midi": 60,
      "hit": false,
      "t": 110531.38790625005,
      "d": 2043.2273437499825,
      "v": 112
    },
    {
      "midi": 59,
      "hit": false,
      "t": 110531.38790625057,
      "d": 81.72909374997835,
      "v": 97
    },
    {
      "midi": 52,
      "hit": false,
      "t": 110536.19550000005,
      "d": 2033.6121562499902,
      "v": 103
    },
    {
      "midi": 62,
      "hit": false,
      "t": 110536.19550000057,
      "d": 72.11390624998603,
      "v": 97
    },
    {
      "midi": 55,
      "hit": false,
      "t": 110541.00309375057,
      "d": 62.498718749993714,
      "v": 97
    },
    {
      "midi": 52,
      "hit": false,
      "t": 110988.10931250056,
      "d": 57.691124999997555,
      "v": 97
    },
    {
      "midi": 60,
      "hit": false,
      "t": 110988.10931250056,
      "d": 62.498718749993714,
      "v": 97
    },
    {
      "midi": 55,
      "hit": false,
      "t": 110992.91690625055,
      "d": 48.07593750000524,
      "v": 97
    },
    {
      "midi": 60,
      "hit": false,
      "t": 111444.83071875056,
      "d": 187.4961562499957,
      "v": 97
    },
    {
      "midi": 52,
      "hit": false,
      "t": 111449.63831250055,
      "d": 173.07337500000722,
      "v": 97
    },
    {
      "midi": 55,
      "hit": false,
      "t": 111449.63831250055,
      "d": 177.88096875000338,
      "v": 97
    },
    {
      "midi": 55,
      "hit": false,
      "t": 111911.16731250055,
      "d": 62.498718749993714,
      "v": 97
    },
    {
      "midi": 52,
      "hit": false,
      "t": 111915.97490625054,
      "d": 72.11390625000058,
      "v": 97
    },
    {
      "midi": 60,
      "hit": false,
      "t": 111915.97490625054,
      "d": 72.11390625000058,
      "v": 97
    },
    {
      "midi": 55,
      "hit": false,
      "t": 112377.50390625054,
      "d": 81.72909374997835,
      "v": 97
    },
    {
      "midi": 60,
      "hit": false,
      "t": 112382.31150000053,
      "d": 72.11390624998603,
      "v": 97
    },
    {
      "midi": 52,
      "hit": false,
      "t": 112387.11909375053,
      "d": 62.498718749993714,
      "v": 97
    },
    {
      "midi": 57,
      "hit": false,
      "t": 112613.07600000003,
      "d": 1490.3540625000023,
      "v": 102
    },
    {
      "midi": 53,
      "hit": false,
      "t": 112613.07600000003,
      "d": 1495.1616562499985,
      "v": 103
    },
    {
      "midi": 60,
      "hit": false,
      "t": 112613.07600000003,
      "d": 1495.1616562499985,
      "v": 112
    },
    {
      "midi": 64,
      "hit": false,
      "t": 112613.07600000003,
      "d": 1509.5844375000015,
      "v": 111
    },
    {
      "midi": 53,
      "hit": false,
      "t": 112834.22531250052,
      "d": 57.691124999997555,
      "v": 97
    },
    {
      "midi": 64,
      "hit": false,
      "t": 112834.22531250052,
      "d": 62.498718749993714,
      "v": 97
    },
    {
      "midi": 57,
      "hit": false,
      "t": 112839.03290625052,
      "d": 48.07593750000524,
      "v": 97
    },
    {
      "midi": 64,
      "hit": false,
      "t": 113290.94671875052,
      "d": 187.4961562499957,
      "v": 97
    },
    {
      "midi": 53,
      "hit": false,
      "t": 113295.75431250052,
      "d": 173.07337500000722,
      "v": 97
    },
    {
      "midi": 57,
      "hit": false,
      "t": 113295.75431250052,
      "d": 177.88096875000338,
      "v": 97
    },
    {
      "midi": 57,
      "hit": false,
      "t": 113757.28331250051,
      "d": 62.498718749993714,
      "v": 97
    },
    {
      "midi": 53,
      "hit": false,
      "t": 113762.09090625051,
      "d": 72.11390625000058,
      "v": 97
    },
    {
      "midi": 64,
      "hit": false,
      "t": 113762.09090625051,
      "d": 72.11390625000058,
      "v": 97
    },
    {
      "midi": 57,
      "hit": false,
      "t": 114209.19712500004,
      "d": 1990.3438124999957,
      "v": 102
    },
    {
      "midi": 59,
      "hit": false,
      "t": 114209.19712500004,
      "d": 1990.3438124999957,
      "v": 112
    },
    {
      "midi": 53,
      "hit": false,
      "t": 114214.00471875003,
      "d": 1956.6906562499935,
      "v": 103
    },
    {
      "midi": 62,
      "hit": false,
      "t": 114218.81231250003,
      "d": 1985.5362187499995,
      "v": 111
    },
    {
      "midi": 57,
      "hit": false,
      "t": 114223.6199062505,
      "d": 81.72909374997835,
      "v": 97
    },
    {
      "midi": 64,
      "hit": false,
      "t": 114228.4275000005,
      "d": 72.11390624998603,
      "v": 97
    },
    {
      "midi": 53,
      "hit": false,
      "t": 114233.2350937505,
      "d": 62.498718749993714,
      "v": 97
    },
    {
      "midi": 53,
      "hit": false,
      "t": 114680.34131250049,
      "d": 57.691124999997555,
      "v": 97
    },
    {
      "midi": 62,
      "hit": false,
      "t": 114680.34131250049,
      "d": 62.498718749993714,
      "v": 97
    },
    {
      "midi": 57,
      "hit": false,
      "t": 114685.14890625048,
      "d": 48.07593750000524,
      "v": 97
    },
    {
      "midi": 62,
      "hit": false,
      "t": 115137.06271875049,
      "d": 187.4961562499957,
      "v": 97
    },
    {
      "midi": 53,
      "hit": false,
      "t": 115141.87031250048,
      "d": 173.07337500000722,
      "v": 97
    },
    {
      "midi": 57,
      "hit": false,
      "t": 115141.87031250048,
      "d": 177.88096875000338,
      "v": 97
    },
    {
      "midi": 57,
      "hit": false,
      "t": 115603.39931250048,
      "d": 62.498718749993714,
      "v": 97
    },
    {
      "midi": 53,
      "hit": false,
      "t": 115608.20690625047,
      "d": 72.11390625000058,
      "v": 97
    },
    {
      "midi": 62,
      "hit": false,
      "t": 115608.20690625047,
      "d": 72.11390625000058,
      "v": 97
    },
    {
      "midi": 57,
      "hit": false,
      "t": 116069.73590625047,
      "d": 81.72909374997835,
      "v": 97
    },
    {
      "midi": 62,
      "hit": false,
      "t": 116074.54350000047,
      "d": 72.11390624998603,
      "v": 97
    },
    {
      "midi": 53,
      "hit": false,
      "t": 116079.35109375046,
      "d": 62.498718749993714,
      "v": 97
    },
    {
      "midi": 62,
      "hit": false,
      "t": 116300.50040625002,
      "d": 1423.047749999998,
      "v": 112
    },
    {
      "midi": 59,
      "hit": false,
      "t": 116300.50040625002,
      "d": 1456.7009062500001,
      "v": 109
    },
    {
      "midi": 52,
      "hit": false,
      "t": 116300.50040625002,
      "d": 1471.1236875000031,
      "v": 103
    },
    {
      "midi": 55,
      "hit": false,
      "t": 116300.50040625002,
      "d": 1499.9692500000092,
      "v": 102
    },
    {
      "midi": 55,
      "hit": false,
      "t": 116526.45731250045,
      "d": 57.691124999997555,
      "v": 97
    },
    {
      "midi": 62,
      "hit": false,
      "t": 116526.45731250045,
      "d": 62.498718749993714,
      "v": 97
    },
    {
      "midi": 59,
      "hit": false,
      "t": 116531.26490625045,
      "d": 48.07593750000524,
      "v": 97
    },
    {
      "midi": 62,
      "hit": false,
      "t": 116983.17871875045,
      "d": 187.4961562499957,
      "v": 97
    },
    {
      "midi": 55,
      "hit": false,
      "t": 116987.98631250045,
      "d": 173.07337500000722,
      "v": 97
    },
    {
      "midi": 59,
      "hit": false,
      "t": 116987.98631250045,
      "d": 177.88096875000338,
      "v": 97
    },
    {
      "midi": 59,
      "hit": false,
      "t": 117449.51531250044,
      "d": 62.498718749993714,
      "v": 97
    },
    {
      "midi": 55,
      "hit": false,
      "t": 117454.32290625044,
      "d": 72.11390625000058,
      "v": 97
    },
    {
      "midi": 62,
      "hit": false,
      "t": 117454.32290625044,
      "d": 72.11390625000058,
      "v": 97
    },
    {
      "midi": 59,
      "hit": false,
      "t": 117915.85190625043,
      "d": 81.72909374997835,
      "v": 97
    },
    {
      "midi": 57,
      "hit": false,
      "t": 117920.65950000004,
      "d": 826.9061249999941,
      "v": 112
    },
    {
      "midi": 55,
      "hit": false,
      "t": 117920.65950000004,
      "d": 831.7137187499902,
      "v": 103
    },
    {
      "midi": 62,
      "hit": false,
      "t": 117920.65950000043,
      "d": 72.11390624998603,
      "v": 97
    },
    {
      "midi": 52,
      "hit": false,
      "t": 117925.46709375003,
      "d": 812.4833437500056,
      "v": 103
    },
    {
      "midi": 60,
      "hit": false,
      "t": 117925.46709375003,
      "d": 817.2909375000017,
      "v": 112
    },
    {
      "midi": 55,
      "hit": false,
      "t": 117925.46709375043,
      "d": 62.498718749993714,
      "v": 97
    },
    {
      "midi": 55,
      "hit": false,
      "t": 118372.57331250042,
      "d": 57.691124999997555,
      "v": 97
    },
    {
      "midi": 60,
      "hit": false,
      "t": 118372.57331250042,
      "d": 62.498718749993714,
      "v": 97
    },
    {
      "midi": 57,
      "hit": false,
      "t": 118377.38090625042,
      "d": 48.07593750000524,
      "v": 97
    },
    {
      "midi": 60,
      "hit": false,
      "t": 118829.29471875042,
      "d": 187.4961562499957,
      "v": 97
    },
    {
      "midi": 55,
      "hit": false,
      "t": 118834.10231250041,
      "d": 173.07337500000722,
      "v": 97
    },
    {
      "midi": 57,
      "hit": false,
      "t": 118834.10231250041,
      "d": 177.88096875000338,
      "v": 97
    },
    {
      "midi": 52,
      "hit": false,
      "t": 118838.90990625003,
      "d": 1120.1693437499925,
      "v": 103
    },
    {
      "midi": 55,
      "hit": false,
      "t": 118838.90990625003,
      "d": 1124.9769374999887,
      "v": 103
    },
    {
      "midi": 57,
      "hit": false,
      "t": 118843.71750000003,
      "d": 1115.3617499999964,
      "v": 112
    },
    {
      "midi": 60,
      "hit": false,
      "t": 118843.71750000003,
      "d": 1124.9769374999887,
      "v": 112
    },
    {
      "midi": 57,
      "hit": false,
      "t": 119295.63131250041,
      "d": 62.498718749993714,
      "v": 97
    },
    {
      "midi": 55,
      "hit": false,
      "t": 119300.4389062504,
      "d": 72.11390625000058,
      "v": 97
    },
    {
      "midi": 60,
      "hit": false,
      "t": 119300.4389062504,
      "d": 72.11390625000058,
      "v": 97
    },
    {
      "midi": 57,
      "hit": false,
      "t": 119761.9679062504,
      "d": 81.72909374997835,
      "v": 97
    },
    {
      "midi": 60,
      "hit": false,
      "t": 119766.7755000004,
      "d": 72.11390624998603,
      "v": 97
    },
    {
      "midi": 55,
      "hit": false,
      "t": 119771.58309375039,
      "d": 62.498718749993714,
      "v": 97
    },
    {
      "midi": 57,
      "hit": false,
      "t": 119997.54000000002,
      "d": 1711.5033750000002,
      "v": 112
    },
    {
      "midi": 60,
      "hit": false,
      "t": 119997.54000000002,
      "d": 1749.9641249999986,
      "v": 111
    },
    {
      "midi": 53,
      "hit": false,
      "t": 119997.54000000002,
      "d": 1754.7717187499948,
      "v": 102
    },
    {
      "midi": 53,
      "hit": false,
      "t": 120218.68931250038,
      "d": 57.691124999997555,
      "v": 97
    },
    {
      "midi": 60,
      "hit": false,
      "t": 120218.68931250038,
      "d": 62.498718749993714,
      "v": 97
    },
    {
      "midi": 57,
      "hit": false,
      "t": 120223.49690625038,
      "d": 48.07593750000524,
      "v": 97
    },
    {
      "midi": 60,
      "hit": false,
      "t": 120675.41071875038,
      "d": 187.4961562499957,
      "v": 97
    },
    {
      "midi": 53,
      "hit": false,
      "t": 120680.21831250038,
      "d": 173.07337500000722,
      "v": 97
    },
    {
      "midi": 57,
      "hit": false,
      "t": 120680.21831250038,
      "d": 177.88096875000338,
      "v": 97
    },
    {
      "midi": 57,
      "hit": false,
      "t": 121141.74731250037,
      "d": 62.498718749993714,
      "v": 97
    },
    {
      "midi": 53,
      "hit": false,
      "t": 121146.55490625037,
      "d": 72.11390625000058,
      "v": 97
    },
    {
      "midi": 60,
      "hit": false,
      "t": 121146.55490625037,
      "d": 72.11390625000058,
      "v": 97
    },
    {
      "midi": 57,
      "hit": false,
      "t": 121608.08390625037,
      "d": 81.72909374997835,
      "v": 97
    },
    {
      "midi": 60,
      "hit": false,
      "t": 121612.89150000036,
      "d": 72.11390624998603,
      "v": 97
    },
    {
      "midi": 53,
      "hit": false,
      "t": 121617.69909375036,
      "d": 62.498718749993714,
      "v": 97
    },
    {
      "midi": 60,
      "hit": false,
      "t": 121824.42562500002,
      "d": 649.0251562500052,
      "v": 112
    },
    {
      "midi": 55,
      "hit": false,
      "t": 121824.42562500002,
      "d": 668.2555312500044,
      "v": 102
    },
    {
      "midi": 62,
      "hit": false,
      "t": 121834.04081250002,
      "d": 639.4099687499984,
      "v": 111
    },
    {
      "midi": 55,
      "hit": false,
      "t": 122064.80531250035,
      "d": 57.691124999997555,
      "v": 97
    },
    {
      "midi": 62,
      "hit": false,
      "t": 122064.80531250035,
      "d": 62.498718749993714,
      "v": 97
    },
    {
      "midi": 60,
      "hit": false,
      "t": 122069.61290625035,
      "d": 48.07593750000524,
      "v": 97
    },
    {
      "midi": 55,
      "hit": false,
      "t": 122516.71912500002,
      "d": 1052.8630312500027,
      "v": 102
    },
    {
      "midi": 59,
      "hit": false,
      "t": 122516.71912500002,
      "d": 1057.6706249999988,
      "v": 112
    },
    {
      "midi": 62,
      "hit": false,
      "t": 122521.52671875035,
      "d": 187.4961562499957,
      "v": 97
    },
    {
      "midi": 62,
      "hit": false,
      "t": 122526.33431250002,
      "d": 1019.2098750000005,
      "v": 111
    },
    {
      "midi": 55,
      "hit": false,
      "t": 122526.33431250034,
      "d": 173.07337500000722,
      "v": 97
    },
    {
      "midi": 59,
      "hit": false,
      "t": 122526.33431250034,
      "d": 177.88096875000338,
      "v": 97
    },
    {
      "midi": 59,
      "hit": false,
      "t": 122987.86331250034,
      "d": 62.498718749993714,
      "v": 97
    },
    {
      "midi": 55,
      "hit": false,
      "t": 122992.67090625034,
      "d": 72.11390625000058,
      "v": 97
    },
    {
      "midi": 62,
      "hit": false,
      "t": 122992.67090625034,
      "d": 72.11390625000058,
      "v": 97
    },
    {
      "midi": 59,
      "hit": false,
      "t": 123454.19990625033,
      "d": 81.72909374997835,
      "v": 97
    },
    {
      "midi": 62,
      "hit": false,
      "t": 123459.00750000033,
      "d": 72.11390624998603,
      "v": 97
    },
    {
      "midi": 55,
      "hit": false,
      "t": 123463.81509375032,
      "d": 62.498718749993714,
      "v": 97
    },
    {
      "midi": 52,
      "hit": false,
      "t": 123684.96440625002,
      "d": 1730.7337499999994,
      "v": 102
    },
    {
      "midi": 55,
      "hit": false,
      "t": 123684.96440625002,
      "d": 1730.7337499999994,
      "v": 109
    },
    {
      "midi": 59,
      "hit": false,
      "t": 123684.96440625002,
      "d": 1754.7717187499948,
      "v": 112
    },
    {
      "midi": 62,
      "hit": false,
      "t": 123684.96440625002,
      "d": 1778.80968749999,
      "v": 112
    },
    {
      "midi": 55,
      "hit": false,
      "t": 123910.92131250032,
      "d": 57.691124999997555,
      "v": 97
    },
    {
      "midi": 62,
      "hit": false,
      "t": 123910.92131250032,
      "d": 62.498718749993714,
      "v": 97
    },
    {
      "midi": 59,
      "hit": false,
      "t": 123915.72890625031,
      "d": 48.07593750000524,
      "v": 97
    },
    {
      "midi": 62,
      "hit": false,
      "t": 124367.64271875031,
      "d": 187.4961562499957,
      "v": 97
    },
    {
      "midi": 55,
      "hit": false,
      "t": 124372.45031250031,
      "d": 173.07337500000722,
      "v": 97
    },
    {
      "midi": 59,
      "hit": false,
      "t": 124372.45031250031,
      "d": 177.88096875000338,
      "v": 97
    },
    {
      "midi": 59,
      "hit": false,
      "t": 124833.9793125003,
      "d": 62.498718749993714,
      "v": 97
    },
    {
      "midi": 55,
      "hit": false,
      "t": 124838.7869062503,
      "d": 72.11390625000058,
      "v": 97
    },
    {
      "midi": 62,
      "hit": false,
      "t": 124838.7869062503,
      "d": 72.11390625000058,
      "v": 97
    },
    {
      "midi": 59,
      "hit": false,
      "t": 125300.3159062503,
      "d": 81.72909374997835,
      "v": 97
    },
    {
      "midi": 62,
      "hit": false,
      "t": 125305.12350000029,
      "d": 72.11390624998603,
      "v": 97
    },
    {
      "midi": 55,
      "hit": false,
      "t": 125309.93109375029,
      "d": 62.498718749993714,
      "v": 97
    },
    {
      "midi": 60,
      "hit": false,
      "t": 125521.46521875,
      "d": 1754.7717187499948,
      "v": 112
    },
    {
      "midi": 57,
      "hit": false,
      "t": 125521.46521875,
      "d": 1778.80968749999,
      "v": 103
    },
    {
      "midi": 55,
      "hit": false,
      "t": 125526.2728125,
      "d": 1730.7337499999994,
      "v": 102
    },
    {
      "midi": 64,
      "hit": false,
      "t": 125531.08040625,
      "d": 1778.8096875000047,
      "v": 112
    },
    {
      "midi": 55,
      "hit": false,
      "t": 125757.03731250028,
      "d": 57.691124999997555,
      "v": 97
    },
    {
      "midi": 60,
      "hit": false,
      "t": 125757.03731250028,
      "d": 62.498718749993714,
      "v": 97
    },
    {
      "midi": 57,
      "hit": false,
      "t": 125761.84490625028,
      "d": 48.07593750000524,
      "v": 97
    },
    {
      "midi": 60,
      "hit": false,
      "t": 126213.75871875028,
      "d": 187.4961562499957,
      "v": 97
    },
    {
      "midi": 55,
      "hit": false,
      "t": 126218.56631250028,
      "d": 173.07337500000722,
      "v": 97
    },
    {
      "midi": 57,
      "hit": false,
      "t": 126218.56631250028,
      "d": 177.88096875000338,
      "v": 97
    },
    {
      "midi": 57,
      "hit": false,
      "t": 126680.09531250027,
      "d": 62.498718749993714,
      "v": 97
    },
    {
      "midi": 55,
      "hit": false,
      "t": 126684.90290625027,
      "d": 72.11390625000058,
      "v": 97
    },
    {
      "midi": 60,
      "hit": false,
      "t": 126684.90290625027,
      "d": 72.11390625000058,
      "v": 97
    },
    {
      "midi": 57,
      "hit": false,
      "t": 127146.43190625026,
      "d": 81.72909374997835,
      "v": 97
    },
    {
      "midi": 60,
      "hit": false,
      "t": 127151.23950000026,
      "d": 72.11390624998603,
      "v": 97
    },
    {
      "midi": 55,
      "hit": false,
      "t": 127156.04709375025,
      "d": 62.498718749993714,
      "v": 97
    },
    {
      "midi": 53,
      "hit": false,
      "t": 127382.004,
      "d": 1706.695781250004,
      "v": 102
    },
    {
      "midi": 57,
      "hit": false,
      "t": 127382.004,
      "d": 1711.5033750000002,
      "v": 112
    },
    {
      "midi": 60,
      "hit": false,
      "t": 127382.004,
      "d": 1749.9641249999986,
      "v": 111
    },
    {
      "midi": 53,
      "hit": false,
      "t": 127603.15331250025,
      "d": 57.691124999997555,
      "v": 97
    },
    {
      "midi": 60,
      "hit": false,
      "t": 127603.15331250025,
      "d": 62.498718749993714,
      "v": 97
    },
    {
      "midi": 57,
      "hit": false,
      "t": 127607.96090625024,
      "d": 48.07593750000524,
      "v": 97
    },
    {
      "midi": 60,
      "hit": false,
      "t": 128059.87471875024,
      "d": 187.4961562499957,
      "v": 97
    },
    {
      "midi": 53,
      "hit": false,
      "t": 128064.68231250024,
      "d": 173.07337500000722,
      "v": 97
    },
    {
      "midi": 57,
      "hit": false,
      "t": 128064.68231250024,
      "d": 177.88096875000338,
      "v": 97
    },
    {
      "midi": 57,
      "hit": false,
      "t": 128526.21131250024,
      "d": 62.498718749993714,
      "v": 97
    },
    {
      "midi": 53,
      "hit": false,
      "t": 128531.01890625023,
      "d": 72.11390625000058,
      "v": 97
    },
    {
      "midi": 60,
      "hit": false,
      "t": 128531.01890625023,
      "d": 72.11390625000058,
      "v": 97
    },
    {
      "midi": 57,
      "hit": false,
      "t": 128992.54790625023,
      "d": 81.72909374997835,
      "v": 97
    },
    {
      "midi": 60,
      "hit": false,
      "t": 128997.35550000022,
      "d": 72.11390624998603,
      "v": 97
    },
    {
      "midi": 53,
      "hit": false,
      "t": 129002.16309375022,
      "d": 62.498718749993714,
      "v": 97
    },
    {
      "midi": 57,
      "hit": false,
      "t": 129208.889625,
      "d": 1754.7717187499948,
      "v": 102
    },
    {
      "midi": 60,
      "hit": false,
      "t": 129208.889625,
      "d": 1754.7717187499948,
      "v": 112
    },
    {
      "midi": 53,
      "hit": false,
      "t": 129213.69721874999,
      "d": 1754.7717187499948,
      "v": 103
    },
    {
      "midi": 62,
      "hit": false,
      "t": 129218.50481249999,
      "d": 1802.84765625,
      "v": 111
    },
    {
      "midi": 53,
      "hit": false,
      "t": 129449.26931250021,
      "d": 57.691124999997555,
      "v": 97
    },
    {
      "midi": 62,
      "hit": false,
      "t": 129449.26931250021,
      "d": 62.498718749993714,
      "v": 97
    },
    {
      "midi": 57,
      "hit": false,
      "t": 129454.07690625021,
      "d": 48.07593750000524,
      "v": 97
    },
    {
      "midi": 62,
      "hit": false,
      "t": 129905.99071875021,
      "d": 187.4961562499957,
      "v": 97
    },
    {
      "midi": 53,
      "hit": false,
      "t": 129910.7983125002,
      "d": 173.07337500000722,
      "v": 97
    },
    {
      "midi": 57,
      "hit": false,
      "t": 129910.7983125002,
      "d": 177.88096875000338,
      "v": 97
    },
    {
      "midi": 57,
      "hit": false,
      "t": 130372.3273125002,
      "d": 62.498718749993714,
      "v": 97
    },
    {
      "midi": 53,
      "hit": false,
      "t": 130377.1349062502,
      "d": 72.11390625000058,
      "v": 97
    },
    {
      "midi": 62,
      "hit": false,
      "t": 130377.1349062502,
      "d": 72.11390625000058,
      "v": 97
    },
    {
      "midi": 57,
      "hit": false,
      "t": 130838.66390625019,
      "d": 81.72909374997835,
      "v": 97
    },
    {
      "midi": 62,
      "hit": false,
      "t": 130843.47150000019,
      "d": 72.11390624998603,
      "v": 97
    },
    {
      "midi": 53,
      "hit": false,
      "t": 130848.27909375018,
      "d": 62.498718749993714,
      "v": 97
    },
    {
      "midi": 55,
      "hit": false,
      "t": 131064.62081249998,
      "d": 1562.4679687500175,
      "v": 102
    },
    {
      "midi": 53,
      "hit": false,
      "t": 131069.42840624998,
      "d": 1538.4300000000076,
      "v": 102
    },
    {
      "midi": 57,
      "hit": false,
      "t": 131069.42840624998,
      "d": 1538.4300000000076,
      "v": 109
    },
    {
      "midi": 60,
      "hit": false,
      "t": 131069.42840624998,
      "d": 1538.4300000000076,
      "v": 112
    },
    {
      "midi": 50,
      "hit": false,
      "t": 131069.42840624998,
      "d": 1562.467968750032,
      "v": 103
    },
    {
      "midi": 55,
      "hit": false,
      "t": 131295.38531250018,
      "d": 57.69112500001211,
      "v": 97
    },
    {
      "midi": 53,
      "hit": false,
      "t": 131295.38531250018,
      "d": 62.49871875002282,
      "v": 97
    },
    {
      "midi": 60,
      "hit": false,
      "t": 131300.1929062502,
      "d": 48.07593749999069,
      "v": 97
    },
    {
      "midi": 53,
      "hit": false,
      "t": 131752.1067187502,
      "d": 187.49615625003935,
      "v": 97
    },
    {
      "midi": 55,
      "hit": false,
      "t": 131756.91431250022,
      "d": 173.07337500000722,
      "v": 97
    },
    {
      "midi": 60,
      "hit": false,
      "t": 131756.91431250022,
      "d": 177.88096875001793,
      "v": 97
    },
    {
      "midi": 60,
      "hit": false,
      "t": 132218.44331250025,
      "d": 62.49871875002282,
      "v": 97
    },
    {
      "midi": 53,
      "hit": false,
      "t": 132223.25090625026,
      "d": 72.11390625001513,
      "v": 97
    },
    {
      "midi": 55,
      "hit": false,
      "t": 132223.25090625026,
      "d": 72.11390625001513,
      "v": 97
    },
    {
      "midi": 55,
      "hit": false,
      "t": 132670.357125,
      "d": 1874.9615625000151,
      "v": 102
    },
    {
      "midi": 59,
      "hit": false,
      "t": 132670.357125,
      "d": 1898.9995312500105,
      "v": 112
    },
    {
      "midi": 53,
      "hit": false,
      "t": 132675.16471875002,
      "d": 1898.9995312500105,
      "v": 103
    },
    {
      "midi": 62,
      "hit": false,
      "t": 132679.97231250003,
      "d": 1898.9995312500105,
      "v": 111
    },
    {
      "midi": 60,
      "hit": false,
      "t": 132684.77990625027,
      "d": 81.72909375003655,
      "v": 97
    },
    {
      "midi": 53,
      "hit": false,
      "t": 132689.58750000029,
      "d": 72.11390625001513,
      "v": 97
    },
    {
      "midi": 55,
      "hit": false,
      "t": 132694.3950937503,
      "d": 62.498718749993714,
      "v": 97
    },
    {
      "midi": 53,
      "hit": false,
      "t": 133141.5013125003,
      "d": 57.69112500001211,
      "v": 97
    },
    {
      "midi": 59,
      "hit": false,
      "t": 133141.5013125003,
      "d": 62.49871875002282,
      "v": 97
    },
    {
      "midi": 55,
      "hit": false,
      "t": 133146.3089062503,
      "d": 48.07593749999069,
      "v": 97
    },
    {
      "midi": 91,
      "hit": false,
      "t": 133377.07340625033,
      "d": 81.72909375000745,
      "v": 100
    },
    {
      "midi": 93,
      "hit": false,
      "t": 133468.41768750033,
      "d": 100.95946874999208,
      "v": 98
    },
    {
      "midi": 91,
      "hit": false,
      "t": 133569.37715625032,
      "d": 216.3417187500454,
      "v": 83
    },
    {
      "midi": 59,
      "hit": false,
      "t": 133598.22271875033,
      "d": 187.49615625003935,
      "v": 97
    },
    {
      "midi": 53,
      "hit": false,
      "t": 133603.03031250034,
      "d": 173.07337500000722,
      "v": 97
    },
    {
      "midi": 55,
      "hit": false,
      "t": 133603.03031250034,
      "d": 177.88096875001793,
      "v": 97
    },
    {
      "midi": 55,
      "hit": false,
      "t": 134064.55931250038,
      "d": 62.49871875002282,
      "v": 97
    },
    {
      "midi": 53,
      "hit": false,
      "t": 134069.3669062504,
      "d": 72.11390625001513,
      "v": 97
    },
    {
      "midi": 59,
      "hit": false,
      "t": 134069.3669062504,
      "d": 72.11390625001513,
      "v": 97
    },
    {
      "midi": 55,
      "hit": false,
      "t": 134530.8959062504,
      "d": 81.72909375003655,
      "v": 97
    },
    {
      "midi": 59,
      "hit": false,
      "t": 134535.7035000004,
      "d": 72.11390625001513,
      "v": 97
    },
    {
      "midi": 53,
      "hit": false,
      "t": 134540.51109375042,
      "d": 62.498718749993714,
      "v": 97
    },
    {
      "midi": 52,
      "hit": false,
      "t": 134766.46800000005,
      "d": 615.372000000003,
      "v": 103
    },
    {
      "midi": 55,
      "hit": false,
      "t": 134766.46800000005,
      "d": 629.794781250006,
      "v": 112
    },
    {
      "midi": 62,
      "hit": false,
      "t": 134771.27559375006,
      "d": 620.1795937499846,
      "v": 112
    },
    {
      "midi": 55,
      "hit": false,
      "t": 135458.76150000005,
      "d": 2860.5182812499697,
      "v": 112
    },
    {
      "midi": 60,
      "hit": false,
      "t": 135458.76150000005,
      "d": 2870.133468749962,
      "v": 112
    },
    {
      "midi": 52,
      "hit": false,
      "t": 135468.37668750004,
      "d": 2817.2499374999898,
      "v": 102
    },
    {
      "midi": 52,
      "hit": false,
      "t": 138453.89240625,
      "d": 610.5644062499923,
      "v": 102
    },
    {
      "midi": 55,
      "hit": false,
      "t": 138453.89240625,
      "d": 610.5644062499923,
      "v": 112
    },
    {
      "midi": 59,
      "hit": false,
      "t": 138453.89240625,
      "d": 610.5644062499923,
      "v": 112
    },
    {
      "midi": 52,
      "hit": false,
      "t": 139141.3783125,
      "d": 860.5592812500254,
      "v": 103
    },
    {
      "midi": 55,
      "hit": false,
      "t": 139141.3783125,
      "d": 879.7896562500391,
      "v": 112
    },
    {
      "midi": 60,
      "hit": false,
      "t": 139146.18590625,
      "d": 889.4048437500314,
      "v": 112
    },
    {
      "midi": 62,
      "hit": false,
      "t": 140064.43631250004,
      "d": 2057.6501250000438,
      "v": 112
    },
    {
      "midi": 55,
      "hit": false,
      "t": 140069.24390625005,
      "d": 2004.7665937500133,
      "v": 112
    },
    {
      "midi": 52,
      "hit": false,
      "t": 140069.24390625005,
      "d": 2023.996968750027,
      "v": 103
    },
    {
      "midi": 52,
      "hit": false,
      "t": 142150.9320000001,
      "d": 3485.505468749994,
      "v": 103
    },
    {
      "midi": 55,
      "hit": false,
      "t": 142150.9320000001,
      "d": 3485.505468749994,
      "v": 102
    },
    {
      "midi": 59,
      "hit": false,
      "t": 142150.9320000001,
      "d": 3485.505468749994,
      "v": 112
    },
    {
      "midi": 62,
      "hit": false,
      "t": 142150.9320000001,
      "d": 3485.505468749994,
      "v": 111
    },
    {
      "midi": 52,
      "hit": false,
      "t": 145843.16400000008,
      "d": 3485.505468749994,
      "v": 103
    },
    {
      "midi": 55,
      "hit": false,
      "t": 145843.16400000008,
      "d": 3485.505468749994,
      "v": 102
    },
    {
      "midi": 59,
      "hit": false,
      "t": 145843.16400000008,
      "d": 3485.505468749994,
      "v": 112
    },
    {
      "midi": 62,
      "hit": false,
      "t": 145843.16400000008,
      "d": 3485.505468749994,
      "v": 111
    },
    {
      "midi": 53,
      "hit": false,
      "t": 149535.39600000007,
      "d": 3485.5054687500233,
      "v": 103
    },
    {
      "midi": 57,
      "hit": false,
      "t": 149535.39600000007,
      "d": 3485.5054687500233,
      "v": 112
    },
    {
      "midi": 60,
      "hit": false,
      "t": 149540.20359375008,
      "d": 3485.5054687500233,
      "v": 112
    },
    {
      "midi": 57,
      "hit": false,
      "t": 153222.8204062501,
      "d": 3485.5054687500233,
      "v": 112
    },
    {
      "midi": 60,
      "hit": false,
      "t": 153222.8204062501,
      "d": 3485.5054687500233,
      "v": 112
    },
    {
      "midi": 52,
      "hit": false,
      "t": 153222.8204062501,
      "d": 3557.6193750000384,
      "v": 102
    },
    {
      "midi": 55,
      "hit": false,
      "t": 153227.6280000001,
      "d": 3485.5054687500233,
      "v": 102
    },
    {
      "midi": 55,
      "hit": false,
      "t": 156919.86000000013,
      "d": 1740.3489375000063,
      "v": 113
    },
    {
      "midi": 60,
      "hit": false,
      "t": 156919.86000000013,
      "d": 1740.3489375000063,
      "v": 112
    },
    {
      "midi": 50,
      "hit": false,
      "t": 156924.66759375014,
      "d": 1769.1944999999832,
      "v": 104
    },
    {
      "midi": 50,
      "hit": false,
      "t": 158765.9760000001,
      "d": 1774.002093749994,
      "v": 101
    },
    {
      "midi": 55,
      "hit": false,
      "t": 158770.78359375012,
      "d": 1735.5413437499956,
      "v": 112
    },
    {
      "midi": 59,
      "hit": false,
      "t": 158770.78359375012,
      "d": 1769.1944999999832,
      "v": 112
    },
    {
      "midi": 57,
      "hit": false,
      "t": 160612.0920000001,
      "d": 1490.3540625000023,
      "v": 102
    },
    {
      "midi": 53,
      "hit": false,
      "t": 160612.0920000001,
      "d": 1495.161656250013,
      "v": 103
    },
    {
      "midi": 60,
      "hit": false,
      "t": 160612.0920000001,
      "d": 1495.161656250013,
      "v": 112
    },
    {
      "midi": 64,
      "hit": false,
      "t": 160612.0920000001,
      "d": 1509.584437500016,
      "v": 111
    },
    {
      "midi": 57,
      "hit": false,
      "t": 162208.2131250001,
      "d": 1990.3438125000393,
      "v": 102
    },
    {
      "midi": 59,
      "hit": false,
      "t": 162208.2131250001,
      "d": 1990.3438125000393,
      "v": 112
    },
    {
      "midi": 53,
      "hit": false,
      "t": 162213.0207187501,
      "d": 1956.6906562500226,
      "v": 103
    },
    {
      "midi": 62,
      "hit": false,
      "t": 162217.82831250012,
      "d": 1985.5362187500286,
      "v": 111
    },
    {
      "midi": 62,
      "hit": false,
      "t": 164299.51640625016,
      "d": 1423.047749999998,
      "v": 112
    },
    {
      "midi": 59,
      "hit": false,
      "t": 164299.51640625016,
      "d": 1456.7009062499856,
      "v": 109
    },
    {
      "midi": 52,
      "hit": false,
      "t": 164299.51640625016,
      "d": 1471.1236874999886,
      "v": 103
    },
    {
      "midi": 55,
      "hit": false,
      "t": 164299.51640625016,
      "d": 1499.9692499999946,
      "v": 102
    },
    {
      "midi": 57,
      "hit": false,
      "t": 165905.25271875015,
      "d": 2004.7665937500133,
      "v": 112
    },
    {
      "midi": 55,
      "hit": false,
      "t": 165905.25271875015,
      "d": 2048.0349375000224,
      "v": 103
    },
    {
      "midi": 60,
      "hit": false,
      "t": 165914.86790625015,
      "d": 2043.2273437500407,
      "v": 112
    },
    {
      "midi": 52,
      "hit": false,
      "t": 165919.67550000016,
      "d": 2033.6121562500193,
      "v": 103
    },
    {
      "midi": 57,
      "hit": false,
      "t": 167996.5560000002,
      "d": 1490.3540625000023,
      "v": 102
    },
    {
      "midi": 53,
      "hit": false,
      "t": 167996.5560000002,
      "d": 1495.161656250013,
      "v": 103
    },
    {
      "midi": 60,
      "hit": false,
      "t": 167996.5560000002,
      "d": 1495.161656250013,
      "v": 112
    },
    {
      "midi": 64,
      "hit": false,
      "t": 167996.5560000002,
      "d": 1509.584437500016,
      "v": 111
    },
    {
      "midi": 57,
      "hit": false,
      "t": 169592.6771250002,
      "d": 1990.3438125000393,
      "v": 102
    },
    {
      "midi": 59,
      "hit": false,
      "t": 169592.6771250002,
      "d": 1990.3438125000393,
      "v": 112
    },
    {
      "midi": 53,
      "hit": false,
      "t": 169597.4847187502,
      "d": 1956.6906562500226,
      "v": 103
    },
    {
      "midi": 62,
      "hit": false,
      "t": 169602.2923125002,
      "d": 1985.5362187500286,
      "v": 111
    },
    {
      "midi": 62,
      "hit": false,
      "t": 171683.98040625025,
      "d": 1423.047749999998,
      "v": 112
    },
    {
      "midi": 59,
      "hit": false,
      "t": 171683.98040625025,
      "d": 1456.7009062499856,
      "v": 109
    },
    {
      "midi": 52,
      "hit": false,
      "t": 171683.98040625025,
      "d": 1471.1236874999886,
      "v": 103
    },
    {
      "midi": 55,
      "hit": false,
      "t": 171683.98040625025,
      "d": 1499.9692499999946,
      "v": 102
    },
    {
      "midi": 57,
      "hit": false,
      "t": 173289.71671875025,
      "d": 2004.7665937500133,
      "v": 112
    },
    {
      "midi": 55,
      "hit": false,
      "t": 173289.71671875025,
      "d": 2048.0349375000224,
      "v": 103
    },
    {
      "midi": 60,
      "hit": false,
      "t": 173299.33190625024,
      "d": 2043.2273437500407,
      "v": 112
    },
    {
      "midi": 52,
      "hit": false,
      "t": 173304.13950000025,
      "d": 2033.6121562500193,
      "v": 103
    },
    {
      "midi": 57,
      "hit": false,
      "t": 175381.02000000028,
      "d": 1711.5033750000002,
      "v": 112
    },
    {
      "midi": 60,
      "hit": false,
      "t": 175381.02000000028,
      "d": 1749.9641249999986,
      "v": 111
    },
    {
      "midi": 53,
      "hit": false,
      "t": 175381.02000000028,
      "d": 1754.7717187500093,
      "v": 102
    },
    {
      "midi": 53,
      "hit": false,
      "t": 175602.16931250045,
      "d": 57.69112500001211,
      "v": 97
    },
    {
      "midi": 60,
      "hit": false,
      "t": 175602.16931250045,
      "d": 62.49871875002282,
      "v": 97
    },
    {
      "midi": 57,
      "hit": false,
      "t": 175606.97690625046,
      "d": 48.07593749999069,
      "v": 97
    },
    {
      "midi": 60,
      "hit": false,
      "t": 176058.89071875048,
      "d": 187.49615625003935,
      "v": 97
    },
    {
      "midi": 53,
      "hit": false,
      "t": 176063.6983125005,
      "d": 173.07337500000722,
      "v": 97
    },
    {
      "midi": 57,
      "hit": false,
      "t": 176063.6983125005,
      "d": 177.88096875001793,
      "v": 97
    },
    {
      "midi": 57,
      "hit": false,
      "t": 176525.22731250053,
      "d": 62.49871875002282,
      "v": 97
    },
    {
      "midi": 53,
      "hit": false,
      "t": 176530.03490625054,
      "d": 72.11390625001513,
      "v": 97
    },
    {
      "midi": 60,
      "hit": false,
      "t": 176530.03490625054,
      "d": 72.11390625001513,
      "v": 97
    },
    {
      "midi": 57,
      "hit": false,
      "t": 176991.56390625055,
      "d": 81.72909375003655,
      "v": 97
    },
    {
      "midi": 60,
      "hit": false,
      "t": 176996.37150000056,
      "d": 72.11390625001513,
      "v": 97
    },
    {
      "midi": 53,
      "hit": false,
      "t": 177001.17909375057,
      "d": 62.498718749993714,
      "v": 97
    },
    {
      "midi": 60,
      "hit": false,
      "t": 177207.90562500028,
      "d": 649.0251562499907,
      "v": 112
    },
    {
      "midi": 55,
      "hit": false,
      "t": 177207.90562500028,
      "d": 668.2555312500044,
      "v": 102
    },
    {
      "midi": 62,
      "hit": false,
      "t": 177217.52081250027,
      "d": 639.4099687499984,
      "v": 111
    },
    {
      "midi": 55,
      "hit": false,
      "t": 177448.28531250058,
      "d": 57.69112500001211,
      "v": 97
    },
    {
      "midi": 62,
      "hit": false,
      "t": 177448.28531250058,
      "d": 62.49871875002282,
      "v": 97
    },
    {
      "midi": 60,
      "hit": false,
      "t": 177453.0929062506,
      "d": 48.07593749999069,
      "v": 97
    },
    {
      "midi": 55,
      "hit": false,
      "t": 177900.19912500028,
      "d": 1052.8630312499881,
      "v": 102
    },
    {
      "midi": 59,
      "hit": false,
      "t": 177900.19912500028,
      "d": 1057.6706249999988,
      "v": 112
    },
    {
      "midi": 62,
      "hit": false,
      "t": 177905.0067187506,
      "d": 187.49615625003935,
      "v": 97
    },
    {
      "midi": 62,
      "hit": false,
      "t": 177909.81431250027,
      "d": 1019.2098750000005,
      "v": 111
    },
    {
      "midi": 55,
      "hit": false,
      "t": 177909.81431250062,
      "d": 173.07337500000722,
      "v": 97
    },
    {
      "midi": 59,
      "hit": false,
      "t": 177909.81431250062,
      "d": 177.88096875001793,
      "v": 97
    },
    {
      "midi": 59,
      "hit": false,
      "t": 178371.34331250066,
      "d": 62.49871875002282,
      "v": 97
    },
    {
      "midi": 55,
      "hit": false,
      "t": 178376.15090625067,
      "d": 72.11390625001513,
      "v": 97
    },
    {
      "midi": 62,
      "hit": false,
      "t": 178376.15090625067,
      "d": 72.11390625001513,
      "v": 97
    },
    {
      "midi": 59,
      "hit": false,
      "t": 178837.67990625068,
      "d": 81.72909375003655,
      "v": 97
    },
    {
      "midi": 62,
      "hit": false,
      "t": 178842.4875000007,
      "d": 72.11390625001513,
      "v": 97
    },
    {
      "midi": 55,
      "hit": false,
      "t": 178847.2950937507,
      "d": 62.498718749993714,
      "v": 97
    },
    {
      "midi": 52,
      "hit": false,
      "t": 179068.4444062503,
      "d": 1730.733750000014,
      "v": 102
    },
    {
      "midi": 55,
      "hit": false,
      "t": 179068.4444062503,
      "d": 1730.733750000014,
      "v": 109
    },
    {
      "midi": 59,
      "hit": false,
      "t": 179068.4444062503,
      "d": 1754.7717187500093,
      "v": 112
    },
    {
      "midi": 62,
      "hit": false,
      "t": 179068.4444062503,
      "d": 1778.8096875000047,
      "v": 112
    },
    {
      "midi": 55,
      "hit": false,
      "t": 179294.4013125007,
      "d": 57.69112500001211,
      "v": 97
    },
    {
      "midi": 62,
      "hit": false,
      "t": 179294.4013125007,
      "d": 62.49871875002282,
      "v": 97
    },
    {
      "midi": 59,
      "hit": false,
      "t": 179299.20890625071,
      "d": 48.07593749999069,
      "v": 97
    },
    {
      "midi": 62,
      "hit": false,
      "t": 179751.12271875073,
      "d": 187.49615625003935,
      "v": 97
    },
    {
      "midi": 55,
      "hit": false,
      "t": 179755.93031250074,
      "d": 173.07337500000722,
      "v": 97
    },
    {
      "midi": 59,
      "hit": false,
      "t": 179755.93031250074,
      "d": 177.88096875001793,
      "v": 97
    },
    {
      "midi": 59,
      "hit": false,
      "t": 180217.45931250078,
      "d": 62.49871875002282,
      "v": 97
    },
    {
      "midi": 55,
      "hit": false,
      "t": 180222.2669062508,
      "d": 72.11390625001513,
      "v": 97
    },
    {
      "midi": 62,
      "hit": false,
      "t": 180222.2669062508,
      "d": 72.11390625001513,
      "v": 97
    },
    {
      "midi": 59,
      "hit": false,
      "t": 180683.7959062508,
      "d": 81.72909375003655,
      "v": 97
    },
    {
      "midi": 62,
      "hit": false,
      "t": 180688.6035000008,
      "d": 72.11390625001513,
      "v": 97
    },
    {
      "midi": 55,
      "hit": false,
      "t": 180693.41109375082,
      "d": 62.498718749993714,
      "v": 97
    },
    {
      "midi": 60,
      "hit": false,
      "t": 180904.9452187503,
      "d": 1754.7717187500384,
      "v": 112
    },
    {
      "midi": 57,
      "hit": false,
      "t": 180904.9452187503,
      "d": 1778.8096875000338,
      "v": 103
    },
    {
      "midi": 55,
      "hit": false,
      "t": 180909.75281250032,
      "d": 1730.733750000014,
      "v": 102
    },
    {
      "midi": 64,
      "hit": false,
      "t": 180914.56040625033,
      "d": 1778.8096875000047,
      "v": 112
    },
    {
      "midi": 55,
      "hit": false,
      "t": 181140.51731250083,
      "d": 57.69112500001211,
      "v": 97
    },
    {
      "midi": 60,
      "hit": false,
      "t": 181140.51731250083,
      "d": 62.49871875002282,
      "v": 97
    },
    {
      "midi": 57,
      "hit": false,
      "t": 181145.32490625084,
      "d": 48.07593749999069,
      "v": 97
    },
    {
      "midi": 60,
      "hit": false,
      "t": 181597.23871875086,
      "d": 187.49615625003935,
      "v": 97
    },
    {
      "midi": 55,
      "hit": false,
      "t": 181602.04631250087,
      "d": 173.07337500000722,
      "v": 97
    },
    {
      "midi": 57,
      "hit": false,
      "t": 181602.04631250087,
      "d": 177.88096875001793,
      "v": 97
    },
    {
      "midi": 57,
      "hit": false,
      "t": 182063.5753125009,
      "d": 62.49871875002282,
      "v": 97
    },
    {
      "midi": 55,
      "hit": false,
      "t": 182068.38290625092,
      "d": 72.11390625001513,
      "v": 97
    },
    {
      "midi": 60,
      "hit": false,
      "t": 182068.38290625092,
      "d": 72.11390625001513,
      "v": 97
    },
    {
      "midi": 57,
      "hit": false,
      "t": 182529.91190625093,
      "d": 81.72909375003655,
      "v": 97
    },
    {
      "midi": 60,
      "hit": false,
      "t": 182534.71950000094,
      "d": 72.11390625001513,
      "v": 97
    },
    {
      "midi": 55,
      "hit": false,
      "t": 182539.52709375095,
      "d": 62.498718749993714,
      "v": 97
    },
    {
      "midi": 53,
      "hit": false,
      "t": 182765.48400000032,
      "d": 1706.6957812499895,
      "v": 102
    },
    {
      "midi": 57,
      "hit": false,
      "t": 182765.48400000032,
      "d": 1711.5033750000002,
      "v": 112
    },
    {
      "midi": 60,
      "hit": false,
      "t": 182765.48400000032,
      "d": 1749.9641249999986,
      "v": 111
    },
    {
      "midi": 53,
      "hit": false,
      "t": 182986.63331250096,
      "d": 57.69112500001211,
      "v": 97
    },
    {
      "midi": 60,
      "hit": false,
      "t": 182986.63331250096,
      "d": 62.49871875002282,
      "v": 97
    },
    {
      "midi": 57,
      "hit": false,
      "t": 182991.44090625097,
      "d": 48.07593749999069,
      "v": 97
    },
    {
      "midi": 60,
      "hit": false,
      "t": 183443.35471875098,
      "d": 187.49615625003935,
      "v": 97
    },
    {
      "midi": 53,
      "hit": false,
      "t": 183448.162312501,
      "d": 173.07337500000722,
      "v": 97
    },
    {
      "midi": 57,
      "hit": false,
      "t": 183448.162312501,
      "d": 177.88096875001793,
      "v": 97
    },
    {
      "midi": 57,
      "hit": false,
      "t": 183909.69131250103,
      "d": 62.49871875002282,
      "v": 97
    },
    {
      "midi": 53,
      "hit": false,
      "t": 183914.49890625104,
      "d": 72.11390625001513,
      "v": 97
    },
    {
      "midi": 60,
      "hit": false,
      "t": 183914.49890625104,
      "d": 72.11390625001513,
      "v": 97
    },
    {
      "midi": 57,
      "hit": false,
      "t": 184376.02790625105,
      "d": 81.72909375003655,
      "v": 97
    },
    {
      "midi": 60,
      "hit": false,
      "t": 184380.83550000106,
      "d": 72.11390625001513,
      "v": 97
    },
    {
      "midi": 53,
      "hit": false,
      "t": 184385.64309375107,
      "d": 62.498718749993714,
      "v": 97
    },
    {
      "midi": 57,
      "hit": false,
      "t": 184592.3696250003,
      "d": 1754.7717187500093,
      "v": 102
    },
    {
      "midi": 60,
      "hit": false,
      "t": 184592.3696250003,
      "d": 1754.7717187500093,
      "v": 112
    },
    {
      "midi": 53,
      "hit": false,
      "t": 184597.17721875032,
      "d": 1754.7717187500093,
      "v": 103
    },
    {
      "midi": 62,
      "hit": false,
      "t": 184601.98481250033,
      "d": 1802.84765625,
      "v": 111
    },
    {
      "midi": 53,
      "hit": false,
      "t": 184832.74931250108,
      "d": 57.69112500001211,
      "v": 97
    },
    {
      "midi": 62,
      "hit": false,
      "t": 184832.74931250108,
      "d": 62.49871875002282,
      "v": 97
    },
    {
      "midi": 57,
      "hit": false,
      "t": 184837.5569062511,
      "d": 48.07593749999069,
      "v": 97
    },
    {
      "midi": 62,
      "hit": false,
      "t": 185289.4707187511,
      "d": 187.49615625003935,
      "v": 97
    },
    {
      "midi": 53,
      "hit": false,
      "t": 185294.27831250112,
      "d": 173.07337500000722,
      "v": 97
    },
    {
      "midi": 57,
      "hit": false,
      "t": 185294.27831250112,
      "d": 177.88096875001793,
      "v": 97
    },
    {
      "midi": 57,
      "hit": false,
      "t": 185755.80731250116,
      "d": 62.49871875002282,
      "v": 97
    },
    {
      "midi": 53,
      "hit": false,
      "t": 185760.61490625117,
      "d": 72.11390625001513,
      "v": 97
    },
    {
      "midi": 62,
      "hit": false,
      "t": 185760.61490625117,
      "d": 72.11390625001513,
      "v": 97
    },
    {
      "midi": 57,
      "hit": false,
      "t": 186222.14390625118,
      "d": 81.72909375003655,
      "v": 97
    },
    {
      "midi": 62,
      "hit": false,
      "t": 186226.9515000012,
      "d": 72.11390625001513,
      "v": 97
    },
    {
      "midi": 53,
      "hit": false,
      "t": 186231.7590937512,
      "d": 62.498718749993714,
      "v": 97
    },
    {
      "midi": 55,
      "hit": false,
      "t": 186448.10081250034,
      "d": 1562.4679687500175,
      "v": 102
    },
    {
      "midi": 53,
      "hit": false,
      "t": 186452.90840625035,
      "d": 1538.429999999993,
      "v": 102
    },
    {
      "midi": 57,
      "hit": false,
      "t": 186452.90840625035,
      "d": 1538.429999999993,
      "v": 109
    },
    {
      "midi": 60,
      "hit": false,
      "t": 186452.90840625035,
      "d": 1538.429999999993,
      "v": 112
    },
    {
      "midi": 50,
      "hit": false,
      "t": 186452.90840625035,
      "d": 1562.4679687500175,
      "v": 103
    },
    {
      "midi": 55,
      "hit": false,
      "t": 186678.8653125012,
      "d": 57.69112500001211,
      "v": 97
    },
    {
      "midi": 53,
      "hit": false,
      "t": 186678.8653125012,
      "d": 62.49871875002282,
      "v": 97
    },
    {
      "midi": 60,
      "hit": false,
      "t": 186683.67290625122,
      "d": 48.07593749999069,
      "v": 97
    },
    {
      "midi": 53,
      "hit": false,
      "t": 187135.58671875123,
      "d": 187.49615625003935,
      "v": 97
    },
    {
      "midi": 55,
      "hit": false,
      "t": 187140.39431250124,
      "d": 173.07337500000722,
      "v": 97
    },
    {
      "midi": 60,
      "hit": false,
      "t": 187140.39431250124,
      "d": 177.88096875001793,
      "v": 97
    },
    {
      "midi": 60,
      "hit": false,
      "t": 187601.92331250128,
      "d": 62.49871875002282,
      "v": 97
    },
    {
      "midi": 53,
      "hit": false,
      "t": 187606.7309062513,
      "d": 72.11390625001513,
      "v": 97
    },
    {
      "midi": 55,
      "hit": false,
      "t": 187606.7309062513,
      "d": 72.11390625001513,
      "v": 97
    },
    {
      "midi": 60,
      "hit": false,
      "t": 188068.2599062513,
      "d": 81.72909375003655,
      "v": 97
    },
    {
      "midi": 53,
      "hit": false,
      "t": 188073.0675000013,
      "d": 72.11390625001513,
      "v": 97
    },
    {
      "midi": 55,
      "hit": false,
      "t": 188077.87509375133,
      "d": 62.498718749993714,
      "v": 97
    },
    {
      "midi": 64,
      "hit": false,
      "t": 188534.59650000036,
      "d": 163.4581875000149,
      "v": 90
    },
    {
      "midi": 61,
      "hit": false,
      "t": 188534.59650000036,
      "d": 177.88096875001793,
      "v": 86
    },
    {
      "midi": 55,
      "hit": false,
      "t": 188539.40409375037,
      "d": 163.4581875000149,
      "v": 94
    },
    {
      "midi": 57,
      "hit": false,
      "t": 188539.40409375037,
      "d": 163.4581875000149,
      "v": 94
    },
    {
      "midi": 64,
      "hit": false,
      "t": 188765.36100000038,
      "d": 168.2657812500256,
      "v": 103
    },
    {
      "midi": 55,
      "hit": false,
      "t": 188770.1685937504,
      "d": 144.22781250000116,
      "v": 94
    },
    {
      "midi": 57,
      "hit": false,
      "t": 188770.1685937504,
      "d": 163.4581875000149,
      "v": 121
    },
    {
      "midi": 61,
      "hit": false,
      "t": 188770.1685937504,
      "d": 163.4581875000149,
      "v": 94
    },
    {
      "midi": 57,
      "hit": false,
      "t": 188996.1255000004,
      "d": 158.6505937500624,
      "v": 103
    },
    {
      "midi": 64,
      "hit": false,
      "t": 189000.9330937504,
      "d": 139.42021875001956,
      "v": 112
    },
    {
      "midi": 55,
      "hit": false,
      "t": 189000.9330937504,
      "d": 144.22781250003027,
      "v": 103
    },
    {
      "midi": 61,
      "hit": false,
      "t": 189005.74068750042,
      "d": 144.22781250003027,
      "v": 103
    },
    {
      "midi": 64,
      "hit": false,
      "t": 189226.89000000045,
      "d": 144.22781250003027,
      "v": 94
    },
    {
      "midi": 55,
      "hit": false,
      "t": 189231.69759375046,
      "d": 144.22781250003027,
      "v": 103
    },
    {
      "midi": 61,
      "hit": false,
      "t": 189231.69759375046,
      "d": 144.22781250003027,
      "v": 94
    },
    {
      "midi": 57,
      "hit": false,
      "t": 189236.50518750047,
      "d": 144.22781250003027,
      "v": 112
    },
    {
      "midi": 64,
      "hit": false,
      "t": 189443.2317187505,
      "d": 182.68856249999953,
      "v": 103
    },
    {
      "midi": 61,
      "hit": false,
      "t": 189452.8469062505,
      "d": 177.88096875001793,
      "v": 103
    },
    {
      "midi": 57,
      "hit": false,
      "t": 189452.8469062505,
      "d": 182.68856250002864,
      "v": 103
    },
    {
      "midi": 55,
      "hit": false,
      "t": 189457.6545000005,
      "d": 158.6505937500042,
      "v": 112
    },
    {
      "midi": 57,
      "hit": false,
      "t": 189683.6114062505,
      "d": 149.03540625001187,
      "v": 103
    },
    {
      "midi": 55,
      "hit": false,
      "t": 189688.41900000052,
      "d": 120.18984375000582,
      "v": 103
    },
    {
      "midi": 64,
      "hit": false,
      "t": 189688.41900000052,
      "d": 129.80503124999814,
      "v": 103
    },
    {
      "midi": 61,
      "hit": false,
      "t": 189693.22659375053,
      "d": 144.22781250000116,
      "v": 103
    },
    {
      "midi": 64,
      "hit": false,
      "t": 189909.56831250052,
      "d": 211.5341250000347,
      "v": 112
    },
    {
      "midi": 55,
      "hit": false,
      "t": 189914.37590625053,
      "d": 201.91893750001327,
      "v": 112
    },
    {
      "midi": 61,
      "hit": false,
      "t": 189914.37590625053,
      "d": 206.72653125002398,
      "v": 112
    },
    {
      "midi": 57,
      "hit": false,
      "t": 189919.18350000054,
      "d": 197.11134375000256,
      "v": 112
    },
    {
      "midi": 54,
      "hit": false,
      "t": 190149.94800000056,
      "d": 615.372000000003,
      "v": 103
    },
    {
      "midi": 57,
      "hit": false,
      "t": 190149.94800000056,
      "d": 629.794781250006,
      "v": 112
    },
    {
      "midi": 64,
      "hit": false,
      "t": 190154.75559375057,
      "d": 620.1795937499846,
      "v": 112
    },
    {
      "midi": 57,
      "hit": false,
      "t": 190842.24150000056,
      "d": 2860.5182812499697,
      "v": 112
    },
    {
      "midi": 62,
      "hit": false,
      "t": 190842.24150000056,
      "d": 2870.133468749962,
      "v": 112
    },
    {
      "midi": 54,
      "hit": false,
      "t": 190851.85668750055,
      "d": 2817.2499374999898,
      "v": 102
    },
    {
      "midi": 54,
      "hit": false,
      "t": 193837.3724062505,
      "d": 610.5644062499923,
      "v": 102
    },
    {
      "midi": 57,
      "hit": false,
      "t": 193837.3724062505,
      "d": 610.5644062499923,
      "v": 112
    },
    {
      "midi": 61,
      "hit": false,
      "t": 193837.3724062505,
      "d": 610.5644062499923,
      "v": 112
    },
    {
      "midi": 54,
      "hit": false,
      "t": 194524.8583125005,
      "d": 860.5592812500254,
      "v": 103
    },
    {
      "midi": 57,
      "hit": false,
      "t": 194524.8583125005,
      "d": 879.7896562500391,
      "v": 112
    },
    {
      "midi": 62,
      "hit": false,
      "t": 194529.6659062505,
      "d": 889.4048437500314,
      "v": 112
    },
    {
      "midi": 64,
      "hit": false,
      "t": 195447.91631250054,
      "d": 2057.6501250000438,
      "v": 112
    },
    {
      "midi": 57,
      "hit": false,
      "t": 195452.72390625055,
      "d": 2004.7665937500133,
      "v": 112
    },
    {
      "midi": 54,
      "hit": false,
      "t": 195452.72390625055,
      "d": 2023.996968750027,
      "v": 103
    },
    {
      "midi": 54,
      "hit": false,
      "t": 197534.4120000006,
      "d": 3485.505468749994,
      "v": 103
    },
    {
      "midi": 57,
      "hit": false,
      "t": 197534.4120000006,
      "d": 3485.505468749994,
      "v": 102
    },
    {
      "midi": 61,
      "hit": false,
      "t": 197534.4120000006,
      "d": 3485.505468749994,
      "v": 112
    },
    {
      "midi": 64,
      "hit": false,
      "t": 197534.4120000006,
      "d": 3485.505468749994,
      "v": 111
    },
    {
      "midi": 54,
      "hit": false,
      "t": 201226.64400000058,
      "d": 3485.505468749994,
      "v": 103
    },
    {
      "midi": 57,
      "hit": false,
      "t": 201226.64400000058,
      "d": 3485.505468749994,
      "v": 102
    },
    {
      "midi": 61,
      "hit": false,
      "t": 201226.64400000058,
      "d": 3485.505468749994,
      "v": 112
    },
    {
      "midi": 64,
      "hit": false,
      "t": 201226.64400000058,
      "d": 3485.505468749994,
      "v": 111
    },
    {
      "midi": 55,
      "hit": false,
      "t": 204918.87600000057,
      "d": 3485.5054687500233,
      "v": 103
    },
    {
      "midi": 59,
      "hit": false,
      "t": 204918.87600000057,
      "d": 3485.5054687500233,
      "v": 112
    },
    {
      "midi": 62,
      "hit": false,
      "t": 204923.68359375058,
      "d": 3485.5054687500233,
      "v": 112
    },
    {
      "midi": 59,
      "hit": false,
      "t": 208606.3004062506,
      "d": 3485.5054687500233,
      "v": 112
    },
    {
      "midi": 62,
      "hit": false,
      "t": 208606.3004062506,
      "d": 3485.5054687500233,
      "v": 112
    },
    {
      "midi": 54,
      "hit": false,
      "t": 208606.3004062506,
      "d": 3557.6193750000384,
      "v": 102
    },
    {
      "midi": 57,
      "hit": false,
      "t": 208611.10800000062,
      "d": 3485.5054687500233,
      "v": 102
    },
    {
      "midi": 57,
      "hit": false,
      "t": 212303.34000000064,
      "d": 850.944093750004,
      "v": 113
    },
    {
      "midi": 62,
      "hit": false,
      "t": 212303.34000000064,
      "d": 874.9820624999993,
      "v": 112
    },
    {
      "midi": 52,
      "hit": false,
      "t": 212308.14759375065,
      "d": 831.7137187499902,
      "v": 104
    },
    {
      "midi": 52,
      "hit": false,
      "t": 213216.78281250063,
      "d": 1774.002093749994,
      "v": 101
    },
    {
      "midi": 57,
      "hit": false,
      "t": 213221.59040625065,
      "d": 1735.5413437499956,
      "v": 112
    },
    {
      "midi": 61,
      "hit": false,
      "t": 213221.59040625065,
      "d": 1769.1944999999832,
      "v": 112
    },
    {
      "midi": 59,
      "hit": false,
      "t": 215995.57200000063,
      "d": 1490.3540625000023,
      "v": 102
    },
    {
      "midi": 55,
      "hit": false,
      "t": 215995.57200000063,
      "d": 1495.161656250013,
      "v": 103
    },
    {
      "midi": 62,
      "hit": false,
      "t": 215995.57200000063,
      "d": 1495.161656250013,
      "v": 112
    },
    {
      "midi": 66,
      "hit": false,
      "t": 215995.57200000063,
      "d": 1509.584437500016,
      "v": 111
    },
    {
      "midi": 59,
      "hit": false,
      "t": 217591.69312500063,
      "d": 1990.3438125000393,
      "v": 102
    },
    {
      "midi": 61,
      "hit": false,
      "t": 217591.69312500063,
      "d": 1990.3438125000393,
      "v": 112
    },
    {
      "midi": 55,
      "hit": false,
      "t": 217596.50071875064,
      "d": 1956.6906562500226,
      "v": 103
    },
    {
      "midi": 64,
      "hit": false,
      "t": 217601.30831250065,
      "d": 1985.5362187500286,
      "v": 111
    },
    {
      "midi": 64,
      "hit": false,
      "t": 219682.9964062507,
      "d": 1423.047749999998,
      "v": 112
    },
    {
      "midi": 61,
      "hit": false,
      "t": 219682.9964062507,
      "d": 1456.7009062499856,
      "v": 109
    },
    {
      "midi": 54,
      "hit": false,
      "t": 219682.9964062507,
      "d": 1471.1236874999886,
      "v": 103
    },
    {
      "midi": 57,
      "hit": false,
      "t": 219682.9964062507,
      "d": 1499.9692499999946,
      "v": 102
    },
    {
      "midi": 59,
      "hit": false,
      "t": 221288.7327187507,
      "d": 2004.7665937500133,
      "v": 112
    },
    {
      "midi": 57,
      "hit": false,
      "t": 221288.7327187507,
      "d": 2048.0349375000224,
      "v": 103
    },
    {
      "midi": 62,
      "hit": false,
      "t": 221298.34790625068,
      "d": 2043.2273437500407,
      "v": 112
    },
    {
      "midi": 54,
      "hit": false,
      "t": 221303.1555000007,
      "d": 2033.6121562500193,
      "v": 103
    },
    {
      "midi": 59,
      "hit": false,
      "t": 223380.03600000072,
      "d": 1490.3540625000023,
      "v": 102
    },
    {
      "midi": 55,
      "hit": false,
      "t": 223380.03600000072,
      "d": 1495.161656250013,
      "v": 103
    },
    {
      "midi": 62,
      "hit": false,
      "t": 223380.03600000072,
      "d": 1495.161656250013,
      "v": 112
    },
    {
      "midi": 66,
      "hit": false,
      "t": 223380.03600000072,
      "d": 1509.584437500016,
      "v": 111
    },
    {
      "midi": 59,
      "hit": false,
      "t": 224976.15712500073,
      "d": 1990.3438125000393,
      "v": 102
    },
    {
      "midi": 61,
      "hit": false,
      "t": 224976.15712500073,
      "d": 1990.3438125000393,
      "v": 112
    },
    {
      "midi": 55,
      "hit": false,
      "t": 224980.96471875074,
      "d": 1956.6906562500226,
      "v": 103
    },
    {
      "midi": 64,
      "hit": false,
      "t": 224985.77231250075,
      "d": 1985.5362187500286,
      "v": 111
    },
    {
      "midi": 64,
      "hit": false,
      "t": 227067.4604062508,
      "d": 1423.047749999998,
      "v": 112
    },
    {
      "midi": 61,
      "hit": false,
      "t": 227067.4604062508,
      "d": 1456.7009062499856,
      "v": 109
    },
    {
      "midi": 54,
      "hit": false,
      "t": 227067.4604062508,
      "d": 1471.1236874999886,
      "v": 103
    },
    {
      "midi": 57,
      "hit": false,
      "t": 227067.4604062508,
      "d": 1499.9692499999946,
      "v": 102
    },
    {
      "midi": 59,
      "hit": false,
      "t": 228673.19671875078,
      "d": 2004.7665937500133,
      "v": 112
    },
    {
      "midi": 57,
      "hit": false,
      "t": 228673.19671875078,
      "d": 2048.0349375000224,
      "v": 103
    },
    {
      "midi": 62,
      "hit": false,
      "t": 228682.81190625078,
      "d": 2043.2273437500407,
      "v": 112
    },
    {
      "midi": 54,
      "hit": false,
      "t": 228687.6195000008,
      "d": 2033.6121562500193,
      "v": 103
    },
    {
      "midi": 59,
      "hit": false,
      "t": 230764.50000000081,
      "d": 1490.3540625000023,
      "v": 102
    },
    {
      "midi": 55,
      "hit": false,
      "t": 230764.50000000081,
      "d": 1495.161656250013,
      "v": 103
    },
    {
      "midi": 62,
      "hit": false,
      "t": 230764.50000000081,
      "d": 1495.161656250013,
      "v": 112
    },
    {
      "midi": 66,
      "hit": false,
      "t": 230764.50000000081,
      "d": 1509.584437500016,
      "v": 111
    },
    {
      "midi": 59,
      "hit": false,
      "t": 232360.62112500082,
      "d": 1990.3438125000393,
      "v": 102
    },
    {
      "midi": 61,
      "hit": false,
      "t": 232360.62112500082,
      "d": 1990.3438125000393,
      "v": 112
    },
    {
      "midi": 55,
      "hit": false,
      "t": 232365.42871875083,
      "d": 1956.6906562500226,
      "v": 103
    },
    {
      "midi": 64,
      "hit": false,
      "t": 232370.23631250084,
      "d": 1985.5362187500286,
      "v": 111
    },
    {
      "midi": 64,
      "hit": false,
      "t": 234451.92440625088,
      "d": 1423.047749999998,
      "v": 112
    },
    {
      "midi": 61,
      "hit": false,
      "t": 234451.92440625088,
      "d": 1456.7009062499856,
      "v": 109
    },
    {
      "midi": 54,
      "hit": false,
      "t": 234451.92440625088,
      "d": 1471.1236874999886,
      "v": 103
    },
    {
      "midi": 57,
      "hit": false,
      "t": 234451.92440625088,
      "d": 1499.9692499999946,
      "v": 102
    },
    {
      "midi": 59,
      "hit": false,
      "t": 236057.66071875088,
      "d": 2004.7665937500424,
      "v": 112
    },
    {
      "midi": 57,
      "hit": false,
      "t": 236057.66071875088,
      "d": 2048.0349375000515,
      "v": 103
    },
    {
      "midi": 62,
      "hit": false,
      "t": 236067.27590625087,
      "d": 2043.2273437500698,
      "v": 112
    },
    {
      "midi": 54,
      "hit": false,
      "t": 236072.08350000088,
      "d": 2033.6121562500484,
      "v": 103
    },
    {
      "midi": 59,
      "hit": false,
      "t": 238148.96400000094,
      "d": 1490.3540624999732,
      "v": 102
    },
    {
      "midi": 55,
      "hit": false,
      "t": 238148.96400000094,
      "d": 1495.161656249984,
      "v": 103
    },
    {
      "midi": 62,
      "hit": false,
      "t": 238148.96400000094,
      "d": 1495.161656249984,
      "v": 112
    },
    {
      "midi": 66,
      "hit": false,
      "t": 238148.96400000094,
      "d": 1509.584437499987,
      "v": 111
    },
    {
      "midi": 59,
      "hit": false,
      "t": 239745.08512500091,
      "d": 1990.3438125000685,
      "v": 102
    },
    {
      "midi": 61,
      "hit": false,
      "t": 239745.08512500091,
      "d": 1990.3438125000685,
      "v": 112
    },
    {
      "midi": 55,
      "hit": false,
      "t": 239749.89271875093,
      "d": 1956.6906562500517,
      "v": 103
    },
    {
      "midi": 64,
      "hit": false,
      "t": 239754.70031250094,
      "d": 1985.5362187500577,
      "v": 111
    },
    {
      "midi": 64,
      "hit": false,
      "t": 241836.388406251,
      "d": 1423.0477499999688,
      "v": 112
    },
    {
      "midi": 61,
      "hit": false,
      "t": 241836.388406251,
      "d": 1456.7009062499565,
      "v": 109
    },
    {
      "midi": 54,
      "hit": false,
      "t": 241836.388406251,
      "d": 1471.1236874999595,
      "v": 103
    },
    {
      "midi": 57,
      "hit": false,
      "t": 241836.388406251,
      "d": 1499.9692499999655,
      "v": 102
    },
    {
      "midi": 59,
      "hit": false,
      "t": 243442.12471875097,
      "d": 2004.766593749955,
      "v": 112
    },
    {
      "midi": 57,
      "hit": false,
      "t": 243442.12471875097,
      "d": 2048.034937499964,
      "v": 103
    },
    {
      "midi": 62,
      "hit": false,
      "t": 243451.73990625096,
      "d": 2043.2273437499825,
      "v": 112
    },
    {
      "midi": 54,
      "hit": false,
      "t": 243456.54750000098,
      "d": 2033.6121562499611,
      "v": 103
    },
    {
      "midi": 59,
      "hit": false,
      "t": 245533.42800000095,
      "d": 1490.3540624999441,
      "v": 102
    },
    {
      "midi": 55,
      "hit": false,
      "t": 245533.42800000095,
      "d": 1495.1616562499548,
      "v": 103
    },
    {
      "midi": 62,
      "hit": false,
      "t": 245533.42800000095,
      "d": 1495.1616562499548,
      "v": 112
    },
    {
      "midi": 66,
      "hit": false,
      "t": 245533.42800000095,
      "d": 1509.5844374999579,
      "v": 111
    },
    {
      "midi": 59,
      "hit": false,
      "t": 247129.5491250009,
      "d": 1990.3438125000102,
      "v": 102
    },
    {
      "midi": 61,
      "hit": false,
      "t": 247129.5491250009,
      "d": 1990.3438125000102,
      "v": 112
    },
    {
      "midi": 55,
      "hit": false,
      "t": 247134.3567187509,
      "d": 1956.6906562499935,
      "v": 103
    },
    {
      "midi": 64,
      "hit": false,
      "t": 247139.1643125009,
      "d": 1985.5362187499995,
      "v": 111
    },
    {
      "midi": 64,
      "hit": false,
      "t": 249220.8524062509,
      "d": 1423.0477499999688,
      "v": 112
    },
    {
      "midi": 61,
      "hit": false,
      "t": 249220.8524062509,
      "d": 1456.7009062499565,
      "v": 109
    },
    {
      "midi": 54,
      "hit": false,
      "t": 249220.8524062509,
      "d": 1471.1236874999595,
      "v": 103
    },
    {
      "midi": 57,
      "hit": false,
      "t": 249220.8524062509,
      "d": 1499.9692499999655,
      "v": 102
    },
    {
      "midi": 59,
      "hit": false,
      "t": 250826.58871875083,
      "d": 2004.7665937500424,
      "v": 112
    },
    {
      "midi": 57,
      "hit": false,
      "t": 250826.58871875083,
      "d": 2048.0349375000515,
      "v": 103
    },
    {
      "midi": 62,
      "hit": false,
      "t": 250836.20390625083,
      "d": 2043.2273437500698,
      "v": 112
    },
    {
      "midi": 54,
      "hit": false,
      "t": 250841.01150000084,
      "d": 2033.6121562500484,
      "v": 103
    }
  ]
}