{
  "jsonPath": "World/German Techno/Hardfloor/the-laste-marshmellow-machine.json",
  "path": "World\\German Techno\\Hardfloor\\The Laste Marshmellow Machine.mid",
  "name": "The Laste Marshmellow Machine",
  "difficulty": "Advanced",
  "bpm": 123.99999173333389,
  "notes": [
    {
      "midi": 42,
      "hit": false,
      "t": 1935.4840000000002,
      "d": 1931.451741666667,
      "v": 97
    },
    {
      "midi": 57,
      "hit": false,
      "t": 1935.4840000000002,
      "d": 1931.451741666667,
      "v": 99
    },
    {
      "midi": 61,
      "hit": false,
      "t": 1935.4840000000002,
      "d": 1931.451741666667,
      "v": 91
    },
    {
      "midi": 66,
      "hit": false,
      "t": 1935.4840000000002,
      "d": 1931.451741666667,
      "v": 90
    },
    {
      "midi": 47,
      "hit": false,
      "t": 3870.9680000000003,
      "d": 1931.4517416666663,
      "v": 96
    },
    {
      "midi": 57,
      "hit": false,
      "t": 3870.9680000000003,
      "d": 1931.4517416666663,
      "v": 96
    },
    {
      "midi": 62,
      "hit": false,
      "t": 3870.9680000000003,
      "d": 1931.4517416666663,
      "v": 94
    },
    {
      "midi": 66,
      "hit": false,
      "t": 3870.9680000000003,
      "d": 1931.4517416666663,
      "v": 87
    },
    {
      "midi": 50,
      "hit": false,
      "t": 5806.452,
      "d": 1931.4517416666667,
      "v": 97
    },
    {
      "midi": 57,
      "hit": false,
      "t": 5806.452,
      "d": 1931.4517416666667,
      "v": 97
    },
    {
      "midi": 62,
      "hit": false,
      "t": 5806.452,
      "d": 1931.4517416666667,
      "v": 97
    },
    {
      "midi": 66,
      "hit": false,
      "t": 5806.452,
      "d": 1931.4517416666667,
      "v": 89
    },
    {
      "midi": 64,
      "hit": false,
      "t": 5806.452,
      "d": 81.65323124999941,
      "v": 87
    },
    {
      "midi": 66,
      "hit": false,
      "t": 6169.35525,
      "d": 87.7016187500003,
      "v": 89
    },
    {
      "midi": 61,
      "hit": false,
      "t": 6532.2585,
      "d": 74.59677916666715,
      "v": 88
    },
    {
      "midi": 64,
      "hit": false,
      "t": 6774.194,
      "d": 79.63710208333396,
      "v": 87
    },
    {
      "midi": 64,
      "hit": false,
      "t": 7016.129500000001,
      "d": 69.55645625000034,
      "v": 66
    },
    {
      "midi": 66,
      "hit": false,
      "t": 7137.097250000002,
      "d": 130.04033124999933,
      "v": 81
    },
    {
      "midi": 61,
      "hit": false,
      "t": 7500.000500000001,
      "d": 94.75807083333257,
      "v": 84
    },
    {
      "midi": 49,
      "hit": false,
      "t": 7741.936000000001,
      "d": 1931.4517416666667,
      "v": 90
    },
    {
      "midi": 56,
      "hit": false,
      "t": 7741.936000000001,
      "d": 1931.4517416666667,
      "v": 93
    },
    {
      "midi": 59,
      "hit": false,
      "t": 7741.936000000001,
      "d": 1931.4517416666667,
      "v": 96
    },
    {
      "midi": 61,
      "hit": false,
      "t": 7741.936000000001,
      "d": 1931.4517416666667,
      "v": 94
    },
    {
      "midi": 64,
      "hit": false,
      "t": 7741.936000000001,
      "d": 81.65323125000032,
      "v": 87
    },
    {
      "midi": 66,
      "hit": false,
      "t": 8104.839250000001,
      "d": 87.7016187499994,
      "v": 89
    },
    {
      "midi": 61,
      "hit": false,
      "t": 8467.742499999998,
      "d": 74.59677916666624,
      "v": 88
    },
    {
      "midi": 64,
      "hit": false,
      "t": 8709.677999999998,
      "d": 79.63710208333396,
      "v": 87
    },
    {
      "midi": 64,
      "hit": false,
      "t": 8951.613499999998,
      "d": 69.55645625000034,
      "v": 66
    },
    {
      "midi": 66,
      "hit": false,
      "t": 9072.581249999997,
      "d": 130.04033125000024,
      "v": 81
    },
    {
      "midi": 61,
      "hit": false,
      "t": 9435.484499999997,
      "d": 94.75807083333348,
      "v": 84
    },
    {
      "midi": 64,
      "hit": false,
      "t": 9677.419999999996,
      "d": 81.65323125000032,
      "v": 87
    },
    {
      "midi": 42,
      "hit": false,
      "t": 9677.42,
      "d": 1931.4517416666658,
      "v": 97
    },
    {
      "midi": 57,
      "hit": false,
      "t": 9677.42,
      "d": 1931.4517416666658,
      "v": 99
    },
    {
      "midi": 61,
      "hit": false,
      "t": 9677.42,
      "d": 1931.4517416666658,
      "v": 91
    },
    {
      "midi": 66,
      "hit": false,
      "t": 9677.42,
      "d": 1931.4517416666658,
      "v": 90
    },
    {
      "midi": 30,
      "hit": false,
      "t": 9677.42,
      "d": 410.2822854166661,
      "v": 114
    },
    {
      "midi": 66,
      "hit": false,
      "t": 10040.323249999998,
      "d": 87.7016187499994,
      "v": 89
    },
    {
      "midi": 61,
      "hit": false,
      "t": 10403.226499999995,
      "d": 74.59677916666624,
      "v": 88
    },
    {
      "midi": 30,
      "hit": false,
      "t": 10403.226499999999,
      "d": 100.80645833333256,
      "v": 110
    },
    {
      "midi": 64,
      "hit": false,
      "t": 10645.161999999995,
      "d": 79.63710208333396,
      "v": 87
    },
    {
      "midi": 30,
      "hit": false,
      "t": 10645.161999999998,
      "d": 256.04840416666593,
      "v": 118
    },
    {
      "midi": 64,
      "hit": false,
      "t": 10887.097499999996,
      "d": 69.55645625000034,
      "v": 66
    },
    {
      "midi": 66,
      "hit": false,
      "t": 11008.065249999996,
      "d": 130.04033125000024,
      "v": 81
    },
    {
      "midi": 30,
      "hit": false,
      "t": 11008.065249999998,
      "d": 236.8951770833337,
      "v": 116
    },
    {
      "midi": 61,
      "hit": false,
      "t": 11370.968499999997,
      "d": 94.75807083333348,
      "v": 84
    },
    {
      "midi": 30,
      "hit": false,
      "t": 11370.968499999999,
      "d": 153.22581666666701,
      "v": 114
    },
    {
      "midi": 47,
      "hit": false,
      "t": 11612.903999999999,
      "d": 1931.4517416666677,
      "v": 96
    },
    {
      "midi": 57,
      "hit": false,
      "t": 11612.903999999999,
      "d": 1931.4517416666677,
      "v": 96
    },
    {
      "midi": 62,
      "hit": false,
      "t": 11612.903999999999,
      "d": 1931.4517416666677,
      "v": 94
    },
    {
      "midi": 66,
      "hit": false,
      "t": 11612.903999999999,
      "d": 1931.4517416666677,
      "v": 87
    },
    {
      "midi": 64,
      "hit": false,
      "t": 11612.903999999999,
      "d": 81.65323125000032,
      "v": 87
    },
    {
      "midi": 35,
      "hit": false,
      "t": 11612.903999999999,
      "d": 370.96776666666665,
      "v": 118
    },
    {
      "midi": 66,
      "hit": false,
      "t": 11975.807249999998,
      "d": 87.70161875000122,
      "v": 89
    },
    {
      "midi": 61,
      "hit": false,
      "t": 12338.7105,
      "d": 74.59677916666624,
      "v": 88
    },
    {
      "midi": 35,
      "hit": false,
      "t": 12338.7105,
      "d": 106.85484583333346,
      "v": 112
    },
    {
      "midi": 64,
      "hit": false,
      "t": 12580.645999999999,
      "d": 79.63710208333396,
      "v": 87
    },
    {
      "midi": 35,
      "hit": false,
      "t": 12580.645999999999,
      "d": 263.10485625,
      "v": 116
    },
    {
      "midi": 64,
      "hit": false,
      "t": 12822.5815,
      "d": 69.55645625000034,
      "v": 66
    },
    {
      "midi": 35,
      "hit": false,
      "t": 12943.549249999998,
      "d": 227.82259583333325,
      "v": 116
    },
    {
      "midi": 66,
      "hit": false,
      "t": 12943.54925,
      "d": 130.04033125000024,
      "v": 81
    },
    {
      "midi": 35,
      "hit": false,
      "t": 13306.452499999998,
      "d": 163.30646250000063,
      "v": 114
    },
    {
      "midi": 61,
      "hit": false,
      "t": 13306.4525,
      "d": 94.75807083333348,
      "v": 84
    },
    {
      "midi": 50,
      "hit": false,
      "t": 13548.387999999999,
      "d": 1931.4517416666677,
      "v": 97
    },
    {
      "midi": 57,
      "hit": false,
      "t": 13548.387999999999,
      "d": 1931.4517416666677,
      "v": 97
    },
    {
      "midi": 62,
      "hit": false,
      "t": 13548.387999999999,
      "d": 1931.4517416666677,
      "v": 97
    },
    {
      "midi": 66,
      "hit": false,
      "t": 13548.387999999999,
      "d": 1931.4517416666677,
      "v": 89
    },
    {
      "midi": 64,
      "hit": false,
      "t": 13548.387999999999,
      "d": 81.65323125000032,
      "v": 87
    },
    {
      "midi": 38,
      "hit": false,
      "t": 13548.387999999999,
      "d": 365.92744375000075,
      "v": 114
    },
    {
      "midi": 66,
      "hit": false,
      "t": 13911.291249999998,
      "d": 87.7016187499994,
      "v": 89
    },
    {
      "midi": 61,
      "hit": false,
      "t": 14274.194499999998,
      "d": 74.59677916666624,
      "v": 88
    },
    {
      "midi": 38,
      "hit": false,
      "t": 14274.1945,
      "d": 106.85484583333346,
      "v": 114
    },
    {
      "midi": 64,
      "hit": false,
      "t": 14516.129999999997,
      "d": 79.63710208333396,
      "v": 87
    },
    {
      "midi": 38,
      "hit": false,
      "t": 14516.13,
      "d": 259.0725979166673,
      "v": 112
    },
    {
      "midi": 64,
      "hit": false,
      "t": 14758.065499999999,
      "d": 69.55645625000034,
      "v": 66
    },
    {
      "midi": 66,
      "hit": false,
      "t": 14879.033249999999,
      "d": 130.04033125000024,
      "v": 81
    },
    {
      "midi": 38,
      "hit": false,
      "t": 14879.03325,
      "d": 240.9274354166664,
      "v": 114
    },
    {
      "midi": 61,
      "hit": false,
      "t": 15241.936499999998,
      "d": 94.75807083333348,
      "v": 84
    },
    {
      "midi": 38,
      "hit": false,
      "t": 15241.9365,
      "d": 175.4032375000006,
      "v": 112
    },
    {
      "midi": 64,
      "hit": false,
      "t": 15483.871999999998,
      "d": 81.65323125000032,
      "v": 87
    },
    {
      "midi": 49,
      "hit": false,
      "t": 15483.872,
      "d": 1931.4517416666677,
      "v": 90
    },
    {
      "midi": 56,
      "hit": false,
      "t": 15483.872,
      "d": 1931.4517416666677,
      "v": 93
    },
    {
      "midi": 59,
      "hit": false,
      "t": 15483.872,
      "d": 1931.4517416666677,
      "v": 96
    },
    {
      "midi": 61,
      "hit": false,
      "t": 15483.872,
      "d": 1931.4517416666677,
      "v": 94
    },
    {
      "midi": 37,
      "hit": false,
      "t": 15483.872000000001,
      "d": 375.00002499999937,
      "v": 110
    },
    {
      "midi": 66,
      "hit": false,
      "t": 15846.775249999999,
      "d": 87.7016187499994,
      "v": 89
    },
    {
      "midi": 61,
      "hit": false,
      "t": 16209.678499999998,
      "d": 74.59677916666624,
      "v": 88
    },
    {
      "midi": 37,
      "hit": false,
      "t": 16209.6785,
      "d": 119.95968541666662,
      "v": 107
    },
    {
      "midi": 64,
      "hit": false,
      "t": 16451.613999999998,
      "d": 79.63710208333214,
      "v": 87
    },
    {
      "midi": 37,
      "hit": false,
      "t": 16451.614,
      "d": 313.5080854166663,
      "v": 112
    },
    {
      "midi": 64,
      "hit": false,
      "t": 16693.549499999997,
      "d": 69.55645625000034,
      "v": 66
    },
    {
      "midi": 66,
      "hit": false,
      "t": 16814.517249999997,
      "d": 130.04033124999842,
      "v": 81
    },
    {
      "midi": 37,
      "hit": false,
      "t": 16814.51725,
      "d": 273.1855020833318,
      "v": 110
    },
    {
      "midi": 61,
      "hit": false,
      "t": 17177.420499999997,
      "d": 94.75807083333348,
      "v": 84
    },
    {
      "midi": 37,
      "hit": false,
      "t": 17177.4205,
      "d": 212.70162708333373,
      "v": 109
    },
    {
      "midi": 64,
      "hit": false,
      "t": 17419.355999999996,
      "d": 81.6532312499985,
      "v": 87
    },
    {
      "midi": 42,
      "hit": false,
      "t": 17419.356,
      "d": 1931.4517416666677,
      "v": 97
    },
    {
      "midi": 57,
      "hit": false,
      "t": 17419.356,
      "d": 1931.4517416666677,
      "v": 99
    },
    {
      "midi": 61,
      "hit": false,
      "t": 17419.356,
      "d": 1931.4517416666677,
      "v": 91
    },
    {
      "midi": 66,
      "hit": false,
      "t": 17419.356,
      "d": 1931.4517416666677,
      "v": 90
    },
    {
      "midi": 30,
      "hit": false,
      "t": 17419.356,
      "d": 410.2822854166661,
      "v": 114
    },
    {
      "midi": 66,
      "hit": false,
      "t": 17782.259249999996,
      "d": 87.70161875000122,
      "v": 89
    },
    {
      "midi": 61,
      "hit": false,
      "t": 18145.1625,
      "d": 74.59677916666624,
      "v": 88
    },
    {
      "midi": 30,
      "hit": false,
      "t": 18145.1625,
      "d": 100.80645833333256,
      "v": 110
    },
    {
      "midi": 64,
      "hit": false,
      "t": 18387.097999999998,
      "d": 79.63710208333214,
      "v": 87
    },
    {
      "midi": 30,
      "hit": false,
      "t": 18387.097999999998,
      "d": 256.04840416666775,
      "v": 118
    },
    {
      "midi": 64,
      "hit": false,
      "t": 18629.033499999998,
      "d": 69.55645625000034,
      "v": 66
    },
    {
      "midi": 66,
      "hit": false,
      "t": 18750.001249999998,
      "d": 130.04033124999842,
      "v": 81
    },
    {
      "midi": 30,
      "hit": false,
      "t": 18750.001249999998,
      "d": 236.8951770833337,
      "v": 116
    },
    {
      "midi": 61,
      "hit": false,
      "t": 19112.904499999997,
      "d": 94.75807083333348,
      "v": 84
    },
    {
      "midi": 30,
      "hit": false,
      "t": 19112.904499999997,
      "d": 153.2258166666652,
      "v": 114
    },
    {
      "midi": 64,
      "hit": false,
      "t": 19354.839999999997,
      "d": 81.6532312499985,
      "v": 87
    },
    {
      "midi": 35,
      "hit": false,
      "t": 19354.839999999997,
      "d": 370.96776666666847,
      "v": 118
    },
    {
      "midi": 47,
      "hit": false,
      "t": 19354.84,
      "d": 1931.4517416666677,
      "v": 96
    },
    {
      "midi": 57,
      "hit": false,
      "t": 19354.84,
      "d": 1931.4517416666677,
      "v": 96
    },
    {
      "midi": 62,
      "hit": false,
      "t": 19354.84,
      "d": 1931.4517416666677,
      "v": 94
    },
    {
      "midi": 66,
      "hit": false,
      "t": 19354.84,
      "d": 1931.4517416666677,
      "v": 87
    },
    {
      "midi": 66,
      "hit": false,
      "t": 19717.743249999996,
      "d": 87.70161875000122,
      "v": 89
    },
    {
      "midi": 61,
      "hit": false,
      "t": 20080.646499999995,
      "d": 74.59677916666624,
      "v": 88
    },
    {
      "midi": 35,
      "hit": false,
      "t": 20080.6465,
      "d": 106.85484583333164,
      "v": 112
    },
    {
      "midi": 64,
      "hit": false,
      "t": 20322.581999999995,
      "d": 79.63710208333214,
      "v": 87
    },
    {
      "midi": 35,
      "hit": false,
      "t": 20322.582,
      "d": 263.10485625,
      "v": 116
    },
    {
      "midi": 64,
      "hit": false,
      "t": 20564.517499999994,
      "d": 69.55645625000034,
      "v": 66
    },
    {
      "midi": 66,
      "hit": false,
      "t": 20685.485249999994,
      "d": 130.04033124999842,
      "v": 81
    },
    {
      "midi": 35,
      "hit": false,
      "t": 20685.485249999998,
      "d": 227.82259583333507,
      "v": 116
    },
    {
      "midi": 61,
      "hit": false,
      "t": 21048.388499999994,
      "d": 94.75807083333348,
      "v": 84
    },
    {
      "midi": 35,
      "hit": false,
      "t": 21048.3885,
      "d": 163.30646250000063,
      "v": 114
    },
    {
      "midi": 64,
      "hit": false,
      "t": 21290.323999999993,
      "d": 81.6532312499985,
      "v": 87
    },
    {
      "midi": 50,
      "hit": false,
      "t": 21290.324,
      "d": 1931.4517416666677,
      "v": 97
    },
    {
      "midi": 57,
      "hit": false,
      "t": 21290.324,
      "d": 1931.4517416666677,
      "v": 97
    },
    {
      "midi": 62,
      "hit": false,
      "t": 21290.324,
      "d": 1931.4517416666677,
      "v": 97
    },
    {
      "midi": 66,
      "hit": false,
      "t": 21290.324,
      "d": 1931.4517416666677,
      "v": 89
    },
    {
      "midi": 38,
      "hit": false,
      "t": 21290.324,
      "d": 365.92744374999893,
      "v": 114
    },
    {
      "midi": 66,
      "hit": false,
      "t": 21653.227249999993,
      "d": 87.70161875000122,
      "v": 89
    },
    {
      "midi": 61,
      "hit": false,
      "t": 22016.130499999992,
      "d": 74.59677916666624,
      "v": 88
    },
    {
      "midi": 38,
      "hit": false,
      "t": 22016.1305,
      "d": 106.85484583333164,
      "v": 114
    },
    {
      "midi": 64,
      "hit": false,
      "t": 22258.06599999999,
      "d": 79.63710208333214,
      "v": 87
    },
    {
      "midi": 38,
      "hit": false,
      "t": 22258.066,
      "d": 259.0725979166673,
      "v": 112
    },
    {
      "midi": 64,
      "hit": false,
      "t": 22500.00149999999,
      "d": 69.55645625000034,
      "v": 66
    },
    {
      "midi": 66,
      "hit": false,
      "t": 22620.96924999999,
      "d": 130.04033124999842,
      "v": 81
    },
    {
      "midi": 38,
      "hit": false,
      "t": 22620.96925,
      "d": 240.9274354166664,
      "v": 114
    },
    {
      "midi": 61,
      "hit": false,
      "t": 22983.87249999999,
      "d": 94.75807083333348,
      "v": 84
    },
    {
      "midi": 38,
      "hit": false,
      "t": 22983.872499999998,
      "d": 175.4032374999988,
      "v": 112
    },
    {
      "midi": 64,
      "hit": false,
      "t": 23225.80799999999,
      "d": 81.6532312499985,
      "v": 87
    },
    {
      "midi": 37,
      "hit": false,
      "t": 23225.807999999997,
      "d": 375.0000250000012,
      "v": 110
    },
    {
      "midi": 49,
      "hit": false,
      "t": 23225.808,
      "d": 1931.4517416666677,
      "v": 90
    },
    {
      "midi": 56,
      "hit": false,
      "t": 23225.808,
      "d": 1931.4517416666677,
      "v": 93
    },
    {
      "midi": 59,
      "hit": false,
      "t": 23225.808,
      "d": 1931.4517416666677,
      "v": 96
    },
    {
      "midi": 61,
      "hit": false,
      "t": 23225.808,
      "d": 1931.4517416666677,
      "v": 94
    },
    {
      "midi": 66,
      "hit": false,
      "t": 23588.71124999999,
      "d": 87.70161875000122,
      "v": 89
    },
    {
      "midi": 61,
      "hit": false,
      "t": 23951.61449999999,
      "d": 74.59677916666624,
      "v": 88
    },
    {
      "midi": 37,
      "hit": false,
      "t": 23951.6145,
      "d": 119.95968541666662,
      "v": 107
    },
    {
      "midi": 64,
      "hit": false,
      "t": 24193.54999999999,
      "d": 79.63710208333214,
      "v": 87
    },
    {
      "midi": 37,
      "hit": false,
      "t": 24193.55,
      "d": 313.5080854166663,
      "v": 112
    },
    {
      "midi": 64,
      "hit": false,
      "t": 24435.485499999988,
      "d": 69.55645625000034,
      "v": 66
    },
    {
      "midi": 66,
      "hit": false,
      "t": 24556.453249999988,
      "d": 130.04033124999842,
      "v": 81
    },
    {
      "midi": 37,
      "hit": false,
      "t": 24556.45325,
      "d": 273.1855020833318,
      "v": 110
    },
    {
      "midi": 61,
      "hit": false,
      "t": 24919.356499999987,
      "d": 94.75807083333348,
      "v": 84
    },
    {
      "midi": 37,
      "hit": false,
      "t": 24919.356499999998,
      "d": 212.70162708333373,
      "v": 109
    },
    {
      "midi": 64,
      "hit": false,
      "t": 25161.291999999987,
      "d": 81.6532312499985,
      "v": 87
    },
    {
      "midi": 30,
      "hit": false,
      "t": 25161.291999999998,
      "d": 410.2822854166661,
      "v": 114
    },
    {
      "midi": 42,
      "hit": false,
      "t": 25161.292,
      "d": 1931.4517416666677,
      "v": 97
    },
    {
      "midi": 57,
      "hit": false,
      "t": 25161.292,
      "d": 1931.4517416666677,
      "v": 99
    },
    {
      "midi": 61,
      "hit": false,
      "t": 25161.292,
      "d": 1931.4517416666677,
      "v": 91
    },
    {
      "midi": 66,
      "hit": false,
      "t": 25161.292,
      "d": 1931.4517416666677,
      "v": 90
    },
    {
      "midi": 66,
      "hit": false,
      "t": 25524.195249999986,
      "d": 87.70161875000122,
      "v": 89
    },
    {
      "midi": 61,
      "hit": false,
      "t": 25887.098499999986,
      "d": 74.59677916666624,
      "v": 88
    },
    {
      "midi": 30,
      "hit": false,
      "t": 25887.098499999996,
      "d": 100.80645833333256,
      "v": 110
    },
    {
      "midi": 64,
      "hit": false,
      "t": 26129.033999999985,
      "d": 79.63710208333214,
      "v": 87
    },
    {
      "midi": 30,
      "hit": false,
      "t": 26129.033999999996,
      "d": 256.04840416666775,
      "v": 118
    },
    {
      "midi": 64,
      "hit": false,
      "t": 26370.969499999985,
      "d": 69.55645625000034,
      "v": 66
    },
    {
      "midi": 66,
      "hit": false,
      "t": 26491.937249999984,
      "d": 130.04033124999842,
      "v": 81
    },
    {
      "midi": 30,
      "hit": false,
      "t": 26491.937249999995,
      "d": 236.8951770833337,
      "v": 116
    },
    {
      "midi": 61,
      "hit": false,
      "t": 26854.840499999984,
      "d": 94.75807083333348,
      "v": 84
    },
    {
      "midi": 30,
      "hit": false,
      "t": 26854.840499999995,
      "d": 153.2258166666652,
      "v": 114
    },
    {
      "midi": 64,
      "hit": false,
      "t": 27096.775999999983,
      "d": 81.6532312499985,
      "v": 87
    },
    {
      "midi": 35,
      "hit": false,
      "t": 27096.775999999994,
      "d": 370.96776666666483,
      "v": 118
    },
    {
      "midi": 47,
      "hit": false,
      "t": 27096.776,
      "d": 1931.4517416666677,
      "v": 96
    },
    {
      "midi": 57,
      "hit": false,
      "t": 27096.776,
      "d": 1931.4517416666677,
      "v": 96
    },
    {
      "midi": 62,
      "hit": false,
      "t": 27096.776,
      "d": 1931.4517416666677,
      "v": 94
    },
    {
      "midi": 66,
      "hit": false,
      "t": 27096.776,
      "d": 1931.4517416666677,
      "v": 87
    },
    {
      "midi": 66,
      "hit": false,
      "t": 27459.679249999983,
      "d": 87.70161875000122,
      "v": 89
    },
    {
      "midi": 61,
      "hit": false,
      "t": 27822.582499999982,
      "d": 74.59677916666624,
      "v": 88
    },
    {
      "midi": 35,
      "hit": false,
      "t": 27822.582499999993,
      "d": 106.85484583333164,
      "v": 112
    },
    {
      "midi": 64,
      "hit": false,
      "t": 28064.517999999982,
      "d": 79.63710208333214,
      "v": 87
    },
    {
      "midi": 35,
      "hit": false,
      "t": 28064.517999999993,
      "d": 263.10485625,
      "v": 116
    },
    {
      "midi": 64,
      "hit": false,
      "t": 28306.45349999998,
      "d": 69.55645625000034,
      "v": 66
    },
    {
      "midi": 66,
      "hit": false,
      "t": 28427.42124999998,
      "d": 130.04033124999842,
      "v": 81
    },
    {
      "midi": 35,
      "hit": false,
      "t": 28427.421249999992,
      "d": 227.82259583333507,
      "v": 116
    },
    {
      "midi": 61,
      "hit": false,
      "t": 28790.32449999998,
      "d": 94.75807083333348,
      "v": 84
    },
    {
      "midi": 35,
      "hit": false,
      "t": 28790.324499999995,
      "d": 163.30646250000063,
      "v": 114
    },
    {
      "midi": 64,
      "hit": false,
      "t": 29032.25999999998,
      "d": 81.6532312499985,
      "v": 87
    },
    {
      "midi": 38,
      "hit": false,
      "t": 29032.259999999995,
      "d": 365.92744374999893,
      "v": 114
    },
    {
      "midi": 50,
      "hit": false,
      "t": 29032.260000000002,
      "d": 1931.4517416666677,
      "v": 97
    },
    {
      "midi": 57,
      "hit": false,
      "t": 29032.260000000002,
      "d": 1931.4517416666677,
      "v": 97
    },
    {
      "midi": 62,
      "hit": false,
      "t": 29032.260000000002,
      "d": 1931.4517416666677,
      "v": 97
    },
    {
      "midi": 66,
      "hit": false,
      "t": 29032.260000000002,
      "d": 1931.4517416666677,
      "v": 89
    },
    {
      "midi": 66,
      "hit": false,
      "t": 29395.16324999998,
      "d": 87.70161875000122,
      "v": 89
    },
    {
      "midi": 61,
      "hit": false,
      "t": 29758.06649999998,
      "d": 74.59677916666624,
      "v": 88
    },
    {
      "midi": 38,
      "hit": false,
      "t": 29758.066499999994,
      "d": 106.85484583333164,
      "v": 114
    },
    {
      "midi": 64,
      "hit": false,
      "t": 30000.00199999998,
      "d": 79.63710208333214,
      "v": 87
    },
    {
      "midi": 38,
      "hit": false,
      "t": 30000.001999999993,
      "d": 259.0725979166673,
      "v": 112
    },
    {
      "midi": 64,
      "hit": false,
      "t": 30241.937499999978,
      "d": 69.55645625000034,
      "v": 66
    },
    {
      "midi": 66,
      "hit": false,
      "t": 30362.905249999978,
      "d": 130.04033124999842,
      "v": 81
    },
    {
      "midi": 38,
      "hit": false,
      "t": 30362.905249999993,
      "d": 240.9274354166664,
      "v": 114
    },
    {
      "midi": 61,
      "hit": false,
      "t": 30725.808499999977,
      "d": 94.75807083333348,
      "v": 84
    },
    {
      "midi": 38,
      "hit": false,
      "t": 30725.808499999992,
      "d": 175.4032374999988,
      "v": 112
    },
    {
      "midi": 64,
      "hit": false,
      "t": 30967.743999999977,
      "d": 81.6532312499985,
      "v": 87
    },
    {
      "midi": 37,
      "hit": false,
      "t": 30967.74399999999,
      "d": 375.0000250000012,
      "v": 110
    },
    {
      "midi": 49,
      "hit": false,
      "t": 30967.744000000002,
      "d": 1931.4517416666677,
      "v": 90
    },
    {
      "midi": 56,
      "hit": false,
      "t": 30967.744000000002,
      "d": 1931.4517416666677,
      "v": 93
    },
    {
      "midi": 59,
      "hit": false,
      "t": 30967.744000000002,
      "d": 1931.4517416666677,
      "v": 96
    },
    {
      "midi": 61,
      "hit": false,
      "t": 30967.744000000002,
      "d": 1931.4517416666677,
      "v": 94
    },
    {
      "midi": 66,
      "hit": false,
      "t": 31330.647249999976,
      "d": 87.70161875000122,
      "v": 89
    },
    {
      "midi": 61,
      "hit": false,
      "t": 31693.550499999976,
      "d": 74.59677916666624,
      "v": 88
    },
    {
      "midi": 37,
      "hit": false,
      "t": 31693.550499999994,
      "d": 119.95968541666662,
      "v": 107
    },
    {
      "midi": 64,
      "hit": false,
      "t": 31935.485999999975,
      "d": 79.63710208333214,
      "v": 87
    },
    {
      "midi": 37,
      "hit": false,
      "t": 31935.485999999994,
      "d": 313.5080854166663,
      "v": 112
    },
    {
      "midi": 64,
      "hit": false,
      "t": 32177.421499999975,
      "d": 69.55645625000034,
      "v": 66
    },
    {
      "midi": 66,
      "hit": false,
      "t": 32298.389249999975,
      "d": 130.04033124999842,
      "v": 81
    },
    {
      "midi": 37,
      "hit": false,
      "t": 32298.389249999993,
      "d": 273.1855020833318,
      "v": 110
    },
    {
      "midi": 61,
      "hit": false,
      "t": 32661.292499999974,
      "d": 94.75807083333348,
      "v": 84
    },
    {
      "midi": 37,
      "hit": false,
      "t": 32661.292499999992,
      "d": 212.7016270833301,
      "v": 109
    },
    {
      "midi": 64,
      "hit": false,
      "t": 32903.227999999974,
      "d": 81.6532312499985,
      "v": 87
    },
    {
      "midi": 30,
      "hit": false,
      "t": 32903.22799999999,
      "d": 410.2822854166661,
      "v": 114
    },
    {
      "midi": 42,
      "hit": false,
      "t": 32903.228,
      "d": 1931.451741666664,
      "v": 97
    },
    {
      "midi": 57,
      "hit": false,
      "t": 32903.228,
      "d": 1931.451741666664,
      "v": 99
    },
    {
      "midi": 61,
      "hit": false,
      "t": 32903.228,
      "d": 1931.451741666664,
      "v": 91
    },
    {
      "midi": 66,
      "hit": false,
      "t": 32903.228,
      "d": 1931.451741666664,
      "v": 90
    },
    {
      "midi": 66,
      "hit": false,
      "t": 33266.13124999997,
      "d": 87.70161874999758,
      "v": 89
    },
    {
      "midi": 61,
      "hit": false,
      "t": 33629.034499999965,
      "d": 74.59677916666988,
      "v": 88
    },
    {
      "midi": 30,
      "hit": false,
      "t": 33629.03449999999,
      "d": 100.80645833333256,
      "v": 110
    },
    {
      "midi": 64,
      "hit": false,
      "t": 33870.969999999965,
      "d": 79.63710208333214,
      "v": 87
    },
    {
      "midi": 30,
      "hit": false,
      "t": 33870.96999999999,
      "d": 256.0484041666641,
      "v": 118
    },
    {
      "midi": 64,
      "hit": false,
      "t": 34112.905499999964,
      "d": 69.55645625000034,
      "v": 66
    },
    {
      "midi": 66,
      "hit": false,
      "t": 34233.87324999997,
      "d": 130.04033124999842,
      "v": 81
    },
    {
      "midi": 30,
      "hit": false,
      "t": 34233.87324999998,
      "d": 236.89517708333005,
      "v": 116
    },
    {
      "midi": 61,
      "hit": false,
      "t": 34596.77649999996,
      "d": 94.75807083333348,
      "v": 84
    },
    {
      "midi": 30,
      "hit": false,
      "t": 34596.77649999998,
      "d": 153.2258166666652,
      "v": 114
    },
    {
      "midi": 64,
      "hit": false,
      "t": 34838.71199999996,
      "d": 81.6532312499985,
      "v": 87
    },
    {
      "midi": 35,
      "hit": false,
      "t": 34838.71199999998,
      "d": 370.96776666666847,
      "v": 118
    },
    {
      "midi": 47,
      "hit": false,
      "t": 34838.712,
      "d": 1931.451741666664,
      "v": 96
    },
    {
      "midi": 57,
      "hit": false,
      "t": 34838.712,
      "d": 1931.451741666664,
      "v": 96
    },
    {
      "midi": 62,
      "hit": false,
      "t": 34838.712,
      "d": 1931.451741666664,
      "v": 94
    },
    {
      "midi": 66,
      "hit": false,
      "t": 34838.712,
      "d": 1931.451741666664,
      "v": 87
    },
    {
      "midi": 66,
      "hit": false,
      "t": 35201.61524999996,
      "d": 87.70161874999758,
      "v": 89
    },
    {
      "midi": 61,
      "hit": false,
      "t": 35564.518499999955,
      "d": 74.59677916666988,
      "v": 88
    },
    {
      "midi": 35,
      "hit": false,
      "t": 35564.51849999998,
      "d": 106.85484583333164,
      "v": 112
    },
    {
      "midi": 64,
      "hit": false,
      "t": 35806.453999999954,
      "d": 79.63710208333214,
      "v": 87
    },
    {
      "midi": 35,
      "hit": false,
      "t": 35806.453999999976,
      "d": 263.10485625,
      "v": 116
    },
    {
      "midi": 64,
      "hit": false,
      "t": 36048.389499999954,
      "d": 69.55645625000034,
      "v": 66
    },
    {
      "midi": 66,
      "hit": false,
      "t": 36169.35724999996,
      "d": 130.04033124999842,
      "v": 81
    },
    {
      "midi": 35,
      "hit": false,
      "t": 36169.35724999998,
      "d": 227.82259583333507,
      "v": 116
    },
    {
      "midi": 61,
      "hit": false,
      "t": 36532.26049999995,
      "d": 94.75807083333348,
      "v": 84
    },
    {
      "midi": 35,
      "hit": false,
      "t": 36532.26049999998,
      "d": 163.306462499997,
      "v": 114
    },
    {
      "midi": 64,
      "hit": false,
      "t": 36774.19599999995,
      "d": 81.6532312499985,
      "v": 87
    },
    {
      "midi": 38,
      "hit": false,
      "t": 36774.19599999998,
      "d": 365.92744374999893,
      "v": 114
    },
    {
      "midi": 50,
      "hit": false,
      "t": 36774.195999999996,
      "d": 1931.451741666664,
      "v": 97
    },
    {
      "midi": 57,
      "hit": false,
      "t": 36774.195999999996,
      "d": 1931.451741666664,
      "v": 97
    },
    {
      "midi": 62,
      "hit": false,
      "t": 36774.195999999996,
      "d": 1931.451741666664,
      "v": 97
    },
    {
      "midi": 66,
      "hit": false,
      "t": 36774.195999999996,
      "d": 1931.451741666664,
      "v": 89
    },
    {
      "midi": 66,
      "hit": false,
      "t": 37137.09924999995,
      "d": 87.70161874999758,
      "v": 89
    },
    {
      "midi": 61,
      "hit": false,
      "t": 37500.002499999944,
      "d": 74.59677916666988,
      "v": 88
    },
    {
      "midi": 38,
      "hit": false,
      "t": 37500.00249999998,
      "d": 106.85484583333164,
      "v": 114
    },
    {
      "midi": 64,
      "hit": false,
      "t": 37741.937999999944,
      "d": 79.63710208333214,
      "v": 87
    },
    {
      "midi": 38,
      "hit": false,
      "t": 37741.93799999998,
      "d": 259.0725979166673,
      "v": 112
    },
    {
      "midi": 64,
      "hit": false,
      "t": 37983.87349999994,
      "d": 69.55645625000034,
      "v": 66
    },
    {
      "midi": 66,
      "hit": false,
      "t": 38104.84124999995,
      "d": 130.04033124999842,
      "v": 81
    },
    {
      "midi": 38,
      "hit": false,
      "t": 38104.84124999998,
      "d": 240.92743541667005,
      "v": 114
    },
    {
      "midi": 61,
      "hit": false,
      "t": 38467.74449999994,
      "d": 94.75807083333348,
      "v": 84
    },
    {
      "midi": 38,
      "hit": false,
      "t": 38467.744499999986,
      "d": 175.40323750000243,
      "v": 112
    },
    {
      "midi": 64,
      "hit": false,
      "t": 38709.67999999994,
      "d": 81.6532312499985,
      "v": 87
    },
    {
      "midi": 37,
      "hit": false,
      "t": 38709.679999999986,
      "d": 375.0000250000012,
      "v": 110
    },
    {
      "midi": 49,
      "hit": false,
      "t": 38709.67999999999,
      "d": 1931.451741666664,
      "v": 90
    },
    {
      "midi": 56,
      "hit": false,
      "t": 38709.67999999999,
      "d": 1931.451741666664,
      "v": 93
    },
    {
      "midi": 59,
      "hit": false,
      "t": 38709.67999999999,
      "d": 1931.451741666664,
      "v": 96
    },
    {
      "midi": 61,
      "hit": false,
      "t": 38709.67999999999,
      "d": 1931.451741666664,
      "v": 94
    },
    {
      "midi": 66,
      "hit": false,
      "t": 39072.58324999994,
      "d": 87.70161874999758,
      "v": 89
    },
    {
      "midi": 61,
      "hit": false,
      "t": 39435.48649999993,
      "d": 74.59677916666988,
      "v": 88
    },
    {
      "midi": 37,
      "hit": false,
      "t": 39435.486499999985,
      "d": 119.95968541666662,
      "v": 107
    },
    {
      "midi": 64,
      "hit": false,
      "t": 39677.42199999993,
      "d": 79.63710208333214,
      "v": 87
    },
    {
      "midi": 37,
      "hit": false,
      "t": 39677.421999999984,
      "d": 313.5080854166663,
      "v": 112
    },
    {
      "midi": 64,
      "hit": false,
      "t": 39919.35749999993,
      "d": 69.55645625000034,
      "v": 66
    },
    {
      "midi": 66,
      "hit": false,
      "t": 40040.325249999936,
      "d": 130.04033124999842,
      "v": 81
    },
    {
      "midi": 37,
      "hit": false,
      "t": 40040.32524999999,
      "d": 273.1855020833318,
      "v": 110
    },
    {
      "midi": 61,
      "hit": false,
      "t": 40403.22849999993,
      "d": 94.75807083333348,
      "v": 84
    },
    {
      "midi": 37,
      "hit": false,
      "t": 40403.22849999998,
      "d": 212.70162708333373,
      "v": 109
    },
    {
      "midi": 64,
      "hit": false,
      "t": 40645.16399999993,
      "d": 81.6532312499985,
      "v": 87
    },
    {
      "midi": 30,
      "hit": false,
      "t": 40645.16399999998,
      "d": 410.2822854166661,
      "v": 114
    },
    {
      "midi": 42,
      "hit": false,
      "t": 40645.16399999999,
      "d": 1931.451741666664,
      "v": 97
    },
    {
      "midi": 57,
      "hit": false,
      "t": 40645.16399999999,
      "d": 1931.451741666664,
      "v": 99
    },
    {
      "midi": 61,
      "hit": false,
      "t": 40645.16399999999,
      "d": 1931.451741666664,
      "v": 91
    },
    {
      "midi": 66,
      "hit": false,
      "t": 40645.16399999999,
      "d": 1931.451741666664,
      "v": 90
    },
    {
      "midi": 66,
      "hit": false,
      "t": 41008.06724999993,
      "d": 87.70161874999758,
      "v": 89
    },
    {
      "midi": 61,
      "hit": false,
      "t": 41370.97049999992,
      "d": 74.59677916666988,
      "v": 88
    },
    {
      "midi": 30,
      "hit": false,
      "t": 41370.97049999998,
      "d": 100.80645833333256,
      "v": 110
    },
    {
      "midi": 64,
      "hit": false,
      "t": 41612.90599999992,
      "d": 79.63710208333214,
      "v": 87
    },
    {
      "midi": 30,
      "hit": false,
      "t": 41612.90599999998,
      "d": 256.0484041666641,
      "v": 118
    },
    {
      "midi": 64,
      "hit": false,
      "t": 41854.84149999992,
      "d": 69.55645625000034,
      "v": 66
    },
    {
      "midi": 66,
      "hit": false,
      "t": 41975.809249999926,
      "d": 130.04033124999842,
      "v": 81
    },
    {
      "midi": 30,
      "hit": false,
      "t": 41975.80924999998,
      "d": 236.89517708333005,
      "v": 116
    },
    {
      "midi": 61,
      "hit": false,
      "t": 42338.71249999992,
      "d": 94.75807083333348,
      "v": 84
    },
    {
      "midi": 30,
      "hit": false,
      "t": 42338.71249999997,
      "d": 153.2258166666652,
      "v": 114
    },
    {
      "midi": 64,
      "hit": false,
      "t": 42580.64799999992,
      "d": 81.6532312499985,
      "v": 87
    },
    {
      "midi": 35,
      "hit": false,
      "t": 42580.64799999997,
      "d": 370.96776666666847,
      "v": 118
    },
    {
      "midi": 47,
      "hit": false,
      "t": 42580.64799999999,
      "d": 1931.451741666664,
      "v": 96
    },
    {
      "midi": 57,
      "hit": false,
      "t": 42580.64799999999,
      "d": 1931.451741666664,
      "v": 96
    },
    {
      "midi": 62,
      "hit": false,
      "t": 42580.64799999999,
      "d": 1931.451741666664,
      "v": 94
    },
    {
      "midi": 66,
      "hit": false,
      "t": 42580.64799999999,
      "d": 1931.451741666664,
      "v": 87
    },
    {
      "midi": 66,
      "hit": false,
      "t": 42943.55124999992,
      "d": 87.70161874999758,
      "v": 89
    },
    {
      "midi": 61,
      "hit": false,
      "t": 43306.45449999991,
      "d": 74.59677916666988,
      "v": 88
    },
    {
      "midi": 35,
      "hit": false,
      "t": 43306.45449999997,
      "d": 106.85484583333164,
      "v": 112
    },
    {
      "midi": 64,
      "hit": false,
      "t": 43548.38999999991,
      "d": 79.63710208333214,
      "v": 87
    },
    {
      "midi": 35,
      "hit": false,
      "t": 43548.38999999997,
      "d": 263.10485625,
      "v": 116
    },
    {
      "midi": 64,
      "hit": false,
      "t": 43790.32549999991,
      "d": 69.55645625000034,
      "v": 66
    },
    {
      "midi": 66,
      "hit": false,
      "t": 43911.293249999915,
      "d": 130.04033124999842,
      "v": 81
    },
    {
      "midi": 35,
      "hit": false,
      "t": 43911.29324999997,
      "d": 227.82259583333507,
      "v": 116
    },
    {
      "midi": 61,
      "hit": false,
      "t": 44274.19649999991,
      "d": 94.75807083333348,
      "v": 84
    },
    {
      "midi": 35,
      "hit": false,
      "t": 44274.19649999998,
      "d": 163.306462499997,
      "v": 114
    },
    {
      "midi": 64,
      "hit": false,
      "t": 44516.13199999991,
      "d": 81.6532312499985,
      "v": 87
    },
    {
      "midi": 38,
      "hit": false,
      "t": 44516.131999999976,
      "d": 365.92744374999893,
      "v": 114
    },
    {
      "midi": 50,
      "hit": false,
      "t": 44516.13199999998,
      "d": 1931.451741666664,
      "v": 97
    },
    {
      "midi": 57,
      "hit": false,
      "t": 44516.13199999998,
      "d": 1931.451741666664,
      "v": 97
    },
    {
      "midi": 62,
      "hit": false,
      "t": 44516.13199999998,
      "d": 1931.451741666664,
      "v": 97
    },
    {
      "midi": 66,
      "hit": false,
      "t": 44516.13199999998,
      "d": 1931.451741666664,
      "v": 89
    },
    {
      "midi": 66,
      "hit": false,
      "t": 44879.035249999906,
      "d": 87.70161874999758,
      "v": 89
    },
    {
      "midi": 61,
      "hit": false,
      "t": 45241.9384999999,
      "d": 74.59677916666988,
      "v": 88
    },
    {
      "midi": 38,
      "hit": false,
      "t": 45241.938499999975,
      "d": 106.85484583333164,
      "v": 114
    },
    {
      "midi": 64,
      "hit": false,
      "t": 45483.8739999999,
      "d": 79.63710208333214,
      "v": 87
    },
    {
      "midi": 38,
      "hit": false,
      "t": 45483.873999999974,
      "d": 259.0725979166673,
      "v": 112
    },
    {
      "midi": 64,
      "hit": false,
      "t": 45725.8094999999,
      "d": 69.55645625000034,
      "v": 66
    },
    {
      "midi": 66,
      "hit": false,
      "t": 45846.777249999905,
      "d": 130.04033124999842,
      "v": 81
    },
    {
      "midi": 38,
      "hit": false,
      "t": 45846.77724999998,
      "d": 240.92743541667005,
      "v": 114
    },
    {
      "midi": 61,
      "hit": false,
      "t": 46209.6804999999,
      "d": 94.75807083333348,
      "v": 84
    },
    {
      "midi": 38,
      "hit": false,
      "t": 46209.68049999998,
      "d": 175.40323750000243,
      "v": 112
    },
    {
      "midi": 64,
      "hit": false,
      "t": 46451.6159999999,
      "d": 81.6532312499985,
      "v": 87
    },
    {
      "midi": 49,
      "hit": false,
      "t": 46451.61599999998,
      "d": 1931.451741666664,
      "v": 90
    },
    {
      "midi": 56,
      "hit": false,
      "t": 46451.61599999998,
      "d": 1931.451741666664,
      "v": 93
    },
    {
      "midi": 59,
      "hit": false,
      "t": 46451.61599999998,
      "d": 1931.451741666664,
      "v": 96
    },
    {
      "midi": 61,
      "hit": false,
      "t": 46451.61599999998,
      "d": 1931.451741666664,
      "v": 94
    },
    {
      "midi": 37,
      "hit": false,
      "t": 46451.61599999998,
      "d": 375.0000250000012,
      "v": 110
    },
    {
      "midi": 66,
      "hit": false,
      "t": 46814.519249999896,
      "d": 87.70161874999758,
      "v": 89
    },
    {
      "midi": 61,
      "hit": false,
      "t": 47177.42249999989,
      "d": 74.59677916666988,
      "v": 88
    },
    {
      "midi": 37,
      "hit": false,
      "t": 47177.42249999998,
      "d": 119.95968541666662,
      "v": 107
    },
    {
      "midi": 64,
      "hit": false,
      "t": 47419.35799999989,
      "d": 79.63710208333214,
      "v": 87
    },
    {
      "midi": 37,
      "hit": false,
      "t": 47419.35799999998,
      "d": 313.5080854166663,
      "v": 112
    },
    {
      "midi": 64,
      "hit": false,
      "t": 47661.29349999989,
      "d": 69.55645625000034,
      "v": 66
    },
    {
      "midi": 66,
      "hit": false,
      "t": 47782.261249999894,
      "d": 130.04033124999842,
      "v": 81
    },
    {
      "midi": 37,
      "hit": false,
      "t": 47782.26124999998,
      "d": 273.1855020833318,
      "v": 110
    },
    {
      "midi": 61,
      "hit": false,
      "t": 48145.16449999989,
      "d": 94.75807083333348,
      "v": 84
    },
    {
      "midi": 37,
      "hit": false,
      "t": 48145.16449999998,
      "d": 212.70162708333373,
      "v": 109
    },
    {
      "midi": 64,
      "hit": false,
      "t": 48387.09999999989,
      "d": 81.6532312499985,
      "v": 87
    },
    {
      "midi": 42,
      "hit": false,
      "t": 48387.09999999998,
      "d": 1931.451741666664,
      "v": 97
    },
    {
      "midi": 57,
      "hit": false,
      "t": 48387.09999999998,
      "d": 1931.451741666664,
      "v": 99
    },
    {
      "midi": 61,
      "hit": false,
      "t": 48387.09999999998,
      "d": 1931.451741666664,
      "v": 91
    },
    {
      "midi": 66,
      "hit": false,
      "t": 48387.09999999998,
      "d": 1931.451741666664,
      "v": 90
    },
    {
      "midi": 30,
      "hit": false,
      "t": 48387.09999999998,
      "d": 410.2822854166661,
      "v": 114
    },
    {
      "midi": 66,
      "hit": false,
      "t": 48750.003249999885,
      "d": 87.70161874999758,
      "v": 89
    },
    {
      "midi": 61,
      "hit": false,
      "t": 49112.90649999988,
      "d": 74.59677916666988,
      "v": 88
    },
    {
      "midi": 30,
      "hit": false,
      "t": 49112.906499999975,
      "d": 100.80645833333256,
      "v": 110
    },
    {
      "midi": 64,
      "hit": false,
      "t": 49354.84199999988,
      "d": 79.63710208333214,
      "v": 87
    },
    {
      "midi": 30,
      "hit": false,
      "t": 49354.841999999975,
      "d": 256.0484041666641,
      "v": 118
    },
    {
      "midi": 64,
      "hit": false,
      "t": 49596.77749999988,
      "d": 69.55645625000034,
      "v": 66
    },
    {
      "midi": 66,
      "hit": false,
      "t": 49717.74524999988,
      "d": 130.04033124999842,
      "v": 81
    },
    {
      "midi": 30,
      "hit": false,
      "t": 49717.74524999997,
      "d": 236.89517708333005,
      "v": 116
    },
    {
      "midi": 61,
      "hit": false,
      "t": 50080.64849999988,
      "d": 94.75807083333348,
      "v": 84
    },
    {
      "midi": 30,
      "hit": false,
      "t": 50080.64849999997,
      "d": 153.2258166666652,
      "v": 114
    },
    {
      "midi": 64,
      "hit": false,
      "t": 50322.58399999988,
      "d": 81.6532312499985,
      "v": 87
    },
    {
      "midi": 35,
      "hit": false,
      "t": 50322.583999999966,
      "d": 370.96776666666847,
      "v": 118
    },
    {
      "midi": 47,
      "hit": false,
      "t": 50322.58399999997,
      "d": 1931.451741666664,
      "v": 96
    },
    {
      "midi": 57,
      "hit": false,
      "t": 50322.58399999997,
      "d": 1931.451741666664,
      "v": 96
    },
    {
      "midi": 62,
      "hit": false,
      "t": 50322.58399999997,
      "d": 1931.451741666664,
      "v": 94
    },
    {
      "midi": 66,
      "hit": false,
      "t": 50322.58399999997,
      "d": 1931.451741666664,
      "v": 87
    },
    {
      "midi": 66,
      "hit": false,
      "t": 50685.487249999875,
      "d": 87.70161874999758,
      "v": 89
    },
    {
      "midi": 61,
      "hit": false,
      "t": 51048.39049999987,
      "d": 74.59677916666988,
      "v": 88
    },
    {
      "midi": 35,
      "hit": false,
      "t": 51048.390499999965,
      "d": 106.85484583333164,
      "v": 112
    },
    {
      "midi": 64,
      "hit": false,
      "t": 51290.32599999987,
      "d": 79.63710208333214,
      "v": 87
    },
    {
      "midi": 35,
      "hit": false,
      "t": 51290.325999999965,
      "d": 263.10485625,
      "v": 116
    },
    {
      "midi": 64,
      "hit": false,
      "t": 51532.26149999987,
      "d": 69.55645625000034,
      "v": 66
    },
    {
      "midi": 66,
      "hit": false,
      "t": 51653.22924999987,
      "d": 130.04033124999842,
      "v": 81
    },
    {
      "midi": 35,
      "hit": false,
      "t": 51653.22924999997,
      "d": 227.82259583333507,
      "v": 116
    },
    {
      "midi": 61,
      "hit": false,
      "t": 52016.13249999987,
      "d": 94.75807083333348,
      "v": 84
    },
    {
      "midi": 35,
      "hit": false,
      "t": 52016.13249999997,
      "d": 163.306462499997,
      "v": 114
    },
    {
      "midi": 64,
      "hit": false,
      "t": 52258.06799999987,
      "d": 81.6532312499985,
      "v": 87
    },
    {
      "midi": 50,
      "hit": false,
      "t": 52258.06799999997,
      "d": 1931.451741666664,
      "v": 97
    },
    {
      "midi": 57,
      "hit": false,
      "t": 52258.06799999997,
      "d": 1931.451741666664,
      "v": 97
    },
    {
      "midi": 62,
      "hit": false,
      "t": 52258.06799999997,
      "d": 1931.451741666664,
      "v": 97
    },
    {
      "midi": 66,
      "hit": false,
      "t": 52258.06799999997,
      "d": 1931.451741666664,
      "v": 89
    },
    {
      "midi": 38,
      "hit": false,
      "t": 52258.06799999997,
      "d": 365.92744374999893,
      "v": 114
    },
    {
      "midi": 66,
      "hit": false,
      "t": 52620.971249999864,
      "d": 87.70161874999758,
      "v": 89
    },
    {
      "midi": 61,
      "hit": false,
      "t": 52983.87449999986,
      "d": 74.59677916666988,
      "v": 88
    },
    {
      "midi": 38,
      "hit": false,
      "t": 52983.87449999997,
      "d": 106.85484583333164,
      "v": 114
    },
    {
      "midi": 64,
      "hit": false,
      "t": 53225.80999999986,
      "d": 79.63710208333214,
      "v": 87
    },
    {
      "midi": 38,
      "hit": false,
      "t": 53225.80999999997,
      "d": 259.0725979166673,
      "v": 112
    },
    {
      "midi": 64,
      "hit": false,
      "t": 53467.74549999986,
      "d": 69.55645625000034,
      "v": 66
    },
    {
      "midi": 66,
      "hit": false,
      "t": 53588.71324999986,
      "d": 130.04033124999842,
      "v": 81
    },
    {
      "midi": 38,
      "hit": false,
      "t": 53588.71324999997,
      "d": 240.92743541667005,
      "v": 114
    },
    {
      "midi": 61,
      "hit": false,
      "t": 53951.61649999986,
      "d": 94.75807083333348,
      "v": 84
    },
    {
      "midi": 38,
      "hit": false,
      "t": 53951.616499999975,
      "d": 175.40323750000243,
      "v": 112
    },
    {
      "midi": 64,
      "hit": false,
      "t": 54193.55199999986,
      "d": 81.6532312499985,
      "v": 87
    },
    {
      "midi": 49,
      "hit": false,
      "t": 54193.55199999997,
      "d": 1931.451741666664,
      "v": 90
    },
    {
      "midi": 56,
      "hit": false,
      "t": 54193.55199999997,
      "d": 1931.451741666664,
      "v": 93
    },
    {
      "midi": 59,
      "hit": false,
      "t": 54193.55199999997,
      "d": 1931.451741666664,
      "v": 96
    },
    {
      "midi": 61,
      "hit": false,
      "t": 54193.55199999997,
      "d": 1931.451741666664,
      "v": 94
    },
    {
      "midi": 37,
      "hit": false,
      "t": 54193.551999999974,
      "d": 375.0000250000012,
      "v": 110
    },
    {
      "midi": 66,
      "hit": false,
      "t": 54556.45524999985,
      "d": 87.70161874999758,
      "v": 89
    },
    {
      "midi": 61,
      "hit": false,
      "t": 54919.35849999985,
      "d": 74.59677916666988,
      "v": 88
    },
    {
      "midi": 37,
      "hit": false,
      "t": 54919.35849999997,
      "d": 119.95968541666662,
      "v": 107
    },
    {
      "midi": 64,
      "hit": false,
      "t": 55161.29399999985,
      "d": 79.63710208333214,
      "v": 87
    },
    {
      "midi": 37,
      "hit": false,
      "t": 55161.29399999997,
      "d": 313.5080854166663,
      "v": 112
    },
    {
      "midi": 64,
      "hit": false,
      "t": 55403.22949999985,
      "d": 69.55645625000034,
      "v": 66
    },
    {
      "midi": 66,
      "hit": false,
      "t": 55524.19724999985,
      "d": 130.04033124999842,
      "v": 81
    },
    {
      "midi": 37,
      "hit": false,
      "t": 55524.197249999976,
      "d": 273.1855020833318,
      "v": 110
    },
    {
      "midi": 61,
      "hit": false,
      "t": 55887.10049999985,
      "d": 94.75807083333348,
      "v": 84
    },
    {
      "midi": 37,
      "hit": false,
      "t": 55887.10049999997,
      "d": 212.70162708333373,
      "v": 109
    },
    {
      "midi": 64,
      "hit": false,
      "t": 56129.03599999985,
      "d": 81.6532312499985,
      "v": 87
    },
    {
      "midi": 42,
      "hit": false,
      "t": 56129.035999999964,
      "d": 1931.451741666664,
      "v": 97
    },
    {
      "midi": 57,
      "hit": false,
      "t": 56129.035999999964,
      "d": 1931.451741666664,
      "v": 99
    },
    {
      "midi": 61,
      "hit": false,
      "t": 56129.035999999964,
      "d": 1931.451741666664,
      "v": 91
    },
    {
      "midi": 66,
      "hit": false,
      "t": 56129.035999999964,
      "d": 1931.451741666664,
      "v": 90
    },
    {
      "midi": 30,
      "hit": false,
      "t": 56129.03599999997,
      "d": 410.2822854166661,
      "v": 114
    },
    {
      "midi": 66,
      "hit": false,
      "t": 56491.93924999984,
      "d": 87.70161874999758,
      "v": 89
    },
    {
      "midi": 61,
      "hit": false,
      "t": 56854.84249999984,
      "d": 74.59677916666988,
      "v": 88
    },
    {
      "midi": 30,
      "hit": false,
      "t": 56854.84249999997,
      "d": 100.80645833333256,
      "v": 110
    },
    {
      "midi": 64,
      "hit": false,
      "t": 57096.77799999984,
      "d": 79.63710208333214,
      "v": 87
    },
    {
      "midi": 30,
      "hit": false,
      "t": 57096.77799999997,
      "d": 256.0484041666641,
      "v": 118
    },
    {
      "midi": 64,
      "hit": false,
      "t": 57338.71349999984,
      "d": 69.55645625000034,
      "v": 66
    },
    {
      "midi": 66,
      "hit": false,
      "t": 57459.68124999984,
      "d": 130.04033124999842,
      "v": 81
    },
    {
      "midi": 30,
      "hit": false,
      "t": 57459.681249999965,
      "d": 236.89517708333005,
      "v": 116
    },
    {
      "midi": 61,
      "hit": false,
      "t": 57822.58449999984,
      "d": 94.75807083333348,
      "v": 84
    },
    {
      "midi": 30,
      "hit": false,
      "t": 57822.58449999996,
      "d": 153.2258166666652,
      "v": 114
    },
    {
      "midi": 64,
      "hit": false,
      "t": 58064.51999999984,
      "d": 81.6532312499985,
      "v": 87
    },
    {
      "midi": 47,
      "hit": false,
      "t": 58064.51999999996,
      "d": 1931.451741666664,
      "v": 96
    },
    {
      "midi": 57,
      "hit": false,
      "t": 58064.51999999996,
      "d": 1931.451741666664,
      "v": 96
    },
    {
      "midi": 62,
      "hit": false,
      "t": 58064.51999999996,
      "d": 1931.451741666664,
      "v": 94
    },
    {
      "midi": 66,
      "hit": false,
      "t": 58064.51999999996,
      "d": 1931.451741666664,
      "v": 87
    },
    {
      "midi": 35,
      "hit": false,
      "t": 58064.51999999996,
      "d": 370.96776666666847,
      "v": 118
    },
    {
      "midi": 66,
      "hit": false,
      "t": 58427.42324999983,
      "d": 87.70161874999758,
      "v": 89
    },
    {
      "midi": 61,
      "hit": false,
      "t": 58790.32649999983,
      "d": 74.59677916666988,
      "v": 88
    },
    {
      "midi": 35,
      "hit": false,
      "t": 58790.32649999996,
      "d": 106.85484583333164,
      "v": 112
    },
    {
      "midi": 64,
      "hit": false,
      "t": 59032.26199999983,
      "d": 79.63710208333214,
      "v": 87
    },
    {
      "midi": 35,
      "hit": false,
      "t": 59032.26199999996,
      "d": 263.10485625,
      "v": 116
    },
    {
      "midi": 64,
      "hit": false,
      "t": 59274.19749999983,
      "d": 69.55645625000034,
      "v": 66
    },
    {
      "midi": 66,
      "hit": false,
      "t": 59395.16524999983,
      "d": 130.04033124999842,
      "v": 81
    },
    {
      "midi": 35,
      "hit": false,
      "t": 59395.16524999996,
      "d": 227.82259583333507,
      "v": 116
    },
    {
      "midi": 61,
      "hit": false,
      "t": 59758.06849999983,
      "d": 94.75807083333348,
      "v": 84
    },
    {
      "midi": 35,
      "hit": false,
      "t": 59758.068499999965,
      "d": 163.306462499997,
      "v": 114
    },
    {
      "midi": 64,
      "hit": false,
      "t": 60000.003999999826,
      "d": 81.6532312499985,
      "v": 87
    },
    {
      "midi": 50,
      "hit": false,
      "t": 60000.00399999996,
      "d": 1931.451741666664,
      "v": 97
    },
    {
      "midi": 57,
      "hit": false,
      "t": 60000.00399999996,
      "d": 1931.451741666664,
      "v": 97
    },
    {
      "midi": 62,
      "hit": false,
      "t": 60000.00399999996,
      "d": 1931.451741666664,
      "v": 97
    },
    {
      "midi": 66,
      "hit": false,
      "t": 60000.00399999996,
      "d": 1931.451741666664,
      "v": 89
    },
    {
      "midi": 38,
      "hit": false,
      "t": 60000.003999999964,
      "d": 365.92744374999893,
      "v": 114
    },
    {
      "midi": 66,
      "hit": false,
      "t": 60362.90724999982,
      "d": 87.70161874999758,
      "v": 89
    },
    {
      "midi": 61,
      "hit": false,
      "t": 60725.81049999982,
      "d": 74.59677916666988,
      "v": 88
    },
    {
      "midi": 38,
      "hit": false,
      "t": 60725.81049999996,
      "d": 106.85484583333164,
      "v": 114
    },
    {
      "midi": 64,
      "hit": false,
      "t": 60967.74599999982,
      "d": 79.63710208333214,
      "v": 87
    },
    {
      "midi": 38,
      "hit": false,
      "t": 60967.74599999996,
      "d": 259.0725979166673,
      "v": 112
    },
    {
      "midi": 64,
      "hit": false,
      "t": 61209.68149999982,
      "d": 69.55645625000034,
      "v": 66
    },
    {
      "midi": 66,
      "hit": false,
      "t": 61330.64924999982,
      "d": 130.04033124999842,
      "v": 81
    },
    {
      "midi": 38,
      "hit": false,
      "t": 61330.649249999966,
      "d": 240.92743541667005,
      "v": 114
    },
    {
      "midi": 61,
      "hit": false,
      "t": 61693.552499999816,
      "d": 94.75807083333348,
      "v": 84
    },
    {
      "midi": 38,
      "hit": false,
      "t": 61693.55249999997,
      "d": 175.40323750000243,
      "v": 112
    },
    {
      "midi": 64,
      "hit": false,
      "t": 61935.487999999816,
      "d": 81.6532312499985,
      "v": 87
    },
    {
      "midi": 49,
      "hit": false,
      "t": 61935.487999999954,
      "d": 1931.451741666664,
      "v": 90
    },
    {
      "midi": 56,
      "hit": false,
      "t": 61935.487999999954,
      "d": 1931.451741666664,
      "v": 93
    },
    {
      "midi": 59,
      "hit": false,
      "t": 61935.487999999954,
      "d": 1931.451741666664,
      "v": 96
    },
    {
      "midi": 61,
      "hit": false,
      "t": 61935.487999999954,
      "d": 1931.451741666664,
      "v": 94
    },
    {
      "midi": 37,
      "hit": false,
      "t": 61935.48799999997,
      "d": 375.0000250000012,
      "v": 110
    },
    {
      "midi": 66,
      "hit": false,
      "t": 62298.39124999981,
      "d": 87.70161874999758,
      "v": 89
    },
    {
      "midi": 61,
      "hit": false,
      "t": 62661.29449999981,
      "d": 74.59677916666988,
      "v": 88
    },
    {
      "midi": 37,
      "hit": false,
      "t": 62661.29449999997,
      "d": 119.95968541666662,
      "v": 107
    },
    {
      "midi": 64,
      "hit": false,
      "t": 62903.22999999981,
      "d": 79.63710208333214,
      "v": 87
    },
    {
      "midi": 37,
      "hit": false,
      "t": 62903.22999999997,
      "d": 313.5080854166663,
      "v": 112
    },
    {
      "midi": 64,
      "hit": false,
      "t": 63145.165499999806,
      "d": 69.55645625000034,
      "v": 66
    },
    {
      "midi": 66,
      "hit": false,
      "t": 63266.13324999981,
      "d": 130.04033124999842,
      "v": 81
    },
    {
      "midi": 37,
      "hit": false,
      "t": 63266.13324999997,
      "d": 273.1855020833318,
      "v": 110
    },
    {
      "midi": 61,
      "hit": false,
      "t": 63629.036499999806,
      "d": 94.75807083333348,
      "v": 84
    },
    {
      "midi": 37,
      "hit": false,
      "t": 63629.036499999966,
      "d": 212.70162708333373,
      "v": 109
    },
    {
      "midi": 64,
      "hit": false,
      "t": 63870.971999999805,
      "d": 81.6532312499985,
      "v": 87
    },
    {
      "midi": 30,
      "hit": false,
      "t": 63870.971999999965,
      "d": 410.2822854166661,
      "v": 114
    },
    {
      "midi": 66,
      "hit": false,
      "t": 64233.8752499998,
      "d": 87.70161874999758,
      "v": 89
    },
    {
      "midi": 61,
      "hit": false,
      "t": 64596.7784999998,
      "d": 74.59677916666988,
      "v": 88
    },
    {
      "midi": 30,
      "hit": false,
      "t": 64596.778499999964,
      "d": 100.80645833333256,
      "v": 110
    },
    {
      "midi": 64,
      "hit": false,
      "t": 64838.713999999796,
      "d": 79.63710208333214,
      "v": 87
    },
    {
      "midi": 30,
      "hit": false,
      "t": 64838.71399999996,
      "d": 256.0484041666641,
      "v": 118
    },
    {
      "midi": 64,
      "hit": false,
      "t": 65080.649499999796,
      "d": 69.55645625000034,
      "v": 66
    },
    {
      "midi": 66,
      "hit": false,
      "t": 65201.6172499998,
      "d": 130.04033124999842,
      "v": 81
    },
    {
      "midi": 30,
      "hit": false,
      "t": 65201.61724999996,
      "d": 236.89517708333005,
      "v": 116
    },
    {
      "midi": 61,
      "hit": false,
      "t": 65564.5204999998,
      "d": 94.7580708333262,
      "v": 84
    },
    {
      "midi": 30,
      "hit": false,
      "t": 65564.52049999996,
      "d": 153.22581666667247,
      "v": 114
    },
    {
      "midi": 64,
      "hit": false,
      "t": 65806.45599999979,
      "d": 81.65323125000577,
      "v": 87
    },
    {
      "midi": 35,
      "hit": false,
      "t": 65806.45599999996,
      "d": 370.96776666666847,
      "v": 118
    },
    {
      "midi": 66,
      "hit": false,
      "t": 66169.35924999979,
      "d": 87.70161874999758,
      "v": 89
    },
    {
      "midi": 61,
      "hit": false,
      "t": 66532.2624999998,
      "d": 74.5967791666626,
      "v": 88
    },
    {
      "midi": 35,
      "hit": false,
      "t": 66532.26249999997,
      "d": 106.85484583333891,
      "v": 112
    },
    {
      "midi": 64,
      "hit": false,
      "t": 66774.19799999979,
      "d": 79.63710208333214,
      "v": 87
    },
    {
      "midi": 35,
      "hit": false,
      "t": 66774.19799999997,
      "d": 263.10485624999274,
      "v": 116
    },
    {
      "midi": 64,
      "hit": false,
      "t": 67016.13349999978,
      "d": 69.55645624999306,
      "v": 66
    },
    {
      "midi": 66,
      "hit": false,
      "t": 67137.10124999977,
      "d": 130.04033124999842,
      "v": 81
    },
    {
      "midi": 35,
      "hit": false,
      "t": 67137.10124999996,
      "d": 227.82259583333507,
      "v": 116
    },
    {
      "midi": 61,
      "hit": false,
      "t": 67500.00449999978,
      "d": 94.7580708333262,
      "v": 84
    },
    {
      "midi": 35,
      "hit": false,
      "t": 67500.00449999997,
      "d": 163.306462499997,
      "v": 114
    },
    {
      "midi": 64,
      "hit": false,
      "t": 67741.93999999977,
      "d": 81.65323125000577,
      "v": 87
    },
    {
      "midi": 30,
      "hit": false,
      "t": 67741.93999999996,
      "d": 410.2822854166734,
      "v": 114
    },
    {
      "midi": 66,
      "hit": false,
      "t": 68104.84324999977,
      "d": 87.70161874999758,
      "v": 89
    },
    {
      "midi": 61,
      "hit": false,
      "t": 68467.74649999978,
      "d": 74.5967791666626,
      "v": 88
    },
    {
      "midi": 30,
      "hit": false,
      "t": 68467.74649999996,
      "d": 100.80645833333256,
      "v": 110
    },
    {
      "midi": 64,
      "hit": false,
      "t": 68709.68199999977,
      "d": 79.63710208333214,
      "v": 87
    },
    {
      "midi": 30,
      "hit": false,
      "t": 68709.68199999996,
      "d": 256.0484041666641,
      "v": 118
    },
    {
      "midi": 64,
      "hit": false,
      "t": 68951.61749999976,
      "d": 69.55645624999306,
      "v": 66
    },
    {
      "midi": 66,
      "hit": false,
      "t": 69072.58524999976,
      "d": 130.04033124999842,
      "v": 81
    },
    {
      "midi": 30,
      "hit": false,
      "t": 69072.58524999996,
      "d": 236.89517708333733,
      "v": 116
    },
    {
      "midi": 61,
      "hit": false,
      "t": 69435.48849999976,
      "d": 94.7580708333262,
      "v": 84
    },
    {
      "midi": 30,
      "hit": false,
      "t": 69435.48849999996,
      "d": 153.22581666667247,
      "v": 114
    },
    {
      "midi": 64,
      "hit": false,
      "t": 69677.42399999975,
      "d": 81.65323125000577,
      "v": 87
    },
    {
      "midi": 35,
      "hit": false,
      "t": 69677.42399999997,
      "d": 370.96776666666847,
      "v": 118
    },
    {
      "midi": 66,
      "hit": false,
      "t": 70040.32724999975,
      "d": 87.70161874999758,
      "v": 89
    },
    {
      "midi": 61,
      "hit": false,
      "t": 70403.23049999976,
      "d": 74.5967791666626,
      "v": 88
    },
    {
      "midi": 35,
      "hit": false,
      "t": 70403.23049999998,
      "d": 106.85484583333891,
      "v": 112
    },
    {
      "midi": 64,
      "hit": false,
      "t": 70645.16599999975,
      "d": 79.63710208333214,
      "v": 87
    },
    {
      "midi": 35,
      "hit": false,
      "t": 70645.16599999998,
      "d": 263.1048562500073,
      "v": 116
    },
    {
      "midi": 64,
      "hit": false,
      "t": 70887.10149999974,
      "d": 69.55645624999306,
      "v": 66
    },
    {
      "midi": 66,
      "hit": false,
      "t": 71008.06924999974,
      "d": 130.04033124999842,
      "v": 81
    },
    {
      "midi": 35,
      "hit": false,
      "t": 71008.06924999999,
      "d": 227.82259583333507,
      "v": 116
    },
    {
      "midi": 61,
      "hit": false,
      "t": 71370.97249999974,
      "d": 94.7580708333262,
      "v": 84
    },
    {
      "midi": 35,
      "hit": false,
      "t": 71370.97249999999,
      "d": 163.306462499997,
      "v": 114
    },
    {
      "midi": 64,
      "hit": false,
      "t": 71612.90799999973,
      "d": 81.65323125000577,
      "v": 87
    },
    {
      "midi": 30,
      "hit": false,
      "t": 71612.90799999998,
      "d": 410.2822854166734,
      "v": 114
    },
    {
      "midi": 66,
      "hit": false,
      "t": 71975.81124999974,
      "d": 87.70161874999758,
      "v": 89
    },
    {
      "midi": 61,
      "hit": false,
      "t": 72338.71449999974,
      "d": 74.5967791666626,
      "v": 88
    },
    {
      "midi": 30,
      "hit": false,
      "t": 72338.71449999999,
      "d": 100.80645833333256,
      "v": 110
    },
    {
      "midi": 64,
      "hit": false,
      "t": 72580.64999999973,
      "d": 79.63710208333214,
      "v": 87
    },
    {
      "midi": 30,
      "hit": false,
      "t": 72580.64999999998,
      "d": 256.0484041666641,
      "v": 118
    },
    {
      "midi": 64,
      "hit": false,
      "t": 72822.58549999972,
      "d": 69.55645624999306,
      "v": 66
    },
    {
      "midi": 66,
      "hit": false,
      "t": 72943.55324999972,
      "d": 130.04033124999842,
      "v": 81
    },
    {
      "midi": 30,
      "hit": false,
      "t": 72943.55324999998,
      "d": 236.89517708333733,
      "v": 116
    },
    {
      "midi": 61,
      "hit": false,
      "t": 73306.45649999972,
      "d": 94.7580708333262,
      "v": 84
    },
    {
      "midi": 30,
      "hit": false,
      "t": 73306.45649999999,
      "d": 153.22581666667247,
      "v": 114
    },
    {
      "midi": 64,
      "hit": false,
      "t": 73548.39199999972,
      "d": 81.65323125000577,
      "v": 87
    },
    {
      "midi": 35,
      "hit": false,
      "t": 73548.39199999999,
      "d": 370.96776666666847,
      "v": 118
    },
    {
      "midi": 66,
      "hit": false,
      "t": 73911.29524999972,
      "d": 87.70161874999758,
      "v": 89
    },
    {
      "midi": 61,
      "hit": false,
      "t": 74274.19849999972,
      "d": 74.5967791666626,
      "v": 88
    },
    {
      "midi": 35,
      "hit": false,
      "t": 74274.1985,
      "d": 106.85484583333891,
      "v": 112
    },
    {
      "midi": 64,
      "hit": false,
      "t": 74516.13399999971,
      "d": 79.63710208333214,
      "v": 87
    },
    {
      "midi": 35,
      "hit": false,
      "t": 74516.134,
      "d": 263.1048562500073,
      "v": 116
    },
    {
      "midi": 64,
      "hit": false,
      "t": 74758.0694999997,
      "d": 69.55645624999306,
      "v": 66
    },
    {
      "midi": 66,
      "hit": false,
      "t": 74879.0372499997,
      "d": 130.04033124999842,
      "v": 81
    },
    {
      "midi": 35,
      "hit": false,
      "t": 74879.03725000001,
      "d": 227.82259583333507,
      "v": 116
    },
    {
      "midi": 61,
      "hit": false,
      "t": 75241.9404999997,
      "d": 94.7580708333262,
      "v": 84
    },
    {
      "midi": 35,
      "hit": false,
      "t": 75241.94050000001,
      "d": 163.306462499997,
      "v": 114
    },
    {
      "midi": 64,
      "hit": false,
      "t": 75483.8759999997,
      "d": 81.65323125000577,
      "v": 87
    },
    {
      "midi": 30,
      "hit": false,
      "t": 75483.876,
      "d": 410.2822854166734,
      "v": 114
    },
    {
      "midi": 66,
      "hit": false,
      "t": 75846.7792499997,
      "d": 87.70161874999758,
      "v": 89
    },
    {
      "midi": 61,
      "hit": false,
      "t": 76209.6824999997,
      "d": 74.5967791666626,
      "v": 88
    },
    {
      "midi": 30,
      "hit": false,
      "t": 76209.68250000001,
      "d": 100.80645833333256,
      "v": 110
    },
    {
      "midi": 64,
      "hit": false,
      "t": 76451.6179999997,
      "d": 79.63710208333214,
      "v": 87
    },
    {
      "midi": 30,
      "hit": false,
      "t": 76451.618,
      "d": 256.0484041666641,
      "v": 118
    },
    {
      "midi": 64,
      "hit": false,
      "t": 76693.55349999969,
      "d": 69.55645624999306,
      "v": 66
    },
    {
      "midi": 66,
      "hit": false,
      "t": 76814.52124999969,
      "d": 130.04033124999842,
      "v": 81
    },
    {
      "midi": 30,
      "hit": false,
      "t": 76814.52125,
      "d": 236.89517708333733,
      "v": 116
    },
    {
      "midi": 61,
      "hit": false,
      "t": 77177.42449999969,
      "d": 94.7580708333262,
      "v": 84
    },
    {
      "midi": 30,
      "hit": false,
      "t": 77177.42450000001,
      "d": 153.22581666667247,
      "v": 114
    },
    {
      "midi": 64,
      "hit": false,
      "t": 77419.35999999968,
      "d": 81.65323125000577,
      "v": 87
    },
    {
      "midi": 35,
      "hit": false,
      "t": 77419.36000000002,
      "d": 370.96776666666847,
      "v": 118
    },
    {
      "midi": 66,
      "hit": false,
      "t": 77782.26324999968,
      "d": 87.70161874999758,
      "v": 89
    },
    {
      "midi": 61,
      "hit": false,
      "t": 78145.16649999969,
      "d": 74.5967791666626,
      "v": 88
    },
    {
      "midi": 35,
      "hit": false,
      "t": 78145.16650000002,
      "d": 106.85484583333891,
      "v": 112
    },
    {
      "midi": 64,
      "hit": false,
      "t": 78387.10199999968,
      "d": 79.63710208333214,
      "v": 87
    },
    {
      "midi": 35,
      "hit": false,
      "t": 78387.10200000003,
      "d": 263.1048562500073,
      "v": 116
    },
    {
      "midi": 64,
      "hit": false,
      "t": 78629.03749999967,
      "d": 69.55645624999306,
      "v": 66
    },
    {
      "midi": 66,
      "hit": false,
      "t": 78750.00524999967,
      "d": 130.04033124999842,
      "v": 81
    },
    {
      "midi": 35,
      "hit": false,
      "t": 78750.00525000003,
      "d": 227.82259583333507,
      "v": 116
    },
    {
      "midi": 61,
      "hit": false,
      "t": 79112.90849999967,
      "d": 94.7580708333262,
      "v": 84
    },
    {
      "midi": 35,
      "hit": false,
      "t": 79112.90850000003,
      "d": 163.306462499997,
      "v": 114
    },
    {
      "midi": 64,
      "hit": false,
      "t": 79354.84399999966,
      "d": 81.65323125000577,
      "v": 87
    },
    {
      "midi": 30,
      "hit": false,
      "t": 79354.84400000003,
      "d": 410.2822854166734,
      "v": 114
    },
    {
      "midi": 66,
      "hit": false,
      "t": 79717.74724999967,
      "d": 87.70161874999758,
      "v": 89
    },
    {
      "midi": 61,
      "hit": false,
      "t": 80080.65049999967,
      "d": 74.5967791666626,
      "v": 88
    },
    {
      "midi": 30,
      "hit": false,
      "t": 80080.65050000003,
      "d": 100.80645833333256,
      "v": 110
    },
    {
      "midi": 64,
      "hit": false,
      "t": 80322.58599999966,
      "d": 79.63710208333214,
      "v": 87
    },
    {
      "midi": 30,
      "hit": false,
      "t": 80322.58600000002,
      "d": 256.0484041666641,
      "v": 118
    },
    {
      "midi": 64,
      "hit": false,
      "t": 80564.52149999965,
      "d": 69.55645624999306,
      "v": 66
    },
    {
      "midi": 66,
      "hit": false,
      "t": 80685.48924999965,
      "d": 130.04033124999842,
      "v": 81
    },
    {
      "midi": 30,
      "hit": false,
      "t": 80685.48925000003,
      "d": 236.89517708333733,
      "v": 116
    },
    {
      "midi": 61,
      "hit": false,
      "t": 81048.39249999965,
      "d": 94.7580708333262,
      "v": 84
    },
    {
      "midi": 30,
      "hit": false,
      "t": 81048.39250000003,
      "d": 153.22581666667247,
      "v": 114
    },
    {
      "midi": 64,
      "hit": false,
      "t": 81290.32799999964,
      "d": 81.65323125000577,
      "v": 87
    },
    {
      "midi": 35,
      "hit": false,
      "t": 81290.32800000004,
      "d": 370.96776666666847,
      "v": 118
    },
    {
      "midi": 66,
      "hit": false,
      "t": 81653.23124999965,
      "d": 87.70161874999758,
      "v": 89
    },
    {
      "midi": 61,
      "hit": false,
      "t": 82016.13449999965,
      "d": 74.5967791666626,
      "v": 88
    },
    {
      "midi": 35,
      "hit": false,
      "t": 82016.13450000004,
      "d": 106.85484583333891,
      "v": 112
    },
    {
      "midi": 64,
      "hit": false,
      "t": 82258.06999999964,
      "d": 79.63710208333214,
      "v": 87
    },
    {
      "midi": 35,
      "hit": false,
      "t": 82258.07000000005,
      "d": 263.1048562500073,
      "v": 116
    },
    {
      "midi": 64,
      "hit": false,
      "t": 82500.00549999964,
      "d": 69.55645624999306,
      "v": 66
    },
    {
      "midi": 66,
      "hit": false,
      "t": 82620.97324999963,
      "d": 130.04033124999842,
      "v": 81
    },
    {
      "midi": 35,
      "hit": false,
      "t": 82620.97325000005,
      "d": 227.82259583333507,
      "v": 116
    },
    {
      "midi": 61,
      "hit": false,
      "t": 82983.87649999963,
      "d": 94.7580708333262,
      "v": 84
    },
    {
      "midi": 35,
      "hit": false,
      "t": 82983.87650000006,
      "d": 163.306462499997,
      "v": 114
    },
    {
      "midi": 64,
      "hit": false,
      "t": 83225.81199999963,
      "d": 81.65323125000577,
      "v": 87
    },
    {
      "midi": 42,
      "hit": false,
      "t": 83225.81199999995,
      "d": 1931.451741666664,
      "v": 97
    },
    {
      "midi": 57,
      "hit": false,
      "t": 83225.81199999995,
      "d": 1931.451741666664,
      "v": 99
    },
    {
      "midi": 61,
      "hit": false,
      "t": 83225.81199999995,
      "d": 1931.451741666664,
      "v": 91
    },
    {
      "midi": 66,
      "hit": false,
      "t": 83225.81199999995,
      "d": 1931.451741666664,
      "v": 90
    },
    {
      "midi": 30,
      "hit": false,
      "t": 83225.81200000005,
      "d": 410.2822854166734,
      "v": 114
    },
    {
      "midi": 66,
      "hit": false,
      "t": 83588.71524999963,
      "d": 87.70161874999758,
      "v": 89
    },
    {
      "midi": 61,
      "hit": false,
      "t": 83951.61849999963,
      "d": 74.5967791666626,
      "v": 88
    },
    {
      "midi": 30,
      "hit": false,
      "t": 83951.61850000006,
      "d": 100.80645833333256,
      "v": 110
    },
    {
      "midi": 64,
      "hit": false,
      "t": 84193.55399999963,
      "d": 79.63710208333214,
      "v": 87
    },
    {
      "midi": 30,
      "hit": false,
      "t": 84193.55400000005,
      "d": 256.0484041666641,
      "v": 118
    },
    {
      "midi": 64,
      "hit": false,
      "t": 84435.48949999962,
      "d": 69.55645624999306,
      "v": 66
    },
    {
      "midi": 66,
      "hit": false,
      "t": 84556.45724999961,
      "d": 130.04033124999842,
      "v": 81
    },
    {
      "midi": 30,
      "hit": false,
      "t": 84556.45725000005,
      "d": 236.89517708333733,
      "v": 116
    },
    {
      "midi": 61,
      "hit": false,
      "t": 84919.36049999962,
      "d": 94.7580708333262,
      "v": 84
    },
    {
      "midi": 30,
      "hit": false,
      "t": 84919.36050000005,
      "d": 153.22581666667247,
      "v": 114
    },
    {
      "midi": 64,
      "hit": false,
      "t": 85161.29599999961,
      "d": 81.65323125000577,
      "v": 87
    },
    {
      "midi": 47,
      "hit": false,
      "t": 85161.29599999994,
      "d": 1931.451741666664,
      "v": 96
    },
    {
      "midi": 57,
      "hit": false,
      "t": 85161.29599999994,
      "d": 1931.451741666664,
      "v": 96
    },
    {
      "midi": 62,
      "hit": false,
      "t": 85161.29599999994,
      "d": 1931.451741666664,
      "v": 94
    },
    {
      "midi": 66,
      "hit": false,
      "t": 85161.29599999994,
      "d": 1931.451741666664,
      "v": 87
    },
    {
      "midi": 35,
      "hit": false,
      "t": 85161.29600000006,
      "d": 370.96776666666847,
      "v": 118
    },
    {
      "midi": 66,
      "hit": false,
      "t": 85524.19924999961,
      "d": 87.70161874999758,
      "v": 89
    },
    {
      "midi": 61,
      "hit": false,
      "t": 85887.10249999962,
      "d": 74.5967791666626,
      "v": 88
    },
    {
      "midi": 35,
      "hit": false,
      "t": 85887.10250000007,
      "d": 106.85484583333891,
      "v": 112
    },
    {
      "midi": 64,
      "hit": false,
      "t": 86129.03799999961,
      "d": 79.63710208333214,
      "v": 87
    },
    {
      "midi": 35,
      "hit": false,
      "t": 86129.03800000007,
      "d": 263.1048562500073,
      "v": 116
    },
    {
      "midi": 64,
      "hit": false,
      "t": 86370.9734999996,
      "d": 69.55645624999306,
      "v": 66
    },
    {
      "midi": 66,
      "hit": false,
      "t": 86491.9412499996,
      "d": 130.04033124999842,
      "v": 81
    },
    {
      "midi": 35,
      "hit": false,
      "t": 86491.94125000008,
      "d": 227.82259583333507,
      "v": 116
    },
    {
      "midi": 61,
      "hit": false,
      "t": 86854.8444999996,
      "d": 94.7580708333262,
      "v": 84
    },
    {
      "midi": 35,
      "hit": false,
      "t": 86854.84450000008,
      "d": 163.306462499997,
      "v": 114
    },
    {
      "midi": 64,
      "hit": false,
      "t": 87096.77999999959,
      "d": 81.65323125000577,
      "v": 87
    },
    {
      "midi": 50,
      "hit": false,
      "t": 87096.77999999994,
      "d": 1931.451741666664,
      "v": 97
    },
    {
      "midi": 57,
      "hit": false,
      "t": 87096.77999999994,
      "d": 1931.451741666664,
      "v": 97
    },
    {
      "midi": 62,
      "hit": false,
      "t": 87096.77999999994,
      "d": 1931.451741666664,
      "v": 97
    },
    {
      "midi": 66,
      "hit": false,
      "t": 87096.77999999994,
      "d": 1931.451741666664,
      "v": 89
    },
    {
      "midi": 38,
      "hit": false,
      "t": 87096.78000000007,
      "d": 365.92744374999893,
      "v": 114
    },
    {
      "midi": 66,
      "hit": false,
      "t": 87459.6832499996,
      "d": 87.70161874999758,
      "v": 89
    },
    {
      "midi": 61,
      "hit": false,
      "t": 87822.5864999996,
      "d": 74.5967791666626,
      "v": 88
    },
    {
      "midi": 38,
      "hit": false,
      "t": 87822.58650000008,
      "d": 106.85484583333891,
      "v": 114
    },
    {
      "midi": 64,
      "hit": false,
      "t": 88064.52199999959,
      "d": 79.63710208333214,
      "v": 87
    },
    {
      "midi": 38,
      "hit": false,
      "t": 88064.52200000008,
      "d": 259.07259791666,
      "v": 112
    },
    {
      "midi": 64,
      "hit": false,
      "t": 88306.45749999958,
      "d": 69.55645624999306,
      "v": 66
    },
    {
      "midi": 66,
      "hit": false,
      "t": 88427.42524999958,
      "d": 130.04033124999842,
      "v": 81
    },
    {
      "midi": 38,
      "hit": false,
      "t": 88427.42525000007,
      "d": 240.92743541667005,
      "v": 114
    },
    {
      "midi": 61,
      "hit": false,
      "t": 88790.32849999958,
      "d": 94.7580708333262,
      "v": 84
    },
    {
      "midi": 38,
      "hit": false,
      "t": 88790.32850000008,
      "d": 175.40323749999516,
      "v": 112
    },
    {
      "midi": 64,
      "hit": false,
      "t": 89032.26399999957,
      "d": 81.65323125000577,
      "v": 87
    },
    {
      "midi": 49,
      "hit": false,
      "t": 89032.26399999994,
      "d": 1931.451741666664,
      "v": 90
    },
    {
      "midi": 56,
      "hit": false,
      "t": 89032.26399999994,
      "d": 1931.451741666664,
      "v": 93
    },
    {
      "midi": 59,
      "hit": false,
      "t": 89032.26399999994,
      "d": 1931.451741666664,
      "v": 96
    },
    {
      "midi": 61,
      "hit": false,
      "t": 89032.26399999994,
      "d": 1931.451741666664,
      "v": 94
    },
    {
      "midi": 37,
      "hit": false,
      "t": 89032.26400000007,
      "d": 375.0000250000012,
      "v": 110
    },
    {
      "midi": 66,
      "hit": false,
      "t": 89395.16724999958,
      "d": 87.70161874999758,
      "v": 89
    },
    {
      "midi": 61,
      "hit": false,
      "t": 89758.07049999958,
      "d": 74.5967791666626,
      "v": 88
    },
    {
      "midi": 37,
      "hit": false,
      "t": 89758.07050000007,
      "d": 119.95968541667389,
      "v": 107
    },
    {
      "midi": 64,
      "hit": false,
      "t": 90000.00599999957,
      "d": 79.63710208333214,
      "v": 87
    },
    {
      "midi": 37,
      "hit": false,
      "t": 90000.00600000008,
      "d": 313.50808541667357,
      "v": 112
    },
    {
      "midi": 64,
      "hit": false,
      "t": 90241.94149999956,
      "d": 69.55645624999306,
      "v": 66
    },
    {
      "midi": 66,
      "hit": false,
      "t": 90362.90924999956,
      "d": 130.04033124999842,
      "v": 81
    },
    {
      "midi": 37,
      "hit": false,
      "t": 90362.90925000008,
      "d": 273.1855020833318,
      "v": 110
    },
    {
      "midi": 61,
      "hit": false,
      "t": 90725.81249999956,
      "d": 94.7580708333262,
      "v": 84
    },
    {
      "midi": 37,
      "hit": false,
      "t": 90725.81250000009,
      "d": 212.70162708332646,
      "v": 109
    },
    {
      "midi": 64,
      "hit": false,
      "t": 90967.74799999956,
      "d": 81.65323125000577,
      "v": 87
    },
    {
      "midi": 42,
      "hit": false,
      "t": 90967.74799999993,
      "d": 1931.451741666664,
      "v": 97
    },
    {
      "midi": 57,
      "hit": false,
      "t": 90967.74799999993,
      "d": 1931.451741666664,
      "v": 99
    },
    {
      "midi": 61,
      "hit": false,
      "t": 90967.74799999993,
      "d": 1931.451741666664,
      "v": 91
    },
    {
      "midi": 66,
      "hit": false,
      "t": 90967.74799999993,
      "d": 1931.451741666664,
      "v": 90
    },
    {
      "midi": 30,
      "hit": false,
      "t": 90967.74800000008,
      "d": 410.2822854166734,
      "v": 114
    },
    {
      "midi": 66,
      "hit": false,
      "t": 91330.65124999956,
      "d": 87.70161874999758,
      "v": 89
    },
    {
      "midi": 61,
      "hit": false,
      "t": 91693.55449999956,
      "d": 74.5967791666626,
      "v": 88
    },
    {
      "midi": 30,
      "hit": false,
      "t": 91693.55450000009,
      "d": 100.80645833333256,
      "v": 110
    },
    {
      "midi": 64,
      "hit": false,
      "t": 91935.48999999955,
      "d": 79.63710208333214,
      "v": 87
    },
    {
      "midi": 30,
      "hit": false,
      "t": 91935.49000000008,
      "d": 256.0484041666641,
      "v": 118
    },
    {
      "midi": 64,
      "hit": false,
      "t": 92177.42549999955,
      "d": 69.55645624999306,
      "v": 66
    },
    {
      "midi": 66,
      "hit": false,
      "t": 92298.39324999954,
      "d": 130.04033124999842,
      "v": 81
    },
    {
      "midi": 30,
      "hit": false,
      "t": 92298.39325000008,
      "d": 236.89517708333733,
      "v": 116
    },
    {
      "midi": 61,
      "hit": false,
      "t": 92661.29649999955,
      "d": 94.7580708333262,
      "v": 84
    },
    {
      "midi": 30,
      "hit": false,
      "t": 92661.29650000008,
      "d": 153.22581666667247,
      "v": 114
    },
    {
      "midi": 64,
      "hit": false,
      "t": 92903.23199999954,
      "d": 81.65323125000577,
      "v": 87
    },
    {
      "midi": 47,
      "hit": false,
      "t": 92903.23199999993,
      "d": 1931.451741666664,
      "v": 96
    },
    {
      "midi": 57,
      "hit": false,
      "t": 92903.23199999993,
      "d": 1931.451741666664,
      "v": 96
    },
    {
      "midi": 62,
      "hit": false,
      "t": 92903.23199999993,
      "d": 1931.451741666664,
      "v": 94
    },
    {
      "midi": 66,
      "hit": false,
      "t": 92903.23199999993,
      "d": 1931.451741666664,
      "v": 87
    },
    {
      "midi": 35,
      "hit": false,
      "t": 92903.23200000009,
      "d": 370.96776666666847,
      "v": 118
    },
    {
      "midi": 66,
      "hit": false,
      "t": 93266.13524999954,
      "d": 87.70161874999758,
      "v": 89
    },
    {
      "midi": 61,
      "hit": false,
      "t": 93629.03849999954,
      "d": 74.5967791666626,
      "v": 88
    },
    {
      "midi": 35,
      "hit": false,
      "t": 93629.0385000001,
      "d": 106.85484583333891,
      "v": 112
    },
    {
      "midi": 64,
      "hit": false,
      "t": 93870.97399999954,
      "d": 79.63710208333214,
      "v": 87
    },
    {
      "midi": 35,
      "hit": false,
      "t": 93870.9740000001,
      "d": 263.10485624999274,
      "v": 116
    },
    {
      "midi": 64,
      "hit": false,
      "t": 94112.90949999953,
      "d": 69.55645624999306,
      "v": 66
    },
    {
      "midi": 66,
      "hit": false,
      "t": 94233.87724999952,
      "d": 130.04033124999842,
      "v": 81
    },
    {
      "midi": 35,
      "hit": false,
      "t": 94233.87725000009,
      "d": 227.82259583333507,
      "v": 116
    },
    {
      "midi": 61,
      "hit": false,
      "t": 94596.78049999953,
      "d": 94.7580708333262,
      "v": 84
    },
    {
      "midi": 35,
      "hit": false,
      "t": 94596.7805000001,
      "d": 163.306462499997,
      "v": 114
    },
    {
      "midi": 64,
      "hit": false,
      "t": 94838.71599999952,
      "d": 81.65323125000577,
      "v": 87
    },
    {
      "midi": 50,
      "hit": false,
      "t": 94838.71599999993,
      "d": 1931.451741666664,
      "v": 97
    },
    {
      "midi": 57,
      "hit": false,
      "t": 94838.71599999993,
      "d": 1931.451741666664,
      "v": 97
    },
    {
      "midi": 62,
      "hit": false,
      "t": 94838.71599999993,
      "d": 1931.451741666664,
      "v": 97
    },
    {
      "midi": 66,
      "hit": false,
      "t": 94838.71599999993,
      "d": 1931.451741666664,
      "v": 89
    },
    {
      "midi": 38,
      "hit": false,
      "t": 94838.71600000009,
      "d": 365.92744374999893,
      "v": 114
    },
    {
      "midi": 66,
      "hit": false,
      "t": 95201.61924999952,
      "d": 87.70161874999758,
      "v": 89
    },
    {
      "midi": 61,
      "hit": false,
      "t": 95564.52249999953,
      "d": 74.5967791666626,
      "v": 88
    },
    {
      "midi": 38,
      "hit": false,
      "t": 95564.5225000001,
      "d": 106.85484583333891,
      "v": 114
    },
    {
      "midi": 64,
      "hit": false,
      "t": 95806.45799999952,
      "d": 79.63710208333214,
      "v": 87
    },
    {
      "midi": 38,
      "hit": false,
      "t": 95806.4580000001,
      "d": 259.07259791666,
      "v": 112
    },
    {
      "midi": 64,
      "hit": false,
      "t": 96048.39349999951,
      "d": 69.55645624999306,
      "v": 66
    },
    {
      "midi": 66,
      "hit": false,
      "t": 96169.3612499995,
      "d": 130.04033124999842,
      "v": 81
    },
    {
      "midi": 38,
      "hit": false,
      "t": 96169.36125000009,
      "d": 240.92743541667005,
      "v": 114
    },
    {
      "midi": 61,
      "hit": false,
      "t": 96532.26449999951,
      "d": 94.7580708333262,
      "v": 84
    },
    {
      "midi": 38,
      "hit": false,
      "t": 96532.26450000009,
      "d": 175.40323749999516,
      "v": 112
    },
    {
      "midi": 64,
      "hit": false,
      "t": 96774.1999999995,
      "d": 81.65323125000577,
      "v": 87
    },
    {
      "midi": 49,
      "hit": false,
      "t": 96774.19999999992,
      "d": 1931.451741666664,
      "v": 90
    },
    {
      "midi": 56,
      "hit": false,
      "t": 96774.19999999992,
      "d": 1931.451741666664,
      "v": 93
    },
    {
      "midi": 59,
      "hit": false,
      "t": 96774.19999999992,
      "d": 1931.451741666664,
      "v": 96
    },
    {
      "midi": 61,
      "hit": false,
      "t": 96774.19999999992,
      "d": 1931.451741666664,
      "v": 94
    },
    {
      "midi": 37,
      "hit": false,
      "t": 96774.20000000008,
      "d": 375.0000250000012,
      "v": 110
    },
    {
      "midi": 66,
      "hit": false,
      "t": 97137.1032499995,
      "d": 87.70161874999758,
      "v": 89
    },
    {
      "midi": 61,
      "hit": false,
      "t": 97500.00649999951,
      "d": 74.5967791666626,
      "v": 88
    },
    {
      "midi": 37,
      "hit": false,
      "t": 97500.00650000009,
      "d": 119.95968541667389,
      "v": 107
    },
    {
      "midi": 64,
      "hit": false,
      "t": 97741.9419999995,
      "d": 79.63710208333214,
      "v": 87
    },
    {
      "midi": 37,
      "hit": false,
      "t": 97741.9420000001,
      "d": 313.50808541667357,
      "v": 112
    },
    {
      "midi": 64,
      "hit": false,
      "t": 97983.8774999995,
      "d": 69.55645624999306,
      "v": 66
    },
    {
      "midi": 66,
      "hit": false,
      "t": 98104.84524999949,
      "d": 130.04033124999842,
      "v": 81
    },
    {
      "midi": 37,
      "hit": false,
      "t": 98104.8452500001,
      "d": 273.1855020833318,
      "v": 110
    },
    {
      "midi": 61,
      "hit": false,
      "t": 98467.74849999949,
      "d": 94.7580708333262,
      "v": 84
    },
    {
      "midi": 37,
      "hit": false,
      "t": 98467.7485000001,
      "d": 212.70162708332646,
      "v": 109
    },
    {
      "midi": 64,
      "hit": false,
      "t": 98709.68399999948,
      "d": 81.65323125000577,
      "v": 87
    },
    {
      "midi": 42,
      "hit": false,
      "t": 98709.68399999992,
      "d": 1931.451741666664,
      "v": 97
    },
    {
      "midi": 57,
      "hit": false,
      "t": 98709.68399999992,
      "d": 1931.451741666664,
      "v": 99
    },
    {
      "midi": 61,
      "hit": false,
      "t": 98709.68399999992,
      "d": 1931.451741666664,
      "v": 91
    },
    {
      "midi": 66,
      "hit": false,
      "t": 98709.68399999992,
      "d": 1931.451741666664,
      "v": 90
    },
    {
      "midi": 30,
      "hit": false,
      "t": 98709.6840000001,
      "d": 410.2822854166734,
      "v": 114
    },
    {
      "midi": 66,
      "hit": false,
      "t": 99072.58724999949,
      "d": 87.70161874999758,
      "v": 89
    },
    {
      "midi": 61,
      "hit": false,
      "t": 99435.49049999949,
      "d": 74.5967791666626,
      "v": 88
    },
    {
      "midi": 30,
      "hit": false,
      "t": 99435.4905000001,
      "d": 100.80645833333256,
      "v": 110
    },
    {
      "midi": 64,
      "hit": false,
      "t": 99677.42599999948,
      "d": 79.63710208333214,
      "v": 87
    },
    {
      "midi": 30,
      "hit": false,
      "t": 99677.4260000001,
      "d": 256.0484041666641,
      "v": 118
    },
    {
      "midi": 64,
      "hit": false,
      "t": 99919.36149999948,
      "d": 69.55645624999306,
      "v": 66
    },
    {
      "midi": 66,
      "hit": false,
      "t": 100040.32924999947,
      "d": 130.04033124999842,
      "v": 81
    },
    {
      "midi": 30,
      "hit": false,
      "t": 100040.3292500001,
      "d": 236.89517708333733,
      "v": 116
    },
    {
      "midi": 61,
      "hit": false,
      "t": 100403.23249999947,
      "d": 94.7580708333262,
      "v": 84
    },
    {
      "midi": 30,
      "hit": false,
      "t": 100403.2325000001,
      "d": 153.22581666667247,
      "v": 114
    },
    {
      "midi": 64,
      "hit": false,
      "t": 100645.16799999947,
      "d": 81.65323125000577,
      "v": 87
    },
    {
      "midi": 47,
      "hit": false,
      "t": 100645.16799999992,
      "d": 1931.451741666664,
      "v": 96
    },
    {
      "midi": 57,
      "hit": false,
      "t": 100645.16799999992,
      "d": 1931.451741666664,
      "v": 96
    },
    {
      "midi": 62,
      "hit": false,
      "t": 100645.16799999992,
      "d": 1931.451741666664,
      "v": 94
    },
    {
      "midi": 66,
      "hit": false,
      "t": 100645.16799999992,
      "d": 1931.451741666664,
      "v": 87
    },
    {
      "midi": 35,
      "hit": false,
      "t": 100645.1680000001,
      "d": 370.96776666666847,
      "v": 118
    },
    {
      "midi": 66,
      "hit": false,
      "t": 101008.07124999947,
      "d": 87.70161874999758,
      "v": 89
    },
    {
      "midi": 61,
      "hit": false,
      "t": 101370.97449999947,
      "d": 74.5967791666626,
      "v": 88
    },
    {
      "midi": 35,
      "hit": false,
      "t": 101370.97450000011,
      "d": 106.85484583333891,
      "v": 112
    },
    {
      "midi": 64,
      "hit": false,
      "t": 101612.90999999947,
      "d": 79.63710208333214,
      "v": 87
    },
    {
      "midi": 35,
      "hit": false,
      "t": 101612.91000000012,
      "d": 263.10485624999274,
      "v": 116
    },
    {
      "midi": 64,
      "hit": false,
      "t": 101854.84549999946,
      "d": 69.55645624999306,
      "v": 66
    },
    {
      "midi": 66,
      "hit": false,
      "t": 101975.81324999945,
      "d": 130.04033124999842,
      "v": 81
    },
    {
      "midi": 35,
      "hit": false,
      "t": 101975.81325000011,
      "d": 227.82259583333507,
      "v": 116
    },
    {
      "midi": 61,
      "hit": false,
      "t": 102338.71649999946,
      "d": 94.7580708333262,
      "v": 84
    },
    {
      "midi": 35,
      "hit": false,
      "t": 102338.71650000011,
      "d": 163.306462499997,
      "v": 114
    },
    {
      "midi": 64,
      "hit": false,
      "t": 102580.65199999945,
      "d": 81.65323125000577,
      "v": 87
    },
    {
      "midi": 50,
      "hit": false,
      "t": 102580.65199999991,
      "d": 1931.451741666664,
      "v": 97
    },
    {
      "midi": 57,
      "hit": false,
      "t": 102580.65199999991,
      "d": 1931.451741666664,
      "v": 97
    },
    {
      "midi": 62,
      "hit": false,
      "t": 102580.65199999991,
      "d": 1931.451741666664,
      "v": 97
    },
    {
      "midi": 66,
      "hit": false,
      "t": 102580.65199999991,
      "d": 1931.451741666664,
      "v": 89
    },
    {
      "midi": 38,
      "hit": false,
      "t": 102580.6520000001,
      "d": 365.92744374999893,
      "v": 114
    },
    {
      "midi": 66,
      "hit": false,
      "t": 102943.55524999945,
      "d": 87.70161874999758,
      "v": 89
    },
    {
      "midi": 61,
      "hit": false,
      "t": 103306.45849999945,
      "d": 74.5967791666626,
      "v": 88
    },
    {
      "midi": 38,
      "hit": false,
      "t": 103306.45850000011,
      "d": 106.85484583333891,
      "v": 114
    },
    {
      "midi": 64,
      "hit": false,
      "t": 103548.39399999945,
      "d": 79.63710208333214,
      "v": 87
    },
    {
      "midi": 38,
      "hit": false,
      "t": 103548.39400000012,
      "d": 259.07259791666,
      "v": 112
    },
    {
      "midi": 64,
      "hit": false,
      "t": 103790.32949999944,
      "d": 69.55645624999306,
      "v": 66
    },
    {
      "midi": 66,
      "hit": false,
      "t": 103911.29724999944,
      "d": 130.04033124999842,
      "v": 81
    },
    {
      "midi": 38,
      "hit": false,
      "t": 103911.2972500001,
      "d": 240.92743541667005,
      "v": 114
    },
    {
      "midi": 61,
      "hit": false,
      "t": 104274.20049999944,
      "d": 94.7580708333262,
      "v": 84
    },
    {
      "midi": 38,
      "hit": false,
      "t": 104274.20050000011,
      "d": 175.40323749999516,
      "v": 112
    },
    {
      "midi": 64,
      "hit": false,
      "t": 104516.13599999943,
      "d": 81.65323125000577,
      "v": 87
    },
    {
      "midi": 49,
      "hit": false,
      "t": 104516.13599999991,
      "d": 1931.451741666664,
      "v": 90
    },
    {
      "midi": 56,
      "hit": false,
      "t": 104516.13599999991,
      "d": 1931.451741666664,
      "v": 93
    },
    {
      "midi": 59,
      "hit": false,
      "t": 104516.13599999991,
      "d": 1931.451741666664,
      "v": 96
    },
    {
      "midi": 61,
      "hit": false,
      "t": 104516.13599999991,
      "d": 1931.451741666664,
      "v": 94
    },
    {
      "midi": 37,
      "hit": false,
      "t": 104516.1360000001,
      "d": 375.0000250000012,
      "v": 110
    },
    {
      "midi": 66,
      "hit": false,
      "t": 104879.03924999943,
      "d": 87.70161874999758,
      "v": 89
    },
    {
      "midi": 61,
      "hit": false,
      "t": 105241.94249999944,
      "d": 74.5967791666626,
      "v": 88
    },
    {
      "midi": 37,
      "hit": false,
      "t": 105241.9425000001,
      "d": 119.95968541667389,
      "v": 107
    },
    {
      "midi": 64,
      "hit": false,
      "t": 105483.87799999943,
      "d": 79.63710208333214,
      "v": 87
    },
    {
      "midi": 37,
      "hit": false,
      "t": 105483.87800000011,
      "d": 313.50808541667357,
      "v": 112
    },
    {
      "midi": 64,
      "hit": false,
      "t": 105725.81349999942,
      "d": 69.55645624999306,
      "v": 66
    },
    {
      "midi": 66,
      "hit": false,
      "t": 105846.78124999942,
      "d": 130.04033124999842,
      "v": 81
    },
    {
      "midi": 37,
      "hit": false,
      "t": 105846.78125000012,
      "d": 273.1855020833318,
      "v": 110
    },
    {
      "midi": 61,
      "hit": false,
      "t": 106209.68449999942,
      "d": 94.7580708333262,
      "v": 84
    },
    {
      "midi": 37,
      "hit": false,
      "t": 106209.68450000012,
      "d": 212.70162708332646,
      "v": 109
    },
    {
      "midi": 64,
      "hit": false,
      "t": 106451.61999999941,
      "d": 81.65323125000577,
      "v": 87
    },
    {
      "midi": 42,
      "hit": false,
      "t": 106451.61999999991,
      "d": 1931.451741666664,
      "v": 97
    },
    {
      "midi": 57,
      "hit": false,
      "t": 106451.61999999991,
      "d": 1931.451741666664,
      "v": 99
    },
    {
      "midi": 61,
      "hit": false,
      "t": 106451.61999999991,
      "d": 1931.451741666664,
      "v": 91
    },
    {
      "midi": 66,
      "hit": false,
      "t": 106451.61999999991,
      "d": 1931.451741666664,
      "v": 90
    },
    {
      "midi": 30,
      "hit": false,
      "t": 106451.62000000011,
      "d": 410.2822854166734,
      "v": 114
    },
    {
      "midi": 66,
      "hit": false,
      "t": 106814.52324999942,
      "d": 87.70161874999758,
      "v": 89
    },
    {
      "midi": 61,
      "hit": false,
      "t": 107177.42649999942,
      "d": 74.5967791666626,
      "v": 88
    },
    {
      "midi": 30,
      "hit": false,
      "t": 107177.42650000012,
      "d": 100.80645833333256,
      "v": 110
    },
    {
      "midi": 64,
      "hit": false,
      "t": 107419.36199999941,
      "d": 79.63710208333214,
      "v": 87
    },
    {
      "midi": 30,
      "hit": false,
      "t": 107419.36200000011,
      "d": 256.0484041666641,
      "v": 118
    },
    {
      "midi": 64,
      "hit": false,
      "t": 107661.2974999994,
      "d": 69.55645624999306,
      "v": 66
    },
    {
      "midi": 66,
      "hit": false,
      "t": 107782.2652499994,
      "d": 130.04033124999842,
      "v": 81
    },
    {
      "midi": 30,
      "hit": false,
      "t": 107782.26525000011,
      "d": 236.89517708333733,
      "v": 116
    },
    {
      "midi": 61,
      "hit": false,
      "t": 108145.1684999994,
      "d": 94.7580708333262,
      "v": 84
    },
    {
      "midi": 30,
      "hit": false,
      "t": 108145.16850000012,
      "d": 153.22581666667247,
      "v": 114
    },
    {
      "midi": 64,
      "hit": false,
      "t": 108387.1039999994,
      "d": 81.65323125000577,
      "v": 87
    },
    {
      "midi": 47,
      "hit": false,
      "t": 108387.1039999999,
      "d": 1931.451741666664,
      "v": 96
    },
    {
      "midi": 57,
      "hit": false,
      "t": 108387.1039999999,
      "d": 1931.451741666664,
      "v": 96
    },
    {
      "midi": 62,
      "hit": false,
      "t": 108387.1039999999,
      "d": 1931.451741666664,
      "v": 94
    },
    {
      "midi": 66,
      "hit": false,
      "t": 108387.1039999999,
      "d": 1931.451741666664,
      "v": 87
    },
    {
      "midi": 35,
      "hit": false,
      "t": 108387.10400000012,
      "d": 370.96776666666847,
      "v": 118
    },
    {
      "midi": 66,
      "hit": false,
      "t": 108750.0072499994,
      "d": 87.70161874999758,
      "v": 89
    },
    {
      "midi": 61,
      "hit": false,
      "t": 109112.9104999994,
      "d": 74.5967791666626,
      "v": 88
    },
    {
      "midi": 35,
      "hit": false,
      "t": 109112.91050000013,
      "d": 106.85484583333891,
      "v": 112
    },
    {
      "midi": 64,
      "hit": false,
      "t": 109354.8459999994,
      "d": 79.63710208333214,
      "v": 87
    },
    {
      "midi": 35,
      "hit": false,
      "t": 109354.84600000014,
      "d": 263.10485624999274,
      "v": 116
    },
    {
      "midi": 64,
      "hit": false,
      "t": 109596.78149999939,
      "d": 69.55645624999306,
      "v": 66
    },
    {
      "midi": 66,
      "hit": false,
      "t": 109717.74924999938,
      "d": 130.04033124999842,
      "v": 81
    },
    {
      "midi": 35,
      "hit": false,
      "t": 109717.74925000012,
      "d": 227.82259583333507,
      "v": 116
    },
    {
      "midi": 61,
      "hit": false,
      "t": 110080.65249999939,
      "d": 94.7580708333262,
      "v": 84
    },
    {
      "midi": 35,
      "hit": false,
      "t": 110080.65250000013,
      "d": 163.306462499997,
      "v": 114
    },
    {
      "midi": 64,
      "hit": false,
      "t": 110322.58799999938,
      "d": 81.65323125000577,
      "v": 87
    },
    {
      "midi": 50,
      "hit": false,
      "t": 110322.5879999999,
      "d": 1931.451741666664,
      "v": 97
    },
    {
      "midi": 57,
      "hit": false,
      "t": 110322.5879999999,
      "d": 1931.451741666664,
      "v": 97
    },
    {
      "midi": 62,
      "hit": false,
      "t": 110322.5879999999,
      "d": 1931.451741666664,
      "v": 97
    },
    {
      "midi": 66,
      "hit": false,
      "t": 110322.5879999999,
      "d": 1931.451741666664,
      "v": 89
    },
    {
      "midi": 38,
      "hit": false,
      "t": 110322.58800000012,
      "d": 365.92744374999893,
      "v": 114
    },
    {
      "midi": 66,
      "hit": false,
      "t": 110685.49124999938,
      "d": 87.70161874999758,
      "v": 89
    },
    {
      "midi": 61,
      "hit": false,
      "t": 111048.39449999938,
      "d": 74.5967791666626,
      "v": 88
    },
    {
      "midi": 38,
      "hit": false,
      "t": 111048.39450000013,
      "d": 106.85484583333891,
      "v": 114
    },
    {
      "midi": 64,
      "hit": false,
      "t": 111290.32999999938,
      "d": 79.63710208333214,
      "v": 87
    },
    {
      "midi": 38,
      "hit": false,
      "t": 111290.33000000013,
      "d": 259.07259791666,
      "v": 112
    },
    {
      "midi": 64,
      "hit": false,
      "t": 111532.26549999937,
      "d": 69.55645624999306,
      "v": 66
    },
    {
      "midi": 66,
      "hit": false,
      "t": 111653.23324999936,
      "d": 130.04033124999842,
      "v": 81
    },
    {
      "midi": 38,
      "hit": false,
      "t": 111653.23325000012,
      "d": 240.92743541667005,
      "v": 114
    },
    {
      "midi": 61,
      "hit": false,
      "t": 112016.13649999937,
      "d": 94.7580708333262,
      "v": 84
    },
    {
      "midi": 38,
      "hit": false,
      "t": 112016.13650000012,
      "d": 175.40323749999516,
      "v": 112
    },
    {
      "midi": 64,
      "hit": false,
      "t": 112258.07199999936,
      "d": 81.65323125000577,
      "v": 87
    },
    {
      "midi": 49,
      "hit": false,
      "t": 112258.0719999999,
      "d": 1931.451741666664,
      "v": 90
    },
    {
      "midi": 56,
      "hit": false,
      "t": 112258.0719999999,
      "d": 1931.451741666664,
      "v": 93
    },
    {
      "midi": 59,
      "hit": false,
      "t": 112258.0719999999,
      "d": 1931.451741666664,
      "v": 96
    },
    {
      "midi": 61,
      "hit": false,
      "t": 112258.0719999999,
      "d": 1931.451741666664,
      "v": 94
    },
    {
      "midi": 37,
      "hit": false,
      "t": 112258.07200000012,
      "d": 375.0000250000012,
      "v": 110
    },
    {
      "midi": 66,
      "hit": false,
      "t": 112620.97524999936,
      "d": 87.70161874999758,
      "v": 89
    },
    {
      "midi": 61,
      "hit": false,
      "t": 112983.87849999937,
      "d": 74.5967791666626,
      "v": 88
    },
    {
      "midi": 37,
      "hit": false,
      "t": 112983.87850000012,
      "d": 119.95968541667389,
      "v": 107
    },
    {
      "midi": 64,
      "hit": false,
      "t": 113225.81399999936,
      "d": 79.63710208333214,
      "v": 87
    },
    {
      "midi": 37,
      "hit": false,
      "t": 113225.81400000013,
      "d": 313.50808541667357,
      "v": 112
    },
    {
      "midi": 64,
      "hit": false,
      "t": 113467.74949999935,
      "d": 69.55645624999306,
      "v": 66
    },
    {
      "midi": 66,
      "hit": false,
      "t": 113588.71724999935,
      "d": 130.04033124999842,
      "v": 81
    },
    {
      "midi": 37,
      "hit": false,
      "t": 113588.71725000013,
      "d": 273.1855020833318,
      "v": 110
    },
    {
      "midi": 61,
      "hit": false,
      "t": 113951.62049999935,
      "d": 94.7580708333262,
      "v": 84
    },
    {
      "midi": 37,
      "hit": false,
      "t": 113951.62050000014,
      "d": 212.70162708332646,
      "v": 109
    },
    {
      "midi": 64,
      "hit": false,
      "t": 114193.55599999934,
      "d": 81.65323125000577,
      "v": 87
    },
    {
      "midi": 66,
      "hit": false,
      "t": 114556.45924999935,
      "d": 87.70161874999758,
      "v": 89
    },
    {
      "midi": 61,
      "hit": false,
      "t": 114919.36249999935,
      "d": 74.5967791666626,
      "v": 88
    },
    {
      "midi": 64,
      "hit": false,
      "t": 115161.29799999934,
      "d": 79.63710208333214,
      "v": 87
    },
    {
      "midi": 64,
      "hit": false,
      "t": 115403.23349999933,
      "d": 69.55645624999306,
      "v": 66
    },
    {
      "midi": 66,
      "hit": false,
      "t": 115524.20124999933,
      "d": 130.04033124999842,
      "v": 81
    },
    {
      "midi": 61,
      "hit": false,
      "t": 115887.10449999933,
      "d": 94.7580708333262,
      "v": 84
    },
    {
      "midi": 64,
      "hit": false,
      "t": 116129.03999999932,
      "d": 81.65323125000577,
      "v": 87
    },
    {
      "midi": 66,
      "hit": false,
      "t": 116491.94324999933,
      "d": 87.70161874999758,
      "v": 89
    },
    {
      "midi": 61,
      "hit": false,
      "t": 116854.84649999933,
      "d": 74.5967791666626,
      "v": 88
    },
    {
      "midi": 64,
      "hit": false,
      "t": 117096.78199999932,
      "d": 79.63710208333214,
      "v": 87
    },
    {
      "midi": 64,
      "hit": false,
      "t": 117338.71749999931,
      "d": 69.55645624999306,
      "v": 66
    },
    {
      "midi": 66,
      "hit": false,
      "t": 117459.68524999931,
      "d": 130.04033124999842,
      "v": 81
    },
    {
      "midi": 61,
      "hit": false,
      "t": 117822.58849999931,
      "d": 94.7580708333262,
      "v": 84
    },
    {
      "midi": 64,
      "hit": false,
      "t": 118064.5239999993,
      "d": 81.65323125000577,
      "v": 87
    },
    {
      "midi": 66,
      "hit": false,
      "t": 118427.42724999931,
      "d": 87.70161874999758,
      "v": 89
    },
    {
      "midi": 61,
      "hit": false,
      "t": 118790.33049999931,
      "d": 74.5967791666626,
      "v": 88
    },
    {
      "midi": 64,
      "hit": false,
      "t": 119032.2659999993,
      "d": 79.63710208333214,
      "v": 87
    },
    {
      "midi": 64,
      "hit": false,
      "t": 119274.2014999993,
      "d": 69.55645624999306,
      "v": 66
    },
    {
      "midi": 66,
      "hit": false,
      "t": 119395.1692499993,
      "d": 130.04033124999842,
      "v": 81
    },
    {
      "midi": 61,
      "hit": false,
      "t": 119758.0724999993,
      "d": 94.7580708333262,
      "v": 84
    },
    {
      "midi": 64,
      "hit": false,
      "t": 120000.00799999929,
      "d": 81.65323125000577,
      "v": 87
    },
    {
      "midi": 66,
      "hit": false,
      "t": 120362.91124999929,
      "d": 87.70161874999758,
      "v": 89
    },
    {
      "midi": 61,
      "hit": false,
      "t": 120725.8144999993,
      "d": 74.5967791666626,
      "v": 88
    },
    {
      "midi": 64,
      "hit": false,
      "t": 120967.74999999929,
      "d": 79.63710208333214,
      "v": 87
    },
    {
      "midi": 64,
      "hit": false,
      "t": 121209.68549999928,
      "d": 69.55645624999306,
      "v": 66
    },
    {
      "midi": 66,
      "hit": false,
      "t": 121330.65324999928,
      "d": 130.04033124999842,
      "v": 81
    },
    {
      "midi": 61,
      "hit": false,
      "t": 121693.55649999928,
      "d": 94.7580708333262,
      "v": 84
    },
    {
      "midi": 64,
      "hit": false,
      "t": 121935.49199999927,
      "d": 81.65323125000577,
      "v": 87
    },
    {
      "midi": 66,
      "hit": false,
      "t": 122298.39524999927,
      "d": 87.70161874999758,
      "v": 89
    },
    {
      "midi": 61,
      "hit": false,
      "t": 122661.29849999928,
      "d": 74.5967791666626,
      "v": 88
    },
    {
      "midi": 64,
      "hit": false,
      "t": 122903.23399999927,
      "d": 79.63710208333214,
      "v": 87
    },
    {
      "midi": 64,
      "hit": false,
      "t": 123145.16949999926,
      "d": 69.55645624999306,
      "v": 66
    },
    {
      "midi": 66,
      "hit": false,
      "t": 123266.13724999926,
      "d": 130.04033124999842,
      "v": 81
    },
    {
      "midi": 61,
      "hit": false,
      "t": 123629.04049999926,
      "d": 94.7580708333262,
      "v": 84
    },
    {
      "midi": 64,
      "hit": false,
      "t": 123870.97599999925,
      "d": 81.65323125000577,
      "v": 87
    },
    {
      "midi": 66,
      "hit": false,
      "t": 124233.87924999926,
      "d": 87.70161874999758,
      "v": 89
    },
    {
      "midi": 61,
      "hit": false,
      "t": 124596.78249999926,
      "d": 74.5967791666626,
      "v": 88
    },
    {
      "midi": 64,
      "hit": false,
      "t": 124838.71799999925,
      "d": 79.63710208333214,
      "v": 87
    },
    {
      "midi": 64,
      "hit": false,
      "t": 125080.65349999924,
      "d": 69.55645624999306,
      "v": 66
    },
    {
      "midi": 66,
      "hit": false,
      "t": 125201.62124999924,
      "d": 130.04033124999842,
      "v": 81
    },
    {
      "midi": 61,
      "hit": false,
      "t": 125564.52449999924,
      "d": 94.7580708333262,
      "v": 84
    },
    {
      "midi": 64,
      "hit": false,
      "t": 125806.45999999924,
      "d": 81.65323125000577,
      "v": 87
    },
    {
      "midi": 66,
      "hit": false,
      "t": 126169.36324999924,
      "d": 87.70161874999758,
      "v": 89
    },
    {
      "midi": 61,
      "hit": false,
      "t": 126532.26649999924,
      "d": 74.5967791666626,
      "v": 88
    },
    {
      "midi": 64,
      "hit": false,
      "t": 126774.20199999923,
      "d": 79.63710208333214,
      "v": 87
    },
    {
      "midi": 64,
      "hit": false,
      "t": 127016.13749999923,
      "d": 69.55645624999306,
      "v": 66
    },
    {
      "midi": 66,
      "hit": false,
      "t": 127137.10524999922,
      "d": 130.04033124999842,
      "v": 81
    },
    {
      "midi": 61,
      "hit": false,
      "t": 127500.00849999923,
      "d": 94.7580708333262,
      "v": 84
    },
    {
      "midi": 64,
      "hit": false,
      "t": 127741.94399999922,
      "d": 81.65323125000577,
      "v": 87
    },
    {
      "midi": 66,
      "hit": false,
      "t": 128104.84724999922,
      "d": 87.70161874999758,
      "v": 89
    },
    {
      "midi": 61,
      "hit": false,
      "t": 128467.75049999922,
      "d": 74.5967791666626,
      "v": 88
    },
    {
      "midi": 64,
      "hit": false,
      "t": 128709.68599999922,
      "d": 79.63710208333214,
      "v": 87
    },
    {
      "midi": 64,
      "hit": false,
      "t": 128951.62149999921,
      "d": 69.55645624999306,
      "v": 66
    },
    {
      "midi": 66,
      "hit": false,
      "t": 129072.5892499992,
      "d": 130.04033124999842,
      "v": 81
    },
    {
      "midi": 61,
      "hit": false,
      "t": 129435.4924999992,
      "d": 94.7580708333262,
      "v": 84
    },
    {
      "midi": 64,
      "hit": false,
      "t": 129677.4279999992,
      "d": 81.65323125000577,
      "v": 87
    },
    {
      "midi": 42,
      "hit": false,
      "t": 129677.4279999999,
      "d": 1931.4517416666786,
      "v": 97
    },
    {
      "midi": 57,
      "hit": false,
      "t": 129677.4279999999,
      "d": 1931.4517416666786,
      "v": 99
    },
    {
      "midi": 61,
      "hit": false,
      "t": 129677.4279999999,
      "d": 1931.4517416666786,
      "v": 91
    },
    {
      "midi": 66,
      "hit": false,
      "t": 129677.4279999999,
      "d": 1931.4517416666786,
      "v": 90
    },
    {
      "midi": 66,
      "hit": false,
      "t": 130040.3312499992,
      "d": 87.70161874999758,
      "v": 89
    },
    {
      "midi": 61,
      "hit": false,
      "t": 130403.2344999992,
      "d": 74.5967791666626,
      "v": 88
    },
    {
      "midi": 64,
      "hit": false,
      "t": 130645.1699999992,
      "d": 79.63710208333214,
      "v": 87
    },
    {
      "midi": 64,
      "hit": false,
      "t": 130887.10549999919,
      "d": 69.55645624999306,
      "v": 66
    },
    {
      "midi": 66,
      "hit": false,
      "t": 131008.07324999919,
      "d": 130.04033125001297,
      "v": 81
    },
    {
      "midi": 61,
      "hit": false,
      "t": 131370.9764999992,
      "d": 94.75807083334075,
      "v": 84
    },
    {
      "midi": 64,
      "hit": false,
      "t": 131612.91199999923,
      "d": 81.65323125000577,
      "v": 87
    },
    {
      "midi": 47,
      "hit": false,
      "t": 131612.91199999992,
      "d": 1931.4517416666786,
      "v": 96
    },
    {
      "midi": 57,
      "hit": false,
      "t": 131612.91199999992,
      "d": 1931.4517416666786,
      "v": 96
    },
    {
      "midi": 62,
      "hit": false,
      "t": 131612.91199999992,
      "d": 1931.4517416666786,
      "v": 94
    },
    {
      "midi": 66,
      "hit": false,
      "t": 131612.91199999992,
      "d": 1931.4517416666786,
      "v": 87
    },
    {
      "midi": 66,
      "hit": false,
      "t": 131975.81524999923,
      "d": 87.70161874999758,
      "v": 89
    },
    {
      "midi": 61,
      "hit": false,
      "t": 132338.71849999923,
      "d": 74.5967791666626,
      "v": 88
    },
    {
      "midi": 64,
      "hit": false,
      "t": 132580.65399999922,
      "d": 79.63710208333214,
      "v": 87
    },
    {
      "midi": 64,
      "hit": false,
      "t": 132822.58949999922,
      "d": 69.55645624999306,
      "v": 66
    },
    {
      "midi": 66,
      "hit": false,
      "t": 132943.5572499992,
      "d": 130.04033124999842,
      "v": 81
    },
    {
      "midi": 61,
      "hit": false,
      "t": 133306.4604999992,
      "d": 94.75807083334075,
      "v": 84
    },
    {
      "midi": 64,
      "hit": false,
      "t": 133548.39599999922,
      "d": 81.65323125000577,
      "v": 87
    },
    {
      "midi": 50,
      "hit": false,
      "t": 133548.39599999995,
      "d": 1931.4517416666786,
      "v": 97
    },
    {
      "midi": 57,
      "hit": false,
      "t": 133548.39599999995,
      "d": 1931.4517416666786,
      "v": 97
    },
    {
      "midi": 62,
      "hit": false,
      "t": 133548.39599999995,
      "d": 1931.4517416666786,
      "v": 97
    },
    {
      "midi": 66,
      "hit": false,
      "t": 133548.39599999995,
      "d": 1931.4517416666786,
      "v": 89
    },
    {
      "midi": 66,
      "hit": false,
      "t": 133911.29924999923,
      "d": 87.70161874999758,
      "v": 89
    },
    {
      "midi": 61,
      "hit": false,
      "t": 134274.20249999923,
      "d": 74.5967791666626,
      "v": 88
    },
    {
      "midi": 64,
      "hit": false,
      "t": 134516.13799999922,
      "d": 79.63710208333214,
      "v": 87
    },
    {
      "midi": 64,
      "hit": false,
      "t": 134758.0734999992,
      "d": 69.55645624999306,
      "v": 66
    },
    {
      "midi": 66,
      "hit": false,
      "t": 134879.0412499992,
      "d": 130.04033124999842,
      "v": 81
    },
    {
      "midi": 61,
      "hit": false,
      "t": 135241.9444999992,
      "d": 94.75807083334075,
      "v": 84
    },
    {
      "midi": 64,
      "hit": false,
      "t": 135483.87999999922,
      "d": 81.65323125000577,
      "v": 87
    },
    {
      "midi": 49,
      "hit": false,
      "t": 135483.87999999998,
      "d": 1931.4517416666786,
      "v": 90
    },
    {
      "midi": 56,
      "hit": false,
      "t": 135483.87999999998,
      "d": 1931.4517416666786,
      "v": 93
    },
    {
      "midi": 59,
      "hit": false,
      "t": 135483.87999999998,
      "d": 1931.4517416666786,
      "v": 96
    },
    {
      "midi": 61,
      "hit": false,
      "t": 135483.87999999998,
      "d": 1931.4517416666786,
      "v": 94
    },
    {
      "midi": 66,
      "hit": false,
      "t": 135846.78324999922,
      "d": 87.70161874999758,
      "v": 89
    },
    {
      "midi": 61,
      "hit": false,
      "t": 136209.68649999922,
      "d": 74.5967791666626,
      "v": 88
    },
    {
      "midi": 64,
      "hit": false,
      "t": 136451.62199999922,
      "d": 79.63710208333214,
      "v": 87
    },
    {
      "midi": 64,
      "hit": false,
      "t": 136693.5574999992,
      "d": 69.55645624999306,
      "v": 66
    },
    {
      "midi": 66,
      "hit": false,
      "t": 136814.5252499992,
      "d": 130.04033124999842,
      "v": 81
    },
    {
      "midi": 61,
      "hit": false,
      "t": 137177.4284999992,
      "d": 94.75807083334075,
      "v": 84
    },
    {
      "midi": 64,
      "hit": false,
      "t": 137419.36399999922,
      "d": 81.65323125000577,
      "v": 87
    },
    {
      "midi": 42,
      "hit": false,
      "t": 137419.364,
      "d": 1931.4517416666786,
      "v": 97
    },
    {
      "midi": 57,
      "hit": false,
      "t": 137419.364,
      "d": 1931.4517416666786,
      "v": 99
    },
    {
      "midi": 61,
      "hit": false,
      "t": 137419.364,
      "d": 1931.4517416666786,
      "v": 91
    },
    {
      "midi": 66,
      "hit": false,
      "t": 137419.364,
      "d": 1931.4517416666786,
      "v": 90
    },
    {
      "midi": 66,
      "hit": false,
      "t": 137782.26724999922,
      "d": 87.70161874999758,
      "v": 89
    },
    {
      "midi": 61,
      "hit": false,
      "t": 138145.17049999922,
      "d": 74.5967791666626,
      "v": 88
    },
    {
      "midi": 64,
      "hit": false,
      "t": 138387.1059999992,
      "d": 79.63710208333214,
      "v": 87
    },
    {
      "midi": 64,
      "hit": false,
      "t": 138629.0414999992,
      "d": 69.55645624999306,
      "v": 66
    },
    {
      "midi": 66,
      "hit": false,
      "t": 138750.0092499992,
      "d": 130.04033124999842,
      "v": 81
    },
    {
      "midi": 61,
      "hit": false,
      "t": 139112.9124999992,
      "d": 94.75807083334075,
      "v": 84
    },
    {
      "midi": 64,
      "hit": false,
      "t": 139354.8479999992,
      "d": 81.65323125000577,
      "v": 87
    },
    {
      "midi": 47,
      "hit": false,
      "t": 139354.84800000003,
      "d": 1931.4517416666786,
      "v": 96
    },
    {
      "midi": 57,
      "hit": false,
      "t": 139354.84800000003,
      "d": 1931.4517416666786,
      "v": 96
    },
    {
      "midi": 62,
      "hit": false,
      "t": 139354.84800000003,
      "d": 1931.4517416666786,
      "v": 94
    },
    {
      "midi": 66,
      "hit": false,
      "t": 139354.84800000003,
      "d": 1931.4517416666786,
      "v": 87
    },
    {
      "midi": 66,
      "hit": false,
      "t": 139717.75124999922,
      "d": 87.70161874999758,
      "v": 89
    },
    {
      "midi": 61,
      "hit": false,
      "t": 140080.65449999922,
      "d": 74.5967791666626,
      "v": 88
    },
    {
      "midi": 64,
      "hit": false,
      "t": 140322.5899999992,
      "d": 79.63710208333214,
      "v": 87
    },
    {
      "midi": 64,
      "hit": false,
      "t": 140564.5254999992,
      "d": 69.55645624999306,
      "v": 66
    },
    {
      "midi": 66,
      "hit": false,
      "t": 140685.49324999918,
      "d": 130.04033124999842,
      "v": 81
    },
    {
      "midi": 61,
      "hit": false,
      "t": 141048.3964999992,
      "d": 94.75807083334075,
      "v": 84
    },
    {
      "midi": 64,
      "hit": false,
      "t": 141290.3319999992,
      "d": 81.65323125000577,
      "v": 87
    },
    {
      "midi": 50,
      "hit": false,
      "t": 141290.33200000005,
      "d": 1931.4517416666786,
      "v": 97
    },
    {
      "midi": 57,
      "hit": false,
      "t": 141290.33200000005,
      "d": 1931.4517416666786,
      "v": 97
    },
    {
      "midi": 62,
      "hit": false,
      "t": 141290.33200000005,
      "d": 1931.4517416666786,
      "v": 97
    },
    {
      "midi": 66,
      "hit": false,
      "t": 141290.33200000005,
      "d": 1931.4517416666786,
      "v": 89
    },
    {
      "midi": 66,
      "hit": false,
      "t": 141653.2352499992,
      "d": 87.70161874999758,
      "v": 89
    },
    {
      "midi": 61,
      "hit": false,
      "t": 142016.13849999922,
      "d": 74.5967791666626,
      "v": 88
    },
    {
      "midi": 64,
      "hit": false,
      "t": 142258.0739999992,
      "d": 79.63710208333214,
      "v": 87
    },
    {
      "midi": 64,
      "hit": false,
      "t": 142500.0094999992,
      "d": 69.55645624999306,
      "v": 66
    },
    {
      "midi": 66,
      "hit": false,
      "t": 142620.97724999918,
      "d": 130.04033124999842,
      "v": 81
    },
    {
      "midi": 61,
      "hit": false,
      "t": 142983.88049999918,
      "d": 94.75807083334075,
      "v": 84
    },
    {
      "midi": 64,
      "hit": false,
      "t": 143225.8159999992,
      "d": 81.65323125000577,
      "v": 87
    },
    {
      "midi": 49,
      "hit": false,
      "t": 143225.81600000008,
      "d": 1931.4517416666786,
      "v": 90
    },
    {
      "midi": 56,
      "hit": false,
      "t": 143225.81600000008,
      "d": 1931.4517416666786,
      "v": 93
    },
    {
      "midi": 59,
      "hit": false,
      "t": 143225.81600000008,
      "d": 1931.4517416666786,
      "v": 96
    },
    {
      "midi": 61,
      "hit": false,
      "t": 143225.81600000008,
      "d": 1931.4517416666786,
      "v": 94
    },
    {
      "midi": 66,
      "hit": false,
      "t": 143588.7192499992,
      "d": 87.70161874999758,
      "v": 89
    },
    {
      "midi": 61,
      "hit": false,
      "t": 143951.6224999992,
      "d": 74.5967791666626,
      "v": 88
    },
    {
      "midi": 64,
      "hit": false,
      "t": 144193.5579999992,
      "d": 79.63710208333214,
      "v": 87
    },
    {
      "midi": 64,
      "hit": false,
      "t": 144435.4934999992,
      "d": 69.55645624999306,
      "v": 66
    },
    {
      "midi": 66,
      "hit": false,
      "t": 144556.46124999918,
      "d": 130.04033124999842,
      "v": 81
    },
    {
      "midi": 61,
      "hit": false,
      "t": 144919.36449999918,
      "d": 94.75807083334075,
      "v": 84
    },
    {
      "midi": 42,
      "hit": false,
      "t": 147096.7840000001,
      "d": 1931.4517416666786,
      "v": 97
    },
    {
      "midi": 57,
      "hit": false,
      "t": 147096.7840000001,
      "d": 1931.4517416666786,
      "v": 99
    },
    {
      "midi": 61,
      "hit": false,
      "t": 147096.7840000001,
      "d": 1931.4517416666786,
      "v": 91
    },
    {
      "midi": 66,
      "hit": false,
      "t": 147096.7840000001,
      "d": 1931.4517416666786,
      "v": 90
    },
    {
      "midi": 30,
      "hit": false,
      "t": 147096.78400000013,
      "d": 410.2822854166734,
      "v": 114
    },
    {
      "midi": 30,
      "hit": false,
      "t": 147822.59050000014,
      "d": 100.80645833333256,
      "v": 110
    },
    {
      "midi": 30,
      "hit": false,
      "t": 148064.52600000013,
      "d": 256.04840416667867,
      "v": 118
    },
    {
      "midi": 30,
      "hit": false,
      "t": 148427.42925000013,
      "d": 236.89517708332278,
      "v": 116
    },
    {
      "midi": 30,
      "hit": false,
      "t": 148790.33250000014,
      "d": 153.22581666667247,
      "v": 114
    },
    {
      "midi": 47,
      "hit": false,
      "t": 149032.26800000013,
      "d": 1931.4517416666786,
      "v": 96
    },
    {
      "midi": 57,
      "hit": false,
      "t": 149032.26800000013,
      "d": 1931.4517416666786,
      "v": 96
    },
    {
      "midi": 62,
      "hit": false,
      "t": 149032.26800000013,
      "d": 1931.4517416666786,
      "v": 94
    },
    {
      "midi": 66,
      "hit": false,
      "t": 149032.26800000013,
      "d": 1931.4517416666786,
      "v": 87
    },
    {
      "midi": 35,
      "hit": false,
      "t": 149032.26800000013,
      "d": 370.96776666666847,
      "v": 118
    },
    {
      "midi": 35,
      "hit": false,
      "t": 149758.07450000013,
      "d": 106.85484583332436,
      "v": 112
    },
    {
      "midi": 35,
      "hit": false,
      "t": 150000.01000000013,
      "d": 263.10485624999274,
      "v": 116
    },
    {
      "midi": 35,
      "hit": false,
      "t": 150362.91325000013,
      "d": 227.82259583333507,
      "v": 116
    },
    {
      "midi": 35,
      "hit": false,
      "t": 150725.81650000013,
      "d": 163.30646250001155,
      "v": 114
    },
    {
      "midi": 50,
      "hit": false,
      "t": 150967.75200000015,
      "d": 1931.4517416666786,
      "v": 97
    },
    {
      "midi": 57,
      "hit": false,
      "t": 150967.75200000015,
      "d": 1931.4517416666786,
      "v": 97
    },
    {
      "midi": 62,
      "hit": false,
      "t": 150967.75200000015,
      "d": 1931.4517416666786,
      "v": 97
    },
    {
      "midi": 66,
      "hit": false,
      "t": 150967.75200000015,
      "d": 1931.4517416666786,
      "v": 89
    },
    {
      "midi": 38,
      "hit": false,
      "t": 150967.75200000015,
      "d": 365.92744374999893,
      "v": 114
    },
    {
      "midi": 38,
      "hit": false,
      "t": 151693.55850000016,
      "d": 106.85484583332436,
      "v": 114
    },
    {
      "midi": 38,
      "hit": false,
      "t": 151935.49400000015,
      "d": 259.07259791667457,
      "v": 112
    },
    {
      "midi": 38,
      "hit": false,
      "t": 152298.39725000015,
      "d": 240.92743541667005,
      "v": 114
    },
    {
      "midi": 38,
      "hit": false,
      "t": 152661.30050000016,
      "d": 175.40323749999516,
      "v": 112
    },
    {
      "midi": 37,
      "hit": false,
      "t": 152903.23600000015,
      "d": 375.00002499998664,
      "v": 110
    },
    {
      "midi": 49,
      "hit": false,
      "t": 152903.23600000018,
      "d": 1931.4517416666786,
      "v": 90
    },
    {
      "midi": 56,
      "hit": false,
      "t": 152903.23600000018,
      "d": 1931.4517416666786,
      "v": 93
    },
    {
      "midi": 59,
      "hit": false,
      "t": 152903.23600000018,
      "d": 1931.4517416666786,
      "v": 96
    },
    {
      "midi": 61,
      "hit": false,
      "t": 152903.23600000018,
      "d": 1931.4517416666786,
      "v": 94
    },
    {
      "midi": 37,
      "hit": false,
      "t": 153629.04250000013,
      "d": 119.95968541665934,
      "v": 107
    },
    {
      "midi": 37,
      "hit": false,
      "t": 153870.97800000012,
      "d": 313.508085416659,
      "v": 112
    },
    {
      "midi": 37,
      "hit": false,
      "t": 154233.88125000012,
      "d": 273.1855020833318,
      "v": 110
    },
    {
      "midi": 37,
      "hit": false,
      "t": 154596.78450000013,
      "d": 212.70162708332646,
      "v": 109
    },
    {
      "midi": 30,
      "hit": false,
      "t": 154838.72000000012,
      "d": 410.2822854166734,
      "v": 114
    },
    {
      "midi": 42,
      "hit": false,
      "t": 154838.7200000002,
      "d": 1931.4517416666786,
      "v": 97
    },
    {
      "midi": 57,
      "hit": false,
      "t": 154838.7200000002,
      "d": 1931.4517416666786,
      "v": 99
    },
    {
      "midi": 61,
      "hit": false,
      "t": 154838.7200000002,
      "d": 1931.4517416666786,
      "v": 91
    },
    {
      "midi": 66,
      "hit": false,
      "t": 154838.7200000002,
      "d": 1931.4517416666786,
      "v": 90
    },
    {
      "midi": 30,
      "hit": false,
      "t": 155564.52650000012,
      "d": 100.80645833333256,
      "v": 110
    },
    {
      "midi": 30,
      "hit": false,
      "t": 155806.46200000012,
      "d": 256.04840416667867,
      "v": 118
    },
    {
      "midi": 30,
      "hit": false,
      "t": 156169.36525000012,
      "d": 236.89517708332278,
      "v": 116
    },
    {
      "midi": 30,
      "hit": false,
      "t": 156532.26850000012,
      "d": 153.22581666667247,
      "v": 114
    },
    {
      "midi": 35,
      "hit": false,
      "t": 156774.2040000001,
      "d": 370.96776666666847,
      "v": 118
    },
    {
      "midi": 47,
      "hit": false,
      "t": 156774.20400000023,
      "d": 1931.4517416666786,
      "v": 96
    },
    {
      "midi": 57,
      "hit": false,
      "t": 156774.20400000023,
      "d": 1931.4517416666786,
      "v": 96
    },
    {
      "midi": 62,
      "hit": false,
      "t": 156774.20400000023,
      "d": 1931.4517416666786,
      "v": 94
    },
    {
      "midi": 66,
      "hit": false,
      "t": 156774.20400000023,
      "d": 1931.4517416666786,
      "v": 87
    },
    {
      "midi": 35,
      "hit": false,
      "t": 157500.01050000012,
      "d": 106.85484583332436,
      "v": 112
    },
    {
      "midi": 35,
      "hit": false,
      "t": 157741.9460000001,
      "d": 263.10485624999274,
      "v": 116
    },
    {
      "midi": 35,
      "hit": false,
      "t": 158104.84925000012,
      "d": 227.82259583333507,
      "v": 116
    },
    {
      "midi": 35,
      "hit": false,
      "t": 158467.75250000012,
      "d": 163.30646250001155,
      "v": 114
    },
    {
      "midi": 38,
      "hit": false,
      "t": 158709.68800000014,
      "d": 365.92744374999893,
      "v": 114
    },
    {
      "midi": 50,
      "hit": false,
      "t": 158709.68800000026,
      "d": 1931.4517416666786,
      "v": 97
    },
    {
      "midi": 57,
      "hit": false,
      "t": 158709.68800000026,
      "d": 1931.4517416666786,
      "v": 97
    },
    {
      "midi": 62,
      "hit": false,
      "t": 158709.68800000026,
      "d": 1931.4517416666786,
      "v": 97
    },
    {
      "midi": 66,
      "hit": false,
      "t": 158709.68800000026,
      "d": 1931.4517416666786,
      "v": 89
    },
    {
      "midi": 38,
      "hit": false,
      "t": 159435.49450000015,
      "d": 106.85484583332436,
      "v": 114
    },
    {
      "midi": 38,
      "hit": false,
      "t": 159677.43000000014,
      "d": 259.07259791667457,
      "v": 112
    },
    {
      "midi": 38,
      "hit": false,
      "t": 160040.33325000014,
      "d": 240.92743541667005,
      "v": 114
    },
    {
      "midi": 38,
      "hit": false,
      "t": 160403.23650000014,
      "d": 175.40323749999516,
      "v": 112
    },
    {
      "midi": 37,
      "hit": false,
      "t": 160645.17200000014,
      "d": 375.00002499998664,
      "v": 110
    },
    {
      "midi": 49,
      "hit": false,
      "t": 160645.17200000028,
      "d": 1931.4517416666786,
      "v": 90
    },
    {
      "midi": 56,
      "hit": false,
      "t": 160645.17200000028,
      "d": 1931.4517416666786,
      "v": 93
    },
    {
      "midi": 59,
      "hit": false,
      "t": 160645.17200000028,
      "d": 1931.4517416666786,
      "v": 96
    },
    {
      "midi": 61,
      "hit": false,
      "t": 160645.17200000028,
      "d": 1931.4517416666786,
      "v": 94
    },
    {
      "midi": 37,
      "hit": false,
      "t": 161370.9785000001,
      "d": 119.95968541665934,
      "v": 107
    },
    {
      "midi": 37,
      "hit": false,
      "t": 161612.9140000001,
      "d": 313.508085416659,
      "v": 112
    },
    {
      "midi": 37,
      "hit": false,
      "t": 161975.8172500001,
      "d": 273.1855020833318,
      "v": 110
    },
    {
      "midi": 37,
      "hit": false,
      "t": 162338.7205000001,
      "d": 212.70162708332646,
      "v": 109
    },
    {
      "midi": 30,
      "hit": false,
      "t": 162580.6560000001,
      "d": 410.2822854166734,
      "v": 114
    },
    {
      "midi": 42,
      "hit": false,
      "t": 162580.6560000003,
      "d": 1931.4517416666786,
      "v": 97
    },
    {
      "midi": 57,
      "hit": false,
      "t": 162580.6560000003,
      "d": 1931.4517416666786,
      "v": 99
    },
    {
      "midi": 61,
      "hit": false,
      "t": 162580.6560000003,
      "d": 1931.4517416666786,
      "v": 91
    },
    {
      "midi": 66,
      "hit": false,
      "t": 162580.6560000003,
      "d": 1931.4517416666786,
      "v": 90
    },
    {
      "midi": 30,
      "hit": false,
      "t": 163306.4625000001,
      "d": 100.80645833333256,
      "v": 110
    },
    {
      "midi": 30,
      "hit": false,
      "t": 163548.3980000001,
      "d": 256.04840416667867,
      "v": 118
    },
    {
      "midi": 30,
      "hit": false,
      "t": 163911.3012500001,
      "d": 236.89517708332278,
      "v": 116
    },
    {
      "midi": 30,
      "hit": false,
      "t": 164274.2045000001,
      "d": 153.22581666667247,
      "v": 114
    },
    {
      "midi": 35,
      "hit": false,
      "t": 164516.1400000001,
      "d": 370.96776666666847,
      "v": 118
    },
    {
      "midi": 47,
      "hit": false,
      "t": 164516.14000000033,
      "d": 1931.4517416666786,
      "v": 96
    },
    {
      "midi": 57,
      "hit": false,
      "t": 164516.14000000033,
      "d": 1931.4517416666786,
      "v": 96
    },
    {
      "midi": 62,
      "hit": false,
      "t": 164516.14000000033,
      "d": 1931.4517416666786,
      "v": 94
    },
    {
      "midi": 66,
      "hit": false,
      "t": 164516.14000000033,
      "d": 1931.4517416666786,
      "v": 87
    },
    {
      "midi": 35,
      "hit": false,
      "t": 165241.9465000001,
      "d": 106.85484583332436,
      "v": 112
    },
    {
      "midi": 35,
      "hit": false,
      "t": 165483.8820000001,
      "d": 263.10485624999274,
      "v": 116
    },
    {
      "midi": 35,
      "hit": false,
      "t": 165846.7852500001,
      "d": 227.82259583333507,
      "v": 116
    },
    {
      "midi": 35,
      "hit": false,
      "t": 166209.6885000001,
      "d": 163.30646250001155,
      "v": 114
    },
    {
      "midi": 38,
      "hit": false,
      "t": 166451.62400000013,
      "d": 365.92744374999893,
      "v": 114
    },
    {
      "midi": 50,
      "hit": false,
      "t": 166451.62400000036,
      "d": 1931.4517416666786,
      "v": 97
    },
    {
      "midi": 57,
      "hit": false,
      "t": 166451.62400000036,
      "d": 1931.4517416666786,
      "v": 97
    },
    {
      "midi": 62,
      "hit": false,
      "t": 166451.62400000036,
      "d": 1931.4517416666786,
      "v": 97
    },
    {
      "midi": 66,
      "hit": false,
      "t": 166451.62400000036,
      "d": 1931.4517416666786,
      "v": 89
    },
    {
      "midi": 38,
      "hit": false,
      "t": 167177.43050000013,
      "d": 106.85484583332436,
      "v": 114
    },
    {
      "midi": 38,
      "hit": false,
      "t": 167419.36600000013,
      "d": 259.07259791667457,
      "v": 112
    },
    {
      "midi": 38,
      "hit": false,
      "t": 167782.26925000013,
      "d": 240.92743541667005,
      "v": 114
    },
    {
      "midi": 38,
      "hit": false,
      "t": 168145.17250000013,
      "d": 175.40323749999516,
      "v": 112
    },
    {
      "midi": 37,
      "hit": false,
      "t": 168387.10800000012,
      "d": 375.00002499998664,
      "v": 110
    },
    {
      "midi": 49,
      "hit": false,
      "t": 168387.1080000004,
      "d": 1931.4517416666786,
      "v": 90
    },
    {
      "midi": 56,
      "hit": false,
      "t": 168387.1080000004,
      "d": 1931.4517416666786,
      "v": 93
    },
    {
      "midi": 59,
      "hit": false,
      "t": 168387.1080000004,
      "d": 1931.4517416666786,
      "v": 96
    },
    {
      "midi": 61,
      "hit": false,
      "t": 168387.1080000004,
      "d": 1931.4517416666786,
      "v": 94
    },
    {
      "midi": 37,
      "hit": false,
      "t": 169112.9145000001,
      "d": 119.95968541665934,
      "v": 107
    },
    {
      "midi": 37,
      "hit": false,
      "t": 169354.8500000001,
      "d": 313.508085416659,
      "v": 112
    },
    {
      "midi": 37,
      "hit": false,
      "t": 169717.7532500001,
      "d": 273.1855020833318,
      "v": 110
    },
    {
      "midi": 37,
      "hit": false,
      "t": 170080.6565000001,
      "d": 212.70162708332646,
      "v": 109
    },
    {
      "midi": 30,
      "hit": false,
      "t": 170322.5920000001,
      "d": 410.2822854166734,
      "v": 114
    },
    {
      "midi": 42,
      "hit": false,
      "t": 170322.5920000004,
      "d": 1931.4517416666786,
      "v": 97
    },
    {
      "midi": 57,
      "hit": false,
      "t": 170322.5920000004,
      "d": 1931.4517416666786,
      "v": 99
    },
    {
      "midi": 61,
      "hit": false,
      "t": 170322.5920000004,
      "d": 1931.4517416666786,
      "v": 91
    },
    {
      "midi": 66,
      "hit": false,
      "t": 170322.5920000004,
      "d": 1931.4517416666786,
      "v": 90
    },
    {
      "midi": 30,
      "hit": false,
      "t": 171048.3985000001,
      "d": 100.80645833333256,
      "v": 110
    },
    {
      "midi": 30,
      "hit": false,
      "t": 171290.3340000001,
      "d": 256.04840416667867,
      "v": 118
    },
    {
      "midi": 30,
      "hit": false,
      "t": 171653.2372500001,
      "d": 236.89517708332278,
      "v": 116
    },
    {
      "midi": 30,
      "hit": false,
      "t": 172016.1405000001,
      "d": 153.22581666667247,
      "v": 114
    },
    {
      "midi": 35,
      "hit": false,
      "t": 172258.0760000001,
      "d": 370.96776666666847,
      "v": 118
    },
    {
      "midi": 47,
      "hit": false,
      "t": 172258.07600000044,
      "d": 1931.4517416666786,
      "v": 96
    },
    {
      "midi": 57,
      "hit": false,
      "t": 172258.07600000044,
      "d": 1931.4517416666786,
      "v": 96
    },
    {
      "midi": 62,
      "hit": false,
      "t": 172258.07600000044,
      "d": 1931.4517416666786,
      "v": 94
    },
    {
      "midi": 66,
      "hit": false,
      "t": 172258.07600000044,
      "d": 1931.4517416666786,
      "v": 87
    },
    {
      "midi": 35,
      "hit": false,
      "t": 172983.8825000001,
      "d": 106.85484583332436,
      "v": 112
    },
    {
      "midi": 35,
      "hit": false,
      "t": 173225.8180000001,
      "d": 263.10485624999274,
      "v": 116
    },
    {
      "midi": 35,
      "hit": false,
      "t": 173588.7212500001,
      "d": 227.82259583333507,
      "v": 116
    },
    {
      "midi": 35,
      "hit": false,
      "t": 173951.6245000001,
      "d": 163.30646250001155,
      "v": 114
    },
    {
      "midi": 38,
      "hit": false,
      "t": 174193.5600000001,
      "d": 365.92744374999893,
      "v": 114
    },
    {
      "midi": 50,
      "hit": false,
      "t": 174193.56000000046,
      "d": 1931.4517416666786,
      "v": 97
    },
    {
      "midi": 57,
      "hit": false,
      "t": 174193.56000000046,
      "d": 1931.4517416666786,
      "v": 97
    },
    {
      "midi": 62,
      "hit": false,
      "t": 174193.56000000046,
      "d": 1931.4517416666786,
      "v": 97
    },
    {
      "midi": 66,
      "hit": false,
      "t": 174193.56000000046,
      "d": 1931.4517416666786,
      "v": 89
    },
    {
      "midi": 38,
      "hit": false,
      "t": 174919.36650000012,
      "d": 106.85484583332436,
      "v": 114
    },
    {
      "midi": 38,
      "hit": false,
      "t": 175161.3020000001,
      "d": 259.07259791667457,
      "v": 112
    },
    {
      "midi": 38,
      "hit": false,
      "t": 175524.20525000012,
      "d": 240.92743541667005,
      "v": 114
    },
    {
      "midi": 38,
      "hit": false,
      "t": 175887.10850000012,
      "d": 175.40323749999516,
      "v": 112
    },
    {
      "midi": 37,
      "hit": false,
      "t": 176129.0440000001,
      "d": 375.00002499998664,
      "v": 110
    },
    {
      "midi": 49,
      "hit": false,
      "t": 176129.0440000005,
      "d": 1931.4517416666786,
      "v": 90
    },
    {
      "midi": 56,
      "hit": false,
      "t": 176129.0440000005,
      "d": 1931.4517416666786,
      "v": 93
    },
    {
      "midi": 59,
      "hit": false,
      "t": 176129.0440000005,
      "d": 1931.4517416666786,
      "v": 96
    },
    {
      "midi": 61,
      "hit": false,
      "t": 176129.0440000005,
      "d": 1931.4517416666786,
      "v": 94
    },
    {
      "midi": 37,
      "hit": false,
      "t": 176854.8505000001,
      "d": 119.95968541665934,
      "v": 107
    },
    {
      "midi": 37,
      "hit": false,
      "t": 177096.78600000008,
      "d": 313.508085416659,
      "v": 112
    },
    {
      "midi": 37,
      "hit": false,
      "t": 177459.68925000008,
      "d": 273.1855020833318,
      "v": 110
    },
    {
      "midi": 37,
      "hit": false,
      "t": 177822.5925000001,
      "d": 212.70162708332646,
      "v": 109
    },
    {
      "midi": 30,
      "hit": false,
      "t": 178064.52800000008,
      "d": 410.2822854166734,
      "v": 114
    },
    {
      "midi": 42,
      "hit": false,
      "t": 178064.52800000052,
      "d": 1931.4517416666786,
      "v": 97
    },
    {
      "midi": 57,
      "hit": false,
      "t": 178064.52800000052,
      "d": 1931.4517416666786,
      "v": 99
    },
    {
      "midi": 61,
      "hit": false,
      "t": 178064.52800000052,
      "d": 1931.4517416666786,
      "v": 91
    },
    {
      "midi": 66,
      "hit": false,
      "t": 178064.52800000052,
      "d": 1931.4517416666786,
      "v": 90
    },
    {
      "midi": 30,
      "hit": false,
      "t": 178790.33450000008,
      "d": 100.80645833333256,
      "v": 110
    },
    {
      "midi": 30,
      "hit": false,
      "t": 179032.27000000008,
      "d": 256.04840416667867,
      "v": 118
    },
    {
      "midi": 30,
      "hit": false,
      "t": 179395.17325000008,
      "d": 236.89517708332278,
      "v": 116
    },
    {
      "midi": 30,
      "hit": false,
      "t": 179758.07650000008,
      "d": 153.22581666667247,
      "v": 114
    },
    {
      "midi": 35,
      "hit": false,
      "t": 180000.01200000008,
      "d": 370.96776666666847,
      "v": 118
    },
    {
      "midi": 47,
      "hit": false,
      "t": 180000.01200000054,
      "d": 1931.4517416666786,
      "v": 96
    },
    {
      "midi": 57,
      "hit": false,
      "t": 180000.01200000054,
      "d": 1931.4517416666786,
      "v": 96
    },
    {
      "midi": 62,
      "hit": false,
      "t": 180000.01200000054,
      "d": 1931.4517416666786,
      "v": 94
    },
    {
      "midi": 66,
      "hit": false,
      "t": 180000.01200000054,
      "d": 1931.4517416666786,
      "v": 87
    },
    {
      "midi": 35,
      "hit": false,
      "t": 180725.81850000008,
      "d": 106.85484583332436,
      "v": 112
    },
    {
      "midi": 35,
      "hit": false,
      "t": 180967.75400000007,
      "d": 263.10485624999274,
      "v": 116
    },
    {
      "midi": 35,
      "hit": false,
      "t": 181330.65725000008,
      "d": 227.82259583333507,
      "v": 116
    },
    {
      "midi": 35,
      "hit": false,
      "t": 181693.56050000008,
      "d": 163.30646250001155,
      "v": 114
    },
    {
      "midi": 38,
      "hit": false,
      "t": 181935.4960000001,
      "d": 365.92744374999893,
      "v": 114
    },
    {
      "midi": 50,
      "hit": false,
      "t": 181935.49600000057,
      "d": 1931.4517416666786,
      "v": 97
    },
    {
      "midi": 57,
      "hit": false,
      "t": 181935.49600000057,
      "d": 1931.4517416666786,
      "v": 97
    },
    {
      "midi": 62,
      "hit": false,
      "t": 181935.49600000057,
      "d": 1931.4517416666786,
      "v": 97
    },
    {
      "midi": 66,
      "hit": false,
      "t": 181935.49600000057,
      "d": 1931.4517416666786,
      "v": 89
    },
    {
      "midi": 38,
      "hit": false,
      "t": 182661.3025000001,
      "d": 106.85484583332436,
      "v": 114
    },
    {
      "midi": 38,
      "hit": false,
      "t": 182903.2380000001,
      "d": 259.07259791667457,
      "v": 112
    },
    {
      "midi": 38,
      "hit": false,
      "t": 183266.1412500001,
      "d": 240.92743541667005,
      "v": 114
    },
    {
      "midi": 38,
      "hit": false,
      "t": 183629.0445000001,
      "d": 175.40323749999516,
      "v": 112
    },
    {
      "midi": 37,
      "hit": false,
      "t": 183870.9800000001,
      "d": 375.00002499998664,
      "v": 110
    },
    {
      "midi": 49,
      "hit": false,
      "t": 183870.9800000006,
      "d": 1931.4517416666786,
      "v": 90
    },
    {
      "midi": 56,
      "hit": false,
      "t": 183870.9800000006,
      "d": 1931.4517416666786,
      "v": 93
    },
    {
      "midi": 59,
      "hit": false,
      "t": 183870.9800000006,
      "d": 1931.4517416666786,
      "v": 96
    },
    {
      "midi": 61,
      "hit": false,
      "t": 183870.9800000006,
      "d": 1931.4517416666786,
      "v": 94
    },
    {
      "midi": 37,
      "hit": false,
      "t": 184596.78650000007,
      "d": 119.95968541665934,
      "v": 107
    },
    {
      "midi": 37,
      "hit": false,
      "t": 184838.72200000007,
      "d": 313.508085416659,
      "v": 112
    },
    {
      "midi": 37,
      "hit": false,
      "t": 185201.62525000007,
      "d": 273.1855020833318,
      "v": 110
    },
    {
      "midi": 37,
      "hit": false,
      "t": 185564.52850000007,
      "d": 212.70162708332646,
      "v": 109
    },
    {
      "midi": 30,
      "hit": false,
      "t": 185806.46400000007,
      "d": 410.2822854166734,
      "v": 114
    },
    {
      "midi": 42,
      "hit": false,
      "t": 185806.46400000062,
      "d": 1931.4517416666786,
      "v": 97
    },
    {
      "midi": 57,
      "hit": false,
      "t": 185806.46400000062,
      "d": 1931.4517416666786,
      "v": 99
    },
    {
      "midi": 61,
      "hit": false,
      "t": 185806.46400000062,
      "d": 1931.4517416666786,
      "v": 91
    },
    {
      "midi": 66,
      "hit": false,
      "t": 185806.46400000062,
      "d": 1931.4517416666786,
      "v": 90
    },
    {
      "midi": 30,
      "hit": false,
      "t": 186532.27050000007,
      "d": 100.80645833333256,
      "v": 110
    },
    {
      "midi": 30,
      "hit": false,
      "t": 186774.20600000006,
      "d": 256.04840416667867,
      "v": 118
    },
    {
      "midi": 30,
      "hit": false,
      "t": 187137.10925000007,
      "d": 236.89517708332278,
      "v": 116
    },
    {
      "midi": 30,
      "hit": false,
      "t": 187500.01250000007,
      "d": 153.22581666667247,
      "v": 114
    },
    {
      "midi": 35,
      "hit": false,
      "t": 187741.94800000006,
      "d": 370.96776666666847,
      "v": 118
    },
    {
      "midi": 47,
      "hit": false,
      "t": 187741.94800000064,
      "d": 1931.4517416666786,
      "v": 96
    },
    {
      "midi": 57,
      "hit": false,
      "t": 187741.94800000064,
      "d": 1931.4517416666786,
      "v": 96
    },
    {
      "midi": 62,
      "hit": false,
      "t": 187741.94800000064,
      "d": 1931.4517416666786,
      "v": 94
    },
    {
      "midi": 66,
      "hit": false,
      "t": 187741.94800000064,
      "d": 1931.4517416666786,
      "v": 87
    },
    {
      "midi": 35,
      "hit": false,
      "t": 188467.75450000007,
      "d": 106.85484583332436,
      "v": 112
    },
    {
      "midi": 35,
      "hit": false,
      "t": 188709.69000000006,
      "d": 263.10485624999274,
      "v": 116
    },
    {
      "midi": 35,
      "hit": false,
      "t": 189072.59325000006,
      "d": 227.82259583333507,
      "v": 116
    },
    {
      "midi": 35,
      "hit": false,
      "t": 189435.49650000007,
      "d": 163.30646250001155,
      "v": 114
    },
    {
      "midi": 38,
      "hit": false,
      "t": 189677.4320000001,
      "d": 365.92744374999893,
      "v": 114
    },
    {
      "midi": 50,
      "hit": false,
      "t": 189677.43200000067,
      "d": 1931.4517416666786,
      "v": 97
    },
    {
      "midi": 57,
      "hit": false,
      "t": 189677.43200000067,
      "d": 1931.4517416666786,
      "v": 97
    },
    {
      "midi": 62,
      "hit": false,
      "t": 189677.43200000067,
      "d": 1931.4517416666786,
      "v": 97
    },
    {
      "midi": 66,
      "hit": false,
      "t": 189677.43200000067,
      "d": 1931.4517416666786,
      "v": 89
    },
    {
      "midi": 38,
      "hit": false,
      "t": 190403.2385000001,
      "d": 106.85484583332436,
      "v": 114
    },
    {
      "midi": 38,
      "hit": false,
      "t": 190645.1740000001,
      "d": 259.07259791667457,
      "v": 112
    },
    {
      "midi": 38,
      "hit": false,
      "t": 191008.0772500001,
      "d": 240.92743541667005,
      "v": 114
    },
    {
      "midi": 38,
      "hit": false,
      "t": 191370.9805000001,
      "d": 175.40323749999516,
      "v": 112
    },
    {
      "midi": 37,
      "hit": false,
      "t": 191612.91600000008,
      "d": 375.00002499998664,
      "v": 110
    },
    {
      "midi": 49,
      "hit": false,
      "t": 191612.9160000007,
      "d": 1931.4517416666786,
      "v": 90
    },
    {
      "midi": 56,
      "hit": false,
      "t": 191612.9160000007,
      "d": 1931.4517416666786,
      "v": 93
    },
    {
      "midi": 59,
      "hit": false,
      "t": 191612.9160000007,
      "d": 1931.4517416666786,
      "v": 96
    },
    {
      "midi": 61,
      "hit": false,
      "t": 191612.9160000007,
      "d": 1931.4517416666786,
      "v": 94
    },
    {
      "midi": 37,
      "hit": false,
      "t": 192338.72250000006,
      "d": 119.95968541665934,
      "v": 107
    },
    {
      "midi": 37,
      "hit": false,
      "t": 192580.65800000005,
      "d": 313.508085416659,
      "v": 112
    },
    {
      "midi": 37,
      "hit": false,
      "t": 192943.56125000006,
      "d": 273.1855020833318,
      "v": 110
    },
    {
      "midi": 37,
      "hit": false,
      "t": 193306.46450000006,
      "d": 212.70162708332646,
      "v": 109
    }
  ]
}